<?xml version="1.0" encoding="utf-8" standalone="no"?>
<!DOCTYPE svg PUBLIC "-//W3C//DTD SVG 1.1//EN"
  "http://www.w3.org/Graphics/SVG/1.1/DTD/svg11.dtd">
<!-- Created with matplotlib (https://matplotlib.org/) -->
<svg height="432pt" version="1.1" viewBox="0 0 864 432" width="864pt" xmlns="http://www.w3.org/2000/svg" xmlns:xlink="http://www.w3.org/1999/xlink">
 <defs>
  <style type="text/css">
*{stroke-linecap:butt;stroke-linejoin:round;}
  </style>
 </defs>
 <g id="figure_1">
  <g id="patch_1">
   <path d="M 0 432 
L 864 432 
L 864 0 
L 0 0 
z
" style="fill:#ffffff;"/>
  </g>
  <g id="axes_1">
   <g id="patch_2">
    <path d="M 108 384.48 
L 777.6 384.48 
L 777.6 51.84 
L 108 51.84 
z
" style="fill:#ffffff;"/>
   </g>
   <g id="patch_3">
    <path clip-path="url(#pa3630aee87)" d="M 138.436364 384.48 
L 138.436364 51.84 
L 438.990163 51.84 
L 438.990163 384.48 
z
" style="fill:#0000ff;opacity:0.05;"/>
   </g>
   <g id="patch_4">
    <path clip-path="url(#pa3630aee87)" d="M 438.990163 384.48 
L 438.990163 51.84 
L 743.777115 51.84 
L 743.777115 384.48 
z
" style="fill:#ff0000;opacity:0.08;"/>
   </g>
   <g id="patch_5">
    <path clip-path="url(#pa3630aee87)" d="M 138.436364 384.48 
L 138.436364 51.84 
L 142.669516 51.84 
L 142.669516 384.48 
z
" style="fill:#008000;opacity:0.04;"/>
   </g>
   <g id="patch_6">
    <path clip-path="url(#pa3630aee87)" d="M 146.902668 384.48 
L 146.902668 51.84 
L 151.13582 51.84 
L 151.13582 384.48 
z
" style="fill:#008000;opacity:0.04;"/>
   </g>
   <g id="patch_7">
    <path clip-path="url(#pa3630aee87)" d="M 146.902668 384.48 
L 146.902668 371.1744 
L 151.13582 371.1744 
L 151.13582 384.48 
z
" style="fill:#ffe500;"/>
   </g>
   <g id="patch_8">
    <path clip-path="url(#pa3630aee87)" d="M 151.13582 384.48 
L 151.13582 371.1744 
L 155.368972 371.1744 
L 155.368972 384.48 
z
" style="fill:#ffe500;"/>
   </g>
   <g id="patch_9">
    <path clip-path="url(#pa3630aee87)" d="M 155.368972 384.48 
L 155.368972 51.84 
L 159.602124 51.84 
L 159.602124 384.48 
z
" style="fill:#008000;opacity:0.04;"/>
   </g>
   <g id="patch_10">
    <path clip-path="url(#pa3630aee87)" d="M 163.835276 384.48 
L 163.835276 51.84 
L 168.068428 51.84 
L 168.068428 384.48 
z
" style="fill:#008000;opacity:0.04;"/>
   </g>
   <g id="patch_11">
    <path clip-path="url(#pa3630aee87)" d="M 172.30158 384.48 
L 172.30158 51.84 
L 176.534733 51.84 
L 176.534733 384.48 
z
" style="fill:#008000;opacity:0.04;"/>
   </g>
   <g id="patch_12">
    <path clip-path="url(#pa3630aee87)" d="M 180.767885 384.48 
L 180.767885 51.84 
L 185.001037 51.84 
L 185.001037 384.48 
z
" style="fill:#008000;opacity:0.04;"/>
   </g>
   <g id="patch_13">
    <path clip-path="url(#pa3630aee87)" d="M 189.234189 384.48 
L 189.234189 51.84 
L 193.467341 51.84 
L 193.467341 384.48 
z
" style="fill:#008000;opacity:0.04;"/>
   </g>
   <g id="patch_14">
    <path clip-path="url(#pa3630aee87)" d="M 197.700493 384.48 
L 197.700493 51.84 
L 201.933645 51.84 
L 201.933645 384.48 
z
" style="fill:#008000;opacity:0.04;"/>
   </g>
   <g id="patch_15">
    <path clip-path="url(#pa3630aee87)" d="M 206.166797 384.48 
L 206.166797 51.84 
L 210.399949 51.84 
L 210.399949 384.48 
z
" style="fill:#008000;opacity:0.04;"/>
   </g>
   <g id="patch_16">
    <path clip-path="url(#pa3630aee87)" d="M 510.953749 384.48 
L 510.953749 371.1744 
L 515.186901 371.1744 
L 515.186901 384.48 
z
" style="fill:#ff6600;"/>
   </g>
   <g id="patch_17">
    <path clip-path="url(#pa3630aee87)" d="M 214.633102 384.48 
L 214.633102 51.84 
L 218.866254 51.84 
L 218.866254 384.48 
z
" style="fill:#008000;opacity:0.04;"/>
   </g>
   <g id="patch_18">
    <path clip-path="url(#pa3630aee87)" d="M 214.633102 384.48 
L 214.633102 371.1744 
L 218.866254 371.1744 
L 218.866254 384.48 
z
" style="fill:#ffe500;"/>
   </g>
   <g id="patch_19">
    <path clip-path="url(#pa3630aee87)" d="M 223.099406 384.48 
L 223.099406 51.84 
L 227.332558 51.84 
L 227.332558 384.48 
z
" style="fill:#008000;opacity:0.04;"/>
   </g>
   <g id="patch_20">
    <path clip-path="url(#pa3630aee87)" d="M 231.56571 384.48 
L 231.56571 51.84 
L 235.798862 51.84 
L 235.798862 384.48 
z
" style="fill:#008000;opacity:0.04;"/>
   </g>
   <g id="patch_21">
    <path clip-path="url(#pa3630aee87)" d="M 235.798862 384.48 
L 235.798862 371.1744 
L 240.032014 371.1744 
L 240.032014 384.48 
z
" style="fill:#ffe500;"/>
   </g>
   <g id="patch_22">
    <path clip-path="url(#pa3630aee87)" d="M 240.032014 384.48 
L 240.032014 51.84 
L 244.265166 51.84 
L 244.265166 384.48 
z
" style="fill:#008000;opacity:0.04;"/>
   </g>
   <g id="patch_23">
    <path clip-path="url(#pa3630aee87)" d="M 248.498318 384.48 
L 248.498318 51.84 
L 252.73147 51.84 
L 252.73147 384.48 
z
" style="fill:#008000;opacity:0.04;"/>
   </g>
   <g id="patch_24">
    <path clip-path="url(#pa3630aee87)" d="M 256.964623 384.48 
L 256.964623 51.84 
L 261.197775 51.84 
L 261.197775 384.48 
z
" style="fill:#008000;opacity:0.04;"/>
   </g>
   <g id="patch_25">
    <path clip-path="url(#pa3630aee87)" d="M 265.430927 384.48 
L 265.430927 51.84 
L 269.664079 51.84 
L 269.664079 384.48 
z
" style="fill:#008000;opacity:0.04;"/>
   </g>
   <g id="patch_26">
    <path clip-path="url(#pa3630aee87)" d="M 273.897231 384.48 
L 273.897231 51.84 
L 278.130383 51.84 
L 278.130383 384.48 
z
" style="fill:#008000;opacity:0.04;"/>
   </g>
   <g id="patch_27">
    <path clip-path="url(#pa3630aee87)" d="M 273.897231 384.48 
L 273.897231 371.1744 
L 278.130383 371.1744 
L 278.130383 384.48 
z
" style="fill:#ffe500;"/>
   </g>
   <g id="patch_28">
    <path clip-path="url(#pa3630aee87)" d="M 282.363535 384.48 
L 282.363535 51.84 
L 286.596687 51.84 
L 286.596687 384.48 
z
" style="fill:#008000;opacity:0.04;"/>
   </g>
   <g id="patch_29">
    <path clip-path="url(#pa3630aee87)" d="M 290.829839 384.48 
L 290.829839 51.84 
L 295.062992 51.84 
L 295.062992 384.48 
z
" style="fill:#008000;opacity:0.04;"/>
   </g>
   <g id="patch_30">
    <path clip-path="url(#pa3630aee87)" d="M 299.296144 384.48 
L 299.296144 51.84 
L 303.529296 51.84 
L 303.529296 384.48 
z
" style="fill:#008000;opacity:0.04;"/>
   </g>
   <g id="patch_31">
    <path clip-path="url(#pa3630aee87)" d="M 307.762448 384.48 
L 307.762448 51.84 
L 311.9956 51.84 
L 311.9956 384.48 
z
" style="fill:#008000;opacity:0.04;"/>
   </g>
   <g id="patch_32">
    <path clip-path="url(#pa3630aee87)" d="M 316.228752 384.48 
L 316.228752 51.84 
L 320.461904 51.84 
L 320.461904 384.48 
z
" style="fill:#008000;opacity:0.04;"/>
   </g>
   <g id="patch_33">
    <path clip-path="url(#pa3630aee87)" d="M 316.228752 384.48 
L 316.228752 371.1744 
L 320.461904 371.1744 
L 320.461904 384.48 
z
" style="fill:#ffe500;"/>
   </g>
   <g id="patch_34">
    <path clip-path="url(#pa3630aee87)" d="M 324.695056 384.48 
L 324.695056 51.84 
L 328.928208 51.84 
L 328.928208 384.48 
z
" style="fill:#008000;opacity:0.04;"/>
   </g>
   <g id="patch_35">
    <path clip-path="url(#pa3630aee87)" d="M 333.16136 384.48 
L 333.16136 51.84 
L 337.394513 51.84 
L 337.394513 384.48 
z
" style="fill:#008000;opacity:0.04;"/>
   </g>
   <g id="patch_36">
    <path clip-path="url(#pa3630aee87)" d="M 633.71516 384.48 
L 633.71516 371.1744 
L 637.948312 371.1744 
L 637.948312 384.48 
z
" style="fill:#ff6600;"/>
   </g>
   <g id="patch_37">
    <path clip-path="url(#pa3630aee87)" d="M 341.627665 384.48 
L 341.627665 51.84 
L 345.860817 51.84 
L 345.860817 384.48 
z
" style="fill:#008000;opacity:0.04;"/>
   </g>
   <g id="patch_38">
    <path clip-path="url(#pa3630aee87)" d="M 350.093969 384.48 
L 350.093969 51.84 
L 354.327121 51.84 
L 354.327121 384.48 
z
" style="fill:#008000;opacity:0.04;"/>
   </g>
   <g id="patch_39">
    <path clip-path="url(#pa3630aee87)" d="M 358.560273 384.48 
L 358.560273 51.84 
L 362.793425 51.84 
L 362.793425 384.48 
z
" style="fill:#008000;opacity:0.04;"/>
   </g>
   <g id="patch_40">
    <path clip-path="url(#pa3630aee87)" d="M 367.026577 384.48 
L 367.026577 51.84 
L 371.259729 51.84 
L 371.259729 384.48 
z
" style="fill:#008000;opacity:0.04;"/>
   </g>
   <g id="patch_41">
    <path clip-path="url(#pa3630aee87)" d="M 375.492882 384.48 
L 375.492882 51.84 
L 379.726034 51.84 
L 379.726034 384.48 
z
" style="fill:#008000;opacity:0.04;"/>
   </g>
   <g id="patch_42">
    <path clip-path="url(#pa3630aee87)" d="M 383.959186 384.48 
L 383.959186 51.84 
L 388.192338 51.84 
L 388.192338 384.48 
z
" style="fill:#008000;opacity:0.04;"/>
   </g>
   <g id="patch_43">
    <path clip-path="url(#pa3630aee87)" d="M 392.42549 384.48 
L 392.42549 51.84 
L 396.658642 51.84 
L 396.658642 384.48 
z
" style="fill:#008000;opacity:0.04;"/>
   </g>
   <g id="patch_44">
    <path clip-path="url(#pa3630aee87)" d="M 400.891794 384.48 
L 400.891794 51.84 
L 405.124946 51.84 
L 405.124946 384.48 
z
" style="fill:#008000;opacity:0.04;"/>
   </g>
   <g id="patch_45">
    <path clip-path="url(#pa3630aee87)" d="M 409.358098 384.48 
L 409.358098 51.84 
L 413.59125 51.84 
L 413.59125 384.48 
z
" style="fill:#008000;opacity:0.04;"/>
   </g>
   <g id="patch_46">
    <path clip-path="url(#pa3630aee87)" d="M 417.824403 384.48 
L 417.824403 51.84 
L 422.057555 51.84 
L 422.057555 384.48 
z
" style="fill:#008000;opacity:0.04;"/>
   </g>
   <g id="patch_47">
    <path clip-path="url(#pa3630aee87)" d="M 426.290707 384.48 
L 426.290707 51.84 
L 430.523859 51.84 
L 430.523859 384.48 
z
" style="fill:#008000;opacity:0.04;"/>
   </g>
   <g id="patch_48">
    <path clip-path="url(#pa3630aee87)" d="M 430.523859 384.48 
L 430.523859 371.1744 
L 434.757011 371.1744 
L 434.757011 384.48 
z
" style="fill:#ffe500;"/>
   </g>
   <g id="patch_49">
    <path clip-path="url(#pa3630aee87)" d="M 434.757011 384.48 
L 434.757011 51.84 
L 438.990163 51.84 
L 438.990163 384.48 
z
" style="fill:#008000;opacity:0.04;"/>
   </g>
   <g id="patch_50">
    <path clip-path="url(#pa3630aee87)" d="M 443.223315 384.48 
L 443.223315 51.84 
L 447.456467 51.84 
L 447.456467 384.48 
z
" style="fill:#008000;opacity:0.04;"/>
   </g>
   <g id="patch_51">
    <path clip-path="url(#pa3630aee87)" d="M 451.689619 384.48 
L 451.689619 51.84 
L 455.922772 51.84 
L 455.922772 384.48 
z
" style="fill:#008000;opacity:0.04;"/>
   </g>
   <g id="patch_52">
    <path clip-path="url(#pa3630aee87)" d="M 460.155924 384.48 
L 460.155924 51.84 
L 464.389076 51.84 
L 464.389076 384.48 
z
" style="fill:#008000;opacity:0.04;"/>
   </g>
   <g id="patch_53">
    <path clip-path="url(#pa3630aee87)" d="M 468.622228 384.48 
L 468.622228 51.84 
L 472.85538 51.84 
L 472.85538 384.48 
z
" style="fill:#008000;opacity:0.04;"/>
   </g>
   <g id="patch_54">
    <path clip-path="url(#pa3630aee87)" d="M 477.088532 384.48 
L 477.088532 51.84 
L 481.321684 51.84 
L 481.321684 384.48 
z
" style="fill:#008000;opacity:0.04;"/>
   </g>
   <g id="patch_55">
    <path clip-path="url(#pa3630aee87)" d="M 485.554836 384.48 
L 485.554836 51.84 
L 489.787988 51.84 
L 489.787988 384.48 
z
" style="fill:#008000;opacity:0.04;"/>
   </g>
   <g id="patch_56">
    <path clip-path="url(#pa3630aee87)" d="M 494.02114 384.48 
L 494.02114 51.84 
L 498.254293 51.84 
L 498.254293 384.48 
z
" style="fill:#008000;opacity:0.04;"/>
   </g>
   <g id="patch_57">
    <path clip-path="url(#pa3630aee87)" d="M 502.487445 384.48 
L 502.487445 51.84 
L 506.720597 51.84 
L 506.720597 384.48 
z
" style="fill:#008000;opacity:0.04;"/>
   </g>
   <g id="patch_58">
    <path clip-path="url(#pa3630aee87)" d="M 510.953749 384.48 
L 510.953749 51.84 
L 515.186901 51.84 
L 515.186901 384.48 
z
" style="fill:#008000;opacity:0.04;"/>
   </g>
   <g id="patch_59">
    <path clip-path="url(#pa3630aee87)" d="M 519.420053 384.48 
L 519.420053 51.84 
L 523.653205 51.84 
L 523.653205 384.48 
z
" style="fill:#008000;opacity:0.04;"/>
   </g>
   <g id="patch_60">
    <path clip-path="url(#pa3630aee87)" d="M 527.886357 384.48 
L 527.886357 51.84 
L 532.119509 51.84 
L 532.119509 384.48 
z
" style="fill:#008000;opacity:0.04;"/>
   </g>
   <g id="patch_61">
    <path clip-path="url(#pa3630aee87)" d="M 536.352662 384.48 
L 536.352662 51.84 
L 540.585814 51.84 
L 540.585814 384.48 
z
" style="fill:#008000;opacity:0.04;"/>
   </g>
   <g id="patch_62">
    <path clip-path="url(#pa3630aee87)" d="M 544.818966 384.48 
L 544.818966 51.84 
L 549.052118 51.84 
L 549.052118 384.48 
z
" style="fill:#008000;opacity:0.04;"/>
   </g>
   <g id="patch_63">
    <path clip-path="url(#pa3630aee87)" d="M 553.28527 384.48 
L 553.28527 51.84 
L 557.518422 51.84 
L 557.518422 384.48 
z
" style="fill:#008000;opacity:0.04;"/>
   </g>
   <g id="patch_64">
    <path clip-path="url(#pa3630aee87)" d="M 561.751574 384.48 
L 561.751574 51.84 
L 565.984726 51.84 
L 565.984726 384.48 
z
" style="fill:#008000;opacity:0.04;"/>
   </g>
   <g id="patch_65">
    <path clip-path="url(#pa3630aee87)" d="M 570.217878 384.48 
L 570.217878 51.84 
L 574.45103 51.84 
L 574.45103 384.48 
z
" style="fill:#008000;opacity:0.04;"/>
   </g>
   <g id="patch_66">
    <path clip-path="url(#pa3630aee87)" d="M 578.684183 384.48 
L 578.684183 51.84 
L 582.917335 51.84 
L 582.917335 384.48 
z
" style="fill:#008000;opacity:0.04;"/>
   </g>
   <g id="patch_67">
    <path clip-path="url(#pa3630aee87)" d="M 587.150487 384.48 
L 587.150487 51.84 
L 591.383639 51.84 
L 591.383639 384.48 
z
" style="fill:#008000;opacity:0.04;"/>
   </g>
   <g id="patch_68">
    <path clip-path="url(#pa3630aee87)" d="M 595.616791 384.48 
L 595.616791 51.84 
L 599.849943 51.84 
L 599.849943 384.48 
z
" style="fill:#008000;opacity:0.04;"/>
   </g>
   <g id="patch_69">
    <path clip-path="url(#pa3630aee87)" d="M 604.083095 384.48 
L 604.083095 51.84 
L 608.316247 51.84 
L 608.316247 384.48 
z
" style="fill:#008000;opacity:0.04;"/>
   </g>
   <g id="patch_70">
    <path clip-path="url(#pa3630aee87)" d="M 612.549399 384.48 
L 612.549399 51.84 
L 616.782552 51.84 
L 616.782552 384.48 
z
" style="fill:#008000;opacity:0.04;"/>
   </g>
   <g id="patch_71">
    <path clip-path="url(#pa3630aee87)" d="M 621.015704 384.48 
L 621.015704 51.84 
L 625.248856 51.84 
L 625.248856 384.48 
z
" style="fill:#008000;opacity:0.04;"/>
   </g>
   <g id="patch_72">
    <path clip-path="url(#pa3630aee87)" d="M 629.482008 384.48 
L 629.482008 51.84 
L 633.71516 51.84 
L 633.71516 384.48 
z
" style="fill:#008000;opacity:0.04;"/>
   </g>
   <g id="patch_73">
    <path clip-path="url(#pa3630aee87)" d="M 637.948312 384.48 
L 637.948312 51.84 
L 642.181464 51.84 
L 642.181464 384.48 
z
" style="fill:#008000;opacity:0.04;"/>
   </g>
   <g id="patch_74">
    <path clip-path="url(#pa3630aee87)" d="M 646.414616 384.48 
L 646.414616 51.84 
L 650.647768 51.84 
L 650.647768 384.48 
z
" style="fill:#008000;opacity:0.04;"/>
   </g>
   <g id="patch_75">
    <path clip-path="url(#pa3630aee87)" d="M 654.88092 384.48 
L 654.88092 51.84 
L 659.114073 51.84 
L 659.114073 384.48 
z
" style="fill:#008000;opacity:0.04;"/>
   </g>
   <g id="patch_76">
    <path clip-path="url(#pa3630aee87)" d="M 663.347225 384.48 
L 663.347225 51.84 
L 667.580377 51.84 
L 667.580377 384.48 
z
" style="fill:#008000;opacity:0.04;"/>
   </g>
   <g id="patch_77">
    <path clip-path="url(#pa3630aee87)" d="M 671.813529 384.48 
L 671.813529 51.84 
L 676.046681 51.84 
L 676.046681 384.48 
z
" style="fill:#008000;opacity:0.04;"/>
   </g>
   <g id="patch_78">
    <path clip-path="url(#pa3630aee87)" d="M 680.279833 384.48 
L 680.279833 51.84 
L 684.512985 51.84 
L 684.512985 384.48 
z
" style="fill:#008000;opacity:0.04;"/>
   </g>
   <g id="patch_79">
    <path clip-path="url(#pa3630aee87)" d="M 688.746137 384.48 
L 688.746137 51.84 
L 692.979289 51.84 
L 692.979289 384.48 
z
" style="fill:#008000;opacity:0.04;"/>
   </g>
   <g id="patch_80">
    <path clip-path="url(#pa3630aee87)" d="M 697.212442 384.48 
L 697.212442 51.84 
L 701.445594 51.84 
L 701.445594 384.48 
z
" style="fill:#008000;opacity:0.04;"/>
   </g>
   <g id="patch_81">
    <path clip-path="url(#pa3630aee87)" d="M 705.678746 384.48 
L 705.678746 51.84 
L 709.911898 51.84 
L 709.911898 384.48 
z
" style="fill:#008000;opacity:0.04;"/>
   </g>
   <g id="patch_82">
    <path clip-path="url(#pa3630aee87)" d="M 714.14505 384.48 
L 714.14505 51.84 
L 718.378202 51.84 
L 718.378202 384.48 
z
" style="fill:#008000;opacity:0.04;"/>
   </g>
   <g id="patch_83">
    <path clip-path="url(#pa3630aee87)" d="M 722.611354 384.48 
L 722.611354 51.84 
L 726.844506 51.84 
L 726.844506 384.48 
z
" style="fill:#008000;opacity:0.04;"/>
   </g>
   <g id="patch_84">
    <path clip-path="url(#pa3630aee87)" d="M 731.077658 384.48 
L 731.077658 51.84 
L 735.31081 51.84 
L 735.31081 384.48 
z
" style="fill:#008000;opacity:0.04;"/>
   </g>
   <g id="patch_85">
    <path clip-path="url(#pa3630aee87)" d="M 739.543963 384.48 
L 739.543963 51.84 
L 743.777115 51.84 
L 743.777115 384.48 
z
" style="fill:#008000;opacity:0.04;"/>
   </g>
   <g id="matplotlib.axis_1">
    <g id="xtick_1">
     <g id="line2d_1">
      <defs>
       <path d="M 0 0 
L 0 3.5 
" id="mdd377bbd5d" style="stroke:#000000;stroke-width:0.8;"/>
      </defs>
      <g>
       <use style="stroke:#000000;stroke-width:0.8;" x="138.436364" xlink:href="#mdd377bbd5d" y="384.48"/>
      </g>
     </g>
     <g id="text_1">
      <!-- 0 -->
      <defs>
       <path d="M 31.78125 66.40625 
Q 24.171875 66.40625 20.328125 58.90625 
Q 16.5 51.421875 16.5 36.375 
Q 16.5 21.390625 20.328125 13.890625 
Q 24.171875 6.390625 31.78125 6.390625 
Q 39.453125 6.390625 43.28125 13.890625 
Q 47.125 21.390625 47.125 36.375 
Q 47.125 51.421875 43.28125 58.90625 
Q 39.453125 66.40625 31.78125 66.40625 
z
M 31.78125 74.21875 
Q 44.046875 74.21875 50.515625 64.515625 
Q 56.984375 54.828125 56.984375 36.375 
Q 56.984375 17.96875 50.515625 8.265625 
Q 44.046875 -1.421875 31.78125 -1.421875 
Q 19.53125 -1.421875 13.0625 8.265625 
Q 6.59375 17.96875 6.59375 36.375 
Q 6.59375 54.828125 13.0625 64.515625 
Q 19.53125 74.21875 31.78125 74.21875 
z
" id="DejaVuSans-48"/>
      </defs>
      <g transform="translate(135.255114 399.078438)scale(0.1 -0.1)">
       <use xlink:href="#DejaVuSans-48"/>
      </g>
     </g>
    </g>
    <g id="xtick_2">
     <g id="line2d_2">
      <g>
       <use style="stroke:#000000;stroke-width:0.8;" x="223.099406" xlink:href="#mdd377bbd5d" y="384.48"/>
      </g>
     </g>
     <g id="text_2">
      <!-- 200 -->
      <defs>
       <path d="M 19.1875 8.296875 
L 53.609375 8.296875 
L 53.609375 0 
L 7.328125 0 
L 7.328125 8.296875 
Q 12.9375 14.109375 22.625 23.890625 
Q 32.328125 33.6875 34.8125 36.53125 
Q 39.546875 41.84375 41.421875 45.53125 
Q 43.3125 49.21875 43.3125 52.78125 
Q 43.3125 58.59375 39.234375 62.25 
Q 35.15625 65.921875 28.609375 65.921875 
Q 23.96875 65.921875 18.8125 64.3125 
Q 13.671875 62.703125 7.8125 59.421875 
L 7.8125 69.390625 
Q 13.765625 71.78125 18.9375 73 
Q 24.125 74.21875 28.421875 74.21875 
Q 39.75 74.21875 46.484375 68.546875 
Q 53.21875 62.890625 53.21875 53.421875 
Q 53.21875 48.921875 51.53125 44.890625 
Q 49.859375 40.875 45.40625 35.40625 
Q 44.1875 33.984375 37.640625 27.21875 
Q 31.109375 20.453125 19.1875 8.296875 
z
" id="DejaVuSans-50"/>
      </defs>
      <g transform="translate(213.555656 399.078438)scale(0.1 -0.1)">
       <use xlink:href="#DejaVuSans-50"/>
       <use x="63.623047" xlink:href="#DejaVuSans-48"/>
       <use x="127.246094" xlink:href="#DejaVuSans-48"/>
      </g>
     </g>
    </g>
    <g id="xtick_3">
     <g id="line2d_3">
      <g>
       <use style="stroke:#000000;stroke-width:0.8;" x="307.762448" xlink:href="#mdd377bbd5d" y="384.48"/>
      </g>
     </g>
     <g id="text_3">
      <!-- 400 -->
      <defs>
       <path d="M 37.796875 64.3125 
L 12.890625 25.390625 
L 37.796875 25.390625 
z
M 35.203125 72.90625 
L 47.609375 72.90625 
L 47.609375 25.390625 
L 58.015625 25.390625 
L 58.015625 17.1875 
L 47.609375 17.1875 
L 47.609375 0 
L 37.796875 0 
L 37.796875 17.1875 
L 4.890625 17.1875 
L 4.890625 26.703125 
z
" id="DejaVuSans-52"/>
      </defs>
      <g transform="translate(298.218698 399.078438)scale(0.1 -0.1)">
       <use xlink:href="#DejaVuSans-52"/>
       <use x="63.623047" xlink:href="#DejaVuSans-48"/>
       <use x="127.246094" xlink:href="#DejaVuSans-48"/>
      </g>
     </g>
    </g>
    <g id="xtick_4">
     <g id="line2d_4">
      <g>
       <use style="stroke:#000000;stroke-width:0.8;" x="392.42549" xlink:href="#mdd377bbd5d" y="384.48"/>
      </g>
     </g>
     <g id="text_4">
      <!-- 600 -->
      <defs>
       <path d="M 33.015625 40.375 
Q 26.375 40.375 22.484375 35.828125 
Q 18.609375 31.296875 18.609375 23.390625 
Q 18.609375 15.53125 22.484375 10.953125 
Q 26.375 6.390625 33.015625 6.390625 
Q 39.65625 6.390625 43.53125 10.953125 
Q 47.40625 15.53125 47.40625 23.390625 
Q 47.40625 31.296875 43.53125 35.828125 
Q 39.65625 40.375 33.015625 40.375 
z
M 52.59375 71.296875 
L 52.59375 62.3125 
Q 48.875 64.0625 45.09375 64.984375 
Q 41.3125 65.921875 37.59375 65.921875 
Q 27.828125 65.921875 22.671875 59.328125 
Q 17.53125 52.734375 16.796875 39.40625 
Q 19.671875 43.65625 24.015625 45.921875 
Q 28.375 48.1875 33.59375 48.1875 
Q 44.578125 48.1875 50.953125 41.515625 
Q 57.328125 34.859375 57.328125 23.390625 
Q 57.328125 12.15625 50.6875 5.359375 
Q 44.046875 -1.421875 33.015625 -1.421875 
Q 20.359375 -1.421875 13.671875 8.265625 
Q 6.984375 17.96875 6.984375 36.375 
Q 6.984375 53.65625 15.1875 63.9375 
Q 23.390625 74.21875 37.203125 74.21875 
Q 40.921875 74.21875 44.703125 73.484375 
Q 48.484375 72.75 52.59375 71.296875 
z
" id="DejaVuSans-54"/>
      </defs>
      <g transform="translate(382.88174 399.078438)scale(0.1 -0.1)">
       <use xlink:href="#DejaVuSans-54"/>
       <use x="63.623047" xlink:href="#DejaVuSans-48"/>
       <use x="127.246094" xlink:href="#DejaVuSans-48"/>
      </g>
     </g>
    </g>
    <g id="xtick_5">
     <g id="line2d_5">
      <g>
       <use style="stroke:#000000;stroke-width:0.8;" x="477.088532" xlink:href="#mdd377bbd5d" y="384.48"/>
      </g>
     </g>
     <g id="text_5">
      <!-- 800 -->
      <defs>
       <path d="M 31.78125 34.625 
Q 24.75 34.625 20.71875 30.859375 
Q 16.703125 27.09375 16.703125 20.515625 
Q 16.703125 13.921875 20.71875 10.15625 
Q 24.75 6.390625 31.78125 6.390625 
Q 38.8125 6.390625 42.859375 10.171875 
Q 46.921875 13.96875 46.921875 20.515625 
Q 46.921875 27.09375 42.890625 30.859375 
Q 38.875 34.625 31.78125 34.625 
z
M 21.921875 38.8125 
Q 15.578125 40.375 12.03125 44.71875 
Q 8.5 49.078125 8.5 55.328125 
Q 8.5 64.0625 14.71875 69.140625 
Q 20.953125 74.21875 31.78125 74.21875 
Q 42.671875 74.21875 48.875 69.140625 
Q 55.078125 64.0625 55.078125 55.328125 
Q 55.078125 49.078125 51.53125 44.71875 
Q 48 40.375 41.703125 38.8125 
Q 48.828125 37.15625 52.796875 32.3125 
Q 56.78125 27.484375 56.78125 20.515625 
Q 56.78125 9.90625 50.3125 4.234375 
Q 43.84375 -1.421875 31.78125 -1.421875 
Q 19.734375 -1.421875 13.25 4.234375 
Q 6.78125 9.90625 6.78125 20.515625 
Q 6.78125 27.484375 10.78125 32.3125 
Q 14.796875 37.15625 21.921875 38.8125 
z
M 18.3125 54.390625 
Q 18.3125 48.734375 21.84375 45.5625 
Q 25.390625 42.390625 31.78125 42.390625 
Q 38.140625 42.390625 41.71875 45.5625 
Q 45.3125 48.734375 45.3125 54.390625 
Q 45.3125 60.0625 41.71875 63.234375 
Q 38.140625 66.40625 31.78125 66.40625 
Q 25.390625 66.40625 21.84375 63.234375 
Q 18.3125 60.0625 18.3125 54.390625 
z
" id="DejaVuSans-56"/>
      </defs>
      <g transform="translate(467.544782 399.078438)scale(0.1 -0.1)">
       <use xlink:href="#DejaVuSans-56"/>
       <use x="63.623047" xlink:href="#DejaVuSans-48"/>
       <use x="127.246094" xlink:href="#DejaVuSans-48"/>
      </g>
     </g>
    </g>
    <g id="xtick_6">
     <g id="line2d_6">
      <g>
       <use style="stroke:#000000;stroke-width:0.8;" x="561.751574" xlink:href="#mdd377bbd5d" y="384.48"/>
      </g>
     </g>
     <g id="text_6">
      <!-- 1000 -->
      <defs>
       <path d="M 12.40625 8.296875 
L 28.515625 8.296875 
L 28.515625 63.921875 
L 10.984375 60.40625 
L 10.984375 69.390625 
L 28.421875 72.90625 
L 38.28125 72.90625 
L 38.28125 8.296875 
L 54.390625 8.296875 
L 54.390625 0 
L 12.40625 0 
z
" id="DejaVuSans-49"/>
      </defs>
      <g transform="translate(549.026574 399.078438)scale(0.1 -0.1)">
       <use xlink:href="#DejaVuSans-49"/>
       <use x="63.623047" xlink:href="#DejaVuSans-48"/>
       <use x="127.246094" xlink:href="#DejaVuSans-48"/>
       <use x="190.869141" xlink:href="#DejaVuSans-48"/>
      </g>
     </g>
    </g>
    <g id="xtick_7">
     <g id="line2d_7">
      <g>
       <use style="stroke:#000000;stroke-width:0.8;" x="646.414616" xlink:href="#mdd377bbd5d" y="384.48"/>
      </g>
     </g>
     <g id="text_7">
      <!-- 1200 -->
      <g transform="translate(633.689616 399.078438)scale(0.1 -0.1)">
       <use xlink:href="#DejaVuSans-49"/>
       <use x="63.623047" xlink:href="#DejaVuSans-50"/>
       <use x="127.246094" xlink:href="#DejaVuSans-48"/>
       <use x="190.869141" xlink:href="#DejaVuSans-48"/>
      </g>
     </g>
    </g>
    <g id="xtick_8">
     <g id="line2d_8">
      <g>
       <use style="stroke:#000000;stroke-width:0.8;" x="731.077658" xlink:href="#mdd377bbd5d" y="384.48"/>
      </g>
     </g>
     <g id="text_8">
      <!-- 1400 -->
      <g transform="translate(718.352658 399.078438)scale(0.1 -0.1)">
       <use xlink:href="#DejaVuSans-49"/>
       <use x="63.623047" xlink:href="#DejaVuSans-52"/>
       <use x="127.246094" xlink:href="#DejaVuSans-48"/>
       <use x="190.869141" xlink:href="#DejaVuSans-48"/>
      </g>
     </g>
    </g>
    <g id="text_9">
     <!-- Timestamp -->
     <defs>
      <path d="M -0.296875 72.90625 
L 61.375 72.90625 
L 61.375 64.59375 
L 35.5 64.59375 
L 35.5 0 
L 25.59375 0 
L 25.59375 64.59375 
L -0.296875 64.59375 
z
" id="DejaVuSans-84"/>
      <path d="M 9.421875 54.6875 
L 18.40625 54.6875 
L 18.40625 0 
L 9.421875 0 
z
M 9.421875 75.984375 
L 18.40625 75.984375 
L 18.40625 64.59375 
L 9.421875 64.59375 
z
" id="DejaVuSans-105"/>
      <path d="M 52 44.1875 
Q 55.375 50.25 60.0625 53.125 
Q 64.75 56 71.09375 56 
Q 79.640625 56 84.28125 50.015625 
Q 88.921875 44.046875 88.921875 33.015625 
L 88.921875 0 
L 79.890625 0 
L 79.890625 32.71875 
Q 79.890625 40.578125 77.09375 44.375 
Q 74.3125 48.1875 68.609375 48.1875 
Q 61.625 48.1875 57.5625 43.546875 
Q 53.515625 38.921875 53.515625 30.90625 
L 53.515625 0 
L 44.484375 0 
L 44.484375 32.71875 
Q 44.484375 40.625 41.703125 44.40625 
Q 38.921875 48.1875 33.109375 48.1875 
Q 26.21875 48.1875 22.15625 43.53125 
Q 18.109375 38.875 18.109375 30.90625 
L 18.109375 0 
L 9.078125 0 
L 9.078125 54.6875 
L 18.109375 54.6875 
L 18.109375 46.1875 
Q 21.1875 51.21875 25.484375 53.609375 
Q 29.78125 56 35.6875 56 
Q 41.65625 56 45.828125 52.96875 
Q 50 49.953125 52 44.1875 
z
" id="DejaVuSans-109"/>
      <path d="M 56.203125 29.59375 
L 56.203125 25.203125 
L 14.890625 25.203125 
Q 15.484375 15.921875 20.484375 11.0625 
Q 25.484375 6.203125 34.421875 6.203125 
Q 39.59375 6.203125 44.453125 7.46875 
Q 49.3125 8.734375 54.109375 11.28125 
L 54.109375 2.78125 
Q 49.265625 0.734375 44.1875 -0.34375 
Q 39.109375 -1.421875 33.890625 -1.421875 
Q 20.796875 -1.421875 13.15625 6.1875 
Q 5.515625 13.8125 5.515625 26.8125 
Q 5.515625 40.234375 12.765625 48.109375 
Q 20.015625 56 32.328125 56 
Q 43.359375 56 49.78125 48.890625 
Q 56.203125 41.796875 56.203125 29.59375 
z
M 47.21875 32.234375 
Q 47.125 39.59375 43.09375 43.984375 
Q 39.0625 48.390625 32.421875 48.390625 
Q 24.90625 48.390625 20.390625 44.140625 
Q 15.875 39.890625 15.1875 32.171875 
z
" id="DejaVuSans-101"/>
      <path d="M 44.28125 53.078125 
L 44.28125 44.578125 
Q 40.484375 46.53125 36.375 47.5 
Q 32.28125 48.484375 27.875 48.484375 
Q 21.1875 48.484375 17.84375 46.4375 
Q 14.5 44.390625 14.5 40.28125 
Q 14.5 37.15625 16.890625 35.375 
Q 19.28125 33.59375 26.515625 31.984375 
L 29.59375 31.296875 
Q 39.15625 29.25 43.1875 25.515625 
Q 47.21875 21.78125 47.21875 15.09375 
Q 47.21875 7.46875 41.1875 3.015625 
Q 35.15625 -1.421875 24.609375 -1.421875 
Q 20.21875 -1.421875 15.453125 -0.5625 
Q 10.6875 0.296875 5.421875 2 
L 5.421875 11.28125 
Q 10.40625 8.6875 15.234375 7.390625 
Q 20.0625 6.109375 24.8125 6.109375 
Q 31.15625 6.109375 34.5625 8.28125 
Q 37.984375 10.453125 37.984375 14.40625 
Q 37.984375 18.0625 35.515625 20.015625 
Q 33.0625 21.96875 24.703125 23.78125 
L 21.578125 24.515625 
Q 13.234375 26.265625 9.515625 29.90625 
Q 5.8125 33.546875 5.8125 39.890625 
Q 5.8125 47.609375 11.28125 51.796875 
Q 16.75 56 26.8125 56 
Q 31.78125 56 36.171875 55.265625 
Q 40.578125 54.546875 44.28125 53.078125 
z
" id="DejaVuSans-115"/>
      <path d="M 18.3125 70.21875 
L 18.3125 54.6875 
L 36.8125 54.6875 
L 36.8125 47.703125 
L 18.3125 47.703125 
L 18.3125 18.015625 
Q 18.3125 11.328125 20.140625 9.421875 
Q 21.96875 7.515625 27.59375 7.515625 
L 36.8125 7.515625 
L 36.8125 0 
L 27.59375 0 
Q 17.1875 0 13.234375 3.875 
Q 9.28125 7.765625 9.28125 18.015625 
L 9.28125 47.703125 
L 2.6875 47.703125 
L 2.6875 54.6875 
L 9.28125 54.6875 
L 9.28125 70.21875 
z
" id="DejaVuSans-116"/>
      <path d="M 34.28125 27.484375 
Q 23.390625 27.484375 19.1875 25 
Q 14.984375 22.515625 14.984375 16.5 
Q 14.984375 11.71875 18.140625 8.90625 
Q 21.296875 6.109375 26.703125 6.109375 
Q 34.1875 6.109375 38.703125 11.40625 
Q 43.21875 16.703125 43.21875 25.484375 
L 43.21875 27.484375 
z
M 52.203125 31.203125 
L 52.203125 0 
L 43.21875 0 
L 43.21875 8.296875 
Q 40.140625 3.328125 35.546875 0.953125 
Q 30.953125 -1.421875 24.3125 -1.421875 
Q 15.921875 -1.421875 10.953125 3.296875 
Q 6 8.015625 6 15.921875 
Q 6 25.140625 12.171875 29.828125 
Q 18.359375 34.515625 30.609375 34.515625 
L 43.21875 34.515625 
L 43.21875 35.40625 
Q 43.21875 41.609375 39.140625 45 
Q 35.0625 48.390625 27.6875 48.390625 
Q 23 48.390625 18.546875 47.265625 
Q 14.109375 46.140625 10.015625 43.890625 
L 10.015625 52.203125 
Q 14.9375 54.109375 19.578125 55.046875 
Q 24.21875 56 28.609375 56 
Q 40.484375 56 46.34375 49.84375 
Q 52.203125 43.703125 52.203125 31.203125 
z
" id="DejaVuSans-97"/>
      <path d="M 18.109375 8.203125 
L 18.109375 -20.796875 
L 9.078125 -20.796875 
L 9.078125 54.6875 
L 18.109375 54.6875 
L 18.109375 46.390625 
Q 20.953125 51.265625 25.265625 53.625 
Q 29.59375 56 35.59375 56 
Q 45.5625 56 51.78125 48.09375 
Q 58.015625 40.1875 58.015625 27.296875 
Q 58.015625 14.40625 51.78125 6.484375 
Q 45.5625 -1.421875 35.59375 -1.421875 
Q 29.59375 -1.421875 25.265625 0.953125 
Q 20.953125 3.328125 18.109375 8.203125 
z
M 48.6875 27.296875 
Q 48.6875 37.203125 44.609375 42.84375 
Q 40.53125 48.484375 33.40625 48.484375 
Q 26.265625 48.484375 22.1875 42.84375 
Q 18.109375 37.203125 18.109375 27.296875 
Q 18.109375 17.390625 22.1875 11.75 
Q 26.265625 6.109375 33.40625 6.109375 
Q 40.53125 6.109375 44.609375 11.75 
Q 48.6875 17.390625 48.6875 27.296875 
z
" id="DejaVuSans-112"/>
     </defs>
     <g transform="translate(414.739062 412.756563)scale(0.1 -0.1)">
      <use xlink:href="#DejaVuSans-84"/>
      <use x="61.037109" xlink:href="#DejaVuSans-105"/>
      <use x="88.820312" xlink:href="#DejaVuSans-109"/>
      <use x="186.232422" xlink:href="#DejaVuSans-101"/>
      <use x="247.755859" xlink:href="#DejaVuSans-115"/>
      <use x="299.855469" xlink:href="#DejaVuSans-116"/>
      <use x="339.064453" xlink:href="#DejaVuSans-97"/>
      <use x="400.34375" xlink:href="#DejaVuSans-109"/>
      <use x="497.755859" xlink:href="#DejaVuSans-112"/>
     </g>
    </g>
   </g>
   <g id="matplotlib.axis_2">
    <g id="ytick_1">
     <g id="line2d_9">
      <defs>
       <path d="M 0 0 
L -3.5 0 
" id="m5c0d2b4834" style="stroke:#000000;stroke-width:0.8;"/>
      </defs>
      <g>
       <use style="stroke:#000000;stroke-width:0.8;" x="108" xlink:href="#m5c0d2b4834" y="343.95063"/>
      </g>
     </g>
     <g id="text_10">
      <!-- 10 -->
      <g transform="translate(88.275 347.749849)scale(0.1 -0.1)">
       <use xlink:href="#DejaVuSans-49"/>
       <use x="63.623047" xlink:href="#DejaVuSans-48"/>
      </g>
     </g>
    </g>
    <g id="ytick_2">
     <g id="line2d_10">
      <g>
       <use style="stroke:#000000;stroke-width:0.8;" x="108" xlink:href="#m5c0d2b4834" y="302.995572"/>
      </g>
     </g>
     <g id="text_11">
      <!-- 12 -->
      <g transform="translate(88.275 306.794791)scale(0.1 -0.1)">
       <use xlink:href="#DejaVuSans-49"/>
       <use x="63.623047" xlink:href="#DejaVuSans-50"/>
      </g>
     </g>
    </g>
    <g id="ytick_3">
     <g id="line2d_11">
      <g>
       <use style="stroke:#000000;stroke-width:0.8;" x="108" xlink:href="#m5c0d2b4834" y="262.040514"/>
      </g>
     </g>
     <g id="text_12">
      <!-- 14 -->
      <g transform="translate(88.275 265.839733)scale(0.1 -0.1)">
       <use xlink:href="#DejaVuSans-49"/>
       <use x="63.623047" xlink:href="#DejaVuSans-52"/>
      </g>
     </g>
    </g>
    <g id="ytick_4">
     <g id="line2d_12">
      <g>
       <use style="stroke:#000000;stroke-width:0.8;" x="108" xlink:href="#m5c0d2b4834" y="221.085456"/>
      </g>
     </g>
     <g id="text_13">
      <!-- 16 -->
      <g transform="translate(88.275 224.884675)scale(0.1 -0.1)">
       <use xlink:href="#DejaVuSans-49"/>
       <use x="63.623047" xlink:href="#DejaVuSans-54"/>
      </g>
     </g>
    </g>
    <g id="ytick_5">
     <g id="line2d_13">
      <g>
       <use style="stroke:#000000;stroke-width:0.8;" x="108" xlink:href="#m5c0d2b4834" y="180.130398"/>
      </g>
     </g>
     <g id="text_14">
      <!-- 18 -->
      <g transform="translate(88.275 183.929617)scale(0.1 -0.1)">
       <use xlink:href="#DejaVuSans-49"/>
       <use x="63.623047" xlink:href="#DejaVuSans-56"/>
      </g>
     </g>
    </g>
    <g id="ytick_6">
     <g id="line2d_14">
      <g>
       <use style="stroke:#000000;stroke-width:0.8;" x="108" xlink:href="#m5c0d2b4834" y="139.17534"/>
      </g>
     </g>
     <g id="text_15">
      <!-- 20 -->
      <g transform="translate(88.275 142.974559)scale(0.1 -0.1)">
       <use xlink:href="#DejaVuSans-50"/>
       <use x="63.623047" xlink:href="#DejaVuSans-48"/>
      </g>
     </g>
    </g>
    <g id="ytick_7">
     <g id="line2d_15">
      <g>
       <use style="stroke:#000000;stroke-width:0.8;" x="108" xlink:href="#m5c0d2b4834" y="98.220282"/>
      </g>
     </g>
     <g id="text_16">
      <!-- 22 -->
      <g transform="translate(88.275 102.019501)scale(0.1 -0.1)">
       <use xlink:href="#DejaVuSans-50"/>
       <use x="63.623047" xlink:href="#DejaVuSans-50"/>
      </g>
     </g>
    </g>
    <g id="ytick_8">
     <g id="line2d_16">
      <g>
       <use style="stroke:#000000;stroke-width:0.8;" x="108" xlink:href="#m5c0d2b4834" y="57.265224"/>
      </g>
     </g>
     <g id="text_17">
      <!-- 24 -->
      <g transform="translate(88.275 61.064443)scale(0.1 -0.1)">
       <use xlink:href="#DejaVuSans-50"/>
       <use x="63.623047" xlink:href="#DejaVuSans-52"/>
      </g>
     </g>
    </g>
    <g id="text_18">
     <!-- Value -->
     <defs>
      <path d="M 28.609375 0 
L 0.78125 72.90625 
L 11.078125 72.90625 
L 34.1875 11.53125 
L 57.328125 72.90625 
L 67.578125 72.90625 
L 39.796875 0 
z
" id="DejaVuSans-86"/>
      <path d="M 9.421875 75.984375 
L 18.40625 75.984375 
L 18.40625 0 
L 9.421875 0 
z
" id="DejaVuSans-108"/>
      <path d="M 8.5 21.578125 
L 8.5 54.6875 
L 17.484375 54.6875 
L 17.484375 21.921875 
Q 17.484375 14.15625 20.5 10.265625 
Q 23.53125 6.390625 29.59375 6.390625 
Q 36.859375 6.390625 41.078125 11.03125 
Q 45.3125 15.671875 45.3125 23.6875 
L 45.3125 54.6875 
L 54.296875 54.6875 
L 54.296875 0 
L 45.3125 0 
L 45.3125 8.40625 
Q 42.046875 3.421875 37.71875 1 
Q 33.40625 -1.421875 27.6875 -1.421875 
Q 18.265625 -1.421875 13.375 4.4375 
Q 8.5 10.296875 8.5 21.578125 
z
M 31.109375 56 
z
" id="DejaVuSans-117"/>
     </defs>
     <g transform="translate(82.195312 232.273281)rotate(-90)scale(0.1 -0.1)">
      <use xlink:href="#DejaVuSans-86"/>
      <use x="68.298828" xlink:href="#DejaVuSans-97"/>
      <use x="129.578125" xlink:href="#DejaVuSans-108"/>
      <use x="157.361328" xlink:href="#DejaVuSans-117"/>
      <use x="220.740234" xlink:href="#DejaVuSans-101"/>
     </g>
    </g>
   </g>
   <g id="line2d_17">
    <path clip-path="url(#pa3630aee87)" d="M 138.436364 268.634258 
L 138.859679 325.574945 
L 139.282994 292.226139 
L 139.706309 296.128423 
L 140.129624 235.144068 
L 140.55294 274.486018 
L 140.976255 301.910284 
L 141.39957 239.292627 
L 141.822885 269.201568 
L 142.669516 228.339778 
L 143.092831 315.935638 
L 143.516146 263.815651 
L 143.939461 283.264391 
L 144.362777 244.923847 
L 144.786092 319.810442 
L 145.209407 252.606969 
L 145.632722 239.488933 
L 146.056037 296.240624 
L 146.479353 223.103694 
L 146.902668 319.797088 
L 147.325983 258.736112 
L 147.749298 231.054659 
L 148.172613 335.391304 
L 148.595929 198.146464 
L 149.019244 328.260144 
L 149.442559 235.141932 
L 149.865874 221.921434 
L 150.28919 297.929978 
L 150.712505 217.282727 
L 151.13582 284.659352 
L 151.559135 304.003107 
L 151.98245 252.375037 
L 152.405766 323.339558 
L 152.829081 165.435841 
L 153.252396 274.912415 
L 153.675711 287.019252 
L 154.099026 214.911953 
L 154.522342 276.23383 
L 154.945657 188.731989 
L 155.368972 289.166352 
L 155.792287 326.434302 
L 156.215602 309.786491 
L 156.638918 316.990352 
L 157.062233 223.429951 
L 157.485548 287.591363 
L 157.908863 285.312127 
L 158.332179 275.409647 
L 158.755494 278.315525 
L 159.178809 229.541947 
L 159.602124 266.453393 
L 160.025439 273.09346 
L 160.448755 271.472253 
L 160.87207 263.239003 
L 161.295385 249.416253 
L 161.7187 304.504216 
L 162.142015 257.520589 
L 162.565331 243.794568 
L 162.988646 288.130745 
L 163.411961 239.800682 
L 163.835276 246.358737 
L 164.258591 259.563319 
L 164.681907 249.352414 
L 165.105222 249.905918 
L 165.528537 292.769601 
L 166.375168 328.051106 
L 166.798483 243.18641 
L 167.221798 297.753201 
L 167.645113 299.64137 
L 168.068428 283.809984 
L 168.491744 316.760156 
L 168.915059 277.405536 
L 169.338374 275.44443 
L 169.761689 323.13923 
L 170.185004 290.360589 
L 170.60832 308.858293 
L 171.031635 275.217902 
L 171.45495 306.471233 
L 171.878265 267.695178 
L 172.30158 325.730693 
L 172.724896 270.365927 
L 173.148211 248.067612 
L 173.571526 293.190771 
L 173.994841 238.409211 
L 174.418157 280.14403 
L 174.841472 272.292089 
L 175.264787 273.019372 
L 175.688102 261.946031 
L 176.111417 255.628525 
L 176.534733 283.828385 
L 176.958048 275.160612 
L 177.381363 200.321229 
L 177.804678 286.086063 
L 178.651309 195.816011 
L 179.074624 214.495086 
L 179.497939 269.91944 
L 179.921254 299.773357 
L 180.344569 186.173643 
L 180.767885 271.621809 
L 181.1912 216.813008 
L 181.614515 235.200744 
L 182.461146 218.42077 
L 182.884461 247.912794 
L 183.307776 253.039195 
L 183.731091 212.862284 
L 184.154406 196.333191 
L 185.001037 216.496434 
L 185.424352 159.515504 
L 186.270982 235.7437 
L 186.694298 238.580322 
L 187.117613 244.61263 
L 187.540928 179.385618 
L 187.964243 211.681024 
L 188.387558 199.571425 
L 188.810874 268.150313 
L 189.234189 246.833983 
L 189.657504 235.412312 
L 190.080819 241.257307 
L 190.504135 228.340683 
L 190.92745 220.652943 
L 191.350765 256.97541 
L 191.77408 211.121711 
L 192.197395 292.425805 
L 192.620711 169.021177 
L 193.044026 240.465703 
L 193.467341 219.388255 
L 193.890656 261.310336 
L 194.313971 183.003963 
L 194.737287 202.630986 
L 195.160602 169.903952 
L 195.583917 182.679903 
L 196.007232 191.631447 
L 196.430547 212.371575 
L 196.853863 262.374491 
L 197.277178 150.268555 
L 197.700493 235.100741 
L 198.547124 207.877988 
L 198.970439 208.652164 
L 199.393754 243.663332 
L 199.817069 217.968621 
L 200.240384 228.683728 
L 200.6637 232.250975 
L 201.087015 239.326686 
L 201.51033 259.604057 
L 201.933645 274.299371 
L 202.35696 293.814161 
L 202.780276 275.841062 
L 203.203591 274.616522 
L 203.626906 239.860227 
L 204.050221 242.349513 
L 204.473536 228.862976 
L 204.896852 209.313041 
L 205.320167 267.71413 
L 205.743482 260.489445 
L 206.166797 248.091676 
L 206.590113 217.82244 
L 207.013428 273.218615 
L 207.436743 256.952165 
L 207.860058 271.989918 
L 208.283373 202.998535 
L 208.706689 289.917262 
L 209.130004 338.190816 
L 209.553319 334.287469 
L 209.976634 302.336751 
L 210.399949 259.82963 
L 211.24658 327.278853 
L 211.669895 264.352215 
L 212.09321 304.820111 
L 212.516525 302.634693 
L 212.939841 290.542744 
L 213.363156 304.405556 
L 213.786471 199.557253 
L 214.633102 266.08527 
L 215.056417 262.562864 
L 215.479732 301.167946 
L 215.903047 280.691288 
L 216.326362 285.485009 
L 217.596308 305.750127 
L 218.019623 300.052918 
L 218.442938 309.813121 
L 218.866254 277.190462 
L 219.289569 300.963346 
L 219.712884 293.08072 
L 220.136199 213.928149 
L 220.559514 284.044525 
L 220.98283 290.575021 
L 221.406145 250.917528 
L 221.82946 291.208291 
L 222.252775 284.626624 
L 222.676091 265.077282 
L 223.099406 280.29286 
L 223.522721 225.968736 
L 223.946036 231.039729 
L 224.369351 223.955631 
L 224.792667 209.954127 
L 225.215982 202.79954 
L 225.639297 274.529096 
L 226.485927 253.393886 
L 226.909243 311.032463 
L 227.755873 258.568202 
L 228.179188 294.925652 
L 228.602503 313.390671 
L 229.025819 307.335186 
L 229.449134 314.070469 
L 229.872449 259.210944 
L 230.295764 255.491847 
L 230.71908 267.565793 
L 231.142395 302.203003 
L 231.56571 274.83854 
L 231.989025 300.33285 
L 232.41234 240.26164 
L 232.835656 261.976715 
L 233.258971 304.39706 
L 233.682286 303.307312 
L 234.105601 279.80539 
L 234.528916 191.156157 
L 234.952232 249.387134 
L 235.375547 266.499341 
L 235.798862 273.504787 
L 236.222177 276.27539 
L 236.645492 270.651607 
L 237.068808 321.262835 
L 237.492123 309.187768 
L 237.915438 207.293431 
L 238.338753 323.899309 
L 238.762069 320.699073 
L 239.185384 213.96666 
L 239.608699 334.965708 
L 240.032014 225.168032 
L 240.455329 309.709725 
L 240.878645 282.356472 
L 241.30196 233.268814 
L 241.725275 303.300022 
L 242.14859 271.24524 
L 242.571905 276.781352 
L 242.995221 318.26949 
L 243.418536 302.96979 
L 243.841851 356.96304 
L 244.265166 259.889548 
L 244.688481 244.049127 
L 245.111797 295.486227 
L 245.535112 219.585135 
L 245.958427 186.070659 
L 246.381742 239.252979 
L 246.805058 230.325683 
L 247.228373 287.915278 
L 247.651688 258.566395 
L 248.075003 262.454376 
L 248.498318 274.808483 
L 248.921634 292.648294 
L 249.344949 347.494598 
L 250.191579 316.717445 
L 250.614894 309.232516 
L 251.03821 263.796686 
L 251.461525 246.564705 
L 252.308155 311.69489 
L 252.73147 296.649191 
L 253.154786 312.973789 
L 253.578101 266.127804 
L 254.001416 307.415366 
L 254.424731 305.403519 
L 254.848047 273.131814 
L 255.271362 271.916704 
L 255.694677 286.445785 
L 256.117992 247.776943 
L 256.541307 293.48345 
L 256.964623 283.22153 
L 257.387938 308.832799 
L 257.811253 312.384543 
L 258.234568 284.635911 
L 258.657883 294.308526 
L 259.504514 258.76252 
L 259.927829 291.796584 
L 260.351144 295.153941 
L 260.774459 260.771454 
L 261.197775 304.174248 
L 261.62109 302.110435 
L 262.044405 312.601984 
L 262.46772 261.518257 
L 262.891036 329.426269 
L 263.314351 323.88787 
L 263.737666 323.223127 
L 264.160981 279.147449 
L 264.584296 280.086848 
L 265.007612 267.992604 
L 265.430927 278.397336 
L 265.854242 271.933513 
L 266.277557 283.663698 
L 266.700872 256.225649 
L 267.124188 250.701316 
L 267.547503 271.242865 
L 267.970818 297.727462 
L 268.394133 272.893692 
L 268.817448 280.223441 
L 269.240764 226.570885 
L 269.664079 237.756305 
L 270.087394 321.622721 
L 270.510709 240.043208 
L 270.934025 251.437951 
L 271.35734 318.464869 
L 271.780655 304.39869 
L 272.20397 322.012949 
L 272.627285 319.410683 
L 273.050601 276.472895 
L 273.473916 264.899197 
L 273.897231 275.539496 
L 274.743861 311.989947 
L 275.167177 290.021341 
L 275.590492 309.440499 
L 276.013807 275.745633 
L 276.437122 310.591563 
L 276.860437 319.183012 
L 277.283753 292.920033 
L 277.707068 282.059641 
L 278.130383 286.796009 
L 278.977014 275.301205 
L 279.400329 305.411136 
L 280.246959 229.310305 
L 280.670274 241.982459 
L 281.09359 223.556253 
L 281.516905 184.77552 
L 281.94022 214.254566 
L 282.363535 230.431851 
L 282.78685 305.232995 
L 283.210166 267.44042 
L 283.633481 251.814155 
L 284.056796 291.422339 
L 284.480111 220.604037 
L 284.903426 303.03332 
L 285.326742 216.768724 
L 286.173372 293.268266 
L 286.596687 224.847449 
L 287.020003 230.721741 
L 287.443318 219.149809 
L 287.866633 292.900694 
L 288.289948 281.233565 
L 288.713263 202.475771 
L 289.136579 258.325606 
L 289.559894 255.603404 
L 289.983209 237.763264 
L 290.406524 260.689862 
L 291.253155 230.770921 
L 291.67647 252.633017 
L 292.099785 191.365713 
L 292.946415 268.005373 
L 293.369731 227.996338 
L 293.793046 247.626776 
L 294.639676 262.437079 
L 295.062992 211.475867 
L 295.486307 245.126798 
L 295.909622 197.713541 
L 296.332937 225.860932 
L 296.756252 292.922887 
L 297.179568 289.269248 
L 297.602883 260.006317 
L 298.026198 248.678246 
L 298.449513 278.683803 
L 298.872828 251.189141 
L 299.296144 271.49388 
L 299.719459 310.006028 
L 300.142774 240.485544 
L 300.566089 236.645738 
L 300.989404 287.618413 
L 301.41272 253.368034 
L 301.836035 278.156748 
L 302.25935 197.07029 
L 302.682665 285.317421 
L 303.105981 311.028241 
L 303.529296 287.623342 
L 303.952611 287.956896 
L 304.375926 264.217296 
L 304.799241 292.210695 
L 305.222557 284.825614 
L 305.645872 202.877974 
L 306.069187 237.949929 
L 306.492502 210.059936 
L 306.915817 214.736251 
L 307.339133 218.119699 
L 307.762448 258.94048 
L 308.185763 311.739317 
L 308.609078 301.397986 
L 309.032393 275.479306 
L 309.455709 256.82216 
L 309.879024 304.272204 
L 310.302339 318.229615 
L 310.725654 295.940556 
L 311.14897 295.383325 
L 311.572285 298.094749 
L 311.9956 319.605915 
L 312.418915 242.570533 
L 312.84223 303.931674 
L 313.265546 285.159994 
L 313.688861 290.311419 
L 314.112176 279.670384 
L 314.535491 302.79459 
L 314.958806 278.384853 
L 315.382122 262.941435 
L 315.805437 315.122737 
L 316.228752 282.487922 
L 316.652067 295.968942 
L 317.075382 152.127286 
L 317.498698 298.871747 
L 317.922013 220.823805 
L 318.345328 305.614341 
L 319.191959 194.255991 
L 319.615274 258.005397 
L 320.038589 215.124037 
L 320.461904 280.7552 
L 320.885219 308.361944 
L 321.308535 231.920565 
L 321.73185 318.526856 
L 322.155165 237.89465 
L 322.57848 264.512649 
L 323.001795 283.208409 
L 323.425111 241.402882 
L 323.848426 306.468597 
L 324.271741 248.647424 
L 324.695056 294.097568 
L 325.118371 275.062469 
L 325.541687 224.140246 
L 325.965002 310.083606 
L 326.388317 208.116911 
L 326.811632 274.196233 
L 327.658263 233.443708 
L 328.081578 305.443438 
L 328.504893 251.827742 
L 328.928208 277.714574 
L 329.351524 214.982333 
L 330.198154 249.596148 
L 330.621469 244.483089 
L 331.044784 295.206073 
L 331.4681 240.668265 
L 331.891415 265.539515 
L 332.31473 268.603919 
L 332.738045 243.593632 
L 333.16136 284.554031 
L 333.584676 213.01323 
L 334.007991 289.294099 
L 334.431306 284.415735 
L 334.854621 293.87007 
L 335.277937 244.114113 
L 335.701252 233.580446 
L 336.124567 305.52529 
L 336.547882 302.907312 
L 336.971197 240.606903 
L 337.394513 292.385692 
L 337.817828 260.126693 
L 338.241143 283.024909 
L 338.664458 340.200326 
L 339.087773 279.740405 
L 339.511089 309.561886 
L 339.934404 227.444013 
L 340.357719 242.317622 
L 340.781034 279.1277 
L 341.204349 256.229163 
L 341.627665 224.326372 
L 342.05098 267.057396 
L 342.474295 190.533458 
L 343.320926 298.397033 
L 343.744241 236.295548 
L 344.167556 306.925793 
L 344.590871 267.699525 
L 345.014186 242.462141 
L 345.437502 262.081454 
L 345.860817 227.543059 
L 346.284132 278.012063 
L 346.707447 193.000982 
L 347.130762 242.964578 
L 347.554078 260.77497 
L 347.977393 228.231424 
L 348.400708 242.60251 
L 348.824023 238.606229 
L 349.247338 240.000321 
L 349.670654 274.881404 
L 350.093969 258.323752 
L 350.517284 222.979451 
L 350.940599 263.123149 
L 351.363915 244.344098 
L 351.78723 257.297238 
L 352.210545 192.671328 
L 352.63386 232.636323 
L 353.057175 242.599523 
L 353.480491 207.896918 
L 353.903806 209.961375 
L 354.327121 252.042326 
L 354.750436 252.25298 
L 355.173751 246.450037 
L 355.597067 213.984491 
L 356.020382 255.368589 
L 356.443697 246.569614 
L 356.867012 206.321033 
L 357.290327 210.868368 
L 357.713643 275.059624 
L 358.136958 278.079266 
L 358.560273 268.996376 
L 358.983588 322.712732 
L 359.406904 252.095423 
L 359.830219 266.889875 
L 360.253534 227.688845 
L 360.676849 251.273733 
L 361.100164 252.570112 
L 361.52348 199.538862 
L 361.946795 210.00428 
L 362.37011 217.43895 
L 362.793425 242.345633 
L 363.21674 248.059229 
L 363.640056 262.200062 
L 364.063371 214.775758 
L 364.486686 234.536851 
L 364.910001 240.155812 
L 365.333316 254.991574 
L 365.756632 209.567466 
L 366.179947 192.652905 
L 366.603262 252.232797 
L 367.026577 206.914391 
L 367.449893 202.949561 
L 367.873208 259.403331 
L 368.296523 225.548112 
L 368.719838 311.399972 
L 369.143153 267.042373 
L 369.566469 296.543628 
L 369.989784 269.44717 
L 370.413099 256.057911 
L 370.836414 259.638126 
L 371.259729 225.242604 
L 371.683045 265.162527 
L 372.10636 248.941304 
L 372.529675 256.982442 
L 372.95299 276.77159 
L 373.376305 287.926694 
L 373.799621 284.514726 
L 374.222936 300.446022 
L 374.646251 280.367926 
L 375.069566 281.33637 
L 375.492882 279.770355 
L 375.916197 313.346122 
L 376.339512 279.68814 
L 376.762827 174.165785 
L 377.186142 201.825507 
L 377.609458 265.30215 
L 378.032773 223.597438 
L 378.456088 260.927278 
L 378.879403 270.509074 
L 379.302718 237.253132 
L 379.726034 268.419979 
L 380.149349 254.854113 
L 380.572664 232.150017 
L 380.995979 288.720983 
L 381.419294 210.929747 
L 381.84261 267.474059 
L 382.265925 271.537664 
L 382.68924 254.465342 
L 383.112555 229.186711 
L 383.535871 236.511134 
L 383.959186 234.956751 
L 384.382501 220.930831 
L 384.805816 281.846321 
L 385.229131 259.435758 
L 385.652447 300.174864 
L 386.499077 215.857325 
L 386.922392 228.492573 
L 387.345707 277.907288 
L 387.769023 148.338374 
L 388.192338 273.624565 
L 388.615653 234.763162 
L 389.038968 213.634884 
L 389.462283 320.800254 
L 389.885599 284.092821 
L 390.308914 217.944409 
L 390.732229 301.286682 
L 391.155544 234.070176 
L 391.57886 191.399047 
L 392.002175 233.375038 
L 392.42549 226.254821 
L 392.848805 255.192935 
L 393.27212 230.383875 
L 393.695436 272.034167 
L 394.118751 228.958146 
L 394.542066 219.01648 
L 394.965381 231.14178 
L 395.388696 301.541512 
L 395.812012 283.189558 
L 396.235327 292.200101 
L 396.658642 254.334189 
L 397.081957 244.563449 
L 397.505272 245.062422 
L 397.928588 241.187783 
L 398.351903 246.808429 
L 398.775218 248.009857 
L 399.198533 233.793966 
L 399.621849 296.528056 
L 400.045164 287.829495 
L 400.468479 227.013069 
L 400.891794 237.570828 
L 401.315109 155.416196 
L 401.738425 226.824172 
L 402.16174 269.163848 
L 402.585055 277.449433 
L 403.00837 270.643017 
L 403.431685 261.797453 
L 403.855001 285.007466 
L 404.278316 246.22093 
L 404.701631 243.655937 
L 405.124946 236.439512 
L 405.971577 279.059715 
L 406.394892 280.093688 
L 406.818207 272.015578 
L 407.241522 237.734606 
L 407.664838 263.065477 
L 408.511468 231.564208 
L 408.934783 236.648741 
L 409.358098 272.885888 
L 409.781414 197.433187 
L 410.204729 259.564471 
L 410.628044 258.990388 
L 411.051359 248.08712 
L 411.474674 277.449284 
L 411.89799 247.122694 
L 412.321305 251.063552 
L 412.74462 221.778048 
L 413.167935 270.11121 
L 413.59125 270.631109 
L 414.014566 271.832591 
L 414.437881 268.498433 
L 414.861196 277.458555 
L 415.284511 317.155713 
L 415.707827 289.656355 
L 416.131142 247.106674 
L 416.554457 278.046256 
L 416.977772 280.830947 
L 417.401087 239.233539 
L 417.824403 258.547267 
L 418.247718 234.90532 
L 418.671033 180.954199 
L 419.094348 230.226246 
L 419.517663 253.447625 
L 419.940979 284.788012 
L 420.787609 262.624183 
L 421.210924 272.25239 
L 421.634239 264.752673 
L 422.057555 278.911139 
L 422.904185 239.460501 
L 423.3275 261.776911 
L 423.750816 254.373412 
L 424.174131 263.914078 
L 424.597446 261.17926 
L 425.020761 261.485283 
L 425.444076 317.003595 
L 426.290707 247.9295 
L 426.714022 293.998558 
L 427.137337 274.201995 
L 427.560652 226.670497 
L 428.407283 251.260677 
L 428.830598 248.025751 
L 429.253913 240.842059 
L 429.677228 240.884235 
L 430.100544 247.919955 
L 430.523859 260.442588 
L 430.947174 160.161608 
L 431.370489 284.266563 
L 432.21712 214.636041 
L 432.640435 297.83599 
L 433.06375 218.805806 
L 433.487065 288.261812 
L 433.910381 265.466071 
L 434.333696 274.140239 
L 434.757011 232.949202 
L 435.180326 261.775586 
L 435.603641 272.461308 
L 436.026957 287.868402 
L 436.450272 235.867502 
L 436.873587 268.157875 
L 437.296902 189.198716 
L 437.720217 202.010443 
L 438.143533 244.624435 
L 438.566848 224.1107 
L 438.990163 229.145113 
L 439.413478 207.129851 
L 439.836794 268.827926 
L 440.260109 303.551755 
L 440.683424 299.214647 
L 441.106739 256.265935 
L 441.530054 310.422653 
L 441.95337 291.556739 
L 442.376685 319.194381 
L 442.8 331.995647 
L 443.223315 280.584885 
L 443.64663 317.630477 
L 444.069946 293.149098 
L 444.493261 187.553549 
L 444.916576 308.032929 
L 445.339891 309.064532 
L 445.763206 279.45989 
L 446.186522 274.114598 
L 446.609837 287.205312 
L 447.033152 308.53264 
L 447.456467 227.484367 
L 447.879783 263.098017 
L 448.303098 247.103888 
L 448.726413 287.493298 
L 449.149728 275.965017 
L 449.573043 274.989091 
L 449.996359 205.934397 
L 450.419674 324.582321 
L 450.842989 315.736049 
L 451.266304 268.338756 
L 451.689619 279.938233 
L 452.112935 282.48316 
L 452.53625 295.923275 
L 452.959565 262.248278 
L 453.38288 238.681346 
L 453.806195 266.900891 
L 454.229511 267.406976 
L 454.652826 244.156058 
L 455.076141 270.535485 
L 455.499456 269.18279 
L 455.922772 292.013487 
L 456.346087 306.591464 
L 456.769402 305.50058 
L 457.192717 259.536206 
L 457.616032 232.425181 
L 458.039348 278.365493 
L 458.462663 259.991754 
L 458.885978 217.596906 
L 459.309293 296.193485 
L 459.732608 250.111927 
L 460.155924 259.714554 
L 460.579239 281.675901 
L 461.002554 295.175902 
L 461.425869 281.875625 
L 461.849184 276.614638 
L 462.2725 258.327133 
L 462.695815 229.04756 
L 463.11913 290.423505 
L 463.542445 255.923616 
L 463.965761 235.896063 
L 464.389076 276.459266 
L 464.812391 210.328782 
L 465.235706 304.183498 
L 465.659021 314.786681 
L 466.082337 219.758265 
L 466.505652 344.792291 
L 466.928967 253.575606 
L 467.352282 282.353846 
L 467.775597 328.824128 
L 468.198913 273.956321 
L 468.622228 310.06837 
L 469.045543 297.461709 
L 469.468858 306.004986 
L 469.892173 339.911021 
L 470.315489 286.597992 
L 470.738804 250.802928 
L 471.162119 312.23648 
L 471.585434 247.386878 
L 472.00875 322.589739 
L 472.432065 328.848985 
L 472.85538 346.145542 
L 473.278695 319.244384 
L 473.70201 256.463907 
L 474.125326 303.993287 
L 474.548641 210.732077 
L 474.971956 272.786216 
L 475.395271 286.439688 
L 475.818586 291.462323 
L 476.241902 325.04946 
L 476.665217 296.634259 
L 477.088532 299.959728 
L 477.511847 266.285941 
L 477.935162 248.557544 
L 478.358478 299.624432 
L 479.205108 199.979156 
L 479.628423 243.122269 
L 480.051739 235.038456 
L 480.475054 272.831168 
L 480.898369 203.17511 
L 481.321684 294.471197 
L 481.744999 271.068713 
L 482.168315 237.409882 
L 482.59163 308.427579 
L 483.014945 307.952471 
L 483.43826 218.503534 
L 484.284891 263.322312 
L 484.708206 234.990009 
L 485.131521 246.961425 
L 485.554836 231.206036 
L 485.978151 246.061904 
L 486.401467 268.592848 
L 486.824782 276.811044 
L 487.248097 278.092352 
L 487.671412 225.711584 
L 488.094728 250.8466 
L 488.518043 215.564075 
L 489.364673 269.507528 
L 489.787988 197.192022 
L 490.211304 314.058501 
L 490.634619 249.606828 
L 491.057934 301.166576 
L 491.481249 289.204848 
L 491.904564 222.474227 
L 492.32788 289.665998 
L 492.751195 248.464467 
L 493.17451 186.137429 
L 493.597825 239.551248 
L 494.02114 255.695195 
L 494.444456 258.991889 
L 494.867771 196.584832 
L 495.291086 300.866671 
L 495.714401 250.402458 
L 496.137717 230.010223 
L 496.561032 307.144477 
L 496.984347 287.358762 
L 497.407662 236.693941 
L 497.830977 216.117132 
L 498.254293 239.249646 
L 498.677608 281.351056 
L 499.100923 262.408045 
L 499.524238 202.293465 
L 499.947553 243.277916 
L 500.370869 239.446788 
L 500.794184 250.406748 
L 501.217499 250.799202 
L 501.640814 280.486112 
L 502.064129 325.360971 
L 502.487445 206.618415 
L 502.91076 310.132206 
L 503.334075 277.667098 
L 503.75739 255.607155 
L 504.180706 260.871144 
L 504.604021 263.674582 
L 505.027336 277.423436 
L 505.450651 256.902517 
L 505.873966 247.939124 
L 506.297282 228.186811 
L 506.720597 295.333985 
L 507.143912 301.243774 
L 507.567227 321.170203 
L 508.413858 282.91443 
L 508.837173 243.791941 
L 509.260488 266.299715 
L 509.683803 225.593395 
L 510.107118 285.167674 
L 510.530434 310.552199 
L 510.953749 225.395305 
L 511.377064 328.526644 
L 511.800379 239.204495 
L 512.223695 245.073841 
L 512.64701 232.460718 
L 513.070325 108.325061 
L 513.49364 253.998895 
L 513.916955 201.398558 
L 514.340271 264.92981 
L 514.763586 272.80513 
L 515.186901 204.798463 
L 515.610216 257.280972 
L 516.033531 202.873656 
L 516.456847 248.906698 
L 517.303477 287.403731 
L 517.726792 244.475354 
L 518.150107 250.155299 
L 518.573423 236.969901 
L 518.996738 294.50097 
L 519.420053 243.410176 
L 519.843368 283.337526 
L 520.266684 272.778548 
L 520.689999 222.206469 
L 521.113314 306.729833 
L 521.536629 198.273927 
L 521.959944 252.447245 
L 522.38326 227.231325 
L 522.806575 239.219444 
L 523.22989 226.614433 
L 523.653205 277.962679 
L 524.07652 307.03704 
L 524.499836 180.104743 
L 524.923151 226.036236 
L 525.346466 222.486406 
L 525.769781 222.042713 
L 526.193096 237.136102 
L 526.616412 263.674514 
L 527.039727 193.794572 
L 527.463042 286.170772 
L 527.886357 214.062073 
L 528.309673 284.768783 
L 529.156303 233.129286 
L 530.002933 141.1406 
L 530.426249 185.66967 
L 530.849564 209.626262 
L 531.272879 221.781208 
L 531.696194 281.605271 
L 532.119509 294.486742 
L 532.542825 203.649286 
L 532.96614 279.629607 
L 533.389455 315.254504 
L 533.81277 315.133482 
L 534.236085 340.611551 
L 535.082716 297.191841 
L 535.506031 301.256456 
L 535.929346 326.048667 
L 536.352662 284.364466 
L 536.775977 324.3511 
L 537.199292 334.14877 
L 537.622607 305.849967 
L 538.045922 237.32792 
L 538.469238 324.154271 
L 538.892553 312.948101 
L 539.315868 263.388318 
L 539.739183 280.665378 
L 540.162498 285.365797 
L 540.585814 285.511343 
L 541.009129 324.336896 
L 541.432444 347.888009 
L 541.855759 344.510069 
L 542.279074 363.078483 
L 542.70239 299.459104 
L 543.125705 295.350946 
L 543.54902 351.779222 
L 543.972335 321.081525 
L 544.395651 227.396426 
L 544.818966 181.694403 
L 545.242281 248.652878 
L 545.665596 243.817106 
L 546.088911 251.131552 
L 546.512227 303.124796 
L 546.935542 326.874448 
L 547.358857 314.740616 
L 547.782172 330.529525 
L 548.205487 330.615058 
L 548.628803 301.086395 
L 549.052118 210.274188 
L 549.475433 275.507545 
L 549.898748 273.889745 
L 550.322063 274.015464 
L 550.745379 286.962653 
L 551.168694 305.638875 
L 551.592009 299.523407 
L 552.015324 251.381811 
L 552.861955 325.296652 
L 553.28527 285.898185 
L 553.708585 268.963141 
L 554.1319 268.17699 
L 554.555216 309.699213 
L 554.978531 286.678432 
L 555.401846 295.607529 
L 555.825161 369.36 
L 556.248476 279.830217 
L 556.671792 324.654767 
L 557.095107 297.866752 
L 557.518422 314.167343 
L 558.365052 252.78146 
L 558.788368 320.513078 
L 559.634998 291.801593 
L 560.058313 310.384215 
L 560.481629 314.173941 
L 560.904944 304.800731 
L 561.328259 336.669894 
L 561.751574 204.611116 
L 562.174889 279.199122 
L 562.598205 317.454975 
L 563.02152 341.474659 
L 563.444835 327.161404 
L 563.86815 356.09445 
L 564.291465 319.212359 
L 565.138096 266.034463 
L 565.561411 292.566737 
L 565.984726 298.405245 
L 566.408041 295.133193 
L 566.831357 294.885011 
L 567.254672 293.852974 
L 567.677987 278.782018 
L 568.101302 330.006725 
L 568.524618 234.528781 
L 568.947933 272.966341 
L 569.371248 322.535985 
L 570.217878 308.085045 
L 570.641194 252.259358 
L 571.064509 306.005655 
L 571.487824 332.534759 
L 571.911139 264.428267 
L 572.334454 293.124417 
L 572.75777 296.036792 
L 573.181085 323.432174 
L 573.6044 287.859458 
L 574.027715 320.999244 
L 574.45103 331.520357 
L 575.297661 299.898605 
L 575.720976 270.382229 
L 576.144291 312.701532 
L 576.567607 259.141382 
L 576.990922 299.733039 
L 577.414237 275.594803 
L 577.837552 317.4149 
L 578.260867 278.333759 
L 578.684183 301.538391 
L 579.107498 280.41043 
L 579.530813 247.055325 
L 579.954128 252.085543 
L 580.377443 300.990552 
L 580.800759 221.474958 
L 581.224074 285.615209 
L 581.647389 295.235797 
L 582.070704 333.094421 
L 582.494019 343.878573 
L 582.917335 324.63736 
L 583.34065 363.015256 
L 583.763965 332.056818 
L 584.18728 328.507481 
L 584.610596 227.536687 
L 585.457226 295.5105 
L 585.880541 283.264139 
L 586.303856 281.558134 
L 586.727172 307.639513 
L 587.150487 295.122179 
L 587.573802 298.814094 
L 587.997117 288.825332 
L 588.420432 232.103697 
L 588.843748 270.348494 
L 589.267063 296.642071 
L 589.690378 282.154799 
L 590.113693 293.923114 
L 590.537008 294.622955 
L 590.960324 223.456008 
L 591.383639 267.301321 
L 591.806954 296.938138 
L 592.230269 269.188389 
L 592.653585 277.615937 
L 593.0769 295.999961 
L 593.500215 361.92645 
L 593.92353 339.688363 
L 594.770161 283.087583 
L 595.193476 228.545372 
L 595.616791 262.446673 
L 596.040106 264.830906 
L 596.463421 240.458724 
L 596.886737 254.778202 
L 597.310052 248.886694 
L 597.733367 265.059599 
L 598.156682 305.259934 
L 598.579997 241.177797 
L 599.003313 200.047233 
L 599.426628 232.823207 
L 599.849943 286.142156 
L 600.273258 309.048761 
L 600.696574 261.462548 
L 601.119889 237.52152 
L 601.543204 297.308827 
L 601.966519 245.471721 
L 602.389834 232.348639 
L 602.81315 252.255876 
L 603.236465 259.265756 
L 603.65978 257.436849 
L 604.083095 207.382576 
L 604.50641 236.972314 
L 604.929726 258.088174 
L 605.353041 234.81563 
L 605.776356 201.508699 
L 606.622986 280.069267 
L 607.046302 270.110656 
L 607.469617 311.804743 
L 607.892932 305.89412 
L 608.316247 314.97346 
L 608.739563 242.500882 
L 609.162878 241.078073 
L 609.586193 230.299011 
L 610.009508 259.568569 
L 610.432823 255.84711 
L 610.856139 259.372578 
L 611.279454 237.248766 
L 611.702769 260.07703 
L 612.126084 257.685811 
L 612.549399 282.822483 
L 612.972715 287.758499 
L 613.39603 286.778605 
L 613.819345 224.432846 
L 614.24266 252.828038 
L 614.665975 220.461242 
L 615.089291 196.935996 
L 615.512606 267.519468 
L 615.935921 272.06849 
L 616.359236 301.677431 
L 616.782552 261.571123 
L 617.205867 245.394762 
L 617.629182 267.071586 
L 618.052497 224.102602 
L 618.475812 277.19144 
L 618.899128 228.239092 
L 619.322443 284.258283 
L 619.745758 214.289867 
L 620.169073 222.487779 
L 621.015704 243.68849 
L 621.439019 231.742089 
L 621.862334 213.887899 
L 622.285649 213.743861 
L 623.13228 290.119806 
L 623.555595 287.840313 
L 623.97891 275.71288 
L 624.402225 230.785815 
L 624.825541 208.33857 
L 625.248856 149.790252 
L 625.672171 249.704042 
L 626.095486 202.946337 
L 626.518801 225.806993 
L 626.942117 240.966668 
L 627.365432 199.641156 
L 627.788747 253.926254 
L 628.212062 255.038414 
L 628.635377 253.1389 
L 629.058693 258.373747 
L 629.482008 237.905231 
L 630.328638 297.246386 
L 630.751953 299.797473 
L 631.175269 322.115241 
L 631.598584 306.741362 
L 632.021899 231.094071 
L 632.445214 276.2342 
L 633.71516 368.172938 
L 634.138475 291.106978 
L 634.56179 234.979227 
L 634.985106 254.649484 
L 635.408421 235.237099 
L 636.255051 327.677914 
L 636.678366 161.332107 
L 637.101682 250.112322 
L 637.948312 313.693493 
L 638.371627 274.087988 
L 638.794942 342.878705 
L 639.218258 298.774551 
L 639.641573 317.169023 
L 640.064888 268.725911 
L 640.488203 236.706223 
L 640.911519 277.545948 
L 641.334834 229.510263 
L 641.758149 209.659436 
L 642.181464 209.99869 
L 642.604779 280.890654 
L 643.028095 268.838927 
L 643.45141 323.479134 
L 643.874725 273.056661 
L 644.29804 344.471529 
L 644.721355 313.595748 
L 645.144671 310.815892 
L 645.567986 232.993775 
L 645.991301 258.188592 
L 646.414616 307.22098 
L 646.837931 270.620137 
L 647.261247 301.761352 
L 647.684562 287.224535 
L 648.107877 219.678036 
L 648.531192 312.784572 
L 649.377823 246.673207 
L 649.801138 310.986846 
L 650.224453 309.81474 
L 650.647768 281.711877 
L 651.071084 266.963414 
L 651.494399 317.050808 
L 651.917714 240.194704 
L 652.341029 205.094082 
L 652.764344 208.762565 
L 653.18766 198.131725 
L 653.610975 206.015231 
L 654.03429 260.532693 
L 654.457605 270.62132 
L 654.88092 218.552889 
L 655.304236 208.462218 
L 655.727551 219.145391 
L 656.150866 162.249269 
L 656.574181 217.497071 
L 657.420812 191.896123 
L 657.844127 227.987759 
L 658.267442 250.25707 
L 658.690757 217.617948 
L 659.537388 264.851914 
L 659.960703 261.31907 
L 660.384018 229.969863 
L 660.807333 237.667922 
L 661.230649 206.951893 
L 661.653964 196.589519 
L 662.077279 235.733593 
L 662.500594 232.665321 
L 662.923909 216.308961 
L 663.347225 250.039144 
L 663.77054 341.447312 
L 664.193855 323.794134 
L 664.61717 239.868699 
L 665.040486 221.321008 
L 665.463801 268.436592 
L 665.887116 256.345046 
L 666.310431 279.18961 
L 666.733746 227.028717 
L 667.157062 250.532228 
L 667.580377 317.634076 
L 668.003692 258.823613 
L 668.427007 274.042861 
L 668.850322 337.886456 
L 669.273638 284.998424 
L 669.696953 342.045104 
L 670.120268 257.242121 
L 670.543583 268.999673 
L 670.966898 233.957886 
L 671.390214 167.096829 
L 671.813529 222.848225 
L 672.236844 199.804746 
L 672.660159 220.955095 
L 673.083475 217.67679 
L 673.50679 205.801609 
L 673.930105 212.546833 
L 674.35342 233.874382 
L 674.776735 290.07864 
L 675.200051 253.206904 
L 675.623366 247.088611 
L 676.046681 247.442077 
L 676.469996 269.109153 
L 676.893311 237.657757 
L 677.316627 241.306848 
L 677.739942 236.120698 
L 678.163257 224.736191 
L 678.586572 306.975422 
L 679.009887 252.984094 
L 679.433203 273.769086 
L 679.856518 270.559493 
L 680.279833 276.902474 
L 680.703148 221.743608 
L 681.126464 240.802631 
L 681.549779 218.458746 
L 681.973094 232.668345 
L 682.396409 228.342406 
L 682.819724 236.143775 
L 683.24304 237.95929 
L 683.666355 281.997872 
L 684.08967 311.252601 
L 684.512985 297.648901 
L 684.9363 288.191127 
L 685.359616 211.884317 
L 685.782931 287.961501 
L 686.629561 253.343976 
L 687.052876 263.371024 
L 687.476192 228.304453 
L 687.899507 250.796938 
L 688.322822 215.217362 
L 688.746137 302.369569 
L 689.169453 256.245877 
L 689.592768 258.48489 
L 690.016083 302.809517 
L 690.439398 240.472194 
L 690.862713 220.713642 
L 691.286029 188.18922 
L 691.709344 267.913669 
L 692.132659 285.828107 
L 692.555974 220.262937 
L 692.979289 275.961285 
L 693.402605 311.417987 
L 693.82592 308.954524 
L 694.249235 354.607738 
L 694.67255 261.606948 
L 695.095865 317.705443 
L 695.519181 243.427132 
L 695.942496 258.666694 
L 696.365811 253.376307 
L 696.789126 327.313353 
L 697.212442 323.517966 
L 697.635757 324.832425 
L 698.059072 294.517791 
L 698.482387 315.344974 
L 698.905702 292.736973 
L 699.329018 304.953211 
L 699.752333 306.230725 
L 700.175648 308.6259 
L 700.598963 262.260658 
L 701.022278 275.703309 
L 701.445594 277.361586 
L 701.868909 261.027774 
L 702.292224 192.859906 
L 702.715539 171.082025 
L 703.138854 212.716778 
L 703.56217 240.725182 
L 703.985485 251.270479 
L 704.4088 236.34472 
L 704.832115 263.721184 
L 705.255431 243.654193 
L 705.678746 248.350797 
L 706.102061 230.147827 
L 706.525376 236.811445 
L 706.948691 222.031831 
L 707.372007 131.895822 
L 707.795322 160.567703 
L 708.218637 166.861927 
L 708.641952 171.183177 
L 709.488583 220.657307 
L 709.911898 198.892808 
L 710.335213 251.288469 
L 710.758528 228.115551 
L 711.181843 229.621403 
L 711.605159 205.56502 
L 712.028474 194.703328 
L 712.451789 206.036757 
L 712.875104 181.23878 
L 713.29842 242.976544 
L 713.721735 169.850346 
L 714.14505 242.862242 
L 714.568365 229.253345 
L 714.99168 201.008811 
L 715.414996 243.951683 
L 715.838311 236.538227 
L 716.261626 264.48507 
L 716.684941 258.445523 
L 717.108256 260.400563 
L 717.531572 172.445376 
L 717.954887 222.878058 
L 718.378202 170.956858 
L 718.801517 217.89305 
L 719.224832 211.698225 
L 719.648148 268.605952 
L 720.071463 221.7392 
L 720.494778 249.362906 
L 720.918093 218.499466 
L 721.341409 166.144411 
L 721.764724 197.761219 
L 722.188039 195.881434 
L 722.611354 241.45068 
L 723.034669 242.850365 
L 723.457985 225.576141 
L 723.8813 249.451849 
L 724.304615 234.399536 
L 724.72793 232.921315 
L 725.151245 292.897711 
L 725.574561 256.703776 
L 725.997876 242.79912 
L 726.421191 190.034734 
L 726.844506 204.097028 
L 727.267821 259.839993 
L 727.691137 219.915154 
L 728.537767 252.241946 
L 728.961082 241.702607 
L 729.384398 244.670626 
L 729.807713 246.384014 
L 730.231028 225.364398 
L 730.654343 278.214306 
L 731.077658 246.604301 
L 731.500974 242.331735 
L 731.924289 192.515045 
L 732.347604 270.785405 
L 732.770919 187.385961 
L 733.194234 209.489701 
L 733.61755 254.112289 
L 734.040865 246.421215 
L 734.46418 219.362277 
L 734.887495 209.252749 
L 735.31081 259.120497 
L 735.734126 212.587919 
L 736.157441 269.252522 
L 736.580756 247.348399 
L 737.004071 264.557288 
L 737.427387 262.371604 
L 737.850702 295.252761 
L 738.274017 232.240614 
L 738.697332 270.106384 
L 739.120647 271.484063 
L 739.543963 281.848492 
L 739.967278 280.226523 
L 740.390593 225.390272 
L 740.813908 275.312495 
L 741.237223 240.233815 
L 741.660539 228.892252 
L 742.083854 253.241268 
L 742.507169 208.638272 
L 742.930484 223.069191 
L 743.353799 206.593702 
L 743.777115 228.414577 
L 744.20043 100.163605 
L 744.623745 169.168742 
L 745.04706 104.783824 
L 745.470376 66.96 
L 745.893691 125.92002 
L 746.317006 94.118095 
L 746.740321 104.264202 
L 747.163636 86.432177 
L 747.163636 86.432177 
" style="fill:none;stroke:#1f77b4;stroke-linecap:square;stroke-width:1.5;"/>
   </g>
   <g id="line2d_18">
    <path clip-path="url(#pa3630aee87)" d="M 743.777115 384.48 
L 743.777115 51.84 
" style="fill:none;stroke:#808080;stroke-linecap:square;"/>
   </g>
   <g id="patch_86">
    <path d="M 108 384.48 
L 108 51.84 
" style="fill:none;stroke:#000000;stroke-linecap:square;stroke-linejoin:miter;stroke-width:0.8;"/>
   </g>
   <g id="patch_87">
    <path d="M 777.6 384.48 
L 777.6 51.84 
" style="fill:none;stroke:#000000;stroke-linecap:square;stroke-linejoin:miter;stroke-width:0.8;"/>
   </g>
   <g id="patch_88">
    <path d="M 108 384.48 
L 777.6 384.48 
" style="fill:none;stroke:#000000;stroke-linecap:square;stroke-linejoin:miter;stroke-width:0.8;"/>
   </g>
   <g id="patch_89">
    <path d="M 108 51.84 
L 777.6 51.84 
" style="fill:none;stroke:#000000;stroke-linecap:square;stroke-linejoin:miter;stroke-width:0.8;"/>
   </g>
   <g id="text_19">
    <!-- real_63.csv -->
    <defs>
     <path d="M 41.109375 46.296875 
Q 39.59375 47.171875 37.8125 47.578125 
Q 36.03125 48 33.890625 48 
Q 26.265625 48 22.1875 43.046875 
Q 18.109375 38.09375 18.109375 28.8125 
L 18.109375 0 
L 9.078125 0 
L 9.078125 54.6875 
L 18.109375 54.6875 
L 18.109375 46.1875 
Q 20.953125 51.171875 25.484375 53.578125 
Q 30.03125 56 36.53125 56 
Q 37.453125 56 38.578125 55.875 
Q 39.703125 55.765625 41.0625 55.515625 
z
" id="DejaVuSans-114"/>
     <path d="M 50.984375 -16.609375 
L 50.984375 -23.578125 
L -0.984375 -23.578125 
L -0.984375 -16.609375 
z
" id="DejaVuSans-95"/>
     <path d="M 40.578125 39.3125 
Q 47.65625 37.796875 51.625 33 
Q 55.609375 28.21875 55.609375 21.1875 
Q 55.609375 10.40625 48.1875 4.484375 
Q 40.765625 -1.421875 27.09375 -1.421875 
Q 22.515625 -1.421875 17.65625 -0.515625 
Q 12.796875 0.390625 7.625 2.203125 
L 7.625 11.71875 
Q 11.71875 9.328125 16.59375 8.109375 
Q 21.484375 6.890625 26.8125 6.890625 
Q 36.078125 6.890625 40.9375 10.546875 
Q 45.796875 14.203125 45.796875 21.1875 
Q 45.796875 27.640625 41.28125 31.265625 
Q 36.765625 34.90625 28.71875 34.90625 
L 20.21875 34.90625 
L 20.21875 43.015625 
L 29.109375 43.015625 
Q 36.375 43.015625 40.234375 45.921875 
Q 44.09375 48.828125 44.09375 54.296875 
Q 44.09375 59.90625 40.109375 62.90625 
Q 36.140625 65.921875 28.71875 65.921875 
Q 24.65625 65.921875 20.015625 65.03125 
Q 15.375 64.15625 9.8125 62.3125 
L 9.8125 71.09375 
Q 15.4375 72.65625 20.34375 73.4375 
Q 25.25 74.21875 29.59375 74.21875 
Q 40.828125 74.21875 47.359375 69.109375 
Q 53.90625 64.015625 53.90625 55.328125 
Q 53.90625 49.265625 50.4375 45.09375 
Q 46.96875 40.921875 40.578125 39.3125 
z
" id="DejaVuSans-51"/>
     <path d="M 10.6875 12.40625 
L 21 12.40625 
L 21 0 
L 10.6875 0 
z
" id="DejaVuSans-46"/>
     <path d="M 48.78125 52.59375 
L 48.78125 44.1875 
Q 44.96875 46.296875 41.140625 47.34375 
Q 37.3125 48.390625 33.40625 48.390625 
Q 24.65625 48.390625 19.8125 42.84375 
Q 14.984375 37.3125 14.984375 27.296875 
Q 14.984375 17.28125 19.8125 11.734375 
Q 24.65625 6.203125 33.40625 6.203125 
Q 37.3125 6.203125 41.140625 7.25 
Q 44.96875 8.296875 48.78125 10.40625 
L 48.78125 2.09375 
Q 45.015625 0.34375 40.984375 -0.53125 
Q 36.96875 -1.421875 32.421875 -1.421875 
Q 20.0625 -1.421875 12.78125 6.34375 
Q 5.515625 14.109375 5.515625 27.296875 
Q 5.515625 40.671875 12.859375 48.328125 
Q 20.21875 56 33.015625 56 
Q 37.15625 56 41.109375 55.140625 
Q 45.0625 54.296875 48.78125 52.59375 
z
" id="DejaVuSans-99"/>
     <path d="M 2.984375 54.6875 
L 12.5 54.6875 
L 29.59375 8.796875 
L 46.6875 54.6875 
L 56.203125 54.6875 
L 35.6875 0 
L 23.484375 0 
z
" id="DejaVuSans-118"/>
    </defs>
    <g transform="translate(408.781875 45.84)scale(0.12 -0.12)">
     <use xlink:href="#DejaVuSans-114"/>
     <use x="41.082031" xlink:href="#DejaVuSans-101"/>
     <use x="102.605469" xlink:href="#DejaVuSans-97"/>
     <use x="163.884766" xlink:href="#DejaVuSans-108"/>
     <use x="191.667969" xlink:href="#DejaVuSans-95"/>
     <use x="241.667969" xlink:href="#DejaVuSans-54"/>
     <use x="305.291016" xlink:href="#DejaVuSans-51"/>
     <use x="368.914062" xlink:href="#DejaVuSans-46"/>
     <use x="400.701172" xlink:href="#DejaVuSans-99"/>
     <use x="455.681641" xlink:href="#DejaVuSans-115"/>
     <use x="507.78125" xlink:href="#DejaVuSans-118"/>
    </g>
   </g>
   <g id="legend_1">
    <g id="patch_90">
     <path d="M 115 74.518125 
L 174.315625 74.518125 
Q 176.315625 74.518125 176.315625 72.518125 
L 176.315625 58.84 
Q 176.315625 56.84 174.315625 56.84 
L 115 56.84 
Q 113 56.84 113 58.84 
L 113 72.518125 
Q 113 74.518125 115 74.518125 
z
" style="fill:#ffffff;opacity:0.8;stroke:#cccccc;stroke-linejoin:miter;"/>
    </g>
    <g id="line2d_19">
     <path d="M 117 64.938438 
L 137 64.938438 
" style="fill:none;stroke:#1f77b4;stroke-linecap:square;stroke-width:1.5;"/>
    </g>
    <g id="line2d_20"/>
    <g id="text_20">
     <!-- value -->
     <g transform="translate(145 68.438438)scale(0.1 -0.1)">
      <use xlink:href="#DejaVuSans-118"/>
      <use x="59.179688" xlink:href="#DejaVuSans-97"/>
      <use x="120.458984" xlink:href="#DejaVuSans-108"/>
      <use x="148.242188" xlink:href="#DejaVuSans-117"/>
      <use x="211.621094" xlink:href="#DejaVuSans-101"/>
     </g>
    </g>
   </g>
  </g>
 </g>
 <defs>
  <clipPath id="pa3630aee87">
   <rect height="332.64" width="669.6" x="108" y="51.84"/>
  </clipPath>
 </defs>
</svg>
