<?xml version="1.0" encoding="utf-8" standalone="no"?>
<!DOCTYPE svg PUBLIC "-//W3C//DTD SVG 1.1//EN"
  "http://www.w3.org/Graphics/SVG/1.1/DTD/svg11.dtd">
<!-- Created with matplotlib (https://matplotlib.org/) -->
<svg height="432pt" version="1.1" viewBox="0 0 864 432" width="864pt" xmlns="http://www.w3.org/2000/svg" xmlns:xlink="http://www.w3.org/1999/xlink">
 <metadata>
  <rdf:RDF xmlns:cc="http://creativecommons.org/ns#" xmlns:dc="http://purl.org/dc/elements/1.1/" xmlns:rdf="http://www.w3.org/1999/02/22-rdf-syntax-ns#">
   <cc:Work>
    <dc:type rdf:resource="http://purl.org/dc/dcmitype/StillImage"/>
    <dc:date>2020-12-04T16:13:43.306462</dc:date>
    <dc:format>image/svg+xml</dc:format>
    <dc:creator>
     <cc:Agent>
      <dc:title>Matplotlib v3.3.3, https://matplotlib.org/</dc:title>
     </cc:Agent>
    </dc:creator>
   </cc:Work>
  </rdf:RDF>
 </metadata>
 <defs>
  <style type="text/css">*{stroke-linecap:butt;stroke-linejoin:round;}</style>
 </defs>
 <g id="figure_1">
  <g id="patch_1">
   <path d="M 0 432 
L 864 432 
L 864 0 
L 0 0 
z
" style="fill:#ffffff;"/>
  </g>
  <g id="axes_1">
   <g id="patch_2">
    <path d="M 108 384.48 
L 777.6 384.48 
L 777.6 51.84 
L 108 51.84 
z
" style="fill:#ffffff;"/>
   </g>
   <g id="patch_3">
    <path clip-path="url(#p0563dd0d7b)" d="M 138.436364 384.48 
L 138.436364 51.84 
L 378.497823 51.84 
L 378.497823 384.48 
z
" style="fill:#0000ff;opacity:0.05;"/>
   </g>
   <g id="patch_4">
    <path clip-path="url(#p0563dd0d7b)" d="M 378.497823 384.48 
L 378.497823 51.84 
L 747.163636 51.84 
L 747.163636 384.48 
z
" style="fill:#ff0000;opacity:0.08;"/>
   </g>
   <g id="patch_5">
    <path clip-path="url(#p0563dd0d7b)" d="M 138.436364 384.48 
L 138.436364 51.84 
L 142.723175 51.84 
L 142.723175 384.48 
z
" style="fill:#008000;opacity:0.04;"/>
   </g>
   <g id="patch_6">
    <path clip-path="url(#p0563dd0d7b)" d="M 147.009987 384.48 
L 147.009987 51.84 
L 151.296799 51.84 
L 151.296799 384.48 
z
" style="fill:#008000;opacity:0.04;"/>
   </g>
   <g id="patch_7">
    <path clip-path="url(#p0563dd0d7b)" d="M 155.583611 384.48 
L 155.583611 51.84 
L 159.870423 51.84 
L 159.870423 384.48 
z
" style="fill:#008000;opacity:0.04;"/>
   </g>
   <g id="patch_8">
    <path clip-path="url(#p0563dd0d7b)" d="M 164.157234 384.48 
L 164.157234 51.84 
L 168.444046 51.84 
L 168.444046 384.48 
z
" style="fill:#008000;opacity:0.04;"/>
   </g>
   <g id="patch_9">
    <path clip-path="url(#p0563dd0d7b)" d="M 404.218694 384.48 
L 404.218694 371.1744 
L 408.505506 371.1744 
L 408.505506 384.48 
z
" style="fill:#ff6600;"/>
   </g>
   <g id="patch_10">
    <path clip-path="url(#p0563dd0d7b)" d="M 172.730858 384.48 
L 172.730858 51.84 
L 177.01767 51.84 
L 177.01767 384.48 
z
" style="fill:#008000;opacity:0.04;"/>
   </g>
   <g id="patch_11">
    <path clip-path="url(#p0563dd0d7b)" d="M 417.079129 384.48 
L 417.079129 371.1744 
L 421.365941 371.1744 
L 421.365941 384.48 
z
" style="fill:#ff6600;"/>
   </g>
   <g id="patch_12">
    <path clip-path="url(#p0563dd0d7b)" d="M 181.304481 384.48 
L 181.304481 51.84 
L 185.591293 51.84 
L 185.591293 384.48 
z
" style="fill:#008000;opacity:0.04;"/>
   </g>
   <g id="patch_13">
    <path clip-path="url(#p0563dd0d7b)" d="M 421.365941 384.48 
L 421.365941 371.1744 
L 425.652753 371.1744 
L 425.652753 384.48 
z
" style="fill:#ff6600;"/>
   </g>
   <g id="patch_14">
    <path clip-path="url(#p0563dd0d7b)" d="M 189.878105 384.48 
L 189.878105 51.84 
L 194.164917 51.84 
L 194.164917 384.48 
z
" style="fill:#008000;opacity:0.04;"/>
   </g>
   <g id="patch_15">
    <path clip-path="url(#p0563dd0d7b)" d="M 198.451729 384.48 
L 198.451729 51.84 
L 202.73854 51.84 
L 202.73854 384.48 
z
" style="fill:#008000;opacity:0.04;"/>
   </g>
   <g id="patch_16">
    <path clip-path="url(#p0563dd0d7b)" d="M 207.025352 384.48 
L 207.025352 51.84 
L 211.312164 51.84 
L 211.312164 384.48 
z
" style="fill:#008000;opacity:0.04;"/>
   </g>
   <g id="patch_17">
    <path clip-path="url(#p0563dd0d7b)" d="M 215.598976 384.48 
L 215.598976 51.84 
L 219.885787 51.84 
L 219.885787 384.48 
z
" style="fill:#008000;opacity:0.04;"/>
   </g>
   <g id="patch_18">
    <path clip-path="url(#p0563dd0d7b)" d="M 224.172599 384.48 
L 224.172599 51.84 
L 228.459411 51.84 
L 228.459411 384.48 
z
" style="fill:#008000;opacity:0.04;"/>
   </g>
   <g id="patch_19">
    <path clip-path="url(#p0563dd0d7b)" d="M 232.746223 384.48 
L 232.746223 51.84 
L 237.033035 51.84 
L 237.033035 384.48 
z
" style="fill:#008000;opacity:0.04;"/>
   </g>
   <g id="patch_20">
    <path clip-path="url(#p0563dd0d7b)" d="M 241.319846 384.48 
L 241.319846 51.84 
L 245.606658 51.84 
L 245.606658 384.48 
z
" style="fill:#008000;opacity:0.04;"/>
   </g>
   <g id="patch_21">
    <path clip-path="url(#p0563dd0d7b)" d="M 241.319846 384.48 
L 241.319846 371.1744 
L 245.606658 371.1744 
L 245.606658 384.48 
z
" style="fill:#ffe500;"/>
   </g>
   <g id="patch_22">
    <path clip-path="url(#p0563dd0d7b)" d="M 249.89347 384.48 
L 249.89347 51.84 
L 254.180282 51.84 
L 254.180282 384.48 
z
" style="fill:#008000;opacity:0.04;"/>
   </g>
   <g id="patch_23">
    <path clip-path="url(#p0563dd0d7b)" d="M 249.89347 384.48 
L 249.89347 371.1744 
L 254.180282 371.1744 
L 254.180282 384.48 
z
" style="fill:#ffe500;"/>
   </g>
   <g id="patch_24">
    <path clip-path="url(#p0563dd0d7b)" d="M 258.467093 384.48 
L 258.467093 51.84 
L 262.753905 51.84 
L 262.753905 384.48 
z
" style="fill:#008000;opacity:0.04;"/>
   </g>
   <g id="patch_25">
    <path clip-path="url(#p0563dd0d7b)" d="M 267.040717 384.48 
L 267.040717 51.84 
L 271.327529 51.84 
L 271.327529 384.48 
z
" style="fill:#008000;opacity:0.04;"/>
   </g>
   <g id="patch_26">
    <path clip-path="url(#p0563dd0d7b)" d="M 275.614341 384.48 
L 275.614341 51.84 
L 279.901152 51.84 
L 279.901152 384.48 
z
" style="fill:#008000;opacity:0.04;"/>
   </g>
   <g id="patch_27">
    <path clip-path="url(#p0563dd0d7b)" d="M 519.962612 384.48 
L 519.962612 371.1744 
L 524.249424 371.1744 
L 524.249424 384.48 
z
" style="fill:#ff6600;"/>
   </g>
   <g id="patch_28">
    <path clip-path="url(#p0563dd0d7b)" d="M 284.187964 384.48 
L 284.187964 51.84 
L 288.474776 51.84 
L 288.474776 384.48 
z
" style="fill:#008000;opacity:0.04;"/>
   </g>
   <g id="patch_29">
    <path clip-path="url(#p0563dd0d7b)" d="M 292.761588 384.48 
L 292.761588 51.84 
L 297.048399 51.84 
L 297.048399 384.48 
z
" style="fill:#008000;opacity:0.04;"/>
   </g>
   <g id="patch_30">
    <path clip-path="url(#p0563dd0d7b)" d="M 301.335211 384.48 
L 301.335211 51.84 
L 305.622023 51.84 
L 305.622023 384.48 
z
" style="fill:#008000;opacity:0.04;"/>
   </g>
   <g id="patch_31">
    <path clip-path="url(#p0563dd0d7b)" d="M 305.622023 384.48 
L 305.622023 371.1744 
L 309.908835 371.1744 
L 309.908835 384.48 
z
" style="fill:#ffe500;"/>
   </g>
   <g id="patch_32">
    <path clip-path="url(#p0563dd0d7b)" d="M 309.908835 384.48 
L 309.908835 51.84 
L 314.195647 51.84 
L 314.195647 384.48 
z
" style="fill:#008000;opacity:0.04;"/>
   </g>
   <g id="patch_33">
    <path clip-path="url(#p0563dd0d7b)" d="M 318.482458 384.48 
L 318.482458 51.84 
L 322.76927 51.84 
L 322.76927 384.48 
z
" style="fill:#008000;opacity:0.04;"/>
   </g>
   <g id="patch_34">
    <path clip-path="url(#p0563dd0d7b)" d="M 327.056082 384.48 
L 327.056082 51.84 
L 331.342894 51.84 
L 331.342894 384.48 
z
" style="fill:#008000;opacity:0.04;"/>
   </g>
   <g id="patch_35">
    <path clip-path="url(#p0563dd0d7b)" d="M 327.056082 384.48 
L 327.056082 371.1744 
L 331.342894 371.1744 
L 331.342894 384.48 
z
" style="fill:#ffe500;"/>
   </g>
   <g id="patch_36">
    <path clip-path="url(#p0563dd0d7b)" d="M 335.629706 384.48 
L 335.629706 51.84 
L 339.916517 51.84 
L 339.916517 384.48 
z
" style="fill:#008000;opacity:0.04;"/>
   </g>
   <g id="patch_37">
    <path clip-path="url(#p0563dd0d7b)" d="M 344.203329 384.48 
L 344.203329 51.84 
L 348.490141 51.84 
L 348.490141 384.48 
z
" style="fill:#008000;opacity:0.04;"/>
   </g>
   <g id="patch_38">
    <path clip-path="url(#p0563dd0d7b)" d="M 352.776953 384.48 
L 352.776953 51.84 
L 357.063764 51.84 
L 357.063764 384.48 
z
" style="fill:#008000;opacity:0.04;"/>
   </g>
   <g id="patch_39">
    <path clip-path="url(#p0563dd0d7b)" d="M 361.350576 384.48 
L 361.350576 51.84 
L 365.637388 51.84 
L 365.637388 384.48 
z
" style="fill:#008000;opacity:0.04;"/>
   </g>
   <g id="patch_40">
    <path clip-path="url(#p0563dd0d7b)" d="M 365.637388 384.48 
L 365.637388 371.1744 
L 369.9242 371.1744 
L 369.9242 384.48 
z
" style="fill:#ffe500;"/>
   </g>
   <g id="patch_41">
    <path clip-path="url(#p0563dd0d7b)" d="M 369.9242 384.48 
L 369.9242 51.84 
L 374.211012 51.84 
L 374.211012 384.48 
z
" style="fill:#008000;opacity:0.04;"/>
   </g>
   <g id="patch_42">
    <path clip-path="url(#p0563dd0d7b)" d="M 378.497823 384.48 
L 378.497823 51.84 
L 382.784635 51.84 
L 382.784635 384.48 
z
" style="fill:#008000;opacity:0.04;"/>
   </g>
   <g id="patch_43">
    <path clip-path="url(#p0563dd0d7b)" d="M 387.071447 384.48 
L 387.071447 51.84 
L 391.358259 51.84 
L 391.358259 384.48 
z
" style="fill:#008000;opacity:0.04;"/>
   </g>
   <g id="patch_44">
    <path clip-path="url(#p0563dd0d7b)" d="M 395.64507 384.48 
L 395.64507 51.84 
L 399.931882 51.84 
L 399.931882 384.48 
z
" style="fill:#008000;opacity:0.04;"/>
   </g>
   <g id="patch_45">
    <path clip-path="url(#p0563dd0d7b)" d="M 404.218694 384.48 
L 404.218694 51.84 
L 408.505506 51.84 
L 408.505506 384.48 
z
" style="fill:#008000;opacity:0.04;"/>
   </g>
   <g id="patch_46">
    <path clip-path="url(#p0563dd0d7b)" d="M 404.218694 371.1744 
L 404.218694 51.84 
L 408.505506 51.84 
L 408.505506 371.1744 
z
" style="fill:#008000;opacity:0.5;"/>
   </g>
   <g id="patch_47">
    <path clip-path="url(#p0563dd0d7b)" d="M 412.792318 384.48 
L 412.792318 51.84 
L 417.079129 51.84 
L 417.079129 384.48 
z
" style="fill:#008000;opacity:0.04;"/>
   </g>
   <g id="patch_48">
    <path clip-path="url(#p0563dd0d7b)" d="M 417.079129 371.1744 
L 417.079129 51.84 
L 421.365941 51.84 
L 421.365941 371.1744 
z
" style="fill:#008000;opacity:0.5;"/>
   </g>
   <g id="patch_49">
    <path clip-path="url(#p0563dd0d7b)" d="M 421.365941 384.48 
L 421.365941 51.84 
L 425.652753 51.84 
L 425.652753 384.48 
z
" style="fill:#008000;opacity:0.04;"/>
   </g>
   <g id="patch_50">
    <path clip-path="url(#p0563dd0d7b)" d="M 421.365941 371.1744 
L 421.365941 51.84 
L 425.652753 51.84 
L 425.652753 371.1744 
z
" style="fill:#008000;opacity:0.5;"/>
   </g>
   <g id="patch_51">
    <path clip-path="url(#p0563dd0d7b)" d="M 429.939565 384.48 
L 429.939565 51.84 
L 434.226376 51.84 
L 434.226376 384.48 
z
" style="fill:#008000;opacity:0.04;"/>
   </g>
   <g id="patch_52">
    <path clip-path="url(#p0563dd0d7b)" d="M 438.513188 384.48 
L 438.513188 51.84 
L 442.8 51.84 
L 442.8 384.48 
z
" style="fill:#008000;opacity:0.04;"/>
   </g>
   <g id="patch_53">
    <path clip-path="url(#p0563dd0d7b)" d="M 447.086812 384.48 
L 447.086812 51.84 
L 451.373624 51.84 
L 451.373624 384.48 
z
" style="fill:#008000;opacity:0.04;"/>
   </g>
   <g id="patch_54">
    <path clip-path="url(#p0563dd0d7b)" d="M 455.660435 384.48 
L 455.660435 51.84 
L 459.947247 51.84 
L 459.947247 384.48 
z
" style="fill:#008000;opacity:0.04;"/>
   </g>
   <g id="patch_55">
    <path clip-path="url(#p0563dd0d7b)" d="M 464.234059 384.48 
L 464.234059 51.84 
L 468.520871 51.84 
L 468.520871 384.48 
z
" style="fill:#008000;opacity:0.04;"/>
   </g>
   <g id="patch_56">
    <path clip-path="url(#p0563dd0d7b)" d="M 472.807682 384.48 
L 472.807682 51.84 
L 477.094494 51.84 
L 477.094494 384.48 
z
" style="fill:#008000;opacity:0.04;"/>
   </g>
   <g id="patch_57">
    <path clip-path="url(#p0563dd0d7b)" d="M 481.381306 384.48 
L 481.381306 51.84 
L 485.668118 51.84 
L 485.668118 384.48 
z
" style="fill:#008000;opacity:0.04;"/>
   </g>
   <g id="patch_58">
    <path clip-path="url(#p0563dd0d7b)" d="M 489.95493 384.48 
L 489.95493 51.84 
L 494.241741 51.84 
L 494.241741 384.48 
z
" style="fill:#008000;opacity:0.04;"/>
   </g>
   <g id="patch_59">
    <path clip-path="url(#p0563dd0d7b)" d="M 498.528553 384.48 
L 498.528553 51.84 
L 502.815365 51.84 
L 502.815365 384.48 
z
" style="fill:#008000;opacity:0.04;"/>
   </g>
   <g id="patch_60">
    <path clip-path="url(#p0563dd0d7b)" d="M 507.102177 384.48 
L 507.102177 51.84 
L 511.388988 51.84 
L 511.388988 384.48 
z
" style="fill:#008000;opacity:0.04;"/>
   </g>
   <g id="patch_61">
    <path clip-path="url(#p0563dd0d7b)" d="M 515.6758 384.48 
L 515.6758 51.84 
L 519.962612 51.84 
L 519.962612 384.48 
z
" style="fill:#008000;opacity:0.04;"/>
   </g>
   <g id="patch_62">
    <path clip-path="url(#p0563dd0d7b)" d="M 519.962612 371.1744 
L 519.962612 51.84 
L 524.249424 51.84 
L 524.249424 371.1744 
z
" style="fill:#008000;opacity:0.5;"/>
   </g>
   <g id="patch_63">
    <path clip-path="url(#p0563dd0d7b)" d="M 524.249424 384.48 
L 524.249424 51.84 
L 528.536236 51.84 
L 528.536236 384.48 
z
" style="fill:#008000;opacity:0.04;"/>
   </g>
   <g id="patch_64">
    <path clip-path="url(#p0563dd0d7b)" d="M 532.823047 384.48 
L 532.823047 51.84 
L 537.109859 51.84 
L 537.109859 384.48 
z
" style="fill:#008000;opacity:0.04;"/>
   </g>
   <g id="patch_65">
    <path clip-path="url(#p0563dd0d7b)" d="M 541.396671 384.48 
L 541.396671 51.84 
L 545.683483 51.84 
L 545.683483 384.48 
z
" style="fill:#008000;opacity:0.04;"/>
   </g>
   <g id="patch_66">
    <path clip-path="url(#p0563dd0d7b)" d="M 549.970294 384.48 
L 549.970294 51.84 
L 554.257106 51.84 
L 554.257106 384.48 
z
" style="fill:#008000;opacity:0.04;"/>
   </g>
   <g id="patch_67">
    <path clip-path="url(#p0563dd0d7b)" d="M 558.543918 384.48 
L 558.543918 51.84 
L 562.83073 51.84 
L 562.83073 384.48 
z
" style="fill:#008000;opacity:0.04;"/>
   </g>
   <g id="patch_68">
    <path clip-path="url(#p0563dd0d7b)" d="M 567.117542 384.48 
L 567.117542 51.84 
L 571.404353 51.84 
L 571.404353 384.48 
z
" style="fill:#008000;opacity:0.04;"/>
   </g>
   <g id="patch_69">
    <path clip-path="url(#p0563dd0d7b)" d="M 575.691165 384.48 
L 575.691165 51.84 
L 579.977977 51.84 
L 579.977977 384.48 
z
" style="fill:#008000;opacity:0.04;"/>
   </g>
   <g id="patch_70">
    <path clip-path="url(#p0563dd0d7b)" d="M 584.264789 384.48 
L 584.264789 51.84 
L 588.551601 51.84 
L 588.551601 384.48 
z
" style="fill:#008000;opacity:0.04;"/>
   </g>
   <g id="patch_71">
    <path clip-path="url(#p0563dd0d7b)" d="M 592.838412 384.48 
L 592.838412 51.84 
L 597.125224 51.84 
L 597.125224 384.48 
z
" style="fill:#008000;opacity:0.04;"/>
   </g>
   <g id="patch_72">
    <path clip-path="url(#p0563dd0d7b)" d="M 601.412036 384.48 
L 601.412036 51.84 
L 605.698848 51.84 
L 605.698848 384.48 
z
" style="fill:#008000;opacity:0.04;"/>
   </g>
   <g id="patch_73">
    <path clip-path="url(#p0563dd0d7b)" d="M 609.985659 384.48 
L 609.985659 51.84 
L 614.272471 51.84 
L 614.272471 384.48 
z
" style="fill:#008000;opacity:0.04;"/>
   </g>
   <g id="patch_74">
    <path clip-path="url(#p0563dd0d7b)" d="M 618.559283 384.48 
L 618.559283 51.84 
L 622.846095 51.84 
L 622.846095 384.48 
z
" style="fill:#008000;opacity:0.04;"/>
   </g>
   <g id="patch_75">
    <path clip-path="url(#p0563dd0d7b)" d="M 627.132907 384.48 
L 627.132907 51.84 
L 631.419718 51.84 
L 631.419718 384.48 
z
" style="fill:#008000;opacity:0.04;"/>
   </g>
   <g id="patch_76">
    <path clip-path="url(#p0563dd0d7b)" d="M 635.70653 384.48 
L 635.70653 51.84 
L 639.993342 51.84 
L 639.993342 384.48 
z
" style="fill:#008000;opacity:0.04;"/>
   </g>
   <g id="patch_77">
    <path clip-path="url(#p0563dd0d7b)" d="M 644.280154 384.48 
L 644.280154 51.84 
L 648.566965 51.84 
L 648.566965 384.48 
z
" style="fill:#008000;opacity:0.04;"/>
   </g>
   <g id="patch_78">
    <path clip-path="url(#p0563dd0d7b)" d="M 652.853777 384.48 
L 652.853777 51.84 
L 657.140589 51.84 
L 657.140589 384.48 
z
" style="fill:#008000;opacity:0.04;"/>
   </g>
   <g id="patch_79">
    <path clip-path="url(#p0563dd0d7b)" d="M 661.427401 384.48 
L 661.427401 51.84 
L 665.714213 51.84 
L 665.714213 384.48 
z
" style="fill:#008000;opacity:0.04;"/>
   </g>
   <g id="patch_80">
    <path clip-path="url(#p0563dd0d7b)" d="M 670.001024 384.48 
L 670.001024 51.84 
L 674.287836 51.84 
L 674.287836 384.48 
z
" style="fill:#008000;opacity:0.04;"/>
   </g>
   <g id="patch_81">
    <path clip-path="url(#p0563dd0d7b)" d="M 678.574648 384.48 
L 678.574648 51.84 
L 682.86146 51.84 
L 682.86146 384.48 
z
" style="fill:#008000;opacity:0.04;"/>
   </g>
   <g id="patch_82">
    <path clip-path="url(#p0563dd0d7b)" d="M 687.148271 384.48 
L 687.148271 51.84 
L 691.435083 51.84 
L 691.435083 384.48 
z
" style="fill:#008000;opacity:0.04;"/>
   </g>
   <g id="patch_83">
    <path clip-path="url(#p0563dd0d7b)" d="M 695.721895 384.48 
L 695.721895 51.84 
L 700.008707 51.84 
L 700.008707 384.48 
z
" style="fill:#008000;opacity:0.04;"/>
   </g>
   <g id="patch_84">
    <path clip-path="url(#p0563dd0d7b)" d="M 704.295519 384.48 
L 704.295519 51.84 
L 708.58233 51.84 
L 708.58233 384.48 
z
" style="fill:#008000;opacity:0.04;"/>
   </g>
   <g id="patch_85">
    <path clip-path="url(#p0563dd0d7b)" d="M 712.869142 384.48 
L 712.869142 51.84 
L 717.155954 51.84 
L 717.155954 384.48 
z
" style="fill:#008000;opacity:0.04;"/>
   </g>
   <g id="patch_86">
    <path clip-path="url(#p0563dd0d7b)" d="M 721.442766 384.48 
L 721.442766 51.84 
L 725.729577 51.84 
L 725.729577 384.48 
z
" style="fill:#008000;opacity:0.04;"/>
   </g>
   <g id="patch_87">
    <path clip-path="url(#p0563dd0d7b)" d="M 730.016389 384.48 
L 730.016389 51.84 
L 734.303201 51.84 
L 734.303201 384.48 
z
" style="fill:#008000;opacity:0.04;"/>
   </g>
   <g id="patch_88">
    <path clip-path="url(#p0563dd0d7b)" d="M 738.590013 384.48 
L 738.590013 51.84 
L 742.876825 51.84 
L 742.876825 384.48 
z
" style="fill:#008000;opacity:0.04;"/>
   </g>
   <g id="matplotlib.axis_1">
    <g id="xtick_1">
     <g id="line2d_1">
      <defs>
       <path d="M 0 0 
L 0 3.5 
" id="m03e612c233" style="stroke:#000000;stroke-width:0.8;"/>
      </defs>
      <g>
       <use style="stroke:#000000;stroke-width:0.8;" x="138.436364" xlink:href="#m03e612c233" y="384.48"/>
      </g>
     </g>
     <g id="text_1">
      <!-- 0 -->
      <g transform="translate(135.255114 399.078438)scale(0.1 -0.1)">
       <defs>
        <path d="M 31.78125 66.40625 
Q 24.171875 66.40625 20.328125 58.90625 
Q 16.5 51.421875 16.5 36.375 
Q 16.5 21.390625 20.328125 13.890625 
Q 24.171875 6.390625 31.78125 6.390625 
Q 39.453125 6.390625 43.28125 13.890625 
Q 47.125 21.390625 47.125 36.375 
Q 47.125 51.421875 43.28125 58.90625 
Q 39.453125 66.40625 31.78125 66.40625 
z
M 31.78125 74.21875 
Q 44.046875 74.21875 50.515625 64.515625 
Q 56.984375 54.828125 56.984375 36.375 
Q 56.984375 17.96875 50.515625 8.265625 
Q 44.046875 -1.421875 31.78125 -1.421875 
Q 19.53125 -1.421875 13.0625 8.265625 
Q 6.59375 17.96875 6.59375 36.375 
Q 6.59375 54.828125 13.0625 64.515625 
Q 19.53125 74.21875 31.78125 74.21875 
z
" id="DejaVuSans-48"/>
       </defs>
       <use xlink:href="#DejaVuSans-48"/>
      </g>
     </g>
    </g>
    <g id="xtick_2">
     <g id="line2d_2">
      <g>
       <use style="stroke:#000000;stroke-width:0.8;" x="224.172599" xlink:href="#m03e612c233" y="384.48"/>
      </g>
     </g>
     <g id="text_2">
      <!-- 200 -->
      <g transform="translate(214.628849 399.078438)scale(0.1 -0.1)">
       <defs>
        <path d="M 19.1875 8.296875 
L 53.609375 8.296875 
L 53.609375 0 
L 7.328125 0 
L 7.328125 8.296875 
Q 12.9375 14.109375 22.625 23.890625 
Q 32.328125 33.6875 34.8125 36.53125 
Q 39.546875 41.84375 41.421875 45.53125 
Q 43.3125 49.21875 43.3125 52.78125 
Q 43.3125 58.59375 39.234375 62.25 
Q 35.15625 65.921875 28.609375 65.921875 
Q 23.96875 65.921875 18.8125 64.3125 
Q 13.671875 62.703125 7.8125 59.421875 
L 7.8125 69.390625 
Q 13.765625 71.78125 18.9375 73 
Q 24.125 74.21875 28.421875 74.21875 
Q 39.75 74.21875 46.484375 68.546875 
Q 53.21875 62.890625 53.21875 53.421875 
Q 53.21875 48.921875 51.53125 44.890625 
Q 49.859375 40.875 45.40625 35.40625 
Q 44.1875 33.984375 37.640625 27.21875 
Q 31.109375 20.453125 19.1875 8.296875 
z
" id="DejaVuSans-50"/>
       </defs>
       <use xlink:href="#DejaVuSans-50"/>
       <use x="63.623047" xlink:href="#DejaVuSans-48"/>
       <use x="127.246094" xlink:href="#DejaVuSans-48"/>
      </g>
     </g>
    </g>
    <g id="xtick_3">
     <g id="line2d_3">
      <g>
       <use style="stroke:#000000;stroke-width:0.8;" x="309.908835" xlink:href="#m03e612c233" y="384.48"/>
      </g>
     </g>
     <g id="text_3">
      <!-- 400 -->
      <g transform="translate(300.365085 399.078438)scale(0.1 -0.1)">
       <defs>
        <path d="M 37.796875 64.3125 
L 12.890625 25.390625 
L 37.796875 25.390625 
z
M 35.203125 72.90625 
L 47.609375 72.90625 
L 47.609375 25.390625 
L 58.015625 25.390625 
L 58.015625 17.1875 
L 47.609375 17.1875 
L 47.609375 0 
L 37.796875 0 
L 37.796875 17.1875 
L 4.890625 17.1875 
L 4.890625 26.703125 
z
" id="DejaVuSans-52"/>
       </defs>
       <use xlink:href="#DejaVuSans-52"/>
       <use x="63.623047" xlink:href="#DejaVuSans-48"/>
       <use x="127.246094" xlink:href="#DejaVuSans-48"/>
      </g>
     </g>
    </g>
    <g id="xtick_4">
     <g id="line2d_4">
      <g>
       <use style="stroke:#000000;stroke-width:0.8;" x="395.64507" xlink:href="#m03e612c233" y="384.48"/>
      </g>
     </g>
     <g id="text_4">
      <!-- 600 -->
      <g transform="translate(386.10132 399.078438)scale(0.1 -0.1)">
       <defs>
        <path d="M 33.015625 40.375 
Q 26.375 40.375 22.484375 35.828125 
Q 18.609375 31.296875 18.609375 23.390625 
Q 18.609375 15.53125 22.484375 10.953125 
Q 26.375 6.390625 33.015625 6.390625 
Q 39.65625 6.390625 43.53125 10.953125 
Q 47.40625 15.53125 47.40625 23.390625 
Q 47.40625 31.296875 43.53125 35.828125 
Q 39.65625 40.375 33.015625 40.375 
z
M 52.59375 71.296875 
L 52.59375 62.3125 
Q 48.875 64.0625 45.09375 64.984375 
Q 41.3125 65.921875 37.59375 65.921875 
Q 27.828125 65.921875 22.671875 59.328125 
Q 17.53125 52.734375 16.796875 39.40625 
Q 19.671875 43.65625 24.015625 45.921875 
Q 28.375 48.1875 33.59375 48.1875 
Q 44.578125 48.1875 50.953125 41.515625 
Q 57.328125 34.859375 57.328125 23.390625 
Q 57.328125 12.15625 50.6875 5.359375 
Q 44.046875 -1.421875 33.015625 -1.421875 
Q 20.359375 -1.421875 13.671875 8.265625 
Q 6.984375 17.96875 6.984375 36.375 
Q 6.984375 53.65625 15.1875 63.9375 
Q 23.390625 74.21875 37.203125 74.21875 
Q 40.921875 74.21875 44.703125 73.484375 
Q 48.484375 72.75 52.59375 71.296875 
z
" id="DejaVuSans-54"/>
       </defs>
       <use xlink:href="#DejaVuSans-54"/>
       <use x="63.623047" xlink:href="#DejaVuSans-48"/>
       <use x="127.246094" xlink:href="#DejaVuSans-48"/>
      </g>
     </g>
    </g>
    <g id="xtick_5">
     <g id="line2d_5">
      <g>
       <use style="stroke:#000000;stroke-width:0.8;" x="481.381306" xlink:href="#m03e612c233" y="384.48"/>
      </g>
     </g>
     <g id="text_5">
      <!-- 800 -->
      <g transform="translate(471.837556 399.078438)scale(0.1 -0.1)">
       <defs>
        <path d="M 31.78125 34.625 
Q 24.75 34.625 20.71875 30.859375 
Q 16.703125 27.09375 16.703125 20.515625 
Q 16.703125 13.921875 20.71875 10.15625 
Q 24.75 6.390625 31.78125 6.390625 
Q 38.8125 6.390625 42.859375 10.171875 
Q 46.921875 13.96875 46.921875 20.515625 
Q 46.921875 27.09375 42.890625 30.859375 
Q 38.875 34.625 31.78125 34.625 
z
M 21.921875 38.8125 
Q 15.578125 40.375 12.03125 44.71875 
Q 8.5 49.078125 8.5 55.328125 
Q 8.5 64.0625 14.71875 69.140625 
Q 20.953125 74.21875 31.78125 74.21875 
Q 42.671875 74.21875 48.875 69.140625 
Q 55.078125 64.0625 55.078125 55.328125 
Q 55.078125 49.078125 51.53125 44.71875 
Q 48 40.375 41.703125 38.8125 
Q 48.828125 37.15625 52.796875 32.3125 
Q 56.78125 27.484375 56.78125 20.515625 
Q 56.78125 9.90625 50.3125 4.234375 
Q 43.84375 -1.421875 31.78125 -1.421875 
Q 19.734375 -1.421875 13.25 4.234375 
Q 6.78125 9.90625 6.78125 20.515625 
Q 6.78125 27.484375 10.78125 32.3125 
Q 14.796875 37.15625 21.921875 38.8125 
z
M 18.3125 54.390625 
Q 18.3125 48.734375 21.84375 45.5625 
Q 25.390625 42.390625 31.78125 42.390625 
Q 38.140625 42.390625 41.71875 45.5625 
Q 45.3125 48.734375 45.3125 54.390625 
Q 45.3125 60.0625 41.71875 63.234375 
Q 38.140625 66.40625 31.78125 66.40625 
Q 25.390625 66.40625 21.84375 63.234375 
Q 18.3125 60.0625 18.3125 54.390625 
z
" id="DejaVuSans-56"/>
       </defs>
       <use xlink:href="#DejaVuSans-56"/>
       <use x="63.623047" xlink:href="#DejaVuSans-48"/>
       <use x="127.246094" xlink:href="#DejaVuSans-48"/>
      </g>
     </g>
    </g>
    <g id="xtick_6">
     <g id="line2d_6">
      <g>
       <use style="stroke:#000000;stroke-width:0.8;" x="567.117542" xlink:href="#m03e612c233" y="384.48"/>
      </g>
     </g>
     <g id="text_6">
      <!-- 1000 -->
      <g transform="translate(554.392542 399.078438)scale(0.1 -0.1)">
       <defs>
        <path d="M 12.40625 8.296875 
L 28.515625 8.296875 
L 28.515625 63.921875 
L 10.984375 60.40625 
L 10.984375 69.390625 
L 28.421875 72.90625 
L 38.28125 72.90625 
L 38.28125 8.296875 
L 54.390625 8.296875 
L 54.390625 0 
L 12.40625 0 
z
" id="DejaVuSans-49"/>
       </defs>
       <use xlink:href="#DejaVuSans-49"/>
       <use x="63.623047" xlink:href="#DejaVuSans-48"/>
       <use x="127.246094" xlink:href="#DejaVuSans-48"/>
       <use x="190.869141" xlink:href="#DejaVuSans-48"/>
      </g>
     </g>
    </g>
    <g id="xtick_7">
     <g id="line2d_7">
      <g>
       <use style="stroke:#000000;stroke-width:0.8;" x="652.853777" xlink:href="#m03e612c233" y="384.48"/>
      </g>
     </g>
     <g id="text_7">
      <!-- 1200 -->
      <g transform="translate(640.128777 399.078438)scale(0.1 -0.1)">
       <use xlink:href="#DejaVuSans-49"/>
       <use x="63.623047" xlink:href="#DejaVuSans-50"/>
       <use x="127.246094" xlink:href="#DejaVuSans-48"/>
       <use x="190.869141" xlink:href="#DejaVuSans-48"/>
      </g>
     </g>
    </g>
    <g id="xtick_8">
     <g id="line2d_8">
      <g>
       <use style="stroke:#000000;stroke-width:0.8;" x="738.590013" xlink:href="#m03e612c233" y="384.48"/>
      </g>
     </g>
     <g id="text_8">
      <!-- 1400 -->
      <g transform="translate(725.865013 399.078438)scale(0.1 -0.1)">
       <use xlink:href="#DejaVuSans-49"/>
       <use x="63.623047" xlink:href="#DejaVuSans-52"/>
       <use x="127.246094" xlink:href="#DejaVuSans-48"/>
       <use x="190.869141" xlink:href="#DejaVuSans-48"/>
      </g>
     </g>
    </g>
    <g id="text_9">
     <!-- Timestamp -->
     <g transform="translate(414.892969 412.756563)scale(0.1 -0.1)">
      <defs>
       <path d="M -0.296875 72.90625 
L 61.375 72.90625 
L 61.375 64.59375 
L 35.5 64.59375 
L 35.5 0 
L 25.59375 0 
L 25.59375 64.59375 
L -0.296875 64.59375 
z
" id="DejaVuSans-84"/>
       <path d="M 9.421875 54.6875 
L 18.40625 54.6875 
L 18.40625 0 
L 9.421875 0 
z
M 9.421875 75.984375 
L 18.40625 75.984375 
L 18.40625 64.59375 
L 9.421875 64.59375 
z
" id="DejaVuSans-105"/>
       <path d="M 52 44.1875 
Q 55.375 50.25 60.0625 53.125 
Q 64.75 56 71.09375 56 
Q 79.640625 56 84.28125 50.015625 
Q 88.921875 44.046875 88.921875 33.015625 
L 88.921875 0 
L 79.890625 0 
L 79.890625 32.71875 
Q 79.890625 40.578125 77.09375 44.375 
Q 74.3125 48.1875 68.609375 48.1875 
Q 61.625 48.1875 57.5625 43.546875 
Q 53.515625 38.921875 53.515625 30.90625 
L 53.515625 0 
L 44.484375 0 
L 44.484375 32.71875 
Q 44.484375 40.625 41.703125 44.40625 
Q 38.921875 48.1875 33.109375 48.1875 
Q 26.21875 48.1875 22.15625 43.53125 
Q 18.109375 38.875 18.109375 30.90625 
L 18.109375 0 
L 9.078125 0 
L 9.078125 54.6875 
L 18.109375 54.6875 
L 18.109375 46.1875 
Q 21.1875 51.21875 25.484375 53.609375 
Q 29.78125 56 35.6875 56 
Q 41.65625 56 45.828125 52.96875 
Q 50 49.953125 52 44.1875 
z
" id="DejaVuSans-109"/>
       <path d="M 56.203125 29.59375 
L 56.203125 25.203125 
L 14.890625 25.203125 
Q 15.484375 15.921875 20.484375 11.0625 
Q 25.484375 6.203125 34.421875 6.203125 
Q 39.59375 6.203125 44.453125 7.46875 
Q 49.3125 8.734375 54.109375 11.28125 
L 54.109375 2.78125 
Q 49.265625 0.734375 44.1875 -0.34375 
Q 39.109375 -1.421875 33.890625 -1.421875 
Q 20.796875 -1.421875 13.15625 6.1875 
Q 5.515625 13.8125 5.515625 26.8125 
Q 5.515625 40.234375 12.765625 48.109375 
Q 20.015625 56 32.328125 56 
Q 43.359375 56 49.78125 48.890625 
Q 56.203125 41.796875 56.203125 29.59375 
z
M 47.21875 32.234375 
Q 47.125 39.59375 43.09375 43.984375 
Q 39.0625 48.390625 32.421875 48.390625 
Q 24.90625 48.390625 20.390625 44.140625 
Q 15.875 39.890625 15.1875 32.171875 
z
" id="DejaVuSans-101"/>
       <path d="M 44.28125 53.078125 
L 44.28125 44.578125 
Q 40.484375 46.53125 36.375 47.5 
Q 32.28125 48.484375 27.875 48.484375 
Q 21.1875 48.484375 17.84375 46.4375 
Q 14.5 44.390625 14.5 40.28125 
Q 14.5 37.15625 16.890625 35.375 
Q 19.28125 33.59375 26.515625 31.984375 
L 29.59375 31.296875 
Q 39.15625 29.25 43.1875 25.515625 
Q 47.21875 21.78125 47.21875 15.09375 
Q 47.21875 7.46875 41.1875 3.015625 
Q 35.15625 -1.421875 24.609375 -1.421875 
Q 20.21875 -1.421875 15.453125 -0.5625 
Q 10.6875 0.296875 5.421875 2 
L 5.421875 11.28125 
Q 10.40625 8.6875 15.234375 7.390625 
Q 20.0625 6.109375 24.8125 6.109375 
Q 31.15625 6.109375 34.5625 8.28125 
Q 37.984375 10.453125 37.984375 14.40625 
Q 37.984375 18.0625 35.515625 20.015625 
Q 33.0625 21.96875 24.703125 23.78125 
L 21.578125 24.515625 
Q 13.234375 26.265625 9.515625 29.90625 
Q 5.8125 33.546875 5.8125 39.890625 
Q 5.8125 47.609375 11.28125 51.796875 
Q 16.75 56 26.8125 56 
Q 31.78125 56 36.171875 55.265625 
Q 40.578125 54.546875 44.28125 53.078125 
z
" id="DejaVuSans-115"/>
       <path d="M 18.3125 70.21875 
L 18.3125 54.6875 
L 36.8125 54.6875 
L 36.8125 47.703125 
L 18.3125 47.703125 
L 18.3125 18.015625 
Q 18.3125 11.328125 20.140625 9.421875 
Q 21.96875 7.515625 27.59375 7.515625 
L 36.8125 7.515625 
L 36.8125 0 
L 27.59375 0 
Q 17.1875 0 13.234375 3.875 
Q 9.28125 7.765625 9.28125 18.015625 
L 9.28125 47.703125 
L 2.6875 47.703125 
L 2.6875 54.6875 
L 9.28125 54.6875 
L 9.28125 70.21875 
z
" id="DejaVuSans-116"/>
       <path d="M 34.28125 27.484375 
Q 23.390625 27.484375 19.1875 25 
Q 14.984375 22.515625 14.984375 16.5 
Q 14.984375 11.71875 18.140625 8.90625 
Q 21.296875 6.109375 26.703125 6.109375 
Q 34.1875 6.109375 38.703125 11.40625 
Q 43.21875 16.703125 43.21875 25.484375 
L 43.21875 27.484375 
z
M 52.203125 31.203125 
L 52.203125 0 
L 43.21875 0 
L 43.21875 8.296875 
Q 40.140625 3.328125 35.546875 0.953125 
Q 30.953125 -1.421875 24.3125 -1.421875 
Q 15.921875 -1.421875 10.953125 3.296875 
Q 6 8.015625 6 15.921875 
Q 6 25.140625 12.171875 29.828125 
Q 18.359375 34.515625 30.609375 34.515625 
L 43.21875 34.515625 
L 43.21875 35.40625 
Q 43.21875 41.609375 39.140625 45 
Q 35.0625 48.390625 27.6875 48.390625 
Q 23 48.390625 18.546875 47.265625 
Q 14.109375 46.140625 10.015625 43.890625 
L 10.015625 52.203125 
Q 14.9375 54.109375 19.578125 55.046875 
Q 24.21875 56 28.609375 56 
Q 40.484375 56 46.34375 49.84375 
Q 52.203125 43.703125 52.203125 31.203125 
z
" id="DejaVuSans-97"/>
       <path d="M 18.109375 8.203125 
L 18.109375 -20.796875 
L 9.078125 -20.796875 
L 9.078125 54.6875 
L 18.109375 54.6875 
L 18.109375 46.390625 
Q 20.953125 51.265625 25.265625 53.625 
Q 29.59375 56 35.59375 56 
Q 45.5625 56 51.78125 48.09375 
Q 58.015625 40.1875 58.015625 27.296875 
Q 58.015625 14.40625 51.78125 6.484375 
Q 45.5625 -1.421875 35.59375 -1.421875 
Q 29.59375 -1.421875 25.265625 0.953125 
Q 20.953125 3.328125 18.109375 8.203125 
z
M 48.6875 27.296875 
Q 48.6875 37.203125 44.609375 42.84375 
Q 40.53125 48.484375 33.40625 48.484375 
Q 26.265625 48.484375 22.1875 42.84375 
Q 18.109375 37.203125 18.109375 27.296875 
Q 18.109375 17.390625 22.1875 11.75 
Q 26.265625 6.109375 33.40625 6.109375 
Q 40.53125 6.109375 44.609375 11.75 
Q 48.6875 17.390625 48.6875 27.296875 
z
" id="DejaVuSans-112"/>
      </defs>
      <use xlink:href="#DejaVuSans-84"/>
      <use x="57.958984" xlink:href="#DejaVuSans-105"/>
      <use x="85.742188" xlink:href="#DejaVuSans-109"/>
      <use x="183.154297" xlink:href="#DejaVuSans-101"/>
      <use x="244.677734" xlink:href="#DejaVuSans-115"/>
      <use x="296.777344" xlink:href="#DejaVuSans-116"/>
      <use x="335.986328" xlink:href="#DejaVuSans-97"/>
      <use x="397.265625" xlink:href="#DejaVuSans-109"/>
      <use x="494.677734" xlink:href="#DejaVuSans-112"/>
     </g>
    </g>
   </g>
   <g id="matplotlib.axis_2">
    <g id="ytick_1">
     <g id="line2d_9">
      <defs>
       <path d="M 0 0 
L -3.5 0 
" id="m40227651e9" style="stroke:#000000;stroke-width:0.8;"/>
      </defs>
      <g>
       <use style="stroke:#000000;stroke-width:0.8;" x="108" xlink:href="#m40227651e9" y="313.895259"/>
      </g>
     </g>
     <g id="text_10">
      <!-- 0 -->
      <g transform="translate(94.6375 317.694478)scale(0.1 -0.1)">
       <use xlink:href="#DejaVuSans-48"/>
      </g>
     </g>
    </g>
    <g id="ytick_2">
     <g id="line2d_10">
      <g>
       <use style="stroke:#000000;stroke-width:0.8;" x="108" xlink:href="#m40227651e9" y="242.043827"/>
      </g>
     </g>
     <g id="text_11">
      <!-- 2000 -->
      <g transform="translate(75.55 245.843046)scale(0.1 -0.1)">
       <use xlink:href="#DejaVuSans-50"/>
       <use x="63.623047" xlink:href="#DejaVuSans-48"/>
       <use x="127.246094" xlink:href="#DejaVuSans-48"/>
       <use x="190.869141" xlink:href="#DejaVuSans-48"/>
      </g>
     </g>
    </g>
    <g id="ytick_3">
     <g id="line2d_11">
      <g>
       <use style="stroke:#000000;stroke-width:0.8;" x="108" xlink:href="#m40227651e9" y="170.192394"/>
      </g>
     </g>
     <g id="text_12">
      <!-- 4000 -->
      <g transform="translate(75.55 173.991613)scale(0.1 -0.1)">
       <use xlink:href="#DejaVuSans-52"/>
       <use x="63.623047" xlink:href="#DejaVuSans-48"/>
       <use x="127.246094" xlink:href="#DejaVuSans-48"/>
       <use x="190.869141" xlink:href="#DejaVuSans-48"/>
      </g>
     </g>
    </g>
    <g id="ytick_4">
     <g id="line2d_12">
      <g>
       <use style="stroke:#000000;stroke-width:0.8;" x="108" xlink:href="#m40227651e9" y="98.340962"/>
      </g>
     </g>
     <g id="text_13">
      <!-- 6000 -->
      <g transform="translate(75.55 102.140181)scale(0.1 -0.1)">
       <use xlink:href="#DejaVuSans-54"/>
       <use x="63.623047" xlink:href="#DejaVuSans-48"/>
       <use x="127.246094" xlink:href="#DejaVuSans-48"/>
       <use x="190.869141" xlink:href="#DejaVuSans-48"/>
      </g>
     </g>
    </g>
    <g id="text_14">
     <!-- Value -->
     <g transform="translate(69.470312 231.89125)rotate(-90)scale(0.1 -0.1)">
      <defs>
       <path d="M 28.609375 0 
L 0.78125 72.90625 
L 11.078125 72.90625 
L 34.1875 11.53125 
L 57.328125 72.90625 
L 67.578125 72.90625 
L 39.796875 0 
z
" id="DejaVuSans-86"/>
       <path d="M 9.421875 75.984375 
L 18.40625 75.984375 
L 18.40625 0 
L 9.421875 0 
z
" id="DejaVuSans-108"/>
       <path d="M 8.5 21.578125 
L 8.5 54.6875 
L 17.484375 54.6875 
L 17.484375 21.921875 
Q 17.484375 14.15625 20.5 10.265625 
Q 23.53125 6.390625 29.59375 6.390625 
Q 36.859375 6.390625 41.078125 11.03125 
Q 45.3125 15.671875 45.3125 23.6875 
L 45.3125 54.6875 
L 54.296875 54.6875 
L 54.296875 0 
L 45.3125 0 
L 45.3125 8.40625 
Q 42.046875 3.421875 37.71875 1 
Q 33.40625 -1.421875 27.6875 -1.421875 
Q 18.265625 -1.421875 13.375 4.4375 
Q 8.5 10.296875 8.5 21.578125 
z
M 31.109375 56 
z
" id="DejaVuSans-117"/>
      </defs>
      <use xlink:href="#DejaVuSans-86"/>
      <use x="60.658203" xlink:href="#DejaVuSans-97"/>
      <use x="121.9375" xlink:href="#DejaVuSans-108"/>
      <use x="149.720703" xlink:href="#DejaVuSans-117"/>
      <use x="213.099609" xlink:href="#DejaVuSans-101"/>
     </g>
    </g>
   </g>
   <g id="line2d_13">
    <path clip-path="url(#p0563dd0d7b)" d="M 138.436364 291.038112 
L 138.865045 318.180916 
L 139.293726 286.914642 
L 139.722407 286.489412 
L 140.151088 300.473552 
L 140.57977 334.20258 
L 141.437132 308.902485 
L 141.865813 302.267301 
L 142.294494 257.455757 
L 143.151857 312.290059 
L 143.580538 317.166286 
L 144.009219 300.331906 
L 144.4379 299.131545 
L 144.866581 299.789693 
L 145.295262 286.493991 
L 145.723944 305.752518 
L 146.152625 280.538031 
L 146.581306 309.351067 
L 147.009987 289.827642 
L 147.438668 277.730593 
L 147.86735 280.87428 
L 148.296031 267.570204 
L 148.724712 281.863279 
L 149.582074 258.938493 
L 150.010755 289.773637 
L 150.439437 299.33811 
L 150.868118 274.279437 
L 151.72548 282.773602 
L 152.154161 279.780906 
L 152.582843 282.67774 
L 153.011524 256.940838 
L 153.440205 248.34971 
L 153.868886 250.314692 
L 154.297567 275.02169 
L 154.726248 244.151098 
L 155.15493 270.645045 
L 155.583611 233.185607 
L 156.440973 271.485752 
L 157.298335 282.970806 
L 157.727017 280.5209 
L 158.155698 288.888323 
L 158.584379 239.359774 
L 159.01306 244.667698 
L 159.441741 263.236577 
L 159.870423 253.890356 
L 160.299104 265.030667 
L 160.727785 213.913471 
L 161.156466 271.8096 
L 161.585147 258.156563 
L 162.44251 245.495414 
L 162.871191 259.510096 
L 163.299872 296.246014 
L 163.728553 278.812898 
L 164.157234 249.499002 
L 164.585915 256.076241 
L 165.014597 272.765132 
L 165.443278 257.91181 
L 165.871959 270.523309 
L 166.30064 251.55734 
L 166.729321 281.665775 
L 167.158003 249.562057 
L 167.586684 251.844926 
L 168.015365 255.342921 
L 168.444046 256.409462 
L 168.872727 252.392693 
L 169.301408 269.009792 
L 169.73009 259.810633 
L 170.158771 246.08253 
L 170.587452 238.62322 
L 171.016133 256.287135 
L 171.444814 261.461756 
L 171.873496 276.257494 
L 172.302177 286.246322 
L 172.730858 275.278953 
L 173.159539 238.951295 
L 173.58822 248.246259 
L 174.016901 266.744639 
L 174.445583 271.118024 
L 174.874264 271.719438 
L 175.302945 246.967538 
L 175.731626 270.636369 
L 176.160307 243.852701 
L 176.588988 255.632533 
L 177.01767 244.723115 
L 177.446351 284.688304 
L 177.875032 269.704997 
L 178.303713 286.618113 
L 178.732394 260.961468 
L 179.589757 278.695278 
L 180.018438 248.402113 
L 180.447119 271.496722 
L 180.8758 258.7111 
L 181.304481 263.621452 
L 181.733163 292.73787 
L 182.161844 290.922516 
L 182.590525 280.090564 
L 183.019206 302.382062 
L 183.447887 272.776963 
L 183.876569 307.342125 
L 184.30525 256.178513 
L 184.733931 295.601418 
L 185.162612 257.546683 
L 185.591293 296.352045 
L 186.019974 307.608146 
L 186.448656 290.839138 
L 186.877337 291.995243 
L 187.306018 323.92978 
L 187.734699 275.925138 
L 188.16338 316.248765 
L 188.592061 291.264806 
L 189.020743 289.609206 
L 189.878105 303.071879 
L 190.306786 298.583229 
L 190.735467 322.581505 
L 191.164149 319.004783 
L 191.59283 325.791544 
L 192.021511 278.49729 
L 192.450192 281.163753 
L 193.307554 332.662277 
L 194.164917 285.576194 
L 194.593598 322.487141 
L 195.022279 300.692621 
L 195.45096 333.701423 
L 195.879641 304.865649 
L 196.308323 335.566097 
L 196.737004 341.604842 
L 197.165685 337.715937 
L 197.594366 337.188659 
L 198.023047 338.947668 
L 198.451729 310.218862 
L 198.88041 323.312936 
L 199.309091 331.338239 
L 199.737772 346.011075 
L 200.166453 345.66346 
L 200.595134 342.097569 
L 201.023816 349.309131 
L 201.452497 338.075618 
L 201.881178 322.347392 
L 202.309859 352.889395 
L 202.73854 305.95731 
L 203.167222 356.77586 
L 203.595903 335.63392 
L 204.024584 291.941588 
L 204.881946 340.441613 
L 205.310627 352.096102 
L 205.739309 326.608524 
L 206.16799 337.870506 
L 206.596671 344.91175 
L 207.025352 332.931832 
L 207.454033 347.908174 
L 207.882714 291.682433 
L 208.740077 326.255203 
L 209.168758 327.775543 
L 209.597439 350.676944 
L 210.02612 325.221712 
L 210.454802 347.663762 
L 210.883483 359.723747 
L 211.312164 307.840955 
L 211.740845 358.577513 
L 212.169526 347.238632 
L 213.026889 359.05691 
L 213.45557 331.210602 
L 213.884251 369.36 
L 214.312932 345.557875 
L 214.741613 352.057837 
L 215.170294 366.581564 
L 215.598976 342.631322 
L 216.027657 348.887461 
L 216.456338 351.524454 
L 216.885019 322.903987 
L 217.3137 330.642861 
L 217.742382 341.481458 
L 218.171063 336.629747 
L 218.599744 352.275577 
L 219.028425 342.152912 
L 219.457106 318.181248 
L 219.885787 337.776798 
L 220.314469 333.9861 
L 220.74315 299.844409 
L 221.171831 348.309992 
L 221.600512 317.675467 
L 222.029193 302.034118 
L 222.457875 352.674769 
L 222.886556 332.432815 
L 223.315237 338.96649 
L 223.743918 339.951033 
L 224.172599 349.076489 
L 224.60128 345.494449 
L 225.029962 305.596434 
L 225.458643 316.807357 
L 225.887324 312.55958 
L 226.316005 297.486533 
L 226.744686 331.064932 
L 227.173367 308.736183 
L 227.602049 323.4445 
L 228.03073 330.27284 
L 228.459411 303.452372 
L 229.316773 336.985719 
L 229.745455 320.892101 
L 230.174136 288.471902 
L 230.602817 293.050539 
L 231.031498 339.129501 
L 231.460179 309.907737 
L 231.88886 295.070105 
L 232.317542 338.255183 
L 232.746223 282.341699 
L 233.174904 316.105506 
L 233.603585 299.984881 
L 234.032266 307.124354 
L 234.460948 273.884141 
L 234.889629 327.419429 
L 235.31831 302.061627 
L 235.746991 317.395315 
L 236.604353 255.07152 
L 237.033035 321.01797 
L 237.461716 293.426619 
L 237.890397 293.518439 
L 238.319078 261.668345 
L 238.747759 305.631311 
L 239.605122 254.497436 
L 240.033803 288.272624 
L 240.462484 294.825111 
L 241.319846 270.179911 
L 241.748528 295.991726 
L 242.177209 247.235887 
L 242.60589 274.753136 
L 243.034571 325.700488 
L 243.463252 291.91147 
L 243.891933 242.705317 
L 244.320615 286.725882 
L 244.749296 269.56515 
L 245.177977 265.575151 
L 245.606658 293.69778 
L 246.035339 254.750263 
L 246.46402 254.640178 
L 246.892702 227.156016 
L 247.750064 256.768017 
L 248.178745 258.428529 
L 248.607426 244.754723 
L 249.036108 270.374116 
L 249.464789 251.261521 
L 250.322151 240.827456 
L 250.750832 269.96952 
L 251.179513 222.073552 
L 251.608195 234.620825 
L 252.036876 201.020617 
L 252.465557 279.075474 
L 252.894238 254.609812 
L 253.322919 273.81503 
L 253.751601 249.521901 
L 254.180282 235.377488 
L 254.608963 209.358093 
L 255.037644 247.053337 
L 255.466325 259.745481 
L 256.323688 225.280377 
L 256.752369 232.372775 
L 257.18105 211.136021 
L 258.038412 263.063071 
L 258.467093 215.584735 
L 258.895775 252.091237 
L 259.324456 220.330295 
L 259.753137 221.604326 
L 260.181818 223.641831 
L 260.610499 198.742419 
L 261.039181 232.993531 
L 261.467862 252.484104 
L 261.896543 227.269221 
L 262.325224 232.203162 
L 263.182586 197.943342 
L 263.611268 259.633868 
L 264.039949 230.692341 
L 264.46863 225.367981 
L 264.897311 216.567655 
L 265.325992 238.866378 
L 265.754673 219.192815 
L 266.183355 219.291145 
L 266.612036 226.347724 
L 267.040717 228.368977 
L 267.469398 199.76918 
L 267.898079 214.113518 
L 268.326761 191.139729 
L 268.755442 231.339814 
L 269.184123 249.076833 
L 269.612804 234.01201 
L 270.041485 225.384402 
L 270.470166 231.709586 
L 270.898848 235.146414 
L 271.327529 256.470424 
L 271.75621 242.813794 
L 272.184891 248.608712 
L 272.613572 223.774823 
L 273.042254 223.596165 
L 273.470935 202.599722 
L 273.899616 236.782783 
L 274.328297 214.352975 
L 274.756978 240.649746 
L 275.185659 259.920232 
L 275.614341 225.492317 
L 276.043022 243.352211 
L 276.471703 249.737791 
L 276.900384 249.078274 
L 277.329065 216.619214 
L 277.757746 208.722477 
L 278.186428 219.71377 
L 279.04379 263.132575 
L 279.472471 236.446578 
L 279.901152 221.327464 
L 280.329834 227.232936 
L 280.758515 237.602296 
L 281.187196 240.242083 
L 281.615877 260.423859 
L 282.044558 238.268678 
L 282.473239 246.287129 
L 282.901921 247.119896 
L 283.330602 253.046592 
L 283.759283 271.338064 
L 284.187964 262.262135 
L 284.616645 238.917258 
L 285.045327 253.129745 
L 285.474008 254.703672 
L 285.902689 259.468772 
L 286.33137 232.064564 
L 286.760051 258.10828 
L 287.188732 255.131665 
L 287.617414 258.114463 
L 288.046095 279.327195 
L 288.474776 264.382028 
L 288.903457 241.222904 
L 289.332138 257.344224 
L 289.760819 292.931472 
L 290.189501 266.613349 
L 290.618182 259.137611 
L 291.046863 271.773621 
L 291.475544 257.545755 
L 292.332907 292.966165 
L 292.761588 262.115148 
L 293.190269 271.712266 
L 293.61895 267.844655 
L 294.047631 260.075381 
L 294.476312 276.434222 
L 294.904994 310.487023 
L 295.333675 280.13622 
L 295.762356 312.934398 
L 296.191037 294.157817 
L 296.619718 268.559511 
L 297.048399 317.806233 
L 297.477081 286.021251 
L 297.905762 299.973857 
L 298.334443 295.507953 
L 298.763124 273.568223 
L 299.191805 283.965855 
L 299.620487 269.892511 
L 300.049168 314.584614 
L 300.477849 310.816104 
L 300.90653 309.713621 
L 301.335211 299.395462 
L 301.763892 316.00866 
L 302.192574 313.626787 
L 302.621255 317.280325 
L 303.049936 289.708152 
L 303.478617 291.528224 
L 303.907298 285.706465 
L 304.33598 255.065596 
L 304.764661 306.957755 
L 305.193342 292.099475 
L 305.622023 246.325154 
L 306.050704 295.685852 
L 306.479385 307.648589 
L 306.908067 324.510051 
L 307.336748 317.416056 
L 307.765429 338.512984 
L 308.19411 336.928829 
L 308.622791 316.395361 
L 309.051472 303.80554 
L 309.480154 309.238648 
L 309.908835 317.367371 
L 310.337516 343.439866 
L 310.766197 299.146729 
L 311.194878 303.020036 
L 311.62356 282.442944 
L 312.052241 345.162843 
L 312.480922 317.095169 
L 312.909603 280.573421 
L 313.338284 310.091372 
L 313.766965 287.346418 
L 314.195647 301.965514 
L 314.624328 309.848392 
L 315.053009 295.819231 
L 315.48169 344.620247 
L 315.910371 318.223127 
L 316.767734 287.65689 
L 317.625096 307.857094 
L 318.053777 290.536326 
L 318.91114 330.296403 
L 319.339821 310.47131 
L 319.768502 312.545822 
L 320.197183 302.486285 
L 320.625864 315.514052 
L 321.054545 296.386096 
L 321.483227 270.481857 
L 321.911908 339.332574 
L 322.340589 295.861035 
L 322.76927 318.728218 
L 323.197951 316.357206 
L 323.626633 337.004006 
L 324.055314 308.231345 
L 324.483995 296.760324 
L 324.912676 327.658774 
L 325.341357 266.236574 
L 325.770038 313.928519 
L 326.19872 340.37234 
L 327.056082 255.139875 
L 327.484763 267.753807 
L 327.913444 272.481551 
L 328.342125 280.235675 
L 328.770807 285.066991 
L 330.05685 330.046317 
L 330.485531 310.091819 
L 330.914213 319.78374 
L 331.342894 304.275302 
L 331.771575 272.159202 
L 332.200256 299.951711 
L 332.628937 310.456858 
L 333.057618 298.985789 
L 333.4863 311.11395 
L 333.914981 264.409049 
L 334.343662 304.576426 
L 334.772343 278.820371 
L 336.058387 237.999196 
L 336.487068 302.373813 
L 336.915749 252.645249 
L 337.34443 277.887533 
L 337.773111 269.696536 
L 338.201793 238.962088 
L 338.630474 274.503034 
L 339.059155 249.90293 
L 339.487836 262.36477 
L 339.916517 268.047953 
L 340.345198 232.37986 
L 340.77388 260.35289 
L 341.202561 258.675063 
L 341.631242 240.855691 
L 342.059923 235.457366 
L 342.488604 267.090603 
L 342.917286 228.372621 
L 343.345967 259.007144 
L 343.774648 262.069031 
L 344.203329 286.664848 
L 344.63201 245.85322 
L 345.060691 236.100098 
L 345.489373 253.117251 
L 345.918054 216.613946 
L 346.775416 234.378885 
L 347.204097 202.260546 
L 347.632778 260.471495 
L 348.06146 226.934431 
L 348.490141 215.514267 
L 348.918822 247.326451 
L 349.347503 232.726109 
L 349.776184 227.816798 
L 350.204866 233.547099 
L 350.633547 223.027696 
L 351.062228 225.829887 
L 351.490909 236.791645 
L 351.91959 206.927806 
L 352.348271 229.837456 
L 352.776953 229.583582 
L 353.634315 185.564126 
L 354.062996 246.696816 
L 354.491677 210.377953 
L 354.920359 205.760984 
L 355.34904 211.384013 
L 355.777721 164.852511 
L 356.206402 187.359461 
L 356.635083 218.687383 
L 357.063764 219.428581 
L 357.492446 190.865285 
L 357.921127 188.353115 
L 358.349808 192.733462 
L 358.778489 215.793075 
L 359.20717 194.467096 
L 359.635851 204.844391 
L 360.064533 169.489437 
L 360.493214 217.529735 
L 360.921895 200.94456 
L 361.350576 219.404565 
L 361.779257 218.090293 
L 362.207939 199.827245 
L 363.065301 207.963087 
L 363.493982 170.683784 
L 363.922663 196.62967 
L 364.351344 174.132189 
L 364.780026 215.225814 
L 365.208707 201.718845 
L 365.637388 222.335297 
L 366.066069 170.9355 
L 366.49475 214.372159 
L 366.923431 170.048751 
L 367.352113 214.33365 
L 367.780794 198.139502 
L 368.209475 248.168447 
L 368.638156 200.878707 
L 369.066837 196.221254 
L 369.495519 231.114172 
L 369.9242 201.874437 
L 370.352881 203.089152 
L 370.781562 230.150966 
L 371.210243 181.091937 
L 371.638924 219.354276 
L 372.496287 187.987183 
L 372.924968 207.959938 
L 373.353649 185.497216 
L 373.78233 196.998309 
L 374.211012 172.989575 
L 374.639693 212.19274 
L 375.068374 221.675476 
L 375.497055 194.878227 
L 375.925736 205.423681 
L 376.354417 207.842185 
L 376.783099 194.228638 
L 377.21178 195.108586 
L 377.640461 204.195403 
L 378.069142 193.833036 
L 378.497823 192.430867 
L 378.926504 191.784503 
L 379.355186 190.209489 
L 379.783867 185.132798 
L 380.212548 211.732311 
L 380.641229 218.073773 
L 381.06991 233.141734 
L 381.498592 216.252215 
L 381.927273 229.601291 
L 382.355954 206.482294 
L 382.784635 218.448477 
L 383.641997 234.484106 
L 384.070679 216.843883 
L 384.928041 242.727481 
L 385.356722 246.535706 
L 385.785403 202.437395 
L 386.214085 235.565477 
L 386.642766 238.223137 
L 387.071447 230.896754 
L 387.500128 237.149826 
L 388.35749 234.754824 
L 388.786172 241.160768 
L 389.214853 251.182567 
L 389.643534 219.821122 
L 390.072215 235.840657 
L 390.500896 261.070361 
L 390.929577 221.779547 
L 391.358259 268.811239 
L 391.78694 245.928707 
L 392.215621 245.091298 
L 392.644302 258.014775 
L 393.072983 237.155089 
L 393.501665 270.634108 
L 393.930346 217.396058 
L 394.359027 239.327404 
L 394.787708 216.538635 
L 395.216389 236.727163 
L 395.64507 279.881267 
L 396.073752 239.019259 
L 396.502433 243.762852 
L 396.931114 234.523312 
L 397.359795 234.791597 
L 397.788476 247.023876 
L 398.217157 245.025804 
L 398.645839 267.948827 
L 399.07452 230.081112 
L 399.503201 291.422983 
L 399.931882 294.585032 
L 400.360563 285.031784 
L 400.789245 246.438333 
L 401.217926 283.760212 
L 401.646607 271.727361 
L 402.075288 264.296306 
L 402.503969 275.445981 
L 402.93265 305.189403 
L 403.361332 247.559281 
L 403.790013 270.842213 
L 404.218694 260.773994 
L 405.076056 281.514099 
L 405.504738 120.15484 
L 406.3621 120.15484 
L 406.790781 295.78597 
L 407.219462 252.21006 
L 407.648143 292.586644 
L 408.076825 276.626701 
L 408.505506 303.200137 
L 408.934187 265.675775 
L 409.362868 267.893904 
L 409.791549 283.953101 
L 410.22023 251.583765 
L 410.648912 289.183509 
L 411.077593 285.64674 
L 411.506274 260.939802 
L 411.934955 272.846274 
L 412.363636 266.072311 
L 412.792318 255.286021 
L 413.220999 277.522819 
L 413.64968 270.425234 
L 414.078361 293.820886 
L 414.507042 274.054643 
L 414.935723 288.077535 
L 415.364405 259.608407 
L 415.793086 283.45994 
L 416.221767 282.053715 
L 416.650448 282.617096 
L 417.079129 319.094238 
L 417.50781 300.230267 
L 417.936492 246.86452 
L 418.365173 269.310349 
L 418.793854 281.092948 
L 419.222535 284.40491 
L 419.651216 284.181694 
L 420.079898 273.037367 
L 420.508579 116.685215 
L 421.365941 116.685215 
L 421.794622 301.896106 
L 422.651985 269.096703 
L 423.080666 303.730199 
L 423.509347 258.738534 
L 423.938028 255.243724 
L 424.366709 275.97578 
L 424.795391 270.258978 
L 425.224072 250.209947 
L 425.652753 284.108572 
L 426.081434 289.677816 
L 426.510115 292.728451 
L 426.938796 288.69123 
L 427.367478 283.062298 
L 427.796159 262.653398 
L 428.22484 285.390735 
L 428.653521 272.380328 
L 429.082202 263.667999 
L 429.510883 288.622007 
L 429.939565 238.839283 
L 430.368246 239.77033 
L 430.796927 294.700575 
L 431.225608 269.805445 
L 431.654289 266.666428 
L 432.082971 255.739445 
L 432.511652 278.706943 
L 432.940333 263.156537 
L 433.369014 241.060573 
L 433.797695 236.066957 
L 434.226376 248.512156 
L 434.655058 245.290303 
L 435.083739 261.699679 
L 435.51242 256.708249 
L 435.941101 226.486266 
L 436.369782 244.876253 
L 436.798464 256.96764 
L 437.227145 213.891978 
L 437.655826 252.44681 
L 438.084507 220.183752 
L 438.513188 228.6511 
L 438.941869 230.866683 
L 439.370551 241.85955 
L 439.799232 218.878273 
L 440.227913 262.942857 
L 441.513956 226.229663 
L 441.942638 225.743868 
L 442.371319 231.294876 
L 442.8 229.937489 
L 443.228681 214.74968 
L 443.657362 233.665783 
L 444.086044 259.706221 
L 444.514725 218.757798 
L 444.943406 201.844015 
L 445.372087 198.286558 
L 445.800768 219.739151 
L 446.229449 214.152251 
L 446.658131 184.415385 
L 447.086812 221.792843 
L 447.944174 198.667224 
L 448.372855 217.625033 
L 448.801536 212.987269 
L 449.230218 193.063778 
L 449.658899 214.944752 
L 450.08758 192.384239 
L 450.516261 220.831751 
L 450.944942 234.29226 
L 451.373624 185.527409 
L 451.802305 197.805112 
L 452.230986 201.993521 
L 452.659667 202.326162 
L 453.088348 173.866026 
L 453.517029 210.074172 
L 453.945711 172.095789 
L 454.374392 206.928818 
L 454.803073 189.588456 
L 455.231754 189.875525 
L 455.660435 174.613039 
L 456.089117 215.866785 
L 456.517798 187.48718 
L 456.946479 184.372368 
L 457.803841 159.772436 
L 458.232522 196.740412 
L 458.661204 172.297658 
L 459.089885 169.269315 
L 459.518566 155.202141 
L 459.947247 177.311306 
L 460.375928 154.311273 
L 460.804609 172.664254 
L 461.233291 178.839272 
L 461.661972 163.643169 
L 462.090653 167.132849 
L 462.519334 164.711412 
L 462.948015 152.981362 
L 463.376697 175.681155 
L 464.234059 173.23698 
L 464.66274 149.837868 
L 465.091421 133.643021 
L 465.520102 151.026047 
L 465.948784 149.3694 
L 466.377465 135.931333 
L 466.806146 177.802633 
L 467.234827 193.756971 
L 467.663508 187.094343 
L 468.09219 162.381008 
L 468.520871 166.426094 
L 468.949552 215.651372 
L 469.378233 145.39141 
L 469.806914 170.673005 
L 470.235595 167.765488 
L 470.664277 159.490705 
L 471.092958 190.474468 
L 471.521639 179.75872 
L 471.95032 148.597843 
L 472.379001 131.901315 
L 472.807682 155.270223 
L 473.236364 154.627587 
L 473.665045 198.965771 
L 474.093726 149.610449 
L 474.522407 148.709812 
L 474.951088 175.712134 
L 475.37977 166.37736 
L 475.808451 153.605642 
L 476.237132 131.985959 
L 476.665813 191.236061 
L 477.094494 153.292999 
L 477.523175 147.62674 
L 477.951857 156.568977 
L 478.380538 168.399344 
L 478.809219 177.093651 
L 479.2379 172.101045 
L 479.666581 160.169336 
L 480.095262 195.966593 
L 480.523944 199.350585 
L 480.952625 190.967609 
L 481.381306 204.630579 
L 481.809987 209.907402 
L 482.238668 155.921675 
L 482.66735 198.207101 
L 483.096031 191.664197 
L 483.524712 203.959035 
L 483.953393 175.277785 
L 484.382074 175.995562 
L 484.810755 165.122374 
L 485.239437 195.854355 
L 485.668118 166.246813 
L 486.096799 187.181198 
L 486.52548 214.118065 
L 486.954161 171.095576 
L 487.382843 165.686863 
L 487.811524 179.610277 
L 488.668886 220.528154 
L 489.097567 196.806161 
L 489.526248 222.865931 
L 489.95493 232.467645 
L 490.383611 188.327002 
L 490.812292 207.568574 
L 491.240973 210.559908 
L 491.669654 216.158048 
L 492.098335 182.102665 
L 492.527017 235.515421 
L 493.384379 199.214905 
L 493.81306 205.389736 
L 494.241741 222.903401 
L 494.670423 214.147955 
L 495.099104 217.703671 
L 495.527785 185.143782 
L 495.956466 214.789506 
L 496.385147 229.613842 
L 496.813828 197.656343 
L 497.24251 243.092845 
L 497.671191 211.677631 
L 498.099872 200.369732 
L 498.528553 244.656348 
L 498.957234 218.980358 
L 499.385915 208.830274 
L 499.814597 206.948699 
L 500.671959 194.730201 
L 501.10064 226.723249 
L 501.529321 246.63203 
L 501.958003 246.046904 
L 502.386684 220.93607 
L 502.815365 262.762127 
L 503.244046 226.433044 
L 503.672727 257.188834 
L 504.101408 253.998423 
L 504.53009 232.114692 
L 504.958771 249.781449 
L 505.387452 254.956999 
L 505.816133 252.845947 
L 506.244814 216.234444 
L 506.673496 267.217957 
L 507.102177 241.351371 
L 507.530858 252.464701 
L 507.959539 191.479395 
L 508.38822 248.324945 
L 508.816901 213.40567 
L 509.245583 231.246892 
L 509.674264 275.598065 
L 510.102945 238.707367 
L 510.531626 236.004473 
L 510.960307 248.597855 
L 511.388988 284.673699 
L 511.81767 209.587125 
L 512.246351 253.804669 
L 512.675032 276.038734 
L 513.103713 228.708416 
L 513.532394 255.950697 
L 513.961076 247.376541 
L 514.818438 284.513839 
L 515.247119 255.485801 
L 515.6758 239.109809 
L 516.104481 253.054148 
L 516.533163 252.33765 
L 517.390525 245.726393 
L 517.819206 257.589024 
L 518.247887 258.284198 
L 518.676569 265.940708 
L 519.10525 277.483506 
L 519.533931 278.39947 
L 519.962612 266.407106 
L 520.391293 265.386515 
L 520.819974 258.79287 
L 521.248656 123.004784 
L 522.106018 123.004784 
L 522.534699 243.644317 
L 522.96338 245.195855 
L 523.392061 249.861359 
L 523.820743 265.426961 
L 524.249424 259.01913 
L 524.678105 254.466107 
L 525.106786 245.595706 
L 525.535467 247.159967 
L 525.964149 213.346606 
L 526.39283 251.275091 
L 526.821511 257.892102 
L 527.250192 273.143305 
L 527.678873 260.859353 
L 528.107554 195.286488 
L 528.536236 235.688217 
L 528.964917 223.897972 
L 529.393598 235.593397 
L 529.822279 235.182321 
L 530.25096 240.394207 
L 531.108323 209.382465 
L 531.537004 218.100459 
L 531.965685 237.240092 
L 532.394366 230.22791 
L 532.823047 257.095171 
L 533.251729 209.367096 
L 533.68041 196.039358 
L 534.109091 254.687621 
L 534.537772 226.600232 
L 534.966453 240.880867 
L 535.395134 245.33626 
L 535.823816 203.272856 
L 536.252497 200.217783 
L 536.681178 183.372397 
L 537.109859 209.58221 
L 537.53854 250.052342 
L 537.967222 207.086788 
L 538.395903 227.01283 
L 539.253265 207.397071 
L 539.681946 209.083179 
L 540.110627 194.64336 
L 540.539309 219.31163 
L 540.96799 218.27966 
L 541.825352 187.408864 
L 542.254033 208.818007 
L 542.682714 212.345986 
L 543.111396 217.030857 
L 543.540077 210.905174 
L 543.968758 201.034627 
L 544.397439 215.453308 
L 544.82612 180.56863 
L 545.254802 228.565838 
L 545.683483 192.868632 
L 546.112164 214.646169 
L 546.540845 165.300811 
L 546.969526 194.945727 
L 547.398207 163.994097 
L 547.826889 190.427502 
L 548.25557 185.27928 
L 548.684251 198.40536 
L 549.112932 234.107592 
L 549.541613 147.604809 
L 549.970294 201.249517 
L 550.398976 128.308305 
L 550.827657 167.258819 
L 551.256338 181.953585 
L 551.685019 157.865642 
L 552.1137 153.279286 
L 552.542382 171.933098 
L 552.971063 164.100644 
L 553.399744 132.11311 
L 553.828425 189.344904 
L 554.257106 163.710151 
L 554.685787 147.330635 
L 555.114469 185.894229 
L 555.54315 191.501201 
L 555.971831 133.771152 
L 556.400512 170.495044 
L 556.829193 174.620751 
L 557.257875 155.535538 
L 557.686556 163.824295 
L 558.115237 162.893957 
L 558.543918 177.406234 
L 558.972599 167.23505 
L 559.40128 134.707169 
L 559.829962 140.073047 
L 560.258643 159.671233 
L 560.687324 103.873027 
L 561.116005 119.882832 
L 561.544686 159.056992 
L 561.973367 146.765822 
L 562.402049 202.538675 
L 562.83073 126.375152 
L 563.259411 132.879627 
L 563.688092 151.283532 
L 564.545455 139.628306 
L 564.974136 122.347103 
L 565.402817 157.631109 
L 565.831498 120.527727 
L 566.260179 125.704016 
L 566.68886 151.57612 
L 567.117542 143.732452 
L 567.546223 105.11785 
L 567.974904 140.798321 
L 568.403585 162.747996 
L 568.832266 164.039151 
L 569.260948 138.603565 
L 569.689629 132.908931 
L 570.11831 132.605857 
L 570.546991 141.805977 
L 570.975672 172.570411 
L 571.833035 120.384128 
L 572.261716 178.890657 
L 572.690397 126.193531 
L 573.119078 163.902718 
L 573.547759 141.509622 
L 573.97644 163.04021 
L 574.405122 123.257695 
L 574.833803 148.977847 
L 575.262484 131.029671 
L 575.691165 153.374767 
L 576.548528 166.938563 
L 576.977209 161.02016 
L 577.40589 147.079602 
L 577.834571 116.265662 
L 578.263252 131.489328 
L 578.691933 153.805549 
L 579.120615 138.598124 
L 579.549296 161.557419 
L 579.977977 155.278443 
L 580.406658 142.052815 
L 580.835339 97.297497 
L 581.26402 142.219986 
L 581.692702 145.315074 
L 582.121383 189.357366 
L 582.550064 127.57101 
L 582.978745 127.111974 
L 583.407426 179.666972 
L 583.836108 151.391028 
L 584.264789 167.328231 
L 584.69347 151.056387 
L 585.122151 163.171321 
L 585.550832 136.677364 
L 585.979513 152.21011 
L 586.408195 155.606906 
L 586.836876 151.202622 
L 587.265557 191.949509 
L 587.694238 181.442585 
L 588.122919 136.788526 
L 588.551601 159.053698 
L 588.980282 156.268005 
L 589.408963 190.019702 
L 589.837644 126.760128 
L 590.266325 176.716991 
L 590.695006 159.400691 
L 591.123688 174.03884 
L 591.552369 153.888953 
L 591.98105 188.086146 
L 592.409731 155.173054 
L 592.838412 156.022252 
L 593.267093 189.509244 
L 593.695775 206.323094 
L 594.124456 170.469895 
L 594.553137 221.157233 
L 594.981818 166.957921 
L 595.839181 168.33071 
L 596.267862 189.887479 
L 596.696543 152.107677 
L 597.125224 188.801317 
L 597.553905 204.81751 
L 597.982586 195.524448 
L 598.411268 212.448059 
L 598.839949 213.886901 
L 599.26863 188.368463 
L 599.697311 192.367219 
L 600.125992 204.050557 
L 600.554673 199.426303 
L 600.983355 199.4103 
L 601.412036 203.23944 
L 601.840717 166.98042 
L 602.269398 210.583183 
L 602.698079 188.568434 
L 603.126761 208.150295 
L 603.555442 222.169929 
L 603.984123 220.984842 
L 604.412804 202.254701 
L 604.841485 216.349114 
L 605.270166 204.168259 
L 605.698848 201.820746 
L 606.127529 195.632373 
L 606.55621 228.206399 
L 606.984891 186.091289 
L 607.413572 245.946495 
L 607.842254 246.922985 
L 608.270935 192.650199 
L 608.699616 191.520622 
L 609.128297 235.437612 
L 609.556978 206.3809 
L 609.985659 239.979953 
L 610.414341 188.001184 
L 610.843022 216.181776 
L 611.700384 224.655572 
L 612.129065 241.456721 
L 612.557746 204.339631 
L 612.986428 220.035027 
L 613.415109 211.589634 
L 613.84379 235.508494 
L 614.272471 228.986482 
L 614.701152 217.328971 
L 615.129834 253.475696 
L 615.558515 239.332201 
L 615.987196 233.749445 
L 616.415877 212.51492 
L 616.844558 239.981052 
L 617.273239 242.668372 
L 617.701921 215.670452 
L 618.130602 236.94223 
L 618.559283 205.071478 
L 618.987964 253.773769 
L 619.416645 230.076474 
L 619.845327 237.65508 
L 620.274008 232.443643 
L 620.702689 209.99185 
L 621.13137 210.050515 
L 621.988732 256.020455 
L 622.417414 235.824193 
L 622.846095 197.632011 
L 623.274776 221.658084 
L 623.703457 236.783515 
L 624.989501 186.291227 
L 625.846863 236.299859 
L 626.275544 176.901117 
L 626.704225 215.678795 
L 627.132907 191.033209 
L 627.561588 192.492806 
L 627.990269 251.885101 
L 628.41895 184.92152 
L 628.847631 215.652418 
L 629.276312 227.944327 
L 629.704994 210.67612 
L 630.133675 209.68485 
L 630.562356 209.785316 
L 630.991037 211.980416 
L 631.419718 181.311661 
L 631.848399 188.799814 
L 632.277081 200.292627 
L 632.705762 215.791885 
L 633.134443 181.854996 
L 633.563124 190.74419 
L 633.991805 209.569566 
L 634.420487 209.742666 
L 634.849168 204.128503 
L 635.277849 201.342042 
L 636.135211 180.139522 
L 636.563892 190.867725 
L 636.992574 223.882575 
L 637.421255 185.894859 
L 637.849936 171.110886 
L 638.278617 213.276571 
L 638.707298 222.418791 
L 639.13598 172.806457 
L 639.564661 192.656615 
L 639.993342 175.094916 
L 640.422023 187.250512 
L 640.850704 150.237392 
L 641.708067 166.954283 
L 642.565429 158.649977 
L 642.99411 154.022979 
L 643.422791 189.683822 
L 643.851472 142.888259 
L 644.280154 195.603263 
L 644.708835 207.330445 
L 645.137516 170.530656 
L 645.566197 154.330597 
L 645.994878 157.038572 
L 646.42356 152.219743 
L 646.852241 159.403155 
L 647.280922 170.662361 
L 647.709603 155.772873 
L 648.138284 124.400261 
L 648.566965 160.440633 
L 648.995647 145.119292 
L 649.424328 143.746363 
L 649.853009 129.159997 
L 650.28169 169.468505 
L 651.139052 141.815724 
L 651.567734 153.211993 
L 651.996415 140.994451 
L 652.425096 147.481287 
L 653.282458 169.465807 
L 653.71114 124.189392 
L 654.139821 135.745345 
L 654.568502 122.73115 
L 654.997183 176.68252 
L 655.425864 114.78505 
L 656.283227 139.709219 
L 656.711908 120.671189 
L 657.140589 124.166491 
L 657.56927 116.705309 
L 657.997951 117.434877 
L 658.426633 122.903434 
L 658.855314 122.25566 
L 659.283995 134.712083 
L 659.712676 114.58363 
L 660.141357 131.436823 
L 660.570038 97.250698 
L 660.99872 118.033546 
L 661.427401 93.062066 
L 661.856082 124.500449 
L 662.284763 121.025415 
L 662.713444 101.39162 
L 663.142125 95.383745 
L 663.570807 135.473254 
L 663.999488 99.235538 
L 664.428169 93.905613 
L 664.85685 120.963768 
L 665.285531 99.73648 
L 665.714213 123.559125 
L 666.142894 120.846258 
L 666.571575 113.978074 
L 667.000256 122.875032 
L 667.428937 83.322652 
L 667.857618 110.263374 
L 668.2863 116.750512 
L 668.714981 138.256563 
L 669.143662 107.280954 
L 669.572343 122.204178 
L 670.001024 115.44925 
L 670.429706 114.207442 
L 670.858387 137.859741 
L 671.287068 99.238351 
L 671.715749 103.73284 
L 672.14443 100.096615 
L 673.001793 141.032301 
L 673.430474 72.495009 
L 673.859155 82.201765 
L 674.287836 115.969177 
L 674.716517 133.863967 
L 675.145198 111.424333 
L 675.57388 109.109595 
L 676.002561 145.953805 
L 676.431242 114.002701 
L 676.859923 107.756441 
L 677.288604 79.148873 
L 677.717286 129.888581 
L 678.145967 66.96 
L 679.003329 112.412078 
L 679.43201 118.530627 
L 680.289373 90.028793 
L 680.718054 87.660383 
L 681.575416 128.942128 
L 682.004097 95.69419 
L 682.432778 97.421108 
L 682.86146 127.683166 
L 683.290141 136.814178 
L 683.718822 120.920604 
L 684.147503 113.08424 
L 684.576184 124.401115 
L 685.004866 139.934856 
L 685.433547 137.303854 
L 685.862228 108.191472 
L 686.290909 111.571942 
L 686.71959 118.803964 
L 687.148271 137.673856 
L 687.576953 129.695942 
L 688.005634 148.132739 
L 688.434315 112.747619 
L 688.862996 162.189978 
L 689.291677 135.438454 
L 689.720359 136.452386 
L 690.14904 144.715627 
L 690.577721 89.957738 
L 691.006402 95.576286 
L 691.435083 145.851529 
L 691.863764 129.707166 
L 692.292446 132.943626 
L 692.721127 131.987572 
L 693.149808 132.388512 
L 693.578489 154.493291 
L 694.00717 182.586815 
L 694.435851 152.857086 
L 694.864533 133.922482 
L 695.293214 157.655918 
L 695.721895 142.55823 
L 696.150576 163.740123 
L 696.579257 146.883837 
L 697.007939 143.435876 
L 697.43662 151.964237 
L 697.865301 173.165364 
L 698.293982 134.638107 
L 699.151344 181.154507 
L 699.580026 171.60999 
L 700.008707 158.754652 
L 700.866069 195.827619 
L 701.723431 167.088802 
L 702.152113 164.980256 
L 702.580794 140.86859 
L 703.009475 180.830044 
L 703.438156 185.779073 
L 703.866837 183.325114 
L 704.295519 154.270245 
L 704.7242 188.613348 
L 705.152881 176.383167 
L 705.581562 137.499867 
L 706.010243 199.041294 
L 706.867606 186.107622 
L 707.296287 207.803972 
L 707.724968 176.186941 
L 708.153649 218.05474 
L 708.58233 188.587363 
L 709.011012 198.094466 
L 709.439693 196.049915 
L 709.868374 163.61334 
L 710.297055 172.123509 
L 710.725736 153.610542 
L 712.01178 198.790689 
L 712.440461 183.959965 
L 712.869142 183.429422 
L 713.297823 194.315234 
L 713.726504 216.394372 
L 714.155186 176.989649 
L 714.583867 205.336366 
L 715.012548 213.727809 
L 715.441229 190.678428 
L 715.86991 199.177995 
L 716.298592 174.910544 
L 716.727273 199.904468 
L 717.155954 172.456036 
L 717.584635 187.592822 
L 718.013316 189.396261 
L 718.441997 197.243888 
L 718.870679 171.829195 
L 719.29936 201.612697 
L 719.728041 205.383088 
L 720.156722 189.722997 
L 720.585403 189.86365 
L 721.014085 157.466719 
L 721.442766 194.392293 
L 721.871447 178.788553 
L 722.300128 193.89629 
L 722.728809 165.297998 
L 723.15749 182.495719 
L 723.586172 180.759624 
L 724.014853 187.005535 
L 724.443534 208.28842 
L 724.872215 202.431273 
L 725.300896 181.03318 
L 725.729577 209.25861 
L 726.158259 168.040417 
L 726.58694 212.936191 
L 727.015621 210.466322 
L 727.444302 209.174127 
L 728.301665 167.653446 
L 728.730346 214.80357 
L 729.159027 193.286581 
L 729.587708 183.932754 
L 730.016389 213.032116 
L 730.44507 188.352672 
L 730.873752 186.440766 
L 731.302433 163.334019 
L 731.731114 169.137568 
L 732.159795 203.809239 
L 732.588476 199.817916 
L 733.017157 191.806964 
L 733.445839 215.388961 
L 733.87452 197.373453 
L 734.303201 160.80929 
L 734.731882 181.545798 
L 735.160563 159.543103 
L 735.589245 157.644719 
L 736.017926 184.501958 
L 736.446607 177.973586 
L 736.875288 134.208786 
L 737.303969 173.550989 
L 737.73265 162.107811 
L 738.161332 144.18963 
L 738.590013 165.753254 
L 739.018694 159.590901 
L 739.447375 183.276756 
L 739.876056 123.547707 
L 740.304738 172.181662 
L 740.733419 178.156246 
L 741.1621 165.828183 
L 741.590781 122.614084 
L 742.019462 184.765308 
L 742.448143 155.18736 
L 742.876825 172.213889 
L 743.305506 167.131464 
L 743.734187 146.673267 
L 744.162868 137.154622 
L 744.591549 114.22788 
L 745.02023 149.951082 
L 745.448912 133.530505 
L 745.877593 189.74739 
L 746.306274 135.896035 
L 746.734955 107.349162 
L 747.163636 126.424314 
L 747.163636 126.424314 
" style="fill:none;stroke:#1f77b4;stroke-linecap:square;stroke-width:1.5;"/>
   </g>
   <g id="line2d_14">
    <path clip-path="url(#p0563dd0d7b)" d="M 747.163636 384.48 
L 747.163636 51.84 
" style="fill:none;stroke:#808080;stroke-linecap:square;"/>
   </g>
   <g id="patch_89">
    <path d="M 108 384.48 
L 108 51.84 
" style="fill:none;stroke:#000000;stroke-linecap:square;stroke-linejoin:miter;stroke-width:0.8;"/>
   </g>
   <g id="patch_90">
    <path d="M 777.6 384.48 
L 777.6 51.84 
" style="fill:none;stroke:#000000;stroke-linecap:square;stroke-linejoin:miter;stroke-width:0.8;"/>
   </g>
   <g id="patch_91">
    <path d="M 108 384.48 
L 777.6 384.48 
" style="fill:none;stroke:#000000;stroke-linecap:square;stroke-linejoin:miter;stroke-width:0.8;"/>
   </g>
   <g id="patch_92">
    <path d="M 108 51.84 
L 777.6 51.84 
" style="fill:none;stroke:#000000;stroke-linecap:square;stroke-linejoin:miter;stroke-width:0.8;"/>
   </g>
   <g id="text_15">
    <!-- synthetic_50.csv -->
    <g transform="translate(392.638125 45.84)scale(0.12 -0.12)">
     <defs>
      <path d="M 32.171875 -5.078125 
Q 28.375 -14.84375 24.75 -17.8125 
Q 21.140625 -20.796875 15.09375 -20.796875 
L 7.90625 -20.796875 
L 7.90625 -13.28125 
L 13.1875 -13.28125 
Q 16.890625 -13.28125 18.9375 -11.515625 
Q 21 -9.765625 23.484375 -3.21875 
L 25.09375 0.875 
L 2.984375 54.6875 
L 12.5 54.6875 
L 29.59375 11.921875 
L 46.6875 54.6875 
L 56.203125 54.6875 
z
" id="DejaVuSans-121"/>
      <path d="M 54.890625 33.015625 
L 54.890625 0 
L 45.90625 0 
L 45.90625 32.71875 
Q 45.90625 40.484375 42.875 44.328125 
Q 39.84375 48.1875 33.796875 48.1875 
Q 26.515625 48.1875 22.3125 43.546875 
Q 18.109375 38.921875 18.109375 30.90625 
L 18.109375 0 
L 9.078125 0 
L 9.078125 54.6875 
L 18.109375 54.6875 
L 18.109375 46.1875 
Q 21.34375 51.125 25.703125 53.5625 
Q 30.078125 56 35.796875 56 
Q 45.21875 56 50.046875 50.171875 
Q 54.890625 44.34375 54.890625 33.015625 
z
" id="DejaVuSans-110"/>
      <path d="M 54.890625 33.015625 
L 54.890625 0 
L 45.90625 0 
L 45.90625 32.71875 
Q 45.90625 40.484375 42.875 44.328125 
Q 39.84375 48.1875 33.796875 48.1875 
Q 26.515625 48.1875 22.3125 43.546875 
Q 18.109375 38.921875 18.109375 30.90625 
L 18.109375 0 
L 9.078125 0 
L 9.078125 75.984375 
L 18.109375 75.984375 
L 18.109375 46.1875 
Q 21.34375 51.125 25.703125 53.5625 
Q 30.078125 56 35.796875 56 
Q 45.21875 56 50.046875 50.171875 
Q 54.890625 44.34375 54.890625 33.015625 
z
" id="DejaVuSans-104"/>
      <path d="M 48.78125 52.59375 
L 48.78125 44.1875 
Q 44.96875 46.296875 41.140625 47.34375 
Q 37.3125 48.390625 33.40625 48.390625 
Q 24.65625 48.390625 19.8125 42.84375 
Q 14.984375 37.3125 14.984375 27.296875 
Q 14.984375 17.28125 19.8125 11.734375 
Q 24.65625 6.203125 33.40625 6.203125 
Q 37.3125 6.203125 41.140625 7.25 
Q 44.96875 8.296875 48.78125 10.40625 
L 48.78125 2.09375 
Q 45.015625 0.34375 40.984375 -0.53125 
Q 36.96875 -1.421875 32.421875 -1.421875 
Q 20.0625 -1.421875 12.78125 6.34375 
Q 5.515625 14.109375 5.515625 27.296875 
Q 5.515625 40.671875 12.859375 48.328125 
Q 20.21875 56 33.015625 56 
Q 37.15625 56 41.109375 55.140625 
Q 45.0625 54.296875 48.78125 52.59375 
z
" id="DejaVuSans-99"/>
      <path d="M 50.984375 -16.609375 
L 50.984375 -23.578125 
L -0.984375 -23.578125 
L -0.984375 -16.609375 
z
" id="DejaVuSans-95"/>
      <path d="M 10.796875 72.90625 
L 49.515625 72.90625 
L 49.515625 64.59375 
L 19.828125 64.59375 
L 19.828125 46.734375 
Q 21.96875 47.46875 24.109375 47.828125 
Q 26.265625 48.1875 28.421875 48.1875 
Q 40.625 48.1875 47.75 41.5 
Q 54.890625 34.8125 54.890625 23.390625 
Q 54.890625 11.625 47.5625 5.09375 
Q 40.234375 -1.421875 26.90625 -1.421875 
Q 22.3125 -1.421875 17.546875 -0.640625 
Q 12.796875 0.140625 7.71875 1.703125 
L 7.71875 11.625 
Q 12.109375 9.234375 16.796875 8.0625 
Q 21.484375 6.890625 26.703125 6.890625 
Q 35.15625 6.890625 40.078125 11.328125 
Q 45.015625 15.765625 45.015625 23.390625 
Q 45.015625 31 40.078125 35.4375 
Q 35.15625 39.890625 26.703125 39.890625 
Q 22.75 39.890625 18.8125 39.015625 
Q 14.890625 38.140625 10.796875 36.28125 
z
" id="DejaVuSans-53"/>
      <path d="M 10.6875 12.40625 
L 21 12.40625 
L 21 0 
L 10.6875 0 
z
" id="DejaVuSans-46"/>
      <path d="M 2.984375 54.6875 
L 12.5 54.6875 
L 29.59375 8.796875 
L 46.6875 54.6875 
L 56.203125 54.6875 
L 35.6875 0 
L 23.484375 0 
z
" id="DejaVuSans-118"/>
     </defs>
     <use xlink:href="#DejaVuSans-115"/>
     <use x="52.099609" xlink:href="#DejaVuSans-121"/>
     <use x="111.279297" xlink:href="#DejaVuSans-110"/>
     <use x="174.658203" xlink:href="#DejaVuSans-116"/>
     <use x="213.867188" xlink:href="#DejaVuSans-104"/>
     <use x="277.246094" xlink:href="#DejaVuSans-101"/>
     <use x="338.769531" xlink:href="#DejaVuSans-116"/>
     <use x="377.978516" xlink:href="#DejaVuSans-105"/>
     <use x="405.761719" xlink:href="#DejaVuSans-99"/>
     <use x="460.742188" xlink:href="#DejaVuSans-95"/>
     <use x="510.742188" xlink:href="#DejaVuSans-53"/>
     <use x="574.365234" xlink:href="#DejaVuSans-48"/>
     <use x="637.988281" xlink:href="#DejaVuSans-46"/>
     <use x="669.775391" xlink:href="#DejaVuSans-99"/>
     <use x="724.755859" xlink:href="#DejaVuSans-115"/>
     <use x="776.855469" xlink:href="#DejaVuSans-118"/>
    </g>
   </g>
   <g id="legend_1">
    <g id="patch_93">
     <path d="M 711.284375 74.518125 
L 770.6 74.518125 
Q 772.6 74.518125 772.6 72.518125 
L 772.6 58.84 
Q 772.6 56.84 770.6 56.84 
L 711.284375 56.84 
Q 709.284375 56.84 709.284375 58.84 
L 709.284375 72.518125 
Q 709.284375 74.518125 711.284375 74.518125 
z
" style="fill:#ffffff;opacity:0.8;stroke:#cccccc;stroke-linejoin:miter;"/>
    </g>
    <g id="line2d_15">
     <path d="M 713.284375 64.938438 
L 733.284375 64.938438 
" style="fill:none;stroke:#1f77b4;stroke-linecap:square;stroke-width:1.5;"/>
    </g>
    <g id="line2d_16"/>
    <g id="text_16">
     <!-- value -->
     <g transform="translate(741.284375 68.438438)scale(0.1 -0.1)">
      <use xlink:href="#DejaVuSans-118"/>
      <use x="59.179688" xlink:href="#DejaVuSans-97"/>
      <use x="120.458984" xlink:href="#DejaVuSans-108"/>
      <use x="148.242188" xlink:href="#DejaVuSans-117"/>
      <use x="211.621094" xlink:href="#DejaVuSans-101"/>
     </g>
    </g>
   </g>
  </g>
 </g>
 <defs>
  <clipPath id="p0563dd0d7b">
   <rect height="332.64" width="669.6" x="108" y="51.84"/>
  </clipPath>
 </defs>
</svg>
