<?xml version="1.0" encoding="utf-8" standalone="no"?>
<!DOCTYPE svg PUBLIC "-//W3C//DTD SVG 1.1//EN"
  "http://www.w3.org/Graphics/SVG/1.1/DTD/svg11.dtd">
<!-- Created with matplotlib (https://matplotlib.org/) -->
<svg height="432pt" version="1.1" viewBox="0 0 864 432" width="864pt" xmlns="http://www.w3.org/2000/svg" xmlns:xlink="http://www.w3.org/1999/xlink">
 <defs>
  <style type="text/css">
*{stroke-linecap:butt;stroke-linejoin:round;}
  </style>
 </defs>
 <g id="figure_1">
  <g id="patch_1">
   <path d="M 0 432 
L 864 432 
L 864 0 
L 0 0 
z
" style="fill:#ffffff;"/>
  </g>
  <g id="axes_1">
   <g id="patch_2">
    <path d="M 108 384.48 
L 777.6 384.48 
L 777.6 51.84 
L 108 51.84 
z
" style="fill:#ffffff;"/>
   </g>
   <g id="patch_3">
    <path clip-path="url(#pc36e30b1c4)" d="M 138.436364 384.48 
L 138.436364 51.84 
L 377.579221 51.84 
L 377.579221 384.48 
z
" style="fill:#0000ff;opacity:0.05;"/>
   </g>
   <g id="patch_4">
    <path clip-path="url(#pc36e30b1c4)" d="M 377.579221 384.48 
L 377.579221 51.84 
L 747.163636 51.84 
L 747.163636 384.48 
z
" style="fill:#ff0000;opacity:0.08;"/>
   </g>
   <g id="patch_5">
    <path clip-path="url(#pc36e30b1c4)" d="M 138.436364 384.48 
L 138.436364 51.84 
L 149.306494 51.84 
L 149.306494 384.48 
z
" style="fill:#008000;opacity:0.04;"/>
   </g>
   <g id="patch_6">
    <path clip-path="url(#pc36e30b1c4)" d="M 138.436364 384.48 
L 138.436364 371.1744 
L 149.306494 371.1744 
L 149.306494 384.48 
z
" style="fill:#ffe500;"/>
   </g>
   <g id="patch_7">
    <path clip-path="url(#pc36e30b1c4)" d="M 160.176623 384.48 
L 160.176623 51.84 
L 171.046753 51.84 
L 171.046753 384.48 
z
" style="fill:#008000;opacity:0.04;"/>
   </g>
   <g id="patch_8">
    <path clip-path="url(#pc36e30b1c4)" d="M 181.916883 384.48 
L 181.916883 51.84 
L 192.787013 51.84 
L 192.787013 384.48 
z
" style="fill:#008000;opacity:0.04;"/>
   </g>
   <g id="patch_9">
    <path clip-path="url(#pc36e30b1c4)" d="M 192.787013 371.1744 
L 192.787013 357.8688 
L 203.657143 357.8688 
L 203.657143 371.1744 
z
" style="fill:#ff00ff;"/>
   </g>
   <g id="patch_10">
    <path clip-path="url(#pc36e30b1c4)" d="M 203.657143 384.48 
L 203.657143 51.84 
L 214.527273 51.84 
L 214.527273 384.48 
z
" style="fill:#008000;opacity:0.04;"/>
   </g>
   <g id="patch_11">
    <path clip-path="url(#pc36e30b1c4)" d="M 214.527273 371.1744 
L 214.527273 51.84 
L 225.397403 51.84 
L 225.397403 371.1744 
z
" style="fill:#008000;opacity:0.5;"/>
   </g>
   <g id="patch_12">
    <path clip-path="url(#pc36e30b1c4)" d="M 214.527273 384.48 
L 214.527273 371.1744 
L 225.397403 371.1744 
L 225.397403 384.48 
z
" style="fill:#ffe500;"/>
   </g>
   <g id="patch_13">
    <path clip-path="url(#pc36e30b1c4)" d="M 225.397403 384.48 
L 225.397403 51.84 
L 236.267532 51.84 
L 236.267532 384.48 
z
" style="fill:#008000;opacity:0.04;"/>
   </g>
   <g id="patch_14">
    <path clip-path="url(#pc36e30b1c4)" d="M 247.137662 384.48 
L 247.137662 51.84 
L 258.007792 51.84 
L 258.007792 384.48 
z
" style="fill:#008000;opacity:0.04;"/>
   </g>
   <g id="patch_15">
    <path clip-path="url(#pc36e30b1c4)" d="M 258.007792 371.1744 
L 258.007792 357.8688 
L 268.877922 357.8688 
L 268.877922 371.1744 
z
" style="fill:#ff00ff;"/>
   </g>
   <g id="patch_16">
    <path clip-path="url(#pc36e30b1c4)" d="M 268.877922 384.48 
L 268.877922 51.84 
L 279.748052 51.84 
L 279.748052 384.48 
z
" style="fill:#008000;opacity:0.04;"/>
   </g>
   <g id="patch_17">
    <path clip-path="url(#pc36e30b1c4)" d="M 290.618182 384.48 
L 290.618182 51.84 
L 301.488312 51.84 
L 301.488312 384.48 
z
" style="fill:#008000;opacity:0.04;"/>
   </g>
   <g id="patch_18">
    <path clip-path="url(#pc36e30b1c4)" d="M 312.358442 384.48 
L 312.358442 51.84 
L 323.228571 51.84 
L 323.228571 384.48 
z
" style="fill:#008000;opacity:0.04;"/>
   </g>
   <g id="patch_19">
    <path clip-path="url(#pc36e30b1c4)" d="M 562.371429 384.48 
L 562.371429 371.1744 
L 573.241558 371.1744 
L 573.241558 384.48 
z
" style="fill:#ff6600;"/>
   </g>
   <g id="patch_20">
    <path clip-path="url(#pc36e30b1c4)" d="M 334.098701 384.48 
L 334.098701 51.84 
L 344.968831 51.84 
L 344.968831 384.48 
z
" style="fill:#008000;opacity:0.04;"/>
   </g>
   <g id="patch_21">
    <path clip-path="url(#pc36e30b1c4)" d="M 573.241558 384.48 
L 573.241558 371.1744 
L 584.111688 371.1744 
L 584.111688 384.48 
z
" style="fill:#ff6600;"/>
   </g>
   <g id="patch_22">
    <path clip-path="url(#pc36e30b1c4)" d="M 584.111688 384.48 
L 584.111688 371.1744 
L 594.981818 371.1744 
L 594.981818 384.48 
z
" style="fill:#ff6600;"/>
   </g>
   <g id="patch_23">
    <path clip-path="url(#pc36e30b1c4)" d="M 355.838961 384.48 
L 355.838961 51.84 
L 366.709091 51.84 
L 366.709091 384.48 
z
" style="fill:#008000;opacity:0.04;"/>
   </g>
   <g id="patch_24">
    <path clip-path="url(#pc36e30b1c4)" d="M 377.579221 384.48 
L 377.579221 51.84 
L 388.449351 51.84 
L 388.449351 384.48 
z
" style="fill:#008000;opacity:0.04;"/>
   </g>
   <g id="patch_25">
    <path clip-path="url(#pc36e30b1c4)" d="M 377.579221 371.1744 
L 377.579221 357.8688 
L 388.449351 357.8688 
L 388.449351 371.1744 
z
" style="fill:#ff00ff;"/>
   </g>
   <g id="patch_26">
    <path clip-path="url(#pc36e30b1c4)" d="M 399.319481 384.48 
L 399.319481 51.84 
L 410.18961 51.84 
L 410.18961 384.48 
z
" style="fill:#008000;opacity:0.04;"/>
   </g>
   <g id="patch_27">
    <path clip-path="url(#pc36e30b1c4)" d="M 421.05974 384.48 
L 421.05974 51.84 
L 431.92987 51.84 
L 431.92987 384.48 
z
" style="fill:#008000;opacity:0.04;"/>
   </g>
   <g id="patch_28">
    <path clip-path="url(#pc36e30b1c4)" d="M 442.8 384.48 
L 442.8 51.84 
L 453.67013 51.84 
L 453.67013 384.48 
z
" style="fill:#008000;opacity:0.04;"/>
   </g>
   <g id="patch_29">
    <path clip-path="url(#pc36e30b1c4)" d="M 464.54026 384.48 
L 464.54026 51.84 
L 475.41039 51.84 
L 475.41039 384.48 
z
" style="fill:#008000;opacity:0.04;"/>
   </g>
   <g id="patch_30">
    <path clip-path="url(#pc36e30b1c4)" d="M 703.683117 384.48 
L 703.683117 371.1744 
L 714.553247 371.1744 
L 714.553247 384.48 
z
" style="fill:#ff6600;"/>
   </g>
   <g id="patch_31">
    <path clip-path="url(#pc36e30b1c4)" d="M 486.280519 384.48 
L 486.280519 51.84 
L 497.150649 51.84 
L 497.150649 384.48 
z
" style="fill:#008000;opacity:0.04;"/>
   </g>
   <g id="patch_32">
    <path clip-path="url(#pc36e30b1c4)" d="M 508.020779 384.48 
L 508.020779 51.84 
L 518.890909 51.84 
L 518.890909 384.48 
z
" style="fill:#008000;opacity:0.04;"/>
   </g>
   <g id="patch_33">
    <path clip-path="url(#pc36e30b1c4)" d="M 529.761039 384.48 
L 529.761039 51.84 
L 540.631169 51.84 
L 540.631169 384.48 
z
" style="fill:#008000;opacity:0.04;"/>
   </g>
   <g id="patch_34">
    <path clip-path="url(#pc36e30b1c4)" d="M 551.501299 384.48 
L 551.501299 51.84 
L 562.371429 51.84 
L 562.371429 384.48 
z
" style="fill:#008000;opacity:0.04;"/>
   </g>
   <g id="patch_35">
    <path clip-path="url(#pc36e30b1c4)" d="M 562.371429 371.1744 
L 562.371429 357.8688 
L 573.241558 357.8688 
L 573.241558 371.1744 
z
" style="fill:#ff00ff;"/>
   </g>
   <g id="patch_36">
    <path clip-path="url(#pc36e30b1c4)" d="M 573.241558 384.48 
L 573.241558 51.84 
L 584.111688 51.84 
L 584.111688 384.48 
z
" style="fill:#008000;opacity:0.04;"/>
   </g>
   <g id="patch_37">
    <path clip-path="url(#pc36e30b1c4)" d="M 594.981818 384.48 
L 594.981818 51.84 
L 605.851948 51.84 
L 605.851948 384.48 
z
" style="fill:#008000;opacity:0.04;"/>
   </g>
   <g id="patch_38">
    <path clip-path="url(#pc36e30b1c4)" d="M 616.722078 384.48 
L 616.722078 51.84 
L 627.592208 51.84 
L 627.592208 384.48 
z
" style="fill:#008000;opacity:0.04;"/>
   </g>
   <g id="patch_39">
    <path clip-path="url(#pc36e30b1c4)" d="M 638.462338 384.48 
L 638.462338 51.84 
L 649.332468 51.84 
L 649.332468 384.48 
z
" style="fill:#008000;opacity:0.04;"/>
   </g>
   <g id="patch_40">
    <path clip-path="url(#pc36e30b1c4)" d="M 660.202597 384.48 
L 660.202597 51.84 
L 671.072727 51.84 
L 671.072727 384.48 
z
" style="fill:#008000;opacity:0.04;"/>
   </g>
   <g id="patch_41">
    <path clip-path="url(#pc36e30b1c4)" d="M 681.942857 384.48 
L 681.942857 51.84 
L 692.812987 51.84 
L 692.812987 384.48 
z
" style="fill:#008000;opacity:0.04;"/>
   </g>
   <g id="patch_42">
    <path clip-path="url(#pc36e30b1c4)" d="M 703.683117 384.48 
L 703.683117 51.84 
L 714.553247 51.84 
L 714.553247 384.48 
z
" style="fill:#008000;opacity:0.04;"/>
   </g>
   <g id="patch_43">
    <path clip-path="url(#pc36e30b1c4)" d="M 703.683117 371.1744 
L 703.683117 51.84 
L 714.553247 51.84 
L 714.553247 371.1744 
z
" style="fill:#008000;opacity:0.5;"/>
   </g>
   <g id="patch_44">
    <path clip-path="url(#pc36e30b1c4)" d="M 725.423377 384.48 
L 725.423377 51.84 
L 736.293506 51.84 
L 736.293506 384.48 
z
" style="fill:#008000;opacity:0.04;"/>
   </g>
   <g id="matplotlib.axis_1">
    <g id="xtick_1">
     <g id="line2d_1">
      <defs>
       <path d="M 0 0 
L 0 3.5 
" id="m29a842aaa0" style="stroke:#000000;stroke-width:0.8;"/>
      </defs>
      <g>
       <use style="stroke:#000000;stroke-width:0.8;" x="138.436364" xlink:href="#m29a842aaa0" y="384.48"/>
      </g>
     </g>
     <g id="text_1">
      <!-- 0 -->
      <defs>
       <path d="M 31.78125 66.40625 
Q 24.171875 66.40625 20.328125 58.90625 
Q 16.5 51.421875 16.5 36.375 
Q 16.5 21.390625 20.328125 13.890625 
Q 24.171875 6.390625 31.78125 6.390625 
Q 39.453125 6.390625 43.28125 13.890625 
Q 47.125 21.390625 47.125 36.375 
Q 47.125 51.421875 43.28125 58.90625 
Q 39.453125 66.40625 31.78125 66.40625 
z
M 31.78125 74.21875 
Q 44.046875 74.21875 50.515625 64.515625 
Q 56.984375 54.828125 56.984375 36.375 
Q 56.984375 17.96875 50.515625 8.265625 
Q 44.046875 -1.421875 31.78125 -1.421875 
Q 19.53125 -1.421875 13.0625 8.265625 
Q 6.59375 17.96875 6.59375 36.375 
Q 6.59375 54.828125 13.0625 64.515625 
Q 19.53125 74.21875 31.78125 74.21875 
z
" id="DejaVuSans-48"/>
      </defs>
      <g transform="translate(135.255114 399.078438)scale(0.1 -0.1)">
       <use xlink:href="#DejaVuSans-48"/>
      </g>
     </g>
    </g>
    <g id="xtick_2">
     <g id="line2d_2">
      <g>
       <use style="stroke:#000000;stroke-width:0.8;" x="229.020779" xlink:href="#m29a842aaa0" y="384.48"/>
      </g>
     </g>
     <g id="text_2">
      <!-- 250 -->
      <defs>
       <path d="M 19.1875 8.296875 
L 53.609375 8.296875 
L 53.609375 0 
L 7.328125 0 
L 7.328125 8.296875 
Q 12.9375 14.109375 22.625 23.890625 
Q 32.328125 33.6875 34.8125 36.53125 
Q 39.546875 41.84375 41.421875 45.53125 
Q 43.3125 49.21875 43.3125 52.78125 
Q 43.3125 58.59375 39.234375 62.25 
Q 35.15625 65.921875 28.609375 65.921875 
Q 23.96875 65.921875 18.8125 64.3125 
Q 13.671875 62.703125 7.8125 59.421875 
L 7.8125 69.390625 
Q 13.765625 71.78125 18.9375 73 
Q 24.125 74.21875 28.421875 74.21875 
Q 39.75 74.21875 46.484375 68.546875 
Q 53.21875 62.890625 53.21875 53.421875 
Q 53.21875 48.921875 51.53125 44.890625 
Q 49.859375 40.875 45.40625 35.40625 
Q 44.1875 33.984375 37.640625 27.21875 
Q 31.109375 20.453125 19.1875 8.296875 
z
" id="DejaVuSans-50"/>
       <path d="M 10.796875 72.90625 
L 49.515625 72.90625 
L 49.515625 64.59375 
L 19.828125 64.59375 
L 19.828125 46.734375 
Q 21.96875 47.46875 24.109375 47.828125 
Q 26.265625 48.1875 28.421875 48.1875 
Q 40.625 48.1875 47.75 41.5 
Q 54.890625 34.8125 54.890625 23.390625 
Q 54.890625 11.625 47.5625 5.09375 
Q 40.234375 -1.421875 26.90625 -1.421875 
Q 22.3125 -1.421875 17.546875 -0.640625 
Q 12.796875 0.140625 7.71875 1.703125 
L 7.71875 11.625 
Q 12.109375 9.234375 16.796875 8.0625 
Q 21.484375 6.890625 26.703125 6.890625 
Q 35.15625 6.890625 40.078125 11.328125 
Q 45.015625 15.765625 45.015625 23.390625 
Q 45.015625 31 40.078125 35.4375 
Q 35.15625 39.890625 26.703125 39.890625 
Q 22.75 39.890625 18.8125 39.015625 
Q 14.890625 38.140625 10.796875 36.28125 
z
" id="DejaVuSans-53"/>
      </defs>
      <g transform="translate(219.477029 399.078438)scale(0.1 -0.1)">
       <use xlink:href="#DejaVuSans-50"/>
       <use x="63.623047" xlink:href="#DejaVuSans-53"/>
       <use x="127.246094" xlink:href="#DejaVuSans-48"/>
      </g>
     </g>
    </g>
    <g id="xtick_3">
     <g id="line2d_3">
      <g>
       <use style="stroke:#000000;stroke-width:0.8;" x="319.605195" xlink:href="#m29a842aaa0" y="384.48"/>
      </g>
     </g>
     <g id="text_3">
      <!-- 500 -->
      <g transform="translate(310.061445 399.078438)scale(0.1 -0.1)">
       <use xlink:href="#DejaVuSans-53"/>
       <use x="63.623047" xlink:href="#DejaVuSans-48"/>
       <use x="127.246094" xlink:href="#DejaVuSans-48"/>
      </g>
     </g>
    </g>
    <g id="xtick_4">
     <g id="line2d_4">
      <g>
       <use style="stroke:#000000;stroke-width:0.8;" x="410.18961" xlink:href="#m29a842aaa0" y="384.48"/>
      </g>
     </g>
     <g id="text_4">
      <!-- 750 -->
      <defs>
       <path d="M 8.203125 72.90625 
L 55.078125 72.90625 
L 55.078125 68.703125 
L 28.609375 0 
L 18.3125 0 
L 43.21875 64.59375 
L 8.203125 64.59375 
z
" id="DejaVuSans-55"/>
      </defs>
      <g transform="translate(400.64586 399.078438)scale(0.1 -0.1)">
       <use xlink:href="#DejaVuSans-55"/>
       <use x="63.623047" xlink:href="#DejaVuSans-53"/>
       <use x="127.246094" xlink:href="#DejaVuSans-48"/>
      </g>
     </g>
    </g>
    <g id="xtick_5">
     <g id="line2d_5">
      <g>
       <use style="stroke:#000000;stroke-width:0.8;" x="500.774026" xlink:href="#m29a842aaa0" y="384.48"/>
      </g>
     </g>
     <g id="text_5">
      <!-- 1000 -->
      <defs>
       <path d="M 12.40625 8.296875 
L 28.515625 8.296875 
L 28.515625 63.921875 
L 10.984375 60.40625 
L 10.984375 69.390625 
L 28.421875 72.90625 
L 38.28125 72.90625 
L 38.28125 8.296875 
L 54.390625 8.296875 
L 54.390625 0 
L 12.40625 0 
z
" id="DejaVuSans-49"/>
      </defs>
      <g transform="translate(488.049026 399.078438)scale(0.1 -0.1)">
       <use xlink:href="#DejaVuSans-49"/>
       <use x="63.623047" xlink:href="#DejaVuSans-48"/>
       <use x="127.246094" xlink:href="#DejaVuSans-48"/>
       <use x="190.869141" xlink:href="#DejaVuSans-48"/>
      </g>
     </g>
    </g>
    <g id="xtick_6">
     <g id="line2d_6">
      <g>
       <use style="stroke:#000000;stroke-width:0.8;" x="591.358442" xlink:href="#m29a842aaa0" y="384.48"/>
      </g>
     </g>
     <g id="text_6">
      <!-- 1250 -->
      <g transform="translate(578.633442 399.078438)scale(0.1 -0.1)">
       <use xlink:href="#DejaVuSans-49"/>
       <use x="63.623047" xlink:href="#DejaVuSans-50"/>
       <use x="127.246094" xlink:href="#DejaVuSans-53"/>
       <use x="190.869141" xlink:href="#DejaVuSans-48"/>
      </g>
     </g>
    </g>
    <g id="xtick_7">
     <g id="line2d_7">
      <g>
       <use style="stroke:#000000;stroke-width:0.8;" x="681.942857" xlink:href="#m29a842aaa0" y="384.48"/>
      </g>
     </g>
     <g id="text_7">
      <!-- 1500 -->
      <g transform="translate(669.217857 399.078438)scale(0.1 -0.1)">
       <use xlink:href="#DejaVuSans-49"/>
       <use x="63.623047" xlink:href="#DejaVuSans-53"/>
       <use x="127.246094" xlink:href="#DejaVuSans-48"/>
       <use x="190.869141" xlink:href="#DejaVuSans-48"/>
      </g>
     </g>
    </g>
    <g id="xtick_8">
     <g id="line2d_8">
      <g>
       <use style="stroke:#000000;stroke-width:0.8;" x="772.527273" xlink:href="#m29a842aaa0" y="384.48"/>
      </g>
     </g>
     <g id="text_8">
      <!-- 1750 -->
      <g transform="translate(759.802273 399.078438)scale(0.1 -0.1)">
       <use xlink:href="#DejaVuSans-49"/>
       <use x="63.623047" xlink:href="#DejaVuSans-55"/>
       <use x="127.246094" xlink:href="#DejaVuSans-53"/>
       <use x="190.869141" xlink:href="#DejaVuSans-48"/>
      </g>
     </g>
    </g>
    <g id="text_9">
     <!-- Timestamp -->
     <defs>
      <path d="M -0.296875 72.90625 
L 61.375 72.90625 
L 61.375 64.59375 
L 35.5 64.59375 
L 35.5 0 
L 25.59375 0 
L 25.59375 64.59375 
L -0.296875 64.59375 
z
" id="DejaVuSans-84"/>
      <path d="M 9.421875 54.6875 
L 18.40625 54.6875 
L 18.40625 0 
L 9.421875 0 
z
M 9.421875 75.984375 
L 18.40625 75.984375 
L 18.40625 64.59375 
L 9.421875 64.59375 
z
" id="DejaVuSans-105"/>
      <path d="M 52 44.1875 
Q 55.375 50.25 60.0625 53.125 
Q 64.75 56 71.09375 56 
Q 79.640625 56 84.28125 50.015625 
Q 88.921875 44.046875 88.921875 33.015625 
L 88.921875 0 
L 79.890625 0 
L 79.890625 32.71875 
Q 79.890625 40.578125 77.09375 44.375 
Q 74.3125 48.1875 68.609375 48.1875 
Q 61.625 48.1875 57.5625 43.546875 
Q 53.515625 38.921875 53.515625 30.90625 
L 53.515625 0 
L 44.484375 0 
L 44.484375 32.71875 
Q 44.484375 40.625 41.703125 44.40625 
Q 38.921875 48.1875 33.109375 48.1875 
Q 26.21875 48.1875 22.15625 43.53125 
Q 18.109375 38.875 18.109375 30.90625 
L 18.109375 0 
L 9.078125 0 
L 9.078125 54.6875 
L 18.109375 54.6875 
L 18.109375 46.1875 
Q 21.1875 51.21875 25.484375 53.609375 
Q 29.78125 56 35.6875 56 
Q 41.65625 56 45.828125 52.96875 
Q 50 49.953125 52 44.1875 
z
" id="DejaVuSans-109"/>
      <path d="M 56.203125 29.59375 
L 56.203125 25.203125 
L 14.890625 25.203125 
Q 15.484375 15.921875 20.484375 11.0625 
Q 25.484375 6.203125 34.421875 6.203125 
Q 39.59375 6.203125 44.453125 7.46875 
Q 49.3125 8.734375 54.109375 11.28125 
L 54.109375 2.78125 
Q 49.265625 0.734375 44.1875 -0.34375 
Q 39.109375 -1.421875 33.890625 -1.421875 
Q 20.796875 -1.421875 13.15625 6.1875 
Q 5.515625 13.8125 5.515625 26.8125 
Q 5.515625 40.234375 12.765625 48.109375 
Q 20.015625 56 32.328125 56 
Q 43.359375 56 49.78125 48.890625 
Q 56.203125 41.796875 56.203125 29.59375 
z
M 47.21875 32.234375 
Q 47.125 39.59375 43.09375 43.984375 
Q 39.0625 48.390625 32.421875 48.390625 
Q 24.90625 48.390625 20.390625 44.140625 
Q 15.875 39.890625 15.1875 32.171875 
z
" id="DejaVuSans-101"/>
      <path d="M 44.28125 53.078125 
L 44.28125 44.578125 
Q 40.484375 46.53125 36.375 47.5 
Q 32.28125 48.484375 27.875 48.484375 
Q 21.1875 48.484375 17.84375 46.4375 
Q 14.5 44.390625 14.5 40.28125 
Q 14.5 37.15625 16.890625 35.375 
Q 19.28125 33.59375 26.515625 31.984375 
L 29.59375 31.296875 
Q 39.15625 29.25 43.1875 25.515625 
Q 47.21875 21.78125 47.21875 15.09375 
Q 47.21875 7.46875 41.1875 3.015625 
Q 35.15625 -1.421875 24.609375 -1.421875 
Q 20.21875 -1.421875 15.453125 -0.5625 
Q 10.6875 0.296875 5.421875 2 
L 5.421875 11.28125 
Q 10.40625 8.6875 15.234375 7.390625 
Q 20.0625 6.109375 24.8125 6.109375 
Q 31.15625 6.109375 34.5625 8.28125 
Q 37.984375 10.453125 37.984375 14.40625 
Q 37.984375 18.0625 35.515625 20.015625 
Q 33.0625 21.96875 24.703125 23.78125 
L 21.578125 24.515625 
Q 13.234375 26.265625 9.515625 29.90625 
Q 5.8125 33.546875 5.8125 39.890625 
Q 5.8125 47.609375 11.28125 51.796875 
Q 16.75 56 26.8125 56 
Q 31.78125 56 36.171875 55.265625 
Q 40.578125 54.546875 44.28125 53.078125 
z
" id="DejaVuSans-115"/>
      <path d="M 18.3125 70.21875 
L 18.3125 54.6875 
L 36.8125 54.6875 
L 36.8125 47.703125 
L 18.3125 47.703125 
L 18.3125 18.015625 
Q 18.3125 11.328125 20.140625 9.421875 
Q 21.96875 7.515625 27.59375 7.515625 
L 36.8125 7.515625 
L 36.8125 0 
L 27.59375 0 
Q 17.1875 0 13.234375 3.875 
Q 9.28125 7.765625 9.28125 18.015625 
L 9.28125 47.703125 
L 2.6875 47.703125 
L 2.6875 54.6875 
L 9.28125 54.6875 
L 9.28125 70.21875 
z
" id="DejaVuSans-116"/>
      <path d="M 34.28125 27.484375 
Q 23.390625 27.484375 19.1875 25 
Q 14.984375 22.515625 14.984375 16.5 
Q 14.984375 11.71875 18.140625 8.90625 
Q 21.296875 6.109375 26.703125 6.109375 
Q 34.1875 6.109375 38.703125 11.40625 
Q 43.21875 16.703125 43.21875 25.484375 
L 43.21875 27.484375 
z
M 52.203125 31.203125 
L 52.203125 0 
L 43.21875 0 
L 43.21875 8.296875 
Q 40.140625 3.328125 35.546875 0.953125 
Q 30.953125 -1.421875 24.3125 -1.421875 
Q 15.921875 -1.421875 10.953125 3.296875 
Q 6 8.015625 6 15.921875 
Q 6 25.140625 12.171875 29.828125 
Q 18.359375 34.515625 30.609375 34.515625 
L 43.21875 34.515625 
L 43.21875 35.40625 
Q 43.21875 41.609375 39.140625 45 
Q 35.0625 48.390625 27.6875 48.390625 
Q 23 48.390625 18.546875 47.265625 
Q 14.109375 46.140625 10.015625 43.890625 
L 10.015625 52.203125 
Q 14.9375 54.109375 19.578125 55.046875 
Q 24.21875 56 28.609375 56 
Q 40.484375 56 46.34375 49.84375 
Q 52.203125 43.703125 52.203125 31.203125 
z
" id="DejaVuSans-97"/>
      <path d="M 18.109375 8.203125 
L 18.109375 -20.796875 
L 9.078125 -20.796875 
L 9.078125 54.6875 
L 18.109375 54.6875 
L 18.109375 46.390625 
Q 20.953125 51.265625 25.265625 53.625 
Q 29.59375 56 35.59375 56 
Q 45.5625 56 51.78125 48.09375 
Q 58.015625 40.1875 58.015625 27.296875 
Q 58.015625 14.40625 51.78125 6.484375 
Q 45.5625 -1.421875 35.59375 -1.421875 
Q 29.59375 -1.421875 25.265625 0.953125 
Q 20.953125 3.328125 18.109375 8.203125 
z
M 48.6875 27.296875 
Q 48.6875 37.203125 44.609375 42.84375 
Q 40.53125 48.484375 33.40625 48.484375 
Q 26.265625 48.484375 22.1875 42.84375 
Q 18.109375 37.203125 18.109375 27.296875 
Q 18.109375 17.390625 22.1875 11.75 
Q 26.265625 6.109375 33.40625 6.109375 
Q 40.53125 6.109375 44.609375 11.75 
Q 48.6875 17.390625 48.6875 27.296875 
z
" id="DejaVuSans-112"/>
     </defs>
     <g transform="translate(414.739062 412.756563)scale(0.1 -0.1)">
      <use xlink:href="#DejaVuSans-84"/>
      <use x="61.037109" xlink:href="#DejaVuSans-105"/>
      <use x="88.820312" xlink:href="#DejaVuSans-109"/>
      <use x="186.232422" xlink:href="#DejaVuSans-101"/>
      <use x="247.755859" xlink:href="#DejaVuSans-115"/>
      <use x="299.855469" xlink:href="#DejaVuSans-116"/>
      <use x="339.064453" xlink:href="#DejaVuSans-97"/>
      <use x="400.34375" xlink:href="#DejaVuSans-109"/>
      <use x="497.755859" xlink:href="#DejaVuSans-112"/>
     </g>
    </g>
   </g>
   <g id="matplotlib.axis_2">
    <g id="ytick_1">
     <g id="line2d_9">
      <defs>
       <path d="M 0 0 
L -3.5 0 
" id="m9a5598f209" style="stroke:#000000;stroke-width:0.8;"/>
      </defs>
      <g>
       <use style="stroke:#000000;stroke-width:0.8;" x="108" xlink:href="#m9a5598f209" y="351.929122"/>
      </g>
     </g>
     <g id="text_10">
      <!-- −2000 -->
      <defs>
       <path d="M 10.59375 35.5 
L 73.1875 35.5 
L 73.1875 27.203125 
L 10.59375 27.203125 
z
" id="DejaVuSans-8722"/>
      </defs>
      <g transform="translate(67.170312 355.72834)scale(0.1 -0.1)">
       <use xlink:href="#DejaVuSans-8722"/>
       <use x="83.789062" xlink:href="#DejaVuSans-50"/>
       <use x="147.412109" xlink:href="#DejaVuSans-48"/>
       <use x="211.035156" xlink:href="#DejaVuSans-48"/>
       <use x="274.658203" xlink:href="#DejaVuSans-48"/>
      </g>
     </g>
    </g>
    <g id="ytick_2">
     <g id="line2d_10">
      <g>
       <use style="stroke:#000000;stroke-width:0.8;" x="108" xlink:href="#m9a5598f209" y="296.729026"/>
      </g>
     </g>
     <g id="text_11">
      <!-- −1000 -->
      <g transform="translate(67.170312 300.528245)scale(0.1 -0.1)">
       <use xlink:href="#DejaVuSans-8722"/>
       <use x="83.789062" xlink:href="#DejaVuSans-49"/>
       <use x="147.412109" xlink:href="#DejaVuSans-48"/>
       <use x="211.035156" xlink:href="#DejaVuSans-48"/>
       <use x="274.658203" xlink:href="#DejaVuSans-48"/>
      </g>
     </g>
    </g>
    <g id="ytick_3">
     <g id="line2d_11">
      <g>
       <use style="stroke:#000000;stroke-width:0.8;" x="108" xlink:href="#m9a5598f209" y="241.528931"/>
      </g>
     </g>
     <g id="text_12">
      <!-- 0 -->
      <g transform="translate(94.6375 245.328149)scale(0.1 -0.1)">
       <use xlink:href="#DejaVuSans-48"/>
      </g>
     </g>
    </g>
    <g id="ytick_4">
     <g id="line2d_12">
      <g>
       <use style="stroke:#000000;stroke-width:0.8;" x="108" xlink:href="#m9a5598f209" y="186.328835"/>
      </g>
     </g>
     <g id="text_13">
      <!-- 1000 -->
      <g transform="translate(75.55 190.128054)scale(0.1 -0.1)">
       <use xlink:href="#DejaVuSans-49"/>
       <use x="63.623047" xlink:href="#DejaVuSans-48"/>
       <use x="127.246094" xlink:href="#DejaVuSans-48"/>
       <use x="190.869141" xlink:href="#DejaVuSans-48"/>
      </g>
     </g>
    </g>
    <g id="ytick_5">
     <g id="line2d_13">
      <g>
       <use style="stroke:#000000;stroke-width:0.8;" x="108" xlink:href="#m9a5598f209" y="131.128739"/>
      </g>
     </g>
     <g id="text_14">
      <!-- 2000 -->
      <g transform="translate(75.55 134.927958)scale(0.1 -0.1)">
       <use xlink:href="#DejaVuSans-50"/>
       <use x="63.623047" xlink:href="#DejaVuSans-48"/>
       <use x="127.246094" xlink:href="#DejaVuSans-48"/>
       <use x="190.869141" xlink:href="#DejaVuSans-48"/>
      </g>
     </g>
    </g>
    <g id="ytick_6">
     <g id="line2d_14">
      <g>
       <use style="stroke:#000000;stroke-width:0.8;" x="108" xlink:href="#m9a5598f209" y="75.928644"/>
      </g>
     </g>
     <g id="text_15">
      <!-- 3000 -->
      <defs>
       <path d="M 40.578125 39.3125 
Q 47.65625 37.796875 51.625 33 
Q 55.609375 28.21875 55.609375 21.1875 
Q 55.609375 10.40625 48.1875 4.484375 
Q 40.765625 -1.421875 27.09375 -1.421875 
Q 22.515625 -1.421875 17.65625 -0.515625 
Q 12.796875 0.390625 7.625 2.203125 
L 7.625 11.71875 
Q 11.71875 9.328125 16.59375 8.109375 
Q 21.484375 6.890625 26.8125 6.890625 
Q 36.078125 6.890625 40.9375 10.546875 
Q 45.796875 14.203125 45.796875 21.1875 
Q 45.796875 27.640625 41.28125 31.265625 
Q 36.765625 34.90625 28.71875 34.90625 
L 20.21875 34.90625 
L 20.21875 43.015625 
L 29.109375 43.015625 
Q 36.375 43.015625 40.234375 45.921875 
Q 44.09375 48.828125 44.09375 54.296875 
Q 44.09375 59.90625 40.109375 62.90625 
Q 36.140625 65.921875 28.71875 65.921875 
Q 24.65625 65.921875 20.015625 65.03125 
Q 15.375 64.15625 9.8125 62.3125 
L 9.8125 71.09375 
Q 15.4375 72.65625 20.34375 73.4375 
Q 25.25 74.21875 29.59375 74.21875 
Q 40.828125 74.21875 47.359375 69.109375 
Q 53.90625 64.015625 53.90625 55.328125 
Q 53.90625 49.265625 50.4375 45.09375 
Q 46.96875 40.921875 40.578125 39.3125 
z
" id="DejaVuSans-51"/>
      </defs>
      <g transform="translate(75.55 79.727863)scale(0.1 -0.1)">
       <use xlink:href="#DejaVuSans-51"/>
       <use x="63.623047" xlink:href="#DejaVuSans-48"/>
       <use x="127.246094" xlink:href="#DejaVuSans-48"/>
       <use x="190.869141" xlink:href="#DejaVuSans-48"/>
      </g>
     </g>
    </g>
    <g id="text_16">
     <!-- Value -->
     <defs>
      <path d="M 28.609375 0 
L 0.78125 72.90625 
L 11.078125 72.90625 
L 34.1875 11.53125 
L 57.328125 72.90625 
L 67.578125 72.90625 
L 39.796875 0 
z
" id="DejaVuSans-86"/>
      <path d="M 9.421875 75.984375 
L 18.40625 75.984375 
L 18.40625 0 
L 9.421875 0 
z
" id="DejaVuSans-108"/>
      <path d="M 8.5 21.578125 
L 8.5 54.6875 
L 17.484375 54.6875 
L 17.484375 21.921875 
Q 17.484375 14.15625 20.5 10.265625 
Q 23.53125 6.390625 29.59375 6.390625 
Q 36.859375 6.390625 41.078125 11.03125 
Q 45.3125 15.671875 45.3125 23.6875 
L 45.3125 54.6875 
L 54.296875 54.6875 
L 54.296875 0 
L 45.3125 0 
L 45.3125 8.40625 
Q 42.046875 3.421875 37.71875 1 
Q 33.40625 -1.421875 27.6875 -1.421875 
Q 18.265625 -1.421875 13.375 4.4375 
Q 8.5 10.296875 8.5 21.578125 
z
M 31.109375 56 
z
" id="DejaVuSans-117"/>
     </defs>
     <g transform="translate(61.090625 232.273281)rotate(-90)scale(0.1 -0.1)">
      <use xlink:href="#DejaVuSans-86"/>
      <use x="68.298828" xlink:href="#DejaVuSans-97"/>
      <use x="129.578125" xlink:href="#DejaVuSans-108"/>
      <use x="157.361328" xlink:href="#DejaVuSans-117"/>
      <use x="220.740234" xlink:href="#DejaVuSans-101"/>
     </g>
    </g>
   </g>
   <g id="line2d_15">
    <path clip-path="url(#pc36e30b1c4)" d="M 138.436364 257.34034 
L 138.798701 191.681109 
L 139.161039 172.280108 
L 139.523377 162.391131 
L 139.885714 171.124161 
L 140.248052 172.913195 
L 140.61039 212.638446 
L 140.972727 209.405836 
L 141.697403 276.294946 
L 142.05974 262.575833 
L 142.422078 243.129615 
L 143.146753 223.314342 
L 143.509091 202.695804 
L 143.871429 211.645407 
L 144.233766 212.294754 
L 144.596104 204.926691 
L 144.958442 265.855919 
L 145.320779 284.036095 
L 145.683117 293.971538 
L 146.045455 314.407102 
L 146.407792 300.190884 
L 147.132468 215.069182 
L 147.494805 195.488069 
L 147.857143 162.912362 
L 148.219481 150.918023 
L 148.581818 116.467449 
L 148.944156 142.805911 
L 149.306494 185.469307 
L 149.668831 196.225574 
L 150.031169 216.797579 
L 150.393506 226.920782 
L 150.755844 233.497023 
L 151.118182 218.151023 
L 151.480519 207.613362 
L 151.842857 209.354088 
L 152.205195 166.336317 
L 152.567532 207.148163 
L 152.92987 217.601675 
L 153.292208 218.176222 
L 153.654545 254.004342 
L 154.016883 268.246775 
L 154.379221 300.30901 
L 154.741558 291.497868 
L 155.103896 287.992882 
L 155.466234 238.610999 
L 156.553247 146.543412 
L 156.915584 133.719159 
L 157.277922 130.818035 
L 157.64026 153.604796 
L 158.002597 162.304464 
L 158.364935 199.951757 
L 158.727273 211.524983 
L 159.08961 211.124249 
L 159.451948 238.784725 
L 159.814286 208.011166 
L 160.176623 209.670509 
L 160.538961 199.262663 
L 160.901299 214.757316 
L 161.263636 191.706989 
L 161.625974 193.862589 
L 161.988312 258.266336 
L 162.350649 272.014782 
L 162.712987 303.307135 
L 163.075325 306.223878 
L 163.437662 284.888973 
L 163.8 301.678632 
L 164.162338 273.467497 
L 164.524675 203.845987 
L 165.249351 181.059498 
L 165.611688 167.066322 
L 165.974026 159.577737 
L 166.698701 206.448801 
L 167.061039 212.076788 
L 167.423377 259.46069 
L 167.785714 262.742312 
L 168.148052 277.423042 
L 168.51039 256.807359 
L 168.872727 252.533247 
L 169.235065 233.549943 
L 169.597403 240.937716 
L 169.95974 219.962629 
L 170.322078 231.061115 
L 170.684416 253.1831 
L 171.046753 296.841211 
L 171.409091 315.883903 
L 171.771429 349.593429 
L 172.133766 335.470813 
L 172.496104 335.912253 
L 172.858442 278.322922 
L 173.220779 275.943706 
L 173.583117 214.759238 
L 173.945455 191.322528 
L 174.307792 175.732999 
L 174.67013 175.943986 
L 175.032468 194.285832 
L 175.394805 230.948384 
L 175.757143 222.394251 
L 176.119481 264.285091 
L 176.481818 257.568158 
L 176.844156 289.118924 
L 177.206494 294.664925 
L 177.931169 254.858964 
L 178.293506 246.670926 
L 178.655844 241.87736 
L 179.018182 258.755351 
L 179.380519 264.335519 
L 179.742857 315.531283 
L 180.105195 325.705401 
L 180.467532 347.744593 
L 180.82987 334.599241 
L 181.192208 348.844226 
L 181.916883 273.842002 
L 182.641558 185.819644 
L 183.003896 195.718059 
L 183.366234 190.221238 
L 184.090909 233.377813 
L 185.177922 305.518697 
L 185.54026 308.681111 
L 185.902597 303.998369 
L 186.264935 266.902868 
L 186.627273 250.861445 
L 186.98961 239.853867 
L 187.351948 224.509186 
L 188.076623 273.439496 
L 188.438961 327.088276 
L 188.801299 308.142429 
L 189.163636 335.028548 
L 189.525974 341.645777 
L 189.888312 346.048825 
L 190.250649 305.825767 
L 190.612987 286.948104 
L 190.975325 228.409648 
L 191.337662 207.40197 
L 191.7 196.197613 
L 192.062338 194.310597 
L 192.424675 216.208688 
L 192.787013 209.515981 
L 193.149351 237.727806 
L 194.236364 294.440201 
L 194.598701 266.066027 
L 195.685714 201.51043 
L 196.048052 217.366954 
L 196.41039 249.551414 
L 197.135065 279.818586 
L 197.497403 322.064736 
L 198.222078 320.322546 
L 198.584416 322.092925 
L 198.946753 293.181587 
L 199.671429 189.56348 
L 200.033766 193.19084 
L 200.396104 174.963362 
L 200.758442 164.632203 
L 201.120779 170.330447 
L 201.483117 211.14251 
L 201.845455 213.459581 
L 202.207792 241.273617 
L 202.57013 281.35713 
L 203.294805 206.278121 
L 203.657143 235.946525 
L 204.019481 209.671396 
L 204.381818 213.242434 
L 204.744156 217.971924 
L 205.106494 228.543238 
L 205.468831 223.599075 
L 206.193506 283.816015 
L 206.555844 290.498127 
L 206.918182 294.833878 
L 207.642857 252.281802 
L 208.72987 151.468886 
L 209.454545 140.427255 
L 209.816883 158.302898 
L 210.179221 170.067107 
L 210.903896 225.873028 
L 211.266234 240.457049 
L 211.628571 244.493554 
L 211.990909 226.429764 
L 212.353247 220.924685 
L 213.077922 183.58265 
L 213.44026 202.314368 
L 213.802597 194.834105 
L 214.164935 229.881773 
L 214.527273 251.595353 
L 214.88961 285.119883 
L 215.251948 274.726489 
L 215.614286 299.887598 
L 216.338961 263.341301 
L 216.701299 228.881887 
L 217.063636 183.783854 
L 217.425974 176.543867 
L 217.788312 137.262725 
L 218.150649 140.963217 
L 218.512987 178.05656 
L 218.875325 181.809529 
L 219.237662 223.368809 
L 219.6 228.228285 
L 219.962338 235.781901 
L 220.324675 255.571135 
L 220.687013 231.668466 
L 221.049351 221.111472 
L 221.411688 229.679504 
L 221.774026 207.547921 
L 222.136364 212.122772 
L 222.498701 213.732734 
L 222.861039 239.602141 
L 223.223377 277.760047 
L 223.585714 290.741998 
L 223.948052 166.873165 
L 224.31039 309.002823 
L 224.672727 273.695437 
L 225.035065 255.720826 
L 225.397403 227.892837 
L 225.75974 218.71238 
L 226.122078 173.03207 
L 226.484416 178.68383 
L 226.846753 168.591306 
L 227.209091 195.791177 
L 227.571429 197.835649 
L 227.933766 254.506093 
L 228.296104 281.599135 
L 228.658442 268.770137 
L 229.020779 280.324736 
L 229.383117 258.702641 
L 230.107792 253.788538 
L 230.47013 217.709723 
L 230.832468 246.722951 
L 231.194805 236.202739 
L 231.557143 248.645117 
L 232.281818 320.12932 
L 232.644156 326.232781 
L 233.006494 344.315198 
L 233.368831 299.484848 
L 233.731169 287.72092 
L 234.093506 268.39123 
L 234.455844 242.758059 
L 234.818182 205.353655 
L 235.180519 223.946961 
L 235.542857 203.692198 
L 235.905195 202.709592 
L 236.267532 218.676413 
L 236.62987 242.73938 
L 236.992208 282.890549 
L 237.354545 303.234923 
L 237.716883 294.834402 
L 238.079221 291.023587 
L 238.441558 262.763822 
L 238.803896 267.981645 
L 239.166234 253.574298 
L 239.528571 266.499487 
L 239.890909 264.794709 
L 240.977922 326.004242 
L 241.702597 369.36 
L 242.78961 275.773147 
L 243.151948 259.20944 
L 243.514286 220.628847 
L 243.876623 213.660147 
L 244.238961 198.922672 
L 244.601299 227.395601 
L 244.963636 239.048103 
L 245.688312 304.153348 
L 246.050649 308.25207 
L 246.412987 296.962885 
L 246.775325 300.998088 
L 247.137662 272.58258 
L 247.5 277.058193 
L 247.862338 266.731597 
L 248.224675 277.284208 
L 248.587013 284.16133 
L 248.949351 295.249072 
L 249.311688 299.618626 
L 249.674026 353.974792 
L 250.036364 360.549322 
L 250.761039 324.272306 
L 251.123377 325.860417 
L 252.21039 214.230988 
L 252.572727 199.156761 
L 252.935065 205.4068 
L 253.297403 206.056493 
L 253.65974 228.186787 
L 254.384416 288.764146 
L 254.746753 291.138119 
L 255.109091 307.177469 
L 256.196104 253.373817 
L 256.920779 247.353126 
L 257.645455 280.534596 
L 258.007792 281.763474 
L 258.37013 330.905618 
L 259.094805 336.734858 
L 260.181818 269.735614 
L 260.544156 243.32734 
L 260.906494 231.919881 
L 261.268831 224.549239 
L 261.631169 226.305094 
L 261.993506 226.263344 
L 263.080519 269.282867 
L 263.442857 271.200446 
L 263.805195 257.50546 
L 264.167532 259.907363 
L 264.52987 263.13081 
L 264.892208 240.441695 
L 265.254545 236.832701 
L 265.616883 244.160304 
L 265.979221 242.745794 
L 266.341558 244.36585 
L 266.703896 272.704232 
L 267.066234 270.930611 
L 267.428571 299.281908 
L 267.790909 288.837292 
L 268.153247 289.242632 
L 268.515584 266.704942 
L 268.877922 251.679583 
L 269.602597 205.065994 
L 269.964935 204.491431 
L 270.327273 197.307505 
L 270.68961 204.335907 
L 271.051948 221.25843 
L 271.414286 228.688619 
L 272.138961 255.610955 
L 272.501299 251.092955 
L 272.863636 255.143343 
L 273.588312 236.640062 
L 273.950649 215.370905 
L 275.037662 260.812167 
L 275.4 267.230762 
L 276.124675 286.468256 
L 276.487013 272.135503 
L 276.849351 271.055963 
L 277.211688 261.60902 
L 277.936364 217.164018 
L 278.298701 220.29563 
L 278.661039 196.095748 
L 279.023377 203.918464 
L 279.385714 214.587606 
L 279.748052 216.116674 
L 280.11039 237.660528 
L 280.472727 242.196092 
L 280.835065 253.577356 
L 281.197403 250.489793 
L 281.55974 253.367131 
L 281.922078 253.455502 
L 282.284416 229.989346 
L 282.646753 242.262571 
L 283.009091 227.533033 
L 283.371429 251.459214 
L 283.733766 256.992697 
L 284.096104 266.017858 
L 284.820779 290.067801 
L 285.183117 294.67236 
L 285.545455 287.06947 
L 285.907792 264.879098 
L 286.994805 231.193947 
L 287.357143 214.15549 
L 287.719481 213.849088 
L 288.081818 228.181444 
L 288.444156 228.155352 
L 288.806494 254.320321 
L 289.168831 271.208202 
L 289.531169 262.973333 
L 289.893506 266.021564 
L 290.255844 262.262347 
L 290.618182 254.246543 
L 290.980519 253.519835 
L 291.342857 251.976394 
L 291.705195 264.248805 
L 292.067532 256.042265 
L 293.516883 308.962555 
L 293.879221 310.216402 
L 294.241558 299.815598 
L 294.603896 284.131716 
L 295.328571 244.726962 
L 295.690909 249.652916 
L 296.053247 229.88231 
L 296.415584 226.537936 
L 296.777922 232.252309 
L 297.14026 242.315416 
L 297.502597 268.221881 
L 298.227273 286.676085 
L 298.58961 283.491318 
L 298.951948 282.83 
L 299.314286 277.122905 
L 299.676623 267.218779 
L 300.038961 268.828305 
L 300.401299 263.018824 
L 300.763636 266.993305 
L 301.125974 276.955389 
L 301.488312 293.83345 
L 301.850649 316.393309 
L 302.212987 309.98916 
L 302.575325 317.782765 
L 302.937662 310.304422 
L 303.3 292.529747 
L 303.662338 260.877823 
L 304.024675 252.029074 
L 304.387013 254.529096 
L 304.749351 232.746416 
L 305.474026 248.328199 
L 305.836364 264.243861 
L 306.198701 271.865075 
L 306.561039 284.86112 
L 306.923377 282.559613 
L 307.285714 291.968004 
L 308.01039 270.402546 
L 308.372727 269.492858 
L 308.735065 262.970099 
L 309.097403 281.054231 
L 309.45974 282.865324 
L 309.822078 274.613618 
L 310.546753 307.574672 
L 310.909091 319.131645 
L 311.271429 317.632967 
L 311.633766 305.772095 
L 312.358442 264.323741 
L 312.720779 257.644018 
L 313.083117 230.122254 
L 313.445455 224.903252 
L 313.807792 235.019574 
L 314.17013 238.325943 
L 314.894805 269.701067 
L 315.619481 279.133874 
L 315.981818 289.174234 
L 317.068831 255.3331 
L 317.431169 256.163222 
L 317.793506 258.927746 
L 318.518182 282.112574 
L 318.880519 274.212853 
L 319.242857 289.43626 
L 319.967532 310.412907 
L 320.692208 277.278489 
L 321.054545 262.135991 
L 321.416883 230.415025 
L 321.779221 219.474609 
L 322.503896 213.991573 
L 322.866234 219.729521 
L 323.228571 228.789239 
L 323.590909 252.38504 
L 323.953247 254.221849 
L 324.315584 264.921449 
L 324.677922 261.947625 
L 325.04026 261.299477 
L 325.402597 245.262063 
L 325.764935 236.822392 
L 326.127273 246.519113 
L 326.48961 232.941756 
L 326.851948 251.772794 
L 327.214286 258.815337 
L 327.576623 271.142165 
L 327.938961 278.579349 
L 328.301299 294.970181 
L 328.663636 286.702966 
L 329.025974 287.382921 
L 329.388312 262.733038 
L 329.750649 250.473711 
L 330.475325 218.998739 
L 330.837662 210.078297 
L 331.2 207.414204 
L 331.562338 208.9213 
L 332.287013 235.293279 
L 333.011688 253.64627 
L 333.374026 256.712377 
L 334.098701 246.444199 
L 334.461039 237.331321 
L 334.823377 234.235685 
L 335.185714 233.983966 
L 335.548052 230.261405 
L 335.91039 249.07085 
L 336.272727 254.991131 
L 336.635065 282.408794 
L 336.997403 275.647036 
L 337.35974 287.424687 
L 337.722078 279.004495 
L 338.084416 267.893128 
L 339.171429 207.531601 
L 339.533766 204.660068 
L 339.896104 195.803202 
L 340.258442 203.683926 
L 340.620779 225.686246 
L 341.345455 245.974531 
L 341.707792 254.380897 
L 342.07013 256.981468 
L 342.432468 256.165178 
L 342.794805 242.361901 
L 343.157143 240.640441 
L 343.519481 226.905989 
L 343.881818 245.197357 
L 344.244156 240.642426 
L 344.606494 244.68717 
L 345.331169 286.419137 
L 345.693506 285.309998 
L 346.055844 290.324928 
L 346.780519 272.199696 
L 347.505195 231.683417 
L 347.867532 220.738518 
L 348.592208 210.279751 
L 348.954545 230.88991 
L 349.316883 227.666199 
L 349.679221 255.816225 
L 350.041558 271.319527 
L 350.403896 271.97402 
L 350.766234 269.584074 
L 351.128571 273.723925 
L 351.490909 256.096448 
L 351.853247 263.129532 
L 352.577922 240.810698 
L 353.302597 279.874061 
L 353.664935 287.523856 
L 354.027273 288.767938 
L 354.38961 303.65207 
L 354.751948 295.944806 
L 355.114286 294.909438 
L 355.476623 278.793224 
L 355.838961 272.303631 
L 356.201299 248.509073 
L 356.563636 238.112801 
L 356.925974 236.537146 
L 357.288312 221.727424 
L 357.650649 234.066109 
L 358.012987 258.966091 
L 358.375325 267.178741 
L 358.737662 272.50511 
L 359.1 283.076683 
L 359.462338 283.521481 
L 359.824675 281.756272 
L 360.187013 270.16907 
L 360.549351 272.485745 
L 360.911688 270.550622 
L 361.274026 264.766822 
L 362.361039 294.305395 
L 362.723377 303.964276 
L 363.085714 318.293662 
L 363.448052 319.189959 
L 363.81039 302.517238 
L 364.172727 297.567016 
L 364.535065 289.781713 
L 365.25974 248.900345 
L 365.984416 233.423945 
L 366.346753 246.000864 
L 366.709091 254.067019 
L 367.071429 264.958801 
L 367.433766 291.736737 
L 367.796104 294.852205 
L 368.158442 302.828395 
L 368.520779 269.678171 
L 368.883117 269.056554 
L 369.245455 260.215207 
L 369.607792 271.679134 
L 369.97013 260.274272 
L 370.332468 269.537668 
L 370.694805 286.417347 
L 371.057143 283.875503 
L 371.419481 309.243112 
L 371.781818 312.671892 
L 372.144156 320.284471 
L 372.506494 310.646155 
L 372.868831 296.73616 
L 373.231169 265.75383 
L 373.593506 262.888715 
L 373.955844 227.068542 
L 374.318182 235.89976 
L 374.680519 237.594122 
L 375.042857 242.437795 
L 375.405195 259.694957 
L 375.767532 262.602113 
L 376.492208 286.46617 
L 376.854545 295.374667 
L 377.216883 272.157538 
L 377.579221 270.737514 
L 377.941558 265.818545 
L 378.303896 250.016418 
L 378.666234 257.762047 
L 379.028571 260.409265 
L 379.390909 260.883851 
L 379.753247 288.010264 
L 380.115584 289.819068 
L 380.477922 299.789853 
L 380.84026 296.179249 
L 381.202597 289.913254 
L 382.28961 243.245614 
L 382.651948 236.981542 
L 383.014286 225.541884 
L 383.376623 220.494566 
L 383.738961 224.073355 
L 384.101299 231.414765 
L 384.463636 255.223665 
L 384.825974 262.962592 
L 385.188312 275.227786 
L 385.550649 259.96891 
L 385.912987 269.011063 
L 386.275325 253.038641 
L 386.637662 254.871828 
L 387 236.012999 
L 387.362338 246.512687 
L 387.724675 234.174373 
L 388.087013 265.391468 
L 388.449351 265.079969 
L 388.811688 264.949943 
L 389.174026 281.553959 
L 389.536364 279.095225 
L 389.898701 274.438095 
L 390.261039 258.660538 
L 390.985714 237.75538 
L 391.348052 221.551072 
L 391.71039 214.640693 
L 392.072727 211.186066 
L 392.435065 226.657666 
L 392.797403 233.027933 
L 393.15974 234.846388 
L 393.884416 259.082765 
L 394.609091 241.618588 
L 394.971429 246.51813 
L 395.333766 240.483465 
L 395.696104 229.984142 
L 396.058442 231.689347 
L 396.420779 237.9625 
L 397.145455 260.653865 
L 397.507792 274.411485 
L 397.87013 280.941581 
L 398.232468 273.972541 
L 398.594805 275.471436 
L 398.957143 264.475893 
L 399.319481 244.497031 
L 400.406494 206.948928 
L 400.768831 213.737732 
L 401.131169 222.666386 
L 401.493506 227.15441 
L 401.855844 238.306778 
L 402.218182 241.230348 
L 402.942857 259.807321 
L 403.305195 249.914499 
L 403.667532 247.876533 
L 404.02987 243.113201 
L 404.392208 245.016793 
L 404.754545 242.502904 
L 405.116883 244.100227 
L 405.479221 246.230359 
L 406.928571 287.45949 
L 407.653247 266.010311 
L 408.377922 237.173728 
L 409.102597 216.301252 
L 409.464935 213.780066 
L 409.827273 223.999226 
L 410.18961 230.870719 
L 410.914286 256.906121 
L 411.276623 274.308574 
L 411.638961 264.678892 
L 412.001299 263.231048 
L 412.363636 260.315121 
L 412.725974 254.088824 
L 413.088312 243.547691 
L 413.450649 241.329529 
L 414.175325 264.15417 
L 414.537662 267.81886 
L 414.9 290.512844 
L 415.262338 289.447302 
L 415.624675 291.833146 
L 416.349351 276.375072 
L 416.711688 253.786839 
L 417.074026 249.750525 
L 417.436364 237.140621 
L 417.798701 235.307195 
L 418.161039 226.822941 
L 418.523377 236.716779 
L 418.885714 239.896479 
L 419.61039 269.314751 
L 419.972727 269.267244 
L 420.335065 275.238099 
L 420.697403 270.09917 
L 421.05974 271.690728 
L 421.422078 257.782419 
L 421.784416 259.958063 
L 422.146753 259.335724 
L 422.509091 259.000283 
L 422.871429 276.378377 
L 423.233766 278.447335 
L 423.596104 289.170018 
L 423.958442 289.329341 
L 424.320779 285.753307 
L 424.683117 290.031866 
L 425.045455 286.983409 
L 425.407792 265.504057 
L 426.132468 244.281787 
L 426.494805 234.818745 
L 426.857143 245.84838 
L 427.219481 238.619239 
L 427.581818 251.911523 
L 427.944156 253.562993 
L 428.668831 275.535446 
L 429.031169 269.033113 
L 429.393506 268.017945 
L 429.755844 268.646961 
L 430.118182 258.760944 
L 430.480519 252.873836 
L 430.842857 254.848947 
L 431.567532 267.074111 
L 432.292208 290.988651 
L 433.016883 307.370978 
L 433.379221 297.692528 
L 433.741558 271.511198 
L 434.103896 267.882133 
L 434.466234 247.394245 
L 434.828571 235.749263 
L 435.190909 234.534942 
L 435.553247 217.787291 
L 435.915584 238.545144 
L 436.277922 245.483414 
L 436.64026 254.821435 
L 437.364935 259.112398 
L 437.727273 267.701593 
L 438.08961 257.462154 
L 438.451948 254.223717 
L 438.814286 253.501504 
L 439.176623 244.585454 
L 439.538961 254.091313 
L 439.901299 246.104471 
L 440.988312 281.601239 
L 441.350649 282.810936 
L 441.712987 294.09951 
L 442.075325 277.77658 
L 442.437662 267.640334 
L 443.162338 234.630677 
L 443.887013 216.94143 
L 444.249351 216.537386 
L 444.611688 222.316766 
L 444.974026 229.89802 
L 445.698701 252.205524 
L 446.423377 262.93278 
L 446.785714 246.229188 
L 447.148052 249.728471 
L 447.51039 239.796829 
L 447.872727 237.093756 
L 448.235065 233.317535 
L 448.597403 218.787661 
L 448.95974 247.540666 
L 449.322078 254.863449 
L 449.684416 268.360928 
L 450.046753 273.165826 
L 450.409091 274.44301 
L 451.133766 259.828041 
L 451.496104 238.767491 
L 451.858442 231.221282 
L 452.220779 201.668374 
L 452.583117 211.361897 
L 452.945455 203.596222 
L 453.307792 201.714201 
L 453.67013 218.441646 
L 454.032468 224.552721 
L 454.394805 242.579833 
L 454.757143 253.305067 
L 455.481818 235.300085 
L 455.844156 232.864127 
L 456.206494 235.444504 
L 456.568831 219.462817 
L 457.293506 236.517434 
L 457.655844 240.930348 
L 458.018182 255.219514 
L 458.380519 261.547908 
L 458.742857 265.375952 
L 459.105195 267.337828 
L 459.467532 261.62851 
L 459.82987 245.048852 
L 460.192208 246.470778 
L 460.554545 224.201076 
L 461.279221 202.209731 
L 461.641558 202.107994 
L 462.003896 215.398161 
L 462.366234 217.393421 
L 463.090909 241.3441 
L 463.453247 243.325607 
L 463.815584 252.920051 
L 464.177922 241.245029 
L 464.54026 239.675265 
L 464.902597 225.76171 
L 465.264935 235.347269 
L 465.627273 226.196501 
L 466.351948 239.131818 
L 466.714286 259.530816 
L 467.076623 268.947317 
L 467.438961 275.351755 
L 468.525974 257.993519 
L 468.888312 236.444522 
L 469.250649 232.78951 
L 469.975325 207.212987 
L 470.337662 212.183351 
L 470.7 223.318297 
L 471.062338 227.015357 
L 471.424675 238.807659 
L 471.787013 244.604986 
L 472.149351 253.048525 
L 472.511688 254.072681 
L 472.874026 245.834186 
L 473.236364 246.169259 
L 473.598701 234.73448 
L 473.961039 234.778241 
L 474.323377 245.862028 
L 474.685714 248.21205 
L 475.048052 248.635913 
L 475.41039 268.459395 
L 475.772727 276.541669 
L 476.135065 291.068342 
L 476.497403 276.523787 
L 476.85974 280.512319 
L 477.222078 261.302311 
L 477.584416 255.255718 
L 478.309091 214.27886 
L 478.671429 226.47825 
L 479.033766 223.548656 
L 479.758442 237.043123 
L 480.120779 257.868601 
L 480.483117 256.809689 
L 480.845455 270.830275 
L 481.207792 268.305433 
L 481.57013 261.154431 
L 481.932468 258.821578 
L 482.294805 252.297977 
L 482.657143 242.656797 
L 483.019481 248.119705 
L 483.381818 250.706805 
L 483.744156 254.319131 
L 484.106494 274.775287 
L 484.468831 282.498606 
L 484.831169 285.204917 
L 485.193506 292.333751 
L 485.555844 286.79693 
L 485.918182 271.261883 
L 486.280519 249.386413 
L 486.642857 247.612646 
L 487.005195 223.272514 
L 487.367532 226.107848 
L 487.72987 223.96345 
L 488.454545 233.297835 
L 488.816883 256.903502 
L 489.179221 257.896454 
L 489.541558 273.926792 
L 490.266234 256.202088 
L 490.628571 253.529244 
L 490.990909 254.675132 
L 491.353247 247.371265 
L 491.715584 257.190193 
L 492.077922 252.153149 
L 492.44026 249.353718 
L 492.802597 274.640557 
L 493.164935 287.716917 
L 493.527273 290.464799 
L 493.88961 298.905789 
L 494.251948 270.863847 
L 494.614286 275.56893 
L 495.338961 240.740664 
L 496.425974 217.53978 
L 496.788312 218.473639 
L 497.150649 230.692247 
L 497.512987 248.90578 
L 497.875325 248.280063 
L 498.237662 257.991457 
L 498.6 263.005196 
L 498.962338 255.109894 
L 499.687013 235.087688 
L 500.049351 236.946411 
L 500.411688 234.468257 
L 500.774026 247.186558 
L 501.136364 244.348526 
L 501.498701 263.778217 
L 501.861039 273.591164 
L 502.223377 276.774199 
L 502.585714 274.059085 
L 502.948052 268.977297 
L 503.31039 245.35318 
L 503.672727 237.539185 
L 504.035065 226.792485 
L 504.397403 208.496914 
L 504.75974 208.202676 
L 505.122078 215.811049 
L 505.484416 213.306828 
L 505.846753 214.915263 
L 506.209091 228.229057 
L 506.571429 248.250368 
L 506.933766 243.21576 
L 507.296104 247.767166 
L 507.658442 234.431658 
L 508.020779 227.632259 
L 508.383117 230.892993 
L 508.745455 227.295278 
L 509.107792 225.487489 
L 509.832468 230.695087 
L 510.194805 252.296821 
L 510.557143 260.424289 
L 510.919481 261.400335 
L 511.281818 258.136632 
L 511.644156 253.070692 
L 513.093506 204.355936 
L 513.455844 205.675087 
L 513.818182 199.056692 
L 514.180519 204.816352 
L 514.905195 231.64985 
L 515.267532 225.587835 
L 515.62987 237.308685 
L 515.992208 230.806655 
L 516.354545 232.055107 
L 516.716883 231.722399 
L 517.441558 214.782611 
L 518.166234 218.090718 
L 519.253247 255.761459 
L 519.615584 263.043135 
L 519.977922 260.96055 
L 520.34026 255.193902 
L 520.702597 244.769022 
L 521.78961 201.108243 
L 522.151948 197.380235 
L 522.514286 187.913446 
L 522.876623 203.004943 
L 523.238961 207.979058 
L 523.601299 222.726849 
L 523.963636 224.698593 
L 524.325974 240.17481 
L 524.688312 228.892741 
L 525.050649 239.773725 
L 525.412987 226.067107 
L 525.775325 221.524255 
L 526.5 217.243222 
L 526.862338 231.240446 
L 527.224675 231.851187 
L 527.949351 259.061998 
L 528.311688 257.650251 
L 528.674026 261.12872 
L 529.036364 259.351215 
L 529.398701 247.447824 
L 529.761039 222.501687 
L 530.485714 210.419756 
L 530.848052 205.59054 
L 531.21039 206.186678 
L 531.572727 199.861364 
L 531.935065 210.566804 
L 532.297403 232.201391 
L 532.65974 240.286093 
L 533.022078 255.263108 
L 533.384416 241.091402 
L 533.746753 244.374085 
L 534.109091 232.619998 
L 534.471429 234.129261 
L 534.833766 232.053374 
L 535.196104 228.975202 
L 535.558442 237.168602 
L 535.920779 240.407986 
L 536.645455 267.896251 
L 537.007792 272.406226 
L 537.37013 273.094745 
L 537.732468 256.781935 
L 538.094805 259.39019 
L 538.457143 241.072045 
L 538.819481 230.587146 
L 539.181818 215.813102 
L 539.544156 220.719754 
L 539.906494 216.58643 
L 540.268831 222.630114 
L 540.631169 224.741825 
L 540.993506 234.20891 
L 541.355844 248.607424 
L 541.718182 250.349438 
L 542.080519 253.640696 
L 542.442857 257.948008 
L 543.167532 240.147021 
L 543.52987 236.201751 
L 543.892208 237.121379 
L 544.254545 249.517557 
L 544.616883 255.51017 
L 544.979221 257.428039 
L 545.703896 276.059391 
L 546.066234 283.99232 
L 546.428571 277.558568 
L 546.790909 254.077534 
L 547.153247 254.385168 
L 547.515584 233.68412 
L 547.877922 222.58331 
L 548.24026 222.717002 
L 548.602597 221.656461 
L 548.964935 231.13562 
L 549.327273 231.146666 
L 549.68961 244.731195 
L 550.051948 251.698105 
L 550.414286 253.123812 
L 550.776623 256.522675 
L 551.138961 250.412767 
L 551.501299 241.004722 
L 551.863636 237.259135 
L 552.588312 241.337042 
L 552.950649 232.572399 
L 553.312987 250.497917 
L 553.675325 248.994316 
L 554.037662 270.905555 
L 554.4 273.371236 
L 554.762338 268.423516 
L 555.487013 263.639337 
L 555.849351 252.153512 
L 556.211688 227.035622 
L 556.574026 218.589599 
L 556.936364 218.862929 
L 557.298701 206.007765 
L 558.385714 229.113008 
L 558.748052 245.385245 
L 559.11039 251.609145 
L 559.472727 251.075836 
L 559.835065 240.917718 
L 560.197403 246.898477 
L 560.55974 225.061515 
L 560.922078 226.126822 
L 561.284416 228.752104 
L 561.646753 237.712765 
L 562.009091 243.385585 
L 562.371429 259.276876 
L 562.733766 263.300165 
L 563.096104 256.95465 
L 563.458442 272.751077 
L 563.820779 249.719741 
L 564.183117 246.837359 
L 564.545455 231.051182 
L 564.907792 193.285242 
L 565.27013 189.349186 
L 565.632468 136.968577 
L 565.994805 142.879629 
L 566.357143 171.674867 
L 566.719481 186.994504 
L 567.081818 225.698116 
L 567.444156 227.644102 
L 567.806494 231.797668 
L 568.168831 260.888287 
L 568.531169 232.872118 
L 568.893506 231.138891 
L 569.255844 215.36049 
L 569.618182 211.049635 
L 569.980519 204.198002 
L 570.342857 201.473101 
L 570.705195 216.894244 
L 571.067532 263.111143 
L 571.42987 283.247542 
L 571.792208 330.200276 
L 572.154545 264.445509 
L 572.516883 288.510138 
L 572.879221 256.136199 
L 573.241558 197.095729 
L 574.328571 124.60423 
L 574.690909 131.527504 
L 575.415584 160.06839 
L 575.777922 199.494596 
L 576.14026 222.839332 
L 576.502597 223.515536 
L 576.864935 232.620993 
L 577.58961 182.85018 
L 577.951948 167.546645 
L 578.314286 184.092182 
L 578.676623 171.956893 
L 579.038961 173.299359 
L 579.401299 221.558573 
L 579.763636 243.367069 
L 580.125974 300.600193 
L 580.488312 268.424577 
L 580.850649 278.521366 
L 581.212987 260.443359 
L 581.575325 231.64085 
L 582.3 156.375745 
L 582.662338 143.409934 
L 583.024675 119.245538 
L 583.387013 135.34744 
L 583.749351 124.482216 
L 584.111688 170.867022 
L 584.474026 195.432749 
L 584.836364 211.683911 
L 585.198701 208.297347 
L 585.561039 229.333351 
L 585.923377 210.028485 
L 586.285714 211.788978 
L 586.648052 176.320627 
L 587.01039 168.626471 
L 587.372727 209.484304 
L 587.735065 201.096853 
L 588.097403 213.375383 
L 588.45974 266.462424 
L 588.822078 265.474613 
L 589.184416 287.38854 
L 589.546753 299.684617 
L 589.909091 293.134873 
L 590.271429 238.677174 
L 591.720779 145.723154 
L 592.083117 155.629433 
L 592.445455 144.170229 
L 592.807792 197.493291 
L 593.17013 217.438998 
L 593.532468 217.75795 
L 593.894805 258.269069 
L 594.257143 234.560588 
L 594.619481 245.706579 
L 594.981818 220.060016 
L 595.344156 229.17481 
L 595.706494 232.196425 
L 596.068831 209.251806 
L 596.431169 235.955526 
L 596.793506 250.026727 
L 597.155844 275.79427 
L 597.518182 311.419285 
L 597.880519 315.326897 
L 598.242857 310.235585 
L 598.605195 330.104675 
L 598.967532 265.949344 
L 600.054545 169.061366 
L 600.416883 180.319987 
L 600.779221 176.506932 
L 601.141558 203.882478 
L 601.503896 207.501138 
L 601.866234 235.588784 
L 602.228571 251.361024 
L 602.590909 284.871533 
L 602.953247 276.930363 
L 603.315584 295.134433 
L 603.677922 255.458467 
L 604.04026 237.490778 
L 604.402597 246.06729 
L 604.764935 230.129637 
L 605.127273 256.512426 
L 605.48961 261.830544 
L 606.214286 340.95359 
L 606.576623 335.300786 
L 606.938961 364.417507 
L 607.301299 337.336101 
L 607.663636 326.831615 
L 608.388312 226.52714 
L 609.112987 194.988512 
L 609.475325 200.669911 
L 609.837662 208.359999 
L 610.2 234.232286 
L 610.562338 240.018991 
L 610.924675 266.058126 
L 611.287013 276.904918 
L 611.649351 268.895556 
L 612.011688 270.321471 
L 612.374026 268.128933 
L 612.736364 248.544808 
L 613.098701 243.880436 
L 613.461039 224.510168 
L 614.185714 270.619606 
L 614.91039 327.580771 
L 615.272727 338.204758 
L 615.635065 332.921223 
L 615.997403 314.062075 
L 616.35974 305.96312 
L 617.084416 220.645456 
L 617.446753 183.873721 
L 617.809091 169.553511 
L 618.171429 184.424951 
L 618.533766 176.262032 
L 618.896104 208.339955 
L 619.258442 223.110839 
L 619.620779 257.091406 
L 619.983117 276.428038 
L 620.345455 274.506802 
L 621.07013 250.975661 
L 621.794805 199.278278 
L 622.157143 232.24054 
L 622.519481 222.411183 
L 622.881818 244.570107 
L 623.244156 292.714155 
L 623.606494 304.333543 
L 623.968831 307.284011 
L 624.331169 304.905678 
L 624.693506 306.340667 
L 625.055844 271.520153 
L 625.418182 215.55696 
L 625.780519 208.383772 
L 626.142857 150.059947 
L 626.505195 142.893197 
L 626.867532 137.978728 
L 627.22987 174.142126 
L 627.954545 205.436395 
L 628.679221 249.679494 
L 629.041558 237.637101 
L 629.766234 202.379371 
L 630.128571 194.770877 
L 630.490909 189.680745 
L 630.853247 208.320758 
L 631.215584 209.091072 
L 631.577922 220.017725 
L 631.94026 255.766898 
L 632.302597 254.333568 
L 632.664935 278.992951 
L 633.027273 280.964581 
L 633.38961 271.328 
L 633.751948 222.133288 
L 635.201299 132.411165 
L 635.563636 134.931324 
L 635.925974 122.98608 
L 636.288312 164.412941 
L 636.650649 189.50455 
L 637.012987 196.931441 
L 637.375325 235.775114 
L 637.737662 230.252393 
L 638.1 230.296636 
L 638.462338 192.130979 
L 638.824675 185.595802 
L 639.187013 183.926215 
L 639.549351 190.300817 
L 640.274026 218.013794 
L 640.636364 239.017381 
L 640.998701 280.739307 
L 641.361039 242.134738 
L 641.723377 301.458085 
L 642.085714 275.273076 
L 642.81039 188.114364 
L 643.172727 164.741727 
L 643.535065 127.410598 
L 643.897403 148.710456 
L 644.25974 128.984384 
L 644.622078 123.739019 
L 645.346753 189.770072 
L 645.709091 208.310417 
L 646.071429 219.910543 
L 646.433766 217.013835 
L 646.796104 217.372402 
L 647.158442 200.702983 
L 647.520779 189.378627 
L 647.883117 197.930387 
L 648.245455 177.440967 
L 648.607792 233.768935 
L 648.97013 252.803175 
L 649.332468 263.334746 
L 649.694805 268.858547 
L 650.057143 293.515852 
L 650.419481 266.600644 
L 650.781818 287.30138 
L 651.144156 265.148236 
L 651.506494 203.425462 
L 651.868831 181.132121 
L 652.231169 145.797117 
L 652.593506 136.253389 
L 652.955844 140.546736 
L 653.318182 130.380202 
L 653.680519 152.814564 
L 654.042857 229.007384 
L 654.405195 241.183116 
L 654.767532 249.016259 
L 655.12987 254.173081 
L 655.492208 239.104484 
L 655.854545 233.370903 
L 656.216883 197.362139 
L 656.579221 212.858462 
L 656.941558 210.399532 
L 657.303896 238.973178 
L 658.028571 282.394089 
L 658.390909 277.986151 
L 658.753247 314.926186 
L 659.115584 322.722737 
L 659.477922 334.366993 
L 659.84026 268.655788 
L 660.564935 219.620465 
L 660.927273 211.140627 
L 661.28961 172.88083 
L 662.014286 186.700403 
L 662.376623 211.435556 
L 662.738961 221.585293 
L 663.101299 261.885819 
L 663.825974 277.906419 
L 664.188312 269.034941 
L 664.550649 270.004848 
L 664.912987 234.046579 
L 665.275325 238.653015 
L 665.637662 251.520373 
L 666 249.304409 
L 666.724675 313.154358 
L 667.087013 325.727917 
L 667.449351 329.06317 
L 667.811688 342.809834 
L 668.174026 323.345453 
L 668.536364 295.832039 
L 668.898701 281.036771 
L 669.261039 211.338371 
L 669.985714 185.141779 
L 670.348052 194.113823 
L 670.71039 184.386685 
L 671.435065 237.359047 
L 671.797403 290.088637 
L 672.15974 276.926611 
L 672.522078 308.319588 
L 672.884416 291.096613 
L 673.246753 268.209523 
L 674.333766 232.53891 
L 674.696104 251.888572 
L 675.058442 249.898637 
L 675.420779 273.16205 
L 675.783117 321.971958 
L 676.145455 328.253454 
L 676.507792 350.765524 
L 677.232468 286.925329 
L 677.594805 258.314355 
L 677.957143 217.19443 
L 678.319481 207.039865 
L 678.681818 188.435148 
L 679.044156 188.329714 
L 679.406494 201.408939 
L 679.768831 208.401777 
L 680.131169 240.563781 
L 680.493506 227.578852 
L 680.855844 286.393554 
L 681.218182 274.57781 
L 681.580519 270.719294 
L 681.942857 234.826677 
L 682.305195 234.97747 
L 682.667532 242.490658 
L 683.02987 217.700995 
L 683.392208 257.43324 
L 683.754545 243.672583 
L 684.116883 298.920207 
L 684.479221 327.714943 
L 684.841558 294.66134 
L 685.203896 310.861978 
L 685.566234 277.000412 
L 685.928571 256.257054 
L 686.290909 215.853302 
L 686.653247 196.196695 
L 687.015584 155.101213 
L 687.377922 148.046378 
L 687.74026 134.73476 
L 688.102597 162.882506 
L 688.464935 176.945455 
L 688.827273 211.661116 
L 689.18961 218.487631 
L 689.551948 249.852237 
L 689.914286 252.263128 
L 690.276623 242.475798 
L 691.001299 197.998567 
L 691.725974 182.142411 
L 692.450649 220.490069 
L 692.812987 280.175807 
L 693.175325 298.976709 
L 693.537662 287.708259 
L 693.9 303.121392 
L 694.262338 265.886251 
L 694.624675 251.907665 
L 694.987013 205.999712 
L 695.349351 182.347187 
L 696.074026 120.962811 
L 696.436364 129.694738 
L 696.798701 122.719716 
L 697.161039 163.254992 
L 697.523377 177.644706 
L 697.885714 213.341804 
L 698.248052 221.029572 
L 698.61039 213.308811 
L 698.972727 232.97147 
L 699.335065 189.443685 
L 699.697403 172.432185 
L 700.05974 173.124255 
L 700.422078 171.876548 
L 700.784416 172.550851 
L 701.146753 197.831136 
L 701.871429 272.227341 
L 702.233766 297.855497 
L 702.596104 284.470286 
L 702.958442 253.336257 
L 703.320779 236.202861 
L 704.045455 144.62333 
L 704.407792 133.883614 
L 704.77013 130.584475 
L 705.132468 143.728686 
L 705.494805 120.290223 
L 706.219481 204.996151 
L 706.581818 66.96 
L 706.944156 222.771714 
L 707.306494 227.944597 
L 708.031169 204.648538 
L 708.393506 197.319977 
L 708.755844 187.013604 
L 709.118182 183.349279 
L 709.480519 195.745801 
L 710.205195 255.148842 
L 710.567532 297.676126 
L 710.92987 288.182581 
L 711.292208 295.820293 
L 711.654545 284.737901 
L 712.379221 200.426698 
L 712.741558 199.193739 
L 713.103896 142.961224 
L 713.466234 135.624595 
L 713.828571 137.82514 
L 714.190909 159.350923 
L 714.915584 221.044416 
L 715.277922 231.509967 
L 715.64026 237.333751 
L 716.002597 237.283551 
L 716.364935 231.690287 
L 716.727273 240.553618 
L 717.08961 209.296562 
L 717.451948 215.895584 
L 717.814286 220.343906 
L 718.176623 218.857414 
L 718.538961 274.168665 
L 718.901299 253.836157 
L 719.625974 331.893893 
L 719.988312 318.1053 
L 720.350649 295.297466 
L 720.712987 299.193372 
L 721.437662 184.274469 
L 721.8 204.263867 
L 722.162338 162.985573 
L 722.524675 163.907844 
L 722.887013 168.592279 
L 723.249351 221.62204 
L 723.974026 261.782365 
L 724.698701 291.45961 
L 725.061039 283.171656 
L 726.148052 218.117682 
L 726.51039 241.449198 
L 726.872727 245.95606 
L 727.235065 298.900511 
L 727.597403 303.662856 
L 727.95974 332.050914 
L 728.322078 327.918505 
L 728.684416 337.768291 
L 729.046753 343.236076 
L 729.409091 304.402221 
L 729.771429 238.953733 
L 730.133766 223.495646 
L 730.496104 201.907999 
L 730.858442 165.663737 
L 731.220779 155.260903 
L 732.67013 290.572586 
L 733.032468 290.542812 
L 733.394805 299.592741 
L 733.757143 295.872484 
L 734.119481 246.828107 
L 734.481818 250.091899 
L 734.844156 240.838545 
L 735.931169 264.793286 
L 736.293506 279.026553 
L 736.655844 327.12647 
L 737.018182 350.990584 
L 737.742857 332.960701 
L 738.105195 275.488272 
L 738.467532 268.44919 
L 738.82987 240.128191 
L 739.192208 190.707357 
L 739.554545 168.698397 
L 739.916883 163.672303 
L 740.279221 204.613005 
L 740.641558 204.790811 
L 741.366234 271.975854 
L 741.728571 265.263586 
L 742.090909 280.333995 
L 742.453247 272.151349 
L 742.815584 238.695582 
L 743.177922 234.344991 
L 743.54026 210.528499 
L 743.902597 211.185256 
L 744.264935 212.318964 
L 744.98961 288.178447 
L 745.351948 294.29434 
L 745.714286 296.730191 
L 746.076623 309.244418 
L 746.438961 284.654433 
L 746.801299 271.024865 
L 746.801299 271.024865 
" style="fill:none;stroke:#1f77b4;stroke-linecap:square;stroke-width:1.5;"/>
   </g>
   <g id="line2d_16">
    <path clip-path="url(#pc36e30b1c4)" d="M 747.163636 384.48 
L 747.163636 51.84 
" style="fill:none;stroke:#808080;stroke-linecap:square;"/>
   </g>
   <g id="patch_45">
    <path d="M 108 384.48 
L 108 51.84 
" style="fill:none;stroke:#000000;stroke-linecap:square;stroke-linejoin:miter;stroke-width:0.8;"/>
   </g>
   <g id="patch_46">
    <path d="M 777.6 384.48 
L 777.6 51.84 
" style="fill:none;stroke:#000000;stroke-linecap:square;stroke-linejoin:miter;stroke-width:0.8;"/>
   </g>
   <g id="patch_47">
    <path d="M 108 384.48 
L 777.6 384.48 
" style="fill:none;stroke:#000000;stroke-linecap:square;stroke-linejoin:miter;stroke-width:0.8;"/>
   </g>
   <g id="patch_48">
    <path d="M 108 51.84 
L 777.6 51.84 
" style="fill:none;stroke:#000000;stroke-linecap:square;stroke-linejoin:miter;stroke-width:0.8;"/>
   </g>
   <g id="text_17">
    <!-- A4Benchmark-TS69.csv -->
    <defs>
     <path d="M 34.1875 63.1875 
L 20.796875 26.90625 
L 47.609375 26.90625 
z
M 28.609375 72.90625 
L 39.796875 72.90625 
L 67.578125 0 
L 57.328125 0 
L 50.6875 18.703125 
L 17.828125 18.703125 
L 11.1875 0 
L 0.78125 0 
z
" id="DejaVuSans-65"/>
     <path d="M 37.796875 64.3125 
L 12.890625 25.390625 
L 37.796875 25.390625 
z
M 35.203125 72.90625 
L 47.609375 72.90625 
L 47.609375 25.390625 
L 58.015625 25.390625 
L 58.015625 17.1875 
L 47.609375 17.1875 
L 47.609375 0 
L 37.796875 0 
L 37.796875 17.1875 
L 4.890625 17.1875 
L 4.890625 26.703125 
z
" id="DejaVuSans-52"/>
     <path d="M 19.671875 34.8125 
L 19.671875 8.109375 
L 35.5 8.109375 
Q 43.453125 8.109375 47.28125 11.40625 
Q 51.125 14.703125 51.125 21.484375 
Q 51.125 28.328125 47.28125 31.5625 
Q 43.453125 34.8125 35.5 34.8125 
z
M 19.671875 64.796875 
L 19.671875 42.828125 
L 34.28125 42.828125 
Q 41.5 42.828125 45.03125 45.53125 
Q 48.578125 48.25 48.578125 53.8125 
Q 48.578125 59.328125 45.03125 62.0625 
Q 41.5 64.796875 34.28125 64.796875 
z
M 9.8125 72.90625 
L 35.015625 72.90625 
Q 46.296875 72.90625 52.390625 68.21875 
Q 58.5 63.53125 58.5 54.890625 
Q 58.5 48.1875 55.375 44.234375 
Q 52.25 40.28125 46.1875 39.3125 
Q 53.46875 37.75 57.5 32.78125 
Q 61.53125 27.828125 61.53125 20.40625 
Q 61.53125 10.640625 54.890625 5.3125 
Q 48.25 0 35.984375 0 
L 9.8125 0 
z
" id="DejaVuSans-66"/>
     <path d="M 54.890625 33.015625 
L 54.890625 0 
L 45.90625 0 
L 45.90625 32.71875 
Q 45.90625 40.484375 42.875 44.328125 
Q 39.84375 48.1875 33.796875 48.1875 
Q 26.515625 48.1875 22.3125 43.546875 
Q 18.109375 38.921875 18.109375 30.90625 
L 18.109375 0 
L 9.078125 0 
L 9.078125 54.6875 
L 18.109375 54.6875 
L 18.109375 46.1875 
Q 21.34375 51.125 25.703125 53.5625 
Q 30.078125 56 35.796875 56 
Q 45.21875 56 50.046875 50.171875 
Q 54.890625 44.34375 54.890625 33.015625 
z
" id="DejaVuSans-110"/>
     <path d="M 48.78125 52.59375 
L 48.78125 44.1875 
Q 44.96875 46.296875 41.140625 47.34375 
Q 37.3125 48.390625 33.40625 48.390625 
Q 24.65625 48.390625 19.8125 42.84375 
Q 14.984375 37.3125 14.984375 27.296875 
Q 14.984375 17.28125 19.8125 11.734375 
Q 24.65625 6.203125 33.40625 6.203125 
Q 37.3125 6.203125 41.140625 7.25 
Q 44.96875 8.296875 48.78125 10.40625 
L 48.78125 2.09375 
Q 45.015625 0.34375 40.984375 -0.53125 
Q 36.96875 -1.421875 32.421875 -1.421875 
Q 20.0625 -1.421875 12.78125 6.34375 
Q 5.515625 14.109375 5.515625 27.296875 
Q 5.515625 40.671875 12.859375 48.328125 
Q 20.21875 56 33.015625 56 
Q 37.15625 56 41.109375 55.140625 
Q 45.0625 54.296875 48.78125 52.59375 
z
" id="DejaVuSans-99"/>
     <path d="M 54.890625 33.015625 
L 54.890625 0 
L 45.90625 0 
L 45.90625 32.71875 
Q 45.90625 40.484375 42.875 44.328125 
Q 39.84375 48.1875 33.796875 48.1875 
Q 26.515625 48.1875 22.3125 43.546875 
Q 18.109375 38.921875 18.109375 30.90625 
L 18.109375 0 
L 9.078125 0 
L 9.078125 75.984375 
L 18.109375 75.984375 
L 18.109375 46.1875 
Q 21.34375 51.125 25.703125 53.5625 
Q 30.078125 56 35.796875 56 
Q 45.21875 56 50.046875 50.171875 
Q 54.890625 44.34375 54.890625 33.015625 
z
" id="DejaVuSans-104"/>
     <path d="M 41.109375 46.296875 
Q 39.59375 47.171875 37.8125 47.578125 
Q 36.03125 48 33.890625 48 
Q 26.265625 48 22.1875 43.046875 
Q 18.109375 38.09375 18.109375 28.8125 
L 18.109375 0 
L 9.078125 0 
L 9.078125 54.6875 
L 18.109375 54.6875 
L 18.109375 46.1875 
Q 20.953125 51.171875 25.484375 53.578125 
Q 30.03125 56 36.53125 56 
Q 37.453125 56 38.578125 55.875 
Q 39.703125 55.765625 41.0625 55.515625 
z
" id="DejaVuSans-114"/>
     <path d="M 9.078125 75.984375 
L 18.109375 75.984375 
L 18.109375 31.109375 
L 44.921875 54.6875 
L 56.390625 54.6875 
L 27.390625 29.109375 
L 57.625 0 
L 45.90625 0 
L 18.109375 26.703125 
L 18.109375 0 
L 9.078125 0 
z
" id="DejaVuSans-107"/>
     <path d="M 4.890625 31.390625 
L 31.203125 31.390625 
L 31.203125 23.390625 
L 4.890625 23.390625 
z
" id="DejaVuSans-45"/>
     <path d="M 53.515625 70.515625 
L 53.515625 60.890625 
Q 47.90625 63.578125 42.921875 64.890625 
Q 37.9375 66.21875 33.296875 66.21875 
Q 25.25 66.21875 20.875 63.09375 
Q 16.5 59.96875 16.5 54.203125 
Q 16.5 49.359375 19.40625 46.890625 
Q 22.3125 44.4375 30.421875 42.921875 
L 36.375 41.703125 
Q 47.40625 39.59375 52.65625 34.296875 
Q 57.90625 29 57.90625 20.125 
Q 57.90625 9.515625 50.796875 4.046875 
Q 43.703125 -1.421875 29.984375 -1.421875 
Q 24.8125 -1.421875 18.96875 -0.25 
Q 13.140625 0.921875 6.890625 3.21875 
L 6.890625 13.375 
Q 12.890625 10.015625 18.65625 8.296875 
Q 24.421875 6.59375 29.984375 6.59375 
Q 38.421875 6.59375 43.015625 9.90625 
Q 47.609375 13.234375 47.609375 19.390625 
Q 47.609375 24.75 44.3125 27.78125 
Q 41.015625 30.8125 33.5 32.328125 
L 27.484375 33.5 
Q 16.453125 35.6875 11.515625 40.375 
Q 6.59375 45.0625 6.59375 53.421875 
Q 6.59375 63.09375 13.40625 68.65625 
Q 20.21875 74.21875 32.171875 74.21875 
Q 37.3125 74.21875 42.625 73.28125 
Q 47.953125 72.359375 53.515625 70.515625 
z
" id="DejaVuSans-83"/>
     <path d="M 33.015625 40.375 
Q 26.375 40.375 22.484375 35.828125 
Q 18.609375 31.296875 18.609375 23.390625 
Q 18.609375 15.53125 22.484375 10.953125 
Q 26.375 6.390625 33.015625 6.390625 
Q 39.65625 6.390625 43.53125 10.953125 
Q 47.40625 15.53125 47.40625 23.390625 
Q 47.40625 31.296875 43.53125 35.828125 
Q 39.65625 40.375 33.015625 40.375 
z
M 52.59375 71.296875 
L 52.59375 62.3125 
Q 48.875 64.0625 45.09375 64.984375 
Q 41.3125 65.921875 37.59375 65.921875 
Q 27.828125 65.921875 22.671875 59.328125 
Q 17.53125 52.734375 16.796875 39.40625 
Q 19.671875 43.65625 24.015625 45.921875 
Q 28.375 48.1875 33.59375 48.1875 
Q 44.578125 48.1875 50.953125 41.515625 
Q 57.328125 34.859375 57.328125 23.390625 
Q 57.328125 12.15625 50.6875 5.359375 
Q 44.046875 -1.421875 33.015625 -1.421875 
Q 20.359375 -1.421875 13.671875 8.265625 
Q 6.984375 17.96875 6.984375 36.375 
Q 6.984375 53.65625 15.1875 63.9375 
Q 23.390625 74.21875 37.203125 74.21875 
Q 40.921875 74.21875 44.703125 73.484375 
Q 48.484375 72.75 52.59375 71.296875 
z
" id="DejaVuSans-54"/>
     <path d="M 10.984375 1.515625 
L 10.984375 10.5 
Q 14.703125 8.734375 18.5 7.8125 
Q 22.3125 6.890625 25.984375 6.890625 
Q 35.75 6.890625 40.890625 13.453125 
Q 46.046875 20.015625 46.78125 33.40625 
Q 43.953125 29.203125 39.59375 26.953125 
Q 35.25 24.703125 29.984375 24.703125 
Q 19.046875 24.703125 12.671875 31.3125 
Q 6.296875 37.9375 6.296875 49.421875 
Q 6.296875 60.640625 12.9375 67.421875 
Q 19.578125 74.21875 30.609375 74.21875 
Q 43.265625 74.21875 49.921875 64.515625 
Q 56.59375 54.828125 56.59375 36.375 
Q 56.59375 19.140625 48.40625 8.859375 
Q 40.234375 -1.421875 26.421875 -1.421875 
Q 22.703125 -1.421875 18.890625 -0.6875 
Q 15.09375 0.046875 10.984375 1.515625 
z
M 30.609375 32.421875 
Q 37.25 32.421875 41.125 36.953125 
Q 45.015625 41.5 45.015625 49.421875 
Q 45.015625 57.28125 41.125 61.84375 
Q 37.25 66.40625 30.609375 66.40625 
Q 23.96875 66.40625 20.09375 61.84375 
Q 16.21875 57.28125 16.21875 49.421875 
Q 16.21875 41.5 20.09375 36.953125 
Q 23.96875 32.421875 30.609375 32.421875 
z
" id="DejaVuSans-57"/>
     <path d="M 10.6875 12.40625 
L 21 12.40625 
L 21 0 
L 10.6875 0 
z
" id="DejaVuSans-46"/>
     <path d="M 2.984375 54.6875 
L 12.5 54.6875 
L 29.59375 8.796875 
L 46.6875 54.6875 
L 56.203125 54.6875 
L 35.6875 0 
L 23.484375 0 
z
" id="DejaVuSans-118"/>
    </defs>
    <g transform="translate(371.555625 45.84)scale(0.12 -0.12)">
     <use xlink:href="#DejaVuSans-65"/>
     <use x="68.408203" xlink:href="#DejaVuSans-52"/>
     <use x="132.03125" xlink:href="#DejaVuSans-66"/>
     <use x="200.634766" xlink:href="#DejaVuSans-101"/>
     <use x="262.158203" xlink:href="#DejaVuSans-110"/>
     <use x="325.537109" xlink:href="#DejaVuSans-99"/>
     <use x="380.517578" xlink:href="#DejaVuSans-104"/>
     <use x="443.896484" xlink:href="#DejaVuSans-109"/>
     <use x="541.308594" xlink:href="#DejaVuSans-97"/>
     <use x="602.587891" xlink:href="#DejaVuSans-114"/>
     <use x="643.701172" xlink:href="#DejaVuSans-107"/>
     <use x="701.611328" xlink:href="#DejaVuSans-45"/>
     <use x="737.554688" xlink:href="#DejaVuSans-84"/>
     <use x="798.638672" xlink:href="#DejaVuSans-83"/>
     <use x="862.115234" xlink:href="#DejaVuSans-54"/>
     <use x="925.738281" xlink:href="#DejaVuSans-57"/>
     <use x="989.361328" xlink:href="#DejaVuSans-46"/>
     <use x="1021.148438" xlink:href="#DejaVuSans-99"/>
     <use x="1076.128906" xlink:href="#DejaVuSans-115"/>
     <use x="1128.228516" xlink:href="#DejaVuSans-118"/>
    </g>
   </g>
   <g id="legend_1">
    <g id="patch_49">
     <path d="M 115 74.518125 
L 174.315625 74.518125 
Q 176.315625 74.518125 176.315625 72.518125 
L 176.315625 58.84 
Q 176.315625 56.84 174.315625 56.84 
L 115 56.84 
Q 113 56.84 113 58.84 
L 113 72.518125 
Q 113 74.518125 115 74.518125 
z
" style="fill:#ffffff;opacity:0.8;stroke:#cccccc;stroke-linejoin:miter;"/>
    </g>
    <g id="line2d_17">
     <path d="M 117 64.938438 
L 137 64.938438 
" style="fill:none;stroke:#1f77b4;stroke-linecap:square;stroke-width:1.5;"/>
    </g>
    <g id="line2d_18"/>
    <g id="text_18">
     <!-- value -->
     <g transform="translate(145 68.438438)scale(0.1 -0.1)">
      <use xlink:href="#DejaVuSans-118"/>
      <use x="59.179688" xlink:href="#DejaVuSans-97"/>
      <use x="120.458984" xlink:href="#DejaVuSans-108"/>
      <use x="148.242188" xlink:href="#DejaVuSans-117"/>
      <use x="211.621094" xlink:href="#DejaVuSans-101"/>
     </g>
    </g>
   </g>
  </g>
 </g>
 <defs>
  <clipPath id="pc36e30b1c4">
   <rect height="332.64" width="669.6" x="108" y="51.84"/>
  </clipPath>
 </defs>
</svg>
