<?xml version="1.0" encoding="utf-8" standalone="no"?>
<!DOCTYPE svg PUBLIC "-//W3C//DTD SVG 1.1//EN"
  "http://www.w3.org/Graphics/SVG/1.1/DTD/svg11.dtd">
<!-- Created with matplotlib (https://matplotlib.org/) -->
<svg height="432pt" version="1.1" viewBox="0 0 864 432" width="864pt" xmlns="http://www.w3.org/2000/svg" xmlns:xlink="http://www.w3.org/1999/xlink">
 <defs>
  <style type="text/css">
*{stroke-linecap:butt;stroke-linejoin:round;}
  </style>
 </defs>
 <g id="figure_1">
  <g id="patch_1">
   <path d="M 0 432 
L 864 432 
L 864 0 
L 0 0 
z
" style="fill:#ffffff;"/>
  </g>
  <g id="axes_1">
   <g id="patch_2">
    <path d="M 108 384.48 
L 777.6 384.48 
L 777.6 51.84 
L 108 51.84 
z
" style="fill:#ffffff;"/>
   </g>
   <g id="patch_3">
    <path clip-path="url(#pef38ec1f89)" d="M 138.436364 384.48 
L 138.436364 51.84 
L 377.579221 51.84 
L 377.579221 384.48 
z
" style="fill:#0000ff;opacity:0.05;"/>
   </g>
   <g id="patch_4">
    <path clip-path="url(#pef38ec1f89)" d="M 377.579221 384.48 
L 377.579221 51.84 
L 747.163636 51.84 
L 747.163636 384.48 
z
" style="fill:#ff0000;opacity:0.08;"/>
   </g>
   <g id="patch_5">
    <path clip-path="url(#pef38ec1f89)" d="M 138.436364 384.48 
L 138.436364 51.84 
L 149.306494 51.84 
L 149.306494 384.48 
z
" style="fill:#008000;opacity:0.04;"/>
   </g>
   <g id="patch_6">
    <path clip-path="url(#pef38ec1f89)" d="M 377.579221 384.48 
L 377.579221 371.1744 
L 388.449351 371.1744 
L 388.449351 384.48 
z
" style="fill:#ff6600;"/>
   </g>
   <g id="patch_7">
    <path clip-path="url(#pef38ec1f89)" d="M 160.176623 384.48 
L 160.176623 51.84 
L 171.046753 51.84 
L 171.046753 384.48 
z
" style="fill:#008000;opacity:0.04;"/>
   </g>
   <g id="patch_8">
    <path clip-path="url(#pef38ec1f89)" d="M 160.176623 371.1744 
L 160.176623 51.84 
L 171.046753 51.84 
L 171.046753 371.1744 
z
" style="fill:#008000;opacity:0.5;"/>
   </g>
   <g id="patch_9">
    <path clip-path="url(#pef38ec1f89)" d="M 181.916883 384.48 
L 181.916883 51.84 
L 192.787013 51.84 
L 192.787013 384.48 
z
" style="fill:#008000;opacity:0.04;"/>
   </g>
   <g id="patch_10">
    <path clip-path="url(#pef38ec1f89)" d="M 203.657143 384.48 
L 203.657143 51.84 
L 214.527273 51.84 
L 214.527273 384.48 
z
" style="fill:#008000;opacity:0.04;"/>
   </g>
   <g id="patch_11">
    <path clip-path="url(#pef38ec1f89)" d="M 214.527273 371.1744 
L 214.527273 51.84 
L 225.397403 51.84 
L 225.397403 371.1744 
z
" style="fill:#008000;opacity:0.5;"/>
   </g>
   <g id="patch_12">
    <path clip-path="url(#pef38ec1f89)" d="M 225.397403 384.48 
L 225.397403 51.84 
L 236.267532 51.84 
L 236.267532 384.48 
z
" style="fill:#008000;opacity:0.04;"/>
   </g>
   <g id="patch_13">
    <path clip-path="url(#pef38ec1f89)" d="M 247.137662 384.48 
L 247.137662 51.84 
L 258.007792 51.84 
L 258.007792 384.48 
z
" style="fill:#008000;opacity:0.04;"/>
   </g>
   <g id="patch_14">
    <path clip-path="url(#pef38ec1f89)" d="M 268.877922 384.48 
L 268.877922 51.84 
L 279.748052 51.84 
L 279.748052 384.48 
z
" style="fill:#008000;opacity:0.04;"/>
   </g>
   <g id="patch_15">
    <path clip-path="url(#pef38ec1f89)" d="M 290.618182 384.48 
L 290.618182 51.84 
L 301.488312 51.84 
L 301.488312 384.48 
z
" style="fill:#008000;opacity:0.04;"/>
   </g>
   <g id="patch_16">
    <path clip-path="url(#pef38ec1f89)" d="M 290.618182 371.1744 
L 290.618182 51.84 
L 301.488312 51.84 
L 301.488312 371.1744 
z
" style="fill:#008000;opacity:0.5;"/>
   </g>
   <g id="patch_17">
    <path clip-path="url(#pef38ec1f89)" d="M 290.618182 384.48 
L 290.618182 371.1744 
L 301.488312 371.1744 
L 301.488312 384.48 
z
" style="fill:#ffe500;"/>
   </g>
   <g id="patch_18">
    <path clip-path="url(#pef38ec1f89)" d="M 540.631169 384.48 
L 540.631169 371.1744 
L 551.501299 371.1744 
L 551.501299 384.48 
z
" style="fill:#ff6600;"/>
   </g>
   <g id="patch_19">
    <path clip-path="url(#pef38ec1f89)" d="M 312.358442 384.48 
L 312.358442 51.84 
L 323.228571 51.84 
L 323.228571 384.48 
z
" style="fill:#008000;opacity:0.04;"/>
   </g>
   <g id="patch_20">
    <path clip-path="url(#pef38ec1f89)" d="M 551.501299 384.48 
L 551.501299 371.1744 
L 562.371429 371.1744 
L 562.371429 384.48 
z
" style="fill:#ff6600;"/>
   </g>
   <g id="patch_21">
    <path clip-path="url(#pef38ec1f89)" d="M 334.098701 384.48 
L 334.098701 51.84 
L 344.968831 51.84 
L 344.968831 384.48 
z
" style="fill:#008000;opacity:0.04;"/>
   </g>
   <g id="patch_22">
    <path clip-path="url(#pef38ec1f89)" d="M 344.968831 371.1744 
L 344.968831 51.84 
L 355.838961 51.84 
L 355.838961 371.1744 
z
" style="fill:#008000;opacity:0.5;"/>
   </g>
   <g id="patch_23">
    <path clip-path="url(#pef38ec1f89)" d="M 355.838961 384.48 
L 355.838961 51.84 
L 366.709091 51.84 
L 366.709091 384.48 
z
" style="fill:#008000;opacity:0.04;"/>
   </g>
   <g id="patch_24">
    <path clip-path="url(#pef38ec1f89)" d="M 355.838961 371.1744 
L 355.838961 51.84 
L 366.709091 51.84 
L 366.709091 371.1744 
z
" style="fill:#008000;opacity:0.5;"/>
   </g>
   <g id="patch_25">
    <path clip-path="url(#pef38ec1f89)" d="M 355.838961 384.48 
L 355.838961 371.1744 
L 366.709091 371.1744 
L 366.709091 384.48 
z
" style="fill:#ffe500;"/>
   </g>
   <g id="patch_26">
    <path clip-path="url(#pef38ec1f89)" d="M 377.579221 384.48 
L 377.579221 51.84 
L 388.449351 51.84 
L 388.449351 384.48 
z
" style="fill:#008000;opacity:0.04;"/>
   </g>
   <g id="patch_27">
    <path clip-path="url(#pef38ec1f89)" d="M 377.579221 371.1744 
L 377.579221 51.84 
L 388.449351 51.84 
L 388.449351 371.1744 
z
" style="fill:#008000;opacity:0.5;"/>
   </g>
   <g id="patch_28">
    <path clip-path="url(#pef38ec1f89)" d="M 388.449351 371.1744 
L 388.449351 51.84 
L 399.319481 51.84 
L 399.319481 371.1744 
z
" style="fill:#008000;opacity:0.5;"/>
   </g>
   <g id="patch_29">
    <path clip-path="url(#pef38ec1f89)" d="M 399.319481 384.48 
L 399.319481 51.84 
L 410.18961 51.84 
L 410.18961 384.48 
z
" style="fill:#008000;opacity:0.04;"/>
   </g>
   <g id="patch_30">
    <path clip-path="url(#pef38ec1f89)" d="M 421.05974 384.48 
L 421.05974 51.84 
L 431.92987 51.84 
L 431.92987 384.48 
z
" style="fill:#008000;opacity:0.04;"/>
   </g>
   <g id="patch_31">
    <path clip-path="url(#pef38ec1f89)" d="M 431.92987 371.1744 
L 431.92987 51.84 
L 442.8 51.84 
L 442.8 371.1744 
z
" style="fill:#008000;opacity:0.5;"/>
   </g>
   <g id="patch_32">
    <path clip-path="url(#pef38ec1f89)" d="M 442.8 384.48 
L 442.8 51.84 
L 453.67013 51.84 
L 453.67013 384.48 
z
" style="fill:#008000;opacity:0.04;"/>
   </g>
   <g id="patch_33">
    <path clip-path="url(#pef38ec1f89)" d="M 464.54026 384.48 
L 464.54026 51.84 
L 475.41039 51.84 
L 475.41039 384.48 
z
" style="fill:#008000;opacity:0.04;"/>
   </g>
   <g id="patch_34">
    <path clip-path="url(#pef38ec1f89)" d="M 486.280519 384.48 
L 486.280519 51.84 
L 497.150649 51.84 
L 497.150649 384.48 
z
" style="fill:#008000;opacity:0.04;"/>
   </g>
   <g id="patch_35">
    <path clip-path="url(#pef38ec1f89)" d="M 508.020779 384.48 
L 508.020779 51.84 
L 518.890909 51.84 
L 518.890909 384.48 
z
" style="fill:#008000;opacity:0.04;"/>
   </g>
   <g id="patch_36">
    <path clip-path="url(#pef38ec1f89)" d="M 508.020779 371.1744 
L 508.020779 51.84 
L 518.890909 51.84 
L 518.890909 371.1744 
z
" style="fill:#008000;opacity:0.5;"/>
   </g>
   <g id="patch_37">
    <path clip-path="url(#pef38ec1f89)" d="M 529.761039 384.48 
L 529.761039 51.84 
L 540.631169 51.84 
L 540.631169 384.48 
z
" style="fill:#008000;opacity:0.04;"/>
   </g>
   <g id="patch_38">
    <path clip-path="url(#pef38ec1f89)" d="M 540.631169 371.1744 
L 540.631169 51.84 
L 551.501299 51.84 
L 551.501299 371.1744 
z
" style="fill:#008000;opacity:0.5;"/>
   </g>
   <g id="patch_39">
    <path clip-path="url(#pef38ec1f89)" d="M 540.631169 371.1744 
L 540.631169 357.8688 
L 551.501299 357.8688 
L 551.501299 371.1744 
z
" style="fill:#ff00ff;"/>
   </g>
   <g id="patch_40">
    <path clip-path="url(#pef38ec1f89)" d="M 551.501299 384.48 
L 551.501299 51.84 
L 562.371429 51.84 
L 562.371429 384.48 
z
" style="fill:#008000;opacity:0.04;"/>
   </g>
   <g id="patch_41">
    <path clip-path="url(#pef38ec1f89)" d="M 562.371429 371.1744 
L 562.371429 51.84 
L 573.241558 51.84 
L 573.241558 371.1744 
z
" style="fill:#008000;opacity:0.5;"/>
   </g>
   <g id="patch_42">
    <path clip-path="url(#pef38ec1f89)" d="M 573.241558 384.48 
L 573.241558 51.84 
L 584.111688 51.84 
L 584.111688 384.48 
z
" style="fill:#008000;opacity:0.04;"/>
   </g>
   <g id="patch_43">
    <path clip-path="url(#pef38ec1f89)" d="M 584.111688 371.1744 
L 584.111688 51.84 
L 594.981818 51.84 
L 594.981818 371.1744 
z
" style="fill:#008000;opacity:0.5;"/>
   </g>
   <g id="patch_44">
    <path clip-path="url(#pef38ec1f89)" d="M 594.981818 384.48 
L 594.981818 51.84 
L 605.851948 51.84 
L 605.851948 384.48 
z
" style="fill:#008000;opacity:0.04;"/>
   </g>
   <g id="patch_45">
    <path clip-path="url(#pef38ec1f89)" d="M 605.851948 371.1744 
L 605.851948 51.84 
L 616.722078 51.84 
L 616.722078 371.1744 
z
" style="fill:#008000;opacity:0.5;"/>
   </g>
   <g id="patch_46">
    <path clip-path="url(#pef38ec1f89)" d="M 616.722078 384.48 
L 616.722078 51.84 
L 627.592208 51.84 
L 627.592208 384.48 
z
" style="fill:#008000;opacity:0.04;"/>
   </g>
   <g id="patch_47">
    <path clip-path="url(#pef38ec1f89)" d="M 616.722078 371.1744 
L 616.722078 51.84 
L 627.592208 51.84 
L 627.592208 371.1744 
z
" style="fill:#008000;opacity:0.5;"/>
   </g>
   <g id="patch_48">
    <path clip-path="url(#pef38ec1f89)" d="M 638.462338 384.48 
L 638.462338 51.84 
L 649.332468 51.84 
L 649.332468 384.48 
z
" style="fill:#008000;opacity:0.04;"/>
   </g>
   <g id="patch_49">
    <path clip-path="url(#pef38ec1f89)" d="M 660.202597 384.48 
L 660.202597 51.84 
L 671.072727 51.84 
L 671.072727 384.48 
z
" style="fill:#008000;opacity:0.04;"/>
   </g>
   <g id="patch_50">
    <path clip-path="url(#pef38ec1f89)" d="M 681.942857 384.48 
L 681.942857 51.84 
L 692.812987 51.84 
L 692.812987 384.48 
z
" style="fill:#008000;opacity:0.04;"/>
   </g>
   <g id="patch_51">
    <path clip-path="url(#pef38ec1f89)" d="M 703.683117 384.48 
L 703.683117 51.84 
L 714.553247 51.84 
L 714.553247 384.48 
z
" style="fill:#008000;opacity:0.04;"/>
   </g>
   <g id="patch_52">
    <path clip-path="url(#pef38ec1f89)" d="M 725.423377 384.48 
L 725.423377 51.84 
L 736.293506 51.84 
L 736.293506 384.48 
z
" style="fill:#008000;opacity:0.04;"/>
   </g>
   <g id="patch_53">
    <path clip-path="url(#pef38ec1f89)" d="M 736.293506 371.1744 
L 736.293506 51.84 
L 747.163636 51.84 
L 747.163636 371.1744 
z
" style="fill:#008000;opacity:0.5;"/>
   </g>
   <g id="matplotlib.axis_1">
    <g id="xtick_1">
     <g id="line2d_1">
      <defs>
       <path d="M 0 0 
L 0 3.5 
" id="m492817d358" style="stroke:#000000;stroke-width:0.8;"/>
      </defs>
      <g>
       <use style="stroke:#000000;stroke-width:0.8;" x="138.436364" xlink:href="#m492817d358" y="384.48"/>
      </g>
     </g>
     <g id="text_1">
      <!-- 0 -->
      <defs>
       <path d="M 31.78125 66.40625 
Q 24.171875 66.40625 20.328125 58.90625 
Q 16.5 51.421875 16.5 36.375 
Q 16.5 21.390625 20.328125 13.890625 
Q 24.171875 6.390625 31.78125 6.390625 
Q 39.453125 6.390625 43.28125 13.890625 
Q 47.125 21.390625 47.125 36.375 
Q 47.125 51.421875 43.28125 58.90625 
Q 39.453125 66.40625 31.78125 66.40625 
z
M 31.78125 74.21875 
Q 44.046875 74.21875 50.515625 64.515625 
Q 56.984375 54.828125 56.984375 36.375 
Q 56.984375 17.96875 50.515625 8.265625 
Q 44.046875 -1.421875 31.78125 -1.421875 
Q 19.53125 -1.421875 13.0625 8.265625 
Q 6.59375 17.96875 6.59375 36.375 
Q 6.59375 54.828125 13.0625 64.515625 
Q 19.53125 74.21875 31.78125 74.21875 
z
" id="DejaVuSans-48"/>
      </defs>
      <g transform="translate(135.255114 399.078438)scale(0.1 -0.1)">
       <use xlink:href="#DejaVuSans-48"/>
      </g>
     </g>
    </g>
    <g id="xtick_2">
     <g id="line2d_2">
      <g>
       <use style="stroke:#000000;stroke-width:0.8;" x="229.020779" xlink:href="#m492817d358" y="384.48"/>
      </g>
     </g>
     <g id="text_2">
      <!-- 250 -->
      <defs>
       <path d="M 19.1875 8.296875 
L 53.609375 8.296875 
L 53.609375 0 
L 7.328125 0 
L 7.328125 8.296875 
Q 12.9375 14.109375 22.625 23.890625 
Q 32.328125 33.6875 34.8125 36.53125 
Q 39.546875 41.84375 41.421875 45.53125 
Q 43.3125 49.21875 43.3125 52.78125 
Q 43.3125 58.59375 39.234375 62.25 
Q 35.15625 65.921875 28.609375 65.921875 
Q 23.96875 65.921875 18.8125 64.3125 
Q 13.671875 62.703125 7.8125 59.421875 
L 7.8125 69.390625 
Q 13.765625 71.78125 18.9375 73 
Q 24.125 74.21875 28.421875 74.21875 
Q 39.75 74.21875 46.484375 68.546875 
Q 53.21875 62.890625 53.21875 53.421875 
Q 53.21875 48.921875 51.53125 44.890625 
Q 49.859375 40.875 45.40625 35.40625 
Q 44.1875 33.984375 37.640625 27.21875 
Q 31.109375 20.453125 19.1875 8.296875 
z
" id="DejaVuSans-50"/>
       <path d="M 10.796875 72.90625 
L 49.515625 72.90625 
L 49.515625 64.59375 
L 19.828125 64.59375 
L 19.828125 46.734375 
Q 21.96875 47.46875 24.109375 47.828125 
Q 26.265625 48.1875 28.421875 48.1875 
Q 40.625 48.1875 47.75 41.5 
Q 54.890625 34.8125 54.890625 23.390625 
Q 54.890625 11.625 47.5625 5.09375 
Q 40.234375 -1.421875 26.90625 -1.421875 
Q 22.3125 -1.421875 17.546875 -0.640625 
Q 12.796875 0.140625 7.71875 1.703125 
L 7.71875 11.625 
Q 12.109375 9.234375 16.796875 8.0625 
Q 21.484375 6.890625 26.703125 6.890625 
Q 35.15625 6.890625 40.078125 11.328125 
Q 45.015625 15.765625 45.015625 23.390625 
Q 45.015625 31 40.078125 35.4375 
Q 35.15625 39.890625 26.703125 39.890625 
Q 22.75 39.890625 18.8125 39.015625 
Q 14.890625 38.140625 10.796875 36.28125 
z
" id="DejaVuSans-53"/>
      </defs>
      <g transform="translate(219.477029 399.078438)scale(0.1 -0.1)">
       <use xlink:href="#DejaVuSans-50"/>
       <use x="63.623047" xlink:href="#DejaVuSans-53"/>
       <use x="127.246094" xlink:href="#DejaVuSans-48"/>
      </g>
     </g>
    </g>
    <g id="xtick_3">
     <g id="line2d_3">
      <g>
       <use style="stroke:#000000;stroke-width:0.8;" x="319.605195" xlink:href="#m492817d358" y="384.48"/>
      </g>
     </g>
     <g id="text_3">
      <!-- 500 -->
      <g transform="translate(310.061445 399.078438)scale(0.1 -0.1)">
       <use xlink:href="#DejaVuSans-53"/>
       <use x="63.623047" xlink:href="#DejaVuSans-48"/>
       <use x="127.246094" xlink:href="#DejaVuSans-48"/>
      </g>
     </g>
    </g>
    <g id="xtick_4">
     <g id="line2d_4">
      <g>
       <use style="stroke:#000000;stroke-width:0.8;" x="410.18961" xlink:href="#m492817d358" y="384.48"/>
      </g>
     </g>
     <g id="text_4">
      <!-- 750 -->
      <defs>
       <path d="M 8.203125 72.90625 
L 55.078125 72.90625 
L 55.078125 68.703125 
L 28.609375 0 
L 18.3125 0 
L 43.21875 64.59375 
L 8.203125 64.59375 
z
" id="DejaVuSans-55"/>
      </defs>
      <g transform="translate(400.64586 399.078438)scale(0.1 -0.1)">
       <use xlink:href="#DejaVuSans-55"/>
       <use x="63.623047" xlink:href="#DejaVuSans-53"/>
       <use x="127.246094" xlink:href="#DejaVuSans-48"/>
      </g>
     </g>
    </g>
    <g id="xtick_5">
     <g id="line2d_5">
      <g>
       <use style="stroke:#000000;stroke-width:0.8;" x="500.774026" xlink:href="#m492817d358" y="384.48"/>
      </g>
     </g>
     <g id="text_5">
      <!-- 1000 -->
      <defs>
       <path d="M 12.40625 8.296875 
L 28.515625 8.296875 
L 28.515625 63.921875 
L 10.984375 60.40625 
L 10.984375 69.390625 
L 28.421875 72.90625 
L 38.28125 72.90625 
L 38.28125 8.296875 
L 54.390625 8.296875 
L 54.390625 0 
L 12.40625 0 
z
" id="DejaVuSans-49"/>
      </defs>
      <g transform="translate(488.049026 399.078438)scale(0.1 -0.1)">
       <use xlink:href="#DejaVuSans-49"/>
       <use x="63.623047" xlink:href="#DejaVuSans-48"/>
       <use x="127.246094" xlink:href="#DejaVuSans-48"/>
       <use x="190.869141" xlink:href="#DejaVuSans-48"/>
      </g>
     </g>
    </g>
    <g id="xtick_6">
     <g id="line2d_6">
      <g>
       <use style="stroke:#000000;stroke-width:0.8;" x="591.358442" xlink:href="#m492817d358" y="384.48"/>
      </g>
     </g>
     <g id="text_6">
      <!-- 1250 -->
      <g transform="translate(578.633442 399.078438)scale(0.1 -0.1)">
       <use xlink:href="#DejaVuSans-49"/>
       <use x="63.623047" xlink:href="#DejaVuSans-50"/>
       <use x="127.246094" xlink:href="#DejaVuSans-53"/>
       <use x="190.869141" xlink:href="#DejaVuSans-48"/>
      </g>
     </g>
    </g>
    <g id="xtick_7">
     <g id="line2d_7">
      <g>
       <use style="stroke:#000000;stroke-width:0.8;" x="681.942857" xlink:href="#m492817d358" y="384.48"/>
      </g>
     </g>
     <g id="text_7">
      <!-- 1500 -->
      <g transform="translate(669.217857 399.078438)scale(0.1 -0.1)">
       <use xlink:href="#DejaVuSans-49"/>
       <use x="63.623047" xlink:href="#DejaVuSans-53"/>
       <use x="127.246094" xlink:href="#DejaVuSans-48"/>
       <use x="190.869141" xlink:href="#DejaVuSans-48"/>
      </g>
     </g>
    </g>
    <g id="xtick_8">
     <g id="line2d_8">
      <g>
       <use style="stroke:#000000;stroke-width:0.8;" x="772.527273" xlink:href="#m492817d358" y="384.48"/>
      </g>
     </g>
     <g id="text_8">
      <!-- 1750 -->
      <g transform="translate(759.802273 399.078438)scale(0.1 -0.1)">
       <use xlink:href="#DejaVuSans-49"/>
       <use x="63.623047" xlink:href="#DejaVuSans-55"/>
       <use x="127.246094" xlink:href="#DejaVuSans-53"/>
       <use x="190.869141" xlink:href="#DejaVuSans-48"/>
      </g>
     </g>
    </g>
    <g id="text_9">
     <!-- Timestamp -->
     <defs>
      <path d="M -0.296875 72.90625 
L 61.375 72.90625 
L 61.375 64.59375 
L 35.5 64.59375 
L 35.5 0 
L 25.59375 0 
L 25.59375 64.59375 
L -0.296875 64.59375 
z
" id="DejaVuSans-84"/>
      <path d="M 9.421875 54.6875 
L 18.40625 54.6875 
L 18.40625 0 
L 9.421875 0 
z
M 9.421875 75.984375 
L 18.40625 75.984375 
L 18.40625 64.59375 
L 9.421875 64.59375 
z
" id="DejaVuSans-105"/>
      <path d="M 52 44.1875 
Q 55.375 50.25 60.0625 53.125 
Q 64.75 56 71.09375 56 
Q 79.640625 56 84.28125 50.015625 
Q 88.921875 44.046875 88.921875 33.015625 
L 88.921875 0 
L 79.890625 0 
L 79.890625 32.71875 
Q 79.890625 40.578125 77.09375 44.375 
Q 74.3125 48.1875 68.609375 48.1875 
Q 61.625 48.1875 57.5625 43.546875 
Q 53.515625 38.921875 53.515625 30.90625 
L 53.515625 0 
L 44.484375 0 
L 44.484375 32.71875 
Q 44.484375 40.625 41.703125 44.40625 
Q 38.921875 48.1875 33.109375 48.1875 
Q 26.21875 48.1875 22.15625 43.53125 
Q 18.109375 38.875 18.109375 30.90625 
L 18.109375 0 
L 9.078125 0 
L 9.078125 54.6875 
L 18.109375 54.6875 
L 18.109375 46.1875 
Q 21.1875 51.21875 25.484375 53.609375 
Q 29.78125 56 35.6875 56 
Q 41.65625 56 45.828125 52.96875 
Q 50 49.953125 52 44.1875 
z
" id="DejaVuSans-109"/>
      <path d="M 56.203125 29.59375 
L 56.203125 25.203125 
L 14.890625 25.203125 
Q 15.484375 15.921875 20.484375 11.0625 
Q 25.484375 6.203125 34.421875 6.203125 
Q 39.59375 6.203125 44.453125 7.46875 
Q 49.3125 8.734375 54.109375 11.28125 
L 54.109375 2.78125 
Q 49.265625 0.734375 44.1875 -0.34375 
Q 39.109375 -1.421875 33.890625 -1.421875 
Q 20.796875 -1.421875 13.15625 6.1875 
Q 5.515625 13.8125 5.515625 26.8125 
Q 5.515625 40.234375 12.765625 48.109375 
Q 20.015625 56 32.328125 56 
Q 43.359375 56 49.78125 48.890625 
Q 56.203125 41.796875 56.203125 29.59375 
z
M 47.21875 32.234375 
Q 47.125 39.59375 43.09375 43.984375 
Q 39.0625 48.390625 32.421875 48.390625 
Q 24.90625 48.390625 20.390625 44.140625 
Q 15.875 39.890625 15.1875 32.171875 
z
" id="DejaVuSans-101"/>
      <path d="M 44.28125 53.078125 
L 44.28125 44.578125 
Q 40.484375 46.53125 36.375 47.5 
Q 32.28125 48.484375 27.875 48.484375 
Q 21.1875 48.484375 17.84375 46.4375 
Q 14.5 44.390625 14.5 40.28125 
Q 14.5 37.15625 16.890625 35.375 
Q 19.28125 33.59375 26.515625 31.984375 
L 29.59375 31.296875 
Q 39.15625 29.25 43.1875 25.515625 
Q 47.21875 21.78125 47.21875 15.09375 
Q 47.21875 7.46875 41.1875 3.015625 
Q 35.15625 -1.421875 24.609375 -1.421875 
Q 20.21875 -1.421875 15.453125 -0.5625 
Q 10.6875 0.296875 5.421875 2 
L 5.421875 11.28125 
Q 10.40625 8.6875 15.234375 7.390625 
Q 20.0625 6.109375 24.8125 6.109375 
Q 31.15625 6.109375 34.5625 8.28125 
Q 37.984375 10.453125 37.984375 14.40625 
Q 37.984375 18.0625 35.515625 20.015625 
Q 33.0625 21.96875 24.703125 23.78125 
L 21.578125 24.515625 
Q 13.234375 26.265625 9.515625 29.90625 
Q 5.8125 33.546875 5.8125 39.890625 
Q 5.8125 47.609375 11.28125 51.796875 
Q 16.75 56 26.8125 56 
Q 31.78125 56 36.171875 55.265625 
Q 40.578125 54.546875 44.28125 53.078125 
z
" id="DejaVuSans-115"/>
      <path d="M 18.3125 70.21875 
L 18.3125 54.6875 
L 36.8125 54.6875 
L 36.8125 47.703125 
L 18.3125 47.703125 
L 18.3125 18.015625 
Q 18.3125 11.328125 20.140625 9.421875 
Q 21.96875 7.515625 27.59375 7.515625 
L 36.8125 7.515625 
L 36.8125 0 
L 27.59375 0 
Q 17.1875 0 13.234375 3.875 
Q 9.28125 7.765625 9.28125 18.015625 
L 9.28125 47.703125 
L 2.6875 47.703125 
L 2.6875 54.6875 
L 9.28125 54.6875 
L 9.28125 70.21875 
z
" id="DejaVuSans-116"/>
      <path d="M 34.28125 27.484375 
Q 23.390625 27.484375 19.1875 25 
Q 14.984375 22.515625 14.984375 16.5 
Q 14.984375 11.71875 18.140625 8.90625 
Q 21.296875 6.109375 26.703125 6.109375 
Q 34.1875 6.109375 38.703125 11.40625 
Q 43.21875 16.703125 43.21875 25.484375 
L 43.21875 27.484375 
z
M 52.203125 31.203125 
L 52.203125 0 
L 43.21875 0 
L 43.21875 8.296875 
Q 40.140625 3.328125 35.546875 0.953125 
Q 30.953125 -1.421875 24.3125 -1.421875 
Q 15.921875 -1.421875 10.953125 3.296875 
Q 6 8.015625 6 15.921875 
Q 6 25.140625 12.171875 29.828125 
Q 18.359375 34.515625 30.609375 34.515625 
L 43.21875 34.515625 
L 43.21875 35.40625 
Q 43.21875 41.609375 39.140625 45 
Q 35.0625 48.390625 27.6875 48.390625 
Q 23 48.390625 18.546875 47.265625 
Q 14.109375 46.140625 10.015625 43.890625 
L 10.015625 52.203125 
Q 14.9375 54.109375 19.578125 55.046875 
Q 24.21875 56 28.609375 56 
Q 40.484375 56 46.34375 49.84375 
Q 52.203125 43.703125 52.203125 31.203125 
z
" id="DejaVuSans-97"/>
      <path d="M 18.109375 8.203125 
L 18.109375 -20.796875 
L 9.078125 -20.796875 
L 9.078125 54.6875 
L 18.109375 54.6875 
L 18.109375 46.390625 
Q 20.953125 51.265625 25.265625 53.625 
Q 29.59375 56 35.59375 56 
Q 45.5625 56 51.78125 48.09375 
Q 58.015625 40.1875 58.015625 27.296875 
Q 58.015625 14.40625 51.78125 6.484375 
Q 45.5625 -1.421875 35.59375 -1.421875 
Q 29.59375 -1.421875 25.265625 0.953125 
Q 20.953125 3.328125 18.109375 8.203125 
z
M 48.6875 27.296875 
Q 48.6875 37.203125 44.609375 42.84375 
Q 40.53125 48.484375 33.40625 48.484375 
Q 26.265625 48.484375 22.1875 42.84375 
Q 18.109375 37.203125 18.109375 27.296875 
Q 18.109375 17.390625 22.1875 11.75 
Q 26.265625 6.109375 33.40625 6.109375 
Q 40.53125 6.109375 44.609375 11.75 
Q 48.6875 17.390625 48.6875 27.296875 
z
" id="DejaVuSans-112"/>
     </defs>
     <g transform="translate(414.739062 412.756563)scale(0.1 -0.1)">
      <use xlink:href="#DejaVuSans-84"/>
      <use x="61.037109" xlink:href="#DejaVuSans-105"/>
      <use x="88.820312" xlink:href="#DejaVuSans-109"/>
      <use x="186.232422" xlink:href="#DejaVuSans-101"/>
      <use x="247.755859" xlink:href="#DejaVuSans-115"/>
      <use x="299.855469" xlink:href="#DejaVuSans-116"/>
      <use x="339.064453" xlink:href="#DejaVuSans-97"/>
      <use x="400.34375" xlink:href="#DejaVuSans-109"/>
      <use x="497.755859" xlink:href="#DejaVuSans-112"/>
     </g>
    </g>
   </g>
   <g id="matplotlib.axis_2">
    <g id="ytick_1">
     <g id="line2d_9">
      <defs>
       <path d="M 0 0 
L -3.5 0 
" id="m9e2339cc7a" style="stroke:#000000;stroke-width:0.8;"/>
      </defs>
      <g>
       <use style="stroke:#000000;stroke-width:0.8;" x="108" xlink:href="#m9e2339cc7a" y="355.50214"/>
      </g>
     </g>
     <g id="text_10">
      <!-- −3000 -->
      <defs>
       <path d="M 10.59375 35.5 
L 73.1875 35.5 
L 73.1875 27.203125 
L 10.59375 27.203125 
z
" id="DejaVuSans-8722"/>
       <path d="M 40.578125 39.3125 
Q 47.65625 37.796875 51.625 33 
Q 55.609375 28.21875 55.609375 21.1875 
Q 55.609375 10.40625 48.1875 4.484375 
Q 40.765625 -1.421875 27.09375 -1.421875 
Q 22.515625 -1.421875 17.65625 -0.515625 
Q 12.796875 0.390625 7.625 2.203125 
L 7.625 11.71875 
Q 11.71875 9.328125 16.59375 8.109375 
Q 21.484375 6.890625 26.8125 6.890625 
Q 36.078125 6.890625 40.9375 10.546875 
Q 45.796875 14.203125 45.796875 21.1875 
Q 45.796875 27.640625 41.28125 31.265625 
Q 36.765625 34.90625 28.71875 34.90625 
L 20.21875 34.90625 
L 20.21875 43.015625 
L 29.109375 43.015625 
Q 36.375 43.015625 40.234375 45.921875 
Q 44.09375 48.828125 44.09375 54.296875 
Q 44.09375 59.90625 40.109375 62.90625 
Q 36.140625 65.921875 28.71875 65.921875 
Q 24.65625 65.921875 20.015625 65.03125 
Q 15.375 64.15625 9.8125 62.3125 
L 9.8125 71.09375 
Q 15.4375 72.65625 20.34375 73.4375 
Q 25.25 74.21875 29.59375 74.21875 
Q 40.828125 74.21875 47.359375 69.109375 
Q 53.90625 64.015625 53.90625 55.328125 
Q 53.90625 49.265625 50.4375 45.09375 
Q 46.96875 40.921875 40.578125 39.3125 
z
" id="DejaVuSans-51"/>
      </defs>
      <g transform="translate(67.170312 359.301358)scale(0.1 -0.1)">
       <use xlink:href="#DejaVuSans-8722"/>
       <use x="83.789062" xlink:href="#DejaVuSans-51"/>
       <use x="147.412109" xlink:href="#DejaVuSans-48"/>
       <use x="211.035156" xlink:href="#DejaVuSans-48"/>
       <use x="274.658203" xlink:href="#DejaVuSans-48"/>
      </g>
     </g>
    </g>
    <g id="ytick_2">
     <g id="line2d_10">
      <g>
       <use style="stroke:#000000;stroke-width:0.8;" x="108" xlink:href="#m9e2339cc7a" y="312.966471"/>
      </g>
     </g>
     <g id="text_11">
      <!-- −2000 -->
      <g transform="translate(67.170312 316.765689)scale(0.1 -0.1)">
       <use xlink:href="#DejaVuSans-8722"/>
       <use x="83.789062" xlink:href="#DejaVuSans-50"/>
       <use x="147.412109" xlink:href="#DejaVuSans-48"/>
       <use x="211.035156" xlink:href="#DejaVuSans-48"/>
       <use x="274.658203" xlink:href="#DejaVuSans-48"/>
      </g>
     </g>
    </g>
    <g id="ytick_3">
     <g id="line2d_11">
      <g>
       <use style="stroke:#000000;stroke-width:0.8;" x="108" xlink:href="#m9e2339cc7a" y="270.430802"/>
      </g>
     </g>
     <g id="text_12">
      <!-- −1000 -->
      <g transform="translate(67.170312 274.230021)scale(0.1 -0.1)">
       <use xlink:href="#DejaVuSans-8722"/>
       <use x="83.789062" xlink:href="#DejaVuSans-49"/>
       <use x="147.412109" xlink:href="#DejaVuSans-48"/>
       <use x="211.035156" xlink:href="#DejaVuSans-48"/>
       <use x="274.658203" xlink:href="#DejaVuSans-48"/>
      </g>
     </g>
    </g>
    <g id="ytick_4">
     <g id="line2d_12">
      <g>
       <use style="stroke:#000000;stroke-width:0.8;" x="108" xlink:href="#m9e2339cc7a" y="227.895133"/>
      </g>
     </g>
     <g id="text_13">
      <!-- 0 -->
      <g transform="translate(94.6375 231.694352)scale(0.1 -0.1)">
       <use xlink:href="#DejaVuSans-48"/>
      </g>
     </g>
    </g>
    <g id="ytick_5">
     <g id="line2d_13">
      <g>
       <use style="stroke:#000000;stroke-width:0.8;" x="108" xlink:href="#m9e2339cc7a" y="185.359464"/>
      </g>
     </g>
     <g id="text_14">
      <!-- 1000 -->
      <g transform="translate(75.55 189.158683)scale(0.1 -0.1)">
       <use xlink:href="#DejaVuSans-49"/>
       <use x="63.623047" xlink:href="#DejaVuSans-48"/>
       <use x="127.246094" xlink:href="#DejaVuSans-48"/>
       <use x="190.869141" xlink:href="#DejaVuSans-48"/>
      </g>
     </g>
    </g>
    <g id="ytick_6">
     <g id="line2d_14">
      <g>
       <use style="stroke:#000000;stroke-width:0.8;" x="108" xlink:href="#m9e2339cc7a" y="142.823795"/>
      </g>
     </g>
     <g id="text_15">
      <!-- 2000 -->
      <g transform="translate(75.55 146.623014)scale(0.1 -0.1)">
       <use xlink:href="#DejaVuSans-50"/>
       <use x="63.623047" xlink:href="#DejaVuSans-48"/>
       <use x="127.246094" xlink:href="#DejaVuSans-48"/>
       <use x="190.869141" xlink:href="#DejaVuSans-48"/>
      </g>
     </g>
    </g>
    <g id="ytick_7">
     <g id="line2d_15">
      <g>
       <use style="stroke:#000000;stroke-width:0.8;" x="108" xlink:href="#m9e2339cc7a" y="100.288127"/>
      </g>
     </g>
     <g id="text_16">
      <!-- 3000 -->
      <g transform="translate(75.55 104.087345)scale(0.1 -0.1)">
       <use xlink:href="#DejaVuSans-51"/>
       <use x="63.623047" xlink:href="#DejaVuSans-48"/>
       <use x="127.246094" xlink:href="#DejaVuSans-48"/>
       <use x="190.869141" xlink:href="#DejaVuSans-48"/>
      </g>
     </g>
    </g>
    <g id="ytick_8">
     <g id="line2d_16">
      <g>
       <use style="stroke:#000000;stroke-width:0.8;" x="108" xlink:href="#m9e2339cc7a" y="57.752458"/>
      </g>
     </g>
     <g id="text_17">
      <!-- 4000 -->
      <defs>
       <path d="M 37.796875 64.3125 
L 12.890625 25.390625 
L 37.796875 25.390625 
z
M 35.203125 72.90625 
L 47.609375 72.90625 
L 47.609375 25.390625 
L 58.015625 25.390625 
L 58.015625 17.1875 
L 47.609375 17.1875 
L 47.609375 0 
L 37.796875 0 
L 37.796875 17.1875 
L 4.890625 17.1875 
L 4.890625 26.703125 
z
" id="DejaVuSans-52"/>
      </defs>
      <g transform="translate(75.55 61.551677)scale(0.1 -0.1)">
       <use xlink:href="#DejaVuSans-52"/>
       <use x="63.623047" xlink:href="#DejaVuSans-48"/>
       <use x="127.246094" xlink:href="#DejaVuSans-48"/>
       <use x="190.869141" xlink:href="#DejaVuSans-48"/>
      </g>
     </g>
    </g>
    <g id="text_18">
     <!-- Value -->
     <defs>
      <path d="M 28.609375 0 
L 0.78125 72.90625 
L 11.078125 72.90625 
L 34.1875 11.53125 
L 57.328125 72.90625 
L 67.578125 72.90625 
L 39.796875 0 
z
" id="DejaVuSans-86"/>
      <path d="M 9.421875 75.984375 
L 18.40625 75.984375 
L 18.40625 0 
L 9.421875 0 
z
" id="DejaVuSans-108"/>
      <path d="M 8.5 21.578125 
L 8.5 54.6875 
L 17.484375 54.6875 
L 17.484375 21.921875 
Q 17.484375 14.15625 20.5 10.265625 
Q 23.53125 6.390625 29.59375 6.390625 
Q 36.859375 6.390625 41.078125 11.03125 
Q 45.3125 15.671875 45.3125 23.6875 
L 45.3125 54.6875 
L 54.296875 54.6875 
L 54.296875 0 
L 45.3125 0 
L 45.3125 8.40625 
Q 42.046875 3.421875 37.71875 1 
Q 33.40625 -1.421875 27.6875 -1.421875 
Q 18.265625 -1.421875 13.375 4.4375 
Q 8.5 10.296875 8.5 21.578125 
z
M 31.109375 56 
z
" id="DejaVuSans-117"/>
     </defs>
     <g transform="translate(61.090625 232.273281)rotate(-90)scale(0.1 -0.1)">
      <use xlink:href="#DejaVuSans-86"/>
      <use x="68.298828" xlink:href="#DejaVuSans-97"/>
      <use x="129.578125" xlink:href="#DejaVuSans-108"/>
      <use x="157.361328" xlink:href="#DejaVuSans-117"/>
      <use x="220.740234" xlink:href="#DejaVuSans-101"/>
     </g>
    </g>
   </g>
   <g id="line2d_17">
    <path clip-path="url(#pef38ec1f89)" d="M 138.436364 222.211141 
L 138.798701 194.45013 
L 139.161039 203.213813 
L 139.523377 186.655143 
L 139.885714 183.672497 
L 140.248052 173.610343 
L 140.972727 228.178867 
L 141.335065 235.822142 
L 141.697403 253.365762 
L 142.05974 233.354475 
L 142.422078 250.960566 
L 142.784416 225.038443 
L 143.509091 198.935623 
L 143.871429 213.666693 
L 144.233766 173.66974 
L 144.596104 219.277686 
L 144.958442 227.935709 
L 145.320779 249.267582 
L 145.683117 300.568741 
L 146.045455 253.773372 
L 146.407792 266.753687 
L 146.77013 241.090968 
L 147.132468 236.42066 
L 147.494805 188.117483 
L 147.857143 196.731583 
L 148.219481 167.808581 
L 148.581818 158.454845 
L 148.944156 170.842472 
L 149.306494 205.830828 
L 149.668831 208.279235 
L 150.031169 223.886075 
L 150.393506 246.025525 
L 150.755844 226.848746 
L 151.118182 236.486268 
L 151.480519 205.967564 
L 152.205195 186.413993 
L 152.567532 203.065464 
L 153.292208 209.070646 
L 153.654545 238.017242 
L 154.016883 244.307958 
L 154.379221 256.458508 
L 154.741558 259.383131 
L 155.103896 235.820295 
L 155.466234 232.351852 
L 155.828571 231.732322 
L 156.190909 185.317944 
L 156.553247 178.448259 
L 156.915584 164.45494 
L 157.277922 166.081277 
L 157.64026 152.194157 
L 158.364935 233.771833 
L 158.727273 232.785526 
L 159.08961 239.261309 
L 159.451948 260.428282 
L 160.176623 219.518654 
L 160.538961 210.015967 
L 160.901299 195.368769 
L 161.263636 189.904313 
L 162.350649 229.683877 
L 162.712987 262.617925 
L 163.437662 276.237916 
L 163.8 269.6393 
L 164.162338 241.429652 
L 164.524675 193.785898 
L 164.887013 194.37029 
L 165.249351 172.258431 
L 165.611688 180.004055 
L 165.974026 174.474788 
L 166.698701 207.734382 
L 167.423377 248.997684 
L 167.785714 251.586175 
L 168.148052 238.967208 
L 168.51039 234.832094 
L 168.872727 234.494873 
L 169.597403 197.678893 
L 169.95974 112.166029 
L 170.322078 215.307302 
L 170.684416 232.890981 
L 171.046753 236.424623 
L 171.409091 258.281061 
L 171.771429 306.946039 
L 172.133766 282.697127 
L 172.496104 250.510527 
L 172.858442 270.317741 
L 173.583117 202.763358 
L 173.945455 204.928727 
L 174.307792 180.435564 
L 174.67013 178.399388 
L 175.394805 230.637865 
L 175.757143 214.778084 
L 176.119481 263.047557 
L 176.481818 264.951318 
L 177.206494 240.749232 
L 177.568831 244.513937 
L 177.931169 237.120941 
L 178.293506 215.43908 
L 178.655844 221.786563 
L 179.018182 219.67448 
L 179.380519 256.17651 
L 179.742857 255.226386 
L 180.82987 292.655251 
L 182.279221 211.910043 
L 182.641558 208.313473 
L 183.003896 190.165983 
L 183.366234 179.121187 
L 183.728571 208.582823 
L 184.090909 220.24541 
L 184.453247 246.620922 
L 184.815584 262.42942 
L 185.177922 256.470978 
L 185.54026 262.76403 
L 185.902597 262.274788 
L 186.627273 215.798028 
L 186.98961 222.783837 
L 187.351948 224.261788 
L 187.714286 223.415162 
L 188.076623 263.451186 
L 188.438961 252.662292 
L 188.801299 287.868264 
L 189.163636 308.738855 
L 189.525974 301.466204 
L 189.888312 286.457849 
L 190.250649 247.222441 
L 190.612987 229.55329 
L 190.975325 222.709561 
L 191.337662 188.100405 
L 191.7 196.301844 
L 192.062338 193.115864 
L 192.424675 208.278127 
L 192.787013 216.519755 
L 193.149351 220.000579 
L 193.511688 233.687314 
L 193.874026 238.962944 
L 194.236364 258.328188 
L 194.598701 255.877585 
L 194.961039 244.979174 
L 195.323377 204.235151 
L 195.685714 214.067597 
L 196.048052 211.207883 
L 196.41039 220.641899 
L 196.772727 217.32345 
L 197.135065 230.459533 
L 197.497403 267.8721 
L 197.85974 292.807269 
L 198.222078 282.738858 
L 198.584416 280.155561 
L 198.946753 249.750361 
L 199.309091 234.175518 
L 199.671429 197.093519 
L 200.033766 192.928636 
L 200.396104 148.825504 
L 200.758442 172.270388 
L 201.120779 176.392972 
L 201.483117 193.899824 
L 201.845455 225.739091 
L 202.207792 236.891746 
L 202.57013 242.75303 
L 202.932468 254.084664 
L 203.294805 222.47427 
L 203.657143 223.001641 
L 204.019481 203.054331 
L 204.381818 190.59557 
L 204.744156 186.614336 
L 205.106494 185.987969 
L 205.468831 205.477671 
L 206.193506 265.534877 
L 206.555844 260.605783 
L 206.918182 272.425126 
L 207.280519 263.623216 
L 207.642857 243.901226 
L 208.367532 189.462208 
L 208.72987 177.608797 
L 209.092208 176.413993 
L 209.454545 185.141347 
L 209.816883 187.874088 
L 210.179221 183.327983 
L 210.541558 217.488514 
L 211.266234 232.640123 
L 211.628571 244.376092 
L 211.990909 234.206127 
L 212.353247 201.158778 
L 212.715584 207.320219 
L 213.077922 189.702154 
L 213.44026 182.58771 
L 213.802597 207.121014 
L 214.164935 207.040656 
L 214.527273 238.470563 
L 214.88961 256.612679 
L 215.251948 254.271025 
L 215.614286 245.49559 
L 215.976623 257.980603 
L 216.338961 238.113922 
L 216.701299 231.566174 
L 217.063636 175.525393 
L 217.425974 185.326863 
L 217.788312 146.610762 
L 218.150649 176.709749 
L 218.512987 179.495342 
L 218.875325 202.487129 
L 219.237662 209.744681 
L 219.6 263.601053 
L 219.962338 156.41988 
L 220.324675 242.216975 
L 220.687013 235.488333 
L 221.049351 208.086303 
L 221.774026 199.211789 
L 222.136364 197.091425 
L 222.498701 206.406937 
L 222.861039 237.122253 
L 223.223377 237.368494 
L 223.585714 241.556853 
L 223.948052 274.785761 
L 224.31039 268.933488 
L 224.672727 250.01489 
L 225.035065 252.295694 
L 225.397403 205.816525 
L 225.75974 181.743099 
L 226.122078 173.408325 
L 226.484416 162.510381 
L 226.846753 174.820886 
L 227.571429 210.063704 
L 227.933766 225.143212 
L 228.296104 251.816764 
L 228.658442 232.834636 
L 229.020779 246.528732 
L 229.383117 264.610739 
L 229.745455 222.053025 
L 230.107792 216.18734 
L 230.47013 192.626032 
L 230.832468 205.802485 
L 231.194805 208.727144 
L 231.557143 239.588184 
L 231.919481 250.044503 
L 232.281818 254.96458 
L 232.644156 266.499281 
L 233.006494 269.533416 
L 233.731169 260.547807 
L 234.093506 240.178638 
L 234.455844 205.248074 
L 234.818182 191.850476 
L 235.180519 183.696206 
L 235.542857 193.725655 
L 235.905195 194.961108 
L 236.267532 197.226116 
L 236.62987 223.045779 
L 236.992208 257.335521 
L 237.354545 265.614531 
L 237.716883 252.939983 
L 238.079221 251.031454 
L 238.441558 225.834286 
L 238.803896 221.691528 
L 239.166234 233.671346 
L 239.528571 227.455696 
L 239.890909 217.877462 
L 240.253247 260.868534 
L 240.615584 249.26291 
L 240.977922 283.396323 
L 241.34026 280.133899 
L 241.702597 293.906112 
L 242.064935 272.124466 
L 242.427273 272.400682 
L 242.78961 247.924524 
L 243.151948 204.795423 
L 243.514286 188.163815 
L 243.876623 186.883 
L 244.963636 221.461189 
L 245.688312 261.510786 
L 246.050649 265.946842 
L 246.412987 255.23426 
L 246.775325 274.248113 
L 247.5 222.965522 
L 247.862338 229.343572 
L 248.224675 224.801995 
L 248.587013 222.947709 
L 248.949351 234.223601 
L 249.311688 255.311296 
L 249.674026 289.53197 
L 250.036364 294.732668 
L 250.398701 307.639914 
L 250.761039 268.814229 
L 251.123377 260.372172 
L 251.485714 238.474365 
L 251.848052 195.611683 
L 252.21039 182.16654 
L 252.572727 191.217167 
L 252.935065 195.706955 
L 253.65974 223.082599 
L 254.022078 216.811512 
L 254.384416 251.408539 
L 254.746753 243.811331 
L 255.109091 270.421086 
L 255.471429 232.906456 
L 255.833766 243.348108 
L 256.196104 204.092512 
L 256.558442 206.724799 
L 256.920779 223.581215 
L 257.283117 225.587938 
L 257.645455 235.357636 
L 258.007792 235.205882 
L 258.37013 278.87222 
L 258.732468 276.24525 
L 259.094805 278.831215 
L 259.457143 254.672966 
L 259.819481 263.286192 
L 260.181818 233.891066 
L 260.544156 189.153505 
L 260.906494 188.532211 
L 261.268831 178.988343 
L 261.631169 173.087917 
L 261.993506 180.320956 
L 262.355844 197.096405 
L 262.718182 230.94584 
L 263.080519 231.669987 
L 263.442857 248.832152 
L 263.805195 255.347128 
L 264.167532 231.618499 
L 264.52987 221.231061 
L 264.892208 196.358829 
L 265.254545 205.156888 
L 265.616883 195.291886 
L 265.979221 175.33521 
L 266.703896 232.957912 
L 267.066234 243.662329 
L 267.428571 267.819071 
L 267.790909 265.521541 
L 268.153247 270.210698 
L 268.877922 202.876322 
L 269.24026 202.196306 
L 269.602597 187.460926 
L 269.964935 160.292267 
L 270.327273 182.688552 
L 270.68961 184.910015 
L 271.051948 198.668316 
L 271.414286 218.001834 
L 271.776623 211.578324 
L 272.138961 231.282716 
L 272.501299 228.801229 
L 272.863636 215.43275 
L 273.225974 222.731653 
L 273.588312 165.061563 
L 273.950649 196.182874 
L 274.312987 192.449898 
L 274.675325 197.896701 
L 275.4 254.620546 
L 275.762338 243.601552 
L 276.124675 241.817559 
L 276.487013 257.637651 
L 276.849351 247.514413 
L 277.211688 241.070169 
L 277.574026 218.536894 
L 277.936364 166.893427 
L 278.298701 174.105651 
L 278.661039 161.206202 
L 279.023377 173.315019 
L 279.385714 181.206165 
L 279.748052 191.668721 
L 280.11039 240.832883 
L 280.472727 229.353499 
L 280.835065 236.561405 
L 281.197403 239.282788 
L 281.55974 228.294871 
L 281.922078 212.988532 
L 282.646753 194.553849 
L 283.009091 192.287283 
L 283.371429 186.278566 
L 283.733766 208.350718 
L 284.096104 245.105411 
L 284.820779 279.368808 
L 285.183117 263.703284 
L 285.545455 266.253861 
L 285.907792 247.42724 
L 286.994805 177.846073 
L 287.357143 177.14673 
L 287.719481 161.942823 
L 288.081818 197.318629 
L 288.444156 192.930043 
L 289.168831 256.742917 
L 289.531169 242.094192 
L 289.893506 254.306916 
L 290.618182 235.407711 
L 290.980519 124.453125 
L 291.342857 225.532916 
L 291.705195 204.212662 
L 292.067532 217.073577 
L 292.42987 210.622313 
L 293.154545 278.041011 
L 293.516883 285.147795 
L 293.879221 283.291641 
L 294.241558 250.88737 
L 294.603896 243.82746 
L 294.966234 229.114218 
L 295.328571 200.401196 
L 295.690909 194.313155 
L 296.053247 199.466277 
L 296.415584 196.425784 
L 297.14026 207.985434 
L 297.502597 246.255092 
L 297.864935 258.484065 
L 298.227273 250.865031 
L 298.58961 267.10208 
L 298.951948 256.775931 
L 299.314286 230.382861 
L 299.676623 234.930665 
L 300.038961 205.904877 
L 300.401299 234.308478 
L 300.763636 220.073779 
L 301.488312 261.188406 
L 301.850649 270.404586 
L 302.212987 303.171163 
L 302.575325 294.549676 
L 302.937662 275.392693 
L 303.3 265.966948 
L 303.662338 242.570034 
L 304.024675 209.35074 
L 304.387013 219.739538 
L 304.749351 187.625696 
L 305.111688 196.310619 
L 305.474026 202.018239 
L 305.836364 211.10969 
L 306.561039 261.513603 
L 306.923377 267.184817 
L 307.285714 261.016081 
L 308.01039 236.203563 
L 308.372727 249.897598 
L 308.735065 229.316794 
L 309.097403 218.913014 
L 309.45974 245.717254 
L 309.822078 233.450729 
L 310.909091 292.09186 
L 311.271429 271.960442 
L 311.633766 282.885134 
L 311.996104 265.779317 
L 312.720779 207.985812 
L 313.445455 181.267439 
L 313.807792 201.226263 
L 314.17013 197.746666 
L 314.532468 209.209131 
L 314.894805 241.829863 
L 315.257143 240.495428 
L 315.619481 242.830942 
L 315.981818 252.113374 
L 316.344156 255.486042 
L 316.706494 222.124965 
L 317.068831 206.235885 
L 317.431169 214.257584 
L 317.793506 217.476102 
L 318.155844 240.627321 
L 318.518182 223.399859 
L 319.242857 268.814111 
L 319.605195 285.435311 
L 319.967532 264.807228 
L 320.32987 284.854988 
L 320.692208 266.450362 
L 321.054545 224.364357 
L 321.416883 211.337966 
L 322.141558 163.845004 
L 322.503896 161.885088 
L 322.866234 209.336559 
L 323.228571 203.045638 
L 323.953247 234.573846 
L 324.315584 238.482425 
L 324.677922 250.504944 
L 325.04026 236.959426 
L 325.402597 231.178666 
L 325.764935 197.14456 
L 326.127273 207.362148 
L 326.851948 182.248709 
L 327.576623 248.354727 
L 327.938961 232.542202 
L 328.301299 269.900017 
L 329.025974 233.264461 
L 329.388312 247.373673 
L 329.750649 212.791367 
L 330.112987 197.527314 
L 330.475325 165.052133 
L 330.837662 176.791682 
L 331.2 173.350302 
L 331.562338 172.495302 
L 331.924675 218.220183 
L 332.287013 208.352444 
L 332.649351 229.266057 
L 333.011688 234.869087 
L 333.374026 220.392086 
L 333.736364 232.900512 
L 334.461039 203.323063 
L 335.185714 187.979666 
L 335.548052 195.834824 
L 335.91039 234.318383 
L 336.272727 223.776056 
L 336.635065 234.611518 
L 336.997403 257.589141 
L 337.35974 258.143493 
L 337.722078 273.717076 
L 338.084416 233.935322 
L 338.809091 185.372621 
L 339.171429 175.717807 
L 339.533766 154.233096 
L 339.896104 153.298539 
L 340.258442 175.816094 
L 340.620779 181.291253 
L 340.983117 211.939757 
L 341.345455 222.650883 
L 341.707792 263.447854 
L 342.07013 239.695977 
L 342.432468 229.266416 
L 342.794805 202.201856 
L 343.157143 208.838236 
L 343.519481 205.412915 
L 343.881818 187.287292 
L 344.606494 225.841342 
L 345.331169 246.779021 
L 345.693506 289.97276 
L 346.055844 283.774591 
L 347.505195 203.186095 
L 347.867532 171.091243 
L 348.22987 168.200029 
L 348.592208 170.436694 
L 348.954545 198.18549 
L 349.316883 213.606417 
L 349.679221 220.55608 
L 350.041558 253.46606 
L 350.403896 239.265387 
L 350.766234 238.719408 
L 351.128571 256.115837 
L 351.490909 232.837595 
L 351.853247 222.690824 
L 352.215584 204.92875 
L 352.577922 215.678221 
L 352.94026 221.516137 
L 353.302597 214.019109 
L 353.664935 261.515623 
L 354.027273 270.305767 
L 354.38961 296.912429 
L 354.751948 275.441589 
L 355.114286 278.583562 
L 355.476623 334.734356 
L 355.838961 226.224854 
L 356.201299 224.354683 
L 356.563636 194.864488 
L 356.925974 180.934226 
L 357.288312 191.305859 
L 357.650649 182.396624 
L 358.012987 244.630143 
L 358.375325 231.724202 
L 358.737662 340.73656 
L 359.1 230.35418 
L 359.462338 248.880268 
L 359.824675 247.870619 
L 360.187013 231.343614 
L 360.549351 227.962501 
L 360.911688 217.967349 
L 361.274026 221.797571 
L 361.636364 236.555309 
L 361.998701 240.152487 
L 362.361039 249.94031 
L 362.723377 291.499782 
L 363.085714 301.61027 
L 363.448052 277.618364 
L 363.81039 275.81328 
L 364.172727 268.291134 
L 364.535065 221.863639 
L 364.897403 194.786593 
L 365.25974 189.459496 
L 365.984416 198.535063 
L 366.346753 208.711598 
L 366.709091 205.58393 
L 367.071429 262.529143 
L 367.433766 244.414028 
L 367.796104 266.790732 
L 368.158442 252.773561 
L 368.520779 252.344768 
L 368.883117 246.21877 
L 369.245455 226.143438 
L 369.607792 240.270662 
L 369.97013 216.600861 
L 370.694805 254.880445 
L 371.057143 281.152026 
L 371.419481 277.00594 
L 371.781818 284.132321 
L 372.144156 298.686505 
L 372.506494 271.724031 
L 372.868831 267.390616 
L 373.593506 221.324981 
L 374.318182 194.036232 
L 374.680519 206.637098 
L 375.042857 206.753518 
L 375.405195 232.200785 
L 375.767532 233.800455 
L 376.12987 236.240641 
L 376.492208 240.690191 
L 376.854545 252.837744 
L 377.216883 256.860504 
L 377.941558 209.639484 
L 378.303896 223.181075 
L 378.666234 212.300747 
L 379.028571 214.608982 
L 379.390909 228.656026 
L 379.753247 251.754076 
L 380.115584 255.488957 
L 380.477922 268.285077 
L 380.84026 289.940581 
L 381.202597 259.417757 
L 381.564935 253.084445 
L 381.927273 220.410405 
L 382.28961 200.919302 
L 382.651948 187.872857 
L 383.014286 170.269595 
L 383.376623 194.361779 
L 383.738961 206.076701 
L 384.101299 199.067371 
L 384.463636 239.228418 
L 384.825974 248.07016 
L 385.188312 264.024577 
L 385.550649 234.374563 
L 385.912987 245.978436 
L 386.275325 221.764975 
L 386.637662 214.953596 
L 387 80.7663 
L 387.362338 216.819669 
L 387.724675 212.852296 
L 388.087013 206.407161 
L 388.449351 251.130876 
L 388.811688 246.638498 
L 389.174026 256.130906 
L 389.536364 253.052272 
L 389.898701 328.179935 
L 390.261039 235.234595 
L 390.623377 227.361943 
L 390.985714 189.627863 
L 391.348052 165.849066 
L 391.71039 173.712788 
L 392.072727 173.614011 
L 392.435065 200.296072 
L 392.797403 180.355781 
L 393.15974 233.81827 
L 393.884416 247.629978 
L 394.246753 239.550615 
L 394.609091 217.105846 
L 394.971429 211.370905 
L 395.333766 197.466319 
L 395.696104 194.078008 
L 396.058442 194.678401 
L 396.420779 182.808459 
L 396.783117 206.592015 
L 397.145455 238.181971 
L 397.507792 233.708775 
L 397.87013 261.676657 
L 398.232468 260.467283 
L 398.594805 238.021031 
L 398.957143 242.075376 
L 399.681818 185.636684 
L 400.044156 174.839603 
L 400.406494 173.119057 
L 400.768831 143.536096 
L 401.131169 173.896812 
L 401.493506 194.294621 
L 401.855844 225.607738 
L 402.218182 233.417657 
L 402.580519 235.337183 
L 402.942857 228.771219 
L 403.305195 234.484401 
L 403.667532 221.715351 
L 404.02987 203.615403 
L 404.392208 207.274177 
L 404.754545 185.316965 
L 405.116883 200.030898 
L 405.479221 203.415792 
L 406.203896 267.131318 
L 406.566234 260.695016 
L 406.928571 261.238349 
L 407.290909 272.662737 
L 407.653247 259.340765 
L 408.74026 182.575239 
L 409.102597 178.669598 
L 409.464935 176.707048 
L 409.827273 195.868951 
L 410.551948 225.346383 
L 410.914286 242.175355 
L 411.276623 249.647238 
L 411.638961 245.170754 
L 412.001299 245.427714 
L 412.363636 235.323486 
L 412.725974 208.517548 
L 413.088312 193.286958 
L 413.450649 192.541804 
L 413.812987 213.491737 
L 414.175325 208.720153 
L 414.537662 251.722857 
L 414.9 279.104396 
L 415.262338 289.62757 
L 415.624675 285.717933 
L 415.987013 291.089389 
L 416.349351 266.911077 
L 416.711688 221.144544 
L 417.074026 209.347097 
L 417.436364 205.244688 
L 417.798701 195.272311 
L 418.161039 188.48632 
L 418.523377 205.281098 
L 418.885714 209.537632 
L 419.248052 237.738862 
L 419.61039 257.083906 
L 419.972727 255.923497 
L 420.335065 272.098263 
L 420.697403 254.651688 
L 421.05974 246.678743 
L 421.422078 217.815303 
L 421.784416 223.522394 
L 422.146753 203.575929 
L 422.509091 232.617198 
L 422.871429 237.975099 
L 423.596104 288.352392 
L 423.958442 289.257628 
L 424.320779 310.799075 
L 424.683117 292.158606 
L 425.045455 257.20454 
L 425.407792 240.753058 
L 425.77013 212.127194 
L 426.132468 203.729675 
L 426.494805 186.515276 
L 426.857143 192.231102 
L 427.219481 204.3054 
L 427.581818 205.97144 
L 427.944156 237.97728 
L 428.306494 243.456121 
L 428.668831 283.67461 
L 429.393506 249.917548 
L 429.755844 259.147314 
L 430.118182 224.598801 
L 430.480519 220.792625 
L 430.842857 221.132848 
L 431.205195 222.292381 
L 431.567532 236.400968 
L 431.92987 369.36 
L 432.292208 256.645867 
L 432.654545 291.028917 
L 433.016883 281.936952 
L 433.379221 291.084364 
L 434.103896 234.270487 
L 434.466234 219.175262 
L 434.828571 193.220188 
L 435.190909 194.664727 
L 435.553247 187.183509 
L 435.915584 199.295501 
L 436.64026 250.600984 
L 437.002597 240.223047 
L 437.364935 237.869967 
L 437.727273 259.228439 
L 438.08961 228.523845 
L 438.451948 251.752691 
L 438.814286 212.963003 
L 439.176623 211.086448 
L 439.538961 188.1848 
L 439.901299 222.197453 
L 440.263636 235.523685 
L 440.988312 273.839602 
L 441.350649 259.606925 
L 441.712987 273.604611 
L 442.437662 257.646427 
L 442.8 231.60009 
L 443.162338 217.504398 
L 443.524675 185.562063 
L 443.887013 174.970241 
L 444.249351 183.667329 
L 444.611688 185.245668 
L 445.336364 230.983351 
L 445.698701 230.865922 
L 446.061039 257.726405 
L 446.423377 235.837887 
L 446.785714 232.114196 
L 447.148052 239.166565 
L 447.51039 179.189684 
L 447.872727 186.883918 
L 448.235065 205.089532 
L 448.597403 190.153708 
L 448.95974 219.349912 
L 449.322078 229.722045 
L 449.684416 246.782258 
L 450.046753 270.685814 
L 450.409091 280.812425 
L 451.133766 224.603683 
L 451.496104 210.760247 
L 452.220779 170.612255 
L 452.583117 153.609618 
L 452.945455 189.978232 
L 453.307792 180.051779 
L 454.394805 222.306725 
L 454.757143 238.800237 
L 455.119481 231.524074 
L 455.481818 226.731613 
L 456.206494 196.251331 
L 456.568831 173.032621 
L 456.931169 186.631747 
L 457.293506 210.25074 
L 457.655844 211.13765 
L 458.018182 252.588673 
L 458.380519 237.240723 
L 458.742857 268.455582 
L 459.467532 241.67393 
L 459.82987 244.736038 
L 460.192208 221.302623 
L 460.554545 181.981981 
L 460.916883 162.916759 
L 461.279221 158.359378 
L 461.641558 191.139131 
L 462.003896 171.468325 
L 462.366234 192.870347 
L 462.728571 195.079326 
L 463.090909 247.068851 
L 463.453247 254.643953 
L 463.815584 241.664128 
L 464.177922 236.67797 
L 464.54026 219.1419 
L 464.902597 187.530133 
L 465.264935 201.560513 
L 465.98961 188.82338 
L 466.351948 231.793101 
L 467.076623 245.958785 
L 467.438961 263.208671 
L 467.801299 273.486437 
L 468.163636 266.040508 
L 468.525974 244.387192 
L 468.888312 193.813476 
L 469.250649 197.137406 
L 469.612987 169.443015 
L 469.975325 176.160232 
L 470.337662 170.462682 
L 470.7 213.957455 
L 471.062338 218.875164 
L 471.424675 219.635876 
L 472.149351 252.72798 
L 472.511688 241.197993 
L 472.874026 248.546973 
L 473.598701 208.379519 
L 473.961039 220.33969 
L 474.323377 220.232444 
L 474.685714 211.905639 
L 475.41039 245.965534 
L 475.772727 257.899409 
L 476.135065 262.116821 
L 476.85974 282.109949 
L 477.222078 265.25869 
L 477.584416 218.879032 
L 479.033766 184.524319 
L 479.396104 221.741423 
L 479.758442 208.529177 
L 480.120779 245.053771 
L 480.483117 254.372419 
L 480.845455 272.545415 
L 481.207792 257.569756 
L 481.57013 269.442762 
L 481.932468 226.235708 
L 482.294805 232.816655 
L 482.657143 224.313586 
L 483.019481 233.283554 
L 483.381818 231.409548 
L 484.106494 258.1535 
L 484.468831 295.697208 
L 484.831169 293.997705 
L 485.193506 274.594657 
L 485.555844 281.945764 
L 485.918182 252.777109 
L 487.005195 206.340006 
L 487.367532 174.344231 
L 488.816883 246.748826 
L 489.179221 272.2528 
L 489.541558 276.394213 
L 490.266234 258.238905 
L 490.628571 236.763625 
L 490.990909 228.207351 
L 491.353247 205.815862 
L 491.715584 227.006985 
L 492.44026 238.930983 
L 492.802597 230.922289 
L 493.164935 278.659048 
L 493.527273 296.902958 
L 494.614286 262.803068 
L 494.976623 237.820815 
L 495.338961 222.054272 
L 495.701299 200.566859 
L 496.063636 187.856402 
L 496.425974 182.588442 
L 496.788312 206.360145 
L 497.150649 210.066688 
L 497.512987 257.411106 
L 497.875325 257.086987 
L 498.6 251.279628 
L 498.962338 240.262734 
L 499.324675 208.947397 
L 499.687013 228.153472 
L 500.049351 229.439393 
L 500.411688 225.023153 
L 500.774026 239.566972 
L 501.136364 236.188904 
L 501.861039 265.635452 
L 502.223377 277.640167 
L 502.585714 294.012591 
L 502.948052 264.853844 
L 503.31039 255.656874 
L 504.397403 183.038984 
L 504.75974 171.451224 
L 505.122078 172.016136 
L 505.846753 209.098834 
L 506.571429 245.64076 
L 506.933766 245.137738 
L 507.296104 252.329433 
L 507.658442 235.504789 
L 508.020779 202.732583 
L 508.383117 208.059348 
L 508.745455 188.674354 
L 509.107792 193.263768 
L 509.47013 193.51502 
L 509.832468 220.057742 
L 510.194805 234.358575 
L 510.557143 265.635594 
L 510.919481 272.23967 
L 511.281818 262.452395 
L 511.644156 261.293869 
L 512.006494 230.879804 
L 512.368831 231.004358 
L 512.731169 186.81673 
L 513.093506 169.723498 
L 513.455844 165.580425 
L 513.818182 180.553797 
L 514.180519 66.96 
L 514.542857 198.124077 
L 515.992208 256.356822 
L 516.354545 223.651457 
L 516.716883 207.147295 
L 517.079221 213.151406 
L 517.441558 198.536009 
L 517.803896 202.127998 
L 518.166234 207.034401 
L 518.528571 221.026438 
L 518.890909 219.301012 
L 519.615584 255.004149 
L 519.977922 258.644416 
L 520.34026 252.570647 
L 520.702597 242.422567 
L 521.064935 206.873863 
L 521.427273 197.114378 
L 521.78961 163.524419 
L 522.151948 167.208384 
L 522.514286 153.133584 
L 522.876623 184.85472 
L 523.238961 202.650721 
L 523.601299 202.674245 
L 523.963636 231.668801 
L 524.325974 232.184674 
L 524.688312 241.147317 
L 525.412987 212.017781 
L 525.775325 204.898732 
L 526.137662 179.437511 
L 526.5 193.872912 
L 526.862338 212.862967 
L 527.224675 217.497781 
L 527.587013 235.103302 
L 527.949351 272.968785 
L 528.311688 266.596441 
L 528.674026 273.858903 
L 529.036364 267.307274 
L 529.398701 252.17023 
L 530.123377 195.713243 
L 530.485714 186.12834 
L 530.848052 162.192817 
L 531.21039 193.047993 
L 531.572727 191.571716 
L 531.935065 198.829831 
L 532.297403 211.431874 
L 532.65974 237.702598 
L 533.022078 248.236861 
L 533.384416 234.484061 
L 533.746753 252.116494 
L 534.471429 203.135724 
L 534.833766 214.542295 
L 535.196104 237.943972 
L 535.558442 217.496218 
L 535.920779 225.415769 
L 536.645455 282.84811 
L 537.007792 284.61287 
L 537.732468 275.295306 
L 538.094805 241.309834 
L 538.457143 231.801917 
L 538.819481 208.504107 
L 539.181818 204.369831 
L 539.544156 177.600825 
L 539.906494 188.323949 
L 540.268831 207.303972 
L 540.631169 208.870584 
L 541.355844 260.324111 
L 541.718182 269.048429 
L 542.080519 267.971395 
L 542.442857 245.287426 
L 542.805195 240.067648 
L 543.167532 224.972134 
L 543.52987 220.537928 
L 543.892208 224.644225 
L 544.254545 224.819223 
L 545.341558 244.724943 
L 545.703896 253.000465 
L 546.066234 249.029313 
L 546.428571 246.58059 
L 547.153247 235.852519 
L 547.877922 212.560293 
L 548.24026 217.022111 
L 548.602597 214.407404 
L 548.964935 228.346177 
L 549.327273 220.184497 
L 549.68961 231.797008 
L 550.051948 237.777495 
L 550.414286 267.831791 
L 550.776623 234.811834 
L 551.138961 231.308336 
L 551.501299 233.115148 
L 551.863636 230.262836 
L 552.225974 223.844327 
L 552.588312 223.796573 
L 552.950649 226.77943 
L 553.312987 234.395707 
L 553.675325 231.709168 
L 554.4 248.76883 
L 554.762338 241.503316 
L 555.124675 238.352155 
L 555.487013 242.234656 
L 556.211688 221.318167 
L 556.936364 205.005963 
L 557.298701 217.319369 
L 558.023377 226.139303 
L 558.748052 237.711749 
L 559.11039 238.957169 
L 559.472727 233.634709 
L 559.835065 233.143376 
L 560.55974 221.028429 
L 560.922078 217.51606 
L 561.284416 222.495956 
L 561.646753 224.86947 
L 562.009091 230.877203 
L 562.371429 232.291314 
L 562.733766 237.260035 
L 563.096104 240.551913 
L 563.458442 248.162112 
L 563.820779 237.349283 
L 564.545455 228.037387 
L 564.907792 217.618206 
L 565.27013 213.181247 
L 565.632468 206.16639 
L 565.994805 208.508313 
L 566.357143 216.801179 
L 566.719481 221.697742 
L 567.081818 218.159875 
L 567.444156 221.863544 
L 567.806494 230.181913 
L 568.168831 229.242225 
L 568.531169 226.17598 
L 568.893506 226.134718 
L 569.255844 227.31692 
L 569.618182 218.664026 
L 569.980519 213.136041 
L 570.342857 219.142688 
L 570.705195 220.886491 
L 571.067532 226.66361 
L 571.42987 239.833126 
L 571.792208 233.873581 
L 572.154545 233.360652 
L 572.516883 197.045223 
L 572.879221 226.193502 
L 573.241558 219.806366 
L 573.603896 216.577515 
L 574.328571 203.927479 
L 574.690909 198.851568 
L 575.053247 209.000488 
L 575.415584 205.232557 
L 575.777922 219.352948 
L 576.14026 223.378028 
L 576.502597 221.950642 
L 576.864935 234.395402 
L 577.227273 225.810886 
L 577.58961 221.023103 
L 577.951948 212.042018 
L 578.314286 212.803169 
L 578.676623 210.434712 
L 579.038961 220.689978 
L 579.401299 219.624298 
L 579.763636 223.556281 
L 580.125974 236.772858 
L 580.488312 241.620965 
L 580.850649 238.821242 
L 581.212987 237.54555 
L 581.575325 227.225602 
L 581.937662 220.684973 
L 582.3 208.103716 
L 582.662338 208.440817 
L 583.387013 202.825383 
L 583.749351 206.886901 
L 584.474026 221.24816 
L 584.836364 217.682757 
L 585.198701 221.324904 
L 585.561039 232.345852 
L 585.923377 231.543166 
L 586.285714 219.700078 
L 587.01039 209.563671 
L 587.372727 209.717053 
L 587.735065 215.872724 
L 588.097403 219.865774 
L 588.45974 231.577959 
L 588.822078 232.125061 
L 589.546753 237.894816 
L 589.909091 233.684722 
L 590.271429 235.178646 
L 590.633766 188.801434 
L 590.996104 207.792733 
L 591.358442 210.25372 
L 592.083117 201.628734 
L 593.532468 228.706192 
L 593.894805 229.290864 
L 594.257143 230.527277 
L 594.619481 218.842578 
L 594.981818 221.05682 
L 595.344156 213.956289 
L 595.706494 216.326126 
L 596.068831 209.780802 
L 596.431169 215.301995 
L 596.793506 225.315504 
L 597.155844 223.074469 
L 597.518182 228.558143 
L 597.880519 239.458726 
L 598.605195 237.196409 
L 598.967532 230.373708 
L 599.32987 227.906687 
L 600.054545 211.800434 
L 600.416883 209.407926 
L 600.779221 208.303539 
L 601.503896 215.138151 
L 601.866234 225.971761 
L 602.590909 237.101967 
L 602.953247 226.250614 
L 603.315584 226.038506 
L 603.677922 224.568301 
L 604.402597 216.000913 
L 604.764935 217.191077 
L 605.127273 219.858568 
L 606.214286 235.625534 
L 606.576623 245.39372 
L 606.938961 240.789604 
L 607.663636 230.3888 
L 608.388312 218.614207 
L 608.750649 210.020506 
L 609.112987 205.581935 
L 609.475325 210.807738 
L 609.837662 213.949599 
L 610.2 220.454453 
L 610.562338 217.466705 
L 610.924675 222.945453 
L 611.287013 231.348424 
L 611.649351 232.013348 
L 612.011688 231.12365 
L 612.374026 228.505099 
L 613.098701 216.119504 
L 613.461039 218.549594 
L 613.823377 224.960342 
L 614.185714 222.140486 
L 614.548052 231.586866 
L 614.91039 238.043699 
L 615.272727 241.367341 
L 615.635065 243.344926 
L 615.997403 271.598604 
L 616.35974 227.416827 
L 616.722078 227.452095 
L 617.084416 215.260296 
L 617.446753 213.502333 
L 617.809091 203.181586 
L 618.533766 204.193082 
L 619.258442 226.497281 
L 619.620779 225.113 
L 619.983117 225.952521 
L 620.345455 192.830766 
L 620.707792 226.537351 
L 621.07013 213.473295 
L 621.794805 211.426471 
L 622.157143 205.609135 
L 622.519481 210.733925 
L 622.881818 227.236234 
L 623.244156 222.012595 
L 623.606494 233.864186 
L 623.968831 233.364479 
L 624.331169 234.529094 
L 624.693506 230.138597 
L 625.055844 221.590068 
L 625.418182 219.006311 
L 625.780519 209.927 
L 626.505195 199.64688 
L 626.867532 204.764835 
L 627.22987 237.572641 
L 627.592208 212.600771 
L 627.954545 220.162281 
L 628.316883 215.570114 
L 628.679221 229.399122 
L 629.041558 222.226405 
L 629.403896 224.584665 
L 629.766234 214.803688 
L 630.490909 204.348388 
L 630.853247 209.17228 
L 631.215584 202.308483 
L 631.577922 212.274044 
L 631.94026 225.449051 
L 632.302597 233.759279 
L 632.664935 227.561981 
L 633.027273 228.65048 
L 633.38961 225.371346 
L 633.751948 228.041618 
L 634.114286 215.649747 
L 634.476623 207.785397 
L 634.838961 206.537722 
L 635.563636 189.2521 
L 635.925974 199.417204 
L 636.288312 202.211429 
L 636.650649 213.427202 
L 637.012987 215.2901 
L 637.375325 216.243188 
L 637.737662 216.463507 
L 638.1 211.691077 
L 638.462338 221.404075 
L 638.824675 203.894907 
L 639.187013 196.170423 
L 639.549351 202.457578 
L 639.911688 204.349738 
L 640.636364 223.481705 
L 640.998701 227.288402 
L 641.723377 229.016835 
L 642.085714 224.554309 
L 642.448052 224.354455 
L 643.172727 199.672136 
L 643.535065 199.424888 
L 643.897403 197.208605 
L 644.25974 196.39187 
L 644.622078 203.198934 
L 645.346753 211.773998 
L 645.709091 213.166767 
L 646.071429 221.394085 
L 646.433766 217.977384 
L 646.796104 219.156647 
L 647.158442 215.204972 
L 647.883117 197.311459 
L 648.607792 206.498146 
L 648.97013 220.22122 
L 649.332468 217.437642 
L 649.694805 215.727244 
L 650.419481 235.217449 
L 650.781818 227.348306 
L 651.144156 226.471048 
L 651.868831 209.26091 
L 652.231169 196.388699 
L 652.593506 203.557444 
L 652.955844 196.435137 
L 653.318182 199.461227 
L 653.680519 207.202778 
L 654.042857 217.95233 
L 654.405195 218.506021 
L 654.767532 221.037146 
L 655.12987 225.932705 
L 655.854545 211.119596 
L 656.216883 212.61124 
L 656.579221 204.885823 
L 656.941558 206.640167 
L 657.303896 214.741588 
L 658.028571 222.319542 
L 658.753247 230.742686 
L 659.115584 237.311768 
L 659.477922 229.777624 
L 659.84026 224.647676 
L 660.202597 211.514244 
L 660.564935 208.007005 
L 660.927273 203.280828 
L 661.28961 204.036017 
L 661.651948 202.333834 
L 662.014286 211.919741 
L 662.376623 211.387591 
L 662.738961 218.367868 
L 663.101299 221.458855 
L 663.463636 228.001201 
L 664.188312 220.677402 
L 664.550649 219.887897 
L 664.912987 214.970879 
L 665.275325 206.562969 
L 665.637662 210.040139 
L 666 208.497564 
L 666.362338 214.294677 
L 666.724675 222.229016 
L 667.087013 235.672477 
L 667.449351 235.954319 
L 667.811688 234.647471 
L 668.174026 225.979508 
L 668.536364 226.214053 
L 668.898701 211.601277 
L 669.261039 211.511129 
L 669.623377 204.776196 
L 669.985714 202.953461 
L 670.348052 201.787788 
L 670.71039 205.278154 
L 671.797403 228.212181 
L 672.15974 227.880257 
L 672.522078 223.618874 
L 672.884416 222.768063 
L 673.246753 216.527737 
L 673.609091 213.142223 
L 673.971429 212.770343 
L 674.333766 205.23825 
L 674.696104 211.737338 
L 675.058442 214.338565 
L 675.420779 226.129252 
L 675.783117 231.136078 
L 676.145455 229.437012 
L 676.507792 232.808444 
L 676.87013 223.940102 
L 677.232468 224.752862 
L 677.594805 209.361505 
L 677.957143 206.716006 
L 678.319481 205.973114 
L 678.681818 195.17388 
L 679.044156 193.520656 
L 679.768831 208.336841 
L 680.131169 218.639292 
L 680.493506 218.723294 
L 680.855844 219.377894 
L 681.218182 230.606176 
L 681.580519 222.737496 
L 681.942857 208.98727 
L 682.305195 209.801078 
L 682.667532 203.595554 
L 683.02987 204.558011 
L 683.392208 208.838388 
L 684.116883 221.812738 
L 684.479221 220.133626 
L 684.841558 228.534295 
L 685.203896 222.113876 
L 685.566234 220.300216 
L 685.928571 225.40046 
L 686.290909 205.792478 
L 686.653247 209.287161 
L 687.015584 192.716144 
L 687.377922 190.464195 
L 687.74026 196.993952 
L 688.102597 200.18354 
L 688.464935 198.729177 
L 688.827273 212.321152 
L 689.18961 218.734637 
L 689.551948 217.915122 
L 689.914286 223.900423 
L 690.276623 215.326178 
L 690.638961 212.074463 
L 691.001299 203.760571 
L 691.363636 200.587167 
L 691.725974 205.154945 
L 692.088312 205.083935 
L 692.450649 210.122751 
L 692.812987 217.150042 
L 693.175325 214.597624 
L 693.537662 225.149328 
L 693.9 223.432831 
L 694.262338 223.044169 
L 695.349351 196.109716 
L 695.711688 195.436154 
L 696.074026 189.760965 
L 696.436364 188.485212 
L 697.161039 202.510947 
L 697.523377 202.266563 
L 697.885714 212.003365 
L 698.61039 216.207944 
L 698.972727 202.244613 
L 699.335065 206.412906 
L 699.697403 196.67176 
L 700.05974 201.760535 
L 700.422078 195.839589 
L 700.784416 203.312735 
L 701.146753 203.659565 
L 701.509091 215.267739 
L 701.871429 218.752181 
L 702.233766 223.516025 
L 702.596104 222.250504 
L 702.958442 217.016519 
L 703.320779 214.156517 
L 703.683117 201.949278 
L 704.045455 198.431797 
L 704.407792 197.020908 
L 705.132468 184.863974 
L 705.494805 193.832856 
L 705.857143 197.135212 
L 706.219481 206.783684 
L 706.581818 207.123854 
L 706.944156 207.168502 
L 707.668831 211.423886 
L 708.031169 201.881143 
L 708.393506 204.287011 
L 708.755844 195.960747 
L 709.118182 193.52832 
L 709.842857 207.653248 
L 710.205195 212.710758 
L 710.567532 219.945083 
L 710.92987 224.368903 
L 712.016883 212.251316 
L 712.379221 214.107772 
L 712.741558 192.121776 
L 713.103896 192.656077 
L 713.466234 183.672734 
L 713.828571 191.716551 
L 714.190909 194.933547 
L 714.553247 203.923359 
L 715.64026 212.671198 
L 716.002597 218.80499 
L 716.364935 213.052523 
L 717.08961 207.020639 
L 717.451948 206.265304 
L 717.814286 202.446423 
L 718.176623 208.940893 
L 718.538961 207.534042 
L 718.901299 218.399092 
L 719.263636 215.489547 
L 719.625974 235.208477 
L 719.988312 223.217998 
L 720.350649 223.448504 
L 720.712987 214.584678 
L 721.075325 210.258021 
L 721.437662 200.459676 
L 721.8 195.239997 
L 722.162338 195.266253 
L 722.524675 187.849891 
L 722.887013 196.180476 
L 723.249351 207.834645 
L 723.611688 204.197038 
L 724.336364 221.023838 
L 724.698701 214.582126 
L 725.061039 210.512325 
L 725.423377 204.41969 
L 725.785714 205.335131 
L 726.148052 203.659215 
L 726.51039 204.116481 
L 726.872727 214.088658 
L 727.235065 207.498876 
L 727.95974 221.33078 
L 728.322078 225.979155 
L 728.684416 227.346224 
L 729.046753 220.184381 
L 729.409091 226.313986 
L 729.771429 208.487728 
L 730.133766 206.57186 
L 730.496104 193.439727 
L 730.858442 195.028714 
L 731.583117 201.548601 
L 731.945455 202.705372 
L 732.67013 215.956655 
L 733.032468 218.554341 
L 733.394805 216.816051 
L 733.757143 216.020515 
L 734.481818 210.710666 
L 734.844156 201.679328 
L 735.206494 202.706774 
L 735.568831 206.608979 
L 735.931169 204.916954 
L 736.655844 222.81293 
L 737.018182 222.189937 
L 737.380519 227.603587 
L 737.742857 225.130132 
L 738.105195 216.990785 
L 738.467532 204.846046 
L 738.82987 203.557855 
L 739.192208 197.853937 
L 739.554545 184.886678 
L 739.916883 193.161475 
L 740.279221 195.193371 
L 740.641558 231.681343 
L 741.003896 208.704972 
L 741.366234 207.293962 
L 741.728571 222.776655 
L 742.090909 213.402102 
L 742.453247 212.950369 
L 742.815584 208.260127 
L 743.177922 195.275667 
L 743.54026 202.696242 
L 743.902597 203.552306 
L 744.627273 200.802105 
L 744.98961 218.023207 
L 745.351948 221.582064 
L 745.714286 222.734098 
L 746.076623 219.873784 
L 746.438961 215.326204 
L 746.801299 212.673258 
L 746.801299 212.673258 
" style="fill:none;stroke:#1f77b4;stroke-linecap:square;stroke-width:1.5;"/>
   </g>
   <g id="line2d_18">
    <path clip-path="url(#pef38ec1f89)" d="M 747.163636 384.48 
L 747.163636 51.84 
" style="fill:none;stroke:#808080;stroke-linecap:square;"/>
   </g>
   <g id="patch_54">
    <path d="M 108 384.48 
L 108 51.84 
" style="fill:none;stroke:#000000;stroke-linecap:square;stroke-linejoin:miter;stroke-width:0.8;"/>
   </g>
   <g id="patch_55">
    <path d="M 777.6 384.48 
L 777.6 51.84 
" style="fill:none;stroke:#000000;stroke-linecap:square;stroke-linejoin:miter;stroke-width:0.8;"/>
   </g>
   <g id="patch_56">
    <path d="M 108 384.48 
L 777.6 384.48 
" style="fill:none;stroke:#000000;stroke-linecap:square;stroke-linejoin:miter;stroke-width:0.8;"/>
   </g>
   <g id="patch_57">
    <path d="M 108 51.84 
L 777.6 51.84 
" style="fill:none;stroke:#000000;stroke-linecap:square;stroke-linejoin:miter;stroke-width:0.8;"/>
   </g>
   <g id="text_19">
    <!-- A4Benchmark-TS85.csv -->
    <defs>
     <path d="M 34.1875 63.1875 
L 20.796875 26.90625 
L 47.609375 26.90625 
z
M 28.609375 72.90625 
L 39.796875 72.90625 
L 67.578125 0 
L 57.328125 0 
L 50.6875 18.703125 
L 17.828125 18.703125 
L 11.1875 0 
L 0.78125 0 
z
" id="DejaVuSans-65"/>
     <path d="M 19.671875 34.8125 
L 19.671875 8.109375 
L 35.5 8.109375 
Q 43.453125 8.109375 47.28125 11.40625 
Q 51.125 14.703125 51.125 21.484375 
Q 51.125 28.328125 47.28125 31.5625 
Q 43.453125 34.8125 35.5 34.8125 
z
M 19.671875 64.796875 
L 19.671875 42.828125 
L 34.28125 42.828125 
Q 41.5 42.828125 45.03125 45.53125 
Q 48.578125 48.25 48.578125 53.8125 
Q 48.578125 59.328125 45.03125 62.0625 
Q 41.5 64.796875 34.28125 64.796875 
z
M 9.8125 72.90625 
L 35.015625 72.90625 
Q 46.296875 72.90625 52.390625 68.21875 
Q 58.5 63.53125 58.5 54.890625 
Q 58.5 48.1875 55.375 44.234375 
Q 52.25 40.28125 46.1875 39.3125 
Q 53.46875 37.75 57.5 32.78125 
Q 61.53125 27.828125 61.53125 20.40625 
Q 61.53125 10.640625 54.890625 5.3125 
Q 48.25 0 35.984375 0 
L 9.8125 0 
z
" id="DejaVuSans-66"/>
     <path d="M 54.890625 33.015625 
L 54.890625 0 
L 45.90625 0 
L 45.90625 32.71875 
Q 45.90625 40.484375 42.875 44.328125 
Q 39.84375 48.1875 33.796875 48.1875 
Q 26.515625 48.1875 22.3125 43.546875 
Q 18.109375 38.921875 18.109375 30.90625 
L 18.109375 0 
L 9.078125 0 
L 9.078125 54.6875 
L 18.109375 54.6875 
L 18.109375 46.1875 
Q 21.34375 51.125 25.703125 53.5625 
Q 30.078125 56 35.796875 56 
Q 45.21875 56 50.046875 50.171875 
Q 54.890625 44.34375 54.890625 33.015625 
z
" id="DejaVuSans-110"/>
     <path d="M 48.78125 52.59375 
L 48.78125 44.1875 
Q 44.96875 46.296875 41.140625 47.34375 
Q 37.3125 48.390625 33.40625 48.390625 
Q 24.65625 48.390625 19.8125 42.84375 
Q 14.984375 37.3125 14.984375 27.296875 
Q 14.984375 17.28125 19.8125 11.734375 
Q 24.65625 6.203125 33.40625 6.203125 
Q 37.3125 6.203125 41.140625 7.25 
Q 44.96875 8.296875 48.78125 10.40625 
L 48.78125 2.09375 
Q 45.015625 0.34375 40.984375 -0.53125 
Q 36.96875 -1.421875 32.421875 -1.421875 
Q 20.0625 -1.421875 12.78125 6.34375 
Q 5.515625 14.109375 5.515625 27.296875 
Q 5.515625 40.671875 12.859375 48.328125 
Q 20.21875 56 33.015625 56 
Q 37.15625 56 41.109375 55.140625 
Q 45.0625 54.296875 48.78125 52.59375 
z
" id="DejaVuSans-99"/>
     <path d="M 54.890625 33.015625 
L 54.890625 0 
L 45.90625 0 
L 45.90625 32.71875 
Q 45.90625 40.484375 42.875 44.328125 
Q 39.84375 48.1875 33.796875 48.1875 
Q 26.515625 48.1875 22.3125 43.546875 
Q 18.109375 38.921875 18.109375 30.90625 
L 18.109375 0 
L 9.078125 0 
L 9.078125 75.984375 
L 18.109375 75.984375 
L 18.109375 46.1875 
Q 21.34375 51.125 25.703125 53.5625 
Q 30.078125 56 35.796875 56 
Q 45.21875 56 50.046875 50.171875 
Q 54.890625 44.34375 54.890625 33.015625 
z
" id="DejaVuSans-104"/>
     <path d="M 41.109375 46.296875 
Q 39.59375 47.171875 37.8125 47.578125 
Q 36.03125 48 33.890625 48 
Q 26.265625 48 22.1875 43.046875 
Q 18.109375 38.09375 18.109375 28.8125 
L 18.109375 0 
L 9.078125 0 
L 9.078125 54.6875 
L 18.109375 54.6875 
L 18.109375 46.1875 
Q 20.953125 51.171875 25.484375 53.578125 
Q 30.03125 56 36.53125 56 
Q 37.453125 56 38.578125 55.875 
Q 39.703125 55.765625 41.0625 55.515625 
z
" id="DejaVuSans-114"/>
     <path d="M 9.078125 75.984375 
L 18.109375 75.984375 
L 18.109375 31.109375 
L 44.921875 54.6875 
L 56.390625 54.6875 
L 27.390625 29.109375 
L 57.625 0 
L 45.90625 0 
L 18.109375 26.703125 
L 18.109375 0 
L 9.078125 0 
z
" id="DejaVuSans-107"/>
     <path d="M 4.890625 31.390625 
L 31.203125 31.390625 
L 31.203125 23.390625 
L 4.890625 23.390625 
z
" id="DejaVuSans-45"/>
     <path d="M 53.515625 70.515625 
L 53.515625 60.890625 
Q 47.90625 63.578125 42.921875 64.890625 
Q 37.9375 66.21875 33.296875 66.21875 
Q 25.25 66.21875 20.875 63.09375 
Q 16.5 59.96875 16.5 54.203125 
Q 16.5 49.359375 19.40625 46.890625 
Q 22.3125 44.4375 30.421875 42.921875 
L 36.375 41.703125 
Q 47.40625 39.59375 52.65625 34.296875 
Q 57.90625 29 57.90625 20.125 
Q 57.90625 9.515625 50.796875 4.046875 
Q 43.703125 -1.421875 29.984375 -1.421875 
Q 24.8125 -1.421875 18.96875 -0.25 
Q 13.140625 0.921875 6.890625 3.21875 
L 6.890625 13.375 
Q 12.890625 10.015625 18.65625 8.296875 
Q 24.421875 6.59375 29.984375 6.59375 
Q 38.421875 6.59375 43.015625 9.90625 
Q 47.609375 13.234375 47.609375 19.390625 
Q 47.609375 24.75 44.3125 27.78125 
Q 41.015625 30.8125 33.5 32.328125 
L 27.484375 33.5 
Q 16.453125 35.6875 11.515625 40.375 
Q 6.59375 45.0625 6.59375 53.421875 
Q 6.59375 63.09375 13.40625 68.65625 
Q 20.21875 74.21875 32.171875 74.21875 
Q 37.3125 74.21875 42.625 73.28125 
Q 47.953125 72.359375 53.515625 70.515625 
z
" id="DejaVuSans-83"/>
     <path d="M 31.78125 34.625 
Q 24.75 34.625 20.71875 30.859375 
Q 16.703125 27.09375 16.703125 20.515625 
Q 16.703125 13.921875 20.71875 10.15625 
Q 24.75 6.390625 31.78125 6.390625 
Q 38.8125 6.390625 42.859375 10.171875 
Q 46.921875 13.96875 46.921875 20.515625 
Q 46.921875 27.09375 42.890625 30.859375 
Q 38.875 34.625 31.78125 34.625 
z
M 21.921875 38.8125 
Q 15.578125 40.375 12.03125 44.71875 
Q 8.5 49.078125 8.5 55.328125 
Q 8.5 64.0625 14.71875 69.140625 
Q 20.953125 74.21875 31.78125 74.21875 
Q 42.671875 74.21875 48.875 69.140625 
Q 55.078125 64.0625 55.078125 55.328125 
Q 55.078125 49.078125 51.53125 44.71875 
Q 48 40.375 41.703125 38.8125 
Q 48.828125 37.15625 52.796875 32.3125 
Q 56.78125 27.484375 56.78125 20.515625 
Q 56.78125 9.90625 50.3125 4.234375 
Q 43.84375 -1.421875 31.78125 -1.421875 
Q 19.734375 -1.421875 13.25 4.234375 
Q 6.78125 9.90625 6.78125 20.515625 
Q 6.78125 27.484375 10.78125 32.3125 
Q 14.796875 37.15625 21.921875 38.8125 
z
M 18.3125 54.390625 
Q 18.3125 48.734375 21.84375 45.5625 
Q 25.390625 42.390625 31.78125 42.390625 
Q 38.140625 42.390625 41.71875 45.5625 
Q 45.3125 48.734375 45.3125 54.390625 
Q 45.3125 60.0625 41.71875 63.234375 
Q 38.140625 66.40625 31.78125 66.40625 
Q 25.390625 66.40625 21.84375 63.234375 
Q 18.3125 60.0625 18.3125 54.390625 
z
" id="DejaVuSans-56"/>
     <path d="M 10.6875 12.40625 
L 21 12.40625 
L 21 0 
L 10.6875 0 
z
" id="DejaVuSans-46"/>
     <path d="M 2.984375 54.6875 
L 12.5 54.6875 
L 29.59375 8.796875 
L 46.6875 54.6875 
L 56.203125 54.6875 
L 35.6875 0 
L 23.484375 0 
z
" id="DejaVuSans-118"/>
    </defs>
    <g transform="translate(371.555625 45.84)scale(0.12 -0.12)">
     <use xlink:href="#DejaVuSans-65"/>
     <use x="68.408203" xlink:href="#DejaVuSans-52"/>
     <use x="132.03125" xlink:href="#DejaVuSans-66"/>
     <use x="200.634766" xlink:href="#DejaVuSans-101"/>
     <use x="262.158203" xlink:href="#DejaVuSans-110"/>
     <use x="325.537109" xlink:href="#DejaVuSans-99"/>
     <use x="380.517578" xlink:href="#DejaVuSans-104"/>
     <use x="443.896484" xlink:href="#DejaVuSans-109"/>
     <use x="541.308594" xlink:href="#DejaVuSans-97"/>
     <use x="602.587891" xlink:href="#DejaVuSans-114"/>
     <use x="643.701172" xlink:href="#DejaVuSans-107"/>
     <use x="701.611328" xlink:href="#DejaVuSans-45"/>
     <use x="737.554688" xlink:href="#DejaVuSans-84"/>
     <use x="798.638672" xlink:href="#DejaVuSans-83"/>
     <use x="862.115234" xlink:href="#DejaVuSans-56"/>
     <use x="925.738281" xlink:href="#DejaVuSans-53"/>
     <use x="989.361328" xlink:href="#DejaVuSans-46"/>
     <use x="1021.148438" xlink:href="#DejaVuSans-99"/>
     <use x="1076.128906" xlink:href="#DejaVuSans-115"/>
     <use x="1128.228516" xlink:href="#DejaVuSans-118"/>
    </g>
   </g>
   <g id="legend_1">
    <g id="patch_58">
     <path d="M 115 74.518125 
L 174.315625 74.518125 
Q 176.315625 74.518125 176.315625 72.518125 
L 176.315625 58.84 
Q 176.315625 56.84 174.315625 56.84 
L 115 56.84 
Q 113 56.84 113 58.84 
L 113 72.518125 
Q 113 74.518125 115 74.518125 
z
" style="fill:#ffffff;opacity:0.8;stroke:#cccccc;stroke-linejoin:miter;"/>
    </g>
    <g id="line2d_19">
     <path d="M 117 64.938438 
L 137 64.938438 
" style="fill:none;stroke:#1f77b4;stroke-linecap:square;stroke-width:1.5;"/>
    </g>
    <g id="line2d_20"/>
    <g id="text_20">
     <!-- value -->
     <g transform="translate(145 68.438438)scale(0.1 -0.1)">
      <use xlink:href="#DejaVuSans-118"/>
      <use x="59.179688" xlink:href="#DejaVuSans-97"/>
      <use x="120.458984" xlink:href="#DejaVuSans-108"/>
      <use x="148.242188" xlink:href="#DejaVuSans-117"/>
      <use x="211.621094" xlink:href="#DejaVuSans-101"/>
     </g>
    </g>
   </g>
  </g>
 </g>
 <defs>
  <clipPath id="pef38ec1f89">
   <rect height="332.64" width="669.6" x="108" y="51.84"/>
  </clipPath>
 </defs>
</svg>
