<?xml version="1.0" encoding="utf-8" standalone="no"?>
<!DOCTYPE svg PUBLIC "-//W3C//DTD SVG 1.1//EN"
  "http://www.w3.org/Graphics/SVG/1.1/DTD/svg11.dtd">
<!-- Created with matplotlib (https://matplotlib.org/) -->
<svg height="432pt" version="1.1" viewBox="0 0 864 432" width="864pt" xmlns="http://www.w3.org/2000/svg" xmlns:xlink="http://www.w3.org/1999/xlink">
 <defs>
  <style type="text/css">
*{stroke-linecap:butt;stroke-linejoin:round;}
  </style>
 </defs>
 <g id="figure_1">
  <g id="patch_1">
   <path d="M 0 432 
L 864 432 
L 864 0 
L 0 0 
z
" style="fill:#ffffff;"/>
  </g>
  <g id="axes_1">
   <g id="patch_2">
    <path d="M 108 384.48 
L 777.6 384.48 
L 777.6 51.84 
L 108 51.84 
z
" style="fill:#ffffff;"/>
   </g>
   <g id="patch_3">
    <path clip-path="url(#pda8c560d79)" d="M 138.436364 384.48 
L 138.436364 51.84 
L 377.579221 51.84 
L 377.579221 384.48 
z
" style="fill:#0000ff;opacity:0.05;"/>
   </g>
   <g id="patch_4">
    <path clip-path="url(#pda8c560d79)" d="M 377.579221 384.48 
L 377.579221 51.84 
L 747.163636 51.84 
L 747.163636 384.48 
z
" style="fill:#ff0000;opacity:0.08;"/>
   </g>
   <g id="patch_5">
    <path clip-path="url(#pda8c560d79)" d="M 138.436364 384.48 
L 138.436364 51.84 
L 149.306494 51.84 
L 149.306494 384.48 
z
" style="fill:#008000;opacity:0.04;"/>
   </g>
   <g id="patch_6">
    <path clip-path="url(#pda8c560d79)" d="M 160.176623 384.48 
L 160.176623 51.84 
L 171.046753 51.84 
L 171.046753 384.48 
z
" style="fill:#008000;opacity:0.04;"/>
   </g>
   <g id="patch_7">
    <path clip-path="url(#pda8c560d79)" d="M 399.319481 384.48 
L 399.319481 371.1744 
L 410.18961 371.1744 
L 410.18961 384.48 
z
" style="fill:#ff6600;"/>
   </g>
   <g id="patch_8">
    <path clip-path="url(#pda8c560d79)" d="M 410.18961 384.48 
L 410.18961 371.1744 
L 421.05974 371.1744 
L 421.05974 384.48 
z
" style="fill:#ff6600;"/>
   </g>
   <g id="patch_9">
    <path clip-path="url(#pda8c560d79)" d="M 181.916883 384.48 
L 181.916883 51.84 
L 192.787013 51.84 
L 192.787013 384.48 
z
" style="fill:#008000;opacity:0.04;"/>
   </g>
   <g id="patch_10">
    <path clip-path="url(#pda8c560d79)" d="M 192.787013 371.1744 
L 192.787013 51.84 
L 203.657143 51.84 
L 203.657143 371.1744 
z
" style="fill:#008000;opacity:0.5;"/>
   </g>
   <g id="patch_11">
    <path clip-path="url(#pda8c560d79)" d="M 192.787013 384.48 
L 192.787013 371.1744 
L 203.657143 371.1744 
L 203.657143 384.48 
z
" style="fill:#ffe500;"/>
   </g>
   <g id="patch_12">
    <path clip-path="url(#pda8c560d79)" d="M 203.657143 384.48 
L 203.657143 51.84 
L 214.527273 51.84 
L 214.527273 384.48 
z
" style="fill:#008000;opacity:0.04;"/>
   </g>
   <g id="patch_13">
    <path clip-path="url(#pda8c560d79)" d="M 225.397403 384.48 
L 225.397403 51.84 
L 236.267532 51.84 
L 236.267532 384.48 
z
" style="fill:#008000;opacity:0.04;"/>
   </g>
   <g id="patch_14">
    <path clip-path="url(#pda8c560d79)" d="M 247.137662 384.48 
L 247.137662 51.84 
L 258.007792 51.84 
L 258.007792 384.48 
z
" style="fill:#008000;opacity:0.04;"/>
   </g>
   <g id="patch_15">
    <path clip-path="url(#pda8c560d79)" d="M 268.877922 384.48 
L 268.877922 51.84 
L 279.748052 51.84 
L 279.748052 384.48 
z
" style="fill:#008000;opacity:0.04;"/>
   </g>
   <g id="patch_16">
    <path clip-path="url(#pda8c560d79)" d="M 290.618182 384.48 
L 290.618182 51.84 
L 301.488312 51.84 
L 301.488312 384.48 
z
" style="fill:#008000;opacity:0.04;"/>
   </g>
   <g id="patch_17">
    <path clip-path="url(#pda8c560d79)" d="M 312.358442 384.48 
L 312.358442 51.84 
L 323.228571 51.84 
L 323.228571 384.48 
z
" style="fill:#008000;opacity:0.04;"/>
   </g>
   <g id="patch_18">
    <path clip-path="url(#pda8c560d79)" d="M 334.098701 384.48 
L 334.098701 51.84 
L 344.968831 51.84 
L 344.968831 384.48 
z
" style="fill:#008000;opacity:0.04;"/>
   </g>
   <g id="patch_19">
    <path clip-path="url(#pda8c560d79)" d="M 334.098701 384.48 
L 334.098701 371.1744 
L 344.968831 371.1744 
L 344.968831 384.48 
z
" style="fill:#ffe500;"/>
   </g>
   <g id="patch_20">
    <path clip-path="url(#pda8c560d79)" d="M 355.838961 384.48 
L 355.838961 51.84 
L 366.709091 51.84 
L 366.709091 384.48 
z
" style="fill:#008000;opacity:0.04;"/>
   </g>
   <g id="patch_21">
    <path clip-path="url(#pda8c560d79)" d="M 605.851948 384.48 
L 605.851948 371.1744 
L 616.722078 371.1744 
L 616.722078 384.48 
z
" style="fill:#ff6600;"/>
   </g>
   <g id="patch_22">
    <path clip-path="url(#pda8c560d79)" d="M 377.579221 384.48 
L 377.579221 51.84 
L 388.449351 51.84 
L 388.449351 384.48 
z
" style="fill:#008000;opacity:0.04;"/>
   </g>
   <g id="patch_23">
    <path clip-path="url(#pda8c560d79)" d="M 388.449351 371.1744 
L 388.449351 357.8688 
L 399.319481 357.8688 
L 399.319481 371.1744 
z
" style="fill:#ff00ff;"/>
   </g>
   <g id="patch_24">
    <path clip-path="url(#pda8c560d79)" d="M 399.319481 384.48 
L 399.319481 51.84 
L 410.18961 51.84 
L 410.18961 384.48 
z
" style="fill:#008000;opacity:0.04;"/>
   </g>
   <g id="patch_25">
    <path clip-path="url(#pda8c560d79)" d="M 421.05974 384.48 
L 421.05974 51.84 
L 431.92987 51.84 
L 431.92987 384.48 
z
" style="fill:#008000;opacity:0.04;"/>
   </g>
   <g id="patch_26">
    <path clip-path="url(#pda8c560d79)" d="M 442.8 384.48 
L 442.8 51.84 
L 453.67013 51.84 
L 453.67013 384.48 
z
" style="fill:#008000;opacity:0.04;"/>
   </g>
   <g id="patch_27">
    <path clip-path="url(#pda8c560d79)" d="M 464.54026 384.48 
L 464.54026 51.84 
L 475.41039 51.84 
L 475.41039 384.48 
z
" style="fill:#008000;opacity:0.04;"/>
   </g>
   <g id="patch_28">
    <path clip-path="url(#pda8c560d79)" d="M 714.553247 384.48 
L 714.553247 371.1744 
L 725.423377 371.1744 
L 725.423377 384.48 
z
" style="fill:#ff6600;"/>
   </g>
   <g id="patch_29">
    <path clip-path="url(#pda8c560d79)" d="M 486.280519 384.48 
L 486.280519 51.84 
L 497.150649 51.84 
L 497.150649 384.48 
z
" style="fill:#008000;opacity:0.04;"/>
   </g>
   <g id="patch_30">
    <path clip-path="url(#pda8c560d79)" d="M 508.020779 384.48 
L 508.020779 51.84 
L 518.890909 51.84 
L 518.890909 384.48 
z
" style="fill:#008000;opacity:0.04;"/>
   </g>
   <g id="patch_31">
    <path clip-path="url(#pda8c560d79)" d="M 529.761039 384.48 
L 529.761039 51.84 
L 540.631169 51.84 
L 540.631169 384.48 
z
" style="fill:#008000;opacity:0.04;"/>
   </g>
   <g id="patch_32">
    <path clip-path="url(#pda8c560d79)" d="M 551.501299 384.48 
L 551.501299 51.84 
L 562.371429 51.84 
L 562.371429 384.48 
z
" style="fill:#008000;opacity:0.04;"/>
   </g>
   <g id="patch_33">
    <path clip-path="url(#pda8c560d79)" d="M 562.371429 371.1744 
L 562.371429 357.8688 
L 573.241558 357.8688 
L 573.241558 371.1744 
z
" style="fill:#ff00ff;"/>
   </g>
   <g id="patch_34">
    <path clip-path="url(#pda8c560d79)" d="M 573.241558 384.48 
L 573.241558 51.84 
L 584.111688 51.84 
L 584.111688 384.48 
z
" style="fill:#008000;opacity:0.04;"/>
   </g>
   <g id="patch_35">
    <path clip-path="url(#pda8c560d79)" d="M 594.981818 384.48 
L 594.981818 51.84 
L 605.851948 51.84 
L 605.851948 384.48 
z
" style="fill:#008000;opacity:0.04;"/>
   </g>
   <g id="patch_36">
    <path clip-path="url(#pda8c560d79)" d="M 605.851948 371.1744 
L 605.851948 51.84 
L 616.722078 51.84 
L 616.722078 371.1744 
z
" style="fill:#008000;opacity:0.5;"/>
   </g>
   <g id="patch_37">
    <path clip-path="url(#pda8c560d79)" d="M 616.722078 384.48 
L 616.722078 51.84 
L 627.592208 51.84 
L 627.592208 384.48 
z
" style="fill:#008000;opacity:0.04;"/>
   </g>
   <g id="patch_38">
    <path clip-path="url(#pda8c560d79)" d="M 638.462338 384.48 
L 638.462338 51.84 
L 649.332468 51.84 
L 649.332468 384.48 
z
" style="fill:#008000;opacity:0.04;"/>
   </g>
   <g id="patch_39">
    <path clip-path="url(#pda8c560d79)" d="M 660.202597 384.48 
L 660.202597 51.84 
L 671.072727 51.84 
L 671.072727 384.48 
z
" style="fill:#008000;opacity:0.04;"/>
   </g>
   <g id="patch_40">
    <path clip-path="url(#pda8c560d79)" d="M 681.942857 384.48 
L 681.942857 51.84 
L 692.812987 51.84 
L 692.812987 384.48 
z
" style="fill:#008000;opacity:0.04;"/>
   </g>
   <g id="patch_41">
    <path clip-path="url(#pda8c560d79)" d="M 703.683117 384.48 
L 703.683117 51.84 
L 714.553247 51.84 
L 714.553247 384.48 
z
" style="fill:#008000;opacity:0.04;"/>
   </g>
   <g id="patch_42">
    <path clip-path="url(#pda8c560d79)" d="M 714.553247 371.1744 
L 714.553247 51.84 
L 725.423377 51.84 
L 725.423377 371.1744 
z
" style="fill:#008000;opacity:0.5;"/>
   </g>
   <g id="patch_43">
    <path clip-path="url(#pda8c560d79)" d="M 725.423377 384.48 
L 725.423377 51.84 
L 736.293506 51.84 
L 736.293506 384.48 
z
" style="fill:#008000;opacity:0.04;"/>
   </g>
   <g id="matplotlib.axis_1">
    <g id="xtick_1">
     <g id="line2d_1">
      <defs>
       <path d="M 0 0 
L 0 3.5 
" id="mf3e3aa00e0" style="stroke:#000000;stroke-width:0.8;"/>
      </defs>
      <g>
       <use style="stroke:#000000;stroke-width:0.8;" x="138.436364" xlink:href="#mf3e3aa00e0" y="384.48"/>
      </g>
     </g>
     <g id="text_1">
      <!-- 0 -->
      <defs>
       <path d="M 31.78125 66.40625 
Q 24.171875 66.40625 20.328125 58.90625 
Q 16.5 51.421875 16.5 36.375 
Q 16.5 21.390625 20.328125 13.890625 
Q 24.171875 6.390625 31.78125 6.390625 
Q 39.453125 6.390625 43.28125 13.890625 
Q 47.125 21.390625 47.125 36.375 
Q 47.125 51.421875 43.28125 58.90625 
Q 39.453125 66.40625 31.78125 66.40625 
z
M 31.78125 74.21875 
Q 44.046875 74.21875 50.515625 64.515625 
Q 56.984375 54.828125 56.984375 36.375 
Q 56.984375 17.96875 50.515625 8.265625 
Q 44.046875 -1.421875 31.78125 -1.421875 
Q 19.53125 -1.421875 13.0625 8.265625 
Q 6.59375 17.96875 6.59375 36.375 
Q 6.59375 54.828125 13.0625 64.515625 
Q 19.53125 74.21875 31.78125 74.21875 
z
" id="DejaVuSans-48"/>
      </defs>
      <g transform="translate(135.255114 399.078438)scale(0.1 -0.1)">
       <use xlink:href="#DejaVuSans-48"/>
      </g>
     </g>
    </g>
    <g id="xtick_2">
     <g id="line2d_2">
      <g>
       <use style="stroke:#000000;stroke-width:0.8;" x="229.020779" xlink:href="#mf3e3aa00e0" y="384.48"/>
      </g>
     </g>
     <g id="text_2">
      <!-- 250 -->
      <defs>
       <path d="M 19.1875 8.296875 
L 53.609375 8.296875 
L 53.609375 0 
L 7.328125 0 
L 7.328125 8.296875 
Q 12.9375 14.109375 22.625 23.890625 
Q 32.328125 33.6875 34.8125 36.53125 
Q 39.546875 41.84375 41.421875 45.53125 
Q 43.3125 49.21875 43.3125 52.78125 
Q 43.3125 58.59375 39.234375 62.25 
Q 35.15625 65.921875 28.609375 65.921875 
Q 23.96875 65.921875 18.8125 64.3125 
Q 13.671875 62.703125 7.8125 59.421875 
L 7.8125 69.390625 
Q 13.765625 71.78125 18.9375 73 
Q 24.125 74.21875 28.421875 74.21875 
Q 39.75 74.21875 46.484375 68.546875 
Q 53.21875 62.890625 53.21875 53.421875 
Q 53.21875 48.921875 51.53125 44.890625 
Q 49.859375 40.875 45.40625 35.40625 
Q 44.1875 33.984375 37.640625 27.21875 
Q 31.109375 20.453125 19.1875 8.296875 
z
" id="DejaVuSans-50"/>
       <path d="M 10.796875 72.90625 
L 49.515625 72.90625 
L 49.515625 64.59375 
L 19.828125 64.59375 
L 19.828125 46.734375 
Q 21.96875 47.46875 24.109375 47.828125 
Q 26.265625 48.1875 28.421875 48.1875 
Q 40.625 48.1875 47.75 41.5 
Q 54.890625 34.8125 54.890625 23.390625 
Q 54.890625 11.625 47.5625 5.09375 
Q 40.234375 -1.421875 26.90625 -1.421875 
Q 22.3125 -1.421875 17.546875 -0.640625 
Q 12.796875 0.140625 7.71875 1.703125 
L 7.71875 11.625 
Q 12.109375 9.234375 16.796875 8.0625 
Q 21.484375 6.890625 26.703125 6.890625 
Q 35.15625 6.890625 40.078125 11.328125 
Q 45.015625 15.765625 45.015625 23.390625 
Q 45.015625 31 40.078125 35.4375 
Q 35.15625 39.890625 26.703125 39.890625 
Q 22.75 39.890625 18.8125 39.015625 
Q 14.890625 38.140625 10.796875 36.28125 
z
" id="DejaVuSans-53"/>
      </defs>
      <g transform="translate(219.477029 399.078438)scale(0.1 -0.1)">
       <use xlink:href="#DejaVuSans-50"/>
       <use x="63.623047" xlink:href="#DejaVuSans-53"/>
       <use x="127.246094" xlink:href="#DejaVuSans-48"/>
      </g>
     </g>
    </g>
    <g id="xtick_3">
     <g id="line2d_3">
      <g>
       <use style="stroke:#000000;stroke-width:0.8;" x="319.605195" xlink:href="#mf3e3aa00e0" y="384.48"/>
      </g>
     </g>
     <g id="text_3">
      <!-- 500 -->
      <g transform="translate(310.061445 399.078438)scale(0.1 -0.1)">
       <use xlink:href="#DejaVuSans-53"/>
       <use x="63.623047" xlink:href="#DejaVuSans-48"/>
       <use x="127.246094" xlink:href="#DejaVuSans-48"/>
      </g>
     </g>
    </g>
    <g id="xtick_4">
     <g id="line2d_4">
      <g>
       <use style="stroke:#000000;stroke-width:0.8;" x="410.18961" xlink:href="#mf3e3aa00e0" y="384.48"/>
      </g>
     </g>
     <g id="text_4">
      <!-- 750 -->
      <defs>
       <path d="M 8.203125 72.90625 
L 55.078125 72.90625 
L 55.078125 68.703125 
L 28.609375 0 
L 18.3125 0 
L 43.21875 64.59375 
L 8.203125 64.59375 
z
" id="DejaVuSans-55"/>
      </defs>
      <g transform="translate(400.64586 399.078438)scale(0.1 -0.1)">
       <use xlink:href="#DejaVuSans-55"/>
       <use x="63.623047" xlink:href="#DejaVuSans-53"/>
       <use x="127.246094" xlink:href="#DejaVuSans-48"/>
      </g>
     </g>
    </g>
    <g id="xtick_5">
     <g id="line2d_5">
      <g>
       <use style="stroke:#000000;stroke-width:0.8;" x="500.774026" xlink:href="#mf3e3aa00e0" y="384.48"/>
      </g>
     </g>
     <g id="text_5">
      <!-- 1000 -->
      <defs>
       <path d="M 12.40625 8.296875 
L 28.515625 8.296875 
L 28.515625 63.921875 
L 10.984375 60.40625 
L 10.984375 69.390625 
L 28.421875 72.90625 
L 38.28125 72.90625 
L 38.28125 8.296875 
L 54.390625 8.296875 
L 54.390625 0 
L 12.40625 0 
z
" id="DejaVuSans-49"/>
      </defs>
      <g transform="translate(488.049026 399.078438)scale(0.1 -0.1)">
       <use xlink:href="#DejaVuSans-49"/>
       <use x="63.623047" xlink:href="#DejaVuSans-48"/>
       <use x="127.246094" xlink:href="#DejaVuSans-48"/>
       <use x="190.869141" xlink:href="#DejaVuSans-48"/>
      </g>
     </g>
    </g>
    <g id="xtick_6">
     <g id="line2d_6">
      <g>
       <use style="stroke:#000000;stroke-width:0.8;" x="591.358442" xlink:href="#mf3e3aa00e0" y="384.48"/>
      </g>
     </g>
     <g id="text_6">
      <!-- 1250 -->
      <g transform="translate(578.633442 399.078438)scale(0.1 -0.1)">
       <use xlink:href="#DejaVuSans-49"/>
       <use x="63.623047" xlink:href="#DejaVuSans-50"/>
       <use x="127.246094" xlink:href="#DejaVuSans-53"/>
       <use x="190.869141" xlink:href="#DejaVuSans-48"/>
      </g>
     </g>
    </g>
    <g id="xtick_7">
     <g id="line2d_7">
      <g>
       <use style="stroke:#000000;stroke-width:0.8;" x="681.942857" xlink:href="#mf3e3aa00e0" y="384.48"/>
      </g>
     </g>
     <g id="text_7">
      <!-- 1500 -->
      <g transform="translate(669.217857 399.078438)scale(0.1 -0.1)">
       <use xlink:href="#DejaVuSans-49"/>
       <use x="63.623047" xlink:href="#DejaVuSans-53"/>
       <use x="127.246094" xlink:href="#DejaVuSans-48"/>
       <use x="190.869141" xlink:href="#DejaVuSans-48"/>
      </g>
     </g>
    </g>
    <g id="xtick_8">
     <g id="line2d_8">
      <g>
       <use style="stroke:#000000;stroke-width:0.8;" x="772.527273" xlink:href="#mf3e3aa00e0" y="384.48"/>
      </g>
     </g>
     <g id="text_8">
      <!-- 1750 -->
      <g transform="translate(759.802273 399.078438)scale(0.1 -0.1)">
       <use xlink:href="#DejaVuSans-49"/>
       <use x="63.623047" xlink:href="#DejaVuSans-55"/>
       <use x="127.246094" xlink:href="#DejaVuSans-53"/>
       <use x="190.869141" xlink:href="#DejaVuSans-48"/>
      </g>
     </g>
    </g>
    <g id="text_9">
     <!-- Timestamp -->
     <defs>
      <path d="M -0.296875 72.90625 
L 61.375 72.90625 
L 61.375 64.59375 
L 35.5 64.59375 
L 35.5 0 
L 25.59375 0 
L 25.59375 64.59375 
L -0.296875 64.59375 
z
" id="DejaVuSans-84"/>
      <path d="M 9.421875 54.6875 
L 18.40625 54.6875 
L 18.40625 0 
L 9.421875 0 
z
M 9.421875 75.984375 
L 18.40625 75.984375 
L 18.40625 64.59375 
L 9.421875 64.59375 
z
" id="DejaVuSans-105"/>
      <path d="M 52 44.1875 
Q 55.375 50.25 60.0625 53.125 
Q 64.75 56 71.09375 56 
Q 79.640625 56 84.28125 50.015625 
Q 88.921875 44.046875 88.921875 33.015625 
L 88.921875 0 
L 79.890625 0 
L 79.890625 32.71875 
Q 79.890625 40.578125 77.09375 44.375 
Q 74.3125 48.1875 68.609375 48.1875 
Q 61.625 48.1875 57.5625 43.546875 
Q 53.515625 38.921875 53.515625 30.90625 
L 53.515625 0 
L 44.484375 0 
L 44.484375 32.71875 
Q 44.484375 40.625 41.703125 44.40625 
Q 38.921875 48.1875 33.109375 48.1875 
Q 26.21875 48.1875 22.15625 43.53125 
Q 18.109375 38.875 18.109375 30.90625 
L 18.109375 0 
L 9.078125 0 
L 9.078125 54.6875 
L 18.109375 54.6875 
L 18.109375 46.1875 
Q 21.1875 51.21875 25.484375 53.609375 
Q 29.78125 56 35.6875 56 
Q 41.65625 56 45.828125 52.96875 
Q 50 49.953125 52 44.1875 
z
" id="DejaVuSans-109"/>
      <path d="M 56.203125 29.59375 
L 56.203125 25.203125 
L 14.890625 25.203125 
Q 15.484375 15.921875 20.484375 11.0625 
Q 25.484375 6.203125 34.421875 6.203125 
Q 39.59375 6.203125 44.453125 7.46875 
Q 49.3125 8.734375 54.109375 11.28125 
L 54.109375 2.78125 
Q 49.265625 0.734375 44.1875 -0.34375 
Q 39.109375 -1.421875 33.890625 -1.421875 
Q 20.796875 -1.421875 13.15625 6.1875 
Q 5.515625 13.8125 5.515625 26.8125 
Q 5.515625 40.234375 12.765625 48.109375 
Q 20.015625 56 32.328125 56 
Q 43.359375 56 49.78125 48.890625 
Q 56.203125 41.796875 56.203125 29.59375 
z
M 47.21875 32.234375 
Q 47.125 39.59375 43.09375 43.984375 
Q 39.0625 48.390625 32.421875 48.390625 
Q 24.90625 48.390625 20.390625 44.140625 
Q 15.875 39.890625 15.1875 32.171875 
z
" id="DejaVuSans-101"/>
      <path d="M 44.28125 53.078125 
L 44.28125 44.578125 
Q 40.484375 46.53125 36.375 47.5 
Q 32.28125 48.484375 27.875 48.484375 
Q 21.1875 48.484375 17.84375 46.4375 
Q 14.5 44.390625 14.5 40.28125 
Q 14.5 37.15625 16.890625 35.375 
Q 19.28125 33.59375 26.515625 31.984375 
L 29.59375 31.296875 
Q 39.15625 29.25 43.1875 25.515625 
Q 47.21875 21.78125 47.21875 15.09375 
Q 47.21875 7.46875 41.1875 3.015625 
Q 35.15625 -1.421875 24.609375 -1.421875 
Q 20.21875 -1.421875 15.453125 -0.5625 
Q 10.6875 0.296875 5.421875 2 
L 5.421875 11.28125 
Q 10.40625 8.6875 15.234375 7.390625 
Q 20.0625 6.109375 24.8125 6.109375 
Q 31.15625 6.109375 34.5625 8.28125 
Q 37.984375 10.453125 37.984375 14.40625 
Q 37.984375 18.0625 35.515625 20.015625 
Q 33.0625 21.96875 24.703125 23.78125 
L 21.578125 24.515625 
Q 13.234375 26.265625 9.515625 29.90625 
Q 5.8125 33.546875 5.8125 39.890625 
Q 5.8125 47.609375 11.28125 51.796875 
Q 16.75 56 26.8125 56 
Q 31.78125 56 36.171875 55.265625 
Q 40.578125 54.546875 44.28125 53.078125 
z
" id="DejaVuSans-115"/>
      <path d="M 18.3125 70.21875 
L 18.3125 54.6875 
L 36.8125 54.6875 
L 36.8125 47.703125 
L 18.3125 47.703125 
L 18.3125 18.015625 
Q 18.3125 11.328125 20.140625 9.421875 
Q 21.96875 7.515625 27.59375 7.515625 
L 36.8125 7.515625 
L 36.8125 0 
L 27.59375 0 
Q 17.1875 0 13.234375 3.875 
Q 9.28125 7.765625 9.28125 18.015625 
L 9.28125 47.703125 
L 2.6875 47.703125 
L 2.6875 54.6875 
L 9.28125 54.6875 
L 9.28125 70.21875 
z
" id="DejaVuSans-116"/>
      <path d="M 34.28125 27.484375 
Q 23.390625 27.484375 19.1875 25 
Q 14.984375 22.515625 14.984375 16.5 
Q 14.984375 11.71875 18.140625 8.90625 
Q 21.296875 6.109375 26.703125 6.109375 
Q 34.1875 6.109375 38.703125 11.40625 
Q 43.21875 16.703125 43.21875 25.484375 
L 43.21875 27.484375 
z
M 52.203125 31.203125 
L 52.203125 0 
L 43.21875 0 
L 43.21875 8.296875 
Q 40.140625 3.328125 35.546875 0.953125 
Q 30.953125 -1.421875 24.3125 -1.421875 
Q 15.921875 -1.421875 10.953125 3.296875 
Q 6 8.015625 6 15.921875 
Q 6 25.140625 12.171875 29.828125 
Q 18.359375 34.515625 30.609375 34.515625 
L 43.21875 34.515625 
L 43.21875 35.40625 
Q 43.21875 41.609375 39.140625 45 
Q 35.0625 48.390625 27.6875 48.390625 
Q 23 48.390625 18.546875 47.265625 
Q 14.109375 46.140625 10.015625 43.890625 
L 10.015625 52.203125 
Q 14.9375 54.109375 19.578125 55.046875 
Q 24.21875 56 28.609375 56 
Q 40.484375 56 46.34375 49.84375 
Q 52.203125 43.703125 52.203125 31.203125 
z
" id="DejaVuSans-97"/>
      <path d="M 18.109375 8.203125 
L 18.109375 -20.796875 
L 9.078125 -20.796875 
L 9.078125 54.6875 
L 18.109375 54.6875 
L 18.109375 46.390625 
Q 20.953125 51.265625 25.265625 53.625 
Q 29.59375 56 35.59375 56 
Q 45.5625 56 51.78125 48.09375 
Q 58.015625 40.1875 58.015625 27.296875 
Q 58.015625 14.40625 51.78125 6.484375 
Q 45.5625 -1.421875 35.59375 -1.421875 
Q 29.59375 -1.421875 25.265625 0.953125 
Q 20.953125 3.328125 18.109375 8.203125 
z
M 48.6875 27.296875 
Q 48.6875 37.203125 44.609375 42.84375 
Q 40.53125 48.484375 33.40625 48.484375 
Q 26.265625 48.484375 22.1875 42.84375 
Q 18.109375 37.203125 18.109375 27.296875 
Q 18.109375 17.390625 22.1875 11.75 
Q 26.265625 6.109375 33.40625 6.109375 
Q 40.53125 6.109375 44.609375 11.75 
Q 48.6875 17.390625 48.6875 27.296875 
z
" id="DejaVuSans-112"/>
     </defs>
     <g transform="translate(414.739062 412.756563)scale(0.1 -0.1)">
      <use xlink:href="#DejaVuSans-84"/>
      <use x="61.037109" xlink:href="#DejaVuSans-105"/>
      <use x="88.820312" xlink:href="#DejaVuSans-109"/>
      <use x="186.232422" xlink:href="#DejaVuSans-101"/>
      <use x="247.755859" xlink:href="#DejaVuSans-115"/>
      <use x="299.855469" xlink:href="#DejaVuSans-116"/>
      <use x="339.064453" xlink:href="#DejaVuSans-97"/>
      <use x="400.34375" xlink:href="#DejaVuSans-109"/>
      <use x="497.755859" xlink:href="#DejaVuSans-112"/>
     </g>
    </g>
   </g>
   <g id="matplotlib.axis_2">
    <g id="ytick_1">
     <g id="line2d_9">
      <defs>
       <path d="M 0 0 
L -3.5 0 
" id="m7db402a129" style="stroke:#000000;stroke-width:0.8;"/>
      </defs>
      <g>
       <use style="stroke:#000000;stroke-width:0.8;" x="108" xlink:href="#m7db402a129" y="373.263758"/>
      </g>
     </g>
     <g id="text_10">
      <!-- −2000 -->
      <defs>
       <path d="M 10.59375 35.5 
L 73.1875 35.5 
L 73.1875 27.203125 
L 10.59375 27.203125 
z
" id="DejaVuSans-8722"/>
      </defs>
      <g transform="translate(67.170312 377.062977)scale(0.1 -0.1)">
       <use xlink:href="#DejaVuSans-8722"/>
       <use x="83.789062" xlink:href="#DejaVuSans-50"/>
       <use x="147.412109" xlink:href="#DejaVuSans-48"/>
       <use x="211.035156" xlink:href="#DejaVuSans-48"/>
       <use x="274.658203" xlink:href="#DejaVuSans-48"/>
      </g>
     </g>
    </g>
    <g id="ytick_2">
     <g id="line2d_10">
      <g>
       <use style="stroke:#000000;stroke-width:0.8;" x="108" xlink:href="#m7db402a129" y="319.180308"/>
      </g>
     </g>
     <g id="text_11">
      <!-- −1500 -->
      <g transform="translate(67.170312 322.979527)scale(0.1 -0.1)">
       <use xlink:href="#DejaVuSans-8722"/>
       <use x="83.789062" xlink:href="#DejaVuSans-49"/>
       <use x="147.412109" xlink:href="#DejaVuSans-53"/>
       <use x="211.035156" xlink:href="#DejaVuSans-48"/>
       <use x="274.658203" xlink:href="#DejaVuSans-48"/>
      </g>
     </g>
    </g>
    <g id="ytick_3">
     <g id="line2d_11">
      <g>
       <use style="stroke:#000000;stroke-width:0.8;" x="108" xlink:href="#m7db402a129" y="265.096858"/>
      </g>
     </g>
     <g id="text_12">
      <!-- −1000 -->
      <g transform="translate(67.170312 268.896076)scale(0.1 -0.1)">
       <use xlink:href="#DejaVuSans-8722"/>
       <use x="83.789062" xlink:href="#DejaVuSans-49"/>
       <use x="147.412109" xlink:href="#DejaVuSans-48"/>
       <use x="211.035156" xlink:href="#DejaVuSans-48"/>
       <use x="274.658203" xlink:href="#DejaVuSans-48"/>
      </g>
     </g>
    </g>
    <g id="ytick_4">
     <g id="line2d_12">
      <g>
       <use style="stroke:#000000;stroke-width:0.8;" x="108" xlink:href="#m7db402a129" y="211.013408"/>
      </g>
     </g>
     <g id="text_13">
      <!-- −500 -->
      <g transform="translate(73.532813 214.812626)scale(0.1 -0.1)">
       <use xlink:href="#DejaVuSans-8722"/>
       <use x="83.789062" xlink:href="#DejaVuSans-53"/>
       <use x="147.412109" xlink:href="#DejaVuSans-48"/>
       <use x="211.035156" xlink:href="#DejaVuSans-48"/>
      </g>
     </g>
    </g>
    <g id="ytick_5">
     <g id="line2d_13">
      <g>
       <use style="stroke:#000000;stroke-width:0.8;" x="108" xlink:href="#m7db402a129" y="156.929958"/>
      </g>
     </g>
     <g id="text_14">
      <!-- 0 -->
      <g transform="translate(94.6375 160.729176)scale(0.1 -0.1)">
       <use xlink:href="#DejaVuSans-48"/>
      </g>
     </g>
    </g>
    <g id="ytick_6">
     <g id="line2d_14">
      <g>
       <use style="stroke:#000000;stroke-width:0.8;" x="108" xlink:href="#m7db402a129" y="102.846507"/>
      </g>
     </g>
     <g id="text_15">
      <!-- 500 -->
      <g transform="translate(81.9125 106.645726)scale(0.1 -0.1)">
       <use xlink:href="#DejaVuSans-53"/>
       <use x="63.623047" xlink:href="#DejaVuSans-48"/>
       <use x="127.246094" xlink:href="#DejaVuSans-48"/>
      </g>
     </g>
    </g>
    <g id="text_16">
     <!-- Value -->
     <defs>
      <path d="M 28.609375 0 
L 0.78125 72.90625 
L 11.078125 72.90625 
L 34.1875 11.53125 
L 57.328125 72.90625 
L 67.578125 72.90625 
L 39.796875 0 
z
" id="DejaVuSans-86"/>
      <path d="M 9.421875 75.984375 
L 18.40625 75.984375 
L 18.40625 0 
L 9.421875 0 
z
" id="DejaVuSans-108"/>
      <path d="M 8.5 21.578125 
L 8.5 54.6875 
L 17.484375 54.6875 
L 17.484375 21.921875 
Q 17.484375 14.15625 20.5 10.265625 
Q 23.53125 6.390625 29.59375 6.390625 
Q 36.859375 6.390625 41.078125 11.03125 
Q 45.3125 15.671875 45.3125 23.6875 
L 45.3125 54.6875 
L 54.296875 54.6875 
L 54.296875 0 
L 45.3125 0 
L 45.3125 8.40625 
Q 42.046875 3.421875 37.71875 1 
Q 33.40625 -1.421875 27.6875 -1.421875 
Q 18.265625 -1.421875 13.375 4.4375 
Q 8.5 10.296875 8.5 21.578125 
z
M 31.109375 56 
z
" id="DejaVuSans-117"/>
     </defs>
     <g transform="translate(61.090625 232.273281)rotate(-90)scale(0.1 -0.1)">
      <use xlink:href="#DejaVuSans-86"/>
      <use x="68.298828" xlink:href="#DejaVuSans-97"/>
      <use x="129.578125" xlink:href="#DejaVuSans-108"/>
      <use x="157.361328" xlink:href="#DejaVuSans-117"/>
      <use x="220.740234" xlink:href="#DejaVuSans-101"/>
     </g>
    </g>
   </g>
   <g id="line2d_15">
    <path clip-path="url(#pda8c560d79)" d="M 138.436364 159.558158 
L 139.161039 104.949207 
L 139.523377 91.718371 
L 139.885714 92.761925 
L 140.248052 100.413226 
L 140.61039 115.598114 
L 140.972727 140.561733 
L 141.335065 157.647029 
L 141.697403 168.298459 
L 142.05974 168.586865 
L 142.422078 162.78983 
L 143.146753 134.333567 
L 143.509091 125.723174 
L 143.871429 134.104601 
L 144.233766 137.686117 
L 144.958442 178.935099 
L 145.320779 196.492412 
L 145.683117 203.09856 
L 146.045455 190.344896 
L 146.407792 186.289126 
L 146.77013 164.818304 
L 147.132468 135.820068 
L 147.494805 116.377466 
L 147.857143 85.865101 
L 148.581818 66.96 
L 148.944156 87.275623 
L 149.668831 115.816156 
L 150.031169 140.723396 
L 150.393506 148.926509 
L 150.755844 153.39518 
L 151.118182 151.004646 
L 151.480519 130.918306 
L 151.842857 122.440319 
L 152.205195 118.842467 
L 152.567532 113.595053 
L 153.292208 145.990082 
L 153.654545 165.495555 
L 154.379221 195.19789 
L 154.741558 192.041713 
L 155.103896 182.493996 
L 156.553247 79.70968 
L 156.915584 71.083034 
L 157.277922 72.863908 
L 158.002597 90.907598 
L 158.364935 122.146099 
L 159.08961 155.981188 
L 159.451948 154.276976 
L 160.176623 138.222377 
L 160.538961 138.289955 
L 160.901299 119.938482 
L 161.263636 115.841666 
L 161.625974 143.14612 
L 161.988312 154.690207 
L 162.350649 179.874402 
L 163.075325 211.350378 
L 163.437662 199.44195 
L 163.8 193.812752 
L 164.162338 160.889435 
L 164.887013 122.085069 
L 165.249351 94.338199 
L 165.611688 84.349537 
L 165.974026 85.260954 
L 166.336364 97.781322 
L 167.785714 166.355585 
L 168.148052 167.391021 
L 168.51039 155.457985 
L 168.872727 156.985288 
L 169.235065 150.235803 
L 169.597403 147.483189 
L 169.95974 142.205314 
L 170.322078 148.114433 
L 171.046753 200.080779 
L 171.409091 207.436703 
L 171.771429 232.060489 
L 172.133766 230.866441 
L 172.858442 195.32498 
L 173.945455 121.197906 
L 174.307792 109.471741 
L 174.67013 108.798481 
L 175.032468 117.243355 
L 175.394805 143.128329 
L 176.481818 196.775255 
L 176.844156 189.485881 
L 177.206494 189.587599 
L 177.931169 158.540445 
L 178.293506 161.036018 
L 178.655844 162.111697 
L 179.018182 166.329352 
L 180.467532 242.429323 
L 180.82987 240.755533 
L 181.192208 233.481849 
L 181.554545 209.543454 
L 181.916883 172.846895 
L 182.279221 158.204255 
L 182.641558 132.811025 
L 183.003896 121.778134 
L 183.366234 117.521896 
L 183.728571 128.37711 
L 184.090909 158.623196 
L 184.453247 176.549278 
L 184.815584 188.769103 
L 185.54026 204.491997 
L 185.902597 193.552068 
L 186.264935 174.463314 
L 186.627273 170.926227 
L 186.98961 161.194012 
L 187.714286 172.915247 
L 188.438961 211.21749 
L 188.801299 234.060907 
L 189.163636 236.271014 
L 189.525974 239.480453 
L 189.888312 227.693108 
L 190.612987 171.515506 
L 191.7 112.765015 
L 192.062338 106.373558 
L 192.424675 118.204422 
L 193.149351 159.328434 
L 193.511688 178.271329 
L 193.874026 182.861374 
L 194.236364 190.7262 
L 194.598701 183.159978 
L 194.961039 162.901608 
L 195.323377 161.494839 
L 195.685714 143.533973 
L 196.048052 150.986568 
L 197.135065 192.854663 
L 197.497403 217.560005 
L 197.85974 225.786372 
L 198.222078 227.159709 
L 198.584416 213.869905 
L 198.946753 186.230829 
L 199.309091 147.548065 
L 199.671429 128.589642 
L 200.033766 191.934224 
L 200.396104 95.665783 
L 200.758442 88.697683 
L 201.120779 97.575015 
L 202.207792 158.717103 
L 202.57013 166.851123 
L 202.932468 168.542445 
L 203.657143 145.512788 
L 204.381818 129.514525 
L 204.744156 121.874471 
L 205.106494 130.222178 
L 205.468831 159.272879 
L 205.831169 170.128887 
L 206.193506 191.617669 
L 206.555844 195.78334 
L 206.918182 201.920823 
L 207.280519 189.856425 
L 208.72987 89.526903 
L 209.092208 78.559471 
L 209.454545 73.079048 
L 210.179221 101.672844 
L 210.541558 119.715436 
L 210.903896 146.082716 
L 211.266234 148.1785 
L 211.628571 154.733911 
L 211.990909 144.839442 
L 212.353247 128.811494 
L 212.715584 123.15183 
L 213.077922 115.250926 
L 213.44026 115.404171 
L 213.802597 121.689981 
L 214.88961 187.863821 
L 215.251948 191.307575 
L 215.614286 197.097268 
L 216.338961 164.48684 
L 216.701299 128.962625 
L 217.788312 68.011326 
L 218.150649 67.513836 
L 218.875325 102.660206 
L 219.6 151.584576 
L 220.324675 154.602719 
L 221.049351 139.675421 
L 221.774026 121.453537 
L 222.136364 131.515353 
L 222.498701 132.555955 
L 223.223377 171.882494 
L 223.585714 183.835493 
L 223.948052 203.833282 
L 224.31039 199.4033 
L 224.672727 190.628446 
L 226.122078 100.534423 
L 226.484416 90.011079 
L 227.209091 97.864212 
L 228.296104 163.837246 
L 228.658442 168.842057 
L 229.020779 168.25652 
L 229.383117 163.849233 
L 229.745455 161.061705 
L 230.107792 145.992286 
L 230.47013 136.654317 
L 230.832468 144.749537 
L 231.194805 155.95551 
L 232.281818 212.214194 
L 232.644156 218.004874 
L 233.006494 227.628414 
L 233.368831 217.474536 
L 233.731169 194.761281 
L 234.093506 157.323612 
L 234.455844 134.870573 
L 234.818182 119.548575 
L 235.180519 110.097308 
L 235.542857 113.756667 
L 235.905195 114.118094 
L 236.267532 134.445103 
L 236.62987 166.247475 
L 236.992208 175.447715 
L 237.354545 193.097608 
L 237.716883 193.158801 
L 238.079221 182.919231 
L 238.441558 178.195508 
L 238.803896 157.605168 
L 239.166234 160.811409 
L 239.528571 157.570385 
L 241.34026 242.263751 
L 242.064935 234.183433 
L 242.427273 214.727933 
L 243.514286 130.521735 
L 243.876623 116.378841 
L 244.601299 131.797515 
L 244.963636 157.568381 
L 245.325974 169.928222 
L 245.688312 188.127933 
L 246.050649 196.716249 
L 246.412987 199.960865 
L 246.775325 194.193071 
L 247.5 172.028911 
L 247.862338 167.155159 
L 248.224675 156.549386 
L 248.587013 180.019045 
L 248.949351 189.54526 
L 249.674026 225.264834 
L 250.036364 241.593358 
L 250.398701 245.24198 
L 250.761039 226.980865 
L 251.485714 174.275741 
L 251.848052 142.591643 
L 252.21039 122.118562 
L 252.572727 110.630244 
L 252.935065 111.598419 
L 253.297403 120.124448 
L 254.384416 177.309098 
L 254.746753 184.848971 
L 255.109091 189.027533 
L 255.471429 191.517297 
L 255.833766 159.827143 
L 256.196104 153.196736 
L 256.558442 151.880087 
L 256.920779 144.762159 
L 258.007792 193.609788 
L 258.37013 214.082455 
L 258.732468 226.76379 
L 259.819481 184.720773 
L 260.906494 105.571915 
L 261.268831 97.1928 
L 261.993506 94.267853 
L 262.718182 143.376732 
L 263.442857 166.732096 
L 263.805195 168.87136 
L 264.167532 157.865098 
L 264.52987 140.740271 
L 264.892208 142.47404 
L 265.254545 130.497448 
L 265.616883 128.29081 
L 266.341558 155.392262 
L 267.066234 195.115841 
L 267.428571 203.874472 
L 267.790909 207.295642 
L 268.153247 192.545113 
L 268.515584 171.047756 
L 269.602597 87.344897 
L 269.964935 70.117246 
L 270.327273 72.794785 
L 271.051948 99.805701 
L 271.776623 139.587379 
L 272.138961 151.413082 
L 272.501299 151.585609 
L 272.863636 141.900339 
L 273.225974 127.464655 
L 273.950649 111.934096 
L 274.312987 115.168309 
L 275.037662 147.039635 
L 276.124675 198.793843 
L 276.849351 184.950022 
L 277.574026 130.96015 
L 277.936364 97.706011 
L 278.298701 77.728847 
L 279.023377 77.297837 
L 279.385714 79.528571 
L 279.748052 98.271594 
L 280.472727 143.953794 
L 280.835065 161.290281 
L 281.55974 149.193887 
L 282.284416 120.549084 
L 282.646753 125.303856 
L 283.009091 128.25927 
L 283.371429 137.165596 
L 283.733766 158.248617 
L 284.096104 172.103379 
L 284.458442 192.911339 
L 284.820779 204.269019 
L 285.183117 209.871054 
L 285.545455 201.640596 
L 285.907792 178.000548 
L 286.27013 142.537337 
L 286.632468 126.861581 
L 286.994805 84.997416 
L 287.357143 86.94786 
L 287.719481 78.372799 
L 288.081818 102.821755 
L 288.444156 118.151019 
L 289.168831 164.603886 
L 289.531169 160.472143 
L 289.893506 177.082706 
L 290.255844 160.45356 
L 290.618182 150.770632 
L 290.980519 147.155489 
L 291.705195 143.128674 
L 292.067532 156.81839 
L 292.42987 181.137446 
L 292.792208 197.972604 
L 293.154545 206.849714 
L 293.516883 232.133777 
L 293.879221 226.990297 
L 294.603896 200.002318 
L 295.328571 133.221336 
L 295.690909 117.16705 
L 296.053247 106.149322 
L 296.415584 107.777485 
L 297.502597 161.60493 
L 297.864935 184.596268 
L 298.227273 186.53262 
L 298.58961 195.542693 
L 298.951948 173.041215 
L 299.314286 175.849722 
L 299.676623 164.114078 
L 300.401299 160.720445 
L 300.763636 162.564044 
L 301.850649 228.690988 
L 302.212987 237.743382 
L 302.575325 241.322293 
L 303.3 209.342806 
L 304.387013 126.392816 
L 304.749351 124.496484 
L 305.111688 120.760518 
L 305.474026 124.580708 
L 305.836364 153.99332 
L 306.198701 164.030664 
L 306.561039 191.546973 
L 306.923377 200.288713 
L 307.285714 198.249988 
L 307.648052 179.49761 
L 308.01039 181.576135 
L 308.372727 161.020852 
L 308.735065 168.575228 
L 309.097403 161.262819 
L 309.45974 182.506733 
L 309.822078 192.795799 
L 310.546753 226.229055 
L 310.909091 235.035517 
L 311.271429 238.662599 
L 311.633766 226.071784 
L 312.358442 186.167304 
L 312.720779 150.864436 
L 313.083117 127.096451 
L 313.445455 118.970361 
L 313.807792 116.277747 
L 314.17013 116.287809 
L 314.894805 161.464403 
L 315.619481 185.092694 
L 315.981818 189.236757 
L 316.344156 172.976112 
L 317.431169 154.655728 
L 317.793506 153.832585 
L 318.155844 151.179101 
L 318.518182 177.453211 
L 318.880519 192.946686 
L 319.242857 214.37164 
L 319.967532 227.094 
L 320.692208 186.447932 
L 322.141558 86.502633 
L 322.503896 86.042659 
L 322.866234 106.148388 
L 323.228571 117.879783 
L 323.590909 144.07453 
L 323.953247 159.481099 
L 324.315584 163.343097 
L 324.677922 165.127505 
L 325.402597 149.190444 
L 326.127273 128.229967 
L 326.48961 138.548985 
L 326.851948 137.744785 
L 327.214286 152.291007 
L 327.576623 180.861228 
L 327.938961 184.829094 
L 328.301299 208.424576 
L 328.663636 197.975018 
L 329.025974 193.374891 
L 330.475325 86.485188 
L 330.837662 76.2387 
L 331.2 74.286012 
L 331.562338 82.515989 
L 331.924675 107.348343 
L 332.287013 119.735409 
L 333.011688 149.586379 
L 333.374026 152.840634 
L 333.736364 149.517657 
L 334.098701 132.395039 
L 334.461039 121.876397 
L 334.823377 116.241395 
L 335.185714 118.082554 
L 335.548052 130.201118 
L 336.635065 182.54899 
L 336.997403 191.893903 
L 337.35974 187.592167 
L 337.722078 187.137758 
L 338.446753 137.768703 
L 339.171429 87.605337 
L 339.533766 76.845822 
L 339.896104 78.653024 
L 340.258442 72.97561 
L 340.620779 109.526493 
L 340.983117 122.291823 
L 341.345455 143.485107 
L 341.707792 154.276397 
L 342.432468 149.803028 
L 343.519481 115.007426 
L 343.881818 128.442185 
L 344.244156 128.112713 
L 345.331169 196.50734 
L 345.693506 206.032109 
L 346.055844 208.832228 
L 346.780519 174.06744 
L 347.142857 149.84617 
L 347.505195 116.880331 
L 347.867532 105.447631 
L 348.22987 87.53308 
L 348.592208 86.969088 
L 348.954545 100.649796 
L 350.041558 157.580346 
L 350.403896 166.066165 
L 350.766234 165.062074 
L 351.128571 166.479228 
L 351.490909 153.138586 
L 351.853247 148.706205 
L 352.215584 138.013327 
L 352.577922 135.699409 
L 352.94026 159.545402 
L 353.302597 164.273929 
L 353.664935 201.58044 
L 354.027273 220.644749 
L 354.38961 222.951254 
L 354.751948 228.243322 
L 355.114286 213.343292 
L 355.476623 192.878831 
L 356.201299 140.839238 
L 356.563636 120.132291 
L 356.925974 116.214411 
L 357.288312 109.458839 
L 357.650649 121.566618 
L 359.1 193.890195 
L 359.462338 194.208739 
L 359.824675 186.264811 
L 360.187013 174.17657 
L 360.549351 168.595771 
L 360.911688 158.372871 
L 361.274026 158.113336 
L 361.998701 188.166845 
L 362.361039 213.75158 
L 362.723377 227.079091 
L 363.085714 244.959492 
L 363.448052 242.35431 
L 363.81039 237.566312 
L 364.535065 181.563678 
L 364.897403 160.458677 
L 365.25974 130.201509 
L 365.622078 123.211769 
L 365.984416 119.80196 
L 366.346753 122.075949 
L 366.709091 155.970174 
L 367.071429 167.097607 
L 367.433766 193.142412 
L 367.796104 198.846058 
L 368.520779 192.574288 
L 369.245455 168.036529 
L 369.607792 163.929965 
L 370.332468 175.817655 
L 370.694805 187.054106 
L 371.419481 237.171452 
L 371.781818 241.193512 
L 372.144156 237.374381 
L 372.868831 207.497039 
L 373.231169 181.317524 
L 373.593506 146.491031 
L 374.318182 115.454776 
L 374.680519 112.034288 
L 375.042857 118.258401 
L 375.405195 135.151508 
L 376.12987 178.642765 
L 376.492208 179.621867 
L 376.854545 188.053372 
L 377.216883 184.51778 
L 377.579221 165.702161 
L 377.941558 157.612908 
L 378.303896 157.223683 
L 378.666234 143.8657 
L 379.028571 163.165384 
L 379.390909 172.853919 
L 379.753247 193.604039 
L 380.115584 205.768981 
L 380.477922 222.818794 
L 380.84026 223.012285 
L 381.202597 209.967057 
L 381.927273 157.402018 
L 382.651948 101.282883 
L 383.014286 96.37984 
L 383.376623 89.463562 
L 383.738961 98.873221 
L 384.825974 154.116987 
L 385.188312 163.160637 
L 385.550649 167.753984 
L 385.912987 163.75477 
L 386.275325 145.149082 
L 386.637662 133.627427 
L 387 129.578466 
L 387.362338 131.338776 
L 387.724675 134.80896 
L 388.811688 194.219882 
L 389.174026 198.934883 
L 389.536364 211.771327 
L 389.898701 193.135411 
L 391.348052 87.453463 
L 391.71039 73.938609 
L 392.072727 72.199677 
L 393.15974 114.380253 
L 393.522078 139.890736 
L 393.884416 142.128233 
L 394.246753 149.957002 
L 395.333766 118.8803 
L 395.696104 119.310366 
L 396.058442 114.882159 
L 396.420779 126.049084 
L 396.783117 141.653734 
L 397.507792 179.836652 
L 397.87013 195.89424 
L 398.232468 191.928817 
L 398.594805 183.494862 
L 398.957143 157.251509 
L 400.044156 103.850869 
L 400.406494 92.749889 
L 400.768831 96.253262 
L 401.131169 102.916782 
L 401.855844 133.724206 
L 402.580519 152.932941 
L 402.942857 157.623467 
L 403.305195 153.039287 
L 404.392208 129.673178 
L 405.116883 141.88169 
L 406.203896 185.268834 
L 406.566234 186.778191 
L 406.928571 191.068232 
L 407.290909 183.261989 
L 408.015584 150.174588 
L 408.377922 125.056961 
L 409.102597 106.023402 
L 409.464935 103.419482 
L 409.827273 115.38227 
L 410.551948 148.689107 
L 410.914286 158.063551 
L 411.276623 162.818607 
L 411.638961 165.932566 
L 412.001299 165.338132 
L 412.725974 146.400705 
L 413.088312 145.072346 
L 413.450649 147.889112 
L 413.812987 156.817047 
L 415.262338 206.939184 
L 415.624675 211.716627 
L 416.349351 184.62947 
L 417.436364 126.633669 
L 418.161039 118.157268 
L 418.523377 133.180154 
L 418.885714 143.200668 
L 419.248052 165.942726 
L 419.61039 172.710311 
L 419.972727 185.451762 
L 420.335065 183.885462 
L 420.697403 180.700859 
L 421.05974 167.739909 
L 421.422078 161.964861 
L 421.784416 165.371176 
L 422.146753 160.177083 
L 422.871429 179.929279 
L 423.596104 205.864332 
L 423.958442 215.639786 
L 424.320779 219.156256 
L 424.683117 210.456739 
L 426.132468 138.95604 
L 426.494805 128.819791 
L 426.857143 134.353842 
L 427.219481 135.298703 
L 427.581818 156.54259 
L 427.944156 161.280531 
L 428.306494 178.358135 
L 428.668831 182.405585 
L 429.031169 190.497415 
L 429.393506 184.855248 
L 429.755844 170.394089 
L 430.118182 167.873461 
L 430.480519 160.30824 
L 430.842857 162.126893 
L 431.205195 169.88526 
L 431.92987 197.224187 
L 432.292208 204.859542 
L 432.654545 217.597816 
L 433.016883 212.463296 
L 433.379221 204.933091 
L 434.103896 173.31935 
L 434.828571 127.67699 
L 435.190909 121.751543 
L 435.553247 124.307936 
L 435.915584 131.204027 
L 436.64026 160.115168 
L 437.002597 167.409736 
L 437.364935 178.423721 
L 437.727273 177.074806 
L 438.08961 175.283815 
L 438.814286 151.805313 
L 439.538961 146.729628 
L 439.901299 156.892395 
L 440.988312 202.426574 
L 441.350649 204.806709 
L 441.712987 204.923313 
L 442.437662 178.759946 
L 443.524675 119.475128 
L 444.249351 108.745516 
L 444.611688 116.046513 
L 445.698701 153.711765 
L 446.061039 160.710293 
L 446.423377 163.769277 
L 446.785714 160.701793 
L 447.148052 147.451941 
L 447.872727 134.222511 
L 448.235065 140.521722 
L 448.597403 141.26519 
L 449.322078 173.606374 
L 449.684416 178.671864 
L 450.046753 188.132797 
L 450.409091 187.207236 
L 450.771429 179.034335 
L 451.133766 175.606292 
L 451.496104 140.620143 
L 452.220779 105.259561 
L 452.583117 94.37693 
L 452.945455 96.676515 
L 453.307792 100.805108 
L 453.67013 120.841281 
L 454.032468 124.14803 
L 454.394805 143.830314 
L 454.757143 149.947787 
L 455.119481 152.080758 
L 455.844156 143.359079 
L 456.206494 129.288972 
L 456.568831 129.127751 
L 456.931169 135.607213 
L 457.293506 134.188476 
L 458.018182 167.981008 
L 458.380519 174.879336 
L 458.742857 183.958779 
L 459.467532 173.777361 
L 459.82987 161.210567 
L 460.192208 144.206064 
L 460.554545 117.852066 
L 460.916883 100.003057 
L 461.279221 96.67599 
L 461.641558 94.641047 
L 462.003896 104.09661 
L 463.090909 149.07084 
L 463.453247 147.32798 
L 463.815584 157.058094 
L 464.177922 150.806394 
L 464.54026 139.387128 
L 464.902597 137.737576 
L 465.264935 129.052585 
L 465.627273 130.785979 
L 465.98961 140.401643 
L 467.076623 182.895425 
L 467.438961 188.212944 
L 467.801299 191.153387 
L 468.163636 181.121422 
L 468.888312 151.445763 
L 469.250649 131.781655 
L 469.612987 119.581026 
L 469.975325 98.45085 
L 470.7 121.67668 
L 471.062338 129.209825 
L 471.787013 159.498445 
L 472.149351 166.306362 
L 472.511688 168.129239 
L 472.874026 164.317741 
L 473.236364 154.621306 
L 473.598701 149.067058 
L 473.961039 150.694165 
L 474.323377 142.987155 
L 474.685714 154.305089 
L 475.048052 174.039037 
L 475.772727 191.788086 
L 476.135065 209.608182 
L 476.497403 208.772055 
L 476.85974 202.77711 
L 477.222078 178.400727 
L 477.584416 164.828243 
L 477.946753 141.72329 
L 478.671429 124.546848 
L 479.033766 123.714739 
L 479.396104 128.987368 
L 479.758442 139.443013 
L 480.483117 171.854703 
L 480.845455 183.627654 
L 481.57013 177.924761 
L 481.932468 171.253907 
L 482.294805 167.15442 
L 482.657143 166.082686 
L 483.019481 158.265609 
L 483.744156 175.587026 
L 484.106494 197.504584 
L 484.468831 212.405975 
L 484.831169 215.86374 
L 485.193506 213.59734 
L 485.555844 209.857789 
L 487.005195 136.906553 
L 487.367532 130.98748 
L 487.72987 129.103118 
L 488.092208 134.023714 
L 488.454545 148.108774 
L 489.179221 181.850933 
L 489.541558 191.115776 
L 489.903896 194.017354 
L 490.628571 172.223893 
L 490.990909 166.034163 
L 491.353247 157.565203 
L 491.715584 158.190154 
L 492.077922 163.659751 
L 493.164935 213.095218 
L 493.527273 215.875142 
L 493.88961 212.228207 
L 494.251948 211.49487 
L 494.976623 171.076734 
L 495.701299 131.09973 
L 496.063636 119.975669 
L 496.788312 132.436508 
L 497.150649 143.932341 
L 497.512987 162.16195 
L 497.875325 166.671856 
L 498.237662 175.341836 
L 498.6 177.428802 
L 498.962338 176.323924 
L 499.687013 155.295753 
L 500.049351 149.113362 
L 500.411688 157.012827 
L 500.774026 158.66777 
L 501.136364 173.306799 
L 501.498701 179.818819 
L 501.861039 197.931027 
L 502.223377 201.842908 
L 502.585714 203.497604 
L 502.948052 193.256429 
L 503.31039 179.400685 
L 503.672727 149.258395 
L 504.035065 136.998788 
L 504.75974 105.63211 
L 505.484416 117.093793 
L 505.846753 125.455272 
L 506.571429 157.054741 
L 506.933766 163.760699 
L 507.296104 163.205013 
L 507.658442 158.364802 
L 508.020779 151.837305 
L 508.383117 139.540858 
L 508.745455 133.458664 
L 509.107792 139.787342 
L 509.47013 139.011059 
L 509.832468 161.077907 
L 510.194805 165.081095 
L 510.557143 182.581425 
L 510.919481 184.317468 
L 511.281818 184.114908 
L 511.644156 180.062069 
L 512.731169 123.217992 
L 513.455844 89.929217 
L 513.818182 95.792114 
L 514.180519 103.575742 
L 514.542857 114.499527 
L 515.267532 145.904924 
L 515.62987 152.489728 
L 515.992208 152.420714 
L 516.354545 149.657811 
L 516.716883 139.431803 
L 517.079221 136.738401 
L 517.441558 135.289302 
L 517.803896 128.840858 
L 518.166234 131.218466 
L 519.253247 176.036368 
L 519.615584 185.693852 
L 519.977922 189.202244 
L 520.702597 164.566718 
L 521.78961 108.387966 
L 522.151948 90.299273 
L 522.514286 93.335557 
L 522.876623 104.840829 
L 523.238961 121.238849 
L 523.601299 130.62501 
L 523.963636 147.256177 
L 524.325974 157.209121 
L 524.688312 155.318107 
L 525.050649 150.360771 
L 525.775325 132.412207 
L 526.137662 130.095473 
L 526.5 130.183665 
L 526.862338 140.099046 
L 527.949351 178.510787 
L 528.311688 189.026099 
L 528.674026 188.526335 
L 529.398701 167.809175 
L 529.761039 143.32302 
L 530.485714 114.696483 
L 530.848052 107.187612 
L 531.21039 108.096025 
L 532.65974 160.500042 
L 533.022078 161.507092 
L 533.384416 165.311542 
L 533.746753 165.517958 
L 534.109091 154.732327 
L 534.471429 148.725665 
L 534.833766 144.862575 
L 535.558442 152.683534 
L 536.283117 185.500706 
L 537.007792 206.829765 
L 537.37013 209.388872 
L 537.732468 199.501099 
L 538.819481 143.559425 
L 539.544156 122.648235 
L 539.906494 118.442596 
L 540.268831 127.114287 
L 540.631169 145.240102 
L 540.993506 156.140607 
L 541.355844 170.608147 
L 542.080519 192.234476 
L 542.442857 174.736712 
L 542.805195 174.636617 
L 543.167532 161.291036 
L 543.52987 159.265854 
L 544.254545 167.620591 
L 544.979221 194.775652 
L 545.703896 219.276951 
L 546.066234 217.776842 
L 546.428571 207.25268 
L 547.515584 157.034326 
L 548.24026 127.809289 
L 548.602597 128.609244 
L 548.964935 135.850208 
L 549.327273 154.189198 
L 549.68961 161.404378 
L 550.051948 170.873333 
L 550.414286 188.58328 
L 550.776623 185.339588 
L 551.138961 185.149759 
L 551.501299 177.450305 
L 551.863636 163.062201 
L 552.225974 162.177928 
L 552.588312 166.714685 
L 552.950649 167.379161 
L 553.312987 177.752728 
L 554.037662 210.231867 
L 554.4 218.533756 
L 554.762338 214.491104 
L 555.124675 208.871172 
L 556.574026 135.241829 
L 556.936364 125.724605 
L 557.298701 123.124179 
L 557.661039 135.494719 
L 558.023377 141.393786 
L 558.748052 173.747226 
L 559.11039 182.600012 
L 559.472727 177.728989 
L 559.835065 170.425123 
L 560.197403 171.420938 
L 560.55974 156.393262 
L 560.922078 150.19537 
L 561.284416 152.83495 
L 561.646753 158.58555 
L 563.096104 204.626043 
L 563.458442 202.339288 
L 563.820779 195.473454 
L 565.27013 116.234056 
L 565.632468 111.209631 
L 565.994805 108.683694 
L 566.719481 127.077522 
L 567.081818 148.404286 
L 567.444156 152.219654 
L 567.806494 164.277152 
L 568.168831 166.649234 
L 568.531169 158.91374 
L 568.893506 146.890618 
L 569.255844 144.06006 
L 569.618182 133.190662 
L 570.705195 153.459709 
L 571.42987 181.849654 
L 571.792208 190.317825 
L 572.154545 188.143892 
L 572.516883 176.111333 
L 572.879221 167.98636 
L 573.241558 145.69519 
L 573.603896 132.831257 
L 573.966234 113.003409 
L 574.328571 111.05688 
L 574.690909 110.621785 
L 575.415584 124.561879 
L 576.14026 149.933541 
L 576.864935 156.751219 
L 577.227273 150.77116 
L 577.58961 148.515875 
L 577.951948 144.540116 
L 578.676623 140.326329 
L 579.038961 142.279071 
L 579.401299 152.474102 
L 580.125974 183.738834 
L 580.488312 187.497777 
L 580.850649 189.095497 
L 581.937662 154.740024 
L 582.662338 121.76244 
L 583.024675 117.5166 
L 583.387013 122.868596 
L 583.749351 121.632215 
L 584.474026 147.446937 
L 584.836364 159.210894 
L 585.198701 162.926766 
L 585.561039 172.014098 
L 586.648052 150.922377 
L 587.01039 151.034664 
L 587.372727 149.507558 
L 587.735065 156.333795 
L 588.097403 166.89846 
L 588.822078 195.212935 
L 589.184416 197.799265 
L 589.546753 199.172334 
L 590.271429 182.313903 
L 591.358442 138.038078 
L 591.720779 131.04723 
L 592.445455 144.738151 
L 592.807792 150.355866 
L 593.894805 186.540536 
L 594.257143 185.653307 
L 594.619481 182.766994 
L 595.344156 171.414462 
L 595.706494 165.200059 
L 596.068831 175.052913 
L 596.431169 176.813801 
L 596.793506 184.202741 
L 597.155844 200.012926 
L 597.880519 217.684612 
L 598.242857 223.340816 
L 598.967532 202.291335 
L 599.32987 184.974636 
L 599.692208 173.671363 
L 600.054545 153.998092 
L 600.416883 155.565086 
L 600.779221 156.526985 
L 601.141558 161.458215 
L 601.503896 169.407617 
L 601.866234 186.721101 
L 602.228571 195.631078 
L 602.590909 200.080756 
L 602.953247 206.670576 
L 603.315584 199.905617 
L 603.677922 196.676113 
L 604.04026 185.460161 
L 604.402597 186.72135 
L 604.764935 185.400578 
L 606.214286 225.332729 
L 606.576623 229.047575 
L 606.938961 230.884033 
L 607.301299 229.565974 
L 607.663636 221.640838 
L 608.388312 187.442821 
L 608.750649 175.869086 
L 609.475325 165.687072 
L 609.837662 173.081585 
L 610.562338 201.616998 
L 610.924675 205.014592 
L 611.287013 163.739581 
L 611.649351 214.124286 
L 612.011688 208.848491 
L 612.736364 201.733769 
L 613.098701 201.054023 
L 613.461039 199.111061 
L 613.823377 202.726368 
L 614.185714 216.737606 
L 614.548052 223.360741 
L 615.272727 244.032211 
L 615.635065 242.70697 
L 615.997403 237.643484 
L 616.35974 227.698945 
L 617.084416 191.338953 
L 617.446753 174.638098 
L 617.809091 173.760701 
L 618.171429 170.71446 
L 618.533766 174.211007 
L 619.620779 214.112858 
L 620.345455 216.183075 
L 620.707792 213.167277 
L 621.07013 201.932996 
L 621.432468 196.065596 
L 621.794805 194.444642 
L 622.519481 204.600807 
L 622.881818 210.498692 
L 623.606494 234.844252 
L 623.968831 238.918016 
L 624.331169 241.257067 
L 624.693506 234.280153 
L 625.418182 205.066924 
L 626.142857 172.852108 
L 626.505195 170.441791 
L 626.867532 159.012974 
L 628.316883 207.072099 
L 628.679221 208.744403 
L 629.041558 209.877029 
L 629.403896 210.553027 
L 629.766234 203.990517 
L 630.128571 194.278722 
L 630.490909 192.878734 
L 630.853247 195.27461 
L 631.215584 196.485712 
L 631.577922 211.790979 
L 631.94026 219.973711 
L 632.302597 230.85244 
L 632.664935 234.604493 
L 633.027273 234.469423 
L 633.38961 230.438035 
L 634.838961 170.855113 
L 635.201299 165.344855 
L 635.563636 162.954607 
L 635.925974 173.996792 
L 636.288312 180.798494 
L 637.012987 206.071494 
L 637.375325 211.025759 
L 637.737662 210.591875 
L 638.1 210.804153 
L 638.462338 199.781088 
L 638.824675 199.075278 
L 639.549351 187.205095 
L 639.911688 204.07339 
L 640.274026 208.97298 
L 640.998701 234.27699 
L 641.361039 242.284062 
L 641.723377 242.707027 
L 642.81039 206.218791 
L 643.172727 189.743862 
L 643.535065 178.469047 
L 643.897403 171.697081 
L 644.25974 171.930343 
L 644.622078 177.546448 
L 645.346753 202.697096 
L 646.071429 219.915321 
L 646.433766 223.373105 
L 646.796104 221.909302 
L 647.520779 205.060077 
L 647.883117 202.074331 
L 648.245455 202.30196 
L 648.607792 210.788702 
L 649.694805 246.89925 
L 650.419481 257.163289 
L 650.781818 249.562586 
L 652.231169 193.098659 
L 652.593506 189.763592 
L 652.955844 188.092197 
L 654.042857 215.35568 
L 654.405195 232.727852 
L 654.767532 239.562169 
L 655.12987 238.087549 
L 655.492208 240.782117 
L 656.216883 224.690792 
L 656.579221 223.052591 
L 656.941558 224.568674 
L 657.303896 229.532408 
L 658.390909 267.114503 
L 658.753247 273.176643 
L 659.115584 275.568044 
L 659.477922 268.407858 
L 660.202597 245.448884 
L 660.564935 233.461354 
L 660.927273 216.936897 
L 661.28961 210.753907 
L 661.651948 210.465701 
L 662.014286 218.061255 
L 662.738961 243.192417 
L 663.101299 249.497355 
L 663.463636 258.249586 
L 663.825974 257.519196 
L 664.188312 253.010219 
L 664.550649 254.64856 
L 664.912987 245.867207 
L 665.275325 241.632665 
L 665.637662 243.614924 
L 666.362338 262.041492 
L 666.724675 265.708707 
L 667.087013 282.767419 
L 667.449351 292.957791 
L 667.811688 293.153451 
L 668.174026 285.842078 
L 668.536364 273.90366 
L 669.623377 228.772179 
L 669.985714 221.57352 
L 670.71039 225.345072 
L 671.797403 265.154635 
L 672.15974 270.390858 
L 672.522078 269.376065 
L 672.884416 266.493105 
L 673.971429 246.897335 
L 674.333766 256.714912 
L 674.696104 255.479304 
L 675.058442 264.844457 
L 675.420779 281.070861 
L 675.783117 291.430602 
L 676.145455 297.77543 
L 676.87013 285.805321 
L 677.232468 277.805446 
L 677.957143 242.91355 
L 678.319481 236.63108 
L 678.681818 226.190901 
L 679.044156 230.547377 
L 679.406494 231.793525 
L 679.768831 241.256738 
L 680.131169 256.486377 
L 680.493506 265.390651 
L 680.855844 265.997761 
L 681.218182 273.805663 
L 681.580519 263.159214 
L 681.942857 258.866155 
L 682.305195 251.995117 
L 682.667532 252.457739 
L 683.02987 257.305186 
L 683.392208 252.88746 
L 684.116883 278.907336 
L 684.841558 293.963523 
L 685.203896 294.80423 
L 685.928571 274.622469 
L 686.653247 241.608498 
L 687.377922 219.096543 
L 688.102597 231.10931 
L 688.464935 235.960003 
L 689.551948 265.208434 
L 689.914286 265.365992 
L 690.276623 264.443878 
L 690.638961 260.164723 
L 691.001299 249.720564 
L 691.363636 246.32113 
L 691.725974 250.014508 
L 692.088312 250.932079 
L 692.812987 274.907195 
L 693.537662 291.277093 
L 693.9 293.777638 
L 694.262338 285.389141 
L 694.987013 256.113821 
L 695.711688 225.972211 
L 696.074026 221.446964 
L 696.436364 219.127545 
L 696.798701 227.012347 
L 697.523377 248.969012 
L 697.885714 257.085275 
L 698.248052 268.151281 
L 699.697403 251.790947 
L 700.05974 241.35311 
L 700.422078 245.387916 
L 701.509091 276.090976 
L 701.871429 287.125943 
L 702.596104 296.260947 
L 702.958442 290.559355 
L 703.683117 260.86827 
L 704.407792 231.097242 
L 704.77013 226.685653 
L 705.132468 226.552285 
L 705.494805 229.28814 
L 706.581818 273.455088 
L 706.944156 269.76688 
L 707.306494 278.82864 
L 707.668831 269.997549 
L 708.031169 267.04771 
L 708.393506 260.661922 
L 708.755844 260.800857 
L 709.480519 265.092082 
L 709.842857 275.443311 
L 710.567532 302.739767 
L 710.92987 307.036915 
L 711.292208 309.599277 
L 711.654545 302.660031 
L 712.379221 274.914004 
L 713.103896 247.359012 
L 713.466234 245.878078 
L 713.828571 245.180118 
L 714.915584 274.554104 
L 715.277922 287.603496 
L 715.64026 296.495365 
L 716.002597 291.068261 
L 716.364935 290.605667 
L 717.451948 274.865323 
L 717.814286 277.714098 
L 718.176623 285.986309 
L 718.901299 313.93938 
L 719.263636 369.36 
L 719.625974 330.532829 
L 719.988312 329.485841 
L 720.350649 326.875605 
L 720.712987 315.986855 
L 721.075325 294.611938 
L 721.437662 284.464689 
L 721.8 262.878516 
L 722.162338 261.325019 
L 722.524675 264.724603 
L 722.887013 273.037376 
L 723.611688 295.479587 
L 724.336364 310.266949 
L 724.698701 313.11058 
L 725.423377 301.004335 
L 725.785714 296.385534 
L 726.148052 295.226599 
L 726.51039 295.687713 
L 726.872727 297.877907 
L 727.597403 327.140286 
L 728.322078 344.765919 
L 728.684416 349.911136 
L 729.771429 313.1132 
L 730.496104 288.287298 
L 730.858442 275.497963 
L 731.220779 278.411389 
L 731.583117 282.601502 
L 733.032468 324.815691 
L 733.394805 328.266993 
L 733.757143 319.730651 
L 734.119481 317.888017 
L 734.481818 310.755811 
L 734.844156 308.690807 
L 735.206494 308.748433 
L 735.931169 319.146267 
L 736.293506 328.27648 
L 736.655844 348.273449 
L 737.018182 348.92681 
L 737.380519 351.949918 
L 737.742857 345.249581 
L 738.467532 318.339299 
L 739.192208 284.579984 
L 739.554545 280.641552 
L 739.916883 279.325988 
L 740.641558 294.662136 
L 741.003896 311.122352 
L 741.728571 326.608831 
L 742.090909 324.756686 
L 742.453247 315.404578 
L 742.815584 313.137727 
L 743.177922 305.655273 
L 743.54026 308.123344 
L 743.902597 304.048689 
L 745.351948 347.177777 
L 745.714286 350.070365 
L 746.076623 351.314653 
L 746.438961 342.558976 
L 746.801299 329.596052 
L 746.801299 329.596052 
" style="fill:none;stroke:#1f77b4;stroke-linecap:square;stroke-width:1.5;"/>
   </g>
   <g id="line2d_16">
    <path clip-path="url(#pda8c560d79)" d="M 747.163636 384.48 
L 747.163636 51.84 
" style="fill:none;stroke:#808080;stroke-linecap:square;"/>
   </g>
   <g id="patch_44">
    <path d="M 108 384.48 
L 108 51.84 
" style="fill:none;stroke:#000000;stroke-linecap:square;stroke-linejoin:miter;stroke-width:0.8;"/>
   </g>
   <g id="patch_45">
    <path d="M 777.6 384.48 
L 777.6 51.84 
" style="fill:none;stroke:#000000;stroke-linecap:square;stroke-linejoin:miter;stroke-width:0.8;"/>
   </g>
   <g id="patch_46">
    <path d="M 108 384.48 
L 777.6 384.48 
" style="fill:none;stroke:#000000;stroke-linecap:square;stroke-linejoin:miter;stroke-width:0.8;"/>
   </g>
   <g id="patch_47">
    <path d="M 108 51.84 
L 777.6 51.84 
" style="fill:none;stroke:#000000;stroke-linecap:square;stroke-linejoin:miter;stroke-width:0.8;"/>
   </g>
   <g id="text_17">
    <!-- A4Benchmark-TS60.csv -->
    <defs>
     <path d="M 34.1875 63.1875 
L 20.796875 26.90625 
L 47.609375 26.90625 
z
M 28.609375 72.90625 
L 39.796875 72.90625 
L 67.578125 0 
L 57.328125 0 
L 50.6875 18.703125 
L 17.828125 18.703125 
L 11.1875 0 
L 0.78125 0 
z
" id="DejaVuSans-65"/>
     <path d="M 37.796875 64.3125 
L 12.890625 25.390625 
L 37.796875 25.390625 
z
M 35.203125 72.90625 
L 47.609375 72.90625 
L 47.609375 25.390625 
L 58.015625 25.390625 
L 58.015625 17.1875 
L 47.609375 17.1875 
L 47.609375 0 
L 37.796875 0 
L 37.796875 17.1875 
L 4.890625 17.1875 
L 4.890625 26.703125 
z
" id="DejaVuSans-52"/>
     <path d="M 19.671875 34.8125 
L 19.671875 8.109375 
L 35.5 8.109375 
Q 43.453125 8.109375 47.28125 11.40625 
Q 51.125 14.703125 51.125 21.484375 
Q 51.125 28.328125 47.28125 31.5625 
Q 43.453125 34.8125 35.5 34.8125 
z
M 19.671875 64.796875 
L 19.671875 42.828125 
L 34.28125 42.828125 
Q 41.5 42.828125 45.03125 45.53125 
Q 48.578125 48.25 48.578125 53.8125 
Q 48.578125 59.328125 45.03125 62.0625 
Q 41.5 64.796875 34.28125 64.796875 
z
M 9.8125 72.90625 
L 35.015625 72.90625 
Q 46.296875 72.90625 52.390625 68.21875 
Q 58.5 63.53125 58.5 54.890625 
Q 58.5 48.1875 55.375 44.234375 
Q 52.25 40.28125 46.1875 39.3125 
Q 53.46875 37.75 57.5 32.78125 
Q 61.53125 27.828125 61.53125 20.40625 
Q 61.53125 10.640625 54.890625 5.3125 
Q 48.25 0 35.984375 0 
L 9.8125 0 
z
" id="DejaVuSans-66"/>
     <path d="M 54.890625 33.015625 
L 54.890625 0 
L 45.90625 0 
L 45.90625 32.71875 
Q 45.90625 40.484375 42.875 44.328125 
Q 39.84375 48.1875 33.796875 48.1875 
Q 26.515625 48.1875 22.3125 43.546875 
Q 18.109375 38.921875 18.109375 30.90625 
L 18.109375 0 
L 9.078125 0 
L 9.078125 54.6875 
L 18.109375 54.6875 
L 18.109375 46.1875 
Q 21.34375 51.125 25.703125 53.5625 
Q 30.078125 56 35.796875 56 
Q 45.21875 56 50.046875 50.171875 
Q 54.890625 44.34375 54.890625 33.015625 
z
" id="DejaVuSans-110"/>
     <path d="M 48.78125 52.59375 
L 48.78125 44.1875 
Q 44.96875 46.296875 41.140625 47.34375 
Q 37.3125 48.390625 33.40625 48.390625 
Q 24.65625 48.390625 19.8125 42.84375 
Q 14.984375 37.3125 14.984375 27.296875 
Q 14.984375 17.28125 19.8125 11.734375 
Q 24.65625 6.203125 33.40625 6.203125 
Q 37.3125 6.203125 41.140625 7.25 
Q 44.96875 8.296875 48.78125 10.40625 
L 48.78125 2.09375 
Q 45.015625 0.34375 40.984375 -0.53125 
Q 36.96875 -1.421875 32.421875 -1.421875 
Q 20.0625 -1.421875 12.78125 6.34375 
Q 5.515625 14.109375 5.515625 27.296875 
Q 5.515625 40.671875 12.859375 48.328125 
Q 20.21875 56 33.015625 56 
Q 37.15625 56 41.109375 55.140625 
Q 45.0625 54.296875 48.78125 52.59375 
z
" id="DejaVuSans-99"/>
     <path d="M 54.890625 33.015625 
L 54.890625 0 
L 45.90625 0 
L 45.90625 32.71875 
Q 45.90625 40.484375 42.875 44.328125 
Q 39.84375 48.1875 33.796875 48.1875 
Q 26.515625 48.1875 22.3125 43.546875 
Q 18.109375 38.921875 18.109375 30.90625 
L 18.109375 0 
L 9.078125 0 
L 9.078125 75.984375 
L 18.109375 75.984375 
L 18.109375 46.1875 
Q 21.34375 51.125 25.703125 53.5625 
Q 30.078125 56 35.796875 56 
Q 45.21875 56 50.046875 50.171875 
Q 54.890625 44.34375 54.890625 33.015625 
z
" id="DejaVuSans-104"/>
     <path d="M 41.109375 46.296875 
Q 39.59375 47.171875 37.8125 47.578125 
Q 36.03125 48 33.890625 48 
Q 26.265625 48 22.1875 43.046875 
Q 18.109375 38.09375 18.109375 28.8125 
L 18.109375 0 
L 9.078125 0 
L 9.078125 54.6875 
L 18.109375 54.6875 
L 18.109375 46.1875 
Q 20.953125 51.171875 25.484375 53.578125 
Q 30.03125 56 36.53125 56 
Q 37.453125 56 38.578125 55.875 
Q 39.703125 55.765625 41.0625 55.515625 
z
" id="DejaVuSans-114"/>
     <path d="M 9.078125 75.984375 
L 18.109375 75.984375 
L 18.109375 31.109375 
L 44.921875 54.6875 
L 56.390625 54.6875 
L 27.390625 29.109375 
L 57.625 0 
L 45.90625 0 
L 18.109375 26.703125 
L 18.109375 0 
L 9.078125 0 
z
" id="DejaVuSans-107"/>
     <path d="M 4.890625 31.390625 
L 31.203125 31.390625 
L 31.203125 23.390625 
L 4.890625 23.390625 
z
" id="DejaVuSans-45"/>
     <path d="M 53.515625 70.515625 
L 53.515625 60.890625 
Q 47.90625 63.578125 42.921875 64.890625 
Q 37.9375 66.21875 33.296875 66.21875 
Q 25.25 66.21875 20.875 63.09375 
Q 16.5 59.96875 16.5 54.203125 
Q 16.5 49.359375 19.40625 46.890625 
Q 22.3125 44.4375 30.421875 42.921875 
L 36.375 41.703125 
Q 47.40625 39.59375 52.65625 34.296875 
Q 57.90625 29 57.90625 20.125 
Q 57.90625 9.515625 50.796875 4.046875 
Q 43.703125 -1.421875 29.984375 -1.421875 
Q 24.8125 -1.421875 18.96875 -0.25 
Q 13.140625 0.921875 6.890625 3.21875 
L 6.890625 13.375 
Q 12.890625 10.015625 18.65625 8.296875 
Q 24.421875 6.59375 29.984375 6.59375 
Q 38.421875 6.59375 43.015625 9.90625 
Q 47.609375 13.234375 47.609375 19.390625 
Q 47.609375 24.75 44.3125 27.78125 
Q 41.015625 30.8125 33.5 32.328125 
L 27.484375 33.5 
Q 16.453125 35.6875 11.515625 40.375 
Q 6.59375 45.0625 6.59375 53.421875 
Q 6.59375 63.09375 13.40625 68.65625 
Q 20.21875 74.21875 32.171875 74.21875 
Q 37.3125 74.21875 42.625 73.28125 
Q 47.953125 72.359375 53.515625 70.515625 
z
" id="DejaVuSans-83"/>
     <path d="M 33.015625 40.375 
Q 26.375 40.375 22.484375 35.828125 
Q 18.609375 31.296875 18.609375 23.390625 
Q 18.609375 15.53125 22.484375 10.953125 
Q 26.375 6.390625 33.015625 6.390625 
Q 39.65625 6.390625 43.53125 10.953125 
Q 47.40625 15.53125 47.40625 23.390625 
Q 47.40625 31.296875 43.53125 35.828125 
Q 39.65625 40.375 33.015625 40.375 
z
M 52.59375 71.296875 
L 52.59375 62.3125 
Q 48.875 64.0625 45.09375 64.984375 
Q 41.3125 65.921875 37.59375 65.921875 
Q 27.828125 65.921875 22.671875 59.328125 
Q 17.53125 52.734375 16.796875 39.40625 
Q 19.671875 43.65625 24.015625 45.921875 
Q 28.375 48.1875 33.59375 48.1875 
Q 44.578125 48.1875 50.953125 41.515625 
Q 57.328125 34.859375 57.328125 23.390625 
Q 57.328125 12.15625 50.6875 5.359375 
Q 44.046875 -1.421875 33.015625 -1.421875 
Q 20.359375 -1.421875 13.671875 8.265625 
Q 6.984375 17.96875 6.984375 36.375 
Q 6.984375 53.65625 15.1875 63.9375 
Q 23.390625 74.21875 37.203125 74.21875 
Q 40.921875 74.21875 44.703125 73.484375 
Q 48.484375 72.75 52.59375 71.296875 
z
" id="DejaVuSans-54"/>
     <path d="M 10.6875 12.40625 
L 21 12.40625 
L 21 0 
L 10.6875 0 
z
" id="DejaVuSans-46"/>
     <path d="M 2.984375 54.6875 
L 12.5 54.6875 
L 29.59375 8.796875 
L 46.6875 54.6875 
L 56.203125 54.6875 
L 35.6875 0 
L 23.484375 0 
z
" id="DejaVuSans-118"/>
    </defs>
    <g transform="translate(371.555625 45.84)scale(0.12 -0.12)">
     <use xlink:href="#DejaVuSans-65"/>
     <use x="68.408203" xlink:href="#DejaVuSans-52"/>
     <use x="132.03125" xlink:href="#DejaVuSans-66"/>
     <use x="200.634766" xlink:href="#DejaVuSans-101"/>
     <use x="262.158203" xlink:href="#DejaVuSans-110"/>
     <use x="325.537109" xlink:href="#DejaVuSans-99"/>
     <use x="380.517578" xlink:href="#DejaVuSans-104"/>
     <use x="443.896484" xlink:href="#DejaVuSans-109"/>
     <use x="541.308594" xlink:href="#DejaVuSans-97"/>
     <use x="602.587891" xlink:href="#DejaVuSans-114"/>
     <use x="643.701172" xlink:href="#DejaVuSans-107"/>
     <use x="701.611328" xlink:href="#DejaVuSans-45"/>
     <use x="737.554688" xlink:href="#DejaVuSans-84"/>
     <use x="798.638672" xlink:href="#DejaVuSans-83"/>
     <use x="862.115234" xlink:href="#DejaVuSans-54"/>
     <use x="925.738281" xlink:href="#DejaVuSans-48"/>
     <use x="989.361328" xlink:href="#DejaVuSans-46"/>
     <use x="1021.148438" xlink:href="#DejaVuSans-99"/>
     <use x="1076.128906" xlink:href="#DejaVuSans-115"/>
     <use x="1128.228516" xlink:href="#DejaVuSans-118"/>
    </g>
   </g>
   <g id="legend_1">
    <g id="patch_48">
     <path d="M 115 379.48 
L 174.315625 379.48 
Q 176.315625 379.48 176.315625 377.48 
L 176.315625 363.801875 
Q 176.315625 361.801875 174.315625 361.801875 
L 115 361.801875 
Q 113 361.801875 113 363.801875 
L 113 377.48 
Q 113 379.48 115 379.48 
z
" style="fill:#ffffff;opacity:0.8;stroke:#cccccc;stroke-linejoin:miter;"/>
    </g>
    <g id="line2d_17">
     <path d="M 117 369.900312 
L 137 369.900312 
" style="fill:none;stroke:#1f77b4;stroke-linecap:square;stroke-width:1.5;"/>
    </g>
    <g id="line2d_18"/>
    <g id="text_18">
     <!-- value -->
     <g transform="translate(145 373.400312)scale(0.1 -0.1)">
      <use xlink:href="#DejaVuSans-118"/>
      <use x="59.179688" xlink:href="#DejaVuSans-97"/>
      <use x="120.458984" xlink:href="#DejaVuSans-108"/>
      <use x="148.242188" xlink:href="#DejaVuSans-117"/>
      <use x="211.621094" xlink:href="#DejaVuSans-101"/>
     </g>
    </g>
   </g>
  </g>
 </g>
 <defs>
  <clipPath id="pda8c560d79">
   <rect height="332.64" width="669.6" x="108" y="51.84"/>
  </clipPath>
 </defs>
</svg>
