<?xml version="1.0" encoding="utf-8" standalone="no"?>
<!DOCTYPE svg PUBLIC "-//W3C//DTD SVG 1.1//EN"
  "http://www.w3.org/Graphics/SVG/1.1/DTD/svg11.dtd">
<!-- Created with matplotlib (https://matplotlib.org/) -->
<svg height="432pt" version="1.1" viewBox="0 0 864 432" width="864pt" xmlns="http://www.w3.org/2000/svg" xmlns:xlink="http://www.w3.org/1999/xlink">
 <metadata>
  <rdf:RDF xmlns:cc="http://creativecommons.org/ns#" xmlns:dc="http://purl.org/dc/elements/1.1/" xmlns:rdf="http://www.w3.org/1999/02/22-rdf-syntax-ns#">
   <cc:Work>
    <dc:type rdf:resource="http://purl.org/dc/dcmitype/StillImage"/>
    <dc:date>2020-12-04T17:32:27.444618</dc:date>
    <dc:format>image/svg+xml</dc:format>
    <dc:creator>
     <cc:Agent>
      <dc:title>Matplotlib v3.3.3, https://matplotlib.org/</dc:title>
     </cc:Agent>
    </dc:creator>
   </cc:Work>
  </rdf:RDF>
 </metadata>
 <defs>
  <style type="text/css">*{stroke-linecap:butt;stroke-linejoin:round;}</style>
 </defs>
 <g id="figure_1">
  <g id="patch_1">
   <path d="M 0 432 
L 864 432 
L 864 0 
L 0 0 
z
" style="fill:#ffffff;"/>
  </g>
  <g id="axes_1">
   <g id="patch_2">
    <path d="M 108 384.48 
L 777.6 384.48 
L 777.6 51.84 
L 108 51.84 
z
" style="fill:#ffffff;"/>
   </g>
   <g id="patch_3">
    <path clip-path="url(#pc1ab461baa)" d="M 138.436364 384.48 
L 138.436364 51.84 
L 377.99172 51.84 
L 377.99172 384.48 
z
" style="fill:#0000ff;opacity:0.05;"/>
   </g>
   <g id="patch_4">
    <path clip-path="url(#pc1ab461baa)" d="M 377.99172 384.48 
L 377.99172 51.84 
L 745.880304 51.84 
L 745.880304 384.48 
z
" style="fill:#ff0000;opacity:0.08;"/>
   </g>
   <g id="patch_5">
    <path clip-path="url(#pc1ab461baa)" d="M 138.436364 384.48 
L 138.436364 51.84 
L 142.714138 51.84 
L 142.714138 384.48 
z
" style="fill:#008000;opacity:0.04;"/>
   </g>
   <g id="patch_6">
    <path clip-path="url(#pc1ab461baa)" d="M 138.436364 384.48 
L 138.436364 371.1744 
L 142.714138 371.1744 
L 142.714138 384.48 
z
" style="fill:#ffe500;"/>
   </g>
   <g id="patch_7">
    <path clip-path="url(#pc1ab461baa)" d="M 146.991912 384.48 
L 146.991912 51.84 
L 151.269686 51.84 
L 151.269686 384.48 
z
" style="fill:#008000;opacity:0.04;"/>
   </g>
   <g id="patch_8">
    <path clip-path="url(#pc1ab461baa)" d="M 155.547461 384.48 
L 155.547461 51.84 
L 159.825235 51.84 
L 159.825235 384.48 
z
" style="fill:#008000;opacity:0.04;"/>
   </g>
   <g id="patch_9">
    <path clip-path="url(#pc1ab461baa)" d="M 164.103009 384.48 
L 164.103009 51.84 
L 168.380783 51.84 
L 168.380783 384.48 
z
" style="fill:#008000;opacity:0.04;"/>
   </g>
   <g id="patch_10">
    <path clip-path="url(#pc1ab461baa)" d="M 168.380783 384.48 
L 168.380783 371.1744 
L 172.658557 371.1744 
L 172.658557 384.48 
z
" style="fill:#ffe500;"/>
   </g>
   <g id="patch_11">
    <path clip-path="url(#pc1ab461baa)" d="M 172.658557 384.48 
L 172.658557 51.84 
L 176.936332 51.84 
L 176.936332 384.48 
z
" style="fill:#008000;opacity:0.04;"/>
   </g>
   <g id="patch_12">
    <path clip-path="url(#pc1ab461baa)" d="M 181.214106 384.48 
L 181.214106 51.84 
L 185.49188 51.84 
L 185.49188 384.48 
z
" style="fill:#008000;opacity:0.04;"/>
   </g>
   <g id="patch_13">
    <path clip-path="url(#pc1ab461baa)" d="M 189.769654 384.48 
L 189.769654 51.84 
L 194.047429 51.84 
L 194.047429 384.48 
z
" style="fill:#008000;opacity:0.04;"/>
   </g>
   <g id="patch_14">
    <path clip-path="url(#pc1ab461baa)" d="M 189.769654 384.48 
L 189.769654 371.1744 
L 194.047429 371.1744 
L 194.047429 384.48 
z
" style="fill:#ffe500;"/>
   </g>
   <g id="patch_15">
    <path clip-path="url(#pc1ab461baa)" d="M 198.325203 384.48 
L 198.325203 51.84 
L 202.602977 51.84 
L 202.602977 384.48 
z
" style="fill:#008000;opacity:0.04;"/>
   </g>
   <g id="patch_16">
    <path clip-path="url(#pc1ab461baa)" d="M 202.602977 384.48 
L 202.602977 371.1744 
L 206.880751 371.1744 
L 206.880751 384.48 
z
" style="fill:#ffe500;"/>
   </g>
   <g id="patch_17">
    <path clip-path="url(#pc1ab461baa)" d="M 206.880751 384.48 
L 206.880751 51.84 
L 211.158526 51.84 
L 211.158526 384.48 
z
" style="fill:#008000;opacity:0.04;"/>
   </g>
   <g id="patch_18">
    <path clip-path="url(#pc1ab461baa)" d="M 215.4363 384.48 
L 215.4363 51.84 
L 219.714074 51.84 
L 219.714074 384.48 
z
" style="fill:#008000;opacity:0.04;"/>
   </g>
   <g id="patch_19">
    <path clip-path="url(#pc1ab461baa)" d="M 223.991848 384.48 
L 223.991848 51.84 
L 228.269622 51.84 
L 228.269622 384.48 
z
" style="fill:#008000;opacity:0.04;"/>
   </g>
   <g id="patch_20">
    <path clip-path="url(#pc1ab461baa)" d="M 232.547397 384.48 
L 232.547397 51.84 
L 236.825171 51.84 
L 236.825171 384.48 
z
" style="fill:#008000;opacity:0.04;"/>
   </g>
   <g id="patch_21">
    <path clip-path="url(#pc1ab461baa)" d="M 241.102945 384.48 
L 241.102945 51.84 
L 245.380719 51.84 
L 245.380719 384.48 
z
" style="fill:#008000;opacity:0.04;"/>
   </g>
   <g id="patch_22">
    <path clip-path="url(#pc1ab461baa)" d="M 249.658494 384.48 
L 249.658494 51.84 
L 253.936268 51.84 
L 253.936268 384.48 
z
" style="fill:#008000;opacity:0.04;"/>
   </g>
   <g id="patch_23">
    <path clip-path="url(#pc1ab461baa)" d="M 258.214042 384.48 
L 258.214042 51.84 
L 262.491816 51.84 
L 262.491816 384.48 
z
" style="fill:#008000;opacity:0.04;"/>
   </g>
   <g id="patch_24">
    <path clip-path="url(#pc1ab461baa)" d="M 266.76959 384.48 
L 266.76959 51.84 
L 271.047365 51.84 
L 271.047365 384.48 
z
" style="fill:#008000;opacity:0.04;"/>
   </g>
   <g id="patch_25">
    <path clip-path="url(#pc1ab461baa)" d="M 275.325139 384.48 
L 275.325139 51.84 
L 279.602913 51.84 
L 279.602913 384.48 
z
" style="fill:#008000;opacity:0.04;"/>
   </g>
   <g id="patch_26">
    <path clip-path="url(#pc1ab461baa)" d="M 283.880687 384.48 
L 283.880687 51.84 
L 288.158462 51.84 
L 288.158462 384.48 
z
" style="fill:#008000;opacity:0.04;"/>
   </g>
   <g id="patch_27">
    <path clip-path="url(#pc1ab461baa)" d="M 292.436236 384.48 
L 292.436236 51.84 
L 296.71401 51.84 
L 296.71401 384.48 
z
" style="fill:#008000;opacity:0.04;"/>
   </g>
   <g id="patch_28">
    <path clip-path="url(#pc1ab461baa)" d="M 300.991784 384.48 
L 300.991784 51.84 
L 305.269559 51.84 
L 305.269559 384.48 
z
" style="fill:#008000;opacity:0.04;"/>
   </g>
   <g id="patch_29">
    <path clip-path="url(#pc1ab461baa)" d="M 309.547333 384.48 
L 309.547333 51.84 
L 313.825107 51.84 
L 313.825107 384.48 
z
" style="fill:#008000;opacity:0.04;"/>
   </g>
   <g id="patch_30">
    <path clip-path="url(#pc1ab461baa)" d="M 318.102881 384.48 
L 318.102881 51.84 
L 322.380655 51.84 
L 322.380655 384.48 
z
" style="fill:#008000;opacity:0.04;"/>
   </g>
   <g id="patch_31">
    <path clip-path="url(#pc1ab461baa)" d="M 326.65843 384.48 
L 326.65843 51.84 
L 330.936204 51.84 
L 330.936204 384.48 
z
" style="fill:#008000;opacity:0.04;"/>
   </g>
   <g id="patch_32">
    <path clip-path="url(#pc1ab461baa)" d="M 335.213978 384.48 
L 335.213978 51.84 
L 339.491752 51.84 
L 339.491752 384.48 
z
" style="fill:#008000;opacity:0.04;"/>
   </g>
   <g id="patch_33">
    <path clip-path="url(#pc1ab461baa)" d="M 343.769527 384.48 
L 343.769527 51.84 
L 348.047301 51.84 
L 348.047301 384.48 
z
" style="fill:#008000;opacity:0.04;"/>
   </g>
   <g id="patch_34">
    <path clip-path="url(#pc1ab461baa)" d="M 352.325075 384.48 
L 352.325075 51.84 
L 356.602849 51.84 
L 356.602849 384.48 
z
" style="fill:#008000;opacity:0.04;"/>
   </g>
   <g id="patch_35">
    <path clip-path="url(#pc1ab461baa)" d="M 352.325075 384.48 
L 352.325075 371.1744 
L 356.602849 371.1744 
L 356.602849 384.48 
z
" style="fill:#ffe500;"/>
   </g>
   <g id="patch_36">
    <path clip-path="url(#pc1ab461baa)" d="M 360.880624 384.48 
L 360.880624 51.84 
L 365.158398 51.84 
L 365.158398 384.48 
z
" style="fill:#008000;opacity:0.04;"/>
   </g>
   <g id="patch_37">
    <path clip-path="url(#pc1ab461baa)" d="M 369.436172 384.48 
L 369.436172 51.84 
L 373.713946 51.84 
L 373.713946 384.48 
z
" style="fill:#008000;opacity:0.04;"/>
   </g>
   <g id="patch_38">
    <path clip-path="url(#pc1ab461baa)" d="M 608.991529 384.48 
L 608.991529 371.1744 
L 613.269303 371.1744 
L 613.269303 384.48 
z
" style="fill:#ff6600;"/>
   </g>
   <g id="patch_39">
    <path clip-path="url(#pc1ab461baa)" d="M 613.269303 384.48 
L 613.269303 371.1744 
L 617.547077 371.1744 
L 617.547077 384.48 
z
" style="fill:#ff6600;"/>
   </g>
   <g id="patch_40">
    <path clip-path="url(#pc1ab461baa)" d="M 377.99172 384.48 
L 377.99172 51.84 
L 382.269495 51.84 
L 382.269495 384.48 
z
" style="fill:#008000;opacity:0.04;"/>
   </g>
   <g id="patch_41">
    <path clip-path="url(#pc1ab461baa)" d="M 621.824851 384.48 
L 621.824851 371.1744 
L 626.102626 371.1744 
L 626.102626 384.48 
z
" style="fill:#ff6600;"/>
   </g>
   <g id="patch_42">
    <path clip-path="url(#pc1ab461baa)" d="M 386.547269 384.48 
L 386.547269 51.84 
L 390.825043 51.84 
L 390.825043 384.48 
z
" style="fill:#008000;opacity:0.04;"/>
   </g>
   <g id="patch_43">
    <path clip-path="url(#pc1ab461baa)" d="M 395.102817 384.48 
L 395.102817 51.84 
L 399.380592 51.84 
L 399.380592 384.48 
z
" style="fill:#008000;opacity:0.04;"/>
   </g>
   <g id="patch_44">
    <path clip-path="url(#pc1ab461baa)" d="M 634.658174 384.48 
L 634.658174 371.1744 
L 638.935948 371.1744 
L 638.935948 384.48 
z
" style="fill:#ff6600;"/>
   </g>
   <g id="patch_45">
    <path clip-path="url(#pc1ab461baa)" d="M 403.658366 384.48 
L 403.658366 51.84 
L 407.93614 51.84 
L 407.93614 384.48 
z
" style="fill:#008000;opacity:0.04;"/>
   </g>
   <g id="patch_46">
    <path clip-path="url(#pc1ab461baa)" d="M 412.213914 384.48 
L 412.213914 51.84 
L 416.491688 51.84 
L 416.491688 384.48 
z
" style="fill:#008000;opacity:0.04;"/>
   </g>
   <g id="patch_47">
    <path clip-path="url(#pc1ab461baa)" d="M 420.769463 384.48 
L 420.769463 51.84 
L 425.047237 51.84 
L 425.047237 384.48 
z
" style="fill:#008000;opacity:0.04;"/>
   </g>
   <g id="patch_48">
    <path clip-path="url(#pc1ab461baa)" d="M 429.325011 384.48 
L 429.325011 51.84 
L 433.602785 51.84 
L 433.602785 384.48 
z
" style="fill:#008000;opacity:0.04;"/>
   </g>
   <g id="patch_49">
    <path clip-path="url(#pc1ab461baa)" d="M 673.158142 384.48 
L 673.158142 371.1744 
L 677.435916 371.1744 
L 677.435916 384.48 
z
" style="fill:#ff6600;"/>
   </g>
   <g id="patch_50">
    <path clip-path="url(#pc1ab461baa)" d="M 437.88056 384.48 
L 437.88056 51.84 
L 442.158334 51.84 
L 442.158334 384.48 
z
" style="fill:#008000;opacity:0.04;"/>
   </g>
   <g id="patch_51">
    <path clip-path="url(#pc1ab461baa)" d="M 446.436108 384.48 
L 446.436108 51.84 
L 450.713882 51.84 
L 450.713882 384.48 
z
" style="fill:#008000;opacity:0.04;"/>
   </g>
   <g id="patch_52">
    <path clip-path="url(#pc1ab461baa)" d="M 685.991465 384.48 
L 685.991465 371.1744 
L 690.269239 371.1744 
L 690.269239 384.48 
z
" style="fill:#ff6600;"/>
   </g>
   <g id="patch_53">
    <path clip-path="url(#pc1ab461baa)" d="M 454.991657 384.48 
L 454.991657 51.84 
L 459.269431 51.84 
L 459.269431 384.48 
z
" style="fill:#008000;opacity:0.04;"/>
   </g>
   <g id="patch_54">
    <path clip-path="url(#pc1ab461baa)" d="M 698.824788 384.48 
L 698.824788 371.1744 
L 703.102562 371.1744 
L 703.102562 384.48 
z
" style="fill:#ff6600;"/>
   </g>
   <g id="patch_55">
    <path clip-path="url(#pc1ab461baa)" d="M 463.547205 384.48 
L 463.547205 51.84 
L 467.824979 51.84 
L 467.824979 384.48 
z
" style="fill:#008000;opacity:0.04;"/>
   </g>
   <g id="patch_56">
    <path clip-path="url(#pc1ab461baa)" d="M 703.102562 384.48 
L 703.102562 371.1744 
L 707.380336 371.1744 
L 707.380336 384.48 
z
" style="fill:#ff6600;"/>
   </g>
   <g id="patch_57">
    <path clip-path="url(#pc1ab461baa)" d="M 707.380336 384.48 
L 707.380336 371.1744 
L 711.65811 371.1744 
L 711.65811 384.48 
z
" style="fill:#ff6600;"/>
   </g>
   <g id="patch_58">
    <path clip-path="url(#pc1ab461baa)" d="M 472.102753 384.48 
L 472.102753 51.84 
L 476.380528 51.84 
L 476.380528 384.48 
z
" style="fill:#008000;opacity:0.04;"/>
   </g>
   <g id="patch_59">
    <path clip-path="url(#pc1ab461baa)" d="M 711.65811 384.48 
L 711.65811 371.1744 
L 715.935884 371.1744 
L 715.935884 384.48 
z
" style="fill:#ff6600;"/>
   </g>
   <g id="patch_60">
    <path clip-path="url(#pc1ab461baa)" d="M 715.935884 384.48 
L 715.935884 371.1744 
L 720.213659 371.1744 
L 720.213659 384.48 
z
" style="fill:#ff6600;"/>
   </g>
   <g id="patch_61">
    <path clip-path="url(#pc1ab461baa)" d="M 480.658302 384.48 
L 480.658302 51.84 
L 484.936076 51.84 
L 484.936076 384.48 
z
" style="fill:#008000;opacity:0.04;"/>
   </g>
   <g id="patch_62">
    <path clip-path="url(#pc1ab461baa)" d="M 724.491433 384.48 
L 724.491433 371.1744 
L 728.769207 371.1744 
L 728.769207 384.48 
z
" style="fill:#ff6600;"/>
   </g>
   <g id="patch_63">
    <path clip-path="url(#pc1ab461baa)" d="M 489.21385 384.48 
L 489.21385 51.84 
L 493.491625 51.84 
L 493.491625 384.48 
z
" style="fill:#008000;opacity:0.04;"/>
   </g>
   <g id="patch_64">
    <path clip-path="url(#pc1ab461baa)" d="M 497.769399 384.48 
L 497.769399 51.84 
L 502.047173 51.84 
L 502.047173 384.48 
z
" style="fill:#008000;opacity:0.04;"/>
   </g>
   <g id="patch_65">
    <path clip-path="url(#pc1ab461baa)" d="M 741.60253 384.48 
L 741.60253 371.1744 
L 745.880304 371.1744 
L 745.880304 384.48 
z
" style="fill:#ff6600;"/>
   </g>
   <g id="patch_66">
    <path clip-path="url(#pc1ab461baa)" d="M 506.324947 384.48 
L 506.324947 51.84 
L 510.602722 51.84 
L 510.602722 384.48 
z
" style="fill:#008000;opacity:0.04;"/>
   </g>
   <g id="patch_67">
    <path clip-path="url(#pc1ab461baa)" d="M 514.880496 384.48 
L 514.880496 51.84 
L 519.15827 51.84 
L 519.15827 384.48 
z
" style="fill:#008000;opacity:0.04;"/>
   </g>
   <g id="patch_68">
    <path clip-path="url(#pc1ab461baa)" d="M 523.436044 384.48 
L 523.436044 51.84 
L 527.713818 51.84 
L 527.713818 384.48 
z
" style="fill:#008000;opacity:0.04;"/>
   </g>
   <g id="patch_69">
    <path clip-path="url(#pc1ab461baa)" d="M 531.991593 384.48 
L 531.991593 51.84 
L 536.269367 51.84 
L 536.269367 384.48 
z
" style="fill:#008000;opacity:0.04;"/>
   </g>
   <g id="patch_70">
    <path clip-path="url(#pc1ab461baa)" d="M 540.547141 384.48 
L 540.547141 51.84 
L 544.824915 51.84 
L 544.824915 384.48 
z
" style="fill:#008000;opacity:0.04;"/>
   </g>
   <g id="patch_71">
    <path clip-path="url(#pc1ab461baa)" d="M 549.10269 384.48 
L 549.10269 51.84 
L 553.380464 51.84 
L 553.380464 384.48 
z
" style="fill:#008000;opacity:0.04;"/>
   </g>
   <g id="patch_72">
    <path clip-path="url(#pc1ab461baa)" d="M 557.658238 384.48 
L 557.658238 51.84 
L 561.936012 51.84 
L 561.936012 384.48 
z
" style="fill:#008000;opacity:0.04;"/>
   </g>
   <g id="patch_73">
    <path clip-path="url(#pc1ab461baa)" d="M 566.213786 384.48 
L 566.213786 51.84 
L 570.491561 51.84 
L 570.491561 384.48 
z
" style="fill:#008000;opacity:0.04;"/>
   </g>
   <g id="patch_74">
    <path clip-path="url(#pc1ab461baa)" d="M 574.769335 384.48 
L 574.769335 51.84 
L 579.047109 51.84 
L 579.047109 384.48 
z
" style="fill:#008000;opacity:0.04;"/>
   </g>
   <g id="patch_75">
    <path clip-path="url(#pc1ab461baa)" d="M 583.324883 384.48 
L 583.324883 51.84 
L 587.602658 51.84 
L 587.602658 384.48 
z
" style="fill:#008000;opacity:0.04;"/>
   </g>
   <g id="patch_76">
    <path clip-path="url(#pc1ab461baa)" d="M 591.880432 384.48 
L 591.880432 51.84 
L 596.158206 51.84 
L 596.158206 384.48 
z
" style="fill:#008000;opacity:0.04;"/>
   </g>
   <g id="patch_77">
    <path clip-path="url(#pc1ab461baa)" d="M 600.43598 384.48 
L 600.43598 51.84 
L 604.713755 51.84 
L 604.713755 384.48 
z
" style="fill:#008000;opacity:0.04;"/>
   </g>
   <g id="patch_78">
    <path clip-path="url(#pc1ab461baa)" d="M 608.991529 384.48 
L 608.991529 51.84 
L 613.269303 51.84 
L 613.269303 384.48 
z
" style="fill:#008000;opacity:0.04;"/>
   </g>
   <g id="patch_79">
    <path clip-path="url(#pc1ab461baa)" d="M 617.547077 384.48 
L 617.547077 51.84 
L 621.824851 51.84 
L 621.824851 384.48 
z
" style="fill:#008000;opacity:0.04;"/>
   </g>
   <g id="patch_80">
    <path clip-path="url(#pc1ab461baa)" d="M 626.102626 384.48 
L 626.102626 51.84 
L 630.3804 51.84 
L 630.3804 384.48 
z
" style="fill:#008000;opacity:0.04;"/>
   </g>
   <g id="patch_81">
    <path clip-path="url(#pc1ab461baa)" d="M 634.658174 384.48 
L 634.658174 51.84 
L 638.935948 51.84 
L 638.935948 384.48 
z
" style="fill:#008000;opacity:0.04;"/>
   </g>
   <g id="patch_82">
    <path clip-path="url(#pc1ab461baa)" d="M 643.213723 384.48 
L 643.213723 51.84 
L 647.491497 51.84 
L 647.491497 384.48 
z
" style="fill:#008000;opacity:0.04;"/>
   </g>
   <g id="patch_83">
    <path clip-path="url(#pc1ab461baa)" d="M 651.769271 384.48 
L 651.769271 51.84 
L 656.047045 51.84 
L 656.047045 384.48 
z
" style="fill:#008000;opacity:0.04;"/>
   </g>
   <g id="patch_84">
    <path clip-path="url(#pc1ab461baa)" d="M 660.32482 384.48 
L 660.32482 51.84 
L 664.602594 51.84 
L 664.602594 384.48 
z
" style="fill:#008000;opacity:0.04;"/>
   </g>
   <g id="patch_85">
    <path clip-path="url(#pc1ab461baa)" d="M 668.880368 384.48 
L 668.880368 51.84 
L 673.158142 51.84 
L 673.158142 384.48 
z
" style="fill:#008000;opacity:0.04;"/>
   </g>
   <g id="patch_86">
    <path clip-path="url(#pc1ab461baa)" d="M 677.435916 384.48 
L 677.435916 51.84 
L 681.713691 51.84 
L 681.713691 384.48 
z
" style="fill:#008000;opacity:0.04;"/>
   </g>
   <g id="patch_87">
    <path clip-path="url(#pc1ab461baa)" d="M 685.991465 384.48 
L 685.991465 51.84 
L 690.269239 51.84 
L 690.269239 384.48 
z
" style="fill:#008000;opacity:0.04;"/>
   </g>
   <g id="patch_88">
    <path clip-path="url(#pc1ab461baa)" d="M 694.547013 384.48 
L 694.547013 51.84 
L 698.824788 51.84 
L 698.824788 384.48 
z
" style="fill:#008000;opacity:0.04;"/>
   </g>
   <g id="patch_89">
    <path clip-path="url(#pc1ab461baa)" d="M 698.824788 371.1744 
L 698.824788 51.84 
L 703.102562 51.84 
L 703.102562 371.1744 
z
" style="fill:#008000;opacity:0.5;"/>
   </g>
   <g id="patch_90">
    <path clip-path="url(#pc1ab461baa)" d="M 703.102562 384.48 
L 703.102562 51.84 
L 707.380336 51.84 
L 707.380336 384.48 
z
" style="fill:#008000;opacity:0.04;"/>
   </g>
   <g id="patch_91">
    <path clip-path="url(#pc1ab461baa)" d="M 703.102562 371.1744 
L 703.102562 51.84 
L 707.380336 51.84 
L 707.380336 371.1744 
z
" style="fill:#008000;opacity:0.5;"/>
   </g>
   <g id="patch_92">
    <path clip-path="url(#pc1ab461baa)" d="M 707.380336 371.1744 
L 707.380336 51.84 
L 711.65811 51.84 
L 711.65811 371.1744 
z
" style="fill:#008000;opacity:0.5;"/>
   </g>
   <g id="patch_93">
    <path clip-path="url(#pc1ab461baa)" d="M 711.65811 384.48 
L 711.65811 51.84 
L 715.935884 51.84 
L 715.935884 384.48 
z
" style="fill:#008000;opacity:0.04;"/>
   </g>
   <g id="patch_94">
    <path clip-path="url(#pc1ab461baa)" d="M 711.65811 371.1744 
L 711.65811 51.84 
L 715.935884 51.84 
L 715.935884 371.1744 
z
" style="fill:#008000;opacity:0.5;"/>
   </g>
   <g id="patch_95">
    <path clip-path="url(#pc1ab461baa)" d="M 720.213659 384.48 
L 720.213659 51.84 
L 724.491433 51.84 
L 724.491433 384.48 
z
" style="fill:#008000;opacity:0.04;"/>
   </g>
   <g id="patch_96">
    <path clip-path="url(#pc1ab461baa)" d="M 728.769207 384.48 
L 728.769207 51.84 
L 733.046981 51.84 
L 733.046981 384.48 
z
" style="fill:#008000;opacity:0.04;"/>
   </g>
   <g id="patch_97">
    <path clip-path="url(#pc1ab461baa)" d="M 737.324756 384.48 
L 737.324756 51.84 
L 741.60253 51.84 
L 741.60253 384.48 
z
" style="fill:#008000;opacity:0.04;"/>
   </g>
   <g id="patch_98">
    <path clip-path="url(#pc1ab461baa)" d="M 741.60253 371.1744 
L 741.60253 51.84 
L 745.880304 51.84 
L 745.880304 371.1744 
z
" style="fill:#008000;opacity:0.5;"/>
   </g>
   <g id="matplotlib.axis_1">
    <g id="xtick_1">
     <g id="line2d_1">
      <defs>
       <path d="M 0 0 
L 0 3.5 
" id="ma88a6afd5b" style="stroke:#000000;stroke-width:0.8;"/>
      </defs>
      <g>
       <use style="stroke:#000000;stroke-width:0.8;" x="138.436364" xlink:href="#ma88a6afd5b" y="384.48"/>
      </g>
     </g>
     <g id="text_1">
      <!-- 0 -->
      <g transform="translate(135.255114 399.078438)scale(0.1 -0.1)">
       <defs>
        <path d="M 31.78125 66.40625 
Q 24.171875 66.40625 20.328125 58.90625 
Q 16.5 51.421875 16.5 36.375 
Q 16.5 21.390625 20.328125 13.890625 
Q 24.171875 6.390625 31.78125 6.390625 
Q 39.453125 6.390625 43.28125 13.890625 
Q 47.125 21.390625 47.125 36.375 
Q 47.125 51.421875 43.28125 58.90625 
Q 39.453125 66.40625 31.78125 66.40625 
z
M 31.78125 74.21875 
Q 44.046875 74.21875 50.515625 64.515625 
Q 56.984375 54.828125 56.984375 36.375 
Q 56.984375 17.96875 50.515625 8.265625 
Q 44.046875 -1.421875 31.78125 -1.421875 
Q 19.53125 -1.421875 13.0625 8.265625 
Q 6.59375 17.96875 6.59375 36.375 
Q 6.59375 54.828125 13.0625 64.515625 
Q 19.53125 74.21875 31.78125 74.21875 
z
" id="DejaVuSans-48"/>
       </defs>
       <use xlink:href="#DejaVuSans-48"/>
      </g>
     </g>
    </g>
    <g id="xtick_2">
     <g id="line2d_2">
      <g>
       <use style="stroke:#000000;stroke-width:0.8;" x="223.991848" xlink:href="#ma88a6afd5b" y="384.48"/>
      </g>
     </g>
     <g id="text_2">
      <!-- 200 -->
      <g transform="translate(214.448098 399.078438)scale(0.1 -0.1)">
       <defs>
        <path d="M 19.1875 8.296875 
L 53.609375 8.296875 
L 53.609375 0 
L 7.328125 0 
L 7.328125 8.296875 
Q 12.9375 14.109375 22.625 23.890625 
Q 32.328125 33.6875 34.8125 36.53125 
Q 39.546875 41.84375 41.421875 45.53125 
Q 43.3125 49.21875 43.3125 52.78125 
Q 43.3125 58.59375 39.234375 62.25 
Q 35.15625 65.921875 28.609375 65.921875 
Q 23.96875 65.921875 18.8125 64.3125 
Q 13.671875 62.703125 7.8125 59.421875 
L 7.8125 69.390625 
Q 13.765625 71.78125 18.9375 73 
Q 24.125 74.21875 28.421875 74.21875 
Q 39.75 74.21875 46.484375 68.546875 
Q 53.21875 62.890625 53.21875 53.421875 
Q 53.21875 48.921875 51.53125 44.890625 
Q 49.859375 40.875 45.40625 35.40625 
Q 44.1875 33.984375 37.640625 27.21875 
Q 31.109375 20.453125 19.1875 8.296875 
z
" id="DejaVuSans-50"/>
       </defs>
       <use xlink:href="#DejaVuSans-50"/>
       <use x="63.623047" xlink:href="#DejaVuSans-48"/>
       <use x="127.246094" xlink:href="#DejaVuSans-48"/>
      </g>
     </g>
    </g>
    <g id="xtick_3">
     <g id="line2d_3">
      <g>
       <use style="stroke:#000000;stroke-width:0.8;" x="309.547333" xlink:href="#ma88a6afd5b" y="384.48"/>
      </g>
     </g>
     <g id="text_3">
      <!-- 400 -->
      <g transform="translate(300.003583 399.078438)scale(0.1 -0.1)">
       <defs>
        <path d="M 37.796875 64.3125 
L 12.890625 25.390625 
L 37.796875 25.390625 
z
M 35.203125 72.90625 
L 47.609375 72.90625 
L 47.609375 25.390625 
L 58.015625 25.390625 
L 58.015625 17.1875 
L 47.609375 17.1875 
L 47.609375 0 
L 37.796875 0 
L 37.796875 17.1875 
L 4.890625 17.1875 
L 4.890625 26.703125 
z
" id="DejaVuSans-52"/>
       </defs>
       <use xlink:href="#DejaVuSans-52"/>
       <use x="63.623047" xlink:href="#DejaVuSans-48"/>
       <use x="127.246094" xlink:href="#DejaVuSans-48"/>
      </g>
     </g>
    </g>
    <g id="xtick_4">
     <g id="line2d_4">
      <g>
       <use style="stroke:#000000;stroke-width:0.8;" x="395.102817" xlink:href="#ma88a6afd5b" y="384.48"/>
      </g>
     </g>
     <g id="text_4">
      <!-- 600 -->
      <g transform="translate(385.559067 399.078438)scale(0.1 -0.1)">
       <defs>
        <path d="M 33.015625 40.375 
Q 26.375 40.375 22.484375 35.828125 
Q 18.609375 31.296875 18.609375 23.390625 
Q 18.609375 15.53125 22.484375 10.953125 
Q 26.375 6.390625 33.015625 6.390625 
Q 39.65625 6.390625 43.53125 10.953125 
Q 47.40625 15.53125 47.40625 23.390625 
Q 47.40625 31.296875 43.53125 35.828125 
Q 39.65625 40.375 33.015625 40.375 
z
M 52.59375 71.296875 
L 52.59375 62.3125 
Q 48.875 64.0625 45.09375 64.984375 
Q 41.3125 65.921875 37.59375 65.921875 
Q 27.828125 65.921875 22.671875 59.328125 
Q 17.53125 52.734375 16.796875 39.40625 
Q 19.671875 43.65625 24.015625 45.921875 
Q 28.375 48.1875 33.59375 48.1875 
Q 44.578125 48.1875 50.953125 41.515625 
Q 57.328125 34.859375 57.328125 23.390625 
Q 57.328125 12.15625 50.6875 5.359375 
Q 44.046875 -1.421875 33.015625 -1.421875 
Q 20.359375 -1.421875 13.671875 8.265625 
Q 6.984375 17.96875 6.984375 36.375 
Q 6.984375 53.65625 15.1875 63.9375 
Q 23.390625 74.21875 37.203125 74.21875 
Q 40.921875 74.21875 44.703125 73.484375 
Q 48.484375 72.75 52.59375 71.296875 
z
" id="DejaVuSans-54"/>
       </defs>
       <use xlink:href="#DejaVuSans-54"/>
       <use x="63.623047" xlink:href="#DejaVuSans-48"/>
       <use x="127.246094" xlink:href="#DejaVuSans-48"/>
      </g>
     </g>
    </g>
    <g id="xtick_5">
     <g id="line2d_5">
      <g>
       <use style="stroke:#000000;stroke-width:0.8;" x="480.658302" xlink:href="#ma88a6afd5b" y="384.48"/>
      </g>
     </g>
     <g id="text_5">
      <!-- 800 -->
      <g transform="translate(471.114552 399.078438)scale(0.1 -0.1)">
       <defs>
        <path d="M 31.78125 34.625 
Q 24.75 34.625 20.71875 30.859375 
Q 16.703125 27.09375 16.703125 20.515625 
Q 16.703125 13.921875 20.71875 10.15625 
Q 24.75 6.390625 31.78125 6.390625 
Q 38.8125 6.390625 42.859375 10.171875 
Q 46.921875 13.96875 46.921875 20.515625 
Q 46.921875 27.09375 42.890625 30.859375 
Q 38.875 34.625 31.78125 34.625 
z
M 21.921875 38.8125 
Q 15.578125 40.375 12.03125 44.71875 
Q 8.5 49.078125 8.5 55.328125 
Q 8.5 64.0625 14.71875 69.140625 
Q 20.953125 74.21875 31.78125 74.21875 
Q 42.671875 74.21875 48.875 69.140625 
Q 55.078125 64.0625 55.078125 55.328125 
Q 55.078125 49.078125 51.53125 44.71875 
Q 48 40.375 41.703125 38.8125 
Q 48.828125 37.15625 52.796875 32.3125 
Q 56.78125 27.484375 56.78125 20.515625 
Q 56.78125 9.90625 50.3125 4.234375 
Q 43.84375 -1.421875 31.78125 -1.421875 
Q 19.734375 -1.421875 13.25 4.234375 
Q 6.78125 9.90625 6.78125 20.515625 
Q 6.78125 27.484375 10.78125 32.3125 
Q 14.796875 37.15625 21.921875 38.8125 
z
M 18.3125 54.390625 
Q 18.3125 48.734375 21.84375 45.5625 
Q 25.390625 42.390625 31.78125 42.390625 
Q 38.140625 42.390625 41.71875 45.5625 
Q 45.3125 48.734375 45.3125 54.390625 
Q 45.3125 60.0625 41.71875 63.234375 
Q 38.140625 66.40625 31.78125 66.40625 
Q 25.390625 66.40625 21.84375 63.234375 
Q 18.3125 60.0625 18.3125 54.390625 
z
" id="DejaVuSans-56"/>
       </defs>
       <use xlink:href="#DejaVuSans-56"/>
       <use x="63.623047" xlink:href="#DejaVuSans-48"/>
       <use x="127.246094" xlink:href="#DejaVuSans-48"/>
      </g>
     </g>
    </g>
    <g id="xtick_6">
     <g id="line2d_6">
      <g>
       <use style="stroke:#000000;stroke-width:0.8;" x="566.213786" xlink:href="#ma88a6afd5b" y="384.48"/>
      </g>
     </g>
     <g id="text_6">
      <!-- 1000 -->
      <g transform="translate(553.488786 399.078438)scale(0.1 -0.1)">
       <defs>
        <path d="M 12.40625 8.296875 
L 28.515625 8.296875 
L 28.515625 63.921875 
L 10.984375 60.40625 
L 10.984375 69.390625 
L 28.421875 72.90625 
L 38.28125 72.90625 
L 38.28125 8.296875 
L 54.390625 8.296875 
L 54.390625 0 
L 12.40625 0 
z
" id="DejaVuSans-49"/>
       </defs>
       <use xlink:href="#DejaVuSans-49"/>
       <use x="63.623047" xlink:href="#DejaVuSans-48"/>
       <use x="127.246094" xlink:href="#DejaVuSans-48"/>
       <use x="190.869141" xlink:href="#DejaVuSans-48"/>
      </g>
     </g>
    </g>
    <g id="xtick_7">
     <g id="line2d_7">
      <g>
       <use style="stroke:#000000;stroke-width:0.8;" x="651.769271" xlink:href="#ma88a6afd5b" y="384.48"/>
      </g>
     </g>
     <g id="text_7">
      <!-- 1200 -->
      <g transform="translate(639.044271 399.078438)scale(0.1 -0.1)">
       <use xlink:href="#DejaVuSans-49"/>
       <use x="63.623047" xlink:href="#DejaVuSans-50"/>
       <use x="127.246094" xlink:href="#DejaVuSans-48"/>
       <use x="190.869141" xlink:href="#DejaVuSans-48"/>
      </g>
     </g>
    </g>
    <g id="xtick_8">
     <g id="line2d_8">
      <g>
       <use style="stroke:#000000;stroke-width:0.8;" x="737.324756" xlink:href="#ma88a6afd5b" y="384.48"/>
      </g>
     </g>
     <g id="text_8">
      <!-- 1400 -->
      <g transform="translate(724.599756 399.078438)scale(0.1 -0.1)">
       <use xlink:href="#DejaVuSans-49"/>
       <use x="63.623047" xlink:href="#DejaVuSans-52"/>
       <use x="127.246094" xlink:href="#DejaVuSans-48"/>
       <use x="190.869141" xlink:href="#DejaVuSans-48"/>
      </g>
     </g>
    </g>
    <g id="text_9">
     <!-- Timestamp -->
     <g transform="translate(414.892969 412.756563)scale(0.1 -0.1)">
      <defs>
       <path d="M -0.296875 72.90625 
L 61.375 72.90625 
L 61.375 64.59375 
L 35.5 64.59375 
L 35.5 0 
L 25.59375 0 
L 25.59375 64.59375 
L -0.296875 64.59375 
z
" id="DejaVuSans-84"/>
       <path d="M 9.421875 54.6875 
L 18.40625 54.6875 
L 18.40625 0 
L 9.421875 0 
z
M 9.421875 75.984375 
L 18.40625 75.984375 
L 18.40625 64.59375 
L 9.421875 64.59375 
z
" id="DejaVuSans-105"/>
       <path d="M 52 44.1875 
Q 55.375 50.25 60.0625 53.125 
Q 64.75 56 71.09375 56 
Q 79.640625 56 84.28125 50.015625 
Q 88.921875 44.046875 88.921875 33.015625 
L 88.921875 0 
L 79.890625 0 
L 79.890625 32.71875 
Q 79.890625 40.578125 77.09375 44.375 
Q 74.3125 48.1875 68.609375 48.1875 
Q 61.625 48.1875 57.5625 43.546875 
Q 53.515625 38.921875 53.515625 30.90625 
L 53.515625 0 
L 44.484375 0 
L 44.484375 32.71875 
Q 44.484375 40.625 41.703125 44.40625 
Q 38.921875 48.1875 33.109375 48.1875 
Q 26.21875 48.1875 22.15625 43.53125 
Q 18.109375 38.875 18.109375 30.90625 
L 18.109375 0 
L 9.078125 0 
L 9.078125 54.6875 
L 18.109375 54.6875 
L 18.109375 46.1875 
Q 21.1875 51.21875 25.484375 53.609375 
Q 29.78125 56 35.6875 56 
Q 41.65625 56 45.828125 52.96875 
Q 50 49.953125 52 44.1875 
z
" id="DejaVuSans-109"/>
       <path d="M 56.203125 29.59375 
L 56.203125 25.203125 
L 14.890625 25.203125 
Q 15.484375 15.921875 20.484375 11.0625 
Q 25.484375 6.203125 34.421875 6.203125 
Q 39.59375 6.203125 44.453125 7.46875 
Q 49.3125 8.734375 54.109375 11.28125 
L 54.109375 2.78125 
Q 49.265625 0.734375 44.1875 -0.34375 
Q 39.109375 -1.421875 33.890625 -1.421875 
Q 20.796875 -1.421875 13.15625 6.1875 
Q 5.515625 13.8125 5.515625 26.8125 
Q 5.515625 40.234375 12.765625 48.109375 
Q 20.015625 56 32.328125 56 
Q 43.359375 56 49.78125 48.890625 
Q 56.203125 41.796875 56.203125 29.59375 
z
M 47.21875 32.234375 
Q 47.125 39.59375 43.09375 43.984375 
Q 39.0625 48.390625 32.421875 48.390625 
Q 24.90625 48.390625 20.390625 44.140625 
Q 15.875 39.890625 15.1875 32.171875 
z
" id="DejaVuSans-101"/>
       <path d="M 44.28125 53.078125 
L 44.28125 44.578125 
Q 40.484375 46.53125 36.375 47.5 
Q 32.28125 48.484375 27.875 48.484375 
Q 21.1875 48.484375 17.84375 46.4375 
Q 14.5 44.390625 14.5 40.28125 
Q 14.5 37.15625 16.890625 35.375 
Q 19.28125 33.59375 26.515625 31.984375 
L 29.59375 31.296875 
Q 39.15625 29.25 43.1875 25.515625 
Q 47.21875 21.78125 47.21875 15.09375 
Q 47.21875 7.46875 41.1875 3.015625 
Q 35.15625 -1.421875 24.609375 -1.421875 
Q 20.21875 -1.421875 15.453125 -0.5625 
Q 10.6875 0.296875 5.421875 2 
L 5.421875 11.28125 
Q 10.40625 8.6875 15.234375 7.390625 
Q 20.0625 6.109375 24.8125 6.109375 
Q 31.15625 6.109375 34.5625 8.28125 
Q 37.984375 10.453125 37.984375 14.40625 
Q 37.984375 18.0625 35.515625 20.015625 
Q 33.0625 21.96875 24.703125 23.78125 
L 21.578125 24.515625 
Q 13.234375 26.265625 9.515625 29.90625 
Q 5.8125 33.546875 5.8125 39.890625 
Q 5.8125 47.609375 11.28125 51.796875 
Q 16.75 56 26.8125 56 
Q 31.78125 56 36.171875 55.265625 
Q 40.578125 54.546875 44.28125 53.078125 
z
" id="DejaVuSans-115"/>
       <path d="M 18.3125 70.21875 
L 18.3125 54.6875 
L 36.8125 54.6875 
L 36.8125 47.703125 
L 18.3125 47.703125 
L 18.3125 18.015625 
Q 18.3125 11.328125 20.140625 9.421875 
Q 21.96875 7.515625 27.59375 7.515625 
L 36.8125 7.515625 
L 36.8125 0 
L 27.59375 0 
Q 17.1875 0 13.234375 3.875 
Q 9.28125 7.765625 9.28125 18.015625 
L 9.28125 47.703125 
L 2.6875 47.703125 
L 2.6875 54.6875 
L 9.28125 54.6875 
L 9.28125 70.21875 
z
" id="DejaVuSans-116"/>
       <path d="M 34.28125 27.484375 
Q 23.390625 27.484375 19.1875 25 
Q 14.984375 22.515625 14.984375 16.5 
Q 14.984375 11.71875 18.140625 8.90625 
Q 21.296875 6.109375 26.703125 6.109375 
Q 34.1875 6.109375 38.703125 11.40625 
Q 43.21875 16.703125 43.21875 25.484375 
L 43.21875 27.484375 
z
M 52.203125 31.203125 
L 52.203125 0 
L 43.21875 0 
L 43.21875 8.296875 
Q 40.140625 3.328125 35.546875 0.953125 
Q 30.953125 -1.421875 24.3125 -1.421875 
Q 15.921875 -1.421875 10.953125 3.296875 
Q 6 8.015625 6 15.921875 
Q 6 25.140625 12.171875 29.828125 
Q 18.359375 34.515625 30.609375 34.515625 
L 43.21875 34.515625 
L 43.21875 35.40625 
Q 43.21875 41.609375 39.140625 45 
Q 35.0625 48.390625 27.6875 48.390625 
Q 23 48.390625 18.546875 47.265625 
Q 14.109375 46.140625 10.015625 43.890625 
L 10.015625 52.203125 
Q 14.9375 54.109375 19.578125 55.046875 
Q 24.21875 56 28.609375 56 
Q 40.484375 56 46.34375 49.84375 
Q 52.203125 43.703125 52.203125 31.203125 
z
" id="DejaVuSans-97"/>
       <path d="M 18.109375 8.203125 
L 18.109375 -20.796875 
L 9.078125 -20.796875 
L 9.078125 54.6875 
L 18.109375 54.6875 
L 18.109375 46.390625 
Q 20.953125 51.265625 25.265625 53.625 
Q 29.59375 56 35.59375 56 
Q 45.5625 56 51.78125 48.09375 
Q 58.015625 40.1875 58.015625 27.296875 
Q 58.015625 14.40625 51.78125 6.484375 
Q 45.5625 -1.421875 35.59375 -1.421875 
Q 29.59375 -1.421875 25.265625 0.953125 
Q 20.953125 3.328125 18.109375 8.203125 
z
M 48.6875 27.296875 
Q 48.6875 37.203125 44.609375 42.84375 
Q 40.53125 48.484375 33.40625 48.484375 
Q 26.265625 48.484375 22.1875 42.84375 
Q 18.109375 37.203125 18.109375 27.296875 
Q 18.109375 17.390625 22.1875 11.75 
Q 26.265625 6.109375 33.40625 6.109375 
Q 40.53125 6.109375 44.609375 11.75 
Q 48.6875 17.390625 48.6875 27.296875 
z
" id="DejaVuSans-112"/>
      </defs>
      <use xlink:href="#DejaVuSans-84"/>
      <use x="57.958984" xlink:href="#DejaVuSans-105"/>
      <use x="85.742188" xlink:href="#DejaVuSans-109"/>
      <use x="183.154297" xlink:href="#DejaVuSans-101"/>
      <use x="244.677734" xlink:href="#DejaVuSans-115"/>
      <use x="296.777344" xlink:href="#DejaVuSans-116"/>
      <use x="335.986328" xlink:href="#DejaVuSans-97"/>
      <use x="397.265625" xlink:href="#DejaVuSans-109"/>
      <use x="494.677734" xlink:href="#DejaVuSans-112"/>
     </g>
    </g>
   </g>
   <g id="matplotlib.axis_2">
    <g id="ytick_1">
     <g id="line2d_9">
      <defs>
       <path d="M 0 0 
L -3.5 0 
" id="mb4f6695640" style="stroke:#000000;stroke-width:0.8;"/>
      </defs>
      <g>
       <use style="stroke:#000000;stroke-width:0.8;" x="108" xlink:href="#mb4f6695640" y="369.36"/>
      </g>
     </g>
     <g id="text_10">
      <!-- 0 -->
      <g transform="translate(94.6375 373.159219)scale(0.1 -0.1)">
       <use xlink:href="#DejaVuSans-48"/>
      </g>
     </g>
    </g>
    <g id="ytick_2">
     <g id="line2d_10">
      <g>
       <use style="stroke:#000000;stroke-width:0.8;" x="108" xlink:href="#mb4f6695640" y="303.791917"/>
      </g>
     </g>
     <g id="text_11">
      <!-- 500 -->
      <g transform="translate(81.9125 307.591135)scale(0.1 -0.1)">
       <defs>
        <path d="M 10.796875 72.90625 
L 49.515625 72.90625 
L 49.515625 64.59375 
L 19.828125 64.59375 
L 19.828125 46.734375 
Q 21.96875 47.46875 24.109375 47.828125 
Q 26.265625 48.1875 28.421875 48.1875 
Q 40.625 48.1875 47.75 41.5 
Q 54.890625 34.8125 54.890625 23.390625 
Q 54.890625 11.625 47.5625 5.09375 
Q 40.234375 -1.421875 26.90625 -1.421875 
Q 22.3125 -1.421875 17.546875 -0.640625 
Q 12.796875 0.140625 7.71875 1.703125 
L 7.71875 11.625 
Q 12.109375 9.234375 16.796875 8.0625 
Q 21.484375 6.890625 26.703125 6.890625 
Q 35.15625 6.890625 40.078125 11.328125 
Q 45.015625 15.765625 45.015625 23.390625 
Q 45.015625 31 40.078125 35.4375 
Q 35.15625 39.890625 26.703125 39.890625 
Q 22.75 39.890625 18.8125 39.015625 
Q 14.890625 38.140625 10.796875 36.28125 
z
" id="DejaVuSans-53"/>
       </defs>
       <use xlink:href="#DejaVuSans-53"/>
       <use x="63.623047" xlink:href="#DejaVuSans-48"/>
       <use x="127.246094" xlink:href="#DejaVuSans-48"/>
      </g>
     </g>
    </g>
    <g id="ytick_3">
     <g id="line2d_11">
      <g>
       <use style="stroke:#000000;stroke-width:0.8;" x="108" xlink:href="#mb4f6695640" y="238.223833"/>
      </g>
     </g>
     <g id="text_12">
      <!-- 1000 -->
      <g transform="translate(75.55 242.023052)scale(0.1 -0.1)">
       <use xlink:href="#DejaVuSans-49"/>
       <use x="63.623047" xlink:href="#DejaVuSans-48"/>
       <use x="127.246094" xlink:href="#DejaVuSans-48"/>
       <use x="190.869141" xlink:href="#DejaVuSans-48"/>
      </g>
     </g>
    </g>
    <g id="ytick_4">
     <g id="line2d_12">
      <g>
       <use style="stroke:#000000;stroke-width:0.8;" x="108" xlink:href="#mb4f6695640" y="172.65575"/>
      </g>
     </g>
     <g id="text_13">
      <!-- 1500 -->
      <g transform="translate(75.55 176.454969)scale(0.1 -0.1)">
       <use xlink:href="#DejaVuSans-49"/>
       <use x="63.623047" xlink:href="#DejaVuSans-53"/>
       <use x="127.246094" xlink:href="#DejaVuSans-48"/>
       <use x="190.869141" xlink:href="#DejaVuSans-48"/>
      </g>
     </g>
    </g>
    <g id="ytick_5">
     <g id="line2d_13">
      <g>
       <use style="stroke:#000000;stroke-width:0.8;" x="108" xlink:href="#mb4f6695640" y="107.087667"/>
      </g>
     </g>
     <g id="text_14">
      <!-- 2000 -->
      <g transform="translate(75.55 110.886886)scale(0.1 -0.1)">
       <use xlink:href="#DejaVuSans-50"/>
       <use x="63.623047" xlink:href="#DejaVuSans-48"/>
       <use x="127.246094" xlink:href="#DejaVuSans-48"/>
       <use x="190.869141" xlink:href="#DejaVuSans-48"/>
      </g>
     </g>
    </g>
    <g id="text_15">
     <!-- Value -->
     <g transform="translate(69.470312 231.89125)rotate(-90)scale(0.1 -0.1)">
      <defs>
       <path d="M 28.609375 0 
L 0.78125 72.90625 
L 11.078125 72.90625 
L 34.1875 11.53125 
L 57.328125 72.90625 
L 67.578125 72.90625 
L 39.796875 0 
z
" id="DejaVuSans-86"/>
       <path d="M 9.421875 75.984375 
L 18.40625 75.984375 
L 18.40625 0 
L 9.421875 0 
z
" id="DejaVuSans-108"/>
       <path d="M 8.5 21.578125 
L 8.5 54.6875 
L 17.484375 54.6875 
L 17.484375 21.921875 
Q 17.484375 14.15625 20.5 10.265625 
Q 23.53125 6.390625 29.59375 6.390625 
Q 36.859375 6.390625 41.078125 11.03125 
Q 45.3125 15.671875 45.3125 23.6875 
L 45.3125 54.6875 
L 54.296875 54.6875 
L 54.296875 0 
L 45.3125 0 
L 45.3125 8.40625 
Q 42.046875 3.421875 37.71875 1 
Q 33.40625 -1.421875 27.6875 -1.421875 
Q 18.265625 -1.421875 13.375 4.4375 
Q 8.5 10.296875 8.5 21.578125 
z
M 31.109375 56 
z
" id="DejaVuSans-117"/>
      </defs>
      <use xlink:href="#DejaVuSans-86"/>
      <use x="60.658203" xlink:href="#DejaVuSans-97"/>
      <use x="121.9375" xlink:href="#DejaVuSans-108"/>
      <use x="149.720703" xlink:href="#DejaVuSans-117"/>
      <use x="213.099609" xlink:href="#DejaVuSans-101"/>
     </g>
    </g>
   </g>
   <g id="line2d_14">
    <path clip-path="url(#pc1ab461baa)" d="M 138.436364 369.36 
L 138.864141 368.966592 
L 139.291918 368.310911 
L 139.719696 365.163643 
L 140.147473 356.902064 
L 140.575251 367.130685 
L 141.003028 369.228864 
L 141.430806 368.310911 
L 141.858583 361.622966 
L 142.28636 368.310911 
L 142.714138 368.310911 
L 143.141915 368.966592 
L 143.569693 368.179775 
L 143.99747 368.835455 
L 144.425248 368.835455 
L 144.853025 368.966592 
L 145.280802 368.573183 
L 145.70858 360.836149 
L 146.136357 368.704319 
L 146.564135 369.36 
L 148.703022 369.36 
L 149.130799 368.704319 
L 149.558577 368.573183 
L 149.986354 368.704319 
L 150.841909 365.163643 
L 151.269686 369.36 
L 151.697464 362.278647 
L 152.125241 362.016375 
L 152.553019 368.573183 
L 152.980796 368.048638 
L 153.408573 368.835455 
L 153.836351 368.835455 
L 154.691906 368.573183 
L 155.119683 369.228864 
L 155.547461 368.442047 
L 155.975238 368.310911 
L 157.25857 369.36 
L 158.96968 369.36 
L 159.825235 368.048638 
L 160.253012 367.917502 
L 160.68079 361.754102 
L 161.108567 361.754102 
L 161.536344 368.704319 
L 161.964122 368.442047 
L 162.391899 368.442047 
L 162.819677 368.310911 
L 163.247454 361.885239 
L 163.675232 367.65523 
L 164.103009 367.65523 
L 164.530786 367.392958 
L 164.958564 366.999549 
L 165.386341 368.442047 
L 165.814119 368.573183 
L 166.241896 368.966592 
L 166.669674 368.704319 
L 167.097451 368.704319 
L 167.525228 369.228864 
L 167.953006 369.36 
L 169.236338 369.36 
L 169.664116 369.228864 
L 170.091893 368.704319 
L 170.51967 369.097728 
L 170.947448 368.835455 
L 171.375225 368.835455 
L 171.803003 356.770928 
L 172.23078 360.573877 
L 172.658557 367.786366 
L 173.086335 368.048638 
L 173.94189 368.310911 
L 174.369667 361.622966 
L 174.797445 361.49183 
L 175.225222 367.917502 
L 175.652999 368.573183 
L 176.080777 362.540919 
L 176.508554 369.36 
L 177.364109 369.097728 
L 177.791887 369.36 
L 178.647441 369.36 
L 179.075219 368.835455 
L 179.502996 368.835455 
L 179.930774 368.704319 
L 180.358551 367.65523 
L 180.786328 367.392958 
L 181.214106 368.179775 
L 181.641883 361.885239 
L 182.069661 368.179775 
L 182.497438 361.360694 
L 182.925216 368.048638 
L 183.352993 368.048638 
L 183.78077 367.261821 
L 184.208548 362.409783 
L 184.636325 366.475004 
L 185.064103 367.65523 
L 185.49188 360.705013 
L 185.919658 360.180468 
L 186.347435 368.835455 
L 186.775212 368.966592 
L 187.20299 369.36 
L 187.630767 369.097728 
L 188.058545 369.36 
L 188.9141 368.835455 
L 189.341877 369.36 
L 189.769654 369.36 
L 190.197432 368.573183 
L 190.625209 368.966592 
L 191.052987 368.835455 
L 191.480764 361.754102 
L 191.908541 367.65523 
L 192.336319 361.098422 
L 192.764096 360.180468 
L 193.191874 366.868413 
L 194.047429 366.868413 
L 194.475206 367.524094 
L 194.902983 367.65523 
L 195.330761 360.311605 
L 195.758538 367.65523 
L 196.186316 368.442047 
L 197.041871 367.524094 
L 197.469648 368.048638 
L 197.897425 369.097728 
L 198.325203 369.36 
L 198.75298 369.36 
L 199.180758 369.097728 
L 199.608535 369.36 
L 200.46409 369.097728 
L 200.891867 369.097728 
L 201.319645 368.573183 
L 201.747422 368.966592 
L 202.1752 368.310911 
L 202.602977 353.885932 
L 203.030754 367.130685 
L 203.886309 366.475004 
L 204.314087 360.836149 
L 204.741864 367.261821 
L 205.169642 361.754102 
L 205.597419 368.442047 
L 206.452974 368.442047 
L 207.308529 369.228864 
L 207.736306 369.36 
L 208.164084 369.097728 
L 208.591861 369.36 
L 209.447416 369.36 
L 209.875193 362.672056 
L 210.302971 369.36 
L 210.730748 362.803192 
L 211.158526 369.097728 
L 211.586303 368.179775 
L 212.869635 366.999549 
L 213.72519 367.65523 
L 214.152967 361.622966 
L 214.580745 368.048638 
L 215.008522 360.573877 
L 215.4363 367.524094 
L 215.864077 367.130685 
L 216.291855 368.179775 
L 216.719632 368.310911 
L 217.147409 368.573183 
L 217.575187 368.966592 
L 218.002964 368.835455 
L 218.858519 369.097728 
L 219.286297 368.835455 
L 219.714074 368.704319 
L 220.141851 369.36 
L 220.997406 369.36 
L 221.425184 368.966592 
L 222.280739 363.458873 
L 222.708516 368.835455 
L 223.136293 368.442047 
L 223.564071 367.65523 
L 223.991848 367.917502 
L 224.419626 367.786366 
L 224.847403 367.917502 
L 225.27518 367.524094 
L 225.702958 368.048638 
L 226.130735 367.786366 
L 226.558513 368.704319 
L 226.98629 368.704319 
L 227.414068 369.097728 
L 227.841845 368.835455 
L 228.269622 368.704319 
L 228.6974 368.179775 
L 229.125177 369.36 
L 229.980732 369.36 
L 230.40851 369.097728 
L 230.836287 369.228864 
L 231.264064 368.442047 
L 231.691842 368.573183 
L 232.119619 368.179775 
L 232.547397 368.179775 
L 232.975174 368.310911 
L 233.402952 368.310911 
L 233.830729 368.442047 
L 234.258506 368.048638 
L 234.686284 368.048638 
L 235.114061 367.917502 
L 235.541839 367.917502 
L 235.969616 368.704319 
L 236.397393 368.179775 
L 236.825171 367.917502 
L 237.252948 368.442047 
L 237.680726 368.442047 
L 238.108503 368.966592 
L 238.536281 368.704319 
L 238.964058 369.228864 
L 239.391835 369.36 
L 240.24739 369.36 
L 240.675168 369.228864 
L 241.102945 369.36 
L 241.530723 369.36 
L 241.9585 369.097728 
L 242.386277 367.786366 
L 242.814055 368.310911 
L 243.241832 368.048638 
L 243.66961 368.310911 
L 244.525165 368.048638 
L 244.952942 367.65523 
L 245.380719 367.524094 
L 245.808497 368.179775 
L 246.236274 367.786366 
L 247.091829 368.310911 
L 247.519606 368.048638 
L 247.947384 368.573183 
L 248.375161 369.36 
L 248.802939 369.36 
L 249.230716 368.179775 
L 249.658494 368.966592 
L 250.086271 369.36 
L 251.797381 369.36 
L 252.225158 369.228864 
L 252.652936 368.442047 
L 253.080713 368.573183 
L 253.50849 368.966592 
L 253.936268 368.835455 
L 254.364045 368.573183 
L 255.2196 367.65523 
L 255.647377 367.65523 
L 256.502932 368.310911 
L 256.93071 367.65523 
L 257.358487 367.524094 
L 257.786265 368.835455 
L 258.214042 368.966592 
L 258.641819 368.310911 
L 259.069597 369.36 
L 259.497374 369.36 
L 259.925152 368.835455 
L 260.352929 368.966592 
L 260.780707 368.835455 
L 261.208484 369.36 
L 262.064039 369.36 
L 262.491816 368.835455 
L 262.919594 368.835455 
L 263.347371 368.048638 
L 263.775149 361.622966 
L 264.202926 368.179775 
L 264.630703 368.835455 
L 265.058481 368.835455 
L 265.486258 367.65523 
L 265.914036 368.310911 
L 266.341813 368.310911 
L 266.76959 367.65523 
L 267.197368 367.524094 
L 267.625145 367.917502 
L 268.052923 367.261821 
L 268.4807 367.917502 
L 268.908478 368.048638 
L 270.19181 369.228864 
L 270.619587 369.36 
L 271.047365 369.228864 
L 271.475142 368.835455 
L 272.330697 368.835455 
L 273.186252 368.179775 
L 273.614029 368.310911 
L 274.041807 368.310911 
L 274.469584 368.573183 
L 274.897362 368.704319 
L 275.325139 368.048638 
L 275.752916 366.868413 
L 276.180694 367.261821 
L 276.608471 367.917502 
L 277.036249 368.179775 
L 277.464026 367.65523 
L 277.891803 368.573183 
L 278.319581 368.179775 
L 278.747358 367.261821 
L 279.175136 367.786366 
L 279.602913 367.786366 
L 280.458468 369.36 
L 281.314023 369.36 
L 281.7418 368.704319 
L 282.169578 368.835455 
L 282.597355 368.704319 
L 283.025133 368.310911 
L 283.45291 368.442047 
L 283.880687 368.835455 
L 284.308465 368.442047 
L 284.736242 368.310911 
L 285.16402 367.917502 
L 286.019575 368.179775 
L 286.447352 367.786366 
L 286.875129 368.048638 
L 287.302907 367.786366 
L 287.730684 368.048638 
L 288.158462 368.048638 
L 288.586239 367.786366 
L 289.014016 368.048638 
L 289.869571 369.097728 
L 290.297349 368.835455 
L 290.725126 369.36 
L 291.152904 368.048638 
L 291.580681 369.36 
L 292.436236 369.36 
L 292.864013 368.835455 
L 293.291791 368.966592 
L 293.719568 368.835455 
L 294.147346 368.835455 
L 294.575123 361.885239 
L 295.0029 368.835455 
L 295.858455 368.048638 
L 296.286233 368.179775 
L 296.71401 367.261821 
L 297.141788 368.835455 
L 297.569565 368.704319 
L 297.997342 368.704319 
L 298.42512 368.835455 
L 298.852897 369.36 
L 299.280675 369.097728 
L 299.708452 369.36 
L 300.136229 369.228864 
L 300.564007 369.36 
L 302.702894 369.36 
L 303.130671 369.097728 
L 303.558449 368.966592 
L 303.986226 369.36 
L 304.414004 369.228864 
L 304.841781 369.36 
L 305.269559 362.278647 
L 305.697336 368.966592 
L 306.125113 369.097728 
L 306.552891 369.097728 
L 306.980668 367.524094 
L 307.408446 368.966592 
L 307.836223 369.36 
L 308.264001 369.36 
L 308.691778 368.966592 
L 309.119555 368.966592 
L 309.547333 368.442047 
L 309.97511 368.573183 
L 310.402888 368.573183 
L 310.830665 368.835455 
L 311.258442 369.36 
L 313.825107 369.36 
L 314.252884 362.803192 
L 314.680662 369.36 
L 315.108439 369.36 
L 315.536217 369.228864 
L 315.963994 369.36 
L 316.819549 369.36 
L 317.247326 368.835455 
L 317.675104 368.835455 
L 318.102881 369.36 
L 318.530659 369.228864 
L 318.958436 369.36 
L 319.386214 368.835455 
L 319.813991 368.835455 
L 320.669546 367.786366 
L 321.097323 368.310911 
L 321.525101 368.179775 
L 321.952878 368.310911 
L 322.380655 368.310911 
L 322.808433 368.179775 
L 323.23621 368.310911 
L 323.663988 368.310911 
L 324.091765 368.966592 
L 324.519543 369.36 
L 325.375097 369.36 
L 326.230652 368.835455 
L 326.65843 369.36 
L 327.941762 369.36 
L 328.369539 369.097728 
L 328.797317 369.36 
L 329.652872 369.36 
L 330.080649 368.835455 
L 330.508426 369.228864 
L 330.936204 368.835455 
L 331.363981 369.36 
L 331.791759 369.36 
L 332.219536 368.835455 
L 332.647314 369.36 
L 333.502868 369.36 
L 333.930646 368.835455 
L 334.358423 369.36 
L 336.069533 369.36 
L 336.49731 369.097728 
L 336.925088 369.36 
L 337.352865 369.228864 
L 337.780643 367.917502 
L 338.20842 369.36 
L 338.636198 369.36 
L 339.063975 362.672056 
L 339.491752 368.310911 
L 339.91953 368.048638 
L 340.347307 368.966592 
L 340.775085 368.835455 
L 341.202862 368.835455 
L 341.630639 368.573183 
L 342.058417 369.36 
L 343.341749 369.36 
L 343.769527 368.310911 
L 344.197304 369.36 
L 345.052859 369.36 
L 345.480636 369.228864 
L 345.908414 369.36 
L 346.336191 362.278647 
L 346.763969 369.228864 
L 347.191746 369.36 
L 347.619523 369.36 
L 348.475078 369.097728 
L 348.902856 369.36 
L 351.041743 369.36 
L 351.46952 369.228864 
L 351.897298 368.442047 
L 352.325075 369.36 
L 352.752852 361.229558 
L 353.18063 369.36 
L 354.036185 369.36 
L 354.463962 362.147511 
L 354.89174 369.36 
L 355.319517 369.228864 
L 355.747294 369.36 
L 356.175072 362.016375 
L 356.602849 368.573183 
L 357.030627 369.36 
L 357.886182 369.097728 
L 358.313959 368.835455 
L 358.741736 369.36 
L 359.597291 369.36 
L 360.025069 368.966592 
L 360.452846 368.966592 
L 360.880624 368.442047 
L 361.308401 368.835455 
L 361.736178 368.835455 
L 362.163956 366.868413 
L 362.591733 368.310911 
L 363.019511 369.228864 
L 363.447288 369.36 
L 364.73062 369.36 
L 365.158398 369.228864 
L 365.586175 368.835455 
L 366.013953 369.36 
L 366.869507 369.36 
L 367.297285 369.097728 
L 367.725062 369.36 
L 369.008395 369.36 
L 369.436172 361.885239 
L 369.863949 369.36 
L 370.291727 369.36 
L 370.719504 368.048638 
L 371.147282 368.966592 
L 371.575059 368.442047 
L 372.002837 368.835455 
L 372.430614 368.966592 
L 372.858391 368.835455 
L 373.286169 368.835455 
L 373.713946 368.966592 
L 374.141724 368.966592 
L 374.569501 368.048638 
L 374.997278 368.310911 
L 375.425056 368.966592 
L 375.852833 364.90137 
L 376.280611 368.835455 
L 376.708388 368.835455 
L 377.563943 358.213426 
L 377.99172 365.557051 
L 378.419498 368.442047 
L 378.847275 368.310911 
L 379.275053 368.966592 
L 379.70283 368.835455 
L 380.130608 368.835455 
L 380.558385 362.016375 
L 380.986162 368.573183 
L 381.41394 368.835455 
L 381.841717 368.704319 
L 382.269495 368.966592 
L 382.697272 368.704319 
L 383.12505 368.835455 
L 383.980604 368.835455 
L 384.408382 362.934328 
L 384.836159 368.966592 
L 385.263937 368.835455 
L 386.119491 368.835455 
L 386.547269 368.966592 
L 386.975046 368.573183 
L 387.402824 361.885239 
L 387.830601 368.310911 
L 388.258379 366.475004 
L 388.686156 368.442047 
L 389.113933 368.310911 
L 389.541711 368.704319 
L 389.969488 362.409783 
L 390.397266 368.966592 
L 390.825043 369.36 
L 392.108375 369.36 
L 392.536153 368.704319 
L 392.96393 369.228864 
L 393.391708 369.36 
L 393.819485 369.36 
L 394.247263 369.097728 
L 394.67504 369.36 
L 395.102817 369.097728 
L 395.530595 362.803192 
L 395.958372 369.36 
L 396.38615 368.442047 
L 396.813927 362.147511 
L 397.241704 369.36 
L 397.669482 369.097728 
L 398.097259 369.228864 
L 398.525037 369.097728 
L 398.952814 368.835455 
L 399.380592 368.966592 
L 399.808369 362.409783 
L 400.236146 369.097728 
L 400.663924 369.097728 
L 401.091701 369.36 
L 401.519479 369.097728 
L 402.375034 369.36 
L 402.802811 369.097728 
L 403.230588 369.36 
L 403.658366 368.966592 
L 404.086143 369.36 
L 405.369475 369.36 
L 405.797253 362.540919 
L 406.22503 368.966592 
L 406.652808 369.36 
L 407.080585 369.36 
L 407.508363 362.409783 
L 407.93614 369.36 
L 408.363917 368.835455 
L 408.791695 368.704319 
L 409.219472 368.442047 
L 409.64725 369.097728 
L 410.075027 364.770234 
L 410.502805 362.803192 
L 410.930582 369.36 
L 411.786137 369.36 
L 412.213914 369.228864 
L 412.641692 369.36 
L 413.069469 369.228864 
L 413.497247 369.228864 
L 413.925024 369.36 
L 414.780579 369.097728 
L 415.208356 369.36 
L 416.063911 369.36 
L 416.491688 368.048638 
L 416.919466 369.228864 
L 417.347243 368.966592 
L 417.775021 362.278647 
L 418.202798 369.36 
L 419.058353 369.36 
L 419.48613 362.803192 
L 419.913908 369.36 
L 420.341685 368.835455 
L 420.769463 364.376826 
L 421.625018 369.097728 
L 422.052795 369.228864 
L 422.480572 368.704319 
L 422.90835 368.835455 
L 423.336127 368.835455 
L 423.763905 369.097728 
L 424.191682 367.261821 
L 424.61946 368.442047 
L 425.475014 369.36 
L 427.613901 369.36 
L 428.041679 364.114553 
L 428.469456 362.672056 
L 428.897234 369.36 
L 429.325011 368.704319 
L 429.752789 362.672056 
L 430.180566 369.36 
L 431.463898 369.36 
L 431.891676 368.966592 
L 432.319453 369.36 
L 432.747231 368.573183 
L 433.175008 368.442047 
L 433.602785 368.835455 
L 434.45834 368.573183 
L 434.886118 369.228864 
L 435.313895 369.36 
L 436.597227 369.36 
L 437.025005 368.835455 
L 437.452782 369.228864 
L 437.88056 369.36 
L 438.308337 362.672056 
L 438.736114 369.228864 
L 439.591669 367.130685 
L 440.019447 361.49183 
L 440.447224 368.704319 
L 441.302779 369.36 
L 441.730556 369.228864 
L 442.158334 368.966592 
L 442.586111 369.36 
L 443.013889 368.966592 
L 443.441666 369.36 
L 443.869444 369.228864 
L 444.724998 369.228864 
L 445.152776 362.672056 
L 445.580553 369.36 
L 449.002773 369.36 
L 449.43055 362.803192 
L 449.858327 369.36 
L 450.286105 369.36 
L 450.713882 369.228864 
L 451.14166 369.36 
L 451.997215 369.36 
L 452.852769 369.097728 
L 453.280547 368.835455 
L 453.708324 367.917502 
L 454.136102 369.228864 
L 454.563879 362.278647 
L 454.991657 369.36 
L 455.419434 369.36 
L 455.847211 369.097728 
L 456.274989 369.36 
L 456.702766 369.36 
L 457.130544 369.228864 
L 457.558321 369.36 
L 457.986099 369.228864 
L 458.413876 369.36 
L 458.841653 369.36 
L 459.269431 363.1966 
L 459.697208 369.228864 
L 460.124986 369.36 
L 460.552763 369.36 
L 460.98054 368.048638 
L 461.408318 369.36 
L 462.263873 369.36 
L 462.69165 369.228864 
L 463.119428 368.966592 
L 463.547205 369.36 
L 463.974982 369.228864 
L 464.40276 369.36 
L 467.824979 369.36 
L 468.252757 368.966592 
L 469.108312 368.704319 
L 469.536089 368.835455 
L 469.963866 369.36 
L 470.391644 369.228864 
L 470.819421 368.310911 
L 471.674976 369.228864 
L 472.102753 368.310911 
L 472.530531 368.835455 
L 472.958308 369.097728 
L 473.386086 368.704319 
L 473.813863 368.835455 
L 474.241641 368.835455 
L 474.669418 369.36 
L 475.097195 369.36 
L 475.524973 369.097728 
L 475.95275 368.966592 
L 476.380528 369.36 
L 478.947192 369.36 
L 479.37497 368.835455 
L 479.802747 368.835455 
L 480.230525 369.36 
L 481.513857 369.36 
L 481.941634 369.228864 
L 482.369412 369.36 
L 482.797189 368.704319 
L 483.224966 362.147511 
L 483.652744 368.048638 
L 484.080521 369.36 
L 484.508299 366.868413 
L 484.936076 369.228864 
L 485.363854 369.36 
L 485.791631 369.36 
L 486.219408 369.097728 
L 486.647186 369.36 
L 487.074963 368.966592 
L 487.502741 369.228864 
L 487.930518 369.36 
L 488.786073 369.36 
L 489.21385 367.917502 
L 489.641628 368.835455 
L 490.069405 369.36 
L 490.92496 369.36 
L 491.352737 367.524094 
L 491.780515 369.36 
L 492.208292 369.36 
L 492.63607 362.278647 
L 493.063847 369.36 
L 493.491625 368.966592 
L 493.919402 368.966592 
L 494.347179 369.36 
L 494.774957 369.228864 
L 495.202734 369.228864 
L 495.630512 369.36 
L 498.197176 369.36 
L 498.624954 368.704319 
L 499.052731 369.36 
L 499.908286 369.36 
L 500.336063 362.934328 
L 500.763841 368.966592 
L 501.191618 369.36 
L 502.902728 369.36 
L 503.330505 366.081596 
L 503.758283 365.294779 
L 504.18606 369.228864 
L 504.613838 369.36 
L 505.041615 369.36 
L 505.469392 362.540919 
L 505.89717 369.36 
L 507.180502 369.36 
L 507.60828 369.228864 
L 508.036057 369.36 
L 508.463834 368.966592 
L 508.891612 369.228864 
L 509.319389 369.36 
L 509.747167 369.097728 
L 510.174944 362.278647 
L 510.602722 369.228864 
L 511.030499 369.36 
L 511.458276 369.36 
L 511.886054 369.228864 
L 512.313831 364.90137 
L 512.741609 365.425915 
L 513.169386 367.786366 
L 513.597163 367.524094 
L 514.024941 368.310911 
L 514.452718 368.704319 
L 514.880496 367.65523 
L 515.308273 368.310911 
L 515.736051 368.704319 
L 516.163828 369.36 
L 517.44716 369.36 
L 517.874938 368.835455 
L 518.302715 369.36 
L 518.730493 369.36 
L 519.586047 368.835455 
L 520.441602 367.786366 
L 520.86938 368.966592 
L 521.297157 369.36 
L 521.724935 369.228864 
L 522.152712 369.36 
L 522.580489 369.228864 
L 523.008267 369.36 
L 523.436044 369.36 
L 523.863822 368.966592 
L 524.291599 369.097728 
L 524.719376 369.097728 
L 525.147154 369.36 
L 525.574931 369.36 
L 526.002709 368.835455 
L 526.430486 369.36 
L 526.858264 369.36 
L 527.286041 369.228864 
L 527.713818 369.36 
L 528.569373 369.36 
L 528.997151 368.835455 
L 529.424928 369.228864 
L 529.852706 369.36 
L 530.280483 369.36 
L 530.70826 369.228864 
L 531.136038 368.442047 
L 531.563815 369.097728 
L 531.991593 369.36 
L 532.41937 369.36 
L 532.847148 368.179775 
L 533.274925 369.36 
L 533.702702 368.966592 
L 534.13048 368.966592 
L 534.558257 367.917502 
L 534.986035 368.835455 
L 535.413812 368.048638 
L 535.841589 368.442047 
L 536.269367 369.36 
L 537.980477 369.36 
L 538.408254 369.228864 
L 539.263809 369.228864 
L 539.691586 362.934328 
L 540.119364 369.36 
L 540.547141 369.097728 
L 540.974919 369.228864 
L 541.402696 368.704319 
L 541.830473 368.573183 
L 542.258251 369.228864 
L 542.686028 369.36 
L 543.113806 369.228864 
L 543.541583 368.704319 
L 543.969361 369.36 
L 544.397138 368.573183 
L 544.824915 369.097728 
L 545.252693 369.36 
L 548.674912 369.36 
L 549.10269 368.704319 
L 549.530467 368.573183 
L 549.958244 369.36 
L 550.386022 369.36 
L 550.813799 369.228864 
L 551.241577 368.704319 
L 551.669354 369.228864 
L 552.097132 368.966592 
L 552.524909 369.097728 
L 552.952686 368.966592 
L 553.380464 369.228864 
L 553.808241 363.983417 
L 554.236019 368.835455 
L 554.663796 369.36 
L 555.091574 369.36 
L 555.519351 368.442047 
L 555.947128 368.573183 
L 556.374906 369.36 
L 556.802683 369.36 
L 557.230461 369.228864 
L 557.658238 369.36 
L 558.086015 369.36 
L 558.513793 369.097728 
L 558.94157 369.36 
L 559.797125 369.36 
L 560.224903 368.310911 
L 560.65268 368.966592 
L 561.508235 369.228864 
L 561.936012 364.376826 
L 562.791567 369.36 
L 563.219345 369.36 
L 564.074899 369.097728 
L 564.502677 368.704319 
L 564.930454 368.835455 
L 565.358232 369.36 
L 565.786009 369.36 
L 566.213786 368.835455 
L 566.641564 369.36 
L 567.069341 369.228864 
L 567.497119 369.36 
L 567.924896 369.36 
L 568.352674 368.704319 
L 568.780451 369.36 
L 569.636006 369.36 
L 570.063783 368.573183 
L 570.491561 369.36 
L 570.919338 369.228864 
L 571.347116 365.819324 
L 571.774893 368.704319 
L 572.20267 368.835455 
L 572.630448 369.097728 
L 573.058225 369.097728 
L 573.486003 362.803192 
L 573.91378 369.36 
L 574.341558 369.36 
L 574.769335 362.540919 
L 575.197112 369.097728 
L 575.62489 362.016375 
L 576.052667 369.36 
L 576.480445 369.097728 
L 576.908222 369.36 
L 577.763777 369.36 
L 578.191554 369.228864 
L 578.619332 369.36 
L 579.474887 369.36 
L 579.902664 368.704319 
L 580.330441 362.147511 
L 580.758219 369.36 
L 581.185996 369.36 
L 581.613774 368.966592 
L 582.041551 368.835455 
L 582.469329 369.097728 
L 582.897106 368.966592 
L 583.324883 369.36 
L 583.752661 368.966592 
L 584.180438 362.803192 
L 584.608216 369.36 
L 585.035993 369.36 
L 585.463771 368.310911 
L 585.891548 368.704319 
L 586.319325 369.36 
L 586.747103 368.835455 
L 587.17488 369.36 
L 591.024877 369.36 
L 591.452654 368.835455 
L 591.880432 369.36 
L 592.308209 362.672056 
L 592.735987 368.704319 
L 593.163764 368.704319 
L 593.591542 367.917502 
L 594.019319 368.048638 
L 594.447096 368.310911 
L 594.874874 362.540919 
L 595.302651 367.130685 
L 595.730429 368.835455 
L 596.585984 369.36 
L 597.013761 369.228864 
L 597.441538 366.999549 
L 597.869316 369.228864 
L 598.297093 369.228864 
L 598.724871 369.36 
L 599.152648 368.704319 
L 599.580425 369.36 
L 600.863758 369.36 
L 601.291535 363.590009 
L 601.719313 369.097728 
L 602.574867 368.835455 
L 603.002645 362.147511 
L 603.430422 368.704319 
L 603.8582 365.688187 
L 604.285977 361.360694 
L 604.713755 360.311605 
L 605.141532 368.048638 
L 605.569309 368.310911 
L 605.997087 361.622966 
L 606.424864 367.130685 
L 606.852642 368.835455 
L 607.280419 367.786366 
L 607.708197 368.048638 
L 608.135974 369.228864 
L 608.563751 368.966592 
L 608.991529 369.36 
L 610.702638 369.36 
L 611.130416 369.228864 
L 611.558193 369.36 
L 611.985971 356.508656 
L 612.413748 368.835455 
L 612.841526 367.917502 
L 613.269303 368.179775 
L 614.124858 367.65523 
L 614.552635 368.179775 
L 614.980413 367.917502 
L 615.40819 368.310911 
L 615.835968 356.639792 
L 616.263745 361.754102 
L 616.691522 368.704319 
L 617.547077 365.163643 
L 617.974855 369.097728 
L 618.402632 369.36 
L 618.83041 367.786366 
L 619.258187 369.36 
L 621.397074 369.36 
L 621.824851 369.228864 
L 622.252629 362.672056 
L 622.680406 368.573183 
L 623.108184 366.343868 
L 623.535961 366.212732 
L 623.963739 365.425915 
L 624.391516 368.310911 
L 624.819293 368.310911 
L 625.247071 355.197294 
L 625.674848 368.310911 
L 626.102626 368.442047 
L 626.530403 360.573877 
L 626.958181 359.524788 
L 627.385958 366.737277 
L 627.813735 369.36 
L 628.241513 368.835455 
L 628.66929 369.36 
L 631.663732 369.36 
L 632.09151 369.097728 
L 632.519287 368.966592 
L 632.947064 369.228864 
L 633.374842 368.966592 
L 633.802619 368.835455 
L 634.230397 368.573183 
L 634.658174 356.37752 
L 635.085952 368.442047 
L 635.941506 362.016375 
L 636.369284 368.573183 
L 637.224839 369.228864 
L 638.080394 369.228864 
L 638.508171 369.097728 
L 638.935948 369.36 
L 640.647058 369.36 
L 641.074835 369.228864 
L 641.502613 369.36 
L 641.93039 369.36 
L 642.358168 369.228864 
L 642.785945 369.36 
L 643.6415 368.573183 
L 644.069277 369.097728 
L 644.497055 367.130685 
L 644.924832 368.179775 
L 645.35261 361.885239 
L 645.780387 368.704319 
L 646.208165 368.835455 
L 646.635942 362.016375 
L 647.063719 368.442047 
L 647.491497 369.097728 
L 647.919274 369.228864 
L 648.347052 369.097728 
L 648.774829 369.36 
L 650.058161 369.36 
L 650.485939 362.934328 
L 650.913716 369.36 
L 651.341494 369.36 
L 651.769271 369.228864 
L 652.197048 368.179775 
L 652.624826 369.097728 
L 653.052603 362.934328 
L 653.480381 369.097728 
L 653.908158 369.228864 
L 654.335936 369.228864 
L 654.763713 368.835455 
L 655.19149 362.278647 
L 655.619268 362.147511 
L 656.047045 368.704319 
L 656.474823 368.704319 
L 656.9026 368.573183 
L 657.330378 368.310911 
L 657.758155 369.228864 
L 658.185932 368.835455 
L 658.61371 368.704319 
L 659.041487 369.097728 
L 659.469265 367.392958 
L 659.897042 367.524094 
L 660.32482 366.868413 
L 660.752597 365.557051 
L 661.180374 369.36 
L 661.608152 369.36 
L 662.035929 369.097728 
L 662.463707 369.36 
L 664.174816 369.36 
L 664.602594 369.228864 
L 665.030371 369.36 
L 665.458149 368.835455 
L 666.741481 368.835455 
L 667.169258 363.721145 
L 667.597036 368.966592 
L 668.024813 368.966592 
L 668.452591 367.130685 
L 668.880368 364.507962 
L 669.308145 369.228864 
L 669.735923 368.704319 
L 670.1637 363.721145 
L 670.591478 369.36 
L 671.019255 369.097728 
L 671.447033 369.36 
L 671.87481 369.097728 
L 672.302587 368.573183 
L 672.730365 368.966592 
L 673.158142 368.966592 
L 673.58592 355.852975 
L 674.013697 368.966592 
L 674.441474 368.966592 
L 674.869252 368.704319 
L 675.297029 368.310911 
L 675.724807 368.835455 
L 676.152584 368.442047 
L 676.580362 363.852281 
L 677.008139 367.392958 
L 677.435916 368.179775 
L 677.863694 368.704319 
L 678.291471 368.835455 
L 678.719249 367.786366 
L 679.147026 369.36 
L 679.574804 362.934328 
L 680.002581 369.36 
L 681.285913 369.36 
L 682.141468 368.704319 
L 682.569246 369.228864 
L 682.997023 362.672056 
L 683.4248 368.835455 
L 683.852578 369.228864 
L 684.708133 368.573183 
L 685.13591 368.310911 
L 685.563687 368.835455 
L 685.991465 368.442047 
L 686.419242 368.310911 
L 686.84702 357.0332 
L 687.274797 366.868413 
L 687.702575 368.310911 
L 688.130352 368.704319 
L 688.558129 368.179775 
L 688.985907 362.409783 
L 689.413684 368.442047 
L 689.841462 368.966592 
L 690.269239 369.228864 
L 690.697017 369.36 
L 693.263681 369.36 
L 693.691459 369.228864 
L 694.119236 368.835455 
L 694.547013 369.36 
L 694.974791 363.327736 
L 695.402568 368.573183 
L 695.830346 368.966592 
L 696.258123 368.704319 
L 696.6859 368.573183 
L 697.541455 368.573183 
L 697.969233 368.048638 
L 698.39701 365.95046 
L 698.824788 326.740746 
L 699.252565 363.590009 
L 700.10812 182.884371 
L 700.535897 161.902585 
L 700.963675 66.96 
L 701.81923 369.36 
L 702.247007 369.36 
L 702.674784 369.097728 
L 703.102562 369.36 
L 703.958117 369.36 
L 704.385894 369.097728 
L 704.813672 186.031639 
L 705.241449 132.396947 
L 705.669226 201.899115 
L 706.097004 302.742827 
L 706.524781 229.699983 
L 706.952559 229.699983 
L 707.380336 172.000069 
L 707.808113 327.789835 
L 708.235891 313.495993 
L 708.663668 351.000937 
L 709.091446 346.542307 
L 709.519223 351.656618 
L 709.947001 353.230252 
L 710.374778 323.593478 
L 710.802555 368.835455 
L 711.65811 125.577866 
L 712.085888 369.36 
L 713.796997 369.36 
L 714.224775 369.228864 
L 714.652552 368.573183 
L 715.08033 270.089922 
L 715.508107 349.951847 
L 715.935884 368.835455 
L 716.363662 368.573183 
L 716.791439 339.723226 
L 717.219217 368.835455 
L 717.646994 286.088534 
L 718.074772 306.021232 
L 718.502549 303.660781 
L 718.930326 356.37752 
L 719.358104 335.789141 
L 719.785881 365.425915 
L 720.213659 368.179775 
L 720.641436 368.310911 
L 721.069214 369.36 
L 721.496991 362.934328 
L 721.924768 369.36 
L 722.352546 369.36 
L 722.780323 368.835455 
L 723.635878 368.835455 
L 724.063656 368.704319 
L 724.491433 368.835455 
L 724.91921 368.835455 
L 725.346988 361.885239 
L 725.774765 351.000937 
L 726.63032 337.88732 
L 727.058097 318.479167 
L 727.485875 277.69582 
L 727.913652 368.310911 
L 728.34143 368.442047 
L 728.769207 367.917502 
L 729.624762 369.228864 
L 730.052539 368.835455 
L 730.480317 368.835455 
L 730.908094 367.65523 
L 731.335872 369.097728 
L 731.763649 364.24569 
L 732.191427 363.1966 
L 732.619204 369.36 
L 733.046981 369.097728 
L 733.474759 369.36 
L 734.330314 369.36 
L 734.758091 362.803192 
L 735.185869 369.097728 
L 735.613646 368.966592 
L 736.041423 366.606141 
L 736.469201 368.966592 
L 736.896978 368.704319 
L 737.324756 368.704319 
L 738.18031 368.442047 
L 738.608088 359.524788 
L 739.035865 368.573183 
L 739.463643 368.573183 
L 739.89142 350.476392 
L 740.746975 328.707788 
L 741.174752 281.761041 
L 742.030307 138.429211 
L 742.458085 150.887147 
L 742.885862 201.112298 
L 743.31364 117.971969 
L 743.741417 82.040659 
L 744.169194 108.00562 
L 744.596972 170.688708 
L 745.024749 366.081596 
L 745.452527 298.677606 
L 745.880304 368.704319 
L 746.308082 319.397121 
L 746.735859 319.659393 
L 747.163636 342.083677 
L 747.163636 342.083677 
" style="fill:none;stroke:#1f77b4;stroke-linecap:square;stroke-width:1.5;"/>
   </g>
   <g id="line2d_15">
    <path clip-path="url(#pc1ab461baa)" d="M 745.880304 384.48 
L 745.880304 51.84 
" style="fill:none;stroke:#808080;stroke-linecap:square;"/>
   </g>
   <g id="patch_99">
    <path d="M 108 384.48 
L 108 51.84 
" style="fill:none;stroke:#000000;stroke-linecap:square;stroke-linejoin:miter;stroke-width:0.8;"/>
   </g>
   <g id="patch_100">
    <path d="M 777.6 384.48 
L 777.6 51.84 
" style="fill:none;stroke:#000000;stroke-linecap:square;stroke-linejoin:miter;stroke-width:0.8;"/>
   </g>
   <g id="patch_101">
    <path d="M 108 384.48 
L 777.6 384.48 
" style="fill:none;stroke:#000000;stroke-linecap:square;stroke-linejoin:miter;stroke-width:0.8;"/>
   </g>
   <g id="patch_102">
    <path d="M 108 51.84 
L 777.6 51.84 
" style="fill:none;stroke:#000000;stroke-linecap:square;stroke-linejoin:miter;stroke-width:0.8;"/>
   </g>
   <g id="text_16">
    <!-- real_66.csv -->
    <g transform="translate(408.915 45.84)scale(0.12 -0.12)">
     <defs>
      <path d="M 41.109375 46.296875 
Q 39.59375 47.171875 37.8125 47.578125 
Q 36.03125 48 33.890625 48 
Q 26.265625 48 22.1875 43.046875 
Q 18.109375 38.09375 18.109375 28.8125 
L 18.109375 0 
L 9.078125 0 
L 9.078125 54.6875 
L 18.109375 54.6875 
L 18.109375 46.1875 
Q 20.953125 51.171875 25.484375 53.578125 
Q 30.03125 56 36.53125 56 
Q 37.453125 56 38.578125 55.875 
Q 39.703125 55.765625 41.0625 55.515625 
z
" id="DejaVuSans-114"/>
      <path d="M 50.984375 -16.609375 
L 50.984375 -23.578125 
L -0.984375 -23.578125 
L -0.984375 -16.609375 
z
" id="DejaVuSans-95"/>
      <path d="M 10.6875 12.40625 
L 21 12.40625 
L 21 0 
L 10.6875 0 
z
" id="DejaVuSans-46"/>
      <path d="M 48.78125 52.59375 
L 48.78125 44.1875 
Q 44.96875 46.296875 41.140625 47.34375 
Q 37.3125 48.390625 33.40625 48.390625 
Q 24.65625 48.390625 19.8125 42.84375 
Q 14.984375 37.3125 14.984375 27.296875 
Q 14.984375 17.28125 19.8125 11.734375 
Q 24.65625 6.203125 33.40625 6.203125 
Q 37.3125 6.203125 41.140625 7.25 
Q 44.96875 8.296875 48.78125 10.40625 
L 48.78125 2.09375 
Q 45.015625 0.34375 40.984375 -0.53125 
Q 36.96875 -1.421875 32.421875 -1.421875 
Q 20.0625 -1.421875 12.78125 6.34375 
Q 5.515625 14.109375 5.515625 27.296875 
Q 5.515625 40.671875 12.859375 48.328125 
Q 20.21875 56 33.015625 56 
Q 37.15625 56 41.109375 55.140625 
Q 45.0625 54.296875 48.78125 52.59375 
z
" id="DejaVuSans-99"/>
      <path d="M 2.984375 54.6875 
L 12.5 54.6875 
L 29.59375 8.796875 
L 46.6875 54.6875 
L 56.203125 54.6875 
L 35.6875 0 
L 23.484375 0 
z
" id="DejaVuSans-118"/>
     </defs>
     <use xlink:href="#DejaVuSans-114"/>
     <use x="38.863281" xlink:href="#DejaVuSans-101"/>
     <use x="100.386719" xlink:href="#DejaVuSans-97"/>
     <use x="161.666016" xlink:href="#DejaVuSans-108"/>
     <use x="189.449219" xlink:href="#DejaVuSans-95"/>
     <use x="239.449219" xlink:href="#DejaVuSans-54"/>
     <use x="303.072266" xlink:href="#DejaVuSans-54"/>
     <use x="366.695312" xlink:href="#DejaVuSans-46"/>
     <use x="398.482422" xlink:href="#DejaVuSans-99"/>
     <use x="453.462891" xlink:href="#DejaVuSans-115"/>
     <use x="505.5625" xlink:href="#DejaVuSans-118"/>
    </g>
   </g>
   <g id="legend_1">
    <g id="patch_103">
     <path d="M 115 74.518125 
L 174.315625 74.518125 
Q 176.315625 74.518125 176.315625 72.518125 
L 176.315625 58.84 
Q 176.315625 56.84 174.315625 56.84 
L 115 56.84 
Q 113 56.84 113 58.84 
L 113 72.518125 
Q 113 74.518125 115 74.518125 
z
" style="fill:#ffffff;opacity:0.8;stroke:#cccccc;stroke-linejoin:miter;"/>
    </g>
    <g id="line2d_16">
     <path d="M 117 64.938438 
L 137 64.938438 
" style="fill:none;stroke:#1f77b4;stroke-linecap:square;stroke-width:1.5;"/>
    </g>
    <g id="line2d_17"/>
    <g id="text_17">
     <!-- value -->
     <g transform="translate(145 68.438438)scale(0.1 -0.1)">
      <use xlink:href="#DejaVuSans-118"/>
      <use x="59.179688" xlink:href="#DejaVuSans-97"/>
      <use x="120.458984" xlink:href="#DejaVuSans-108"/>
      <use x="148.242188" xlink:href="#DejaVuSans-117"/>
      <use x="211.621094" xlink:href="#DejaVuSans-101"/>
     </g>
    </g>
   </g>
  </g>
 </g>
 <defs>
  <clipPath id="pc1ab461baa">
   <rect height="332.64" width="669.6" x="108" y="51.84"/>
  </clipPath>
 </defs>
</svg>
