<?xml version="1.0" encoding="utf-8" standalone="no"?>
<!DOCTYPE svg PUBLIC "-//W3C//DTD SVG 1.1//EN"
  "http://www.w3.org/Graphics/SVG/1.1/DTD/svg11.dtd">
<!-- Created with matplotlib (https://matplotlib.org/) -->
<svg height="432pt" version="1.1" viewBox="0 0 864 432" width="864pt" xmlns="http://www.w3.org/2000/svg" xmlns:xlink="http://www.w3.org/1999/xlink">
 <defs>
  <style type="text/css">
*{stroke-linecap:butt;stroke-linejoin:round;}
  </style>
 </defs>
 <g id="figure_1">
  <g id="patch_1">
   <path d="M 0 432 
L 864 432 
L 864 0 
L 0 0 
z
" style="fill:#ffffff;"/>
  </g>
  <g id="axes_1">
   <g id="patch_2">
    <path d="M 108 384.48 
L 777.6 384.48 
L 777.6 51.84 
L 108 51.84 
z
" style="fill:#ffffff;"/>
   </g>
   <g id="patch_3">
    <path clip-path="url(#p203e589897)" d="M 138.436364 384.48 
L 138.436364 51.84 
L 374.096118 51.84 
L 374.096118 384.48 
z
" style="fill:#0000ff;opacity:0.05;"/>
   </g>
   <g id="patch_4">
    <path clip-path="url(#p203e589897)" d="M 374.096118 384.48 
L 374.096118 51.84 
L 745.713422 51.84 
L 745.713422 384.48 
z
" style="fill:#ff0000;opacity:0.08;"/>
   </g>
   <g id="patch_5">
    <path clip-path="url(#p203e589897)" d="M 138.436364 384.48 
L 138.436364 51.84 
L 147.5002 51.84 
L 147.5002 384.48 
z
" style="fill:#008000;opacity:0.04;"/>
   </g>
   <g id="patch_6">
    <path clip-path="url(#p203e589897)" d="M 147.5002 371.1744 
L 147.5002 51.84 
L 156.564037 51.84 
L 156.564037 371.1744 
z
" style="fill:#008000;opacity:0.5;"/>
   </g>
   <g id="patch_7">
    <path clip-path="url(#p203e589897)" d="M 156.564037 384.48 
L 156.564037 51.84 
L 165.627874 51.84 
L 165.627874 384.48 
z
" style="fill:#008000;opacity:0.04;"/>
   </g>
   <g id="patch_8">
    <path clip-path="url(#p203e589897)" d="M 156.564037 371.1744 
L 156.564037 51.84 
L 165.627874 51.84 
L 165.627874 371.1744 
z
" style="fill:#008000;opacity:0.5;"/>
   </g>
   <g id="patch_9">
    <path clip-path="url(#p203e589897)" d="M 156.564037 384.48 
L 156.564037 371.1744 
L 165.627874 371.1744 
L 165.627874 384.48 
z
" style="fill:#ffe500;"/>
   </g>
   <g id="patch_10">
    <path clip-path="url(#p203e589897)" d="M 174.69171 384.48 
L 174.69171 51.84 
L 183.755547 51.84 
L 183.755547 384.48 
z
" style="fill:#008000;opacity:0.04;"/>
   </g>
   <g id="patch_11">
    <path clip-path="url(#p203e589897)" d="M 192.819384 384.48 
L 192.819384 51.84 
L 201.883221 51.84 
L 201.883221 384.48 
z
" style="fill:#008000;opacity:0.04;"/>
   </g>
   <g id="patch_12">
    <path clip-path="url(#p203e589897)" d="M 210.947057 384.48 
L 210.947057 51.84 
L 220.010894 51.84 
L 220.010894 384.48 
z
" style="fill:#008000;opacity:0.04;"/>
   </g>
   <g id="patch_13">
    <path clip-path="url(#p203e589897)" d="M 229.074731 384.48 
L 229.074731 51.84 
L 238.138567 51.84 
L 238.138567 384.48 
z
" style="fill:#008000;opacity:0.04;"/>
   </g>
   <g id="patch_14">
    <path clip-path="url(#p203e589897)" d="M 247.202404 384.48 
L 247.202404 51.84 
L 256.266241 51.84 
L 256.266241 384.48 
z
" style="fill:#008000;opacity:0.04;"/>
   </g>
   <g id="patch_15">
    <path clip-path="url(#p203e589897)" d="M 491.925995 384.48 
L 491.925995 371.1744 
L 500.989832 371.1744 
L 500.989832 384.48 
z
" style="fill:#ff6600;"/>
   </g>
   <g id="patch_16">
    <path clip-path="url(#p203e589897)" d="M 265.330077 384.48 
L 265.330077 51.84 
L 274.393914 51.84 
L 274.393914 384.48 
z
" style="fill:#008000;opacity:0.04;"/>
   </g>
   <g id="patch_17">
    <path clip-path="url(#p203e589897)" d="M 283.457751 384.48 
L 283.457751 51.84 
L 292.521588 51.84 
L 292.521588 384.48 
z
" style="fill:#008000;opacity:0.04;"/>
   </g>
   <g id="patch_18">
    <path clip-path="url(#p203e589897)" d="M 283.457751 371.1744 
L 283.457751 357.8688 
L 292.521588 357.8688 
L 292.521588 371.1744 
z
" style="fill:#ff00ff;"/>
   </g>
   <g id="patch_19">
    <path clip-path="url(#p203e589897)" d="M 519.117505 384.48 
L 519.117505 371.1744 
L 528.181342 371.1744 
L 528.181342 384.48 
z
" style="fill:#ff6600;"/>
   </g>
   <g id="patch_20">
    <path clip-path="url(#p203e589897)" d="M 301.585424 384.48 
L 301.585424 51.84 
L 310.649261 51.84 
L 310.649261 384.48 
z
" style="fill:#008000;opacity:0.04;"/>
   </g>
   <g id="patch_21">
    <path clip-path="url(#p203e589897)" d="M 319.713098 384.48 
L 319.713098 51.84 
L 328.776934 51.84 
L 328.776934 384.48 
z
" style="fill:#008000;opacity:0.04;"/>
   </g>
   <g id="patch_22">
    <path clip-path="url(#p203e589897)" d="M 328.776934 371.1744 
L 328.776934 51.84 
L 337.840771 51.84 
L 337.840771 371.1744 
z
" style="fill:#008000;opacity:0.5;"/>
   </g>
   <g id="patch_23">
    <path clip-path="url(#p203e589897)" d="M 328.776934 384.48 
L 328.776934 371.1744 
L 337.840771 371.1744 
L 337.840771 384.48 
z
" style="fill:#ffe500;"/>
   </g>
   <g id="patch_24">
    <path clip-path="url(#p203e589897)" d="M 337.840771 384.48 
L 337.840771 51.84 
L 346.904608 51.84 
L 346.904608 384.48 
z
" style="fill:#008000;opacity:0.04;"/>
   </g>
   <g id="patch_25">
    <path clip-path="url(#p203e589897)" d="M 573.500525 384.48 
L 573.500525 371.1744 
L 582.564362 371.1744 
L 582.564362 384.48 
z
" style="fill:#ff6600;"/>
   </g>
   <g id="patch_26">
    <path clip-path="url(#p203e589897)" d="M 355.968444 384.48 
L 355.968444 51.84 
L 365.032281 51.84 
L 365.032281 384.48 
z
" style="fill:#008000;opacity:0.04;"/>
   </g>
   <g id="patch_27">
    <path clip-path="url(#p203e589897)" d="M 374.096118 384.48 
L 374.096118 51.84 
L 383.159955 51.84 
L 383.159955 384.48 
z
" style="fill:#008000;opacity:0.04;"/>
   </g>
   <g id="patch_28">
    <path clip-path="url(#p203e589897)" d="M 392.223791 384.48 
L 392.223791 51.84 
L 401.287628 51.84 
L 401.287628 384.48 
z
" style="fill:#008000;opacity:0.04;"/>
   </g>
   <g id="patch_29">
    <path clip-path="url(#p203e589897)" d="M 410.351465 384.48 
L 410.351465 51.84 
L 419.415301 51.84 
L 419.415301 384.48 
z
" style="fill:#008000;opacity:0.04;"/>
   </g>
   <g id="patch_30">
    <path clip-path="url(#p203e589897)" d="M 428.479138 384.48 
L 428.479138 51.84 
L 437.542975 51.84 
L 437.542975 384.48 
z
" style="fill:#008000;opacity:0.04;"/>
   </g>
   <g id="patch_31">
    <path clip-path="url(#p203e589897)" d="M 446.606811 384.48 
L 446.606811 51.84 
L 455.670648 51.84 
L 455.670648 384.48 
z
" style="fill:#008000;opacity:0.04;"/>
   </g>
   <g id="patch_32">
    <path clip-path="url(#p203e589897)" d="M 464.734485 384.48 
L 464.734485 51.84 
L 473.798322 51.84 
L 473.798322 384.48 
z
" style="fill:#008000;opacity:0.04;"/>
   </g>
   <g id="patch_33">
    <path clip-path="url(#p203e589897)" d="M 482.862158 384.48 
L 482.862158 51.84 
L 491.925995 51.84 
L 491.925995 384.48 
z
" style="fill:#008000;opacity:0.04;"/>
   </g>
   <g id="patch_34">
    <path clip-path="url(#p203e589897)" d="M 491.925995 371.1744 
L 491.925995 51.84 
L 500.989832 51.84 
L 500.989832 371.1744 
z
" style="fill:#008000;opacity:0.5;"/>
   </g>
   <g id="patch_35">
    <path clip-path="url(#p203e589897)" d="M 500.989832 384.48 
L 500.989832 51.84 
L 510.053668 51.84 
L 510.053668 384.48 
z
" style="fill:#008000;opacity:0.04;"/>
   </g>
   <g id="patch_36">
    <path clip-path="url(#p203e589897)" d="M 519.117505 384.48 
L 519.117505 51.84 
L 528.181342 51.84 
L 528.181342 384.48 
z
" style="fill:#008000;opacity:0.04;"/>
   </g>
   <g id="patch_37">
    <path clip-path="url(#p203e589897)" d="M 519.117505 371.1744 
L 519.117505 51.84 
L 528.181342 51.84 
L 528.181342 371.1744 
z
" style="fill:#008000;opacity:0.5;"/>
   </g>
   <g id="patch_38">
    <path clip-path="url(#p203e589897)" d="M 537.245178 384.48 
L 537.245178 51.84 
L 546.309015 51.84 
L 546.309015 384.48 
z
" style="fill:#008000;opacity:0.04;"/>
   </g>
   <g id="patch_39">
    <path clip-path="url(#p203e589897)" d="M 555.372852 384.48 
L 555.372852 51.84 
L 564.436689 51.84 
L 564.436689 384.48 
z
" style="fill:#008000;opacity:0.04;"/>
   </g>
   <g id="patch_40">
    <path clip-path="url(#p203e589897)" d="M 573.500525 384.48 
L 573.500525 51.84 
L 582.564362 51.84 
L 582.564362 384.48 
z
" style="fill:#008000;opacity:0.04;"/>
   </g>
   <g id="patch_41">
    <path clip-path="url(#p203e589897)" d="M 573.500525 371.1744 
L 573.500525 51.84 
L 582.564362 51.84 
L 582.564362 371.1744 
z
" style="fill:#008000;opacity:0.5;"/>
   </g>
   <g id="patch_42">
    <path clip-path="url(#p203e589897)" d="M 591.628199 384.48 
L 591.628199 51.84 
L 600.692035 51.84 
L 600.692035 384.48 
z
" style="fill:#008000;opacity:0.04;"/>
   </g>
   <g id="patch_43">
    <path clip-path="url(#p203e589897)" d="M 609.755872 384.48 
L 609.755872 51.84 
L 618.819709 51.84 
L 618.819709 384.48 
z
" style="fill:#008000;opacity:0.04;"/>
   </g>
   <g id="patch_44">
    <path clip-path="url(#p203e589897)" d="M 627.883545 384.48 
L 627.883545 51.84 
L 636.947382 51.84 
L 636.947382 384.48 
z
" style="fill:#008000;opacity:0.04;"/>
   </g>
   <g id="patch_45">
    <path clip-path="url(#p203e589897)" d="M 627.883545 371.1744 
L 627.883545 51.84 
L 636.947382 51.84 
L 636.947382 371.1744 
z
" style="fill:#008000;opacity:0.5;"/>
   </g>
   <g id="patch_46">
    <path clip-path="url(#p203e589897)" d="M 636.947382 371.1744 
L 636.947382 51.84 
L 646.011219 51.84 
L 646.011219 371.1744 
z
" style="fill:#008000;opacity:0.5;"/>
   </g>
   <g id="patch_47">
    <path clip-path="url(#p203e589897)" d="M 646.011219 384.48 
L 646.011219 51.84 
L 655.075055 51.84 
L 655.075055 384.48 
z
" style="fill:#008000;opacity:0.04;"/>
   </g>
   <g id="patch_48">
    <path clip-path="url(#p203e589897)" d="M 664.138892 384.48 
L 664.138892 51.84 
L 673.202729 51.84 
L 673.202729 384.48 
z
" style="fill:#008000;opacity:0.04;"/>
   </g>
   <g id="patch_49">
    <path clip-path="url(#p203e589897)" d="M 682.266566 384.48 
L 682.266566 51.84 
L 691.330402 51.84 
L 691.330402 384.48 
z
" style="fill:#008000;opacity:0.04;"/>
   </g>
   <g id="patch_50">
    <path clip-path="url(#p203e589897)" d="M 700.394239 384.48 
L 700.394239 51.84 
L 709.458076 51.84 
L 709.458076 384.48 
z
" style="fill:#008000;opacity:0.04;"/>
   </g>
   <g id="patch_51">
    <path clip-path="url(#p203e589897)" d="M 718.521912 384.48 
L 718.521912 51.84 
L 727.585749 51.84 
L 727.585749 384.48 
z
" style="fill:#008000;opacity:0.04;"/>
   </g>
   <g id="patch_52">
    <path clip-path="url(#p203e589897)" d="M 718.521912 371.1744 
L 718.521912 51.84 
L 727.585749 51.84 
L 727.585749 371.1744 
z
" style="fill:#008000;opacity:0.5;"/>
   </g>
   <g id="patch_53">
    <path clip-path="url(#p203e589897)" d="M 736.649586 384.48 
L 736.649586 51.84 
L 745.713422 51.84 
L 745.713422 384.48 
z
" style="fill:#008000;opacity:0.04;"/>
   </g>
   <g id="matplotlib.axis_1">
    <g id="xtick_1">
     <g id="line2d_1">
      <defs>
       <path d="M 0 0 
L 0 3.5 
" id="mb81a1d4093" style="stroke:#000000;stroke-width:0.8;"/>
      </defs>
      <g>
       <use style="stroke:#000000;stroke-width:0.8;" x="138.436364" xlink:href="#mb81a1d4093" y="384.48"/>
      </g>
     </g>
     <g id="text_1">
      <!-- 0 -->
      <defs>
       <path d="M 31.78125 66.40625 
Q 24.171875 66.40625 20.328125 58.90625 
Q 16.5 51.421875 16.5 36.375 
Q 16.5 21.390625 20.328125 13.890625 
Q 24.171875 6.390625 31.78125 6.390625 
Q 39.453125 6.390625 43.28125 13.890625 
Q 47.125 21.390625 47.125 36.375 
Q 47.125 51.421875 43.28125 58.90625 
Q 39.453125 66.40625 31.78125 66.40625 
z
M 31.78125 74.21875 
Q 44.046875 74.21875 50.515625 64.515625 
Q 56.984375 54.828125 56.984375 36.375 
Q 56.984375 17.96875 50.515625 8.265625 
Q 44.046875 -1.421875 31.78125 -1.421875 
Q 19.53125 -1.421875 13.0625 8.265625 
Q 6.59375 17.96875 6.59375 36.375 
Q 6.59375 54.828125 13.0625 64.515625 
Q 19.53125 74.21875 31.78125 74.21875 
z
" id="DejaVuSans-48"/>
      </defs>
      <g transform="translate(135.255114 399.078438)scale(0.1 -0.1)">
       <use xlink:href="#DejaVuSans-48"/>
      </g>
     </g>
    </g>
    <g id="xtick_2">
     <g id="line2d_2">
      <g>
       <use style="stroke:#000000;stroke-width:0.8;" x="229.074731" xlink:href="#mb81a1d4093" y="384.48"/>
      </g>
     </g>
     <g id="text_2">
      <!-- 250 -->
      <defs>
       <path d="M 19.1875 8.296875 
L 53.609375 8.296875 
L 53.609375 0 
L 7.328125 0 
L 7.328125 8.296875 
Q 12.9375 14.109375 22.625 23.890625 
Q 32.328125 33.6875 34.8125 36.53125 
Q 39.546875 41.84375 41.421875 45.53125 
Q 43.3125 49.21875 43.3125 52.78125 
Q 43.3125 58.59375 39.234375 62.25 
Q 35.15625 65.921875 28.609375 65.921875 
Q 23.96875 65.921875 18.8125 64.3125 
Q 13.671875 62.703125 7.8125 59.421875 
L 7.8125 69.390625 
Q 13.765625 71.78125 18.9375 73 
Q 24.125 74.21875 28.421875 74.21875 
Q 39.75 74.21875 46.484375 68.546875 
Q 53.21875 62.890625 53.21875 53.421875 
Q 53.21875 48.921875 51.53125 44.890625 
Q 49.859375 40.875 45.40625 35.40625 
Q 44.1875 33.984375 37.640625 27.21875 
Q 31.109375 20.453125 19.1875 8.296875 
z
" id="DejaVuSans-50"/>
       <path d="M 10.796875 72.90625 
L 49.515625 72.90625 
L 49.515625 64.59375 
L 19.828125 64.59375 
L 19.828125 46.734375 
Q 21.96875 47.46875 24.109375 47.828125 
Q 26.265625 48.1875 28.421875 48.1875 
Q 40.625 48.1875 47.75 41.5 
Q 54.890625 34.8125 54.890625 23.390625 
Q 54.890625 11.625 47.5625 5.09375 
Q 40.234375 -1.421875 26.90625 -1.421875 
Q 22.3125 -1.421875 17.546875 -0.640625 
Q 12.796875 0.140625 7.71875 1.703125 
L 7.71875 11.625 
Q 12.109375 9.234375 16.796875 8.0625 
Q 21.484375 6.890625 26.703125 6.890625 
Q 35.15625 6.890625 40.078125 11.328125 
Q 45.015625 15.765625 45.015625 23.390625 
Q 45.015625 31 40.078125 35.4375 
Q 35.15625 39.890625 26.703125 39.890625 
Q 22.75 39.890625 18.8125 39.015625 
Q 14.890625 38.140625 10.796875 36.28125 
z
" id="DejaVuSans-53"/>
      </defs>
      <g transform="translate(219.530981 399.078438)scale(0.1 -0.1)">
       <use xlink:href="#DejaVuSans-50"/>
       <use x="63.623047" xlink:href="#DejaVuSans-53"/>
       <use x="127.246094" xlink:href="#DejaVuSans-48"/>
      </g>
     </g>
    </g>
    <g id="xtick_3">
     <g id="line2d_3">
      <g>
       <use style="stroke:#000000;stroke-width:0.8;" x="319.713098" xlink:href="#mb81a1d4093" y="384.48"/>
      </g>
     </g>
     <g id="text_3">
      <!-- 500 -->
      <g transform="translate(310.169348 399.078438)scale(0.1 -0.1)">
       <use xlink:href="#DejaVuSans-53"/>
       <use x="63.623047" xlink:href="#DejaVuSans-48"/>
       <use x="127.246094" xlink:href="#DejaVuSans-48"/>
      </g>
     </g>
    </g>
    <g id="xtick_4">
     <g id="line2d_4">
      <g>
       <use style="stroke:#000000;stroke-width:0.8;" x="410.351465" xlink:href="#mb81a1d4093" y="384.48"/>
      </g>
     </g>
     <g id="text_4">
      <!-- 750 -->
      <defs>
       <path d="M 8.203125 72.90625 
L 55.078125 72.90625 
L 55.078125 68.703125 
L 28.609375 0 
L 18.3125 0 
L 43.21875 64.59375 
L 8.203125 64.59375 
z
" id="DejaVuSans-55"/>
      </defs>
      <g transform="translate(400.807715 399.078438)scale(0.1 -0.1)">
       <use xlink:href="#DejaVuSans-55"/>
       <use x="63.623047" xlink:href="#DejaVuSans-53"/>
       <use x="127.246094" xlink:href="#DejaVuSans-48"/>
      </g>
     </g>
    </g>
    <g id="xtick_5">
     <g id="line2d_5">
      <g>
       <use style="stroke:#000000;stroke-width:0.8;" x="500.989832" xlink:href="#mb81a1d4093" y="384.48"/>
      </g>
     </g>
     <g id="text_5">
      <!-- 1000 -->
      <defs>
       <path d="M 12.40625 8.296875 
L 28.515625 8.296875 
L 28.515625 63.921875 
L 10.984375 60.40625 
L 10.984375 69.390625 
L 28.421875 72.90625 
L 38.28125 72.90625 
L 38.28125 8.296875 
L 54.390625 8.296875 
L 54.390625 0 
L 12.40625 0 
z
" id="DejaVuSans-49"/>
      </defs>
      <g transform="translate(488.264832 399.078438)scale(0.1 -0.1)">
       <use xlink:href="#DejaVuSans-49"/>
       <use x="63.623047" xlink:href="#DejaVuSans-48"/>
       <use x="127.246094" xlink:href="#DejaVuSans-48"/>
       <use x="190.869141" xlink:href="#DejaVuSans-48"/>
      </g>
     </g>
    </g>
    <g id="xtick_6">
     <g id="line2d_6">
      <g>
       <use style="stroke:#000000;stroke-width:0.8;" x="591.628199" xlink:href="#mb81a1d4093" y="384.48"/>
      </g>
     </g>
     <g id="text_6">
      <!-- 1250 -->
      <g transform="translate(578.903199 399.078438)scale(0.1 -0.1)">
       <use xlink:href="#DejaVuSans-49"/>
       <use x="63.623047" xlink:href="#DejaVuSans-50"/>
       <use x="127.246094" xlink:href="#DejaVuSans-53"/>
       <use x="190.869141" xlink:href="#DejaVuSans-48"/>
      </g>
     </g>
    </g>
    <g id="xtick_7">
     <g id="line2d_7">
      <g>
       <use style="stroke:#000000;stroke-width:0.8;" x="682.266566" xlink:href="#mb81a1d4093" y="384.48"/>
      </g>
     </g>
     <g id="text_7">
      <!-- 1500 -->
      <g transform="translate(669.541566 399.078438)scale(0.1 -0.1)">
       <use xlink:href="#DejaVuSans-49"/>
       <use x="63.623047" xlink:href="#DejaVuSans-53"/>
       <use x="127.246094" xlink:href="#DejaVuSans-48"/>
       <use x="190.869141" xlink:href="#DejaVuSans-48"/>
      </g>
     </g>
    </g>
    <g id="xtick_8">
     <g id="line2d_8">
      <g>
       <use style="stroke:#000000;stroke-width:0.8;" x="772.904933" xlink:href="#mb81a1d4093" y="384.48"/>
      </g>
     </g>
     <g id="text_8">
      <!-- 1750 -->
      <g transform="translate(760.179933 399.078438)scale(0.1 -0.1)">
       <use xlink:href="#DejaVuSans-49"/>
       <use x="63.623047" xlink:href="#DejaVuSans-55"/>
       <use x="127.246094" xlink:href="#DejaVuSans-53"/>
       <use x="190.869141" xlink:href="#DejaVuSans-48"/>
      </g>
     </g>
    </g>
    <g id="text_9">
     <!-- Timestamp -->
     <defs>
      <path d="M -0.296875 72.90625 
L 61.375 72.90625 
L 61.375 64.59375 
L 35.5 64.59375 
L 35.5 0 
L 25.59375 0 
L 25.59375 64.59375 
L -0.296875 64.59375 
z
" id="DejaVuSans-84"/>
      <path d="M 9.421875 54.6875 
L 18.40625 54.6875 
L 18.40625 0 
L 9.421875 0 
z
M 9.421875 75.984375 
L 18.40625 75.984375 
L 18.40625 64.59375 
L 9.421875 64.59375 
z
" id="DejaVuSans-105"/>
      <path d="M 52 44.1875 
Q 55.375 50.25 60.0625 53.125 
Q 64.75 56 71.09375 56 
Q 79.640625 56 84.28125 50.015625 
Q 88.921875 44.046875 88.921875 33.015625 
L 88.921875 0 
L 79.890625 0 
L 79.890625 32.71875 
Q 79.890625 40.578125 77.09375 44.375 
Q 74.3125 48.1875 68.609375 48.1875 
Q 61.625 48.1875 57.5625 43.546875 
Q 53.515625 38.921875 53.515625 30.90625 
L 53.515625 0 
L 44.484375 0 
L 44.484375 32.71875 
Q 44.484375 40.625 41.703125 44.40625 
Q 38.921875 48.1875 33.109375 48.1875 
Q 26.21875 48.1875 22.15625 43.53125 
Q 18.109375 38.875 18.109375 30.90625 
L 18.109375 0 
L 9.078125 0 
L 9.078125 54.6875 
L 18.109375 54.6875 
L 18.109375 46.1875 
Q 21.1875 51.21875 25.484375 53.609375 
Q 29.78125 56 35.6875 56 
Q 41.65625 56 45.828125 52.96875 
Q 50 49.953125 52 44.1875 
z
" id="DejaVuSans-109"/>
      <path d="M 56.203125 29.59375 
L 56.203125 25.203125 
L 14.890625 25.203125 
Q 15.484375 15.921875 20.484375 11.0625 
Q 25.484375 6.203125 34.421875 6.203125 
Q 39.59375 6.203125 44.453125 7.46875 
Q 49.3125 8.734375 54.109375 11.28125 
L 54.109375 2.78125 
Q 49.265625 0.734375 44.1875 -0.34375 
Q 39.109375 -1.421875 33.890625 -1.421875 
Q 20.796875 -1.421875 13.15625 6.1875 
Q 5.515625 13.8125 5.515625 26.8125 
Q 5.515625 40.234375 12.765625 48.109375 
Q 20.015625 56 32.328125 56 
Q 43.359375 56 49.78125 48.890625 
Q 56.203125 41.796875 56.203125 29.59375 
z
M 47.21875 32.234375 
Q 47.125 39.59375 43.09375 43.984375 
Q 39.0625 48.390625 32.421875 48.390625 
Q 24.90625 48.390625 20.390625 44.140625 
Q 15.875 39.890625 15.1875 32.171875 
z
" id="DejaVuSans-101"/>
      <path d="M 44.28125 53.078125 
L 44.28125 44.578125 
Q 40.484375 46.53125 36.375 47.5 
Q 32.28125 48.484375 27.875 48.484375 
Q 21.1875 48.484375 17.84375 46.4375 
Q 14.5 44.390625 14.5 40.28125 
Q 14.5 37.15625 16.890625 35.375 
Q 19.28125 33.59375 26.515625 31.984375 
L 29.59375 31.296875 
Q 39.15625 29.25 43.1875 25.515625 
Q 47.21875 21.78125 47.21875 15.09375 
Q 47.21875 7.46875 41.1875 3.015625 
Q 35.15625 -1.421875 24.609375 -1.421875 
Q 20.21875 -1.421875 15.453125 -0.5625 
Q 10.6875 0.296875 5.421875 2 
L 5.421875 11.28125 
Q 10.40625 8.6875 15.234375 7.390625 
Q 20.0625 6.109375 24.8125 6.109375 
Q 31.15625 6.109375 34.5625 8.28125 
Q 37.984375 10.453125 37.984375 14.40625 
Q 37.984375 18.0625 35.515625 20.015625 
Q 33.0625 21.96875 24.703125 23.78125 
L 21.578125 24.515625 
Q 13.234375 26.265625 9.515625 29.90625 
Q 5.8125 33.546875 5.8125 39.890625 
Q 5.8125 47.609375 11.28125 51.796875 
Q 16.75 56 26.8125 56 
Q 31.78125 56 36.171875 55.265625 
Q 40.578125 54.546875 44.28125 53.078125 
z
" id="DejaVuSans-115"/>
      <path d="M 18.3125 70.21875 
L 18.3125 54.6875 
L 36.8125 54.6875 
L 36.8125 47.703125 
L 18.3125 47.703125 
L 18.3125 18.015625 
Q 18.3125 11.328125 20.140625 9.421875 
Q 21.96875 7.515625 27.59375 7.515625 
L 36.8125 7.515625 
L 36.8125 0 
L 27.59375 0 
Q 17.1875 0 13.234375 3.875 
Q 9.28125 7.765625 9.28125 18.015625 
L 9.28125 47.703125 
L 2.6875 47.703125 
L 2.6875 54.6875 
L 9.28125 54.6875 
L 9.28125 70.21875 
z
" id="DejaVuSans-116"/>
      <path d="M 34.28125 27.484375 
Q 23.390625 27.484375 19.1875 25 
Q 14.984375 22.515625 14.984375 16.5 
Q 14.984375 11.71875 18.140625 8.90625 
Q 21.296875 6.109375 26.703125 6.109375 
Q 34.1875 6.109375 38.703125 11.40625 
Q 43.21875 16.703125 43.21875 25.484375 
L 43.21875 27.484375 
z
M 52.203125 31.203125 
L 52.203125 0 
L 43.21875 0 
L 43.21875 8.296875 
Q 40.140625 3.328125 35.546875 0.953125 
Q 30.953125 -1.421875 24.3125 -1.421875 
Q 15.921875 -1.421875 10.953125 3.296875 
Q 6 8.015625 6 15.921875 
Q 6 25.140625 12.171875 29.828125 
Q 18.359375 34.515625 30.609375 34.515625 
L 43.21875 34.515625 
L 43.21875 35.40625 
Q 43.21875 41.609375 39.140625 45 
Q 35.0625 48.390625 27.6875 48.390625 
Q 23 48.390625 18.546875 47.265625 
Q 14.109375 46.140625 10.015625 43.890625 
L 10.015625 52.203125 
Q 14.9375 54.109375 19.578125 55.046875 
Q 24.21875 56 28.609375 56 
Q 40.484375 56 46.34375 49.84375 
Q 52.203125 43.703125 52.203125 31.203125 
z
" id="DejaVuSans-97"/>
      <path d="M 18.109375 8.203125 
L 18.109375 -20.796875 
L 9.078125 -20.796875 
L 9.078125 54.6875 
L 18.109375 54.6875 
L 18.109375 46.390625 
Q 20.953125 51.265625 25.265625 53.625 
Q 29.59375 56 35.59375 56 
Q 45.5625 56 51.78125 48.09375 
Q 58.015625 40.1875 58.015625 27.296875 
Q 58.015625 14.40625 51.78125 6.484375 
Q 45.5625 -1.421875 35.59375 -1.421875 
Q 29.59375 -1.421875 25.265625 0.953125 
Q 20.953125 3.328125 18.109375 8.203125 
z
M 48.6875 27.296875 
Q 48.6875 37.203125 44.609375 42.84375 
Q 40.53125 48.484375 33.40625 48.484375 
Q 26.265625 48.484375 22.1875 42.84375 
Q 18.109375 37.203125 18.109375 27.296875 
Q 18.109375 17.390625 22.1875 11.75 
Q 26.265625 6.109375 33.40625 6.109375 
Q 40.53125 6.109375 44.609375 11.75 
Q 48.6875 17.390625 48.6875 27.296875 
z
" id="DejaVuSans-112"/>
     </defs>
     <g transform="translate(414.739062 412.756563)scale(0.1 -0.1)">
      <use xlink:href="#DejaVuSans-84"/>
      <use x="61.037109" xlink:href="#DejaVuSans-105"/>
      <use x="88.820312" xlink:href="#DejaVuSans-109"/>
      <use x="186.232422" xlink:href="#DejaVuSans-101"/>
      <use x="247.755859" xlink:href="#DejaVuSans-115"/>
      <use x="299.855469" xlink:href="#DejaVuSans-116"/>
      <use x="339.064453" xlink:href="#DejaVuSans-97"/>
      <use x="400.34375" xlink:href="#DejaVuSans-109"/>
      <use x="497.755859" xlink:href="#DejaVuSans-112"/>
     </g>
    </g>
   </g>
   <g id="matplotlib.axis_2">
    <g id="ytick_1">
     <g id="line2d_9">
      <defs>
       <path d="M 0 0 
L -3.5 0 
" id="m62b05413a7" style="stroke:#000000;stroke-width:0.8;"/>
      </defs>
      <g>
       <use style="stroke:#000000;stroke-width:0.8;" x="108" xlink:href="#m62b05413a7" y="367.645952"/>
      </g>
     </g>
     <g id="text_10">
      <!-- −2500 -->
      <defs>
       <path d="M 10.59375 35.5 
L 73.1875 35.5 
L 73.1875 27.203125 
L 10.59375 27.203125 
z
" id="DejaVuSans-8722"/>
      </defs>
      <g transform="translate(67.170312 371.44517)scale(0.1 -0.1)">
       <use xlink:href="#DejaVuSans-8722"/>
       <use x="83.789062" xlink:href="#DejaVuSans-50"/>
       <use x="147.412109" xlink:href="#DejaVuSans-53"/>
       <use x="211.035156" xlink:href="#DejaVuSans-48"/>
       <use x="274.658203" xlink:href="#DejaVuSans-48"/>
      </g>
     </g>
    </g>
    <g id="ytick_2">
     <g id="line2d_10">
      <g>
       <use style="stroke:#000000;stroke-width:0.8;" x="108" xlink:href="#m62b05413a7" y="327.908673"/>
      </g>
     </g>
     <g id="text_11">
      <!-- −2000 -->
      <g transform="translate(67.170312 331.707892)scale(0.1 -0.1)">
       <use xlink:href="#DejaVuSans-8722"/>
       <use x="83.789062" xlink:href="#DejaVuSans-50"/>
       <use x="147.412109" xlink:href="#DejaVuSans-48"/>
       <use x="211.035156" xlink:href="#DejaVuSans-48"/>
       <use x="274.658203" xlink:href="#DejaVuSans-48"/>
      </g>
     </g>
    </g>
    <g id="ytick_3">
     <g id="line2d_11">
      <g>
       <use style="stroke:#000000;stroke-width:0.8;" x="108" xlink:href="#m62b05413a7" y="288.171394"/>
      </g>
     </g>
     <g id="text_12">
      <!-- −1500 -->
      <g transform="translate(67.170312 291.970613)scale(0.1 -0.1)">
       <use xlink:href="#DejaVuSans-8722"/>
       <use x="83.789062" xlink:href="#DejaVuSans-49"/>
       <use x="147.412109" xlink:href="#DejaVuSans-53"/>
       <use x="211.035156" xlink:href="#DejaVuSans-48"/>
       <use x="274.658203" xlink:href="#DejaVuSans-48"/>
      </g>
     </g>
    </g>
    <g id="ytick_4">
     <g id="line2d_12">
      <g>
       <use style="stroke:#000000;stroke-width:0.8;" x="108" xlink:href="#m62b05413a7" y="248.434116"/>
      </g>
     </g>
     <g id="text_13">
      <!-- −1000 -->
      <g transform="translate(67.170312 252.233334)scale(0.1 -0.1)">
       <use xlink:href="#DejaVuSans-8722"/>
       <use x="83.789062" xlink:href="#DejaVuSans-49"/>
       <use x="147.412109" xlink:href="#DejaVuSans-48"/>
       <use x="211.035156" xlink:href="#DejaVuSans-48"/>
       <use x="274.658203" xlink:href="#DejaVuSans-48"/>
      </g>
     </g>
    </g>
    <g id="ytick_5">
     <g id="line2d_13">
      <g>
       <use style="stroke:#000000;stroke-width:0.8;" x="108" xlink:href="#m62b05413a7" y="208.696837"/>
      </g>
     </g>
     <g id="text_14">
      <!-- −500 -->
      <g transform="translate(73.532813 212.496056)scale(0.1 -0.1)">
       <use xlink:href="#DejaVuSans-8722"/>
       <use x="83.789062" xlink:href="#DejaVuSans-53"/>
       <use x="147.412109" xlink:href="#DejaVuSans-48"/>
       <use x="211.035156" xlink:href="#DejaVuSans-48"/>
      </g>
     </g>
    </g>
    <g id="ytick_6">
     <g id="line2d_14">
      <g>
       <use style="stroke:#000000;stroke-width:0.8;" x="108" xlink:href="#m62b05413a7" y="168.959558"/>
      </g>
     </g>
     <g id="text_15">
      <!-- 0 -->
      <g transform="translate(94.6375 172.758777)scale(0.1 -0.1)">
       <use xlink:href="#DejaVuSans-48"/>
      </g>
     </g>
    </g>
    <g id="ytick_7">
     <g id="line2d_15">
      <g>
       <use style="stroke:#000000;stroke-width:0.8;" x="108" xlink:href="#m62b05413a7" y="129.22228"/>
      </g>
     </g>
     <g id="text_16">
      <!-- 500 -->
      <g transform="translate(81.9125 133.021498)scale(0.1 -0.1)">
       <use xlink:href="#DejaVuSans-53"/>
       <use x="63.623047" xlink:href="#DejaVuSans-48"/>
       <use x="127.246094" xlink:href="#DejaVuSans-48"/>
      </g>
     </g>
    </g>
    <g id="ytick_8">
     <g id="line2d_16">
      <g>
       <use style="stroke:#000000;stroke-width:0.8;" x="108" xlink:href="#m62b05413a7" y="89.485001"/>
      </g>
     </g>
     <g id="text_17">
      <!-- 1000 -->
      <g transform="translate(75.55 93.28422)scale(0.1 -0.1)">
       <use xlink:href="#DejaVuSans-49"/>
       <use x="63.623047" xlink:href="#DejaVuSans-48"/>
       <use x="127.246094" xlink:href="#DejaVuSans-48"/>
       <use x="190.869141" xlink:href="#DejaVuSans-48"/>
      </g>
     </g>
    </g>
    <g id="text_18">
     <!-- Value -->
     <defs>
      <path d="M 28.609375 0 
L 0.78125 72.90625 
L 11.078125 72.90625 
L 34.1875 11.53125 
L 57.328125 72.90625 
L 67.578125 72.90625 
L 39.796875 0 
z
" id="DejaVuSans-86"/>
      <path d="M 9.421875 75.984375 
L 18.40625 75.984375 
L 18.40625 0 
L 9.421875 0 
z
" id="DejaVuSans-108"/>
      <path d="M 8.5 21.578125 
L 8.5 54.6875 
L 17.484375 54.6875 
L 17.484375 21.921875 
Q 17.484375 14.15625 20.5 10.265625 
Q 23.53125 6.390625 29.59375 6.390625 
Q 36.859375 6.390625 41.078125 11.03125 
Q 45.3125 15.671875 45.3125 23.6875 
L 45.3125 54.6875 
L 54.296875 54.6875 
L 54.296875 0 
L 45.3125 0 
L 45.3125 8.40625 
Q 42.046875 3.421875 37.71875 1 
Q 33.40625 -1.421875 27.6875 -1.421875 
Q 18.265625 -1.421875 13.375 4.4375 
Q 8.5 10.296875 8.5 21.578125 
z
M 31.109375 56 
z
" id="DejaVuSans-117"/>
     </defs>
     <g transform="translate(61.090625 232.273281)rotate(-90)scale(0.1 -0.1)">
      <use xlink:href="#DejaVuSans-86"/>
      <use x="68.298828" xlink:href="#DejaVuSans-97"/>
      <use x="129.578125" xlink:href="#DejaVuSans-108"/>
      <use x="157.361328" xlink:href="#DejaVuSans-117"/>
      <use x="220.740234" xlink:href="#DejaVuSans-101"/>
     </g>
    </g>
   </g>
   <g id="line2d_17">
    <path clip-path="url(#p203e589897)" d="M 138.436364 179.649289 
L 138.798917 137.620367 
L 139.161471 136.033072 
L 139.524024 123.038559 
L 139.886578 104.832928 
L 140.974238 152.362764 
L 142.061898 185.242923 
L 142.424452 177.369858 
L 142.787005 158.711026 
L 143.149559 146.508524 
L 143.512112 155.346056 
L 143.874666 147.95889 
L 145.687433 219.753111 
L 146.049986 222.819208 
L 146.775093 188.77377 
L 147.137647 152.15795 
L 147.862754 111.672164 
L 148.225307 102.832424 
L 148.587861 107.879875 
L 148.950414 198.413581 
L 149.312968 131.915332 
L 149.675521 136.195837 
L 150.038075 154.038787 
L 150.763182 172.588374 
L 151.125735 166.443976 
L 151.850842 134.691852 
L 152.575949 156.91149 
L 152.938502 161.934278 
L 153.301056 181.160715 
L 153.663609 188.296138 
L 154.026163 199.783588 
L 154.388716 220.535807 
L 154.75127 208.690114 
L 155.113823 203.659149 
L 156.201484 127.619379 
L 156.564037 120.62987 
L 156.926591 101.575483 
L 157.289144 109.522343 
L 157.651697 114.467963 
L 158.014251 130.733 
L 158.376804 160.495981 
L 158.739358 150.145251 
L 159.101911 169.78691 
L 159.464465 174.155364 
L 159.827018 175.534336 
L 160.189572 158.315539 
L 160.552125 160.77401 
L 160.914679 150.618573 
L 161.277232 161.411978 
L 161.639786 163.850642 
L 162.002339 190.546815 
L 162.364893 194.956371 
L 162.727446 217.277255 
L 163.089999 227.94046 
L 163.452553 130.157069 
L 163.815106 228.793478 
L 164.17766 195.711067 
L 164.540213 174.899562 
L 164.902767 141.344658 
L 165.26532 131.604633 
L 165.627874 114.200805 
L 165.990427 123.834972 
L 166.352981 129.982446 
L 167.078088 173.225413 
L 167.440641 183.13838 
L 167.803195 200.223742 
L 168.165748 200.905573 
L 168.528301 195.480896 
L 168.890855 197.376982 
L 169.253408 171.473569 
L 169.615962 188.114225 
L 169.978515 186.086848 
L 170.341069 193.461748 
L 170.703622 216.20327 
L 171.428729 241.508836 
L 171.791283 239.452707 
L 172.153836 245.877187 
L 172.51639 246.46342 
L 172.878943 228.488535 
L 173.241497 192.024897 
L 173.60405 168.359296 
L 173.966603 152.759653 
L 174.329157 151.925784 
L 174.69171 147.969366 
L 175.054264 154.58423 
L 175.416817 156.18387 
L 175.779371 191.715304 
L 176.141924 202.782281 
L 176.504478 222.852393 
L 176.867031 229.164911 
L 177.229585 230.368948 
L 177.592138 209.051282 
L 177.954692 195.722831 
L 178.317245 209.209832 
L 178.679799 216.370482 
L 179.042352 219.709826 
L 179.404906 214.89367 
L 179.767459 258.058264 
L 180.130012 272.825668 
L 180.492566 277.613914 
L 180.855119 272.206335 
L 181.217673 264.191584 
L 181.580226 246.918455 
L 181.94278 210.472833 
L 182.305333 196.63122 
L 183.03044 164.499646 
L 183.392994 162.672713 
L 184.118101 188.28268 
L 184.480654 204.472103 
L 184.843208 242.80673 
L 185.205761 231.373635 
L 185.568314 233.157216 
L 185.930868 221.278613 
L 186.293421 228.042592 
L 186.655975 215.522428 
L 187.018528 210.707363 
L 187.743635 233.58536 
L 188.106189 227.327553 
L 188.468742 259.296872 
L 188.831296 269.676369 
L 189.193849 275.766403 
L 189.556403 279.519357 
L 189.918956 268.795327 
L 191.731723 165.123968 
L 192.094277 157.737082 
L 192.45683 182.114117 
L 192.819384 187.272285 
L 193.181937 206.485982 
L 193.544491 206.578952 
L 193.907044 230.784048 
L 194.269598 224.984259 
L 194.632151 228.474663 
L 194.994705 225.008433 
L 195.357258 196.609187 
L 195.719812 210.592479 
L 196.082365 196.841808 
L 196.444919 204.011139 
L 196.807472 233.166824 
L 197.532579 258.7112 
L 197.895132 262.260897 
L 198.257686 264.052331 
L 198.620239 245.112568 
L 198.982793 246.609788 
L 199.345346 208.447401 
L 200.433007 152.620767 
L 200.79556 138.910991 
L 201.158114 164.489425 
L 201.520667 174.884916 
L 201.883221 197.50835 
L 202.245774 207.062245 
L 202.608327 226.991688 
L 202.970881 222.588952 
L 203.333434 208.314005 
L 203.695988 200.979519 
L 204.058541 181.933559 
L 204.421095 188.655551 
L 205.146202 196.090148 
L 205.508755 217.051624 
L 205.871309 223.441044 
L 206.233862 232.839703 
L 206.596416 264.356968 
L 206.958969 244.984904 
L 207.321523 251.239761 
L 207.684076 221.588119 
L 208.046629 208.927198 
L 208.409183 180.775925 
L 208.771736 140.938518 
L 209.13429 140.72112 
L 209.496843 136.663271 
L 209.859397 154.00967 
L 210.22195 162.773833 
L 210.947057 199.897852 
L 211.309611 201.461362 
L 211.672164 214.022862 
L 212.034718 181.486882 
L 212.397271 185.988886 
L 212.759825 172.067228 
L 213.122378 184.620321 
L 213.484932 172.233353 
L 213.847485 201.582508 
L 215.297699 273.608113 
L 215.660252 243.553475 
L 216.022806 248.293147 
L 216.385359 219.75879 
L 216.747913 202.64825 
L 217.47302 152.236638 
L 217.835573 142.875148 
L 218.198127 150.326183 
L 218.56068 148.475397 
L 218.923234 155.581042 
L 219.285787 195.498076 
L 219.64834 196.873784 
L 220.373447 223.518101 
L 221.098554 214.995806 
L 221.461108 205.085692 
L 221.823661 201.946155 
L 222.186215 194.22231 
L 222.548768 219.369557 
L 222.911322 222.105867 
L 223.273875 251.591969 
L 223.636429 265.264923 
L 223.998982 268.679407 
L 224.361536 264.836443 
L 224.724089 269.037404 
L 225.086642 249.498724 
L 225.449196 211.399252 
L 225.811749 187.057472 
L 226.174303 181.224855 
L 226.536856 157.855219 
L 226.89941 162.709913 
L 227.261963 174.305501 
L 227.98707 209.422169 
L 228.712177 237.394352 
L 229.074731 257.069522 
L 229.437284 236.680535 
L 229.799838 238.486976 
L 230.162391 235.298905 
L 230.524945 222.972551 
L 230.887498 222.342123 
L 231.250051 226.456705 
L 232.337712 275.125942 
L 232.700265 292.207289 
L 233.062819 302.701294 
L 234.150479 255.177008 
L 234.513033 210.137625 
L 234.875586 200.511514 
L 235.23814 187.309552 
L 235.600693 195.595718 
L 235.963247 198.829233 
L 236.3258 211.026596 
L 237.050907 257.415297 
L 237.41346 264.959703 
L 237.776014 269.923937 
L 238.501121 246.764838 
L 238.863674 247.43315 
L 239.226228 238.353611 
L 239.951335 254.267372 
L 240.676442 289.007241 
L 241.038995 315.758985 
L 241.401549 314.016136 
L 241.764102 302.459469 
L 242.126655 302.649805 
L 242.851762 269.39269 
L 243.214316 234.326238 
L 243.576869 224.036566 
L 243.939423 198.71886 
L 244.301976 220.027342 
L 244.66453 214.587686 
L 245.389637 244.094745 
L 245.75219 267.066042 
L 246.114744 274.270461 
L 246.477297 276.75286 
L 246.839851 272.609087 
L 247.202404 271.324588 
L 247.564957 248.337929 
L 247.927511 253.91247 
L 248.290064 240.761719 
L 248.652618 266.526876 
L 249.015171 279.619675 
L 249.377725 301.633221 
L 249.740278 306.063827 
L 250.102832 308.713506 
L 250.465385 322.591485 
L 250.827939 319.031789 
L 251.190492 280.95472 
L 251.553046 265.827324 
L 251.915599 234.507897 
L 252.278153 228.195064 
L 252.640706 212.593909 
L 253.00326 206.663881 
L 253.365813 208.170446 
L 254.09092 241.502851 
L 254.453473 249.086392 
L 254.816027 268.176475 
L 255.17858 271.95061 
L 255.541134 265.684717 
L 255.903687 241.03713 
L 256.266241 242.123521 
L 256.628794 256.847463 
L 256.991348 251.882668 
L 257.353901 255.095946 
L 257.716455 264.0476 
L 258.441562 300.915936 
L 259.166668 306.079663 
L 259.529222 295.890229 
L 260.616882 221.596087 
L 260.979436 206.68268 
L 261.341989 177.932194 
L 261.704543 189.478373 
L 262.42965 225.815811 
L 262.792203 225.597245 
L 263.154757 241.956722 
L 263.51731 264.462277 
L 263.879864 251.387508 
L 264.242417 244.145007 
L 264.60497 246.636968 
L 264.967524 221.799434 
L 265.330077 227.773986 
L 265.692631 237.066769 
L 266.055184 232.24262 
L 267.142845 293.658544 
L 267.505398 298.093849 
L 267.867952 296.996003 
L 268.230505 288.856592 
L 268.593059 271.266966 
L 270.043273 172.021533 
L 270.768379 198.183227 
L 271.130933 215.429239 
L 271.493486 217.257715 
L 271.85604 254.093065 
L 272.218593 248.266521 
L 272.581147 251.749056 
L 272.9437 240.625917 
L 273.668807 228.501776 
L 274.031361 223.501003 
L 274.393914 221.960951 
L 275.481575 272.721971 
L 275.844128 280.397309 
L 276.206681 297.774715 
L 276.569235 295.634877 
L 276.931788 288.820359 
L 278.019449 204.428262 
L 278.382002 195.604555 
L 278.744556 182.480209 
L 279.107109 183.701442 
L 279.469663 201.202304 
L 279.832216 208.367019 
L 280.557323 238.437194 
L 280.919877 263.975328 
L 281.28243 260.849228 
L 281.644983 260.149888 
L 282.007537 239.453779 
L 282.37009 239.927845 
L 282.732644 236.316382 
L 283.095197 233.923826 
L 283.457751 262.072375 
L 283.820304 257.754545 
L 284.182858 285.639475 
L 284.907965 294.721975 
L 285.270518 315.032948 
L 285.633072 308.275953 
L 285.995625 287.183043 
L 286.358179 248.908679 
L 286.720732 244.876195 
L 287.083286 225.820353 
L 287.808392 204.798686 
L 288.170946 205.862268 
L 289.258606 265.151343 
L 289.62116 274.537448 
L 289.983713 274.383463 
L 290.346267 261.587805 
L 290.70882 279.560278 
L 291.433927 233.52469 
L 292.159034 268.513337 
L 292.521588 267.5984 
L 292.884141 307.578551 
L 293.246694 322.727072 
L 293.609248 358.605524 
L 293.971801 361.002635 
L 294.334355 346.924076 
L 294.696908 318.784245 
L 295.059462 279.962633 
L 295.784569 228.862246 
L 296.147122 198.997237 
L 296.509676 223.206389 
L 296.872229 211.822267 
L 297.234783 233.473894 
L 297.597336 288.432412 
L 298.684996 297.698889 
L 299.04755 293.16141 
L 299.410103 295.806812 
L 299.772657 281.052649 
L 300.13521 277.323918 
L 300.497764 276.046001 
L 300.860317 295.996527 
L 301.222871 308.520782 
L 301.585424 335.308496 
L 301.947978 346.018528 
L 302.673085 356.681751 
L 303.035638 343.626395 
L 303.398192 337.644767 
L 303.760745 289.387297 
L 304.485852 237.684148 
L 304.848405 234.914157 
L 305.210959 213.944642 
L 305.573512 229.704654 
L 306.298619 275.411288 
L 307.023726 313.992149 
L 307.38628 302.973305 
L 307.748833 301.574572 
L 308.111387 283.126697 
L 308.47394 298.985073 
L 308.836494 281.029121 
L 309.199047 279.805643 
L 309.561601 282.521263 
L 310.286707 321.252146 
L 310.649261 365.303012 
L 311.374368 369.36 
L 312.099475 317.539326 
L 312.462028 276.065209 
L 312.824582 260.207515 
L 313.187135 230.994964 
L 313.549689 219.713998 
L 313.912242 222.85512 
L 314.274796 217.978387 
L 314.637349 249.310949 
L 314.999903 257.385078 
L 315.362456 293.12773 
L 315.725009 294.510857 
L 316.087563 302.671723 
L 316.450116 278.029973 
L 316.81267 274.331517 
L 317.175223 264.97662 
L 317.537777 240.054345 
L 317.90033 274.84809 
L 318.262884 266.045462 
L 319.350544 333.14457 
L 319.713098 338.701491 
L 320.075651 358.48845 
L 320.800758 291.965617 
L 321.163311 266.358397 
L 321.888418 204.169993 
L 322.250972 184.022788 
L 322.613525 185.031394 
L 322.976079 189.455596 
L 323.701186 254.220898 
L 324.063739 263.002727 
L 324.426293 260.333783 
L 324.788846 274.387397 
L 325.1514 257.628628 
L 325.513953 258.243429 
L 325.876507 236.998399 
L 326.23906 235.596662 
L 326.601614 233.564743 
L 326.964167 244.962212 
L 327.32672 269.627505 
L 328.414381 315.939539 
L 328.776934 318.426258 
L 329.139488 299.730147 
L 329.864595 246.042385 
L 330.227148 226.986164 
L 330.589702 176.934632 
L 330.952255 185.810258 
L 331.314809 172.648089 
L 331.677362 172.829254 
L 332.039916 76.541179 
L 332.402469 221.729908 
L 333.127576 238.826834 
L 333.490129 244.006687 
L 333.852683 227.678328 
L 334.215236 238.509763 
L 334.57779 222.24135 
L 334.940343 217.201477 
L 335.302897 228.423809 
L 335.66545 222.29345 
L 336.028004 263.282511 
L 336.390557 268.051485 
L 336.753111 301.631346 
L 337.115664 292.50351 
L 337.478218 301.730297 
L 337.840771 277.430117 
L 338.203324 270.518052 
L 338.928431 180.883603 
L 339.290985 180.417758 
L 339.653538 163.656163 
L 340.016092 161.985218 
L 340.378645 181.936 
L 340.741199 171.524042 
L 341.103752 213.610579 
L 341.466306 238.651946 
L 341.828859 241.824816 
L 342.191413 252.94429 
L 342.553966 248.291767 
L 342.91652 221.733085 
L 343.279073 223.874712 
L 343.641627 215.113962 
L 344.00418 215.486892 
L 344.366733 245.269019 
L 344.729287 253.816995 
L 345.09184 266.528164 
L 345.816947 317.320723 
L 346.179501 321.137836 
L 346.904608 269.946483 
L 347.267161 245.224889 
L 347.629715 200.195713 
L 347.992268 200.394797 
L 348.717375 162.52241 
L 349.805035 241.169754 
L 350.167589 265.988569 
L 350.530142 265.238866 
L 350.892696 271.443119 
L 351.617803 265.518643 
L 351.980356 242.742909 
L 352.34291 242.286021 
L 352.705463 248.141312 
L 353.068017 251.745789 
L 353.43057 260.902261 
L 353.793124 307.836495 
L 354.155677 320.190458 
L 354.518231 338.264323 
L 354.880784 338.52415 
L 355.605891 316.994501 
L 355.968444 286.619148 
L 356.330998 240.719119 
L 356.693551 223.641508 
L 357.056105 192.389581 
L 357.418658 197.184518 
L 358.143765 250.187676 
L 358.506319 248.099821 
L 358.868872 251.728836 
L 359.231426 282.37574 
L 359.593979 289.217147 
L 359.956533 278.724489 
L 360.319086 271.920204 
L 360.68164 258.146143 
L 361.044193 251.623003 
L 361.406746 272.339863 
L 361.7693 271.454876 
L 362.494407 324.99223 
L 363.219514 346.66827 
L 363.582067 348.835879 
L 363.944621 331.154215 
L 364.307174 297.253619 
L 364.669728 277.772109 
L 365.032281 238.635588 
L 365.394835 223.518476 
L 365.757388 228.867524 
L 366.119942 204.124823 
L 366.482495 205.005772 
L 366.845048 224.518622 
L 367.207602 260.082587 
L 367.570155 284.624309 
L 367.932709 295.430267 
L 368.657816 279.164088 
L 369.020369 286.446895 
L 369.382923 267.894355 
L 369.745476 273.803048 
L 370.10803 245.206663 
L 370.833137 300.615754 
L 371.19569 301.050787 
L 371.558244 331.613339 
L 371.920797 342.514743 
L 372.28335 334.894491 
L 373.008457 297.194168 
L 373.371011 270.554338 
L 373.733564 254.548265 
L 374.458671 198.359579 
L 375.183778 225.063697 
L 375.546332 219.830621 
L 375.908885 253.249879 
L 376.271439 251.863034 
L 376.633992 284.759883 
L 376.996546 287.273485 
L 377.721652 264.492359 
L 378.084206 244.365365 
L 378.446759 235.106478 
L 378.809313 237.15748 
L 379.171866 256.047538 
L 379.53442 284.591679 
L 379.896973 288.304419 
L 380.259527 316.110573 
L 380.62208 313.384924 
L 380.984634 325.095383 
L 381.347187 307.757183 
L 382.072294 243.769131 
L 382.434848 230.924653 
L 382.797401 199.051723 
L 383.522508 173.189865 
L 383.885061 199.459552 
L 384.247615 187.047077 
L 384.972722 249.332542 
L 385.335275 263.433786 
L 385.697829 244.722239 
L 386.060382 232.518946 
L 386.422936 248.815722 
L 386.785489 213.393903 
L 387.148043 221.507197 
L 387.510596 221.510778 
L 387.87315 235.478353 
L 388.598257 275.025684 
L 388.96081 278.669195 
L 389.323363 280.074434 
L 389.685917 293.08645 
L 390.04847 287.478431 
L 390.411024 264.240915 
L 390.773577 226.173775 
L 391.136131 203.359403 
L 391.498684 166.565487 
L 391.861238 147.357469 
L 392.586345 179.518951 
L 392.948898 167.157612 
L 393.674005 225.524726 
L 394.036559 234.473153 
L 394.399112 238.629617 
L 395.124219 208.096004 
L 395.486772 214.230801 
L 395.849326 210.218298 
L 396.211879 200.3506 
L 396.574433 206.906163 
L 398.024647 294.033794 
L 398.749754 278.524946 
L 399.837414 198.460353 
L 400.199968 160.642746 
L 400.562521 144.312156 
L 400.925074 147.344188 
L 401.650181 185.890908 
L 402.012735 199.721486 
L 402.375288 226.984355 
L 402.737842 219.894165 
L 403.100395 235.748189 
L 403.462949 229.506984 
L 403.825502 215.316038 
L 404.550609 209.437589 
L 405.275716 229.083546 
L 405.63827 254.918037 
L 406.363376 275.223411 
L 406.72593 290.118308 
L 407.088483 288.168138 
L 407.451037 292.692125 
L 408.538697 196.730343 
L 408.901251 168.07068 
L 409.626358 155.20656 
L 409.988911 175.641723 
L 410.351465 189.174186 
L 410.714018 229.205567 
L 411.076572 232.353084 
L 411.439125 246.973042 
L 411.801678 256.633995 
L 412.164232 241.674822 
L 412.526785 241.304379 
L 412.889339 222.258561 
L 413.614446 249.886911 
L 413.976999 229.866111 
L 414.339553 271.516742 
L 414.702106 287.322857 
L 415.06466 314.407738 
L 415.427213 319.768081 
L 415.789767 312.805694 
L 416.15232 294.311529 
L 416.514874 285.275809 
L 416.877427 255.788368 
L 417.239981 209.993744 
L 417.602534 181.251992 
L 417.965087 189.347365 
L 418.690194 182.18321 
L 419.415301 245.426572 
L 419.777855 265.251965 
L 420.140408 272.927489 
L 420.502962 262.03715 
L 420.865515 262.30322 
L 421.228069 266.709573 
L 421.590622 253.394157 
L 421.953176 254.052007 
L 422.315729 264.09987 
L 422.678283 261.313166 
L 423.040836 275.522174 
L 423.403389 294.894598 
L 423.765943 324.765525 
L 424.128496 335.784334 
L 424.49105 316.809511 
L 424.853603 324.900304 
L 425.941264 219.044119 
L 426.303817 214.625996 
L 426.666371 214.165822 
L 427.028924 190.50442 
L 427.391478 206.607068 
L 427.754031 233.506722 
L 429.204245 282.154739 
L 429.566798 273.648268 
L 429.929352 268.002099 
L 430.291905 244.876755 
L 430.654459 252.301616 
L 431.017012 241.905045 
L 431.742119 275.558776 
L 432.104673 307.297677 
L 432.467226 321.422344 
L 432.82978 319.563537 
L 433.192333 333.867431 
L 433.91744 286.771811 
L 434.279994 245.029807 
L 435.0051 200.503788 
L 435.367654 172.059553 
L 435.730207 190.070745 
L 436.092761 189.892483 
L 436.455314 197.42003 
L 437.180421 254.136897 
L 437.542975 267.484315 
L 437.905528 256.805238 
L 438.268082 261.270445 
L 438.630635 248.179317 
L 438.993189 248.802772 
L 439.355742 235.782067 
L 439.718296 231.13334 
L 440.443402 257.003224 
L 440.805956 285.70663 
L 441.168509 295.02415 
L 441.531063 312.116632 
L 441.893616 303.551617 
L 442.618723 274.378844 
L 443.706384 180.266988 
L 444.068937 145.207273 
L 444.431491 160.037195 
L 444.794044 183.551328 
L 446.244258 237.016063 
L 446.606811 235.756745 
L 446.969365 237.573205 
L 447.331918 220.104854 
L 447.694472 209.188663 
L 448.057025 207.825456 
L 448.419579 218.766976 
L 448.782132 211.14827 
L 449.144686 222.595535 
L 449.507239 254.57988 
L 450.232346 296.509584 
L 450.957453 262.620365 
L 451.68256 211.952808 
L 452.045113 174.922133 
L 452.407667 169.908749 
L 452.77022 139.210092 
L 453.132774 149.653902 
L 453.495327 144.630953 
L 453.857881 183.564273 
L 454.220434 192.133812 
L 454.582988 213.299808 
L 454.945541 221.734172 
L 455.308095 236.835227 
L 455.670648 215.568678 
L 456.033202 209.553567 
L 456.395755 201.463927 
L 456.758309 188.339849 
L 457.120862 192.994148 
L 457.483415 201.508805 
L 458.208522 250.737408 
L 458.571076 249.948221 
L 458.933629 282.742738 
L 459.296183 263.787233 
L 459.658736 256.817201 
L 460.02129 240.167505 
L 460.383843 197.274478 
L 460.746397 174.622338 
L 461.471504 118.423353 
L 461.834057 148.358676 
L 462.196611 143.737403 
L 462.559164 160.130753 
L 462.921717 194.407514 
L 464.009378 232.199088 
L 464.371931 224.467638 
L 464.734485 221.254422 
L 465.097038 197.04719 
L 465.459592 190.134765 
L 465.822145 188.220865 
L 466.547252 236.613491 
L 467.272359 270.215199 
L 467.997466 293.355323 
L 468.360019 261.502726 
L 468.722573 261.092378 
L 469.085126 216.988909 
L 469.44768 199.07292 
L 470.172787 142.794348 
L 470.53534 151.651612 
L 470.897894 145.142285 
L 471.260447 182.710848 
L 471.985554 217.574608 
L 472.348108 232.360801 
L 472.710661 241.629379 
L 473.073215 247.756323 
L 473.435768 229.863862 
L 473.798322 228.867915 
L 474.160875 225.706624 
L 474.523428 214.389164 
L 475.248535 250.773735 
L 475.611089 293.527858 
L 475.973642 290.127393 
L 476.336196 302.740919 
L 476.698749 310.820706 
L 477.061303 304.569299 
L 477.423856 285.682423 
L 478.148963 211.334681 
L 478.511517 189.027574 
L 478.87407 192.936433 
L 479.236624 167.665709 
L 479.599177 164.632001 
L 480.324284 226.462846 
L 480.686837 252.451869 
L 481.049391 253.909791 
L 481.411944 265.449513 
L 481.774498 250.561753 
L 482.137051 261.145696 
L 482.499605 232.860674 
L 482.862158 248.774341 
L 483.224712 232.269233 
L 483.949819 263.440614 
L 484.312372 312.268961 
L 484.674926 306.954139 
L 485.037479 324.946374 
L 485.400032 325.620766 
L 485.762586 314.502908 
L 486.125139 288.881818 
L 486.487693 243.553786 
L 486.850246 214.645825 
L 487.2128 195.999941 
L 487.575353 163.138295 
L 487.937907 196.991867 
L 488.30046 205.38931 
L 488.663014 199.124341 
L 489.025567 246.325642 
L 489.388121 239.834432 
L 489.750674 259.684478 
L 490.475781 266.358659 
L 490.838335 250.349929 
L 491.563441 238.094141 
L 491.925995 238.849891 
L 492.288548 231.130111 
L 492.651102 275.27041 
L 493.738762 313.411999 
L 494.101316 298.508741 
L 494.463869 306.938704 
L 494.826423 285.737073 
L 495.188976 250.628679 
L 495.55153 337.463429 
L 495.914083 190.50954 
L 496.276637 173.047635 
L 496.63919 168.332841 
L 497.001743 178.223469 
L 497.364297 215.77853 
L 497.72685 221.082223 
L 498.089404 246.673838 
L 498.451957 249.996789 
L 498.814511 232.737486 
L 499.177064 233.131537 
L 499.539618 228.801892 
L 499.902171 222.841806 
L 500.264725 236.800552 
L 500.627278 214.409275 
L 500.989832 228.195046 
L 501.352385 259.625443 
L 502.077492 299.426067 
L 502.440045 305.405841 
L 502.802599 305.880492 
L 503.527706 242.521963 
L 503.890259 219.891888 
L 504.97792 138.942477 
L 505.340473 150.312365 
L 505.703027 157.88513 
L 506.06558 169.751083 
L 506.790687 216.800446 
L 507.153241 218.614775 
L 507.515794 231.739975 
L 507.878348 233.003598 
L 508.603454 197.17487 
L 508.966008 213.592893 
L 509.328561 189.446523 
L 509.691115 209.236646 
L 510.053668 205.784178 
L 510.416222 240.149152 
L 510.778775 250.757694 
L 511.141329 269.8408 
L 511.866436 251.595835 
L 512.591543 185.371433 
L 513.679203 126.859854 
L 514.40431 151.226956 
L 514.766863 154.070137 
L 515.129417 187.016323 
L 515.49197 193.981025 
L 515.854524 211.632773 
L 516.217077 204.362821 
L 516.579631 199.582631 
L 516.942184 206.986904 
L 517.304738 178.064509 
L 517.667291 182.443595 
L 518.029845 173.014336 
L 519.842612 269.518818 
L 520.205165 256.872441 
L 520.567719 252.73494 
L 520.930272 236.108252 
L 521.292826 192.248858 
L 521.655379 166.283236 
L 522.017933 126.677089 
L 522.380486 125.30472 
L 522.74304 119.486861 
L 524.193254 189.965664 
L 524.555807 194.329122 
L 524.91836 205.019297 
L 525.280914 205.462151 
L 525.643467 178.848889 
L 526.006021 182.921256 
L 526.368574 66.96 
L 526.731128 182.228587 
L 527.456235 218.223973 
L 527.818788 254.219323 
L 528.181342 250.505606 
L 528.543895 274.216306 
L 528.906449 264.833611 
L 529.269002 265.948249 
L 529.631556 237.195021 
L 530.356663 160.623206 
L 530.719216 156.980593 
L 531.081769 138.712115 
L 531.444323 133.844548 
L 531.806876 139.739329 
L 532.16943 179.27051 
L 532.531983 187.083337 
L 533.25709 221.756658 
L 533.619644 227.723196 
L 533.982197 214.362074 
L 534.344751 215.593724 
L 535.069858 202.995215 
L 535.432411 203.447981 
L 535.794965 225.073594 
L 536.520071 254.524941 
L 536.882625 281.645147 
L 537.245178 279.93352 
L 537.607732 313.341323 
L 537.970285 271.478242 
L 538.695392 227.707989 
L 539.783053 160.620493 
L 540.145606 156.211351 
L 540.50816 167.391236 
L 541.233267 221.540889 
L 541.59582 240.402383 
L 542.320927 247.263587 
L 542.68348 261.517903 
L 543.046034 221.208964 
L 543.408587 220.708969 
L 543.771141 226.303002 
L 544.133694 218.351481 
L 545.221355 282.990285 
L 545.583908 300.659203 
L 545.946462 303.673917 
L 546.309015 315.07042 
L 547.396676 250.147235 
L 548.121782 185.644567 
L 548.484336 172.139389 
L 548.846889 170.374145 
L 549.209443 178.900926 
L 549.93455 210.75203 
L 550.297103 247.660415 
L 550.659657 251.371658 
L 551.02221 261.445649 
L 551.384764 242.963711 
L 551.747317 238.695586 
L 552.109871 232.288095 
L 552.472424 211.056699 
L 552.834978 227.286054 
L 553.197531 231.758429 
L 553.560084 252.550606 
L 553.922638 280.982111 
L 554.285191 281.600472 
L 554.647745 303.044153 
L 555.010298 289.918963 
L 555.372852 288.206134 
L 555.735405 259.472985 
L 556.097959 219.969933 
L 556.460512 212.290958 
L 557.185619 163.152115 
L 557.548173 168.788699 
L 557.910726 161.610244 
L 558.27328 198.491333 
L 558.998386 223.788434 
L 559.36094 227.541772 
L 559.723493 233.679561 
L 560.086047 220.972389 
L 560.4486 226.080621 
L 560.811154 203.635232 
L 561.173707 188.243082 
L 561.536261 195.198537 
L 561.898814 213.493299 
L 562.261368 253.534048 
L 562.986475 287.534785 
L 563.349028 285.525752 
L 563.711582 293.987758 
L 564.074135 261.370933 
L 564.436689 251.826935 
L 564.799242 220.668954 
L 565.161795 166.831282 
L 565.524349 160.84419 
L 565.886902 160.546035 
L 566.249456 139.252476 
L 566.612009 132.673076 
L 566.974563 168.771996 
L 567.69967 189.710967 
L 568.062223 208.987103 
L 568.424777 211.47143 
L 568.78733 206.463433 
L 569.149884 199.461124 
L 569.512437 202.188953 
L 569.874991 182.998037 
L 570.600097 187.329348 
L 570.962651 212.789618 
L 571.325204 223.895243 
L 571.687758 252.586667 
L 572.050311 254.620885 
L 572.412865 245.37308 
L 572.775418 244.677109 
L 573.137972 203.034176 
L 573.500525 179.293682 
L 573.863079 141.627305 
L 574.588186 108.42237 
L 574.950739 136.78967 
L 575.313293 108.818535 
L 575.675846 157.892949 
L 576.038399 168.383959 
L 576.400953 192.372813 
L 576.763506 187.836132 
L 577.12606 189.347345 
L 577.488613 196.710554 
L 577.851167 178.726736 
L 578.21372 168.894434 
L 578.576274 167.862394 
L 578.938827 147.625012 
L 579.301381 169.305592 
L 579.663934 88.11759 
L 580.026488 211.124896 
L 580.751595 242.916218 
L 581.114148 256.413558 
L 581.476701 239.041667 
L 582.201808 160.43736 
L 582.564362 141.977058 
L 582.926915 132.065257 
L 583.289469 88.325531 
L 583.652022 103.394167 
L 584.014576 135.872724 
L 584.377129 138.952044 
L 584.739683 149.554986 
L 585.102236 184.031881 
L 585.46479 187.759061 
L 585.827343 208.574542 
L 586.189897 189.470988 
L 586.55245 176.463759 
L 586.915004 177.686299 
L 587.277557 165.770461 
L 587.64011 167.555502 
L 588.365217 206.505476 
L 588.727771 212.160315 
L 589.090324 247.932408 
L 589.452878 261.903586 
L 590.177985 246.5645 
L 591.265645 153.857639 
L 591.628199 141.645087 
L 592.353306 128.100298 
L 592.715859 126.029089 
L 593.078412 154.634053 
L 593.440966 166.442952 
L 593.803519 206.081148 
L 594.166073 219.794927 
L 594.528626 223.175432 
L 594.89118 210.073713 
L 595.253733 205.011535 
L 595.616287 188.148655 
L 595.97884 185.243644 
L 596.341394 185.166568 
L 596.703947 207.493841 
L 597.066501 213.934108 
L 597.429054 253.696848 
L 597.791608 275.068597 
L 598.154161 272.04071 
L 598.516714 295.869627 
L 599.604375 210.38026 
L 599.966928 194.258087 
L 600.329482 142.224494 
L 600.692035 150.112762 
L 601.054589 135.88989 
L 601.417142 165.110201 
L 601.779696 184.543105 
L 602.142249 189.294206 
L 602.504803 224.596284 
L 602.867356 236.101258 
L 603.22991 232.187923 
L 603.592463 231.623956 
L 603.955017 210.215924 
L 604.31757 224.846364 
L 604.680123 207.58155 
L 605.042677 202.966889 
L 605.40523 219.292601 
L 605.767784 210.830893 
L 606.130337 270.582541 
L 606.492891 282.786643 
L 606.855444 277.72867 
L 607.217998 283.685699 
L 607.580551 273.09034 
L 607.943105 259.008546 
L 608.305658 222.411425 
L 608.668212 211.610895 
L 609.030765 166.067034 
L 609.393319 157.022918 
L 609.755872 160.51785 
L 610.118425 166.478392 
L 610.480979 179.773149 
L 610.843532 205.442493 
L 611.931193 240.720545 
L 612.293746 240.147769 
L 613.381407 202.824466 
L 613.74396 203.885177 
L 614.106514 240.978181 
L 614.469067 238.141658 
L 615.194174 290.209776 
L 615.556727 285.802766 
L 615.919281 307.544031 
L 616.281834 291.741884 
L 617.006941 210.954834 
L 617.369495 194.44259 
L 617.732048 153.304722 
L 618.094602 138.944638 
L 618.457155 153.448014 
L 618.819709 151.751782 
L 619.182262 167.297222 
L 619.544816 176.827224 
L 619.907369 205.10024 
L 620.269923 211.118078 
L 620.632476 238.069155 
L 620.99503 216.027388 
L 621.357583 201.643727 
L 621.720136 200.683741 
L 622.08269 190.598308 
L 622.445243 187.317503 
L 623.17035 243.571201 
L 623.532904 232.156976 
L 623.895457 255.474436 
L 624.620564 279.346537 
L 624.983118 257.313692 
L 625.345671 219.359317 
L 625.708225 207.948622 
L 626.070778 147.505725 
L 626.433332 149.591944 
L 626.795885 112.311087 
L 627.158438 131.218839 
L 627.520992 130.350087 
L 627.883545 150.06241 
L 628.246099 175.867525 
L 628.608652 183.170941 
L 628.971206 205.606168 
L 629.333759 194.454944 
L 629.696313 199.053898 
L 630.42142 152.014755 
L 630.783973 168.532011 
L 631.146527 274.796024 
L 631.50908 163.220487 
L 631.871634 210.968821 
L 632.234187 214.222906 
L 633.321847 251.580978 
L 634.046954 212.391755 
L 634.772061 140.838097 
L 635.134615 114.404432 
L 635.859722 96.351953 
L 636.222275 93.741377 
L 636.947382 150.142292 
L 637.309936 188.605931 
L 637.672489 68.136495 
L 638.035043 187.30542 
L 638.397596 179.5123 
L 638.760149 158.217978 
L 639.122703 165.71393 
L 639.485256 152.456355 
L 639.84781 156.289807 
L 640.210363 145.839994 
L 640.572917 180.301635 
L 640.93547 185.499626 
L 641.298024 221.742548 
L 641.660577 238.397477 
L 642.023131 224.114953 
L 642.385684 224.3534 
L 643.473345 137.303013 
L 643.835898 118.85226 
L 644.561005 95.990911 
L 645.286112 129.484326 
L 645.648665 150.947456 
L 646.011219 162.640264 
L 646.373772 196.907531 
L 646.736326 185.698819 
L 647.098879 167.393479 
L 647.461433 175.25994 
L 647.823986 150.498798 
L 648.18654 157.835789 
L 648.549093 170.012385 
L 648.911647 157.219992 
L 649.636753 211.681898 
L 650.36186 245.888816 
L 650.724414 242.372971 
L 651.812074 177.847212 
L 652.174628 137.680081 
L 652.537181 133.314712 
L 652.899735 117.530103 
L 653.262288 107.576005 
L 653.624842 135.379397 
L 653.987395 138.186866 
L 654.349949 175.104777 
L 654.712502 191.591047 
L 655.075055 198.665063 
L 655.437609 197.019738 
L 655.800162 203.154666 
L 656.525269 164.694146 
L 656.887823 176.606386 
L 657.250376 176.193844 
L 657.61293 185.021074 
L 657.975483 222.119402 
L 658.338037 225.197363 
L 658.70059 248.871466 
L 659.063144 258.57667 
L 659.425697 272.215595 
L 659.788251 244.200905 
L 660.150804 231.249065 
L 660.875911 171.674201 
L 661.238464 143.110452 
L 661.601018 132.977232 
L 662.326125 150.08815 
L 663.051232 188.465361 
L 663.413785 211.590115 
L 663.776339 213.146773 
L 664.138892 221.607176 
L 664.501446 226.476456 
L 665.226553 183.34698 
L 665.589106 185.950904 
L 665.95166 194.216962 
L 666.314213 225.626372 
L 666.676766 239.724488 
L 667.401873 278.513871 
L 667.764427 289.094461 
L 668.489534 272.763493 
L 668.852087 239.855508 
L 669.214641 220.390411 
L 669.939748 159.624657 
L 670.302301 138.236523 
L 670.664855 140.676287 
L 671.027408 171.699149 
L 671.389962 163.971217 
L 671.752515 204.493601 
L 672.115068 212.70522 
L 672.477622 225.242328 
L 672.840175 248.941773 
L 673.202729 220.290774 
L 673.565282 221.373676 
L 674.290389 190.06599 
L 674.652943 207.542534 
L 675.015496 208.565923 
L 675.37805 220.033791 
L 676.46571 294.440756 
L 676.828264 266.613433 
L 677.190817 270.537567 
L 677.553371 222.365799 
L 678.641031 134.727733 
L 679.003584 135.002528 
L 679.366138 142.78577 
L 679.728691 146.984018 
L 680.091245 154.192478 
L 680.453798 191.742531 
L 680.816352 197.624795 
L 681.541459 222.486348 
L 681.904012 213.414603 
L 682.629119 168.600338 
L 682.991673 153.871953 
L 683.354226 184.70684 
L 683.716779 202.552447 
L 684.079333 194.577167 
L 685.166993 274.235218 
L 685.8921 243.028311 
L 686.979761 147.426346 
L 687.342314 144.224491 
L 687.704868 91.356754 
L 688.067421 106.122281 
L 688.429975 111.331293 
L 689.517635 187.580472 
L 689.880188 178.468502 
L 690.605295 192.066254 
L 690.967849 168.206637 
L 691.330402 160.532694 
L 691.692956 141.190105 
L 692.055509 149.889443 
L 692.780616 187.975016 
L 693.14317 197.583551 
L 693.505723 244.473532 
L 693.868277 229.189227 
L 694.23083 223.690193 
L 694.593384 205.761948 
L 694.955937 181.430252 
L 695.31849 172.965075 
L 696.043597 87.408087 
L 696.406151 91.286782 
L 696.768704 89.27814 
L 697.131258 84.085903 
L 697.493811 118.227192 
L 698.218918 154.081724 
L 698.581472 164.410814 
L 698.944025 159.398031 
L 699.306579 160.39359 
L 700.031686 145.380381 
L 700.394239 132.328516 
L 700.756792 139.788307 
L 701.119346 144.676362 
L 701.481899 162.235514 
L 702.207006 213.597429 
L 702.56956 223.442089 
L 702.932113 224.969235 
L 703.294667 209.037286 
L 704.019774 154.809102 
L 704.382327 108.865793 
L 704.744881 86.713408 
L 705.469988 69.975355 
L 705.832541 99.766189 
L 706.195094 110.59577 
L 706.557648 126.509612 
L 706.920201 158.139831 
L 707.282755 164.718473 
L 707.645308 166.939463 
L 708.007862 175.842046 
L 708.370415 155.647081 
L 708.732969 154.452633 
L 709.095522 132.310309 
L 709.458076 118.798811 
L 710.545736 210.429059 
L 710.90829 205.336292 
L 711.270843 229.390238 
L 711.633397 231.603674 
L 711.99595 215.540843 
L 712.358503 190.090429 
L 712.721057 173.456893 
L 713.08361 141.894934 
L 713.446164 92.1053 
L 713.808717 100.082177 
L 714.171271 92.302988 
L 714.533824 99.97374 
L 715.258931 156.032752 
L 715.621485 166.186139 
L 716.346592 197.569825 
L 716.709145 195.647101 
L 717.071699 174.051409 
L 717.434252 171.141607 
L 717.796805 154.913713 
L 718.159359 160.163508 
L 719.247019 220.129299 
L 719.609573 249.085854 
L 719.972126 257.529434 
L 720.33468 253.556623 
L 720.697233 257.053629 
L 722.147447 125.720673 
L 722.510001 105.772773 
L 723.235107 137.741882 
L 723.597661 169.966139 
L 723.960214 166.21946 
L 724.685321 224.111221 
L 725.047875 187.36727 
L 725.410428 81.981992 
L 725.772982 195.14283 
L 726.135535 181.04562 
L 726.498089 172.755562 
L 727.223196 194.707627 
L 727.585749 215.916022 
L 727.948303 243.801774 
L 728.310856 242.878695 
L 728.673409 268.992648 
L 729.398516 251.590203 
L 729.76107 238.479147 
L 730.486177 170.352844 
L 730.84873 134.729648 
L 731.211284 133.60981 
L 731.573837 115.500647 
L 731.936391 127.846306 
L 732.298944 160.792691 
L 732.661498 169.257085 
L 733.024051 194.863678 
L 733.386605 209.746841 
L 733.749158 218.691991 
L 734.111712 215.464273 
L 734.474265 207.716672 
L 734.836818 205.164627 
L 735.199372 186.795068 
L 735.561925 180.475276 
L 736.649586 231.598147 
L 737.012139 260.906046 
L 737.374693 258.636571 
L 737.737246 259.029275 
L 738.0998 232.679356 
L 738.462353 223.361364 
L 738.824907 205.971294 
L 739.550014 143.936746 
L 739.912567 122.409556 
L 740.27512 129.428527 
L 740.637674 148.831396 
L 741.000227 141.080652 
L 741.362781 177.608858 
L 741.725334 182.700894 
L 742.087888 210.993881 
L 742.450441 181.71867 
L 742.812995 197.311876 
L 743.175548 191.85629 
L 743.538102 153.805586 
L 744.263209 163.444061 
L 744.988316 190.380187 
L 745.350869 199.501985 
L 745.713422 239.171561 
L 746.075976 234.044415 
L 746.438529 236.003342 
L 746.801083 224.720975 
L 747.163636 190.775373 
L 747.163636 190.775373 
" style="fill:none;stroke:#1f77b4;stroke-linecap:square;stroke-width:1.5;"/>
   </g>
   <g id="line2d_18">
    <path clip-path="url(#p203e589897)" d="M 745.713422 384.48 
L 745.713422 51.84 
" style="fill:none;stroke:#808080;stroke-linecap:square;"/>
   </g>
   <g id="patch_54">
    <path d="M 108 384.48 
L 108 51.84 
" style="fill:none;stroke:#000000;stroke-linecap:square;stroke-linejoin:miter;stroke-width:0.8;"/>
   </g>
   <g id="patch_55">
    <path d="M 777.6 384.48 
L 777.6 51.84 
" style="fill:none;stroke:#000000;stroke-linecap:square;stroke-linejoin:miter;stroke-width:0.8;"/>
   </g>
   <g id="patch_56">
    <path d="M 108 384.48 
L 777.6 384.48 
" style="fill:none;stroke:#000000;stroke-linecap:square;stroke-linejoin:miter;stroke-width:0.8;"/>
   </g>
   <g id="patch_57">
    <path d="M 108 51.84 
L 777.6 51.84 
" style="fill:none;stroke:#000000;stroke-linecap:square;stroke-linejoin:miter;stroke-width:0.8;"/>
   </g>
   <g id="text_19">
    <!-- A4Benchmark-TS89.csv -->
    <defs>
     <path d="M 34.1875 63.1875 
L 20.796875 26.90625 
L 47.609375 26.90625 
z
M 28.609375 72.90625 
L 39.796875 72.90625 
L 67.578125 0 
L 57.328125 0 
L 50.6875 18.703125 
L 17.828125 18.703125 
L 11.1875 0 
L 0.78125 0 
z
" id="DejaVuSans-65"/>
     <path d="M 37.796875 64.3125 
L 12.890625 25.390625 
L 37.796875 25.390625 
z
M 35.203125 72.90625 
L 47.609375 72.90625 
L 47.609375 25.390625 
L 58.015625 25.390625 
L 58.015625 17.1875 
L 47.609375 17.1875 
L 47.609375 0 
L 37.796875 0 
L 37.796875 17.1875 
L 4.890625 17.1875 
L 4.890625 26.703125 
z
" id="DejaVuSans-52"/>
     <path d="M 19.671875 34.8125 
L 19.671875 8.109375 
L 35.5 8.109375 
Q 43.453125 8.109375 47.28125 11.40625 
Q 51.125 14.703125 51.125 21.484375 
Q 51.125 28.328125 47.28125 31.5625 
Q 43.453125 34.8125 35.5 34.8125 
z
M 19.671875 64.796875 
L 19.671875 42.828125 
L 34.28125 42.828125 
Q 41.5 42.828125 45.03125 45.53125 
Q 48.578125 48.25 48.578125 53.8125 
Q 48.578125 59.328125 45.03125 62.0625 
Q 41.5 64.796875 34.28125 64.796875 
z
M 9.8125 72.90625 
L 35.015625 72.90625 
Q 46.296875 72.90625 52.390625 68.21875 
Q 58.5 63.53125 58.5 54.890625 
Q 58.5 48.1875 55.375 44.234375 
Q 52.25 40.28125 46.1875 39.3125 
Q 53.46875 37.75 57.5 32.78125 
Q 61.53125 27.828125 61.53125 20.40625 
Q 61.53125 10.640625 54.890625 5.3125 
Q 48.25 0 35.984375 0 
L 9.8125 0 
z
" id="DejaVuSans-66"/>
     <path d="M 54.890625 33.015625 
L 54.890625 0 
L 45.90625 0 
L 45.90625 32.71875 
Q 45.90625 40.484375 42.875 44.328125 
Q 39.84375 48.1875 33.796875 48.1875 
Q 26.515625 48.1875 22.3125 43.546875 
Q 18.109375 38.921875 18.109375 30.90625 
L 18.109375 0 
L 9.078125 0 
L 9.078125 54.6875 
L 18.109375 54.6875 
L 18.109375 46.1875 
Q 21.34375 51.125 25.703125 53.5625 
Q 30.078125 56 35.796875 56 
Q 45.21875 56 50.046875 50.171875 
Q 54.890625 44.34375 54.890625 33.015625 
z
" id="DejaVuSans-110"/>
     <path d="M 48.78125 52.59375 
L 48.78125 44.1875 
Q 44.96875 46.296875 41.140625 47.34375 
Q 37.3125 48.390625 33.40625 48.390625 
Q 24.65625 48.390625 19.8125 42.84375 
Q 14.984375 37.3125 14.984375 27.296875 
Q 14.984375 17.28125 19.8125 11.734375 
Q 24.65625 6.203125 33.40625 6.203125 
Q 37.3125 6.203125 41.140625 7.25 
Q 44.96875 8.296875 48.78125 10.40625 
L 48.78125 2.09375 
Q 45.015625 0.34375 40.984375 -0.53125 
Q 36.96875 -1.421875 32.421875 -1.421875 
Q 20.0625 -1.421875 12.78125 6.34375 
Q 5.515625 14.109375 5.515625 27.296875 
Q 5.515625 40.671875 12.859375 48.328125 
Q 20.21875 56 33.015625 56 
Q 37.15625 56 41.109375 55.140625 
Q 45.0625 54.296875 48.78125 52.59375 
z
" id="DejaVuSans-99"/>
     <path d="M 54.890625 33.015625 
L 54.890625 0 
L 45.90625 0 
L 45.90625 32.71875 
Q 45.90625 40.484375 42.875 44.328125 
Q 39.84375 48.1875 33.796875 48.1875 
Q 26.515625 48.1875 22.3125 43.546875 
Q 18.109375 38.921875 18.109375 30.90625 
L 18.109375 0 
L 9.078125 0 
L 9.078125 75.984375 
L 18.109375 75.984375 
L 18.109375 46.1875 
Q 21.34375 51.125 25.703125 53.5625 
Q 30.078125 56 35.796875 56 
Q 45.21875 56 50.046875 50.171875 
Q 54.890625 44.34375 54.890625 33.015625 
z
" id="DejaVuSans-104"/>
     <path d="M 41.109375 46.296875 
Q 39.59375 47.171875 37.8125 47.578125 
Q 36.03125 48 33.890625 48 
Q 26.265625 48 22.1875 43.046875 
Q 18.109375 38.09375 18.109375 28.8125 
L 18.109375 0 
L 9.078125 0 
L 9.078125 54.6875 
L 18.109375 54.6875 
L 18.109375 46.1875 
Q 20.953125 51.171875 25.484375 53.578125 
Q 30.03125 56 36.53125 56 
Q 37.453125 56 38.578125 55.875 
Q 39.703125 55.765625 41.0625 55.515625 
z
" id="DejaVuSans-114"/>
     <path d="M 9.078125 75.984375 
L 18.109375 75.984375 
L 18.109375 31.109375 
L 44.921875 54.6875 
L 56.390625 54.6875 
L 27.390625 29.109375 
L 57.625 0 
L 45.90625 0 
L 18.109375 26.703125 
L 18.109375 0 
L 9.078125 0 
z
" id="DejaVuSans-107"/>
     <path d="M 4.890625 31.390625 
L 31.203125 31.390625 
L 31.203125 23.390625 
L 4.890625 23.390625 
z
" id="DejaVuSans-45"/>
     <path d="M 53.515625 70.515625 
L 53.515625 60.890625 
Q 47.90625 63.578125 42.921875 64.890625 
Q 37.9375 66.21875 33.296875 66.21875 
Q 25.25 66.21875 20.875 63.09375 
Q 16.5 59.96875 16.5 54.203125 
Q 16.5 49.359375 19.40625 46.890625 
Q 22.3125 44.4375 30.421875 42.921875 
L 36.375 41.703125 
Q 47.40625 39.59375 52.65625 34.296875 
Q 57.90625 29 57.90625 20.125 
Q 57.90625 9.515625 50.796875 4.046875 
Q 43.703125 -1.421875 29.984375 -1.421875 
Q 24.8125 -1.421875 18.96875 -0.25 
Q 13.140625 0.921875 6.890625 3.21875 
L 6.890625 13.375 
Q 12.890625 10.015625 18.65625 8.296875 
Q 24.421875 6.59375 29.984375 6.59375 
Q 38.421875 6.59375 43.015625 9.90625 
Q 47.609375 13.234375 47.609375 19.390625 
Q 47.609375 24.75 44.3125 27.78125 
Q 41.015625 30.8125 33.5 32.328125 
L 27.484375 33.5 
Q 16.453125 35.6875 11.515625 40.375 
Q 6.59375 45.0625 6.59375 53.421875 
Q 6.59375 63.09375 13.40625 68.65625 
Q 20.21875 74.21875 32.171875 74.21875 
Q 37.3125 74.21875 42.625 73.28125 
Q 47.953125 72.359375 53.515625 70.515625 
z
" id="DejaVuSans-83"/>
     <path d="M 31.78125 34.625 
Q 24.75 34.625 20.71875 30.859375 
Q 16.703125 27.09375 16.703125 20.515625 
Q 16.703125 13.921875 20.71875 10.15625 
Q 24.75 6.390625 31.78125 6.390625 
Q 38.8125 6.390625 42.859375 10.171875 
Q 46.921875 13.96875 46.921875 20.515625 
Q 46.921875 27.09375 42.890625 30.859375 
Q 38.875 34.625 31.78125 34.625 
z
M 21.921875 38.8125 
Q 15.578125 40.375 12.03125 44.71875 
Q 8.5 49.078125 8.5 55.328125 
Q 8.5 64.0625 14.71875 69.140625 
Q 20.953125 74.21875 31.78125 74.21875 
Q 42.671875 74.21875 48.875 69.140625 
Q 55.078125 64.0625 55.078125 55.328125 
Q 55.078125 49.078125 51.53125 44.71875 
Q 48 40.375 41.703125 38.8125 
Q 48.828125 37.15625 52.796875 32.3125 
Q 56.78125 27.484375 56.78125 20.515625 
Q 56.78125 9.90625 50.3125 4.234375 
Q 43.84375 -1.421875 31.78125 -1.421875 
Q 19.734375 -1.421875 13.25 4.234375 
Q 6.78125 9.90625 6.78125 20.515625 
Q 6.78125 27.484375 10.78125 32.3125 
Q 14.796875 37.15625 21.921875 38.8125 
z
M 18.3125 54.390625 
Q 18.3125 48.734375 21.84375 45.5625 
Q 25.390625 42.390625 31.78125 42.390625 
Q 38.140625 42.390625 41.71875 45.5625 
Q 45.3125 48.734375 45.3125 54.390625 
Q 45.3125 60.0625 41.71875 63.234375 
Q 38.140625 66.40625 31.78125 66.40625 
Q 25.390625 66.40625 21.84375 63.234375 
Q 18.3125 60.0625 18.3125 54.390625 
z
" id="DejaVuSans-56"/>
     <path d="M 10.984375 1.515625 
L 10.984375 10.5 
Q 14.703125 8.734375 18.5 7.8125 
Q 22.3125 6.890625 25.984375 6.890625 
Q 35.75 6.890625 40.890625 13.453125 
Q 46.046875 20.015625 46.78125 33.40625 
Q 43.953125 29.203125 39.59375 26.953125 
Q 35.25 24.703125 29.984375 24.703125 
Q 19.046875 24.703125 12.671875 31.3125 
Q 6.296875 37.9375 6.296875 49.421875 
Q 6.296875 60.640625 12.9375 67.421875 
Q 19.578125 74.21875 30.609375 74.21875 
Q 43.265625 74.21875 49.921875 64.515625 
Q 56.59375 54.828125 56.59375 36.375 
Q 56.59375 19.140625 48.40625 8.859375 
Q 40.234375 -1.421875 26.421875 -1.421875 
Q 22.703125 -1.421875 18.890625 -0.6875 
Q 15.09375 0.046875 10.984375 1.515625 
z
M 30.609375 32.421875 
Q 37.25 32.421875 41.125 36.953125 
Q 45.015625 41.5 45.015625 49.421875 
Q 45.015625 57.28125 41.125 61.84375 
Q 37.25 66.40625 30.609375 66.40625 
Q 23.96875 66.40625 20.09375 61.84375 
Q 16.21875 57.28125 16.21875 49.421875 
Q 16.21875 41.5 20.09375 36.953125 
Q 23.96875 32.421875 30.609375 32.421875 
z
" id="DejaVuSans-57"/>
     <path d="M 10.6875 12.40625 
L 21 12.40625 
L 21 0 
L 10.6875 0 
z
" id="DejaVuSans-46"/>
     <path d="M 2.984375 54.6875 
L 12.5 54.6875 
L 29.59375 8.796875 
L 46.6875 54.6875 
L 56.203125 54.6875 
L 35.6875 0 
L 23.484375 0 
z
" id="DejaVuSans-118"/>
    </defs>
    <g transform="translate(371.555625 45.84)scale(0.12 -0.12)">
     <use xlink:href="#DejaVuSans-65"/>
     <use x="68.408203" xlink:href="#DejaVuSans-52"/>
     <use x="132.03125" xlink:href="#DejaVuSans-66"/>
     <use x="200.634766" xlink:href="#DejaVuSans-101"/>
     <use x="262.158203" xlink:href="#DejaVuSans-110"/>
     <use x="325.537109" xlink:href="#DejaVuSans-99"/>
     <use x="380.517578" xlink:href="#DejaVuSans-104"/>
     <use x="443.896484" xlink:href="#DejaVuSans-109"/>
     <use x="541.308594" xlink:href="#DejaVuSans-97"/>
     <use x="602.587891" xlink:href="#DejaVuSans-114"/>
     <use x="643.701172" xlink:href="#DejaVuSans-107"/>
     <use x="701.611328" xlink:href="#DejaVuSans-45"/>
     <use x="737.554688" xlink:href="#DejaVuSans-84"/>
     <use x="798.638672" xlink:href="#DejaVuSans-83"/>
     <use x="862.115234" xlink:href="#DejaVuSans-56"/>
     <use x="925.738281" xlink:href="#DejaVuSans-57"/>
     <use x="989.361328" xlink:href="#DejaVuSans-46"/>
     <use x="1021.148438" xlink:href="#DejaVuSans-99"/>
     <use x="1076.128906" xlink:href="#DejaVuSans-115"/>
     <use x="1128.228516" xlink:href="#DejaVuSans-118"/>
    </g>
   </g>
   <g id="legend_1">
    <g id="patch_58">
     <path d="M 413.142188 379.48 
L 472.457813 379.48 
Q 474.457813 379.48 474.457813 377.48 
L 474.457813 363.801875 
Q 474.457813 361.801875 472.457813 361.801875 
L 413.142188 361.801875 
Q 411.142188 361.801875 411.142188 363.801875 
L 411.142188 377.48 
Q 411.142188 379.48 413.142188 379.48 
z
" style="fill:#ffffff;opacity:0.8;stroke:#cccccc;stroke-linejoin:miter;"/>
    </g>
    <g id="line2d_19">
     <path d="M 415.142188 369.900312 
L 435.142188 369.900312 
" style="fill:none;stroke:#1f77b4;stroke-linecap:square;stroke-width:1.5;"/>
    </g>
    <g id="line2d_20"/>
    <g id="text_20">
     <!-- value -->
     <g transform="translate(443.142188 373.400312)scale(0.1 -0.1)">
      <use xlink:href="#DejaVuSans-118"/>
      <use x="59.179688" xlink:href="#DejaVuSans-97"/>
      <use x="120.458984" xlink:href="#DejaVuSans-108"/>
      <use x="148.242188" xlink:href="#DejaVuSans-117"/>
      <use x="211.621094" xlink:href="#DejaVuSans-101"/>
     </g>
    </g>
   </g>
  </g>
 </g>
 <defs>
  <clipPath id="p203e589897">
   <rect height="332.64" width="669.6" x="108" y="51.84"/>
  </clipPath>
 </defs>
</svg>
