<?xml version="1.0" encoding="utf-8" standalone="no"?>
<!DOCTYPE svg PUBLIC "-//W3C//DTD SVG 1.1//EN"
  "http://www.w3.org/Graphics/SVG/1.1/DTD/svg11.dtd">
<!-- Created with matplotlib (https://matplotlib.org/) -->
<svg height="432pt" version="1.1" viewBox="0 0 864 432" width="864pt" xmlns="http://www.w3.org/2000/svg" xmlns:xlink="http://www.w3.org/1999/xlink">
 <defs>
  <style type="text/css">
*{stroke-linecap:butt;stroke-linejoin:round;}
  </style>
 </defs>
 <g id="figure_1">
  <g id="patch_1">
   <path d="M 0 432 
L 864 432 
L 864 0 
L 0 0 
z
" style="fill:#ffffff;"/>
  </g>
  <g id="axes_1">
   <g id="patch_2">
    <path d="M 108 384.48 
L 777.6 384.48 
L 777.6 51.84 
L 108 51.84 
z
" style="fill:#ffffff;"/>
   </g>
   <g id="patch_3">
    <path clip-path="url(#p78ff9ded3a)" d="M 138.436364 384.48 
L 138.436364 51.84 
L 374.096118 51.84 
L 374.096118 384.48 
z
" style="fill:#0000ff;opacity:0.05;"/>
   </g>
   <g id="patch_4">
    <path clip-path="url(#p78ff9ded3a)" d="M 374.096118 384.48 
L 374.096118 51.84 
L 745.713422 51.84 
L 745.713422 384.48 
z
" style="fill:#ff0000;opacity:0.08;"/>
   </g>
   <g id="patch_5">
    <path clip-path="url(#p78ff9ded3a)" d="M 138.436364 384.48 
L 138.436364 51.84 
L 147.5002 51.84 
L 147.5002 384.48 
z
" style="fill:#008000;opacity:0.04;"/>
   </g>
   <g id="patch_6">
    <path clip-path="url(#p78ff9ded3a)" d="M 156.564037 384.48 
L 156.564037 51.84 
L 165.627874 51.84 
L 165.627874 384.48 
z
" style="fill:#008000;opacity:0.04;"/>
   </g>
   <g id="patch_7">
    <path clip-path="url(#p78ff9ded3a)" d="M 165.627874 371.1744 
L 165.627874 51.84 
L 174.69171 51.84 
L 174.69171 371.1744 
z
" style="fill:#008000;opacity:0.5;"/>
   </g>
   <g id="patch_8">
    <path clip-path="url(#p78ff9ded3a)" d="M 165.627874 384.48 
L 165.627874 371.1744 
L 174.69171 371.1744 
L 174.69171 384.48 
z
" style="fill:#ffe500;"/>
   </g>
   <g id="patch_9">
    <path clip-path="url(#p78ff9ded3a)" d="M 174.69171 384.48 
L 174.69171 51.84 
L 183.755547 51.84 
L 183.755547 384.48 
z
" style="fill:#008000;opacity:0.04;"/>
   </g>
   <g id="patch_10">
    <path clip-path="url(#p78ff9ded3a)" d="M 174.69171 371.1744 
L 174.69171 51.84 
L 183.755547 51.84 
L 183.755547 371.1744 
z
" style="fill:#008000;opacity:0.5;"/>
   </g>
   <g id="patch_11">
    <path clip-path="url(#p78ff9ded3a)" d="M 183.755547 371.1744 
L 183.755547 51.84 
L 192.819384 51.84 
L 192.819384 371.1744 
z
" style="fill:#008000;opacity:0.5;"/>
   </g>
   <g id="patch_12">
    <path clip-path="url(#p78ff9ded3a)" d="M 183.755547 384.48 
L 183.755547 371.1744 
L 192.819384 371.1744 
L 192.819384 384.48 
z
" style="fill:#ffe500;"/>
   </g>
   <g id="patch_13">
    <path clip-path="url(#p78ff9ded3a)" d="M 192.819384 384.48 
L 192.819384 51.84 
L 201.883221 51.84 
L 201.883221 384.48 
z
" style="fill:#008000;opacity:0.04;"/>
   </g>
   <g id="patch_14">
    <path clip-path="url(#p78ff9ded3a)" d="M 201.883221 371.1744 
L 201.883221 51.84 
L 210.947057 51.84 
L 210.947057 371.1744 
z
" style="fill:#008000;opacity:0.5;"/>
   </g>
   <g id="patch_15">
    <path clip-path="url(#p78ff9ded3a)" d="M 210.947057 384.48 
L 210.947057 51.84 
L 220.010894 51.84 
L 220.010894 384.48 
z
" style="fill:#008000;opacity:0.04;"/>
   </g>
   <g id="patch_16">
    <path clip-path="url(#p78ff9ded3a)" d="M 220.010894 371.1744 
L 220.010894 51.84 
L 229.074731 51.84 
L 229.074731 371.1744 
z
" style="fill:#008000;opacity:0.5;"/>
   </g>
   <g id="patch_17">
    <path clip-path="url(#p78ff9ded3a)" d="M 229.074731 384.48 
L 229.074731 51.84 
L 238.138567 51.84 
L 238.138567 384.48 
z
" style="fill:#008000;opacity:0.04;"/>
   </g>
   <g id="patch_18">
    <path clip-path="url(#p78ff9ded3a)" d="M 247.202404 384.48 
L 247.202404 51.84 
L 256.266241 51.84 
L 256.266241 384.48 
z
" style="fill:#008000;opacity:0.04;"/>
   </g>
   <g id="patch_19">
    <path clip-path="url(#p78ff9ded3a)" d="M 491.925995 384.48 
L 491.925995 371.1744 
L 500.989832 371.1744 
L 500.989832 384.48 
z
" style="fill:#ff6600;"/>
   </g>
   <g id="patch_20">
    <path clip-path="url(#p78ff9ded3a)" d="M 265.330077 384.48 
L 265.330077 51.84 
L 274.393914 51.84 
L 274.393914 384.48 
z
" style="fill:#008000;opacity:0.04;"/>
   </g>
   <g id="patch_21">
    <path clip-path="url(#p78ff9ded3a)" d="M 500.989832 384.48 
L 500.989832 371.1744 
L 510.053668 371.1744 
L 510.053668 384.48 
z
" style="fill:#ff6600;"/>
   </g>
   <g id="patch_22">
    <path clip-path="url(#p78ff9ded3a)" d="M 510.053668 384.48 
L 510.053668 371.1744 
L 519.117505 371.1744 
L 519.117505 384.48 
z
" style="fill:#ff6600;"/>
   </g>
   <g id="patch_23">
    <path clip-path="url(#p78ff9ded3a)" d="M 283.457751 384.48 
L 283.457751 51.84 
L 292.521588 51.84 
L 292.521588 384.48 
z
" style="fill:#008000;opacity:0.04;"/>
   </g>
   <g id="patch_24">
    <path clip-path="url(#p78ff9ded3a)" d="M 301.585424 384.48 
L 301.585424 51.84 
L 310.649261 51.84 
L 310.649261 384.48 
z
" style="fill:#008000;opacity:0.04;"/>
   </g>
   <g id="patch_25">
    <path clip-path="url(#p78ff9ded3a)" d="M 301.585424 371.1744 
L 301.585424 51.84 
L 310.649261 51.84 
L 310.649261 371.1744 
z
" style="fill:#008000;opacity:0.5;"/>
   </g>
   <g id="patch_26">
    <path clip-path="url(#p78ff9ded3a)" d="M 310.649261 371.1744 
L 310.649261 357.8688 
L 319.713098 357.8688 
L 319.713098 371.1744 
z
" style="fill:#ff00ff;"/>
   </g>
   <g id="patch_27">
    <path clip-path="url(#p78ff9ded3a)" d="M 319.713098 384.48 
L 319.713098 51.84 
L 328.776934 51.84 
L 328.776934 384.48 
z
" style="fill:#008000;opacity:0.04;"/>
   </g>
   <g id="patch_28">
    <path clip-path="url(#p78ff9ded3a)" d="M 319.713098 371.1744 
L 319.713098 51.84 
L 328.776934 51.84 
L 328.776934 371.1744 
z
" style="fill:#008000;opacity:0.5;"/>
   </g>
   <g id="patch_29">
    <path clip-path="url(#p78ff9ded3a)" d="M 337.840771 384.48 
L 337.840771 51.84 
L 346.904608 51.84 
L 346.904608 384.48 
z
" style="fill:#008000;opacity:0.04;"/>
   </g>
   <g id="patch_30">
    <path clip-path="url(#p78ff9ded3a)" d="M 355.968444 384.48 
L 355.968444 51.84 
L 365.032281 51.84 
L 365.032281 384.48 
z
" style="fill:#008000;opacity:0.04;"/>
   </g>
   <g id="patch_31">
    <path clip-path="url(#p78ff9ded3a)" d="M 374.096118 384.48 
L 374.096118 51.84 
L 383.159955 51.84 
L 383.159955 384.48 
z
" style="fill:#008000;opacity:0.04;"/>
   </g>
   <g id="patch_32">
    <path clip-path="url(#p78ff9ded3a)" d="M 392.223791 384.48 
L 392.223791 51.84 
L 401.287628 51.84 
L 401.287628 384.48 
z
" style="fill:#008000;opacity:0.04;"/>
   </g>
   <g id="patch_33">
    <path clip-path="url(#p78ff9ded3a)" d="M 410.351465 384.48 
L 410.351465 51.84 
L 419.415301 51.84 
L 419.415301 384.48 
z
" style="fill:#008000;opacity:0.04;"/>
   </g>
   <g id="patch_34">
    <path clip-path="url(#p78ff9ded3a)" d="M 410.351465 371.1744 
L 410.351465 51.84 
L 419.415301 51.84 
L 419.415301 371.1744 
z
" style="fill:#008000;opacity:0.5;"/>
   </g>
   <g id="patch_35">
    <path clip-path="url(#p78ff9ded3a)" d="M 428.479138 384.48 
L 428.479138 51.84 
L 437.542975 51.84 
L 437.542975 384.48 
z
" style="fill:#008000;opacity:0.04;"/>
   </g>
   <g id="patch_36">
    <path clip-path="url(#p78ff9ded3a)" d="M 446.606811 384.48 
L 446.606811 51.84 
L 455.670648 51.84 
L 455.670648 384.48 
z
" style="fill:#008000;opacity:0.04;"/>
   </g>
   <g id="patch_37">
    <path clip-path="url(#p78ff9ded3a)" d="M 464.734485 384.48 
L 464.734485 51.84 
L 473.798322 51.84 
L 473.798322 384.48 
z
" style="fill:#008000;opacity:0.04;"/>
   </g>
   <g id="patch_38">
    <path clip-path="url(#p78ff9ded3a)" d="M 482.862158 384.48 
L 482.862158 51.84 
L 491.925995 51.84 
L 491.925995 384.48 
z
" style="fill:#008000;opacity:0.04;"/>
   </g>
   <g id="patch_39">
    <path clip-path="url(#p78ff9ded3a)" d="M 482.862158 371.1744 
L 482.862158 357.8688 
L 491.925995 357.8688 
L 491.925995 371.1744 
z
" style="fill:#ff00ff;"/>
   </g>
   <g id="patch_40">
    <path clip-path="url(#p78ff9ded3a)" d="M 500.989832 384.48 
L 500.989832 51.84 
L 510.053668 51.84 
L 510.053668 384.48 
z
" style="fill:#008000;opacity:0.04;"/>
   </g>
   <g id="patch_41">
    <path clip-path="url(#p78ff9ded3a)" d="M 500.989832 371.1744 
L 500.989832 51.84 
L 510.053668 51.84 
L 510.053668 371.1744 
z
" style="fill:#008000;opacity:0.5;"/>
   </g>
   <g id="patch_42">
    <path clip-path="url(#p78ff9ded3a)" d="M 519.117505 384.48 
L 519.117505 51.84 
L 528.181342 51.84 
L 528.181342 384.48 
z
" style="fill:#008000;opacity:0.04;"/>
   </g>
   <g id="patch_43">
    <path clip-path="url(#p78ff9ded3a)" d="M 528.181342 371.1744 
L 528.181342 51.84 
L 537.245178 51.84 
L 537.245178 371.1744 
z
" style="fill:#008000;opacity:0.5;"/>
   </g>
   <g id="patch_44">
    <path clip-path="url(#p78ff9ded3a)" d="M 537.245178 384.48 
L 537.245178 51.84 
L 546.309015 51.84 
L 546.309015 384.48 
z
" style="fill:#008000;opacity:0.04;"/>
   </g>
   <g id="patch_45">
    <path clip-path="url(#p78ff9ded3a)" d="M 555.372852 384.48 
L 555.372852 51.84 
L 564.436689 51.84 
L 564.436689 384.48 
z
" style="fill:#008000;opacity:0.04;"/>
   </g>
   <g id="patch_46">
    <path clip-path="url(#p78ff9ded3a)" d="M 555.372852 371.1744 
L 555.372852 51.84 
L 564.436689 51.84 
L 564.436689 371.1744 
z
" style="fill:#008000;opacity:0.5;"/>
   </g>
   <g id="patch_47">
    <path clip-path="url(#p78ff9ded3a)" d="M 573.500525 384.48 
L 573.500525 51.84 
L 582.564362 51.84 
L 582.564362 384.48 
z
" style="fill:#008000;opacity:0.04;"/>
   </g>
   <g id="patch_48">
    <path clip-path="url(#p78ff9ded3a)" d="M 582.564362 371.1744 
L 582.564362 51.84 
L 591.628199 51.84 
L 591.628199 371.1744 
z
" style="fill:#008000;opacity:0.5;"/>
   </g>
   <g id="patch_49">
    <path clip-path="url(#p78ff9ded3a)" d="M 591.628199 384.48 
L 591.628199 51.84 
L 600.692035 51.84 
L 600.692035 384.48 
z
" style="fill:#008000;opacity:0.04;"/>
   </g>
   <g id="patch_50">
    <path clip-path="url(#p78ff9ded3a)" d="M 609.755872 384.48 
L 609.755872 51.84 
L 618.819709 51.84 
L 618.819709 384.48 
z
" style="fill:#008000;opacity:0.04;"/>
   </g>
   <g id="patch_51">
    <path clip-path="url(#p78ff9ded3a)" d="M 627.883545 384.48 
L 627.883545 51.84 
L 636.947382 51.84 
L 636.947382 384.48 
z
" style="fill:#008000;opacity:0.04;"/>
   </g>
   <g id="patch_52">
    <path clip-path="url(#p78ff9ded3a)" d="M 636.947382 371.1744 
L 636.947382 51.84 
L 646.011219 51.84 
L 646.011219 371.1744 
z
" style="fill:#008000;opacity:0.5;"/>
   </g>
   <g id="patch_53">
    <path clip-path="url(#p78ff9ded3a)" d="M 646.011219 384.48 
L 646.011219 51.84 
L 655.075055 51.84 
L 655.075055 384.48 
z
" style="fill:#008000;opacity:0.04;"/>
   </g>
   <g id="patch_54">
    <path clip-path="url(#p78ff9ded3a)" d="M 664.138892 384.48 
L 664.138892 51.84 
L 673.202729 51.84 
L 673.202729 384.48 
z
" style="fill:#008000;opacity:0.04;"/>
   </g>
   <g id="patch_55">
    <path clip-path="url(#p78ff9ded3a)" d="M 682.266566 384.48 
L 682.266566 51.84 
L 691.330402 51.84 
L 691.330402 384.48 
z
" style="fill:#008000;opacity:0.04;"/>
   </g>
   <g id="patch_56">
    <path clip-path="url(#p78ff9ded3a)" d="M 700.394239 384.48 
L 700.394239 51.84 
L 709.458076 51.84 
L 709.458076 384.48 
z
" style="fill:#008000;opacity:0.04;"/>
   </g>
   <g id="patch_57">
    <path clip-path="url(#p78ff9ded3a)" d="M 718.521912 384.48 
L 718.521912 51.84 
L 727.585749 51.84 
L 727.585749 384.48 
z
" style="fill:#008000;opacity:0.04;"/>
   </g>
   <g id="patch_58">
    <path clip-path="url(#p78ff9ded3a)" d="M 736.649586 384.48 
L 736.649586 51.84 
L 745.713422 51.84 
L 745.713422 384.48 
z
" style="fill:#008000;opacity:0.04;"/>
   </g>
   <g id="matplotlib.axis_1">
    <g id="xtick_1">
     <g id="line2d_1">
      <defs>
       <path d="M 0 0 
L 0 3.5 
" id="mf3047ec731" style="stroke:#000000;stroke-width:0.8;"/>
      </defs>
      <g>
       <use style="stroke:#000000;stroke-width:0.8;" x="138.436364" xlink:href="#mf3047ec731" y="384.48"/>
      </g>
     </g>
     <g id="text_1">
      <!-- 0 -->
      <defs>
       <path d="M 31.78125 66.40625 
Q 24.171875 66.40625 20.328125 58.90625 
Q 16.5 51.421875 16.5 36.375 
Q 16.5 21.390625 20.328125 13.890625 
Q 24.171875 6.390625 31.78125 6.390625 
Q 39.453125 6.390625 43.28125 13.890625 
Q 47.125 21.390625 47.125 36.375 
Q 47.125 51.421875 43.28125 58.90625 
Q 39.453125 66.40625 31.78125 66.40625 
z
M 31.78125 74.21875 
Q 44.046875 74.21875 50.515625 64.515625 
Q 56.984375 54.828125 56.984375 36.375 
Q 56.984375 17.96875 50.515625 8.265625 
Q 44.046875 -1.421875 31.78125 -1.421875 
Q 19.53125 -1.421875 13.0625 8.265625 
Q 6.59375 17.96875 6.59375 36.375 
Q 6.59375 54.828125 13.0625 64.515625 
Q 19.53125 74.21875 31.78125 74.21875 
z
" id="DejaVuSans-48"/>
      </defs>
      <g transform="translate(135.255114 399.078438)scale(0.1 -0.1)">
       <use xlink:href="#DejaVuSans-48"/>
      </g>
     </g>
    </g>
    <g id="xtick_2">
     <g id="line2d_2">
      <g>
       <use style="stroke:#000000;stroke-width:0.8;" x="229.074731" xlink:href="#mf3047ec731" y="384.48"/>
      </g>
     </g>
     <g id="text_2">
      <!-- 250 -->
      <defs>
       <path d="M 19.1875 8.296875 
L 53.609375 8.296875 
L 53.609375 0 
L 7.328125 0 
L 7.328125 8.296875 
Q 12.9375 14.109375 22.625 23.890625 
Q 32.328125 33.6875 34.8125 36.53125 
Q 39.546875 41.84375 41.421875 45.53125 
Q 43.3125 49.21875 43.3125 52.78125 
Q 43.3125 58.59375 39.234375 62.25 
Q 35.15625 65.921875 28.609375 65.921875 
Q 23.96875 65.921875 18.8125 64.3125 
Q 13.671875 62.703125 7.8125 59.421875 
L 7.8125 69.390625 
Q 13.765625 71.78125 18.9375 73 
Q 24.125 74.21875 28.421875 74.21875 
Q 39.75 74.21875 46.484375 68.546875 
Q 53.21875 62.890625 53.21875 53.421875 
Q 53.21875 48.921875 51.53125 44.890625 
Q 49.859375 40.875 45.40625 35.40625 
Q 44.1875 33.984375 37.640625 27.21875 
Q 31.109375 20.453125 19.1875 8.296875 
z
" id="DejaVuSans-50"/>
       <path d="M 10.796875 72.90625 
L 49.515625 72.90625 
L 49.515625 64.59375 
L 19.828125 64.59375 
L 19.828125 46.734375 
Q 21.96875 47.46875 24.109375 47.828125 
Q 26.265625 48.1875 28.421875 48.1875 
Q 40.625 48.1875 47.75 41.5 
Q 54.890625 34.8125 54.890625 23.390625 
Q 54.890625 11.625 47.5625 5.09375 
Q 40.234375 -1.421875 26.90625 -1.421875 
Q 22.3125 -1.421875 17.546875 -0.640625 
Q 12.796875 0.140625 7.71875 1.703125 
L 7.71875 11.625 
Q 12.109375 9.234375 16.796875 8.0625 
Q 21.484375 6.890625 26.703125 6.890625 
Q 35.15625 6.890625 40.078125 11.328125 
Q 45.015625 15.765625 45.015625 23.390625 
Q 45.015625 31 40.078125 35.4375 
Q 35.15625 39.890625 26.703125 39.890625 
Q 22.75 39.890625 18.8125 39.015625 
Q 14.890625 38.140625 10.796875 36.28125 
z
" id="DejaVuSans-53"/>
      </defs>
      <g transform="translate(219.530981 399.078438)scale(0.1 -0.1)">
       <use xlink:href="#DejaVuSans-50"/>
       <use x="63.623047" xlink:href="#DejaVuSans-53"/>
       <use x="127.246094" xlink:href="#DejaVuSans-48"/>
      </g>
     </g>
    </g>
    <g id="xtick_3">
     <g id="line2d_3">
      <g>
       <use style="stroke:#000000;stroke-width:0.8;" x="319.713098" xlink:href="#mf3047ec731" y="384.48"/>
      </g>
     </g>
     <g id="text_3">
      <!-- 500 -->
      <g transform="translate(310.169348 399.078438)scale(0.1 -0.1)">
       <use xlink:href="#DejaVuSans-53"/>
       <use x="63.623047" xlink:href="#DejaVuSans-48"/>
       <use x="127.246094" xlink:href="#DejaVuSans-48"/>
      </g>
     </g>
    </g>
    <g id="xtick_4">
     <g id="line2d_4">
      <g>
       <use style="stroke:#000000;stroke-width:0.8;" x="410.351465" xlink:href="#mf3047ec731" y="384.48"/>
      </g>
     </g>
     <g id="text_4">
      <!-- 750 -->
      <defs>
       <path d="M 8.203125 72.90625 
L 55.078125 72.90625 
L 55.078125 68.703125 
L 28.609375 0 
L 18.3125 0 
L 43.21875 64.59375 
L 8.203125 64.59375 
z
" id="DejaVuSans-55"/>
      </defs>
      <g transform="translate(400.807715 399.078438)scale(0.1 -0.1)">
       <use xlink:href="#DejaVuSans-55"/>
       <use x="63.623047" xlink:href="#DejaVuSans-53"/>
       <use x="127.246094" xlink:href="#DejaVuSans-48"/>
      </g>
     </g>
    </g>
    <g id="xtick_5">
     <g id="line2d_5">
      <g>
       <use style="stroke:#000000;stroke-width:0.8;" x="500.989832" xlink:href="#mf3047ec731" y="384.48"/>
      </g>
     </g>
     <g id="text_5">
      <!-- 1000 -->
      <defs>
       <path d="M 12.40625 8.296875 
L 28.515625 8.296875 
L 28.515625 63.921875 
L 10.984375 60.40625 
L 10.984375 69.390625 
L 28.421875 72.90625 
L 38.28125 72.90625 
L 38.28125 8.296875 
L 54.390625 8.296875 
L 54.390625 0 
L 12.40625 0 
z
" id="DejaVuSans-49"/>
      </defs>
      <g transform="translate(488.264832 399.078438)scale(0.1 -0.1)">
       <use xlink:href="#DejaVuSans-49"/>
       <use x="63.623047" xlink:href="#DejaVuSans-48"/>
       <use x="127.246094" xlink:href="#DejaVuSans-48"/>
       <use x="190.869141" xlink:href="#DejaVuSans-48"/>
      </g>
     </g>
    </g>
    <g id="xtick_6">
     <g id="line2d_6">
      <g>
       <use style="stroke:#000000;stroke-width:0.8;" x="591.628199" xlink:href="#mf3047ec731" y="384.48"/>
      </g>
     </g>
     <g id="text_6">
      <!-- 1250 -->
      <g transform="translate(578.903199 399.078438)scale(0.1 -0.1)">
       <use xlink:href="#DejaVuSans-49"/>
       <use x="63.623047" xlink:href="#DejaVuSans-50"/>
       <use x="127.246094" xlink:href="#DejaVuSans-53"/>
       <use x="190.869141" xlink:href="#DejaVuSans-48"/>
      </g>
     </g>
    </g>
    <g id="xtick_7">
     <g id="line2d_7">
      <g>
       <use style="stroke:#000000;stroke-width:0.8;" x="682.266566" xlink:href="#mf3047ec731" y="384.48"/>
      </g>
     </g>
     <g id="text_7">
      <!-- 1500 -->
      <g transform="translate(669.541566 399.078438)scale(0.1 -0.1)">
       <use xlink:href="#DejaVuSans-49"/>
       <use x="63.623047" xlink:href="#DejaVuSans-53"/>
       <use x="127.246094" xlink:href="#DejaVuSans-48"/>
       <use x="190.869141" xlink:href="#DejaVuSans-48"/>
      </g>
     </g>
    </g>
    <g id="xtick_8">
     <g id="line2d_8">
      <g>
       <use style="stroke:#000000;stroke-width:0.8;" x="772.904933" xlink:href="#mf3047ec731" y="384.48"/>
      </g>
     </g>
     <g id="text_8">
      <!-- 1750 -->
      <g transform="translate(760.179933 399.078438)scale(0.1 -0.1)">
       <use xlink:href="#DejaVuSans-49"/>
       <use x="63.623047" xlink:href="#DejaVuSans-55"/>
       <use x="127.246094" xlink:href="#DejaVuSans-53"/>
       <use x="190.869141" xlink:href="#DejaVuSans-48"/>
      </g>
     </g>
    </g>
    <g id="text_9">
     <!-- Timestamp -->
     <defs>
      <path d="M -0.296875 72.90625 
L 61.375 72.90625 
L 61.375 64.59375 
L 35.5 64.59375 
L 35.5 0 
L 25.59375 0 
L 25.59375 64.59375 
L -0.296875 64.59375 
z
" id="DejaVuSans-84"/>
      <path d="M 9.421875 54.6875 
L 18.40625 54.6875 
L 18.40625 0 
L 9.421875 0 
z
M 9.421875 75.984375 
L 18.40625 75.984375 
L 18.40625 64.59375 
L 9.421875 64.59375 
z
" id="DejaVuSans-105"/>
      <path d="M 52 44.1875 
Q 55.375 50.25 60.0625 53.125 
Q 64.75 56 71.09375 56 
Q 79.640625 56 84.28125 50.015625 
Q 88.921875 44.046875 88.921875 33.015625 
L 88.921875 0 
L 79.890625 0 
L 79.890625 32.71875 
Q 79.890625 40.578125 77.09375 44.375 
Q 74.3125 48.1875 68.609375 48.1875 
Q 61.625 48.1875 57.5625 43.546875 
Q 53.515625 38.921875 53.515625 30.90625 
L 53.515625 0 
L 44.484375 0 
L 44.484375 32.71875 
Q 44.484375 40.625 41.703125 44.40625 
Q 38.921875 48.1875 33.109375 48.1875 
Q 26.21875 48.1875 22.15625 43.53125 
Q 18.109375 38.875 18.109375 30.90625 
L 18.109375 0 
L 9.078125 0 
L 9.078125 54.6875 
L 18.109375 54.6875 
L 18.109375 46.1875 
Q 21.1875 51.21875 25.484375 53.609375 
Q 29.78125 56 35.6875 56 
Q 41.65625 56 45.828125 52.96875 
Q 50 49.953125 52 44.1875 
z
" id="DejaVuSans-109"/>
      <path d="M 56.203125 29.59375 
L 56.203125 25.203125 
L 14.890625 25.203125 
Q 15.484375 15.921875 20.484375 11.0625 
Q 25.484375 6.203125 34.421875 6.203125 
Q 39.59375 6.203125 44.453125 7.46875 
Q 49.3125 8.734375 54.109375 11.28125 
L 54.109375 2.78125 
Q 49.265625 0.734375 44.1875 -0.34375 
Q 39.109375 -1.421875 33.890625 -1.421875 
Q 20.796875 -1.421875 13.15625 6.1875 
Q 5.515625 13.8125 5.515625 26.8125 
Q 5.515625 40.234375 12.765625 48.109375 
Q 20.015625 56 32.328125 56 
Q 43.359375 56 49.78125 48.890625 
Q 56.203125 41.796875 56.203125 29.59375 
z
M 47.21875 32.234375 
Q 47.125 39.59375 43.09375 43.984375 
Q 39.0625 48.390625 32.421875 48.390625 
Q 24.90625 48.390625 20.390625 44.140625 
Q 15.875 39.890625 15.1875 32.171875 
z
" id="DejaVuSans-101"/>
      <path d="M 44.28125 53.078125 
L 44.28125 44.578125 
Q 40.484375 46.53125 36.375 47.5 
Q 32.28125 48.484375 27.875 48.484375 
Q 21.1875 48.484375 17.84375 46.4375 
Q 14.5 44.390625 14.5 40.28125 
Q 14.5 37.15625 16.890625 35.375 
Q 19.28125 33.59375 26.515625 31.984375 
L 29.59375 31.296875 
Q 39.15625 29.25 43.1875 25.515625 
Q 47.21875 21.78125 47.21875 15.09375 
Q 47.21875 7.46875 41.1875 3.015625 
Q 35.15625 -1.421875 24.609375 -1.421875 
Q 20.21875 -1.421875 15.453125 -0.5625 
Q 10.6875 0.296875 5.421875 2 
L 5.421875 11.28125 
Q 10.40625 8.6875 15.234375 7.390625 
Q 20.0625 6.109375 24.8125 6.109375 
Q 31.15625 6.109375 34.5625 8.28125 
Q 37.984375 10.453125 37.984375 14.40625 
Q 37.984375 18.0625 35.515625 20.015625 
Q 33.0625 21.96875 24.703125 23.78125 
L 21.578125 24.515625 
Q 13.234375 26.265625 9.515625 29.90625 
Q 5.8125 33.546875 5.8125 39.890625 
Q 5.8125 47.609375 11.28125 51.796875 
Q 16.75 56 26.8125 56 
Q 31.78125 56 36.171875 55.265625 
Q 40.578125 54.546875 44.28125 53.078125 
z
" id="DejaVuSans-115"/>
      <path d="M 18.3125 70.21875 
L 18.3125 54.6875 
L 36.8125 54.6875 
L 36.8125 47.703125 
L 18.3125 47.703125 
L 18.3125 18.015625 
Q 18.3125 11.328125 20.140625 9.421875 
Q 21.96875 7.515625 27.59375 7.515625 
L 36.8125 7.515625 
L 36.8125 0 
L 27.59375 0 
Q 17.1875 0 13.234375 3.875 
Q 9.28125 7.765625 9.28125 18.015625 
L 9.28125 47.703125 
L 2.6875 47.703125 
L 2.6875 54.6875 
L 9.28125 54.6875 
L 9.28125 70.21875 
z
" id="DejaVuSans-116"/>
      <path d="M 34.28125 27.484375 
Q 23.390625 27.484375 19.1875 25 
Q 14.984375 22.515625 14.984375 16.5 
Q 14.984375 11.71875 18.140625 8.90625 
Q 21.296875 6.109375 26.703125 6.109375 
Q 34.1875 6.109375 38.703125 11.40625 
Q 43.21875 16.703125 43.21875 25.484375 
L 43.21875 27.484375 
z
M 52.203125 31.203125 
L 52.203125 0 
L 43.21875 0 
L 43.21875 8.296875 
Q 40.140625 3.328125 35.546875 0.953125 
Q 30.953125 -1.421875 24.3125 -1.421875 
Q 15.921875 -1.421875 10.953125 3.296875 
Q 6 8.015625 6 15.921875 
Q 6 25.140625 12.171875 29.828125 
Q 18.359375 34.515625 30.609375 34.515625 
L 43.21875 34.515625 
L 43.21875 35.40625 
Q 43.21875 41.609375 39.140625 45 
Q 35.0625 48.390625 27.6875 48.390625 
Q 23 48.390625 18.546875 47.265625 
Q 14.109375 46.140625 10.015625 43.890625 
L 10.015625 52.203125 
Q 14.9375 54.109375 19.578125 55.046875 
Q 24.21875 56 28.609375 56 
Q 40.484375 56 46.34375 49.84375 
Q 52.203125 43.703125 52.203125 31.203125 
z
" id="DejaVuSans-97"/>
      <path d="M 18.109375 8.203125 
L 18.109375 -20.796875 
L 9.078125 -20.796875 
L 9.078125 54.6875 
L 18.109375 54.6875 
L 18.109375 46.390625 
Q 20.953125 51.265625 25.265625 53.625 
Q 29.59375 56 35.59375 56 
Q 45.5625 56 51.78125 48.09375 
Q 58.015625 40.1875 58.015625 27.296875 
Q 58.015625 14.40625 51.78125 6.484375 
Q 45.5625 -1.421875 35.59375 -1.421875 
Q 29.59375 -1.421875 25.265625 0.953125 
Q 20.953125 3.328125 18.109375 8.203125 
z
M 48.6875 27.296875 
Q 48.6875 37.203125 44.609375 42.84375 
Q 40.53125 48.484375 33.40625 48.484375 
Q 26.265625 48.484375 22.1875 42.84375 
Q 18.109375 37.203125 18.109375 27.296875 
Q 18.109375 17.390625 22.1875 11.75 
Q 26.265625 6.109375 33.40625 6.109375 
Q 40.53125 6.109375 44.609375 11.75 
Q 48.6875 17.390625 48.6875 27.296875 
z
" id="DejaVuSans-112"/>
     </defs>
     <g transform="translate(414.739062 412.756563)scale(0.1 -0.1)">
      <use xlink:href="#DejaVuSans-84"/>
      <use x="61.037109" xlink:href="#DejaVuSans-105"/>
      <use x="88.820312" xlink:href="#DejaVuSans-109"/>
      <use x="186.232422" xlink:href="#DejaVuSans-101"/>
      <use x="247.755859" xlink:href="#DejaVuSans-115"/>
      <use x="299.855469" xlink:href="#DejaVuSans-116"/>
      <use x="339.064453" xlink:href="#DejaVuSans-97"/>
      <use x="400.34375" xlink:href="#DejaVuSans-109"/>
      <use x="497.755859" xlink:href="#DejaVuSans-112"/>
     </g>
    </g>
   </g>
   <g id="matplotlib.axis_2">
    <g id="ytick_1">
     <g id="line2d_9">
      <defs>
       <path d="M 0 0 
L -3.5 0 
" id="mf8e862e47c" style="stroke:#000000;stroke-width:0.8;"/>
      </defs>
      <g>
       <use style="stroke:#000000;stroke-width:0.8;" x="108" xlink:href="#mf8e862e47c" y="339.632957"/>
      </g>
     </g>
     <g id="text_10">
      <!-- −2000 -->
      <defs>
       <path d="M 10.59375 35.5 
L 73.1875 35.5 
L 73.1875 27.203125 
L 10.59375 27.203125 
z
" id="DejaVuSans-8722"/>
      </defs>
      <g transform="translate(67.170312 343.432175)scale(0.1 -0.1)">
       <use xlink:href="#DejaVuSans-8722"/>
       <use x="83.789062" xlink:href="#DejaVuSans-50"/>
       <use x="147.412109" xlink:href="#DejaVuSans-48"/>
       <use x="211.035156" xlink:href="#DejaVuSans-48"/>
       <use x="274.658203" xlink:href="#DejaVuSans-48"/>
      </g>
     </g>
    </g>
    <g id="ytick_2">
     <g id="line2d_10">
      <g>
       <use style="stroke:#000000;stroke-width:0.8;" x="108" xlink:href="#mf8e862e47c" y="280.972368"/>
      </g>
     </g>
     <g id="text_11">
      <!-- −1000 -->
      <g transform="translate(67.170312 284.771587)scale(0.1 -0.1)">
       <use xlink:href="#DejaVuSans-8722"/>
       <use x="83.789062" xlink:href="#DejaVuSans-49"/>
       <use x="147.412109" xlink:href="#DejaVuSans-48"/>
       <use x="211.035156" xlink:href="#DejaVuSans-48"/>
       <use x="274.658203" xlink:href="#DejaVuSans-48"/>
      </g>
     </g>
    </g>
    <g id="ytick_3">
     <g id="line2d_11">
      <g>
       <use style="stroke:#000000;stroke-width:0.8;" x="108" xlink:href="#mf8e862e47c" y="222.31178"/>
      </g>
     </g>
     <g id="text_12">
      <!-- 0 -->
      <g transform="translate(94.6375 226.110999)scale(0.1 -0.1)">
       <use xlink:href="#DejaVuSans-48"/>
      </g>
     </g>
    </g>
    <g id="ytick_4">
     <g id="line2d_12">
      <g>
       <use style="stroke:#000000;stroke-width:0.8;" x="108" xlink:href="#mf8e862e47c" y="163.651192"/>
      </g>
     </g>
     <g id="text_13">
      <!-- 1000 -->
      <g transform="translate(75.55 167.450411)scale(0.1 -0.1)">
       <use xlink:href="#DejaVuSans-49"/>
       <use x="63.623047" xlink:href="#DejaVuSans-48"/>
       <use x="127.246094" xlink:href="#DejaVuSans-48"/>
       <use x="190.869141" xlink:href="#DejaVuSans-48"/>
      </g>
     </g>
    </g>
    <g id="ytick_5">
     <g id="line2d_13">
      <g>
       <use style="stroke:#000000;stroke-width:0.8;" x="108" xlink:href="#mf8e862e47c" y="104.990604"/>
      </g>
     </g>
     <g id="text_14">
      <!-- 2000 -->
      <g transform="translate(75.55 108.789823)scale(0.1 -0.1)">
       <use xlink:href="#DejaVuSans-50"/>
       <use x="63.623047" xlink:href="#DejaVuSans-48"/>
       <use x="127.246094" xlink:href="#DejaVuSans-48"/>
       <use x="190.869141" xlink:href="#DejaVuSans-48"/>
      </g>
     </g>
    </g>
    <g id="text_15">
     <!-- Value -->
     <defs>
      <path d="M 28.609375 0 
L 0.78125 72.90625 
L 11.078125 72.90625 
L 34.1875 11.53125 
L 57.328125 72.90625 
L 67.578125 72.90625 
L 39.796875 0 
z
" id="DejaVuSans-86"/>
      <path d="M 9.421875 75.984375 
L 18.40625 75.984375 
L 18.40625 0 
L 9.421875 0 
z
" id="DejaVuSans-108"/>
      <path d="M 8.5 21.578125 
L 8.5 54.6875 
L 17.484375 54.6875 
L 17.484375 21.921875 
Q 17.484375 14.15625 20.5 10.265625 
Q 23.53125 6.390625 29.59375 6.390625 
Q 36.859375 6.390625 41.078125 11.03125 
Q 45.3125 15.671875 45.3125 23.6875 
L 45.3125 54.6875 
L 54.296875 54.6875 
L 54.296875 0 
L 45.3125 0 
L 45.3125 8.40625 
Q 42.046875 3.421875 37.71875 1 
Q 33.40625 -1.421875 27.6875 -1.421875 
Q 18.265625 -1.421875 13.375 4.4375 
Q 8.5 10.296875 8.5 21.578125 
z
M 31.109375 56 
z
" id="DejaVuSans-117"/>
     </defs>
     <g transform="translate(61.090625 232.273281)rotate(-90)scale(0.1 -0.1)">
      <use xlink:href="#DejaVuSans-86"/>
      <use x="68.298828" xlink:href="#DejaVuSans-97"/>
      <use x="129.578125" xlink:href="#DejaVuSans-108"/>
      <use x="157.361328" xlink:href="#DejaVuSans-117"/>
      <use x="220.740234" xlink:href="#DejaVuSans-101"/>
     </g>
    </g>
   </g>
   <g id="line2d_14">
    <path clip-path="url(#p78ff9ded3a)" d="M 138.436364 209.67465 
L 138.798917 184.57025 
L 139.161471 191.860316 
L 139.886578 152.990063 
L 140.249131 157.243019 
L 140.611684 176.305149 
L 140.974238 212.816556 
L 141.336791 210.660954 
L 142.061898 240.198377 
L 142.424452 216.106689 
L 142.787005 215.530153 
L 143.149559 201.611824 
L 143.512112 200.527702 
L 143.874666 199.042817 
L 144.237219 206.28377 
L 144.962326 256.250038 
L 145.32488 268.318572 
L 145.687433 258.538421 
L 146.049986 254.447296 
L 146.41254 245.272426 
L 147.137647 203.88326 
L 147.5002 170.573889 
L 148.225307 133.24103 
L 148.587861 140.611494 
L 149.312968 165.964684 
L 150.038075 204.54244 
L 150.763182 222.819909 
L 151.125735 200.05524 
L 151.488288 189.970778 
L 151.850842 196.365748 
L 152.213395 174.322483 
L 152.575949 186.172924 
L 152.938502 207.441077 
L 153.301056 209.261225 
L 153.663609 235.844832 
L 154.026163 230.028107 
L 154.75127 264.334305 
L 155.113823 237.45482 
L 155.476377 227.386231 
L 155.83893 205.265837 
L 156.201484 170.156173 
L 156.564037 152.479361 
L 156.926591 146.741729 
L 157.289144 138.72511 
L 157.651697 146.271737 
L 158.376804 195.593358 
L 158.739358 199.795265 
L 159.101911 215.489635 
L 159.464465 209.25928 
L 159.827018 224.976822 
L 160.189572 194.545449 
L 160.552125 206.072532 
L 160.914679 192.927522 
L 161.639786 204.777782 
L 162.002339 232.154844 
L 162.364893 231.949226 
L 163.089999 268.059247 
L 163.452553 273.420959 
L 164.17766 241.778355 
L 164.902767 174.627633 
L 165.26532 172.868435 
L 165.627874 162.148229 
L 165.990427 166.18021 
L 166.352981 167.993505 
L 166.715534 199.351062 
L 167.078088 135.043817 
L 167.440641 237.840281 
L 167.803195 253.757328 
L 168.165748 237.03379 
L 168.528301 249.573276 
L 168.890855 211.030917 
L 169.253408 229.168181 
L 169.615962 226.940485 
L 169.978515 231.444099 
L 170.341069 232.899754 
L 171.066176 275.911878 
L 171.428729 289.716431 
L 171.791283 284.983938 
L 172.153836 286.433281 
L 172.51639 302.429858 
L 173.241497 250.738622 
L 173.60405 213.240887 
L 173.966603 196.339445 
L 174.329157 193.011805 
L 174.69171 192.483171 
L 175.054264 190.977739 
L 175.779371 234.57108 
L 176.141924 258.924668 
L 176.504478 259.616795 
L 176.867031 269.416257 
L 177.229585 274.906153 
L 177.592138 242.834318 
L 177.954692 251.843113 
L 178.317245 254.169934 
L 178.679799 259.20773 
L 179.042352 269.659399 
L 179.404906 340.149907 
L 179.767459 294.400384 
L 180.855119 320.628806 
L 181.580226 283.262514 
L 181.94278 264.752807 
L 182.305333 223.786209 
L 182.667887 217.703176 
L 183.03044 197.729452 
L 183.392994 201.586145 
L 183.755547 222.825232 
L 184.118101 228.533485 
L 184.480654 265.464926 
L 184.843208 264.368441 
L 185.205761 277.301007 
L 185.568314 351.753975 
L 185.930868 272.963305 
L 186.293421 265.289877 
L 187.018528 257.723134 
L 187.381082 257.458132 
L 187.743635 250.560945 
L 188.468742 301.480642 
L 189.193849 323.810143 
L 189.556403 319.06034 
L 189.918956 300.270038 
L 190.28151 294.031565 
L 191.006616 226.213545 
L 191.36917 211.202932 
L 191.731723 206.242854 
L 192.094277 193.197999 
L 192.45683 217.456909 
L 192.819384 221.723092 
L 193.181937 240.783536 
L 193.544491 252.318268 
L 193.907044 282.389753 
L 194.269598 264.288241 
L 194.994705 245.425208 
L 195.357258 245.345574 
L 195.719812 242.283114 
L 196.082365 232.139371 
L 196.444919 252.208062 
L 196.807472 254.694321 
L 197.170025 280.725559 
L 197.895132 303.771755 
L 198.257686 301.772726 
L 198.620239 286.521483 
L 198.982793 283.070563 
L 199.345346 254.705014 
L 199.7079 205.970906 
L 200.070453 192.447098 
L 200.433007 185.933244 
L 200.79556 167.424795 
L 201.158114 189.538035 
L 201.520667 199.819479 
L 202.245774 238.217502 
L 202.608327 245.360033 
L 202.970881 244.369824 
L 203.333434 154.746237 
L 203.695988 225.502462 
L 204.058541 228.555705 
L 204.421095 221.088302 
L 204.783648 208.031911 
L 205.146202 231.830102 
L 205.871309 257.643477 
L 206.233862 271.580704 
L 206.596416 276.967939 
L 206.958969 297.22203 
L 208.046629 232.003351 
L 208.771736 170.786551 
L 209.13429 169.554517 
L 209.496843 154.921709 
L 209.859397 176.207824 
L 210.22195 185.791872 
L 210.584504 205.953448 
L 210.947057 242.149059 
L 211.309611 216.103962 
L 211.672164 235.931309 
L 212.034718 220.036791 
L 212.397271 228.208656 
L 212.759825 206.874466 
L 213.122378 211.643334 
L 213.484932 200.778063 
L 213.847485 232.544722 
L 214.210038 245.364181 
L 214.572592 244.90198 
L 214.935145 257.738261 
L 215.297699 275.793221 
L 215.660252 278.935727 
L 216.385359 251.220357 
L 217.110466 187.453192 
L 217.47302 162.924039 
L 217.835573 157.905993 
L 218.198127 160.568439 
L 218.56068 168.217919 
L 218.923234 186.068508 
L 219.285787 197.036205 
L 219.64834 234.538771 
L 220.010894 156.138216 
L 220.373447 246.00277 
L 220.736001 249.570154 
L 221.461108 214.0273 
L 221.823661 207.369164 
L 222.186215 235.192359 
L 222.548768 225.972415 
L 222.911322 248.435448 
L 223.273875 252.416916 
L 223.636429 295.420767 
L 223.998982 291.275744 
L 224.361536 304.49608 
L 225.086642 261.949308 
L 225.449196 257.121516 
L 225.811749 201.935845 
L 226.174303 192.696722 
L 226.536856 197.281769 
L 226.89941 185.207701 
L 227.261963 191.308748 
L 227.624517 224.070943 
L 227.98707 231.200442 
L 228.712177 261.244458 
L 229.074731 270.172897 
L 229.437284 269.032842 
L 230.162391 242.169463 
L 230.524945 235.779264 
L 230.887498 247.834672 
L 231.250051 268.946974 
L 231.612605 262.542914 
L 231.975158 285.496003 
L 232.337712 319.8083 
L 232.700265 318.154486 
L 233.062819 326.525633 
L 233.425372 315.146272 
L 234.150479 265.864592 
L 234.513033 249.109078 
L 234.875586 213.909913 
L 235.23814 205.70095 
L 235.600693 204.355086 
L 235.963247 211.11107 
L 236.3258 242.487471 
L 236.688353 251.336504 
L 237.050907 279.244075 
L 237.41346 290.768789 
L 237.776014 295.766797 
L 238.138567 281.482399 
L 238.501121 287.461955 
L 238.863674 270.973071 
L 239.226228 265.192657 
L 239.588781 263.28114 
L 239.951335 287.529201 
L 240.313888 295.61678 
L 240.676442 320.841437 
L 241.038995 332.249837 
L 241.401549 350.634888 
L 241.764102 344.929489 
L 242.489209 311.684739 
L 242.851762 277.688555 
L 243.214316 264.521205 
L 243.576869 234.494647 
L 243.939423 223.177144 
L 244.301976 227.044311 
L 244.66453 222.147338 
L 245.027083 258.505437 
L 245.389637 263.417947 
L 246.114744 311.357391 
L 246.477297 296.242908 
L 246.839851 299.141207 
L 247.202404 283.937267 
L 247.927511 266.358117 
L 248.290064 277.971325 
L 248.652618 262.685559 
L 249.740278 339.163816 
L 250.102832 331.129083 
L 250.465385 329.115913 
L 250.827939 332.87656 
L 251.190492 317.978138 
L 252.278153 220.810914 
L 252.640706 216.696051 
L 253.00326 227.809426 
L 253.365813 224.568732 
L 253.728366 235.843299 
L 254.816027 293.357666 
L 255.17858 293.455474 
L 255.541134 275.639414 
L 255.903687 267.31297 
L 256.266241 248.775918 
L 256.628794 260.169936 
L 256.991348 248.456026 
L 257.353901 276.61118 
L 258.079008 298.955336 
L 258.441562 322.208836 
L 258.804115 331.742012 
L 259.166668 325.362939 
L 259.529222 324.925248 
L 260.254329 256.747587 
L 261.341989 199.344237 
L 261.704543 194.754037 
L 262.067096 219.40525 
L 262.42965 218.915752 
L 262.792203 246.197886 
L 263.154757 246.446846 
L 263.51731 256.947597 
L 263.879864 256.683498 
L 264.242417 260.923014 
L 264.967524 242.412282 
L 265.330077 248.307002 
L 265.692631 228.939173 
L 266.055184 239.356861 
L 266.417738 264.824733 
L 267.142845 295.191785 
L 267.505398 302.352541 
L 267.867952 303.570104 
L 268.230505 300.080688 
L 268.955612 239.52377 
L 269.318166 224.42433 
L 270.043273 176.871114 
L 270.768379 189.237569 
L 271.85604 259.471678 
L 272.581147 242.416027 
L 272.9437 258.431742 
L 273.306254 260.050437 
L 274.031361 223.636681 
L 274.393914 235.927038 
L 274.756468 234.363154 
L 275.119021 244.707776 
L 275.844128 295.968317 
L 276.206681 289.978666 
L 276.569235 301.691225 
L 276.931788 288.75695 
L 277.294342 261.017218 
L 277.656895 244.682626 
L 278.019449 212.921911 
L 278.382002 204.295634 
L 278.744556 188.734086 
L 279.107109 185.13663 
L 279.469663 198.17319 
L 279.832216 202.513826 
L 280.557323 254.516337 
L 280.919877 273.994022 
L 281.644983 241.582918 
L 282.007537 244.327765 
L 282.37009 250.023687 
L 282.732644 221.394841 
L 283.457751 242.887989 
L 283.820304 275.62939 
L 284.182858 276.376558 
L 284.545411 305.323932 
L 284.907965 306.98187 
L 285.270518 316.680902 
L 285.633072 302.153171 
L 286.358179 254.130362 
L 286.720732 243.954423 
L 287.083286 217.68656 
L 287.445839 204.604323 
L 287.808392 199.815188 
L 288.170946 210.016919 
L 288.533499 232.840836 
L 288.896053 243.762058 
L 289.258606 286.596082 
L 289.62116 277.527499 
L 289.983713 280.848834 
L 290.346267 271.311131 
L 290.70882 269.314538 
L 291.071374 274.848225 
L 291.433927 276.81552 
L 291.796481 266.71856 
L 292.159034 281.637052 
L 292.884141 320.976839 
L 293.246694 324.151329 
L 293.609248 341.267738 
L 293.971801 335.077603 
L 294.334355 334.877944 
L 294.696908 301.78385 
L 295.059462 283.127035 
L 295.422015 253.384953 
L 295.784569 241.316108 
L 296.147122 236.41275 
L 296.509676 238.781836 
L 296.872229 254.28972 
L 297.234783 252.088633 
L 297.597336 279.687747 
L 297.95989 278.54972 
L 298.322443 307.484033 
L 298.684996 308.515503 
L 299.410103 294.648734 
L 299.772657 269.333873 
L 300.13521 281.890458 
L 300.497764 272.786119 
L 300.860317 282.166827 
L 301.222871 326.277638 
L 301.585424 343.583609 
L 301.947978 349.547767 
L 302.310531 359.663406 
L 302.673085 352.768009 
L 303.035638 351.859889 
L 303.398192 323.213274 
L 303.760745 234.790139 
L 304.123299 279.640145 
L 304.485852 259.926072 
L 305.210959 249.65701 
L 305.573512 255.443334 
L 305.936066 270.897831 
L 306.298619 295.561204 
L 306.661173 305.904027 
L 307.023726 309.234651 
L 307.38628 313.722649 
L 307.748833 316.509446 
L 308.47394 298.815395 
L 308.836494 299.683997 
L 309.199047 286.353878 
L 309.561601 310.999975 
L 309.924154 318.136468 
L 310.649261 360.192922 
L 311.011814 353.154533 
L 311.374368 366.295426 
L 312.462028 290.623442 
L 313.549689 243.642527 
L 313.912242 243.704119 
L 314.274796 255.604893 
L 314.637349 263.357021 
L 314.999903 288.506361 
L 315.725009 301.127739 
L 316.087563 302.815121 
L 316.450116 296.495455 
L 316.81267 295.627382 
L 317.175223 277.562937 
L 317.537777 277.576324 
L 317.90033 285.553315 
L 318.262884 276.394662 
L 318.625437 291.370559 
L 318.987991 319.432779 
L 319.350544 318.77684 
L 319.713098 327.402121 
L 320.075651 327.770239 
L 320.438205 308.622778 
L 320.800758 304.873668 
L 321.888418 223.889676 
L 322.250972 223.29469 
L 322.613525 231.34473 
L 322.976079 224.28996 
L 323.701186 242.277427 
L 324.063739 269.513348 
L 324.426293 269.955497 
L 324.788846 274.795137 
L 325.1514 267.670215 
L 325.513953 256.128299 
L 325.876507 262.222305 
L 326.23906 253.900706 
L 326.601614 254.878557 
L 326.964167 262.995301 
L 327.32672 260.820261 
L 327.689274 287.842128 
L 328.051827 369.36 
L 328.414381 299.702312 
L 328.776934 293.909532 
L 329.139488 292.322215 
L 329.502041 264.08186 
L 329.864595 253.246616 
L 330.227148 238.836503 
L 330.589702 230.92025 
L 330.952255 198.695673 
L 331.314809 208.074389 
L 331.677362 202.638808 
L 332.039916 227.027719 
L 332.402469 242.478293 
L 332.765022 239.525761 
L 333.127576 265.952395 
L 333.490129 259.819649 
L 333.852683 262.001144 
L 334.215236 237.427367 
L 334.57779 243.63854 
L 334.940343 238.117142 
L 335.302897 237.841283 
L 336.028004 250.65574 
L 336.390557 273.823969 
L 337.478218 302.759886 
L 338.928431 222.36205 
L 339.290985 219.768823 
L 339.653538 209.499786 
L 340.016092 195.335855 
L 340.741199 216.177877 
L 341.466306 250.052627 
L 341.828859 247.648096 
L 342.191413 256.362654 
L 342.553966 247.276654 
L 342.91652 250.65676 
L 343.279073 245.085897 
L 343.641627 235.65338 
L 344.00418 234.248186 
L 344.366733 254.053125 
L 344.729287 254.332861 
L 345.09184 284.894821 
L 345.816947 301.094085 
L 346.542054 285.057488 
L 347.267161 252.710169 
L 347.629715 227.401725 
L 347.992268 219.020296 
L 348.354822 204.028649 
L 348.717375 206.009861 
L 349.079929 210.656413 
L 349.805035 246.672278 
L 350.530142 273.016541 
L 350.892696 269.672598 
L 351.255249 271.549191 
L 351.617803 270.898281 
L 351.980356 246.649096 
L 352.34291 246.102143 
L 352.705463 244.138452 
L 353.43057 280.324293 
L 353.793124 287.783348 
L 354.155677 308.483223 
L 354.518231 319.418783 
L 354.880784 316.821852 
L 357.056105 215.930279 
L 357.418658 219.325835 
L 357.781212 240.07536 
L 358.143765 248.842269 
L 358.506319 251.076873 
L 358.868872 263.086608 
L 359.231426 282.406766 
L 359.593979 281.57558 
L 359.956533 267.481121 
L 360.319086 272.428066 
L 360.68164 269.951599 
L 361.044193 261.51704 
L 362.131853 284.034146 
L 362.85696 316.284666 
L 363.219514 325.039216 
L 363.582067 319.364174 
L 363.944621 309.24674 
L 364.307174 286.529622 
L 364.669728 272.598063 
L 365.032281 253.390156 
L 365.394835 223.362223 
L 365.757388 238.56044 
L 366.119942 229.699704 
L 366.482495 224.221739 
L 367.570155 284.527367 
L 367.932709 284.934142 
L 368.295262 290.168627 
L 368.657816 293.47062 
L 369.020369 258.5134 
L 369.745476 270.291008 
L 370.10803 254.35422 
L 370.470583 279.20491 
L 370.833137 289.124172 
L 371.19569 302.265523 
L 371.558244 303.772656 
L 371.920797 314.828256 
L 372.28335 309.400346 
L 373.008457 284.655233 
L 373.371011 263.494853 
L 373.733564 250.974272 
L 374.096118 228.455238 
L 374.458671 219.708209 
L 374.821225 218.768004 
L 376.271439 262.560707 
L 376.633992 258.824655 
L 376.996546 273.851669 
L 377.359099 260.52401 
L 377.721652 255.465807 
L 378.084206 258.208174 
L 378.809313 245.544088 
L 379.171866 244.099031 
L 379.53442 257.04156 
L 379.896973 278.399046 
L 380.259527 287.923489 
L 380.62208 300.723861 
L 380.984634 289.822117 
L 381.347187 285.537535 
L 381.709741 263.193206 
L 382.072294 255.066475 
L 382.434848 216.333049 
L 382.797401 208.111448 
L 383.159955 205.669394 
L 383.522508 195.993254 
L 383.885061 204.885139 
L 384.247615 201.614724 
L 384.610168 228.277367 
L 384.972722 228.254381 
L 385.335275 251.998521 
L 385.697829 252.636149 
L 386.060382 236.877038 
L 386.422936 244.838521 
L 386.785489 225.839673 
L 387.148043 220.976698 
L 387.510596 212.769324 
L 388.235703 240.573639 
L 388.598257 247.100359 
L 388.96081 259.545871 
L 389.323363 266.602096 
L 389.685917 281.035988 
L 390.04847 268.099097 
L 391.498684 181.616927 
L 391.861238 168.07542 
L 392.223791 179.343004 
L 392.586345 179.98789 
L 392.948898 186.911804 
L 393.311452 209.025458 
L 393.674005 214.562637 
L 394.036559 228.364373 
L 394.399112 235.444786 
L 394.761665 221.310481 
L 395.124219 224.81429 
L 395.486772 203.821593 
L 395.849326 207.54799 
L 396.211879 203.116482 
L 396.936986 223.67153 
L 397.29954 239.260683 
L 397.662093 261.60533 
L 398.024647 273.596507 
L 398.749754 250.334004 
L 399.112307 244.348505 
L 399.474861 213.830495 
L 400.199968 179.60284 
L 400.562521 168.201565 
L 400.925074 163.749827 
L 402.737842 227.151168 
L 403.100395 230.189985 
L 403.462949 229.049606 
L 403.825502 220.131969 
L 404.188056 205.204488 
L 404.550609 212.274609 
L 404.913163 208.851569 
L 405.275716 215.065925 
L 405.63827 226.662202 
L 406.000823 243.341305 
L 406.363376 266.274155 
L 406.72593 262.101268 
L 407.088483 268.951981 
L 407.451037 263.162381 
L 407.81359 241.876467 
L 408.176144 211.875914 
L 408.538697 213.734079 
L 409.263804 175.906971 
L 409.626358 173.278383 
L 409.988911 198.575568 
L 410.351465 200.63268 
L 410.714018 215.533728 
L 411.076572 223.097507 
L 411.439125 235.822588 
L 411.801678 231.481169 
L 412.164232 231.648183 
L 412.526785 230.265321 
L 412.889339 213.439821 
L 413.251892 154.314072 
L 413.614446 213.056136 
L 413.976999 225.327725 
L 414.339553 244.349079 
L 414.702106 271.043483 
L 415.06466 270.893288 
L 415.427213 301.364226 
L 415.789767 294.528137 
L 416.15232 281.932618 
L 416.514874 252.302842 
L 416.877427 236.985198 
L 417.602534 193.896419 
L 418.327641 186.123775 
L 418.690194 209.778209 
L 419.052748 213.300107 
L 419.415301 239.980767 
L 419.777855 242.04675 
L 420.140408 253.278846 
L 420.502962 258.489421 
L 420.865515 253.494832 
L 421.228069 252.260674 
L 421.590622 239.055052 
L 421.953176 234.062934 
L 422.315729 221.426754 
L 422.678283 238.21325 
L 423.040836 248.425671 
L 423.403389 270.382192 
L 424.49105 303.727228 
L 424.853603 287.326333 
L 425.216157 282.135822 
L 425.57871 235.416004 
L 425.941264 214.7039 
L 426.666371 198.946701 
L 427.028924 200.187141 
L 427.391478 202.022478 
L 428.116585 237.493783 
L 428.479138 256.752276 
L 428.841691 261.043592 
L 429.204245 257.545268 
L 429.566798 243.644382 
L 429.929352 238.829332 
L 430.291905 244.253165 
L 430.654459 229.560755 
L 431.017012 224.902682 
L 432.104673 266.266238 
L 432.467226 271.245283 
L 432.82978 290.052679 
L 433.192333 289.973968 
L 433.554887 277.078996 
L 434.642547 210.772453 
L 435.0051 214.704318 
L 435.730207 180.43149 
L 436.092761 190.687476 
L 436.455314 210.708972 
L 436.817868 208.287957 
L 437.180421 233.014711 
L 437.542975 242.193944 
L 437.905528 236.263836 
L 438.268082 236.847497 
L 438.630635 235.30281 
L 438.993189 214.069186 
L 439.355742 218.235415 
L 439.718296 212.774597 
L 440.805956 243.75466 
L 441.168509 266.136774 
L 441.531063 270.202489 
L 441.893616 269.423861 
L 442.25617 247.764635 
L 442.618723 242.534323 
L 443.34383 192.635001 
L 443.706384 180.968385 
L 444.068937 165.223986 
L 444.431491 157.240069 
L 444.794044 170.97168 
L 445.156598 176.391357 
L 445.881704 222.318841 
L 446.244258 209.998019 
L 446.606811 207.906552 
L 446.969365 210.545147 
L 447.331918 205.893271 
L 447.694472 187.92113 
L 448.057025 196.217932 
L 448.419579 192.036042 
L 448.782132 196.319229 
L 449.144686 204.53358 
L 449.507239 227.946974 
L 449.869793 235.321999 
L 450.232346 247.904579 
L 450.5949 250.986789 
L 452.045113 177.914539 
L 452.407667 147.674122 
L 453.132774 135.824538 
L 453.495327 146.684697 
L 454.582988 192.834347 
L 454.945541 212.898866 
L 455.308095 196.979516 
L 455.670648 197.489922 
L 456.033202 195.590483 
L 456.395755 177.941836 
L 456.758309 172.491246 
L 457.120862 179.483085 
L 457.483415 200.310464 
L 457.845969 185.523767 
L 458.571076 235.102548 
L 458.933629 239.9222 
L 459.296183 227.791227 
L 459.658736 208.605297 
L 460.02129 224.441653 
L 460.383843 186.352445 
L 460.746397 162.007772 
L 461.10895 147.305267 
L 461.834057 132.459307 
L 462.196611 141.384167 
L 462.921717 183.422549 
L 463.646824 193.103973 
L 464.371931 197.565034 
L 464.734485 192.277028 
L 465.097038 181.747097 
L 465.459592 160.460005 
L 465.822145 184.874238 
L 466.184699 187.434098 
L 466.547252 193.879022 
L 466.909806 213.947775 
L 467.272359 222.724299 
L 467.634913 237.322879 
L 467.997466 238.033712 
L 468.722573 216.965732 
L 469.44768 179.916121 
L 469.810233 141.185937 
L 470.172787 152.508358 
L 470.53534 150.544417 
L 470.897894 155.448939 
L 471.260447 171.555113 
L 471.623001 176.431965 
L 471.985554 199.378444 
L 472.710661 209.702093 
L 473.073215 214.053377 
L 473.798322 193.286021 
L 474.160875 189.475453 
L 474.523428 193.263904 
L 474.885982 195.871862 
L 475.248535 202.52996 
L 475.611089 233.097808 
L 475.973642 240.879647 
L 476.336196 251.069924 
L 476.698749 249.228559 
L 477.061303 244.293248 
L 477.423856 226.423083 
L 477.78641 202.640919 
L 478.148963 193.68903 
L 478.511517 174.184173 
L 478.87407 145.770009 
L 479.236624 162.898706 
L 479.96173 184.160881 
L 480.686837 226.857471 
L 481.049391 217.300227 
L 481.411944 212.251321 
L 481.774498 210.636335 
L 482.137051 215.593175 
L 483.224712 197.879499 
L 483.587265 219.592426 
L 483.949819 227.970639 
L 484.674926 261.487168 
L 485.037479 267.687684 
L 485.400032 271.205042 
L 486.125139 232.636811 
L 486.487693 197.661405 
L 486.850246 192.70628 
L 487.2128 191.285113 
L 487.575353 190.562609 
L 488.30046 190.766324 
L 488.663014 192.553384 
L 489.025567 192.847799 
L 489.388121 195.667914 
L 489.750674 197.505736 
L 490.113228 197.501963 
L 490.475781 197.692999 
L 490.838335 193.820214 
L 491.200888 194.264198 
L 491.563441 192.790022 
L 491.925995 193.855139 
L 492.288548 193.790991 
L 493.013655 196.006275 
L 493.376209 198.476897 
L 493.738762 199.33708 
L 494.101316 198.338554 
L 494.463869 196.89419 
L 494.826423 194.832944 
L 495.55153 188.084274 
L 495.914083 186.937759 
L 496.276637 185.265107 
L 497.001743 184.871242 
L 497.364297 187.765764 
L 498.089404 190.435936 
L 498.451957 189.559022 
L 498.814511 191.594926 
L 499.177064 190.533475 
L 499.902171 187.215461 
L 500.264725 185.850696 
L 500.627278 186.92171 
L 500.989832 185.79737 
L 501.352385 189.800856 
L 501.714939 191.472641 
L 502.077492 191.779637 
L 502.440045 190.999028 
L 502.802599 191.654176 
L 503.165152 190.136963 
L 503.527706 189.490993 
L 503.890259 185.765772 
L 504.252813 183.239589 
L 504.615366 178.936473 
L 504.97792 177.500552 
L 505.340473 177.929696 
L 505.703027 185.824438 
L 506.06558 181.133761 
L 506.428134 182.52756 
L 507.153241 183.896797 
L 507.515794 182.526225 
L 507.878348 183.65412 
L 508.240901 182.993998 
L 508.966008 181.025658 
L 509.328561 180.209656 
L 510.053668 181.740678 
L 510.416222 184.47708 
L 510.778775 186.005514 
L 511.141329 184.983586 
L 511.503882 185.09183 
L 512.591543 180.334675 
L 512.954096 175.422234 
L 513.679203 172.208774 
L 514.041756 172.434356 
L 514.766863 174.115956 
L 515.129417 176.877551 
L 515.49197 177.657084 
L 515.854524 177.900027 
L 516.217077 179.310225 
L 516.579631 178.358933 
L 516.942184 176.252721 
L 517.304738 176.04411 
L 518.029845 173.54686 
L 518.392398 175.361204 
L 518.754952 176.085199 
L 519.480058 180.996481 
L 519.842612 181.531612 
L 520.205165 180.844449 
L 520.930272 178.616277 
L 521.292826 173.027382 
L 521.655379 171.884833 
L 522.017933 168.305683 
L 522.380486 169.076535 
L 522.74304 166.964282 
L 523.468147 170.519779 
L 523.8307 171.372654 
L 524.193254 173.446427 
L 524.555807 174.650926 
L 524.91836 174.056657 
L 525.280914 173.698831 
L 525.643467 172.914285 
L 526.006021 170.894816 
L 526.368574 170.798863 
L 526.731128 171.913455 
L 527.093681 171.819298 
L 527.456235 175.126638 
L 527.818788 175.335263 
L 528.181342 176.921805 
L 528.543895 177.961811 
L 528.906449 185.148469 
L 529.269002 176.616352 
L 529.631556 174.074933 
L 529.994109 170.388292 
L 530.356663 168.895522 
L 531.081769 163.901018 
L 532.16943 167.320158 
L 532.531983 169.959915 
L 532.894537 171.257521 
L 533.619644 172.269434 
L 533.982197 172.456311 
L 534.344751 169.685446 
L 534.707304 169.07256 
L 535.069858 168.698841 
L 535.432411 170.517848 
L 535.794965 170.413577 
L 536.157518 171.495654 
L 536.520071 173.224614 
L 536.882625 174.100008 
L 537.245178 175.776313 
L 537.607732 175.583863 
L 538.332839 172.491893 
L 538.695392 170.254986 
L 539.057946 166.93175 
L 539.783053 164.473563 
L 540.145606 163.234594 
L 540.50816 163.505906 
L 540.870713 166.608041 
L 541.59582 169.606564 
L 541.958373 170.640103 
L 542.320927 170.304628 
L 542.68348 168.852284 
L 543.046034 169.655265 
L 543.408587 166.880893 
L 543.771141 166.53643 
L 544.133694 166.694971 
L 544.496248 168.724235 
L 544.858801 169.742103 
L 545.221355 172.007021 
L 545.583908 172.297744 
L 545.946462 173.611016 
L 546.309015 172.868902 
L 546.671569 172.597337 
L 547.034122 169.296221 
L 547.396676 167.211943 
L 547.759229 163.677512 
L 548.121782 161.976131 
L 548.484336 162.409532 
L 548.846889 159.066692 
L 549.571996 161.211567 
L 549.93455 164.896105 
L 550.297103 165.372316 
L 550.659657 166.727804 
L 551.02221 166.208249 
L 551.384764 166.427605 
L 551.747317 165.614323 
L 552.109871 162.658238 
L 552.472424 165.08899 
L 552.834978 163.265844 
L 553.197531 164.311032 
L 553.560084 166.63372 
L 553.922638 167.273651 
L 554.285191 168.279398 
L 554.647745 168.557811 
L 555.010298 169.96816 
L 555.735405 164.207455 
L 556.097959 162.88027 
L 556.460512 159.676762 
L 556.823066 158.044882 
L 557.185619 155.341311 
L 557.910726 156.358533 
L 558.27328 158.297514 
L 558.635833 159.496226 
L 558.998386 159.27104 
L 559.36094 161.315165 
L 559.723493 160.783395 
L 560.086047 159.62028 
L 560.4486 159.518895 
L 560.811154 156.586862 
L 561.173707 156.258225 
L 561.536261 156.495258 
L 562.261368 158.347679 
L 562.623921 153.29806 
L 562.986475 163.452304 
L 563.349028 164.168588 
L 564.436689 160.343328 
L 565.524349 149.314957 
L 565.886902 148.688205 
L 566.249456 149.447842 
L 566.612009 148.814043 
L 566.974563 150.119917 
L 567.337116 152.064853 
L 568.062223 153.937688 
L 568.424777 154.236808 
L 568.78733 153.568133 
L 569.149884 151.764564 
L 569.874991 151.187222 
L 570.237544 150.744282 
L 570.600097 151.273626 
L 570.962651 150.963393 
L 571.325204 155.698517 
L 572.050311 157.579818 
L 572.412865 156.380487 
L 572.775418 155.685717 
L 573.137972 151.768652 
L 573.500525 150.321122 
L 573.863079 145.860559 
L 574.588186 141.530841 
L 574.950739 143.129002 
L 575.313293 144.036637 
L 575.675846 143.829408 
L 576.400953 148.996804 
L 576.763506 149.782526 
L 577.12606 149.639773 
L 577.851167 147.635458 
L 578.576274 144.279273 
L 578.938827 144.37995 
L 579.663934 147.54751 
L 580.026488 151.064793 
L 580.389041 150.344846 
L 580.751595 151.443066 
L 581.114148 151.018137 
L 581.476701 150.082362 
L 581.839255 147.505013 
L 582.201808 146.514158 
L 582.564362 142.062712 
L 582.926915 139.024864 
L 583.289469 138.013276 
L 584.014576 139.427642 
L 584.377129 139.725944 
L 584.739683 142.601249 
L 585.102236 143.903588 
L 585.46479 143.900231 
L 585.827343 144.984675 
L 586.915004 142.573935 
L 587.277557 143.114045 
L 587.64011 142.251525 
L 588.002664 142.584728 
L 588.365217 144.459234 
L 588.727771 147.6636 
L 589.090324 145.974822 
L 589.815431 148.998321 
L 590.177985 141.987085 
L 590.540538 144.380039 
L 590.903092 142.172675 
L 591.265645 138.855795 
L 591.628199 136.61153 
L 591.990752 136.333348 
L 592.353306 136.447033 
L 592.715859 136.956567 
L 593.078412 138.961838 
L 593.440966 139.847151 
L 593.803519 142.457379 
L 594.166073 140.949436 
L 594.528626 142.402892 
L 594.89118 142.47222 
L 595.253733 140.528814 
L 595.616287 140.539397 
L 595.97884 138.742165 
L 596.341394 138.93911 
L 596.703947 139.584348 
L 597.066501 140.737067 
L 597.429054 144.956575 
L 597.791608 145.774243 
L 598.516714 146.439517 
L 598.879268 145.382841 
L 599.241821 143.663116 
L 599.966928 137.649688 
L 600.329482 134.77245 
L 600.692035 135.501547 
L 601.054589 135.359272 
L 601.417142 134.753069 
L 601.779696 136.134623 
L 602.504803 140.469927 
L 602.867356 140.325969 
L 603.22991 140.495739 
L 603.592463 140.278265 
L 604.31757 137.591463 
L 604.680123 137.361634 
L 605.042677 136.705242 
L 605.40523 137.615704 
L 605.767784 140.763279 
L 606.130337 141.30686 
L 606.492891 143.765137 
L 606.855444 145.303888 
L 607.217998 143.807046 
L 607.580551 141.694116 
L 607.943105 141.650865 
L 608.305658 137.037768 
L 609.030765 132.199019 
L 609.393319 131.126991 
L 609.755872 131.029214 
L 610.118425 131.692818 
L 610.480979 133.405702 
L 610.843532 134.461575 
L 611.206086 134.575023 
L 611.568639 137.460398 
L 612.293746 136.424752 
L 612.6563 134.941593 
L 613.018853 134.521875 
L 613.381407 134.3192 
L 613.74396 135.463484 
L 614.106514 134.040533 
L 614.469067 135.785558 
L 614.831621 138.46679 
L 615.194174 139.592009 
L 615.556727 140.166583 
L 615.919281 139.657934 
L 616.281834 138.366967 
L 617.369495 129.904416 
L 617.732048 125.937738 
L 618.094602 126.667305 
L 618.457155 125.384091 
L 618.819709 126.383875 
L 619.182262 128.635026 
L 619.544816 129.60751 
L 619.907369 132.623148 
L 620.269923 131.550097 
L 620.632476 131.804613 
L 620.99503 131.519463 
L 621.357583 128.421053 
L 621.720136 129.191475 
L 622.08269 127.470063 
L 622.445243 127.734512 
L 622.807797 129.954474 
L 623.17035 129.655115 
L 623.895457 132.873185 
L 624.258011 133.067134 
L 624.620564 133.042801 
L 625.708225 125.151952 
L 626.433332 122.046759 
L 626.795885 117.875001 
L 627.158438 119.638586 
L 627.520992 120.135253 
L 627.883545 122.670439 
L 628.246099 122.92949 
L 628.608652 125.089484 
L 628.971206 124.974857 
L 629.333759 123.88494 
L 629.696313 124.846894 
L 630.058866 123.350496 
L 630.42142 122.428509 
L 630.783973 119.994048 
L 631.50908 122.580459 
L 631.871634 123.223882 
L 632.234187 125.714628 
L 632.59674 126.587402 
L 632.959294 127.859308 
L 633.321847 127.471162 
L 634.046954 123.325317 
L 634.409508 119.20547 
L 635.134615 114.314087 
L 635.497168 113.748409 
L 635.859722 112.404257 
L 636.222275 112.194197 
L 636.584829 115.275628 
L 636.947382 116.96047 
L 637.309936 118.019122 
L 637.672489 118.046436 
L 638.035043 118.301605 
L 638.397596 118.795362 
L 639.122703 115.748277 
L 639.485256 116.306297 
L 639.84781 116.012885 
L 640.210363 115.146962 
L 640.93547 119.75906 
L 641.660577 122.101994 
L 642.023131 130.863657 
L 642.385684 120.707993 
L 642.748238 118.146066 
L 643.110791 114.618485 
L 643.473345 112.989852 
L 643.835898 102.76849 
L 644.198451 109.586688 
L 644.561005 107.814791 
L 644.923558 108.294708 
L 645.648665 113.832084 
L 646.011219 114.043825 
L 646.373772 115.15964 
L 646.736326 115.240361 
L 647.098879 115.15202 
L 647.461433 114.694007 
L 647.823986 113.902212 
L 648.18654 111.7185 
L 648.549093 113.354305 
L 648.911647 113.633312 
L 649.2742 115.714075 
L 649.636753 115.834726 
L 649.999307 119.095337 
L 650.724414 118.65309 
L 651.086967 115.690308 
L 651.449521 115.788852 
L 651.812074 111.295019 
L 652.174628 110.574729 
L 652.899735 106.396404 
L 653.262288 105.331294 
L 653.624842 106.234663 
L 653.987395 109.408558 
L 654.349949 109.670811 
L 655.075055 114.054581 
L 655.437609 114.813183 
L 656.162716 111.599643 
L 656.525269 111.69998 
L 656.887823 109.694581 
L 657.250376 110.123179 
L 657.61293 112.338688 
L 657.975483 112.214493 
L 658.338037 114.193678 
L 658.70059 115.32632 
L 659.063144 115.901978 
L 659.425697 117.160575 
L 659.788251 117.363633 
L 660.875911 107.574493 
L 661.238464 106.265742 
L 661.601018 104.451294 
L 661.963571 103.213537 
L 662.326125 106.056408 
L 663.051232 109.157723 
L 663.413785 109.550838 
L 663.776339 110.872049 
L 664.138892 110.203245 
L 664.501446 111.401423 
L 664.863999 109.286076 
L 665.226553 108.31028 
L 665.589106 106.877942 
L 665.95166 109.490168 
L 666.314213 110.279463 
L 666.676766 110.525894 
L 667.03932 112.9874 
L 667.401873 112.226392 
L 667.764427 115.121584 
L 668.489534 112.834233 
L 668.852087 110.344345 
L 669.214641 106.571791 
L 669.577194 104.192541 
L 669.939748 102.907588 
L 670.302301 102.658294 
L 670.664855 101.474913 
L 671.389962 104.340936 
L 671.752515 104.463899 
L 672.115068 105.793001 
L 672.477622 107.667844 
L 672.840175 106.419007 
L 673.202729 105.9632 
L 673.565282 106.288673 
L 673.927836 103.926089 
L 674.290389 104.492763 
L 674.652943 103.020148 
L 675.015496 105.615146 
L 676.103157 108.7143 
L 676.46571 110.577262 
L 676.828264 110.014157 
L 677.190817 107.629217 
L 677.553371 106.344829 
L 677.915924 102.069693 
L 678.278477 101.250628 
L 678.641031 97.038368 
L 679.003584 96.7052 
L 679.366138 96.074837 
L 680.091245 97.939095 
L 680.453798 99.695339 
L 680.816352 103.154798 
L 681.178905 102.771145 
L 681.904012 100.914372 
L 682.266566 100.499093 
L 682.629119 100.514137 
L 682.991673 97.80537 
L 683.354226 98.115803 
L 683.716779 98.823622 
L 684.079333 100.297196 
L 684.441886 103.308354 
L 684.80444 101.591341 
L 685.166993 103.977507 
L 685.529547 102.697513 
L 685.8921 102.251087 
L 686.617207 96.235858 
L 687.342314 91.167279 
L 687.704868 91.04417 
L 688.067421 88.350412 
L 688.792528 90.713387 
L 689.155081 93.389635 
L 689.517635 94.047733 
L 689.880188 96.252258 
L 690.242742 94.465352 
L 690.605295 95.215346 
L 691.330402 90.355708 
L 691.692956 91.348683 
L 692.055509 91.620915 
L 692.418063 92.258082 
L 692.780616 93.127468 
L 693.14317 94.544309 
L 693.505723 97.408746 
L 693.868277 98.213588 
L 694.23083 97.782907 
L 694.593384 95.999497 
L 695.681044 86.037663 
L 696.043597 84.809905 
L 696.406151 84.450897 
L 696.768704 82.082367 
L 697.493811 86.063986 
L 697.856365 86.387706 
L 698.218918 88.573063 
L 698.581472 89.785453 
L 698.944025 88.41227 
L 699.306579 88.592431 
L 699.669132 89.126464 
L 700.031686 85.867972 
L 700.394239 84.96074 
L 700.756792 84.830057 
L 701.119346 86.497246 
L 701.481899 87.637089 
L 701.844453 90.561306 
L 702.207006 92.33875 
L 702.56956 92.74709 
L 702.932113 90.506664 
L 703.294667 90.384907 
L 703.65722 88.664077 
L 704.382327 82.143231 
L 704.744881 81.115722 
L 705.107434 79.173289 
L 705.469988 78.371669 
L 705.832541 80.648585 
L 706.557648 82.387673 
L 706.920201 84.561297 
L 707.645308 86.360664 
L 708.370415 84.620875 
L 708.732969 82.767838 
L 709.095522 82.54145 
L 709.458076 83.960933 
L 709.820629 84.432103 
L 710.183183 84.68726 
L 711.270843 89.730271 
L 711.99595 87.860561 
L 712.721057 83.220292 
L 713.08361 81.169382 
L 713.446164 77.891438 
L 713.808717 77.811127 
L 714.171271 76.980648 
L 714.533824 78.296555 
L 714.896378 78.491861 
L 715.258931 79.742477 
L 715.621485 81.613169 
L 715.984038 84.293414 
L 716.346592 82.747373 
L 716.709145 83.658553 
L 717.071699 81.490216 
L 717.434252 81.172477 
L 717.796805 79.72347 
L 718.159359 79.367611 
L 718.521912 81.814831 
L 718.884466 81.662184 
L 719.247019 82.62325 
L 719.609573 87.489839 
L 719.972126 87.293713 
L 720.697233 86.165521 
L 721.059787 84.916074 
L 721.42234 80.311724 
L 722.147447 76.126491 
L 722.510001 75.376028 
L 722.872554 74.976966 
L 723.235107 75.48005 
L 723.960214 79.09736 
L 724.685321 82.392098 
L 725.047875 82.938232 
L 725.410428 80.640595 
L 726.135535 78.297597 
L 726.498089 78.137579 
L 726.860642 77.42257 
L 727.223196 79.809597 
L 727.585749 81.090852 
L 727.948303 83.839758 
L 728.310856 84.393138 
L 728.673409 85.205229 
L 729.035963 86.708266 
L 729.398516 82.888303 
L 729.76107 82.233493 
L 730.486177 75.530788 
L 730.84873 72.355084 
L 731.211284 72.152405 
L 731.573837 71.017855 
L 731.936391 72.626001 
L 732.298944 72.938946 
L 732.661498 76.219599 
L 733.386605 77.920062 
L 733.749158 77.562707 
L 734.111712 76.050418 
L 734.474265 76.629451 
L 734.836818 75.206119 
L 735.199372 74.642232 
L 735.561925 73.71804 
L 735.924479 74.527044 
L 736.287032 77.544079 
L 736.649586 78.179926 
L 737.374693 80.223865 
L 737.737246 79.315308 
L 738.0998 78.886876 
L 738.824907 72.97072 
L 739.550014 69.96966 
L 739.912567 67.07261 
L 740.27512 68.001523 
L 740.637674 66.96 
L 741.362781 70.93917 
L 741.725334 73.389019 
L 742.087888 72.96077 
L 742.450441 72.100689 
L 742.812995 72.287703 
L 743.175548 70.15758 
L 743.538102 70.483802 
L 743.900655 68.818176 
L 744.263209 69.677705 
L 744.625762 69.154382 
L 744.988316 72.495058 
L 745.350869 73.069099 
L 745.713422 73.331252 
L 746.438529 74.786132 
L 746.801083 73.927998 
L 747.163636 71.586672 
L 747.163636 71.586672 
" style="fill:none;stroke:#1f77b4;stroke-linecap:square;stroke-width:1.5;"/>
   </g>
   <g id="line2d_15">
    <path clip-path="url(#p78ff9ded3a)" d="M 745.713422 384.48 
L 745.713422 51.84 
" style="fill:none;stroke:#808080;stroke-linecap:square;"/>
   </g>
   <g id="patch_59">
    <path d="M 108 384.48 
L 108 51.84 
" style="fill:none;stroke:#000000;stroke-linecap:square;stroke-linejoin:miter;stroke-width:0.8;"/>
   </g>
   <g id="patch_60">
    <path d="M 777.6 384.48 
L 777.6 51.84 
" style="fill:none;stroke:#000000;stroke-linecap:square;stroke-linejoin:miter;stroke-width:0.8;"/>
   </g>
   <g id="patch_61">
    <path d="M 108 384.48 
L 777.6 384.48 
" style="fill:none;stroke:#000000;stroke-linecap:square;stroke-linejoin:miter;stroke-width:0.8;"/>
   </g>
   <g id="patch_62">
    <path d="M 108 51.84 
L 777.6 51.84 
" style="fill:none;stroke:#000000;stroke-linecap:square;stroke-linejoin:miter;stroke-width:0.8;"/>
   </g>
   <g id="text_16">
    <!-- A4Benchmark-TS62.csv -->
    <defs>
     <path d="M 34.1875 63.1875 
L 20.796875 26.90625 
L 47.609375 26.90625 
z
M 28.609375 72.90625 
L 39.796875 72.90625 
L 67.578125 0 
L 57.328125 0 
L 50.6875 18.703125 
L 17.828125 18.703125 
L 11.1875 0 
L 0.78125 0 
z
" id="DejaVuSans-65"/>
     <path d="M 37.796875 64.3125 
L 12.890625 25.390625 
L 37.796875 25.390625 
z
M 35.203125 72.90625 
L 47.609375 72.90625 
L 47.609375 25.390625 
L 58.015625 25.390625 
L 58.015625 17.1875 
L 47.609375 17.1875 
L 47.609375 0 
L 37.796875 0 
L 37.796875 17.1875 
L 4.890625 17.1875 
L 4.890625 26.703125 
z
" id="DejaVuSans-52"/>
     <path d="M 19.671875 34.8125 
L 19.671875 8.109375 
L 35.5 8.109375 
Q 43.453125 8.109375 47.28125 11.40625 
Q 51.125 14.703125 51.125 21.484375 
Q 51.125 28.328125 47.28125 31.5625 
Q 43.453125 34.8125 35.5 34.8125 
z
M 19.671875 64.796875 
L 19.671875 42.828125 
L 34.28125 42.828125 
Q 41.5 42.828125 45.03125 45.53125 
Q 48.578125 48.25 48.578125 53.8125 
Q 48.578125 59.328125 45.03125 62.0625 
Q 41.5 64.796875 34.28125 64.796875 
z
M 9.8125 72.90625 
L 35.015625 72.90625 
Q 46.296875 72.90625 52.390625 68.21875 
Q 58.5 63.53125 58.5 54.890625 
Q 58.5 48.1875 55.375 44.234375 
Q 52.25 40.28125 46.1875 39.3125 
Q 53.46875 37.75 57.5 32.78125 
Q 61.53125 27.828125 61.53125 20.40625 
Q 61.53125 10.640625 54.890625 5.3125 
Q 48.25 0 35.984375 0 
L 9.8125 0 
z
" id="DejaVuSans-66"/>
     <path d="M 54.890625 33.015625 
L 54.890625 0 
L 45.90625 0 
L 45.90625 32.71875 
Q 45.90625 40.484375 42.875 44.328125 
Q 39.84375 48.1875 33.796875 48.1875 
Q 26.515625 48.1875 22.3125 43.546875 
Q 18.109375 38.921875 18.109375 30.90625 
L 18.109375 0 
L 9.078125 0 
L 9.078125 54.6875 
L 18.109375 54.6875 
L 18.109375 46.1875 
Q 21.34375 51.125 25.703125 53.5625 
Q 30.078125 56 35.796875 56 
Q 45.21875 56 50.046875 50.171875 
Q 54.890625 44.34375 54.890625 33.015625 
z
" id="DejaVuSans-110"/>
     <path d="M 48.78125 52.59375 
L 48.78125 44.1875 
Q 44.96875 46.296875 41.140625 47.34375 
Q 37.3125 48.390625 33.40625 48.390625 
Q 24.65625 48.390625 19.8125 42.84375 
Q 14.984375 37.3125 14.984375 27.296875 
Q 14.984375 17.28125 19.8125 11.734375 
Q 24.65625 6.203125 33.40625 6.203125 
Q 37.3125 6.203125 41.140625 7.25 
Q 44.96875 8.296875 48.78125 10.40625 
L 48.78125 2.09375 
Q 45.015625 0.34375 40.984375 -0.53125 
Q 36.96875 -1.421875 32.421875 -1.421875 
Q 20.0625 -1.421875 12.78125 6.34375 
Q 5.515625 14.109375 5.515625 27.296875 
Q 5.515625 40.671875 12.859375 48.328125 
Q 20.21875 56 33.015625 56 
Q 37.15625 56 41.109375 55.140625 
Q 45.0625 54.296875 48.78125 52.59375 
z
" id="DejaVuSans-99"/>
     <path d="M 54.890625 33.015625 
L 54.890625 0 
L 45.90625 0 
L 45.90625 32.71875 
Q 45.90625 40.484375 42.875 44.328125 
Q 39.84375 48.1875 33.796875 48.1875 
Q 26.515625 48.1875 22.3125 43.546875 
Q 18.109375 38.921875 18.109375 30.90625 
L 18.109375 0 
L 9.078125 0 
L 9.078125 75.984375 
L 18.109375 75.984375 
L 18.109375 46.1875 
Q 21.34375 51.125 25.703125 53.5625 
Q 30.078125 56 35.796875 56 
Q 45.21875 56 50.046875 50.171875 
Q 54.890625 44.34375 54.890625 33.015625 
z
" id="DejaVuSans-104"/>
     <path d="M 41.109375 46.296875 
Q 39.59375 47.171875 37.8125 47.578125 
Q 36.03125 48 33.890625 48 
Q 26.265625 48 22.1875 43.046875 
Q 18.109375 38.09375 18.109375 28.8125 
L 18.109375 0 
L 9.078125 0 
L 9.078125 54.6875 
L 18.109375 54.6875 
L 18.109375 46.1875 
Q 20.953125 51.171875 25.484375 53.578125 
Q 30.03125 56 36.53125 56 
Q 37.453125 56 38.578125 55.875 
Q 39.703125 55.765625 41.0625 55.515625 
z
" id="DejaVuSans-114"/>
     <path d="M 9.078125 75.984375 
L 18.109375 75.984375 
L 18.109375 31.109375 
L 44.921875 54.6875 
L 56.390625 54.6875 
L 27.390625 29.109375 
L 57.625 0 
L 45.90625 0 
L 18.109375 26.703125 
L 18.109375 0 
L 9.078125 0 
z
" id="DejaVuSans-107"/>
     <path d="M 4.890625 31.390625 
L 31.203125 31.390625 
L 31.203125 23.390625 
L 4.890625 23.390625 
z
" id="DejaVuSans-45"/>
     <path d="M 53.515625 70.515625 
L 53.515625 60.890625 
Q 47.90625 63.578125 42.921875 64.890625 
Q 37.9375 66.21875 33.296875 66.21875 
Q 25.25 66.21875 20.875 63.09375 
Q 16.5 59.96875 16.5 54.203125 
Q 16.5 49.359375 19.40625 46.890625 
Q 22.3125 44.4375 30.421875 42.921875 
L 36.375 41.703125 
Q 47.40625 39.59375 52.65625 34.296875 
Q 57.90625 29 57.90625 20.125 
Q 57.90625 9.515625 50.796875 4.046875 
Q 43.703125 -1.421875 29.984375 -1.421875 
Q 24.8125 -1.421875 18.96875 -0.25 
Q 13.140625 0.921875 6.890625 3.21875 
L 6.890625 13.375 
Q 12.890625 10.015625 18.65625 8.296875 
Q 24.421875 6.59375 29.984375 6.59375 
Q 38.421875 6.59375 43.015625 9.90625 
Q 47.609375 13.234375 47.609375 19.390625 
Q 47.609375 24.75 44.3125 27.78125 
Q 41.015625 30.8125 33.5 32.328125 
L 27.484375 33.5 
Q 16.453125 35.6875 11.515625 40.375 
Q 6.59375 45.0625 6.59375 53.421875 
Q 6.59375 63.09375 13.40625 68.65625 
Q 20.21875 74.21875 32.171875 74.21875 
Q 37.3125 74.21875 42.625 73.28125 
Q 47.953125 72.359375 53.515625 70.515625 
z
" id="DejaVuSans-83"/>
     <path d="M 33.015625 40.375 
Q 26.375 40.375 22.484375 35.828125 
Q 18.609375 31.296875 18.609375 23.390625 
Q 18.609375 15.53125 22.484375 10.953125 
Q 26.375 6.390625 33.015625 6.390625 
Q 39.65625 6.390625 43.53125 10.953125 
Q 47.40625 15.53125 47.40625 23.390625 
Q 47.40625 31.296875 43.53125 35.828125 
Q 39.65625 40.375 33.015625 40.375 
z
M 52.59375 71.296875 
L 52.59375 62.3125 
Q 48.875 64.0625 45.09375 64.984375 
Q 41.3125 65.921875 37.59375 65.921875 
Q 27.828125 65.921875 22.671875 59.328125 
Q 17.53125 52.734375 16.796875 39.40625 
Q 19.671875 43.65625 24.015625 45.921875 
Q 28.375 48.1875 33.59375 48.1875 
Q 44.578125 48.1875 50.953125 41.515625 
Q 57.328125 34.859375 57.328125 23.390625 
Q 57.328125 12.15625 50.6875 5.359375 
Q 44.046875 -1.421875 33.015625 -1.421875 
Q 20.359375 -1.421875 13.671875 8.265625 
Q 6.984375 17.96875 6.984375 36.375 
Q 6.984375 53.65625 15.1875 63.9375 
Q 23.390625 74.21875 37.203125 74.21875 
Q 40.921875 74.21875 44.703125 73.484375 
Q 48.484375 72.75 52.59375 71.296875 
z
" id="DejaVuSans-54"/>
     <path d="M 10.6875 12.40625 
L 21 12.40625 
L 21 0 
L 10.6875 0 
z
" id="DejaVuSans-46"/>
     <path d="M 2.984375 54.6875 
L 12.5 54.6875 
L 29.59375 8.796875 
L 46.6875 54.6875 
L 56.203125 54.6875 
L 35.6875 0 
L 23.484375 0 
z
" id="DejaVuSans-118"/>
    </defs>
    <g transform="translate(371.555625 45.84)scale(0.12 -0.12)">
     <use xlink:href="#DejaVuSans-65"/>
     <use x="68.408203" xlink:href="#DejaVuSans-52"/>
     <use x="132.03125" xlink:href="#DejaVuSans-66"/>
     <use x="200.634766" xlink:href="#DejaVuSans-101"/>
     <use x="262.158203" xlink:href="#DejaVuSans-110"/>
     <use x="325.537109" xlink:href="#DejaVuSans-99"/>
     <use x="380.517578" xlink:href="#DejaVuSans-104"/>
     <use x="443.896484" xlink:href="#DejaVuSans-109"/>
     <use x="541.308594" xlink:href="#DejaVuSans-97"/>
     <use x="602.587891" xlink:href="#DejaVuSans-114"/>
     <use x="643.701172" xlink:href="#DejaVuSans-107"/>
     <use x="701.611328" xlink:href="#DejaVuSans-45"/>
     <use x="737.554688" xlink:href="#DejaVuSans-84"/>
     <use x="798.638672" xlink:href="#DejaVuSans-83"/>
     <use x="862.115234" xlink:href="#DejaVuSans-54"/>
     <use x="925.738281" xlink:href="#DejaVuSans-50"/>
     <use x="989.361328" xlink:href="#DejaVuSans-46"/>
     <use x="1021.148438" xlink:href="#DejaVuSans-99"/>
     <use x="1076.128906" xlink:href="#DejaVuSans-115"/>
     <use x="1128.228516" xlink:href="#DejaVuSans-118"/>
    </g>
   </g>
   <g id="legend_1">
    <g id="patch_63">
     <path d="M 711.284375 379.48 
L 770.6 379.48 
Q 772.6 379.48 772.6 377.48 
L 772.6 363.801875 
Q 772.6 361.801875 770.6 361.801875 
L 711.284375 361.801875 
Q 709.284375 361.801875 709.284375 363.801875 
L 709.284375 377.48 
Q 709.284375 379.48 711.284375 379.48 
z
" style="fill:#ffffff;opacity:0.8;stroke:#cccccc;stroke-linejoin:miter;"/>
    </g>
    <g id="line2d_16">
     <path d="M 713.284375 369.900312 
L 733.284375 369.900312 
" style="fill:none;stroke:#1f77b4;stroke-linecap:square;stroke-width:1.5;"/>
    </g>
    <g id="line2d_17"/>
    <g id="text_17">
     <!-- value -->
     <g transform="translate(741.284375 373.400312)scale(0.1 -0.1)">
      <use xlink:href="#DejaVuSans-118"/>
      <use x="59.179688" xlink:href="#DejaVuSans-97"/>
      <use x="120.458984" xlink:href="#DejaVuSans-108"/>
      <use x="148.242188" xlink:href="#DejaVuSans-117"/>
      <use x="211.621094" xlink:href="#DejaVuSans-101"/>
     </g>
    </g>
   </g>
  </g>
 </g>
 <defs>
  <clipPath id="p78ff9ded3a">
   <rect height="332.64" width="669.6" x="108" y="51.84"/>
  </clipPath>
 </defs>
</svg>
