<?xml version="1.0" encoding="utf-8" standalone="no"?>
<!DOCTYPE svg PUBLIC "-//W3C//DTD SVG 1.1//EN"
  "http://www.w3.org/Graphics/SVG/1.1/DTD/svg11.dtd">
<!-- Created with matplotlib (https://matplotlib.org/) -->
<svg height="432pt" version="1.1" viewBox="0 0 864 432" width="864pt" xmlns="http://www.w3.org/2000/svg" xmlns:xlink="http://www.w3.org/1999/xlink">
 <defs>
  <style type="text/css">
*{stroke-linecap:butt;stroke-linejoin:round;}
  </style>
 </defs>
 <g id="figure_1">
  <g id="patch_1">
   <path d="M 0 432 
L 864 432 
L 864 0 
L 0 0 
z
" style="fill:#ffffff;"/>
  </g>
  <g id="axes_1">
   <g id="patch_2">
    <path d="M 108 384.48 
L 777.6 384.48 
L 777.6 51.84 
L 108 51.84 
z
" style="fill:#ffffff;"/>
   </g>
   <g id="patch_3">
    <path clip-path="url(#pa46e3063f9)" d="M 138.436364 384.48 
L 138.436364 51.84 
L 374.096118 51.84 
L 374.096118 384.48 
z
" style="fill:#0000ff;opacity:0.05;"/>
   </g>
   <g id="patch_4">
    <path clip-path="url(#pa46e3063f9)" d="M 374.096118 384.48 
L 374.096118 51.84 
L 745.713422 51.84 
L 745.713422 384.48 
z
" style="fill:#ff0000;opacity:0.08;"/>
   </g>
   <g id="patch_5">
    <path clip-path="url(#pa46e3063f9)" d="M 138.436364 384.48 
L 138.436364 51.84 
L 147.5002 51.84 
L 147.5002 384.48 
z
" style="fill:#008000;opacity:0.04;"/>
   </g>
   <g id="patch_6">
    <path clip-path="url(#pa46e3063f9)" d="M 156.564037 384.48 
L 156.564037 51.84 
L 165.627874 51.84 
L 165.627874 384.48 
z
" style="fill:#008000;opacity:0.04;"/>
   </g>
   <g id="patch_7">
    <path clip-path="url(#pa46e3063f9)" d="M 156.564037 384.48 
L 156.564037 371.1744 
L 165.627874 371.1744 
L 165.627874 384.48 
z
" style="fill:#ffe500;"/>
   </g>
   <g id="patch_8">
    <path clip-path="url(#pa46e3063f9)" d="M 174.69171 384.48 
L 174.69171 51.84 
L 183.755547 51.84 
L 183.755547 384.48 
z
" style="fill:#008000;opacity:0.04;"/>
   </g>
   <g id="patch_9">
    <path clip-path="url(#pa46e3063f9)" d="M 183.755547 371.1744 
L 183.755547 51.84 
L 192.819384 51.84 
L 192.819384 371.1744 
z
" style="fill:#008000;opacity:0.5;"/>
   </g>
   <g id="patch_10">
    <path clip-path="url(#pa46e3063f9)" d="M 183.755547 384.48 
L 183.755547 371.1744 
L 192.819384 371.1744 
L 192.819384 384.48 
z
" style="fill:#ffe500;"/>
   </g>
   <g id="patch_11">
    <path clip-path="url(#pa46e3063f9)" d="M 192.819384 384.48 
L 192.819384 51.84 
L 201.883221 51.84 
L 201.883221 384.48 
z
" style="fill:#008000;opacity:0.04;"/>
   </g>
   <g id="patch_12">
    <path clip-path="url(#pa46e3063f9)" d="M 210.947057 384.48 
L 210.947057 51.84 
L 220.010894 51.84 
L 220.010894 384.48 
z
" style="fill:#008000;opacity:0.04;"/>
   </g>
   <g id="patch_13">
    <path clip-path="url(#pa46e3063f9)" d="M 229.074731 384.48 
L 229.074731 51.84 
L 238.138567 51.84 
L 238.138567 384.48 
z
" style="fill:#008000;opacity:0.04;"/>
   </g>
   <g id="patch_14">
    <path clip-path="url(#pa46e3063f9)" d="M 238.138567 371.1744 
L 238.138567 357.8688 
L 247.202404 357.8688 
L 247.202404 371.1744 
z
" style="fill:#ff00ff;"/>
   </g>
   <g id="patch_15">
    <path clip-path="url(#pa46e3063f9)" d="M 247.202404 384.48 
L 247.202404 51.84 
L 256.266241 51.84 
L 256.266241 384.48 
z
" style="fill:#008000;opacity:0.04;"/>
   </g>
   <g id="patch_16">
    <path clip-path="url(#pa46e3063f9)" d="M 265.330077 384.48 
L 265.330077 51.84 
L 274.393914 51.84 
L 274.393914 384.48 
z
" style="fill:#008000;opacity:0.04;"/>
   </g>
   <g id="patch_17">
    <path clip-path="url(#pa46e3063f9)" d="M 283.457751 384.48 
L 283.457751 51.84 
L 292.521588 51.84 
L 292.521588 384.48 
z
" style="fill:#008000;opacity:0.04;"/>
   </g>
   <g id="patch_18">
    <path clip-path="url(#pa46e3063f9)" d="M 283.457751 371.1744 
L 283.457751 51.84 
L 292.521588 51.84 
L 292.521588 371.1744 
z
" style="fill:#008000;opacity:0.5;"/>
   </g>
   <g id="patch_19">
    <path clip-path="url(#pa46e3063f9)" d="M 292.521588 371.1744 
L 292.521588 51.84 
L 301.585424 51.84 
L 301.585424 371.1744 
z
" style="fill:#008000;opacity:0.5;"/>
   </g>
   <g id="patch_20">
    <path clip-path="url(#pa46e3063f9)" d="M 301.585424 384.48 
L 301.585424 51.84 
L 310.649261 51.84 
L 310.649261 384.48 
z
" style="fill:#008000;opacity:0.04;"/>
   </g>
   <g id="patch_21">
    <path clip-path="url(#pa46e3063f9)" d="M 546.309015 384.48 
L 546.309015 371.1744 
L 555.372852 371.1744 
L 555.372852 384.48 
z
" style="fill:#ff6600;"/>
   </g>
   <g id="patch_22">
    <path clip-path="url(#pa46e3063f9)" d="M 319.713098 384.48 
L 319.713098 51.84 
L 328.776934 51.84 
L 328.776934 384.48 
z
" style="fill:#008000;opacity:0.04;"/>
   </g>
   <g id="patch_23">
    <path clip-path="url(#pa46e3063f9)" d="M 555.372852 384.48 
L 555.372852 371.1744 
L 564.436689 371.1744 
L 564.436689 384.48 
z
" style="fill:#ff6600;"/>
   </g>
   <g id="patch_24">
    <path clip-path="url(#pa46e3063f9)" d="M 564.436689 384.48 
L 564.436689 371.1744 
L 573.500525 371.1744 
L 573.500525 384.48 
z
" style="fill:#ff6600;"/>
   </g>
   <g id="patch_25">
    <path clip-path="url(#pa46e3063f9)" d="M 337.840771 384.48 
L 337.840771 51.84 
L 346.904608 51.84 
L 346.904608 384.48 
z
" style="fill:#008000;opacity:0.04;"/>
   </g>
   <g id="patch_26">
    <path clip-path="url(#pa46e3063f9)" d="M 355.968444 384.48 
L 355.968444 51.84 
L 365.032281 51.84 
L 365.032281 384.48 
z
" style="fill:#008000;opacity:0.04;"/>
   </g>
   <g id="patch_27">
    <path clip-path="url(#pa46e3063f9)" d="M 365.032281 371.1744 
L 365.032281 51.84 
L 374.096118 51.84 
L 374.096118 371.1744 
z
" style="fill:#008000;opacity:0.5;"/>
   </g>
   <g id="patch_28">
    <path clip-path="url(#pa46e3063f9)" d="M 374.096118 384.48 
L 374.096118 51.84 
L 383.159955 51.84 
L 383.159955 384.48 
z
" style="fill:#008000;opacity:0.04;"/>
   </g>
   <g id="patch_29">
    <path clip-path="url(#pa46e3063f9)" d="M 392.223791 384.48 
L 392.223791 51.84 
L 401.287628 51.84 
L 401.287628 384.48 
z
" style="fill:#008000;opacity:0.04;"/>
   </g>
   <g id="patch_30">
    <path clip-path="url(#pa46e3063f9)" d="M 410.351465 384.48 
L 410.351465 51.84 
L 419.415301 51.84 
L 419.415301 384.48 
z
" style="fill:#008000;opacity:0.04;"/>
   </g>
   <g id="patch_31">
    <path clip-path="url(#pa46e3063f9)" d="M 410.351465 371.1744 
L 410.351465 51.84 
L 419.415301 51.84 
L 419.415301 371.1744 
z
" style="fill:#008000;opacity:0.5;"/>
   </g>
   <g id="patch_32">
    <path clip-path="url(#pa46e3063f9)" d="M 655.075055 384.48 
L 655.075055 371.1744 
L 664.138892 371.1744 
L 664.138892 384.48 
z
" style="fill:#ff6600;"/>
   </g>
   <g id="patch_33">
    <path clip-path="url(#pa46e3063f9)" d="M 428.479138 384.48 
L 428.479138 51.84 
L 437.542975 51.84 
L 437.542975 384.48 
z
" style="fill:#008000;opacity:0.04;"/>
   </g>
   <g id="patch_34">
    <path clip-path="url(#pa46e3063f9)" d="M 437.542975 371.1744 
L 437.542975 357.8688 
L 446.606811 357.8688 
L 446.606811 371.1744 
z
" style="fill:#ff00ff;"/>
   </g>
   <g id="patch_35">
    <path clip-path="url(#pa46e3063f9)" d="M 446.606811 384.48 
L 446.606811 51.84 
L 455.670648 51.84 
L 455.670648 384.48 
z
" style="fill:#008000;opacity:0.04;"/>
   </g>
   <g id="patch_36">
    <path clip-path="url(#pa46e3063f9)" d="M 464.734485 384.48 
L 464.734485 51.84 
L 473.798322 51.84 
L 473.798322 384.48 
z
" style="fill:#008000;opacity:0.04;"/>
   </g>
   <g id="patch_37">
    <path clip-path="url(#pa46e3063f9)" d="M 482.862158 384.48 
L 482.862158 51.84 
L 491.925995 51.84 
L 491.925995 384.48 
z
" style="fill:#008000;opacity:0.04;"/>
   </g>
   <g id="patch_38">
    <path clip-path="url(#pa46e3063f9)" d="M 500.989832 384.48 
L 500.989832 51.84 
L 510.053668 51.84 
L 510.053668 384.48 
z
" style="fill:#008000;opacity:0.04;"/>
   </g>
   <g id="patch_39">
    <path clip-path="url(#pa46e3063f9)" d="M 519.117505 384.48 
L 519.117505 51.84 
L 528.181342 51.84 
L 528.181342 384.48 
z
" style="fill:#008000;opacity:0.04;"/>
   </g>
   <g id="patch_40">
    <path clip-path="url(#pa46e3063f9)" d="M 519.117505 371.1744 
L 519.117505 51.84 
L 528.181342 51.84 
L 528.181342 371.1744 
z
" style="fill:#008000;opacity:0.5;"/>
   </g>
   <g id="patch_41">
    <path clip-path="url(#pa46e3063f9)" d="M 537.245178 384.48 
L 537.245178 51.84 
L 546.309015 51.84 
L 546.309015 384.48 
z
" style="fill:#008000;opacity:0.04;"/>
   </g>
   <g id="patch_42">
    <path clip-path="url(#pa46e3063f9)" d="M 537.245178 371.1744 
L 537.245178 357.8688 
L 546.309015 357.8688 
L 546.309015 371.1744 
z
" style="fill:#ff00ff;"/>
   </g>
   <g id="patch_43">
    <path clip-path="url(#pa46e3063f9)" d="M 555.372852 384.48 
L 555.372852 51.84 
L 564.436689 51.84 
L 564.436689 384.48 
z
" style="fill:#008000;opacity:0.04;"/>
   </g>
   <g id="patch_44">
    <path clip-path="url(#pa46e3063f9)" d="M 573.500525 384.48 
L 573.500525 51.84 
L 582.564362 51.84 
L 582.564362 384.48 
z
" style="fill:#008000;opacity:0.04;"/>
   </g>
   <g id="patch_45">
    <path clip-path="url(#pa46e3063f9)" d="M 591.628199 384.48 
L 591.628199 51.84 
L 600.692035 51.84 
L 600.692035 384.48 
z
" style="fill:#008000;opacity:0.04;"/>
   </g>
   <g id="patch_46">
    <path clip-path="url(#pa46e3063f9)" d="M 609.755872 384.48 
L 609.755872 51.84 
L 618.819709 51.84 
L 618.819709 384.48 
z
" style="fill:#008000;opacity:0.04;"/>
   </g>
   <g id="patch_47">
    <path clip-path="url(#pa46e3063f9)" d="M 627.883545 384.48 
L 627.883545 51.84 
L 636.947382 51.84 
L 636.947382 384.48 
z
" style="fill:#008000;opacity:0.04;"/>
   </g>
   <g id="patch_48">
    <path clip-path="url(#pa46e3063f9)" d="M 636.947382 371.1744 
L 636.947382 357.8688 
L 646.011219 357.8688 
L 646.011219 371.1744 
z
" style="fill:#ff00ff;"/>
   </g>
   <g id="patch_49">
    <path clip-path="url(#pa46e3063f9)" d="M 646.011219 384.48 
L 646.011219 51.84 
L 655.075055 51.84 
L 655.075055 384.48 
z
" style="fill:#008000;opacity:0.04;"/>
   </g>
   <g id="patch_50">
    <path clip-path="url(#pa46e3063f9)" d="M 655.075055 371.1744 
L 655.075055 51.84 
L 664.138892 51.84 
L 664.138892 371.1744 
z
" style="fill:#008000;opacity:0.5;"/>
   </g>
   <g id="patch_51">
    <path clip-path="url(#pa46e3063f9)" d="M 664.138892 384.48 
L 664.138892 51.84 
L 673.202729 51.84 
L 673.202729 384.48 
z
" style="fill:#008000;opacity:0.04;"/>
   </g>
   <g id="patch_52">
    <path clip-path="url(#pa46e3063f9)" d="M 682.266566 384.48 
L 682.266566 51.84 
L 691.330402 51.84 
L 691.330402 384.48 
z
" style="fill:#008000;opacity:0.04;"/>
   </g>
   <g id="patch_53">
    <path clip-path="url(#pa46e3063f9)" d="M 700.394239 384.48 
L 700.394239 51.84 
L 709.458076 51.84 
L 709.458076 384.48 
z
" style="fill:#008000;opacity:0.04;"/>
   </g>
   <g id="patch_54">
    <path clip-path="url(#pa46e3063f9)" d="M 718.521912 384.48 
L 718.521912 51.84 
L 727.585749 51.84 
L 727.585749 384.48 
z
" style="fill:#008000;opacity:0.04;"/>
   </g>
   <g id="patch_55">
    <path clip-path="url(#pa46e3063f9)" d="M 727.585749 371.1744 
L 727.585749 51.84 
L 736.649586 51.84 
L 736.649586 371.1744 
z
" style="fill:#008000;opacity:0.5;"/>
   </g>
   <g id="patch_56">
    <path clip-path="url(#pa46e3063f9)" d="M 736.649586 384.48 
L 736.649586 51.84 
L 745.713422 51.84 
L 745.713422 384.48 
z
" style="fill:#008000;opacity:0.04;"/>
   </g>
   <g id="matplotlib.axis_1">
    <g id="xtick_1">
     <g id="line2d_1">
      <defs>
       <path d="M 0 0 
L 0 3.5 
" id="mb5cfda7757" style="stroke:#000000;stroke-width:0.8;"/>
      </defs>
      <g>
       <use style="stroke:#000000;stroke-width:0.8;" x="138.436364" xlink:href="#mb5cfda7757" y="384.48"/>
      </g>
     </g>
     <g id="text_1">
      <!-- 0 -->
      <defs>
       <path d="M 31.78125 66.40625 
Q 24.171875 66.40625 20.328125 58.90625 
Q 16.5 51.421875 16.5 36.375 
Q 16.5 21.390625 20.328125 13.890625 
Q 24.171875 6.390625 31.78125 6.390625 
Q 39.453125 6.390625 43.28125 13.890625 
Q 47.125 21.390625 47.125 36.375 
Q 47.125 51.421875 43.28125 58.90625 
Q 39.453125 66.40625 31.78125 66.40625 
z
M 31.78125 74.21875 
Q 44.046875 74.21875 50.515625 64.515625 
Q 56.984375 54.828125 56.984375 36.375 
Q 56.984375 17.96875 50.515625 8.265625 
Q 44.046875 -1.421875 31.78125 -1.421875 
Q 19.53125 -1.421875 13.0625 8.265625 
Q 6.59375 17.96875 6.59375 36.375 
Q 6.59375 54.828125 13.0625 64.515625 
Q 19.53125 74.21875 31.78125 74.21875 
z
" id="DejaVuSans-48"/>
      </defs>
      <g transform="translate(135.255114 399.078438)scale(0.1 -0.1)">
       <use xlink:href="#DejaVuSans-48"/>
      </g>
     </g>
    </g>
    <g id="xtick_2">
     <g id="line2d_2">
      <g>
       <use style="stroke:#000000;stroke-width:0.8;" x="229.074731" xlink:href="#mb5cfda7757" y="384.48"/>
      </g>
     </g>
     <g id="text_2">
      <!-- 250 -->
      <defs>
       <path d="M 19.1875 8.296875 
L 53.609375 8.296875 
L 53.609375 0 
L 7.328125 0 
L 7.328125 8.296875 
Q 12.9375 14.109375 22.625 23.890625 
Q 32.328125 33.6875 34.8125 36.53125 
Q 39.546875 41.84375 41.421875 45.53125 
Q 43.3125 49.21875 43.3125 52.78125 
Q 43.3125 58.59375 39.234375 62.25 
Q 35.15625 65.921875 28.609375 65.921875 
Q 23.96875 65.921875 18.8125 64.3125 
Q 13.671875 62.703125 7.8125 59.421875 
L 7.8125 69.390625 
Q 13.765625 71.78125 18.9375 73 
Q 24.125 74.21875 28.421875 74.21875 
Q 39.75 74.21875 46.484375 68.546875 
Q 53.21875 62.890625 53.21875 53.421875 
Q 53.21875 48.921875 51.53125 44.890625 
Q 49.859375 40.875 45.40625 35.40625 
Q 44.1875 33.984375 37.640625 27.21875 
Q 31.109375 20.453125 19.1875 8.296875 
z
" id="DejaVuSans-50"/>
       <path d="M 10.796875 72.90625 
L 49.515625 72.90625 
L 49.515625 64.59375 
L 19.828125 64.59375 
L 19.828125 46.734375 
Q 21.96875 47.46875 24.109375 47.828125 
Q 26.265625 48.1875 28.421875 48.1875 
Q 40.625 48.1875 47.75 41.5 
Q 54.890625 34.8125 54.890625 23.390625 
Q 54.890625 11.625 47.5625 5.09375 
Q 40.234375 -1.421875 26.90625 -1.421875 
Q 22.3125 -1.421875 17.546875 -0.640625 
Q 12.796875 0.140625 7.71875 1.703125 
L 7.71875 11.625 
Q 12.109375 9.234375 16.796875 8.0625 
Q 21.484375 6.890625 26.703125 6.890625 
Q 35.15625 6.890625 40.078125 11.328125 
Q 45.015625 15.765625 45.015625 23.390625 
Q 45.015625 31 40.078125 35.4375 
Q 35.15625 39.890625 26.703125 39.890625 
Q 22.75 39.890625 18.8125 39.015625 
Q 14.890625 38.140625 10.796875 36.28125 
z
" id="DejaVuSans-53"/>
      </defs>
      <g transform="translate(219.530981 399.078438)scale(0.1 -0.1)">
       <use xlink:href="#DejaVuSans-50"/>
       <use x="63.623047" xlink:href="#DejaVuSans-53"/>
       <use x="127.246094" xlink:href="#DejaVuSans-48"/>
      </g>
     </g>
    </g>
    <g id="xtick_3">
     <g id="line2d_3">
      <g>
       <use style="stroke:#000000;stroke-width:0.8;" x="319.713098" xlink:href="#mb5cfda7757" y="384.48"/>
      </g>
     </g>
     <g id="text_3">
      <!-- 500 -->
      <g transform="translate(310.169348 399.078438)scale(0.1 -0.1)">
       <use xlink:href="#DejaVuSans-53"/>
       <use x="63.623047" xlink:href="#DejaVuSans-48"/>
       <use x="127.246094" xlink:href="#DejaVuSans-48"/>
      </g>
     </g>
    </g>
    <g id="xtick_4">
     <g id="line2d_4">
      <g>
       <use style="stroke:#000000;stroke-width:0.8;" x="410.351465" xlink:href="#mb5cfda7757" y="384.48"/>
      </g>
     </g>
     <g id="text_4">
      <!-- 750 -->
      <defs>
       <path d="M 8.203125 72.90625 
L 55.078125 72.90625 
L 55.078125 68.703125 
L 28.609375 0 
L 18.3125 0 
L 43.21875 64.59375 
L 8.203125 64.59375 
z
" id="DejaVuSans-55"/>
      </defs>
      <g transform="translate(400.807715 399.078438)scale(0.1 -0.1)">
       <use xlink:href="#DejaVuSans-55"/>
       <use x="63.623047" xlink:href="#DejaVuSans-53"/>
       <use x="127.246094" xlink:href="#DejaVuSans-48"/>
      </g>
     </g>
    </g>
    <g id="xtick_5">
     <g id="line2d_5">
      <g>
       <use style="stroke:#000000;stroke-width:0.8;" x="500.989832" xlink:href="#mb5cfda7757" y="384.48"/>
      </g>
     </g>
     <g id="text_5">
      <!-- 1000 -->
      <defs>
       <path d="M 12.40625 8.296875 
L 28.515625 8.296875 
L 28.515625 63.921875 
L 10.984375 60.40625 
L 10.984375 69.390625 
L 28.421875 72.90625 
L 38.28125 72.90625 
L 38.28125 8.296875 
L 54.390625 8.296875 
L 54.390625 0 
L 12.40625 0 
z
" id="DejaVuSans-49"/>
      </defs>
      <g transform="translate(488.264832 399.078438)scale(0.1 -0.1)">
       <use xlink:href="#DejaVuSans-49"/>
       <use x="63.623047" xlink:href="#DejaVuSans-48"/>
       <use x="127.246094" xlink:href="#DejaVuSans-48"/>
       <use x="190.869141" xlink:href="#DejaVuSans-48"/>
      </g>
     </g>
    </g>
    <g id="xtick_6">
     <g id="line2d_6">
      <g>
       <use style="stroke:#000000;stroke-width:0.8;" x="591.628199" xlink:href="#mb5cfda7757" y="384.48"/>
      </g>
     </g>
     <g id="text_6">
      <!-- 1250 -->
      <g transform="translate(578.903199 399.078438)scale(0.1 -0.1)">
       <use xlink:href="#DejaVuSans-49"/>
       <use x="63.623047" xlink:href="#DejaVuSans-50"/>
       <use x="127.246094" xlink:href="#DejaVuSans-53"/>
       <use x="190.869141" xlink:href="#DejaVuSans-48"/>
      </g>
     </g>
    </g>
    <g id="xtick_7">
     <g id="line2d_7">
      <g>
       <use style="stroke:#000000;stroke-width:0.8;" x="682.266566" xlink:href="#mb5cfda7757" y="384.48"/>
      </g>
     </g>
     <g id="text_7">
      <!-- 1500 -->
      <g transform="translate(669.541566 399.078438)scale(0.1 -0.1)">
       <use xlink:href="#DejaVuSans-49"/>
       <use x="63.623047" xlink:href="#DejaVuSans-53"/>
       <use x="127.246094" xlink:href="#DejaVuSans-48"/>
       <use x="190.869141" xlink:href="#DejaVuSans-48"/>
      </g>
     </g>
    </g>
    <g id="xtick_8">
     <g id="line2d_8">
      <g>
       <use style="stroke:#000000;stroke-width:0.8;" x="772.904933" xlink:href="#mb5cfda7757" y="384.48"/>
      </g>
     </g>
     <g id="text_8">
      <!-- 1750 -->
      <g transform="translate(760.179933 399.078438)scale(0.1 -0.1)">
       <use xlink:href="#DejaVuSans-49"/>
       <use x="63.623047" xlink:href="#DejaVuSans-55"/>
       <use x="127.246094" xlink:href="#DejaVuSans-53"/>
       <use x="190.869141" xlink:href="#DejaVuSans-48"/>
      </g>
     </g>
    </g>
    <g id="text_9">
     <!-- Timestamp -->
     <defs>
      <path d="M -0.296875 72.90625 
L 61.375 72.90625 
L 61.375 64.59375 
L 35.5 64.59375 
L 35.5 0 
L 25.59375 0 
L 25.59375 64.59375 
L -0.296875 64.59375 
z
" id="DejaVuSans-84"/>
      <path d="M 9.421875 54.6875 
L 18.40625 54.6875 
L 18.40625 0 
L 9.421875 0 
z
M 9.421875 75.984375 
L 18.40625 75.984375 
L 18.40625 64.59375 
L 9.421875 64.59375 
z
" id="DejaVuSans-105"/>
      <path d="M 52 44.1875 
Q 55.375 50.25 60.0625 53.125 
Q 64.75 56 71.09375 56 
Q 79.640625 56 84.28125 50.015625 
Q 88.921875 44.046875 88.921875 33.015625 
L 88.921875 0 
L 79.890625 0 
L 79.890625 32.71875 
Q 79.890625 40.578125 77.09375 44.375 
Q 74.3125 48.1875 68.609375 48.1875 
Q 61.625 48.1875 57.5625 43.546875 
Q 53.515625 38.921875 53.515625 30.90625 
L 53.515625 0 
L 44.484375 0 
L 44.484375 32.71875 
Q 44.484375 40.625 41.703125 44.40625 
Q 38.921875 48.1875 33.109375 48.1875 
Q 26.21875 48.1875 22.15625 43.53125 
Q 18.109375 38.875 18.109375 30.90625 
L 18.109375 0 
L 9.078125 0 
L 9.078125 54.6875 
L 18.109375 54.6875 
L 18.109375 46.1875 
Q 21.1875 51.21875 25.484375 53.609375 
Q 29.78125 56 35.6875 56 
Q 41.65625 56 45.828125 52.96875 
Q 50 49.953125 52 44.1875 
z
" id="DejaVuSans-109"/>
      <path d="M 56.203125 29.59375 
L 56.203125 25.203125 
L 14.890625 25.203125 
Q 15.484375 15.921875 20.484375 11.0625 
Q 25.484375 6.203125 34.421875 6.203125 
Q 39.59375 6.203125 44.453125 7.46875 
Q 49.3125 8.734375 54.109375 11.28125 
L 54.109375 2.78125 
Q 49.265625 0.734375 44.1875 -0.34375 
Q 39.109375 -1.421875 33.890625 -1.421875 
Q 20.796875 -1.421875 13.15625 6.1875 
Q 5.515625 13.8125 5.515625 26.8125 
Q 5.515625 40.234375 12.765625 48.109375 
Q 20.015625 56 32.328125 56 
Q 43.359375 56 49.78125 48.890625 
Q 56.203125 41.796875 56.203125 29.59375 
z
M 47.21875 32.234375 
Q 47.125 39.59375 43.09375 43.984375 
Q 39.0625 48.390625 32.421875 48.390625 
Q 24.90625 48.390625 20.390625 44.140625 
Q 15.875 39.890625 15.1875 32.171875 
z
" id="DejaVuSans-101"/>
      <path d="M 44.28125 53.078125 
L 44.28125 44.578125 
Q 40.484375 46.53125 36.375 47.5 
Q 32.28125 48.484375 27.875 48.484375 
Q 21.1875 48.484375 17.84375 46.4375 
Q 14.5 44.390625 14.5 40.28125 
Q 14.5 37.15625 16.890625 35.375 
Q 19.28125 33.59375 26.515625 31.984375 
L 29.59375 31.296875 
Q 39.15625 29.25 43.1875 25.515625 
Q 47.21875 21.78125 47.21875 15.09375 
Q 47.21875 7.46875 41.1875 3.015625 
Q 35.15625 -1.421875 24.609375 -1.421875 
Q 20.21875 -1.421875 15.453125 -0.5625 
Q 10.6875 0.296875 5.421875 2 
L 5.421875 11.28125 
Q 10.40625 8.6875 15.234375 7.390625 
Q 20.0625 6.109375 24.8125 6.109375 
Q 31.15625 6.109375 34.5625 8.28125 
Q 37.984375 10.453125 37.984375 14.40625 
Q 37.984375 18.0625 35.515625 20.015625 
Q 33.0625 21.96875 24.703125 23.78125 
L 21.578125 24.515625 
Q 13.234375 26.265625 9.515625 29.90625 
Q 5.8125 33.546875 5.8125 39.890625 
Q 5.8125 47.609375 11.28125 51.796875 
Q 16.75 56 26.8125 56 
Q 31.78125 56 36.171875 55.265625 
Q 40.578125 54.546875 44.28125 53.078125 
z
" id="DejaVuSans-115"/>
      <path d="M 18.3125 70.21875 
L 18.3125 54.6875 
L 36.8125 54.6875 
L 36.8125 47.703125 
L 18.3125 47.703125 
L 18.3125 18.015625 
Q 18.3125 11.328125 20.140625 9.421875 
Q 21.96875 7.515625 27.59375 7.515625 
L 36.8125 7.515625 
L 36.8125 0 
L 27.59375 0 
Q 17.1875 0 13.234375 3.875 
Q 9.28125 7.765625 9.28125 18.015625 
L 9.28125 47.703125 
L 2.6875 47.703125 
L 2.6875 54.6875 
L 9.28125 54.6875 
L 9.28125 70.21875 
z
" id="DejaVuSans-116"/>
      <path d="M 34.28125 27.484375 
Q 23.390625 27.484375 19.1875 25 
Q 14.984375 22.515625 14.984375 16.5 
Q 14.984375 11.71875 18.140625 8.90625 
Q 21.296875 6.109375 26.703125 6.109375 
Q 34.1875 6.109375 38.703125 11.40625 
Q 43.21875 16.703125 43.21875 25.484375 
L 43.21875 27.484375 
z
M 52.203125 31.203125 
L 52.203125 0 
L 43.21875 0 
L 43.21875 8.296875 
Q 40.140625 3.328125 35.546875 0.953125 
Q 30.953125 -1.421875 24.3125 -1.421875 
Q 15.921875 -1.421875 10.953125 3.296875 
Q 6 8.015625 6 15.921875 
Q 6 25.140625 12.171875 29.828125 
Q 18.359375 34.515625 30.609375 34.515625 
L 43.21875 34.515625 
L 43.21875 35.40625 
Q 43.21875 41.609375 39.140625 45 
Q 35.0625 48.390625 27.6875 48.390625 
Q 23 48.390625 18.546875 47.265625 
Q 14.109375 46.140625 10.015625 43.890625 
L 10.015625 52.203125 
Q 14.9375 54.109375 19.578125 55.046875 
Q 24.21875 56 28.609375 56 
Q 40.484375 56 46.34375 49.84375 
Q 52.203125 43.703125 52.203125 31.203125 
z
" id="DejaVuSans-97"/>
      <path d="M 18.109375 8.203125 
L 18.109375 -20.796875 
L 9.078125 -20.796875 
L 9.078125 54.6875 
L 18.109375 54.6875 
L 18.109375 46.390625 
Q 20.953125 51.265625 25.265625 53.625 
Q 29.59375 56 35.59375 56 
Q 45.5625 56 51.78125 48.09375 
Q 58.015625 40.1875 58.015625 27.296875 
Q 58.015625 14.40625 51.78125 6.484375 
Q 45.5625 -1.421875 35.59375 -1.421875 
Q 29.59375 -1.421875 25.265625 0.953125 
Q 20.953125 3.328125 18.109375 8.203125 
z
M 48.6875 27.296875 
Q 48.6875 37.203125 44.609375 42.84375 
Q 40.53125 48.484375 33.40625 48.484375 
Q 26.265625 48.484375 22.1875 42.84375 
Q 18.109375 37.203125 18.109375 27.296875 
Q 18.109375 17.390625 22.1875 11.75 
Q 26.265625 6.109375 33.40625 6.109375 
Q 40.53125 6.109375 44.609375 11.75 
Q 48.6875 17.390625 48.6875 27.296875 
z
" id="DejaVuSans-112"/>
     </defs>
     <g transform="translate(414.739062 412.756563)scale(0.1 -0.1)">
      <use xlink:href="#DejaVuSans-84"/>
      <use x="61.037109" xlink:href="#DejaVuSans-105"/>
      <use x="88.820312" xlink:href="#DejaVuSans-109"/>
      <use x="186.232422" xlink:href="#DejaVuSans-101"/>
      <use x="247.755859" xlink:href="#DejaVuSans-115"/>
      <use x="299.855469" xlink:href="#DejaVuSans-116"/>
      <use x="339.064453" xlink:href="#DejaVuSans-97"/>
      <use x="400.34375" xlink:href="#DejaVuSans-109"/>
      <use x="497.755859" xlink:href="#DejaVuSans-112"/>
     </g>
    </g>
   </g>
   <g id="matplotlib.axis_2">
    <g id="ytick_1">
     <g id="line2d_9">
      <defs>
       <path d="M 0 0 
L -3.5 0 
" id="md4c5acbf34" style="stroke:#000000;stroke-width:0.8;"/>
      </defs>
      <g>
       <use style="stroke:#000000;stroke-width:0.8;" x="108" xlink:href="#md4c5acbf34" y="381.262339"/>
      </g>
     </g>
     <g id="text_10">
      <!-- −1500 -->
      <defs>
       <path d="M 10.59375 35.5 
L 73.1875 35.5 
L 73.1875 27.203125 
L 10.59375 27.203125 
z
" id="DejaVuSans-8722"/>
      </defs>
      <g transform="translate(67.170312 385.061558)scale(0.1 -0.1)">
       <use xlink:href="#DejaVuSans-8722"/>
       <use x="83.789062" xlink:href="#DejaVuSans-49"/>
       <use x="147.412109" xlink:href="#DejaVuSans-53"/>
       <use x="211.035156" xlink:href="#DejaVuSans-48"/>
       <use x="274.658203" xlink:href="#DejaVuSans-48"/>
      </g>
     </g>
    </g>
    <g id="ytick_2">
     <g id="line2d_10">
      <g>
       <use style="stroke:#000000;stroke-width:0.8;" x="108" xlink:href="#md4c5acbf34" y="341.568116"/>
      </g>
     </g>
     <g id="text_11">
      <!-- −1000 -->
      <g transform="translate(67.170312 345.367334)scale(0.1 -0.1)">
       <use xlink:href="#DejaVuSans-8722"/>
       <use x="83.789062" xlink:href="#DejaVuSans-49"/>
       <use x="147.412109" xlink:href="#DejaVuSans-48"/>
       <use x="211.035156" xlink:href="#DejaVuSans-48"/>
       <use x="274.658203" xlink:href="#DejaVuSans-48"/>
      </g>
     </g>
    </g>
    <g id="ytick_3">
     <g id="line2d_11">
      <g>
       <use style="stroke:#000000;stroke-width:0.8;" x="108" xlink:href="#md4c5acbf34" y="301.873893"/>
      </g>
     </g>
     <g id="text_12">
      <!-- −500 -->
      <g transform="translate(73.532813 305.673111)scale(0.1 -0.1)">
       <use xlink:href="#DejaVuSans-8722"/>
       <use x="83.789062" xlink:href="#DejaVuSans-53"/>
       <use x="147.412109" xlink:href="#DejaVuSans-48"/>
       <use x="211.035156" xlink:href="#DejaVuSans-48"/>
      </g>
     </g>
    </g>
    <g id="ytick_4">
     <g id="line2d_12">
      <g>
       <use style="stroke:#000000;stroke-width:0.8;" x="108" xlink:href="#md4c5acbf34" y="262.17967"/>
      </g>
     </g>
     <g id="text_13">
      <!-- 0 -->
      <g transform="translate(94.6375 265.978888)scale(0.1 -0.1)">
       <use xlink:href="#DejaVuSans-48"/>
      </g>
     </g>
    </g>
    <g id="ytick_5">
     <g id="line2d_13">
      <g>
       <use style="stroke:#000000;stroke-width:0.8;" x="108" xlink:href="#md4c5acbf34" y="222.485446"/>
      </g>
     </g>
     <g id="text_14">
      <!-- 500 -->
      <g transform="translate(81.9125 226.284665)scale(0.1 -0.1)">
       <use xlink:href="#DejaVuSans-53"/>
       <use x="63.623047" xlink:href="#DejaVuSans-48"/>
       <use x="127.246094" xlink:href="#DejaVuSans-48"/>
      </g>
     </g>
    </g>
    <g id="ytick_6">
     <g id="line2d_14">
      <g>
       <use style="stroke:#000000;stroke-width:0.8;" x="108" xlink:href="#md4c5acbf34" y="182.791223"/>
      </g>
     </g>
     <g id="text_15">
      <!-- 1000 -->
      <g transform="translate(75.55 186.590442)scale(0.1 -0.1)">
       <use xlink:href="#DejaVuSans-49"/>
       <use x="63.623047" xlink:href="#DejaVuSans-48"/>
       <use x="127.246094" xlink:href="#DejaVuSans-48"/>
       <use x="190.869141" xlink:href="#DejaVuSans-48"/>
      </g>
     </g>
    </g>
    <g id="ytick_7">
     <g id="line2d_15">
      <g>
       <use style="stroke:#000000;stroke-width:0.8;" x="108" xlink:href="#md4c5acbf34" y="143.097"/>
      </g>
     </g>
     <g id="text_16">
      <!-- 1500 -->
      <g transform="translate(75.55 146.896219)scale(0.1 -0.1)">
       <use xlink:href="#DejaVuSans-49"/>
       <use x="63.623047" xlink:href="#DejaVuSans-53"/>
       <use x="127.246094" xlink:href="#DejaVuSans-48"/>
       <use x="190.869141" xlink:href="#DejaVuSans-48"/>
      </g>
     </g>
    </g>
    <g id="ytick_8">
     <g id="line2d_16">
      <g>
       <use style="stroke:#000000;stroke-width:0.8;" x="108" xlink:href="#md4c5acbf34" y="103.402777"/>
      </g>
     </g>
     <g id="text_17">
      <!-- 2000 -->
      <g transform="translate(75.55 107.201996)scale(0.1 -0.1)">
       <use xlink:href="#DejaVuSans-50"/>
       <use x="63.623047" xlink:href="#DejaVuSans-48"/>
       <use x="127.246094" xlink:href="#DejaVuSans-48"/>
       <use x="190.869141" xlink:href="#DejaVuSans-48"/>
      </g>
     </g>
    </g>
    <g id="ytick_9">
     <g id="line2d_17">
      <g>
       <use style="stroke:#000000;stroke-width:0.8;" x="108" xlink:href="#md4c5acbf34" y="63.708554"/>
      </g>
     </g>
     <g id="text_18">
      <!-- 2500 -->
      <g transform="translate(75.55 67.507773)scale(0.1 -0.1)">
       <use xlink:href="#DejaVuSans-50"/>
       <use x="63.623047" xlink:href="#DejaVuSans-53"/>
       <use x="127.246094" xlink:href="#DejaVuSans-48"/>
       <use x="190.869141" xlink:href="#DejaVuSans-48"/>
      </g>
     </g>
    </g>
    <g id="text_19">
     <!-- Value -->
     <defs>
      <path d="M 28.609375 0 
L 0.78125 72.90625 
L 11.078125 72.90625 
L 34.1875 11.53125 
L 57.328125 72.90625 
L 67.578125 72.90625 
L 39.796875 0 
z
" id="DejaVuSans-86"/>
      <path d="M 9.421875 75.984375 
L 18.40625 75.984375 
L 18.40625 0 
L 9.421875 0 
z
" id="DejaVuSans-108"/>
      <path d="M 8.5 21.578125 
L 8.5 54.6875 
L 17.484375 54.6875 
L 17.484375 21.921875 
Q 17.484375 14.15625 20.5 10.265625 
Q 23.53125 6.390625 29.59375 6.390625 
Q 36.859375 6.390625 41.078125 11.03125 
Q 45.3125 15.671875 45.3125 23.6875 
L 45.3125 54.6875 
L 54.296875 54.6875 
L 54.296875 0 
L 45.3125 0 
L 45.3125 8.40625 
Q 42.046875 3.421875 37.71875 1 
Q 33.40625 -1.421875 27.6875 -1.421875 
Q 18.265625 -1.421875 13.375 4.4375 
Q 8.5 10.296875 8.5 21.578125 
z
M 31.109375 56 
z
" id="DejaVuSans-117"/>
     </defs>
     <g transform="translate(61.090625 232.273281)rotate(-90)scale(0.1 -0.1)">
      <use xlink:href="#DejaVuSans-86"/>
      <use x="68.298828" xlink:href="#DejaVuSans-97"/>
      <use x="129.578125" xlink:href="#DejaVuSans-108"/>
      <use x="157.361328" xlink:href="#DejaVuSans-117"/>
      <use x="220.740234" xlink:href="#DejaVuSans-101"/>
     </g>
    </g>
   </g>
   <g id="line2d_18">
    <path clip-path="url(#pa46e3063f9)" d="M 138.436364 261.075846 
L 138.798917 172.406505 
L 139.161471 181.975987 
L 139.524024 174.039499 
L 139.886578 168.8471 
L 140.249131 201.775136 
L 140.611684 189.706225 
L 140.974238 215.958645 
L 141.336791 259.770805 
L 141.699345 255.405755 
L 142.061898 274.599142 
L 142.424452 249.174335 
L 142.787005 239.8585 
L 143.149559 224.562596 
L 143.512112 244.953638 
L 143.874666 226.881522 
L 144.237219 219.950636 
L 144.599773 271.350205 
L 145.32488 317.481171 
L 145.687433 329.869885 
L 146.049986 337.835351 
L 146.41254 292.435708 
L 146.775093 293.301699 
L 147.137647 226.145518 
L 147.5002 185.018992 
L 147.862754 179.799267 
L 148.225307 142.432724 
L 148.587861 140.325307 
L 149.675521 219.547077 
L 150.038075 226.88582 
L 150.400628 258.816817 
L 150.763182 235.050543 
L 151.125735 247.545666 
L 151.488288 247.905048 
L 151.850842 212.982206 
L 152.213395 212.333926 
L 152.575949 180.601739 
L 153.301056 274.909759 
L 153.663609 266.569011 
L 154.026163 316.524669 
L 154.388716 319.938567 
L 154.75127 301.382924 
L 155.113823 305.747457 
L 156.201484 177.515854 
L 156.926591 144.523576 
L 157.289144 109.068891 
L 157.651697 173.356619 
L 158.014251 169.0257 
L 158.376804 229.615876 
L 159.101911 259.882385 
L 159.464465 281.430376 
L 159.827018 239.084415 
L 160.189572 228.247519 
L 160.552125 222.058943 
L 160.914679 238.790558 
L 161.277232 207.941611 
L 161.639786 226.440266 
L 162.002339 227.670154 
L 162.364893 292.205822 
L 162.727446 292.179392 
L 163.089999 334.02755 
L 163.452553 334.715348 
L 163.815106 307.861561 
L 164.17766 272.44071 
L 164.540213 223.942992 
L 164.902767 210.384233 
L 165.26532 156.534408 
L 165.627874 159.846823 
L 165.990427 149.011805 
L 166.352981 152.962532 
L 167.078088 190.58124 
L 167.440641 251.140065 
L 167.803195 272.917852 
L 168.165748 282.871383 
L 168.528301 250.725417 
L 168.890855 240.151032 
L 169.253408 243.239518 
L 169.615962 232.528474 
L 169.978515 235.789659 
L 170.341069 270.748888 
L 170.703622 279.459298 
L 171.066176 294.182505 
L 171.791283 341.328669 
L 172.153836 359.998524 
L 172.51639 339.233209 
L 173.241497 246.779224 
L 173.60405 214.03131 
L 173.966603 194.012155 
L 174.329157 204.869099 
L 174.69171 174.837581 
L 175.054264 189.782079 
L 175.416817 226.862576 
L 175.779371 233.908516 
L 176.141924 275.240864 
L 176.504478 272.700963 
L 176.867031 308.309478 
L 177.229585 297.115226 
L 177.592138 259.138214 
L 177.954692 268.823773 
L 178.317245 212.386603 
L 178.679799 260.406337 
L 179.042352 274.570606 
L 179.404906 280.416454 
L 180.130012 355.561919 
L 180.492566 369.36 
L 180.855119 351.697531 
L 181.217673 322.827853 
L 181.580226 321.059167 
L 181.94278 280.942403 
L 182.305333 214.803842 
L 182.667887 206.734138 
L 183.03044 176.097379 
L 183.392994 162.749598 
L 183.755547 213.59414 
L 184.480654 266.682753 
L 184.843208 291.204559 
L 185.205761 296.720081 
L 185.568314 312.775992 
L 185.930868 274.244734 
L 186.293421 299.135588 
L 186.655975 249.017283 
L 187.018528 238.829339 
L 187.743635 273.264231 
L 188.106189 307.449201 
L 188.468742 318.004245 
L 188.831296 347.347582 
L 189.193849 348.616685 
L 189.556403 343.148718 
L 189.918956 343.869236 
L 190.28151 287.86349 
L 190.644063 252.387577 
L 191.006616 231.110233 
L 191.36917 189.380694 
L 191.731723 177.957427 
L 192.094277 294.52856 
L 192.45683 188.793129 
L 192.819384 241.097867 
L 193.181937 266.93672 
L 193.544491 246.014586 
L 193.907044 266.830207 
L 194.269598 280.952564 
L 194.632151 267.006445 
L 194.994705 245.406809 
L 195.357258 211.785082 
L 195.719812 234.050812 
L 196.082365 223.286294 
L 196.444919 250.704135 
L 196.807472 256.811669 
L 197.170025 278.894945 
L 197.532579 310.069253 
L 197.895132 325.108623 
L 198.257686 328.423891 
L 198.620239 298.663313 
L 198.982793 278.854071 
L 199.345346 218.037195 
L 199.7079 218.318862 
L 200.070453 171.808358 
L 200.433007 142.498594 
L 200.79556 144.122565 
L 201.158114 174.332635 
L 201.520667 189.481733 
L 201.883221 189.561751 
L 202.245774 246.432739 
L 202.608327 252.762365 
L 202.970881 238.726137 
L 203.333434 208.591584 
L 203.695988 217.906204 
L 204.058541 198.810094 
L 204.421095 197.724099 
L 204.783648 193.889438 
L 205.146202 226.880349 
L 205.871309 246.629044 
L 206.233862 261.862884 
L 206.596416 307.429853 
L 207.684076 253.018394 
L 208.409183 145.911723 
L 208.771736 140.771198 
L 209.13429 77.723891 
L 210.584504 178.494506 
L 210.947057 241.078845 
L 211.309611 211.648176 
L 211.672164 218.61001 
L 212.034718 217.596616 
L 212.397271 225.083477 
L 212.759825 157.611371 
L 213.122378 177.855108 
L 213.484932 172.872996 
L 213.847485 191.838482 
L 214.210038 223.487602 
L 214.572592 232.867339 
L 215.297699 282.11854 
L 215.660252 281.777256 
L 216.022806 271.212275 
L 216.385359 245.964375 
L 216.747913 204.287664 
L 217.110466 138.753045 
L 217.47302 132.525695 
L 218.198127 88.337552 
L 218.56068 134.605795 
L 218.923234 134.851219 
L 219.64834 213.561052 
L 220.373447 241.769606 
L 220.736001 184.677158 
L 221.098554 202.167833 
L 221.461108 176.226346 
L 221.823661 196.860966 
L 222.186215 156.672454 
L 222.548768 193.370236 
L 222.911322 206.212799 
L 223.636429 301.162236 
L 223.998982 279.279618 
L 224.361536 301.275748 
L 224.724089 262.012918 
L 225.086642 248.317056 
L 225.449196 223.533185 
L 225.811749 179.07535 
L 226.174303 171.023004 
L 226.536856 104.750184 
L 226.89941 117.541387 
L 227.261963 121.857525 
L 227.624517 185.356293 
L 227.98707 201.211007 
L 228.349624 188.329352 
L 228.712177 245.828971 
L 229.074731 252.006327 
L 229.437284 233.00898 
L 230.162391 180.436896 
L 230.524945 212.697977 
L 230.887498 202.673428 
L 231.250051 212.910086 
L 231.612605 250.287075 
L 231.975158 244.451445 
L 232.337712 297.168792 
L 232.700265 293.831536 
L 233.062819 313.033707 
L 233.425372 304.345661 
L 233.787926 290.415922 
L 234.875586 143.515741 
L 235.23814 144.777014 
L 235.600693 162.053816 
L 235.963247 162.788661 
L 236.3258 180.865914 
L 236.688353 236.581336 
L 237.050907 270.990762 
L 237.41346 257.194768 
L 237.776014 264.155611 
L 238.138567 248.968362 
L 238.501121 243.325781 
L 238.863674 201.413487 
L 239.226228 218.929138 
L 239.588781 198.081012 
L 239.951335 225.73547 
L 240.313888 243.87936 
L 240.676442 251.716075 
L 241.038995 268.551816 
L 241.401549 275.833385 
L 241.764102 265.232566 
L 242.126655 261.398924 
L 242.489209 250.631959 
L 242.851762 234.909713 
L 243.214316 209.243908 
L 243.576869 211.485942 
L 243.939423 197.334334 
L 244.301976 195.762857 
L 244.66453 196.698403 
L 245.027083 207.630065 
L 245.389637 223.701178 
L 245.75219 226.572585 
L 246.114744 234.942648 
L 246.477297 236.616686 
L 246.839851 244.71717 
L 247.564957 224.474806 
L 247.927511 220.970517 
L 248.290064 223.049802 
L 248.652618 226.840812 
L 249.015171 234.54335 
L 249.377725 244.850461 
L 250.102832 258.315518 
L 250.465385 271.752546 
L 252.278153 201.782751 
L 252.640706 199.924779 
L 253.00326 190.391663 
L 253.365813 201.573971 
L 253.728366 216.297302 
L 254.09092 221.528996 
L 254.453473 215.860468 
L 255.17858 231.50921 
L 255.903687 222.691114 
L 256.266241 215.410125 
L 256.628794 215.956722 
L 256.991348 206.5772 
L 257.353901 218.145197 
L 257.716455 241.918062 
L 258.079008 247.744686 
L 258.441562 240.503292 
L 258.804115 248.398799 
L 259.166668 260.219706 
L 259.529222 252.22169 
L 259.891775 234.906822 
L 260.254329 210.360515 
L 260.616882 204.321196 
L 260.979436 175.048846 
L 261.341989 188.703863 
L 261.704543 171.987239 
L 262.067096 187.931902 
L 262.42965 193.308008 
L 262.792203 206.392526 
L 263.154757 225.203239 
L 263.51731 227.431067 
L 264.60497 211.066416 
L 264.967524 211.93053 
L 265.330077 201.151894 
L 266.055184 207.47217 
L 266.417738 206.960753 
L 267.142845 237.80232 
L 267.505398 239.301711 
L 267.867952 242.811185 
L 268.593059 225.197437 
L 268.955612 217.522224 
L 269.318166 193.858991 
L 269.680719 177.836076 
L 270.043273 175.507718 
L 270.405826 169.680487 
L 270.768379 177.179526 
L 271.130933 189.406842 
L 271.85604 203.512029 
L 272.218593 216.74181 
L 272.581147 218.970961 
L 273.306254 204.077292 
L 273.668807 188.524913 
L 274.031361 192.913655 
L 274.393914 188.54858 
L 274.756468 194.599502 
L 275.119021 216.578232 
L 276.206681 239.364175 
L 276.569235 238.519172 
L 276.931788 233.78813 
L 277.294342 215.045277 
L 277.656895 209.322408 
L 278.019449 186.745245 
L 278.382002 172.390356 
L 278.744556 171.458206 
L 279.107109 163.21897 
L 280.19477 200.176951 
L 280.557323 213.881432 
L 280.919877 222.726736 
L 281.28243 213.385255 
L 281.644983 210.92061 
L 282.007537 204.262414 
L 282.732644 197.200771 
L 283.095197 208.184551 
L 283.457751 210.385134 
L 283.820304 208.176468 
L 284.182858 218.477457 
L 284.545411 243.819017 
L 284.907965 248.024375 
L 285.270518 243.758973 
L 285.995625 221.365801 
L 286.358179 207.515787 
L 287.445839 181.728627 
L 287.808392 184.578783 
L 288.170946 198.822737 
L 288.533499 196.845132 
L 288.896053 201.904228 
L 289.258606 225.559377 
L 289.62116 220.940767 
L 289.983713 225.173843 
L 290.346267 224.31379 
L 290.70882 262.57666 
L 291.071374 218.505047 
L 291.433927 199.993931 
L 291.796481 216.803558 
L 292.159034 215.626138 
L 292.521588 223.611047 
L 292.884141 248.216233 
L 293.246694 248.876837 
L 293.609248 262.563336 
L 293.971801 261.775174 
L 294.334355 245.4916 
L 294.696908 242.505588 
L 295.059462 214.552901 
L 295.422015 204.613103 
L 295.784569 200.746145 
L 296.147122 182.217309 
L 296.509676 196.26519 
L 297.234783 204.538001 
L 297.95989 231.027629 
L 298.322443 233.384563 
L 298.684996 230.034049 
L 299.04755 233.73087 
L 299.410103 228.138243 
L 299.772657 218.819748 
L 300.13521 212.726798 
L 300.860317 233.52902 
L 301.222871 191.600601 
L 301.585424 241.710394 
L 301.947978 264.965501 
L 302.310531 263.370389 
L 302.673085 265.647975 
L 303.035638 254.275789 
L 303.398192 252.959522 
L 303.760745 223.591597 
L 304.123299 221.258136 
L 304.485852 199.649627 
L 304.848405 196.528798 
L 305.210959 197.46893 
L 305.573512 197.372815 
L 306.298619 230.677905 
L 306.661173 237.177675 
L 307.023726 248.39823 
L 307.38628 247.921318 
L 308.111387 230.245341 
L 308.47394 216.447785 
L 308.836494 223.44732 
L 309.199047 217.375926 
L 310.286707 255.507829 
L 310.649261 259.145646 
L 311.011814 265.840018 
L 311.374368 263.90036 
L 312.099475 249.740868 
L 312.462028 224.525151 
L 312.824582 221.054441 
L 313.187135 193.325477 
L 313.549689 184.621995 
L 313.912242 183.94749 
L 314.274796 194.711517 
L 314.637349 199.707611 
L 314.999903 210.162013 
L 315.362456 228.715383 
L 315.725009 231.469262 
L 316.087563 233.03313 
L 317.175223 218.368985 
L 317.537777 218.455813 
L 317.90033 210.557433 
L 318.625437 221.48432 
L 318.987991 233.16956 
L 319.350544 248.534701 
L 319.713098 252.174128 
L 320.075651 259.128072 
L 320.438205 250.369727 
L 320.800758 229.829787 
L 321.163311 224.995966 
L 321.525865 193.136734 
L 321.888418 191.577781 
L 322.250972 188.734855 
L 322.613525 178.19605 
L 322.976079 174.846847 
L 323.338632 191.337396 
L 323.701186 213.045337 
L 324.063739 209.97764 
L 324.426293 219.614243 
L 324.788846 224.217957 
L 325.1514 221.235051 
L 325.513953 212.008077 
L 325.876507 210.02233 
L 326.23906 186.775273 
L 326.601614 198.607874 
L 326.964167 202.142601 
L 327.32672 215.132335 
L 327.689274 222.064098 
L 328.051827 237.743107 
L 328.414381 237.961876 
L 328.776934 247.930444 
L 329.139488 238.522897 
L 329.502041 225.982463 
L 329.864595 196.721234 
L 330.227148 195.957336 
L 330.589702 185.165311 
L 330.952255 180.662897 
L 331.314809 164.601233 
L 331.677362 168.735271 
L 332.039916 190.111155 
L 332.402469 201.399144 
L 332.765022 200.195661 
L 333.490129 215.893253 
L 333.852683 209.560734 
L 334.215236 200.158173 
L 334.57779 206.633924 
L 334.940343 187.45451 
L 335.302897 198.785979 
L 335.66545 196.877444 
L 336.390557 219.069416 
L 336.753111 228.012603 
L 337.115664 240.132962 
L 337.478218 240.715634 
L 337.840771 238.91168 
L 338.565878 196.271236 
L 338.928431 190.436087 
L 339.290985 173.993727 
L 339.653538 166.986405 
L 340.378645 178.935858 
L 340.741199 176.748349 
L 341.103752 204.077912 
L 341.466306 213.21453 
L 341.828859 211.740924 
L 342.191413 212.339691 
L 342.553966 209.048247 
L 342.91652 209.059683 
L 343.641627 200.214379 
L 344.00418 206.446139 
L 344.366733 202.467113 
L 344.729287 213.038173 
L 345.09184 219.637226 
L 345.454394 241.90519 
L 345.816947 239.717097 
L 346.179501 243.74822 
L 346.542054 237.460868 
L 347.629715 196.262251 
L 347.992268 189.490133 
L 348.354822 185.340889 
L 348.717375 172.850515 
L 349.079929 199.753966 
L 349.442482 199.254017 
L 349.805035 195.191147 
L 350.167589 210.510885 
L 350.530142 236.328924 
L 350.892696 226.908931 
L 351.255249 228.333076 
L 351.617803 215.870416 
L 351.980356 207.524916 
L 352.34291 209.15009 
L 352.705463 209.059777 
L 353.068017 214.844677 
L 353.43057 225.432229 
L 353.793124 239.999163 
L 354.155677 248.907522 
L 354.518231 251.302156 
L 354.880784 268.147369 
L 355.243337 252.791926 
L 355.605891 248.16358 
L 355.968444 217.151072 
L 357.056105 187.730186 
L 357.418658 197.007124 
L 357.781212 194.778784 
L 358.143765 213.477241 
L 358.506319 217.247361 
L 358.868872 226.39382 
L 359.231426 232.548644 
L 359.593979 236.488851 
L 360.319086 223.03485 
L 360.68164 217.20798 
L 361.044193 219.628249 
L 361.406746 220.769602 
L 362.131853 226.984883 
L 362.494407 253.749845 
L 362.85696 254.237033 
L 363.219514 259.879789 
L 363.582067 262.544301 
L 363.944621 262.260236 
L 364.307174 246.046674 
L 364.669728 238.265067 
L 365.394835 200.401061 
L 365.757388 191.615014 
L 366.119942 191.763283 
L 366.482495 210.324724 
L 366.845048 205.63188 
L 367.570155 244.067622 
L 367.932709 232.418933 
L 368.295262 229.844426 
L 368.657816 236.517453 
L 369.020369 271.257287 
L 369.382923 225.597627 
L 369.745476 223.95709 
L 370.10803 228.951951 
L 370.470583 219.626497 
L 370.833137 232.405967 
L 371.19569 250.93128 
L 371.558244 255.582545 
L 371.920797 269.116649 
L 372.28335 269.233864 
L 372.645904 264.515081 
L 373.008457 238.346763 
L 373.371011 234.316382 
L 373.733564 213.474077 
L 374.458671 190.963253 
L 374.821225 195.925541 
L 375.183778 192.203168 
L 375.908885 222.063483 
L 376.271439 225.755275 
L 376.633992 227.26691 
L 376.996546 228.249991 
L 377.359099 227.138179 
L 377.721652 216.511867 
L 378.084206 219.522697 
L 378.446759 213.270856 
L 378.809313 212.936563 
L 379.171866 212.057692 
L 379.53442 231.304562 
L 379.896973 239.995867 
L 380.259527 251.797758 
L 380.984634 255.630911 
L 381.347187 256.086699 
L 382.072294 222.821468 
L 382.434848 199.206638 
L 383.159955 177.541665 
L 383.885061 187.172036 
L 384.972722 221.891491 
L 385.335275 219.162627 
L 385.697829 223.614983 
L 386.422936 211.649435 
L 386.785489 197.471879 
L 387.148043 201.797467 
L 387.510596 209.043181 
L 387.87315 203.306446 
L 388.598257 222.249316 
L 388.96081 236.512339 
L 389.323363 239.61688 
L 389.685917 231.722018 
L 390.04847 232.911458 
L 390.411024 218.540455 
L 390.773577 214.275609 
L 391.498684 171.310126 
L 391.861238 175.234839 
L 392.223791 162.250805 
L 392.586345 178.015595 
L 392.948898 185.706698 
L 393.311452 197.882067 
L 393.674005 215.748485 
L 394.036559 214.524469 
L 394.399112 214.222392 
L 394.761665 209.117788 
L 395.124219 209.298416 
L 395.849326 192.957374 
L 396.211879 187.301144 
L 396.574433 205.548065 
L 396.936986 209.952051 
L 397.29954 223.943264 
L 397.662093 243.527414 
L 398.024647 247.351953 
L 398.3872 232.922798 
L 398.749754 243.90874 
L 399.112307 217.467976 
L 399.474861 204.305541 
L 399.837414 184.250625 
L 400.199968 185.892514 
L 400.562521 164.071156 
L 400.925074 164.839297 
L 401.287628 181.928617 
L 402.375288 205.099816 
L 402.737842 221.457803 
L 403.100395 210.193092 
L 403.462949 215.678069 
L 403.825502 208.710898 
L 404.188056 207.398655 
L 404.550609 195.708883 
L 404.913163 197.929014 
L 405.275716 203.609768 
L 405.63827 212.445023 
L 406.000823 226.688179 
L 406.363376 249.641504 
L 406.72593 244.252726 
L 407.088483 245.010739 
L 407.451037 236.964969 
L 408.176144 213.611127 
L 408.538697 190.648121 
L 408.901251 176.541943 
L 409.263804 182.258354 
L 409.626358 177.929222 
L 410.351465 198.31433 
L 410.714018 164.083796 
L 411.076572 218.836889 
L 411.439125 223.712347 
L 411.801678 224.058688 
L 412.526785 222.456998 
L 412.889339 208.713472 
L 413.251892 208.492878 
L 413.614446 212.113757 
L 413.976999 209.715271 
L 414.339553 225.436624 
L 414.702106 233.973216 
L 415.06466 247.062587 
L 415.427213 254.985811 
L 415.789767 259.684088 
L 416.15232 253.550666 
L 417.965087 183.748178 
L 418.327641 181.484969 
L 418.690194 190.246543 
L 419.052748 211.407568 
L 420.140408 239.481202 
L 420.502962 241.623791 
L 420.865515 239.173397 
L 421.228069 232.336598 
L 421.590622 219.066443 
L 421.953176 211.826314 
L 422.315729 225.267748 
L 422.678283 223.418933 
L 423.040836 229.577576 
L 423.403389 253.762631 
L 423.765943 249.496328 
L 424.128496 274.195313 
L 424.49105 262.204643 
L 424.853603 257.445093 
L 425.216157 248.870703 
L 425.57871 226.355976 
L 425.941264 215.95664 
L 426.303817 193.739781 
L 426.666371 197.08832 
L 427.028924 194.688451 
L 427.391478 197.268225 
L 427.754031 211.853314 
L 428.116585 221.194274 
L 428.479138 226.475899 
L 428.841691 241.635517 
L 429.204245 248.147324 
L 430.291905 223.56168 
L 430.654459 222.267882 
L 431.017012 225.091029 
L 431.379566 224.457058 
L 431.742119 246.573649 
L 432.104673 252.198845 
L 432.467226 249.242003 
L 432.82978 270.603395 
L 433.192333 263.67913 
L 433.91744 243.992373 
L 434.642547 211.882949 
L 435.0051 193.567392 
L 435.730207 183.286279 
L 436.092761 193.79776 
L 436.455314 208.213835 
L 436.817868 216.95508 
L 437.180421 217.670076 
L 437.542975 233.429172 
L 437.905528 238.237558 
L 438.268082 236.968251 
L 438.630635 218.751457 
L 438.993189 222.866917 
L 439.355742 217.861254 
L 439.718296 223.311593 
L 440.080849 221.120612 
L 440.443402 225.458444 
L 440.805956 243.417453 
L 441.168509 253.954137 
L 441.531063 256.852557 
L 441.893616 257.75964 
L 442.25617 241.214519 
L 442.618723 234.200268 
L 443.34383 200.204158 
L 443.706384 199.66982 
L 444.068937 189.239826 
L 444.431491 189.739291 
L 444.794044 201.462698 
L 445.519151 206.373103 
L 445.881704 210.118921 
L 446.244258 219.344767 
L 446.606811 220.171796 
L 447.694472 204.251441 
L 448.057025 205.585564 
L 448.419579 204.886586 
L 448.782132 208.832655 
L 449.144686 216.809062 
L 449.869793 226.291421 
L 450.232346 234.558438 
L 450.5949 237.876408 
L 451.320006 215.269583 
L 451.68256 208.130081 
L 452.045113 189.932585 
L 452.77022 173.628451 
L 453.132774 169.852334 
L 453.495327 185.116181 
L 453.857881 190.878887 
L 454.220434 191.308503 
L 454.582988 204.723743 
L 454.945541 204.921942 
L 455.308095 208.745157 
L 455.670648 204.748214 
L 456.033202 195.178 
L 456.395755 193.557506 
L 456.758309 190.585674 
L 457.120862 191.162037 
L 457.483415 200.777221 
L 457.845969 201.129058 
L 458.933629 220.356032 
L 459.296183 219.881298 
L 459.658736 218.194482 
L 460.02129 206.986689 
L 460.383843 191.453149 
L 460.746397 184.773845 
L 461.10895 183.073231 
L 461.471504 169.636513 
L 461.834057 163.342709 
L 462.196611 166.84278 
L 462.559164 192.739953 
L 462.921717 194.103768 
L 463.646824 208.810737 
L 464.009378 201.744169 
L 464.371931 199.751424 
L 465.097038 184.275198 
L 465.459592 189.398386 
L 465.822145 186.507316 
L 466.184699 187.356278 
L 466.909806 208.264351 
L 467.272359 217.596911 
L 467.634913 220.358374 
L 467.997466 219.244801 
L 468.360019 223.009546 
L 469.085126 198.410183 
L 469.44768 180.953798 
L 469.810233 171.669412 
L 470.172787 168.77553 
L 470.53534 167.920227 
L 470.897894 175.20183 
L 471.260447 186.837946 
L 471.985554 200.873623 
L 472.348108 199.788894 
L 472.710661 200.671354 
L 473.073215 205.251054 
L 473.798322 186.170279 
L 474.160875 189.086836 
L 474.523428 190.092431 
L 474.885982 193.382052 
L 475.248535 207.140059 
L 475.973642 213.66389 
L 476.336196 224.956432 
L 476.698749 217.091802 
L 477.061303 219.904494 
L 477.78641 201.365683 
L 478.148963 192.894913 
L 478.511517 178.658446 
L 478.87407 183.948651 
L 479.236624 178.929632 
L 479.96173 182.845634 
L 480.324284 196.396076 
L 480.686837 205.672102 
L 481.049391 206.957075 
L 481.411944 205.251635 
L 482.137051 200.366582 
L 482.499605 189.675759 
L 482.862158 193.329169 
L 483.224712 191.184391 
L 483.587265 199.068828 
L 483.949819 202.872412 
L 484.312372 214.820453 
L 484.674926 218.454874 
L 485.037479 227.207526 
L 485.400032 226.310456 
L 485.762586 223.948836 
L 486.125139 207.159725 
L 486.487693 200.588023 
L 486.850246 183.296622 
L 487.2128 177.25252 
L 487.575353 162.15323 
L 487.937907 179.392466 
L 488.30046 173.634205 
L 488.663014 171.521913 
L 489.388121 199.935817 
L 489.750674 202.75259 
L 490.113228 202.481869 
L 490.475781 200.933901 
L 490.838335 189.959162 
L 491.200888 195.118775 
L 491.563441 185.757269 
L 491.925995 188.425763 
L 492.288548 187.941244 
L 493.013655 212.960724 
L 493.376209 214.653716 
L 493.738762 222.425027 
L 494.101316 220.020847 
L 494.463869 216.417905 
L 494.826423 206.32039 
L 495.188976 203.623491 
L 495.55153 181.902045 
L 495.914083 170.594192 
L 496.276637 167.143649 
L 496.63919 161.13342 
L 497.364297 169.431173 
L 497.72685 187.201382 
L 498.089404 186.734837 
L 498.451957 187.931101 
L 498.814511 193.038992 
L 499.177064 194.035306 
L 500.264725 173.686249 
L 500.627278 177.113085 
L 500.989832 175.936991 
L 501.352385 187.850521 
L 501.714939 206.828052 
L 502.077492 203.490511 
L 502.440045 204.777418 
L 502.802599 205.467692 
L 503.165152 201.905441 
L 503.890259 178.289825 
L 504.252813 168.876166 
L 504.615366 152.036064 
L 504.97792 144.895442 
L 505.340473 155.166398 
L 505.703027 156.123726 
L 506.06558 159.072063 
L 506.428134 169.914571 
L 506.790687 172.551865 
L 507.153241 179.497373 
L 507.515794 181.386476 
L 507.878348 170.46446 
L 508.240901 166.016403 
L 508.603454 163.743604 
L 508.966008 157.874816 
L 509.328561 154.530708 
L 510.416222 186.80988 
L 510.778775 190.762328 
L 511.141329 201.190215 
L 512.591543 162.635326 
L 512.954096 150.080916 
L 513.31665 141.568219 
L 513.679203 137.029306 
L 514.041756 136.71453 
L 514.40431 140.840222 
L 515.129417 156.30107 
L 515.49197 153.902021 
L 515.854524 165.419119 
L 516.217077 166.045108 
L 516.579631 169.344843 
L 516.942184 160.691671 
L 517.304738 147.926333 
L 517.667291 152.917002 
L 518.029845 149.662931 
L 518.392398 155.059964 
L 519.117505 182.178071 
L 519.480058 177.213144 
L 519.842612 189.101482 
L 520.205165 179.28575 
L 520.930272 170.555348 
L 521.655379 138.050843 
L 522.017933 139.136079 
L 522.380486 138.149422 
L 522.74304 129.744536 
L 523.105593 141.41735 
L 523.468147 132.257985 
L 524.193254 160.840023 
L 524.555807 159.134872 
L 524.91836 149.420813 
L 525.280914 191.516456 
L 525.643467 156.366907 
L 526.006021 153.207655 
L 526.368574 146.016752 
L 527.093681 155.637794 
L 527.456235 155.420097 
L 527.818788 174.316921 
L 528.181342 179.463338 
L 528.543895 182.912719 
L 528.906449 183.927486 
L 529.269002 172.970498 
L 529.631556 167.795635 
L 529.994109 150.512636 
L 530.356663 146.067921 
L 530.719216 137.23626 
L 531.081769 133.048797 
L 531.444323 130.182524 
L 531.806876 136.455033 
L 532.16943 137.944783 
L 533.25709 173.806811 
L 533.619644 158.353994 
L 533.982197 158.654836 
L 534.344751 159.251337 
L 534.707304 161.749542 
L 535.069858 154.876804 
L 535.432411 151.799602 
L 535.794965 152.275431 
L 536.157518 159.570775 
L 536.520071 174.425077 
L 536.882625 183.250879 
L 537.245178 184.127534 
L 537.607732 190.785145 
L 537.970285 178.973939 
L 538.332839 176.83713 
L 538.695392 155.70493 
L 539.057946 148.942853 
L 539.420499 136.606434 
L 539.783053 134.761423 
L 540.50816 135.091883 
L 540.870713 139.256797 
L 541.958373 170.552397 
L 542.320927 164.260374 
L 542.68348 154.110542 
L 543.046034 155.10634 
L 543.408587 151.393876 
L 543.771141 144.120914 
L 544.133694 154.704026 
L 544.496248 171.660818 
L 544.858801 182.430611 
L 545.221355 199.422435 
L 545.583908 232.219511 
L 545.946462 243.759337 
L 546.309015 260.630022 
L 546.671569 242.941605 
L 547.396676 170.127937 
L 547.759229 139.56601 
L 548.484336 101.721712 
L 548.846889 100.577041 
L 549.571996 151.634671 
L 549.93455 157.793635 
L 550.297103 180.463601 
L 551.02221 204.651494 
L 551.384764 186.582837 
L 551.747317 162.14603 
L 552.109871 184.1161 
L 552.472424 140.473184 
L 552.834978 178.84366 
L 553.197531 173.258954 
L 553.560084 202.430103 
L 553.922638 201.58054 
L 554.285191 228.137792 
L 554.647745 244.2285 
L 555.010298 213.477698 
L 555.372852 237.591568 
L 555.735405 190.620129 
L 556.460512 130.903165 
L 556.823066 133.303406 
L 557.548173 97.751223 
L 557.910726 121.410139 
L 558.27328 131.253343 
L 558.635833 174.380194 
L 558.998386 178.405267 
L 559.36094 188.762236 
L 559.723493 186.98456 
L 560.086047 190.113097 
L 560.4486 190.01609 
L 560.811154 164.40605 
L 561.173707 154.05656 
L 561.536261 155.489087 
L 561.898814 159.671234 
L 562.261368 172.54594 
L 562.623921 202.790605 
L 562.986475 223.635537 
L 563.349028 257.028229 
L 564.074135 222.051893 
L 564.436689 176.31424 
L 564.799242 171.425469 
L 565.161795 119.943258 
L 565.524349 86.417611 
L 565.886902 95.789721 
L 566.249456 98.569404 
L 566.612009 94.576161 
L 567.337116 133.351519 
L 567.69967 180.116711 
L 568.062223 195.90238 
L 568.424777 161.405348 
L 568.78733 172.22282 
L 569.149884 179.232162 
L 569.512437 136.332337 
L 569.874991 134.758321 
L 570.237544 150.55139 
L 570.600097 152.349358 
L 570.962651 151.284736 
L 571.325204 199.103958 
L 571.687758 203.621981 
L 572.050311 216.280209 
L 572.412865 221.08705 
L 572.775418 212.50361 
L 573.137972 167.16136 
L 573.500525 155.990672 
L 573.863079 104.974651 
L 574.588186 77.039153 
L 574.950739 66.96 
L 575.313293 83.912274 
L 575.675846 93.781956 
L 576.038399 135.819546 
L 576.400953 121.959178 
L 576.763506 165.993113 
L 577.12606 183.006132 
L 577.488613 164.845158 
L 577.851167 135.46687 
L 578.21372 135.348611 
L 578.576274 150.294522 
L 578.938827 123.840059 
L 579.301381 133.831834 
L 579.663934 180.263567 
L 580.026488 156.860913 
L 580.389041 202.143267 
L 580.751595 195.399224 
L 581.114148 218.284286 
L 582.201808 150.281585 
L 582.926915 71.896732 
L 583.289469 78.507216 
L 583.652022 79.940492 
L 584.014576 95.213738 
L 584.377129 96.574793 
L 584.739683 124.871595 
L 585.102236 181.28545 
L 585.46479 139.702911 
L 585.827343 162.459226 
L 586.189897 175.819931 
L 586.55245 141.86307 
L 586.915004 119.807957 
L 587.277557 134.945878 
L 587.64011 138.585098 
L 588.002664 146.496766 
L 588.727771 189.523324 
L 589.090324 205.245256 
L 589.452878 226.568293 
L 589.815431 217.421139 
L 590.177985 229.463929 
L 590.540538 182.02736 
L 590.903092 164.345188 
L 591.265645 121.583591 
L 591.628199 118.33975 
L 592.353306 81.020855 
L 593.078412 137.977241 
L 593.440966 143.257554 
L 593.803519 202.929032 
L 594.166073 200.55474 
L 594.89118 188.99354 
L 595.253733 177.134398 
L 595.616287 154.085048 
L 595.97884 162.70464 
L 596.703947 169.044975 
L 597.066501 178.454124 
L 597.429054 217.423381 
L 597.791608 230.132892 
L 598.154161 257.219108 
L 598.516714 266.352224 
L 598.879268 263.17814 
L 599.241821 206.044915 
L 600.329482 125.047156 
L 600.692035 127.219643 
L 601.054589 124.548496 
L 601.779696 145.228424 
L 602.142249 196.109425 
L 602.504803 191.935583 
L 602.867356 198.862749 
L 603.22991 212.556439 
L 603.592463 195.640474 
L 603.955017 188.680008 
L 604.31757 197.342174 
L 604.680123 185.494767 
L 605.042677 217.184153 
L 605.40523 187.353115 
L 605.767784 199.711632 
L 606.130337 241.110335 
L 606.492891 267.246093 
L 606.855444 257.311927 
L 607.217998 284.039037 
L 607.580551 262.180531 
L 607.943105 218.218909 
L 608.305658 211.365176 
L 608.668212 174.574635 
L 609.030765 164.421048 
L 609.393319 139.325616 
L 609.755872 129.12515 
L 610.118425 146.706258 
L 610.480979 176.488633 
L 610.843532 187.450067 
L 611.206086 220.86415 
L 611.568639 242.293451 
L 611.931193 232.922932 
L 612.293746 214.734236 
L 612.6563 205.545989 
L 613.018853 193.354299 
L 613.381407 187.203669 
L 613.74396 168.989262 
L 614.106514 207.08088 
L 614.469067 232.913713 
L 614.831621 237.215205 
L 615.194174 245.801365 
L 615.556727 271.424126 
L 615.919281 275.297186 
L 616.281834 242.820032 
L 616.644388 235.073944 
L 617.006941 213.522496 
L 617.369495 166.287978 
L 618.094602 133.232439 
L 618.457155 120.818367 
L 619.907369 205.355003 
L 620.269923 205.781867 
L 620.632476 211.352292 
L 620.99503 203.5792 
L 621.357583 190.427255 
L 621.720136 193.0007 
L 622.08269 160.500815 
L 622.807797 185.643338 
L 623.17035 217.547811 
L 623.532904 260.324402 
L 623.895457 241.858771 
L 624.258011 261.785239 
L 624.620564 255.61973 
L 624.983118 252.892702 
L 625.345671 202.296085 
L 626.070778 164.356527 
L 626.433332 131.613914 
L 626.795885 110.106298 
L 627.158438 100.488228 
L 627.520992 148.827965 
L 627.883545 111.681001 
L 628.246099 156.803646 
L 628.608652 181.331705 
L 628.971206 196.588472 
L 629.333759 220.192716 
L 629.696313 179.462683 
L 630.058866 197.098069 
L 630.42142 155.233434 
L 630.783973 166.565772 
L 631.146527 145.246375 
L 632.234187 203.074299 
L 632.59674 235.545683 
L 632.959294 231.875817 
L 633.321847 248.525207 
L 633.684401 225.244454 
L 634.046954 220.598557 
L 634.772061 138.394265 
L 635.859722 77.672674 
L 636.222275 133.023582 
L 636.584829 125.754199 
L 636.947382 164.183661 
L 637.309936 175.753353 
L 637.672489 195.142632 
L 638.035043 188.727571 
L 638.397596 171.779569 
L 638.760149 182.920189 
L 639.122703 140.76728 
L 639.485256 146.604151 
L 639.84781 145.821478 
L 640.210363 160.088033 
L 640.93547 223.465028 
L 641.298024 225.250617 
L 641.660577 244.386006 
L 642.023131 252.432001 
L 642.385684 239.444024 
L 642.748238 206.703564 
L 643.473345 129.956577 
L 643.835898 132.151404 
L 644.198451 94.703735 
L 644.561005 95.606058 
L 645.286112 141.371205 
L 645.648665 146.607251 
L 646.011219 180.664568 
L 646.373772 183.648796 
L 646.736326 189.161993 
L 647.098879 181.874069 
L 647.461433 169.769456 
L 647.823986 172.824009 
L 648.18654 166.080245 
L 648.549093 165.957259 
L 648.911647 170.702397 
L 649.2742 202.289741 
L 649.636753 212.250689 
L 649.999307 218.565954 
L 650.36186 254.34597 
L 650.724414 248.275145 
L 651.086967 244.65894 
L 651.812074 188.332417 
L 652.174628 164.930606 
L 652.537181 152.592301 
L 652.899735 152.070143 
L 653.262288 131.494267 
L 653.624842 145.518137 
L 653.987395 181.245647 
L 654.349949 188.261209 
L 654.712502 208.606874 
L 655.075055 219.663661 
L 655.437609 225.54333 
L 655.800162 196.34026 
L 656.162716 203.222864 
L 656.525269 184.612161 
L 656.887823 183.262882 
L 657.250376 191.87096 
L 657.61293 194.258482 
L 657.975483 294.073088 
L 658.338037 232.496679 
L 658.70059 245.524737 
L 659.063144 276.965011 
L 659.788251 260.900672 
L 660.150804 230.000718 
L 660.513358 232.785135 
L 660.875911 189.109778 
L 661.238464 164.988191 
L 661.601018 165.140202 
L 661.963571 167.880178 
L 662.326125 161.463178 
L 663.051232 222.947589 
L 663.413785 228.700174 
L 663.776339 230.467401 
L 664.138892 233.182823 
L 664.501446 234.498223 
L 664.863999 224.683509 
L 665.226553 219.693828 
L 665.589106 220.419114 
L 665.95166 188.832595 
L 666.314213 218.290871 
L 666.676766 222.235573 
L 667.03932 256.71071 
L 667.401873 263.086831 
L 667.764427 291.785932 
L 668.12698 283.38197 
L 668.489534 283.263841 
L 668.852087 260.856704 
L 669.214641 215.826732 
L 669.577194 209.139136 
L 670.302301 183.864499 
L 670.664855 178.343238 
L 671.027408 196.324731 
L 671.389962 197.636995 
L 672.115068 244.812674 
L 672.477622 247.74014 
L 672.840175 240.537447 
L 673.202729 244.959356 
L 673.565282 237.509145 
L 673.927836 220.898372 
L 674.290389 223.952061 
L 674.652943 219.074071 
L 675.015496 224.607839 
L 675.740603 252.107354 
L 676.103157 263.604374 
L 676.46571 268.437463 
L 676.828264 284.282581 
L 677.190817 293.818353 
L 677.553371 268.814741 
L 677.915924 224.305938 
L 678.278477 216.272662 
L 678.641031 197.62776 
L 679.003584 170.118043 
L 679.366138 175.969588 
L 679.728691 190.83733 
L 680.091245 197.82591 
L 680.453798 229.784912 
L 680.816352 243.249333 
L 681.178905 247.767663 
L 681.541459 242.161182 
L 681.904012 231.214748 
L 682.629119 219.383361 
L 682.991673 196.438137 
L 683.354226 212.167991 
L 684.079333 231.019984 
L 684.441886 247.740902 
L 684.80444 277.951468 
L 685.166993 273.522366 
L 685.529547 287.243972 
L 686.254654 244.82396 
L 686.979761 196.261623 
L 688.067421 169.129891 
L 688.429975 195.801789 
L 688.792528 193.437187 
L 689.155081 203.361307 
L 689.880188 248.283997 
L 690.242742 239.43123 
L 690.605295 234.128448 
L 690.967849 207.72817 
L 691.330402 217.052356 
L 691.692956 199.075505 
L 692.055509 208.647698 
L 692.418063 206.174862 
L 692.780616 208.73889 
L 693.14317 242.506113 
L 693.505723 252.560575 
L 693.868277 275.472519 
L 694.23083 257.378391 
L 694.593384 257.235017 
L 695.31849 222.66309 
L 695.681044 182.395317 
L 696.043597 181.8048 
L 696.406151 159.611116 
L 696.768704 164.311231 
L 697.131258 183.109445 
L 697.493811 183.307761 
L 697.856365 214.490817 
L 698.218918 212.655764 
L 698.581472 224.788317 
L 698.944025 217.649525 
L 699.306579 219.04654 
L 699.669132 221.220455 
L 700.031686 194.267369 
L 700.394239 182.18833 
L 701.119346 216.478676 
L 701.481899 225.428544 
L 701.844453 247.528595 
L 702.207006 261.037993 
L 702.56956 280.965343 
L 702.932113 268.779986 
L 703.294667 240.22511 
L 703.65722 232.79364 
L 704.019774 222.566032 
L 704.382327 184.856053 
L 704.744881 193.416462 
L 705.107434 156.825645 
L 705.469988 164.689377 
L 706.195094 187.003916 
L 706.557648 209.798228 
L 706.920201 214.95001 
L 707.282755 235.433426 
L 707.645308 234.489094 
L 708.007862 236.783478 
L 708.370415 220.0266 
L 708.732969 224.957545 
L 709.095522 199.638746 
L 709.458076 210.814682 
L 709.820629 208.768747 
L 710.545736 267.046812 
L 710.90829 279.439998 
L 711.270843 284.354617 
L 711.633397 277.891385 
L 711.99595 276.338691 
L 712.721057 228.472222 
L 713.446164 200.949435 
L 713.808717 175.506566 
L 714.171271 176.032674 
L 714.533824 179.29339 
L 714.896378 218.518001 
L 715.258931 223.153333 
L 715.621485 252.526582 
L 715.984038 242.212724 
L 716.346592 251.739068 
L 716.709145 269.414708 
L 717.071699 252.494532 
L 717.434252 228.625083 
L 717.796805 218.570437 
L 718.159359 229.223865 
L 718.521912 248.102105 
L 718.884466 259.485625 
L 719.972126 314.363185 
L 720.33468 297.003614 
L 720.697233 300.347652 
L 721.059787 282.273208 
L 721.784894 226.473657 
L 722.147447 226.75193 
L 722.510001 192.695655 
L 722.872554 205.604917 
L 723.235107 207.004682 
L 723.597661 213.677463 
L 723.960214 234.33877 
L 724.322768 279.944912 
L 724.685321 291.268515 
L 725.047875 265.595252 
L 725.410428 276.24743 
L 725.772982 257.713399 
L 726.135535 256.593805 
L 726.498089 261.239117 
L 726.860642 257.17739 
L 727.223196 267.395269 
L 727.948303 295.022782 
L 728.310856 306.578393 
L 728.673409 323.351299 
L 729.035963 322.205452 
L 729.76107 283.975761 
L 730.123623 270.319462 
L 730.486177 250.258858 
L 730.84873 239.001643 
L 731.573837 201.464592 
L 731.936391 223.233086 
L 732.298944 252.852623 
L 732.661498 264.954573 
L 733.024051 282.164061 
L 733.386605 277.815778 
L 733.749158 289.134468 
L 734.111712 225.841084 
L 734.474265 271.591856 
L 734.836818 271.480148 
L 735.199372 266.635524 
L 735.561925 272.857094 
L 735.924479 254.870999 
L 736.287032 278.915083 
L 736.649586 289.696047 
L 737.012139 329.096754 
L 737.374693 319.451529 
L 737.737246 330.27567 
L 738.462353 305.465908 
L 738.824907 267.635146 
L 739.18746 245.009975 
L 739.550014 214.244415 
L 739.912567 226.173908 
L 740.27512 213.423463 
L 740.637674 238.315166 
L 741.000227 235.743451 
L 741.362781 251.078194 
L 741.725334 281.263839 
L 742.087888 276.750925 
L 742.450441 289.347896 
L 742.812995 287.50494 
L 743.175548 266.824538 
L 743.538102 257.551371 
L 743.900655 254.336495 
L 744.263209 255.773404 
L 744.625762 258.646983 
L 744.988316 276.096968 
L 745.350869 286.610161 
L 745.713422 313.279266 
L 746.075976 321.37778 
L 746.438529 326.456148 
L 746.801083 301.653479 
L 747.163636 289.446658 
L 747.163636 289.446658 
" style="fill:none;stroke:#1f77b4;stroke-linecap:square;stroke-width:1.5;"/>
   </g>
   <g id="line2d_19">
    <path clip-path="url(#pa46e3063f9)" d="M 745.713422 384.48 
L 745.713422 51.84 
" style="fill:none;stroke:#808080;stroke-linecap:square;"/>
   </g>
   <g id="patch_57">
    <path d="M 108 384.48 
L 108 51.84 
" style="fill:none;stroke:#000000;stroke-linecap:square;stroke-linejoin:miter;stroke-width:0.8;"/>
   </g>
   <g id="patch_58">
    <path d="M 777.6 384.48 
L 777.6 51.84 
" style="fill:none;stroke:#000000;stroke-linecap:square;stroke-linejoin:miter;stroke-width:0.8;"/>
   </g>
   <g id="patch_59">
    <path d="M 108 384.48 
L 777.6 384.48 
" style="fill:none;stroke:#000000;stroke-linecap:square;stroke-linejoin:miter;stroke-width:0.8;"/>
   </g>
   <g id="patch_60">
    <path d="M 108 51.84 
L 777.6 51.84 
" style="fill:none;stroke:#000000;stroke-linecap:square;stroke-linejoin:miter;stroke-width:0.8;"/>
   </g>
   <g id="text_20">
    <!-- A4Benchmark-TS58.csv -->
    <defs>
     <path d="M 34.1875 63.1875 
L 20.796875 26.90625 
L 47.609375 26.90625 
z
M 28.609375 72.90625 
L 39.796875 72.90625 
L 67.578125 0 
L 57.328125 0 
L 50.6875 18.703125 
L 17.828125 18.703125 
L 11.1875 0 
L 0.78125 0 
z
" id="DejaVuSans-65"/>
     <path d="M 37.796875 64.3125 
L 12.890625 25.390625 
L 37.796875 25.390625 
z
M 35.203125 72.90625 
L 47.609375 72.90625 
L 47.609375 25.390625 
L 58.015625 25.390625 
L 58.015625 17.1875 
L 47.609375 17.1875 
L 47.609375 0 
L 37.796875 0 
L 37.796875 17.1875 
L 4.890625 17.1875 
L 4.890625 26.703125 
z
" id="DejaVuSans-52"/>
     <path d="M 19.671875 34.8125 
L 19.671875 8.109375 
L 35.5 8.109375 
Q 43.453125 8.109375 47.28125 11.40625 
Q 51.125 14.703125 51.125 21.484375 
Q 51.125 28.328125 47.28125 31.5625 
Q 43.453125 34.8125 35.5 34.8125 
z
M 19.671875 64.796875 
L 19.671875 42.828125 
L 34.28125 42.828125 
Q 41.5 42.828125 45.03125 45.53125 
Q 48.578125 48.25 48.578125 53.8125 
Q 48.578125 59.328125 45.03125 62.0625 
Q 41.5 64.796875 34.28125 64.796875 
z
M 9.8125 72.90625 
L 35.015625 72.90625 
Q 46.296875 72.90625 52.390625 68.21875 
Q 58.5 63.53125 58.5 54.890625 
Q 58.5 48.1875 55.375 44.234375 
Q 52.25 40.28125 46.1875 39.3125 
Q 53.46875 37.75 57.5 32.78125 
Q 61.53125 27.828125 61.53125 20.40625 
Q 61.53125 10.640625 54.890625 5.3125 
Q 48.25 0 35.984375 0 
L 9.8125 0 
z
" id="DejaVuSans-66"/>
     <path d="M 54.890625 33.015625 
L 54.890625 0 
L 45.90625 0 
L 45.90625 32.71875 
Q 45.90625 40.484375 42.875 44.328125 
Q 39.84375 48.1875 33.796875 48.1875 
Q 26.515625 48.1875 22.3125 43.546875 
Q 18.109375 38.921875 18.109375 30.90625 
L 18.109375 0 
L 9.078125 0 
L 9.078125 54.6875 
L 18.109375 54.6875 
L 18.109375 46.1875 
Q 21.34375 51.125 25.703125 53.5625 
Q 30.078125 56 35.796875 56 
Q 45.21875 56 50.046875 50.171875 
Q 54.890625 44.34375 54.890625 33.015625 
z
" id="DejaVuSans-110"/>
     <path d="M 48.78125 52.59375 
L 48.78125 44.1875 
Q 44.96875 46.296875 41.140625 47.34375 
Q 37.3125 48.390625 33.40625 48.390625 
Q 24.65625 48.390625 19.8125 42.84375 
Q 14.984375 37.3125 14.984375 27.296875 
Q 14.984375 17.28125 19.8125 11.734375 
Q 24.65625 6.203125 33.40625 6.203125 
Q 37.3125 6.203125 41.140625 7.25 
Q 44.96875 8.296875 48.78125 10.40625 
L 48.78125 2.09375 
Q 45.015625 0.34375 40.984375 -0.53125 
Q 36.96875 -1.421875 32.421875 -1.421875 
Q 20.0625 -1.421875 12.78125 6.34375 
Q 5.515625 14.109375 5.515625 27.296875 
Q 5.515625 40.671875 12.859375 48.328125 
Q 20.21875 56 33.015625 56 
Q 37.15625 56 41.109375 55.140625 
Q 45.0625 54.296875 48.78125 52.59375 
z
" id="DejaVuSans-99"/>
     <path d="M 54.890625 33.015625 
L 54.890625 0 
L 45.90625 0 
L 45.90625 32.71875 
Q 45.90625 40.484375 42.875 44.328125 
Q 39.84375 48.1875 33.796875 48.1875 
Q 26.515625 48.1875 22.3125 43.546875 
Q 18.109375 38.921875 18.109375 30.90625 
L 18.109375 0 
L 9.078125 0 
L 9.078125 75.984375 
L 18.109375 75.984375 
L 18.109375 46.1875 
Q 21.34375 51.125 25.703125 53.5625 
Q 30.078125 56 35.796875 56 
Q 45.21875 56 50.046875 50.171875 
Q 54.890625 44.34375 54.890625 33.015625 
z
" id="DejaVuSans-104"/>
     <path d="M 41.109375 46.296875 
Q 39.59375 47.171875 37.8125 47.578125 
Q 36.03125 48 33.890625 48 
Q 26.265625 48 22.1875 43.046875 
Q 18.109375 38.09375 18.109375 28.8125 
L 18.109375 0 
L 9.078125 0 
L 9.078125 54.6875 
L 18.109375 54.6875 
L 18.109375 46.1875 
Q 20.953125 51.171875 25.484375 53.578125 
Q 30.03125 56 36.53125 56 
Q 37.453125 56 38.578125 55.875 
Q 39.703125 55.765625 41.0625 55.515625 
z
" id="DejaVuSans-114"/>
     <path d="M 9.078125 75.984375 
L 18.109375 75.984375 
L 18.109375 31.109375 
L 44.921875 54.6875 
L 56.390625 54.6875 
L 27.390625 29.109375 
L 57.625 0 
L 45.90625 0 
L 18.109375 26.703125 
L 18.109375 0 
L 9.078125 0 
z
" id="DejaVuSans-107"/>
     <path d="M 4.890625 31.390625 
L 31.203125 31.390625 
L 31.203125 23.390625 
L 4.890625 23.390625 
z
" id="DejaVuSans-45"/>
     <path d="M 53.515625 70.515625 
L 53.515625 60.890625 
Q 47.90625 63.578125 42.921875 64.890625 
Q 37.9375 66.21875 33.296875 66.21875 
Q 25.25 66.21875 20.875 63.09375 
Q 16.5 59.96875 16.5 54.203125 
Q 16.5 49.359375 19.40625 46.890625 
Q 22.3125 44.4375 30.421875 42.921875 
L 36.375 41.703125 
Q 47.40625 39.59375 52.65625 34.296875 
Q 57.90625 29 57.90625 20.125 
Q 57.90625 9.515625 50.796875 4.046875 
Q 43.703125 -1.421875 29.984375 -1.421875 
Q 24.8125 -1.421875 18.96875 -0.25 
Q 13.140625 0.921875 6.890625 3.21875 
L 6.890625 13.375 
Q 12.890625 10.015625 18.65625 8.296875 
Q 24.421875 6.59375 29.984375 6.59375 
Q 38.421875 6.59375 43.015625 9.90625 
Q 47.609375 13.234375 47.609375 19.390625 
Q 47.609375 24.75 44.3125 27.78125 
Q 41.015625 30.8125 33.5 32.328125 
L 27.484375 33.5 
Q 16.453125 35.6875 11.515625 40.375 
Q 6.59375 45.0625 6.59375 53.421875 
Q 6.59375 63.09375 13.40625 68.65625 
Q 20.21875 74.21875 32.171875 74.21875 
Q 37.3125 74.21875 42.625 73.28125 
Q 47.953125 72.359375 53.515625 70.515625 
z
" id="DejaVuSans-83"/>
     <path d="M 31.78125 34.625 
Q 24.75 34.625 20.71875 30.859375 
Q 16.703125 27.09375 16.703125 20.515625 
Q 16.703125 13.921875 20.71875 10.15625 
Q 24.75 6.390625 31.78125 6.390625 
Q 38.8125 6.390625 42.859375 10.171875 
Q 46.921875 13.96875 46.921875 20.515625 
Q 46.921875 27.09375 42.890625 30.859375 
Q 38.875 34.625 31.78125 34.625 
z
M 21.921875 38.8125 
Q 15.578125 40.375 12.03125 44.71875 
Q 8.5 49.078125 8.5 55.328125 
Q 8.5 64.0625 14.71875 69.140625 
Q 20.953125 74.21875 31.78125 74.21875 
Q 42.671875 74.21875 48.875 69.140625 
Q 55.078125 64.0625 55.078125 55.328125 
Q 55.078125 49.078125 51.53125 44.71875 
Q 48 40.375 41.703125 38.8125 
Q 48.828125 37.15625 52.796875 32.3125 
Q 56.78125 27.484375 56.78125 20.515625 
Q 56.78125 9.90625 50.3125 4.234375 
Q 43.84375 -1.421875 31.78125 -1.421875 
Q 19.734375 -1.421875 13.25 4.234375 
Q 6.78125 9.90625 6.78125 20.515625 
Q 6.78125 27.484375 10.78125 32.3125 
Q 14.796875 37.15625 21.921875 38.8125 
z
M 18.3125 54.390625 
Q 18.3125 48.734375 21.84375 45.5625 
Q 25.390625 42.390625 31.78125 42.390625 
Q 38.140625 42.390625 41.71875 45.5625 
Q 45.3125 48.734375 45.3125 54.390625 
Q 45.3125 60.0625 41.71875 63.234375 
Q 38.140625 66.40625 31.78125 66.40625 
Q 25.390625 66.40625 21.84375 63.234375 
Q 18.3125 60.0625 18.3125 54.390625 
z
" id="DejaVuSans-56"/>
     <path d="M 10.6875 12.40625 
L 21 12.40625 
L 21 0 
L 10.6875 0 
z
" id="DejaVuSans-46"/>
     <path d="M 2.984375 54.6875 
L 12.5 54.6875 
L 29.59375 8.796875 
L 46.6875 54.6875 
L 56.203125 54.6875 
L 35.6875 0 
L 23.484375 0 
z
" id="DejaVuSans-118"/>
    </defs>
    <g transform="translate(371.555625 45.84)scale(0.12 -0.12)">
     <use xlink:href="#DejaVuSans-65"/>
     <use x="68.408203" xlink:href="#DejaVuSans-52"/>
     <use x="132.03125" xlink:href="#DejaVuSans-66"/>
     <use x="200.634766" xlink:href="#DejaVuSans-101"/>
     <use x="262.158203" xlink:href="#DejaVuSans-110"/>
     <use x="325.537109" xlink:href="#DejaVuSans-99"/>
     <use x="380.517578" xlink:href="#DejaVuSans-104"/>
     <use x="443.896484" xlink:href="#DejaVuSans-109"/>
     <use x="541.308594" xlink:href="#DejaVuSans-97"/>
     <use x="602.587891" xlink:href="#DejaVuSans-114"/>
     <use x="643.701172" xlink:href="#DejaVuSans-107"/>
     <use x="701.611328" xlink:href="#DejaVuSans-45"/>
     <use x="737.554688" xlink:href="#DejaVuSans-84"/>
     <use x="798.638672" xlink:href="#DejaVuSans-83"/>
     <use x="862.115234" xlink:href="#DejaVuSans-53"/>
     <use x="925.738281" xlink:href="#DejaVuSans-56"/>
     <use x="989.361328" xlink:href="#DejaVuSans-46"/>
     <use x="1021.148438" xlink:href="#DejaVuSans-99"/>
     <use x="1076.128906" xlink:href="#DejaVuSans-115"/>
     <use x="1128.228516" xlink:href="#DejaVuSans-118"/>
    </g>
   </g>
   <g id="legend_1">
    <g id="patch_61">
     <path d="M 115 74.518125 
L 174.315625 74.518125 
Q 176.315625 74.518125 176.315625 72.518125 
L 176.315625 58.84 
Q 176.315625 56.84 174.315625 56.84 
L 115 56.84 
Q 113 56.84 113 58.84 
L 113 72.518125 
Q 113 74.518125 115 74.518125 
z
" style="fill:#ffffff;opacity:0.8;stroke:#cccccc;stroke-linejoin:miter;"/>
    </g>
    <g id="line2d_20">
     <path d="M 117 64.938438 
L 137 64.938438 
" style="fill:none;stroke:#1f77b4;stroke-linecap:square;stroke-width:1.5;"/>
    </g>
    <g id="line2d_21"/>
    <g id="text_21">
     <!-- value -->
     <g transform="translate(145 68.438438)scale(0.1 -0.1)">
      <use xlink:href="#DejaVuSans-118"/>
      <use x="59.179688" xlink:href="#DejaVuSans-97"/>
      <use x="120.458984" xlink:href="#DejaVuSans-108"/>
      <use x="148.242188" xlink:href="#DejaVuSans-117"/>
      <use x="211.621094" xlink:href="#DejaVuSans-101"/>
     </g>
    </g>
   </g>
  </g>
 </g>
 <defs>
  <clipPath id="pa46e3063f9">
   <rect height="332.64" width="669.6" x="108" y="51.84"/>
  </clipPath>
 </defs>
</svg>
