<?xml version="1.0" encoding="utf-8" standalone="no"?>
<!DOCTYPE svg PUBLIC "-//W3C//DTD SVG 1.1//EN"
  "http://www.w3.org/Graphics/SVG/1.1/DTD/svg11.dtd">
<!-- Created with matplotlib (https://matplotlib.org/) -->
<svg height="432pt" version="1.1" viewBox="0 0 864 432" width="864pt" xmlns="http://www.w3.org/2000/svg" xmlns:xlink="http://www.w3.org/1999/xlink">
 <defs>
  <style type="text/css">
*{stroke-linecap:butt;stroke-linejoin:round;}
  </style>
 </defs>
 <g id="figure_1">
  <g id="patch_1">
   <path d="M 0 432 
L 864 432 
L 864 0 
L 0 0 
z
" style="fill:#ffffff;"/>
  </g>
  <g id="axes_1">
   <g id="patch_2">
    <path d="M 108 384.48 
L 777.6 384.48 
L 777.6 51.84 
L 108 51.84 
z
" style="fill:#ffffff;"/>
   </g>
   <g id="patch_3">
    <path clip-path="url(#p73805a0068)" d="M 138.436364 384.48 
L 138.436364 51.84 
L 374.096118 51.84 
L 374.096118 384.48 
z
" style="fill:#0000ff;opacity:0.05;"/>
   </g>
   <g id="patch_4">
    <path clip-path="url(#p73805a0068)" d="M 374.096118 384.48 
L 374.096118 51.84 
L 745.713422 51.84 
L 745.713422 384.48 
z
" style="fill:#ff0000;opacity:0.08;"/>
   </g>
   <g id="patch_5">
    <path clip-path="url(#p73805a0068)" d="M 138.436364 384.48 
L 138.436364 51.84 
L 147.5002 51.84 
L 147.5002 384.48 
z
" style="fill:#008000;opacity:0.04;"/>
   </g>
   <g id="patch_6">
    <path clip-path="url(#p73805a0068)" d="M 156.564037 384.48 
L 156.564037 51.84 
L 165.627874 51.84 
L 165.627874 384.48 
z
" style="fill:#008000;opacity:0.04;"/>
   </g>
   <g id="patch_7">
    <path clip-path="url(#p73805a0068)" d="M 165.627874 371.1744 
L 165.627874 51.84 
L 174.69171 51.84 
L 174.69171 371.1744 
z
" style="fill:#008000;opacity:0.5;"/>
   </g>
   <g id="patch_8">
    <path clip-path="url(#p73805a0068)" d="M 165.627874 384.48 
L 165.627874 371.1744 
L 174.69171 371.1744 
L 174.69171 384.48 
z
" style="fill:#ffe500;"/>
   </g>
   <g id="patch_9">
    <path clip-path="url(#p73805a0068)" d="M 174.69171 384.48 
L 174.69171 51.84 
L 183.755547 51.84 
L 183.755547 384.48 
z
" style="fill:#008000;opacity:0.04;"/>
   </g>
   <g id="patch_10">
    <path clip-path="url(#p73805a0068)" d="M 192.819384 384.48 
L 192.819384 51.84 
L 201.883221 51.84 
L 201.883221 384.48 
z
" style="fill:#008000;opacity:0.04;"/>
   </g>
   <g id="patch_11">
    <path clip-path="url(#p73805a0068)" d="M 210.947057 384.48 
L 210.947057 51.84 
L 220.010894 51.84 
L 220.010894 384.48 
z
" style="fill:#008000;opacity:0.04;"/>
   </g>
   <g id="patch_12">
    <path clip-path="url(#p73805a0068)" d="M 229.074731 384.48 
L 229.074731 51.84 
L 238.138567 51.84 
L 238.138567 384.48 
z
" style="fill:#008000;opacity:0.04;"/>
   </g>
   <g id="patch_13">
    <path clip-path="url(#p73805a0068)" d="M 229.074731 371.1744 
L 229.074731 51.84 
L 238.138567 51.84 
L 238.138567 371.1744 
z
" style="fill:#008000;opacity:0.5;"/>
   </g>
   <g id="patch_14">
    <path clip-path="url(#p73805a0068)" d="M 229.074731 384.48 
L 229.074731 371.1744 
L 238.138567 371.1744 
L 238.138567 384.48 
z
" style="fill:#ffe500;"/>
   </g>
   <g id="patch_15">
    <path clip-path="url(#p73805a0068)" d="M 247.202404 384.48 
L 247.202404 51.84 
L 256.266241 51.84 
L 256.266241 384.48 
z
" style="fill:#008000;opacity:0.04;"/>
   </g>
   <g id="patch_16">
    <path clip-path="url(#p73805a0068)" d="M 265.330077 384.48 
L 265.330077 51.84 
L 274.393914 51.84 
L 274.393914 384.48 
z
" style="fill:#008000;opacity:0.04;"/>
   </g>
   <g id="patch_17">
    <path clip-path="url(#p73805a0068)" d="M 283.457751 384.48 
L 283.457751 51.84 
L 292.521588 51.84 
L 292.521588 384.48 
z
" style="fill:#008000;opacity:0.04;"/>
   </g>
   <g id="patch_18">
    <path clip-path="url(#p73805a0068)" d="M 301.585424 384.48 
L 301.585424 51.84 
L 310.649261 51.84 
L 310.649261 384.48 
z
" style="fill:#008000;opacity:0.04;"/>
   </g>
   <g id="patch_19">
    <path clip-path="url(#p73805a0068)" d="M 546.309015 384.48 
L 546.309015 371.1744 
L 555.372852 371.1744 
L 555.372852 384.48 
z
" style="fill:#ff6600;"/>
   </g>
   <g id="patch_20">
    <path clip-path="url(#p73805a0068)" d="M 319.713098 384.48 
L 319.713098 51.84 
L 328.776934 51.84 
L 328.776934 384.48 
z
" style="fill:#008000;opacity:0.04;"/>
   </g>
   <g id="patch_21">
    <path clip-path="url(#p73805a0068)" d="M 319.713098 371.1744 
L 319.713098 51.84 
L 328.776934 51.84 
L 328.776934 371.1744 
z
" style="fill:#008000;opacity:0.5;"/>
   </g>
   <g id="patch_22">
    <path clip-path="url(#p73805a0068)" d="M 337.840771 384.48 
L 337.840771 51.84 
L 346.904608 51.84 
L 346.904608 384.48 
z
" style="fill:#008000;opacity:0.04;"/>
   </g>
   <g id="patch_23">
    <path clip-path="url(#p73805a0068)" d="M 355.968444 384.48 
L 355.968444 51.84 
L 365.032281 51.84 
L 365.032281 384.48 
z
" style="fill:#008000;opacity:0.04;"/>
   </g>
   <g id="patch_24">
    <path clip-path="url(#p73805a0068)" d="M 355.968444 371.1744 
L 355.968444 51.84 
L 365.032281 51.84 
L 365.032281 371.1744 
z
" style="fill:#008000;opacity:0.5;"/>
   </g>
   <g id="patch_25">
    <path clip-path="url(#p73805a0068)" d="M 374.096118 384.48 
L 374.096118 51.84 
L 383.159955 51.84 
L 383.159955 384.48 
z
" style="fill:#008000;opacity:0.04;"/>
   </g>
   <g id="patch_26">
    <path clip-path="url(#p73805a0068)" d="M 392.223791 384.48 
L 392.223791 51.84 
L 401.287628 51.84 
L 401.287628 384.48 
z
" style="fill:#008000;opacity:0.04;"/>
   </g>
   <g id="patch_27">
    <path clip-path="url(#p73805a0068)" d="M 401.287628 371.1744 
L 401.287628 51.84 
L 410.351465 51.84 
L 410.351465 371.1744 
z
" style="fill:#008000;opacity:0.5;"/>
   </g>
   <g id="patch_28">
    <path clip-path="url(#p73805a0068)" d="M 410.351465 384.48 
L 410.351465 51.84 
L 419.415301 51.84 
L 419.415301 384.48 
z
" style="fill:#008000;opacity:0.04;"/>
   </g>
   <g id="patch_29">
    <path clip-path="url(#p73805a0068)" d="M 410.351465 371.1744 
L 410.351465 51.84 
L 419.415301 51.84 
L 419.415301 371.1744 
z
" style="fill:#008000;opacity:0.5;"/>
   </g>
   <g id="patch_30">
    <path clip-path="url(#p73805a0068)" d="M 646.011219 384.48 
L 646.011219 371.1744 
L 655.075055 371.1744 
L 655.075055 384.48 
z
" style="fill:#ff6600;"/>
   </g>
   <g id="patch_31">
    <path clip-path="url(#p73805a0068)" d="M 419.415301 371.1744 
L 419.415301 51.84 
L 428.479138 51.84 
L 428.479138 371.1744 
z
" style="fill:#008000;opacity:0.5;"/>
   </g>
   <g id="patch_32">
    <path clip-path="url(#p73805a0068)" d="M 428.479138 384.48 
L 428.479138 51.84 
L 437.542975 51.84 
L 437.542975 384.48 
z
" style="fill:#008000;opacity:0.04;"/>
   </g>
   <g id="patch_33">
    <path clip-path="url(#p73805a0068)" d="M 437.542975 371.1744 
L 437.542975 357.8688 
L 446.606811 357.8688 
L 446.606811 371.1744 
z
" style="fill:#ff00ff;"/>
   </g>
   <g id="patch_34">
    <path clip-path="url(#p73805a0068)" d="M 446.606811 384.48 
L 446.606811 51.84 
L 455.670648 51.84 
L 455.670648 384.48 
z
" style="fill:#008000;opacity:0.04;"/>
   </g>
   <g id="patch_35">
    <path clip-path="url(#p73805a0068)" d="M 446.606811 371.1744 
L 446.606811 51.84 
L 455.670648 51.84 
L 455.670648 371.1744 
z
" style="fill:#008000;opacity:0.5;"/>
   </g>
   <g id="patch_36">
    <path clip-path="url(#p73805a0068)" d="M 464.734485 384.48 
L 464.734485 51.84 
L 473.798322 51.84 
L 473.798322 384.48 
z
" style="fill:#008000;opacity:0.04;"/>
   </g>
   <g id="patch_37">
    <path clip-path="url(#p73805a0068)" d="M 482.862158 384.48 
L 482.862158 51.84 
L 491.925995 51.84 
L 491.925995 384.48 
z
" style="fill:#008000;opacity:0.04;"/>
   </g>
   <g id="patch_38">
    <path clip-path="url(#p73805a0068)" d="M 482.862158 371.1744 
L 482.862158 51.84 
L 491.925995 51.84 
L 491.925995 371.1744 
z
" style="fill:#008000;opacity:0.5;"/>
   </g>
   <g id="patch_39">
    <path clip-path="url(#p73805a0068)" d="M 500.989832 384.48 
L 500.989832 51.84 
L 510.053668 51.84 
L 510.053668 384.48 
z
" style="fill:#008000;opacity:0.04;"/>
   </g>
   <g id="patch_40">
    <path clip-path="url(#p73805a0068)" d="M 510.053668 371.1744 
L 510.053668 51.84 
L 519.117505 51.84 
L 519.117505 371.1744 
z
" style="fill:#008000;opacity:0.5;"/>
   </g>
   <g id="patch_41">
    <path clip-path="url(#p73805a0068)" d="M 519.117505 384.48 
L 519.117505 51.84 
L 528.181342 51.84 
L 528.181342 384.48 
z
" style="fill:#008000;opacity:0.04;"/>
   </g>
   <g id="patch_42">
    <path clip-path="url(#p73805a0068)" d="M 537.245178 384.48 
L 537.245178 51.84 
L 546.309015 51.84 
L 546.309015 384.48 
z
" style="fill:#008000;opacity:0.04;"/>
   </g>
   <g id="patch_43">
    <path clip-path="url(#p73805a0068)" d="M 546.309015 371.1744 
L 546.309015 51.84 
L 555.372852 51.84 
L 555.372852 371.1744 
z
" style="fill:#008000;opacity:0.5;"/>
   </g>
   <g id="patch_44">
    <path clip-path="url(#p73805a0068)" d="M 555.372852 384.48 
L 555.372852 51.84 
L 564.436689 51.84 
L 564.436689 384.48 
z
" style="fill:#008000;opacity:0.04;"/>
   </g>
   <g id="patch_45">
    <path clip-path="url(#p73805a0068)" d="M 573.500525 384.48 
L 573.500525 51.84 
L 582.564362 51.84 
L 582.564362 384.48 
z
" style="fill:#008000;opacity:0.04;"/>
   </g>
   <g id="patch_46">
    <path clip-path="url(#p73805a0068)" d="M 591.628199 384.48 
L 591.628199 51.84 
L 600.692035 51.84 
L 600.692035 384.48 
z
" style="fill:#008000;opacity:0.04;"/>
   </g>
   <g id="patch_47">
    <path clip-path="url(#p73805a0068)" d="M 591.628199 371.1744 
L 591.628199 357.8688 
L 600.692035 357.8688 
L 600.692035 371.1744 
z
" style="fill:#ff00ff;"/>
   </g>
   <g id="patch_48">
    <path clip-path="url(#p73805a0068)" d="M 600.692035 371.1744 
L 600.692035 51.84 
L 609.755872 51.84 
L 609.755872 371.1744 
z
" style="fill:#008000;opacity:0.5;"/>
   </g>
   <g id="patch_49">
    <path clip-path="url(#p73805a0068)" d="M 609.755872 384.48 
L 609.755872 51.84 
L 618.819709 51.84 
L 618.819709 384.48 
z
" style="fill:#008000;opacity:0.04;"/>
   </g>
   <g id="patch_50">
    <path clip-path="url(#p73805a0068)" d="M 627.883545 384.48 
L 627.883545 51.84 
L 636.947382 51.84 
L 636.947382 384.48 
z
" style="fill:#008000;opacity:0.04;"/>
   </g>
   <g id="patch_51">
    <path clip-path="url(#p73805a0068)" d="M 646.011219 384.48 
L 646.011219 51.84 
L 655.075055 51.84 
L 655.075055 384.48 
z
" style="fill:#008000;opacity:0.04;"/>
   </g>
   <g id="patch_52">
    <path clip-path="url(#p73805a0068)" d="M 646.011219 371.1744 
L 646.011219 51.84 
L 655.075055 51.84 
L 655.075055 371.1744 
z
" style="fill:#008000;opacity:0.5;"/>
   </g>
   <g id="patch_53">
    <path clip-path="url(#p73805a0068)" d="M 655.075055 371.1744 
L 655.075055 51.84 
L 664.138892 51.84 
L 664.138892 371.1744 
z
" style="fill:#008000;opacity:0.5;"/>
   </g>
   <g id="patch_54">
    <path clip-path="url(#p73805a0068)" d="M 664.138892 384.48 
L 664.138892 51.84 
L 673.202729 51.84 
L 673.202729 384.48 
z
" style="fill:#008000;opacity:0.04;"/>
   </g>
   <g id="patch_55">
    <path clip-path="url(#p73805a0068)" d="M 664.138892 371.1744 
L 664.138892 51.84 
L 673.202729 51.84 
L 673.202729 371.1744 
z
" style="fill:#008000;opacity:0.5;"/>
   </g>
   <g id="patch_56">
    <path clip-path="url(#p73805a0068)" d="M 682.266566 384.48 
L 682.266566 51.84 
L 691.330402 51.84 
L 691.330402 384.48 
z
" style="fill:#008000;opacity:0.04;"/>
   </g>
   <g id="patch_57">
    <path clip-path="url(#p73805a0068)" d="M 700.394239 384.48 
L 700.394239 51.84 
L 709.458076 51.84 
L 709.458076 384.48 
z
" style="fill:#008000;opacity:0.04;"/>
   </g>
   <g id="patch_58">
    <path clip-path="url(#p73805a0068)" d="M 718.521912 384.48 
L 718.521912 51.84 
L 727.585749 51.84 
L 727.585749 384.48 
z
" style="fill:#008000;opacity:0.04;"/>
   </g>
   <g id="patch_59">
    <path clip-path="url(#p73805a0068)" d="M 736.649586 384.48 
L 736.649586 51.84 
L 745.713422 51.84 
L 745.713422 384.48 
z
" style="fill:#008000;opacity:0.04;"/>
   </g>
   <g id="patch_60">
    <path clip-path="url(#p73805a0068)" d="M 736.649586 371.1744 
L 736.649586 51.84 
L 745.713422 51.84 
L 745.713422 371.1744 
z
" style="fill:#008000;opacity:0.5;"/>
   </g>
   <g id="matplotlib.axis_1">
    <g id="xtick_1">
     <g id="line2d_1">
      <defs>
       <path d="M 0 0 
L 0 3.5 
" id="ma96b73d124" style="stroke:#000000;stroke-width:0.8;"/>
      </defs>
      <g>
       <use style="stroke:#000000;stroke-width:0.8;" x="138.436364" xlink:href="#ma96b73d124" y="384.48"/>
      </g>
     </g>
     <g id="text_1">
      <!-- 0 -->
      <defs>
       <path d="M 31.78125 66.40625 
Q 24.171875 66.40625 20.328125 58.90625 
Q 16.5 51.421875 16.5 36.375 
Q 16.5 21.390625 20.328125 13.890625 
Q 24.171875 6.390625 31.78125 6.390625 
Q 39.453125 6.390625 43.28125 13.890625 
Q 47.125 21.390625 47.125 36.375 
Q 47.125 51.421875 43.28125 58.90625 
Q 39.453125 66.40625 31.78125 66.40625 
z
M 31.78125 74.21875 
Q 44.046875 74.21875 50.515625 64.515625 
Q 56.984375 54.828125 56.984375 36.375 
Q 56.984375 17.96875 50.515625 8.265625 
Q 44.046875 -1.421875 31.78125 -1.421875 
Q 19.53125 -1.421875 13.0625 8.265625 
Q 6.59375 17.96875 6.59375 36.375 
Q 6.59375 54.828125 13.0625 64.515625 
Q 19.53125 74.21875 31.78125 74.21875 
z
" id="DejaVuSans-48"/>
      </defs>
      <g transform="translate(135.255114 399.078438)scale(0.1 -0.1)">
       <use xlink:href="#DejaVuSans-48"/>
      </g>
     </g>
    </g>
    <g id="xtick_2">
     <g id="line2d_2">
      <g>
       <use style="stroke:#000000;stroke-width:0.8;" x="229.074731" xlink:href="#ma96b73d124" y="384.48"/>
      </g>
     </g>
     <g id="text_2">
      <!-- 250 -->
      <defs>
       <path d="M 19.1875 8.296875 
L 53.609375 8.296875 
L 53.609375 0 
L 7.328125 0 
L 7.328125 8.296875 
Q 12.9375 14.109375 22.625 23.890625 
Q 32.328125 33.6875 34.8125 36.53125 
Q 39.546875 41.84375 41.421875 45.53125 
Q 43.3125 49.21875 43.3125 52.78125 
Q 43.3125 58.59375 39.234375 62.25 
Q 35.15625 65.921875 28.609375 65.921875 
Q 23.96875 65.921875 18.8125 64.3125 
Q 13.671875 62.703125 7.8125 59.421875 
L 7.8125 69.390625 
Q 13.765625 71.78125 18.9375 73 
Q 24.125 74.21875 28.421875 74.21875 
Q 39.75 74.21875 46.484375 68.546875 
Q 53.21875 62.890625 53.21875 53.421875 
Q 53.21875 48.921875 51.53125 44.890625 
Q 49.859375 40.875 45.40625 35.40625 
Q 44.1875 33.984375 37.640625 27.21875 
Q 31.109375 20.453125 19.1875 8.296875 
z
" id="DejaVuSans-50"/>
       <path d="M 10.796875 72.90625 
L 49.515625 72.90625 
L 49.515625 64.59375 
L 19.828125 64.59375 
L 19.828125 46.734375 
Q 21.96875 47.46875 24.109375 47.828125 
Q 26.265625 48.1875 28.421875 48.1875 
Q 40.625 48.1875 47.75 41.5 
Q 54.890625 34.8125 54.890625 23.390625 
Q 54.890625 11.625 47.5625 5.09375 
Q 40.234375 -1.421875 26.90625 -1.421875 
Q 22.3125 -1.421875 17.546875 -0.640625 
Q 12.796875 0.140625 7.71875 1.703125 
L 7.71875 11.625 
Q 12.109375 9.234375 16.796875 8.0625 
Q 21.484375 6.890625 26.703125 6.890625 
Q 35.15625 6.890625 40.078125 11.328125 
Q 45.015625 15.765625 45.015625 23.390625 
Q 45.015625 31 40.078125 35.4375 
Q 35.15625 39.890625 26.703125 39.890625 
Q 22.75 39.890625 18.8125 39.015625 
Q 14.890625 38.140625 10.796875 36.28125 
z
" id="DejaVuSans-53"/>
      </defs>
      <g transform="translate(219.530981 399.078438)scale(0.1 -0.1)">
       <use xlink:href="#DejaVuSans-50"/>
       <use x="63.623047" xlink:href="#DejaVuSans-53"/>
       <use x="127.246094" xlink:href="#DejaVuSans-48"/>
      </g>
     </g>
    </g>
    <g id="xtick_3">
     <g id="line2d_3">
      <g>
       <use style="stroke:#000000;stroke-width:0.8;" x="319.713098" xlink:href="#ma96b73d124" y="384.48"/>
      </g>
     </g>
     <g id="text_3">
      <!-- 500 -->
      <g transform="translate(310.169348 399.078438)scale(0.1 -0.1)">
       <use xlink:href="#DejaVuSans-53"/>
       <use x="63.623047" xlink:href="#DejaVuSans-48"/>
       <use x="127.246094" xlink:href="#DejaVuSans-48"/>
      </g>
     </g>
    </g>
    <g id="xtick_4">
     <g id="line2d_4">
      <g>
       <use style="stroke:#000000;stroke-width:0.8;" x="410.351465" xlink:href="#ma96b73d124" y="384.48"/>
      </g>
     </g>
     <g id="text_4">
      <!-- 750 -->
      <defs>
       <path d="M 8.203125 72.90625 
L 55.078125 72.90625 
L 55.078125 68.703125 
L 28.609375 0 
L 18.3125 0 
L 43.21875 64.59375 
L 8.203125 64.59375 
z
" id="DejaVuSans-55"/>
      </defs>
      <g transform="translate(400.807715 399.078438)scale(0.1 -0.1)">
       <use xlink:href="#DejaVuSans-55"/>
       <use x="63.623047" xlink:href="#DejaVuSans-53"/>
       <use x="127.246094" xlink:href="#DejaVuSans-48"/>
      </g>
     </g>
    </g>
    <g id="xtick_5">
     <g id="line2d_5">
      <g>
       <use style="stroke:#000000;stroke-width:0.8;" x="500.989832" xlink:href="#ma96b73d124" y="384.48"/>
      </g>
     </g>
     <g id="text_5">
      <!-- 1000 -->
      <defs>
       <path d="M 12.40625 8.296875 
L 28.515625 8.296875 
L 28.515625 63.921875 
L 10.984375 60.40625 
L 10.984375 69.390625 
L 28.421875 72.90625 
L 38.28125 72.90625 
L 38.28125 8.296875 
L 54.390625 8.296875 
L 54.390625 0 
L 12.40625 0 
z
" id="DejaVuSans-49"/>
      </defs>
      <g transform="translate(488.264832 399.078438)scale(0.1 -0.1)">
       <use xlink:href="#DejaVuSans-49"/>
       <use x="63.623047" xlink:href="#DejaVuSans-48"/>
       <use x="127.246094" xlink:href="#DejaVuSans-48"/>
       <use x="190.869141" xlink:href="#DejaVuSans-48"/>
      </g>
     </g>
    </g>
    <g id="xtick_6">
     <g id="line2d_6">
      <g>
       <use style="stroke:#000000;stroke-width:0.8;" x="591.628199" xlink:href="#ma96b73d124" y="384.48"/>
      </g>
     </g>
     <g id="text_6">
      <!-- 1250 -->
      <g transform="translate(578.903199 399.078438)scale(0.1 -0.1)">
       <use xlink:href="#DejaVuSans-49"/>
       <use x="63.623047" xlink:href="#DejaVuSans-50"/>
       <use x="127.246094" xlink:href="#DejaVuSans-53"/>
       <use x="190.869141" xlink:href="#DejaVuSans-48"/>
      </g>
     </g>
    </g>
    <g id="xtick_7">
     <g id="line2d_7">
      <g>
       <use style="stroke:#000000;stroke-width:0.8;" x="682.266566" xlink:href="#ma96b73d124" y="384.48"/>
      </g>
     </g>
     <g id="text_7">
      <!-- 1500 -->
      <g transform="translate(669.541566 399.078438)scale(0.1 -0.1)">
       <use xlink:href="#DejaVuSans-49"/>
       <use x="63.623047" xlink:href="#DejaVuSans-53"/>
       <use x="127.246094" xlink:href="#DejaVuSans-48"/>
       <use x="190.869141" xlink:href="#DejaVuSans-48"/>
      </g>
     </g>
    </g>
    <g id="xtick_8">
     <g id="line2d_8">
      <g>
       <use style="stroke:#000000;stroke-width:0.8;" x="772.904933" xlink:href="#ma96b73d124" y="384.48"/>
      </g>
     </g>
     <g id="text_8">
      <!-- 1750 -->
      <g transform="translate(760.179933 399.078438)scale(0.1 -0.1)">
       <use xlink:href="#DejaVuSans-49"/>
       <use x="63.623047" xlink:href="#DejaVuSans-55"/>
       <use x="127.246094" xlink:href="#DejaVuSans-53"/>
       <use x="190.869141" xlink:href="#DejaVuSans-48"/>
      </g>
     </g>
    </g>
    <g id="text_9">
     <!-- Timestamp -->
     <defs>
      <path d="M -0.296875 72.90625 
L 61.375 72.90625 
L 61.375 64.59375 
L 35.5 64.59375 
L 35.5 0 
L 25.59375 0 
L 25.59375 64.59375 
L -0.296875 64.59375 
z
" id="DejaVuSans-84"/>
      <path d="M 9.421875 54.6875 
L 18.40625 54.6875 
L 18.40625 0 
L 9.421875 0 
z
M 9.421875 75.984375 
L 18.40625 75.984375 
L 18.40625 64.59375 
L 9.421875 64.59375 
z
" id="DejaVuSans-105"/>
      <path d="M 52 44.1875 
Q 55.375 50.25 60.0625 53.125 
Q 64.75 56 71.09375 56 
Q 79.640625 56 84.28125 50.015625 
Q 88.921875 44.046875 88.921875 33.015625 
L 88.921875 0 
L 79.890625 0 
L 79.890625 32.71875 
Q 79.890625 40.578125 77.09375 44.375 
Q 74.3125 48.1875 68.609375 48.1875 
Q 61.625 48.1875 57.5625 43.546875 
Q 53.515625 38.921875 53.515625 30.90625 
L 53.515625 0 
L 44.484375 0 
L 44.484375 32.71875 
Q 44.484375 40.625 41.703125 44.40625 
Q 38.921875 48.1875 33.109375 48.1875 
Q 26.21875 48.1875 22.15625 43.53125 
Q 18.109375 38.875 18.109375 30.90625 
L 18.109375 0 
L 9.078125 0 
L 9.078125 54.6875 
L 18.109375 54.6875 
L 18.109375 46.1875 
Q 21.1875 51.21875 25.484375 53.609375 
Q 29.78125 56 35.6875 56 
Q 41.65625 56 45.828125 52.96875 
Q 50 49.953125 52 44.1875 
z
" id="DejaVuSans-109"/>
      <path d="M 56.203125 29.59375 
L 56.203125 25.203125 
L 14.890625 25.203125 
Q 15.484375 15.921875 20.484375 11.0625 
Q 25.484375 6.203125 34.421875 6.203125 
Q 39.59375 6.203125 44.453125 7.46875 
Q 49.3125 8.734375 54.109375 11.28125 
L 54.109375 2.78125 
Q 49.265625 0.734375 44.1875 -0.34375 
Q 39.109375 -1.421875 33.890625 -1.421875 
Q 20.796875 -1.421875 13.15625 6.1875 
Q 5.515625 13.8125 5.515625 26.8125 
Q 5.515625 40.234375 12.765625 48.109375 
Q 20.015625 56 32.328125 56 
Q 43.359375 56 49.78125 48.890625 
Q 56.203125 41.796875 56.203125 29.59375 
z
M 47.21875 32.234375 
Q 47.125 39.59375 43.09375 43.984375 
Q 39.0625 48.390625 32.421875 48.390625 
Q 24.90625 48.390625 20.390625 44.140625 
Q 15.875 39.890625 15.1875 32.171875 
z
" id="DejaVuSans-101"/>
      <path d="M 44.28125 53.078125 
L 44.28125 44.578125 
Q 40.484375 46.53125 36.375 47.5 
Q 32.28125 48.484375 27.875 48.484375 
Q 21.1875 48.484375 17.84375 46.4375 
Q 14.5 44.390625 14.5 40.28125 
Q 14.5 37.15625 16.890625 35.375 
Q 19.28125 33.59375 26.515625 31.984375 
L 29.59375 31.296875 
Q 39.15625 29.25 43.1875 25.515625 
Q 47.21875 21.78125 47.21875 15.09375 
Q 47.21875 7.46875 41.1875 3.015625 
Q 35.15625 -1.421875 24.609375 -1.421875 
Q 20.21875 -1.421875 15.453125 -0.5625 
Q 10.6875 0.296875 5.421875 2 
L 5.421875 11.28125 
Q 10.40625 8.6875 15.234375 7.390625 
Q 20.0625 6.109375 24.8125 6.109375 
Q 31.15625 6.109375 34.5625 8.28125 
Q 37.984375 10.453125 37.984375 14.40625 
Q 37.984375 18.0625 35.515625 20.015625 
Q 33.0625 21.96875 24.703125 23.78125 
L 21.578125 24.515625 
Q 13.234375 26.265625 9.515625 29.90625 
Q 5.8125 33.546875 5.8125 39.890625 
Q 5.8125 47.609375 11.28125 51.796875 
Q 16.75 56 26.8125 56 
Q 31.78125 56 36.171875 55.265625 
Q 40.578125 54.546875 44.28125 53.078125 
z
" id="DejaVuSans-115"/>
      <path d="M 18.3125 70.21875 
L 18.3125 54.6875 
L 36.8125 54.6875 
L 36.8125 47.703125 
L 18.3125 47.703125 
L 18.3125 18.015625 
Q 18.3125 11.328125 20.140625 9.421875 
Q 21.96875 7.515625 27.59375 7.515625 
L 36.8125 7.515625 
L 36.8125 0 
L 27.59375 0 
Q 17.1875 0 13.234375 3.875 
Q 9.28125 7.765625 9.28125 18.015625 
L 9.28125 47.703125 
L 2.6875 47.703125 
L 2.6875 54.6875 
L 9.28125 54.6875 
L 9.28125 70.21875 
z
" id="DejaVuSans-116"/>
      <path d="M 34.28125 27.484375 
Q 23.390625 27.484375 19.1875 25 
Q 14.984375 22.515625 14.984375 16.5 
Q 14.984375 11.71875 18.140625 8.90625 
Q 21.296875 6.109375 26.703125 6.109375 
Q 34.1875 6.109375 38.703125 11.40625 
Q 43.21875 16.703125 43.21875 25.484375 
L 43.21875 27.484375 
z
M 52.203125 31.203125 
L 52.203125 0 
L 43.21875 0 
L 43.21875 8.296875 
Q 40.140625 3.328125 35.546875 0.953125 
Q 30.953125 -1.421875 24.3125 -1.421875 
Q 15.921875 -1.421875 10.953125 3.296875 
Q 6 8.015625 6 15.921875 
Q 6 25.140625 12.171875 29.828125 
Q 18.359375 34.515625 30.609375 34.515625 
L 43.21875 34.515625 
L 43.21875 35.40625 
Q 43.21875 41.609375 39.140625 45 
Q 35.0625 48.390625 27.6875 48.390625 
Q 23 48.390625 18.546875 47.265625 
Q 14.109375 46.140625 10.015625 43.890625 
L 10.015625 52.203125 
Q 14.9375 54.109375 19.578125 55.046875 
Q 24.21875 56 28.609375 56 
Q 40.484375 56 46.34375 49.84375 
Q 52.203125 43.703125 52.203125 31.203125 
z
" id="DejaVuSans-97"/>
      <path d="M 18.109375 8.203125 
L 18.109375 -20.796875 
L 9.078125 -20.796875 
L 9.078125 54.6875 
L 18.109375 54.6875 
L 18.109375 46.390625 
Q 20.953125 51.265625 25.265625 53.625 
Q 29.59375 56 35.59375 56 
Q 45.5625 56 51.78125 48.09375 
Q 58.015625 40.1875 58.015625 27.296875 
Q 58.015625 14.40625 51.78125 6.484375 
Q 45.5625 -1.421875 35.59375 -1.421875 
Q 29.59375 -1.421875 25.265625 0.953125 
Q 20.953125 3.328125 18.109375 8.203125 
z
M 48.6875 27.296875 
Q 48.6875 37.203125 44.609375 42.84375 
Q 40.53125 48.484375 33.40625 48.484375 
Q 26.265625 48.484375 22.1875 42.84375 
Q 18.109375 37.203125 18.109375 27.296875 
Q 18.109375 17.390625 22.1875 11.75 
Q 26.265625 6.109375 33.40625 6.109375 
Q 40.53125 6.109375 44.609375 11.75 
Q 48.6875 17.390625 48.6875 27.296875 
z
" id="DejaVuSans-112"/>
     </defs>
     <g transform="translate(414.739062 412.756563)scale(0.1 -0.1)">
      <use xlink:href="#DejaVuSans-84"/>
      <use x="61.037109" xlink:href="#DejaVuSans-105"/>
      <use x="88.820312" xlink:href="#DejaVuSans-109"/>
      <use x="186.232422" xlink:href="#DejaVuSans-101"/>
      <use x="247.755859" xlink:href="#DejaVuSans-115"/>
      <use x="299.855469" xlink:href="#DejaVuSans-116"/>
      <use x="339.064453" xlink:href="#DejaVuSans-97"/>
      <use x="400.34375" xlink:href="#DejaVuSans-109"/>
      <use x="497.755859" xlink:href="#DejaVuSans-112"/>
     </g>
    </g>
   </g>
   <g id="matplotlib.axis_2">
    <g id="ytick_1">
     <g id="line2d_9">
      <defs>
       <path d="M 0 0 
L -3.5 0 
" id="md0425e39d7" style="stroke:#000000;stroke-width:0.8;"/>
      </defs>
      <g>
       <use style="stroke:#000000;stroke-width:0.8;" x="108" xlink:href="#md0425e39d7" y="354.301806"/>
      </g>
     </g>
     <g id="text_10">
      <!-- −1000 -->
      <defs>
       <path d="M 10.59375 35.5 
L 73.1875 35.5 
L 73.1875 27.203125 
L 10.59375 27.203125 
z
" id="DejaVuSans-8722"/>
      </defs>
      <g transform="translate(67.170312 358.101025)scale(0.1 -0.1)">
       <use xlink:href="#DejaVuSans-8722"/>
       <use x="83.789062" xlink:href="#DejaVuSans-49"/>
       <use x="147.412109" xlink:href="#DejaVuSans-48"/>
       <use x="211.035156" xlink:href="#DejaVuSans-48"/>
       <use x="274.658203" xlink:href="#DejaVuSans-48"/>
      </g>
     </g>
    </g>
    <g id="ytick_2">
     <g id="line2d_10">
      <g>
       <use style="stroke:#000000;stroke-width:0.8;" x="108" xlink:href="#md0425e39d7" y="295.638422"/>
      </g>
     </g>
     <g id="text_11">
      <!-- 0 -->
      <g transform="translate(94.6375 299.437641)scale(0.1 -0.1)">
       <use xlink:href="#DejaVuSans-48"/>
      </g>
     </g>
    </g>
    <g id="ytick_3">
     <g id="line2d_11">
      <g>
       <use style="stroke:#000000;stroke-width:0.8;" x="108" xlink:href="#md0425e39d7" y="236.975038"/>
      </g>
     </g>
     <g id="text_12">
      <!-- 1000 -->
      <g transform="translate(75.55 240.774257)scale(0.1 -0.1)">
       <use xlink:href="#DejaVuSans-49"/>
       <use x="63.623047" xlink:href="#DejaVuSans-48"/>
       <use x="127.246094" xlink:href="#DejaVuSans-48"/>
       <use x="190.869141" xlink:href="#DejaVuSans-48"/>
      </g>
     </g>
    </g>
    <g id="ytick_4">
     <g id="line2d_12">
      <g>
       <use style="stroke:#000000;stroke-width:0.8;" x="108" xlink:href="#md0425e39d7" y="178.311654"/>
      </g>
     </g>
     <g id="text_13">
      <!-- 2000 -->
      <g transform="translate(75.55 182.110872)scale(0.1 -0.1)">
       <use xlink:href="#DejaVuSans-50"/>
       <use x="63.623047" xlink:href="#DejaVuSans-48"/>
       <use x="127.246094" xlink:href="#DejaVuSans-48"/>
       <use x="190.869141" xlink:href="#DejaVuSans-48"/>
      </g>
     </g>
    </g>
    <g id="ytick_5">
     <g id="line2d_13">
      <g>
       <use style="stroke:#000000;stroke-width:0.8;" x="108" xlink:href="#md0425e39d7" y="119.648269"/>
      </g>
     </g>
     <g id="text_14">
      <!-- 3000 -->
      <defs>
       <path d="M 40.578125 39.3125 
Q 47.65625 37.796875 51.625 33 
Q 55.609375 28.21875 55.609375 21.1875 
Q 55.609375 10.40625 48.1875 4.484375 
Q 40.765625 -1.421875 27.09375 -1.421875 
Q 22.515625 -1.421875 17.65625 -0.515625 
Q 12.796875 0.390625 7.625 2.203125 
L 7.625 11.71875 
Q 11.71875 9.328125 16.59375 8.109375 
Q 21.484375 6.890625 26.8125 6.890625 
Q 36.078125 6.890625 40.9375 10.546875 
Q 45.796875 14.203125 45.796875 21.1875 
Q 45.796875 27.640625 41.28125 31.265625 
Q 36.765625 34.90625 28.71875 34.90625 
L 20.21875 34.90625 
L 20.21875 43.015625 
L 29.109375 43.015625 
Q 36.375 43.015625 40.234375 45.921875 
Q 44.09375 48.828125 44.09375 54.296875 
Q 44.09375 59.90625 40.109375 62.90625 
Q 36.140625 65.921875 28.71875 65.921875 
Q 24.65625 65.921875 20.015625 65.03125 
Q 15.375 64.15625 9.8125 62.3125 
L 9.8125 71.09375 
Q 15.4375 72.65625 20.34375 73.4375 
Q 25.25 74.21875 29.59375 74.21875 
Q 40.828125 74.21875 47.359375 69.109375 
Q 53.90625 64.015625 53.90625 55.328125 
Q 53.90625 49.265625 50.4375 45.09375 
Q 46.96875 40.921875 40.578125 39.3125 
z
" id="DejaVuSans-51"/>
      </defs>
      <g transform="translate(75.55 123.447488)scale(0.1 -0.1)">
       <use xlink:href="#DejaVuSans-51"/>
       <use x="63.623047" xlink:href="#DejaVuSans-48"/>
       <use x="127.246094" xlink:href="#DejaVuSans-48"/>
       <use x="190.869141" xlink:href="#DejaVuSans-48"/>
      </g>
     </g>
    </g>
    <g id="ytick_6">
     <g id="line2d_14">
      <g>
       <use style="stroke:#000000;stroke-width:0.8;" x="108" xlink:href="#md0425e39d7" y="60.984885"/>
      </g>
     </g>
     <g id="text_15">
      <!-- 4000 -->
      <defs>
       <path d="M 37.796875 64.3125 
L 12.890625 25.390625 
L 37.796875 25.390625 
z
M 35.203125 72.90625 
L 47.609375 72.90625 
L 47.609375 25.390625 
L 58.015625 25.390625 
L 58.015625 17.1875 
L 47.609375 17.1875 
L 47.609375 0 
L 37.796875 0 
L 37.796875 17.1875 
L 4.890625 17.1875 
L 4.890625 26.703125 
z
" id="DejaVuSans-52"/>
      </defs>
      <g transform="translate(75.55 64.784104)scale(0.1 -0.1)">
       <use xlink:href="#DejaVuSans-52"/>
       <use x="63.623047" xlink:href="#DejaVuSans-48"/>
       <use x="127.246094" xlink:href="#DejaVuSans-48"/>
       <use x="190.869141" xlink:href="#DejaVuSans-48"/>
      </g>
     </g>
    </g>
    <g id="text_16">
     <!-- Value -->
     <defs>
      <path d="M 28.609375 0 
L 0.78125 72.90625 
L 11.078125 72.90625 
L 34.1875 11.53125 
L 57.328125 72.90625 
L 67.578125 72.90625 
L 39.796875 0 
z
" id="DejaVuSans-86"/>
      <path d="M 9.421875 75.984375 
L 18.40625 75.984375 
L 18.40625 0 
L 9.421875 0 
z
" id="DejaVuSans-108"/>
      <path d="M 8.5 21.578125 
L 8.5 54.6875 
L 17.484375 54.6875 
L 17.484375 21.921875 
Q 17.484375 14.15625 20.5 10.265625 
Q 23.53125 6.390625 29.59375 6.390625 
Q 36.859375 6.390625 41.078125 11.03125 
Q 45.3125 15.671875 45.3125 23.6875 
L 45.3125 54.6875 
L 54.296875 54.6875 
L 54.296875 0 
L 45.3125 0 
L 45.3125 8.40625 
Q 42.046875 3.421875 37.71875 1 
Q 33.40625 -1.421875 27.6875 -1.421875 
Q 18.265625 -1.421875 13.375 4.4375 
Q 8.5 10.296875 8.5 21.578125 
z
M 31.109375 56 
z
" id="DejaVuSans-117"/>
     </defs>
     <g transform="translate(61.090625 232.273281)rotate(-90)scale(0.1 -0.1)">
      <use xlink:href="#DejaVuSans-86"/>
      <use x="68.298828" xlink:href="#DejaVuSans-97"/>
      <use x="129.578125" xlink:href="#DejaVuSans-108"/>
      <use x="157.361328" xlink:href="#DejaVuSans-117"/>
      <use x="220.740234" xlink:href="#DejaVuSans-101"/>
     </g>
    </g>
   </g>
   <g id="line2d_15">
    <path clip-path="url(#p73805a0068)" d="M 138.436364 290.253168 
L 138.798917 279.464701 
L 139.161471 259.399522 
L 139.524024 253.445339 
L 139.886578 253.214069 
L 140.249131 259.132914 
L 140.611684 278.26734 
L 140.974238 286.169545 
L 141.336791 299.383711 
L 141.699345 307.093174 
L 142.061898 306.992855 
L 143.512112 260.94982 
L 143.874666 275.182175 
L 144.237219 278.327889 
L 144.599773 290.916847 
L 144.962326 298.108799 
L 145.32488 318.197079 
L 145.687433 317.161335 
L 146.049986 327.59623 
L 146.41254 309.271284 
L 146.775093 302.452356 
L 147.5002 259.888914 
L 147.862754 254.981064 
L 148.225307 238.375631 
L 148.950414 246.022272 
L 150.038075 291.755777 
L 150.400628 295.50533 
L 150.763182 284.490723 
L 151.125735 288.401489 
L 151.488288 286.00222 
L 151.850842 267.278849 
L 152.213395 266.795398 
L 152.575949 255.100714 
L 152.938502 261.867087 
L 154.026163 306.593822 
L 154.75127 313.908456 
L 155.113823 313.842199 
L 155.476377 301.348799 
L 156.201484 246.736414 
L 156.564037 242.430313 
L 156.926591 234.586535 
L 157.289144 237.526491 
L 157.651697 242.724502 
L 158.376804 278.833903 
L 158.739358 282.106018 
L 159.101911 287.430313 
L 159.464465 295.054622 
L 159.827018 281.431969 
L 160.189572 279.822197 
L 160.552125 266.056297 
L 160.914679 260.224849 
L 161.277232 263.46659 
L 161.639786 264.847317 
L 163.089999 320.69649 
L 163.452553 312.952166 
L 163.815106 308.885164 
L 164.17766 292.746276 
L 164.540213 282.677309 
L 164.902767 262.46146 
L 165.627874 240.773771 
L 165.990427 250.522999 
L 166.352981 254.804686 
L 166.715534 261.812982 
L 167.078088 286.982671 
L 167.440641 289.495182 
L 167.803195 304.457718 
L 168.165748 369.36 
L 168.528301 291.470101 
L 168.890855 289.271389 
L 169.253408 277.973527 
L 169.615962 273.742071 
L 169.978515 277.155513 
L 170.341069 275.81861 
L 170.703622 298.010622 
L 171.066176 303.031174 
L 171.428729 319.207711 
L 171.791283 327.514929 
L 172.153836 330.670962 
L 172.51639 331.656215 
L 172.878943 308.39254 
L 173.241497 301.523383 
L 173.60405 272.569087 
L 173.966603 257.453473 
L 174.329157 248.790798 
L 174.69171 251.920919 
L 175.779371 292.364536 
L 176.141924 304.429567 
L 176.504478 308.231806 
L 176.867031 308.019746 
L 177.229585 309.301252 
L 178.317245 275.688476 
L 178.679799 279.068126 
L 179.404906 296.142461 
L 179.767459 313.183419 
L 180.130012 322.82975 
L 180.492566 327.238123 
L 180.855119 336.944753 
L 181.217673 326.83516 
L 181.580226 320.494131 
L 182.305333 275.936833 
L 183.03044 251.968378 
L 183.392994 256.437708 
L 184.843208 305.047918 
L 185.205761 311.463604 
L 185.568314 311.304442 
L 185.930868 308.250286 
L 186.655975 284.514047 
L 187.381082 280.68725 
L 187.743635 284.010735 
L 188.106189 295.008415 
L 188.468742 310.313818 
L 189.556403 333.733619 
L 190.644063 288.976443 
L 191.36917 248.44727 
L 191.731723 247.182426 
L 192.094277 246.733956 
L 192.45683 260.861363 
L 192.819384 266.005779 
L 193.181937 289.351031 
L 193.544491 294.981094 
L 193.907044 296.593814 
L 194.269598 297.612453 
L 194.632151 297.358496 
L 195.719812 263.922143 
L 196.807472 282.848442 
L 197.170025 302.318441 
L 197.532579 311.411097 
L 197.895132 317.558435 
L 198.257686 315.121841 
L 198.620239 314.388953 
L 199.7079 250.475174 
L 200.070453 242.933312 
L 200.433007 232.247078 
L 200.79556 236.638854 
L 201.158114 238.743325 
L 201.520667 256.25901 
L 201.883221 266.219732 
L 202.245774 279.664283 
L 202.608327 280.569059 
L 202.970881 290.249203 
L 203.333434 277.068978 
L 204.421095 248.399115 
L 204.783648 251.529337 
L 205.146202 256.640495 
L 205.871309 286.010589 
L 206.233862 291.751941 
L 206.596416 308.982963 
L 206.958969 306.576518 
L 208.046629 265.822543 
L 208.409183 241.474011 
L 209.13429 220.730907 
L 209.496843 217.272934 
L 210.584504 254.466695 
L 210.947057 265.025086 
L 211.309611 271.083947 
L 211.672164 271.627978 
L 212.034718 265.845051 
L 212.759825 240.673658 
L 213.484932 242.23064 
L 213.847485 243.775137 
L 214.210038 255.422897 
L 215.297699 296.693135 
L 215.660252 290.343306 
L 216.022806 291.491737 
L 216.747913 256.977984 
L 217.110466 234.272479 
L 217.47302 219.309917 
L 217.835573 213.292602 
L 218.198127 214.113896 
L 218.56068 217.486972 
L 218.923234 239.867957 
L 219.285787 244.184493 
L 220.010894 269.612025 
L 220.373447 270.02342 
L 221.098554 257.732174 
L 221.823661 243.829886 
L 222.186215 241.095242 
L 222.548768 248.124648 
L 222.911322 258.698879 
L 223.636429 288.532294 
L 223.998982 301.680434 
L 225.086642 278.281476 
L 225.811749 241.080989 
L 226.536856 221.474353 
L 227.261963 226.566936 
L 227.624517 250.211571 
L 228.349624 279.188643 
L 228.712177 285.937377 
L 229.074731 273.557775 
L 229.437284 278.539478 
L 229.799838 262.301792 
L 230.162391 256.036258 
L 230.524945 179.42748 
L 230.887498 259.399931 
L 231.250051 255.361274 
L 231.612605 274.431811 
L 231.975158 275.577276 
L 232.337712 296.608301 
L 232.700265 301.57145 
L 233.062819 311.975991 
L 233.425372 302.844743 
L 233.787926 289.889564 
L 234.513033 251.182575 
L 234.875586 244.425049 
L 235.23814 233.564489 
L 235.600693 228.955853 
L 236.688353 268.890736 
L 237.050907 288.322706 
L 237.41346 289.19847 
L 237.776014 288.595746 
L 238.138567 284.983761 
L 238.863674 268.226222 
L 239.226228 261.228171 
L 239.588781 265.273253 
L 240.313888 279.00638 
L 241.401549 318.08658 
L 241.764102 316.486813 
L 242.489209 296.553397 
L 243.214316 255.641683 
L 243.576869 247.717646 
L 243.939423 233.770426 
L 244.301976 233.678638 
L 244.66453 252.027454 
L 246.114744 290.553518 
L 246.477297 296.675778 
L 246.839851 289.289419 
L 247.202404 277.641691 
L 247.564957 271.916729 
L 247.927511 260.616498 
L 248.290064 255.13334 
L 248.652618 268.36046 
L 249.377725 285.824073 
L 249.740278 307.932287 
L 250.102832 309.807599 
L 250.465385 316.873371 
L 251.190492 295.875944 
L 251.915599 245.465662 
L 252.278153 235.439606 
L 252.640706 229.422377 
L 253.00326 228.379703 
L 253.365813 236.895255 
L 254.09092 268.650548 
L 254.453473 277.271657 
L 254.816027 280.230221 
L 255.17858 281.655859 
L 255.541134 274.722682 
L 255.903687 258.353613 
L 256.266241 257.692334 
L 256.628794 247.621326 
L 257.353901 257.525981 
L 258.079008 276.596611 
L 258.441562 286.975112 
L 258.804115 302.977843 
L 259.166668 299.638658 
L 259.529222 283.662727 
L 259.891775 275.647522 
L 260.254329 253.797848 
L 260.616882 245.956177 
L 260.979436 217.694138 
L 261.341989 208.662017 
L 261.704543 211.245856 
L 263.154757 262.002038 
L 263.51731 269.35671 
L 263.879864 261.392743 
L 264.242417 263.567276 
L 264.967524 238.443037 
L 265.692631 226.686306 
L 266.417738 246.086071 
L 266.780291 265.625076 
L 267.142845 275.889089 
L 267.505398 280.91384 
L 267.867952 289.818456 
L 268.230505 273.105991 
L 268.593059 263.337365 
L 269.680719 209.151915 
L 270.043273 198.993659 
L 270.405826 207.406942 
L 270.768379 207.326641 
L 271.493486 225.958561 
L 271.85604 246.796883 
L 272.218593 253.708817 
L 272.9437 247.869908 
L 273.306254 242.195682 
L 273.668807 234.222366 
L 274.031361 223.464056 
L 274.393914 229.183049 
L 274.756468 226.914743 
L 275.119021 239.615704 
L 275.481575 246.077267 
L 275.844128 265.827241 
L 276.206681 274.205126 
L 276.569235 276.495856 
L 276.931788 264.369554 
L 277.656895 233.647168 
L 278.019449 220.822791 
L 278.382002 203.410541 
L 278.744556 199.918412 
L 279.107109 192.250389 
L 279.469663 201.544094 
L 279.832216 220.497668 
L 280.19477 229.440039 
L 280.557323 243.506821 
L 280.919877 262.060004 
L 281.28243 254.897368 
L 281.644983 242.431011 
L 282.007537 238.882306 
L 282.37009 225.038686 
L 282.732644 220.472591 
L 283.095197 218.931484 
L 283.457751 224.550319 
L 284.182858 259.840741 
L 284.545411 265.03128 
L 284.907965 275.986997 
L 285.270518 279.365012 
L 285.633072 273.398395 
L 285.995625 264.882693 
L 286.358179 239.255785 
L 286.720732 223.261913 
L 287.083286 216.274994 
L 287.445839 205.58916 
L 287.808392 205.385235 
L 288.170946 214.828458 
L 288.533499 230.899191 
L 289.983713 265.12719 
L 290.346267 253.380172 
L 291.071374 244.036171 
L 291.433927 231.736713 
L 291.796481 231.068638 
L 292.159034 240.290121 
L 293.609248 289.932333 
L 293.971801 293.125355 
L 294.334355 283.346374 
L 296.147122 205.967177 
L 296.509676 211.958478 
L 297.234783 235.536348 
L 297.95989 266.576432 
L 298.322443 263.987654 
L 298.684996 271.020583 
L 299.04755 262.60576 
L 299.410103 251.077903 
L 299.772657 249.287204 
L 300.497764 235.160218 
L 301.585424 275.903906 
L 301.947978 296.108431 
L 302.310531 296.65128 
L 302.673085 299.976844 
L 303.035638 295.060774 
L 303.760745 255.920841 
L 304.123299 244.576462 
L 304.848405 210.979134 
L 305.210959 208.668766 
L 305.573512 228.088637 
L 305.936066 237.333902 
L 306.661173 267.709082 
L 307.023726 267.355481 
L 307.38628 268.332466 
L 308.111387 256.114933 
L 308.836494 238.534892 
L 309.199047 248.045959 
L 309.561601 247.201505 
L 310.286707 274.357727 
L 311.011814 295.237737 
L 311.374368 294.032138 
L 312.462028 256.033963 
L 312.824582 229.650586 
L 313.187135 224.193511 
L 313.549689 209.528899 
L 313.912242 212.933613 
L 314.274796 214.732265 
L 314.637349 234.950657 
L 315.362456 262.277424 
L 316.087563 258.446817 
L 316.450116 254.319712 
L 316.81267 246.576958 
L 317.175223 229.913155 
L 317.537777 222.219141 
L 317.90033 224.125525 
L 318.262884 231.095215 
L 319.350544 268.673884 
L 320.075651 282.410779 
L 320.438205 273.168095 
L 320.800758 320.485793 
L 321.163311 235.560287 
L 321.525865 208.562423 
L 321.888418 205.824434 
L 322.613525 190.237464 
L 322.976079 195.221043 
L 323.338632 216.011758 
L 324.063739 242.408681 
L 324.426293 248.251745 
L 324.788846 244.779643 
L 325.1514 237.136176 
L 325.513953 226.030256 
L 325.876507 225.675599 
L 326.23906 214.255591 
L 326.601614 214.994967 
L 326.964167 213.060067 
L 327.32672 225.946877 
L 327.689274 233.487267 
L 328.051827 255.421809 
L 328.414381 255.450513 
L 328.776934 259.837523 
L 329.139488 251.850098 
L 329.864595 225.000579 
L 330.227148 196.142542 
L 330.589702 185.177998 
L 330.952255 182.852003 
L 331.677362 190.227514 
L 332.039916 198.358561 
L 332.765022 228.682032 
L 333.127576 235.147598 
L 333.490129 226.515563 
L 333.852683 229.106191 
L 334.940343 199.606417 
L 335.302897 208.83345 
L 335.66545 210.223327 
L 336.028004 219.147695 
L 336.390557 223.81024 
L 337.115664 253.845195 
L 337.478218 245.161761 
L 337.840771 247.176472 
L 338.203324 237.542894 
L 338.565878 210.547755 
L 339.653538 174.82782 
L 340.016092 174.995025 
L 340.741199 198.208193 
L 341.103752 216.40629 
L 341.466306 227.27438 
L 341.828859 225.363192 
L 342.191413 232.801072 
L 342.553966 233.744655 
L 342.91652 217.074316 
L 343.279073 210.668167 
L 343.641627 199.56898 
L 344.00418 197.216616 
L 345.454394 248.425651 
L 345.816947 253.268912 
L 346.179501 264.794187 
L 346.542054 254.023826 
L 346.904608 236.295733 
L 347.267161 228.025193 
L 347.629715 195.24972 
L 348.354822 181.263538 
L 348.717375 180.724795 
L 349.079929 191.767847 
L 349.805035 223.649482 
L 350.167589 228.488166 
L 350.530142 240.883455 
L 350.892696 247.182659 
L 351.617803 222.242592 
L 351.980356 218.723578 
L 352.34291 210.886944 
L 352.705463 215.895322 
L 353.068017 217.048009 
L 353.43057 230.082721 
L 353.793124 247.667941 
L 354.155677 254.779279 
L 354.518231 272.25258 
L 354.880784 272.071802 
L 355.243337 267.986449 
L 355.605891 254.132755 
L 355.968444 227.381544 
L 357.056105 194.902014 
L 357.418658 190.170126 
L 358.868872 245.225576 
L 359.231426 249.667158 
L 359.593979 252.254678 
L 360.68164 226.391788 
L 361.044193 299.227114 
L 361.406746 223.37121 
L 361.7693 226.550651 
L 363.219514 278.134192 
L 363.582067 276.898235 
L 364.307174 264.671186 
L 364.669728 234.243283 
L 365.032281 217.176383 
L 365.757388 196.957727 
L 366.482495 207.473227 
L 367.207602 233.919913 
L 367.570155 237.36068 
L 367.932709 253.199599 
L 368.295262 252.376736 
L 369.745476 219.65289 
L 370.10803 221.263974 
L 370.470583 218.363396 
L 370.833137 233.111852 
L 371.558244 273.141138 
L 371.920797 272.271574 
L 372.28335 278.995953 
L 372.645904 261.552119 
L 373.008457 256.641173 
L 373.733564 213.052336 
L 374.458671 186.66092 
L 375.183778 206.555962 
L 375.546332 211.266755 
L 376.271439 235.81156 
L 376.633992 241.592502 
L 377.721652 227.55812 
L 378.084206 217.423926 
L 378.446759 211.268382 
L 378.809313 208.235623 
L 379.171866 213.187899 
L 380.259527 251.064721 
L 380.984634 256.715344 
L 382.072294 220.413684 
L 382.434848 192.527977 
L 382.797401 178.674003 
L 383.159955 176.564879 
L 383.522508 167.398706 
L 383.885061 184.815116 
L 384.247615 195.366557 
L 384.610168 212.63457 
L 384.972722 214.708079 
L 385.335275 228.626454 
L 385.697829 226.101072 
L 386.060382 214.911982 
L 386.422936 209.049875 
L 387.148043 193.783218 
L 387.510596 191.199416 
L 387.87315 194.487872 
L 388.598257 221.974908 
L 388.96081 227.016312 
L 389.323363 240.007375 
L 389.685917 241.917845 
L 390.04847 239.704548 
L 390.773577 194.093512 
L 391.136131 177.454303 
L 391.861238 155.730102 
L 392.223791 154.883119 
L 392.586345 170.611589 
L 392.948898 180.055999 
L 393.674005 209.697552 
L 394.036559 217.520906 
L 394.399112 222.640908 
L 394.761665 200.994531 
L 395.124219 203.874742 
L 395.486772 187.396953 
L 395.849326 185.504455 
L 396.211879 178.607631 
L 396.574433 186.859811 
L 396.936986 198.179699 
L 397.29954 220.687201 
L 397.662093 217.511939 
L 398.024647 226.197603 
L 398.3872 240.884825 
L 399.112307 205.377912 
L 399.474861 203.473181 
L 399.837414 172.828984 
L 400.562521 153.371372 
L 400.925074 152.026512 
L 401.287628 164.783328 
L 401.650181 172.940853 
L 402.012735 188.966384 
L 402.375288 277.263743 
L 402.737842 217.280907 
L 403.462949 206.193131 
L 403.825502 195.654271 
L 404.188056 191.346705 
L 404.550609 180.641363 
L 404.913163 177.827156 
L 405.275716 194.387458 
L 405.63827 203.480725 
L 406.363376 233.47993 
L 406.72593 237.435638 
L 407.088483 239.98008 
L 407.451037 230.656777 
L 407.81359 215.12739 
L 408.176144 204.892545 
L 408.538697 182.817836 
L 408.901251 171.646037 
L 409.626358 160.437233 
L 409.988911 179.680516 
L 410.351465 189.491701 
L 411.076572 218.167546 
L 411.439125 222.786122 
L 411.801678 221.978417 
L 412.164232 214.620878 
L 412.526785 130.805042 
L 412.889339 191.176961 
L 413.251892 197.706825 
L 413.614446 197.845392 
L 413.976999 197.572391 
L 415.427213 248.716412 
L 415.789767 257.17363 
L 416.15232 246.807784 
L 417.239981 196.544944 
L 417.602534 173.496463 
L 417.965087 175.00024 
L 418.327641 174.420972 
L 418.690194 180.363862 
L 419.052748 201.176483 
L 419.415301 210.912276 
L 419.777855 225.183073 
L 420.140408 233.327592 
L 420.502962 234.020146 
L 420.865515 225.892323 
L 421.228069 139.611232 
L 421.590622 203.399093 
L 422.315729 211.529309 
L 422.678283 207.130382 
L 423.403389 228.306369 
L 423.765943 250.798296 
L 424.128496 259.753765 
L 424.49105 261.407478 
L 425.216157 239.760365 
L 425.57871 209.878448 
L 425.941264 210.868459 
L 426.303817 185.306712 
L 426.666371 179.710795 
L 427.028924 177.10628 
L 427.391478 185.170981 
L 428.479138 225.571551 
L 428.841691 232.010944 
L 429.204245 240.843156 
L 429.566798 222.550737 
L 429.929352 218.590812 
L 430.654459 195.456196 
L 431.017012 202.179369 
L 431.379566 204.373686 
L 431.742119 224.832177 
L 432.104673 229.685315 
L 432.82978 255.2849 
L 433.192333 254.728626 
L 435.0051 180.361469 
L 435.367654 159.966946 
L 436.455314 191.889563 
L 436.817868 202.270671 
L 437.180421 217.909811 
L 437.542975 219.684378 
L 437.905528 224.36331 
L 438.630635 205.040719 
L 438.993189 199.630463 
L 439.355742 188.483714 
L 439.718296 185.120438 
L 440.080849 187.674372 
L 440.805956 217.171763 
L 441.168509 222.561208 
L 441.531063 241.363519 
L 441.893616 243.782656 
L 442.618723 217.06645 
L 442.981277 194.659082 
L 443.34383 179.645259 
L 443.706384 149.711041 
L 444.068937 144.094772 
L 444.431491 149.112518 
L 445.156598 167.093005 
L 445.881704 205.147536 
L 446.244258 197.339868 
L 446.606811 213.175296 
L 447.694472 174.046909 
L 448.057025 165.926783 
L 448.419579 166.772046 
L 448.782132 178.631679 
L 449.144686 185.475088 
L 449.507239 198.009086 
L 449.869793 132.366781 
L 450.232346 234.393803 
L 450.5949 230.006293 
L 450.957453 214.614351 
L 451.320006 208.21677 
L 451.68256 173.41741 
L 452.045113 156.858644 
L 452.407667 149.217019 
L 452.77022 134.491511 
L 453.132774 141.695491 
L 453.495327 152.551422 
L 453.857881 156.497126 
L 454.220434 180.428499 
L 454.582988 183.322038 
L 454.945541 193.586867 
L 455.308095 195.017187 
L 455.670648 176.941786 
L 456.033202 179.031474 
L 456.758309 157.277971 
L 457.120862 158.372319 
L 457.483415 157.072807 
L 458.208522 200.601823 
L 458.933629 216.28972 
L 459.296183 215.910935 
L 459.658736 216.010625 
L 460.02129 190.798002 
L 460.746397 159.234305 
L 461.10895 138.107093 
L 461.471504 132.186602 
L 461.834057 131.136532 
L 462.196611 133.706837 
L 462.921717 185.455405 
L 463.284271 191.724274 
L 463.646824 194.655319 
L 464.009378 195.251384 
L 464.371931 194.080649 
L 464.734485 178.23495 
L 465.459592 166.719961 
L 465.822145 156.48189 
L 466.184699 172.346427 
L 466.547252 178.735749 
L 466.909806 203.088895 
L 467.634913 227.918192 
L 467.997466 230.088696 
L 468.360019 223.081318 
L 468.722573 207.127653 
L 469.810233 148.941743 
L 470.172787 142.80588 
L 470.53534 143.202519 
L 470.897894 155.559741 
L 471.985554 203.560745 
L 472.348108 208.519067 
L 472.710661 206.620513 
L 473.073215 200.380455 
L 473.798322 182.822043 
L 474.160875 177.274126 
L 474.523428 178.792224 
L 474.885982 187.847946 
L 475.973642 236.634202 
L 476.336196 239.718898 
L 476.698749 247.998109 
L 477.061303 240.119819 
L 477.423856 224.841496 
L 477.78641 190.763107 
L 478.148963 185.716186 
L 478.511517 158.451323 
L 478.87407 150.338078 
L 479.599177 156.282891 
L 479.96173 183.438886 
L 480.686837 217.950806 
L 481.049391 219.315023 
L 481.411944 216.950788 
L 481.774498 221.286383 
L 482.137051 207.220293 
L 482.862158 188.108479 
L 483.224712 186.847501 
L 483.587265 194.989524 
L 483.949819 216.59998 
L 485.037479 257.631334 
L 485.762586 243.647495 
L 486.125139 233.899183 
L 486.487693 203.720359 
L 486.850246 190.944343 
L 487.575353 159.19647 
L 487.937907 169.737413 
L 488.30046 255.23622 
L 488.663014 187.820031 
L 489.025567 208.191048 
L 489.388121 221.22853 
L 489.750674 221.063209 
L 490.113228 225.699596 
L 490.475781 219.804543 
L 491.200888 195.578091 
L 491.563441 178.512626 
L 491.925995 196.292433 
L 492.288548 193.393935 
L 493.376209 238.601496 
L 494.101316 253.728831 
L 494.463869 241.668702 
L 495.188976 208.315319 
L 495.914083 156.441031 
L 496.276637 158.75963 
L 496.63919 153.266692 
L 497.001743 169.913946 
L 497.364297 180.0182 
L 497.72685 182.817282 
L 498.089404 211.043194 
L 498.451957 216.33342 
L 498.814511 218.684009 
L 499.902171 184.654648 
L 500.264725 183.795353 
L 500.627278 177.539213 
L 500.989832 190.468094 
L 501.352385 196.185848 
L 501.714939 215.103012 
L 502.077492 220.800033 
L 502.440045 234.324983 
L 502.802599 235.373661 
L 503.165152 228.786788 
L 503.527706 212.738449 
L 504.252813 161.961236 
L 504.97792 137.307085 
L 505.340473 139.871826 
L 505.703027 145.344991 
L 506.428134 182.781855 
L 506.790687 193.705755 
L 507.153241 196.613263 
L 507.515794 195.435536 
L 507.878348 190.587777 
L 508.240901 182.680011 
L 508.603454 162.586425 
L 508.966008 163.478167 
L 509.328561 156.889816 
L 509.691115 160.754008 
L 510.053668 173.386958 
L 510.416222 198.513439 
L 510.778775 215.31227 
L 511.141329 214.166403 
L 511.503882 220.614983 
L 511.866436 204.879511 
L 512.228989 195.2268 
L 512.591543 170.563487 
L 513.31665 136.696389 
L 513.679203 116.390147 
L 514.041756 127.482469 
L 514.40431 133.064534 
L 514.766863 152.857495 
L 515.49197 182.994004 
L 515.854524 183.977777 
L 516.217077 181.149431 
L 516.579631 170.136553 
L 516.942184 86.28814 
L 517.304738 161.060323 
L 517.667291 141.149886 
L 518.029845 151.057616 
L 518.392398 157.042901 
L 518.754952 167.909689 
L 519.480058 199.955817 
L 519.842612 207.246422 
L 520.205165 220.852786 
L 520.930272 192.112163 
L 522.017933 125.409458 
L 522.380486 117.135902 
L 523.105593 135.461837 
L 524.193254 184.01338 
L 524.555807 183.033259 
L 524.91836 187.575265 
L 525.280914 183.71034 
L 525.643467 165.678232 
L 526.006021 166.622043 
L 526.368574 145.350751 
L 526.731128 148.371815 
L 527.093681 163.55198 
L 527.456235 162.815737 
L 528.181342 212.776962 
L 528.543895 216.793854 
L 528.906449 222.909418 
L 529.269002 215.309102 
L 529.631556 201.610902 
L 529.994109 170.629926 
L 530.719216 133.35103 
L 531.081769 121.05441 
L 531.444323 136.942723 
L 531.806876 139.901854 
L 532.16943 156.857211 
L 532.531983 179.313155 
L 533.25709 202.265248 
L 533.619644 203.686915 
L 535.069858 162.528604 
L 535.432411 161.316299 
L 535.794965 182.285469 
L 536.157518 188.524721 
L 536.520071 210.225096 
L 536.882625 222.518221 
L 537.245178 226.076023 
L 537.607732 240.159516 
L 538.332839 215.89198 
L 538.695392 194.330019 
L 539.057946 159.788587 
L 539.420499 141.913664 
L 539.783053 145.610242 
L 540.145606 144.889817 
L 540.50816 152.592699 
L 540.870713 167.642811 
L 541.59582 205.872704 
L 541.958373 216.962775 
L 542.320927 220.465771 
L 542.68348 201.716225 
L 543.046034 198.829617 
L 543.771141 178.092344 
L 544.133694 175.740036 
L 544.496248 180.92584 
L 545.221355 217.535009 
L 545.946462 245.154063 
L 546.309015 236.648463 
L 546.671569 327.280733 
L 547.034122 223.180866 
L 548.484336 147.195211 
L 548.846889 150.681811 
L 549.209443 166.940876 
L 549.571996 175.493365 
L 550.297103 213.186411 
L 550.659657 210.0404 
L 551.02221 217.696127 
L 552.109871 185.085358 
L 552.472424 175.274172 
L 552.834978 176.415782 
L 553.197531 180.170192 
L 554.285191 226.229944 
L 554.647745 252.674188 
L 555.010298 237.666347 
L 555.372852 229.820122 
L 555.735405 213.206008 
L 556.097959 184.531402 
L 556.460512 172.199061 
L 556.823066 149.164637 
L 557.185619 145.046613 
L 557.548173 149.158869 
L 557.910726 150.260939 
L 558.27328 176.981903 
L 559.36094 202.780717 
L 559.723493 202.47757 
L 560.086047 199.791026 
L 560.811154 170.336069 
L 561.173707 173.221925 
L 561.536261 162.996889 
L 561.898814 175.023094 
L 562.261368 177.832605 
L 562.623921 207.399139 
L 562.986475 218.314587 
L 563.711582 229.787562 
L 564.074135 226.731887 
L 564.799242 173.912689 
L 565.524349 142.389607 
L 565.886902 130.423441 
L 566.249456 129.524746 
L 566.612009 139.942738 
L 566.974563 145.911093 
L 567.337116 171.318731 
L 567.69967 179.898266 
L 568.062223 192.823374 
L 569.149884 172.735803 
L 569.512437 155.652568 
L 569.874991 145.238222 
L 570.237544 153.109911 
L 570.600097 155.287054 
L 570.962651 177.373151 
L 571.325204 189.765343 
L 572.412865 213.008379 
L 572.775418 210.418062 
L 573.137972 178.866481 
L 574.225632 124.31483 
L 574.588186 114.771427 
L 574.950739 115.203352 
L 575.675846 136.428084 
L 576.038399 156.050929 
L 576.763506 180.032718 
L 577.12606 180.08967 
L 577.488613 166.174556 
L 577.851167 158.953976 
L 578.576274 136.782913 
L 579.301381 147.626396 
L 579.663934 159.865266 
L 580.026488 165.152391 
L 580.389041 193.391418 
L 580.751595 206.943692 
L 581.114148 201.56657 
L 581.476701 198.194481 
L 582.926915 120.564254 
L 583.289469 115.596035 
L 583.652022 113.029892 
L 584.014576 114.689946 
L 584.739683 157.097132 
L 585.102236 174.504887 
L 585.46479 173.641635 
L 585.827343 177.354721 
L 586.55245 158.878298 
L 586.915004 143.723989 
L 587.277557 135.406547 
L 587.64011 138.216878 
L 588.002664 144.781511 
L 588.365217 168.603875 
L 589.452878 201.429558 
L 589.815431 207.491244 
L 590.177985 207.711341 
L 590.540538 181.371757 
L 591.265645 143.617045 
L 591.628199 119.994761 
L 591.990752 111.074907 
L 592.353306 115.142635 
L 592.715859 135.858759 
L 593.078412 146.836786 
L 593.803519 175.77553 
L 594.166073 185.841101 
L 594.528626 200.832572 
L 594.89118 180.78185 
L 595.253733 174.806881 
L 595.616287 163.568478 
L 595.97884 142.490344 
L 596.341394 149.012263 
L 597.066501 185.958218 
L 597.429054 206.381409 
L 597.791608 216.679053 
L 598.154161 234.747807 
L 598.516714 243.330495 
L 598.879268 220.015545 
L 599.241821 206.92618 
L 600.329482 137.519203 
L 600.692035 126.232189 
L 601.054589 133.307234 
L 601.417142 135.992143 
L 602.142249 187.807942 
L 602.504803 199.586284 
L 602.867356 219.990465 
L 603.22991 207.420116 
L 603.592463 203.253504 
L 603.955017 101.352686 
L 604.31757 185.083935 
L 604.680123 176.718027 
L 605.042677 164.794684 
L 605.40523 176.108826 
L 606.130337 221.488379 
L 606.492891 232.196111 
L 606.855444 246.523072 
L 607.217998 242.777746 
L 607.580551 243.520972 
L 607.943105 221.44459 
L 608.305658 188.263986 
L 609.030765 152.648967 
L 609.393319 140.90164 
L 609.755872 142.596523 
L 610.118425 146.242041 
L 610.480979 163.189062 
L 610.843532 188.39436 
L 611.568639 218.111003 
L 611.931193 214.27226 
L 612.293746 205.928625 
L 612.6563 188.899074 
L 613.018853 179.378186 
L 613.381407 166.900029 
L 613.74396 167.528074 
L 614.106514 174.953352 
L 615.194174 246.219883 
L 615.556727 245.176105 
L 615.919281 235.96682 
L 616.281834 234.166557 
L 617.732048 144.309144 
L 618.094602 133.199997 
L 618.457155 133.225669 
L 618.819709 152.826173 
L 619.182262 163.185952 
L 619.544816 193.634965 
L 620.269923 214.855022 
L 620.632476 205.556789 
L 620.99503 185.509847 
L 621.357583 181.920707 
L 621.720136 165.701493 
L 622.08269 156.364238 
L 622.445243 169.030333 
L 622.807797 168.611698 
L 623.17035 177.803125 
L 623.895457 215.970747 
L 624.258011 222.752752 
L 624.620564 232.88851 
L 625.708225 173.062142 
L 626.070778 141.475559 
L 626.433332 122.600048 
L 626.795885 112.704666 
L 627.158438 113.717626 
L 627.883545 139.971441 
L 628.246099 164.736919 
L 628.608652 178.924152 
L 628.971206 180.197576 
L 629.333759 179.561202 
L 629.696313 178.083932 
L 630.058866 168.331112 
L 630.42142 142.157661 
L 630.783973 146.321508 
L 631.146527 142.534447 
L 631.50908 141.405227 
L 631.871634 156.036562 
L 632.234187 186.104176 
L 632.959294 213.826859 
L 633.684401 187.737243 
L 634.046954 180.412788 
L 634.409508 147.290586 
L 634.772061 137.789576 
L 635.134615 110.701079 
L 635.497168 94.673876 
L 635.859722 101.103482 
L 636.584829 125.652412 
L 636.947382 142.393007 
L 637.309936 153.698475 
L 637.672489 179.644291 
L 638.035043 174.948468 
L 638.397596 167.467158 
L 639.122703 141.508168 
L 639.485256 128.662923 
L 639.84781 131.359769 
L 640.210363 153.585345 
L 640.572917 161.573271 
L 640.93547 164.2725 
L 641.298024 194.604357 
L 641.660577 206.209219 
L 642.023131 203.520886 
L 642.385684 199.698864 
L 642.748238 176.709607 
L 643.110791 144.734344 
L 643.473345 132.71942 
L 643.835898 102.402559 
L 644.198451 105.882155 
L 644.561005 90.429661 
L 644.923558 117.87305 
L 645.286112 129.330776 
L 646.011219 164.3934 
L 646.373772 177.986812 
L 646.736326 178.179398 
L 647.098879 159.710029 
L 647.461433 149.389627 
L 647.823986 144.936643 
L 648.18654 135.050128 
L 648.549093 141.027981 
L 648.911647 151.48662 
L 649.636753 187.435702 
L 649.999307 205.101989 
L 650.36186 313.522443 
L 650.724414 226.583902 
L 651.086967 209.086094 
L 652.537181 118.823073 
L 652.899735 117.029476 
L 653.262288 113.403272 
L 653.987395 140.949173 
L 654.349949 169.013658 
L 654.712502 181.76289 
L 655.075055 185.643856 
L 655.437609 191.006682 
L 656.162716 164.832277 
L 656.525269 158.394782 
L 657.250376 155.7776 
L 657.61293 154.314568 
L 658.70059 218.540152 
L 659.063144 231.575954 
L 659.425697 229.529749 
L 659.788251 222.770757 
L 660.150804 207.037404 
L 660.875911 158.508576 
L 661.238464 126.559589 
L 661.601018 134.131832 
L 661.963571 127.99796 
L 662.326125 243.435917 
L 662.688678 153.816365 
L 663.051232 180.33778 
L 663.776339 206.110463 
L 664.138892 208.919829 
L 664.501446 204.565379 
L 664.863999 195.546594 
L 665.226553 182.030216 
L 665.589106 176.862925 
L 665.95166 66.96 
L 666.314213 177.870233 
L 667.03932 216.091017 
L 667.401873 231.61362 
L 667.764427 241.919933 
L 668.12698 243.870384 
L 668.489534 241.063161 
L 669.214641 185.981307 
L 670.302301 131.149455 
L 670.664855 137.532905 
L 671.027408 153.217456 
L 671.389962 176.906468 
L 671.752515 190.024521 
L 672.115068 211.635245 
L 672.477622 217.892675 
L 672.840175 215.18439 
L 673.202729 201.595099 
L 673.565282 197.636831 
L 674.652943 163.102799 
L 675.015496 182.143641 
L 675.37805 190.726084 
L 675.740603 222.430189 
L 676.103157 233.971371 
L 676.46571 239.795667 
L 676.828264 247.964193 
L 677.553371 208.491038 
L 677.915924 188.931455 
L 678.641031 137.37939 
L 679.003584 139.317607 
L 679.366138 136.256466 
L 680.091245 174.652661 
L 680.453798 180.236754 
L 680.816352 194.33835 
L 681.178905 192.844598 
L 681.541459 210.155818 
L 681.904012 192.761726 
L 682.266566 185.144827 
L 682.629119 167.457903 
L 682.991673 156.806226 
L 683.354226 159.443894 
L 683.716779 165.52364 
L 684.079333 176.207722 
L 685.166993 229.693277 
L 685.8921 211.658458 
L 686.617207 169.515903 
L 687.342314 128.666953 
L 687.704868 117.651517 
L 688.067421 117.622882 
L 688.429975 134.941036 
L 688.792528 139.738641 
L 689.517635 187.269324 
L 689.880188 183.608379 
L 690.242742 184.584154 
L 690.605295 184.646431 
L 690.967849 169.597799 
L 691.330402 148.380726 
L 691.692956 146.604115 
L 692.055509 139.508104 
L 692.418063 154.030492 
L 692.780616 155.816812 
L 693.14317 183.86426 
L 693.505723 193.577969 
L 693.868277 213.627714 
L 694.23083 218.606201 
L 694.593384 205.354218 
L 694.955937 187.715831 
L 695.31849 150.390407 
L 696.043597 107.954999 
L 696.406151 102.973113 
L 696.768704 106.339994 
L 697.131258 120.366182 
L 697.493811 123.45009 
L 698.218918 172.649901 
L 698.581472 167.539615 
L 698.944025 178.253029 
L 699.306579 160.694287 
L 700.031686 141.642143 
L 700.394239 129.341355 
L 700.756792 126.95809 
L 701.119346 144.462494 
L 701.481899 154.774806 
L 701.844453 170.180804 
L 702.207006 191.39552 
L 702.56956 202.597377 
L 702.932113 206.307335 
L 703.294667 203.102544 
L 704.382327 120.043031 
L 704.744881 118.203201 
L 705.107434 101.686696 
L 705.469988 92.317225 
L 706.195094 130.520349 
L 706.920201 166.858534 
L 707.282755 174.11874 
L 707.645308 173.254683 
L 708.007862 179.182111 
L 708.370415 146.199357 
L 708.732969 139.86237 
L 709.095522 140.351988 
L 709.458076 134.104054 
L 710.183183 160.339471 
L 710.90829 204.175998 
L 711.270843 216.696348 
L 711.633397 210.943274 
L 711.99595 207.085933 
L 712.358503 188.4085 
L 712.721057 162.546313 
L 713.08361 144.941285 
L 713.446164 115.283151 
L 713.808717 117.244398 
L 714.171271 113.703463 
L 714.896378 145.974918 
L 715.621485 189.246635 
L 715.984038 190.800884 
L 716.346592 189.109647 
L 716.709145 189.590508 
L 717.071699 166.557055 
L 717.434252 166.120874 
L 717.796805 160.2038 
L 718.159359 147.600794 
L 718.884466 177.435348 
L 719.247019 212.534957 
L 719.609573 223.038135 
L 719.972126 229.21651 
L 720.33468 232.673554 
L 720.697233 224.696585 
L 722.510001 129.030586 
L 722.872554 135.843398 
L 723.235107 147.268395 
L 723.597661 163.358748 
L 723.960214 172.220159 
L 724.322768 205.376453 
L 724.685321 194.231265 
L 725.047875 211.549231 
L 725.410428 202.964078 
L 725.772982 176.871817 
L 726.135535 170.168269 
L 726.860642 166.31888 
L 727.223196 176.133084 
L 728.310856 238.151021 
L 728.673409 244.572393 
L 729.035963 239.999486 
L 729.398516 233.764088 
L 730.123623 190.03181 
L 730.486177 176.072069 
L 730.84873 148.348875 
L 731.211284 133.378441 
L 731.573837 138.472814 
L 731.936391 156.439937 
L 732.298944 167.372172 
L 732.661498 189.851158 
L 733.024051 202.918624 
L 733.386605 208.789757 
L 733.749158 218.234954 
L 734.111712 206.515496 
L 734.474265 183.855364 
L 734.836818 182.376445 
L 735.199372 168.693676 
L 735.561925 178.63019 
L 735.924479 182.533157 
L 736.287032 184.011678 
L 736.649586 210.458893 
L 737.012139 221.148844 
L 737.374693 244.958408 
L 737.737246 241.206026 
L 738.0998 231.809208 
L 738.462353 216.454947 
L 739.18746 166.029421 
L 739.550014 145.722676 
L 739.912567 142.508891 
L 740.27512 130.944183 
L 740.637674 145.728635 
L 741.000227 166.73981 
L 741.362781 175.998644 
L 741.725334 193.632166 
L 742.087888 203.70982 
L 742.450441 110.345924 
L 742.812995 193.039725 
L 743.175548 183.850138 
L 743.538102 161.711757 
L 743.900655 153.454107 
L 744.263209 163.552854 
L 744.625762 167.64194 
L 745.350869 197.808476 
L 745.713422 230.228376 
L 746.075976 220.566072 
L 746.438529 228.275031 
L 746.801083 219.107367 
L 747.163636 201.697958 
L 747.163636 201.697958 
" style="fill:none;stroke:#1f77b4;stroke-linecap:square;stroke-width:1.5;"/>
   </g>
   <g id="line2d_16">
    <path clip-path="url(#p73805a0068)" d="M 745.713422 384.48 
L 745.713422 51.84 
" style="fill:none;stroke:#808080;stroke-linecap:square;"/>
   </g>
   <g id="patch_61">
    <path d="M 108 384.48 
L 108 51.84 
" style="fill:none;stroke:#000000;stroke-linecap:square;stroke-linejoin:miter;stroke-width:0.8;"/>
   </g>
   <g id="patch_62">
    <path d="M 777.6 384.48 
L 777.6 51.84 
" style="fill:none;stroke:#000000;stroke-linecap:square;stroke-linejoin:miter;stroke-width:0.8;"/>
   </g>
   <g id="patch_63">
    <path d="M 108 384.48 
L 777.6 384.48 
" style="fill:none;stroke:#000000;stroke-linecap:square;stroke-linejoin:miter;stroke-width:0.8;"/>
   </g>
   <g id="patch_64">
    <path d="M 108 51.84 
L 777.6 51.84 
" style="fill:none;stroke:#000000;stroke-linecap:square;stroke-linejoin:miter;stroke-width:0.8;"/>
   </g>
   <g id="text_17">
    <!-- A4Benchmark-TS39.csv -->
    <defs>
     <path d="M 34.1875 63.1875 
L 20.796875 26.90625 
L 47.609375 26.90625 
z
M 28.609375 72.90625 
L 39.796875 72.90625 
L 67.578125 0 
L 57.328125 0 
L 50.6875 18.703125 
L 17.828125 18.703125 
L 11.1875 0 
L 0.78125 0 
z
" id="DejaVuSans-65"/>
     <path d="M 19.671875 34.8125 
L 19.671875 8.109375 
L 35.5 8.109375 
Q 43.453125 8.109375 47.28125 11.40625 
Q 51.125 14.703125 51.125 21.484375 
Q 51.125 28.328125 47.28125 31.5625 
Q 43.453125 34.8125 35.5 34.8125 
z
M 19.671875 64.796875 
L 19.671875 42.828125 
L 34.28125 42.828125 
Q 41.5 42.828125 45.03125 45.53125 
Q 48.578125 48.25 48.578125 53.8125 
Q 48.578125 59.328125 45.03125 62.0625 
Q 41.5 64.796875 34.28125 64.796875 
z
M 9.8125 72.90625 
L 35.015625 72.90625 
Q 46.296875 72.90625 52.390625 68.21875 
Q 58.5 63.53125 58.5 54.890625 
Q 58.5 48.1875 55.375 44.234375 
Q 52.25 40.28125 46.1875 39.3125 
Q 53.46875 37.75 57.5 32.78125 
Q 61.53125 27.828125 61.53125 20.40625 
Q 61.53125 10.640625 54.890625 5.3125 
Q 48.25 0 35.984375 0 
L 9.8125 0 
z
" id="DejaVuSans-66"/>
     <path d="M 54.890625 33.015625 
L 54.890625 0 
L 45.90625 0 
L 45.90625 32.71875 
Q 45.90625 40.484375 42.875 44.328125 
Q 39.84375 48.1875 33.796875 48.1875 
Q 26.515625 48.1875 22.3125 43.546875 
Q 18.109375 38.921875 18.109375 30.90625 
L 18.109375 0 
L 9.078125 0 
L 9.078125 54.6875 
L 18.109375 54.6875 
L 18.109375 46.1875 
Q 21.34375 51.125 25.703125 53.5625 
Q 30.078125 56 35.796875 56 
Q 45.21875 56 50.046875 50.171875 
Q 54.890625 44.34375 54.890625 33.015625 
z
" id="DejaVuSans-110"/>
     <path d="M 48.78125 52.59375 
L 48.78125 44.1875 
Q 44.96875 46.296875 41.140625 47.34375 
Q 37.3125 48.390625 33.40625 48.390625 
Q 24.65625 48.390625 19.8125 42.84375 
Q 14.984375 37.3125 14.984375 27.296875 
Q 14.984375 17.28125 19.8125 11.734375 
Q 24.65625 6.203125 33.40625 6.203125 
Q 37.3125 6.203125 41.140625 7.25 
Q 44.96875 8.296875 48.78125 10.40625 
L 48.78125 2.09375 
Q 45.015625 0.34375 40.984375 -0.53125 
Q 36.96875 -1.421875 32.421875 -1.421875 
Q 20.0625 -1.421875 12.78125 6.34375 
Q 5.515625 14.109375 5.515625 27.296875 
Q 5.515625 40.671875 12.859375 48.328125 
Q 20.21875 56 33.015625 56 
Q 37.15625 56 41.109375 55.140625 
Q 45.0625 54.296875 48.78125 52.59375 
z
" id="DejaVuSans-99"/>
     <path d="M 54.890625 33.015625 
L 54.890625 0 
L 45.90625 0 
L 45.90625 32.71875 
Q 45.90625 40.484375 42.875 44.328125 
Q 39.84375 48.1875 33.796875 48.1875 
Q 26.515625 48.1875 22.3125 43.546875 
Q 18.109375 38.921875 18.109375 30.90625 
L 18.109375 0 
L 9.078125 0 
L 9.078125 75.984375 
L 18.109375 75.984375 
L 18.109375 46.1875 
Q 21.34375 51.125 25.703125 53.5625 
Q 30.078125 56 35.796875 56 
Q 45.21875 56 50.046875 50.171875 
Q 54.890625 44.34375 54.890625 33.015625 
z
" id="DejaVuSans-104"/>
     <path d="M 41.109375 46.296875 
Q 39.59375 47.171875 37.8125 47.578125 
Q 36.03125 48 33.890625 48 
Q 26.265625 48 22.1875 43.046875 
Q 18.109375 38.09375 18.109375 28.8125 
L 18.109375 0 
L 9.078125 0 
L 9.078125 54.6875 
L 18.109375 54.6875 
L 18.109375 46.1875 
Q 20.953125 51.171875 25.484375 53.578125 
Q 30.03125 56 36.53125 56 
Q 37.453125 56 38.578125 55.875 
Q 39.703125 55.765625 41.0625 55.515625 
z
" id="DejaVuSans-114"/>
     <path d="M 9.078125 75.984375 
L 18.109375 75.984375 
L 18.109375 31.109375 
L 44.921875 54.6875 
L 56.390625 54.6875 
L 27.390625 29.109375 
L 57.625 0 
L 45.90625 0 
L 18.109375 26.703125 
L 18.109375 0 
L 9.078125 0 
z
" id="DejaVuSans-107"/>
     <path d="M 4.890625 31.390625 
L 31.203125 31.390625 
L 31.203125 23.390625 
L 4.890625 23.390625 
z
" id="DejaVuSans-45"/>
     <path d="M 53.515625 70.515625 
L 53.515625 60.890625 
Q 47.90625 63.578125 42.921875 64.890625 
Q 37.9375 66.21875 33.296875 66.21875 
Q 25.25 66.21875 20.875 63.09375 
Q 16.5 59.96875 16.5 54.203125 
Q 16.5 49.359375 19.40625 46.890625 
Q 22.3125 44.4375 30.421875 42.921875 
L 36.375 41.703125 
Q 47.40625 39.59375 52.65625 34.296875 
Q 57.90625 29 57.90625 20.125 
Q 57.90625 9.515625 50.796875 4.046875 
Q 43.703125 -1.421875 29.984375 -1.421875 
Q 24.8125 -1.421875 18.96875 -0.25 
Q 13.140625 0.921875 6.890625 3.21875 
L 6.890625 13.375 
Q 12.890625 10.015625 18.65625 8.296875 
Q 24.421875 6.59375 29.984375 6.59375 
Q 38.421875 6.59375 43.015625 9.90625 
Q 47.609375 13.234375 47.609375 19.390625 
Q 47.609375 24.75 44.3125 27.78125 
Q 41.015625 30.8125 33.5 32.328125 
L 27.484375 33.5 
Q 16.453125 35.6875 11.515625 40.375 
Q 6.59375 45.0625 6.59375 53.421875 
Q 6.59375 63.09375 13.40625 68.65625 
Q 20.21875 74.21875 32.171875 74.21875 
Q 37.3125 74.21875 42.625 73.28125 
Q 47.953125 72.359375 53.515625 70.515625 
z
" id="DejaVuSans-83"/>
     <path d="M 10.984375 1.515625 
L 10.984375 10.5 
Q 14.703125 8.734375 18.5 7.8125 
Q 22.3125 6.890625 25.984375 6.890625 
Q 35.75 6.890625 40.890625 13.453125 
Q 46.046875 20.015625 46.78125 33.40625 
Q 43.953125 29.203125 39.59375 26.953125 
Q 35.25 24.703125 29.984375 24.703125 
Q 19.046875 24.703125 12.671875 31.3125 
Q 6.296875 37.9375 6.296875 49.421875 
Q 6.296875 60.640625 12.9375 67.421875 
Q 19.578125 74.21875 30.609375 74.21875 
Q 43.265625 74.21875 49.921875 64.515625 
Q 56.59375 54.828125 56.59375 36.375 
Q 56.59375 19.140625 48.40625 8.859375 
Q 40.234375 -1.421875 26.421875 -1.421875 
Q 22.703125 -1.421875 18.890625 -0.6875 
Q 15.09375 0.046875 10.984375 1.515625 
z
M 30.609375 32.421875 
Q 37.25 32.421875 41.125 36.953125 
Q 45.015625 41.5 45.015625 49.421875 
Q 45.015625 57.28125 41.125 61.84375 
Q 37.25 66.40625 30.609375 66.40625 
Q 23.96875 66.40625 20.09375 61.84375 
Q 16.21875 57.28125 16.21875 49.421875 
Q 16.21875 41.5 20.09375 36.953125 
Q 23.96875 32.421875 30.609375 32.421875 
z
" id="DejaVuSans-57"/>
     <path d="M 10.6875 12.40625 
L 21 12.40625 
L 21 0 
L 10.6875 0 
z
" id="DejaVuSans-46"/>
     <path d="M 2.984375 54.6875 
L 12.5 54.6875 
L 29.59375 8.796875 
L 46.6875 54.6875 
L 56.203125 54.6875 
L 35.6875 0 
L 23.484375 0 
z
" id="DejaVuSans-118"/>
    </defs>
    <g transform="translate(371.555625 45.84)scale(0.12 -0.12)">
     <use xlink:href="#DejaVuSans-65"/>
     <use x="68.408203" xlink:href="#DejaVuSans-52"/>
     <use x="132.03125" xlink:href="#DejaVuSans-66"/>
     <use x="200.634766" xlink:href="#DejaVuSans-101"/>
     <use x="262.158203" xlink:href="#DejaVuSans-110"/>
     <use x="325.537109" xlink:href="#DejaVuSans-99"/>
     <use x="380.517578" xlink:href="#DejaVuSans-104"/>
     <use x="443.896484" xlink:href="#DejaVuSans-109"/>
     <use x="541.308594" xlink:href="#DejaVuSans-97"/>
     <use x="602.587891" xlink:href="#DejaVuSans-114"/>
     <use x="643.701172" xlink:href="#DejaVuSans-107"/>
     <use x="701.611328" xlink:href="#DejaVuSans-45"/>
     <use x="737.554688" xlink:href="#DejaVuSans-84"/>
     <use x="798.638672" xlink:href="#DejaVuSans-83"/>
     <use x="862.115234" xlink:href="#DejaVuSans-51"/>
     <use x="925.738281" xlink:href="#DejaVuSans-57"/>
     <use x="989.361328" xlink:href="#DejaVuSans-46"/>
     <use x="1021.148438" xlink:href="#DejaVuSans-99"/>
     <use x="1076.128906" xlink:href="#DejaVuSans-115"/>
     <use x="1128.228516" xlink:href="#DejaVuSans-118"/>
    </g>
   </g>
   <g id="legend_1">
    <g id="patch_65">
     <path d="M 115 74.518125 
L 174.315625 74.518125 
Q 176.315625 74.518125 176.315625 72.518125 
L 176.315625 58.84 
Q 176.315625 56.84 174.315625 56.84 
L 115 56.84 
Q 113 56.84 113 58.84 
L 113 72.518125 
Q 113 74.518125 115 74.518125 
z
" style="fill:#ffffff;opacity:0.8;stroke:#cccccc;stroke-linejoin:miter;"/>
    </g>
    <g id="line2d_17">
     <path d="M 117 64.938438 
L 137 64.938438 
" style="fill:none;stroke:#1f77b4;stroke-linecap:square;stroke-width:1.5;"/>
    </g>
    <g id="line2d_18"/>
    <g id="text_18">
     <!-- value -->
     <g transform="translate(145 68.438438)scale(0.1 -0.1)">
      <use xlink:href="#DejaVuSans-118"/>
      <use x="59.179688" xlink:href="#DejaVuSans-97"/>
      <use x="120.458984" xlink:href="#DejaVuSans-108"/>
      <use x="148.242188" xlink:href="#DejaVuSans-117"/>
      <use x="211.621094" xlink:href="#DejaVuSans-101"/>
     </g>
    </g>
   </g>
  </g>
 </g>
 <defs>
  <clipPath id="p73805a0068">
   <rect height="332.64" width="669.6" x="108" y="51.84"/>
  </clipPath>
 </defs>
</svg>
