<?xml version="1.0" encoding="utf-8" standalone="no"?>
<!DOCTYPE svg PUBLIC "-//W3C//DTD SVG 1.1//EN"
  "http://www.w3.org/Graphics/SVG/1.1/DTD/svg11.dtd">
<!-- Created with matplotlib (https://matplotlib.org/) -->
<svg height="432pt" version="1.1" viewBox="0 0 864 432" width="864pt" xmlns="http://www.w3.org/2000/svg" xmlns:xlink="http://www.w3.org/1999/xlink">
 <defs>
  <style type="text/css">
*{stroke-linecap:butt;stroke-linejoin:round;}
  </style>
 </defs>
 <g id="figure_1">
  <g id="patch_1">
   <path d="M 0 432 
L 864 432 
L 864 0 
L 0 0 
z
" style="fill:#ffffff;"/>
  </g>
  <g id="axes_1">
   <g id="patch_2">
    <path d="M 108 384.48 
L 777.6 384.48 
L 777.6 51.84 
L 108 51.84 
z
" style="fill:#ffffff;"/>
   </g>
   <g id="patch_3">
    <path clip-path="url(#p35fbefb275)" d="M 138.436364 384.48 
L 138.436364 51.84 
L 374.096118 51.84 
L 374.096118 384.48 
z
" style="fill:#0000ff;opacity:0.05;"/>
   </g>
   <g id="patch_4">
    <path clip-path="url(#p35fbefb275)" d="M 374.096118 384.48 
L 374.096118 51.84 
L 745.713422 51.84 
L 745.713422 384.48 
z
" style="fill:#ff0000;opacity:0.08;"/>
   </g>
   <g id="patch_5">
    <path clip-path="url(#p35fbefb275)" d="M 138.436364 384.48 
L 138.436364 51.84 
L 147.5002 51.84 
L 147.5002 384.48 
z
" style="fill:#008000;opacity:0.04;"/>
   </g>
   <g id="patch_6">
    <path clip-path="url(#p35fbefb275)" d="M 138.436364 371.1744 
L 138.436364 51.84 
L 147.5002 51.84 
L 147.5002 371.1744 
z
" style="fill:#008000;opacity:0.5;"/>
   </g>
   <g id="patch_7">
    <path clip-path="url(#p35fbefb275)" d="M 374.096118 384.48 
L 374.096118 371.1744 
L 383.159955 371.1744 
L 383.159955 384.48 
z
" style="fill:#ff6600;"/>
   </g>
   <g id="patch_8">
    <path clip-path="url(#p35fbefb275)" d="M 156.564037 384.48 
L 156.564037 51.84 
L 165.627874 51.84 
L 165.627874 384.48 
z
" style="fill:#008000;opacity:0.04;"/>
   </g>
   <g id="patch_9">
    <path clip-path="url(#p35fbefb275)" d="M 156.564037 371.1744 
L 156.564037 51.84 
L 165.627874 51.84 
L 165.627874 371.1744 
z
" style="fill:#008000;opacity:0.5;"/>
   </g>
   <g id="patch_10">
    <path clip-path="url(#p35fbefb275)" d="M 174.69171 384.48 
L 174.69171 51.84 
L 183.755547 51.84 
L 183.755547 384.48 
z
" style="fill:#008000;opacity:0.04;"/>
   </g>
   <g id="patch_11">
    <path clip-path="url(#p35fbefb275)" d="M 192.819384 384.48 
L 192.819384 51.84 
L 201.883221 51.84 
L 201.883221 384.48 
z
" style="fill:#008000;opacity:0.04;"/>
   </g>
   <g id="patch_12">
    <path clip-path="url(#p35fbefb275)" d="M 210.947057 384.48 
L 210.947057 51.84 
L 220.010894 51.84 
L 220.010894 384.48 
z
" style="fill:#008000;opacity:0.04;"/>
   </g>
   <g id="patch_13">
    <path clip-path="url(#p35fbefb275)" d="M 210.947057 371.1744 
L 210.947057 51.84 
L 220.010894 51.84 
L 220.010894 371.1744 
z
" style="fill:#008000;opacity:0.5;"/>
   </g>
   <g id="patch_14">
    <path clip-path="url(#p35fbefb275)" d="M 220.010894 371.1744 
L 220.010894 51.84 
L 229.074731 51.84 
L 229.074731 371.1744 
z
" style="fill:#008000;opacity:0.5;"/>
   </g>
   <g id="patch_15">
    <path clip-path="url(#p35fbefb275)" d="M 229.074731 384.48 
L 229.074731 51.84 
L 238.138567 51.84 
L 238.138567 384.48 
z
" style="fill:#008000;opacity:0.04;"/>
   </g>
   <g id="patch_16">
    <path clip-path="url(#p35fbefb275)" d="M 247.202404 384.48 
L 247.202404 51.84 
L 256.266241 51.84 
L 256.266241 384.48 
z
" style="fill:#008000;opacity:0.04;"/>
   </g>
   <g id="patch_17">
    <path clip-path="url(#p35fbefb275)" d="M 265.330077 384.48 
L 265.330077 51.84 
L 274.393914 51.84 
L 274.393914 384.48 
z
" style="fill:#008000;opacity:0.04;"/>
   </g>
   <g id="patch_18">
    <path clip-path="url(#p35fbefb275)" d="M 274.393914 371.1744 
L 274.393914 51.84 
L 283.457751 51.84 
L 283.457751 371.1744 
z
" style="fill:#008000;opacity:0.5;"/>
   </g>
   <g id="patch_19">
    <path clip-path="url(#p35fbefb275)" d="M 283.457751 384.48 
L 283.457751 51.84 
L 292.521588 51.84 
L 292.521588 384.48 
z
" style="fill:#008000;opacity:0.04;"/>
   </g>
   <g id="patch_20">
    <path clip-path="url(#p35fbefb275)" d="M 301.585424 384.48 
L 301.585424 51.84 
L 310.649261 51.84 
L 310.649261 384.48 
z
" style="fill:#008000;opacity:0.04;"/>
   </g>
   <g id="patch_21">
    <path clip-path="url(#p35fbefb275)" d="M 546.309015 384.48 
L 546.309015 371.1744 
L 555.372852 371.1744 
L 555.372852 384.48 
z
" style="fill:#ff6600;"/>
   </g>
   <g id="patch_22">
    <path clip-path="url(#p35fbefb275)" d="M 319.713098 384.48 
L 319.713098 51.84 
L 328.776934 51.84 
L 328.776934 384.48 
z
" style="fill:#008000;opacity:0.04;"/>
   </g>
   <g id="patch_23">
    <path clip-path="url(#p35fbefb275)" d="M 319.713098 371.1744 
L 319.713098 51.84 
L 328.776934 51.84 
L 328.776934 371.1744 
z
" style="fill:#008000;opacity:0.5;"/>
   </g>
   <g id="patch_24">
    <path clip-path="url(#p35fbefb275)" d="M 555.372852 384.48 
L 555.372852 371.1744 
L 564.436689 371.1744 
L 564.436689 384.48 
z
" style="fill:#ff6600;"/>
   </g>
   <g id="patch_25">
    <path clip-path="url(#p35fbefb275)" d="M 337.840771 384.48 
L 337.840771 51.84 
L 346.904608 51.84 
L 346.904608 384.48 
z
" style="fill:#008000;opacity:0.04;"/>
   </g>
   <g id="patch_26">
    <path clip-path="url(#p35fbefb275)" d="M 337.840771 371.1744 
L 337.840771 357.8688 
L 346.904608 357.8688 
L 346.904608 371.1744 
z
" style="fill:#ff00ff;"/>
   </g>
   <g id="patch_27">
    <path clip-path="url(#p35fbefb275)" d="M 346.904608 384.48 
L 346.904608 371.1744 
L 355.968444 371.1744 
L 355.968444 384.48 
z
" style="fill:#ffe500;"/>
   </g>
   <g id="patch_28">
    <path clip-path="url(#p35fbefb275)" d="M 355.968444 384.48 
L 355.968444 51.84 
L 365.032281 51.84 
L 365.032281 384.48 
z
" style="fill:#008000;opacity:0.04;"/>
   </g>
   <g id="patch_29">
    <path clip-path="url(#p35fbefb275)" d="M 355.968444 384.48 
L 355.968444 371.1744 
L 365.032281 371.1744 
L 365.032281 384.48 
z
" style="fill:#ffe500;"/>
   </g>
   <g id="patch_30">
    <path clip-path="url(#p35fbefb275)" d="M 374.096118 384.48 
L 374.096118 51.84 
L 383.159955 51.84 
L 383.159955 384.48 
z
" style="fill:#008000;opacity:0.04;"/>
   </g>
   <g id="patch_31">
    <path clip-path="url(#p35fbefb275)" d="M 374.096118 371.1744 
L 374.096118 51.84 
L 383.159955 51.84 
L 383.159955 371.1744 
z
" style="fill:#008000;opacity:0.5;"/>
   </g>
   <g id="patch_32">
    <path clip-path="url(#p35fbefb275)" d="M 392.223791 384.48 
L 392.223791 51.84 
L 401.287628 51.84 
L 401.287628 384.48 
z
" style="fill:#008000;opacity:0.04;"/>
   </g>
   <g id="patch_33">
    <path clip-path="url(#p35fbefb275)" d="M 410.351465 384.48 
L 410.351465 51.84 
L 419.415301 51.84 
L 419.415301 384.48 
z
" style="fill:#008000;opacity:0.04;"/>
   </g>
   <g id="patch_34">
    <path clip-path="url(#p35fbefb275)" d="M 428.479138 384.48 
L 428.479138 51.84 
L 437.542975 51.84 
L 437.542975 384.48 
z
" style="fill:#008000;opacity:0.04;"/>
   </g>
   <g id="patch_35">
    <path clip-path="url(#p35fbefb275)" d="M 446.606811 384.48 
L 446.606811 51.84 
L 455.670648 51.84 
L 455.670648 384.48 
z
" style="fill:#008000;opacity:0.04;"/>
   </g>
   <g id="patch_36">
    <path clip-path="url(#p35fbefb275)" d="M 464.734485 384.48 
L 464.734485 51.84 
L 473.798322 51.84 
L 473.798322 384.48 
z
" style="fill:#008000;opacity:0.04;"/>
   </g>
   <g id="patch_37">
    <path clip-path="url(#p35fbefb275)" d="M 473.798322 371.1744 
L 473.798322 357.8688 
L 482.862158 357.8688 
L 482.862158 371.1744 
z
" style="fill:#ff00ff;"/>
   </g>
   <g id="patch_38">
    <path clip-path="url(#p35fbefb275)" d="M 482.862158 384.48 
L 482.862158 51.84 
L 491.925995 51.84 
L 491.925995 384.48 
z
" style="fill:#008000;opacity:0.04;"/>
   </g>
   <g id="patch_39">
    <path clip-path="url(#p35fbefb275)" d="M 491.925995 371.1744 
L 491.925995 51.84 
L 500.989832 51.84 
L 500.989832 371.1744 
z
" style="fill:#008000;opacity:0.5;"/>
   </g>
   <g id="patch_40">
    <path clip-path="url(#p35fbefb275)" d="M 500.989832 384.48 
L 500.989832 51.84 
L 510.053668 51.84 
L 510.053668 384.48 
z
" style="fill:#008000;opacity:0.04;"/>
   </g>
   <g id="patch_41">
    <path clip-path="url(#p35fbefb275)" d="M 519.117505 384.48 
L 519.117505 51.84 
L 528.181342 51.84 
L 528.181342 384.48 
z
" style="fill:#008000;opacity:0.04;"/>
   </g>
   <g id="patch_42">
    <path clip-path="url(#p35fbefb275)" d="M 528.181342 371.1744 
L 528.181342 51.84 
L 537.245178 51.84 
L 537.245178 371.1744 
z
" style="fill:#008000;opacity:0.5;"/>
   </g>
   <g id="patch_43">
    <path clip-path="url(#p35fbefb275)" d="M 537.245178 384.48 
L 537.245178 51.84 
L 546.309015 51.84 
L 546.309015 384.48 
z
" style="fill:#008000;opacity:0.04;"/>
   </g>
   <g id="patch_44">
    <path clip-path="url(#p35fbefb275)" d="M 537.245178 371.1744 
L 537.245178 357.8688 
L 546.309015 357.8688 
L 546.309015 371.1744 
z
" style="fill:#ff00ff;"/>
   </g>
   <g id="patch_45">
    <path clip-path="url(#p35fbefb275)" d="M 555.372852 384.48 
L 555.372852 51.84 
L 564.436689 51.84 
L 564.436689 384.48 
z
" style="fill:#008000;opacity:0.04;"/>
   </g>
   <g id="patch_46">
    <path clip-path="url(#p35fbefb275)" d="M 573.500525 384.48 
L 573.500525 51.84 
L 582.564362 51.84 
L 582.564362 384.48 
z
" style="fill:#008000;opacity:0.04;"/>
   </g>
   <g id="patch_47">
    <path clip-path="url(#p35fbefb275)" d="M 591.628199 384.48 
L 591.628199 51.84 
L 600.692035 51.84 
L 600.692035 384.48 
z
" style="fill:#008000;opacity:0.04;"/>
   </g>
   <g id="patch_48">
    <path clip-path="url(#p35fbefb275)" d="M 600.692035 371.1744 
L 600.692035 51.84 
L 609.755872 51.84 
L 609.755872 371.1744 
z
" style="fill:#008000;opacity:0.5;"/>
   </g>
   <g id="patch_49">
    <path clip-path="url(#p35fbefb275)" d="M 609.755872 384.48 
L 609.755872 51.84 
L 618.819709 51.84 
L 618.819709 384.48 
z
" style="fill:#008000;opacity:0.04;"/>
   </g>
   <g id="patch_50">
    <path clip-path="url(#p35fbefb275)" d="M 609.755872 371.1744 
L 609.755872 357.8688 
L 618.819709 357.8688 
L 618.819709 371.1744 
z
" style="fill:#ff00ff;"/>
   </g>
   <g id="patch_51">
    <path clip-path="url(#p35fbefb275)" d="M 627.883545 384.48 
L 627.883545 51.84 
L 636.947382 51.84 
L 636.947382 384.48 
z
" style="fill:#008000;opacity:0.04;"/>
   </g>
   <g id="patch_52">
    <path clip-path="url(#p35fbefb275)" d="M 646.011219 384.48 
L 646.011219 51.84 
L 655.075055 51.84 
L 655.075055 384.48 
z
" style="fill:#008000;opacity:0.04;"/>
   </g>
   <g id="patch_53">
    <path clip-path="url(#p35fbefb275)" d="M 664.138892 384.48 
L 664.138892 51.84 
L 673.202729 51.84 
L 673.202729 384.48 
z
" style="fill:#008000;opacity:0.04;"/>
   </g>
   <g id="patch_54">
    <path clip-path="url(#p35fbefb275)" d="M 673.202729 371.1744 
L 673.202729 51.84 
L 682.266566 51.84 
L 682.266566 371.1744 
z
" style="fill:#008000;opacity:0.5;"/>
   </g>
   <g id="patch_55">
    <path clip-path="url(#p35fbefb275)" d="M 682.266566 384.48 
L 682.266566 51.84 
L 691.330402 51.84 
L 691.330402 384.48 
z
" style="fill:#008000;opacity:0.04;"/>
   </g>
   <g id="patch_56">
    <path clip-path="url(#p35fbefb275)" d="M 700.394239 384.48 
L 700.394239 51.84 
L 709.458076 51.84 
L 709.458076 384.48 
z
" style="fill:#008000;opacity:0.04;"/>
   </g>
   <g id="patch_57">
    <path clip-path="url(#p35fbefb275)" d="M 709.458076 371.1744 
L 709.458076 51.84 
L 718.521912 51.84 
L 718.521912 371.1744 
z
" style="fill:#008000;opacity:0.5;"/>
   </g>
   <g id="patch_58">
    <path clip-path="url(#p35fbefb275)" d="M 718.521912 384.48 
L 718.521912 51.84 
L 727.585749 51.84 
L 727.585749 384.48 
z
" style="fill:#008000;opacity:0.04;"/>
   </g>
   <g id="patch_59">
    <path clip-path="url(#p35fbefb275)" d="M 736.649586 384.48 
L 736.649586 51.84 
L 745.713422 51.84 
L 745.713422 384.48 
z
" style="fill:#008000;opacity:0.04;"/>
   </g>
   <g id="matplotlib.axis_1">
    <g id="xtick_1">
     <g id="line2d_1">
      <defs>
       <path d="M 0 0 
L 0 3.5 
" id="md40b16aab0" style="stroke:#000000;stroke-width:0.8;"/>
      </defs>
      <g>
       <use style="stroke:#000000;stroke-width:0.8;" x="138.436364" xlink:href="#md40b16aab0" y="384.48"/>
      </g>
     </g>
     <g id="text_1">
      <!-- 0 -->
      <defs>
       <path d="M 31.78125 66.40625 
Q 24.171875 66.40625 20.328125 58.90625 
Q 16.5 51.421875 16.5 36.375 
Q 16.5 21.390625 20.328125 13.890625 
Q 24.171875 6.390625 31.78125 6.390625 
Q 39.453125 6.390625 43.28125 13.890625 
Q 47.125 21.390625 47.125 36.375 
Q 47.125 51.421875 43.28125 58.90625 
Q 39.453125 66.40625 31.78125 66.40625 
z
M 31.78125 74.21875 
Q 44.046875 74.21875 50.515625 64.515625 
Q 56.984375 54.828125 56.984375 36.375 
Q 56.984375 17.96875 50.515625 8.265625 
Q 44.046875 -1.421875 31.78125 -1.421875 
Q 19.53125 -1.421875 13.0625 8.265625 
Q 6.59375 17.96875 6.59375 36.375 
Q 6.59375 54.828125 13.0625 64.515625 
Q 19.53125 74.21875 31.78125 74.21875 
z
" id="DejaVuSans-48"/>
      </defs>
      <g transform="translate(135.255114 399.078438)scale(0.1 -0.1)">
       <use xlink:href="#DejaVuSans-48"/>
      </g>
     </g>
    </g>
    <g id="xtick_2">
     <g id="line2d_2">
      <g>
       <use style="stroke:#000000;stroke-width:0.8;" x="229.074731" xlink:href="#md40b16aab0" y="384.48"/>
      </g>
     </g>
     <g id="text_2">
      <!-- 250 -->
      <defs>
       <path d="M 19.1875 8.296875 
L 53.609375 8.296875 
L 53.609375 0 
L 7.328125 0 
L 7.328125 8.296875 
Q 12.9375 14.109375 22.625 23.890625 
Q 32.328125 33.6875 34.8125 36.53125 
Q 39.546875 41.84375 41.421875 45.53125 
Q 43.3125 49.21875 43.3125 52.78125 
Q 43.3125 58.59375 39.234375 62.25 
Q 35.15625 65.921875 28.609375 65.921875 
Q 23.96875 65.921875 18.8125 64.3125 
Q 13.671875 62.703125 7.8125 59.421875 
L 7.8125 69.390625 
Q 13.765625 71.78125 18.9375 73 
Q 24.125 74.21875 28.421875 74.21875 
Q 39.75 74.21875 46.484375 68.546875 
Q 53.21875 62.890625 53.21875 53.421875 
Q 53.21875 48.921875 51.53125 44.890625 
Q 49.859375 40.875 45.40625 35.40625 
Q 44.1875 33.984375 37.640625 27.21875 
Q 31.109375 20.453125 19.1875 8.296875 
z
" id="DejaVuSans-50"/>
       <path d="M 10.796875 72.90625 
L 49.515625 72.90625 
L 49.515625 64.59375 
L 19.828125 64.59375 
L 19.828125 46.734375 
Q 21.96875 47.46875 24.109375 47.828125 
Q 26.265625 48.1875 28.421875 48.1875 
Q 40.625 48.1875 47.75 41.5 
Q 54.890625 34.8125 54.890625 23.390625 
Q 54.890625 11.625 47.5625 5.09375 
Q 40.234375 -1.421875 26.90625 -1.421875 
Q 22.3125 -1.421875 17.546875 -0.640625 
Q 12.796875 0.140625 7.71875 1.703125 
L 7.71875 11.625 
Q 12.109375 9.234375 16.796875 8.0625 
Q 21.484375 6.890625 26.703125 6.890625 
Q 35.15625 6.890625 40.078125 11.328125 
Q 45.015625 15.765625 45.015625 23.390625 
Q 45.015625 31 40.078125 35.4375 
Q 35.15625 39.890625 26.703125 39.890625 
Q 22.75 39.890625 18.8125 39.015625 
Q 14.890625 38.140625 10.796875 36.28125 
z
" id="DejaVuSans-53"/>
      </defs>
      <g transform="translate(219.530981 399.078438)scale(0.1 -0.1)">
       <use xlink:href="#DejaVuSans-50"/>
       <use x="63.623047" xlink:href="#DejaVuSans-53"/>
       <use x="127.246094" xlink:href="#DejaVuSans-48"/>
      </g>
     </g>
    </g>
    <g id="xtick_3">
     <g id="line2d_3">
      <g>
       <use style="stroke:#000000;stroke-width:0.8;" x="319.713098" xlink:href="#md40b16aab0" y="384.48"/>
      </g>
     </g>
     <g id="text_3">
      <!-- 500 -->
      <g transform="translate(310.169348 399.078438)scale(0.1 -0.1)">
       <use xlink:href="#DejaVuSans-53"/>
       <use x="63.623047" xlink:href="#DejaVuSans-48"/>
       <use x="127.246094" xlink:href="#DejaVuSans-48"/>
      </g>
     </g>
    </g>
    <g id="xtick_4">
     <g id="line2d_4">
      <g>
       <use style="stroke:#000000;stroke-width:0.8;" x="410.351465" xlink:href="#md40b16aab0" y="384.48"/>
      </g>
     </g>
     <g id="text_4">
      <!-- 750 -->
      <defs>
       <path d="M 8.203125 72.90625 
L 55.078125 72.90625 
L 55.078125 68.703125 
L 28.609375 0 
L 18.3125 0 
L 43.21875 64.59375 
L 8.203125 64.59375 
z
" id="DejaVuSans-55"/>
      </defs>
      <g transform="translate(400.807715 399.078438)scale(0.1 -0.1)">
       <use xlink:href="#DejaVuSans-55"/>
       <use x="63.623047" xlink:href="#DejaVuSans-53"/>
       <use x="127.246094" xlink:href="#DejaVuSans-48"/>
      </g>
     </g>
    </g>
    <g id="xtick_5">
     <g id="line2d_5">
      <g>
       <use style="stroke:#000000;stroke-width:0.8;" x="500.989832" xlink:href="#md40b16aab0" y="384.48"/>
      </g>
     </g>
     <g id="text_5">
      <!-- 1000 -->
      <defs>
       <path d="M 12.40625 8.296875 
L 28.515625 8.296875 
L 28.515625 63.921875 
L 10.984375 60.40625 
L 10.984375 69.390625 
L 28.421875 72.90625 
L 38.28125 72.90625 
L 38.28125 8.296875 
L 54.390625 8.296875 
L 54.390625 0 
L 12.40625 0 
z
" id="DejaVuSans-49"/>
      </defs>
      <g transform="translate(488.264832 399.078438)scale(0.1 -0.1)">
       <use xlink:href="#DejaVuSans-49"/>
       <use x="63.623047" xlink:href="#DejaVuSans-48"/>
       <use x="127.246094" xlink:href="#DejaVuSans-48"/>
       <use x="190.869141" xlink:href="#DejaVuSans-48"/>
      </g>
     </g>
    </g>
    <g id="xtick_6">
     <g id="line2d_6">
      <g>
       <use style="stroke:#000000;stroke-width:0.8;" x="591.628199" xlink:href="#md40b16aab0" y="384.48"/>
      </g>
     </g>
     <g id="text_6">
      <!-- 1250 -->
      <g transform="translate(578.903199 399.078438)scale(0.1 -0.1)">
       <use xlink:href="#DejaVuSans-49"/>
       <use x="63.623047" xlink:href="#DejaVuSans-50"/>
       <use x="127.246094" xlink:href="#DejaVuSans-53"/>
       <use x="190.869141" xlink:href="#DejaVuSans-48"/>
      </g>
     </g>
    </g>
    <g id="xtick_7">
     <g id="line2d_7">
      <g>
       <use style="stroke:#000000;stroke-width:0.8;" x="682.266566" xlink:href="#md40b16aab0" y="384.48"/>
      </g>
     </g>
     <g id="text_7">
      <!-- 1500 -->
      <g transform="translate(669.541566 399.078438)scale(0.1 -0.1)">
       <use xlink:href="#DejaVuSans-49"/>
       <use x="63.623047" xlink:href="#DejaVuSans-53"/>
       <use x="127.246094" xlink:href="#DejaVuSans-48"/>
       <use x="190.869141" xlink:href="#DejaVuSans-48"/>
      </g>
     </g>
    </g>
    <g id="xtick_8">
     <g id="line2d_8">
      <g>
       <use style="stroke:#000000;stroke-width:0.8;" x="772.904933" xlink:href="#md40b16aab0" y="384.48"/>
      </g>
     </g>
     <g id="text_8">
      <!-- 1750 -->
      <g transform="translate(760.179933 399.078438)scale(0.1 -0.1)">
       <use xlink:href="#DejaVuSans-49"/>
       <use x="63.623047" xlink:href="#DejaVuSans-55"/>
       <use x="127.246094" xlink:href="#DejaVuSans-53"/>
       <use x="190.869141" xlink:href="#DejaVuSans-48"/>
      </g>
     </g>
    </g>
    <g id="text_9">
     <!-- Timestamp -->
     <defs>
      <path d="M -0.296875 72.90625 
L 61.375 72.90625 
L 61.375 64.59375 
L 35.5 64.59375 
L 35.5 0 
L 25.59375 0 
L 25.59375 64.59375 
L -0.296875 64.59375 
z
" id="DejaVuSans-84"/>
      <path d="M 9.421875 54.6875 
L 18.40625 54.6875 
L 18.40625 0 
L 9.421875 0 
z
M 9.421875 75.984375 
L 18.40625 75.984375 
L 18.40625 64.59375 
L 9.421875 64.59375 
z
" id="DejaVuSans-105"/>
      <path d="M 52 44.1875 
Q 55.375 50.25 60.0625 53.125 
Q 64.75 56 71.09375 56 
Q 79.640625 56 84.28125 50.015625 
Q 88.921875 44.046875 88.921875 33.015625 
L 88.921875 0 
L 79.890625 0 
L 79.890625 32.71875 
Q 79.890625 40.578125 77.09375 44.375 
Q 74.3125 48.1875 68.609375 48.1875 
Q 61.625 48.1875 57.5625 43.546875 
Q 53.515625 38.921875 53.515625 30.90625 
L 53.515625 0 
L 44.484375 0 
L 44.484375 32.71875 
Q 44.484375 40.625 41.703125 44.40625 
Q 38.921875 48.1875 33.109375 48.1875 
Q 26.21875 48.1875 22.15625 43.53125 
Q 18.109375 38.875 18.109375 30.90625 
L 18.109375 0 
L 9.078125 0 
L 9.078125 54.6875 
L 18.109375 54.6875 
L 18.109375 46.1875 
Q 21.1875 51.21875 25.484375 53.609375 
Q 29.78125 56 35.6875 56 
Q 41.65625 56 45.828125 52.96875 
Q 50 49.953125 52 44.1875 
z
" id="DejaVuSans-109"/>
      <path d="M 56.203125 29.59375 
L 56.203125 25.203125 
L 14.890625 25.203125 
Q 15.484375 15.921875 20.484375 11.0625 
Q 25.484375 6.203125 34.421875 6.203125 
Q 39.59375 6.203125 44.453125 7.46875 
Q 49.3125 8.734375 54.109375 11.28125 
L 54.109375 2.78125 
Q 49.265625 0.734375 44.1875 -0.34375 
Q 39.109375 -1.421875 33.890625 -1.421875 
Q 20.796875 -1.421875 13.15625 6.1875 
Q 5.515625 13.8125 5.515625 26.8125 
Q 5.515625 40.234375 12.765625 48.109375 
Q 20.015625 56 32.328125 56 
Q 43.359375 56 49.78125 48.890625 
Q 56.203125 41.796875 56.203125 29.59375 
z
M 47.21875 32.234375 
Q 47.125 39.59375 43.09375 43.984375 
Q 39.0625 48.390625 32.421875 48.390625 
Q 24.90625 48.390625 20.390625 44.140625 
Q 15.875 39.890625 15.1875 32.171875 
z
" id="DejaVuSans-101"/>
      <path d="M 44.28125 53.078125 
L 44.28125 44.578125 
Q 40.484375 46.53125 36.375 47.5 
Q 32.28125 48.484375 27.875 48.484375 
Q 21.1875 48.484375 17.84375 46.4375 
Q 14.5 44.390625 14.5 40.28125 
Q 14.5 37.15625 16.890625 35.375 
Q 19.28125 33.59375 26.515625 31.984375 
L 29.59375 31.296875 
Q 39.15625 29.25 43.1875 25.515625 
Q 47.21875 21.78125 47.21875 15.09375 
Q 47.21875 7.46875 41.1875 3.015625 
Q 35.15625 -1.421875 24.609375 -1.421875 
Q 20.21875 -1.421875 15.453125 -0.5625 
Q 10.6875 0.296875 5.421875 2 
L 5.421875 11.28125 
Q 10.40625 8.6875 15.234375 7.390625 
Q 20.0625 6.109375 24.8125 6.109375 
Q 31.15625 6.109375 34.5625 8.28125 
Q 37.984375 10.453125 37.984375 14.40625 
Q 37.984375 18.0625 35.515625 20.015625 
Q 33.0625 21.96875 24.703125 23.78125 
L 21.578125 24.515625 
Q 13.234375 26.265625 9.515625 29.90625 
Q 5.8125 33.546875 5.8125 39.890625 
Q 5.8125 47.609375 11.28125 51.796875 
Q 16.75 56 26.8125 56 
Q 31.78125 56 36.171875 55.265625 
Q 40.578125 54.546875 44.28125 53.078125 
z
" id="DejaVuSans-115"/>
      <path d="M 18.3125 70.21875 
L 18.3125 54.6875 
L 36.8125 54.6875 
L 36.8125 47.703125 
L 18.3125 47.703125 
L 18.3125 18.015625 
Q 18.3125 11.328125 20.140625 9.421875 
Q 21.96875 7.515625 27.59375 7.515625 
L 36.8125 7.515625 
L 36.8125 0 
L 27.59375 0 
Q 17.1875 0 13.234375 3.875 
Q 9.28125 7.765625 9.28125 18.015625 
L 9.28125 47.703125 
L 2.6875 47.703125 
L 2.6875 54.6875 
L 9.28125 54.6875 
L 9.28125 70.21875 
z
" id="DejaVuSans-116"/>
      <path d="M 34.28125 27.484375 
Q 23.390625 27.484375 19.1875 25 
Q 14.984375 22.515625 14.984375 16.5 
Q 14.984375 11.71875 18.140625 8.90625 
Q 21.296875 6.109375 26.703125 6.109375 
Q 34.1875 6.109375 38.703125 11.40625 
Q 43.21875 16.703125 43.21875 25.484375 
L 43.21875 27.484375 
z
M 52.203125 31.203125 
L 52.203125 0 
L 43.21875 0 
L 43.21875 8.296875 
Q 40.140625 3.328125 35.546875 0.953125 
Q 30.953125 -1.421875 24.3125 -1.421875 
Q 15.921875 -1.421875 10.953125 3.296875 
Q 6 8.015625 6 15.921875 
Q 6 25.140625 12.171875 29.828125 
Q 18.359375 34.515625 30.609375 34.515625 
L 43.21875 34.515625 
L 43.21875 35.40625 
Q 43.21875 41.609375 39.140625 45 
Q 35.0625 48.390625 27.6875 48.390625 
Q 23 48.390625 18.546875 47.265625 
Q 14.109375 46.140625 10.015625 43.890625 
L 10.015625 52.203125 
Q 14.9375 54.109375 19.578125 55.046875 
Q 24.21875 56 28.609375 56 
Q 40.484375 56 46.34375 49.84375 
Q 52.203125 43.703125 52.203125 31.203125 
z
" id="DejaVuSans-97"/>
      <path d="M 18.109375 8.203125 
L 18.109375 -20.796875 
L 9.078125 -20.796875 
L 9.078125 54.6875 
L 18.109375 54.6875 
L 18.109375 46.390625 
Q 20.953125 51.265625 25.265625 53.625 
Q 29.59375 56 35.59375 56 
Q 45.5625 56 51.78125 48.09375 
Q 58.015625 40.1875 58.015625 27.296875 
Q 58.015625 14.40625 51.78125 6.484375 
Q 45.5625 -1.421875 35.59375 -1.421875 
Q 29.59375 -1.421875 25.265625 0.953125 
Q 20.953125 3.328125 18.109375 8.203125 
z
M 48.6875 27.296875 
Q 48.6875 37.203125 44.609375 42.84375 
Q 40.53125 48.484375 33.40625 48.484375 
Q 26.265625 48.484375 22.1875 42.84375 
Q 18.109375 37.203125 18.109375 27.296875 
Q 18.109375 17.390625 22.1875 11.75 
Q 26.265625 6.109375 33.40625 6.109375 
Q 40.53125 6.109375 44.609375 11.75 
Q 48.6875 17.390625 48.6875 27.296875 
z
" id="DejaVuSans-112"/>
     </defs>
     <g transform="translate(414.739062 412.756563)scale(0.1 -0.1)">
      <use xlink:href="#DejaVuSans-84"/>
      <use x="61.037109" xlink:href="#DejaVuSans-105"/>
      <use x="88.820312" xlink:href="#DejaVuSans-109"/>
      <use x="186.232422" xlink:href="#DejaVuSans-101"/>
      <use x="247.755859" xlink:href="#DejaVuSans-115"/>
      <use x="299.855469" xlink:href="#DejaVuSans-116"/>
      <use x="339.064453" xlink:href="#DejaVuSans-97"/>
      <use x="400.34375" xlink:href="#DejaVuSans-109"/>
      <use x="497.755859" xlink:href="#DejaVuSans-112"/>
     </g>
    </g>
   </g>
   <g id="matplotlib.axis_2">
    <g id="ytick_1">
     <g id="line2d_9">
      <defs>
       <path d="M 0 0 
L -3.5 0 
" id="mf5dd7573f0" style="stroke:#000000;stroke-width:0.8;"/>
      </defs>
      <g>
       <use style="stroke:#000000;stroke-width:0.8;" x="108" xlink:href="#mf5dd7573f0" y="380.572202"/>
      </g>
     </g>
     <g id="text_10">
      <!-- −2000 -->
      <defs>
       <path d="M 10.59375 35.5 
L 73.1875 35.5 
L 73.1875 27.203125 
L 10.59375 27.203125 
z
" id="DejaVuSans-8722"/>
      </defs>
      <g transform="translate(67.170312 384.37142)scale(0.1 -0.1)">
       <use xlink:href="#DejaVuSans-8722"/>
       <use x="83.789062" xlink:href="#DejaVuSans-50"/>
       <use x="147.412109" xlink:href="#DejaVuSans-48"/>
       <use x="211.035156" xlink:href="#DejaVuSans-48"/>
       <use x="274.658203" xlink:href="#DejaVuSans-48"/>
      </g>
     </g>
    </g>
    <g id="ytick_2">
     <g id="line2d_10">
      <g>
       <use style="stroke:#000000;stroke-width:0.8;" x="108" xlink:href="#mf5dd7573f0" y="335.918172"/>
      </g>
     </g>
     <g id="text_11">
      <!-- −1500 -->
      <g transform="translate(67.170312 339.717391)scale(0.1 -0.1)">
       <use xlink:href="#DejaVuSans-8722"/>
       <use x="83.789062" xlink:href="#DejaVuSans-49"/>
       <use x="147.412109" xlink:href="#DejaVuSans-53"/>
       <use x="211.035156" xlink:href="#DejaVuSans-48"/>
       <use x="274.658203" xlink:href="#DejaVuSans-48"/>
      </g>
     </g>
    </g>
    <g id="ytick_3">
     <g id="line2d_11">
      <g>
       <use style="stroke:#000000;stroke-width:0.8;" x="108" xlink:href="#mf5dd7573f0" y="291.264143"/>
      </g>
     </g>
     <g id="text_12">
      <!-- −1000 -->
      <g transform="translate(67.170312 295.063361)scale(0.1 -0.1)">
       <use xlink:href="#DejaVuSans-8722"/>
       <use x="83.789062" xlink:href="#DejaVuSans-49"/>
       <use x="147.412109" xlink:href="#DejaVuSans-48"/>
       <use x="211.035156" xlink:href="#DejaVuSans-48"/>
       <use x="274.658203" xlink:href="#DejaVuSans-48"/>
      </g>
     </g>
    </g>
    <g id="ytick_4">
     <g id="line2d_12">
      <g>
       <use style="stroke:#000000;stroke-width:0.8;" x="108" xlink:href="#mf5dd7573f0" y="246.610113"/>
      </g>
     </g>
     <g id="text_13">
      <!-- −500 -->
      <g transform="translate(73.532813 250.409332)scale(0.1 -0.1)">
       <use xlink:href="#DejaVuSans-8722"/>
       <use x="83.789062" xlink:href="#DejaVuSans-53"/>
       <use x="147.412109" xlink:href="#DejaVuSans-48"/>
       <use x="211.035156" xlink:href="#DejaVuSans-48"/>
      </g>
     </g>
    </g>
    <g id="ytick_5">
     <g id="line2d_13">
      <g>
       <use style="stroke:#000000;stroke-width:0.8;" x="108" xlink:href="#mf5dd7573f0" y="201.956084"/>
      </g>
     </g>
     <g id="text_14">
      <!-- 0 -->
      <g transform="translate(94.6375 205.755302)scale(0.1 -0.1)">
       <use xlink:href="#DejaVuSans-48"/>
      </g>
     </g>
    </g>
    <g id="ytick_6">
     <g id="line2d_14">
      <g>
       <use style="stroke:#000000;stroke-width:0.8;" x="108" xlink:href="#mf5dd7573f0" y="157.302054"/>
      </g>
     </g>
     <g id="text_15">
      <!-- 500 -->
      <g transform="translate(81.9125 161.101273)scale(0.1 -0.1)">
       <use xlink:href="#DejaVuSans-53"/>
       <use x="63.623047" xlink:href="#DejaVuSans-48"/>
       <use x="127.246094" xlink:href="#DejaVuSans-48"/>
      </g>
     </g>
    </g>
    <g id="ytick_7">
     <g id="line2d_15">
      <g>
       <use style="stroke:#000000;stroke-width:0.8;" x="108" xlink:href="#mf5dd7573f0" y="112.648025"/>
      </g>
     </g>
     <g id="text_16">
      <!-- 1000 -->
      <g transform="translate(75.55 116.447243)scale(0.1 -0.1)">
       <use xlink:href="#DejaVuSans-49"/>
       <use x="63.623047" xlink:href="#DejaVuSans-48"/>
       <use x="127.246094" xlink:href="#DejaVuSans-48"/>
       <use x="190.869141" xlink:href="#DejaVuSans-48"/>
      </g>
     </g>
    </g>
    <g id="ytick_8">
     <g id="line2d_16">
      <g>
       <use style="stroke:#000000;stroke-width:0.8;" x="108" xlink:href="#mf5dd7573f0" y="67.993995"/>
      </g>
     </g>
     <g id="text_17">
      <!-- 1500 -->
      <g transform="translate(75.55 71.793214)scale(0.1 -0.1)">
       <use xlink:href="#DejaVuSans-49"/>
       <use x="63.623047" xlink:href="#DejaVuSans-53"/>
       <use x="127.246094" xlink:href="#DejaVuSans-48"/>
       <use x="190.869141" xlink:href="#DejaVuSans-48"/>
      </g>
     </g>
    </g>
    <g id="text_18">
     <!-- Value -->
     <defs>
      <path d="M 28.609375 0 
L 0.78125 72.90625 
L 11.078125 72.90625 
L 34.1875 11.53125 
L 57.328125 72.90625 
L 67.578125 72.90625 
L 39.796875 0 
z
" id="DejaVuSans-86"/>
      <path d="M 9.421875 75.984375 
L 18.40625 75.984375 
L 18.40625 0 
L 9.421875 0 
z
" id="DejaVuSans-108"/>
      <path d="M 8.5 21.578125 
L 8.5 54.6875 
L 17.484375 54.6875 
L 17.484375 21.921875 
Q 17.484375 14.15625 20.5 10.265625 
Q 23.53125 6.390625 29.59375 6.390625 
Q 36.859375 6.390625 41.078125 11.03125 
Q 45.3125 15.671875 45.3125 23.6875 
L 45.3125 54.6875 
L 54.296875 54.6875 
L 54.296875 0 
L 45.3125 0 
L 45.3125 8.40625 
Q 42.046875 3.421875 37.71875 1 
Q 33.40625 -1.421875 27.6875 -1.421875 
Q 18.265625 -1.421875 13.375 4.4375 
Q 8.5 10.296875 8.5 21.578125 
z
M 31.109375 56 
z
" id="DejaVuSans-117"/>
     </defs>
     <g transform="translate(61.090625 232.273281)rotate(-90)scale(0.1 -0.1)">
      <use xlink:href="#DejaVuSans-86"/>
      <use x="68.298828" xlink:href="#DejaVuSans-97"/>
      <use x="129.578125" xlink:href="#DejaVuSans-108"/>
      <use x="157.361328" xlink:href="#DejaVuSans-117"/>
      <use x="220.740234" xlink:href="#DejaVuSans-101"/>
     </g>
    </g>
   </g>
   <g id="line2d_17">
    <path clip-path="url(#p35fbefb275)" d="M 138.436364 208.352769 
L 138.798917 183.549533 
L 139.161471 171.522244 
L 139.524024 171.931428 
L 139.886578 167.739527 
L 140.249131 173.04276 
L 140.611684 186.960514 
L 141.336791 201.767444 
L 141.699345 222.408066 
L 142.061898 287.020878 
L 142.424452 210.758059 
L 142.787005 189.653673 
L 143.149559 191.821732 
L 143.512112 175.697093 
L 143.874666 177.861452 
L 144.237219 172.831734 
L 144.599773 201.566575 
L 144.962326 208.172062 
L 145.32488 221.932045 
L 145.687433 231.421305 
L 146.049986 228.478272 
L 146.41254 227.908213 
L 146.775093 219.176492 
L 147.137647 195.40422 
L 147.862754 167.20305 
L 148.587861 147.643962 
L 149.312968 183.228995 
L 149.675521 180.71242 
L 150.038075 210.28497 
L 150.400628 205.581845 
L 150.763182 204.570428 
L 151.125735 206.910275 
L 151.488288 192.520075 
L 151.850842 186.478349 
L 152.213395 157.561281 
L 152.575949 172.801982 
L 152.938502 196.790426 
L 153.301056 193.584394 
L 153.663609 196.797207 
L 154.026163 211.824346 
L 154.75127 222.850982 
L 155.113823 222.443144 
L 155.476377 198.054715 
L 155.83893 188.331459 
L 156.201484 162.939493 
L 156.564037 158.476147 
L 156.926591 150.102871 
L 157.289144 154.622364 
L 157.651697 178.999309 
L 158.014251 187.578814 
L 158.376804 190.575784 
L 158.739358 202.082757 
L 159.101911 204.576166 
L 159.464465 201.090982 
L 159.827018 199.187664 
L 160.189572 183.73722 
L 160.552125 180.186816 
L 160.914679 173.951748 
L 161.277232 169.770703 
L 161.639786 177.279485 
L 162.002339 269.139561 
L 162.364893 216.895647 
L 162.727446 219.095878 
L 163.089999 237.447483 
L 163.452553 240.850954 
L 163.815106 230.055581 
L 164.17766 213.671274 
L 164.540213 187.350664 
L 164.902767 170.493312 
L 165.26532 162.427862 
L 165.627874 163.201101 
L 165.990427 158.537619 
L 166.715534 187.493991 
L 167.078088 191.706906 
L 167.440641 213.92169 
L 167.803195 225.310412 
L 168.165748 220.157675 
L 168.890855 207.6509 
L 169.615962 195.451815 
L 169.978515 184.871565 
L 170.341069 189.213689 
L 171.428729 230.92059 
L 171.791283 230.507433 
L 172.153836 252.400765 
L 172.51639 238.576149 
L 172.878943 230.463832 
L 173.241497 197.780786 
L 173.966603 183.289189 
L 174.329157 162.539849 
L 175.054264 179.246735 
L 175.779371 214.951483 
L 176.141924 220.085182 
L 176.504478 221.744899 
L 176.867031 222.412355 
L 177.229585 221.761898 
L 177.592138 209.84677 
L 177.954692 208.019962 
L 178.679799 193.991579 
L 179.042352 197.407889 
L 179.404906 222.44245 
L 179.767459 227.494818 
L 180.855119 256.212855 
L 181.217673 232.339495 
L 181.580226 225.722106 
L 181.94278 206.076572 
L 182.305333 197.011521 
L 183.03044 166.075708 
L 183.392994 180.911189 
L 183.755547 173.772284 
L 184.480654 220.927121 
L 184.843208 233.687067 
L 185.205761 232.714493 
L 185.568314 227.960634 
L 185.930868 220.370364 
L 186.293421 203.159933 
L 186.655975 200.131543 
L 187.018528 202.414703 
L 187.381082 192.921962 
L 187.743635 212.848829 
L 188.468742 223.359588 
L 189.193849 248.13641 
L 189.556403 256.941174 
L 191.006616 199.930835 
L 191.36917 172.839878 
L 191.731723 173.722468 
L 192.094277 173.150387 
L 192.45683 186.36743 
L 192.819384 188.813739 
L 193.181937 195.571915 
L 193.907044 229.884011 
L 194.994705 204.910102 
L 195.357258 194.84187 
L 195.719812 195.8086 
L 196.082365 180.088619 
L 196.444919 189.548813 
L 196.807472 216.495461 
L 197.532579 229.14578 
L 197.895132 244.222779 
L 198.620239 237.973073 
L 198.982793 212.432013 
L 200.433007 158.749935 
L 201.520667 182.529988 
L 201.883221 200.290082 
L 202.245774 209.913464 
L 202.608327 210.114708 
L 202.970881 206.824447 
L 203.333434 198.447462 
L 203.695988 206.417025 
L 204.058541 196.869515 
L 204.421095 173.343826 
L 204.783648 181.757772 
L 205.146202 185.070099 
L 205.508755 192.009081 
L 206.233862 225.17415 
L 206.596416 232.24297 
L 206.958969 231.75156 
L 208.409183 176.539765 
L 208.771736 159.440937 
L 209.13429 162.328409 
L 209.496843 153.821959 
L 210.22195 178.092611 
L 210.584504 191.291314 
L 210.947057 127.51927 
L 211.309611 197.431598 
L 211.672164 194.692978 
L 212.034718 200.45025 
L 212.397271 193.809212 
L 212.759825 183.130378 
L 213.122378 163.434906 
L 213.484932 167.590872 
L 213.847485 167.374581 
L 214.572592 207.60676 
L 215.660252 234.472671 
L 216.022806 225.081856 
L 216.385359 219.411704 
L 216.747913 192.28457 
L 217.47302 157.966672 
L 217.835573 157.428103 
L 218.198127 162.284184 
L 218.56068 173.216576 
L 218.923234 168.858971 
L 219.285787 185.6474 
L 219.64834 212.784274 
L 220.010894 217.978034 
L 220.373447 201.926068 
L 220.736001 203.047104 
L 221.098554 188.866347 
L 221.823661 172.511915 
L 222.186215 176.93848 
L 222.548768 178.107921 
L 222.911322 268.68982 
L 223.273875 195.411217 
L 223.636429 226.732384 
L 223.998982 238.078099 
L 224.361536 225.000198 
L 224.724089 224.06504 
L 225.086642 206.900485 
L 225.449196 203.401791 
L 225.811749 183.683431 
L 226.174303 179.295557 
L 226.536856 153.442086 
L 226.89941 169.61462 
L 227.261963 180.119556 
L 227.624517 183.319629 
L 227.98707 192.977812 
L 228.349624 192.877566 
L 228.712177 216.764913 
L 229.074731 198.008627 
L 229.437284 215.778878 
L 229.799838 212.326548 
L 230.162391 196.811025 
L 230.524945 191.469586 
L 230.887498 202.39835 
L 231.250051 192.250767 
L 231.612605 204.624745 
L 232.337712 237.951029 
L 232.700265 230.156541 
L 233.062819 239.174438 
L 233.425372 240.218095 
L 233.787926 225.558974 
L 234.875586 169.102916 
L 235.23814 167.563698 
L 235.600693 170.533424 
L 235.963247 180.263135 
L 236.688353 216.182324 
L 237.050907 218.828041 
L 237.41346 214.54039 
L 237.776014 225.480112 
L 238.501121 211.341091 
L 238.863674 212.295436 
L 239.226228 195.538961 
L 239.588781 202.83905 
L 239.951335 201.748521 
L 240.313888 217.627161 
L 240.676442 227.343297 
L 241.038995 221.015369 
L 241.401549 247.247173 
L 241.764102 250.196885 
L 242.126655 254.273984 
L 242.851762 202.290386 
L 243.214316 196.146383 
L 243.576869 179.180388 
L 243.939423 176.888409 
L 244.301976 186.327229 
L 244.66453 181.788495 
L 245.389637 218.737071 
L 245.75219 222.549572 
L 246.114744 228.947948 
L 246.477297 242.174489 
L 246.839851 214.054874 
L 247.202404 209.7117 
L 247.564957 210.903801 
L 247.927511 193.671993 
L 248.290064 196.67381 
L 248.652618 203.699067 
L 249.015171 223.052819 
L 249.377725 228.930649 
L 249.740278 246.354594 
L 250.465385 239.747582 
L 250.827939 232.061245 
L 251.190492 236.810982 
L 251.915599 192.984552 
L 252.278153 176.698695 
L 252.640706 177.917997 
L 253.00326 172.671098 
L 253.365813 182.250541 
L 253.728366 201.012474 
L 254.816027 214.580028 
L 255.17858 223.740694 
L 255.541134 216.562802 
L 256.628794 185.468827 
L 256.991348 185.494426 
L 257.353901 190.108412 
L 258.079008 224.761253 
L 258.441562 226.052655 
L 258.804115 222.558129 
L 259.166668 247.973077 
L 259.529222 241.455786 
L 260.254329 199.113668 
L 260.616882 191.341283 
L 260.979436 171.280099 
L 261.341989 165.509203 
L 261.704543 167.063425 
L 262.067096 183.202606 
L 262.42965 191.702634 
L 262.792203 178.61219 
L 263.154757 207.420677 
L 263.51731 214.99014 
L 263.879864 209.818716 
L 264.242417 209.295181 
L 264.60497 193.851745 
L 264.967524 185.242065 
L 265.330077 182.535276 
L 265.692631 181.175425 
L 266.055184 195.049705 
L 266.417738 192.166608 
L 267.142845 230.515816 
L 267.505398 229.941353 
L 267.867952 232.890758 
L 268.230505 219.059049 
L 268.593059 219.901951 
L 269.680719 162.284406 
L 270.043273 154.13969 
L 270.405826 156.857554 
L 271.85604 206.281816 
L 272.218593 202.683779 
L 272.581147 211.766262 
L 272.9437 206.410463 
L 273.306254 195.617683 
L 273.668807 177.86297 
L 274.031361 168.74932 
L 274.393914 176.276476 
L 274.756468 177.627225 
L 275.119021 199.493412 
L 275.481575 214.222406 
L 276.206681 213.291597 
L 276.569235 224.169095 
L 276.931788 231.632744 
L 277.656895 188.657255 
L 278.019449 180.245876 
L 278.382002 157.260482 
L 278.744556 150.336168 
L 279.107109 146.818659 
L 279.469663 225.980499 
L 279.832216 170.507901 
L 280.919877 217.024239 
L 281.28243 202.099745 
L 281.644983 203.049811 
L 282.007537 186.756923 
L 282.732644 180.803367 
L 283.095197 176.418493 
L 283.457751 179.831405 
L 284.182858 214.021685 
L 284.545411 214.672152 
L 284.907965 232.224487 
L 285.270518 239.818215 
L 285.995625 214.669263 
L 286.358179 199.504443 
L 286.720732 173.109454 
L 287.083286 166.383652 
L 287.445839 163.581475 
L 287.808392 152.450945 
L 288.170946 186.059355 
L 288.533499 179.140936 
L 288.896053 200.357367 
L 289.62116 224.653349 
L 289.983713 222.637296 
L 290.346267 213.378935 
L 290.70882 195.986106 
L 291.071374 193.430658 
L 291.433927 189.892419 
L 291.796481 187.660017 
L 292.159034 203.682828 
L 292.521588 201.885934 
L 292.884141 220.498663 
L 293.609248 244.481311 
L 293.971801 238.740807 
L 294.334355 237.776921 
L 294.696908 213.340522 
L 295.422015 190.361328 
L 295.784569 174.670408 
L 296.147122 173.376664 
L 296.509676 160.697717 
L 297.95989 221.590526 
L 298.322443 232.041739 
L 298.684996 228.336219 
L 299.410103 206.436576 
L 299.772657 200.85029 
L 300.13521 188.966572 
L 300.497764 203.425432 
L 300.860317 193.780119 
L 301.222871 217.183211 
L 301.947978 235.760151 
L 302.310531 250.372864 
L 302.673085 246.163026 
L 303.035638 244.139825 
L 303.760745 222.194598 
L 304.123299 196.463603 
L 304.848405 165.865295 
L 305.210959 172.142487 
L 305.936066 200.981504 
L 306.661173 224.945597 
L 307.023726 235.675671 
L 307.38628 226.970746 
L 307.748833 210.007572 
L 308.111387 214.847813 
L 308.47394 210.379679 
L 308.836494 197.466338 
L 309.199047 195.127563 
L 309.561601 206.813844 
L 309.924154 210.014248 
L 310.286707 234.261455 
L 310.649261 238.142107 
L 311.011814 239.187995 
L 311.374368 254.494152 
L 312.099475 233.117546 
L 312.824582 189.292643 
L 313.187135 184.572706 
L 313.549689 159.242056 
L 313.912242 175.386079 
L 314.274796 180.363467 
L 314.637349 190.496175 
L 314.999903 194.03311 
L 315.725009 230.860052 
L 316.087563 216.723083 
L 316.450116 208.393742 
L 316.81267 208.013942 
L 317.537777 193.469814 
L 317.90033 194.587283 
L 318.262884 200.34287 
L 318.625437 215.801079 
L 318.987991 221.270442 
L 319.350544 231.745677 
L 319.713098 237.38169 
L 320.075651 250.657778 
L 320.438205 228.943463 
L 320.800758 222.786301 
L 321.163311 208.313042 
L 321.525865 199.094738 
L 321.888418 169.101518 
L 322.250972 150.875231 
L 322.613525 168.557364 
L 322.976079 167.120486 
L 323.338632 194.674557 
L 323.701186 196.687819 
L 324.063739 209.055371 
L 324.426293 213.871046 
L 324.788846 215.645261 
L 325.1514 216.482475 
L 325.513953 194.741951 
L 325.876507 192.957655 
L 326.23906 254.820941 
L 326.601614 177.84587 
L 326.964167 180.68078 
L 327.32672 191.07088 
L 327.689274 212.324001 
L 328.051827 219.210379 
L 328.414381 217.678034 
L 328.776934 235.026684 
L 329.139488 228.220236 
L 329.502041 207.06408 
L 329.864595 204.748738 
L 330.227148 167.255154 
L 330.589702 165.842168 
L 330.952255 155.904982 
L 331.314809 159.173118 
L 332.039916 171.757662 
L 333.490129 217.227789 
L 333.852683 198.152512 
L 334.57779 177.4892 
L 334.940343 181.769451 
L 335.302897 173.238861 
L 335.66545 176.039238 
L 336.390557 211.787913 
L 337.115664 221.152806 
L 337.478218 230.680401 
L 337.840771 212.920313 
L 338.203324 207.250948 
L 338.928431 161.364829 
L 339.290985 167.422877 
L 339.653538 162.349855 
L 340.016092 150.662049 
L 341.103752 193.840934 
L 341.466306 183.769619 
L 341.828859 213.642533 
L 342.191413 220.76727 
L 342.553966 193.678753 
L 342.91652 181.174287 
L 343.279073 160.405574 
L 344.00418 143.205227 
L 344.366733 151.931503 
L 344.729287 174.387783 
L 345.09184 226.152643 
L 345.454394 234.074665 
L 346.179501 281.404336 
L 346.542054 280.907559 
L 346.904608 224.271016 
L 347.267161 200.760256 
L 347.629715 128.719815 
L 347.992268 120.331728 
L 348.354822 99.440298 
L 348.717375 149.197931 
L 349.079929 151.87269 
L 349.442482 152.238942 
L 349.805035 227.966717 
L 350.167589 213.479261 
L 350.892696 246.766418 
L 351.255249 195.004588 
L 351.617803 207.090229 
L 351.980356 170.707979 
L 352.34291 200.126696 
L 352.705463 140.853843 
L 353.068017 207.086227 
L 353.43057 235.199745 
L 353.793124 226.181725 
L 354.518231 303.642424 
L 355.243337 314.477113 
L 355.605891 259.812804 
L 355.968444 230.618826 
L 356.330998 181.357146 
L 356.693551 168.722603 
L 357.056105 149.70648 
L 357.418658 136.849542 
L 357.781212 154.161041 
L 358.143765 198.340235 
L 358.506319 215.778414 
L 358.868872 275.900866 
L 359.231426 274.183175 
L 359.593979 291.236305 
L 359.956533 220.673703 
L 360.319086 240.211853 
L 360.68164 197.387745 
L 361.044193 171.281688 
L 361.406746 201.90523 
L 361.7693 218.240476 
L 362.131853 241.938842 
L 362.494407 280.878509 
L 362.85696 298.612507 
L 363.582067 322.137211 
L 363.944621 309.552395 
L 364.307174 275.825242 
L 364.669728 223.947425 
L 365.757388 153.15117 
L 366.119942 156.358194 
L 366.482495 157.615301 
L 366.845048 199.841697 
L 367.207602 255.271672 
L 367.570155 277.300916 
L 367.932709 283.776276 
L 368.295262 283.673891 
L 368.657816 266.781549 
L 369.382923 197.846666 
L 370.10803 200.11905 
L 370.470583 213.911824 
L 371.19569 297.335148 
L 371.558244 305.20042 
L 371.920797 341.509564 
L 372.28335 333.318302 
L 372.645904 314.814662 
L 373.733564 194.473569 
L 374.096118 175.126364 
L 374.458671 142.921164 
L 374.821225 170.175101 
L 375.183778 173.824435 
L 376.271439 265.480492 
L 376.633992 279.773365 
L 376.996546 284.434388 
L 377.359099 66.96 
L 377.721652 227.76409 
L 378.446759 178.933119 
L 379.171866 206.454212 
L 379.896973 260.317395 
L 380.259527 321.372421 
L 380.62208 298.293751 
L 380.984634 305.395594 
L 381.347187 278.06559 
L 381.709741 279.069104 
L 382.072294 232.03178 
L 382.434848 167.649662 
L 382.797401 131.904108 
L 383.159955 119.212331 
L 383.885061 153.257333 
L 384.247615 190.802664 
L 384.610168 199.824823 
L 384.972722 235.708888 
L 385.335275 239.934216 
L 385.697829 238.771965 
L 386.060382 250.373982 
L 386.785489 175.38187 
L 387.148043 184.408852 
L 387.510596 200.861521 
L 387.87315 184.071763 
L 388.235703 212.292595 
L 388.598257 225.144825 
L 388.96081 289.853137 
L 389.323363 297.699751 
L 390.04847 267.882805 
L 390.411024 240.496982 
L 390.773577 199.019749 
L 391.136131 142.745617 
L 391.498684 124.173956 
L 391.861238 123.965592 
L 392.223791 133.202938 
L 392.586345 124.928828 
L 393.674005 223.331084 
L 394.036559 237.298347 
L 394.399112 241.191709 
L 394.761665 232.008378 
L 395.486772 172.729421 
L 395.849326 185.809487 
L 396.211879 176.753253 
L 396.574433 179.1018 
L 396.936986 194.769358 
L 397.29954 234.82623 
L 397.662093 261.187523 
L 398.024647 296.886085 
L 398.3872 298.470229 
L 398.749754 290.157795 
L 399.474861 183.376199 
L 399.837414 154.900835 
L 400.199968 148.060507 
L 400.562521 118.47595 
L 400.925074 137.968622 
L 401.287628 147.288094 
L 401.650181 152.969308 
L 402.012735 208.206183 
L 402.375288 221.392734 
L 403.100395 260.234353 
L 403.462949 216.995774 
L 403.825502 224.066579 
L 404.550609 165.805826 
L 404.913163 178.132067 
L 405.275716 196.935881 
L 406.363376 274.842814 
L 406.72593 321.852784 
L 407.088483 311.527684 
L 407.451037 260.96261 
L 407.81359 251.714761 
L 408.176144 248.086613 
L 408.538697 172.57137 
L 408.901251 166.196128 
L 409.263804 143.793262 
L 409.626358 103.693249 
L 409.988911 164.060901 
L 410.714018 227.991526 
L 411.076572 262.145892 
L 411.801678 256.391691 
L 412.164232 256.125447 
L 412.526785 253.251332 
L 413.251892 181.87531 
L 413.614446 226.240109 
L 413.976999 228.448371 
L 414.339553 237.726871 
L 414.702106 264.947798 
L 415.06466 304.213733 
L 415.427213 328.995066 
L 415.789767 336.343996 
L 416.15232 333.699061 
L 417.965087 149.029864 
L 418.327641 162.391699 
L 418.690194 202.912681 
L 419.415301 235.56545 
L 419.777855 260.011932 
L 420.140408 303.260438 
L 420.502962 318.117457 
L 420.865515 285.218588 
L 421.228069 276.524005 
L 421.590622 244.586498 
L 421.953176 233.589435 
L 422.315729 215.457038 
L 422.678283 231.35298 
L 423.040836 262.379363 
L 423.403389 279.741276 
L 424.128496 369.36 
L 424.49105 347.079999 
L 424.853603 333.937911 
L 425.216157 297.423492 
L 425.57871 295.717776 
L 425.941264 224.869582 
L 426.303817 197.861621 
L 427.028924 173.999479 
L 427.391478 215.787958 
L 427.754031 227.576597 
L 428.116585 275.351148 
L 428.841691 322.530696 
L 429.204245 298.040357 
L 429.566798 311.224206 
L 429.929352 260.529756 
L 430.291905 259.289446 
L 431.017012 227.330716 
L 431.379566 279.520193 
L 431.742119 271.230276 
L 432.104673 317.442612 
L 432.467226 339.936032 
L 432.82978 349.415104 
L 433.192333 321.63547 
L 433.554887 357.75215 
L 433.91744 333.491672 
L 434.279994 282.299562 
L 434.642547 208.817565 
L 435.0051 215.40152 
L 435.730207 182.976635 
L 436.092761 190.481713 
L 436.455314 217.186378 
L 437.180421 299.292738 
L 437.542975 293.210525 
L 437.905528 288.997858 
L 438.268082 316.750085 
L 438.630635 249.334649 
L 438.993189 238.259864 
L 439.355742 234.630184 
L 439.718296 228.733627 
L 440.080849 239.584773 
L 440.443402 262.450391 
L 440.805956 276.070498 
L 441.168509 335.787836 
L 441.531063 367.222898 
L 441.893616 335.763985 
L 442.25617 340.176613 
L 442.981277 251.75902 
L 443.34383 229.563519 
L 443.706384 163.15271 
L 444.068937 163.87475 
L 444.431491 189.650183 
L 444.794044 191.882021 
L 445.156598 237.705138 
L 446.244258 309.548735 
L 446.606811 289.235111 
L 446.969365 252.361335 
L 447.331918 270.151723 
L 447.694472 208.245574 
L 448.057025 204.56443 
L 448.419579 202.70534 
L 448.782132 218.164005 
L 449.144686 250.482577 
L 449.507239 253.23285 
L 449.869793 312.49906 
L 450.232346 320.638742 
L 450.5949 352.60513 
L 450.957453 275.654195 
L 451.68256 254.258406 
L 452.045113 229.277886 
L 452.407667 166.813618 
L 452.77022 142.049353 
L 453.132774 144.306214 
L 453.857881 210.723957 
L 454.220434 202.735779 
L 454.582988 253.523287 
L 454.945541 281.886932 
L 455.308095 258.254696 
L 455.670648 279.467322 
L 456.033202 214.743295 
L 456.395755 215.10014 
L 456.758309 190.756239 
L 457.120862 207.044985 
L 457.483415 202.185446 
L 457.845969 239.705998 
L 458.208522 237.716147 
L 458.571076 289.652672 
L 458.933629 286.585214 
L 459.296183 305.821097 
L 459.658736 309.468907 
L 461.471504 129.795022 
L 461.834057 148.871906 
L 462.196611 207.671552 
L 462.559164 182.880568 
L 462.921717 219.676663 
L 463.284271 278.063653 
L 463.646824 291.373803 
L 464.009378 270.16177 
L 464.371931 278.532534 
L 465.822145 207.579813 
L 466.184699 221.427549 
L 466.909806 276.901632 
L 467.272359 322.401145 
L 467.634913 325.409492 
L 467.997466 339.163787 
L 468.360019 299.237328 
L 468.722573 289.585035 
L 469.810233 180.782345 
L 470.172787 184.997052 
L 470.53534 183.008095 
L 470.897894 185.860895 
L 471.260447 198.64448 
L 471.623001 280.416878 
L 471.985554 308.050916 
L 472.348108 296.055476 
L 472.710661 328.955738 
L 473.073215 275.06717 
L 474.160875 236.419488 
L 474.523428 222.542881 
L 474.885982 237.335143 
L 475.248535 264.54905 
L 475.611089 302.050775 
L 475.973642 319.503652 
L 476.336196 361.937344 
L 476.698749 307.622859 
L 477.061303 303.123618 
L 477.423856 286.531408 
L 477.78641 280.87692 
L 478.148963 263.063279 
L 478.511517 237.220538 
L 478.87407 234.967154 
L 479.236624 242.007404 
L 479.599177 256.47973 
L 480.324284 272.794108 
L 481.049391 297.440333 
L 481.411944 293.657644 
L 481.774498 294.269184 
L 482.137051 277.158494 
L 482.499605 270.697288 
L 482.862158 260.636258 
L 483.224712 263.361059 
L 483.949819 277.692232 
L 484.312372 291.802541 
L 484.674926 323.964173 
L 485.400032 309.212641 
L 485.762586 315.234624 
L 486.487693 290.769307 
L 486.850246 262.530291 
L 487.2128 255.562629 
L 487.575353 242.237236 
L 487.937907 238.930476 
L 488.30046 254.357531 
L 488.663014 262.500715 
L 489.025567 282.952397 
L 489.388121 279.40463 
L 489.750674 287.168892 
L 490.113228 287.765629 
L 490.475781 282.446069 
L 490.838335 284.613567 
L 491.200888 261.944829 
L 491.563441 269.841081 
L 491.925995 258.850687 
L 492.651102 291.404617 
L 493.013655 292.300203 
L 493.376209 309.026155 
L 493.738762 318.791405 
L 494.101316 316.000237 
L 494.463869 304.579465 
L 494.826423 298.186288 
L 495.55153 256.101934 
L 495.914083 254.913627 
L 496.276637 239.213783 
L 496.63919 251.445649 
L 497.001743 251.825457 
L 497.364297 253.362539 
L 498.089404 294.251941 
L 498.451957 297.93676 
L 498.814511 291.44239 
L 499.177064 278.52902 
L 499.539618 274.670244 
L 499.902171 267.782814 
L 500.264725 334.81736 
L 500.627278 258.616319 
L 500.989832 267.846964 
L 501.352385 273.372287 
L 501.714939 274.575911 
L 502.440045 304.721513 
L 502.802599 310.84464 
L 503.165152 298.455465 
L 503.527706 291.388677 
L 504.252813 245.684814 
L 504.615366 236.389894 
L 504.97792 233.528647 
L 505.340473 231.682774 
L 505.703027 230.773165 
L 506.790687 281.817177 
L 507.153241 275.969336 
L 507.515794 272.854318 
L 507.878348 268.508026 
L 508.240901 269.28252 
L 508.603454 251.10347 
L 508.966008 250.534102 
L 509.328561 253.276562 
L 509.691115 240.081234 
L 510.053668 264.003616 
L 510.778775 275.809072 
L 511.141329 295.84555 
L 511.866436 282.752983 
L 512.228989 274.853616 
L 512.591543 250.086102 
L 512.954096 240.625957 
L 513.31665 220.542798 
L 513.679203 218.252679 
L 514.041756 220.905074 
L 514.40431 229.89 
L 515.129417 258.314577 
L 515.49197 272.095071 
L 515.854524 276.45218 
L 516.217077 273.641533 
L 516.579631 258.513956 
L 516.942184 258.434241 
L 517.304738 247.511801 
L 517.667291 240.153455 
L 518.029845 242.138226 
L 518.392398 243.494532 
L 518.754952 250.53047 
L 519.117505 261.675874 
L 519.480058 278.697282 
L 519.842612 284.744996 
L 520.205165 294.6252 
L 520.567719 288.980639 
L 520.930272 273.321794 
L 521.655379 231.531534 
L 522.017933 228.922724 
L 522.380486 215.410107 
L 522.74304 218.517494 
L 523.105593 223.614309 
L 523.468147 244.099561 
L 524.555807 283.140775 
L 524.91836 281.425949 
L 525.280914 267.923443 
L 526.006021 253.722707 
L 526.368574 252.78575 
L 526.731128 240.163938 
L 527.093681 242.10898 
L 527.456235 267.045489 
L 527.818788 281.14465 
L 528.181342 277.920012 
L 528.543895 303.427309 
L 528.906449 306.282542 
L 529.269002 291.375251 
L 529.631556 288.45328 
L 529.994109 262.91957 
L 530.356663 248.161905 
L 530.719216 157.364059 
L 531.081769 223.981018 
L 531.444323 229.168109 
L 532.531983 260.352168 
L 532.894537 281.94657 
L 533.25709 286.031047 
L 533.619644 280.641703 
L 533.982197 284.963077 
L 534.344751 266.375136 
L 534.707304 258.123939 
L 535.069858 258.876343 
L 535.432411 247.992478 
L 535.794965 247.944102 
L 536.157518 275.978322 
L 536.520071 277.434616 
L 536.882625 299.911998 
L 537.245178 312.49511 
L 537.607732 309.343559 
L 537.970285 307.871173 
L 538.332839 288.090345 
L 538.695392 284.188408 
L 539.057946 244.270019 
L 539.420499 227.144428 
L 539.783053 226.875855 
L 540.50816 250.217557 
L 540.870713 261.15131 
L 541.233267 276.771089 
L 541.59582 282.797841 
L 541.958373 299.054325 
L 542.320927 301.191515 
L 542.68348 288.172762 
L 543.046034 280.74441 
L 543.408587 265.000134 
L 543.771141 266.193813 
L 544.133694 265.692441 
L 544.496248 269.838534 
L 545.221355 286.056718 
L 545.583908 289.112814 
L 545.946462 290.815373 
L 546.309015 294.434128 
L 546.671569 291.934049 
L 547.396676 277.661308 
L 548.121782 258.143675 
L 548.484336 256.008477 
L 548.846889 248.96612 
L 549.209443 255.860803 
L 549.571996 267.507348 
L 549.93455 269.167773 
L 550.297103 285.835453 
L 550.659657 291.484748 
L 551.02221 280.728442 
L 551.384764 281.595505 
L 551.747317 270.387326 
L 552.472424 263.484243 
L 552.834978 262.989189 
L 553.197531 271.967696 
L 553.560084 276.870181 
L 553.922638 288.68423 
L 554.285191 286.951505 
L 555.010298 292.785563 
L 555.735405 275.928857 
L 556.097959 279.060445 
L 556.460512 260.991423 
L 556.823066 256.640053 
L 557.185619 258.236284 
L 557.548173 254.878854 
L 557.910726 258.597683 
L 558.27328 267.349636 
L 558.635833 271.496359 
L 558.998386 280.452725 
L 559.36094 283.114206 
L 559.723493 277.496017 
L 560.086047 274.091401 
L 560.4486 275.77326 
L 561.173707 262.383349 
L 561.536261 260.621725 
L 561.898814 260.784452 
L 562.261368 270.969356 
L 562.623921 277.424827 
L 562.986475 290.111334 
L 563.349028 284.057407 
L 563.711582 294.429003 
L 564.074135 292.276952 
L 564.436689 276.815028 
L 564.799242 267.239806 
L 565.161795 261.354024 
L 565.524349 248.108078 
L 565.886902 249.927577 
L 566.249456 243.664252 
L 566.612009 247.0822 
L 566.974563 261.004659 
L 567.337116 263.54231 
L 567.69967 276.547966 
L 568.062223 273.959998 
L 568.424777 277.248966 
L 568.78733 273.970588 
L 569.149884 274.827 
L 569.512437 261.071066 
L 570.237544 257.393893 
L 570.600097 253.665596 
L 570.962651 265.368641 
L 571.325204 267.961574 
L 571.687758 278.077739 
L 572.050311 283.926934 
L 572.412865 284.470276 
L 572.775418 273.478767 
L 573.137972 277.918996 
L 573.500525 260.029537 
L 573.863079 254.131257 
L 574.225632 245.019056 
L 574.588186 248.078391 
L 574.950739 245.245393 
L 575.313293 248.624846 
L 575.675846 254.629699 
L 576.038399 264.620912 
L 576.400953 261.483305 
L 576.763506 270.912251 
L 577.12606 269.42665 
L 577.851167 257.932599 
L 578.21372 262.711844 
L 578.576274 248.745688 
L 578.938827 250.395009 
L 579.301381 258.698436 
L 579.663934 263.54525 
L 580.026488 273.819931 
L 580.389041 274.794164 
L 580.751595 282.71129 
L 581.114148 281.876665 
L 581.476701 276.178477 
L 581.839255 272.653252 
L 582.201808 259.261925 
L 582.564362 255.271679 
L 583.289469 240.396565 
L 584.014576 246.344227 
L 584.377129 253.425717 
L 584.739683 266.905376 
L 585.102236 268.640753 
L 585.46479 274.364872 
L 585.827343 272.873861 
L 586.189897 270.47902 
L 586.55245 262.892926 
L 586.915004 262.123933 
L 587.277557 252.136682 
L 588.002664 256.220467 
L 588.365217 260.031226 
L 588.727771 268.61404 
L 589.090324 281.472712 
L 589.815431 283.751307 
L 590.177985 284.831381 
L 590.540538 279.922974 
L 591.265645 258.248783 
L 591.628199 255.173587 
L 591.990752 245.371005 
L 592.353306 246.055996 
L 593.078412 259.54693 
L 593.440966 269.511053 
L 594.166073 275.238911 
L 594.528626 279.047812 
L 594.89118 267.77375 
L 595.253733 269.539907 
L 595.616287 263.682802 
L 596.341394 261.458305 
L 596.703947 257.367283 
L 597.429054 276.32737 
L 597.791608 283.505972 
L 598.154161 287.884359 
L 598.516714 286.160602 
L 598.879268 281.492192 
L 599.241821 278.622169 
L 599.604375 274.578391 
L 599.966928 263.987569 
L 600.692035 248.948295 
L 601.054589 249.455905 
L 601.417142 255.766025 
L 601.779696 270.858736 
L 602.142249 272.919426 
L 602.504803 277.313474 
L 602.867356 279.184955 
L 603.22991 279.334642 
L 603.592463 274.207599 
L 603.955017 233.880075 
L 604.31757 268.984852 
L 604.680123 268.430198 
L 605.042677 266.562128 
L 605.40523 273.422954 
L 605.767784 274.200202 
L 606.492891 288.319143 
L 606.855444 293.18433 
L 607.217998 292.621774 
L 607.580551 289.167414 
L 607.943105 283.687007 
L 608.668212 263.756288 
L 609.030765 257.987326 
L 609.393319 260.330114 
L 609.755872 259.847984 
L 610.843532 271.261251 
L 611.206086 279.961208 
L 611.568639 283.49089 
L 611.931193 284.570395 
L 612.6563 273.203685 
L 613.018853 269.501354 
L 613.381407 268.433926 
L 613.74396 265.821914 
L 614.106514 269.789828 
L 614.831621 280.796729 
L 615.194174 291.318686 
L 615.556727 290.127987 
L 615.919281 295.711775 
L 616.281834 292.24337 
L 617.369495 265.166214 
L 618.094602 254.67589 
L 618.819709 265.434563 
L 619.182262 264.828163 
L 619.544816 281.735834 
L 619.907369 278.726783 
L 620.269923 283.578215 
L 620.632476 284.115827 
L 620.99503 281.282049 
L 621.357583 274.436892 
L 621.720136 270.103754 
L 622.08269 269.602923 
L 622.445243 265.074023 
L 623.532904 280.884924 
L 624.258011 295.856486 
L 624.620564 297.237586 
L 624.983118 294.715231 
L 625.345671 282.30877 
L 625.708225 281.56948 
L 626.433332 263.080972 
L 626.795885 258.460985 
L 627.158438 257.045846 
L 627.520992 263.25861 
L 627.883545 263.889915 
L 628.246099 277.260496 
L 628.608652 278.18112 
L 628.971206 286.59558 
L 629.333759 284.861122 
L 630.058866 272.512762 
L 630.42142 274.374862 
L 630.783973 262.946773 
L 631.146527 265.284036 
L 631.871634 271.855186 
L 632.234187 284.294783 
L 632.59674 289.698516 
L 632.959294 297.015174 
L 633.321847 294.223562 
L 634.409508 278.192024 
L 635.497168 253.712119 
L 636.584829 263.335869 
L 636.947382 273.302946 
L 637.672489 283.166173 
L 638.035043 277.877806 
L 638.397596 283.590847 
L 638.760149 277.198922 
L 639.122703 268.651607 
L 639.485256 267.669784 
L 639.84781 267.019203 
L 640.210363 272.686441 
L 640.572917 275.352227 
L 641.298024 294.501992 
L 641.660577 293.368104 
L 642.023131 291.58468 
L 642.385684 295.790924 
L 643.110791 275.551164 
L 643.473345 271.792825 
L 644.198451 254.463689 
L 644.561005 264.535062 
L 644.923558 265.132431 
L 645.286112 273.115684 
L 645.648665 283.58768 
L 646.011219 280.265396 
L 646.373772 291.520235 
L 646.736326 288.108803 
L 647.098879 281.540454 
L 647.461433 283.796475 
L 647.823986 277.324704 
L 648.18654 276.398478 
L 648.549093 277.600452 
L 648.911647 276.852301 
L 649.999307 298.390463 
L 650.724414 303.881072 
L 651.086967 300.641966 
L 651.812074 284.330099 
L 652.174628 276.651262 
L 652.537181 271.473738 
L 652.899735 268.651882 
L 653.262288 272.936415 
L 653.624842 272.740146 
L 654.349949 291.751019 
L 654.712502 294.529639 
L 655.075055 299.338183 
L 655.437609 300.749617 
L 655.800162 288.539431 
L 656.162716 293.352001 
L 656.525269 282.890593 
L 656.887823 281.210529 
L 657.250376 280.911361 
L 657.61293 286.73574 
L 657.975483 295.539949 
L 658.338037 297.293552 
L 658.70059 303.211927 
L 659.063144 312.944673 
L 659.425697 315.99142 
L 659.788251 314.497367 
L 660.875911 289.291299 
L 661.238464 283.000081 
L 661.601018 274.605384 
L 661.963571 275.798245 
L 662.326125 285.495153 
L 662.688678 288.061381 
L 663.051232 299.596147 
L 663.413785 304.503443 
L 663.776339 306.333943 
L 664.138892 302.086783 
L 664.501446 302.600817 
L 664.863999 303.813625 
L 665.226553 290.557233 
L 665.589106 296.230146 
L 665.95166 294.436979 
L 666.314213 293.618558 
L 667.03932 315.11243 
L 667.401873 314.090755 
L 667.764427 322.516199 
L 668.12698 320.131281 
L 668.489534 322.918402 
L 668.852087 311.059299 
L 669.214641 307.707091 
L 669.577194 295.151125 
L 670.302301 285.554182 
L 670.664855 293.376203 
L 671.389962 299.927832 
L 672.115068 315.775041 
L 672.477622 314.361587 
L 672.840175 310.683998 
L 673.202729 274.102903 
L 673.565282 302.601439 
L 673.927836 300.493189 
L 674.290389 300.293882 
L 674.652943 294.203878 
L 675.015496 302.449304 
L 675.37805 306.424962 
L 675.740603 313.994405 
L 676.103157 318.389546 
L 676.46571 319.595645 
L 676.828264 326.305513 
L 677.190817 325.651726 
L 677.553371 316.591563 
L 677.915924 302.985423 
L 678.278477 300.936991 
L 678.641031 294.547357 
L 679.003584 284.02148 
L 679.366138 290.953706 
L 679.728691 287.345371 
L 680.453798 311.200957 
L 680.816352 306.655518 
L 681.541459 317.687362 
L 681.904012 311.530019 
L 682.266566 300.965344 
L 682.629119 301.751673 
L 682.991673 289.586235 
L 683.354226 295.887161 
L 683.716779 299.655116 
L 684.441886 321.600951 
L 684.80444 318.695469 
L 685.166993 321.988296 
L 685.529547 322.985525 
L 685.8921 322.994506 
L 686.254654 318.161778 
L 686.979761 299.750125 
L 687.342314 285.982695 
L 687.704868 283.349056 
L 688.067421 289.483738 
L 688.429975 292.415974 
L 689.517635 313.32895 
L 689.880188 315.238591 
L 690.242742 316.137115 
L 690.605295 314.09235 
L 691.330402 303.212954 
L 691.692956 295.791208 
L 692.055509 300.349309 
L 692.418063 299.577373 
L 692.780616 299.427156 
L 693.14317 317.267192 
L 693.868277 323.081895 
L 694.23083 319.65452 
L 694.593384 318.757281 
L 694.955937 311.872677 
L 695.31849 301.558658 
L 695.681044 299.812565 
L 696.043597 290.150035 
L 696.406151 286.121786 
L 696.768704 287.271607 
L 697.856365 299.051026 
L 698.218918 313.538634 
L 698.581472 312.784977 
L 698.944025 322.856848 
L 699.669132 302.405117 
L 700.031686 299.76006 
L 700.394239 296.148155 
L 700.756792 300.963784 
L 701.119346 296.690014 
L 701.481899 304.058469 
L 701.844453 315.485605 
L 702.207006 317.209753 
L 702.932113 327.088996 
L 703.294667 321.083289 
L 703.65722 320.328052 
L 704.019774 305.713891 
L 704.382327 300.318653 
L 704.744881 291.010624 
L 705.107434 294.410504 
L 705.469988 295.146952 
L 706.195094 303.293669 
L 706.920201 322.237204 
L 707.282755 323.568408 
L 707.645308 316.278765 
L 708.007862 316.93006 
L 708.370415 308.553301 
L 708.732969 303.750489 
L 709.095522 308.03704 
L 709.458076 305.740977 
L 709.820629 308.309907 
L 710.183183 314.347618 
L 710.545736 325.430703 
L 710.90829 329.607253 
L 711.270843 327.587944 
L 711.633397 338.428917 
L 712.358503 318.651605 
L 712.721057 311.148656 
L 713.08361 311.668381 
L 713.446164 297.964405 
L 713.808717 299.372018 
L 714.171271 297.026667 
L 714.533824 304.881191 
L 714.896378 308.678005 
L 715.258931 318.812046 
L 715.621485 323.610512 
L 715.984038 364.271639 
L 716.346592 330.608984 
L 716.709145 329.901384 
L 717.071699 321.320602 
L 717.434252 321.466687 
L 717.796805 310.82048 
L 718.159359 318.513252 
L 718.521912 316.815737 
L 719.247019 332.354782 
L 719.609573 337.192568 
L 719.972126 345.471718 
L 720.33468 349.12729 
L 720.697233 338.966384 
L 721.42234 327.328525 
L 721.784894 315.466285 
L 722.147447 314.142866 
L 722.510001 308.475509 
L 722.872554 311.931798 
L 723.235107 309.285294 
L 723.597661 325.210681 
L 723.960214 324.988607 
L 724.322768 328.913767 
L 724.685321 335.267363 
L 725.047875 338.680828 
L 725.410428 331.523441 
L 725.772982 331.497328 
L 726.135535 326.339483 
L 726.498089 329.564752 
L 726.860642 318.69596 
L 727.223196 322.979552 
L 727.585749 333.454679 
L 727.948303 336.091002 
L 728.673409 352.276894 
L 729.035963 350.824547 
L 729.398516 344.496857 
L 729.76107 342.073097 
L 730.123623 335.057547 
L 730.486177 322.343826 
L 730.84873 320.297728 
L 731.211284 317.492509 
L 731.573837 313.660651 
L 732.298944 327.869868 
L 732.661498 332.943827 
L 733.024051 342.192242 
L 733.386605 344.800755 
L 733.749158 346.597932 
L 734.111712 344.462997 
L 734.474265 332.52495 
L 734.836818 330.959641 
L 735.199372 324.948159 
L 735.561925 324.594993 
L 735.924479 329.461228 
L 736.649586 345.165994 
L 737.012139 346.023882 
L 737.374693 356.040657 
L 737.737246 357.619614 
L 738.0998 353.961331 
L 738.462353 348.334072 
L 739.550014 319.53062 
L 739.912567 316.663721 
L 740.27512 312.704467 
L 740.637674 327.261176 
L 741.362781 332.068647 
L 741.725334 342.9968 
L 742.087888 344.023743 
L 742.450441 344.537808 
L 742.812995 340.411032 
L 743.175548 329.087965 
L 743.900655 332.691008 
L 744.263209 325.625456 
L 744.625762 333.928093 
L 744.988316 337.218112 
L 745.350869 343.042633 
L 745.713422 352.34516 
L 746.075976 353.268477 
L 746.438529 353.116178 
L 746.801083 352.455729 
L 747.163636 344.768695 
L 747.163636 344.768695 
" style="fill:none;stroke:#1f77b4;stroke-linecap:square;stroke-width:1.5;"/>
   </g>
   <g id="line2d_18">
    <path clip-path="url(#p35fbefb275)" d="M 745.713422 384.48 
L 745.713422 51.84 
" style="fill:none;stroke:#808080;stroke-linecap:square;"/>
   </g>
   <g id="patch_60">
    <path d="M 108 384.48 
L 108 51.84 
" style="fill:none;stroke:#000000;stroke-linecap:square;stroke-linejoin:miter;stroke-width:0.8;"/>
   </g>
   <g id="patch_61">
    <path d="M 777.6 384.48 
L 777.6 51.84 
" style="fill:none;stroke:#000000;stroke-linecap:square;stroke-linejoin:miter;stroke-width:0.8;"/>
   </g>
   <g id="patch_62">
    <path d="M 108 384.48 
L 777.6 384.48 
" style="fill:none;stroke:#000000;stroke-linecap:square;stroke-linejoin:miter;stroke-width:0.8;"/>
   </g>
   <g id="patch_63">
    <path d="M 108 51.84 
L 777.6 51.84 
" style="fill:none;stroke:#000000;stroke-linecap:square;stroke-linejoin:miter;stroke-width:0.8;"/>
   </g>
   <g id="text_19">
    <!-- A4Benchmark-TS48.csv -->
    <defs>
     <path d="M 34.1875 63.1875 
L 20.796875 26.90625 
L 47.609375 26.90625 
z
M 28.609375 72.90625 
L 39.796875 72.90625 
L 67.578125 0 
L 57.328125 0 
L 50.6875 18.703125 
L 17.828125 18.703125 
L 11.1875 0 
L 0.78125 0 
z
" id="DejaVuSans-65"/>
     <path d="M 37.796875 64.3125 
L 12.890625 25.390625 
L 37.796875 25.390625 
z
M 35.203125 72.90625 
L 47.609375 72.90625 
L 47.609375 25.390625 
L 58.015625 25.390625 
L 58.015625 17.1875 
L 47.609375 17.1875 
L 47.609375 0 
L 37.796875 0 
L 37.796875 17.1875 
L 4.890625 17.1875 
L 4.890625 26.703125 
z
" id="DejaVuSans-52"/>
     <path d="M 19.671875 34.8125 
L 19.671875 8.109375 
L 35.5 8.109375 
Q 43.453125 8.109375 47.28125 11.40625 
Q 51.125 14.703125 51.125 21.484375 
Q 51.125 28.328125 47.28125 31.5625 
Q 43.453125 34.8125 35.5 34.8125 
z
M 19.671875 64.796875 
L 19.671875 42.828125 
L 34.28125 42.828125 
Q 41.5 42.828125 45.03125 45.53125 
Q 48.578125 48.25 48.578125 53.8125 
Q 48.578125 59.328125 45.03125 62.0625 
Q 41.5 64.796875 34.28125 64.796875 
z
M 9.8125 72.90625 
L 35.015625 72.90625 
Q 46.296875 72.90625 52.390625 68.21875 
Q 58.5 63.53125 58.5 54.890625 
Q 58.5 48.1875 55.375 44.234375 
Q 52.25 40.28125 46.1875 39.3125 
Q 53.46875 37.75 57.5 32.78125 
Q 61.53125 27.828125 61.53125 20.40625 
Q 61.53125 10.640625 54.890625 5.3125 
Q 48.25 0 35.984375 0 
L 9.8125 0 
z
" id="DejaVuSans-66"/>
     <path d="M 54.890625 33.015625 
L 54.890625 0 
L 45.90625 0 
L 45.90625 32.71875 
Q 45.90625 40.484375 42.875 44.328125 
Q 39.84375 48.1875 33.796875 48.1875 
Q 26.515625 48.1875 22.3125 43.546875 
Q 18.109375 38.921875 18.109375 30.90625 
L 18.109375 0 
L 9.078125 0 
L 9.078125 54.6875 
L 18.109375 54.6875 
L 18.109375 46.1875 
Q 21.34375 51.125 25.703125 53.5625 
Q 30.078125 56 35.796875 56 
Q 45.21875 56 50.046875 50.171875 
Q 54.890625 44.34375 54.890625 33.015625 
z
" id="DejaVuSans-110"/>
     <path d="M 48.78125 52.59375 
L 48.78125 44.1875 
Q 44.96875 46.296875 41.140625 47.34375 
Q 37.3125 48.390625 33.40625 48.390625 
Q 24.65625 48.390625 19.8125 42.84375 
Q 14.984375 37.3125 14.984375 27.296875 
Q 14.984375 17.28125 19.8125 11.734375 
Q 24.65625 6.203125 33.40625 6.203125 
Q 37.3125 6.203125 41.140625 7.25 
Q 44.96875 8.296875 48.78125 10.40625 
L 48.78125 2.09375 
Q 45.015625 0.34375 40.984375 -0.53125 
Q 36.96875 -1.421875 32.421875 -1.421875 
Q 20.0625 -1.421875 12.78125 6.34375 
Q 5.515625 14.109375 5.515625 27.296875 
Q 5.515625 40.671875 12.859375 48.328125 
Q 20.21875 56 33.015625 56 
Q 37.15625 56 41.109375 55.140625 
Q 45.0625 54.296875 48.78125 52.59375 
z
" id="DejaVuSans-99"/>
     <path d="M 54.890625 33.015625 
L 54.890625 0 
L 45.90625 0 
L 45.90625 32.71875 
Q 45.90625 40.484375 42.875 44.328125 
Q 39.84375 48.1875 33.796875 48.1875 
Q 26.515625 48.1875 22.3125 43.546875 
Q 18.109375 38.921875 18.109375 30.90625 
L 18.109375 0 
L 9.078125 0 
L 9.078125 75.984375 
L 18.109375 75.984375 
L 18.109375 46.1875 
Q 21.34375 51.125 25.703125 53.5625 
Q 30.078125 56 35.796875 56 
Q 45.21875 56 50.046875 50.171875 
Q 54.890625 44.34375 54.890625 33.015625 
z
" id="DejaVuSans-104"/>
     <path d="M 41.109375 46.296875 
Q 39.59375 47.171875 37.8125 47.578125 
Q 36.03125 48 33.890625 48 
Q 26.265625 48 22.1875 43.046875 
Q 18.109375 38.09375 18.109375 28.8125 
L 18.109375 0 
L 9.078125 0 
L 9.078125 54.6875 
L 18.109375 54.6875 
L 18.109375 46.1875 
Q 20.953125 51.171875 25.484375 53.578125 
Q 30.03125 56 36.53125 56 
Q 37.453125 56 38.578125 55.875 
Q 39.703125 55.765625 41.0625 55.515625 
z
" id="DejaVuSans-114"/>
     <path d="M 9.078125 75.984375 
L 18.109375 75.984375 
L 18.109375 31.109375 
L 44.921875 54.6875 
L 56.390625 54.6875 
L 27.390625 29.109375 
L 57.625 0 
L 45.90625 0 
L 18.109375 26.703125 
L 18.109375 0 
L 9.078125 0 
z
" id="DejaVuSans-107"/>
     <path d="M 4.890625 31.390625 
L 31.203125 31.390625 
L 31.203125 23.390625 
L 4.890625 23.390625 
z
" id="DejaVuSans-45"/>
     <path d="M 53.515625 70.515625 
L 53.515625 60.890625 
Q 47.90625 63.578125 42.921875 64.890625 
Q 37.9375 66.21875 33.296875 66.21875 
Q 25.25 66.21875 20.875 63.09375 
Q 16.5 59.96875 16.5 54.203125 
Q 16.5 49.359375 19.40625 46.890625 
Q 22.3125 44.4375 30.421875 42.921875 
L 36.375 41.703125 
Q 47.40625 39.59375 52.65625 34.296875 
Q 57.90625 29 57.90625 20.125 
Q 57.90625 9.515625 50.796875 4.046875 
Q 43.703125 -1.421875 29.984375 -1.421875 
Q 24.8125 -1.421875 18.96875 -0.25 
Q 13.140625 0.921875 6.890625 3.21875 
L 6.890625 13.375 
Q 12.890625 10.015625 18.65625 8.296875 
Q 24.421875 6.59375 29.984375 6.59375 
Q 38.421875 6.59375 43.015625 9.90625 
Q 47.609375 13.234375 47.609375 19.390625 
Q 47.609375 24.75 44.3125 27.78125 
Q 41.015625 30.8125 33.5 32.328125 
L 27.484375 33.5 
Q 16.453125 35.6875 11.515625 40.375 
Q 6.59375 45.0625 6.59375 53.421875 
Q 6.59375 63.09375 13.40625 68.65625 
Q 20.21875 74.21875 32.171875 74.21875 
Q 37.3125 74.21875 42.625 73.28125 
Q 47.953125 72.359375 53.515625 70.515625 
z
" id="DejaVuSans-83"/>
     <path d="M 31.78125 34.625 
Q 24.75 34.625 20.71875 30.859375 
Q 16.703125 27.09375 16.703125 20.515625 
Q 16.703125 13.921875 20.71875 10.15625 
Q 24.75 6.390625 31.78125 6.390625 
Q 38.8125 6.390625 42.859375 10.171875 
Q 46.921875 13.96875 46.921875 20.515625 
Q 46.921875 27.09375 42.890625 30.859375 
Q 38.875 34.625 31.78125 34.625 
z
M 21.921875 38.8125 
Q 15.578125 40.375 12.03125 44.71875 
Q 8.5 49.078125 8.5 55.328125 
Q 8.5 64.0625 14.71875 69.140625 
Q 20.953125 74.21875 31.78125 74.21875 
Q 42.671875 74.21875 48.875 69.140625 
Q 55.078125 64.0625 55.078125 55.328125 
Q 55.078125 49.078125 51.53125 44.71875 
Q 48 40.375 41.703125 38.8125 
Q 48.828125 37.15625 52.796875 32.3125 
Q 56.78125 27.484375 56.78125 20.515625 
Q 56.78125 9.90625 50.3125 4.234375 
Q 43.84375 -1.421875 31.78125 -1.421875 
Q 19.734375 -1.421875 13.25 4.234375 
Q 6.78125 9.90625 6.78125 20.515625 
Q 6.78125 27.484375 10.78125 32.3125 
Q 14.796875 37.15625 21.921875 38.8125 
z
M 18.3125 54.390625 
Q 18.3125 48.734375 21.84375 45.5625 
Q 25.390625 42.390625 31.78125 42.390625 
Q 38.140625 42.390625 41.71875 45.5625 
Q 45.3125 48.734375 45.3125 54.390625 
Q 45.3125 60.0625 41.71875 63.234375 
Q 38.140625 66.40625 31.78125 66.40625 
Q 25.390625 66.40625 21.84375 63.234375 
Q 18.3125 60.0625 18.3125 54.390625 
z
" id="DejaVuSans-56"/>
     <path d="M 10.6875 12.40625 
L 21 12.40625 
L 21 0 
L 10.6875 0 
z
" id="DejaVuSans-46"/>
     <path d="M 2.984375 54.6875 
L 12.5 54.6875 
L 29.59375 8.796875 
L 46.6875 54.6875 
L 56.203125 54.6875 
L 35.6875 0 
L 23.484375 0 
z
" id="DejaVuSans-118"/>
    </defs>
    <g transform="translate(371.555625 45.84)scale(0.12 -0.12)">
     <use xlink:href="#DejaVuSans-65"/>
     <use x="68.408203" xlink:href="#DejaVuSans-52"/>
     <use x="132.03125" xlink:href="#DejaVuSans-66"/>
     <use x="200.634766" xlink:href="#DejaVuSans-101"/>
     <use x="262.158203" xlink:href="#DejaVuSans-110"/>
     <use x="325.537109" xlink:href="#DejaVuSans-99"/>
     <use x="380.517578" xlink:href="#DejaVuSans-104"/>
     <use x="443.896484" xlink:href="#DejaVuSans-109"/>
     <use x="541.308594" xlink:href="#DejaVuSans-97"/>
     <use x="602.587891" xlink:href="#DejaVuSans-114"/>
     <use x="643.701172" xlink:href="#DejaVuSans-107"/>
     <use x="701.611328" xlink:href="#DejaVuSans-45"/>
     <use x="737.554688" xlink:href="#DejaVuSans-84"/>
     <use x="798.638672" xlink:href="#DejaVuSans-83"/>
     <use x="862.115234" xlink:href="#DejaVuSans-52"/>
     <use x="925.738281" xlink:href="#DejaVuSans-56"/>
     <use x="989.361328" xlink:href="#DejaVuSans-46"/>
     <use x="1021.148438" xlink:href="#DejaVuSans-99"/>
     <use x="1076.128906" xlink:href="#DejaVuSans-115"/>
     <use x="1128.228516" xlink:href="#DejaVuSans-118"/>
    </g>
   </g>
   <g id="legend_1">
    <g id="patch_64">
     <path d="M 413.142188 74.518125 
L 472.457813 74.518125 
Q 474.457813 74.518125 474.457813 72.518125 
L 474.457813 58.84 
Q 474.457813 56.84 472.457813 56.84 
L 413.142188 56.84 
Q 411.142188 56.84 411.142188 58.84 
L 411.142188 72.518125 
Q 411.142188 74.518125 413.142188 74.518125 
z
" style="fill:#ffffff;opacity:0.8;stroke:#cccccc;stroke-linejoin:miter;"/>
    </g>
    <g id="line2d_19">
     <path d="M 415.142188 64.938438 
L 435.142188 64.938438 
" style="fill:none;stroke:#1f77b4;stroke-linecap:square;stroke-width:1.5;"/>
    </g>
    <g id="line2d_20"/>
    <g id="text_20">
     <!-- value -->
     <g transform="translate(443.142188 68.438438)scale(0.1 -0.1)">
      <use xlink:href="#DejaVuSans-118"/>
      <use x="59.179688" xlink:href="#DejaVuSans-97"/>
      <use x="120.458984" xlink:href="#DejaVuSans-108"/>
      <use x="148.242188" xlink:href="#DejaVuSans-117"/>
      <use x="211.621094" xlink:href="#DejaVuSans-101"/>
     </g>
    </g>
   </g>
  </g>
 </g>
 <defs>
  <clipPath id="p35fbefb275">
   <rect height="332.64" width="669.6" x="108" y="51.84"/>
  </clipPath>
 </defs>
</svg>
