<?xml version="1.0" encoding="utf-8" standalone="no"?>
<!DOCTYPE svg PUBLIC "-//W3C//DTD SVG 1.1//EN"
  "http://www.w3.org/Graphics/SVG/1.1/DTD/svg11.dtd">
<!-- Created with matplotlib (https://matplotlib.org/) -->
<svg height="432pt" version="1.1" viewBox="0 0 864 432" width="864pt" xmlns="http://www.w3.org/2000/svg" xmlns:xlink="http://www.w3.org/1999/xlink">
 <defs>
  <style type="text/css">
*{stroke-linecap:butt;stroke-linejoin:round;}
  </style>
 </defs>
 <g id="figure_1">
  <g id="patch_1">
   <path d="M 0 432 
L 864 432 
L 864 0 
L 0 0 
z
" style="fill:#ffffff;"/>
  </g>
  <g id="axes_1">
   <g id="patch_2">
    <path d="M 108 384.48 
L 777.6 384.48 
L 777.6 51.84 
L 108 51.84 
z
" style="fill:#ffffff;"/>
   </g>
   <g id="patch_3">
    <path clip-path="url(#p63bfe28e54)" d="M 138.436364 384.48 
L 138.436364 51.84 
L 374.096118 51.84 
L 374.096118 384.48 
z
" style="fill:#0000ff;opacity:0.05;"/>
   </g>
   <g id="patch_4">
    <path clip-path="url(#p63bfe28e54)" d="M 374.096118 384.48 
L 374.096118 51.84 
L 745.713422 51.84 
L 745.713422 384.48 
z
" style="fill:#ff0000;opacity:0.08;"/>
   </g>
   <g id="patch_5">
    <path clip-path="url(#p63bfe28e54)" d="M 138.436364 384.48 
L 138.436364 51.84 
L 147.5002 51.84 
L 147.5002 384.48 
z
" style="fill:#008000;opacity:0.04;"/>
   </g>
   <g id="patch_6">
    <path clip-path="url(#p63bfe28e54)" d="M 156.564037 384.48 
L 156.564037 51.84 
L 165.627874 51.84 
L 165.627874 384.48 
z
" style="fill:#008000;opacity:0.04;"/>
   </g>
   <g id="patch_7">
    <path clip-path="url(#p63bfe28e54)" d="M 156.564037 371.1744 
L 156.564037 51.84 
L 165.627874 51.84 
L 165.627874 371.1744 
z
" style="fill:#008000;opacity:0.5;"/>
   </g>
   <g id="patch_8">
    <path clip-path="url(#p63bfe28e54)" d="M 174.69171 384.48 
L 174.69171 51.84 
L 183.755547 51.84 
L 183.755547 384.48 
z
" style="fill:#008000;opacity:0.04;"/>
   </g>
   <g id="patch_9">
    <path clip-path="url(#p63bfe28e54)" d="M 192.819384 384.48 
L 192.819384 51.84 
L 201.883221 51.84 
L 201.883221 384.48 
z
" style="fill:#008000;opacity:0.04;"/>
   </g>
   <g id="patch_10">
    <path clip-path="url(#p63bfe28e54)" d="M 201.883221 371.1744 
L 201.883221 51.84 
L 210.947057 51.84 
L 210.947057 371.1744 
z
" style="fill:#008000;opacity:0.5;"/>
   </g>
   <g id="patch_11">
    <path clip-path="url(#p63bfe28e54)" d="M 201.883221 384.48 
L 201.883221 371.1744 
L 210.947057 371.1744 
L 210.947057 384.48 
z
" style="fill:#ffe500;"/>
   </g>
   <g id="patch_12">
    <path clip-path="url(#p63bfe28e54)" d="M 210.947057 384.48 
L 210.947057 51.84 
L 220.010894 51.84 
L 220.010894 384.48 
z
" style="fill:#008000;opacity:0.04;"/>
   </g>
   <g id="patch_13">
    <path clip-path="url(#p63bfe28e54)" d="M 229.074731 384.48 
L 229.074731 51.84 
L 238.138567 51.84 
L 238.138567 384.48 
z
" style="fill:#008000;opacity:0.04;"/>
   </g>
   <g id="patch_14">
    <path clip-path="url(#p63bfe28e54)" d="M 473.798322 384.48 
L 473.798322 371.1744 
L 482.862158 371.1744 
L 482.862158 384.48 
z
" style="fill:#ff6600;"/>
   </g>
   <g id="patch_15">
    <path clip-path="url(#p63bfe28e54)" d="M 247.202404 384.48 
L 247.202404 51.84 
L 256.266241 51.84 
L 256.266241 384.48 
z
" style="fill:#008000;opacity:0.04;"/>
   </g>
   <g id="patch_16">
    <path clip-path="url(#p63bfe28e54)" d="M 265.330077 384.48 
L 265.330077 51.84 
L 274.393914 51.84 
L 274.393914 384.48 
z
" style="fill:#008000;opacity:0.04;"/>
   </g>
   <g id="patch_17">
    <path clip-path="url(#p63bfe28e54)" d="M 265.330077 371.1744 
L 265.330077 51.84 
L 274.393914 51.84 
L 274.393914 371.1744 
z
" style="fill:#008000;opacity:0.5;"/>
   </g>
   <g id="patch_18">
    <path clip-path="url(#p63bfe28e54)" d="M 265.330077 384.48 
L 265.330077 371.1744 
L 274.393914 371.1744 
L 274.393914 384.48 
z
" style="fill:#ffe500;"/>
   </g>
   <g id="patch_19">
    <path clip-path="url(#p63bfe28e54)" d="M 283.457751 384.48 
L 283.457751 51.84 
L 292.521588 51.84 
L 292.521588 384.48 
z
" style="fill:#008000;opacity:0.04;"/>
   </g>
   <g id="patch_20">
    <path clip-path="url(#p63bfe28e54)" d="M 283.457751 371.1744 
L 283.457751 357.8688 
L 292.521588 357.8688 
L 292.521588 371.1744 
z
" style="fill:#ff00ff;"/>
   </g>
   <g id="patch_21">
    <path clip-path="url(#p63bfe28e54)" d="M 301.585424 384.48 
L 301.585424 51.84 
L 310.649261 51.84 
L 310.649261 384.48 
z
" style="fill:#008000;opacity:0.04;"/>
   </g>
   <g id="patch_22">
    <path clip-path="url(#p63bfe28e54)" d="M 319.713098 384.48 
L 319.713098 51.84 
L 328.776934 51.84 
L 328.776934 384.48 
z
" style="fill:#008000;opacity:0.04;"/>
   </g>
   <g id="patch_23">
    <path clip-path="url(#p63bfe28e54)" d="M 319.713098 371.1744 
L 319.713098 51.84 
L 328.776934 51.84 
L 328.776934 371.1744 
z
" style="fill:#008000;opacity:0.5;"/>
   </g>
   <g id="patch_24">
    <path clip-path="url(#p63bfe28e54)" d="M 337.840771 384.48 
L 337.840771 51.84 
L 346.904608 51.84 
L 346.904608 384.48 
z
" style="fill:#008000;opacity:0.04;"/>
   </g>
   <g id="patch_25">
    <path clip-path="url(#p63bfe28e54)" d="M 355.968444 384.48 
L 355.968444 51.84 
L 365.032281 51.84 
L 365.032281 384.48 
z
" style="fill:#008000;opacity:0.04;"/>
   </g>
   <g id="patch_26">
    <path clip-path="url(#p63bfe28e54)" d="M 374.096118 384.48 
L 374.096118 51.84 
L 383.159955 51.84 
L 383.159955 384.48 
z
" style="fill:#008000;opacity:0.04;"/>
   </g>
   <g id="patch_27">
    <path clip-path="url(#p63bfe28e54)" d="M 392.223791 384.48 
L 392.223791 51.84 
L 401.287628 51.84 
L 401.287628 384.48 
z
" style="fill:#008000;opacity:0.04;"/>
   </g>
   <g id="patch_28">
    <path clip-path="url(#p63bfe28e54)" d="M 410.351465 384.48 
L 410.351465 51.84 
L 419.415301 51.84 
L 419.415301 384.48 
z
" style="fill:#008000;opacity:0.04;"/>
   </g>
   <g id="patch_29">
    <path clip-path="url(#p63bfe28e54)" d="M 419.415301 371.1744 
L 419.415301 51.84 
L 428.479138 51.84 
L 428.479138 371.1744 
z
" style="fill:#008000;opacity:0.5;"/>
   </g>
   <g id="patch_30">
    <path clip-path="url(#p63bfe28e54)" d="M 428.479138 384.48 
L 428.479138 51.84 
L 437.542975 51.84 
L 437.542975 384.48 
z
" style="fill:#008000;opacity:0.04;"/>
   </g>
   <g id="patch_31">
    <path clip-path="url(#p63bfe28e54)" d="M 437.542975 371.1744 
L 437.542975 357.8688 
L 446.606811 357.8688 
L 446.606811 371.1744 
z
" style="fill:#ff00ff;"/>
   </g>
   <g id="patch_32">
    <path clip-path="url(#p63bfe28e54)" d="M 446.606811 384.48 
L 446.606811 51.84 
L 455.670648 51.84 
L 455.670648 384.48 
z
" style="fill:#008000;opacity:0.04;"/>
   </g>
   <g id="patch_33">
    <path clip-path="url(#p63bfe28e54)" d="M 464.734485 384.48 
L 464.734485 51.84 
L 473.798322 51.84 
L 473.798322 384.48 
z
" style="fill:#008000;opacity:0.04;"/>
   </g>
   <g id="patch_34">
    <path clip-path="url(#p63bfe28e54)" d="M 473.798322 371.1744 
L 473.798322 51.84 
L 482.862158 51.84 
L 482.862158 371.1744 
z
" style="fill:#008000;opacity:0.5;"/>
   </g>
   <g id="patch_35">
    <path clip-path="url(#p63bfe28e54)" d="M 482.862158 384.48 
L 482.862158 51.84 
L 491.925995 51.84 
L 491.925995 384.48 
z
" style="fill:#008000;opacity:0.04;"/>
   </g>
   <g id="patch_36">
    <path clip-path="url(#p63bfe28e54)" d="M 500.989832 384.48 
L 500.989832 51.84 
L 510.053668 51.84 
L 510.053668 384.48 
z
" style="fill:#008000;opacity:0.04;"/>
   </g>
   <g id="patch_37">
    <path clip-path="url(#p63bfe28e54)" d="M 519.117505 384.48 
L 519.117505 51.84 
L 528.181342 51.84 
L 528.181342 384.48 
z
" style="fill:#008000;opacity:0.04;"/>
   </g>
   <g id="patch_38">
    <path clip-path="url(#p63bfe28e54)" d="M 537.245178 384.48 
L 537.245178 51.84 
L 546.309015 51.84 
L 546.309015 384.48 
z
" style="fill:#008000;opacity:0.04;"/>
   </g>
   <g id="patch_39">
    <path clip-path="url(#p63bfe28e54)" d="M 555.372852 384.48 
L 555.372852 51.84 
L 564.436689 51.84 
L 564.436689 384.48 
z
" style="fill:#008000;opacity:0.04;"/>
   </g>
   <g id="patch_40">
    <path clip-path="url(#p63bfe28e54)" d="M 573.500525 384.48 
L 573.500525 51.84 
L 582.564362 51.84 
L 582.564362 384.48 
z
" style="fill:#008000;opacity:0.04;"/>
   </g>
   <g id="patch_41">
    <path clip-path="url(#p63bfe28e54)" d="M 591.628199 384.48 
L 591.628199 51.84 
L 600.692035 51.84 
L 600.692035 384.48 
z
" style="fill:#008000;opacity:0.04;"/>
   </g>
   <g id="patch_42">
    <path clip-path="url(#p63bfe28e54)" d="M 591.628199 371.1744 
L 591.628199 357.8688 
L 600.692035 357.8688 
L 600.692035 371.1744 
z
" style="fill:#ff00ff;"/>
   </g>
   <g id="patch_43">
    <path clip-path="url(#p63bfe28e54)" d="M 609.755872 384.48 
L 609.755872 51.84 
L 618.819709 51.84 
L 618.819709 384.48 
z
" style="fill:#008000;opacity:0.04;"/>
   </g>
   <g id="patch_44">
    <path clip-path="url(#p63bfe28e54)" d="M 627.883545 384.48 
L 627.883545 51.84 
L 636.947382 51.84 
L 636.947382 384.48 
z
" style="fill:#008000;opacity:0.04;"/>
   </g>
   <g id="patch_45">
    <path clip-path="url(#p63bfe28e54)" d="M 646.011219 384.48 
L 646.011219 51.84 
L 655.075055 51.84 
L 655.075055 384.48 
z
" style="fill:#008000;opacity:0.04;"/>
   </g>
   <g id="patch_46">
    <path clip-path="url(#p63bfe28e54)" d="M 664.138892 384.48 
L 664.138892 51.84 
L 673.202729 51.84 
L 673.202729 384.48 
z
" style="fill:#008000;opacity:0.04;"/>
   </g>
   <g id="patch_47">
    <path clip-path="url(#p63bfe28e54)" d="M 682.266566 384.48 
L 682.266566 51.84 
L 691.330402 51.84 
L 691.330402 384.48 
z
" style="fill:#008000;opacity:0.04;"/>
   </g>
   <g id="patch_48">
    <path clip-path="url(#p63bfe28e54)" d="M 700.394239 384.48 
L 700.394239 51.84 
L 709.458076 51.84 
L 709.458076 384.48 
z
" style="fill:#008000;opacity:0.04;"/>
   </g>
   <g id="patch_49">
    <path clip-path="url(#p63bfe28e54)" d="M 709.458076 371.1744 
L 709.458076 51.84 
L 718.521912 51.84 
L 718.521912 371.1744 
z
" style="fill:#008000;opacity:0.5;"/>
   </g>
   <g id="patch_50">
    <path clip-path="url(#p63bfe28e54)" d="M 718.521912 384.48 
L 718.521912 51.84 
L 727.585749 51.84 
L 727.585749 384.48 
z
" style="fill:#008000;opacity:0.04;"/>
   </g>
   <g id="patch_51">
    <path clip-path="url(#p63bfe28e54)" d="M 727.585749 371.1744 
L 727.585749 51.84 
L 736.649586 51.84 
L 736.649586 371.1744 
z
" style="fill:#008000;opacity:0.5;"/>
   </g>
   <g id="patch_52">
    <path clip-path="url(#p63bfe28e54)" d="M 736.649586 384.48 
L 736.649586 51.84 
L 745.713422 51.84 
L 745.713422 384.48 
z
" style="fill:#008000;opacity:0.04;"/>
   </g>
   <g id="patch_53">
    <path clip-path="url(#p63bfe28e54)" d="M 736.649586 371.1744 
L 736.649586 51.84 
L 745.713422 51.84 
L 745.713422 371.1744 
z
" style="fill:#008000;opacity:0.5;"/>
   </g>
   <g id="matplotlib.axis_1">
    <g id="xtick_1">
     <g id="line2d_1">
      <defs>
       <path d="M 0 0 
L 0 3.5 
" id="m4f6707c844" style="stroke:#000000;stroke-width:0.8;"/>
      </defs>
      <g>
       <use style="stroke:#000000;stroke-width:0.8;" x="138.436364" xlink:href="#m4f6707c844" y="384.48"/>
      </g>
     </g>
     <g id="text_1">
      <!-- 0 -->
      <defs>
       <path d="M 31.78125 66.40625 
Q 24.171875 66.40625 20.328125 58.90625 
Q 16.5 51.421875 16.5 36.375 
Q 16.5 21.390625 20.328125 13.890625 
Q 24.171875 6.390625 31.78125 6.390625 
Q 39.453125 6.390625 43.28125 13.890625 
Q 47.125 21.390625 47.125 36.375 
Q 47.125 51.421875 43.28125 58.90625 
Q 39.453125 66.40625 31.78125 66.40625 
z
M 31.78125 74.21875 
Q 44.046875 74.21875 50.515625 64.515625 
Q 56.984375 54.828125 56.984375 36.375 
Q 56.984375 17.96875 50.515625 8.265625 
Q 44.046875 -1.421875 31.78125 -1.421875 
Q 19.53125 -1.421875 13.0625 8.265625 
Q 6.59375 17.96875 6.59375 36.375 
Q 6.59375 54.828125 13.0625 64.515625 
Q 19.53125 74.21875 31.78125 74.21875 
z
" id="DejaVuSans-48"/>
      </defs>
      <g transform="translate(135.255114 399.078438)scale(0.1 -0.1)">
       <use xlink:href="#DejaVuSans-48"/>
      </g>
     </g>
    </g>
    <g id="xtick_2">
     <g id="line2d_2">
      <g>
       <use style="stroke:#000000;stroke-width:0.8;" x="229.074731" xlink:href="#m4f6707c844" y="384.48"/>
      </g>
     </g>
     <g id="text_2">
      <!-- 250 -->
      <defs>
       <path d="M 19.1875 8.296875 
L 53.609375 8.296875 
L 53.609375 0 
L 7.328125 0 
L 7.328125 8.296875 
Q 12.9375 14.109375 22.625 23.890625 
Q 32.328125 33.6875 34.8125 36.53125 
Q 39.546875 41.84375 41.421875 45.53125 
Q 43.3125 49.21875 43.3125 52.78125 
Q 43.3125 58.59375 39.234375 62.25 
Q 35.15625 65.921875 28.609375 65.921875 
Q 23.96875 65.921875 18.8125 64.3125 
Q 13.671875 62.703125 7.8125 59.421875 
L 7.8125 69.390625 
Q 13.765625 71.78125 18.9375 73 
Q 24.125 74.21875 28.421875 74.21875 
Q 39.75 74.21875 46.484375 68.546875 
Q 53.21875 62.890625 53.21875 53.421875 
Q 53.21875 48.921875 51.53125 44.890625 
Q 49.859375 40.875 45.40625 35.40625 
Q 44.1875 33.984375 37.640625 27.21875 
Q 31.109375 20.453125 19.1875 8.296875 
z
" id="DejaVuSans-50"/>
       <path d="M 10.796875 72.90625 
L 49.515625 72.90625 
L 49.515625 64.59375 
L 19.828125 64.59375 
L 19.828125 46.734375 
Q 21.96875 47.46875 24.109375 47.828125 
Q 26.265625 48.1875 28.421875 48.1875 
Q 40.625 48.1875 47.75 41.5 
Q 54.890625 34.8125 54.890625 23.390625 
Q 54.890625 11.625 47.5625 5.09375 
Q 40.234375 -1.421875 26.90625 -1.421875 
Q 22.3125 -1.421875 17.546875 -0.640625 
Q 12.796875 0.140625 7.71875 1.703125 
L 7.71875 11.625 
Q 12.109375 9.234375 16.796875 8.0625 
Q 21.484375 6.890625 26.703125 6.890625 
Q 35.15625 6.890625 40.078125 11.328125 
Q 45.015625 15.765625 45.015625 23.390625 
Q 45.015625 31 40.078125 35.4375 
Q 35.15625 39.890625 26.703125 39.890625 
Q 22.75 39.890625 18.8125 39.015625 
Q 14.890625 38.140625 10.796875 36.28125 
z
" id="DejaVuSans-53"/>
      </defs>
      <g transform="translate(219.530981 399.078438)scale(0.1 -0.1)">
       <use xlink:href="#DejaVuSans-50"/>
       <use x="63.623047" xlink:href="#DejaVuSans-53"/>
       <use x="127.246094" xlink:href="#DejaVuSans-48"/>
      </g>
     </g>
    </g>
    <g id="xtick_3">
     <g id="line2d_3">
      <g>
       <use style="stroke:#000000;stroke-width:0.8;" x="319.713098" xlink:href="#m4f6707c844" y="384.48"/>
      </g>
     </g>
     <g id="text_3">
      <!-- 500 -->
      <g transform="translate(310.169348 399.078438)scale(0.1 -0.1)">
       <use xlink:href="#DejaVuSans-53"/>
       <use x="63.623047" xlink:href="#DejaVuSans-48"/>
       <use x="127.246094" xlink:href="#DejaVuSans-48"/>
      </g>
     </g>
    </g>
    <g id="xtick_4">
     <g id="line2d_4">
      <g>
       <use style="stroke:#000000;stroke-width:0.8;" x="410.351465" xlink:href="#m4f6707c844" y="384.48"/>
      </g>
     </g>
     <g id="text_4">
      <!-- 750 -->
      <defs>
       <path d="M 8.203125 72.90625 
L 55.078125 72.90625 
L 55.078125 68.703125 
L 28.609375 0 
L 18.3125 0 
L 43.21875 64.59375 
L 8.203125 64.59375 
z
" id="DejaVuSans-55"/>
      </defs>
      <g transform="translate(400.807715 399.078438)scale(0.1 -0.1)">
       <use xlink:href="#DejaVuSans-55"/>
       <use x="63.623047" xlink:href="#DejaVuSans-53"/>
       <use x="127.246094" xlink:href="#DejaVuSans-48"/>
      </g>
     </g>
    </g>
    <g id="xtick_5">
     <g id="line2d_5">
      <g>
       <use style="stroke:#000000;stroke-width:0.8;" x="500.989832" xlink:href="#m4f6707c844" y="384.48"/>
      </g>
     </g>
     <g id="text_5">
      <!-- 1000 -->
      <defs>
       <path d="M 12.40625 8.296875 
L 28.515625 8.296875 
L 28.515625 63.921875 
L 10.984375 60.40625 
L 10.984375 69.390625 
L 28.421875 72.90625 
L 38.28125 72.90625 
L 38.28125 8.296875 
L 54.390625 8.296875 
L 54.390625 0 
L 12.40625 0 
z
" id="DejaVuSans-49"/>
      </defs>
      <g transform="translate(488.264832 399.078438)scale(0.1 -0.1)">
       <use xlink:href="#DejaVuSans-49"/>
       <use x="63.623047" xlink:href="#DejaVuSans-48"/>
       <use x="127.246094" xlink:href="#DejaVuSans-48"/>
       <use x="190.869141" xlink:href="#DejaVuSans-48"/>
      </g>
     </g>
    </g>
    <g id="xtick_6">
     <g id="line2d_6">
      <g>
       <use style="stroke:#000000;stroke-width:0.8;" x="591.628199" xlink:href="#m4f6707c844" y="384.48"/>
      </g>
     </g>
     <g id="text_6">
      <!-- 1250 -->
      <g transform="translate(578.903199 399.078438)scale(0.1 -0.1)">
       <use xlink:href="#DejaVuSans-49"/>
       <use x="63.623047" xlink:href="#DejaVuSans-50"/>
       <use x="127.246094" xlink:href="#DejaVuSans-53"/>
       <use x="190.869141" xlink:href="#DejaVuSans-48"/>
      </g>
     </g>
    </g>
    <g id="xtick_7">
     <g id="line2d_7">
      <g>
       <use style="stroke:#000000;stroke-width:0.8;" x="682.266566" xlink:href="#m4f6707c844" y="384.48"/>
      </g>
     </g>
     <g id="text_7">
      <!-- 1500 -->
      <g transform="translate(669.541566 399.078438)scale(0.1 -0.1)">
       <use xlink:href="#DejaVuSans-49"/>
       <use x="63.623047" xlink:href="#DejaVuSans-53"/>
       <use x="127.246094" xlink:href="#DejaVuSans-48"/>
       <use x="190.869141" xlink:href="#DejaVuSans-48"/>
      </g>
     </g>
    </g>
    <g id="xtick_8">
     <g id="line2d_8">
      <g>
       <use style="stroke:#000000;stroke-width:0.8;" x="772.904933" xlink:href="#m4f6707c844" y="384.48"/>
      </g>
     </g>
     <g id="text_8">
      <!-- 1750 -->
      <g transform="translate(760.179933 399.078438)scale(0.1 -0.1)">
       <use xlink:href="#DejaVuSans-49"/>
       <use x="63.623047" xlink:href="#DejaVuSans-55"/>
       <use x="127.246094" xlink:href="#DejaVuSans-53"/>
       <use x="190.869141" xlink:href="#DejaVuSans-48"/>
      </g>
     </g>
    </g>
    <g id="text_9">
     <!-- Timestamp -->
     <defs>
      <path d="M -0.296875 72.90625 
L 61.375 72.90625 
L 61.375 64.59375 
L 35.5 64.59375 
L 35.5 0 
L 25.59375 0 
L 25.59375 64.59375 
L -0.296875 64.59375 
z
" id="DejaVuSans-84"/>
      <path d="M 9.421875 54.6875 
L 18.40625 54.6875 
L 18.40625 0 
L 9.421875 0 
z
M 9.421875 75.984375 
L 18.40625 75.984375 
L 18.40625 64.59375 
L 9.421875 64.59375 
z
" id="DejaVuSans-105"/>
      <path d="M 52 44.1875 
Q 55.375 50.25 60.0625 53.125 
Q 64.75 56 71.09375 56 
Q 79.640625 56 84.28125 50.015625 
Q 88.921875 44.046875 88.921875 33.015625 
L 88.921875 0 
L 79.890625 0 
L 79.890625 32.71875 
Q 79.890625 40.578125 77.09375 44.375 
Q 74.3125 48.1875 68.609375 48.1875 
Q 61.625 48.1875 57.5625 43.546875 
Q 53.515625 38.921875 53.515625 30.90625 
L 53.515625 0 
L 44.484375 0 
L 44.484375 32.71875 
Q 44.484375 40.625 41.703125 44.40625 
Q 38.921875 48.1875 33.109375 48.1875 
Q 26.21875 48.1875 22.15625 43.53125 
Q 18.109375 38.875 18.109375 30.90625 
L 18.109375 0 
L 9.078125 0 
L 9.078125 54.6875 
L 18.109375 54.6875 
L 18.109375 46.1875 
Q 21.1875 51.21875 25.484375 53.609375 
Q 29.78125 56 35.6875 56 
Q 41.65625 56 45.828125 52.96875 
Q 50 49.953125 52 44.1875 
z
" id="DejaVuSans-109"/>
      <path d="M 56.203125 29.59375 
L 56.203125 25.203125 
L 14.890625 25.203125 
Q 15.484375 15.921875 20.484375 11.0625 
Q 25.484375 6.203125 34.421875 6.203125 
Q 39.59375 6.203125 44.453125 7.46875 
Q 49.3125 8.734375 54.109375 11.28125 
L 54.109375 2.78125 
Q 49.265625 0.734375 44.1875 -0.34375 
Q 39.109375 -1.421875 33.890625 -1.421875 
Q 20.796875 -1.421875 13.15625 6.1875 
Q 5.515625 13.8125 5.515625 26.8125 
Q 5.515625 40.234375 12.765625 48.109375 
Q 20.015625 56 32.328125 56 
Q 43.359375 56 49.78125 48.890625 
Q 56.203125 41.796875 56.203125 29.59375 
z
M 47.21875 32.234375 
Q 47.125 39.59375 43.09375 43.984375 
Q 39.0625 48.390625 32.421875 48.390625 
Q 24.90625 48.390625 20.390625 44.140625 
Q 15.875 39.890625 15.1875 32.171875 
z
" id="DejaVuSans-101"/>
      <path d="M 44.28125 53.078125 
L 44.28125 44.578125 
Q 40.484375 46.53125 36.375 47.5 
Q 32.28125 48.484375 27.875 48.484375 
Q 21.1875 48.484375 17.84375 46.4375 
Q 14.5 44.390625 14.5 40.28125 
Q 14.5 37.15625 16.890625 35.375 
Q 19.28125 33.59375 26.515625 31.984375 
L 29.59375 31.296875 
Q 39.15625 29.25 43.1875 25.515625 
Q 47.21875 21.78125 47.21875 15.09375 
Q 47.21875 7.46875 41.1875 3.015625 
Q 35.15625 -1.421875 24.609375 -1.421875 
Q 20.21875 -1.421875 15.453125 -0.5625 
Q 10.6875 0.296875 5.421875 2 
L 5.421875 11.28125 
Q 10.40625 8.6875 15.234375 7.390625 
Q 20.0625 6.109375 24.8125 6.109375 
Q 31.15625 6.109375 34.5625 8.28125 
Q 37.984375 10.453125 37.984375 14.40625 
Q 37.984375 18.0625 35.515625 20.015625 
Q 33.0625 21.96875 24.703125 23.78125 
L 21.578125 24.515625 
Q 13.234375 26.265625 9.515625 29.90625 
Q 5.8125 33.546875 5.8125 39.890625 
Q 5.8125 47.609375 11.28125 51.796875 
Q 16.75 56 26.8125 56 
Q 31.78125 56 36.171875 55.265625 
Q 40.578125 54.546875 44.28125 53.078125 
z
" id="DejaVuSans-115"/>
      <path d="M 18.3125 70.21875 
L 18.3125 54.6875 
L 36.8125 54.6875 
L 36.8125 47.703125 
L 18.3125 47.703125 
L 18.3125 18.015625 
Q 18.3125 11.328125 20.140625 9.421875 
Q 21.96875 7.515625 27.59375 7.515625 
L 36.8125 7.515625 
L 36.8125 0 
L 27.59375 0 
Q 17.1875 0 13.234375 3.875 
Q 9.28125 7.765625 9.28125 18.015625 
L 9.28125 47.703125 
L 2.6875 47.703125 
L 2.6875 54.6875 
L 9.28125 54.6875 
L 9.28125 70.21875 
z
" id="DejaVuSans-116"/>
      <path d="M 34.28125 27.484375 
Q 23.390625 27.484375 19.1875 25 
Q 14.984375 22.515625 14.984375 16.5 
Q 14.984375 11.71875 18.140625 8.90625 
Q 21.296875 6.109375 26.703125 6.109375 
Q 34.1875 6.109375 38.703125 11.40625 
Q 43.21875 16.703125 43.21875 25.484375 
L 43.21875 27.484375 
z
M 52.203125 31.203125 
L 52.203125 0 
L 43.21875 0 
L 43.21875 8.296875 
Q 40.140625 3.328125 35.546875 0.953125 
Q 30.953125 -1.421875 24.3125 -1.421875 
Q 15.921875 -1.421875 10.953125 3.296875 
Q 6 8.015625 6 15.921875 
Q 6 25.140625 12.171875 29.828125 
Q 18.359375 34.515625 30.609375 34.515625 
L 43.21875 34.515625 
L 43.21875 35.40625 
Q 43.21875 41.609375 39.140625 45 
Q 35.0625 48.390625 27.6875 48.390625 
Q 23 48.390625 18.546875 47.265625 
Q 14.109375 46.140625 10.015625 43.890625 
L 10.015625 52.203125 
Q 14.9375 54.109375 19.578125 55.046875 
Q 24.21875 56 28.609375 56 
Q 40.484375 56 46.34375 49.84375 
Q 52.203125 43.703125 52.203125 31.203125 
z
" id="DejaVuSans-97"/>
      <path d="M 18.109375 8.203125 
L 18.109375 -20.796875 
L 9.078125 -20.796875 
L 9.078125 54.6875 
L 18.109375 54.6875 
L 18.109375 46.390625 
Q 20.953125 51.265625 25.265625 53.625 
Q 29.59375 56 35.59375 56 
Q 45.5625 56 51.78125 48.09375 
Q 58.015625 40.1875 58.015625 27.296875 
Q 58.015625 14.40625 51.78125 6.484375 
Q 45.5625 -1.421875 35.59375 -1.421875 
Q 29.59375 -1.421875 25.265625 0.953125 
Q 20.953125 3.328125 18.109375 8.203125 
z
M 48.6875 27.296875 
Q 48.6875 37.203125 44.609375 42.84375 
Q 40.53125 48.484375 33.40625 48.484375 
Q 26.265625 48.484375 22.1875 42.84375 
Q 18.109375 37.203125 18.109375 27.296875 
Q 18.109375 17.390625 22.1875 11.75 
Q 26.265625 6.109375 33.40625 6.109375 
Q 40.53125 6.109375 44.609375 11.75 
Q 48.6875 17.390625 48.6875 27.296875 
z
" id="DejaVuSans-112"/>
     </defs>
     <g transform="translate(414.739062 412.756563)scale(0.1 -0.1)">
      <use xlink:href="#DejaVuSans-84"/>
      <use x="61.037109" xlink:href="#DejaVuSans-105"/>
      <use x="88.820312" xlink:href="#DejaVuSans-109"/>
      <use x="186.232422" xlink:href="#DejaVuSans-101"/>
      <use x="247.755859" xlink:href="#DejaVuSans-115"/>
      <use x="299.855469" xlink:href="#DejaVuSans-116"/>
      <use x="339.064453" xlink:href="#DejaVuSans-97"/>
      <use x="400.34375" xlink:href="#DejaVuSans-109"/>
      <use x="497.755859" xlink:href="#DejaVuSans-112"/>
     </g>
    </g>
   </g>
   <g id="matplotlib.axis_2">
    <g id="ytick_1">
     <g id="line2d_9">
      <defs>
       <path d="M 0 0 
L -3.5 0 
" id="mc3280b9a69" style="stroke:#000000;stroke-width:0.8;"/>
      </defs>
      <g>
       <use style="stroke:#000000;stroke-width:0.8;" x="108" xlink:href="#mc3280b9a69" y="344.37648"/>
      </g>
     </g>
     <g id="text_10">
      <!-- −2000 -->
      <defs>
       <path d="M 10.59375 35.5 
L 73.1875 35.5 
L 73.1875 27.203125 
L 10.59375 27.203125 
z
" id="DejaVuSans-8722"/>
      </defs>
      <g transform="translate(67.170312 348.175699)scale(0.1 -0.1)">
       <use xlink:href="#DejaVuSans-8722"/>
       <use x="83.789062" xlink:href="#DejaVuSans-50"/>
       <use x="147.412109" xlink:href="#DejaVuSans-48"/>
       <use x="211.035156" xlink:href="#DejaVuSans-48"/>
       <use x="274.658203" xlink:href="#DejaVuSans-48"/>
      </g>
     </g>
    </g>
    <g id="ytick_2">
     <g id="line2d_10">
      <g>
       <use style="stroke:#000000;stroke-width:0.8;" x="108" xlink:href="#mc3280b9a69" y="301.256799"/>
      </g>
     </g>
     <g id="text_11">
      <!-- −1500 -->
      <g transform="translate(67.170312 305.056018)scale(0.1 -0.1)">
       <use xlink:href="#DejaVuSans-8722"/>
       <use x="83.789062" xlink:href="#DejaVuSans-49"/>
       <use x="147.412109" xlink:href="#DejaVuSans-53"/>
       <use x="211.035156" xlink:href="#DejaVuSans-48"/>
       <use x="274.658203" xlink:href="#DejaVuSans-48"/>
      </g>
     </g>
    </g>
    <g id="ytick_3">
     <g id="line2d_11">
      <g>
       <use style="stroke:#000000;stroke-width:0.8;" x="108" xlink:href="#mc3280b9a69" y="258.137119"/>
      </g>
     </g>
     <g id="text_12">
      <!-- −1000 -->
      <g transform="translate(67.170312 261.936337)scale(0.1 -0.1)">
       <use xlink:href="#DejaVuSans-8722"/>
       <use x="83.789062" xlink:href="#DejaVuSans-49"/>
       <use x="147.412109" xlink:href="#DejaVuSans-48"/>
       <use x="211.035156" xlink:href="#DejaVuSans-48"/>
       <use x="274.658203" xlink:href="#DejaVuSans-48"/>
      </g>
     </g>
    </g>
    <g id="ytick_4">
     <g id="line2d_12">
      <g>
       <use style="stroke:#000000;stroke-width:0.8;" x="108" xlink:href="#mc3280b9a69" y="215.017438"/>
      </g>
     </g>
     <g id="text_13">
      <!-- −500 -->
      <g transform="translate(73.532813 218.816657)scale(0.1 -0.1)">
       <use xlink:href="#DejaVuSans-8722"/>
       <use x="83.789062" xlink:href="#DejaVuSans-53"/>
       <use x="147.412109" xlink:href="#DejaVuSans-48"/>
       <use x="211.035156" xlink:href="#DejaVuSans-48"/>
      </g>
     </g>
    </g>
    <g id="ytick_5">
     <g id="line2d_13">
      <g>
       <use style="stroke:#000000;stroke-width:0.8;" x="108" xlink:href="#mc3280b9a69" y="171.897757"/>
      </g>
     </g>
     <g id="text_14">
      <!-- 0 -->
      <g transform="translate(94.6375 175.696976)scale(0.1 -0.1)">
       <use xlink:href="#DejaVuSans-48"/>
      </g>
     </g>
    </g>
    <g id="ytick_6">
     <g id="line2d_14">
      <g>
       <use style="stroke:#000000;stroke-width:0.8;" x="108" xlink:href="#mc3280b9a69" y="128.778076"/>
      </g>
     </g>
     <g id="text_15">
      <!-- 500 -->
      <g transform="translate(81.9125 132.577295)scale(0.1 -0.1)">
       <use xlink:href="#DejaVuSans-53"/>
       <use x="63.623047" xlink:href="#DejaVuSans-48"/>
       <use x="127.246094" xlink:href="#DejaVuSans-48"/>
      </g>
     </g>
    </g>
    <g id="ytick_7">
     <g id="line2d_15">
      <g>
       <use style="stroke:#000000;stroke-width:0.8;" x="108" xlink:href="#mc3280b9a69" y="85.658396"/>
      </g>
     </g>
     <g id="text_16">
      <!-- 1000 -->
      <g transform="translate(75.55 89.457615)scale(0.1 -0.1)">
       <use xlink:href="#DejaVuSans-49"/>
       <use x="63.623047" xlink:href="#DejaVuSans-48"/>
       <use x="127.246094" xlink:href="#DejaVuSans-48"/>
       <use x="190.869141" xlink:href="#DejaVuSans-48"/>
      </g>
     </g>
    </g>
    <g id="text_17">
     <!-- Value -->
     <defs>
      <path d="M 28.609375 0 
L 0.78125 72.90625 
L 11.078125 72.90625 
L 34.1875 11.53125 
L 57.328125 72.90625 
L 67.578125 72.90625 
L 39.796875 0 
z
" id="DejaVuSans-86"/>
      <path d="M 9.421875 75.984375 
L 18.40625 75.984375 
L 18.40625 0 
L 9.421875 0 
z
" id="DejaVuSans-108"/>
      <path d="M 8.5 21.578125 
L 8.5 54.6875 
L 17.484375 54.6875 
L 17.484375 21.921875 
Q 17.484375 14.15625 20.5 10.265625 
Q 23.53125 6.390625 29.59375 6.390625 
Q 36.859375 6.390625 41.078125 11.03125 
Q 45.3125 15.671875 45.3125 23.6875 
L 45.3125 54.6875 
L 54.296875 54.6875 
L 54.296875 0 
L 45.3125 0 
L 45.3125 8.40625 
Q 42.046875 3.421875 37.71875 1 
Q 33.40625 -1.421875 27.6875 -1.421875 
Q 18.265625 -1.421875 13.375 4.4375 
Q 8.5 10.296875 8.5 21.578125 
z
M 31.109375 56 
z
" id="DejaVuSans-117"/>
     </defs>
     <g transform="translate(61.090625 232.273281)rotate(-90)scale(0.1 -0.1)">
      <use xlink:href="#DejaVuSans-86"/>
      <use x="68.298828" xlink:href="#DejaVuSans-97"/>
      <use x="129.578125" xlink:href="#DejaVuSans-108"/>
      <use x="157.361328" xlink:href="#DejaVuSans-117"/>
      <use x="220.740234" xlink:href="#DejaVuSans-101"/>
     </g>
    </g>
   </g>
   <g id="line2d_16">
    <path clip-path="url(#p63bfe28e54)" d="M 138.436364 162.09558 
L 138.798917 136.976941 
L 139.161471 96.525684 
L 139.886578 70.619764 
L 140.249131 92.740162 
L 140.611684 143.056246 
L 141.336791 201.279736 
L 141.699345 202.073477 
L 142.061898 186.794284 
L 142.424452 183.278484 
L 142.787005 167.038013 
L 143.149559 140.59307 
L 143.512112 129.693235 
L 143.874666 123.075932 
L 144.237219 131.480489 
L 144.962326 209.425877 
L 145.32488 221.972979 
L 145.687433 250.865897 
L 146.049986 253.515586 
L 146.41254 249.689779 
L 146.775093 213.631075 
L 147.137647 159.305792 
L 147.5002 135.810535 
L 147.862754 83.38784 
L 148.225307 70.436536 
L 148.587861 66.96 
L 148.950414 94.253631 
L 149.312968 112.483891 
L 149.675521 171.614045 
L 150.038075 184.103374 
L 150.400628 208.167404 
L 150.763182 195.134246 
L 151.125735 192.412459 
L 151.488288 150.968258 
L 152.213395 116.329138 
L 152.575949 109.985333 
L 152.938502 146.024323 
L 153.301056 155.982902 
L 153.663609 217.528524 
L 154.388716 250.847188 
L 154.75127 257.911413 
L 155.113823 234.918678 
L 155.476377 202.742352 
L 156.564037 81.514763 
L 157.289144 74.797606 
L 157.651697 86.78697 
L 158.014251 116.35636 
L 158.376804 163.084984 
L 159.101911 223.897662 
L 160.914679 130.103493 
L 161.277232 134.050576 
L 161.639786 139.475862 
L 162.727446 253.992094 
L 163.089999 114.069435 
L 163.452553 263.902202 
L 163.815106 257.520923 
L 165.26532 115.494222 
L 165.627874 84.213549 
L 165.990427 93.815369 
L 166.715534 153.91914 
L 167.803195 243.888807 
L 168.528301 213.50109 
L 168.890855 202.508159 
L 169.253408 168.948666 
L 169.978515 153.737322 
L 170.341069 184.303116 
L 170.703622 199.859866 
L 171.428729 264.601032 
L 171.791283 290.106925 
L 172.153836 304.106754 
L 172.51639 281.978173 
L 173.241497 209.096884 
L 173.60405 158.823155 
L 173.966603 132.735429 
L 174.329157 124.672094 
L 174.69171 125.125382 
L 175.054264 136.161244 
L 175.416817 182.165695 
L 176.141924 236.769001 
L 176.504478 250.949826 
L 176.867031 251.675193 
L 178.679799 169.474516 
L 179.042352 189.413252 
L 180.130012 300.131967 
L 180.492566 314.60218 
L 180.855119 315.463707 
L 181.580226 273.151078 
L 182.667887 143.39135 
L 183.03044 138.666905 
L 183.392994 132.252739 
L 183.755547 152.592591 
L 184.118101 197.335155 
L 184.480654 227.931607 
L 184.843208 283.285659 
L 185.205761 284.170019 
L 185.568314 261.632727 
L 185.930868 259.934737 
L 187.018528 185.745673 
L 187.381082 193.472572 
L 187.743635 191.526716 
L 188.106189 242.906426 
L 189.193849 309.418648 
L 189.556403 314.605292 
L 189.918956 306.215813 
L 190.644063 233.999536 
L 191.006616 175.669875 
L 191.36917 164.88697 
L 191.731723 127.306349 
L 192.819384 178.484457 
L 193.181937 227.959482 
L 193.907044 269.191767 
L 194.632151 235.777589 
L 195.357258 194.512159 
L 195.719812 191.910717 
L 196.082365 183.63795 
L 196.444919 182.312363 
L 197.532579 289.283599 
L 197.895132 308.024226 
L 198.257686 306.421784 
L 198.620239 299.716846 
L 199.7079 170.701712 
L 200.070453 141.065279 
L 200.433007 135.490785 
L 200.79556 115.547455 
L 201.158114 139.882779 
L 201.520667 186.454335 
L 202.245774 228.290979 
L 202.608327 233.085665 
L 202.970881 250.355949 
L 203.333434 249.959036 
L 203.695988 197.845397 
L 204.058541 336.581175 
L 204.421095 156.257678 
L 204.783648 172.93309 
L 205.146202 183.536078 
L 205.871309 229.710048 
L 206.233862 279.44516 
L 206.596416 307.344722 
L 206.958969 302.532257 
L 207.321523 279.187688 
L 208.771736 132.758761 
L 209.13429 114.161005 
L 209.496843 104.43715 
L 210.22195 180.915059 
L 211.309611 238.077271 
L 211.672164 237.5762 
L 212.034718 247.852683 
L 212.397271 195.400318 
L 212.759825 174.043717 
L 213.122378 175.359839 
L 213.484932 169.241776 
L 213.847485 175.216795 
L 214.572592 237.366054 
L 215.660252 311.932595 
L 216.022806 290.931276 
L 216.385359 261.904051 
L 216.747913 203.77074 
L 217.47302 138.08244 
L 217.835573 120.337541 
L 218.198127 118.972369 
L 218.56068 145.785355 
L 218.923234 163.557802 
L 219.285787 209.820375 
L 219.64834 237.46442 
L 220.010894 244.662552 
L 220.373447 241.816499 
L 221.098554 203.686387 
L 221.461108 193.636673 
L 221.823661 175.030458 
L 222.186215 178.204149 
L 222.548768 197.722025 
L 222.911322 200.217913 
L 223.273875 264.012475 
L 223.636429 278.823327 
L 223.998982 329.812174 
L 224.361536 319.584391 
L 224.724089 287.185775 
L 225.086642 264.998845 
L 225.811749 182.028187 
L 226.174303 144.381399 
L 226.536856 133.263452 
L 226.89941 125.563218 
L 227.624517 178.799433 
L 227.98707 226.992619 
L 228.712177 281.400738 
L 229.074731 270.659739 
L 229.437284 255.405709 
L 229.799838 226.87344 
L 230.524945 204.306167 
L 230.887498 204.190278 
L 231.612605 251.837388 
L 232.700265 335.041381 
L 233.062819 346.195599 
L 233.425372 331.132905 
L 234.513033 218.22405 
L 235.23814 155.788388 
L 235.963247 192.745376 
L 236.3258 213.519808 
L 236.688353 244.221386 
L 237.050907 293.73253 
L 237.41346 298.954944 
L 237.776014 308.526778 
L 238.138567 296.737837 
L 238.863674 232.039178 
L 239.226228 219.860146 
L 239.588781 213.235863 
L 240.676442 307.177326 
L 241.038995 347.18025 
L 241.764102 362.875407 
L 242.126655 337.044536 
L 243.576869 198.02728 
L 243.939423 171.023933 
L 244.301976 180.795631 
L 244.66453 197.112892 
L 245.027083 240.029571 
L 246.114744 311.345767 
L 246.477297 306.7751 
L 246.839851 292.749764 
L 247.564957 239.562697 
L 247.927511 227.96598 
L 248.290064 236.758512 
L 248.652618 249.00555 
L 249.015171 269.224021 
L 249.377725 299.885396 
L 249.740278 347.836539 
L 250.102832 360.051933 
L 250.465385 359.065759 
L 251.190492 322.139512 
L 251.553046 284.246918 
L 251.915599 222.654679 
L 252.278153 185.090449 
L 252.640706 168.020059 
L 253.00326 176.059927 
L 253.365813 188.388089 
L 254.453473 304.011343 
L 254.816027 315.522136 
L 255.17858 301.842541 
L 256.628794 226.620036 
L 256.991348 235.20269 
L 257.353901 222.288703 
L 257.716455 276.614704 
L 258.079008 295.85642 
L 258.441562 338.963394 
L 258.804115 355.82389 
L 259.166668 344.913898 
L 259.529222 338.086875 
L 260.979436 180.545016 
L 261.341989 160.134212 
L 261.704543 162.772957 
L 262.067096 178.565628 
L 262.42965 201.185001 
L 262.792203 256.712709 
L 263.154757 285.401991 
L 263.51731 302.569049 
L 263.879864 295.451404 
L 264.242417 285.159379 
L 264.60497 249.539133 
L 264.967524 226.733277 
L 265.330077 211.848562 
L 265.692631 204.84408 
L 266.055184 234.747701 
L 266.417738 245.73276 
L 266.780291 298.446419 
L 267.142845 325.319021 
L 267.867952 348.481225 
L 268.230505 324.140135 
L 268.593059 292.140251 
L 269.318166 209.707859 
L 269.680719 175.284721 
L 270.043273 154.101304 
L 270.405826 155.749214 
L 270.768379 170.142306 
L 271.130933 67.363985 
L 271.493486 237.993138 
L 271.85604 255.217099 
L 272.218593 282.404091 
L 272.581147 272.216334 
L 272.9437 269.597155 
L 273.306254 251.429768 
L 273.668807 209.693902 
L 274.031361 200.281779 
L 274.393914 202.576098 
L 274.756468 224.594937 
L 275.844128 329.090624 
L 276.206681 330.890154 
L 276.569235 341.318947 
L 276.931788 331.830063 
L 278.382002 171.407642 
L 278.744556 155.557602 
L 279.107109 173.90292 
L 279.469663 175.654776 
L 280.919877 312.906749 
L 281.28243 283.860756 
L 281.644983 295.122611 
L 282.007537 253.317986 
L 282.732644 214.193876 
L 283.095197 211.826138 
L 283.457751 232.269711 
L 283.820304 266.726673 
L 284.182858 286.694358 
L 284.907965 369.36 
L 285.270518 362.728969 
L 285.633072 341.922926 
L 286.358179 274.952142 
L 286.720732 224.976304 
L 287.083286 190.382349 
L 287.445839 184.857315 
L 287.808392 191.082622 
L 288.170946 199.406087 
L 288.533499 226.265202 
L 288.896053 277.464266 
L 289.258606 294.976197 
L 289.62116 337.144868 
L 289.983713 312.403043 
L 290.346267 305.345838 
L 290.70882 276.656553 
L 291.071374 272.455506 
L 291.433927 264.674959 
L 291.796481 265.505357 
L 292.159034 267.130861 
L 292.521588 280.352236 
L 292.884141 302.430401 
L 293.246694 300.457667 
L 293.609248 317.14258 
L 293.971801 319.791776 
L 294.334355 309.442905 
L 294.696908 292.586285 
L 295.059462 286.131346 
L 295.784569 254.095844 
L 296.147122 247.51569 
L 296.509676 249.028497 
L 297.597336 282.871418 
L 297.95989 291.776654 
L 298.322443 305.904151 
L 298.684996 299.208082 
L 299.04755 299.026191 
L 299.772657 279.611117 
L 300.497764 272.847632 
L 300.860317 275.908166 
L 301.585424 298.780236 
L 301.947978 312.503479 
L 302.310531 320.165282 
L 302.673085 321.042337 
L 303.035638 321.191886 
L 304.485852 253.70172 
L 304.848405 251.964034 
L 305.210959 251.733777 
L 305.936066 269.565173 
L 306.298619 283.794306 
L 307.023726 301.190152 
L 307.38628 299.566077 
L 307.748833 289.23955 
L 308.111387 288.401985 
L 308.47394 272.49103 
L 308.836494 270.36084 
L 309.199047 268.945469 
L 309.561601 276.529789 
L 309.924154 286.477718 
L 310.649261 314.497457 
L 311.011814 318.466083 
L 311.374368 319.39129 
L 311.736921 312.155847 
L 312.099475 301.903404 
L 313.187135 249.259457 
L 313.549689 247.363091 
L 313.912242 247.558462 
L 314.999903 275.739218 
L 315.725009 297.92529 
L 316.087563 297.404583 
L 316.81267 277.828171 
L 317.537777 262.976848 
L 317.90033 263.34793 
L 318.625437 276.938722 
L 318.987991 289.640064 
L 319.713098 306.397502 
L 320.075651 311.871446 
L 320.438205 307.317744 
L 321.163311 271.69105 
L 321.525865 203.473884 
L 321.888418 243.133685 
L 322.250972 230.883726 
L 322.613525 236.452458 
L 323.338632 253.945865 
L 323.701186 269.025384 
L 324.063739 275.06815 
L 324.426293 285.928801 
L 324.788846 284.655062 
L 325.1514 270.078755 
L 325.513953 272.598479 
L 325.876507 257.489822 
L 326.23906 252.235681 
L 326.964167 255.062509 
L 327.689274 279.662716 
L 328.051827 298.582934 
L 328.414381 300.956424 
L 329.139488 295.122522 
L 329.502041 283.547429 
L 330.227148 251.617924 
L 330.589702 236.238301 
L 330.952255 231.177397 
L 331.314809 221.813439 
L 331.677362 239.247393 
L 332.039916 242.990053 
L 332.402469 263.053711 
L 333.127576 280.964229 
L 333.490129 281.03701 
L 333.852683 272.558084 
L 334.215236 260.605166 
L 334.57779 254.601405 
L 334.940343 244.671383 
L 335.66545 250.611831 
L 336.390557 276.523422 
L 337.115664 295.397922 
L 337.478218 295.736954 
L 337.840771 288.301748 
L 339.290985 230.653531 
L 339.653538 229.470242 
L 340.016092 223.739314 
L 341.103752 259.898155 
L 341.466306 266.205257 
L 341.828859 275.376656 
L 342.191413 276.961434 
L 342.553966 272.148653 
L 343.279073 252.546236 
L 343.641627 246.439859 
L 344.00418 248.044221 
L 344.366733 248.934734 
L 344.729287 265.129866 
L 345.09184 271.01208 
L 345.454394 287.137172 
L 345.816947 296.004932 
L 346.179501 292.743007 
L 346.904608 279.26814 
L 347.267161 264.412779 
L 347.629715 242.453495 
L 347.992268 238.811305 
L 348.354822 226.505903 
L 348.717375 230.421803 
L 349.079929 237.200784 
L 349.442482 250.354425 
L 349.805035 257.953264 
L 350.167589 274.69773 
L 350.530142 279.991517 
L 350.892696 283.070179 
L 351.255249 274.35838 
L 351.617803 270.996601 
L 351.980356 257.427414 
L 352.34291 250.820674 
L 352.705463 250.456324 
L 353.068017 261.138177 
L 353.43057 263.647832 
L 354.155677 297.215875 
L 354.518231 304.323814 
L 354.880784 301.417066 
L 355.243337 300.788093 
L 355.605891 282.267812 
L 355.968444 272.33952 
L 356.693551 239.9426 
L 357.056105 234.960172 
L 357.781212 238.261159 
L 358.143765 253.244284 
L 358.506319 262.422665 
L 358.868872 284.513898 
L 359.231426 285.19845 
L 359.593979 284.662157 
L 359.956533 280.947177 
L 360.319086 268.05143 
L 361.044193 257.087928 
L 361.406746 257.966611 
L 361.7693 261.913072 
L 363.219514 307.171429 
L 363.582067 310.078439 
L 364.307174 284.316701 
L 365.394835 239.714061 
L 365.757388 237.985369 
L 366.119942 235.272717 
L 366.482495 248.802637 
L 367.207602 269.310427 
L 367.570155 279.490435 
L 367.932709 284.16995 
L 368.295262 284.812623 
L 369.020369 267.562599 
L 369.382923 264.911083 
L 369.745476 254.249454 
L 370.10803 255.122009 
L 370.470583 259.241757 
L 371.558244 294.179182 
L 371.920797 298.349048 
L 372.28335 306.553805 
L 373.008457 280.633766 
L 373.371011 261.392087 
L 374.458671 231.313482 
L 374.821225 229.763217 
L 375.546332 250.138082 
L 376.271439 280.248068 
L 376.633992 273.104071 
L 376.996546 276.838133 
L 377.359099 271.01362 
L 377.721652 263.260146 
L 378.084206 252.922469 
L 378.446759 246.876989 
L 378.809313 245.132637 
L 379.171866 250.54019 
L 380.62208 297.631234 
L 380.984634 291.645907 
L 381.347187 293.118013 
L 382.797401 226.513863 
L 383.159955 220.229332 
L 383.522508 222.877973 
L 383.885061 230.802317 
L 384.972722 264.693104 
L 385.335275 266.828051 
L 385.697829 269.677726 
L 386.060382 262.552338 
L 386.422936 260.405049 
L 386.785489 242.630714 
L 387.148043 236.055152 
L 387.510596 239.208959 
L 387.87315 244.669789 
L 388.235703 252.817495 
L 388.598257 270.511078 
L 388.96081 280.038141 
L 389.323363 283.619273 
L 389.685917 283.563927 
L 390.04847 278.193065 
L 390.773577 253.73878 
L 391.136131 225.848739 
L 391.498684 220.560376 
L 391.861238 219.846693 
L 392.223791 213.649568 
L 392.948898 234.4254 
L 393.674005 254.261834 
L 394.036559 262.64932 
L 394.399112 262.544267 
L 395.124219 250.244084 
L 395.849326 232.786643 
L 396.211879 233.021777 
L 396.936986 245.738911 
L 398.024647 285.084502 
L 398.3872 279.991529 
L 398.749754 276.695479 
L 400.199968 216.329483 
L 400.562521 211.495118 
L 400.925074 210.525062 
L 401.650181 229.664905 
L 402.012735 242.193765 
L 402.375288 258.944637 
L 402.737842 257.894554 
L 403.100395 266.596571 
L 403.462949 254.672201 
L 403.825502 249.505729 
L 404.188056 237.88249 
L 404.550609 231.619078 
L 404.913163 231.386479 
L 405.275716 238.552975 
L 406.000823 259.504221 
L 406.363376 275.676408 
L 406.72593 285.968179 
L 407.088483 283.802355 
L 407.81359 269.747988 
L 408.901251 219.332879 
L 409.263804 217.183124 
L 409.626358 217.394533 
L 410.351465 235.17534 
L 410.714018 246.31694 
L 411.076572 266.577132 
L 411.439125 268.575775 
L 411.801678 268.95061 
L 412.164232 262.096114 
L 412.526785 251.586249 
L 413.251892 240.492037 
L 413.614446 243.055969 
L 413.976999 241.965133 
L 414.702106 264.535007 
L 415.06466 280.644079 
L 415.427213 291.492361 
L 416.15232 286.677575 
L 417.239981 236.303503 
L 417.602534 231.984876 
L 417.965087 216.872662 
L 418.327641 220.582992 
L 419.415301 253.477857 
L 420.140408 273.419867 
L 420.502962 266.155362 
L 420.865515 263.687401 
L 421.228069 252.108638 
L 421.590622 246.478171 
L 421.953176 297.483012 
L 422.315729 249.745092 
L 422.678283 248.221508 
L 423.040836 253.021095 
L 423.403389 271.799437 
L 424.128496 289.604311 
L 424.49105 289.073612 
L 424.853603 279.866756 
L 425.216157 276.638372 
L 425.57871 254.054107 
L 425.941264 241.010738 
L 426.303817 232.636117 
L 426.666371 219.001784 
L 427.028924 220.825905 
L 428.116585 251.862082 
L 428.479138 266.674043 
L 428.841691 274.605147 
L 429.204245 266.930637 
L 429.566798 264.258934 
L 430.291905 243.685132 
L 431.017012 239.192375 
L 431.742119 251.874729 
L 432.467226 279.451514 
L 432.82978 288.471618 
L 433.192333 284.701208 
L 433.554887 290.018225 
L 434.279994 252.686296 
L 435.367654 211.576249 
L 435.730207 222.383151 
L 436.092761 224.283776 
L 436.817868 248.879583 
L 437.180421 261.455271 
L 437.542975 265.900258 
L 437.905528 265.896421 
L 438.630635 248.033854 
L 438.993189 241.975687 
L 439.355742 233.316556 
L 439.718296 236.093644 
L 440.080849 237.931689 
L 440.805956 261.66878 
L 441.531063 282.157025 
L 441.893616 282.886915 
L 442.25617 274.540123 
L 442.981277 249.087843 
L 443.34383 198.268872 
L 443.706384 182.173743 
L 444.068937 125.186689 
L 444.431491 157.891018 
L 444.794044 173.078872 
L 445.156598 202.532458 
L 445.519151 241.640476 
L 446.244258 285.564773 
L 446.969365 254.702961 
L 447.331918 238.875947 
L 447.694472 210.330919 
L 448.419579 195.515356 
L 449.144686 232.268053 
L 449.869793 297.826349 
L 450.232346 325.337943 
L 450.5949 327.773258 
L 450.957453 317.1703 
L 451.320006 277.52446 
L 452.045113 175.743495 
L 452.77022 138.279839 
L 453.132774 134.506299 
L 453.495327 154.450048 
L 454.220434 216.424718 
L 454.582988 229.946819 
L 454.945541 262.141313 
L 455.670648 232.41055 
L 457.120862 168.2485 
L 457.483415 200.300685 
L 457.845969 220.890942 
L 458.933629 323.795876 
L 459.296183 313.581227 
L 459.658736 294.507591 
L 460.02129 243.716774 
L 460.383843 222.292808 
L 460.746397 167.56084 
L 461.10895 152.863199 
L 461.471504 126.475115 
L 461.834057 123.970219 
L 462.921717 193.484124 
L 463.284271 247.573188 
L 463.646824 256.662594 
L 464.009378 255.794461 
L 464.371931 238.402583 
L 464.734485 226.710667 
L 465.097038 189.827517 
L 465.459592 178.473979 
L 465.822145 177.567292 
L 466.909806 260.910072 
L 467.272359 301.023833 
L 467.997466 324.831672 
L 468.360019 304.216682 
L 469.44768 176.754413 
L 469.810233 163.119187 
L 470.172787 136.898107 
L 470.53534 136.913851 
L 470.897894 161.624776 
L 471.985554 261.222664 
L 472.348108 282.094215 
L 472.710661 278.512557 
L 473.073215 247.818398 
L 473.435768 244.184357 
L 473.798322 205.505885 
L 474.160875 204.934827 
L 474.523428 204.045204 
L 474.885982 204.143512 
L 475.973642 310.706865 
L 476.336196 341.921471 
L 476.698749 338.716574 
L 477.423856 289.954757 
L 477.78641 258.640108 
L 478.148963 196.062474 
L 478.511517 166.624532 
L 478.87407 155.336361 
L 479.236624 150.058929 
L 479.599177 186.930957 
L 479.96173 210.736851 
L 480.324284 247.760051 
L 481.049391 291.812396 
L 481.411944 276.381436 
L 481.774498 140.18753 
L 482.137051 251.826437 
L 482.499605 250.195112 
L 482.862158 228.028392 
L 483.224712 221.078295 
L 483.587265 217.77158 
L 483.949819 257.075282 
L 484.312372 281.239188 
L 484.674926 317.897479 
L 485.037479 343.26553 
L 485.400032 349.849763 
L 485.762586 336.05388 
L 486.125139 311.278777 
L 486.850246 217.645789 
L 487.2128 176.86689 
L 487.575353 181.07789 
L 487.937907 163.603416 
L 488.663014 226.75541 
L 489.025567 262.829296 
L 489.388121 281.971675 
L 489.750674 282.135021 
L 490.113228 284.860065 
L 490.475781 272.028301 
L 491.200888 232.034282 
L 491.563441 214.659854 
L 491.925995 215.060321 
L 492.651102 250.61357 
L 493.013655 295.985609 
L 493.738762 333.585666 
L 494.101316 341.949905 
L 494.463869 340.368361 
L 495.914083 172.532316 
L 496.276637 149.091992 
L 496.63919 156.256002 
L 497.001743 157.86595 
L 497.72685 249.656077 
L 498.089404 278.872483 
L 498.451957 283.864363 
L 498.814511 271.902451 
L 499.177064 275.611573 
L 499.539618 240.818805 
L 500.264725 204.050073 
L 500.627278 201.122594 
L 500.989832 217.226869 
L 502.440045 335.266694 
L 502.802599 335.187749 
L 503.165152 313.950643 
L 504.252813 181.128404 
L 504.615366 134.265943 
L 504.97792 133.430966 
L 505.340473 128.441513 
L 505.703027 151.170542 
L 506.428134 225.055066 
L 506.790687 250.922645 
L 507.153241 246.539179 
L 507.515794 261.331518 
L 507.878348 243.902796 
L 508.603454 192.634042 
L 508.966008 185.750994 
L 509.328561 185.078939 
L 509.691115 185.731641 
L 510.053668 211.739283 
L 510.778775 287.852277 
L 511.141329 305.740376 
L 511.503882 309.860928 
L 512.228989 255.566716 
L 512.591543 209.815225 
L 512.954096 150.032885 
L 513.679203 118.95798 
L 514.041756 124.032738 
L 514.40431 132.481173 
L 515.129417 214.346198 
L 515.49197 231.096677 
L 515.854524 236.530345 
L 516.217077 245.10247 
L 516.579631 234.13736 
L 516.942184 215.660703 
L 517.667291 170.582572 
L 518.029845 159.916598 
L 518.754952 206.941664 
L 519.480058 279.288074 
L 519.842612 281.375611 
L 520.205165 297.225485 
L 520.567719 288.324752 
L 522.017933 119.826853 
L 522.380486 109.706223 
L 522.74304 117.751765 
L 523.468147 165.705442 
L 523.8307 212.630083 
L 524.193254 240.00564 
L 524.555807 240.306154 
L 525.280914 216.662207 
L 525.643467 205.063425 
L 526.006021 183.176169 
L 526.731128 168.661238 
L 527.093681 179.90115 
L 528.181342 282.829599 
L 528.906449 307.852786 
L 529.269002 299.021532 
L 530.719216 138.813506 
L 531.444323 119.645988 
L 531.806876 156.872699 
L 532.16943 176.881295 
L 532.531983 223.046297 
L 533.25709 273.071783 
L 533.619644 253.943147 
L 533.982197 247.660468 
L 534.707304 214.781877 
L 535.069858 185.773676 
L 535.432411 184.154203 
L 536.157518 231.846199 
L 536.882625 300.440904 
L 537.245178 327.058209 
L 537.970285 305.846419 
L 539.057946 191.092928 
L 539.420499 156.178442 
L 540.145606 131.448096 
L 540.50816 157.008967 
L 540.870713 209.718086 
L 541.233267 218.998174 
L 541.59582 265.197713 
L 541.958373 273.804566 
L 542.320927 273.145932 
L 542.68348 247.72204 
L 543.046034 235.762039 
L 543.408587 227.951538 
L 543.771141 194.337803 
L 544.133694 202.420236 
L 544.496248 215.622077 
L 545.221355 275.076925 
L 545.583908 314.062025 
L 545.946462 329.91191 
L 546.309015 335.582631 
L 547.034122 295.956123 
L 547.396676 237.546903 
L 548.121782 153.999749 
L 548.484336 145.222489 
L 548.846889 144.287117 
L 549.93455 237.71026 
L 550.297103 269.052715 
L 550.659657 267.074372 
L 551.02221 280.331513 
L 551.384764 263.398968 
L 552.109871 215.022411 
L 552.472424 200.18639 
L 552.834978 200.378459 
L 553.197531 214.493832 
L 554.647745 345.274495 
L 555.010298 332.403544 
L 555.735405 276.647386 
L 556.460512 200.503007 
L 556.823066 147.451673 
L 557.185619 135.951487 
L 557.548173 150.622084 
L 557.910726 158.047563 
L 558.635833 240.896196 
L 558.998386 262.554734 
L 559.36094 257.297896 
L 559.723493 262.793088 
L 560.811154 206.539897 
L 561.173707 188.341048 
L 561.536261 178.259986 
L 561.898814 192.088138 
L 562.623921 269.726506 
L 562.986475 295.763669 
L 563.349028 311.63535 
L 563.711582 319.576909 
L 564.074135 296.373779 
L 564.436689 241.175417 
L 565.886902 102.482873 
L 566.249456 127.0283 
L 566.612009 125.234459 
L 567.337116 216.356574 
L 567.69967 233.798018 
L 568.062223 239.872182 
L 568.424777 235.811733 
L 568.78733 240.50746 
L 569.512437 168.694958 
L 569.874991 177.725843 
L 570.237544 167.764866 
L 570.962651 201.671074 
L 571.687758 272.940591 
L 572.412865 293.499615 
L 572.775418 261.393547 
L 573.137972 241.861752 
L 573.500525 186.423651 
L 573.863079 153.26144 
L 574.225632 108.945854 
L 574.588186 85.514409 
L 574.950739 107.388094 
L 575.313293 113.191999 
L 576.038399 198.077984 
L 576.763506 223.991455 
L 577.12606 224.296832 
L 577.488613 219.38245 
L 577.851167 189.625921 
L 578.21372 148.603021 
L 578.938827 162.914821 
L 579.301381 152.359835 
L 580.751595 276.689535 
L 581.114148 267.82266 
L 581.476701 263.832114 
L 581.839255 232.90892 
L 582.564362 131.201083 
L 583.289469 91.519567 
L 583.652022 100.160557 
L 584.377129 150.565617 
L 585.102236 219.965676 
L 585.46479 242.489076 
L 586.189897 212.380684 
L 586.915004 165.398774 
L 587.277557 154.587977 
L 587.64011 151.074114 
L 589.452878 289.571848 
L 589.815431 286.581519 
L 590.177985 274.361174 
L 590.903092 196.232979 
L 591.990752 114.044145 
L 592.353306 115.094692 
L 592.715859 124.555897 
L 593.078412 174.257424 
L 593.803519 230.058851 
L 594.166073 244.79084 
L 594.528626 242.182783 
L 594.89118 230.947604 
L 595.253733 210.557448 
L 595.616287 198.54933 
L 595.97884 197.345093 
L 596.341394 194.676214 
L 596.703947 198.842119 
L 597.791608 235.504842 
L 598.154161 239.265687 
L 598.516714 250.548292 
L 599.241821 228.076328 
L 599.604375 214.382688 
L 599.966928 192.371781 
L 600.692035 179.805864 
L 601.054589 180.7846 
L 601.417142 184.666101 
L 601.779696 197.546404 
L 602.142249 215.159215 
L 602.504803 220.426986 
L 602.867356 228.928573 
L 603.22991 230.030891 
L 603.592463 225.97445 
L 603.955017 219.005456 
L 604.31757 204.697849 
L 604.680123 199.424143 
L 605.042677 201.050301 
L 605.40523 206.100012 
L 606.492891 245.361927 
L 606.855444 249.051781 
L 607.217998 251.506382 
L 607.580551 249.128688 
L 607.943105 235.974252 
L 608.668212 198.273759 
L 609.393319 182.214284 
L 609.755872 182.958463 
L 610.480979 200.38867 
L 610.843532 215.186675 
L 611.206086 225.245457 
L 611.568639 230.750828 
L 611.931193 232.066151 
L 612.293746 224.279048 
L 612.6563 213.386933 
L 613.018853 210.808317 
L 613.381407 201.787647 
L 613.74396 197.127194 
L 614.469067 218.001801 
L 614.831621 233.498376 
L 615.194174 239.471713 
L 615.556727 251.619272 
L 615.919281 250.584516 
L 616.644388 236.950018 
L 617.006941 208.985506 
L 617.369495 197.982 
L 618.094602 170.109497 
L 618.457155 175.178834 
L 618.819709 187.953786 
L 619.182262 195.896839 
L 619.544816 207.098751 
L 619.907369 221.939145 
L 620.269923 226.689111 
L 620.632476 223.247313 
L 620.99503 218.431932 
L 621.357583 211.556613 
L 621.720136 206.952039 
L 622.08269 199.135247 
L 622.445243 200.215564 
L 622.807797 208.993499 
L 623.17035 209.703304 
L 623.532904 232.094941 
L 623.895457 243.722209 
L 624.258011 242.964138 
L 624.620564 244.589 
L 624.983118 237.450012 
L 625.345671 225.136102 
L 626.070778 188.905171 
L 626.433332 177.946224 
L 626.795885 172.779307 
L 627.158438 171.683539 
L 627.520992 187.050809 
L 628.246099 202.150717 
L 628.608652 209.666196 
L 628.971206 220.316058 
L 629.333759 222.260273 
L 630.058866 207.938948 
L 630.42142 188.764766 
L 630.783973 186.26242 
L 631.146527 192.696536 
L 631.50908 190.330109 
L 632.234187 217.553037 
L 632.959294 237.070006 
L 633.684401 227.49522 
L 634.046954 218.280076 
L 634.409508 206.08729 
L 635.134615 169.730306 
L 635.497168 164.507858 
L 635.859722 168.410961 
L 636.222275 175.471992 
L 636.947382 199.295527 
L 637.309936 208.426179 
L 638.035043 216.229629 
L 638.397596 207.42147 
L 638.760149 204.802584 
L 639.122703 187.8726 
L 639.485256 181.446067 
L 639.84781 184.49882 
L 640.210363 184.190295 
L 640.572917 196.73383 
L 640.93547 217.5395 
L 641.298024 230.702158 
L 641.660577 236.294122 
L 642.023131 238.365022 
L 642.385684 225.720674 
L 642.748238 217.141722 
L 643.110791 196.113031 
L 644.198451 161.320975 
L 644.561005 165.7165 
L 644.923558 179.254829 
L 645.286112 182.315258 
L 646.373772 218.632385 
L 646.736326 216.863239 
L 647.098879 210.000204 
L 647.461433 205.501136 
L 647.823986 188.833821 
L 648.18654 188.294621 
L 648.549093 184.155499 
L 648.911647 194.886378 
L 649.2742 210.414544 
L 649.636753 217.705552 
L 649.999307 230.065709 
L 650.724414 240.828269 
L 651.449521 222.538612 
L 651.812074 208.275387 
L 652.537181 172.305124 
L 652.899735 168.438353 
L 653.262288 171.484593 
L 653.624842 179.951658 
L 655.075055 227.172536 
L 655.437609 223.30101 
L 655.800162 221.896611 
L 656.525269 195.630669 
L 656.887823 196.695681 
L 657.250376 193.900566 
L 657.61293 200.717208 
L 657.975483 210.840506 
L 658.70059 236.502638 
L 659.425697 245.05481 
L 659.788251 244.237459 
L 660.150804 224.148529 
L 660.513358 212.559971 
L 660.875911 192.551375 
L 661.238464 186.666745 
L 661.601018 175.915843 
L 661.963571 183.629394 
L 662.326125 187.535422 
L 663.051232 216.560373 
L 663.776339 227.542159 
L 664.138892 231.102218 
L 664.501446 221.148326 
L 664.863999 217.301907 
L 665.226553 210.683967 
L 665.589106 201.000544 
L 665.95166 198.854153 
L 666.314213 205.832556 
L 667.401873 245.868209 
L 667.764427 250.535878 
L 668.12698 248.308193 
L 668.489534 244.59729 
L 669.214641 220.077182 
L 669.577194 197.248947 
L 669.939748 188.080471 
L 670.302301 182.120437 
L 670.664855 182.980954 
L 671.752515 214.582007 
L 672.477622 232.901452 
L 672.840175 234.475287 
L 673.202729 230.698507 
L 673.927836 201.073057 
L 674.290389 202.385016 
L 674.652943 205.144662 
L 675.015496 211.992837 
L 675.37805 215.432624 
L 676.103157 245.902898 
L 676.46571 249.301193 
L 676.828264 251.420852 
L 677.190817 247.183751 
L 678.641031 181.479402 
L 679.003584 177.295426 
L 679.366138 179.706075 
L 679.728691 185.474471 
L 680.453798 213.822008 
L 680.816352 219.754682 
L 681.178905 222.936737 
L 681.541459 222.493629 
L 681.904012 222.60741 
L 682.991673 197.688712 
L 683.354226 197.203274 
L 683.716779 201.194047 
L 684.441886 220.231541 
L 684.80444 238.149913 
L 685.166993 244.431258 
L 685.529547 243.366143 
L 685.8921 238.166838 
L 686.979761 189.889562 
L 687.342314 173.028329 
L 687.704868 166.484537 
L 688.067421 179.722794 
L 688.429975 182.012785 
L 688.792528 190.217917 
L 689.517635 216.39467 
L 689.880188 221.647704 
L 690.242742 217.387882 
L 690.605295 208.610508 
L 690.967849 206.240824 
L 691.330402 195.187013 
L 692.055509 182.434322 
L 693.868277 238.641085 
L 694.23083 231.891228 
L 694.593384 234.961775 
L 694.955937 218.685344 
L 695.31849 197.350474 
L 696.043597 170.612631 
L 696.406151 167.799072 
L 696.768704 162.467765 
L 697.131258 170.511542 
L 697.493811 184.10782 
L 697.856365 203.114336 
L 698.218918 213.619353 
L 698.581472 217.058422 
L 698.944025 213.796996 
L 700.031686 193.863932 
L 700.394239 183.225775 
L 700.756792 185.022532 
L 701.119346 189.222179 
L 701.844453 215.597766 
L 702.932113 239.131371 
L 703.294667 231.700229 
L 704.744881 168.930673 
L 705.107434 162.455691 
L 705.469988 163.683028 
L 706.195094 185.776489 
L 706.557648 203.845506 
L 706.920201 205.463268 
L 707.282755 219.187676 
L 707.645308 212.174894 
L 708.007862 211.621869 
L 708.370415 195.478407 
L 709.095522 185.351007 
L 709.458076 181.382964 
L 710.545736 213.948357 
L 710.90829 229.606478 
L 711.270843 234.399525 
L 711.633397 234.356254 
L 711.99595 234.624486 
L 712.358503 223.088782 
L 712.721057 149.084419 
L 713.08361 187.418524 
L 713.808717 170.151821 
L 714.171271 176.986123 
L 714.533824 179.532042 
L 715.258931 204.127833 
L 715.984038 223.089864 
L 716.346592 222.021301 
L 716.709145 220.505941 
L 717.434252 196.863681 
L 717.796805 189.664047 
L 718.159359 192.424193 
L 718.521912 202.394497 
L 718.884466 208.980601 
L 719.972126 244.750767 
L 720.33468 247.885302 
L 720.697233 238.968986 
L 721.42234 209.918496 
L 721.784894 190.773696 
L 722.147447 185.269869 
L 722.510001 175.850161 
L 722.872554 184.543024 
L 723.235107 188.908214 
L 724.322768 224.670983 
L 724.685321 226.9027 
L 725.047875 231.722027 
L 725.772982 210.435867 
L 726.135535 206.079483 
L 726.498089 199.683646 
L 726.860642 201.392723 
L 727.223196 205.997626 
L 727.948303 233.55121 
L 728.310856 240.991689 
L 728.673409 251.199788 
L 729.035963 254.499552 
L 729.398516 245.948261 
L 730.84873 184.39032 
L 731.211284 183.878222 
L 731.573837 186.287022 
L 731.936391 189.771446 
L 732.298944 204.717245 
L 733.024051 227.406117 
L 733.386605 231.61742 
L 733.749158 227.414219 
L 734.111712 173.18137 
L 734.474265 218.595564 
L 734.836818 206.903186 
L 735.199372 199.140414 
L 735.924479 205.667453 
L 737.374693 253.239794 
L 737.737246 249.484133 
L 738.0998 242.802196 
L 739.550014 183.492254 
L 740.27512 178.516231 
L 740.637674 240.211223 
L 741.000227 201.601417 
L 741.725334 228.945446 
L 742.087888 223.610587 
L 742.450441 230.105217 
L 743.538102 198.596409 
L 743.900655 201.932123 
L 744.263209 194.091627 
L 744.625762 204.187447 
L 744.988316 207.663942 
L 745.350869 227.080234 
L 745.713422 234.029378 
L 746.075976 237.379658 
L 746.438529 241.954799 
L 747.163636 227.208794 
L 747.163636 227.208794 
" style="fill:none;stroke:#1f77b4;stroke-linecap:square;stroke-width:1.5;"/>
   </g>
   <g id="line2d_17">
    <path clip-path="url(#p63bfe28e54)" d="M 745.713422 384.48 
L 745.713422 51.84 
" style="fill:none;stroke:#808080;stroke-linecap:square;"/>
   </g>
   <g id="patch_54">
    <path d="M 108 384.48 
L 108 51.84 
" style="fill:none;stroke:#000000;stroke-linecap:square;stroke-linejoin:miter;stroke-width:0.8;"/>
   </g>
   <g id="patch_55">
    <path d="M 777.6 384.48 
L 777.6 51.84 
" style="fill:none;stroke:#000000;stroke-linecap:square;stroke-linejoin:miter;stroke-width:0.8;"/>
   </g>
   <g id="patch_56">
    <path d="M 108 384.48 
L 777.6 384.48 
" style="fill:none;stroke:#000000;stroke-linecap:square;stroke-linejoin:miter;stroke-width:0.8;"/>
   </g>
   <g id="patch_57">
    <path d="M 108 51.84 
L 777.6 51.84 
" style="fill:none;stroke:#000000;stroke-linecap:square;stroke-linejoin:miter;stroke-width:0.8;"/>
   </g>
   <g id="text_18">
    <!-- A4Benchmark-TS24.csv -->
    <defs>
     <path d="M 34.1875 63.1875 
L 20.796875 26.90625 
L 47.609375 26.90625 
z
M 28.609375 72.90625 
L 39.796875 72.90625 
L 67.578125 0 
L 57.328125 0 
L 50.6875 18.703125 
L 17.828125 18.703125 
L 11.1875 0 
L 0.78125 0 
z
" id="DejaVuSans-65"/>
     <path d="M 37.796875 64.3125 
L 12.890625 25.390625 
L 37.796875 25.390625 
z
M 35.203125 72.90625 
L 47.609375 72.90625 
L 47.609375 25.390625 
L 58.015625 25.390625 
L 58.015625 17.1875 
L 47.609375 17.1875 
L 47.609375 0 
L 37.796875 0 
L 37.796875 17.1875 
L 4.890625 17.1875 
L 4.890625 26.703125 
z
" id="DejaVuSans-52"/>
     <path d="M 19.671875 34.8125 
L 19.671875 8.109375 
L 35.5 8.109375 
Q 43.453125 8.109375 47.28125 11.40625 
Q 51.125 14.703125 51.125 21.484375 
Q 51.125 28.328125 47.28125 31.5625 
Q 43.453125 34.8125 35.5 34.8125 
z
M 19.671875 64.796875 
L 19.671875 42.828125 
L 34.28125 42.828125 
Q 41.5 42.828125 45.03125 45.53125 
Q 48.578125 48.25 48.578125 53.8125 
Q 48.578125 59.328125 45.03125 62.0625 
Q 41.5 64.796875 34.28125 64.796875 
z
M 9.8125 72.90625 
L 35.015625 72.90625 
Q 46.296875 72.90625 52.390625 68.21875 
Q 58.5 63.53125 58.5 54.890625 
Q 58.5 48.1875 55.375 44.234375 
Q 52.25 40.28125 46.1875 39.3125 
Q 53.46875 37.75 57.5 32.78125 
Q 61.53125 27.828125 61.53125 20.40625 
Q 61.53125 10.640625 54.890625 5.3125 
Q 48.25 0 35.984375 0 
L 9.8125 0 
z
" id="DejaVuSans-66"/>
     <path d="M 54.890625 33.015625 
L 54.890625 0 
L 45.90625 0 
L 45.90625 32.71875 
Q 45.90625 40.484375 42.875 44.328125 
Q 39.84375 48.1875 33.796875 48.1875 
Q 26.515625 48.1875 22.3125 43.546875 
Q 18.109375 38.921875 18.109375 30.90625 
L 18.109375 0 
L 9.078125 0 
L 9.078125 54.6875 
L 18.109375 54.6875 
L 18.109375 46.1875 
Q 21.34375 51.125 25.703125 53.5625 
Q 30.078125 56 35.796875 56 
Q 45.21875 56 50.046875 50.171875 
Q 54.890625 44.34375 54.890625 33.015625 
z
" id="DejaVuSans-110"/>
     <path d="M 48.78125 52.59375 
L 48.78125 44.1875 
Q 44.96875 46.296875 41.140625 47.34375 
Q 37.3125 48.390625 33.40625 48.390625 
Q 24.65625 48.390625 19.8125 42.84375 
Q 14.984375 37.3125 14.984375 27.296875 
Q 14.984375 17.28125 19.8125 11.734375 
Q 24.65625 6.203125 33.40625 6.203125 
Q 37.3125 6.203125 41.140625 7.25 
Q 44.96875 8.296875 48.78125 10.40625 
L 48.78125 2.09375 
Q 45.015625 0.34375 40.984375 -0.53125 
Q 36.96875 -1.421875 32.421875 -1.421875 
Q 20.0625 -1.421875 12.78125 6.34375 
Q 5.515625 14.109375 5.515625 27.296875 
Q 5.515625 40.671875 12.859375 48.328125 
Q 20.21875 56 33.015625 56 
Q 37.15625 56 41.109375 55.140625 
Q 45.0625 54.296875 48.78125 52.59375 
z
" id="DejaVuSans-99"/>
     <path d="M 54.890625 33.015625 
L 54.890625 0 
L 45.90625 0 
L 45.90625 32.71875 
Q 45.90625 40.484375 42.875 44.328125 
Q 39.84375 48.1875 33.796875 48.1875 
Q 26.515625 48.1875 22.3125 43.546875 
Q 18.109375 38.921875 18.109375 30.90625 
L 18.109375 0 
L 9.078125 0 
L 9.078125 75.984375 
L 18.109375 75.984375 
L 18.109375 46.1875 
Q 21.34375 51.125 25.703125 53.5625 
Q 30.078125 56 35.796875 56 
Q 45.21875 56 50.046875 50.171875 
Q 54.890625 44.34375 54.890625 33.015625 
z
" id="DejaVuSans-104"/>
     <path d="M 41.109375 46.296875 
Q 39.59375 47.171875 37.8125 47.578125 
Q 36.03125 48 33.890625 48 
Q 26.265625 48 22.1875 43.046875 
Q 18.109375 38.09375 18.109375 28.8125 
L 18.109375 0 
L 9.078125 0 
L 9.078125 54.6875 
L 18.109375 54.6875 
L 18.109375 46.1875 
Q 20.953125 51.171875 25.484375 53.578125 
Q 30.03125 56 36.53125 56 
Q 37.453125 56 38.578125 55.875 
Q 39.703125 55.765625 41.0625 55.515625 
z
" id="DejaVuSans-114"/>
     <path d="M 9.078125 75.984375 
L 18.109375 75.984375 
L 18.109375 31.109375 
L 44.921875 54.6875 
L 56.390625 54.6875 
L 27.390625 29.109375 
L 57.625 0 
L 45.90625 0 
L 18.109375 26.703125 
L 18.109375 0 
L 9.078125 0 
z
" id="DejaVuSans-107"/>
     <path d="M 4.890625 31.390625 
L 31.203125 31.390625 
L 31.203125 23.390625 
L 4.890625 23.390625 
z
" id="DejaVuSans-45"/>
     <path d="M 53.515625 70.515625 
L 53.515625 60.890625 
Q 47.90625 63.578125 42.921875 64.890625 
Q 37.9375 66.21875 33.296875 66.21875 
Q 25.25 66.21875 20.875 63.09375 
Q 16.5 59.96875 16.5 54.203125 
Q 16.5 49.359375 19.40625 46.890625 
Q 22.3125 44.4375 30.421875 42.921875 
L 36.375 41.703125 
Q 47.40625 39.59375 52.65625 34.296875 
Q 57.90625 29 57.90625 20.125 
Q 57.90625 9.515625 50.796875 4.046875 
Q 43.703125 -1.421875 29.984375 -1.421875 
Q 24.8125 -1.421875 18.96875 -0.25 
Q 13.140625 0.921875 6.890625 3.21875 
L 6.890625 13.375 
Q 12.890625 10.015625 18.65625 8.296875 
Q 24.421875 6.59375 29.984375 6.59375 
Q 38.421875 6.59375 43.015625 9.90625 
Q 47.609375 13.234375 47.609375 19.390625 
Q 47.609375 24.75 44.3125 27.78125 
Q 41.015625 30.8125 33.5 32.328125 
L 27.484375 33.5 
Q 16.453125 35.6875 11.515625 40.375 
Q 6.59375 45.0625 6.59375 53.421875 
Q 6.59375 63.09375 13.40625 68.65625 
Q 20.21875 74.21875 32.171875 74.21875 
Q 37.3125 74.21875 42.625 73.28125 
Q 47.953125 72.359375 53.515625 70.515625 
z
" id="DejaVuSans-83"/>
     <path d="M 10.6875 12.40625 
L 21 12.40625 
L 21 0 
L 10.6875 0 
z
" id="DejaVuSans-46"/>
     <path d="M 2.984375 54.6875 
L 12.5 54.6875 
L 29.59375 8.796875 
L 46.6875 54.6875 
L 56.203125 54.6875 
L 35.6875 0 
L 23.484375 0 
z
" id="DejaVuSans-118"/>
    </defs>
    <g transform="translate(371.555625 45.84)scale(0.12 -0.12)">
     <use xlink:href="#DejaVuSans-65"/>
     <use x="68.408203" xlink:href="#DejaVuSans-52"/>
     <use x="132.03125" xlink:href="#DejaVuSans-66"/>
     <use x="200.634766" xlink:href="#DejaVuSans-101"/>
     <use x="262.158203" xlink:href="#DejaVuSans-110"/>
     <use x="325.537109" xlink:href="#DejaVuSans-99"/>
     <use x="380.517578" xlink:href="#DejaVuSans-104"/>
     <use x="443.896484" xlink:href="#DejaVuSans-109"/>
     <use x="541.308594" xlink:href="#DejaVuSans-97"/>
     <use x="602.587891" xlink:href="#DejaVuSans-114"/>
     <use x="643.701172" xlink:href="#DejaVuSans-107"/>
     <use x="701.611328" xlink:href="#DejaVuSans-45"/>
     <use x="737.554688" xlink:href="#DejaVuSans-84"/>
     <use x="798.638672" xlink:href="#DejaVuSans-83"/>
     <use x="862.115234" xlink:href="#DejaVuSans-50"/>
     <use x="925.738281" xlink:href="#DejaVuSans-52"/>
     <use x="989.361328" xlink:href="#DejaVuSans-46"/>
     <use x="1021.148438" xlink:href="#DejaVuSans-99"/>
     <use x="1076.128906" xlink:href="#DejaVuSans-115"/>
     <use x="1128.228516" xlink:href="#DejaVuSans-118"/>
    </g>
   </g>
   <g id="legend_1">
    <g id="patch_58">
     <path d="M 115 379.48 
L 174.315625 379.48 
Q 176.315625 379.48 176.315625 377.48 
L 176.315625 363.801875 
Q 176.315625 361.801875 174.315625 361.801875 
L 115 361.801875 
Q 113 361.801875 113 363.801875 
L 113 377.48 
Q 113 379.48 115 379.48 
z
" style="fill:#ffffff;opacity:0.8;stroke:#cccccc;stroke-linejoin:miter;"/>
    </g>
    <g id="line2d_18">
     <path d="M 117 369.900312 
L 137 369.900312 
" style="fill:none;stroke:#1f77b4;stroke-linecap:square;stroke-width:1.5;"/>
    </g>
    <g id="line2d_19"/>
    <g id="text_19">
     <!-- value -->
     <g transform="translate(145 373.400312)scale(0.1 -0.1)">
      <use xlink:href="#DejaVuSans-118"/>
      <use x="59.179688" xlink:href="#DejaVuSans-97"/>
      <use x="120.458984" xlink:href="#DejaVuSans-108"/>
      <use x="148.242188" xlink:href="#DejaVuSans-117"/>
      <use x="211.621094" xlink:href="#DejaVuSans-101"/>
     </g>
    </g>
   </g>
  </g>
 </g>
 <defs>
  <clipPath id="p63bfe28e54">
   <rect height="332.64" width="669.6" x="108" y="51.84"/>
  </clipPath>
 </defs>
</svg>
