<?xml version="1.0" encoding="utf-8" standalone="no"?>
<!DOCTYPE svg PUBLIC "-//W3C//DTD SVG 1.1//EN"
  "http://www.w3.org/Graphics/SVG/1.1/DTD/svg11.dtd">
<!-- Created with matplotlib (https://matplotlib.org/) -->
<svg height="432pt" version="1.1" viewBox="0 0 864 432" width="864pt" xmlns="http://www.w3.org/2000/svg" xmlns:xlink="http://www.w3.org/1999/xlink">
 <defs>
  <style type="text/css">
*{stroke-linecap:butt;stroke-linejoin:round;}
  </style>
 </defs>
 <g id="figure_1">
  <g id="patch_1">
   <path d="M 0 432 
L 864 432 
L 864 0 
L 0 0 
z
" style="fill:#ffffff;"/>
  </g>
  <g id="axes_1">
   <g id="patch_2">
    <path d="M 108 384.48 
L 777.6 384.48 
L 777.6 51.84 
L 108 51.84 
z
" style="fill:#ffffff;"/>
   </g>
   <g id="patch_3">
    <path clip-path="url(#pdd32de4f76)" d="M 138.436364 384.48 
L 138.436364 51.84 
L 374.096118 51.84 
L 374.096118 384.48 
z
" style="fill:#0000ff;opacity:0.05;"/>
   </g>
   <g id="patch_4">
    <path clip-path="url(#pdd32de4f76)" d="M 374.096118 384.48 
L 374.096118 51.84 
L 745.713422 51.84 
L 745.713422 384.48 
z
" style="fill:#ff0000;opacity:0.08;"/>
   </g>
   <g id="patch_5">
    <path clip-path="url(#pdd32de4f76)" d="M 138.436364 384.48 
L 138.436364 51.84 
L 147.5002 51.84 
L 147.5002 384.48 
z
" style="fill:#008000;opacity:0.04;"/>
   </g>
   <g id="patch_6">
    <path clip-path="url(#pdd32de4f76)" d="M 156.564037 384.48 
L 156.564037 51.84 
L 165.627874 51.84 
L 165.627874 384.48 
z
" style="fill:#008000;opacity:0.04;"/>
   </g>
   <g id="patch_7">
    <path clip-path="url(#pdd32de4f76)" d="M 174.69171 384.48 
L 174.69171 51.84 
L 183.755547 51.84 
L 183.755547 384.48 
z
" style="fill:#008000;opacity:0.04;"/>
   </g>
   <g id="patch_8">
    <path clip-path="url(#pdd32de4f76)" d="M 192.819384 384.48 
L 192.819384 51.84 
L 201.883221 51.84 
L 201.883221 384.48 
z
" style="fill:#008000;opacity:0.04;"/>
   </g>
   <g id="patch_9">
    <path clip-path="url(#pdd32de4f76)" d="M 210.947057 384.48 
L 210.947057 51.84 
L 220.010894 51.84 
L 220.010894 384.48 
z
" style="fill:#008000;opacity:0.04;"/>
   </g>
   <g id="patch_10">
    <path clip-path="url(#pdd32de4f76)" d="M 446.606811 384.48 
L 446.606811 371.1744 
L 455.670648 371.1744 
L 455.670648 384.48 
z
" style="fill:#ff6600;"/>
   </g>
   <g id="patch_11">
    <path clip-path="url(#pdd32de4f76)" d="M 455.670648 384.48 
L 455.670648 371.1744 
L 464.734485 371.1744 
L 464.734485 384.48 
z
" style="fill:#ff6600;"/>
   </g>
   <g id="patch_12">
    <path clip-path="url(#pdd32de4f76)" d="M 229.074731 384.48 
L 229.074731 51.84 
L 238.138567 51.84 
L 238.138567 384.48 
z
" style="fill:#008000;opacity:0.04;"/>
   </g>
   <g id="patch_13">
    <path clip-path="url(#pdd32de4f76)" d="M 229.074731 371.1744 
L 229.074731 51.84 
L 238.138567 51.84 
L 238.138567 371.1744 
z
" style="fill:#008000;opacity:0.5;"/>
   </g>
   <g id="patch_14">
    <path clip-path="url(#pdd32de4f76)" d="M 247.202404 384.48 
L 247.202404 51.84 
L 256.266241 51.84 
L 256.266241 384.48 
z
" style="fill:#008000;opacity:0.04;"/>
   </g>
   <g id="patch_15">
    <path clip-path="url(#pdd32de4f76)" d="M 265.330077 384.48 
L 265.330077 51.84 
L 274.393914 51.84 
L 274.393914 384.48 
z
" style="fill:#008000;opacity:0.04;"/>
   </g>
   <g id="patch_16">
    <path clip-path="url(#pdd32de4f76)" d="M 283.457751 384.48 
L 283.457751 51.84 
L 292.521588 51.84 
L 292.521588 384.48 
z
" style="fill:#008000;opacity:0.04;"/>
   </g>
   <g id="patch_17">
    <path clip-path="url(#pdd32de4f76)" d="M 283.457751 371.1744 
L 283.457751 51.84 
L 292.521588 51.84 
L 292.521588 371.1744 
z
" style="fill:#008000;opacity:0.5;"/>
   </g>
   <g id="patch_18">
    <path clip-path="url(#pdd32de4f76)" d="M 283.457751 384.48 
L 283.457751 371.1744 
L 292.521588 371.1744 
L 292.521588 384.48 
z
" style="fill:#ffe500;"/>
   </g>
   <g id="patch_19">
    <path clip-path="url(#pdd32de4f76)" d="M 301.585424 384.48 
L 301.585424 51.84 
L 310.649261 51.84 
L 310.649261 384.48 
z
" style="fill:#008000;opacity:0.04;"/>
   </g>
   <g id="patch_20">
    <path clip-path="url(#pdd32de4f76)" d="M 301.585424 371.1744 
L 301.585424 51.84 
L 310.649261 51.84 
L 310.649261 371.1744 
z
" style="fill:#008000;opacity:0.5;"/>
   </g>
   <g id="patch_21">
    <path clip-path="url(#pdd32de4f76)" d="M 319.713098 384.48 
L 319.713098 51.84 
L 328.776934 51.84 
L 328.776934 384.48 
z
" style="fill:#008000;opacity:0.04;"/>
   </g>
   <g id="patch_22">
    <path clip-path="url(#pdd32de4f76)" d="M 319.713098 371.1744 
L 319.713098 51.84 
L 328.776934 51.84 
L 328.776934 371.1744 
z
" style="fill:#008000;opacity:0.5;"/>
   </g>
   <g id="patch_23">
    <path clip-path="url(#pdd32de4f76)" d="M 328.776934 371.1744 
L 328.776934 51.84 
L 337.840771 51.84 
L 337.840771 371.1744 
z
" style="fill:#008000;opacity:0.5;"/>
   </g>
   <g id="patch_24">
    <path clip-path="url(#pdd32de4f76)" d="M 328.776934 384.48 
L 328.776934 371.1744 
L 337.840771 371.1744 
L 337.840771 384.48 
z
" style="fill:#ffe500;"/>
   </g>
   <g id="patch_25">
    <path clip-path="url(#pdd32de4f76)" d="M 337.840771 384.48 
L 337.840771 51.84 
L 346.904608 51.84 
L 346.904608 384.48 
z
" style="fill:#008000;opacity:0.04;"/>
   </g>
   <g id="patch_26">
    <path clip-path="url(#pdd32de4f76)" d="M 355.968444 384.48 
L 355.968444 51.84 
L 365.032281 51.84 
L 365.032281 384.48 
z
" style="fill:#008000;opacity:0.04;"/>
   </g>
   <g id="patch_27">
    <path clip-path="url(#pdd32de4f76)" d="M 374.096118 384.48 
L 374.096118 51.84 
L 383.159955 51.84 
L 383.159955 384.48 
z
" style="fill:#008000;opacity:0.04;"/>
   </g>
   <g id="patch_28">
    <path clip-path="url(#pdd32de4f76)" d="M 392.223791 384.48 
L 392.223791 51.84 
L 401.287628 51.84 
L 401.287628 384.48 
z
" style="fill:#008000;opacity:0.04;"/>
   </g>
   <g id="patch_29">
    <path clip-path="url(#pdd32de4f76)" d="M 410.351465 384.48 
L 410.351465 51.84 
L 419.415301 51.84 
L 419.415301 384.48 
z
" style="fill:#008000;opacity:0.04;"/>
   </g>
   <g id="patch_30">
    <path clip-path="url(#pdd32de4f76)" d="M 428.479138 384.48 
L 428.479138 51.84 
L 437.542975 51.84 
L 437.542975 384.48 
z
" style="fill:#008000;opacity:0.04;"/>
   </g>
   <g id="patch_31">
    <path clip-path="url(#pdd32de4f76)" d="M 437.542975 371.1744 
L 437.542975 51.84 
L 446.606811 51.84 
L 446.606811 371.1744 
z
" style="fill:#008000;opacity:0.5;"/>
   </g>
   <g id="patch_32">
    <path clip-path="url(#pdd32de4f76)" d="M 437.542975 371.1744 
L 437.542975 357.8688 
L 446.606811 357.8688 
L 446.606811 371.1744 
z
" style="fill:#ff00ff;"/>
   </g>
   <g id="patch_33">
    <path clip-path="url(#pdd32de4f76)" d="M 446.606811 384.48 
L 446.606811 51.84 
L 455.670648 51.84 
L 455.670648 384.48 
z
" style="fill:#008000;opacity:0.04;"/>
   </g>
   <g id="patch_34">
    <path clip-path="url(#pdd32de4f76)" d="M 464.734485 384.48 
L 464.734485 51.84 
L 473.798322 51.84 
L 473.798322 384.48 
z
" style="fill:#008000;opacity:0.04;"/>
   </g>
   <g id="patch_35">
    <path clip-path="url(#pdd32de4f76)" d="M 482.862158 384.48 
L 482.862158 51.84 
L 491.925995 51.84 
L 491.925995 384.48 
z
" style="fill:#008000;opacity:0.04;"/>
   </g>
   <g id="patch_36">
    <path clip-path="url(#pdd32de4f76)" d="M 500.989832 384.48 
L 500.989832 51.84 
L 510.053668 51.84 
L 510.053668 384.48 
z
" style="fill:#008000;opacity:0.04;"/>
   </g>
   <g id="patch_37">
    <path clip-path="url(#pdd32de4f76)" d="M 519.117505 384.48 
L 519.117505 51.84 
L 528.181342 51.84 
L 528.181342 384.48 
z
" style="fill:#008000;opacity:0.04;"/>
   </g>
   <g id="patch_38">
    <path clip-path="url(#pdd32de4f76)" d="M 537.245178 384.48 
L 537.245178 51.84 
L 546.309015 51.84 
L 546.309015 384.48 
z
" style="fill:#008000;opacity:0.04;"/>
   </g>
   <g id="patch_39">
    <path clip-path="url(#pdd32de4f76)" d="M 555.372852 384.48 
L 555.372852 51.84 
L 564.436689 51.84 
L 564.436689 384.48 
z
" style="fill:#008000;opacity:0.04;"/>
   </g>
   <g id="patch_40">
    <path clip-path="url(#pdd32de4f76)" d="M 573.500525 384.48 
L 573.500525 51.84 
L 582.564362 51.84 
L 582.564362 384.48 
z
" style="fill:#008000;opacity:0.04;"/>
   </g>
   <g id="patch_41">
    <path clip-path="url(#pdd32de4f76)" d="M 591.628199 384.48 
L 591.628199 51.84 
L 600.692035 51.84 
L 600.692035 384.48 
z
" style="fill:#008000;opacity:0.04;"/>
   </g>
   <g id="patch_42">
    <path clip-path="url(#pdd32de4f76)" d="M 600.692035 371.1744 
L 600.692035 51.84 
L 609.755872 51.84 
L 609.755872 371.1744 
z
" style="fill:#008000;opacity:0.5;"/>
   </g>
   <g id="patch_43">
    <path clip-path="url(#pdd32de4f76)" d="M 609.755872 384.48 
L 609.755872 51.84 
L 618.819709 51.84 
L 618.819709 384.48 
z
" style="fill:#008000;opacity:0.04;"/>
   </g>
   <g id="patch_44">
    <path clip-path="url(#pdd32de4f76)" d="M 627.883545 384.48 
L 627.883545 51.84 
L 636.947382 51.84 
L 636.947382 384.48 
z
" style="fill:#008000;opacity:0.04;"/>
   </g>
   <g id="patch_45">
    <path clip-path="url(#pdd32de4f76)" d="M 646.011219 384.48 
L 646.011219 51.84 
L 655.075055 51.84 
L 655.075055 384.48 
z
" style="fill:#008000;opacity:0.04;"/>
   </g>
   <g id="patch_46">
    <path clip-path="url(#pdd32de4f76)" d="M 664.138892 384.48 
L 664.138892 51.84 
L 673.202729 51.84 
L 673.202729 384.48 
z
" style="fill:#008000;opacity:0.04;"/>
   </g>
   <g id="patch_47">
    <path clip-path="url(#pdd32de4f76)" d="M 682.266566 384.48 
L 682.266566 51.84 
L 691.330402 51.84 
L 691.330402 384.48 
z
" style="fill:#008000;opacity:0.04;"/>
   </g>
   <g id="patch_48">
    <path clip-path="url(#pdd32de4f76)" d="M 700.394239 384.48 
L 700.394239 51.84 
L 709.458076 51.84 
L 709.458076 384.48 
z
" style="fill:#008000;opacity:0.04;"/>
   </g>
   <g id="patch_49">
    <path clip-path="url(#pdd32de4f76)" d="M 718.521912 384.48 
L 718.521912 51.84 
L 727.585749 51.84 
L 727.585749 384.48 
z
" style="fill:#008000;opacity:0.04;"/>
   </g>
   <g id="patch_50">
    <path clip-path="url(#pdd32de4f76)" d="M 736.649586 384.48 
L 736.649586 51.84 
L 745.713422 51.84 
L 745.713422 384.48 
z
" style="fill:#008000;opacity:0.04;"/>
   </g>
   <g id="matplotlib.axis_1">
    <g id="xtick_1">
     <g id="line2d_1">
      <defs>
       <path d="M 0 0 
L 0 3.5 
" id="m40d22481c6" style="stroke:#000000;stroke-width:0.8;"/>
      </defs>
      <g>
       <use style="stroke:#000000;stroke-width:0.8;" x="138.436364" xlink:href="#m40d22481c6" y="384.48"/>
      </g>
     </g>
     <g id="text_1">
      <!-- 0 -->
      <defs>
       <path d="M 31.78125 66.40625 
Q 24.171875 66.40625 20.328125 58.90625 
Q 16.5 51.421875 16.5 36.375 
Q 16.5 21.390625 20.328125 13.890625 
Q 24.171875 6.390625 31.78125 6.390625 
Q 39.453125 6.390625 43.28125 13.890625 
Q 47.125 21.390625 47.125 36.375 
Q 47.125 51.421875 43.28125 58.90625 
Q 39.453125 66.40625 31.78125 66.40625 
z
M 31.78125 74.21875 
Q 44.046875 74.21875 50.515625 64.515625 
Q 56.984375 54.828125 56.984375 36.375 
Q 56.984375 17.96875 50.515625 8.265625 
Q 44.046875 -1.421875 31.78125 -1.421875 
Q 19.53125 -1.421875 13.0625 8.265625 
Q 6.59375 17.96875 6.59375 36.375 
Q 6.59375 54.828125 13.0625 64.515625 
Q 19.53125 74.21875 31.78125 74.21875 
z
" id="DejaVuSans-48"/>
      </defs>
      <g transform="translate(135.255114 399.078438)scale(0.1 -0.1)">
       <use xlink:href="#DejaVuSans-48"/>
      </g>
     </g>
    </g>
    <g id="xtick_2">
     <g id="line2d_2">
      <g>
       <use style="stroke:#000000;stroke-width:0.8;" x="229.074731" xlink:href="#m40d22481c6" y="384.48"/>
      </g>
     </g>
     <g id="text_2">
      <!-- 250 -->
      <defs>
       <path d="M 19.1875 8.296875 
L 53.609375 8.296875 
L 53.609375 0 
L 7.328125 0 
L 7.328125 8.296875 
Q 12.9375 14.109375 22.625 23.890625 
Q 32.328125 33.6875 34.8125 36.53125 
Q 39.546875 41.84375 41.421875 45.53125 
Q 43.3125 49.21875 43.3125 52.78125 
Q 43.3125 58.59375 39.234375 62.25 
Q 35.15625 65.921875 28.609375 65.921875 
Q 23.96875 65.921875 18.8125 64.3125 
Q 13.671875 62.703125 7.8125 59.421875 
L 7.8125 69.390625 
Q 13.765625 71.78125 18.9375 73 
Q 24.125 74.21875 28.421875 74.21875 
Q 39.75 74.21875 46.484375 68.546875 
Q 53.21875 62.890625 53.21875 53.421875 
Q 53.21875 48.921875 51.53125 44.890625 
Q 49.859375 40.875 45.40625 35.40625 
Q 44.1875 33.984375 37.640625 27.21875 
Q 31.109375 20.453125 19.1875 8.296875 
z
" id="DejaVuSans-50"/>
       <path d="M 10.796875 72.90625 
L 49.515625 72.90625 
L 49.515625 64.59375 
L 19.828125 64.59375 
L 19.828125 46.734375 
Q 21.96875 47.46875 24.109375 47.828125 
Q 26.265625 48.1875 28.421875 48.1875 
Q 40.625 48.1875 47.75 41.5 
Q 54.890625 34.8125 54.890625 23.390625 
Q 54.890625 11.625 47.5625 5.09375 
Q 40.234375 -1.421875 26.90625 -1.421875 
Q 22.3125 -1.421875 17.546875 -0.640625 
Q 12.796875 0.140625 7.71875 1.703125 
L 7.71875 11.625 
Q 12.109375 9.234375 16.796875 8.0625 
Q 21.484375 6.890625 26.703125 6.890625 
Q 35.15625 6.890625 40.078125 11.328125 
Q 45.015625 15.765625 45.015625 23.390625 
Q 45.015625 31 40.078125 35.4375 
Q 35.15625 39.890625 26.703125 39.890625 
Q 22.75 39.890625 18.8125 39.015625 
Q 14.890625 38.140625 10.796875 36.28125 
z
" id="DejaVuSans-53"/>
      </defs>
      <g transform="translate(219.530981 399.078438)scale(0.1 -0.1)">
       <use xlink:href="#DejaVuSans-50"/>
       <use x="63.623047" xlink:href="#DejaVuSans-53"/>
       <use x="127.246094" xlink:href="#DejaVuSans-48"/>
      </g>
     </g>
    </g>
    <g id="xtick_3">
     <g id="line2d_3">
      <g>
       <use style="stroke:#000000;stroke-width:0.8;" x="319.713098" xlink:href="#m40d22481c6" y="384.48"/>
      </g>
     </g>
     <g id="text_3">
      <!-- 500 -->
      <g transform="translate(310.169348 399.078438)scale(0.1 -0.1)">
       <use xlink:href="#DejaVuSans-53"/>
       <use x="63.623047" xlink:href="#DejaVuSans-48"/>
       <use x="127.246094" xlink:href="#DejaVuSans-48"/>
      </g>
     </g>
    </g>
    <g id="xtick_4">
     <g id="line2d_4">
      <g>
       <use style="stroke:#000000;stroke-width:0.8;" x="410.351465" xlink:href="#m40d22481c6" y="384.48"/>
      </g>
     </g>
     <g id="text_4">
      <!-- 750 -->
      <defs>
       <path d="M 8.203125 72.90625 
L 55.078125 72.90625 
L 55.078125 68.703125 
L 28.609375 0 
L 18.3125 0 
L 43.21875 64.59375 
L 8.203125 64.59375 
z
" id="DejaVuSans-55"/>
      </defs>
      <g transform="translate(400.807715 399.078438)scale(0.1 -0.1)">
       <use xlink:href="#DejaVuSans-55"/>
       <use x="63.623047" xlink:href="#DejaVuSans-53"/>
       <use x="127.246094" xlink:href="#DejaVuSans-48"/>
      </g>
     </g>
    </g>
    <g id="xtick_5">
     <g id="line2d_5">
      <g>
       <use style="stroke:#000000;stroke-width:0.8;" x="500.989832" xlink:href="#m40d22481c6" y="384.48"/>
      </g>
     </g>
     <g id="text_5">
      <!-- 1000 -->
      <defs>
       <path d="M 12.40625 8.296875 
L 28.515625 8.296875 
L 28.515625 63.921875 
L 10.984375 60.40625 
L 10.984375 69.390625 
L 28.421875 72.90625 
L 38.28125 72.90625 
L 38.28125 8.296875 
L 54.390625 8.296875 
L 54.390625 0 
L 12.40625 0 
z
" id="DejaVuSans-49"/>
      </defs>
      <g transform="translate(488.264832 399.078438)scale(0.1 -0.1)">
       <use xlink:href="#DejaVuSans-49"/>
       <use x="63.623047" xlink:href="#DejaVuSans-48"/>
       <use x="127.246094" xlink:href="#DejaVuSans-48"/>
       <use x="190.869141" xlink:href="#DejaVuSans-48"/>
      </g>
     </g>
    </g>
    <g id="xtick_6">
     <g id="line2d_6">
      <g>
       <use style="stroke:#000000;stroke-width:0.8;" x="591.628199" xlink:href="#m40d22481c6" y="384.48"/>
      </g>
     </g>
     <g id="text_6">
      <!-- 1250 -->
      <g transform="translate(578.903199 399.078438)scale(0.1 -0.1)">
       <use xlink:href="#DejaVuSans-49"/>
       <use x="63.623047" xlink:href="#DejaVuSans-50"/>
       <use x="127.246094" xlink:href="#DejaVuSans-53"/>
       <use x="190.869141" xlink:href="#DejaVuSans-48"/>
      </g>
     </g>
    </g>
    <g id="xtick_7">
     <g id="line2d_7">
      <g>
       <use style="stroke:#000000;stroke-width:0.8;" x="682.266566" xlink:href="#m40d22481c6" y="384.48"/>
      </g>
     </g>
     <g id="text_7">
      <!-- 1500 -->
      <g transform="translate(669.541566 399.078438)scale(0.1 -0.1)">
       <use xlink:href="#DejaVuSans-49"/>
       <use x="63.623047" xlink:href="#DejaVuSans-53"/>
       <use x="127.246094" xlink:href="#DejaVuSans-48"/>
       <use x="190.869141" xlink:href="#DejaVuSans-48"/>
      </g>
     </g>
    </g>
    <g id="xtick_8">
     <g id="line2d_8">
      <g>
       <use style="stroke:#000000;stroke-width:0.8;" x="772.904933" xlink:href="#m40d22481c6" y="384.48"/>
      </g>
     </g>
     <g id="text_8">
      <!-- 1750 -->
      <g transform="translate(760.179933 399.078438)scale(0.1 -0.1)">
       <use xlink:href="#DejaVuSans-49"/>
       <use x="63.623047" xlink:href="#DejaVuSans-55"/>
       <use x="127.246094" xlink:href="#DejaVuSans-53"/>
       <use x="190.869141" xlink:href="#DejaVuSans-48"/>
      </g>
     </g>
    </g>
    <g id="text_9">
     <!-- Timestamp -->
     <defs>
      <path d="M -0.296875 72.90625 
L 61.375 72.90625 
L 61.375 64.59375 
L 35.5 64.59375 
L 35.5 0 
L 25.59375 0 
L 25.59375 64.59375 
L -0.296875 64.59375 
z
" id="DejaVuSans-84"/>
      <path d="M 9.421875 54.6875 
L 18.40625 54.6875 
L 18.40625 0 
L 9.421875 0 
z
M 9.421875 75.984375 
L 18.40625 75.984375 
L 18.40625 64.59375 
L 9.421875 64.59375 
z
" id="DejaVuSans-105"/>
      <path d="M 52 44.1875 
Q 55.375 50.25 60.0625 53.125 
Q 64.75 56 71.09375 56 
Q 79.640625 56 84.28125 50.015625 
Q 88.921875 44.046875 88.921875 33.015625 
L 88.921875 0 
L 79.890625 0 
L 79.890625 32.71875 
Q 79.890625 40.578125 77.09375 44.375 
Q 74.3125 48.1875 68.609375 48.1875 
Q 61.625 48.1875 57.5625 43.546875 
Q 53.515625 38.921875 53.515625 30.90625 
L 53.515625 0 
L 44.484375 0 
L 44.484375 32.71875 
Q 44.484375 40.625 41.703125 44.40625 
Q 38.921875 48.1875 33.109375 48.1875 
Q 26.21875 48.1875 22.15625 43.53125 
Q 18.109375 38.875 18.109375 30.90625 
L 18.109375 0 
L 9.078125 0 
L 9.078125 54.6875 
L 18.109375 54.6875 
L 18.109375 46.1875 
Q 21.1875 51.21875 25.484375 53.609375 
Q 29.78125 56 35.6875 56 
Q 41.65625 56 45.828125 52.96875 
Q 50 49.953125 52 44.1875 
z
" id="DejaVuSans-109"/>
      <path d="M 56.203125 29.59375 
L 56.203125 25.203125 
L 14.890625 25.203125 
Q 15.484375 15.921875 20.484375 11.0625 
Q 25.484375 6.203125 34.421875 6.203125 
Q 39.59375 6.203125 44.453125 7.46875 
Q 49.3125 8.734375 54.109375 11.28125 
L 54.109375 2.78125 
Q 49.265625 0.734375 44.1875 -0.34375 
Q 39.109375 -1.421875 33.890625 -1.421875 
Q 20.796875 -1.421875 13.15625 6.1875 
Q 5.515625 13.8125 5.515625 26.8125 
Q 5.515625 40.234375 12.765625 48.109375 
Q 20.015625 56 32.328125 56 
Q 43.359375 56 49.78125 48.890625 
Q 56.203125 41.796875 56.203125 29.59375 
z
M 47.21875 32.234375 
Q 47.125 39.59375 43.09375 43.984375 
Q 39.0625 48.390625 32.421875 48.390625 
Q 24.90625 48.390625 20.390625 44.140625 
Q 15.875 39.890625 15.1875 32.171875 
z
" id="DejaVuSans-101"/>
      <path d="M 44.28125 53.078125 
L 44.28125 44.578125 
Q 40.484375 46.53125 36.375 47.5 
Q 32.28125 48.484375 27.875 48.484375 
Q 21.1875 48.484375 17.84375 46.4375 
Q 14.5 44.390625 14.5 40.28125 
Q 14.5 37.15625 16.890625 35.375 
Q 19.28125 33.59375 26.515625 31.984375 
L 29.59375 31.296875 
Q 39.15625 29.25 43.1875 25.515625 
Q 47.21875 21.78125 47.21875 15.09375 
Q 47.21875 7.46875 41.1875 3.015625 
Q 35.15625 -1.421875 24.609375 -1.421875 
Q 20.21875 -1.421875 15.453125 -0.5625 
Q 10.6875 0.296875 5.421875 2 
L 5.421875 11.28125 
Q 10.40625 8.6875 15.234375 7.390625 
Q 20.0625 6.109375 24.8125 6.109375 
Q 31.15625 6.109375 34.5625 8.28125 
Q 37.984375 10.453125 37.984375 14.40625 
Q 37.984375 18.0625 35.515625 20.015625 
Q 33.0625 21.96875 24.703125 23.78125 
L 21.578125 24.515625 
Q 13.234375 26.265625 9.515625 29.90625 
Q 5.8125 33.546875 5.8125 39.890625 
Q 5.8125 47.609375 11.28125 51.796875 
Q 16.75 56 26.8125 56 
Q 31.78125 56 36.171875 55.265625 
Q 40.578125 54.546875 44.28125 53.078125 
z
" id="DejaVuSans-115"/>
      <path d="M 18.3125 70.21875 
L 18.3125 54.6875 
L 36.8125 54.6875 
L 36.8125 47.703125 
L 18.3125 47.703125 
L 18.3125 18.015625 
Q 18.3125 11.328125 20.140625 9.421875 
Q 21.96875 7.515625 27.59375 7.515625 
L 36.8125 7.515625 
L 36.8125 0 
L 27.59375 0 
Q 17.1875 0 13.234375 3.875 
Q 9.28125 7.765625 9.28125 18.015625 
L 9.28125 47.703125 
L 2.6875 47.703125 
L 2.6875 54.6875 
L 9.28125 54.6875 
L 9.28125 70.21875 
z
" id="DejaVuSans-116"/>
      <path d="M 34.28125 27.484375 
Q 23.390625 27.484375 19.1875 25 
Q 14.984375 22.515625 14.984375 16.5 
Q 14.984375 11.71875 18.140625 8.90625 
Q 21.296875 6.109375 26.703125 6.109375 
Q 34.1875 6.109375 38.703125 11.40625 
Q 43.21875 16.703125 43.21875 25.484375 
L 43.21875 27.484375 
z
M 52.203125 31.203125 
L 52.203125 0 
L 43.21875 0 
L 43.21875 8.296875 
Q 40.140625 3.328125 35.546875 0.953125 
Q 30.953125 -1.421875 24.3125 -1.421875 
Q 15.921875 -1.421875 10.953125 3.296875 
Q 6 8.015625 6 15.921875 
Q 6 25.140625 12.171875 29.828125 
Q 18.359375 34.515625 30.609375 34.515625 
L 43.21875 34.515625 
L 43.21875 35.40625 
Q 43.21875 41.609375 39.140625 45 
Q 35.0625 48.390625 27.6875 48.390625 
Q 23 48.390625 18.546875 47.265625 
Q 14.109375 46.140625 10.015625 43.890625 
L 10.015625 52.203125 
Q 14.9375 54.109375 19.578125 55.046875 
Q 24.21875 56 28.609375 56 
Q 40.484375 56 46.34375 49.84375 
Q 52.203125 43.703125 52.203125 31.203125 
z
" id="DejaVuSans-97"/>
      <path d="M 18.109375 8.203125 
L 18.109375 -20.796875 
L 9.078125 -20.796875 
L 9.078125 54.6875 
L 18.109375 54.6875 
L 18.109375 46.390625 
Q 20.953125 51.265625 25.265625 53.625 
Q 29.59375 56 35.59375 56 
Q 45.5625 56 51.78125 48.09375 
Q 58.015625 40.1875 58.015625 27.296875 
Q 58.015625 14.40625 51.78125 6.484375 
Q 45.5625 -1.421875 35.59375 -1.421875 
Q 29.59375 -1.421875 25.265625 0.953125 
Q 20.953125 3.328125 18.109375 8.203125 
z
M 48.6875 27.296875 
Q 48.6875 37.203125 44.609375 42.84375 
Q 40.53125 48.484375 33.40625 48.484375 
Q 26.265625 48.484375 22.1875 42.84375 
Q 18.109375 37.203125 18.109375 27.296875 
Q 18.109375 17.390625 22.1875 11.75 
Q 26.265625 6.109375 33.40625 6.109375 
Q 40.53125 6.109375 44.609375 11.75 
Q 48.6875 17.390625 48.6875 27.296875 
z
" id="DejaVuSans-112"/>
     </defs>
     <g transform="translate(414.739062 412.756563)scale(0.1 -0.1)">
      <use xlink:href="#DejaVuSans-84"/>
      <use x="61.037109" xlink:href="#DejaVuSans-105"/>
      <use x="88.820312" xlink:href="#DejaVuSans-109"/>
      <use x="186.232422" xlink:href="#DejaVuSans-101"/>
      <use x="247.755859" xlink:href="#DejaVuSans-115"/>
      <use x="299.855469" xlink:href="#DejaVuSans-116"/>
      <use x="339.064453" xlink:href="#DejaVuSans-97"/>
      <use x="400.34375" xlink:href="#DejaVuSans-109"/>
      <use x="497.755859" xlink:href="#DejaVuSans-112"/>
     </g>
    </g>
   </g>
   <g id="matplotlib.axis_2">
    <g id="ytick_1">
     <g id="line2d_9">
      <defs>
       <path d="M 0 0 
L -3.5 0 
" id="mf0778f5448" style="stroke:#000000;stroke-width:0.8;"/>
      </defs>
      <g>
       <use style="stroke:#000000;stroke-width:0.8;" x="108" xlink:href="#mf0778f5448" y="350.623165"/>
      </g>
     </g>
     <g id="text_10">
      <!-- −1000 -->
      <defs>
       <path d="M 10.59375 35.5 
L 73.1875 35.5 
L 73.1875 27.203125 
L 10.59375 27.203125 
z
" id="DejaVuSans-8722"/>
      </defs>
      <g transform="translate(67.170312 354.422384)scale(0.1 -0.1)">
       <use xlink:href="#DejaVuSans-8722"/>
       <use x="83.789062" xlink:href="#DejaVuSans-49"/>
       <use x="147.412109" xlink:href="#DejaVuSans-48"/>
       <use x="211.035156" xlink:href="#DejaVuSans-48"/>
       <use x="274.658203" xlink:href="#DejaVuSans-48"/>
      </g>
     </g>
    </g>
    <g id="ytick_2">
     <g id="line2d_10">
      <g>
       <use style="stroke:#000000;stroke-width:0.8;" x="108" xlink:href="#mf0778f5448" y="280.920232"/>
      </g>
     </g>
     <g id="text_11">
      <!-- −500 -->
      <g transform="translate(73.532813 284.719451)scale(0.1 -0.1)">
       <use xlink:href="#DejaVuSans-8722"/>
       <use x="83.789062" xlink:href="#DejaVuSans-53"/>
       <use x="147.412109" xlink:href="#DejaVuSans-48"/>
       <use x="211.035156" xlink:href="#DejaVuSans-48"/>
      </g>
     </g>
    </g>
    <g id="ytick_3">
     <g id="line2d_11">
      <g>
       <use style="stroke:#000000;stroke-width:0.8;" x="108" xlink:href="#mf0778f5448" y="211.217299"/>
      </g>
     </g>
     <g id="text_12">
      <!-- 0 -->
      <g transform="translate(94.6375 215.016518)scale(0.1 -0.1)">
       <use xlink:href="#DejaVuSans-48"/>
      </g>
     </g>
    </g>
    <g id="ytick_4">
     <g id="line2d_12">
      <g>
       <use style="stroke:#000000;stroke-width:0.8;" x="108" xlink:href="#mf0778f5448" y="141.514366"/>
      </g>
     </g>
     <g id="text_13">
      <!-- 500 -->
      <g transform="translate(81.9125 145.313585)scale(0.1 -0.1)">
       <use xlink:href="#DejaVuSans-53"/>
       <use x="63.623047" xlink:href="#DejaVuSans-48"/>
       <use x="127.246094" xlink:href="#DejaVuSans-48"/>
      </g>
     </g>
    </g>
    <g id="ytick_5">
     <g id="line2d_13">
      <g>
       <use style="stroke:#000000;stroke-width:0.8;" x="108" xlink:href="#mf0778f5448" y="71.811433"/>
      </g>
     </g>
     <g id="text_14">
      <!-- 1000 -->
      <g transform="translate(75.55 75.610652)scale(0.1 -0.1)">
       <use xlink:href="#DejaVuSans-49"/>
       <use x="63.623047" xlink:href="#DejaVuSans-48"/>
       <use x="127.246094" xlink:href="#DejaVuSans-48"/>
       <use x="190.869141" xlink:href="#DejaVuSans-48"/>
      </g>
     </g>
    </g>
    <g id="text_15">
     <!-- Value -->
     <defs>
      <path d="M 28.609375 0 
L 0.78125 72.90625 
L 11.078125 72.90625 
L 34.1875 11.53125 
L 57.328125 72.90625 
L 67.578125 72.90625 
L 39.796875 0 
z
" id="DejaVuSans-86"/>
      <path d="M 9.421875 75.984375 
L 18.40625 75.984375 
L 18.40625 0 
L 9.421875 0 
z
" id="DejaVuSans-108"/>
      <path d="M 8.5 21.578125 
L 8.5 54.6875 
L 17.484375 54.6875 
L 17.484375 21.921875 
Q 17.484375 14.15625 20.5 10.265625 
Q 23.53125 6.390625 29.59375 6.390625 
Q 36.859375 6.390625 41.078125 11.03125 
Q 45.3125 15.671875 45.3125 23.6875 
L 45.3125 54.6875 
L 54.296875 54.6875 
L 54.296875 0 
L 45.3125 0 
L 45.3125 8.40625 
Q 42.046875 3.421875 37.71875 1 
Q 33.40625 -1.421875 27.6875 -1.421875 
Q 18.265625 -1.421875 13.375 4.4375 
Q 8.5 10.296875 8.5 21.578125 
z
M 31.109375 56 
z
" id="DejaVuSans-117"/>
     </defs>
     <g transform="translate(61.090625 232.273281)rotate(-90)scale(0.1 -0.1)">
      <use xlink:href="#DejaVuSans-86"/>
      <use x="68.298828" xlink:href="#DejaVuSans-97"/>
      <use x="129.578125" xlink:href="#DejaVuSans-108"/>
      <use x="157.361328" xlink:href="#DejaVuSans-117"/>
      <use x="220.740234" xlink:href="#DejaVuSans-101"/>
     </g>
    </g>
   </g>
   <g id="line2d_14">
    <path clip-path="url(#pdd32de4f76)" d="M 138.436364 219.102668 
L 139.161471 117.329508 
L 139.524024 115.055577 
L 139.886578 103.862866 
L 140.611684 150.046504 
L 140.974238 202.496621 
L 141.336791 218.010763 
L 141.699345 240.921825 
L 142.061898 236.000009 
L 142.424452 205.265816 
L 142.787005 194.45961 
L 143.149559 158.824505 
L 143.512112 159.221446 
L 143.874666 152.233597 
L 144.237219 165.45946 
L 144.599773 198.189024 
L 144.962326 245.749077 
L 145.32488 264.323157 
L 145.687433 304.274624 
L 146.049986 272.106361 
L 146.41254 265.431846 
L 147.137647 194.659347 
L 147.5002 115.370048 
L 147.862754 100.718048 
L 148.225307 91.452129 
L 148.587861 75.294978 
L 149.312968 124.409239 
L 149.675521 176.665524 
L 150.400628 224.908033 
L 151.125735 200.851039 
L 151.488288 197.384874 
L 151.850842 152.531409 
L 152.213395 161.710666 
L 152.575949 151.79624 
L 152.938502 154.404758 
L 153.301056 168.080389 
L 153.663609 230.644714 
L 154.026163 248.402504 
L 154.388716 272.2204 
L 154.75127 285.757917 
L 155.113823 277.884183 
L 155.476377 240.940972 
L 155.83893 171.948406 
L 156.201484 143.713202 
L 156.564037 128.327124 
L 156.926591 74.599844 
L 157.289144 68.1586 
L 158.014251 116.426863 
L 158.376804 179.262516 
L 158.739358 190.732804 
L 159.101911 214.900852 
L 159.464465 212.14989 
L 159.827018 222.738584 
L 160.552125 168.449903 
L 160.914679 141.031705 
L 161.277232 131.437035 
L 161.639786 177.359698 
L 162.364893 226.669557 
L 162.727446 268.182239 
L 163.089999 290.057288 
L 163.452553 301.774785 
L 164.17766 249.502905 
L 164.902767 144.248146 
L 165.26532 126.268537 
L 165.627874 94.917264 
L 165.990427 87.110659 
L 167.440641 226.456786 
L 167.803195 231.851186 
L 168.165748 242.519118 
L 168.528301 223.716566 
L 168.890855 213.049034 
L 169.253408 189.233085 
L 169.615962 181.238689 
L 169.978515 179.862246 
L 170.341069 219.271723 
L 170.703622 205.254274 
L 171.066176 256.980929 
L 171.428729 277.559427 
L 171.791283 334.085612 
L 172.153836 322.503901 
L 172.51639 314.738072 
L 173.241497 228.753789 
L 173.60405 169.280002 
L 173.966603 139.259779 
L 174.329157 144.639641 
L 174.69171 123.119514 
L 175.779371 214.839046 
L 176.141924 259.187164 
L 176.504478 269.410875 
L 176.867031 292.709598 
L 177.954692 204.817483 
L 178.317245 188.379462 
L 178.679799 209.743934 
L 179.042352 220.711678 
L 179.767459 301.988034 
L 180.130012 315.71822 
L 180.492566 360.541952 
L 180.855119 334.559314 
L 181.217673 331.332978 
L 181.580226 298.887189 
L 181.94278 234.332864 
L 182.305333 194.314112 
L 182.667887 166.612252 
L 183.03044 129.330485 
L 183.392994 136.083469 
L 184.118101 196.158831 
L 184.843208 273.851118 
L 185.205761 278.602639 
L 185.568314 286.441672 
L 186.293421 240.472538 
L 186.655975 233.95185 
L 187.018528 199.933496 
L 187.381082 196.749263 
L 187.743635 214.857964 
L 188.468742 270.407069 
L 188.831296 316.675932 
L 189.193849 336.124956 
L 189.556403 346.343297 
L 190.28151 281.719116 
L 191.006616 194.356604 
L 191.36917 162.530471 
L 192.094277 139.946964 
L 192.45683 156.43539 
L 192.819384 167.367343 
L 193.181937 221.290775 
L 193.544491 245.985038 
L 193.907044 258.106123 
L 194.269598 279.240787 
L 194.632151 244.066568 
L 194.994705 239.69844 
L 195.357258 218.876195 
L 195.719812 179.073983 
L 196.082365 183.6057 
L 196.807472 232.151942 
L 197.170025 274.598983 
L 197.895132 296.951544 
L 198.257686 341.137482 
L 198.982793 273.897905 
L 199.7079 167.837475 
L 200.070453 131.020077 
L 200.433007 108.56422 
L 201.158114 120.897467 
L 201.520667 143.885581 
L 201.883221 207.618322 
L 202.245774 208.29802 
L 202.608327 234.763768 
L 203.333434 226.838173 
L 203.695988 199.576457 
L 204.058541 161.184931 
L 204.421095 161.499541 
L 204.783648 158.108028 
L 205.146202 165.303338 
L 205.508755 208.016359 
L 205.871309 232.205879 
L 206.233862 268.059328 
L 206.596416 277.528402 
L 206.958969 301.101594 
L 207.321523 277.07279 
L 207.684076 220.020758 
L 208.046629 192.583895 
L 208.771736 105.888414 
L 209.496843 78.713836 
L 209.859397 100.087384 
L 210.22195 138.072722 
L 210.584504 156.047913 
L 210.947057 205.853715 
L 211.309611 199.90454 
L 211.672164 226.025619 
L 212.397271 193.52942 
L 212.759825 141.820333 
L 213.122378 152.106774 
L 213.484932 133.40299 
L 213.847485 141.600372 
L 214.210038 195.076308 
L 214.572592 230.811541 
L 214.935145 253.710192 
L 215.297699 283.85296 
L 215.660252 283.622062 
L 216.385359 221.325188 
L 216.747913 160.089781 
L 217.110466 118.969118 
L 217.47302 112.050175 
L 217.835573 66.96 
L 218.198127 82.946926 
L 218.56068 112.499262 
L 218.923234 130.568284 
L 219.64834 216.76215 
L 220.010894 216.694676 
L 220.373447 212.127146 
L 220.736001 210.915864 
L 221.098554 163.288683 
L 221.461108 180.568279 
L 221.823661 139.053848 
L 222.186215 165.547108 
L 222.548768 151.226938 
L 223.636429 276.599115 
L 223.998982 303.131459 
L 224.361536 276.451968 
L 224.724089 270.121094 
L 225.086642 243.099884 
L 225.449196 178.609201 
L 226.174303 95.277732 
L 226.536856 90.45704 
L 226.89941 95.903725 
L 227.98707 188.718763 
L 228.712177 249.370348 
L 229.437284 240.53661 
L 229.799838 206.528947 
L 230.162391 190.441717 
L 230.524945 329.13588 
L 230.887498 175.561816 
L 231.975158 260.879742 
L 232.700265 328.4319 
L 233.062819 322.211872 
L 233.425372 303.657971 
L 234.150479 230.467516 
L 234.513033 167.430012 
L 234.875586 160.462796 
L 235.23814 126.044329 
L 235.600693 123.561655 
L 235.963247 153.692916 
L 236.3258 197.35394 
L 236.688353 212.285117 
L 237.050907 248.273017 
L 237.41346 253.157995 
L 237.776014 275.31 
L 238.138567 267.834387 
L 238.501121 235.183562 
L 238.863674 220.790156 
L 239.226228 229.384372 
L 239.588781 190.629466 
L 240.313888 271.262654 
L 240.676442 282.392576 
L 241.401549 346.424673 
L 241.764102 336.794044 
L 242.126655 331.607836 
L 242.489209 291.699656 
L 242.851762 231.095676 
L 243.576869 175.278527 
L 243.939423 140.470337 
L 244.301976 139.240302 
L 244.66453 155.062924 
L 245.389637 251.241372 
L 245.75219 272.322943 
L 246.114744 280.147189 
L 246.477297 279.40035 
L 246.839851 275.050973 
L 247.202404 248.168338 
L 247.564957 206.965816 
L 247.927511 205.575647 
L 248.290064 206.370726 
L 248.652618 237.3426 
L 249.015171 254.040116 
L 249.377725 306.343082 
L 250.102832 340.80716 
L 250.465385 336.68362 
L 251.553046 254.978673 
L 251.915599 181.000157 
L 252.640706 110.047294 
L 253.00326 140.226765 
L 253.365813 146.26341 
L 253.728366 182.762144 
L 254.09092 234.699125 
L 254.453473 248.585193 
L 254.816027 274.793988 
L 255.903687 233.030971 
L 256.266241 204.154833 
L 256.628794 201.102919 
L 256.991348 173.507289 
L 258.079008 258.0974 
L 258.441562 303.916663 
L 258.804115 318.030951 
L 259.166668 311.437321 
L 259.529222 298.080709 
L 260.254329 217.243541 
L 260.979436 102.458611 
L 261.341989 107.540132 
L 261.704543 92.931432 
L 262.067096 110.133004 
L 262.792203 204.678534 
L 263.154757 230.256662 
L 263.51731 236.168092 
L 263.879864 231.395838 
L 264.242417 216.869309 
L 264.967524 162.635729 
L 265.330077 159.472152 
L 265.692631 162.046245 
L 266.055184 180.815993 
L 266.417738 188.509003 
L 267.142845 261.323799 
L 267.867952 297.387169 
L 268.955612 205.800504 
L 269.318166 127.849659 
L 270.043273 67.628256 
L 270.405826 76.339891 
L 270.768379 121.331603 
L 271.130933 131.51905 
L 271.493486 153.477336 
L 271.85604 203.324996 
L 272.218593 224.220482 
L 272.581147 231.49198 
L 272.9437 192.642234 
L 273.306254 180.113614 
L 273.668807 155.844562 
L 274.031361 147.492426 
L 274.393914 127.445513 
L 275.481575 220.521369 
L 275.844128 260.039159 
L 276.569235 277.758879 
L 276.931788 275.618345 
L 277.656895 160.877271 
L 278.382002 90.523109 
L 278.744556 95.621697 
L 279.107109 80.595623 
L 279.832216 128.682748 
L 280.557323 207.440028 
L 280.919877 205.327041 
L 281.28243 221.091557 
L 281.644983 202.317484 
L 282.007537 200.375548 
L 282.732644 150.860453 
L 283.095197 158.888349 
L 284.182858 228.532918 
L 284.545411 268.618654 
L 284.907965 284.777755 
L 285.270518 285.433067 
L 285.633072 265.953905 
L 285.995625 233.785243 
L 286.720732 147.731618 
L 287.083286 135.104286 
L 287.445839 90.16347 
L 287.808392 99.831079 
L 288.170946 125.231125 
L 288.533499 161.8399 
L 288.896053 175.968649 
L 289.258606 369.36 
L 289.62116 254.827267 
L 289.983713 251.299679 
L 290.346267 219.198852 
L 291.071374 187.667887 
L 291.433927 164.123207 
L 292.159034 204.374835 
L 292.521588 211.636519 
L 292.884141 282.724252 
L 293.246694 318.605522 
L 293.609248 315.471876 
L 293.971801 330.576253 
L 294.696908 268.852185 
L 295.784569 132.110651 
L 296.147122 112.022745 
L 296.509676 120.569619 
L 297.95989 254.403088 
L 298.322443 280.004557 
L 298.684996 271.914989 
L 299.04755 252.776762 
L 299.410103 244.550163 
L 299.772657 215.344292 
L 300.13521 212.680281 
L 300.497764 206.341762 
L 300.860317 215.466579 
L 301.585424 285.109999 
L 301.947978 326.086566 
L 302.673085 349.358661 
L 303.398192 288.377817 
L 304.123299 196.172497 
L 304.485852 161.932464 
L 304.848405 145.545353 
L 305.210959 144.698178 
L 305.573512 181.649677 
L 305.936066 201.675749 
L 306.661173 266.9204 
L 307.023726 137.822799 
L 307.38628 284.924851 
L 308.111387 261.428108 
L 308.47394 232.378702 
L 308.836494 222.644887 
L 309.199047 193.409064 
L 309.561601 248.298867 
L 309.924154 228.248037 
L 310.286707 298.251302 
L 310.649261 308.783741 
L 311.011814 331.372826 
L 311.374368 345.450069 
L 311.736921 331.470592 
L 312.099475 278.601246 
L 312.462028 261.270312 
L 312.824582 197.150023 
L 313.549689 122.859987 
L 313.912242 140.22574 
L 314.274796 176.302854 
L 314.637349 182.90165 
L 315.362456 265.586949 
L 315.725009 268.443155 
L 316.087563 262.023674 
L 317.175223 203.223031 
L 317.537777 201.259329 
L 317.90033 187.159874 
L 318.625437 233.738125 
L 318.987991 276.782526 
L 319.350544 293.856447 
L 319.713098 322.582254 
L 320.075651 324.295652 
L 320.800758 270.48865 
L 321.163311 202.79526 
L 322.613525 96.235717 
L 323.338632 157.955369 
L 323.701186 173.602008 
L 324.063739 216.651974 
L 324.426293 233.584465 
L 324.788846 233.972581 
L 325.1514 211.769646 
L 325.513953 179.122401 
L 325.876507 167.634795 
L 326.23906 148.014819 
L 326.601614 315.103043 
L 326.964167 184.260454 
L 327.32672 189.928494 
L 328.051827 272.855177 
L 328.414381 295.632932 
L 328.776934 290.000934 
L 329.139488 270.841989 
L 329.502041 219.355821 
L 329.864595 189.873831 
L 330.589702 95.826413 
L 330.952255 77.15648 
L 331.314809 78.524029 
L 331.677362 99.233875 
L 332.039916 141.215757 
L 332.402469 150.411506 
L 332.765022 215.113236 
L 333.127576 224.841002 
L 333.490129 206.251811 
L 333.852683 199.86159 
L 334.57779 155.070447 
L 334.940343 142.114455 
L 335.302897 147.144402 
L 335.66545 150.448961 
L 336.028004 185.73323 
L 336.390557 67.943451 
L 336.753111 266.894039 
L 337.115664 283.32499 
L 337.478218 281.023656 
L 337.840771 247.243307 
L 338.203324 225.662582 
L 339.290985 82.707112 
L 339.653538 75.334744 
L 340.016092 82.804639 
L 340.378645 106.930406 
L 340.741199 160.657627 
L 341.103752 168.536055 
L 341.828859 227.962367 
L 342.191413 204.411154 
L 342.553966 208.52758 
L 343.641627 142.185425 
L 344.00418 162.297032 
L 344.366733 174.849567 
L 344.729287 194.304592 
L 345.09184 220.665206 
L 345.454394 271.517801 
L 345.816947 297.436761 
L 346.179501 292.547565 
L 346.542054 283.224887 
L 346.904608 249.766628 
L 347.629715 159.019529 
L 347.992268 126.649421 
L 348.354822 108.256575 
L 348.717375 116.464565 
L 349.079929 109.076673 
L 349.442482 155.579287 
L 349.805035 178.992981 
L 350.167589 237.52371 
L 350.530142 253.91711 
L 350.892696 249.139635 
L 351.255249 256.458269 
L 351.617803 216.060575 
L 351.980356 196.163469 
L 352.34291 190.441546 
L 352.705463 178.918888 
L 353.068017 185.075093 
L 353.793124 277.958223 
L 354.155677 303.33331 
L 354.880784 320.871191 
L 355.243337 302.284292 
L 356.693551 136.737103 
L 357.056105 127.68757 
L 357.781212 155.000269 
L 358.506319 206.091997 
L 358.868872 243.76474 
L 359.231426 267.690288 
L 359.593979 255.430991 
L 359.956533 273.591578 
L 361.044193 200.003707 
L 361.406746 195.8863 
L 361.7693 203.712486 
L 362.494407 286.775336 
L 362.85696 314.184755 
L 363.582067 348.508187 
L 364.307174 298.834206 
L 365.032281 179.291864 
L 365.394835 160.789171 
L 365.757388 152.717718 
L 366.119942 131.173256 
L 367.207602 238.00172 
L 367.570155 258.534527 
L 367.932709 294.908389 
L 368.295262 274.648853 
L 368.657816 279.790673 
L 369.020369 230.663185 
L 369.382923 224.590704 
L 369.745476 199.658234 
L 370.10803 223.728233 
L 370.470583 217.968523 
L 371.558244 318.972138 
L 371.920797 329.240204 
L 372.28335 351.231163 
L 372.645904 334.033206 
L 373.008457 293.854087 
L 373.371011 226.224489 
L 373.733564 195.902099 
L 374.096118 155.138523 
L 374.458671 140.820453 
L 374.821225 141.502526 
L 375.183778 141.693238 
L 375.546332 210.232492 
L 375.908885 218.51067 
L 376.271439 251.258418 
L 376.633992 270.515309 
L 376.996546 254.57869 
L 377.359099 244.876968 
L 377.721652 217.935914 
L 378.446759 193.698023 
L 378.809313 199.625187 
L 379.171866 198.402346 
L 379.53442 217.782838 
L 379.896973 272.317867 
L 380.62208 310.120171 
L 380.984634 316.30151 
L 381.347187 301.289859 
L 381.709741 242.801819 
L 382.072294 228.758746 
L 382.797401 119.740007 
L 383.159955 97.258028 
L 383.522508 93.452361 
L 383.885061 113.473239 
L 384.247615 171.694864 
L 384.610168 185.272537 
L 384.972722 217.203541 
L 385.335275 224.156881 
L 385.697829 225.769089 
L 386.060382 210.388433 
L 386.422936 212.381251 
L 386.785489 168.690069 
L 387.148043 169.996824 
L 387.510596 146.09248 
L 387.87315 171.942701 
L 388.598257 211.869366 
L 389.323363 294.907408 
L 389.685917 278.143347 
L 390.04847 255.982928 
L 390.411024 223.022247 
L 390.773577 165.923776 
L 391.136131 152.752916 
L 391.498684 103.636863 
L 391.861238 100.604404 
L 392.223791 85.646019 
L 392.948898 126.567053 
L 393.311452 170.217706 
L 393.674005 185.267812 
L 394.036559 227.571344 
L 394.399112 200.213154 
L 394.761665 199.426862 
L 395.486772 159.60678 
L 395.849326 139.843868 
L 396.211879 137.803641 
L 396.574433 165.335722 
L 396.936986 173.656849 
L 397.29954 225.23506 
L 397.662093 238.112397 
L 398.024647 267.632392 
L 398.3872 275.891184 
L 398.749754 280.603329 
L 399.474861 184.8695 
L 399.837414 145.551722 
L 400.199968 73.47357 
L 400.562521 75.018253 
L 400.925074 78.843686 
L 401.287628 98.746233 
L 401.650181 147.284607 
L 402.012735 171.138054 
L 402.375288 203.549301 
L 403.100395 220.626429 
L 403.462949 200.04019 
L 403.825502 199.688972 
L 404.188056 173.349384 
L 404.913163 136.052066 
L 405.63827 206.356649 
L 406.000823 219.29094 
L 406.363376 272.035196 
L 406.72593 276.010767 
L 407.088483 291.710406 
L 407.451037 263.378675 
L 407.81359 249.407445 
L 408.176144 195.85649 
L 408.538697 164.951133 
L 408.901251 109.741549 
L 409.263804 113.681406 
L 409.626358 105.198699 
L 409.988911 119.547847 
L 410.351465 166.798379 
L 411.076572 224.146828 
L 411.439125 264.870283 
L 411.801678 237.406546 
L 412.164232 224.654633 
L 412.526785 217.710246 
L 412.889339 181.522786 
L 413.251892 177.598938 
L 413.614446 170.777901 
L 414.339553 226.202659 
L 414.702106 274.435281 
L 415.06466 305.127462 
L 415.427213 310.504693 
L 415.789767 313.602155 
L 416.15232 312.68178 
L 416.514874 277.344795 
L 417.239981 182.455625 
L 417.602534 140.020826 
L 417.965087 129.761685 
L 418.327641 127.832535 
L 418.690194 143.038361 
L 419.052748 180.597532 
L 419.777855 286.566624 
L 420.140408 274.007889 
L 420.502962 267.925439 
L 420.865515 242.1418 
L 421.590622 216.664297 
L 421.953176 205.836045 
L 422.315729 216.329622 
L 422.678283 214.576901 
L 423.765943 326.502197 
L 424.128496 347.580589 
L 424.49105 347.315489 
L 425.57871 253.984069 
L 425.941264 200.874843 
L 426.303817 178.807221 
L 426.666371 135.297488 
L 427.028924 140.55001 
L 427.391478 160.756201 
L 427.754031 219.384571 
L 428.116585 240.388693 
L 428.841691 295.488743 
L 429.204245 294.300499 
L 429.929352 234.744834 
L 430.291905 214.823964 
L 430.654459 202.228087 
L 431.017012 211.824755 
L 431.742119 241.835317 
L 432.467226 319.948652 
L 433.192333 345.48606 
L 433.554887 325.522001 
L 434.642547 184.948133 
L 435.367654 145.411226 
L 435.730207 139.65525 
L 436.092761 143.456963 
L 436.455314 199.477811 
L 436.817868 237.871562 
L 437.180421 261.738951 
L 437.542975 266.284796 
L 437.905528 261.102516 
L 438.268082 250.572324 
L 438.630635 234.726769 
L 438.993189 198.461007 
L 439.355742 186.500164 
L 439.718296 327.58116 
L 440.080849 189.150049 
L 440.443402 239.917028 
L 440.805956 248.142689 
L 441.168509 301.272736 
L 441.531063 308.139043 
L 441.893616 312.079664 
L 442.25617 297.110681 
L 442.618723 252.275691 
L 442.981277 304.496008 
L 443.34383 174.008322 
L 443.706384 160.937801 
L 444.068937 136.26878 
L 444.431491 153.046626 
L 444.794044 143.393154 
L 445.156598 174.068186 
L 445.881704 218.55524 
L 446.244258 224.419977 
L 446.606811 232.623039 
L 446.969365 221.955332 
L 447.331918 194.964183 
L 448.057025 169.843642 
L 448.419579 165.229063 
L 448.782132 173.758181 
L 449.507239 231.746985 
L 449.869793 244.82683 
L 450.232346 249.526746 
L 450.5949 261.283171 
L 450.957453 240.868798 
L 451.320006 239.239613 
L 451.68256 206.678797 
L 452.045113 159.893166 
L 452.407667 152.591974 
L 452.77022 123.530093 
L 453.132774 124.313697 
L 453.495327 135.752699 
L 454.220434 182.141145 
L 454.945541 221.464759 
L 455.308095 222.941387 
L 455.670648 194.980348 
L 456.033202 178.385077 
L 456.395755 180.895259 
L 456.758309 163.416314 
L 457.120862 160.535431 
L 457.483415 183.042462 
L 457.845969 194.156646 
L 458.208522 212.434505 
L 458.571076 239.011443 
L 458.933629 245.067324 
L 459.296183 256.446726 
L 459.658736 245.222427 
L 460.02129 226.002517 
L 460.746397 151.94452 
L 461.10895 135.911452 
L 461.471504 129.051301 
L 461.834057 131.189075 
L 462.196611 138.024597 
L 462.559164 162.623773 
L 462.921717 167.714583 
L 463.284271 209.075499 
L 464.009378 221.479161 
L 465.097038 175.3942 
L 465.459592 171.993754 
L 465.822145 160.415523 
L 466.184699 175.310636 
L 466.547252 200.206779 
L 466.909806 238.640413 
L 467.272359 252.356024 
L 467.634913 259.03991 
L 467.997466 260.266944 
L 468.360019 256.258115 
L 469.810233 145.01212 
L 470.172787 126.260605 
L 470.897894 152.789311 
L 471.623001 192.594033 
L 471.985554 211.826976 
L 472.348108 242.600136 
L 472.710661 243.282324 
L 473.073215 220.92005 
L 473.435768 217.229556 
L 473.798322 208.50147 
L 474.160875 177.608649 
L 474.523428 188.30324 
L 474.885982 194.477927 
L 475.248535 227.407076 
L 475.973642 266.529182 
L 476.698749 283.753225 
L 477.423856 248.564376 
L 478.511517 161.726635 
L 478.87407 153.151381 
L 479.236624 159.309012 
L 479.599177 169.323423 
L 479.96173 196.339653 
L 480.324284 213.070933 
L 480.686837 247.557083 
L 481.049391 257.988203 
L 481.411944 259.864624 
L 481.774498 256.12394 
L 482.499605 213.697528 
L 482.862158 210.656484 
L 483.224712 205.695029 
L 483.587265 228.526354 
L 483.949819 240.401457 
L 484.312372 266.277308 
L 485.037479 296.63908 
L 485.400032 300.668826 
L 485.762586 288.560086 
L 487.2128 184.350752 
L 487.575353 173.749322 
L 487.937907 185.320466 
L 488.30046 188.146071 
L 488.663014 195.478188 
L 489.388121 242.071971 
L 489.750674 264.610188 
L 490.113228 253.526403 
L 490.475781 256.379556 
L 490.838335 224.458255 
L 491.200888 209.829895 
L 491.563441 215.234515 
L 491.925995 213.178686 
L 492.288548 218.902836 
L 492.651102 242.73229 
L 493.013655 252.783548 
L 493.376209 290.681518 
L 493.738762 294.724194 
L 494.101316 295.157084 
L 494.463869 287.977772 
L 494.826423 253.930224 
L 495.188976 241.218442 
L 495.55153 199.007882 
L 495.914083 171.824776 
L 496.276637 166.046219 
L 496.63919 164.940233 
L 497.001743 184.806137 
L 497.364297 195.951947 
L 497.72685 216.569318 
L 498.089404 223.937807 
L 498.451957 244.889608 
L 498.814511 242.710496 
L 499.177064 248.77353 
L 499.902171 203.594094 
L 500.264725 197.677542 
L 500.627278 177.613626 
L 500.989832 217.622404 
L 501.352385 225.214666 
L 502.440045 285.232881 
L 502.802599 281.117764 
L 503.165152 270.403978 
L 503.527706 237.972543 
L 503.890259 218.092859 
L 504.615366 156.894255 
L 504.97792 129.088267 
L 505.340473 147.641249 
L 505.703027 156.299376 
L 506.06558 185.025646 
L 506.428134 194.422452 
L 506.790687 216.907101 
L 507.153241 223.911003 
L 507.515794 221.627977 
L 507.878348 217.475539 
L 508.603454 184.516234 
L 508.966008 175.139513 
L 509.328561 172.409756 
L 509.691115 191.539823 
L 510.416222 220.485732 
L 510.778775 238.532467 
L 511.141329 263.568696 
L 511.503882 264.434266 
L 512.591543 193.218266 
L 512.954096 167.030199 
L 513.31665 130.732195 
L 513.679203 127.572173 
L 514.041756 129.608915 
L 514.40431 137.286696 
L 514.766863 155.434904 
L 515.49197 211.595666 
L 515.854524 205.333704 
L 516.217077 214.035238 
L 517.667291 162.237625 
L 518.029845 169.657339 
L 518.392398 173.682886 
L 519.117505 207.625453 
L 519.480058 240.065247 
L 520.205165 258.697956 
L 520.567719 249.408912 
L 520.930272 206.400354 
L 521.292826 193.49124 
L 521.655379 157.990746 
L 522.017933 135.189035 
L 522.380486 123.194935 
L 522.74304 121.48319 
L 523.105593 147.231406 
L 523.468147 154.320583 
L 524.555807 215.091948 
L 524.91836 226.449256 
L 525.280914 209.416085 
L 525.643467 201.458653 
L 526.368574 170.580257 
L 526.731128 172.249659 
L 527.093681 193.707043 
L 527.456235 202.086273 
L 527.818788 236.494223 
L 528.181342 258.459282 
L 528.543895 262.294592 
L 528.906449 263.508356 
L 529.269002 259.416484 
L 529.631556 234.651632 
L 529.994109 197.206876 
L 530.356663 178.486683 
L 530.719216 148.172477 
L 531.444323 132.35076 
L 532.16943 178.836309 
L 532.531983 192.485269 
L 532.894537 229.160251 
L 533.25709 220.765751 
L 533.619644 243.852643 
L 533.982197 228.902256 
L 534.344751 209.110465 
L 534.707304 201.836634 
L 535.069858 186.358892 
L 535.794965 196.977452 
L 536.520071 243.821641 
L 536.882625 279.757245 
L 537.245178 279.513772 
L 537.607732 276.477532 
L 537.970285 269.47263 
L 538.332839 255.950012 
L 539.420499 159.252746 
L 540.145606 154.594778 
L 540.50816 174.248275 
L 540.870713 185.268932 
L 541.59582 250.990217 
L 541.958373 250.997738 
L 542.320927 260.486075 
L 542.68348 249.282846 
L 543.046034 227.297479 
L 543.771141 203.664187 
L 544.133694 211.322831 
L 544.496248 213.102374 
L 544.858801 242.916029 
L 545.221355 260.845252 
L 545.583908 272.87989 
L 545.946462 294.550528 
L 546.309015 298.90005 
L 546.671569 292.544146 
L 547.396676 235.189868 
L 547.759229 209.053212 
L 548.121782 168.692188 
L 548.484336 171.443415 
L 548.846889 156.968916 
L 549.93455 224.237452 
L 551.02221 265.306327 
L 552.109871 226.21557 
L 552.472424 202.718926 
L 553.560084 233.741228 
L 554.647745 303.215615 
L 555.010298 295.149284 
L 555.372852 295.4575 
L 556.097959 230.404914 
L 556.460512 187.080247 
L 556.823066 169.139415 
L 557.185619 161.183342 
L 557.548173 167.563732 
L 557.910726 165.833155 
L 558.635833 222.721765 
L 558.998386 241.686332 
L 559.723493 253.965096 
L 560.4486 215.221636 
L 560.811154 209.918797 
L 561.173707 183.500145 
L 561.536261 196.17589 
L 561.898814 194.561411 
L 562.261368 219.666555 
L 562.623921 232.928726 
L 562.986475 273.903946 
L 563.349028 285.821297 
L 563.711582 285.714913 
L 564.074135 269.149713 
L 564.436689 238.724741 
L 564.799242 222.798333 
L 565.524349 149.481705 
L 565.886902 137.25302 
L 566.249456 149.796262 
L 566.612009 152.596817 
L 566.974563 178.25386 
L 567.337116 194.201322 
L 567.69967 226.447917 
L 568.062223 223.287748 
L 568.424777 211.620921 
L 568.78733 215.160845 
L 569.149884 206.28281 
L 569.512437 178.981213 
L 569.874991 173.105973 
L 570.237544 164.180783 
L 570.600097 178.604292 
L 570.962651 200.483188 
L 571.325204 232.481573 
L 571.687758 226.733615 
L 572.050311 257.655016 
L 572.412865 265.243711 
L 573.137972 223.325904 
L 574.225632 127.233738 
L 574.588186 120.553963 
L 574.950739 127.949283 
L 575.313293 139.516886 
L 575.675846 164.035834 
L 576.038399 180.897687 
L 576.763506 229.43231 
L 577.12606 226.870058 
L 577.488613 208.446839 
L 577.851167 176.101997 
L 578.21372 173.29815 
L 578.576274 148.648099 
L 578.938827 153.813971 
L 579.301381 170.148578 
L 579.663934 196.190735 
L 580.026488 210.35313 
L 580.389041 240.049086 
L 580.751595 242.345914 
L 581.114148 260.749143 
L 581.476701 237.48118 
L 581.839255 224.503631 
L 582.564362 150.874836 
L 582.926915 142.428346 
L 583.289469 118.638459 
L 583.652022 113.30916 
L 584.377129 159.439597 
L 585.102236 206.045712 
L 585.46479 211.005596 
L 585.827343 217.670952 
L 586.55245 189.882616 
L 586.915004 182.396586 
L 587.277557 158.11368 
L 587.64011 178.381191 
L 588.002664 182.280851 
L 588.365217 217.100775 
L 588.727771 221.70616 
L 589.452878 265.045807 
L 589.815431 271.370905 
L 590.177985 239.389585 
L 590.540538 233.579713 
L 591.628199 145.903806 
L 591.990752 129.893104 
L 592.353306 128.902302 
L 592.715859 143.615684 
L 593.803519 227.902854 
L 594.166073 229.920002 
L 594.528626 233.024947 
L 594.89118 216.948997 
L 595.253733 222.472654 
L 595.616287 188.501091 
L 596.341394 181.598911 
L 596.703947 210.576884 
L 597.066501 223.748774 
L 597.791608 269.712942 
L 598.154161 284.894956 
L 598.516714 292.983194 
L 599.241821 248.600746 
L 599.604375 224.66133 
L 599.966928 185.477609 
L 600.329482 165.027332 
L 600.692035 150.865774 
L 601.054589 148.516286 
L 601.779696 204.230018 
L 602.142249 217.944955 
L 602.504803 245.575191 
L 603.22991 261.089522 
L 603.592463 247.311532 
L 604.31757 214.573891 
L 604.680123 206.38092 
L 605.042677 213.745474 
L 605.40523 204.726475 
L 606.130337 271.706416 
L 606.492891 283.405475 
L 606.855444 299.603891 
L 607.217998 301.000253 
L 607.580551 301.368108 
L 607.943105 352.972273 
L 608.305658 239.665856 
L 608.668212 206.612761 
L 609.030765 186.441161 
L 609.393319 179.721321 
L 609.755872 163.168822 
L 610.118425 177.6837 
L 610.843532 239.100442 
L 611.206086 243.897038 
L 611.568639 255.937273 
L 611.931193 259.498602 
L 612.293746 259.393462 
L 612.6563 234.644198 
L 613.381407 207.37651 
L 613.74396 213.263299 
L 614.469067 241.953771 
L 614.831621 269.078375 
L 615.194174 280.643552 
L 615.556727 300.682347 
L 615.919281 307.174555 
L 616.281834 287.77591 
L 617.006941 230.769477 
L 618.094602 149.934048 
L 618.457155 155.591242 
L 618.819709 183.784771 
L 619.182262 195.957398 
L 619.907369 245.611169 
L 620.269923 251.710434 
L 620.632476 254.46383 
L 620.99503 222.988635 
L 621.357583 230.295219 
L 621.720136 206.312791 
L 622.08269 193.292071 
L 622.807797 208.393691 
L 623.17035 209.299034 
L 623.532904 251.831881 
L 623.895457 273.943267 
L 624.258011 277.266447 
L 624.620564 284.419936 
L 625.708225 210.770824 
L 626.433332 147.041177 
L 626.795885 143.472539 
L 627.158438 145.675743 
L 627.520992 154.103034 
L 627.883545 175.019216 
L 628.246099 186.493758 
L 628.608652 212.167014 
L 629.333759 234.846551 
L 630.42142 174.569252 
L 630.783973 178.755061 
L 631.146527 172.563923 
L 631.50908 179.492336 
L 631.871634 201.154417 
L 632.234187 235.547863 
L 633.321847 269.408093 
L 634.046954 228.997913 
L 634.772061 164.489793 
L 635.134615 124.314965 
L 635.497168 123.103535 
L 635.859722 122.750959 
L 636.222275 141.898746 
L 636.584829 167.818429 
L 636.947382 185.697339 
L 637.309936 209.275328 
L 637.672489 209.700167 
L 638.035043 214.195225 
L 638.397596 202.419013 
L 638.760149 177.498334 
L 639.122703 172.483679 
L 639.485256 163.957512 
L 639.84781 174.644655 
L 640.210363 168.692093 
L 640.572917 180.099581 
L 640.93547 225.226005 
L 641.298024 234.197045 
L 641.660577 250.323867 
L 642.023131 249.904719 
L 642.385684 243.742827 
L 643.110791 189.180543 
L 643.473345 143.601673 
L 643.835898 136.080084 
L 644.198451 112.750879 
L 644.923558 135.620569 
L 645.648665 185.207606 
L 646.373772 218.549655 
L 646.736326 222.071613 
L 647.098879 210.408042 
L 647.461433 180.264632 
L 647.823986 176.991331 
L 648.18654 176.477883 
L 648.549093 172.276217 
L 648.911647 175.642069 
L 649.2742 198.235861 
L 649.636753 231.966724 
L 650.724414 264.326229 
L 651.449521 231.2989 
L 651.812074 196.143546 
L 652.174628 173.179356 
L 652.537181 131.068642 
L 652.899735 135.854549 
L 653.262288 131.34024 
L 654.349949 189.424723 
L 654.712502 226.633158 
L 655.075055 241.928693 
L 655.437609 229.90359 
L 655.800162 227.595414 
L 656.162716 205.160735 
L 656.525269 194.984203 
L 656.887823 179.289626 
L 657.250376 194.543057 
L 657.61293 189.355271 
L 658.338037 252.821613 
L 659.063144 284.870511 
L 659.425697 284.935817 
L 659.788251 278.073214 
L 660.513358 219.277343 
L 660.875911 194.299916 
L 661.238464 157.141723 
L 661.601018 158.162845 
L 661.963571 148.389172 
L 662.326125 164.30294 
L 663.051232 216.557375 
L 663.776339 253.391972 
L 664.138892 251.33196 
L 664.501446 240.534954 
L 664.863999 217.184501 
L 665.226553 216.662866 
L 665.589106 198.418729 
L 665.95166 191.62371 
L 666.314213 230.835215 
L 666.676766 233.689595 
L 667.401873 292.113477 
L 667.764427 299.51797 
L 668.12698 304.382813 
L 668.852087 256.743724 
L 669.214641 233.985493 
L 669.577194 198.098688 
L 670.302301 156.942877 
L 670.664855 170.903726 
L 671.027408 167.343003 
L 671.752515 237.37754 
L 672.115068 246.704128 
L 672.477622 269.808606 
L 672.840175 263.056338 
L 673.202729 250.092413 
L 673.927836 212.566719 
L 674.290389 203.252526 
L 674.652943 204.153247 
L 675.015496 214.78176 
L 676.103157 290.242791 
L 676.46571 304.815179 
L 676.828264 293.551806 
L 677.190817 272.525891 
L 677.553371 267.052821 
L 678.278477 196.040199 
L 678.641031 179.579765 
L 679.003584 168.490816 
L 679.366138 169.428518 
L 679.728691 164.992105 
L 680.453798 228.158513 
L 680.816352 234.616753 
L 681.178905 255.293901 
L 681.541459 250.466005 
L 681.904012 238.447882 
L 682.629119 203.065832 
L 682.991673 194.172659 
L 683.354226 192.932188 
L 684.079333 227.174267 
L 684.441886 239.015989 
L 684.80444 261.867525 
L 685.529547 277.902981 
L 685.8921 268.602752 
L 686.254654 245.531717 
L 686.617207 208.464703 
L 687.704868 136.655004 
L 688.067421 137.043598 
L 688.429975 149.792853 
L 689.517635 225.872883 
L 689.880188 231.530323 
L 690.242742 227.197598 
L 690.605295 217.550927 
L 691.330402 182.564468 
L 691.692956 170.548742 
L 692.418063 184.16781 
L 692.780616 211.921006 
L 693.14317 212.234544 
L 693.505723 249.621363 
L 693.868277 255.273383 
L 694.23083 257.86317 
L 694.955937 230.837001 
L 695.31849 205.525871 
L 696.043597 134.543616 
L 696.406151 118.195141 
L 696.768704 134.491322 
L 697.131258 141.108589 
L 697.493811 156.312656 
L 698.218918 204.14539 
L 698.581472 212.349331 
L 699.306579 199.401571 
L 699.669132 183.871124 
L 700.394239 168.561843 
L 700.756792 168.115794 
L 701.119346 176.311035 
L 701.481899 192.485347 
L 701.844453 223.74538 
L 702.207006 245.366121 
L 702.56956 258.503793 
L 702.932113 258.359041 
L 703.294667 250.774639 
L 703.65722 223.493351 
L 704.019774 185.925857 
L 705.107434 122.306879 
L 705.469988 120.471859 
L 705.832541 141.921005 
L 706.195094 156.451095 
L 706.557648 192.594517 
L 706.920201 210.556425 
L 707.282755 218.898376 
L 707.645308 213.452072 
L 708.007862 199.460357 
L 708.370415 196.462406 
L 708.732969 180.977468 
L 709.095522 176.388547 
L 709.458076 174.37427 
L 709.820629 173.839096 
L 710.90829 251.128779 
L 711.270843 256.646805 
L 711.633397 270.436093 
L 711.99595 254.106543 
L 713.08361 171.973735 
L 713.446164 145.299498 
L 713.808717 144.523126 
L 714.533824 155.345209 
L 715.258931 199.226445 
L 715.621485 207.17292 
L 715.984038 239.480696 
L 716.346592 230.560776 
L 716.709145 226.595987 
L 717.071699 209.917939 
L 717.434252 215.428542 
L 717.796805 193.961957 
L 718.159359 188.155096 
L 718.521912 197.407806 
L 719.247019 252.58097 
L 719.609573 273.243281 
L 719.972126 280.613474 
L 720.33468 295.596208 
L 720.697233 284.669895 
L 721.059787 241.338218 
L 721.42234 224.611342 
L 721.784894 189.253037 
L 722.147447 172.091729 
L 722.872554 149.985586 
L 723.235107 167.301381 
L 723.960214 223.865713 
L 724.685321 257.595896 
L 725.047875 250.886498 
L 725.410428 239.987328 
L 725.772982 241.334651 
L 726.135535 230.294491 
L 726.860642 201.703 
L 727.223196 219.881741 
L 727.585749 231.63408 
L 727.948303 270.534776 
L 728.673409 301.706137 
L 729.398516 293.605601 
L 730.84873 167.480763 
L 731.211284 171.728198 
L 731.573837 168.94683 
L 731.936391 169.302983 
L 732.661498 242.257693 
L 733.024051 249.693486 
L 733.386605 246.601412 
L 733.749158 271.552764 
L 735.199372 208.83216 
L 735.561925 210.918698 
L 735.924479 211.107663 
L 736.287032 230.512692 
L 736.649586 271.973204 
L 737.012139 284.128165 
L 737.374693 306.57619 
L 737.737246 303.633272 
L 738.824907 227.68155 
L 739.18746 200.503406 
L 739.912567 166.878146 
L 740.27512 160.561181 
L 741.000227 188.582993 
L 741.725334 238.979175 
L 742.087888 252.744093 
L 742.450441 247.676231 
L 743.175548 225.848719 
L 743.900655 189.306734 
L 744.263209 200.656523 
L 744.625762 203.083811 
L 744.988316 216.769914 
L 745.350869 247.5246 
L 745.713422 268.380644 
L 746.075976 277.204265 
L 746.438529 280.608399 
L 746.801083 271.283802 
L 747.163636 250.042551 
L 747.163636 250.042551 
" style="fill:none;stroke:#1f77b4;stroke-linecap:square;stroke-width:1.5;"/>
   </g>
   <g id="line2d_15">
    <path clip-path="url(#pdd32de4f76)" d="M 745.713422 384.48 
L 745.713422 51.84 
" style="fill:none;stroke:#808080;stroke-linecap:square;"/>
   </g>
   <g id="patch_51">
    <path d="M 108 384.48 
L 108 51.84 
" style="fill:none;stroke:#000000;stroke-linecap:square;stroke-linejoin:miter;stroke-width:0.8;"/>
   </g>
   <g id="patch_52">
    <path d="M 777.6 384.48 
L 777.6 51.84 
" style="fill:none;stroke:#000000;stroke-linecap:square;stroke-linejoin:miter;stroke-width:0.8;"/>
   </g>
   <g id="patch_53">
    <path d="M 108 384.48 
L 777.6 384.48 
" style="fill:none;stroke:#000000;stroke-linecap:square;stroke-linejoin:miter;stroke-width:0.8;"/>
   </g>
   <g id="patch_54">
    <path d="M 108 51.84 
L 777.6 51.84 
" style="fill:none;stroke:#000000;stroke-linecap:square;stroke-linejoin:miter;stroke-width:0.8;"/>
   </g>
   <g id="text_16">
    <!-- A4Benchmark-TS6.csv -->
    <defs>
     <path d="M 34.1875 63.1875 
L 20.796875 26.90625 
L 47.609375 26.90625 
z
M 28.609375 72.90625 
L 39.796875 72.90625 
L 67.578125 0 
L 57.328125 0 
L 50.6875 18.703125 
L 17.828125 18.703125 
L 11.1875 0 
L 0.78125 0 
z
" id="DejaVuSans-65"/>
     <path d="M 37.796875 64.3125 
L 12.890625 25.390625 
L 37.796875 25.390625 
z
M 35.203125 72.90625 
L 47.609375 72.90625 
L 47.609375 25.390625 
L 58.015625 25.390625 
L 58.015625 17.1875 
L 47.609375 17.1875 
L 47.609375 0 
L 37.796875 0 
L 37.796875 17.1875 
L 4.890625 17.1875 
L 4.890625 26.703125 
z
" id="DejaVuSans-52"/>
     <path d="M 19.671875 34.8125 
L 19.671875 8.109375 
L 35.5 8.109375 
Q 43.453125 8.109375 47.28125 11.40625 
Q 51.125 14.703125 51.125 21.484375 
Q 51.125 28.328125 47.28125 31.5625 
Q 43.453125 34.8125 35.5 34.8125 
z
M 19.671875 64.796875 
L 19.671875 42.828125 
L 34.28125 42.828125 
Q 41.5 42.828125 45.03125 45.53125 
Q 48.578125 48.25 48.578125 53.8125 
Q 48.578125 59.328125 45.03125 62.0625 
Q 41.5 64.796875 34.28125 64.796875 
z
M 9.8125 72.90625 
L 35.015625 72.90625 
Q 46.296875 72.90625 52.390625 68.21875 
Q 58.5 63.53125 58.5 54.890625 
Q 58.5 48.1875 55.375 44.234375 
Q 52.25 40.28125 46.1875 39.3125 
Q 53.46875 37.75 57.5 32.78125 
Q 61.53125 27.828125 61.53125 20.40625 
Q 61.53125 10.640625 54.890625 5.3125 
Q 48.25 0 35.984375 0 
L 9.8125 0 
z
" id="DejaVuSans-66"/>
     <path d="M 54.890625 33.015625 
L 54.890625 0 
L 45.90625 0 
L 45.90625 32.71875 
Q 45.90625 40.484375 42.875 44.328125 
Q 39.84375 48.1875 33.796875 48.1875 
Q 26.515625 48.1875 22.3125 43.546875 
Q 18.109375 38.921875 18.109375 30.90625 
L 18.109375 0 
L 9.078125 0 
L 9.078125 54.6875 
L 18.109375 54.6875 
L 18.109375 46.1875 
Q 21.34375 51.125 25.703125 53.5625 
Q 30.078125 56 35.796875 56 
Q 45.21875 56 50.046875 50.171875 
Q 54.890625 44.34375 54.890625 33.015625 
z
" id="DejaVuSans-110"/>
     <path d="M 48.78125 52.59375 
L 48.78125 44.1875 
Q 44.96875 46.296875 41.140625 47.34375 
Q 37.3125 48.390625 33.40625 48.390625 
Q 24.65625 48.390625 19.8125 42.84375 
Q 14.984375 37.3125 14.984375 27.296875 
Q 14.984375 17.28125 19.8125 11.734375 
Q 24.65625 6.203125 33.40625 6.203125 
Q 37.3125 6.203125 41.140625 7.25 
Q 44.96875 8.296875 48.78125 10.40625 
L 48.78125 2.09375 
Q 45.015625 0.34375 40.984375 -0.53125 
Q 36.96875 -1.421875 32.421875 -1.421875 
Q 20.0625 -1.421875 12.78125 6.34375 
Q 5.515625 14.109375 5.515625 27.296875 
Q 5.515625 40.671875 12.859375 48.328125 
Q 20.21875 56 33.015625 56 
Q 37.15625 56 41.109375 55.140625 
Q 45.0625 54.296875 48.78125 52.59375 
z
" id="DejaVuSans-99"/>
     <path d="M 54.890625 33.015625 
L 54.890625 0 
L 45.90625 0 
L 45.90625 32.71875 
Q 45.90625 40.484375 42.875 44.328125 
Q 39.84375 48.1875 33.796875 48.1875 
Q 26.515625 48.1875 22.3125 43.546875 
Q 18.109375 38.921875 18.109375 30.90625 
L 18.109375 0 
L 9.078125 0 
L 9.078125 75.984375 
L 18.109375 75.984375 
L 18.109375 46.1875 
Q 21.34375 51.125 25.703125 53.5625 
Q 30.078125 56 35.796875 56 
Q 45.21875 56 50.046875 50.171875 
Q 54.890625 44.34375 54.890625 33.015625 
z
" id="DejaVuSans-104"/>
     <path d="M 41.109375 46.296875 
Q 39.59375 47.171875 37.8125 47.578125 
Q 36.03125 48 33.890625 48 
Q 26.265625 48 22.1875 43.046875 
Q 18.109375 38.09375 18.109375 28.8125 
L 18.109375 0 
L 9.078125 0 
L 9.078125 54.6875 
L 18.109375 54.6875 
L 18.109375 46.1875 
Q 20.953125 51.171875 25.484375 53.578125 
Q 30.03125 56 36.53125 56 
Q 37.453125 56 38.578125 55.875 
Q 39.703125 55.765625 41.0625 55.515625 
z
" id="DejaVuSans-114"/>
     <path d="M 9.078125 75.984375 
L 18.109375 75.984375 
L 18.109375 31.109375 
L 44.921875 54.6875 
L 56.390625 54.6875 
L 27.390625 29.109375 
L 57.625 0 
L 45.90625 0 
L 18.109375 26.703125 
L 18.109375 0 
L 9.078125 0 
z
" id="DejaVuSans-107"/>
     <path d="M 4.890625 31.390625 
L 31.203125 31.390625 
L 31.203125 23.390625 
L 4.890625 23.390625 
z
" id="DejaVuSans-45"/>
     <path d="M 53.515625 70.515625 
L 53.515625 60.890625 
Q 47.90625 63.578125 42.921875 64.890625 
Q 37.9375 66.21875 33.296875 66.21875 
Q 25.25 66.21875 20.875 63.09375 
Q 16.5 59.96875 16.5 54.203125 
Q 16.5 49.359375 19.40625 46.890625 
Q 22.3125 44.4375 30.421875 42.921875 
L 36.375 41.703125 
Q 47.40625 39.59375 52.65625 34.296875 
Q 57.90625 29 57.90625 20.125 
Q 57.90625 9.515625 50.796875 4.046875 
Q 43.703125 -1.421875 29.984375 -1.421875 
Q 24.8125 -1.421875 18.96875 -0.25 
Q 13.140625 0.921875 6.890625 3.21875 
L 6.890625 13.375 
Q 12.890625 10.015625 18.65625 8.296875 
Q 24.421875 6.59375 29.984375 6.59375 
Q 38.421875 6.59375 43.015625 9.90625 
Q 47.609375 13.234375 47.609375 19.390625 
Q 47.609375 24.75 44.3125 27.78125 
Q 41.015625 30.8125 33.5 32.328125 
L 27.484375 33.5 
Q 16.453125 35.6875 11.515625 40.375 
Q 6.59375 45.0625 6.59375 53.421875 
Q 6.59375 63.09375 13.40625 68.65625 
Q 20.21875 74.21875 32.171875 74.21875 
Q 37.3125 74.21875 42.625 73.28125 
Q 47.953125 72.359375 53.515625 70.515625 
z
" id="DejaVuSans-83"/>
     <path d="M 33.015625 40.375 
Q 26.375 40.375 22.484375 35.828125 
Q 18.609375 31.296875 18.609375 23.390625 
Q 18.609375 15.53125 22.484375 10.953125 
Q 26.375 6.390625 33.015625 6.390625 
Q 39.65625 6.390625 43.53125 10.953125 
Q 47.40625 15.53125 47.40625 23.390625 
Q 47.40625 31.296875 43.53125 35.828125 
Q 39.65625 40.375 33.015625 40.375 
z
M 52.59375 71.296875 
L 52.59375 62.3125 
Q 48.875 64.0625 45.09375 64.984375 
Q 41.3125 65.921875 37.59375 65.921875 
Q 27.828125 65.921875 22.671875 59.328125 
Q 17.53125 52.734375 16.796875 39.40625 
Q 19.671875 43.65625 24.015625 45.921875 
Q 28.375 48.1875 33.59375 48.1875 
Q 44.578125 48.1875 50.953125 41.515625 
Q 57.328125 34.859375 57.328125 23.390625 
Q 57.328125 12.15625 50.6875 5.359375 
Q 44.046875 -1.421875 33.015625 -1.421875 
Q 20.359375 -1.421875 13.671875 8.265625 
Q 6.984375 17.96875 6.984375 36.375 
Q 6.984375 53.65625 15.1875 63.9375 
Q 23.390625 74.21875 37.203125 74.21875 
Q 40.921875 74.21875 44.703125 73.484375 
Q 48.484375 72.75 52.59375 71.296875 
z
" id="DejaVuSans-54"/>
     <path d="M 10.6875 12.40625 
L 21 12.40625 
L 21 0 
L 10.6875 0 
z
" id="DejaVuSans-46"/>
     <path d="M 2.984375 54.6875 
L 12.5 54.6875 
L 29.59375 8.796875 
L 46.6875 54.6875 
L 56.203125 54.6875 
L 35.6875 0 
L 23.484375 0 
z
" id="DejaVuSans-118"/>
    </defs>
    <g transform="translate(375.373125 45.84)scale(0.12 -0.12)">
     <use xlink:href="#DejaVuSans-65"/>
     <use x="68.408203" xlink:href="#DejaVuSans-52"/>
     <use x="132.03125" xlink:href="#DejaVuSans-66"/>
     <use x="200.634766" xlink:href="#DejaVuSans-101"/>
     <use x="262.158203" xlink:href="#DejaVuSans-110"/>
     <use x="325.537109" xlink:href="#DejaVuSans-99"/>
     <use x="380.517578" xlink:href="#DejaVuSans-104"/>
     <use x="443.896484" xlink:href="#DejaVuSans-109"/>
     <use x="541.308594" xlink:href="#DejaVuSans-97"/>
     <use x="602.587891" xlink:href="#DejaVuSans-114"/>
     <use x="643.701172" xlink:href="#DejaVuSans-107"/>
     <use x="701.611328" xlink:href="#DejaVuSans-45"/>
     <use x="737.554688" xlink:href="#DejaVuSans-84"/>
     <use x="798.638672" xlink:href="#DejaVuSans-83"/>
     <use x="862.115234" xlink:href="#DejaVuSans-54"/>
     <use x="925.738281" xlink:href="#DejaVuSans-46"/>
     <use x="957.525391" xlink:href="#DejaVuSans-99"/>
     <use x="1012.505859" xlink:href="#DejaVuSans-115"/>
     <use x="1064.605469" xlink:href="#DejaVuSans-118"/>
    </g>
   </g>
   <g id="legend_1">
    <g id="patch_55">
     <path d="M 115 379.48 
L 174.315625 379.48 
Q 176.315625 379.48 176.315625 377.48 
L 176.315625 363.801875 
Q 176.315625 361.801875 174.315625 361.801875 
L 115 361.801875 
Q 113 361.801875 113 363.801875 
L 113 377.48 
Q 113 379.48 115 379.48 
z
" style="fill:#ffffff;opacity:0.8;stroke:#cccccc;stroke-linejoin:miter;"/>
    </g>
    <g id="line2d_16">
     <path d="M 117 369.900312 
L 137 369.900312 
" style="fill:none;stroke:#1f77b4;stroke-linecap:square;stroke-width:1.5;"/>
    </g>
    <g id="line2d_17"/>
    <g id="text_17">
     <!-- value -->
     <g transform="translate(145 373.400312)scale(0.1 -0.1)">
      <use xlink:href="#DejaVuSans-118"/>
      <use x="59.179688" xlink:href="#DejaVuSans-97"/>
      <use x="120.458984" xlink:href="#DejaVuSans-108"/>
      <use x="148.242188" xlink:href="#DejaVuSans-117"/>
      <use x="211.621094" xlink:href="#DejaVuSans-101"/>
     </g>
    </g>
   </g>
  </g>
 </g>
 <defs>
  <clipPath id="pdd32de4f76">
   <rect height="332.64" width="669.6" x="108" y="51.84"/>
  </clipPath>
 </defs>
</svg>
