<?xml version="1.0" encoding="utf-8" standalone="no"?>
<!DOCTYPE svg PUBLIC "-//W3C//DTD SVG 1.1//EN"
  "http://www.w3.org/Graphics/SVG/1.1/DTD/svg11.dtd">
<!-- Created with matplotlib (https://matplotlib.org/) -->
<svg height="432pt" version="1.1" viewBox="0 0 864 432" width="864pt" xmlns="http://www.w3.org/2000/svg" xmlns:xlink="http://www.w3.org/1999/xlink">
 <defs>
  <style type="text/css">
*{stroke-linecap:butt;stroke-linejoin:round;}
  </style>
 </defs>
 <g id="figure_1">
  <g id="patch_1">
   <path d="M 0 432 
L 864 432 
L 864 0 
L 0 0 
z
" style="fill:#ffffff;"/>
  </g>
  <g id="axes_1">
   <g id="patch_2">
    <path d="M 108 384.48 
L 777.6 384.48 
L 777.6 51.84 
L 108 51.84 
z
" style="fill:#ffffff;"/>
   </g>
   <g id="patch_3">
    <path clip-path="url(#p8f5d07e610)" d="M 138.436364 384.48 
L 138.436364 51.84 
L 374.096118 51.84 
L 374.096118 384.48 
z
" style="fill:#0000ff;opacity:0.05;"/>
   </g>
   <g id="patch_4">
    <path clip-path="url(#p8f5d07e610)" d="M 374.096118 384.48 
L 374.096118 51.84 
L 745.713422 51.84 
L 745.713422 384.48 
z
" style="fill:#ff0000;opacity:0.08;"/>
   </g>
   <g id="patch_5">
    <path clip-path="url(#p8f5d07e610)" d="M 138.436364 384.48 
L 138.436364 51.84 
L 147.5002 51.84 
L 147.5002 384.48 
z
" style="fill:#008000;opacity:0.04;"/>
   </g>
   <g id="patch_6">
    <path clip-path="url(#p8f5d07e610)" d="M 156.564037 384.48 
L 156.564037 51.84 
L 165.627874 51.84 
L 165.627874 384.48 
z
" style="fill:#008000;opacity:0.04;"/>
   </g>
   <g id="patch_7">
    <path clip-path="url(#p8f5d07e610)" d="M 401.287628 384.48 
L 401.287628 371.1744 
L 410.351465 371.1744 
L 410.351465 384.48 
z
" style="fill:#ff6600;"/>
   </g>
   <g id="patch_8">
    <path clip-path="url(#p8f5d07e610)" d="M 174.69171 384.48 
L 174.69171 51.84 
L 183.755547 51.84 
L 183.755547 384.48 
z
" style="fill:#008000;opacity:0.04;"/>
   </g>
   <g id="patch_9">
    <path clip-path="url(#p8f5d07e610)" d="M 192.819384 384.48 
L 192.819384 51.84 
L 201.883221 51.84 
L 201.883221 384.48 
z
" style="fill:#008000;opacity:0.04;"/>
   </g>
   <g id="patch_10">
    <path clip-path="url(#p8f5d07e610)" d="M 210.947057 384.48 
L 210.947057 51.84 
L 220.010894 51.84 
L 220.010894 384.48 
z
" style="fill:#008000;opacity:0.04;"/>
   </g>
   <g id="patch_11">
    <path clip-path="url(#p8f5d07e610)" d="M 446.606811 384.48 
L 446.606811 371.1744 
L 455.670648 371.1744 
L 455.670648 384.48 
z
" style="fill:#ff6600;"/>
   </g>
   <g id="patch_12">
    <path clip-path="url(#p8f5d07e610)" d="M 455.670648 384.48 
L 455.670648 371.1744 
L 464.734485 371.1744 
L 464.734485 384.48 
z
" style="fill:#ff6600;"/>
   </g>
   <g id="patch_13">
    <path clip-path="url(#p8f5d07e610)" d="M 229.074731 384.48 
L 229.074731 51.84 
L 238.138567 51.84 
L 238.138567 384.48 
z
" style="fill:#008000;opacity:0.04;"/>
   </g>
   <g id="patch_14">
    <path clip-path="url(#p8f5d07e610)" d="M 247.202404 384.48 
L 247.202404 51.84 
L 256.266241 51.84 
L 256.266241 384.48 
z
" style="fill:#008000;opacity:0.04;"/>
   </g>
   <g id="patch_15">
    <path clip-path="url(#p8f5d07e610)" d="M 247.202404 384.48 
L 247.202404 371.1744 
L 256.266241 371.1744 
L 256.266241 384.48 
z
" style="fill:#ffe500;"/>
   </g>
   <g id="patch_16">
    <path clip-path="url(#p8f5d07e610)" d="M 491.925995 384.48 
L 491.925995 371.1744 
L 500.989832 371.1744 
L 500.989832 384.48 
z
" style="fill:#ff6600;"/>
   </g>
   <g id="patch_17">
    <path clip-path="url(#p8f5d07e610)" d="M 265.330077 384.48 
L 265.330077 51.84 
L 274.393914 51.84 
L 274.393914 384.48 
z
" style="fill:#008000;opacity:0.04;"/>
   </g>
   <g id="patch_18">
    <path clip-path="url(#p8f5d07e610)" d="M 500.989832 384.48 
L 500.989832 371.1744 
L 510.053668 371.1744 
L 510.053668 384.48 
z
" style="fill:#ff6600;"/>
   </g>
   <g id="patch_19">
    <path clip-path="url(#p8f5d07e610)" d="M 283.457751 384.48 
L 283.457751 51.84 
L 292.521588 51.84 
L 292.521588 384.48 
z
" style="fill:#008000;opacity:0.04;"/>
   </g>
   <g id="patch_20">
    <path clip-path="url(#p8f5d07e610)" d="M 283.457751 371.1744 
L 283.457751 357.8688 
L 292.521588 357.8688 
L 292.521588 371.1744 
z
" style="fill:#ff00ff;"/>
   </g>
   <g id="patch_21">
    <path clip-path="url(#p8f5d07e610)" d="M 301.585424 384.48 
L 301.585424 51.84 
L 310.649261 51.84 
L 310.649261 384.48 
z
" style="fill:#008000;opacity:0.04;"/>
   </g>
   <g id="patch_22">
    <path clip-path="url(#p8f5d07e610)" d="M 319.713098 384.48 
L 319.713098 51.84 
L 328.776934 51.84 
L 328.776934 384.48 
z
" style="fill:#008000;opacity:0.04;"/>
   </g>
   <g id="patch_23">
    <path clip-path="url(#p8f5d07e610)" d="M 337.840771 384.48 
L 337.840771 51.84 
L 346.904608 51.84 
L 346.904608 384.48 
z
" style="fill:#008000;opacity:0.04;"/>
   </g>
   <g id="patch_24">
    <path clip-path="url(#p8f5d07e610)" d="M 346.904608 384.48 
L 346.904608 371.1744 
L 355.968444 371.1744 
L 355.968444 384.48 
z
" style="fill:#ffe500;"/>
   </g>
   <g id="patch_25">
    <path clip-path="url(#p8f5d07e610)" d="M 355.968444 384.48 
L 355.968444 51.84 
L 365.032281 51.84 
L 365.032281 384.48 
z
" style="fill:#008000;opacity:0.04;"/>
   </g>
   <g id="patch_26">
    <path clip-path="url(#p8f5d07e610)" d="M 374.096118 384.48 
L 374.096118 51.84 
L 383.159955 51.84 
L 383.159955 384.48 
z
" style="fill:#008000;opacity:0.04;"/>
   </g>
   <g id="patch_27">
    <path clip-path="url(#p8f5d07e610)" d="M 392.223791 384.48 
L 392.223791 51.84 
L 401.287628 51.84 
L 401.287628 384.48 
z
" style="fill:#008000;opacity:0.04;"/>
   </g>
   <g id="patch_28">
    <path clip-path="url(#p8f5d07e610)" d="M 401.287628 371.1744 
L 401.287628 51.84 
L 410.351465 51.84 
L 410.351465 371.1744 
z
" style="fill:#008000;opacity:0.5;"/>
   </g>
   <g id="patch_29">
    <path clip-path="url(#p8f5d07e610)" d="M 410.351465 384.48 
L 410.351465 51.84 
L 419.415301 51.84 
L 419.415301 384.48 
z
" style="fill:#008000;opacity:0.04;"/>
   </g>
   <g id="patch_30">
    <path clip-path="url(#p8f5d07e610)" d="M 428.479138 384.48 
L 428.479138 51.84 
L 437.542975 51.84 
L 437.542975 384.48 
z
" style="fill:#008000;opacity:0.04;"/>
   </g>
   <g id="patch_31">
    <path clip-path="url(#p8f5d07e610)" d="M 437.542975 371.1744 
L 437.542975 357.8688 
L 446.606811 357.8688 
L 446.606811 371.1744 
z
" style="fill:#ff00ff;"/>
   </g>
   <g id="patch_32">
    <path clip-path="url(#p8f5d07e610)" d="M 446.606811 384.48 
L 446.606811 51.84 
L 455.670648 51.84 
L 455.670648 384.48 
z
" style="fill:#008000;opacity:0.04;"/>
   </g>
   <g id="patch_33">
    <path clip-path="url(#p8f5d07e610)" d="M 464.734485 384.48 
L 464.734485 51.84 
L 473.798322 51.84 
L 473.798322 384.48 
z
" style="fill:#008000;opacity:0.04;"/>
   </g>
   <g id="patch_34">
    <path clip-path="url(#p8f5d07e610)" d="M 482.862158 384.48 
L 482.862158 51.84 
L 491.925995 51.84 
L 491.925995 384.48 
z
" style="fill:#008000;opacity:0.04;"/>
   </g>
   <g id="patch_35">
    <path clip-path="url(#p8f5d07e610)" d="M 491.925995 371.1744 
L 491.925995 357.8688 
L 500.989832 357.8688 
L 500.989832 371.1744 
z
" style="fill:#ff00ff;"/>
   </g>
   <g id="patch_36">
    <path clip-path="url(#p8f5d07e610)" d="M 500.989832 384.48 
L 500.989832 51.84 
L 510.053668 51.84 
L 510.053668 384.48 
z
" style="fill:#008000;opacity:0.04;"/>
   </g>
   <g id="patch_37">
    <path clip-path="url(#p8f5d07e610)" d="M 736.649586 384.48 
L 736.649586 371.1744 
L 745.713422 371.1744 
L 745.713422 384.48 
z
" style="fill:#ff6600;"/>
   </g>
   <g id="patch_38">
    <path clip-path="url(#p8f5d07e610)" d="M 519.117505 384.48 
L 519.117505 51.84 
L 528.181342 51.84 
L 528.181342 384.48 
z
" style="fill:#008000;opacity:0.04;"/>
   </g>
   <g id="patch_39">
    <path clip-path="url(#p8f5d07e610)" d="M 537.245178 384.48 
L 537.245178 51.84 
L 546.309015 51.84 
L 546.309015 384.48 
z
" style="fill:#008000;opacity:0.04;"/>
   </g>
   <g id="patch_40">
    <path clip-path="url(#p8f5d07e610)" d="M 555.372852 384.48 
L 555.372852 51.84 
L 564.436689 51.84 
L 564.436689 384.48 
z
" style="fill:#008000;opacity:0.04;"/>
   </g>
   <g id="patch_41">
    <path clip-path="url(#p8f5d07e610)" d="M 573.500525 384.48 
L 573.500525 51.84 
L 582.564362 51.84 
L 582.564362 384.48 
z
" style="fill:#008000;opacity:0.04;"/>
   </g>
   <g id="patch_42">
    <path clip-path="url(#p8f5d07e610)" d="M 591.628199 384.48 
L 591.628199 51.84 
L 600.692035 51.84 
L 600.692035 384.48 
z
" style="fill:#008000;opacity:0.04;"/>
   </g>
   <g id="patch_43">
    <path clip-path="url(#p8f5d07e610)" d="M 591.628199 371.1744 
L 591.628199 357.8688 
L 600.692035 357.8688 
L 600.692035 371.1744 
z
" style="fill:#ff00ff;"/>
   </g>
   <g id="patch_44">
    <path clip-path="url(#p8f5d07e610)" d="M 609.755872 384.48 
L 609.755872 51.84 
L 618.819709 51.84 
L 618.819709 384.48 
z
" style="fill:#008000;opacity:0.04;"/>
   </g>
   <g id="patch_45">
    <path clip-path="url(#p8f5d07e610)" d="M 627.883545 384.48 
L 627.883545 51.84 
L 636.947382 51.84 
L 636.947382 384.48 
z
" style="fill:#008000;opacity:0.04;"/>
   </g>
   <g id="patch_46">
    <path clip-path="url(#p8f5d07e610)" d="M 646.011219 384.48 
L 646.011219 51.84 
L 655.075055 51.84 
L 655.075055 384.48 
z
" style="fill:#008000;opacity:0.04;"/>
   </g>
   <g id="patch_47">
    <path clip-path="url(#p8f5d07e610)" d="M 664.138892 384.48 
L 664.138892 51.84 
L 673.202729 51.84 
L 673.202729 384.48 
z
" style="fill:#008000;opacity:0.04;"/>
   </g>
   <g id="patch_48">
    <path clip-path="url(#p8f5d07e610)" d="M 682.266566 384.48 
L 682.266566 51.84 
L 691.330402 51.84 
L 691.330402 384.48 
z
" style="fill:#008000;opacity:0.04;"/>
   </g>
   <g id="patch_49">
    <path clip-path="url(#p8f5d07e610)" d="M 700.394239 384.48 
L 700.394239 51.84 
L 709.458076 51.84 
L 709.458076 384.48 
z
" style="fill:#008000;opacity:0.04;"/>
   </g>
   <g id="patch_50">
    <path clip-path="url(#p8f5d07e610)" d="M 718.521912 384.48 
L 718.521912 51.84 
L 727.585749 51.84 
L 727.585749 384.48 
z
" style="fill:#008000;opacity:0.04;"/>
   </g>
   <g id="patch_51">
    <path clip-path="url(#p8f5d07e610)" d="M 736.649586 384.48 
L 736.649586 51.84 
L 745.713422 51.84 
L 745.713422 384.48 
z
" style="fill:#008000;opacity:0.04;"/>
   </g>
   <g id="patch_52">
    <path clip-path="url(#p8f5d07e610)" d="M 736.649586 371.1744 
L 736.649586 51.84 
L 745.713422 51.84 
L 745.713422 371.1744 
z
" style="fill:#008000;opacity:0.5;"/>
   </g>
   <g id="matplotlib.axis_1">
    <g id="xtick_1">
     <g id="line2d_1">
      <defs>
       <path d="M 0 0 
L 0 3.5 
" id="ma2978e0899" style="stroke:#000000;stroke-width:0.8;"/>
      </defs>
      <g>
       <use style="stroke:#000000;stroke-width:0.8;" x="138.436364" xlink:href="#ma2978e0899" y="384.48"/>
      </g>
     </g>
     <g id="text_1">
      <!-- 0 -->
      <defs>
       <path d="M 31.78125 66.40625 
Q 24.171875 66.40625 20.328125 58.90625 
Q 16.5 51.421875 16.5 36.375 
Q 16.5 21.390625 20.328125 13.890625 
Q 24.171875 6.390625 31.78125 6.390625 
Q 39.453125 6.390625 43.28125 13.890625 
Q 47.125 21.390625 47.125 36.375 
Q 47.125 51.421875 43.28125 58.90625 
Q 39.453125 66.40625 31.78125 66.40625 
z
M 31.78125 74.21875 
Q 44.046875 74.21875 50.515625 64.515625 
Q 56.984375 54.828125 56.984375 36.375 
Q 56.984375 17.96875 50.515625 8.265625 
Q 44.046875 -1.421875 31.78125 -1.421875 
Q 19.53125 -1.421875 13.0625 8.265625 
Q 6.59375 17.96875 6.59375 36.375 
Q 6.59375 54.828125 13.0625 64.515625 
Q 19.53125 74.21875 31.78125 74.21875 
z
" id="DejaVuSans-48"/>
      </defs>
      <g transform="translate(135.255114 399.078438)scale(0.1 -0.1)">
       <use xlink:href="#DejaVuSans-48"/>
      </g>
     </g>
    </g>
    <g id="xtick_2">
     <g id="line2d_2">
      <g>
       <use style="stroke:#000000;stroke-width:0.8;" x="229.074731" xlink:href="#ma2978e0899" y="384.48"/>
      </g>
     </g>
     <g id="text_2">
      <!-- 250 -->
      <defs>
       <path d="M 19.1875 8.296875 
L 53.609375 8.296875 
L 53.609375 0 
L 7.328125 0 
L 7.328125 8.296875 
Q 12.9375 14.109375 22.625 23.890625 
Q 32.328125 33.6875 34.8125 36.53125 
Q 39.546875 41.84375 41.421875 45.53125 
Q 43.3125 49.21875 43.3125 52.78125 
Q 43.3125 58.59375 39.234375 62.25 
Q 35.15625 65.921875 28.609375 65.921875 
Q 23.96875 65.921875 18.8125 64.3125 
Q 13.671875 62.703125 7.8125 59.421875 
L 7.8125 69.390625 
Q 13.765625 71.78125 18.9375 73 
Q 24.125 74.21875 28.421875 74.21875 
Q 39.75 74.21875 46.484375 68.546875 
Q 53.21875 62.890625 53.21875 53.421875 
Q 53.21875 48.921875 51.53125 44.890625 
Q 49.859375 40.875 45.40625 35.40625 
Q 44.1875 33.984375 37.640625 27.21875 
Q 31.109375 20.453125 19.1875 8.296875 
z
" id="DejaVuSans-50"/>
       <path d="M 10.796875 72.90625 
L 49.515625 72.90625 
L 49.515625 64.59375 
L 19.828125 64.59375 
L 19.828125 46.734375 
Q 21.96875 47.46875 24.109375 47.828125 
Q 26.265625 48.1875 28.421875 48.1875 
Q 40.625 48.1875 47.75 41.5 
Q 54.890625 34.8125 54.890625 23.390625 
Q 54.890625 11.625 47.5625 5.09375 
Q 40.234375 -1.421875 26.90625 -1.421875 
Q 22.3125 -1.421875 17.546875 -0.640625 
Q 12.796875 0.140625 7.71875 1.703125 
L 7.71875 11.625 
Q 12.109375 9.234375 16.796875 8.0625 
Q 21.484375 6.890625 26.703125 6.890625 
Q 35.15625 6.890625 40.078125 11.328125 
Q 45.015625 15.765625 45.015625 23.390625 
Q 45.015625 31 40.078125 35.4375 
Q 35.15625 39.890625 26.703125 39.890625 
Q 22.75 39.890625 18.8125 39.015625 
Q 14.890625 38.140625 10.796875 36.28125 
z
" id="DejaVuSans-53"/>
      </defs>
      <g transform="translate(219.530981 399.078438)scale(0.1 -0.1)">
       <use xlink:href="#DejaVuSans-50"/>
       <use x="63.623047" xlink:href="#DejaVuSans-53"/>
       <use x="127.246094" xlink:href="#DejaVuSans-48"/>
      </g>
     </g>
    </g>
    <g id="xtick_3">
     <g id="line2d_3">
      <g>
       <use style="stroke:#000000;stroke-width:0.8;" x="319.713098" xlink:href="#ma2978e0899" y="384.48"/>
      </g>
     </g>
     <g id="text_3">
      <!-- 500 -->
      <g transform="translate(310.169348 399.078438)scale(0.1 -0.1)">
       <use xlink:href="#DejaVuSans-53"/>
       <use x="63.623047" xlink:href="#DejaVuSans-48"/>
       <use x="127.246094" xlink:href="#DejaVuSans-48"/>
      </g>
     </g>
    </g>
    <g id="xtick_4">
     <g id="line2d_4">
      <g>
       <use style="stroke:#000000;stroke-width:0.8;" x="410.351465" xlink:href="#ma2978e0899" y="384.48"/>
      </g>
     </g>
     <g id="text_4">
      <!-- 750 -->
      <defs>
       <path d="M 8.203125 72.90625 
L 55.078125 72.90625 
L 55.078125 68.703125 
L 28.609375 0 
L 18.3125 0 
L 43.21875 64.59375 
L 8.203125 64.59375 
z
" id="DejaVuSans-55"/>
      </defs>
      <g transform="translate(400.807715 399.078438)scale(0.1 -0.1)">
       <use xlink:href="#DejaVuSans-55"/>
       <use x="63.623047" xlink:href="#DejaVuSans-53"/>
       <use x="127.246094" xlink:href="#DejaVuSans-48"/>
      </g>
     </g>
    </g>
    <g id="xtick_5">
     <g id="line2d_5">
      <g>
       <use style="stroke:#000000;stroke-width:0.8;" x="500.989832" xlink:href="#ma2978e0899" y="384.48"/>
      </g>
     </g>
     <g id="text_5">
      <!-- 1000 -->
      <defs>
       <path d="M 12.40625 8.296875 
L 28.515625 8.296875 
L 28.515625 63.921875 
L 10.984375 60.40625 
L 10.984375 69.390625 
L 28.421875 72.90625 
L 38.28125 72.90625 
L 38.28125 8.296875 
L 54.390625 8.296875 
L 54.390625 0 
L 12.40625 0 
z
" id="DejaVuSans-49"/>
      </defs>
      <g transform="translate(488.264832 399.078438)scale(0.1 -0.1)">
       <use xlink:href="#DejaVuSans-49"/>
       <use x="63.623047" xlink:href="#DejaVuSans-48"/>
       <use x="127.246094" xlink:href="#DejaVuSans-48"/>
       <use x="190.869141" xlink:href="#DejaVuSans-48"/>
      </g>
     </g>
    </g>
    <g id="xtick_6">
     <g id="line2d_6">
      <g>
       <use style="stroke:#000000;stroke-width:0.8;" x="591.628199" xlink:href="#ma2978e0899" y="384.48"/>
      </g>
     </g>
     <g id="text_6">
      <!-- 1250 -->
      <g transform="translate(578.903199 399.078438)scale(0.1 -0.1)">
       <use xlink:href="#DejaVuSans-49"/>
       <use x="63.623047" xlink:href="#DejaVuSans-50"/>
       <use x="127.246094" xlink:href="#DejaVuSans-53"/>
       <use x="190.869141" xlink:href="#DejaVuSans-48"/>
      </g>
     </g>
    </g>
    <g id="xtick_7">
     <g id="line2d_7">
      <g>
       <use style="stroke:#000000;stroke-width:0.8;" x="682.266566" xlink:href="#ma2978e0899" y="384.48"/>
      </g>
     </g>
     <g id="text_7">
      <!-- 1500 -->
      <g transform="translate(669.541566 399.078438)scale(0.1 -0.1)">
       <use xlink:href="#DejaVuSans-49"/>
       <use x="63.623047" xlink:href="#DejaVuSans-53"/>
       <use x="127.246094" xlink:href="#DejaVuSans-48"/>
       <use x="190.869141" xlink:href="#DejaVuSans-48"/>
      </g>
     </g>
    </g>
    <g id="xtick_8">
     <g id="line2d_8">
      <g>
       <use style="stroke:#000000;stroke-width:0.8;" x="772.904933" xlink:href="#ma2978e0899" y="384.48"/>
      </g>
     </g>
     <g id="text_8">
      <!-- 1750 -->
      <g transform="translate(760.179933 399.078438)scale(0.1 -0.1)">
       <use xlink:href="#DejaVuSans-49"/>
       <use x="63.623047" xlink:href="#DejaVuSans-55"/>
       <use x="127.246094" xlink:href="#DejaVuSans-53"/>
       <use x="190.869141" xlink:href="#DejaVuSans-48"/>
      </g>
     </g>
    </g>
    <g id="text_9">
     <!-- Timestamp -->
     <defs>
      <path d="M -0.296875 72.90625 
L 61.375 72.90625 
L 61.375 64.59375 
L 35.5 64.59375 
L 35.5 0 
L 25.59375 0 
L 25.59375 64.59375 
L -0.296875 64.59375 
z
" id="DejaVuSans-84"/>
      <path d="M 9.421875 54.6875 
L 18.40625 54.6875 
L 18.40625 0 
L 9.421875 0 
z
M 9.421875 75.984375 
L 18.40625 75.984375 
L 18.40625 64.59375 
L 9.421875 64.59375 
z
" id="DejaVuSans-105"/>
      <path d="M 52 44.1875 
Q 55.375 50.25 60.0625 53.125 
Q 64.75 56 71.09375 56 
Q 79.640625 56 84.28125 50.015625 
Q 88.921875 44.046875 88.921875 33.015625 
L 88.921875 0 
L 79.890625 0 
L 79.890625 32.71875 
Q 79.890625 40.578125 77.09375 44.375 
Q 74.3125 48.1875 68.609375 48.1875 
Q 61.625 48.1875 57.5625 43.546875 
Q 53.515625 38.921875 53.515625 30.90625 
L 53.515625 0 
L 44.484375 0 
L 44.484375 32.71875 
Q 44.484375 40.625 41.703125 44.40625 
Q 38.921875 48.1875 33.109375 48.1875 
Q 26.21875 48.1875 22.15625 43.53125 
Q 18.109375 38.875 18.109375 30.90625 
L 18.109375 0 
L 9.078125 0 
L 9.078125 54.6875 
L 18.109375 54.6875 
L 18.109375 46.1875 
Q 21.1875 51.21875 25.484375 53.609375 
Q 29.78125 56 35.6875 56 
Q 41.65625 56 45.828125 52.96875 
Q 50 49.953125 52 44.1875 
z
" id="DejaVuSans-109"/>
      <path d="M 56.203125 29.59375 
L 56.203125 25.203125 
L 14.890625 25.203125 
Q 15.484375 15.921875 20.484375 11.0625 
Q 25.484375 6.203125 34.421875 6.203125 
Q 39.59375 6.203125 44.453125 7.46875 
Q 49.3125 8.734375 54.109375 11.28125 
L 54.109375 2.78125 
Q 49.265625 0.734375 44.1875 -0.34375 
Q 39.109375 -1.421875 33.890625 -1.421875 
Q 20.796875 -1.421875 13.15625 6.1875 
Q 5.515625 13.8125 5.515625 26.8125 
Q 5.515625 40.234375 12.765625 48.109375 
Q 20.015625 56 32.328125 56 
Q 43.359375 56 49.78125 48.890625 
Q 56.203125 41.796875 56.203125 29.59375 
z
M 47.21875 32.234375 
Q 47.125 39.59375 43.09375 43.984375 
Q 39.0625 48.390625 32.421875 48.390625 
Q 24.90625 48.390625 20.390625 44.140625 
Q 15.875 39.890625 15.1875 32.171875 
z
" id="DejaVuSans-101"/>
      <path d="M 44.28125 53.078125 
L 44.28125 44.578125 
Q 40.484375 46.53125 36.375 47.5 
Q 32.28125 48.484375 27.875 48.484375 
Q 21.1875 48.484375 17.84375 46.4375 
Q 14.5 44.390625 14.5 40.28125 
Q 14.5 37.15625 16.890625 35.375 
Q 19.28125 33.59375 26.515625 31.984375 
L 29.59375 31.296875 
Q 39.15625 29.25 43.1875 25.515625 
Q 47.21875 21.78125 47.21875 15.09375 
Q 47.21875 7.46875 41.1875 3.015625 
Q 35.15625 -1.421875 24.609375 -1.421875 
Q 20.21875 -1.421875 15.453125 -0.5625 
Q 10.6875 0.296875 5.421875 2 
L 5.421875 11.28125 
Q 10.40625 8.6875 15.234375 7.390625 
Q 20.0625 6.109375 24.8125 6.109375 
Q 31.15625 6.109375 34.5625 8.28125 
Q 37.984375 10.453125 37.984375 14.40625 
Q 37.984375 18.0625 35.515625 20.015625 
Q 33.0625 21.96875 24.703125 23.78125 
L 21.578125 24.515625 
Q 13.234375 26.265625 9.515625 29.90625 
Q 5.8125 33.546875 5.8125 39.890625 
Q 5.8125 47.609375 11.28125 51.796875 
Q 16.75 56 26.8125 56 
Q 31.78125 56 36.171875 55.265625 
Q 40.578125 54.546875 44.28125 53.078125 
z
" id="DejaVuSans-115"/>
      <path d="M 18.3125 70.21875 
L 18.3125 54.6875 
L 36.8125 54.6875 
L 36.8125 47.703125 
L 18.3125 47.703125 
L 18.3125 18.015625 
Q 18.3125 11.328125 20.140625 9.421875 
Q 21.96875 7.515625 27.59375 7.515625 
L 36.8125 7.515625 
L 36.8125 0 
L 27.59375 0 
Q 17.1875 0 13.234375 3.875 
Q 9.28125 7.765625 9.28125 18.015625 
L 9.28125 47.703125 
L 2.6875 47.703125 
L 2.6875 54.6875 
L 9.28125 54.6875 
L 9.28125 70.21875 
z
" id="DejaVuSans-116"/>
      <path d="M 34.28125 27.484375 
Q 23.390625 27.484375 19.1875 25 
Q 14.984375 22.515625 14.984375 16.5 
Q 14.984375 11.71875 18.140625 8.90625 
Q 21.296875 6.109375 26.703125 6.109375 
Q 34.1875 6.109375 38.703125 11.40625 
Q 43.21875 16.703125 43.21875 25.484375 
L 43.21875 27.484375 
z
M 52.203125 31.203125 
L 52.203125 0 
L 43.21875 0 
L 43.21875 8.296875 
Q 40.140625 3.328125 35.546875 0.953125 
Q 30.953125 -1.421875 24.3125 -1.421875 
Q 15.921875 -1.421875 10.953125 3.296875 
Q 6 8.015625 6 15.921875 
Q 6 25.140625 12.171875 29.828125 
Q 18.359375 34.515625 30.609375 34.515625 
L 43.21875 34.515625 
L 43.21875 35.40625 
Q 43.21875 41.609375 39.140625 45 
Q 35.0625 48.390625 27.6875 48.390625 
Q 23 48.390625 18.546875 47.265625 
Q 14.109375 46.140625 10.015625 43.890625 
L 10.015625 52.203125 
Q 14.9375 54.109375 19.578125 55.046875 
Q 24.21875 56 28.609375 56 
Q 40.484375 56 46.34375 49.84375 
Q 52.203125 43.703125 52.203125 31.203125 
z
" id="DejaVuSans-97"/>
      <path d="M 18.109375 8.203125 
L 18.109375 -20.796875 
L 9.078125 -20.796875 
L 9.078125 54.6875 
L 18.109375 54.6875 
L 18.109375 46.390625 
Q 20.953125 51.265625 25.265625 53.625 
Q 29.59375 56 35.59375 56 
Q 45.5625 56 51.78125 48.09375 
Q 58.015625 40.1875 58.015625 27.296875 
Q 58.015625 14.40625 51.78125 6.484375 
Q 45.5625 -1.421875 35.59375 -1.421875 
Q 29.59375 -1.421875 25.265625 0.953125 
Q 20.953125 3.328125 18.109375 8.203125 
z
M 48.6875 27.296875 
Q 48.6875 37.203125 44.609375 42.84375 
Q 40.53125 48.484375 33.40625 48.484375 
Q 26.265625 48.484375 22.1875 42.84375 
Q 18.109375 37.203125 18.109375 27.296875 
Q 18.109375 17.390625 22.1875 11.75 
Q 26.265625 6.109375 33.40625 6.109375 
Q 40.53125 6.109375 44.609375 11.75 
Q 48.6875 17.390625 48.6875 27.296875 
z
" id="DejaVuSans-112"/>
     </defs>
     <g transform="translate(414.739062 412.756563)scale(0.1 -0.1)">
      <use xlink:href="#DejaVuSans-84"/>
      <use x="61.037109" xlink:href="#DejaVuSans-105"/>
      <use x="88.820312" xlink:href="#DejaVuSans-109"/>
      <use x="186.232422" xlink:href="#DejaVuSans-101"/>
      <use x="247.755859" xlink:href="#DejaVuSans-115"/>
      <use x="299.855469" xlink:href="#DejaVuSans-116"/>
      <use x="339.064453" xlink:href="#DejaVuSans-97"/>
      <use x="400.34375" xlink:href="#DejaVuSans-109"/>
      <use x="497.755859" xlink:href="#DejaVuSans-112"/>
     </g>
    </g>
   </g>
   <g id="matplotlib.axis_2">
    <g id="ytick_1">
     <g id="line2d_9">
      <defs>
       <path d="M 0 0 
L -3.5 0 
" id="m5e4ae8c576" style="stroke:#000000;stroke-width:0.8;"/>
      </defs>
      <g>
       <use style="stroke:#000000;stroke-width:0.8;" x="108" xlink:href="#m5e4ae8c576" y="361.063995"/>
      </g>
     </g>
     <g id="text_10">
      <!-- −1000 -->
      <defs>
       <path d="M 10.59375 35.5 
L 73.1875 35.5 
L 73.1875 27.203125 
L 10.59375 27.203125 
z
" id="DejaVuSans-8722"/>
      </defs>
      <g transform="translate(67.170312 364.863214)scale(0.1 -0.1)">
       <use xlink:href="#DejaVuSans-8722"/>
       <use x="83.789062" xlink:href="#DejaVuSans-49"/>
       <use x="147.412109" xlink:href="#DejaVuSans-48"/>
       <use x="211.035156" xlink:href="#DejaVuSans-48"/>
       <use x="274.658203" xlink:href="#DejaVuSans-48"/>
      </g>
     </g>
    </g>
    <g id="ytick_2">
     <g id="line2d_10">
      <g>
       <use style="stroke:#000000;stroke-width:0.8;" x="108" xlink:href="#m5e4ae8c576" y="315.979443"/>
      </g>
     </g>
     <g id="text_11">
      <!-- −500 -->
      <g transform="translate(73.532813 319.778662)scale(0.1 -0.1)">
       <use xlink:href="#DejaVuSans-8722"/>
       <use x="83.789062" xlink:href="#DejaVuSans-53"/>
       <use x="147.412109" xlink:href="#DejaVuSans-48"/>
       <use x="211.035156" xlink:href="#DejaVuSans-48"/>
      </g>
     </g>
    </g>
    <g id="ytick_3">
     <g id="line2d_11">
      <g>
       <use style="stroke:#000000;stroke-width:0.8;" x="108" xlink:href="#m5e4ae8c576" y="270.894892"/>
      </g>
     </g>
     <g id="text_12">
      <!-- 0 -->
      <g transform="translate(94.6375 274.69411)scale(0.1 -0.1)">
       <use xlink:href="#DejaVuSans-48"/>
      </g>
     </g>
    </g>
    <g id="ytick_4">
     <g id="line2d_12">
      <g>
       <use style="stroke:#000000;stroke-width:0.8;" x="108" xlink:href="#m5e4ae8c576" y="225.81034"/>
      </g>
     </g>
     <g id="text_13">
      <!-- 500 -->
      <g transform="translate(81.9125 229.609559)scale(0.1 -0.1)">
       <use xlink:href="#DejaVuSans-53"/>
       <use x="63.623047" xlink:href="#DejaVuSans-48"/>
       <use x="127.246094" xlink:href="#DejaVuSans-48"/>
      </g>
     </g>
    </g>
    <g id="ytick_5">
     <g id="line2d_13">
      <g>
       <use style="stroke:#000000;stroke-width:0.8;" x="108" xlink:href="#m5e4ae8c576" y="180.725788"/>
      </g>
     </g>
     <g id="text_14">
      <!-- 1000 -->
      <g transform="translate(75.55 184.525007)scale(0.1 -0.1)">
       <use xlink:href="#DejaVuSans-49"/>
       <use x="63.623047" xlink:href="#DejaVuSans-48"/>
       <use x="127.246094" xlink:href="#DejaVuSans-48"/>
       <use x="190.869141" xlink:href="#DejaVuSans-48"/>
      </g>
     </g>
    </g>
    <g id="ytick_6">
     <g id="line2d_14">
      <g>
       <use style="stroke:#000000;stroke-width:0.8;" x="108" xlink:href="#m5e4ae8c576" y="135.641236"/>
      </g>
     </g>
     <g id="text_15">
      <!-- 1500 -->
      <g transform="translate(75.55 139.440455)scale(0.1 -0.1)">
       <use xlink:href="#DejaVuSans-49"/>
       <use x="63.623047" xlink:href="#DejaVuSans-53"/>
       <use x="127.246094" xlink:href="#DejaVuSans-48"/>
       <use x="190.869141" xlink:href="#DejaVuSans-48"/>
      </g>
     </g>
    </g>
    <g id="ytick_7">
     <g id="line2d_15">
      <g>
       <use style="stroke:#000000;stroke-width:0.8;" x="108" xlink:href="#m5e4ae8c576" y="90.556685"/>
      </g>
     </g>
     <g id="text_16">
      <!-- 2000 -->
      <g transform="translate(75.55 94.355903)scale(0.1 -0.1)">
       <use xlink:href="#DejaVuSans-50"/>
       <use x="63.623047" xlink:href="#DejaVuSans-48"/>
       <use x="127.246094" xlink:href="#DejaVuSans-48"/>
       <use x="190.869141" xlink:href="#DejaVuSans-48"/>
      </g>
     </g>
    </g>
    <g id="text_17">
     <!-- Value -->
     <defs>
      <path d="M 28.609375 0 
L 0.78125 72.90625 
L 11.078125 72.90625 
L 34.1875 11.53125 
L 57.328125 72.90625 
L 67.578125 72.90625 
L 39.796875 0 
z
" id="DejaVuSans-86"/>
      <path d="M 9.421875 75.984375 
L 18.40625 75.984375 
L 18.40625 0 
L 9.421875 0 
z
" id="DejaVuSans-108"/>
      <path d="M 8.5 21.578125 
L 8.5 54.6875 
L 17.484375 54.6875 
L 17.484375 21.921875 
Q 17.484375 14.15625 20.5 10.265625 
Q 23.53125 6.390625 29.59375 6.390625 
Q 36.859375 6.390625 41.078125 11.03125 
Q 45.3125 15.671875 45.3125 23.6875 
L 45.3125 54.6875 
L 54.296875 54.6875 
L 54.296875 0 
L 45.3125 0 
L 45.3125 8.40625 
Q 42.046875 3.421875 37.71875 1 
Q 33.40625 -1.421875 27.6875 -1.421875 
Q 18.265625 -1.421875 13.375 4.4375 
Q 8.5 10.296875 8.5 21.578125 
z
M 31.109375 56 
z
" id="DejaVuSans-117"/>
     </defs>
     <g transform="translate(61.090625 232.273281)rotate(-90)scale(0.1 -0.1)">
      <use xlink:href="#DejaVuSans-86"/>
      <use x="68.298828" xlink:href="#DejaVuSans-97"/>
      <use x="129.578125" xlink:href="#DejaVuSans-108"/>
      <use x="157.361328" xlink:href="#DejaVuSans-117"/>
      <use x="220.740234" xlink:href="#DejaVuSans-101"/>
     </g>
    </g>
   </g>
   <g id="line2d_16">
    <path clip-path="url(#p8f5d07e610)" d="M 138.436364 277.208962 
L 138.798917 225.700856 
L 139.161471 214.314469 
L 139.524024 211.287541 
L 139.886578 187.42909 
L 140.249131 225.747236 
L 140.611684 216.289661 
L 140.974238 270.093961 
L 141.336791 281.571695 
L 141.699345 315.345874 
L 142.061898 302.569933 
L 142.424452 305.565544 
L 142.787005 294.842743 
L 143.512112 200.232672 
L 143.874666 240.457899 
L 144.237219 248.133113 
L 144.599773 284.651532 
L 144.962326 300.964691 
L 145.32488 339.110232 
L 145.687433 337.238809 
L 146.049986 349.95613 
L 146.41254 325.773923 
L 146.775093 268.610349 
L 147.137647 254.023897 
L 147.5002 189.251932 
L 147.862754 182.411411 
L 148.225307 166.791147 
L 148.587861 164.834634 
L 148.950414 158.535024 
L 149.312968 238.401038 
L 149.675521 241.219741 
L 150.400628 287.335486 
L 150.763182 283.332235 
L 151.125735 228.130921 
L 151.488288 234.226263 
L 152.213395 209.615086 
L 152.575949 216.337647 
L 152.938502 234.930616 
L 153.301056 275.295373 
L 153.663609 287.050275 
L 154.026163 320.862078 
L 154.388716 312.398744 
L 154.75127 337.17421 
L 155.113823 308.824239 
L 155.476377 266.980116 
L 155.83893 251.671119 
L 156.201484 199.898491 
L 156.564037 190.787877 
L 156.926591 147.42961 
L 157.289144 149.775293 
L 157.651697 192.128306 
L 158.739358 248.40729 
L 159.101911 235.49508 
L 159.464465 272.947406 
L 159.827018 237.956776 
L 160.189572 227.412691 
L 160.552125 242.641898 
L 160.914679 198.17043 
L 161.277232 230.030389 
L 161.639786 232.431143 
L 162.002339 267.407168 
L 162.364893 271.669503 
L 162.727446 332.530822 
L 163.089999 355.719596 
L 163.452553 325.717204 
L 163.815106 333.383763 
L 165.26532 156.817302 
L 165.627874 184.83539 
L 165.990427 157.540662 
L 167.440641 284.76406 
L 167.803195 266.616387 
L 168.165748 291.464115 
L 168.528301 261.885476 
L 168.890855 254.61466 
L 169.253408 233.354803 
L 169.615962 220.303018 
L 169.978515 234.996412 
L 170.341069 212.693122 
L 171.428729 346.036564 
L 171.791283 327.815901 
L 172.153836 366.957196 
L 172.878943 289.023355 
L 173.241497 273.130883 
L 173.60405 220.421021 
L 174.69171 169.297616 
L 175.416817 233.42839 
L 176.141924 286.79633 
L 176.504478 308.92245 
L 176.867031 318.49752 
L 177.229585 267.694408 
L 177.592138 258.733921 
L 177.954692 266.144709 
L 178.317245 244.280984 
L 178.679799 259.293699 
L 179.042352 248.850666 
L 179.404906 267.63173 
L 179.767459 313.108321 
L 180.130012 335.968365 
L 180.855119 362.20429 
L 181.217673 340.500686 
L 181.94278 277.093222 
L 182.305333 213.736256 
L 182.667887 211.227693 
L 183.03044 198.910173 
L 183.392994 176.722735 
L 183.755547 186.521517 
L 184.118101 227.853307 
L 184.480654 282.940886 
L 184.843208 271.484628 
L 185.205761 302.271247 
L 185.568314 277.322874 
L 185.930868 297.656525 
L 186.293421 275.876403 
L 186.655975 244.117243 
L 187.018528 255.134332 
L 187.381082 227.291291 
L 187.743635 266.39773 
L 188.468742 311.998794 
L 188.831296 298.039326 
L 189.193849 362.706354 
L 189.556403 369.36 
L 189.918956 348.414344 
L 190.28151 284.454701 
L 191.006616 235.187542 
L 191.36917 180.903415 
L 191.731723 185.888347 
L 192.094277 204.680764 
L 192.45683 178.738658 
L 192.819384 187.808301 
L 193.181937 250.713596 
L 193.544491 271.323119 
L 193.907044 270.882728 
L 194.269598 280.63266 
L 194.632151 267.655933 
L 194.994705 270.990102 
L 195.357258 221.235615 
L 195.719812 255.149053 
L 196.082365 246.708355 
L 196.444919 226.371526 
L 196.807472 236.324057 
L 197.170025 281.242149 
L 197.532579 279.941324 
L 197.895132 330.178403 
L 198.257686 354.753893 
L 198.620239 308.944184 
L 198.982793 283.5101 
L 200.070453 181.446812 
L 200.433007 194.699796 
L 200.79556 151.924324 
L 201.158114 162.426641 
L 201.520667 161.802776 
L 201.883221 245.621803 
L 202.245774 247.227321 
L 202.608327 257.858234 
L 202.970881 262.577068 
L 203.333434 224.303318 
L 203.695988 265.830671 
L 204.058541 192.632118 
L 204.421095 190.426951 
L 204.783648 194.045471 
L 205.146202 221.582932 
L 205.508755 228.683728 
L 205.871309 255.631362 
L 206.233862 290.929155 
L 206.958969 330.931958 
L 208.046629 204.577501 
L 208.409183 169.0687 
L 208.771736 153.356237 
L 209.13429 154.606995 
L 209.496843 122.559524 
L 209.859397 139.398936 
L 210.22195 178.712247 
L 210.584504 202.141282 
L 210.947057 214.923267 
L 211.309611 239.476376 
L 211.672164 250.005786 
L 212.034718 236.24457 
L 212.759825 167.649948 
L 213.122378 187.463468 
L 213.484932 180.311966 
L 214.210038 234.816922 
L 214.572592 240.267921 
L 214.935145 279.745105 
L 215.297699 283.187827 
L 215.660252 300.822322 
L 216.022806 286.421631 
L 216.385359 248.951421 
L 216.747913 190.484879 
L 217.110466 181.151902 
L 217.47302 123.910822 
L 217.835573 126.148341 
L 218.198127 131.698211 
L 218.56068 192.962025 
L 218.923234 168.839077 
L 219.285787 192.159919 
L 219.64834 231.783314 
L 220.010894 238.844468 
L 220.373447 239.699796 
L 220.736001 228.616207 
L 221.098554 208.903459 
L 221.461108 213.400538 
L 221.823661 159.181992 
L 222.186215 213.270163 
L 222.548768 196.665328 
L 222.911322 234.738774 
L 223.273875 233.037039 
L 223.636429 279.173017 
L 223.998982 289.013318 
L 224.361536 315.369692 
L 225.086642 263.647373 
L 225.449196 216.621946 
L 225.811749 203.817786 
L 226.536856 129.832071 
L 226.89941 125.264145 
L 227.261963 144.610698 
L 227.624517 191.129155 
L 227.98707 215.638291 
L 228.349624 258.458668 
L 228.712177 237.842287 
L 229.074731 241.369924 
L 229.437284 249.501316 
L 229.799838 223.094394 
L 230.162391 186.126885 
L 230.524945 190.727434 
L 230.887498 199.293302 
L 231.612605 238.757765 
L 231.975158 253.329601 
L 232.700265 306.552128 
L 233.062819 316.420718 
L 233.425372 313.319357 
L 233.787926 269.517357 
L 234.150479 264.254751 
L 234.513033 209.828137 
L 234.875586 183.148325 
L 235.23814 132.98839 
L 235.600693 136.071851 
L 235.963247 213.661343 
L 236.3258 191.668298 
L 236.688353 224.392238 
L 237.050907 281.362783 
L 237.41346 273.938831 
L 237.776014 257.592466 
L 238.138567 270.363364 
L 238.501121 242.065373 
L 238.863674 227.395292 
L 239.226228 200.53891 
L 239.588781 224.138643 
L 239.951335 210.175525 
L 240.313888 253.726788 
L 240.676442 273.758693 
L 241.038995 343.322861 
L 241.401549 318.79787 
L 241.764102 318.12519 
L 242.126655 294.18124 
L 242.489209 239.352318 
L 242.851762 227.601246 
L 243.214316 194.90803 
L 243.576869 151.719994 
L 243.939423 151.621784 
L 244.301976 138.856902 
L 245.389637 245.502867 
L 245.75219 261.0963 
L 246.114744 263.189211 
L 246.477297 257.551906 
L 247.202404 236.637034 
L 247.564957 220.036953 
L 247.927511 252.554729 
L 248.290064 201.077427 
L 248.652618 201.490298 
L 249.377725 290.693726 
L 249.740278 264.269351 
L 250.102832 344.697695 
L 250.465385 307.762285 
L 250.827939 318.388015 
L 251.190492 257.684926 
L 252.278153 152.738459 
L 252.640706 155.69432 
L 253.00326 122.211794 
L 253.728366 190.492816 
L 254.09092 209.32139 
L 254.453473 219.444421 
L 254.816027 250.743061 
L 255.17858 234.71056 
L 255.541134 224.284428 
L 255.903687 244.598915 
L 256.266241 201.462622 
L 256.628794 210.372059 
L 256.991348 182.723228 
L 257.353901 197.316986 
L 257.716455 198.911422 
L 258.079008 257.526761 
L 258.441562 287.200885 
L 258.804115 292.520698 
L 259.166668 293.02283 
L 259.529222 292.09352 
L 259.891775 255.902194 
L 260.254329 198.957237 
L 260.979436 139.220727 
L 261.341989 151.390337 
L 261.704543 116.721263 
L 262.067096 155.574585 
L 262.792203 201.033667 
L 263.154757 240.846077 
L 263.51731 256.033998 
L 263.879864 213.553939 
L 264.242417 224.590005 
L 264.60497 176.106661 
L 264.967524 181.642975 
L 265.330077 137.337074 
L 265.692631 171.197389 
L 266.055184 169.910605 
L 266.417738 222.117119 
L 266.780291 230.290436 
L 267.142845 268.609513 
L 267.505398 267.146146 
L 268.230505 286.400536 
L 268.593059 208.58703 
L 269.318166 153.766226 
L 269.680719 132.400456 
L 270.043273 98.666663 
L 270.405826 115.446889 
L 270.768379 103.671258 
L 271.130933 141.640952 
L 271.493486 193.440812 
L 271.85604 183.557139 
L 272.581147 231.219593 
L 272.9437 209.765022 
L 273.306254 180.724035 
L 273.668807 173.39624 
L 274.031361 141.68308 
L 274.393914 150.821856 
L 275.481575 239.149065 
L 275.844128 236.262003 
L 276.206681 243.168301 
L 276.569235 269.939483 
L 276.931788 231.795244 
L 277.294342 216.760684 
L 277.656895 163.43674 
L 278.019449 159.427132 
L 278.382002 144.406661 
L 278.744556 91.206818 
L 279.107109 91.732979 
L 279.469663 112.182594 
L 279.832216 126.130502 
L 280.19477 173.330045 
L 280.557323 200.060138 
L 280.919877 200.875439 
L 281.28243 221.327175 
L 282.007537 181.765654 
L 282.37009 173.19295 
L 282.732644 153.807701 
L 283.095197 187.028984 
L 283.457751 151.950407 
L 283.820304 209.270899 
L 284.182858 209.416518 
L 284.545411 248.934229 
L 284.907965 260.1655 
L 285.270518 260.214938 
L 285.633072 234.881643 
L 285.995625 248.319455 
L 286.358179 181.276353 
L 286.720732 171.435636 
L 287.083286 111.759211 
L 287.808392 128.649819 
L 288.170946 125.779892 
L 288.533499 170.116129 
L 288.896053 181.688028 
L 289.258606 209.503085 
L 289.62116 227.110258 
L 290.346267 209.406469 
L 291.071374 169.908767 
L 291.433927 152.567986 
L 291.796481 182.775222 
L 292.159034 171.431011 
L 292.521588 219.38368 
L 292.884141 227.142742 
L 293.246694 256.08469 
L 293.609248 274.223589 
L 293.971801 268.203681 
L 294.334355 272.690654 
L 296.147122 111.732878 
L 296.509676 115.524691 
L 297.234783 181.257728 
L 297.597336 189.903456 
L 297.95989 235.43785 
L 298.322443 246.190409 
L 299.04755 234.276667 
L 299.410103 199.874107 
L 299.772657 191.762357 
L 300.13521 173.3453 
L 300.497764 193.203008 
L 300.860317 186.928703 
L 302.310531 292.852241 
L 302.673085 290.303429 
L 303.760745 216.349988 
L 304.123299 169.008148 
L 304.485852 171.877861 
L 304.848405 140.857297 
L 305.210959 140.562059 
L 305.573512 168.540548 
L 305.936066 172.053086 
L 306.298619 213.074533 
L 306.661173 225.064162 
L 307.023726 221.649493 
L 307.38628 255.624636 
L 307.748833 226.488337 
L 308.47394 196.083953 
L 308.836494 194.148882 
L 309.199047 184.098775 
L 309.561601 214.295415 
L 309.924154 187.841983 
L 310.286707 261.080599 
L 310.649261 277.447073 
L 311.011814 288.772082 
L 311.374368 281.691934 
L 312.099475 251.86214 
L 312.462028 205.896731 
L 313.187135 163.492367 
L 313.549689 132.081321 
L 313.912242 119.692836 
L 314.274796 153.23506 
L 314.637349 167.442361 
L 314.999903 211.48556 
L 315.362456 208.106221 
L 315.725009 220.304946 
L 316.087563 247.697245 
L 316.450116 225.698239 
L 317.175223 168.264614 
L 317.537777 184.88358 
L 317.90033 192.420451 
L 318.262884 181.611451 
L 318.625437 191.728405 
L 318.987991 245.393333 
L 319.350544 259.654731 
L 319.713098 252.518081 
L 320.075651 265.983697 
L 320.438205 226.710822 
L 320.800758 219.371954 
L 321.163311 197.367088 
L 321.888418 137.194337 
L 322.250972 117.695379 
L 322.613525 128.729876 
L 322.976079 131.219964 
L 323.338632 154.548076 
L 323.701186 165.057166 
L 324.063739 188.150196 
L 324.426293 232.222131 
L 325.1514 185.199464 
L 325.513953 186.03141 
L 325.876507 162.502999 
L 326.23906 151.785786 
L 326.601614 150.601033 
L 326.964167 192.753945 
L 327.32672 204.915291 
L 327.689274 199.821965 
L 328.051827 226.032426 
L 328.414381 240.209553 
L 328.776934 267.111823 
L 329.139488 247.721815 
L 329.502041 221.970527 
L 329.864595 186.636551 
L 330.227148 132.246432 
L 330.589702 120.918205 
L 330.952255 87.870484 
L 331.314809 100.269411 
L 332.039916 134.678226 
L 332.402469 187.130515 
L 332.765022 187.802899 
L 333.127576 220.540368 
L 333.852683 185.084738 
L 334.215236 186.889076 
L 335.302897 105.918516 
L 335.66545 172.03353 
L 336.028004 180.566546 
L 336.390557 195.37887 
L 336.753111 232.302638 
L 337.115664 238.715875 
L 337.478218 261.208846 
L 337.840771 255.189735 
L 338.565878 168.513468 
L 339.653538 102.185747 
L 340.016092 90.944762 
L 340.378645 132.966014 
L 340.741199 129.4159 
L 341.103752 179.08928 
L 341.466306 179.797088 
L 341.828859 215.169572 
L 342.191413 207.903867 
L 342.553966 214.303935 
L 342.91652 168.569007 
L 343.279073 163.730114 
L 343.641627 157.134428 
L 344.00418 145.126889 
L 344.366733 152.201192 
L 344.729287 190.712331 
L 345.09184 197.690051 
L 345.454394 253.515661 
L 345.816947 244.401722 
L 346.179501 270.731622 
L 346.542054 227.354905 
L 346.904608 204.374742 
L 347.267161 191.703823 
L 347.629715 172.090649 
L 347.992268 135.820018 
L 348.354822 140.530293 
L 348.717375 138.612617 
L 349.079929 124.025087 
L 349.805035 184.876945 
L 350.167589 210.643748 
L 350.530142 212.923457 
L 350.892696 217.298114 
L 351.255249 191.1667 
L 351.617803 199.447547 
L 351.980356 169.365847 
L 352.34291 164.711308 
L 352.705463 169.209644 
L 353.068017 201.58053 
L 353.43057 204.444276 
L 353.793124 220.595923 
L 354.155677 242.207306 
L 354.518231 245.533691 
L 354.880784 267.515023 
L 355.243337 248.481918 
L 355.605891 243.972204 
L 355.968444 199.94008 
L 356.330998 186.788252 
L 356.693551 152.804342 
L 357.418658 122.210296 
L 357.781212 146.11234 
L 358.143765 148.719201 
L 358.506319 207.761119 
L 358.868872 212.519443 
L 359.231426 238.65976 
L 359.593979 235.422091 
L 359.956533 219.78646 
L 360.319086 198.835557 
L 361.044193 174.212864 
L 361.406746 207.129619 
L 361.7693 165.916568 
L 362.131853 229.067335 
L 362.494407 254.223396 
L 362.85696 241.722146 
L 363.219514 289.213592 
L 363.582067 282.874236 
L 363.944621 268.14535 
L 364.307174 234.107372 
L 365.032281 191.615871 
L 365.757388 138.471324 
L 366.119942 134.481963 
L 366.482495 166.25178 
L 366.845048 179.45261 
L 367.570155 238.164478 
L 367.932709 240.034602 
L 368.295262 234.016757 
L 368.657816 236.336905 
L 369.020369 218.168805 
L 369.382923 218.857235 
L 369.745476 196.232085 
L 370.10803 182.359976 
L 370.833137 233.988597 
L 371.19569 229.15931 
L 371.558244 267.667518 
L 371.920797 294.234137 
L 372.28335 274.071301 
L 372.645904 267.683542 
L 373.008457 245.16554 
L 373.371011 205.514381 
L 373.733564 198.540659 
L 374.096118 148.459667 
L 374.458671 124.165576 
L 374.821225 151.733767 
L 375.183778 132.024258 
L 375.546332 204.574357 
L 375.908885 185.072898 
L 376.996546 223.95264 
L 377.359099 217.737608 
L 377.721652 208.328373 
L 378.446759 167.694427 
L 378.809313 191.389877 
L 379.171866 199.614421 
L 379.53442 214.86921 
L 379.896973 240.022899 
L 380.259527 251.126951 
L 380.62208 301.382172 
L 380.984634 281.10622 
L 381.709741 225.758883 
L 382.434848 162.158657 
L 382.797401 123.925189 
L 383.159955 122.349001 
L 383.522508 108.70658 
L 384.247615 167.961988 
L 384.610168 172.206134 
L 384.972722 182.97318 
L 385.335275 202.976562 
L 385.697829 190.962612 
L 386.060382 211.976282 
L 386.422936 165.376756 
L 386.785489 147.188471 
L 387.148043 135.429715 
L 387.510596 147.618239 
L 388.235703 199.275257 
L 388.598257 201.895673 
L 388.96081 232.17966 
L 389.685917 268.784868 
L 390.04847 248.671418 
L 390.411024 235.887238 
L 391.136131 142.331226 
L 391.861238 82.131156 
L 392.223791 103.873634 
L 392.586345 113.474566 
L 392.948898 127.001156 
L 393.311452 150.559876 
L 393.674005 188.258506 
L 394.036559 214.33847 
L 394.761665 180.469342 
L 395.124219 199.535826 
L 395.486772 140.116899 
L 395.849326 142.088091 
L 396.211879 158.677327 
L 396.574433 162.166076 
L 396.936986 176.227846 
L 397.29954 222.193429 
L 397.662093 246.791706 
L 398.024647 249.038207 
L 398.3872 248.790422 
L 398.749754 247.4785 
L 399.112307 237.076607 
L 400.199968 107.080988 
L 400.562521 97.744837 
L 400.925074 118.426355 
L 401.287628 123.240336 
L 401.650181 120.819676 
L 402.012735 165.158097 
L 402.375288 176.080667 
L 402.737842 209.216185 
L 403.100395 186.085375 
L 403.462949 66.96 
L 403.825502 179.164526 
L 404.188056 162.054592 
L 404.550609 177.807512 
L 404.913163 153.285842 
L 405.275716 186.786313 
L 406.000823 222.683709 
L 406.363376 256.28836 
L 406.72593 256.758462 
L 407.088483 268.302902 
L 407.451037 257.959103 
L 407.81359 236.617572 
L 408.176144 185.224466 
L 408.901251 117.715056 
L 409.263804 126.675466 
L 409.626358 98.960353 
L 409.988911 136.684831 
L 410.351465 146.474366 
L 410.714018 185.343765 
L 411.439125 214.000986 
L 411.801678 223.093507 
L 412.164232 225.059921 
L 412.526785 187.24686 
L 412.889339 197.038616 
L 413.251892 167.599602 
L 413.614446 177.28874 
L 413.976999 200.12214 
L 414.339553 195.949868 
L 415.06466 271.570896 
L 415.427213 272.818158 
L 415.789767 279.908139 
L 416.15232 270.293914 
L 416.514874 231.29851 
L 417.239981 182.326861 
L 417.602534 137.047816 
L 417.965087 168.165165 
L 418.327641 123.211489 
L 419.052748 159.959444 
L 419.415301 217.570322 
L 419.777855 207.879723 
L 420.140408 244.412904 
L 420.502962 233.894955 
L 420.865515 248.210348 
L 421.228069 194.241042 
L 421.590622 194.222307 
L 421.953176 187.067336 
L 422.315729 205.813316 
L 422.678283 205.432522 
L 423.040836 232.699467 
L 423.403389 226.764658 
L 423.765943 274.081631 
L 424.128496 295.427944 
L 424.49105 285.431305 
L 425.216157 253.548389 
L 425.941264 177.752185 
L 426.666371 151.382323 
L 427.028924 161.398554 
L 427.391478 140.59324 
L 428.116585 211.534403 
L 428.479138 225.340763 
L 428.841691 272.309995 
L 429.204245 224.380879 
L 429.566798 237.898747 
L 429.929352 222.739031 
L 430.291905 186.262961 
L 430.654459 182.77435 
L 431.017012 190.382865 
L 431.379566 216.43264 
L 431.742119 196.243571 
L 432.104673 246.961685 
L 432.467226 277.912453 
L 432.82978 270.713803 
L 433.192333 286.394572 
L 433.554887 265.001813 
L 433.91744 257.150716 
L 434.279994 215.548176 
L 434.642547 151.925231 
L 435.0051 152.857943 
L 435.367654 139.02175 
L 435.730207 142.674476 
L 436.092761 170.546044 
L 436.455314 169.225669 
L 436.817868 189.620112 
L 437.542975 216.359898 
L 437.905528 232.813291 
L 439.355742 164.180889 
L 439.718296 191.895366 
L 440.080849 176.800592 
L 440.443402 224.183068 
L 440.805956 244.723044 
L 441.168509 237.684039 
L 441.531063 241.588088 
L 441.893616 259.775368 
L 442.25617 255.342014 
L 442.618723 238.784936 
L 442.981277 191.969491 
L 443.34383 180.115584 
L 443.706384 157.658611 
L 444.068937 151.032017 
L 444.431491 150.122039 
L 444.794044 158.542918 
L 445.156598 174.29122 
L 445.519151 197.172059 
L 445.881704 196.601474 
L 446.244258 209.266284 
L 446.606811 206.778263 
L 446.969365 195.940679 
L 447.331918 193.624167 
L 447.694472 188.876924 
L 448.057025 178.949758 
L 448.419579 180.372057 
L 448.782132 167.526489 
L 449.144686 188.036927 
L 449.507239 218.466912 
L 449.869793 224.189444 
L 450.232346 227.196937 
L 450.5949 235.051379 
L 450.957453 235.582165 
L 451.320006 209.144542 
L 451.68256 201.349749 
L 452.045113 162.47231 
L 452.407667 163.016616 
L 452.77022 154.217184 
L 453.132774 153.637899 
L 453.495327 168.212148 
L 453.857881 192.809302 
L 454.220434 191.271279 
L 454.582988 192.332766 
L 454.945541 202.479501 
L 455.308095 219.269585 
L 455.670648 210.823369 
L 456.033202 199.345559 
L 456.395755 198.245278 
L 456.758309 186.745395 
L 457.120862 181.672807 
L 457.845969 200.906317 
L 458.208522 212.648613 
L 458.571076 232.839175 
L 458.933629 226.080083 
L 459.296183 248.373739 
L 459.658736 218.988289 
L 460.02129 204.714566 
L 460.383843 202.013358 
L 460.746397 174.988741 
L 461.471504 177.583528 
L 461.834057 160.535569 
L 462.196611 182.472967 
L 462.559164 178.763919 
L 462.921717 198.014426 
L 463.284271 209.822063 
L 463.646824 209.585369 
L 464.009378 230.882241 
L 464.371931 223.82002 
L 464.734485 189.432768 
L 465.097038 191.129828 
L 465.459592 194.689066 
L 465.822145 184.503164 
L 466.184699 200.404192 
L 466.547252 208.17996 
L 466.909806 224.595773 
L 467.272359 232.131436 
L 467.634913 260.619177 
L 467.997466 254.070477 
L 468.360019 228.811919 
L 468.722573 222.989601 
L 469.085126 206.936487 
L 469.44768 181.553112 
L 469.810233 169.77841 
L 470.172787 171.694296 
L 470.53534 172.589772 
L 470.897894 176.011292 
L 471.260447 195.236011 
L 471.623001 204.880057 
L 471.985554 219.676809 
L 472.348108 229.738408 
L 472.710661 224.585206 
L 473.073215 228.098646 
L 473.435768 225.96829 
L 473.798322 219.667469 
L 474.160875 190.91187 
L 474.523428 198.04367 
L 474.885982 226.018741 
L 475.248535 218.810046 
L 476.336196 268.705839 
L 476.698749 270.188267 
L 477.061303 256.504407 
L 477.423856 258.049854 
L 477.78641 227.168788 
L 478.148963 212.655915 
L 478.511517 184.844279 
L 478.87407 185.704868 
L 479.236624 189.989988 
L 479.599177 192.074564 
L 479.96173 205.516589 
L 480.324284 231.34819 
L 480.686837 227.24384 
L 481.049391 238.24942 
L 481.411944 256.206388 
L 481.774498 231.785656 
L 482.137051 238.974246 
L 482.499605 221.625177 
L 482.862158 215.991501 
L 483.224712 231.935736 
L 483.587265 218.220128 
L 483.949819 230.901927 
L 484.312372 263.223126 
L 484.674926 259.296231 
L 485.037479 278.776304 
L 485.400032 277.9299 
L 485.762586 272.79297 
L 486.125139 252.517741 
L 486.487693 219.499354 
L 486.850246 236.654503 
L 487.2128 207.181088 
L 487.575353 193.125013 
L 487.937907 202.555656 
L 488.30046 194.857109 
L 489.025567 228.636798 
L 489.388121 254.116399 
L 489.750674 250.70696 
L 490.113228 244.684815 
L 490.475781 245.103641 
L 490.838335 254.399648 
L 491.563441 215.121141 
L 492.288548 234.20018 
L 493.013655 274.130074 
L 493.376209 265.687089 
L 493.738762 253.111273 
L 494.101316 253.548285 
L 494.463869 253.483271 
L 494.826423 253.197186 
L 495.188976 238.465916 
L 495.55153 228.467203 
L 495.914083 211.277201 
L 496.276637 214.341159 
L 496.63919 214.553683 
L 497.001743 213.803813 
L 497.364297 227.612499 
L 497.72685 230.029091 
L 498.089404 238.921188 
L 498.451957 236.401937 
L 498.814511 243.768545 
L 499.177064 242.853698 
L 499.902171 226.442292 
L 500.264725 222.145809 
L 500.627278 220.961889 
L 500.989832 226.906292 
L 501.352385 228.098198 
L 501.714939 243.033344 
L 502.802599 251.368554 
L 503.527706 237.253293 
L 503.890259 221.416984 
L 504.252813 215.739325 
L 504.615366 211.985809 
L 504.97792 201.339372 
L 505.340473 203.088054 
L 505.703027 212.355053 
L 506.06558 217.160059 
L 506.428134 212.991434 
L 506.790687 228.119798 
L 507.153241 231.489514 
L 507.515794 227.7314 
L 507.878348 228.727272 
L 508.603454 217.818052 
L 508.966008 217.56882 
L 509.328561 212.908573 
L 509.691115 216.874937 
L 510.053668 224.76843 
L 510.416222 230.21518 
L 511.141329 237.643969 
L 511.503882 244.523868 
L 511.866436 239.76974 
L 512.228989 236.702483 
L 512.591543 211.372261 
L 512.954096 212.641306 
L 513.31665 196.64187 
L 513.679203 200.531873 
L 514.041756 199.936216 
L 514.40431 200.469812 
L 514.766863 202.32144 
L 515.49197 223.058838 
L 515.854524 220.887359 
L 516.217077 223.925134 
L 516.579631 221.552253 
L 516.942184 212.384864 
L 517.304738 206.688337 
L 517.667291 207.644262 
L 518.029845 216.430891 
L 518.392398 207.422067 
L 518.754952 214.516978 
L 519.117505 227.154411 
L 519.480058 232.767236 
L 519.842612 235.142737 
L 520.205165 234.308448 
L 521.292826 218.260686 
L 521.655379 201.758242 
L 522.017933 194.737485 
L 522.380486 190.159267 
L 522.74304 196.494621 
L 523.105593 197.677211 
L 523.468147 202.459166 
L 523.8307 215.76979 
L 524.193254 223.110794 
L 524.555807 220.407464 
L 524.91836 222.317874 
L 525.280914 226.510663 
L 526.006021 206.480189 
L 526.368574 202.929236 
L 526.731128 201.601709 
L 527.093681 213.285973 
L 527.456235 217.025737 
L 527.818788 223.801855 
L 528.181342 227.856818 
L 528.543895 236.360245 
L 528.906449 234.48921 
L 529.269002 225.743426 
L 529.631556 225.364079 
L 529.994109 205.490424 
L 530.719216 200.486612 
L 531.081769 192.660035 
L 531.444323 194.981712 
L 531.806876 191.807456 
L 532.16943 201.172224 
L 532.531983 214.387455 
L 532.894537 218.480165 
L 533.25709 224.384239 
L 533.619644 218.854582 
L 533.982197 217.880914 
L 534.344751 212.894447 
L 534.707304 203.626666 
L 535.069858 204.246764 
L 535.432411 203.845936 
L 535.794965 208.924152 
L 536.157518 220.485484 
L 536.520071 222.267652 
L 536.882625 226.673298 
L 537.245178 237.425176 
L 537.607732 233.538018 
L 538.695392 215.418773 
L 539.420499 196.517121 
L 539.783053 197.614531 
L 540.145606 189.493731 
L 540.50816 196.78388 
L 540.870713 198.777638 
L 541.233267 212.78715 
L 541.59582 215.832374 
L 541.958373 220.942416 
L 542.320927 220.532632 
L 542.68348 213.60175 
L 543.046034 212.717892 
L 543.408587 213.947483 
L 543.771141 202.363729 
L 544.133694 210.556983 
L 544.496248 208.661575 
L 544.858801 208.901951 
L 545.221355 214.550503 
L 545.946462 236.44674 
L 546.309015 234.248411 
L 547.396676 212.549074 
L 547.759229 194.601305 
L 548.121782 197.479321 
L 548.484336 187.875734 
L 548.846889 195.036479 
L 549.209443 193.304896 
L 549.571996 205.039909 
L 549.93455 211.487759 
L 550.297103 206.353932 
L 550.659657 219.315402 
L 551.02221 216.990384 
L 551.384764 213.651943 
L 551.747317 209.15973 
L 552.109871 199.886764 
L 552.472424 200.920908 
L 552.834978 197.207166 
L 553.197531 200.578407 
L 553.560084 209.976366 
L 553.922638 211.473845 
L 554.285191 223.717961 
L 554.647745 223.317368 
L 555.010298 227.401277 
L 555.372852 228.096977 
L 556.097959 201.130982 
L 556.460512 191.771233 
L 556.823066 190.515073 
L 557.548173 176.376553 
L 557.910726 189.217365 
L 558.27328 194.25164 
L 558.635833 201.492345 
L 558.998386 211.812275 
L 559.36094 206.813079 
L 559.723493 212.294448 
L 560.086047 203.273224 
L 560.4486 202.08113 
L 561.173707 190.854303 
L 561.536261 196.159738 
L 561.898814 195.31936 
L 562.261368 203.235251 
L 562.623921 213.914368 
L 562.986475 212.690253 
L 563.711582 222.531671 
L 564.074135 216.060885 
L 564.436689 205.122423 
L 565.524349 184.432869 
L 565.886902 174.731497 
L 566.249456 177.810833 
L 566.612009 178.272768 
L 566.974563 180.396797 
L 567.337116 187.934302 
L 567.69967 202.150443 
L 568.062223 205.914764 
L 568.424777 197.036114 
L 568.78733 191.432045 
L 569.149884 193.067327 
L 569.512437 191.285892 
L 569.874991 179.882405 
L 570.237544 186.224015 
L 570.600097 194.611937 
L 570.962651 197.220393 
L 571.325204 193.740613 
L 571.687758 209.995706 
L 572.050311 210.166858 
L 572.412865 207.047723 
L 572.775418 209.408456 
L 573.137972 202.461243 
L 573.500525 189.165006 
L 574.588186 166.706598 
L 574.950739 166.369564 
L 575.313293 169.425306 
L 575.675846 174.414573 
L 576.038399 187.552991 
L 576.400953 193.76147 
L 576.763506 196.129946 
L 577.12606 196.343425 
L 577.488613 189.677507 
L 577.851167 189.528926 
L 578.21372 178.01567 
L 578.576274 174.37396 
L 578.938827 174.251001 
L 579.301381 183.050359 
L 580.026488 191.764723 
L 580.389041 206.642414 
L 580.751595 206.279163 
L 581.114148 195.963647 
L 581.476701 199.240393 
L 581.839255 195.626778 
L 582.564362 178.593655 
L 582.926915 162.567 
L 583.289469 167.90422 
L 583.652022 162.225476 
L 584.377129 175.463082 
L 584.739683 177.233079 
L 585.102236 191.086297 
L 585.46479 191.933475 
L 585.827343 189.777886 
L 586.189897 188.662503 
L 586.915004 176.461579 
L 587.277557 173.357938 
L 587.64011 172.346738 
L 588.002664 182.285025 
L 588.365217 180.704702 
L 588.727771 187.909669 
L 589.090324 197.92765 
L 589.815431 205.845572 
L 590.177985 197.882465 
L 590.540538 194.298302 
L 590.903092 178.882791 
L 591.990752 159.026027 
L 592.353306 164.7303 
L 592.715859 160.436832 
L 593.440966 173.822618 
L 593.803519 186.241853 
L 594.166073 185.725621 
L 594.528626 184.364862 
L 594.89118 185.169545 
L 595.253733 180.495083 
L 595.616287 169.564945 
L 595.97884 180.512623 
L 596.341394 168.997721 
L 596.703947 174.567807 
L 597.429054 204.788447 
L 597.791608 214.107762 
L 598.154161 220.235745 
L 598.516714 224.394597 
L 598.879268 224.909932 
L 599.241821 203.940453 
L 599.604375 175.266425 
L 599.966928 174.849184 
L 600.329482 163.601565 
L 600.692035 134.64942 
L 601.054589 159.713132 
L 601.417142 148.833081 
L 601.779696 178.268144 
L 602.142249 190.74917 
L 602.504803 185.951907 
L 602.867356 206.817471 
L 603.22991 212.229626 
L 603.592463 197.396165 
L 603.955017 201.039887 
L 604.31757 178.756443 
L 604.680123 170.646593 
L 605.042677 157.907503 
L 605.40523 169.832864 
L 605.767784 196.691471 
L 606.492891 224.114465 
L 606.855444 219.230518 
L 607.217998 237.66054 
L 607.580551 241.911516 
L 608.305658 188.586541 
L 608.668212 178.8616 
L 609.030765 164.618982 
L 609.393319 145.673065 
L 609.755872 164.793425 
L 610.118425 159.496721 
L 610.480979 187.462229 
L 610.843532 183.158263 
L 611.206086 210.277961 
L 611.568639 217.760387 
L 612.293746 197.1735 
L 612.6563 196.408852 
L 613.018853 183.828601 
L 613.381407 183.684412 
L 613.74396 180.46389 
L 614.106514 186.356097 
L 614.831621 212.27995 
L 615.556727 227.904966 
L 615.919281 232.47099 
L 617.006941 178.781349 
L 617.369495 162.880731 
L 617.732048 162.779416 
L 618.457155 137.722068 
L 619.182262 166.417722 
L 619.544816 190.167038 
L 619.907369 197.246148 
L 620.269923 208.034703 
L 622.08269 172.349376 
L 622.445243 159.782982 
L 622.807797 178.654768 
L 623.17035 176.460723 
L 623.532904 202.374155 
L 623.895457 218.852542 
L 624.258011 223.073427 
L 624.620564 228.821724 
L 625.345671 192.681661 
L 625.708225 169.884136 
L 626.070778 172.059675 
L 626.433332 144.503853 
L 626.795885 143.772013 
L 627.158438 137.838704 
L 627.520992 154.128515 
L 627.883545 152.729474 
L 628.608652 189.770911 
L 628.971206 194.686684 
L 629.696313 177.648956 
L 630.058866 173.497179 
L 630.42142 167.209002 
L 630.783973 157.578324 
L 631.146527 153.673539 
L 631.50908 171.357126 
L 631.871634 171.793565 
L 632.234187 185.555198 
L 632.59674 194.621745 
L 632.959294 215.498449 
L 633.321847 212.664321 
L 633.684401 216.588935 
L 634.046954 197.224794 
L 634.409508 170.46076 
L 634.772061 166.076461 
L 635.134615 139.425157 
L 635.497168 125.753143 
L 636.222275 134.777615 
L 637.309936 184.328435 
L 637.672489 189.469713 
L 638.035043 179.725798 
L 638.397596 176.832791 
L 638.760149 179.127121 
L 639.122703 160.787732 
L 639.485256 156.762745 
L 639.84781 149.162286 
L 640.210363 164.694199 
L 640.572917 175.073143 
L 640.93547 194.616404 
L 641.660577 211.271581 
L 642.023131 201.025553 
L 642.385684 205.866417 
L 643.110791 180.694169 
L 643.835898 145.844153 
L 644.198451 136.044657 
L 644.561005 132.885998 
L 644.923558 147.348814 
L 645.286112 152.417444 
L 645.648665 178.796279 
L 646.011219 184.415969 
L 646.373772 207.443861 
L 646.736326 179.802573 
L 647.098879 180.308285 
L 647.461433 176.702233 
L 647.823986 169.8175 
L 648.18654 147.799713 
L 648.549093 156.314646 
L 648.911647 182.083291 
L 649.2742 177.904891 
L 649.999307 211.850615 
L 650.36186 218.017394 
L 650.724414 207.620791 
L 651.086967 206.353226 
L 651.449521 198.088737 
L 651.812074 186.534679 
L 652.174628 154.625762 
L 652.899735 129.866671 
L 653.262288 128.536542 
L 653.624842 153.947833 
L 653.987395 158.55293 
L 654.349949 178.563615 
L 654.712502 177.748114 
L 655.075055 174.38016 
L 655.437609 190.366366 
L 655.800162 198.412586 
L 656.162716 187.353869 
L 656.525269 185.499457 
L 656.887823 177.033113 
L 657.250376 176.356534 
L 657.61293 171.479731 
L 657.975483 192.281628 
L 659.063144 226.801936 
L 659.425697 226.394477 
L 659.788251 216.943583 
L 660.150804 215.189019 
L 660.875911 167.183623 
L 661.238464 157.646207 
L 661.601018 152.856261 
L 661.963571 145.506862 
L 662.326125 142.741022 
L 662.688678 157.756083 
L 663.051232 188.935106 
L 663.413785 208.492694 
L 663.776339 202.816668 
L 664.138892 216.038508 
L 664.863999 184.124222 
L 665.226553 188.452577 
L 665.589106 179.610664 
L 665.95166 177.437197 
L 666.314213 165.310451 
L 666.676766 194.042808 
L 667.401873 224.686649 
L 667.764427 230.428238 
L 668.12698 230.533611 
L 668.489534 225.485903 
L 668.852087 213.156389 
L 669.214641 186.557896 
L 669.577194 183.203493 
L 669.939748 160.996906 
L 670.302301 149.097433 
L 670.664855 146.255587 
L 671.027408 160.654707 
L 671.389962 165.762382 
L 671.752515 196.79646 
L 672.115068 210.860514 
L 672.477622 200.4636 
L 672.840175 208.433019 
L 673.202729 201.241996 
L 673.565282 201.748099 
L 673.927836 170.847482 
L 674.290389 181.537633 
L 674.652943 184.20398 
L 675.015496 175.011739 
L 676.103157 212.267845 
L 676.46571 220.246172 
L 676.828264 240.546776 
L 677.190817 220.770531 
L 677.553371 207.513426 
L 678.641031 153.325334 
L 679.003584 155.693287 
L 679.366138 154.989836 
L 679.728691 149.639131 
L 680.091245 166.097203 
L 680.453798 194.125773 
L 681.178905 201.792253 
L 681.541459 203.173693 
L 681.904012 208.000783 
L 682.266566 186.648534 
L 682.629119 178.816551 
L 682.991673 163.24858 
L 683.716779 188.875275 
L 684.079333 185.009868 
L 684.441886 199.747482 
L 684.80444 200.118446 
L 685.166993 226.139014 
L 685.529547 204.082173 
L 685.8921 208.508614 
L 686.254654 205.885164 
L 686.617207 173.740161 
L 686.979761 153.304836 
L 687.704868 131.380157 
L 688.067421 137.640115 
L 689.155081 180.523107 
L 689.517635 193.868097 
L 689.880188 197.690097 
L 690.242742 198.10861 
L 690.605295 190.67403 
L 690.967849 190.386026 
L 691.330402 172.677427 
L 691.692956 169.729382 
L 692.055509 161.695914 
L 692.418063 161.616424 
L 692.780616 176.606145 
L 693.14317 199.583715 
L 693.505723 195.717289 
L 693.868277 207.727154 
L 694.23083 214.206329 
L 694.593384 203.628183 
L 694.955937 196.371559 
L 695.31849 179.31125 
L 695.681044 134.663024 
L 696.043597 142.372776 
L 696.406151 141.055236 
L 696.768704 126.710081 
L 697.131258 124.562646 
L 697.493811 151.553414 
L 697.856365 161.123602 
L 698.581472 196.482204 
L 698.944025 181.077512 
L 699.306579 174.769623 
L 699.669132 174.458132 
L 700.031686 159.955194 
L 700.394239 159.002669 
L 700.756792 159.650836 
L 701.119346 151.335957 
L 701.481899 178.597492 
L 701.844453 195.106511 
L 702.207006 221.159762 
L 702.56956 207.752504 
L 702.932113 211.609396 
L 703.294667 210.319239 
L 703.65722 186.894568 
L 704.019774 179.12133 
L 704.382327 153.976902 
L 704.744881 150.878116 
L 705.107434 131.356381 
L 705.469988 142.764817 
L 705.832541 140.039803 
L 706.195094 154.796402 
L 706.557648 180.383597 
L 707.282755 201.175978 
L 707.645308 193.031475 
L 708.007862 187.970725 
L 708.370415 180.382493 
L 708.732969 177.046255 
L 709.095522 163.909379 
L 709.458076 171.787599 
L 709.820629 161.637902 
L 710.183183 163.392549 
L 710.545736 181.304919 
L 710.90829 206.720704 
L 711.270843 219.43791 
L 711.633397 218.178438 
L 711.99595 209.608118 
L 712.358503 193.696147 
L 712.721057 165.898989 
L 713.08361 168.25166 
L 713.446164 137.760496 
L 713.808717 137.285917 
L 714.171271 141.786743 
L 714.533824 149.459215 
L 714.896378 179.718283 
L 715.258931 175.837453 
L 715.621485 198.950948 
L 715.984038 177.496212 
L 716.346592 202.925231 
L 717.071699 171.460612 
L 717.434252 178.406911 
L 717.796805 173.197629 
L 718.159359 181.585639 
L 718.521912 170.766851 
L 719.247019 188.920192 
L 719.609573 222.947049 
L 719.972126 233.666418 
L 720.33468 228.833177 
L 720.697233 213.42679 
L 721.42234 192.73324 
L 721.784894 171.025481 
L 722.147447 140.736604 
L 722.510001 150.998515 
L 722.872554 151.63224 
L 723.235107 153.52482 
L 723.597661 169.371237 
L 723.960214 177.445003 
L 724.322768 188.440919 
L 724.685321 215.149226 
L 725.047875 205.879683 
L 725.410428 204.218151 
L 725.772982 197.428776 
L 726.498089 161.728754 
L 727.585749 194.773072 
L 728.310856 225.415811 
L 728.673409 235.045105 
L 729.035963 220.346361 
L 729.398516 235.888288 
L 729.76107 217.576432 
L 730.123623 174.805678 
L 730.486177 168.451891 
L 730.84873 149.959417 
L 731.211284 160.033245 
L 731.573837 155.955878 
L 731.936391 170.245674 
L 732.298944 177.254044 
L 732.661498 198.096315 
L 733.024051 202.334398 
L 733.386605 216.438933 
L 733.749158 213.879707 
L 734.111712 192.728036 
L 734.474265 182.698503 
L 734.836818 178.001258 
L 735.199372 181.457505 
L 735.561925 181.723731 
L 735.924479 182.574453 
L 736.287032 203.583916 
L 737.374693 229.755875 
L 737.737246 239.022285 
L 738.0998 224.85344 
L 738.462353 199.114205 
L 738.824907 196.426103 
L 739.18746 167.080826 
L 739.550014 161.393168 
L 739.912567 150.19782 
L 740.27512 143.166182 
L 741.362781 195.602533 
L 741.725334 188.158437 
L 742.450441 203.512515 
L 743.175548 179.175788 
L 743.538102 179.414504 
L 743.900655 169.283899 
L 744.263209 183.500601 
L 744.625762 251.901459 
L 744.988316 185.074797 
L 745.713422 223.426277 
L 746.075976 212.783121 
L 746.438529 218.554167 
L 746.801083 208.030491 
L 747.163636 200.916491 
L 747.163636 200.916491 
" style="fill:none;stroke:#1f77b4;stroke-linecap:square;stroke-width:1.5;"/>
   </g>
   <g id="line2d_17">
    <path clip-path="url(#p8f5d07e610)" d="M 745.713422 384.48 
L 745.713422 51.84 
" style="fill:none;stroke:#808080;stroke-linecap:square;"/>
   </g>
   <g id="patch_53">
    <path d="M 108 384.48 
L 108 51.84 
" style="fill:none;stroke:#000000;stroke-linecap:square;stroke-linejoin:miter;stroke-width:0.8;"/>
   </g>
   <g id="patch_54">
    <path d="M 777.6 384.48 
L 777.6 51.84 
" style="fill:none;stroke:#000000;stroke-linecap:square;stroke-linejoin:miter;stroke-width:0.8;"/>
   </g>
   <g id="patch_55">
    <path d="M 108 384.48 
L 777.6 384.48 
" style="fill:none;stroke:#000000;stroke-linecap:square;stroke-linejoin:miter;stroke-width:0.8;"/>
   </g>
   <g id="patch_56">
    <path d="M 108 51.84 
L 777.6 51.84 
" style="fill:none;stroke:#000000;stroke-linecap:square;stroke-linejoin:miter;stroke-width:0.8;"/>
   </g>
   <g id="text_18">
    <!-- A4Benchmark-TS55.csv -->
    <defs>
     <path d="M 34.1875 63.1875 
L 20.796875 26.90625 
L 47.609375 26.90625 
z
M 28.609375 72.90625 
L 39.796875 72.90625 
L 67.578125 0 
L 57.328125 0 
L 50.6875 18.703125 
L 17.828125 18.703125 
L 11.1875 0 
L 0.78125 0 
z
" id="DejaVuSans-65"/>
     <path d="M 37.796875 64.3125 
L 12.890625 25.390625 
L 37.796875 25.390625 
z
M 35.203125 72.90625 
L 47.609375 72.90625 
L 47.609375 25.390625 
L 58.015625 25.390625 
L 58.015625 17.1875 
L 47.609375 17.1875 
L 47.609375 0 
L 37.796875 0 
L 37.796875 17.1875 
L 4.890625 17.1875 
L 4.890625 26.703125 
z
" id="DejaVuSans-52"/>
     <path d="M 19.671875 34.8125 
L 19.671875 8.109375 
L 35.5 8.109375 
Q 43.453125 8.109375 47.28125 11.40625 
Q 51.125 14.703125 51.125 21.484375 
Q 51.125 28.328125 47.28125 31.5625 
Q 43.453125 34.8125 35.5 34.8125 
z
M 19.671875 64.796875 
L 19.671875 42.828125 
L 34.28125 42.828125 
Q 41.5 42.828125 45.03125 45.53125 
Q 48.578125 48.25 48.578125 53.8125 
Q 48.578125 59.328125 45.03125 62.0625 
Q 41.5 64.796875 34.28125 64.796875 
z
M 9.8125 72.90625 
L 35.015625 72.90625 
Q 46.296875 72.90625 52.390625 68.21875 
Q 58.5 63.53125 58.5 54.890625 
Q 58.5 48.1875 55.375 44.234375 
Q 52.25 40.28125 46.1875 39.3125 
Q 53.46875 37.75 57.5 32.78125 
Q 61.53125 27.828125 61.53125 20.40625 
Q 61.53125 10.640625 54.890625 5.3125 
Q 48.25 0 35.984375 0 
L 9.8125 0 
z
" id="DejaVuSans-66"/>
     <path d="M 54.890625 33.015625 
L 54.890625 0 
L 45.90625 0 
L 45.90625 32.71875 
Q 45.90625 40.484375 42.875 44.328125 
Q 39.84375 48.1875 33.796875 48.1875 
Q 26.515625 48.1875 22.3125 43.546875 
Q 18.109375 38.921875 18.109375 30.90625 
L 18.109375 0 
L 9.078125 0 
L 9.078125 54.6875 
L 18.109375 54.6875 
L 18.109375 46.1875 
Q 21.34375 51.125 25.703125 53.5625 
Q 30.078125 56 35.796875 56 
Q 45.21875 56 50.046875 50.171875 
Q 54.890625 44.34375 54.890625 33.015625 
z
" id="DejaVuSans-110"/>
     <path d="M 48.78125 52.59375 
L 48.78125 44.1875 
Q 44.96875 46.296875 41.140625 47.34375 
Q 37.3125 48.390625 33.40625 48.390625 
Q 24.65625 48.390625 19.8125 42.84375 
Q 14.984375 37.3125 14.984375 27.296875 
Q 14.984375 17.28125 19.8125 11.734375 
Q 24.65625 6.203125 33.40625 6.203125 
Q 37.3125 6.203125 41.140625 7.25 
Q 44.96875 8.296875 48.78125 10.40625 
L 48.78125 2.09375 
Q 45.015625 0.34375 40.984375 -0.53125 
Q 36.96875 -1.421875 32.421875 -1.421875 
Q 20.0625 -1.421875 12.78125 6.34375 
Q 5.515625 14.109375 5.515625 27.296875 
Q 5.515625 40.671875 12.859375 48.328125 
Q 20.21875 56 33.015625 56 
Q 37.15625 56 41.109375 55.140625 
Q 45.0625 54.296875 48.78125 52.59375 
z
" id="DejaVuSans-99"/>
     <path d="M 54.890625 33.015625 
L 54.890625 0 
L 45.90625 0 
L 45.90625 32.71875 
Q 45.90625 40.484375 42.875 44.328125 
Q 39.84375 48.1875 33.796875 48.1875 
Q 26.515625 48.1875 22.3125 43.546875 
Q 18.109375 38.921875 18.109375 30.90625 
L 18.109375 0 
L 9.078125 0 
L 9.078125 75.984375 
L 18.109375 75.984375 
L 18.109375 46.1875 
Q 21.34375 51.125 25.703125 53.5625 
Q 30.078125 56 35.796875 56 
Q 45.21875 56 50.046875 50.171875 
Q 54.890625 44.34375 54.890625 33.015625 
z
" id="DejaVuSans-104"/>
     <path d="M 41.109375 46.296875 
Q 39.59375 47.171875 37.8125 47.578125 
Q 36.03125 48 33.890625 48 
Q 26.265625 48 22.1875 43.046875 
Q 18.109375 38.09375 18.109375 28.8125 
L 18.109375 0 
L 9.078125 0 
L 9.078125 54.6875 
L 18.109375 54.6875 
L 18.109375 46.1875 
Q 20.953125 51.171875 25.484375 53.578125 
Q 30.03125 56 36.53125 56 
Q 37.453125 56 38.578125 55.875 
Q 39.703125 55.765625 41.0625 55.515625 
z
" id="DejaVuSans-114"/>
     <path d="M 9.078125 75.984375 
L 18.109375 75.984375 
L 18.109375 31.109375 
L 44.921875 54.6875 
L 56.390625 54.6875 
L 27.390625 29.109375 
L 57.625 0 
L 45.90625 0 
L 18.109375 26.703125 
L 18.109375 0 
L 9.078125 0 
z
" id="DejaVuSans-107"/>
     <path d="M 4.890625 31.390625 
L 31.203125 31.390625 
L 31.203125 23.390625 
L 4.890625 23.390625 
z
" id="DejaVuSans-45"/>
     <path d="M 53.515625 70.515625 
L 53.515625 60.890625 
Q 47.90625 63.578125 42.921875 64.890625 
Q 37.9375 66.21875 33.296875 66.21875 
Q 25.25 66.21875 20.875 63.09375 
Q 16.5 59.96875 16.5 54.203125 
Q 16.5 49.359375 19.40625 46.890625 
Q 22.3125 44.4375 30.421875 42.921875 
L 36.375 41.703125 
Q 47.40625 39.59375 52.65625 34.296875 
Q 57.90625 29 57.90625 20.125 
Q 57.90625 9.515625 50.796875 4.046875 
Q 43.703125 -1.421875 29.984375 -1.421875 
Q 24.8125 -1.421875 18.96875 -0.25 
Q 13.140625 0.921875 6.890625 3.21875 
L 6.890625 13.375 
Q 12.890625 10.015625 18.65625 8.296875 
Q 24.421875 6.59375 29.984375 6.59375 
Q 38.421875 6.59375 43.015625 9.90625 
Q 47.609375 13.234375 47.609375 19.390625 
Q 47.609375 24.75 44.3125 27.78125 
Q 41.015625 30.8125 33.5 32.328125 
L 27.484375 33.5 
Q 16.453125 35.6875 11.515625 40.375 
Q 6.59375 45.0625 6.59375 53.421875 
Q 6.59375 63.09375 13.40625 68.65625 
Q 20.21875 74.21875 32.171875 74.21875 
Q 37.3125 74.21875 42.625 73.28125 
Q 47.953125 72.359375 53.515625 70.515625 
z
" id="DejaVuSans-83"/>
     <path d="M 10.6875 12.40625 
L 21 12.40625 
L 21 0 
L 10.6875 0 
z
" id="DejaVuSans-46"/>
     <path d="M 2.984375 54.6875 
L 12.5 54.6875 
L 29.59375 8.796875 
L 46.6875 54.6875 
L 56.203125 54.6875 
L 35.6875 0 
L 23.484375 0 
z
" id="DejaVuSans-118"/>
    </defs>
    <g transform="translate(371.555625 45.84)scale(0.12 -0.12)">
     <use xlink:href="#DejaVuSans-65"/>
     <use x="68.408203" xlink:href="#DejaVuSans-52"/>
     <use x="132.03125" xlink:href="#DejaVuSans-66"/>
     <use x="200.634766" xlink:href="#DejaVuSans-101"/>
     <use x="262.158203" xlink:href="#DejaVuSans-110"/>
     <use x="325.537109" xlink:href="#DejaVuSans-99"/>
     <use x="380.517578" xlink:href="#DejaVuSans-104"/>
     <use x="443.896484" xlink:href="#DejaVuSans-109"/>
     <use x="541.308594" xlink:href="#DejaVuSans-97"/>
     <use x="602.587891" xlink:href="#DejaVuSans-114"/>
     <use x="643.701172" xlink:href="#DejaVuSans-107"/>
     <use x="701.611328" xlink:href="#DejaVuSans-45"/>
     <use x="737.554688" xlink:href="#DejaVuSans-84"/>
     <use x="798.638672" xlink:href="#DejaVuSans-83"/>
     <use x="862.115234" xlink:href="#DejaVuSans-53"/>
     <use x="925.738281" xlink:href="#DejaVuSans-53"/>
     <use x="989.361328" xlink:href="#DejaVuSans-46"/>
     <use x="1021.148438" xlink:href="#DejaVuSans-99"/>
     <use x="1076.128906" xlink:href="#DejaVuSans-115"/>
     <use x="1128.228516" xlink:href="#DejaVuSans-118"/>
    </g>
   </g>
   <g id="legend_1">
    <g id="patch_57">
     <path d="M 115 74.518125 
L 174.315625 74.518125 
Q 176.315625 74.518125 176.315625 72.518125 
L 176.315625 58.84 
Q 176.315625 56.84 174.315625 56.84 
L 115 56.84 
Q 113 56.84 113 58.84 
L 113 72.518125 
Q 113 74.518125 115 74.518125 
z
" style="fill:#ffffff;opacity:0.8;stroke:#cccccc;stroke-linejoin:miter;"/>
    </g>
    <g id="line2d_18">
     <path d="M 117 64.938438 
L 137 64.938438 
" style="fill:none;stroke:#1f77b4;stroke-linecap:square;stroke-width:1.5;"/>
    </g>
    <g id="line2d_19"/>
    <g id="text_19">
     <!-- value -->
     <g transform="translate(145 68.438438)scale(0.1 -0.1)">
      <use xlink:href="#DejaVuSans-118"/>
      <use x="59.179688" xlink:href="#DejaVuSans-97"/>
      <use x="120.458984" xlink:href="#DejaVuSans-108"/>
      <use x="148.242188" xlink:href="#DejaVuSans-117"/>
      <use x="211.621094" xlink:href="#DejaVuSans-101"/>
     </g>
    </g>
   </g>
  </g>
 </g>
 <defs>
  <clipPath id="p8f5d07e610">
   <rect height="332.64" width="669.6" x="108" y="51.84"/>
  </clipPath>
 </defs>
</svg>
