<?xml version="1.0" encoding="utf-8" standalone="no"?>
<!DOCTYPE svg PUBLIC "-//W3C//DTD SVG 1.1//EN"
  "http://www.w3.org/Graphics/SVG/1.1/DTD/svg11.dtd">
<!-- Created with matplotlib (https://matplotlib.org/) -->
<svg height="432pt" version="1.1" viewBox="0 0 864 432" width="864pt" xmlns="http://www.w3.org/2000/svg" xmlns:xlink="http://www.w3.org/1999/xlink">
 <defs>
  <style type="text/css">
*{stroke-linecap:butt;stroke-linejoin:round;}
  </style>
 </defs>
 <g id="figure_1">
  <g id="patch_1">
   <path d="M 0 432 
L 864 432 
L 864 0 
L 0 0 
z
" style="fill:#ffffff;"/>
  </g>
  <g id="axes_1">
   <g id="patch_2">
    <path d="M 108 384.48 
L 777.6 384.48 
L 777.6 51.84 
L 108 51.84 
z
" style="fill:#ffffff;"/>
   </g>
   <g id="patch_3">
    <path clip-path="url(#p13fd3bc529)" d="M 138.436364 384.48 
L 138.436364 51.84 
L 374.096118 51.84 
L 374.096118 384.48 
z
" style="fill:#0000ff;opacity:0.05;"/>
   </g>
   <g id="patch_4">
    <path clip-path="url(#p13fd3bc529)" d="M 374.096118 384.48 
L 374.096118 51.84 
L 745.713422 51.84 
L 745.713422 384.48 
z
" style="fill:#ff0000;opacity:0.08;"/>
   </g>
   <g id="patch_5">
    <path clip-path="url(#p13fd3bc529)" d="M 138.436364 384.48 
L 138.436364 51.84 
L 147.5002 51.84 
L 147.5002 384.48 
z
" style="fill:#008000;opacity:0.04;"/>
   </g>
   <g id="patch_6">
    <path clip-path="url(#p13fd3bc529)" d="M 138.436364 384.48 
L 138.436364 371.1744 
L 147.5002 371.1744 
L 147.5002 384.48 
z
" style="fill:#ffe500;"/>
   </g>
   <g id="patch_7">
    <path clip-path="url(#p13fd3bc529)" d="M 156.564037 384.48 
L 156.564037 51.84 
L 165.627874 51.84 
L 165.627874 384.48 
z
" style="fill:#008000;opacity:0.04;"/>
   </g>
   <g id="patch_8">
    <path clip-path="url(#p13fd3bc529)" d="M 174.69171 384.48 
L 174.69171 51.84 
L 183.755547 51.84 
L 183.755547 384.48 
z
" style="fill:#008000;opacity:0.04;"/>
   </g>
   <g id="patch_9">
    <path clip-path="url(#p13fd3bc529)" d="M 192.819384 384.48 
L 192.819384 51.84 
L 201.883221 51.84 
L 201.883221 384.48 
z
" style="fill:#008000;opacity:0.04;"/>
   </g>
   <g id="patch_10">
    <path clip-path="url(#p13fd3bc529)" d="M 210.947057 384.48 
L 210.947057 51.84 
L 220.010894 51.84 
L 220.010894 384.48 
z
" style="fill:#008000;opacity:0.04;"/>
   </g>
   <g id="patch_11">
    <path clip-path="url(#p13fd3bc529)" d="M 229.074731 384.48 
L 229.074731 51.84 
L 238.138567 51.84 
L 238.138567 384.48 
z
" style="fill:#008000;opacity:0.04;"/>
   </g>
   <g id="patch_12">
    <path clip-path="url(#p13fd3bc529)" d="M 247.202404 384.48 
L 247.202404 51.84 
L 256.266241 51.84 
L 256.266241 384.48 
z
" style="fill:#008000;opacity:0.04;"/>
   </g>
   <g id="patch_13">
    <path clip-path="url(#p13fd3bc529)" d="M 491.925995 384.48 
L 491.925995 371.1744 
L 500.989832 371.1744 
L 500.989832 384.48 
z
" style="fill:#ff6600;"/>
   </g>
   <g id="patch_14">
    <path clip-path="url(#p13fd3bc529)" d="M 265.330077 384.48 
L 265.330077 51.84 
L 274.393914 51.84 
L 274.393914 384.48 
z
" style="fill:#008000;opacity:0.04;"/>
   </g>
   <g id="patch_15">
    <path clip-path="url(#p13fd3bc529)" d="M 283.457751 384.48 
L 283.457751 51.84 
L 292.521588 51.84 
L 292.521588 384.48 
z
" style="fill:#008000;opacity:0.04;"/>
   </g>
   <g id="patch_16">
    <path clip-path="url(#p13fd3bc529)" d="M 301.585424 384.48 
L 301.585424 51.84 
L 310.649261 51.84 
L 310.649261 384.48 
z
" style="fill:#008000;opacity:0.04;"/>
   </g>
   <g id="patch_17">
    <path clip-path="url(#p13fd3bc529)" d="M 319.713098 384.48 
L 319.713098 51.84 
L 328.776934 51.84 
L 328.776934 384.48 
z
" style="fill:#008000;opacity:0.04;"/>
   </g>
   <g id="patch_18">
    <path clip-path="url(#p13fd3bc529)" d="M 337.840771 384.48 
L 337.840771 51.84 
L 346.904608 51.84 
L 346.904608 384.48 
z
" style="fill:#008000;opacity:0.04;"/>
   </g>
   <g id="patch_19">
    <path clip-path="url(#p13fd3bc529)" d="M 346.904608 371.1744 
L 346.904608 51.84 
L 355.968444 51.84 
L 355.968444 371.1744 
z
" style="fill:#008000;opacity:0.5;"/>
   </g>
   <g id="patch_20">
    <path clip-path="url(#p13fd3bc529)" d="M 346.904608 384.48 
L 346.904608 371.1744 
L 355.968444 371.1744 
L 355.968444 384.48 
z
" style="fill:#ffe500;"/>
   </g>
   <g id="patch_21">
    <path clip-path="url(#p13fd3bc529)" d="M 355.968444 384.48 
L 355.968444 51.84 
L 365.032281 51.84 
L 365.032281 384.48 
z
" style="fill:#008000;opacity:0.04;"/>
   </g>
   <g id="patch_22">
    <path clip-path="url(#p13fd3bc529)" d="M 374.096118 384.48 
L 374.096118 51.84 
L 383.159955 51.84 
L 383.159955 384.48 
z
" style="fill:#008000;opacity:0.04;"/>
   </g>
   <g id="patch_23">
    <path clip-path="url(#p13fd3bc529)" d="M 392.223791 384.48 
L 392.223791 51.84 
L 401.287628 51.84 
L 401.287628 384.48 
z
" style="fill:#008000;opacity:0.04;"/>
   </g>
   <g id="patch_24">
    <path clip-path="url(#p13fd3bc529)" d="M 410.351465 384.48 
L 410.351465 51.84 
L 419.415301 51.84 
L 419.415301 384.48 
z
" style="fill:#008000;opacity:0.04;"/>
   </g>
   <g id="patch_25">
    <path clip-path="url(#p13fd3bc529)" d="M 428.479138 384.48 
L 428.479138 51.84 
L 437.542975 51.84 
L 437.542975 384.48 
z
" style="fill:#008000;opacity:0.04;"/>
   </g>
   <g id="patch_26">
    <path clip-path="url(#p13fd3bc529)" d="M 446.606811 384.48 
L 446.606811 51.84 
L 455.670648 51.84 
L 455.670648 384.48 
z
" style="fill:#008000;opacity:0.04;"/>
   </g>
   <g id="patch_27">
    <path clip-path="url(#p13fd3bc529)" d="M 464.734485 384.48 
L 464.734485 51.84 
L 473.798322 51.84 
L 473.798322 384.48 
z
" style="fill:#008000;opacity:0.04;"/>
   </g>
   <g id="patch_28">
    <path clip-path="url(#p13fd3bc529)" d="M 482.862158 384.48 
L 482.862158 51.84 
L 491.925995 51.84 
L 491.925995 384.48 
z
" style="fill:#008000;opacity:0.04;"/>
   </g>
   <g id="patch_29">
    <path clip-path="url(#p13fd3bc529)" d="M 491.925995 371.1744 
L 491.925995 51.84 
L 500.989832 51.84 
L 500.989832 371.1744 
z
" style="fill:#008000;opacity:0.5;"/>
   </g>
   <g id="patch_30">
    <path clip-path="url(#p13fd3bc529)" d="M 500.989832 384.48 
L 500.989832 51.84 
L 510.053668 51.84 
L 510.053668 384.48 
z
" style="fill:#008000;opacity:0.04;"/>
   </g>
   <g id="patch_31">
    <path clip-path="url(#p13fd3bc529)" d="M 500.989832 371.1744 
L 500.989832 357.8688 
L 510.053668 357.8688 
L 510.053668 371.1744 
z
" style="fill:#ff00ff;"/>
   </g>
   <g id="patch_32">
    <path clip-path="url(#p13fd3bc529)" d="M 519.117505 384.48 
L 519.117505 51.84 
L 528.181342 51.84 
L 528.181342 384.48 
z
" style="fill:#008000;opacity:0.04;"/>
   </g>
   <g id="patch_33">
    <path clip-path="url(#p13fd3bc529)" d="M 537.245178 384.48 
L 537.245178 51.84 
L 546.309015 51.84 
L 546.309015 384.48 
z
" style="fill:#008000;opacity:0.04;"/>
   </g>
   <g id="patch_34">
    <path clip-path="url(#p13fd3bc529)" d="M 555.372852 384.48 
L 555.372852 51.84 
L 564.436689 51.84 
L 564.436689 384.48 
z
" style="fill:#008000;opacity:0.04;"/>
   </g>
   <g id="patch_35">
    <path clip-path="url(#p13fd3bc529)" d="M 573.500525 384.48 
L 573.500525 51.84 
L 582.564362 51.84 
L 582.564362 384.48 
z
" style="fill:#008000;opacity:0.04;"/>
   </g>
   <g id="patch_36">
    <path clip-path="url(#p13fd3bc529)" d="M 591.628199 384.48 
L 591.628199 51.84 
L 600.692035 51.84 
L 600.692035 384.48 
z
" style="fill:#008000;opacity:0.04;"/>
   </g>
   <g id="patch_37">
    <path clip-path="url(#p13fd3bc529)" d="M 609.755872 384.48 
L 609.755872 51.84 
L 618.819709 51.84 
L 618.819709 384.48 
z
" style="fill:#008000;opacity:0.04;"/>
   </g>
   <g id="patch_38">
    <path clip-path="url(#p13fd3bc529)" d="M 627.883545 384.48 
L 627.883545 51.84 
L 636.947382 51.84 
L 636.947382 384.48 
z
" style="fill:#008000;opacity:0.04;"/>
   </g>
   <g id="patch_39">
    <path clip-path="url(#p13fd3bc529)" d="M 646.011219 384.48 
L 646.011219 51.84 
L 655.075055 51.84 
L 655.075055 384.48 
z
" style="fill:#008000;opacity:0.04;"/>
   </g>
   <g id="patch_40">
    <path clip-path="url(#p13fd3bc529)" d="M 664.138892 384.48 
L 664.138892 51.84 
L 673.202729 51.84 
L 673.202729 384.48 
z
" style="fill:#008000;opacity:0.04;"/>
   </g>
   <g id="patch_41">
    <path clip-path="url(#p13fd3bc529)" d="M 682.266566 384.48 
L 682.266566 51.84 
L 691.330402 51.84 
L 691.330402 384.48 
z
" style="fill:#008000;opacity:0.04;"/>
   </g>
   <g id="patch_42">
    <path clip-path="url(#p13fd3bc529)" d="M 700.394239 384.48 
L 700.394239 51.84 
L 709.458076 51.84 
L 709.458076 384.48 
z
" style="fill:#008000;opacity:0.04;"/>
   </g>
   <g id="patch_43">
    <path clip-path="url(#p13fd3bc529)" d="M 718.521912 384.48 
L 718.521912 51.84 
L 727.585749 51.84 
L 727.585749 384.48 
z
" style="fill:#008000;opacity:0.04;"/>
   </g>
   <g id="patch_44">
    <path clip-path="url(#p13fd3bc529)" d="M 736.649586 384.48 
L 736.649586 51.84 
L 745.713422 51.84 
L 745.713422 384.48 
z
" style="fill:#008000;opacity:0.04;"/>
   </g>
   <g id="matplotlib.axis_1">
    <g id="xtick_1">
     <g id="line2d_1">
      <defs>
       <path d="M 0 0 
L 0 3.5 
" id="m826b2f981a" style="stroke:#000000;stroke-width:0.8;"/>
      </defs>
      <g>
       <use style="stroke:#000000;stroke-width:0.8;" x="138.436364" xlink:href="#m826b2f981a" y="384.48"/>
      </g>
     </g>
     <g id="text_1">
      <!-- 0 -->
      <defs>
       <path d="M 31.78125 66.40625 
Q 24.171875 66.40625 20.328125 58.90625 
Q 16.5 51.421875 16.5 36.375 
Q 16.5 21.390625 20.328125 13.890625 
Q 24.171875 6.390625 31.78125 6.390625 
Q 39.453125 6.390625 43.28125 13.890625 
Q 47.125 21.390625 47.125 36.375 
Q 47.125 51.421875 43.28125 58.90625 
Q 39.453125 66.40625 31.78125 66.40625 
z
M 31.78125 74.21875 
Q 44.046875 74.21875 50.515625 64.515625 
Q 56.984375 54.828125 56.984375 36.375 
Q 56.984375 17.96875 50.515625 8.265625 
Q 44.046875 -1.421875 31.78125 -1.421875 
Q 19.53125 -1.421875 13.0625 8.265625 
Q 6.59375 17.96875 6.59375 36.375 
Q 6.59375 54.828125 13.0625 64.515625 
Q 19.53125 74.21875 31.78125 74.21875 
z
" id="DejaVuSans-48"/>
      </defs>
      <g transform="translate(135.255114 399.078438)scale(0.1 -0.1)">
       <use xlink:href="#DejaVuSans-48"/>
      </g>
     </g>
    </g>
    <g id="xtick_2">
     <g id="line2d_2">
      <g>
       <use style="stroke:#000000;stroke-width:0.8;" x="229.074731" xlink:href="#m826b2f981a" y="384.48"/>
      </g>
     </g>
     <g id="text_2">
      <!-- 250 -->
      <defs>
       <path d="M 19.1875 8.296875 
L 53.609375 8.296875 
L 53.609375 0 
L 7.328125 0 
L 7.328125 8.296875 
Q 12.9375 14.109375 22.625 23.890625 
Q 32.328125 33.6875 34.8125 36.53125 
Q 39.546875 41.84375 41.421875 45.53125 
Q 43.3125 49.21875 43.3125 52.78125 
Q 43.3125 58.59375 39.234375 62.25 
Q 35.15625 65.921875 28.609375 65.921875 
Q 23.96875 65.921875 18.8125 64.3125 
Q 13.671875 62.703125 7.8125 59.421875 
L 7.8125 69.390625 
Q 13.765625 71.78125 18.9375 73 
Q 24.125 74.21875 28.421875 74.21875 
Q 39.75 74.21875 46.484375 68.546875 
Q 53.21875 62.890625 53.21875 53.421875 
Q 53.21875 48.921875 51.53125 44.890625 
Q 49.859375 40.875 45.40625 35.40625 
Q 44.1875 33.984375 37.640625 27.21875 
Q 31.109375 20.453125 19.1875 8.296875 
z
" id="DejaVuSans-50"/>
       <path d="M 10.796875 72.90625 
L 49.515625 72.90625 
L 49.515625 64.59375 
L 19.828125 64.59375 
L 19.828125 46.734375 
Q 21.96875 47.46875 24.109375 47.828125 
Q 26.265625 48.1875 28.421875 48.1875 
Q 40.625 48.1875 47.75 41.5 
Q 54.890625 34.8125 54.890625 23.390625 
Q 54.890625 11.625 47.5625 5.09375 
Q 40.234375 -1.421875 26.90625 -1.421875 
Q 22.3125 -1.421875 17.546875 -0.640625 
Q 12.796875 0.140625 7.71875 1.703125 
L 7.71875 11.625 
Q 12.109375 9.234375 16.796875 8.0625 
Q 21.484375 6.890625 26.703125 6.890625 
Q 35.15625 6.890625 40.078125 11.328125 
Q 45.015625 15.765625 45.015625 23.390625 
Q 45.015625 31 40.078125 35.4375 
Q 35.15625 39.890625 26.703125 39.890625 
Q 22.75 39.890625 18.8125 39.015625 
Q 14.890625 38.140625 10.796875 36.28125 
z
" id="DejaVuSans-53"/>
      </defs>
      <g transform="translate(219.530981 399.078438)scale(0.1 -0.1)">
       <use xlink:href="#DejaVuSans-50"/>
       <use x="63.623047" xlink:href="#DejaVuSans-53"/>
       <use x="127.246094" xlink:href="#DejaVuSans-48"/>
      </g>
     </g>
    </g>
    <g id="xtick_3">
     <g id="line2d_3">
      <g>
       <use style="stroke:#000000;stroke-width:0.8;" x="319.713098" xlink:href="#m826b2f981a" y="384.48"/>
      </g>
     </g>
     <g id="text_3">
      <!-- 500 -->
      <g transform="translate(310.169348 399.078438)scale(0.1 -0.1)">
       <use xlink:href="#DejaVuSans-53"/>
       <use x="63.623047" xlink:href="#DejaVuSans-48"/>
       <use x="127.246094" xlink:href="#DejaVuSans-48"/>
      </g>
     </g>
    </g>
    <g id="xtick_4">
     <g id="line2d_4">
      <g>
       <use style="stroke:#000000;stroke-width:0.8;" x="410.351465" xlink:href="#m826b2f981a" y="384.48"/>
      </g>
     </g>
     <g id="text_4">
      <!-- 750 -->
      <defs>
       <path d="M 8.203125 72.90625 
L 55.078125 72.90625 
L 55.078125 68.703125 
L 28.609375 0 
L 18.3125 0 
L 43.21875 64.59375 
L 8.203125 64.59375 
z
" id="DejaVuSans-55"/>
      </defs>
      <g transform="translate(400.807715 399.078438)scale(0.1 -0.1)">
       <use xlink:href="#DejaVuSans-55"/>
       <use x="63.623047" xlink:href="#DejaVuSans-53"/>
       <use x="127.246094" xlink:href="#DejaVuSans-48"/>
      </g>
     </g>
    </g>
    <g id="xtick_5">
     <g id="line2d_5">
      <g>
       <use style="stroke:#000000;stroke-width:0.8;" x="500.989832" xlink:href="#m826b2f981a" y="384.48"/>
      </g>
     </g>
     <g id="text_5">
      <!-- 1000 -->
      <defs>
       <path d="M 12.40625 8.296875 
L 28.515625 8.296875 
L 28.515625 63.921875 
L 10.984375 60.40625 
L 10.984375 69.390625 
L 28.421875 72.90625 
L 38.28125 72.90625 
L 38.28125 8.296875 
L 54.390625 8.296875 
L 54.390625 0 
L 12.40625 0 
z
" id="DejaVuSans-49"/>
      </defs>
      <g transform="translate(488.264832 399.078438)scale(0.1 -0.1)">
       <use xlink:href="#DejaVuSans-49"/>
       <use x="63.623047" xlink:href="#DejaVuSans-48"/>
       <use x="127.246094" xlink:href="#DejaVuSans-48"/>
       <use x="190.869141" xlink:href="#DejaVuSans-48"/>
      </g>
     </g>
    </g>
    <g id="xtick_6">
     <g id="line2d_6">
      <g>
       <use style="stroke:#000000;stroke-width:0.8;" x="591.628199" xlink:href="#m826b2f981a" y="384.48"/>
      </g>
     </g>
     <g id="text_6">
      <!-- 1250 -->
      <g transform="translate(578.903199 399.078438)scale(0.1 -0.1)">
       <use xlink:href="#DejaVuSans-49"/>
       <use x="63.623047" xlink:href="#DejaVuSans-50"/>
       <use x="127.246094" xlink:href="#DejaVuSans-53"/>
       <use x="190.869141" xlink:href="#DejaVuSans-48"/>
      </g>
     </g>
    </g>
    <g id="xtick_7">
     <g id="line2d_7">
      <g>
       <use style="stroke:#000000;stroke-width:0.8;" x="682.266566" xlink:href="#m826b2f981a" y="384.48"/>
      </g>
     </g>
     <g id="text_7">
      <!-- 1500 -->
      <g transform="translate(669.541566 399.078438)scale(0.1 -0.1)">
       <use xlink:href="#DejaVuSans-49"/>
       <use x="63.623047" xlink:href="#DejaVuSans-53"/>
       <use x="127.246094" xlink:href="#DejaVuSans-48"/>
       <use x="190.869141" xlink:href="#DejaVuSans-48"/>
      </g>
     </g>
    </g>
    <g id="xtick_8">
     <g id="line2d_8">
      <g>
       <use style="stroke:#000000;stroke-width:0.8;" x="772.904933" xlink:href="#m826b2f981a" y="384.48"/>
      </g>
     </g>
     <g id="text_8">
      <!-- 1750 -->
      <g transform="translate(760.179933 399.078438)scale(0.1 -0.1)">
       <use xlink:href="#DejaVuSans-49"/>
       <use x="63.623047" xlink:href="#DejaVuSans-55"/>
       <use x="127.246094" xlink:href="#DejaVuSans-53"/>
       <use x="190.869141" xlink:href="#DejaVuSans-48"/>
      </g>
     </g>
    </g>
    <g id="text_9">
     <!-- Timestamp -->
     <defs>
      <path d="M -0.296875 72.90625 
L 61.375 72.90625 
L 61.375 64.59375 
L 35.5 64.59375 
L 35.5 0 
L 25.59375 0 
L 25.59375 64.59375 
L -0.296875 64.59375 
z
" id="DejaVuSans-84"/>
      <path d="M 9.421875 54.6875 
L 18.40625 54.6875 
L 18.40625 0 
L 9.421875 0 
z
M 9.421875 75.984375 
L 18.40625 75.984375 
L 18.40625 64.59375 
L 9.421875 64.59375 
z
" id="DejaVuSans-105"/>
      <path d="M 52 44.1875 
Q 55.375 50.25 60.0625 53.125 
Q 64.75 56 71.09375 56 
Q 79.640625 56 84.28125 50.015625 
Q 88.921875 44.046875 88.921875 33.015625 
L 88.921875 0 
L 79.890625 0 
L 79.890625 32.71875 
Q 79.890625 40.578125 77.09375 44.375 
Q 74.3125 48.1875 68.609375 48.1875 
Q 61.625 48.1875 57.5625 43.546875 
Q 53.515625 38.921875 53.515625 30.90625 
L 53.515625 0 
L 44.484375 0 
L 44.484375 32.71875 
Q 44.484375 40.625 41.703125 44.40625 
Q 38.921875 48.1875 33.109375 48.1875 
Q 26.21875 48.1875 22.15625 43.53125 
Q 18.109375 38.875 18.109375 30.90625 
L 18.109375 0 
L 9.078125 0 
L 9.078125 54.6875 
L 18.109375 54.6875 
L 18.109375 46.1875 
Q 21.1875 51.21875 25.484375 53.609375 
Q 29.78125 56 35.6875 56 
Q 41.65625 56 45.828125 52.96875 
Q 50 49.953125 52 44.1875 
z
" id="DejaVuSans-109"/>
      <path d="M 56.203125 29.59375 
L 56.203125 25.203125 
L 14.890625 25.203125 
Q 15.484375 15.921875 20.484375 11.0625 
Q 25.484375 6.203125 34.421875 6.203125 
Q 39.59375 6.203125 44.453125 7.46875 
Q 49.3125 8.734375 54.109375 11.28125 
L 54.109375 2.78125 
Q 49.265625 0.734375 44.1875 -0.34375 
Q 39.109375 -1.421875 33.890625 -1.421875 
Q 20.796875 -1.421875 13.15625 6.1875 
Q 5.515625 13.8125 5.515625 26.8125 
Q 5.515625 40.234375 12.765625 48.109375 
Q 20.015625 56 32.328125 56 
Q 43.359375 56 49.78125 48.890625 
Q 56.203125 41.796875 56.203125 29.59375 
z
M 47.21875 32.234375 
Q 47.125 39.59375 43.09375 43.984375 
Q 39.0625 48.390625 32.421875 48.390625 
Q 24.90625 48.390625 20.390625 44.140625 
Q 15.875 39.890625 15.1875 32.171875 
z
" id="DejaVuSans-101"/>
      <path d="M 44.28125 53.078125 
L 44.28125 44.578125 
Q 40.484375 46.53125 36.375 47.5 
Q 32.28125 48.484375 27.875 48.484375 
Q 21.1875 48.484375 17.84375 46.4375 
Q 14.5 44.390625 14.5 40.28125 
Q 14.5 37.15625 16.890625 35.375 
Q 19.28125 33.59375 26.515625 31.984375 
L 29.59375 31.296875 
Q 39.15625 29.25 43.1875 25.515625 
Q 47.21875 21.78125 47.21875 15.09375 
Q 47.21875 7.46875 41.1875 3.015625 
Q 35.15625 -1.421875 24.609375 -1.421875 
Q 20.21875 -1.421875 15.453125 -0.5625 
Q 10.6875 0.296875 5.421875 2 
L 5.421875 11.28125 
Q 10.40625 8.6875 15.234375 7.390625 
Q 20.0625 6.109375 24.8125 6.109375 
Q 31.15625 6.109375 34.5625 8.28125 
Q 37.984375 10.453125 37.984375 14.40625 
Q 37.984375 18.0625 35.515625 20.015625 
Q 33.0625 21.96875 24.703125 23.78125 
L 21.578125 24.515625 
Q 13.234375 26.265625 9.515625 29.90625 
Q 5.8125 33.546875 5.8125 39.890625 
Q 5.8125 47.609375 11.28125 51.796875 
Q 16.75 56 26.8125 56 
Q 31.78125 56 36.171875 55.265625 
Q 40.578125 54.546875 44.28125 53.078125 
z
" id="DejaVuSans-115"/>
      <path d="M 18.3125 70.21875 
L 18.3125 54.6875 
L 36.8125 54.6875 
L 36.8125 47.703125 
L 18.3125 47.703125 
L 18.3125 18.015625 
Q 18.3125 11.328125 20.140625 9.421875 
Q 21.96875 7.515625 27.59375 7.515625 
L 36.8125 7.515625 
L 36.8125 0 
L 27.59375 0 
Q 17.1875 0 13.234375 3.875 
Q 9.28125 7.765625 9.28125 18.015625 
L 9.28125 47.703125 
L 2.6875 47.703125 
L 2.6875 54.6875 
L 9.28125 54.6875 
L 9.28125 70.21875 
z
" id="DejaVuSans-116"/>
      <path d="M 34.28125 27.484375 
Q 23.390625 27.484375 19.1875 25 
Q 14.984375 22.515625 14.984375 16.5 
Q 14.984375 11.71875 18.140625 8.90625 
Q 21.296875 6.109375 26.703125 6.109375 
Q 34.1875 6.109375 38.703125 11.40625 
Q 43.21875 16.703125 43.21875 25.484375 
L 43.21875 27.484375 
z
M 52.203125 31.203125 
L 52.203125 0 
L 43.21875 0 
L 43.21875 8.296875 
Q 40.140625 3.328125 35.546875 0.953125 
Q 30.953125 -1.421875 24.3125 -1.421875 
Q 15.921875 -1.421875 10.953125 3.296875 
Q 6 8.015625 6 15.921875 
Q 6 25.140625 12.171875 29.828125 
Q 18.359375 34.515625 30.609375 34.515625 
L 43.21875 34.515625 
L 43.21875 35.40625 
Q 43.21875 41.609375 39.140625 45 
Q 35.0625 48.390625 27.6875 48.390625 
Q 23 48.390625 18.546875 47.265625 
Q 14.109375 46.140625 10.015625 43.890625 
L 10.015625 52.203125 
Q 14.9375 54.109375 19.578125 55.046875 
Q 24.21875 56 28.609375 56 
Q 40.484375 56 46.34375 49.84375 
Q 52.203125 43.703125 52.203125 31.203125 
z
" id="DejaVuSans-97"/>
      <path d="M 18.109375 8.203125 
L 18.109375 -20.796875 
L 9.078125 -20.796875 
L 9.078125 54.6875 
L 18.109375 54.6875 
L 18.109375 46.390625 
Q 20.953125 51.265625 25.265625 53.625 
Q 29.59375 56 35.59375 56 
Q 45.5625 56 51.78125 48.09375 
Q 58.015625 40.1875 58.015625 27.296875 
Q 58.015625 14.40625 51.78125 6.484375 
Q 45.5625 -1.421875 35.59375 -1.421875 
Q 29.59375 -1.421875 25.265625 0.953125 
Q 20.953125 3.328125 18.109375 8.203125 
z
M 48.6875 27.296875 
Q 48.6875 37.203125 44.609375 42.84375 
Q 40.53125 48.484375 33.40625 48.484375 
Q 26.265625 48.484375 22.1875 42.84375 
Q 18.109375 37.203125 18.109375 27.296875 
Q 18.109375 17.390625 22.1875 11.75 
Q 26.265625 6.109375 33.40625 6.109375 
Q 40.53125 6.109375 44.609375 11.75 
Q 48.6875 17.390625 48.6875 27.296875 
z
" id="DejaVuSans-112"/>
     </defs>
     <g transform="translate(414.739062 412.756563)scale(0.1 -0.1)">
      <use xlink:href="#DejaVuSans-84"/>
      <use x="61.037109" xlink:href="#DejaVuSans-105"/>
      <use x="88.820312" xlink:href="#DejaVuSans-109"/>
      <use x="186.232422" xlink:href="#DejaVuSans-101"/>
      <use x="247.755859" xlink:href="#DejaVuSans-115"/>
      <use x="299.855469" xlink:href="#DejaVuSans-116"/>
      <use x="339.064453" xlink:href="#DejaVuSans-97"/>
      <use x="400.34375" xlink:href="#DejaVuSans-109"/>
      <use x="497.755859" xlink:href="#DejaVuSans-112"/>
     </g>
    </g>
   </g>
   <g id="matplotlib.axis_2">
    <g id="ytick_1">
     <g id="line2d_9">
      <defs>
       <path d="M 0 0 
L -3.5 0 
" id="md6f6543db0" style="stroke:#000000;stroke-width:0.8;"/>
      </defs>
      <g>
       <use style="stroke:#000000;stroke-width:0.8;" x="108" xlink:href="#md6f6543db0" y="345.01375"/>
      </g>
     </g>
     <g id="text_10">
      <!-- −1500 -->
      <defs>
       <path d="M 10.59375 35.5 
L 73.1875 35.5 
L 73.1875 27.203125 
L 10.59375 27.203125 
z
" id="DejaVuSans-8722"/>
      </defs>
      <g transform="translate(67.170312 348.812968)scale(0.1 -0.1)">
       <use xlink:href="#DejaVuSans-8722"/>
       <use x="83.789062" xlink:href="#DejaVuSans-49"/>
       <use x="147.412109" xlink:href="#DejaVuSans-53"/>
       <use x="211.035156" xlink:href="#DejaVuSans-48"/>
       <use x="274.658203" xlink:href="#DejaVuSans-48"/>
      </g>
     </g>
    </g>
    <g id="ytick_2">
     <g id="line2d_10">
      <g>
       <use style="stroke:#000000;stroke-width:0.8;" x="108" xlink:href="#md6f6543db0" y="304.264837"/>
      </g>
     </g>
     <g id="text_11">
      <!-- −1000 -->
      <g transform="translate(67.170312 308.064055)scale(0.1 -0.1)">
       <use xlink:href="#DejaVuSans-8722"/>
       <use x="83.789062" xlink:href="#DejaVuSans-49"/>
       <use x="147.412109" xlink:href="#DejaVuSans-48"/>
       <use x="211.035156" xlink:href="#DejaVuSans-48"/>
       <use x="274.658203" xlink:href="#DejaVuSans-48"/>
      </g>
     </g>
    </g>
    <g id="ytick_3">
     <g id="line2d_11">
      <g>
       <use style="stroke:#000000;stroke-width:0.8;" x="108" xlink:href="#md6f6543db0" y="263.515924"/>
      </g>
     </g>
     <g id="text_12">
      <!-- −500 -->
      <g transform="translate(73.532813 267.315142)scale(0.1 -0.1)">
       <use xlink:href="#DejaVuSans-8722"/>
       <use x="83.789062" xlink:href="#DejaVuSans-53"/>
       <use x="147.412109" xlink:href="#DejaVuSans-48"/>
       <use x="211.035156" xlink:href="#DejaVuSans-48"/>
      </g>
     </g>
    </g>
    <g id="ytick_4">
     <g id="line2d_12">
      <g>
       <use style="stroke:#000000;stroke-width:0.8;" x="108" xlink:href="#md6f6543db0" y="222.767011"/>
      </g>
     </g>
     <g id="text_13">
      <!-- 0 -->
      <g transform="translate(94.6375 226.566229)scale(0.1 -0.1)">
       <use xlink:href="#DejaVuSans-48"/>
      </g>
     </g>
    </g>
    <g id="ytick_5">
     <g id="line2d_13">
      <g>
       <use style="stroke:#000000;stroke-width:0.8;" x="108" xlink:href="#md6f6543db0" y="182.018098"/>
      </g>
     </g>
     <g id="text_14">
      <!-- 500 -->
      <g transform="translate(81.9125 185.817316)scale(0.1 -0.1)">
       <use xlink:href="#DejaVuSans-53"/>
       <use x="63.623047" xlink:href="#DejaVuSans-48"/>
       <use x="127.246094" xlink:href="#DejaVuSans-48"/>
      </g>
     </g>
    </g>
    <g id="ytick_6">
     <g id="line2d_14">
      <g>
       <use style="stroke:#000000;stroke-width:0.8;" x="108" xlink:href="#md6f6543db0" y="141.269185"/>
      </g>
     </g>
     <g id="text_15">
      <!-- 1000 -->
      <g transform="translate(75.55 145.068403)scale(0.1 -0.1)">
       <use xlink:href="#DejaVuSans-49"/>
       <use x="63.623047" xlink:href="#DejaVuSans-48"/>
       <use x="127.246094" xlink:href="#DejaVuSans-48"/>
       <use x="190.869141" xlink:href="#DejaVuSans-48"/>
      </g>
     </g>
    </g>
    <g id="ytick_7">
     <g id="line2d_15">
      <g>
       <use style="stroke:#000000;stroke-width:0.8;" x="108" xlink:href="#md6f6543db0" y="100.520272"/>
      </g>
     </g>
     <g id="text_16">
      <!-- 1500 -->
      <g transform="translate(75.55 104.31949)scale(0.1 -0.1)">
       <use xlink:href="#DejaVuSans-49"/>
       <use x="63.623047" xlink:href="#DejaVuSans-53"/>
       <use x="127.246094" xlink:href="#DejaVuSans-48"/>
       <use x="190.869141" xlink:href="#DejaVuSans-48"/>
      </g>
     </g>
    </g>
    <g id="ytick_8">
     <g id="line2d_16">
      <g>
       <use style="stroke:#000000;stroke-width:0.8;" x="108" xlink:href="#md6f6543db0" y="59.771359"/>
      </g>
     </g>
     <g id="text_17">
      <!-- 2000 -->
      <g transform="translate(75.55 63.570578)scale(0.1 -0.1)">
       <use xlink:href="#DejaVuSans-50"/>
       <use x="63.623047" xlink:href="#DejaVuSans-48"/>
       <use x="127.246094" xlink:href="#DejaVuSans-48"/>
       <use x="190.869141" xlink:href="#DejaVuSans-48"/>
      </g>
     </g>
    </g>
    <g id="text_18">
     <!-- Value -->
     <defs>
      <path d="M 28.609375 0 
L 0.78125 72.90625 
L 11.078125 72.90625 
L 34.1875 11.53125 
L 57.328125 72.90625 
L 67.578125 72.90625 
L 39.796875 0 
z
" id="DejaVuSans-86"/>
      <path d="M 9.421875 75.984375 
L 18.40625 75.984375 
L 18.40625 0 
L 9.421875 0 
z
" id="DejaVuSans-108"/>
      <path d="M 8.5 21.578125 
L 8.5 54.6875 
L 17.484375 54.6875 
L 17.484375 21.921875 
Q 17.484375 14.15625 20.5 10.265625 
Q 23.53125 6.390625 29.59375 6.390625 
Q 36.859375 6.390625 41.078125 11.03125 
Q 45.3125 15.671875 45.3125 23.6875 
L 45.3125 54.6875 
L 54.296875 54.6875 
L 54.296875 0 
L 45.3125 0 
L 45.3125 8.40625 
Q 42.046875 3.421875 37.71875 1 
Q 33.40625 -1.421875 27.6875 -1.421875 
Q 18.265625 -1.421875 13.375 4.4375 
Q 8.5 10.296875 8.5 21.578125 
z
M 31.109375 56 
z
" id="DejaVuSans-117"/>
     </defs>
     <g transform="translate(61.090625 232.273281)rotate(-90)scale(0.1 -0.1)">
      <use xlink:href="#DejaVuSans-86"/>
      <use x="68.298828" xlink:href="#DejaVuSans-97"/>
      <use x="129.578125" xlink:href="#DejaVuSans-108"/>
      <use x="157.361328" xlink:href="#DejaVuSans-117"/>
      <use x="220.740234" xlink:href="#DejaVuSans-101"/>
     </g>
    </g>
   </g>
   <g id="line2d_17">
    <path clip-path="url(#p13fd3bc529)" d="M 138.436364 231.482594 
L 139.161471 168.984086 
L 139.524024 166.427001 
L 139.886578 170.827303 
L 140.249131 173.626345 
L 140.611684 185.5199 
L 141.336791 230.413577 
L 141.699345 229.364092 
L 142.061898 228.667818 
L 142.424452 217.680299 
L 142.787005 216.033632 
L 143.512112 193.891608 
L 143.874666 195.786086 
L 144.237219 204.061873 
L 144.599773 224.759019 
L 144.962326 238.367771 
L 145.32488 258.036051 
L 145.687433 263.989678 
L 146.049986 257.759763 
L 146.41254 262.362326 
L 147.137647 199.690179 
L 147.862754 161.868043 
L 148.225307 154.791508 
L 148.587861 154.994851 
L 148.950414 157.309128 
L 149.312968 168.756194 
L 149.675521 190.492626 
L 150.038075 204.137533 
L 150.400628 212.549485 
L 150.763182 212.958863 
L 151.125735 214.00383 
L 151.850842 190.898533 
L 152.213395 182.245517 
L 152.575949 179.464376 
L 153.301056 213.314535 
L 153.663609 234.996823 
L 154.026163 238.164281 
L 154.388716 252.236457 
L 154.75127 255.3894 
L 155.113823 243.08019 
L 155.476377 216.428662 
L 155.83893 200.574022 
L 156.201484 174.29482 
L 156.564037 159.136683 
L 156.926591 150.571128 
L 157.289144 148.590851 
L 157.651697 153.84065 
L 158.739358 211.470133 
L 159.101911 219.401389 
L 159.464465 218.075167 
L 159.827018 219.24034 
L 160.189572 194.916794 
L 160.552125 183.07109 
L 160.914679 188.077801 
L 161.277232 196.407518 
L 161.639786 197.336665 
L 162.364893 237.050744 
L 163.452553 272.382167 
L 164.17766 224.663075 
L 165.26532 170.307682 
L 165.627874 159.017246 
L 165.990427 160.168475 
L 166.715534 176.59019 
L 167.078088 206.95443 
L 167.803195 239.121104 
L 168.165748 236.518328 
L 168.890855 210.970815 
L 169.253408 209.24481 
L 169.615962 195.872485 
L 169.978515 208.208208 
L 170.341069 211.791313 
L 170.703622 224.130668 
L 171.428729 267.329949 
L 171.791283 274.346551 
L 172.153836 274.44992 
L 172.878943 249.368449 
L 173.60405 199.870243 
L 173.966603 176.903916 
L 174.329157 176.863488 
L 174.69171 164.804798 
L 175.054264 183.089257 
L 175.416817 193.781929 
L 175.779371 223.00571 
L 176.141924 241.292531 
L 176.504478 236.926829 
L 176.867031 242.07504 
L 177.229585 237.36613 
L 177.592138 223.862228 
L 178.317245 215.890524 
L 178.679799 214.610324 
L 179.042352 222.540198 
L 180.130012 281.529001 
L 180.492566 290.389747 
L 180.855119 293.000624 
L 181.217673 269.240184 
L 181.580226 253.21536 
L 182.305333 201.340511 
L 182.667887 184.392713 
L 183.392994 172.70814 
L 183.755547 188.023943 
L 184.480654 223.713723 
L 185.205761 251.458896 
L 185.568314 246.227692 
L 185.930868 233.97967 
L 186.293421 236.888114 
L 186.655975 214.667891 
L 187.381082 207.601494 
L 187.743635 217.382138 
L 188.106189 247.496043 
L 188.468742 251.973432 
L 188.831296 272.814491 
L 189.556403 287.770597 
L 189.918956 266.433148 
L 190.28151 252.167278 
L 191.36917 177.637246 
L 191.731723 172.37227 
L 192.094277 173.617999 
L 192.45683 173.201683 
L 193.181937 217.320257 
L 193.544491 227.665391 
L 193.907044 224.587736 
L 194.269598 237.284248 
L 194.632151 232.709851 
L 194.994705 208.937702 
L 195.357258 196.931874 
L 195.719812 195.449013 
L 196.082365 198.358735 
L 196.807472 223.723755 
L 197.170025 242.585624 
L 197.532579 253.08333 
L 197.895132 267.364235 
L 198.257686 266.453996 
L 199.345346 213.146696 
L 200.070453 164.955238 
L 200.433007 152.52008 
L 200.79556 148.416703 
L 201.158114 161.552327 
L 201.520667 169.673612 
L 201.883221 200.45359 
L 202.608327 217.899145 
L 203.333434 208.317699 
L 204.783648 176.297003 
L 205.146202 185.153077 
L 205.871309 225.277293 
L 206.233862 234.554551 
L 206.596416 256.012868 
L 206.958969 243.397698 
L 207.321523 223.203678 
L 207.684076 215.248913 
L 208.771736 147.93364 
L 209.13429 142.959416 
L 209.496843 148.018807 
L 209.859397 145.621731 
L 210.22195 157.119502 
L 210.947057 199.113697 
L 211.309611 197.719881 
L 211.672164 209.65277 
L 212.034718 207.201952 
L 212.397271 182.83779 
L 213.122378 170.570034 
L 213.484932 178.915277 
L 213.847485 177.236126 
L 214.572592 207.888596 
L 214.935145 238.893369 
L 215.297699 238.439554 
L 215.660252 239.176538 
L 216.385359 212.21954 
L 216.747913 188.638176 
L 217.110466 155.83965 
L 217.47302 143.202397 
L 217.835573 118.343438 
L 218.923234 151.388406 
L 219.285787 187.851102 
L 219.64834 191.065531 
L 220.010894 203.058574 
L 220.373447 198.35246 
L 220.736001 199.675765 
L 221.461108 184.444879 
L 221.823661 172.454825 
L 222.548768 183.085772 
L 223.273875 216.261923 
L 223.636429 243.952973 
L 223.998982 244.311416 
L 224.361536 243.830095 
L 224.724089 232.09695 
L 225.086642 213.962275 
L 225.449196 205.965786 
L 225.811749 172.644594 
L 226.174303 153.23456 
L 226.536856 146.514361 
L 226.89941 142.091263 
L 227.98707 193.761288 
L 228.349624 200.22314 
L 228.712177 217.906332 
L 229.074731 216.357977 
L 229.437284 216.733797 
L 230.162391 189.043043 
L 230.524945 180.68688 
L 230.887498 191.142545 
L 231.250051 191.426992 
L 232.337712 252.536235 
L 233.062819 267.513 
L 233.425372 254.870519 
L 233.787926 237.114402 
L 234.150479 206.331481 
L 234.513033 198.133398 
L 234.875586 164.881642 
L 235.23814 154.380455 
L 235.600693 157.943229 
L 235.963247 174.140423 
L 236.688353 195.709211 
L 237.050907 220.745929 
L 237.41346 234.134082 
L 237.776014 228.777486 
L 238.138567 225.457263 
L 238.501121 225.523064 
L 238.863674 208.364484 
L 239.226228 206.088115 
L 239.588781 201.426202 
L 240.313888 222.832843 
L 241.038995 263.190517 
L 241.401549 270.975947 
L 241.764102 269.492877 
L 242.126655 252.312292 
L 242.489209 246.012693 
L 243.576869 173.266183 
L 243.939423 159.40617 
L 244.301976 163.295078 
L 244.66453 173.77853 
L 245.389637 206.762984 
L 245.75219 233.013834 
L 246.114744 231.802261 
L 246.839851 221.933061 
L 247.202404 219.830426 
L 247.564957 212.542284 
L 247.927511 198.516512 
L 248.290064 204.809896 
L 248.652618 206.600706 
L 249.015171 225.243957 
L 249.377725 251.401124 
L 250.102832 266.890071 
L 250.465385 265.22105 
L 251.190492 239.377891 
L 251.915599 191.699585 
L 252.278153 169.699758 
L 252.640706 155.940399 
L 253.00326 156.917664 
L 253.365813 161.332928 
L 253.728366 175.619946 
L 254.453473 214.365542 
L 254.816027 221.077295 
L 255.17858 216.868819 
L 255.541134 214.824049 
L 255.903687 201.005563 
L 256.628794 183.852544 
L 256.991348 188.349738 
L 257.353901 197.439734 
L 258.441562 243.489664 
L 258.804115 250.498302 
L 259.166668 252.69426 
L 259.891775 225.42258 
L 260.254329 191.373909 
L 260.616882 175.633082 
L 260.979436 151.516639 
L 261.341989 139.51381 
L 261.704543 141.42053 
L 262.067096 144.644219 
L 262.42965 156.604904 
L 262.792203 180.589813 
L 263.51731 204.528371 
L 263.879864 207.902707 
L 264.242417 201.116436 
L 265.330077 166.42727 
L 266.055184 174.497738 
L 267.142845 225.983347 
L 267.505398 232.546569 
L 267.867952 236.029483 
L 268.230505 219.587173 
L 269.318166 154.260373 
L 269.680719 142.065429 
L 270.043273 122.257393 
L 270.405826 124.901803 
L 270.768379 137.22878 
L 271.130933 143.507229 
L 271.85604 179.366421 
L 272.218593 186.99056 
L 272.581147 185.841281 
L 272.9437 185.85845 
L 273.306254 179.755766 
L 273.668807 160.910119 
L 274.031361 161.451344 
L 274.393914 151.303554 
L 275.481575 190.90794 
L 275.844128 216.843035 
L 276.206681 228.123787 
L 276.569235 234.119039 
L 278.382002 131.715196 
L 278.744556 118.762316 
L 279.107109 117.747697 
L 279.469663 135.82461 
L 279.832216 141.940723 
L 280.557323 179.712913 
L 280.919877 194.27137 
L 281.644983 183.117927 
L 282.37009 162.171296 
L 282.732644 156.856789 
L 283.457751 173.776912 
L 283.820304 198.218097 
L 284.182858 199.940467 
L 284.545411 230.875291 
L 284.907965 237.894805 
L 285.270518 234.026068 
L 285.995625 204.250526 
L 286.358179 181.347767 
L 286.720732 166.462869 
L 287.083286 138.500848 
L 287.445839 130.098822 
L 287.808392 126.884327 
L 288.170946 139.603699 
L 289.258606 198.139264 
L 289.62116 203.715895 
L 289.983713 206.828244 
L 290.346267 191.619559 
L 290.70882 194.689828 
L 291.071374 168.269605 
L 291.433927 175.647041 
L 291.796481 177.202433 
L 292.159034 185.529512 
L 292.521588 207.354134 
L 292.884141 215.96806 
L 293.246694 241.795167 
L 293.609248 252.291421 
L 293.971801 252.929499 
L 294.696908 212.999322 
L 295.059462 204.599517 
L 295.422015 166.017946 
L 295.784569 156.00351 
L 296.147122 142.06529 
L 296.509676 138.534147 
L 296.872229 156.745443 
L 297.234783 167.029663 
L 297.597336 191.96634 
L 298.322443 224.255202 
L 298.684996 214.385088 
L 299.04755 216.916324 
L 299.410103 203.809207 
L 299.772657 202.80342 
L 300.13521 193.191511 
L 300.497764 180.035265 
L 301.947978 251.379776 
L 302.673085 258.969554 
L 303.035638 248.727147 
L 304.485852 165.89724 
L 304.848405 153.263539 
L 305.210959 148.724895 
L 305.573512 159.642427 
L 306.661173 211.102431 
L 307.023726 213.498839 
L 307.38628 224.289258 
L 307.748833 220.228695 
L 308.111387 209.740358 
L 308.47394 191.848456 
L 308.836494 182.979626 
L 309.199047 182.609299 
L 309.561601 188.526063 
L 309.924154 205.926385 
L 310.286707 236.73511 
L 310.649261 240.694942 
L 311.011814 256.157128 
L 311.374368 243.95303 
L 311.736921 240.807733 
L 312.099475 231.997273 
L 312.462028 200.291243 
L 313.549689 141.576197 
L 313.912242 147.947272 
L 314.274796 149.092222 
L 314.637349 159.202328 
L 315.362456 201.442995 
L 315.725009 197.227003 
L 316.087563 206.160609 
L 316.450116 204.170709 
L 316.81267 187.115179 
L 317.175223 188.674271 
L 317.537777 175.596994 
L 317.90033 176.035346 
L 318.262884 181.892575 
L 318.987991 219.309438 
L 319.713098 238.799433 
L 320.075651 230.774253 
L 320.438205 227.164345 
L 320.800758 216.701428 
L 321.888418 138.822163 
L 322.250972 127.489582 
L 322.613525 122.803753 
L 322.976079 132.873747 
L 323.338632 151.462536 
L 323.701186 161.008854 
L 324.063739 180.092192 
L 324.426293 189.066416 
L 324.788846 180.392166 
L 325.1514 186.921477 
L 325.513953 169.665868 
L 325.876507 166.861621 
L 326.23906 154.479768 
L 326.601614 169.655737 
L 326.964167 161.407324 
L 327.32672 188.807163 
L 327.689274 192.972873 
L 328.051827 214.347478 
L 328.414381 221.026354 
L 328.776934 219.5089 
L 329.139488 217.463487 
L 329.864595 165.385117 
L 330.589702 120.577646 
L 330.952255 107.260966 
L 331.314809 109.487242 
L 331.677362 118.506126 
L 332.039916 131.170195 
L 332.765022 162.470313 
L 333.490129 180.122685 
L 333.852683 174.639424 
L 334.57779 154.280902 
L 334.940343 149.732686 
L 335.302897 143.570996 
L 335.66545 160.898706 
L 336.028004 166.020155 
L 336.390557 182.889374 
L 336.753111 206.629835 
L 337.115664 215.661439 
L 337.840771 201.95308 
L 339.290985 117.833711 
L 339.653538 105.60877 
L 340.378645 114.67511 
L 340.741199 141.250228 
L 341.103752 143.339259 
L 341.466306 157.705946 
L 341.828859 178.273147 
L 342.191413 177.352273 
L 342.553966 172.074003 
L 342.91652 158.025943 
L 343.279073 152.764645 
L 343.641627 140.499418 
L 344.00418 145.983239 
L 344.366733 154.484891 
L 345.454394 212.351812 
L 345.816947 218.779308 
L 346.179501 213.549004 
L 346.542054 211.993699 
L 346.904608 184.789743 
L 347.267161 171.821158 
L 347.992268 119.47086 
L 348.354822 110.627481 
L 348.717375 110.608846 
L 349.079929 119.241344 
L 349.805035 162.933945 
L 350.167589 194.069994 
L 350.530142 200.994347 
L 350.892696 196.986526 
L 351.255249 187.427563 
L 351.617803 171.450729 
L 351.980356 172.024895 
L 352.34291 156.883728 
L 352.705463 153.674091 
L 353.068017 168.320212 
L 353.43057 279.752308 
L 353.793124 206.287866 
L 354.155677 224.761597 
L 354.518231 234.536884 
L 354.880784 239.225436 
L 355.243337 226.720272 
L 355.968444 186.148161 
L 356.693551 138.512576 
L 357.418658 125.632466 
L 357.781212 140.939489 
L 358.143765 165.581245 
L 359.231426 197.335172 
L 359.593979 202.754381 
L 359.956533 198.197167 
L 360.68164 176.319793 
L 361.044193 167.433657 
L 361.7693 181.145371 
L 362.494407 212.297685 
L 362.85696 237.408945 
L 363.219514 249.838232 
L 363.582067 241.467686 
L 363.944621 235.726468 
L 364.669728 200.312907 
L 365.032281 159.186663 
L 365.394835 153.170284 
L 365.757388 135.964711 
L 366.119942 133.523382 
L 367.207602 177.623699 
L 367.932709 208.666157 
L 368.295262 205.936669 
L 369.020369 183.932338 
L 369.382923 179.352922 
L 369.745476 182.892406 
L 370.10803 171.851605 
L 370.470583 172.448004 
L 370.833137 201.119581 
L 371.558244 236.130702 
L 371.920797 234.18195 
L 372.28335 240.908495 
L 372.645904 232.662572 
L 373.371011 189.045274 
L 373.733564 158.32282 
L 374.458671 125.396366 
L 374.821225 126.260943 
L 375.546332 145.15487 
L 375.908885 173.342644 
L 376.271439 180.854498 
L 376.633992 194.061129 
L 376.996546 194.747033 
L 377.721652 180.286003 
L 378.084206 159.113332 
L 378.446759 170.005861 
L 378.809313 157.837021 
L 379.171866 170.867492 
L 379.53442 176.148272 
L 379.896973 199.206315 
L 380.259527 214.188403 
L 380.62208 218.762933 
L 380.984634 226.941533 
L 381.347187 221.717288 
L 382.434848 144.075316 
L 382.797401 128.584726 
L 383.159955 104.012838 
L 383.522508 107.122885 
L 383.885061 113.275995 
L 384.247615 136.360303 
L 384.610168 148.964797 
L 384.972722 170.74989 
L 385.335275 185.04525 
L 385.697829 171.789222 
L 386.060382 174.973908 
L 386.785489 145.155534 
L 387.148043 144.956541 
L 387.510596 142.433676 
L 387.87315 144.102782 
L 388.96081 199.335922 
L 389.323363 209.535887 
L 389.685917 210.324605 
L 390.04847 197.401917 
L 390.411024 164.633188 
L 390.773577 151.433428 
L 391.498684 115.445782 
L 392.223791 87.128703 
L 392.586345 99.799405 
L 393.311452 142.79401 
L 393.674005 151.303936 
L 394.036559 153.890483 
L 394.399112 165.932018 
L 394.761665 144.268942 
L 395.124219 145.629656 
L 395.486772 127.207085 
L 395.849326 126.991195 
L 396.211879 131.033622 
L 396.574433 149.47614 
L 397.29954 166.166116 
L 397.662093 190.139666 
L 398.024647 203.360891 
L 398.3872 202.562058 
L 398.749754 191.090953 
L 399.474861 141.155003 
L 400.199968 96.758865 
L 400.562521 85.926364 
L 400.925074 84.046119 
L 401.650181 116.944058 
L 402.375288 147.737629 
L 402.737842 155.164379 
L 403.100395 171.83612 
L 403.825502 141.618299 
L 404.188056 127.491231 
L 404.550609 128.84597 
L 404.913163 136.686744 
L 405.275716 149.098884 
L 405.63827 156.225387 
L 406.363376 194.345743 
L 407.088483 205.562888 
L 407.451037 202.991377 
L 408.901251 107.339511 
L 409.263804 100.217897 
L 409.626358 97.648887 
L 409.988911 112.24518 
L 410.714018 147.868968 
L 411.076572 157.562532 
L 411.439125 172.492048 
L 411.801678 174.393465 
L 412.164232 177.215227 
L 412.526785 161.345766 
L 413.251892 141.994417 
L 413.614446 146.467277 
L 414.339553 179.440274 
L 415.06466 201.444665 
L 415.427213 221.424892 
L 415.789767 221.553045 
L 416.514874 189.534357 
L 417.602534 130.286577 
L 417.965087 124.248144 
L 418.327641 113.469544 
L 418.690194 116.662539 
L 419.777855 182.611543 
L 420.140408 182.441906 
L 420.502962 197.197387 
L 420.865515 183.505043 
L 421.228069 176.959887 
L 421.590622 168.185878 
L 422.315729 162.305064 
L 422.678283 172.782199 
L 423.040836 178.996689 
L 423.403389 202.773157 
L 423.765943 212.279568 
L 424.128496 225.630701 
L 424.49105 232.816058 
L 424.853603 220.169707 
L 425.941264 151.908172 
L 426.303817 124.443111 
L 426.666371 127.195486 
L 427.028924 118.191125 
L 427.391478 124.331779 
L 427.754031 155.713798 
L 428.841691 192.850475 
L 429.204245 186.007922 
L 429.566798 184.56932 
L 429.929352 178.220121 
L 430.291905 164.209555 
L 430.654459 163.927799 
L 431.017012 164.096796 
L 431.742119 177.071064 
L 432.467226 217.336555 
L 432.82978 228.83002 
L 433.192333 219.677201 
L 433.554887 213.991816 
L 433.91744 194.523647 
L 434.642547 138.755365 
L 435.367654 111.799569 
L 435.730207 114.993974 
L 436.817868 153.348605 
L 437.180421 178.272797 
L 437.542975 181.6321 
L 437.905528 181.664691 
L 438.268082 184.144687 
L 438.630635 171.471953 
L 438.993189 151.889226 
L 439.355742 140.759478 
L 439.718296 151.452864 
L 440.080849 155.234917 
L 440.443402 156.831593 
L 440.805956 190.560262 
L 441.168509 206.687011 
L 441.531063 217.005495 
L 441.893616 207.913761 
L 442.25617 195.316165 
L 443.34383 134.020872 
L 443.706384 107.340176 
L 444.068937 89.662696 
L 444.431491 87.751276 
L 445.156598 123.867888 
L 445.519151 139.956709 
L 445.881704 147.846176 
L 446.244258 163.284763 
L 446.606811 165.380635 
L 446.969365 154.092826 
L 447.331918 146.460063 
L 448.057025 119.622703 
L 448.419579 125.206462 
L 448.782132 134.552842 
L 449.144686 152.823479 
L 449.507239 165.260062 
L 449.869793 183.256112 
L 450.232346 190.094846 
L 450.5949 194.476764 
L 451.320006 161.009038 
L 452.407667 80.843465 
L 452.77022 84.822095 
L 453.132774 74.922886 
L 454.945541 143.600812 
L 455.308095 147.611432 
L 455.670648 142.081231 
L 456.395755 121.348443 
L 456.758309 123.437984 
L 457.120862 118.707535 
L 457.845969 137.984261 
L 458.208522 165.63112 
L 458.933629 183.436014 
L 459.296183 184.741604 
L 459.658736 178.860987 
L 460.02129 164.414727 
L 460.746397 111.786968 
L 461.471504 82.939708 
L 461.834057 82.05921 
L 462.196611 80.828456 
L 462.559164 109.074006 
L 462.921717 121.142579 
L 463.284271 142.363729 
L 463.646824 151.389996 
L 464.009378 143.362472 
L 464.371931 139.934547 
L 464.734485 128.728237 
L 465.097038 126.70153 
L 465.459592 114.375307 
L 465.822145 120.116981 
L 466.184699 129.93993 
L 467.272359 172.162127 
L 467.634913 194.912016 
L 467.997466 190.349728 
L 468.722573 161.568552 
L 469.085126 137.454329 
L 469.810233 107.897635 
L 470.53534 86.689723 
L 471.623001 128.806001 
L 472.348108 159.35357 
L 472.710661 166.865037 
L 473.073215 147.541514 
L 473.435768 147.088328 
L 473.798322 151.121701 
L 474.160875 126.517928 
L 474.523428 128.79634 
L 474.885982 140.35201 
L 475.248535 168.037277 
L 475.611089 179.220483 
L 475.973642 196.556523 
L 476.336196 206.083696 
L 476.698749 203.095624 
L 477.061303 202.257534 
L 477.423856 182.003656 
L 477.78641 147.777491 
L 478.148963 127.277773 
L 478.87407 99.849167 
L 479.236624 95.564895 
L 479.96173 120.062193 
L 480.686837 169.240881 
L 481.049391 170.888785 
L 481.411944 175.883347 
L 482.137051 162.34472 
L 482.499605 143.119506 
L 482.862158 147.22728 
L 483.224712 153.58735 
L 483.587265 152.705624 
L 483.949819 180.240454 
L 484.312372 194.61032 
L 484.674926 214.252421 
L 485.037479 213.871833 
L 485.400032 215.824783 
L 485.762586 201.481719 
L 486.125139 181.621145 
L 486.850246 134.115254 
L 487.575353 106.294483 
L 487.937907 109.659606 
L 488.30046 127.175214 
L 489.025567 149.256996 
L 489.388121 177.473237 
L 489.750674 168.337767 
L 490.113228 179.876448 
L 490.838335 156.213805 
L 491.200888 157.347661 
L 491.563441 148.255979 
L 491.925995 145.161821 
L 492.288548 151.720879 
L 493.376209 207.550186 
L 493.738762 214.731013 
L 494.101316 225.83714 
L 495.55153 132.39533 
L 496.276637 97.006097 
L 497.001743 114.1562 
L 497.364297 121.354069 
L 497.72685 146.085103 
L 498.089404 246.611095 
L 498.451957 152.480596 
L 498.814511 165.63451 
L 499.177064 153.635205 
L 499.539618 149.608081 
L 499.902171 137.468047 
L 500.264725 131.799823 
L 500.627278 138.07047 
L 500.989832 142.236535 
L 501.352385 161.563962 
L 502.077492 188.714288 
L 502.440045 202.737335 
L 502.802599 198.379625 
L 503.165152 191.022921 
L 503.527706 163.094698 
L 503.890259 145.958574 
L 504.615366 93.555078 
L 504.97792 81.588199 
L 505.340473 85.549903 
L 505.703027 100.688023 
L 506.06558 108.195884 
L 506.428134 141.533637 
L 506.790687 137.014246 
L 507.153241 160.658219 
L 507.515794 150.016358 
L 507.878348 146.954002 
L 508.603454 120.958556 
L 508.966008 118.134085 
L 509.328561 118.02177 
L 510.053668 141.735284 
L 510.416222 157.243112 
L 510.778775 180.640496 
L 511.141329 188.118135 
L 511.503882 189.819473 
L 512.228989 160.89872 
L 512.954096 106.078806 
L 513.679203 70.273904 
L 514.041756 66.96 
L 514.766863 118.653846 
L 515.129417 119.76035 
L 515.49197 138.6617 
L 515.854524 151.19948 
L 516.217077 141.124443 
L 516.579631 137.315541 
L 517.304738 119.441883 
L 517.667291 120.231095 
L 518.029845 119.1922 
L 518.392398 122.509308 
L 519.117505 161.178419 
L 519.480058 177.458495 
L 519.842612 184.961073 
L 520.205165 181.530478 
L 520.567719 176.466078 
L 520.930272 161.846461 
L 521.655379 103.054687 
L 522.380486 78.285582 
L 522.74304 80.780862 
L 523.468147 108.805023 
L 523.8307 137.250931 
L 524.193254 141.767265 
L 524.555807 160.455562 
L 524.91836 161.115589 
L 525.280914 147.713628 
L 526.006021 128.89909 
L 526.368574 114.486038 
L 526.731128 134.589013 
L 527.093681 140.012187 
L 527.456235 149.692803 
L 527.818788 168.127546 
L 528.181342 199.191666 
L 528.543895 211.458726 
L 528.906449 193.739982 
L 529.269002 190.11359 
L 529.631556 170.471069 
L 529.994109 143.470949 
L 530.719216 109.059968 
L 531.081769 94.636985 
L 531.806876 109.902068 
L 532.531983 145.300639 
L 532.894537 167.673565 
L 533.25709 175.901981 
L 533.619644 174.464266 
L 533.982197 170.042621 
L 534.344751 170.926315 
L 535.069858 147.680577 
L 535.794965 163.938403 
L 536.157518 177.045891 
L 537.245178 226.013026 
L 537.607732 221.54548 
L 537.970285 211.736561 
L 538.695392 176.259914 
L 539.057946 138.300744 
L 539.420499 124.941165 
L 539.783053 122.051134 
L 540.145606 130.322169 
L 540.50816 126.105701 
L 540.870713 146.475941 
L 541.233267 159.538043 
L 541.59582 190.654696 
L 541.958373 197.315236 
L 542.320927 191.290412 
L 542.68348 188.606548 
L 543.046034 181.419752 
L 543.408587 171.38643 
L 543.771141 171.810557 
L 544.133694 173.709828 
L 544.496248 179.189217 
L 544.858801 212.575404 
L 545.221355 209.422408 
L 545.583908 232.782964 
L 545.946462 233.591818 
L 546.309015 244.447899 
L 546.671569 224.788121 
L 547.034122 213.696262 
L 547.759229 164.026546 
L 548.121782 144.147535 
L 548.484336 133.913021 
L 548.846889 133.324809 
L 549.209443 146.153917 
L 549.93455 183.915144 
L 550.659657 203.982512 
L 551.02221 206.961515 
L 551.384764 202.80297 
L 551.747317 195.556887 
L 552.109871 185.348302 
L 552.472424 187.268657 
L 552.834978 184.171848 
L 553.197531 186.227698 
L 553.560084 200.725337 
L 553.922638 221.523944 
L 554.647745 241.981308 
L 555.010298 242.018189 
L 555.372852 236.292523 
L 556.097959 194.816484 
L 556.460512 166.757796 
L 557.185619 129.622987 
L 557.910726 143.292398 
L 558.635833 173.501276 
L 558.998386 196.87173 
L 559.36094 199.764263 
L 559.723493 211.563686 
L 560.086047 203.52789 
L 560.811154 176.477387 
L 561.173707 168.149711 
L 561.536261 180.296297 
L 561.898814 184.917456 
L 562.261368 198.697773 
L 562.623921 206.158376 
L 562.986475 227.796675 
L 563.349028 240.934696 
L 563.711582 245.338905 
L 564.799242 182.785253 
L 565.524349 139.554414 
L 565.886902 125.463237 
L 566.249456 119.242718 
L 566.612009 125.264751 
L 566.974563 151.966079 
L 567.69967 178.617769 
L 568.062223 184.4403 
L 568.424777 192.321416 
L 568.78733 183.834109 
L 569.512437 162.000181 
L 569.874991 154.992876 
L 570.237544 156.077695 
L 570.600097 162.610503 
L 571.687758 217.87747 
L 572.050311 231.840647 
L 572.412865 234.055104 
L 572.775418 210.761529 
L 573.137972 205.580541 
L 574.225632 125.095861 
L 574.950739 117.511004 
L 575.313293 125.557546 
L 575.675846 150.713964 
L 576.763506 188.267686 
L 577.12606 182.045891 
L 577.488613 192.812144 
L 577.851167 172.639155 
L 578.21372 159.233776 
L 578.576274 156.25619 
L 578.938827 155.420425 
L 579.301381 158.229617 
L 580.026488 200.737609 
L 580.389041 220.219793 
L 580.751595 222.17649 
L 581.114148 232.51331 
L 582.564362 144.743491 
L 582.926915 130.012784 
L 583.289469 121.713053 
L 583.652022 124.532114 
L 584.014576 146.706605 
L 584.377129 143.611964 
L 585.102236 187.32084 
L 585.46479 190.316825 
L 585.827343 195.33715 
L 586.189897 191.714915 
L 586.55245 193.266465 
L 586.915004 165.36745 
L 587.277557 171.236554 
L 587.64011 172.674055 
L 588.002664 169.313133 
L 588.727771 221.347912 
L 589.090324 235.540427 
L 589.815431 240.276515 
L 590.177985 238.373301 
L 590.540538 216.899036 
L 590.903092 185.327435 
L 591.628199 152.14574 
L 591.990752 137.179993 
L 592.353306 139.59179 
L 593.078412 174.162014 
L 593.440966 190.000144 
L 593.803519 198.380843 
L 594.166073 212.517734 
L 594.528626 220.625817 
L 594.89118 214.364698 
L 595.253733 194.321561 
L 595.616287 198.144044 
L 595.97884 200.157564 
L 596.341394 185.615918 
L 597.066501 216.665082 
L 597.429054 239.519233 
L 597.791608 252.67391 
L 598.154161 255.203094 
L 598.516714 275.518608 
L 599.241821 239.427825 
L 599.604375 209.898639 
L 599.966928 194.585643 
L 600.329482 167.654398 
L 600.692035 157.44016 
L 601.054589 157.823517 
L 601.417142 171.094189 
L 602.504803 229.53167 
L 602.867356 240.742775 
L 603.22991 238.826907 
L 603.592463 232.460775 
L 603.955017 215.581142 
L 604.31757 219.32032 
L 604.680123 209.729735 
L 605.042677 208.023609 
L 605.40523 224.914296 
L 605.767784 228.358482 
L 606.492891 278.50802 
L 606.855444 275.943719 
L 607.217998 283.861276 
L 607.580551 275.967775 
L 607.943105 264.59498 
L 608.305658 225.756901 
L 608.668212 209.257112 
L 609.030765 182.965465 
L 609.393319 171.115865 
L 609.755872 173.555218 
L 610.118425 197.060737 
L 610.480979 202.357623 
L 610.843532 234.124371 
L 611.206086 226.378454 
L 611.568639 242.254294 
L 611.931193 251.709368 
L 612.293746 242.634068 
L 612.6563 244.995532 
L 613.018853 221.496355 
L 613.381407 218.882676 
L 613.74396 217.764057 
L 614.106514 220.538085 
L 614.831621 258.042777 
L 615.556727 287.427404 
L 615.919281 287.740056 
L 616.644388 254.777022 
L 618.094602 172.239714 
L 618.457155 173.403336 
L 618.819709 191.21966 
L 619.182262 195.452751 
L 619.544816 221.443835 
L 620.269923 243.696902 
L 620.632476 244.742536 
L 620.99503 244.649407 
L 621.720136 221.332253 
L 622.08269 204.540154 
L 622.445243 209.461822 
L 623.532904 247.470906 
L 624.258011 284.856419 
L 624.620564 278.636129 
L 625.345671 246.728715 
L 626.070778 197.060052 
L 626.795885 163.923703 
L 627.158438 169.180542 
L 627.520992 168.886109 
L 628.246099 211.535814 
L 628.608652 226.971557 
L 628.971206 232.60854 
L 629.333759 233.361388 
L 629.696313 230.734124 
L 630.783973 196.374175 
L 631.146527 208.330306 
L 631.50908 210.153337 
L 631.871634 223.037216 
L 632.234187 246.561035 
L 632.59674 256.448558 
L 632.959294 258.223607 
L 633.321847 268.733852 
L 633.684401 263.658263 
L 635.134615 162.012725 
L 635.497168 158.153888 
L 635.859722 166.122376 
L 636.222275 167.585059 
L 636.947382 196.6501 
L 637.309936 217.952389 
L 638.035043 231.318074 
L 638.397596 221.431305 
L 638.760149 218.838412 
L 639.122703 196.136177 
L 639.485256 203.455848 
L 639.84781 203.557666 
L 640.210363 199.461107 
L 640.93547 242.617882 
L 641.298024 253.871455 
L 641.660577 272.852546 
L 642.023131 261.098009 
L 642.385684 268.075059 
L 642.748238 236.500429 
L 643.110791 218.48769 
L 643.473345 191.585814 
L 644.198451 162.735225 
L 644.561005 159.940348 
L 644.923558 171.013733 
L 645.286112 187.636703 
L 645.648665 216.875505 
L 646.011219 214.037068 
L 646.373772 235.103803 
L 646.736326 237.605124 
L 647.098879 231.305507 
L 647.461433 234.873825 
L 647.823986 210.530225 
L 648.18654 210.947925 
L 648.549093 212.313959 
L 648.911647 218.808533 
L 649.999307 272.954592 
L 650.36186 281.789895 
L 650.724414 281.488078 
L 651.086967 276.797172 
L 651.449521 246.560322 
L 652.537181 189.058679 
L 652.899735 171.850863 
L 653.262288 176.653751 
L 653.624842 196.356939 
L 653.987395 203.818955 
L 654.349949 238.073275 
L 654.712502 246.44195 
L 655.075055 251.919043 
L 655.437609 254.704128 
L 655.800162 253.343188 
L 656.162716 239.647377 
L 656.525269 239.034061 
L 656.887823 237.929074 
L 657.250376 230.089742 
L 657.61293 230.346194 
L 658.70059 299.799604 
L 659.063144 300.584306 
L 659.425697 305.704701 
L 660.513358 265.110174 
L 661.238464 206.407931 
L 661.601018 199.283406 
L 661.963571 195.763783 
L 662.326125 222.53993 
L 663.776339 277.282996 
L 664.138892 283.726098 
L 664.501446 271.249825 
L 664.863999 266.830049 
L 665.226553 255.394016 
L 665.589106 247.706664 
L 665.95166 248.544511 
L 666.314213 262.98489 
L 666.676766 282.608414 
L 667.03932 290.741909 
L 667.764427 321.823765 
L 668.12698 321.098066 
L 669.214641 277.489066 
L 669.577194 255.251894 
L 669.939748 224.326574 
L 670.302301 217.345325 
L 670.664855 221.306323 
L 671.027408 230.956389 
L 672.115068 281.368093 
L 672.477622 285.466738 
L 672.840175 296.658135 
L 673.202729 274.319406 
L 673.565282 277.052238 
L 673.927836 270.121444 
L 674.290389 266.465199 
L 674.652943 260.886005 
L 675.37805 277.429924 
L 675.740603 297.965473 
L 676.828264 334.827052 
L 677.915924 273.946522 
L 678.278477 248.787318 
L 678.641031 236.837438 
L 679.003584 214.011693 
L 679.366138 219.463602 
L 680.091245 241.314024 
L 680.453798 265.251952 
L 680.816352 272.99854 
L 681.178905 289.057661 
L 681.541459 281.650907 
L 681.904012 278.117665 
L 682.266566 261.898297 
L 682.991673 253.769043 
L 683.354226 258.040365 
L 683.716779 256.090232 
L 684.80444 311.594231 
L 685.166993 322.362981 
L 685.529547 319.554094 
L 686.254654 287.599904 
L 686.617207 255.110608 
L 687.342314 215.978106 
L 687.704868 204.517719 
L 688.067421 205.80601 
L 688.429975 214.37133 
L 688.792528 238.615676 
L 689.517635 257.374413 
L 689.880188 272.753566 
L 690.242742 279.10518 
L 690.605295 264.696623 
L 690.967849 255.931486 
L 691.330402 250.749704 
L 691.692956 236.676276 
L 692.055509 242.122297 
L 692.780616 258.14632 
L 693.505723 299.451835 
L 693.868277 310.833517 
L 694.23083 316.20408 
L 694.593384 292.851525 
L 694.955937 288.644304 
L 695.31849 252.010786 
L 695.681044 227.533243 
L 696.043597 218.335749 
L 696.406151 192.128098 
L 696.768704 205.556807 
L 697.131258 197.548344 
L 697.493811 227.410691 
L 697.856365 247.313159 
L 698.581472 268.583117 
L 698.944025 268.157336 
L 699.306579 259.913402 
L 699.669132 245.692708 
L 700.031686 241.267184 
L 700.394239 240.144654 
L 700.756792 244.177857 
L 701.119346 250.479708 
L 701.481899 265.00392 
L 701.844453 287.108092 
L 702.56956 308.455926 
L 702.932113 305.140999 
L 703.294667 303.801238 
L 704.019774 254.550441 
L 704.382327 228.869181 
L 704.744881 219.583706 
L 705.107434 200.31121 
L 705.469988 199.826275 
L 707.282755 287.405858 
L 707.645308 282.194007 
L 708.007862 279.046692 
L 708.732969 252.367914 
L 709.095522 256.929605 
L 709.458076 246.488955 
L 709.820629 254.729857 
L 710.183183 267.777601 
L 710.545736 301.587583 
L 711.270843 329.830874 
L 711.99595 317.069787 
L 712.358503 293.69214 
L 712.721057 278.975462 
L 713.446164 236.688233 
L 713.808717 223.45729 
L 714.171271 221.280755 
L 714.533824 231.592628 
L 714.896378 256.962414 
L 715.621485 289.688883 
L 715.984038 299.293731 
L 716.346592 300.72005 
L 716.709145 297.598936 
L 717.071699 283.731383 
L 717.434252 280.080561 
L 717.796805 272.530317 
L 718.159359 276.868629 
L 718.521912 277.301735 
L 719.247019 311.444355 
L 719.609573 337.602157 
L 719.972126 343.881432 
L 720.33468 346.504122 
L 721.059787 321.073988 
L 721.784894 272.921637 
L 722.147447 253.420531 
L 722.510001 248.201301 
L 722.872554 247.092077 
L 723.597661 270.561861 
L 723.960214 293.064102 
L 724.322768 304.575279 
L 724.685321 310.360597 
L 725.047875 322.299411 
L 725.410428 312.617557 
L 725.772982 308.624197 
L 726.135535 297.954047 
L 726.498089 295.121149 
L 726.860642 296.408165 
L 727.223196 301.094101 
L 727.585749 321.421818 
L 727.948303 333.671214 
L 728.310856 354.831392 
L 728.673409 360.138783 
L 729.035963 361.47057 
L 729.398516 350.407587 
L 730.123623 315.763247 
L 731.211284 250.630889 
L 731.573837 255.530461 
L 731.936391 264.229976 
L 732.298944 278.779055 
L 733.024051 324.03657 
L 733.386605 332.071057 
L 733.749158 329.137038 
L 734.111712 320.371183 
L 734.474265 324.053655 
L 734.836818 309.993646 
L 735.561925 290.822493 
L 735.924479 311.157659 
L 736.649586 336.869181 
L 737.012139 359.276879 
L 737.374693 369.36 
L 737.737246 368.307254 
L 738.0998 357.528338 
L 738.824907 317.261779 
L 739.18746 285.842153 
L 739.550014 264.89276 
L 739.912567 264.504183 
L 740.27512 255.263983 
L 740.637674 259.796223 
L 741.000227 286.046987 
L 741.362781 298.114015 
L 741.725334 317.462784 
L 742.087888 328.17537 
L 742.450441 322.736864 
L 742.812995 323.045615 
L 743.538102 295.608163 
L 744.263209 293.29485 
L 744.625762 301.079557 
L 746.075976 366.174781 
L 746.438529 356.883924 
L 747.163636 330.660198 
L 747.163636 330.660198 
" style="fill:none;stroke:#1f77b4;stroke-linecap:square;stroke-width:1.5;"/>
   </g>
   <g id="line2d_18">
    <path clip-path="url(#p13fd3bc529)" d="M 745.713422 384.48 
L 745.713422 51.84 
" style="fill:none;stroke:#808080;stroke-linecap:square;"/>
   </g>
   <g id="patch_45">
    <path d="M 108 384.48 
L 108 51.84 
" style="fill:none;stroke:#000000;stroke-linecap:square;stroke-linejoin:miter;stroke-width:0.8;"/>
   </g>
   <g id="patch_46">
    <path d="M 777.6 384.48 
L 777.6 51.84 
" style="fill:none;stroke:#000000;stroke-linecap:square;stroke-linejoin:miter;stroke-width:0.8;"/>
   </g>
   <g id="patch_47">
    <path d="M 108 384.48 
L 777.6 384.48 
" style="fill:none;stroke:#000000;stroke-linecap:square;stroke-linejoin:miter;stroke-width:0.8;"/>
   </g>
   <g id="patch_48">
    <path d="M 108 51.84 
L 777.6 51.84 
" style="fill:none;stroke:#000000;stroke-linecap:square;stroke-linejoin:miter;stroke-width:0.8;"/>
   </g>
   <g id="text_19">
    <!-- A4Benchmark-TS53.csv -->
    <defs>
     <path d="M 34.1875 63.1875 
L 20.796875 26.90625 
L 47.609375 26.90625 
z
M 28.609375 72.90625 
L 39.796875 72.90625 
L 67.578125 0 
L 57.328125 0 
L 50.6875 18.703125 
L 17.828125 18.703125 
L 11.1875 0 
L 0.78125 0 
z
" id="DejaVuSans-65"/>
     <path d="M 37.796875 64.3125 
L 12.890625 25.390625 
L 37.796875 25.390625 
z
M 35.203125 72.90625 
L 47.609375 72.90625 
L 47.609375 25.390625 
L 58.015625 25.390625 
L 58.015625 17.1875 
L 47.609375 17.1875 
L 47.609375 0 
L 37.796875 0 
L 37.796875 17.1875 
L 4.890625 17.1875 
L 4.890625 26.703125 
z
" id="DejaVuSans-52"/>
     <path d="M 19.671875 34.8125 
L 19.671875 8.109375 
L 35.5 8.109375 
Q 43.453125 8.109375 47.28125 11.40625 
Q 51.125 14.703125 51.125 21.484375 
Q 51.125 28.328125 47.28125 31.5625 
Q 43.453125 34.8125 35.5 34.8125 
z
M 19.671875 64.796875 
L 19.671875 42.828125 
L 34.28125 42.828125 
Q 41.5 42.828125 45.03125 45.53125 
Q 48.578125 48.25 48.578125 53.8125 
Q 48.578125 59.328125 45.03125 62.0625 
Q 41.5 64.796875 34.28125 64.796875 
z
M 9.8125 72.90625 
L 35.015625 72.90625 
Q 46.296875 72.90625 52.390625 68.21875 
Q 58.5 63.53125 58.5 54.890625 
Q 58.5 48.1875 55.375 44.234375 
Q 52.25 40.28125 46.1875 39.3125 
Q 53.46875 37.75 57.5 32.78125 
Q 61.53125 27.828125 61.53125 20.40625 
Q 61.53125 10.640625 54.890625 5.3125 
Q 48.25 0 35.984375 0 
L 9.8125 0 
z
" id="DejaVuSans-66"/>
     <path d="M 54.890625 33.015625 
L 54.890625 0 
L 45.90625 0 
L 45.90625 32.71875 
Q 45.90625 40.484375 42.875 44.328125 
Q 39.84375 48.1875 33.796875 48.1875 
Q 26.515625 48.1875 22.3125 43.546875 
Q 18.109375 38.921875 18.109375 30.90625 
L 18.109375 0 
L 9.078125 0 
L 9.078125 54.6875 
L 18.109375 54.6875 
L 18.109375 46.1875 
Q 21.34375 51.125 25.703125 53.5625 
Q 30.078125 56 35.796875 56 
Q 45.21875 56 50.046875 50.171875 
Q 54.890625 44.34375 54.890625 33.015625 
z
" id="DejaVuSans-110"/>
     <path d="M 48.78125 52.59375 
L 48.78125 44.1875 
Q 44.96875 46.296875 41.140625 47.34375 
Q 37.3125 48.390625 33.40625 48.390625 
Q 24.65625 48.390625 19.8125 42.84375 
Q 14.984375 37.3125 14.984375 27.296875 
Q 14.984375 17.28125 19.8125 11.734375 
Q 24.65625 6.203125 33.40625 6.203125 
Q 37.3125 6.203125 41.140625 7.25 
Q 44.96875 8.296875 48.78125 10.40625 
L 48.78125 2.09375 
Q 45.015625 0.34375 40.984375 -0.53125 
Q 36.96875 -1.421875 32.421875 -1.421875 
Q 20.0625 -1.421875 12.78125 6.34375 
Q 5.515625 14.109375 5.515625 27.296875 
Q 5.515625 40.671875 12.859375 48.328125 
Q 20.21875 56 33.015625 56 
Q 37.15625 56 41.109375 55.140625 
Q 45.0625 54.296875 48.78125 52.59375 
z
" id="DejaVuSans-99"/>
     <path d="M 54.890625 33.015625 
L 54.890625 0 
L 45.90625 0 
L 45.90625 32.71875 
Q 45.90625 40.484375 42.875 44.328125 
Q 39.84375 48.1875 33.796875 48.1875 
Q 26.515625 48.1875 22.3125 43.546875 
Q 18.109375 38.921875 18.109375 30.90625 
L 18.109375 0 
L 9.078125 0 
L 9.078125 75.984375 
L 18.109375 75.984375 
L 18.109375 46.1875 
Q 21.34375 51.125 25.703125 53.5625 
Q 30.078125 56 35.796875 56 
Q 45.21875 56 50.046875 50.171875 
Q 54.890625 44.34375 54.890625 33.015625 
z
" id="DejaVuSans-104"/>
     <path d="M 41.109375 46.296875 
Q 39.59375 47.171875 37.8125 47.578125 
Q 36.03125 48 33.890625 48 
Q 26.265625 48 22.1875 43.046875 
Q 18.109375 38.09375 18.109375 28.8125 
L 18.109375 0 
L 9.078125 0 
L 9.078125 54.6875 
L 18.109375 54.6875 
L 18.109375 46.1875 
Q 20.953125 51.171875 25.484375 53.578125 
Q 30.03125 56 36.53125 56 
Q 37.453125 56 38.578125 55.875 
Q 39.703125 55.765625 41.0625 55.515625 
z
" id="DejaVuSans-114"/>
     <path d="M 9.078125 75.984375 
L 18.109375 75.984375 
L 18.109375 31.109375 
L 44.921875 54.6875 
L 56.390625 54.6875 
L 27.390625 29.109375 
L 57.625 0 
L 45.90625 0 
L 18.109375 26.703125 
L 18.109375 0 
L 9.078125 0 
z
" id="DejaVuSans-107"/>
     <path d="M 4.890625 31.390625 
L 31.203125 31.390625 
L 31.203125 23.390625 
L 4.890625 23.390625 
z
" id="DejaVuSans-45"/>
     <path d="M 53.515625 70.515625 
L 53.515625 60.890625 
Q 47.90625 63.578125 42.921875 64.890625 
Q 37.9375 66.21875 33.296875 66.21875 
Q 25.25 66.21875 20.875 63.09375 
Q 16.5 59.96875 16.5 54.203125 
Q 16.5 49.359375 19.40625 46.890625 
Q 22.3125 44.4375 30.421875 42.921875 
L 36.375 41.703125 
Q 47.40625 39.59375 52.65625 34.296875 
Q 57.90625 29 57.90625 20.125 
Q 57.90625 9.515625 50.796875 4.046875 
Q 43.703125 -1.421875 29.984375 -1.421875 
Q 24.8125 -1.421875 18.96875 -0.25 
Q 13.140625 0.921875 6.890625 3.21875 
L 6.890625 13.375 
Q 12.890625 10.015625 18.65625 8.296875 
Q 24.421875 6.59375 29.984375 6.59375 
Q 38.421875 6.59375 43.015625 9.90625 
Q 47.609375 13.234375 47.609375 19.390625 
Q 47.609375 24.75 44.3125 27.78125 
Q 41.015625 30.8125 33.5 32.328125 
L 27.484375 33.5 
Q 16.453125 35.6875 11.515625 40.375 
Q 6.59375 45.0625 6.59375 53.421875 
Q 6.59375 63.09375 13.40625 68.65625 
Q 20.21875 74.21875 32.171875 74.21875 
Q 37.3125 74.21875 42.625 73.28125 
Q 47.953125 72.359375 53.515625 70.515625 
z
" id="DejaVuSans-83"/>
     <path d="M 40.578125 39.3125 
Q 47.65625 37.796875 51.625 33 
Q 55.609375 28.21875 55.609375 21.1875 
Q 55.609375 10.40625 48.1875 4.484375 
Q 40.765625 -1.421875 27.09375 -1.421875 
Q 22.515625 -1.421875 17.65625 -0.515625 
Q 12.796875 0.390625 7.625 2.203125 
L 7.625 11.71875 
Q 11.71875 9.328125 16.59375 8.109375 
Q 21.484375 6.890625 26.8125 6.890625 
Q 36.078125 6.890625 40.9375 10.546875 
Q 45.796875 14.203125 45.796875 21.1875 
Q 45.796875 27.640625 41.28125 31.265625 
Q 36.765625 34.90625 28.71875 34.90625 
L 20.21875 34.90625 
L 20.21875 43.015625 
L 29.109375 43.015625 
Q 36.375 43.015625 40.234375 45.921875 
Q 44.09375 48.828125 44.09375 54.296875 
Q 44.09375 59.90625 40.109375 62.90625 
Q 36.140625 65.921875 28.71875 65.921875 
Q 24.65625 65.921875 20.015625 65.03125 
Q 15.375 64.15625 9.8125 62.3125 
L 9.8125 71.09375 
Q 15.4375 72.65625 20.34375 73.4375 
Q 25.25 74.21875 29.59375 74.21875 
Q 40.828125 74.21875 47.359375 69.109375 
Q 53.90625 64.015625 53.90625 55.328125 
Q 53.90625 49.265625 50.4375 45.09375 
Q 46.96875 40.921875 40.578125 39.3125 
z
" id="DejaVuSans-51"/>
     <path d="M 10.6875 12.40625 
L 21 12.40625 
L 21 0 
L 10.6875 0 
z
" id="DejaVuSans-46"/>
     <path d="M 2.984375 54.6875 
L 12.5 54.6875 
L 29.59375 8.796875 
L 46.6875 54.6875 
L 56.203125 54.6875 
L 35.6875 0 
L 23.484375 0 
z
" id="DejaVuSans-118"/>
    </defs>
    <g transform="translate(371.555625 45.84)scale(0.12 -0.12)">
     <use xlink:href="#DejaVuSans-65"/>
     <use x="68.408203" xlink:href="#DejaVuSans-52"/>
     <use x="132.03125" xlink:href="#DejaVuSans-66"/>
     <use x="200.634766" xlink:href="#DejaVuSans-101"/>
     <use x="262.158203" xlink:href="#DejaVuSans-110"/>
     <use x="325.537109" xlink:href="#DejaVuSans-99"/>
     <use x="380.517578" xlink:href="#DejaVuSans-104"/>
     <use x="443.896484" xlink:href="#DejaVuSans-109"/>
     <use x="541.308594" xlink:href="#DejaVuSans-97"/>
     <use x="602.587891" xlink:href="#DejaVuSans-114"/>
     <use x="643.701172" xlink:href="#DejaVuSans-107"/>
     <use x="701.611328" xlink:href="#DejaVuSans-45"/>
     <use x="737.554688" xlink:href="#DejaVuSans-84"/>
     <use x="798.638672" xlink:href="#DejaVuSans-83"/>
     <use x="862.115234" xlink:href="#DejaVuSans-53"/>
     <use x="925.738281" xlink:href="#DejaVuSans-51"/>
     <use x="989.361328" xlink:href="#DejaVuSans-46"/>
     <use x="1021.148438" xlink:href="#DejaVuSans-99"/>
     <use x="1076.128906" xlink:href="#DejaVuSans-115"/>
     <use x="1128.228516" xlink:href="#DejaVuSans-118"/>
    </g>
   </g>
   <g id="legend_1">
    <g id="patch_49">
     <path d="M 115 74.518125 
L 174.315625 74.518125 
Q 176.315625 74.518125 176.315625 72.518125 
L 176.315625 58.84 
Q 176.315625 56.84 174.315625 56.84 
L 115 56.84 
Q 113 56.84 113 58.84 
L 113 72.518125 
Q 113 74.518125 115 74.518125 
z
" style="fill:#ffffff;opacity:0.8;stroke:#cccccc;stroke-linejoin:miter;"/>
    </g>
    <g id="line2d_19">
     <path d="M 117 64.938438 
L 137 64.938438 
" style="fill:none;stroke:#1f77b4;stroke-linecap:square;stroke-width:1.5;"/>
    </g>
    <g id="line2d_20"/>
    <g id="text_20">
     <!-- value -->
     <g transform="translate(145 68.438438)scale(0.1 -0.1)">
      <use xlink:href="#DejaVuSans-118"/>
      <use x="59.179688" xlink:href="#DejaVuSans-97"/>
      <use x="120.458984" xlink:href="#DejaVuSans-108"/>
      <use x="148.242188" xlink:href="#DejaVuSans-117"/>
      <use x="211.621094" xlink:href="#DejaVuSans-101"/>
     </g>
    </g>
   </g>
  </g>
 </g>
 <defs>
  <clipPath id="p13fd3bc529">
   <rect height="332.64" width="669.6" x="108" y="51.84"/>
  </clipPath>
 </defs>
</svg>
