<?xml version="1.0" encoding="utf-8" standalone="no"?>
<!DOCTYPE svg PUBLIC "-//W3C//DTD SVG 1.1//EN"
  "http://www.w3.org/Graphics/SVG/1.1/DTD/svg11.dtd">
<!-- Created with matplotlib (https://matplotlib.org/) -->
<svg height="432pt" version="1.1" viewBox="0 0 864 432" width="864pt" xmlns="http://www.w3.org/2000/svg" xmlns:xlink="http://www.w3.org/1999/xlink">
 <defs>
  <style type="text/css">
*{stroke-linecap:butt;stroke-linejoin:round;}
  </style>
 </defs>
 <g id="figure_1">
  <g id="patch_1">
   <path d="M 0 432 
L 864 432 
L 864 0 
L 0 0 
z
" style="fill:#ffffff;"/>
  </g>
  <g id="axes_1">
   <g id="patch_2">
    <path d="M 108 384.48 
L 777.6 384.48 
L 777.6 51.84 
L 108 51.84 
z
" style="fill:#ffffff;"/>
   </g>
   <g id="patch_3">
    <path clip-path="url(#p092ba5b6b0)" d="M 138.436364 384.48 
L 138.436364 51.84 
L 196.41039 51.84 
L 196.41039 384.48 
z
" style="fill:#0000ff;opacity:0.05;"/>
   </g>
   <g id="patch_4">
    <path clip-path="url(#p092ba5b6b0)" d="M 196.41039 384.48 
L 196.41039 51.84 
L 747.163636 51.84 
L 747.163636 384.48 
z
" style="fill:#ff0000;opacity:0.08;"/>
   </g>
   <g id="patch_5">
    <path clip-path="url(#p092ba5b6b0)" d="M 138.436364 384.48 
L 138.436364 51.84 
L 142.05974 51.84 
L 142.05974 384.48 
z
" style="fill:#008000;opacity:0.04;"/>
   </g>
   <g id="patch_6">
    <path clip-path="url(#p092ba5b6b0)" d="M 145.683117 384.48 
L 145.683117 51.84 
L 149.306494 51.84 
L 149.306494 384.48 
z
" style="fill:#008000;opacity:0.04;"/>
   </g>
   <g id="patch_7">
    <path clip-path="url(#p092ba5b6b0)" d="M 145.683117 384.48 
L 145.683117 371.1744 
L 149.306494 371.1744 
L 149.306494 384.48 
z
" style="fill:#ffe500;"/>
   </g>
   <g id="patch_8">
    <path clip-path="url(#p092ba5b6b0)" d="M 152.92987 384.48 
L 152.92987 51.84 
L 156.553247 51.84 
L 156.553247 384.48 
z
" style="fill:#008000;opacity:0.04;"/>
   </g>
   <g id="patch_9">
    <path clip-path="url(#p092ba5b6b0)" d="M 160.176623 384.48 
L 160.176623 51.84 
L 163.8 51.84 
L 163.8 384.48 
z
" style="fill:#008000;opacity:0.04;"/>
   </g>
   <g id="patch_10">
    <path clip-path="url(#p092ba5b6b0)" d="M 167.423377 384.48 
L 167.423377 51.84 
L 171.046753 51.84 
L 171.046753 384.48 
z
" style="fill:#008000;opacity:0.04;"/>
   </g>
   <g id="patch_11">
    <path clip-path="url(#p092ba5b6b0)" d="M 174.67013 384.48 
L 174.67013 51.84 
L 178.293506 51.84 
L 178.293506 384.48 
z
" style="fill:#008000;opacity:0.04;"/>
   </g>
   <g id="patch_12">
    <path clip-path="url(#p092ba5b6b0)" d="M 181.916883 384.48 
L 181.916883 51.84 
L 185.54026 51.84 
L 185.54026 384.48 
z
" style="fill:#008000;opacity:0.04;"/>
   </g>
   <g id="patch_13">
    <path clip-path="url(#p092ba5b6b0)" d="M 239.890909 384.48 
L 239.890909 371.1744 
L 243.514286 371.1744 
L 243.514286 384.48 
z
" style="fill:#ff6600;"/>
   </g>
   <g id="patch_14">
    <path clip-path="url(#p092ba5b6b0)" d="M 189.163636 384.48 
L 189.163636 51.84 
L 192.787013 51.84 
L 192.787013 384.48 
z
" style="fill:#008000;opacity:0.04;"/>
   </g>
   <g id="patch_15">
    <path clip-path="url(#p092ba5b6b0)" d="M 196.41039 384.48 
L 196.41039 51.84 
L 200.033766 51.84 
L 200.033766 384.48 
z
" style="fill:#008000;opacity:0.04;"/>
   </g>
   <g id="patch_16">
    <path clip-path="url(#p092ba5b6b0)" d="M 203.657143 384.48 
L 203.657143 51.84 
L 207.280519 51.84 
L 207.280519 384.48 
z
" style="fill:#008000;opacity:0.04;"/>
   </g>
   <g id="patch_17">
    <path clip-path="url(#p092ba5b6b0)" d="M 210.903896 384.48 
L 210.903896 51.84 
L 214.527273 51.84 
L 214.527273 384.48 
z
" style="fill:#008000;opacity:0.04;"/>
   </g>
   <g id="patch_18">
    <path clip-path="url(#p092ba5b6b0)" d="M 218.150649 384.48 
L 218.150649 51.84 
L 221.774026 51.84 
L 221.774026 384.48 
z
" style="fill:#008000;opacity:0.04;"/>
   </g>
   <g id="patch_19">
    <path clip-path="url(#p092ba5b6b0)" d="M 225.397403 384.48 
L 225.397403 51.84 
L 229.020779 51.84 
L 229.020779 384.48 
z
" style="fill:#008000;opacity:0.04;"/>
   </g>
   <g id="patch_20">
    <path clip-path="url(#p092ba5b6b0)" d="M 232.644156 384.48 
L 232.644156 51.84 
L 236.267532 51.84 
L 236.267532 384.48 
z
" style="fill:#008000;opacity:0.04;"/>
   </g>
   <g id="patch_21">
    <path clip-path="url(#p092ba5b6b0)" d="M 290.618182 384.48 
L 290.618182 371.1744 
L 294.241558 371.1744 
L 294.241558 384.48 
z
" style="fill:#ff6600;"/>
   </g>
   <g id="patch_22">
    <path clip-path="url(#p092ba5b6b0)" d="M 294.241558 384.48 
L 294.241558 371.1744 
L 297.864935 371.1744 
L 297.864935 384.48 
z
" style="fill:#ff6600;"/>
   </g>
   <g id="patch_23">
    <path clip-path="url(#p092ba5b6b0)" d="M 239.890909 384.48 
L 239.890909 51.84 
L 243.514286 51.84 
L 243.514286 384.48 
z
" style="fill:#008000;opacity:0.04;"/>
   </g>
   <g id="patch_24">
    <path clip-path="url(#p092ba5b6b0)" d="M 247.137662 384.48 
L 247.137662 51.84 
L 250.761039 51.84 
L 250.761039 384.48 
z
" style="fill:#008000;opacity:0.04;"/>
   </g>
   <g id="patch_25">
    <path clip-path="url(#p092ba5b6b0)" d="M 254.384416 384.48 
L 254.384416 51.84 
L 258.007792 51.84 
L 258.007792 384.48 
z
" style="fill:#008000;opacity:0.04;"/>
   </g>
   <g id="patch_26">
    <path clip-path="url(#p092ba5b6b0)" d="M 261.631169 384.48 
L 261.631169 51.84 
L 265.254545 51.84 
L 265.254545 384.48 
z
" style="fill:#008000;opacity:0.04;"/>
   </g>
   <g id="patch_27">
    <path clip-path="url(#p092ba5b6b0)" d="M 268.877922 384.48 
L 268.877922 51.84 
L 272.501299 51.84 
L 272.501299 384.48 
z
" style="fill:#008000;opacity:0.04;"/>
   </g>
   <g id="patch_28">
    <path clip-path="url(#p092ba5b6b0)" d="M 276.124675 384.48 
L 276.124675 51.84 
L 279.748052 51.84 
L 279.748052 384.48 
z
" style="fill:#008000;opacity:0.04;"/>
   </g>
   <g id="patch_29">
    <path clip-path="url(#p092ba5b6b0)" d="M 283.371429 384.48 
L 283.371429 51.84 
L 286.994805 51.84 
L 286.994805 384.48 
z
" style="fill:#008000;opacity:0.04;"/>
   </g>
   <g id="patch_30">
    <path clip-path="url(#p092ba5b6b0)" d="M 286.994805 371.1744 
L 286.994805 357.8688 
L 290.618182 357.8688 
L 290.618182 371.1744 
z
" style="fill:#ff00ff;"/>
   </g>
   <g id="patch_31">
    <path clip-path="url(#p092ba5b6b0)" d="M 290.618182 384.48 
L 290.618182 51.84 
L 294.241558 51.84 
L 294.241558 384.48 
z
" style="fill:#008000;opacity:0.04;"/>
   </g>
   <g id="patch_32">
    <path clip-path="url(#p092ba5b6b0)" d="M 290.618182 371.1744 
L 290.618182 51.84 
L 294.241558 51.84 
L 294.241558 371.1744 
z
" style="fill:#008000;opacity:0.5;"/>
   </g>
   <g id="patch_33">
    <path clip-path="url(#p092ba5b6b0)" d="M 297.864935 384.48 
L 297.864935 51.84 
L 301.488312 51.84 
L 301.488312 384.48 
z
" style="fill:#008000;opacity:0.04;"/>
   </g>
   <g id="patch_34">
    <path clip-path="url(#p092ba5b6b0)" d="M 305.111688 384.48 
L 305.111688 51.84 
L 308.735065 51.84 
L 308.735065 384.48 
z
" style="fill:#008000;opacity:0.04;"/>
   </g>
   <g id="patch_35">
    <path clip-path="url(#p092ba5b6b0)" d="M 366.709091 384.48 
L 366.709091 371.1744 
L 370.332468 371.1744 
L 370.332468 384.48 
z
" style="fill:#ff6600;"/>
   </g>
   <g id="patch_36">
    <path clip-path="url(#p092ba5b6b0)" d="M 312.358442 384.48 
L 312.358442 51.84 
L 315.981818 51.84 
L 315.981818 384.48 
z
" style="fill:#008000;opacity:0.04;"/>
   </g>
   <g id="patch_37">
    <path clip-path="url(#p092ba5b6b0)" d="M 370.332468 384.48 
L 370.332468 371.1744 
L 373.955844 371.1744 
L 373.955844 384.48 
z
" style="fill:#ff6600;"/>
   </g>
   <g id="patch_38">
    <path clip-path="url(#p092ba5b6b0)" d="M 373.955844 384.48 
L 373.955844 371.1744 
L 377.579221 371.1744 
L 377.579221 384.48 
z
" style="fill:#ff6600;"/>
   </g>
   <g id="patch_39">
    <path clip-path="url(#p092ba5b6b0)" d="M 319.605195 384.48 
L 319.605195 51.84 
L 323.228571 51.84 
L 323.228571 384.48 
z
" style="fill:#008000;opacity:0.04;"/>
   </g>
   <g id="patch_40">
    <path clip-path="url(#p092ba5b6b0)" d="M 326.851948 384.48 
L 326.851948 51.84 
L 330.475325 51.84 
L 330.475325 384.48 
z
" style="fill:#008000;opacity:0.04;"/>
   </g>
   <g id="patch_41">
    <path clip-path="url(#p092ba5b6b0)" d="M 334.098701 384.48 
L 334.098701 51.84 
L 337.722078 51.84 
L 337.722078 384.48 
z
" style="fill:#008000;opacity:0.04;"/>
   </g>
   <g id="patch_42">
    <path clip-path="url(#p092ba5b6b0)" d="M 341.345455 384.48 
L 341.345455 51.84 
L 344.968831 51.84 
L 344.968831 384.48 
z
" style="fill:#008000;opacity:0.04;"/>
   </g>
   <g id="patch_43">
    <path clip-path="url(#p092ba5b6b0)" d="M 348.592208 384.48 
L 348.592208 51.84 
L 352.215584 51.84 
L 352.215584 384.48 
z
" style="fill:#008000;opacity:0.04;"/>
   </g>
   <g id="patch_44">
    <path clip-path="url(#p092ba5b6b0)" d="M 355.838961 384.48 
L 355.838961 51.84 
L 359.462338 51.84 
L 359.462338 384.48 
z
" style="fill:#008000;opacity:0.04;"/>
   </g>
   <g id="patch_45">
    <path clip-path="url(#p092ba5b6b0)" d="M 363.085714 384.48 
L 363.085714 51.84 
L 366.709091 51.84 
L 366.709091 384.48 
z
" style="fill:#008000;opacity:0.04;"/>
   </g>
   <g id="patch_46">
    <path clip-path="url(#p092ba5b6b0)" d="M 363.085714 371.1744 
L 363.085714 357.8688 
L 366.709091 357.8688 
L 366.709091 371.1744 
z
" style="fill:#ff00ff;"/>
   </g>
   <g id="patch_47">
    <path clip-path="url(#p092ba5b6b0)" d="M 366.709091 371.1744 
L 366.709091 51.84 
L 370.332468 51.84 
L 370.332468 371.1744 
z
" style="fill:#008000;opacity:0.5;"/>
   </g>
   <g id="patch_48">
    <path clip-path="url(#p092ba5b6b0)" d="M 370.332468 384.48 
L 370.332468 51.84 
L 373.955844 51.84 
L 373.955844 384.48 
z
" style="fill:#008000;opacity:0.04;"/>
   </g>
   <g id="patch_49">
    <path clip-path="url(#p092ba5b6b0)" d="M 377.579221 384.48 
L 377.579221 51.84 
L 381.202597 51.84 
L 381.202597 384.48 
z
" style="fill:#008000;opacity:0.04;"/>
   </g>
   <g id="patch_50">
    <path clip-path="url(#p092ba5b6b0)" d="M 384.825974 384.48 
L 384.825974 51.84 
L 388.449351 51.84 
L 388.449351 384.48 
z
" style="fill:#008000;opacity:0.04;"/>
   </g>
   <g id="patch_51">
    <path clip-path="url(#p092ba5b6b0)" d="M 442.8 384.48 
L 442.8 371.1744 
L 446.423377 371.1744 
L 446.423377 384.48 
z
" style="fill:#ff6600;"/>
   </g>
   <g id="patch_52">
    <path clip-path="url(#p092ba5b6b0)" d="M 446.423377 384.48 
L 446.423377 371.1744 
L 450.046753 371.1744 
L 450.046753 384.48 
z
" style="fill:#ff6600;"/>
   </g>
   <g id="patch_53">
    <path clip-path="url(#p092ba5b6b0)" d="M 392.072727 384.48 
L 392.072727 51.84 
L 395.696104 51.84 
L 395.696104 384.48 
z
" style="fill:#008000;opacity:0.04;"/>
   </g>
   <g id="patch_54">
    <path clip-path="url(#p092ba5b6b0)" d="M 399.319481 384.48 
L 399.319481 51.84 
L 402.942857 51.84 
L 402.942857 384.48 
z
" style="fill:#008000;opacity:0.04;"/>
   </g>
   <g id="patch_55">
    <path clip-path="url(#p092ba5b6b0)" d="M 406.566234 384.48 
L 406.566234 51.84 
L 410.18961 51.84 
L 410.18961 384.48 
z
" style="fill:#008000;opacity:0.04;"/>
   </g>
   <g id="patch_56">
    <path clip-path="url(#p092ba5b6b0)" d="M 413.812987 384.48 
L 413.812987 51.84 
L 417.436364 51.84 
L 417.436364 384.48 
z
" style="fill:#008000;opacity:0.04;"/>
   </g>
   <g id="patch_57">
    <path clip-path="url(#p092ba5b6b0)" d="M 421.05974 384.48 
L 421.05974 51.84 
L 424.683117 51.84 
L 424.683117 384.48 
z
" style="fill:#008000;opacity:0.04;"/>
   </g>
   <g id="patch_58">
    <path clip-path="url(#p092ba5b6b0)" d="M 428.306494 384.48 
L 428.306494 51.84 
L 431.92987 51.84 
L 431.92987 384.48 
z
" style="fill:#008000;opacity:0.04;"/>
   </g>
   <g id="patch_59">
    <path clip-path="url(#p092ba5b6b0)" d="M 435.553247 384.48 
L 435.553247 51.84 
L 439.176623 51.84 
L 439.176623 384.48 
z
" style="fill:#008000;opacity:0.04;"/>
   </g>
   <g id="patch_60">
    <path clip-path="url(#p092ba5b6b0)" d="M 439.176623 371.1744 
L 439.176623 357.8688 
L 442.8 357.8688 
L 442.8 371.1744 
z
" style="fill:#ff00ff;"/>
   </g>
   <g id="patch_61">
    <path clip-path="url(#p092ba5b6b0)" d="M 442.8 384.48 
L 442.8 51.84 
L 446.423377 51.84 
L 446.423377 384.48 
z
" style="fill:#008000;opacity:0.04;"/>
   </g>
   <g id="patch_62">
    <path clip-path="url(#p092ba5b6b0)" d="M 450.046753 384.48 
L 450.046753 51.84 
L 453.67013 51.84 
L 453.67013 384.48 
z
" style="fill:#008000;opacity:0.04;"/>
   </g>
   <g id="patch_63">
    <path clip-path="url(#p092ba5b6b0)" d="M 457.293506 384.48 
L 457.293506 51.84 
L 460.916883 51.84 
L 460.916883 384.48 
z
" style="fill:#008000;opacity:0.04;"/>
   </g>
   <g id="patch_64">
    <path clip-path="url(#p092ba5b6b0)" d="M 518.890909 384.48 
L 518.890909 371.1744 
L 522.514286 371.1744 
L 522.514286 384.48 
z
" style="fill:#ff6600;"/>
   </g>
   <g id="patch_65">
    <path clip-path="url(#p092ba5b6b0)" d="M 464.54026 384.48 
L 464.54026 51.84 
L 468.163636 51.84 
L 468.163636 384.48 
z
" style="fill:#008000;opacity:0.04;"/>
   </g>
   <g id="patch_66">
    <path clip-path="url(#p092ba5b6b0)" d="M 522.514286 384.48 
L 522.514286 371.1744 
L 526.137662 371.1744 
L 526.137662 384.48 
z
" style="fill:#ff6600;"/>
   </g>
   <g id="patch_67">
    <path clip-path="url(#p092ba5b6b0)" d="M 471.787013 384.48 
L 471.787013 51.84 
L 475.41039 51.84 
L 475.41039 384.48 
z
" style="fill:#008000;opacity:0.04;"/>
   </g>
   <g id="patch_68">
    <path clip-path="url(#p092ba5b6b0)" d="M 479.033766 384.48 
L 479.033766 51.84 
L 482.657143 51.84 
L 482.657143 384.48 
z
" style="fill:#008000;opacity:0.04;"/>
   </g>
   <g id="patch_69">
    <path clip-path="url(#p092ba5b6b0)" d="M 486.280519 384.48 
L 486.280519 51.84 
L 489.903896 51.84 
L 489.903896 384.48 
z
" style="fill:#008000;opacity:0.04;"/>
   </g>
   <g id="patch_70">
    <path clip-path="url(#p092ba5b6b0)" d="M 493.527273 384.48 
L 493.527273 51.84 
L 497.150649 51.84 
L 497.150649 384.48 
z
" style="fill:#008000;opacity:0.04;"/>
   </g>
   <g id="patch_71">
    <path clip-path="url(#p092ba5b6b0)" d="M 500.774026 384.48 
L 500.774026 51.84 
L 504.397403 51.84 
L 504.397403 384.48 
z
" style="fill:#008000;opacity:0.04;"/>
   </g>
   <g id="patch_72">
    <path clip-path="url(#p092ba5b6b0)" d="M 508.020779 384.48 
L 508.020779 51.84 
L 511.644156 51.84 
L 511.644156 384.48 
z
" style="fill:#008000;opacity:0.04;"/>
   </g>
   <g id="patch_73">
    <path clip-path="url(#p092ba5b6b0)" d="M 515.267532 384.48 
L 515.267532 51.84 
L 518.890909 51.84 
L 518.890909 384.48 
z
" style="fill:#008000;opacity:0.04;"/>
   </g>
   <g id="patch_74">
    <path clip-path="url(#p092ba5b6b0)" d="M 515.267532 371.1744 
L 515.267532 357.8688 
L 518.890909 357.8688 
L 518.890909 371.1744 
z
" style="fill:#ff00ff;"/>
   </g>
   <g id="patch_75">
    <path clip-path="url(#p092ba5b6b0)" d="M 522.514286 384.48 
L 522.514286 51.84 
L 526.137662 51.84 
L 526.137662 384.48 
z
" style="fill:#008000;opacity:0.04;"/>
   </g>
   <g id="patch_76">
    <path clip-path="url(#p092ba5b6b0)" d="M 529.761039 384.48 
L 529.761039 51.84 
L 533.384416 51.84 
L 533.384416 384.48 
z
" style="fill:#008000;opacity:0.04;"/>
   </g>
   <g id="patch_77">
    <path clip-path="url(#p092ba5b6b0)" d="M 537.007792 384.48 
L 537.007792 51.84 
L 540.631169 51.84 
L 540.631169 384.48 
z
" style="fill:#008000;opacity:0.04;"/>
   </g>
   <g id="patch_78">
    <path clip-path="url(#p092ba5b6b0)" d="M 544.254545 384.48 
L 544.254545 51.84 
L 547.877922 51.84 
L 547.877922 384.48 
z
" style="fill:#008000;opacity:0.04;"/>
   </g>
   <g id="patch_79">
    <path clip-path="url(#p092ba5b6b0)" d="M 551.501299 384.48 
L 551.501299 51.84 
L 555.124675 51.84 
L 555.124675 384.48 
z
" style="fill:#008000;opacity:0.04;"/>
   </g>
   <g id="patch_80">
    <path clip-path="url(#p092ba5b6b0)" d="M 551.501299 371.1744 
L 551.501299 51.84 
L 555.124675 51.84 
L 555.124675 371.1744 
z
" style="fill:#008000;opacity:0.5;"/>
   </g>
   <g id="patch_81">
    <path clip-path="url(#p092ba5b6b0)" d="M 558.748052 384.48 
L 558.748052 51.84 
L 562.371429 51.84 
L 562.371429 384.48 
z
" style="fill:#008000;opacity:0.04;"/>
   </g>
   <g id="patch_82">
    <path clip-path="url(#p092ba5b6b0)" d="M 565.994805 384.48 
L 565.994805 51.84 
L 569.618182 51.84 
L 569.618182 384.48 
z
" style="fill:#008000;opacity:0.04;"/>
   </g>
   <g id="patch_83">
    <path clip-path="url(#p092ba5b6b0)" d="M 573.241558 384.48 
L 573.241558 51.84 
L 576.864935 51.84 
L 576.864935 384.48 
z
" style="fill:#008000;opacity:0.04;"/>
   </g>
   <g id="patch_84">
    <path clip-path="url(#p092ba5b6b0)" d="M 580.488312 384.48 
L 580.488312 51.84 
L 584.111688 51.84 
L 584.111688 384.48 
z
" style="fill:#008000;opacity:0.04;"/>
   </g>
   <g id="patch_85">
    <path clip-path="url(#p092ba5b6b0)" d="M 587.735065 384.48 
L 587.735065 51.84 
L 591.358442 51.84 
L 591.358442 384.48 
z
" style="fill:#008000;opacity:0.04;"/>
   </g>
   <g id="patch_86">
    <path clip-path="url(#p092ba5b6b0)" d="M 594.981818 384.48 
L 594.981818 51.84 
L 598.605195 51.84 
L 598.605195 384.48 
z
" style="fill:#008000;opacity:0.04;"/>
   </g>
   <g id="patch_87">
    <path clip-path="url(#p092ba5b6b0)" d="M 602.228571 384.48 
L 602.228571 51.84 
L 605.851948 51.84 
L 605.851948 384.48 
z
" style="fill:#008000;opacity:0.04;"/>
   </g>
   <g id="patch_88">
    <path clip-path="url(#p092ba5b6b0)" d="M 609.475325 384.48 
L 609.475325 51.84 
L 613.098701 51.84 
L 613.098701 384.48 
z
" style="fill:#008000;opacity:0.04;"/>
   </g>
   <g id="patch_89">
    <path clip-path="url(#p092ba5b6b0)" d="M 616.722078 384.48 
L 616.722078 51.84 
L 620.345455 51.84 
L 620.345455 384.48 
z
" style="fill:#008000;opacity:0.04;"/>
   </g>
   <g id="patch_90">
    <path clip-path="url(#p092ba5b6b0)" d="M 623.968831 384.48 
L 623.968831 51.84 
L 627.592208 51.84 
L 627.592208 384.48 
z
" style="fill:#008000;opacity:0.04;"/>
   </g>
   <g id="patch_91">
    <path clip-path="url(#p092ba5b6b0)" d="M 631.215584 384.48 
L 631.215584 51.84 
L 634.838961 51.84 
L 634.838961 384.48 
z
" style="fill:#008000;opacity:0.04;"/>
   </g>
   <g id="patch_92">
    <path clip-path="url(#p092ba5b6b0)" d="M 638.462338 384.48 
L 638.462338 51.84 
L 642.085714 51.84 
L 642.085714 384.48 
z
" style="fill:#008000;opacity:0.04;"/>
   </g>
   <g id="patch_93">
    <path clip-path="url(#p092ba5b6b0)" d="M 645.709091 384.48 
L 645.709091 51.84 
L 649.332468 51.84 
L 649.332468 384.48 
z
" style="fill:#008000;opacity:0.04;"/>
   </g>
   <g id="patch_94">
    <path clip-path="url(#p092ba5b6b0)" d="M 652.955844 384.48 
L 652.955844 51.84 
L 656.579221 51.84 
L 656.579221 384.48 
z
" style="fill:#008000;opacity:0.04;"/>
   </g>
   <g id="patch_95">
    <path clip-path="url(#p092ba5b6b0)" d="M 660.202597 384.48 
L 660.202597 51.84 
L 663.825974 51.84 
L 663.825974 384.48 
z
" style="fill:#008000;opacity:0.04;"/>
   </g>
   <g id="patch_96">
    <path clip-path="url(#p092ba5b6b0)" d="M 667.449351 384.48 
L 667.449351 51.84 
L 671.072727 51.84 
L 671.072727 384.48 
z
" style="fill:#008000;opacity:0.04;"/>
   </g>
   <g id="patch_97">
    <path clip-path="url(#p092ba5b6b0)" d="M 674.696104 384.48 
L 674.696104 51.84 
L 678.319481 51.84 
L 678.319481 384.48 
z
" style="fill:#008000;opacity:0.04;"/>
   </g>
   <g id="patch_98">
    <path clip-path="url(#p092ba5b6b0)" d="M 681.942857 384.48 
L 681.942857 51.84 
L 685.566234 51.84 
L 685.566234 384.48 
z
" style="fill:#008000;opacity:0.04;"/>
   </g>
   <g id="patch_99">
    <path clip-path="url(#p092ba5b6b0)" d="M 689.18961 384.48 
L 689.18961 51.84 
L 692.812987 51.84 
L 692.812987 384.48 
z
" style="fill:#008000;opacity:0.04;"/>
   </g>
   <g id="patch_100">
    <path clip-path="url(#p092ba5b6b0)" d="M 696.436364 384.48 
L 696.436364 51.84 
L 700.05974 51.84 
L 700.05974 384.48 
z
" style="fill:#008000;opacity:0.04;"/>
   </g>
   <g id="patch_101">
    <path clip-path="url(#p092ba5b6b0)" d="M 703.683117 384.48 
L 703.683117 51.84 
L 707.306494 51.84 
L 707.306494 384.48 
z
" style="fill:#008000;opacity:0.04;"/>
   </g>
   <g id="patch_102">
    <path clip-path="url(#p092ba5b6b0)" d="M 710.92987 384.48 
L 710.92987 51.84 
L 714.553247 51.84 
L 714.553247 384.48 
z
" style="fill:#008000;opacity:0.04;"/>
   </g>
   <g id="patch_103">
    <path clip-path="url(#p092ba5b6b0)" d="M 718.176623 384.48 
L 718.176623 51.84 
L 721.8 51.84 
L 721.8 384.48 
z
" style="fill:#008000;opacity:0.04;"/>
   </g>
   <g id="patch_104">
    <path clip-path="url(#p092ba5b6b0)" d="M 725.423377 384.48 
L 725.423377 51.84 
L 729.046753 51.84 
L 729.046753 384.48 
z
" style="fill:#008000;opacity:0.04;"/>
   </g>
   <g id="patch_105">
    <path clip-path="url(#p092ba5b6b0)" d="M 732.67013 384.48 
L 732.67013 51.84 
L 736.293506 51.84 
L 736.293506 384.48 
z
" style="fill:#008000;opacity:0.04;"/>
   </g>
   <g id="patch_106">
    <path clip-path="url(#p092ba5b6b0)" d="M 739.916883 384.48 
L 739.916883 51.84 
L 743.54026 51.84 
L 743.54026 384.48 
z
" style="fill:#008000;opacity:0.04;"/>
   </g>
   <g id="matplotlib.axis_1">
    <g id="xtick_1">
     <g id="line2d_1">
      <defs>
       <path d="M 0 0 
L 0 3.5 
" id="m01806c4322" style="stroke:#000000;stroke-width:0.8;"/>
      </defs>
      <g>
       <use style="stroke:#000000;stroke-width:0.8;" x="138.436364" xlink:href="#m01806c4322" y="384.48"/>
      </g>
     </g>
     <g id="text_1">
      <!-- 0 -->
      <defs>
       <path d="M 31.78125 66.40625 
Q 24.171875 66.40625 20.328125 58.90625 
Q 16.5 51.421875 16.5 36.375 
Q 16.5 21.390625 20.328125 13.890625 
Q 24.171875 6.390625 31.78125 6.390625 
Q 39.453125 6.390625 43.28125 13.890625 
Q 47.125 21.390625 47.125 36.375 
Q 47.125 51.421875 43.28125 58.90625 
Q 39.453125 66.40625 31.78125 66.40625 
z
M 31.78125 74.21875 
Q 44.046875 74.21875 50.515625 64.515625 
Q 56.984375 54.828125 56.984375 36.375 
Q 56.984375 17.96875 50.515625 8.265625 
Q 44.046875 -1.421875 31.78125 -1.421875 
Q 19.53125 -1.421875 13.0625 8.265625 
Q 6.59375 17.96875 6.59375 36.375 
Q 6.59375 54.828125 13.0625 64.515625 
Q 19.53125 74.21875 31.78125 74.21875 
z
" id="DejaVuSans-48"/>
      </defs>
      <g transform="translate(135.255114 399.078438)scale(0.1 -0.1)">
       <use xlink:href="#DejaVuSans-48"/>
      </g>
     </g>
    </g>
    <g id="xtick_2">
     <g id="line2d_2">
      <g>
       <use style="stroke:#000000;stroke-width:0.8;" x="229.020779" xlink:href="#m01806c4322" y="384.48"/>
      </g>
     </g>
     <g id="text_2">
      <!-- 250 -->
      <defs>
       <path d="M 19.1875 8.296875 
L 53.609375 8.296875 
L 53.609375 0 
L 7.328125 0 
L 7.328125 8.296875 
Q 12.9375 14.109375 22.625 23.890625 
Q 32.328125 33.6875 34.8125 36.53125 
Q 39.546875 41.84375 41.421875 45.53125 
Q 43.3125 49.21875 43.3125 52.78125 
Q 43.3125 58.59375 39.234375 62.25 
Q 35.15625 65.921875 28.609375 65.921875 
Q 23.96875 65.921875 18.8125 64.3125 
Q 13.671875 62.703125 7.8125 59.421875 
L 7.8125 69.390625 
Q 13.765625 71.78125 18.9375 73 
Q 24.125 74.21875 28.421875 74.21875 
Q 39.75 74.21875 46.484375 68.546875 
Q 53.21875 62.890625 53.21875 53.421875 
Q 53.21875 48.921875 51.53125 44.890625 
Q 49.859375 40.875 45.40625 35.40625 
Q 44.1875 33.984375 37.640625 27.21875 
Q 31.109375 20.453125 19.1875 8.296875 
z
" id="DejaVuSans-50"/>
       <path d="M 10.796875 72.90625 
L 49.515625 72.90625 
L 49.515625 64.59375 
L 19.828125 64.59375 
L 19.828125 46.734375 
Q 21.96875 47.46875 24.109375 47.828125 
Q 26.265625 48.1875 28.421875 48.1875 
Q 40.625 48.1875 47.75 41.5 
Q 54.890625 34.8125 54.890625 23.390625 
Q 54.890625 11.625 47.5625 5.09375 
Q 40.234375 -1.421875 26.90625 -1.421875 
Q 22.3125 -1.421875 17.546875 -0.640625 
Q 12.796875 0.140625 7.71875 1.703125 
L 7.71875 11.625 
Q 12.109375 9.234375 16.796875 8.0625 
Q 21.484375 6.890625 26.703125 6.890625 
Q 35.15625 6.890625 40.078125 11.328125 
Q 45.015625 15.765625 45.015625 23.390625 
Q 45.015625 31 40.078125 35.4375 
Q 35.15625 39.890625 26.703125 39.890625 
Q 22.75 39.890625 18.8125 39.015625 
Q 14.890625 38.140625 10.796875 36.28125 
z
" id="DejaVuSans-53"/>
      </defs>
      <g transform="translate(219.477029 399.078438)scale(0.1 -0.1)">
       <use xlink:href="#DejaVuSans-50"/>
       <use x="63.623047" xlink:href="#DejaVuSans-53"/>
       <use x="127.246094" xlink:href="#DejaVuSans-48"/>
      </g>
     </g>
    </g>
    <g id="xtick_3">
     <g id="line2d_3">
      <g>
       <use style="stroke:#000000;stroke-width:0.8;" x="319.605195" xlink:href="#m01806c4322" y="384.48"/>
      </g>
     </g>
     <g id="text_3">
      <!-- 500 -->
      <g transform="translate(310.061445 399.078438)scale(0.1 -0.1)">
       <use xlink:href="#DejaVuSans-53"/>
       <use x="63.623047" xlink:href="#DejaVuSans-48"/>
       <use x="127.246094" xlink:href="#DejaVuSans-48"/>
      </g>
     </g>
    </g>
    <g id="xtick_4">
     <g id="line2d_4">
      <g>
       <use style="stroke:#000000;stroke-width:0.8;" x="410.18961" xlink:href="#m01806c4322" y="384.48"/>
      </g>
     </g>
     <g id="text_4">
      <!-- 750 -->
      <defs>
       <path d="M 8.203125 72.90625 
L 55.078125 72.90625 
L 55.078125 68.703125 
L 28.609375 0 
L 18.3125 0 
L 43.21875 64.59375 
L 8.203125 64.59375 
z
" id="DejaVuSans-55"/>
      </defs>
      <g transform="translate(400.64586 399.078438)scale(0.1 -0.1)">
       <use xlink:href="#DejaVuSans-55"/>
       <use x="63.623047" xlink:href="#DejaVuSans-53"/>
       <use x="127.246094" xlink:href="#DejaVuSans-48"/>
      </g>
     </g>
    </g>
    <g id="xtick_5">
     <g id="line2d_5">
      <g>
       <use style="stroke:#000000;stroke-width:0.8;" x="500.774026" xlink:href="#m01806c4322" y="384.48"/>
      </g>
     </g>
     <g id="text_5">
      <!-- 1000 -->
      <defs>
       <path d="M 12.40625 8.296875 
L 28.515625 8.296875 
L 28.515625 63.921875 
L 10.984375 60.40625 
L 10.984375 69.390625 
L 28.421875 72.90625 
L 38.28125 72.90625 
L 38.28125 8.296875 
L 54.390625 8.296875 
L 54.390625 0 
L 12.40625 0 
z
" id="DejaVuSans-49"/>
      </defs>
      <g transform="translate(488.049026 399.078438)scale(0.1 -0.1)">
       <use xlink:href="#DejaVuSans-49"/>
       <use x="63.623047" xlink:href="#DejaVuSans-48"/>
       <use x="127.246094" xlink:href="#DejaVuSans-48"/>
       <use x="190.869141" xlink:href="#DejaVuSans-48"/>
      </g>
     </g>
    </g>
    <g id="xtick_6">
     <g id="line2d_6">
      <g>
       <use style="stroke:#000000;stroke-width:0.8;" x="591.358442" xlink:href="#m01806c4322" y="384.48"/>
      </g>
     </g>
     <g id="text_6">
      <!-- 1250 -->
      <g transform="translate(578.633442 399.078438)scale(0.1 -0.1)">
       <use xlink:href="#DejaVuSans-49"/>
       <use x="63.623047" xlink:href="#DejaVuSans-50"/>
       <use x="127.246094" xlink:href="#DejaVuSans-53"/>
       <use x="190.869141" xlink:href="#DejaVuSans-48"/>
      </g>
     </g>
    </g>
    <g id="xtick_7">
     <g id="line2d_7">
      <g>
       <use style="stroke:#000000;stroke-width:0.8;" x="681.942857" xlink:href="#m01806c4322" y="384.48"/>
      </g>
     </g>
     <g id="text_7">
      <!-- 1500 -->
      <g transform="translate(669.217857 399.078438)scale(0.1 -0.1)">
       <use xlink:href="#DejaVuSans-49"/>
       <use x="63.623047" xlink:href="#DejaVuSans-53"/>
       <use x="127.246094" xlink:href="#DejaVuSans-48"/>
       <use x="190.869141" xlink:href="#DejaVuSans-48"/>
      </g>
     </g>
    </g>
    <g id="xtick_8">
     <g id="line2d_8">
      <g>
       <use style="stroke:#000000;stroke-width:0.8;" x="772.527273" xlink:href="#m01806c4322" y="384.48"/>
      </g>
     </g>
     <g id="text_8">
      <!-- 1750 -->
      <g transform="translate(759.802273 399.078438)scale(0.1 -0.1)">
       <use xlink:href="#DejaVuSans-49"/>
       <use x="63.623047" xlink:href="#DejaVuSans-55"/>
       <use x="127.246094" xlink:href="#DejaVuSans-53"/>
       <use x="190.869141" xlink:href="#DejaVuSans-48"/>
      </g>
     </g>
    </g>
    <g id="text_9">
     <!-- Timestamp -->
     <defs>
      <path d="M -0.296875 72.90625 
L 61.375 72.90625 
L 61.375 64.59375 
L 35.5 64.59375 
L 35.5 0 
L 25.59375 0 
L 25.59375 64.59375 
L -0.296875 64.59375 
z
" id="DejaVuSans-84"/>
      <path d="M 9.421875 54.6875 
L 18.40625 54.6875 
L 18.40625 0 
L 9.421875 0 
z
M 9.421875 75.984375 
L 18.40625 75.984375 
L 18.40625 64.59375 
L 9.421875 64.59375 
z
" id="DejaVuSans-105"/>
      <path d="M 52 44.1875 
Q 55.375 50.25 60.0625 53.125 
Q 64.75 56 71.09375 56 
Q 79.640625 56 84.28125 50.015625 
Q 88.921875 44.046875 88.921875 33.015625 
L 88.921875 0 
L 79.890625 0 
L 79.890625 32.71875 
Q 79.890625 40.578125 77.09375 44.375 
Q 74.3125 48.1875 68.609375 48.1875 
Q 61.625 48.1875 57.5625 43.546875 
Q 53.515625 38.921875 53.515625 30.90625 
L 53.515625 0 
L 44.484375 0 
L 44.484375 32.71875 
Q 44.484375 40.625 41.703125 44.40625 
Q 38.921875 48.1875 33.109375 48.1875 
Q 26.21875 48.1875 22.15625 43.53125 
Q 18.109375 38.875 18.109375 30.90625 
L 18.109375 0 
L 9.078125 0 
L 9.078125 54.6875 
L 18.109375 54.6875 
L 18.109375 46.1875 
Q 21.1875 51.21875 25.484375 53.609375 
Q 29.78125 56 35.6875 56 
Q 41.65625 56 45.828125 52.96875 
Q 50 49.953125 52 44.1875 
z
" id="DejaVuSans-109"/>
      <path d="M 56.203125 29.59375 
L 56.203125 25.203125 
L 14.890625 25.203125 
Q 15.484375 15.921875 20.484375 11.0625 
Q 25.484375 6.203125 34.421875 6.203125 
Q 39.59375 6.203125 44.453125 7.46875 
Q 49.3125 8.734375 54.109375 11.28125 
L 54.109375 2.78125 
Q 49.265625 0.734375 44.1875 -0.34375 
Q 39.109375 -1.421875 33.890625 -1.421875 
Q 20.796875 -1.421875 13.15625 6.1875 
Q 5.515625 13.8125 5.515625 26.8125 
Q 5.515625 40.234375 12.765625 48.109375 
Q 20.015625 56 32.328125 56 
Q 43.359375 56 49.78125 48.890625 
Q 56.203125 41.796875 56.203125 29.59375 
z
M 47.21875 32.234375 
Q 47.125 39.59375 43.09375 43.984375 
Q 39.0625 48.390625 32.421875 48.390625 
Q 24.90625 48.390625 20.390625 44.140625 
Q 15.875 39.890625 15.1875 32.171875 
z
" id="DejaVuSans-101"/>
      <path d="M 44.28125 53.078125 
L 44.28125 44.578125 
Q 40.484375 46.53125 36.375 47.5 
Q 32.28125 48.484375 27.875 48.484375 
Q 21.1875 48.484375 17.84375 46.4375 
Q 14.5 44.390625 14.5 40.28125 
Q 14.5 37.15625 16.890625 35.375 
Q 19.28125 33.59375 26.515625 31.984375 
L 29.59375 31.296875 
Q 39.15625 29.25 43.1875 25.515625 
Q 47.21875 21.78125 47.21875 15.09375 
Q 47.21875 7.46875 41.1875 3.015625 
Q 35.15625 -1.421875 24.609375 -1.421875 
Q 20.21875 -1.421875 15.453125 -0.5625 
Q 10.6875 0.296875 5.421875 2 
L 5.421875 11.28125 
Q 10.40625 8.6875 15.234375 7.390625 
Q 20.0625 6.109375 24.8125 6.109375 
Q 31.15625 6.109375 34.5625 8.28125 
Q 37.984375 10.453125 37.984375 14.40625 
Q 37.984375 18.0625 35.515625 20.015625 
Q 33.0625 21.96875 24.703125 23.78125 
L 21.578125 24.515625 
Q 13.234375 26.265625 9.515625 29.90625 
Q 5.8125 33.546875 5.8125 39.890625 
Q 5.8125 47.609375 11.28125 51.796875 
Q 16.75 56 26.8125 56 
Q 31.78125 56 36.171875 55.265625 
Q 40.578125 54.546875 44.28125 53.078125 
z
" id="DejaVuSans-115"/>
      <path d="M 18.3125 70.21875 
L 18.3125 54.6875 
L 36.8125 54.6875 
L 36.8125 47.703125 
L 18.3125 47.703125 
L 18.3125 18.015625 
Q 18.3125 11.328125 20.140625 9.421875 
Q 21.96875 7.515625 27.59375 7.515625 
L 36.8125 7.515625 
L 36.8125 0 
L 27.59375 0 
Q 17.1875 0 13.234375 3.875 
Q 9.28125 7.765625 9.28125 18.015625 
L 9.28125 47.703125 
L 2.6875 47.703125 
L 2.6875 54.6875 
L 9.28125 54.6875 
L 9.28125 70.21875 
z
" id="DejaVuSans-116"/>
      <path d="M 34.28125 27.484375 
Q 23.390625 27.484375 19.1875 25 
Q 14.984375 22.515625 14.984375 16.5 
Q 14.984375 11.71875 18.140625 8.90625 
Q 21.296875 6.109375 26.703125 6.109375 
Q 34.1875 6.109375 38.703125 11.40625 
Q 43.21875 16.703125 43.21875 25.484375 
L 43.21875 27.484375 
z
M 52.203125 31.203125 
L 52.203125 0 
L 43.21875 0 
L 43.21875 8.296875 
Q 40.140625 3.328125 35.546875 0.953125 
Q 30.953125 -1.421875 24.3125 -1.421875 
Q 15.921875 -1.421875 10.953125 3.296875 
Q 6 8.015625 6 15.921875 
Q 6 25.140625 12.171875 29.828125 
Q 18.359375 34.515625 30.609375 34.515625 
L 43.21875 34.515625 
L 43.21875 35.40625 
Q 43.21875 41.609375 39.140625 45 
Q 35.0625 48.390625 27.6875 48.390625 
Q 23 48.390625 18.546875 47.265625 
Q 14.109375 46.140625 10.015625 43.890625 
L 10.015625 52.203125 
Q 14.9375 54.109375 19.578125 55.046875 
Q 24.21875 56 28.609375 56 
Q 40.484375 56 46.34375 49.84375 
Q 52.203125 43.703125 52.203125 31.203125 
z
" id="DejaVuSans-97"/>
      <path d="M 18.109375 8.203125 
L 18.109375 -20.796875 
L 9.078125 -20.796875 
L 9.078125 54.6875 
L 18.109375 54.6875 
L 18.109375 46.390625 
Q 20.953125 51.265625 25.265625 53.625 
Q 29.59375 56 35.59375 56 
Q 45.5625 56 51.78125 48.09375 
Q 58.015625 40.1875 58.015625 27.296875 
Q 58.015625 14.40625 51.78125 6.484375 
Q 45.5625 -1.421875 35.59375 -1.421875 
Q 29.59375 -1.421875 25.265625 0.953125 
Q 20.953125 3.328125 18.109375 8.203125 
z
M 48.6875 27.296875 
Q 48.6875 37.203125 44.609375 42.84375 
Q 40.53125 48.484375 33.40625 48.484375 
Q 26.265625 48.484375 22.1875 42.84375 
Q 18.109375 37.203125 18.109375 27.296875 
Q 18.109375 17.390625 22.1875 11.75 
Q 26.265625 6.109375 33.40625 6.109375 
Q 40.53125 6.109375 44.609375 11.75 
Q 48.6875 17.390625 48.6875 27.296875 
z
" id="DejaVuSans-112"/>
     </defs>
     <g transform="translate(414.739062 412.756563)scale(0.1 -0.1)">
      <use xlink:href="#DejaVuSans-84"/>
      <use x="61.037109" xlink:href="#DejaVuSans-105"/>
      <use x="88.820312" xlink:href="#DejaVuSans-109"/>
      <use x="186.232422" xlink:href="#DejaVuSans-101"/>
      <use x="247.755859" xlink:href="#DejaVuSans-115"/>
      <use x="299.855469" xlink:href="#DejaVuSans-116"/>
      <use x="339.064453" xlink:href="#DejaVuSans-97"/>
      <use x="400.34375" xlink:href="#DejaVuSans-109"/>
      <use x="497.755859" xlink:href="#DejaVuSans-112"/>
     </g>
    </g>
   </g>
   <g id="matplotlib.axis_2">
    <g id="ytick_1">
     <g id="line2d_9">
      <defs>
       <path d="M 0 0 
L -3.5 0 
" id="m56f321786f" style="stroke:#000000;stroke-width:0.8;"/>
      </defs>
      <g>
       <use style="stroke:#000000;stroke-width:0.8;" x="108" xlink:href="#m56f321786f" y="349.814036"/>
      </g>
     </g>
     <g id="text_10">
      <!-- −1000 -->
      <defs>
       <path d="M 10.59375 35.5 
L 73.1875 35.5 
L 73.1875 27.203125 
L 10.59375 27.203125 
z
" id="DejaVuSans-8722"/>
      </defs>
      <g transform="translate(67.170312 353.613255)scale(0.1 -0.1)">
       <use xlink:href="#DejaVuSans-8722"/>
       <use x="83.789062" xlink:href="#DejaVuSans-49"/>
       <use x="147.412109" xlink:href="#DejaVuSans-48"/>
       <use x="211.035156" xlink:href="#DejaVuSans-48"/>
       <use x="274.658203" xlink:href="#DejaVuSans-48"/>
      </g>
     </g>
    </g>
    <g id="ytick_2">
     <g id="line2d_10">
      <g>
       <use style="stroke:#000000;stroke-width:0.8;" x="108" xlink:href="#m56f321786f" y="283.437431"/>
      </g>
     </g>
     <g id="text_11">
      <!-- 0 -->
      <g transform="translate(94.6375 287.23665)scale(0.1 -0.1)">
       <use xlink:href="#DejaVuSans-48"/>
      </g>
     </g>
    </g>
    <g id="ytick_3">
     <g id="line2d_11">
      <g>
       <use style="stroke:#000000;stroke-width:0.8;" x="108" xlink:href="#m56f321786f" y="217.060826"/>
      </g>
     </g>
     <g id="text_12">
      <!-- 1000 -->
      <g transform="translate(75.55 220.860044)scale(0.1 -0.1)">
       <use xlink:href="#DejaVuSans-49"/>
       <use x="63.623047" xlink:href="#DejaVuSans-48"/>
       <use x="127.246094" xlink:href="#DejaVuSans-48"/>
       <use x="190.869141" xlink:href="#DejaVuSans-48"/>
      </g>
     </g>
    </g>
    <g id="ytick_4">
     <g id="line2d_12">
      <g>
       <use style="stroke:#000000;stroke-width:0.8;" x="108" xlink:href="#m56f321786f" y="150.68422"/>
      </g>
     </g>
     <g id="text_13">
      <!-- 2000 -->
      <g transform="translate(75.55 154.483439)scale(0.1 -0.1)">
       <use xlink:href="#DejaVuSans-50"/>
       <use x="63.623047" xlink:href="#DejaVuSans-48"/>
       <use x="127.246094" xlink:href="#DejaVuSans-48"/>
       <use x="190.869141" xlink:href="#DejaVuSans-48"/>
      </g>
     </g>
    </g>
    <g id="ytick_5">
     <g id="line2d_13">
      <g>
       <use style="stroke:#000000;stroke-width:0.8;" x="108" xlink:href="#m56f321786f" y="84.307615"/>
      </g>
     </g>
     <g id="text_14">
      <!-- 3000 -->
      <defs>
       <path d="M 40.578125 39.3125 
Q 47.65625 37.796875 51.625 33 
Q 55.609375 28.21875 55.609375 21.1875 
Q 55.609375 10.40625 48.1875 4.484375 
Q 40.765625 -1.421875 27.09375 -1.421875 
Q 22.515625 -1.421875 17.65625 -0.515625 
Q 12.796875 0.390625 7.625 2.203125 
L 7.625 11.71875 
Q 11.71875 9.328125 16.59375 8.109375 
Q 21.484375 6.890625 26.8125 6.890625 
Q 36.078125 6.890625 40.9375 10.546875 
Q 45.796875 14.203125 45.796875 21.1875 
Q 45.796875 27.640625 41.28125 31.265625 
Q 36.765625 34.90625 28.71875 34.90625 
L 20.21875 34.90625 
L 20.21875 43.015625 
L 29.109375 43.015625 
Q 36.375 43.015625 40.234375 45.921875 
Q 44.09375 48.828125 44.09375 54.296875 
Q 44.09375 59.90625 40.109375 62.90625 
Q 36.140625 65.921875 28.71875 65.921875 
Q 24.65625 65.921875 20.015625 65.03125 
Q 15.375 64.15625 9.8125 62.3125 
L 9.8125 71.09375 
Q 15.4375 72.65625 20.34375 73.4375 
Q 25.25 74.21875 29.59375 74.21875 
Q 40.828125 74.21875 47.359375 69.109375 
Q 53.90625 64.015625 53.90625 55.328125 
Q 53.90625 49.265625 50.4375 45.09375 
Q 46.96875 40.921875 40.578125 39.3125 
z
" id="DejaVuSans-51"/>
      </defs>
      <g transform="translate(75.55 88.106833)scale(0.1 -0.1)">
       <use xlink:href="#DejaVuSans-51"/>
       <use x="63.623047" xlink:href="#DejaVuSans-48"/>
       <use x="127.246094" xlink:href="#DejaVuSans-48"/>
       <use x="190.869141" xlink:href="#DejaVuSans-48"/>
      </g>
     </g>
    </g>
    <g id="text_15">
     <!-- Value -->
     <defs>
      <path d="M 28.609375 0 
L 0.78125 72.90625 
L 11.078125 72.90625 
L 34.1875 11.53125 
L 57.328125 72.90625 
L 67.578125 72.90625 
L 39.796875 0 
z
" id="DejaVuSans-86"/>
      <path d="M 9.421875 75.984375 
L 18.40625 75.984375 
L 18.40625 0 
L 9.421875 0 
z
" id="DejaVuSans-108"/>
      <path d="M 8.5 21.578125 
L 8.5 54.6875 
L 17.484375 54.6875 
L 17.484375 21.921875 
Q 17.484375 14.15625 20.5 10.265625 
Q 23.53125 6.390625 29.59375 6.390625 
Q 36.859375 6.390625 41.078125 11.03125 
Q 45.3125 15.671875 45.3125 23.6875 
L 45.3125 54.6875 
L 54.296875 54.6875 
L 54.296875 0 
L 45.3125 0 
L 45.3125 8.40625 
Q 42.046875 3.421875 37.71875 1 
Q 33.40625 -1.421875 27.6875 -1.421875 
Q 18.265625 -1.421875 13.375 4.4375 
Q 8.5 10.296875 8.5 21.578125 
z
M 31.109375 56 
z
" id="DejaVuSans-117"/>
     </defs>
     <g transform="translate(61.090625 232.273281)rotate(-90)scale(0.1 -0.1)">
      <use xlink:href="#DejaVuSans-86"/>
      <use x="68.298828" xlink:href="#DejaVuSans-97"/>
      <use x="129.578125" xlink:href="#DejaVuSans-108"/>
      <use x="157.361328" xlink:href="#DejaVuSans-117"/>
      <use x="220.740234" xlink:href="#DejaVuSans-101"/>
     </g>
    </g>
   </g>
   <g id="line2d_14">
    <path clip-path="url(#p092ba5b6b0)" d="M 138.436364 272.237406 
L 138.798701 218.713777 
L 139.161039 232.040428 
L 139.523377 224.111097 
L 139.885714 219.441612 
L 140.248052 224.086109 
L 140.61039 238.260121 
L 140.972727 260.682083 
L 141.335065 301.419474 
L 141.697403 323.688286 
L 142.05974 309.339737 
L 142.422078 274.491981 
L 142.784416 288.843459 
L 143.146753 245.731623 
L 143.871429 232.650398 
L 144.233766 255.272213 
L 144.596104 264.347288 
L 144.958442 320.571894 
L 145.320779 322.616711 
L 145.683117 333.663448 
L 146.045455 355.98418 
L 146.407792 332.551214 
L 147.132468 266.753172 
L 147.494805 221.644147 
L 147.857143 190.65815 
L 148.219481 180.277876 
L 148.581818 195.554795 
L 148.944156 155.178485 
L 149.668831 260.72085 
L 150.031169 272.898451 
L 150.393506 268.091542 
L 150.755844 272.083805 
L 151.118182 273.269455 
L 151.480519 267.520467 
L 151.842857 249.925858 
L 152.205195 226.821761 
L 152.567532 233.099189 
L 152.92987 227.458754 
L 153.292208 266.584332 
L 153.654545 281.282189 
L 154.016883 318.619442 
L 154.379221 328.0224 
L 154.741558 319.152144 
L 155.103896 306.309346 
L 155.466234 287.39313 
L 155.828571 262.3188 
L 156.190909 191.268197 
L 156.553247 188.342376 
L 156.915584 179.175023 
L 157.277922 152.910856 
L 158.364935 255.143498 
L 158.727273 253.838873 
L 159.08961 270.416591 
L 159.451948 258.293494 
L 159.814286 261.548268 
L 160.176623 253.743591 
L 160.538961 226.575447 
L 160.901299 231.870616 
L 161.263636 218.717891 
L 161.625974 250.232765 
L 161.988312 256.955444 
L 162.350649 295.2795 
L 163.075325 349.684677 
L 163.8 298.447614 
L 164.162338 259.231309 
L 164.887013 239.397751 
L 165.249351 209.699296 
L 165.611688 191.509739 
L 165.974026 190.067813 
L 166.336364 240.230443 
L 166.698701 247.527342 
L 167.061039 250.318094 
L 167.423377 289.504137 
L 167.785714 277.171169 
L 168.148052 304.568677 
L 168.872727 257.722541 
L 169.235065 242.532898 
L 169.597403 241.212181 
L 169.95974 251.212992 
L 170.322078 250.269621 
L 170.684416 296.422799 
L 171.046753 304.018075 
L 171.409091 335.079231 
L 171.771429 339.4325 
L 172.133766 339.51987 
L 172.496104 346.933468 
L 173.220779 282.340314 
L 173.583117 255.409836 
L 173.945455 210.799332 
L 174.307792 194.778367 
L 174.67013 188.68682 
L 175.032468 223.462336 
L 175.394805 234.560388 
L 175.757143 268.355538 
L 176.119481 289.214077 
L 176.844156 309.051692 
L 177.206494 290.856661 
L 177.568831 297.669354 
L 177.931169 269.818022 
L 178.293506 263.312719 
L 178.655844 237.154914 
L 179.380519 266.594521 
L 179.742857 288.673718 
L 180.105195 347.318194 
L 180.467532 359.150234 
L 180.82987 365.731341 
L 181.192208 353.029591 
L 181.916883 287.175416 
L 182.641558 209.806832 
L 183.003896 205.836715 
L 183.366234 215.142933 
L 183.728571 251.534685 
L 184.090909 271.23611 
L 184.453247 280.070917 
L 184.815584 311.38715 
L 185.177922 297.246743 
L 185.54026 324.73305 
L 186.627273 265.292439 
L 186.98961 272.907643 
L 187.714286 232.724589 
L 188.076623 281.357973 
L 188.438961 310.442413 
L 188.801299 348.446695 
L 189.163636 369.36 
L 189.525974 348.544436 
L 189.888312 355.95885 
L 190.975325 213.482913 
L 191.337662 232.119408 
L 191.7 204.45141 
L 192.062338 193.170897 
L 192.424675 209.819876 
L 192.787013 231.971689 
L 193.149351 274.189875 
L 193.511688 290.170236 
L 193.874026 284.507354 
L 194.236364 316.438446 
L 194.598701 297.337181 
L 194.961039 252.576681 
L 195.323377 248.649515 
L 195.685714 224.828365 
L 196.048052 221.172697 
L 197.135065 278.611905 
L 197.497403 275.696621 
L 197.85974 329.660011 
L 198.222078 329.869148 
L 198.584416 297.360746 
L 198.946753 295.612889 
L 199.309091 258.680195 
L 199.671429 237.112729 
L 200.033766 175.940291 
L 200.396104 162.966952 
L 200.758442 177.051904 
L 201.120779 176.60978 
L 201.845455 233.772469 
L 202.207792 242.555306 
L 202.57013 244.678212 
L 202.932468 249.249849 
L 203.294805 218.379119 
L 203.657143 246.733053 
L 204.019481 207.403887 
L 204.381818 228.680966 
L 204.744156 181.964196 
L 205.106494 210.419175 
L 205.468831 272.637122 
L 205.831169 268.012571 
L 206.193506 276.625228 
L 206.555844 315.578739 
L 206.918182 301.019413 
L 207.280519 313.10242 
L 207.642857 258.923157 
L 208.005195 240.564407 
L 208.367532 207.590543 
L 208.72987 152.734957 
L 209.092208 149.88177 
L 209.454545 133.757657 
L 209.816883 183.576668 
L 210.179221 189.929069 
L 210.541558 212.997999 
L 210.903896 264.753487 
L 211.266234 247.906646 
L 211.628571 246.320693 
L 211.990909 235.425469 
L 212.353247 235.86017 
L 212.715584 208.440343 
L 213.077922 200.296302 
L 213.44026 198.812568 
L 213.802597 191.882128 
L 214.164935 246.06018 
L 214.527273 238.914801 
L 214.88961 301.934273 
L 215.251948 314.39333 
L 215.614286 284.288326 
L 215.976623 289.080654 
L 216.338961 215.036811 
L 216.701299 213.824544 
L 217.063636 189.116043 
L 217.425974 152.661604 
L 217.788312 143.371827 
L 218.150649 131.224829 
L 218.512987 159.866891 
L 218.875325 179.491341 
L 219.237662 222.458781 
L 219.6 208.743434 
L 219.962338 262.255843 
L 220.324675 255.532098 
L 221.049351 209.383802 
L 221.411688 215.218077 
L 221.774026 175.453052 
L 222.136364 199.156534 
L 222.498701 164.320473 
L 223.223377 294.195451 
L 223.585714 281.756654 
L 224.31039 297.788504 
L 224.672727 286.978241 
L 225.035065 288.947372 
L 225.397403 213.66504 
L 225.75974 202.689672 
L 226.122078 185.24497 
L 226.484416 154.094399 
L 226.846753 159.473916 
L 227.209091 170.682891 
L 227.933766 225.610222 
L 228.296104 246.377718 
L 228.658442 259.309109 
L 229.020779 284.792678 
L 229.383117 231.910765 
L 229.745455 234.976924 
L 230.47013 197.803553 
L 230.832468 215.42259 
L 231.194805 227.363177 
L 231.557143 233.268928 
L 232.644156 314.578198 
L 233.006494 317.483029 
L 233.368831 328.769325 
L 234.093506 226.475063 
L 234.455844 202.504637 
L 234.818182 198.613161 
L 235.542857 183.278131 
L 235.905195 173.977725 
L 236.992208 262.947409 
L 237.354545 265.146417 
L 237.716883 255.358228 
L 238.079221 259.361599 
L 238.441558 226.797363 
L 238.803896 240.854262 
L 239.166234 213.066317 
L 239.528571 214.442344 
L 239.890909 220.936819 
L 240.253247 266.74635 
L 240.615584 296.813319 
L 240.977922 272.861261 
L 241.34026 344.119084 
L 241.702597 300.867412 
L 242.064935 336.786008 
L 242.427273 290.593026 
L 242.78961 215.309629 
L 243.151948 198.339132 
L 243.514286 170.130854 
L 243.876623 175.180662 
L 244.238961 177.9103 
L 245.688312 263.548752 
L 246.050649 304.121936 
L 246.412987 299.103315 
L 246.775325 264.184706 
L 247.137662 260.116492 
L 247.5 221.244325 
L 247.862338 224.968381 
L 248.224675 201.903345 
L 248.949351 251.819527 
L 249.311688 283.583165 
L 249.674026 286.171328 
L 250.398701 358.193697 
L 250.761039 298.232714 
L 251.123377 292.509596 
L 251.485714 263.436843 
L 252.21039 164.44945 
L 252.572727 169.410284 
L 252.935065 131.248933 
L 253.297403 164.266124 
L 253.65974 211.944627 
L 254.022078 233.477659 
L 254.384416 217.646529 
L 254.746753 264.397775 
L 255.109091 276.64263 
L 255.471429 255.244325 
L 255.833766 219.211628 
L 256.196104 228.167688 
L 256.558442 204.815199 
L 256.920779 199.167959 
L 257.283117 198.487789 
L 257.645455 223.488577 
L 258.007792 268.094134 
L 258.37013 280.760213 
L 259.094805 294.280221 
L 259.457143 276.714205 
L 259.819481 230.696928 
L 260.181818 232.14932 
L 260.544156 174.176358 
L 260.906494 138.808699 
L 261.268831 136.250425 
L 261.993506 152.282196 
L 262.355844 189.063282 
L 263.442857 254.399498 
L 263.805195 219.118479 
L 264.167532 217.029629 
L 264.52987 212.229348 
L 264.892208 197.498778 
L 265.254545 144.420485 
L 265.616883 188.918829 
L 265.979221 194.475366 
L 266.341558 186.513207 
L 266.703896 207.452695 
L 267.066234 265.125798 
L 267.428571 257.539351 
L 267.790909 252.498654 
L 268.153247 241.069321 
L 268.515584 214.343339 
L 268.877922 198.542289 
L 269.602597 122.988365 
L 269.964935 98.689664 
L 270.327273 114.909486 
L 270.68961 148.085909 
L 271.051948 135.005702 
L 271.414286 143.729457 
L 271.776623 200.331344 
L 272.138961 229.281223 
L 272.501299 234.39874 
L 273.588312 148.127829 
L 273.950649 139.257952 
L 274.312987 169.834362 
L 274.675325 168.247041 
L 275.037662 167.559109 
L 275.4 219.854767 
L 275.762338 229.255259 
L 276.124675 268.258493 
L 276.487013 245.866983 
L 276.849351 208.185722 
L 277.211688 220.811409 
L 278.298701 110.610235 
L 278.661039 126.247295 
L 279.023377 88.080114 
L 279.385714 137.510336 
L 279.748052 132.036283 
L 280.472727 217.269996 
L 280.835065 231.431717 
L 281.197403 196.264008 
L 281.55974 207.249654 
L 281.922078 178.318774 
L 282.284416 163.318726 
L 282.646753 162.828562 
L 283.009091 130.927249 
L 283.733766 190.091458 
L 284.458442 223.728007 
L 284.820779 246.540126 
L 285.183117 223.584479 
L 285.545455 242.034724 
L 285.907792 219.888107 
L 286.27013 217.911846 
L 286.632468 143.94575 
L 286.994805 115.830572 
L 287.357143 137.475989 
L 287.719481 124.217319 
L 288.081818 161.572703 
L 289.531169 237.111941 
L 289.893506 239.592326 
L 290.255844 202.708687 
L 290.618182 200.917757 
L 291.342857 194.491915 
L 291.705195 194.427497 
L 292.067532 198.584105 
L 292.792208 202.011873 
L 293.154545 206.824426 
L 293.516883 190.305036 
L 293.879221 206.660793 
L 294.241558 204.12967 
L 294.603896 203.082801 
L 294.966234 195.837982 
L 295.328571 194.763465 
L 295.690909 189.000135 
L 296.053247 191.883713 
L 296.415584 191.721956 
L 296.777922 190.661744 
L 297.14026 195.202801 
L 297.502597 195.550591 
L 298.227273 200.990248 
L 298.951948 197.69273 
L 299.314286 197.431319 
L 299.676623 194.681015 
L 300.038961 195.876048 
L 300.401299 193.596489 
L 300.763636 193.790696 
L 301.125974 198.948581 
L 301.488312 199.953992 
L 301.850649 199.35868 
L 302.212987 204.566058 
L 302.937662 201.967192 
L 303.3 199.084392 
L 304.024675 191.526645 
L 304.387013 189.56056 
L 304.749351 186.921676 
L 305.111688 185.226782 
L 305.836364 191.554276 
L 306.198701 193.361096 
L 306.561039 196.125947 
L 306.923377 197.439139 
L 307.285714 195.730147 
L 307.648052 196.816464 
L 308.372727 189.740064 
L 308.735065 189.986874 
L 309.097403 190.965545 
L 309.45974 188.423806 
L 309.822078 193.559202 
L 310.184416 194.31396 
L 310.546753 197.189428 
L 310.909091 197.947976 
L 311.271429 196.216252 
L 311.633766 193.813196 
L 311.996104 193.970282 
L 312.358442 191.432501 
L 312.720779 185.585948 
L 313.083117 182.722512 
L 313.445455 182.117439 
L 313.807792 182.40828 
L 314.17013 182.371146 
L 314.532468 182.801009 
L 314.894805 188.499444 
L 315.257143 189.91999 
L 315.619481 189.517129 
L 315.981818 188.666339 
L 316.344156 189.049075 
L 317.068831 183.019677 
L 317.431169 183.317001 
L 317.793506 181.588653 
L 318.880519 189.506611 
L 319.242857 189.485228 
L 319.605195 193.216362 
L 319.967532 189.53877 
L 320.32987 190.984978 
L 320.692208 186.893025 
L 321.054545 185.636587 
L 321.416883 182.57584 
L 321.779221 175.85944 
L 322.141558 175.810769 
L 322.503896 172.746161 
L 322.866234 176.843928 
L 324.677922 185.490388 
L 325.04026 179.71428 
L 325.402597 179.363581 
L 325.764935 175.773071 
L 326.127273 175.495085 
L 326.48961 174.38625 
L 326.851948 175.218861 
L 327.214286 178.147916 
L 327.576623 182.073651 
L 327.938961 183.694453 
L 328.301299 186.432558 
L 328.663636 185.070346 
L 329.025974 182.15859 
L 329.388312 180.745714 
L 330.475325 168.881412 
L 330.837662 171.260545 
L 331.2 168.95061 
L 331.562338 170.152307 
L 332.287013 174.131984 
L 332.649351 175.967026 
L 333.011688 178.835903 
L 333.736364 176.544651 
L 334.461039 170.313631 
L 334.823377 170.18707 
L 335.185714 168.725776 
L 335.91039 172.415406 
L 336.635065 181.835907 
L 336.997403 176.914636 
L 337.35974 178.642418 
L 337.722078 176.369291 
L 338.084416 174.92707 
L 338.446753 172.820239 
L 338.809091 166.34916 
L 339.533766 162.453542 
L 339.896104 160.696922 
L 340.258442 163.824736 
L 340.983117 167.525431 
L 341.345455 171.800227 
L 341.707792 171.645307 
L 342.07013 171.073548 
L 342.432468 169.635793 
L 342.794805 168.872457 
L 343.157143 166.705185 
L 343.519481 166.986665 
L 343.881818 163.793876 
L 344.968831 173.112341 
L 345.331169 171.0768 
L 345.693506 176.709789 
L 346.055844 178.335121 
L 346.780519 169.297546 
L 347.142857 165.986002 
L 347.505195 163.718138 
L 347.867532 160.329009 
L 348.22987 159.740965 
L 348.592208 158.288916 
L 349.679221 168.627804 
L 350.041558 166.695128 
L 350.403896 166.979319 
L 350.766234 169.062254 
L 351.128571 166.453625 
L 351.490909 168.128443 
L 352.215584 164.226554 
L 352.577922 164.02368 
L 352.94026 162.367963 
L 353.664935 169.605626 
L 354.027273 172.636204 
L 354.38961 171.682714 
L 354.751948 175.348063 
L 355.838961 163.234809 
L 356.201299 161.169715 
L 356.563636 157.52354 
L 356.925974 155.376406 
L 357.288312 158.858361 
L 357.650649 160.678965 
L 358.012987 159.904472 
L 358.737662 166.795623 
L 359.1 166.784886 
L 359.462338 167.86944 
L 359.824675 164.835625 
L 360.549351 161.807541 
L 360.911688 159.973191 
L 361.274026 160.518099 
L 361.636364 159.542199 
L 361.998701 165.300985 
L 362.361039 164.272744 
L 362.723377 171.834285 
L 363.085714 167.525293 
L 363.448052 170.385148 
L 363.81039 168.598517 
L 364.172727 164.129002 
L 364.535065 162.920049 
L 364.897403 156.987483 
L 365.25974 154.592001 
L 365.984416 153.190932 
L 366.346753 156.858184 
L 366.709091 172.152719 
L 367.071429 178.298651 
L 367.433766 84.222833 
L 367.796104 185.824898 
L 368.158442 190.682793 
L 368.520779 186.632044 
L 368.883117 179.321056 
L 369.245455 159.965545 
L 369.607792 164.131656 
L 369.97013 160.894715 
L 370.332468 154.521065 
L 370.694805 180.025664 
L 371.057143 183.236197 
L 371.419481 204.435308 
L 371.781818 212.880447 
L 372.144156 208.474118 
L 372.506494 200.588959 
L 372.868831 197.758025 
L 373.231169 158.218788 
L 373.593506 157.156157 
L 374.318182 107.158759 
L 374.680519 123.383066 
L 375.042857 131.031483 
L 375.405195 124.610815 
L 375.767532 153.307732 
L 376.12987 197.572088 
L 376.492208 171.500013 
L 376.854545 177.560419 
L 377.216883 172.97962 
L 377.579221 161.017914 
L 377.941558 137.204116 
L 378.303896 133.278283 
L 378.666234 139.686607 
L 379.028571 158.400463 
L 379.390909 154.480999 
L 379.753247 170.869369 
L 380.115584 179.947552 
L 380.477922 206.674269 
L 380.84026 204.851332 
L 381.202597 183.845688 
L 381.927273 153.535331 
L 382.28961 135.851129 
L 382.651948 95.692044 
L 383.376623 115.015233 
L 383.738961 121.035706 
L 384.101299 122.058201 
L 384.463636 145.346789 
L 384.825974 142.393098 
L 385.188312 156.804519 
L 385.550649 161.895085 
L 385.912987 164.410739 
L 386.637662 117.968252 
L 387.362338 125.125392 
L 387.724675 133.668568 
L 388.449351 166.516597 
L 388.811688 181.707152 
L 389.174026 182.252271 
L 389.536364 176.138942 
L 389.898701 199.559858 
L 390.623377 127.708817 
L 391.348052 101.112472 
L 391.71039 99.324601 
L 392.072727 93.62816 
L 392.797403 116.826785 
L 393.15974 128.474433 
L 393.522078 162.042544 
L 393.884416 144.74706 
L 394.246753 156.620849 
L 394.609091 135.77813 
L 394.971429 124.571327 
L 395.333766 127.495741 
L 395.696104 119.997188 
L 396.058442 119.468592 
L 396.420779 125.841883 
L 396.783117 136.434929 
L 397.507792 176.779887 
L 397.87013 168.228891 
L 398.232468 184.314943 
L 398.957143 139.269962 
L 399.319481 145.812004 
L 399.681818 117.730505 
L 400.044156 66.96 
L 400.406494 85.910949 
L 400.768831 92.845271 
L 401.131169 81.922637 
L 401.855844 138.169357 
L 402.218182 125.594364 
L 402.580519 155.404287 
L 402.942857 147.110113 
L 403.305195 143.223567 
L 404.02987 131.541369 
L 404.392208 119.251366 
L 404.754545 121.135943 
L 405.116883 123.921479 
L 405.479221 130.825522 
L 405.841558 161.109942 
L 406.203896 161.220023 
L 406.566234 193.776715 
L 406.928571 196.056672 
L 407.290909 187.760125 
L 407.653247 155.360869 
L 408.015584 147.030094 
L 408.74026 87.781137 
L 409.102597 85.467693 
L 409.464935 88.767701 
L 409.827273 95.025865 
L 410.18961 135.446196 
L 410.551948 130.13116 
L 411.276623 157.076927 
L 411.638961 154.38822 
L 412.001299 146.367011 
L 412.363636 149.704592 
L 412.725974 125.141525 
L 413.088312 131.591624 
L 413.450649 134.042798 
L 413.812987 125.302518 
L 414.175325 160.469796 
L 414.537662 148.891041 
L 414.9 188.202759 
L 415.262338 192.308102 
L 415.624675 182.10299 
L 415.987013 167.752632 
L 416.349351 167.492475 
L 416.711688 153.654776 
L 417.074026 117.968004 
L 417.436364 107.508047 
L 417.798701 103.089563 
L 418.161039 101.925291 
L 418.523377 117.483774 
L 418.885714 127.750826 
L 419.248052 142.476974 
L 419.61039 168.788226 
L 419.972727 168.913101 
L 420.335065 157.655946 
L 420.697403 151.05527 
L 421.05974 155.07167 
L 421.422078 143.87198 
L 421.784416 128.620664 
L 422.146753 135.596868 
L 422.509091 136.299595 
L 422.871429 144.076076 
L 423.596104 198.934476 
L 423.958442 188.331036 
L 424.320779 199.465713 
L 425.407792 156.795326 
L 425.77013 132.758348 
L 426.132468 116.696783 
L 426.494805 107.04131 
L 426.857143 101.342509 
L 427.219481 110.309418 
L 427.581818 149.059032 
L 427.944156 151.669693 
L 428.306494 168.8158 
L 428.668831 167.632861 
L 429.031169 151.288737 
L 429.393506 159.227245 
L 429.755844 141.102861 
L 430.118182 143.572708 
L 430.480519 132.747615 
L 430.842857 115.305175 
L 431.205195 135.390338 
L 431.567532 140.041848 
L 431.92987 168.222956 
L 432.292208 178.366301 
L 432.654545 195.369803 
L 433.016883 198.224915 
L 433.741558 161.750006 
L 434.103896 157.810957 
L 434.466234 114.989007 
L 434.828571 105.683031 
L 435.190909 103.889759 
L 435.553247 110.942959 
L 435.915584 100.965082 
L 436.277922 118.507363 
L 436.64026 143.090406 
L 437.002597 145.161237 
L 437.727273 155.457603 
L 438.451948 124.745262 
L 438.814286 122.845806 
L 439.176623 109.242926 
L 439.538961 128.378458 
L 439.901299 134.153364 
L 440.263636 138.088208 
L 440.625974 145.411304 
L 441.350649 189.580092 
L 441.712987 178.934028 
L 442.075325 176.991766 
L 442.8 129.301595 
L 443.524675 114.700678 
L 443.887013 109.989518 
L 444.249351 109.06937 
L 444.611688 117.435997 
L 444.974026 113.343051 
L 445.336364 122.371667 
L 445.698701 126.807797 
L 446.061039 132.761324 
L 446.423377 134.673057 
L 446.785714 134.954173 
L 447.148052 129.651464 
L 447.872727 110.546104 
L 448.235065 111.970767 
L 448.95974 131.154141 
L 449.322078 137.368279 
L 449.684416 132.249467 
L 450.046753 145.250093 
L 450.409091 142.427389 
L 450.771429 141.268137 
L 451.133766 134.836366 
L 451.496104 110.242897 
L 451.858442 112.965593 
L 452.220779 102.854276 
L 452.583117 99.109376 
L 452.945455 93.096674 
L 453.307792 100.602856 
L 453.67013 114.340769 
L 454.394805 126.431416 
L 454.757143 122.286058 
L 455.119481 126.567298 
L 455.481818 123.114382 
L 455.844156 109.620947 
L 456.206494 104.030186 
L 456.931169 112.819087 
L 457.293506 121.499087 
L 457.655844 120.42738 
L 458.018182 123.170028 
L 458.380519 131.771922 
L 458.742857 136.988856 
L 459.105195 134.597903 
L 459.467532 129.662574 
L 459.82987 122.367402 
L 460.192208 111.991882 
L 460.554545 109.188307 
L 460.916883 89.346207 
L 461.641558 100.987669 
L 462.003896 96.132982 
L 462.366234 104.412366 
L 462.728571 121.167509 
L 463.090909 116.846897 
L 463.453247 126.707954 
L 463.815584 126.193652 
L 464.177922 113.031651 
L 464.54026 116.324419 
L 464.902597 101.638949 
L 465.264935 110.245908 
L 465.627273 103.501706 
L 465.98961 110.578334 
L 466.351948 123.95359 
L 466.714286 127.689748 
L 467.076623 128.004058 
L 467.438961 140.186666 
L 467.801299 136.01491 
L 468.163636 134.299791 
L 468.525974 131.05507 
L 468.888312 115.207677 
L 469.975325 89.537032 
L 470.7 95.424442 
L 471.424675 116.21989 
L 471.787013 120.515438 
L 472.149351 126.829793 
L 472.511688 129.570148 
L 472.874026 114.977878 
L 473.236364 120.648288 
L 473.961039 109.47302 
L 474.323377 112.255651 
L 474.685714 118.300327 
L 475.048052 116.363398 
L 475.41039 131.409435 
L 475.772727 139.998223 
L 476.135065 138.183788 
L 476.497403 135.786144 
L 476.85974 130.952294 
L 477.222078 130.557496 
L 477.584416 127.135401 
L 477.946753 108.948895 
L 478.309091 106.181483 
L 478.671429 105.597821 
L 479.033766 94.600813 
L 479.396104 102.495099 
L 479.758442 105.341227 
L 480.120779 122.179988 
L 480.483117 125.269117 
L 480.845455 133.585747 
L 481.207792 133.818773 
L 481.57013 121.964167 
L 481.932468 133.288365 
L 482.294805 114.315389 
L 482.657143 115.510936 
L 483.019481 104.144148 
L 483.381818 122.413531 
L 484.106494 135.792584 
L 484.468831 146.163732 
L 484.831169 137.83637 
L 485.193506 143.598387 
L 485.918182 132.245982 
L 486.280519 121.025171 
L 486.642857 114.146981 
L 487.367532 107.536539 
L 487.72987 96.14415 
L 488.454545 115.045908 
L 488.816883 125.601595 
L 489.179221 127.610588 
L 489.541558 138.073151 
L 489.903896 130.923611 
L 490.628571 122.145247 
L 490.990909 109.333734 
L 491.353247 112.879742 
L 491.715584 106.504889 
L 492.077922 115.753506 
L 492.44026 120.621219 
L 493.164935 134.026151 
L 493.527273 138.842928 
L 493.88961 136.407806 
L 494.251948 135.669485 
L 494.614286 123.46524 
L 494.976623 115.099431 
L 495.338961 99.669812 
L 495.701299 101.216749 
L 496.063636 81.728347 
L 496.425974 97.96762 
L 496.788312 90.21003 
L 497.150649 114.867174 
L 497.512987 116.774876 
L 497.875325 115.276034 
L 498.237662 115.095356 
L 498.6 127.978976 
L 498.962338 109.203725 
L 499.324675 103.913979 
L 499.687013 110.615962 
L 500.411688 103.745749 
L 500.774026 107.929158 
L 501.136364 123.5518 
L 501.498701 122.425742 
L 501.861039 132.174252 
L 502.223377 129.739933 
L 502.585714 130.931931 
L 502.948052 132.918844 
L 503.31039 121.266845 
L 503.672727 103.032142 
L 504.397403 82.005242 
L 504.75974 85.104416 
L 505.122078 81.669247 
L 505.484416 81.252867 
L 505.846753 99.994617 
L 506.209091 97.38617 
L 506.571429 113.095165 
L 506.933766 111.647198 
L 507.296104 113.144102 
L 507.658442 104.061784 
L 508.020779 103.17687 
L 508.383117 93.838589 
L 508.745455 95.479203 
L 509.107792 86.980885 
L 509.47013 90.616215 
L 509.832468 104.642795 
L 510.194805 108.450064 
L 510.557143 121.150127 
L 510.919481 121.07236 
L 511.281818 120.222065 
L 511.644156 118.228208 
L 512.006494 111.467197 
L 512.731169 86.912537 
L 513.093506 79.10219 
L 513.455844 76.214386 
L 513.818182 81.769504 
L 514.180519 73.32409 
L 514.542857 87.024678 
L 514.905195 94.683396 
L 515.267532 98.508146 
L 515.62987 110.652172 
L 515.992208 101.68989 
L 516.354545 101.18556 
L 516.716883 91.384589 
L 517.079221 95.869224 
L 517.441558 87.87165 
L 517.803896 86.299802 
L 518.166234 96.317154 
L 518.528571 95.951874 
L 518.890909 101.46576 
L 519.253247 105.235308 
L 519.615584 107.385299 
L 519.977922 107.701522 
L 520.34026 103.279936 
L 520.702597 104.348112 
L 521.427273 95.084508 
L 521.78961 95.095866 
L 522.151948 92.44118 
L 522.514286 96.854483 
L 522.876623 95.701058 
L 523.238961 99.109665 
L 523.601299 101.29488 
L 523.963636 101.03424 
L 524.325974 103.573732 
L 524.688312 104.796044 
L 525.050649 103.856218 
L 525.412987 102.418319 
L 525.775325 99.55487 
L 526.137662 101.944798 
L 526.5 99.229452 
L 526.862338 101.970788 
L 527.224675 101.577681 
L 527.949351 108.565479 
L 528.674026 111.267411 
L 529.036364 110.68371 
L 530.123377 101.467386 
L 530.485714 99.2738 
L 530.848052 96.202583 
L 531.21039 97.623349 
L 531.572727 96.446726 
L 532.65974 107.735574 
L 533.022078 109.173298 
L 533.384416 104.612824 
L 533.746753 106.862175 
L 534.109091 106.980189 
L 534.471429 103.143331 
L 534.833766 104.203412 
L 535.196104 101.463397 
L 535.920779 106.659863 
L 536.283117 110.7113 
L 536.645455 111.453666 
L 537.007792 112.861864 
L 537.37013 111.576913 
L 537.732468 113.157096 
L 539.544156 97.442537 
L 539.906494 101.469354 
L 540.268831 103.983651 
L 540.631169 103.245186 
L 540.993506 109.175544 
L 541.718182 112.949057 
L 542.442857 108.095316 
L 542.805195 107.960026 
L 543.167532 108.807312 
L 543.892208 107.46822 
L 544.254545 107.915062 
L 544.616883 109.174292 
L 544.979221 113.604716 
L 545.703896 117.876892 
L 546.066234 117.646481 
L 546.428571 117.039104 
L 547.153247 107.729733 
L 547.515584 106.075656 
L 547.877922 105.455006 
L 548.24026 100.350347 
L 548.602597 105.664159 
L 548.964935 103.151811 
L 549.327273 107.750506 
L 549.68961 108.236886 
L 550.051948 113.646 
L 550.414286 111.312939 
L 550.776623 112.480084 
L 551.138961 113.005703 
L 551.501299 125.038362 
L 551.863636 110.522293 
L 552.225974 107.813646 
L 552.588312 110.615642 
L 552.950649 111.021243 
L 553.312987 112.440351 
L 553.675325 113.059692 
L 554.037662 115.823428 
L 554.762338 117.369553 
L 555.487013 114.295285 
L 555.849351 112.88961 
L 556.211688 103.879289 
L 556.574026 105.19949 
L 556.936364 103.165454 
L 557.298701 103.723926 
L 557.661039 103.707117 
L 558.023377 106.772184 
L 558.748052 115.376584 
L 559.11039 115.98584 
L 559.472727 112.693402 
L 559.835065 113.564587 
L 560.197403 112.002925 
L 560.55974 107.195863 
L 560.922078 106.945921 
L 561.284416 105.624542 
L 561.646753 111.101244 
L 562.009091 110.761519 
L 562.371429 116.546451 
L 562.733766 115.639231 
L 563.458442 119.227488 
L 563.820779 117.780391 
L 564.545455 109.573361 
L 564.907792 108.473823 
L 565.632468 104.571596 
L 565.994805 103.300142 
L 566.357143 106.572969 
L 566.719481 106.974914 
L 567.081818 110.773632 
L 567.444156 112.361737 
L 567.806494 111.692445 
L 568.168831 116.143326 
L 568.531169 111.656546 
L 568.893506 109.545813 
L 569.255844 106.684098 
L 569.618182 109.571551 
L 569.980519 108.000081 
L 570.342857 104.548803 
L 570.705195 111.052025 
L 571.067532 114.347685 
L 571.792208 118.428726 
L 572.154545 114.769741 
L 572.516883 114.711601 
L 572.879221 114.173159 
L 573.241558 110.576439 
L 573.603896 104.96969 
L 573.966234 102.699705 
L 574.328571 103.959956 
L 574.690909 104.558865 
L 575.415584 106.340977 
L 575.777922 108.59474 
L 576.14026 114.65173 
L 576.502597 113.130532 
L 576.864935 113.969329 
L 577.951948 109.588723 
L 578.314286 107.136933 
L 578.676623 106.59756 
L 579.038961 106.956322 
L 579.401299 111.316904 
L 579.763636 113.083138 
L 580.125974 118.610064 
L 580.850649 120.014116 
L 581.575325 115.574049 
L 581.937662 109.991612 
L 582.3 107.507708 
L 582.662338 107.302264 
L 583.024675 104.050182 
L 583.387013 102.320531 
L 583.749351 104.797671 
L 584.111688 110.681574 
L 584.474026 110.130263 
L 585.198701 117.128243 
L 585.561039 113.802307 
L 585.923377 114.871659 
L 586.285714 112.150276 
L 586.648052 113.527566 
L 587.01039 109.32246 
L 587.372727 109.109936 
L 587.735065 110.945495 
L 588.45974 117.518903 
L 588.822078 118.695143 
L 589.184416 121.336373 
L 589.546753 118.931593 
L 589.909091 119.52331 
L 590.271429 118.489417 
L 590.633766 115.078657 
L 590.996104 113.847449 
L 591.720779 106.335066 
L 592.083117 105.171725 
L 592.445455 108.698621 
L 592.807792 115.826779 
L 593.17013 113.780701 
L 593.532468 120.297758 
L 593.894805 117.725684 
L 594.257143 118.939326 
L 594.619481 120.584739 
L 594.981818 116.34801 
L 595.706494 111.031142 
L 596.068831 113.932409 
L 596.431169 115.89063 
L 596.793506 117.012415 
L 597.518182 123.114294 
L 597.880519 121.478649 
L 598.242857 125.625113 
L 598.967532 122.098104 
L 599.32987 118.238678 
L 599.692208 116.725922 
L 600.416883 108.685359 
L 601.141558 114.364876 
L 601.503896 116.028145 
L 601.866234 116.148621 
L 602.228571 121.184267 
L 602.590909 122.443399 
L 602.953247 122.41391 
L 603.315584 122.759268 
L 603.677922 119.486238 
L 604.04026 117.259766 
L 604.402597 117.886588 
L 604.764935 117.589759 
L 605.127273 121.01717 
L 605.48961 123.327413 
L 605.851948 126.919754 
L 606.214286 125.74267 
L 606.576623 127.854842 
L 606.938961 128.192767 
L 607.301299 125.336916 
L 607.663636 125.229249 
L 609.112987 112.333494 
L 609.475325 113.849006 
L 609.837662 119.190966 
L 610.2 117.761091 
L 610.562338 120.305282 
L 611.287013 122.112272 
L 611.649351 125.541571 
L 612.011688 124.0937 
L 612.736364 119.919585 
L 613.461039 117.693619 
L 613.823377 121.583295 
L 614.185714 121.577103 
L 614.91039 129.393259 
L 615.272727 126.563534 
L 615.635065 130.441123 
L 615.997403 130.01838 
L 616.722078 118.930848 
L 617.084416 118.199042 
L 617.446753 113.36622 
L 617.809091 116.020127 
L 618.171429 115.005666 
L 618.533766 116.068021 
L 618.896104 117.62117 
L 619.620779 125.742229 
L 619.983117 124.476182 
L 620.345455 126.52739 
L 620.707792 124.215666 
L 621.07013 120.747895 
L 621.432468 119.248402 
L 621.794805 120.105154 
L 622.157143 119.404122 
L 622.519481 120.14197 
L 622.881818 121.332727 
L 623.244156 126.557329 
L 623.606494 127.504742 
L 623.968831 128.820066 
L 624.331169 129.042782 
L 624.693506 130.245482 
L 625.055844 123.314375 
L 625.780519 118.4848 
L 626.142857 114.806633 
L 626.505195 117.205185 
L 626.867532 116.799503 
L 627.22987 114.628186 
L 627.592208 117.201687 
L 627.954545 121.817036 
L 628.316883 124.132114 
L 628.679221 122.160024 
L 629.041558 123.447855 
L 629.766234 121.327998 
L 630.128571 120.606498 
L 630.490909 118.808247 
L 630.853247 115.808871 
L 631.577922 122.532389 
L 631.94026 124.873186 
L 632.302597 128.85756 
L 632.664935 130.581065 
L 633.027273 128.497483 
L 633.38961 129.058977 
L 634.838961 115.883494 
L 635.201299 115.986655 
L 635.563636 114.556196 
L 635.925974 116.211639 
L 636.288312 120.972644 
L 636.650649 121.880746 
L 637.012987 120.921081 
L 637.375325 124.048722 
L 637.737662 124.544584 
L 638.1 123.365204 
L 638.462338 122.848047 
L 638.824675 118.180586 
L 639.187013 120.519815 
L 639.549351 118.343089 
L 640.274026 125.625669 
L 640.636364 124.75684 
L 640.998701 128.772425 
L 641.361039 127.631408 
L 641.723377 129.380205 
L 642.085714 129.306046 
L 643.535065 115.374865 
L 643.897403 116.039538 
L 644.25974 115.070956 
L 644.622078 116.424265 
L 645.709091 124.847505 
L 646.433766 127.858901 
L 646.796104 127.527225 
L 647.520779 120.165477 
L 648.245455 119.774587 
L 648.607792 120.42012 
L 648.97013 124.114524 
L 649.332468 124.433271 
L 649.694805 131.180442 
L 650.057143 134.115789 
L 650.419481 131.316018 
L 650.781818 130.388485 
L 651.144156 131.342364 
L 651.868831 120.660805 
L 652.231169 120.593339 
L 652.593506 118.131457 
L 652.955844 119.758852 
L 653.318182 122.103459 
L 653.680519 123.443024 
L 654.042857 126.54601 
L 654.405195 132.242127 
L 654.767532 129.581897 
L 655.12987 125.590977 
L 655.492208 129.896662 
L 655.854545 125.406149 
L 656.216883 125.072986 
L 656.579221 125.454221 
L 656.941558 122.470185 
L 657.303896 125.611476 
L 657.666234 127.544316 
L 658.028571 130.701686 
L 658.390909 136.090797 
L 658.753247 136.804765 
L 659.115584 136.767062 
L 659.477922 134.959071 
L 659.84026 132.308809 
L 660.202597 130.728407 
L 660.564935 126.962309 
L 661.651948 120.584504 
L 662.376623 124.457647 
L 662.738961 131.453261 
L 663.101299 133.99852 
L 663.463636 134.193719 
L 663.825974 133.048132 
L 664.188312 135.190504 
L 664.550649 130.394459 
L 664.912987 129.617715 
L 665.275325 126.15572 
L 666 130.97671 
L 666.362338 131.98568 
L 666.724675 136.795979 
L 667.087013 139.021702 
L 667.449351 140.178071 
L 667.811688 140.367777 
L 668.174026 135.896668 
L 668.898701 130.953183 
L 669.261039 131.060889 
L 669.985714 123.257956 
L 670.348052 126.632224 
L 670.71039 125.985666 
L 671.435065 131.492792 
L 671.797403 136.866243 
L 672.15974 136.505387 
L 672.522078 136.30279 
L 672.884416 133.947464 
L 673.246753 133.433571 
L 674.333766 128.256575 
L 674.696104 130.798276 
L 675.420779 139.826475 
L 675.783117 140.872305 
L 676.145455 139.152821 
L 676.507792 139.370143 
L 676.87013 138.856857 
L 677.232468 133.729725 
L 677.594805 134.563183 
L 677.957143 126.179954 
L 678.319481 126.442928 
L 678.681818 123.93392 
L 679.044156 126.319882 
L 679.406494 126.010541 
L 679.768831 131.489534 
L 680.131169 130.702587 
L 681.218182 138.348527 
L 681.580519 136.259468 
L 681.942857 131.49524 
L 682.305195 131.491467 
L 682.667532 129.786744 
L 683.02987 131.199157 
L 683.392208 131.26765 
L 683.754545 134.225284 
L 684.116883 136.047212 
L 684.479221 139.847903 
L 684.841558 141.16366 
L 685.203896 141.877898 
L 685.566234 137.515138 
L 685.928571 135.776403 
L 686.290909 133.185743 
L 686.653247 129.292344 
L 687.015584 128.802943 
L 687.377922 124.762812 
L 687.74026 128.084322 
L 688.102597 127.923634 
L 688.464935 128.81578 
L 688.827273 132.191009 
L 689.18961 134.397675 
L 689.914286 137.040888 
L 690.276623 133.062629 
L 691.001299 133.169172 
L 691.363636 127.906097 
L 691.725974 131.996582 
L 692.088312 131.526868 
L 692.450649 135.777958 
L 692.812987 133.285372 
L 693.175325 139.537875 
L 693.537662 139.703793 
L 693.9 139.628515 
L 694.262338 139.426039 
L 694.624675 135.610152 
L 694.987013 133.862519 
L 695.711688 126.648338 
L 696.074026 124.178563 
L 696.798701 125.663375 
L 697.161039 126.088748 
L 697.523377 132.288421 
L 697.885714 132.690689 
L 698.248052 132.760538 
L 698.61039 139.223624 
L 698.972727 134.426622 
L 699.335065 131.812805 
L 699.697403 132.369218 
L 700.05974 128.10763 
L 700.422078 131.394391 
L 700.784416 131.879462 
L 701.146753 133.934904 
L 701.509091 136.968425 
L 702.233766 140.971723 
L 702.596104 141.964322 
L 702.958442 137.646291 
L 703.320779 135.395348 
L 703.683117 133.981502 
L 704.045455 134.880009 
L 704.407792 127.283524 
L 704.77013 127.958319 
L 705.132468 126.478618 
L 705.494805 130.250129 
L 705.857143 129.620722 
L 706.219481 134.629134 
L 706.581818 135.122877 
L 706.944156 138.126001 
L 707.306494 137.577491 
L 707.668831 137.295598 
L 708.031169 136.852137 
L 708.755844 131.45165 
L 709.118182 132.986952 
L 709.480519 131.054592 
L 709.842857 133.053393 
L 710.92987 145.243267 
L 711.292208 145.009916 
L 711.654545 142.571873 
L 712.016883 143.449488 
L 712.379221 133.748915 
L 712.741558 130.797416 
L 713.103896 131.703144 
L 713.466234 127.991351 
L 713.828571 129.523312 
L 714.190909 131.814221 
L 714.553247 135.442241 
L 714.915584 136.334328 
L 715.277922 136.034925 
L 715.64026 136.189216 
L 716.002597 141.77674 
L 716.364935 140.965545 
L 716.727273 142.155643 
L 717.08961 140.147673 
L 717.451948 136.218154 
L 717.814286 135.627693 
L 718.176623 135.76048 
L 718.538961 140.596253 
L 719.263636 146.258321 
L 719.625974 147.792163 
L 719.988312 148.720714 
L 720.350649 144.643722 
L 720.712987 145.444286 
L 721.8 132.296428 
L 722.162338 130.402 
L 722.524675 133.510086 
L 722.887013 133.687509 
L 723.249351 135.766713 
L 723.611688 138.497534 
L 723.974026 142.111015 
L 724.698701 146.575491 
L 725.423377 141.452374 
L 725.785714 140.586924 
L 726.148052 137.222305 
L 726.51039 141.306276 
L 726.872727 141.180022 
L 727.235065 143.166046 
L 727.597403 146.773544 
L 727.95974 148.46385 
L 728.322078 149.313945 
L 728.684416 150.469042 
L 729.409091 148.463425 
L 729.771429 142.654594 
L 730.133766 139.181059 
L 730.858442 137.51627 
L 731.220779 134.960862 
L 731.583117 135.96827 
L 732.67013 146.403184 
L 733.032468 146.466281 
L 733.394805 146.798063 
L 733.757143 145.280397 
L 734.119481 145.474703 
L 734.481818 144.71816 
L 734.844156 141.738643 
L 735.206494 143.814747 
L 735.568831 144.529084 
L 735.931169 143.417688 
L 736.293506 146.506703 
L 736.655844 151.621016 
L 737.018182 150.761083 
L 737.380519 152.870665 
L 738.105195 144.827337 
L 738.467532 146.859959 
L 738.82987 140.88098 
L 739.192208 137.064142 
L 739.554545 137.500153 
L 739.916883 133.5677 
L 740.279221 135.717403 
L 740.641558 140.116121 
L 741.366234 145.735689 
L 741.728571 144.249121 
L 742.090909 143.973927 
L 742.453247 147.764187 
L 743.177922 142.133514 
L 743.54026 141.603579 
L 743.902597 143.901412 
L 744.264935 143.396034 
L 744.98961 148.837859 
L 745.351948 148.326828 
L 745.714286 152.215204 
L 746.076623 151.756563 
L 746.438961 151.807967 
L 746.801299 145.974917 
L 746.801299 145.974917 
" style="fill:none;stroke:#1f77b4;stroke-linecap:square;stroke-width:1.5;"/>
   </g>
   <g id="line2d_15">
    <path clip-path="url(#p092ba5b6b0)" d="M 747.163636 384.48 
L 747.163636 51.84 
" style="fill:none;stroke:#808080;stroke-linecap:square;"/>
   </g>
   <g id="patch_107">
    <path d="M 108 384.48 
L 108 51.84 
" style="fill:none;stroke:#000000;stroke-linecap:square;stroke-linejoin:miter;stroke-width:0.8;"/>
   </g>
   <g id="patch_108">
    <path d="M 777.6 384.48 
L 777.6 51.84 
" style="fill:none;stroke:#000000;stroke-linecap:square;stroke-linejoin:miter;stroke-width:0.8;"/>
   </g>
   <g id="patch_109">
    <path d="M 108 384.48 
L 777.6 384.48 
" style="fill:none;stroke:#000000;stroke-linecap:square;stroke-linejoin:miter;stroke-width:0.8;"/>
   </g>
   <g id="patch_110">
    <path d="M 108 51.84 
L 777.6 51.84 
" style="fill:none;stroke:#000000;stroke-linecap:square;stroke-linejoin:miter;stroke-width:0.8;"/>
   </g>
   <g id="text_16">
    <!-- A4Benchmark-TS79.csv -->
    <defs>
     <path d="M 34.1875 63.1875 
L 20.796875 26.90625 
L 47.609375 26.90625 
z
M 28.609375 72.90625 
L 39.796875 72.90625 
L 67.578125 0 
L 57.328125 0 
L 50.6875 18.703125 
L 17.828125 18.703125 
L 11.1875 0 
L 0.78125 0 
z
" id="DejaVuSans-65"/>
     <path d="M 37.796875 64.3125 
L 12.890625 25.390625 
L 37.796875 25.390625 
z
M 35.203125 72.90625 
L 47.609375 72.90625 
L 47.609375 25.390625 
L 58.015625 25.390625 
L 58.015625 17.1875 
L 47.609375 17.1875 
L 47.609375 0 
L 37.796875 0 
L 37.796875 17.1875 
L 4.890625 17.1875 
L 4.890625 26.703125 
z
" id="DejaVuSans-52"/>
     <path d="M 19.671875 34.8125 
L 19.671875 8.109375 
L 35.5 8.109375 
Q 43.453125 8.109375 47.28125 11.40625 
Q 51.125 14.703125 51.125 21.484375 
Q 51.125 28.328125 47.28125 31.5625 
Q 43.453125 34.8125 35.5 34.8125 
z
M 19.671875 64.796875 
L 19.671875 42.828125 
L 34.28125 42.828125 
Q 41.5 42.828125 45.03125 45.53125 
Q 48.578125 48.25 48.578125 53.8125 
Q 48.578125 59.328125 45.03125 62.0625 
Q 41.5 64.796875 34.28125 64.796875 
z
M 9.8125 72.90625 
L 35.015625 72.90625 
Q 46.296875 72.90625 52.390625 68.21875 
Q 58.5 63.53125 58.5 54.890625 
Q 58.5 48.1875 55.375 44.234375 
Q 52.25 40.28125 46.1875 39.3125 
Q 53.46875 37.75 57.5 32.78125 
Q 61.53125 27.828125 61.53125 20.40625 
Q 61.53125 10.640625 54.890625 5.3125 
Q 48.25 0 35.984375 0 
L 9.8125 0 
z
" id="DejaVuSans-66"/>
     <path d="M 54.890625 33.015625 
L 54.890625 0 
L 45.90625 0 
L 45.90625 32.71875 
Q 45.90625 40.484375 42.875 44.328125 
Q 39.84375 48.1875 33.796875 48.1875 
Q 26.515625 48.1875 22.3125 43.546875 
Q 18.109375 38.921875 18.109375 30.90625 
L 18.109375 0 
L 9.078125 0 
L 9.078125 54.6875 
L 18.109375 54.6875 
L 18.109375 46.1875 
Q 21.34375 51.125 25.703125 53.5625 
Q 30.078125 56 35.796875 56 
Q 45.21875 56 50.046875 50.171875 
Q 54.890625 44.34375 54.890625 33.015625 
z
" id="DejaVuSans-110"/>
     <path d="M 48.78125 52.59375 
L 48.78125 44.1875 
Q 44.96875 46.296875 41.140625 47.34375 
Q 37.3125 48.390625 33.40625 48.390625 
Q 24.65625 48.390625 19.8125 42.84375 
Q 14.984375 37.3125 14.984375 27.296875 
Q 14.984375 17.28125 19.8125 11.734375 
Q 24.65625 6.203125 33.40625 6.203125 
Q 37.3125 6.203125 41.140625 7.25 
Q 44.96875 8.296875 48.78125 10.40625 
L 48.78125 2.09375 
Q 45.015625 0.34375 40.984375 -0.53125 
Q 36.96875 -1.421875 32.421875 -1.421875 
Q 20.0625 -1.421875 12.78125 6.34375 
Q 5.515625 14.109375 5.515625 27.296875 
Q 5.515625 40.671875 12.859375 48.328125 
Q 20.21875 56 33.015625 56 
Q 37.15625 56 41.109375 55.140625 
Q 45.0625 54.296875 48.78125 52.59375 
z
" id="DejaVuSans-99"/>
     <path d="M 54.890625 33.015625 
L 54.890625 0 
L 45.90625 0 
L 45.90625 32.71875 
Q 45.90625 40.484375 42.875 44.328125 
Q 39.84375 48.1875 33.796875 48.1875 
Q 26.515625 48.1875 22.3125 43.546875 
Q 18.109375 38.921875 18.109375 30.90625 
L 18.109375 0 
L 9.078125 0 
L 9.078125 75.984375 
L 18.109375 75.984375 
L 18.109375 46.1875 
Q 21.34375 51.125 25.703125 53.5625 
Q 30.078125 56 35.796875 56 
Q 45.21875 56 50.046875 50.171875 
Q 54.890625 44.34375 54.890625 33.015625 
z
" id="DejaVuSans-104"/>
     <path d="M 41.109375 46.296875 
Q 39.59375 47.171875 37.8125 47.578125 
Q 36.03125 48 33.890625 48 
Q 26.265625 48 22.1875 43.046875 
Q 18.109375 38.09375 18.109375 28.8125 
L 18.109375 0 
L 9.078125 0 
L 9.078125 54.6875 
L 18.109375 54.6875 
L 18.109375 46.1875 
Q 20.953125 51.171875 25.484375 53.578125 
Q 30.03125 56 36.53125 56 
Q 37.453125 56 38.578125 55.875 
Q 39.703125 55.765625 41.0625 55.515625 
z
" id="DejaVuSans-114"/>
     <path d="M 9.078125 75.984375 
L 18.109375 75.984375 
L 18.109375 31.109375 
L 44.921875 54.6875 
L 56.390625 54.6875 
L 27.390625 29.109375 
L 57.625 0 
L 45.90625 0 
L 18.109375 26.703125 
L 18.109375 0 
L 9.078125 0 
z
" id="DejaVuSans-107"/>
     <path d="M 4.890625 31.390625 
L 31.203125 31.390625 
L 31.203125 23.390625 
L 4.890625 23.390625 
z
" id="DejaVuSans-45"/>
     <path d="M 53.515625 70.515625 
L 53.515625 60.890625 
Q 47.90625 63.578125 42.921875 64.890625 
Q 37.9375 66.21875 33.296875 66.21875 
Q 25.25 66.21875 20.875 63.09375 
Q 16.5 59.96875 16.5 54.203125 
Q 16.5 49.359375 19.40625 46.890625 
Q 22.3125 44.4375 30.421875 42.921875 
L 36.375 41.703125 
Q 47.40625 39.59375 52.65625 34.296875 
Q 57.90625 29 57.90625 20.125 
Q 57.90625 9.515625 50.796875 4.046875 
Q 43.703125 -1.421875 29.984375 -1.421875 
Q 24.8125 -1.421875 18.96875 -0.25 
Q 13.140625 0.921875 6.890625 3.21875 
L 6.890625 13.375 
Q 12.890625 10.015625 18.65625 8.296875 
Q 24.421875 6.59375 29.984375 6.59375 
Q 38.421875 6.59375 43.015625 9.90625 
Q 47.609375 13.234375 47.609375 19.390625 
Q 47.609375 24.75 44.3125 27.78125 
Q 41.015625 30.8125 33.5 32.328125 
L 27.484375 33.5 
Q 16.453125 35.6875 11.515625 40.375 
Q 6.59375 45.0625 6.59375 53.421875 
Q 6.59375 63.09375 13.40625 68.65625 
Q 20.21875 74.21875 32.171875 74.21875 
Q 37.3125 74.21875 42.625 73.28125 
Q 47.953125 72.359375 53.515625 70.515625 
z
" id="DejaVuSans-83"/>
     <path d="M 10.984375 1.515625 
L 10.984375 10.5 
Q 14.703125 8.734375 18.5 7.8125 
Q 22.3125 6.890625 25.984375 6.890625 
Q 35.75 6.890625 40.890625 13.453125 
Q 46.046875 20.015625 46.78125 33.40625 
Q 43.953125 29.203125 39.59375 26.953125 
Q 35.25 24.703125 29.984375 24.703125 
Q 19.046875 24.703125 12.671875 31.3125 
Q 6.296875 37.9375 6.296875 49.421875 
Q 6.296875 60.640625 12.9375 67.421875 
Q 19.578125 74.21875 30.609375 74.21875 
Q 43.265625 74.21875 49.921875 64.515625 
Q 56.59375 54.828125 56.59375 36.375 
Q 56.59375 19.140625 48.40625 8.859375 
Q 40.234375 -1.421875 26.421875 -1.421875 
Q 22.703125 -1.421875 18.890625 -0.6875 
Q 15.09375 0.046875 10.984375 1.515625 
z
M 30.609375 32.421875 
Q 37.25 32.421875 41.125 36.953125 
Q 45.015625 41.5 45.015625 49.421875 
Q 45.015625 57.28125 41.125 61.84375 
Q 37.25 66.40625 30.609375 66.40625 
Q 23.96875 66.40625 20.09375 61.84375 
Q 16.21875 57.28125 16.21875 49.421875 
Q 16.21875 41.5 20.09375 36.953125 
Q 23.96875 32.421875 30.609375 32.421875 
z
" id="DejaVuSans-57"/>
     <path d="M 10.6875 12.40625 
L 21 12.40625 
L 21 0 
L 10.6875 0 
z
" id="DejaVuSans-46"/>
     <path d="M 2.984375 54.6875 
L 12.5 54.6875 
L 29.59375 8.796875 
L 46.6875 54.6875 
L 56.203125 54.6875 
L 35.6875 0 
L 23.484375 0 
z
" id="DejaVuSans-118"/>
    </defs>
    <g transform="translate(371.555625 45.84)scale(0.12 -0.12)">
     <use xlink:href="#DejaVuSans-65"/>
     <use x="68.408203" xlink:href="#DejaVuSans-52"/>
     <use x="132.03125" xlink:href="#DejaVuSans-66"/>
     <use x="200.634766" xlink:href="#DejaVuSans-101"/>
     <use x="262.158203" xlink:href="#DejaVuSans-110"/>
     <use x="325.537109" xlink:href="#DejaVuSans-99"/>
     <use x="380.517578" xlink:href="#DejaVuSans-104"/>
     <use x="443.896484" xlink:href="#DejaVuSans-109"/>
     <use x="541.308594" xlink:href="#DejaVuSans-97"/>
     <use x="602.587891" xlink:href="#DejaVuSans-114"/>
     <use x="643.701172" xlink:href="#DejaVuSans-107"/>
     <use x="701.611328" xlink:href="#DejaVuSans-45"/>
     <use x="737.554688" xlink:href="#DejaVuSans-84"/>
     <use x="798.638672" xlink:href="#DejaVuSans-83"/>
     <use x="862.115234" xlink:href="#DejaVuSans-55"/>
     <use x="925.738281" xlink:href="#DejaVuSans-57"/>
     <use x="989.361328" xlink:href="#DejaVuSans-46"/>
     <use x="1021.148438" xlink:href="#DejaVuSans-99"/>
     <use x="1076.128906" xlink:href="#DejaVuSans-115"/>
     <use x="1128.228516" xlink:href="#DejaVuSans-118"/>
    </g>
   </g>
   <g id="legend_1">
    <g id="patch_111">
     <path d="M 711.284375 74.518125 
L 770.6 74.518125 
Q 772.6 74.518125 772.6 72.518125 
L 772.6 58.84 
Q 772.6 56.84 770.6 56.84 
L 711.284375 56.84 
Q 709.284375 56.84 709.284375 58.84 
L 709.284375 72.518125 
Q 709.284375 74.518125 711.284375 74.518125 
z
" style="fill:#ffffff;opacity:0.8;stroke:#cccccc;stroke-linejoin:miter;"/>
    </g>
    <g id="line2d_16">
     <path d="M 713.284375 64.938438 
L 733.284375 64.938438 
" style="fill:none;stroke:#1f77b4;stroke-linecap:square;stroke-width:1.5;"/>
    </g>
    <g id="line2d_17"/>
    <g id="text_17">
     <!-- value -->
     <g transform="translate(741.284375 68.438438)scale(0.1 -0.1)">
      <use xlink:href="#DejaVuSans-118"/>
      <use x="59.179688" xlink:href="#DejaVuSans-97"/>
      <use x="120.458984" xlink:href="#DejaVuSans-108"/>
      <use x="148.242188" xlink:href="#DejaVuSans-117"/>
      <use x="211.621094" xlink:href="#DejaVuSans-101"/>
     </g>
    </g>
   </g>
  </g>
 </g>
 <defs>
  <clipPath id="p092ba5b6b0">
   <rect height="332.64" width="669.6" x="108" y="51.84"/>
  </clipPath>
 </defs>
</svg>
