<?xml version="1.0" encoding="utf-8" standalone="no"?>
<!DOCTYPE svg PUBLIC "-//W3C//DTD SVG 1.1//EN"
  "http://www.w3.org/Graphics/SVG/1.1/DTD/svg11.dtd">
<!-- Created with matplotlib (https://matplotlib.org/) -->
<svg height="432pt" version="1.1" viewBox="0 0 864 432" width="864pt" xmlns="http://www.w3.org/2000/svg" xmlns:xlink="http://www.w3.org/1999/xlink">
 <defs>
  <style type="text/css">
*{stroke-linecap:butt;stroke-linejoin:round;}
  </style>
 </defs>
 <g id="figure_1">
  <g id="patch_1">
   <path d="M 0 432 
L 864 432 
L 864 0 
L 0 0 
z
" style="fill:#ffffff;"/>
  </g>
  <g id="axes_1">
   <g id="patch_2">
    <path d="M 108 384.48 
L 777.6 384.48 
L 777.6 51.84 
L 108 51.84 
z
" style="fill:#ffffff;"/>
   </g>
   <g id="patch_3">
    <path clip-path="url(#pb0d03654d6)" d="M 138.436364 384.48 
L 138.436364 51.84 
L 381.202597 51.84 
L 381.202597 384.48 
z
" style="fill:#0000ff;opacity:0.05;"/>
   </g>
   <g id="patch_4">
    <path clip-path="url(#pb0d03654d6)" d="M 381.202597 384.48 
L 381.202597 51.84 
L 747.163636 51.84 
L 747.163636 384.48 
z
" style="fill:#ff0000;opacity:0.08;"/>
   </g>
   <g id="patch_5">
    <path clip-path="url(#pb0d03654d6)" d="M 138.436364 384.48 
L 138.436364 51.84 
L 142.05974 51.84 
L 142.05974 384.48 
z
" style="fill:#008000;opacity:0.04;"/>
   </g>
   <g id="patch_6">
    <path clip-path="url(#pb0d03654d6)" d="M 138.436364 371.1744 
L 138.436364 51.84 
L 142.05974 51.84 
L 142.05974 371.1744 
z
" style="fill:#008000;opacity:0.5;"/>
   </g>
   <g id="patch_7">
    <path clip-path="url(#pb0d03654d6)" d="M 145.683117 384.48 
L 145.683117 51.84 
L 149.306494 51.84 
L 149.306494 384.48 
z
" style="fill:#008000;opacity:0.04;"/>
   </g>
   <g id="patch_8">
    <path clip-path="url(#pb0d03654d6)" d="M 152.92987 384.48 
L 152.92987 51.84 
L 156.553247 51.84 
L 156.553247 384.48 
z
" style="fill:#008000;opacity:0.04;"/>
   </g>
   <g id="patch_9">
    <path clip-path="url(#pb0d03654d6)" d="M 160.176623 384.48 
L 160.176623 51.84 
L 163.8 51.84 
L 163.8 384.48 
z
" style="fill:#008000;opacity:0.04;"/>
   </g>
   <g id="patch_10">
    <path clip-path="url(#pb0d03654d6)" d="M 167.423377 384.48 
L 167.423377 51.84 
L 171.046753 51.84 
L 171.046753 384.48 
z
" style="fill:#008000;opacity:0.04;"/>
   </g>
   <g id="patch_11">
    <path clip-path="url(#pb0d03654d6)" d="M 174.67013 384.48 
L 174.67013 51.84 
L 178.293506 51.84 
L 178.293506 384.48 
z
" style="fill:#008000;opacity:0.04;"/>
   </g>
   <g id="patch_12">
    <path clip-path="url(#pb0d03654d6)" d="M 181.916883 384.48 
L 181.916883 51.84 
L 185.54026 51.84 
L 185.54026 384.48 
z
" style="fill:#008000;opacity:0.04;"/>
   </g>
   <g id="patch_13">
    <path clip-path="url(#pb0d03654d6)" d="M 181.916883 371.1744 
L 181.916883 51.84 
L 185.54026 51.84 
L 185.54026 371.1744 
z
" style="fill:#008000;opacity:0.5;"/>
   </g>
   <g id="patch_14">
    <path clip-path="url(#pb0d03654d6)" d="M 189.163636 384.48 
L 189.163636 51.84 
L 192.787013 51.84 
L 192.787013 384.48 
z
" style="fill:#008000;opacity:0.04;"/>
   </g>
   <g id="patch_15">
    <path clip-path="url(#pb0d03654d6)" d="M 189.163636 371.1744 
L 189.163636 51.84 
L 192.787013 51.84 
L 192.787013 371.1744 
z
" style="fill:#008000;opacity:0.5;"/>
   </g>
   <g id="patch_16">
    <path clip-path="url(#pb0d03654d6)" d="M 196.41039 384.48 
L 196.41039 51.84 
L 200.033766 51.84 
L 200.033766 384.48 
z
" style="fill:#008000;opacity:0.04;"/>
   </g>
   <g id="patch_17">
    <path clip-path="url(#pb0d03654d6)" d="M 203.657143 384.48 
L 203.657143 51.84 
L 207.280519 51.84 
L 207.280519 384.48 
z
" style="fill:#008000;opacity:0.04;"/>
   </g>
   <g id="patch_18">
    <path clip-path="url(#pb0d03654d6)" d="M 210.903896 384.48 
L 210.903896 51.84 
L 214.527273 51.84 
L 214.527273 384.48 
z
" style="fill:#008000;opacity:0.04;"/>
   </g>
   <g id="patch_19">
    <path clip-path="url(#pb0d03654d6)" d="M 218.150649 384.48 
L 218.150649 51.84 
L 221.774026 51.84 
L 221.774026 384.48 
z
" style="fill:#008000;opacity:0.04;"/>
   </g>
   <g id="patch_20">
    <path clip-path="url(#pb0d03654d6)" d="M 225.397403 384.48 
L 225.397403 51.84 
L 229.020779 51.84 
L 229.020779 384.48 
z
" style="fill:#008000;opacity:0.04;"/>
   </g>
   <g id="patch_21">
    <path clip-path="url(#pb0d03654d6)" d="M 232.644156 384.48 
L 232.644156 51.84 
L 236.267532 51.84 
L 236.267532 384.48 
z
" style="fill:#008000;opacity:0.04;"/>
   </g>
   <g id="patch_22">
    <path clip-path="url(#pb0d03654d6)" d="M 239.890909 384.48 
L 239.890909 51.84 
L 243.514286 51.84 
L 243.514286 384.48 
z
" style="fill:#008000;opacity:0.04;"/>
   </g>
   <g id="patch_23">
    <path clip-path="url(#pb0d03654d6)" d="M 247.137662 384.48 
L 247.137662 51.84 
L 250.761039 51.84 
L 250.761039 384.48 
z
" style="fill:#008000;opacity:0.04;"/>
   </g>
   <g id="patch_24">
    <path clip-path="url(#pb0d03654d6)" d="M 254.384416 384.48 
L 254.384416 51.84 
L 258.007792 51.84 
L 258.007792 384.48 
z
" style="fill:#008000;opacity:0.04;"/>
   </g>
   <g id="patch_25">
    <path clip-path="url(#pb0d03654d6)" d="M 261.631169 384.48 
L 261.631169 51.84 
L 265.254545 51.84 
L 265.254545 384.48 
z
" style="fill:#008000;opacity:0.04;"/>
   </g>
   <g id="patch_26">
    <path clip-path="url(#pb0d03654d6)" d="M 268.877922 384.48 
L 268.877922 51.84 
L 272.501299 51.84 
L 272.501299 384.48 
z
" style="fill:#008000;opacity:0.04;"/>
   </g>
   <g id="patch_27">
    <path clip-path="url(#pb0d03654d6)" d="M 276.124675 384.48 
L 276.124675 51.84 
L 279.748052 51.84 
L 279.748052 384.48 
z
" style="fill:#008000;opacity:0.04;"/>
   </g>
   <g id="patch_28">
    <path clip-path="url(#pb0d03654d6)" d="M 283.371429 384.48 
L 283.371429 51.84 
L 286.994805 51.84 
L 286.994805 384.48 
z
" style="fill:#008000;opacity:0.04;"/>
   </g>
   <g id="patch_29">
    <path clip-path="url(#pb0d03654d6)" d="M 290.618182 384.48 
L 290.618182 51.84 
L 294.241558 51.84 
L 294.241558 384.48 
z
" style="fill:#008000;opacity:0.04;"/>
   </g>
   <g id="patch_30">
    <path clip-path="url(#pb0d03654d6)" d="M 297.864935 384.48 
L 297.864935 51.84 
L 301.488312 51.84 
L 301.488312 384.48 
z
" style="fill:#008000;opacity:0.04;"/>
   </g>
   <g id="patch_31">
    <path clip-path="url(#pb0d03654d6)" d="M 305.111688 384.48 
L 305.111688 51.84 
L 308.735065 51.84 
L 308.735065 384.48 
z
" style="fill:#008000;opacity:0.04;"/>
   </g>
   <g id="patch_32">
    <path clip-path="url(#pb0d03654d6)" d="M 312.358442 384.48 
L 312.358442 51.84 
L 315.981818 51.84 
L 315.981818 384.48 
z
" style="fill:#008000;opacity:0.04;"/>
   </g>
   <g id="patch_33">
    <path clip-path="url(#pb0d03654d6)" d="M 315.981818 371.1744 
L 315.981818 51.84 
L 319.605195 51.84 
L 319.605195 371.1744 
z
" style="fill:#008000;opacity:0.5;"/>
   </g>
   <g id="patch_34">
    <path clip-path="url(#pb0d03654d6)" d="M 319.605195 384.48 
L 319.605195 51.84 
L 323.228571 51.84 
L 323.228571 384.48 
z
" style="fill:#008000;opacity:0.04;"/>
   </g>
   <g id="patch_35">
    <path clip-path="url(#pb0d03654d6)" d="M 326.851948 384.48 
L 326.851948 51.84 
L 330.475325 51.84 
L 330.475325 384.48 
z
" style="fill:#008000;opacity:0.04;"/>
   </g>
   <g id="patch_36">
    <path clip-path="url(#pb0d03654d6)" d="M 334.098701 384.48 
L 334.098701 51.84 
L 337.722078 51.84 
L 337.722078 384.48 
z
" style="fill:#008000;opacity:0.04;"/>
   </g>
   <g id="patch_37">
    <path clip-path="url(#pb0d03654d6)" d="M 341.345455 384.48 
L 341.345455 51.84 
L 344.968831 51.84 
L 344.968831 384.48 
z
" style="fill:#008000;opacity:0.04;"/>
   </g>
   <g id="patch_38">
    <path clip-path="url(#pb0d03654d6)" d="M 348.592208 384.48 
L 348.592208 51.84 
L 352.215584 51.84 
L 352.215584 384.48 
z
" style="fill:#008000;opacity:0.04;"/>
   </g>
   <g id="patch_39">
    <path clip-path="url(#pb0d03654d6)" d="M 355.838961 384.48 
L 355.838961 51.84 
L 359.462338 51.84 
L 359.462338 384.48 
z
" style="fill:#008000;opacity:0.04;"/>
   </g>
   <g id="patch_40">
    <path clip-path="url(#pb0d03654d6)" d="M 363.085714 384.48 
L 363.085714 51.84 
L 366.709091 51.84 
L 366.709091 384.48 
z
" style="fill:#008000;opacity:0.04;"/>
   </g>
   <g id="patch_41">
    <path clip-path="url(#pb0d03654d6)" d="M 370.332468 384.48 
L 370.332468 51.84 
L 373.955844 51.84 
L 373.955844 384.48 
z
" style="fill:#008000;opacity:0.04;"/>
   </g>
   <g id="patch_42">
    <path clip-path="url(#pb0d03654d6)" d="M 377.579221 384.48 
L 377.579221 51.84 
L 381.202597 51.84 
L 381.202597 384.48 
z
" style="fill:#008000;opacity:0.04;"/>
   </g>
   <g id="patch_43">
    <path clip-path="url(#pb0d03654d6)" d="M 384.825974 384.48 
L 384.825974 51.84 
L 388.449351 51.84 
L 388.449351 384.48 
z
" style="fill:#008000;opacity:0.04;"/>
   </g>
   <g id="patch_44">
    <path clip-path="url(#pb0d03654d6)" d="M 392.072727 384.48 
L 392.072727 51.84 
L 395.696104 51.84 
L 395.696104 384.48 
z
" style="fill:#008000;opacity:0.04;"/>
   </g>
   <g id="patch_45">
    <path clip-path="url(#pb0d03654d6)" d="M 399.319481 384.48 
L 399.319481 51.84 
L 402.942857 51.84 
L 402.942857 384.48 
z
" style="fill:#008000;opacity:0.04;"/>
   </g>
   <g id="patch_46">
    <path clip-path="url(#pb0d03654d6)" d="M 406.566234 384.48 
L 406.566234 51.84 
L 410.18961 51.84 
L 410.18961 384.48 
z
" style="fill:#008000;opacity:0.04;"/>
   </g>
   <g id="patch_47">
    <path clip-path="url(#pb0d03654d6)" d="M 413.812987 384.48 
L 413.812987 51.84 
L 417.436364 51.84 
L 417.436364 384.48 
z
" style="fill:#008000;opacity:0.04;"/>
   </g>
   <g id="patch_48">
    <path clip-path="url(#pb0d03654d6)" d="M 421.05974 384.48 
L 421.05974 51.84 
L 424.683117 51.84 
L 424.683117 384.48 
z
" style="fill:#008000;opacity:0.04;"/>
   </g>
   <g id="patch_49">
    <path clip-path="url(#pb0d03654d6)" d="M 428.306494 384.48 
L 428.306494 51.84 
L 431.92987 51.84 
L 431.92987 384.48 
z
" style="fill:#008000;opacity:0.04;"/>
   </g>
   <g id="patch_50">
    <path clip-path="url(#pb0d03654d6)" d="M 431.92987 371.1744 
L 431.92987 51.84 
L 435.553247 51.84 
L 435.553247 371.1744 
z
" style="fill:#008000;opacity:0.5;"/>
   </g>
   <g id="patch_51">
    <path clip-path="url(#pb0d03654d6)" d="M 435.553247 384.48 
L 435.553247 51.84 
L 439.176623 51.84 
L 439.176623 384.48 
z
" style="fill:#008000;opacity:0.04;"/>
   </g>
   <g id="patch_52">
    <path clip-path="url(#pb0d03654d6)" d="M 439.176623 371.1744 
L 439.176623 51.84 
L 442.8 51.84 
L 442.8 371.1744 
z
" style="fill:#008000;opacity:0.5;"/>
   </g>
   <g id="patch_53">
    <path clip-path="url(#pb0d03654d6)" d="M 439.176623 371.1744 
L 439.176623 357.8688 
L 442.8 357.8688 
L 442.8 371.1744 
z
" style="fill:#ff00ff;"/>
   </g>
   <g id="patch_54">
    <path clip-path="url(#pb0d03654d6)" d="M 442.8 384.48 
L 442.8 51.84 
L 446.423377 51.84 
L 446.423377 384.48 
z
" style="fill:#008000;opacity:0.04;"/>
   </g>
   <g id="patch_55">
    <path clip-path="url(#pb0d03654d6)" d="M 450.046753 384.48 
L 450.046753 51.84 
L 453.67013 51.84 
L 453.67013 384.48 
z
" style="fill:#008000;opacity:0.04;"/>
   </g>
   <g id="patch_56">
    <path clip-path="url(#pb0d03654d6)" d="M 453.67013 371.1744 
L 453.67013 51.84 
L 457.293506 51.84 
L 457.293506 371.1744 
z
" style="fill:#008000;opacity:0.5;"/>
   </g>
   <g id="patch_57">
    <path clip-path="url(#pb0d03654d6)" d="M 457.293506 384.48 
L 457.293506 51.84 
L 460.916883 51.84 
L 460.916883 384.48 
z
" style="fill:#008000;opacity:0.04;"/>
   </g>
   <g id="patch_58">
    <path clip-path="url(#pb0d03654d6)" d="M 464.54026 384.48 
L 464.54026 51.84 
L 468.163636 51.84 
L 468.163636 384.48 
z
" style="fill:#008000;opacity:0.04;"/>
   </g>
   <g id="patch_59">
    <path clip-path="url(#pb0d03654d6)" d="M 471.787013 384.48 
L 471.787013 51.84 
L 475.41039 51.84 
L 475.41039 384.48 
z
" style="fill:#008000;opacity:0.04;"/>
   </g>
   <g id="patch_60">
    <path clip-path="url(#pb0d03654d6)" d="M 479.033766 384.48 
L 479.033766 51.84 
L 482.657143 51.84 
L 482.657143 384.48 
z
" style="fill:#008000;opacity:0.04;"/>
   </g>
   <g id="patch_61">
    <path clip-path="url(#pb0d03654d6)" d="M 486.280519 384.48 
L 486.280519 51.84 
L 489.903896 51.84 
L 489.903896 384.48 
z
" style="fill:#008000;opacity:0.04;"/>
   </g>
   <g id="patch_62">
    <path clip-path="url(#pb0d03654d6)" d="M 493.527273 384.48 
L 493.527273 51.84 
L 497.150649 51.84 
L 497.150649 384.48 
z
" style="fill:#008000;opacity:0.04;"/>
   </g>
   <g id="patch_63">
    <path clip-path="url(#pb0d03654d6)" d="M 500.774026 384.48 
L 500.774026 51.84 
L 504.397403 51.84 
L 504.397403 384.48 
z
" style="fill:#008000;opacity:0.04;"/>
   </g>
   <g id="patch_64">
    <path clip-path="url(#pb0d03654d6)" d="M 508.020779 384.48 
L 508.020779 51.84 
L 511.644156 51.84 
L 511.644156 384.48 
z
" style="fill:#008000;opacity:0.04;"/>
   </g>
   <g id="patch_65">
    <path clip-path="url(#pb0d03654d6)" d="M 515.267532 384.48 
L 515.267532 51.84 
L 518.890909 51.84 
L 518.890909 384.48 
z
" style="fill:#008000;opacity:0.04;"/>
   </g>
   <g id="patch_66">
    <path clip-path="url(#pb0d03654d6)" d="M 522.514286 384.48 
L 522.514286 51.84 
L 526.137662 51.84 
L 526.137662 384.48 
z
" style="fill:#008000;opacity:0.04;"/>
   </g>
   <g id="patch_67">
    <path clip-path="url(#pb0d03654d6)" d="M 526.137662 371.1744 
L 526.137662 51.84 
L 529.761039 51.84 
L 529.761039 371.1744 
z
" style="fill:#008000;opacity:0.5;"/>
   </g>
   <g id="patch_68">
    <path clip-path="url(#pb0d03654d6)" d="M 529.761039 384.48 
L 529.761039 51.84 
L 533.384416 51.84 
L 533.384416 384.48 
z
" style="fill:#008000;opacity:0.04;"/>
   </g>
   <g id="patch_69">
    <path clip-path="url(#pb0d03654d6)" d="M 537.007792 384.48 
L 537.007792 51.84 
L 540.631169 51.84 
L 540.631169 384.48 
z
" style="fill:#008000;opacity:0.04;"/>
   </g>
   <g id="patch_70">
    <path clip-path="url(#pb0d03654d6)" d="M 544.254545 384.48 
L 544.254545 51.84 
L 547.877922 51.84 
L 547.877922 384.48 
z
" style="fill:#008000;opacity:0.04;"/>
   </g>
   <g id="patch_71">
    <path clip-path="url(#pb0d03654d6)" d="M 551.501299 384.48 
L 551.501299 51.84 
L 555.124675 51.84 
L 555.124675 384.48 
z
" style="fill:#008000;opacity:0.04;"/>
   </g>
   <g id="patch_72">
    <path clip-path="url(#pb0d03654d6)" d="M 558.748052 384.48 
L 558.748052 51.84 
L 562.371429 51.84 
L 562.371429 384.48 
z
" style="fill:#008000;opacity:0.04;"/>
   </g>
   <g id="patch_73">
    <path clip-path="url(#pb0d03654d6)" d="M 558.748052 371.1744 
L 558.748052 51.84 
L 562.371429 51.84 
L 562.371429 371.1744 
z
" style="fill:#008000;opacity:0.5;"/>
   </g>
   <g id="patch_74">
    <path clip-path="url(#pb0d03654d6)" d="M 565.994805 384.48 
L 565.994805 51.84 
L 569.618182 51.84 
L 569.618182 384.48 
z
" style="fill:#008000;opacity:0.04;"/>
   </g>
   <g id="patch_75">
    <path clip-path="url(#pb0d03654d6)" d="M 573.241558 384.48 
L 573.241558 51.84 
L 576.864935 51.84 
L 576.864935 384.48 
z
" style="fill:#008000;opacity:0.04;"/>
   </g>
   <g id="patch_76">
    <path clip-path="url(#pb0d03654d6)" d="M 580.488312 384.48 
L 580.488312 51.84 
L 584.111688 51.84 
L 584.111688 384.48 
z
" style="fill:#008000;opacity:0.04;"/>
   </g>
   <g id="patch_77">
    <path clip-path="url(#pb0d03654d6)" d="M 587.735065 384.48 
L 587.735065 51.84 
L 591.358442 51.84 
L 591.358442 384.48 
z
" style="fill:#008000;opacity:0.04;"/>
   </g>
   <g id="patch_78">
    <path clip-path="url(#pb0d03654d6)" d="M 594.981818 384.48 
L 594.981818 51.84 
L 598.605195 51.84 
L 598.605195 384.48 
z
" style="fill:#008000;opacity:0.04;"/>
   </g>
   <g id="patch_79">
    <path clip-path="url(#pb0d03654d6)" d="M 598.605195 371.1744 
L 598.605195 51.84 
L 602.228571 51.84 
L 602.228571 371.1744 
z
" style="fill:#008000;opacity:0.5;"/>
   </g>
   <g id="patch_80">
    <path clip-path="url(#pb0d03654d6)" d="M 602.228571 384.48 
L 602.228571 51.84 
L 605.851948 51.84 
L 605.851948 384.48 
z
" style="fill:#008000;opacity:0.04;"/>
   </g>
   <g id="patch_81">
    <path clip-path="url(#pb0d03654d6)" d="M 609.475325 384.48 
L 609.475325 51.84 
L 613.098701 51.84 
L 613.098701 384.48 
z
" style="fill:#008000;opacity:0.04;"/>
   </g>
   <g id="patch_82">
    <path clip-path="url(#pb0d03654d6)" d="M 616.722078 384.48 
L 616.722078 51.84 
L 620.345455 51.84 
L 620.345455 384.48 
z
" style="fill:#008000;opacity:0.04;"/>
   </g>
   <g id="patch_83">
    <path clip-path="url(#pb0d03654d6)" d="M 623.968831 384.48 
L 623.968831 51.84 
L 627.592208 51.84 
L 627.592208 384.48 
z
" style="fill:#008000;opacity:0.04;"/>
   </g>
   <g id="patch_84">
    <path clip-path="url(#pb0d03654d6)" d="M 631.215584 384.48 
L 631.215584 51.84 
L 634.838961 51.84 
L 634.838961 384.48 
z
" style="fill:#008000;opacity:0.04;"/>
   </g>
   <g id="patch_85">
    <path clip-path="url(#pb0d03654d6)" d="M 634.838961 371.1744 
L 634.838961 51.84 
L 638.462338 51.84 
L 638.462338 371.1744 
z
" style="fill:#008000;opacity:0.5;"/>
   </g>
   <g id="patch_86">
    <path clip-path="url(#pb0d03654d6)" d="M 638.462338 384.48 
L 638.462338 51.84 
L 642.085714 51.84 
L 642.085714 384.48 
z
" style="fill:#008000;opacity:0.04;"/>
   </g>
   <g id="patch_87">
    <path clip-path="url(#pb0d03654d6)" d="M 645.709091 384.48 
L 645.709091 51.84 
L 649.332468 51.84 
L 649.332468 384.48 
z
" style="fill:#008000;opacity:0.04;"/>
   </g>
   <g id="patch_88">
    <path clip-path="url(#pb0d03654d6)" d="M 652.955844 384.48 
L 652.955844 51.84 
L 656.579221 51.84 
L 656.579221 384.48 
z
" style="fill:#008000;opacity:0.04;"/>
   </g>
   <g id="patch_89">
    <path clip-path="url(#pb0d03654d6)" d="M 660.202597 384.48 
L 660.202597 51.84 
L 663.825974 51.84 
L 663.825974 384.48 
z
" style="fill:#008000;opacity:0.04;"/>
   </g>
   <g id="patch_90">
    <path clip-path="url(#pb0d03654d6)" d="M 667.449351 384.48 
L 667.449351 51.84 
L 671.072727 51.84 
L 671.072727 384.48 
z
" style="fill:#008000;opacity:0.04;"/>
   </g>
   <g id="patch_91">
    <path clip-path="url(#pb0d03654d6)" d="M 667.449351 371.1744 
L 667.449351 51.84 
L 671.072727 51.84 
L 671.072727 371.1744 
z
" style="fill:#008000;opacity:0.5;"/>
   </g>
   <g id="patch_92">
    <path clip-path="url(#pb0d03654d6)" d="M 674.696104 384.48 
L 674.696104 51.84 
L 678.319481 51.84 
L 678.319481 384.48 
z
" style="fill:#008000;opacity:0.04;"/>
   </g>
   <g id="patch_93">
    <path clip-path="url(#pb0d03654d6)" d="M 681.942857 384.48 
L 681.942857 51.84 
L 685.566234 51.84 
L 685.566234 384.48 
z
" style="fill:#008000;opacity:0.04;"/>
   </g>
   <g id="patch_94">
    <path clip-path="url(#pb0d03654d6)" d="M 681.942857 371.1744 
L 681.942857 51.84 
L 685.566234 51.84 
L 685.566234 371.1744 
z
" style="fill:#008000;opacity:0.5;"/>
   </g>
   <g id="patch_95">
    <path clip-path="url(#pb0d03654d6)" d="M 689.18961 384.48 
L 689.18961 51.84 
L 692.812987 51.84 
L 692.812987 384.48 
z
" style="fill:#008000;opacity:0.04;"/>
   </g>
   <g id="patch_96">
    <path clip-path="url(#pb0d03654d6)" d="M 696.436364 384.48 
L 696.436364 51.84 
L 700.05974 51.84 
L 700.05974 384.48 
z
" style="fill:#008000;opacity:0.04;"/>
   </g>
   <g id="patch_97">
    <path clip-path="url(#pb0d03654d6)" d="M 696.436364 371.1744 
L 696.436364 51.84 
L 700.05974 51.84 
L 700.05974 371.1744 
z
" style="fill:#008000;opacity:0.5;"/>
   </g>
   <g id="patch_98">
    <path clip-path="url(#pb0d03654d6)" d="M 703.683117 384.48 
L 703.683117 51.84 
L 707.306494 51.84 
L 707.306494 384.48 
z
" style="fill:#008000;opacity:0.04;"/>
   </g>
   <g id="patch_99">
    <path clip-path="url(#pb0d03654d6)" d="M 710.92987 384.48 
L 710.92987 51.84 
L 714.553247 51.84 
L 714.553247 384.48 
z
" style="fill:#008000;opacity:0.04;"/>
   </g>
   <g id="patch_100">
    <path clip-path="url(#pb0d03654d6)" d="M 718.176623 384.48 
L 718.176623 51.84 
L 721.8 51.84 
L 721.8 384.48 
z
" style="fill:#008000;opacity:0.04;"/>
   </g>
   <g id="patch_101">
    <path clip-path="url(#pb0d03654d6)" d="M 725.423377 384.48 
L 725.423377 51.84 
L 729.046753 51.84 
L 729.046753 384.48 
z
" style="fill:#008000;opacity:0.04;"/>
   </g>
   <g id="patch_102">
    <path clip-path="url(#pb0d03654d6)" d="M 732.67013 384.48 
L 732.67013 51.84 
L 736.293506 51.84 
L 736.293506 384.48 
z
" style="fill:#008000;opacity:0.04;"/>
   </g>
   <g id="patch_103">
    <path clip-path="url(#pb0d03654d6)" d="M 739.916883 384.48 
L 739.916883 51.84 
L 743.54026 51.84 
L 743.54026 384.48 
z
" style="fill:#008000;opacity:0.04;"/>
   </g>
   <g id="matplotlib.axis_1">
    <g id="xtick_1">
     <g id="line2d_1">
      <defs>
       <path d="M 0 0 
L 0 3.5 
" id="m0e8146676f" style="stroke:#000000;stroke-width:0.8;"/>
      </defs>
      <g>
       <use style="stroke:#000000;stroke-width:0.8;" x="138.436364" xlink:href="#m0e8146676f" y="384.48"/>
      </g>
     </g>
     <g id="text_1">
      <!-- 0 -->
      <defs>
       <path d="M 31.78125 66.40625 
Q 24.171875 66.40625 20.328125 58.90625 
Q 16.5 51.421875 16.5 36.375 
Q 16.5 21.390625 20.328125 13.890625 
Q 24.171875 6.390625 31.78125 6.390625 
Q 39.453125 6.390625 43.28125 13.890625 
Q 47.125 21.390625 47.125 36.375 
Q 47.125 51.421875 43.28125 58.90625 
Q 39.453125 66.40625 31.78125 66.40625 
z
M 31.78125 74.21875 
Q 44.046875 74.21875 50.515625 64.515625 
Q 56.984375 54.828125 56.984375 36.375 
Q 56.984375 17.96875 50.515625 8.265625 
Q 44.046875 -1.421875 31.78125 -1.421875 
Q 19.53125 -1.421875 13.0625 8.265625 
Q 6.59375 17.96875 6.59375 36.375 
Q 6.59375 54.828125 13.0625 64.515625 
Q 19.53125 74.21875 31.78125 74.21875 
z
" id="DejaVuSans-48"/>
      </defs>
      <g transform="translate(135.255114 399.078438)scale(0.1 -0.1)">
       <use xlink:href="#DejaVuSans-48"/>
      </g>
     </g>
    </g>
    <g id="xtick_2">
     <g id="line2d_2">
      <g>
       <use style="stroke:#000000;stroke-width:0.8;" x="229.020779" xlink:href="#m0e8146676f" y="384.48"/>
      </g>
     </g>
     <g id="text_2">
      <!-- 250 -->
      <defs>
       <path d="M 19.1875 8.296875 
L 53.609375 8.296875 
L 53.609375 0 
L 7.328125 0 
L 7.328125 8.296875 
Q 12.9375 14.109375 22.625 23.890625 
Q 32.328125 33.6875 34.8125 36.53125 
Q 39.546875 41.84375 41.421875 45.53125 
Q 43.3125 49.21875 43.3125 52.78125 
Q 43.3125 58.59375 39.234375 62.25 
Q 35.15625 65.921875 28.609375 65.921875 
Q 23.96875 65.921875 18.8125 64.3125 
Q 13.671875 62.703125 7.8125 59.421875 
L 7.8125 69.390625 
Q 13.765625 71.78125 18.9375 73 
Q 24.125 74.21875 28.421875 74.21875 
Q 39.75 74.21875 46.484375 68.546875 
Q 53.21875 62.890625 53.21875 53.421875 
Q 53.21875 48.921875 51.53125 44.890625 
Q 49.859375 40.875 45.40625 35.40625 
Q 44.1875 33.984375 37.640625 27.21875 
Q 31.109375 20.453125 19.1875 8.296875 
z
" id="DejaVuSans-50"/>
       <path d="M 10.796875 72.90625 
L 49.515625 72.90625 
L 49.515625 64.59375 
L 19.828125 64.59375 
L 19.828125 46.734375 
Q 21.96875 47.46875 24.109375 47.828125 
Q 26.265625 48.1875 28.421875 48.1875 
Q 40.625 48.1875 47.75 41.5 
Q 54.890625 34.8125 54.890625 23.390625 
Q 54.890625 11.625 47.5625 5.09375 
Q 40.234375 -1.421875 26.90625 -1.421875 
Q 22.3125 -1.421875 17.546875 -0.640625 
Q 12.796875 0.140625 7.71875 1.703125 
L 7.71875 11.625 
Q 12.109375 9.234375 16.796875 8.0625 
Q 21.484375 6.890625 26.703125 6.890625 
Q 35.15625 6.890625 40.078125 11.328125 
Q 45.015625 15.765625 45.015625 23.390625 
Q 45.015625 31 40.078125 35.4375 
Q 35.15625 39.890625 26.703125 39.890625 
Q 22.75 39.890625 18.8125 39.015625 
Q 14.890625 38.140625 10.796875 36.28125 
z
" id="DejaVuSans-53"/>
      </defs>
      <g transform="translate(219.477029 399.078438)scale(0.1 -0.1)">
       <use xlink:href="#DejaVuSans-50"/>
       <use x="63.623047" xlink:href="#DejaVuSans-53"/>
       <use x="127.246094" xlink:href="#DejaVuSans-48"/>
      </g>
     </g>
    </g>
    <g id="xtick_3">
     <g id="line2d_3">
      <g>
       <use style="stroke:#000000;stroke-width:0.8;" x="319.605195" xlink:href="#m0e8146676f" y="384.48"/>
      </g>
     </g>
     <g id="text_3">
      <!-- 500 -->
      <g transform="translate(310.061445 399.078438)scale(0.1 -0.1)">
       <use xlink:href="#DejaVuSans-53"/>
       <use x="63.623047" xlink:href="#DejaVuSans-48"/>
       <use x="127.246094" xlink:href="#DejaVuSans-48"/>
      </g>
     </g>
    </g>
    <g id="xtick_4">
     <g id="line2d_4">
      <g>
       <use style="stroke:#000000;stroke-width:0.8;" x="410.18961" xlink:href="#m0e8146676f" y="384.48"/>
      </g>
     </g>
     <g id="text_4">
      <!-- 750 -->
      <defs>
       <path d="M 8.203125 72.90625 
L 55.078125 72.90625 
L 55.078125 68.703125 
L 28.609375 0 
L 18.3125 0 
L 43.21875 64.59375 
L 8.203125 64.59375 
z
" id="DejaVuSans-55"/>
      </defs>
      <g transform="translate(400.64586 399.078438)scale(0.1 -0.1)">
       <use xlink:href="#DejaVuSans-55"/>
       <use x="63.623047" xlink:href="#DejaVuSans-53"/>
       <use x="127.246094" xlink:href="#DejaVuSans-48"/>
      </g>
     </g>
    </g>
    <g id="xtick_5">
     <g id="line2d_5">
      <g>
       <use style="stroke:#000000;stroke-width:0.8;" x="500.774026" xlink:href="#m0e8146676f" y="384.48"/>
      </g>
     </g>
     <g id="text_5">
      <!-- 1000 -->
      <defs>
       <path d="M 12.40625 8.296875 
L 28.515625 8.296875 
L 28.515625 63.921875 
L 10.984375 60.40625 
L 10.984375 69.390625 
L 28.421875 72.90625 
L 38.28125 72.90625 
L 38.28125 8.296875 
L 54.390625 8.296875 
L 54.390625 0 
L 12.40625 0 
z
" id="DejaVuSans-49"/>
      </defs>
      <g transform="translate(488.049026 399.078438)scale(0.1 -0.1)">
       <use xlink:href="#DejaVuSans-49"/>
       <use x="63.623047" xlink:href="#DejaVuSans-48"/>
       <use x="127.246094" xlink:href="#DejaVuSans-48"/>
       <use x="190.869141" xlink:href="#DejaVuSans-48"/>
      </g>
     </g>
    </g>
    <g id="xtick_6">
     <g id="line2d_6">
      <g>
       <use style="stroke:#000000;stroke-width:0.8;" x="591.358442" xlink:href="#m0e8146676f" y="384.48"/>
      </g>
     </g>
     <g id="text_6">
      <!-- 1250 -->
      <g transform="translate(578.633442 399.078438)scale(0.1 -0.1)">
       <use xlink:href="#DejaVuSans-49"/>
       <use x="63.623047" xlink:href="#DejaVuSans-50"/>
       <use x="127.246094" xlink:href="#DejaVuSans-53"/>
       <use x="190.869141" xlink:href="#DejaVuSans-48"/>
      </g>
     </g>
    </g>
    <g id="xtick_7">
     <g id="line2d_7">
      <g>
       <use style="stroke:#000000;stroke-width:0.8;" x="681.942857" xlink:href="#m0e8146676f" y="384.48"/>
      </g>
     </g>
     <g id="text_7">
      <!-- 1500 -->
      <g transform="translate(669.217857 399.078438)scale(0.1 -0.1)">
       <use xlink:href="#DejaVuSans-49"/>
       <use x="63.623047" xlink:href="#DejaVuSans-53"/>
       <use x="127.246094" xlink:href="#DejaVuSans-48"/>
       <use x="190.869141" xlink:href="#DejaVuSans-48"/>
      </g>
     </g>
    </g>
    <g id="xtick_8">
     <g id="line2d_8">
      <g>
       <use style="stroke:#000000;stroke-width:0.8;" x="772.527273" xlink:href="#m0e8146676f" y="384.48"/>
      </g>
     </g>
     <g id="text_8">
      <!-- 1750 -->
      <g transform="translate(759.802273 399.078438)scale(0.1 -0.1)">
       <use xlink:href="#DejaVuSans-49"/>
       <use x="63.623047" xlink:href="#DejaVuSans-55"/>
       <use x="127.246094" xlink:href="#DejaVuSans-53"/>
       <use x="190.869141" xlink:href="#DejaVuSans-48"/>
      </g>
     </g>
    </g>
    <g id="text_9">
     <!-- Timestamp -->
     <defs>
      <path d="M -0.296875 72.90625 
L 61.375 72.90625 
L 61.375 64.59375 
L 35.5 64.59375 
L 35.5 0 
L 25.59375 0 
L 25.59375 64.59375 
L -0.296875 64.59375 
z
" id="DejaVuSans-84"/>
      <path d="M 9.421875 54.6875 
L 18.40625 54.6875 
L 18.40625 0 
L 9.421875 0 
z
M 9.421875 75.984375 
L 18.40625 75.984375 
L 18.40625 64.59375 
L 9.421875 64.59375 
z
" id="DejaVuSans-105"/>
      <path d="M 52 44.1875 
Q 55.375 50.25 60.0625 53.125 
Q 64.75 56 71.09375 56 
Q 79.640625 56 84.28125 50.015625 
Q 88.921875 44.046875 88.921875 33.015625 
L 88.921875 0 
L 79.890625 0 
L 79.890625 32.71875 
Q 79.890625 40.578125 77.09375 44.375 
Q 74.3125 48.1875 68.609375 48.1875 
Q 61.625 48.1875 57.5625 43.546875 
Q 53.515625 38.921875 53.515625 30.90625 
L 53.515625 0 
L 44.484375 0 
L 44.484375 32.71875 
Q 44.484375 40.625 41.703125 44.40625 
Q 38.921875 48.1875 33.109375 48.1875 
Q 26.21875 48.1875 22.15625 43.53125 
Q 18.109375 38.875 18.109375 30.90625 
L 18.109375 0 
L 9.078125 0 
L 9.078125 54.6875 
L 18.109375 54.6875 
L 18.109375 46.1875 
Q 21.1875 51.21875 25.484375 53.609375 
Q 29.78125 56 35.6875 56 
Q 41.65625 56 45.828125 52.96875 
Q 50 49.953125 52 44.1875 
z
" id="DejaVuSans-109"/>
      <path d="M 56.203125 29.59375 
L 56.203125 25.203125 
L 14.890625 25.203125 
Q 15.484375 15.921875 20.484375 11.0625 
Q 25.484375 6.203125 34.421875 6.203125 
Q 39.59375 6.203125 44.453125 7.46875 
Q 49.3125 8.734375 54.109375 11.28125 
L 54.109375 2.78125 
Q 49.265625 0.734375 44.1875 -0.34375 
Q 39.109375 -1.421875 33.890625 -1.421875 
Q 20.796875 -1.421875 13.15625 6.1875 
Q 5.515625 13.8125 5.515625 26.8125 
Q 5.515625 40.234375 12.765625 48.109375 
Q 20.015625 56 32.328125 56 
Q 43.359375 56 49.78125 48.890625 
Q 56.203125 41.796875 56.203125 29.59375 
z
M 47.21875 32.234375 
Q 47.125 39.59375 43.09375 43.984375 
Q 39.0625 48.390625 32.421875 48.390625 
Q 24.90625 48.390625 20.390625 44.140625 
Q 15.875 39.890625 15.1875 32.171875 
z
" id="DejaVuSans-101"/>
      <path d="M 44.28125 53.078125 
L 44.28125 44.578125 
Q 40.484375 46.53125 36.375 47.5 
Q 32.28125 48.484375 27.875 48.484375 
Q 21.1875 48.484375 17.84375 46.4375 
Q 14.5 44.390625 14.5 40.28125 
Q 14.5 37.15625 16.890625 35.375 
Q 19.28125 33.59375 26.515625 31.984375 
L 29.59375 31.296875 
Q 39.15625 29.25 43.1875 25.515625 
Q 47.21875 21.78125 47.21875 15.09375 
Q 47.21875 7.46875 41.1875 3.015625 
Q 35.15625 -1.421875 24.609375 -1.421875 
Q 20.21875 -1.421875 15.453125 -0.5625 
Q 10.6875 0.296875 5.421875 2 
L 5.421875 11.28125 
Q 10.40625 8.6875 15.234375 7.390625 
Q 20.0625 6.109375 24.8125 6.109375 
Q 31.15625 6.109375 34.5625 8.28125 
Q 37.984375 10.453125 37.984375 14.40625 
Q 37.984375 18.0625 35.515625 20.015625 
Q 33.0625 21.96875 24.703125 23.78125 
L 21.578125 24.515625 
Q 13.234375 26.265625 9.515625 29.90625 
Q 5.8125 33.546875 5.8125 39.890625 
Q 5.8125 47.609375 11.28125 51.796875 
Q 16.75 56 26.8125 56 
Q 31.78125 56 36.171875 55.265625 
Q 40.578125 54.546875 44.28125 53.078125 
z
" id="DejaVuSans-115"/>
      <path d="M 18.3125 70.21875 
L 18.3125 54.6875 
L 36.8125 54.6875 
L 36.8125 47.703125 
L 18.3125 47.703125 
L 18.3125 18.015625 
Q 18.3125 11.328125 20.140625 9.421875 
Q 21.96875 7.515625 27.59375 7.515625 
L 36.8125 7.515625 
L 36.8125 0 
L 27.59375 0 
Q 17.1875 0 13.234375 3.875 
Q 9.28125 7.765625 9.28125 18.015625 
L 9.28125 47.703125 
L 2.6875 47.703125 
L 2.6875 54.6875 
L 9.28125 54.6875 
L 9.28125 70.21875 
z
" id="DejaVuSans-116"/>
      <path d="M 34.28125 27.484375 
Q 23.390625 27.484375 19.1875 25 
Q 14.984375 22.515625 14.984375 16.5 
Q 14.984375 11.71875 18.140625 8.90625 
Q 21.296875 6.109375 26.703125 6.109375 
Q 34.1875 6.109375 38.703125 11.40625 
Q 43.21875 16.703125 43.21875 25.484375 
L 43.21875 27.484375 
z
M 52.203125 31.203125 
L 52.203125 0 
L 43.21875 0 
L 43.21875 8.296875 
Q 40.140625 3.328125 35.546875 0.953125 
Q 30.953125 -1.421875 24.3125 -1.421875 
Q 15.921875 -1.421875 10.953125 3.296875 
Q 6 8.015625 6 15.921875 
Q 6 25.140625 12.171875 29.828125 
Q 18.359375 34.515625 30.609375 34.515625 
L 43.21875 34.515625 
L 43.21875 35.40625 
Q 43.21875 41.609375 39.140625 45 
Q 35.0625 48.390625 27.6875 48.390625 
Q 23 48.390625 18.546875 47.265625 
Q 14.109375 46.140625 10.015625 43.890625 
L 10.015625 52.203125 
Q 14.9375 54.109375 19.578125 55.046875 
Q 24.21875 56 28.609375 56 
Q 40.484375 56 46.34375 49.84375 
Q 52.203125 43.703125 52.203125 31.203125 
z
" id="DejaVuSans-97"/>
      <path d="M 18.109375 8.203125 
L 18.109375 -20.796875 
L 9.078125 -20.796875 
L 9.078125 54.6875 
L 18.109375 54.6875 
L 18.109375 46.390625 
Q 20.953125 51.265625 25.265625 53.625 
Q 29.59375 56 35.59375 56 
Q 45.5625 56 51.78125 48.09375 
Q 58.015625 40.1875 58.015625 27.296875 
Q 58.015625 14.40625 51.78125 6.484375 
Q 45.5625 -1.421875 35.59375 -1.421875 
Q 29.59375 -1.421875 25.265625 0.953125 
Q 20.953125 3.328125 18.109375 8.203125 
z
M 48.6875 27.296875 
Q 48.6875 37.203125 44.609375 42.84375 
Q 40.53125 48.484375 33.40625 48.484375 
Q 26.265625 48.484375 22.1875 42.84375 
Q 18.109375 37.203125 18.109375 27.296875 
Q 18.109375 17.390625 22.1875 11.75 
Q 26.265625 6.109375 33.40625 6.109375 
Q 40.53125 6.109375 44.609375 11.75 
Q 48.6875 17.390625 48.6875 27.296875 
z
" id="DejaVuSans-112"/>
     </defs>
     <g transform="translate(414.739062 412.756563)scale(0.1 -0.1)">
      <use xlink:href="#DejaVuSans-84"/>
      <use x="61.037109" xlink:href="#DejaVuSans-105"/>
      <use x="88.820312" xlink:href="#DejaVuSans-109"/>
      <use x="186.232422" xlink:href="#DejaVuSans-101"/>
      <use x="247.755859" xlink:href="#DejaVuSans-115"/>
      <use x="299.855469" xlink:href="#DejaVuSans-116"/>
      <use x="339.064453" xlink:href="#DejaVuSans-97"/>
      <use x="400.34375" xlink:href="#DejaVuSans-109"/>
      <use x="497.755859" xlink:href="#DejaVuSans-112"/>
     </g>
    </g>
   </g>
   <g id="matplotlib.axis_2">
    <g id="ytick_1">
     <g id="line2d_9">
      <defs>
       <path d="M 0 0 
L -3.5 0 
" id="m31f76358fc" style="stroke:#000000;stroke-width:0.8;"/>
      </defs>
      <g>
       <use style="stroke:#000000;stroke-width:0.8;" x="108" xlink:href="#m31f76358fc" y="356.906245"/>
      </g>
     </g>
     <g id="text_10">
      <!-- −500 -->
      <defs>
       <path d="M 10.59375 35.5 
L 73.1875 35.5 
L 73.1875 27.203125 
L 10.59375 27.203125 
z
" id="DejaVuSans-8722"/>
      </defs>
      <g transform="translate(73.532813 360.705464)scale(0.1 -0.1)">
       <use xlink:href="#DejaVuSans-8722"/>
       <use x="83.789062" xlink:href="#DejaVuSans-53"/>
       <use x="147.412109" xlink:href="#DejaVuSans-48"/>
       <use x="211.035156" xlink:href="#DejaVuSans-48"/>
      </g>
     </g>
    </g>
    <g id="ytick_2">
     <g id="line2d_10">
      <g>
       <use style="stroke:#000000;stroke-width:0.8;" x="108" xlink:href="#m31f76358fc" y="305.991422"/>
      </g>
     </g>
     <g id="text_11">
      <!-- 0 -->
      <g transform="translate(94.6375 309.790641)scale(0.1 -0.1)">
       <use xlink:href="#DejaVuSans-48"/>
      </g>
     </g>
    </g>
    <g id="ytick_3">
     <g id="line2d_11">
      <g>
       <use style="stroke:#000000;stroke-width:0.8;" x="108" xlink:href="#m31f76358fc" y="255.076598"/>
      </g>
     </g>
     <g id="text_12">
      <!-- 500 -->
      <g transform="translate(81.9125 258.875817)scale(0.1 -0.1)">
       <use xlink:href="#DejaVuSans-53"/>
       <use x="63.623047" xlink:href="#DejaVuSans-48"/>
       <use x="127.246094" xlink:href="#DejaVuSans-48"/>
      </g>
     </g>
    </g>
    <g id="ytick_4">
     <g id="line2d_12">
      <g>
       <use style="stroke:#000000;stroke-width:0.8;" x="108" xlink:href="#m31f76358fc" y="204.161775"/>
      </g>
     </g>
     <g id="text_13">
      <!-- 1000 -->
      <g transform="translate(75.55 207.960994)scale(0.1 -0.1)">
       <use xlink:href="#DejaVuSans-49"/>
       <use x="63.623047" xlink:href="#DejaVuSans-48"/>
       <use x="127.246094" xlink:href="#DejaVuSans-48"/>
       <use x="190.869141" xlink:href="#DejaVuSans-48"/>
      </g>
     </g>
    </g>
    <g id="ytick_5">
     <g id="line2d_13">
      <g>
       <use style="stroke:#000000;stroke-width:0.8;" x="108" xlink:href="#m31f76358fc" y="153.246952"/>
      </g>
     </g>
     <g id="text_14">
      <!-- 1500 -->
      <g transform="translate(75.55 157.04617)scale(0.1 -0.1)">
       <use xlink:href="#DejaVuSans-49"/>
       <use x="63.623047" xlink:href="#DejaVuSans-53"/>
       <use x="127.246094" xlink:href="#DejaVuSans-48"/>
       <use x="190.869141" xlink:href="#DejaVuSans-48"/>
      </g>
     </g>
    </g>
    <g id="ytick_6">
     <g id="line2d_14">
      <g>
       <use style="stroke:#000000;stroke-width:0.8;" x="108" xlink:href="#m31f76358fc" y="102.332128"/>
      </g>
     </g>
     <g id="text_15">
      <!-- 2000 -->
      <g transform="translate(75.55 106.131347)scale(0.1 -0.1)">
       <use xlink:href="#DejaVuSans-50"/>
       <use x="63.623047" xlink:href="#DejaVuSans-48"/>
       <use x="127.246094" xlink:href="#DejaVuSans-48"/>
       <use x="190.869141" xlink:href="#DejaVuSans-48"/>
      </g>
     </g>
    </g>
    <g id="text_16">
     <!-- Value -->
     <defs>
      <path d="M 28.609375 0 
L 0.78125 72.90625 
L 11.078125 72.90625 
L 34.1875 11.53125 
L 57.328125 72.90625 
L 67.578125 72.90625 
L 39.796875 0 
z
" id="DejaVuSans-86"/>
      <path d="M 9.421875 75.984375 
L 18.40625 75.984375 
L 18.40625 0 
L 9.421875 0 
z
" id="DejaVuSans-108"/>
      <path d="M 8.5 21.578125 
L 8.5 54.6875 
L 17.484375 54.6875 
L 17.484375 21.921875 
Q 17.484375 14.15625 20.5 10.265625 
Q 23.53125 6.390625 29.59375 6.390625 
Q 36.859375 6.390625 41.078125 11.03125 
Q 45.3125 15.671875 45.3125 23.6875 
L 45.3125 54.6875 
L 54.296875 54.6875 
L 54.296875 0 
L 45.3125 0 
L 45.3125 8.40625 
Q 42.046875 3.421875 37.71875 1 
Q 33.40625 -1.421875 27.6875 -1.421875 
Q 18.265625 -1.421875 13.375 4.4375 
Q 8.5 10.296875 8.5 21.578125 
z
M 31.109375 56 
z
" id="DejaVuSans-117"/>
     </defs>
     <g transform="translate(67.453125 232.273281)rotate(-90)scale(0.1 -0.1)">
      <use xlink:href="#DejaVuSans-86"/>
      <use x="68.298828" xlink:href="#DejaVuSans-97"/>
      <use x="129.578125" xlink:href="#DejaVuSans-108"/>
      <use x="157.361328" xlink:href="#DejaVuSans-117"/>
      <use x="220.740234" xlink:href="#DejaVuSans-101"/>
     </g>
    </g>
   </g>
   <g id="line2d_15">
    <path clip-path="url(#pb0d03654d6)" d="M 138.436364 306.583248 
L 138.798701 278.699953 
L 139.523377 254.845792 
L 139.885714 245.678203 
L 140.248052 258.939135 
L 140.61039 342.7869 
L 140.972727 282.077676 
L 141.335065 302.10377 
L 141.697403 308.171973 
L 142.05974 308.681381 
L 142.422078 308.102965 
L 142.784416 289.449491 
L 143.146753 279.334696 
L 143.509091 278.970346 
L 144.233766 290.363379 
L 144.596104 302.778798 
L 144.958442 321.847834 
L 145.320779 324.283946 
L 145.683117 339.78669 
L 146.045455 341.913181 
L 146.407792 329.458381 
L 147.132468 290.348882 
L 147.494805 252.646567 
L 147.857143 245.658883 
L 148.219481 232.306875 
L 148.944156 238.308623 
L 149.306494 259.450882 
L 149.668831 264.31944 
L 150.393506 296.951761 
L 150.755844 299.143139 
L 151.118182 292.608924 
L 151.480519 288.586386 
L 151.842857 269.476174 
L 152.205195 274.086547 
L 152.567532 261.874134 
L 152.92987 270.545591 
L 153.654545 304.096955 
L 154.379221 332.215423 
L 154.741558 331.00713 
L 155.103896 313.068327 
L 155.466234 310.634115 
L 155.828571 281.895851 
L 156.190909 270.141083 
L 156.553247 239.523448 
L 157.277922 222.650583 
L 157.64026 236.49519 
L 158.002597 257.497376 
L 158.364935 267.829355 
L 158.727273 286.852707 
L 159.08961 291.191933 
L 159.451948 287.993047 
L 159.814286 288.236039 
L 160.176623 287.719834 
L 160.901299 270.616434 
L 161.263636 272.003506 
L 161.625974 285.347001 
L 161.988312 293.296509 
L 163.075325 342.245899 
L 163.437662 340.03423 
L 163.8 328.578296 
L 164.162338 312.489853 
L 164.524675 287.780539 
L 164.887013 276.404744 
L 165.249351 249.471904 
L 165.611688 238.396359 
L 165.974026 239.697733 
L 166.336364 268.970755 
L 166.698701 251.716509 
L 167.061039 283.041752 
L 167.423377 298.82645 
L 167.785714 303.213263 
L 168.148052 300.885133 
L 168.51039 303.944127 
L 168.872727 311.847525 
L 169.235065 290.267647 
L 169.597403 290.415804 
L 169.95974 294.035713 
L 170.322078 299.916203 
L 170.684416 311.729458 
L 171.409091 344.73606 
L 172.133766 357.840733 
L 172.858442 330.115449 
L 173.945455 264.181466 
L 174.307792 263.365843 
L 174.67013 246.069214 
L 175.032468 265.033532 
L 175.394805 273.865924 
L 175.757143 294.7255 
L 176.481818 319.568586 
L 176.844156 318.032652 
L 177.206494 312.381946 
L 177.568831 298.765513 
L 177.931169 307.487374 
L 178.293506 299.826946 
L 178.655844 296.734458 
L 179.018182 306.341353 
L 179.742857 342.69842 
L 180.105195 342.547232 
L 180.467532 369.36 
L 180.82987 360.036162 
L 181.192208 355.19651 
L 181.554545 339.133719 
L 181.916883 313.005055 
L 182.279221 357.289546 
L 182.641558 274.509359 
L 183.003896 262.008286 
L 183.366234 265.038136 
L 183.728571 272.128695 
L 184.090909 282.40005 
L 184.453247 305.258295 
L 184.815584 315.604918 
L 185.177922 315.186922 
L 185.54026 322.766617 
L 185.902597 314.666104 
L 186.264935 317.275864 
L 186.627273 292.319662 
L 186.98961 305.785753 
L 187.351948 301.835252 
L 187.714286 315.43372 
L 188.076623 319.056209 
L 188.438961 340.117995 
L 188.801299 350.688272 
L 189.163636 352.02588 
L 189.525974 365.542396 
L 189.888312 344.245196 
L 190.250649 339.330722 
L 190.612987 308.298553 
L 191.337662 265.182245 
L 191.7 255.000549 
L 192.062338 186.104709 
L 192.424675 262.648616 
L 192.787013 270.692589 
L 193.511688 299.608003 
L 193.874026 312.352018 
L 194.236364 305.272131 
L 194.598701 305.131194 
L 194.961039 293.847689 
L 195.323377 288.493105 
L 195.685714 286.363163 
L 196.048052 297.466546 
L 196.41039 291.109591 
L 197.85974 345.638519 
L 198.222078 345.002358 
L 198.584416 334.516501 
L 198.946753 315.717178 
L 199.671429 264.742654 
L 200.033766 245.31 
L 200.396104 242.634217 
L 200.758442 232.920881 
L 201.483117 254.906332 
L 201.845455 271.824095 
L 202.207792 275.656941 
L 202.57013 286.847487 
L 202.932468 286.761407 
L 203.294805 290.882339 
L 203.657143 275.12149 
L 204.019481 281.115888 
L 204.381818 271.224225 
L 204.744156 270.89088 
L 205.106494 275.40229 
L 205.468831 277.919997 
L 205.831169 304.362437 
L 206.193506 307.874295 
L 206.555844 324.624573 
L 206.918182 314.942674 
L 207.280519 313.083485 
L 208.005195 267.523338 
L 208.72987 234.982319 
L 209.092208 214.401155 
L 209.454545 217.837422 
L 209.816883 226.126037 
L 210.179221 240.321741 
L 210.541558 264.209802 
L 210.903896 267.069092 
L 211.266234 279.233121 
L 211.628571 272.528476 
L 211.990909 284.720085 
L 212.353247 261.362758 
L 212.715584 258.1367 
L 213.077922 253.012419 
L 213.44026 255.694847 
L 214.164935 276.744377 
L 214.527273 286.539538 
L 214.88961 305.636722 
L 215.251948 315.694815 
L 215.614286 317.884534 
L 215.976623 304.240377 
L 216.338961 281.096384 
L 216.701299 272.012391 
L 217.425974 222.04752 
L 217.788312 207.711006 
L 218.150649 212.191477 
L 218.875325 235.761487 
L 219.237662 256.244441 
L 220.324675 284.086791 
L 220.687013 266.823859 
L 221.049351 264.642565 
L 221.411688 263.256162 
L 221.774026 253.320876 
L 222.136364 268.175605 
L 222.498701 266.065132 
L 223.948052 319.755046 
L 224.31039 323.139391 
L 224.672727 314.294906 
L 225.035065 289.229238 
L 225.397403 276.777195 
L 225.75974 239.303347 
L 226.122078 231.925879 
L 226.484416 221.230488 
L 226.846753 235.035132 
L 227.209091 239.239953 
L 227.933766 255.451631 
L 228.296104 290.168673 
L 228.658442 293.843431 
L 229.020779 284.696068 
L 229.383117 282.78118 
L 230.107792 272.843506 
L 230.47013 271.445694 
L 230.832468 270.900878 
L 231.194805 285.62525 
L 231.557143 295.574807 
L 232.281818 331.046558 
L 232.644156 332.451098 
L 233.006494 342.28178 
L 233.368831 328.148595 
L 234.455844 267.291577 
L 234.818182 258.826475 
L 235.180519 237.070881 
L 235.542857 231.784581 
L 235.905195 252.926415 
L 236.267532 257.391587 
L 236.62987 286.610106 
L 237.716883 310.910331 
L 238.079221 298.486943 
L 238.441558 297.514793 
L 239.166234 285.137336 
L 239.890909 291.982837 
L 240.253247 303.924865 
L 240.615584 327.014331 
L 240.977922 329.96693 
L 241.34026 349.271914 
L 241.702597 343.401341 
L 242.064935 334.250133 
L 242.427273 320.306893 
L 243.151948 270.595172 
L 243.514286 264.434896 
L 243.876623 249.735144 
L 244.238961 248.238981 
L 244.963636 270.540655 
L 245.325974 285.707915 
L 245.688312 293.540346 
L 246.050649 309.883566 
L 246.412987 300.891042 
L 246.775325 294.924245 
L 247.137662 286.562531 
L 247.5 295.19527 
L 247.862338 279.512867 
L 248.224675 283.598032 
L 248.587013 282.059209 
L 249.674026 336.238365 
L 250.036364 341.349384 
L 250.398701 339.595651 
L 250.761039 329.211711 
L 251.123377 313.004345 
L 251.485714 291.807047 
L 251.848052 260.879802 
L 252.21039 242.737417 
L 252.572727 234.2964 
L 252.935065 231.709419 
L 253.297403 248.445762 
L 253.65974 250.419125 
L 254.022078 278.63687 
L 254.384416 284.222712 
L 254.746753 294.029302 
L 255.109091 293.832977 
L 255.833766 285.79231 
L 256.196104 268.183601 
L 256.558442 266.289973 
L 256.920779 271.331651 
L 257.283117 270.353427 
L 257.645455 284.052457 
L 258.007792 310.729002 
L 258.37013 321.812218 
L 258.732468 319.606642 
L 259.094805 323.439492 
L 259.457143 315.499279 
L 260.181818 273.684235 
L 260.544156 237.299639 
L 260.906494 237.036883 
L 261.268831 212.934589 
L 261.631169 225.669311 
L 261.993506 222.757111 
L 262.718182 257.42086 
L 263.805195 276.386081 
L 264.167532 268.684867 
L 264.892208 249.245157 
L 265.254545 243.922954 
L 265.616883 256.124984 
L 265.979221 251.557955 
L 267.066234 303.213602 
L 267.428571 304.512621 
L 267.790909 303.794969 
L 268.153247 296.028489 
L 268.515584 276.886279 
L 269.24026 226.687903 
L 270.327273 201.185896 
L 270.68961 216.846163 
L 271.051948 223.979752 
L 271.414286 248.047069 
L 271.776623 244.540944 
L 272.138961 262.832201 
L 272.501299 269.886701 
L 272.863636 254.143425 
L 273.225974 259.227307 
L 273.588312 241.321959 
L 273.950649 232.892008 
L 274.312987 238.803489 
L 275.037662 257.29089 
L 275.4 279.818513 
L 276.124675 291.51396 
L 276.487013 305.629472 
L 276.849351 285.546335 
L 277.211688 275.65682 
L 277.936364 220.97091 
L 278.298701 207.993794 
L 278.661039 199.212862 
L 279.023377 198.950434 
L 279.385714 196.628479 
L 280.11039 241.256134 
L 280.472727 244.156022 
L 280.835065 262.946302 
L 281.197403 260.153234 
L 281.922078 253.16292 
L 282.284416 242.166144 
L 282.646753 245.286517 
L 283.009091 235.158143 
L 283.371429 240.058936 
L 283.733766 268.986312 
L 284.096104 278.951698 
L 284.458442 295.16245 
L 284.820779 302.899534 
L 285.183117 305.255991 
L 285.545455 297.589698 
L 285.907792 282.650441 
L 286.27013 243.378558 
L 286.632468 231.795394 
L 286.994805 225.724005 
L 287.357143 209.532509 
L 287.719481 210.791313 
L 288.081818 215.019889 
L 288.444156 240.600171 
L 288.806494 240.536211 
L 289.531169 273.443788 
L 289.893506 272.281561 
L 290.255844 275.688904 
L 290.618182 272.534385 
L 291.342857 255.263546 
L 291.705195 250.365827 
L 292.42987 284.638628 
L 292.792208 295.56339 
L 293.154545 312.238316 
L 293.516883 320.039383 
L 293.879221 322.360255 
L 294.603896 293.527192 
L 295.328571 241.171797 
L 295.690909 228.976576 
L 296.053247 226.169878 
L 296.415584 217.532768 
L 296.777922 233.737035 
L 297.14026 241.522233 
L 297.502597 260.957578 
L 297.864935 271.05678 
L 298.227273 288.036779 
L 298.58961 280.27099 
L 298.951948 288.656152 
L 299.314286 272.770729 
L 299.676623 266.668821 
L 300.038961 257.594808 
L 300.401299 266.181773 
L 300.763636 282.584544 
L 301.125974 291.105954 
L 301.488312 293.870459 
L 301.850649 319.847854 
L 302.212987 330.018353 
L 302.575325 334.169374 
L 302.937662 321.361724 
L 303.3 292.723417 
L 304.387013 242.121906 
L 304.749351 233.555699 
L 305.111688 232.076884 
L 305.474026 245.230329 
L 305.836364 250.772208 
L 306.198701 277.37866 
L 306.561039 273.900749 
L 306.923377 283.108882 
L 307.285714 287.327396 
L 307.648052 280.198002 
L 308.01039 281.274128 
L 308.372727 267.460048 
L 308.735065 265.024616 
L 309.097403 274.952512 
L 309.45974 274.595211 
L 309.822078 284.791338 
L 310.184416 299.920915 
L 310.546753 320.199558 
L 310.909091 323.58951 
L 311.271429 319.038345 
L 311.633766 309.89366 
L 312.358442 273.908703 
L 313.445455 218.462101 
L 314.17013 228.361686 
L 314.894805 254.747796 
L 315.619481 275.449095 
L 315.981818 345.086753 
L 316.344156 267.719157 
L 316.706494 255.206305 
L 317.068831 257.931722 
L 317.431169 254.249371 
L 317.793506 253.161414 
L 318.155844 260.270805 
L 319.242857 302.537451 
L 319.605195 307.576617 
L 319.967532 304.29943 
L 320.32987 303.745632 
L 321.054545 255.1136 
L 322.141558 188.690016 
L 322.503896 202.062467 
L 322.866234 203.537537 
L 323.228571 228.551202 
L 323.590909 233.080844 
L 323.953247 249.723173 
L 324.315584 254.555198 
L 324.677922 252.579512 
L 325.04026 255.964279 
L 325.764935 224.804853 
L 326.127273 234.38859 
L 326.48961 228.736919 
L 326.851948 233.358233 
L 327.214286 258.023024 
L 327.576623 266.624259 
L 327.938961 281.643374 
L 328.301299 289.098237 
L 328.663636 280.606837 
L 329.025974 277.158708 
L 330.475325 195.842761 
L 330.837662 185.991939 
L 331.2 193.619446 
L 331.562338 192.653545 
L 331.924675 210.110291 
L 332.287013 213.992786 
L 332.649351 234.889078 
L 333.011688 248.420328 
L 333.374026 241.231494 
L 333.736364 237.225592 
L 334.461039 219.231572 
L 334.823377 220.045655 
L 335.185714 221.751668 
L 335.548052 237.773603 
L 335.91039 246.251458 
L 336.635065 270.69896 
L 336.997403 276.815076 
L 337.35974 277.57606 
L 337.722078 271.791494 
L 338.084416 257.423778 
L 338.809091 210.807486 
L 339.171429 189.830649 
L 339.533766 187.732049 
L 339.896104 172.084804 
L 340.983117 221.891683 
L 341.345455 237.099865 
L 341.707792 229.859335 
L 342.07013 244.695845 
L 342.432468 237.005226 
L 342.794805 231.825961 
L 343.157143 221.982045 
L 343.519481 228.117362 
L 343.881818 229.784205 
L 344.244156 232.10551 
L 344.968831 262.18694 
L 345.331169 278.708033 
L 345.693506 288.830481 
L 346.055844 286.434622 
L 346.418182 277.729543 
L 347.142857 238.937326 
L 347.867532 198.516292 
L 348.22987 196.90256 
L 348.592208 192.814629 
L 349.316883 211.590853 
L 349.679221 233.118861 
L 350.041558 240.870573 
L 350.766234 269.345227 
L 351.128571 246.039881 
L 351.490909 242.941833 
L 352.215584 238.666933 
L 352.577922 244.450808 
L 352.94026 252.5894 
L 354.38961 305.752017 
L 354.751948 304.990204 
L 355.114286 295.750869 
L 356.201299 226.697972 
L 356.925974 203.521285 
L 357.288312 199.660466 
L 359.1 263.744478 
L 359.462338 268.972356 
L 359.824675 263.539447 
L 360.187013 259.787649 
L 360.549351 249.593021 
L 360.911688 249.743634 
L 361.274026 240.461192 
L 361.636364 253.027105 
L 361.998701 274.347107 
L 362.723377 302.60657 
L 363.085714 321.648837 
L 363.448052 311.707495 
L 363.81039 310.744333 
L 364.172727 295.10131 
L 364.897403 239.742167 
L 365.622078 207.848194 
L 366.346753 221.376179 
L 366.709091 238.45887 
L 367.071429 238.229563 
L 367.433766 265.503269 
L 367.796104 276.38119 
L 368.158442 278.833207 
L 368.520779 264.798879 
L 368.883117 267.215834 
L 369.245455 248.459692 
L 369.97013 253.062982 
L 370.332468 259.874862 
L 370.694805 268.945727 
L 371.419481 304.318022 
L 371.781818 306.816108 
L 372.144156 313.042123 
L 372.868831 278.193717 
L 373.593506 230.021606 
L 373.955844 218.548238 
L 374.318182 200.226138 
L 374.680519 199.146018 
L 375.042857 206.609648 
L 375.405195 222.424659 
L 375.767532 232.358137 
L 376.492208 260.050135 
L 376.854545 260.291014 
L 377.216883 258.133075 
L 377.579221 248.196517 
L 377.941558 245.626513 
L 378.303896 233.14566 
L 378.666234 229.91989 
L 379.390909 254.749379 
L 380.115584 290.316431 
L 380.477922 295.926391 
L 380.84026 292.668492 
L 381.202597 274.33803 
L 381.564935 269.110847 
L 382.651948 186.370454 
L 383.014286 188.117709 
L 383.376623 188.166963 
L 383.738961 186.164249 
L 384.101299 204.950099 
L 384.463636 214.368899 
L 384.825974 236.901803 
L 385.188312 236.845896 
L 385.912987 243.624045 
L 386.275325 223.1758 
L 386.637662 214.777565 
L 387 201.632847 
L 387.362338 214.687815 
L 388.087013 228.518549 
L 388.449351 258.406103 
L 388.811688 261.428263 
L 389.174026 270.770239 
L 389.536364 270.825505 
L 389.898701 262.576122 
L 390.261039 235.48317 
L 390.623377 220.526544 
L 391.348052 175.551539 
L 391.71039 164.358646 
L 392.072727 170.866745 
L 392.435065 172.610942 
L 393.522078 222.870802 
L 393.884416 232.300205 
L 394.246753 224.492854 
L 394.609091 223.906723 
L 394.971429 209.712248 
L 395.333766 207.585889 
L 395.696104 199.898375 
L 396.058442 199.969512 
L 396.420779 215.297833 
L 396.783117 220.592962 
L 397.145455 231.150346 
L 397.507792 254.649268 
L 398.232468 268.448307 
L 398.957143 222.463026 
L 399.681818 193.434801 
L 400.044156 171.351699 
L 400.406494 174.379745 
L 400.768831 158.548041 
L 401.131169 179.450269 
L 401.493506 178.728029 
L 401.855844 205.411324 
L 402.218182 210.353671 
L 402.580519 232.996204 
L 402.942857 230.948083 
L 403.667532 219.543423 
L 404.392208 197.776198 
L 404.754545 211.712065 
L 405.116883 215.723346 
L 405.479221 222.369158 
L 405.841558 239.069244 
L 406.203896 267.219468 
L 406.566234 265.48922 
L 406.928571 257.628336 
L 407.290909 259.895407 
L 407.653247 237.402801 
L 408.015584 223.933868 
L 408.74026 182.464402 
L 409.102597 174.578006 
L 409.464935 177.656819 
L 409.827273 175.99701 
L 410.551948 213.627356 
L 410.914286 233.205998 
L 411.638961 245.647171 
L 412.001299 233.139939 
L 412.363636 235.839128 
L 413.088312 213.0407 
L 413.450649 224.891179 
L 413.812987 229.845094 
L 415.262338 284.376182 
L 415.624675 291.105168 
L 415.987013 280.057036 
L 416.349351 260.327089 
L 417.074026 210.425906 
L 417.436364 195.787434 
L 417.798701 190.00147 
L 418.161039 186.517006 
L 419.248052 227.701024 
L 419.61039 238.176672 
L 419.972727 255.97997 
L 420.335065 257.718736 
L 420.697403 246.980517 
L 421.05974 242.897706 
L 421.422078 232.368919 
L 421.784416 226.159684 
L 422.146753 229.66663 
L 422.509091 250.526107 
L 422.871429 262.298385 
L 423.233766 265.066989 
L 423.596104 285.152268 
L 423.958442 298.966685 
L 424.683117 283.972718 
L 425.045455 270.916466 
L 425.407792 242.462042 
L 425.77013 224.743095 
L 426.132468 200.617095 
L 426.494805 201.312084 
L 426.857143 193.90225 
L 427.219481 206.381941 
L 427.581818 212.678625 
L 427.944156 240.364261 
L 428.306494 241.683594 
L 428.668831 258.29448 
L 429.031169 259.875713 
L 429.393506 259.404772 
L 429.755844 239.794318 
L 430.118182 231.983555 
L 430.480519 230.423344 
L 430.842857 234.699639 
L 431.205195 240.873893 
L 431.567532 255.949015 
L 431.92987 264.788303 
L 432.292208 280.605136 
L 432.654545 286.808726 
L 433.016883 290.844533 
L 433.379221 282.298759 
L 433.741558 263.132521 
L 434.103896 165.66641 
L 434.466234 209.134658 
L 434.828571 199.542453 
L 435.190909 183.193485 
L 435.553247 182.404621 
L 436.277922 209.138835 
L 436.64026 226.212021 
L 437.002597 230.723911 
L 437.727273 243.85636 
L 438.08961 238.725816 
L 438.451948 230.226325 
L 438.814286 231.128868 
L 439.176623 212.33196 
L 439.538961 221.305002 
L 439.901299 236.859122 
L 440.263636 243.934759 
L 440.625974 256.809459 
L 440.988312 261.872057 
L 441.350649 274.469196 
L 441.712987 281.378981 
L 442.075325 335.187272 
L 442.437662 242.990121 
L 443.524675 179.879517 
L 443.887013 169.603238 
L 444.249351 173.668125 
L 444.611688 171.708317 
L 444.974026 182.980241 
L 445.336364 201.570759 
L 446.061039 221.180655 
L 446.423377 223.28637 
L 446.785714 218.359295 
L 447.148052 209.794849 
L 447.51039 196.254765 
L 447.872727 190.450537 
L 448.95974 228.549491 
L 449.684416 253.102226 
L 450.046753 255.845045 
L 450.409091 248.702121 
L 450.771429 246.799235 
L 451.133766 232.966817 
L 451.496104 201.313335 
L 452.583117 145.37675 
L 452.945455 151.21054 
L 453.307792 151.060974 
L 453.67013 102.227181 
L 454.032468 187.039739 
L 454.394805 198.473174 
L 454.757143 205.116736 
L 455.119481 205.152807 
L 455.481818 200.069529 
L 455.844156 190.765641 
L 456.206494 185.723677 
L 456.568831 183.522364 
L 457.293506 194.062477 
L 458.380519 247.118053 
L 458.742857 244.525896 
L 459.105195 252.160984 
L 459.467532 240.943933 
L 459.82987 222.917209 
L 460.916883 155.709933 
L 461.279221 146.342404 
L 461.641558 142.32872 
L 462.003896 153.854642 
L 462.366234 169.28281 
L 462.728571 190.82572 
L 463.090909 196.257445 
L 463.453247 209.555384 
L 463.815584 214.413105 
L 464.177922 206.961532 
L 464.54026 202.159007 
L 465.264935 182.826358 
L 465.627273 185.626057 
L 465.98961 201.412625 
L 466.351948 205.992278 
L 466.714286 235.447759 
L 467.076623 249.917215 
L 467.438961 249.242455 
L 467.801299 253.78836 
L 468.525974 227.759352 
L 469.612987 161.436541 
L 469.975325 158.147831 
L 470.337662 163.752899 
L 470.7 164.45159 
L 471.424675 200.91479 
L 471.787013 202.638081 
L 472.149351 222.440403 
L 472.511688 225.818552 
L 473.236364 217.309027 
L 473.598701 197.308303 
L 473.961039 201.032498 
L 474.323377 198.76333 
L 474.685714 207.845051 
L 475.41039 245.202947 
L 476.135065 269.256604 
L 476.497403 266.010966 
L 476.85974 259.079373 
L 477.222078 247.102597 
L 477.946753 197.864704 
L 478.671429 166.411414 
L 479.758442 190.092108 
L 480.120779 207.766798 
L 480.483117 218.515122 
L 480.845455 239.288199 
L 481.207792 234.644388 
L 481.57013 239.057279 
L 481.932468 224.749437 
L 482.294805 218.630218 
L 482.657143 218.186849 
L 483.019481 214.741577 
L 483.381818 234.36085 
L 484.106494 257.198591 
L 484.468831 278.277524 
L 484.831169 275.426896 
L 485.193506 283.455274 
L 485.555844 274.026233 
L 487.005195 189.241789 
L 487.367532 180.576524 
L 487.72987 179.091832 
L 488.092208 187.669959 
L 489.179221 225.895196 
L 489.541558 249.880514 
L 489.903896 247.353476 
L 490.266234 231.164684 
L 490.628571 225.205991 
L 490.990909 208.87415 
L 491.353247 211.232731 
L 491.715584 219.56041 
L 492.077922 224.665983 
L 492.44026 232.004515 
L 492.802597 254.267988 
L 493.527273 271.567013 
L 494.251948 264.338564 
L 494.976623 224.958563 
L 495.338961 187.548475 
L 495.701299 185.975478 
L 496.063636 174.116954 
L 496.425974 170.23759 
L 496.788312 177.111155 
L 497.150649 188.44185 
L 497.512987 209.427375 
L 497.875325 211.336732 
L 498.237662 224.119807 
L 498.6 230.013824 
L 498.962338 216.134789 
L 499.324675 216.496214 
L 499.687013 199.145283 
L 500.049351 201.094957 
L 500.411688 191.505988 
L 500.774026 205.056066 
L 501.136364 232.315397 
L 501.498701 240.733787 
L 501.861039 255.341814 
L 502.223377 261.685568 
L 502.585714 258.135238 
L 502.948052 248.241497 
L 504.035065 166.553857 
L 504.397403 162.520701 
L 504.75974 148.710023 
L 505.122078 150.583653 
L 506.209091 173.678988 
L 506.571429 195.285051 
L 506.933766 205.690476 
L 507.296104 206.268996 
L 507.658442 197.152308 
L 508.020779 199.31153 
L 508.383117 185.952397 
L 508.745455 177.129264 
L 509.107792 175.741413 
L 509.832468 205.270248 
L 510.194805 213.963157 
L 510.557143 232.688278 
L 510.919481 230.217936 
L 511.281818 231.172203 
L 511.644156 223.545618 
L 512.731169 160.434221 
L 513.093506 151.859726 
L 513.455844 139.3621 
L 513.818182 132.950951 
L 514.180519 145.044802 
L 514.905195 158.551449 
L 515.267532 177.93095 
L 515.992208 197.237507 
L 516.354545 186.375084 
L 516.716883 182.103223 
L 517.079221 176.25953 
L 517.441558 166.90663 
L 517.803896 178.526864 
L 518.166234 175.063104 
L 518.890909 198.433909 
L 519.253247 225.870115 
L 519.615584 230.778629 
L 519.977922 229.486782 
L 520.34026 223.698166 
L 522.151948 127.951904 
L 522.514286 118.923473 
L 522.876623 138.467086 
L 523.238961 151.378654 
L 523.601299 159.20061 
L 523.963636 180.291886 
L 524.688312 198.41721 
L 525.050649 182.806669 
L 525.775325 168.81113 
L 526.137662 170.635505 
L 526.5 167.551644 
L 527.587013 217.884306 
L 527.949351 163.562901 
L 528.311688 237.56172 
L 528.674026 226.673712 
L 529.036364 221.846329 
L 530.123377 170.034958 
L 530.485714 141.966076 
L 530.848052 135.462335 
L 531.21039 141.920876 
L 531.572727 142.397728 
L 531.935065 166.354083 
L 532.297403 177.449207 
L 532.65974 194.107186 
L 533.384416 201.181854 
L 533.746753 210.991379 
L 534.109091 196.911299 
L 534.471429 195.899749 
L 534.833766 182.51941 
L 535.196104 188.992203 
L 535.558442 201.322888 
L 536.283117 234.786242 
L 536.645455 239.802308 
L 537.007792 242.210436 
L 537.37013 248.830386 
L 537.732468 245.810641 
L 538.094805 217.186944 
L 538.457143 208.185446 
L 538.819481 174.39906 
L 539.544156 151.306587 
L 539.906494 150.687065 
L 540.631169 177.904207 
L 540.993506 181.341962 
L 541.355844 202.682851 
L 541.718182 215.596624 
L 542.080519 216.099224 
L 542.442857 222.001322 
L 543.167532 198.013096 
L 543.52987 194.110695 
L 543.892208 202.575586 
L 544.254545 205.488253 
L 544.616883 214.364023 
L 545.341558 254.118161 
L 545.703896 265.343831 
L 546.066234 264.126685 
L 546.428571 251.041655 
L 547.515584 183.99883 
L 548.24026 159.639145 
L 548.602597 150.190395 
L 548.964935 162.359053 
L 549.68961 194.802387 
L 550.414286 221.807206 
L 551.501299 209.607156 
L 551.863636 197.723555 
L 552.225974 203.195135 
L 552.588312 197.765206 
L 552.950649 202.249698 
L 553.312987 222.697947 
L 554.4 260.106318 
L 554.762338 252.580862 
L 555.487013 226.004318 
L 555.849351 206.435509 
L 556.574026 158.644733 
L 556.936364 151.291986 
L 557.298701 148.082944 
L 557.661039 155.214927 
L 558.023377 176.402932 
L 558.385714 181.787513 
L 558.748052 204.016473 
L 559.11039 203.108693 
L 559.472727 209.119619 
L 559.835065 138.016638 
L 560.197403 196.141911 
L 560.55974 179.721244 
L 560.922078 173.372209 
L 561.284416 177.42704 
L 561.646753 195.403145 
L 562.009091 204.449031 
L 562.371429 227.295037 
L 562.733766 231.285583 
L 563.096104 239.401426 
L 563.458442 243.290516 
L 563.820779 228.247112 
L 565.632468 125.880135 
L 565.994805 132.928139 
L 566.357143 134.811755 
L 567.444156 180.263325 
L 567.806494 190.806793 
L 568.168831 195.886977 
L 568.531169 194.067169 
L 568.893506 178.377024 
L 569.255844 171.542942 
L 569.618182 168.950509 
L 569.980519 159.768307 
L 570.342857 173.761259 
L 570.705195 177.150096 
L 571.42987 211.707328 
L 571.792208 220.387284 
L 572.154545 224.513225 
L 572.879221 191.333277 
L 573.603896 140.0439 
L 573.966234 124.377881 
L 574.328571 119.826368 
L 574.690909 112.155053 
L 575.415584 129.389365 
L 575.777922 157.310406 
L 576.14026 166.602557 
L 576.502597 165.842522 
L 576.864935 178.010838 
L 577.227273 175.675333 
L 577.58961 167.53777 
L 577.951948 148.675304 
L 578.314286 147.491639 
L 578.676623 137.425749 
L 580.125974 206.283436 
L 580.488312 208.325609 
L 580.850649 217.163253 
L 581.212987 198.257901 
L 581.575325 185.517196 
L 582.662338 121.156489 
L 583.024675 117.211148 
L 583.387013 107.583321 
L 583.749351 116.839036 
L 584.836364 167.598425 
L 585.198701 178.29902 
L 585.561039 169.577863 
L 585.923377 167.699531 
L 586.285714 158.051764 
L 586.648052 159.225649 
L 587.01039 154.312982 
L 587.372727 152.631258 
L 587.735065 161.356247 
L 588.822078 213.711223 
L 589.546753 220.498451 
L 590.633766 169.399592 
L 590.996104 146.915124 
L 591.720779 123.599868 
L 592.083117 122.837714 
L 592.445455 130.98648 
L 592.807792 151.138417 
L 593.894805 186.396586 
L 594.257143 185.05506 
L 594.619481 187.905965 
L 595.344156 168.133187 
L 595.706494 169.501072 
L 596.068831 167.204638 
L 596.431169 171.90546 
L 596.793506 186.875026 
L 597.518182 232.844268 
L 597.880519 236.494971 
L 598.242857 236.698277 
L 598.605195 221.916486 
L 599.32987 181.467505 
L 600.416883 142.124054 
L 600.779221 142.879721 
L 601.141558 141.143037 
L 601.503896 227.791832 
L 601.866234 189.328276 
L 602.228571 193.0723 
L 602.590909 202.639903 
L 602.953247 204.114067 
L 603.315584 195.996939 
L 603.677922 195.087202 
L 604.04026 184.253769 
L 604.402597 185.734192 
L 604.764935 185.093938 
L 605.127273 194.055275 
L 605.48961 215.311701 
L 605.851948 217.572995 
L 606.214286 241.899244 
L 606.576623 244.634783 
L 606.938961 243.986509 
L 607.301299 236.480108 
L 609.112987 134.842129 
L 609.475325 137.238877 
L 609.837662 152.613455 
L 610.2 161.930168 
L 610.562338 175.978794 
L 610.924675 183.516155 
L 611.287013 199.3803 
L 611.649351 209.354677 
L 612.011688 192.635595 
L 612.374026 189.106567 
L 612.736364 179.85698 
L 613.098701 176.558781 
L 613.461039 181.448907 
L 614.185714 204.567847 
L 614.548052 225.866219 
L 614.91039 234.574516 
L 615.272727 239.923672 
L 615.635065 242.992611 
L 616.35974 207.452977 
L 617.084416 164.742008 
L 617.809091 135.251637 
L 618.533766 140.275694 
L 618.896104 149.445471 
L 619.620779 184.586331 
L 619.983117 188.979471 
L 620.345455 196.579208 
L 620.707792 187.382219 
L 621.07013 181.542317 
L 621.432468 171.935029 
L 621.794805 176.842785 
L 622.157143 173.878851 
L 622.519481 173.900201 
L 623.244156 197.51047 
L 623.606494 222.11027 
L 623.968831 218.101583 
L 624.331169 220.671287 
L 625.055844 196.15207 
L 625.418182 166.296193 
L 626.142857 132.357921 
L 626.505195 123.59607 
L 626.867532 106.016923 
L 627.22987 131.982338 
L 627.592208 135.570442 
L 627.954545 163.007342 
L 628.679221 171.252782 
L 629.041558 161.069341 
L 629.403896 158.694096 
L 629.766234 159.659024 
L 630.490909 145.865765 
L 630.853247 147.866511 
L 631.215584 148.395718 
L 632.302597 204.729896 
L 632.664935 203.81069 
L 633.027273 203.546196 
L 633.751948 172.682252 
L 634.114286 146.3316 
L 634.476623 134.498819 
L 634.838961 168.288288 
L 635.201299 96.639265 
L 635.563636 96.715023 
L 635.925974 104.570809 
L 636.288312 117.453624 
L 637.012987 163.334412 
L 637.375325 154.409838 
L 637.737662 163.692799 
L 638.1 148.894188 
L 638.462338 152.293133 
L 639.187013 138.453734 
L 639.549351 132.974416 
L 639.911688 145.853383 
L 640.274026 153.943063 
L 640.636364 167.836751 
L 640.998701 189.644157 
L 641.361039 197.442046 
L 641.723377 195.93375 
L 642.085714 175.543708 
L 642.448052 164.61575 
L 642.81039 149.820306 
L 643.172727 120.054201 
L 643.535065 101.266723 
L 643.897403 98.324531 
L 644.25974 87.243198 
L 644.622078 102.218952 
L 644.984416 122.037073 
L 645.346753 130.205696 
L 645.709091 145.529655 
L 646.433766 156.312373 
L 646.796104 155.847473 
L 647.158442 152.357836 
L 647.520779 139.224425 
L 647.883117 130.696741 
L 648.245455 133.290521 
L 648.607792 154.136052 
L 648.97013 160.967891 
L 649.332468 172.156326 
L 649.694805 196.923375 
L 650.057143 198.737027 
L 650.419481 195.958649 
L 650.781818 191.004958 
L 651.506494 158.435629 
L 651.868831 125.257613 
L 652.231169 112.182467 
L 652.593506 107.723434 
L 652.955844 109.798977 
L 653.680519 134.629987 
L 654.042857 138.608855 
L 654.405195 158.60896 
L 654.767532 160.341831 
L 655.492208 169.709029 
L 655.854545 161.394437 
L 656.216883 149.690894 
L 656.579221 146.109373 
L 656.941558 146.465763 
L 657.303896 165.286793 
L 657.666234 176.532922 
L 658.390909 210.00771 
L 658.753247 220.2147 
L 659.115584 223.431917 
L 659.84026 188.484809 
L 660.202597 171.13378 
L 660.564935 147.277332 
L 660.927273 130.980294 
L 661.651948 117.398233 
L 662.014286 132.687587 
L 662.376623 138.74661 
L 663.463636 190.364672 
L 664.188312 177.209126 
L 664.550649 168.44807 
L 664.912987 168.615653 
L 665.275325 164.683156 
L 665.637662 165.219339 
L 666 175.77728 
L 667.087013 218.815555 
L 667.449351 224.990777 
L 667.811688 228.035196 
L 668.174026 140.397056 
L 668.536364 200.334323 
L 669.261039 145.001136 
L 669.623377 127.649666 
L 669.985714 134.679321 
L 670.348052 130.272216 
L 670.71039 142.204057 
L 671.072727 149.034622 
L 671.435065 164.686472 
L 671.797403 169.71044 
L 672.15974 186.63448 
L 672.522078 195.14047 
L 672.884416 185.46906 
L 673.246753 170.888129 
L 673.609091 174.684533 
L 673.971429 154.648616 
L 674.333766 172.501137 
L 674.696104 167.989574 
L 675.058442 187.818281 
L 675.783117 212.229277 
L 676.145455 229.218583 
L 676.507792 218.667523 
L 676.87013 215.921758 
L 677.232468 196.029198 
L 677.957143 145.691248 
L 678.319481 134.617176 
L 678.681818 117.798959 
L 679.044156 115.400426 
L 679.768831 131.798858 
L 680.493506 169.702171 
L 681.218182 177.188354 
L 681.942857 160.631461 
L 682.305195 162.690039 
L 682.667532 149.819017 
L 683.02987 141.932354 
L 683.392208 85.484527 
L 683.754545 172.613133 
L 684.841558 207.866493 
L 685.203896 201.654349 
L 685.566234 191.547241 
L 685.928571 174.073101 
L 686.290909 163.765392 
L 686.653247 124.421044 
L 687.015584 121.308192 
L 687.377922 96.763425 
L 687.74026 101.031753 
L 688.102597 102.028401 
L 688.827273 128.337209 
L 689.18961 150.750614 
L 689.551948 149.339351 
L 689.914286 155.024535 
L 690.276623 153.525424 
L 690.638961 144.85573 
L 691.001299 130.498491 
L 691.363636 137.241347 
L 691.725974 135.135706 
L 692.088312 137.179181 
L 692.450649 149.519818 
L 693.175325 183.072933 
L 693.537662 181.790722 
L 693.9 188.445274 
L 694.262338 167.571262 
L 694.624675 154.359705 
L 695.711688 92.07489 
L 696.074026 87.930851 
L 696.436364 80.137444 
L 697.161039 103.898247 
L 697.523377 116.774481 
L 697.885714 66.96 
L 698.248052 137.274438 
L 698.61039 144.175059 
L 699.335065 129.589344 
L 699.697403 126.84046 
L 700.422078 115.5137 
L 700.784416 125.742906 
L 701.509091 161.852687 
L 701.871429 170.886951 
L 702.233766 186.726715 
L 702.596104 181.512924 
L 702.958442 166.945201 
L 703.320779 143.214208 
L 703.683117 136.486912 
L 704.045455 101.128522 
L 704.407792 82.839923 
L 704.77013 78.578607 
L 705.132468 69.082823 
L 706.581818 133.408969 
L 706.944156 137.234109 
L 707.306494 144.698622 
L 707.668831 144.617153 
L 708.031169 133.546425 
L 708.393506 118.848517 
L 708.755844 116.965408 
L 709.118182 118.118927 
L 709.480519 136.450982 
L 709.842857 139.699022 
L 710.205195 153.704411 
L 710.567532 181.180673 
L 710.92987 178.10801 
L 711.292208 178.254646 
L 711.654545 174.635542 
L 712.016883 160.413561 
L 712.379221 129.620063 
L 712.741558 119.838326 
L 713.103896 97.081251 
L 713.466234 84.340891 
L 713.828571 92.109914 
L 714.190909 89.863631 
L 714.553247 115.997372 
L 714.915584 125.855843 
L 715.64026 158.253622 
L 716.002597 158.198017 
L 716.364935 149.158242 
L 716.727273 144.348418 
L 717.08961 136.64592 
L 717.451948 138.404907 
L 717.814286 134.730637 
L 718.176623 145.880419 
L 718.538961 162.840173 
L 718.901299 171.987162 
L 719.263636 197.754466 
L 719.625974 196.426651 
L 719.988312 200.509383 
L 720.350649 186.652147 
L 720.712987 180.228652 
L 721.075325 148.623097 
L 721.437662 130.823016 
L 721.8 107.428352 
L 722.162338 106.627734 
L 722.524675 100.209485 
L 722.887013 114.864319 
L 723.611688 136.252466 
L 723.974026 159.245707 
L 724.336364 162.448305 
L 724.698701 168.000533 
L 725.061039 165.25116 
L 725.785714 147.698393 
L 726.148052 144.494444 
L 726.872727 161.464446 
L 727.597403 187.762811 
L 728.684416 220.723886 
L 729.409091 179.816925 
L 729.771429 171.378769 
L 730.496104 115.722432 
L 730.858442 111.615401 
L 731.220779 113.461849 
L 731.583117 123.937318 
L 731.945455 122.775783 
L 732.67013 168.626203 
L 733.032468 167.564153 
L 733.394805 164.857936 
L 733.757143 158.88626 
L 734.119481 157.53709 
L 734.481818 152.895745 
L 734.844156 145.311034 
L 735.206494 146.878852 
L 735.931169 171.37609 
L 736.293506 171.486531 
L 737.018182 210.36599 
L 737.380519 210.231159 
L 737.742857 189.091204 
L 738.105195 175.263057 
L 738.82987 129.672804 
L 739.192208 114.619278 
L 739.554545 108.505387 
L 739.916883 100.055989 
L 740.279221 99.890902 
L 741.003896 143.473013 
L 741.366234 149.260335 
L 741.728571 151.811172 
L 742.090909 152.15208 
L 742.453247 152.215959 
L 742.815584 150.68126 
L 743.177922 142.535657 
L 743.54026 124.373432 
L 743.902597 135.479647 
L 744.264935 139.74009 
L 744.98961 171.811747 
L 745.351948 184.580646 
L 745.714286 187.447813 
L 746.076623 183.043288 
L 746.438961 182.157968 
L 746.801299 155.840166 
L 746.801299 155.840166 
" style="fill:none;stroke:#1f77b4;stroke-linecap:square;stroke-width:1.5;"/>
   </g>
   <g id="line2d_16">
    <path clip-path="url(#pb0d03654d6)" d="M 747.163636 384.48 
L 747.163636 51.84 
" style="fill:none;stroke:#808080;stroke-linecap:square;"/>
   </g>
   <g id="patch_104">
    <path d="M 108 384.48 
L 108 51.84 
" style="fill:none;stroke:#000000;stroke-linecap:square;stroke-linejoin:miter;stroke-width:0.8;"/>
   </g>
   <g id="patch_105">
    <path d="M 777.6 384.48 
L 777.6 51.84 
" style="fill:none;stroke:#000000;stroke-linecap:square;stroke-linejoin:miter;stroke-width:0.8;"/>
   </g>
   <g id="patch_106">
    <path d="M 108 384.48 
L 777.6 384.48 
" style="fill:none;stroke:#000000;stroke-linecap:square;stroke-linejoin:miter;stroke-width:0.8;"/>
   </g>
   <g id="patch_107">
    <path d="M 108 51.84 
L 777.6 51.84 
" style="fill:none;stroke:#000000;stroke-linecap:square;stroke-linejoin:miter;stroke-width:0.8;"/>
   </g>
   <g id="text_17">
    <!-- A4Benchmark-TS29.csv -->
    <defs>
     <path d="M 34.1875 63.1875 
L 20.796875 26.90625 
L 47.609375 26.90625 
z
M 28.609375 72.90625 
L 39.796875 72.90625 
L 67.578125 0 
L 57.328125 0 
L 50.6875 18.703125 
L 17.828125 18.703125 
L 11.1875 0 
L 0.78125 0 
z
" id="DejaVuSans-65"/>
     <path d="M 37.796875 64.3125 
L 12.890625 25.390625 
L 37.796875 25.390625 
z
M 35.203125 72.90625 
L 47.609375 72.90625 
L 47.609375 25.390625 
L 58.015625 25.390625 
L 58.015625 17.1875 
L 47.609375 17.1875 
L 47.609375 0 
L 37.796875 0 
L 37.796875 17.1875 
L 4.890625 17.1875 
L 4.890625 26.703125 
z
" id="DejaVuSans-52"/>
     <path d="M 19.671875 34.8125 
L 19.671875 8.109375 
L 35.5 8.109375 
Q 43.453125 8.109375 47.28125 11.40625 
Q 51.125 14.703125 51.125 21.484375 
Q 51.125 28.328125 47.28125 31.5625 
Q 43.453125 34.8125 35.5 34.8125 
z
M 19.671875 64.796875 
L 19.671875 42.828125 
L 34.28125 42.828125 
Q 41.5 42.828125 45.03125 45.53125 
Q 48.578125 48.25 48.578125 53.8125 
Q 48.578125 59.328125 45.03125 62.0625 
Q 41.5 64.796875 34.28125 64.796875 
z
M 9.8125 72.90625 
L 35.015625 72.90625 
Q 46.296875 72.90625 52.390625 68.21875 
Q 58.5 63.53125 58.5 54.890625 
Q 58.5 48.1875 55.375 44.234375 
Q 52.25 40.28125 46.1875 39.3125 
Q 53.46875 37.75 57.5 32.78125 
Q 61.53125 27.828125 61.53125 20.40625 
Q 61.53125 10.640625 54.890625 5.3125 
Q 48.25 0 35.984375 0 
L 9.8125 0 
z
" id="DejaVuSans-66"/>
     <path d="M 54.890625 33.015625 
L 54.890625 0 
L 45.90625 0 
L 45.90625 32.71875 
Q 45.90625 40.484375 42.875 44.328125 
Q 39.84375 48.1875 33.796875 48.1875 
Q 26.515625 48.1875 22.3125 43.546875 
Q 18.109375 38.921875 18.109375 30.90625 
L 18.109375 0 
L 9.078125 0 
L 9.078125 54.6875 
L 18.109375 54.6875 
L 18.109375 46.1875 
Q 21.34375 51.125 25.703125 53.5625 
Q 30.078125 56 35.796875 56 
Q 45.21875 56 50.046875 50.171875 
Q 54.890625 44.34375 54.890625 33.015625 
z
" id="DejaVuSans-110"/>
     <path d="M 48.78125 52.59375 
L 48.78125 44.1875 
Q 44.96875 46.296875 41.140625 47.34375 
Q 37.3125 48.390625 33.40625 48.390625 
Q 24.65625 48.390625 19.8125 42.84375 
Q 14.984375 37.3125 14.984375 27.296875 
Q 14.984375 17.28125 19.8125 11.734375 
Q 24.65625 6.203125 33.40625 6.203125 
Q 37.3125 6.203125 41.140625 7.25 
Q 44.96875 8.296875 48.78125 10.40625 
L 48.78125 2.09375 
Q 45.015625 0.34375 40.984375 -0.53125 
Q 36.96875 -1.421875 32.421875 -1.421875 
Q 20.0625 -1.421875 12.78125 6.34375 
Q 5.515625 14.109375 5.515625 27.296875 
Q 5.515625 40.671875 12.859375 48.328125 
Q 20.21875 56 33.015625 56 
Q 37.15625 56 41.109375 55.140625 
Q 45.0625 54.296875 48.78125 52.59375 
z
" id="DejaVuSans-99"/>
     <path d="M 54.890625 33.015625 
L 54.890625 0 
L 45.90625 0 
L 45.90625 32.71875 
Q 45.90625 40.484375 42.875 44.328125 
Q 39.84375 48.1875 33.796875 48.1875 
Q 26.515625 48.1875 22.3125 43.546875 
Q 18.109375 38.921875 18.109375 30.90625 
L 18.109375 0 
L 9.078125 0 
L 9.078125 75.984375 
L 18.109375 75.984375 
L 18.109375 46.1875 
Q 21.34375 51.125 25.703125 53.5625 
Q 30.078125 56 35.796875 56 
Q 45.21875 56 50.046875 50.171875 
Q 54.890625 44.34375 54.890625 33.015625 
z
" id="DejaVuSans-104"/>
     <path d="M 41.109375 46.296875 
Q 39.59375 47.171875 37.8125 47.578125 
Q 36.03125 48 33.890625 48 
Q 26.265625 48 22.1875 43.046875 
Q 18.109375 38.09375 18.109375 28.8125 
L 18.109375 0 
L 9.078125 0 
L 9.078125 54.6875 
L 18.109375 54.6875 
L 18.109375 46.1875 
Q 20.953125 51.171875 25.484375 53.578125 
Q 30.03125 56 36.53125 56 
Q 37.453125 56 38.578125 55.875 
Q 39.703125 55.765625 41.0625 55.515625 
z
" id="DejaVuSans-114"/>
     <path d="M 9.078125 75.984375 
L 18.109375 75.984375 
L 18.109375 31.109375 
L 44.921875 54.6875 
L 56.390625 54.6875 
L 27.390625 29.109375 
L 57.625 0 
L 45.90625 0 
L 18.109375 26.703125 
L 18.109375 0 
L 9.078125 0 
z
" id="DejaVuSans-107"/>
     <path d="M 4.890625 31.390625 
L 31.203125 31.390625 
L 31.203125 23.390625 
L 4.890625 23.390625 
z
" id="DejaVuSans-45"/>
     <path d="M 53.515625 70.515625 
L 53.515625 60.890625 
Q 47.90625 63.578125 42.921875 64.890625 
Q 37.9375 66.21875 33.296875 66.21875 
Q 25.25 66.21875 20.875 63.09375 
Q 16.5 59.96875 16.5 54.203125 
Q 16.5 49.359375 19.40625 46.890625 
Q 22.3125 44.4375 30.421875 42.921875 
L 36.375 41.703125 
Q 47.40625 39.59375 52.65625 34.296875 
Q 57.90625 29 57.90625 20.125 
Q 57.90625 9.515625 50.796875 4.046875 
Q 43.703125 -1.421875 29.984375 -1.421875 
Q 24.8125 -1.421875 18.96875 -0.25 
Q 13.140625 0.921875 6.890625 3.21875 
L 6.890625 13.375 
Q 12.890625 10.015625 18.65625 8.296875 
Q 24.421875 6.59375 29.984375 6.59375 
Q 38.421875 6.59375 43.015625 9.90625 
Q 47.609375 13.234375 47.609375 19.390625 
Q 47.609375 24.75 44.3125 27.78125 
Q 41.015625 30.8125 33.5 32.328125 
L 27.484375 33.5 
Q 16.453125 35.6875 11.515625 40.375 
Q 6.59375 45.0625 6.59375 53.421875 
Q 6.59375 63.09375 13.40625 68.65625 
Q 20.21875 74.21875 32.171875 74.21875 
Q 37.3125 74.21875 42.625 73.28125 
Q 47.953125 72.359375 53.515625 70.515625 
z
" id="DejaVuSans-83"/>
     <path d="M 10.984375 1.515625 
L 10.984375 10.5 
Q 14.703125 8.734375 18.5 7.8125 
Q 22.3125 6.890625 25.984375 6.890625 
Q 35.75 6.890625 40.890625 13.453125 
Q 46.046875 20.015625 46.78125 33.40625 
Q 43.953125 29.203125 39.59375 26.953125 
Q 35.25 24.703125 29.984375 24.703125 
Q 19.046875 24.703125 12.671875 31.3125 
Q 6.296875 37.9375 6.296875 49.421875 
Q 6.296875 60.640625 12.9375 67.421875 
Q 19.578125 74.21875 30.609375 74.21875 
Q 43.265625 74.21875 49.921875 64.515625 
Q 56.59375 54.828125 56.59375 36.375 
Q 56.59375 19.140625 48.40625 8.859375 
Q 40.234375 -1.421875 26.421875 -1.421875 
Q 22.703125 -1.421875 18.890625 -0.6875 
Q 15.09375 0.046875 10.984375 1.515625 
z
M 30.609375 32.421875 
Q 37.25 32.421875 41.125 36.953125 
Q 45.015625 41.5 45.015625 49.421875 
Q 45.015625 57.28125 41.125 61.84375 
Q 37.25 66.40625 30.609375 66.40625 
Q 23.96875 66.40625 20.09375 61.84375 
Q 16.21875 57.28125 16.21875 49.421875 
Q 16.21875 41.5 20.09375 36.953125 
Q 23.96875 32.421875 30.609375 32.421875 
z
" id="DejaVuSans-57"/>
     <path d="M 10.6875 12.40625 
L 21 12.40625 
L 21 0 
L 10.6875 0 
z
" id="DejaVuSans-46"/>
     <path d="M 2.984375 54.6875 
L 12.5 54.6875 
L 29.59375 8.796875 
L 46.6875 54.6875 
L 56.203125 54.6875 
L 35.6875 0 
L 23.484375 0 
z
" id="DejaVuSans-118"/>
    </defs>
    <g transform="translate(371.555625 45.84)scale(0.12 -0.12)">
     <use xlink:href="#DejaVuSans-65"/>
     <use x="68.408203" xlink:href="#DejaVuSans-52"/>
     <use x="132.03125" xlink:href="#DejaVuSans-66"/>
     <use x="200.634766" xlink:href="#DejaVuSans-101"/>
     <use x="262.158203" xlink:href="#DejaVuSans-110"/>
     <use x="325.537109" xlink:href="#DejaVuSans-99"/>
     <use x="380.517578" xlink:href="#DejaVuSans-104"/>
     <use x="443.896484" xlink:href="#DejaVuSans-109"/>
     <use x="541.308594" xlink:href="#DejaVuSans-97"/>
     <use x="602.587891" xlink:href="#DejaVuSans-114"/>
     <use x="643.701172" xlink:href="#DejaVuSans-107"/>
     <use x="701.611328" xlink:href="#DejaVuSans-45"/>
     <use x="737.554688" xlink:href="#DejaVuSans-84"/>
     <use x="798.638672" xlink:href="#DejaVuSans-83"/>
     <use x="862.115234" xlink:href="#DejaVuSans-50"/>
     <use x="925.738281" xlink:href="#DejaVuSans-57"/>
     <use x="989.361328" xlink:href="#DejaVuSans-46"/>
     <use x="1021.148438" xlink:href="#DejaVuSans-99"/>
     <use x="1076.128906" xlink:href="#DejaVuSans-115"/>
     <use x="1128.228516" xlink:href="#DejaVuSans-118"/>
    </g>
   </g>
   <g id="legend_1">
    <g id="patch_108">
     <path d="M 711.284375 74.518125 
L 770.6 74.518125 
Q 772.6 74.518125 772.6 72.518125 
L 772.6 58.84 
Q 772.6 56.84 770.6 56.84 
L 711.284375 56.84 
Q 709.284375 56.84 709.284375 58.84 
L 709.284375 72.518125 
Q 709.284375 74.518125 711.284375 74.518125 
z
" style="fill:#ffffff;opacity:0.8;stroke:#cccccc;stroke-linejoin:miter;"/>
    </g>
    <g id="line2d_17">
     <path d="M 713.284375 64.938438 
L 733.284375 64.938438 
" style="fill:none;stroke:#1f77b4;stroke-linecap:square;stroke-width:1.5;"/>
    </g>
    <g id="line2d_18"/>
    <g id="text_18">
     <!-- value -->
     <g transform="translate(741.284375 68.438438)scale(0.1 -0.1)">
      <use xlink:href="#DejaVuSans-118"/>
      <use x="59.179688" xlink:href="#DejaVuSans-97"/>
      <use x="120.458984" xlink:href="#DejaVuSans-108"/>
      <use x="148.242188" xlink:href="#DejaVuSans-117"/>
      <use x="211.621094" xlink:href="#DejaVuSans-101"/>
     </g>
    </g>
   </g>
  </g>
 </g>
 <defs>
  <clipPath id="pb0d03654d6">
   <rect height="332.64" width="669.6" x="108" y="51.84"/>
  </clipPath>
 </defs>
</svg>
