<?xml version="1.0" encoding="utf-8" standalone="no"?>
<!DOCTYPE svg PUBLIC "-//W3C//DTD SVG 1.1//EN"
  "http://www.w3.org/Graphics/SVG/1.1/DTD/svg11.dtd">
<!-- Created with matplotlib (https://matplotlib.org/) -->
<svg height="432pt" version="1.1" viewBox="0 0 864 432" width="864pt" xmlns="http://www.w3.org/2000/svg" xmlns:xlink="http://www.w3.org/1999/xlink">
 <defs>
  <style type="text/css">
*{stroke-linecap:butt;stroke-linejoin:round;}
  </style>
 </defs>
 <g id="figure_1">
  <g id="patch_1">
   <path d="M 0 432 
L 864 432 
L 864 0 
L 0 0 
z
" style="fill:#ffffff;"/>
  </g>
  <g id="axes_1">
   <g id="patch_2">
    <path d="M 108 384.48 
L 777.6 384.48 
L 777.6 51.84 
L 108 51.84 
z
" style="fill:#ffffff;"/>
   </g>
   <g id="patch_3">
    <path clip-path="url(#p9517244969)" d="M 138.436364 384.48 
L 138.436364 51.84 
L 500.774026 51.84 
L 500.774026 384.48 
z
" style="fill:#0000ff;opacity:0.05;"/>
   </g>
   <g id="patch_4">
    <path clip-path="url(#p9517244969)" d="M 500.774026 384.48 
L 500.774026 51.84 
L 747.163636 51.84 
L 747.163636 384.48 
z
" style="fill:#ff0000;opacity:0.08;"/>
   </g>
   <g id="patch_5">
    <path clip-path="url(#p9517244969)" d="M 138.436364 384.48 
L 138.436364 51.84 
L 142.05974 51.84 
L 142.05974 384.48 
z
" style="fill:#008000;opacity:0.04;"/>
   </g>
   <g id="patch_6">
    <path clip-path="url(#p9517244969)" d="M 500.774026 384.48 
L 500.774026 371.1744 
L 504.397403 371.1744 
L 504.397403 384.48 
z
" style="fill:#ff6600;"/>
   </g>
   <g id="patch_7">
    <path clip-path="url(#p9517244969)" d="M 504.397403 384.48 
L 504.397403 371.1744 
L 508.020779 371.1744 
L 508.020779 384.48 
z
" style="fill:#ff6600;"/>
   </g>
   <g id="patch_8">
    <path clip-path="url(#p9517244969)" d="M 145.683117 384.48 
L 145.683117 51.84 
L 149.306494 51.84 
L 149.306494 384.48 
z
" style="fill:#008000;opacity:0.04;"/>
   </g>
   <g id="patch_9">
    <path clip-path="url(#p9517244969)" d="M 145.683117 371.1744 
L 145.683117 51.84 
L 149.306494 51.84 
L 149.306494 371.1744 
z
" style="fill:#008000;opacity:0.5;"/>
   </g>
   <g id="patch_10">
    <path clip-path="url(#p9517244969)" d="M 508.020779 384.48 
L 508.020779 371.1744 
L 511.644156 371.1744 
L 511.644156 384.48 
z
" style="fill:#ff6600;"/>
   </g>
   <g id="patch_11">
    <path clip-path="url(#p9517244969)" d="M 149.306494 371.1744 
L 149.306494 51.84 
L 152.92987 51.84 
L 152.92987 371.1744 
z
" style="fill:#008000;opacity:0.5;"/>
   </g>
   <g id="patch_12">
    <path clip-path="url(#p9517244969)" d="M 511.644156 384.48 
L 511.644156 371.1744 
L 515.267532 371.1744 
L 515.267532 384.48 
z
" style="fill:#ff6600;"/>
   </g>
   <g id="patch_13">
    <path clip-path="url(#p9517244969)" d="M 152.92987 384.48 
L 152.92987 51.84 
L 156.553247 51.84 
L 156.553247 384.48 
z
" style="fill:#008000;opacity:0.04;"/>
   </g>
   <g id="patch_14">
    <path clip-path="url(#p9517244969)" d="M 152.92987 371.1744 
L 152.92987 51.84 
L 156.553247 51.84 
L 156.553247 371.1744 
z
" style="fill:#008000;opacity:0.5;"/>
   </g>
   <g id="patch_15">
    <path clip-path="url(#p9517244969)" d="M 515.267532 384.48 
L 515.267532 371.1744 
L 518.890909 371.1744 
L 518.890909 384.48 
z
" style="fill:#ff6600;"/>
   </g>
   <g id="patch_16">
    <path clip-path="url(#p9517244969)" d="M 156.553247 371.1744 
L 156.553247 51.84 
L 160.176623 51.84 
L 160.176623 371.1744 
z
" style="fill:#008000;opacity:0.5;"/>
   </g>
   <g id="patch_17">
    <path clip-path="url(#p9517244969)" d="M 156.553247 384.48 
L 156.553247 371.1744 
L 160.176623 371.1744 
L 160.176623 384.48 
z
" style="fill:#ffe500;"/>
   </g>
   <g id="patch_18">
    <path clip-path="url(#p9517244969)" d="M 518.890909 384.48 
L 518.890909 371.1744 
L 522.514286 371.1744 
L 522.514286 384.48 
z
" style="fill:#ff6600;"/>
   </g>
   <g id="patch_19">
    <path clip-path="url(#p9517244969)" d="M 160.176623 384.48 
L 160.176623 51.84 
L 163.8 51.84 
L 163.8 384.48 
z
" style="fill:#008000;opacity:0.04;"/>
   </g>
   <g id="patch_20">
    <path clip-path="url(#p9517244969)" d="M 522.514286 384.48 
L 522.514286 371.1744 
L 526.137662 371.1744 
L 526.137662 384.48 
z
" style="fill:#ff6600;"/>
   </g>
   <g id="patch_21">
    <path clip-path="url(#p9517244969)" d="M 526.137662 384.48 
L 526.137662 371.1744 
L 529.761039 371.1744 
L 529.761039 384.48 
z
" style="fill:#ff6600;"/>
   </g>
   <g id="patch_22">
    <path clip-path="url(#p9517244969)" d="M 167.423377 384.48 
L 167.423377 51.84 
L 171.046753 51.84 
L 171.046753 384.48 
z
" style="fill:#008000;opacity:0.04;"/>
   </g>
   <g id="patch_23">
    <path clip-path="url(#p9517244969)" d="M 529.761039 384.48 
L 529.761039 371.1744 
L 533.384416 371.1744 
L 533.384416 384.48 
z
" style="fill:#ff6600;"/>
   </g>
   <g id="patch_24">
    <path clip-path="url(#p9517244969)" d="M 533.384416 384.48 
L 533.384416 371.1744 
L 537.007792 371.1744 
L 537.007792 384.48 
z
" style="fill:#ff6600;"/>
   </g>
   <g id="patch_25">
    <path clip-path="url(#p9517244969)" d="M 174.67013 384.48 
L 174.67013 51.84 
L 178.293506 51.84 
L 178.293506 384.48 
z
" style="fill:#008000;opacity:0.04;"/>
   </g>
   <g id="patch_26">
    <path clip-path="url(#p9517244969)" d="M 537.007792 384.48 
L 537.007792 371.1744 
L 540.631169 371.1744 
L 540.631169 384.48 
z
" style="fill:#ff6600;"/>
   </g>
   <g id="patch_27">
    <path clip-path="url(#p9517244969)" d="M 540.631169 384.48 
L 540.631169 371.1744 
L 544.254545 371.1744 
L 544.254545 384.48 
z
" style="fill:#ff6600;"/>
   </g>
   <g id="patch_28">
    <path clip-path="url(#p9517244969)" d="M 181.916883 384.48 
L 181.916883 51.84 
L 185.54026 51.84 
L 185.54026 384.48 
z
" style="fill:#008000;opacity:0.04;"/>
   </g>
   <g id="patch_29">
    <path clip-path="url(#p9517244969)" d="M 544.254545 384.48 
L 544.254545 371.1744 
L 547.877922 371.1744 
L 547.877922 384.48 
z
" style="fill:#ff6600;"/>
   </g>
   <g id="patch_30">
    <path clip-path="url(#p9517244969)" d="M 189.163636 384.48 
L 189.163636 51.84 
L 192.787013 51.84 
L 192.787013 384.48 
z
" style="fill:#008000;opacity:0.04;"/>
   </g>
   <g id="patch_31">
    <path clip-path="url(#p9517244969)" d="M 551.501299 384.48 
L 551.501299 371.1744 
L 555.124675 371.1744 
L 555.124675 384.48 
z
" style="fill:#ff6600;"/>
   </g>
   <g id="patch_32">
    <path clip-path="url(#p9517244969)" d="M 555.124675 384.48 
L 555.124675 371.1744 
L 558.748052 371.1744 
L 558.748052 384.48 
z
" style="fill:#ff6600;"/>
   </g>
   <g id="patch_33">
    <path clip-path="url(#p9517244969)" d="M 196.41039 384.48 
L 196.41039 51.84 
L 200.033766 51.84 
L 200.033766 384.48 
z
" style="fill:#008000;opacity:0.04;"/>
   </g>
   <g id="patch_34">
    <path clip-path="url(#p9517244969)" d="M 558.748052 384.48 
L 558.748052 371.1744 
L 562.371429 371.1744 
L 562.371429 384.48 
z
" style="fill:#ff6600;"/>
   </g>
   <g id="patch_35">
    <path clip-path="url(#p9517244969)" d="M 562.371429 384.48 
L 562.371429 371.1744 
L 565.994805 371.1744 
L 565.994805 384.48 
z
" style="fill:#ff6600;"/>
   </g>
   <g id="patch_36">
    <path clip-path="url(#p9517244969)" d="M 203.657143 384.48 
L 203.657143 51.84 
L 207.280519 51.84 
L 207.280519 384.48 
z
" style="fill:#008000;opacity:0.04;"/>
   </g>
   <g id="patch_37">
    <path clip-path="url(#p9517244969)" d="M 210.903896 384.48 
L 210.903896 51.84 
L 214.527273 51.84 
L 214.527273 384.48 
z
" style="fill:#008000;opacity:0.04;"/>
   </g>
   <g id="patch_38">
    <path clip-path="url(#p9517244969)" d="M 218.150649 384.48 
L 218.150649 51.84 
L 221.774026 51.84 
L 221.774026 384.48 
z
" style="fill:#008000;opacity:0.04;"/>
   </g>
   <g id="patch_39">
    <path clip-path="url(#p9517244969)" d="M 580.488312 384.48 
L 580.488312 371.1744 
L 584.111688 371.1744 
L 584.111688 384.48 
z
" style="fill:#ff6600;"/>
   </g>
   <g id="patch_40">
    <path clip-path="url(#p9517244969)" d="M 221.774026 371.1744 
L 221.774026 51.84 
L 225.397403 51.84 
L 225.397403 371.1744 
z
" style="fill:#008000;opacity:0.5;"/>
   </g>
   <g id="patch_41">
    <path clip-path="url(#p9517244969)" d="M 225.397403 384.48 
L 225.397403 51.84 
L 229.020779 51.84 
L 229.020779 384.48 
z
" style="fill:#008000;opacity:0.04;"/>
   </g>
   <g id="patch_42">
    <path clip-path="url(#p9517244969)" d="M 232.644156 384.48 
L 232.644156 51.84 
L 236.267532 51.84 
L 236.267532 384.48 
z
" style="fill:#008000;opacity:0.04;"/>
   </g>
   <g id="patch_43">
    <path clip-path="url(#p9517244969)" d="M 239.890909 384.48 
L 239.890909 51.84 
L 243.514286 51.84 
L 243.514286 384.48 
z
" style="fill:#008000;opacity:0.04;"/>
   </g>
   <g id="patch_44">
    <path clip-path="url(#p9517244969)" d="M 243.514286 371.1744 
L 243.514286 51.84 
L 247.137662 51.84 
L 247.137662 371.1744 
z
" style="fill:#008000;opacity:0.5;"/>
   </g>
   <g id="patch_45">
    <path clip-path="url(#p9517244969)" d="M 247.137662 384.48 
L 247.137662 51.84 
L 250.761039 51.84 
L 250.761039 384.48 
z
" style="fill:#008000;opacity:0.04;"/>
   </g>
   <g id="patch_46">
    <path clip-path="url(#p9517244969)" d="M 254.384416 384.48 
L 254.384416 51.84 
L 258.007792 51.84 
L 258.007792 384.48 
z
" style="fill:#008000;opacity:0.04;"/>
   </g>
   <g id="patch_47">
    <path clip-path="url(#p9517244969)" d="M 261.631169 384.48 
L 261.631169 51.84 
L 265.254545 51.84 
L 265.254545 384.48 
z
" style="fill:#008000;opacity:0.04;"/>
   </g>
   <g id="patch_48">
    <path clip-path="url(#p9517244969)" d="M 268.877922 384.48 
L 268.877922 51.84 
L 272.501299 51.84 
L 272.501299 384.48 
z
" style="fill:#008000;opacity:0.04;"/>
   </g>
   <g id="patch_49">
    <path clip-path="url(#p9517244969)" d="M 276.124675 384.48 
L 276.124675 51.84 
L 279.748052 51.84 
L 279.748052 384.48 
z
" style="fill:#008000;opacity:0.04;"/>
   </g>
   <g id="patch_50">
    <path clip-path="url(#p9517244969)" d="M 283.371429 384.48 
L 283.371429 51.84 
L 286.994805 51.84 
L 286.994805 384.48 
z
" style="fill:#008000;opacity:0.04;"/>
   </g>
   <g id="patch_51">
    <path clip-path="url(#p9517244969)" d="M 290.618182 384.48 
L 290.618182 51.84 
L 294.241558 51.84 
L 294.241558 384.48 
z
" style="fill:#008000;opacity:0.04;"/>
   </g>
   <g id="patch_52">
    <path clip-path="url(#p9517244969)" d="M 297.864935 384.48 
L 297.864935 51.84 
L 301.488312 51.84 
L 301.488312 384.48 
z
" style="fill:#008000;opacity:0.04;"/>
   </g>
   <g id="patch_53">
    <path clip-path="url(#p9517244969)" d="M 305.111688 384.48 
L 305.111688 51.84 
L 308.735065 51.84 
L 308.735065 384.48 
z
" style="fill:#008000;opacity:0.04;"/>
   </g>
   <g id="patch_54">
    <path clip-path="url(#p9517244969)" d="M 312.358442 384.48 
L 312.358442 51.84 
L 315.981818 51.84 
L 315.981818 384.48 
z
" style="fill:#008000;opacity:0.04;"/>
   </g>
   <g id="patch_55">
    <path clip-path="url(#p9517244969)" d="M 312.358442 371.1744 
L 312.358442 51.84 
L 315.981818 51.84 
L 315.981818 371.1744 
z
" style="fill:#008000;opacity:0.5;"/>
   </g>
   <g id="patch_56">
    <path clip-path="url(#p9517244969)" d="M 319.605195 384.48 
L 319.605195 51.84 
L 323.228571 51.84 
L 323.228571 384.48 
z
" style="fill:#008000;opacity:0.04;"/>
   </g>
   <g id="patch_57">
    <path clip-path="url(#p9517244969)" d="M 319.605195 371.1744 
L 319.605195 357.8688 
L 323.228571 357.8688 
L 323.228571 371.1744 
z
" style="fill:#ff00ff;"/>
   </g>
   <g id="patch_58">
    <path clip-path="url(#p9517244969)" d="M 326.851948 384.48 
L 326.851948 51.84 
L 330.475325 51.84 
L 330.475325 384.48 
z
" style="fill:#008000;opacity:0.04;"/>
   </g>
   <g id="patch_59">
    <path clip-path="url(#p9517244969)" d="M 334.098701 384.48 
L 334.098701 51.84 
L 337.722078 51.84 
L 337.722078 384.48 
z
" style="fill:#008000;opacity:0.04;"/>
   </g>
   <g id="patch_60">
    <path clip-path="url(#p9517244969)" d="M 341.345455 384.48 
L 341.345455 51.84 
L 344.968831 51.84 
L 344.968831 384.48 
z
" style="fill:#008000;opacity:0.04;"/>
   </g>
   <g id="patch_61">
    <path clip-path="url(#p9517244969)" d="M 703.683117 384.48 
L 703.683117 371.1744 
L 707.306494 371.1744 
L 707.306494 384.48 
z
" style="fill:#ff6600;"/>
   </g>
   <g id="patch_62">
    <path clip-path="url(#p9517244969)" d="M 348.592208 384.48 
L 348.592208 51.84 
L 352.215584 51.84 
L 352.215584 384.48 
z
" style="fill:#008000;opacity:0.04;"/>
   </g>
   <g id="patch_63">
    <path clip-path="url(#p9517244969)" d="M 355.838961 384.48 
L 355.838961 51.84 
L 359.462338 51.84 
L 359.462338 384.48 
z
" style="fill:#008000;opacity:0.04;"/>
   </g>
   <g id="patch_64">
    <path clip-path="url(#p9517244969)" d="M 363.085714 384.48 
L 363.085714 51.84 
L 366.709091 51.84 
L 366.709091 384.48 
z
" style="fill:#008000;opacity:0.04;"/>
   </g>
   <g id="patch_65">
    <path clip-path="url(#p9517244969)" d="M 363.085714 384.48 
L 363.085714 371.1744 
L 366.709091 371.1744 
L 366.709091 384.48 
z
" style="fill:#ffe500;"/>
   </g>
   <g id="patch_66">
    <path clip-path="url(#p9517244969)" d="M 370.332468 384.48 
L 370.332468 51.84 
L 373.955844 51.84 
L 373.955844 384.48 
z
" style="fill:#008000;opacity:0.04;"/>
   </g>
   <g id="patch_67">
    <path clip-path="url(#p9517244969)" d="M 377.579221 384.48 
L 377.579221 51.84 
L 381.202597 51.84 
L 381.202597 384.48 
z
" style="fill:#008000;opacity:0.04;"/>
   </g>
   <g id="patch_68">
    <path clip-path="url(#p9517244969)" d="M 381.202597 371.1744 
L 381.202597 51.84 
L 384.825974 51.84 
L 384.825974 371.1744 
z
" style="fill:#008000;opacity:0.5;"/>
   </g>
   <g id="patch_69">
    <path clip-path="url(#p9517244969)" d="M 384.825974 384.48 
L 384.825974 51.84 
L 388.449351 51.84 
L 388.449351 384.48 
z
" style="fill:#008000;opacity:0.04;"/>
   </g>
   <g id="patch_70">
    <path clip-path="url(#p9517244969)" d="M 388.449351 384.48 
L 388.449351 371.1744 
L 392.072727 371.1744 
L 392.072727 384.48 
z
" style="fill:#ffe500;"/>
   </g>
   <g id="patch_71">
    <path clip-path="url(#p9517244969)" d="M 392.072727 384.48 
L 392.072727 51.84 
L 395.696104 51.84 
L 395.696104 384.48 
z
" style="fill:#008000;opacity:0.04;"/>
   </g>
   <g id="patch_72">
    <path clip-path="url(#p9517244969)" d="M 399.319481 384.48 
L 399.319481 51.84 
L 402.942857 51.84 
L 402.942857 384.48 
z
" style="fill:#008000;opacity:0.04;"/>
   </g>
   <g id="patch_73">
    <path clip-path="url(#p9517244969)" d="M 406.566234 384.48 
L 406.566234 51.84 
L 410.18961 51.84 
L 410.18961 384.48 
z
" style="fill:#008000;opacity:0.04;"/>
   </g>
   <g id="patch_74">
    <path clip-path="url(#p9517244969)" d="M 406.566234 384.48 
L 406.566234 371.1744 
L 410.18961 371.1744 
L 410.18961 384.48 
z
" style="fill:#ffe500;"/>
   </g>
   <g id="patch_75">
    <path clip-path="url(#p9517244969)" d="M 413.812987 384.48 
L 413.812987 51.84 
L 417.436364 51.84 
L 417.436364 384.48 
z
" style="fill:#008000;opacity:0.04;"/>
   </g>
   <g id="patch_76">
    <path clip-path="url(#p9517244969)" d="M 421.05974 384.48 
L 421.05974 51.84 
L 424.683117 51.84 
L 424.683117 384.48 
z
" style="fill:#008000;opacity:0.04;"/>
   </g>
   <g id="patch_77">
    <path clip-path="url(#p9517244969)" d="M 421.05974 371.1744 
L 421.05974 51.84 
L 424.683117 51.84 
L 424.683117 371.1744 
z
" style="fill:#008000;opacity:0.5;"/>
   </g>
   <g id="patch_78">
    <path clip-path="url(#p9517244969)" d="M 421.05974 384.48 
L 421.05974 371.1744 
L 424.683117 371.1744 
L 424.683117 384.48 
z
" style="fill:#ffe500;"/>
   </g>
   <g id="patch_79">
    <path clip-path="url(#p9517244969)" d="M 428.306494 384.48 
L 428.306494 51.84 
L 431.92987 51.84 
L 431.92987 384.48 
z
" style="fill:#008000;opacity:0.04;"/>
   </g>
   <g id="patch_80">
    <path clip-path="url(#p9517244969)" d="M 431.92987 384.48 
L 431.92987 371.1744 
L 435.553247 371.1744 
L 435.553247 384.48 
z
" style="fill:#ffe500;"/>
   </g>
   <g id="patch_81">
    <path clip-path="url(#p9517244969)" d="M 435.553247 384.48 
L 435.553247 51.84 
L 439.176623 51.84 
L 439.176623 384.48 
z
" style="fill:#008000;opacity:0.04;"/>
   </g>
   <g id="patch_82">
    <path clip-path="url(#p9517244969)" d="M 439.176623 371.1744 
L 439.176623 51.84 
L 442.8 51.84 
L 442.8 371.1744 
z
" style="fill:#008000;opacity:0.5;"/>
   </g>
   <g id="patch_83">
    <path clip-path="url(#p9517244969)" d="M 439.176623 384.48 
L 439.176623 371.1744 
L 442.8 371.1744 
L 442.8 384.48 
z
" style="fill:#ffe500;"/>
   </g>
   <g id="patch_84">
    <path clip-path="url(#p9517244969)" d="M 442.8 384.48 
L 442.8 51.84 
L 446.423377 51.84 
L 446.423377 384.48 
z
" style="fill:#008000;opacity:0.04;"/>
   </g>
   <g id="patch_85">
    <path clip-path="url(#p9517244969)" d="M 450.046753 384.48 
L 450.046753 51.84 
L 453.67013 51.84 
L 453.67013 384.48 
z
" style="fill:#008000;opacity:0.04;"/>
   </g>
   <g id="patch_86">
    <path clip-path="url(#p9517244969)" d="M 450.046753 384.48 
L 450.046753 371.1744 
L 453.67013 371.1744 
L 453.67013 384.48 
z
" style="fill:#ffe500;"/>
   </g>
   <g id="patch_87">
    <path clip-path="url(#p9517244969)" d="M 457.293506 384.48 
L 457.293506 51.84 
L 460.916883 51.84 
L 460.916883 384.48 
z
" style="fill:#008000;opacity:0.04;"/>
   </g>
   <g id="patch_88">
    <path clip-path="url(#p9517244969)" d="M 464.54026 384.48 
L 464.54026 51.84 
L 468.163636 51.84 
L 468.163636 384.48 
z
" style="fill:#008000;opacity:0.04;"/>
   </g>
   <g id="patch_89">
    <path clip-path="url(#p9517244969)" d="M 471.787013 384.48 
L 471.787013 51.84 
L 475.41039 51.84 
L 475.41039 384.48 
z
" style="fill:#008000;opacity:0.04;"/>
   </g>
   <g id="patch_90">
    <path clip-path="url(#p9517244969)" d="M 475.41039 384.48 
L 475.41039 371.1744 
L 479.033766 371.1744 
L 479.033766 384.48 
z
" style="fill:#ffe500;"/>
   </g>
   <g id="patch_91">
    <path clip-path="url(#p9517244969)" d="M 479.033766 384.48 
L 479.033766 51.84 
L 482.657143 51.84 
L 482.657143 384.48 
z
" style="fill:#008000;opacity:0.04;"/>
   </g>
   <g id="patch_92">
    <path clip-path="url(#p9517244969)" d="M 486.280519 384.48 
L 486.280519 51.84 
L 489.903896 51.84 
L 489.903896 384.48 
z
" style="fill:#008000;opacity:0.04;"/>
   </g>
   <g id="patch_93">
    <path clip-path="url(#p9517244969)" d="M 493.527273 384.48 
L 493.527273 51.84 
L 497.150649 51.84 
L 497.150649 384.48 
z
" style="fill:#008000;opacity:0.04;"/>
   </g>
   <g id="patch_94">
    <path clip-path="url(#p9517244969)" d="M 493.527273 384.48 
L 493.527273 371.1744 
L 497.150649 371.1744 
L 497.150649 384.48 
z
" style="fill:#ffe500;"/>
   </g>
   <g id="patch_95">
    <path clip-path="url(#p9517244969)" d="M 500.774026 384.48 
L 500.774026 51.84 
L 504.397403 51.84 
L 504.397403 384.48 
z
" style="fill:#008000;opacity:0.04;"/>
   </g>
   <g id="patch_96">
    <path clip-path="url(#p9517244969)" d="M 500.774026 371.1744 
L 500.774026 357.8688 
L 504.397403 357.8688 
L 504.397403 371.1744 
z
" style="fill:#ff00ff;"/>
   </g>
   <g id="patch_97">
    <path clip-path="url(#p9517244969)" d="M 508.020779 384.48 
L 508.020779 51.84 
L 511.644156 51.84 
L 511.644156 384.48 
z
" style="fill:#008000;opacity:0.04;"/>
   </g>
   <g id="patch_98">
    <path clip-path="url(#p9517244969)" d="M 515.267532 384.48 
L 515.267532 51.84 
L 518.890909 51.84 
L 518.890909 384.48 
z
" style="fill:#008000;opacity:0.04;"/>
   </g>
   <g id="patch_99">
    <path clip-path="url(#p9517244969)" d="M 522.514286 384.48 
L 522.514286 51.84 
L 526.137662 51.84 
L 526.137662 384.48 
z
" style="fill:#008000;opacity:0.04;"/>
   </g>
   <g id="patch_100">
    <path clip-path="url(#p9517244969)" d="M 529.761039 384.48 
L 529.761039 51.84 
L 533.384416 51.84 
L 533.384416 384.48 
z
" style="fill:#008000;opacity:0.04;"/>
   </g>
   <g id="patch_101">
    <path clip-path="url(#p9517244969)" d="M 529.761039 371.1744 
L 529.761039 51.84 
L 533.384416 51.84 
L 533.384416 371.1744 
z
" style="fill:#008000;opacity:0.5;"/>
   </g>
   <g id="patch_102">
    <path clip-path="url(#p9517244969)" d="M 537.007792 384.48 
L 537.007792 51.84 
L 540.631169 51.84 
L 540.631169 384.48 
z
" style="fill:#008000;opacity:0.04;"/>
   </g>
   <g id="patch_103">
    <path clip-path="url(#p9517244969)" d="M 544.254545 384.48 
L 544.254545 51.84 
L 547.877922 51.84 
L 547.877922 384.48 
z
" style="fill:#008000;opacity:0.04;"/>
   </g>
   <g id="patch_104">
    <path clip-path="url(#p9517244969)" d="M 551.501299 384.48 
L 551.501299 51.84 
L 555.124675 51.84 
L 555.124675 384.48 
z
" style="fill:#008000;opacity:0.04;"/>
   </g>
   <g id="patch_105">
    <path clip-path="url(#p9517244969)" d="M 551.501299 371.1744 
L 551.501299 51.84 
L 555.124675 51.84 
L 555.124675 371.1744 
z
" style="fill:#008000;opacity:0.5;"/>
   </g>
   <g id="patch_106">
    <path clip-path="url(#p9517244969)" d="M 558.748052 384.48 
L 558.748052 51.84 
L 562.371429 51.84 
L 562.371429 384.48 
z
" style="fill:#008000;opacity:0.04;"/>
   </g>
   <g id="patch_107">
    <path clip-path="url(#p9517244969)" d="M 558.748052 371.1744 
L 558.748052 51.84 
L 562.371429 51.84 
L 562.371429 371.1744 
z
" style="fill:#008000;opacity:0.5;"/>
   </g>
   <g id="patch_108">
    <path clip-path="url(#p9517244969)" d="M 565.994805 384.48 
L 565.994805 51.84 
L 569.618182 51.84 
L 569.618182 384.48 
z
" style="fill:#008000;opacity:0.04;"/>
   </g>
   <g id="patch_109">
    <path clip-path="url(#p9517244969)" d="M 573.241558 384.48 
L 573.241558 51.84 
L 576.864935 51.84 
L 576.864935 384.48 
z
" style="fill:#008000;opacity:0.04;"/>
   </g>
   <g id="patch_110">
    <path clip-path="url(#p9517244969)" d="M 580.488312 384.48 
L 580.488312 51.84 
L 584.111688 51.84 
L 584.111688 384.48 
z
" style="fill:#008000;opacity:0.04;"/>
   </g>
   <g id="patch_111">
    <path clip-path="url(#p9517244969)" d="M 587.735065 384.48 
L 587.735065 51.84 
L 591.358442 51.84 
L 591.358442 384.48 
z
" style="fill:#008000;opacity:0.04;"/>
   </g>
   <g id="patch_112">
    <path clip-path="url(#p9517244969)" d="M 594.981818 384.48 
L 594.981818 51.84 
L 598.605195 51.84 
L 598.605195 384.48 
z
" style="fill:#008000;opacity:0.04;"/>
   </g>
   <g id="patch_113">
    <path clip-path="url(#p9517244969)" d="M 602.228571 384.48 
L 602.228571 51.84 
L 605.851948 51.84 
L 605.851948 384.48 
z
" style="fill:#008000;opacity:0.04;"/>
   </g>
   <g id="patch_114">
    <path clip-path="url(#p9517244969)" d="M 609.475325 384.48 
L 609.475325 51.84 
L 613.098701 51.84 
L 613.098701 384.48 
z
" style="fill:#008000;opacity:0.04;"/>
   </g>
   <g id="patch_115">
    <path clip-path="url(#p9517244969)" d="M 616.722078 384.48 
L 616.722078 51.84 
L 620.345455 51.84 
L 620.345455 384.48 
z
" style="fill:#008000;opacity:0.04;"/>
   </g>
   <g id="patch_116">
    <path clip-path="url(#p9517244969)" d="M 623.968831 384.48 
L 623.968831 51.84 
L 627.592208 51.84 
L 627.592208 384.48 
z
" style="fill:#008000;opacity:0.04;"/>
   </g>
   <g id="patch_117">
    <path clip-path="url(#p9517244969)" d="M 623.968831 371.1744 
L 623.968831 357.8688 
L 627.592208 357.8688 
L 627.592208 371.1744 
z
" style="fill:#ff00ff;"/>
   </g>
   <g id="patch_118">
    <path clip-path="url(#p9517244969)" d="M 631.215584 384.48 
L 631.215584 51.84 
L 634.838961 51.84 
L 634.838961 384.48 
z
" style="fill:#008000;opacity:0.04;"/>
   </g>
   <g id="patch_119">
    <path clip-path="url(#p9517244969)" d="M 638.462338 384.48 
L 638.462338 51.84 
L 642.085714 51.84 
L 642.085714 384.48 
z
" style="fill:#008000;opacity:0.04;"/>
   </g>
   <g id="patch_120">
    <path clip-path="url(#p9517244969)" d="M 645.709091 384.48 
L 645.709091 51.84 
L 649.332468 51.84 
L 649.332468 384.48 
z
" style="fill:#008000;opacity:0.04;"/>
   </g>
   <g id="patch_121">
    <path clip-path="url(#p9517244969)" d="M 652.955844 384.48 
L 652.955844 51.84 
L 656.579221 51.84 
L 656.579221 384.48 
z
" style="fill:#008000;opacity:0.04;"/>
   </g>
   <g id="patch_122">
    <path clip-path="url(#p9517244969)" d="M 660.202597 384.48 
L 660.202597 51.84 
L 663.825974 51.84 
L 663.825974 384.48 
z
" style="fill:#008000;opacity:0.04;"/>
   </g>
   <g id="patch_123">
    <path clip-path="url(#p9517244969)" d="M 667.449351 384.48 
L 667.449351 51.84 
L 671.072727 51.84 
L 671.072727 384.48 
z
" style="fill:#008000;opacity:0.04;"/>
   </g>
   <g id="patch_124">
    <path clip-path="url(#p9517244969)" d="M 674.696104 384.48 
L 674.696104 51.84 
L 678.319481 51.84 
L 678.319481 384.48 
z
" style="fill:#008000;opacity:0.04;"/>
   </g>
   <g id="patch_125">
    <path clip-path="url(#p9517244969)" d="M 681.942857 384.48 
L 681.942857 51.84 
L 685.566234 51.84 
L 685.566234 384.48 
z
" style="fill:#008000;opacity:0.04;"/>
   </g>
   <g id="patch_126">
    <path clip-path="url(#p9517244969)" d="M 689.18961 384.48 
L 689.18961 51.84 
L 692.812987 51.84 
L 692.812987 384.48 
z
" style="fill:#008000;opacity:0.04;"/>
   </g>
   <g id="patch_127">
    <path clip-path="url(#p9517244969)" d="M 696.436364 384.48 
L 696.436364 51.84 
L 700.05974 51.84 
L 700.05974 384.48 
z
" style="fill:#008000;opacity:0.04;"/>
   </g>
   <g id="patch_128">
    <path clip-path="url(#p9517244969)" d="M 703.683117 384.48 
L 703.683117 51.84 
L 707.306494 51.84 
L 707.306494 384.48 
z
" style="fill:#008000;opacity:0.04;"/>
   </g>
   <g id="patch_129">
    <path clip-path="url(#p9517244969)" d="M 703.683117 371.1744 
L 703.683117 51.84 
L 707.306494 51.84 
L 707.306494 371.1744 
z
" style="fill:#008000;opacity:0.5;"/>
   </g>
   <g id="patch_130">
    <path clip-path="url(#p9517244969)" d="M 710.92987 384.48 
L 710.92987 51.84 
L 714.553247 51.84 
L 714.553247 384.48 
z
" style="fill:#008000;opacity:0.04;"/>
   </g>
   <g id="patch_131">
    <path clip-path="url(#p9517244969)" d="M 718.176623 384.48 
L 718.176623 51.84 
L 721.8 51.84 
L 721.8 384.48 
z
" style="fill:#008000;opacity:0.04;"/>
   </g>
   <g id="patch_132">
    <path clip-path="url(#p9517244969)" d="M 725.423377 384.48 
L 725.423377 51.84 
L 729.046753 51.84 
L 729.046753 384.48 
z
" style="fill:#008000;opacity:0.04;"/>
   </g>
   <g id="patch_133">
    <path clip-path="url(#p9517244969)" d="M 732.67013 384.48 
L 732.67013 51.84 
L 736.293506 51.84 
L 736.293506 384.48 
z
" style="fill:#008000;opacity:0.04;"/>
   </g>
   <g id="patch_134">
    <path clip-path="url(#p9517244969)" d="M 739.916883 384.48 
L 739.916883 51.84 
L 743.54026 51.84 
L 743.54026 384.48 
z
" style="fill:#008000;opacity:0.04;"/>
   </g>
   <g id="matplotlib.axis_1">
    <g id="xtick_1">
     <g id="line2d_1">
      <defs>
       <path d="M 0 0 
L 0 3.5 
" id="mc2ea363644" style="stroke:#000000;stroke-width:0.8;"/>
      </defs>
      <g>
       <use style="stroke:#000000;stroke-width:0.8;" x="138.436364" xlink:href="#mc2ea363644" y="384.48"/>
      </g>
     </g>
     <g id="text_1">
      <!-- 0 -->
      <defs>
       <path d="M 31.78125 66.40625 
Q 24.171875 66.40625 20.328125 58.90625 
Q 16.5 51.421875 16.5 36.375 
Q 16.5 21.390625 20.328125 13.890625 
Q 24.171875 6.390625 31.78125 6.390625 
Q 39.453125 6.390625 43.28125 13.890625 
Q 47.125 21.390625 47.125 36.375 
Q 47.125 51.421875 43.28125 58.90625 
Q 39.453125 66.40625 31.78125 66.40625 
z
M 31.78125 74.21875 
Q 44.046875 74.21875 50.515625 64.515625 
Q 56.984375 54.828125 56.984375 36.375 
Q 56.984375 17.96875 50.515625 8.265625 
Q 44.046875 -1.421875 31.78125 -1.421875 
Q 19.53125 -1.421875 13.0625 8.265625 
Q 6.59375 17.96875 6.59375 36.375 
Q 6.59375 54.828125 13.0625 64.515625 
Q 19.53125 74.21875 31.78125 74.21875 
z
" id="DejaVuSans-48"/>
      </defs>
      <g transform="translate(135.255114 399.078438)scale(0.1 -0.1)">
       <use xlink:href="#DejaVuSans-48"/>
      </g>
     </g>
    </g>
    <g id="xtick_2">
     <g id="line2d_2">
      <g>
       <use style="stroke:#000000;stroke-width:0.8;" x="229.020779" xlink:href="#mc2ea363644" y="384.48"/>
      </g>
     </g>
     <g id="text_2">
      <!-- 250 -->
      <defs>
       <path d="M 19.1875 8.296875 
L 53.609375 8.296875 
L 53.609375 0 
L 7.328125 0 
L 7.328125 8.296875 
Q 12.9375 14.109375 22.625 23.890625 
Q 32.328125 33.6875 34.8125 36.53125 
Q 39.546875 41.84375 41.421875 45.53125 
Q 43.3125 49.21875 43.3125 52.78125 
Q 43.3125 58.59375 39.234375 62.25 
Q 35.15625 65.921875 28.609375 65.921875 
Q 23.96875 65.921875 18.8125 64.3125 
Q 13.671875 62.703125 7.8125 59.421875 
L 7.8125 69.390625 
Q 13.765625 71.78125 18.9375 73 
Q 24.125 74.21875 28.421875 74.21875 
Q 39.75 74.21875 46.484375 68.546875 
Q 53.21875 62.890625 53.21875 53.421875 
Q 53.21875 48.921875 51.53125 44.890625 
Q 49.859375 40.875 45.40625 35.40625 
Q 44.1875 33.984375 37.640625 27.21875 
Q 31.109375 20.453125 19.1875 8.296875 
z
" id="DejaVuSans-50"/>
       <path d="M 10.796875 72.90625 
L 49.515625 72.90625 
L 49.515625 64.59375 
L 19.828125 64.59375 
L 19.828125 46.734375 
Q 21.96875 47.46875 24.109375 47.828125 
Q 26.265625 48.1875 28.421875 48.1875 
Q 40.625 48.1875 47.75 41.5 
Q 54.890625 34.8125 54.890625 23.390625 
Q 54.890625 11.625 47.5625 5.09375 
Q 40.234375 -1.421875 26.90625 -1.421875 
Q 22.3125 -1.421875 17.546875 -0.640625 
Q 12.796875 0.140625 7.71875 1.703125 
L 7.71875 11.625 
Q 12.109375 9.234375 16.796875 8.0625 
Q 21.484375 6.890625 26.703125 6.890625 
Q 35.15625 6.890625 40.078125 11.328125 
Q 45.015625 15.765625 45.015625 23.390625 
Q 45.015625 31 40.078125 35.4375 
Q 35.15625 39.890625 26.703125 39.890625 
Q 22.75 39.890625 18.8125 39.015625 
Q 14.890625 38.140625 10.796875 36.28125 
z
" id="DejaVuSans-53"/>
      </defs>
      <g transform="translate(219.477029 399.078438)scale(0.1 -0.1)">
       <use xlink:href="#DejaVuSans-50"/>
       <use x="63.623047" xlink:href="#DejaVuSans-53"/>
       <use x="127.246094" xlink:href="#DejaVuSans-48"/>
      </g>
     </g>
    </g>
    <g id="xtick_3">
     <g id="line2d_3">
      <g>
       <use style="stroke:#000000;stroke-width:0.8;" x="319.605195" xlink:href="#mc2ea363644" y="384.48"/>
      </g>
     </g>
     <g id="text_3">
      <!-- 500 -->
      <g transform="translate(310.061445 399.078438)scale(0.1 -0.1)">
       <use xlink:href="#DejaVuSans-53"/>
       <use x="63.623047" xlink:href="#DejaVuSans-48"/>
       <use x="127.246094" xlink:href="#DejaVuSans-48"/>
      </g>
     </g>
    </g>
    <g id="xtick_4">
     <g id="line2d_4">
      <g>
       <use style="stroke:#000000;stroke-width:0.8;" x="410.18961" xlink:href="#mc2ea363644" y="384.48"/>
      </g>
     </g>
     <g id="text_4">
      <!-- 750 -->
      <defs>
       <path d="M 8.203125 72.90625 
L 55.078125 72.90625 
L 55.078125 68.703125 
L 28.609375 0 
L 18.3125 0 
L 43.21875 64.59375 
L 8.203125 64.59375 
z
" id="DejaVuSans-55"/>
      </defs>
      <g transform="translate(400.64586 399.078438)scale(0.1 -0.1)">
       <use xlink:href="#DejaVuSans-55"/>
       <use x="63.623047" xlink:href="#DejaVuSans-53"/>
       <use x="127.246094" xlink:href="#DejaVuSans-48"/>
      </g>
     </g>
    </g>
    <g id="xtick_5">
     <g id="line2d_5">
      <g>
       <use style="stroke:#000000;stroke-width:0.8;" x="500.774026" xlink:href="#mc2ea363644" y="384.48"/>
      </g>
     </g>
     <g id="text_5">
      <!-- 1000 -->
      <defs>
       <path d="M 12.40625 8.296875 
L 28.515625 8.296875 
L 28.515625 63.921875 
L 10.984375 60.40625 
L 10.984375 69.390625 
L 28.421875 72.90625 
L 38.28125 72.90625 
L 38.28125 8.296875 
L 54.390625 8.296875 
L 54.390625 0 
L 12.40625 0 
z
" id="DejaVuSans-49"/>
      </defs>
      <g transform="translate(488.049026 399.078438)scale(0.1 -0.1)">
       <use xlink:href="#DejaVuSans-49"/>
       <use x="63.623047" xlink:href="#DejaVuSans-48"/>
       <use x="127.246094" xlink:href="#DejaVuSans-48"/>
       <use x="190.869141" xlink:href="#DejaVuSans-48"/>
      </g>
     </g>
    </g>
    <g id="xtick_6">
     <g id="line2d_6">
      <g>
       <use style="stroke:#000000;stroke-width:0.8;" x="591.358442" xlink:href="#mc2ea363644" y="384.48"/>
      </g>
     </g>
     <g id="text_6">
      <!-- 1250 -->
      <g transform="translate(578.633442 399.078438)scale(0.1 -0.1)">
       <use xlink:href="#DejaVuSans-49"/>
       <use x="63.623047" xlink:href="#DejaVuSans-50"/>
       <use x="127.246094" xlink:href="#DejaVuSans-53"/>
       <use x="190.869141" xlink:href="#DejaVuSans-48"/>
      </g>
     </g>
    </g>
    <g id="xtick_7">
     <g id="line2d_7">
      <g>
       <use style="stroke:#000000;stroke-width:0.8;" x="681.942857" xlink:href="#mc2ea363644" y="384.48"/>
      </g>
     </g>
     <g id="text_7">
      <!-- 1500 -->
      <g transform="translate(669.217857 399.078438)scale(0.1 -0.1)">
       <use xlink:href="#DejaVuSans-49"/>
       <use x="63.623047" xlink:href="#DejaVuSans-53"/>
       <use x="127.246094" xlink:href="#DejaVuSans-48"/>
       <use x="190.869141" xlink:href="#DejaVuSans-48"/>
      </g>
     </g>
    </g>
    <g id="xtick_8">
     <g id="line2d_8">
      <g>
       <use style="stroke:#000000;stroke-width:0.8;" x="772.527273" xlink:href="#mc2ea363644" y="384.48"/>
      </g>
     </g>
     <g id="text_8">
      <!-- 1750 -->
      <g transform="translate(759.802273 399.078438)scale(0.1 -0.1)">
       <use xlink:href="#DejaVuSans-49"/>
       <use x="63.623047" xlink:href="#DejaVuSans-55"/>
       <use x="127.246094" xlink:href="#DejaVuSans-53"/>
       <use x="190.869141" xlink:href="#DejaVuSans-48"/>
      </g>
     </g>
    </g>
    <g id="text_9">
     <!-- Timestamp -->
     <defs>
      <path d="M -0.296875 72.90625 
L 61.375 72.90625 
L 61.375 64.59375 
L 35.5 64.59375 
L 35.5 0 
L 25.59375 0 
L 25.59375 64.59375 
L -0.296875 64.59375 
z
" id="DejaVuSans-84"/>
      <path d="M 9.421875 54.6875 
L 18.40625 54.6875 
L 18.40625 0 
L 9.421875 0 
z
M 9.421875 75.984375 
L 18.40625 75.984375 
L 18.40625 64.59375 
L 9.421875 64.59375 
z
" id="DejaVuSans-105"/>
      <path d="M 52 44.1875 
Q 55.375 50.25 60.0625 53.125 
Q 64.75 56 71.09375 56 
Q 79.640625 56 84.28125 50.015625 
Q 88.921875 44.046875 88.921875 33.015625 
L 88.921875 0 
L 79.890625 0 
L 79.890625 32.71875 
Q 79.890625 40.578125 77.09375 44.375 
Q 74.3125 48.1875 68.609375 48.1875 
Q 61.625 48.1875 57.5625 43.546875 
Q 53.515625 38.921875 53.515625 30.90625 
L 53.515625 0 
L 44.484375 0 
L 44.484375 32.71875 
Q 44.484375 40.625 41.703125 44.40625 
Q 38.921875 48.1875 33.109375 48.1875 
Q 26.21875 48.1875 22.15625 43.53125 
Q 18.109375 38.875 18.109375 30.90625 
L 18.109375 0 
L 9.078125 0 
L 9.078125 54.6875 
L 18.109375 54.6875 
L 18.109375 46.1875 
Q 21.1875 51.21875 25.484375 53.609375 
Q 29.78125 56 35.6875 56 
Q 41.65625 56 45.828125 52.96875 
Q 50 49.953125 52 44.1875 
z
" id="DejaVuSans-109"/>
      <path d="M 56.203125 29.59375 
L 56.203125 25.203125 
L 14.890625 25.203125 
Q 15.484375 15.921875 20.484375 11.0625 
Q 25.484375 6.203125 34.421875 6.203125 
Q 39.59375 6.203125 44.453125 7.46875 
Q 49.3125 8.734375 54.109375 11.28125 
L 54.109375 2.78125 
Q 49.265625 0.734375 44.1875 -0.34375 
Q 39.109375 -1.421875 33.890625 -1.421875 
Q 20.796875 -1.421875 13.15625 6.1875 
Q 5.515625 13.8125 5.515625 26.8125 
Q 5.515625 40.234375 12.765625 48.109375 
Q 20.015625 56 32.328125 56 
Q 43.359375 56 49.78125 48.890625 
Q 56.203125 41.796875 56.203125 29.59375 
z
M 47.21875 32.234375 
Q 47.125 39.59375 43.09375 43.984375 
Q 39.0625 48.390625 32.421875 48.390625 
Q 24.90625 48.390625 20.390625 44.140625 
Q 15.875 39.890625 15.1875 32.171875 
z
" id="DejaVuSans-101"/>
      <path d="M 44.28125 53.078125 
L 44.28125 44.578125 
Q 40.484375 46.53125 36.375 47.5 
Q 32.28125 48.484375 27.875 48.484375 
Q 21.1875 48.484375 17.84375 46.4375 
Q 14.5 44.390625 14.5 40.28125 
Q 14.5 37.15625 16.890625 35.375 
Q 19.28125 33.59375 26.515625 31.984375 
L 29.59375 31.296875 
Q 39.15625 29.25 43.1875 25.515625 
Q 47.21875 21.78125 47.21875 15.09375 
Q 47.21875 7.46875 41.1875 3.015625 
Q 35.15625 -1.421875 24.609375 -1.421875 
Q 20.21875 -1.421875 15.453125 -0.5625 
Q 10.6875 0.296875 5.421875 2 
L 5.421875 11.28125 
Q 10.40625 8.6875 15.234375 7.390625 
Q 20.0625 6.109375 24.8125 6.109375 
Q 31.15625 6.109375 34.5625 8.28125 
Q 37.984375 10.453125 37.984375 14.40625 
Q 37.984375 18.0625 35.515625 20.015625 
Q 33.0625 21.96875 24.703125 23.78125 
L 21.578125 24.515625 
Q 13.234375 26.265625 9.515625 29.90625 
Q 5.8125 33.546875 5.8125 39.890625 
Q 5.8125 47.609375 11.28125 51.796875 
Q 16.75 56 26.8125 56 
Q 31.78125 56 36.171875 55.265625 
Q 40.578125 54.546875 44.28125 53.078125 
z
" id="DejaVuSans-115"/>
      <path d="M 18.3125 70.21875 
L 18.3125 54.6875 
L 36.8125 54.6875 
L 36.8125 47.703125 
L 18.3125 47.703125 
L 18.3125 18.015625 
Q 18.3125 11.328125 20.140625 9.421875 
Q 21.96875 7.515625 27.59375 7.515625 
L 36.8125 7.515625 
L 36.8125 0 
L 27.59375 0 
Q 17.1875 0 13.234375 3.875 
Q 9.28125 7.765625 9.28125 18.015625 
L 9.28125 47.703125 
L 2.6875 47.703125 
L 2.6875 54.6875 
L 9.28125 54.6875 
L 9.28125 70.21875 
z
" id="DejaVuSans-116"/>
      <path d="M 34.28125 27.484375 
Q 23.390625 27.484375 19.1875 25 
Q 14.984375 22.515625 14.984375 16.5 
Q 14.984375 11.71875 18.140625 8.90625 
Q 21.296875 6.109375 26.703125 6.109375 
Q 34.1875 6.109375 38.703125 11.40625 
Q 43.21875 16.703125 43.21875 25.484375 
L 43.21875 27.484375 
z
M 52.203125 31.203125 
L 52.203125 0 
L 43.21875 0 
L 43.21875 8.296875 
Q 40.140625 3.328125 35.546875 0.953125 
Q 30.953125 -1.421875 24.3125 -1.421875 
Q 15.921875 -1.421875 10.953125 3.296875 
Q 6 8.015625 6 15.921875 
Q 6 25.140625 12.171875 29.828125 
Q 18.359375 34.515625 30.609375 34.515625 
L 43.21875 34.515625 
L 43.21875 35.40625 
Q 43.21875 41.609375 39.140625 45 
Q 35.0625 48.390625 27.6875 48.390625 
Q 23 48.390625 18.546875 47.265625 
Q 14.109375 46.140625 10.015625 43.890625 
L 10.015625 52.203125 
Q 14.9375 54.109375 19.578125 55.046875 
Q 24.21875 56 28.609375 56 
Q 40.484375 56 46.34375 49.84375 
Q 52.203125 43.703125 52.203125 31.203125 
z
" id="DejaVuSans-97"/>
      <path d="M 18.109375 8.203125 
L 18.109375 -20.796875 
L 9.078125 -20.796875 
L 9.078125 54.6875 
L 18.109375 54.6875 
L 18.109375 46.390625 
Q 20.953125 51.265625 25.265625 53.625 
Q 29.59375 56 35.59375 56 
Q 45.5625 56 51.78125 48.09375 
Q 58.015625 40.1875 58.015625 27.296875 
Q 58.015625 14.40625 51.78125 6.484375 
Q 45.5625 -1.421875 35.59375 -1.421875 
Q 29.59375 -1.421875 25.265625 0.953125 
Q 20.953125 3.328125 18.109375 8.203125 
z
M 48.6875 27.296875 
Q 48.6875 37.203125 44.609375 42.84375 
Q 40.53125 48.484375 33.40625 48.484375 
Q 26.265625 48.484375 22.1875 42.84375 
Q 18.109375 37.203125 18.109375 27.296875 
Q 18.109375 17.390625 22.1875 11.75 
Q 26.265625 6.109375 33.40625 6.109375 
Q 40.53125 6.109375 44.609375 11.75 
Q 48.6875 17.390625 48.6875 27.296875 
z
" id="DejaVuSans-112"/>
     </defs>
     <g transform="translate(414.739062 412.756563)scale(0.1 -0.1)">
      <use xlink:href="#DejaVuSans-84"/>
      <use x="61.037109" xlink:href="#DejaVuSans-105"/>
      <use x="88.820312" xlink:href="#DejaVuSans-109"/>
      <use x="186.232422" xlink:href="#DejaVuSans-101"/>
      <use x="247.755859" xlink:href="#DejaVuSans-115"/>
      <use x="299.855469" xlink:href="#DejaVuSans-116"/>
      <use x="339.064453" xlink:href="#DejaVuSans-97"/>
      <use x="400.34375" xlink:href="#DejaVuSans-109"/>
      <use x="497.755859" xlink:href="#DejaVuSans-112"/>
     </g>
    </g>
   </g>
   <g id="matplotlib.axis_2">
    <g id="ytick_1">
     <g id="line2d_9">
      <defs>
       <path d="M 0 0 
L -3.5 0 
" id="m21ac1af883" style="stroke:#000000;stroke-width:0.8;"/>
      </defs>
      <g>
       <use style="stroke:#000000;stroke-width:0.8;" x="108" xlink:href="#m21ac1af883" y="361.719438"/>
      </g>
     </g>
     <g id="text_10">
      <!-- −1500 -->
      <defs>
       <path d="M 10.59375 35.5 
L 73.1875 35.5 
L 73.1875 27.203125 
L 10.59375 27.203125 
z
" id="DejaVuSans-8722"/>
      </defs>
      <g transform="translate(67.170312 365.518656)scale(0.1 -0.1)">
       <use xlink:href="#DejaVuSans-8722"/>
       <use x="83.789062" xlink:href="#DejaVuSans-49"/>
       <use x="147.412109" xlink:href="#DejaVuSans-53"/>
       <use x="211.035156" xlink:href="#DejaVuSans-48"/>
       <use x="274.658203" xlink:href="#DejaVuSans-48"/>
      </g>
     </g>
    </g>
    <g id="ytick_2">
     <g id="line2d_10">
      <g>
       <use style="stroke:#000000;stroke-width:0.8;" x="108" xlink:href="#m21ac1af883" y="318.724563"/>
      </g>
     </g>
     <g id="text_11">
      <!-- −1000 -->
      <g transform="translate(67.170312 322.523782)scale(0.1 -0.1)">
       <use xlink:href="#DejaVuSans-8722"/>
       <use x="83.789062" xlink:href="#DejaVuSans-49"/>
       <use x="147.412109" xlink:href="#DejaVuSans-48"/>
       <use x="211.035156" xlink:href="#DejaVuSans-48"/>
       <use x="274.658203" xlink:href="#DejaVuSans-48"/>
      </g>
     </g>
    </g>
    <g id="ytick_3">
     <g id="line2d_11">
      <g>
       <use style="stroke:#000000;stroke-width:0.8;" x="108" xlink:href="#m21ac1af883" y="275.729689"/>
      </g>
     </g>
     <g id="text_12">
      <!-- −500 -->
      <g transform="translate(73.532813 279.528908)scale(0.1 -0.1)">
       <use xlink:href="#DejaVuSans-8722"/>
       <use x="83.789062" xlink:href="#DejaVuSans-53"/>
       <use x="147.412109" xlink:href="#DejaVuSans-48"/>
       <use x="211.035156" xlink:href="#DejaVuSans-48"/>
      </g>
     </g>
    </g>
    <g id="ytick_4">
     <g id="line2d_12">
      <g>
       <use style="stroke:#000000;stroke-width:0.8;" x="108" xlink:href="#m21ac1af883" y="232.734815"/>
      </g>
     </g>
     <g id="text_13">
      <!-- 0 -->
      <g transform="translate(94.6375 236.534033)scale(0.1 -0.1)">
       <use xlink:href="#DejaVuSans-48"/>
      </g>
     </g>
    </g>
    <g id="ytick_5">
     <g id="line2d_13">
      <g>
       <use style="stroke:#000000;stroke-width:0.8;" x="108" xlink:href="#m21ac1af883" y="189.73994"/>
      </g>
     </g>
     <g id="text_14">
      <!-- 500 -->
      <g transform="translate(81.9125 193.539159)scale(0.1 -0.1)">
       <use xlink:href="#DejaVuSans-53"/>
       <use x="63.623047" xlink:href="#DejaVuSans-48"/>
       <use x="127.246094" xlink:href="#DejaVuSans-48"/>
      </g>
     </g>
    </g>
    <g id="ytick_6">
     <g id="line2d_14">
      <g>
       <use style="stroke:#000000;stroke-width:0.8;" x="108" xlink:href="#m21ac1af883" y="146.745066"/>
      </g>
     </g>
     <g id="text_15">
      <!-- 1000 -->
      <g transform="translate(75.55 150.544285)scale(0.1 -0.1)">
       <use xlink:href="#DejaVuSans-49"/>
       <use x="63.623047" xlink:href="#DejaVuSans-48"/>
       <use x="127.246094" xlink:href="#DejaVuSans-48"/>
       <use x="190.869141" xlink:href="#DejaVuSans-48"/>
      </g>
     </g>
    </g>
    <g id="ytick_7">
     <g id="line2d_15">
      <g>
       <use style="stroke:#000000;stroke-width:0.8;" x="108" xlink:href="#m21ac1af883" y="103.750192"/>
      </g>
     </g>
     <g id="text_16">
      <!-- 1500 -->
      <g transform="translate(75.55 107.54941)scale(0.1 -0.1)">
       <use xlink:href="#DejaVuSans-49"/>
       <use x="63.623047" xlink:href="#DejaVuSans-53"/>
       <use x="127.246094" xlink:href="#DejaVuSans-48"/>
       <use x="190.869141" xlink:href="#DejaVuSans-48"/>
      </g>
     </g>
    </g>
    <g id="ytick_8">
     <g id="line2d_16">
      <g>
       <use style="stroke:#000000;stroke-width:0.8;" x="108" xlink:href="#m21ac1af883" y="60.755317"/>
      </g>
     </g>
     <g id="text_17">
      <!-- 2000 -->
      <g transform="translate(75.55 64.554536)scale(0.1 -0.1)">
       <use xlink:href="#DejaVuSans-50"/>
       <use x="63.623047" xlink:href="#DejaVuSans-48"/>
       <use x="127.246094" xlink:href="#DejaVuSans-48"/>
       <use x="190.869141" xlink:href="#DejaVuSans-48"/>
      </g>
     </g>
    </g>
    <g id="text_18">
     <!-- Value -->
     <defs>
      <path d="M 28.609375 0 
L 0.78125 72.90625 
L 11.078125 72.90625 
L 34.1875 11.53125 
L 57.328125 72.90625 
L 67.578125 72.90625 
L 39.796875 0 
z
" id="DejaVuSans-86"/>
      <path d="M 9.421875 75.984375 
L 18.40625 75.984375 
L 18.40625 0 
L 9.421875 0 
z
" id="DejaVuSans-108"/>
      <path d="M 8.5 21.578125 
L 8.5 54.6875 
L 17.484375 54.6875 
L 17.484375 21.921875 
Q 17.484375 14.15625 20.5 10.265625 
Q 23.53125 6.390625 29.59375 6.390625 
Q 36.859375 6.390625 41.078125 11.03125 
Q 45.3125 15.671875 45.3125 23.6875 
L 45.3125 54.6875 
L 54.296875 54.6875 
L 54.296875 0 
L 45.3125 0 
L 45.3125 8.40625 
Q 42.046875 3.421875 37.71875 1 
Q 33.40625 -1.421875 27.6875 -1.421875 
Q 18.265625 -1.421875 13.375 4.4375 
Q 8.5 10.296875 8.5 21.578125 
z
M 31.109375 56 
z
" id="DejaVuSans-117"/>
     </defs>
     <g transform="translate(61.090625 232.273281)rotate(-90)scale(0.1 -0.1)">
      <use xlink:href="#DejaVuSans-86"/>
      <use x="68.298828" xlink:href="#DejaVuSans-97"/>
      <use x="129.578125" xlink:href="#DejaVuSans-108"/>
      <use x="157.361328" xlink:href="#DejaVuSans-117"/>
      <use x="220.740234" xlink:href="#DejaVuSans-101"/>
     </g>
    </g>
   </g>
   <g id="line2d_17">
    <path clip-path="url(#p9517244969)" d="M 138.436364 233.264983 
L 138.798701 226.147186 
L 139.161039 222.461379 
L 139.523377 223.057324 
L 139.885714 217.165744 
L 140.61039 228.642208 
L 140.972727 228.189981 
L 141.335065 233.247617 
L 141.697403 231.388297 
L 142.05974 234.886726 
L 142.422078 234.341372 
L 142.784416 229.832019 
L 143.146753 228.967933 
L 143.509091 226.730134 
L 143.871429 229.071488 
L 144.233766 229.471279 
L 144.596104 232.183093 
L 144.958442 240.306587 
L 145.683117 242.152899 
L 146.045455 242.965674 
L 146.407792 240.669834 
L 147.132468 229.369066 
L 147.494805 242.484659 
L 147.857143 222.724227 
L 148.219481 219.057494 
L 148.581818 218.854455 
L 148.944156 218.491007 
L 149.668831 229.410318 
L 150.031169 232.791384 
L 150.393506 232.384909 
L 150.755844 229.998063 
L 151.118182 230.896426 
L 151.480519 229.739764 
L 151.842857 243.91322 
L 152.205195 222.048666 
L 152.567532 227.14683 
L 152.92987 227.27127 
L 153.292208 227.962935 
L 153.654545 236.817342 
L 154.016883 240.437549 
L 154.379221 237.53057 
L 154.741558 241.343011 
L 155.103896 234.642984 
L 155.466234 236.786351 
L 155.828571 243.598885 
L 156.190909 224.921893 
L 156.915584 215.298303 
L 157.277922 217.821253 
L 157.64026 237.799265 
L 158.002597 203.796827 
L 158.364935 230.326979 
L 158.727273 228.5898 
L 159.08961 234.50831 
L 159.451948 231.635719 
L 159.814286 232.313016 
L 160.176623 230.993095 
L 160.538961 228.985586 
L 161.263636 226.523329 
L 161.625974 231.458535 
L 161.988312 229.28045 
L 162.350649 236.918645 
L 162.712987 239.275029 
L 163.075325 239.800949 
L 163.437662 244.739354 
L 163.8 241.498714 
L 164.524675 229.571838 
L 164.887013 229.745845 
L 165.249351 219.751744 
L 165.611688 218.974248 
L 165.974026 223.254586 
L 166.336364 221.484378 
L 166.698701 225.444277 
L 167.061039 231.181238 
L 167.423377 234.956558 
L 167.785714 234.291725 
L 168.148052 231.175251 
L 168.51039 237.318146 
L 168.872727 230.860357 
L 169.235065 235.593488 
L 169.597403 234.230759 
L 169.95974 231.195538 
L 170.322078 232.741968 
L 170.684416 231.869142 
L 171.046753 238.856088 
L 171.771429 246.98979 
L 172.133766 245.774598 
L 172.496104 244.074807 
L 172.858442 237.602589 
L 173.220779 233.802584 
L 173.583117 223.988031 
L 173.945455 224.700836 
L 174.307792 224.670641 
L 174.67013 228.056313 
L 175.032468 226.117537 
L 175.394805 227.920986 
L 175.757143 235.704496 
L 176.119481 237.328705 
L 176.481818 238.266868 
L 176.844156 239.800791 
L 177.206494 236.166123 
L 177.568831 237.649013 
L 177.931169 233.54344 
L 178.293506 232.906609 
L 178.655844 232.581353 
L 179.018182 236.382016 
L 179.380519 236.990074 
L 180.105195 245.440616 
L 180.467532 248.112416 
L 180.82987 248.221112 
L 181.192208 248.487875 
L 181.554545 241.412194 
L 181.916883 238.035344 
L 183.003896 223.402391 
L 183.366234 226.000018 
L 183.728571 227.407918 
L 184.090909 230.982266 
L 184.453247 232.481223 
L 184.815584 239.562148 
L 185.177922 236.924034 
L 185.54026 239.938515 
L 185.902597 237.646791 
L 186.264935 236.540581 
L 186.627273 233.916645 
L 186.98961 230.077762 
L 187.351948 233.798369 
L 188.801299 242.681724 
L 189.163636 246.494452 
L 189.525974 246.364441 
L 189.888312 244.339711 
L 190.250649 243.014844 
L 190.612987 236.993619 
L 190.975325 227.300557 
L 191.337662 228.875132 
L 192.062338 222.133508 
L 192.787013 229.052066 
L 193.149351 230.434879 
L 193.511688 239.043184 
L 193.874026 240.838421 
L 194.236364 238.505441 
L 194.598701 237.095315 
L 194.961039 231.475396 
L 195.323377 230.215811 
L 195.685714 230.657585 
L 196.048052 231.516468 
L 196.772727 236.800687 
L 197.135065 237.381525 
L 197.497403 243.699573 
L 197.85974 242.84639 
L 198.222078 244.351943 
L 198.584416 241.611139 
L 198.946753 236.345798 
L 199.309091 233.624213 
L 199.671429 224.747305 
L 200.033766 222.601939 
L 200.396104 221.694888 
L 200.758442 222.560449 
L 201.120779 222.567691 
L 201.483117 224.68509 
L 202.207792 234.186542 
L 202.932468 237.593448 
L 203.294805 236.019365 
L 204.019481 228.153808 
L 204.381818 228.447453 
L 204.744156 226.943797 
L 205.106494 231.001509 
L 205.831169 235.139657 
L 206.193506 239.433974 
L 206.555844 241.095433 
L 206.918182 241.111797 
L 207.280519 239.778294 
L 207.642857 230.947018 
L 208.005195 228.556058 
L 208.72987 219.607638 
L 209.092208 216.917766 
L 209.454545 218.7075 
L 209.816883 222.01418 
L 210.179221 223.565082 
L 210.541558 226.17215 
L 210.903896 230.769685 
L 211.266234 230.980693 
L 211.628571 234.54916 
L 211.990909 229.804055 
L 212.353247 229.597702 
L 212.715584 225.052719 
L 213.077922 225.471049 
L 213.44026 221.33238 
L 213.802597 228.309916 
L 214.527273 236.536395 
L 214.88961 238.606476 
L 215.251948 243.977367 
L 215.614286 239.749813 
L 216.338961 235.107582 
L 216.701299 230.583964 
L 217.063636 224.200357 
L 217.425974 219.82154 
L 217.788312 217.802064 
L 218.150649 219.437834 
L 218.512987 219.226804 
L 219.237662 228.28241 
L 219.6 230.201209 
L 219.962338 233.688209 
L 220.324675 232.337742 
L 220.687013 231.645542 
L 221.049351 231.718266 
L 221.411688 226.977716 
L 221.774026 228.95092 
L 222.136364 227.943271 
L 222.498701 228.833578 
L 222.861039 230.804216 
L 223.223377 234.879932 
L 223.585714 223.80402 
L 223.948052 240.862808 
L 224.31039 241.720216 
L 224.672727 240.948657 
L 225.035065 235.679627 
L 225.397403 234.323867 
L 226.122078 221.422875 
L 226.484416 220.948739 
L 226.846753 220.772918 
L 227.209091 222.336406 
L 227.571429 228.371173 
L 227.933766 231.897955 
L 228.296104 232.985099 
L 228.658442 233.355748 
L 229.020779 237.723589 
L 229.745455 231.524344 
L 230.107792 230.683239 
L 230.47013 229.516427 
L 230.832468 230.211954 
L 231.194805 229.029479 
L 231.557143 236.306918 
L 231.919481 241.102781 
L 233.006494 244.584207 
L 233.731169 238.073388 
L 234.093506 231.915035 
L 234.455844 231.065195 
L 234.818182 223.837708 
L 235.180519 221.865207 
L 235.542857 224.741624 
L 235.905195 224.876092 
L 236.267532 229.81518 
L 236.62987 231.086979 
L 237.354545 238.175189 
L 237.716883 239.238583 
L 238.079221 237.763508 
L 238.803896 231.361581 
L 239.166234 231.973281 
L 240.977922 242.006754 
L 241.34026 245.761213 
L 241.702597 246.509174 
L 242.064935 243.961296 
L 242.427273 239.167384 
L 242.78961 238.144526 
L 243.151948 231.232048 
L 243.514286 228.270693 
L 243.876623 223.855309 
L 244.238961 222.672144 
L 244.601299 230.597638 
L 244.963636 231.989927 
L 245.688312 240.419512 
L 246.412987 238.285219 
L 246.775325 255.74297 
L 247.137662 237.394087 
L 247.5 230.6932 
L 247.862338 233.340444 
L 248.224675 234.733151 
L 248.949351 240.387737 
L 249.311688 240.972311 
L 249.674026 242.979912 
L 250.036364 241.880651 
L 250.398701 244.904935 
L 250.761039 245.13086 
L 251.485714 235.615769 
L 251.848052 228.400842 
L 252.21039 224.198344 
L 252.572727 226.682852 
L 252.935065 222.418703 
L 253.65974 231.221702 
L 254.022078 234.387819 
L 254.384416 236.48279 
L 254.746753 234.376276 
L 255.109091 237.243696 
L 255.471429 238.611588 
L 255.833766 236.335496 
L 256.196104 230.396413 
L 256.558442 229.433945 
L 256.920779 231.904066 
L 257.283117 230.560354 
L 257.645455 238.629506 
L 258.007792 237.775677 
L 258.37013 243.216166 
L 258.732468 244.560358 
L 259.094805 245.435827 
L 259.457143 242.638109 
L 260.544156 227.141031 
L 260.906494 225.629586 
L 261.268831 220.177162 
L 261.631169 221.587609 
L 261.993506 223.557237 
L 262.355844 228.898244 
L 262.718182 231.773782 
L 263.080519 231.019959 
L 263.442857 234.431895 
L 263.805195 234.874975 
L 264.167532 233.694457 
L 264.52987 233.192352 
L 264.892208 231.771827 
L 265.254545 225.706731 
L 265.616883 225.267585 
L 265.979221 231.724961 
L 266.341558 231.964481 
L 266.703896 234.6045 
L 267.066234 239.839741 
L 267.428571 239.878467 
L 267.790909 242.213851 
L 268.153247 238.935136 
L 268.515584 232.759657 
L 268.877922 230.462404 
L 269.602597 219.499189 
L 269.964935 219.554282 
L 270.327273 220.141753 
L 270.68961 219.81525 
L 271.051948 224.830503 
L 271.414286 226.96624 
L 271.776623 232.524141 
L 272.138961 232.111513 
L 272.501299 232.017676 
L 272.863636 232.412407 
L 273.588312 225.990025 
L 273.950649 224.844499 
L 274.312987 225.846232 
L 274.675325 227.376707 
L 275.037662 229.552394 
L 275.762338 239.209706 
L 276.124675 239.084848 
L 276.487013 239.092564 
L 276.849351 238.443084 
L 277.211688 232.274227 
L 277.574026 230.324199 
L 277.936364 223.08788 
L 278.298701 218.578216 
L 278.661039 217.372198 
L 279.023377 217.996192 
L 279.385714 221.830517 
L 279.748052 227.424399 
L 280.11039 228.193969 
L 280.472727 233.646702 
L 280.835065 233.812701 
L 281.197403 233.327733 
L 281.55974 231.396756 
L 281.922078 232.914953 
L 282.284416 227.464266 
L 282.646753 226.305929 
L 283.009091 227.598599 
L 283.733766 235.234506 
L 284.096104 235.954384 
L 285.183117 245.295657 
L 285.545455 241.377045 
L 285.907792 239.647365 
L 286.27013 232.55408 
L 286.632468 222.955092 
L 286.994805 223.812896 
L 287.357143 221.378849 
L 287.719481 222.124904 
L 288.806494 231.896871 
L 289.168831 231.182815 
L 289.531169 232.9131 
L 289.893506 236.742794 
L 290.255844 235.568916 
L 290.618182 230.763459 
L 290.980519 233.584122 
L 291.342857 229.216713 
L 291.705195 231.274818 
L 292.067532 232.055044 
L 292.42987 235.388447 
L 292.792208 240.132685 
L 293.154545 241.505625 
L 293.516883 244.786624 
L 293.879221 241.984183 
L 294.241558 243.58065 
L 294.603896 240.185168 
L 294.966234 232.096688 
L 295.690909 227.159647 
L 296.053247 223.833229 
L 296.415584 226.365254 
L 296.777922 224.378466 
L 298.227273 239.625553 
L 298.58961 237.386191 
L 298.951948 238.699497 
L 299.314286 236.177005 
L 299.676623 234.43661 
L 300.038961 228.877451 
L 300.401299 230.344221 
L 301.850649 244.166515 
L 302.212987 243.496526 
L 302.575325 244.531921 
L 302.937662 246.932445 
L 303.3 239.493652 
L 304.749351 222.487195 
L 305.474026 228.42091 
L 305.836364 233.141872 
L 306.198701 229.181837 
L 306.561039 239.221919 
L 306.923377 238.821472 
L 307.285714 239.742897 
L 307.648052 237.414557 
L 308.01039 233.230046 
L 308.372727 235.738528 
L 308.735065 231.710474 
L 309.097403 234.822266 
L 309.45974 233.945195 
L 309.822078 242.101829 
L 310.184416 243.368341 
L 310.546753 243.874318 
L 310.909091 247.590221 
L 311.271429 245.435412 
L 311.633766 244.823623 
L 311.996104 239.327936 
L 312.358442 236.1184 
L 312.720779 227.649489 
L 313.083117 226.703821 
L 313.445455 223.308051 
L 313.807792 226.378488 
L 314.17013 222.4422 
L 314.532468 228.804126 
L 314.894805 231.551448 
L 315.257143 219.326414 
L 315.619481 236.269295 
L 315.981818 238.548692 
L 316.344156 233.486271 
L 316.706494 233.822219 
L 317.068831 230.978734 
L 317.793506 230.994379 
L 318.155844 227.789761 
L 318.518182 236.683943 
L 318.880519 236.916962 
L 319.242857 243.556507 
L 319.605195 243.786099 
L 319.967532 244.511795 
L 320.32987 239.512129 
L 320.692208 236.910473 
L 321.416883 223.498366 
L 321.779221 209.44262 
L 322.141558 204.339634 
L 323.590909 227.254068 
L 324.315584 238.338069 
L 325.04026 231.742049 
L 325.764935 216.297576 
L 326.127273 227.665536 
L 326.48961 219.476857 
L 326.851948 223.560105 
L 327.214286 232.916809 
L 328.301299 249.04037 
L 328.663636 250.870135 
L 329.388312 232.302442 
L 329.750649 229.375241 
L 330.475325 205.985386 
L 330.837662 201.919164 
L 331.2 204.290732 
L 331.562338 209.059061 
L 331.924675 209.774597 
L 332.649351 230.28678 
L 333.011688 231.991047 
L 333.374026 227.181801 
L 333.736364 225.559999 
L 334.098701 214.908519 
L 334.461039 220.515632 
L 334.823377 216.268404 
L 335.185714 215.808954 
L 335.548052 214.987847 
L 335.91039 233.259961 
L 336.272727 233.138385 
L 336.997403 245.91862 
L 337.35974 240.690216 
L 337.722078 238.454744 
L 338.084416 232.900832 
L 338.446753 217.402876 
L 338.809091 215.644726 
L 339.171429 200.509516 
L 339.533766 196.490213 
L 339.896104 195.027193 
L 340.258442 207.7687 
L 340.620779 208.088857 
L 340.983117 212.990858 
L 341.345455 226.129485 
L 341.707792 229.815092 
L 342.07013 231.513426 
L 342.432468 227.659552 
L 342.794805 216.064336 
L 343.157143 217.298834 
L 343.519481 220.610367 
L 343.881818 215.247048 
L 344.244156 220.667377 
L 344.606494 229.49647 
L 344.968831 234.778099 
L 345.331169 237.039753 
L 345.693506 242.633936 
L 346.055844 243.973464 
L 346.418182 242.179978 
L 346.780519 236.9977 
L 347.505195 210.109948 
L 347.867532 210.135687 
L 348.22987 197.282023 
L 348.592208 197.841716 
L 349.316883 208.203995 
L 350.403896 232.215689 
L 350.766234 234.813552 
L 351.128571 225.860115 
L 351.490909 221.815272 
L 351.853247 221.470688 
L 352.215584 219.375194 
L 352.577922 219.10714 
L 352.94026 221.078468 
L 353.664935 245.97086 
L 354.027273 240.324671 
L 354.38961 246.963067 
L 354.751948 247.118554 
L 355.114286 245.99867 
L 355.476623 232.490211 
L 355.838961 227.226248 
L 356.201299 216.303582 
L 356.563636 209.29019 
L 356.925974 211.392688 
L 357.288312 205.845608 
L 358.737662 233.971822 
L 359.1 236.583006 
L 359.462338 237.753021 
L 359.824675 237.141405 
L 360.187013 234.916968 
L 360.549351 226.110998 
L 360.911688 223.833342 
L 361.274026 226.592739 
L 361.636364 219.13361 
L 362.361039 237.675302 
L 362.723377 253.554241 
L 363.085714 253.093375 
L 363.448052 248.016498 
L 363.81039 249.225627 
L 364.172727 231.578793 
L 364.535065 225.111475 
L 365.25974 206.835068 
L 365.622078 204.163329 
L 365.984416 202.852972 
L 366.346753 210.15897 
L 366.709091 222.726399 
L 367.071429 222.436903 
L 367.433766 234.64344 
L 367.796104 231.715567 
L 368.158442 234.201097 
L 368.520779 233.644807 
L 368.883117 234.425256 
L 369.245455 221.866217 
L 369.607792 220.650724 
L 369.97013 221.284917 
L 370.332468 224.863915 
L 371.057143 234.583885 
L 371.419481 247.003159 
L 371.781818 243.177909 
L 372.144156 250.849333 
L 372.868831 237.03299 
L 373.593506 221.040645 
L 374.318182 197.874587 
L 374.680519 206.290275 
L 375.042857 210.379523 
L 375.405195 210.417613 
L 375.767532 225.023437 
L 376.12987 218.78117 
L 376.492208 225.334323 
L 376.854545 229.009295 
L 377.216883 222.060234 
L 377.579221 220.553789 
L 377.941558 214.328857 
L 378.303896 214.435097 
L 378.666234 217.624711 
L 379.028571 217.842791 
L 379.390909 227.47812 
L 379.753247 229.982872 
L 380.477922 242.346319 
L 380.84026 243.976038 
L 381.202597 204.480593 
L 381.564935 224.560684 
L 381.927273 215.077169 
L 382.28961 199.944668 
L 382.651948 203.084954 
L 383.014286 190.464435 
L 383.376623 191.151749 
L 383.738961 196.756647 
L 384.101299 198.977302 
L 384.463636 213.208988 
L 384.825974 206.399949 
L 385.188312 219.14883 
L 385.550649 224.813673 
L 385.912987 222.411391 
L 386.275325 209.584386 
L 386.637662 208.334551 
L 387 203.370002 
L 387.362338 204.336524 
L 387.724675 215.941664 
L 388.087013 215.695841 
L 388.811688 231.290303 
L 389.174026 231.893913 
L 389.536364 233.376678 
L 389.898701 233.266112 
L 390.261039 224.21883 
L 390.985714 195.253682 
L 391.348052 187.904712 
L 391.71039 191.934015 
L 392.072727 186.007349 
L 392.435065 187.174958 
L 392.797403 198.51792 
L 393.15974 200.003533 
L 393.522078 207.995232 
L 393.884416 211.081225 
L 394.246753 222.157941 
L 394.609091 211.51 
L 394.971429 211.198228 
L 395.333766 208.01675 
L 395.696104 203.174254 
L 396.058442 203.266702 
L 396.420779 200.21161 
L 397.145455 222.883691 
L 397.507792 222.542579 
L 397.87013 229.858663 
L 398.232468 234.615273 
L 398.594805 228.388793 
L 399.319481 201.789598 
L 399.681818 201.188696 
L 400.044156 185.928479 
L 400.406494 182.517112 
L 400.768831 185.518156 
L 401.131169 190.966661 
L 401.493506 198.321604 
L 401.855844 203.303429 
L 402.580519 217.807524 
L 402.942857 213.95843 
L 403.667532 205.016707 
L 404.02987 202.373995 
L 404.392208 205.373937 
L 404.754545 205.169539 
L 405.116883 202.497334 
L 405.479221 208.901459 
L 406.203896 228.986013 
L 406.566234 233.707144 
L 406.928571 234.874867 
L 407.290909 226.984644 
L 407.653247 216.427906 
L 408.015584 216.105464 
L 408.377922 194.994524 
L 409.102597 181.529378 
L 409.464935 181.222165 
L 410.18961 200.769805 
L 410.551948 205.052635 
L 410.914286 214.264353 
L 411.276623 217.974714 
L 411.638961 218.534382 
L 412.001299 211.081817 
L 412.363636 212.871633 
L 413.088312 203.774151 
L 413.450649 208.273174 
L 413.812987 214.836818 
L 414.537662 219.906581 
L 414.9 232.343313 
L 415.262338 231.525582 
L 415.624675 237.689621 
L 415.987013 231.406498 
L 416.349351 221.180679 
L 416.711688 216.112229 
L 417.436364 194.809339 
L 417.798701 194.661228 
L 418.161039 195.966703 
L 418.523377 196.071094 
L 419.248052 210.810835 
L 419.61039 215.288841 
L 419.972727 222.744175 
L 420.335065 224.590317 
L 420.697403 211.255423 
L 421.05974 214.75789 
L 421.422078 213.594764 
L 421.784416 207.209069 
L 422.146753 205.984145 
L 422.509091 213.962895 
L 422.871429 189.252131 
L 423.233766 221.491227 
L 423.596104 233.626414 
L 423.958442 237.124088 
L 424.683117 228.041725 
L 425.045455 226.303929 
L 425.77013 213.238794 
L 426.132468 192.953584 
L 426.494805 189.887958 
L 426.857143 194.59094 
L 427.219481 190.963199 
L 427.581818 203.759266 
L 427.944156 207.048447 
L 428.668831 223.274735 
L 429.031169 223.008717 
L 429.393506 219.301852 
L 429.755844 210.822071 
L 430.118182 207.540865 
L 430.480519 207.202891 
L 430.842857 203.56148 
L 431.205195 215.386592 
L 431.567532 211.769044 
L 431.92987 223.755077 
L 432.654545 238.153621 
L 433.016883 224.835311 
L 433.379221 230.398281 
L 434.103896 213.651906 
L 434.466234 203.170664 
L 434.828571 197.301169 
L 435.190909 189.566921 
L 435.553247 189.850188 
L 435.915584 190.593245 
L 436.277922 202.090612 
L 436.64026 208.808244 
L 437.002597 207.85481 
L 437.364935 213.767826 
L 437.727273 212.103042 
L 438.08961 212.720065 
L 438.451948 208.888878 
L 438.814286 207.926033 
L 439.176623 171.903082 
L 439.538961 199.756088 
L 440.263636 213.58916 
L 440.625974 214.981024 
L 440.988312 225.031264 
L 441.712987 233.561427 
L 442.075325 220.920227 
L 442.437662 215.273348 
L 443.524675 180.498579 
L 443.887013 179.424084 
L 444.249351 183.247661 
L 444.611688 185.469415 
L 444.974026 189.9107 
L 445.698701 205.01897 
L 446.061039 201.529538 
L 446.423377 205.362747 
L 446.785714 201.228043 
L 447.148052 191.739556 
L 447.51039 189.444575 
L 447.872727 196.889804 
L 448.235065 198.367097 
L 448.597403 197.614918 
L 448.95974 198.418249 
L 449.322078 210.038867 
L 449.684416 216.603468 
L 450.046753 218.70963 
L 450.409091 223.970056 
L 450.771429 219.956578 
L 451.133766 203.529333 
L 452.220779 176.918678 
L 452.583117 173.685791 
L 452.945455 171.994291 
L 453.307792 182.007183 
L 453.67013 184.140281 
L 454.032468 191.083565 
L 454.394805 201.978127 
L 454.757143 202.607242 
L 455.119481 201.299626 
L 455.844156 193.29434 
L 456.568831 188.266381 
L 456.931169 188.041411 
L 457.293506 187.564325 
L 457.655844 201.729775 
L 458.018182 202.670667 
L 458.742857 217.331521 
L 459.105195 217.289846 
L 459.467532 209.10489 
L 459.82987 207.505338 
L 460.554545 181.68272 
L 460.916883 173.890498 
L 461.279221 173.183406 
L 461.641558 165.777268 
L 462.366234 188.295264 
L 462.728571 187.071496 
L 463.090909 195.760163 
L 463.453247 198.051535 
L 463.815584 198.139109 
L 464.177922 204.091037 
L 464.54026 188.419295 
L 464.902597 190.739264 
L 465.264935 187.567451 
L 465.627273 189.410098 
L 465.98961 195.594154 
L 466.351948 194.129227 
L 466.714286 205.817419 
L 467.076623 209.600923 
L 467.438961 222.159855 
L 467.801299 215.204719 
L 468.163636 213.356795 
L 468.525974 198.163749 
L 468.888312 194.249506 
L 469.612987 179.421809 
L 469.975325 180.888215 
L 470.337662 178.034028 
L 470.7 178.957175 
L 471.062338 180.886205 
L 471.424675 192.884656 
L 471.787013 196.411189 
L 472.149351 205.686272 
L 472.511688 196.921086 
L 472.874026 200.483595 
L 473.236364 197.380114 
L 473.598701 190.881714 
L 473.961039 188.982846 
L 474.685714 197.598308 
L 475.048052 196.631275 
L 475.41039 211.148839 
L 475.772727 214.35206 
L 476.135065 222.814194 
L 476.497403 219.055537 
L 476.85974 210.041063 
L 477.222078 210.991115 
L 477.584416 195.830439 
L 477.946753 189.601211 
L 478.309091 174.744983 
L 478.671429 174.748637 
L 479.033766 174.500725 
L 479.396104 188.863109 
L 479.758442 189.672503 
L 480.120779 199.868056 
L 480.483117 200.378731 
L 480.845455 211.177533 
L 481.207792 206.722041 
L 481.57013 197.71417 
L 481.932468 196.40967 
L 482.294805 194.534137 
L 482.657143 194.321285 
L 483.019481 198.760019 
L 483.381818 195.440289 
L 484.468831 221.649268 
L 484.831169 221.625639 
L 485.555844 217.630509 
L 486.280519 197.890183 
L 487.005195 180.204875 
L 487.367532 177.713964 
L 487.72987 180.602914 
L 488.092208 179.058669 
L 488.454545 185.18429 
L 488.816883 197.37913 
L 489.541558 207.203221 
L 489.903896 202.115481 
L 490.628571 196.266533 
L 491.353247 194.96722 
L 491.715584 193.571069 
L 492.077922 196.007697 
L 492.44026 200.004381 
L 493.164935 219.301918 
L 493.88961 221.705323 
L 494.251948 207.716462 
L 494.614286 206.748215 
L 495.701299 177.199102 
L 496.063636 177.824675 
L 496.425974 176.130755 
L 496.788312 173.725383 
L 497.512987 193.169657 
L 497.875325 197.138286 
L 498.237662 199.465566 
L 498.6 203.975979 
L 498.962338 199.867791 
L 499.324675 190.837955 
L 500.049351 187.39038 
L 500.411688 185.177264 
L 500.774026 194.291918 
L 501.136364 192.863936 
L 501.498701 209.993615 
L 501.861039 208.086853 
L 502.223377 213.482065 
L 502.585714 211.570681 
L 502.948052 206.42788 
L 503.672727 187.080528 
L 504.035065 140.189539 
L 504.397403 126.524672 
L 504.75974 96.702904 
L 505.122078 94.17705 
L 505.484416 109.717877 
L 505.846753 117.191027 
L 506.209091 165.024342 
L 506.933766 220.548359 
L 507.296104 208.795637 
L 507.658442 209.104313 
L 508.020779 174.77265 
L 508.383117 186.829097 
L 508.745455 151.489231 
L 509.107792 162.704978 
L 509.47013 177.833448 
L 509.832468 177.964115 
L 510.194805 201.400767 
L 510.557143 262.940394 
L 510.919481 274.112943 
L 511.281818 237.871643 
L 511.644156 251.484736 
L 512.006494 213.995391 
L 512.731169 93.119909 
L 513.093506 100.136845 
L 513.455844 66.96 
L 513.818182 101.886499 
L 514.180519 95.591776 
L 514.542857 115.195938 
L 515.267532 168.006295 
L 515.62987 173.535704 
L 515.992208 166.740219 
L 516.354545 173.146126 
L 517.803896 121.095245 
L 518.890909 199.38362 
L 519.253247 255.919808 
L 519.615584 259.860134 
L 519.977922 273.41875 
L 520.34026 241.627371 
L 520.702597 183.742978 
L 521.064935 179.373906 
L 521.427273 111.672033 
L 521.78961 112.247072 
L 522.151948 87.619068 
L 522.514286 93.337317 
L 522.876623 107.926234 
L 523.238961 134.384924 
L 523.601299 133.825955 
L 523.963636 160.403395 
L 524.688312 182.401467 
L 525.412987 167.194737 
L 525.775325 152.35793 
L 526.137662 153.195616 
L 526.5 157.964996 
L 526.862338 124.613886 
L 527.224675 199.812108 
L 527.587013 210.162405 
L 528.311688 282.79667 
L 528.674026 254.546954 
L 529.036364 263.954562 
L 529.398701 201.847451 
L 529.761039 191.779019 
L 530.123377 130.576575 
L 530.848052 95.803411 
L 531.572727 116.558972 
L 531.935065 284.823242 
L 532.297403 148.854947 
L 533.022078 216.478513 
L 533.384416 209.387156 
L 534.109091 181.014986 
L 534.471429 151.498794 
L 535.196104 169.810906 
L 535.558442 186.542122 
L 535.920779 225.30613 
L 536.645455 251.488893 
L 537.37013 305.749762 
L 538.094805 226.974952 
L 538.457143 227.040546 
L 539.181818 101.064634 
L 539.544156 138.189157 
L 539.906494 133.59163 
L 540.268831 138.921637 
L 540.631169 147.130582 
L 541.355844 225.592447 
L 541.718182 245.971293 
L 542.080519 236.308775 
L 542.442857 235.174098 
L 543.52987 165.283066 
L 543.892208 198.7731 
L 544.616883 247.760829 
L 544.979221 244.975611 
L 545.341558 281.876374 
L 545.703896 301.802605 
L 546.066234 309.290033 
L 546.790909 242.60989 
L 547.153247 191.533203 
L 547.515584 198.86737 
L 547.877922 134.744975 
L 548.24026 136.191005 
L 548.602597 135.669784 
L 548.964935 164.475911 
L 549.68961 193.830329 
L 550.051948 227.852702 
L 550.414286 227.693725 
L 550.776623 237.600208 
L 551.138961 229.88507 
L 551.501299 218.113182 
L 551.863636 188.137315 
L 552.225974 178.002549 
L 552.588312 193.568565 
L 552.950649 342.188132 
L 553.312987 230.785272 
L 554.037662 293.860012 
L 554.4 297.75072 
L 554.762338 280.629649 
L 555.124675 269.769469 
L 555.487013 244.096666 
L 556.211688 170.687506 
L 556.574026 144.212557 
L 556.936364 131.743316 
L 557.298701 107.210525 
L 557.661039 129.277853 
L 558.023377 144.315361 
L 558.385714 197.703793 
L 558.748052 216.317426 
L 559.11039 246.943174 
L 559.472727 237.028176 
L 559.835065 204.783896 
L 560.197403 207.26954 
L 560.55974 201.588414 
L 560.922078 146.776854 
L 561.284416 160.668227 
L 561.646753 201.328559 
L 562.009091 369.36 
L 562.371429 229.417342 
L 562.733766 270.514277 
L 563.096104 260.855314 
L 563.458442 272.064859 
L 563.820779 269.511816 
L 564.183117 238.712681 
L 564.545455 177.407505 
L 564.907792 160.436549 
L 565.27013 99.766053 
L 565.632468 94.694037 
L 566.719481 125.524285 
L 567.081818 170.546245 
L 567.444156 194.791732 
L 567.806494 197.603738 
L 568.168831 189.518806 
L 568.531169 197.267559 
L 568.893506 194.61284 
L 569.255844 162.764106 
L 569.618182 153.344545 
L 569.980519 156.771473 
L 570.342857 132.838678 
L 570.705195 182.229352 
L 571.067532 210.324887 
L 571.42987 252.88854 
L 572.154545 274.018214 
L 572.879221 199.237258 
L 573.966234 95.364586 
L 574.328571 77.880404 
L 574.690909 76.253812 
L 575.053247 77.165333 
L 575.777922 164.260975 
L 576.14026 159.354957 
L 576.502597 205.214249 
L 576.864935 181.151941 
L 577.227273 175.510123 
L 577.58961 161.953008 
L 578.314286 114.775785 
L 578.676623 148.174244 
L 579.038961 135.944926 
L 579.401299 186.652647 
L 580.125974 237.259689 
L 580.488312 247.182084 
L 580.850649 263.024468 
L 581.212987 243.260769 
L 581.575325 191.67227 
L 581.937662 178.85442 
L 582.3 112.099053 
L 582.662338 75.44182 
L 583.024675 88.183604 
L 583.387013 87.411225 
L 583.749351 85.824012 
L 584.111688 131.642983 
L 584.474026 124.771005 
L 584.836364 171.205104 
L 585.198701 173.44077 
L 585.561039 179.255087 
L 585.923377 193.829552 
L 586.285714 132.119273 
L 586.648052 161.938488 
L 587.01039 130.584458 
L 587.372727 170.743197 
L 587.735065 166.967708 
L 588.097403 172.733368 
L 588.45974 198.580403 
L 588.822078 256.740878 
L 589.184416 249.007469 
L 589.546753 274.533145 
L 589.909091 266.921844 
L 590.271429 232.045288 
L 590.633766 176.189176 
L 590.996104 158.480946 
L 591.358442 108.80458 
L 591.720779 90.179054 
L 592.445455 110.667103 
L 592.807792 134.000806 
L 593.17013 181.242288 
L 593.532468 190.372661 
L 593.894805 220.900027 
L 594.257143 226.718246 
L 594.619481 195.346708 
L 594.981818 194.188161 
L 595.344156 181.361591 
L 595.706494 157.459254 
L 596.068831 182.191696 
L 596.431169 188.977966 
L 596.793506 198.922662 
L 597.155844 260.121855 
L 597.518182 263.212191 
L 597.880519 294.739037 
L 598.242857 268.494036 
L 598.605195 271.859687 
L 598.967532 222.374992 
L 599.32987 196.361941 
L 599.692208 157.827997 
L 600.416883 107.670453 
L 600.779221 136.729626 
L 601.141558 128.433397 
L 601.503896 162.523544 
L 601.866234 179.996202 
L 602.228571 224.868176 
L 602.590909 251.596642 
L 602.953247 249.33363 
L 603.315584 220.32754 
L 603.677922 221.735951 
L 604.04026 181.471 
L 604.402597 171.590025 
L 604.764935 179.205046 
L 605.127273 200.708644 
L 605.48961 240.468042 
L 605.851948 254.554798 
L 606.214286 283.687827 
L 606.576623 303.310943 
L 606.938961 286.538396 
L 607.301299 298.235212 
L 608.025974 236.726453 
L 608.388312 147.938937 
L 608.750649 145.572397 
L 609.112987 126.742746 
L 609.475325 120.515393 
L 610.2 166.74566 
L 610.562338 215.789147 
L 610.924675 225.251809 
L 611.287013 260.215545 
L 611.649351 258.371461 
L 612.011688 239.874707 
L 612.374026 230.020021 
L 612.736364 191.561324 
L 613.098701 196.071927 
L 613.461039 180.742097 
L 614.185714 220.08122 
L 614.548052 217.550331 
L 614.91039 271.422683 
L 615.272727 301.989856 
L 615.635065 308.486812 
L 616.35974 267.472058 
L 616.722078 208.742265 
L 617.084416 189.291657 
L 617.446753 122.514187 
L 617.809091 116.622809 
L 618.171429 117.359285 
L 618.533766 117.030307 
L 619.258442 200.911465 
L 619.620779 209.875381 
L 619.983117 239.867193 
L 620.345455 240.300938 
L 620.707792 211.180843 
L 621.07013 171.887905 
L 621.432468 178.862631 
L 621.794805 152.735666 
L 622.157143 174.223813 
L 622.519481 211.204322 
L 622.881818 193.616434 
L 623.244156 252.523897 
L 623.606494 262.369111 
L 623.968831 291.781984 
L 624.331169 288.420755 
L 624.693506 242.262053 
L 625.055844 236.984293 
L 625.418182 190.762103 
L 625.780519 169.056063 
L 626.142857 164.080725 
L 626.505195 148.83558 
L 626.867532 145.094237 
L 627.22987 143.546239 
L 627.592208 159.023139 
L 627.954545 168.048748 
L 628.316883 188.527947 
L 628.679221 193.456269 
L 629.041558 201.973543 
L 629.403896 187.582077 
L 629.766234 181.493527 
L 630.128571 167.031216 
L 630.490909 163.804261 
L 630.853247 163.260814 
L 632.302597 217.14967 
L 633.027273 229.935549 
L 633.751948 203.674963 
L 634.114286 176.771621 
L 634.476623 164.093 
L 635.201299 129.901424 
L 635.563636 139.217929 
L 635.925974 129.35535 
L 636.288312 152.385621 
L 636.650649 163.190492 
L 637.012987 184.696142 
L 637.375325 191.216028 
L 637.737662 181.95563 
L 638.1 187.450979 
L 638.462338 185.99613 
L 638.824675 157.359377 
L 639.187013 158.988858 
L 639.549351 165.519721 
L 639.911688 169.36739 
L 640.998701 207.475025 
L 641.361039 242.053815 
L 641.723377 209.30761 
L 642.085714 207.155736 
L 642.448052 194.286199 
L 642.81039 161.556427 
L 643.172727 153.819586 
L 643.535065 139.059777 
L 643.897403 136.663344 
L 644.25974 138.277277 
L 644.622078 137.207001 
L 644.984416 159.930365 
L 645.346753 161.209888 
L 645.709091 180.518291 
L 646.071429 192.444037 
L 646.433766 182.086025 
L 646.796104 188.880542 
L 647.158442 180.700629 
L 647.520779 168.259018 
L 647.883117 178.130764 
L 648.245455 166.057897 
L 648.607792 175.780469 
L 648.97013 189.877621 
L 649.332468 218.276676 
L 649.694805 218.258463 
L 650.057143 228.221824 
L 650.419481 217.365174 
L 650.781818 219.294954 
L 651.144156 212.815469 
L 651.506494 197.437906 
L 652.231169 134.017755 
L 652.593506 139.312769 
L 652.955844 148.507519 
L 653.318182 165.798547 
L 653.680519 159.956769 
L 654.767532 199.514492 
L 655.12987 203.196736 
L 655.492208 199.521826 
L 655.854545 188.625013 
L 656.216883 183.190499 
L 656.941558 179.373799 
L 657.303896 178.724752 
L 657.666234 195.977782 
L 658.028571 221.97609 
L 658.753247 238.651682 
L 659.115584 236.021287 
L 659.477922 222.878042 
L 659.84026 221.878372 
L 660.202597 183.717249 
L 660.927273 156.548595 
L 661.28961 149.005245 
L 661.651948 149.166411 
L 662.014286 166.887916 
L 662.376623 175.709737 
L 662.738961 198.294349 
L 663.101299 198.206396 
L 663.463636 203.192944 
L 663.825974 212.078082 
L 664.188312 206.156908 
L 664.550649 209.178781 
L 665.275325 184.782532 
L 665.637662 190.598667 
L 666 192.546953 
L 666.362338 199.10657 
L 667.087013 234.881087 
L 667.449351 246.262585 
L 667.811688 245.749898 
L 668.174026 234.775903 
L 668.536364 220.243072 
L 668.898701 190.243676 
L 669.261039 171.492837 
L 669.623377 167.43095 
L 669.985714 156.887323 
L 670.348052 150.556169 
L 671.072727 182.982848 
L 671.435065 209.911189 
L 671.797403 190.346233 
L 672.15974 218.511749 
L 673.246753 207.896629 
L 673.609091 191.225202 
L 673.971429 187.705074 
L 674.333766 196.124476 
L 674.696104 196.240078 
L 675.058442 199.953631 
L 675.783117 229.674745 
L 676.145455 251.408666 
L 676.507792 241.501822 
L 676.87013 236.852086 
L 677.957143 178.47954 
L 678.319481 150.300769 
L 678.681818 152.571318 
L 679.044156 160.16965 
L 679.406494 160.802412 
L 679.768831 167.634964 
L 680.131169 197.376716 
L 680.493506 204.482056 
L 680.855844 204.876116 
L 681.218182 213.278584 
L 681.580519 200.640263 
L 681.942857 203.006245 
L 682.305195 186.200555 
L 682.667532 183.637101 
L 683.02987 195.910249 
L 683.392208 179.392094 
L 684.116883 227.34538 
L 684.479221 220.106446 
L 684.841558 231.309838 
L 685.203896 237.774739 
L 685.566234 216.98569 
L 685.928571 208.460516 
L 687.377922 127.11159 
L 687.74026 138.621459 
L 688.102597 164.279753 
L 688.464935 151.592767 
L 689.18961 193.617325 
L 689.551948 194.678968 
L 690.276623 206.925952 
L 690.638961 182.481904 
L 691.001299 181.000928 
L 691.363636 179.038367 
L 691.725974 165.226337 
L 692.088312 187.749193 
L 692.812987 201.540348 
L 693.175325 219.114223 
L 693.537662 228.37518 
L 694.262338 222.297381 
L 694.987013 178.537455 
L 695.349351 154.702859 
L 695.711688 142.774165 
L 696.074026 138.30699 
L 696.436364 128.225665 
L 697.161039 150.289123 
L 697.523377 176.070786 
L 697.885714 176.00223 
L 698.248052 183.04673 
L 698.61039 183.874177 
L 698.972727 185.799088 
L 699.335065 168.858442 
L 699.697403 167.16224 
L 700.05974 155.78083 
L 700.422078 169.455192 
L 700.784416 166.188679 
L 701.146753 178.009959 
L 701.871429 220.943134 
L 702.233766 215.562939 
L 702.596104 216.595364 
L 702.958442 213.533717 
L 703.320779 195.403669 
L 703.683117 166.429391 
L 704.045455 153.780835 
L 704.407792 208.69034 
L 704.77013 125.823331 
L 705.132468 193.09008 
L 705.494805 135.980102 
L 705.857143 145.310873 
L 706.219481 164.405915 
L 706.581818 173.672922 
L 706.944156 195.853517 
L 707.306494 184.561411 
L 707.668831 193.032195 
L 708.031169 191.800127 
L 708.393506 168.941017 
L 708.755844 168.760175 
L 709.118182 165.608925 
L 709.480519 167.077477 
L 709.842857 194.072735 
L 710.205195 198.658023 
L 710.567532 214.905833 
L 710.92987 208.82609 
L 711.292208 222.814631 
L 711.654545 218.928553 
L 712.016883 211.497364 
L 712.379221 175.590447 
L 712.741558 175.042495 
L 713.103896 143.340334 
L 713.828571 133.866584 
L 714.190909 146.976858 
L 715.277922 198.397862 
L 715.64026 199.435659 
L 716.002597 197.773357 
L 716.364935 193.839389 
L 716.727273 191.227157 
L 717.08961 195.442888 
L 717.451948 170.63852 
L 717.814286 173.40723 
L 718.176623 194.725674 
L 718.538961 202.090824 
L 718.901299 203.819265 
L 719.263636 231.972304 
L 719.625974 249.706423 
L 719.988312 249.968675 
L 720.350649 212.63981 
L 720.712987 211.478379 
L 721.075325 189.904795 
L 721.8 161.385448 
L 722.162338 156.685567 
L 722.524675 148.808552 
L 722.887013 159.028535 
L 723.249351 178.695201 
L 723.974026 204.049394 
L 724.336364 211.979722 
L 724.698701 213.131771 
L 725.061039 205.386967 
L 725.423377 205.449705 
L 725.785714 189.928504 
L 726.148052 195.990486 
L 726.51039 191.242307 
L 726.872727 196.928344 
L 727.235065 214.196267 
L 727.597403 222.701413 
L 727.95974 241.56485 
L 728.322078 232.509387 
L 728.684416 251.990927 
L 729.771429 211.066196 
L 730.133766 190.231489 
L 730.496104 154.532083 
L 731.220779 148.084736 
L 731.583117 169.892432 
L 731.945455 168.003799 
L 732.307792 199.497008 
L 732.67013 211.214512 
L 733.032468 212.182949 
L 733.394805 216.520049 
L 733.757143 200.863143 
L 734.119481 205.327319 
L 734.481818 202.13691 
L 735.206494 183.683089 
L 735.568831 191.279351 
L 735.931169 218.065597 
L 737.018182 245.452353 
L 737.380519 241.764738 
L 737.742857 242.421282 
L 738.105195 225.648568 
L 739.192208 151.806298 
L 739.554545 164.079665 
L 739.916883 138.771832 
L 740.279221 169.529381 
L 740.641558 167.035265 
L 741.366234 209.576619 
L 741.728571 208.302557 
L 742.090909 216.548966 
L 742.453247 209.63336 
L 742.815584 183.179523 
L 743.177922 193.243596 
L 743.54026 178.849097 
L 744.264935 193.552075 
L 744.98961 211.162457 
L 745.714286 232.378356 
L 746.076623 236.177723 
L 746.438961 223.137477 
L 746.801299 204.851246 
L 746.801299 204.851246 
" style="fill:none;stroke:#1f77b4;stroke-linecap:square;stroke-width:1.5;"/>
   </g>
   <g id="line2d_18">
    <path clip-path="url(#p9517244969)" d="M 747.163636 384.48 
L 747.163636 51.84 
" style="fill:none;stroke:#808080;stroke-linecap:square;"/>
   </g>
   <g id="patch_135">
    <path d="M 108 384.48 
L 108 51.84 
" style="fill:none;stroke:#000000;stroke-linecap:square;stroke-linejoin:miter;stroke-width:0.8;"/>
   </g>
   <g id="patch_136">
    <path d="M 777.6 384.48 
L 777.6 51.84 
" style="fill:none;stroke:#000000;stroke-linecap:square;stroke-linejoin:miter;stroke-width:0.8;"/>
   </g>
   <g id="patch_137">
    <path d="M 108 384.48 
L 777.6 384.48 
" style="fill:none;stroke:#000000;stroke-linecap:square;stroke-linejoin:miter;stroke-width:0.8;"/>
   </g>
   <g id="patch_138">
    <path d="M 108 51.84 
L 777.6 51.84 
" style="fill:none;stroke:#000000;stroke-linecap:square;stroke-linejoin:miter;stroke-width:0.8;"/>
   </g>
   <g id="text_19">
    <!-- A4Benchmark-TS99.csv -->
    <defs>
     <path d="M 34.1875 63.1875 
L 20.796875 26.90625 
L 47.609375 26.90625 
z
M 28.609375 72.90625 
L 39.796875 72.90625 
L 67.578125 0 
L 57.328125 0 
L 50.6875 18.703125 
L 17.828125 18.703125 
L 11.1875 0 
L 0.78125 0 
z
" id="DejaVuSans-65"/>
     <path d="M 37.796875 64.3125 
L 12.890625 25.390625 
L 37.796875 25.390625 
z
M 35.203125 72.90625 
L 47.609375 72.90625 
L 47.609375 25.390625 
L 58.015625 25.390625 
L 58.015625 17.1875 
L 47.609375 17.1875 
L 47.609375 0 
L 37.796875 0 
L 37.796875 17.1875 
L 4.890625 17.1875 
L 4.890625 26.703125 
z
" id="DejaVuSans-52"/>
     <path d="M 19.671875 34.8125 
L 19.671875 8.109375 
L 35.5 8.109375 
Q 43.453125 8.109375 47.28125 11.40625 
Q 51.125 14.703125 51.125 21.484375 
Q 51.125 28.328125 47.28125 31.5625 
Q 43.453125 34.8125 35.5 34.8125 
z
M 19.671875 64.796875 
L 19.671875 42.828125 
L 34.28125 42.828125 
Q 41.5 42.828125 45.03125 45.53125 
Q 48.578125 48.25 48.578125 53.8125 
Q 48.578125 59.328125 45.03125 62.0625 
Q 41.5 64.796875 34.28125 64.796875 
z
M 9.8125 72.90625 
L 35.015625 72.90625 
Q 46.296875 72.90625 52.390625 68.21875 
Q 58.5 63.53125 58.5 54.890625 
Q 58.5 48.1875 55.375 44.234375 
Q 52.25 40.28125 46.1875 39.3125 
Q 53.46875 37.75 57.5 32.78125 
Q 61.53125 27.828125 61.53125 20.40625 
Q 61.53125 10.640625 54.890625 5.3125 
Q 48.25 0 35.984375 0 
L 9.8125 0 
z
" id="DejaVuSans-66"/>
     <path d="M 54.890625 33.015625 
L 54.890625 0 
L 45.90625 0 
L 45.90625 32.71875 
Q 45.90625 40.484375 42.875 44.328125 
Q 39.84375 48.1875 33.796875 48.1875 
Q 26.515625 48.1875 22.3125 43.546875 
Q 18.109375 38.921875 18.109375 30.90625 
L 18.109375 0 
L 9.078125 0 
L 9.078125 54.6875 
L 18.109375 54.6875 
L 18.109375 46.1875 
Q 21.34375 51.125 25.703125 53.5625 
Q 30.078125 56 35.796875 56 
Q 45.21875 56 50.046875 50.171875 
Q 54.890625 44.34375 54.890625 33.015625 
z
" id="DejaVuSans-110"/>
     <path d="M 48.78125 52.59375 
L 48.78125 44.1875 
Q 44.96875 46.296875 41.140625 47.34375 
Q 37.3125 48.390625 33.40625 48.390625 
Q 24.65625 48.390625 19.8125 42.84375 
Q 14.984375 37.3125 14.984375 27.296875 
Q 14.984375 17.28125 19.8125 11.734375 
Q 24.65625 6.203125 33.40625 6.203125 
Q 37.3125 6.203125 41.140625 7.25 
Q 44.96875 8.296875 48.78125 10.40625 
L 48.78125 2.09375 
Q 45.015625 0.34375 40.984375 -0.53125 
Q 36.96875 -1.421875 32.421875 -1.421875 
Q 20.0625 -1.421875 12.78125 6.34375 
Q 5.515625 14.109375 5.515625 27.296875 
Q 5.515625 40.671875 12.859375 48.328125 
Q 20.21875 56 33.015625 56 
Q 37.15625 56 41.109375 55.140625 
Q 45.0625 54.296875 48.78125 52.59375 
z
" id="DejaVuSans-99"/>
     <path d="M 54.890625 33.015625 
L 54.890625 0 
L 45.90625 0 
L 45.90625 32.71875 
Q 45.90625 40.484375 42.875 44.328125 
Q 39.84375 48.1875 33.796875 48.1875 
Q 26.515625 48.1875 22.3125 43.546875 
Q 18.109375 38.921875 18.109375 30.90625 
L 18.109375 0 
L 9.078125 0 
L 9.078125 75.984375 
L 18.109375 75.984375 
L 18.109375 46.1875 
Q 21.34375 51.125 25.703125 53.5625 
Q 30.078125 56 35.796875 56 
Q 45.21875 56 50.046875 50.171875 
Q 54.890625 44.34375 54.890625 33.015625 
z
" id="DejaVuSans-104"/>
     <path d="M 41.109375 46.296875 
Q 39.59375 47.171875 37.8125 47.578125 
Q 36.03125 48 33.890625 48 
Q 26.265625 48 22.1875 43.046875 
Q 18.109375 38.09375 18.109375 28.8125 
L 18.109375 0 
L 9.078125 0 
L 9.078125 54.6875 
L 18.109375 54.6875 
L 18.109375 46.1875 
Q 20.953125 51.171875 25.484375 53.578125 
Q 30.03125 56 36.53125 56 
Q 37.453125 56 38.578125 55.875 
Q 39.703125 55.765625 41.0625 55.515625 
z
" id="DejaVuSans-114"/>
     <path d="M 9.078125 75.984375 
L 18.109375 75.984375 
L 18.109375 31.109375 
L 44.921875 54.6875 
L 56.390625 54.6875 
L 27.390625 29.109375 
L 57.625 0 
L 45.90625 0 
L 18.109375 26.703125 
L 18.109375 0 
L 9.078125 0 
z
" id="DejaVuSans-107"/>
     <path d="M 4.890625 31.390625 
L 31.203125 31.390625 
L 31.203125 23.390625 
L 4.890625 23.390625 
z
" id="DejaVuSans-45"/>
     <path d="M 53.515625 70.515625 
L 53.515625 60.890625 
Q 47.90625 63.578125 42.921875 64.890625 
Q 37.9375 66.21875 33.296875 66.21875 
Q 25.25 66.21875 20.875 63.09375 
Q 16.5 59.96875 16.5 54.203125 
Q 16.5 49.359375 19.40625 46.890625 
Q 22.3125 44.4375 30.421875 42.921875 
L 36.375 41.703125 
Q 47.40625 39.59375 52.65625 34.296875 
Q 57.90625 29 57.90625 20.125 
Q 57.90625 9.515625 50.796875 4.046875 
Q 43.703125 -1.421875 29.984375 -1.421875 
Q 24.8125 -1.421875 18.96875 -0.25 
Q 13.140625 0.921875 6.890625 3.21875 
L 6.890625 13.375 
Q 12.890625 10.015625 18.65625 8.296875 
Q 24.421875 6.59375 29.984375 6.59375 
Q 38.421875 6.59375 43.015625 9.90625 
Q 47.609375 13.234375 47.609375 19.390625 
Q 47.609375 24.75 44.3125 27.78125 
Q 41.015625 30.8125 33.5 32.328125 
L 27.484375 33.5 
Q 16.453125 35.6875 11.515625 40.375 
Q 6.59375 45.0625 6.59375 53.421875 
Q 6.59375 63.09375 13.40625 68.65625 
Q 20.21875 74.21875 32.171875 74.21875 
Q 37.3125 74.21875 42.625 73.28125 
Q 47.953125 72.359375 53.515625 70.515625 
z
" id="DejaVuSans-83"/>
     <path d="M 10.984375 1.515625 
L 10.984375 10.5 
Q 14.703125 8.734375 18.5 7.8125 
Q 22.3125 6.890625 25.984375 6.890625 
Q 35.75 6.890625 40.890625 13.453125 
Q 46.046875 20.015625 46.78125 33.40625 
Q 43.953125 29.203125 39.59375 26.953125 
Q 35.25 24.703125 29.984375 24.703125 
Q 19.046875 24.703125 12.671875 31.3125 
Q 6.296875 37.9375 6.296875 49.421875 
Q 6.296875 60.640625 12.9375 67.421875 
Q 19.578125 74.21875 30.609375 74.21875 
Q 43.265625 74.21875 49.921875 64.515625 
Q 56.59375 54.828125 56.59375 36.375 
Q 56.59375 19.140625 48.40625 8.859375 
Q 40.234375 -1.421875 26.421875 -1.421875 
Q 22.703125 -1.421875 18.890625 -0.6875 
Q 15.09375 0.046875 10.984375 1.515625 
z
M 30.609375 32.421875 
Q 37.25 32.421875 41.125 36.953125 
Q 45.015625 41.5 45.015625 49.421875 
Q 45.015625 57.28125 41.125 61.84375 
Q 37.25 66.40625 30.609375 66.40625 
Q 23.96875 66.40625 20.09375 61.84375 
Q 16.21875 57.28125 16.21875 49.421875 
Q 16.21875 41.5 20.09375 36.953125 
Q 23.96875 32.421875 30.609375 32.421875 
z
" id="DejaVuSans-57"/>
     <path d="M 10.6875 12.40625 
L 21 12.40625 
L 21 0 
L 10.6875 0 
z
" id="DejaVuSans-46"/>
     <path d="M 2.984375 54.6875 
L 12.5 54.6875 
L 29.59375 8.796875 
L 46.6875 54.6875 
L 56.203125 54.6875 
L 35.6875 0 
L 23.484375 0 
z
" id="DejaVuSans-118"/>
    </defs>
    <g transform="translate(371.555625 45.84)scale(0.12 -0.12)">
     <use xlink:href="#DejaVuSans-65"/>
     <use x="68.408203" xlink:href="#DejaVuSans-52"/>
     <use x="132.03125" xlink:href="#DejaVuSans-66"/>
     <use x="200.634766" xlink:href="#DejaVuSans-101"/>
     <use x="262.158203" xlink:href="#DejaVuSans-110"/>
     <use x="325.537109" xlink:href="#DejaVuSans-99"/>
     <use x="380.517578" xlink:href="#DejaVuSans-104"/>
     <use x="443.896484" xlink:href="#DejaVuSans-109"/>
     <use x="541.308594" xlink:href="#DejaVuSans-97"/>
     <use x="602.587891" xlink:href="#DejaVuSans-114"/>
     <use x="643.701172" xlink:href="#DejaVuSans-107"/>
     <use x="701.611328" xlink:href="#DejaVuSans-45"/>
     <use x="737.554688" xlink:href="#DejaVuSans-84"/>
     <use x="798.638672" xlink:href="#DejaVuSans-83"/>
     <use x="862.115234" xlink:href="#DejaVuSans-57"/>
     <use x="925.738281" xlink:href="#DejaVuSans-57"/>
     <use x="989.361328" xlink:href="#DejaVuSans-46"/>
     <use x="1021.148438" xlink:href="#DejaVuSans-99"/>
     <use x="1076.128906" xlink:href="#DejaVuSans-115"/>
     <use x="1128.228516" xlink:href="#DejaVuSans-118"/>
    </g>
   </g>
   <g id="legend_1">
    <g id="patch_139">
     <path d="M 711.284375 74.518125 
L 770.6 74.518125 
Q 772.6 74.518125 772.6 72.518125 
L 772.6 58.84 
Q 772.6 56.84 770.6 56.84 
L 711.284375 56.84 
Q 709.284375 56.84 709.284375 58.84 
L 709.284375 72.518125 
Q 709.284375 74.518125 711.284375 74.518125 
z
" style="fill:#ffffff;opacity:0.8;stroke:#cccccc;stroke-linejoin:miter;"/>
    </g>
    <g id="line2d_19">
     <path d="M 713.284375 64.938438 
L 733.284375 64.938438 
" style="fill:none;stroke:#1f77b4;stroke-linecap:square;stroke-width:1.5;"/>
    </g>
    <g id="line2d_20"/>
    <g id="text_20">
     <!-- value -->
     <g transform="translate(741.284375 68.438438)scale(0.1 -0.1)">
      <use xlink:href="#DejaVuSans-118"/>
      <use x="59.179688" xlink:href="#DejaVuSans-97"/>
      <use x="120.458984" xlink:href="#DejaVuSans-108"/>
      <use x="148.242188" xlink:href="#DejaVuSans-117"/>
      <use x="211.621094" xlink:href="#DejaVuSans-101"/>
     </g>
    </g>
   </g>
  </g>
 </g>
 <defs>
  <clipPath id="p9517244969">
   <rect height="332.64" width="669.6" x="108" y="51.84"/>
  </clipPath>
 </defs>
</svg>
