<?xml version="1.0" encoding="utf-8" standalone="no"?>
<!DOCTYPE svg PUBLIC "-//W3C//DTD SVG 1.1//EN"
  "http://www.w3.org/Graphics/SVG/1.1/DTD/svg11.dtd">
<!-- Created with matplotlib (https://matplotlib.org/) -->
<svg height="432pt" version="1.1" viewBox="0 0 864 432" width="864pt" xmlns="http://www.w3.org/2000/svg" xmlns:xlink="http://www.w3.org/1999/xlink">
 <defs>
  <style type="text/css">
*{stroke-linecap:butt;stroke-linejoin:round;}
  </style>
 </defs>
 <g id="figure_1">
  <g id="patch_1">
   <path d="M 0 432 
L 864 432 
L 864 0 
L 0 0 
z
" style="fill:#ffffff;"/>
  </g>
  <g id="axes_1">
   <g id="patch_2">
    <path d="M 108 384.48 
L 777.6 384.48 
L 777.6 51.84 
L 108 51.84 
z
" style="fill:#ffffff;"/>
   </g>
   <g id="patch_3">
    <path clip-path="url(#p5fabdbae92)" d="M 138.436364 384.48 
L 138.436364 51.84 
L 319.605195 51.84 
L 319.605195 384.48 
z
" style="fill:#0000ff;opacity:0.05;"/>
   </g>
   <g id="patch_4">
    <path clip-path="url(#p5fabdbae92)" d="M 319.605195 384.48 
L 319.605195 51.84 
L 747.163636 51.84 
L 747.163636 384.48 
z
" style="fill:#ff0000;opacity:0.08;"/>
   </g>
   <g id="patch_5">
    <path clip-path="url(#p5fabdbae92)" d="M 138.436364 384.48 
L 138.436364 51.84 
L 142.05974 51.84 
L 142.05974 384.48 
z
" style="fill:#008000;opacity:0.04;"/>
   </g>
   <g id="patch_6">
    <path clip-path="url(#p5fabdbae92)" d="M 145.683117 384.48 
L 145.683117 51.84 
L 149.306494 51.84 
L 149.306494 384.48 
z
" style="fill:#008000;opacity:0.04;"/>
   </g>
   <g id="patch_7">
    <path clip-path="url(#p5fabdbae92)" d="M 330.475325 384.48 
L 330.475325 371.1744 
L 334.098701 371.1744 
L 334.098701 384.48 
z
" style="fill:#ff6600;"/>
   </g>
   <g id="patch_8">
    <path clip-path="url(#p5fabdbae92)" d="M 152.92987 384.48 
L 152.92987 51.84 
L 156.553247 51.84 
L 156.553247 384.48 
z
" style="fill:#008000;opacity:0.04;"/>
   </g>
   <g id="patch_9">
    <path clip-path="url(#p5fabdbae92)" d="M 160.176623 384.48 
L 160.176623 51.84 
L 163.8 51.84 
L 163.8 384.48 
z
" style="fill:#008000;opacity:0.04;"/>
   </g>
   <g id="patch_10">
    <path clip-path="url(#p5fabdbae92)" d="M 167.423377 384.48 
L 167.423377 51.84 
L 171.046753 51.84 
L 171.046753 384.48 
z
" style="fill:#008000;opacity:0.04;"/>
   </g>
   <g id="patch_11">
    <path clip-path="url(#p5fabdbae92)" d="M 167.423377 384.48 
L 167.423377 371.1744 
L 171.046753 371.1744 
L 171.046753 384.48 
z
" style="fill:#ffe500;"/>
   </g>
   <g id="patch_12">
    <path clip-path="url(#p5fabdbae92)" d="M 174.67013 384.48 
L 174.67013 51.84 
L 178.293506 51.84 
L 178.293506 384.48 
z
" style="fill:#008000;opacity:0.04;"/>
   </g>
   <g id="patch_13">
    <path clip-path="url(#p5fabdbae92)" d="M 181.916883 384.48 
L 181.916883 51.84 
L 185.54026 51.84 
L 185.54026 384.48 
z
" style="fill:#008000;opacity:0.04;"/>
   </g>
   <g id="patch_14">
    <path clip-path="url(#p5fabdbae92)" d="M 189.163636 384.48 
L 189.163636 51.84 
L 192.787013 51.84 
L 192.787013 384.48 
z
" style="fill:#008000;opacity:0.04;"/>
   </g>
   <g id="patch_15">
    <path clip-path="url(#p5fabdbae92)" d="M 196.41039 384.48 
L 196.41039 51.84 
L 200.033766 51.84 
L 200.033766 384.48 
z
" style="fill:#008000;opacity:0.04;"/>
   </g>
   <g id="patch_16">
    <path clip-path="url(#p5fabdbae92)" d="M 203.657143 384.48 
L 203.657143 51.84 
L 207.280519 51.84 
L 207.280519 384.48 
z
" style="fill:#008000;opacity:0.04;"/>
   </g>
   <g id="patch_17">
    <path clip-path="url(#p5fabdbae92)" d="M 384.825974 384.48 
L 384.825974 371.1744 
L 388.449351 371.1744 
L 388.449351 384.48 
z
" style="fill:#ff6600;"/>
   </g>
   <g id="patch_18">
    <path clip-path="url(#p5fabdbae92)" d="M 210.903896 384.48 
L 210.903896 51.84 
L 214.527273 51.84 
L 214.527273 384.48 
z
" style="fill:#008000;opacity:0.04;"/>
   </g>
   <g id="patch_19">
    <path clip-path="url(#p5fabdbae92)" d="M 214.527273 384.48 
L 214.527273 371.1744 
L 218.150649 371.1744 
L 218.150649 384.48 
z
" style="fill:#ffe500;"/>
   </g>
   <g id="patch_20">
    <path clip-path="url(#p5fabdbae92)" d="M 218.150649 384.48 
L 218.150649 51.84 
L 221.774026 51.84 
L 221.774026 384.48 
z
" style="fill:#008000;opacity:0.04;"/>
   </g>
   <g id="patch_21">
    <path clip-path="url(#p5fabdbae92)" d="M 225.397403 384.48 
L 225.397403 51.84 
L 229.020779 51.84 
L 229.020779 384.48 
z
" style="fill:#008000;opacity:0.04;"/>
   </g>
   <g id="patch_22">
    <path clip-path="url(#p5fabdbae92)" d="M 232.644156 384.48 
L 232.644156 51.84 
L 236.267532 51.84 
L 236.267532 384.48 
z
" style="fill:#008000;opacity:0.04;"/>
   </g>
   <g id="patch_23">
    <path clip-path="url(#p5fabdbae92)" d="M 239.890909 384.48 
L 239.890909 51.84 
L 243.514286 51.84 
L 243.514286 384.48 
z
" style="fill:#008000;opacity:0.04;"/>
   </g>
   <g id="patch_24">
    <path clip-path="url(#p5fabdbae92)" d="M 247.137662 384.48 
L 247.137662 51.84 
L 250.761039 51.84 
L 250.761039 384.48 
z
" style="fill:#008000;opacity:0.04;"/>
   </g>
   <g id="patch_25">
    <path clip-path="url(#p5fabdbae92)" d="M 254.384416 384.48 
L 254.384416 51.84 
L 258.007792 51.84 
L 258.007792 384.48 
z
" style="fill:#008000;opacity:0.04;"/>
   </g>
   <g id="patch_26">
    <path clip-path="url(#p5fabdbae92)" d="M 254.384416 384.48 
L 254.384416 371.1744 
L 258.007792 371.1744 
L 258.007792 384.48 
z
" style="fill:#ffe500;"/>
   </g>
   <g id="patch_27">
    <path clip-path="url(#p5fabdbae92)" d="M 261.631169 384.48 
L 261.631169 51.84 
L 265.254545 51.84 
L 265.254545 384.48 
z
" style="fill:#008000;opacity:0.04;"/>
   </g>
   <g id="patch_28">
    <path clip-path="url(#p5fabdbae92)" d="M 268.877922 384.48 
L 268.877922 51.84 
L 272.501299 51.84 
L 272.501299 384.48 
z
" style="fill:#008000;opacity:0.04;"/>
   </g>
   <g id="patch_29">
    <path clip-path="url(#p5fabdbae92)" d="M 276.124675 384.48 
L 276.124675 51.84 
L 279.748052 51.84 
L 279.748052 384.48 
z
" style="fill:#008000;opacity:0.04;"/>
   </g>
   <g id="patch_30">
    <path clip-path="url(#p5fabdbae92)" d="M 276.124675 384.48 
L 276.124675 371.1744 
L 279.748052 371.1744 
L 279.748052 384.48 
z
" style="fill:#ffe500;"/>
   </g>
   <g id="patch_31">
    <path clip-path="url(#p5fabdbae92)" d="M 283.371429 384.48 
L 283.371429 51.84 
L 286.994805 51.84 
L 286.994805 384.48 
z
" style="fill:#008000;opacity:0.04;"/>
   </g>
   <g id="patch_32">
    <path clip-path="url(#p5fabdbae92)" d="M 290.618182 384.48 
L 290.618182 51.84 
L 294.241558 51.84 
L 294.241558 384.48 
z
" style="fill:#008000;opacity:0.04;"/>
   </g>
   <g id="patch_33">
    <path clip-path="url(#p5fabdbae92)" d="M 297.864935 384.48 
L 297.864935 51.84 
L 301.488312 51.84 
L 301.488312 384.48 
z
" style="fill:#008000;opacity:0.04;"/>
   </g>
   <g id="patch_34">
    <path clip-path="url(#p5fabdbae92)" d="M 301.488312 384.48 
L 301.488312 371.1744 
L 305.111688 371.1744 
L 305.111688 384.48 
z
" style="fill:#ffe500;"/>
   </g>
   <g id="patch_35">
    <path clip-path="url(#p5fabdbae92)" d="M 305.111688 384.48 
L 305.111688 51.84 
L 308.735065 51.84 
L 308.735065 384.48 
z
" style="fill:#008000;opacity:0.04;"/>
   </g>
   <g id="patch_36">
    <path clip-path="url(#p5fabdbae92)" d="M 312.358442 384.48 
L 312.358442 51.84 
L 315.981818 51.84 
L 315.981818 384.48 
z
" style="fill:#008000;opacity:0.04;"/>
   </g>
   <g id="patch_37">
    <path clip-path="url(#p5fabdbae92)" d="M 319.605195 384.48 
L 319.605195 51.84 
L 323.228571 51.84 
L 323.228571 384.48 
z
" style="fill:#008000;opacity:0.04;"/>
   </g>
   <g id="patch_38">
    <path clip-path="url(#p5fabdbae92)" d="M 326.851948 384.48 
L 326.851948 51.84 
L 330.475325 51.84 
L 330.475325 384.48 
z
" style="fill:#008000;opacity:0.04;"/>
   </g>
   <g id="patch_39">
    <path clip-path="url(#p5fabdbae92)" d="M 330.475325 371.1744 
L 330.475325 51.84 
L 334.098701 51.84 
L 334.098701 371.1744 
z
" style="fill:#008000;opacity:0.5;"/>
   </g>
   <g id="patch_40">
    <path clip-path="url(#p5fabdbae92)" d="M 334.098701 384.48 
L 334.098701 51.84 
L 337.722078 51.84 
L 337.722078 384.48 
z
" style="fill:#008000;opacity:0.04;"/>
   </g>
   <g id="patch_41">
    <path clip-path="url(#p5fabdbae92)" d="M 341.345455 384.48 
L 341.345455 51.84 
L 344.968831 51.84 
L 344.968831 384.48 
z
" style="fill:#008000;opacity:0.04;"/>
   </g>
   <g id="patch_42">
    <path clip-path="url(#p5fabdbae92)" d="M 348.592208 384.48 
L 348.592208 51.84 
L 352.215584 51.84 
L 352.215584 384.48 
z
" style="fill:#008000;opacity:0.04;"/>
   </g>
   <g id="patch_43">
    <path clip-path="url(#p5fabdbae92)" d="M 355.838961 384.48 
L 355.838961 51.84 
L 359.462338 51.84 
L 359.462338 384.48 
z
" style="fill:#008000;opacity:0.04;"/>
   </g>
   <g id="patch_44">
    <path clip-path="url(#p5fabdbae92)" d="M 363.085714 384.48 
L 363.085714 51.84 
L 366.709091 51.84 
L 366.709091 384.48 
z
" style="fill:#008000;opacity:0.04;"/>
   </g>
   <g id="patch_45">
    <path clip-path="url(#p5fabdbae92)" d="M 370.332468 384.48 
L 370.332468 51.84 
L 373.955844 51.84 
L 373.955844 384.48 
z
" style="fill:#008000;opacity:0.04;"/>
   </g>
   <g id="patch_46">
    <path clip-path="url(#p5fabdbae92)" d="M 377.579221 384.48 
L 377.579221 51.84 
L 381.202597 51.84 
L 381.202597 384.48 
z
" style="fill:#008000;opacity:0.04;"/>
   </g>
   <g id="patch_47">
    <path clip-path="url(#p5fabdbae92)" d="M 381.202597 371.1744 
L 381.202597 357.8688 
L 384.825974 357.8688 
L 384.825974 371.1744 
z
" style="fill:#ff00ff;"/>
   </g>
   <g id="patch_48">
    <path clip-path="url(#p5fabdbae92)" d="M 384.825974 384.48 
L 384.825974 51.84 
L 388.449351 51.84 
L 388.449351 384.48 
z
" style="fill:#008000;opacity:0.04;"/>
   </g>
   <g id="patch_49">
    <path clip-path="url(#p5fabdbae92)" d="M 392.072727 384.48 
L 392.072727 51.84 
L 395.696104 51.84 
L 395.696104 384.48 
z
" style="fill:#008000;opacity:0.04;"/>
   </g>
   <g id="patch_50">
    <path clip-path="url(#p5fabdbae92)" d="M 399.319481 384.48 
L 399.319481 51.84 
L 402.942857 51.84 
L 402.942857 384.48 
z
" style="fill:#008000;opacity:0.04;"/>
   </g>
   <g id="patch_51">
    <path clip-path="url(#p5fabdbae92)" d="M 406.566234 384.48 
L 406.566234 51.84 
L 410.18961 51.84 
L 410.18961 384.48 
z
" style="fill:#008000;opacity:0.04;"/>
   </g>
   <g id="patch_52">
    <path clip-path="url(#p5fabdbae92)" d="M 413.812987 384.48 
L 413.812987 51.84 
L 417.436364 51.84 
L 417.436364 384.48 
z
" style="fill:#008000;opacity:0.04;"/>
   </g>
   <g id="patch_53">
    <path clip-path="url(#p5fabdbae92)" d="M 594.981818 384.48 
L 594.981818 371.1744 
L 598.605195 371.1744 
L 598.605195 384.48 
z
" style="fill:#ff6600;"/>
   </g>
   <g id="patch_54">
    <path clip-path="url(#p5fabdbae92)" d="M 421.05974 384.48 
L 421.05974 51.84 
L 424.683117 51.84 
L 424.683117 384.48 
z
" style="fill:#008000;opacity:0.04;"/>
   </g>
   <g id="patch_55">
    <path clip-path="url(#p5fabdbae92)" d="M 428.306494 384.48 
L 428.306494 51.84 
L 431.92987 51.84 
L 431.92987 384.48 
z
" style="fill:#008000;opacity:0.04;"/>
   </g>
   <g id="patch_56">
    <path clip-path="url(#p5fabdbae92)" d="M 435.553247 384.48 
L 435.553247 51.84 
L 439.176623 51.84 
L 439.176623 384.48 
z
" style="fill:#008000;opacity:0.04;"/>
   </g>
   <g id="patch_57">
    <path clip-path="url(#p5fabdbae92)" d="M 442.8 384.48 
L 442.8 51.84 
L 446.423377 51.84 
L 446.423377 384.48 
z
" style="fill:#008000;opacity:0.04;"/>
   </g>
   <g id="patch_58">
    <path clip-path="url(#p5fabdbae92)" d="M 450.046753 384.48 
L 450.046753 51.84 
L 453.67013 51.84 
L 453.67013 384.48 
z
" style="fill:#008000;opacity:0.04;"/>
   </g>
   <g id="patch_59">
    <path clip-path="url(#p5fabdbae92)" d="M 457.293506 384.48 
L 457.293506 51.84 
L 460.916883 51.84 
L 460.916883 384.48 
z
" style="fill:#008000;opacity:0.04;"/>
   </g>
   <g id="patch_60">
    <path clip-path="url(#p5fabdbae92)" d="M 464.54026 384.48 
L 464.54026 51.84 
L 468.163636 51.84 
L 468.163636 384.48 
z
" style="fill:#008000;opacity:0.04;"/>
   </g>
   <g id="patch_61">
    <path clip-path="url(#p5fabdbae92)" d="M 471.787013 384.48 
L 471.787013 51.84 
L 475.41039 51.84 
L 475.41039 384.48 
z
" style="fill:#008000;opacity:0.04;"/>
   </g>
   <g id="patch_62">
    <path clip-path="url(#p5fabdbae92)" d="M 479.033766 384.48 
L 479.033766 51.84 
L 482.657143 51.84 
L 482.657143 384.48 
z
" style="fill:#008000;opacity:0.04;"/>
   </g>
   <g id="patch_63">
    <path clip-path="url(#p5fabdbae92)" d="M 486.280519 384.48 
L 486.280519 51.84 
L 489.903896 51.84 
L 489.903896 384.48 
z
" style="fill:#008000;opacity:0.04;"/>
   </g>
   <g id="patch_64">
    <path clip-path="url(#p5fabdbae92)" d="M 493.527273 384.48 
L 493.527273 51.84 
L 497.150649 51.84 
L 497.150649 384.48 
z
" style="fill:#008000;opacity:0.04;"/>
   </g>
   <g id="patch_65">
    <path clip-path="url(#p5fabdbae92)" d="M 500.774026 384.48 
L 500.774026 51.84 
L 504.397403 51.84 
L 504.397403 384.48 
z
" style="fill:#008000;opacity:0.04;"/>
   </g>
   <g id="patch_66">
    <path clip-path="url(#p5fabdbae92)" d="M 508.020779 384.48 
L 508.020779 51.84 
L 511.644156 51.84 
L 511.644156 384.48 
z
" style="fill:#008000;opacity:0.04;"/>
   </g>
   <g id="patch_67">
    <path clip-path="url(#p5fabdbae92)" d="M 515.267532 384.48 
L 515.267532 51.84 
L 518.890909 51.84 
L 518.890909 384.48 
z
" style="fill:#008000;opacity:0.04;"/>
   </g>
   <g id="patch_68">
    <path clip-path="url(#p5fabdbae92)" d="M 522.514286 384.48 
L 522.514286 51.84 
L 526.137662 51.84 
L 526.137662 384.48 
z
" style="fill:#008000;opacity:0.04;"/>
   </g>
   <g id="patch_69">
    <path clip-path="url(#p5fabdbae92)" d="M 529.761039 384.48 
L 529.761039 51.84 
L 533.384416 51.84 
L 533.384416 384.48 
z
" style="fill:#008000;opacity:0.04;"/>
   </g>
   <g id="patch_70">
    <path clip-path="url(#p5fabdbae92)" d="M 537.007792 384.48 
L 537.007792 51.84 
L 540.631169 51.84 
L 540.631169 384.48 
z
" style="fill:#008000;opacity:0.04;"/>
   </g>
   <g id="patch_71">
    <path clip-path="url(#p5fabdbae92)" d="M 544.254545 384.48 
L 544.254545 51.84 
L 547.877922 51.84 
L 547.877922 384.48 
z
" style="fill:#008000;opacity:0.04;"/>
   </g>
   <g id="patch_72">
    <path clip-path="url(#p5fabdbae92)" d="M 551.501299 384.48 
L 551.501299 51.84 
L 555.124675 51.84 
L 555.124675 384.48 
z
" style="fill:#008000;opacity:0.04;"/>
   </g>
   <g id="patch_73">
    <path clip-path="url(#p5fabdbae92)" d="M 558.748052 384.48 
L 558.748052 51.84 
L 562.371429 51.84 
L 562.371429 384.48 
z
" style="fill:#008000;opacity:0.04;"/>
   </g>
   <g id="patch_74">
    <path clip-path="url(#p5fabdbae92)" d="M 565.994805 384.48 
L 565.994805 51.84 
L 569.618182 51.84 
L 569.618182 384.48 
z
" style="fill:#008000;opacity:0.04;"/>
   </g>
   <g id="patch_75">
    <path clip-path="url(#p5fabdbae92)" d="M 573.241558 384.48 
L 573.241558 51.84 
L 576.864935 51.84 
L 576.864935 384.48 
z
" style="fill:#008000;opacity:0.04;"/>
   </g>
   <g id="patch_76">
    <path clip-path="url(#p5fabdbae92)" d="M 580.488312 384.48 
L 580.488312 51.84 
L 584.111688 51.84 
L 584.111688 384.48 
z
" style="fill:#008000;opacity:0.04;"/>
   </g>
   <g id="patch_77">
    <path clip-path="url(#p5fabdbae92)" d="M 587.735065 384.48 
L 587.735065 51.84 
L 591.358442 51.84 
L 591.358442 384.48 
z
" style="fill:#008000;opacity:0.04;"/>
   </g>
   <g id="patch_78">
    <path clip-path="url(#p5fabdbae92)" d="M 594.981818 384.48 
L 594.981818 51.84 
L 598.605195 51.84 
L 598.605195 384.48 
z
" style="fill:#008000;opacity:0.04;"/>
   </g>
   <g id="patch_79">
    <path clip-path="url(#p5fabdbae92)" d="M 594.981818 371.1744 
L 594.981818 51.84 
L 598.605195 51.84 
L 598.605195 371.1744 
z
" style="fill:#008000;opacity:0.5;"/>
   </g>
   <g id="patch_80">
    <path clip-path="url(#p5fabdbae92)" d="M 602.228571 384.48 
L 602.228571 51.84 
L 605.851948 51.84 
L 605.851948 384.48 
z
" style="fill:#008000;opacity:0.04;"/>
   </g>
   <g id="patch_81">
    <path clip-path="url(#p5fabdbae92)" d="M 609.475325 384.48 
L 609.475325 51.84 
L 613.098701 51.84 
L 613.098701 384.48 
z
" style="fill:#008000;opacity:0.04;"/>
   </g>
   <g id="patch_82">
    <path clip-path="url(#p5fabdbae92)" d="M 616.722078 384.48 
L 616.722078 51.84 
L 620.345455 51.84 
L 620.345455 384.48 
z
" style="fill:#008000;opacity:0.04;"/>
   </g>
   <g id="patch_83">
    <path clip-path="url(#p5fabdbae92)" d="M 623.968831 384.48 
L 623.968831 51.84 
L 627.592208 51.84 
L 627.592208 384.48 
z
" style="fill:#008000;opacity:0.04;"/>
   </g>
   <g id="patch_84">
    <path clip-path="url(#p5fabdbae92)" d="M 631.215584 384.48 
L 631.215584 51.84 
L 634.838961 51.84 
L 634.838961 384.48 
z
" style="fill:#008000;opacity:0.04;"/>
   </g>
   <g id="patch_85">
    <path clip-path="url(#p5fabdbae92)" d="M 638.462338 384.48 
L 638.462338 51.84 
L 642.085714 51.84 
L 642.085714 384.48 
z
" style="fill:#008000;opacity:0.04;"/>
   </g>
   <g id="patch_86">
    <path clip-path="url(#p5fabdbae92)" d="M 645.709091 384.48 
L 645.709091 51.84 
L 649.332468 51.84 
L 649.332468 384.48 
z
" style="fill:#008000;opacity:0.04;"/>
   </g>
   <g id="patch_87">
    <path clip-path="url(#p5fabdbae92)" d="M 652.955844 384.48 
L 652.955844 51.84 
L 656.579221 51.84 
L 656.579221 384.48 
z
" style="fill:#008000;opacity:0.04;"/>
   </g>
   <g id="patch_88">
    <path clip-path="url(#p5fabdbae92)" d="M 660.202597 384.48 
L 660.202597 51.84 
L 663.825974 51.84 
L 663.825974 384.48 
z
" style="fill:#008000;opacity:0.04;"/>
   </g>
   <g id="patch_89">
    <path clip-path="url(#p5fabdbae92)" d="M 667.449351 384.48 
L 667.449351 51.84 
L 671.072727 51.84 
L 671.072727 384.48 
z
" style="fill:#008000;opacity:0.04;"/>
   </g>
   <g id="patch_90">
    <path clip-path="url(#p5fabdbae92)" d="M 674.696104 384.48 
L 674.696104 51.84 
L 678.319481 51.84 
L 678.319481 384.48 
z
" style="fill:#008000;opacity:0.04;"/>
   </g>
   <g id="patch_91">
    <path clip-path="url(#p5fabdbae92)" d="M 681.942857 384.48 
L 681.942857 51.84 
L 685.566234 51.84 
L 685.566234 384.48 
z
" style="fill:#008000;opacity:0.04;"/>
   </g>
   <g id="patch_92">
    <path clip-path="url(#p5fabdbae92)" d="M 689.18961 384.48 
L 689.18961 51.84 
L 692.812987 51.84 
L 692.812987 384.48 
z
" style="fill:#008000;opacity:0.04;"/>
   </g>
   <g id="patch_93">
    <path clip-path="url(#p5fabdbae92)" d="M 696.436364 384.48 
L 696.436364 51.84 
L 700.05974 51.84 
L 700.05974 384.48 
z
" style="fill:#008000;opacity:0.04;"/>
   </g>
   <g id="patch_94">
    <path clip-path="url(#p5fabdbae92)" d="M 703.683117 384.48 
L 703.683117 51.84 
L 707.306494 51.84 
L 707.306494 384.48 
z
" style="fill:#008000;opacity:0.04;"/>
   </g>
   <g id="patch_95">
    <path clip-path="url(#p5fabdbae92)" d="M 710.92987 384.48 
L 710.92987 51.84 
L 714.553247 51.84 
L 714.553247 384.48 
z
" style="fill:#008000;opacity:0.04;"/>
   </g>
   <g id="patch_96">
    <path clip-path="url(#p5fabdbae92)" d="M 718.176623 384.48 
L 718.176623 51.84 
L 721.8 51.84 
L 721.8 384.48 
z
" style="fill:#008000;opacity:0.04;"/>
   </g>
   <g id="patch_97">
    <path clip-path="url(#p5fabdbae92)" d="M 725.423377 384.48 
L 725.423377 51.84 
L 729.046753 51.84 
L 729.046753 384.48 
z
" style="fill:#008000;opacity:0.04;"/>
   </g>
   <g id="patch_98">
    <path clip-path="url(#p5fabdbae92)" d="M 732.67013 384.48 
L 732.67013 51.84 
L 736.293506 51.84 
L 736.293506 384.48 
z
" style="fill:#008000;opacity:0.04;"/>
   </g>
   <g id="patch_99">
    <path clip-path="url(#p5fabdbae92)" d="M 739.916883 384.48 
L 739.916883 51.84 
L 743.54026 51.84 
L 743.54026 384.48 
z
" style="fill:#008000;opacity:0.04;"/>
   </g>
   <g id="matplotlib.axis_1">
    <g id="xtick_1">
     <g id="line2d_1">
      <defs>
       <path d="M 0 0 
L 0 3.5 
" id="m88c99cb42f" style="stroke:#000000;stroke-width:0.8;"/>
      </defs>
      <g>
       <use style="stroke:#000000;stroke-width:0.8;" x="138.436364" xlink:href="#m88c99cb42f" y="384.48"/>
      </g>
     </g>
     <g id="text_1">
      <!-- 0 -->
      <defs>
       <path d="M 31.78125 66.40625 
Q 24.171875 66.40625 20.328125 58.90625 
Q 16.5 51.421875 16.5 36.375 
Q 16.5 21.390625 20.328125 13.890625 
Q 24.171875 6.390625 31.78125 6.390625 
Q 39.453125 6.390625 43.28125 13.890625 
Q 47.125 21.390625 47.125 36.375 
Q 47.125 51.421875 43.28125 58.90625 
Q 39.453125 66.40625 31.78125 66.40625 
z
M 31.78125 74.21875 
Q 44.046875 74.21875 50.515625 64.515625 
Q 56.984375 54.828125 56.984375 36.375 
Q 56.984375 17.96875 50.515625 8.265625 
Q 44.046875 -1.421875 31.78125 -1.421875 
Q 19.53125 -1.421875 13.0625 8.265625 
Q 6.59375 17.96875 6.59375 36.375 
Q 6.59375 54.828125 13.0625 64.515625 
Q 19.53125 74.21875 31.78125 74.21875 
z
" id="DejaVuSans-48"/>
      </defs>
      <g transform="translate(135.255114 399.078438)scale(0.1 -0.1)">
       <use xlink:href="#DejaVuSans-48"/>
      </g>
     </g>
    </g>
    <g id="xtick_2">
     <g id="line2d_2">
      <g>
       <use style="stroke:#000000;stroke-width:0.8;" x="229.020779" xlink:href="#m88c99cb42f" y="384.48"/>
      </g>
     </g>
     <g id="text_2">
      <!-- 250 -->
      <defs>
       <path d="M 19.1875 8.296875 
L 53.609375 8.296875 
L 53.609375 0 
L 7.328125 0 
L 7.328125 8.296875 
Q 12.9375 14.109375 22.625 23.890625 
Q 32.328125 33.6875 34.8125 36.53125 
Q 39.546875 41.84375 41.421875 45.53125 
Q 43.3125 49.21875 43.3125 52.78125 
Q 43.3125 58.59375 39.234375 62.25 
Q 35.15625 65.921875 28.609375 65.921875 
Q 23.96875 65.921875 18.8125 64.3125 
Q 13.671875 62.703125 7.8125 59.421875 
L 7.8125 69.390625 
Q 13.765625 71.78125 18.9375 73 
Q 24.125 74.21875 28.421875 74.21875 
Q 39.75 74.21875 46.484375 68.546875 
Q 53.21875 62.890625 53.21875 53.421875 
Q 53.21875 48.921875 51.53125 44.890625 
Q 49.859375 40.875 45.40625 35.40625 
Q 44.1875 33.984375 37.640625 27.21875 
Q 31.109375 20.453125 19.1875 8.296875 
z
" id="DejaVuSans-50"/>
       <path d="M 10.796875 72.90625 
L 49.515625 72.90625 
L 49.515625 64.59375 
L 19.828125 64.59375 
L 19.828125 46.734375 
Q 21.96875 47.46875 24.109375 47.828125 
Q 26.265625 48.1875 28.421875 48.1875 
Q 40.625 48.1875 47.75 41.5 
Q 54.890625 34.8125 54.890625 23.390625 
Q 54.890625 11.625 47.5625 5.09375 
Q 40.234375 -1.421875 26.90625 -1.421875 
Q 22.3125 -1.421875 17.546875 -0.640625 
Q 12.796875 0.140625 7.71875 1.703125 
L 7.71875 11.625 
Q 12.109375 9.234375 16.796875 8.0625 
Q 21.484375 6.890625 26.703125 6.890625 
Q 35.15625 6.890625 40.078125 11.328125 
Q 45.015625 15.765625 45.015625 23.390625 
Q 45.015625 31 40.078125 35.4375 
Q 35.15625 39.890625 26.703125 39.890625 
Q 22.75 39.890625 18.8125 39.015625 
Q 14.890625 38.140625 10.796875 36.28125 
z
" id="DejaVuSans-53"/>
      </defs>
      <g transform="translate(219.477029 399.078438)scale(0.1 -0.1)">
       <use xlink:href="#DejaVuSans-50"/>
       <use x="63.623047" xlink:href="#DejaVuSans-53"/>
       <use x="127.246094" xlink:href="#DejaVuSans-48"/>
      </g>
     </g>
    </g>
    <g id="xtick_3">
     <g id="line2d_3">
      <g>
       <use style="stroke:#000000;stroke-width:0.8;" x="319.605195" xlink:href="#m88c99cb42f" y="384.48"/>
      </g>
     </g>
     <g id="text_3">
      <!-- 500 -->
      <g transform="translate(310.061445 399.078438)scale(0.1 -0.1)">
       <use xlink:href="#DejaVuSans-53"/>
       <use x="63.623047" xlink:href="#DejaVuSans-48"/>
       <use x="127.246094" xlink:href="#DejaVuSans-48"/>
      </g>
     </g>
    </g>
    <g id="xtick_4">
     <g id="line2d_4">
      <g>
       <use style="stroke:#000000;stroke-width:0.8;" x="410.18961" xlink:href="#m88c99cb42f" y="384.48"/>
      </g>
     </g>
     <g id="text_4">
      <!-- 750 -->
      <defs>
       <path d="M 8.203125 72.90625 
L 55.078125 72.90625 
L 55.078125 68.703125 
L 28.609375 0 
L 18.3125 0 
L 43.21875 64.59375 
L 8.203125 64.59375 
z
" id="DejaVuSans-55"/>
      </defs>
      <g transform="translate(400.64586 399.078438)scale(0.1 -0.1)">
       <use xlink:href="#DejaVuSans-55"/>
       <use x="63.623047" xlink:href="#DejaVuSans-53"/>
       <use x="127.246094" xlink:href="#DejaVuSans-48"/>
      </g>
     </g>
    </g>
    <g id="xtick_5">
     <g id="line2d_5">
      <g>
       <use style="stroke:#000000;stroke-width:0.8;" x="500.774026" xlink:href="#m88c99cb42f" y="384.48"/>
      </g>
     </g>
     <g id="text_5">
      <!-- 1000 -->
      <defs>
       <path d="M 12.40625 8.296875 
L 28.515625 8.296875 
L 28.515625 63.921875 
L 10.984375 60.40625 
L 10.984375 69.390625 
L 28.421875 72.90625 
L 38.28125 72.90625 
L 38.28125 8.296875 
L 54.390625 8.296875 
L 54.390625 0 
L 12.40625 0 
z
" id="DejaVuSans-49"/>
      </defs>
      <g transform="translate(488.049026 399.078438)scale(0.1 -0.1)">
       <use xlink:href="#DejaVuSans-49"/>
       <use x="63.623047" xlink:href="#DejaVuSans-48"/>
       <use x="127.246094" xlink:href="#DejaVuSans-48"/>
       <use x="190.869141" xlink:href="#DejaVuSans-48"/>
      </g>
     </g>
    </g>
    <g id="xtick_6">
     <g id="line2d_6">
      <g>
       <use style="stroke:#000000;stroke-width:0.8;" x="591.358442" xlink:href="#m88c99cb42f" y="384.48"/>
      </g>
     </g>
     <g id="text_6">
      <!-- 1250 -->
      <g transform="translate(578.633442 399.078438)scale(0.1 -0.1)">
       <use xlink:href="#DejaVuSans-49"/>
       <use x="63.623047" xlink:href="#DejaVuSans-50"/>
       <use x="127.246094" xlink:href="#DejaVuSans-53"/>
       <use x="190.869141" xlink:href="#DejaVuSans-48"/>
      </g>
     </g>
    </g>
    <g id="xtick_7">
     <g id="line2d_7">
      <g>
       <use style="stroke:#000000;stroke-width:0.8;" x="681.942857" xlink:href="#m88c99cb42f" y="384.48"/>
      </g>
     </g>
     <g id="text_7">
      <!-- 1500 -->
      <g transform="translate(669.217857 399.078438)scale(0.1 -0.1)">
       <use xlink:href="#DejaVuSans-49"/>
       <use x="63.623047" xlink:href="#DejaVuSans-53"/>
       <use x="127.246094" xlink:href="#DejaVuSans-48"/>
       <use x="190.869141" xlink:href="#DejaVuSans-48"/>
      </g>
     </g>
    </g>
    <g id="xtick_8">
     <g id="line2d_8">
      <g>
       <use style="stroke:#000000;stroke-width:0.8;" x="772.527273" xlink:href="#m88c99cb42f" y="384.48"/>
      </g>
     </g>
     <g id="text_8">
      <!-- 1750 -->
      <g transform="translate(759.802273 399.078438)scale(0.1 -0.1)">
       <use xlink:href="#DejaVuSans-49"/>
       <use x="63.623047" xlink:href="#DejaVuSans-55"/>
       <use x="127.246094" xlink:href="#DejaVuSans-53"/>
       <use x="190.869141" xlink:href="#DejaVuSans-48"/>
      </g>
     </g>
    </g>
    <g id="text_9">
     <!-- Timestamp -->
     <defs>
      <path d="M -0.296875 72.90625 
L 61.375 72.90625 
L 61.375 64.59375 
L 35.5 64.59375 
L 35.5 0 
L 25.59375 0 
L 25.59375 64.59375 
L -0.296875 64.59375 
z
" id="DejaVuSans-84"/>
      <path d="M 9.421875 54.6875 
L 18.40625 54.6875 
L 18.40625 0 
L 9.421875 0 
z
M 9.421875 75.984375 
L 18.40625 75.984375 
L 18.40625 64.59375 
L 9.421875 64.59375 
z
" id="DejaVuSans-105"/>
      <path d="M 52 44.1875 
Q 55.375 50.25 60.0625 53.125 
Q 64.75 56 71.09375 56 
Q 79.640625 56 84.28125 50.015625 
Q 88.921875 44.046875 88.921875 33.015625 
L 88.921875 0 
L 79.890625 0 
L 79.890625 32.71875 
Q 79.890625 40.578125 77.09375 44.375 
Q 74.3125 48.1875 68.609375 48.1875 
Q 61.625 48.1875 57.5625 43.546875 
Q 53.515625 38.921875 53.515625 30.90625 
L 53.515625 0 
L 44.484375 0 
L 44.484375 32.71875 
Q 44.484375 40.625 41.703125 44.40625 
Q 38.921875 48.1875 33.109375 48.1875 
Q 26.21875 48.1875 22.15625 43.53125 
Q 18.109375 38.875 18.109375 30.90625 
L 18.109375 0 
L 9.078125 0 
L 9.078125 54.6875 
L 18.109375 54.6875 
L 18.109375 46.1875 
Q 21.1875 51.21875 25.484375 53.609375 
Q 29.78125 56 35.6875 56 
Q 41.65625 56 45.828125 52.96875 
Q 50 49.953125 52 44.1875 
z
" id="DejaVuSans-109"/>
      <path d="M 56.203125 29.59375 
L 56.203125 25.203125 
L 14.890625 25.203125 
Q 15.484375 15.921875 20.484375 11.0625 
Q 25.484375 6.203125 34.421875 6.203125 
Q 39.59375 6.203125 44.453125 7.46875 
Q 49.3125 8.734375 54.109375 11.28125 
L 54.109375 2.78125 
Q 49.265625 0.734375 44.1875 -0.34375 
Q 39.109375 -1.421875 33.890625 -1.421875 
Q 20.796875 -1.421875 13.15625 6.1875 
Q 5.515625 13.8125 5.515625 26.8125 
Q 5.515625 40.234375 12.765625 48.109375 
Q 20.015625 56 32.328125 56 
Q 43.359375 56 49.78125 48.890625 
Q 56.203125 41.796875 56.203125 29.59375 
z
M 47.21875 32.234375 
Q 47.125 39.59375 43.09375 43.984375 
Q 39.0625 48.390625 32.421875 48.390625 
Q 24.90625 48.390625 20.390625 44.140625 
Q 15.875 39.890625 15.1875 32.171875 
z
" id="DejaVuSans-101"/>
      <path d="M 44.28125 53.078125 
L 44.28125 44.578125 
Q 40.484375 46.53125 36.375 47.5 
Q 32.28125 48.484375 27.875 48.484375 
Q 21.1875 48.484375 17.84375 46.4375 
Q 14.5 44.390625 14.5 40.28125 
Q 14.5 37.15625 16.890625 35.375 
Q 19.28125 33.59375 26.515625 31.984375 
L 29.59375 31.296875 
Q 39.15625 29.25 43.1875 25.515625 
Q 47.21875 21.78125 47.21875 15.09375 
Q 47.21875 7.46875 41.1875 3.015625 
Q 35.15625 -1.421875 24.609375 -1.421875 
Q 20.21875 -1.421875 15.453125 -0.5625 
Q 10.6875 0.296875 5.421875 2 
L 5.421875 11.28125 
Q 10.40625 8.6875 15.234375 7.390625 
Q 20.0625 6.109375 24.8125 6.109375 
Q 31.15625 6.109375 34.5625 8.28125 
Q 37.984375 10.453125 37.984375 14.40625 
Q 37.984375 18.0625 35.515625 20.015625 
Q 33.0625 21.96875 24.703125 23.78125 
L 21.578125 24.515625 
Q 13.234375 26.265625 9.515625 29.90625 
Q 5.8125 33.546875 5.8125 39.890625 
Q 5.8125 47.609375 11.28125 51.796875 
Q 16.75 56 26.8125 56 
Q 31.78125 56 36.171875 55.265625 
Q 40.578125 54.546875 44.28125 53.078125 
z
" id="DejaVuSans-115"/>
      <path d="M 18.3125 70.21875 
L 18.3125 54.6875 
L 36.8125 54.6875 
L 36.8125 47.703125 
L 18.3125 47.703125 
L 18.3125 18.015625 
Q 18.3125 11.328125 20.140625 9.421875 
Q 21.96875 7.515625 27.59375 7.515625 
L 36.8125 7.515625 
L 36.8125 0 
L 27.59375 0 
Q 17.1875 0 13.234375 3.875 
Q 9.28125 7.765625 9.28125 18.015625 
L 9.28125 47.703125 
L 2.6875 47.703125 
L 2.6875 54.6875 
L 9.28125 54.6875 
L 9.28125 70.21875 
z
" id="DejaVuSans-116"/>
      <path d="M 34.28125 27.484375 
Q 23.390625 27.484375 19.1875 25 
Q 14.984375 22.515625 14.984375 16.5 
Q 14.984375 11.71875 18.140625 8.90625 
Q 21.296875 6.109375 26.703125 6.109375 
Q 34.1875 6.109375 38.703125 11.40625 
Q 43.21875 16.703125 43.21875 25.484375 
L 43.21875 27.484375 
z
M 52.203125 31.203125 
L 52.203125 0 
L 43.21875 0 
L 43.21875 8.296875 
Q 40.140625 3.328125 35.546875 0.953125 
Q 30.953125 -1.421875 24.3125 -1.421875 
Q 15.921875 -1.421875 10.953125 3.296875 
Q 6 8.015625 6 15.921875 
Q 6 25.140625 12.171875 29.828125 
Q 18.359375 34.515625 30.609375 34.515625 
L 43.21875 34.515625 
L 43.21875 35.40625 
Q 43.21875 41.609375 39.140625 45 
Q 35.0625 48.390625 27.6875 48.390625 
Q 23 48.390625 18.546875 47.265625 
Q 14.109375 46.140625 10.015625 43.890625 
L 10.015625 52.203125 
Q 14.9375 54.109375 19.578125 55.046875 
Q 24.21875 56 28.609375 56 
Q 40.484375 56 46.34375 49.84375 
Q 52.203125 43.703125 52.203125 31.203125 
z
" id="DejaVuSans-97"/>
      <path d="M 18.109375 8.203125 
L 18.109375 -20.796875 
L 9.078125 -20.796875 
L 9.078125 54.6875 
L 18.109375 54.6875 
L 18.109375 46.390625 
Q 20.953125 51.265625 25.265625 53.625 
Q 29.59375 56 35.59375 56 
Q 45.5625 56 51.78125 48.09375 
Q 58.015625 40.1875 58.015625 27.296875 
Q 58.015625 14.40625 51.78125 6.484375 
Q 45.5625 -1.421875 35.59375 -1.421875 
Q 29.59375 -1.421875 25.265625 0.953125 
Q 20.953125 3.328125 18.109375 8.203125 
z
M 48.6875 27.296875 
Q 48.6875 37.203125 44.609375 42.84375 
Q 40.53125 48.484375 33.40625 48.484375 
Q 26.265625 48.484375 22.1875 42.84375 
Q 18.109375 37.203125 18.109375 27.296875 
Q 18.109375 17.390625 22.1875 11.75 
Q 26.265625 6.109375 33.40625 6.109375 
Q 40.53125 6.109375 44.609375 11.75 
Q 48.6875 17.390625 48.6875 27.296875 
z
" id="DejaVuSans-112"/>
     </defs>
     <g transform="translate(414.739062 412.756563)scale(0.1 -0.1)">
      <use xlink:href="#DejaVuSans-84"/>
      <use x="61.037109" xlink:href="#DejaVuSans-105"/>
      <use x="88.820312" xlink:href="#DejaVuSans-109"/>
      <use x="186.232422" xlink:href="#DejaVuSans-101"/>
      <use x="247.755859" xlink:href="#DejaVuSans-115"/>
      <use x="299.855469" xlink:href="#DejaVuSans-116"/>
      <use x="339.064453" xlink:href="#DejaVuSans-97"/>
      <use x="400.34375" xlink:href="#DejaVuSans-109"/>
      <use x="497.755859" xlink:href="#DejaVuSans-112"/>
     </g>
    </g>
   </g>
   <g id="matplotlib.axis_2">
    <g id="ytick_1">
     <g id="line2d_9">
      <defs>
       <path d="M 0 0 
L -3.5 0 
" id="meaa7f0c9ca" style="stroke:#000000;stroke-width:0.8;"/>
      </defs>
      <g>
       <use style="stroke:#000000;stroke-width:0.8;" x="108" xlink:href="#meaa7f0c9ca" y="368.224022"/>
      </g>
     </g>
     <g id="text_10">
      <!-- −2500 -->
      <defs>
       <path d="M 10.59375 35.5 
L 73.1875 35.5 
L 73.1875 27.203125 
L 10.59375 27.203125 
z
" id="DejaVuSans-8722"/>
      </defs>
      <g transform="translate(67.170312 372.023241)scale(0.1 -0.1)">
       <use xlink:href="#DejaVuSans-8722"/>
       <use x="83.789062" xlink:href="#DejaVuSans-50"/>
       <use x="147.412109" xlink:href="#DejaVuSans-53"/>
       <use x="211.035156" xlink:href="#DejaVuSans-48"/>
       <use x="274.658203" xlink:href="#DejaVuSans-48"/>
      </g>
     </g>
    </g>
    <g id="ytick_2">
     <g id="line2d_10">
      <g>
       <use style="stroke:#000000;stroke-width:0.8;" x="108" xlink:href="#meaa7f0c9ca" y="329.349819"/>
      </g>
     </g>
     <g id="text_11">
      <!-- −2000 -->
      <g transform="translate(67.170312 333.149037)scale(0.1 -0.1)">
       <use xlink:href="#DejaVuSans-8722"/>
       <use x="83.789062" xlink:href="#DejaVuSans-50"/>
       <use x="147.412109" xlink:href="#DejaVuSans-48"/>
       <use x="211.035156" xlink:href="#DejaVuSans-48"/>
       <use x="274.658203" xlink:href="#DejaVuSans-48"/>
      </g>
     </g>
    </g>
    <g id="ytick_3">
     <g id="line2d_11">
      <g>
       <use style="stroke:#000000;stroke-width:0.8;" x="108" xlink:href="#meaa7f0c9ca" y="290.475616"/>
      </g>
     </g>
     <g id="text_12">
      <!-- −1500 -->
      <g transform="translate(67.170312 294.274834)scale(0.1 -0.1)">
       <use xlink:href="#DejaVuSans-8722"/>
       <use x="83.789062" xlink:href="#DejaVuSans-49"/>
       <use x="147.412109" xlink:href="#DejaVuSans-53"/>
       <use x="211.035156" xlink:href="#DejaVuSans-48"/>
       <use x="274.658203" xlink:href="#DejaVuSans-48"/>
      </g>
     </g>
    </g>
    <g id="ytick_4">
     <g id="line2d_12">
      <g>
       <use style="stroke:#000000;stroke-width:0.8;" x="108" xlink:href="#meaa7f0c9ca" y="251.601412"/>
      </g>
     </g>
     <g id="text_13">
      <!-- −1000 -->
      <g transform="translate(67.170312 255.400631)scale(0.1 -0.1)">
       <use xlink:href="#DejaVuSans-8722"/>
       <use x="83.789062" xlink:href="#DejaVuSans-49"/>
       <use x="147.412109" xlink:href="#DejaVuSans-48"/>
       <use x="211.035156" xlink:href="#DejaVuSans-48"/>
       <use x="274.658203" xlink:href="#DejaVuSans-48"/>
      </g>
     </g>
    </g>
    <g id="ytick_5">
     <g id="line2d_13">
      <g>
       <use style="stroke:#000000;stroke-width:0.8;" x="108" xlink:href="#meaa7f0c9ca" y="212.727209"/>
      </g>
     </g>
     <g id="text_14">
      <!-- −500 -->
      <g transform="translate(73.532813 216.526428)scale(0.1 -0.1)">
       <use xlink:href="#DejaVuSans-8722"/>
       <use x="83.789062" xlink:href="#DejaVuSans-53"/>
       <use x="147.412109" xlink:href="#DejaVuSans-48"/>
       <use x="211.035156" xlink:href="#DejaVuSans-48"/>
      </g>
     </g>
    </g>
    <g id="ytick_6">
     <g id="line2d_14">
      <g>
       <use style="stroke:#000000;stroke-width:0.8;" x="108" xlink:href="#meaa7f0c9ca" y="173.853006"/>
      </g>
     </g>
     <g id="text_15">
      <!-- 0 -->
      <g transform="translate(94.6375 177.652225)scale(0.1 -0.1)">
       <use xlink:href="#DejaVuSans-48"/>
      </g>
     </g>
    </g>
    <g id="ytick_7">
     <g id="line2d_15">
      <g>
       <use style="stroke:#000000;stroke-width:0.8;" x="108" xlink:href="#meaa7f0c9ca" y="134.978803"/>
      </g>
     </g>
     <g id="text_16">
      <!-- 500 -->
      <g transform="translate(81.9125 138.778021)scale(0.1 -0.1)">
       <use xlink:href="#DejaVuSans-53"/>
       <use x="63.623047" xlink:href="#DejaVuSans-48"/>
       <use x="127.246094" xlink:href="#DejaVuSans-48"/>
      </g>
     </g>
    </g>
    <g id="ytick_8">
     <g id="line2d_16">
      <g>
       <use style="stroke:#000000;stroke-width:0.8;" x="108" xlink:href="#meaa7f0c9ca" y="96.104599"/>
      </g>
     </g>
     <g id="text_17">
      <!-- 1000 -->
      <g transform="translate(75.55 99.903818)scale(0.1 -0.1)">
       <use xlink:href="#DejaVuSans-49"/>
       <use x="63.623047" xlink:href="#DejaVuSans-48"/>
       <use x="127.246094" xlink:href="#DejaVuSans-48"/>
       <use x="190.869141" xlink:href="#DejaVuSans-48"/>
      </g>
     </g>
    </g>
    <g id="ytick_9">
     <g id="line2d_17">
      <g>
       <use style="stroke:#000000;stroke-width:0.8;" x="108" xlink:href="#meaa7f0c9ca" y="57.230396"/>
      </g>
     </g>
     <g id="text_18">
      <!-- 1500 -->
      <g transform="translate(75.55 61.029615)scale(0.1 -0.1)">
       <use xlink:href="#DejaVuSans-49"/>
       <use x="63.623047" xlink:href="#DejaVuSans-53"/>
       <use x="127.246094" xlink:href="#DejaVuSans-48"/>
       <use x="190.869141" xlink:href="#DejaVuSans-48"/>
      </g>
     </g>
    </g>
    <g id="text_19">
     <!-- Value -->
     <defs>
      <path d="M 28.609375 0 
L 0.78125 72.90625 
L 11.078125 72.90625 
L 34.1875 11.53125 
L 57.328125 72.90625 
L 67.578125 72.90625 
L 39.796875 0 
z
" id="DejaVuSans-86"/>
      <path d="M 9.421875 75.984375 
L 18.40625 75.984375 
L 18.40625 0 
L 9.421875 0 
z
" id="DejaVuSans-108"/>
      <path d="M 8.5 21.578125 
L 8.5 54.6875 
L 17.484375 54.6875 
L 17.484375 21.921875 
Q 17.484375 14.15625 20.5 10.265625 
Q 23.53125 6.390625 29.59375 6.390625 
Q 36.859375 6.390625 41.078125 11.03125 
Q 45.3125 15.671875 45.3125 23.6875 
L 45.3125 54.6875 
L 54.296875 54.6875 
L 54.296875 0 
L 45.3125 0 
L 45.3125 8.40625 
Q 42.046875 3.421875 37.71875 1 
Q 33.40625 -1.421875 27.6875 -1.421875 
Q 18.265625 -1.421875 13.375 4.4375 
Q 8.5 10.296875 8.5 21.578125 
z
M 31.109375 56 
z
" id="DejaVuSans-117"/>
     </defs>
     <g transform="translate(61.090625 232.273281)rotate(-90)scale(0.1 -0.1)">
      <use xlink:href="#DejaVuSans-86"/>
      <use x="68.298828" xlink:href="#DejaVuSans-97"/>
      <use x="129.578125" xlink:href="#DejaVuSans-108"/>
      <use x="157.361328" xlink:href="#DejaVuSans-117"/>
      <use x="220.740234" xlink:href="#DejaVuSans-101"/>
     </g>
    </g>
   </g>
   <g id="line2d_18">
    <path clip-path="url(#p5fabdbae92)" d="M 138.436364 173.248323 
L 139.161039 115.763896 
L 139.523377 101.297127 
L 139.885714 100.086844 
L 140.248052 113.838947 
L 141.335065 181.369116 
L 141.697403 190.816944 
L 142.422078 184.871326 
L 142.784416 166.685803 
L 143.146753 162.457004 
L 143.509091 147.799191 
L 143.871429 144.537548 
L 144.596104 177.549697 
L 145.320779 221.846656 
L 145.683117 233.114359 
L 146.045455 236.31144 
L 146.407792 221.362574 
L 147.494805 132.950114 
L 148.219481 88.079786 
L 148.581818 96.015352 
L 149.306494 125.676316 
L 150.031169 170.440383 
L 150.393506 183.985671 
L 150.755844 180.559062 
L 151.118182 175.577028 
L 151.480519 152.365695 
L 151.842857 148.052029 
L 152.205195 137.575211 
L 152.567532 141.614756 
L 152.92987 152.946236 
L 153.292208 169.648321 
L 153.654545 200.643251 
L 154.016883 221.101057 
L 154.379221 229.715116 
L 154.741558 229.970131 
L 155.103896 218.883126 
L 155.466234 196.958724 
L 156.553247 98.023644 
L 157.277922 94.445264 
L 157.64026 103.876159 
L 158.002597 135.986678 
L 159.08961 185.357285 
L 159.814286 177.140726 
L 160.176623 156.577441 
L 160.538961 149.622439 
L 160.901299 145.063466 
L 161.263636 144.49264 
L 161.625974 163.15594 
L 161.988312 174.670798 
L 162.712987 226.465882 
L 163.075325 233.822817 
L 163.437662 237.057147 
L 164.162338 196.367348 
L 165.249351 111.76159 
L 165.611688 97.141522 
L 165.974026 92.463407 
L 167.061039 166.84337 
L 167.423377 186.450692 
L 168.148052 200.414184 
L 168.51039 190.301221 
L 169.235065 163.742862 
L 169.597403 154.55913 
L 169.95974 160.082656 
L 170.322078 163.465462 
L 170.684416 181.870445 
L 171.046753 217.166581 
L 171.409091 227.22509 
L 171.771429 243.712092 
L 172.133766 251.458529 
L 172.496104 238.135288 
L 172.858442 217.584803 
L 173.220779 171.061351 
L 173.945455 123.328089 
L 174.307792 112.96696 
L 174.67013 115.716152 
L 175.394805 143.947018 
L 176.119481 191.920397 
L 176.481818 202.793123 
L 176.844156 206.469265 
L 177.206494 200.949631 
L 177.568831 181.580434 
L 177.931169 178.060848 
L 178.293506 156.701025 
L 178.655844 167.517513 
L 179.018182 173.035595 
L 179.742857 223.831241 
L 180.467532 263.877158 
L 180.82987 256.51388 
L 181.192208 251.93035 
L 181.554545 223.251423 
L 182.279221 152.002277 
L 182.641558 128.377203 
L 183.003896 117.540976 
L 183.728571 132.819997 
L 184.453247 174.918466 
L 185.177922 210.919404 
L 185.54026 212.768532 
L 185.902597 202.103656 
L 186.264935 184.03255 
L 186.627273 178.695223 
L 186.98961 166.072416 
L 187.351948 162.136331 
L 188.076623 197.52761 
L 188.438961 215.054323 
L 188.801299 245.905781 
L 189.163636 254.037787 
L 189.525974 256.357542 
L 189.888312 238.903282 
L 190.975325 153.094032 
L 191.7 106.181995 
L 192.787013 148.588523 
L 193.511688 192.678835 
L 193.874026 202.678906 
L 194.236364 204.078851 
L 194.598701 196.115443 
L 195.323377 165.302971 
L 195.685714 154.311719 
L 196.048052 151.786897 
L 196.772727 187.975106 
L 197.497403 229.738265 
L 198.222078 247.074985 
L 198.946753 208.645895 
L 199.671429 146.149951 
L 200.033766 114.699606 
L 200.396104 100.844276 
L 200.758442 101.243672 
L 201.120779 110.482454 
L 201.845455 162.64731 
L 202.207792 183.588767 
L 202.57013 186.063412 
L 202.932468 191.72227 
L 203.294805 185.473773 
L 204.381818 138.187207 
L 204.744156 151.708743 
L 205.106494 154.187762 
L 205.468831 168.111352 
L 205.831169 206.995202 
L 206.193506 214.492766 
L 206.555844 230.8976 
L 207.280519 225.228634 
L 208.367532 128.890361 
L 208.72987 105.119189 
L 209.092208 89.66685 
L 209.454545 86.892374 
L 209.816883 112.371815 
L 210.179221 125.091226 
L 210.541558 152.7434 
L 210.903896 164.689852 
L 211.266234 183.393223 
L 211.628571 188.67323 
L 212.353247 163.050985 
L 213.077922 133.703894 
L 213.44026 140.627471 
L 213.802597 153.623627 
L 214.527273 191.763415 
L 214.88961 221.727003 
L 215.251948 227.874741 
L 215.614286 227.113667 
L 215.976623 217.801773 
L 216.338961 186.97042 
L 216.701299 166.632032 
L 217.063636 125.991312 
L 217.425974 105.07053 
L 217.788312 93.658426 
L 218.150649 90.830041 
L 218.512987 103.764537 
L 219.6 172.40718 
L 219.962338 187.792248 
L 220.324675 182.568523 
L 220.687013 175.680881 
L 221.411688 154.824619 
L 221.774026 141.864991 
L 222.136364 142.958758 
L 222.498701 156.910517 
L 223.948052 235.997979 
L 224.31039 232.607781 
L 224.672727 220.817119 
L 225.397403 172.348028 
L 226.122078 116.865095 
L 226.484416 100.970174 
L 226.846753 96.564375 
L 227.209091 120.438837 
L 227.571429 135.274993 
L 228.296104 186.633508 
L 229.020779 199.140826 
L 229.745455 167.635628 
L 230.107792 159.81555 
L 230.47013 159.421057 
L 230.832468 154.156642 
L 231.194805 171.760017 
L 231.557143 179.704759 
L 232.281818 230.678401 
L 232.644156 248.86866 
L 233.006494 246.250289 
L 233.368831 235.23534 
L 234.818182 129.168204 
L 235.180519 109.619194 
L 235.542857 109.032923 
L 236.992208 189.809043 
L 237.354545 206.618058 
L 238.079221 202.240984 
L 238.441558 181.588545 
L 239.166234 161.873466 
L 239.528571 160.562548 
L 240.253247 190.859305 
L 240.977922 242.826602 
L 241.702597 255.719921 
L 242.064935 242.576815 
L 242.78961 184.0589 
L 243.514286 133.355695 
L 243.876623 112.79146 
L 244.238961 112.091706 
L 244.963636 148.17755 
L 245.325974 180.631522 
L 246.050649 207.478663 
L 246.412987 204.923971 
L 246.775325 203.740864 
L 247.5 169.44837 
L 247.862338 165.816784 
L 248.587013 175.658449 
L 248.949351 191.562336 
L 249.674026 242.308704 
L 250.036364 256.417214 
L 250.398701 255.540238 
L 251.123377 217.911158 
L 252.21039 119.553796 
L 252.572727 111.828181 
L 252.935065 109.591731 
L 254.746753 199.40097 
L 255.109091 200.314022 
L 255.471429 197.25925 
L 255.833766 170.923989 
L 256.558442 153.684127 
L 256.920779 154.867284 
L 257.283117 170.396048 
L 257.645455 179.238514 
L 258.007792 211.286657 
L 258.732468 248.080025 
L 259.457143 236.138693 
L 260.906494 110.572308 
L 261.268831 106.894887 
L 261.631169 101.344966 
L 261.993506 116.573514 
L 263.080519 180.53574 
L 263.442857 192.619315 
L 263.805195 193.084087 
L 264.167532 187.039187 
L 264.892208 152.51249 
L 265.254545 143.699589 
L 265.616883 144.613393 
L 265.979221 153.679481 
L 266.341558 171.69966 
L 267.066234 220.414284 
L 267.428571 235.472658 
L 267.790909 238.34975 
L 268.153247 218.231146 
L 269.602597 106.773095 
L 269.964935 95.49602 
L 270.327273 98.145615 
L 270.68961 109.609642 
L 271.051948 124.616891 
L 271.776623 171.989966 
L 272.138961 181.158106 
L 272.501299 176.840137 
L 272.863636 176.677285 
L 273.225974 162.883838 
L 273.588312 143.980994 
L 273.950649 136.60277 
L 274.675325 145.690378 
L 275.4 194.787261 
L 275.762338 220.687324 
L 276.124675 232.575783 
L 276.487013 230.509049 
L 276.849351 217.458925 
L 277.211688 195.334234 
L 278.298701 109.215587 
L 278.661039 88.34831 
L 279.385714 101.241187 
L 280.472727 176.496168 
L 280.835065 182.02399 
L 281.197403 181.742143 
L 281.55974 173.933733 
L 281.922078 162.26646 
L 282.284416 144.633622 
L 282.646753 140.741675 
L 283.009091 146.263824 
L 283.371429 155.509329 
L 284.458442 224.683992 
L 284.820779 233.435757 
L 285.183117 235.050274 
L 285.545455 228.704776 
L 285.907792 202.875351 
L 286.27013 161.724293 
L 286.632468 144.458191 
L 286.994805 113.606119 
L 287.357143 106.446647 
L 287.719481 103.118987 
L 288.081818 108.493259 
L 289.531169 197.458578 
L 289.893506 197.939374 
L 291.342857 149.968978 
L 291.705195 153.304596 
L 292.067532 164.632106 
L 292.42987 187.301321 
L 292.792208 221.713013 
L 293.516883 243.609619 
L 293.879221 249.997891 
L 294.241558 238.934035 
L 295.328571 151.245922 
L 295.690909 120.534012 
L 296.053247 113.652538 
L 296.415584 110.564209 
L 296.777922 127.359597 
L 297.502597 173.062955 
L 298.227273 202.952548 
L 298.58961 208.710458 
L 298.951948 200.253076 
L 299.314286 181.462835 
L 299.676623 174.85578 
L 300.038961 159.140284 
L 300.401299 161.29094 
L 301.125974 197.410603 
L 301.488312 214.999865 
L 301.850649 249.008207 
L 302.212987 254.922465 
L 302.575325 258.487275 
L 302.937662 244.151667 
L 304.387013 131.081505 
L 304.749351 119.463473 
L 305.111688 112.99434 
L 306.561039 195.304531 
L 306.923377 208.231965 
L 307.285714 208.242415 
L 307.648052 199.27281 
L 308.372727 169.693173 
L 308.735065 155.206812 
L 309.45974 176.496516 
L 310.184416 215.645049 
L 310.546753 246.617071 
L 310.909091 257.015846 
L 311.271429 253.903673 
L 311.633766 242.928183 
L 311.996104 204.175458 
L 312.358442 184.853972 
L 312.720779 158.185472 
L 313.083117 123.026303 
L 313.445455 106.171568 
L 314.17013 126.665536 
L 315.257143 195.943362 
L 315.981818 202.817745 
L 316.344156 191.260959 
L 316.706494 175.189457 
L 317.068831 172.521924 
L 317.431169 158.185491 
L 317.793506 156.375182 
L 318.155844 167.668679 
L 318.518182 185.881465 
L 319.242857 231.823377 
L 319.605195 244.615741 
L 319.967532 243.129426 
L 320.32987 235.320869 
L 321.054545 171.341535 
L 321.779221 115.023802 
L 322.141558 103.164735 
L 322.503896 96.734232 
L 323.590909 164.972315 
L 324.315584 191.917542 
L 324.677922 185.000337 
L 325.04026 185.700185 
L 326.48961 138.762331 
L 326.851948 150.106374 
L 327.576623 195.919184 
L 327.938961 223.320321 
L 328.301299 240.282838 
L 328.663636 236.34397 
L 329.025974 225.557379 
L 329.388312 201.449658 
L 329.750649 161.948286 
L 330.475325 105.713248 
L 330.837662 92.0384 
L 331.2 94.730383 
L 331.562338 108.353762 
L 333.011688 185.563486 
L 333.374026 66.96 
L 333.736364 169.15516 
L 334.098701 159.405775 
L 334.461039 143.765292 
L 334.823377 134.736309 
L 335.185714 143.097417 
L 335.91039 168.719024 
L 336.272727 193.935165 
L 336.635065 207.928363 
L 336.997403 233.170258 
L 337.35974 228.84862 
L 338.084416 193.382161 
L 338.809091 124.739818 
L 339.171429 107.854995 
L 339.896104 92.628377 
L 340.258442 104.724214 
L 341.345455 178.110645 
L 341.707792 181.008771 
L 342.07013 182.383756 
L 342.432468 182.738757 
L 342.794805 161.44104 
L 343.519481 141.172822 
L 343.881818 138.004784 
L 344.606494 170.71776 
L 344.968831 201.363681 
L 345.331169 222.325784 
L 345.693506 235.326553 
L 346.055844 240.646551 
L 346.418182 224.62261 
L 347.142857 164.241266 
L 347.867532 110.250915 
L 348.22987 101.05174 
L 348.592208 103.179614 
L 348.954545 113.704487 
L 350.403896 192.966164 
L 350.766234 197.3848 
L 351.128571 187.872184 
L 351.490909 166.969446 
L 352.215584 152.003253 
L 352.577922 156.309905 
L 353.302597 183.237478 
L 354.027273 232.462474 
L 354.38961 247.138572 
L 354.751948 239.932474 
L 355.114286 235.989415 
L 355.476623 216.097861 
L 355.838961 176.389976 
L 356.925974 110.01085 
L 357.288312 107.471871 
L 357.650649 126.458413 
L 358.012987 152.303345 
L 358.375325 169.983986 
L 358.737662 193.152107 
L 359.1 206.797928 
L 359.462338 207.328422 
L 359.824675 202.440348 
L 360.187013 185.995797 
L 360.549351 176.290788 
L 360.911688 160.164027 
L 361.274026 164.41908 
L 361.998701 197.044525 
L 362.723377 242.534247 
L 363.085714 253.730332 
L 363.448052 255.355434 
L 363.81039 246.258889 
L 364.535065 186.276668 
L 365.25974 128.091129 
L 365.622078 121.227346 
L 365.984416 123.82915 
L 366.346753 131.452571 
L 367.071429 179.765354 
L 367.433766 204.457289 
L 367.796104 210.849269 
L 368.158442 210.704798 
L 368.883117 190.36178 
L 369.245455 172.26435 
L 369.607792 164.970679 
L 369.97013 172.25747 
L 370.332468 173.585412 
L 371.419481 246.099182 
L 371.781818 254.595582 
L 372.144156 256.811605 
L 372.868831 218.083633 
L 373.955844 131.135261 
L 374.318182 111.220952 
L 374.680519 113.383065 
L 375.042857 122.251645 
L 376.492208 207.336921 
L 376.854545 201.517786 
L 377.216883 190.868037 
L 377.579221 173.369149 
L 377.941558 164.414592 
L 378.303896 145.773608 
L 378.666234 158.08055 
L 379.390909 193.570375 
L 379.753247 217.39085 
L 380.115584 230.773941 
L 380.84026 243.393003 
L 381.202597 231.161046 
L 382.28961 159.941659 
L 382.651948 145.906774 
L 383.014286 138.92621 
L 383.376623 137.294801 
L 384.101299 156.292868 
L 384.463636 171.595715 
L 384.825974 178.398246 
L 385.550649 186.160796 
L 387 162.618221 
L 387.362338 163.005658 
L 387.724675 167.923461 
L 388.087013 176.878812 
L 388.811688 201.897389 
L 389.174026 206.831305 
L 389.536364 208.976255 
L 390.261039 188.938772 
L 390.623377 175.072374 
L 390.985714 155.402408 
L 391.348052 142.116664 
L 391.71039 136.22913 
L 392.072727 137.346679 
L 392.435065 143.846058 
L 392.797403 154.537185 
L 393.15974 168.99784 
L 393.884416 185.53069 
L 394.609091 178.406056 
L 395.333766 163.555571 
L 395.696104 166.475354 
L 396.058442 164.362787 
L 396.420779 166.314423 
L 397.145455 191.383543 
L 397.507792 207.731268 
L 397.87013 209.210485 
L 398.232468 208.980133 
L 398.594805 202.911529 
L 400.044156 146.746396 
L 400.768831 138.509577 
L 402.580519 188.88595 
L 402.942857 192.171791 
L 403.305195 187.305826 
L 403.667532 175.180763 
L 404.392208 167.757966 
L 404.754545 166.830834 
L 405.116883 170.971351 
L 406.203896 207.307482 
L 406.566234 214.3299 
L 406.928571 217.717087 
L 408.015584 182.726619 
L 408.377922 164.197877 
L 409.102597 149.116851 
L 409.464935 145.500042 
L 411.276623 198.019612 
L 411.638961 200.382996 
L 412.001299 193.290909 
L 412.363636 189.506824 
L 413.088312 176.926568 
L 413.450649 175.146926 
L 413.812987 182.528936 
L 414.175325 193.190256 
L 414.537662 207.424911 
L 415.262338 228.734226 
L 415.624675 227.128033 
L 415.987013 219.415643 
L 416.711688 191.287161 
L 417.436364 161.415674 
L 417.798701 155.619174 
L 418.161039 158.431682 
L 419.972727 207.117948 
L 420.697403 203.380147 
L 421.05974 199.096465 
L 421.422078 189.830115 
L 421.784416 187.370059 
L 422.146753 186.116317 
L 422.871429 200.963502 
L 423.596104 228.05838 
L 423.958442 231.791282 
L 424.320779 232.381666 
L 424.683117 226.202964 
L 425.045455 217.505189 
L 425.77013 182.732582 
L 426.132468 171.982475 
L 426.494805 165.178309 
L 426.857143 164.826806 
L 427.581818 180.202 
L 427.944156 197.231668 
L 428.306494 208.376362 
L 428.668831 212.240704 
L 429.031169 208.448128 
L 429.393506 206.172357 
L 429.755844 201.661515 
L 430.118182 192.415427 
L 430.480519 187.187631 
L 430.842857 189.248082 
L 431.567532 202.34928 
L 431.92987 219.448406 
L 432.654545 238.684968 
L 433.016883 236.733756 
L 433.379221 231.600303 
L 435.190909 162.835636 
L 435.553247 166.772481 
L 435.915584 172.375748 
L 436.64026 198.219649 
L 437.002597 202.606481 
L 437.364935 211.874696 
L 437.727273 209.737835 
L 438.08961 209.309396 
L 438.451948 198.374476 
L 439.176623 189.578697 
L 439.538961 190.211188 
L 440.263636 204.045587 
L 440.625974 219.651425 
L 440.988312 228.326354 
L 441.350649 234.134567 
L 441.712987 235.374449 
L 442.075325 227.907928 
L 442.437662 216.799609 
L 443.162338 184.193414 
L 443.524675 172.920556 
L 444.249351 164.806322 
L 444.611688 170.147242 
L 444.974026 183.653383 
L 445.336364 192.293155 
L 445.698701 206.881551 
L 446.061039 209.653595 
L 446.785714 207.630106 
L 447.872727 187.916114 
L 448.235065 188.279411 
L 448.597403 193.792796 
L 448.95974 202.854105 
L 449.684416 228.761436 
L 450.046753 231.799459 
L 450.409091 232.780809 
L 450.771429 226.926445 
L 451.133766 215.029414 
L 451.858442 183.929698 
L 452.220779 171.181361 
L 452.583117 163.775241 
L 452.945455 165.305415 
L 453.307792 170.764959 
L 454.394805 202.229552 
L 455.119481 215.342707 
L 455.844156 198.240224 
L 456.568831 186.990349 
L 456.931169 184.16433 
L 457.293506 193.50946 
L 458.018182 218.613714 
L 458.380519 230.292647 
L 458.742857 234.138111 
L 459.105195 234.950506 
L 459.467532 229.019697 
L 459.82987 218.629324 
L 460.554545 185.429443 
L 460.916883 173.271036 
L 461.279221 166.935603 
L 461.641558 169.677681 
L 462.003896 174.587507 
L 463.090909 207.83759 
L 463.453247 213.048965 
L 463.815584 210.975529 
L 464.177922 209.900874 
L 464.54026 205.390343 
L 464.902597 195.791949 
L 465.264935 194.662897 
L 465.627273 194.271013 
L 465.98961 201.066851 
L 467.076623 237.137034 
L 467.438961 237.098443 
L 467.801299 244.037901 
L 468.163636 236.570066 
L 468.888312 211.706159 
L 469.250649 191.234077 
L 469.612987 177.423584 
L 469.975325 174.610835 
L 470.337662 175.096731 
L 471.062338 191.953505 
L 471.424675 208.243836 
L 471.787013 212.132356 
L 472.149351 221.277601 
L 472.511688 224.289255 
L 472.874026 219.596046 
L 473.598701 204.362831 
L 473.961039 200.601859 
L 474.323377 202.378127 
L 475.41039 231.590832 
L 475.772727 244.391877 
L 476.135065 251.019317 
L 476.497403 251.056677 
L 476.85974 246.396084 
L 477.584416 220.710038 
L 477.946753 202.383479 
L 478.671429 183.658688 
L 479.396104 191.982786 
L 479.758442 201.976523 
L 480.483117 226.312746 
L 480.845455 236.077637 
L 481.207792 229.460019 
L 481.57013 229.424615 
L 482.657143 210.190752 
L 483.019481 212.361033 
L 483.381818 223.347731 
L 483.744156 226.640182 
L 484.468831 254.329567 
L 484.831169 260.758826 
L 485.193506 260.244761 
L 485.555844 252.527803 
L 485.918182 240.28051 
L 486.280519 223.679218 
L 486.642857 212.496589 
L 487.005195 196.868789 
L 487.367532 188.488898 
L 487.72987 190.508313 
L 488.454545 208.22431 
L 488.816883 223.176017 
L 489.179221 231.516675 
L 489.541558 236.490868 
L 489.903896 238.812593 
L 491.353247 213.249322 
L 492.077922 221.447321 
L 493.164935 256.353459 
L 493.527273 263.731574 
L 493.88961 260.548317 
L 494.251948 256.051363 
L 494.614286 245.515786 
L 495.338961 209.748717 
L 496.063636 193.23777 
L 496.425974 193.783746 
L 496.788312 200.059313 
L 497.150649 212.503407 
L 497.512987 220.227334 
L 497.875325 232.189802 
L 498.237662 237.014954 
L 498.6 236.19911 
L 498.962338 236.233686 
L 499.324675 230.027734 
L 500.049351 212.293931 
L 500.411688 215.531777 
L 500.774026 222.382441 
L 501.136364 226.243581 
L 501.498701 246.207163 
L 501.861039 250.875698 
L 502.223377 259.14771 
L 502.585714 261.326817 
L 502.948052 255.274382 
L 503.672727 227.498866 
L 504.035065 209.165072 
L 504.397403 196.783733 
L 504.75974 190.705561 
L 505.122078 190.349654 
L 505.846753 207.059635 
L 506.209091 225.025719 
L 506.571429 230.775474 
L 506.933766 238.958958 
L 507.296104 237.771012 
L 507.658442 234.383324 
L 508.020779 222.118154 
L 508.745455 211.429038 
L 509.107792 212.745991 
L 510.919481 256.680854 
L 511.281818 259.997267 
L 512.006494 239.927335 
L 512.368831 227.38883 
L 512.731169 209.218757 
L 513.455844 189.149934 
L 513.818182 192.005342 
L 514.180519 193.911681 
L 514.905195 220.58722 
L 515.267532 231.332211 
L 515.62987 237.013461 
L 515.992208 238.03394 
L 516.716883 224.677801 
L 517.079221 215.585937 
L 517.441558 213.490062 
L 517.803896 215.171356 
L 518.166234 220.449995 
L 518.528571 228.627955 
L 518.890909 244.413763 
L 519.615584 261.33864 
L 519.977922 258.435305 
L 520.34026 252.932593 
L 521.064935 230.765342 
L 521.78961 199.348686 
L 522.151948 195.396924 
L 522.514286 193.421454 
L 522.876623 198.889798 
L 523.601299 221.365242 
L 523.963636 234.467924 
L 524.325974 239.577801 
L 524.688312 239.688786 
L 525.050649 238.130301 
L 525.412987 227.259753 
L 526.137662 221.659497 
L 526.5 220.138108 
L 526.862338 225.770457 
L 528.311688 267.508178 
L 528.674026 267.003733 
L 529.036364 262.36111 
L 530.485714 206.469383 
L 530.848052 201.054755 
L 531.21039 198.10007 
L 532.65974 243.525736 
L 533.022078 249.553286 
L 533.384416 245.929089 
L 533.746753 245.072765 
L 534.109091 241.005945 
L 534.471429 233.014706 
L 534.833766 228.622132 
L 535.196104 231.137669 
L 535.558442 234.65561 
L 537.007792 277.06284 
L 537.37013 277.921375 
L 537.732468 271.767961 
L 539.181818 217.300405 
L 539.544156 210.294207 
L 539.906494 212.323465 
L 540.268831 216.068554 
L 541.355844 254.347913 
L 542.080519 261.311511 
L 542.442857 254.139099 
L 542.805195 251.549304 
L 543.167532 240.673379 
L 543.52987 237.208177 
L 543.892208 238.39396 
L 544.616883 251.682248 
L 545.341558 278.539067 
L 545.703896 287.166634 
L 546.066234 284.709434 
L 546.790909 267.908473 
L 547.515584 234.280873 
L 548.24026 216.056205 
L 548.602597 216.908653 
L 548.964935 223.084406 
L 549.68961 249.265433 
L 550.051948 252.810269 
L 550.414286 264.135054 
L 550.776623 261.314063 
L 551.138961 260.554971 
L 551.501299 254.377601 
L 551.863636 244.787819 
L 552.225974 245.01348 
L 552.588312 243.117443 
L 553.675325 268.248828 
L 554.4 286.551537 
L 554.762338 291.433575 
L 556.211688 239.464083 
L 556.574026 225.417213 
L 556.936364 221.437401 
L 557.298701 219.784557 
L 558.023377 238.504681 
L 558.748052 258.922179 
L 559.11039 264.292863 
L 559.472727 262.781702 
L 559.835065 260.639671 
L 560.197403 252.717239 
L 561.284416 242.259955 
L 562.009091 255.90647 
L 562.371429 271.518604 
L 562.733766 275.472149 
L 563.096104 288.911652 
L 563.458442 286.877166 
L 563.820779 280.980857 
L 564.545455 256.67869 
L 564.907792 236.853097 
L 565.27013 226.013676 
L 565.632468 218.520381 
L 565.994805 217.696248 
L 566.357143 223.588915 
L 566.719481 238.1217 
L 567.081818 244.993755 
L 567.444156 257.551632 
L 567.806494 264.471881 
L 568.168831 261.861335 
L 568.531169 257.682839 
L 568.893506 251.061937 
L 569.255844 248.24359 
L 569.618182 242.141396 
L 569.980519 238.793376 
L 570.342857 246.963109 
L 571.067532 268.523217 
L 571.42987 278.338553 
L 571.792208 284.879258 
L 572.154545 282.597579 
L 572.516883 278.975489 
L 572.879221 268.32001 
L 573.966234 222.251023 
L 574.328571 213.61749 
L 574.690909 212.773615 
L 575.053247 221.913765 
L 576.14026 255.971317 
L 576.502597 265.392934 
L 576.864935 263.134511 
L 577.58961 251.069971 
L 577.951948 243.728724 
L 578.676623 238.964445 
L 579.763636 266.864528 
L 580.125974 281.912528 
L 580.488312 285.255502 
L 580.850649 285.314688 
L 581.212987 280.09426 
L 581.937662 252.587297 
L 582.3 235.336188 
L 583.024675 218.581755 
L 583.387013 218.403027 
L 583.749351 225.946589 
L 584.836364 261.824653 
L 585.198701 266.88941 
L 585.561039 268.494639 
L 585.923377 261.025227 
L 586.285714 257.332888 
L 587.01039 245.161086 
L 587.372727 250.060538 
L 587.735065 253.216442 
L 588.097403 260.741701 
L 588.45974 276.338313 
L 589.184416 295.704805 
L 589.546753 293.217383 
L 589.909091 288.664223 
L 590.271429 276.833688 
L 590.996104 245.499591 
L 591.358442 235.094327 
L 591.720779 228.023569 
L 592.083117 226.567362 
L 593.894805 274.050627 
L 594.257143 278.08005 
L 594.619481 273.441821 
L 595.344156 257.839245 
L 595.706494 254.321648 
L 596.068831 255.220377 
L 596.431169 260.031693 
L 596.793506 269.902748 
L 597.155844 284.422343 
L 597.518182 294.014328 
L 597.880519 364.485749 
L 598.242857 305.938196 
L 598.967532 285.173794 
L 600.054545 244.639583 
L 600.416883 236.241879 
L 600.779221 239.587425 
L 601.141558 240.531212 
L 601.866234 267.589362 
L 602.228571 277.00599 
L 602.590909 282.171976 
L 602.953247 281.088558 
L 603.315584 282.169587 
L 604.04026 268.376111 
L 604.402597 260.812836 
L 605.127273 269.258237 
L 606.576623 310.893534 
L 606.938961 310.998297 
L 607.301299 307.138398 
L 607.663636 293.922828 
L 608.025974 276.588988 
L 609.112987 242.283876 
L 609.837662 249.667244 
L 610.2 261.713955 
L 610.562338 277.967968 
L 611.287013 290.992323 
L 611.649351 294.559429 
L 612.374026 277.131575 
L 612.736364 273.231943 
L 613.098701 265.35397 
L 613.461039 268.697525 
L 613.823377 273.223924 
L 615.272727 316.114448 
L 615.635065 315.156515 
L 615.997403 307.676506 
L 616.35974 297.317237 
L 617.446753 251.061842 
L 617.809091 247.160287 
L 618.171429 244.49028 
L 618.533766 250.30164 
L 619.258442 277.018209 
L 619.620779 283.054035 
L 619.983117 291.546735 
L 620.345455 292.077561 
L 620.707792 287.661753 
L 621.794805 268.259792 
L 622.157143 267.114987 
L 622.519481 273.931978 
L 623.244156 294.427161 
L 623.606494 306.105958 
L 623.968831 312.159499 
L 624.331169 313.783739 
L 624.693506 308.549328 
L 625.780519 263.916465 
L 626.505195 243.974617 
L 626.867532 240.578266 
L 627.954545 269.517114 
L 628.316883 286.183047 
L 628.679221 289.508575 
L 629.041558 288.90718 
L 630.128571 272.729796 
L 630.490909 266.075404 
L 630.853247 265.629918 
L 631.215584 270.999876 
L 631.577922 280.795373 
L 631.94026 295.189561 
L 632.302597 304.980322 
L 632.664935 311.37801 
L 633.027273 311.57348 
L 633.38961 306.117951 
L 634.838961 249.298257 
L 635.201299 239.397248 
L 635.925974 252.471163 
L 636.288312 260.392374 
L 637.012987 283.733323 
L 637.375325 286.271238 
L 637.737662 286.925993 
L 638.1 285.622025 
L 638.462338 279.721936 
L 638.824675 270.022458 
L 639.187013 265.806424 
L 639.549351 265.836215 
L 639.911688 272.160132 
L 640.998701 307.193464 
L 641.361039 311.279362 
L 641.723377 311.962871 
L 642.085714 309.564223 
L 643.172727 265.648708 
L 643.535065 250.423482 
L 643.897403 244.589227 
L 644.25974 245.722074 
L 644.622078 252.147078 
L 644.984416 266.580219 
L 645.346753 273.082949 
L 645.709091 286.377814 
L 646.071429 293.696894 
L 646.796104 288.842735 
L 647.158442 280.320784 
L 647.520779 275.794859 
L 647.883117 273.749747 
L 648.245455 272.864021 
L 648.97013 286.523044 
L 649.694805 312.955392 
L 650.057143 320.422053 
L 650.419481 323.0933 
L 650.781818 316.491086 
L 651.506494 288.367359 
L 652.231169 256.17113 
L 652.593506 253.844588 
L 652.955844 252.794876 
L 653.318182 260.308509 
L 654.767532 300.91727 
L 655.12987 300.269644 
L 655.492208 298.433232 
L 655.854545 294.275542 
L 656.216883 285.847582 
L 656.579221 282.376659 
L 656.941558 281.547417 
L 657.303896 289.598145 
L 657.666234 293.950534 
L 658.028571 312.876976 
L 658.753247 329.141186 
L 659.115584 326.535861 
L 659.477922 324.952364 
L 660.927273 268.263469 
L 661.28961 261.748821 
L 661.651948 264.553352 
L 662.014286 269.598955 
L 663.463636 311.448975 
L 663.825974 312.557333 
L 664.550649 298.807954 
L 664.912987 295.852716 
L 665.275325 290.404146 
L 665.637662 292.015887 
L 666 295.060209 
L 666.362338 304.667723 
L 666.724675 318.264609 
L 667.449351 337.435047 
L 667.811688 342.04963 
L 668.536364 318.412302 
L 669.261039 289.618455 
L 669.623377 276.429178 
L 669.985714 268.13032 
L 670.348052 267.700401 
L 670.71039 276.428585 
L 671.435065 298.839295 
L 672.15974 317.073402 
L 672.522078 320.445068 
L 672.884416 310.024253 
L 673.246753 306.040098 
L 673.971429 294.329885 
L 674.333766 293.830794 
L 674.696104 304.875267 
L 675.058442 311.304301 
L 676.145455 338.038215 
L 676.507792 338.383923 
L 676.87013 332.773058 
L 678.319481 278.278905 
L 678.681818 273.902945 
L 679.044156 271.891317 
L 679.406494 277.629701 
L 680.131169 301.079604 
L 680.493506 306.869644 
L 680.855844 317.479587 
L 681.942857 306.685885 
L 682.667532 292.073054 
L 683.02987 295.171141 
L 683.392208 299.294137 
L 684.479221 331.851753 
L 684.841558 338.741752 
L 685.203896 338.128242 
L 685.566234 332.753738 
L 685.928571 321.339784 
L 686.653247 289.177376 
L 687.015584 276.177252 
L 687.377922 269.472828 
L 687.74026 268.767544 
L 688.102597 276.936873 
L 689.18961 310.517515 
L 689.551948 317.167077 
L 689.914286 313.261683 
L 690.276623 311.820665 
L 691.001299 295.976192 
L 691.363636 292.790895 
L 691.725974 293.412628 
L 692.088312 297.786638 
L 692.450649 310.301212 
L 693.537662 336.258217 
L 693.9 337.196905 
L 694.262338 330.018036 
L 694.624675 318.382464 
L 695.349351 284.601654 
L 695.711688 275.217326 
L 696.074026 268.988362 
L 696.436364 267.394689 
L 696.798701 276.021377 
L 697.523377 298.31503 
L 698.248052 314.595246 
L 698.61039 312.838925 
L 698.972727 313.172261 
L 699.697403 296.697762 
L 700.05974 292.892848 
L 700.422078 290.657256 
L 700.784416 298.797665 
L 702.233766 339.675233 
L 702.596104 340.195465 
L 702.958442 333.087016 
L 703.683117 307.802083 
L 704.045455 291.571524 
L 704.407792 280.917635 
L 704.77013 274.696744 
L 705.132468 272.140023 
L 705.857143 286.469692 
L 706.219481 303.322989 
L 706.581818 312.170137 
L 706.944156 316.923501 
L 707.306494 318.170656 
L 707.668831 315.925928 
L 708.031169 310.460468 
L 708.393506 300.954633 
L 708.755844 296.512001 
L 709.480519 304.67063 
L 709.842857 314.535382 
L 710.567532 339.366679 
L 710.92987 344.433046 
L 711.292208 345.814393 
L 711.654545 338.914318 
L 712.379221 315.956865 
L 712.741558 296.932689 
L 713.466234 277.898682 
L 713.828571 279.244755 
L 714.190909 287.999682 
L 714.915584 310.54964 
L 715.64026 329.584845 
L 716.002597 330.393359 
L 716.364935 325.785743 
L 717.08961 309.517784 
L 717.814286 305.184598 
L 718.176623 314.247694 
L 718.538961 328.259457 
L 718.901299 336.851675 
L 719.263636 350.41781 
L 719.625974 356.204355 
L 719.988312 355.612045 
L 720.350649 352.901181 
L 721.437662 305.71603 
L 721.8 293.740919 
L 722.162338 288.993338 
L 722.524675 289.174834 
L 723.611688 318.639562 
L 723.974026 330.706883 
L 724.336364 334.40778 
L 724.698701 336.613216 
L 725.423377 328.2227 
L 725.785714 320.22252 
L 726.148052 319.185031 
L 726.51039 319.295093 
L 726.872727 322.149062 
L 727.95974 359.234965 
L 728.684416 366.685214 
L 729.771429 331.141244 
L 730.496104 302.60948 
L 730.858442 296.76659 
L 731.220779 298.704507 
L 731.583117 303.833341 
L 731.945455 312.900524 
L 732.307792 327.933803 
L 733.394805 344.656087 
L 734.844156 319.684923 
L 735.206494 319.447899 
L 735.568831 325.904287 
L 736.655844 359.360782 
L 737.018182 369.307348 
L 737.742857 362.913236 
L 739.192208 303.837426 
L 739.554545 295.816887 
L 739.916883 298.58406 
L 740.279221 304.0645 
L 741.366234 337.733243 
L 741.728571 342.901769 
L 742.090909 344.774041 
L 742.453247 338.840363 
L 742.815584 329.384838 
L 743.177922 328.509288 
L 743.54026 321.777035 
L 743.902597 319.599241 
L 744.264935 324.006249 
L 745.714286 369.36 
L 746.076623 366.607627 
L 746.801299 349.511178 
L 746.801299 349.511178 
" style="fill:none;stroke:#1f77b4;stroke-linecap:square;stroke-width:1.5;"/>
   </g>
   <g id="line2d_19">
    <path clip-path="url(#p5fabdbae92)" d="M 747.163636 384.48 
L 747.163636 51.84 
" style="fill:none;stroke:#808080;stroke-linecap:square;"/>
   </g>
   <g id="patch_100">
    <path d="M 108 384.48 
L 108 51.84 
" style="fill:none;stroke:#000000;stroke-linecap:square;stroke-linejoin:miter;stroke-width:0.8;"/>
   </g>
   <g id="patch_101">
    <path d="M 777.6 384.48 
L 777.6 51.84 
" style="fill:none;stroke:#000000;stroke-linecap:square;stroke-linejoin:miter;stroke-width:0.8;"/>
   </g>
   <g id="patch_102">
    <path d="M 108 384.48 
L 777.6 384.48 
" style="fill:none;stroke:#000000;stroke-linecap:square;stroke-linejoin:miter;stroke-width:0.8;"/>
   </g>
   <g id="patch_103">
    <path d="M 108 51.84 
L 777.6 51.84 
" style="fill:none;stroke:#000000;stroke-linecap:square;stroke-linejoin:miter;stroke-width:0.8;"/>
   </g>
   <g id="text_20">
    <!-- A4Benchmark-TS74.csv -->
    <defs>
     <path d="M 34.1875 63.1875 
L 20.796875 26.90625 
L 47.609375 26.90625 
z
M 28.609375 72.90625 
L 39.796875 72.90625 
L 67.578125 0 
L 57.328125 0 
L 50.6875 18.703125 
L 17.828125 18.703125 
L 11.1875 0 
L 0.78125 0 
z
" id="DejaVuSans-65"/>
     <path d="M 37.796875 64.3125 
L 12.890625 25.390625 
L 37.796875 25.390625 
z
M 35.203125 72.90625 
L 47.609375 72.90625 
L 47.609375 25.390625 
L 58.015625 25.390625 
L 58.015625 17.1875 
L 47.609375 17.1875 
L 47.609375 0 
L 37.796875 0 
L 37.796875 17.1875 
L 4.890625 17.1875 
L 4.890625 26.703125 
z
" id="DejaVuSans-52"/>
     <path d="M 19.671875 34.8125 
L 19.671875 8.109375 
L 35.5 8.109375 
Q 43.453125 8.109375 47.28125 11.40625 
Q 51.125 14.703125 51.125 21.484375 
Q 51.125 28.328125 47.28125 31.5625 
Q 43.453125 34.8125 35.5 34.8125 
z
M 19.671875 64.796875 
L 19.671875 42.828125 
L 34.28125 42.828125 
Q 41.5 42.828125 45.03125 45.53125 
Q 48.578125 48.25 48.578125 53.8125 
Q 48.578125 59.328125 45.03125 62.0625 
Q 41.5 64.796875 34.28125 64.796875 
z
M 9.8125 72.90625 
L 35.015625 72.90625 
Q 46.296875 72.90625 52.390625 68.21875 
Q 58.5 63.53125 58.5 54.890625 
Q 58.5 48.1875 55.375 44.234375 
Q 52.25 40.28125 46.1875 39.3125 
Q 53.46875 37.75 57.5 32.78125 
Q 61.53125 27.828125 61.53125 20.40625 
Q 61.53125 10.640625 54.890625 5.3125 
Q 48.25 0 35.984375 0 
L 9.8125 0 
z
" id="DejaVuSans-66"/>
     <path d="M 54.890625 33.015625 
L 54.890625 0 
L 45.90625 0 
L 45.90625 32.71875 
Q 45.90625 40.484375 42.875 44.328125 
Q 39.84375 48.1875 33.796875 48.1875 
Q 26.515625 48.1875 22.3125 43.546875 
Q 18.109375 38.921875 18.109375 30.90625 
L 18.109375 0 
L 9.078125 0 
L 9.078125 54.6875 
L 18.109375 54.6875 
L 18.109375 46.1875 
Q 21.34375 51.125 25.703125 53.5625 
Q 30.078125 56 35.796875 56 
Q 45.21875 56 50.046875 50.171875 
Q 54.890625 44.34375 54.890625 33.015625 
z
" id="DejaVuSans-110"/>
     <path d="M 48.78125 52.59375 
L 48.78125 44.1875 
Q 44.96875 46.296875 41.140625 47.34375 
Q 37.3125 48.390625 33.40625 48.390625 
Q 24.65625 48.390625 19.8125 42.84375 
Q 14.984375 37.3125 14.984375 27.296875 
Q 14.984375 17.28125 19.8125 11.734375 
Q 24.65625 6.203125 33.40625 6.203125 
Q 37.3125 6.203125 41.140625 7.25 
Q 44.96875 8.296875 48.78125 10.40625 
L 48.78125 2.09375 
Q 45.015625 0.34375 40.984375 -0.53125 
Q 36.96875 -1.421875 32.421875 -1.421875 
Q 20.0625 -1.421875 12.78125 6.34375 
Q 5.515625 14.109375 5.515625 27.296875 
Q 5.515625 40.671875 12.859375 48.328125 
Q 20.21875 56 33.015625 56 
Q 37.15625 56 41.109375 55.140625 
Q 45.0625 54.296875 48.78125 52.59375 
z
" id="DejaVuSans-99"/>
     <path d="M 54.890625 33.015625 
L 54.890625 0 
L 45.90625 0 
L 45.90625 32.71875 
Q 45.90625 40.484375 42.875 44.328125 
Q 39.84375 48.1875 33.796875 48.1875 
Q 26.515625 48.1875 22.3125 43.546875 
Q 18.109375 38.921875 18.109375 30.90625 
L 18.109375 0 
L 9.078125 0 
L 9.078125 75.984375 
L 18.109375 75.984375 
L 18.109375 46.1875 
Q 21.34375 51.125 25.703125 53.5625 
Q 30.078125 56 35.796875 56 
Q 45.21875 56 50.046875 50.171875 
Q 54.890625 44.34375 54.890625 33.015625 
z
" id="DejaVuSans-104"/>
     <path d="M 41.109375 46.296875 
Q 39.59375 47.171875 37.8125 47.578125 
Q 36.03125 48 33.890625 48 
Q 26.265625 48 22.1875 43.046875 
Q 18.109375 38.09375 18.109375 28.8125 
L 18.109375 0 
L 9.078125 0 
L 9.078125 54.6875 
L 18.109375 54.6875 
L 18.109375 46.1875 
Q 20.953125 51.171875 25.484375 53.578125 
Q 30.03125 56 36.53125 56 
Q 37.453125 56 38.578125 55.875 
Q 39.703125 55.765625 41.0625 55.515625 
z
" id="DejaVuSans-114"/>
     <path d="M 9.078125 75.984375 
L 18.109375 75.984375 
L 18.109375 31.109375 
L 44.921875 54.6875 
L 56.390625 54.6875 
L 27.390625 29.109375 
L 57.625 0 
L 45.90625 0 
L 18.109375 26.703125 
L 18.109375 0 
L 9.078125 0 
z
" id="DejaVuSans-107"/>
     <path d="M 4.890625 31.390625 
L 31.203125 31.390625 
L 31.203125 23.390625 
L 4.890625 23.390625 
z
" id="DejaVuSans-45"/>
     <path d="M 53.515625 70.515625 
L 53.515625 60.890625 
Q 47.90625 63.578125 42.921875 64.890625 
Q 37.9375 66.21875 33.296875 66.21875 
Q 25.25 66.21875 20.875 63.09375 
Q 16.5 59.96875 16.5 54.203125 
Q 16.5 49.359375 19.40625 46.890625 
Q 22.3125 44.4375 30.421875 42.921875 
L 36.375 41.703125 
Q 47.40625 39.59375 52.65625 34.296875 
Q 57.90625 29 57.90625 20.125 
Q 57.90625 9.515625 50.796875 4.046875 
Q 43.703125 -1.421875 29.984375 -1.421875 
Q 24.8125 -1.421875 18.96875 -0.25 
Q 13.140625 0.921875 6.890625 3.21875 
L 6.890625 13.375 
Q 12.890625 10.015625 18.65625 8.296875 
Q 24.421875 6.59375 29.984375 6.59375 
Q 38.421875 6.59375 43.015625 9.90625 
Q 47.609375 13.234375 47.609375 19.390625 
Q 47.609375 24.75 44.3125 27.78125 
Q 41.015625 30.8125 33.5 32.328125 
L 27.484375 33.5 
Q 16.453125 35.6875 11.515625 40.375 
Q 6.59375 45.0625 6.59375 53.421875 
Q 6.59375 63.09375 13.40625 68.65625 
Q 20.21875 74.21875 32.171875 74.21875 
Q 37.3125 74.21875 42.625 73.28125 
Q 47.953125 72.359375 53.515625 70.515625 
z
" id="DejaVuSans-83"/>
     <path d="M 10.6875 12.40625 
L 21 12.40625 
L 21 0 
L 10.6875 0 
z
" id="DejaVuSans-46"/>
     <path d="M 2.984375 54.6875 
L 12.5 54.6875 
L 29.59375 8.796875 
L 46.6875 54.6875 
L 56.203125 54.6875 
L 35.6875 0 
L 23.484375 0 
z
" id="DejaVuSans-118"/>
    </defs>
    <g transform="translate(371.555625 45.84)scale(0.12 -0.12)">
     <use xlink:href="#DejaVuSans-65"/>
     <use x="68.408203" xlink:href="#DejaVuSans-52"/>
     <use x="132.03125" xlink:href="#DejaVuSans-66"/>
     <use x="200.634766" xlink:href="#DejaVuSans-101"/>
     <use x="262.158203" xlink:href="#DejaVuSans-110"/>
     <use x="325.537109" xlink:href="#DejaVuSans-99"/>
     <use x="380.517578" xlink:href="#DejaVuSans-104"/>
     <use x="443.896484" xlink:href="#DejaVuSans-109"/>
     <use x="541.308594" xlink:href="#DejaVuSans-97"/>
     <use x="602.587891" xlink:href="#DejaVuSans-114"/>
     <use x="643.701172" xlink:href="#DejaVuSans-107"/>
     <use x="701.611328" xlink:href="#DejaVuSans-45"/>
     <use x="737.554688" xlink:href="#DejaVuSans-84"/>
     <use x="798.638672" xlink:href="#DejaVuSans-83"/>
     <use x="862.115234" xlink:href="#DejaVuSans-55"/>
     <use x="925.738281" xlink:href="#DejaVuSans-52"/>
     <use x="989.361328" xlink:href="#DejaVuSans-46"/>
     <use x="1021.148438" xlink:href="#DejaVuSans-99"/>
     <use x="1076.128906" xlink:href="#DejaVuSans-115"/>
     <use x="1128.228516" xlink:href="#DejaVuSans-118"/>
    </g>
   </g>
   <g id="legend_1">
    <g id="patch_104">
     <path d="M 711.284375 74.518125 
L 770.6 74.518125 
Q 772.6 74.518125 772.6 72.518125 
L 772.6 58.84 
Q 772.6 56.84 770.6 56.84 
L 711.284375 56.84 
Q 709.284375 56.84 709.284375 58.84 
L 709.284375 72.518125 
Q 709.284375 74.518125 711.284375 74.518125 
z
" style="fill:#ffffff;opacity:0.8;stroke:#cccccc;stroke-linejoin:miter;"/>
    </g>
    <g id="line2d_20">
     <path d="M 713.284375 64.938438 
L 733.284375 64.938438 
" style="fill:none;stroke:#1f77b4;stroke-linecap:square;stroke-width:1.5;"/>
    </g>
    <g id="line2d_21"/>
    <g id="text_21">
     <!-- value -->
     <g transform="translate(741.284375 68.438438)scale(0.1 -0.1)">
      <use xlink:href="#DejaVuSans-118"/>
      <use x="59.179688" xlink:href="#DejaVuSans-97"/>
      <use x="120.458984" xlink:href="#DejaVuSans-108"/>
      <use x="148.242188" xlink:href="#DejaVuSans-117"/>
      <use x="211.621094" xlink:href="#DejaVuSans-101"/>
     </g>
    </g>
   </g>
  </g>
 </g>
 <defs>
  <clipPath id="p5fabdbae92">
   <rect height="332.64" width="669.6" x="108" y="51.84"/>
  </clipPath>
 </defs>
</svg>
