<?xml version="1.0" encoding="utf-8" standalone="no"?>
<!DOCTYPE svg PUBLIC "-//W3C//DTD SVG 1.1//EN"
  "http://www.w3.org/Graphics/SVG/1.1/DTD/svg11.dtd">
<!-- Created with matplotlib (https://matplotlib.org/) -->
<svg height="432pt" version="1.1" viewBox="0 0 864 432" width="864pt" xmlns="http://www.w3.org/2000/svg" xmlns:xlink="http://www.w3.org/1999/xlink">
 <defs>
  <style type="text/css">
*{stroke-linecap:butt;stroke-linejoin:round;}
  </style>
 </defs>
 <g id="figure_1">
  <g id="patch_1">
   <path d="M 0 432 
L 864 432 
L 864 0 
L 0 0 
z
" style="fill:#ffffff;"/>
  </g>
  <g id="axes_1">
   <g id="patch_2">
    <path d="M 108 384.48 
L 777.6 384.48 
L 777.6 51.84 
L 108 51.84 
z
" style="fill:#ffffff;"/>
   </g>
   <g id="patch_3">
    <path clip-path="url(#p8f7ebf22bc)" d="M 138.436364 384.48 
L 138.436364 51.84 
L 440.671583 51.84 
L 440.671583 384.48 
z
" style="fill:#0000ff;opacity:0.05;"/>
   </g>
   <g id="patch_4">
    <path clip-path="url(#p8f7ebf22bc)" d="M 440.671583 384.48 
L 440.671583 51.84 
L 747.163636 51.84 
L 747.163636 384.48 
z
" style="fill:#ff0000;opacity:0.08;"/>
   </g>
   <g id="patch_5">
    <path clip-path="url(#p8f7ebf22bc)" d="M 138.436364 384.48 
L 138.436364 51.84 
L 142.693198 51.84 
L 142.693198 384.48 
z
" style="fill:#008000;opacity:0.04;"/>
   </g>
   <g id="patch_6">
    <path clip-path="url(#p8f7ebf22bc)" d="M 146.950032 384.48 
L 146.950032 51.84 
L 151.206866 51.84 
L 151.206866 384.48 
z
" style="fill:#008000;opacity:0.04;"/>
   </g>
   <g id="patch_7">
    <path clip-path="url(#p8f7ebf22bc)" d="M 155.4637 384.48 
L 155.4637 51.84 
L 159.720534 51.84 
L 159.720534 384.48 
z
" style="fill:#008000;opacity:0.04;"/>
   </g>
   <g id="patch_8">
    <path clip-path="url(#p8f7ebf22bc)" d="M 163.977368 384.48 
L 163.977368 51.84 
L 168.234202 51.84 
L 168.234202 384.48 
z
" style="fill:#008000;opacity:0.04;"/>
   </g>
   <g id="patch_9">
    <path clip-path="url(#p8f7ebf22bc)" d="M 163.977368 384.48 
L 163.977368 371.1744 
L 168.234202 371.1744 
L 168.234202 384.48 
z
" style="fill:#ffe500;"/>
   </g>
   <g id="patch_10">
    <path clip-path="url(#p8f7ebf22bc)" d="M 168.234202 384.48 
L 168.234202 371.1744 
L 172.491036 371.1744 
L 172.491036 384.48 
z
" style="fill:#ffe500;"/>
   </g>
   <g id="patch_11">
    <path clip-path="url(#p8f7ebf22bc)" d="M 172.491036 384.48 
L 172.491036 51.84 
L 176.74787 51.84 
L 176.74787 384.48 
z
" style="fill:#008000;opacity:0.04;"/>
   </g>
   <g id="patch_12">
    <path clip-path="url(#p8f7ebf22bc)" d="M 181.004704 384.48 
L 181.004704 51.84 
L 185.261538 51.84 
L 185.261538 384.48 
z
" style="fill:#008000;opacity:0.04;"/>
   </g>
   <g id="patch_13">
    <path clip-path="url(#p8f7ebf22bc)" d="M 189.518373 384.48 
L 189.518373 51.84 
L 193.775207 51.84 
L 193.775207 384.48 
z
" style="fill:#008000;opacity:0.04;"/>
   </g>
   <g id="patch_14">
    <path clip-path="url(#p8f7ebf22bc)" d="M 198.032041 384.48 
L 198.032041 51.84 
L 202.288875 51.84 
L 202.288875 384.48 
z
" style="fill:#008000;opacity:0.04;"/>
   </g>
   <g id="patch_15">
    <path clip-path="url(#p8f7ebf22bc)" d="M 198.032041 384.48 
L 198.032041 371.1744 
L 202.288875 371.1744 
L 202.288875 384.48 
z
" style="fill:#ffe500;"/>
   </g>
   <g id="patch_16">
    <path clip-path="url(#p8f7ebf22bc)" d="M 206.545709 384.48 
L 206.545709 51.84 
L 210.802543 51.84 
L 210.802543 384.48 
z
" style="fill:#008000;opacity:0.04;"/>
   </g>
   <g id="patch_17">
    <path clip-path="url(#p8f7ebf22bc)" d="M 215.059377 384.48 
L 215.059377 51.84 
L 219.316211 51.84 
L 219.316211 384.48 
z
" style="fill:#008000;opacity:0.04;"/>
   </g>
   <g id="patch_18">
    <path clip-path="url(#p8f7ebf22bc)" d="M 517.294596 384.48 
L 517.294596 371.1744 
L 521.55143 371.1744 
L 521.55143 384.48 
z
" style="fill:#ff6600;"/>
   </g>
   <g id="patch_19">
    <path clip-path="url(#p8f7ebf22bc)" d="M 223.573045 384.48 
L 223.573045 51.84 
L 227.829879 51.84 
L 227.829879 384.48 
z
" style="fill:#008000;opacity:0.04;"/>
   </g>
   <g id="patch_20">
    <path clip-path="url(#p8f7ebf22bc)" d="M 232.086713 384.48 
L 232.086713 51.84 
L 236.343547 51.84 
L 236.343547 384.48 
z
" style="fill:#008000;opacity:0.04;"/>
   </g>
   <g id="patch_21">
    <path clip-path="url(#p8f7ebf22bc)" d="M 240.600381 384.48 
L 240.600381 51.84 
L 244.857216 51.84 
L 244.857216 384.48 
z
" style="fill:#008000;opacity:0.04;"/>
   </g>
   <g id="patch_22">
    <path clip-path="url(#p8f7ebf22bc)" d="M 249.11405 384.48 
L 249.11405 51.84 
L 253.370884 51.84 
L 253.370884 384.48 
z
" style="fill:#008000;opacity:0.04;"/>
   </g>
   <g id="patch_23">
    <path clip-path="url(#p8f7ebf22bc)" d="M 257.627718 384.48 
L 257.627718 51.84 
L 261.884552 51.84 
L 261.884552 384.48 
z
" style="fill:#008000;opacity:0.04;"/>
   </g>
   <g id="patch_24">
    <path clip-path="url(#p8f7ebf22bc)" d="M 266.141386 384.48 
L 266.141386 51.84 
L 270.39822 51.84 
L 270.39822 384.48 
z
" style="fill:#008000;opacity:0.04;"/>
   </g>
   <g id="patch_25">
    <path clip-path="url(#p8f7ebf22bc)" d="M 274.655054 384.48 
L 274.655054 51.84 
L 278.911888 51.84 
L 278.911888 384.48 
z
" style="fill:#008000;opacity:0.04;"/>
   </g>
   <g id="patch_26">
    <path clip-path="url(#p8f7ebf22bc)" d="M 278.911888 384.48 
L 278.911888 371.1744 
L 283.168722 371.1744 
L 283.168722 384.48 
z
" style="fill:#ffe500;"/>
   </g>
   <g id="patch_27">
    <path clip-path="url(#p8f7ebf22bc)" d="M 283.168722 384.48 
L 283.168722 51.84 
L 287.425556 51.84 
L 287.425556 384.48 
z
" style="fill:#008000;opacity:0.04;"/>
   </g>
   <g id="patch_28">
    <path clip-path="url(#p8f7ebf22bc)" d="M 291.68239 384.48 
L 291.68239 51.84 
L 295.939224 51.84 
L 295.939224 384.48 
z
" style="fill:#008000;opacity:0.04;"/>
   </g>
   <g id="patch_29">
    <path clip-path="url(#p8f7ebf22bc)" d="M 300.196058 384.48 
L 300.196058 51.84 
L 304.452893 51.84 
L 304.452893 384.48 
z
" style="fill:#008000;opacity:0.04;"/>
   </g>
   <g id="patch_30">
    <path clip-path="url(#p8f7ebf22bc)" d="M 308.709727 384.48 
L 308.709727 51.84 
L 312.966561 51.84 
L 312.966561 384.48 
z
" style="fill:#008000;opacity:0.04;"/>
   </g>
   <g id="patch_31">
    <path clip-path="url(#p8f7ebf22bc)" d="M 317.223395 384.48 
L 317.223395 51.84 
L 321.480229 51.84 
L 321.480229 384.48 
z
" style="fill:#008000;opacity:0.04;"/>
   </g>
   <g id="patch_32">
    <path clip-path="url(#p8f7ebf22bc)" d="M 325.737063 384.48 
L 325.737063 51.84 
L 329.993897 51.84 
L 329.993897 384.48 
z
" style="fill:#008000;opacity:0.04;"/>
   </g>
   <g id="patch_33">
    <path clip-path="url(#p8f7ebf22bc)" d="M 334.250731 384.48 
L 334.250731 51.84 
L 338.507565 51.84 
L 338.507565 384.48 
z
" style="fill:#008000;opacity:0.04;"/>
   </g>
   <g id="patch_34">
    <path clip-path="url(#p8f7ebf22bc)" d="M 342.764399 384.48 
L 342.764399 51.84 
L 347.021233 51.84 
L 347.021233 384.48 
z
" style="fill:#008000;opacity:0.04;"/>
   </g>
   <g id="patch_35">
    <path clip-path="url(#p8f7ebf22bc)" d="M 351.278067 384.48 
L 351.278067 51.84 
L 355.534901 51.84 
L 355.534901 384.48 
z
" style="fill:#008000;opacity:0.04;"/>
   </g>
   <g id="patch_36">
    <path clip-path="url(#p8f7ebf22bc)" d="M 359.791736 384.48 
L 359.791736 51.84 
L 364.04857 51.84 
L 364.04857 384.48 
z
" style="fill:#008000;opacity:0.04;"/>
   </g>
   <g id="patch_37">
    <path clip-path="url(#p8f7ebf22bc)" d="M 368.305404 384.48 
L 368.305404 51.84 
L 372.562238 51.84 
L 372.562238 384.48 
z
" style="fill:#008000;opacity:0.04;"/>
   </g>
   <g id="patch_38">
    <path clip-path="url(#p8f7ebf22bc)" d="M 376.819072 384.48 
L 376.819072 51.84 
L 381.075906 51.84 
L 381.075906 384.48 
z
" style="fill:#008000;opacity:0.04;"/>
   </g>
   <g id="patch_39">
    <path clip-path="url(#p8f7ebf22bc)" d="M 376.819072 384.48 
L 376.819072 371.1744 
L 381.075906 371.1744 
L 381.075906 384.48 
z
" style="fill:#ffe500;"/>
   </g>
   <g id="patch_40">
    <path clip-path="url(#p8f7ebf22bc)" d="M 385.33274 384.48 
L 385.33274 51.84 
L 389.589574 51.84 
L 389.589574 384.48 
z
" style="fill:#008000;opacity:0.04;"/>
   </g>
   <g id="patch_41">
    <path clip-path="url(#p8f7ebf22bc)" d="M 393.846408 384.48 
L 393.846408 51.84 
L 398.103242 51.84 
L 398.103242 384.48 
z
" style="fill:#008000;opacity:0.04;"/>
   </g>
   <g id="patch_42">
    <path clip-path="url(#p8f7ebf22bc)" d="M 402.360076 384.48 
L 402.360076 51.84 
L 406.61691 51.84 
L 406.61691 384.48 
z
" style="fill:#008000;opacity:0.04;"/>
   </g>
   <g id="patch_43">
    <path clip-path="url(#p8f7ebf22bc)" d="M 410.873744 384.48 
L 410.873744 51.84 
L 415.130579 51.84 
L 415.130579 384.48 
z
" style="fill:#008000;opacity:0.04;"/>
   </g>
   <g id="patch_44">
    <path clip-path="url(#p8f7ebf22bc)" d="M 415.130579 371.1744 
L 415.130579 51.84 
L 419.387413 51.84 
L 419.387413 371.1744 
z
" style="fill:#008000;opacity:0.5;"/>
   </g>
   <g id="patch_45">
    <path clip-path="url(#p8f7ebf22bc)" d="M 415.130579 384.48 
L 415.130579 371.1744 
L 419.387413 371.1744 
L 419.387413 384.48 
z
" style="fill:#ffe500;"/>
   </g>
   <g id="patch_46">
    <path clip-path="url(#p8f7ebf22bc)" d="M 419.387413 384.48 
L 419.387413 51.84 
L 423.644247 51.84 
L 423.644247 384.48 
z
" style="fill:#008000;opacity:0.04;"/>
   </g>
   <g id="patch_47">
    <path clip-path="url(#p8f7ebf22bc)" d="M 423.644247 384.48 
L 423.644247 371.1744 
L 427.901081 371.1744 
L 427.901081 384.48 
z
" style="fill:#ffe500;"/>
   </g>
   <g id="patch_48">
    <path clip-path="url(#p8f7ebf22bc)" d="M 427.901081 384.48 
L 427.901081 51.84 
L 432.157915 51.84 
L 432.157915 384.48 
z
" style="fill:#008000;opacity:0.04;"/>
   </g>
   <g id="patch_49">
    <path clip-path="url(#p8f7ebf22bc)" d="M 436.414749 384.48 
L 436.414749 51.84 
L 440.671583 51.84 
L 440.671583 384.48 
z
" style="fill:#008000;opacity:0.04;"/>
   </g>
   <g id="patch_50">
    <path clip-path="url(#p8f7ebf22bc)" d="M 742.906802 384.48 
L 742.906802 371.1744 
L 747.163636 371.1744 
L 747.163636 384.48 
z
" style="fill:#ff6600;"/>
   </g>
   <g id="patch_51">
    <path clip-path="url(#p8f7ebf22bc)" d="M 444.928417 384.48 
L 444.928417 51.84 
L 449.185251 51.84 
L 449.185251 384.48 
z
" style="fill:#008000;opacity:0.04;"/>
   </g>
   <g id="patch_52">
    <path clip-path="url(#p8f7ebf22bc)" d="M 453.442085 384.48 
L 453.442085 51.84 
L 457.698919 51.84 
L 457.698919 384.48 
z
" style="fill:#008000;opacity:0.04;"/>
   </g>
   <g id="patch_53">
    <path clip-path="url(#p8f7ebf22bc)" d="M 461.955753 384.48 
L 461.955753 51.84 
L 466.212587 51.84 
L 466.212587 384.48 
z
" style="fill:#008000;opacity:0.04;"/>
   </g>
   <g id="patch_54">
    <path clip-path="url(#p8f7ebf22bc)" d="M 470.469421 384.48 
L 470.469421 51.84 
L 474.726256 51.84 
L 474.726256 384.48 
z
" style="fill:#008000;opacity:0.04;"/>
   </g>
   <g id="patch_55">
    <path clip-path="url(#p8f7ebf22bc)" d="M 478.98309 384.48 
L 478.98309 51.84 
L 483.239924 51.84 
L 483.239924 384.48 
z
" style="fill:#008000;opacity:0.04;"/>
   </g>
   <g id="patch_56">
    <path clip-path="url(#p8f7ebf22bc)" d="M 487.496758 384.48 
L 487.496758 51.84 
L 491.753592 51.84 
L 491.753592 384.48 
z
" style="fill:#008000;opacity:0.04;"/>
   </g>
   <g id="patch_57">
    <path clip-path="url(#p8f7ebf22bc)" d="M 496.010426 384.48 
L 496.010426 51.84 
L 500.26726 51.84 
L 500.26726 384.48 
z
" style="fill:#008000;opacity:0.04;"/>
   </g>
   <g id="patch_58">
    <path clip-path="url(#p8f7ebf22bc)" d="M 504.524094 384.48 
L 504.524094 51.84 
L 508.780928 51.84 
L 508.780928 384.48 
z
" style="fill:#008000;opacity:0.04;"/>
   </g>
   <g id="patch_59">
    <path clip-path="url(#p8f7ebf22bc)" d="M 513.037762 384.48 
L 513.037762 51.84 
L 517.294596 51.84 
L 517.294596 384.48 
z
" style="fill:#008000;opacity:0.04;"/>
   </g>
   <g id="patch_60">
    <path clip-path="url(#p8f7ebf22bc)" d="M 517.294596 371.1744 
L 517.294596 51.84 
L 521.55143 51.84 
L 521.55143 371.1744 
z
" style="fill:#008000;opacity:0.5;"/>
   </g>
   <g id="patch_61">
    <path clip-path="url(#p8f7ebf22bc)" d="M 521.55143 384.48 
L 521.55143 51.84 
L 525.808264 51.84 
L 525.808264 384.48 
z
" style="fill:#008000;opacity:0.04;"/>
   </g>
   <g id="patch_62">
    <path clip-path="url(#p8f7ebf22bc)" d="M 530.065099 384.48 
L 530.065099 51.84 
L 534.321933 51.84 
L 534.321933 384.48 
z
" style="fill:#008000;opacity:0.04;"/>
   </g>
   <g id="patch_63">
    <path clip-path="url(#p8f7ebf22bc)" d="M 538.578767 384.48 
L 538.578767 51.84 
L 542.835601 51.84 
L 542.835601 384.48 
z
" style="fill:#008000;opacity:0.04;"/>
   </g>
   <g id="patch_64">
    <path clip-path="url(#p8f7ebf22bc)" d="M 547.092435 384.48 
L 547.092435 51.84 
L 551.349269 51.84 
L 551.349269 384.48 
z
" style="fill:#008000;opacity:0.04;"/>
   </g>
   <g id="patch_65">
    <path clip-path="url(#p8f7ebf22bc)" d="M 555.606103 384.48 
L 555.606103 51.84 
L 559.862937 51.84 
L 559.862937 384.48 
z
" style="fill:#008000;opacity:0.04;"/>
   </g>
   <g id="patch_66">
    <path clip-path="url(#p8f7ebf22bc)" d="M 564.119771 384.48 
L 564.119771 51.84 
L 568.376605 51.84 
L 568.376605 384.48 
z
" style="fill:#008000;opacity:0.04;"/>
   </g>
   <g id="patch_67">
    <path clip-path="url(#p8f7ebf22bc)" d="M 572.633439 384.48 
L 572.633439 51.84 
L 576.890273 51.84 
L 576.890273 384.48 
z
" style="fill:#008000;opacity:0.04;"/>
   </g>
   <g id="patch_68">
    <path clip-path="url(#p8f7ebf22bc)" d="M 581.147107 384.48 
L 581.147107 51.84 
L 585.403942 51.84 
L 585.403942 384.48 
z
" style="fill:#008000;opacity:0.04;"/>
   </g>
   <g id="patch_69">
    <path clip-path="url(#p8f7ebf22bc)" d="M 589.660776 384.48 
L 589.660776 51.84 
L 593.91761 51.84 
L 593.91761 384.48 
z
" style="fill:#008000;opacity:0.04;"/>
   </g>
   <g id="patch_70">
    <path clip-path="url(#p8f7ebf22bc)" d="M 598.174444 384.48 
L 598.174444 51.84 
L 602.431278 51.84 
L 602.431278 384.48 
z
" style="fill:#008000;opacity:0.04;"/>
   </g>
   <g id="patch_71">
    <path clip-path="url(#p8f7ebf22bc)" d="M 606.688112 384.48 
L 606.688112 51.84 
L 610.944946 51.84 
L 610.944946 384.48 
z
" style="fill:#008000;opacity:0.04;"/>
   </g>
   <g id="patch_72">
    <path clip-path="url(#p8f7ebf22bc)" d="M 615.20178 384.48 
L 615.20178 51.84 
L 619.458614 51.84 
L 619.458614 384.48 
z
" style="fill:#008000;opacity:0.04;"/>
   </g>
   <g id="patch_73">
    <path clip-path="url(#p8f7ebf22bc)" d="M 623.715448 384.48 
L 623.715448 51.84 
L 627.972282 51.84 
L 627.972282 384.48 
z
" style="fill:#008000;opacity:0.04;"/>
   </g>
   <g id="patch_74">
    <path clip-path="url(#p8f7ebf22bc)" d="M 632.229116 384.48 
L 632.229116 51.84 
L 636.48595 51.84 
L 636.48595 384.48 
z
" style="fill:#008000;opacity:0.04;"/>
   </g>
   <g id="patch_75">
    <path clip-path="url(#p8f7ebf22bc)" d="M 640.742784 384.48 
L 640.742784 51.84 
L 644.999619 51.84 
L 644.999619 384.48 
z
" style="fill:#008000;opacity:0.04;"/>
   </g>
   <g id="patch_76">
    <path clip-path="url(#p8f7ebf22bc)" d="M 649.256453 384.48 
L 649.256453 51.84 
L 653.513287 51.84 
L 653.513287 384.48 
z
" style="fill:#008000;opacity:0.04;"/>
   </g>
   <g id="patch_77">
    <path clip-path="url(#p8f7ebf22bc)" d="M 657.770121 384.48 
L 657.770121 51.84 
L 662.026955 51.84 
L 662.026955 384.48 
z
" style="fill:#008000;opacity:0.04;"/>
   </g>
   <g id="patch_78">
    <path clip-path="url(#p8f7ebf22bc)" d="M 666.283789 384.48 
L 666.283789 51.84 
L 670.540623 51.84 
L 670.540623 384.48 
z
" style="fill:#008000;opacity:0.04;"/>
   </g>
   <g id="patch_79">
    <path clip-path="url(#p8f7ebf22bc)" d="M 674.797457 384.48 
L 674.797457 51.84 
L 679.054291 51.84 
L 679.054291 384.48 
z
" style="fill:#008000;opacity:0.04;"/>
   </g>
   <g id="patch_80">
    <path clip-path="url(#p8f7ebf22bc)" d="M 683.311125 384.48 
L 683.311125 51.84 
L 687.567959 51.84 
L 687.567959 384.48 
z
" style="fill:#008000;opacity:0.04;"/>
   </g>
   <g id="patch_81">
    <path clip-path="url(#p8f7ebf22bc)" d="M 691.824793 384.48 
L 691.824793 51.84 
L 696.081627 51.84 
L 696.081627 384.48 
z
" style="fill:#008000;opacity:0.04;"/>
   </g>
   <g id="patch_82">
    <path clip-path="url(#p8f7ebf22bc)" d="M 700.338462 384.48 
L 700.338462 51.84 
L 704.595296 51.84 
L 704.595296 384.48 
z
" style="fill:#008000;opacity:0.04;"/>
   </g>
   <g id="patch_83">
    <path clip-path="url(#p8f7ebf22bc)" d="M 708.85213 384.48 
L 708.85213 51.84 
L 713.108964 51.84 
L 713.108964 384.48 
z
" style="fill:#008000;opacity:0.04;"/>
   </g>
   <g id="patch_84">
    <path clip-path="url(#p8f7ebf22bc)" d="M 717.365798 384.48 
L 717.365798 51.84 
L 721.622632 51.84 
L 721.622632 384.48 
z
" style="fill:#008000;opacity:0.04;"/>
   </g>
   <g id="patch_85">
    <path clip-path="url(#p8f7ebf22bc)" d="M 725.879466 384.48 
L 725.879466 51.84 
L 730.1363 51.84 
L 730.1363 384.48 
z
" style="fill:#008000;opacity:0.04;"/>
   </g>
   <g id="patch_86">
    <path clip-path="url(#p8f7ebf22bc)" d="M 734.393134 384.48 
L 734.393134 51.84 
L 738.649968 51.84 
L 738.649968 384.48 
z
" style="fill:#008000;opacity:0.04;"/>
   </g>
   <g id="patch_87">
    <path clip-path="url(#p8f7ebf22bc)" d="M 742.906802 384.48 
L 742.906802 51.84 
L 747.163636 51.84 
L 747.163636 384.48 
z
" style="fill:#008000;opacity:0.04;"/>
   </g>
   <g id="matplotlib.axis_1">
    <g id="xtick_1">
     <g id="line2d_1">
      <defs>
       <path d="M 0 0 
L 0 3.5 
" id="mc6c146ad17" style="stroke:#000000;stroke-width:0.8;"/>
      </defs>
      <g>
       <use style="stroke:#000000;stroke-width:0.8;" x="138.436364" xlink:href="#mc6c146ad17" y="384.48"/>
      </g>
     </g>
     <g id="text_1">
      <!-- 0 -->
      <defs>
       <path d="M 31.78125 66.40625 
Q 24.171875 66.40625 20.328125 58.90625 
Q 16.5 51.421875 16.5 36.375 
Q 16.5 21.390625 20.328125 13.890625 
Q 24.171875 6.390625 31.78125 6.390625 
Q 39.453125 6.390625 43.28125 13.890625 
Q 47.125 21.390625 47.125 36.375 
Q 47.125 51.421875 43.28125 58.90625 
Q 39.453125 66.40625 31.78125 66.40625 
z
M 31.78125 74.21875 
Q 44.046875 74.21875 50.515625 64.515625 
Q 56.984375 54.828125 56.984375 36.375 
Q 56.984375 17.96875 50.515625 8.265625 
Q 44.046875 -1.421875 31.78125 -1.421875 
Q 19.53125 -1.421875 13.0625 8.265625 
Q 6.59375 17.96875 6.59375 36.375 
Q 6.59375 54.828125 13.0625 64.515625 
Q 19.53125 74.21875 31.78125 74.21875 
z
" id="DejaVuSans-48"/>
      </defs>
      <g transform="translate(135.255114 399.078438)scale(0.1 -0.1)">
       <use xlink:href="#DejaVuSans-48"/>
      </g>
     </g>
    </g>
    <g id="xtick_2">
     <g id="line2d_2">
      <g>
       <use style="stroke:#000000;stroke-width:0.8;" x="223.573045" xlink:href="#mc6c146ad17" y="384.48"/>
      </g>
     </g>
     <g id="text_2">
      <!-- 200 -->
      <defs>
       <path d="M 19.1875 8.296875 
L 53.609375 8.296875 
L 53.609375 0 
L 7.328125 0 
L 7.328125 8.296875 
Q 12.9375 14.109375 22.625 23.890625 
Q 32.328125 33.6875 34.8125 36.53125 
Q 39.546875 41.84375 41.421875 45.53125 
Q 43.3125 49.21875 43.3125 52.78125 
Q 43.3125 58.59375 39.234375 62.25 
Q 35.15625 65.921875 28.609375 65.921875 
Q 23.96875 65.921875 18.8125 64.3125 
Q 13.671875 62.703125 7.8125 59.421875 
L 7.8125 69.390625 
Q 13.765625 71.78125 18.9375 73 
Q 24.125 74.21875 28.421875 74.21875 
Q 39.75 74.21875 46.484375 68.546875 
Q 53.21875 62.890625 53.21875 53.421875 
Q 53.21875 48.921875 51.53125 44.890625 
Q 49.859375 40.875 45.40625 35.40625 
Q 44.1875 33.984375 37.640625 27.21875 
Q 31.109375 20.453125 19.1875 8.296875 
z
" id="DejaVuSans-50"/>
      </defs>
      <g transform="translate(214.029295 399.078438)scale(0.1 -0.1)">
       <use xlink:href="#DejaVuSans-50"/>
       <use x="63.623047" xlink:href="#DejaVuSans-48"/>
       <use x="127.246094" xlink:href="#DejaVuSans-48"/>
      </g>
     </g>
    </g>
    <g id="xtick_3">
     <g id="line2d_3">
      <g>
       <use style="stroke:#000000;stroke-width:0.8;" x="308.709727" xlink:href="#mc6c146ad17" y="384.48"/>
      </g>
     </g>
     <g id="text_3">
      <!-- 400 -->
      <defs>
       <path d="M 37.796875 64.3125 
L 12.890625 25.390625 
L 37.796875 25.390625 
z
M 35.203125 72.90625 
L 47.609375 72.90625 
L 47.609375 25.390625 
L 58.015625 25.390625 
L 58.015625 17.1875 
L 47.609375 17.1875 
L 47.609375 0 
L 37.796875 0 
L 37.796875 17.1875 
L 4.890625 17.1875 
L 4.890625 26.703125 
z
" id="DejaVuSans-52"/>
      </defs>
      <g transform="translate(299.165977 399.078438)scale(0.1 -0.1)">
       <use xlink:href="#DejaVuSans-52"/>
       <use x="63.623047" xlink:href="#DejaVuSans-48"/>
       <use x="127.246094" xlink:href="#DejaVuSans-48"/>
      </g>
     </g>
    </g>
    <g id="xtick_4">
     <g id="line2d_4">
      <g>
       <use style="stroke:#000000;stroke-width:0.8;" x="393.846408" xlink:href="#mc6c146ad17" y="384.48"/>
      </g>
     </g>
     <g id="text_4">
      <!-- 600 -->
      <defs>
       <path d="M 33.015625 40.375 
Q 26.375 40.375 22.484375 35.828125 
Q 18.609375 31.296875 18.609375 23.390625 
Q 18.609375 15.53125 22.484375 10.953125 
Q 26.375 6.390625 33.015625 6.390625 
Q 39.65625 6.390625 43.53125 10.953125 
Q 47.40625 15.53125 47.40625 23.390625 
Q 47.40625 31.296875 43.53125 35.828125 
Q 39.65625 40.375 33.015625 40.375 
z
M 52.59375 71.296875 
L 52.59375 62.3125 
Q 48.875 64.0625 45.09375 64.984375 
Q 41.3125 65.921875 37.59375 65.921875 
Q 27.828125 65.921875 22.671875 59.328125 
Q 17.53125 52.734375 16.796875 39.40625 
Q 19.671875 43.65625 24.015625 45.921875 
Q 28.375 48.1875 33.59375 48.1875 
Q 44.578125 48.1875 50.953125 41.515625 
Q 57.328125 34.859375 57.328125 23.390625 
Q 57.328125 12.15625 50.6875 5.359375 
Q 44.046875 -1.421875 33.015625 -1.421875 
Q 20.359375 -1.421875 13.671875 8.265625 
Q 6.984375 17.96875 6.984375 36.375 
Q 6.984375 53.65625 15.1875 63.9375 
Q 23.390625 74.21875 37.203125 74.21875 
Q 40.921875 74.21875 44.703125 73.484375 
Q 48.484375 72.75 52.59375 71.296875 
z
" id="DejaVuSans-54"/>
      </defs>
      <g transform="translate(384.302658 399.078438)scale(0.1 -0.1)">
       <use xlink:href="#DejaVuSans-54"/>
       <use x="63.623047" xlink:href="#DejaVuSans-48"/>
       <use x="127.246094" xlink:href="#DejaVuSans-48"/>
      </g>
     </g>
    </g>
    <g id="xtick_5">
     <g id="line2d_5">
      <g>
       <use style="stroke:#000000;stroke-width:0.8;" x="478.98309" xlink:href="#mc6c146ad17" y="384.48"/>
      </g>
     </g>
     <g id="text_5">
      <!-- 800 -->
      <defs>
       <path d="M 31.78125 34.625 
Q 24.75 34.625 20.71875 30.859375 
Q 16.703125 27.09375 16.703125 20.515625 
Q 16.703125 13.921875 20.71875 10.15625 
Q 24.75 6.390625 31.78125 6.390625 
Q 38.8125 6.390625 42.859375 10.171875 
Q 46.921875 13.96875 46.921875 20.515625 
Q 46.921875 27.09375 42.890625 30.859375 
Q 38.875 34.625 31.78125 34.625 
z
M 21.921875 38.8125 
Q 15.578125 40.375 12.03125 44.71875 
Q 8.5 49.078125 8.5 55.328125 
Q 8.5 64.0625 14.71875 69.140625 
Q 20.953125 74.21875 31.78125 74.21875 
Q 42.671875 74.21875 48.875 69.140625 
Q 55.078125 64.0625 55.078125 55.328125 
Q 55.078125 49.078125 51.53125 44.71875 
Q 48 40.375 41.703125 38.8125 
Q 48.828125 37.15625 52.796875 32.3125 
Q 56.78125 27.484375 56.78125 20.515625 
Q 56.78125 9.90625 50.3125 4.234375 
Q 43.84375 -1.421875 31.78125 -1.421875 
Q 19.734375 -1.421875 13.25 4.234375 
Q 6.78125 9.90625 6.78125 20.515625 
Q 6.78125 27.484375 10.78125 32.3125 
Q 14.796875 37.15625 21.921875 38.8125 
z
M 18.3125 54.390625 
Q 18.3125 48.734375 21.84375 45.5625 
Q 25.390625 42.390625 31.78125 42.390625 
Q 38.140625 42.390625 41.71875 45.5625 
Q 45.3125 48.734375 45.3125 54.390625 
Q 45.3125 60.0625 41.71875 63.234375 
Q 38.140625 66.40625 31.78125 66.40625 
Q 25.390625 66.40625 21.84375 63.234375 
Q 18.3125 60.0625 18.3125 54.390625 
z
" id="DejaVuSans-56"/>
      </defs>
      <g transform="translate(469.43934 399.078438)scale(0.1 -0.1)">
       <use xlink:href="#DejaVuSans-56"/>
       <use x="63.623047" xlink:href="#DejaVuSans-48"/>
       <use x="127.246094" xlink:href="#DejaVuSans-48"/>
      </g>
     </g>
    </g>
    <g id="xtick_6">
     <g id="line2d_6">
      <g>
       <use style="stroke:#000000;stroke-width:0.8;" x="564.119771" xlink:href="#mc6c146ad17" y="384.48"/>
      </g>
     </g>
     <g id="text_6">
      <!-- 1000 -->
      <defs>
       <path d="M 12.40625 8.296875 
L 28.515625 8.296875 
L 28.515625 63.921875 
L 10.984375 60.40625 
L 10.984375 69.390625 
L 28.421875 72.90625 
L 38.28125 72.90625 
L 38.28125 8.296875 
L 54.390625 8.296875 
L 54.390625 0 
L 12.40625 0 
z
" id="DejaVuSans-49"/>
      </defs>
      <g transform="translate(551.394771 399.078438)scale(0.1 -0.1)">
       <use xlink:href="#DejaVuSans-49"/>
       <use x="63.623047" xlink:href="#DejaVuSans-48"/>
       <use x="127.246094" xlink:href="#DejaVuSans-48"/>
       <use x="190.869141" xlink:href="#DejaVuSans-48"/>
      </g>
     </g>
    </g>
    <g id="xtick_7">
     <g id="line2d_7">
      <g>
       <use style="stroke:#000000;stroke-width:0.8;" x="649.256453" xlink:href="#mc6c146ad17" y="384.48"/>
      </g>
     </g>
     <g id="text_7">
      <!-- 1200 -->
      <g transform="translate(636.531453 399.078438)scale(0.1 -0.1)">
       <use xlink:href="#DejaVuSans-49"/>
       <use x="63.623047" xlink:href="#DejaVuSans-50"/>
       <use x="127.246094" xlink:href="#DejaVuSans-48"/>
       <use x="190.869141" xlink:href="#DejaVuSans-48"/>
      </g>
     </g>
    </g>
    <g id="xtick_8">
     <g id="line2d_8">
      <g>
       <use style="stroke:#000000;stroke-width:0.8;" x="734.393134" xlink:href="#mc6c146ad17" y="384.48"/>
      </g>
     </g>
     <g id="text_8">
      <!-- 1400 -->
      <g transform="translate(721.668134 399.078438)scale(0.1 -0.1)">
       <use xlink:href="#DejaVuSans-49"/>
       <use x="63.623047" xlink:href="#DejaVuSans-52"/>
       <use x="127.246094" xlink:href="#DejaVuSans-48"/>
       <use x="190.869141" xlink:href="#DejaVuSans-48"/>
      </g>
     </g>
    </g>
    <g id="text_9">
     <!-- Timestamp -->
     <defs>
      <path d="M -0.296875 72.90625 
L 61.375 72.90625 
L 61.375 64.59375 
L 35.5 64.59375 
L 35.5 0 
L 25.59375 0 
L 25.59375 64.59375 
L -0.296875 64.59375 
z
" id="DejaVuSans-84"/>
      <path d="M 9.421875 54.6875 
L 18.40625 54.6875 
L 18.40625 0 
L 9.421875 0 
z
M 9.421875 75.984375 
L 18.40625 75.984375 
L 18.40625 64.59375 
L 9.421875 64.59375 
z
" id="DejaVuSans-105"/>
      <path d="M 52 44.1875 
Q 55.375 50.25 60.0625 53.125 
Q 64.75 56 71.09375 56 
Q 79.640625 56 84.28125 50.015625 
Q 88.921875 44.046875 88.921875 33.015625 
L 88.921875 0 
L 79.890625 0 
L 79.890625 32.71875 
Q 79.890625 40.578125 77.09375 44.375 
Q 74.3125 48.1875 68.609375 48.1875 
Q 61.625 48.1875 57.5625 43.546875 
Q 53.515625 38.921875 53.515625 30.90625 
L 53.515625 0 
L 44.484375 0 
L 44.484375 32.71875 
Q 44.484375 40.625 41.703125 44.40625 
Q 38.921875 48.1875 33.109375 48.1875 
Q 26.21875 48.1875 22.15625 43.53125 
Q 18.109375 38.875 18.109375 30.90625 
L 18.109375 0 
L 9.078125 0 
L 9.078125 54.6875 
L 18.109375 54.6875 
L 18.109375 46.1875 
Q 21.1875 51.21875 25.484375 53.609375 
Q 29.78125 56 35.6875 56 
Q 41.65625 56 45.828125 52.96875 
Q 50 49.953125 52 44.1875 
z
" id="DejaVuSans-109"/>
      <path d="M 56.203125 29.59375 
L 56.203125 25.203125 
L 14.890625 25.203125 
Q 15.484375 15.921875 20.484375 11.0625 
Q 25.484375 6.203125 34.421875 6.203125 
Q 39.59375 6.203125 44.453125 7.46875 
Q 49.3125 8.734375 54.109375 11.28125 
L 54.109375 2.78125 
Q 49.265625 0.734375 44.1875 -0.34375 
Q 39.109375 -1.421875 33.890625 -1.421875 
Q 20.796875 -1.421875 13.15625 6.1875 
Q 5.515625 13.8125 5.515625 26.8125 
Q 5.515625 40.234375 12.765625 48.109375 
Q 20.015625 56 32.328125 56 
Q 43.359375 56 49.78125 48.890625 
Q 56.203125 41.796875 56.203125 29.59375 
z
M 47.21875 32.234375 
Q 47.125 39.59375 43.09375 43.984375 
Q 39.0625 48.390625 32.421875 48.390625 
Q 24.90625 48.390625 20.390625 44.140625 
Q 15.875 39.890625 15.1875 32.171875 
z
" id="DejaVuSans-101"/>
      <path d="M 44.28125 53.078125 
L 44.28125 44.578125 
Q 40.484375 46.53125 36.375 47.5 
Q 32.28125 48.484375 27.875 48.484375 
Q 21.1875 48.484375 17.84375 46.4375 
Q 14.5 44.390625 14.5 40.28125 
Q 14.5 37.15625 16.890625 35.375 
Q 19.28125 33.59375 26.515625 31.984375 
L 29.59375 31.296875 
Q 39.15625 29.25 43.1875 25.515625 
Q 47.21875 21.78125 47.21875 15.09375 
Q 47.21875 7.46875 41.1875 3.015625 
Q 35.15625 -1.421875 24.609375 -1.421875 
Q 20.21875 -1.421875 15.453125 -0.5625 
Q 10.6875 0.296875 5.421875 2 
L 5.421875 11.28125 
Q 10.40625 8.6875 15.234375 7.390625 
Q 20.0625 6.109375 24.8125 6.109375 
Q 31.15625 6.109375 34.5625 8.28125 
Q 37.984375 10.453125 37.984375 14.40625 
Q 37.984375 18.0625 35.515625 20.015625 
Q 33.0625 21.96875 24.703125 23.78125 
L 21.578125 24.515625 
Q 13.234375 26.265625 9.515625 29.90625 
Q 5.8125 33.546875 5.8125 39.890625 
Q 5.8125 47.609375 11.28125 51.796875 
Q 16.75 56 26.8125 56 
Q 31.78125 56 36.171875 55.265625 
Q 40.578125 54.546875 44.28125 53.078125 
z
" id="DejaVuSans-115"/>
      <path d="M 18.3125 70.21875 
L 18.3125 54.6875 
L 36.8125 54.6875 
L 36.8125 47.703125 
L 18.3125 47.703125 
L 18.3125 18.015625 
Q 18.3125 11.328125 20.140625 9.421875 
Q 21.96875 7.515625 27.59375 7.515625 
L 36.8125 7.515625 
L 36.8125 0 
L 27.59375 0 
Q 17.1875 0 13.234375 3.875 
Q 9.28125 7.765625 9.28125 18.015625 
L 9.28125 47.703125 
L 2.6875 47.703125 
L 2.6875 54.6875 
L 9.28125 54.6875 
L 9.28125 70.21875 
z
" id="DejaVuSans-116"/>
      <path d="M 34.28125 27.484375 
Q 23.390625 27.484375 19.1875 25 
Q 14.984375 22.515625 14.984375 16.5 
Q 14.984375 11.71875 18.140625 8.90625 
Q 21.296875 6.109375 26.703125 6.109375 
Q 34.1875 6.109375 38.703125 11.40625 
Q 43.21875 16.703125 43.21875 25.484375 
L 43.21875 27.484375 
z
M 52.203125 31.203125 
L 52.203125 0 
L 43.21875 0 
L 43.21875 8.296875 
Q 40.140625 3.328125 35.546875 0.953125 
Q 30.953125 -1.421875 24.3125 -1.421875 
Q 15.921875 -1.421875 10.953125 3.296875 
Q 6 8.015625 6 15.921875 
Q 6 25.140625 12.171875 29.828125 
Q 18.359375 34.515625 30.609375 34.515625 
L 43.21875 34.515625 
L 43.21875 35.40625 
Q 43.21875 41.609375 39.140625 45 
Q 35.0625 48.390625 27.6875 48.390625 
Q 23 48.390625 18.546875 47.265625 
Q 14.109375 46.140625 10.015625 43.890625 
L 10.015625 52.203125 
Q 14.9375 54.109375 19.578125 55.046875 
Q 24.21875 56 28.609375 56 
Q 40.484375 56 46.34375 49.84375 
Q 52.203125 43.703125 52.203125 31.203125 
z
" id="DejaVuSans-97"/>
      <path d="M 18.109375 8.203125 
L 18.109375 -20.796875 
L 9.078125 -20.796875 
L 9.078125 54.6875 
L 18.109375 54.6875 
L 18.109375 46.390625 
Q 20.953125 51.265625 25.265625 53.625 
Q 29.59375 56 35.59375 56 
Q 45.5625 56 51.78125 48.09375 
Q 58.015625 40.1875 58.015625 27.296875 
Q 58.015625 14.40625 51.78125 6.484375 
Q 45.5625 -1.421875 35.59375 -1.421875 
Q 29.59375 -1.421875 25.265625 0.953125 
Q 20.953125 3.328125 18.109375 8.203125 
z
M 48.6875 27.296875 
Q 48.6875 37.203125 44.609375 42.84375 
Q 40.53125 48.484375 33.40625 48.484375 
Q 26.265625 48.484375 22.1875 42.84375 
Q 18.109375 37.203125 18.109375 27.296875 
Q 18.109375 17.390625 22.1875 11.75 
Q 26.265625 6.109375 33.40625 6.109375 
Q 40.53125 6.109375 44.609375 11.75 
Q 48.6875 17.390625 48.6875 27.296875 
z
" id="DejaVuSans-112"/>
     </defs>
     <g transform="translate(414.739062 412.756563)scale(0.1 -0.1)">
      <use xlink:href="#DejaVuSans-84"/>
      <use x="61.037109" xlink:href="#DejaVuSans-105"/>
      <use x="88.820312" xlink:href="#DejaVuSans-109"/>
      <use x="186.232422" xlink:href="#DejaVuSans-101"/>
      <use x="247.755859" xlink:href="#DejaVuSans-115"/>
      <use x="299.855469" xlink:href="#DejaVuSans-116"/>
      <use x="339.064453" xlink:href="#DejaVuSans-97"/>
      <use x="400.34375" xlink:href="#DejaVuSans-109"/>
      <use x="497.755859" xlink:href="#DejaVuSans-112"/>
     </g>
    </g>
   </g>
   <g id="matplotlib.axis_2">
    <g id="ytick_1">
     <g id="line2d_9">
      <defs>
       <path d="M 0 0 
L -3.5 0 
" id="m11f3017dba" style="stroke:#000000;stroke-width:0.8;"/>
      </defs>
      <g>
       <use style="stroke:#000000;stroke-width:0.8;" x="108" xlink:href="#m11f3017dba" y="369.482887"/>
      </g>
     </g>
     <g id="text_10">
      <!-- 0 -->
      <g transform="translate(94.6375 373.282105)scale(0.1 -0.1)">
       <use xlink:href="#DejaVuSans-48"/>
      </g>
     </g>
    </g>
    <g id="ytick_2">
     <g id="line2d_10">
      <g>
       <use style="stroke:#000000;stroke-width:0.8;" x="108" xlink:href="#m11f3017dba" y="323.689796"/>
      </g>
     </g>
     <g id="text_11">
      <!-- 10000 -->
      <g transform="translate(69.1875 327.489015)scale(0.1 -0.1)">
       <use xlink:href="#DejaVuSans-49"/>
       <use x="63.623047" xlink:href="#DejaVuSans-48"/>
       <use x="127.246094" xlink:href="#DejaVuSans-48"/>
       <use x="190.869141" xlink:href="#DejaVuSans-48"/>
       <use x="254.492188" xlink:href="#DejaVuSans-48"/>
      </g>
     </g>
    </g>
    <g id="ytick_3">
     <g id="line2d_11">
      <g>
       <use style="stroke:#000000;stroke-width:0.8;" x="108" xlink:href="#m11f3017dba" y="277.896705"/>
      </g>
     </g>
     <g id="text_12">
      <!-- 20000 -->
      <g transform="translate(69.1875 281.695924)scale(0.1 -0.1)">
       <use xlink:href="#DejaVuSans-50"/>
       <use x="63.623047" xlink:href="#DejaVuSans-48"/>
       <use x="127.246094" xlink:href="#DejaVuSans-48"/>
       <use x="190.869141" xlink:href="#DejaVuSans-48"/>
       <use x="254.492188" xlink:href="#DejaVuSans-48"/>
      </g>
     </g>
    </g>
    <g id="ytick_4">
     <g id="line2d_12">
      <g>
       <use style="stroke:#000000;stroke-width:0.8;" x="108" xlink:href="#m11f3017dba" y="232.103614"/>
      </g>
     </g>
     <g id="text_13">
      <!-- 30000 -->
      <defs>
       <path d="M 40.578125 39.3125 
Q 47.65625 37.796875 51.625 33 
Q 55.609375 28.21875 55.609375 21.1875 
Q 55.609375 10.40625 48.1875 4.484375 
Q 40.765625 -1.421875 27.09375 -1.421875 
Q 22.515625 -1.421875 17.65625 -0.515625 
Q 12.796875 0.390625 7.625 2.203125 
L 7.625 11.71875 
Q 11.71875 9.328125 16.59375 8.109375 
Q 21.484375 6.890625 26.8125 6.890625 
Q 36.078125 6.890625 40.9375 10.546875 
Q 45.796875 14.203125 45.796875 21.1875 
Q 45.796875 27.640625 41.28125 31.265625 
Q 36.765625 34.90625 28.71875 34.90625 
L 20.21875 34.90625 
L 20.21875 43.015625 
L 29.109375 43.015625 
Q 36.375 43.015625 40.234375 45.921875 
Q 44.09375 48.828125 44.09375 54.296875 
Q 44.09375 59.90625 40.109375 62.90625 
Q 36.140625 65.921875 28.71875 65.921875 
Q 24.65625 65.921875 20.015625 65.03125 
Q 15.375 64.15625 9.8125 62.3125 
L 9.8125 71.09375 
Q 15.4375 72.65625 20.34375 73.4375 
Q 25.25 74.21875 29.59375 74.21875 
Q 40.828125 74.21875 47.359375 69.109375 
Q 53.90625 64.015625 53.90625 55.328125 
Q 53.90625 49.265625 50.4375 45.09375 
Q 46.96875 40.921875 40.578125 39.3125 
z
" id="DejaVuSans-51"/>
      </defs>
      <g transform="translate(69.1875 235.902833)scale(0.1 -0.1)">
       <use xlink:href="#DejaVuSans-51"/>
       <use x="63.623047" xlink:href="#DejaVuSans-48"/>
       <use x="127.246094" xlink:href="#DejaVuSans-48"/>
       <use x="190.869141" xlink:href="#DejaVuSans-48"/>
       <use x="254.492188" xlink:href="#DejaVuSans-48"/>
      </g>
     </g>
    </g>
    <g id="ytick_5">
     <g id="line2d_13">
      <g>
       <use style="stroke:#000000;stroke-width:0.8;" x="108" xlink:href="#m11f3017dba" y="186.310523"/>
      </g>
     </g>
     <g id="text_14">
      <!-- 40000 -->
      <g transform="translate(69.1875 190.109742)scale(0.1 -0.1)">
       <use xlink:href="#DejaVuSans-52"/>
       <use x="63.623047" xlink:href="#DejaVuSans-48"/>
       <use x="127.246094" xlink:href="#DejaVuSans-48"/>
       <use x="190.869141" xlink:href="#DejaVuSans-48"/>
       <use x="254.492188" xlink:href="#DejaVuSans-48"/>
      </g>
     </g>
    </g>
    <g id="ytick_6">
     <g id="line2d_14">
      <g>
       <use style="stroke:#000000;stroke-width:0.8;" x="108" xlink:href="#m11f3017dba" y="140.517433"/>
      </g>
     </g>
     <g id="text_15">
      <!-- 50000 -->
      <defs>
       <path d="M 10.796875 72.90625 
L 49.515625 72.90625 
L 49.515625 64.59375 
L 19.828125 64.59375 
L 19.828125 46.734375 
Q 21.96875 47.46875 24.109375 47.828125 
Q 26.265625 48.1875 28.421875 48.1875 
Q 40.625 48.1875 47.75 41.5 
Q 54.890625 34.8125 54.890625 23.390625 
Q 54.890625 11.625 47.5625 5.09375 
Q 40.234375 -1.421875 26.90625 -1.421875 
Q 22.3125 -1.421875 17.546875 -0.640625 
Q 12.796875 0.140625 7.71875 1.703125 
L 7.71875 11.625 
Q 12.109375 9.234375 16.796875 8.0625 
Q 21.484375 6.890625 26.703125 6.890625 
Q 35.15625 6.890625 40.078125 11.328125 
Q 45.015625 15.765625 45.015625 23.390625 
Q 45.015625 31 40.078125 35.4375 
Q 35.15625 39.890625 26.703125 39.890625 
Q 22.75 39.890625 18.8125 39.015625 
Q 14.890625 38.140625 10.796875 36.28125 
z
" id="DejaVuSans-53"/>
      </defs>
      <g transform="translate(69.1875 144.316651)scale(0.1 -0.1)">
       <use xlink:href="#DejaVuSans-53"/>
       <use x="63.623047" xlink:href="#DejaVuSans-48"/>
       <use x="127.246094" xlink:href="#DejaVuSans-48"/>
       <use x="190.869141" xlink:href="#DejaVuSans-48"/>
       <use x="254.492188" xlink:href="#DejaVuSans-48"/>
      </g>
     </g>
    </g>
    <g id="ytick_7">
     <g id="line2d_15">
      <g>
       <use style="stroke:#000000;stroke-width:0.8;" x="108" xlink:href="#m11f3017dba" y="94.724342"/>
      </g>
     </g>
     <g id="text_16">
      <!-- 60000 -->
      <g transform="translate(69.1875 98.523561)scale(0.1 -0.1)">
       <use xlink:href="#DejaVuSans-54"/>
       <use x="63.623047" xlink:href="#DejaVuSans-48"/>
       <use x="127.246094" xlink:href="#DejaVuSans-48"/>
       <use x="190.869141" xlink:href="#DejaVuSans-48"/>
       <use x="254.492188" xlink:href="#DejaVuSans-48"/>
      </g>
     </g>
    </g>
    <g id="text_17">
     <!-- Value -->
     <defs>
      <path d="M 28.609375 0 
L 0.78125 72.90625 
L 11.078125 72.90625 
L 34.1875 11.53125 
L 57.328125 72.90625 
L 67.578125 72.90625 
L 39.796875 0 
z
" id="DejaVuSans-86"/>
      <path d="M 9.421875 75.984375 
L 18.40625 75.984375 
L 18.40625 0 
L 9.421875 0 
z
" id="DejaVuSans-108"/>
      <path d="M 8.5 21.578125 
L 8.5 54.6875 
L 17.484375 54.6875 
L 17.484375 21.921875 
Q 17.484375 14.15625 20.5 10.265625 
Q 23.53125 6.390625 29.59375 6.390625 
Q 36.859375 6.390625 41.078125 11.03125 
Q 45.3125 15.671875 45.3125 23.6875 
L 45.3125 54.6875 
L 54.296875 54.6875 
L 54.296875 0 
L 45.3125 0 
L 45.3125 8.40625 
Q 42.046875 3.421875 37.71875 1 
Q 33.40625 -1.421875 27.6875 -1.421875 
Q 18.265625 -1.421875 13.375 4.4375 
Q 8.5 10.296875 8.5 21.578125 
z
M 31.109375 56 
z
" id="DejaVuSans-117"/>
     </defs>
     <g transform="translate(63.107813 232.273281)rotate(-90)scale(0.1 -0.1)">
      <use xlink:href="#DejaVuSans-86"/>
      <use x="68.298828" xlink:href="#DejaVuSans-97"/>
      <use x="129.578125" xlink:href="#DejaVuSans-108"/>
      <use x="157.361328" xlink:href="#DejaVuSans-117"/>
      <use x="220.740234" xlink:href="#DejaVuSans-101"/>
     </g>
    </g>
   </g>
   <g id="line2d_16">
    <path clip-path="url(#p8f7ebf22bc)" d="M 138.436364 368.280491 
L 138.862047 369.36 
L 139.28773 367.601317 
L 139.713414 367.341727 
L 140.139097 367.782923 
L 140.564781 369.18437 
L 141.416147 367.482695 
L 141.841831 366.926018 
L 142.267514 364.515656 
L 143.118881 366.720003 
L 143.544565 366.729752 
L 143.970248 365.686676 
L 144.821615 365.21758 
L 145.247298 364.354075 
L 145.672982 365.075403 
L 146.098665 363.638596 
L 146.524348 364.830426 
L 146.950032 363.676683 
L 147.375715 362.8873 
L 147.801399 362.842159 
L 148.227082 362.0015 
L 148.652765 362.505812 
L 149.504132 361.023463 
L 149.929816 362.34407 
L 150.355499 362.635414 
L 150.781182 361.248741 
L 151.632549 361.337492 
L 152.058233 361.037183 
L 152.483916 361.027946 
L 152.909599 359.63221 
L 153.335283 359.074698 
L 153.760966 359.035255 
L 154.18665 360.106117 
L 154.612333 358.48141 
L 155.038017 359.64959 
L 155.4637 357.715275 
L 156.315067 359.364579 
L 157.166434 359.732413 
L 157.592117 359.526362 
L 158.0178 359.851414 
L 158.443484 357.368454 
L 158.869167 357.555691 
L 159.294851 358.392752 
L 159.720534 357.878672 
L 160.146217 358.365492 
L 160.571901 355.832244 
L 160.997584 358.601764 
L 161.423268 357.899601 
L 162.274634 357.222424 
L 162.700318 357.880124 
L 163.126001 359.646938 
L 163.551685 358.786317 
L 163.977368 357.353167 
L 164.403051 357.668863 
L 164.828735 358.480559 
L 165.254418 357.763989 
L 165.680102 358.38648 
L 166.105785 357.478768 
L 166.531469 358.959998 
L 166.957152 357.422092 
L 168.234202 357.844341 
L 168.659886 357.686178 
L 169.085569 358.534068 
L 169.511252 358.130622 
L 169.936936 357.510134 
L 170.362619 357.197158 
L 170.788303 358.107756 
L 171.213986 358.413984 
L 171.639669 359.190121 
L 172.065353 359.734865 
L 172.491036 359.263263 
L 172.91672 357.561119 
L 173.342403 358.077651 
L 173.768086 359.042886 
L 174.19377 359.322997 
L 174.619453 359.420894 
L 175.045137 358.287644 
L 175.47082 359.508091 
L 175.896503 358.27731 
L 176.322187 358.920824 
L 176.74787 358.461867 
L 177.173554 360.475065 
L 177.599237 359.817764 
L 178.024921 360.709979 
L 178.450604 359.532841 
L 179.301971 360.531058 
L 179.727654 359.125375 
L 180.153338 360.312593 
L 180.579021 359.754551 
L 181.004704 360.054584 
L 181.430388 361.528859 
L 181.856071 361.497772 
L 182.281755 361.026099 
L 182.707438 362.161445 
L 183.133121 360.772093 
L 183.558805 362.498114 
L 183.984488 360.055011 
L 184.410172 362.010626 
L 184.835855 360.197738 
L 185.261538 362.116198 
L 185.687222 362.692089 
L 186.112905 361.902129 
L 186.538589 361.979108 
L 186.964272 363.547482 
L 187.389955 361.226802 
L 187.815639 363.193857 
L 188.241322 361.982602 
L 188.667006 361.900158 
L 189.518373 362.53542 
L 189.944056 362.300098 
L 190.369739 363.443802 
L 190.795423 363.242109 
L 191.221106 363.538539 
L 191.64679 361.201331 
L 192.072473 361.286294 
L 192.92384 363.68234 
L 193.775207 361.264192 
L 194.20089 362.983923 
L 194.626573 361.844844 
L 195.052257 363.36286 
L 195.47794 361.869456 
L 195.903624 363.263089 
L 196.329307 363.452157 
L 196.75499 363.152651 
L 197.606357 362.973031 
L 198.032041 361.448025 
L 198.457724 361.949289 
L 198.883408 362.198155 
L 199.309091 362.764011 
L 199.734774 362.593942 
L 200.160458 362.261523 
L 200.586141 362.446928 
L 201.011825 361.730155 
L 201.437508 360.789186 
L 201.863191 362.091013 
L 202.288875 359.622381 
L 202.714558 361.898396 
L 203.140242 360.67207 
L 203.565925 358.344578 
L 204.417292 360.277334 
L 204.842975 360.62409 
L 205.268659 359.161072 
L 205.694342 359.479164 
L 206.120025 359.587559 
L 206.545709 358.767176 
L 206.971392 359.252432 
L 207.397076 356.273491 
L 208.248442 357.448448 
L 208.674126 357.264222 
L 209.099809 358.115532 
L 209.525493 356.613667 
L 209.951176 357.436251 
L 210.37686 357.751398 
L 210.802543 354.956525 
L 211.228226 357.145886 
L 211.65391 356.316363 
L 212.505277 356.327441 
L 212.93096 354.68995 
L 213.356643 356.257995 
L 213.782327 354.814215 
L 214.20801 354.841872 
L 214.633694 355.258572 
L 215.059377 353.804984 
L 215.48506 353.818836 
L 215.910744 353.656605 
L 216.336427 351.975431 
L 216.762111 352.061365 
L 217.187794 352.298383 
L 217.613477 351.77361 
L 218.039161 352.245812 
L 218.464844 351.46692 
L 218.890528 350.016381 
L 219.316211 350.684549 
L 219.741894 350.218051 
L 220.167578 348.278655 
L 220.593261 350.355767 
L 221.018945 348.591457 
L 221.444628 347.558387 
L 221.870312 349.74914 
L 222.295995 348.498432 
L 222.721678 348.552156 
L 223.147362 348.339696 
L 223.573045 348.526519 
L 223.998729 348.099694 
L 224.424412 345.912164 
L 224.850095 346.212517 
L 225.275779 345.766092 
L 225.701462 344.798231 
L 226.127146 346.19937 
L 226.552829 344.888672 
L 226.978512 345.38291 
L 227.404196 345.499509 
L 227.829879 343.986392 
L 228.255563 344.503926 
L 228.681246 345.213295 
L 229.106929 344.238647 
L 229.532613 342.476615 
L 229.958296 342.518666 
L 230.38398 344.583668 
L 230.809663 342.995805 
L 231.235346 342.113405 
L 231.66103 344.057176 
L 232.086713 341.191928 
L 232.512397 342.691279 
L 232.93808 341.773326 
L 233.363764 341.992588 
L 233.789447 340.256563 
L 234.21513 342.744393 
L 234.640814 341.405488 
L 235.066497 342.051084 
L 235.917864 338.84482 
L 236.343547 341.971415 
L 236.769231 340.559746 
L 237.194914 340.50053 
L 237.620598 338.89629 
L 238.046281 340.983349 
L 238.897648 338.421311 
L 239.323331 340.034664 
L 239.749015 340.332178 
L 240.600381 339.113659 
L 241.026065 340.367866 
L 241.451748 338.005259 
L 241.877432 339.355837 
L 242.303115 341.851613 
L 242.728798 340.236157 
L 243.154482 337.877922 
L 243.580165 340.056325 
L 244.005849 339.267815 
L 244.431532 339.125391 
L 244.857216 340.549398 
L 245.282899 338.719924 
L 245.708582 338.783385 
L 246.134266 337.522091 
L 246.985633 339.125477 
L 247.411316 339.295933 
L 247.836999 338.726031 
L 248.262683 340.070203 
L 248.688366 339.24507 
L 249.539733 338.957847 
L 249.965416 340.489777 
L 250.3911 338.281692 
L 250.816783 339.014259 
L 251.242467 337.507502 
L 251.66815 341.429591 
L 252.093833 340.372473 
L 252.519517 341.440066 
L 252.9452 340.396166 
L 253.370884 339.847509 
L 253.796567 338.723619 
L 254.22225 340.697522 
L 254.647934 341.457752 
L 255.499301 340.072909 
L 255.924984 340.563595 
L 256.350668 339.677994 
L 257.202034 342.494263 
L 257.627718 340.333046 
L 258.053401 342.25242 
L 258.479085 340.85346 
L 259.330451 341.299631 
L 259.756135 340.229939 
L 260.181818 342.032771 
L 260.607502 343.116184 
L 261.033185 342.024766 
L 261.458868 342.395805 
L 262.310235 340.984686 
L 262.735919 344.10451 
L 263.161602 342.816517 
L 263.587285 342.672402 
L 264.012969 342.355353 
L 264.438652 343.545314 
L 264.864336 342.691179 
L 265.290019 342.793181 
L 265.715702 343.228436 
L 266.141386 343.413912 
L 266.567069 342.106076 
L 266.992753 342.879622 
L 267.418436 341.83403 
L 267.84412 343.852508 
L 268.269803 344.773365 
L 268.695486 344.094019 
L 269.12117 343.72112 
L 269.546853 344.068321 
L 269.972537 344.268483 
L 270.39822 345.331043 
L 270.823903 344.686759 
L 271.249587 344.980623 
L 271.67527 343.778862 
L 272.100954 343.767878 
L 272.526637 342.737808 
L 272.95232 344.381625 
L 273.378004 343.266701 
L 273.803687 344.511904 
L 274.229371 345.407853 
L 274.655054 343.686453 
L 275.080737 344.498025 
L 275.506421 344.744003 
L 275.932104 344.639578 
L 276.357788 342.981775 
L 276.783471 342.509458 
L 277.209154 342.946867 
L 278.060521 344.838924 
L 278.486205 343.420961 
L 278.911888 342.556954 
L 279.337572 342.706519 
L 279.763255 343.064921 
L 280.188938 343.03966 
L 280.614622 343.858851 
L 281.040305 342.61274 
L 281.465989 342.825032 
L 281.891672 342.68033 
L 282.317355 342.775438 
L 282.743039 343.463771 
L 283.168722 342.814648 
L 283.594406 341.464689 
L 284.020089 341.9325 
L 284.445772 341.778936 
L 284.871456 341.773371 
L 285.297139 340.197601 
L 285.722823 341.212328 
L 286.148506 340.810168 
L 286.574189 340.691114 
L 286.999873 341.451616 
L 287.425556 340.448877 
L 287.85124 339.041005 
L 288.276923 339.536169 
L 288.702606 340.971677 
L 289.12829 339.393499 
L 289.553973 338.725763 
L 289.979657 339.030362 
L 290.40534 338.024737 
L 291.256707 339.104088 
L 291.68239 337.277666 
L 292.108074 337.412945 
L 292.533757 336.890274 
L 292.959441 336.174612 
L 293.385124 336.628308 
L 293.810807 337.938944 
L 294.236491 336.117256 
L 294.662174 337.361898 
L 295.513541 334.501031 
L 295.939224 336.539396 
L 296.364908 334.638704 
L 296.790591 334.959556 
L 297.216275 334.384566 
L 297.641958 332.95991 
L 298.067641 333.106426 
L 298.493325 332.063795 
L 298.919008 333.877149 
L 299.770375 332.925491 
L 300.196058 332.068124 
L 300.621742 332.520855 
L 301.047425 332.052167 
L 301.473109 331.87868 
L 301.898792 330.189962 
L 302.324476 329.931997 
L 302.750159 329.305383 
L 303.175842 327.475653 
L 303.601526 329.659823 
L 304.027209 328.603742 
L 304.452893 326.049027 
L 304.878576 328.121355 
L 305.304259 328.380553 
L 305.729943 328.882258 
L 306.155626 328.224543 
L 306.58131 328.941682 
L 307.006993 328.561784 
L 307.432676 327.266413 
L 307.85836 326.362645 
L 308.284043 326.34049 
L 308.709727 326.455323 
L 309.13541 327.448324 
L 309.561093 325.028302 
L 309.986777 324.955492 
L 310.41246 323.701267 
L 310.838144 326.501767 
L 311.68951 322.889741 
L 312.115194 324.09852 
L 312.540877 322.775128 
L 312.966561 323.275109 
L 313.392244 323.455544 
L 313.817928 322.579086 
L 314.243611 324.763882 
L 314.669294 323.302572 
L 315.520661 321.484894 
L 316.372028 322.167775 
L 316.797711 321.189462 
L 317.649078 322.874149 
L 318.074762 321.799996 
L 318.500445 321.798735 
L 318.926128 321.216521 
L 319.351812 321.76494 
L 319.777495 320.759464 
L 320.203179 319.433394 
L 320.628862 322.720606 
L 321.054545 320.558188 
L 321.480229 321.628104 
L 321.905912 321.480145 
L 322.331596 322.459249 
L 322.757279 321.045276 
L 323.182962 320.480455 
L 323.608646 321.982874 
L 324.034329 319.007198 
L 324.460013 321.342023 
L 324.885696 322.652309 
L 325.737063 318.584523 
L 326.162746 319.246063 
L 326.58843 319.531882 
L 327.439797 320.277549 
L 328.716847 322.716849 
L 329.14253 321.84496 
L 329.568214 322.420068 
L 329.993897 321.776706 
L 330.41958 320.332235 
L 330.845264 321.804742 
L 331.270947 322.442687 
L 331.696631 322.017998 
L 332.122314 322.74518 
L 332.547997 320.61822 
L 332.973681 322.71741 
L 333.399364 321.617427 
L 334.676414 320.112344 
L 335.102098 323.407225 
L 335.527781 321.160383 
L 335.953465 322.559578 
L 336.379148 322.336663 
L 336.804832 321.020557 
L 337.230515 322.927129 
L 337.656198 321.912916 
L 338.081882 322.701209 
L 338.507565 323.161304 
L 338.933249 321.612872 
L 339.358932 323.157723 
L 339.784615 323.262068 
L 340.210299 322.582111 
L 340.635982 322.505566 
L 341.061666 324.228097 
L 341.487349 322.531177 
L 341.913032 324.203406 
L 342.338716 324.534445 
L 342.764399 325.910344 
L 343.190083 324.105926 
L 343.615766 323.808667 
L 344.041449 324.809909 
L 344.467133 323.207669 
L 345.3185 324.405172 
L 345.744183 323.006451 
L 346.169866 325.993562 
L 346.59555 324.518237 
L 347.021233 324.113477 
L 347.446917 325.805139 
L 347.8726 325.236707 
L 348.298284 325.134291 
L 348.723967 325.543759 
L 349.14965 325.158205 
L 349.575334 325.414426 
L 350.001017 326.06136 
L 350.426701 324.718376 
L 350.852384 325.933707 
L 351.278067 326.017014 
L 352.129434 324.049251 
L 352.555118 327.095345 
L 352.980801 325.398694 
L 353.406484 325.235332 
L 353.832168 325.562171 
L 354.257851 323.347015 
L 354.683535 324.479083 
L 355.109218 326.031988 
L 355.534901 326.090601 
L 355.960585 324.717121 
L 356.386268 324.601441 
L 356.811952 324.812459 
L 357.237635 325.922863 
L 357.663318 324.86795 
L 358.089002 325.345177 
L 358.514685 323.591517 
L 358.940369 325.88185 
L 359.366052 325.02309 
L 359.791736 325.858682 
L 360.217419 325.72466 
L 360.643102 324.758313 
L 361.494469 324.969833 
L 361.920153 323.053282 
L 362.345836 324.200474 
L 362.771519 322.984921 
L 363.197203 324.85096 
L 363.622886 324.055129 
L 364.04857 324.909013 
L 364.474253 322.254837 
L 364.899936 324.200853 
L 365.32562 321.873894 
L 365.751303 323.844643 
L 366.176987 322.86832 
L 366.60267 325.102104 
L 367.028353 322.59882 
L 367.454037 322.159488 
L 367.87972 323.634472 
L 368.305404 321.98545 
L 368.731087 321.809012 
L 369.156771 322.881419 
L 369.582454 320.247714 
L 370.008137 321.850512 
L 370.859504 319.793238 
L 371.285188 320.487737 
L 371.710871 319.113963 
L 372.136554 319.384727 
L 372.562238 317.924174 
L 372.987921 319.529883 
L 373.413605 319.686038 
L 373.839288 318.074101 
L 374.264971 318.271983 
L 374.690655 318.070324 
L 375.116338 317.085213 
L 375.542022 316.800276 
L 375.967705 316.910259 
L 376.393388 316.07147 
L 377.670439 314.870365 
L 378.096122 314.27641 
L 378.521805 315.219401 
L 378.947489 315.175867 
L 379.373172 315.554573 
L 379.798856 314.378757 
L 380.224539 314.671098 
L 380.650223 313.190266 
L 381.075906 313.413652 
L 381.927273 313.475548 
L 382.352956 312.259625 
L 383.204323 312.801347 
L 383.630006 312.62956 
L 384.05569 310.130919 
L 384.481373 311.386506 
L 384.907057 311.163076 
L 385.33274 310.456425 
L 385.758423 310.411878 
L 386.60979 309.606333 
L 387.035474 309.57739 
L 387.461157 309.727386 
L 387.88684 307.86984 
L 388.312524 308.318479 
L 388.738207 309.218634 
L 389.163891 306.987606 
L 389.589574 308.955816 
L 390.015257 307.531188 
L 390.440941 307.182689 
L 390.866624 307.50796 
L 391.292308 306.196813 
L 391.717991 307.531717 
L 392.143675 304.658283 
L 392.569358 305.443547 
L 392.995041 304.061681 
L 393.420725 304.774502 
L 393.846408 306.609712 
L 394.272092 304.368716 
L 394.697775 304.350616 
L 395.123458 303.659854 
L 395.549142 303.438111 
L 395.974825 303.804876 
L 396.400509 303.487365 
L 396.826192 304.388255 
L 397.251875 302.342503 
L 397.677559 305.125399 
L 398.103242 305.088726 
L 398.528926 304.441911 
L 398.954609 302.391724 
L 399.380292 304.038533 
L 399.805976 303.29492 
L 400.231659 302.782945 
L 400.657343 303.181958 
L 401.083026 304.492626 
L 401.508709 301.565512 
L 401.934393 302.578497 
L 402.360076 301.978938 
L 403.211443 302.79066 
L 404.06281 301.525221 
L 404.488493 303.522107 
L 404.914177 303.189225 
L 405.33986 301.017989 
L 405.765544 302.934337 
L 406.191227 302.120881 
L 406.61691 303.382116 
L 407.042594 301.536234 
L 407.468277 301.629248 
L 407.893961 302.402386 
L 408.319644 300.82956 
L 408.745327 302.664173 
L 409.171011 302.506945 
L 409.596694 301.32801 
L 410.022378 301.935217 
L 410.448061 301.641431 
L 410.873744 301.159296 
L 411.299428 302.288388 
L 411.725111 301.998295 
L 412.150795 303.196163 
L 412.576478 302.302558 
L 413.002161 303.056724 
L 413.427845 301.751605 
L 413.853528 302.994418 
L 414.704895 303.136423 
L 415.130579 305.00783 
L 415.556262 304.194547 
L 415.981945 301.709044 
L 416.407629 302.911762 
L 416.833312 303.600247 
L 417.258996 303.880822 
L 417.684679 303.993095 
L 418.110362 303.577913 
L 418.536046 83.166898 
L 418.961729 83.166898 
L 419.387413 304.424215 
L 419.813096 305.513594 
L 420.664463 304.199637 
L 421.090146 306.025066 
L 421.51583 303.98243 
L 421.941513 303.957382 
L 422.367196 305.11044 
L 422.79288 304.978775 
L 423.218563 304.150942 
L 423.644247 305.944739 
L 424.495613 306.655779 
L 425.34698 306.475437 
L 425.772664 305.626705 
L 426.198347 306.873227 
L 426.624031 306.380923 
L 427.049714 306.095574 
L 427.475397 307.44409 
L 427.901081 305.158407 
L 428.326764 305.334542 
L 428.752448 308.131924 
L 429.178131 307.047145 
L 429.603814 307.016322 
L 430.029498 306.60355 
L 430.455181 307.83417 
L 430.880865 307.189107 
L 431.306548 306.22185 
L 431.732231 306.081368 
L 432.157915 306.78382 
L 432.583598 306.720246 
L 433.009282 307.605778 
L 433.434965 307.446296 
L 433.860648 306.055526 
L 434.286332 307.021668 
L 434.712015 307.676196 
L 435.137699 305.644204 
L 435.563382 307.573203 
L 435.989065 306.054849 
L 436.414749 306.509685 
L 436.840432 306.654494 
L 437.266116 307.219495 
L 437.691799 306.127078 
L 438.117483 308.286192 
L 439.394533 306.515303 
L 439.820216 306.482413 
L 440.2459 306.735929 
L 440.671583 306.646721 
L 441.097266 305.878367 
L 441.52295 306.760186 
L 441.948633 307.981074 
L 442.374317 305.939488 
L 442.8 305.05868 
L 443.225683 304.819731 
L 443.651367 305.788947 
L 444.07705 305.436995 
L 444.502734 303.904304 
L 444.928417 305.625867 
L 445.779784 304.291162 
L 446.205467 305.096361 
L 446.631151 304.747942 
L 447.056834 303.649778 
L 447.482517 304.576224 
L 447.908201 303.336246 
L 448.333884 304.568277 
L 448.759568 305.065388 
L 449.185251 302.532133 
L 449.610935 302.958797 
L 450.036618 302.986038 
L 450.462301 302.819699 
L 450.887985 301.24809 
L 451.313668 302.813065 
L 451.739352 300.76713 
L 452.165035 302.253766 
L 452.590718 301.199502 
L 453.016402 300.996449 
L 453.442085 300.032534 
L 453.867769 301.809944 
L 454.293452 300.198628 
L 454.719135 299.810317 
L 455.570502 298.127505 
L 455.996186 299.67389 
L 456.421869 298.232031 
L 456.847552 297.826994 
L 457.273236 296.881918 
L 457.698919 297.691416 
L 458.124603 296.305634 
L 458.550286 296.926397 
L 458.975969 296.952583 
L 459.401653 295.937665 
L 459.827336 295.828416 
L 460.25302 295.429768 
L 460.678703 294.576839 
L 461.104387 295.395311 
L 461.955753 294.703044 
L 462.80712 292.201297 
L 463.232804 292.756165 
L 463.658487 292.385423 
L 464.08417 291.442008 
L 464.509854 293.186407 
L 464.935537 293.671662 
L 465.361221 293.058355 
L 465.786904 291.568603 
L 466.212587 291.477304 
L 466.638271 293.582689 
L 467.063954 289.88308 
L 467.489638 290.827882 
L 467.915321 290.404633 
L 468.341004 289.722562 
L 468.766688 290.950458 
L 469.192371 290.154377 
L 469.618055 288.367371 
L 470.043738 287.286053 
L 470.469421 288.154695 
L 470.895105 287.859671 
L 471.320788 289.753836 
L 471.746472 287.098512 
L 472.172155 286.80154 
L 472.597839 287.864381 
L 473.449205 286.303721 
L 473.874889 285.016361 
L 474.300572 287.663352 
L 474.726256 285.591894 
L 475.151939 285.093696 
L 475.577622 285.3103 
L 476.003306 285.672283 
L 476.428989 285.887017 
L 476.854673 285.441898 
L 477.280356 284.664941 
L 477.706039 286.212832 
L 478.131723 286.191165 
L 478.557406 285.603329 
L 478.98309 286.092538 
L 479.408773 286.180022 
L 479.834456 283.393516 
L 480.26014 285.291215 
L 480.685823 284.822086 
L 481.111507 285.274394 
L 481.53719 283.741535 
L 481.962873 283.643407 
L 482.388557 282.988133 
L 482.81424 284.360787 
L 483.239924 282.807392 
L 483.665607 283.716218 
L 484.091291 284.922872 
L 484.516974 282.735992 
L 484.942657 282.383056 
L 485.368341 282.975646 
L 486.219708 284.814127 
L 486.645391 283.595374 
L 487.071074 284.801672 
L 487.496758 285.214047 
L 487.922441 283.020607 
L 488.348125 283.912931 
L 488.773808 284.021213 
L 489.199491 284.261722 
L 489.625175 282.580732 
L 490.050858 285.155604 
L 490.902225 283.36582 
L 491.327908 283.660607 
L 491.753592 284.511313 
L 492.179275 284.090261 
L 492.604959 284.272122 
L 493.030642 282.703466 
L 493.456325 284.162058 
L 493.882009 284.904636 
L 494.307692 283.377936 
L 494.733376 285.616109 
L 495.159059 284.123448 
L 495.584743 283.6115 
L 496.010426 285.804591 
L 496.436109 284.601124 
L 496.861793 284.155225 
L 497.287476 284.114043 
L 498.138843 283.628805 
L 498.564526 285.241399 
L 498.99021 286.268934 
L 499.415893 286.302556 
L 499.841577 285.146149 
L 500.26726 287.24413 
L 500.692943 285.545579 
L 501.118627 287.108217 
L 501.54431 287.022256 
L 501.969994 286.028712 
L 502.395677 286.957735 
L 502.82136 287.280167 
L 503.247044 287.248729 
L 503.672727 285.540768 
L 504.098411 288.089298 
L 504.524094 286.902936 
L 504.949777 287.513039 
L 505.375461 284.618757 
L 505.801144 287.449488 
L 506.226828 285.819774 
L 506.652511 286.752607 
L 507.078195 288.97216 
L 507.503878 287.242063 
L 507.929561 287.17142 
L 508.355245 287.842018 
L 508.780928 289.651488 
L 509.206612 286.056606 
L 509.632295 288.256687 
L 510.057978 289.385714 
L 510.483662 287.131336 
L 510.909345 288.497706 
L 511.335029 288.12033 
L 512.186395 289.993219 
L 512.612079 288.611239 
L 513.037762 287.84025 
L 513.463446 288.538705 
L 513.889129 288.520622 
L 514.740496 288.220045 
L 515.166179 288.800236 
L 515.591863 288.833189 
L 516.017546 289.199769 
L 516.443229 289.750448 
L 516.868913 289.779873 
L 517.294596 289.177093 
L 517.72028 289.10248 
L 518.145963 288.751968 
L 518.571647 66.96 
L 518.99733 66.96 
L 519.423013 286.92901 
L 519.848697 287.843479 
L 520.27438 287.862551 
L 520.700064 288.027575 
L 521.125747 288.716891 
L 522.402797 287.519373 
L 522.828481 287.506579 
L 523.254164 285.769185 
L 523.679847 287.51266 
L 524.105531 287.729163 
L 524.531214 288.359875 
L 524.956898 287.647185 
L 525.382581 284.339632 
L 525.808264 286.176648 
L 526.233948 285.472205 
L 526.659631 285.903905 
L 527.085315 285.742218 
L 527.510998 285.848774 
L 528.362365 284.033637 
L 528.788048 284.296048 
L 529.213732 285.060236 
L 529.639415 284.549021 
L 530.065099 285.679718 
L 530.490782 283.181122 
L 530.916465 282.349979 
L 531.342149 285.012392 
L 531.767832 283.455921 
L 532.193516 283.954468 
L 532.619199 283.971847 
L 533.044882 281.725079 
L 533.470566 281.370487 
L 533.896249 280.342477 
L 534.321933 281.4036 
L 534.747616 283.154729 
L 535.173299 280.848504 
L 535.598983 281.595837 
L 536.45035 280.193397 
L 536.876033 280.047429 
L 537.301716 279.115858 
L 537.7274 280.08295 
L 538.153083 279.799533 
L 539.00445 277.82873 
L 539.430134 278.632099 
L 540.2815 278.554749 
L 540.707184 278.018 
L 541.132867 277.298956 
L 541.558551 277.760117 
L 541.984234 275.825451 
L 542.409917 277.91867 
L 542.835601 275.945211 
L 543.261284 276.765355 
L 543.686968 274.130107 
L 544.112651 275.33438 
L 544.538334 273.595157 
L 544.964018 274.645919 
L 545.389701 274.163526 
L 545.815385 274.570899 
L 546.241068 276.077265 
L 546.666751 271.647179 
L 547.092435 274.029794 
L 547.518118 270.263412 
L 547.943802 271.936984 
L 548.369485 272.434609 
L 548.795168 271.050512 
L 549.220852 270.617168 
L 549.646535 271.316406 
L 550.072219 270.731926 
L 550.497902 268.97716 
L 550.923586 271.561659 
L 551.349269 270.123076 
L 551.774952 269.138185 
L 552.200636 270.827311 
L 552.626319 270.919101 
L 553.052003 267.937345 
L 553.477686 269.549981 
L 553.903369 269.583038 
L 554.329053 268.492792 
L 554.754736 268.737503 
L 555.18042 268.539028 
L 555.606103 269.095885 
L 556.031786 268.45823 
L 556.45747 266.739207 
L 556.883153 266.866743 
L 557.308837 267.691075 
L 557.73452 264.856765 
L 558.160203 265.517235 
L 558.585887 267.308697 
L 559.01157 266.604567 
L 559.437254 269.213385 
L 559.862937 265.416186 
L 560.28862 265.641649 
L 560.714304 266.450798 
L 561.565671 265.730347 
L 561.991354 264.821674 
L 562.417038 266.472803 
L 562.842721 264.611658 
L 563.268404 264.810437 
L 563.694088 266.020237 
L 564.119771 265.596894 
L 564.545455 263.683461 
L 564.971138 265.385546 
L 565.396821 266.425484 
L 565.822505 266.466555 
L 566.248188 265.213798 
L 566.673872 264.925221 
L 567.099555 264.903432 
L 567.525238 265.348139 
L 567.950922 266.845353 
L 568.802289 264.327161 
L 569.227972 267.185619 
L 569.653655 264.644291 
L 570.079339 266.500254 
L 570.505022 265.439436 
L 570.930706 266.516823 
L 571.356389 264.61831 
L 571.782072 265.906343 
L 572.207756 265.075623 
L 572.633439 266.206097 
L 573.484806 266.963264 
L 573.91049 266.728751 
L 574.336173 266.10689 
L 574.761856 264.667384 
L 575.18754 265.467207 
L 575.613223 266.613648 
L 576.038907 265.93841 
L 576.46459 267.119467 
L 576.890273 266.881097 
L 577.315957 266.306369 
L 577.74164 264.200483 
L 578.167324 266.453303 
L 578.593007 266.674162 
L 579.01869 268.885282 
L 579.444374 265.953917 
L 579.870057 266.002787 
L 580.295741 268.627712 
L 580.721424 267.324317 
L 581.147107 268.168903 
L 581.572791 267.447546 
L 581.998474 268.104694 
L 582.424158 266.884504 
L 582.849841 267.705256 
L 583.275524 267.934728 
L 583.701208 267.783378 
L 584.126891 269.82422 
L 584.552575 269.37228 
L 584.978258 267.258665 
L 585.403942 268.394492 
L 585.829625 268.310306 
L 586.255308 269.998797 
L 586.680992 266.97001 
L 587.106675 269.439753 
L 587.532359 268.636991 
L 587.958042 269.383505 
L 588.383725 268.43579 
L 588.809409 270.125192 
L 589.235092 268.549353 
L 589.660776 268.610008 
L 590.086459 270.252365 
L 590.512142 271.080023 
L 590.937826 269.343726 
L 591.363509 271.808112 
L 591.789193 269.170678 
L 592.640559 269.21504 
L 593.066243 270.243639 
L 593.491926 268.38346 
L 593.91761 270.136879 
L 594.343293 270.879962 
L 594.768976 270.387537 
L 595.19466 271.163419 
L 595.620343 271.181057 
L 596.046027 269.882878 
L 596.47171 270.013188 
L 596.897394 270.51098 
L 597.323077 270.21031 
L 597.74876 270.127537 
L 598.174444 270.225544 
L 598.600127 268.369372 
L 599.025811 270.387948 
L 599.451494 269.211715 
L 599.877177 270.050719 
L 600.302861 270.613285 
L 600.728544 270.430845 
L 601.154228 269.389684 
L 601.579911 269.937529 
L 602.005594 269.202461 
L 602.431278 268.939208 
L 602.856961 268.483317 
L 603.282645 269.905137 
L 603.708328 267.691565 
L 604.134011 270.427403 
L 604.559695 270.29629 
L 604.985378 267.474673 
L 605.411062 267.229953 
L 605.836745 269.168766 
L 606.262428 267.556034 
L 606.688112 268.982751 
L 607.113795 266.245642 
L 607.539479 267.398794 
L 608.390846 267.363306 
L 608.816529 267.949027 
L 609.242212 265.910056 
L 609.667896 266.433101 
L 610.093579 265.778783 
L 610.519263 266.693111 
L 610.944946 266.124242 
L 611.370629 265.302052 
L 611.796313 266.799313 
L 612.221996 265.849315 
L 612.64768 265.312092 
L 613.073363 264.011225 
L 613.499046 265.074099 
L 613.92473 264.930184 
L 614.350413 263.341249 
L 614.776097 264.095701 
L 615.20178 262.265631 
L 615.627463 264.349133 
L 616.053147 262.912734 
L 616.47883 262.99474 
L 616.904514 262.453984 
L 617.330197 261.074421 
L 617.75588 260.787952 
L 618.181564 261.774308 
L 618.607247 262.441696 
L 619.032931 261.169864 
L 619.458614 259.023607 
L 619.884298 259.901141 
L 620.309981 260.346679 
L 621.587031 257.029969 
L 622.438398 258.891484 
L 622.864081 255.723366 
L 623.289765 257.328191 
L 623.715448 255.853265 
L 624.141132 255.649423 
L 624.566815 258.263531 
L 624.992498 254.740325 
L 625.418182 255.967704 
L 625.843865 256.302384 
L 626.269549 255.204138 
L 627.120915 254.654069 
L 627.546599 254.513444 
L 627.972282 252.780118 
L 628.397966 252.905518 
L 628.823649 253.230199 
L 629.249332 253.75442 
L 629.675016 251.881316 
L 630.100699 252.09452 
L 630.526383 252.79591 
L 630.952066 252.596389 
L 632.229116 251.064989 
L 632.6548 250.383881 
L 633.080483 250.726839 
L 633.506167 252.159101 
L 633.93185 250.147403 
L 634.357533 249.269788 
L 634.783217 251.166232 
L 635.2089 251.464595 
L 635.634584 248.914561 
L 636.060267 249.746893 
L 636.48595 248.768118 
L 636.911634 249.240427 
L 637.337317 247.330421 
L 638.188684 247.941326 
L 639.465734 247.064393 
L 639.891418 248.728853 
L 640.317101 246.393549 
L 640.742784 248.90113 
L 641.168468 249.424083 
L 641.594151 247.596022 
L 642.019835 246.776114 
L 642.445518 246.882115 
L 642.871202 246.629379 
L 643.296885 246.966863 
L 643.722568 247.509319 
L 644.148252 246.787925 
L 644.573935 245.272298 
L 644.999619 247.039271 
L 645.425302 246.316914 
L 645.850985 246.278863 
L 646.276669 245.605084 
L 646.702352 247.605175 
L 647.553719 246.362297 
L 647.979402 246.975432 
L 648.405086 246.446793 
L 648.830769 246.832676 
L 649.682136 248.058453 
L 650.107819 245.944712 
L 650.533503 246.597659 
L 650.959186 246.061374 
L 651.38487 248.783835 
L 651.810553 245.881014 
L 652.66192 247.314694 
L 653.087603 246.506556 
L 653.513287 246.796985 
L 653.93897 246.558338 
L 654.364654 246.720851 
L 654.790337 247.116566 
L 655.21602 247.217743 
L 655.641704 247.958173 
L 656.067387 247.11737 
L 656.493071 248.075673 
L 656.918754 246.555479 
L 657.344437 247.708004 
L 657.770121 246.638371 
L 658.195804 248.31099 
L 658.621488 248.287774 
L 659.047171 247.479854 
L 659.472854 247.334363 
L 659.898538 249.428998 
L 660.324221 247.814303 
L 660.749905 247.701097 
L 661.175588 249.161062 
L 661.601271 248.273631 
L 662.026955 249.574172 
L 662.452638 249.583751 
L 662.878322 249.389682 
L 663.304005 249.959749 
L 663.729688 248.173215 
L 664.155372 249.615443 
L 664.581055 250.061033 
L 665.006739 251.233525 
L 665.432422 249.852501 
L 665.858106 250.698512 
L 666.283789 250.487434 
L 666.709472 250.540395 
L 667.135156 251.798986 
L 667.560839 250.027081 
L 667.986523 250.345854 
L 668.412206 250.264772 
L 669.263573 252.430216 
L 669.689256 249.179818 
L 670.11494 249.726132 
L 670.540623 251.435938 
L 670.966306 252.368503 
L 671.39199 251.334933 
L 671.817673 251.273071 
L 672.243357 253.107709 
L 672.66904 251.59267 
L 673.094723 251.320024 
L 673.520407 249.95386 
L 673.94609 252.436555 
L 674.371774 249.388417 
L 675.22314 251.594984 
L 675.648824 251.880056 
L 676.500191 250.447652 
L 676.925874 250.297279 
L 677.777241 252.209219 
L 678.202924 250.534552 
L 678.628608 250.551465 
L 679.054291 251.946978 
L 679.479975 252.307536 
L 679.905658 251.443905 
L 680.331341 250.963671 
L 680.757025 251.406035 
L 681.182708 252.045165 
L 681.608392 251.793437 
L 682.034075 250.246722 
L 682.459758 250.270886 
L 682.885442 250.474143 
L 683.311125 251.23491 
L 683.736809 250.68303 
L 684.162492 251.406846 
L 684.588175 249.507338 
L 685.013859 251.722225 
L 685.439542 250.226784 
L 685.865226 250.072993 
L 686.290909 250.263972 
L 686.716592 247.385049 
L 687.142276 247.432823 
L 687.567959 249.643519 
L 687.993643 248.619532 
L 688.419326 248.530459 
L 689.270693 247.990693 
L 689.696376 248.798742 
L 690.12206 249.891544 
L 690.547743 248.168339 
L 690.973427 246.963806 
L 691.39911 247.826991 
L 691.824793 246.797649 
L 692.250477 247.52597 
L 692.67616 246.4007 
L 693.101844 245.922085 
L 693.527527 246.020751 
L 693.95321 246.730765 
L 694.378894 244.534028 
L 695.230261 246.133618 
L 696.081627 244.370028 
L 696.932994 245.484268 
L 697.784361 243.390173 
L 698.210045 242.935751 
L 698.635728 241.410315 
L 699.061411 242.99699 
L 699.487095 242.880996 
L 699.912778 242.404277 
L 700.338462 240.634184 
L 700.764145 241.944468 
L 701.189828 240.991364 
L 701.615512 238.743163 
L 702.041195 241.375463 
L 702.892562 240.032585 
L 703.318245 240.731386 
L 703.743929 238.840895 
L 704.169612 240.523119 
L 704.595296 238.740823 
L 705.020979 238.854751 
L 705.446662 238.409858 
L 705.872346 236.490861 
L 706.298029 236.564715 
L 706.723713 235.328689 
L 707.575079 236.143875 
L 708.000763 236.53739 
L 708.426446 235.496022 
L 708.85213 235.154104 
L 709.277813 235.371729 
L 709.703497 236.138289 
L 710.12918 233.922271 
L 710.554863 235.004062 
L 710.980547 235.121783 
L 711.40623 233.717502 
L 711.831914 233.852398 
L 712.257597 232.401245 
L 712.68328 233.350387 
L 713.108964 231.757732 
L 713.534647 232.241305 
L 713.960331 232.083923 
L 714.386014 232.227396 
L 714.811697 230.761787 
L 715.237381 231.985967 
L 715.663064 231.953627 
L 716.088748 230.984781 
L 716.514431 230.791611 
L 716.940114 229.02524 
L 717.365798 230.635651 
L 717.791481 229.701576 
L 718.217165 230.268181 
L 718.642848 228.719242 
L 719.068531 229.404172 
L 719.494215 229.177503 
L 719.919898 229.347262 
L 720.345582 230.256335 
L 720.771265 229.855178 
L 721.196949 228.707478 
L 721.622632 229.979914 
L 722.048315 227.886453 
L 722.473999 229.986396 
L 723.325366 229.666162 
L 724.176732 227.545731 
L 724.602416 229.798536 
L 725.028099 228.723026 
L 725.453783 228.24708 
L 725.879466 229.648191 
L 726.305149 228.444285 
L 726.730833 228.355038 
L 727.156516 227.244012 
L 727.5822 227.545959 
L 728.007883 229.258721 
L 728.433566 229.100518 
L 728.85925 228.754714 
L 729.284933 229.951763 
L 729.710617 229.134847 
L 730.1363 227.423874 
L 730.561983 228.504572 
L 730.987667 227.515358 
L 731.41335 227.509931 
L 731.839034 228.908524 
L 732.264717 228.691208 
L 732.690401 226.670663 
L 733.116084 228.694761 
L 733.541767 228.25682 
L 733.967451 227.509886 
L 734.393134 228.687006 
L 734.818818 228.522008 
L 735.244501 229.812475 
L 735.670184 227.05417 
L 736.095868 229.566274 
L 736.521551 230.009638 
L 736.947235 229.567626 
L 737.372918 227.628502 
L 737.798601 230.813123 
L 738.224285 229.543457 
L 738.649968 230.541545 
L 739.075652 230.468003 
L 739.501335 229.649764 
L 739.927018 229.365345 
L 740.352702 228.431306 
L 740.778385 230.349021 
L 741.204069 229.734212 
L 741.629752 232.650325 
L 742.055435 230.218529 
L 742.481119 229.01696 
L 742.906802 230.129855 
L 742.906802 230.129855 
" style="fill:none;stroke:#1f77b4;stroke-linecap:square;stroke-width:1.5;"/>
   </g>
   <g id="line2d_17">
    <path clip-path="url(#p8f7ebf22bc)" d="M 747.163636 384.48 
L 747.163636 51.84 
" style="fill:none;stroke:#808080;stroke-linecap:square;"/>
   </g>
   <g id="patch_88">
    <path d="M 108 384.48 
L 108 51.84 
" style="fill:none;stroke:#000000;stroke-linecap:square;stroke-linejoin:miter;stroke-width:0.8;"/>
   </g>
   <g id="patch_89">
    <path d="M 777.6 384.48 
L 777.6 51.84 
" style="fill:none;stroke:#000000;stroke-linecap:square;stroke-linejoin:miter;stroke-width:0.8;"/>
   </g>
   <g id="patch_90">
    <path d="M 108 384.48 
L 777.6 384.48 
" style="fill:none;stroke:#000000;stroke-linecap:square;stroke-linejoin:miter;stroke-width:0.8;"/>
   </g>
   <g id="patch_91">
    <path d="M 108 51.84 
L 777.6 51.84 
" style="fill:none;stroke:#000000;stroke-linecap:square;stroke-linejoin:miter;stroke-width:0.8;"/>
   </g>
   <g id="text_18">
    <!-- synthetic_79.csv -->
    <defs>
     <path d="M 32.171875 -5.078125 
Q 28.375 -14.84375 24.75 -17.8125 
Q 21.140625 -20.796875 15.09375 -20.796875 
L 7.90625 -20.796875 
L 7.90625 -13.28125 
L 13.1875 -13.28125 
Q 16.890625 -13.28125 18.9375 -11.515625 
Q 21 -9.765625 23.484375 -3.21875 
L 25.09375 0.875 
L 2.984375 54.6875 
L 12.5 54.6875 
L 29.59375 11.921875 
L 46.6875 54.6875 
L 56.203125 54.6875 
z
" id="DejaVuSans-121"/>
     <path d="M 54.890625 33.015625 
L 54.890625 0 
L 45.90625 0 
L 45.90625 32.71875 
Q 45.90625 40.484375 42.875 44.328125 
Q 39.84375 48.1875 33.796875 48.1875 
Q 26.515625 48.1875 22.3125 43.546875 
Q 18.109375 38.921875 18.109375 30.90625 
L 18.109375 0 
L 9.078125 0 
L 9.078125 54.6875 
L 18.109375 54.6875 
L 18.109375 46.1875 
Q 21.34375 51.125 25.703125 53.5625 
Q 30.078125 56 35.796875 56 
Q 45.21875 56 50.046875 50.171875 
Q 54.890625 44.34375 54.890625 33.015625 
z
" id="DejaVuSans-110"/>
     <path d="M 54.890625 33.015625 
L 54.890625 0 
L 45.90625 0 
L 45.90625 32.71875 
Q 45.90625 40.484375 42.875 44.328125 
Q 39.84375 48.1875 33.796875 48.1875 
Q 26.515625 48.1875 22.3125 43.546875 
Q 18.109375 38.921875 18.109375 30.90625 
L 18.109375 0 
L 9.078125 0 
L 9.078125 75.984375 
L 18.109375 75.984375 
L 18.109375 46.1875 
Q 21.34375 51.125 25.703125 53.5625 
Q 30.078125 56 35.796875 56 
Q 45.21875 56 50.046875 50.171875 
Q 54.890625 44.34375 54.890625 33.015625 
z
" id="DejaVuSans-104"/>
     <path d="M 48.78125 52.59375 
L 48.78125 44.1875 
Q 44.96875 46.296875 41.140625 47.34375 
Q 37.3125 48.390625 33.40625 48.390625 
Q 24.65625 48.390625 19.8125 42.84375 
Q 14.984375 37.3125 14.984375 27.296875 
Q 14.984375 17.28125 19.8125 11.734375 
Q 24.65625 6.203125 33.40625 6.203125 
Q 37.3125 6.203125 41.140625 7.25 
Q 44.96875 8.296875 48.78125 10.40625 
L 48.78125 2.09375 
Q 45.015625 0.34375 40.984375 -0.53125 
Q 36.96875 -1.421875 32.421875 -1.421875 
Q 20.0625 -1.421875 12.78125 6.34375 
Q 5.515625 14.109375 5.515625 27.296875 
Q 5.515625 40.671875 12.859375 48.328125 
Q 20.21875 56 33.015625 56 
Q 37.15625 56 41.109375 55.140625 
Q 45.0625 54.296875 48.78125 52.59375 
z
" id="DejaVuSans-99"/>
     <path d="M 50.984375 -16.609375 
L 50.984375 -23.578125 
L -0.984375 -23.578125 
L -0.984375 -16.609375 
z
" id="DejaVuSans-95"/>
     <path d="M 8.203125 72.90625 
L 55.078125 72.90625 
L 55.078125 68.703125 
L 28.609375 0 
L 18.3125 0 
L 43.21875 64.59375 
L 8.203125 64.59375 
z
" id="DejaVuSans-55"/>
     <path d="M 10.984375 1.515625 
L 10.984375 10.5 
Q 14.703125 8.734375 18.5 7.8125 
Q 22.3125 6.890625 25.984375 6.890625 
Q 35.75 6.890625 40.890625 13.453125 
Q 46.046875 20.015625 46.78125 33.40625 
Q 43.953125 29.203125 39.59375 26.953125 
Q 35.25 24.703125 29.984375 24.703125 
Q 19.046875 24.703125 12.671875 31.3125 
Q 6.296875 37.9375 6.296875 49.421875 
Q 6.296875 60.640625 12.9375 67.421875 
Q 19.578125 74.21875 30.609375 74.21875 
Q 43.265625 74.21875 49.921875 64.515625 
Q 56.59375 54.828125 56.59375 36.375 
Q 56.59375 19.140625 48.40625 8.859375 
Q 40.234375 -1.421875 26.421875 -1.421875 
Q 22.703125 -1.421875 18.890625 -0.6875 
Q 15.09375 0.046875 10.984375 1.515625 
z
M 30.609375 32.421875 
Q 37.25 32.421875 41.125 36.953125 
Q 45.015625 41.5 45.015625 49.421875 
Q 45.015625 57.28125 41.125 61.84375 
Q 37.25 66.40625 30.609375 66.40625 
Q 23.96875 66.40625 20.09375 61.84375 
Q 16.21875 57.28125 16.21875 49.421875 
Q 16.21875 41.5 20.09375 36.953125 
Q 23.96875 32.421875 30.609375 32.421875 
z
" id="DejaVuSans-57"/>
     <path d="M 10.6875 12.40625 
L 21 12.40625 
L 21 0 
L 10.6875 0 
z
" id="DejaVuSans-46"/>
     <path d="M 2.984375 54.6875 
L 12.5 54.6875 
L 29.59375 8.796875 
L 46.6875 54.6875 
L 56.203125 54.6875 
L 35.6875 0 
L 23.484375 0 
z
" id="DejaVuSans-118"/>
    </defs>
    <g transform="translate(392.638125 45.84)scale(0.12 -0.12)">
     <use xlink:href="#DejaVuSans-115"/>
     <use x="52.099609" xlink:href="#DejaVuSans-121"/>
     <use x="111.279297" xlink:href="#DejaVuSans-110"/>
     <use x="174.658203" xlink:href="#DejaVuSans-116"/>
     <use x="213.867188" xlink:href="#DejaVuSans-104"/>
     <use x="277.246094" xlink:href="#DejaVuSans-101"/>
     <use x="338.769531" xlink:href="#DejaVuSans-116"/>
     <use x="377.978516" xlink:href="#DejaVuSans-105"/>
     <use x="405.761719" xlink:href="#DejaVuSans-99"/>
     <use x="460.742188" xlink:href="#DejaVuSans-95"/>
     <use x="510.742188" xlink:href="#DejaVuSans-55"/>
     <use x="574.365234" xlink:href="#DejaVuSans-57"/>
     <use x="637.988281" xlink:href="#DejaVuSans-46"/>
     <use x="669.775391" xlink:href="#DejaVuSans-99"/>
     <use x="724.755859" xlink:href="#DejaVuSans-115"/>
     <use x="776.855469" xlink:href="#DejaVuSans-118"/>
    </g>
   </g>
   <g id="legend_1">
    <g id="patch_92">
     <path d="M 115 74.518125 
L 174.315625 74.518125 
Q 176.315625 74.518125 176.315625 72.518125 
L 176.315625 58.84 
Q 176.315625 56.84 174.315625 56.84 
L 115 56.84 
Q 113 56.84 113 58.84 
L 113 72.518125 
Q 113 74.518125 115 74.518125 
z
" style="fill:#ffffff;opacity:0.8;stroke:#cccccc;stroke-linejoin:miter;"/>
    </g>
    <g id="line2d_18">
     <path d="M 117 64.938438 
L 137 64.938438 
" style="fill:none;stroke:#1f77b4;stroke-linecap:square;stroke-width:1.5;"/>
    </g>
    <g id="line2d_19"/>
    <g id="text_19">
     <!-- value -->
     <g transform="translate(145 68.438438)scale(0.1 -0.1)">
      <use xlink:href="#DejaVuSans-118"/>
      <use x="59.179688" xlink:href="#DejaVuSans-97"/>
      <use x="120.458984" xlink:href="#DejaVuSans-108"/>
      <use x="148.242188" xlink:href="#DejaVuSans-117"/>
      <use x="211.621094" xlink:href="#DejaVuSans-101"/>
     </g>
    </g>
   </g>
  </g>
 </g>
 <defs>
  <clipPath id="p8f7ebf22bc">
   <rect height="332.64" width="669.6" x="108" y="51.84"/>
  </clipPath>
 </defs>
</svg>
