<?xml version="1.0" encoding="utf-8" standalone="no"?>
<!DOCTYPE svg PUBLIC "-//W3C//DTD SVG 1.1//EN"
  "http://www.w3.org/Graphics/SVG/1.1/DTD/svg11.dtd">
<!-- Created with matplotlib (https://matplotlib.org/) -->
<svg height="432pt" version="1.1" viewBox="0 0 864 432" width="864pt" xmlns="http://www.w3.org/2000/svg" xmlns:xlink="http://www.w3.org/1999/xlink">
 <defs>
  <style type="text/css">
*{stroke-linecap:butt;stroke-linejoin:round;}
  </style>
 </defs>
 <g id="figure_1">
  <g id="patch_1">
   <path d="M 0 432 
L 864 432 
L 864 0 
L 0 0 
z
" style="fill:#ffffff;"/>
  </g>
  <g id="axes_1">
   <g id="patch_2">
    <path d="M 108 384.48 
L 777.6 384.48 
L 777.6 51.84 
L 108 51.84 
z
" style="fill:#ffffff;"/>
   </g>
   <g id="patch_3">
    <path clip-path="url(#p1bfa6b9db1)" d="M 138.436364 384.48 
L 138.436364 51.84 
L 440.671583 51.84 
L 440.671583 384.48 
z
" style="fill:#0000ff;opacity:0.05;"/>
   </g>
   <g id="patch_4">
    <path clip-path="url(#p1bfa6b9db1)" d="M 440.671583 384.48 
L 440.671583 51.84 
L 747.163636 51.84 
L 747.163636 384.48 
z
" style="fill:#ff0000;opacity:0.08;"/>
   </g>
   <g id="patch_5">
    <path clip-path="url(#p1bfa6b9db1)" d="M 138.436364 384.48 
L 138.436364 51.84 
L 142.693198 51.84 
L 142.693198 384.48 
z
" style="fill:#008000;opacity:0.04;"/>
   </g>
   <g id="patch_6">
    <path clip-path="url(#p1bfa6b9db1)" d="M 146.950032 384.48 
L 146.950032 51.84 
L 151.206866 51.84 
L 151.206866 384.48 
z
" style="fill:#008000;opacity:0.04;"/>
   </g>
   <g id="patch_7">
    <path clip-path="url(#p1bfa6b9db1)" d="M 155.4637 384.48 
L 155.4637 51.84 
L 159.720534 51.84 
L 159.720534 384.48 
z
" style="fill:#008000;opacity:0.04;"/>
   </g>
   <g id="patch_8">
    <path clip-path="url(#p1bfa6b9db1)" d="M 163.977368 384.48 
L 163.977368 51.84 
L 168.234202 51.84 
L 168.234202 384.48 
z
" style="fill:#008000;opacity:0.04;"/>
   </g>
   <g id="patch_9">
    <path clip-path="url(#p1bfa6b9db1)" d="M 172.491036 384.48 
L 172.491036 51.84 
L 176.74787 51.84 
L 176.74787 384.48 
z
" style="fill:#008000;opacity:0.04;"/>
   </g>
   <g id="patch_10">
    <path clip-path="url(#p1bfa6b9db1)" d="M 181.004704 384.48 
L 181.004704 51.84 
L 185.261538 51.84 
L 185.261538 384.48 
z
" style="fill:#008000;opacity:0.04;"/>
   </g>
   <g id="patch_11">
    <path clip-path="url(#p1bfa6b9db1)" d="M 189.518373 384.48 
L 189.518373 51.84 
L 193.775207 51.84 
L 193.775207 384.48 
z
" style="fill:#008000;opacity:0.04;"/>
   </g>
   <g id="patch_12">
    <path clip-path="url(#p1bfa6b9db1)" d="M 198.032041 384.48 
L 198.032041 51.84 
L 202.288875 51.84 
L 202.288875 384.48 
z
" style="fill:#008000;opacity:0.04;"/>
   </g>
   <g id="patch_13">
    <path clip-path="url(#p1bfa6b9db1)" d="M 198.032041 384.48 
L 198.032041 371.1744 
L 202.288875 371.1744 
L 202.288875 384.48 
z
" style="fill:#ffe500;"/>
   </g>
   <g id="patch_14">
    <path clip-path="url(#p1bfa6b9db1)" d="M 206.545709 384.48 
L 206.545709 51.84 
L 210.802543 51.84 
L 210.802543 384.48 
z
" style="fill:#008000;opacity:0.04;"/>
   </g>
   <g id="patch_15">
    <path clip-path="url(#p1bfa6b9db1)" d="M 215.059377 384.48 
L 215.059377 51.84 
L 219.316211 51.84 
L 219.316211 384.48 
z
" style="fill:#008000;opacity:0.04;"/>
   </g>
   <g id="patch_16">
    <path clip-path="url(#p1bfa6b9db1)" d="M 517.294596 384.48 
L 517.294596 371.1744 
L 521.55143 371.1744 
L 521.55143 384.48 
z
" style="fill:#ff6600;"/>
   </g>
   <g id="patch_17">
    <path clip-path="url(#p1bfa6b9db1)" d="M 223.573045 384.48 
L 223.573045 51.84 
L 227.829879 51.84 
L 227.829879 384.48 
z
" style="fill:#008000;opacity:0.04;"/>
   </g>
   <g id="patch_18">
    <path clip-path="url(#p1bfa6b9db1)" d="M 223.573045 384.48 
L 223.573045 371.1744 
L 227.829879 371.1744 
L 227.829879 384.48 
z
" style="fill:#ffe500;"/>
   </g>
   <g id="patch_19">
    <path clip-path="url(#p1bfa6b9db1)" d="M 232.086713 384.48 
L 232.086713 51.84 
L 236.343547 51.84 
L 236.343547 384.48 
z
" style="fill:#008000;opacity:0.04;"/>
   </g>
   <g id="patch_20">
    <path clip-path="url(#p1bfa6b9db1)" d="M 240.600381 384.48 
L 240.600381 51.84 
L 244.857216 51.84 
L 244.857216 384.48 
z
" style="fill:#008000;opacity:0.04;"/>
   </g>
   <g id="patch_21">
    <path clip-path="url(#p1bfa6b9db1)" d="M 249.11405 384.48 
L 249.11405 51.84 
L 253.370884 51.84 
L 253.370884 384.48 
z
" style="fill:#008000;opacity:0.04;"/>
   </g>
   <g id="patch_22">
    <path clip-path="url(#p1bfa6b9db1)" d="M 257.627718 384.48 
L 257.627718 51.84 
L 261.884552 51.84 
L 261.884552 384.48 
z
" style="fill:#008000;opacity:0.04;"/>
   </g>
   <g id="patch_23">
    <path clip-path="url(#p1bfa6b9db1)" d="M 266.141386 384.48 
L 266.141386 51.84 
L 270.39822 51.84 
L 270.39822 384.48 
z
" style="fill:#008000;opacity:0.04;"/>
   </g>
   <g id="patch_24">
    <path clip-path="url(#p1bfa6b9db1)" d="M 274.655054 384.48 
L 274.655054 51.84 
L 278.911888 51.84 
L 278.911888 384.48 
z
" style="fill:#008000;opacity:0.04;"/>
   </g>
   <g id="patch_25">
    <path clip-path="url(#p1bfa6b9db1)" d="M 274.655054 384.48 
L 274.655054 371.1744 
L 278.911888 371.1744 
L 278.911888 384.48 
z
" style="fill:#ffe500;"/>
   </g>
   <g id="patch_26">
    <path clip-path="url(#p1bfa6b9db1)" d="M 283.168722 384.48 
L 283.168722 51.84 
L 287.425556 51.84 
L 287.425556 384.48 
z
" style="fill:#008000;opacity:0.04;"/>
   </g>
   <g id="patch_27">
    <path clip-path="url(#p1bfa6b9db1)" d="M 291.68239 384.48 
L 291.68239 51.84 
L 295.939224 51.84 
L 295.939224 384.48 
z
" style="fill:#008000;opacity:0.04;"/>
   </g>
   <g id="patch_28">
    <path clip-path="url(#p1bfa6b9db1)" d="M 300.196058 384.48 
L 300.196058 51.84 
L 304.452893 51.84 
L 304.452893 384.48 
z
" style="fill:#008000;opacity:0.04;"/>
   </g>
   <g id="patch_29">
    <path clip-path="url(#p1bfa6b9db1)" d="M 308.709727 384.48 
L 308.709727 51.84 
L 312.966561 51.84 
L 312.966561 384.48 
z
" style="fill:#008000;opacity:0.04;"/>
   </g>
   <g id="patch_30">
    <path clip-path="url(#p1bfa6b9db1)" d="M 317.223395 384.48 
L 317.223395 51.84 
L 321.480229 51.84 
L 321.480229 384.48 
z
" style="fill:#008000;opacity:0.04;"/>
   </g>
   <g id="patch_31">
    <path clip-path="url(#p1bfa6b9db1)" d="M 325.737063 384.48 
L 325.737063 51.84 
L 329.993897 51.84 
L 329.993897 384.48 
z
" style="fill:#008000;opacity:0.04;"/>
   </g>
   <g id="patch_32">
    <path clip-path="url(#p1bfa6b9db1)" d="M 334.250731 384.48 
L 334.250731 51.84 
L 338.507565 51.84 
L 338.507565 384.48 
z
" style="fill:#008000;opacity:0.04;"/>
   </g>
   <g id="patch_33">
    <path clip-path="url(#p1bfa6b9db1)" d="M 342.764399 384.48 
L 342.764399 51.84 
L 347.021233 51.84 
L 347.021233 384.48 
z
" style="fill:#008000;opacity:0.04;"/>
   </g>
   <g id="patch_34">
    <path clip-path="url(#p1bfa6b9db1)" d="M 351.278067 384.48 
L 351.278067 51.84 
L 355.534901 51.84 
L 355.534901 384.48 
z
" style="fill:#008000;opacity:0.04;"/>
   </g>
   <g id="patch_35">
    <path clip-path="url(#p1bfa6b9db1)" d="M 359.791736 384.48 
L 359.791736 51.84 
L 364.04857 51.84 
L 364.04857 384.48 
z
" style="fill:#008000;opacity:0.04;"/>
   </g>
   <g id="patch_36">
    <path clip-path="url(#p1bfa6b9db1)" d="M 368.305404 384.48 
L 368.305404 51.84 
L 372.562238 51.84 
L 372.562238 384.48 
z
" style="fill:#008000;opacity:0.04;"/>
   </g>
   <g id="patch_37">
    <path clip-path="url(#p1bfa6b9db1)" d="M 376.819072 384.48 
L 376.819072 51.84 
L 381.075906 51.84 
L 381.075906 384.48 
z
" style="fill:#008000;opacity:0.04;"/>
   </g>
   <g id="patch_38">
    <path clip-path="url(#p1bfa6b9db1)" d="M 376.819072 384.48 
L 376.819072 371.1744 
L 381.075906 371.1744 
L 381.075906 384.48 
z
" style="fill:#ffe500;"/>
   </g>
   <g id="patch_39">
    <path clip-path="url(#p1bfa6b9db1)" d="M 385.33274 384.48 
L 385.33274 51.84 
L 389.589574 51.84 
L 389.589574 384.48 
z
" style="fill:#008000;opacity:0.04;"/>
   </g>
   <g id="patch_40">
    <path clip-path="url(#p1bfa6b9db1)" d="M 393.846408 384.48 
L 393.846408 51.84 
L 398.103242 51.84 
L 398.103242 384.48 
z
" style="fill:#008000;opacity:0.04;"/>
   </g>
   <g id="patch_41">
    <path clip-path="url(#p1bfa6b9db1)" d="M 402.360076 384.48 
L 402.360076 51.84 
L 406.61691 51.84 
L 406.61691 384.48 
z
" style="fill:#008000;opacity:0.04;"/>
   </g>
   <g id="patch_42">
    <path clip-path="url(#p1bfa6b9db1)" d="M 402.360076 371.1744 
L 402.360076 51.84 
L 406.61691 51.84 
L 406.61691 371.1744 
z
" style="fill:#008000;opacity:0.5;"/>
   </g>
   <g id="patch_43">
    <path clip-path="url(#p1bfa6b9db1)" d="M 402.360076 384.48 
L 402.360076 371.1744 
L 406.61691 371.1744 
L 406.61691 384.48 
z
" style="fill:#ffe500;"/>
   </g>
   <g id="patch_44">
    <path clip-path="url(#p1bfa6b9db1)" d="M 410.873744 384.48 
L 410.873744 51.84 
L 415.130579 51.84 
L 415.130579 384.48 
z
" style="fill:#008000;opacity:0.04;"/>
   </g>
   <g id="patch_45">
    <path clip-path="url(#p1bfa6b9db1)" d="M 415.130579 371.1744 
L 415.130579 51.84 
L 419.387413 51.84 
L 419.387413 371.1744 
z
" style="fill:#008000;opacity:0.5;"/>
   </g>
   <g id="patch_46">
    <path clip-path="url(#p1bfa6b9db1)" d="M 415.130579 384.48 
L 415.130579 371.1744 
L 419.387413 371.1744 
L 419.387413 384.48 
z
" style="fill:#ffe500;"/>
   </g>
   <g id="patch_47">
    <path clip-path="url(#p1bfa6b9db1)" d="M 419.387413 384.48 
L 419.387413 51.84 
L 423.644247 51.84 
L 423.644247 384.48 
z
" style="fill:#008000;opacity:0.04;"/>
   </g>
   <g id="patch_48">
    <path clip-path="url(#p1bfa6b9db1)" d="M 419.387413 371.1744 
L 419.387413 51.84 
L 423.644247 51.84 
L 423.644247 371.1744 
z
" style="fill:#008000;opacity:0.5;"/>
   </g>
   <g id="patch_49">
    <path clip-path="url(#p1bfa6b9db1)" d="M 419.387413 384.48 
L 419.387413 371.1744 
L 423.644247 371.1744 
L 423.644247 384.48 
z
" style="fill:#ffe500;"/>
   </g>
   <g id="patch_50">
    <path clip-path="url(#p1bfa6b9db1)" d="M 427.901081 384.48 
L 427.901081 51.84 
L 432.157915 51.84 
L 432.157915 384.48 
z
" style="fill:#008000;opacity:0.04;"/>
   </g>
   <g id="patch_51">
    <path clip-path="url(#p1bfa6b9db1)" d="M 436.414749 384.48 
L 436.414749 51.84 
L 440.671583 51.84 
L 440.671583 384.48 
z
" style="fill:#008000;opacity:0.04;"/>
   </g>
   <g id="patch_52">
    <path clip-path="url(#p1bfa6b9db1)" d="M 742.906802 384.48 
L 742.906802 371.1744 
L 747.163636 371.1744 
L 747.163636 384.48 
z
" style="fill:#ff6600;"/>
   </g>
   <g id="patch_53">
    <path clip-path="url(#p1bfa6b9db1)" d="M 444.928417 384.48 
L 444.928417 51.84 
L 449.185251 51.84 
L 449.185251 384.48 
z
" style="fill:#008000;opacity:0.04;"/>
   </g>
   <g id="patch_54">
    <path clip-path="url(#p1bfa6b9db1)" d="M 453.442085 384.48 
L 453.442085 51.84 
L 457.698919 51.84 
L 457.698919 384.48 
z
" style="fill:#008000;opacity:0.04;"/>
   </g>
   <g id="patch_55">
    <path clip-path="url(#p1bfa6b9db1)" d="M 461.955753 384.48 
L 461.955753 51.84 
L 466.212587 51.84 
L 466.212587 384.48 
z
" style="fill:#008000;opacity:0.04;"/>
   </g>
   <g id="patch_56">
    <path clip-path="url(#p1bfa6b9db1)" d="M 470.469421 384.48 
L 470.469421 51.84 
L 474.726256 51.84 
L 474.726256 384.48 
z
" style="fill:#008000;opacity:0.04;"/>
   </g>
   <g id="patch_57">
    <path clip-path="url(#p1bfa6b9db1)" d="M 478.98309 384.48 
L 478.98309 51.84 
L 483.239924 51.84 
L 483.239924 384.48 
z
" style="fill:#008000;opacity:0.04;"/>
   </g>
   <g id="patch_58">
    <path clip-path="url(#p1bfa6b9db1)" d="M 487.496758 384.48 
L 487.496758 51.84 
L 491.753592 51.84 
L 491.753592 384.48 
z
" style="fill:#008000;opacity:0.04;"/>
   </g>
   <g id="patch_59">
    <path clip-path="url(#p1bfa6b9db1)" d="M 496.010426 384.48 
L 496.010426 51.84 
L 500.26726 51.84 
L 500.26726 384.48 
z
" style="fill:#008000;opacity:0.04;"/>
   </g>
   <g id="patch_60">
    <path clip-path="url(#p1bfa6b9db1)" d="M 504.524094 384.48 
L 504.524094 51.84 
L 508.780928 51.84 
L 508.780928 384.48 
z
" style="fill:#008000;opacity:0.04;"/>
   </g>
   <g id="patch_61">
    <path clip-path="url(#p1bfa6b9db1)" d="M 513.037762 384.48 
L 513.037762 51.84 
L 517.294596 51.84 
L 517.294596 384.48 
z
" style="fill:#008000;opacity:0.04;"/>
   </g>
   <g id="patch_62">
    <path clip-path="url(#p1bfa6b9db1)" d="M 517.294596 371.1744 
L 517.294596 51.84 
L 521.55143 51.84 
L 521.55143 371.1744 
z
" style="fill:#008000;opacity:0.5;"/>
   </g>
   <g id="patch_63">
    <path clip-path="url(#p1bfa6b9db1)" d="M 521.55143 384.48 
L 521.55143 51.84 
L 525.808264 51.84 
L 525.808264 384.48 
z
" style="fill:#008000;opacity:0.04;"/>
   </g>
   <g id="patch_64">
    <path clip-path="url(#p1bfa6b9db1)" d="M 530.065099 384.48 
L 530.065099 51.84 
L 534.321933 51.84 
L 534.321933 384.48 
z
" style="fill:#008000;opacity:0.04;"/>
   </g>
   <g id="patch_65">
    <path clip-path="url(#p1bfa6b9db1)" d="M 538.578767 384.48 
L 538.578767 51.84 
L 542.835601 51.84 
L 542.835601 384.48 
z
" style="fill:#008000;opacity:0.04;"/>
   </g>
   <g id="patch_66">
    <path clip-path="url(#p1bfa6b9db1)" d="M 547.092435 384.48 
L 547.092435 51.84 
L 551.349269 51.84 
L 551.349269 384.48 
z
" style="fill:#008000;opacity:0.04;"/>
   </g>
   <g id="patch_67">
    <path clip-path="url(#p1bfa6b9db1)" d="M 555.606103 384.48 
L 555.606103 51.84 
L 559.862937 51.84 
L 559.862937 384.48 
z
" style="fill:#008000;opacity:0.04;"/>
   </g>
   <g id="patch_68">
    <path clip-path="url(#p1bfa6b9db1)" d="M 564.119771 384.48 
L 564.119771 51.84 
L 568.376605 51.84 
L 568.376605 384.48 
z
" style="fill:#008000;opacity:0.04;"/>
   </g>
   <g id="patch_69">
    <path clip-path="url(#p1bfa6b9db1)" d="M 572.633439 384.48 
L 572.633439 51.84 
L 576.890273 51.84 
L 576.890273 384.48 
z
" style="fill:#008000;opacity:0.04;"/>
   </g>
   <g id="patch_70">
    <path clip-path="url(#p1bfa6b9db1)" d="M 581.147107 384.48 
L 581.147107 51.84 
L 585.403942 51.84 
L 585.403942 384.48 
z
" style="fill:#008000;opacity:0.04;"/>
   </g>
   <g id="patch_71">
    <path clip-path="url(#p1bfa6b9db1)" d="M 589.660776 384.48 
L 589.660776 51.84 
L 593.91761 51.84 
L 593.91761 384.48 
z
" style="fill:#008000;opacity:0.04;"/>
   </g>
   <g id="patch_72">
    <path clip-path="url(#p1bfa6b9db1)" d="M 598.174444 384.48 
L 598.174444 51.84 
L 602.431278 51.84 
L 602.431278 384.48 
z
" style="fill:#008000;opacity:0.04;"/>
   </g>
   <g id="patch_73">
    <path clip-path="url(#p1bfa6b9db1)" d="M 606.688112 384.48 
L 606.688112 51.84 
L 610.944946 51.84 
L 610.944946 384.48 
z
" style="fill:#008000;opacity:0.04;"/>
   </g>
   <g id="patch_74">
    <path clip-path="url(#p1bfa6b9db1)" d="M 615.20178 384.48 
L 615.20178 51.84 
L 619.458614 51.84 
L 619.458614 384.48 
z
" style="fill:#008000;opacity:0.04;"/>
   </g>
   <g id="patch_75">
    <path clip-path="url(#p1bfa6b9db1)" d="M 623.715448 384.48 
L 623.715448 51.84 
L 627.972282 51.84 
L 627.972282 384.48 
z
" style="fill:#008000;opacity:0.04;"/>
   </g>
   <g id="patch_76">
    <path clip-path="url(#p1bfa6b9db1)" d="M 632.229116 384.48 
L 632.229116 51.84 
L 636.48595 51.84 
L 636.48595 384.48 
z
" style="fill:#008000;opacity:0.04;"/>
   </g>
   <g id="patch_77">
    <path clip-path="url(#p1bfa6b9db1)" d="M 640.742784 384.48 
L 640.742784 51.84 
L 644.999619 51.84 
L 644.999619 384.48 
z
" style="fill:#008000;opacity:0.04;"/>
   </g>
   <g id="patch_78">
    <path clip-path="url(#p1bfa6b9db1)" d="M 649.256453 384.48 
L 649.256453 51.84 
L 653.513287 51.84 
L 653.513287 384.48 
z
" style="fill:#008000;opacity:0.04;"/>
   </g>
   <g id="patch_79">
    <path clip-path="url(#p1bfa6b9db1)" d="M 657.770121 384.48 
L 657.770121 51.84 
L 662.026955 51.84 
L 662.026955 384.48 
z
" style="fill:#008000;opacity:0.04;"/>
   </g>
   <g id="patch_80">
    <path clip-path="url(#p1bfa6b9db1)" d="M 666.283789 384.48 
L 666.283789 51.84 
L 670.540623 51.84 
L 670.540623 384.48 
z
" style="fill:#008000;opacity:0.04;"/>
   </g>
   <g id="patch_81">
    <path clip-path="url(#p1bfa6b9db1)" d="M 674.797457 384.48 
L 674.797457 51.84 
L 679.054291 51.84 
L 679.054291 384.48 
z
" style="fill:#008000;opacity:0.04;"/>
   </g>
   <g id="patch_82">
    <path clip-path="url(#p1bfa6b9db1)" d="M 683.311125 384.48 
L 683.311125 51.84 
L 687.567959 51.84 
L 687.567959 384.48 
z
" style="fill:#008000;opacity:0.04;"/>
   </g>
   <g id="patch_83">
    <path clip-path="url(#p1bfa6b9db1)" d="M 691.824793 384.48 
L 691.824793 51.84 
L 696.081627 51.84 
L 696.081627 384.48 
z
" style="fill:#008000;opacity:0.04;"/>
   </g>
   <g id="patch_84">
    <path clip-path="url(#p1bfa6b9db1)" d="M 700.338462 384.48 
L 700.338462 51.84 
L 704.595296 51.84 
L 704.595296 384.48 
z
" style="fill:#008000;opacity:0.04;"/>
   </g>
   <g id="patch_85">
    <path clip-path="url(#p1bfa6b9db1)" d="M 708.85213 384.48 
L 708.85213 51.84 
L 713.108964 51.84 
L 713.108964 384.48 
z
" style="fill:#008000;opacity:0.04;"/>
   </g>
   <g id="patch_86">
    <path clip-path="url(#p1bfa6b9db1)" d="M 717.365798 384.48 
L 717.365798 51.84 
L 721.622632 51.84 
L 721.622632 384.48 
z
" style="fill:#008000;opacity:0.04;"/>
   </g>
   <g id="patch_87">
    <path clip-path="url(#p1bfa6b9db1)" d="M 725.879466 384.48 
L 725.879466 51.84 
L 730.1363 51.84 
L 730.1363 384.48 
z
" style="fill:#008000;opacity:0.04;"/>
   </g>
   <g id="patch_88">
    <path clip-path="url(#p1bfa6b9db1)" d="M 734.393134 384.48 
L 734.393134 51.84 
L 738.649968 51.84 
L 738.649968 384.48 
z
" style="fill:#008000;opacity:0.04;"/>
   </g>
   <g id="patch_89">
    <path clip-path="url(#p1bfa6b9db1)" d="M 742.906802 384.48 
L 742.906802 51.84 
L 747.163636 51.84 
L 747.163636 384.48 
z
" style="fill:#008000;opacity:0.04;"/>
   </g>
   <g id="matplotlib.axis_1">
    <g id="xtick_1">
     <g id="line2d_1">
      <defs>
       <path d="M 0 0 
L 0 3.5 
" id="m5667ab402c" style="stroke:#000000;stroke-width:0.8;"/>
      </defs>
      <g>
       <use style="stroke:#000000;stroke-width:0.8;" x="138.436364" xlink:href="#m5667ab402c" y="384.48"/>
      </g>
     </g>
     <g id="text_1">
      <!-- 0 -->
      <defs>
       <path d="M 31.78125 66.40625 
Q 24.171875 66.40625 20.328125 58.90625 
Q 16.5 51.421875 16.5 36.375 
Q 16.5 21.390625 20.328125 13.890625 
Q 24.171875 6.390625 31.78125 6.390625 
Q 39.453125 6.390625 43.28125 13.890625 
Q 47.125 21.390625 47.125 36.375 
Q 47.125 51.421875 43.28125 58.90625 
Q 39.453125 66.40625 31.78125 66.40625 
z
M 31.78125 74.21875 
Q 44.046875 74.21875 50.515625 64.515625 
Q 56.984375 54.828125 56.984375 36.375 
Q 56.984375 17.96875 50.515625 8.265625 
Q 44.046875 -1.421875 31.78125 -1.421875 
Q 19.53125 -1.421875 13.0625 8.265625 
Q 6.59375 17.96875 6.59375 36.375 
Q 6.59375 54.828125 13.0625 64.515625 
Q 19.53125 74.21875 31.78125 74.21875 
z
" id="DejaVuSans-48"/>
      </defs>
      <g transform="translate(135.255114 399.078438)scale(0.1 -0.1)">
       <use xlink:href="#DejaVuSans-48"/>
      </g>
     </g>
    </g>
    <g id="xtick_2">
     <g id="line2d_2">
      <g>
       <use style="stroke:#000000;stroke-width:0.8;" x="223.573045" xlink:href="#m5667ab402c" y="384.48"/>
      </g>
     </g>
     <g id="text_2">
      <!-- 200 -->
      <defs>
       <path d="M 19.1875 8.296875 
L 53.609375 8.296875 
L 53.609375 0 
L 7.328125 0 
L 7.328125 8.296875 
Q 12.9375 14.109375 22.625 23.890625 
Q 32.328125 33.6875 34.8125 36.53125 
Q 39.546875 41.84375 41.421875 45.53125 
Q 43.3125 49.21875 43.3125 52.78125 
Q 43.3125 58.59375 39.234375 62.25 
Q 35.15625 65.921875 28.609375 65.921875 
Q 23.96875 65.921875 18.8125 64.3125 
Q 13.671875 62.703125 7.8125 59.421875 
L 7.8125 69.390625 
Q 13.765625 71.78125 18.9375 73 
Q 24.125 74.21875 28.421875 74.21875 
Q 39.75 74.21875 46.484375 68.546875 
Q 53.21875 62.890625 53.21875 53.421875 
Q 53.21875 48.921875 51.53125 44.890625 
Q 49.859375 40.875 45.40625 35.40625 
Q 44.1875 33.984375 37.640625 27.21875 
Q 31.109375 20.453125 19.1875 8.296875 
z
" id="DejaVuSans-50"/>
      </defs>
      <g transform="translate(214.029295 399.078438)scale(0.1 -0.1)">
       <use xlink:href="#DejaVuSans-50"/>
       <use x="63.623047" xlink:href="#DejaVuSans-48"/>
       <use x="127.246094" xlink:href="#DejaVuSans-48"/>
      </g>
     </g>
    </g>
    <g id="xtick_3">
     <g id="line2d_3">
      <g>
       <use style="stroke:#000000;stroke-width:0.8;" x="308.709727" xlink:href="#m5667ab402c" y="384.48"/>
      </g>
     </g>
     <g id="text_3">
      <!-- 400 -->
      <defs>
       <path d="M 37.796875 64.3125 
L 12.890625 25.390625 
L 37.796875 25.390625 
z
M 35.203125 72.90625 
L 47.609375 72.90625 
L 47.609375 25.390625 
L 58.015625 25.390625 
L 58.015625 17.1875 
L 47.609375 17.1875 
L 47.609375 0 
L 37.796875 0 
L 37.796875 17.1875 
L 4.890625 17.1875 
L 4.890625 26.703125 
z
" id="DejaVuSans-52"/>
      </defs>
      <g transform="translate(299.165977 399.078438)scale(0.1 -0.1)">
       <use xlink:href="#DejaVuSans-52"/>
       <use x="63.623047" xlink:href="#DejaVuSans-48"/>
       <use x="127.246094" xlink:href="#DejaVuSans-48"/>
      </g>
     </g>
    </g>
    <g id="xtick_4">
     <g id="line2d_4">
      <g>
       <use style="stroke:#000000;stroke-width:0.8;" x="393.846408" xlink:href="#m5667ab402c" y="384.48"/>
      </g>
     </g>
     <g id="text_4">
      <!-- 600 -->
      <defs>
       <path d="M 33.015625 40.375 
Q 26.375 40.375 22.484375 35.828125 
Q 18.609375 31.296875 18.609375 23.390625 
Q 18.609375 15.53125 22.484375 10.953125 
Q 26.375 6.390625 33.015625 6.390625 
Q 39.65625 6.390625 43.53125 10.953125 
Q 47.40625 15.53125 47.40625 23.390625 
Q 47.40625 31.296875 43.53125 35.828125 
Q 39.65625 40.375 33.015625 40.375 
z
M 52.59375 71.296875 
L 52.59375 62.3125 
Q 48.875 64.0625 45.09375 64.984375 
Q 41.3125 65.921875 37.59375 65.921875 
Q 27.828125 65.921875 22.671875 59.328125 
Q 17.53125 52.734375 16.796875 39.40625 
Q 19.671875 43.65625 24.015625 45.921875 
Q 28.375 48.1875 33.59375 48.1875 
Q 44.578125 48.1875 50.953125 41.515625 
Q 57.328125 34.859375 57.328125 23.390625 
Q 57.328125 12.15625 50.6875 5.359375 
Q 44.046875 -1.421875 33.015625 -1.421875 
Q 20.359375 -1.421875 13.671875 8.265625 
Q 6.984375 17.96875 6.984375 36.375 
Q 6.984375 53.65625 15.1875 63.9375 
Q 23.390625 74.21875 37.203125 74.21875 
Q 40.921875 74.21875 44.703125 73.484375 
Q 48.484375 72.75 52.59375 71.296875 
z
" id="DejaVuSans-54"/>
      </defs>
      <g transform="translate(384.302658 399.078438)scale(0.1 -0.1)">
       <use xlink:href="#DejaVuSans-54"/>
       <use x="63.623047" xlink:href="#DejaVuSans-48"/>
       <use x="127.246094" xlink:href="#DejaVuSans-48"/>
      </g>
     </g>
    </g>
    <g id="xtick_5">
     <g id="line2d_5">
      <g>
       <use style="stroke:#000000;stroke-width:0.8;" x="478.98309" xlink:href="#m5667ab402c" y="384.48"/>
      </g>
     </g>
     <g id="text_5">
      <!-- 800 -->
      <defs>
       <path d="M 31.78125 34.625 
Q 24.75 34.625 20.71875 30.859375 
Q 16.703125 27.09375 16.703125 20.515625 
Q 16.703125 13.921875 20.71875 10.15625 
Q 24.75 6.390625 31.78125 6.390625 
Q 38.8125 6.390625 42.859375 10.171875 
Q 46.921875 13.96875 46.921875 20.515625 
Q 46.921875 27.09375 42.890625 30.859375 
Q 38.875 34.625 31.78125 34.625 
z
M 21.921875 38.8125 
Q 15.578125 40.375 12.03125 44.71875 
Q 8.5 49.078125 8.5 55.328125 
Q 8.5 64.0625 14.71875 69.140625 
Q 20.953125 74.21875 31.78125 74.21875 
Q 42.671875 74.21875 48.875 69.140625 
Q 55.078125 64.0625 55.078125 55.328125 
Q 55.078125 49.078125 51.53125 44.71875 
Q 48 40.375 41.703125 38.8125 
Q 48.828125 37.15625 52.796875 32.3125 
Q 56.78125 27.484375 56.78125 20.515625 
Q 56.78125 9.90625 50.3125 4.234375 
Q 43.84375 -1.421875 31.78125 -1.421875 
Q 19.734375 -1.421875 13.25 4.234375 
Q 6.78125 9.90625 6.78125 20.515625 
Q 6.78125 27.484375 10.78125 32.3125 
Q 14.796875 37.15625 21.921875 38.8125 
z
M 18.3125 54.390625 
Q 18.3125 48.734375 21.84375 45.5625 
Q 25.390625 42.390625 31.78125 42.390625 
Q 38.140625 42.390625 41.71875 45.5625 
Q 45.3125 48.734375 45.3125 54.390625 
Q 45.3125 60.0625 41.71875 63.234375 
Q 38.140625 66.40625 31.78125 66.40625 
Q 25.390625 66.40625 21.84375 63.234375 
Q 18.3125 60.0625 18.3125 54.390625 
z
" id="DejaVuSans-56"/>
      </defs>
      <g transform="translate(469.43934 399.078438)scale(0.1 -0.1)">
       <use xlink:href="#DejaVuSans-56"/>
       <use x="63.623047" xlink:href="#DejaVuSans-48"/>
       <use x="127.246094" xlink:href="#DejaVuSans-48"/>
      </g>
     </g>
    </g>
    <g id="xtick_6">
     <g id="line2d_6">
      <g>
       <use style="stroke:#000000;stroke-width:0.8;" x="564.119771" xlink:href="#m5667ab402c" y="384.48"/>
      </g>
     </g>
     <g id="text_6">
      <!-- 1000 -->
      <defs>
       <path d="M 12.40625 8.296875 
L 28.515625 8.296875 
L 28.515625 63.921875 
L 10.984375 60.40625 
L 10.984375 69.390625 
L 28.421875 72.90625 
L 38.28125 72.90625 
L 38.28125 8.296875 
L 54.390625 8.296875 
L 54.390625 0 
L 12.40625 0 
z
" id="DejaVuSans-49"/>
      </defs>
      <g transform="translate(551.394771 399.078438)scale(0.1 -0.1)">
       <use xlink:href="#DejaVuSans-49"/>
       <use x="63.623047" xlink:href="#DejaVuSans-48"/>
       <use x="127.246094" xlink:href="#DejaVuSans-48"/>
       <use x="190.869141" xlink:href="#DejaVuSans-48"/>
      </g>
     </g>
    </g>
    <g id="xtick_7">
     <g id="line2d_7">
      <g>
       <use style="stroke:#000000;stroke-width:0.8;" x="649.256453" xlink:href="#m5667ab402c" y="384.48"/>
      </g>
     </g>
     <g id="text_7">
      <!-- 1200 -->
      <g transform="translate(636.531453 399.078438)scale(0.1 -0.1)">
       <use xlink:href="#DejaVuSans-49"/>
       <use x="63.623047" xlink:href="#DejaVuSans-50"/>
       <use x="127.246094" xlink:href="#DejaVuSans-48"/>
       <use x="190.869141" xlink:href="#DejaVuSans-48"/>
      </g>
     </g>
    </g>
    <g id="xtick_8">
     <g id="line2d_8">
      <g>
       <use style="stroke:#000000;stroke-width:0.8;" x="734.393134" xlink:href="#m5667ab402c" y="384.48"/>
      </g>
     </g>
     <g id="text_8">
      <!-- 1400 -->
      <g transform="translate(721.668134 399.078438)scale(0.1 -0.1)">
       <use xlink:href="#DejaVuSans-49"/>
       <use x="63.623047" xlink:href="#DejaVuSans-52"/>
       <use x="127.246094" xlink:href="#DejaVuSans-48"/>
       <use x="190.869141" xlink:href="#DejaVuSans-48"/>
      </g>
     </g>
    </g>
    <g id="text_9">
     <!-- Timestamp -->
     <defs>
      <path d="M -0.296875 72.90625 
L 61.375 72.90625 
L 61.375 64.59375 
L 35.5 64.59375 
L 35.5 0 
L 25.59375 0 
L 25.59375 64.59375 
L -0.296875 64.59375 
z
" id="DejaVuSans-84"/>
      <path d="M 9.421875 54.6875 
L 18.40625 54.6875 
L 18.40625 0 
L 9.421875 0 
z
M 9.421875 75.984375 
L 18.40625 75.984375 
L 18.40625 64.59375 
L 9.421875 64.59375 
z
" id="DejaVuSans-105"/>
      <path d="M 52 44.1875 
Q 55.375 50.25 60.0625 53.125 
Q 64.75 56 71.09375 56 
Q 79.640625 56 84.28125 50.015625 
Q 88.921875 44.046875 88.921875 33.015625 
L 88.921875 0 
L 79.890625 0 
L 79.890625 32.71875 
Q 79.890625 40.578125 77.09375 44.375 
Q 74.3125 48.1875 68.609375 48.1875 
Q 61.625 48.1875 57.5625 43.546875 
Q 53.515625 38.921875 53.515625 30.90625 
L 53.515625 0 
L 44.484375 0 
L 44.484375 32.71875 
Q 44.484375 40.625 41.703125 44.40625 
Q 38.921875 48.1875 33.109375 48.1875 
Q 26.21875 48.1875 22.15625 43.53125 
Q 18.109375 38.875 18.109375 30.90625 
L 18.109375 0 
L 9.078125 0 
L 9.078125 54.6875 
L 18.109375 54.6875 
L 18.109375 46.1875 
Q 21.1875 51.21875 25.484375 53.609375 
Q 29.78125 56 35.6875 56 
Q 41.65625 56 45.828125 52.96875 
Q 50 49.953125 52 44.1875 
z
" id="DejaVuSans-109"/>
      <path d="M 56.203125 29.59375 
L 56.203125 25.203125 
L 14.890625 25.203125 
Q 15.484375 15.921875 20.484375 11.0625 
Q 25.484375 6.203125 34.421875 6.203125 
Q 39.59375 6.203125 44.453125 7.46875 
Q 49.3125 8.734375 54.109375 11.28125 
L 54.109375 2.78125 
Q 49.265625 0.734375 44.1875 -0.34375 
Q 39.109375 -1.421875 33.890625 -1.421875 
Q 20.796875 -1.421875 13.15625 6.1875 
Q 5.515625 13.8125 5.515625 26.8125 
Q 5.515625 40.234375 12.765625 48.109375 
Q 20.015625 56 32.328125 56 
Q 43.359375 56 49.78125 48.890625 
Q 56.203125 41.796875 56.203125 29.59375 
z
M 47.21875 32.234375 
Q 47.125 39.59375 43.09375 43.984375 
Q 39.0625 48.390625 32.421875 48.390625 
Q 24.90625 48.390625 20.390625 44.140625 
Q 15.875 39.890625 15.1875 32.171875 
z
" id="DejaVuSans-101"/>
      <path d="M 44.28125 53.078125 
L 44.28125 44.578125 
Q 40.484375 46.53125 36.375 47.5 
Q 32.28125 48.484375 27.875 48.484375 
Q 21.1875 48.484375 17.84375 46.4375 
Q 14.5 44.390625 14.5 40.28125 
Q 14.5 37.15625 16.890625 35.375 
Q 19.28125 33.59375 26.515625 31.984375 
L 29.59375 31.296875 
Q 39.15625 29.25 43.1875 25.515625 
Q 47.21875 21.78125 47.21875 15.09375 
Q 47.21875 7.46875 41.1875 3.015625 
Q 35.15625 -1.421875 24.609375 -1.421875 
Q 20.21875 -1.421875 15.453125 -0.5625 
Q 10.6875 0.296875 5.421875 2 
L 5.421875 11.28125 
Q 10.40625 8.6875 15.234375 7.390625 
Q 20.0625 6.109375 24.8125 6.109375 
Q 31.15625 6.109375 34.5625 8.28125 
Q 37.984375 10.453125 37.984375 14.40625 
Q 37.984375 18.0625 35.515625 20.015625 
Q 33.0625 21.96875 24.703125 23.78125 
L 21.578125 24.515625 
Q 13.234375 26.265625 9.515625 29.90625 
Q 5.8125 33.546875 5.8125 39.890625 
Q 5.8125 47.609375 11.28125 51.796875 
Q 16.75 56 26.8125 56 
Q 31.78125 56 36.171875 55.265625 
Q 40.578125 54.546875 44.28125 53.078125 
z
" id="DejaVuSans-115"/>
      <path d="M 18.3125 70.21875 
L 18.3125 54.6875 
L 36.8125 54.6875 
L 36.8125 47.703125 
L 18.3125 47.703125 
L 18.3125 18.015625 
Q 18.3125 11.328125 20.140625 9.421875 
Q 21.96875 7.515625 27.59375 7.515625 
L 36.8125 7.515625 
L 36.8125 0 
L 27.59375 0 
Q 17.1875 0 13.234375 3.875 
Q 9.28125 7.765625 9.28125 18.015625 
L 9.28125 47.703125 
L 2.6875 47.703125 
L 2.6875 54.6875 
L 9.28125 54.6875 
L 9.28125 70.21875 
z
" id="DejaVuSans-116"/>
      <path d="M 34.28125 27.484375 
Q 23.390625 27.484375 19.1875 25 
Q 14.984375 22.515625 14.984375 16.5 
Q 14.984375 11.71875 18.140625 8.90625 
Q 21.296875 6.109375 26.703125 6.109375 
Q 34.1875 6.109375 38.703125 11.40625 
Q 43.21875 16.703125 43.21875 25.484375 
L 43.21875 27.484375 
z
M 52.203125 31.203125 
L 52.203125 0 
L 43.21875 0 
L 43.21875 8.296875 
Q 40.140625 3.328125 35.546875 0.953125 
Q 30.953125 -1.421875 24.3125 -1.421875 
Q 15.921875 -1.421875 10.953125 3.296875 
Q 6 8.015625 6 15.921875 
Q 6 25.140625 12.171875 29.828125 
Q 18.359375 34.515625 30.609375 34.515625 
L 43.21875 34.515625 
L 43.21875 35.40625 
Q 43.21875 41.609375 39.140625 45 
Q 35.0625 48.390625 27.6875 48.390625 
Q 23 48.390625 18.546875 47.265625 
Q 14.109375 46.140625 10.015625 43.890625 
L 10.015625 52.203125 
Q 14.9375 54.109375 19.578125 55.046875 
Q 24.21875 56 28.609375 56 
Q 40.484375 56 46.34375 49.84375 
Q 52.203125 43.703125 52.203125 31.203125 
z
" id="DejaVuSans-97"/>
      <path d="M 18.109375 8.203125 
L 18.109375 -20.796875 
L 9.078125 -20.796875 
L 9.078125 54.6875 
L 18.109375 54.6875 
L 18.109375 46.390625 
Q 20.953125 51.265625 25.265625 53.625 
Q 29.59375 56 35.59375 56 
Q 45.5625 56 51.78125 48.09375 
Q 58.015625 40.1875 58.015625 27.296875 
Q 58.015625 14.40625 51.78125 6.484375 
Q 45.5625 -1.421875 35.59375 -1.421875 
Q 29.59375 -1.421875 25.265625 0.953125 
Q 20.953125 3.328125 18.109375 8.203125 
z
M 48.6875 27.296875 
Q 48.6875 37.203125 44.609375 42.84375 
Q 40.53125 48.484375 33.40625 48.484375 
Q 26.265625 48.484375 22.1875 42.84375 
Q 18.109375 37.203125 18.109375 27.296875 
Q 18.109375 17.390625 22.1875 11.75 
Q 26.265625 6.109375 33.40625 6.109375 
Q 40.53125 6.109375 44.609375 11.75 
Q 48.6875 17.390625 48.6875 27.296875 
z
" id="DejaVuSans-112"/>
     </defs>
     <g transform="translate(414.739062 412.756563)scale(0.1 -0.1)">
      <use xlink:href="#DejaVuSans-84"/>
      <use x="61.037109" xlink:href="#DejaVuSans-105"/>
      <use x="88.820312" xlink:href="#DejaVuSans-109"/>
      <use x="186.232422" xlink:href="#DejaVuSans-101"/>
      <use x="247.755859" xlink:href="#DejaVuSans-115"/>
      <use x="299.855469" xlink:href="#DejaVuSans-116"/>
      <use x="339.064453" xlink:href="#DejaVuSans-97"/>
      <use x="400.34375" xlink:href="#DejaVuSans-109"/>
      <use x="497.755859" xlink:href="#DejaVuSans-112"/>
     </g>
    </g>
   </g>
   <g id="matplotlib.axis_2">
    <g id="ytick_1">
     <g id="line2d_9">
      <defs>
       <path d="M 0 0 
L -3.5 0 
" id="m1347a80daf" style="stroke:#000000;stroke-width:0.8;"/>
      </defs>
      <g>
       <use style="stroke:#000000;stroke-width:0.8;" x="108" xlink:href="#m1347a80daf" y="340.060402"/>
      </g>
     </g>
     <g id="text_10">
      <!-- −1000 -->
      <defs>
       <path d="M 10.59375 35.5 
L 73.1875 35.5 
L 73.1875 27.203125 
L 10.59375 27.203125 
z
" id="DejaVuSans-8722"/>
      </defs>
      <g transform="translate(67.170312 343.859621)scale(0.1 -0.1)">
       <use xlink:href="#DejaVuSans-8722"/>
       <use x="83.789062" xlink:href="#DejaVuSans-49"/>
       <use x="147.412109" xlink:href="#DejaVuSans-48"/>
       <use x="211.035156" xlink:href="#DejaVuSans-48"/>
       <use x="274.658203" xlink:href="#DejaVuSans-48"/>
      </g>
     </g>
    </g>
    <g id="ytick_2">
     <g id="line2d_10">
      <g>
       <use style="stroke:#000000;stroke-width:0.8;" x="108" xlink:href="#m1347a80daf" y="279.05043"/>
      </g>
     </g>
     <g id="text_11">
      <!-- 0 -->
      <g transform="translate(94.6375 282.849649)scale(0.1 -0.1)">
       <use xlink:href="#DejaVuSans-48"/>
      </g>
     </g>
    </g>
    <g id="ytick_3">
     <g id="line2d_11">
      <g>
       <use style="stroke:#000000;stroke-width:0.8;" x="108" xlink:href="#m1347a80daf" y="218.040458"/>
      </g>
     </g>
     <g id="text_12">
      <!-- 1000 -->
      <g transform="translate(75.55 221.839677)scale(0.1 -0.1)">
       <use xlink:href="#DejaVuSans-49"/>
       <use x="63.623047" xlink:href="#DejaVuSans-48"/>
       <use x="127.246094" xlink:href="#DejaVuSans-48"/>
       <use x="190.869141" xlink:href="#DejaVuSans-48"/>
      </g>
     </g>
    </g>
    <g id="ytick_4">
     <g id="line2d_12">
      <g>
       <use style="stroke:#000000;stroke-width:0.8;" x="108" xlink:href="#m1347a80daf" y="157.030487"/>
      </g>
     </g>
     <g id="text_13">
      <!-- 2000 -->
      <g transform="translate(75.55 160.829705)scale(0.1 -0.1)">
       <use xlink:href="#DejaVuSans-50"/>
       <use x="63.623047" xlink:href="#DejaVuSans-48"/>
       <use x="127.246094" xlink:href="#DejaVuSans-48"/>
       <use x="190.869141" xlink:href="#DejaVuSans-48"/>
      </g>
     </g>
    </g>
    <g id="ytick_5">
     <g id="line2d_13">
      <g>
       <use style="stroke:#000000;stroke-width:0.8;" x="108" xlink:href="#m1347a80daf" y="96.020515"/>
      </g>
     </g>
     <g id="text_14">
      <!-- 3000 -->
      <defs>
       <path d="M 40.578125 39.3125 
Q 47.65625 37.796875 51.625 33 
Q 55.609375 28.21875 55.609375 21.1875 
Q 55.609375 10.40625 48.1875 4.484375 
Q 40.765625 -1.421875 27.09375 -1.421875 
Q 22.515625 -1.421875 17.65625 -0.515625 
Q 12.796875 0.390625 7.625 2.203125 
L 7.625 11.71875 
Q 11.71875 9.328125 16.59375 8.109375 
Q 21.484375 6.890625 26.8125 6.890625 
Q 36.078125 6.890625 40.9375 10.546875 
Q 45.796875 14.203125 45.796875 21.1875 
Q 45.796875 27.640625 41.28125 31.265625 
Q 36.765625 34.90625 28.71875 34.90625 
L 20.21875 34.90625 
L 20.21875 43.015625 
L 29.109375 43.015625 
Q 36.375 43.015625 40.234375 45.921875 
Q 44.09375 48.828125 44.09375 54.296875 
Q 44.09375 59.90625 40.109375 62.90625 
Q 36.140625 65.921875 28.71875 65.921875 
Q 24.65625 65.921875 20.015625 65.03125 
Q 15.375 64.15625 9.8125 62.3125 
L 9.8125 71.09375 
Q 15.4375 72.65625 20.34375 73.4375 
Q 25.25 74.21875 29.59375 74.21875 
Q 40.828125 74.21875 47.359375 69.109375 
Q 53.90625 64.015625 53.90625 55.328125 
Q 53.90625 49.265625 50.4375 45.09375 
Q 46.96875 40.921875 40.578125 39.3125 
z
" id="DejaVuSans-51"/>
      </defs>
      <g transform="translate(75.55 99.819734)scale(0.1 -0.1)">
       <use xlink:href="#DejaVuSans-51"/>
       <use x="63.623047" xlink:href="#DejaVuSans-48"/>
       <use x="127.246094" xlink:href="#DejaVuSans-48"/>
       <use x="190.869141" xlink:href="#DejaVuSans-48"/>
      </g>
     </g>
    </g>
    <g id="text_15">
     <!-- Value -->
     <defs>
      <path d="M 28.609375 0 
L 0.78125 72.90625 
L 11.078125 72.90625 
L 34.1875 11.53125 
L 57.328125 72.90625 
L 67.578125 72.90625 
L 39.796875 0 
z
" id="DejaVuSans-86"/>
      <path d="M 9.421875 75.984375 
L 18.40625 75.984375 
L 18.40625 0 
L 9.421875 0 
z
" id="DejaVuSans-108"/>
      <path d="M 8.5 21.578125 
L 8.5 54.6875 
L 17.484375 54.6875 
L 17.484375 21.921875 
Q 17.484375 14.15625 20.5 10.265625 
Q 23.53125 6.390625 29.59375 6.390625 
Q 36.859375 6.390625 41.078125 11.03125 
Q 45.3125 15.671875 45.3125 23.6875 
L 45.3125 54.6875 
L 54.296875 54.6875 
L 54.296875 0 
L 45.3125 0 
L 45.3125 8.40625 
Q 42.046875 3.421875 37.71875 1 
Q 33.40625 -1.421875 27.6875 -1.421875 
Q 18.265625 -1.421875 13.375 4.4375 
Q 8.5 10.296875 8.5 21.578125 
z
M 31.109375 56 
z
" id="DejaVuSans-117"/>
     </defs>
     <g transform="translate(61.090625 232.273281)rotate(-90)scale(0.1 -0.1)">
      <use xlink:href="#DejaVuSans-86"/>
      <use x="68.298828" xlink:href="#DejaVuSans-97"/>
      <use x="129.578125" xlink:href="#DejaVuSans-108"/>
      <use x="157.361328" xlink:href="#DejaVuSans-117"/>
      <use x="220.740234" xlink:href="#DejaVuSans-101"/>
     </g>
    </g>
   </g>
   <g id="line2d_14">
    <path clip-path="url(#p1bfa6b9db1)" d="M 138.436364 275.118567 
L 138.862047 275.528045 
L 139.28773 265.85277 
L 139.713414 261.53428 
L 140.139097 259.744485 
L 140.564781 261.418155 
L 141.841831 243.848116 
L 142.267514 232.265247 
L 143.118881 234.411175 
L 143.544565 231.77856 
L 143.970248 225.534072 
L 144.821615 219.234947 
L 145.247298 214.083869 
L 145.672982 214.738825 
L 146.098665 207.891897 
L 146.524348 210.578701 
L 146.950032 205.110191 
L 147.375715 201.132651 
L 147.801399 200.002765 
L 148.227082 196.247619 
L 148.652765 197.485964 
L 149.504132 191.740883 
L 149.929816 196.527905 
L 150.355499 197.872262 
L 150.781182 193.466959 
L 151.206866 194.323516 
L 151.632549 195.497774 
L 152.058233 195.615354 
L 152.483916 196.985248 
L 152.909599 193.637229 
L 153.335283 193.482609 
L 153.760966 195.378813 
L 154.18665 201.428413 
L 154.612333 198.087361 
L 155.038017 204.875028 
L 155.4637 200.812875 
L 156.315067 212.852549 
L 157.166434 220.99526 
L 157.592117 223.906634 
L 158.0178 228.846831 
L 158.443484 223.92754 
L 158.869167 228.627134 
L 159.294851 235.747861 
L 159.720534 238.160651 
L 160.146217 244.221676 
L 160.571901 239.615214 
L 160.997584 253.937644 
L 161.423268 255.962518 
L 162.274634 262.709027 
L 162.700318 269.656986 
L 163.126001 280.554358 
L 163.551685 282.096131 
L 163.977368 281.580038 
L 164.403051 287.251786 
L 164.828735 294.642049 
L 165.254418 296.537312 
L 165.680102 303.125748 
L 166.105785 304.188095 
L 166.531469 313.654657 
L 166.957152 312.274925 
L 168.234202 325.303715 
L 168.659886 328.29857 
L 169.085569 334.713129 
L 169.511252 336.507323 
L 169.936936 337.351505 
L 170.362619 339.10312 
L 170.788303 345.012885 
L 171.213986 348.570402 
L 172.065353 357.571248 
L 172.491036 357.714926 
L 172.91672 353.25404 
L 173.342403 356.454304 
L 173.768086 361.015101 
L 174.19377 362.899503 
L 174.619453 363.893851 
L 175.045137 360.26455 
L 175.47082 364.76307 
L 175.896503 360.295458 
L 176.322187 362.249462 
L 176.74787 360.036066 
L 177.173554 366.373118 
L 177.599237 362.967941 
L 178.024921 364.83568 
L 178.450604 359.10578 
L 178.876287 359.223287 
L 179.301971 358.880904 
L 179.727654 351.65659 
L 180.153338 353.440287 
L 180.579021 348.805806 
L 181.004704 347.021509 
L 181.430388 349.219865 
L 181.856071 345.876628 
L 182.281755 340.788498 
L 182.707438 341.249038 
L 183.133121 332.569722 
L 183.558805 334.825046 
L 183.984488 322.111554 
L 184.410172 324.919941 
L 184.835855 314.20729 
L 185.261538 316.665704 
L 185.687222 314.257157 
L 186.112905 306.911239 
L 186.538589 302.583624 
L 186.964272 303.508642 
L 187.389955 290.558703 
L 187.815639 292.835429 
L 188.241322 283.792089 
L 188.667006 278.764351 
L 189.518373 271.608628 
L 189.944056 266.116994 
L 190.369739 265.584397 
L 190.795423 260.331992 
L 191.221106 256.930961 
L 191.64679 244.253037 
L 192.072473 240.296518 
L 192.498156 240.022581 
L 192.92384 240.665717 
L 193.775207 224.47103 
L 194.20089 227.031663 
L 194.626573 219.5957 
L 195.052257 221.795712 
L 195.47794 213.475882 
L 195.903624 215.62871 
L 196.329307 213.707129 
L 197.180674 207.610825 
L 197.606357 205.561848 
L 198.032041 198.459809 
L 198.457724 198.810957 
L 198.883408 198.514017 
L 199.309091 199.598831 
L 200.160458 196.730917 
L 200.586141 197.243487 
L 201.437508 191.846214 
L 201.863191 197.125396 
L 202.288875 189.256191 
L 202.714558 198.529306 
L 203.140242 195.604582 
L 203.565925 189.021392 
L 204.417292 200.052946 
L 204.842975 203.736923 
L 205.268659 201.224103 
L 206.120025 208.824299 
L 206.545709 209.283171 
L 206.971392 214.600417 
L 207.397076 207.799234 
L 208.248442 220.150964 
L 208.674126 223.851842 
L 209.099809 231.403043 
L 209.525493 230.738562 
L 210.37686 244.56397 
L 210.802543 239.697412 
L 211.228226 252.670364 
L 211.65391 254.999621 
L 212.505277 265.835395 
L 212.93096 265.499986 
L 213.356643 276.611449 
L 213.782327 277.038428 
L 214.633694 289.781095 
L 215.059377 290.181692 
L 215.910744 300.7111 
L 216.336427 300.189311 
L 217.187794 312.050794 
L 217.613477 315.411968 
L 218.039161 322.217585 
L 218.464844 324.458095 
L 218.890528 324.182996 
L 219.316211 331.307306 
L 219.741894 334.246236 
L 220.167578 331.785859 
L 220.593261 343.444169 
L 221.018945 341.257282 
L 221.444628 341.482904 
L 221.870312 352.979513 
L 222.295995 352.027565 
L 222.721678 355.502668 
L 223.147362 357.810427 
L 223.573045 361.311773 
L 223.998729 362.397474 
L 224.424412 356.981784 
L 224.850095 360.174304 
L 225.275779 360.464087 
L 225.701462 358.649609 
L 226.127146 365.010951 
L 226.552829 361.471541 
L 226.978512 364.098442 
L 227.404196 365.126864 
L 227.829879 360.102906 
L 228.681246 364.425613 
L 229.106929 360.561584 
L 229.532613 353.649758 
L 229.958296 352.912811 
L 230.38398 359.1337 
L 230.809663 352.126033 
L 231.235346 347.399911 
L 231.66103 352.505851 
L 232.086713 340.288923 
L 232.512397 343.39111 
L 232.93808 337.694126 
L 233.363764 335.851413 
L 233.789447 326.870536 
L 234.21513 332.742856 
L 234.640814 324.838757 
L 235.066497 323.841658 
L 235.917864 305.432926 
L 236.343547 312.869154 
L 236.769231 304.052821 
L 237.194914 299.951736 
L 237.620598 290.270459 
L 238.046281 293.649251 
L 238.897648 276.279023 
L 239.323331 277.83366 
L 239.749015 274.686427 
L 240.600381 261.928964 
L 241.026065 262.199187 
L 241.451748 249.63286 
L 241.877432 250.318516 
L 242.303115 255.133029 
L 242.728798 245.389097 
L 243.154482 233.081695 
L 243.580165 237.003686 
L 244.005849 230.472971 
L 244.431532 226.353599 
L 244.857216 227.930303 
L 245.282899 218.066807 
L 245.708582 215.081033 
L 246.134266 207.535651 
L 246.559949 207.304471 
L 246.985633 207.617465 
L 247.411316 205.676501 
L 247.836999 201.287603 
L 248.262683 203.900594 
L 248.688366 198.995352 
L 249.539733 194.65269 
L 249.965416 198.760929 
L 250.3911 189.782183 
L 250.816783 191.485691 
L 251.242467 185.446504 
L 251.66815 198.945529 
L 252.093833 194.957925 
L 252.519517 198.755993 
L 252.9452 195.269544 
L 253.370884 193.771091 
L 253.796567 190.451024 
L 254.22225 198.373809 
L 254.647934 202.198903 
L 255.499301 200.159098 
L 255.924984 203.662113 
L 256.350668 202.471681 
L 257.202034 216.994513 
L 257.627718 211.836899 
L 258.053401 221.371812 
L 258.479085 219.270064 
L 259.330451 227.077434 
L 259.756135 226.599057 
L 260.607502 243.906036 
L 261.033185 243.715235 
L 261.458868 248.827638 
L 262.310235 251.650114 
L 262.735919 266.775995 
L 263.161602 266.276586 
L 264.012969 272.919643 
L 264.438652 281.330077 
L 264.864336 282.476366 
L 265.715702 292.732091 
L 266.141386 297.527653 
L 266.567069 296.970734 
L 266.992753 303.766415 
L 267.418436 304.027314 
L 267.84412 315.11385 
L 268.269803 322.209982 
L 268.695486 323.516996 
L 269.12117 325.807183 
L 269.972537 334.626586 
L 270.39822 341.642777 
L 270.823903 342.441555 
L 271.249587 346.423754 
L 271.67527 344.923276 
L 272.100954 347.489228 
L 272.526637 346.253056 
L 272.95232 354.345736 
L 273.378004 352.435013 
L 274.229371 363.573944 
L 274.655054 358.907433 
L 275.080737 363.044312 
L 275.506421 364.958616 
L 275.932104 365.4135 
L 276.357788 360.127717 
L 276.783471 358.843538 
L 277.209154 360.579519 
L 277.634838 364.301002 
L 278.060521 367.023372 
L 278.486205 361.514485 
L 278.911888 357.764892 
L 279.337572 357.412454 
L 279.763255 357.597805 
L 280.188938 356.217214 
L 280.614622 357.644285 
L 281.040305 351.533005 
L 281.465989 350.424586 
L 281.891672 347.867263 
L 282.317355 345.99109 
L 282.743039 346.060799 
L 283.168722 341.216087 
L 283.594406 333.730168 
L 284.020089 332.571754 
L 284.871456 325.980965 
L 285.297139 317.193095 
L 285.722823 317.521424 
L 286.574189 308.849772 
L 286.999873 308.041701 
L 287.85124 292.287374 
L 288.276923 290.407374 
L 288.702606 291.853836 
L 289.12829 282.572671 
L 289.553973 276.53591 
L 289.979657 273.975932 
L 290.40534 266.784849 
L 291.256707 263.535524 
L 291.68239 253.586661 
L 292.108074 250.694179 
L 292.959441 239.820672 
L 293.385124 238.362573 
L 293.810807 240.075459 
L 294.236491 230.778202 
L 294.662174 232.532236 
L 295.513541 217.474887 
L 295.939224 222.538115 
L 296.364908 213.767615 
L 296.790591 213.08725 
L 297.216275 209.414475 
L 297.641958 202.920395 
L 298.067641 202.223273 
L 298.493325 197.509127 
L 298.919008 203.173379 
L 299.344692 200.684964 
L 299.770375 198.88714 
L 300.196058 195.73007 
L 300.621742 197.466145 
L 301.047425 196.158791 
L 301.473109 196.137317 
L 301.898792 190.961802 
L 302.324476 191.112324 
L 302.750159 190.186853 
L 303.175842 185.215387 
L 303.601526 194.755051 
L 304.027209 192.996859 
L 304.452893 186.133083 
L 304.878576 195.951383 
L 305.304259 199.536495 
L 305.729943 204.195887 
L 306.155626 204.936317 
L 306.58131 210.766754 
L 307.006993 212.886448 
L 307.432676 211.933597 
L 307.85836 212.549791 
L 308.709727 221.034326 
L 309.13541 228.871403 
L 309.561093 224.704836 
L 309.986777 229.015707 
L 310.41246 229.240148 
L 310.838144 243.994061 
L 311.263827 243.171786 
L 311.68951 240.995168 
L 312.115194 250.330485 
L 312.540877 250.714419 
L 313.392244 263.437772 
L 313.817928 265.505044 
L 314.243611 278.467728 
L 314.669294 278.451694 
L 315.094978 280.039597 
L 315.520661 282.274248 
L 316.372028 294.80391 
L 316.797711 296.270851 
L 317.649078 311.889388 
L 318.074762 312.721616 
L 318.500445 317.248421 
L 318.926128 319.57471 
L 319.351812 325.778027 
L 319.777495 326.297382 
L 320.203179 325.509614 
L 320.628862 340.956573 
L 321.054545 336.830376 
L 321.480229 344.007416 
L 321.905912 346.647651 
L 322.331596 353.08492 
L 322.757279 350.78894 
L 323.182962 351.286743 
L 323.608646 358.905188 
L 324.034329 350.353841 
L 324.460013 360.449884 
L 324.885696 366.652276 
L 325.737063 354.502137 
L 326.162746 357.629486 
L 327.439797 362.05551 
L 328.291163 367.577278 
L 328.716847 369.140471 
L 329.14253 364.992058 
L 329.568214 365.737887 
L 329.993897 361.899477 
L 330.41958 354.965987 
L 330.845264 358.169384 
L 331.270947 358.169525 
L 331.696631 354.161422 
L 332.122314 354.030035 
L 332.547997 343.531788 
L 332.973681 347.862561 
L 333.825048 335.158611 
L 334.676414 324.176832 
L 335.102098 331.875874 
L 335.527781 319.715052 
L 335.953465 320.39078 
L 336.379148 315.173802 
L 336.804832 305.957924 
L 337.230515 308.109081 
L 337.656198 299.78504 
L 338.081882 297.801613 
L 338.507565 294.592134 
L 338.933249 284.192277 
L 339.358932 284.764896 
L 339.784615 280.194862 
L 340.210299 272.830179 
L 340.635982 267.621176 
L 341.061666 268.834946 
L 341.487349 257.920413 
L 341.913032 259.041055 
L 342.338716 255.453415 
L 342.764399 255.658849 
L 343.190083 244.639458 
L 343.615766 239.083336 
L 344.041449 238.260601 
L 344.467133 228.302273 
L 345.3185 224.470442 
L 345.744183 215.683507 
L 346.169866 222.669687 
L 346.59555 213.961867 
L 347.021233 209.252953 
L 347.446917 212.201448 
L 347.8726 207.317833 
L 348.298284 204.308053 
L 348.723967 203.342663 
L 349.14965 199.779208 
L 349.575334 198.735162 
L 350.001017 199.322916 
L 350.426701 193.078384 
L 350.852384 196.185841 
L 351.278067 195.520649 
L 352.129434 187.37143 
L 352.555118 198.023864 
L 352.980801 192.065938 
L 353.406484 191.824321 
L 353.832168 193.587642 
L 354.257851 186.5677 
L 354.683535 191.713 
L 355.109218 198.610371 
L 355.534901 200.443444 
L 355.960585 197.429412 
L 356.386268 199.132683 
L 356.811952 202.235534 
L 357.237635 208.769269 
L 357.663318 207.824771 
L 358.089002 212.548322 
L 358.514685 209.545399 
L 358.940369 221.130188 
L 359.366052 221.704863 
L 359.791736 228.490345 
L 360.217419 231.999906 
L 360.643102 232.711674 
L 361.494469 242.209463 
L 361.920153 239.964773 
L 362.345836 248.737383 
L 362.771519 249.210845 
L 363.197203 260.740759 
L 363.622886 262.882585 
L 364.04857 270.961822 
L 364.474253 266.617125 
L 364.899936 278.680147 
L 365.32562 275.572063 
L 365.751303 287.769468 
L 366.176987 289.486385 
L 366.60267 302.613525 
L 367.028353 298.86628 
L 367.454037 302.425953 
L 367.87972 312.747453 
L 368.305404 311.894642 
L 368.731087 316.207223 
L 369.156771 324.877097 
L 369.582454 320.265421 
L 370.008137 330.616004 
L 370.433821 331.16627 
L 370.859504 332.223686 
L 371.285188 338.950583 
L 371.710871 338.168259 
L 372.136554 343.075236 
L 372.562238 341.653004 
L 372.987921 350.960062 
L 373.413605 354.923597 
L 373.839288 352.402903 
L 374.264971 356.119231 
L 374.690655 358.206554 
L 375.116338 357.293372 
L 375.542022 358.652451 
L 375.967705 361.193365 
L 376.393388 360.132142 
L 377.244755 360.510048 
L 377.670439 360.237057 
L 378.096122 359.113626 
L 378.521805 363.221469 
L 378.947489 363.583621 
L 379.373172 365.212495 
L 379.798856 361.077349 
L 380.224539 361.93332 
L 380.650223 356.252364 
L 381.075906 356.408529 
L 381.927273 354.692002 
L 382.352956 349.078218 
L 382.77864 348.53968 
L 383.204323 347.818678 
L 383.630006 345.32256 
L 384.05569 334.364245 
L 384.481373 336.584878 
L 384.907057 333.376043 
L 385.33274 328.289224 
L 385.758423 325.408279 
L 387.035474 313.475316 
L 387.461157 310.790339 
L 387.88684 300.866772 
L 388.312524 299.06184 
L 388.738207 298.789297 
L 389.163891 287.315707 
L 389.589574 290.730563 
L 390.015257 282.03757 
L 390.440941 277.14696 
L 390.866624 274.639555 
L 391.292308 266.309191 
L 391.717991 267.402668 
L 392.143675 253.548012 
L 392.569358 252.743746 
L 392.995041 244.276702 
L 393.420725 243.319754 
L 393.846408 246.425519 
L 394.272092 235.111575 
L 394.697775 231.797611 
L 395.123458 226.193562 
L 395.549142 222.37127 
L 395.974825 220.765835 
L 396.400509 216.859036 
L 396.826192 217.42875 
L 397.251875 207.66686 
L 397.677559 215.241818 
L 398.103242 212.953358 
L 398.528926 208.668691 
L 398.954609 199.572727 
L 399.380292 203.815938 
L 400.231659 196.702837 
L 400.657343 197.100617 
L 401.083026 200.947907 
L 401.508709 189.929114 
L 401.934393 193.139146 
L 402.360076 190.82676 
L 403.211443 194.002306 
L 403.637127 66.96 
L 404.488493 66.96 
L 404.914177 198.578931 
L 405.33986 192.174182 
L 405.765544 200.517135 
L 406.191227 199.351501 
L 406.61691 205.764533 
L 407.042594 201.317217 
L 407.468277 203.954818 
L 407.893961 209.193135 
L 408.319644 206.260305 
L 408.745327 215.616442 
L 409.171011 218.04616 
L 409.596694 216.992395 
L 410.022378 222.435188 
L 410.873744 226.630643 
L 411.299428 234.300889 
L 411.725111 237.025993 
L 412.150795 245.137348 
L 412.576478 245.890435 
L 413.002161 252.576237 
L 413.427845 251.995742 
L 413.853528 260.527279 
L 414.704895 269.349779 
L 415.130579 280.190422 
L 415.556262 281.480841 
L 415.981945 276.810823 
L 416.833312 291.799912 
L 417.684679 301.269156 
L 418.110362 303.72772 
L 418.536046 183.180647 
L 419.387413 183.180647 
L 419.813096 325.424361 
L 420.238779 326.674944 
L 420.664463 327.446881 
L 421.090146 337.076957 
L 421.51583 332.792795 
L 421.941513 335.523533 
L 422.367196 342.274492 
L 422.79288 344.276521 
L 423.218563 343.616094 
L 423.644247 352.089348 
L 424.495613 358.200649 
L 424.921297 359.49837 
L 425.34698 360.303699 
L 425.772664 358.332057 
L 426.198347 363.593291 
L 426.624031 362.445342 
L 427.049714 361.808322 
L 427.475397 366.75714 
L 427.901081 358.550395 
L 428.326764 358.874392 
L 428.752448 368.297035 
L 429.178131 363.684248 
L 429.603814 362.598045 
L 430.029498 359.933005 
L 430.455181 362.89753 
L 430.880865 358.976735 
L 431.306548 353.701707 
L 431.732231 351.165098 
L 432.157915 351.430257 
L 432.583598 348.779853 
L 433.009282 349.322396 
L 433.434965 345.971494 
L 433.860648 338.072592 
L 434.286332 338.399123 
L 434.712015 337.467059 
L 435.137699 326.837379 
L 435.563382 330.168205 
L 435.989065 321.115201 
L 436.414749 318.972402 
L 436.840432 315.628537 
L 437.266116 313.692758 
L 437.691799 305.785832 
L 438.117483 309.383037 
L 439.394533 290.57703 
L 440.671583 278.420075 
L 441.097266 271.511722 
L 441.52295 270.511638 
L 441.948633 270.768354 
L 442.374317 259.482188 
L 442.8 252.401069 
L 443.225683 247.691259 
L 443.651367 247.379456 
L 444.07705 242.479552 
L 444.502734 233.502692 
L 444.928417 236.237375 
L 445.779784 225.157413 
L 446.205467 225.100437 
L 446.631151 221.115642 
L 447.056834 214.649062 
L 447.482517 215.579091 
L 447.908201 209.004652 
L 448.333884 211.43445 
L 448.759568 211.467212 
L 449.185251 200.943641 
L 449.610935 201.179845 
L 450.036618 200.230563 
L 450.462301 198.832841 
L 450.887985 192.680298 
L 451.313668 197.933778 
L 451.739352 190.592273 
L 452.165035 196.070423 
L 452.590718 192.763653 
L 453.016402 192.739951 
L 453.442085 190.264519 
L 453.867769 197.795546 
L 454.293452 193.524408 
L 454.719135 193.855049 
L 455.144819 192.622815 
L 455.570502 192.034138 
L 455.996186 199.981424 
L 456.421869 197.534346 
L 456.847552 199.006475 
L 457.273236 198.782208 
L 457.698919 205.017874 
L 458.124603 203.654871 
L 458.550286 209.633126 
L 458.975969 213.690932 
L 459.401653 214.230874 
L 460.25302 221.244135 
L 460.678703 222.859194 
L 461.104387 230.565377 
L 461.955753 238.082011 
L 462.381437 238.172093 
L 462.80712 239.602772 
L 463.232804 246.921568 
L 463.658487 251.020298 
L 464.08417 253.141487 
L 464.509854 264.870927 
L 464.935537 272.154201 
L 465.361221 275.549124 
L 465.786904 275.832342 
L 466.212587 281.083125 
L 466.638271 294.127579 
L 467.063954 286.48671 
L 467.489638 295.320227 
L 468.341004 302.136407 
L 468.766688 311.75429 
L 469.192371 314.071966 
L 469.618055 312.751956 
L 470.043738 313.81766 
L 470.469421 321.683617 
L 470.895105 325.261769 
L 471.320788 336.468563 
L 471.746472 331.320829 
L 472.172155 334.382537 
L 472.597839 342.091647 
L 473.023522 343.334061 
L 473.449205 343.789135 
L 473.874889 342.513781 
L 474.300572 355.010686 
L 474.726256 350.490988 
L 475.151939 351.330638 
L 476.428989 360.509374 
L 476.854673 360.536666 
L 477.280356 359.123634 
L 477.706039 365.718835 
L 478.131723 366.466404 
L 478.557406 364.934798 
L 478.98309 366.96931 
L 479.408773 367.309671 
L 479.834456 357.162018 
L 480.26014 363.415952 
L 480.685823 360.990307 
L 481.111507 361.586054 
L 481.53719 354.866956 
L 481.962873 353.003606 
L 482.388557 348.915178 
L 482.81424 351.803728 
L 483.239924 344.05221 
L 483.665607 344.836111 
L 484.091291 346.463363 
L 484.516974 335.810351 
L 484.942657 331.482265 
L 485.368341 330.327865 
L 485.794024 330.639139 
L 486.219708 329.812732 
L 486.645391 321.705055 
L 487.071074 322.076087 
L 487.496758 319.485972 
L 487.922441 307.500809 
L 488.348125 306.380157 
L 489.199491 298.741963 
L 489.625175 288.203478 
L 490.050858 292.742965 
L 490.902225 277.001765 
L 491.327908 273.323384 
L 491.753592 271.613814 
L 492.179275 265.384565 
L 492.604959 261.317995 
L 493.030642 251.055176 
L 493.456325 251.605848 
L 493.882009 249.666568 
L 494.307692 239.724492 
L 494.733376 243.25833 
L 495.159059 233.614878 
L 495.584743 227.567217 
L 496.010426 231.261255 
L 496.436109 223.002279 
L 496.861793 217.579328 
L 498.138843 205.146121 
L 498.564526 207.711345 
L 498.99021 208.384438 
L 499.415893 205.719024 
L 499.841577 199.02497 
L 500.26726 204.119981 
L 500.692943 195.927186 
L 501.118627 199.55974 
L 501.54431 197.556475 
L 501.969994 192.557964 
L 502.395677 194.6361 
L 502.82136 194.796698 
L 503.247044 193.941251 
L 503.672727 187.366294 
L 504.098411 196.179267 
L 504.524094 191.951724 
L 504.949777 194.360867 
L 505.375461 184.548291 
L 505.801144 195.345413 
L 506.226828 190.515764 
L 506.652511 195.04027 
L 507.078195 204.37663 
L 507.503878 199.892516 
L 507.929561 201.537092 
L 508.355245 206.038374 
L 508.780928 214.804802 
L 509.206612 204.552577 
L 509.632295 215.115353 
L 510.057978 222.059909 
L 510.483662 217.151904 
L 510.909345 225.299418 
L 511.335029 227.409337 
L 512.186395 241.43475 
L 512.612079 240.408188 
L 513.037762 241.679806 
L 513.463446 248.292367 
L 514.740496 260.107751 
L 515.166179 266.636955 
L 515.591863 271.273584 
L 516.868913 288.40094 
L 517.294596 290.868734 
L 518.145963 298.54446 
L 518.571647 180.934645 
L 519.423013 180.934645 
L 519.848697 313.201445 
L 520.700064 322.367525 
L 521.125747 328.927362 
L 522.828481 339.822206 
L 523.254164 337.085783 
L 523.679847 346.572197 
L 524.105531 350.458296 
L 524.531214 355.642166 
L 524.956898 355.864205 
L 525.382581 346.665967 
L 525.808264 355.574144 
L 526.233948 355.240866 
L 526.659631 358.744303 
L 527.085315 359.927689 
L 527.510998 361.852795 
L 527.936682 360.221484 
L 528.362365 357.839477 
L 528.788048 359.66722 
L 529.213732 363.060177 
L 529.639415 361.695942 
L 530.065099 365.953157 
L 530.490782 357.080946 
L 530.916465 353.923927 
L 531.342149 362.980771 
L 531.767832 356.817972 
L 532.193516 357.758241 
L 532.619199 356.783529 
L 533.044882 347.555885 
L 533.470566 344.866653 
L 533.896249 339.59493 
L 534.321933 341.574925 
L 534.747616 345.836456 
L 535.173299 335.498702 
L 535.598983 335.866445 
L 536.45035 325.858372 
L 536.876033 322.629441 
L 537.301716 316.485299 
L 537.7274 316.985238 
L 538.153083 312.93677 
L 539.00445 299.589358 
L 539.430134 299.173468 
L 540.2815 292.196773 
L 541.132867 280.900904 
L 541.558551 279.109319 
L 541.984234 268.798708 
L 542.409917 272.832973 
L 542.835601 262.428083 
L 543.261284 262.000887 
L 543.686968 249.332648 
L 544.112651 250.38612 
L 544.538334 241.042489 
L 544.964018 241.709404 
L 545.389701 237.018441 
L 545.815385 235.599601 
L 546.241068 238.207479 
L 546.666751 219.823853 
L 547.092435 225.812642 
L 547.518118 210.072545 
L 547.943802 213.839305 
L 548.369485 213.585532 
L 548.795168 206.808278 
L 549.220852 203.591202 
L 549.646535 204.587926 
L 550.072219 201.208841 
L 550.497902 193.863134 
L 550.923586 202.155797 
L 551.349269 196.342758 
L 551.774952 192.353762 
L 552.200636 198.090731 
L 552.626319 198.361213 
L 553.052003 187.915651 
L 553.477686 194.033621 
L 553.903369 194.752273 
L 554.329053 191.694804 
L 554.754736 193.605707 
L 555.18042 194.158061 
L 555.606103 197.613583 
L 556.031786 197.033248 
L 556.45747 192.816332 
L 556.883153 195.374911 
L 557.308837 200.614294 
L 557.73452 193.035185 
L 558.160203 198.079781 
L 558.585887 207.332782 
L 559.01157 207.886012 
L 559.437254 220.395636 
L 559.862937 210.279119 
L 560.28862 214.627483 
L 560.714304 221.197897 
L 561.565671 226.417913 
L 561.991354 227.256522 
L 562.417038 237.307348 
L 562.842721 234.958479 
L 563.268404 240.021498 
L 563.694088 248.75355 
L 564.119771 251.736467 
L 564.545455 249.46724 
L 565.396821 268.394997 
L 565.822505 273.151983 
L 566.248188 273.305909 
L 567.099555 281.371968 
L 567.525238 287.488716 
L 567.950922 297.299603 
L 568.376605 296.999802 
L 568.802289 297.111353 
L 569.227972 311.541496 
L 569.653655 306.664025 
L 570.079339 317.319951 
L 570.505022 317.478659 
L 570.930706 325.112041 
L 571.356389 322.016378 
L 571.782072 330.103984 
L 572.207756 330.491756 
L 572.633439 337.684466 
L 573.484806 346.169341 
L 573.91049 347.938844 
L 574.336173 348.125732 
L 574.761856 345.192377 
L 575.613223 355.832154 
L 576.038907 354.947693 
L 576.46459 360.433816 
L 576.890273 360.633503 
L 577.315957 359.396527 
L 577.74164 352.469936 
L 578.167324 360.804731 
L 578.593007 361.66531 
L 579.01869 369.36 
L 579.444374 358.514671 
L 579.870057 358.026292 
L 580.295741 366.458573 
L 580.721424 360.674826 
L 581.147107 362.29404 
L 581.572791 358.107737 
L 581.998474 358.594852 
L 582.424158 352.177814 
L 582.849841 352.801192 
L 583.275524 351.107167 
L 583.701208 347.851189 
L 584.126891 352.19395 
L 584.552575 347.476844 
L 584.978258 336.664953 
L 585.403942 337.23828 
L 585.829625 333.306494 
L 586.255308 335.525887 
L 586.680992 320.819253 
L 587.106675 325.539566 
L 587.532359 318.495626 
L 587.958042 316.852237 
L 588.383725 309.082756 
L 588.809409 310.607921 
L 589.235092 300.442941 
L 589.660776 296.038178 
L 590.086459 297.211637 
L 590.512142 295.451356 
L 590.937826 284.547675 
L 591.363509 288.578695 
L 591.789193 274.464678 
L 592.640559 265.226125 
L 593.066243 264.247093 
L 593.491926 253.049029 
L 593.91761 254.776832 
L 594.343293 252.994037 
L 594.768976 246.912329 
L 595.19466 245.451353 
L 595.620343 241.413986 
L 596.046027 232.828596 
L 596.47171 229.46946 
L 596.897394 227.573303 
L 597.74876 219.385009 
L 598.174444 216.596752 
L 598.600127 207.05281 
L 599.025811 211.498164 
L 599.451494 204.791663 
L 599.877177 205.475557 
L 600.302861 205.404582 
L 600.728544 202.918471 
L 601.154228 197.618712 
L 601.579911 198.218319 
L 602.005594 194.505341 
L 602.856961 190.520476 
L 603.282645 195.256062 
L 603.708328 187.322412 
L 604.134011 197.260753 
L 604.559695 197.265443 
L 604.985378 187.964084 
L 605.411062 188.094332 
L 605.836745 196.255302 
L 606.262428 192.042581 
L 606.688112 198.90034 
L 607.113795 191.199755 
L 607.539479 197.5885 
L 608.390846 202.764681 
L 608.816529 207.852493 
L 609.242212 203.829492 
L 609.667896 209.139644 
L 610.093579 210.472299 
L 610.519263 217.587642 
L 610.944946 219.619805 
L 611.370629 220.934373 
L 611.796313 230.673708 
L 612.221996 231.869955 
L 612.64768 234.686516 
L 613.073363 234.926953 
L 613.499046 243.704988 
L 613.92473 248.306571 
L 614.350413 247.871805 
L 614.776097 255.865055 
L 615.20178 254.742675 
L 615.627463 267.608141 
L 616.053147 268.004051 
L 616.47883 273.840482 
L 616.904514 277.486887 
L 617.330197 278.161153 
L 617.75588 282.722352 
L 618.607247 299.706913 
L 619.032931 300.676758 
L 619.458614 298.480556 
L 620.309981 313.847138 
L 621.161348 316.62546 
L 621.587031 317.303028 
L 622.438398 333.464633 
L 622.864081 326.740688 
L 623.289765 336.833183 
L 623.715448 335.796534 
L 624.141132 339.09898 
L 624.566815 352.234309 
L 624.992498 343.33614 
L 625.418182 351.129527 
L 625.843865 355.531398 
L 626.269549 354.613095 
L 627.546599 359.727201 
L 627.972282 355.603385 
L 628.823649 360.544607 
L 629.249332 363.702013 
L 629.675016 358.077088 
L 630.100699 359.619218 
L 630.526383 362.643014 
L 630.952066 362.207358 
L 631.803433 359.126656 
L 632.6548 352.922416 
L 633.080483 353.175851 
L 633.506167 357.067318 
L 633.93185 348.475195 
L 634.357533 343.69142 
L 634.783217 348.556521 
L 635.2089 347.523875 
L 635.634584 336.153124 
L 636.060267 336.617943 
L 636.48595 330.451483 
L 636.911634 329.267913 
L 637.337317 319.439727 
L 638.188684 315.077559 
L 639.465734 301.145473 
L 639.891418 303.238939 
L 640.317101 291.011491 
L 640.742784 295.932556 
L 641.168468 293.726075 
L 641.594151 283.101205 
L 642.019835 276.020665 
L 642.445518 272.204612 
L 642.871202 267.095788 
L 643.722568 261.808024 
L 644.148252 255.058781 
L 644.573935 245.518337 
L 644.999619 247.702229 
L 645.425302 241.089427 
L 645.850985 236.982017 
L 646.276669 230.695878 
L 646.702352 234.016258 
L 647.553719 222.332919 
L 647.979402 221.068495 
L 648.405086 215.879472 
L 648.830769 214.090715 
L 649.682136 212.605596 
L 650.107819 202.418909 
L 650.533503 202.255532 
L 650.959186 198.04972 
L 651.38487 205.631538 
L 651.810553 193.40265 
L 652.236236 194.127936 
L 652.66192 195.322259 
L 653.087603 191.178084 
L 653.513287 191.161025 
L 653.93897 189.48377 
L 654.364654 189.457877 
L 654.790337 190.48747 
L 655.21602 190.696122 
L 655.641704 193.406038 
L 656.067387 190.717616 
L 656.493071 194.655193 
L 656.918754 189.999776 
L 657.344437 195.074186 
L 657.770121 192.462224 
L 658.195804 199.820878 
L 658.621488 201.357696 
L 659.047171 200.309143 
L 659.472854 201.817887 
L 659.898538 211.490485 
L 660.324221 208.155547 
L 660.749905 210.343148 
L 661.175588 218.300686 
L 661.601271 218.072864 
L 662.026955 225.785403 
L 662.878322 231.73482 
L 663.304005 237.263314 
L 663.729688 234.526636 
L 664.155372 243.383872 
L 664.581055 248.792584 
L 665.006739 256.87308 
L 665.432422 255.944151 
L 665.858106 263.000797 
L 666.283789 266.348254 
L 666.709472 270.674532 
L 667.135156 279.317367 
L 667.560839 277.19501 
L 667.986523 282.513717 
L 668.412206 286.401563 
L 669.263573 302.384608 
L 669.689256 294.901165 
L 670.11494 300.868651 
L 670.540623 310.908091 
L 670.966306 318.104211 
L 671.39199 318.216608 
L 671.817673 321.685771 
L 672.243357 331.791198 
L 672.66904 329.859867 
L 673.094723 332.218108 
L 673.520407 330.546766 
L 673.94609 342.419185 
L 674.371774 334.459261 
L 675.22314 347.574826 
L 675.648824 350.956782 
L 676.074507 350.754214 
L 676.500191 350.034713 
L 676.925874 351.294506 
L 677.777241 361.078212 
L 678.202924 356.300578 
L 678.628608 357.329269 
L 679.054291 363.048715 
L 679.479975 364.871321 
L 679.905658 362.123034 
L 680.331341 360.522529 
L 680.757025 361.988412 
L 681.182708 363.939664 
L 681.608392 362.50886 
L 682.034075 356.260708 
L 682.459758 355.393373 
L 682.885442 354.959297 
L 683.311125 356.308929 
L 683.736809 352.794165 
L 684.162492 353.628332 
L 684.588175 344.946929 
L 685.013859 350.725588 
L 685.439542 343.135446 
L 685.865226 340.156269 
L 686.290909 338.249867 
L 686.716592 325.277365 
L 687.142276 322.580388 
L 687.567959 327.45135 
L 687.993643 320.698488 
L 688.84501 312.78728 
L 689.270693 308.535673 
L 689.696376 307.93952 
L 690.12206 308.294128 
L 690.973427 290.673 
L 691.39911 290.094618 
L 691.824793 282.768966 
L 692.250477 281.693534 
L 692.67616 274.033688 
L 693.101844 268.696099 
L 693.527527 265.446143 
L 693.95321 264.4171 
L 694.378894 253.105547 
L 695.230261 252.023905 
L 696.081627 239.350138 
L 696.932994 237.375062 
L 697.784361 224.531439 
L 698.210045 220.446859 
L 698.635728 212.717211 
L 699.061411 216.232414 
L 699.487095 213.872394 
L 699.912778 210.418759 
L 700.338462 202.560854 
L 700.764145 205.864693 
L 701.189828 201.326234 
L 701.615512 192.395606 
L 702.041195 201.047039 
L 702.892562 195.520575 
L 703.318245 197.976741 
L 703.743929 191.454916 
L 704.169612 197.877775 
L 704.595296 192.211793 
L 705.020979 193.527867 
L 705.446662 193.092005 
L 705.872346 187.647156 
L 706.298029 189.525149 
L 706.723713 186.974393 
L 707.575079 194.247612 
L 708.000763 198.166495 
L 708.426446 197.196072 
L 708.85213 198.92355 
L 709.277813 202.845059 
L 709.703497 208.916098 
L 710.12918 204.566186 
L 710.554863 212.129538 
L 710.980547 216.436341 
L 711.40623 215.49285 
L 711.831914 220.179601 
L 712.257597 219.36889 
L 712.68328 227.231579 
L 713.108964 226.175725 
L 713.534647 232.618569 
L 713.960331 236.882422 
L 714.386014 242.305939 
L 714.811697 242.082561 
L 715.237381 251.492951 
L 715.663064 256.485807 
L 716.088748 258.18684 
L 716.514431 262.674161 
L 716.940114 261.578797 
L 717.365798 272.496961 
L 717.791481 274.350987 
L 718.217165 281.518204 
L 718.642848 281.121038 
L 719.068531 288.619259 
L 719.494215 292.810146 
L 719.919898 298.334169 
L 720.345582 306.39853 
L 720.771265 309.699723 
L 721.196949 310.230899 
L 721.622632 319.245484 
L 722.048315 316.148462 
L 722.473999 327.820406 
L 723.325366 334.594913 
L 723.751049 334.137373 
L 724.176732 334.245688 
L 724.602416 345.563625 
L 725.028099 344.834223 
L 725.453783 346.022712 
L 725.879466 353.666302 
L 726.305149 351.813468 
L 726.730833 353.690522 
L 727.156516 351.691632 
L 727.5822 354.473331 
L 728.007883 362.023647 
L 728.433566 362.66421 
L 728.85925 362.380534 
L 729.284933 367.32634 
L 729.710617 364.846877 
L 730.1363 358.925268 
L 730.561983 362.673099 
L 730.987667 358.796093 
L 731.41335 358.158829 
L 731.839034 362.258177 
L 732.264717 360.353539 
L 732.690401 351.781834 
L 733.116084 357.350503 
L 733.541767 353.917057 
L 733.967451 349.146137 
L 734.393134 350.987627 
L 734.818818 347.82889 
L 735.244501 349.629341 
L 735.670184 336.815768 
L 736.095868 342.54895 
L 736.521551 340.729189 
L 736.947235 335.575656 
L 737.372918 324.922044 
L 737.798601 332.332055 
L 738.224285 323.743234 
L 738.649968 323.080089 
L 739.075652 318.474593 
L 740.352702 297.538365 
L 740.778385 299.619131 
L 741.204069 292.623275 
L 741.629752 298.134393 
L 742.055435 284.579954 
L 742.481119 275.37479 
L 742.906802 274.389587 
L 742.906802 274.389587 
" style="fill:none;stroke:#1f77b4;stroke-linecap:square;stroke-width:1.5;"/>
   </g>
   <g id="line2d_15">
    <path clip-path="url(#p1bfa6b9db1)" d="M 747.163636 384.48 
L 747.163636 51.84 
" style="fill:none;stroke:#808080;stroke-linecap:square;"/>
   </g>
   <g id="patch_90">
    <path d="M 108 384.48 
L 108 51.84 
" style="fill:none;stroke:#000000;stroke-linecap:square;stroke-linejoin:miter;stroke-width:0.8;"/>
   </g>
   <g id="patch_91">
    <path d="M 777.6 384.48 
L 777.6 51.84 
" style="fill:none;stroke:#000000;stroke-linecap:square;stroke-linejoin:miter;stroke-width:0.8;"/>
   </g>
   <g id="patch_92">
    <path d="M 108 384.48 
L 777.6 384.48 
" style="fill:none;stroke:#000000;stroke-linecap:square;stroke-linejoin:miter;stroke-width:0.8;"/>
   </g>
   <g id="patch_93">
    <path d="M 108 51.84 
L 777.6 51.84 
" style="fill:none;stroke:#000000;stroke-linecap:square;stroke-linejoin:miter;stroke-width:0.8;"/>
   </g>
   <g id="text_16">
    <!-- synthetic_5.csv -->
    <defs>
     <path d="M 32.171875 -5.078125 
Q 28.375 -14.84375 24.75 -17.8125 
Q 21.140625 -20.796875 15.09375 -20.796875 
L 7.90625 -20.796875 
L 7.90625 -13.28125 
L 13.1875 -13.28125 
Q 16.890625 -13.28125 18.9375 -11.515625 
Q 21 -9.765625 23.484375 -3.21875 
L 25.09375 0.875 
L 2.984375 54.6875 
L 12.5 54.6875 
L 29.59375 11.921875 
L 46.6875 54.6875 
L 56.203125 54.6875 
z
" id="DejaVuSans-121"/>
     <path d="M 54.890625 33.015625 
L 54.890625 0 
L 45.90625 0 
L 45.90625 32.71875 
Q 45.90625 40.484375 42.875 44.328125 
Q 39.84375 48.1875 33.796875 48.1875 
Q 26.515625 48.1875 22.3125 43.546875 
Q 18.109375 38.921875 18.109375 30.90625 
L 18.109375 0 
L 9.078125 0 
L 9.078125 54.6875 
L 18.109375 54.6875 
L 18.109375 46.1875 
Q 21.34375 51.125 25.703125 53.5625 
Q 30.078125 56 35.796875 56 
Q 45.21875 56 50.046875 50.171875 
Q 54.890625 44.34375 54.890625 33.015625 
z
" id="DejaVuSans-110"/>
     <path d="M 54.890625 33.015625 
L 54.890625 0 
L 45.90625 0 
L 45.90625 32.71875 
Q 45.90625 40.484375 42.875 44.328125 
Q 39.84375 48.1875 33.796875 48.1875 
Q 26.515625 48.1875 22.3125 43.546875 
Q 18.109375 38.921875 18.109375 30.90625 
L 18.109375 0 
L 9.078125 0 
L 9.078125 75.984375 
L 18.109375 75.984375 
L 18.109375 46.1875 
Q 21.34375 51.125 25.703125 53.5625 
Q 30.078125 56 35.796875 56 
Q 45.21875 56 50.046875 50.171875 
Q 54.890625 44.34375 54.890625 33.015625 
z
" id="DejaVuSans-104"/>
     <path d="M 48.78125 52.59375 
L 48.78125 44.1875 
Q 44.96875 46.296875 41.140625 47.34375 
Q 37.3125 48.390625 33.40625 48.390625 
Q 24.65625 48.390625 19.8125 42.84375 
Q 14.984375 37.3125 14.984375 27.296875 
Q 14.984375 17.28125 19.8125 11.734375 
Q 24.65625 6.203125 33.40625 6.203125 
Q 37.3125 6.203125 41.140625 7.25 
Q 44.96875 8.296875 48.78125 10.40625 
L 48.78125 2.09375 
Q 45.015625 0.34375 40.984375 -0.53125 
Q 36.96875 -1.421875 32.421875 -1.421875 
Q 20.0625 -1.421875 12.78125 6.34375 
Q 5.515625 14.109375 5.515625 27.296875 
Q 5.515625 40.671875 12.859375 48.328125 
Q 20.21875 56 33.015625 56 
Q 37.15625 56 41.109375 55.140625 
Q 45.0625 54.296875 48.78125 52.59375 
z
" id="DejaVuSans-99"/>
     <path d="M 50.984375 -16.609375 
L 50.984375 -23.578125 
L -0.984375 -23.578125 
L -0.984375 -16.609375 
z
" id="DejaVuSans-95"/>
     <path d="M 10.796875 72.90625 
L 49.515625 72.90625 
L 49.515625 64.59375 
L 19.828125 64.59375 
L 19.828125 46.734375 
Q 21.96875 47.46875 24.109375 47.828125 
Q 26.265625 48.1875 28.421875 48.1875 
Q 40.625 48.1875 47.75 41.5 
Q 54.890625 34.8125 54.890625 23.390625 
Q 54.890625 11.625 47.5625 5.09375 
Q 40.234375 -1.421875 26.90625 -1.421875 
Q 22.3125 -1.421875 17.546875 -0.640625 
Q 12.796875 0.140625 7.71875 1.703125 
L 7.71875 11.625 
Q 12.109375 9.234375 16.796875 8.0625 
Q 21.484375 6.890625 26.703125 6.890625 
Q 35.15625 6.890625 40.078125 11.328125 
Q 45.015625 15.765625 45.015625 23.390625 
Q 45.015625 31 40.078125 35.4375 
Q 35.15625 39.890625 26.703125 39.890625 
Q 22.75 39.890625 18.8125 39.015625 
Q 14.890625 38.140625 10.796875 36.28125 
z
" id="DejaVuSans-53"/>
     <path d="M 10.6875 12.40625 
L 21 12.40625 
L 21 0 
L 10.6875 0 
z
" id="DejaVuSans-46"/>
     <path d="M 2.984375 54.6875 
L 12.5 54.6875 
L 29.59375 8.796875 
L 46.6875 54.6875 
L 56.203125 54.6875 
L 35.6875 0 
L 23.484375 0 
z
" id="DejaVuSans-118"/>
    </defs>
    <g transform="translate(396.455625 45.84)scale(0.12 -0.12)">
     <use xlink:href="#DejaVuSans-115"/>
     <use x="52.099609" xlink:href="#DejaVuSans-121"/>
     <use x="111.279297" xlink:href="#DejaVuSans-110"/>
     <use x="174.658203" xlink:href="#DejaVuSans-116"/>
     <use x="213.867188" xlink:href="#DejaVuSans-104"/>
     <use x="277.246094" xlink:href="#DejaVuSans-101"/>
     <use x="338.769531" xlink:href="#DejaVuSans-116"/>
     <use x="377.978516" xlink:href="#DejaVuSans-105"/>
     <use x="405.761719" xlink:href="#DejaVuSans-99"/>
     <use x="460.742188" xlink:href="#DejaVuSans-95"/>
     <use x="510.742188" xlink:href="#DejaVuSans-53"/>
     <use x="574.365234" xlink:href="#DejaVuSans-46"/>
     <use x="606.152344" xlink:href="#DejaVuSans-99"/>
     <use x="661.132812" xlink:href="#DejaVuSans-115"/>
     <use x="713.232422" xlink:href="#DejaVuSans-118"/>
    </g>
   </g>
   <g id="legend_1">
    <g id="patch_94">
     <path d="M 115 74.518125 
L 174.315625 74.518125 
Q 176.315625 74.518125 176.315625 72.518125 
L 176.315625 58.84 
Q 176.315625 56.84 174.315625 56.84 
L 115 56.84 
Q 113 56.84 113 58.84 
L 113 72.518125 
Q 113 74.518125 115 74.518125 
z
" style="fill:#ffffff;opacity:0.8;stroke:#cccccc;stroke-linejoin:miter;"/>
    </g>
    <g id="line2d_16">
     <path d="M 117 64.938438 
L 137 64.938438 
" style="fill:none;stroke:#1f77b4;stroke-linecap:square;stroke-width:1.5;"/>
    </g>
    <g id="line2d_17"/>
    <g id="text_17">
     <!-- value -->
     <g transform="translate(145 68.438438)scale(0.1 -0.1)">
      <use xlink:href="#DejaVuSans-118"/>
      <use x="59.179688" xlink:href="#DejaVuSans-97"/>
      <use x="120.458984" xlink:href="#DejaVuSans-108"/>
      <use x="148.242188" xlink:href="#DejaVuSans-117"/>
      <use x="211.621094" xlink:href="#DejaVuSans-101"/>
     </g>
    </g>
   </g>
  </g>
 </g>
 <defs>
  <clipPath id="p1bfa6b9db1">
   <rect height="332.64" width="669.6" x="108" y="51.84"/>
  </clipPath>
 </defs>
</svg>
