<?xml version="1.0" encoding="utf-8" standalone="no"?>
<!DOCTYPE svg PUBLIC "-//W3C//DTD SVG 1.1//EN"
  "http://www.w3.org/Graphics/SVG/1.1/DTD/svg11.dtd">
<!-- Created with matplotlib (https://matplotlib.org/) -->
<svg height="432pt" version="1.1" viewBox="0 0 864 432" width="864pt" xmlns="http://www.w3.org/2000/svg" xmlns:xlink="http://www.w3.org/1999/xlink">
 <defs>
  <style type="text/css">
*{stroke-linecap:butt;stroke-linejoin:round;}
  </style>
 </defs>
 <g id="figure_1">
  <g id="patch_1">
   <path d="M 0 432 
L 864 432 
L 864 0 
L 0 0 
z
" style="fill:#ffffff;"/>
  </g>
  <g id="axes_1">
   <g id="patch_2">
    <path d="M 108 384.48 
L 777.6 384.48 
L 777.6 51.84 
L 108 51.84 
z
" style="fill:#ffffff;"/>
   </g>
   <g id="patch_3">
    <path clip-path="url(#p32d452333d)" d="M 138.436364 384.48 
L 138.436364 51.84 
L 440.671583 51.84 
L 440.671583 384.48 
z
" style="fill:#0000ff;opacity:0.05;"/>
   </g>
   <g id="patch_4">
    <path clip-path="url(#p32d452333d)" d="M 440.671583 384.48 
L 440.671583 51.84 
L 747.163636 51.84 
L 747.163636 384.48 
z
" style="fill:#ff0000;opacity:0.08;"/>
   </g>
   <g id="patch_5">
    <path clip-path="url(#p32d452333d)" d="M 138.436364 384.48 
L 138.436364 51.84 
L 142.693198 51.84 
L 142.693198 384.48 
z
" style="fill:#008000;opacity:0.04;"/>
   </g>
   <g id="patch_6">
    <path clip-path="url(#p32d452333d)" d="M 146.950032 384.48 
L 146.950032 51.84 
L 151.206866 51.84 
L 151.206866 384.48 
z
" style="fill:#008000;opacity:0.04;"/>
   </g>
   <g id="patch_7">
    <path clip-path="url(#p32d452333d)" d="M 151.206866 384.48 
L 151.206866 371.1744 
L 155.4637 371.1744 
L 155.4637 384.48 
z
" style="fill:#ffe500;"/>
   </g>
   <g id="patch_8">
    <path clip-path="url(#p32d452333d)" d="M 155.4637 384.48 
L 155.4637 51.84 
L 159.720534 51.84 
L 159.720534 384.48 
z
" style="fill:#008000;opacity:0.04;"/>
   </g>
   <g id="patch_9">
    <path clip-path="url(#p32d452333d)" d="M 163.977368 384.48 
L 163.977368 51.84 
L 168.234202 51.84 
L 168.234202 384.48 
z
" style="fill:#008000;opacity:0.04;"/>
   </g>
   <g id="patch_10">
    <path clip-path="url(#p32d452333d)" d="M 172.491036 384.48 
L 172.491036 51.84 
L 176.74787 51.84 
L 176.74787 384.48 
z
" style="fill:#008000;opacity:0.04;"/>
   </g>
   <g id="patch_11">
    <path clip-path="url(#p32d452333d)" d="M 181.004704 384.48 
L 181.004704 51.84 
L 185.261538 51.84 
L 185.261538 384.48 
z
" style="fill:#008000;opacity:0.04;"/>
   </g>
   <g id="patch_12">
    <path clip-path="url(#p32d452333d)" d="M 189.518373 384.48 
L 189.518373 51.84 
L 193.775207 51.84 
L 193.775207 384.48 
z
" style="fill:#008000;opacity:0.04;"/>
   </g>
   <g id="patch_13">
    <path clip-path="url(#p32d452333d)" d="M 198.032041 384.48 
L 198.032041 51.84 
L 202.288875 51.84 
L 202.288875 384.48 
z
" style="fill:#008000;opacity:0.04;"/>
   </g>
   <g id="patch_14">
    <path clip-path="url(#p32d452333d)" d="M 206.545709 384.48 
L 206.545709 51.84 
L 210.802543 51.84 
L 210.802543 384.48 
z
" style="fill:#008000;opacity:0.04;"/>
   </g>
   <g id="patch_15">
    <path clip-path="url(#p32d452333d)" d="M 215.059377 384.48 
L 215.059377 51.84 
L 219.316211 51.84 
L 219.316211 384.48 
z
" style="fill:#008000;opacity:0.04;"/>
   </g>
   <g id="patch_16">
    <path clip-path="url(#p32d452333d)" d="M 517.294596 384.48 
L 517.294596 371.1744 
L 521.55143 371.1744 
L 521.55143 384.48 
z
" style="fill:#ff6600;"/>
   </g>
   <g id="patch_17">
    <path clip-path="url(#p32d452333d)" d="M 223.573045 384.48 
L 223.573045 51.84 
L 227.829879 51.84 
L 227.829879 384.48 
z
" style="fill:#008000;opacity:0.04;"/>
   </g>
   <g id="patch_18">
    <path clip-path="url(#p32d452333d)" d="M 232.086713 384.48 
L 232.086713 51.84 
L 236.343547 51.84 
L 236.343547 384.48 
z
" style="fill:#008000;opacity:0.04;"/>
   </g>
   <g id="patch_19">
    <path clip-path="url(#p32d452333d)" d="M 236.343547 384.48 
L 236.343547 371.1744 
L 240.600381 371.1744 
L 240.600381 384.48 
z
" style="fill:#ffe500;"/>
   </g>
   <g id="patch_20">
    <path clip-path="url(#p32d452333d)" d="M 240.600381 384.48 
L 240.600381 51.84 
L 244.857216 51.84 
L 244.857216 384.48 
z
" style="fill:#008000;opacity:0.04;"/>
   </g>
   <g id="patch_21">
    <path clip-path="url(#p32d452333d)" d="M 249.11405 384.48 
L 249.11405 51.84 
L 253.370884 51.84 
L 253.370884 384.48 
z
" style="fill:#008000;opacity:0.04;"/>
   </g>
   <g id="patch_22">
    <path clip-path="url(#p32d452333d)" d="M 257.627718 384.48 
L 257.627718 51.84 
L 261.884552 51.84 
L 261.884552 384.48 
z
" style="fill:#008000;opacity:0.04;"/>
   </g>
   <g id="patch_23">
    <path clip-path="url(#p32d452333d)" d="M 266.141386 384.48 
L 266.141386 51.84 
L 270.39822 51.84 
L 270.39822 384.48 
z
" style="fill:#008000;opacity:0.04;"/>
   </g>
   <g id="patch_24">
    <path clip-path="url(#p32d452333d)" d="M 266.141386 384.48 
L 266.141386 371.1744 
L 270.39822 371.1744 
L 270.39822 384.48 
z
" style="fill:#ffe500;"/>
   </g>
   <g id="patch_25">
    <path clip-path="url(#p32d452333d)" d="M 274.655054 384.48 
L 274.655054 51.84 
L 278.911888 51.84 
L 278.911888 384.48 
z
" style="fill:#008000;opacity:0.04;"/>
   </g>
   <g id="patch_26">
    <path clip-path="url(#p32d452333d)" d="M 283.168722 384.48 
L 283.168722 51.84 
L 287.425556 51.84 
L 287.425556 384.48 
z
" style="fill:#008000;opacity:0.04;"/>
   </g>
   <g id="patch_27">
    <path clip-path="url(#p32d452333d)" d="M 291.68239 384.48 
L 291.68239 51.84 
L 295.939224 51.84 
L 295.939224 384.48 
z
" style="fill:#008000;opacity:0.04;"/>
   </g>
   <g id="patch_28">
    <path clip-path="url(#p32d452333d)" d="M 300.196058 384.48 
L 300.196058 51.84 
L 304.452893 51.84 
L 304.452893 384.48 
z
" style="fill:#008000;opacity:0.04;"/>
   </g>
   <g id="patch_29">
    <path clip-path="url(#p32d452333d)" d="M 308.709727 384.48 
L 308.709727 51.84 
L 312.966561 51.84 
L 312.966561 384.48 
z
" style="fill:#008000;opacity:0.04;"/>
   </g>
   <g id="patch_30">
    <path clip-path="url(#p32d452333d)" d="M 317.223395 384.48 
L 317.223395 51.84 
L 321.480229 51.84 
L 321.480229 384.48 
z
" style="fill:#008000;opacity:0.04;"/>
   </g>
   <g id="patch_31">
    <path clip-path="url(#p32d452333d)" d="M 325.737063 384.48 
L 325.737063 51.84 
L 329.993897 51.84 
L 329.993897 384.48 
z
" style="fill:#008000;opacity:0.04;"/>
   </g>
   <g id="patch_32">
    <path clip-path="url(#p32d452333d)" d="M 334.250731 384.48 
L 334.250731 51.84 
L 338.507565 51.84 
L 338.507565 384.48 
z
" style="fill:#008000;opacity:0.04;"/>
   </g>
   <g id="patch_33">
    <path clip-path="url(#p32d452333d)" d="M 342.764399 384.48 
L 342.764399 51.84 
L 347.021233 51.84 
L 347.021233 384.48 
z
" style="fill:#008000;opacity:0.04;"/>
   </g>
   <g id="patch_34">
    <path clip-path="url(#p32d452333d)" d="M 351.278067 384.48 
L 351.278067 51.84 
L 355.534901 51.84 
L 355.534901 384.48 
z
" style="fill:#008000;opacity:0.04;"/>
   </g>
   <g id="patch_35">
    <path clip-path="url(#p32d452333d)" d="M 359.791736 384.48 
L 359.791736 51.84 
L 364.04857 51.84 
L 364.04857 384.48 
z
" style="fill:#008000;opacity:0.04;"/>
   </g>
   <g id="patch_36">
    <path clip-path="url(#p32d452333d)" d="M 368.305404 384.48 
L 368.305404 51.84 
L 372.562238 51.84 
L 372.562238 384.48 
z
" style="fill:#008000;opacity:0.04;"/>
   </g>
   <g id="patch_37">
    <path clip-path="url(#p32d452333d)" d="M 376.819072 384.48 
L 376.819072 51.84 
L 381.075906 51.84 
L 381.075906 384.48 
z
" style="fill:#008000;opacity:0.04;"/>
   </g>
   <g id="patch_38">
    <path clip-path="url(#p32d452333d)" d="M 381.075906 384.48 
L 381.075906 371.1744 
L 385.33274 371.1744 
L 385.33274 384.48 
z
" style="fill:#ffe500;"/>
   </g>
   <g id="patch_39">
    <path clip-path="url(#p32d452333d)" d="M 385.33274 384.48 
L 385.33274 51.84 
L 389.589574 51.84 
L 389.589574 384.48 
z
" style="fill:#008000;opacity:0.04;"/>
   </g>
   <g id="patch_40">
    <path clip-path="url(#p32d452333d)" d="M 393.846408 384.48 
L 393.846408 51.84 
L 398.103242 51.84 
L 398.103242 384.48 
z
" style="fill:#008000;opacity:0.04;"/>
   </g>
   <g id="patch_41">
    <path clip-path="url(#p32d452333d)" d="M 402.360076 384.48 
L 402.360076 51.84 
L 406.61691 51.84 
L 406.61691 384.48 
z
" style="fill:#008000;opacity:0.04;"/>
   </g>
   <g id="patch_42">
    <path clip-path="url(#p32d452333d)" d="M 410.873744 384.48 
L 410.873744 51.84 
L 415.130579 51.84 
L 415.130579 384.48 
z
" style="fill:#008000;opacity:0.04;"/>
   </g>
   <g id="patch_43">
    <path clip-path="url(#p32d452333d)" d="M 410.873744 384.48 
L 410.873744 371.1744 
L 415.130579 371.1744 
L 415.130579 384.48 
z
" style="fill:#ffe500;"/>
   </g>
   <g id="patch_44">
    <path clip-path="url(#p32d452333d)" d="M 415.130579 371.1744 
L 415.130579 51.84 
L 419.387413 51.84 
L 419.387413 371.1744 
z
" style="fill:#008000;opacity:0.5;"/>
   </g>
   <g id="patch_45">
    <path clip-path="url(#p32d452333d)" d="M 415.130579 384.48 
L 415.130579 371.1744 
L 419.387413 371.1744 
L 419.387413 384.48 
z
" style="fill:#ffe500;"/>
   </g>
   <g id="patch_46">
    <path clip-path="url(#p32d452333d)" d="M 419.387413 384.48 
L 419.387413 51.84 
L 423.644247 51.84 
L 423.644247 384.48 
z
" style="fill:#008000;opacity:0.04;"/>
   </g>
   <g id="patch_47">
    <path clip-path="url(#p32d452333d)" d="M 427.901081 384.48 
L 427.901081 51.84 
L 432.157915 51.84 
L 432.157915 384.48 
z
" style="fill:#008000;opacity:0.04;"/>
   </g>
   <g id="patch_48">
    <path clip-path="url(#p32d452333d)" d="M 436.414749 384.48 
L 436.414749 51.84 
L 440.671583 51.84 
L 440.671583 384.48 
z
" style="fill:#008000;opacity:0.04;"/>
   </g>
   <g id="patch_49">
    <path clip-path="url(#p32d452333d)" d="M 436.414749 384.48 
L 436.414749 371.1744 
L 440.671583 371.1744 
L 440.671583 384.48 
z
" style="fill:#ffe500;"/>
   </g>
   <g id="patch_50">
    <path clip-path="url(#p32d452333d)" d="M 742.906802 384.48 
L 742.906802 371.1744 
L 747.163636 371.1744 
L 747.163636 384.48 
z
" style="fill:#ff6600;"/>
   </g>
   <g id="patch_51">
    <path clip-path="url(#p32d452333d)" d="M 444.928417 384.48 
L 444.928417 51.84 
L 449.185251 51.84 
L 449.185251 384.48 
z
" style="fill:#008000;opacity:0.04;"/>
   </g>
   <g id="patch_52">
    <path clip-path="url(#p32d452333d)" d="M 453.442085 384.48 
L 453.442085 51.84 
L 457.698919 51.84 
L 457.698919 384.48 
z
" style="fill:#008000;opacity:0.04;"/>
   </g>
   <g id="patch_53">
    <path clip-path="url(#p32d452333d)" d="M 461.955753 384.48 
L 461.955753 51.84 
L 466.212587 51.84 
L 466.212587 384.48 
z
" style="fill:#008000;opacity:0.04;"/>
   </g>
   <g id="patch_54">
    <path clip-path="url(#p32d452333d)" d="M 470.469421 384.48 
L 470.469421 51.84 
L 474.726256 51.84 
L 474.726256 384.48 
z
" style="fill:#008000;opacity:0.04;"/>
   </g>
   <g id="patch_55">
    <path clip-path="url(#p32d452333d)" d="M 478.98309 384.48 
L 478.98309 51.84 
L 483.239924 51.84 
L 483.239924 384.48 
z
" style="fill:#008000;opacity:0.04;"/>
   </g>
   <g id="patch_56">
    <path clip-path="url(#p32d452333d)" d="M 487.496758 384.48 
L 487.496758 51.84 
L 491.753592 51.84 
L 491.753592 384.48 
z
" style="fill:#008000;opacity:0.04;"/>
   </g>
   <g id="patch_57">
    <path clip-path="url(#p32d452333d)" d="M 496.010426 384.48 
L 496.010426 51.84 
L 500.26726 51.84 
L 500.26726 384.48 
z
" style="fill:#008000;opacity:0.04;"/>
   </g>
   <g id="patch_58">
    <path clip-path="url(#p32d452333d)" d="M 504.524094 384.48 
L 504.524094 51.84 
L 508.780928 51.84 
L 508.780928 384.48 
z
" style="fill:#008000;opacity:0.04;"/>
   </g>
   <g id="patch_59">
    <path clip-path="url(#p32d452333d)" d="M 513.037762 384.48 
L 513.037762 51.84 
L 517.294596 51.84 
L 517.294596 384.48 
z
" style="fill:#008000;opacity:0.04;"/>
   </g>
   <g id="patch_60">
    <path clip-path="url(#p32d452333d)" d="M 517.294596 371.1744 
L 517.294596 51.84 
L 521.55143 51.84 
L 521.55143 371.1744 
z
" style="fill:#008000;opacity:0.5;"/>
   </g>
   <g id="patch_61">
    <path clip-path="url(#p32d452333d)" d="M 521.55143 384.48 
L 521.55143 51.84 
L 525.808264 51.84 
L 525.808264 384.48 
z
" style="fill:#008000;opacity:0.04;"/>
   </g>
   <g id="patch_62">
    <path clip-path="url(#p32d452333d)" d="M 530.065099 384.48 
L 530.065099 51.84 
L 534.321933 51.84 
L 534.321933 384.48 
z
" style="fill:#008000;opacity:0.04;"/>
   </g>
   <g id="patch_63">
    <path clip-path="url(#p32d452333d)" d="M 538.578767 384.48 
L 538.578767 51.84 
L 542.835601 51.84 
L 542.835601 384.48 
z
" style="fill:#008000;opacity:0.04;"/>
   </g>
   <g id="patch_64">
    <path clip-path="url(#p32d452333d)" d="M 547.092435 384.48 
L 547.092435 51.84 
L 551.349269 51.84 
L 551.349269 384.48 
z
" style="fill:#008000;opacity:0.04;"/>
   </g>
   <g id="patch_65">
    <path clip-path="url(#p32d452333d)" d="M 555.606103 384.48 
L 555.606103 51.84 
L 559.862937 51.84 
L 559.862937 384.48 
z
" style="fill:#008000;opacity:0.04;"/>
   </g>
   <g id="patch_66">
    <path clip-path="url(#p32d452333d)" d="M 564.119771 384.48 
L 564.119771 51.84 
L 568.376605 51.84 
L 568.376605 384.48 
z
" style="fill:#008000;opacity:0.04;"/>
   </g>
   <g id="patch_67">
    <path clip-path="url(#p32d452333d)" d="M 572.633439 384.48 
L 572.633439 51.84 
L 576.890273 51.84 
L 576.890273 384.48 
z
" style="fill:#008000;opacity:0.04;"/>
   </g>
   <g id="patch_68">
    <path clip-path="url(#p32d452333d)" d="M 581.147107 384.48 
L 581.147107 51.84 
L 585.403942 51.84 
L 585.403942 384.48 
z
" style="fill:#008000;opacity:0.04;"/>
   </g>
   <g id="patch_69">
    <path clip-path="url(#p32d452333d)" d="M 589.660776 384.48 
L 589.660776 51.84 
L 593.91761 51.84 
L 593.91761 384.48 
z
" style="fill:#008000;opacity:0.04;"/>
   </g>
   <g id="patch_70">
    <path clip-path="url(#p32d452333d)" d="M 598.174444 384.48 
L 598.174444 51.84 
L 602.431278 51.84 
L 602.431278 384.48 
z
" style="fill:#008000;opacity:0.04;"/>
   </g>
   <g id="patch_71">
    <path clip-path="url(#p32d452333d)" d="M 606.688112 384.48 
L 606.688112 51.84 
L 610.944946 51.84 
L 610.944946 384.48 
z
" style="fill:#008000;opacity:0.04;"/>
   </g>
   <g id="patch_72">
    <path clip-path="url(#p32d452333d)" d="M 615.20178 384.48 
L 615.20178 51.84 
L 619.458614 51.84 
L 619.458614 384.48 
z
" style="fill:#008000;opacity:0.04;"/>
   </g>
   <g id="patch_73">
    <path clip-path="url(#p32d452333d)" d="M 623.715448 384.48 
L 623.715448 51.84 
L 627.972282 51.84 
L 627.972282 384.48 
z
" style="fill:#008000;opacity:0.04;"/>
   </g>
   <g id="patch_74">
    <path clip-path="url(#p32d452333d)" d="M 632.229116 384.48 
L 632.229116 51.84 
L 636.48595 51.84 
L 636.48595 384.48 
z
" style="fill:#008000;opacity:0.04;"/>
   </g>
   <g id="patch_75">
    <path clip-path="url(#p32d452333d)" d="M 640.742784 384.48 
L 640.742784 51.84 
L 644.999619 51.84 
L 644.999619 384.48 
z
" style="fill:#008000;opacity:0.04;"/>
   </g>
   <g id="patch_76">
    <path clip-path="url(#p32d452333d)" d="M 649.256453 384.48 
L 649.256453 51.84 
L 653.513287 51.84 
L 653.513287 384.48 
z
" style="fill:#008000;opacity:0.04;"/>
   </g>
   <g id="patch_77">
    <path clip-path="url(#p32d452333d)" d="M 657.770121 384.48 
L 657.770121 51.84 
L 662.026955 51.84 
L 662.026955 384.48 
z
" style="fill:#008000;opacity:0.04;"/>
   </g>
   <g id="patch_78">
    <path clip-path="url(#p32d452333d)" d="M 666.283789 384.48 
L 666.283789 51.84 
L 670.540623 51.84 
L 670.540623 384.48 
z
" style="fill:#008000;opacity:0.04;"/>
   </g>
   <g id="patch_79">
    <path clip-path="url(#p32d452333d)" d="M 674.797457 384.48 
L 674.797457 51.84 
L 679.054291 51.84 
L 679.054291 384.48 
z
" style="fill:#008000;opacity:0.04;"/>
   </g>
   <g id="patch_80">
    <path clip-path="url(#p32d452333d)" d="M 683.311125 384.48 
L 683.311125 51.84 
L 687.567959 51.84 
L 687.567959 384.48 
z
" style="fill:#008000;opacity:0.04;"/>
   </g>
   <g id="patch_81">
    <path clip-path="url(#p32d452333d)" d="M 691.824793 384.48 
L 691.824793 51.84 
L 696.081627 51.84 
L 696.081627 384.48 
z
" style="fill:#008000;opacity:0.04;"/>
   </g>
   <g id="patch_82">
    <path clip-path="url(#p32d452333d)" d="M 700.338462 384.48 
L 700.338462 51.84 
L 704.595296 51.84 
L 704.595296 384.48 
z
" style="fill:#008000;opacity:0.04;"/>
   </g>
   <g id="patch_83">
    <path clip-path="url(#p32d452333d)" d="M 708.85213 384.48 
L 708.85213 51.84 
L 713.108964 51.84 
L 713.108964 384.48 
z
" style="fill:#008000;opacity:0.04;"/>
   </g>
   <g id="patch_84">
    <path clip-path="url(#p32d452333d)" d="M 717.365798 384.48 
L 717.365798 51.84 
L 721.622632 51.84 
L 721.622632 384.48 
z
" style="fill:#008000;opacity:0.04;"/>
   </g>
   <g id="patch_85">
    <path clip-path="url(#p32d452333d)" d="M 725.879466 384.48 
L 725.879466 51.84 
L 730.1363 51.84 
L 730.1363 384.48 
z
" style="fill:#008000;opacity:0.04;"/>
   </g>
   <g id="patch_86">
    <path clip-path="url(#p32d452333d)" d="M 734.393134 384.48 
L 734.393134 51.84 
L 738.649968 51.84 
L 738.649968 384.48 
z
" style="fill:#008000;opacity:0.04;"/>
   </g>
   <g id="patch_87">
    <path clip-path="url(#p32d452333d)" d="M 742.906802 384.48 
L 742.906802 51.84 
L 747.163636 51.84 
L 747.163636 384.48 
z
" style="fill:#008000;opacity:0.04;"/>
   </g>
   <g id="matplotlib.axis_1">
    <g id="xtick_1">
     <g id="line2d_1">
      <defs>
       <path d="M 0 0 
L 0 3.5 
" id="ma4dc967725" style="stroke:#000000;stroke-width:0.8;"/>
      </defs>
      <g>
       <use style="stroke:#000000;stroke-width:0.8;" x="138.436364" xlink:href="#ma4dc967725" y="384.48"/>
      </g>
     </g>
     <g id="text_1">
      <!-- 0 -->
      <defs>
       <path d="M 31.78125 66.40625 
Q 24.171875 66.40625 20.328125 58.90625 
Q 16.5 51.421875 16.5 36.375 
Q 16.5 21.390625 20.328125 13.890625 
Q 24.171875 6.390625 31.78125 6.390625 
Q 39.453125 6.390625 43.28125 13.890625 
Q 47.125 21.390625 47.125 36.375 
Q 47.125 51.421875 43.28125 58.90625 
Q 39.453125 66.40625 31.78125 66.40625 
z
M 31.78125 74.21875 
Q 44.046875 74.21875 50.515625 64.515625 
Q 56.984375 54.828125 56.984375 36.375 
Q 56.984375 17.96875 50.515625 8.265625 
Q 44.046875 -1.421875 31.78125 -1.421875 
Q 19.53125 -1.421875 13.0625 8.265625 
Q 6.59375 17.96875 6.59375 36.375 
Q 6.59375 54.828125 13.0625 64.515625 
Q 19.53125 74.21875 31.78125 74.21875 
z
" id="DejaVuSans-48"/>
      </defs>
      <g transform="translate(135.255114 399.078438)scale(0.1 -0.1)">
       <use xlink:href="#DejaVuSans-48"/>
      </g>
     </g>
    </g>
    <g id="xtick_2">
     <g id="line2d_2">
      <g>
       <use style="stroke:#000000;stroke-width:0.8;" x="223.573045" xlink:href="#ma4dc967725" y="384.48"/>
      </g>
     </g>
     <g id="text_2">
      <!-- 200 -->
      <defs>
       <path d="M 19.1875 8.296875 
L 53.609375 8.296875 
L 53.609375 0 
L 7.328125 0 
L 7.328125 8.296875 
Q 12.9375 14.109375 22.625 23.890625 
Q 32.328125 33.6875 34.8125 36.53125 
Q 39.546875 41.84375 41.421875 45.53125 
Q 43.3125 49.21875 43.3125 52.78125 
Q 43.3125 58.59375 39.234375 62.25 
Q 35.15625 65.921875 28.609375 65.921875 
Q 23.96875 65.921875 18.8125 64.3125 
Q 13.671875 62.703125 7.8125 59.421875 
L 7.8125 69.390625 
Q 13.765625 71.78125 18.9375 73 
Q 24.125 74.21875 28.421875 74.21875 
Q 39.75 74.21875 46.484375 68.546875 
Q 53.21875 62.890625 53.21875 53.421875 
Q 53.21875 48.921875 51.53125 44.890625 
Q 49.859375 40.875 45.40625 35.40625 
Q 44.1875 33.984375 37.640625 27.21875 
Q 31.109375 20.453125 19.1875 8.296875 
z
" id="DejaVuSans-50"/>
      </defs>
      <g transform="translate(214.029295 399.078438)scale(0.1 -0.1)">
       <use xlink:href="#DejaVuSans-50"/>
       <use x="63.623047" xlink:href="#DejaVuSans-48"/>
       <use x="127.246094" xlink:href="#DejaVuSans-48"/>
      </g>
     </g>
    </g>
    <g id="xtick_3">
     <g id="line2d_3">
      <g>
       <use style="stroke:#000000;stroke-width:0.8;" x="308.709727" xlink:href="#ma4dc967725" y="384.48"/>
      </g>
     </g>
     <g id="text_3">
      <!-- 400 -->
      <defs>
       <path d="M 37.796875 64.3125 
L 12.890625 25.390625 
L 37.796875 25.390625 
z
M 35.203125 72.90625 
L 47.609375 72.90625 
L 47.609375 25.390625 
L 58.015625 25.390625 
L 58.015625 17.1875 
L 47.609375 17.1875 
L 47.609375 0 
L 37.796875 0 
L 37.796875 17.1875 
L 4.890625 17.1875 
L 4.890625 26.703125 
z
" id="DejaVuSans-52"/>
      </defs>
      <g transform="translate(299.165977 399.078438)scale(0.1 -0.1)">
       <use xlink:href="#DejaVuSans-52"/>
       <use x="63.623047" xlink:href="#DejaVuSans-48"/>
       <use x="127.246094" xlink:href="#DejaVuSans-48"/>
      </g>
     </g>
    </g>
    <g id="xtick_4">
     <g id="line2d_4">
      <g>
       <use style="stroke:#000000;stroke-width:0.8;" x="393.846408" xlink:href="#ma4dc967725" y="384.48"/>
      </g>
     </g>
     <g id="text_4">
      <!-- 600 -->
      <defs>
       <path d="M 33.015625 40.375 
Q 26.375 40.375 22.484375 35.828125 
Q 18.609375 31.296875 18.609375 23.390625 
Q 18.609375 15.53125 22.484375 10.953125 
Q 26.375 6.390625 33.015625 6.390625 
Q 39.65625 6.390625 43.53125 10.953125 
Q 47.40625 15.53125 47.40625 23.390625 
Q 47.40625 31.296875 43.53125 35.828125 
Q 39.65625 40.375 33.015625 40.375 
z
M 52.59375 71.296875 
L 52.59375 62.3125 
Q 48.875 64.0625 45.09375 64.984375 
Q 41.3125 65.921875 37.59375 65.921875 
Q 27.828125 65.921875 22.671875 59.328125 
Q 17.53125 52.734375 16.796875 39.40625 
Q 19.671875 43.65625 24.015625 45.921875 
Q 28.375 48.1875 33.59375 48.1875 
Q 44.578125 48.1875 50.953125 41.515625 
Q 57.328125 34.859375 57.328125 23.390625 
Q 57.328125 12.15625 50.6875 5.359375 
Q 44.046875 -1.421875 33.015625 -1.421875 
Q 20.359375 -1.421875 13.671875 8.265625 
Q 6.984375 17.96875 6.984375 36.375 
Q 6.984375 53.65625 15.1875 63.9375 
Q 23.390625 74.21875 37.203125 74.21875 
Q 40.921875 74.21875 44.703125 73.484375 
Q 48.484375 72.75 52.59375 71.296875 
z
" id="DejaVuSans-54"/>
      </defs>
      <g transform="translate(384.302658 399.078438)scale(0.1 -0.1)">
       <use xlink:href="#DejaVuSans-54"/>
       <use x="63.623047" xlink:href="#DejaVuSans-48"/>
       <use x="127.246094" xlink:href="#DejaVuSans-48"/>
      </g>
     </g>
    </g>
    <g id="xtick_5">
     <g id="line2d_5">
      <g>
       <use style="stroke:#000000;stroke-width:0.8;" x="478.98309" xlink:href="#ma4dc967725" y="384.48"/>
      </g>
     </g>
     <g id="text_5">
      <!-- 800 -->
      <defs>
       <path d="M 31.78125 34.625 
Q 24.75 34.625 20.71875 30.859375 
Q 16.703125 27.09375 16.703125 20.515625 
Q 16.703125 13.921875 20.71875 10.15625 
Q 24.75 6.390625 31.78125 6.390625 
Q 38.8125 6.390625 42.859375 10.171875 
Q 46.921875 13.96875 46.921875 20.515625 
Q 46.921875 27.09375 42.890625 30.859375 
Q 38.875 34.625 31.78125 34.625 
z
M 21.921875 38.8125 
Q 15.578125 40.375 12.03125 44.71875 
Q 8.5 49.078125 8.5 55.328125 
Q 8.5 64.0625 14.71875 69.140625 
Q 20.953125 74.21875 31.78125 74.21875 
Q 42.671875 74.21875 48.875 69.140625 
Q 55.078125 64.0625 55.078125 55.328125 
Q 55.078125 49.078125 51.53125 44.71875 
Q 48 40.375 41.703125 38.8125 
Q 48.828125 37.15625 52.796875 32.3125 
Q 56.78125 27.484375 56.78125 20.515625 
Q 56.78125 9.90625 50.3125 4.234375 
Q 43.84375 -1.421875 31.78125 -1.421875 
Q 19.734375 -1.421875 13.25 4.234375 
Q 6.78125 9.90625 6.78125 20.515625 
Q 6.78125 27.484375 10.78125 32.3125 
Q 14.796875 37.15625 21.921875 38.8125 
z
M 18.3125 54.390625 
Q 18.3125 48.734375 21.84375 45.5625 
Q 25.390625 42.390625 31.78125 42.390625 
Q 38.140625 42.390625 41.71875 45.5625 
Q 45.3125 48.734375 45.3125 54.390625 
Q 45.3125 60.0625 41.71875 63.234375 
Q 38.140625 66.40625 31.78125 66.40625 
Q 25.390625 66.40625 21.84375 63.234375 
Q 18.3125 60.0625 18.3125 54.390625 
z
" id="DejaVuSans-56"/>
      </defs>
      <g transform="translate(469.43934 399.078438)scale(0.1 -0.1)">
       <use xlink:href="#DejaVuSans-56"/>
       <use x="63.623047" xlink:href="#DejaVuSans-48"/>
       <use x="127.246094" xlink:href="#DejaVuSans-48"/>
      </g>
     </g>
    </g>
    <g id="xtick_6">
     <g id="line2d_6">
      <g>
       <use style="stroke:#000000;stroke-width:0.8;" x="564.119771" xlink:href="#ma4dc967725" y="384.48"/>
      </g>
     </g>
     <g id="text_6">
      <!-- 1000 -->
      <defs>
       <path d="M 12.40625 8.296875 
L 28.515625 8.296875 
L 28.515625 63.921875 
L 10.984375 60.40625 
L 10.984375 69.390625 
L 28.421875 72.90625 
L 38.28125 72.90625 
L 38.28125 8.296875 
L 54.390625 8.296875 
L 54.390625 0 
L 12.40625 0 
z
" id="DejaVuSans-49"/>
      </defs>
      <g transform="translate(551.394771 399.078438)scale(0.1 -0.1)">
       <use xlink:href="#DejaVuSans-49"/>
       <use x="63.623047" xlink:href="#DejaVuSans-48"/>
       <use x="127.246094" xlink:href="#DejaVuSans-48"/>
       <use x="190.869141" xlink:href="#DejaVuSans-48"/>
      </g>
     </g>
    </g>
    <g id="xtick_7">
     <g id="line2d_7">
      <g>
       <use style="stroke:#000000;stroke-width:0.8;" x="649.256453" xlink:href="#ma4dc967725" y="384.48"/>
      </g>
     </g>
     <g id="text_7">
      <!-- 1200 -->
      <g transform="translate(636.531453 399.078438)scale(0.1 -0.1)">
       <use xlink:href="#DejaVuSans-49"/>
       <use x="63.623047" xlink:href="#DejaVuSans-50"/>
       <use x="127.246094" xlink:href="#DejaVuSans-48"/>
       <use x="190.869141" xlink:href="#DejaVuSans-48"/>
      </g>
     </g>
    </g>
    <g id="xtick_8">
     <g id="line2d_8">
      <g>
       <use style="stroke:#000000;stroke-width:0.8;" x="734.393134" xlink:href="#ma4dc967725" y="384.48"/>
      </g>
     </g>
     <g id="text_8">
      <!-- 1400 -->
      <g transform="translate(721.668134 399.078438)scale(0.1 -0.1)">
       <use xlink:href="#DejaVuSans-49"/>
       <use x="63.623047" xlink:href="#DejaVuSans-52"/>
       <use x="127.246094" xlink:href="#DejaVuSans-48"/>
       <use x="190.869141" xlink:href="#DejaVuSans-48"/>
      </g>
     </g>
    </g>
    <g id="text_9">
     <!-- Timestamp -->
     <defs>
      <path d="M -0.296875 72.90625 
L 61.375 72.90625 
L 61.375 64.59375 
L 35.5 64.59375 
L 35.5 0 
L 25.59375 0 
L 25.59375 64.59375 
L -0.296875 64.59375 
z
" id="DejaVuSans-84"/>
      <path d="M 9.421875 54.6875 
L 18.40625 54.6875 
L 18.40625 0 
L 9.421875 0 
z
M 9.421875 75.984375 
L 18.40625 75.984375 
L 18.40625 64.59375 
L 9.421875 64.59375 
z
" id="DejaVuSans-105"/>
      <path d="M 52 44.1875 
Q 55.375 50.25 60.0625 53.125 
Q 64.75 56 71.09375 56 
Q 79.640625 56 84.28125 50.015625 
Q 88.921875 44.046875 88.921875 33.015625 
L 88.921875 0 
L 79.890625 0 
L 79.890625 32.71875 
Q 79.890625 40.578125 77.09375 44.375 
Q 74.3125 48.1875 68.609375 48.1875 
Q 61.625 48.1875 57.5625 43.546875 
Q 53.515625 38.921875 53.515625 30.90625 
L 53.515625 0 
L 44.484375 0 
L 44.484375 32.71875 
Q 44.484375 40.625 41.703125 44.40625 
Q 38.921875 48.1875 33.109375 48.1875 
Q 26.21875 48.1875 22.15625 43.53125 
Q 18.109375 38.875 18.109375 30.90625 
L 18.109375 0 
L 9.078125 0 
L 9.078125 54.6875 
L 18.109375 54.6875 
L 18.109375 46.1875 
Q 21.1875 51.21875 25.484375 53.609375 
Q 29.78125 56 35.6875 56 
Q 41.65625 56 45.828125 52.96875 
Q 50 49.953125 52 44.1875 
z
" id="DejaVuSans-109"/>
      <path d="M 56.203125 29.59375 
L 56.203125 25.203125 
L 14.890625 25.203125 
Q 15.484375 15.921875 20.484375 11.0625 
Q 25.484375 6.203125 34.421875 6.203125 
Q 39.59375 6.203125 44.453125 7.46875 
Q 49.3125 8.734375 54.109375 11.28125 
L 54.109375 2.78125 
Q 49.265625 0.734375 44.1875 -0.34375 
Q 39.109375 -1.421875 33.890625 -1.421875 
Q 20.796875 -1.421875 13.15625 6.1875 
Q 5.515625 13.8125 5.515625 26.8125 
Q 5.515625 40.234375 12.765625 48.109375 
Q 20.015625 56 32.328125 56 
Q 43.359375 56 49.78125 48.890625 
Q 56.203125 41.796875 56.203125 29.59375 
z
M 47.21875 32.234375 
Q 47.125 39.59375 43.09375 43.984375 
Q 39.0625 48.390625 32.421875 48.390625 
Q 24.90625 48.390625 20.390625 44.140625 
Q 15.875 39.890625 15.1875 32.171875 
z
" id="DejaVuSans-101"/>
      <path d="M 44.28125 53.078125 
L 44.28125 44.578125 
Q 40.484375 46.53125 36.375 47.5 
Q 32.28125 48.484375 27.875 48.484375 
Q 21.1875 48.484375 17.84375 46.4375 
Q 14.5 44.390625 14.5 40.28125 
Q 14.5 37.15625 16.890625 35.375 
Q 19.28125 33.59375 26.515625 31.984375 
L 29.59375 31.296875 
Q 39.15625 29.25 43.1875 25.515625 
Q 47.21875 21.78125 47.21875 15.09375 
Q 47.21875 7.46875 41.1875 3.015625 
Q 35.15625 -1.421875 24.609375 -1.421875 
Q 20.21875 -1.421875 15.453125 -0.5625 
Q 10.6875 0.296875 5.421875 2 
L 5.421875 11.28125 
Q 10.40625 8.6875 15.234375 7.390625 
Q 20.0625 6.109375 24.8125 6.109375 
Q 31.15625 6.109375 34.5625 8.28125 
Q 37.984375 10.453125 37.984375 14.40625 
Q 37.984375 18.0625 35.515625 20.015625 
Q 33.0625 21.96875 24.703125 23.78125 
L 21.578125 24.515625 
Q 13.234375 26.265625 9.515625 29.90625 
Q 5.8125 33.546875 5.8125 39.890625 
Q 5.8125 47.609375 11.28125 51.796875 
Q 16.75 56 26.8125 56 
Q 31.78125 56 36.171875 55.265625 
Q 40.578125 54.546875 44.28125 53.078125 
z
" id="DejaVuSans-115"/>
      <path d="M 18.3125 70.21875 
L 18.3125 54.6875 
L 36.8125 54.6875 
L 36.8125 47.703125 
L 18.3125 47.703125 
L 18.3125 18.015625 
Q 18.3125 11.328125 20.140625 9.421875 
Q 21.96875 7.515625 27.59375 7.515625 
L 36.8125 7.515625 
L 36.8125 0 
L 27.59375 0 
Q 17.1875 0 13.234375 3.875 
Q 9.28125 7.765625 9.28125 18.015625 
L 9.28125 47.703125 
L 2.6875 47.703125 
L 2.6875 54.6875 
L 9.28125 54.6875 
L 9.28125 70.21875 
z
" id="DejaVuSans-116"/>
      <path d="M 34.28125 27.484375 
Q 23.390625 27.484375 19.1875 25 
Q 14.984375 22.515625 14.984375 16.5 
Q 14.984375 11.71875 18.140625 8.90625 
Q 21.296875 6.109375 26.703125 6.109375 
Q 34.1875 6.109375 38.703125 11.40625 
Q 43.21875 16.703125 43.21875 25.484375 
L 43.21875 27.484375 
z
M 52.203125 31.203125 
L 52.203125 0 
L 43.21875 0 
L 43.21875 8.296875 
Q 40.140625 3.328125 35.546875 0.953125 
Q 30.953125 -1.421875 24.3125 -1.421875 
Q 15.921875 -1.421875 10.953125 3.296875 
Q 6 8.015625 6 15.921875 
Q 6 25.140625 12.171875 29.828125 
Q 18.359375 34.515625 30.609375 34.515625 
L 43.21875 34.515625 
L 43.21875 35.40625 
Q 43.21875 41.609375 39.140625 45 
Q 35.0625 48.390625 27.6875 48.390625 
Q 23 48.390625 18.546875 47.265625 
Q 14.109375 46.140625 10.015625 43.890625 
L 10.015625 52.203125 
Q 14.9375 54.109375 19.578125 55.046875 
Q 24.21875 56 28.609375 56 
Q 40.484375 56 46.34375 49.84375 
Q 52.203125 43.703125 52.203125 31.203125 
z
" id="DejaVuSans-97"/>
      <path d="M 18.109375 8.203125 
L 18.109375 -20.796875 
L 9.078125 -20.796875 
L 9.078125 54.6875 
L 18.109375 54.6875 
L 18.109375 46.390625 
Q 20.953125 51.265625 25.265625 53.625 
Q 29.59375 56 35.59375 56 
Q 45.5625 56 51.78125 48.09375 
Q 58.015625 40.1875 58.015625 27.296875 
Q 58.015625 14.40625 51.78125 6.484375 
Q 45.5625 -1.421875 35.59375 -1.421875 
Q 29.59375 -1.421875 25.265625 0.953125 
Q 20.953125 3.328125 18.109375 8.203125 
z
M 48.6875 27.296875 
Q 48.6875 37.203125 44.609375 42.84375 
Q 40.53125 48.484375 33.40625 48.484375 
Q 26.265625 48.484375 22.1875 42.84375 
Q 18.109375 37.203125 18.109375 27.296875 
Q 18.109375 17.390625 22.1875 11.75 
Q 26.265625 6.109375 33.40625 6.109375 
Q 40.53125 6.109375 44.609375 11.75 
Q 48.6875 17.390625 48.6875 27.296875 
z
" id="DejaVuSans-112"/>
     </defs>
     <g transform="translate(414.739062 412.756563)scale(0.1 -0.1)">
      <use xlink:href="#DejaVuSans-84"/>
      <use x="61.037109" xlink:href="#DejaVuSans-105"/>
      <use x="88.820312" xlink:href="#DejaVuSans-109"/>
      <use x="186.232422" xlink:href="#DejaVuSans-101"/>
      <use x="247.755859" xlink:href="#DejaVuSans-115"/>
      <use x="299.855469" xlink:href="#DejaVuSans-116"/>
      <use x="339.064453" xlink:href="#DejaVuSans-97"/>
      <use x="400.34375" xlink:href="#DejaVuSans-109"/>
      <use x="497.755859" xlink:href="#DejaVuSans-112"/>
     </g>
    </g>
   </g>
   <g id="matplotlib.axis_2">
    <g id="ytick_1">
     <g id="line2d_9">
      <defs>
       <path d="M 0 0 
L -3.5 0 
" id="m54471a5a81" style="stroke:#000000;stroke-width:0.8;"/>
      </defs>
      <g>
       <use style="stroke:#000000;stroke-width:0.8;" x="108" xlink:href="#m54471a5a81" y="380.955857"/>
      </g>
     </g>
     <g id="text_10">
      <!-- −1500 -->
      <defs>
       <path d="M 10.59375 35.5 
L 73.1875 35.5 
L 73.1875 27.203125 
L 10.59375 27.203125 
z
" id="DejaVuSans-8722"/>
       <path d="M 10.796875 72.90625 
L 49.515625 72.90625 
L 49.515625 64.59375 
L 19.828125 64.59375 
L 19.828125 46.734375 
Q 21.96875 47.46875 24.109375 47.828125 
Q 26.265625 48.1875 28.421875 48.1875 
Q 40.625 48.1875 47.75 41.5 
Q 54.890625 34.8125 54.890625 23.390625 
Q 54.890625 11.625 47.5625 5.09375 
Q 40.234375 -1.421875 26.90625 -1.421875 
Q 22.3125 -1.421875 17.546875 -0.640625 
Q 12.796875 0.140625 7.71875 1.703125 
L 7.71875 11.625 
Q 12.109375 9.234375 16.796875 8.0625 
Q 21.484375 6.890625 26.703125 6.890625 
Q 35.15625 6.890625 40.078125 11.328125 
Q 45.015625 15.765625 45.015625 23.390625 
Q 45.015625 31 40.078125 35.4375 
Q 35.15625 39.890625 26.703125 39.890625 
Q 22.75 39.890625 18.8125 39.015625 
Q 14.890625 38.140625 10.796875 36.28125 
z
" id="DejaVuSans-53"/>
      </defs>
      <g transform="translate(67.170312 384.755076)scale(0.1 -0.1)">
       <use xlink:href="#DejaVuSans-8722"/>
       <use x="83.789062" xlink:href="#DejaVuSans-49"/>
       <use x="147.412109" xlink:href="#DejaVuSans-53"/>
       <use x="211.035156" xlink:href="#DejaVuSans-48"/>
       <use x="274.658203" xlink:href="#DejaVuSans-48"/>
      </g>
     </g>
    </g>
    <g id="ytick_2">
     <g id="line2d_10">
      <g>
       <use style="stroke:#000000;stroke-width:0.8;" x="108" xlink:href="#m54471a5a81" y="342.374969"/>
      </g>
     </g>
     <g id="text_11">
      <!-- −1000 -->
      <g transform="translate(67.170312 346.174187)scale(0.1 -0.1)">
       <use xlink:href="#DejaVuSans-8722"/>
       <use x="83.789062" xlink:href="#DejaVuSans-49"/>
       <use x="147.412109" xlink:href="#DejaVuSans-48"/>
       <use x="211.035156" xlink:href="#DejaVuSans-48"/>
       <use x="274.658203" xlink:href="#DejaVuSans-48"/>
      </g>
     </g>
    </g>
    <g id="ytick_3">
     <g id="line2d_11">
      <g>
       <use style="stroke:#000000;stroke-width:0.8;" x="108" xlink:href="#m54471a5a81" y="303.79408"/>
      </g>
     </g>
     <g id="text_12">
      <!-- −500 -->
      <g transform="translate(73.532813 307.593299)scale(0.1 -0.1)">
       <use xlink:href="#DejaVuSans-8722"/>
       <use x="83.789062" xlink:href="#DejaVuSans-53"/>
       <use x="147.412109" xlink:href="#DejaVuSans-48"/>
       <use x="211.035156" xlink:href="#DejaVuSans-48"/>
      </g>
     </g>
    </g>
    <g id="ytick_4">
     <g id="line2d_12">
      <g>
       <use style="stroke:#000000;stroke-width:0.8;" x="108" xlink:href="#m54471a5a81" y="265.213192"/>
      </g>
     </g>
     <g id="text_13">
      <!-- 0 -->
      <g transform="translate(94.6375 269.012411)scale(0.1 -0.1)">
       <use xlink:href="#DejaVuSans-48"/>
      </g>
     </g>
    </g>
    <g id="ytick_5">
     <g id="line2d_13">
      <g>
       <use style="stroke:#000000;stroke-width:0.8;" x="108" xlink:href="#m54471a5a81" y="226.632304"/>
      </g>
     </g>
     <g id="text_14">
      <!-- 500 -->
      <g transform="translate(81.9125 230.431522)scale(0.1 -0.1)">
       <use xlink:href="#DejaVuSans-53"/>
       <use x="63.623047" xlink:href="#DejaVuSans-48"/>
       <use x="127.246094" xlink:href="#DejaVuSans-48"/>
      </g>
     </g>
    </g>
    <g id="ytick_6">
     <g id="line2d_14">
      <g>
       <use style="stroke:#000000;stroke-width:0.8;" x="108" xlink:href="#m54471a5a81" y="188.051415"/>
      </g>
     </g>
     <g id="text_15">
      <!-- 1000 -->
      <g transform="translate(75.55 191.850634)scale(0.1 -0.1)">
       <use xlink:href="#DejaVuSans-49"/>
       <use x="63.623047" xlink:href="#DejaVuSans-48"/>
       <use x="127.246094" xlink:href="#DejaVuSans-48"/>
       <use x="190.869141" xlink:href="#DejaVuSans-48"/>
      </g>
     </g>
    </g>
    <g id="ytick_7">
     <g id="line2d_15">
      <g>
       <use style="stroke:#000000;stroke-width:0.8;" x="108" xlink:href="#m54471a5a81" y="149.470527"/>
      </g>
     </g>
     <g id="text_16">
      <!-- 1500 -->
      <g transform="translate(75.55 153.269746)scale(0.1 -0.1)">
       <use xlink:href="#DejaVuSans-49"/>
       <use x="63.623047" xlink:href="#DejaVuSans-53"/>
       <use x="127.246094" xlink:href="#DejaVuSans-48"/>
       <use x="190.869141" xlink:href="#DejaVuSans-48"/>
      </g>
     </g>
    </g>
    <g id="ytick_8">
     <g id="line2d_16">
      <g>
       <use style="stroke:#000000;stroke-width:0.8;" x="108" xlink:href="#m54471a5a81" y="110.889638"/>
      </g>
     </g>
     <g id="text_17">
      <!-- 2000 -->
      <g transform="translate(75.55 114.688857)scale(0.1 -0.1)">
       <use xlink:href="#DejaVuSans-50"/>
       <use x="63.623047" xlink:href="#DejaVuSans-48"/>
       <use x="127.246094" xlink:href="#DejaVuSans-48"/>
       <use x="190.869141" xlink:href="#DejaVuSans-48"/>
      </g>
     </g>
    </g>
    <g id="ytick_9">
     <g id="line2d_17">
      <g>
       <use style="stroke:#000000;stroke-width:0.8;" x="108" xlink:href="#m54471a5a81" y="72.30875"/>
      </g>
     </g>
     <g id="text_18">
      <!-- 2500 -->
      <g transform="translate(75.55 76.107969)scale(0.1 -0.1)">
       <use xlink:href="#DejaVuSans-50"/>
       <use x="63.623047" xlink:href="#DejaVuSans-53"/>
       <use x="127.246094" xlink:href="#DejaVuSans-48"/>
       <use x="190.869141" xlink:href="#DejaVuSans-48"/>
      </g>
     </g>
    </g>
    <g id="text_19">
     <!-- Value -->
     <defs>
      <path d="M 28.609375 0 
L 0.78125 72.90625 
L 11.078125 72.90625 
L 34.1875 11.53125 
L 57.328125 72.90625 
L 67.578125 72.90625 
L 39.796875 0 
z
" id="DejaVuSans-86"/>
      <path d="M 9.421875 75.984375 
L 18.40625 75.984375 
L 18.40625 0 
L 9.421875 0 
z
" id="DejaVuSans-108"/>
      <path d="M 8.5 21.578125 
L 8.5 54.6875 
L 17.484375 54.6875 
L 17.484375 21.921875 
Q 17.484375 14.15625 20.5 10.265625 
Q 23.53125 6.390625 29.59375 6.390625 
Q 36.859375 6.390625 41.078125 11.03125 
Q 45.3125 15.671875 45.3125 23.6875 
L 45.3125 54.6875 
L 54.296875 54.6875 
L 54.296875 0 
L 45.3125 0 
L 45.3125 8.40625 
Q 42.046875 3.421875 37.71875 1 
Q 33.40625 -1.421875 27.6875 -1.421875 
Q 18.265625 -1.421875 13.375 4.4375 
Q 8.5 10.296875 8.5 21.578125 
z
M 31.109375 56 
z
" id="DejaVuSans-117"/>
     </defs>
     <g transform="translate(61.090625 232.273281)rotate(-90)scale(0.1 -0.1)">
      <use xlink:href="#DejaVuSans-86"/>
      <use x="68.298828" xlink:href="#DejaVuSans-97"/>
      <use x="129.578125" xlink:href="#DejaVuSans-108"/>
      <use x="157.361328" xlink:href="#DejaVuSans-117"/>
      <use x="220.740234" xlink:href="#DejaVuSans-101"/>
     </g>
    </g>
   </g>
   <g id="line2d_18">
    <path clip-path="url(#p32d452333d)" d="M 138.436364 261.153994 
L 138.862047 261.100802 
L 139.28773 250.791752 
L 139.713414 245.924912 
L 140.139097 243.622689 
L 140.564781 244.833428 
L 141.841831 225.425037 
L 142.267514 213.103468 
L 143.118881 214.140713 
L 143.544565 210.860983 
L 143.970248 203.886594 
L 144.821615 196.15995 
L 145.247298 190.223983 
L 145.672982 190.165261 
L 146.098665 182.452414 
L 146.524348 184.406105 
L 147.375715 173.164479 
L 147.801399 171.156753 
L 148.227082 166.453498 
L 148.652765 166.801752 
L 149.504132 159.065535 
L 149.929816 162.951047 
L 150.355499 163.315304 
L 150.781182 157.814357 
L 151.206866 157.64609 
L 151.632549 157.785617 
L 152.058233 156.837824 
L 152.483916 157.152865 
L 152.909599 152.663162 
L 153.335283 151.415398 
L 153.760966 152.250864 
L 154.18665 157.31052 
L 154.612333 152.826743 
L 155.038017 158.649351 
L 155.4637 153.451953 
L 156.315067 163.60855 
L 157.166434 169.894883 
L 157.592117 171.903103 
L 158.0178 176.009213 
L 158.443484 170.129873 
L 158.869167 174.073902 
L 159.294851 180.52712 
L 159.720534 182.245163 
L 160.146217 187.728294 
L 160.571901 182.425036 
L 160.997584 196.431568 
L 161.423268 198.002261 
L 162.274634 204.103963 
L 162.700318 210.905903 
L 163.126001 221.805729 
L 163.551685 223.278833 
L 163.977368 222.748314 
L 164.403051 228.600939 
L 164.828735 236.295228 
L 165.254418 238.499327 
L 165.680102 245.574347 
L 166.105785 247.131856 
L 166.531469 257.337279 
L 166.957152 256.61911 
L 169.511252 287.60448 
L 169.936936 289.895032 
L 170.362619 293.213583 
L 170.788303 300.863947 
L 171.213986 306.224954 
L 172.065353 319.162714 
L 172.491036 321.345887 
L 172.91672 318.939368 
L 173.342403 324.410909 
L 173.768086 331.350572 
L 174.619453 339.120095 
L 175.045137 337.960884 
L 175.47082 345.13207 
L 175.896503 343.247964 
L 176.322187 347.948426 
L 176.74787 348.4611 
L 177.173554 357.71067 
L 177.599237 357.091545 
L 178.024921 361.863695 
L 178.450604 358.934017 
L 179.301971 364.538303 
L 179.727654 360.114848 
L 180.153338 364.843759 
L 180.579021 363.032638 
L 181.004704 364.097211 
L 181.430388 369.180926 
L 181.856071 368.591927 
L 182.281755 366.182413 
L 182.707438 369.36 
L 183.133121 363.181969 
L 183.558805 368.051002 
L 183.984488 357.621648 
L 184.410172 362.8874 
L 184.835855 354.310921 
L 185.261538 359.023694 
L 185.687222 358.677892 
L 186.112905 353.194467 
L 186.538589 350.655104 
L 186.964272 353.324513 
L 187.389955 341.747867 
L 187.815639 345.507755 
L 188.241322 337.60647 
L 188.667006 333.630629 
L 189.518373 328.132835 
L 189.944056 323.180698 
L 190.369739 323.09291 
L 190.795423 318.02437 
L 191.221106 314.652652 
L 191.64679 301.659816 
L 192.072473 297.342875 
L 192.498156 296.576267 
L 192.92384 296.546316 
L 193.775207 278.12038 
L 194.20089 279.446643 
L 194.626573 270.410735 
L 195.052257 270.974836 
L 195.47794 260.646729 
L 195.903624 260.772374 
L 196.329307 256.563338 
L 197.180674 245.290346 
L 197.606357 240.395099 
L 198.032041 230.184821 
L 198.457724 227.38027 
L 198.883408 223.749979 
L 199.309091 221.363826 
L 201.011825 201.069551 
L 201.437508 193.869717 
L 201.863191 194.937457 
L 202.288875 182.531277 
L 202.714558 187.458949 
L 203.140242 179.898803 
L 203.565925 168.543603 
L 203.991608 169.841291 
L 204.417292 170.253548 
L 204.842975 169.176741 
L 205.268659 161.768341 
L 205.694342 161.022276 
L 206.120025 159.742844 
L 206.545709 155.333766 
L 206.971392 155.881183 
L 207.397076 144.136135 
L 208.248442 147.17108 
L 208.674126 146.264844 
L 209.099809 149.351659 
L 209.525493 144.175613 
L 209.951176 147.656511 
L 210.37686 149.551457 
L 210.802543 140.446439 
L 211.228226 149.617766 
L 211.65391 148.116457 
L 212.505277 151.886813 
L 212.93096 148.189722 
L 213.356643 156.323144 
L 213.782327 153.7947 
L 214.20801 156.816068 
L 214.633694 161.467258 
L 215.059377 159.57079 
L 215.910744 166.384371 
L 216.336427 164.279519 
L 218.039161 182.99566 
L 218.464844 185.030736 
L 218.890528 184.786024 
L 219.316211 192.34497 
L 219.741894 195.930352 
L 220.167578 194.308832 
L 220.593261 207.325583 
L 221.018945 206.547753 
L 221.444628 208.504157 
L 221.870312 222.199697 
L 222.295995 223.514773 
L 223.573045 241.425208 
L 223.998729 245.876964 
L 224.424412 243.970637 
L 224.850095 251.06193 
L 225.275779 255.439368 
L 225.701462 257.906434 
L 226.127146 268.906399 
L 226.552829 270.050216 
L 227.404196 283.841502 
L 227.829879 284.043289 
L 228.681246 299.543425 
L 229.106929 301.384285 
L 229.532613 300.253253 
L 229.958296 305.51363 
L 230.38398 317.947218 
L 230.809663 317.014827 
L 231.235346 318.471429 
L 231.66103 329.978781 
L 232.086713 323.911552 
L 232.512397 333.442834 
L 232.93808 334.034426 
L 233.363764 338.535719 
L 233.789447 335.754017 
L 234.21513 348.032917 
L 234.640814 346.247016 
L 235.066497 351.410078 
L 235.492181 348.732583 
L 235.917864 344.761268 
L 236.343547 358.181744 
L 236.769231 354.940203 
L 237.194914 356.340341 
L 237.620598 351.899162 
L 238.046281 360.55443 
L 238.897648 352.728543 
L 239.323331 358.897122 
L 239.749015 360.047622 
L 240.174698 357.833616 
L 240.600381 355.015322 
L 241.026065 358.855053 
L 241.451748 349.358939 
L 241.877432 353.042391 
L 242.303115 360.619975 
L 242.728798 353.082567 
L 243.154482 342.618051 
L 243.580165 348.326838 
L 244.005849 343.073362 
L 244.431532 339.931491 
L 244.857216 342.236128 
L 245.282899 332.559918 
L 245.708582 329.524494 
L 246.134266 321.498642 
L 246.985633 319.805673 
L 247.411316 316.409991 
L 247.836999 310.170704 
L 248.262683 310.698133 
L 248.688366 303.232015 
L 249.539733 292.827977 
L 249.965416 293.505788 
L 250.3911 280.549344 
L 250.816783 278.133594 
L 251.242467 267.533305 
L 251.66815 276.495609 
L 252.093833 267.385445 
L 252.519517 265.909297 
L 253.796567 239.878778 
L 254.22225 241.591317 
L 254.647934 238.920547 
L 255.499301 223.136417 
L 255.924984 219.579661 
L 256.350668 211.097303 
L 256.776351 211.396571 
L 257.202034 210.927839 
L 257.627718 198.05575 
L 258.053401 200.03975 
L 258.479085 190.128181 
L 259.330451 182.400815 
L 259.756135 174.061785 
L 260.181818 176.259271 
L 260.607502 176.010233 
L 261.033185 168.0592 
L 261.458868 165.570834 
L 262.310235 153.356593 
L 262.735919 161.376364 
L 263.161602 153.655788 
L 264.012969 146.498017 
L 264.438652 148.385851 
L 264.864336 143.106093 
L 265.290019 141.515307 
L 265.715702 141.364614 
L 266.141386 140.548801 
L 266.567069 134.573088 
L 266.992753 136.369889 
L 267.418436 131.832987 
L 267.84412 138.626715 
L 268.269803 141.69916 
L 268.695486 139.233012 
L 269.12117 138.124723 
L 269.972537 141.331367 
L 270.39822 146.158461 
L 270.823903 145.05621 
L 271.249587 147.589097 
L 271.67527 144.95104 
L 272.100954 146.85531 
L 272.526637 145.304727 
L 272.95232 153.652409 
L 273.378004 152.243384 
L 274.229371 165.878527 
L 274.655054 162.906833 
L 275.080737 169.294453 
L 275.932104 177.274298 
L 276.357788 175.278308 
L 276.783471 177.737045 
L 277.209154 183.644515 
L 278.060521 199.57777 
L 278.486205 199.194618 
L 278.911888 200.936212 
L 280.188938 217.908504 
L 280.614622 226.121276 
L 281.040305 226.933305 
L 282.743039 251.767073 
L 283.168722 254.922879 
L 283.594406 255.547622 
L 284.020089 262.740163 
L 284.871456 273.100254 
L 285.297139 272.814116 
L 285.722823 281.847332 
L 286.574189 290.494073 
L 286.999873 298.393238 
L 287.425556 299.822839 
L 287.85124 299.685381 
L 288.276923 306.320002 
L 288.702606 316.235287 
L 289.12829 315.120335 
L 289.553973 317.160109 
L 289.979657 322.570057 
L 290.40534 323.085994 
L 291.256707 334.801452 
L 291.68239 331.838965 
L 292.108074 335.788463 
L 292.533757 337.168413 
L 292.959441 337.654835 
L 293.385124 342.170082 
L 293.810807 349.579267 
L 294.236491 345.448668 
L 294.662174 352.195091 
L 295.087858 349.651098 
L 295.513541 345.680852 
L 295.939224 354.637304 
L 296.364908 349.121064 
L 296.790591 351.413721 
L 297.216275 350.238553 
L 297.641958 345.762051 
L 298.067641 346.74044 
L 298.493325 343.190007 
L 298.919008 349.743099 
L 299.770375 345.615434 
L 300.196058 341.839053 
L 300.621742 342.583373 
L 301.047425 339.780279 
L 301.473109 337.834157 
L 301.898792 330.200889 
L 302.324476 327.540925 
L 302.750159 323.350912 
L 303.175842 314.618122 
L 303.601526 320.218666 
L 304.027209 313.920385 
L 304.452893 302.029517 
L 304.878576 306.709965 
L 305.304259 304.674837 
L 305.729943 303.367237 
L 306.155626 297.724432 
L 306.58131 296.921369 
L 307.006993 292.025791 
L 307.85836 276.690902 
L 308.709727 269.257532 
L 309.13541 268.843428 
L 309.561093 256.016406 
L 309.986777 251.621441 
L 310.41246 242.905484 
L 310.838144 248.818034 
L 311.68951 227.24764 
L 312.115194 227.351835 
L 312.540877 218.300677 
L 312.966561 215.858595 
L 313.392244 212.2848 
L 313.817928 204.92243 
L 314.243611 208.677015 
L 315.094978 191.634622 
L 315.520661 184.737419 
L 316.372028 179.553826 
L 316.797711 172.335913 
L 317.649078 171.409624 
L 318.074762 164.200556 
L 318.500445 161.006906 
L 318.926128 155.854269 
L 319.351812 154.940774 
L 320.203179 141.189325 
L 320.628862 150.670993 
L 321.054545 140.616191 
L 321.480229 142.433273 
L 321.905912 140.03063 
L 322.331596 141.894525 
L 322.757279 135.296581 
L 323.182962 131.967713 
L 323.608646 136.316986 
L 324.034329 124.672435 
L 324.460013 132.442031 
L 324.885696 136.713518 
L 325.737063 121.692375 
L 326.162746 124.246469 
L 326.58843 125.651719 
L 327.439797 129.719372 
L 328.716847 142.144583 
L 329.14253 140.59466 
L 329.568214 144.474841 
L 329.993897 144.14023 
L 330.41958 141.096184 
L 330.845264 148.786489 
L 331.270947 153.636607 
L 331.696631 154.816099 
L 332.122314 160.329037 
L 332.547997 155.67927 
L 332.973681 166.46985 
L 333.399364 165.836154 
L 333.825048 167.352145 
L 334.676414 171.236105 
L 335.102098 187.011735 
L 335.527781 182.850545 
L 335.953465 191.976289 
L 336.379148 195.324975 
L 336.804832 194.800608 
L 337.230515 206.004528 
L 337.656198 206.706158 
L 338.507565 220.110092 
L 338.933249 219.008216 
L 339.358932 229.118103 
L 339.784615 234.030934 
L 340.210299 236.110244 
L 340.635982 240.365462 
L 341.061666 251.111379 
L 341.487349 249.462464 
L 341.913032 259.963457 
L 342.338716 265.567106 
L 342.764399 274.894151 
L 343.190083 272.652419 
L 343.615766 275.78726 
L 344.041449 283.534714 
L 344.467133 281.772114 
L 345.3185 293.854376 
L 345.744183 292.496267 
L 346.169866 306.874774 
L 346.59555 304.977583 
L 347.021233 306.810242 
L 347.446917 316.076131 
L 347.8726 317.010724 
L 348.298284 319.467957 
L 348.723967 323.607606 
L 349.14965 324.696799 
L 349.575334 327.927117 
L 350.001017 332.385521 
L 350.426701 329.45665 
L 350.852384 335.587522 
L 351.278067 337.426382 
L 351.703751 335.382713 
L 352.129434 332.779257 
L 352.555118 344.724821 
L 352.980801 339.30815 
L 353.406484 339.228509 
L 353.832168 340.712119 
L 354.257851 332.791004 
L 354.683535 336.766737 
L 355.109218 342.055013 
L 355.534901 341.729756 
L 355.960585 336.01743 
L 356.386268 334.649444 
L 356.811952 334.260393 
L 357.237635 336.924608 
L 357.663318 331.5603 
L 358.089002 331.545107 
L 358.514685 323.272271 
L 358.940369 329.442932 
L 359.366052 324.044545 
L 359.791736 324.60154 
L 360.217419 321.484169 
L 360.643102 315.195313 
L 361.494469 309.917568 
L 361.920153 299.750478 
L 362.345836 300.532924 
L 362.771519 292.645135 
L 363.197203 295.787779 
L 363.622886 289.195151 
L 364.04857 288.471255 
L 364.474253 274.969321 
L 364.899936 278.026494 
L 365.32562 265.557719 
L 365.751303 268.573138 
L 366.176987 260.877972 
L 366.60267 264.752917 
L 367.028353 251.462855 
L 367.454037 245.617481 
L 367.87972 246.685803 
L 368.305404 236.45432 
L 368.731087 231.559373 
L 369.156771 231.201994 
L 369.582454 217.470221 
L 370.008137 219.103015 
L 370.859504 203.496156 
L 371.285188 202.027195 
L 371.710871 193.158254 
L 372.136554 190.328377 
L 372.562238 181.336475 
L 372.987921 183.54485 
L 373.413605 180.628716 
L 373.839288 171.444741 
L 374.264971 168.942921 
L 374.690655 165.14022 
L 375.116338 158.65601 
L 375.542022 154.864287 
L 375.967705 152.668282 
L 376.393388 147.214795 
L 378.096122 132.913013 
L 378.521805 134.867061 
L 378.947489 133.460788 
L 379.373172 133.793883 
L 379.798856 128.719997 
L 380.224539 129.175474 
L 380.650223 123.439051 
L 381.075906 124.090831 
L 381.501589 124.174366 
L 381.927273 124.680856 
L 382.352956 120.807257 
L 383.204323 124.499784 
L 383.630006 125.08619 
L 384.05569 117.482335 
L 384.481373 123.682019 
L 384.907057 124.754234 
L 385.33274 124.298139 
L 385.758423 126.453264 
L 386.60979 128.806196 
L 387.035474 131.643212 
L 387.461157 135.326516 
L 387.88684 131.942079 
L 388.312524 137.086903 
L 388.738207 144.046279 
L 389.163891 139.854742 
L 389.589574 151.019568 
L 390.015257 150.07246 
L 390.440941 153.169977 
L 390.866624 158.84857 
L 391.292308 158.743675 
L 391.717991 168.336288 
L 392.143675 162.82471 
L 392.569358 170.654874 
L 392.995041 170.744883 
L 393.420725 178.499979 
L 393.846408 190.393214 
L 394.272092 187.610775 
L 394.697775 192.926257 
L 395.123458 195.8557 
L 395.549142 200.51785 
L 395.974825 207.33405 
L 396.400509 211.68966 
L 396.826192 220.455732 
L 397.251875 218.556134 
L 397.677559 234.103339 
L 398.103242 239.422444 
L 398.528926 242.494043 
L 398.954609 240.438077 
L 399.380292 251.691915 
L 399.805976 254.22642 
L 400.231659 257.515083 
L 400.657343 264.004682 
L 401.083026 273.687366 
L 401.508709 267.927369 
L 401.934393 276.294517 
L 402.360076 278.695102 
L 403.211443 290.330628 
L 404.06281 293.808862 
L 404.488493 304.796923 
L 404.914177 307.172732 
L 405.33986 302.706379 
L 405.765544 312.825215 
L 406.191227 312.863935 
L 406.61691 320.194409 
L 407.042594 316.068143 
L 407.468277 318.731473 
L 407.893961 323.626561 
L 408.319644 319.803603 
L 408.745327 328.06899 
L 409.171011 328.889967 
L 409.596694 325.772665 
L 410.022378 328.8708 
L 410.448061 328.463035 
L 410.873744 327.125683 
L 411.299428 331.367037 
L 411.725111 330.225669 
L 412.150795 334.217033 
L 412.576478 330.394917 
L 413.002161 332.285542 
L 413.427845 326.482117 
L 413.853528 329.651385 
L 414.704895 326.794833 
L 415.130579 331.526699 
L 415.556262 326.318845 
L 415.981945 314.838175 
L 416.407629 316.478836 
L 416.833312 316.046113 
L 417.258996 313.930735 
L 417.684679 311.00597 
L 418.110362 305.979776 
L 418.536046 172.550991 
L 418.961729 172.550991 
L 419.387413 297.382149 
L 419.813096 297.101814 
L 420.664463 283.459243 
L 421.090146 285.411408 
L 421.51583 273.248677 
L 421.941513 268.269788 
L 422.367196 267.448668 
L 422.79288 261.887766 
L 423.218563 253.726704 
L 423.644247 254.977056 
L 424.495613 246.904498 
L 425.34698 235.458586 
L 425.772664 226.964658 
L 426.198347 226.046616 
L 427.049714 212.418501 
L 427.475397 211.930718 
L 427.901081 198.34143 
L 428.326764 193.711565 
L 428.752448 198.629099 
L 429.178131 189.582169 
L 430.029498 178.007504 
L 430.455181 177.633311 
L 431.732231 157.580579 
L 432.157915 155.838035 
L 432.583598 151.484387 
L 433.009282 150.732368 
L 433.434965 146.377866 
L 433.860648 137.755449 
L 434.286332 137.851725 
L 434.712015 137.022096 
L 435.137699 126.683593 
L 435.563382 130.887222 
L 435.989065 122.843028 
L 436.414749 122.16313 
L 436.840432 120.594425 
L 437.266116 120.783023 
L 437.691799 115.218544 
L 438.117483 121.660735 
L 438.968849 114.80101 
L 439.394533 112.659226 
L 439.820216 112.184815 
L 440.2459 113.003951 
L 440.671583 112.841857 
L 441.097266 110.481938 
L 441.52295 114.349159 
L 441.948633 119.700422 
L 442.374317 113.507484 
L 442.8 111.76756 
L 443.225683 112.60132 
L 443.651367 118.054227 
L 444.07705 118.974189 
L 444.502734 115.865235 
L 444.928417 124.764494 
L 445.779784 125.97376 
L 446.205467 132.23964 
L 446.631151 134.547927 
L 447.056834 134.352725 
L 447.482517 141.681825 
L 447.908201 141.368546 
L 448.333884 150.182315 
L 448.759568 156.51522 
L 449.185251 152.055859 
L 450.036618 163.574244 
L 450.462301 168.126648 
L 450.887985 167.72682 
L 451.313668 178.792594 
L 451.739352 176.907597 
L 452.165035 187.899388 
L 452.590718 189.789141 
L 453.016402 194.835203 
L 453.442085 197.195457 
L 453.867769 209.526121 
L 454.293452 209.64316 
L 454.719135 214.215871 
L 455.570502 220.133362 
L 455.996186 231.73054 
L 456.421869 232.504826 
L 456.847552 237.003492 
L 457.273236 239.511495 
L 457.698919 248.317149 
L 458.124603 249.12242 
L 458.550286 257.114315 
L 458.975969 262.873513 
L 459.401653 264.774108 
L 460.25302 273.759392 
L 460.678703 275.90461 
L 461.104387 283.96153 
L 461.955753 291.211147 
L 462.381437 290.693967 
L 462.80712 291.269962 
L 463.232804 297.567396 
L 463.658487 300.330694 
L 464.08417 300.829004 
L 464.509854 310.848603 
L 464.935537 316.106601 
L 465.361221 317.177677 
L 465.786904 314.859524 
L 466.212587 317.375292 
L 466.638271 327.607435 
L 467.063954 316.609323 
L 467.489638 322.173027 
L 467.915321 322.547963 
L 468.341004 321.743469 
L 468.766688 327.601849 
L 469.192371 325.89213 
L 469.618055 320.349647 
L 470.043738 317.11039 
L 470.469421 320.674726 
L 470.895105 319.780884 
L 471.320788 326.557092 
L 471.746472 316.630665 
L 472.172155 314.989375 
L 472.597839 318.023847 
L 473.449205 310.04298 
L 473.874889 303.867751 
L 474.300572 311.694931 
L 474.726256 302.231855 
L 475.151939 298.241127 
L 476.428989 293.294607 
L 476.854673 288.684559 
L 477.280356 282.688842 
L 477.706039 284.924526 
L 478.131723 281.313508 
L 478.557406 275.493527 
L 478.98309 273.416905 
L 479.408773 269.743943 
L 479.834456 255.541722 
L 480.26014 258.158108 
L 480.685823 252.099114 
L 481.111507 249.268588 
L 481.53719 239.163507 
L 481.962873 234.164211 
L 482.388557 227.076605 
L 482.81424 227.261726 
L 483.239924 216.811704 
L 483.665607 215.227023 
L 484.091291 214.689985 
L 484.516974 201.859814 
L 484.942657 195.655527 
L 485.368341 192.874706 
L 485.794024 191.781801 
L 486.219708 189.730389 
L 486.645391 180.473981 
L 487.071074 180.036067 
L 487.496758 176.784135 
L 487.922441 164.174989 
L 488.348125 162.805574 
L 489.199491 155.148693 
L 489.625175 144.766578 
L 490.050858 149.895573 
L 490.902225 135.441848 
L 491.327908 132.729869 
L 491.753592 132.180899 
L 492.179275 127.192016 
L 492.604959 124.551458 
L 493.030642 115.753909 
L 493.456325 118.087421 
L 493.882009 118.018798 
L 494.307692 109.935722 
L 494.733376 115.669383 
L 495.159059 108.112565 
L 495.584743 104.311657 
L 496.010426 110.507711 
L 496.436109 104.634658 
L 496.861793 101.721271 
L 497.287476 100.49395 
L 498.138843 97.256877 
L 498.564526 102.688981 
L 498.99021 106.23285 
L 499.415893 106.409841 
L 499.841577 102.510296 
L 500.26726 110.609034 
L 500.692943 105.201347 
L 501.118627 111.81348 
L 501.54431 112.684305 
L 501.969994 110.491356 
L 502.395677 115.468178 
L 502.82136 118.46305 
L 503.247044 120.385936 
L 503.672727 116.448187 
L 504.098411 128.104708 
L 504.524094 126.444962 
L 504.949777 131.470212 
L 505.375461 124.000861 
L 505.801144 137.413353 
L 506.226828 134.859528 
L 506.652511 141.734467 
L 507.078195 153.415776 
L 507.503878 150.955335 
L 507.929561 154.633176 
L 508.355245 161.119526 
L 508.780928 171.843786 
L 509.206612 163.129821 
L 509.632295 175.476647 
L 510.057978 184.040144 
L 510.483662 180.446784 
L 510.909345 190.021002 
L 511.335029 193.349268 
L 512.186395 209.653362 
L 512.612079 209.470819 
L 513.037762 211.518705 
L 513.463446 218.891768 
L 515.591863 243.983153 
L 516.868913 261.293357 
L 517.294596 263.594582 
L 517.72028 267.716945 
L 518.145963 270.743028 
L 518.571647 148.181743 
L 518.99733 148.181743 
L 519.423013 276.353735 
L 519.848697 283.476077 
L 520.700064 291.344411 
L 521.125747 297.21105 
L 521.977114 300.997911 
L 522.402797 302.009237 
L 522.828481 304.656329 
L 523.254164 300.881719 
L 523.679847 309.509086 
L 524.105531 312.420652 
L 524.531214 316.633931 
L 524.956898 315.788231 
L 525.382581 305.354082 
L 525.808264 313.322847 
L 526.233948 311.891931 
L 526.659631 314.36186 
L 527.085315 314.475843 
L 527.510998 315.349893 
L 527.936682 312.616652 
L 528.362365 309.131446 
L 528.788048 309.940236 
L 529.213732 312.356411 
L 529.639415 309.953685 
L 530.065099 313.28639 
L 530.490782 303.291163 
L 530.916465 299.12973 
L 531.342149 307.41084 
L 531.767832 300.242424 
L 532.193516 300.321943 
L 532.619199 298.480865 
L 533.044882 288.275454 
L 533.470566 284.745021 
L 533.896249 278.615857 
L 534.321933 279.886705 
L 534.747616 283.503726 
L 535.173299 272.302733 
L 535.598983 272.011662 
L 536.45035 260.577394 
L 536.876033 256.698497 
L 537.301716 249.876032 
L 537.7274 249.827927 
L 538.153083 245.172573 
L 539.00445 230.568463 
L 539.430134 229.647825 
L 540.2815 221.586292 
L 541.132867 209.15613 
L 541.558551 206.865244 
L 541.984234 195.911898 
L 542.409917 199.540851 
L 542.835601 188.483739 
L 543.261284 187.56433 
L 543.686968 174.189608 
L 544.112651 174.755248 
L 544.538334 164.73645 
L 544.964018 164.880876 
L 545.389701 159.560882 
L 545.815385 157.549376 
L 546.241068 159.612052 
L 546.666751 140.310162 
L 547.092435 145.766287 
L 547.518118 129.1057 
L 547.943802 132.253955 
L 548.369485 131.288718 
L 548.795168 123.664474 
L 549.220852 119.633346 
L 549.646535 119.859636 
L 550.072219 115.609761 
L 550.497902 107.299879 
L 550.923586 114.863725 
L 551.349269 108.059475 
L 551.774952 103.084458 
L 552.200636 107.973905 
L 552.626319 107.282003 
L 553.052003 95.672605 
L 553.477686 100.883836 
L 553.903369 100.586684 
L 554.329053 96.433504 
L 554.754736 97.317439 
L 555.18042 96.807932 
L 555.606103 99.240637 
L 556.031786 97.563007 
L 556.45747 92.183902 
L 556.883153 93.692885 
L 557.308837 97.929887 
L 557.73452 89.139329 
L 558.160203 93.193118 
L 558.585887 101.538605 
L 559.01157 101.055112 
L 559.437254 112.748676 
L 559.862937 101.461357 
L 560.28862 104.909527 
L 560.714304 110.64932 
L 561.565671 114.188893 
L 561.991354 114.222629 
L 562.417038 123.671782 
L 562.842721 120.566523 
L 563.268404 125.054415 
L 563.694088 133.333944 
L 564.119771 135.833147 
L 564.545455 133.061234 
L 565.396821 151.598825 
L 565.822505 156.20015 
L 566.248188 156.204732 
L 566.673872 159.770425 
L 567.099555 164.365106 
L 567.525238 170.701347 
L 567.950922 180.888831 
L 568.376605 180.893897 
L 568.802289 181.417036 
L 569.227972 196.600401 
L 569.653655 192.256146 
L 570.079339 203.810341 
L 570.505022 204.797413 
L 570.930706 213.491135 
L 571.356389 211.383344 
L 571.782072 220.753628 
L 572.207756 222.402421 
L 572.633439 231.077022 
L 573.484806 242.743945 
L 573.91049 246.218994 
L 574.336173 248.186569 
L 574.761856 247.081115 
L 575.613223 261.94126 
L 576.038907 263.201 
L 576.46459 271.025395 
L 576.890273 273.558259 
L 577.315957 274.709636 
L 577.74164 270.150783 
L 578.167324 281.178809 
L 578.593007 284.67207 
L 579.01869 295.173113 
L 579.444374 286.876976 
L 579.870057 289.158673 
L 580.295741 300.551547 
L 580.721424 297.524772 
L 581.147107 302.052711 
L 581.572791 300.698608 
L 581.998474 304.109736 
L 582.424158 300.507182 
L 582.849841 304.061559 
L 583.275524 305.250581 
L 583.701208 304.834527 
L 584.126891 312.119614 
L 584.552575 310.160154 
L 584.978258 301.962825 
L 585.403942 305.292338 
L 585.829625 303.984038 
L 586.255308 308.864606 
L 586.680992 296.462155 
L 587.106675 303.730609 
L 587.532359 298.948296 
L 587.958042 299.559713 
L 588.383725 293.837396 
L 588.809409 297.452843 
L 589.235092 289.062328 
L 589.660776 286.401345 
L 590.086459 289.27788 
L 590.512142 289.030653 
L 590.937826 279.339525 
L 591.363509 284.679793 
L 591.789193 271.411715 
L 592.640559 263.683437 
L 593.066243 263.260725 
L 593.491926 252.268613 
L 593.91761 254.235747 
L 594.343293 252.446774 
L 594.768976 246.097071 
L 595.19466 244.253067 
L 595.620343 239.594905 
L 596.046027 230.116246 
L 596.47171 225.753924 
L 596.897394 222.68095 
L 597.74876 211.470855 
L 598.174444 206.897577 
L 598.600127 195.259845 
L 599.025811 197.652129 
L 599.451494 188.514621 
L 599.877177 186.703242 
L 600.302861 183.939865 
L 600.728544 178.540532 
L 601.154228 170.104705 
L 601.579911 167.496537 
L 602.431278 154.988437 
L 602.856961 149.05254 
L 603.282645 150.029459 
L 603.708328 137.987801 
L 604.134011 143.988533 
L 604.559695 139.768758 
L 604.985378 125.975566 
L 605.411062 121.669879 
L 605.836745 125.437101 
L 606.262428 116.541115 
L 606.688112 118.829283 
L 607.113795 106.254207 
L 607.539479 107.954521 
L 608.390846 103.522073 
L 608.816529 103.818524 
L 609.242212 94.848091 
L 609.667896 95.375785 
L 610.093579 91.880154 
L 610.519263 94.297154 
L 611.370629 88.213356 
L 611.796313 93.471445 
L 612.221996 90.125644 
L 612.64768 88.521804 
L 613.073363 84.405269 
L 613.499046 89.087868 
L 613.92473 89.654318 
L 614.350413 85.241855 
L 614.776097 89.551694 
L 615.20178 84.757309 
L 615.627463 94.359912 
L 616.053147 91.469247 
L 616.47883 94.305411 
L 616.904514 95.119616 
L 617.330197 93.125802 
L 617.75588 95.306642 
L 618.607247 108.362319 
L 619.032931 107.606617 
L 619.458614 103.884083 
L 620.309981 117.309174 
L 620.735664 117.956554 
L 621.161348 119.008201 
L 621.587031 119.546505 
L 622.438398 136.516171 
L 622.864081 130.371022 
L 623.289765 141.607028 
L 623.715448 141.810431 
L 624.141132 146.707835 
L 624.566815 161.883578 
L 624.992498 154.935233 
L 625.418182 165.233629 
L 625.843865 172.355582 
L 626.269549 174.335717 
L 627.546599 189.826977 
L 627.972282 189.559429 
L 628.823649 203.129917 
L 629.249332 210.943532 
L 629.675016 210.034795 
L 630.952066 229.800485 
L 632.229116 240.579984 
L 632.6548 243.315129 
L 633.080483 249.617021 
L 633.506167 259.711868 
L 633.93185 257.193232 
L 634.357533 258.610915 
L 634.783217 269.887954 
L 635.2089 275.201712 
L 635.634584 270.021672 
L 636.060267 276.877029 
L 636.48595 276.97552 
L 636.911634 282.109739 
L 637.337317 278.407713 
L 638.188684 286.348995 
L 639.040051 289.052644 
L 639.465734 289.995216 
L 639.891418 297.797077 
L 640.317101 290.880497 
L 640.742784 301.227102 
L 641.168468 304.139511 
L 641.594151 298.290986 
L 642.019835 295.830789 
L 642.445518 296.460989 
L 642.871202 295.53507 
L 643.296885 296.486061 
L 643.722568 297.92166 
L 644.148252 294.530752 
L 644.573935 288.014169 
L 644.999619 293.120676 
L 645.425302 288.976231 
L 645.850985 287.063725 
L 646.276669 282.612789 
L 646.702352 287.599084 
L 647.553719 277.92589 
L 647.979402 277.225876 
L 648.405086 272.18537 
L 648.830769 270.249078 
L 649.682136 267.437838 
L 650.107819 255.895515 
L 650.533503 254.188789 
L 650.959186 248.017877 
L 651.38487 253.480527 
L 651.810553 238.452463 
L 652.66192 234.189271 
L 653.087603 226.366294 
L 653.513287 222.413949 
L 654.364654 211.867484 
L 654.790337 208.05268 
L 655.21602 203.1138 
L 655.641704 200.439783 
L 656.067387 192.010531 
L 656.493071 190.064391 
L 656.918754 179.140705 
L 657.344437 177.883197 
L 657.770121 168.598519 
L 658.195804 169.254666 
L 658.621488 163.810421 
L 659.047171 155.572797 
L 659.472854 149.787439 
L 659.898538 152.172114 
L 660.324221 141.218467 
L 660.749905 135.78507 
L 661.175588 136.141868 
L 661.601271 128.11847 
L 662.026955 128.129666 
L 662.878322 118.477898 
L 663.304005 116.267311 
L 663.729688 105.691423 
L 664.155372 106.961395 
L 664.581055 104.802132 
L 665.006739 105.455703 
L 665.432422 97.064295 
L 665.858106 96.926488 
L 666.283789 93.170231 
L 666.709472 90.580395 
L 667.135156 92.568608 
L 667.560839 83.818053 
L 667.986523 82.857119 
L 668.412206 80.681912 
L 669.263573 85.461922 
L 669.689256 72.540988 
L 670.11494 73.597737 
L 670.540623 79.109651 
L 670.966306 82.058448 
L 671.39199 78.144759 
L 671.817673 77.995237 
L 672.243357 84.954748 
L 672.66904 80.04702 
L 673.094723 79.880551 
L 673.520407 76.004574 
L 673.94609 86.29363 
L 674.371774 76.818336 
L 675.22314 88.608697 
L 675.648824 91.891128 
L 676.500191 91.882931 
L 676.925874 94.249883 
L 677.777241 107.605967 
L 678.202924 105.065035 
L 678.628608 108.830507 
L 679.054291 117.762701 
L 679.479975 123.123715 
L 679.905658 124.22076 
L 680.331341 126.859873 
L 681.608392 143.830313 
L 682.034075 143.14069 
L 682.885442 154.086235 
L 683.311125 162.035411 
L 683.736809 165.313338 
L 684.162492 173.27145 
L 684.588175 171.79605 
L 685.013859 185.246814 
L 685.439542 185.310469 
L 686.290909 196.4462 
L 686.716592 191.539466 
L 687.142276 197.207901 
L 687.567959 210.677944 
L 687.993643 212.415385 
L 688.84501 221.751208 
L 689.270693 226.161434 
L 690.12206 243.35984 
L 690.547743 242.150678 
L 690.973427 242.712667 
L 691.39911 250.639259 
L 691.824793 251.596875 
L 692.250477 258.779444 
L 692.67616 259.11629 
L 693.101844 261.642575 
L 693.527527 266.099407 
L 693.95321 272.602386 
L 694.378894 268.419192 
L 695.230261 281.185851 
L 695.655944 281.499249 
L 696.081627 281.021448 
L 696.932994 290.45689 
L 697.358678 289.239432 
L 697.784361 287.442448 
L 698.210045 287.752651 
L 698.635728 283.967606 
L 699.061411 291.215483 
L 699.487095 292.079201 
L 699.912778 291.411264 
L 700.338462 285.83738 
L 700.764145 291.177199 
L 701.189828 288.10227 
L 701.615512 280.115558 
L 702.041195 289.555547 
L 702.892562 283.864242 
L 703.318245 285.643573 
L 703.743929 277.840441 
L 704.169612 282.746568 
L 704.595296 274.911995 
L 705.020979 273.731155 
L 705.446662 270.328927 
L 705.872346 261.399992 
L 706.298029 259.490152 
L 706.723713 252.659428 
L 708.000763 248.920161 
L 708.426446 242.130085 
L 708.85213 237.722974 
L 709.277813 235.200977 
L 709.703497 234.534199 
L 710.12918 222.957782 
L 710.554863 223.197106 
L 710.980547 219.846023 
L 711.40623 210.895907 
L 711.831914 207.428772 
L 712.257597 198.150339 
L 712.68328 197.489287 
L 713.108964 187.579936 
L 713.534647 185.135995 
L 714.386014 176.607389 
L 714.811697 167.041551 
L 715.237381 167.201508 
L 715.663064 162.823615 
L 716.088748 155.075635 
L 716.514431 150.160788 
L 716.940114 139.593221 
L 717.365798 141.287214 
L 717.791481 133.835211 
L 718.217165 131.878456 
L 718.642848 122.346508 
L 719.068531 120.980724 
L 719.494215 116.412996 
L 719.919898 113.38344 
L 720.345582 113.140962 
L 720.771265 108.280699 
L 721.196949 100.849653 
L 721.622632 102.309632 
L 722.048315 91.739836 
L 722.473999 96.489682 
L 723.325366 90.122619 
L 724.176732 77.928678 
L 724.602416 84.085568 
L 725.028099 78.390763 
L 725.453783 75.055924 
L 725.879466 78.705742 
L 726.305149 73.131904 
L 726.730833 71.791649 
L 727.156516 66.96 
L 727.5822 67.445656 
L 728.007883 73.242462 
L 728.433566 72.481275 
L 728.85925 71.251581 
L 729.284933 75.812717 
L 729.710617 73.299285 
L 730.1363 67.761292 
L 730.561983 72.528946 
L 730.987667 70.016042 
L 731.41335 71.265772 
L 731.839034 77.795517 
L 732.264717 78.679026 
L 732.690401 73.235235 
L 733.116084 82.61215 
L 733.541767 83.270479 
L 733.967451 82.993055 
L 734.393134 89.851671 
L 734.818818 92.026845 
L 735.244501 99.631523 
L 735.670184 92.750316 
L 736.095868 105.084293 
L 736.521551 110.080412 
L 736.947235 112.011544 
L 737.372918 108.657297 
L 737.798601 123.957548 
L 738.224285 123.259932 
L 738.649968 130.869773 
L 739.075652 134.699636 
L 739.501335 135.923055 
L 739.927018 139.155295 
L 740.352702 140.106448 
L 740.778385 151.431597 
L 741.204069 153.645971 
L 741.629752 168.671515 
L 742.055435 164.383332 
L 742.481119 164.564861 
L 742.906802 173.127872 
L 742.906802 173.127872 
" style="fill:none;stroke:#1f77b4;stroke-linecap:square;stroke-width:1.5;"/>
   </g>
   <g id="line2d_19">
    <path clip-path="url(#p32d452333d)" d="M 747.163636 384.48 
L 747.163636 51.84 
" style="fill:none;stroke:#808080;stroke-linecap:square;"/>
   </g>
   <g id="patch_88">
    <path d="M 108 384.48 
L 108 51.84 
" style="fill:none;stroke:#000000;stroke-linecap:square;stroke-linejoin:miter;stroke-width:0.8;"/>
   </g>
   <g id="patch_89">
    <path d="M 777.6 384.48 
L 777.6 51.84 
" style="fill:none;stroke:#000000;stroke-linecap:square;stroke-linejoin:miter;stroke-width:0.8;"/>
   </g>
   <g id="patch_90">
    <path d="M 108 384.48 
L 777.6 384.48 
" style="fill:none;stroke:#000000;stroke-linecap:square;stroke-linejoin:miter;stroke-width:0.8;"/>
   </g>
   <g id="patch_91">
    <path d="M 108 51.84 
L 777.6 51.84 
" style="fill:none;stroke:#000000;stroke-linecap:square;stroke-linejoin:miter;stroke-width:0.8;"/>
   </g>
   <g id="text_20">
    <!-- synthetic_4.csv -->
    <defs>
     <path d="M 32.171875 -5.078125 
Q 28.375 -14.84375 24.75 -17.8125 
Q 21.140625 -20.796875 15.09375 -20.796875 
L 7.90625 -20.796875 
L 7.90625 -13.28125 
L 13.1875 -13.28125 
Q 16.890625 -13.28125 18.9375 -11.515625 
Q 21 -9.765625 23.484375 -3.21875 
L 25.09375 0.875 
L 2.984375 54.6875 
L 12.5 54.6875 
L 29.59375 11.921875 
L 46.6875 54.6875 
L 56.203125 54.6875 
z
" id="DejaVuSans-121"/>
     <path d="M 54.890625 33.015625 
L 54.890625 0 
L 45.90625 0 
L 45.90625 32.71875 
Q 45.90625 40.484375 42.875 44.328125 
Q 39.84375 48.1875 33.796875 48.1875 
Q 26.515625 48.1875 22.3125 43.546875 
Q 18.109375 38.921875 18.109375 30.90625 
L 18.109375 0 
L 9.078125 0 
L 9.078125 54.6875 
L 18.109375 54.6875 
L 18.109375 46.1875 
Q 21.34375 51.125 25.703125 53.5625 
Q 30.078125 56 35.796875 56 
Q 45.21875 56 50.046875 50.171875 
Q 54.890625 44.34375 54.890625 33.015625 
z
" id="DejaVuSans-110"/>
     <path d="M 54.890625 33.015625 
L 54.890625 0 
L 45.90625 0 
L 45.90625 32.71875 
Q 45.90625 40.484375 42.875 44.328125 
Q 39.84375 48.1875 33.796875 48.1875 
Q 26.515625 48.1875 22.3125 43.546875 
Q 18.109375 38.921875 18.109375 30.90625 
L 18.109375 0 
L 9.078125 0 
L 9.078125 75.984375 
L 18.109375 75.984375 
L 18.109375 46.1875 
Q 21.34375 51.125 25.703125 53.5625 
Q 30.078125 56 35.796875 56 
Q 45.21875 56 50.046875 50.171875 
Q 54.890625 44.34375 54.890625 33.015625 
z
" id="DejaVuSans-104"/>
     <path d="M 48.78125 52.59375 
L 48.78125 44.1875 
Q 44.96875 46.296875 41.140625 47.34375 
Q 37.3125 48.390625 33.40625 48.390625 
Q 24.65625 48.390625 19.8125 42.84375 
Q 14.984375 37.3125 14.984375 27.296875 
Q 14.984375 17.28125 19.8125 11.734375 
Q 24.65625 6.203125 33.40625 6.203125 
Q 37.3125 6.203125 41.140625 7.25 
Q 44.96875 8.296875 48.78125 10.40625 
L 48.78125 2.09375 
Q 45.015625 0.34375 40.984375 -0.53125 
Q 36.96875 -1.421875 32.421875 -1.421875 
Q 20.0625 -1.421875 12.78125 6.34375 
Q 5.515625 14.109375 5.515625 27.296875 
Q 5.515625 40.671875 12.859375 48.328125 
Q 20.21875 56 33.015625 56 
Q 37.15625 56 41.109375 55.140625 
Q 45.0625 54.296875 48.78125 52.59375 
z
" id="DejaVuSans-99"/>
     <path d="M 50.984375 -16.609375 
L 50.984375 -23.578125 
L -0.984375 -23.578125 
L -0.984375 -16.609375 
z
" id="DejaVuSans-95"/>
     <path d="M 10.6875 12.40625 
L 21 12.40625 
L 21 0 
L 10.6875 0 
z
" id="DejaVuSans-46"/>
     <path d="M 2.984375 54.6875 
L 12.5 54.6875 
L 29.59375 8.796875 
L 46.6875 54.6875 
L 56.203125 54.6875 
L 35.6875 0 
L 23.484375 0 
z
" id="DejaVuSans-118"/>
    </defs>
    <g transform="translate(396.455625 45.84)scale(0.12 -0.12)">
     <use xlink:href="#DejaVuSans-115"/>
     <use x="52.099609" xlink:href="#DejaVuSans-121"/>
     <use x="111.279297" xlink:href="#DejaVuSans-110"/>
     <use x="174.658203" xlink:href="#DejaVuSans-116"/>
     <use x="213.867188" xlink:href="#DejaVuSans-104"/>
     <use x="277.246094" xlink:href="#DejaVuSans-101"/>
     <use x="338.769531" xlink:href="#DejaVuSans-116"/>
     <use x="377.978516" xlink:href="#DejaVuSans-105"/>
     <use x="405.761719" xlink:href="#DejaVuSans-99"/>
     <use x="460.742188" xlink:href="#DejaVuSans-95"/>
     <use x="510.742188" xlink:href="#DejaVuSans-52"/>
     <use x="574.365234" xlink:href="#DejaVuSans-46"/>
     <use x="606.152344" xlink:href="#DejaVuSans-99"/>
     <use x="661.132812" xlink:href="#DejaVuSans-115"/>
     <use x="713.232422" xlink:href="#DejaVuSans-118"/>
    </g>
   </g>
   <g id="legend_1">
    <g id="patch_92">
     <path d="M 115 74.518125 
L 174.315625 74.518125 
Q 176.315625 74.518125 176.315625 72.518125 
L 176.315625 58.84 
Q 176.315625 56.84 174.315625 56.84 
L 115 56.84 
Q 113 56.84 113 58.84 
L 113 72.518125 
Q 113 74.518125 115 74.518125 
z
" style="fill:#ffffff;opacity:0.8;stroke:#cccccc;stroke-linejoin:miter;"/>
    </g>
    <g id="line2d_20">
     <path d="M 117 64.938438 
L 137 64.938438 
" style="fill:none;stroke:#1f77b4;stroke-linecap:square;stroke-width:1.5;"/>
    </g>
    <g id="line2d_21"/>
    <g id="text_21">
     <!-- value -->
     <g transform="translate(145 68.438438)scale(0.1 -0.1)">
      <use xlink:href="#DejaVuSans-118"/>
      <use x="59.179688" xlink:href="#DejaVuSans-97"/>
      <use x="120.458984" xlink:href="#DejaVuSans-108"/>
      <use x="148.242188" xlink:href="#DejaVuSans-117"/>
      <use x="211.621094" xlink:href="#DejaVuSans-101"/>
     </g>
    </g>
   </g>
  </g>
 </g>
 <defs>
  <clipPath id="p32d452333d">
   <rect height="332.64" width="669.6" x="108" y="51.84"/>
  </clipPath>
 </defs>
</svg>
