<?xml version="1.0" encoding="utf-8" standalone="no"?>
<!DOCTYPE svg PUBLIC "-//W3C//DTD SVG 1.1//EN"
  "http://www.w3.org/Graphics/SVG/1.1/DTD/svg11.dtd">
<!-- Created with matplotlib (https://matplotlib.org/) -->
<svg height="432pt" version="1.1" viewBox="0 0 864 432" width="864pt" xmlns="http://www.w3.org/2000/svg" xmlns:xlink="http://www.w3.org/1999/xlink">
 <defs>
  <style type="text/css">
*{stroke-linecap:butt;stroke-linejoin:round;}
  </style>
 </defs>
 <g id="figure_1">
  <g id="patch_1">
   <path d="M 0 432 
L 864 432 
L 864 0 
L 0 0 
z
" style="fill:#ffffff;"/>
  </g>
  <g id="axes_1">
   <g id="patch_2">
    <path d="M 108 384.48 
L 777.6 384.48 
L 777.6 51.84 
L 108 51.84 
z
" style="fill:#ffffff;"/>
   </g>
   <g id="patch_3">
    <path clip-path="url(#pd51d81d9e9)" d="M 138.436364 384.48 
L 138.436364 51.84 
L 440.671583 51.84 
L 440.671583 384.48 
z
" style="fill:#0000ff;opacity:0.05;"/>
   </g>
   <g id="patch_4">
    <path clip-path="url(#pd51d81d9e9)" d="M 440.671583 384.48 
L 440.671583 51.84 
L 747.163636 51.84 
L 747.163636 384.48 
z
" style="fill:#ff0000;opacity:0.08;"/>
   </g>
   <g id="patch_5">
    <path clip-path="url(#pd51d81d9e9)" d="M 138.436364 384.48 
L 138.436364 51.84 
L 142.693198 51.84 
L 142.693198 384.48 
z
" style="fill:#008000;opacity:0.04;"/>
   </g>
   <g id="patch_6">
    <path clip-path="url(#pd51d81d9e9)" d="M 146.950032 384.48 
L 146.950032 51.84 
L 151.206866 51.84 
L 151.206866 384.48 
z
" style="fill:#008000;opacity:0.04;"/>
   </g>
   <g id="patch_7">
    <path clip-path="url(#pd51d81d9e9)" d="M 155.4637 384.48 
L 155.4637 51.84 
L 159.720534 51.84 
L 159.720534 384.48 
z
" style="fill:#008000;opacity:0.04;"/>
   </g>
   <g id="patch_8">
    <path clip-path="url(#pd51d81d9e9)" d="M 163.977368 384.48 
L 163.977368 51.84 
L 168.234202 51.84 
L 168.234202 384.48 
z
" style="fill:#008000;opacity:0.04;"/>
   </g>
   <g id="patch_9">
    <path clip-path="url(#pd51d81d9e9)" d="M 163.977368 384.48 
L 163.977368 371.1744 
L 168.234202 371.1744 
L 168.234202 384.48 
z
" style="fill:#ffe500;"/>
   </g>
   <g id="patch_10">
    <path clip-path="url(#pd51d81d9e9)" d="M 168.234202 384.48 
L 168.234202 371.1744 
L 172.491036 371.1744 
L 172.491036 384.48 
z
" style="fill:#ffe500;"/>
   </g>
   <g id="patch_11">
    <path clip-path="url(#pd51d81d9e9)" d="M 172.491036 384.48 
L 172.491036 51.84 
L 176.74787 51.84 
L 176.74787 384.48 
z
" style="fill:#008000;opacity:0.04;"/>
   </g>
   <g id="patch_12">
    <path clip-path="url(#pd51d81d9e9)" d="M 181.004704 384.48 
L 181.004704 51.84 
L 185.261538 51.84 
L 185.261538 384.48 
z
" style="fill:#008000;opacity:0.04;"/>
   </g>
   <g id="patch_13">
    <path clip-path="url(#pd51d81d9e9)" d="M 189.518373 384.48 
L 189.518373 51.84 
L 193.775207 51.84 
L 193.775207 384.48 
z
" style="fill:#008000;opacity:0.04;"/>
   </g>
   <g id="patch_14">
    <path clip-path="url(#pd51d81d9e9)" d="M 198.032041 384.48 
L 198.032041 51.84 
L 202.288875 51.84 
L 202.288875 384.48 
z
" style="fill:#008000;opacity:0.04;"/>
   </g>
   <g id="patch_15">
    <path clip-path="url(#pd51d81d9e9)" d="M 206.545709 384.48 
L 206.545709 51.84 
L 210.802543 51.84 
L 210.802543 384.48 
z
" style="fill:#008000;opacity:0.04;"/>
   </g>
   <g id="patch_16">
    <path clip-path="url(#pd51d81d9e9)" d="M 215.059377 384.48 
L 215.059377 51.84 
L 219.316211 51.84 
L 219.316211 384.48 
z
" style="fill:#008000;opacity:0.04;"/>
   </g>
   <g id="patch_17">
    <path clip-path="url(#pd51d81d9e9)" d="M 215.059377 384.48 
L 215.059377 371.1744 
L 219.316211 371.1744 
L 219.316211 384.48 
z
" style="fill:#ffe500;"/>
   </g>
   <g id="patch_18">
    <path clip-path="url(#pd51d81d9e9)" d="M 517.294596 384.48 
L 517.294596 371.1744 
L 521.55143 371.1744 
L 521.55143 384.48 
z
" style="fill:#ff6600;"/>
   </g>
   <g id="patch_19">
    <path clip-path="url(#pd51d81d9e9)" d="M 223.573045 384.48 
L 223.573045 51.84 
L 227.829879 51.84 
L 227.829879 384.48 
z
" style="fill:#008000;opacity:0.04;"/>
   </g>
   <g id="patch_20">
    <path clip-path="url(#pd51d81d9e9)" d="M 232.086713 384.48 
L 232.086713 51.84 
L 236.343547 51.84 
L 236.343547 384.48 
z
" style="fill:#008000;opacity:0.04;"/>
   </g>
   <g id="patch_21">
    <path clip-path="url(#pd51d81d9e9)" d="M 240.600381 384.48 
L 240.600381 51.84 
L 244.857216 51.84 
L 244.857216 384.48 
z
" style="fill:#008000;opacity:0.04;"/>
   </g>
   <g id="patch_22">
    <path clip-path="url(#pd51d81d9e9)" d="M 249.11405 384.48 
L 249.11405 51.84 
L 253.370884 51.84 
L 253.370884 384.48 
z
" style="fill:#008000;opacity:0.04;"/>
   </g>
   <g id="patch_23">
    <path clip-path="url(#pd51d81d9e9)" d="M 257.627718 384.48 
L 257.627718 51.84 
L 261.884552 51.84 
L 261.884552 384.48 
z
" style="fill:#008000;opacity:0.04;"/>
   </g>
   <g id="patch_24">
    <path clip-path="url(#pd51d81d9e9)" d="M 266.141386 384.48 
L 266.141386 51.84 
L 270.39822 51.84 
L 270.39822 384.48 
z
" style="fill:#008000;opacity:0.04;"/>
   </g>
   <g id="patch_25">
    <path clip-path="url(#pd51d81d9e9)" d="M 274.655054 384.48 
L 274.655054 51.84 
L 278.911888 51.84 
L 278.911888 384.48 
z
" style="fill:#008000;opacity:0.04;"/>
   </g>
   <g id="patch_26">
    <path clip-path="url(#pd51d81d9e9)" d="M 283.168722 384.48 
L 283.168722 51.84 
L 287.425556 51.84 
L 287.425556 384.48 
z
" style="fill:#008000;opacity:0.04;"/>
   </g>
   <g id="patch_27">
    <path clip-path="url(#pd51d81d9e9)" d="M 291.68239 384.48 
L 291.68239 51.84 
L 295.939224 51.84 
L 295.939224 384.48 
z
" style="fill:#008000;opacity:0.04;"/>
   </g>
   <g id="patch_28">
    <path clip-path="url(#pd51d81d9e9)" d="M 300.196058 384.48 
L 300.196058 51.84 
L 304.452893 51.84 
L 304.452893 384.48 
z
" style="fill:#008000;opacity:0.04;"/>
   </g>
   <g id="patch_29">
    <path clip-path="url(#pd51d81d9e9)" d="M 308.709727 384.48 
L 308.709727 51.84 
L 312.966561 51.84 
L 312.966561 384.48 
z
" style="fill:#008000;opacity:0.04;"/>
   </g>
   <g id="patch_30">
    <path clip-path="url(#pd51d81d9e9)" d="M 317.223395 384.48 
L 317.223395 51.84 
L 321.480229 51.84 
L 321.480229 384.48 
z
" style="fill:#008000;opacity:0.04;"/>
   </g>
   <g id="patch_31">
    <path clip-path="url(#pd51d81d9e9)" d="M 325.737063 384.48 
L 325.737063 51.84 
L 329.993897 51.84 
L 329.993897 384.48 
z
" style="fill:#008000;opacity:0.04;"/>
   </g>
   <g id="patch_32">
    <path clip-path="url(#pd51d81d9e9)" d="M 334.250731 384.48 
L 334.250731 51.84 
L 338.507565 51.84 
L 338.507565 384.48 
z
" style="fill:#008000;opacity:0.04;"/>
   </g>
   <g id="patch_33">
    <path clip-path="url(#pd51d81d9e9)" d="M 342.764399 384.48 
L 342.764399 51.84 
L 347.021233 51.84 
L 347.021233 384.48 
z
" style="fill:#008000;opacity:0.04;"/>
   </g>
   <g id="patch_34">
    <path clip-path="url(#pd51d81d9e9)" d="M 351.278067 384.48 
L 351.278067 51.84 
L 355.534901 51.84 
L 355.534901 384.48 
z
" style="fill:#008000;opacity:0.04;"/>
   </g>
   <g id="patch_35">
    <path clip-path="url(#pd51d81d9e9)" d="M 359.791736 384.48 
L 359.791736 51.84 
L 364.04857 51.84 
L 364.04857 384.48 
z
" style="fill:#008000;opacity:0.04;"/>
   </g>
   <g id="patch_36">
    <path clip-path="url(#pd51d81d9e9)" d="M 368.305404 384.48 
L 368.305404 51.84 
L 372.562238 51.84 
L 372.562238 384.48 
z
" style="fill:#008000;opacity:0.04;"/>
   </g>
   <g id="patch_37">
    <path clip-path="url(#pd51d81d9e9)" d="M 376.819072 384.48 
L 376.819072 51.84 
L 381.075906 51.84 
L 381.075906 384.48 
z
" style="fill:#008000;opacity:0.04;"/>
   </g>
   <g id="patch_38">
    <path clip-path="url(#pd51d81d9e9)" d="M 385.33274 384.48 
L 385.33274 51.84 
L 389.589574 51.84 
L 389.589574 384.48 
z
" style="fill:#008000;opacity:0.04;"/>
   </g>
   <g id="patch_39">
    <path clip-path="url(#pd51d81d9e9)" d="M 393.846408 384.48 
L 393.846408 51.84 
L 398.103242 51.84 
L 398.103242 384.48 
z
" style="fill:#008000;opacity:0.04;"/>
   </g>
   <g id="patch_40">
    <path clip-path="url(#pd51d81d9e9)" d="M 402.360076 384.48 
L 402.360076 51.84 
L 406.61691 51.84 
L 406.61691 384.48 
z
" style="fill:#008000;opacity:0.04;"/>
   </g>
   <g id="patch_41">
    <path clip-path="url(#pd51d81d9e9)" d="M 402.360076 371.1744 
L 402.360076 51.84 
L 406.61691 51.84 
L 406.61691 371.1744 
z
" style="fill:#008000;opacity:0.5;"/>
   </g>
   <g id="patch_42">
    <path clip-path="url(#pd51d81d9e9)" d="M 402.360076 384.48 
L 402.360076 371.1744 
L 406.61691 371.1744 
L 406.61691 384.48 
z
" style="fill:#ffe500;"/>
   </g>
   <g id="patch_43">
    <path clip-path="url(#pd51d81d9e9)" d="M 410.873744 384.48 
L 410.873744 51.84 
L 415.130579 51.84 
L 415.130579 384.48 
z
" style="fill:#008000;opacity:0.04;"/>
   </g>
   <g id="patch_44">
    <path clip-path="url(#pd51d81d9e9)" d="M 415.130579 371.1744 
L 415.130579 51.84 
L 419.387413 51.84 
L 419.387413 371.1744 
z
" style="fill:#008000;opacity:0.5;"/>
   </g>
   <g id="patch_45">
    <path clip-path="url(#pd51d81d9e9)" d="M 415.130579 384.48 
L 415.130579 371.1744 
L 419.387413 371.1744 
L 419.387413 384.48 
z
" style="fill:#ffe500;"/>
   </g>
   <g id="patch_46">
    <path clip-path="url(#pd51d81d9e9)" d="M 419.387413 384.48 
L 419.387413 51.84 
L 423.644247 51.84 
L 423.644247 384.48 
z
" style="fill:#008000;opacity:0.04;"/>
   </g>
   <g id="patch_47">
    <path clip-path="url(#pd51d81d9e9)" d="M 419.387413 371.1744 
L 419.387413 51.84 
L 423.644247 51.84 
L 423.644247 371.1744 
z
" style="fill:#008000;opacity:0.5;"/>
   </g>
   <g id="patch_48">
    <path clip-path="url(#pd51d81d9e9)" d="M 419.387413 384.48 
L 419.387413 371.1744 
L 423.644247 371.1744 
L 423.644247 384.48 
z
" style="fill:#ffe500;"/>
   </g>
   <g id="patch_49">
    <path clip-path="url(#pd51d81d9e9)" d="M 423.644247 384.48 
L 423.644247 371.1744 
L 427.901081 371.1744 
L 427.901081 384.48 
z
" style="fill:#ffe500;"/>
   </g>
   <g id="patch_50">
    <path clip-path="url(#pd51d81d9e9)" d="M 427.901081 384.48 
L 427.901081 51.84 
L 432.157915 51.84 
L 432.157915 384.48 
z
" style="fill:#008000;opacity:0.04;"/>
   </g>
   <g id="patch_51">
    <path clip-path="url(#pd51d81d9e9)" d="M 436.414749 384.48 
L 436.414749 51.84 
L 440.671583 51.84 
L 440.671583 384.48 
z
" style="fill:#008000;opacity:0.04;"/>
   </g>
   <g id="patch_52">
    <path clip-path="url(#pd51d81d9e9)" d="M 742.906802 384.48 
L 742.906802 371.1744 
L 747.163636 371.1744 
L 747.163636 384.48 
z
" style="fill:#ff6600;"/>
   </g>
   <g id="patch_53">
    <path clip-path="url(#pd51d81d9e9)" d="M 444.928417 384.48 
L 444.928417 51.84 
L 449.185251 51.84 
L 449.185251 384.48 
z
" style="fill:#008000;opacity:0.04;"/>
   </g>
   <g id="patch_54">
    <path clip-path="url(#pd51d81d9e9)" d="M 453.442085 384.48 
L 453.442085 51.84 
L 457.698919 51.84 
L 457.698919 384.48 
z
" style="fill:#008000;opacity:0.04;"/>
   </g>
   <g id="patch_55">
    <path clip-path="url(#pd51d81d9e9)" d="M 461.955753 384.48 
L 461.955753 51.84 
L 466.212587 51.84 
L 466.212587 384.48 
z
" style="fill:#008000;opacity:0.04;"/>
   </g>
   <g id="patch_56">
    <path clip-path="url(#pd51d81d9e9)" d="M 470.469421 384.48 
L 470.469421 51.84 
L 474.726256 51.84 
L 474.726256 384.48 
z
" style="fill:#008000;opacity:0.04;"/>
   </g>
   <g id="patch_57">
    <path clip-path="url(#pd51d81d9e9)" d="M 478.98309 384.48 
L 478.98309 51.84 
L 483.239924 51.84 
L 483.239924 384.48 
z
" style="fill:#008000;opacity:0.04;"/>
   </g>
   <g id="patch_58">
    <path clip-path="url(#pd51d81d9e9)" d="M 487.496758 384.48 
L 487.496758 51.84 
L 491.753592 51.84 
L 491.753592 384.48 
z
" style="fill:#008000;opacity:0.04;"/>
   </g>
   <g id="patch_59">
    <path clip-path="url(#pd51d81d9e9)" d="M 496.010426 384.48 
L 496.010426 51.84 
L 500.26726 51.84 
L 500.26726 384.48 
z
" style="fill:#008000;opacity:0.04;"/>
   </g>
   <g id="patch_60">
    <path clip-path="url(#pd51d81d9e9)" d="M 504.524094 384.48 
L 504.524094 51.84 
L 508.780928 51.84 
L 508.780928 384.48 
z
" style="fill:#008000;opacity:0.04;"/>
   </g>
   <g id="patch_61">
    <path clip-path="url(#pd51d81d9e9)" d="M 513.037762 384.48 
L 513.037762 51.84 
L 517.294596 51.84 
L 517.294596 384.48 
z
" style="fill:#008000;opacity:0.04;"/>
   </g>
   <g id="patch_62">
    <path clip-path="url(#pd51d81d9e9)" d="M 517.294596 371.1744 
L 517.294596 51.84 
L 521.55143 51.84 
L 521.55143 371.1744 
z
" style="fill:#008000;opacity:0.5;"/>
   </g>
   <g id="patch_63">
    <path clip-path="url(#pd51d81d9e9)" d="M 521.55143 384.48 
L 521.55143 51.84 
L 525.808264 51.84 
L 525.808264 384.48 
z
" style="fill:#008000;opacity:0.04;"/>
   </g>
   <g id="patch_64">
    <path clip-path="url(#pd51d81d9e9)" d="M 530.065099 384.48 
L 530.065099 51.84 
L 534.321933 51.84 
L 534.321933 384.48 
z
" style="fill:#008000;opacity:0.04;"/>
   </g>
   <g id="patch_65">
    <path clip-path="url(#pd51d81d9e9)" d="M 538.578767 384.48 
L 538.578767 51.84 
L 542.835601 51.84 
L 542.835601 384.48 
z
" style="fill:#008000;opacity:0.04;"/>
   </g>
   <g id="patch_66">
    <path clip-path="url(#pd51d81d9e9)" d="M 547.092435 384.48 
L 547.092435 51.84 
L 551.349269 51.84 
L 551.349269 384.48 
z
" style="fill:#008000;opacity:0.04;"/>
   </g>
   <g id="patch_67">
    <path clip-path="url(#pd51d81d9e9)" d="M 555.606103 384.48 
L 555.606103 51.84 
L 559.862937 51.84 
L 559.862937 384.48 
z
" style="fill:#008000;opacity:0.04;"/>
   </g>
   <g id="patch_68">
    <path clip-path="url(#pd51d81d9e9)" d="M 564.119771 384.48 
L 564.119771 51.84 
L 568.376605 51.84 
L 568.376605 384.48 
z
" style="fill:#008000;opacity:0.04;"/>
   </g>
   <g id="patch_69">
    <path clip-path="url(#pd51d81d9e9)" d="M 572.633439 384.48 
L 572.633439 51.84 
L 576.890273 51.84 
L 576.890273 384.48 
z
" style="fill:#008000;opacity:0.04;"/>
   </g>
   <g id="patch_70">
    <path clip-path="url(#pd51d81d9e9)" d="M 581.147107 384.48 
L 581.147107 51.84 
L 585.403942 51.84 
L 585.403942 384.48 
z
" style="fill:#008000;opacity:0.04;"/>
   </g>
   <g id="patch_71">
    <path clip-path="url(#pd51d81d9e9)" d="M 589.660776 384.48 
L 589.660776 51.84 
L 593.91761 51.84 
L 593.91761 384.48 
z
" style="fill:#008000;opacity:0.04;"/>
   </g>
   <g id="patch_72">
    <path clip-path="url(#pd51d81d9e9)" d="M 598.174444 384.48 
L 598.174444 51.84 
L 602.431278 51.84 
L 602.431278 384.48 
z
" style="fill:#008000;opacity:0.04;"/>
   </g>
   <g id="patch_73">
    <path clip-path="url(#pd51d81d9e9)" d="M 606.688112 384.48 
L 606.688112 51.84 
L 610.944946 51.84 
L 610.944946 384.48 
z
" style="fill:#008000;opacity:0.04;"/>
   </g>
   <g id="patch_74">
    <path clip-path="url(#pd51d81d9e9)" d="M 615.20178 384.48 
L 615.20178 51.84 
L 619.458614 51.84 
L 619.458614 384.48 
z
" style="fill:#008000;opacity:0.04;"/>
   </g>
   <g id="patch_75">
    <path clip-path="url(#pd51d81d9e9)" d="M 623.715448 384.48 
L 623.715448 51.84 
L 627.972282 51.84 
L 627.972282 384.48 
z
" style="fill:#008000;opacity:0.04;"/>
   </g>
   <g id="patch_76">
    <path clip-path="url(#pd51d81d9e9)" d="M 632.229116 384.48 
L 632.229116 51.84 
L 636.48595 51.84 
L 636.48595 384.48 
z
" style="fill:#008000;opacity:0.04;"/>
   </g>
   <g id="patch_77">
    <path clip-path="url(#pd51d81d9e9)" d="M 640.742784 384.48 
L 640.742784 51.84 
L 644.999619 51.84 
L 644.999619 384.48 
z
" style="fill:#008000;opacity:0.04;"/>
   </g>
   <g id="patch_78">
    <path clip-path="url(#pd51d81d9e9)" d="M 649.256453 384.48 
L 649.256453 51.84 
L 653.513287 51.84 
L 653.513287 384.48 
z
" style="fill:#008000;opacity:0.04;"/>
   </g>
   <g id="patch_79">
    <path clip-path="url(#pd51d81d9e9)" d="M 657.770121 384.48 
L 657.770121 51.84 
L 662.026955 51.84 
L 662.026955 384.48 
z
" style="fill:#008000;opacity:0.04;"/>
   </g>
   <g id="patch_80">
    <path clip-path="url(#pd51d81d9e9)" d="M 666.283789 384.48 
L 666.283789 51.84 
L 670.540623 51.84 
L 670.540623 384.48 
z
" style="fill:#008000;opacity:0.04;"/>
   </g>
   <g id="patch_81">
    <path clip-path="url(#pd51d81d9e9)" d="M 674.797457 384.48 
L 674.797457 51.84 
L 679.054291 51.84 
L 679.054291 384.48 
z
" style="fill:#008000;opacity:0.04;"/>
   </g>
   <g id="patch_82">
    <path clip-path="url(#pd51d81d9e9)" d="M 683.311125 384.48 
L 683.311125 51.84 
L 687.567959 51.84 
L 687.567959 384.48 
z
" style="fill:#008000;opacity:0.04;"/>
   </g>
   <g id="patch_83">
    <path clip-path="url(#pd51d81d9e9)" d="M 691.824793 384.48 
L 691.824793 51.84 
L 696.081627 51.84 
L 696.081627 384.48 
z
" style="fill:#008000;opacity:0.04;"/>
   </g>
   <g id="patch_84">
    <path clip-path="url(#pd51d81d9e9)" d="M 700.338462 384.48 
L 700.338462 51.84 
L 704.595296 51.84 
L 704.595296 384.48 
z
" style="fill:#008000;opacity:0.04;"/>
   </g>
   <g id="patch_85">
    <path clip-path="url(#pd51d81d9e9)" d="M 708.85213 384.48 
L 708.85213 51.84 
L 713.108964 51.84 
L 713.108964 384.48 
z
" style="fill:#008000;opacity:0.04;"/>
   </g>
   <g id="patch_86">
    <path clip-path="url(#pd51d81d9e9)" d="M 717.365798 384.48 
L 717.365798 51.84 
L 721.622632 51.84 
L 721.622632 384.48 
z
" style="fill:#008000;opacity:0.04;"/>
   </g>
   <g id="patch_87">
    <path clip-path="url(#pd51d81d9e9)" d="M 725.879466 384.48 
L 725.879466 51.84 
L 730.1363 51.84 
L 730.1363 384.48 
z
" style="fill:#008000;opacity:0.04;"/>
   </g>
   <g id="patch_88">
    <path clip-path="url(#pd51d81d9e9)" d="M 734.393134 384.48 
L 734.393134 51.84 
L 738.649968 51.84 
L 738.649968 384.48 
z
" style="fill:#008000;opacity:0.04;"/>
   </g>
   <g id="patch_89">
    <path clip-path="url(#pd51d81d9e9)" d="M 742.906802 384.48 
L 742.906802 51.84 
L 747.163636 51.84 
L 747.163636 384.48 
z
" style="fill:#008000;opacity:0.04;"/>
   </g>
   <g id="matplotlib.axis_1">
    <g id="xtick_1">
     <g id="line2d_1">
      <defs>
       <path d="M 0 0 
L 0 3.5 
" id="me8db91de12" style="stroke:#000000;stroke-width:0.8;"/>
      </defs>
      <g>
       <use style="stroke:#000000;stroke-width:0.8;" x="138.436364" xlink:href="#me8db91de12" y="384.48"/>
      </g>
     </g>
     <g id="text_1">
      <!-- 0 -->
      <defs>
       <path d="M 31.78125 66.40625 
Q 24.171875 66.40625 20.328125 58.90625 
Q 16.5 51.421875 16.5 36.375 
Q 16.5 21.390625 20.328125 13.890625 
Q 24.171875 6.390625 31.78125 6.390625 
Q 39.453125 6.390625 43.28125 13.890625 
Q 47.125 21.390625 47.125 36.375 
Q 47.125 51.421875 43.28125 58.90625 
Q 39.453125 66.40625 31.78125 66.40625 
z
M 31.78125 74.21875 
Q 44.046875 74.21875 50.515625 64.515625 
Q 56.984375 54.828125 56.984375 36.375 
Q 56.984375 17.96875 50.515625 8.265625 
Q 44.046875 -1.421875 31.78125 -1.421875 
Q 19.53125 -1.421875 13.0625 8.265625 
Q 6.59375 17.96875 6.59375 36.375 
Q 6.59375 54.828125 13.0625 64.515625 
Q 19.53125 74.21875 31.78125 74.21875 
z
" id="DejaVuSans-48"/>
      </defs>
      <g transform="translate(135.255114 399.078438)scale(0.1 -0.1)">
       <use xlink:href="#DejaVuSans-48"/>
      </g>
     </g>
    </g>
    <g id="xtick_2">
     <g id="line2d_2">
      <g>
       <use style="stroke:#000000;stroke-width:0.8;" x="223.573045" xlink:href="#me8db91de12" y="384.48"/>
      </g>
     </g>
     <g id="text_2">
      <!-- 200 -->
      <defs>
       <path d="M 19.1875 8.296875 
L 53.609375 8.296875 
L 53.609375 0 
L 7.328125 0 
L 7.328125 8.296875 
Q 12.9375 14.109375 22.625 23.890625 
Q 32.328125 33.6875 34.8125 36.53125 
Q 39.546875 41.84375 41.421875 45.53125 
Q 43.3125 49.21875 43.3125 52.78125 
Q 43.3125 58.59375 39.234375 62.25 
Q 35.15625 65.921875 28.609375 65.921875 
Q 23.96875 65.921875 18.8125 64.3125 
Q 13.671875 62.703125 7.8125 59.421875 
L 7.8125 69.390625 
Q 13.765625 71.78125 18.9375 73 
Q 24.125 74.21875 28.421875 74.21875 
Q 39.75 74.21875 46.484375 68.546875 
Q 53.21875 62.890625 53.21875 53.421875 
Q 53.21875 48.921875 51.53125 44.890625 
Q 49.859375 40.875 45.40625 35.40625 
Q 44.1875 33.984375 37.640625 27.21875 
Q 31.109375 20.453125 19.1875 8.296875 
z
" id="DejaVuSans-50"/>
      </defs>
      <g transform="translate(214.029295 399.078438)scale(0.1 -0.1)">
       <use xlink:href="#DejaVuSans-50"/>
       <use x="63.623047" xlink:href="#DejaVuSans-48"/>
       <use x="127.246094" xlink:href="#DejaVuSans-48"/>
      </g>
     </g>
    </g>
    <g id="xtick_3">
     <g id="line2d_3">
      <g>
       <use style="stroke:#000000;stroke-width:0.8;" x="308.709727" xlink:href="#me8db91de12" y="384.48"/>
      </g>
     </g>
     <g id="text_3">
      <!-- 400 -->
      <defs>
       <path d="M 37.796875 64.3125 
L 12.890625 25.390625 
L 37.796875 25.390625 
z
M 35.203125 72.90625 
L 47.609375 72.90625 
L 47.609375 25.390625 
L 58.015625 25.390625 
L 58.015625 17.1875 
L 47.609375 17.1875 
L 47.609375 0 
L 37.796875 0 
L 37.796875 17.1875 
L 4.890625 17.1875 
L 4.890625 26.703125 
z
" id="DejaVuSans-52"/>
      </defs>
      <g transform="translate(299.165977 399.078438)scale(0.1 -0.1)">
       <use xlink:href="#DejaVuSans-52"/>
       <use x="63.623047" xlink:href="#DejaVuSans-48"/>
       <use x="127.246094" xlink:href="#DejaVuSans-48"/>
      </g>
     </g>
    </g>
    <g id="xtick_4">
     <g id="line2d_4">
      <g>
       <use style="stroke:#000000;stroke-width:0.8;" x="393.846408" xlink:href="#me8db91de12" y="384.48"/>
      </g>
     </g>
     <g id="text_4">
      <!-- 600 -->
      <defs>
       <path d="M 33.015625 40.375 
Q 26.375 40.375 22.484375 35.828125 
Q 18.609375 31.296875 18.609375 23.390625 
Q 18.609375 15.53125 22.484375 10.953125 
Q 26.375 6.390625 33.015625 6.390625 
Q 39.65625 6.390625 43.53125 10.953125 
Q 47.40625 15.53125 47.40625 23.390625 
Q 47.40625 31.296875 43.53125 35.828125 
Q 39.65625 40.375 33.015625 40.375 
z
M 52.59375 71.296875 
L 52.59375 62.3125 
Q 48.875 64.0625 45.09375 64.984375 
Q 41.3125 65.921875 37.59375 65.921875 
Q 27.828125 65.921875 22.671875 59.328125 
Q 17.53125 52.734375 16.796875 39.40625 
Q 19.671875 43.65625 24.015625 45.921875 
Q 28.375 48.1875 33.59375 48.1875 
Q 44.578125 48.1875 50.953125 41.515625 
Q 57.328125 34.859375 57.328125 23.390625 
Q 57.328125 12.15625 50.6875 5.359375 
Q 44.046875 -1.421875 33.015625 -1.421875 
Q 20.359375 -1.421875 13.671875 8.265625 
Q 6.984375 17.96875 6.984375 36.375 
Q 6.984375 53.65625 15.1875 63.9375 
Q 23.390625 74.21875 37.203125 74.21875 
Q 40.921875 74.21875 44.703125 73.484375 
Q 48.484375 72.75 52.59375 71.296875 
z
" id="DejaVuSans-54"/>
      </defs>
      <g transform="translate(384.302658 399.078438)scale(0.1 -0.1)">
       <use xlink:href="#DejaVuSans-54"/>
       <use x="63.623047" xlink:href="#DejaVuSans-48"/>
       <use x="127.246094" xlink:href="#DejaVuSans-48"/>
      </g>
     </g>
    </g>
    <g id="xtick_5">
     <g id="line2d_5">
      <g>
       <use style="stroke:#000000;stroke-width:0.8;" x="478.98309" xlink:href="#me8db91de12" y="384.48"/>
      </g>
     </g>
     <g id="text_5">
      <!-- 800 -->
      <defs>
       <path d="M 31.78125 34.625 
Q 24.75 34.625 20.71875 30.859375 
Q 16.703125 27.09375 16.703125 20.515625 
Q 16.703125 13.921875 20.71875 10.15625 
Q 24.75 6.390625 31.78125 6.390625 
Q 38.8125 6.390625 42.859375 10.171875 
Q 46.921875 13.96875 46.921875 20.515625 
Q 46.921875 27.09375 42.890625 30.859375 
Q 38.875 34.625 31.78125 34.625 
z
M 21.921875 38.8125 
Q 15.578125 40.375 12.03125 44.71875 
Q 8.5 49.078125 8.5 55.328125 
Q 8.5 64.0625 14.71875 69.140625 
Q 20.953125 74.21875 31.78125 74.21875 
Q 42.671875 74.21875 48.875 69.140625 
Q 55.078125 64.0625 55.078125 55.328125 
Q 55.078125 49.078125 51.53125 44.71875 
Q 48 40.375 41.703125 38.8125 
Q 48.828125 37.15625 52.796875 32.3125 
Q 56.78125 27.484375 56.78125 20.515625 
Q 56.78125 9.90625 50.3125 4.234375 
Q 43.84375 -1.421875 31.78125 -1.421875 
Q 19.734375 -1.421875 13.25 4.234375 
Q 6.78125 9.90625 6.78125 20.515625 
Q 6.78125 27.484375 10.78125 32.3125 
Q 14.796875 37.15625 21.921875 38.8125 
z
M 18.3125 54.390625 
Q 18.3125 48.734375 21.84375 45.5625 
Q 25.390625 42.390625 31.78125 42.390625 
Q 38.140625 42.390625 41.71875 45.5625 
Q 45.3125 48.734375 45.3125 54.390625 
Q 45.3125 60.0625 41.71875 63.234375 
Q 38.140625 66.40625 31.78125 66.40625 
Q 25.390625 66.40625 21.84375 63.234375 
Q 18.3125 60.0625 18.3125 54.390625 
z
" id="DejaVuSans-56"/>
      </defs>
      <g transform="translate(469.43934 399.078438)scale(0.1 -0.1)">
       <use xlink:href="#DejaVuSans-56"/>
       <use x="63.623047" xlink:href="#DejaVuSans-48"/>
       <use x="127.246094" xlink:href="#DejaVuSans-48"/>
      </g>
     </g>
    </g>
    <g id="xtick_6">
     <g id="line2d_6">
      <g>
       <use style="stroke:#000000;stroke-width:0.8;" x="564.119771" xlink:href="#me8db91de12" y="384.48"/>
      </g>
     </g>
     <g id="text_6">
      <!-- 1000 -->
      <defs>
       <path d="M 12.40625 8.296875 
L 28.515625 8.296875 
L 28.515625 63.921875 
L 10.984375 60.40625 
L 10.984375 69.390625 
L 28.421875 72.90625 
L 38.28125 72.90625 
L 38.28125 8.296875 
L 54.390625 8.296875 
L 54.390625 0 
L 12.40625 0 
z
" id="DejaVuSans-49"/>
      </defs>
      <g transform="translate(551.394771 399.078438)scale(0.1 -0.1)">
       <use xlink:href="#DejaVuSans-49"/>
       <use x="63.623047" xlink:href="#DejaVuSans-48"/>
       <use x="127.246094" xlink:href="#DejaVuSans-48"/>
       <use x="190.869141" xlink:href="#DejaVuSans-48"/>
      </g>
     </g>
    </g>
    <g id="xtick_7">
     <g id="line2d_7">
      <g>
       <use style="stroke:#000000;stroke-width:0.8;" x="649.256453" xlink:href="#me8db91de12" y="384.48"/>
      </g>
     </g>
     <g id="text_7">
      <!-- 1200 -->
      <g transform="translate(636.531453 399.078438)scale(0.1 -0.1)">
       <use xlink:href="#DejaVuSans-49"/>
       <use x="63.623047" xlink:href="#DejaVuSans-50"/>
       <use x="127.246094" xlink:href="#DejaVuSans-48"/>
       <use x="190.869141" xlink:href="#DejaVuSans-48"/>
      </g>
     </g>
    </g>
    <g id="xtick_8">
     <g id="line2d_8">
      <g>
       <use style="stroke:#000000;stroke-width:0.8;" x="734.393134" xlink:href="#me8db91de12" y="384.48"/>
      </g>
     </g>
     <g id="text_8">
      <!-- 1400 -->
      <g transform="translate(721.668134 399.078438)scale(0.1 -0.1)">
       <use xlink:href="#DejaVuSans-49"/>
       <use x="63.623047" xlink:href="#DejaVuSans-52"/>
       <use x="127.246094" xlink:href="#DejaVuSans-48"/>
       <use x="190.869141" xlink:href="#DejaVuSans-48"/>
      </g>
     </g>
    </g>
    <g id="text_9">
     <!-- Timestamp -->
     <defs>
      <path d="M -0.296875 72.90625 
L 61.375 72.90625 
L 61.375 64.59375 
L 35.5 64.59375 
L 35.5 0 
L 25.59375 0 
L 25.59375 64.59375 
L -0.296875 64.59375 
z
" id="DejaVuSans-84"/>
      <path d="M 9.421875 54.6875 
L 18.40625 54.6875 
L 18.40625 0 
L 9.421875 0 
z
M 9.421875 75.984375 
L 18.40625 75.984375 
L 18.40625 64.59375 
L 9.421875 64.59375 
z
" id="DejaVuSans-105"/>
      <path d="M 52 44.1875 
Q 55.375 50.25 60.0625 53.125 
Q 64.75 56 71.09375 56 
Q 79.640625 56 84.28125 50.015625 
Q 88.921875 44.046875 88.921875 33.015625 
L 88.921875 0 
L 79.890625 0 
L 79.890625 32.71875 
Q 79.890625 40.578125 77.09375 44.375 
Q 74.3125 48.1875 68.609375 48.1875 
Q 61.625 48.1875 57.5625 43.546875 
Q 53.515625 38.921875 53.515625 30.90625 
L 53.515625 0 
L 44.484375 0 
L 44.484375 32.71875 
Q 44.484375 40.625 41.703125 44.40625 
Q 38.921875 48.1875 33.109375 48.1875 
Q 26.21875 48.1875 22.15625 43.53125 
Q 18.109375 38.875 18.109375 30.90625 
L 18.109375 0 
L 9.078125 0 
L 9.078125 54.6875 
L 18.109375 54.6875 
L 18.109375 46.1875 
Q 21.1875 51.21875 25.484375 53.609375 
Q 29.78125 56 35.6875 56 
Q 41.65625 56 45.828125 52.96875 
Q 50 49.953125 52 44.1875 
z
" id="DejaVuSans-109"/>
      <path d="M 56.203125 29.59375 
L 56.203125 25.203125 
L 14.890625 25.203125 
Q 15.484375 15.921875 20.484375 11.0625 
Q 25.484375 6.203125 34.421875 6.203125 
Q 39.59375 6.203125 44.453125 7.46875 
Q 49.3125 8.734375 54.109375 11.28125 
L 54.109375 2.78125 
Q 49.265625 0.734375 44.1875 -0.34375 
Q 39.109375 -1.421875 33.890625 -1.421875 
Q 20.796875 -1.421875 13.15625 6.1875 
Q 5.515625 13.8125 5.515625 26.8125 
Q 5.515625 40.234375 12.765625 48.109375 
Q 20.015625 56 32.328125 56 
Q 43.359375 56 49.78125 48.890625 
Q 56.203125 41.796875 56.203125 29.59375 
z
M 47.21875 32.234375 
Q 47.125 39.59375 43.09375 43.984375 
Q 39.0625 48.390625 32.421875 48.390625 
Q 24.90625 48.390625 20.390625 44.140625 
Q 15.875 39.890625 15.1875 32.171875 
z
" id="DejaVuSans-101"/>
      <path d="M 44.28125 53.078125 
L 44.28125 44.578125 
Q 40.484375 46.53125 36.375 47.5 
Q 32.28125 48.484375 27.875 48.484375 
Q 21.1875 48.484375 17.84375 46.4375 
Q 14.5 44.390625 14.5 40.28125 
Q 14.5 37.15625 16.890625 35.375 
Q 19.28125 33.59375 26.515625 31.984375 
L 29.59375 31.296875 
Q 39.15625 29.25 43.1875 25.515625 
Q 47.21875 21.78125 47.21875 15.09375 
Q 47.21875 7.46875 41.1875 3.015625 
Q 35.15625 -1.421875 24.609375 -1.421875 
Q 20.21875 -1.421875 15.453125 -0.5625 
Q 10.6875 0.296875 5.421875 2 
L 5.421875 11.28125 
Q 10.40625 8.6875 15.234375 7.390625 
Q 20.0625 6.109375 24.8125 6.109375 
Q 31.15625 6.109375 34.5625 8.28125 
Q 37.984375 10.453125 37.984375 14.40625 
Q 37.984375 18.0625 35.515625 20.015625 
Q 33.0625 21.96875 24.703125 23.78125 
L 21.578125 24.515625 
Q 13.234375 26.265625 9.515625 29.90625 
Q 5.8125 33.546875 5.8125 39.890625 
Q 5.8125 47.609375 11.28125 51.796875 
Q 16.75 56 26.8125 56 
Q 31.78125 56 36.171875 55.265625 
Q 40.578125 54.546875 44.28125 53.078125 
z
" id="DejaVuSans-115"/>
      <path d="M 18.3125 70.21875 
L 18.3125 54.6875 
L 36.8125 54.6875 
L 36.8125 47.703125 
L 18.3125 47.703125 
L 18.3125 18.015625 
Q 18.3125 11.328125 20.140625 9.421875 
Q 21.96875 7.515625 27.59375 7.515625 
L 36.8125 7.515625 
L 36.8125 0 
L 27.59375 0 
Q 17.1875 0 13.234375 3.875 
Q 9.28125 7.765625 9.28125 18.015625 
L 9.28125 47.703125 
L 2.6875 47.703125 
L 2.6875 54.6875 
L 9.28125 54.6875 
L 9.28125 70.21875 
z
" id="DejaVuSans-116"/>
      <path d="M 34.28125 27.484375 
Q 23.390625 27.484375 19.1875 25 
Q 14.984375 22.515625 14.984375 16.5 
Q 14.984375 11.71875 18.140625 8.90625 
Q 21.296875 6.109375 26.703125 6.109375 
Q 34.1875 6.109375 38.703125 11.40625 
Q 43.21875 16.703125 43.21875 25.484375 
L 43.21875 27.484375 
z
M 52.203125 31.203125 
L 52.203125 0 
L 43.21875 0 
L 43.21875 8.296875 
Q 40.140625 3.328125 35.546875 0.953125 
Q 30.953125 -1.421875 24.3125 -1.421875 
Q 15.921875 -1.421875 10.953125 3.296875 
Q 6 8.015625 6 15.921875 
Q 6 25.140625 12.171875 29.828125 
Q 18.359375 34.515625 30.609375 34.515625 
L 43.21875 34.515625 
L 43.21875 35.40625 
Q 43.21875 41.609375 39.140625 45 
Q 35.0625 48.390625 27.6875 48.390625 
Q 23 48.390625 18.546875 47.265625 
Q 14.109375 46.140625 10.015625 43.890625 
L 10.015625 52.203125 
Q 14.9375 54.109375 19.578125 55.046875 
Q 24.21875 56 28.609375 56 
Q 40.484375 56 46.34375 49.84375 
Q 52.203125 43.703125 52.203125 31.203125 
z
" id="DejaVuSans-97"/>
      <path d="M 18.109375 8.203125 
L 18.109375 -20.796875 
L 9.078125 -20.796875 
L 9.078125 54.6875 
L 18.109375 54.6875 
L 18.109375 46.390625 
Q 20.953125 51.265625 25.265625 53.625 
Q 29.59375 56 35.59375 56 
Q 45.5625 56 51.78125 48.09375 
Q 58.015625 40.1875 58.015625 27.296875 
Q 58.015625 14.40625 51.78125 6.484375 
Q 45.5625 -1.421875 35.59375 -1.421875 
Q 29.59375 -1.421875 25.265625 0.953125 
Q 20.953125 3.328125 18.109375 8.203125 
z
M 48.6875 27.296875 
Q 48.6875 37.203125 44.609375 42.84375 
Q 40.53125 48.484375 33.40625 48.484375 
Q 26.265625 48.484375 22.1875 42.84375 
Q 18.109375 37.203125 18.109375 27.296875 
Q 18.109375 17.390625 22.1875 11.75 
Q 26.265625 6.109375 33.40625 6.109375 
Q 40.53125 6.109375 44.609375 11.75 
Q 48.6875 17.390625 48.6875 27.296875 
z
" id="DejaVuSans-112"/>
     </defs>
     <g transform="translate(414.739062 412.756563)scale(0.1 -0.1)">
      <use xlink:href="#DejaVuSans-84"/>
      <use x="61.037109" xlink:href="#DejaVuSans-105"/>
      <use x="88.820312" xlink:href="#DejaVuSans-109"/>
      <use x="186.232422" xlink:href="#DejaVuSans-101"/>
      <use x="247.755859" xlink:href="#DejaVuSans-115"/>
      <use x="299.855469" xlink:href="#DejaVuSans-116"/>
      <use x="339.064453" xlink:href="#DejaVuSans-97"/>
      <use x="400.34375" xlink:href="#DejaVuSans-109"/>
      <use x="497.755859" xlink:href="#DejaVuSans-112"/>
     </g>
    </g>
   </g>
   <g id="matplotlib.axis_2">
    <g id="ytick_1">
     <g id="line2d_9">
      <defs>
       <path d="M 0 0 
L -3.5 0 
" id="m1bc6abc8db" style="stroke:#000000;stroke-width:0.8;"/>
      </defs>
      <g>
       <use style="stroke:#000000;stroke-width:0.8;" x="108" xlink:href="#m1bc6abc8db" y="327.574461"/>
      </g>
     </g>
     <g id="text_10">
      <!-- 0 -->
      <g transform="translate(94.6375 331.37368)scale(0.1 -0.1)">
       <use xlink:href="#DejaVuSans-48"/>
      </g>
     </g>
    </g>
    <g id="ytick_2">
     <g id="line2d_10">
      <g>
       <use style="stroke:#000000;stroke-width:0.8;" x="108" xlink:href="#m1bc6abc8db" y="255.467401"/>
      </g>
     </g>
     <g id="text_11">
      <!-- 2000 -->
      <g transform="translate(75.55 259.26662)scale(0.1 -0.1)">
       <use xlink:href="#DejaVuSans-50"/>
       <use x="63.623047" xlink:href="#DejaVuSans-48"/>
       <use x="127.246094" xlink:href="#DejaVuSans-48"/>
       <use x="190.869141" xlink:href="#DejaVuSans-48"/>
      </g>
     </g>
    </g>
    <g id="ytick_3">
     <g id="line2d_11">
      <g>
       <use style="stroke:#000000;stroke-width:0.8;" x="108" xlink:href="#m1bc6abc8db" y="183.360341"/>
      </g>
     </g>
     <g id="text_12">
      <!-- 4000 -->
      <g transform="translate(75.55 187.15956)scale(0.1 -0.1)">
       <use xlink:href="#DejaVuSans-52"/>
       <use x="63.623047" xlink:href="#DejaVuSans-48"/>
       <use x="127.246094" xlink:href="#DejaVuSans-48"/>
       <use x="190.869141" xlink:href="#DejaVuSans-48"/>
      </g>
     </g>
    </g>
    <g id="ytick_4">
     <g id="line2d_12">
      <g>
       <use style="stroke:#000000;stroke-width:0.8;" x="108" xlink:href="#m1bc6abc8db" y="111.253281"/>
      </g>
     </g>
     <g id="text_13">
      <!-- 6000 -->
      <g transform="translate(75.55 115.052499)scale(0.1 -0.1)">
       <use xlink:href="#DejaVuSans-54"/>
       <use x="63.623047" xlink:href="#DejaVuSans-48"/>
       <use x="127.246094" xlink:href="#DejaVuSans-48"/>
       <use x="190.869141" xlink:href="#DejaVuSans-48"/>
      </g>
     </g>
    </g>
    <g id="text_14">
     <!-- Value -->
     <defs>
      <path d="M 28.609375 0 
L 0.78125 72.90625 
L 11.078125 72.90625 
L 34.1875 11.53125 
L 57.328125 72.90625 
L 67.578125 72.90625 
L 39.796875 0 
z
" id="DejaVuSans-86"/>
      <path d="M 9.421875 75.984375 
L 18.40625 75.984375 
L 18.40625 0 
L 9.421875 0 
z
" id="DejaVuSans-108"/>
      <path d="M 8.5 21.578125 
L 8.5 54.6875 
L 17.484375 54.6875 
L 17.484375 21.921875 
Q 17.484375 14.15625 20.5 10.265625 
Q 23.53125 6.390625 29.59375 6.390625 
Q 36.859375 6.390625 41.078125 11.03125 
Q 45.3125 15.671875 45.3125 23.6875 
L 45.3125 54.6875 
L 54.296875 54.6875 
L 54.296875 0 
L 45.3125 0 
L 45.3125 8.40625 
Q 42.046875 3.421875 37.71875 1 
Q 33.40625 -1.421875 27.6875 -1.421875 
Q 18.265625 -1.421875 13.375 4.4375 
Q 8.5 10.296875 8.5 21.578125 
z
M 31.109375 56 
z
" id="DejaVuSans-117"/>
     </defs>
     <g transform="translate(69.470312 232.273281)rotate(-90)scale(0.1 -0.1)">
      <use xlink:href="#DejaVuSans-86"/>
      <use x="68.298828" xlink:href="#DejaVuSans-97"/>
      <use x="129.578125" xlink:href="#DejaVuSans-108"/>
      <use x="157.361328" xlink:href="#DejaVuSans-117"/>
      <use x="220.740234" xlink:href="#DejaVuSans-101"/>
     </g>
    </g>
   </g>
   <g id="line2d_13">
    <path clip-path="url(#pd51d81d9e9)" d="M 138.436364 312.809572 
L 138.862047 329.713158 
L 139.28773 309.060159 
L 139.713414 308.238571 
L 140.139097 316.683196 
L 140.564781 337.825101 
L 141.416147 320.47101 
L 141.841831 315.664885 
L 142.267514 286.314129 
L 143.118881 320.507842 
L 143.544565 323.116285 
L 143.970248 311.768853 
L 144.395931 310.478389 
L 144.821615 310.387584 
L 145.247298 301.329437 
L 145.672982 313.208864 
L 146.098665 296.497804 
L 146.524348 314.532214 
L 146.950032 301.492551 
L 147.375715 293.234504 
L 147.801399 294.782985 
L 148.227082 285.762633 
L 148.652765 294.494524 
L 149.504132 278.859956 
L 149.929816 298.251982 
L 150.355499 303.975404 
L 150.781182 287.44486 
L 151.632549 292.097792 
L 152.058233 289.783033 
L 152.483916 291.26483 
L 152.909599 274.345008 
L 153.335283 268.459919 
L 153.760966 269.372629 
L 154.18665 284.918849 
L 154.612333 264.739417 
L 155.038017 281.456089 
L 155.4637 257.061851 
L 156.315067 281.106633 
L 157.166434 287.955261 
L 157.592117 286.129427 
L 158.0178 291.271002 
L 158.443484 259.197587 
L 158.869167 262.396039 
L 159.294851 274.133483 
L 159.720534 267.933889 
L 160.146217 274.9195 
L 160.571901 241.886138 
L 160.997584 278.960682 
L 161.423268 270.041862 
L 162.274634 261.658904 
L 162.700318 270.568474 
L 163.126001 294.100514 
L 163.551685 282.814746 
L 163.977368 263.90244 
L 164.403051 268.080842 
L 164.828735 278.773783 
L 165.254418 269.197886 
L 165.680102 277.294532 
L 166.105785 265.099604 
L 166.531469 284.47205 
L 166.957152 263.854773 
L 167.382835 265.360512 
L 167.808519 267.660005 
L 168.234202 268.408426 
L 168.659886 265.900545 
L 169.085569 276.672357 
L 169.511252 270.856411 
L 169.936936 262.140292 
L 170.362619 257.466797 
L 170.788303 268.959155 
L 171.213986 272.432449 
L 171.639669 282.103476 
L 172.065353 288.694887 
L 172.491036 281.822553 
L 172.91672 258.654479 
L 173.342403 264.832355 
L 173.768086 276.938514 
L 174.19377 279.972635 
L 174.619453 280.591489 
L 175.045137 264.918102 
L 175.47082 280.388824 
L 175.896503 263.428135 
L 176.322187 271.272917 
L 176.74787 264.537533 
L 177.173554 290.523155 
L 177.599237 281.185483 
L 178.024921 292.365374 
L 178.450604 276.180955 
L 179.301971 288.232077 
L 179.727654 269.08864 
L 180.153338 284.280297 
L 180.579021 276.407605 
L 181.004704 279.919665 
L 181.430388 299.002157 
L 181.856071 298.201256 
L 182.281755 291.60807 
L 182.707438 306.318259 
L 183.133121 287.663783 
L 183.558805 310.275093 
L 183.984488 277.767076 
L 184.410172 303.509802 
L 184.835855 279.438018 
L 185.261538 304.790263 
L 185.687222 312.43119 
L 186.112905 302.0545 
L 186.538589 303.205761 
L 186.964272 324.149299 
L 187.389955 293.693566 
L 187.815639 320.033869 
L 188.241322 304.382312 
L 188.667006 303.731296 
L 189.518373 313.214834 
L 189.944056 310.741494 
L 190.369739 326.584289 
L 190.795423 324.695171 
L 191.221106 329.468173 
L 191.64679 299.465272 
L 192.072473 301.584764 
L 192.92384 335.500058 
L 193.775207 306.012665 
L 194.20089 330.135085 
L 194.626573 316.505785 
L 195.052257 338.110379 
L 195.47794 319.944179 
L 195.903624 340.05449 
L 196.329307 344.301901 
L 196.75499 342.160076 
L 197.180674 342.173691 
L 197.606357 343.651011 
L 198.032041 325.518059 
L 198.457724 334.270184 
L 198.883408 339.755863 
L 199.309091 349.508382 
L 199.734774 349.594994 
L 200.160458 347.604211 
L 200.586141 352.534998 
L 201.011825 345.597071 
L 201.437508 335.760237 
L 201.863191 355.666013 
L 202.288875 325.746807 
L 202.714558 358.671546 
L 203.140242 345.316084 
L 203.565925 317.450799 
L 204.417292 349.063108 
L 204.842975 356.754611 
L 205.268659 340.553081 
L 205.694342 347.970513 
L 206.120025 352.662912 
L 206.545709 345.11347 
L 206.971392 354.885425 
L 207.397076 318.863004 
L 208.248442 341.319197 
L 208.674126 342.391866 
L 209.099809 357.200432 
L 209.525493 340.903585 
L 209.951176 355.392311 
L 210.37686 363.193013 
L 210.802543 329.866175 
L 211.228226 362.510852 
L 211.65391 355.22855 
L 212.505277 362.806854 
L 212.93096 344.872248 
L 213.356643 369.36 
L 213.782327 354.000272 
L 214.20801 358.111946 
L 214.633694 367.370107 
L 215.059377 351.876808 
L 215.48506 355.793401 
L 215.910744 357.370164 
L 216.336427 338.835751 
L 216.762111 343.667678 
L 217.187794 350.48013 
L 217.613477 347.191215 
L 218.039161 357.069723 
L 218.464844 350.366762 
L 218.890528 334.746633 
L 219.316211 347.127948 
L 219.741894 344.459868 
L 220.167578 322.264189 
L 220.593261 353.17298 
L 221.018945 333.208842 
L 221.444628 322.873712 
L 221.870312 355.146354 
L 222.295995 341.830347 
L 222.721678 345.719912 
L 223.147362 346.030461 
L 223.573045 351.564847 
L 223.998729 348.917769 
L 224.424412 322.909217 
L 224.850095 329.753441 
L 225.275779 326.647788 
L 225.701462 316.571762 
L 226.127146 337.768997 
L 226.552829 323.008751 
L 226.978512 332.054209 
L 227.404196 336.024042 
L 227.829879 318.34919 
L 228.255563 327.461248 
L 228.681246 339.027708 
L 229.106929 328.226054 
L 229.532613 306.918927 
L 229.958296 309.394744 
L 230.38398 338.548237 
L 230.809663 319.276842 
L 231.235346 309.248043 
L 231.66103 336.521655 
L 232.086713 300.069307 
L 232.512397 321.273811 
L 232.93808 310.397558 
L 233.363764 314.47265 
L 233.789447 292.579146 
L 234.21513 326.477903 
L 234.640814 309.644661 
L 235.066497 318.972398 
L 235.917864 277.825323 
L 236.343547 319.688224 
L 236.769231 301.40425 
L 237.194914 300.918585 
L 237.620598 279.892753 
L 238.046281 307.613329 
L 238.897648 273.63692 
L 239.323331 294.805079 
L 239.749015 298.469207 
L 240.600381 281.52587 
L 241.026065 297.576081 
L 241.451748 265.680902 
L 241.877432 282.830975 
L 242.303115 315.048699 
L 242.728798 292.783572 
L 243.154482 260.608063 
L 243.580165 288.380287 
L 244.005849 276.816519 
L 244.431532 273.725294 
L 244.857216 291.286537 
L 245.282899 265.726237 
L 245.708582 265.143077 
L 246.134266 246.9635 
L 246.985633 265.005746 
L 247.411316 265.583163 
L 247.836999 256.306917 
L 248.262683 272.302693 
L 248.688366 259.542745 
L 249.539733 251.914192 
L 249.965416 270.204153 
L 250.3911 238.966771 
L 250.816783 246.602502 
L 251.242467 224.573973 
L 251.66815 274.348169 
L 252.093833 258.210846 
L 252.519517 270.16303 
L 252.9452 254.155309 
L 253.370884 244.682865 
L 253.796567 227.584723 
L 254.22225 251.465072 
L 254.647934 259.278784 
L 255.499301 236.454864 
L 255.924984 240.700022 
L 256.350668 226.740641 
L 257.202034 259.555062 
L 257.627718 228.756511 
L 258.053401 251.971718 
L 258.479085 231.302892 
L 258.904768 231.88742 
L 259.330451 232.974906 
L 259.756135 216.754163 
L 260.181818 238.579348 
L 260.607502 250.925883 
L 261.033185 234.539328 
L 261.458868 237.550913 
L 262.310235 215.237829 
L 262.735919 254.781665 
L 263.161602 236.061982 
L 263.587285 232.540836 
L 264.012969 226.797416 
L 264.438652 241.063404 
L 264.864336 228.354073 
L 265.290019 228.370806 
L 265.715702 232.874441 
L 266.141386 234.153106 
L 266.567069 215.755198 
L 266.992753 224.982948 
L 267.418436 210.227824 
L 267.84412 236.105929 
L 268.269803 247.552808 
L 268.695486 237.920571 
L 269.12117 232.439769 
L 269.546853 236.585807 
L 269.972537 238.886758 
L 270.39822 252.701141 
L 270.823903 244.034927 
L 271.249587 247.88778 
L 271.67527 232.057992 
L 272.100954 232.092945 
L 272.526637 218.753427 
L 272.95232 240.905385 
L 273.378004 226.66637 
L 273.803687 243.769267 
L 274.229371 256.364907 
L 274.655054 234.443018 
L 275.080737 246.15233 
L 275.506421 250.493712 
L 275.932104 250.314929 
L 276.357788 229.698701 
L 276.783471 224.88537 
L 277.209154 232.226142 
L 278.060521 260.717578 
L 278.486205 243.857869 
L 278.911888 234.443783 
L 279.337572 238.556338 
L 279.763255 245.546767 
L 280.188938 247.574426 
L 280.614622 260.888597 
L 281.040305 246.986949 
L 281.465989 252.49336 
L 281.891672 253.385567 
L 282.317355 257.559039 
L 282.743039 269.688612 
L 283.168722 264.226267 
L 283.594406 249.593972 
L 284.020089 259.115632 
L 284.445772 260.515046 
L 284.871456 263.970382 
L 285.297139 246.744594 
L 285.722823 263.889072 
L 286.148506 262.376558 
L 286.574189 264.698629 
L 286.999873 278.744874 
L 287.425556 269.543687 
L 287.85124 255.062634 
L 288.276923 265.840185 
L 288.702606 289.135306 
L 289.12829 272.626072 
L 289.553973 268.232795 
L 289.979657 276.771333 
L 290.40534 268.036111 
L 291.256707 291.635528 
L 291.68239 272.208603 
L 292.108074 278.788058 
L 292.533757 276.707691 
L 292.959441 272.116201 
L 293.385124 283.036348 
L 293.810807 305.330651 
L 294.236491 286.210209 
L 294.662174 307.690759 
L 295.087858 296.004836 
L 295.513541 279.928233 
L 295.939224 311.972196 
L 296.364908 291.907974 
L 296.790591 301.247664 
L 297.216275 298.738715 
L 297.641958 284.988251 
L 298.067641 292.02447 
L 298.493325 283.319428 
L 298.919008 312.393691 
L 299.344692 310.300827 
L 299.770375 309.914884 
L 300.196058 303.595676 
L 300.621742 314.585405 
L 301.047425 313.3532 
L 301.473109 315.993358 
L 301.898792 298.546793 
L 302.324476 299.990488 
L 302.750159 296.511364 
L 303.175842 277.064228 
L 303.601526 310.676072 
L 304.027209 301.357693 
L 304.452893 272.150327 
L 304.878576 304.104354 
L 305.304259 312.001126 
L 305.729943 323.037137 
L 306.155626 318.659021 
L 306.58131 332.39662 
L 307.006993 331.539166 
L 307.432676 318.486016 
L 307.85836 310.52914 
L 308.284043 314.149349 
L 308.709727 319.491076 
L 309.13541 336.358725 
L 309.561093 307.969401 
L 309.986777 310.538887 
L 310.41246 297.374589 
L 310.838144 337.757778 
L 311.263827 319.752329 
L 311.68951 296.298444 
L 312.115194 315.295407 
L 312.540877 300.674813 
L 312.966561 310.06657 
L 313.392244 315.114249 
L 313.817928 306.059793 
L 314.243611 337.392259 
L 314.669294 320.359695 
L 315.520661 300.548788 
L 316.372028 313.329549 
L 316.797711 302.069277 
L 317.649078 327.350843 
L 318.074762 314.442418 
L 318.500445 315.602891 
L 318.926128 308.948763 
L 319.351812 317.127378 
L 319.777495 304.617669 
L 320.203179 287.738668 
L 320.628862 331.774874 
L 321.054545 303.576157 
L 321.480229 318.021308 
L 321.905912 316.226679 
L 322.331596 329.220934 
L 322.757279 310.427195 
L 323.182962 302.747161 
L 323.608646 322.299565 
L 324.034329 282.479094 
L 324.460013 312.808113 
L 324.885696 329.464126 
L 325.737063 273.934475 
L 326.162746 281.667595 
L 326.58843 284.320239 
L 327.014113 288.909393 
L 327.439797 291.609969 
L 328.716847 319.26086 
L 329.14253 305.98979 
L 329.568214 311.773347 
L 329.993897 301.345427 
L 330.41958 280.231392 
L 330.845264 297.631335 
L 331.270947 303.908679 
L 331.696631 296.04879 
L 332.122314 303.356884 
L 332.547997 272.829455 
L 332.973681 298.155056 
L 333.399364 281.086648 
L 334.676414 253.287661 
L 335.102098 294.154752 
L 335.527781 261.649931 
L 335.953465 277.347757 
L 336.379148 271.544913 
L 336.804832 251.243869 
L 337.230515 273.555303 
L 337.656198 257.194019 
L 338.081882 264.66169 
L 338.507565 267.76923 
L 338.933249 244.28685 
L 339.358932 261.724798 
L 339.784615 260.09685 
L 340.210299 248.089807 
L 340.635982 244.069699 
L 341.061666 263.861378 
L 341.487349 238.418265 
L 341.913032 257.56992 
L 342.338716 258.994003 
L 342.764399 274.266277 
L 343.190083 247.48394 
L 343.615766 240.674746 
L 344.041449 251.081703 
L 344.467133 227.078353 
L 345.3185 237.448621 
L 345.744183 216.27648 
L 346.169866 253.190433 
L 346.59555 231.115443 
L 347.021233 223.26674 
L 347.446917 243.221827 
L 347.8726 233.339526 
L 348.298284 229.694618 
L 348.723967 232.897334 
L 349.14965 225.658187 
L 349.575334 226.991753 
L 350.001017 233.57914 
L 350.426701 213.92326 
L 350.852384 228.208416 
L 351.278067 227.607521 
L 352.129434 198.452977 
L 352.555118 237.349217 
L 352.980801 213.593355 
L 353.406484 210.231043 
L 353.832168 213.462553 
L 354.257851 183.168547 
L 354.683535 197.276095 
L 355.109218 217.065681 
L 355.534901 217.198438 
L 355.960585 198.499029 
L 356.386268 196.561198 
L 356.811952 199.066177 
L 357.237635 213.592994 
L 357.663318 199.591232 
L 358.089002 205.98604 
L 358.514685 182.986675 
L 358.940369 213.62201 
L 359.366052 202.715136 
L 359.791736 214.354214 
L 360.217419 213.290555 
L 360.643102 201.341055 
L 361.494469 206.196547 
L 361.920153 182.056755 
L 362.345836 198.583164 
L 362.771519 183.973173 
L 363.197203 210.264787 
L 363.622886 201.461013 
L 364.04857 214.61126 
L 364.474253 181.46795 
L 364.899936 209.31707 
L 365.32562 180.749416 
L 365.751303 209.169512 
L 366.176987 198.714469 
L 366.60267 230.8535 
L 367.028353 200.42953 
L 367.454037 197.430729 
L 367.87972 219.875385 
L 368.305404 201.095461 
L 368.731087 201.910217 
L 369.156771 219.357066 
L 369.582454 187.870736 
L 370.008137 212.544165 
L 370.859504 192.553286 
L 371.285188 205.502791 
L 371.710871 191.178211 
L 372.136554 198.704014 
L 372.562238 183.40864 
L 372.987921 208.769822 
L 373.413605 215.032095 
L 373.839288 197.977515 
L 374.264971 204.945156 
L 374.690655 206.697938 
L 375.116338 198.15271 
L 375.542022 198.937145 
L 375.967705 205.008752 
L 376.393388 198.584533 
L 376.819072 197.931451 
L 377.244755 197.773874 
L 377.670439 197.02847 
L 378.096122 194.040553 
L 378.521805 211.429188 
L 378.947489 215.800502 
L 379.373172 225.79125 
L 379.798856 215.241451 
L 380.224539 224.142794 
L 380.650223 209.602749 
L 381.075906 217.629642 
L 381.927273 228.626415 
L 382.352956 217.63644 
L 383.204323 235.002786 
L 383.630006 237.82145 
L 384.05569 209.841468 
L 384.481373 231.522759 
L 384.907057 233.616163 
L 385.33274 229.294066 
L 385.758423 233.707427 
L 386.60979 232.963129 
L 387.035474 237.484516 
L 387.461157 244.333476 
L 387.88684 224.57534 
L 388.312524 235.284998 
L 388.738207 251.918357 
L 389.163891 227.066388 
L 389.589574 257.720529 
L 390.015257 243.420525 
L 390.440941 243.295718 
L 390.866624 252.01902 
L 391.292308 239.019363 
L 391.717991 260.958596 
L 392.143675 227.137792 
L 392.569358 241.649297 
L 392.995041 227.404051 
L 393.420725 240.790985 
L 393.846408 268.942267 
L 394.272092 243.068546 
L 394.697775 246.516005 
L 395.123458 240.968873 
L 395.549142 241.531466 
L 395.974825 249.782774 
L 396.400509 248.879564 
L 396.826192 263.995822 
L 397.251875 240.018693 
L 397.677559 279.827765 
L 398.103242 282.221649 
L 398.528926 276.433642 
L 398.954609 251.966565 
L 399.380292 276.30633 
L 399.805976 268.90424 
L 400.231659 264.453955 
L 400.657343 271.943622 
L 401.083026 291.381337 
L 401.508709 254.630071 
L 401.934393 269.897517 
L 402.360076 263.711755 
L 403.211443 277.597326 
L 403.637127 97.29038 
L 404.488493 97.29038 
L 404.914177 287.761161 
L 405.33986 259.963978 
L 405.765544 286.13778 
L 406.191227 276.0768 
L 406.61691 293.354006 
L 407.042594 269.405578 
L 407.468277 271.000444 
L 407.893961 281.483874 
L 408.319644 260.816475 
L 408.745327 285.127533 
L 409.171011 282.976225 
L 409.596694 267.200736 
L 410.022378 274.95567 
L 410.448061 270.687074 
L 410.873744 263.826404 
L 411.299428 278.187259 
L 411.725111 273.673815 
L 412.150795 288.755032 
L 412.576478 276.070728 
L 413.002161 285.100201 
L 413.427845 266.794759 
L 413.853528 282.118726 
L 414.279212 281.189287 
L 414.704895 281.513556 
L 415.130579 304.917538 
L 415.556262 292.724513 
L 415.981945 258.334133 
L 416.407629 272.677674 
L 416.833312 280.152018 
L 417.258996 282.167023 
L 417.684679 281.896213 
L 418.110362 274.590488 
L 418.536046 97.685048 
L 419.387413 97.685048 
L 419.813096 292.461364 
L 420.664463 270.954568 
L 421.090146 292.997185 
L 421.51583 263.82897 
L 421.941513 261.331264 
L 422.367196 274.399628 
L 422.79288 270.449805 
L 423.218563 257.27291 
L 423.644247 278.772929 
L 424.06993 282.04605 
L 424.495613 283.688718 
L 424.921297 280.763092 
L 425.34698 276.803368 
L 425.772664 263.329715 
L 426.198347 277.588768 
L 426.624031 268.852059 
L 427.049714 262.869186 
L 427.475397 278.524104 
L 427.901081 246.114077 
L 428.326764 246.30377 
L 428.752448 281.205946 
L 429.178131 264.77191 
L 429.603814 262.318616 
L 430.029498 254.849536 
L 430.455181 269.166668 
L 430.880865 258.709259 
L 431.306548 244.03574 
L 431.732231 240.351951 
L 432.157915 247.874522 
L 432.583598 245.316738 
L 433.009282 255.375619 
L 433.434965 251.667945 
L 433.860648 231.7315 
L 434.286332 243.04719 
L 434.712015 250.307936 
L 435.137699 222.091735 
L 435.563382 246.359458 
L 435.989065 225.087413 
L 436.414749 230.001259 
L 436.840432 230.891879 
L 437.266116 237.423252 
L 437.691799 222.106621 
L 438.117483 249.897987 
L 439.394533 224.654427 
L 439.820216 223.793895 
L 440.2459 226.814338 
L 440.671583 225.392356 
L 441.097266 215.077441 
L 441.52295 226.691613 
L 441.948633 242.887398 
L 442.374317 216.010492 
L 442.8 204.589167 
L 443.225683 201.757626 
L 443.651367 215.009526 
L 444.07705 210.877446 
L 444.502734 191.219679 
L 444.928417 214.719317 
L 445.779784 198.791985 
L 446.205467 210.458861 
L 446.631151 206.958153 
L 447.056834 193.633395 
L 447.482517 207.193782 
L 447.908201 192.183648 
L 448.333884 209.977149 
L 448.759568 218.139914 
L 449.185251 186.29807 
L 449.610935 193.712942 
L 450.036618 195.933177 
L 450.462301 195.681207 
L 450.887985 176.922867 
L 451.313668 199.75371 
L 451.739352 174.890633 
L 452.165035 196.853291 
L 452.590718 185.276956 
L 453.016402 185.043676 
L 453.442085 174.820958 
L 453.867769 200.947205 
L 454.293452 182.308713 
L 454.719135 179.925033 
L 455.570502 163.375271 
L 455.996186 186.794837 
L 456.421869 170.737863 
L 456.847552 168.460943 
L 457.273236 159.096893 
L 457.698919 173.005151 
L 458.124603 157.919444 
L 458.550286 169.434969 
L 458.975969 173.131563 
L 459.401653 163.098189 
L 459.827336 165.091497 
L 460.25302 163.295856 
L 460.678703 155.526803 
L 461.104387 169.908193 
L 461.955753 167.944292 
L 462.381437 152.721121 
L 462.80712 142.142761 
L 463.232804 153.167459 
L 463.658487 151.962293 
L 464.08417 143.19436 
L 464.509854 170.002944 
L 464.935537 180.159709 
L 465.361221 175.786569 
L 465.786904 159.819633 
L 466.212587 162.357088 
L 466.638271 193.958096 
L 467.063954 148.743093 
L 467.489638 164.973871 
L 467.915321 163.09182 
L 468.341004 157.771303 
L 468.766688 177.706583 
L 469.192371 170.84173 
L 469.618055 150.843205 
L 470.043738 140.157659 
L 470.469421 155.246458 
L 470.895105 154.908138 
L 471.320788 183.504554 
L 471.746472 151.868273 
L 472.172155 151.400189 
L 472.597839 168.885457 
L 473.023522 163.017712 
L 473.449205 154.951543 
L 473.874889 141.207526 
L 474.300572 179.47384 
L 474.726256 155.256188 
L 475.151939 151.803334 
L 475.577622 157.754407 
L 476.428989 171.385512 
L 476.854673 168.407422 
L 477.280356 160.977393 
L 477.706039 184.24667 
L 478.131723 186.683728 
L 478.557406 181.563863 
L 478.98309 190.628477 
L 479.408773 194.309547 
L 479.834456 159.893395 
L 480.26014 187.387632 
L 480.685823 183.493311 
L 481.111507 191.719315 
L 481.53719 173.605195 
L 481.962873 174.401735 
L 482.388557 167.752164 
L 482.81424 187.861207 
L 483.239924 169.178328 
L 483.665607 182.999789 
L 484.091291 200.68651 
L 484.516974 173.394871 
L 484.942657 170.293878 
L 485.368341 179.628152 
L 486.219708 206.714331 
L 486.645391 191.85501 
L 487.071074 209.008729 
L 487.496758 215.583084 
L 487.922441 187.604013 
L 488.348125 200.382056 
L 488.773808 202.713366 
L 489.199491 206.722651 
L 489.625175 185.236265 
L 490.050858 219.992852 
L 490.902225 197.478303 
L 491.327908 201.862353 
L 491.753592 213.537025 
L 492.179275 208.320144 
L 492.604959 211.018412 
L 493.030642 190.493173 
L 493.456325 209.964445 
L 493.882009 219.903676 
L 494.307692 199.760028 
L 494.733376 229.37799 
L 495.159059 209.577532 
L 495.584743 202.702794 
L 496.010426 231.571651 
L 496.436109 215.450791 
L 496.861793 209.308841 
L 497.287476 208.478991 
L 498.138843 201.367649 
L 498.564526 222.303627 
L 498.99021 235.463667 
L 499.415893 235.440087 
L 499.841577 219.640149 
L 500.26726 246.873837 
L 500.692943 223.846968 
L 501.118627 243.948307 
L 501.54431 242.214791 
L 501.969994 228.453724 
L 502.395677 240.115492 
L 502.82136 243.737127 
L 503.247044 242.664925 
L 503.672727 219.400184 
L 504.098411 252.449811 
L 504.524094 236.07568 
L 504.949777 243.47004 
L 505.375461 204.49537 
L 505.801144 241.27575 
L 506.226828 219.041354 
L 506.652511 230.721481 
L 507.078195 259.436888 
L 507.503878 235.903175 
L 507.929561 234.341218 
L 508.355245 242.603631 
L 508.780928 265.953951 
L 509.206612 217.815625 
L 509.632295 246.378043 
L 510.057978 260.793411 
L 510.483662 230.46717 
L 510.909345 248.078996 
L 511.335029 242.64884 
L 512.186395 266.6574 
L 512.612079 248.038582 
L 513.037762 237.542548 
L 513.463446 246.529899 
L 513.889129 246.07777 
L 514.740496 241.805919 
L 515.166179 249.404083 
L 515.591863 249.808841 
L 516.017546 254.676955 
L 516.443229 262.031163 
L 516.868913 262.539558 
L 517.294596 254.735152 
L 517.72028 253.972822 
L 518.145963 249.614302 
L 518.571647 85.695202 
L 519.423013 85.695202 
L 519.848697 239.272132 
L 520.27438 240.088037 
L 520.700064 242.893839 
L 521.125747 252.696096 
L 521.55143 248.357287 
L 521.977114 245.199033 
L 522.402797 239.252745 
L 522.828481 240.004078 
L 523.254164 217.995953 
L 523.679847 242.106123 
L 524.105531 246.07165 
L 524.531214 255.577674 
L 524.956898 247.367542 
L 525.382581 204.881806 
L 525.808264 230.526775 
L 526.233948 222.601837 
L 526.659631 229.767767 
L 527.085315 229.139068 
L 527.510998 232.11596 
L 528.362365 211.397774 
L 528.788048 216.600523 
L 529.213732 228.495309 
L 529.639415 223.565713 
L 530.065099 240.411967 
L 530.490782 209.285253 
L 530.916465 200.269838 
L 531.342149 237.527068 
L 531.767832 219.00593 
L 532.193516 227.720113 
L 532.619199 230.109732 
L 533.044882 202.581188 
L 533.470566 200.128551 
L 533.896249 188.802691 
L 534.321933 205.155464 
L 534.747616 230.672121 
L 535.173299 202.53463 
L 535.598983 214.831462 
L 536.45035 201.174127 
L 536.876033 201.730067 
L 537.301716 191.913495 
L 537.7274 207.240105 
L 538.153083 206.038596 
L 539.00445 185.105406 
L 539.430134 198.326739 
L 539.855817 200.048939 
L 540.2815 202.513775 
L 540.707184 198.026543 
L 541.132867 191.130805 
L 541.558551 199.852767 
L 541.984234 176.872878 
L 542.409917 207.186334 
L 542.835601 183.685234 
L 543.261284 197.141412 
L 543.686968 164.867174 
L 544.112651 183.385334 
L 544.538334 162.94217 
L 544.964018 179.399945 
L 545.389701 175.5536 
L 545.815385 183.46073 
L 546.241068 205.887745 
L 546.666751 149.74096 
L 547.092435 183.712851 
L 547.518118 136.29467 
L 547.943802 160.8274 
L 548.369485 169.768791 
L 548.795168 153.778346 
L 549.220852 150.33306 
L 549.646535 161.837135 
L 550.072219 156.316868 
L 550.497902 135.271501 
L 550.923586 171.600847 
L 551.349269 154.654306 
L 551.774952 143.666285 
L 552.200636 168.014271 
L 552.626319 171.179176 
L 553.052003 133.626724 
L 553.477686 156.816456 
L 553.903369 159.054351 
L 554.329053 146.376646 
L 554.754736 151.309567 
L 555.18042 150.324076 
L 555.606103 159.277828 
L 556.031786 152.370055 
L 556.45747 131.09707 
L 556.883153 134.200007 
L 557.308837 146.464794 
L 557.73452 110.26054 
L 558.160203 120.239574 
L 558.585887 145.124293 
L 559.01157 136.928121 
L 559.437254 172.50836 
L 559.862937 123.265289 
L 560.28862 127.189251 
L 560.714304 138.776325 
L 561.565671 130.82474 
L 561.991354 119.502489 
L 562.417038 141.991823 
L 562.842721 117.948555 
L 563.268404 121.103464 
L 563.694088 137.578249 
L 564.119771 132.386428 
L 564.545455 107.421585 
L 564.971138 130.241006 
L 565.396821 144.244267 
L 565.822505 144.976884 
L 566.248188 128.537025 
L 566.673872 124.803338 
L 567.099555 124.549194 
L 567.525238 130.418361 
L 567.950922 150.166099 
L 568.802289 116.581131 
L 569.227972 154.205083 
L 569.653655 120.337911 
L 570.079339 144.614374 
L 570.505022 130.257667 
L 570.930706 144.156208 
L 571.356389 118.642861 
L 571.782072 135.259826 
L 572.207756 123.810261 
L 572.633439 138.2812 
L 573.484806 147.2444 
L 573.91049 143.577232 
L 574.336173 134.763311 
L 574.761856 115.111161 
L 575.18754 125.072264 
L 575.613223 139.60486 
L 576.038907 130.020639 
L 576.46459 144.988176 
L 576.890273 141.166001 
L 577.315957 132.887382 
L 577.74164 104.345265 
L 578.167324 133.475624 
L 578.593007 135.720644 
L 579.01869 164.304008 
L 579.444374 124.848893 
L 579.870057 124.836023 
L 580.295741 158.919724 
L 580.721424 141.037682 
L 581.147107 151.592747 
L 581.572791 141.445331 
L 581.998474 149.558162 
L 582.424158 132.852879 
L 582.849841 143.177733 
L 583.275524 145.705957 
L 583.701208 143.224573 
L 584.126891 169.781482 
L 584.552575 163.388168 
L 584.978258 135.043887 
L 585.403942 149.733809 
L 585.829625 148.32103 
L 586.255308 170.406363 
L 586.680992 130.117962 
L 587.106675 162.631514 
L 587.532359 151.892232 
L 587.958042 161.702952 
L 588.383725 149.148057 
L 588.809409 171.540924 
L 589.235092 150.784369 
L 589.660776 151.738928 
L 590.086459 173.681218 
L 590.512142 184.904064 
L 590.937826 162.263116 
L 591.363509 195.268245 
L 591.789193 160.8318 
L 592.640559 162.541377 
L 593.066243 176.814927 
L 593.491926 152.934161 
L 593.91761 176.938319 
L 594.343293 187.645227 
L 594.768976 182.076305 
L 595.19466 193.362292 
L 595.620343 194.688909 
L 596.046027 178.679021 
L 596.47171 181.645278 
L 596.897394 189.549028 
L 597.323077 186.963023 
L 597.74876 187.335791 
L 598.174444 190.176337 
L 598.600127 167.235317 
L 599.025811 195.640001 
L 599.451494 181.847178 
L 599.877177 194.795017 
L 600.302861 204.160176 
L 600.728544 203.742258 
L 601.154228 192.036142 
L 601.579911 201.429102 
L 602.005594 193.919788 
L 602.431278 192.72569 
L 602.856961 189.054053 
L 603.282645 210.298424 
L 603.708328 183.509429 
L 604.134011 222.278499 
L 604.559695 223.179773 
L 604.985378 188.546732 
L 605.411062 188.0753 
L 605.836745 216.559125 
L 606.262428 198.111182 
L 606.688112 219.940742 
L 607.113795 186.733688 
L 607.539479 205.058509 
L 608.390846 210.884576 
L 608.816529 221.859998 
L 609.242212 198.154935 
L 609.667896 208.396875 
L 610.093579 203.104858 
L 610.519263 218.611371 
L 610.944946 214.532702 
L 611.370629 207.140031 
L 611.796313 230.473382 
L 612.221996 221.458099 
L 612.64768 217.935132 
L 613.073363 204.335788 
L 613.499046 222.038468 
L 613.92473 223.795938 
L 614.350413 206.453306 
L 614.776097 220.135385 
L 615.20178 199.63426 
L 615.627463 230.928742 
L 616.053147 215.657695 
L 616.47883 220.484231 
L 616.904514 217.07402 
L 617.330197 202.565512 
L 617.75588 202.518406 
L 618.607247 231.869058 
L 619.032931 218.759848 
L 619.458614 194.06662 
L 619.884298 209.366981 
L 620.309981 218.931676 
L 621.587031 185.907719 
L 622.438398 217.630077 
L 622.864081 179.202128 
L 623.289765 203.8895 
L 623.715448 187.784032 
L 624.141132 188.452478 
L 624.566815 226.36001 
L 624.992498 183.009584 
L 625.418182 202.465302 
L 625.843865 210.053735 
L 626.269549 198.624196 
L 626.695232 197.650003 
L 627.120915 197.367289 
L 627.546599 198.421115 
L 627.972282 178.333443 
L 628.397966 182.770698 
L 628.823649 189.773268 
L 629.249332 199.342527 
L 629.675016 177.115224 
L 630.100699 182.416031 
L 630.526383 194.097052 
L 630.952066 193.776213 
L 631.37775 189.72595 
L 631.803433 187.485931 
L 632.6548 172.933284 
L 633.080483 179.36091 
L 633.506167 200.11195 
L 633.93185 175.201908 
L 634.357533 165.205552 
L 634.783217 191.821737 
L 635.2089 197.198223 
L 635.634584 164.790274 
L 636.060267 177.041512 
L 636.48595 165.232251 
L 636.911634 172.526723 
L 637.337317 148.201695 
L 638.188684 157.888259 
L 639.465734 147.957229 
L 639.891418 170.343617 
L 640.317101 139.708892 
L 640.742784 173.057802 
L 641.168468 180.050492 
L 641.594151 155.839643 
L 642.019835 144.873928 
L 642.445518 146.065928 
L 642.871202 142.418435 
L 643.296885 146.488925 
L 643.722568 153.181046 
L 644.148252 143.060851 
L 644.573935 122.343618 
L 644.999619 144.974718 
L 645.425302 134.582587 
L 645.850985 133.161841 
L 646.276669 123.247796 
L 646.702352 148.634293 
L 647.553719 129.801055 
L 647.979402 136.608723 
L 648.405086 128.237292 
L 648.830769 131.897592 
L 649.682136 145.027951 
L 650.107819 115.420995 
L 650.533503 122.363219 
L 650.959186 113.51326 
L 651.38487 147.728696 
L 651.810553 107.460505 
L 652.66192 122.572206 
L 653.087603 109.885085 
L 653.513287 111.694903 
L 653.93897 106.468035 
L 654.364654 106.516369 
L 654.790337 109.620679 
L 655.21602 108.801258 
L 655.641704 116.417104 
L 656.067387 103.090461 
L 656.493071 113.552692 
L 656.918754 91.206701 
L 657.344437 104.215826 
L 657.770121 87.81538 
L 658.195804 107.696935 
L 658.621488 105.139985 
L 659.047171 92.203917 
L 659.472854 88.040395 
L 659.898538 113.528673 
L 660.324221 89.950119 
L 660.749905 86.25679 
L 661.175588 103.400647 
L 661.601271 89.508904 
L 662.026955 104.596149 
L 662.452638 102.633196 
L 662.878322 98.010571 
L 663.304005 103.537191 
L 663.729688 77.923356 
L 664.155372 95.076915 
L 664.581055 99.091387 
L 665.006739 112.775583 
L 665.432422 92.726818 
L 665.858106 102.203603 
L 666.283789 97.754105 
L 666.709472 96.862286 
L 667.135156 111.9901 
L 667.560839 87.088833 
L 667.986523 89.923772 
L 668.412206 87.54345 
L 669.263573 113.818775 
L 669.689256 69.74536 
L 670.11494 75.995363 
L 670.540623 97.728912 
L 670.966306 109.268924 
L 671.39199 94.886438 
L 671.817673 93.456597 
L 672.243357 117.218171 
L 672.66904 96.756682 
L 673.094723 92.835441 
L 673.520407 74.547892 
L 673.94609 107.292334 
L 674.371774 66.96 
L 675.22314 96.481416 
L 675.648824 100.580525 
L 676.500191 82.616834 
L 676.925874 81.291639 
L 677.777241 108.262607 
L 678.202924 87.113049 
L 678.628608 88.462217 
L 679.054291 108.169172 
L 679.479975 114.298429 
L 679.905658 104.346219 
L 680.331341 99.583837 
L 680.757025 107.145766 
L 681.182708 117.427697 
L 681.608392 116.038046 
L 682.034075 97.628969 
L 682.459758 100.120518 
L 682.885442 105.09612 
L 683.311125 117.562085 
L 683.736809 112.771915 
L 684.162492 124.97302 
L 684.588175 102.573111 
L 685.013859 134.723185 
L 685.439542 117.886516 
L 685.865226 118.908455 
L 686.290909 124.596849 
L 686.716592 89.767632 
L 687.142276 93.764882 
L 687.567959 126.480518 
L 687.993643 116.492372 
L 688.419326 118.969629 
L 688.84501 118.754352 
L 689.270693 119.414534 
L 689.696376 134.032826 
L 690.12206 152.50412 
L 690.547743 133.79709 
L 690.973427 122.032884 
L 691.39911 137.705386 
L 691.824793 128.410456 
L 692.250477 142.443792 
L 692.67616 132.018878 
L 693.101844 130.215378 
L 693.527527 136.112177 
L 693.95321 150.15675 
L 694.378894 125.794957 
L 695.230261 156.522492 
L 695.655944 150.791136 
L 696.081627 142.928455 
L 696.932994 167.56411 
L 697.784361 149.869068 
L 698.210045 148.899253 
L 698.635728 133.777044 
L 699.061411 159.848981 
L 699.487095 163.402935 
L 699.912778 162.191412 
L 700.338462 143.86988 
L 700.764145 166.307142 
L 701.189828 158.791596 
L 701.615512 134.131578 
L 702.041195 174.037607 
L 702.892562 166.369597 
L 703.318245 180.633061 
L 703.743929 160.608162 
L 704.169612 187.825641 
L 704.595296 169.166258 
L 705.020979 175.558657 
L 705.446662 174.514388 
L 705.872346 153.918891 
L 706.298029 159.642622 
L 706.723713 147.980857 
L 708.000763 177.69753 
L 708.426446 168.362635 
L 708.85213 168.212036 
L 709.277813 175.391256 
L 709.703497 189.756712 
L 710.12918 164.576948 
L 710.554863 182.949854 
L 710.980547 188.480032 
L 711.40623 173.782151 
L 711.831914 179.358381 
L 712.257597 163.853553 
L 712.68328 180.011646 
L 713.108964 162.437251 
L 713.534647 172.232813 
L 713.960331 173.44271 
L 714.386014 178.526577 
L 714.811697 162.21033 
L 715.237381 181.373845 
L 715.663064 183.798351 
L 716.088748 173.71642 
L 716.514431 173.781621 
L 716.940114 152.912473 
L 717.365798 176.604796 
L 717.791481 166.508094 
L 718.217165 176.146031 
L 718.642848 157.668301 
L 719.068531 168.624558 
L 719.494215 167.393672 
L 719.919898 171.282498 
L 720.345582 184.827408 
L 720.771265 180.908719 
L 721.196949 166.984682 
L 721.622632 184.955992 
L 722.048315 158.262782 
L 722.473999 186.928368 
L 722.899682 185.125714 
L 723.325366 184.068181 
L 724.176732 156.881253 
L 724.602416 186.936382 
L 725.028099 172.82707 
L 725.453783 166.52717 
L 725.879466 184.941273 
L 726.305149 168.764546 
L 726.730833 167.21631 
L 727.156516 152.029016 
L 727.5822 155.420355 
L 728.007883 177.363401 
L 728.433566 174.435978 
L 728.85925 168.913909 
L 729.284933 183.696225 
L 729.710617 171.721828 
L 730.1363 147.81131 
L 730.561983 160.735876 
L 730.987667 146.17032 
L 731.41335 144.523147 
L 731.839034 161.357388 
L 732.264717 156.716607 
L 732.690401 128.125001 
L 733.116084 152.963433 
L 733.541767 145.139635 
L 733.967451 133.145374 
L 734.393134 146.531076 
L 734.818818 142.082556 
L 735.244501 156.820199 
L 735.670184 117.916342 
L 736.095868 148.684112 
L 736.521551 152.016722 
L 736.947235 143.575808 
L 737.372918 115.270592 
L 737.798601 154.71075 
L 738.224285 135.165225 
L 738.649968 145.582609 
L 739.075652 141.780624 
L 739.501335 128.089024 
L 739.927018 121.428839 
L 740.352702 106.144912 
L 740.778385 128.570759 
L 741.204069 117.466565 
L 741.629752 153.066763 
L 742.055435 117.89228 
L 742.481119 98.987851 
L 742.906802 110.703953 
L 742.906802 110.703953 
" style="fill:none;stroke:#1f77b4;stroke-linecap:square;stroke-width:1.5;"/>
   </g>
   <g id="line2d_14">
    <path clip-path="url(#pd51d81d9e9)" d="M 747.163636 384.48 
L 747.163636 51.84 
" style="fill:none;stroke:#808080;stroke-linecap:square;"/>
   </g>
   <g id="patch_90">
    <path d="M 108 384.48 
L 108 51.84 
" style="fill:none;stroke:#000000;stroke-linecap:square;stroke-linejoin:miter;stroke-width:0.8;"/>
   </g>
   <g id="patch_91">
    <path d="M 777.6 384.48 
L 777.6 51.84 
" style="fill:none;stroke:#000000;stroke-linecap:square;stroke-linejoin:miter;stroke-width:0.8;"/>
   </g>
   <g id="patch_92">
    <path d="M 108 384.48 
L 777.6 384.48 
" style="fill:none;stroke:#000000;stroke-linecap:square;stroke-linejoin:miter;stroke-width:0.8;"/>
   </g>
   <g id="patch_93">
    <path d="M 108 51.84 
L 777.6 51.84 
" style="fill:none;stroke:#000000;stroke-linecap:square;stroke-linejoin:miter;stroke-width:0.8;"/>
   </g>
   <g id="text_15">
    <!-- synthetic_92.csv -->
    <defs>
     <path d="M 32.171875 -5.078125 
Q 28.375 -14.84375 24.75 -17.8125 
Q 21.140625 -20.796875 15.09375 -20.796875 
L 7.90625 -20.796875 
L 7.90625 -13.28125 
L 13.1875 -13.28125 
Q 16.890625 -13.28125 18.9375 -11.515625 
Q 21 -9.765625 23.484375 -3.21875 
L 25.09375 0.875 
L 2.984375 54.6875 
L 12.5 54.6875 
L 29.59375 11.921875 
L 46.6875 54.6875 
L 56.203125 54.6875 
z
" id="DejaVuSans-121"/>
     <path d="M 54.890625 33.015625 
L 54.890625 0 
L 45.90625 0 
L 45.90625 32.71875 
Q 45.90625 40.484375 42.875 44.328125 
Q 39.84375 48.1875 33.796875 48.1875 
Q 26.515625 48.1875 22.3125 43.546875 
Q 18.109375 38.921875 18.109375 30.90625 
L 18.109375 0 
L 9.078125 0 
L 9.078125 54.6875 
L 18.109375 54.6875 
L 18.109375 46.1875 
Q 21.34375 51.125 25.703125 53.5625 
Q 30.078125 56 35.796875 56 
Q 45.21875 56 50.046875 50.171875 
Q 54.890625 44.34375 54.890625 33.015625 
z
" id="DejaVuSans-110"/>
     <path d="M 54.890625 33.015625 
L 54.890625 0 
L 45.90625 0 
L 45.90625 32.71875 
Q 45.90625 40.484375 42.875 44.328125 
Q 39.84375 48.1875 33.796875 48.1875 
Q 26.515625 48.1875 22.3125 43.546875 
Q 18.109375 38.921875 18.109375 30.90625 
L 18.109375 0 
L 9.078125 0 
L 9.078125 75.984375 
L 18.109375 75.984375 
L 18.109375 46.1875 
Q 21.34375 51.125 25.703125 53.5625 
Q 30.078125 56 35.796875 56 
Q 45.21875 56 50.046875 50.171875 
Q 54.890625 44.34375 54.890625 33.015625 
z
" id="DejaVuSans-104"/>
     <path d="M 48.78125 52.59375 
L 48.78125 44.1875 
Q 44.96875 46.296875 41.140625 47.34375 
Q 37.3125 48.390625 33.40625 48.390625 
Q 24.65625 48.390625 19.8125 42.84375 
Q 14.984375 37.3125 14.984375 27.296875 
Q 14.984375 17.28125 19.8125 11.734375 
Q 24.65625 6.203125 33.40625 6.203125 
Q 37.3125 6.203125 41.140625 7.25 
Q 44.96875 8.296875 48.78125 10.40625 
L 48.78125 2.09375 
Q 45.015625 0.34375 40.984375 -0.53125 
Q 36.96875 -1.421875 32.421875 -1.421875 
Q 20.0625 -1.421875 12.78125 6.34375 
Q 5.515625 14.109375 5.515625 27.296875 
Q 5.515625 40.671875 12.859375 48.328125 
Q 20.21875 56 33.015625 56 
Q 37.15625 56 41.109375 55.140625 
Q 45.0625 54.296875 48.78125 52.59375 
z
" id="DejaVuSans-99"/>
     <path d="M 50.984375 -16.609375 
L 50.984375 -23.578125 
L -0.984375 -23.578125 
L -0.984375 -16.609375 
z
" id="DejaVuSans-95"/>
     <path d="M 10.984375 1.515625 
L 10.984375 10.5 
Q 14.703125 8.734375 18.5 7.8125 
Q 22.3125 6.890625 25.984375 6.890625 
Q 35.75 6.890625 40.890625 13.453125 
Q 46.046875 20.015625 46.78125 33.40625 
Q 43.953125 29.203125 39.59375 26.953125 
Q 35.25 24.703125 29.984375 24.703125 
Q 19.046875 24.703125 12.671875 31.3125 
Q 6.296875 37.9375 6.296875 49.421875 
Q 6.296875 60.640625 12.9375 67.421875 
Q 19.578125 74.21875 30.609375 74.21875 
Q 43.265625 74.21875 49.921875 64.515625 
Q 56.59375 54.828125 56.59375 36.375 
Q 56.59375 19.140625 48.40625 8.859375 
Q 40.234375 -1.421875 26.421875 -1.421875 
Q 22.703125 -1.421875 18.890625 -0.6875 
Q 15.09375 0.046875 10.984375 1.515625 
z
M 30.609375 32.421875 
Q 37.25 32.421875 41.125 36.953125 
Q 45.015625 41.5 45.015625 49.421875 
Q 45.015625 57.28125 41.125 61.84375 
Q 37.25 66.40625 30.609375 66.40625 
Q 23.96875 66.40625 20.09375 61.84375 
Q 16.21875 57.28125 16.21875 49.421875 
Q 16.21875 41.5 20.09375 36.953125 
Q 23.96875 32.421875 30.609375 32.421875 
z
" id="DejaVuSans-57"/>
     <path d="M 10.6875 12.40625 
L 21 12.40625 
L 21 0 
L 10.6875 0 
z
" id="DejaVuSans-46"/>
     <path d="M 2.984375 54.6875 
L 12.5 54.6875 
L 29.59375 8.796875 
L 46.6875 54.6875 
L 56.203125 54.6875 
L 35.6875 0 
L 23.484375 0 
z
" id="DejaVuSans-118"/>
    </defs>
    <g transform="translate(392.638125 45.84)scale(0.12 -0.12)">
     <use xlink:href="#DejaVuSans-115"/>
     <use x="52.099609" xlink:href="#DejaVuSans-121"/>
     <use x="111.279297" xlink:href="#DejaVuSans-110"/>
     <use x="174.658203" xlink:href="#DejaVuSans-116"/>
     <use x="213.867188" xlink:href="#DejaVuSans-104"/>
     <use x="277.246094" xlink:href="#DejaVuSans-101"/>
     <use x="338.769531" xlink:href="#DejaVuSans-116"/>
     <use x="377.978516" xlink:href="#DejaVuSans-105"/>
     <use x="405.761719" xlink:href="#DejaVuSans-99"/>
     <use x="460.742188" xlink:href="#DejaVuSans-95"/>
     <use x="510.742188" xlink:href="#DejaVuSans-57"/>
     <use x="574.365234" xlink:href="#DejaVuSans-50"/>
     <use x="637.988281" xlink:href="#DejaVuSans-46"/>
     <use x="669.775391" xlink:href="#DejaVuSans-99"/>
     <use x="724.755859" xlink:href="#DejaVuSans-115"/>
     <use x="776.855469" xlink:href="#DejaVuSans-118"/>
    </g>
   </g>
   <g id="legend_1">
    <g id="patch_94">
     <path d="M 115 74.518125 
L 174.315625 74.518125 
Q 176.315625 74.518125 176.315625 72.518125 
L 176.315625 58.84 
Q 176.315625 56.84 174.315625 56.84 
L 115 56.84 
Q 113 56.84 113 58.84 
L 113 72.518125 
Q 113 74.518125 115 74.518125 
z
" style="fill:#ffffff;opacity:0.8;stroke:#cccccc;stroke-linejoin:miter;"/>
    </g>
    <g id="line2d_15">
     <path d="M 117 64.938438 
L 137 64.938438 
" style="fill:none;stroke:#1f77b4;stroke-linecap:square;stroke-width:1.5;"/>
    </g>
    <g id="line2d_16"/>
    <g id="text_16">
     <!-- value -->
     <g transform="translate(145 68.438438)scale(0.1 -0.1)">
      <use xlink:href="#DejaVuSans-118"/>
      <use x="59.179688" xlink:href="#DejaVuSans-97"/>
      <use x="120.458984" xlink:href="#DejaVuSans-108"/>
      <use x="148.242188" xlink:href="#DejaVuSans-117"/>
      <use x="211.621094" xlink:href="#DejaVuSans-101"/>
     </g>
    </g>
   </g>
  </g>
 </g>
 <defs>
  <clipPath id="pd51d81d9e9">
   <rect height="332.64" width="669.6" x="108" y="51.84"/>
  </clipPath>
 </defs>
</svg>
