<?xml version="1.0" encoding="utf-8" standalone="no"?>
<!DOCTYPE svg PUBLIC "-//W3C//DTD SVG 1.1//EN"
  "http://www.w3.org/Graphics/SVG/1.1/DTD/svg11.dtd">
<!-- Created with matplotlib (https://matplotlib.org/) -->
<svg height="432pt" version="1.1" viewBox="0 0 864 432" width="864pt" xmlns="http://www.w3.org/2000/svg" xmlns:xlink="http://www.w3.org/1999/xlink">
 <defs>
  <style type="text/css">
*{stroke-linecap:butt;stroke-linejoin:round;}
  </style>
 </defs>
 <g id="figure_1">
  <g id="patch_1">
   <path d="M 0 432 
L 864 432 
L 864 0 
L 0 0 
z
" style="fill:#ffffff;"/>
  </g>
  <g id="axes_1">
   <g id="patch_2">
    <path d="M 108 384.48 
L 777.6 384.48 
L 777.6 51.84 
L 108 51.84 
z
" style="fill:#ffffff;"/>
   </g>
   <g id="patch_3">
    <path clip-path="url(#p58b8a2bfbf)" d="M 138.436364 384.48 
L 138.436364 51.84 
L 440.671583 51.84 
L 440.671583 384.48 
z
" style="fill:#0000ff;opacity:0.05;"/>
   </g>
   <g id="patch_4">
    <path clip-path="url(#p58b8a2bfbf)" d="M 440.671583 384.48 
L 440.671583 51.84 
L 747.163636 51.84 
L 747.163636 384.48 
z
" style="fill:#ff0000;opacity:0.08;"/>
   </g>
   <g id="patch_5">
    <path clip-path="url(#p58b8a2bfbf)" d="M 138.436364 384.48 
L 138.436364 51.84 
L 142.693198 51.84 
L 142.693198 384.48 
z
" style="fill:#008000;opacity:0.04;"/>
   </g>
   <g id="patch_6">
    <path clip-path="url(#p58b8a2bfbf)" d="M 146.950032 384.48 
L 146.950032 51.84 
L 151.206866 51.84 
L 151.206866 384.48 
z
" style="fill:#008000;opacity:0.04;"/>
   </g>
   <g id="patch_7">
    <path clip-path="url(#p58b8a2bfbf)" d="M 155.4637 384.48 
L 155.4637 51.84 
L 159.720534 51.84 
L 159.720534 384.48 
z
" style="fill:#008000;opacity:0.04;"/>
   </g>
   <g id="patch_8">
    <path clip-path="url(#p58b8a2bfbf)" d="M 155.4637 384.48 
L 155.4637 371.1744 
L 159.720534 371.1744 
L 159.720534 384.48 
z
" style="fill:#ffe500;"/>
   </g>
   <g id="patch_9">
    <path clip-path="url(#p58b8a2bfbf)" d="M 163.977368 384.48 
L 163.977368 51.84 
L 168.234202 51.84 
L 168.234202 384.48 
z
" style="fill:#008000;opacity:0.04;"/>
   </g>
   <g id="patch_10">
    <path clip-path="url(#p58b8a2bfbf)" d="M 168.234202 384.48 
L 168.234202 371.1744 
L 172.491036 371.1744 
L 172.491036 384.48 
z
" style="fill:#ffe500;"/>
   </g>
   <g id="patch_11">
    <path clip-path="url(#p58b8a2bfbf)" d="M 172.491036 384.48 
L 172.491036 51.84 
L 176.74787 51.84 
L 176.74787 384.48 
z
" style="fill:#008000;opacity:0.04;"/>
   </g>
   <g id="patch_12">
    <path clip-path="url(#p58b8a2bfbf)" d="M 181.004704 384.48 
L 181.004704 51.84 
L 185.261538 51.84 
L 185.261538 384.48 
z
" style="fill:#008000;opacity:0.04;"/>
   </g>
   <g id="patch_13">
    <path clip-path="url(#p58b8a2bfbf)" d="M 189.518373 384.48 
L 189.518373 51.84 
L 193.775207 51.84 
L 193.775207 384.48 
z
" style="fill:#008000;opacity:0.04;"/>
   </g>
   <g id="patch_14">
    <path clip-path="url(#p58b8a2bfbf)" d="M 496.010426 384.48 
L 496.010426 371.1744 
L 500.26726 371.1744 
L 500.26726 384.48 
z
" style="fill:#ff6600;"/>
   </g>
   <g id="patch_15">
    <path clip-path="url(#p58b8a2bfbf)" d="M 198.032041 384.48 
L 198.032041 51.84 
L 202.288875 51.84 
L 202.288875 384.48 
z
" style="fill:#008000;opacity:0.04;"/>
   </g>
   <g id="patch_16">
    <path clip-path="url(#p58b8a2bfbf)" d="M 206.545709 384.48 
L 206.545709 51.84 
L 210.802543 51.84 
L 210.802543 384.48 
z
" style="fill:#008000;opacity:0.04;"/>
   </g>
   <g id="patch_17">
    <path clip-path="url(#p58b8a2bfbf)" d="M 215.059377 384.48 
L 215.059377 51.84 
L 219.316211 51.84 
L 219.316211 384.48 
z
" style="fill:#008000;opacity:0.04;"/>
   </g>
   <g id="patch_18">
    <path clip-path="url(#p58b8a2bfbf)" d="M 223.573045 384.48 
L 223.573045 51.84 
L 227.829879 51.84 
L 227.829879 384.48 
z
" style="fill:#008000;opacity:0.04;"/>
   </g>
   <g id="patch_19">
    <path clip-path="url(#p58b8a2bfbf)" d="M 223.573045 384.48 
L 223.573045 371.1744 
L 227.829879 371.1744 
L 227.829879 384.48 
z
" style="fill:#ffe500;"/>
   </g>
   <g id="patch_20">
    <path clip-path="url(#p58b8a2bfbf)" d="M 232.086713 384.48 
L 232.086713 51.84 
L 236.343547 51.84 
L 236.343547 384.48 
z
" style="fill:#008000;opacity:0.04;"/>
   </g>
   <g id="patch_21">
    <path clip-path="url(#p58b8a2bfbf)" d="M 240.600381 384.48 
L 240.600381 51.84 
L 244.857216 51.84 
L 244.857216 384.48 
z
" style="fill:#008000;opacity:0.04;"/>
   </g>
   <g id="patch_22">
    <path clip-path="url(#p58b8a2bfbf)" d="M 249.11405 384.48 
L 249.11405 51.84 
L 253.370884 51.84 
L 253.370884 384.48 
z
" style="fill:#008000;opacity:0.04;"/>
   </g>
   <g id="patch_23">
    <path clip-path="url(#p58b8a2bfbf)" d="M 253.370884 384.48 
L 253.370884 371.1744 
L 257.627718 371.1744 
L 257.627718 384.48 
z
" style="fill:#ffe500;"/>
   </g>
   <g id="patch_24">
    <path clip-path="url(#p58b8a2bfbf)" d="M 257.627718 384.48 
L 257.627718 51.84 
L 261.884552 51.84 
L 261.884552 384.48 
z
" style="fill:#008000;opacity:0.04;"/>
   </g>
   <g id="patch_25">
    <path clip-path="url(#p58b8a2bfbf)" d="M 266.141386 384.48 
L 266.141386 51.84 
L 270.39822 51.84 
L 270.39822 384.48 
z
" style="fill:#008000;opacity:0.04;"/>
   </g>
   <g id="patch_26">
    <path clip-path="url(#p58b8a2bfbf)" d="M 274.655054 384.48 
L 274.655054 51.84 
L 278.911888 51.84 
L 278.911888 384.48 
z
" style="fill:#008000;opacity:0.04;"/>
   </g>
   <g id="patch_27">
    <path clip-path="url(#p58b8a2bfbf)" d="M 283.168722 384.48 
L 283.168722 51.84 
L 287.425556 51.84 
L 287.425556 384.48 
z
" style="fill:#008000;opacity:0.04;"/>
   </g>
   <g id="patch_28">
    <path clip-path="url(#p58b8a2bfbf)" d="M 291.68239 384.48 
L 291.68239 51.84 
L 295.939224 51.84 
L 295.939224 384.48 
z
" style="fill:#008000;opacity:0.04;"/>
   </g>
   <g id="patch_29">
    <path clip-path="url(#p58b8a2bfbf)" d="M 300.196058 384.48 
L 300.196058 51.84 
L 304.452893 51.84 
L 304.452893 384.48 
z
" style="fill:#008000;opacity:0.04;"/>
   </g>
   <g id="patch_30">
    <path clip-path="url(#p58b8a2bfbf)" d="M 308.709727 384.48 
L 308.709727 51.84 
L 312.966561 51.84 
L 312.966561 384.48 
z
" style="fill:#008000;opacity:0.04;"/>
   </g>
   <g id="patch_31">
    <path clip-path="url(#p58b8a2bfbf)" d="M 317.223395 384.48 
L 317.223395 51.84 
L 321.480229 51.84 
L 321.480229 384.48 
z
" style="fill:#008000;opacity:0.04;"/>
   </g>
   <g id="patch_32">
    <path clip-path="url(#p58b8a2bfbf)" d="M 325.737063 384.48 
L 325.737063 51.84 
L 329.993897 51.84 
L 329.993897 384.48 
z
" style="fill:#008000;opacity:0.04;"/>
   </g>
   <g id="patch_33">
    <path clip-path="url(#p58b8a2bfbf)" d="M 334.250731 384.48 
L 334.250731 51.84 
L 338.507565 51.84 
L 338.507565 384.48 
z
" style="fill:#008000;opacity:0.04;"/>
   </g>
   <g id="patch_34">
    <path clip-path="url(#p58b8a2bfbf)" d="M 342.764399 384.48 
L 342.764399 51.84 
L 347.021233 51.84 
L 347.021233 384.48 
z
" style="fill:#008000;opacity:0.04;"/>
   </g>
   <g id="patch_35">
    <path clip-path="url(#p58b8a2bfbf)" d="M 347.021233 384.48 
L 347.021233 371.1744 
L 351.278067 371.1744 
L 351.278067 384.48 
z
" style="fill:#ffe500;"/>
   </g>
   <g id="patch_36">
    <path clip-path="url(#p58b8a2bfbf)" d="M 351.278067 384.48 
L 351.278067 51.84 
L 355.534901 51.84 
L 355.534901 384.48 
z
" style="fill:#008000;opacity:0.04;"/>
   </g>
   <g id="patch_37">
    <path clip-path="url(#p58b8a2bfbf)" d="M 359.791736 384.48 
L 359.791736 51.84 
L 364.04857 51.84 
L 364.04857 384.48 
z
" style="fill:#008000;opacity:0.04;"/>
   </g>
   <g id="patch_38">
    <path clip-path="url(#p58b8a2bfbf)" d="M 368.305404 384.48 
L 368.305404 51.84 
L 372.562238 51.84 
L 372.562238 384.48 
z
" style="fill:#008000;opacity:0.04;"/>
   </g>
   <g id="patch_39">
    <path clip-path="url(#p58b8a2bfbf)" d="M 376.819072 384.48 
L 376.819072 51.84 
L 381.075906 51.84 
L 381.075906 384.48 
z
" style="fill:#008000;opacity:0.04;"/>
   </g>
   <g id="patch_40">
    <path clip-path="url(#p58b8a2bfbf)" d="M 385.33274 384.48 
L 385.33274 51.84 
L 389.589574 51.84 
L 389.589574 384.48 
z
" style="fill:#008000;opacity:0.04;"/>
   </g>
   <g id="patch_41">
    <path clip-path="url(#p58b8a2bfbf)" d="M 393.846408 384.48 
L 393.846408 51.84 
L 398.103242 51.84 
L 398.103242 384.48 
z
" style="fill:#008000;opacity:0.04;"/>
   </g>
   <g id="patch_42">
    <path clip-path="url(#p58b8a2bfbf)" d="M 398.103242 384.48 
L 398.103242 371.1744 
L 402.360076 371.1744 
L 402.360076 384.48 
z
" style="fill:#ffe500;"/>
   </g>
   <g id="patch_43">
    <path clip-path="url(#p58b8a2bfbf)" d="M 402.360076 384.48 
L 402.360076 51.84 
L 406.61691 51.84 
L 406.61691 384.48 
z
" style="fill:#008000;opacity:0.04;"/>
   </g>
   <g id="patch_44">
    <path clip-path="url(#p58b8a2bfbf)" d="M 410.873744 384.48 
L 410.873744 51.84 
L 415.130579 51.84 
L 415.130579 384.48 
z
" style="fill:#008000;opacity:0.04;"/>
   </g>
   <g id="patch_45">
    <path clip-path="url(#p58b8a2bfbf)" d="M 415.130579 384.48 
L 415.130579 371.1744 
L 419.387413 371.1744 
L 419.387413 384.48 
z
" style="fill:#ffe500;"/>
   </g>
   <g id="patch_46">
    <path clip-path="url(#p58b8a2bfbf)" d="M 419.387413 384.48 
L 419.387413 51.84 
L 423.644247 51.84 
L 423.644247 384.48 
z
" style="fill:#008000;opacity:0.04;"/>
   </g>
   <g id="patch_47">
    <path clip-path="url(#p58b8a2bfbf)" d="M 427.901081 384.48 
L 427.901081 51.84 
L 432.157915 51.84 
L 432.157915 384.48 
z
" style="fill:#008000;opacity:0.04;"/>
   </g>
   <g id="patch_48">
    <path clip-path="url(#p58b8a2bfbf)" d="M 436.414749 384.48 
L 436.414749 51.84 
L 440.671583 51.84 
L 440.671583 384.48 
z
" style="fill:#008000;opacity:0.04;"/>
   </g>
   <g id="patch_49">
    <path clip-path="url(#p58b8a2bfbf)" d="M 742.906802 384.48 
L 742.906802 371.1744 
L 747.163636 371.1744 
L 747.163636 384.48 
z
" style="fill:#ff6600;"/>
   </g>
   <g id="patch_50">
    <path clip-path="url(#p58b8a2bfbf)" d="M 444.928417 384.48 
L 444.928417 51.84 
L 449.185251 51.84 
L 449.185251 384.48 
z
" style="fill:#008000;opacity:0.04;"/>
   </g>
   <g id="patch_51">
    <path clip-path="url(#p58b8a2bfbf)" d="M 453.442085 384.48 
L 453.442085 51.84 
L 457.698919 51.84 
L 457.698919 384.48 
z
" style="fill:#008000;opacity:0.04;"/>
   </g>
   <g id="patch_52">
    <path clip-path="url(#p58b8a2bfbf)" d="M 461.955753 384.48 
L 461.955753 51.84 
L 466.212587 51.84 
L 466.212587 384.48 
z
" style="fill:#008000;opacity:0.04;"/>
   </g>
   <g id="patch_53">
    <path clip-path="url(#p58b8a2bfbf)" d="M 470.469421 384.48 
L 470.469421 51.84 
L 474.726256 51.84 
L 474.726256 384.48 
z
" style="fill:#008000;opacity:0.04;"/>
   </g>
   <g id="patch_54">
    <path clip-path="url(#p58b8a2bfbf)" d="M 478.98309 384.48 
L 478.98309 51.84 
L 483.239924 51.84 
L 483.239924 384.48 
z
" style="fill:#008000;opacity:0.04;"/>
   </g>
   <g id="patch_55">
    <path clip-path="url(#p58b8a2bfbf)" d="M 487.496758 384.48 
L 487.496758 51.84 
L 491.753592 51.84 
L 491.753592 384.48 
z
" style="fill:#008000;opacity:0.04;"/>
   </g>
   <g id="patch_56">
    <path clip-path="url(#p58b8a2bfbf)" d="M 496.010426 384.48 
L 496.010426 51.84 
L 500.26726 51.84 
L 500.26726 384.48 
z
" style="fill:#008000;opacity:0.04;"/>
   </g>
   <g id="patch_57">
    <path clip-path="url(#p58b8a2bfbf)" d="M 504.524094 384.48 
L 504.524094 51.84 
L 508.780928 51.84 
L 508.780928 384.48 
z
" style="fill:#008000;opacity:0.04;"/>
   </g>
   <g id="patch_58">
    <path clip-path="url(#p58b8a2bfbf)" d="M 513.037762 384.48 
L 513.037762 51.84 
L 517.294596 51.84 
L 517.294596 384.48 
z
" style="fill:#008000;opacity:0.04;"/>
   </g>
   <g id="patch_59">
    <path clip-path="url(#p58b8a2bfbf)" d="M 517.294596 371.1744 
L 517.294596 51.84 
L 521.55143 51.84 
L 521.55143 371.1744 
z
" style="fill:#008000;opacity:0.5;"/>
   </g>
   <g id="patch_60">
    <path clip-path="url(#p58b8a2bfbf)" d="M 521.55143 384.48 
L 521.55143 51.84 
L 525.808264 51.84 
L 525.808264 384.48 
z
" style="fill:#008000;opacity:0.04;"/>
   </g>
   <g id="patch_61">
    <path clip-path="url(#p58b8a2bfbf)" d="M 530.065099 384.48 
L 530.065099 51.84 
L 534.321933 51.84 
L 534.321933 384.48 
z
" style="fill:#008000;opacity:0.04;"/>
   </g>
   <g id="patch_62">
    <path clip-path="url(#p58b8a2bfbf)" d="M 538.578767 384.48 
L 538.578767 51.84 
L 542.835601 51.84 
L 542.835601 384.48 
z
" style="fill:#008000;opacity:0.04;"/>
   </g>
   <g id="patch_63">
    <path clip-path="url(#p58b8a2bfbf)" d="M 547.092435 384.48 
L 547.092435 51.84 
L 551.349269 51.84 
L 551.349269 384.48 
z
" style="fill:#008000;opacity:0.04;"/>
   </g>
   <g id="patch_64">
    <path clip-path="url(#p58b8a2bfbf)" d="M 555.606103 384.48 
L 555.606103 51.84 
L 559.862937 51.84 
L 559.862937 384.48 
z
" style="fill:#008000;opacity:0.04;"/>
   </g>
   <g id="patch_65">
    <path clip-path="url(#p58b8a2bfbf)" d="M 564.119771 384.48 
L 564.119771 51.84 
L 568.376605 51.84 
L 568.376605 384.48 
z
" style="fill:#008000;opacity:0.04;"/>
   </g>
   <g id="patch_66">
    <path clip-path="url(#p58b8a2bfbf)" d="M 572.633439 384.48 
L 572.633439 51.84 
L 576.890273 51.84 
L 576.890273 384.48 
z
" style="fill:#008000;opacity:0.04;"/>
   </g>
   <g id="patch_67">
    <path clip-path="url(#p58b8a2bfbf)" d="M 581.147107 384.48 
L 581.147107 51.84 
L 585.403942 51.84 
L 585.403942 384.48 
z
" style="fill:#008000;opacity:0.04;"/>
   </g>
   <g id="patch_68">
    <path clip-path="url(#p58b8a2bfbf)" d="M 589.660776 384.48 
L 589.660776 51.84 
L 593.91761 51.84 
L 593.91761 384.48 
z
" style="fill:#008000;opacity:0.04;"/>
   </g>
   <g id="patch_69">
    <path clip-path="url(#p58b8a2bfbf)" d="M 598.174444 384.48 
L 598.174444 51.84 
L 602.431278 51.84 
L 602.431278 384.48 
z
" style="fill:#008000;opacity:0.04;"/>
   </g>
   <g id="patch_70">
    <path clip-path="url(#p58b8a2bfbf)" d="M 606.688112 384.48 
L 606.688112 51.84 
L 610.944946 51.84 
L 610.944946 384.48 
z
" style="fill:#008000;opacity:0.04;"/>
   </g>
   <g id="patch_71">
    <path clip-path="url(#p58b8a2bfbf)" d="M 615.20178 384.48 
L 615.20178 51.84 
L 619.458614 51.84 
L 619.458614 384.48 
z
" style="fill:#008000;opacity:0.04;"/>
   </g>
   <g id="patch_72">
    <path clip-path="url(#p58b8a2bfbf)" d="M 623.715448 384.48 
L 623.715448 51.84 
L 627.972282 51.84 
L 627.972282 384.48 
z
" style="fill:#008000;opacity:0.04;"/>
   </g>
   <g id="patch_73">
    <path clip-path="url(#p58b8a2bfbf)" d="M 632.229116 384.48 
L 632.229116 51.84 
L 636.48595 51.84 
L 636.48595 384.48 
z
" style="fill:#008000;opacity:0.04;"/>
   </g>
   <g id="patch_74">
    <path clip-path="url(#p58b8a2bfbf)" d="M 640.742784 384.48 
L 640.742784 51.84 
L 644.999619 51.84 
L 644.999619 384.48 
z
" style="fill:#008000;opacity:0.04;"/>
   </g>
   <g id="patch_75">
    <path clip-path="url(#p58b8a2bfbf)" d="M 649.256453 384.48 
L 649.256453 51.84 
L 653.513287 51.84 
L 653.513287 384.48 
z
" style="fill:#008000;opacity:0.04;"/>
   </g>
   <g id="patch_76">
    <path clip-path="url(#p58b8a2bfbf)" d="M 657.770121 384.48 
L 657.770121 51.84 
L 662.026955 51.84 
L 662.026955 384.48 
z
" style="fill:#008000;opacity:0.04;"/>
   </g>
   <g id="patch_77">
    <path clip-path="url(#p58b8a2bfbf)" d="M 666.283789 384.48 
L 666.283789 51.84 
L 670.540623 51.84 
L 670.540623 384.48 
z
" style="fill:#008000;opacity:0.04;"/>
   </g>
   <g id="patch_78">
    <path clip-path="url(#p58b8a2bfbf)" d="M 674.797457 384.48 
L 674.797457 51.84 
L 679.054291 51.84 
L 679.054291 384.48 
z
" style="fill:#008000;opacity:0.04;"/>
   </g>
   <g id="patch_79">
    <path clip-path="url(#p58b8a2bfbf)" d="M 683.311125 384.48 
L 683.311125 51.84 
L 687.567959 51.84 
L 687.567959 384.48 
z
" style="fill:#008000;opacity:0.04;"/>
   </g>
   <g id="patch_80">
    <path clip-path="url(#p58b8a2bfbf)" d="M 691.824793 384.48 
L 691.824793 51.84 
L 696.081627 51.84 
L 696.081627 384.48 
z
" style="fill:#008000;opacity:0.04;"/>
   </g>
   <g id="patch_81">
    <path clip-path="url(#p58b8a2bfbf)" d="M 700.338462 384.48 
L 700.338462 51.84 
L 704.595296 51.84 
L 704.595296 384.48 
z
" style="fill:#008000;opacity:0.04;"/>
   </g>
   <g id="patch_82">
    <path clip-path="url(#p58b8a2bfbf)" d="M 708.85213 384.48 
L 708.85213 51.84 
L 713.108964 51.84 
L 713.108964 384.48 
z
" style="fill:#008000;opacity:0.04;"/>
   </g>
   <g id="patch_83">
    <path clip-path="url(#p58b8a2bfbf)" d="M 717.365798 384.48 
L 717.365798 51.84 
L 721.622632 51.84 
L 721.622632 384.48 
z
" style="fill:#008000;opacity:0.04;"/>
   </g>
   <g id="patch_84">
    <path clip-path="url(#p58b8a2bfbf)" d="M 725.879466 384.48 
L 725.879466 51.84 
L 730.1363 51.84 
L 730.1363 384.48 
z
" style="fill:#008000;opacity:0.04;"/>
   </g>
   <g id="patch_85">
    <path clip-path="url(#p58b8a2bfbf)" d="M 734.393134 384.48 
L 734.393134 51.84 
L 738.649968 51.84 
L 738.649968 384.48 
z
" style="fill:#008000;opacity:0.04;"/>
   </g>
   <g id="patch_86">
    <path clip-path="url(#p58b8a2bfbf)" d="M 742.906802 384.48 
L 742.906802 51.84 
L 747.163636 51.84 
L 747.163636 384.48 
z
" style="fill:#008000;opacity:0.04;"/>
   </g>
   <g id="matplotlib.axis_1">
    <g id="xtick_1">
     <g id="line2d_1">
      <defs>
       <path d="M 0 0 
L 0 3.5 
" id="mdb269aa5c2" style="stroke:#000000;stroke-width:0.8;"/>
      </defs>
      <g>
       <use style="stroke:#000000;stroke-width:0.8;" x="138.436364" xlink:href="#mdb269aa5c2" y="384.48"/>
      </g>
     </g>
     <g id="text_1">
      <!-- 0 -->
      <defs>
       <path d="M 31.78125 66.40625 
Q 24.171875 66.40625 20.328125 58.90625 
Q 16.5 51.421875 16.5 36.375 
Q 16.5 21.390625 20.328125 13.890625 
Q 24.171875 6.390625 31.78125 6.390625 
Q 39.453125 6.390625 43.28125 13.890625 
Q 47.125 21.390625 47.125 36.375 
Q 47.125 51.421875 43.28125 58.90625 
Q 39.453125 66.40625 31.78125 66.40625 
z
M 31.78125 74.21875 
Q 44.046875 74.21875 50.515625 64.515625 
Q 56.984375 54.828125 56.984375 36.375 
Q 56.984375 17.96875 50.515625 8.265625 
Q 44.046875 -1.421875 31.78125 -1.421875 
Q 19.53125 -1.421875 13.0625 8.265625 
Q 6.59375 17.96875 6.59375 36.375 
Q 6.59375 54.828125 13.0625 64.515625 
Q 19.53125 74.21875 31.78125 74.21875 
z
" id="DejaVuSans-48"/>
      </defs>
      <g transform="translate(135.255114 399.078438)scale(0.1 -0.1)">
       <use xlink:href="#DejaVuSans-48"/>
      </g>
     </g>
    </g>
    <g id="xtick_2">
     <g id="line2d_2">
      <g>
       <use style="stroke:#000000;stroke-width:0.8;" x="223.573045" xlink:href="#mdb269aa5c2" y="384.48"/>
      </g>
     </g>
     <g id="text_2">
      <!-- 200 -->
      <defs>
       <path d="M 19.1875 8.296875 
L 53.609375 8.296875 
L 53.609375 0 
L 7.328125 0 
L 7.328125 8.296875 
Q 12.9375 14.109375 22.625 23.890625 
Q 32.328125 33.6875 34.8125 36.53125 
Q 39.546875 41.84375 41.421875 45.53125 
Q 43.3125 49.21875 43.3125 52.78125 
Q 43.3125 58.59375 39.234375 62.25 
Q 35.15625 65.921875 28.609375 65.921875 
Q 23.96875 65.921875 18.8125 64.3125 
Q 13.671875 62.703125 7.8125 59.421875 
L 7.8125 69.390625 
Q 13.765625 71.78125 18.9375 73 
Q 24.125 74.21875 28.421875 74.21875 
Q 39.75 74.21875 46.484375 68.546875 
Q 53.21875 62.890625 53.21875 53.421875 
Q 53.21875 48.921875 51.53125 44.890625 
Q 49.859375 40.875 45.40625 35.40625 
Q 44.1875 33.984375 37.640625 27.21875 
Q 31.109375 20.453125 19.1875 8.296875 
z
" id="DejaVuSans-50"/>
      </defs>
      <g transform="translate(214.029295 399.078438)scale(0.1 -0.1)">
       <use xlink:href="#DejaVuSans-50"/>
       <use x="63.623047" xlink:href="#DejaVuSans-48"/>
       <use x="127.246094" xlink:href="#DejaVuSans-48"/>
      </g>
     </g>
    </g>
    <g id="xtick_3">
     <g id="line2d_3">
      <g>
       <use style="stroke:#000000;stroke-width:0.8;" x="308.709727" xlink:href="#mdb269aa5c2" y="384.48"/>
      </g>
     </g>
     <g id="text_3">
      <!-- 400 -->
      <defs>
       <path d="M 37.796875 64.3125 
L 12.890625 25.390625 
L 37.796875 25.390625 
z
M 35.203125 72.90625 
L 47.609375 72.90625 
L 47.609375 25.390625 
L 58.015625 25.390625 
L 58.015625 17.1875 
L 47.609375 17.1875 
L 47.609375 0 
L 37.796875 0 
L 37.796875 17.1875 
L 4.890625 17.1875 
L 4.890625 26.703125 
z
" id="DejaVuSans-52"/>
      </defs>
      <g transform="translate(299.165977 399.078438)scale(0.1 -0.1)">
       <use xlink:href="#DejaVuSans-52"/>
       <use x="63.623047" xlink:href="#DejaVuSans-48"/>
       <use x="127.246094" xlink:href="#DejaVuSans-48"/>
      </g>
     </g>
    </g>
    <g id="xtick_4">
     <g id="line2d_4">
      <g>
       <use style="stroke:#000000;stroke-width:0.8;" x="393.846408" xlink:href="#mdb269aa5c2" y="384.48"/>
      </g>
     </g>
     <g id="text_4">
      <!-- 600 -->
      <defs>
       <path d="M 33.015625 40.375 
Q 26.375 40.375 22.484375 35.828125 
Q 18.609375 31.296875 18.609375 23.390625 
Q 18.609375 15.53125 22.484375 10.953125 
Q 26.375 6.390625 33.015625 6.390625 
Q 39.65625 6.390625 43.53125 10.953125 
Q 47.40625 15.53125 47.40625 23.390625 
Q 47.40625 31.296875 43.53125 35.828125 
Q 39.65625 40.375 33.015625 40.375 
z
M 52.59375 71.296875 
L 52.59375 62.3125 
Q 48.875 64.0625 45.09375 64.984375 
Q 41.3125 65.921875 37.59375 65.921875 
Q 27.828125 65.921875 22.671875 59.328125 
Q 17.53125 52.734375 16.796875 39.40625 
Q 19.671875 43.65625 24.015625 45.921875 
Q 28.375 48.1875 33.59375 48.1875 
Q 44.578125 48.1875 50.953125 41.515625 
Q 57.328125 34.859375 57.328125 23.390625 
Q 57.328125 12.15625 50.6875 5.359375 
Q 44.046875 -1.421875 33.015625 -1.421875 
Q 20.359375 -1.421875 13.671875 8.265625 
Q 6.984375 17.96875 6.984375 36.375 
Q 6.984375 53.65625 15.1875 63.9375 
Q 23.390625 74.21875 37.203125 74.21875 
Q 40.921875 74.21875 44.703125 73.484375 
Q 48.484375 72.75 52.59375 71.296875 
z
" id="DejaVuSans-54"/>
      </defs>
      <g transform="translate(384.302658 399.078438)scale(0.1 -0.1)">
       <use xlink:href="#DejaVuSans-54"/>
       <use x="63.623047" xlink:href="#DejaVuSans-48"/>
       <use x="127.246094" xlink:href="#DejaVuSans-48"/>
      </g>
     </g>
    </g>
    <g id="xtick_5">
     <g id="line2d_5">
      <g>
       <use style="stroke:#000000;stroke-width:0.8;" x="478.98309" xlink:href="#mdb269aa5c2" y="384.48"/>
      </g>
     </g>
     <g id="text_5">
      <!-- 800 -->
      <defs>
       <path d="M 31.78125 34.625 
Q 24.75 34.625 20.71875 30.859375 
Q 16.703125 27.09375 16.703125 20.515625 
Q 16.703125 13.921875 20.71875 10.15625 
Q 24.75 6.390625 31.78125 6.390625 
Q 38.8125 6.390625 42.859375 10.171875 
Q 46.921875 13.96875 46.921875 20.515625 
Q 46.921875 27.09375 42.890625 30.859375 
Q 38.875 34.625 31.78125 34.625 
z
M 21.921875 38.8125 
Q 15.578125 40.375 12.03125 44.71875 
Q 8.5 49.078125 8.5 55.328125 
Q 8.5 64.0625 14.71875 69.140625 
Q 20.953125 74.21875 31.78125 74.21875 
Q 42.671875 74.21875 48.875 69.140625 
Q 55.078125 64.0625 55.078125 55.328125 
Q 55.078125 49.078125 51.53125 44.71875 
Q 48 40.375 41.703125 38.8125 
Q 48.828125 37.15625 52.796875 32.3125 
Q 56.78125 27.484375 56.78125 20.515625 
Q 56.78125 9.90625 50.3125 4.234375 
Q 43.84375 -1.421875 31.78125 -1.421875 
Q 19.734375 -1.421875 13.25 4.234375 
Q 6.78125 9.90625 6.78125 20.515625 
Q 6.78125 27.484375 10.78125 32.3125 
Q 14.796875 37.15625 21.921875 38.8125 
z
M 18.3125 54.390625 
Q 18.3125 48.734375 21.84375 45.5625 
Q 25.390625 42.390625 31.78125 42.390625 
Q 38.140625 42.390625 41.71875 45.5625 
Q 45.3125 48.734375 45.3125 54.390625 
Q 45.3125 60.0625 41.71875 63.234375 
Q 38.140625 66.40625 31.78125 66.40625 
Q 25.390625 66.40625 21.84375 63.234375 
Q 18.3125 60.0625 18.3125 54.390625 
z
" id="DejaVuSans-56"/>
      </defs>
      <g transform="translate(469.43934 399.078438)scale(0.1 -0.1)">
       <use xlink:href="#DejaVuSans-56"/>
       <use x="63.623047" xlink:href="#DejaVuSans-48"/>
       <use x="127.246094" xlink:href="#DejaVuSans-48"/>
      </g>
     </g>
    </g>
    <g id="xtick_6">
     <g id="line2d_6">
      <g>
       <use style="stroke:#000000;stroke-width:0.8;" x="564.119771" xlink:href="#mdb269aa5c2" y="384.48"/>
      </g>
     </g>
     <g id="text_6">
      <!-- 1000 -->
      <defs>
       <path d="M 12.40625 8.296875 
L 28.515625 8.296875 
L 28.515625 63.921875 
L 10.984375 60.40625 
L 10.984375 69.390625 
L 28.421875 72.90625 
L 38.28125 72.90625 
L 38.28125 8.296875 
L 54.390625 8.296875 
L 54.390625 0 
L 12.40625 0 
z
" id="DejaVuSans-49"/>
      </defs>
      <g transform="translate(551.394771 399.078438)scale(0.1 -0.1)">
       <use xlink:href="#DejaVuSans-49"/>
       <use x="63.623047" xlink:href="#DejaVuSans-48"/>
       <use x="127.246094" xlink:href="#DejaVuSans-48"/>
       <use x="190.869141" xlink:href="#DejaVuSans-48"/>
      </g>
     </g>
    </g>
    <g id="xtick_7">
     <g id="line2d_7">
      <g>
       <use style="stroke:#000000;stroke-width:0.8;" x="649.256453" xlink:href="#mdb269aa5c2" y="384.48"/>
      </g>
     </g>
     <g id="text_7">
      <!-- 1200 -->
      <g transform="translate(636.531453 399.078438)scale(0.1 -0.1)">
       <use xlink:href="#DejaVuSans-49"/>
       <use x="63.623047" xlink:href="#DejaVuSans-50"/>
       <use x="127.246094" xlink:href="#DejaVuSans-48"/>
       <use x="190.869141" xlink:href="#DejaVuSans-48"/>
      </g>
     </g>
    </g>
    <g id="xtick_8">
     <g id="line2d_8">
      <g>
       <use style="stroke:#000000;stroke-width:0.8;" x="734.393134" xlink:href="#mdb269aa5c2" y="384.48"/>
      </g>
     </g>
     <g id="text_8">
      <!-- 1400 -->
      <g transform="translate(721.668134 399.078438)scale(0.1 -0.1)">
       <use xlink:href="#DejaVuSans-49"/>
       <use x="63.623047" xlink:href="#DejaVuSans-52"/>
       <use x="127.246094" xlink:href="#DejaVuSans-48"/>
       <use x="190.869141" xlink:href="#DejaVuSans-48"/>
      </g>
     </g>
    </g>
    <g id="text_9">
     <!-- Timestamp -->
     <defs>
      <path d="M -0.296875 72.90625 
L 61.375 72.90625 
L 61.375 64.59375 
L 35.5 64.59375 
L 35.5 0 
L 25.59375 0 
L 25.59375 64.59375 
L -0.296875 64.59375 
z
" id="DejaVuSans-84"/>
      <path d="M 9.421875 54.6875 
L 18.40625 54.6875 
L 18.40625 0 
L 9.421875 0 
z
M 9.421875 75.984375 
L 18.40625 75.984375 
L 18.40625 64.59375 
L 9.421875 64.59375 
z
" id="DejaVuSans-105"/>
      <path d="M 52 44.1875 
Q 55.375 50.25 60.0625 53.125 
Q 64.75 56 71.09375 56 
Q 79.640625 56 84.28125 50.015625 
Q 88.921875 44.046875 88.921875 33.015625 
L 88.921875 0 
L 79.890625 0 
L 79.890625 32.71875 
Q 79.890625 40.578125 77.09375 44.375 
Q 74.3125 48.1875 68.609375 48.1875 
Q 61.625 48.1875 57.5625 43.546875 
Q 53.515625 38.921875 53.515625 30.90625 
L 53.515625 0 
L 44.484375 0 
L 44.484375 32.71875 
Q 44.484375 40.625 41.703125 44.40625 
Q 38.921875 48.1875 33.109375 48.1875 
Q 26.21875 48.1875 22.15625 43.53125 
Q 18.109375 38.875 18.109375 30.90625 
L 18.109375 0 
L 9.078125 0 
L 9.078125 54.6875 
L 18.109375 54.6875 
L 18.109375 46.1875 
Q 21.1875 51.21875 25.484375 53.609375 
Q 29.78125 56 35.6875 56 
Q 41.65625 56 45.828125 52.96875 
Q 50 49.953125 52 44.1875 
z
" id="DejaVuSans-109"/>
      <path d="M 56.203125 29.59375 
L 56.203125 25.203125 
L 14.890625 25.203125 
Q 15.484375 15.921875 20.484375 11.0625 
Q 25.484375 6.203125 34.421875 6.203125 
Q 39.59375 6.203125 44.453125 7.46875 
Q 49.3125 8.734375 54.109375 11.28125 
L 54.109375 2.78125 
Q 49.265625 0.734375 44.1875 -0.34375 
Q 39.109375 -1.421875 33.890625 -1.421875 
Q 20.796875 -1.421875 13.15625 6.1875 
Q 5.515625 13.8125 5.515625 26.8125 
Q 5.515625 40.234375 12.765625 48.109375 
Q 20.015625 56 32.328125 56 
Q 43.359375 56 49.78125 48.890625 
Q 56.203125 41.796875 56.203125 29.59375 
z
M 47.21875 32.234375 
Q 47.125 39.59375 43.09375 43.984375 
Q 39.0625 48.390625 32.421875 48.390625 
Q 24.90625 48.390625 20.390625 44.140625 
Q 15.875 39.890625 15.1875 32.171875 
z
" id="DejaVuSans-101"/>
      <path d="M 44.28125 53.078125 
L 44.28125 44.578125 
Q 40.484375 46.53125 36.375 47.5 
Q 32.28125 48.484375 27.875 48.484375 
Q 21.1875 48.484375 17.84375 46.4375 
Q 14.5 44.390625 14.5 40.28125 
Q 14.5 37.15625 16.890625 35.375 
Q 19.28125 33.59375 26.515625 31.984375 
L 29.59375 31.296875 
Q 39.15625 29.25 43.1875 25.515625 
Q 47.21875 21.78125 47.21875 15.09375 
Q 47.21875 7.46875 41.1875 3.015625 
Q 35.15625 -1.421875 24.609375 -1.421875 
Q 20.21875 -1.421875 15.453125 -0.5625 
Q 10.6875 0.296875 5.421875 2 
L 5.421875 11.28125 
Q 10.40625 8.6875 15.234375 7.390625 
Q 20.0625 6.109375 24.8125 6.109375 
Q 31.15625 6.109375 34.5625 8.28125 
Q 37.984375 10.453125 37.984375 14.40625 
Q 37.984375 18.0625 35.515625 20.015625 
Q 33.0625 21.96875 24.703125 23.78125 
L 21.578125 24.515625 
Q 13.234375 26.265625 9.515625 29.90625 
Q 5.8125 33.546875 5.8125 39.890625 
Q 5.8125 47.609375 11.28125 51.796875 
Q 16.75 56 26.8125 56 
Q 31.78125 56 36.171875 55.265625 
Q 40.578125 54.546875 44.28125 53.078125 
z
" id="DejaVuSans-115"/>
      <path d="M 18.3125 70.21875 
L 18.3125 54.6875 
L 36.8125 54.6875 
L 36.8125 47.703125 
L 18.3125 47.703125 
L 18.3125 18.015625 
Q 18.3125 11.328125 20.140625 9.421875 
Q 21.96875 7.515625 27.59375 7.515625 
L 36.8125 7.515625 
L 36.8125 0 
L 27.59375 0 
Q 17.1875 0 13.234375 3.875 
Q 9.28125 7.765625 9.28125 18.015625 
L 9.28125 47.703125 
L 2.6875 47.703125 
L 2.6875 54.6875 
L 9.28125 54.6875 
L 9.28125 70.21875 
z
" id="DejaVuSans-116"/>
      <path d="M 34.28125 27.484375 
Q 23.390625 27.484375 19.1875 25 
Q 14.984375 22.515625 14.984375 16.5 
Q 14.984375 11.71875 18.140625 8.90625 
Q 21.296875 6.109375 26.703125 6.109375 
Q 34.1875 6.109375 38.703125 11.40625 
Q 43.21875 16.703125 43.21875 25.484375 
L 43.21875 27.484375 
z
M 52.203125 31.203125 
L 52.203125 0 
L 43.21875 0 
L 43.21875 8.296875 
Q 40.140625 3.328125 35.546875 0.953125 
Q 30.953125 -1.421875 24.3125 -1.421875 
Q 15.921875 -1.421875 10.953125 3.296875 
Q 6 8.015625 6 15.921875 
Q 6 25.140625 12.171875 29.828125 
Q 18.359375 34.515625 30.609375 34.515625 
L 43.21875 34.515625 
L 43.21875 35.40625 
Q 43.21875 41.609375 39.140625 45 
Q 35.0625 48.390625 27.6875 48.390625 
Q 23 48.390625 18.546875 47.265625 
Q 14.109375 46.140625 10.015625 43.890625 
L 10.015625 52.203125 
Q 14.9375 54.109375 19.578125 55.046875 
Q 24.21875 56 28.609375 56 
Q 40.484375 56 46.34375 49.84375 
Q 52.203125 43.703125 52.203125 31.203125 
z
" id="DejaVuSans-97"/>
      <path d="M 18.109375 8.203125 
L 18.109375 -20.796875 
L 9.078125 -20.796875 
L 9.078125 54.6875 
L 18.109375 54.6875 
L 18.109375 46.390625 
Q 20.953125 51.265625 25.265625 53.625 
Q 29.59375 56 35.59375 56 
Q 45.5625 56 51.78125 48.09375 
Q 58.015625 40.1875 58.015625 27.296875 
Q 58.015625 14.40625 51.78125 6.484375 
Q 45.5625 -1.421875 35.59375 -1.421875 
Q 29.59375 -1.421875 25.265625 0.953125 
Q 20.953125 3.328125 18.109375 8.203125 
z
M 48.6875 27.296875 
Q 48.6875 37.203125 44.609375 42.84375 
Q 40.53125 48.484375 33.40625 48.484375 
Q 26.265625 48.484375 22.1875 42.84375 
Q 18.109375 37.203125 18.109375 27.296875 
Q 18.109375 17.390625 22.1875 11.75 
Q 26.265625 6.109375 33.40625 6.109375 
Q 40.53125 6.109375 44.609375 11.75 
Q 48.6875 17.390625 48.6875 27.296875 
z
" id="DejaVuSans-112"/>
     </defs>
     <g transform="translate(414.739062 412.756563)scale(0.1 -0.1)">
      <use xlink:href="#DejaVuSans-84"/>
      <use x="61.037109" xlink:href="#DejaVuSans-105"/>
      <use x="88.820312" xlink:href="#DejaVuSans-109"/>
      <use x="186.232422" xlink:href="#DejaVuSans-101"/>
      <use x="247.755859" xlink:href="#DejaVuSans-115"/>
      <use x="299.855469" xlink:href="#DejaVuSans-116"/>
      <use x="339.064453" xlink:href="#DejaVuSans-97"/>
      <use x="400.34375" xlink:href="#DejaVuSans-109"/>
      <use x="497.755859" xlink:href="#DejaVuSans-112"/>
     </g>
    </g>
   </g>
   <g id="matplotlib.axis_2">
    <g id="ytick_1">
     <g id="line2d_9">
      <defs>
       <path d="M 0 0 
L -3.5 0 
" id="ma36ab72428" style="stroke:#000000;stroke-width:0.8;"/>
      </defs>
      <g>
       <use style="stroke:#000000;stroke-width:0.8;" x="108" xlink:href="#ma36ab72428" y="377.208191"/>
      </g>
     </g>
     <g id="text_10">
      <!-- −2000 -->
      <defs>
       <path d="M 10.59375 35.5 
L 73.1875 35.5 
L 73.1875 27.203125 
L 10.59375 27.203125 
z
" id="DejaVuSans-8722"/>
      </defs>
      <g transform="translate(67.170312 381.00741)scale(0.1 -0.1)">
       <use xlink:href="#DejaVuSans-8722"/>
       <use x="83.789062" xlink:href="#DejaVuSans-50"/>
       <use x="147.412109" xlink:href="#DejaVuSans-48"/>
       <use x="211.035156" xlink:href="#DejaVuSans-48"/>
       <use x="274.658203" xlink:href="#DejaVuSans-48"/>
      </g>
     </g>
    </g>
    <g id="ytick_2">
     <g id="line2d_10">
      <g>
       <use style="stroke:#000000;stroke-width:0.8;" x="108" xlink:href="#ma36ab72428" y="319.503529"/>
      </g>
     </g>
     <g id="text_11">
      <!-- −1000 -->
      <g transform="translate(67.170312 323.302747)scale(0.1 -0.1)">
       <use xlink:href="#DejaVuSans-8722"/>
       <use x="83.789062" xlink:href="#DejaVuSans-49"/>
       <use x="147.412109" xlink:href="#DejaVuSans-48"/>
       <use x="211.035156" xlink:href="#DejaVuSans-48"/>
       <use x="274.658203" xlink:href="#DejaVuSans-48"/>
      </g>
     </g>
    </g>
    <g id="ytick_3">
     <g id="line2d_11">
      <g>
       <use style="stroke:#000000;stroke-width:0.8;" x="108" xlink:href="#ma36ab72428" y="261.798866"/>
      </g>
     </g>
     <g id="text_12">
      <!-- 0 -->
      <g transform="translate(94.6375 265.598085)scale(0.1 -0.1)">
       <use xlink:href="#DejaVuSans-48"/>
      </g>
     </g>
    </g>
    <g id="ytick_4">
     <g id="line2d_12">
      <g>
       <use style="stroke:#000000;stroke-width:0.8;" x="108" xlink:href="#ma36ab72428" y="204.094203"/>
      </g>
     </g>
     <g id="text_13">
      <!-- 1000 -->
      <g transform="translate(75.55 207.893422)scale(0.1 -0.1)">
       <use xlink:href="#DejaVuSans-49"/>
       <use x="63.623047" xlink:href="#DejaVuSans-48"/>
       <use x="127.246094" xlink:href="#DejaVuSans-48"/>
       <use x="190.869141" xlink:href="#DejaVuSans-48"/>
      </g>
     </g>
    </g>
    <g id="ytick_5">
     <g id="line2d_13">
      <g>
       <use style="stroke:#000000;stroke-width:0.8;" x="108" xlink:href="#ma36ab72428" y="146.389541"/>
      </g>
     </g>
     <g id="text_14">
      <!-- 2000 -->
      <g transform="translate(75.55 150.18876)scale(0.1 -0.1)">
       <use xlink:href="#DejaVuSans-50"/>
       <use x="63.623047" xlink:href="#DejaVuSans-48"/>
       <use x="127.246094" xlink:href="#DejaVuSans-48"/>
       <use x="190.869141" xlink:href="#DejaVuSans-48"/>
      </g>
     </g>
    </g>
    <g id="ytick_6">
     <g id="line2d_14">
      <g>
       <use style="stroke:#000000;stroke-width:0.8;" x="108" xlink:href="#ma36ab72428" y="88.684878"/>
      </g>
     </g>
     <g id="text_15">
      <!-- 3000 -->
      <defs>
       <path d="M 40.578125 39.3125 
Q 47.65625 37.796875 51.625 33 
Q 55.609375 28.21875 55.609375 21.1875 
Q 55.609375 10.40625 48.1875 4.484375 
Q 40.765625 -1.421875 27.09375 -1.421875 
Q 22.515625 -1.421875 17.65625 -0.515625 
Q 12.796875 0.390625 7.625 2.203125 
L 7.625 11.71875 
Q 11.71875 9.328125 16.59375 8.109375 
Q 21.484375 6.890625 26.8125 6.890625 
Q 36.078125 6.890625 40.9375 10.546875 
Q 45.796875 14.203125 45.796875 21.1875 
Q 45.796875 27.640625 41.28125 31.265625 
Q 36.765625 34.90625 28.71875 34.90625 
L 20.21875 34.90625 
L 20.21875 43.015625 
L 29.109375 43.015625 
Q 36.375 43.015625 40.234375 45.921875 
Q 44.09375 48.828125 44.09375 54.296875 
Q 44.09375 59.90625 40.109375 62.90625 
Q 36.140625 65.921875 28.71875 65.921875 
Q 24.65625 65.921875 20.015625 65.03125 
Q 15.375 64.15625 9.8125 62.3125 
L 9.8125 71.09375 
Q 15.4375 72.65625 20.34375 73.4375 
Q 25.25 74.21875 29.59375 74.21875 
Q 40.828125 74.21875 47.359375 69.109375 
Q 53.90625 64.015625 53.90625 55.328125 
Q 53.90625 49.265625 50.4375 45.09375 
Q 46.96875 40.921875 40.578125 39.3125 
z
" id="DejaVuSans-51"/>
      </defs>
      <g transform="translate(75.55 92.484097)scale(0.1 -0.1)">
       <use xlink:href="#DejaVuSans-51"/>
       <use x="63.623047" xlink:href="#DejaVuSans-48"/>
       <use x="127.246094" xlink:href="#DejaVuSans-48"/>
       <use x="190.869141" xlink:href="#DejaVuSans-48"/>
      </g>
     </g>
    </g>
    <g id="text_16">
     <!-- Value -->
     <defs>
      <path d="M 28.609375 0 
L 0.78125 72.90625 
L 11.078125 72.90625 
L 34.1875 11.53125 
L 57.328125 72.90625 
L 67.578125 72.90625 
L 39.796875 0 
z
" id="DejaVuSans-86"/>
      <path d="M 9.421875 75.984375 
L 18.40625 75.984375 
L 18.40625 0 
L 9.421875 0 
z
" id="DejaVuSans-108"/>
      <path d="M 8.5 21.578125 
L 8.5 54.6875 
L 17.484375 54.6875 
L 17.484375 21.921875 
Q 17.484375 14.15625 20.5 10.265625 
Q 23.53125 6.390625 29.59375 6.390625 
Q 36.859375 6.390625 41.078125 11.03125 
Q 45.3125 15.671875 45.3125 23.6875 
L 45.3125 54.6875 
L 54.296875 54.6875 
L 54.296875 0 
L 45.3125 0 
L 45.3125 8.40625 
Q 42.046875 3.421875 37.71875 1 
Q 33.40625 -1.421875 27.6875 -1.421875 
Q 18.265625 -1.421875 13.375 4.4375 
Q 8.5 10.296875 8.5 21.578125 
z
M 31.109375 56 
z
" id="DejaVuSans-117"/>
     </defs>
     <g transform="translate(61.090625 232.273281)rotate(-90)scale(0.1 -0.1)">
      <use xlink:href="#DejaVuSans-86"/>
      <use x="68.298828" xlink:href="#DejaVuSans-97"/>
      <use x="129.578125" xlink:href="#DejaVuSans-108"/>
      <use x="157.361328" xlink:href="#DejaVuSans-117"/>
      <use x="220.740234" xlink:href="#DejaVuSans-101"/>
     </g>
    </g>
   </g>
   <g id="line2d_15">
    <path clip-path="url(#p58b8a2bfbf)" d="M 138.436364 274.79698 
L 138.862047 255.725228 
L 139.28773 274.763275 
L 139.713414 221.932295 
L 140.564781 267.887237 
L 140.990464 238.468251 
L 141.416147 231.077104 
L 141.841831 232.308985 
L 142.267514 248.52285 
L 142.693198 208.54005 
L 143.544565 248.762826 
L 143.970248 279.877309 
L 144.395931 208.247964 
L 144.821615 230.578324 
L 145.247298 227.962104 
L 145.672982 205.969432 
L 146.098665 206.554515 
L 146.524348 209.346929 
L 146.950032 200.659691 
L 147.375715 201.623657 
L 147.801399 214.506848 
L 148.227082 255.675986 
L 148.652765 199.530756 
L 149.078449 211.853242 
L 149.504132 212.205934 
L 149.929816 237.911054 
L 151.206866 174.137243 
L 151.632549 203.050654 
L 152.058233 191.344481 
L 152.483916 199.094583 
L 152.909599 225.25708 
L 153.335283 203.857905 
L 153.760966 202.114184 
L 154.18665 193.870247 
L 154.612333 168.501065 
L 155.038017 174.347737 
L 155.4637 192.551597 
L 155.889383 193.330541 
L 156.315067 172.512721 
L 156.74075 174.46526 
L 157.166434 199.490724 
L 157.592117 199.015142 
L 158.0178 175.869299 
L 158.443484 166.694943 
L 158.869167 184.339368 
L 159.294851 162.993296 
L 159.720534 172.458717 
L 160.146217 192.960253 
L 160.571901 172.61959 
L 160.997584 202.822379 
L 161.423268 149.071092 
L 161.848951 137.351666 
L 162.274634 185.995634 
L 162.700318 199.893174 
L 163.126001 166.127705 
L 163.551685 180.719384 
L 163.977368 127.844184 
L 164.403051 178.714746 
L 164.828735 163.610085 
L 165.680102 193.793891 
L 166.105785 174.628554 
L 166.531469 216.468277 
L 166.957152 148.702094 
L 167.382835 176.457997 
L 167.808519 134.866195 
L 168.234202 170.748415 
L 168.659886 196.026936 
L 169.085569 169.153479 
L 169.511252 202.025948 
L 169.936936 209.42711 
L 170.362619 178.038333 
L 170.788303 194.193294 
L 171.213986 185.83658 
L 171.639669 185.262344 
L 172.065353 200.09285 
L 172.491036 200.709032 
L 172.91672 192.777844 
L 173.342403 166.567353 
L 173.768086 224.039979 
L 174.19377 181.168611 
L 174.619453 187.889875 
L 175.045137 174.008275 
L 175.47082 203.862201 
L 175.896503 191.231228 
L 176.322187 194.82985 
L 176.74787 213.189979 
L 177.173554 178.260531 
L 177.599237 180.820634 
L 178.024921 192.014986 
L 178.450604 175.18892 
L 178.876287 198.288539 
L 179.301971 238.226552 
L 179.727654 225.317884 
L 180.153338 240.6595 
L 180.579021 226.813134 
L 181.004704 231.705016 
L 181.430388 219.761597 
L 181.856071 241.496981 
L 182.281755 221.135483 
L 182.707438 239.992105 
L 183.133121 191.491072 
L 183.558805 215.345747 
L 183.984488 213.303524 
L 184.410172 226.265431 
L 184.835855 201.246745 
L 185.261538 251.56629 
L 185.687222 249.986433 
L 186.112905 212.591045 
L 186.538589 258.049629 
L 186.964272 250.890045 
L 187.389955 256.834579 
L 187.815639 257.404603 
L 188.241322 258.643412 
L 188.667006 244.626871 
L 189.092689 260.708442 
L 189.518373 269.646094 
L 189.944056 233.218324 
L 190.369739 267.751018 
L 190.795423 269.10126 
L 191.221106 269.520743 
L 191.64679 254.652055 
L 192.072473 273.084551 
L 192.498156 274.378789 
L 192.92384 289.824476 
L 193.775207 278.385963 
L 194.20089 293.888687 
L 194.626573 272.512623 
L 195.052257 317.157689 
L 195.47794 281.062816 
L 195.903624 321.353611 
L 196.329307 297.491002 
L 196.75499 304.074333 
L 197.180674 308.474772 
L 197.606357 297.868782 
L 198.032041 338.325409 
L 198.457724 275.668933 
L 198.883408 336.562373 
L 199.309091 313.201111 
L 199.734774 328.423049 
L 200.160458 322.413382 
L 200.586141 264.853086 
L 201.011825 309.489984 
L 201.437508 338.129216 
L 201.863191 346.950967 
L 202.288875 304.79655 
L 202.714558 315.918458 
L 203.140242 323.471478 
L 203.991608 350.325141 
L 204.417292 342.914967 
L 204.842975 300.816103 
L 205.268659 335.67288 
L 205.694342 352.604801 
L 206.120025 285.810128 
L 206.545709 316.829163 
L 206.971392 331.539594 
L 207.397076 305.350671 
L 207.822759 309.714834 
L 208.248442 341.80707 
L 208.674126 283.625032 
L 209.099809 335.513749 
L 209.525493 360.441059 
L 209.951176 334.28585 
L 210.37686 327.410302 
L 210.802543 284.055542 
L 211.228226 330.274414 
L 211.65391 323.246913 
L 212.079593 334.606109 
L 212.505277 340.13215 
L 212.93096 334.016693 
L 213.356643 316.947719 
L 213.782327 290.130265 
L 214.20801 311.906698 
L 214.633694 308.037583 
L 215.059377 358.684545 
L 215.48506 312.316047 
L 215.910744 327.9515 
L 216.336427 362.76204 
L 216.762111 320.95159 
L 217.187794 334.664222 
L 217.613477 300.343883 
L 218.039161 346.252433 
L 218.464844 338.641279 
L 218.890528 348.302263 
L 219.741894 319.134715 
L 220.167578 341.921796 
L 220.593261 308.49717 
L 221.018945 350.025365 
L 221.444628 345.703071 
L 221.870312 292.812671 
L 222.295995 342.907155 
L 222.721678 312.025834 
L 223.147362 327.359658 
L 223.573045 309.658479 
L 223.998729 281.723809 
L 224.424412 282.526823 
L 225.275779 360.391826 
L 225.701462 259.296632 
L 226.127146 295.92721 
L 226.552829 297.001866 
L 226.978512 306.972585 
L 227.404196 294.442913 
L 227.829879 306.830914 
L 228.255563 292.943622 
L 229.106929 326.745262 
L 229.532613 275.820425 
L 229.958296 262.904365 
L 230.38398 299.127567 
L 230.809663 316.907454 
L 231.235346 275.496146 
L 231.66103 287.854424 
L 232.086713 321.050821 
L 232.512397 282.899108 
L 232.93808 294.048574 
L 233.363764 285.974807 
L 233.789447 300.898168 
L 234.21513 237.157643 
L 234.640814 279.514584 
L 235.066497 303.942864 
L 235.492181 264.256687 
L 235.917864 260.735902 
L 236.343547 284.596554 
L 236.769231 322.072815 
L 237.194914 273.058369 
L 237.620598 245.648398 
L 238.046281 256.588057 
L 238.471964 255.196188 
L 238.897648 239.272849 
L 239.323331 273.474618 
L 239.749015 223.715689 
L 240.174698 244.480438 
L 240.600381 227.444422 
L 241.026065 218.451387 
L 241.451748 233.159011 
L 241.877432 253.948283 
L 242.303115 209.256127 
L 242.728798 272.998204 
L 243.154482 240.542955 
L 243.580165 232.396358 
L 244.005849 228.422513 
L 244.431532 201.612779 
L 244.857216 217.959548 
L 245.282899 210.261895 
L 245.708582 218.162434 
L 246.134266 219.86083 
L 246.559949 198.226489 
L 246.985633 186.877673 
L 247.411316 258.881066 
L 247.836999 194.984302 
L 248.262683 197.232508 
L 248.688366 212.051278 
L 249.11405 181.567094 
L 249.539733 207.705056 
L 249.965416 203.772687 
L 250.816783 158.641012 
L 251.242467 187.200488 
L 252.093833 214.440533 
L 252.519517 195.048361 
L 252.9452 206.255346 
L 253.796567 175.642012 
L 254.22225 200.259911 
L 254.647934 126.031728 
L 255.073617 176.717381 
L 255.499301 155.220958 
L 255.924984 225.296224 
L 256.350668 161.069618 
L 256.776351 202.869964 
L 257.202034 155.285708 
L 257.627718 165.199968 
L 258.053401 181.082014 
L 258.479085 144.158131 
L 258.904768 185.556676 
L 259.330451 182.302495 
L 259.756135 190.37381 
L 260.181818 182.806372 
L 260.607502 148.61998 
L 261.033185 158.752457 
L 261.458868 146.381509 
L 261.884552 175.036373 
L 262.310235 158.7149 
L 262.735919 161.170943 
L 263.161602 195.726814 
L 263.587285 128.7842 
L 264.012969 162.902923 
L 264.438652 149.684403 
L 264.864336 145.722243 
L 265.290019 166.715497 
L 265.715702 172.132628 
L 266.141386 147.302272 
L 266.567069 187.948653 
L 266.992753 125.335954 
L 267.418436 174.719057 
L 267.84412 132.651076 
L 268.269803 136.045074 
L 268.695486 166.31087 
L 269.12117 156.770646 
L 269.546853 190.53134 
L 269.972537 163.115834 
L 270.39822 148.814038 
L 270.823903 169.252367 
L 271.249587 181.591373 
L 271.67527 186.658453 
L 272.100954 174.663588 
L 272.526637 152.611268 
L 272.95232 185.983077 
L 273.378004 179.488818 
L 273.803687 205.041718 
L 274.229371 168.948113 
L 274.655054 153.20878 
L 275.080737 150.523202 
L 275.506421 166.036407 
L 275.932104 223.300975 
L 276.357788 175.695003 
L 276.783471 177.661812 
L 277.209154 195.993671 
L 277.634838 186.588061 
L 278.060521 209.68493 
L 278.486205 179.120229 
L 279.337572 229.230643 
L 279.763255 205.887882 
L 280.188938 171.531838 
L 280.614622 208.671376 
L 281.040305 188.226688 
L 281.465989 185.58408 
L 281.891672 207.050539 
L 282.317355 216.347119 
L 282.743039 221.932469 
L 283.168722 197.405399 
L 283.594406 236.90132 
L 284.020089 211.575764 
L 284.445772 224.711256 
L 284.871456 267.855104 
L 285.297139 252.032764 
L 285.722823 205.627585 
L 286.148506 230.732688 
L 286.999873 191.541003 
L 287.425556 202.226826 
L 287.85124 220.89901 
L 288.276923 229.175975 
L 288.702606 243.195586 
L 289.12829 208.400885 
L 289.553973 230.94291 
L 289.979657 269.90326 
L 290.40534 250.789505 
L 290.831024 289.609006 
L 291.256707 255.786646 
L 291.68239 307.798544 
L 292.108074 228.494394 
L 292.533757 271.167188 
L 292.959441 268.935554 
L 293.385124 265.544184 
L 293.810807 251.288771 
L 294.236491 251.921493 
L 294.662174 256.214774 
L 295.087858 281.948761 
L 295.513541 300.377794 
L 295.939224 282.01214 
L 296.364908 270.039068 
L 296.790591 294.864744 
L 297.216275 281.018464 
L 297.641958 305.747836 
L 298.067641 283.408787 
L 298.493325 282.334515 
L 298.919008 289.810469 
L 299.344692 291.907701 
L 299.770375 253.444865 
L 300.196058 275.951372 
L 300.621742 270.304391 
L 301.047425 314.272395 
L 301.898792 274.038123 
L 302.324476 300.740255 
L 302.750159 345.347766 
L 303.175842 295.192281 
L 303.601526 343.401648 
L 304.027209 321.915742 
L 304.452893 278.691565 
L 304.878576 294.656683 
L 305.304259 285.902617 
L 305.729943 303.37157 
L 306.155626 313.120133 
L 306.58131 331.097917 
L 307.006993 279.628713 
L 307.432676 312.79134 
L 307.85836 329.492624 
L 308.284043 297.38648 
L 308.709727 293.790563 
L 309.13541 277.392966 
L 309.561093 330.099273 
L 309.986777 326.282258 
L 310.41246 327.357903 
L 310.838144 327.005491 
L 311.263827 327.254803 
L 311.68951 326.158484 
L 312.115194 290.289831 
L 312.540877 335.125287 
L 312.966561 328.893918 
L 313.392244 307.371277 
L 313.817928 297.633874 
L 314.243611 337.191658 
L 314.669294 331.677833 
L 315.094978 310.115188 
L 315.520661 299.694013 
L 316.372028 350.258089 
L 316.797711 284.568014 
L 317.223395 289.922437 
L 317.649078 334.204231 
L 318.074762 320.294958 
L 318.500445 355.06926 
L 318.926128 305.971179 
L 319.351812 283.619077 
L 319.777495 350.625908 
L 320.203179 332.017023 
L 320.628862 328.338915 
L 321.054545 328.322862 
L 321.480229 355.589165 
L 321.905912 301.844329 
L 322.331596 343.185301 
L 322.757279 310.741621 
L 323.182962 296.763286 
L 323.608646 312.09053 
L 324.034329 288.177495 
L 324.460013 306.044725 
L 324.885696 317.703696 
L 325.31138 289.404546 
L 325.737063 310.518512 
L 326.162746 263.123239 
L 326.58843 298.954472 
L 327.014113 279.291609 
L 327.439797 291.224871 
L 327.86548 356.562291 
L 328.291163 320.721357 
L 328.716847 299.423084 
L 329.14253 283.94395 
L 329.568214 335.932039 
L 329.993897 265.315106 
L 330.41958 296.125244 
L 330.845264 297.371523 
L 331.270947 312.216865 
L 331.696631 308.191952 
L 332.122314 274.797918 
L 332.547997 263.39994 
L 332.973681 315.726748 
L 333.399364 290.937405 
L 333.825048 256.821958 
L 334.250731 275.366734 
L 334.676414 218.748508 
L 335.102098 235.813975 
L 335.953465 257.430623 
L 336.379148 249.57511 
L 336.804832 267.949297 
L 337.230515 238.000529 
L 337.656198 218.077262 
L 338.081882 224.163958 
L 338.507565 261.488904 
L 338.933249 276.080913 
L 339.358932 242.447792 
L 339.784615 228.783204 
L 340.210299 207.62799 
L 340.635982 261.044054 
L 341.061666 223.792009 
L 341.487349 224.329598 
L 341.913032 202.138594 
L 342.338716 225.415385 
L 342.764399 230.109192 
L 343.190083 244.398093 
L 343.615766 229.140668 
L 344.041449 223.772324 
L 344.467133 165.14464 
L 344.892816 161.042368 
L 345.3185 213.394077 
L 346.169866 246.907001 
L 346.59555 193.061744 
L 347.021233 224.499255 
L 347.446917 152.210898 
L 347.8726 216.300301 
L 348.298284 193.612387 
L 348.723967 114.657176 
L 349.14965 215.263957 
L 349.575334 183.921083 
L 350.001017 211.582789 
L 350.426701 179.512533 
L 350.852384 203.210618 
L 351.278067 181.709514 
L 351.703751 187.841591 
L 352.129434 204.681701 
L 352.980801 156.247041 
L 353.406484 142.195659 
L 353.832168 202.534849 
L 354.683535 146.996512 
L 355.109218 193.032 
L 355.534901 221.211865 
L 355.960585 186.801411 
L 356.386268 186.267681 
L 356.811952 163.991683 
L 357.237635 172.302999 
L 357.663318 158.032093 
L 358.089002 170.665855 
L 358.514685 153.138188 
L 358.940369 167.67252 
L 359.366052 134.425947 
L 359.791736 173.799571 
L 360.217419 151.661474 
L 360.643102 175.47985 
L 361.068786 152.099635 
L 361.494469 156.867607 
L 361.920153 190.460334 
L 362.771519 129.943908 
L 363.622886 150.930584 
L 364.04857 178.529809 
L 364.474253 129.169947 
L 364.899936 151.767998 
L 365.32562 162.777166 
L 365.751303 119.165523 
L 366.176987 169.464954 
L 367.028353 127.027314 
L 367.454037 141.414619 
L 367.87972 160.643858 
L 368.305404 163.308887 
L 368.731087 147.595006 
L 369.156771 144.752254 
L 369.582454 155.5721 
L 370.008137 129.060284 
L 370.433821 158.516757 
L 370.859504 172.407339 
L 371.285188 147.353093 
L 371.710871 205.192418 
L 372.136554 151.992983 
L 372.562238 150.689607 
L 373.413605 186.232946 
L 373.839288 172.223831 
L 374.264971 132.793388 
L 374.690655 181.697794 
L 375.116338 215.960086 
L 375.542022 151.691252 
L 375.967705 180.323904 
L 376.393388 181.837226 
L 376.819072 197.869727 
L 377.244755 174.421626 
L 377.670439 160.785002 
L 378.096122 189.112287 
L 378.521805 191.033913 
L 378.947489 157.109267 
L 379.373172 186.705662 
L 379.798856 186.512426 
L 380.224539 197.883715 
L 380.650223 167.790493 
L 381.075906 208.990357 
L 381.501589 172.35198 
L 381.927273 175.051954 
L 382.352956 203.397825 
L 382.77864 177.831562 
L 383.204323 176.823566 
L 383.630006 187.286776 
L 384.05569 159.018883 
L 384.481373 244.02069 
L 384.907057 229.372297 
L 385.33274 235.762194 
L 386.184107 178.092022 
L 386.60979 178.179019 
L 387.035474 205.002585 
L 387.461157 198.924724 
L 387.88684 222.310896 
L 388.312524 211.596403 
L 388.738207 215.608046 
L 389.163891 241.384425 
L 389.589574 233.730022 
L 390.015257 232.52111 
L 390.440941 202.76935 
L 390.866624 255.499396 
L 391.292308 280.0324 
L 391.717991 222.070438 
L 392.143675 257.15832 
L 392.569358 251.31657 
L 392.995041 225.452861 
L 393.420725 262.252991 
L 393.846408 255.50846 
L 394.272092 219.140203 
L 394.697775 241.45266 
L 395.123458 243.168275 
L 395.549142 259.297923 
L 395.974825 282.100212 
L 396.400509 291.547195 
L 396.826192 266.952574 
L 397.251875 222.50678 
L 397.677559 261.469258 
L 398.103242 264.520548 
L 398.528926 262.84603 
L 398.954609 279.601873 
L 399.380292 302.488592 
L 399.805976 219.353831 
L 400.231659 285.629966 
L 400.657343 284.70201 
L 401.083026 317.462136 
L 401.508709 286.899512 
L 402.360076 290.160681 
L 402.78576 323.557088 
L 403.211443 250.610357 
L 403.637127 252.463011 
L 404.06281 276.207141 
L 404.488493 314.830842 
L 404.914177 278.301034 
L 405.33986 299.558925 
L 405.765544 302.279636 
L 406.191227 268.378931 
L 406.61691 323.4422 
L 407.042594 309.563673 
L 407.468277 315.14741 
L 407.893961 300.455515 
L 408.319644 334.532603 
L 408.745327 317.268427 
L 409.171011 288.500535 
L 409.596694 294.468111 
L 410.022378 325.138562 
L 410.448061 293.839535 
L 410.873744 356.747898 
L 411.299428 313.694653 
L 411.725111 292.22264 
L 412.150795 321.223615 
L 412.576478 308.616408 
L 413.002161 341.355582 
L 413.427845 290.755404 
L 413.853528 347.156668 
L 414.279212 315.490363 
L 414.704895 314.146432 
L 415.130579 307.584306 
L 415.556262 325.975043 
L 415.981945 270.615013 
L 416.407629 338.37131 
L 416.833312 303.086652 
L 417.258996 369.36 
L 417.684679 307.7533 
L 418.110362 296.813361 
L 418.536046 329.597216 
L 418.961729 291.833041 
L 419.387413 299.080075 
L 419.813096 285.040343 
L 420.238779 322.295478 
L 420.664463 324.240558 
L 421.090146 340.165986 
L 421.51583 309.167048 
L 421.941513 329.472665 
L 422.367196 286.330017 
L 422.79288 298.210276 
L 423.218563 253.058346 
L 423.644247 321.71889 
L 424.06993 271.864642 
L 424.495613 306.296281 
L 424.921297 324.435493 
L 425.34698 280.890302 
L 425.772664 321.372829 
L 426.624031 304.024568 
L 427.049714 282.912876 
L 427.475397 306.62604 
L 427.901081 261.833053 
L 428.326764 307.690784 
L 428.752448 276.59033 
L 429.178131 276.472635 
L 429.603814 299.967134 
L 430.029498 284.971399 
L 430.455181 287.953125 
L 430.880865 252.506034 
L 431.306548 238.251714 
L 431.732231 290.491174 
L 432.157915 247.538212 
L 432.583598 266.579511 
L 433.009282 304.044295 
L 433.860648 249.49537 
L 434.286332 254.061516 
L 434.712015 305.921475 
L 435.137699 240.895695 
L 435.563382 237.259419 
L 435.989065 255.151085 
L 436.414749 261.433665 
L 436.840432 203.494824 
L 437.266116 244.298073 
L 437.691799 240.561153 
L 438.117483 261.507673 
L 438.543166 263.930927 
L 438.968849 265.479069 
L 439.394533 240.352564 
L 439.820216 201.020669 
L 440.2459 190.641838 
L 440.671583 192.308296 
L 441.097266 195.769982 
L 441.52295 225.537856 
L 441.948633 243.897363 
L 442.374317 223.038169 
L 442.8 264.282844 
L 443.651367 175.112282 
L 444.07705 204.807795 
L 444.502734 182.564732 
L 444.928417 193.071316 
L 445.3541 217.377039 
L 445.779784 162.733194 
L 446.205467 198.607384 
L 446.631151 215.236388 
L 447.056834 191.402775 
L 447.482517 222.491788 
L 447.908201 170.869556 
L 448.333884 176.445747 
L 448.759568 192.341723 
L 449.185251 193.210332 
L 449.610935 161.644762 
L 450.036618 201.423998 
L 450.462301 197.96181 
L 450.887985 166.837336 
L 451.313668 183.317908 
L 451.739352 152.922124 
L 452.165035 174.643215 
L 452.590718 143.965426 
L 453.016402 156.921634 
L 453.442085 212.442472 
L 453.867769 191.959498 
L 454.293452 135.930657 
L 454.719135 146.815937 
L 455.144819 179.948699 
L 455.570502 186.48016 
L 455.996186 135.600321 
L 456.421869 172.777515 
L 456.847552 117.116102 
L 457.273236 116.574496 
L 457.698919 182.659998 
L 458.124603 168.901237 
L 458.550286 176.313075 
L 458.975969 135.393213 
L 459.401653 175.263929 
L 459.827336 189.901399 
L 460.25302 104.589014 
L 460.678703 124.981149 
L 461.104387 128.209648 
L 461.53007 158.412205 
L 462.381437 130.534584 
L 462.80712 169.647982 
L 463.232804 145.11714 
L 463.658487 138.494438 
L 464.08417 106.575738 
L 464.509854 128.201812 
L 464.935537 114.66414 
L 465.786904 164.313401 
L 466.212587 148.181567 
L 466.638271 175.809094 
L 467.063954 121.861465 
L 467.489638 111.834034 
L 467.915321 142.849464 
L 468.341004 162.227333 
L 468.766688 119.45407 
L 469.192371 139.561676 
L 469.618055 150.929479 
L 470.043738 119.951285 
L 470.469421 159.714994 
L 470.895105 120.535784 
L 471.320788 162.658121 
L 471.746472 137.646143 
L 472.172155 127.975993 
L 472.597839 175.157269 
L 473.023522 139.89787 
L 473.449205 151.416535 
L 473.874889 135.966717 
L 474.300572 167.472321 
L 474.726256 153.907344 
L 475.151939 124.399421 
L 475.577622 150.831074 
L 476.003306 138.386191 
L 476.854673 179.501765 
L 477.280356 159.614134 
L 478.131723 216.252244 
L 478.557406 139.271868 
L 478.98309 187.762772 
L 479.408773 204.694345 
L 479.834456 147.492751 
L 480.26014 170.080924 
L 480.685823 183.968366 
L 481.111507 176.861908 
L 481.53719 183.739572 
L 481.962873 155.846613 
L 482.388557 163.223368 
L 482.81424 216.152069 
L 483.239924 174.652563 
L 483.665607 168.730816 
L 484.091291 171.832844 
L 484.516974 238.161745 
L 485.368341 150.300032 
L 485.794024 176.909844 
L 486.219708 231.102721 
L 486.645391 232.157485 
L 487.071074 189.29073 
L 487.496758 205.181258 
L 487.922441 183.577144 
L 488.348125 199.539071 
L 488.773808 206.039817 
L 489.199491 205.976509 
L 489.625175 208.420946 
L 490.050858 240.418635 
L 490.476542 167.118322 
L 490.902225 247.567945 
L 491.327908 220.600156 
L 491.753592 233.677647 
L 492.179275 186.929272 
L 492.604959 205.443756 
L 493.030642 240.336267 
L 493.456325 226.386854 
L 494.307692 188.198826 
L 494.733376 230.530639 
L 495.159059 260.573822 
L 495.584743 261.36079 
L 496.010426 201.089718 
L 496.436109 287.98649 
L 496.861793 183.161506 
L 497.287476 254.204156 
L 497.71316 260.146902 
L 498.138843 249.297454 
L 498.564526 235.009896 
L 498.99021 249.993622 
L 499.415893 298.872472 
L 499.841577 252.551306 
L 500.26726 252.296111 
L 500.692943 249.671856 
L 501.54431 316.169239 
L 501.969994 275.170685 
L 502.395677 289.676255 
L 502.82136 287.518622 
L 503.247044 292.953322 
L 503.672727 282.857202 
L 504.098411 282.490388 
L 504.524094 260.82328 
L 504.949777 258.215586 
L 505.375461 296.629289 
L 505.801144 287.780663 
L 506.226828 275.042313 
L 506.652511 254.610893 
L 507.503878 321.353342 
L 507.929561 282.167887 
L 508.355245 290.463282 
L 508.780928 251.993536 
L 509.206612 282.646708 
L 509.632295 303.611747 
L 510.057978 300.568523 
L 510.483662 302.665833 
L 510.909345 288.93825 
L 511.335029 289.758578 
L 511.760712 274.920902 
L 513.037762 314.96058 
L 513.463446 282.489105 
L 513.889129 297.300974 
L 514.314812 292.422562 
L 514.740496 273.416503 
L 515.166179 260.028398 
L 515.591863 316.45708 
L 516.017546 262.344441 
L 516.443229 314.596384 
L 516.868913 290.883923 
L 517.294596 291.634512 
L 517.72028 301.812762 
L 518.145963 266.721041 
L 518.571647 209.372904 
L 518.99733 281.277856 
L 519.423013 294.865701 
L 519.848697 313.489707 
L 520.27438 268.222652 
L 520.700064 336.414813 
L 521.125747 303.203026 
L 521.55143 323.628534 
L 521.977114 286.693622 
L 522.402797 284.402604 
L 522.828481 312.332214 
L 523.254164 274.531501 
L 523.679847 308.621268 
L 524.105531 272.334323 
L 524.531214 280.023753 
L 524.956898 268.940072 
L 525.382581 302.203638 
L 525.808264 279.432951 
L 526.233948 289.778966 
L 526.659631 309.408924 
L 527.510998 239.069702 
L 527.936682 288.059013 
L 528.362365 277.218017 
L 528.788048 257.152984 
L 529.213732 269.172915 
L 529.639415 227.815049 
L 530.065099 251.281978 
L 530.490782 216.583098 
L 531.342149 285.055411 
L 531.767832 250.853888 
L 532.193516 277.054963 
L 532.619199 276.906997 
L 533.044882 257.979129 
L 533.470566 232.652566 
L 533.896249 242.991372 
L 534.321933 231.220737 
L 534.747616 227.10812 
L 535.173299 247.730885 
L 535.598983 292.146179 
L 536.024666 223.457747 
L 536.45035 192.766321 
L 536.876033 234.632858 
L 537.301716 261.954962 
L 537.7274 239.253512 
L 538.153083 248.91793 
L 539.00445 211.040675 
L 539.430134 204.899608 
L 539.855817 215.866262 
L 540.2815 238.03225 
L 540.707184 199.442243 
L 541.132867 186.100601 
L 541.558551 165.081633 
L 541.984234 220.078956 
L 542.835601 180.544855 
L 543.261284 205.650382 
L 543.686968 190.113309 
L 544.538334 199.515478 
L 544.964018 191.054145 
L 545.389701 172.329914 
L 545.815385 181.787375 
L 546.241068 197.910957 
L 546.666751 232.760653 
L 547.092435 200.591926 
L 547.518118 182.391874 
L 547.943802 232.322803 
L 548.369485 131.876872 
L 548.795168 206.961172 
L 549.220852 198.167684 
L 549.646535 141.686967 
L 550.072219 215.765826 
L 550.497902 152.875259 
L 550.923586 173.590963 
L 551.349269 155.113885 
L 551.774952 144.536878 
L 552.200636 181.048237 
L 552.626319 174.074282 
L 553.052003 220.126249 
L 553.477686 176.078576 
L 553.903369 146.54046 
L 554.329053 142.380824 
L 554.754736 109.158528 
L 555.18042 148.563553 
L 555.606103 138.819178 
L 556.031786 145.532162 
L 556.45747 155.888444 
L 556.883153 128.849112 
L 557.73452 139.301153 
L 558.160203 157.8302 
L 559.01157 122.405182 
L 559.437254 123.587466 
L 559.862937 146.780311 
L 560.28862 149.763611 
L 560.714304 124.294331 
L 561.139987 112.331228 
L 561.565671 130.918109 
L 561.991354 139.278838 
L 562.417038 150.465298 
L 562.842721 140.276238 
L 563.268404 161.907263 
L 563.694088 145.07889 
L 564.119771 106.499191 
L 564.545455 106.624557 
L 564.971138 147.62916 
L 565.396821 124.858492 
L 565.822505 127.618157 
L 566.248188 163.571351 
L 566.673872 111.974392 
L 567.099555 168.688291 
L 567.525238 154.866164 
L 567.950922 108.201553 
L 568.376605 140.418281 
L 568.802289 133.871812 
L 569.227972 163.421257 
L 569.653655 160.185477 
L 570.079339 123.031697 
L 571.356389 159.608697 
L 571.782072 155.279245 
L 572.207756 90.662073 
L 572.633439 140.58758 
L 573.059123 118.425131 
L 573.484806 119.010726 
L 573.91049 120.330561 
L 574.336173 131.006421 
L 574.761856 164.204108 
L 575.18754 160.162991 
L 575.613223 124.547914 
L 576.038907 168.570227 
L 576.46459 131.488364 
L 576.890273 154.800966 
L 577.315957 153.239782 
L 577.74164 162.688037 
L 578.167324 152.377268 
L 578.593007 130.695793 
L 579.01869 140.944279 
L 579.444374 156.706825 
L 579.870057 135.248596 
L 580.295741 120.421439 
L 580.721424 156.634641 
L 581.147107 148.320955 
L 581.572791 153.981233 
L 581.998474 181.836867 
L 582.424158 182.489398 
L 582.849841 124.94878 
L 583.275524 148.365071 
L 583.701208 153.076601 
L 584.126891 167.300434 
L 584.552575 162.128864 
L 584.978258 170.96723 
L 585.403942 175.169595 
L 585.829625 173.326257 
L 586.255308 200.986483 
L 586.680992 131.892228 
L 587.106675 167.200774 
L 587.532359 191.149891 
L 587.958042 162.675793 
L 588.383725 203.047159 
L 588.809409 156.385258 
L 589.660776 244.522097 
L 590.086459 169.823381 
L 590.512142 176.737646 
L 590.937826 218.541829 
L 591.363509 233.883037 
L 591.789193 244.81146 
L 592.214876 214.292375 
L 592.640559 248.982946 
L 593.491926 211.544122 
L 593.91761 199.207546 
L 594.343293 236.180264 
L 594.768976 223.735187 
L 595.19466 217.899997 
L 595.620343 189.441858 
L 596.046027 247.242332 
L 596.47171 262.704681 
L 596.897394 269.725018 
L 597.323077 221.677555 
L 597.74876 236.463339 
L 598.174444 221.063314 
L 598.600127 241.994705 
L 599.025811 232.762557 
L 599.877177 244.165824 
L 600.302861 259.445294 
L 600.728544 221.961772 
L 601.154228 258.456934 
L 601.579911 237.836019 
L 602.005594 249.984853 
L 602.431278 217.957906 
L 603.282645 265.307713 
L 603.708328 260.009997 
L 604.134011 263.937515 
L 604.559695 306.350474 
L 604.985378 228.863598 
L 605.411062 243.446201 
L 605.836745 282.920898 
L 606.262428 260.292622 
L 606.688112 264.465801 
L 607.113795 294.310618 
L 607.539479 240.839181 
L 607.965162 278.162326 
L 608.390846 270.233493 
L 608.816529 266.641602 
L 609.242212 296.752719 
L 609.667896 299.572389 
L 610.093579 278.83914 
L 610.519263 266.642036 
L 610.944946 277.867084 
L 611.370629 265.408676 
L 611.796313 273.792328 
L 612.221996 270.01118 
L 612.64768 311.144314 
L 613.073363 268.30848 
L 613.499046 299.30243 
L 614.350413 285.74158 
L 614.776097 318.154039 
L 615.20178 286.113766 
L 616.053147 299.264449 
L 616.47883 295.892979 
L 616.904514 258.380854 
L 617.330197 310.480424 
L 617.75588 288.614419 
L 618.181564 335.437486 
L 618.607247 297.745648 
L 619.032931 293.846505 
L 619.458614 250.920564 
L 619.884298 302.678806 
L 620.309981 300.340639 
L 620.735664 310.764073 
L 621.161348 277.326128 
L 621.587031 256.39758 
L 622.012715 304.718622 
L 622.438398 287.878382 
L 622.864081 249.752637 
L 623.289765 291.621236 
L 623.715448 262.185267 
L 624.141132 267.398617 
L 624.566815 301.701451 
L 624.992498 248.103847 
L 625.418182 255.783825 
L 625.843865 281.3642 
L 626.269549 288.823119 
L 626.695232 276.874422 
L 627.120915 250.486388 
L 627.972282 303.755887 
L 628.397966 266.258506 
L 628.823649 245.72669 
L 629.249332 284.435376 
L 629.675016 263.687229 
L 630.100699 282.592877 
L 630.526383 253.062542 
L 630.952066 256.58102 
L 631.37775 252.81102 
L 631.803433 263.326218 
L 632.229116 263.358021 
L 632.6548 228.613229 
L 633.080483 242.730299 
L 633.506167 246.937866 
L 633.93185 308.072918 
L 634.783217 221.350837 
L 635.2089 243.731888 
L 635.634584 258.418508 
L 636.060267 240.366944 
L 636.48595 236.985633 
L 636.911634 237.53429 
L 637.763001 191.206568 
L 638.188684 200.181475 
L 638.614367 192.668547 
L 639.040051 223.348311 
L 639.465734 196.726549 
L 639.891418 232.581753 
L 640.317101 212.865898 
L 640.742784 162.254629 
L 641.168468 205.857116 
L 642.019835 213.369935 
L 642.871202 152.933179 
L 643.296885 186.029265 
L 643.722568 197.868653 
L 644.148252 147.042974 
L 644.573935 204.290514 
L 644.999619 162.327197 
L 645.425302 192.517992 
L 645.850985 202.878917 
L 646.276669 154.08222 
L 646.702352 214.833864 
L 647.128036 181.660694 
L 647.553719 172.830635 
L 647.979402 180.301135 
L 648.405086 203.162426 
L 648.830769 180.376761 
L 649.256453 197.448729 
L 649.682136 122.973775 
L 650.107819 199.764413 
L 650.533503 203.03267 
L 650.959186 142.729948 
L 651.38487 136.492927 
L 651.810553 157.643248 
L 652.236236 156.065425 
L 653.087603 119.114481 
L 653.513287 179.685731 
L 653.93897 117.71535 
L 654.364654 139.182355 
L 654.790337 148.749535 
L 655.21602 113.781181 
L 655.641704 119.055841 
L 656.067387 110.550278 
L 656.493071 141.819651 
L 656.918754 118.212604 
L 657.344437 126.893255 
L 657.770121 142.546102 
L 658.195804 93.932094 
L 658.621488 125.982174 
L 659.047171 129.352509 
L 659.472854 116.105815 
L 659.898538 117.96819 
L 660.324221 139.80187 
L 660.749905 125.271794 
L 661.175588 68.984692 
L 661.601271 123.962043 
L 662.026955 127.844194 
L 662.452638 105.651767 
L 662.878322 111.916232 
L 663.304005 130.878675 
L 663.729688 141.660357 
L 664.155372 100.940984 
L 664.581055 115.678085 
L 665.006739 107.715936 
L 665.432422 123.494865 
L 665.858106 151.562794 
L 666.283789 115.485294 
L 666.709472 66.96 
L 667.135156 147.101027 
L 667.560839 137.113393 
L 667.986523 144.435511 
L 668.412206 124.271899 
L 668.837889 88.006952 
L 669.263573 120.153909 
L 669.689256 122.516085 
L 670.11494 144.324466 
L 670.540623 116.465491 
L 670.966306 96.658111 
L 671.39199 71.597777 
L 671.817673 91.805198 
L 672.243357 137.881611 
L 672.66904 130.858702 
L 673.094723 108.397485 
L 673.520407 121.987938 
L 673.94609 116.823157 
L 674.371774 150.727759 
L 674.797457 133.15962 
L 675.22314 144.50725 
L 675.648824 145.536876 
L 676.074507 142.203663 
L 676.500191 136.95158 
L 676.925874 129.55985 
L 677.351558 117.424102 
L 677.777241 142.450809 
L 678.202924 150.966006 
L 678.628608 100.760168 
L 679.054291 115.080823 
L 679.479975 122.667857 
L 679.905658 103.212468 
L 680.331341 160.474363 
L 680.757025 98.947649 
L 681.608392 138.386401 
L 682.034075 133.408154 
L 682.459758 146.802483 
L 682.885442 152.088869 
L 683.311125 184.347476 
L 683.736809 137.806288 
L 684.162492 110.44071 
L 684.588175 113.356612 
L 685.013859 155.200702 
L 685.439542 162.859012 
L 685.865226 158.718967 
L 686.290909 140.560296 
L 686.716592 135.600403 
L 687.142276 159.839763 
L 687.567959 147.107849 
L 687.993643 172.883211 
L 688.419326 163.966218 
L 688.84501 151.665667 
L 689.270693 102.589549 
L 689.696376 181.586074 
L 690.12206 196.443806 
L 690.547743 175.311359 
L 690.973427 195.131874 
L 691.39911 175.529498 
L 691.824793 183.744028 
L 692.250477 165.52702 
L 692.67616 215.030979 
L 693.101844 222.243709 
L 693.527527 166.565581 
L 694.378894 222.604077 
L 694.804577 227.832446 
L 695.230261 219.037927 
L 695.655944 197.289143 
L 696.081627 222.619861 
L 696.507311 185.717694 
L 696.932994 210.610841 
L 697.358678 213.614825 
L 698.210045 227.851842 
L 698.635728 227.095792 
L 699.061411 201.440516 
L 699.487095 255.326088 
L 699.912778 206.68118 
L 700.338462 238.482321 
L 700.764145 217.70216 
L 701.189828 236.026734 
L 701.615512 264.618177 
L 702.041195 231.099118 
L 702.466879 253.335273 
L 702.892562 218.291501 
L 703.318245 260.600424 
L 703.743929 282.207512 
L 704.169612 264.327126 
L 704.595296 259.986493 
L 705.020979 266.770396 
L 705.446662 255.968979 
L 705.872346 264.83485 
L 706.298029 262.361218 
L 706.723713 248.300798 
L 707.149396 280.658042 
L 707.575079 241.821477 
L 708.000763 258.903712 
L 708.426446 260.793455 
L 708.85213 303.513771 
L 709.277813 268.42171 
L 709.703497 274.722906 
L 710.12918 246.449063 
L 710.554863 236.027379 
L 710.980547 240.200882 
L 711.40623 289.839172 
L 711.831914 283.974506 
L 712.257597 269.948074 
L 712.68328 290.795354 
L 713.108964 302.725111 
L 713.534647 253.349374 
L 713.960331 268.888735 
L 714.386014 257.928658 
L 714.811697 296.152078 
L 715.237381 278.489791 
L 715.663064 296.047252 
L 716.088748 289.120787 
L 716.514431 267.205891 
L 716.940114 289.039113 
L 717.365798 292.780645 
L 717.791481 299.262291 
L 718.217165 301.840075 
L 718.642848 289.790915 
L 719.068531 236.120608 
L 719.494215 285.010603 
L 719.919898 294.224889 
L 720.345582 299.941444 
L 720.771265 273.371536 
L 721.196949 277.955817 
L 721.622632 263.95624 
L 722.048315 274.500182 
L 722.473999 249.885248 
L 722.899682 252.253964 
L 723.325366 244.495569 
L 723.751049 260.609481 
L 724.176732 241.6023 
L 724.602416 265.492379 
L 725.028099 243.493453 
L 725.453783 265.197316 
L 726.305149 285.129654 
L 726.730833 273.310529 
L 727.156516 272.92037 
L 727.5822 244.057935 
L 728.433566 266.518776 
L 728.85925 270.698838 
L 729.284933 219.027449 
L 729.710617 253.981376 
L 730.1363 273.53289 
L 730.561983 254.9046 
L 730.987667 242.392045 
L 731.41335 225.33236 
L 731.839034 242.767768 
L 732.264717 236.944949 
L 732.690401 259.169309 
L 733.116084 219.133377 
L 733.541767 231.817739 
L 734.393134 197.932066 
L 734.818818 224.513118 
L 735.670184 240.312054 
L 736.095868 234.341465 
L 736.521551 239.374423 
L 736.947235 210.571416 
L 737.372918 246.790853 
L 737.798601 250.495784 
L 738.224285 225.942653 
L 738.649968 187.33943 
L 739.075652 205.239064 
L 739.501335 215.951596 
L 739.927018 189.553128 
L 740.352702 208.658724 
L 741.204069 195.46163 
L 741.629752 172.114123 
L 742.055435 165.677035 
L 742.481119 163.691748 
L 742.906802 167.816831 
L 742.906802 167.816831 
" style="fill:none;stroke:#1f77b4;stroke-linecap:square;stroke-width:1.5;"/>
   </g>
   <g id="line2d_16">
    <path clip-path="url(#p58b8a2bfbf)" d="M 747.163636 384.48 
L 747.163636 51.84 
" style="fill:none;stroke:#808080;stroke-linecap:square;"/>
   </g>
   <g id="patch_87">
    <path d="M 108 384.48 
L 108 51.84 
" style="fill:none;stroke:#000000;stroke-linecap:square;stroke-linejoin:miter;stroke-width:0.8;"/>
   </g>
   <g id="patch_88">
    <path d="M 777.6 384.48 
L 777.6 51.84 
" style="fill:none;stroke:#000000;stroke-linecap:square;stroke-linejoin:miter;stroke-width:0.8;"/>
   </g>
   <g id="patch_89">
    <path d="M 108 384.48 
L 777.6 384.48 
" style="fill:none;stroke:#000000;stroke-linecap:square;stroke-linejoin:miter;stroke-width:0.8;"/>
   </g>
   <g id="patch_90">
    <path d="M 108 51.84 
L 777.6 51.84 
" style="fill:none;stroke:#000000;stroke-linecap:square;stroke-linejoin:miter;stroke-width:0.8;"/>
   </g>
   <g id="text_17">
    <!-- synthetic_36.csv -->
    <defs>
     <path d="M 32.171875 -5.078125 
Q 28.375 -14.84375 24.75 -17.8125 
Q 21.140625 -20.796875 15.09375 -20.796875 
L 7.90625 -20.796875 
L 7.90625 -13.28125 
L 13.1875 -13.28125 
Q 16.890625 -13.28125 18.9375 -11.515625 
Q 21 -9.765625 23.484375 -3.21875 
L 25.09375 0.875 
L 2.984375 54.6875 
L 12.5 54.6875 
L 29.59375 11.921875 
L 46.6875 54.6875 
L 56.203125 54.6875 
z
" id="DejaVuSans-121"/>
     <path d="M 54.890625 33.015625 
L 54.890625 0 
L 45.90625 0 
L 45.90625 32.71875 
Q 45.90625 40.484375 42.875 44.328125 
Q 39.84375 48.1875 33.796875 48.1875 
Q 26.515625 48.1875 22.3125 43.546875 
Q 18.109375 38.921875 18.109375 30.90625 
L 18.109375 0 
L 9.078125 0 
L 9.078125 54.6875 
L 18.109375 54.6875 
L 18.109375 46.1875 
Q 21.34375 51.125 25.703125 53.5625 
Q 30.078125 56 35.796875 56 
Q 45.21875 56 50.046875 50.171875 
Q 54.890625 44.34375 54.890625 33.015625 
z
" id="DejaVuSans-110"/>
     <path d="M 54.890625 33.015625 
L 54.890625 0 
L 45.90625 0 
L 45.90625 32.71875 
Q 45.90625 40.484375 42.875 44.328125 
Q 39.84375 48.1875 33.796875 48.1875 
Q 26.515625 48.1875 22.3125 43.546875 
Q 18.109375 38.921875 18.109375 30.90625 
L 18.109375 0 
L 9.078125 0 
L 9.078125 75.984375 
L 18.109375 75.984375 
L 18.109375 46.1875 
Q 21.34375 51.125 25.703125 53.5625 
Q 30.078125 56 35.796875 56 
Q 45.21875 56 50.046875 50.171875 
Q 54.890625 44.34375 54.890625 33.015625 
z
" id="DejaVuSans-104"/>
     <path d="M 48.78125 52.59375 
L 48.78125 44.1875 
Q 44.96875 46.296875 41.140625 47.34375 
Q 37.3125 48.390625 33.40625 48.390625 
Q 24.65625 48.390625 19.8125 42.84375 
Q 14.984375 37.3125 14.984375 27.296875 
Q 14.984375 17.28125 19.8125 11.734375 
Q 24.65625 6.203125 33.40625 6.203125 
Q 37.3125 6.203125 41.140625 7.25 
Q 44.96875 8.296875 48.78125 10.40625 
L 48.78125 2.09375 
Q 45.015625 0.34375 40.984375 -0.53125 
Q 36.96875 -1.421875 32.421875 -1.421875 
Q 20.0625 -1.421875 12.78125 6.34375 
Q 5.515625 14.109375 5.515625 27.296875 
Q 5.515625 40.671875 12.859375 48.328125 
Q 20.21875 56 33.015625 56 
Q 37.15625 56 41.109375 55.140625 
Q 45.0625 54.296875 48.78125 52.59375 
z
" id="DejaVuSans-99"/>
     <path d="M 50.984375 -16.609375 
L 50.984375 -23.578125 
L -0.984375 -23.578125 
L -0.984375 -16.609375 
z
" id="DejaVuSans-95"/>
     <path d="M 10.6875 12.40625 
L 21 12.40625 
L 21 0 
L 10.6875 0 
z
" id="DejaVuSans-46"/>
     <path d="M 2.984375 54.6875 
L 12.5 54.6875 
L 29.59375 8.796875 
L 46.6875 54.6875 
L 56.203125 54.6875 
L 35.6875 0 
L 23.484375 0 
z
" id="DejaVuSans-118"/>
    </defs>
    <g transform="translate(392.638125 45.84)scale(0.12 -0.12)">
     <use xlink:href="#DejaVuSans-115"/>
     <use x="52.099609" xlink:href="#DejaVuSans-121"/>
     <use x="111.279297" xlink:href="#DejaVuSans-110"/>
     <use x="174.658203" xlink:href="#DejaVuSans-116"/>
     <use x="213.867188" xlink:href="#DejaVuSans-104"/>
     <use x="277.246094" xlink:href="#DejaVuSans-101"/>
     <use x="338.769531" xlink:href="#DejaVuSans-116"/>
     <use x="377.978516" xlink:href="#DejaVuSans-105"/>
     <use x="405.761719" xlink:href="#DejaVuSans-99"/>
     <use x="460.742188" xlink:href="#DejaVuSans-95"/>
     <use x="510.742188" xlink:href="#DejaVuSans-51"/>
     <use x="574.365234" xlink:href="#DejaVuSans-54"/>
     <use x="637.988281" xlink:href="#DejaVuSans-46"/>
     <use x="669.775391" xlink:href="#DejaVuSans-99"/>
     <use x="724.755859" xlink:href="#DejaVuSans-115"/>
     <use x="776.855469" xlink:href="#DejaVuSans-118"/>
    </g>
   </g>
   <g id="legend_1">
    <g id="patch_91">
     <path d="M 115 74.518125 
L 174.315625 74.518125 
Q 176.315625 74.518125 176.315625 72.518125 
L 176.315625 58.84 
Q 176.315625 56.84 174.315625 56.84 
L 115 56.84 
Q 113 56.84 113 58.84 
L 113 72.518125 
Q 113 74.518125 115 74.518125 
z
" style="fill:#ffffff;opacity:0.8;stroke:#cccccc;stroke-linejoin:miter;"/>
    </g>
    <g id="line2d_17">
     <path d="M 117 64.938438 
L 137 64.938438 
" style="fill:none;stroke:#1f77b4;stroke-linecap:square;stroke-width:1.5;"/>
    </g>
    <g id="line2d_18"/>
    <g id="text_18">
     <!-- value -->
     <g transform="translate(145 68.438438)scale(0.1 -0.1)">
      <use xlink:href="#DejaVuSans-118"/>
      <use x="59.179688" xlink:href="#DejaVuSans-97"/>
      <use x="120.458984" xlink:href="#DejaVuSans-108"/>
      <use x="148.242188" xlink:href="#DejaVuSans-117"/>
      <use x="211.621094" xlink:href="#DejaVuSans-101"/>
     </g>
    </g>
   </g>
  </g>
 </g>
 <defs>
  <clipPath id="p58b8a2bfbf">
   <rect height="332.64" width="669.6" x="108" y="51.84"/>
  </clipPath>
 </defs>
</svg>
