<?xml version="1.0" encoding="utf-8" standalone="no"?>
<!DOCTYPE svg PUBLIC "-//W3C//DTD SVG 1.1//EN"
  "http://www.w3.org/Graphics/SVG/1.1/DTD/svg11.dtd">
<!-- Created with matplotlib (https://matplotlib.org/) -->
<svg height="432pt" version="1.1" viewBox="0 0 864 432" width="864pt" xmlns="http://www.w3.org/2000/svg" xmlns:xlink="http://www.w3.org/1999/xlink">
 <defs>
  <style type="text/css">
*{stroke-linecap:butt;stroke-linejoin:round;}
  </style>
 </defs>
 <g id="figure_1">
  <g id="patch_1">
   <path d="M 0 432 
L 864 432 
L 864 0 
L 0 0 
z
" style="fill:#ffffff;"/>
  </g>
  <g id="axes_1">
   <g id="patch_2">
    <path d="M 108 384.48 
L 777.6 384.48 
L 777.6 51.84 
L 108 51.84 
z
" style="fill:#ffffff;"/>
   </g>
   <g id="patch_3">
    <path clip-path="url(#p5b32dd48c2)" d="M 138.436364 384.48 
L 138.436364 51.84 
L 440.671583 51.84 
L 440.671583 384.48 
z
" style="fill:#0000ff;opacity:0.05;"/>
   </g>
   <g id="patch_4">
    <path clip-path="url(#p5b32dd48c2)" d="M 440.671583 384.48 
L 440.671583 51.84 
L 747.163636 51.84 
L 747.163636 384.48 
z
" style="fill:#ff0000;opacity:0.08;"/>
   </g>
   <g id="patch_5">
    <path clip-path="url(#p5b32dd48c2)" d="M 138.436364 384.48 
L 138.436364 51.84 
L 142.693198 51.84 
L 142.693198 384.48 
z
" style="fill:#008000;opacity:0.04;"/>
   </g>
   <g id="patch_6">
    <path clip-path="url(#p5b32dd48c2)" d="M 146.950032 384.48 
L 146.950032 51.84 
L 151.206866 51.84 
L 151.206866 384.48 
z
" style="fill:#008000;opacity:0.04;"/>
   </g>
   <g id="patch_7">
    <path clip-path="url(#p5b32dd48c2)" d="M 151.206866 384.48 
L 151.206866 371.1744 
L 155.4637 371.1744 
L 155.4637 384.48 
z
" style="fill:#ffe500;"/>
   </g>
   <g id="patch_8">
    <path clip-path="url(#p5b32dd48c2)" d="M 155.4637 384.48 
L 155.4637 51.84 
L 159.720534 51.84 
L 159.720534 384.48 
z
" style="fill:#008000;opacity:0.04;"/>
   </g>
   <g id="patch_9">
    <path clip-path="url(#p5b32dd48c2)" d="M 163.977368 384.48 
L 163.977368 51.84 
L 168.234202 51.84 
L 168.234202 384.48 
z
" style="fill:#008000;opacity:0.04;"/>
   </g>
   <g id="patch_10">
    <path clip-path="url(#p5b32dd48c2)" d="M 172.491036 384.48 
L 172.491036 51.84 
L 176.74787 51.84 
L 176.74787 384.48 
z
" style="fill:#008000;opacity:0.04;"/>
   </g>
   <g id="patch_11">
    <path clip-path="url(#p5b32dd48c2)" d="M 181.004704 384.48 
L 181.004704 51.84 
L 185.261538 51.84 
L 185.261538 384.48 
z
" style="fill:#008000;opacity:0.04;"/>
   </g>
   <g id="patch_12">
    <path clip-path="url(#p5b32dd48c2)" d="M 189.518373 384.48 
L 189.518373 51.84 
L 193.775207 51.84 
L 193.775207 384.48 
z
" style="fill:#008000;opacity:0.04;"/>
   </g>
   <g id="patch_13">
    <path clip-path="url(#p5b32dd48c2)" d="M 198.032041 384.48 
L 198.032041 51.84 
L 202.288875 51.84 
L 202.288875 384.48 
z
" style="fill:#008000;opacity:0.04;"/>
   </g>
   <g id="patch_14">
    <path clip-path="url(#p5b32dd48c2)" d="M 206.545709 384.48 
L 206.545709 51.84 
L 210.802543 51.84 
L 210.802543 384.48 
z
" style="fill:#008000;opacity:0.04;"/>
   </g>
   <g id="patch_15">
    <path clip-path="url(#p5b32dd48c2)" d="M 215.059377 384.48 
L 215.059377 51.84 
L 219.316211 51.84 
L 219.316211 384.48 
z
" style="fill:#008000;opacity:0.04;"/>
   </g>
   <g id="patch_16">
    <path clip-path="url(#p5b32dd48c2)" d="M 517.294596 384.48 
L 517.294596 371.1744 
L 521.55143 371.1744 
L 521.55143 384.48 
z
" style="fill:#ff6600;"/>
   </g>
   <g id="patch_17">
    <path clip-path="url(#p5b32dd48c2)" d="M 223.573045 384.48 
L 223.573045 51.84 
L 227.829879 51.84 
L 227.829879 384.48 
z
" style="fill:#008000;opacity:0.04;"/>
   </g>
   <g id="patch_18">
    <path clip-path="url(#p5b32dd48c2)" d="M 232.086713 384.48 
L 232.086713 51.84 
L 236.343547 51.84 
L 236.343547 384.48 
z
" style="fill:#008000;opacity:0.04;"/>
   </g>
   <g id="patch_19">
    <path clip-path="url(#p5b32dd48c2)" d="M 240.600381 384.48 
L 240.600381 51.84 
L 244.857216 51.84 
L 244.857216 384.48 
z
" style="fill:#008000;opacity:0.04;"/>
   </g>
   <g id="patch_20">
    <path clip-path="url(#p5b32dd48c2)" d="M 249.11405 384.48 
L 249.11405 51.84 
L 253.370884 51.84 
L 253.370884 384.48 
z
" style="fill:#008000;opacity:0.04;"/>
   </g>
   <g id="patch_21">
    <path clip-path="url(#p5b32dd48c2)" d="M 257.627718 384.48 
L 257.627718 51.84 
L 261.884552 51.84 
L 261.884552 384.48 
z
" style="fill:#008000;opacity:0.04;"/>
   </g>
   <g id="patch_22">
    <path clip-path="url(#p5b32dd48c2)" d="M 266.141386 384.48 
L 266.141386 51.84 
L 270.39822 51.84 
L 270.39822 384.48 
z
" style="fill:#008000;opacity:0.04;"/>
   </g>
   <g id="patch_23">
    <path clip-path="url(#p5b32dd48c2)" d="M 274.655054 384.48 
L 274.655054 51.84 
L 278.911888 51.84 
L 278.911888 384.48 
z
" style="fill:#008000;opacity:0.04;"/>
   </g>
   <g id="patch_24">
    <path clip-path="url(#p5b32dd48c2)" d="M 283.168722 384.48 
L 283.168722 51.84 
L 287.425556 51.84 
L 287.425556 384.48 
z
" style="fill:#008000;opacity:0.04;"/>
   </g>
   <g id="patch_25">
    <path clip-path="url(#p5b32dd48c2)" d="M 291.68239 384.48 
L 291.68239 51.84 
L 295.939224 51.84 
L 295.939224 384.48 
z
" style="fill:#008000;opacity:0.04;"/>
   </g>
   <g id="patch_26">
    <path clip-path="url(#p5b32dd48c2)" d="M 300.196058 384.48 
L 300.196058 51.84 
L 304.452893 51.84 
L 304.452893 384.48 
z
" style="fill:#008000;opacity:0.04;"/>
   </g>
   <g id="patch_27">
    <path clip-path="url(#p5b32dd48c2)" d="M 308.709727 384.48 
L 308.709727 51.84 
L 312.966561 51.84 
L 312.966561 384.48 
z
" style="fill:#008000;opacity:0.04;"/>
   </g>
   <g id="patch_28">
    <path clip-path="url(#p5b32dd48c2)" d="M 317.223395 384.48 
L 317.223395 51.84 
L 321.480229 51.84 
L 321.480229 384.48 
z
" style="fill:#008000;opacity:0.04;"/>
   </g>
   <g id="patch_29">
    <path clip-path="url(#p5b32dd48c2)" d="M 325.737063 384.48 
L 325.737063 51.84 
L 329.993897 51.84 
L 329.993897 384.48 
z
" style="fill:#008000;opacity:0.04;"/>
   </g>
   <g id="patch_30">
    <path clip-path="url(#p5b32dd48c2)" d="M 334.250731 384.48 
L 334.250731 51.84 
L 338.507565 51.84 
L 338.507565 384.48 
z
" style="fill:#008000;opacity:0.04;"/>
   </g>
   <g id="patch_31">
    <path clip-path="url(#p5b32dd48c2)" d="M 342.764399 384.48 
L 342.764399 51.84 
L 347.021233 51.84 
L 347.021233 384.48 
z
" style="fill:#008000;opacity:0.04;"/>
   </g>
   <g id="patch_32">
    <path clip-path="url(#p5b32dd48c2)" d="M 351.278067 384.48 
L 351.278067 51.84 
L 355.534901 51.84 
L 355.534901 384.48 
z
" style="fill:#008000;opacity:0.04;"/>
   </g>
   <g id="patch_33">
    <path clip-path="url(#p5b32dd48c2)" d="M 359.791736 384.48 
L 359.791736 51.84 
L 364.04857 51.84 
L 364.04857 384.48 
z
" style="fill:#008000;opacity:0.04;"/>
   </g>
   <g id="patch_34">
    <path clip-path="url(#p5b32dd48c2)" d="M 368.305404 384.48 
L 368.305404 51.84 
L 372.562238 51.84 
L 372.562238 384.48 
z
" style="fill:#008000;opacity:0.04;"/>
   </g>
   <g id="patch_35">
    <path clip-path="url(#p5b32dd48c2)" d="M 376.819072 384.48 
L 376.819072 51.84 
L 381.075906 51.84 
L 381.075906 384.48 
z
" style="fill:#008000;opacity:0.04;"/>
   </g>
   <g id="patch_36">
    <path clip-path="url(#p5b32dd48c2)" d="M 376.819072 384.48 
L 376.819072 371.1744 
L 381.075906 371.1744 
L 381.075906 384.48 
z
" style="fill:#ffe500;"/>
   </g>
   <g id="patch_37">
    <path clip-path="url(#p5b32dd48c2)" d="M 385.33274 384.48 
L 385.33274 51.84 
L 389.589574 51.84 
L 389.589574 384.48 
z
" style="fill:#008000;opacity:0.04;"/>
   </g>
   <g id="patch_38">
    <path clip-path="url(#p5b32dd48c2)" d="M 393.846408 384.48 
L 393.846408 51.84 
L 398.103242 51.84 
L 398.103242 384.48 
z
" style="fill:#008000;opacity:0.04;"/>
   </g>
   <g id="patch_39">
    <path clip-path="url(#p5b32dd48c2)" d="M 402.360076 384.48 
L 402.360076 51.84 
L 406.61691 51.84 
L 406.61691 384.48 
z
" style="fill:#008000;opacity:0.04;"/>
   </g>
   <g id="patch_40">
    <path clip-path="url(#p5b32dd48c2)" d="M 402.360076 371.1744 
L 402.360076 51.84 
L 406.61691 51.84 
L 406.61691 371.1744 
z
" style="fill:#008000;opacity:0.5;"/>
   </g>
   <g id="patch_41">
    <path clip-path="url(#p5b32dd48c2)" d="M 402.360076 384.48 
L 402.360076 371.1744 
L 406.61691 371.1744 
L 406.61691 384.48 
z
" style="fill:#ffe500;"/>
   </g>
   <g id="patch_42">
    <path clip-path="url(#p5b32dd48c2)" d="M 410.873744 384.48 
L 410.873744 51.84 
L 415.130579 51.84 
L 415.130579 384.48 
z
" style="fill:#008000;opacity:0.04;"/>
   </g>
   <g id="patch_43">
    <path clip-path="url(#p5b32dd48c2)" d="M 410.873744 384.48 
L 410.873744 371.1744 
L 415.130579 371.1744 
L 415.130579 384.48 
z
" style="fill:#ffe500;"/>
   </g>
   <g id="patch_44">
    <path clip-path="url(#p5b32dd48c2)" d="M 415.130579 371.1744 
L 415.130579 51.84 
L 419.387413 51.84 
L 419.387413 371.1744 
z
" style="fill:#008000;opacity:0.5;"/>
   </g>
   <g id="patch_45">
    <path clip-path="url(#p5b32dd48c2)" d="M 415.130579 384.48 
L 415.130579 371.1744 
L 419.387413 371.1744 
L 419.387413 384.48 
z
" style="fill:#ffe500;"/>
   </g>
   <g id="patch_46">
    <path clip-path="url(#p5b32dd48c2)" d="M 419.387413 384.48 
L 419.387413 51.84 
L 423.644247 51.84 
L 423.644247 384.48 
z
" style="fill:#008000;opacity:0.04;"/>
   </g>
   <g id="patch_47">
    <path clip-path="url(#p5b32dd48c2)" d="M 419.387413 371.1744 
L 419.387413 51.84 
L 423.644247 51.84 
L 423.644247 371.1744 
z
" style="fill:#008000;opacity:0.5;"/>
   </g>
   <g id="patch_48">
    <path clip-path="url(#p5b32dd48c2)" d="M 419.387413 384.48 
L 419.387413 371.1744 
L 423.644247 371.1744 
L 423.644247 384.48 
z
" style="fill:#ffe500;"/>
   </g>
   <g id="patch_49">
    <path clip-path="url(#p5b32dd48c2)" d="M 427.901081 384.48 
L 427.901081 51.84 
L 432.157915 51.84 
L 432.157915 384.48 
z
" style="fill:#008000;opacity:0.04;"/>
   </g>
   <g id="patch_50">
    <path clip-path="url(#p5b32dd48c2)" d="M 436.414749 384.48 
L 436.414749 51.84 
L 440.671583 51.84 
L 440.671583 384.48 
z
" style="fill:#008000;opacity:0.04;"/>
   </g>
   <g id="patch_51">
    <path clip-path="url(#p5b32dd48c2)" d="M 436.414749 384.48 
L 436.414749 371.1744 
L 440.671583 371.1744 
L 440.671583 384.48 
z
" style="fill:#ffe500;"/>
   </g>
   <g id="patch_52">
    <path clip-path="url(#p5b32dd48c2)" d="M 742.906802 384.48 
L 742.906802 371.1744 
L 747.163636 371.1744 
L 747.163636 384.48 
z
" style="fill:#ff6600;"/>
   </g>
   <g id="patch_53">
    <path clip-path="url(#p5b32dd48c2)" d="M 444.928417 384.48 
L 444.928417 51.84 
L 449.185251 51.84 
L 449.185251 384.48 
z
" style="fill:#008000;opacity:0.04;"/>
   </g>
   <g id="patch_54">
    <path clip-path="url(#p5b32dd48c2)" d="M 453.442085 384.48 
L 453.442085 51.84 
L 457.698919 51.84 
L 457.698919 384.48 
z
" style="fill:#008000;opacity:0.04;"/>
   </g>
   <g id="patch_55">
    <path clip-path="url(#p5b32dd48c2)" d="M 461.955753 384.48 
L 461.955753 51.84 
L 466.212587 51.84 
L 466.212587 384.48 
z
" style="fill:#008000;opacity:0.04;"/>
   </g>
   <g id="patch_56">
    <path clip-path="url(#p5b32dd48c2)" d="M 470.469421 384.48 
L 470.469421 51.84 
L 474.726256 51.84 
L 474.726256 384.48 
z
" style="fill:#008000;opacity:0.04;"/>
   </g>
   <g id="patch_57">
    <path clip-path="url(#p5b32dd48c2)" d="M 478.98309 384.48 
L 478.98309 51.84 
L 483.239924 51.84 
L 483.239924 384.48 
z
" style="fill:#008000;opacity:0.04;"/>
   </g>
   <g id="patch_58">
    <path clip-path="url(#p5b32dd48c2)" d="M 487.496758 384.48 
L 487.496758 51.84 
L 491.753592 51.84 
L 491.753592 384.48 
z
" style="fill:#008000;opacity:0.04;"/>
   </g>
   <g id="patch_59">
    <path clip-path="url(#p5b32dd48c2)" d="M 496.010426 384.48 
L 496.010426 51.84 
L 500.26726 51.84 
L 500.26726 384.48 
z
" style="fill:#008000;opacity:0.04;"/>
   </g>
   <g id="patch_60">
    <path clip-path="url(#p5b32dd48c2)" d="M 504.524094 384.48 
L 504.524094 51.84 
L 508.780928 51.84 
L 508.780928 384.48 
z
" style="fill:#008000;opacity:0.04;"/>
   </g>
   <g id="patch_61">
    <path clip-path="url(#p5b32dd48c2)" d="M 513.037762 384.48 
L 513.037762 51.84 
L 517.294596 51.84 
L 517.294596 384.48 
z
" style="fill:#008000;opacity:0.04;"/>
   </g>
   <g id="patch_62">
    <path clip-path="url(#p5b32dd48c2)" d="M 517.294596 371.1744 
L 517.294596 51.84 
L 521.55143 51.84 
L 521.55143 371.1744 
z
" style="fill:#008000;opacity:0.5;"/>
   </g>
   <g id="patch_63">
    <path clip-path="url(#p5b32dd48c2)" d="M 521.55143 384.48 
L 521.55143 51.84 
L 525.808264 51.84 
L 525.808264 384.48 
z
" style="fill:#008000;opacity:0.04;"/>
   </g>
   <g id="patch_64">
    <path clip-path="url(#p5b32dd48c2)" d="M 530.065099 384.48 
L 530.065099 51.84 
L 534.321933 51.84 
L 534.321933 384.48 
z
" style="fill:#008000;opacity:0.04;"/>
   </g>
   <g id="patch_65">
    <path clip-path="url(#p5b32dd48c2)" d="M 538.578767 384.48 
L 538.578767 51.84 
L 542.835601 51.84 
L 542.835601 384.48 
z
" style="fill:#008000;opacity:0.04;"/>
   </g>
   <g id="patch_66">
    <path clip-path="url(#p5b32dd48c2)" d="M 547.092435 384.48 
L 547.092435 51.84 
L 551.349269 51.84 
L 551.349269 384.48 
z
" style="fill:#008000;opacity:0.04;"/>
   </g>
   <g id="patch_67">
    <path clip-path="url(#p5b32dd48c2)" d="M 555.606103 384.48 
L 555.606103 51.84 
L 559.862937 51.84 
L 559.862937 384.48 
z
" style="fill:#008000;opacity:0.04;"/>
   </g>
   <g id="patch_68">
    <path clip-path="url(#p5b32dd48c2)" d="M 564.119771 384.48 
L 564.119771 51.84 
L 568.376605 51.84 
L 568.376605 384.48 
z
" style="fill:#008000;opacity:0.04;"/>
   </g>
   <g id="patch_69">
    <path clip-path="url(#p5b32dd48c2)" d="M 572.633439 384.48 
L 572.633439 51.84 
L 576.890273 51.84 
L 576.890273 384.48 
z
" style="fill:#008000;opacity:0.04;"/>
   </g>
   <g id="patch_70">
    <path clip-path="url(#p5b32dd48c2)" d="M 581.147107 384.48 
L 581.147107 51.84 
L 585.403942 51.84 
L 585.403942 384.48 
z
" style="fill:#008000;opacity:0.04;"/>
   </g>
   <g id="patch_71">
    <path clip-path="url(#p5b32dd48c2)" d="M 589.660776 384.48 
L 589.660776 51.84 
L 593.91761 51.84 
L 593.91761 384.48 
z
" style="fill:#008000;opacity:0.04;"/>
   </g>
   <g id="patch_72">
    <path clip-path="url(#p5b32dd48c2)" d="M 598.174444 384.48 
L 598.174444 51.84 
L 602.431278 51.84 
L 602.431278 384.48 
z
" style="fill:#008000;opacity:0.04;"/>
   </g>
   <g id="patch_73">
    <path clip-path="url(#p5b32dd48c2)" d="M 606.688112 384.48 
L 606.688112 51.84 
L 610.944946 51.84 
L 610.944946 384.48 
z
" style="fill:#008000;opacity:0.04;"/>
   </g>
   <g id="patch_74">
    <path clip-path="url(#p5b32dd48c2)" d="M 615.20178 384.48 
L 615.20178 51.84 
L 619.458614 51.84 
L 619.458614 384.48 
z
" style="fill:#008000;opacity:0.04;"/>
   </g>
   <g id="patch_75">
    <path clip-path="url(#p5b32dd48c2)" d="M 623.715448 384.48 
L 623.715448 51.84 
L 627.972282 51.84 
L 627.972282 384.48 
z
" style="fill:#008000;opacity:0.04;"/>
   </g>
   <g id="patch_76">
    <path clip-path="url(#p5b32dd48c2)" d="M 632.229116 384.48 
L 632.229116 51.84 
L 636.48595 51.84 
L 636.48595 384.48 
z
" style="fill:#008000;opacity:0.04;"/>
   </g>
   <g id="patch_77">
    <path clip-path="url(#p5b32dd48c2)" d="M 640.742784 384.48 
L 640.742784 51.84 
L 644.999619 51.84 
L 644.999619 384.48 
z
" style="fill:#008000;opacity:0.04;"/>
   </g>
   <g id="patch_78">
    <path clip-path="url(#p5b32dd48c2)" d="M 649.256453 384.48 
L 649.256453 51.84 
L 653.513287 51.84 
L 653.513287 384.48 
z
" style="fill:#008000;opacity:0.04;"/>
   </g>
   <g id="patch_79">
    <path clip-path="url(#p5b32dd48c2)" d="M 657.770121 384.48 
L 657.770121 51.84 
L 662.026955 51.84 
L 662.026955 384.48 
z
" style="fill:#008000;opacity:0.04;"/>
   </g>
   <g id="patch_80">
    <path clip-path="url(#p5b32dd48c2)" d="M 666.283789 384.48 
L 666.283789 51.84 
L 670.540623 51.84 
L 670.540623 384.48 
z
" style="fill:#008000;opacity:0.04;"/>
   </g>
   <g id="patch_81">
    <path clip-path="url(#p5b32dd48c2)" d="M 674.797457 384.48 
L 674.797457 51.84 
L 679.054291 51.84 
L 679.054291 384.48 
z
" style="fill:#008000;opacity:0.04;"/>
   </g>
   <g id="patch_82">
    <path clip-path="url(#p5b32dd48c2)" d="M 683.311125 384.48 
L 683.311125 51.84 
L 687.567959 51.84 
L 687.567959 384.48 
z
" style="fill:#008000;opacity:0.04;"/>
   </g>
   <g id="patch_83">
    <path clip-path="url(#p5b32dd48c2)" d="M 691.824793 384.48 
L 691.824793 51.84 
L 696.081627 51.84 
L 696.081627 384.48 
z
" style="fill:#008000;opacity:0.04;"/>
   </g>
   <g id="patch_84">
    <path clip-path="url(#p5b32dd48c2)" d="M 700.338462 384.48 
L 700.338462 51.84 
L 704.595296 51.84 
L 704.595296 384.48 
z
" style="fill:#008000;opacity:0.04;"/>
   </g>
   <g id="patch_85">
    <path clip-path="url(#p5b32dd48c2)" d="M 708.85213 384.48 
L 708.85213 51.84 
L 713.108964 51.84 
L 713.108964 384.48 
z
" style="fill:#008000;opacity:0.04;"/>
   </g>
   <g id="patch_86">
    <path clip-path="url(#p5b32dd48c2)" d="M 717.365798 384.48 
L 717.365798 51.84 
L 721.622632 51.84 
L 721.622632 384.48 
z
" style="fill:#008000;opacity:0.04;"/>
   </g>
   <g id="patch_87">
    <path clip-path="url(#p5b32dd48c2)" d="M 725.879466 384.48 
L 725.879466 51.84 
L 730.1363 51.84 
L 730.1363 384.48 
z
" style="fill:#008000;opacity:0.04;"/>
   </g>
   <g id="patch_88">
    <path clip-path="url(#p5b32dd48c2)" d="M 734.393134 384.48 
L 734.393134 51.84 
L 738.649968 51.84 
L 738.649968 384.48 
z
" style="fill:#008000;opacity:0.04;"/>
   </g>
   <g id="patch_89">
    <path clip-path="url(#p5b32dd48c2)" d="M 742.906802 384.48 
L 742.906802 51.84 
L 747.163636 51.84 
L 747.163636 384.48 
z
" style="fill:#008000;opacity:0.04;"/>
   </g>
   <g id="matplotlib.axis_1">
    <g id="xtick_1">
     <g id="line2d_1">
      <defs>
       <path d="M 0 0 
L 0 3.5 
" id="ma8bf50e9b4" style="stroke:#000000;stroke-width:0.8;"/>
      </defs>
      <g>
       <use style="stroke:#000000;stroke-width:0.8;" x="138.436364" xlink:href="#ma8bf50e9b4" y="384.48"/>
      </g>
     </g>
     <g id="text_1">
      <!-- 0 -->
      <defs>
       <path d="M 31.78125 66.40625 
Q 24.171875 66.40625 20.328125 58.90625 
Q 16.5 51.421875 16.5 36.375 
Q 16.5 21.390625 20.328125 13.890625 
Q 24.171875 6.390625 31.78125 6.390625 
Q 39.453125 6.390625 43.28125 13.890625 
Q 47.125 21.390625 47.125 36.375 
Q 47.125 51.421875 43.28125 58.90625 
Q 39.453125 66.40625 31.78125 66.40625 
z
M 31.78125 74.21875 
Q 44.046875 74.21875 50.515625 64.515625 
Q 56.984375 54.828125 56.984375 36.375 
Q 56.984375 17.96875 50.515625 8.265625 
Q 44.046875 -1.421875 31.78125 -1.421875 
Q 19.53125 -1.421875 13.0625 8.265625 
Q 6.59375 17.96875 6.59375 36.375 
Q 6.59375 54.828125 13.0625 64.515625 
Q 19.53125 74.21875 31.78125 74.21875 
z
" id="DejaVuSans-48"/>
      </defs>
      <g transform="translate(135.255114 399.078438)scale(0.1 -0.1)">
       <use xlink:href="#DejaVuSans-48"/>
      </g>
     </g>
    </g>
    <g id="xtick_2">
     <g id="line2d_2">
      <g>
       <use style="stroke:#000000;stroke-width:0.8;" x="223.573045" xlink:href="#ma8bf50e9b4" y="384.48"/>
      </g>
     </g>
     <g id="text_2">
      <!-- 200 -->
      <defs>
       <path d="M 19.1875 8.296875 
L 53.609375 8.296875 
L 53.609375 0 
L 7.328125 0 
L 7.328125 8.296875 
Q 12.9375 14.109375 22.625 23.890625 
Q 32.328125 33.6875 34.8125 36.53125 
Q 39.546875 41.84375 41.421875 45.53125 
Q 43.3125 49.21875 43.3125 52.78125 
Q 43.3125 58.59375 39.234375 62.25 
Q 35.15625 65.921875 28.609375 65.921875 
Q 23.96875 65.921875 18.8125 64.3125 
Q 13.671875 62.703125 7.8125 59.421875 
L 7.8125 69.390625 
Q 13.765625 71.78125 18.9375 73 
Q 24.125 74.21875 28.421875 74.21875 
Q 39.75 74.21875 46.484375 68.546875 
Q 53.21875 62.890625 53.21875 53.421875 
Q 53.21875 48.921875 51.53125 44.890625 
Q 49.859375 40.875 45.40625 35.40625 
Q 44.1875 33.984375 37.640625 27.21875 
Q 31.109375 20.453125 19.1875 8.296875 
z
" id="DejaVuSans-50"/>
      </defs>
      <g transform="translate(214.029295 399.078438)scale(0.1 -0.1)">
       <use xlink:href="#DejaVuSans-50"/>
       <use x="63.623047" xlink:href="#DejaVuSans-48"/>
       <use x="127.246094" xlink:href="#DejaVuSans-48"/>
      </g>
     </g>
    </g>
    <g id="xtick_3">
     <g id="line2d_3">
      <g>
       <use style="stroke:#000000;stroke-width:0.8;" x="308.709727" xlink:href="#ma8bf50e9b4" y="384.48"/>
      </g>
     </g>
     <g id="text_3">
      <!-- 400 -->
      <defs>
       <path d="M 37.796875 64.3125 
L 12.890625 25.390625 
L 37.796875 25.390625 
z
M 35.203125 72.90625 
L 47.609375 72.90625 
L 47.609375 25.390625 
L 58.015625 25.390625 
L 58.015625 17.1875 
L 47.609375 17.1875 
L 47.609375 0 
L 37.796875 0 
L 37.796875 17.1875 
L 4.890625 17.1875 
L 4.890625 26.703125 
z
" id="DejaVuSans-52"/>
      </defs>
      <g transform="translate(299.165977 399.078438)scale(0.1 -0.1)">
       <use xlink:href="#DejaVuSans-52"/>
       <use x="63.623047" xlink:href="#DejaVuSans-48"/>
       <use x="127.246094" xlink:href="#DejaVuSans-48"/>
      </g>
     </g>
    </g>
    <g id="xtick_4">
     <g id="line2d_4">
      <g>
       <use style="stroke:#000000;stroke-width:0.8;" x="393.846408" xlink:href="#ma8bf50e9b4" y="384.48"/>
      </g>
     </g>
     <g id="text_4">
      <!-- 600 -->
      <defs>
       <path d="M 33.015625 40.375 
Q 26.375 40.375 22.484375 35.828125 
Q 18.609375 31.296875 18.609375 23.390625 
Q 18.609375 15.53125 22.484375 10.953125 
Q 26.375 6.390625 33.015625 6.390625 
Q 39.65625 6.390625 43.53125 10.953125 
Q 47.40625 15.53125 47.40625 23.390625 
Q 47.40625 31.296875 43.53125 35.828125 
Q 39.65625 40.375 33.015625 40.375 
z
M 52.59375 71.296875 
L 52.59375 62.3125 
Q 48.875 64.0625 45.09375 64.984375 
Q 41.3125 65.921875 37.59375 65.921875 
Q 27.828125 65.921875 22.671875 59.328125 
Q 17.53125 52.734375 16.796875 39.40625 
Q 19.671875 43.65625 24.015625 45.921875 
Q 28.375 48.1875 33.59375 48.1875 
Q 44.578125 48.1875 50.953125 41.515625 
Q 57.328125 34.859375 57.328125 23.390625 
Q 57.328125 12.15625 50.6875 5.359375 
Q 44.046875 -1.421875 33.015625 -1.421875 
Q 20.359375 -1.421875 13.671875 8.265625 
Q 6.984375 17.96875 6.984375 36.375 
Q 6.984375 53.65625 15.1875 63.9375 
Q 23.390625 74.21875 37.203125 74.21875 
Q 40.921875 74.21875 44.703125 73.484375 
Q 48.484375 72.75 52.59375 71.296875 
z
" id="DejaVuSans-54"/>
      </defs>
      <g transform="translate(384.302658 399.078438)scale(0.1 -0.1)">
       <use xlink:href="#DejaVuSans-54"/>
       <use x="63.623047" xlink:href="#DejaVuSans-48"/>
       <use x="127.246094" xlink:href="#DejaVuSans-48"/>
      </g>
     </g>
    </g>
    <g id="xtick_5">
     <g id="line2d_5">
      <g>
       <use style="stroke:#000000;stroke-width:0.8;" x="478.98309" xlink:href="#ma8bf50e9b4" y="384.48"/>
      </g>
     </g>
     <g id="text_5">
      <!-- 800 -->
      <defs>
       <path d="M 31.78125 34.625 
Q 24.75 34.625 20.71875 30.859375 
Q 16.703125 27.09375 16.703125 20.515625 
Q 16.703125 13.921875 20.71875 10.15625 
Q 24.75 6.390625 31.78125 6.390625 
Q 38.8125 6.390625 42.859375 10.171875 
Q 46.921875 13.96875 46.921875 20.515625 
Q 46.921875 27.09375 42.890625 30.859375 
Q 38.875 34.625 31.78125 34.625 
z
M 21.921875 38.8125 
Q 15.578125 40.375 12.03125 44.71875 
Q 8.5 49.078125 8.5 55.328125 
Q 8.5 64.0625 14.71875 69.140625 
Q 20.953125 74.21875 31.78125 74.21875 
Q 42.671875 74.21875 48.875 69.140625 
Q 55.078125 64.0625 55.078125 55.328125 
Q 55.078125 49.078125 51.53125 44.71875 
Q 48 40.375 41.703125 38.8125 
Q 48.828125 37.15625 52.796875 32.3125 
Q 56.78125 27.484375 56.78125 20.515625 
Q 56.78125 9.90625 50.3125 4.234375 
Q 43.84375 -1.421875 31.78125 -1.421875 
Q 19.734375 -1.421875 13.25 4.234375 
Q 6.78125 9.90625 6.78125 20.515625 
Q 6.78125 27.484375 10.78125 32.3125 
Q 14.796875 37.15625 21.921875 38.8125 
z
M 18.3125 54.390625 
Q 18.3125 48.734375 21.84375 45.5625 
Q 25.390625 42.390625 31.78125 42.390625 
Q 38.140625 42.390625 41.71875 45.5625 
Q 45.3125 48.734375 45.3125 54.390625 
Q 45.3125 60.0625 41.71875 63.234375 
Q 38.140625 66.40625 31.78125 66.40625 
Q 25.390625 66.40625 21.84375 63.234375 
Q 18.3125 60.0625 18.3125 54.390625 
z
" id="DejaVuSans-56"/>
      </defs>
      <g transform="translate(469.43934 399.078438)scale(0.1 -0.1)">
       <use xlink:href="#DejaVuSans-56"/>
       <use x="63.623047" xlink:href="#DejaVuSans-48"/>
       <use x="127.246094" xlink:href="#DejaVuSans-48"/>
      </g>
     </g>
    </g>
    <g id="xtick_6">
     <g id="line2d_6">
      <g>
       <use style="stroke:#000000;stroke-width:0.8;" x="564.119771" xlink:href="#ma8bf50e9b4" y="384.48"/>
      </g>
     </g>
     <g id="text_6">
      <!-- 1000 -->
      <defs>
       <path d="M 12.40625 8.296875 
L 28.515625 8.296875 
L 28.515625 63.921875 
L 10.984375 60.40625 
L 10.984375 69.390625 
L 28.421875 72.90625 
L 38.28125 72.90625 
L 38.28125 8.296875 
L 54.390625 8.296875 
L 54.390625 0 
L 12.40625 0 
z
" id="DejaVuSans-49"/>
      </defs>
      <g transform="translate(551.394771 399.078438)scale(0.1 -0.1)">
       <use xlink:href="#DejaVuSans-49"/>
       <use x="63.623047" xlink:href="#DejaVuSans-48"/>
       <use x="127.246094" xlink:href="#DejaVuSans-48"/>
       <use x="190.869141" xlink:href="#DejaVuSans-48"/>
      </g>
     </g>
    </g>
    <g id="xtick_7">
     <g id="line2d_7">
      <g>
       <use style="stroke:#000000;stroke-width:0.8;" x="649.256453" xlink:href="#ma8bf50e9b4" y="384.48"/>
      </g>
     </g>
     <g id="text_7">
      <!-- 1200 -->
      <g transform="translate(636.531453 399.078438)scale(0.1 -0.1)">
       <use xlink:href="#DejaVuSans-49"/>
       <use x="63.623047" xlink:href="#DejaVuSans-50"/>
       <use x="127.246094" xlink:href="#DejaVuSans-48"/>
       <use x="190.869141" xlink:href="#DejaVuSans-48"/>
      </g>
     </g>
    </g>
    <g id="xtick_8">
     <g id="line2d_8">
      <g>
       <use style="stroke:#000000;stroke-width:0.8;" x="734.393134" xlink:href="#ma8bf50e9b4" y="384.48"/>
      </g>
     </g>
     <g id="text_8">
      <!-- 1400 -->
      <g transform="translate(721.668134 399.078438)scale(0.1 -0.1)">
       <use xlink:href="#DejaVuSans-49"/>
       <use x="63.623047" xlink:href="#DejaVuSans-52"/>
       <use x="127.246094" xlink:href="#DejaVuSans-48"/>
       <use x="190.869141" xlink:href="#DejaVuSans-48"/>
      </g>
     </g>
    </g>
    <g id="text_9">
     <!-- Timestamp -->
     <defs>
      <path d="M -0.296875 72.90625 
L 61.375 72.90625 
L 61.375 64.59375 
L 35.5 64.59375 
L 35.5 0 
L 25.59375 0 
L 25.59375 64.59375 
L -0.296875 64.59375 
z
" id="DejaVuSans-84"/>
      <path d="M 9.421875 54.6875 
L 18.40625 54.6875 
L 18.40625 0 
L 9.421875 0 
z
M 9.421875 75.984375 
L 18.40625 75.984375 
L 18.40625 64.59375 
L 9.421875 64.59375 
z
" id="DejaVuSans-105"/>
      <path d="M 52 44.1875 
Q 55.375 50.25 60.0625 53.125 
Q 64.75 56 71.09375 56 
Q 79.640625 56 84.28125 50.015625 
Q 88.921875 44.046875 88.921875 33.015625 
L 88.921875 0 
L 79.890625 0 
L 79.890625 32.71875 
Q 79.890625 40.578125 77.09375 44.375 
Q 74.3125 48.1875 68.609375 48.1875 
Q 61.625 48.1875 57.5625 43.546875 
Q 53.515625 38.921875 53.515625 30.90625 
L 53.515625 0 
L 44.484375 0 
L 44.484375 32.71875 
Q 44.484375 40.625 41.703125 44.40625 
Q 38.921875 48.1875 33.109375 48.1875 
Q 26.21875 48.1875 22.15625 43.53125 
Q 18.109375 38.875 18.109375 30.90625 
L 18.109375 0 
L 9.078125 0 
L 9.078125 54.6875 
L 18.109375 54.6875 
L 18.109375 46.1875 
Q 21.1875 51.21875 25.484375 53.609375 
Q 29.78125 56 35.6875 56 
Q 41.65625 56 45.828125 52.96875 
Q 50 49.953125 52 44.1875 
z
" id="DejaVuSans-109"/>
      <path d="M 56.203125 29.59375 
L 56.203125 25.203125 
L 14.890625 25.203125 
Q 15.484375 15.921875 20.484375 11.0625 
Q 25.484375 6.203125 34.421875 6.203125 
Q 39.59375 6.203125 44.453125 7.46875 
Q 49.3125 8.734375 54.109375 11.28125 
L 54.109375 2.78125 
Q 49.265625 0.734375 44.1875 -0.34375 
Q 39.109375 -1.421875 33.890625 -1.421875 
Q 20.796875 -1.421875 13.15625 6.1875 
Q 5.515625 13.8125 5.515625 26.8125 
Q 5.515625 40.234375 12.765625 48.109375 
Q 20.015625 56 32.328125 56 
Q 43.359375 56 49.78125 48.890625 
Q 56.203125 41.796875 56.203125 29.59375 
z
M 47.21875 32.234375 
Q 47.125 39.59375 43.09375 43.984375 
Q 39.0625 48.390625 32.421875 48.390625 
Q 24.90625 48.390625 20.390625 44.140625 
Q 15.875 39.890625 15.1875 32.171875 
z
" id="DejaVuSans-101"/>
      <path d="M 44.28125 53.078125 
L 44.28125 44.578125 
Q 40.484375 46.53125 36.375 47.5 
Q 32.28125 48.484375 27.875 48.484375 
Q 21.1875 48.484375 17.84375 46.4375 
Q 14.5 44.390625 14.5 40.28125 
Q 14.5 37.15625 16.890625 35.375 
Q 19.28125 33.59375 26.515625 31.984375 
L 29.59375 31.296875 
Q 39.15625 29.25 43.1875 25.515625 
Q 47.21875 21.78125 47.21875 15.09375 
Q 47.21875 7.46875 41.1875 3.015625 
Q 35.15625 -1.421875 24.609375 -1.421875 
Q 20.21875 -1.421875 15.453125 -0.5625 
Q 10.6875 0.296875 5.421875 2 
L 5.421875 11.28125 
Q 10.40625 8.6875 15.234375 7.390625 
Q 20.0625 6.109375 24.8125 6.109375 
Q 31.15625 6.109375 34.5625 8.28125 
Q 37.984375 10.453125 37.984375 14.40625 
Q 37.984375 18.0625 35.515625 20.015625 
Q 33.0625 21.96875 24.703125 23.78125 
L 21.578125 24.515625 
Q 13.234375 26.265625 9.515625 29.90625 
Q 5.8125 33.546875 5.8125 39.890625 
Q 5.8125 47.609375 11.28125 51.796875 
Q 16.75 56 26.8125 56 
Q 31.78125 56 36.171875 55.265625 
Q 40.578125 54.546875 44.28125 53.078125 
z
" id="DejaVuSans-115"/>
      <path d="M 18.3125 70.21875 
L 18.3125 54.6875 
L 36.8125 54.6875 
L 36.8125 47.703125 
L 18.3125 47.703125 
L 18.3125 18.015625 
Q 18.3125 11.328125 20.140625 9.421875 
Q 21.96875 7.515625 27.59375 7.515625 
L 36.8125 7.515625 
L 36.8125 0 
L 27.59375 0 
Q 17.1875 0 13.234375 3.875 
Q 9.28125 7.765625 9.28125 18.015625 
L 9.28125 47.703125 
L 2.6875 47.703125 
L 2.6875 54.6875 
L 9.28125 54.6875 
L 9.28125 70.21875 
z
" id="DejaVuSans-116"/>
      <path d="M 34.28125 27.484375 
Q 23.390625 27.484375 19.1875 25 
Q 14.984375 22.515625 14.984375 16.5 
Q 14.984375 11.71875 18.140625 8.90625 
Q 21.296875 6.109375 26.703125 6.109375 
Q 34.1875 6.109375 38.703125 11.40625 
Q 43.21875 16.703125 43.21875 25.484375 
L 43.21875 27.484375 
z
M 52.203125 31.203125 
L 52.203125 0 
L 43.21875 0 
L 43.21875 8.296875 
Q 40.140625 3.328125 35.546875 0.953125 
Q 30.953125 -1.421875 24.3125 -1.421875 
Q 15.921875 -1.421875 10.953125 3.296875 
Q 6 8.015625 6 15.921875 
Q 6 25.140625 12.171875 29.828125 
Q 18.359375 34.515625 30.609375 34.515625 
L 43.21875 34.515625 
L 43.21875 35.40625 
Q 43.21875 41.609375 39.140625 45 
Q 35.0625 48.390625 27.6875 48.390625 
Q 23 48.390625 18.546875 47.265625 
Q 14.109375 46.140625 10.015625 43.890625 
L 10.015625 52.203125 
Q 14.9375 54.109375 19.578125 55.046875 
Q 24.21875 56 28.609375 56 
Q 40.484375 56 46.34375 49.84375 
Q 52.203125 43.703125 52.203125 31.203125 
z
" id="DejaVuSans-97"/>
      <path d="M 18.109375 8.203125 
L 18.109375 -20.796875 
L 9.078125 -20.796875 
L 9.078125 54.6875 
L 18.109375 54.6875 
L 18.109375 46.390625 
Q 20.953125 51.265625 25.265625 53.625 
Q 29.59375 56 35.59375 56 
Q 45.5625 56 51.78125 48.09375 
Q 58.015625 40.1875 58.015625 27.296875 
Q 58.015625 14.40625 51.78125 6.484375 
Q 45.5625 -1.421875 35.59375 -1.421875 
Q 29.59375 -1.421875 25.265625 0.953125 
Q 20.953125 3.328125 18.109375 8.203125 
z
M 48.6875 27.296875 
Q 48.6875 37.203125 44.609375 42.84375 
Q 40.53125 48.484375 33.40625 48.484375 
Q 26.265625 48.484375 22.1875 42.84375 
Q 18.109375 37.203125 18.109375 27.296875 
Q 18.109375 17.390625 22.1875 11.75 
Q 26.265625 6.109375 33.40625 6.109375 
Q 40.53125 6.109375 44.609375 11.75 
Q 48.6875 17.390625 48.6875 27.296875 
z
" id="DejaVuSans-112"/>
     </defs>
     <g transform="translate(414.739062 412.756563)scale(0.1 -0.1)">
      <use xlink:href="#DejaVuSans-84"/>
      <use x="61.037109" xlink:href="#DejaVuSans-105"/>
      <use x="88.820312" xlink:href="#DejaVuSans-109"/>
      <use x="186.232422" xlink:href="#DejaVuSans-101"/>
      <use x="247.755859" xlink:href="#DejaVuSans-115"/>
      <use x="299.855469" xlink:href="#DejaVuSans-116"/>
      <use x="339.064453" xlink:href="#DejaVuSans-97"/>
      <use x="400.34375" xlink:href="#DejaVuSans-109"/>
      <use x="497.755859" xlink:href="#DejaVuSans-112"/>
     </g>
    </g>
   </g>
   <g id="matplotlib.axis_2">
    <g id="ytick_1">
     <g id="line2d_9">
      <defs>
       <path d="M 0 0 
L -3.5 0 
" id="m26ea0f6892" style="stroke:#000000;stroke-width:0.8;"/>
      </defs>
      <g>
       <use style="stroke:#000000;stroke-width:0.8;" x="108" xlink:href="#m26ea0f6892" y="358.600291"/>
      </g>
     </g>
     <g id="text_10">
      <!-- −1000 -->
      <defs>
       <path d="M 10.59375 35.5 
L 73.1875 35.5 
L 73.1875 27.203125 
L 10.59375 27.203125 
z
" id="DejaVuSans-8722"/>
      </defs>
      <g transform="translate(67.170312 362.399509)scale(0.1 -0.1)">
       <use xlink:href="#DejaVuSans-8722"/>
       <use x="83.789062" xlink:href="#DejaVuSans-49"/>
       <use x="147.412109" xlink:href="#DejaVuSans-48"/>
       <use x="211.035156" xlink:href="#DejaVuSans-48"/>
       <use x="274.658203" xlink:href="#DejaVuSans-48"/>
      </g>
     </g>
    </g>
    <g id="ytick_2">
     <g id="line2d_10">
      <g>
       <use style="stroke:#000000;stroke-width:0.8;" x="108" xlink:href="#m26ea0f6892" y="321.303801"/>
      </g>
     </g>
     <g id="text_11">
      <!-- 0 -->
      <g transform="translate(94.6375 325.10302)scale(0.1 -0.1)">
       <use xlink:href="#DejaVuSans-48"/>
      </g>
     </g>
    </g>
    <g id="ytick_3">
     <g id="line2d_11">
      <g>
       <use style="stroke:#000000;stroke-width:0.8;" x="108" xlink:href="#m26ea0f6892" y="284.007311"/>
      </g>
     </g>
     <g id="text_12">
      <!-- 1000 -->
      <g transform="translate(75.55 287.80653)scale(0.1 -0.1)">
       <use xlink:href="#DejaVuSans-49"/>
       <use x="63.623047" xlink:href="#DejaVuSans-48"/>
       <use x="127.246094" xlink:href="#DejaVuSans-48"/>
       <use x="190.869141" xlink:href="#DejaVuSans-48"/>
      </g>
     </g>
    </g>
    <g id="ytick_4">
     <g id="line2d_12">
      <g>
       <use style="stroke:#000000;stroke-width:0.8;" x="108" xlink:href="#m26ea0f6892" y="246.710821"/>
      </g>
     </g>
     <g id="text_13">
      <!-- 2000 -->
      <g transform="translate(75.55 250.51004)scale(0.1 -0.1)">
       <use xlink:href="#DejaVuSans-50"/>
       <use x="63.623047" xlink:href="#DejaVuSans-48"/>
       <use x="127.246094" xlink:href="#DejaVuSans-48"/>
       <use x="190.869141" xlink:href="#DejaVuSans-48"/>
      </g>
     </g>
    </g>
    <g id="ytick_5">
     <g id="line2d_13">
      <g>
       <use style="stroke:#000000;stroke-width:0.8;" x="108" xlink:href="#m26ea0f6892" y="209.414332"/>
      </g>
     </g>
     <g id="text_14">
      <!-- 3000 -->
      <defs>
       <path d="M 40.578125 39.3125 
Q 47.65625 37.796875 51.625 33 
Q 55.609375 28.21875 55.609375 21.1875 
Q 55.609375 10.40625 48.1875 4.484375 
Q 40.765625 -1.421875 27.09375 -1.421875 
Q 22.515625 -1.421875 17.65625 -0.515625 
Q 12.796875 0.390625 7.625 2.203125 
L 7.625 11.71875 
Q 11.71875 9.328125 16.59375 8.109375 
Q 21.484375 6.890625 26.8125 6.890625 
Q 36.078125 6.890625 40.9375 10.546875 
Q 45.796875 14.203125 45.796875 21.1875 
Q 45.796875 27.640625 41.28125 31.265625 
Q 36.765625 34.90625 28.71875 34.90625 
L 20.21875 34.90625 
L 20.21875 43.015625 
L 29.109375 43.015625 
Q 36.375 43.015625 40.234375 45.921875 
Q 44.09375 48.828125 44.09375 54.296875 
Q 44.09375 59.90625 40.109375 62.90625 
Q 36.140625 65.921875 28.71875 65.921875 
Q 24.65625 65.921875 20.015625 65.03125 
Q 15.375 64.15625 9.8125 62.3125 
L 9.8125 71.09375 
Q 15.4375 72.65625 20.34375 73.4375 
Q 25.25 74.21875 29.59375 74.21875 
Q 40.828125 74.21875 47.359375 69.109375 
Q 53.90625 64.015625 53.90625 55.328125 
Q 53.90625 49.265625 50.4375 45.09375 
Q 46.96875 40.921875 40.578125 39.3125 
z
" id="DejaVuSans-51"/>
      </defs>
      <g transform="translate(75.55 213.21355)scale(0.1 -0.1)">
       <use xlink:href="#DejaVuSans-51"/>
       <use x="63.623047" xlink:href="#DejaVuSans-48"/>
       <use x="127.246094" xlink:href="#DejaVuSans-48"/>
       <use x="190.869141" xlink:href="#DejaVuSans-48"/>
      </g>
     </g>
    </g>
    <g id="ytick_6">
     <g id="line2d_14">
      <g>
       <use style="stroke:#000000;stroke-width:0.8;" x="108" xlink:href="#m26ea0f6892" y="172.117842"/>
      </g>
     </g>
     <g id="text_15">
      <!-- 4000 -->
      <g transform="translate(75.55 175.917061)scale(0.1 -0.1)">
       <use xlink:href="#DejaVuSans-52"/>
       <use x="63.623047" xlink:href="#DejaVuSans-48"/>
       <use x="127.246094" xlink:href="#DejaVuSans-48"/>
       <use x="190.869141" xlink:href="#DejaVuSans-48"/>
      </g>
     </g>
    </g>
    <g id="ytick_7">
     <g id="line2d_15">
      <g>
       <use style="stroke:#000000;stroke-width:0.8;" x="108" xlink:href="#m26ea0f6892" y="134.821352"/>
      </g>
     </g>
     <g id="text_16">
      <!-- 5000 -->
      <defs>
       <path d="M 10.796875 72.90625 
L 49.515625 72.90625 
L 49.515625 64.59375 
L 19.828125 64.59375 
L 19.828125 46.734375 
Q 21.96875 47.46875 24.109375 47.828125 
Q 26.265625 48.1875 28.421875 48.1875 
Q 40.625 48.1875 47.75 41.5 
Q 54.890625 34.8125 54.890625 23.390625 
Q 54.890625 11.625 47.5625 5.09375 
Q 40.234375 -1.421875 26.90625 -1.421875 
Q 22.3125 -1.421875 17.546875 -0.640625 
Q 12.796875 0.140625 7.71875 1.703125 
L 7.71875 11.625 
Q 12.109375 9.234375 16.796875 8.0625 
Q 21.484375 6.890625 26.703125 6.890625 
Q 35.15625 6.890625 40.078125 11.328125 
Q 45.015625 15.765625 45.015625 23.390625 
Q 45.015625 31 40.078125 35.4375 
Q 35.15625 39.890625 26.703125 39.890625 
Q 22.75 39.890625 18.8125 39.015625 
Q 14.890625 38.140625 10.796875 36.28125 
z
" id="DejaVuSans-53"/>
      </defs>
      <g transform="translate(75.55 138.620571)scale(0.1 -0.1)">
       <use xlink:href="#DejaVuSans-53"/>
       <use x="63.623047" xlink:href="#DejaVuSans-48"/>
       <use x="127.246094" xlink:href="#DejaVuSans-48"/>
       <use x="190.869141" xlink:href="#DejaVuSans-48"/>
      </g>
     </g>
    </g>
    <g id="ytick_8">
     <g id="line2d_16">
      <g>
       <use style="stroke:#000000;stroke-width:0.8;" x="108" xlink:href="#m26ea0f6892" y="97.524862"/>
      </g>
     </g>
     <g id="text_17">
      <!-- 6000 -->
      <g transform="translate(75.55 101.324081)scale(0.1 -0.1)">
       <use xlink:href="#DejaVuSans-54"/>
       <use x="63.623047" xlink:href="#DejaVuSans-48"/>
       <use x="127.246094" xlink:href="#DejaVuSans-48"/>
       <use x="190.869141" xlink:href="#DejaVuSans-48"/>
      </g>
     </g>
    </g>
    <g id="ytick_9">
     <g id="line2d_17">
      <g>
       <use style="stroke:#000000;stroke-width:0.8;" x="108" xlink:href="#m26ea0f6892" y="60.228373"/>
      </g>
     </g>
     <g id="text_18">
      <!-- 7000 -->
      <defs>
       <path d="M 8.203125 72.90625 
L 55.078125 72.90625 
L 55.078125 68.703125 
L 28.609375 0 
L 18.3125 0 
L 43.21875 64.59375 
L 8.203125 64.59375 
z
" id="DejaVuSans-55"/>
      </defs>
      <g transform="translate(75.55 64.027591)scale(0.1 -0.1)">
       <use xlink:href="#DejaVuSans-55"/>
       <use x="63.623047" xlink:href="#DejaVuSans-48"/>
       <use x="127.246094" xlink:href="#DejaVuSans-48"/>
       <use x="190.869141" xlink:href="#DejaVuSans-48"/>
      </g>
     </g>
    </g>
    <g id="text_19">
     <!-- Value -->
     <defs>
      <path d="M 28.609375 0 
L 0.78125 72.90625 
L 11.078125 72.90625 
L 34.1875 11.53125 
L 57.328125 72.90625 
L 67.578125 72.90625 
L 39.796875 0 
z
" id="DejaVuSans-86"/>
      <path d="M 9.421875 75.984375 
L 18.40625 75.984375 
L 18.40625 0 
L 9.421875 0 
z
" id="DejaVuSans-108"/>
      <path d="M 8.5 21.578125 
L 8.5 54.6875 
L 17.484375 54.6875 
L 17.484375 21.921875 
Q 17.484375 14.15625 20.5 10.265625 
Q 23.53125 6.390625 29.59375 6.390625 
Q 36.859375 6.390625 41.078125 11.03125 
Q 45.3125 15.671875 45.3125 23.6875 
L 45.3125 54.6875 
L 54.296875 54.6875 
L 54.296875 0 
L 45.3125 0 
L 45.3125 8.40625 
Q 42.046875 3.421875 37.71875 1 
Q 33.40625 -1.421875 27.6875 -1.421875 
Q 18.265625 -1.421875 13.375 4.4375 
Q 8.5 10.296875 8.5 21.578125 
z
M 31.109375 56 
z
" id="DejaVuSans-117"/>
     </defs>
     <g transform="translate(61.090625 232.273281)rotate(-90)scale(0.1 -0.1)">
      <use xlink:href="#DejaVuSans-86"/>
      <use x="68.298828" xlink:href="#DejaVuSans-97"/>
      <use x="129.578125" xlink:href="#DejaVuSans-108"/>
      <use x="157.361328" xlink:href="#DejaVuSans-117"/>
      <use x="220.740234" xlink:href="#DejaVuSans-101"/>
     </g>
    </g>
   </g>
   <g id="line2d_18">
    <path clip-path="url(#p5b32dd48c2)" d="M 138.436364 315.994651 
L 138.862047 320.068064 
L 139.28773 310.711789 
L 139.713414 308.459304 
L 140.139097 309.536132 
L 140.564781 315.174452 
L 141.416147 305.195177 
L 141.841831 301.638379 
L 142.267514 289.339823 
L 143.118881 298.105446 
L 143.544565 297.380552 
L 143.970248 291.719057 
L 144.821615 288.20328 
L 145.247298 283.551401 
L 145.672982 286.460243 
L 146.098665 279.2163 
L 146.524348 284.479141 
L 146.950032 278.707195 
L 147.375715 274.729544 
L 147.801399 274.346425 
L 148.227082 270.271798 
L 148.652765 272.638906 
L 149.504132 265.816092 
L 149.929816 272.282904 
L 150.355499 273.958977 
L 150.781182 267.77445 
L 151.206866 268.380625 
L 151.632549 269.200187 
L 152.058233 268.406131 
L 152.483916 269.072896 
L 152.909599 263.259945 
L 153.335283 261.496986 
L 153.760966 262.268029 
L 154.18665 268.375421 
L 154.612333 261.804052 
L 155.038017 268.530792 
L 155.4637 260.649994 
L 156.315067 271.231082 
L 157.166434 276.03342 
L 157.592117 276.690613 
L 158.0178 279.92612 
L 158.443484 269.932375 
L 158.869167 272.636047 
L 159.294851 278.471154 
L 159.720534 277.963404 
L 160.146217 282.242142 
L 160.571901 272.271652 
L 160.997584 287.442155 
L 161.423268 286.218338 
L 162.274634 287.31056 
L 162.700318 292.613211 
L 163.126001 303.187216 
L 163.551685 301.342322 
L 163.977368 296.800498 
L 164.403051 300.544925 
L 164.828735 306.641106 
L 165.254418 305.5032 
L 165.680102 310.698379 
L 166.105785 308.641179 
L 166.531469 317.877233 
L 166.957152 312.804284 
L 168.234202 321.26383 
L 168.659886 322.601153 
L 169.085569 328.659101 
L 169.511252 328.748573 
L 169.936936 327.760851 
L 170.362619 328.174568 
L 170.788303 334.321558 
L 171.213986 337.545747 
L 172.065353 347.14532 
L 172.491036 346.478532 
L 172.91672 339.910367 
L 173.342403 343.763435 
L 173.768086 349.656872 
L 174.19377 352.220989 
L 174.619453 353.833348 
L 175.045137 349.526442 
L 175.47082 356.265688 
L 175.896503 351.305996 
L 176.322187 355.118979 
L 176.74787 353.61305 
L 177.173554 363.706074 
L 177.599237 361.055235 
L 178.024921 365.633614 
L 178.450604 360.31126 
L 179.301971 365.213779 
L 179.727654 358.487913 
L 180.153338 363.927112 
L 180.579021 360.998026 
L 181.004704 362.023226 
L 181.430388 368.499822 
L 181.856071 367.745497 
L 182.281755 364.801185 
L 182.707438 369.36 
L 183.133121 361.867136 
L 183.558805 369.020142 
L 183.984488 356.341847 
L 184.410172 364.388056 
L 184.835855 354.503904 
L 185.261538 362.190598 
L 185.687222 363.435012 
L 186.112905 358.130049 
L 186.538589 356.847318 
L 186.964272 362.546009 
L 187.389955 349.762902 
L 187.815639 357.204488 
L 188.241322 349.536299 
L 188.667006 347.149128 
L 189.092689 346.816918 
L 189.518373 345.993961 
L 189.944056 342.724227 
L 190.369739 345.938138 
L 190.795423 342.74528 
L 191.221106 341.876464 
L 191.64679 328.513466 
L 192.072473 326.591792 
L 192.498156 329.396128 
L 192.92384 333.2363 
L 193.775207 317.064925 
L 194.20089 322.844661 
L 194.626573 315.102164 
L 195.052257 319.951015 
L 195.47794 310.566359 
L 195.903624 314.872479 
L 196.329307 313.508391 
L 197.180674 307.014934 
L 197.606357 304.705714 
L 198.032041 295.407822 
L 198.457724 295.758797 
L 198.883408 294.978326 
L 199.309091 295.766472 
L 200.160458 289.832011 
L 200.586141 289.053143 
L 201.437508 278.159615 
L 201.863191 282.939416 
L 202.288875 269.972528 
L 202.714558 279.566761 
L 203.140242 272.690882 
L 203.565925 260.713681 
L 203.991608 265.152619 
L 204.417292 268.285625 
L 204.842975 269.317198 
L 205.268659 261.905175 
L 205.694342 263.048405 
L 206.120025 263.326074 
L 206.545709 259.336496 
L 206.971392 261.65731 
L 207.397076 247.71318 
L 208.248442 253.986224 
L 208.674126 253.671542 
L 209.099809 258.39314 
L 209.525493 252.111539 
L 209.951176 256.966836 
L 210.37686 259.5546 
L 210.802543 247.555484 
L 211.228226 259.280472 
L 211.65391 256.847712 
L 212.505277 260.274928 
L 212.93096 254.401709 
L 213.356643 263.82474 
L 213.782327 259.113275 
L 214.20801 261.484847 
L 214.633694 265.813204 
L 215.059377 261.401143 
L 215.48506 264.043415 
L 215.910744 265.95712 
L 216.336427 260.782267 
L 217.187794 268.161994 
L 217.613477 268.73783 
L 218.039161 274.11577 
L 218.464844 273.650291 
L 218.890528 270.078988 
L 219.316211 276.604021 
L 219.741894 277.821061 
L 220.167578 272.123673 
L 220.593261 285.488849 
L 221.018945 280.717461 
L 221.444628 279.447119 
L 221.870312 293.469854 
L 222.295995 291.231329 
L 222.721678 295.188854 
L 223.147362 297.90221 
L 223.573045 302.515009 
L 223.998729 304.226606 
L 224.424412 297.601473 
L 224.850095 302.742912 
L 225.275779 304.334293 
L 225.701462 303.435985 
L 226.127146 313.722897 
L 226.552829 311.140109 
L 226.978512 317.060458 
L 227.404196 321.147282 
L 227.829879 317.468264 
L 228.681246 330.061922 
L 229.106929 328.740819 
L 229.532613 323.618063 
L 229.958296 326.954278 
L 230.38398 339.780186 
L 230.809663 335.225772 
L 231.235346 333.915096 
L 231.66103 345.881232 
L 232.086713 334.980525 
L 232.512397 344.629474 
L 232.93808 342.723639 
L 233.363764 346.083445 
L 233.789447 340.067664 
L 234.21513 353.920125 
L 234.640814 349.53229 
L 235.066497 354.407076 
L 235.492181 349.19507 
L 235.917864 342.46699 
L 236.343547 358.678017 
L 236.769231 353.268472 
L 237.194914 354.118765 
L 237.620598 347.513037 
L 238.046281 358.23485 
L 238.897648 347.358764 
L 239.323331 355.401551 
L 239.749015 357.070083 
L 240.600381 351.386154 
L 241.026065 357.147182 
L 241.451748 345.645513 
L 241.877432 351.577062 
L 242.303115 362.788574 
L 242.728798 354.402036 
L 243.154482 342.363258 
L 243.580165 351.663352 
L 244.005849 346.788942 
L 244.431532 344.8441 
L 244.857216 350.188189 
L 245.282899 340.010861 
L 245.708582 338.674912 
L 246.134266 330.954126 
L 246.985633 334.714828 
L 247.411316 333.452691 
L 247.836999 328.58929 
L 248.262683 332.693515 
L 248.688366 326.442813 
L 249.539733 320.152552 
L 249.965416 324.828721 
L 250.3911 311.737011 
L 250.816783 312.504278 
L 251.242467 302.61833 
L 251.66815 318.380292 
L 252.093833 310.532458 
L 252.519517 312.705388 
L 252.9452 304.854277 
L 253.370884 299.323584 
L 253.796567 291.052717 
L 254.22225 297.433188 
L 254.647934 298.064078 
L 255.499301 285.584375 
L 255.924984 284.961865 
L 256.350668 277.844905 
L 257.202034 285.408406 
L 257.627718 272.349538 
L 258.053401 278.648878 
L 258.479085 269.291383 
L 259.330451 266.102797 
L 259.756135 258.486137 
L 260.181818 264.537304 
L 260.607502 267.259923 
L 261.033185 259.770145 
L 261.458868 259.288878 
L 262.310235 248.412069 
L 262.735919 261.22736 
L 263.161602 253.283035 
L 263.587285 250.860326 
L 264.012969 247.730028 
L 264.438652 251.847053 
L 264.864336 246.406296 
L 265.290019 245.611428 
L 265.715702 246.516809 
L 266.141386 246.365194 
L 266.567069 239.272772 
L 266.992753 242.161256 
L 267.418436 236.570186 
L 267.84412 245.614255 
L 268.269803 249.596298 
L 268.695486 246.138285 
L 269.12117 244.265371 
L 269.546853 245.935754 
L 269.972537 247.045067 
L 270.39822 252.370957 
L 270.823903 249.752087 
L 271.249587 251.707027 
L 271.67527 246.715132 
L 272.100954 247.490457 
L 272.526637 243.571653 
L 272.95232 252.436611 
L 273.378004 248.369405 
L 274.229371 261.291311 
L 274.655054 254.715609 
L 275.080737 260.244089 
L 275.506421 263.20734 
L 275.932104 264.620511 
L 276.357788 258.786039 
L 276.783471 258.663815 
L 277.209154 262.944617 
L 278.060521 276.595549 
L 278.486205 272.360159 
L 278.911888 270.826296 
L 279.337572 274.164678 
L 279.763255 278.561428 
L 280.188938 281.207108 
L 280.614622 287.909562 
L 281.040305 284.891066 
L 281.465989 288.824845 
L 281.891672 291.112852 
L 282.317355 294.574499 
L 282.743039 300.877118 
L 283.168722 300.876849 
L 283.594406 297.581451 
L 284.020089 302.90652 
L 284.445772 305.301496 
L 284.871456 308.402465 
L 285.297139 304.071278 
L 285.722823 311.996005 
L 286.148506 313.203358 
L 286.574189 315.734418 
L 286.999873 322.407004 
L 287.425556 320.706916 
L 287.85124 317.057254 
L 288.276923 322.378058 
L 288.702606 332.107742 
L 289.12829 327.526159 
L 289.553973 327.20241 
L 289.979657 331.424894 
L 290.40534 329.385321 
L 291.256707 339.736431 
L 291.68239 333.605556 
L 292.108074 336.683372 
L 292.533757 336.566919 
L 292.959441 335.453583 
L 293.385124 339.788506 
L 293.810807 348.089981 
L 294.236491 341.473148 
L 294.662174 349.27512 
L 295.087858 345.107131 
L 295.513541 339.261992 
L 295.939224 350.523298 
L 296.364908 343.037371 
L 296.790591 345.962343 
L 297.216275 344.541732 
L 297.641958 338.993164 
L 298.067641 340.774316 
L 298.493325 336.819488 
L 298.919008 346.274993 
L 299.344692 344.478996 
L 299.770375 343.192687 
L 300.196058 339.684906 
L 300.621742 342.271832 
L 301.047425 340.392106 
L 301.473109 339.805427 
L 301.898792 331.943977 
L 302.324476 330.75337 
L 302.750159 327.718423 
L 303.175842 318.891419 
L 303.601526 328.967915 
L 304.027209 323.614745 
L 304.452893 311.077986 
L 304.878576 320.354661 
L 305.304259 320.964895 
L 305.729943 322.641629 
L 306.155626 318.752492 
L 306.58131 321.29623 
L 307.006993 318.576394 
L 307.85836 306.125839 
L 308.284043 304.908938 
L 308.709727 304.284974 
L 309.13541 307.766283 
L 309.561093 295.045928 
L 309.986777 293.392747 
L 310.41246 286.10934 
L 310.838144 297.984014 
L 311.68951 278.04244 
L 312.115194 282.308681 
L 312.540877 274.57389 
L 312.966561 275.458439 
L 313.392244 274.82398 
L 313.817928 269.185041 
L 314.243611 278.03829 
L 315.094978 263.41674 
L 315.520661 258.114537 
L 316.372028 258.504906 
L 316.797711 252.494271 
L 317.649078 257.810256 
L 318.074762 251.455877 
L 318.500445 250.223974 
L 318.926128 246.290123 
L 319.351812 247.7591 
L 320.203179 234.63667 
L 320.628862 249.242077 
L 321.054545 238.116708 
L 321.480229 242.35696 
L 321.905912 240.90144 
L 322.331596 244.85158 
L 322.757279 237.547852 
L 323.182962 234.338391 
L 323.608646 240.990403 
L 324.034329 226.524836 
L 324.460013 237.274679 
L 324.885696 243.255844 
L 325.737063 223.806153 
L 326.162746 226.963349 
L 326.58843 228.425233 
L 327.439797 232.421964 
L 328.716847 245.286519 
L 329.14253 241.76116 
L 329.568214 245.163932 
L 329.993897 242.877207 
L 330.41958 236.874879 
L 330.845264 244.753767 
L 331.270947 248.755036 
L 331.696631 247.797046 
L 332.122314 252.359281 
L 332.547997 243.477895 
L 332.973681 254.662925 
L 333.399364 250.765836 
L 333.825048 249.556055 
L 334.250731 248.841851 
L 334.676414 247.901963 
L 335.102098 265.017383 
L 335.527781 255.946915 
L 335.953465 264.174789 
L 336.379148 264.762002 
L 336.804832 260.20832 
L 337.230515 270.937912 
L 337.656198 267.868473 
L 338.081882 273.352461 
L 338.507565 277.300757 
L 338.933249 271.755926 
L 339.358932 280.861922 
L 339.784615 283.155172 
L 340.210299 281.737514 
L 340.635982 283.173194 
L 341.061666 293.117446 
L 341.487349 286.865673 
L 341.913032 296.545811 
L 342.338716 299.858703 
L 342.764399 308.094078 
L 343.190083 301.249266 
L 343.615766 301.507294 
L 344.041449 307.876751 
L 344.467133 301.884942 
L 345.3185 310.607388 
L 345.744183 305.442437 
L 346.169866 320.984443 
L 346.59555 315.34936 
L 347.021233 314.723133 
L 347.446917 323.958515 
L 347.8726 322.432387 
L 348.298284 323.04549 
L 348.723967 326.012526 
L 349.14965 325.145381 
L 349.575334 327.242681 
L 350.001017 331.11423 
L 350.426701 325.490263 
L 350.852384 331.897115 
L 351.278067 332.866256 
L 352.129434 324.459108 
L 352.555118 339.20726 
L 352.980801 331.42414 
L 353.406484 330.815373 
L 353.832168 332.443707 
L 354.257851 321.957202 
L 354.683535 327.231228 
L 355.109218 334.415083 
L 355.534901 334.444782 
L 355.960585 327.615699 
L 356.386268 326.660906 
L 356.811952 327.174657 
L 357.237635 331.86921 
L 357.663318 326.240401 
L 358.089002 327.791127 
L 358.514685 318.712288 
L 358.940369 328.706688 
L 359.366052 323.730337 
L 359.791736 326.711095 
L 360.217419 325.042677 
L 360.643102 319.377955 
L 361.494469 318.040407 
L 361.920153 307.727849 
L 362.345836 311.87368 
L 362.771519 304.796854 
L 363.197203 312.27055 
L 363.622886 307.113644 
L 364.04857 309.737957 
L 364.474253 295.734737 
L 364.899936 303.486488 
L 365.32562 290.998814 
L 365.751303 298.843139 
L 366.176987 292.732727 
L 366.60267 301.815423 
L 367.028353 288.479975 
L 367.454037 284.921732 
L 367.87972 290.437016 
L 368.305404 281.182872 
L 368.731087 278.920597 
L 369.156771 282.59573 
L 369.582454 268.759852 
L 370.008137 275.011676 
L 370.859504 262.728689 
L 371.285188 264.813751 
L 371.710871 257.161895 
L 372.136554 257.350845 
L 372.562238 249.405935 
L 372.987921 256.039126 
L 373.413605 255.87983 
L 373.839288 247.424003 
L 374.264971 247.610249 
L 374.690655 245.984554 
L 375.116338 240.733012 
L 375.542022 238.881029 
L 375.967705 238.986671 
L 376.393388 234.69265 
L 378.096122 225.859637 
L 378.521805 230.488784 
L 378.947489 230.551794 
L 379.373172 232.717984 
L 379.798856 227.631961 
L 380.224539 229.601608 
L 380.650223 223.285593 
L 381.075906 225.1436 
L 381.501589 226.070299 
L 381.927273 227.361011 
L 382.352956 222.729153 
L 383.204323 227.859613 
L 383.630006 228.487681 
L 384.05569 218.205947 
L 384.481373 225.796084 
L 384.907057 226.486224 
L 385.33274 224.987749 
L 385.758423 226.719575 
L 386.60979 227.071534 
L 387.035474 229.151215 
L 387.461157 232.1634 
L 387.88684 225.755745 
L 388.312524 230.342668 
L 388.738207 237.141978 
L 389.163891 229.192133 
L 389.589574 241.185719 
L 390.015257 237.183542 
L 390.440941 238.333944 
L 390.866624 242.728006 
L 391.292308 239.42647 
L 391.717991 248.694508 
L 392.143675 238.083863 
L 392.569358 244.826048 
L 392.995041 241.340992 
L 393.420725 247.79568 
L 393.846408 259.582747 
L 394.272092 252.09071 
L 394.697775 255.129269 
L 395.123458 254.987643 
L 395.549142 257.064177 
L 395.974825 261.918933 
L 396.400509 263.521997 
L 396.826192 270.873635 
L 397.251875 264.25421 
L 397.677559 280.460454 
L 398.103242 283.286102 
L 398.528926 283.183437 
L 398.954609 276.392535 
L 399.380292 287.049276 
L 399.805976 286.335261 
L 400.231659 286.656142 
L 400.657343 291.222362 
L 401.083026 300.032124 
L 401.508709 288.707119 
L 401.934393 295.950419 
L 402.360076 295.475524 
L 403.211443 303.769001 
L 403.637127 81.706701 
L 404.488493 81.706701 
L 404.914177 313.347096 
L 405.33986 304.719256 
L 405.765544 315.322831 
L 406.191227 312.886653 
L 406.61691 320.148819 
L 407.042594 312.580198 
L 407.468277 314.062521 
L 407.893961 318.635756 
L 408.319644 311.975019 
L 408.745327 321.31101 
L 409.171011 321.086484 
L 409.596694 315.892353 
L 410.022378 319.018118 
L 410.448061 317.744507 
L 410.873744 315.444472 
L 411.299428 320.635915 
L 411.725111 318.97556 
L 412.150795 324.224232 
L 412.576478 319.440548 
L 413.002161 322.324371 
L 413.427845 315.330782 
L 413.853528 320.268485 
L 414.279212 319.294644 
L 414.704895 318.673093 
L 415.130579 326.212829 
L 415.556262 320.925974 
L 415.981945 307.607726 
L 416.407629 311.633469 
L 416.833312 313.115447 
L 417.258996 312.560549 
L 417.684679 311.106757 
L 418.110362 307.058198 
L 418.536046 87.316616 
L 419.387413 87.316616 
L 419.813096 306.992989 
L 420.664463 295.691033 
L 421.090146 301.69053 
L 421.51583 289.322593 
L 421.941513 286.45097 
L 422.367196 289.107903 
L 422.79288 285.642065 
L 423.218563 278.845129 
L 423.644247 284.426998 
L 424.06993 283.467966 
L 424.495613 281.909727 
L 425.34698 275.126911 
L 425.772664 268.14318 
L 426.198347 271.083841 
L 427.049714 261.530357 
L 427.475397 265.012366 
L 427.901081 251.324783 
L 428.326764 249.327573 
L 428.752448 259.781395 
L 429.178131 251.910104 
L 429.603814 249.083365 
L 430.029498 244.5105 
L 430.455181 247.78359 
L 431.732231 232.291371 
L 432.157915 233.388349 
L 432.583598 230.953309 
L 433.009282 233.109161 
L 433.434965 230.421878 
L 433.860648 222.014187 
L 434.286332 224.874083 
L 434.712015 226.37481 
L 435.137699 215.279174 
L 435.563382 223.054924 
L 435.989065 214.639989 
L 436.414749 215.694114 
L 436.840432 215.41315 
L 437.266116 217.255964 
L 437.691799 211.391079 
L 438.117483 221.055737 
L 438.968849 213.990876 
L 439.394533 211.861321 
L 439.820216 211.72315 
L 440.2459 213.086144 
L 440.671583 212.972917 
L 441.097266 209.791235 
L 441.52295 214.566164 
L 441.948633 221.091535 
L 442.374317 212.319707 
L 442.8 209.185984 
L 443.225683 209.232939 
L 443.651367 215.139516 
L 444.07705 214.931998 
L 444.502734 209.273008 
L 444.928417 219.152071 
L 445.3541 218.086034 
L 445.779784 216.689792 
L 446.205467 222.619759 
L 446.631151 223.212487 
L 447.056834 220.376055 
L 447.482517 227.238343 
L 447.908201 223.958221 
L 448.333884 232.486256 
L 448.759568 237.638899 
L 449.185251 228.546673 
L 449.610935 233.55819 
L 450.462301 239.145113 
L 450.887985 234.949206 
L 451.313668 245.672434 
L 451.739352 239.3718 
L 452.165035 249.853364 
L 452.590718 248.364199 
L 453.016402 250.95406 
L 453.442085 249.986655 
L 453.867769 262.032593 
L 454.293452 258.070814 
L 454.719135 259.923543 
L 455.144819 259.386011 
L 455.570502 259.392187 
L 455.996186 270.442195 
L 456.421869 267.348979 
L 456.847552 269.157879 
L 457.273236 268.399031 
L 457.698919 275.927198 
L 458.124603 273.040688 
L 458.550286 279.621634 
L 458.975969 283.352345 
L 459.401653 282.11339 
L 459.827336 285.11348 
L 460.25302 286.690383 
L 460.678703 286.058081 
L 461.104387 293.272457 
L 461.955753 296.46204 
L 462.381437 292.830498 
L 462.80712 290.767318 
L 463.232804 296.335099 
L 463.658487 297.42783 
L 464.08417 295.71176 
L 464.509854 306.615455 
L 464.935537 311.453187 
L 465.361221 310.981387 
L 465.786904 306.247964 
L 466.212587 308.017354 
L 466.638271 320.064812 
L 467.063954 304.513858 
L 467.489638 310.821469 
L 467.915321 310.527073 
L 468.341004 308.878963 
L 468.766688 316.140822 
L 469.192371 313.690964 
L 469.618055 306.417891 
L 470.043738 302.35117 
L 470.469421 307.379588 
L 470.895105 306.765279 
L 471.320788 316.377978 
L 471.746472 304.322134 
L 472.172155 303.294585 
L 472.597839 308.569709 
L 473.023522 305.373346 
L 473.449205 301.274844 
L 473.874889 295.031806 
L 474.300572 307.282683 
L 474.726256 297.073758 
L 475.151939 294.187347 
L 475.577622 294.562619 
L 476.003306 295.507032 
L 476.428989 295.638424 
L 476.854673 292.533638 
L 477.280356 287.748576 
L 477.706039 293.861474 
L 478.131723 292.442942 
L 478.557406 288.246172 
L 478.98309 289.052962 
L 479.408773 287.868216 
L 479.834456 272.994559 
L 480.26014 280.211237 
L 480.685823 276.148795 
L 481.111507 276.376199 
L 481.53719 267.140777 
L 481.962873 264.634765 
L 482.388557 259.435311 
L 482.81424 263.78342 
L 483.239924 254.236111 
L 483.665607 256.30269 
L 484.091291 259.744039 
L 484.516974 247.093563 
L 484.942657 243.099645 
L 485.368341 243.562722 
L 485.794024 246.202817 
L 486.219708 247.548061 
L 486.645391 239.415643 
L 487.071074 242.765222 
L 487.496758 242.366101 
L 487.922441 229.647581 
L 488.348125 231.554539 
L 488.773808 229.775554 
L 489.199491 228.652717 
L 489.625175 218.470355 
L 490.050858 228.472306 
L 490.902225 215.770197 
L 491.327908 215.129691 
L 491.753592 217.179492 
L 492.179275 213.27309 
L 492.604959 212.287881 
L 493.030642 203.088531 
L 493.456325 208.293096 
L 493.882009 210.187481 
L 494.307692 201.423165 
L 494.733376 210.564401 
L 495.159059 202.135325 
L 495.584743 198.439591 
L 496.010426 207.641448 
L 496.436109 200.863021 
L 496.861793 197.768918 
L 497.287476 196.690968 
L 498.138843 192.936396 
L 498.564526 199.997111 
L 498.99021 204.394621 
L 499.415893 204.194504 
L 499.841577 198.469044 
L 500.26726 208.255 
L 500.692943 200.178826 
L 501.118627 207.646171 
L 501.54431 207.417497 
L 501.969994 202.999568 
L 502.395677 207.787285 
L 502.82136 209.80849 
L 503.247044 210.258058 
L 503.672727 202.874059 
L 504.098411 215.73707 
L 504.524094 211.020105 
L 504.949777 214.902194 
L 505.375461 202.290852 
L 505.801144 216.868417 
L 506.226828 210.422039 
L 506.652511 216.190269 
L 507.078195 228.131245 
L 507.503878 221.456797 
L 507.929561 222.712714 
L 508.355245 227.549355 
L 508.780928 237.845114 
L 509.206612 222.625618 
L 509.632295 234.895872 
L 510.057978 242.153409 
L 510.483662 233.449207 
L 510.909345 241.931311 
L 511.335029 242.204031 
L 512.186395 255.301637 
L 512.612079 250.925349 
L 513.037762 249.467361 
L 513.463446 254.986377 
L 513.889129 257.131071 
L 514.740496 260.202238 
L 515.166179 265.202858 
L 515.591863 267.612213 
L 516.868913 278.801982 
L 517.294596 278.153405 
L 517.72028 279.981688 
L 518.145963 280.476819 
L 518.571647 66.96 
L 519.423013 66.96 
L 519.848697 284.440441 
L 520.27438 286.489274 
L 520.700064 289.178783 
L 521.125747 294.296378 
L 521.55143 294.277496 
L 521.977114 294.599774 
L 522.402797 293.840628 
L 522.828481 295.390467 
L 523.254164 288.709476 
L 523.679847 298.433969 
L 524.105531 300.858519 
L 524.531214 305.169196 
L 524.956898 303.045039 
L 525.382581 288.561014 
L 525.808264 298.348242 
L 526.233948 296.025809 
L 526.659631 298.999676 
L 527.085315 299.082809 
L 527.510998 300.352953 
L 528.362365 293.043954 
L 528.788048 294.802612 
L 529.213732 298.853527 
L 529.639415 296.785384 
L 530.065099 302.407206 
L 530.490782 290.770075 
L 530.916465 286.945801 
L 531.342149 299.579059 
L 531.767832 292.166587 
L 532.193516 294.405903 
L 532.619199 294.294518 
L 533.044882 283.395246 
L 533.470566 281.383144 
L 533.896249 276.117071 
L 534.321933 280.675381 
L 534.747616 288.438409 
L 535.173299 276.938672 
L 535.598983 279.836781 
L 536.45035 271.767009 
L 536.876033 270.290281 
L 537.301716 265.05311 
L 537.7274 268.764356 
L 538.153083 266.521977 
L 539.00445 255.303129 
L 539.430134 258.123779 
L 540.2815 255.740682 
L 541.132867 247.735875 
L 541.558551 248.882047 
L 541.984234 238.6896 
L 542.409917 247.567549 
L 542.835601 237.206586 
L 543.261284 240.082083 
L 543.686968 226.620161 
L 544.112651 231.353324 
L 544.538334 222.179958 
L 544.964018 226.241835 
L 545.389701 223.080362 
L 545.815385 224.16752 
L 546.241068 230.497269 
L 546.666751 208.772789 
L 547.092435 219.342185 
L 547.518118 200.858084 
L 547.943802 208.176851 
L 548.369485 209.986969 
L 548.795168 202.950769 
L 549.220852 200.477772 
L 549.646535 203.431238 
L 550.072219 200.376727 
L 550.497902 191.853415 
L 550.923586 203.941397 
L 551.349269 197.061689 
L 551.774952 192.405651 
L 552.200636 200.484142 
L 552.626319 201.081245 
L 553.052003 187.210877 
L 553.477686 195.168127 
L 553.903369 195.730941 
L 554.329053 191.059531 
L 554.754736 192.789766 
L 555.18042 192.505429 
L 555.606103 195.879309 
L 556.031786 193.682084 
L 556.45747 186.448793 
L 556.883153 188.037298 
L 557.308837 193.004597 
L 557.73452 180.734291 
L 558.160203 185.083856 
L 558.585887 194.863416 
L 559.01157 192.905804 
L 559.437254 206.702252 
L 559.862937 190.248555 
L 560.28862 192.903762 
L 560.714304 198.38792 
L 561.139987 198.335592 
L 561.565671 198.474305 
L 561.991354 196.009693 
L 562.417038 205.715808 
L 562.842721 198.84881 
L 563.268404 201.779733 
L 563.694088 209.540293 
L 564.119771 209.611319 
L 564.545455 202.666071 
L 564.971138 212.866612 
L 565.396821 219.961699 
L 565.822505 222.353394 
L 566.248188 218.641338 
L 566.673872 219.508879 
L 567.099555 221.6507 
L 567.525238 226.007626 
L 567.950922 235.348874 
L 568.802289 227.928417 
L 569.227972 243.693157 
L 569.653655 233.883783 
L 570.079339 244.867536 
L 570.505022 242.020663 
L 570.930706 249.265049 
L 571.356389 242.38995 
L 571.782072 250.559185 
L 572.207756 248.657162 
L 572.633439 255.990872 
L 573.484806 263.382503 
L 573.91049 264.089129 
L 574.336173 262.898866 
L 574.761856 257.771173 
L 575.18754 263.171688 
L 575.613223 270.138206 
L 576.038907 268.404228 
L 576.46459 275.375176 
L 576.890273 275.543178 
L 577.315957 274.031689 
L 577.74164 265.182664 
L 578.167324 276.871594 
L 578.593007 278.847565 
L 579.01869 290.146471 
L 579.444374 277.005374 
L 579.870057 277.869173 
L 580.295741 290.823198 
L 580.721424 285.079376 
L 581.147107 289.397077 
L 581.572791 286.196522 
L 581.998474 289.413754 
L 582.424158 283.637659 
L 582.849841 287.414107 
L 583.275524 288.28419 
L 583.701208 287.244288 
L 584.126891 296.473537 
L 584.552575 293.797575 
L 584.978258 283.151169 
L 585.403942 287.780943 
L 585.829625 286.533344 
L 586.255308 293.575106 
L 586.680992 278.189653 
L 587.106675 288.732847 
L 587.532359 283.691682 
L 587.958042 285.891298 
L 588.383725 279.982195 
L 588.809409 286.468594 
L 589.235092 277.416447 
L 589.660776 276.030156 
L 590.086459 282.053938 
L 590.512142 284.148822 
L 590.937826 274.039099 
L 591.363509 283.747449 
L 591.789193 269.247248 
L 592.640559 265.260385 
L 593.066243 267.958007 
L 593.491926 256.9404 
L 593.91761 262.989748 
L 594.343293 264.224946 
L 594.768976 259.58536 
L 595.19466 260.927347 
L 595.620343 258.664089 
L 596.046027 250.161841 
L 596.47171 248.415465 
L 596.897394 248.408443 
L 597.323077 244.6276 
L 597.74876 241.88913 
L 598.174444 240.022882 
L 598.600127 228.929137 
L 599.025811 236.20307 
L 599.451494 228.388337 
L 599.877177 230.150745 
L 600.302861 230.648675 
L 600.728544 227.669637 
L 601.154228 220.680677 
L 601.579911 221.272634 
L 602.005594 215.857165 
L 602.431278 212.744796 
L 602.856961 208.795403 
L 603.282645 213.813176 
L 603.708328 201.707954 
L 604.134011 213.118049 
L 604.559695 211.051138 
L 604.985378 196.346547 
L 605.411062 193.940067 
L 605.836745 201.973606 
L 606.262428 193.305317 
L 606.688112 199.135301 
L 607.113795 185.37198 
L 607.539479 190.140184 
L 608.390846 188.957197 
L 608.816529 191.40928 
L 609.242212 181.565732 
L 609.667896 183.978241 
L 610.093579 180.949014 
L 610.519263 185.476848 
L 610.944946 183.117711 
L 611.370629 179.693679 
L 611.796313 187.382783 
L 612.221996 183.623352 
L 612.64768 181.952573 
L 613.073363 176.801911 
L 613.499046 182.973454 
L 613.92473 183.56625 
L 614.350413 177.451621 
L 614.776097 182.55963 
L 615.20178 175.563751 
L 615.627463 187.219089 
L 616.053147 182.339189 
L 616.47883 184.769134 
L 616.904514 184.371677 
L 617.330197 180.121352 
L 617.75588 181.159184 
L 618.607247 194.103529 
L 619.032931 190.799338 
L 619.458614 183.455875 
L 619.884298 190.520089 
L 620.309981 195.630528 
L 621.587031 189.435481 
L 622.438398 204.948073 
L 622.864081 193.397385 
L 623.289765 204.493413 
L 623.715448 201.061877 
L 624.141132 203.690505 
L 624.566815 219.695086 
L 624.992498 206.682332 
L 625.418182 216.18113 
L 625.843865 221.474419 
L 626.269549 219.999017 
L 627.120915 224.857319 
L 627.546599 227.918302 
L 627.972282 223.429438 
L 628.823649 232.931889 
L 629.249332 239.057512 
L 629.675016 233.800057 
L 630.100699 238.375514 
L 630.526383 245.213606 
L 630.952066 247.733491 
L 631.37775 248.889133 
L 631.803433 250.657016 
L 632.229116 250.49623 
L 632.6548 250.463602 
L 633.080483 255.196188 
L 633.506167 264.99759 
L 633.93185 258.405809 
L 634.357533 257.084932 
L 634.783217 268.79267 
L 635.2089 272.830202 
L 635.634584 263.275222 
L 636.060267 269.615295 
L 636.48595 267.264661 
L 636.911634 271.660396 
L 637.337317 264.654741 
L 638.188684 271.227551 
L 638.614367 271.355656 
L 639.040051 271.644404 
L 639.465734 271.587699 
L 639.891418 280.691142 
L 640.317101 270.720644 
L 640.742784 283.529151 
L 641.168468 286.799408 
L 641.594151 278.796426 
L 642.019835 275.419416 
L 642.445518 276.27885 
L 642.871202 275.294262 
L 643.296885 276.957604 
L 643.722568 279.44602 
L 644.148252 275.808111 
L 644.573935 268.267852 
L 644.999619 276.123263 
L 645.425302 272.056176 
L 645.850985 271.090108 
L 646.276669 266.979274 
L 646.702352 275.391258 
L 647.553719 267.010189 
L 647.979402 268.4752 
L 648.405086 264.415166 
L 648.830769 264.566718 
L 649.682136 266.683509 
L 650.107819 254.676992 
L 650.533503 255.665741 
L 650.959186 250.9302 
L 651.38487 261.528581 
L 651.810553 245.415814 
L 652.236236 246.184044 
L 652.66192 247.220528 
L 653.087603 240.798143 
L 653.513287 239.511904 
L 653.93897 235.663542 
L 654.364654 233.661948 
L 654.790337 232.718078 
L 655.21602 230.340053 
L 655.641704 230.953807 
L 656.067387 224.055419 
L 656.493071 225.651003 
L 656.918754 215.499901 
L 657.344437 217.990241 
L 657.770121 209.959696 
L 658.195804 214.912189 
L 658.621488 211.847452 
L 659.047171 205.084269 
L 659.472854 201.478394 
L 659.898538 208.503512 
L 660.324221 198.005501 
L 660.749905 194.654299 
L 661.175588 198.795047 
L 661.601271 191.876538 
L 662.026955 195.371341 
L 662.452638 192.818369 
L 662.878322 189.369494 
L 663.304005 189.610683 
L 663.729688 178.775829 
L 664.155372 183.30665 
L 664.581055 183.208068 
L 665.006739 186.642535 
L 665.432422 178.08743 
L 665.858106 180.174338 
L 666.283789 177.36268 
L 666.709472 175.909374 
L 667.135156 180.274683 
L 667.560839 170.411314 
L 667.986523 170.561984 
L 668.412206 168.941218 
L 669.263573 177.090209 
L 669.689256 160.846082 
L 670.11494 162.702476 
L 670.540623 170.197268 
L 670.966306 174.145775 
L 671.39199 168.92168 
L 671.817673 168.431183 
L 672.243357 177.051998 
L 672.66904 169.952949 
L 673.094723 168.869278 
L 673.520407 162.744239 
L 673.94609 174.970624 
L 674.371774 161.151331 
L 675.22314 173.206307 
L 675.648824 175.555134 
L 676.500191 171.153084 
L 676.925874 171.815168 
L 677.777241 183.969301 
L 678.202924 177.767493 
L 678.628608 179.683069 
L 679.054291 188.231152 
L 679.479975 191.984164 
L 679.905658 190.04257 
L 680.331341 190.011409 
L 681.182708 199.884341 
L 681.608392 201.19604 
L 682.034075 196.456222 
L 682.459758 199.224899 
L 682.885442 202.909505 
L 683.311125 209.296136 
L 683.736809 209.52778 
L 684.162492 215.850429 
L 684.588175 209.803824 
L 685.013859 223.273771 
L 685.439542 219.218623 
L 685.865226 221.545086 
L 686.290909 225.529193 
L 686.716592 215.002984 
L 687.142276 218.344209 
L 687.567959 231.93221 
L 687.993643 230.21336 
L 688.419326 232.917822 
L 689.270693 236.587769 
L 690.12206 251.737469 
L 690.547743 246.617155 
L 690.973427 243.918151 
L 691.39911 250.967433 
L 691.824793 249.015345 
L 692.250477 255.334304 
L 692.67616 252.826758 
L 693.101844 253.322433 
L 693.527527 256.488615 
L 693.95321 262.482335 
L 694.378894 254.647596 
L 695.230261 267.118949 
L 695.655944 265.663831 
L 696.081627 263.347037 
L 696.932994 272.8464 
L 697.784361 266.787514 
L 698.210045 266.417407 
L 698.635728 260.878034 
L 699.061411 269.967299 
L 699.487095 270.894177 
L 699.912778 270.009066 
L 700.338462 262.896419 
L 700.764145 270.257349 
L 701.189828 266.797964 
L 701.615512 257.101009 
L 702.041195 270.396864 
L 702.892562 265.391238 
L 703.318245 269.213637 
L 703.743929 260.674318 
L 704.169612 268.940483 
L 704.595296 260.704498 
L 705.020979 261.341453 
L 705.446662 259.232714 
L 705.872346 250.047909 
L 706.298029 250.199011 
L 706.723713 244.055721 
L 707.149396 245.302241 
L 708.000763 248.357125 
L 708.426446 242.784013 
L 708.85213 240.441286 
L 709.277813 240.670074 
L 709.703497 243.423647 
L 710.12918 231.99017 
L 710.554863 236.099923 
L 710.980547 235.584327 
L 711.40623 227.806562 
L 711.831914 227.259998 
L 712.257597 219.156404 
L 712.68328 222.368352 
L 713.108964 213.508131 
L 713.534647 214.438338 
L 713.960331 212.302386 
L 714.386014 211.562598 
L 714.811697 203.183342 
L 715.237381 207.516743 
L 715.663064 205.888588 
L 716.088748 199.818162 
L 716.514431 197.414183 
L 716.940114 187.563431 
L 717.365798 193.699843 
L 717.791481 187.801171 
L 718.217165 189.018545 
L 718.642848 180.239922 
L 719.068531 182.056373 
L 719.494215 179.583891 
L 719.919898 179.017806 
L 720.345582 181.9851 
L 720.771265 178.788732 
L 721.196949 172.100572 
L 721.622632 176.912928 
L 722.048315 165.842712 
L 722.473999 174.673247 
L 723.325366 171.109651 
L 724.176732 159.271975 
L 724.602416 169.133745 
L 725.028099 163.31134 
L 725.453783 160.398539 
L 725.879466 166.44406 
L 726.305149 160.235067 
L 726.730833 159.379289 
L 727.156516 153.765932 
L 727.5822 154.920484 
L 728.007883 162.833773 
L 728.433566 161.973214 
L 728.85925 160.307182 
L 729.284933 166.026734 
L 729.710617 162.296835 
L 730.1363 154.418257 
L 730.561983 159.836195 
L 730.987667 155.539227 
L 731.41335 155.98059 
L 731.839034 163.148502 
L 732.264717 162.747915 
L 732.690401 153.89096 
L 733.116084 164.25553 
L 733.541767 163.042375 
L 733.967451 160.440545 
L 734.393134 167.017575 
L 734.818818 167.311745 
L 735.244501 174.56231 
L 735.670184 162.713948 
L 736.095868 175.873812 
L 736.521551 179.301194 
L 736.947235 178.594265 
L 737.372918 170.854419 
L 737.798601 187.416468 
L 738.224285 182.942014 
L 738.649968 189.244545 
L 739.075652 190.514415 
L 739.501335 188.295384 
L 739.927018 188.63521 
L 740.352702 185.928544 
L 740.778385 196.744286 
L 741.204069 195.593431 
L 741.629752 211.171645 
L 742.055435 201.449305 
L 742.481119 197.558153 
L 742.906802 204.626019 
L 742.906802 204.626019 
" style="fill:none;stroke:#1f77b4;stroke-linecap:square;stroke-width:1.5;"/>
   </g>
   <g id="line2d_19">
    <path clip-path="url(#p5b32dd48c2)" d="M 747.163636 384.48 
L 747.163636 51.84 
" style="fill:none;stroke:#808080;stroke-linecap:square;"/>
   </g>
   <g id="patch_90">
    <path d="M 108 384.48 
L 108 51.84 
" style="fill:none;stroke:#000000;stroke-linecap:square;stroke-linejoin:miter;stroke-width:0.8;"/>
   </g>
   <g id="patch_91">
    <path d="M 777.6 384.48 
L 777.6 51.84 
" style="fill:none;stroke:#000000;stroke-linecap:square;stroke-linejoin:miter;stroke-width:0.8;"/>
   </g>
   <g id="patch_92">
    <path d="M 108 384.48 
L 777.6 384.48 
" style="fill:none;stroke:#000000;stroke-linecap:square;stroke-linejoin:miter;stroke-width:0.8;"/>
   </g>
   <g id="patch_93">
    <path d="M 108 51.84 
L 777.6 51.84 
" style="fill:none;stroke:#000000;stroke-linecap:square;stroke-linejoin:miter;stroke-width:0.8;"/>
   </g>
   <g id="text_20">
    <!-- synthetic_11.csv -->
    <defs>
     <path d="M 32.171875 -5.078125 
Q 28.375 -14.84375 24.75 -17.8125 
Q 21.140625 -20.796875 15.09375 -20.796875 
L 7.90625 -20.796875 
L 7.90625 -13.28125 
L 13.1875 -13.28125 
Q 16.890625 -13.28125 18.9375 -11.515625 
Q 21 -9.765625 23.484375 -3.21875 
L 25.09375 0.875 
L 2.984375 54.6875 
L 12.5 54.6875 
L 29.59375 11.921875 
L 46.6875 54.6875 
L 56.203125 54.6875 
z
" id="DejaVuSans-121"/>
     <path d="M 54.890625 33.015625 
L 54.890625 0 
L 45.90625 0 
L 45.90625 32.71875 
Q 45.90625 40.484375 42.875 44.328125 
Q 39.84375 48.1875 33.796875 48.1875 
Q 26.515625 48.1875 22.3125 43.546875 
Q 18.109375 38.921875 18.109375 30.90625 
L 18.109375 0 
L 9.078125 0 
L 9.078125 54.6875 
L 18.109375 54.6875 
L 18.109375 46.1875 
Q 21.34375 51.125 25.703125 53.5625 
Q 30.078125 56 35.796875 56 
Q 45.21875 56 50.046875 50.171875 
Q 54.890625 44.34375 54.890625 33.015625 
z
" id="DejaVuSans-110"/>
     <path d="M 54.890625 33.015625 
L 54.890625 0 
L 45.90625 0 
L 45.90625 32.71875 
Q 45.90625 40.484375 42.875 44.328125 
Q 39.84375 48.1875 33.796875 48.1875 
Q 26.515625 48.1875 22.3125 43.546875 
Q 18.109375 38.921875 18.109375 30.90625 
L 18.109375 0 
L 9.078125 0 
L 9.078125 75.984375 
L 18.109375 75.984375 
L 18.109375 46.1875 
Q 21.34375 51.125 25.703125 53.5625 
Q 30.078125 56 35.796875 56 
Q 45.21875 56 50.046875 50.171875 
Q 54.890625 44.34375 54.890625 33.015625 
z
" id="DejaVuSans-104"/>
     <path d="M 48.78125 52.59375 
L 48.78125 44.1875 
Q 44.96875 46.296875 41.140625 47.34375 
Q 37.3125 48.390625 33.40625 48.390625 
Q 24.65625 48.390625 19.8125 42.84375 
Q 14.984375 37.3125 14.984375 27.296875 
Q 14.984375 17.28125 19.8125 11.734375 
Q 24.65625 6.203125 33.40625 6.203125 
Q 37.3125 6.203125 41.140625 7.25 
Q 44.96875 8.296875 48.78125 10.40625 
L 48.78125 2.09375 
Q 45.015625 0.34375 40.984375 -0.53125 
Q 36.96875 -1.421875 32.421875 -1.421875 
Q 20.0625 -1.421875 12.78125 6.34375 
Q 5.515625 14.109375 5.515625 27.296875 
Q 5.515625 40.671875 12.859375 48.328125 
Q 20.21875 56 33.015625 56 
Q 37.15625 56 41.109375 55.140625 
Q 45.0625 54.296875 48.78125 52.59375 
z
" id="DejaVuSans-99"/>
     <path d="M 50.984375 -16.609375 
L 50.984375 -23.578125 
L -0.984375 -23.578125 
L -0.984375 -16.609375 
z
" id="DejaVuSans-95"/>
     <path d="M 10.6875 12.40625 
L 21 12.40625 
L 21 0 
L 10.6875 0 
z
" id="DejaVuSans-46"/>
     <path d="M 2.984375 54.6875 
L 12.5 54.6875 
L 29.59375 8.796875 
L 46.6875 54.6875 
L 56.203125 54.6875 
L 35.6875 0 
L 23.484375 0 
z
" id="DejaVuSans-118"/>
    </defs>
    <g transform="translate(392.638125 45.84)scale(0.12 -0.12)">
     <use xlink:href="#DejaVuSans-115"/>
     <use x="52.099609" xlink:href="#DejaVuSans-121"/>
     <use x="111.279297" xlink:href="#DejaVuSans-110"/>
     <use x="174.658203" xlink:href="#DejaVuSans-116"/>
     <use x="213.867188" xlink:href="#DejaVuSans-104"/>
     <use x="277.246094" xlink:href="#DejaVuSans-101"/>
     <use x="338.769531" xlink:href="#DejaVuSans-116"/>
     <use x="377.978516" xlink:href="#DejaVuSans-105"/>
     <use x="405.761719" xlink:href="#DejaVuSans-99"/>
     <use x="460.742188" xlink:href="#DejaVuSans-95"/>
     <use x="510.742188" xlink:href="#DejaVuSans-49"/>
     <use x="574.365234" xlink:href="#DejaVuSans-49"/>
     <use x="637.988281" xlink:href="#DejaVuSans-46"/>
     <use x="669.775391" xlink:href="#DejaVuSans-99"/>
     <use x="724.755859" xlink:href="#DejaVuSans-115"/>
     <use x="776.855469" xlink:href="#DejaVuSans-118"/>
    </g>
   </g>
   <g id="legend_1">
    <g id="patch_94">
     <path d="M 115 74.518125 
L 174.315625 74.518125 
Q 176.315625 74.518125 176.315625 72.518125 
L 176.315625 58.84 
Q 176.315625 56.84 174.315625 56.84 
L 115 56.84 
Q 113 56.84 113 58.84 
L 113 72.518125 
Q 113 74.518125 115 74.518125 
z
" style="fill:#ffffff;opacity:0.8;stroke:#cccccc;stroke-linejoin:miter;"/>
    </g>
    <g id="line2d_20">
     <path d="M 117 64.938438 
L 137 64.938438 
" style="fill:none;stroke:#1f77b4;stroke-linecap:square;stroke-width:1.5;"/>
    </g>
    <g id="line2d_21"/>
    <g id="text_21">
     <!-- value -->
     <g transform="translate(145 68.438438)scale(0.1 -0.1)">
      <use xlink:href="#DejaVuSans-118"/>
      <use x="59.179688" xlink:href="#DejaVuSans-97"/>
      <use x="120.458984" xlink:href="#DejaVuSans-108"/>
      <use x="148.242188" xlink:href="#DejaVuSans-117"/>
      <use x="211.621094" xlink:href="#DejaVuSans-101"/>
     </g>
    </g>
   </g>
  </g>
 </g>
 <defs>
  <clipPath id="p5b32dd48c2">
   <rect height="332.64" width="669.6" x="108" y="51.84"/>
  </clipPath>
 </defs>
</svg>
