<?xml version="1.0" encoding="utf-8" standalone="no"?>
<!DOCTYPE svg PUBLIC "-//W3C//DTD SVG 1.1//EN"
  "http://www.w3.org/Graphics/SVG/1.1/DTD/svg11.dtd">
<!-- Created with matplotlib (https://matplotlib.org/) -->
<svg height="432pt" version="1.1" viewBox="0 0 864 432" width="864pt" xmlns="http://www.w3.org/2000/svg" xmlns:xlink="http://www.w3.org/1999/xlink">
 <defs>
  <style type="text/css">
*{stroke-linecap:butt;stroke-linejoin:round;}
  </style>
 </defs>
 <g id="figure_1">
  <g id="patch_1">
   <path d="M 0 432 
L 864 432 
L 864 0 
L 0 0 
z
" style="fill:#ffffff;"/>
  </g>
  <g id="axes_1">
   <g id="patch_2">
    <path d="M 108 384.48 
L 777.6 384.48 
L 777.6 51.84 
L 108 51.84 
z
" style="fill:#ffffff;"/>
   </g>
   <g id="patch_3">
    <path clip-path="url(#p8ee5c02855)" d="M 138.436364 384.48 
L 138.436364 51.84 
L 440.671583 51.84 
L 440.671583 384.48 
z
" style="fill:#0000ff;opacity:0.05;"/>
   </g>
   <g id="patch_4">
    <path clip-path="url(#p8ee5c02855)" d="M 440.671583 384.48 
L 440.671583 51.84 
L 747.163636 51.84 
L 747.163636 384.48 
z
" style="fill:#ff0000;opacity:0.08;"/>
   </g>
   <g id="patch_5">
    <path clip-path="url(#p8ee5c02855)" d="M 138.436364 384.48 
L 138.436364 51.84 
L 142.693198 51.84 
L 142.693198 384.48 
z
" style="fill:#008000;opacity:0.04;"/>
   </g>
   <g id="patch_6">
    <path clip-path="url(#p8ee5c02855)" d="M 146.950032 384.48 
L 146.950032 51.84 
L 151.206866 51.84 
L 151.206866 384.48 
z
" style="fill:#008000;opacity:0.04;"/>
   </g>
   <g id="patch_7">
    <path clip-path="url(#p8ee5c02855)" d="M 155.4637 384.48 
L 155.4637 51.84 
L 159.720534 51.84 
L 159.720534 384.48 
z
" style="fill:#008000;opacity:0.04;"/>
   </g>
   <g id="patch_8">
    <path clip-path="url(#p8ee5c02855)" d="M 163.977368 384.48 
L 163.977368 51.84 
L 168.234202 51.84 
L 168.234202 384.48 
z
" style="fill:#008000;opacity:0.04;"/>
   </g>
   <g id="patch_9">
    <path clip-path="url(#p8ee5c02855)" d="M 168.234202 384.48 
L 168.234202 371.1744 
L 172.491036 371.1744 
L 172.491036 384.48 
z
" style="fill:#ffe500;"/>
   </g>
   <g id="patch_10">
    <path clip-path="url(#p8ee5c02855)" d="M 172.491036 384.48 
L 172.491036 51.84 
L 176.74787 51.84 
L 176.74787 384.48 
z
" style="fill:#008000;opacity:0.04;"/>
   </g>
   <g id="patch_11">
    <path clip-path="url(#p8ee5c02855)" d="M 181.004704 384.48 
L 181.004704 51.84 
L 185.261538 51.84 
L 185.261538 384.48 
z
" style="fill:#008000;opacity:0.04;"/>
   </g>
   <g id="patch_12">
    <path clip-path="url(#p8ee5c02855)" d="M 189.518373 384.48 
L 189.518373 51.84 
L 193.775207 51.84 
L 193.775207 384.48 
z
" style="fill:#008000;opacity:0.04;"/>
   </g>
   <g id="patch_13">
    <path clip-path="url(#p8ee5c02855)" d="M 198.032041 384.48 
L 198.032041 51.84 
L 202.288875 51.84 
L 202.288875 384.48 
z
" style="fill:#008000;opacity:0.04;"/>
   </g>
   <g id="patch_14">
    <path clip-path="url(#p8ee5c02855)" d="M 206.545709 384.48 
L 206.545709 51.84 
L 210.802543 51.84 
L 210.802543 384.48 
z
" style="fill:#008000;opacity:0.04;"/>
   </g>
   <g id="patch_15">
    <path clip-path="url(#p8ee5c02855)" d="M 215.059377 384.48 
L 215.059377 51.84 
L 219.316211 51.84 
L 219.316211 384.48 
z
" style="fill:#008000;opacity:0.04;"/>
   </g>
   <g id="patch_16">
    <path clip-path="url(#p8ee5c02855)" d="M 215.059377 384.48 
L 215.059377 371.1744 
L 219.316211 371.1744 
L 219.316211 384.48 
z
" style="fill:#ffe500;"/>
   </g>
   <g id="patch_17">
    <path clip-path="url(#p8ee5c02855)" d="M 517.294596 384.48 
L 517.294596 371.1744 
L 521.55143 371.1744 
L 521.55143 384.48 
z
" style="fill:#ff6600;"/>
   </g>
   <g id="patch_18">
    <path clip-path="url(#p8ee5c02855)" d="M 223.573045 384.48 
L 223.573045 51.84 
L 227.829879 51.84 
L 227.829879 384.48 
z
" style="fill:#008000;opacity:0.04;"/>
   </g>
   <g id="patch_19">
    <path clip-path="url(#p8ee5c02855)" d="M 232.086713 384.48 
L 232.086713 51.84 
L 236.343547 51.84 
L 236.343547 384.48 
z
" style="fill:#008000;opacity:0.04;"/>
   </g>
   <g id="patch_20">
    <path clip-path="url(#p8ee5c02855)" d="M 240.600381 384.48 
L 240.600381 51.84 
L 244.857216 51.84 
L 244.857216 384.48 
z
" style="fill:#008000;opacity:0.04;"/>
   </g>
   <g id="patch_21">
    <path clip-path="url(#p8ee5c02855)" d="M 249.11405 384.48 
L 249.11405 51.84 
L 253.370884 51.84 
L 253.370884 384.48 
z
" style="fill:#008000;opacity:0.04;"/>
   </g>
   <g id="patch_22">
    <path clip-path="url(#p8ee5c02855)" d="M 257.627718 384.48 
L 257.627718 51.84 
L 261.884552 51.84 
L 261.884552 384.48 
z
" style="fill:#008000;opacity:0.04;"/>
   </g>
   <g id="patch_23">
    <path clip-path="url(#p8ee5c02855)" d="M 266.141386 384.48 
L 266.141386 51.84 
L 270.39822 51.84 
L 270.39822 384.48 
z
" style="fill:#008000;opacity:0.04;"/>
   </g>
   <g id="patch_24">
    <path clip-path="url(#p8ee5c02855)" d="M 274.655054 384.48 
L 274.655054 51.84 
L 278.911888 51.84 
L 278.911888 384.48 
z
" style="fill:#008000;opacity:0.04;"/>
   </g>
   <g id="patch_25">
    <path clip-path="url(#p8ee5c02855)" d="M 278.911888 384.48 
L 278.911888 371.1744 
L 283.168722 371.1744 
L 283.168722 384.48 
z
" style="fill:#ffe500;"/>
   </g>
   <g id="patch_26">
    <path clip-path="url(#p8ee5c02855)" d="M 283.168722 384.48 
L 283.168722 51.84 
L 287.425556 51.84 
L 287.425556 384.48 
z
" style="fill:#008000;opacity:0.04;"/>
   </g>
   <g id="patch_27">
    <path clip-path="url(#p8ee5c02855)" d="M 291.68239 384.48 
L 291.68239 51.84 
L 295.939224 51.84 
L 295.939224 384.48 
z
" style="fill:#008000;opacity:0.04;"/>
   </g>
   <g id="patch_28">
    <path clip-path="url(#p8ee5c02855)" d="M 300.196058 384.48 
L 300.196058 51.84 
L 304.452893 51.84 
L 304.452893 384.48 
z
" style="fill:#008000;opacity:0.04;"/>
   </g>
   <g id="patch_29">
    <path clip-path="url(#p8ee5c02855)" d="M 308.709727 384.48 
L 308.709727 51.84 
L 312.966561 51.84 
L 312.966561 384.48 
z
" style="fill:#008000;opacity:0.04;"/>
   </g>
   <g id="patch_30">
    <path clip-path="url(#p8ee5c02855)" d="M 317.223395 384.48 
L 317.223395 51.84 
L 321.480229 51.84 
L 321.480229 384.48 
z
" style="fill:#008000;opacity:0.04;"/>
   </g>
   <g id="patch_31">
    <path clip-path="url(#p8ee5c02855)" d="M 325.737063 384.48 
L 325.737063 51.84 
L 329.993897 51.84 
L 329.993897 384.48 
z
" style="fill:#008000;opacity:0.04;"/>
   </g>
   <g id="patch_32">
    <path clip-path="url(#p8ee5c02855)" d="M 334.250731 384.48 
L 334.250731 51.84 
L 338.507565 51.84 
L 338.507565 384.48 
z
" style="fill:#008000;opacity:0.04;"/>
   </g>
   <g id="patch_33">
    <path clip-path="url(#p8ee5c02855)" d="M 342.764399 384.48 
L 342.764399 51.84 
L 347.021233 51.84 
L 347.021233 384.48 
z
" style="fill:#008000;opacity:0.04;"/>
   </g>
   <g id="patch_34">
    <path clip-path="url(#p8ee5c02855)" d="M 351.278067 384.48 
L 351.278067 51.84 
L 355.534901 51.84 
L 355.534901 384.48 
z
" style="fill:#008000;opacity:0.04;"/>
   </g>
   <g id="patch_35">
    <path clip-path="url(#p8ee5c02855)" d="M 359.791736 384.48 
L 359.791736 51.84 
L 364.04857 51.84 
L 364.04857 384.48 
z
" style="fill:#008000;opacity:0.04;"/>
   </g>
   <g id="patch_36">
    <path clip-path="url(#p8ee5c02855)" d="M 368.305404 384.48 
L 368.305404 51.84 
L 372.562238 51.84 
L 372.562238 384.48 
z
" style="fill:#008000;opacity:0.04;"/>
   </g>
   <g id="patch_37">
    <path clip-path="url(#p8ee5c02855)" d="M 376.819072 384.48 
L 376.819072 51.84 
L 381.075906 51.84 
L 381.075906 384.48 
z
" style="fill:#008000;opacity:0.04;"/>
   </g>
   <g id="patch_38">
    <path clip-path="url(#p8ee5c02855)" d="M 385.33274 384.48 
L 385.33274 51.84 
L 389.589574 51.84 
L 389.589574 384.48 
z
" style="fill:#008000;opacity:0.04;"/>
   </g>
   <g id="patch_39">
    <path clip-path="url(#p8ee5c02855)" d="M 393.846408 384.48 
L 393.846408 51.84 
L 398.103242 51.84 
L 398.103242 384.48 
z
" style="fill:#008000;opacity:0.04;"/>
   </g>
   <g id="patch_40">
    <path clip-path="url(#p8ee5c02855)" d="M 402.360076 384.48 
L 402.360076 51.84 
L 406.61691 51.84 
L 406.61691 384.48 
z
" style="fill:#008000;opacity:0.04;"/>
   </g>
   <g id="patch_41">
    <path clip-path="url(#p8ee5c02855)" d="M 402.360076 371.1744 
L 402.360076 51.84 
L 406.61691 51.84 
L 406.61691 371.1744 
z
" style="fill:#008000;opacity:0.5;"/>
   </g>
   <g id="patch_42">
    <path clip-path="url(#p8ee5c02855)" d="M 402.360076 384.48 
L 402.360076 371.1744 
L 406.61691 371.1744 
L 406.61691 384.48 
z
" style="fill:#ffe500;"/>
   </g>
   <g id="patch_43">
    <path clip-path="url(#p8ee5c02855)" d="M 410.873744 384.48 
L 410.873744 51.84 
L 415.130579 51.84 
L 415.130579 384.48 
z
" style="fill:#008000;opacity:0.04;"/>
   </g>
   <g id="patch_44">
    <path clip-path="url(#p8ee5c02855)" d="M 415.130579 371.1744 
L 415.130579 51.84 
L 419.387413 51.84 
L 419.387413 371.1744 
z
" style="fill:#008000;opacity:0.5;"/>
   </g>
   <g id="patch_45">
    <path clip-path="url(#p8ee5c02855)" d="M 415.130579 384.48 
L 415.130579 371.1744 
L 419.387413 371.1744 
L 419.387413 384.48 
z
" style="fill:#ffe500;"/>
   </g>
   <g id="patch_46">
    <path clip-path="url(#p8ee5c02855)" d="M 419.387413 384.48 
L 419.387413 51.84 
L 423.644247 51.84 
L 423.644247 384.48 
z
" style="fill:#008000;opacity:0.04;"/>
   </g>
   <g id="patch_47">
    <path clip-path="url(#p8ee5c02855)" d="M 419.387413 371.1744 
L 419.387413 51.84 
L 423.644247 51.84 
L 423.644247 371.1744 
z
" style="fill:#008000;opacity:0.5;"/>
   </g>
   <g id="patch_48">
    <path clip-path="url(#p8ee5c02855)" d="M 419.387413 384.48 
L 419.387413 371.1744 
L 423.644247 371.1744 
L 423.644247 384.48 
z
" style="fill:#ffe500;"/>
   </g>
   <g id="patch_49">
    <path clip-path="url(#p8ee5c02855)" d="M 423.644247 384.48 
L 423.644247 371.1744 
L 427.901081 371.1744 
L 427.901081 384.48 
z
" style="fill:#ffe500;"/>
   </g>
   <g id="patch_50">
    <path clip-path="url(#p8ee5c02855)" d="M 427.901081 384.48 
L 427.901081 51.84 
L 432.157915 51.84 
L 432.157915 384.48 
z
" style="fill:#008000;opacity:0.04;"/>
   </g>
   <g id="patch_51">
    <path clip-path="url(#p8ee5c02855)" d="M 436.414749 384.48 
L 436.414749 51.84 
L 440.671583 51.84 
L 440.671583 384.48 
z
" style="fill:#008000;opacity:0.04;"/>
   </g>
   <g id="patch_52">
    <path clip-path="url(#p8ee5c02855)" d="M 742.906802 384.48 
L 742.906802 371.1744 
L 747.163636 371.1744 
L 747.163636 384.48 
z
" style="fill:#ff6600;"/>
   </g>
   <g id="patch_53">
    <path clip-path="url(#p8ee5c02855)" d="M 444.928417 384.48 
L 444.928417 51.84 
L 449.185251 51.84 
L 449.185251 384.48 
z
" style="fill:#008000;opacity:0.04;"/>
   </g>
   <g id="patch_54">
    <path clip-path="url(#p8ee5c02855)" d="M 453.442085 384.48 
L 453.442085 51.84 
L 457.698919 51.84 
L 457.698919 384.48 
z
" style="fill:#008000;opacity:0.04;"/>
   </g>
   <g id="patch_55">
    <path clip-path="url(#p8ee5c02855)" d="M 461.955753 384.48 
L 461.955753 51.84 
L 466.212587 51.84 
L 466.212587 384.48 
z
" style="fill:#008000;opacity:0.04;"/>
   </g>
   <g id="patch_56">
    <path clip-path="url(#p8ee5c02855)" d="M 470.469421 384.48 
L 470.469421 51.84 
L 474.726256 51.84 
L 474.726256 384.48 
z
" style="fill:#008000;opacity:0.04;"/>
   </g>
   <g id="patch_57">
    <path clip-path="url(#p8ee5c02855)" d="M 478.98309 384.48 
L 478.98309 51.84 
L 483.239924 51.84 
L 483.239924 384.48 
z
" style="fill:#008000;opacity:0.04;"/>
   </g>
   <g id="patch_58">
    <path clip-path="url(#p8ee5c02855)" d="M 487.496758 384.48 
L 487.496758 51.84 
L 491.753592 51.84 
L 491.753592 384.48 
z
" style="fill:#008000;opacity:0.04;"/>
   </g>
   <g id="patch_59">
    <path clip-path="url(#p8ee5c02855)" d="M 496.010426 384.48 
L 496.010426 51.84 
L 500.26726 51.84 
L 500.26726 384.48 
z
" style="fill:#008000;opacity:0.04;"/>
   </g>
   <g id="patch_60">
    <path clip-path="url(#p8ee5c02855)" d="M 504.524094 384.48 
L 504.524094 51.84 
L 508.780928 51.84 
L 508.780928 384.48 
z
" style="fill:#008000;opacity:0.04;"/>
   </g>
   <g id="patch_61">
    <path clip-path="url(#p8ee5c02855)" d="M 513.037762 384.48 
L 513.037762 51.84 
L 517.294596 51.84 
L 517.294596 384.48 
z
" style="fill:#008000;opacity:0.04;"/>
   </g>
   <g id="patch_62">
    <path clip-path="url(#p8ee5c02855)" d="M 517.294596 371.1744 
L 517.294596 51.84 
L 521.55143 51.84 
L 521.55143 371.1744 
z
" style="fill:#008000;opacity:0.5;"/>
   </g>
   <g id="patch_63">
    <path clip-path="url(#p8ee5c02855)" d="M 521.55143 384.48 
L 521.55143 51.84 
L 525.808264 51.84 
L 525.808264 384.48 
z
" style="fill:#008000;opacity:0.04;"/>
   </g>
   <g id="patch_64">
    <path clip-path="url(#p8ee5c02855)" d="M 530.065099 384.48 
L 530.065099 51.84 
L 534.321933 51.84 
L 534.321933 384.48 
z
" style="fill:#008000;opacity:0.04;"/>
   </g>
   <g id="patch_65">
    <path clip-path="url(#p8ee5c02855)" d="M 538.578767 384.48 
L 538.578767 51.84 
L 542.835601 51.84 
L 542.835601 384.48 
z
" style="fill:#008000;opacity:0.04;"/>
   </g>
   <g id="patch_66">
    <path clip-path="url(#p8ee5c02855)" d="M 547.092435 384.48 
L 547.092435 51.84 
L 551.349269 51.84 
L 551.349269 384.48 
z
" style="fill:#008000;opacity:0.04;"/>
   </g>
   <g id="patch_67">
    <path clip-path="url(#p8ee5c02855)" d="M 555.606103 384.48 
L 555.606103 51.84 
L 559.862937 51.84 
L 559.862937 384.48 
z
" style="fill:#008000;opacity:0.04;"/>
   </g>
   <g id="patch_68">
    <path clip-path="url(#p8ee5c02855)" d="M 564.119771 384.48 
L 564.119771 51.84 
L 568.376605 51.84 
L 568.376605 384.48 
z
" style="fill:#008000;opacity:0.04;"/>
   </g>
   <g id="patch_69">
    <path clip-path="url(#p8ee5c02855)" d="M 572.633439 384.48 
L 572.633439 51.84 
L 576.890273 51.84 
L 576.890273 384.48 
z
" style="fill:#008000;opacity:0.04;"/>
   </g>
   <g id="patch_70">
    <path clip-path="url(#p8ee5c02855)" d="M 581.147107 384.48 
L 581.147107 51.84 
L 585.403942 51.84 
L 585.403942 384.48 
z
" style="fill:#008000;opacity:0.04;"/>
   </g>
   <g id="patch_71">
    <path clip-path="url(#p8ee5c02855)" d="M 589.660776 384.48 
L 589.660776 51.84 
L 593.91761 51.84 
L 593.91761 384.48 
z
" style="fill:#008000;opacity:0.04;"/>
   </g>
   <g id="patch_72">
    <path clip-path="url(#p8ee5c02855)" d="M 598.174444 384.48 
L 598.174444 51.84 
L 602.431278 51.84 
L 602.431278 384.48 
z
" style="fill:#008000;opacity:0.04;"/>
   </g>
   <g id="patch_73">
    <path clip-path="url(#p8ee5c02855)" d="M 606.688112 384.48 
L 606.688112 51.84 
L 610.944946 51.84 
L 610.944946 384.48 
z
" style="fill:#008000;opacity:0.04;"/>
   </g>
   <g id="patch_74">
    <path clip-path="url(#p8ee5c02855)" d="M 615.20178 384.48 
L 615.20178 51.84 
L 619.458614 51.84 
L 619.458614 384.48 
z
" style="fill:#008000;opacity:0.04;"/>
   </g>
   <g id="patch_75">
    <path clip-path="url(#p8ee5c02855)" d="M 623.715448 384.48 
L 623.715448 51.84 
L 627.972282 51.84 
L 627.972282 384.48 
z
" style="fill:#008000;opacity:0.04;"/>
   </g>
   <g id="patch_76">
    <path clip-path="url(#p8ee5c02855)" d="M 632.229116 384.48 
L 632.229116 51.84 
L 636.48595 51.84 
L 636.48595 384.48 
z
" style="fill:#008000;opacity:0.04;"/>
   </g>
   <g id="patch_77">
    <path clip-path="url(#p8ee5c02855)" d="M 640.742784 384.48 
L 640.742784 51.84 
L 644.999619 51.84 
L 644.999619 384.48 
z
" style="fill:#008000;opacity:0.04;"/>
   </g>
   <g id="patch_78">
    <path clip-path="url(#p8ee5c02855)" d="M 649.256453 384.48 
L 649.256453 51.84 
L 653.513287 51.84 
L 653.513287 384.48 
z
" style="fill:#008000;opacity:0.04;"/>
   </g>
   <g id="patch_79">
    <path clip-path="url(#p8ee5c02855)" d="M 657.770121 384.48 
L 657.770121 51.84 
L 662.026955 51.84 
L 662.026955 384.48 
z
" style="fill:#008000;opacity:0.04;"/>
   </g>
   <g id="patch_80">
    <path clip-path="url(#p8ee5c02855)" d="M 666.283789 384.48 
L 666.283789 51.84 
L 670.540623 51.84 
L 670.540623 384.48 
z
" style="fill:#008000;opacity:0.04;"/>
   </g>
   <g id="patch_81">
    <path clip-path="url(#p8ee5c02855)" d="M 674.797457 384.48 
L 674.797457 51.84 
L 679.054291 51.84 
L 679.054291 384.48 
z
" style="fill:#008000;opacity:0.04;"/>
   </g>
   <g id="patch_82">
    <path clip-path="url(#p8ee5c02855)" d="M 683.311125 384.48 
L 683.311125 51.84 
L 687.567959 51.84 
L 687.567959 384.48 
z
" style="fill:#008000;opacity:0.04;"/>
   </g>
   <g id="patch_83">
    <path clip-path="url(#p8ee5c02855)" d="M 691.824793 384.48 
L 691.824793 51.84 
L 696.081627 51.84 
L 696.081627 384.48 
z
" style="fill:#008000;opacity:0.04;"/>
   </g>
   <g id="patch_84">
    <path clip-path="url(#p8ee5c02855)" d="M 700.338462 384.48 
L 700.338462 51.84 
L 704.595296 51.84 
L 704.595296 384.48 
z
" style="fill:#008000;opacity:0.04;"/>
   </g>
   <g id="patch_85">
    <path clip-path="url(#p8ee5c02855)" d="M 708.85213 384.48 
L 708.85213 51.84 
L 713.108964 51.84 
L 713.108964 384.48 
z
" style="fill:#008000;opacity:0.04;"/>
   </g>
   <g id="patch_86">
    <path clip-path="url(#p8ee5c02855)" d="M 717.365798 384.48 
L 717.365798 51.84 
L 721.622632 51.84 
L 721.622632 384.48 
z
" style="fill:#008000;opacity:0.04;"/>
   </g>
   <g id="patch_87">
    <path clip-path="url(#p8ee5c02855)" d="M 725.879466 384.48 
L 725.879466 51.84 
L 730.1363 51.84 
L 730.1363 384.48 
z
" style="fill:#008000;opacity:0.04;"/>
   </g>
   <g id="patch_88">
    <path clip-path="url(#p8ee5c02855)" d="M 734.393134 384.48 
L 734.393134 51.84 
L 738.649968 51.84 
L 738.649968 384.48 
z
" style="fill:#008000;opacity:0.04;"/>
   </g>
   <g id="patch_89">
    <path clip-path="url(#p8ee5c02855)" d="M 742.906802 384.48 
L 742.906802 51.84 
L 747.163636 51.84 
L 747.163636 384.48 
z
" style="fill:#008000;opacity:0.04;"/>
   </g>
   <g id="matplotlib.axis_1">
    <g id="xtick_1">
     <g id="line2d_1">
      <defs>
       <path d="M 0 0 
L 0 3.5 
" id="m86f2263b8b" style="stroke:#000000;stroke-width:0.8;"/>
      </defs>
      <g>
       <use style="stroke:#000000;stroke-width:0.8;" x="138.436364" xlink:href="#m86f2263b8b" y="384.48"/>
      </g>
     </g>
     <g id="text_1">
      <!-- 0 -->
      <defs>
       <path d="M 31.78125 66.40625 
Q 24.171875 66.40625 20.328125 58.90625 
Q 16.5 51.421875 16.5 36.375 
Q 16.5 21.390625 20.328125 13.890625 
Q 24.171875 6.390625 31.78125 6.390625 
Q 39.453125 6.390625 43.28125 13.890625 
Q 47.125 21.390625 47.125 36.375 
Q 47.125 51.421875 43.28125 58.90625 
Q 39.453125 66.40625 31.78125 66.40625 
z
M 31.78125 74.21875 
Q 44.046875 74.21875 50.515625 64.515625 
Q 56.984375 54.828125 56.984375 36.375 
Q 56.984375 17.96875 50.515625 8.265625 
Q 44.046875 -1.421875 31.78125 -1.421875 
Q 19.53125 -1.421875 13.0625 8.265625 
Q 6.59375 17.96875 6.59375 36.375 
Q 6.59375 54.828125 13.0625 64.515625 
Q 19.53125 74.21875 31.78125 74.21875 
z
" id="DejaVuSans-48"/>
      </defs>
      <g transform="translate(135.255114 399.078438)scale(0.1 -0.1)">
       <use xlink:href="#DejaVuSans-48"/>
      </g>
     </g>
    </g>
    <g id="xtick_2">
     <g id="line2d_2">
      <g>
       <use style="stroke:#000000;stroke-width:0.8;" x="223.573045" xlink:href="#m86f2263b8b" y="384.48"/>
      </g>
     </g>
     <g id="text_2">
      <!-- 200 -->
      <defs>
       <path d="M 19.1875 8.296875 
L 53.609375 8.296875 
L 53.609375 0 
L 7.328125 0 
L 7.328125 8.296875 
Q 12.9375 14.109375 22.625 23.890625 
Q 32.328125 33.6875 34.8125 36.53125 
Q 39.546875 41.84375 41.421875 45.53125 
Q 43.3125 49.21875 43.3125 52.78125 
Q 43.3125 58.59375 39.234375 62.25 
Q 35.15625 65.921875 28.609375 65.921875 
Q 23.96875 65.921875 18.8125 64.3125 
Q 13.671875 62.703125 7.8125 59.421875 
L 7.8125 69.390625 
Q 13.765625 71.78125 18.9375 73 
Q 24.125 74.21875 28.421875 74.21875 
Q 39.75 74.21875 46.484375 68.546875 
Q 53.21875 62.890625 53.21875 53.421875 
Q 53.21875 48.921875 51.53125 44.890625 
Q 49.859375 40.875 45.40625 35.40625 
Q 44.1875 33.984375 37.640625 27.21875 
Q 31.109375 20.453125 19.1875 8.296875 
z
" id="DejaVuSans-50"/>
      </defs>
      <g transform="translate(214.029295 399.078438)scale(0.1 -0.1)">
       <use xlink:href="#DejaVuSans-50"/>
       <use x="63.623047" xlink:href="#DejaVuSans-48"/>
       <use x="127.246094" xlink:href="#DejaVuSans-48"/>
      </g>
     </g>
    </g>
    <g id="xtick_3">
     <g id="line2d_3">
      <g>
       <use style="stroke:#000000;stroke-width:0.8;" x="308.709727" xlink:href="#m86f2263b8b" y="384.48"/>
      </g>
     </g>
     <g id="text_3">
      <!-- 400 -->
      <defs>
       <path d="M 37.796875 64.3125 
L 12.890625 25.390625 
L 37.796875 25.390625 
z
M 35.203125 72.90625 
L 47.609375 72.90625 
L 47.609375 25.390625 
L 58.015625 25.390625 
L 58.015625 17.1875 
L 47.609375 17.1875 
L 47.609375 0 
L 37.796875 0 
L 37.796875 17.1875 
L 4.890625 17.1875 
L 4.890625 26.703125 
z
" id="DejaVuSans-52"/>
      </defs>
      <g transform="translate(299.165977 399.078438)scale(0.1 -0.1)">
       <use xlink:href="#DejaVuSans-52"/>
       <use x="63.623047" xlink:href="#DejaVuSans-48"/>
       <use x="127.246094" xlink:href="#DejaVuSans-48"/>
      </g>
     </g>
    </g>
    <g id="xtick_4">
     <g id="line2d_4">
      <g>
       <use style="stroke:#000000;stroke-width:0.8;" x="393.846408" xlink:href="#m86f2263b8b" y="384.48"/>
      </g>
     </g>
     <g id="text_4">
      <!-- 600 -->
      <defs>
       <path d="M 33.015625 40.375 
Q 26.375 40.375 22.484375 35.828125 
Q 18.609375 31.296875 18.609375 23.390625 
Q 18.609375 15.53125 22.484375 10.953125 
Q 26.375 6.390625 33.015625 6.390625 
Q 39.65625 6.390625 43.53125 10.953125 
Q 47.40625 15.53125 47.40625 23.390625 
Q 47.40625 31.296875 43.53125 35.828125 
Q 39.65625 40.375 33.015625 40.375 
z
M 52.59375 71.296875 
L 52.59375 62.3125 
Q 48.875 64.0625 45.09375 64.984375 
Q 41.3125 65.921875 37.59375 65.921875 
Q 27.828125 65.921875 22.671875 59.328125 
Q 17.53125 52.734375 16.796875 39.40625 
Q 19.671875 43.65625 24.015625 45.921875 
Q 28.375 48.1875 33.59375 48.1875 
Q 44.578125 48.1875 50.953125 41.515625 
Q 57.328125 34.859375 57.328125 23.390625 
Q 57.328125 12.15625 50.6875 5.359375 
Q 44.046875 -1.421875 33.015625 -1.421875 
Q 20.359375 -1.421875 13.671875 8.265625 
Q 6.984375 17.96875 6.984375 36.375 
Q 6.984375 53.65625 15.1875 63.9375 
Q 23.390625 74.21875 37.203125 74.21875 
Q 40.921875 74.21875 44.703125 73.484375 
Q 48.484375 72.75 52.59375 71.296875 
z
" id="DejaVuSans-54"/>
      </defs>
      <g transform="translate(384.302658 399.078438)scale(0.1 -0.1)">
       <use xlink:href="#DejaVuSans-54"/>
       <use x="63.623047" xlink:href="#DejaVuSans-48"/>
       <use x="127.246094" xlink:href="#DejaVuSans-48"/>
      </g>
     </g>
    </g>
    <g id="xtick_5">
     <g id="line2d_5">
      <g>
       <use style="stroke:#000000;stroke-width:0.8;" x="478.98309" xlink:href="#m86f2263b8b" y="384.48"/>
      </g>
     </g>
     <g id="text_5">
      <!-- 800 -->
      <defs>
       <path d="M 31.78125 34.625 
Q 24.75 34.625 20.71875 30.859375 
Q 16.703125 27.09375 16.703125 20.515625 
Q 16.703125 13.921875 20.71875 10.15625 
Q 24.75 6.390625 31.78125 6.390625 
Q 38.8125 6.390625 42.859375 10.171875 
Q 46.921875 13.96875 46.921875 20.515625 
Q 46.921875 27.09375 42.890625 30.859375 
Q 38.875 34.625 31.78125 34.625 
z
M 21.921875 38.8125 
Q 15.578125 40.375 12.03125 44.71875 
Q 8.5 49.078125 8.5 55.328125 
Q 8.5 64.0625 14.71875 69.140625 
Q 20.953125 74.21875 31.78125 74.21875 
Q 42.671875 74.21875 48.875 69.140625 
Q 55.078125 64.0625 55.078125 55.328125 
Q 55.078125 49.078125 51.53125 44.71875 
Q 48 40.375 41.703125 38.8125 
Q 48.828125 37.15625 52.796875 32.3125 
Q 56.78125 27.484375 56.78125 20.515625 
Q 56.78125 9.90625 50.3125 4.234375 
Q 43.84375 -1.421875 31.78125 -1.421875 
Q 19.734375 -1.421875 13.25 4.234375 
Q 6.78125 9.90625 6.78125 20.515625 
Q 6.78125 27.484375 10.78125 32.3125 
Q 14.796875 37.15625 21.921875 38.8125 
z
M 18.3125 54.390625 
Q 18.3125 48.734375 21.84375 45.5625 
Q 25.390625 42.390625 31.78125 42.390625 
Q 38.140625 42.390625 41.71875 45.5625 
Q 45.3125 48.734375 45.3125 54.390625 
Q 45.3125 60.0625 41.71875 63.234375 
Q 38.140625 66.40625 31.78125 66.40625 
Q 25.390625 66.40625 21.84375 63.234375 
Q 18.3125 60.0625 18.3125 54.390625 
z
" id="DejaVuSans-56"/>
      </defs>
      <g transform="translate(469.43934 399.078438)scale(0.1 -0.1)">
       <use xlink:href="#DejaVuSans-56"/>
       <use x="63.623047" xlink:href="#DejaVuSans-48"/>
       <use x="127.246094" xlink:href="#DejaVuSans-48"/>
      </g>
     </g>
    </g>
    <g id="xtick_6">
     <g id="line2d_6">
      <g>
       <use style="stroke:#000000;stroke-width:0.8;" x="564.119771" xlink:href="#m86f2263b8b" y="384.48"/>
      </g>
     </g>
     <g id="text_6">
      <!-- 1000 -->
      <defs>
       <path d="M 12.40625 8.296875 
L 28.515625 8.296875 
L 28.515625 63.921875 
L 10.984375 60.40625 
L 10.984375 69.390625 
L 28.421875 72.90625 
L 38.28125 72.90625 
L 38.28125 8.296875 
L 54.390625 8.296875 
L 54.390625 0 
L 12.40625 0 
z
" id="DejaVuSans-49"/>
      </defs>
      <g transform="translate(551.394771 399.078438)scale(0.1 -0.1)">
       <use xlink:href="#DejaVuSans-49"/>
       <use x="63.623047" xlink:href="#DejaVuSans-48"/>
       <use x="127.246094" xlink:href="#DejaVuSans-48"/>
       <use x="190.869141" xlink:href="#DejaVuSans-48"/>
      </g>
     </g>
    </g>
    <g id="xtick_7">
     <g id="line2d_7">
      <g>
       <use style="stroke:#000000;stroke-width:0.8;" x="649.256453" xlink:href="#m86f2263b8b" y="384.48"/>
      </g>
     </g>
     <g id="text_7">
      <!-- 1200 -->
      <g transform="translate(636.531453 399.078438)scale(0.1 -0.1)">
       <use xlink:href="#DejaVuSans-49"/>
       <use x="63.623047" xlink:href="#DejaVuSans-50"/>
       <use x="127.246094" xlink:href="#DejaVuSans-48"/>
       <use x="190.869141" xlink:href="#DejaVuSans-48"/>
      </g>
     </g>
    </g>
    <g id="xtick_8">
     <g id="line2d_8">
      <g>
       <use style="stroke:#000000;stroke-width:0.8;" x="734.393134" xlink:href="#m86f2263b8b" y="384.48"/>
      </g>
     </g>
     <g id="text_8">
      <!-- 1400 -->
      <g transform="translate(721.668134 399.078438)scale(0.1 -0.1)">
       <use xlink:href="#DejaVuSans-49"/>
       <use x="63.623047" xlink:href="#DejaVuSans-52"/>
       <use x="127.246094" xlink:href="#DejaVuSans-48"/>
       <use x="190.869141" xlink:href="#DejaVuSans-48"/>
      </g>
     </g>
    </g>
    <g id="text_9">
     <!-- Timestamp -->
     <defs>
      <path d="M -0.296875 72.90625 
L 61.375 72.90625 
L 61.375 64.59375 
L 35.5 64.59375 
L 35.5 0 
L 25.59375 0 
L 25.59375 64.59375 
L -0.296875 64.59375 
z
" id="DejaVuSans-84"/>
      <path d="M 9.421875 54.6875 
L 18.40625 54.6875 
L 18.40625 0 
L 9.421875 0 
z
M 9.421875 75.984375 
L 18.40625 75.984375 
L 18.40625 64.59375 
L 9.421875 64.59375 
z
" id="DejaVuSans-105"/>
      <path d="M 52 44.1875 
Q 55.375 50.25 60.0625 53.125 
Q 64.75 56 71.09375 56 
Q 79.640625 56 84.28125 50.015625 
Q 88.921875 44.046875 88.921875 33.015625 
L 88.921875 0 
L 79.890625 0 
L 79.890625 32.71875 
Q 79.890625 40.578125 77.09375 44.375 
Q 74.3125 48.1875 68.609375 48.1875 
Q 61.625 48.1875 57.5625 43.546875 
Q 53.515625 38.921875 53.515625 30.90625 
L 53.515625 0 
L 44.484375 0 
L 44.484375 32.71875 
Q 44.484375 40.625 41.703125 44.40625 
Q 38.921875 48.1875 33.109375 48.1875 
Q 26.21875 48.1875 22.15625 43.53125 
Q 18.109375 38.875 18.109375 30.90625 
L 18.109375 0 
L 9.078125 0 
L 9.078125 54.6875 
L 18.109375 54.6875 
L 18.109375 46.1875 
Q 21.1875 51.21875 25.484375 53.609375 
Q 29.78125 56 35.6875 56 
Q 41.65625 56 45.828125 52.96875 
Q 50 49.953125 52 44.1875 
z
" id="DejaVuSans-109"/>
      <path d="M 56.203125 29.59375 
L 56.203125 25.203125 
L 14.890625 25.203125 
Q 15.484375 15.921875 20.484375 11.0625 
Q 25.484375 6.203125 34.421875 6.203125 
Q 39.59375 6.203125 44.453125 7.46875 
Q 49.3125 8.734375 54.109375 11.28125 
L 54.109375 2.78125 
Q 49.265625 0.734375 44.1875 -0.34375 
Q 39.109375 -1.421875 33.890625 -1.421875 
Q 20.796875 -1.421875 13.15625 6.1875 
Q 5.515625 13.8125 5.515625 26.8125 
Q 5.515625 40.234375 12.765625 48.109375 
Q 20.015625 56 32.328125 56 
Q 43.359375 56 49.78125 48.890625 
Q 56.203125 41.796875 56.203125 29.59375 
z
M 47.21875 32.234375 
Q 47.125 39.59375 43.09375 43.984375 
Q 39.0625 48.390625 32.421875 48.390625 
Q 24.90625 48.390625 20.390625 44.140625 
Q 15.875 39.890625 15.1875 32.171875 
z
" id="DejaVuSans-101"/>
      <path d="M 44.28125 53.078125 
L 44.28125 44.578125 
Q 40.484375 46.53125 36.375 47.5 
Q 32.28125 48.484375 27.875 48.484375 
Q 21.1875 48.484375 17.84375 46.4375 
Q 14.5 44.390625 14.5 40.28125 
Q 14.5 37.15625 16.890625 35.375 
Q 19.28125 33.59375 26.515625 31.984375 
L 29.59375 31.296875 
Q 39.15625 29.25 43.1875 25.515625 
Q 47.21875 21.78125 47.21875 15.09375 
Q 47.21875 7.46875 41.1875 3.015625 
Q 35.15625 -1.421875 24.609375 -1.421875 
Q 20.21875 -1.421875 15.453125 -0.5625 
Q 10.6875 0.296875 5.421875 2 
L 5.421875 11.28125 
Q 10.40625 8.6875 15.234375 7.390625 
Q 20.0625 6.109375 24.8125 6.109375 
Q 31.15625 6.109375 34.5625 8.28125 
Q 37.984375 10.453125 37.984375 14.40625 
Q 37.984375 18.0625 35.515625 20.015625 
Q 33.0625 21.96875 24.703125 23.78125 
L 21.578125 24.515625 
Q 13.234375 26.265625 9.515625 29.90625 
Q 5.8125 33.546875 5.8125 39.890625 
Q 5.8125 47.609375 11.28125 51.796875 
Q 16.75 56 26.8125 56 
Q 31.78125 56 36.171875 55.265625 
Q 40.578125 54.546875 44.28125 53.078125 
z
" id="DejaVuSans-115"/>
      <path d="M 18.3125 70.21875 
L 18.3125 54.6875 
L 36.8125 54.6875 
L 36.8125 47.703125 
L 18.3125 47.703125 
L 18.3125 18.015625 
Q 18.3125 11.328125 20.140625 9.421875 
Q 21.96875 7.515625 27.59375 7.515625 
L 36.8125 7.515625 
L 36.8125 0 
L 27.59375 0 
Q 17.1875 0 13.234375 3.875 
Q 9.28125 7.765625 9.28125 18.015625 
L 9.28125 47.703125 
L 2.6875 47.703125 
L 2.6875 54.6875 
L 9.28125 54.6875 
L 9.28125 70.21875 
z
" id="DejaVuSans-116"/>
      <path d="M 34.28125 27.484375 
Q 23.390625 27.484375 19.1875 25 
Q 14.984375 22.515625 14.984375 16.5 
Q 14.984375 11.71875 18.140625 8.90625 
Q 21.296875 6.109375 26.703125 6.109375 
Q 34.1875 6.109375 38.703125 11.40625 
Q 43.21875 16.703125 43.21875 25.484375 
L 43.21875 27.484375 
z
M 52.203125 31.203125 
L 52.203125 0 
L 43.21875 0 
L 43.21875 8.296875 
Q 40.140625 3.328125 35.546875 0.953125 
Q 30.953125 -1.421875 24.3125 -1.421875 
Q 15.921875 -1.421875 10.953125 3.296875 
Q 6 8.015625 6 15.921875 
Q 6 25.140625 12.171875 29.828125 
Q 18.359375 34.515625 30.609375 34.515625 
L 43.21875 34.515625 
L 43.21875 35.40625 
Q 43.21875 41.609375 39.140625 45 
Q 35.0625 48.390625 27.6875 48.390625 
Q 23 48.390625 18.546875 47.265625 
Q 14.109375 46.140625 10.015625 43.890625 
L 10.015625 52.203125 
Q 14.9375 54.109375 19.578125 55.046875 
Q 24.21875 56 28.609375 56 
Q 40.484375 56 46.34375 49.84375 
Q 52.203125 43.703125 52.203125 31.203125 
z
" id="DejaVuSans-97"/>
      <path d="M 18.109375 8.203125 
L 18.109375 -20.796875 
L 9.078125 -20.796875 
L 9.078125 54.6875 
L 18.109375 54.6875 
L 18.109375 46.390625 
Q 20.953125 51.265625 25.265625 53.625 
Q 29.59375 56 35.59375 56 
Q 45.5625 56 51.78125 48.09375 
Q 58.015625 40.1875 58.015625 27.296875 
Q 58.015625 14.40625 51.78125 6.484375 
Q 45.5625 -1.421875 35.59375 -1.421875 
Q 29.59375 -1.421875 25.265625 0.953125 
Q 20.953125 3.328125 18.109375 8.203125 
z
M 48.6875 27.296875 
Q 48.6875 37.203125 44.609375 42.84375 
Q 40.53125 48.484375 33.40625 48.484375 
Q 26.265625 48.484375 22.1875 42.84375 
Q 18.109375 37.203125 18.109375 27.296875 
Q 18.109375 17.390625 22.1875 11.75 
Q 26.265625 6.109375 33.40625 6.109375 
Q 40.53125 6.109375 44.609375 11.75 
Q 48.6875 17.390625 48.6875 27.296875 
z
" id="DejaVuSans-112"/>
     </defs>
     <g transform="translate(414.739062 412.756563)scale(0.1 -0.1)">
      <use xlink:href="#DejaVuSans-84"/>
      <use x="61.037109" xlink:href="#DejaVuSans-105"/>
      <use x="88.820312" xlink:href="#DejaVuSans-109"/>
      <use x="186.232422" xlink:href="#DejaVuSans-101"/>
      <use x="247.755859" xlink:href="#DejaVuSans-115"/>
      <use x="299.855469" xlink:href="#DejaVuSans-116"/>
      <use x="339.064453" xlink:href="#DejaVuSans-97"/>
      <use x="400.34375" xlink:href="#DejaVuSans-109"/>
      <use x="497.755859" xlink:href="#DejaVuSans-112"/>
     </g>
    </g>
   </g>
   <g id="matplotlib.axis_2">
    <g id="ytick_1">
     <g id="line2d_9">
      <defs>
       <path d="M 0 0 
L -3.5 0 
" id="m1684db634b" style="stroke:#000000;stroke-width:0.8;"/>
      </defs>
      <g>
       <use style="stroke:#000000;stroke-width:0.8;" x="108" xlink:href="#m1684db634b" y="339.813963"/>
      </g>
     </g>
     <g id="text_10">
      <!-- 0 -->
      <g transform="translate(94.6375 343.613182)scale(0.1 -0.1)">
       <use xlink:href="#DejaVuSans-48"/>
      </g>
     </g>
    </g>
    <g id="ytick_2">
     <g id="line2d_10">
      <g>
       <use style="stroke:#000000;stroke-width:0.8;" x="108" xlink:href="#m1684db634b" y="294.719297"/>
      </g>
     </g>
     <g id="text_11">
      <!-- 2500 -->
      <defs>
       <path d="M 10.796875 72.90625 
L 49.515625 72.90625 
L 49.515625 64.59375 
L 19.828125 64.59375 
L 19.828125 46.734375 
Q 21.96875 47.46875 24.109375 47.828125 
Q 26.265625 48.1875 28.421875 48.1875 
Q 40.625 48.1875 47.75 41.5 
Q 54.890625 34.8125 54.890625 23.390625 
Q 54.890625 11.625 47.5625 5.09375 
Q 40.234375 -1.421875 26.90625 -1.421875 
Q 22.3125 -1.421875 17.546875 -0.640625 
Q 12.796875 0.140625 7.71875 1.703125 
L 7.71875 11.625 
Q 12.109375 9.234375 16.796875 8.0625 
Q 21.484375 6.890625 26.703125 6.890625 
Q 35.15625 6.890625 40.078125 11.328125 
Q 45.015625 15.765625 45.015625 23.390625 
Q 45.015625 31 40.078125 35.4375 
Q 35.15625 39.890625 26.703125 39.890625 
Q 22.75 39.890625 18.8125 39.015625 
Q 14.890625 38.140625 10.796875 36.28125 
z
" id="DejaVuSans-53"/>
      </defs>
      <g transform="translate(75.55 298.518516)scale(0.1 -0.1)">
       <use xlink:href="#DejaVuSans-50"/>
       <use x="63.623047" xlink:href="#DejaVuSans-53"/>
       <use x="127.246094" xlink:href="#DejaVuSans-48"/>
       <use x="190.869141" xlink:href="#DejaVuSans-48"/>
      </g>
     </g>
    </g>
    <g id="ytick_3">
     <g id="line2d_11">
      <g>
       <use style="stroke:#000000;stroke-width:0.8;" x="108" xlink:href="#m1684db634b" y="249.624631"/>
      </g>
     </g>
     <g id="text_12">
      <!-- 5000 -->
      <g transform="translate(75.55 253.42385)scale(0.1 -0.1)">
       <use xlink:href="#DejaVuSans-53"/>
       <use x="63.623047" xlink:href="#DejaVuSans-48"/>
       <use x="127.246094" xlink:href="#DejaVuSans-48"/>
       <use x="190.869141" xlink:href="#DejaVuSans-48"/>
      </g>
     </g>
    </g>
    <g id="ytick_4">
     <g id="line2d_12">
      <g>
       <use style="stroke:#000000;stroke-width:0.8;" x="108" xlink:href="#m1684db634b" y="204.529966"/>
      </g>
     </g>
     <g id="text_13">
      <!-- 7500 -->
      <defs>
       <path d="M 8.203125 72.90625 
L 55.078125 72.90625 
L 55.078125 68.703125 
L 28.609375 0 
L 18.3125 0 
L 43.21875 64.59375 
L 8.203125 64.59375 
z
" id="DejaVuSans-55"/>
      </defs>
      <g transform="translate(75.55 208.329184)scale(0.1 -0.1)">
       <use xlink:href="#DejaVuSans-55"/>
       <use x="63.623047" xlink:href="#DejaVuSans-53"/>
       <use x="127.246094" xlink:href="#DejaVuSans-48"/>
       <use x="190.869141" xlink:href="#DejaVuSans-48"/>
      </g>
     </g>
    </g>
    <g id="ytick_5">
     <g id="line2d_13">
      <g>
       <use style="stroke:#000000;stroke-width:0.8;" x="108" xlink:href="#m1684db634b" y="159.4353"/>
      </g>
     </g>
     <g id="text_14">
      <!-- 10000 -->
      <g transform="translate(69.1875 163.234518)scale(0.1 -0.1)">
       <use xlink:href="#DejaVuSans-49"/>
       <use x="63.623047" xlink:href="#DejaVuSans-48"/>
       <use x="127.246094" xlink:href="#DejaVuSans-48"/>
       <use x="190.869141" xlink:href="#DejaVuSans-48"/>
       <use x="254.492188" xlink:href="#DejaVuSans-48"/>
      </g>
     </g>
    </g>
    <g id="ytick_6">
     <g id="line2d_14">
      <g>
       <use style="stroke:#000000;stroke-width:0.8;" x="108" xlink:href="#m1684db634b" y="114.340634"/>
      </g>
     </g>
     <g id="text_15">
      <!-- 12500 -->
      <g transform="translate(69.1875 118.139853)scale(0.1 -0.1)">
       <use xlink:href="#DejaVuSans-49"/>
       <use x="63.623047" xlink:href="#DejaVuSans-50"/>
       <use x="127.246094" xlink:href="#DejaVuSans-53"/>
       <use x="190.869141" xlink:href="#DejaVuSans-48"/>
       <use x="254.492188" xlink:href="#DejaVuSans-48"/>
      </g>
     </g>
    </g>
    <g id="ytick_7">
     <g id="line2d_15">
      <g>
       <use style="stroke:#000000;stroke-width:0.8;" x="108" xlink:href="#m1684db634b" y="69.245968"/>
      </g>
     </g>
     <g id="text_16">
      <!-- 15000 -->
      <g transform="translate(69.1875 73.045187)scale(0.1 -0.1)">
       <use xlink:href="#DejaVuSans-49"/>
       <use x="63.623047" xlink:href="#DejaVuSans-53"/>
       <use x="127.246094" xlink:href="#DejaVuSans-48"/>
       <use x="190.869141" xlink:href="#DejaVuSans-48"/>
       <use x="254.492188" xlink:href="#DejaVuSans-48"/>
      </g>
     </g>
    </g>
    <g id="text_17">
     <!-- Value -->
     <defs>
      <path d="M 28.609375 0 
L 0.78125 72.90625 
L 11.078125 72.90625 
L 34.1875 11.53125 
L 57.328125 72.90625 
L 67.578125 72.90625 
L 39.796875 0 
z
" id="DejaVuSans-86"/>
      <path d="M 9.421875 75.984375 
L 18.40625 75.984375 
L 18.40625 0 
L 9.421875 0 
z
" id="DejaVuSans-108"/>
      <path d="M 8.5 21.578125 
L 8.5 54.6875 
L 17.484375 54.6875 
L 17.484375 21.921875 
Q 17.484375 14.15625 20.5 10.265625 
Q 23.53125 6.390625 29.59375 6.390625 
Q 36.859375 6.390625 41.078125 11.03125 
Q 45.3125 15.671875 45.3125 23.6875 
L 45.3125 54.6875 
L 54.296875 54.6875 
L 54.296875 0 
L 45.3125 0 
L 45.3125 8.40625 
Q 42.046875 3.421875 37.71875 1 
Q 33.40625 -1.421875 27.6875 -1.421875 
Q 18.265625 -1.421875 13.375 4.4375 
Q 8.5 10.296875 8.5 21.578125 
z
M 31.109375 56 
z
" id="DejaVuSans-117"/>
     </defs>
     <g transform="translate(63.107813 232.273281)rotate(-90)scale(0.1 -0.1)">
      <use xlink:href="#DejaVuSans-86"/>
      <use x="68.298828" xlink:href="#DejaVuSans-97"/>
      <use x="129.578125" xlink:href="#DejaVuSans-108"/>
      <use x="157.361328" xlink:href="#DejaVuSans-117"/>
      <use x="220.740234" xlink:href="#DejaVuSans-101"/>
     </g>
    </g>
   </g>
   <g id="line2d_16">
    <path clip-path="url(#p8ee5c02855)" d="M 138.436364 330.371421 
L 138.862047 340.565834 
L 139.28773 326.706979 
L 139.713414 325.561279 
L 140.139097 330.365584 
L 140.564781 343.322432 
L 141.416147 331.108176 
L 141.841831 327.527048 
L 142.267514 308.259715 
L 143.118881 329.35814 
L 143.544565 330.697152 
L 143.970248 323.148338 
L 144.395931 322.09725 
L 144.821615 321.873219 
L 145.247298 315.96638 
L 145.672982 323.535939 
L 146.098665 312.857577 
L 146.524348 324.505272 
L 146.950032 316.318147 
L 147.375715 311.266282 
L 147.801399 312.569847 
L 148.227082 307.177782 
L 148.652765 313.232744 
L 149.504132 304.367617 
L 149.929816 317.478268 
L 150.355499 321.9081 
L 150.781182 312.156652 
L 151.632549 317.030337 
L 152.058233 316.599736 
L 152.483916 318.668926 
L 152.909599 309.015835 
L 153.335283 306.494208 
L 153.760966 308.387044 
L 154.18665 319.710585 
L 154.612333 308.20228 
L 155.038017 320.37859 
L 155.4637 306.265791 
L 156.315067 324.816424 
L 157.166434 332.482582 
L 157.592117 332.989841 
L 158.0178 337.978565 
L 158.443484 319.141222 
L 158.869167 322.9063 
L 159.294851 332.143904 
L 159.720534 329.888601 
L 160.146217 336.07127 
L 160.571901 316.60484 
L 160.997584 342.029026 
L 161.423268 337.966053 
L 161.848951 337.123699 
L 162.274634 335.800764 
L 162.700318 343.051708 
L 163.126001 359.623339 
L 163.551685 353.839966 
L 163.977368 343.114746 
L 164.403051 347.119645 
L 164.828735 355.231512 
L 165.254418 350.288821 
L 165.680102 356.591694 
L 166.105785 349.816824 
L 166.531469 363.180087 
L 166.957152 350.839597 
L 168.234202 355.799887 
L 168.659886 354.679118 
L 169.085569 361.963134 
L 169.511252 358.517305 
L 169.936936 353.107846 
L 170.362619 350.180705 
L 170.788303 357.500639 
L 171.213986 359.574417 
L 171.639669 365.508557 
L 172.065353 369.36 
L 172.491036 364.477041 
L 172.91672 349.046064 
L 173.342403 352.305118 
L 173.768086 359.25446 
L 174.19377 360.286671 
L 174.619453 359.667779 
L 175.045137 348.510603 
L 175.47082 357.204435 
L 175.896503 345.026759 
L 176.322187 348.645502 
L 176.74787 342.834315 
L 177.173554 357.897061 
L 177.599237 350.249728 
L 178.024921 355.667056 
L 178.450604 343.481197 
L 178.876287 345.7232 
L 179.301971 347.360296 
L 179.727654 333.084985 
L 180.153338 340.74955 
L 180.579021 333.590328 
L 181.004704 333.680244 
L 181.430388 343.706169 
L 181.856071 340.96276 
L 182.281755 334.482312 
L 182.707438 341.627656 
L 183.133121 327.385389 
L 183.558805 339.568311 
L 183.984488 316.439885 
L 184.410172 330.62878 
L 184.835855 312.91634 
L 185.261538 326.878763 
L 185.687222 329.516201 
L 186.112905 320.638149 
L 186.538589 319.176537 
L 186.964272 330.430809 
L 187.389955 308.802332 
L 187.815639 323.60415 
L 188.241322 311.559593 
L 188.667006 309.181721 
L 189.092689 310.691082 
L 189.518373 311.526024 
L 189.944056 308.180327 
L 190.369739 316.642207 
L 190.795423 313.823587 
L 191.221106 315.354178 
L 191.64679 294.69263 
L 192.072473 294.695508 
L 192.92384 313.983222 
L 193.775207 293.03175 
L 194.20089 307.597321 
L 194.626573 298.077415 
L 195.052257 311.225804 
L 195.47794 298.996134 
L 195.903624 311.383946 
L 196.329307 313.70814 
L 196.75499 312.03663 
L 197.180674 311.841922 
L 197.606357 312.679539 
L 198.032041 301.048219 
L 198.457724 306.730038 
L 198.883408 310.408243 
L 199.309091 316.905976 
L 199.734774 317.295378 
L 200.160458 316.43444 
L 200.586141 320.084421 
L 201.011825 316.205076 
L 201.437508 310.538533 
L 201.863191 323.990369 
L 202.288875 305.586928 
L 202.714558 327.497477 
L 203.140242 319.81466 
L 203.565925 302.885365 
L 204.417292 325.102619 
L 204.842975 331.066199 
L 205.268659 321.753077 
L 205.694342 327.593496 
L 206.120025 331.706916 
L 206.545709 327.991968 
L 206.971392 335.38123 
L 207.397076 313.438882 
L 208.248442 330.080055 
L 208.674126 331.880627 
L 209.099809 342.464032 
L 209.525493 333.101145 
L 209.951176 343.433671 
L 210.37686 349.452392 
L 210.802543 329.091832 
L 211.228226 350.953641 
L 211.65391 347.197452 
L 212.505277 353.730738 
L 212.93096 343.005757 
L 213.356643 359.401308 
L 213.782327 350.214278 
L 214.20801 353.440891 
L 214.633694 359.902815 
L 215.059377 350.446216 
L 215.48506 353.358538 
L 215.910744 354.706133 
L 216.336427 343.104122 
L 216.762111 346.402799 
L 217.187794 350.902531 
L 217.613477 348.863913 
L 218.039161 355.192822 
L 218.464844 350.833313 
L 218.890528 340.695927 
L 219.316211 348.431263 
L 219.741894 346.463289 
L 220.167578 331.925161 
L 220.593261 351.345706 
L 221.018945 338.121318 
L 221.444628 331.011022 
L 221.870312 351.143268 
L 222.295995 342.024205 
L 222.721678 343.881972 
L 223.147362 343.405915 
L 223.573045 346.238738 
L 223.998729 343.79721 
L 224.424412 326.361427 
L 224.850095 329.945462 
L 225.275779 327.135165 
L 225.701462 319.843697 
L 226.127146 332.573867 
L 226.552829 322.263672 
L 226.978512 327.201098 
L 227.404196 328.890179 
L 227.829879 316.72199 
L 228.255563 321.725817 
L 228.681246 328.319629 
L 229.106929 320.607483 
L 229.532613 306.193215 
L 229.958296 307.046132 
L 230.38398 325.025258 
L 230.809663 312.025923 
L 231.235346 304.993335 
L 231.66103 321.906454 
L 232.086713 298.052631 
L 232.512397 311.191463 
L 232.93808 303.842606 
L 233.363764 306.137614 
L 233.789447 291.867412 
L 234.21513 313.409703 
L 234.640814 302.530055 
L 235.066497 308.487409 
L 235.917864 282.339728 
L 236.343547 309.388636 
L 236.769231 297.995634 
L 237.194914 298.092278 
L 237.620598 285.120697 
L 238.046281 303.465292 
L 238.897648 283.147025 
L 239.323331 297.565874 
L 239.749015 300.861832 
L 240.600381 292.171599 
L 241.026065 303.664922 
L 241.451748 284.529797 
L 241.877432 296.894468 
L 242.303115 318.99109 
L 242.728798 306.264191 
L 243.154482 287.263037 
L 243.580165 306.734123 
L 244.005849 301.074597 
L 244.431532 300.905886 
L 244.857216 314.026147 
L 245.282899 299.57865 
L 245.708582 301.181606 
L 246.134266 291.55847 
L 246.985633 307.278402 
L 247.411316 309.777999 
L 247.836999 305.990733 
L 248.262683 318.411947 
L 248.688366 312.426874 
L 249.11405 311.988912 
L 249.539733 311.937001 
L 249.965416 325.849757 
L 250.3911 308.027212 
L 250.816783 315.091186 
L 251.242467 303.132095 
L 251.66815 337.141971 
L 252.093833 328.897912 
L 252.519517 338.609517 
L 252.9452 330.366992 
L 253.370884 326.261811 
L 253.796567 317.217354 
L 254.22225 334.363331 
L 254.647934 341.152645 
L 255.499301 329.886704 
L 255.924984 334.167542 
L 256.350668 326.703922 
L 257.202034 350.416495 
L 257.627718 331.894049 
L 258.053401 347.874344 
L 258.479085 335.642972 
L 259.330451 338.420047 
L 259.756135 328.722338 
L 260.181818 343.287101 
L 260.607502 351.669624 
L 261.033185 341.534844 
L 261.458868 343.714024 
L 262.310235 329.583234 
L 262.735919 354.827095 
L 263.161602 342.636898 
L 263.587285 340.072031 
L 264.012969 335.974363 
L 264.438652 344.586726 
L 264.864336 335.813542 
L 265.290019 335.089037 
L 265.715702 337.137926 
L 266.141386 337.022995 
L 266.567069 324.208806 
L 266.992753 328.999697 
L 267.418436 318.339899 
L 267.84412 333.625202 
L 268.269803 339.586521 
L 268.695486 331.969729 
L 269.12117 326.941634 
L 269.546853 328.014457 
L 269.972537 327.844453 
L 270.39822 334.993946 
L 270.823903 327.692249 
L 271.249587 328.364852 
L 271.67527 316.389416 
L 272.100954 314.542475 
L 272.526637 304.099552 
L 272.95232 316.36891 
L 273.378004 305.309688 
L 273.803687 314.315983 
L 274.229371 320.429167 
L 274.655054 304.430864 
L 275.080737 309.981452 
L 275.506421 310.823179 
L 275.932104 308.785693 
L 276.357788 293.678002 
L 276.783471 288.720178 
L 277.209154 291.579919 
L 278.060521 306.260758 
L 278.486205 293.742357 
L 278.911888 286.043786 
L 279.337572 287.064521 
L 279.763255 289.98702 
L 280.188938 289.792322 
L 280.614622 296.892765 
L 281.040305 286.627563 
L 281.465989 288.8659 
L 281.891672 288.222085 
L 282.317355 289.756031 
L 282.743039 296.464273 
L 283.168722 291.982849 
L 283.594406 281.708023 
L 284.020089 286.987452 
L 284.445772 287.146293 
L 284.871456 288.704849 
L 285.297139 277.098248 
L 285.722823 287.591105 
L 286.148506 286.214581 
L 286.574189 287.375473 
L 286.999873 296.126512 
L 287.425556 290.064064 
L 287.85124 280.696036 
L 288.276923 287.582742 
L 288.702606 302.560185 
L 289.12829 292.109334 
L 289.553973 289.486518 
L 289.979657 295.211275 
L 290.40534 289.931173 
L 291.256707 305.846407 
L 291.68239 293.876627 
L 292.108074 298.611194 
L 292.533757 297.839362 
L 292.959441 295.495507 
L 293.385124 303.120186 
L 293.810807 318.058421 
L 294.236491 306.489971 
L 294.662174 320.947839 
L 295.087858 314.173201 
L 295.513541 304.594482 
L 295.939224 325.844586 
L 296.364908 313.714061 
L 296.790591 320.413248 
L 297.216275 319.511815 
L 297.641958 311.394016 
L 298.067641 316.571937 
L 298.493325 311.641992 
L 298.919008 330.884098 
L 299.344692 330.128253 
L 299.770375 330.42889 
L 300.196058 326.887957 
L 300.621742 334.390263 
L 301.047425 334.01538 
L 301.473109 336.069712 
L 301.898792 325.202452 
L 302.324476 326.378688 
L 302.750159 324.341627 
L 303.175842 312.013606 
L 303.601526 333.60996 
L 304.027209 327.640041 
L 304.452893 308.86214 
L 304.878576 329.194407 
L 305.304259 334.04648 
L 305.729943 340.839323 
L 306.155626 337.687704 
L 306.58131 346.070221 
L 307.006993 345.03329 
L 307.432676 336.114524 
L 307.85836 330.391762 
L 308.284043 332.017727 
L 308.709727 334.680663 
L 309.13541 344.662917 
L 309.561093 325.592554 
L 309.986777 326.29437 
L 310.41246 316.860644 
L 310.838144 341.674591 
L 311.263827 329.035233 
L 311.68951 312.858504 
L 312.115194 323.831456 
L 312.540877 313.229988 
L 312.966561 317.974831 
L 313.392244 319.905677 
L 313.817928 312.776162 
L 314.243611 331.495573 
L 314.669294 319.21585 
L 315.520661 303.754862 
L 316.372028 309.16192 
L 316.797711 300.568142 
L 317.649078 314.046751 
L 318.074762 304.452789 
L 318.500445 303.900165 
L 318.926128 298.375939 
L 319.351812 302.392732 
L 319.777495 293.2015 
L 320.203179 281.26089 
L 320.628862 308.395794 
L 321.054545 289.317486 
L 321.480229 297.619741 
L 321.905912 295.587226 
L 322.331596 303.100554 
L 322.757279 290.327495 
L 323.182962 284.753891 
L 323.608646 296.708693 
L 324.034329 270.717522 
L 324.460013 289.753062 
L 324.885696 300.123029 
L 325.737063 264.241865 
L 326.162746 269.189428 
L 326.58843 270.984068 
L 327.014113 274.122078 
L 327.439797 276.154207 
L 328.716847 295.402249 
L 329.14253 287.622614 
L 329.568214 292.153144 
L 329.993897 286.402089 
L 330.41958 273.907615 
L 330.845264 286.184772 
L 331.270947 291.435381 
L 331.696631 287.726085 
L 332.122314 293.826703 
L 332.547997 275.781339 
L 332.973681 293.601969 
L 333.399364 284.349965 
L 334.250731 276.180495 
L 334.676414 272.054264 
L 335.102098 300.211774 
L 335.527781 281.431803 
L 335.953465 293.587853 
L 336.379148 292.024229 
L 336.804832 281.221344 
L 337.230515 297.757828 
L 337.656198 289.558384 
L 338.081882 296.654751 
L 338.507565 300.983774 
L 338.933249 288.299627 
L 339.358932 301.842197 
L 339.784615 303.179487 
L 340.210299 297.870119 
L 340.635982 297.673042 
L 341.061666 312.719385 
L 341.487349 298.773273 
L 341.913032 313.371941 
L 342.338716 316.587057 
L 342.764399 328.639734 
L 343.190083 313.714076 
L 343.615766 311.538404 
L 344.041449 320.341296 
L 344.467133 307.046636 
L 345.3185 317.667822 
L 345.744183 305.9927 
L 346.169866 331.452708 
L 346.59555 319.047655 
L 347.021233 315.673962 
L 347.446917 330.02551 
L 347.8726 325.175115 
L 348.298284 324.228551 
L 348.723967 327.573973 
L 349.14965 324.133613 
L 349.575334 326.085715 
L 350.001017 331.302444 
L 350.426701 319.605863 
L 350.852384 329.547737 
L 351.278067 329.849515 
L 352.129434 312.232253 
L 352.555118 337.520324 
L 352.980801 322.570227 
L 353.406484 320.580255 
L 353.832168 322.711695 
L 354.257851 303.266308 
L 354.683535 312.164464 
L 355.109218 324.605239 
L 355.534901 324.359389 
L 355.960585 311.957824 
L 356.386268 310.204145 
L 356.811952 311.210363 
L 357.237635 319.834897 
L 357.663318 310.105584 
L 358.089002 313.366852 
L 358.514685 297.727793 
L 358.940369 316.37944 
L 359.366052 308.357737 
L 359.791736 314.720992 
L 360.217419 312.894341 
L 360.643102 304.046568 
L 361.068786 304.251175 
L 361.494469 304.647193 
L 361.920153 287.877424 
L 362.345836 297.13034 
L 362.771519 286.415814 
L 363.197203 301.885315 
L 363.622886 294.861878 
L 364.04857 301.895532 
L 364.474253 279.273374 
L 364.899936 295.725935 
L 365.32562 276.048159 
L 365.751303 292.889819 
L 366.176987 284.847808 
L 366.60267 304.114491 
L 367.028353 283.332801 
L 367.454037 280.151868 
L 367.87972 293.306471 
L 368.305404 280.094349 
L 368.731087 279.478994 
L 369.156771 289.566221 
L 369.582454 268.359511 
L 370.008137 283.182531 
L 370.859504 268.587804 
L 371.285188 276.081271 
L 371.710871 266.168086 
L 372.136554 270.318191 
L 372.562238 259.917261 
L 372.987921 275.62907 
L 373.413605 279.176226 
L 373.839288 267.857316 
L 374.264971 271.997076 
L 374.690655 272.866694 
L 375.116338 267.209603 
L 375.542022 267.598221 
L 375.967705 271.442004 
L 376.393388 267.348203 
L 376.819072 267.016705 
L 377.244755 267.06617 
L 377.670439 266.800494 
L 378.096122 265.157305 
L 378.521805 276.623284 
L 378.947489 279.80403 
L 379.373172 286.634752 
L 379.798856 280.354489 
L 380.224539 286.577586 
L 380.650223 277.824127 
L 381.075906 283.562225 
L 381.927273 291.889195 
L 382.352956 285.526991 
L 383.204323 298.057443 
L 383.630006 300.581871 
L 384.05569 283.381561 
L 384.481373 297.992835 
L 384.907057 300.05118 
L 385.33274 297.989766 
L 385.758423 301.509214 
L 386.60979 302.353369 
L 387.035474 305.868937 
L 387.461157 310.841926 
L 387.88684 298.732888 
L 388.312524 306.098598 
L 388.738207 317.212391 
L 389.163891 301.700916 
L 389.589574 321.691209 
L 390.015257 312.826666 
L 390.440941 312.980972 
L 390.866624 318.73846 
L 391.292308 310.512873 
L 391.717991 324.597963 
L 392.143675 302.891199 
L 392.569358 312.069938 
L 392.995041 302.750417 
L 393.420725 311.052644 
L 393.846408 328.732341 
L 394.272092 311.723258 
L 394.697775 313.414607 
L 395.123458 309.261553 
L 395.549142 308.939476 
L 395.974825 313.459998 
L 396.400509 312.034132 
L 396.826192 320.788644 
L 397.251875 304.420376 
L 397.677559 328.833466 
L 398.103242 329.20193 
L 398.528926 324.254094 
L 398.954609 307.267985 
L 399.380292 321.47642 
L 399.805976 315.284324 
L 400.231659 310.918971 
L 400.657343 314.141441 
L 401.083026 324.960614 
L 401.508709 299.733126 
L 401.934393 307.778954 
L 402.360076 302.037753 
L 403.211443 307.26015 
L 403.637127 105.517095 
L 404.488493 105.517095 
L 404.914177 306.105268 
L 405.33986 286.346331 
L 405.765544 301.156667 
L 406.191227 292.757767 
L 406.61691 301.878931 
L 407.042594 284.605146 
L 407.468277 283.713017 
L 407.893961 288.539515 
L 408.319644 273.441802 
L 408.745327 287.19246 
L 409.171011 284.033367 
L 409.596694 272.193859 
L 410.022378 275.479804 
L 410.448061 271.121212 
L 410.873744 265.164754 
L 411.299428 272.869873 
L 411.725111 268.556658 
L 412.150795 276.872126 
L 412.576478 267.482552 
L 413.002161 272.087531 
L 413.427845 259.271247 
L 413.853528 268.089893 
L 414.279212 266.592812 
L 414.704895 265.997784 
L 415.130579 280.288905 
L 415.556262 271.881443 
L 415.981945 249.361124 
L 416.407629 258.167037 
L 416.833312 262.6824 
L 417.258996 263.811543 
L 417.684679 263.588236 
L 418.110362 258.970832 
L 418.536046 66.96 
L 419.387413 66.96 
L 419.813096 271.790938 
L 420.664463 259.363542 
L 421.090146 274.319317 
L 421.51583 256.574994 
L 421.941513 256.017467 
L 422.367196 265.53071 
L 422.79288 264.238838 
L 423.218563 257.129381 
L 423.644247 272.322823 
L 424.06993 275.926135 
L 424.495613 278.566592 
L 424.921297 278.357941 
L 425.34698 277.559572 
L 425.772664 270.734712 
L 426.198347 281.73791 
L 426.624031 278.06835 
L 427.049714 276.215468 
L 427.475397 288.270563 
L 427.901081 269.577847 
L 428.326764 271.803955 
L 428.752448 296.296573 
L 429.178131 287.928755 
L 429.603814 288.535494 
L 430.029498 285.942131 
L 430.455181 297.311675 
L 430.880865 292.812355 
L 431.306548 285.607717 
L 431.732231 285.432594 
L 432.157915 292.420085 
L 432.583598 292.928742 
L 433.009282 301.492382 
L 433.434965 301.205068 
L 433.860648 290.484358 
L 434.286332 299.740591 
L 434.712015 306.351865 
L 435.137699 290.185176 
L 435.563382 307.582152 
L 435.989065 295.746435 
L 436.414749 300.620144 
L 436.840432 302.848147 
L 437.266116 308.617528 
L 437.691799 300.316304 
L 438.117483 319.551141 
L 439.394533 307.183738 
L 439.820216 307.728958 
L 440.2459 310.672026 
L 440.671583 310.680045 
L 441.097266 304.901338 
L 441.52295 313.079465 
L 441.948633 324.101838 
L 442.374317 307.442205 
L 442.8 300.593189 
L 443.225683 299.157517 
L 443.651367 307.936623 
L 444.07705 305.493347 
L 444.502734 293.019815 
L 444.928417 308.109337 
L 445.779784 297.739973 
L 446.205467 305.016253 
L 446.631151 302.504497 
L 447.056834 293.630989 
L 447.482517 301.914485 
L 447.908201 291.834875 
L 448.333884 302.711225 
L 448.759568 307.36499 
L 449.185251 286.343513 
L 449.610935 290.424522 
L 450.036618 291.137861 
L 450.462301 290.232122 
L 450.887985 277.440861 
L 451.313668 291.264972 
L 451.739352 274.51625 
L 452.165035 287.747107 
L 452.590718 279.482332 
L 453.016402 278.477432 
L 453.442085 271.07211 
L 453.867769 286.954727 
L 454.293452 274.170166 
L 454.719135 271.811118 
L 455.570502 259.602774 
L 455.996186 273.839022 
L 456.421869 262.81807 
L 456.847552 260.659159 
L 457.273236 253.999052 
L 457.698919 262.289131 
L 458.124603 252.052098 
L 458.550286 258.904455 
L 458.975969 260.800334 
L 459.401653 253.956025 
L 459.827336 254.87329 
L 460.25302 253.423205 
L 460.678703 248.20844 
L 461.104387 257.246323 
L 461.955753 255.835046 
L 462.381437 246.106663 
L 462.80712 239.421077 
L 463.232804 246.64165 
L 463.658487 246.095575 
L 464.08417 240.772122 
L 464.509854 258.304819 
L 464.935537 265.236188 
L 465.361221 262.9242 
L 465.786904 253.248091 
L 466.212587 255.486321 
L 466.638271 276.40074 
L 467.063954 248.164465 
L 467.489638 259.342705 
L 467.915321 258.968764 
L 468.341004 256.439571 
L 468.766688 270.132702 
L 469.192371 266.698462 
L 469.618055 254.887472 
L 470.043738 249.074584 
L 470.469421 259.800411 
L 470.895105 260.667678 
L 471.320788 280.089215 
L 471.746472 260.941375 
L 472.172155 261.769064 
L 472.597839 274.102224 
L 473.023522 271.475816 
L 473.449205 267.436058 
L 473.874889 259.749038 
L 474.300572 285.363638 
L 474.726256 270.931888 
L 475.151939 269.776311 
L 476.428989 285.286846 
L 476.854673 284.284259 
L 477.280356 280.380051 
L 477.706039 296.086869 
L 478.131723 298.390157 
L 478.557406 295.789551 
L 478.98309 302.208088 
L 479.408773 305.106964 
L 479.834456 283.526722 
L 480.26014 301.526889 
L 480.685823 299.338685 
L 481.111507 304.830104 
L 481.53719 293.361387 
L 481.962873 293.916889 
L 482.388557 289.6108 
L 482.81424 302.35215 
L 483.239924 290.148935 
L 483.665607 298.670933 
L 484.091291 309.571543 
L 484.516974 291.561832 
L 484.942657 288.949856 
L 485.368341 294.205358 
L 485.794024 303.235958 
L 486.219708 309.815284 
L 486.645391 299.28124 
L 487.071074 309.159163 
L 487.496758 312.166802 
L 487.922441 292.948786 
L 488.348125 299.749898 
L 488.773808 299.772497 
L 489.199491 300.786317 
L 489.625175 285.387594 
L 490.050858 305.940008 
L 490.902225 287.877562 
L 491.327908 288.766037 
L 491.753592 294.26404 
L 492.179275 288.885591 
L 492.604959 288.526261 
L 493.030642 273.24427 
L 493.456325 283.542395 
L 493.882009 287.69896 
L 494.307692 272.554999 
L 494.733376 289.263022 
L 495.159059 274.295907 
L 495.584743 267.595949 
L 496.010426 283.785728 
L 496.436109 271.154928 
L 496.861793 264.921358 
L 497.287476 262.101497 
L 498.138843 253.025885 
L 498.564526 264.216873 
L 498.99021 270.461063 
L 499.415893 268.300071 
L 499.841577 256.078602 
L 500.26726 271.474659 
L 500.692943 254.731033 
L 501.118627 265.675928 
L 501.54431 262.700169 
L 501.969994 252.090872 
L 502.395677 257.842575 
L 502.82136 258.523829 
L 503.247044 256.282265 
L 503.672727 239.912345 
L 504.098411 259.707645 
L 504.524094 247.937567 
L 504.949777 251.490648 
L 505.375461 225.440779 
L 505.801144 248.020699 
L 506.226828 232.901438 
L 506.652511 239.613474 
L 507.078195 257.345676 
L 507.503878 241.716825 
L 507.929561 240.272147 
L 508.355245 245.230651 
L 508.780928 259.96412 
L 509.206612 229.01297 
L 509.632295 247.303926 
L 510.057978 256.640665 
L 510.483662 237.423627 
L 510.909345 249.020083 
L 511.335029 245.95965 
L 512.186395 262.476126 
L 512.612079 251.262986 
L 513.037762 245.345948 
L 513.463446 251.999057 
L 513.889129 252.691277 
L 514.314812 252.331206 
L 514.740496 252.16052 
L 515.166179 258.243283 
L 515.591863 259.787295 
L 516.017546 264.254999 
L 516.443229 270.374978 
L 516.868913 272.164415 
L 517.294596 268.678487 
L 517.72028 269.748024 
L 518.145963 268.553049 
L 518.571647 83.318788 
L 519.423013 83.318788 
L 519.848697 268.59914 
L 520.27438 270.832959 
L 520.700064 274.347871 
L 521.125747 282.345558 
L 521.55143 281.280353 
L 521.977114 280.961708 
L 522.402797 278.842227 
L 522.828481 280.993163 
L 523.254164 268.539919 
L 523.679847 285.599486 
L 524.105531 289.72044 
L 524.531214 297.351746 
L 524.956898 293.591372 
L 525.382581 267.827601 
L 525.808264 285.656162 
L 526.233948 281.925972 
L 526.659631 287.804867 
L 527.085315 288.629753 
L 527.510998 291.700583 
L 527.936682 286.780117 
L 528.362365 280.555656 
L 528.788048 284.847103 
L 529.213732 293.353231 
L 529.639415 291.008513 
L 530.065099 302.538489 
L 530.490782 283.262645 
L 530.916465 278.075219 
L 531.342149 302.453401 
L 531.767832 291.025434 
L 532.193516 296.96883 
L 532.619199 298.786567 
L 533.044882 281.366142 
L 533.470566 279.937127 
L 533.896249 272.754042 
L 534.321933 283.233293 
L 534.747616 299.516929 
L 535.173299 281.36741 
L 535.598983 289.058803 
L 536.45035 279.769298 
L 536.876033 279.776955 
L 537.301716 273.092951 
L 537.7274 282.471807 
L 538.153083 281.223679 
L 539.00445 266.755983 
L 539.430134 274.654218 
L 539.855817 275.164353 
L 540.2815 276.132849 
L 540.707184 272.635305 
L 541.132867 267.586971 
L 541.558551 272.539859 
L 541.984234 257.186731 
L 542.409917 275.978675 
L 542.835601 260.309133 
L 543.261284 268.329532 
L 543.686968 247.076329 
L 544.112651 258.384779 
L 544.538334 244.764798 
L 544.964018 254.816665 
L 545.389701 251.900107 
L 545.815385 256.554675 
L 546.241068 270.556373 
L 546.666751 234.274854 
L 547.092435 255.774854 
L 547.518118 225.194406 
L 547.943802 240.763935 
L 548.369485 246.40837 
L 548.795168 236.146959 
L 549.220852 233.989097 
L 549.646535 241.476936 
L 550.072219 238.130513 
L 550.497902 224.911719 
L 550.923586 248.520008 
L 551.349269 238.075603 
L 551.774952 231.523557 
L 552.200636 247.682836 
L 552.626319 250.348367 
L 553.052003 227.006543 
L 553.477686 242.649802 
L 553.903369 244.945555 
L 554.329053 237.759252 
L 554.754736 241.925027 
L 555.18042 242.368769 
L 555.606103 249.246444 
L 556.031786 246.028128 
L 556.45747 233.669615 
L 556.883153 236.984752 
L 557.308837 246.22444 
L 557.73452 224.46791 
L 558.160203 232.343915 
L 558.585887 249.812638 
L 559.01157 246.130594 
L 559.437254 270.526732 
L 559.862937 240.61792 
L 560.28862 244.793425 
L 560.714304 253.899393 
L 561.565671 252.217355 
L 561.991354 246.682209 
L 562.417038 262.806947 
L 562.842721 249.119188 
L 563.268404 252.844025 
L 563.694088 265.085795 
L 564.119771 263.427327 
L 564.545455 249.076134 
L 564.971138 265.302689 
L 565.396821 275.844425 
L 565.822505 277.842552 
L 566.248188 268.792383 
L 566.673872 267.828476 
L 567.099555 269.035413 
L 567.525238 274.101865 
L 567.950922 287.990992 
L 568.802289 268.734302 
L 569.227972 293.845123 
L 569.653655 273.075465 
L 570.079339 289.463236 
L 570.505022 281.011612 
L 570.930706 290.56489 
L 571.356389 274.773892 
L 571.782072 285.870413 
L 572.207756 278.885372 
L 572.633439 288.399845 
L 573.484806 294.310371 
L 573.91049 291.883043 
L 574.336173 286.049306 
L 574.761856 273.162921 
L 575.18754 279.136296 
L 575.613223 287.928434 
L 576.038907 281.162764 
L 576.46459 290.01641 
L 576.890273 286.726927 
L 577.315957 280.477547 
L 577.74164 261.144506 
L 578.167324 278.65437 
L 578.593007 278.843559 
L 579.01869 295.809024 
L 579.444374 269.097909 
L 579.870057 267.563779 
L 580.295741 287.786009 
L 580.721424 274.638675 
L 581.147107 279.630545 
L 581.572791 271.288179 
L 581.998474 274.575036 
L 582.424158 261.900807 
L 582.849841 266.483564 
L 583.275524 266.019172 
L 583.701208 262.298332 
L 584.126891 277.137011 
L 584.552575 270.832173 
L 584.978258 250.435476 
L 585.403942 257.581015 
L 585.829625 254.392686 
L 586.255308 266.243948 
L 586.680992 238.132857 
L 587.106675 256.656361 
L 587.532359 247.477882 
L 587.958042 251.474208 
L 588.383725 241.160242 
L 588.809409 253.255618 
L 589.235092 237.738421 
L 589.660776 236.162646 
L 590.086459 248.070333 
L 590.512142 253.155744 
L 590.937826 236.598156 
L 591.363509 255.740839 
L 591.789193 231.740896 
L 592.640559 229.150194 
L 593.066243 236.556688 
L 593.491926 219.598091 
L 593.91761 233.393051 
L 594.343293 238.75268 
L 594.768976 233.771928 
L 595.19466 239.676396 
L 595.620343 239.29174 
L 596.046027 227.894368 
L 596.47171 228.747229 
L 596.897394 232.858857 
L 597.323077 230.347953 
L 597.74876 229.830171 
L 598.174444 230.991441 
L 598.600127 215.735894 
L 599.025811 233.469606 
L 599.451494 224.270037 
L 599.877177 232.296836 
L 600.302861 238.124286 
L 600.728544 237.779061 
L 601.154228 230.295239 
L 601.579911 236.417433 
L 602.005594 231.800343 
L 602.431278 231.314026 
L 602.856961 229.323117 
L 603.282645 243.372258 
L 603.708328 226.728065 
L 604.134011 252.151452 
L 604.559695 253.38593 
L 604.985378 231.922254 
L 605.411062 232.402105 
L 605.836745 251.486013 
L 606.262428 240.55765 
L 606.688112 255.476966 
L 607.113795 235.182756 
L 607.539479 247.935911 
L 608.390846 253.788389 
L 608.816529 261.914756 
L 609.242212 247.84237 
L 609.667896 255.527624 
L 610.093579 253.268883 
L 610.519263 264.335021 
L 610.944946 262.852014 
L 611.370629 259.237967 
L 611.796313 275.293459 
L 612.221996 270.609347 
L 612.64768 269.421243 
L 613.073363 261.751694 
L 613.499046 274.102639 
L 613.92473 276.204279 
L 614.350413 266.031728 
L 614.776097 275.690278 
L 615.20178 263.405463 
L 615.627463 284.250421 
L 616.053147 275.213827 
L 616.47883 278.996038 
L 616.904514 277.444099 
L 617.330197 268.722712 
L 617.75588 269.202972 
L 618.607247 288.832735 
L 619.032931 280.750601 
L 619.458614 265.18097 
L 619.884298 275.163 
L 620.309981 281.403214 
L 621.587031 260.185296 
L 622.438398 280.135903 
L 622.864081 255.240236 
L 623.289765 270.714578 
L 623.715448 259.9995 
L 624.141132 259.97363 
L 624.566815 283.749279 
L 624.992498 255.422428 
L 625.418182 267.28102 
L 625.843865 271.494082 
L 626.269549 263.484648 
L 626.695232 262.136596 
L 627.120915 261.199391 
L 627.546599 261.090424 
L 627.972282 247.415019 
L 628.397966 249.430695 
L 628.823649 253.075125 
L 629.249332 258.353874 
L 629.675016 243.259264 
L 630.100699 245.798395 
L 630.526383 252.429208 
L 630.952066 251.381401 
L 631.37775 247.959061 
L 631.803433 245.715706 
L 632.6548 234.854276 
L 633.080483 238.250459 
L 633.506167 250.860495 
L 633.93185 234.264027 
L 634.357533 227.268571 
L 634.783217 243.778328 
L 635.2089 246.738413 
L 635.634584 225.554577 
L 636.060267 233.042462 
L 636.48595 225.185139 
L 636.911634 229.636197 
L 637.337317 213.906448 
L 638.188684 220.049858 
L 639.040051 216.207036 
L 639.465734 214.215617 
L 639.891418 228.90461 
L 640.317101 209.718041 
L 640.742784 231.60788 
L 641.168468 236.704736 
L 641.594151 221.903811 
L 642.019835 215.678071 
L 642.445518 217.3306 
L 642.871202 215.972648 
L 643.296885 219.647317 
L 643.722568 225.088683 
L 644.148252 219.846109 
L 644.573935 207.899061 
L 644.999619 223.801693 
L 645.425302 218.629285 
L 645.850985 219.27997 
L 646.276669 214.563087 
L 646.702352 232.528758 
L 647.553719 224.065868 
L 647.979402 230.316444 
L 648.405086 226.897181 
L 648.830769 231.234233 
L 649.682136 243.757655 
L 650.107819 226.901907 
L 650.533503 233.487688 
L 650.959186 229.980677 
L 651.38487 254.078386 
L 651.810553 230.475485 
L 652.66192 244.553697 
L 653.087603 238.620761 
L 653.513287 241.963324 
L 653.93897 240.781507 
L 654.364654 242.956246 
L 654.790337 247.060157 
L 655.21602 248.616436 
L 655.641704 255.536368 
L 656.067387 248.995551 
L 656.493071 257.642604 
L 656.918754 245.217176 
L 657.344437 255.378245 
L 657.770121 246.633773 
L 658.195804 261.059723 
L 658.621488 261.036228 
L 659.047171 254.283899 
L 659.472854 253.06676 
L 659.898538 270.755736 
L 660.324221 256.921485 
L 660.749905 255.729991 
L 661.175588 267.787944 
L 661.601271 259.863783 
L 662.026955 270.399194 
L 662.452638 269.906528 
L 662.878322 267.602183 
L 663.304005 271.689729 
L 663.729688 255.71851 
L 664.155372 267.031581 
L 664.581055 269.815719 
L 665.006739 278.68157 
L 665.432422 265.826281 
L 665.858106 271.772486 
L 666.283789 268.686519 
L 666.709472 267.76937 
L 667.135156 277.00535 
L 667.560839 260.492453 
L 667.986523 261.641903 
L 668.412206 259.347978 
L 669.263573 274.344426 
L 669.689256 245.052132 
L 670.11494 247.905875 
L 670.540623 260.591659 
L 670.966306 266.665238 
L 671.39199 256.055179 
L 671.817673 253.668622 
L 672.243357 267.350151 
L 672.66904 252.638998 
L 673.094723 248.464004 
L 673.520407 235.032167 
L 673.94609 254.241695 
L 674.371774 226.596251 
L 675.22314 241.780461 
L 675.648824 242.500134 
L 676.500191 227.123345 
L 676.925874 224.322374 
L 677.351558 232.068211 
L 677.777241 237.689049 
L 678.202924 222.193888 
L 678.628608 221.123701 
L 679.054291 231.831272 
L 679.479975 233.864607 
L 679.905658 225.624986 
L 680.331341 220.743395 
L 680.757025 223.794878 
L 681.182708 228.631746 
L 681.608392 226.039472 
L 682.034075 212.596568 
L 682.459758 212.597917 
L 682.885442 214.249987 
L 683.311125 220.763251 
L 683.736809 216.288831 
L 684.162492 222.767964 
L 684.588175 207.154312 
L 685.013859 226.558747 
L 685.439542 214.659716 
L 685.865226 214.278914 
L 686.290909 216.967212 
L 686.716592 193.781751 
L 687.142276 195.549744 
L 687.567959 215.796719 
L 687.993643 208.771238 
L 688.419326 209.813586 
L 688.84501 209.213503 
L 689.270693 209.255898 
L 689.696376 218.320285 
L 690.12206 229.932233 
L 690.547743 217.806266 
L 690.973427 210.203691 
L 691.39911 220.250355 
L 691.824793 214.374735 
L 692.250477 223.511467 
L 692.67616 217.046484 
L 693.101844 216.166834 
L 693.527527 220.279085 
L 693.95321 229.666286 
L 694.378894 214.502947 
L 695.230261 235.210689 
L 695.655944 232.112779 
L 696.081627 227.684654 
L 696.932994 244.769959 
L 697.784361 234.823953 
L 698.210045 234.917222 
L 698.635728 225.951636 
L 699.061411 243.376336 
L 699.487095 246.373738 
L 699.912778 246.311004 
L 700.338462 235.275753 
L 700.764145 250.333021 
L 701.189828 246.181744 
L 701.615512 231.022266 
L 702.041195 257.192499 
L 702.892562 253.388128 
L 703.318245 263.017623 
L 703.743929 250.636906 
L 704.169612 268.469594 
L 704.595296 256.862033 
L 705.020979 261.246783 
L 705.446662 260.809607 
L 705.872346 247.787647 
L 706.298029 251.562421 
L 706.723713 244.135544 
L 708.000763 262.897436 
L 708.426446 256.68789 
L 708.85213 256.291331 
L 709.277813 260.519624 
L 709.703497 269.280907 
L 710.12918 252.64031 
L 710.554863 263.829507 
L 710.980547 266.7237 
L 711.40623 256.593324 
L 711.831914 259.384936 
L 712.257597 248.609125 
L 712.68328 258.0549 
L 713.108964 245.83369 
L 713.534647 251.089331 
L 713.960331 250.792357 
L 714.386014 252.927451 
L 714.811697 241.308029 
L 715.237381 252.374013 
L 715.663064 252.679 
L 716.088748 244.938459 
L 716.514431 243.668186 
L 716.940114 228.96249 
L 717.365798 242.781431 
L 717.791481 234.93997 
L 718.217165 239.729294 
L 718.642848 226.502434 
L 719.068531 232.129739 
L 719.494215 229.954689 
L 719.919898 231.06897 
L 720.345582 238.383765 
L 720.771265 234.532 
L 721.196949 224.296563 
L 721.622632 234.523495 
L 722.048315 216.175189 
L 722.473999 233.329831 
L 723.325366 229.225207 
L 724.176732 209.761092 
L 724.602416 228.085031 
L 725.028099 218.187622 
L 725.453783 213.366507 
L 725.879466 224.454418 
L 726.305149 213.465545 
L 726.730833 211.932372 
L 727.156516 201.750508 
L 727.5822 203.561009 
L 728.007883 217.349364 
L 728.433566 215.302599 
L 728.85925 211.692351 
L 729.284933 221.189172 
L 729.710617 213.648163 
L 730.1363 198.564358 
L 730.561983 207.180589 
L 730.987667 198.291939 
L 731.41335 197.783598 
L 731.839034 209.219075 
L 732.264717 207.002636 
L 732.690401 189.5476 
L 733.116084 206.421632 
L 733.541767 202.474261 
L 733.967451 195.955068 
L 734.393134 205.791468 
L 734.818818 204.298925 
L 735.244501 215.189351 
L 735.670184 191.807767 
L 736.095868 213.142999 
L 736.521551 216.98675 
L 736.947235 213.36778 
L 737.372918 197.099242 
L 737.798601 224.297956 
L 738.224285 213.777872 
L 738.649968 222.513047 
L 739.075652 222.196207 
L 739.501335 215.595788 
L 739.927018 213.545793 
L 740.352702 206.01238 
L 740.778385 222.670352 
L 741.204069 217.879134 
L 741.629752 243.029605 
L 742.055435 222.861018 
L 742.481119 213.126668 
L 742.906802 223.013234 
L 742.906802 223.013234 
" style="fill:none;stroke:#1f77b4;stroke-linecap:square;stroke-width:1.5;"/>
   </g>
   <g id="line2d_17">
    <path clip-path="url(#p8ee5c02855)" d="M 747.163636 384.48 
L 747.163636 51.84 
" style="fill:none;stroke:#808080;stroke-linecap:square;"/>
   </g>
   <g id="patch_90">
    <path d="M 108 384.48 
L 108 51.84 
" style="fill:none;stroke:#000000;stroke-linecap:square;stroke-linejoin:miter;stroke-width:0.8;"/>
   </g>
   <g id="patch_91">
    <path d="M 777.6 384.48 
L 777.6 51.84 
" style="fill:none;stroke:#000000;stroke-linecap:square;stroke-linejoin:miter;stroke-width:0.8;"/>
   </g>
   <g id="patch_92">
    <path d="M 108 384.48 
L 777.6 384.48 
" style="fill:none;stroke:#000000;stroke-linecap:square;stroke-linejoin:miter;stroke-width:0.8;"/>
   </g>
   <g id="patch_93">
    <path d="M 108 51.84 
L 777.6 51.84 
" style="fill:none;stroke:#000000;stroke-linecap:square;stroke-linejoin:miter;stroke-width:0.8;"/>
   </g>
   <g id="text_18">
    <!-- synthetic_41.csv -->
    <defs>
     <path d="M 32.171875 -5.078125 
Q 28.375 -14.84375 24.75 -17.8125 
Q 21.140625 -20.796875 15.09375 -20.796875 
L 7.90625 -20.796875 
L 7.90625 -13.28125 
L 13.1875 -13.28125 
Q 16.890625 -13.28125 18.9375 -11.515625 
Q 21 -9.765625 23.484375 -3.21875 
L 25.09375 0.875 
L 2.984375 54.6875 
L 12.5 54.6875 
L 29.59375 11.921875 
L 46.6875 54.6875 
L 56.203125 54.6875 
z
" id="DejaVuSans-121"/>
     <path d="M 54.890625 33.015625 
L 54.890625 0 
L 45.90625 0 
L 45.90625 32.71875 
Q 45.90625 40.484375 42.875 44.328125 
Q 39.84375 48.1875 33.796875 48.1875 
Q 26.515625 48.1875 22.3125 43.546875 
Q 18.109375 38.921875 18.109375 30.90625 
L 18.109375 0 
L 9.078125 0 
L 9.078125 54.6875 
L 18.109375 54.6875 
L 18.109375 46.1875 
Q 21.34375 51.125 25.703125 53.5625 
Q 30.078125 56 35.796875 56 
Q 45.21875 56 50.046875 50.171875 
Q 54.890625 44.34375 54.890625 33.015625 
z
" id="DejaVuSans-110"/>
     <path d="M 54.890625 33.015625 
L 54.890625 0 
L 45.90625 0 
L 45.90625 32.71875 
Q 45.90625 40.484375 42.875 44.328125 
Q 39.84375 48.1875 33.796875 48.1875 
Q 26.515625 48.1875 22.3125 43.546875 
Q 18.109375 38.921875 18.109375 30.90625 
L 18.109375 0 
L 9.078125 0 
L 9.078125 75.984375 
L 18.109375 75.984375 
L 18.109375 46.1875 
Q 21.34375 51.125 25.703125 53.5625 
Q 30.078125 56 35.796875 56 
Q 45.21875 56 50.046875 50.171875 
Q 54.890625 44.34375 54.890625 33.015625 
z
" id="DejaVuSans-104"/>
     <path d="M 48.78125 52.59375 
L 48.78125 44.1875 
Q 44.96875 46.296875 41.140625 47.34375 
Q 37.3125 48.390625 33.40625 48.390625 
Q 24.65625 48.390625 19.8125 42.84375 
Q 14.984375 37.3125 14.984375 27.296875 
Q 14.984375 17.28125 19.8125 11.734375 
Q 24.65625 6.203125 33.40625 6.203125 
Q 37.3125 6.203125 41.140625 7.25 
Q 44.96875 8.296875 48.78125 10.40625 
L 48.78125 2.09375 
Q 45.015625 0.34375 40.984375 -0.53125 
Q 36.96875 -1.421875 32.421875 -1.421875 
Q 20.0625 -1.421875 12.78125 6.34375 
Q 5.515625 14.109375 5.515625 27.296875 
Q 5.515625 40.671875 12.859375 48.328125 
Q 20.21875 56 33.015625 56 
Q 37.15625 56 41.109375 55.140625 
Q 45.0625 54.296875 48.78125 52.59375 
z
" id="DejaVuSans-99"/>
     <path d="M 50.984375 -16.609375 
L 50.984375 -23.578125 
L -0.984375 -23.578125 
L -0.984375 -16.609375 
z
" id="DejaVuSans-95"/>
     <path d="M 10.6875 12.40625 
L 21 12.40625 
L 21 0 
L 10.6875 0 
z
" id="DejaVuSans-46"/>
     <path d="M 2.984375 54.6875 
L 12.5 54.6875 
L 29.59375 8.796875 
L 46.6875 54.6875 
L 56.203125 54.6875 
L 35.6875 0 
L 23.484375 0 
z
" id="DejaVuSans-118"/>
    </defs>
    <g transform="translate(392.638125 45.84)scale(0.12 -0.12)">
     <use xlink:href="#DejaVuSans-115"/>
     <use x="52.099609" xlink:href="#DejaVuSans-121"/>
     <use x="111.279297" xlink:href="#DejaVuSans-110"/>
     <use x="174.658203" xlink:href="#DejaVuSans-116"/>
     <use x="213.867188" xlink:href="#DejaVuSans-104"/>
     <use x="277.246094" xlink:href="#DejaVuSans-101"/>
     <use x="338.769531" xlink:href="#DejaVuSans-116"/>
     <use x="377.978516" xlink:href="#DejaVuSans-105"/>
     <use x="405.761719" xlink:href="#DejaVuSans-99"/>
     <use x="460.742188" xlink:href="#DejaVuSans-95"/>
     <use x="510.742188" xlink:href="#DejaVuSans-52"/>
     <use x="574.365234" xlink:href="#DejaVuSans-49"/>
     <use x="637.988281" xlink:href="#DejaVuSans-46"/>
     <use x="669.775391" xlink:href="#DejaVuSans-99"/>
     <use x="724.755859" xlink:href="#DejaVuSans-115"/>
     <use x="776.855469" xlink:href="#DejaVuSans-118"/>
    </g>
   </g>
   <g id="legend_1">
    <g id="patch_94">
     <path d="M 115 74.518125 
L 174.315625 74.518125 
Q 176.315625 74.518125 176.315625 72.518125 
L 176.315625 58.84 
Q 176.315625 56.84 174.315625 56.84 
L 115 56.84 
Q 113 56.84 113 58.84 
L 113 72.518125 
Q 113 74.518125 115 74.518125 
z
" style="fill:#ffffff;opacity:0.8;stroke:#cccccc;stroke-linejoin:miter;"/>
    </g>
    <g id="line2d_18">
     <path d="M 117 64.938438 
L 137 64.938438 
" style="fill:none;stroke:#1f77b4;stroke-linecap:square;stroke-width:1.5;"/>
    </g>
    <g id="line2d_19"/>
    <g id="text_19">
     <!-- value -->
     <g transform="translate(145 68.438438)scale(0.1 -0.1)">
      <use xlink:href="#DejaVuSans-118"/>
      <use x="59.179688" xlink:href="#DejaVuSans-97"/>
      <use x="120.458984" xlink:href="#DejaVuSans-108"/>
      <use x="148.242188" xlink:href="#DejaVuSans-117"/>
      <use x="211.621094" xlink:href="#DejaVuSans-101"/>
     </g>
    </g>
   </g>
  </g>
 </g>
 <defs>
  <clipPath id="p8ee5c02855">
   <rect height="332.64" width="669.6" x="108" y="51.84"/>
  </clipPath>
 </defs>
</svg>
