<?xml version="1.0" encoding="utf-8" standalone="no"?>
<!DOCTYPE svg PUBLIC "-//W3C//DTD SVG 1.1//EN"
  "http://www.w3.org/Graphics/SVG/1.1/DTD/svg11.dtd">
<!-- Created with matplotlib (https://matplotlib.org/) -->
<svg height="432pt" version="1.1" viewBox="0 0 864 432" width="864pt" xmlns="http://www.w3.org/2000/svg" xmlns:xlink="http://www.w3.org/1999/xlink">
 <defs>
  <style type="text/css">
*{stroke-linecap:butt;stroke-linejoin:round;}
  </style>
 </defs>
 <g id="figure_1">
  <g id="patch_1">
   <path d="M 0 432 
L 864 432 
L 864 0 
L 0 0 
z
" style="fill:#ffffff;"/>
  </g>
  <g id="axes_1">
   <g id="patch_2">
    <path d="M 108 384.48 
L 777.6 384.48 
L 777.6 51.84 
L 108 51.84 
z
" style="fill:#ffffff;"/>
   </g>
   <g id="patch_3">
    <path clip-path="url(#p67838bcc18)" d="M 138.436364 384.48 
L 138.436364 51.84 
L 440.671583 51.84 
L 440.671583 384.48 
z
" style="fill:#0000ff;opacity:0.05;"/>
   </g>
   <g id="patch_4">
    <path clip-path="url(#p67838bcc18)" d="M 440.671583 384.48 
L 440.671583 51.84 
L 747.163636 51.84 
L 747.163636 384.48 
z
" style="fill:#ff0000;opacity:0.08;"/>
   </g>
   <g id="patch_5">
    <path clip-path="url(#p67838bcc18)" d="M 138.436364 384.48 
L 138.436364 51.84 
L 142.693198 51.84 
L 142.693198 384.48 
z
" style="fill:#008000;opacity:0.04;"/>
   </g>
   <g id="patch_6">
    <path clip-path="url(#p67838bcc18)" d="M 146.950032 384.48 
L 146.950032 51.84 
L 151.206866 51.84 
L 151.206866 384.48 
z
" style="fill:#008000;opacity:0.04;"/>
   </g>
   <g id="patch_7">
    <path clip-path="url(#p67838bcc18)" d="M 155.4637 384.48 
L 155.4637 51.84 
L 159.720534 51.84 
L 159.720534 384.48 
z
" style="fill:#008000;opacity:0.04;"/>
   </g>
   <g id="patch_8">
    <path clip-path="url(#p67838bcc18)" d="M 163.977368 384.48 
L 163.977368 51.84 
L 168.234202 51.84 
L 168.234202 384.48 
z
" style="fill:#008000;opacity:0.04;"/>
   </g>
   <g id="patch_9">
    <path clip-path="url(#p67838bcc18)" d="M 172.491036 384.48 
L 172.491036 51.84 
L 176.74787 51.84 
L 176.74787 384.48 
z
" style="fill:#008000;opacity:0.04;"/>
   </g>
   <g id="patch_10">
    <path clip-path="url(#p67838bcc18)" d="M 181.004704 384.48 
L 181.004704 51.84 
L 185.261538 51.84 
L 185.261538 384.48 
z
" style="fill:#008000;opacity:0.04;"/>
   </g>
   <g id="patch_11">
    <path clip-path="url(#p67838bcc18)" d="M 189.518373 384.48 
L 189.518373 51.84 
L 193.775207 51.84 
L 193.775207 384.48 
z
" style="fill:#008000;opacity:0.04;"/>
   </g>
   <g id="patch_12">
    <path clip-path="url(#p67838bcc18)" d="M 193.775207 384.48 
L 193.775207 371.1744 
L 198.032041 371.1744 
L 198.032041 384.48 
z
" style="fill:#ffe500;"/>
   </g>
   <g id="patch_13">
    <path clip-path="url(#p67838bcc18)" d="M 198.032041 384.48 
L 198.032041 51.84 
L 202.288875 51.84 
L 202.288875 384.48 
z
" style="fill:#008000;opacity:0.04;"/>
   </g>
   <g id="patch_14">
    <path clip-path="url(#p67838bcc18)" d="M 206.545709 384.48 
L 206.545709 51.84 
L 210.802543 51.84 
L 210.802543 384.48 
z
" style="fill:#008000;opacity:0.04;"/>
   </g>
   <g id="patch_15">
    <path clip-path="url(#p67838bcc18)" d="M 215.059377 384.48 
L 215.059377 51.84 
L 219.316211 51.84 
L 219.316211 384.48 
z
" style="fill:#008000;opacity:0.04;"/>
   </g>
   <g id="patch_16">
    <path clip-path="url(#p67838bcc18)" d="M 517.294596 384.48 
L 517.294596 371.1744 
L 521.55143 371.1744 
L 521.55143 384.48 
z
" style="fill:#ff6600;"/>
   </g>
   <g id="patch_17">
    <path clip-path="url(#p67838bcc18)" d="M 223.573045 384.48 
L 223.573045 51.84 
L 227.829879 51.84 
L 227.829879 384.48 
z
" style="fill:#008000;opacity:0.04;"/>
   </g>
   <g id="patch_18">
    <path clip-path="url(#p67838bcc18)" d="M 232.086713 384.48 
L 232.086713 51.84 
L 236.343547 51.84 
L 236.343547 384.48 
z
" style="fill:#008000;opacity:0.04;"/>
   </g>
   <g id="patch_19">
    <path clip-path="url(#p67838bcc18)" d="M 240.600381 384.48 
L 240.600381 51.84 
L 244.857216 51.84 
L 244.857216 384.48 
z
" style="fill:#008000;opacity:0.04;"/>
   </g>
   <g id="patch_20">
    <path clip-path="url(#p67838bcc18)" d="M 249.11405 384.48 
L 249.11405 51.84 
L 253.370884 51.84 
L 253.370884 384.48 
z
" style="fill:#008000;opacity:0.04;"/>
   </g>
   <g id="patch_21">
    <path clip-path="url(#p67838bcc18)" d="M 257.627718 384.48 
L 257.627718 51.84 
L 261.884552 51.84 
L 261.884552 384.48 
z
" style="fill:#008000;opacity:0.04;"/>
   </g>
   <g id="patch_22">
    <path clip-path="url(#p67838bcc18)" d="M 266.141386 384.48 
L 266.141386 51.84 
L 270.39822 51.84 
L 270.39822 384.48 
z
" style="fill:#008000;opacity:0.04;"/>
   </g>
   <g id="patch_23">
    <path clip-path="url(#p67838bcc18)" d="M 274.655054 384.48 
L 274.655054 51.84 
L 278.911888 51.84 
L 278.911888 384.48 
z
" style="fill:#008000;opacity:0.04;"/>
   </g>
   <g id="patch_24">
    <path clip-path="url(#p67838bcc18)" d="M 283.168722 384.48 
L 283.168722 51.84 
L 287.425556 51.84 
L 287.425556 384.48 
z
" style="fill:#008000;opacity:0.04;"/>
   </g>
   <g id="patch_25">
    <path clip-path="url(#p67838bcc18)" d="M 283.168722 384.48 
L 283.168722 371.1744 
L 287.425556 371.1744 
L 287.425556 384.48 
z
" style="fill:#ffe500;"/>
   </g>
   <g id="patch_26">
    <path clip-path="url(#p67838bcc18)" d="M 291.68239 384.48 
L 291.68239 51.84 
L 295.939224 51.84 
L 295.939224 384.48 
z
" style="fill:#008000;opacity:0.04;"/>
   </g>
   <g id="patch_27">
    <path clip-path="url(#p67838bcc18)" d="M 300.196058 384.48 
L 300.196058 51.84 
L 304.452893 51.84 
L 304.452893 384.48 
z
" style="fill:#008000;opacity:0.04;"/>
   </g>
   <g id="patch_28">
    <path clip-path="url(#p67838bcc18)" d="M 308.709727 384.48 
L 308.709727 51.84 
L 312.966561 51.84 
L 312.966561 384.48 
z
" style="fill:#008000;opacity:0.04;"/>
   </g>
   <g id="patch_29">
    <path clip-path="url(#p67838bcc18)" d="M 317.223395 384.48 
L 317.223395 51.84 
L 321.480229 51.84 
L 321.480229 384.48 
z
" style="fill:#008000;opacity:0.04;"/>
   </g>
   <g id="patch_30">
    <path clip-path="url(#p67838bcc18)" d="M 325.737063 384.48 
L 325.737063 51.84 
L 329.993897 51.84 
L 329.993897 384.48 
z
" style="fill:#008000;opacity:0.04;"/>
   </g>
   <g id="patch_31">
    <path clip-path="url(#p67838bcc18)" d="M 325.737063 384.48 
L 325.737063 371.1744 
L 329.993897 371.1744 
L 329.993897 384.48 
z
" style="fill:#ffe500;"/>
   </g>
   <g id="patch_32">
    <path clip-path="url(#p67838bcc18)" d="M 334.250731 384.48 
L 334.250731 51.84 
L 338.507565 51.84 
L 338.507565 384.48 
z
" style="fill:#008000;opacity:0.04;"/>
   </g>
   <g id="patch_33">
    <path clip-path="url(#p67838bcc18)" d="M 342.764399 384.48 
L 342.764399 51.84 
L 347.021233 51.84 
L 347.021233 384.48 
z
" style="fill:#008000;opacity:0.04;"/>
   </g>
   <g id="patch_34">
    <path clip-path="url(#p67838bcc18)" d="M 351.278067 384.48 
L 351.278067 51.84 
L 355.534901 51.84 
L 355.534901 384.48 
z
" style="fill:#008000;opacity:0.04;"/>
   </g>
   <g id="patch_35">
    <path clip-path="url(#p67838bcc18)" d="M 359.791736 384.48 
L 359.791736 51.84 
L 364.04857 51.84 
L 364.04857 384.48 
z
" style="fill:#008000;opacity:0.04;"/>
   </g>
   <g id="patch_36">
    <path clip-path="url(#p67838bcc18)" d="M 368.305404 384.48 
L 368.305404 51.84 
L 372.562238 51.84 
L 372.562238 384.48 
z
" style="fill:#008000;opacity:0.04;"/>
   </g>
   <g id="patch_37">
    <path clip-path="url(#p67838bcc18)" d="M 372.562238 384.48 
L 372.562238 371.1744 
L 376.819072 371.1744 
L 376.819072 384.48 
z
" style="fill:#ffe500;"/>
   </g>
   <g id="patch_38">
    <path clip-path="url(#p67838bcc18)" d="M 376.819072 384.48 
L 376.819072 51.84 
L 381.075906 51.84 
L 381.075906 384.48 
z
" style="fill:#008000;opacity:0.04;"/>
   </g>
   <g id="patch_39">
    <path clip-path="url(#p67838bcc18)" d="M 385.33274 384.48 
L 385.33274 51.84 
L 389.589574 51.84 
L 389.589574 384.48 
z
" style="fill:#008000;opacity:0.04;"/>
   </g>
   <g id="patch_40">
    <path clip-path="url(#p67838bcc18)" d="M 393.846408 384.48 
L 393.846408 51.84 
L 398.103242 51.84 
L 398.103242 384.48 
z
" style="fill:#008000;opacity:0.04;"/>
   </g>
   <g id="patch_41">
    <path clip-path="url(#p67838bcc18)" d="M 402.360076 384.48 
L 402.360076 51.84 
L 406.61691 51.84 
L 406.61691 384.48 
z
" style="fill:#008000;opacity:0.04;"/>
   </g>
   <g id="patch_42">
    <path clip-path="url(#p67838bcc18)" d="M 402.360076 371.1744 
L 402.360076 51.84 
L 406.61691 51.84 
L 406.61691 371.1744 
z
" style="fill:#008000;opacity:0.5;"/>
   </g>
   <g id="patch_43">
    <path clip-path="url(#p67838bcc18)" d="M 402.360076 384.48 
L 402.360076 371.1744 
L 406.61691 371.1744 
L 406.61691 384.48 
z
" style="fill:#ffe500;"/>
   </g>
   <g id="patch_44">
    <path clip-path="url(#p67838bcc18)" d="M 410.873744 384.48 
L 410.873744 51.84 
L 415.130579 51.84 
L 415.130579 384.48 
z
" style="fill:#008000;opacity:0.04;"/>
   </g>
   <g id="patch_45">
    <path clip-path="url(#p67838bcc18)" d="M 415.130579 371.1744 
L 415.130579 51.84 
L 419.387413 51.84 
L 419.387413 371.1744 
z
" style="fill:#008000;opacity:0.5;"/>
   </g>
   <g id="patch_46">
    <path clip-path="url(#p67838bcc18)" d="M 415.130579 384.48 
L 415.130579 371.1744 
L 419.387413 371.1744 
L 419.387413 384.48 
z
" style="fill:#ffe500;"/>
   </g>
   <g id="patch_47">
    <path clip-path="url(#p67838bcc18)" d="M 419.387413 384.48 
L 419.387413 51.84 
L 423.644247 51.84 
L 423.644247 384.48 
z
" style="fill:#008000;opacity:0.04;"/>
   </g>
   <g id="patch_48">
    <path clip-path="url(#p67838bcc18)" d="M 419.387413 371.1744 
L 419.387413 51.84 
L 423.644247 51.84 
L 423.644247 371.1744 
z
" style="fill:#008000;opacity:0.5;"/>
   </g>
   <g id="patch_49">
    <path clip-path="url(#p67838bcc18)" d="M 419.387413 384.48 
L 419.387413 371.1744 
L 423.644247 371.1744 
L 423.644247 384.48 
z
" style="fill:#ffe500;"/>
   </g>
   <g id="patch_50">
    <path clip-path="url(#p67838bcc18)" d="M 427.901081 384.48 
L 427.901081 51.84 
L 432.157915 51.84 
L 432.157915 384.48 
z
" style="fill:#008000;opacity:0.04;"/>
   </g>
   <g id="patch_51">
    <path clip-path="url(#p67838bcc18)" d="M 436.414749 384.48 
L 436.414749 51.84 
L 440.671583 51.84 
L 440.671583 384.48 
z
" style="fill:#008000;opacity:0.04;"/>
   </g>
   <g id="patch_52">
    <path clip-path="url(#p67838bcc18)" d="M 742.906802 384.48 
L 742.906802 371.1744 
L 747.163636 371.1744 
L 747.163636 384.48 
z
" style="fill:#ff6600;"/>
   </g>
   <g id="patch_53">
    <path clip-path="url(#p67838bcc18)" d="M 444.928417 384.48 
L 444.928417 51.84 
L 449.185251 51.84 
L 449.185251 384.48 
z
" style="fill:#008000;opacity:0.04;"/>
   </g>
   <g id="patch_54">
    <path clip-path="url(#p67838bcc18)" d="M 453.442085 384.48 
L 453.442085 51.84 
L 457.698919 51.84 
L 457.698919 384.48 
z
" style="fill:#008000;opacity:0.04;"/>
   </g>
   <g id="patch_55">
    <path clip-path="url(#p67838bcc18)" d="M 461.955753 384.48 
L 461.955753 51.84 
L 466.212587 51.84 
L 466.212587 384.48 
z
" style="fill:#008000;opacity:0.04;"/>
   </g>
   <g id="patch_56">
    <path clip-path="url(#p67838bcc18)" d="M 470.469421 384.48 
L 470.469421 51.84 
L 474.726256 51.84 
L 474.726256 384.48 
z
" style="fill:#008000;opacity:0.04;"/>
   </g>
   <g id="patch_57">
    <path clip-path="url(#p67838bcc18)" d="M 478.98309 384.48 
L 478.98309 51.84 
L 483.239924 51.84 
L 483.239924 384.48 
z
" style="fill:#008000;opacity:0.04;"/>
   </g>
   <g id="patch_58">
    <path clip-path="url(#p67838bcc18)" d="M 487.496758 384.48 
L 487.496758 51.84 
L 491.753592 51.84 
L 491.753592 384.48 
z
" style="fill:#008000;opacity:0.04;"/>
   </g>
   <g id="patch_59">
    <path clip-path="url(#p67838bcc18)" d="M 496.010426 384.48 
L 496.010426 51.84 
L 500.26726 51.84 
L 500.26726 384.48 
z
" style="fill:#008000;opacity:0.04;"/>
   </g>
   <g id="patch_60">
    <path clip-path="url(#p67838bcc18)" d="M 504.524094 384.48 
L 504.524094 51.84 
L 508.780928 51.84 
L 508.780928 384.48 
z
" style="fill:#008000;opacity:0.04;"/>
   </g>
   <g id="patch_61">
    <path clip-path="url(#p67838bcc18)" d="M 513.037762 384.48 
L 513.037762 51.84 
L 517.294596 51.84 
L 517.294596 384.48 
z
" style="fill:#008000;opacity:0.04;"/>
   </g>
   <g id="patch_62">
    <path clip-path="url(#p67838bcc18)" d="M 517.294596 371.1744 
L 517.294596 51.84 
L 521.55143 51.84 
L 521.55143 371.1744 
z
" style="fill:#008000;opacity:0.5;"/>
   </g>
   <g id="patch_63">
    <path clip-path="url(#p67838bcc18)" d="M 521.55143 384.48 
L 521.55143 51.84 
L 525.808264 51.84 
L 525.808264 384.48 
z
" style="fill:#008000;opacity:0.04;"/>
   </g>
   <g id="patch_64">
    <path clip-path="url(#p67838bcc18)" d="M 530.065099 384.48 
L 530.065099 51.84 
L 534.321933 51.84 
L 534.321933 384.48 
z
" style="fill:#008000;opacity:0.04;"/>
   </g>
   <g id="patch_65">
    <path clip-path="url(#p67838bcc18)" d="M 538.578767 384.48 
L 538.578767 51.84 
L 542.835601 51.84 
L 542.835601 384.48 
z
" style="fill:#008000;opacity:0.04;"/>
   </g>
   <g id="patch_66">
    <path clip-path="url(#p67838bcc18)" d="M 547.092435 384.48 
L 547.092435 51.84 
L 551.349269 51.84 
L 551.349269 384.48 
z
" style="fill:#008000;opacity:0.04;"/>
   </g>
   <g id="patch_67">
    <path clip-path="url(#p67838bcc18)" d="M 555.606103 384.48 
L 555.606103 51.84 
L 559.862937 51.84 
L 559.862937 384.48 
z
" style="fill:#008000;opacity:0.04;"/>
   </g>
   <g id="patch_68">
    <path clip-path="url(#p67838bcc18)" d="M 564.119771 384.48 
L 564.119771 51.84 
L 568.376605 51.84 
L 568.376605 384.48 
z
" style="fill:#008000;opacity:0.04;"/>
   </g>
   <g id="patch_69">
    <path clip-path="url(#p67838bcc18)" d="M 572.633439 384.48 
L 572.633439 51.84 
L 576.890273 51.84 
L 576.890273 384.48 
z
" style="fill:#008000;opacity:0.04;"/>
   </g>
   <g id="patch_70">
    <path clip-path="url(#p67838bcc18)" d="M 581.147107 384.48 
L 581.147107 51.84 
L 585.403942 51.84 
L 585.403942 384.48 
z
" style="fill:#008000;opacity:0.04;"/>
   </g>
   <g id="patch_71">
    <path clip-path="url(#p67838bcc18)" d="M 589.660776 384.48 
L 589.660776 51.84 
L 593.91761 51.84 
L 593.91761 384.48 
z
" style="fill:#008000;opacity:0.04;"/>
   </g>
   <g id="patch_72">
    <path clip-path="url(#p67838bcc18)" d="M 598.174444 384.48 
L 598.174444 51.84 
L 602.431278 51.84 
L 602.431278 384.48 
z
" style="fill:#008000;opacity:0.04;"/>
   </g>
   <g id="patch_73">
    <path clip-path="url(#p67838bcc18)" d="M 606.688112 384.48 
L 606.688112 51.84 
L 610.944946 51.84 
L 610.944946 384.48 
z
" style="fill:#008000;opacity:0.04;"/>
   </g>
   <g id="patch_74">
    <path clip-path="url(#p67838bcc18)" d="M 615.20178 384.48 
L 615.20178 51.84 
L 619.458614 51.84 
L 619.458614 384.48 
z
" style="fill:#008000;opacity:0.04;"/>
   </g>
   <g id="patch_75">
    <path clip-path="url(#p67838bcc18)" d="M 623.715448 384.48 
L 623.715448 51.84 
L 627.972282 51.84 
L 627.972282 384.48 
z
" style="fill:#008000;opacity:0.04;"/>
   </g>
   <g id="patch_76">
    <path clip-path="url(#p67838bcc18)" d="M 632.229116 384.48 
L 632.229116 51.84 
L 636.48595 51.84 
L 636.48595 384.48 
z
" style="fill:#008000;opacity:0.04;"/>
   </g>
   <g id="patch_77">
    <path clip-path="url(#p67838bcc18)" d="M 640.742784 384.48 
L 640.742784 51.84 
L 644.999619 51.84 
L 644.999619 384.48 
z
" style="fill:#008000;opacity:0.04;"/>
   </g>
   <g id="patch_78">
    <path clip-path="url(#p67838bcc18)" d="M 649.256453 384.48 
L 649.256453 51.84 
L 653.513287 51.84 
L 653.513287 384.48 
z
" style="fill:#008000;opacity:0.04;"/>
   </g>
   <g id="patch_79">
    <path clip-path="url(#p67838bcc18)" d="M 657.770121 384.48 
L 657.770121 51.84 
L 662.026955 51.84 
L 662.026955 384.48 
z
" style="fill:#008000;opacity:0.04;"/>
   </g>
   <g id="patch_80">
    <path clip-path="url(#p67838bcc18)" d="M 666.283789 384.48 
L 666.283789 51.84 
L 670.540623 51.84 
L 670.540623 384.48 
z
" style="fill:#008000;opacity:0.04;"/>
   </g>
   <g id="patch_81">
    <path clip-path="url(#p67838bcc18)" d="M 674.797457 384.48 
L 674.797457 51.84 
L 679.054291 51.84 
L 679.054291 384.48 
z
" style="fill:#008000;opacity:0.04;"/>
   </g>
   <g id="patch_82">
    <path clip-path="url(#p67838bcc18)" d="M 683.311125 384.48 
L 683.311125 51.84 
L 687.567959 51.84 
L 687.567959 384.48 
z
" style="fill:#008000;opacity:0.04;"/>
   </g>
   <g id="patch_83">
    <path clip-path="url(#p67838bcc18)" d="M 691.824793 384.48 
L 691.824793 51.84 
L 696.081627 51.84 
L 696.081627 384.48 
z
" style="fill:#008000;opacity:0.04;"/>
   </g>
   <g id="patch_84">
    <path clip-path="url(#p67838bcc18)" d="M 700.338462 384.48 
L 700.338462 51.84 
L 704.595296 51.84 
L 704.595296 384.48 
z
" style="fill:#008000;opacity:0.04;"/>
   </g>
   <g id="patch_85">
    <path clip-path="url(#p67838bcc18)" d="M 708.85213 384.48 
L 708.85213 51.84 
L 713.108964 51.84 
L 713.108964 384.48 
z
" style="fill:#008000;opacity:0.04;"/>
   </g>
   <g id="patch_86">
    <path clip-path="url(#p67838bcc18)" d="M 717.365798 384.48 
L 717.365798 51.84 
L 721.622632 51.84 
L 721.622632 384.48 
z
" style="fill:#008000;opacity:0.04;"/>
   </g>
   <g id="patch_87">
    <path clip-path="url(#p67838bcc18)" d="M 725.879466 384.48 
L 725.879466 51.84 
L 730.1363 51.84 
L 730.1363 384.48 
z
" style="fill:#008000;opacity:0.04;"/>
   </g>
   <g id="patch_88">
    <path clip-path="url(#p67838bcc18)" d="M 734.393134 384.48 
L 734.393134 51.84 
L 738.649968 51.84 
L 738.649968 384.48 
z
" style="fill:#008000;opacity:0.04;"/>
   </g>
   <g id="patch_89">
    <path clip-path="url(#p67838bcc18)" d="M 742.906802 384.48 
L 742.906802 51.84 
L 747.163636 51.84 
L 747.163636 384.48 
z
" style="fill:#008000;opacity:0.04;"/>
   </g>
   <g id="matplotlib.axis_1">
    <g id="xtick_1">
     <g id="line2d_1">
      <defs>
       <path d="M 0 0 
L 0 3.5 
" id="m6bc62ee496" style="stroke:#000000;stroke-width:0.8;"/>
      </defs>
      <g>
       <use style="stroke:#000000;stroke-width:0.8;" x="138.436364" xlink:href="#m6bc62ee496" y="384.48"/>
      </g>
     </g>
     <g id="text_1">
      <!-- 0 -->
      <defs>
       <path d="M 31.78125 66.40625 
Q 24.171875 66.40625 20.328125 58.90625 
Q 16.5 51.421875 16.5 36.375 
Q 16.5 21.390625 20.328125 13.890625 
Q 24.171875 6.390625 31.78125 6.390625 
Q 39.453125 6.390625 43.28125 13.890625 
Q 47.125 21.390625 47.125 36.375 
Q 47.125 51.421875 43.28125 58.90625 
Q 39.453125 66.40625 31.78125 66.40625 
z
M 31.78125 74.21875 
Q 44.046875 74.21875 50.515625 64.515625 
Q 56.984375 54.828125 56.984375 36.375 
Q 56.984375 17.96875 50.515625 8.265625 
Q 44.046875 -1.421875 31.78125 -1.421875 
Q 19.53125 -1.421875 13.0625 8.265625 
Q 6.59375 17.96875 6.59375 36.375 
Q 6.59375 54.828125 13.0625 64.515625 
Q 19.53125 74.21875 31.78125 74.21875 
z
" id="DejaVuSans-48"/>
      </defs>
      <g transform="translate(135.255114 399.078438)scale(0.1 -0.1)">
       <use xlink:href="#DejaVuSans-48"/>
      </g>
     </g>
    </g>
    <g id="xtick_2">
     <g id="line2d_2">
      <g>
       <use style="stroke:#000000;stroke-width:0.8;" x="223.573045" xlink:href="#m6bc62ee496" y="384.48"/>
      </g>
     </g>
     <g id="text_2">
      <!-- 200 -->
      <defs>
       <path d="M 19.1875 8.296875 
L 53.609375 8.296875 
L 53.609375 0 
L 7.328125 0 
L 7.328125 8.296875 
Q 12.9375 14.109375 22.625 23.890625 
Q 32.328125 33.6875 34.8125 36.53125 
Q 39.546875 41.84375 41.421875 45.53125 
Q 43.3125 49.21875 43.3125 52.78125 
Q 43.3125 58.59375 39.234375 62.25 
Q 35.15625 65.921875 28.609375 65.921875 
Q 23.96875 65.921875 18.8125 64.3125 
Q 13.671875 62.703125 7.8125 59.421875 
L 7.8125 69.390625 
Q 13.765625 71.78125 18.9375 73 
Q 24.125 74.21875 28.421875 74.21875 
Q 39.75 74.21875 46.484375 68.546875 
Q 53.21875 62.890625 53.21875 53.421875 
Q 53.21875 48.921875 51.53125 44.890625 
Q 49.859375 40.875 45.40625 35.40625 
Q 44.1875 33.984375 37.640625 27.21875 
Q 31.109375 20.453125 19.1875 8.296875 
z
" id="DejaVuSans-50"/>
      </defs>
      <g transform="translate(214.029295 399.078438)scale(0.1 -0.1)">
       <use xlink:href="#DejaVuSans-50"/>
       <use x="63.623047" xlink:href="#DejaVuSans-48"/>
       <use x="127.246094" xlink:href="#DejaVuSans-48"/>
      </g>
     </g>
    </g>
    <g id="xtick_3">
     <g id="line2d_3">
      <g>
       <use style="stroke:#000000;stroke-width:0.8;" x="308.709727" xlink:href="#m6bc62ee496" y="384.48"/>
      </g>
     </g>
     <g id="text_3">
      <!-- 400 -->
      <defs>
       <path d="M 37.796875 64.3125 
L 12.890625 25.390625 
L 37.796875 25.390625 
z
M 35.203125 72.90625 
L 47.609375 72.90625 
L 47.609375 25.390625 
L 58.015625 25.390625 
L 58.015625 17.1875 
L 47.609375 17.1875 
L 47.609375 0 
L 37.796875 0 
L 37.796875 17.1875 
L 4.890625 17.1875 
L 4.890625 26.703125 
z
" id="DejaVuSans-52"/>
      </defs>
      <g transform="translate(299.165977 399.078438)scale(0.1 -0.1)">
       <use xlink:href="#DejaVuSans-52"/>
       <use x="63.623047" xlink:href="#DejaVuSans-48"/>
       <use x="127.246094" xlink:href="#DejaVuSans-48"/>
      </g>
     </g>
    </g>
    <g id="xtick_4">
     <g id="line2d_4">
      <g>
       <use style="stroke:#000000;stroke-width:0.8;" x="393.846408" xlink:href="#m6bc62ee496" y="384.48"/>
      </g>
     </g>
     <g id="text_4">
      <!-- 600 -->
      <defs>
       <path d="M 33.015625 40.375 
Q 26.375 40.375 22.484375 35.828125 
Q 18.609375 31.296875 18.609375 23.390625 
Q 18.609375 15.53125 22.484375 10.953125 
Q 26.375 6.390625 33.015625 6.390625 
Q 39.65625 6.390625 43.53125 10.953125 
Q 47.40625 15.53125 47.40625 23.390625 
Q 47.40625 31.296875 43.53125 35.828125 
Q 39.65625 40.375 33.015625 40.375 
z
M 52.59375 71.296875 
L 52.59375 62.3125 
Q 48.875 64.0625 45.09375 64.984375 
Q 41.3125 65.921875 37.59375 65.921875 
Q 27.828125 65.921875 22.671875 59.328125 
Q 17.53125 52.734375 16.796875 39.40625 
Q 19.671875 43.65625 24.015625 45.921875 
Q 28.375 48.1875 33.59375 48.1875 
Q 44.578125 48.1875 50.953125 41.515625 
Q 57.328125 34.859375 57.328125 23.390625 
Q 57.328125 12.15625 50.6875 5.359375 
Q 44.046875 -1.421875 33.015625 -1.421875 
Q 20.359375 -1.421875 13.671875 8.265625 
Q 6.984375 17.96875 6.984375 36.375 
Q 6.984375 53.65625 15.1875 63.9375 
Q 23.390625 74.21875 37.203125 74.21875 
Q 40.921875 74.21875 44.703125 73.484375 
Q 48.484375 72.75 52.59375 71.296875 
z
" id="DejaVuSans-54"/>
      </defs>
      <g transform="translate(384.302658 399.078438)scale(0.1 -0.1)">
       <use xlink:href="#DejaVuSans-54"/>
       <use x="63.623047" xlink:href="#DejaVuSans-48"/>
       <use x="127.246094" xlink:href="#DejaVuSans-48"/>
      </g>
     </g>
    </g>
    <g id="xtick_5">
     <g id="line2d_5">
      <g>
       <use style="stroke:#000000;stroke-width:0.8;" x="478.98309" xlink:href="#m6bc62ee496" y="384.48"/>
      </g>
     </g>
     <g id="text_5">
      <!-- 800 -->
      <defs>
       <path d="M 31.78125 34.625 
Q 24.75 34.625 20.71875 30.859375 
Q 16.703125 27.09375 16.703125 20.515625 
Q 16.703125 13.921875 20.71875 10.15625 
Q 24.75 6.390625 31.78125 6.390625 
Q 38.8125 6.390625 42.859375 10.171875 
Q 46.921875 13.96875 46.921875 20.515625 
Q 46.921875 27.09375 42.890625 30.859375 
Q 38.875 34.625 31.78125 34.625 
z
M 21.921875 38.8125 
Q 15.578125 40.375 12.03125 44.71875 
Q 8.5 49.078125 8.5 55.328125 
Q 8.5 64.0625 14.71875 69.140625 
Q 20.953125 74.21875 31.78125 74.21875 
Q 42.671875 74.21875 48.875 69.140625 
Q 55.078125 64.0625 55.078125 55.328125 
Q 55.078125 49.078125 51.53125 44.71875 
Q 48 40.375 41.703125 38.8125 
Q 48.828125 37.15625 52.796875 32.3125 
Q 56.78125 27.484375 56.78125 20.515625 
Q 56.78125 9.90625 50.3125 4.234375 
Q 43.84375 -1.421875 31.78125 -1.421875 
Q 19.734375 -1.421875 13.25 4.234375 
Q 6.78125 9.90625 6.78125 20.515625 
Q 6.78125 27.484375 10.78125 32.3125 
Q 14.796875 37.15625 21.921875 38.8125 
z
M 18.3125 54.390625 
Q 18.3125 48.734375 21.84375 45.5625 
Q 25.390625 42.390625 31.78125 42.390625 
Q 38.140625 42.390625 41.71875 45.5625 
Q 45.3125 48.734375 45.3125 54.390625 
Q 45.3125 60.0625 41.71875 63.234375 
Q 38.140625 66.40625 31.78125 66.40625 
Q 25.390625 66.40625 21.84375 63.234375 
Q 18.3125 60.0625 18.3125 54.390625 
z
" id="DejaVuSans-56"/>
      </defs>
      <g transform="translate(469.43934 399.078438)scale(0.1 -0.1)">
       <use xlink:href="#DejaVuSans-56"/>
       <use x="63.623047" xlink:href="#DejaVuSans-48"/>
       <use x="127.246094" xlink:href="#DejaVuSans-48"/>
      </g>
     </g>
    </g>
    <g id="xtick_6">
     <g id="line2d_6">
      <g>
       <use style="stroke:#000000;stroke-width:0.8;" x="564.119771" xlink:href="#m6bc62ee496" y="384.48"/>
      </g>
     </g>
     <g id="text_6">
      <!-- 1000 -->
      <defs>
       <path d="M 12.40625 8.296875 
L 28.515625 8.296875 
L 28.515625 63.921875 
L 10.984375 60.40625 
L 10.984375 69.390625 
L 28.421875 72.90625 
L 38.28125 72.90625 
L 38.28125 8.296875 
L 54.390625 8.296875 
L 54.390625 0 
L 12.40625 0 
z
" id="DejaVuSans-49"/>
      </defs>
      <g transform="translate(551.394771 399.078438)scale(0.1 -0.1)">
       <use xlink:href="#DejaVuSans-49"/>
       <use x="63.623047" xlink:href="#DejaVuSans-48"/>
       <use x="127.246094" xlink:href="#DejaVuSans-48"/>
       <use x="190.869141" xlink:href="#DejaVuSans-48"/>
      </g>
     </g>
    </g>
    <g id="xtick_7">
     <g id="line2d_7">
      <g>
       <use style="stroke:#000000;stroke-width:0.8;" x="649.256453" xlink:href="#m6bc62ee496" y="384.48"/>
      </g>
     </g>
     <g id="text_7">
      <!-- 1200 -->
      <g transform="translate(636.531453 399.078438)scale(0.1 -0.1)">
       <use xlink:href="#DejaVuSans-49"/>
       <use x="63.623047" xlink:href="#DejaVuSans-50"/>
       <use x="127.246094" xlink:href="#DejaVuSans-48"/>
       <use x="190.869141" xlink:href="#DejaVuSans-48"/>
      </g>
     </g>
    </g>
    <g id="xtick_8">
     <g id="line2d_8">
      <g>
       <use style="stroke:#000000;stroke-width:0.8;" x="734.393134" xlink:href="#m6bc62ee496" y="384.48"/>
      </g>
     </g>
     <g id="text_8">
      <!-- 1400 -->
      <g transform="translate(721.668134 399.078438)scale(0.1 -0.1)">
       <use xlink:href="#DejaVuSans-49"/>
       <use x="63.623047" xlink:href="#DejaVuSans-52"/>
       <use x="127.246094" xlink:href="#DejaVuSans-48"/>
       <use x="190.869141" xlink:href="#DejaVuSans-48"/>
      </g>
     </g>
    </g>
    <g id="text_9">
     <!-- Timestamp -->
     <defs>
      <path d="M -0.296875 72.90625 
L 61.375 72.90625 
L 61.375 64.59375 
L 35.5 64.59375 
L 35.5 0 
L 25.59375 0 
L 25.59375 64.59375 
L -0.296875 64.59375 
z
" id="DejaVuSans-84"/>
      <path d="M 9.421875 54.6875 
L 18.40625 54.6875 
L 18.40625 0 
L 9.421875 0 
z
M 9.421875 75.984375 
L 18.40625 75.984375 
L 18.40625 64.59375 
L 9.421875 64.59375 
z
" id="DejaVuSans-105"/>
      <path d="M 52 44.1875 
Q 55.375 50.25 60.0625 53.125 
Q 64.75 56 71.09375 56 
Q 79.640625 56 84.28125 50.015625 
Q 88.921875 44.046875 88.921875 33.015625 
L 88.921875 0 
L 79.890625 0 
L 79.890625 32.71875 
Q 79.890625 40.578125 77.09375 44.375 
Q 74.3125 48.1875 68.609375 48.1875 
Q 61.625 48.1875 57.5625 43.546875 
Q 53.515625 38.921875 53.515625 30.90625 
L 53.515625 0 
L 44.484375 0 
L 44.484375 32.71875 
Q 44.484375 40.625 41.703125 44.40625 
Q 38.921875 48.1875 33.109375 48.1875 
Q 26.21875 48.1875 22.15625 43.53125 
Q 18.109375 38.875 18.109375 30.90625 
L 18.109375 0 
L 9.078125 0 
L 9.078125 54.6875 
L 18.109375 54.6875 
L 18.109375 46.1875 
Q 21.1875 51.21875 25.484375 53.609375 
Q 29.78125 56 35.6875 56 
Q 41.65625 56 45.828125 52.96875 
Q 50 49.953125 52 44.1875 
z
" id="DejaVuSans-109"/>
      <path d="M 56.203125 29.59375 
L 56.203125 25.203125 
L 14.890625 25.203125 
Q 15.484375 15.921875 20.484375 11.0625 
Q 25.484375 6.203125 34.421875 6.203125 
Q 39.59375 6.203125 44.453125 7.46875 
Q 49.3125 8.734375 54.109375 11.28125 
L 54.109375 2.78125 
Q 49.265625 0.734375 44.1875 -0.34375 
Q 39.109375 -1.421875 33.890625 -1.421875 
Q 20.796875 -1.421875 13.15625 6.1875 
Q 5.515625 13.8125 5.515625 26.8125 
Q 5.515625 40.234375 12.765625 48.109375 
Q 20.015625 56 32.328125 56 
Q 43.359375 56 49.78125 48.890625 
Q 56.203125 41.796875 56.203125 29.59375 
z
M 47.21875 32.234375 
Q 47.125 39.59375 43.09375 43.984375 
Q 39.0625 48.390625 32.421875 48.390625 
Q 24.90625 48.390625 20.390625 44.140625 
Q 15.875 39.890625 15.1875 32.171875 
z
" id="DejaVuSans-101"/>
      <path d="M 44.28125 53.078125 
L 44.28125 44.578125 
Q 40.484375 46.53125 36.375 47.5 
Q 32.28125 48.484375 27.875 48.484375 
Q 21.1875 48.484375 17.84375 46.4375 
Q 14.5 44.390625 14.5 40.28125 
Q 14.5 37.15625 16.890625 35.375 
Q 19.28125 33.59375 26.515625 31.984375 
L 29.59375 31.296875 
Q 39.15625 29.25 43.1875 25.515625 
Q 47.21875 21.78125 47.21875 15.09375 
Q 47.21875 7.46875 41.1875 3.015625 
Q 35.15625 -1.421875 24.609375 -1.421875 
Q 20.21875 -1.421875 15.453125 -0.5625 
Q 10.6875 0.296875 5.421875 2 
L 5.421875 11.28125 
Q 10.40625 8.6875 15.234375 7.390625 
Q 20.0625 6.109375 24.8125 6.109375 
Q 31.15625 6.109375 34.5625 8.28125 
Q 37.984375 10.453125 37.984375 14.40625 
Q 37.984375 18.0625 35.515625 20.015625 
Q 33.0625 21.96875 24.703125 23.78125 
L 21.578125 24.515625 
Q 13.234375 26.265625 9.515625 29.90625 
Q 5.8125 33.546875 5.8125 39.890625 
Q 5.8125 47.609375 11.28125 51.796875 
Q 16.75 56 26.8125 56 
Q 31.78125 56 36.171875 55.265625 
Q 40.578125 54.546875 44.28125 53.078125 
z
" id="DejaVuSans-115"/>
      <path d="M 18.3125 70.21875 
L 18.3125 54.6875 
L 36.8125 54.6875 
L 36.8125 47.703125 
L 18.3125 47.703125 
L 18.3125 18.015625 
Q 18.3125 11.328125 20.140625 9.421875 
Q 21.96875 7.515625 27.59375 7.515625 
L 36.8125 7.515625 
L 36.8125 0 
L 27.59375 0 
Q 17.1875 0 13.234375 3.875 
Q 9.28125 7.765625 9.28125 18.015625 
L 9.28125 47.703125 
L 2.6875 47.703125 
L 2.6875 54.6875 
L 9.28125 54.6875 
L 9.28125 70.21875 
z
" id="DejaVuSans-116"/>
      <path d="M 34.28125 27.484375 
Q 23.390625 27.484375 19.1875 25 
Q 14.984375 22.515625 14.984375 16.5 
Q 14.984375 11.71875 18.140625 8.90625 
Q 21.296875 6.109375 26.703125 6.109375 
Q 34.1875 6.109375 38.703125 11.40625 
Q 43.21875 16.703125 43.21875 25.484375 
L 43.21875 27.484375 
z
M 52.203125 31.203125 
L 52.203125 0 
L 43.21875 0 
L 43.21875 8.296875 
Q 40.140625 3.328125 35.546875 0.953125 
Q 30.953125 -1.421875 24.3125 -1.421875 
Q 15.921875 -1.421875 10.953125 3.296875 
Q 6 8.015625 6 15.921875 
Q 6 25.140625 12.171875 29.828125 
Q 18.359375 34.515625 30.609375 34.515625 
L 43.21875 34.515625 
L 43.21875 35.40625 
Q 43.21875 41.609375 39.140625 45 
Q 35.0625 48.390625 27.6875 48.390625 
Q 23 48.390625 18.546875 47.265625 
Q 14.109375 46.140625 10.015625 43.890625 
L 10.015625 52.203125 
Q 14.9375 54.109375 19.578125 55.046875 
Q 24.21875 56 28.609375 56 
Q 40.484375 56 46.34375 49.84375 
Q 52.203125 43.703125 52.203125 31.203125 
z
" id="DejaVuSans-97"/>
      <path d="M 18.109375 8.203125 
L 18.109375 -20.796875 
L 9.078125 -20.796875 
L 9.078125 54.6875 
L 18.109375 54.6875 
L 18.109375 46.390625 
Q 20.953125 51.265625 25.265625 53.625 
Q 29.59375 56 35.59375 56 
Q 45.5625 56 51.78125 48.09375 
Q 58.015625 40.1875 58.015625 27.296875 
Q 58.015625 14.40625 51.78125 6.484375 
Q 45.5625 -1.421875 35.59375 -1.421875 
Q 29.59375 -1.421875 25.265625 0.953125 
Q 20.953125 3.328125 18.109375 8.203125 
z
M 48.6875 27.296875 
Q 48.6875 37.203125 44.609375 42.84375 
Q 40.53125 48.484375 33.40625 48.484375 
Q 26.265625 48.484375 22.1875 42.84375 
Q 18.109375 37.203125 18.109375 27.296875 
Q 18.109375 17.390625 22.1875 11.75 
Q 26.265625 6.109375 33.40625 6.109375 
Q 40.53125 6.109375 44.609375 11.75 
Q 48.6875 17.390625 48.6875 27.296875 
z
" id="DejaVuSans-112"/>
     </defs>
     <g transform="translate(414.739062 412.756563)scale(0.1 -0.1)">
      <use xlink:href="#DejaVuSans-84"/>
      <use x="61.037109" xlink:href="#DejaVuSans-105"/>
      <use x="88.820312" xlink:href="#DejaVuSans-109"/>
      <use x="186.232422" xlink:href="#DejaVuSans-101"/>
      <use x="247.755859" xlink:href="#DejaVuSans-115"/>
      <use x="299.855469" xlink:href="#DejaVuSans-116"/>
      <use x="339.064453" xlink:href="#DejaVuSans-97"/>
      <use x="400.34375" xlink:href="#DejaVuSans-109"/>
      <use x="497.755859" xlink:href="#DejaVuSans-112"/>
     </g>
    </g>
   </g>
   <g id="matplotlib.axis_2">
    <g id="ytick_1">
     <g id="line2d_9">
      <defs>
       <path d="M 0 0 
L -3.5 0 
" id="mb15ddc2ec0" style="stroke:#000000;stroke-width:0.8;"/>
      </defs>
      <g>
       <use style="stroke:#000000;stroke-width:0.8;" x="108" xlink:href="#mb15ddc2ec0" y="360.392198"/>
      </g>
     </g>
     <g id="text_10">
      <!-- 0 -->
      <g transform="translate(94.6375 364.191416)scale(0.1 -0.1)">
       <use xlink:href="#DejaVuSans-48"/>
      </g>
     </g>
    </g>
    <g id="ytick_2">
     <g id="line2d_10">
      <g>
       <use style="stroke:#000000;stroke-width:0.8;" x="108" xlink:href="#mb15ddc2ec0" y="288.862447"/>
      </g>
     </g>
     <g id="text_11">
      <!-- 5000 -->
      <defs>
       <path d="M 10.796875 72.90625 
L 49.515625 72.90625 
L 49.515625 64.59375 
L 19.828125 64.59375 
L 19.828125 46.734375 
Q 21.96875 47.46875 24.109375 47.828125 
Q 26.265625 48.1875 28.421875 48.1875 
Q 40.625 48.1875 47.75 41.5 
Q 54.890625 34.8125 54.890625 23.390625 
Q 54.890625 11.625 47.5625 5.09375 
Q 40.234375 -1.421875 26.90625 -1.421875 
Q 22.3125 -1.421875 17.546875 -0.640625 
Q 12.796875 0.140625 7.71875 1.703125 
L 7.71875 11.625 
Q 12.109375 9.234375 16.796875 8.0625 
Q 21.484375 6.890625 26.703125 6.890625 
Q 35.15625 6.890625 40.078125 11.328125 
Q 45.015625 15.765625 45.015625 23.390625 
Q 45.015625 31 40.078125 35.4375 
Q 35.15625 39.890625 26.703125 39.890625 
Q 22.75 39.890625 18.8125 39.015625 
Q 14.890625 38.140625 10.796875 36.28125 
z
" id="DejaVuSans-53"/>
      </defs>
      <g transform="translate(75.55 292.661666)scale(0.1 -0.1)">
       <use xlink:href="#DejaVuSans-53"/>
       <use x="63.623047" xlink:href="#DejaVuSans-48"/>
       <use x="127.246094" xlink:href="#DejaVuSans-48"/>
       <use x="190.869141" xlink:href="#DejaVuSans-48"/>
      </g>
     </g>
    </g>
    <g id="ytick_3">
     <g id="line2d_11">
      <g>
       <use style="stroke:#000000;stroke-width:0.8;" x="108" xlink:href="#mb15ddc2ec0" y="217.332697"/>
      </g>
     </g>
     <g id="text_12">
      <!-- 10000 -->
      <g transform="translate(69.1875 221.131916)scale(0.1 -0.1)">
       <use xlink:href="#DejaVuSans-49"/>
       <use x="63.623047" xlink:href="#DejaVuSans-48"/>
       <use x="127.246094" xlink:href="#DejaVuSans-48"/>
       <use x="190.869141" xlink:href="#DejaVuSans-48"/>
       <use x="254.492188" xlink:href="#DejaVuSans-48"/>
      </g>
     </g>
    </g>
    <g id="ytick_4">
     <g id="line2d_12">
      <g>
       <use style="stroke:#000000;stroke-width:0.8;" x="108" xlink:href="#mb15ddc2ec0" y="145.802947"/>
      </g>
     </g>
     <g id="text_13">
      <!-- 15000 -->
      <g transform="translate(69.1875 149.602166)scale(0.1 -0.1)">
       <use xlink:href="#DejaVuSans-49"/>
       <use x="63.623047" xlink:href="#DejaVuSans-53"/>
       <use x="127.246094" xlink:href="#DejaVuSans-48"/>
       <use x="190.869141" xlink:href="#DejaVuSans-48"/>
       <use x="254.492188" xlink:href="#DejaVuSans-48"/>
      </g>
     </g>
    </g>
    <g id="ytick_5">
     <g id="line2d_13">
      <g>
       <use style="stroke:#000000;stroke-width:0.8;" x="108" xlink:href="#mb15ddc2ec0" y="74.273197"/>
      </g>
     </g>
     <g id="text_14">
      <!-- 20000 -->
      <g transform="translate(69.1875 78.072416)scale(0.1 -0.1)">
       <use xlink:href="#DejaVuSans-50"/>
       <use x="63.623047" xlink:href="#DejaVuSans-48"/>
       <use x="127.246094" xlink:href="#DejaVuSans-48"/>
       <use x="190.869141" xlink:href="#DejaVuSans-48"/>
       <use x="254.492188" xlink:href="#DejaVuSans-48"/>
      </g>
     </g>
    </g>
    <g id="text_15">
     <!-- Value -->
     <defs>
      <path d="M 28.609375 0 
L 0.78125 72.90625 
L 11.078125 72.90625 
L 34.1875 11.53125 
L 57.328125 72.90625 
L 67.578125 72.90625 
L 39.796875 0 
z
" id="DejaVuSans-86"/>
      <path d="M 9.421875 75.984375 
L 18.40625 75.984375 
L 18.40625 0 
L 9.421875 0 
z
" id="DejaVuSans-108"/>
      <path d="M 8.5 21.578125 
L 8.5 54.6875 
L 17.484375 54.6875 
L 17.484375 21.921875 
Q 17.484375 14.15625 20.5 10.265625 
Q 23.53125 6.390625 29.59375 6.390625 
Q 36.859375 6.390625 41.078125 11.03125 
Q 45.3125 15.671875 45.3125 23.6875 
L 45.3125 54.6875 
L 54.296875 54.6875 
L 54.296875 0 
L 45.3125 0 
L 45.3125 8.40625 
Q 42.046875 3.421875 37.71875 1 
Q 33.40625 -1.421875 27.6875 -1.421875 
Q 18.265625 -1.421875 13.375 4.4375 
Q 8.5 10.296875 8.5 21.578125 
z
M 31.109375 56 
z
" id="DejaVuSans-117"/>
     </defs>
     <g transform="translate(63.107813 232.273281)rotate(-90)scale(0.1 -0.1)">
      <use xlink:href="#DejaVuSans-86"/>
      <use x="68.298828" xlink:href="#DejaVuSans-97"/>
      <use x="129.578125" xlink:href="#DejaVuSans-108"/>
      <use x="157.361328" xlink:href="#DejaVuSans-117"/>
      <use x="220.740234" xlink:href="#DejaVuSans-101"/>
     </g>
    </g>
   </g>
   <g id="line2d_14">
    <path clip-path="url(#p67838bcc18)" d="M 138.436364 359.869125 
L 138.862047 359.007236 
L 139.28773 357.174667 
L 140.139097 354.809257 
L 140.564781 354.099567 
L 142.267514 347.977074 
L 143.118881 346.674997 
L 143.544565 345.711201 
L 144.395931 343.463177 
L 146.098665 339.913135 
L 146.524348 339.735001 
L 147.375715 338.084191 
L 147.801399 337.675815 
L 148.227082 337.06168 
L 148.652765 336.977904 
L 149.504132 336.162271 
L 149.929816 336.566949 
L 150.355499 336.687581 
L 150.781182 336.300979 
L 152.058233 336.904867 
L 152.483916 337.259366 
L 152.909599 337.201264 
L 153.335283 337.492897 
L 153.760966 338.022255 
L 154.18665 338.990501 
L 154.612333 339.087918 
L 155.038017 340.197014 
L 155.4637 340.28997 
L 157.166434 344.443874 
L 158.0178 346.425488 
L 158.443484 346.582443 
L 160.146217 351.133109 
L 160.571901 351.336499 
L 160.997584 353.361422 
L 162.274634 356.066904 
L 162.700318 357.324619 
L 163.126001 358.942399 
L 163.551685 359.632753 
L 163.977368 360.097527 
L 164.828735 362.296652 
L 165.254418 362.897971 
L 165.680102 363.915518 
L 166.105785 364.360404 
L 166.531469 365.575592 
L 166.957152 365.700494 
L 168.234202 367.458037 
L 168.659886 367.817484 
L 169.085569 368.457118 
L 169.511252 368.599806 
L 170.362619 368.634419 
L 170.788303 369.018837 
L 172.065353 369.36 
L 172.491036 368.980272 
L 172.91672 368.105455 
L 173.768086 367.819007 
L 174.619453 366.872821 
L 175.045137 365.843568 
L 175.47082 365.556982 
L 175.896503 364.364615 
L 176.322187 363.754379 
L 176.74787 362.706207 
L 177.173554 362.450523 
L 177.599237 361.223729 
L 178.024921 360.478321 
L 178.450604 358.974464 
L 179.301971 356.988829 
L 179.727654 355.284193 
L 180.153338 354.436801 
L 181.004704 351.753442 
L 181.430388 350.928382 
L 183.558805 344.432007 
L 183.984488 342.222746 
L 184.410172 341.533056 
L 184.835855 339.561951 
L 185.261538 338.889744 
L 185.687222 337.777837 
L 186.538589 334.99426 
L 186.964272 334.311968 
L 187.389955 332.331215 
L 187.815639 331.864261 
L 188.241322 330.350204 
L 189.092689 328.397992 
L 189.944056 326.578284 
L 190.369739 326.143376 
L 191.221106 324.709244 
L 191.64679 323.271767 
L 192.072473 322.734466 
L 192.498156 322.611173 
L 192.92384 322.635001 
L 193.775207 321.169992 
L 194.20089 321.553306 
L 194.626573 321.028354 
L 195.052257 321.489766 
L 195.47794 320.990281 
L 195.903624 321.555414 
L 197.606357 322.512681 
L 198.032041 322.424044 
L 201.437508 327.802566 
L 201.863191 329.172443 
L 202.288875 329.285367 
L 202.714558 331.062338 
L 203.140242 331.666781 
L 203.565925 331.919458 
L 204.842975 335.97639 
L 205.268659 336.590342 
L 206.120025 338.981813 
L 206.545709 339.819927 
L 206.971392 341.099052 
L 207.397076 341.176583 
L 208.248442 343.729735 
L 208.674126 344.707072 
L 209.099809 346.011972 
L 209.525493 346.476601 
L 210.37686 348.717467 
L 210.802543 348.619954 
L 211.228226 350.188235 
L 211.65391 350.67023 
L 212.505277 352.048084 
L 212.93096 352.087388 
L 213.356643 353.167639 
L 213.782327 353.151129 
L 214.633694 354.068269 
L 215.059377 353.850921 
L 215.48506 354.069012 
L 215.910744 354.15704 
L 216.336427 353.653029 
L 217.187794 353.698238 
L 217.613477 353.378633 
L 218.039161 353.330766 
L 218.464844 352.783004 
L 218.890528 351.935163 
L 219.316211 351.746711 
L 219.741894 351.101455 
L 220.167578 349.884736 
L 220.593261 349.983811 
L 221.444628 347.610951 
L 221.870312 347.570401 
L 222.295995 346.293173 
L 223.573045 343.46128 
L 223.998729 342.278475 
L 224.424412 340.452052 
L 224.850095 339.444927 
L 225.701462 336.647876 
L 226.127146 335.935937 
L 226.552829 334.27282 
L 227.404196 332.014051 
L 227.829879 330.246974 
L 228.681246 328.168549 
L 229.958296 323.543247 
L 230.38398 323.049189 
L 231.235346 319.863035 
L 231.66103 319.404138 
L 232.086713 317.326633 
L 232.512397 316.785089 
L 232.93808 315.453519 
L 233.363764 314.556152 
L 233.789447 313.033931 
L 234.21513 313.012261 
L 234.640814 311.728721 
L 235.066497 311.181969 
L 235.917864 308.718552 
L 236.343547 309.203028 
L 236.769231 308.192184 
L 237.194914 307.710891 
L 237.620598 306.765201 
L 238.046281 307.154732 
L 238.897648 305.82497 
L 239.323331 306.257549 
L 239.749015 306.307167 
L 240.600381 305.989408 
L 241.026065 306.572382 
L 241.451748 305.979715 
L 241.877432 306.727917 
L 242.303115 307.933494 
L 242.728798 307.789285 
L 243.154482 307.450387 
L 243.580165 308.728054 
L 244.005849 309.042619 
L 244.431532 309.632535 
L 244.857216 310.811181 
L 245.282899 310.920085 
L 245.708582 311.723839 
L 246.134266 312.113959 
L 247.411316 315.406778 
L 247.836999 316.164419 
L 248.262683 317.602528 
L 248.688366 318.314552 
L 249.539733 320.247556 
L 249.965416 321.80168 
L 250.3911 322.073669 
L 250.816783 323.354002 
L 251.242467 323.859253 
L 251.66815 326.219108 
L 252.093833 326.854445 
L 252.519517 328.201222 
L 253.796567 330.058231 
L 254.22225 331.603286 
L 254.647934 332.693807 
L 255.499301 333.750018 
L 255.924984 334.614452 
L 256.350668 334.955339 
L 257.202034 337.049082 
L 257.627718 336.782924 
L 258.053401 337.857258 
L 258.479085 337.728643 
L 259.330451 338.389121 
L 259.756135 338.174075 
L 260.181818 338.876622 
L 260.607502 339.262129 
L 261.033185 338.830069 
L 261.458868 338.829414 
L 262.310235 337.875558 
L 262.735919 338.606629 
L 263.161602 337.753847 
L 264.012969 336.568966 
L 264.438652 336.364132 
L 265.290019 334.686156 
L 266.141386 333.236597 
L 266.567069 331.870723 
L 266.992753 331.166478 
L 267.418436 329.787025 
L 267.84412 329.412752 
L 268.269803 328.61747 
L 269.546853 324.811632 
L 271.249587 319.981084 
L 272.526637 315.200889 
L 272.95232 314.422584 
L 273.378004 312.700719 
L 274.229371 310.787555 
L 274.655054 308.895096 
L 275.506421 306.723077 
L 275.932104 305.461269 
L 276.783471 302.380749 
L 277.634838 300.707074 
L 278.060521 299.970397 
L 278.911888 297.294391 
L 280.188938 295.053333 
L 280.614622 294.657557 
L 281.040305 293.618533 
L 282.317355 292.255127 
L 282.743039 292.160791 
L 283.594406 291.03146 
L 284.020089 291.081121 
L 284.445772 290.991068 
L 284.871456 291.02537 
L 285.297139 290.593408 
L 285.722823 291.123597 
L 286.148506 291.238517 
L 286.574189 291.520875 
L 286.999873 292.174088 
L 287.85124 292.329298 
L 288.276923 293.08651 
L 288.702606 294.227302 
L 289.12829 294.390954 
L 289.553973 294.922541 
L 289.979657 295.840341 
L 290.40534 296.357172 
L 291.256707 298.586107 
L 291.68239 298.947586 
L 292.533757 300.892741 
L 292.959441 301.728424 
L 293.810807 304.561756 
L 294.236491 305.073446 
L 294.662174 306.648495 
L 295.513541 307.974012 
L 295.939224 309.826105 
L 296.364908 310.318007 
L 297.216275 312.481457 
L 297.641958 313.089641 
L 298.067641 314.213399 
L 298.493325 314.900569 
L 298.919008 316.536636 
L 301.473109 321.051193 
L 301.898792 321.160717 
L 302.324476 321.703266 
L 302.750159 322.058312 
L 303.175842 321.93698 
L 303.601526 323.129189 
L 304.027209 323.141478 
L 304.452893 322.570501 
L 304.878576 323.518994 
L 305.729943 324.040198 
L 306.155626 323.836059 
L 306.58131 324.031557 
L 307.006993 323.777588 
L 307.85836 322.558353 
L 308.709727 321.841404 
L 309.13541 321.703802 
L 309.561093 320.326219 
L 309.986777 319.688873 
L 310.41246 318.581665 
L 310.838144 318.805253 
L 311.68951 315.9118 
L 312.115194 315.417864 
L 312.540877 314.002896 
L 313.392244 312.174648 
L 313.817928 310.778803 
L 314.243611 310.396642 
L 315.520661 305.683613 
L 316.372028 303.409133 
L 316.797711 301.795523 
L 317.649078 299.793939 
L 318.500445 296.839169 
L 320.203179 290.975655 
L 320.628862 290.891023 
L 321.054545 288.962146 
L 321.480229 288.174937 
L 321.905912 287.004538 
L 322.331596 286.259966 
L 323.182962 283.548208 
L 323.608646 283.119437 
L 324.034329 281.203965 
L 324.460013 281.166728 
L 324.885696 280.834299 
L 325.737063 278.051383 
L 327.439797 276.62981 
L 327.86548 276.575813 
L 328.716847 276.676694 
L 329.14253 276.252395 
L 329.568214 276.394631 
L 329.993897 276.187547 
L 330.41958 275.77393 
L 330.845264 276.430053 
L 331.270947 276.866272 
L 331.696631 277.00294 
L 332.122314 277.599155 
L 332.547997 277.277154 
L 332.973681 278.466883 
L 333.399364 278.615666 
L 334.250731 279.490773 
L 334.676414 280.000714 
L 335.102098 281.864459 
L 335.527781 281.868594 
L 335.953465 283.16561 
L 336.379148 283.942522 
L 336.804832 284.377396 
L 337.230515 285.948918 
L 337.656198 286.543089 
L 338.507565 288.918796 
L 338.933249 289.383228 
L 339.358932 290.919882 
L 340.210299 292.746774 
L 340.635982 293.730691 
L 341.061666 295.325589 
L 341.487349 295.734853 
L 341.913032 297.286127 
L 342.338716 298.357442 
L 342.764399 299.764376 
L 343.190083 300.051759 
L 343.615766 300.825845 
L 344.041449 302.011273 
L 344.467133 302.26422 
L 345.3185 304.153844 
L 345.744183 304.342037 
L 346.169866 305.985683 
L 346.59555 306.042815 
L 347.021233 306.41135 
L 347.446917 307.441294 
L 348.298284 307.924269 
L 348.723967 308.325799 
L 349.14965 308.388348 
L 350.001017 308.886144 
L 350.426701 308.415737 
L 350.852384 308.754727 
L 351.278067 308.635319 
L 352.129434 307.455009 
L 352.555118 308.145679 
L 352.980801 307.139326 
L 353.832168 306.148691 
L 354.257851 304.767396 
L 355.109218 304.263385 
L 355.534901 303.481855 
L 355.960585 302.152534 
L 356.811952 300.313108 
L 357.237635 299.685685 
L 357.663318 298.270183 
L 358.089002 297.339937 
L 358.514685 295.605897 
L 358.940369 295.226986 
L 359.366052 293.736261 
L 359.791736 292.801213 
L 361.494469 287.425065 
L 361.920153 285.474097 
L 362.345836 284.573916 
L 362.771519 282.86488 
L 363.197203 282.221265 
L 363.622886 280.674531 
L 364.04857 279.70982 
L 364.474253 277.559683 
L 364.899936 277.013233 
L 365.32562 275.026709 
L 365.751303 274.54789 
L 366.176987 273.092137 
L 366.60267 272.778006 
L 367.028353 270.879346 
L 367.454037 269.735579 
L 367.87972 269.298554 
L 368.305404 267.840776 
L 368.731087 266.94398 
L 369.156771 266.534015 
L 369.582454 264.911448 
L 370.008137 264.806702 
L 370.859504 262.985553 
L 371.285188 262.768314 
L 371.710871 261.910214 
L 372.136554 261.687659 
L 372.562238 260.941985 
L 372.987921 261.321692 
L 373.413605 261.276056 
L 373.839288 260.695779 
L 374.690655 260.858445 
L 375.116338 260.709601 
L 375.542022 260.871827 
L 375.967705 261.239119 
L 376.393388 261.348548 
L 377.244755 262.073001 
L 378.096122 262.966063 
L 378.947489 264.746716 
L 379.373172 265.691913 
L 379.798856 266.151905 
L 380.224539 267.161631 
L 380.650223 267.6043 
L 381.927273 270.771439 
L 382.352956 271.435709 
L 383.630006 274.928195 
L 384.05569 275.217592 
L 384.481373 276.802253 
L 387.461157 284.104187 
L 387.88684 284.510859 
L 388.738207 286.962973 
L 389.163891 287.133195 
L 389.589574 288.702352 
L 390.015257 289.05927 
L 390.866624 290.590257 
L 391.292308 290.826595 
L 391.717991 291.912912 
L 392.143675 291.492338 
L 392.569358 292.264748 
L 392.995041 292.227001 
L 393.420725 292.841098 
L 393.846408 293.771459 
L 394.272092 293.231094 
L 394.697775 293.382499 
L 395.549142 293.165809 
L 395.974825 293.229916 
L 396.400509 292.985264 
L 396.826192 293.085534 
L 397.251875 292.100519 
L 397.677559 292.701546 
L 398.103242 292.262509 
L 398.528926 291.543469 
L 398.954609 290.273374 
L 399.380292 290.205753 
L 400.231659 288.313584 
L 400.657343 287.627449 
L 401.083026 287.195945 
L 401.508709 285.253082 
L 401.934393 284.610746 
L 402.78576 282.415213 
L 403.211443 281.427911 
L 403.637127 115.002896 
L 404.488493 115.002896 
L 404.914177 276.691789 
L 405.33986 274.65836 
L 405.765544 274.009325 
L 406.191227 272.407239 
L 406.61691 271.506604 
L 407.042594 269.531852 
L 410.873744 257.730473 
L 411.299428 256.941088 
L 411.725111 255.702433 
L 412.150795 255.016591 
L 412.576478 253.657474 
L 413.002161 252.912657 
L 413.427845 251.511878 
L 413.853528 251.04048 
L 414.704895 249.465762 
L 415.130579 249.388029 
L 415.556262 248.45173 
L 415.981945 247.006415 
L 416.833312 246.674857 
L 418.110362 245.716484 
L 418.536046 82.262364 
L 419.387413 82.262364 
L 419.813096 246.10462 
L 420.664463 245.934897 
L 421.090146 246.804576 
L 421.51583 246.41173 
L 421.941513 246.776297 
L 422.367196 247.608026 
L 422.79288 248.058858 
L 423.218563 248.328608 
L 423.644247 249.554333 
L 425.34698 252.672326 
L 425.772664 253.22315 
L 426.198347 254.530113 
L 427.049714 256.115112 
L 427.475397 257.543891 
L 427.901081 257.745453 
L 428.326764 258.8096 
L 428.752448 260.78697 
L 429.178131 261.439601 
L 430.029498 263.347045 
L 430.455181 264.795911 
L 431.732231 267.207375 
L 433.009282 270.561649 
L 433.434965 271.391544 
L 433.860648 271.762898 
L 434.712015 273.896916 
L 435.137699 273.920673 
L 435.563382 275.256194 
L 435.989065 275.355989 
L 436.840432 276.63921 
L 437.266116 277.284466 
L 437.691799 277.29933 
L 438.117483 278.368105 
L 438.968849 278.36451 
L 439.820216 278.399494 
L 440.2459 278.479901 
L 440.671583 278.373697 
L 441.097266 277.9652 
L 441.948633 278.191973 
L 442.374317 277.14085 
L 443.225683 275.856568 
L 443.651367 275.64217 
L 444.07705 274.911047 
L 444.502734 273.713262 
L 444.928417 273.574203 
L 445.779784 271.487129 
L 446.205467 270.870608 
L 446.631151 269.809079 
L 447.056834 268.444312 
L 447.482517 267.732458 
L 447.908201 266.237346 
L 448.333884 265.555706 
L 448.759568 264.589665 
L 449.185251 262.554548 
L 450.036618 260.311441 
L 450.462301 259.028287 
L 450.887985 257.250225 
L 451.313668 256.541447 
L 451.739352 254.5885 
L 452.165035 253.849237 
L 453.442085 249.380448 
L 453.867769 248.784158 
L 454.719135 245.750909 
L 455.570502 242.942224 
L 455.996186 242.410885 
L 456.847552 239.775016 
L 457.273236 238.518092 
L 457.698919 237.913653 
L 458.124603 236.607928 
L 458.975969 235.3397 
L 459.401653 234.335274 
L 460.678703 232.282809 
L 461.104387 232.168636 
L 462.381437 230.671186 
L 462.80712 230.185806 
L 463.232804 230.331706 
L 463.658487 230.230647 
L 464.08417 230.003544 
L 464.509854 230.769752 
L 464.935537 231.172748 
L 465.361221 231.266627 
L 465.786904 231.126373 
L 466.212587 231.531819 
L 466.638271 232.755359 
L 467.063954 232.046553 
L 467.489638 232.992338 
L 468.341004 234.023167 
L 468.766688 235.228638 
L 469.192371 235.787235 
L 469.618055 236.050574 
L 470.043738 236.598029 
L 470.469421 237.853453 
L 470.895105 238.743699 
L 471.320788 240.416612 
L 471.746472 240.553667 
L 472.172155 241.523563 
L 472.597839 242.979221 
L 473.874889 245.342933 
L 474.300572 247.375284 
L 474.726256 247.784359 
L 475.577622 249.90387 
L 476.428989 252.256585 
L 477.280356 253.896529 
L 477.706039 255.41238 
L 479.408773 258.944939 
L 479.834456 258.757959 
L 480.26014 260.127091 
L 480.685823 260.627503 
L 481.111507 261.385905 
L 481.53719 261.40139 
L 481.962873 261.846299 
L 482.388557 262.034348 
L 482.81424 262.851577 
L 483.239924 262.594742 
L 484.091291 263.662364 
L 484.516974 262.973404 
L 484.942657 262.8412 
L 486.219708 263.201509 
L 486.645391 262.477751 
L 487.071074 262.514324 
L 487.496758 262.206447 
L 487.922441 260.932895 
L 488.348125 260.649989 
L 489.199491 259.389917 
L 489.625175 258.025988 
L 490.050858 258.062459 
L 491.327908 254.662861 
L 491.753592 253.888667 
L 493.456325 249.069641 
L 493.882009 248.059854 
L 494.307692 246.242341 
L 494.733376 245.693785 
L 495.584743 242.31464 
L 496.010426 241.703141 
L 496.861793 238.389616 
L 498.138843 234.109779 
L 498.99021 232.348464 
L 499.415893 231.05795 
L 499.841577 229.385484 
L 500.26726 228.861616 
L 500.692943 227.068356 
L 501.118627 226.43364 
L 502.395677 223.133222 
L 503.247044 221.321176 
L 503.672727 219.863468 
L 504.098411 219.927864 
L 504.524094 218.7718 
L 504.949777 218.297295 
L 505.375461 216.685482 
L 505.801144 217.108124 
L 506.226828 216.068106 
L 506.652511 215.978849 
L 507.078195 216.403031 
L 507.503878 215.542712 
L 507.929561 215.324909 
L 508.355245 215.434374 
L 508.780928 216.00757 
L 509.206612 214.796654 
L 509.632295 215.647751 
L 510.057978 216.201639 
L 510.483662 215.662944 
L 510.909345 216.436091 
L 511.335029 216.676868 
L 512.186395 218.253096 
L 512.612079 218.336582 
L 513.037762 218.68781 
L 513.889129 220.316238 
L 514.740496 221.804399 
L 516.868913 226.999101 
L 517.72028 228.82262 
L 518.145963 229.755462 
L 518.571647 66.96 
L 519.423013 66.96 
L 519.848697 233.725801 
L 521.977114 238.983348 
L 522.828481 240.72332 
L 523.254164 241.038104 
L 523.679847 242.510973 
L 524.531214 244.423669 
L 524.956898 244.920057 
L 525.382581 244.474675 
L 525.808264 245.743066 
L 526.233948 246.08262 
L 526.659631 246.754121 
L 527.510998 247.598207 
L 527.936682 247.648311 
L 528.362365 247.581237 
L 529.213732 248.272754 
L 529.639415 248.163866 
L 530.065099 248.549664 
L 530.490782 247.619321 
L 530.916465 247.192146 
L 531.342149 247.895607 
L 531.767832 247.08111 
L 532.193516 246.90436 
L 532.619199 246.495204 
L 533.044882 245.242451 
L 533.470566 244.575182 
L 533.896249 243.613863 
L 534.321933 243.309303 
L 534.747616 243.183075 
L 535.173299 241.606907 
L 535.598983 241.025826 
L 538.578767 232.929373 
L 539.00445 231.4613 
L 539.430134 230.559487 
L 540.707184 226.715859 
L 541.132867 225.238526 
L 541.558551 224.163781 
L 541.984234 222.267511 
L 542.409917 221.760319 
L 542.835601 219.866039 
L 543.261284 218.945173 
L 543.686968 216.855385 
L 544.112651 216.10635 
L 544.538334 214.372164 
L 544.964018 213.626004 
L 545.389701 212.386686 
L 545.815385 211.490047 
L 546.241068 211.011427 
L 546.666751 208.537615 
L 547.092435 208.450871 
L 547.518118 206.302101 
L 547.943802 206.074705 
L 548.369485 205.498878 
L 548.795168 204.334625 
L 549.220852 203.557065 
L 549.646535 203.230652 
L 550.072219 202.527208 
L 550.497902 201.487238 
L 550.923586 202.004473 
L 551.774952 200.635335 
L 552.200636 201.050675 
L 552.626319 200.986879 
L 553.052003 199.936963 
L 553.477686 200.53453 
L 553.903369 200.658499 
L 554.329053 200.464902 
L 555.18042 201.043344 
L 555.606103 201.613684 
L 556.031786 201.836789 
L 556.45747 201.749629 
L 556.883153 202.355777 
L 557.308837 203.257978 
L 557.73452 202.957685 
L 558.160203 203.909222 
L 558.585887 205.297746 
L 559.01157 205.874488 
L 559.437254 207.631298 
L 559.862937 207.226464 
L 561.565671 211.245747 
L 561.991354 211.970539 
L 562.417038 213.590133 
L 562.842721 214.01473 
L 563.268404 215.154071 
L 563.694088 216.643644 
L 564.119771 217.570978 
L 564.545455 217.980957 
L 565.396821 221.023669 
L 565.822505 222.063074 
L 566.248188 222.635819 
L 567.525238 225.517694 
L 567.950922 226.906611 
L 568.802289 227.663327 
L 569.227972 229.385415 
L 569.653655 229.201501 
L 570.079339 230.473738 
L 570.505022 230.687118 
L 570.930706 231.575365 
L 571.356389 231.379521 
L 571.782072 232.214128 
L 572.207756 232.254998 
L 572.633439 232.901827 
L 573.484806 233.470391 
L 573.91049 233.43763 
L 574.336173 233.199824 
L 574.761856 232.608717 
L 575.613223 232.865982 
L 576.038907 232.319842 
L 576.46459 232.339582 
L 576.890273 231.800874 
L 577.315957 231.076801 
L 577.74164 229.75829 
L 578.167324 229.869958 
L 578.593007 229.218527 
L 579.01869 229.187583 
L 579.444374 227.329415 
L 579.870057 226.436489 
L 580.295741 226.372651 
L 580.721424 224.906646 
L 581.147107 224.128628 
L 581.572791 222.766171 
L 581.998474 221.834041 
L 582.424158 220.217476 
L 583.275524 218.079408 
L 583.701208 216.733845 
L 584.126891 216.117163 
L 584.552575 214.624295 
L 584.978258 212.544911 
L 585.403942 211.570147 
L 585.829625 210.169132 
L 586.255308 209.374129 
L 586.680992 206.960304 
L 587.106675 206.440931 
L 587.532359 204.807646 
L 587.958042 203.720927 
L 588.383725 202.070929 
L 588.809409 201.349562 
L 589.235092 199.533572 
L 589.660776 198.310616 
L 590.086459 197.66577 
L 590.512142 196.779689 
L 590.937826 195.05518 
L 591.363509 194.819259 
L 591.789193 192.88003 
L 592.640559 190.988308 
L 593.066243 190.473744 
L 593.491926 189.027531 
L 593.91761 188.885486 
L 594.343293 188.461531 
L 594.768976 187.680253 
L 595.19466 187.403356 
L 595.620343 186.936215 
L 596.046027 186.08852 
L 596.47171 185.803849 
L 596.897394 185.718471 
L 597.323077 185.432358 
L 597.74876 185.294805 
L 598.174444 185.292999 
L 598.600127 184.693302 
L 599.025811 185.497264 
L 599.451494 185.275797 
L 600.302861 186.333516 
L 600.728544 186.661714 
L 601.154228 186.761103 
L 601.579911 187.470392 
L 602.005594 187.800875 
L 602.856961 188.895244 
L 603.282645 190.136474 
L 603.708328 190.179777 
L 604.134011 191.970633 
L 604.559695 192.820871 
L 604.985378 192.787544 
L 605.411062 193.676216 
L 605.836745 195.347956 
L 606.262428 195.828945 
L 606.688112 197.37904 
L 607.113795 197.51994 
L 607.965162 200.120846 
L 608.816529 202.554881 
L 609.242212 202.977019 
L 609.667896 204.274567 
L 610.093579 205.158838 
L 610.519263 206.568792 
L 611.370629 208.226737 
L 611.796313 209.772695 
L 613.073363 211.718272 
L 613.499046 212.974783 
L 613.92473 213.772787 
L 614.350413 214.027184 
L 614.776097 215.036122 
L 615.20178 215.10404 
L 615.627463 216.460186 
L 616.053147 216.548784 
L 616.47883 217.098086 
L 616.904514 217.370554 
L 617.330197 217.290118 
L 617.75588 217.51872 
L 618.607247 218.536175 
L 619.032931 218.219709 
L 619.458614 217.532394 
L 619.884298 217.812799 
L 620.309981 217.873786 
L 621.161348 216.752575 
L 621.587031 216.034618 
L 622.438398 215.86103 
L 622.864081 214.265788 
L 623.289765 214.244969 
L 623.715448 213.103149 
L 624.141132 212.336809 
L 624.566815 212.479538 
L 624.992498 210.457851 
L 625.418182 210.014213 
L 625.843865 209.213131 
L 626.695232 206.759479 
L 627.546599 204.48975 
L 627.972282 202.773172 
L 629.249332 199.578323 
L 629.675016 197.716364 
L 631.37775 192.823583 
L 633.080483 187.409003 
L 633.506167 186.704401 
L 634.357533 183.391826 
L 634.783217 182.927331 
L 635.2089 181.94834 
L 635.634584 180.028955 
L 636.060267 179.312744 
L 636.48595 178.019115 
L 636.911634 177.271671 
L 637.337317 175.756639 
L 639.465734 172.2196 
L 639.891418 172.28686 
L 640.317101 171.045739 
L 640.742784 171.534721 
L 641.168468 171.409644 
L 641.594151 170.545371 
L 642.019835 170.096176 
L 642.871202 169.917602 
L 643.296885 170.072585 
L 643.722568 170.366097 
L 644.148252 170.292831 
L 644.573935 170.01305 
L 644.999619 170.925789 
L 645.425302 171.046977 
L 645.850985 171.464947 
L 646.276669 171.724313 
L 646.702352 172.959662 
L 647.553719 173.79231 
L 647.979402 174.708694 
L 648.405086 175.27965 
L 649.256453 177.261329 
L 649.682136 178.338948 
L 650.107819 178.519318 
L 650.533503 179.679464 
L 650.959186 180.456763 
L 651.38487 182.375079 
L 651.810553 182.3789 
L 652.66192 184.909769 
L 653.087603 185.66142 
L 654.790337 189.956761 
L 656.493071 194.123005 
L 656.918754 194.490992 
L 657.344437 195.741765 
L 657.770121 196.19042 
L 658.195804 197.538665 
L 658.621488 198.258779 
L 659.047171 198.660557 
L 659.472854 199.238071 
L 659.898538 200.530425 
L 660.324221 200.491481 
L 660.749905 200.908646 
L 661.175588 201.804344 
L 661.601271 201.829957 
L 662.026955 202.541545 
L 662.452638 202.742645 
L 662.878322 202.805449 
L 663.304005 203.061338 
L 663.729688 202.437611 
L 664.155372 202.852199 
L 664.581055 202.853472 
L 665.006739 203.033407 
L 665.432422 202.265466 
L 665.858106 202.192157 
L 666.709472 201.202291 
L 667.135156 201.065143 
L 667.560839 199.821175 
L 667.986523 199.231121 
L 668.412206 198.441467 
L 669.263573 197.483752 
L 669.689256 195.43257 
L 670.11494 194.633153 
L 670.540623 194.184017 
L 670.966306 193.421716 
L 671.817673 190.755088 
L 672.243357 190.184615 
L 673.520407 185.323031 
L 673.94609 184.870821 
L 674.371774 182.502957 
L 675.648824 179.342941 
L 676.925874 174.793731 
L 677.777241 172.842922 
L 678.202924 170.995434 
L 678.628608 169.755435 
L 679.054291 169.019418 
L 679.479975 167.962265 
L 680.331341 165.256706 
L 681.608392 162.523296 
L 682.034075 161.091433 
L 682.885442 159.543807 
L 683.311125 159.084984 
L 683.736809 158.240105 
L 684.162492 157.900174 
L 684.588175 156.727682 
L 685.013859 157.038395 
L 685.439542 156.145915 
L 685.865226 155.786498 
L 686.290909 155.61848 
L 686.716592 154.469476 
L 687.142276 154.39944 
L 687.567959 155.146007 
L 687.993643 154.854921 
L 689.270693 155.254593 
L 690.12206 156.668383 
L 690.547743 156.557472 
L 690.973427 156.689142 
L 691.39911 157.593233 
L 691.824793 157.907029 
L 692.250477 158.881645 
L 692.67616 159.273829 
L 693.101844 159.939326 
L 693.95321 162.017415 
L 694.378894 162.226375 
L 695.230261 164.81105 
L 696.081627 166.358857 
L 696.932994 168.98086 
L 698.635728 172.181423 
L 699.061411 173.876448 
L 699.912778 175.942728 
L 700.338462 176.446033 
L 700.764145 177.986041 
L 701.189828 178.723165 
L 701.615512 178.985984 
L 702.041195 180.891794 
L 702.892562 182.318753 
L 703.318245 183.438165 
L 703.743929 183.620539 
L 704.169612 184.979229 
L 704.595296 185.094078 
L 705.020979 185.803594 
L 705.446662 186.261907 
L 705.872346 186.15224 
L 706.298029 186.663247 
L 706.723713 186.658554 
L 708.000763 187.922612 
L 708.426446 187.706879 
L 708.85213 187.659453 
L 709.277813 187.7318 
L 709.703497 187.920048 
L 710.12918 187.011219 
L 710.554863 187.162795 
L 710.980547 186.911439 
L 711.40623 186.066307 
L 711.831914 185.679898 
L 712.257597 184.680045 
L 712.68328 184.437512 
L 713.108964 183.256547 
L 713.534647 182.725349 
L 714.386014 181.144923 
L 714.811697 179.768224 
L 715.237381 179.262148 
L 715.663064 178.274226 
L 716.940114 174.069106 
L 717.365798 173.477877 
L 717.791481 171.979861 
L 718.217165 170.968373 
L 718.642848 169.205283 
L 719.068531 168.18859 
L 719.919898 165.619018 
L 720.345582 164.641597 
L 722.048315 158.670184 
L 722.473999 158.123594 
L 723.751049 153.92711 
L 724.176732 152.423341 
L 724.602416 152.053735 
L 725.453783 149.346567 
L 725.879466 148.803859 
L 726.305149 147.412838 
L 726.730833 146.45419 
L 727.156516 145.196955 
L 727.5822 144.480097 
L 728.007883 144.305346 
L 728.85925 142.787503 
L 729.284933 142.620851 
L 729.710617 141.827659 
L 730.1363 140.793941 
L 730.561983 140.786777 
L 730.987667 140.137162 
L 731.41335 139.894591 
L 731.839034 140.203761 
L 732.264717 140.027488 
L 732.690401 139.301282 
L 733.116084 140.033373 
L 733.967451 139.904355 
L 734.393134 140.547742 
L 734.818818 140.795092 
L 735.244501 141.605703 
L 735.670184 141.087122 
L 736.095868 142.438239 
L 736.521551 143.135907 
L 736.947235 143.584094 
L 737.372918 143.569987 
L 737.798601 145.364846 
L 738.224285 145.675738 
L 738.649968 146.808334 
L 739.927018 148.995792 
L 740.352702 149.600678 
L 740.778385 151.209668 
L 741.204069 151.969407 
L 741.629752 153.958538 
L 742.055435 154.123258 
L 742.481119 154.718891 
L 742.906802 156.113684 
L 742.906802 156.113684 
" style="fill:none;stroke:#1f77b4;stroke-linecap:square;stroke-width:1.5;"/>
   </g>
   <g id="line2d_15">
    <path clip-path="url(#p67838bcc18)" d="M 747.163636 384.48 
L 747.163636 51.84 
" style="fill:none;stroke:#808080;stroke-linecap:square;"/>
   </g>
   <g id="patch_90">
    <path d="M 108 384.48 
L 108 51.84 
" style="fill:none;stroke:#000000;stroke-linecap:square;stroke-linejoin:miter;stroke-width:0.8;"/>
   </g>
   <g id="patch_91">
    <path d="M 777.6 384.48 
L 777.6 51.84 
" style="fill:none;stroke:#000000;stroke-linecap:square;stroke-linejoin:miter;stroke-width:0.8;"/>
   </g>
   <g id="patch_92">
    <path d="M 108 384.48 
L 777.6 384.48 
" style="fill:none;stroke:#000000;stroke-linecap:square;stroke-linejoin:miter;stroke-width:0.8;"/>
   </g>
   <g id="patch_93">
    <path d="M 108 51.84 
L 777.6 51.84 
" style="fill:none;stroke:#000000;stroke-linecap:square;stroke-linejoin:miter;stroke-width:0.8;"/>
   </g>
   <g id="text_16">
    <!-- synthetic_62.csv -->
    <defs>
     <path d="M 32.171875 -5.078125 
Q 28.375 -14.84375 24.75 -17.8125 
Q 21.140625 -20.796875 15.09375 -20.796875 
L 7.90625 -20.796875 
L 7.90625 -13.28125 
L 13.1875 -13.28125 
Q 16.890625 -13.28125 18.9375 -11.515625 
Q 21 -9.765625 23.484375 -3.21875 
L 25.09375 0.875 
L 2.984375 54.6875 
L 12.5 54.6875 
L 29.59375 11.921875 
L 46.6875 54.6875 
L 56.203125 54.6875 
z
" id="DejaVuSans-121"/>
     <path d="M 54.890625 33.015625 
L 54.890625 0 
L 45.90625 0 
L 45.90625 32.71875 
Q 45.90625 40.484375 42.875 44.328125 
Q 39.84375 48.1875 33.796875 48.1875 
Q 26.515625 48.1875 22.3125 43.546875 
Q 18.109375 38.921875 18.109375 30.90625 
L 18.109375 0 
L 9.078125 0 
L 9.078125 54.6875 
L 18.109375 54.6875 
L 18.109375 46.1875 
Q 21.34375 51.125 25.703125 53.5625 
Q 30.078125 56 35.796875 56 
Q 45.21875 56 50.046875 50.171875 
Q 54.890625 44.34375 54.890625 33.015625 
z
" id="DejaVuSans-110"/>
     <path d="M 54.890625 33.015625 
L 54.890625 0 
L 45.90625 0 
L 45.90625 32.71875 
Q 45.90625 40.484375 42.875 44.328125 
Q 39.84375 48.1875 33.796875 48.1875 
Q 26.515625 48.1875 22.3125 43.546875 
Q 18.109375 38.921875 18.109375 30.90625 
L 18.109375 0 
L 9.078125 0 
L 9.078125 75.984375 
L 18.109375 75.984375 
L 18.109375 46.1875 
Q 21.34375 51.125 25.703125 53.5625 
Q 30.078125 56 35.796875 56 
Q 45.21875 56 50.046875 50.171875 
Q 54.890625 44.34375 54.890625 33.015625 
z
" id="DejaVuSans-104"/>
     <path d="M 48.78125 52.59375 
L 48.78125 44.1875 
Q 44.96875 46.296875 41.140625 47.34375 
Q 37.3125 48.390625 33.40625 48.390625 
Q 24.65625 48.390625 19.8125 42.84375 
Q 14.984375 37.3125 14.984375 27.296875 
Q 14.984375 17.28125 19.8125 11.734375 
Q 24.65625 6.203125 33.40625 6.203125 
Q 37.3125 6.203125 41.140625 7.25 
Q 44.96875 8.296875 48.78125 10.40625 
L 48.78125 2.09375 
Q 45.015625 0.34375 40.984375 -0.53125 
Q 36.96875 -1.421875 32.421875 -1.421875 
Q 20.0625 -1.421875 12.78125 6.34375 
Q 5.515625 14.109375 5.515625 27.296875 
Q 5.515625 40.671875 12.859375 48.328125 
Q 20.21875 56 33.015625 56 
Q 37.15625 56 41.109375 55.140625 
Q 45.0625 54.296875 48.78125 52.59375 
z
" id="DejaVuSans-99"/>
     <path d="M 50.984375 -16.609375 
L 50.984375 -23.578125 
L -0.984375 -23.578125 
L -0.984375 -16.609375 
z
" id="DejaVuSans-95"/>
     <path d="M 10.6875 12.40625 
L 21 12.40625 
L 21 0 
L 10.6875 0 
z
" id="DejaVuSans-46"/>
     <path d="M 2.984375 54.6875 
L 12.5 54.6875 
L 29.59375 8.796875 
L 46.6875 54.6875 
L 56.203125 54.6875 
L 35.6875 0 
L 23.484375 0 
z
" id="DejaVuSans-118"/>
    </defs>
    <g transform="translate(392.638125 45.84)scale(0.12 -0.12)">
     <use xlink:href="#DejaVuSans-115"/>
     <use x="52.099609" xlink:href="#DejaVuSans-121"/>
     <use x="111.279297" xlink:href="#DejaVuSans-110"/>
     <use x="174.658203" xlink:href="#DejaVuSans-116"/>
     <use x="213.867188" xlink:href="#DejaVuSans-104"/>
     <use x="277.246094" xlink:href="#DejaVuSans-101"/>
     <use x="338.769531" xlink:href="#DejaVuSans-116"/>
     <use x="377.978516" xlink:href="#DejaVuSans-105"/>
     <use x="405.761719" xlink:href="#DejaVuSans-99"/>
     <use x="460.742188" xlink:href="#DejaVuSans-95"/>
     <use x="510.742188" xlink:href="#DejaVuSans-54"/>
     <use x="574.365234" xlink:href="#DejaVuSans-50"/>
     <use x="637.988281" xlink:href="#DejaVuSans-46"/>
     <use x="669.775391" xlink:href="#DejaVuSans-99"/>
     <use x="724.755859" xlink:href="#DejaVuSans-115"/>
     <use x="776.855469" xlink:href="#DejaVuSans-118"/>
    </g>
   </g>
   <g id="legend_1">
    <g id="patch_94">
     <path d="M 115 74.518125 
L 174.315625 74.518125 
Q 176.315625 74.518125 176.315625 72.518125 
L 176.315625 58.84 
Q 176.315625 56.84 174.315625 56.84 
L 115 56.84 
Q 113 56.84 113 58.84 
L 113 72.518125 
Q 113 74.518125 115 74.518125 
z
" style="fill:#ffffff;opacity:0.8;stroke:#cccccc;stroke-linejoin:miter;"/>
    </g>
    <g id="line2d_16">
     <path d="M 117 64.938438 
L 137 64.938438 
" style="fill:none;stroke:#1f77b4;stroke-linecap:square;stroke-width:1.5;"/>
    </g>
    <g id="line2d_17"/>
    <g id="text_17">
     <!-- value -->
     <g transform="translate(145 68.438438)scale(0.1 -0.1)">
      <use xlink:href="#DejaVuSans-118"/>
      <use x="59.179688" xlink:href="#DejaVuSans-97"/>
      <use x="120.458984" xlink:href="#DejaVuSans-108"/>
      <use x="148.242188" xlink:href="#DejaVuSans-117"/>
      <use x="211.621094" xlink:href="#DejaVuSans-101"/>
     </g>
    </g>
   </g>
  </g>
 </g>
 <defs>
  <clipPath id="p67838bcc18">
   <rect height="332.64" width="669.6" x="108" y="51.84"/>
  </clipPath>
 </defs>
</svg>
