<?xml version="1.0" encoding="utf-8" standalone="no"?>
<!DOCTYPE svg PUBLIC "-//W3C//DTD SVG 1.1//EN"
  "http://www.w3.org/Graphics/SVG/1.1/DTD/svg11.dtd">
<!-- Created with matplotlib (https://matplotlib.org/) -->
<svg height="432pt" version="1.1" viewBox="0 0 864 432" width="864pt" xmlns="http://www.w3.org/2000/svg" xmlns:xlink="http://www.w3.org/1999/xlink">
 <defs>
  <style type="text/css">
*{stroke-linecap:butt;stroke-linejoin:round;}
  </style>
 </defs>
 <g id="figure_1">
  <g id="patch_1">
   <path d="M 0 432 
L 864 432 
L 864 0 
L 0 0 
z
" style="fill:#ffffff;"/>
  </g>
  <g id="axes_1">
   <g id="patch_2">
    <path d="M 108 384.48 
L 777.6 384.48 
L 777.6 51.84 
L 108 51.84 
z
" style="fill:#ffffff;"/>
   </g>
   <g id="patch_3">
    <path clip-path="url(#pa23505d675)" d="M 138.436364 384.48 
L 138.436364 51.84 
L 378.497823 51.84 
L 378.497823 384.48 
z
" style="fill:#0000ff;opacity:0.05;"/>
   </g>
   <g id="patch_4">
    <path clip-path="url(#pa23505d675)" d="M 378.497823 384.48 
L 378.497823 51.84 
L 747.163636 51.84 
L 747.163636 384.48 
z
" style="fill:#ff0000;opacity:0.08;"/>
   </g>
   <g id="patch_5">
    <path clip-path="url(#pa23505d675)" d="M 138.436364 384.48 
L 138.436364 51.84 
L 147.009987 51.84 
L 147.009987 384.48 
z
" style="fill:#008000;opacity:0.04;"/>
   </g>
   <g id="patch_6">
    <path clip-path="url(#pa23505d675)" d="M 147.009987 384.48 
L 147.009987 371.1744 
L 155.583611 371.1744 
L 155.583611 384.48 
z
" style="fill:#ffe500;"/>
   </g>
   <g id="patch_7">
    <path clip-path="url(#pa23505d675)" d="M 155.583611 384.48 
L 155.583611 51.84 
L 164.157234 51.84 
L 164.157234 384.48 
z
" style="fill:#008000;opacity:0.04;"/>
   </g>
   <g id="patch_8">
    <path clip-path="url(#pa23505d675)" d="M 404.218694 384.48 
L 404.218694 371.1744 
L 412.792318 371.1744 
L 412.792318 384.48 
z
" style="fill:#ff6600;"/>
   </g>
   <g id="patch_9">
    <path clip-path="url(#pa23505d675)" d="M 172.730858 384.48 
L 172.730858 51.84 
L 181.304481 51.84 
L 181.304481 384.48 
z
" style="fill:#008000;opacity:0.04;"/>
   </g>
   <g id="patch_10">
    <path clip-path="url(#pa23505d675)" d="M 412.792318 384.48 
L 412.792318 371.1744 
L 421.365941 371.1744 
L 421.365941 384.48 
z
" style="fill:#ff6600;"/>
   </g>
   <g id="patch_11">
    <path clip-path="url(#pa23505d675)" d="M 421.365941 384.48 
L 421.365941 371.1744 
L 429.939565 371.1744 
L 429.939565 384.48 
z
" style="fill:#ff6600;"/>
   </g>
   <g id="patch_12">
    <path clip-path="url(#pa23505d675)" d="M 189.878105 384.48 
L 189.878105 51.84 
L 198.451729 51.84 
L 198.451729 384.48 
z
" style="fill:#008000;opacity:0.04;"/>
   </g>
   <g id="patch_13">
    <path clip-path="url(#pa23505d675)" d="M 207.025352 384.48 
L 207.025352 51.84 
L 215.598976 51.84 
L 215.598976 384.48 
z
" style="fill:#008000;opacity:0.04;"/>
   </g>
   <g id="patch_14">
    <path clip-path="url(#pa23505d675)" d="M 224.172599 384.48 
L 224.172599 51.84 
L 232.746223 51.84 
L 232.746223 384.48 
z
" style="fill:#008000;opacity:0.04;"/>
   </g>
   <g id="patch_15">
    <path clip-path="url(#pa23505d675)" d="M 241.319846 384.48 
L 241.319846 51.84 
L 249.89347 51.84 
L 249.89347 384.48 
z
" style="fill:#008000;opacity:0.04;"/>
   </g>
   <g id="patch_16">
    <path clip-path="url(#pa23505d675)" d="M 258.467093 384.48 
L 258.467093 51.84 
L 267.040717 51.84 
L 267.040717 384.48 
z
" style="fill:#008000;opacity:0.04;"/>
   </g>
   <g id="patch_17">
    <path clip-path="url(#pa23505d675)" d="M 275.614341 384.48 
L 275.614341 51.84 
L 284.187964 51.84 
L 284.187964 384.48 
z
" style="fill:#008000;opacity:0.04;"/>
   </g>
   <g id="patch_18">
    <path clip-path="url(#pa23505d675)" d="M 515.6758 384.48 
L 515.6758 371.1744 
L 524.249424 371.1744 
L 524.249424 384.48 
z
" style="fill:#ff6600;"/>
   </g>
   <g id="patch_19">
    <path clip-path="url(#pa23505d675)" d="M 284.187964 384.48 
L 284.187964 371.1744 
L 292.761588 371.1744 
L 292.761588 384.48 
z
" style="fill:#ffe500;"/>
   </g>
   <g id="patch_20">
    <path clip-path="url(#pa23505d675)" d="M 292.761588 384.48 
L 292.761588 51.84 
L 301.335211 51.84 
L 301.335211 384.48 
z
" style="fill:#008000;opacity:0.04;"/>
   </g>
   <g id="patch_21">
    <path clip-path="url(#pa23505d675)" d="M 309.908835 384.48 
L 309.908835 51.84 
L 318.482458 51.84 
L 318.482458 384.48 
z
" style="fill:#008000;opacity:0.04;"/>
   </g>
   <g id="patch_22">
    <path clip-path="url(#pa23505d675)" d="M 327.056082 384.48 
L 327.056082 51.84 
L 335.629706 51.84 
L 335.629706 384.48 
z
" style="fill:#008000;opacity:0.04;"/>
   </g>
   <g id="patch_23">
    <path clip-path="url(#pa23505d675)" d="M 344.203329 384.48 
L 344.203329 51.84 
L 352.776953 51.84 
L 352.776953 384.48 
z
" style="fill:#008000;opacity:0.04;"/>
   </g>
   <g id="patch_24">
    <path clip-path="url(#pa23505d675)" d="M 361.350576 384.48 
L 361.350576 51.84 
L 369.9242 51.84 
L 369.9242 384.48 
z
" style="fill:#008000;opacity:0.04;"/>
   </g>
   <g id="patch_25">
    <path clip-path="url(#pa23505d675)" d="M 378.497823 384.48 
L 378.497823 51.84 
L 387.071447 51.84 
L 387.071447 384.48 
z
" style="fill:#008000;opacity:0.04;"/>
   </g>
   <g id="patch_26">
    <path clip-path="url(#pa23505d675)" d="M 395.64507 384.48 
L 395.64507 51.84 
L 404.218694 51.84 
L 404.218694 384.48 
z
" style="fill:#008000;opacity:0.04;"/>
   </g>
   <g id="patch_27">
    <path clip-path="url(#pa23505d675)" d="M 404.218694 371.1744 
L 404.218694 51.84 
L 412.792318 51.84 
L 412.792318 371.1744 
z
" style="fill:#008000;opacity:0.5;"/>
   </g>
   <g id="patch_28">
    <path clip-path="url(#pa23505d675)" d="M 412.792318 384.48 
L 412.792318 51.84 
L 421.365941 51.84 
L 421.365941 384.48 
z
" style="fill:#008000;opacity:0.04;"/>
   </g>
   <g id="patch_29">
    <path clip-path="url(#pa23505d675)" d="M 412.792318 371.1744 
L 412.792318 51.84 
L 421.365941 51.84 
L 421.365941 371.1744 
z
" style="fill:#008000;opacity:0.5;"/>
   </g>
   <g id="patch_30">
    <path clip-path="url(#pa23505d675)" d="M 421.365941 371.1744 
L 421.365941 51.84 
L 429.939565 51.84 
L 429.939565 371.1744 
z
" style="fill:#008000;opacity:0.5;"/>
   </g>
   <g id="patch_31">
    <path clip-path="url(#pa23505d675)" d="M 429.939565 384.48 
L 429.939565 51.84 
L 438.513188 51.84 
L 438.513188 384.48 
z
" style="fill:#008000;opacity:0.04;"/>
   </g>
   <g id="patch_32">
    <path clip-path="url(#pa23505d675)" d="M 447.086812 384.48 
L 447.086812 51.84 
L 455.660435 51.84 
L 455.660435 384.48 
z
" style="fill:#008000;opacity:0.04;"/>
   </g>
   <g id="patch_33">
    <path clip-path="url(#pa23505d675)" d="M 464.234059 384.48 
L 464.234059 51.84 
L 472.807682 51.84 
L 472.807682 384.48 
z
" style="fill:#008000;opacity:0.04;"/>
   </g>
   <g id="patch_34">
    <path clip-path="url(#pa23505d675)" d="M 481.381306 384.48 
L 481.381306 51.84 
L 489.95493 51.84 
L 489.95493 384.48 
z
" style="fill:#008000;opacity:0.04;"/>
   </g>
   <g id="patch_35">
    <path clip-path="url(#pa23505d675)" d="M 498.528553 384.48 
L 498.528553 51.84 
L 507.102177 51.84 
L 507.102177 384.48 
z
" style="fill:#008000;opacity:0.04;"/>
   </g>
   <g id="patch_36">
    <path clip-path="url(#pa23505d675)" d="M 515.6758 384.48 
L 515.6758 51.84 
L 524.249424 51.84 
L 524.249424 384.48 
z
" style="fill:#008000;opacity:0.04;"/>
   </g>
   <g id="patch_37">
    <path clip-path="url(#pa23505d675)" d="M 515.6758 371.1744 
L 515.6758 51.84 
L 524.249424 51.84 
L 524.249424 371.1744 
z
" style="fill:#008000;opacity:0.5;"/>
   </g>
   <g id="patch_38">
    <path clip-path="url(#pa23505d675)" d="M 532.823047 384.48 
L 532.823047 51.84 
L 541.396671 51.84 
L 541.396671 384.48 
z
" style="fill:#008000;opacity:0.04;"/>
   </g>
   <g id="patch_39">
    <path clip-path="url(#pa23505d675)" d="M 549.970294 384.48 
L 549.970294 51.84 
L 558.543918 51.84 
L 558.543918 384.48 
z
" style="fill:#008000;opacity:0.04;"/>
   </g>
   <g id="patch_40">
    <path clip-path="url(#pa23505d675)" d="M 567.117542 384.48 
L 567.117542 51.84 
L 575.691165 51.84 
L 575.691165 384.48 
z
" style="fill:#008000;opacity:0.04;"/>
   </g>
   <g id="patch_41">
    <path clip-path="url(#pa23505d675)" d="M 584.264789 384.48 
L 584.264789 51.84 
L 592.838412 51.84 
L 592.838412 384.48 
z
" style="fill:#008000;opacity:0.04;"/>
   </g>
   <g id="patch_42">
    <path clip-path="url(#pa23505d675)" d="M 601.412036 384.48 
L 601.412036 51.84 
L 609.985659 51.84 
L 609.985659 384.48 
z
" style="fill:#008000;opacity:0.04;"/>
   </g>
   <g id="patch_43">
    <path clip-path="url(#pa23505d675)" d="M 618.559283 384.48 
L 618.559283 51.84 
L 627.132907 51.84 
L 627.132907 384.48 
z
" style="fill:#008000;opacity:0.04;"/>
   </g>
   <g id="patch_44">
    <path clip-path="url(#pa23505d675)" d="M 635.70653 384.48 
L 635.70653 51.84 
L 644.280154 51.84 
L 644.280154 384.48 
z
" style="fill:#008000;opacity:0.04;"/>
   </g>
   <g id="patch_45">
    <path clip-path="url(#pa23505d675)" d="M 652.853777 384.48 
L 652.853777 51.84 
L 661.427401 51.84 
L 661.427401 384.48 
z
" style="fill:#008000;opacity:0.04;"/>
   </g>
   <g id="patch_46">
    <path clip-path="url(#pa23505d675)" d="M 670.001024 384.48 
L 670.001024 51.84 
L 678.574648 51.84 
L 678.574648 384.48 
z
" style="fill:#008000;opacity:0.04;"/>
   </g>
   <g id="patch_47">
    <path clip-path="url(#pa23505d675)" d="M 687.148271 384.48 
L 687.148271 51.84 
L 695.721895 51.84 
L 695.721895 384.48 
z
" style="fill:#008000;opacity:0.04;"/>
   </g>
   <g id="patch_48">
    <path clip-path="url(#pa23505d675)" d="M 704.295519 384.48 
L 704.295519 51.84 
L 712.869142 51.84 
L 712.869142 384.48 
z
" style="fill:#008000;opacity:0.04;"/>
   </g>
   <g id="patch_49">
    <path clip-path="url(#pa23505d675)" d="M 721.442766 384.48 
L 721.442766 51.84 
L 730.016389 51.84 
L 730.016389 384.48 
z
" style="fill:#008000;opacity:0.04;"/>
   </g>
   <g id="patch_50">
    <path clip-path="url(#pa23505d675)" d="M 738.590013 384.48 
L 738.590013 51.84 
L 747.163636 51.84 
L 747.163636 384.48 
z
" style="fill:#008000;opacity:0.04;"/>
   </g>
   <g id="matplotlib.axis_1">
    <g id="xtick_1">
     <g id="line2d_1">
      <defs>
       <path d="M 0 0 
L 0 3.5 
" id="m838fe6a804" style="stroke:#000000;stroke-width:0.8;"/>
      </defs>
      <g>
       <use style="stroke:#000000;stroke-width:0.8;" x="138.436364" xlink:href="#m838fe6a804" y="384.48"/>
      </g>
     </g>
     <g id="text_1">
      <!-- 0 -->
      <defs>
       <path d="M 31.78125 66.40625 
Q 24.171875 66.40625 20.328125 58.90625 
Q 16.5 51.421875 16.5 36.375 
Q 16.5 21.390625 20.328125 13.890625 
Q 24.171875 6.390625 31.78125 6.390625 
Q 39.453125 6.390625 43.28125 13.890625 
Q 47.125 21.390625 47.125 36.375 
Q 47.125 51.421875 43.28125 58.90625 
Q 39.453125 66.40625 31.78125 66.40625 
z
M 31.78125 74.21875 
Q 44.046875 74.21875 50.515625 64.515625 
Q 56.984375 54.828125 56.984375 36.375 
Q 56.984375 17.96875 50.515625 8.265625 
Q 44.046875 -1.421875 31.78125 -1.421875 
Q 19.53125 -1.421875 13.0625 8.265625 
Q 6.59375 17.96875 6.59375 36.375 
Q 6.59375 54.828125 13.0625 64.515625 
Q 19.53125 74.21875 31.78125 74.21875 
z
" id="DejaVuSans-48"/>
      </defs>
      <g transform="translate(135.255114 399.078438)scale(0.1 -0.1)">
       <use xlink:href="#DejaVuSans-48"/>
      </g>
     </g>
    </g>
    <g id="xtick_2">
     <g id="line2d_2">
      <g>
       <use style="stroke:#000000;stroke-width:0.8;" x="224.172599" xlink:href="#m838fe6a804" y="384.48"/>
      </g>
     </g>
     <g id="text_2">
      <!-- 200 -->
      <defs>
       <path d="M 19.1875 8.296875 
L 53.609375 8.296875 
L 53.609375 0 
L 7.328125 0 
L 7.328125 8.296875 
Q 12.9375 14.109375 22.625 23.890625 
Q 32.328125 33.6875 34.8125 36.53125 
Q 39.546875 41.84375 41.421875 45.53125 
Q 43.3125 49.21875 43.3125 52.78125 
Q 43.3125 58.59375 39.234375 62.25 
Q 35.15625 65.921875 28.609375 65.921875 
Q 23.96875 65.921875 18.8125 64.3125 
Q 13.671875 62.703125 7.8125 59.421875 
L 7.8125 69.390625 
Q 13.765625 71.78125 18.9375 73 
Q 24.125 74.21875 28.421875 74.21875 
Q 39.75 74.21875 46.484375 68.546875 
Q 53.21875 62.890625 53.21875 53.421875 
Q 53.21875 48.921875 51.53125 44.890625 
Q 49.859375 40.875 45.40625 35.40625 
Q 44.1875 33.984375 37.640625 27.21875 
Q 31.109375 20.453125 19.1875 8.296875 
z
" id="DejaVuSans-50"/>
      </defs>
      <g transform="translate(214.628849 399.078438)scale(0.1 -0.1)">
       <use xlink:href="#DejaVuSans-50"/>
       <use x="63.623047" xlink:href="#DejaVuSans-48"/>
       <use x="127.246094" xlink:href="#DejaVuSans-48"/>
      </g>
     </g>
    </g>
    <g id="xtick_3">
     <g id="line2d_3">
      <g>
       <use style="stroke:#000000;stroke-width:0.8;" x="309.908835" xlink:href="#m838fe6a804" y="384.48"/>
      </g>
     </g>
     <g id="text_3">
      <!-- 400 -->
      <defs>
       <path d="M 37.796875 64.3125 
L 12.890625 25.390625 
L 37.796875 25.390625 
z
M 35.203125 72.90625 
L 47.609375 72.90625 
L 47.609375 25.390625 
L 58.015625 25.390625 
L 58.015625 17.1875 
L 47.609375 17.1875 
L 47.609375 0 
L 37.796875 0 
L 37.796875 17.1875 
L 4.890625 17.1875 
L 4.890625 26.703125 
z
" id="DejaVuSans-52"/>
      </defs>
      <g transform="translate(300.365085 399.078438)scale(0.1 -0.1)">
       <use xlink:href="#DejaVuSans-52"/>
       <use x="63.623047" xlink:href="#DejaVuSans-48"/>
       <use x="127.246094" xlink:href="#DejaVuSans-48"/>
      </g>
     </g>
    </g>
    <g id="xtick_4">
     <g id="line2d_4">
      <g>
       <use style="stroke:#000000;stroke-width:0.8;" x="395.64507" xlink:href="#m838fe6a804" y="384.48"/>
      </g>
     </g>
     <g id="text_4">
      <!-- 600 -->
      <defs>
       <path d="M 33.015625 40.375 
Q 26.375 40.375 22.484375 35.828125 
Q 18.609375 31.296875 18.609375 23.390625 
Q 18.609375 15.53125 22.484375 10.953125 
Q 26.375 6.390625 33.015625 6.390625 
Q 39.65625 6.390625 43.53125 10.953125 
Q 47.40625 15.53125 47.40625 23.390625 
Q 47.40625 31.296875 43.53125 35.828125 
Q 39.65625 40.375 33.015625 40.375 
z
M 52.59375 71.296875 
L 52.59375 62.3125 
Q 48.875 64.0625 45.09375 64.984375 
Q 41.3125 65.921875 37.59375 65.921875 
Q 27.828125 65.921875 22.671875 59.328125 
Q 17.53125 52.734375 16.796875 39.40625 
Q 19.671875 43.65625 24.015625 45.921875 
Q 28.375 48.1875 33.59375 48.1875 
Q 44.578125 48.1875 50.953125 41.515625 
Q 57.328125 34.859375 57.328125 23.390625 
Q 57.328125 12.15625 50.6875 5.359375 
Q 44.046875 -1.421875 33.015625 -1.421875 
Q 20.359375 -1.421875 13.671875 8.265625 
Q 6.984375 17.96875 6.984375 36.375 
Q 6.984375 53.65625 15.1875 63.9375 
Q 23.390625 74.21875 37.203125 74.21875 
Q 40.921875 74.21875 44.703125 73.484375 
Q 48.484375 72.75 52.59375 71.296875 
z
" id="DejaVuSans-54"/>
      </defs>
      <g transform="translate(386.10132 399.078438)scale(0.1 -0.1)">
       <use xlink:href="#DejaVuSans-54"/>
       <use x="63.623047" xlink:href="#DejaVuSans-48"/>
       <use x="127.246094" xlink:href="#DejaVuSans-48"/>
      </g>
     </g>
    </g>
    <g id="xtick_5">
     <g id="line2d_5">
      <g>
       <use style="stroke:#000000;stroke-width:0.8;" x="481.381306" xlink:href="#m838fe6a804" y="384.48"/>
      </g>
     </g>
     <g id="text_5">
      <!-- 800 -->
      <defs>
       <path d="M 31.78125 34.625 
Q 24.75 34.625 20.71875 30.859375 
Q 16.703125 27.09375 16.703125 20.515625 
Q 16.703125 13.921875 20.71875 10.15625 
Q 24.75 6.390625 31.78125 6.390625 
Q 38.8125 6.390625 42.859375 10.171875 
Q 46.921875 13.96875 46.921875 20.515625 
Q 46.921875 27.09375 42.890625 30.859375 
Q 38.875 34.625 31.78125 34.625 
z
M 21.921875 38.8125 
Q 15.578125 40.375 12.03125 44.71875 
Q 8.5 49.078125 8.5 55.328125 
Q 8.5 64.0625 14.71875 69.140625 
Q 20.953125 74.21875 31.78125 74.21875 
Q 42.671875 74.21875 48.875 69.140625 
Q 55.078125 64.0625 55.078125 55.328125 
Q 55.078125 49.078125 51.53125 44.71875 
Q 48 40.375 41.703125 38.8125 
Q 48.828125 37.15625 52.796875 32.3125 
Q 56.78125 27.484375 56.78125 20.515625 
Q 56.78125 9.90625 50.3125 4.234375 
Q 43.84375 -1.421875 31.78125 -1.421875 
Q 19.734375 -1.421875 13.25 4.234375 
Q 6.78125 9.90625 6.78125 20.515625 
Q 6.78125 27.484375 10.78125 32.3125 
Q 14.796875 37.15625 21.921875 38.8125 
z
M 18.3125 54.390625 
Q 18.3125 48.734375 21.84375 45.5625 
Q 25.390625 42.390625 31.78125 42.390625 
Q 38.140625 42.390625 41.71875 45.5625 
Q 45.3125 48.734375 45.3125 54.390625 
Q 45.3125 60.0625 41.71875 63.234375 
Q 38.140625 66.40625 31.78125 66.40625 
Q 25.390625 66.40625 21.84375 63.234375 
Q 18.3125 60.0625 18.3125 54.390625 
z
" id="DejaVuSans-56"/>
      </defs>
      <g transform="translate(471.837556 399.078438)scale(0.1 -0.1)">
       <use xlink:href="#DejaVuSans-56"/>
       <use x="63.623047" xlink:href="#DejaVuSans-48"/>
       <use x="127.246094" xlink:href="#DejaVuSans-48"/>
      </g>
     </g>
    </g>
    <g id="xtick_6">
     <g id="line2d_6">
      <g>
       <use style="stroke:#000000;stroke-width:0.8;" x="567.117542" xlink:href="#m838fe6a804" y="384.48"/>
      </g>
     </g>
     <g id="text_6">
      <!-- 1000 -->
      <defs>
       <path d="M 12.40625 8.296875 
L 28.515625 8.296875 
L 28.515625 63.921875 
L 10.984375 60.40625 
L 10.984375 69.390625 
L 28.421875 72.90625 
L 38.28125 72.90625 
L 38.28125 8.296875 
L 54.390625 8.296875 
L 54.390625 0 
L 12.40625 0 
z
" id="DejaVuSans-49"/>
      </defs>
      <g transform="translate(554.392542 399.078438)scale(0.1 -0.1)">
       <use xlink:href="#DejaVuSans-49"/>
       <use x="63.623047" xlink:href="#DejaVuSans-48"/>
       <use x="127.246094" xlink:href="#DejaVuSans-48"/>
       <use x="190.869141" xlink:href="#DejaVuSans-48"/>
      </g>
     </g>
    </g>
    <g id="xtick_7">
     <g id="line2d_7">
      <g>
       <use style="stroke:#000000;stroke-width:0.8;" x="652.853777" xlink:href="#m838fe6a804" y="384.48"/>
      </g>
     </g>
     <g id="text_7">
      <!-- 1200 -->
      <g transform="translate(640.128777 399.078438)scale(0.1 -0.1)">
       <use xlink:href="#DejaVuSans-49"/>
       <use x="63.623047" xlink:href="#DejaVuSans-50"/>
       <use x="127.246094" xlink:href="#DejaVuSans-48"/>
       <use x="190.869141" xlink:href="#DejaVuSans-48"/>
      </g>
     </g>
    </g>
    <g id="xtick_8">
     <g id="line2d_8">
      <g>
       <use style="stroke:#000000;stroke-width:0.8;" x="738.590013" xlink:href="#m838fe6a804" y="384.48"/>
      </g>
     </g>
     <g id="text_8">
      <!-- 1400 -->
      <g transform="translate(725.865013 399.078438)scale(0.1 -0.1)">
       <use xlink:href="#DejaVuSans-49"/>
       <use x="63.623047" xlink:href="#DejaVuSans-52"/>
       <use x="127.246094" xlink:href="#DejaVuSans-48"/>
       <use x="190.869141" xlink:href="#DejaVuSans-48"/>
      </g>
     </g>
    </g>
    <g id="text_9">
     <!-- Timestamp -->
     <defs>
      <path d="M -0.296875 72.90625 
L 61.375 72.90625 
L 61.375 64.59375 
L 35.5 64.59375 
L 35.5 0 
L 25.59375 0 
L 25.59375 64.59375 
L -0.296875 64.59375 
z
" id="DejaVuSans-84"/>
      <path d="M 9.421875 54.6875 
L 18.40625 54.6875 
L 18.40625 0 
L 9.421875 0 
z
M 9.421875 75.984375 
L 18.40625 75.984375 
L 18.40625 64.59375 
L 9.421875 64.59375 
z
" id="DejaVuSans-105"/>
      <path d="M 52 44.1875 
Q 55.375 50.25 60.0625 53.125 
Q 64.75 56 71.09375 56 
Q 79.640625 56 84.28125 50.015625 
Q 88.921875 44.046875 88.921875 33.015625 
L 88.921875 0 
L 79.890625 0 
L 79.890625 32.71875 
Q 79.890625 40.578125 77.09375 44.375 
Q 74.3125 48.1875 68.609375 48.1875 
Q 61.625 48.1875 57.5625 43.546875 
Q 53.515625 38.921875 53.515625 30.90625 
L 53.515625 0 
L 44.484375 0 
L 44.484375 32.71875 
Q 44.484375 40.625 41.703125 44.40625 
Q 38.921875 48.1875 33.109375 48.1875 
Q 26.21875 48.1875 22.15625 43.53125 
Q 18.109375 38.875 18.109375 30.90625 
L 18.109375 0 
L 9.078125 0 
L 9.078125 54.6875 
L 18.109375 54.6875 
L 18.109375 46.1875 
Q 21.1875 51.21875 25.484375 53.609375 
Q 29.78125 56 35.6875 56 
Q 41.65625 56 45.828125 52.96875 
Q 50 49.953125 52 44.1875 
z
" id="DejaVuSans-109"/>
      <path d="M 56.203125 29.59375 
L 56.203125 25.203125 
L 14.890625 25.203125 
Q 15.484375 15.921875 20.484375 11.0625 
Q 25.484375 6.203125 34.421875 6.203125 
Q 39.59375 6.203125 44.453125 7.46875 
Q 49.3125 8.734375 54.109375 11.28125 
L 54.109375 2.78125 
Q 49.265625 0.734375 44.1875 -0.34375 
Q 39.109375 -1.421875 33.890625 -1.421875 
Q 20.796875 -1.421875 13.15625 6.1875 
Q 5.515625 13.8125 5.515625 26.8125 
Q 5.515625 40.234375 12.765625 48.109375 
Q 20.015625 56 32.328125 56 
Q 43.359375 56 49.78125 48.890625 
Q 56.203125 41.796875 56.203125 29.59375 
z
M 47.21875 32.234375 
Q 47.125 39.59375 43.09375 43.984375 
Q 39.0625 48.390625 32.421875 48.390625 
Q 24.90625 48.390625 20.390625 44.140625 
Q 15.875 39.890625 15.1875 32.171875 
z
" id="DejaVuSans-101"/>
      <path d="M 44.28125 53.078125 
L 44.28125 44.578125 
Q 40.484375 46.53125 36.375 47.5 
Q 32.28125 48.484375 27.875 48.484375 
Q 21.1875 48.484375 17.84375 46.4375 
Q 14.5 44.390625 14.5 40.28125 
Q 14.5 37.15625 16.890625 35.375 
Q 19.28125 33.59375 26.515625 31.984375 
L 29.59375 31.296875 
Q 39.15625 29.25 43.1875 25.515625 
Q 47.21875 21.78125 47.21875 15.09375 
Q 47.21875 7.46875 41.1875 3.015625 
Q 35.15625 -1.421875 24.609375 -1.421875 
Q 20.21875 -1.421875 15.453125 -0.5625 
Q 10.6875 0.296875 5.421875 2 
L 5.421875 11.28125 
Q 10.40625 8.6875 15.234375 7.390625 
Q 20.0625 6.109375 24.8125 6.109375 
Q 31.15625 6.109375 34.5625 8.28125 
Q 37.984375 10.453125 37.984375 14.40625 
Q 37.984375 18.0625 35.515625 20.015625 
Q 33.0625 21.96875 24.703125 23.78125 
L 21.578125 24.515625 
Q 13.234375 26.265625 9.515625 29.90625 
Q 5.8125 33.546875 5.8125 39.890625 
Q 5.8125 47.609375 11.28125 51.796875 
Q 16.75 56 26.8125 56 
Q 31.78125 56 36.171875 55.265625 
Q 40.578125 54.546875 44.28125 53.078125 
z
" id="DejaVuSans-115"/>
      <path d="M 18.3125 70.21875 
L 18.3125 54.6875 
L 36.8125 54.6875 
L 36.8125 47.703125 
L 18.3125 47.703125 
L 18.3125 18.015625 
Q 18.3125 11.328125 20.140625 9.421875 
Q 21.96875 7.515625 27.59375 7.515625 
L 36.8125 7.515625 
L 36.8125 0 
L 27.59375 0 
Q 17.1875 0 13.234375 3.875 
Q 9.28125 7.765625 9.28125 18.015625 
L 9.28125 47.703125 
L 2.6875 47.703125 
L 2.6875 54.6875 
L 9.28125 54.6875 
L 9.28125 70.21875 
z
" id="DejaVuSans-116"/>
      <path d="M 34.28125 27.484375 
Q 23.390625 27.484375 19.1875 25 
Q 14.984375 22.515625 14.984375 16.5 
Q 14.984375 11.71875 18.140625 8.90625 
Q 21.296875 6.109375 26.703125 6.109375 
Q 34.1875 6.109375 38.703125 11.40625 
Q 43.21875 16.703125 43.21875 25.484375 
L 43.21875 27.484375 
z
M 52.203125 31.203125 
L 52.203125 0 
L 43.21875 0 
L 43.21875 8.296875 
Q 40.140625 3.328125 35.546875 0.953125 
Q 30.953125 -1.421875 24.3125 -1.421875 
Q 15.921875 -1.421875 10.953125 3.296875 
Q 6 8.015625 6 15.921875 
Q 6 25.140625 12.171875 29.828125 
Q 18.359375 34.515625 30.609375 34.515625 
L 43.21875 34.515625 
L 43.21875 35.40625 
Q 43.21875 41.609375 39.140625 45 
Q 35.0625 48.390625 27.6875 48.390625 
Q 23 48.390625 18.546875 47.265625 
Q 14.109375 46.140625 10.015625 43.890625 
L 10.015625 52.203125 
Q 14.9375 54.109375 19.578125 55.046875 
Q 24.21875 56 28.609375 56 
Q 40.484375 56 46.34375 49.84375 
Q 52.203125 43.703125 52.203125 31.203125 
z
" id="DejaVuSans-97"/>
      <path d="M 18.109375 8.203125 
L 18.109375 -20.796875 
L 9.078125 -20.796875 
L 9.078125 54.6875 
L 18.109375 54.6875 
L 18.109375 46.390625 
Q 20.953125 51.265625 25.265625 53.625 
Q 29.59375 56 35.59375 56 
Q 45.5625 56 51.78125 48.09375 
Q 58.015625 40.1875 58.015625 27.296875 
Q 58.015625 14.40625 51.78125 6.484375 
Q 45.5625 -1.421875 35.59375 -1.421875 
Q 29.59375 -1.421875 25.265625 0.953125 
Q 20.953125 3.328125 18.109375 8.203125 
z
M 48.6875 27.296875 
Q 48.6875 37.203125 44.609375 42.84375 
Q 40.53125 48.484375 33.40625 48.484375 
Q 26.265625 48.484375 22.1875 42.84375 
Q 18.109375 37.203125 18.109375 27.296875 
Q 18.109375 17.390625 22.1875 11.75 
Q 26.265625 6.109375 33.40625 6.109375 
Q 40.53125 6.109375 44.609375 11.75 
Q 48.6875 17.390625 48.6875 27.296875 
z
" id="DejaVuSans-112"/>
     </defs>
     <g transform="translate(414.739062 412.756563)scale(0.1 -0.1)">
      <use xlink:href="#DejaVuSans-84"/>
      <use x="61.037109" xlink:href="#DejaVuSans-105"/>
      <use x="88.820312" xlink:href="#DejaVuSans-109"/>
      <use x="186.232422" xlink:href="#DejaVuSans-101"/>
      <use x="247.755859" xlink:href="#DejaVuSans-115"/>
      <use x="299.855469" xlink:href="#DejaVuSans-116"/>
      <use x="339.064453" xlink:href="#DejaVuSans-97"/>
      <use x="400.34375" xlink:href="#DejaVuSans-109"/>
      <use x="497.755859" xlink:href="#DejaVuSans-112"/>
     </g>
    </g>
   </g>
   <g id="matplotlib.axis_2">
    <g id="ytick_1">
     <g id="line2d_9">
      <defs>
       <path d="M 0 0 
L -3.5 0 
" id="mad2aaeb238" style="stroke:#000000;stroke-width:0.8;"/>
      </defs>
      <g>
       <use style="stroke:#000000;stroke-width:0.8;" x="108" xlink:href="#mad2aaeb238" y="350.126858"/>
      </g>
     </g>
     <g id="text_10">
      <!-- −1000 -->
      <defs>
       <path d="M 10.59375 35.5 
L 73.1875 35.5 
L 73.1875 27.203125 
L 10.59375 27.203125 
z
" id="DejaVuSans-8722"/>
      </defs>
      <g transform="translate(67.170312 353.926077)scale(0.1 -0.1)">
       <use xlink:href="#DejaVuSans-8722"/>
       <use x="83.789062" xlink:href="#DejaVuSans-49"/>
       <use x="147.412109" xlink:href="#DejaVuSans-48"/>
       <use x="211.035156" xlink:href="#DejaVuSans-48"/>
       <use x="274.658203" xlink:href="#DejaVuSans-48"/>
      </g>
     </g>
    </g>
    <g id="ytick_2">
     <g id="line2d_10">
      <g>
       <use style="stroke:#000000;stroke-width:0.8;" x="108" xlink:href="#mad2aaeb238" y="308.227522"/>
      </g>
     </g>
     <g id="text_11">
      <!-- 0 -->
      <g transform="translate(94.6375 312.026741)scale(0.1 -0.1)">
       <use xlink:href="#DejaVuSans-48"/>
      </g>
     </g>
    </g>
    <g id="ytick_3">
     <g id="line2d_11">
      <g>
       <use style="stroke:#000000;stroke-width:0.8;" x="108" xlink:href="#mad2aaeb238" y="266.328186"/>
      </g>
     </g>
     <g id="text_12">
      <!-- 1000 -->
      <g transform="translate(75.55 270.127405)scale(0.1 -0.1)">
       <use xlink:href="#DejaVuSans-49"/>
       <use x="63.623047" xlink:href="#DejaVuSans-48"/>
       <use x="127.246094" xlink:href="#DejaVuSans-48"/>
       <use x="190.869141" xlink:href="#DejaVuSans-48"/>
      </g>
     </g>
    </g>
    <g id="ytick_4">
     <g id="line2d_12">
      <g>
       <use style="stroke:#000000;stroke-width:0.8;" x="108" xlink:href="#mad2aaeb238" y="224.42885"/>
      </g>
     </g>
     <g id="text_13">
      <!-- 2000 -->
      <g transform="translate(75.55 228.228068)scale(0.1 -0.1)">
       <use xlink:href="#DejaVuSans-50"/>
       <use x="63.623047" xlink:href="#DejaVuSans-48"/>
       <use x="127.246094" xlink:href="#DejaVuSans-48"/>
       <use x="190.869141" xlink:href="#DejaVuSans-48"/>
      </g>
     </g>
    </g>
    <g id="ytick_5">
     <g id="line2d_13">
      <g>
       <use style="stroke:#000000;stroke-width:0.8;" x="108" xlink:href="#mad2aaeb238" y="182.529513"/>
      </g>
     </g>
     <g id="text_14">
      <!-- 3000 -->
      <defs>
       <path d="M 40.578125 39.3125 
Q 47.65625 37.796875 51.625 33 
Q 55.609375 28.21875 55.609375 21.1875 
Q 55.609375 10.40625 48.1875 4.484375 
Q 40.765625 -1.421875 27.09375 -1.421875 
Q 22.515625 -1.421875 17.65625 -0.515625 
Q 12.796875 0.390625 7.625 2.203125 
L 7.625 11.71875 
Q 11.71875 9.328125 16.59375 8.109375 
Q 21.484375 6.890625 26.8125 6.890625 
Q 36.078125 6.890625 40.9375 10.546875 
Q 45.796875 14.203125 45.796875 21.1875 
Q 45.796875 27.640625 41.28125 31.265625 
Q 36.765625 34.90625 28.71875 34.90625 
L 20.21875 34.90625 
L 20.21875 43.015625 
L 29.109375 43.015625 
Q 36.375 43.015625 40.234375 45.921875 
Q 44.09375 48.828125 44.09375 54.296875 
Q 44.09375 59.90625 40.109375 62.90625 
Q 36.140625 65.921875 28.71875 65.921875 
Q 24.65625 65.921875 20.015625 65.03125 
Q 15.375 64.15625 9.8125 62.3125 
L 9.8125 71.09375 
Q 15.4375 72.65625 20.34375 73.4375 
Q 25.25 74.21875 29.59375 74.21875 
Q 40.828125 74.21875 47.359375 69.109375 
Q 53.90625 64.015625 53.90625 55.328125 
Q 53.90625 49.265625 50.4375 45.09375 
Q 46.96875 40.921875 40.578125 39.3125 
z
" id="DejaVuSans-51"/>
      </defs>
      <g transform="translate(75.55 186.328732)scale(0.1 -0.1)">
       <use xlink:href="#DejaVuSans-51"/>
       <use x="63.623047" xlink:href="#DejaVuSans-48"/>
       <use x="127.246094" xlink:href="#DejaVuSans-48"/>
       <use x="190.869141" xlink:href="#DejaVuSans-48"/>
      </g>
     </g>
    </g>
    <g id="ytick_6">
     <g id="line2d_14">
      <g>
       <use style="stroke:#000000;stroke-width:0.8;" x="108" xlink:href="#mad2aaeb238" y="140.630177"/>
      </g>
     </g>
     <g id="text_15">
      <!-- 4000 -->
      <g transform="translate(75.55 144.429396)scale(0.1 -0.1)">
       <use xlink:href="#DejaVuSans-52"/>
       <use x="63.623047" xlink:href="#DejaVuSans-48"/>
       <use x="127.246094" xlink:href="#DejaVuSans-48"/>
       <use x="190.869141" xlink:href="#DejaVuSans-48"/>
      </g>
     </g>
    </g>
    <g id="ytick_7">
     <g id="line2d_15">
      <g>
       <use style="stroke:#000000;stroke-width:0.8;" x="108" xlink:href="#mad2aaeb238" y="98.730841"/>
      </g>
     </g>
     <g id="text_16">
      <!-- 5000 -->
      <defs>
       <path d="M 10.796875 72.90625 
L 49.515625 72.90625 
L 49.515625 64.59375 
L 19.828125 64.59375 
L 19.828125 46.734375 
Q 21.96875 47.46875 24.109375 47.828125 
Q 26.265625 48.1875 28.421875 48.1875 
Q 40.625 48.1875 47.75 41.5 
Q 54.890625 34.8125 54.890625 23.390625 
Q 54.890625 11.625 47.5625 5.09375 
Q 40.234375 -1.421875 26.90625 -1.421875 
Q 22.3125 -1.421875 17.546875 -0.640625 
Q 12.796875 0.140625 7.71875 1.703125 
L 7.71875 11.625 
Q 12.109375 9.234375 16.796875 8.0625 
Q 21.484375 6.890625 26.703125 6.890625 
Q 35.15625 6.890625 40.078125 11.328125 
Q 45.015625 15.765625 45.015625 23.390625 
Q 45.015625 31 40.078125 35.4375 
Q 35.15625 39.890625 26.703125 39.890625 
Q 22.75 39.890625 18.8125 39.015625 
Q 14.890625 38.140625 10.796875 36.28125 
z
" id="DejaVuSans-53"/>
      </defs>
      <g transform="translate(75.55 102.53006)scale(0.1 -0.1)">
       <use xlink:href="#DejaVuSans-53"/>
       <use x="63.623047" xlink:href="#DejaVuSans-48"/>
       <use x="127.246094" xlink:href="#DejaVuSans-48"/>
       <use x="190.869141" xlink:href="#DejaVuSans-48"/>
      </g>
     </g>
    </g>
    <g id="ytick_8">
     <g id="line2d_16">
      <g>
       <use style="stroke:#000000;stroke-width:0.8;" x="108" xlink:href="#mad2aaeb238" y="56.831505"/>
      </g>
     </g>
     <g id="text_17">
      <!-- 6000 -->
      <g transform="translate(75.55 60.630723)scale(0.1 -0.1)">
       <use xlink:href="#DejaVuSans-54"/>
       <use x="63.623047" xlink:href="#DejaVuSans-48"/>
       <use x="127.246094" xlink:href="#DejaVuSans-48"/>
       <use x="190.869141" xlink:href="#DejaVuSans-48"/>
      </g>
     </g>
    </g>
    <g id="text_18">
     <!-- Value -->
     <defs>
      <path d="M 28.609375 0 
L 0.78125 72.90625 
L 11.078125 72.90625 
L 34.1875 11.53125 
L 57.328125 72.90625 
L 67.578125 72.90625 
L 39.796875 0 
z
" id="DejaVuSans-86"/>
      <path d="M 9.421875 75.984375 
L 18.40625 75.984375 
L 18.40625 0 
L 9.421875 0 
z
" id="DejaVuSans-108"/>
      <path d="M 8.5 21.578125 
L 8.5 54.6875 
L 17.484375 54.6875 
L 17.484375 21.921875 
Q 17.484375 14.15625 20.5 10.265625 
Q 23.53125 6.390625 29.59375 6.390625 
Q 36.859375 6.390625 41.078125 11.03125 
Q 45.3125 15.671875 45.3125 23.6875 
L 45.3125 54.6875 
L 54.296875 54.6875 
L 54.296875 0 
L 45.3125 0 
L 45.3125 8.40625 
Q 42.046875 3.421875 37.71875 1 
Q 33.40625 -1.421875 27.6875 -1.421875 
Q 18.265625 -1.421875 13.375 4.4375 
Q 8.5 10.296875 8.5 21.578125 
z
M 31.109375 56 
z
" id="DejaVuSans-117"/>
     </defs>
     <g transform="translate(61.090625 232.273281)rotate(-90)scale(0.1 -0.1)">
      <use xlink:href="#DejaVuSans-86"/>
      <use x="68.298828" xlink:href="#DejaVuSans-97"/>
      <use x="129.578125" xlink:href="#DejaVuSans-108"/>
      <use x="157.361328" xlink:href="#DejaVuSans-117"/>
      <use x="220.740234" xlink:href="#DejaVuSans-101"/>
     </g>
    </g>
   </g>
   <g id="line2d_17">
    <path clip-path="url(#pa23505d675)" d="M 138.436364 297.497255 
L 138.865045 308.451699 
L 139.293726 292.079359 
L 139.722407 290.144295 
L 140.151088 294.96125 
L 140.57977 309.029982 
L 141.437132 293.816998 
L 141.865813 289.057126 
L 142.294494 266.459886 
L 143.151857 288.947227 
L 143.580538 289.694368 
L 144.009219 280.320533 
L 144.4379 278.302392 
L 144.866581 277.19705 
L 145.295262 269.608479 
L 145.723944 277.300778 
L 146.152625 264.234853 
L 146.581306 276.502293 
L 147.009987 266.208574 
L 147.438668 259.447808 
L 147.86735 259.878552 
L 148.296031 252.675575 
L 148.724712 258.449774 
L 149.582074 246.095847 
L 150.010755 259.813569 
L 150.439437 263.649511 
L 150.868118 251.357316 
L 151.72548 254.419425 
L 152.154161 252.675902 
L 152.582843 253.764634 
L 153.011524 241.53265 
L 153.440205 237.401119 
L 153.868886 238.287144 
L 154.297567 249.892921 
L 154.726248 235.572303 
L 155.15493 248.171808 
L 155.583611 230.925777 
L 156.440973 249.644898 
L 157.298335 256.127456 
L 157.727017 255.650161 
L 158.155698 260.309694 
L 158.584379 237.953545 
L 159.01306 241.328901 
L 159.441741 250.980962 
L 159.870423 247.641711 
L 160.299104 253.957081 
L 160.727785 231.208834 
L 161.156466 259.534083 
L 161.585147 254.444361 
L 162.013828 253.099657 
L 162.44251 251.299411 
L 162.871191 259.33325 
L 163.299872 278.053161 
L 163.728553 271.479149 
L 164.157234 259.395649 
L 164.585915 264.152852 
L 165.014597 273.685603 
L 165.443278 268.500923 
L 165.871959 276.205743 
L 166.30064 269.170753 
L 166.729321 285.13052 
L 167.158003 272.010111 
L 168.444046 281.061656 
L 168.872727 281.168473 
L 169.301408 290.943002 
L 169.73009 288.647473 
L 170.158771 284.238951 
L 170.587452 282.766321 
L 171.016133 293.048243 
L 171.444814 297.48205 
L 172.302177 313.077251 
L 172.730858 309.924311 
L 173.159539 294.886874 
L 173.58822 301.174917 
L 174.016901 311.744183 
L 174.445583 315.675721 
L 174.874264 317.810414 
L 175.302945 308.046851 
L 175.731626 320.901171 
L 176.160307 310.106601 
L 176.588988 317.311212 
L 177.01767 313.851253 
L 177.446351 334.144746 
L 177.875032 328.673275 
L 178.303713 338.069319 
L 178.732394 327.486757 
L 179.589757 338.438715 
L 180.018438 325.490897 
L 180.447119 337.453302 
L 180.8758 332.554402 
L 181.304481 335.860656 
L 181.733163 350.416046 
L 182.161844 350.41914 
L 182.590525 346.12231 
L 183.019206 357.241419 
L 183.447887 343.993291 
L 183.876569 360.684955 
L 184.30525 337.176127 
L 184.733931 355.964797 
L 185.162612 338.411354 
L 185.591293 356.730599 
L 186.019974 362.067758 
L 186.448656 354.199474 
L 186.877337 354.625639 
L 187.306018 369.36 
L 187.734699 346.596681 
L 188.16338 365.069163 
L 188.592061 352.890095 
L 189.020743 351.533072 
L 189.449424 354.428015 
L 189.878105 356.388657 
L 190.306786 353.428115 
L 190.735467 363.705504 
L 191.164149 360.989931 
L 191.59283 363.034149 
L 192.021511 339.685282 
L 192.450192 339.626578 
L 193.307554 360.855935 
L 194.164917 335.628961 
L 194.593598 351.184196 
L 195.022279 339.194745 
L 195.45096 352.774494 
L 195.879641 337.345402 
L 196.308323 349.704967 
L 196.737004 350.458971 
L 197.165685 346.504321 
L 197.594366 344.062014 
L 198.023047 342.631833 
L 198.451729 326.881574 
L 198.88041 330.649094 
L 199.309091 331.996662 
L 199.737772 336.409739 
L 200.166453 333.753103 
L 200.595134 329.552547 
L 201.023816 330.360315 
L 201.452497 322.506566 
L 201.881178 312.52244 
L 202.309859 324.164947 
L 202.73854 299.53695 
L 203.167222 320.63122 
L 203.595903 308.04248 
L 204.024584 284.893958 
L 204.453265 294.954562 
L 204.881946 302.169123 
L 205.310627 304.916372 
L 205.739309 290.291945 
L 206.16799 292.874224 
L 206.596671 293.496823 
L 207.025352 285.238429 
L 207.454033 289.616121 
L 207.882714 260.704745 
L 208.740077 271.771859 
L 209.168758 269.983999 
L 209.597439 278.242565 
L 210.02612 263.92043 
L 210.454802 272.059139 
L 210.883483 275.392889 
L 211.312164 248.863696 
L 211.740845 270.410635 
L 212.169526 262.975092 
L 213.026889 264.447063 
L 213.45557 249.495861 
L 213.884251 265.500005 
L 214.312932 252.594865 
L 214.741613 253.949333 
L 215.170294 259.141832 
L 215.598976 246.418225 
L 216.027657 247.916942 
L 216.456338 247.813019 
L 216.885019 233.176404 
L 217.3137 235.647498 
L 217.742382 239.665729 
L 218.171063 236.440819 
L 218.599744 242.906907 
L 219.028425 237.417195 
L 219.457106 225.550191 
L 219.885787 234.172505 
L 220.314469 231.957091 
L 220.74315 215.645925 
L 221.171831 238.093706 
L 221.600512 223.636855 
L 222.029193 216.302692 
L 222.457875 240.089854 
L 222.886556 230.818041 
L 223.315237 234.182169 
L 223.743918 235.056975 
L 224.172599 239.847713 
L 224.60128 238.798677 
L 225.029962 220.862547 
L 225.458643 226.94521 
L 225.887324 225.898121 
L 226.316005 219.8881 
L 226.744686 236.743404 
L 227.173367 227.538781 
L 227.602049 235.761886 
L 228.03073 240.393906 
L 228.459411 229.375481 
L 229.316773 248.401975 
L 229.745455 242.672016 
L 230.174136 229.387726 
L 230.602817 233.497872 
L 231.031498 257.106018 
L 231.460179 245.557235 
L 231.88886 240.812792 
L 232.317542 263.288448 
L 232.746223 239.462811 
L 233.174904 257.662256 
L 233.603585 252.58144 
L 234.032266 258.441785 
L 234.460948 245.462218 
L 234.889629 273.135988 
L 235.31831 263.941819 
L 235.746991 273.830473 
L 236.175672 263.441133 
L 236.604353 250.210037 
L 237.033035 283.886484 
L 237.461716 273.823215 
L 237.890397 276.736407 
L 238.319078 264.722973 
L 238.747759 288.198187 
L 239.605122 270.11045 
L 240.033803 288.839423 
L 240.462484 294.829308 
L 240.891165 292.477193 
L 241.319846 289.124783 
L 241.748528 304.097295 
L 242.177209 284.161164 
L 242.60589 299.891839 
L 243.034571 326.559649 
L 243.463252 313.548684 
L 243.891933 293.289983 
L 244.320615 316.614917 
L 244.749296 311.270962 
L 245.177977 312.044209 
L 245.606658 327.793993 
L 246.035339 312.108302 
L 246.46402 314.538521 
L 246.892702 304.100305 
L 247.750064 322.606468 
L 248.178745 325.605589 
L 248.607426 321.356777 
L 249.036108 335.417674 
L 249.464789 328.469384 
L 249.89347 327.72634 
L 250.322151 327.329314 
L 250.750832 342.707426 
L 251.179513 321.949819 
L 251.608195 329.382765 
L 252.036876 315.129547 
L 252.465557 353.025186 
L 252.894238 342.853477 
L 253.322919 353.016785 
L 253.751601 342.726424 
L 254.180282 337.082863 
L 254.608963 325.7798 
L 255.037644 344.185092 
L 255.466325 350.7861 
L 256.323688 335.66571 
L 256.752369 339.327025 
L 257.18105 329.625565 
L 258.038412 354.070841 
L 258.467093 331.768367 
L 258.895775 348.655988 
L 259.324456 333.494185 
L 259.753137 333.683747 
L 260.181818 334.125376 
L 260.610499 321.858782 
L 261.039181 337.166013 
L 261.467862 345.464758 
L 261.896543 332.744946 
L 262.325224 334.032985 
L 263.182586 315.671161 
L 263.611268 343.229571 
L 264.039949 328.289053 
L 264.46863 324.309889 
L 264.897311 318.617333 
L 265.325992 327.391759 
L 265.754673 316.445117 
L 266.183355 314.670669 
L 266.612036 316.075622 
L 267.040717 315.051003 
L 267.469398 299.628076 
L 267.898079 304.231656 
L 268.326761 291.309631 
L 268.755442 307.886257 
L 269.184123 313.89474 
L 269.612804 304.500939 
L 270.041485 298.068627 
L 270.470166 298.585895 
L 270.898848 297.708385 
L 271.327529 305.160831 
L 271.75621 296.209735 
L 272.184891 296.328123 
L 272.613572 282.086853 
L 273.042254 279.357608 
L 273.470935 266.867112 
L 273.899616 280.178979 
L 274.328297 266.988639 
L 274.756978 276.589144 
L 275.185659 282.897241 
L 275.614341 264.078623 
L 276.043022 269.728954 
L 276.471703 270.017356 
L 276.900384 267.020171 
L 277.329065 249.158456 
L 277.757746 242.808169 
L 278.186428 245.31804 
L 279.04379 260.449736 
L 279.472471 245.419203 
L 279.901152 235.837795 
L 280.329834 236.134331 
L 280.758515 238.563355 
L 281.187196 237.422794 
L 281.615877 244.540658 
L 282.044558 231.902304 
L 282.473239 233.439061 
L 282.901921 231.673201 
L 283.330602 232.353323 
L 283.759283 238.884282 
L 284.187964 232.677757 
L 284.616645 219.865157 
L 285.045327 224.698835 
L 285.474008 223.694049 
L 285.902689 224.259835 
L 286.33137 209.852816 
L 286.760051 220.535866 
L 287.188732 217.723262 
L 287.617414 217.783949 
L 288.046095 226.460918 
L 288.474776 218.307073 
L 288.903457 206.398836 
L 289.332138 212.960293 
L 289.760819 228.721035 
L 290.189501 215.607626 
L 290.618182 211.40321 
L 291.046863 216.702246 
L 291.475544 209.524852 
L 292.332907 225.33906 
L 292.761588 210.664432 
L 293.190269 215.009161 
L 293.61895 213.146645 
L 294.047631 209.550998 
L 294.476312 217.336908 
L 294.904994 233.492983 
L 295.333675 219.604214 
L 295.762356 235.352335 
L 296.191037 227.056027 
L 296.619718 215.654218 
L 297.048399 239.357915 
L 297.477081 225.229605 
L 297.905762 232.583855 
L 298.334443 231.399681 
L 298.763124 222.117123 
L 299.191805 228.041111 
L 299.620487 222.588383 
L 300.049168 244.703566 
L 300.477849 244.212352 
L 300.90653 245.034752 
L 301.335211 241.608603 
L 301.763892 250.84466 
L 302.192574 251.250794 
L 302.621255 254.536071 
L 303.049936 243.262767 
L 303.478617 245.791442 
L 303.907298 244.790468 
L 304.33598 232.219299 
L 304.764661 258.305585 
L 305.193342 253.19519 
L 305.622023 233.651975 
L 306.050704 258.652817 
L 306.479385 266.181137 
L 306.908067 276.024443 
L 307.336748 274.678194 
L 307.765429 286.538602 
L 308.19411 287.798788 
L 308.622791 280.201383 
L 309.051472 276.326314 
L 309.480154 280.886266 
L 309.908835 286.705995 
L 310.337516 300.916766 
L 310.766197 282.194503 
L 311.194878 285.997846 
L 311.62356 278.345444 
L 312.052241 309.649772 
L 312.480922 298.452051 
L 312.909603 283.273494 
L 313.338284 298.967106 
L 313.766965 290.175066 
L 314.195647 298.831432 
L 314.624328 304.298353 
L 315.053009 299.472016 
L 315.48169 324.001094 
L 315.910371 313.298332 
L 316.339052 306.865766 
L 316.767734 302.14463 
L 317.625096 314.529724 
L 318.053777 307.805225 
L 318.91114 328.985169 
L 319.339821 320.900718 
L 319.768502 322.996705 
L 320.197183 319.346807 
L 320.625864 326.429763 
L 321.054545 318.395472 
L 321.483227 307.117821 
L 321.911908 340.102825 
L 322.340589 320.456413 
L 322.76927 331.774449 
L 323.197951 331.206586 
L 323.626633 341.331489 
L 324.055314 328.254666 
L 324.483995 323.195011 
L 324.912676 337.881678 
L 325.341357 309.292008 
L 325.770038 331.678861 
L 326.19872 344.044888 
L 327.056082 303.91473 
L 327.484763 309.575833 
L 327.913444 311.470174 
L 328.342125 314.704637 
L 328.770807 316.496498 
L 330.05685 335.697805 
L 330.485531 325.604208 
L 330.914213 329.314017 
L 331.342894 321.165698 
L 331.771575 305.181643 
L 332.200256 317.166304 
L 332.628937 321.001125 
L 333.057618 314.494283 
L 333.4863 318.973099 
L 333.914981 295.869206 
L 334.343662 313.361648 
L 334.772343 299.958665 
L 336.058387 276.533702 
L 336.487068 305.132795 
L 336.915749 280.306496 
L 337.34443 290.526912 
L 337.773111 285.07393 
L 338.201793 269.046034 
L 338.630474 284.005324 
L 339.059155 270.803728 
L 339.487836 274.926429 
L 339.916517 275.863278 
L 340.345198 257.440708 
L 340.77388 268.788696 
L 341.202561 266.258475 
L 341.631242 256.174415 
L 342.059923 251.904433 
L 342.488604 264.967232 
L 342.917286 245.120852 
L 343.345967 257.736953 
L 343.774648 257.466746 
L 344.203329 267.290754 
L 344.63201 246.531609 
L 345.060691 240.32958 
L 345.489373 246.68125 
L 345.918054 228.021012 
L 346.346735 231.056766 
L 346.775416 233.277246 
L 347.204097 216.778566 
L 347.632778 242.587914 
L 348.06146 225.512668 
L 348.490141 218.833724 
L 348.918822 232.43372 
L 349.347503 224.36962 
L 349.776184 220.895088 
L 350.204866 222.456263 
L 350.633547 216.473625 
L 351.062228 216.7859 
L 351.490909 220.97972 
L 351.91959 206.136437 
L 352.348271 216.053531 
L 352.776953 215.201151 
L 353.634315 193.349672 
L 354.062996 221.435961 
L 354.491677 203.99823 
L 354.920359 201.469382 
L 355.34904 203.808134 
L 355.777721 181.820386 
L 356.206402 192.213884 
L 356.635083 206.812916 
L 357.063764 207.178691 
L 357.492446 193.911403 
L 357.921127 192.912456 
L 358.349808 195.217349 
L 358.778489 206.341008 
L 359.20717 196.774592 
L 359.635851 202.120198 
L 360.064533 186.144568 
L 360.493214 209.266705 
L 360.921895 202.225733 
L 361.350576 211.657305 
L 361.779257 211.909855 
L 362.207939 204.304198 
L 363.065301 210.20162 
L 363.493982 193.906042 
L 363.922663 207.259959 
L 364.351344 198.010934 
L 364.780026 218.578746 
L 365.208707 213.658501 
L 365.637388 224.762618 
L 366.066069 202.225221 
L 366.49475 224.115522 
L 366.923431 204.992709 
L 367.352113 227.378253 
L 367.780794 221.510349 
L 368.209475 246.671087 
L 368.638156 226.335158 
L 369.066837 225.983725 
L 369.495519 244.171706 
L 369.9242 232.381939 
L 370.352881 234.869287 
L 370.781562 249.474718 
L 371.210243 228.483399 
L 371.638924 248.367856 
L 372.067606 242.129824 
L 372.496287 237.692292 
L 372.924968 249.050993 
L 373.353649 240.557647 
L 373.78233 247.95659 
L 374.211012 238.737099 
L 374.639693 259.088325 
L 375.068374 265.523037 
L 375.497055 254.968481 
L 375.925736 261.869787 
L 376.354417 264.947895 
L 376.783099 260.500504 
L 377.21178 262.807326 
L 377.640461 268.923413 
L 378.069142 265.904939 
L 379.355186 269.462235 
L 379.783867 268.747829 
L 380.212548 282.80481 
L 380.641229 287.329737 
L 381.06991 295.881758 
L 381.498592 289.421675 
L 381.927273 297.048723 
L 382.355954 287.547664 
L 382.784635 294.396211 
L 383.641997 304.187442 
L 384.070679 296.96733 
L 384.928041 310.91507 
L 385.356722 313.49569 
L 385.785403 293.578288 
L 386.214085 309.711807 
L 386.642766 311.502524 
L 387.071447 308.534731 
L 387.500128 311.832657 
L 388.35749 311.18697 
L 388.786172 314.285316 
L 389.214853 318.983483 
L 389.643534 304.225444 
L 390.072215 311.544181 
L 390.500896 323.078964 
L 390.929577 304.330475 
L 391.358259 325.879274 
L 391.78694 314.621138 
L 392.215621 313.584807 
L 392.644302 318.89444 
L 393.072983 308.304382 
L 393.501665 323.048227 
L 393.930346 297.125773 
L 394.359027 306.285917 
L 394.787708 294.432601 
L 395.216389 302.60139 
L 395.64507 321.430079 
L 396.073752 300.862697 
L 396.502433 301.551925 
L 396.931114 295.617585 
L 397.359795 294.053243 
L 397.788476 298.01026 
L 398.217157 295.234332 
L 398.645839 304.047064 
L 399.07452 284.345713 
L 399.503201 310.998223 
L 399.931882 310.363601 
L 400.360563 303.717848 
L 400.789245 283.425328 
L 401.217926 298.598539 
L 401.646607 290.625781 
L 402.075288 284.756917 
L 402.503969 287.536081 
L 402.93265 298.97273 
L 403.361332 269.487411 
L 403.790013 277.826207 
L 404.218694 270.527613 
L 405.076056 274.975083 
L 405.504738 144.911445 
L 406.3621 144.911445 
L 406.790781 270.916984 
L 407.219462 247.819575 
L 407.648143 264.002386 
L 408.076825 253.827049 
L 408.505506 263.559467 
L 408.934187 243.310041 
L 409.362868 241.670355 
L 409.791549 246.524856 
L 410.22023 228.741033 
L 410.648912 243.721906 
L 411.077593 239.484183 
L 411.506274 225.37409 
L 411.934955 228.432782 
L 412.363636 222.791589 
L 412.792318 215.317514 
L 413.220999 223.343338 
L 413.64968 217.695098 
L 414.078361 226.370087 
L 414.507042 214.907939 
L 414.935723 219.31797 
L 415.364405 203.910914 
L 415.793086 213.053514 
L 416.221767 210.449324 
L 416.650448 208.841214 
L 417.079129 224.114788 
L 417.50781 213.573972 
L 417.936492 186.972308 
L 418.365173 195.928783 
L 418.793854 199.983606 
L 419.222535 200.165001 
L 419.651216 198.784476 
L 420.079898 192.388132 
L 420.508579 66.96 
L 421.365941 66.96 
L 421.794622 202.142469 
L 422.651985 185.529174 
L 423.080666 201.257672 
L 423.509347 179.834403 
L 423.938028 177.933999 
L 424.366709 187.476274 
L 424.795391 184.750095 
L 425.224072 175.425183 
L 425.652753 191.450315 
L 426.081434 194.327393 
L 426.510115 196.133258 
L 426.938796 194.729558 
L 427.367478 192.687454 
L 427.796159 183.835378 
L 428.22484 195.276599 
L 428.653521 190.095038 
L 429.082202 187.02729 
L 429.510883 199.813686 
L 429.939565 177.730167 
L 430.368246 179.474374 
L 430.796927 206.58184 
L 431.225608 196.433157 
L 431.654289 196.557043 
L 432.082971 193.127441 
L 432.511652 205.645584 
L 432.940333 200.226747 
L 433.369014 191.828475 
L 433.797695 191.513125 
L 434.226376 199.435334 
L 434.655058 200.101704 
L 435.083739 210.025543 
L 435.51242 210.004519 
L 435.941101 198.243433 
L 436.369782 209.290425 
L 436.798464 217.449001 
L 437.227145 199.849736 
L 437.655826 220.497637 
L 438.084507 208.057284 
L 438.513188 214.719225 
L 438.941869 218.496339 
L 439.370551 226.416964 
L 439.799232 218.473461 
L 440.227913 241.92988 
L 441.085275 234.547939 
L 441.513956 233.397938 
L 441.942638 236.083054 
L 442.371319 241.601117 
L 442.8 243.890833 
L 443.228681 239.709191 
L 443.657362 251.480882 
L 444.086044 266.577823 
L 444.514725 250.317766 
L 444.943406 245.287186 
L 445.372087 246.485538 
L 445.800768 259.361636 
L 446.229449 259.557093 
L 446.658131 248.419969 
L 447.086812 268.649589 
L 447.515493 266.372721 
L 447.944174 263.184718 
L 448.372855 274.663024 
L 448.801536 275.049141 
L 449.230218 268.227715 
L 449.658899 280.908166 
L 450.08758 272.731939 
L 450.516261 288.357248 
L 450.944942 296.90129 
L 451.373624 276.257748 
L 451.802305 284.101584 
L 452.230986 288.082573 
L 452.659667 290.178814 
L 453.088348 278.719417 
L 453.517029 297.432959 
L 453.945711 281.345803 
L 454.374392 299.237096 
L 454.803073 292.623346 
L 455.231754 294.162858 
L 455.660435 288.329988 
L 456.089117 308.84312 
L 456.517798 296.674317 
L 456.946479 296.225689 
L 457.803841 286.423552 
L 458.232522 304.418548 
L 458.661204 293.573315 
L 459.089885 292.641676 
L 459.518566 286.43799 
L 459.947247 297.054221 
L 460.375928 286.456043 
L 460.804609 295.099722 
L 461.233291 297.937814 
L 461.661972 290.669034 
L 462.090653 292.036725 
L 462.519334 290.532386 
L 462.948015 284.567032 
L 463.376697 294.607098 
L 464.234059 291.991367 
L 464.66274 280.154518 
L 465.091421 271.589063 
L 465.520102 278.637034 
L 465.948784 276.680046 
L 466.377465 269.116193 
L 466.806146 287.339793 
L 467.234827 293.346604 
L 467.663508 288.683014 
L 468.09219 275.488028 
L 468.520871 275.666533 
L 468.949552 296.905056 
L 469.378233 262.15817 
L 469.806914 272.041412 
L 470.235595 268.663251 
L 470.664277 262.705281 
L 471.092958 275.051431 
L 471.521639 267.824078 
L 471.95032 250.971656 
L 472.379001 240.831998 
L 472.807682 249.387545 
L 473.236364 246.659763 
L 473.665045 264.934328 
L 474.093726 239.328165 
L 474.522407 236.357219 
L 474.951088 246.408968 
L 475.808451 230.814876 
L 476.237132 218.039145 
L 476.665813 243.085149 
L 477.094494 222.63981 
L 477.523175 217.287031 
L 477.951857 218.763612 
L 478.380538 221.589433 
L 478.809219 222.949653 
L 479.2379 217.911354 
L 479.666581 209.635774 
L 480.095262 223.706373 
L 480.523944 222.627825 
L 480.952625 216.064478 
L 481.381306 219.841392 
L 481.809987 219.72286 
L 482.238668 191.907068 
L 482.66735 209.172987 
L 483.096031 203.63099 
L 483.524712 206.945984 
L 483.953393 191.133994 
L 484.382074 189.127351 
L 484.810755 181.749726 
L 485.239437 193.895099 
L 485.668118 177.865791 
L 486.096799 185.546979 
L 486.52548 196.101128 
L 486.954161 173.987819 
L 487.382843 169.543919 
L 487.811524 174.217773 
L 488.240205 183.362651 
L 488.668886 189.907124 
L 489.097567 177.196334 
L 489.526248 187.859563 
L 489.95493 190.904537 
L 490.383611 168.887356 
L 490.812292 176.613057 
L 491.240973 176.822445 
L 491.669654 178.340159 
L 492.098335 161.39342 
L 492.527017 185.464411 
L 493.384379 166.912112 
L 493.81306 169.156861 
L 494.241741 176.80041 
L 494.670423 172.245987 
L 495.099104 173.545712 
L 495.527785 158.040309 
L 495.956466 171.734843 
L 496.385147 178.587478 
L 496.813828 163.643215 
L 497.24251 185.004254 
L 497.671191 170.497107 
L 498.099872 165.48874 
L 498.528553 186.582848 
L 498.957234 175.029135 
L 499.385915 170.827012 
L 499.814597 170.579249 
L 500.671959 166.377374 
L 501.10064 182.226255 
L 501.529321 192.499241 
L 501.958003 193.259337 
L 502.386684 182.617858 
L 502.815365 203.368556 
L 503.244046 187.619384 
L 503.672727 203.326743 
L 504.101408 203.214841 
L 504.53009 194.417928 
L 504.958771 204.185946 
L 505.387452 208.165334 
L 505.816133 208.788425 
L 506.244814 193.318643 
L 506.673496 218.882292 
L 507.102177 208.531118 
L 507.530858 215.523834 
L 507.959539 188.818506 
L 508.38822 217.281264 
L 508.816901 202.83736 
L 509.245583 213.107891 
L 509.674264 235.806611 
L 510.102945 220.512184 
L 510.531626 221.231559 
L 510.960307 229.121766 
L 511.388988 248.009694 
L 511.81767 214.890497 
L 512.246351 237.597714 
L 512.675032 250.018331 
L 513.103713 229.885417 
L 513.532394 244.638305 
L 513.961076 242.621709 
L 514.818438 263.943521 
L 515.247119 252.304088 
L 515.6758 246.560611 
L 516.104481 254.976998 
L 516.533163 256.503066 
L 517.390525 257.02873 
L 517.819206 264.331161 
L 518.247887 266.365898 
L 518.676569 271.612743 
L 519.10525 278.630149 
L 519.533931 280.624697 
L 519.962612 276.526334 
L 520.391293 277.506315 
L 520.819974 275.820867 
L 521.248656 161.858739 
L 522.106018 161.858739 
L 522.534699 273.711586 
L 522.96338 275.517539 
L 523.392061 278.711188 
L 523.820743 286.934211 
L 524.249424 284.803446 
L 524.678105 283.467048 
L 525.106786 280.035878 
L 525.535467 281.411527 
L 525.964149 266.15722 
L 526.39283 284.394235 
L 526.821511 287.902554 
L 527.250192 295.372599 
L 527.678873 289.880142 
L 528.107554 259.374621 
L 528.536236 278.376588 
L 528.964917 272.878806 
L 529.393598 278.291644 
L 529.822279 277.961625 
L 530.25096 280.184998 
L 531.108323 265.013532 
L 531.537004 268.648885 
L 531.965685 277.086306 
L 532.394366 273.213958 
L 532.823047 285.122204 
L 533.251729 262.056287 
L 533.68041 255.017634 
L 534.109091 281.589831 
L 534.537772 267.512261 
L 534.966453 273.195386 
L 535.395134 274.219568 
L 535.823816 253.417709 
L 536.252497 250.810788 
L 536.681178 241.696215 
L 537.109859 252.67482 
L 537.53854 270.275736 
L 537.967222 248.788829 
L 538.395903 256.68438 
L 539.253265 244.526004 
L 539.681946 243.768579 
L 540.110627 235.432013 
L 540.539309 245.363698 
L 540.96799 243.242362 
L 541.825352 225.450047 
L 542.254033 233.764659 
L 542.682714 233.697404 
L 543.111396 234.159546 
L 543.540077 229.554662 
L 543.968758 223.192093 
L 544.397439 228.192461 
L 544.82612 210.124505 
L 545.254802 230.841956 
L 545.683483 212.405764 
L 546.112164 220.873282 
L 546.540845 196.075929 
L 546.969526 208.255987 
L 547.398207 192.1029 
L 547.826889 202.824273 
L 548.25557 198.795029 
L 548.684251 203.346182 
L 549.112932 218.493596 
L 549.541613 176.496017 
L 549.970294 200.113039 
L 550.398976 164.540906 
L 550.827657 181.367849 
L 551.256338 186.892109 
L 551.685019 174.319002 
L 552.1137 170.922694 
L 552.542382 178.454912 
L 552.971063 173.650605 
L 553.399744 157.602781 
L 553.828425 183.362305 
L 554.257106 170.410921 
L 554.685787 161.855018 
L 555.114469 179.0741 
L 555.54315 180.940907 
L 555.971831 153.241791 
L 556.400512 169.809782 
L 556.829193 171.197559 
L 557.257875 161.798696 
L 557.686556 165.283318 
L 558.115237 164.530199 
L 558.543918 171.079552 
L 558.972599 166.156765 
L 559.40128 150.851093 
L 559.829962 153.354591 
L 560.258643 162.596163 
L 560.687324 136.638002 
L 561.116005 144.35816 
L 561.544686 162.995767 
L 561.973367 157.630758 
L 562.402049 184.191406 
L 562.83073 149.09547 
L 563.259411 152.757272 
L 563.688092 162.062846 
L 564.545455 158.221651 
L 564.974136 151.05147 
L 565.402817 168.548287 
L 565.831498 152.244371 
L 566.260179 155.791702 
L 566.68886 169.089315 
L 567.117542 166.675777 
L 567.546223 149.927045 
L 567.974904 168.002224 
L 568.403585 179.711167 
L 568.832266 181.81005 
L 569.260948 171.457116 
L 569.689629 170.392457 
L 570.11831 171.899295 
L 570.546991 177.898815 
L 570.975672 194.031739 
L 571.833035 173.207827 
L 572.261716 202.43397 
L 572.690397 179.658526 
L 573.119078 199.213184 
L 573.547759 190.670641 
L 573.97644 202.702179 
L 574.405122 186.063415 
L 574.833803 200.089061 
L 575.262484 193.693805 
L 575.691165 206.160497 
L 576.548528 216.541097 
L 576.977209 215.787636 
L 577.40589 211.275103 
L 577.834571 198.858452 
L 578.263252 207.970717 
L 578.691933 220.385729 
L 579.120615 215.223762 
L 579.549296 227.897454 
L 579.977977 226.864073 
L 580.406658 222.550637 
L 580.835339 203.451192 
L 581.26402 226.276317 
L 581.692702 229.490457 
L 582.121383 251.821248 
L 582.550064 224.587997 
L 582.978745 226.001133 
L 583.407426 252.167772 
L 583.836108 240.457875 
L 584.264789 249.377628 
L 584.69347 243.165706 
L 585.122151 250.172635 
L 585.550832 239.048013 
L 585.979513 247.519313 
L 586.408195 250.240995 
L 586.836876 249.239055 
L 587.265557 269.288038 
L 587.694238 265.277224 
L 588.122919 245.208975 
L 588.551601 256.371139 
L 588.980282 255.728477 
L 589.408963 272.096982 
L 589.837644 242.986746 
L 590.266325 266.763545 
L 590.695006 258.973718 
L 591.123688 266.045531 
L 591.552369 256.748732 
L 591.98105 272.789512 
L 592.409731 257.336396 
L 592.838412 257.587907 
L 593.267093 273.017518 
L 593.695775 280.552046 
L 594.124456 263.349595 
L 594.553137 286.546514 
L 594.981818 260.572799 
L 595.410499 260.223661 
L 595.839181 259.709715 
L 596.267862 268.90549 
L 596.696543 250.246206 
L 597.125224 266.343528 
L 597.553905 272.676737 
L 597.982586 267.079815 
L 598.411268 273.663513 
L 598.839949 272.916935 
L 599.26863 259.473664 
L 599.697311 259.760328 
L 600.125992 263.563211 
L 600.554673 259.658249 
L 600.983355 257.83431 
L 601.412036 257.736637 
L 601.840717 238.810938 
L 602.269398 257.185242 
L 602.698079 244.791351 
L 603.126761 251.798333 
L 603.555442 256.143088 
L 603.984123 253.3168 
L 604.412804 242.227484 
L 604.841485 246.446629 
L 605.270166 238.324238 
L 605.698848 234.75914 
L 606.127529 229.356493 
L 606.55621 242.054171 
L 606.984891 219.770906 
L 607.413572 245.170605 
L 607.842254 242.994475 
L 608.270935 214.944485 
L 608.699616 211.742072 
L 609.128297 229.60257 
L 609.556978 213.307256 
L 609.985659 226.322058 
L 610.414341 199.291264 
L 610.843022 209.768466 
L 611.700384 208.334203 
L 612.129065 213.512943 
L 612.557746 193.479475 
L 612.986428 198.177819 
L 613.415109 191.60485 
L 613.84379 200.203567 
L 614.272471 194.590812 
L 614.701152 186.610956 
L 615.129834 201.038653 
L 615.558515 191.978472 
L 615.987196 186.97087 
L 616.415877 174.690218 
L 616.844558 185.251026 
L 617.273239 184.275148 
L 617.701921 169.470201 
L 618.130602 177.315183 
L 618.559283 160.361751 
L 618.987964 181.179542 
L 619.416645 168.194525 
L 619.845327 169.920155 
L 620.274008 165.74045 
L 620.702689 153.575772 
L 621.13137 152.028406 
L 621.560051 162.829286 
L 621.988732 170.651671 
L 622.417414 159.894636 
L 622.846095 140.810762 
L 623.274776 150.934811 
L 623.703457 156.991525 
L 624.989501 130.904061 
L 625.846863 153.175771 
L 626.275544 124.976085 
L 626.704225 142.819834 
L 627.132907 131.093932 
L 627.561588 131.689886 
L 627.990269 159.500341 
L 628.41895 128.295442 
L 628.847631 142.910037 
L 629.276312 149.004243 
L 629.704994 141.374083 
L 630.133675 141.466588 
L 630.562356 142.175855 
L 630.991037 143.970362 
L 631.419718 130.491828 
L 631.848399 134.970308 
L 632.277081 141.424459 
L 632.705762 149.85372 
L 633.134443 135.250353 
L 633.563124 140.782857 
L 633.991805 151.059965 
L 634.420487 152.702943 
L 634.849168 151.729311 
L 635.277849 152.167825 
L 636.135211 145.989114 
L 636.563892 153.003558 
L 636.992574 170.524844 
L 637.421255 154.899372 
L 637.849936 150.203994 
L 638.278617 172.225582 
L 638.707298 178.861834 
L 639.13598 158.069679 
L 639.564661 169.839447 
L 639.993342 164.16034 
L 640.422023 172.43903 
L 640.850704 157.760509 
L 641.708067 170.995529 
L 642.136748 171.550221 
L 642.565429 172.674283 
L 642.99411 173.338435 
L 643.422791 192.879559 
L 643.851472 173.860656 
L 644.280154 201.421373 
L 644.708835 209.817356 
L 645.137516 195.516861 
L 645.566197 190.860658 
L 645.994878 195.053048 
L 646.42356 195.720827 
L 646.852241 201.997643 
L 647.280922 210.170521 
L 647.709603 206.093083 
L 648.138284 194.28383 
L 648.566965 213.994323 
L 648.995647 209.644958 
L 649.424328 211.790849 
L 649.853009 207.718822 
L 650.28169 229.293381 
L 651.139052 221.64958 
L 651.567734 229.55576 
L 651.996415 226.358812 
L 652.425096 231.856196 
L 653.282458 246.880728 
L 653.71114 227.964585 
L 654.139821 235.569899 
L 654.568502 231.60476 
L 654.997183 258.896465 
L 655.425864 231.90194 
L 656.283227 247.249878 
L 656.711908 240.054738 
L 657.140589 243.313306 
L 657.56927 241.353237 
L 657.997951 243.131596 
L 658.426633 247.031347 
L 658.855314 247.971416 
L 659.283995 254.943588 
L 659.712676 246.568105 
L 660.141357 255.394319 
L 660.570038 240.23536 
L 660.99872 250.692263 
L 661.427401 239.634948 
L 661.856082 254.866073 
L 662.284763 253.654209 
L 662.713444 244.77438 
L 663.142125 242.1628 
L 663.570807 261.013003 
L 663.999488 244.041645 
L 664.428169 241.425007 
L 664.85685 253.856091 
L 665.285531 243.587671 
L 665.714213 254.292749 
L 666.142894 252.476786 
L 666.571575 248.612628 
L 667.000256 252.022343 
L 667.428937 232.660772 
L 667.857618 244.31178 
L 668.2863 246.293932 
L 668.714981 255.206792 
L 669.143662 239.468188 
L 669.572343 245.113084 
L 670.001024 240.523826 
L 670.429706 238.425665 
L 670.858387 247.889492 
L 671.287068 228.13134 
L 671.715749 228.466398 
L 672.14443 224.918734 
L 673.001793 240.156932 
L 673.430474 206.02414 
L 673.859155 208.436009 
L 674.287836 222.042957 
L 674.716517 228.16322 
L 675.145198 215.354339 
L 675.57388 211.90916 
L 676.002561 226.737404 
L 676.431242 209.330069 
L 676.859923 203.908158 
L 677.288604 187.984877 
L 677.717286 209.154209 
L 678.145967 177.106523 
L 679.003329 193.091141 
L 679.43201 193.282005 
L 680.289373 174.559898 
L 680.718054 170.745726 
L 681.146735 178.906037 
L 681.575416 184.643403 
L 682.004097 166.381891 
L 682.432778 164.493663 
L 682.86146 175.969395 
L 683.290141 177.573744 
L 683.718822 167.488695 
L 684.147503 161.19723 
L 684.576184 163.894978 
L 685.004866 168.596756 
L 685.433547 164.833642 
L 685.862228 148.717754 
L 686.290909 147.847048 
L 686.71959 148.823434 
L 687.148271 155.293502 
L 687.576953 149.252742 
L 688.005634 155.626224 
L 688.434315 136.87367 
L 688.862996 157.873121 
L 689.291677 143.28431 
L 689.720359 141.753331 
L 690.14904 143.683148 
L 690.577721 116.1962 
L 691.006402 117.03353 
L 691.435083 138.84202 
L 691.863764 129.650374 
L 692.292446 129.607274 
L 692.721127 127.684461 
L 693.149808 126.480342 
L 693.578489 135.516972 
L 694.00717 147.442615 
L 694.435851 132.400492 
L 694.864533 122.498851 
L 695.293214 132.652319 
L 695.721895 124.727728 
L 696.150576 133.870701 
L 696.579257 125.308011 
L 697.007939 123.112329 
L 697.43662 126.613927 
L 697.865301 136.138848 
L 698.293982 117.810069 
L 699.151344 139.252608 
L 699.580026 134.764717 
L 700.008707 128.819953 
L 700.866069 146.581251 
L 701.723431 133.90755 
L 702.152113 133.43931 
L 702.580794 122.7616 
L 703.009475 142.148615 
L 703.438156 145.235824 
L 703.866837 144.940111 
L 704.295519 132.276718 
L 704.7242 149.354777 
L 705.152881 144.715771 
L 705.581562 127.678247 
L 706.010243 157.700526 
L 706.438924 155.662068 
L 706.867606 154.302938 
L 707.296287 165.877199 
L 707.724968 152.565621 
L 708.153649 173.695212 
L 708.58233 161.500684 
L 709.011012 167.593769 
L 709.439693 168.329847 
L 709.868374 154.890239 
L 710.297055 160.651707 
L 710.725736 153.807388 
L 712.01178 180.599739 
L 712.440461 175.59919 
L 712.869142 177.311493 
L 713.297823 184.383821 
L 713.726504 196.708342 
L 714.155186 180.275366 
L 714.583867 195.551571 
L 715.012548 201.494833 
L 715.441229 192.727492 
L 715.86991 198.719463 
L 716.298592 189.373368 
L 716.727273 203.067475 
L 717.155954 192.210441 
L 717.584635 201.263015 
L 718.013316 204.057149 
L 718.441997 209.656457 
L 718.870679 199.665892 
L 719.29936 215.473621 
L 719.728041 219.077145 
L 720.156722 213.553475 
L 720.585403 215.384589 
L 721.014085 201.949714 
L 721.442766 220.907131 
L 721.871447 215.238717 
L 722.300128 223.890815 
L 722.728809 212.040357 
L 723.15749 221.563564 
L 723.586172 222.170503 
L 724.014853 226.453038 
L 724.443534 237.710097 
L 724.872215 236.204707 
L 725.300896 227.362253 
L 725.729577 241.671879 
L 726.158259 223.419492 
L 726.58694 245.390105 
L 727.015621 245.126174 
L 727.444302 245.340178 
L 728.301665 227.325726 
L 728.730346 249.980432 
L 729.159027 240.428277 
L 729.587708 236.489719 
L 730.016389 250.465557 
L 730.44507 239.199381 
L 730.873752 238.507574 
L 731.302433 227.819717 
L 731.731114 230.580429 
L 732.159795 246.770159 
L 732.588476 244.790911 
L 733.017157 240.853033 
L 733.445839 251.620509 
L 733.87452 242.847699 
L 734.303201 225.320191 
L 734.731882 234.529445 
L 735.160563 223.667165 
L 735.589245 222.13955 
L 736.017926 233.99598 
L 736.446607 230.161596 
L 736.875288 208.836179 
L 737.303969 226.331054 
L 737.73265 219.998806 
L 738.161332 210.574543 
L 738.590013 219.563859 
L 739.018694 215.521886 
L 739.447375 225.39028 
L 739.876056 196.174731 
L 740.304738 217.612014 
L 740.733419 219.040155 
L 741.1621 211.858467 
L 741.590781 190.181782 
L 742.019462 217.765906 
L 742.448143 202.391678 
L 742.876825 208.789358 
L 743.305506 204.810373 
L 743.734187 193.608248 
L 744.162868 187.499183 
L 744.591549 175.093839 
L 745.02023 190.111863 
L 745.448912 180.715218 
L 745.877593 205.293193 
L 746.306274 178.359642 
L 746.734955 163.25973 
L 747.163636 170.439258 
L 747.163636 170.439258 
" style="fill:none;stroke:#1f77b4;stroke-linecap:square;stroke-width:1.5;"/>
   </g>
   <g id="line2d_18">
    <path clip-path="url(#pa23505d675)" d="M 747.163636 384.48 
L 747.163636 51.84 
" style="fill:none;stroke:#808080;stroke-linecap:square;"/>
   </g>
   <g id="patch_51">
    <path d="M 108 384.48 
L 108 51.84 
" style="fill:none;stroke:#000000;stroke-linecap:square;stroke-linejoin:miter;stroke-width:0.8;"/>
   </g>
   <g id="patch_52">
    <path d="M 777.6 384.48 
L 777.6 51.84 
" style="fill:none;stroke:#000000;stroke-linecap:square;stroke-linejoin:miter;stroke-width:0.8;"/>
   </g>
   <g id="patch_53">
    <path d="M 108 384.48 
L 777.6 384.48 
" style="fill:none;stroke:#000000;stroke-linecap:square;stroke-linejoin:miter;stroke-width:0.8;"/>
   </g>
   <g id="patch_54">
    <path d="M 108 51.84 
L 777.6 51.84 
" style="fill:none;stroke:#000000;stroke-linecap:square;stroke-linejoin:miter;stroke-width:0.8;"/>
   </g>
   <g id="text_19">
    <!-- synthetic_80.csv -->
    <defs>
     <path d="M 32.171875 -5.078125 
Q 28.375 -14.84375 24.75 -17.8125 
Q 21.140625 -20.796875 15.09375 -20.796875 
L 7.90625 -20.796875 
L 7.90625 -13.28125 
L 13.1875 -13.28125 
Q 16.890625 -13.28125 18.9375 -11.515625 
Q 21 -9.765625 23.484375 -3.21875 
L 25.09375 0.875 
L 2.984375 54.6875 
L 12.5 54.6875 
L 29.59375 11.921875 
L 46.6875 54.6875 
L 56.203125 54.6875 
z
" id="DejaVuSans-121"/>
     <path d="M 54.890625 33.015625 
L 54.890625 0 
L 45.90625 0 
L 45.90625 32.71875 
Q 45.90625 40.484375 42.875 44.328125 
Q 39.84375 48.1875 33.796875 48.1875 
Q 26.515625 48.1875 22.3125 43.546875 
Q 18.109375 38.921875 18.109375 30.90625 
L 18.109375 0 
L 9.078125 0 
L 9.078125 54.6875 
L 18.109375 54.6875 
L 18.109375 46.1875 
Q 21.34375 51.125 25.703125 53.5625 
Q 30.078125 56 35.796875 56 
Q 45.21875 56 50.046875 50.171875 
Q 54.890625 44.34375 54.890625 33.015625 
z
" id="DejaVuSans-110"/>
     <path d="M 54.890625 33.015625 
L 54.890625 0 
L 45.90625 0 
L 45.90625 32.71875 
Q 45.90625 40.484375 42.875 44.328125 
Q 39.84375 48.1875 33.796875 48.1875 
Q 26.515625 48.1875 22.3125 43.546875 
Q 18.109375 38.921875 18.109375 30.90625 
L 18.109375 0 
L 9.078125 0 
L 9.078125 75.984375 
L 18.109375 75.984375 
L 18.109375 46.1875 
Q 21.34375 51.125 25.703125 53.5625 
Q 30.078125 56 35.796875 56 
Q 45.21875 56 50.046875 50.171875 
Q 54.890625 44.34375 54.890625 33.015625 
z
" id="DejaVuSans-104"/>
     <path d="M 48.78125 52.59375 
L 48.78125 44.1875 
Q 44.96875 46.296875 41.140625 47.34375 
Q 37.3125 48.390625 33.40625 48.390625 
Q 24.65625 48.390625 19.8125 42.84375 
Q 14.984375 37.3125 14.984375 27.296875 
Q 14.984375 17.28125 19.8125 11.734375 
Q 24.65625 6.203125 33.40625 6.203125 
Q 37.3125 6.203125 41.140625 7.25 
Q 44.96875 8.296875 48.78125 10.40625 
L 48.78125 2.09375 
Q 45.015625 0.34375 40.984375 -0.53125 
Q 36.96875 -1.421875 32.421875 -1.421875 
Q 20.0625 -1.421875 12.78125 6.34375 
Q 5.515625 14.109375 5.515625 27.296875 
Q 5.515625 40.671875 12.859375 48.328125 
Q 20.21875 56 33.015625 56 
Q 37.15625 56 41.109375 55.140625 
Q 45.0625 54.296875 48.78125 52.59375 
z
" id="DejaVuSans-99"/>
     <path d="M 50.984375 -16.609375 
L 50.984375 -23.578125 
L -0.984375 -23.578125 
L -0.984375 -16.609375 
z
" id="DejaVuSans-95"/>
     <path d="M 10.6875 12.40625 
L 21 12.40625 
L 21 0 
L 10.6875 0 
z
" id="DejaVuSans-46"/>
     <path d="M 2.984375 54.6875 
L 12.5 54.6875 
L 29.59375 8.796875 
L 46.6875 54.6875 
L 56.203125 54.6875 
L 35.6875 0 
L 23.484375 0 
z
" id="DejaVuSans-118"/>
    </defs>
    <g transform="translate(392.638125 45.84)scale(0.12 -0.12)">
     <use xlink:href="#DejaVuSans-115"/>
     <use x="52.099609" xlink:href="#DejaVuSans-121"/>
     <use x="111.279297" xlink:href="#DejaVuSans-110"/>
     <use x="174.658203" xlink:href="#DejaVuSans-116"/>
     <use x="213.867188" xlink:href="#DejaVuSans-104"/>
     <use x="277.246094" xlink:href="#DejaVuSans-101"/>
     <use x="338.769531" xlink:href="#DejaVuSans-116"/>
     <use x="377.978516" xlink:href="#DejaVuSans-105"/>
     <use x="405.761719" xlink:href="#DejaVuSans-99"/>
     <use x="460.742188" xlink:href="#DejaVuSans-95"/>
     <use x="510.742188" xlink:href="#DejaVuSans-56"/>
     <use x="574.365234" xlink:href="#DejaVuSans-48"/>
     <use x="637.988281" xlink:href="#DejaVuSans-46"/>
     <use x="669.775391" xlink:href="#DejaVuSans-99"/>
     <use x="724.755859" xlink:href="#DejaVuSans-115"/>
     <use x="776.855469" xlink:href="#DejaVuSans-118"/>
    </g>
   </g>
   <g id="legend_1">
    <g id="patch_55">
     <path d="M 115 74.518125 
L 174.315625 74.518125 
Q 176.315625 74.518125 176.315625 72.518125 
L 176.315625 58.84 
Q 176.315625 56.84 174.315625 56.84 
L 115 56.84 
Q 113 56.84 113 58.84 
L 113 72.518125 
Q 113 74.518125 115 74.518125 
z
" style="fill:#ffffff;opacity:0.8;stroke:#cccccc;stroke-linejoin:miter;"/>
    </g>
    <g id="line2d_19">
     <path d="M 117 64.938438 
L 137 64.938438 
" style="fill:none;stroke:#1f77b4;stroke-linecap:square;stroke-width:1.5;"/>
    </g>
    <g id="line2d_20"/>
    <g id="text_20">
     <!-- value -->
     <g transform="translate(145 68.438438)scale(0.1 -0.1)">
      <use xlink:href="#DejaVuSans-118"/>
      <use x="59.179688" xlink:href="#DejaVuSans-97"/>
      <use x="120.458984" xlink:href="#DejaVuSans-108"/>
      <use x="148.242188" xlink:href="#DejaVuSans-117"/>
      <use x="211.621094" xlink:href="#DejaVuSans-101"/>
     </g>
    </g>
   </g>
  </g>
 </g>
 <defs>
  <clipPath id="pa23505d675">
   <rect height="332.64" width="669.6" x="108" y="51.84"/>
  </clipPath>
 </defs>
</svg>
