<?xml version="1.0" encoding="utf-8" standalone="no"?>
<!DOCTYPE svg PUBLIC "-//W3C//DTD SVG 1.1//EN"
  "http://www.w3.org/Graphics/SVG/1.1/DTD/svg11.dtd">
<!-- Created with matplotlib (https://matplotlib.org/) -->
<svg height="432pt" version="1.1" viewBox="0 0 864 432" width="864pt" xmlns="http://www.w3.org/2000/svg" xmlns:xlink="http://www.w3.org/1999/xlink">
 <defs>
  <style type="text/css">
*{stroke-linecap:butt;stroke-linejoin:round;}
  </style>
 </defs>
 <g id="figure_1">
  <g id="patch_1">
   <path d="M 0 432 
L 864 432 
L 864 0 
L 0 0 
z
" style="fill:#ffffff;"/>
  </g>
  <g id="axes_1">
   <g id="patch_2">
    <path d="M 108 384.48 
L 777.6 384.48 
L 777.6 51.84 
L 108 51.84 
z
" style="fill:#ffffff;"/>
   </g>
   <g id="patch_3">
    <path clip-path="url(#p3d957a98f2)" d="M 138.436364 384.48 
L 138.436364 51.84 
L 378.497823 51.84 
L 378.497823 384.48 
z
" style="fill:#0000ff;opacity:0.05;"/>
   </g>
   <g id="patch_4">
    <path clip-path="url(#p3d957a98f2)" d="M 378.497823 384.48 
L 378.497823 51.84 
L 747.163636 51.84 
L 747.163636 384.48 
z
" style="fill:#ff0000;opacity:0.08;"/>
   </g>
   <g id="patch_5">
    <path clip-path="url(#p3d957a98f2)" d="M 138.436364 384.48 
L 138.436364 51.84 
L 147.009987 51.84 
L 147.009987 384.48 
z
" style="fill:#008000;opacity:0.04;"/>
   </g>
   <g id="patch_6">
    <path clip-path="url(#p3d957a98f2)" d="M 147.009987 384.48 
L 147.009987 371.1744 
L 155.583611 371.1744 
L 155.583611 384.48 
z
" style="fill:#ffe500;"/>
   </g>
   <g id="patch_7">
    <path clip-path="url(#p3d957a98f2)" d="M 155.583611 384.48 
L 155.583611 51.84 
L 164.157234 51.84 
L 164.157234 384.48 
z
" style="fill:#008000;opacity:0.04;"/>
   </g>
   <g id="patch_8">
    <path clip-path="url(#p3d957a98f2)" d="M 172.730858 384.48 
L 172.730858 51.84 
L 181.304481 51.84 
L 181.304481 384.48 
z
" style="fill:#008000;opacity:0.04;"/>
   </g>
   <g id="patch_9">
    <path clip-path="url(#p3d957a98f2)" d="M 412.792318 384.48 
L 412.792318 371.1744 
L 421.365941 371.1744 
L 421.365941 384.48 
z
" style="fill:#ff6600;"/>
   </g>
   <g id="patch_10">
    <path clip-path="url(#p3d957a98f2)" d="M 189.878105 384.48 
L 189.878105 51.84 
L 198.451729 51.84 
L 198.451729 384.48 
z
" style="fill:#008000;opacity:0.04;"/>
   </g>
   <g id="patch_11">
    <path clip-path="url(#p3d957a98f2)" d="M 207.025352 384.48 
L 207.025352 51.84 
L 215.598976 51.84 
L 215.598976 384.48 
z
" style="fill:#008000;opacity:0.04;"/>
   </g>
   <g id="patch_12">
    <path clip-path="url(#p3d957a98f2)" d="M 224.172599 384.48 
L 224.172599 51.84 
L 232.746223 51.84 
L 232.746223 384.48 
z
" style="fill:#008000;opacity:0.04;"/>
   </g>
   <g id="patch_13">
    <path clip-path="url(#p3d957a98f2)" d="M 241.319846 384.48 
L 241.319846 51.84 
L 249.89347 51.84 
L 249.89347 384.48 
z
" style="fill:#008000;opacity:0.04;"/>
   </g>
   <g id="patch_14">
    <path clip-path="url(#p3d957a98f2)" d="M 258.467093 384.48 
L 258.467093 51.84 
L 267.040717 51.84 
L 267.040717 384.48 
z
" style="fill:#008000;opacity:0.04;"/>
   </g>
   <g id="patch_15">
    <path clip-path="url(#p3d957a98f2)" d="M 275.614341 384.48 
L 275.614341 51.84 
L 284.187964 51.84 
L 284.187964 384.48 
z
" style="fill:#008000;opacity:0.04;"/>
   </g>
   <g id="patch_16">
    <path clip-path="url(#p3d957a98f2)" d="M 275.614341 384.48 
L 275.614341 371.1744 
L 284.187964 371.1744 
L 284.187964 384.48 
z
" style="fill:#ffe500;"/>
   </g>
   <g id="patch_17">
    <path clip-path="url(#p3d957a98f2)" d="M 515.6758 384.48 
L 515.6758 371.1744 
L 524.249424 371.1744 
L 524.249424 384.48 
z
" style="fill:#ff6600;"/>
   </g>
   <g id="patch_18">
    <path clip-path="url(#p3d957a98f2)" d="M 292.761588 384.48 
L 292.761588 51.84 
L 301.335211 51.84 
L 301.335211 384.48 
z
" style="fill:#008000;opacity:0.04;"/>
   </g>
   <g id="patch_19">
    <path clip-path="url(#p3d957a98f2)" d="M 309.908835 384.48 
L 309.908835 51.84 
L 318.482458 51.84 
L 318.482458 384.48 
z
" style="fill:#008000;opacity:0.04;"/>
   </g>
   <g id="patch_20">
    <path clip-path="url(#p3d957a98f2)" d="M 327.056082 384.48 
L 327.056082 51.84 
L 335.629706 51.84 
L 335.629706 384.48 
z
" style="fill:#008000;opacity:0.04;"/>
   </g>
   <g id="patch_21">
    <path clip-path="url(#p3d957a98f2)" d="M 344.203329 384.48 
L 344.203329 51.84 
L 352.776953 51.84 
L 352.776953 384.48 
z
" style="fill:#008000;opacity:0.04;"/>
   </g>
   <g id="patch_22">
    <path clip-path="url(#p3d957a98f2)" d="M 361.350576 384.48 
L 361.350576 51.84 
L 369.9242 51.84 
L 369.9242 384.48 
z
" style="fill:#008000;opacity:0.04;"/>
   </g>
   <g id="patch_23">
    <path clip-path="url(#p3d957a98f2)" d="M 378.497823 384.48 
L 378.497823 51.84 
L 387.071447 51.84 
L 387.071447 384.48 
z
" style="fill:#008000;opacity:0.04;"/>
   </g>
   <g id="patch_24">
    <path clip-path="url(#p3d957a98f2)" d="M 395.64507 384.48 
L 395.64507 51.84 
L 404.218694 51.84 
L 404.218694 384.48 
z
" style="fill:#008000;opacity:0.04;"/>
   </g>
   <g id="patch_25">
    <path clip-path="url(#p3d957a98f2)" d="M 412.792318 384.48 
L 412.792318 51.84 
L 421.365941 51.84 
L 421.365941 384.48 
z
" style="fill:#008000;opacity:0.04;"/>
   </g>
   <g id="patch_26">
    <path clip-path="url(#p3d957a98f2)" d="M 412.792318 371.1744 
L 412.792318 51.84 
L 421.365941 51.84 
L 421.365941 371.1744 
z
" style="fill:#008000;opacity:0.5;"/>
   </g>
   <g id="patch_27">
    <path clip-path="url(#p3d957a98f2)" d="M 429.939565 384.48 
L 429.939565 51.84 
L 438.513188 51.84 
L 438.513188 384.48 
z
" style="fill:#008000;opacity:0.04;"/>
   </g>
   <g id="patch_28">
    <path clip-path="url(#p3d957a98f2)" d="M 447.086812 384.48 
L 447.086812 51.84 
L 455.660435 51.84 
L 455.660435 384.48 
z
" style="fill:#008000;opacity:0.04;"/>
   </g>
   <g id="patch_29">
    <path clip-path="url(#p3d957a98f2)" d="M 464.234059 384.48 
L 464.234059 51.84 
L 472.807682 51.84 
L 472.807682 384.48 
z
" style="fill:#008000;opacity:0.04;"/>
   </g>
   <g id="patch_30">
    <path clip-path="url(#p3d957a98f2)" d="M 481.381306 384.48 
L 481.381306 51.84 
L 489.95493 51.84 
L 489.95493 384.48 
z
" style="fill:#008000;opacity:0.04;"/>
   </g>
   <g id="patch_31">
    <path clip-path="url(#p3d957a98f2)" d="M 498.528553 384.48 
L 498.528553 51.84 
L 507.102177 51.84 
L 507.102177 384.48 
z
" style="fill:#008000;opacity:0.04;"/>
   </g>
   <g id="patch_32">
    <path clip-path="url(#p3d957a98f2)" d="M 515.6758 384.48 
L 515.6758 51.84 
L 524.249424 51.84 
L 524.249424 384.48 
z
" style="fill:#008000;opacity:0.04;"/>
   </g>
   <g id="patch_33">
    <path clip-path="url(#p3d957a98f2)" d="M 515.6758 371.1744 
L 515.6758 51.84 
L 524.249424 51.84 
L 524.249424 371.1744 
z
" style="fill:#008000;opacity:0.5;"/>
   </g>
   <g id="patch_34">
    <path clip-path="url(#p3d957a98f2)" d="M 532.823047 384.48 
L 532.823047 51.84 
L 541.396671 51.84 
L 541.396671 384.48 
z
" style="fill:#008000;opacity:0.04;"/>
   </g>
   <g id="patch_35">
    <path clip-path="url(#p3d957a98f2)" d="M 549.970294 384.48 
L 549.970294 51.84 
L 558.543918 51.84 
L 558.543918 384.48 
z
" style="fill:#008000;opacity:0.04;"/>
   </g>
   <g id="patch_36">
    <path clip-path="url(#p3d957a98f2)" d="M 567.117542 384.48 
L 567.117542 51.84 
L 575.691165 51.84 
L 575.691165 384.48 
z
" style="fill:#008000;opacity:0.04;"/>
   </g>
   <g id="patch_37">
    <path clip-path="url(#p3d957a98f2)" d="M 584.264789 384.48 
L 584.264789 51.84 
L 592.838412 51.84 
L 592.838412 384.48 
z
" style="fill:#008000;opacity:0.04;"/>
   </g>
   <g id="patch_38">
    <path clip-path="url(#p3d957a98f2)" d="M 601.412036 384.48 
L 601.412036 51.84 
L 609.985659 51.84 
L 609.985659 384.48 
z
" style="fill:#008000;opacity:0.04;"/>
   </g>
   <g id="patch_39">
    <path clip-path="url(#p3d957a98f2)" d="M 618.559283 384.48 
L 618.559283 51.84 
L 627.132907 51.84 
L 627.132907 384.48 
z
" style="fill:#008000;opacity:0.04;"/>
   </g>
   <g id="patch_40">
    <path clip-path="url(#p3d957a98f2)" d="M 635.70653 384.48 
L 635.70653 51.84 
L 644.280154 51.84 
L 644.280154 384.48 
z
" style="fill:#008000;opacity:0.04;"/>
   </g>
   <g id="patch_41">
    <path clip-path="url(#p3d957a98f2)" d="M 652.853777 384.48 
L 652.853777 51.84 
L 661.427401 51.84 
L 661.427401 384.48 
z
" style="fill:#008000;opacity:0.04;"/>
   </g>
   <g id="patch_42">
    <path clip-path="url(#p3d957a98f2)" d="M 670.001024 384.48 
L 670.001024 51.84 
L 678.574648 51.84 
L 678.574648 384.48 
z
" style="fill:#008000;opacity:0.04;"/>
   </g>
   <g id="patch_43">
    <path clip-path="url(#p3d957a98f2)" d="M 687.148271 384.48 
L 687.148271 51.84 
L 695.721895 51.84 
L 695.721895 384.48 
z
" style="fill:#008000;opacity:0.04;"/>
   </g>
   <g id="patch_44">
    <path clip-path="url(#p3d957a98f2)" d="M 704.295519 384.48 
L 704.295519 51.84 
L 712.869142 51.84 
L 712.869142 384.48 
z
" style="fill:#008000;opacity:0.04;"/>
   </g>
   <g id="patch_45">
    <path clip-path="url(#p3d957a98f2)" d="M 721.442766 384.48 
L 721.442766 51.84 
L 730.016389 51.84 
L 730.016389 384.48 
z
" style="fill:#008000;opacity:0.04;"/>
   </g>
   <g id="patch_46">
    <path clip-path="url(#p3d957a98f2)" d="M 738.590013 384.48 
L 738.590013 51.84 
L 747.163636 51.84 
L 747.163636 384.48 
z
" style="fill:#008000;opacity:0.04;"/>
   </g>
   <g id="matplotlib.axis_1">
    <g id="xtick_1">
     <g id="line2d_1">
      <defs>
       <path d="M 0 0 
L 0 3.5 
" id="m2e61a5889c" style="stroke:#000000;stroke-width:0.8;"/>
      </defs>
      <g>
       <use style="stroke:#000000;stroke-width:0.8;" x="138.436364" xlink:href="#m2e61a5889c" y="384.48"/>
      </g>
     </g>
     <g id="text_1">
      <!-- 0 -->
      <defs>
       <path d="M 31.78125 66.40625 
Q 24.171875 66.40625 20.328125 58.90625 
Q 16.5 51.421875 16.5 36.375 
Q 16.5 21.390625 20.328125 13.890625 
Q 24.171875 6.390625 31.78125 6.390625 
Q 39.453125 6.390625 43.28125 13.890625 
Q 47.125 21.390625 47.125 36.375 
Q 47.125 51.421875 43.28125 58.90625 
Q 39.453125 66.40625 31.78125 66.40625 
z
M 31.78125 74.21875 
Q 44.046875 74.21875 50.515625 64.515625 
Q 56.984375 54.828125 56.984375 36.375 
Q 56.984375 17.96875 50.515625 8.265625 
Q 44.046875 -1.421875 31.78125 -1.421875 
Q 19.53125 -1.421875 13.0625 8.265625 
Q 6.59375 17.96875 6.59375 36.375 
Q 6.59375 54.828125 13.0625 64.515625 
Q 19.53125 74.21875 31.78125 74.21875 
z
" id="DejaVuSans-48"/>
      </defs>
      <g transform="translate(135.255114 399.078438)scale(0.1 -0.1)">
       <use xlink:href="#DejaVuSans-48"/>
      </g>
     </g>
    </g>
    <g id="xtick_2">
     <g id="line2d_2">
      <g>
       <use style="stroke:#000000;stroke-width:0.8;" x="224.172599" xlink:href="#m2e61a5889c" y="384.48"/>
      </g>
     </g>
     <g id="text_2">
      <!-- 200 -->
      <defs>
       <path d="M 19.1875 8.296875 
L 53.609375 8.296875 
L 53.609375 0 
L 7.328125 0 
L 7.328125 8.296875 
Q 12.9375 14.109375 22.625 23.890625 
Q 32.328125 33.6875 34.8125 36.53125 
Q 39.546875 41.84375 41.421875 45.53125 
Q 43.3125 49.21875 43.3125 52.78125 
Q 43.3125 58.59375 39.234375 62.25 
Q 35.15625 65.921875 28.609375 65.921875 
Q 23.96875 65.921875 18.8125 64.3125 
Q 13.671875 62.703125 7.8125 59.421875 
L 7.8125 69.390625 
Q 13.765625 71.78125 18.9375 73 
Q 24.125 74.21875 28.421875 74.21875 
Q 39.75 74.21875 46.484375 68.546875 
Q 53.21875 62.890625 53.21875 53.421875 
Q 53.21875 48.921875 51.53125 44.890625 
Q 49.859375 40.875 45.40625 35.40625 
Q 44.1875 33.984375 37.640625 27.21875 
Q 31.109375 20.453125 19.1875 8.296875 
z
" id="DejaVuSans-50"/>
      </defs>
      <g transform="translate(214.628849 399.078438)scale(0.1 -0.1)">
       <use xlink:href="#DejaVuSans-50"/>
       <use x="63.623047" xlink:href="#DejaVuSans-48"/>
       <use x="127.246094" xlink:href="#DejaVuSans-48"/>
      </g>
     </g>
    </g>
    <g id="xtick_3">
     <g id="line2d_3">
      <g>
       <use style="stroke:#000000;stroke-width:0.8;" x="309.908835" xlink:href="#m2e61a5889c" y="384.48"/>
      </g>
     </g>
     <g id="text_3">
      <!-- 400 -->
      <defs>
       <path d="M 37.796875 64.3125 
L 12.890625 25.390625 
L 37.796875 25.390625 
z
M 35.203125 72.90625 
L 47.609375 72.90625 
L 47.609375 25.390625 
L 58.015625 25.390625 
L 58.015625 17.1875 
L 47.609375 17.1875 
L 47.609375 0 
L 37.796875 0 
L 37.796875 17.1875 
L 4.890625 17.1875 
L 4.890625 26.703125 
z
" id="DejaVuSans-52"/>
      </defs>
      <g transform="translate(300.365085 399.078438)scale(0.1 -0.1)">
       <use xlink:href="#DejaVuSans-52"/>
       <use x="63.623047" xlink:href="#DejaVuSans-48"/>
       <use x="127.246094" xlink:href="#DejaVuSans-48"/>
      </g>
     </g>
    </g>
    <g id="xtick_4">
     <g id="line2d_4">
      <g>
       <use style="stroke:#000000;stroke-width:0.8;" x="395.64507" xlink:href="#m2e61a5889c" y="384.48"/>
      </g>
     </g>
     <g id="text_4">
      <!-- 600 -->
      <defs>
       <path d="M 33.015625 40.375 
Q 26.375 40.375 22.484375 35.828125 
Q 18.609375 31.296875 18.609375 23.390625 
Q 18.609375 15.53125 22.484375 10.953125 
Q 26.375 6.390625 33.015625 6.390625 
Q 39.65625 6.390625 43.53125 10.953125 
Q 47.40625 15.53125 47.40625 23.390625 
Q 47.40625 31.296875 43.53125 35.828125 
Q 39.65625 40.375 33.015625 40.375 
z
M 52.59375 71.296875 
L 52.59375 62.3125 
Q 48.875 64.0625 45.09375 64.984375 
Q 41.3125 65.921875 37.59375 65.921875 
Q 27.828125 65.921875 22.671875 59.328125 
Q 17.53125 52.734375 16.796875 39.40625 
Q 19.671875 43.65625 24.015625 45.921875 
Q 28.375 48.1875 33.59375 48.1875 
Q 44.578125 48.1875 50.953125 41.515625 
Q 57.328125 34.859375 57.328125 23.390625 
Q 57.328125 12.15625 50.6875 5.359375 
Q 44.046875 -1.421875 33.015625 -1.421875 
Q 20.359375 -1.421875 13.671875 8.265625 
Q 6.984375 17.96875 6.984375 36.375 
Q 6.984375 53.65625 15.1875 63.9375 
Q 23.390625 74.21875 37.203125 74.21875 
Q 40.921875 74.21875 44.703125 73.484375 
Q 48.484375 72.75 52.59375 71.296875 
z
" id="DejaVuSans-54"/>
      </defs>
      <g transform="translate(386.10132 399.078438)scale(0.1 -0.1)">
       <use xlink:href="#DejaVuSans-54"/>
       <use x="63.623047" xlink:href="#DejaVuSans-48"/>
       <use x="127.246094" xlink:href="#DejaVuSans-48"/>
      </g>
     </g>
    </g>
    <g id="xtick_5">
     <g id="line2d_5">
      <g>
       <use style="stroke:#000000;stroke-width:0.8;" x="481.381306" xlink:href="#m2e61a5889c" y="384.48"/>
      </g>
     </g>
     <g id="text_5">
      <!-- 800 -->
      <defs>
       <path d="M 31.78125 34.625 
Q 24.75 34.625 20.71875 30.859375 
Q 16.703125 27.09375 16.703125 20.515625 
Q 16.703125 13.921875 20.71875 10.15625 
Q 24.75 6.390625 31.78125 6.390625 
Q 38.8125 6.390625 42.859375 10.171875 
Q 46.921875 13.96875 46.921875 20.515625 
Q 46.921875 27.09375 42.890625 30.859375 
Q 38.875 34.625 31.78125 34.625 
z
M 21.921875 38.8125 
Q 15.578125 40.375 12.03125 44.71875 
Q 8.5 49.078125 8.5 55.328125 
Q 8.5 64.0625 14.71875 69.140625 
Q 20.953125 74.21875 31.78125 74.21875 
Q 42.671875 74.21875 48.875 69.140625 
Q 55.078125 64.0625 55.078125 55.328125 
Q 55.078125 49.078125 51.53125 44.71875 
Q 48 40.375 41.703125 38.8125 
Q 48.828125 37.15625 52.796875 32.3125 
Q 56.78125 27.484375 56.78125 20.515625 
Q 56.78125 9.90625 50.3125 4.234375 
Q 43.84375 -1.421875 31.78125 -1.421875 
Q 19.734375 -1.421875 13.25 4.234375 
Q 6.78125 9.90625 6.78125 20.515625 
Q 6.78125 27.484375 10.78125 32.3125 
Q 14.796875 37.15625 21.921875 38.8125 
z
M 18.3125 54.390625 
Q 18.3125 48.734375 21.84375 45.5625 
Q 25.390625 42.390625 31.78125 42.390625 
Q 38.140625 42.390625 41.71875 45.5625 
Q 45.3125 48.734375 45.3125 54.390625 
Q 45.3125 60.0625 41.71875 63.234375 
Q 38.140625 66.40625 31.78125 66.40625 
Q 25.390625 66.40625 21.84375 63.234375 
Q 18.3125 60.0625 18.3125 54.390625 
z
" id="DejaVuSans-56"/>
      </defs>
      <g transform="translate(471.837556 399.078438)scale(0.1 -0.1)">
       <use xlink:href="#DejaVuSans-56"/>
       <use x="63.623047" xlink:href="#DejaVuSans-48"/>
       <use x="127.246094" xlink:href="#DejaVuSans-48"/>
      </g>
     </g>
    </g>
    <g id="xtick_6">
     <g id="line2d_6">
      <g>
       <use style="stroke:#000000;stroke-width:0.8;" x="567.117542" xlink:href="#m2e61a5889c" y="384.48"/>
      </g>
     </g>
     <g id="text_6">
      <!-- 1000 -->
      <defs>
       <path d="M 12.40625 8.296875 
L 28.515625 8.296875 
L 28.515625 63.921875 
L 10.984375 60.40625 
L 10.984375 69.390625 
L 28.421875 72.90625 
L 38.28125 72.90625 
L 38.28125 8.296875 
L 54.390625 8.296875 
L 54.390625 0 
L 12.40625 0 
z
" id="DejaVuSans-49"/>
      </defs>
      <g transform="translate(554.392542 399.078438)scale(0.1 -0.1)">
       <use xlink:href="#DejaVuSans-49"/>
       <use x="63.623047" xlink:href="#DejaVuSans-48"/>
       <use x="127.246094" xlink:href="#DejaVuSans-48"/>
       <use x="190.869141" xlink:href="#DejaVuSans-48"/>
      </g>
     </g>
    </g>
    <g id="xtick_7">
     <g id="line2d_7">
      <g>
       <use style="stroke:#000000;stroke-width:0.8;" x="652.853777" xlink:href="#m2e61a5889c" y="384.48"/>
      </g>
     </g>
     <g id="text_7">
      <!-- 1200 -->
      <g transform="translate(640.128777 399.078438)scale(0.1 -0.1)">
       <use xlink:href="#DejaVuSans-49"/>
       <use x="63.623047" xlink:href="#DejaVuSans-50"/>
       <use x="127.246094" xlink:href="#DejaVuSans-48"/>
       <use x="190.869141" xlink:href="#DejaVuSans-48"/>
      </g>
     </g>
    </g>
    <g id="xtick_8">
     <g id="line2d_8">
      <g>
       <use style="stroke:#000000;stroke-width:0.8;" x="738.590013" xlink:href="#m2e61a5889c" y="384.48"/>
      </g>
     </g>
     <g id="text_8">
      <!-- 1400 -->
      <g transform="translate(725.865013 399.078438)scale(0.1 -0.1)">
       <use xlink:href="#DejaVuSans-49"/>
       <use x="63.623047" xlink:href="#DejaVuSans-52"/>
       <use x="127.246094" xlink:href="#DejaVuSans-48"/>
       <use x="190.869141" xlink:href="#DejaVuSans-48"/>
      </g>
     </g>
    </g>
    <g id="text_9">
     <!-- Timestamp -->
     <defs>
      <path d="M -0.296875 72.90625 
L 61.375 72.90625 
L 61.375 64.59375 
L 35.5 64.59375 
L 35.5 0 
L 25.59375 0 
L 25.59375 64.59375 
L -0.296875 64.59375 
z
" id="DejaVuSans-84"/>
      <path d="M 9.421875 54.6875 
L 18.40625 54.6875 
L 18.40625 0 
L 9.421875 0 
z
M 9.421875 75.984375 
L 18.40625 75.984375 
L 18.40625 64.59375 
L 9.421875 64.59375 
z
" id="DejaVuSans-105"/>
      <path d="M 52 44.1875 
Q 55.375 50.25 60.0625 53.125 
Q 64.75 56 71.09375 56 
Q 79.640625 56 84.28125 50.015625 
Q 88.921875 44.046875 88.921875 33.015625 
L 88.921875 0 
L 79.890625 0 
L 79.890625 32.71875 
Q 79.890625 40.578125 77.09375 44.375 
Q 74.3125 48.1875 68.609375 48.1875 
Q 61.625 48.1875 57.5625 43.546875 
Q 53.515625 38.921875 53.515625 30.90625 
L 53.515625 0 
L 44.484375 0 
L 44.484375 32.71875 
Q 44.484375 40.625 41.703125 44.40625 
Q 38.921875 48.1875 33.109375 48.1875 
Q 26.21875 48.1875 22.15625 43.53125 
Q 18.109375 38.875 18.109375 30.90625 
L 18.109375 0 
L 9.078125 0 
L 9.078125 54.6875 
L 18.109375 54.6875 
L 18.109375 46.1875 
Q 21.1875 51.21875 25.484375 53.609375 
Q 29.78125 56 35.6875 56 
Q 41.65625 56 45.828125 52.96875 
Q 50 49.953125 52 44.1875 
z
" id="DejaVuSans-109"/>
      <path d="M 56.203125 29.59375 
L 56.203125 25.203125 
L 14.890625 25.203125 
Q 15.484375 15.921875 20.484375 11.0625 
Q 25.484375 6.203125 34.421875 6.203125 
Q 39.59375 6.203125 44.453125 7.46875 
Q 49.3125 8.734375 54.109375 11.28125 
L 54.109375 2.78125 
Q 49.265625 0.734375 44.1875 -0.34375 
Q 39.109375 -1.421875 33.890625 -1.421875 
Q 20.796875 -1.421875 13.15625 6.1875 
Q 5.515625 13.8125 5.515625 26.8125 
Q 5.515625 40.234375 12.765625 48.109375 
Q 20.015625 56 32.328125 56 
Q 43.359375 56 49.78125 48.890625 
Q 56.203125 41.796875 56.203125 29.59375 
z
M 47.21875 32.234375 
Q 47.125 39.59375 43.09375 43.984375 
Q 39.0625 48.390625 32.421875 48.390625 
Q 24.90625 48.390625 20.390625 44.140625 
Q 15.875 39.890625 15.1875 32.171875 
z
" id="DejaVuSans-101"/>
      <path d="M 44.28125 53.078125 
L 44.28125 44.578125 
Q 40.484375 46.53125 36.375 47.5 
Q 32.28125 48.484375 27.875 48.484375 
Q 21.1875 48.484375 17.84375 46.4375 
Q 14.5 44.390625 14.5 40.28125 
Q 14.5 37.15625 16.890625 35.375 
Q 19.28125 33.59375 26.515625 31.984375 
L 29.59375 31.296875 
Q 39.15625 29.25 43.1875 25.515625 
Q 47.21875 21.78125 47.21875 15.09375 
Q 47.21875 7.46875 41.1875 3.015625 
Q 35.15625 -1.421875 24.609375 -1.421875 
Q 20.21875 -1.421875 15.453125 -0.5625 
Q 10.6875 0.296875 5.421875 2 
L 5.421875 11.28125 
Q 10.40625 8.6875 15.234375 7.390625 
Q 20.0625 6.109375 24.8125 6.109375 
Q 31.15625 6.109375 34.5625 8.28125 
Q 37.984375 10.453125 37.984375 14.40625 
Q 37.984375 18.0625 35.515625 20.015625 
Q 33.0625 21.96875 24.703125 23.78125 
L 21.578125 24.515625 
Q 13.234375 26.265625 9.515625 29.90625 
Q 5.8125 33.546875 5.8125 39.890625 
Q 5.8125 47.609375 11.28125 51.796875 
Q 16.75 56 26.8125 56 
Q 31.78125 56 36.171875 55.265625 
Q 40.578125 54.546875 44.28125 53.078125 
z
" id="DejaVuSans-115"/>
      <path d="M 18.3125 70.21875 
L 18.3125 54.6875 
L 36.8125 54.6875 
L 36.8125 47.703125 
L 18.3125 47.703125 
L 18.3125 18.015625 
Q 18.3125 11.328125 20.140625 9.421875 
Q 21.96875 7.515625 27.59375 7.515625 
L 36.8125 7.515625 
L 36.8125 0 
L 27.59375 0 
Q 17.1875 0 13.234375 3.875 
Q 9.28125 7.765625 9.28125 18.015625 
L 9.28125 47.703125 
L 2.6875 47.703125 
L 2.6875 54.6875 
L 9.28125 54.6875 
L 9.28125 70.21875 
z
" id="DejaVuSans-116"/>
      <path d="M 34.28125 27.484375 
Q 23.390625 27.484375 19.1875 25 
Q 14.984375 22.515625 14.984375 16.5 
Q 14.984375 11.71875 18.140625 8.90625 
Q 21.296875 6.109375 26.703125 6.109375 
Q 34.1875 6.109375 38.703125 11.40625 
Q 43.21875 16.703125 43.21875 25.484375 
L 43.21875 27.484375 
z
M 52.203125 31.203125 
L 52.203125 0 
L 43.21875 0 
L 43.21875 8.296875 
Q 40.140625 3.328125 35.546875 0.953125 
Q 30.953125 -1.421875 24.3125 -1.421875 
Q 15.921875 -1.421875 10.953125 3.296875 
Q 6 8.015625 6 15.921875 
Q 6 25.140625 12.171875 29.828125 
Q 18.359375 34.515625 30.609375 34.515625 
L 43.21875 34.515625 
L 43.21875 35.40625 
Q 43.21875 41.609375 39.140625 45 
Q 35.0625 48.390625 27.6875 48.390625 
Q 23 48.390625 18.546875 47.265625 
Q 14.109375 46.140625 10.015625 43.890625 
L 10.015625 52.203125 
Q 14.9375 54.109375 19.578125 55.046875 
Q 24.21875 56 28.609375 56 
Q 40.484375 56 46.34375 49.84375 
Q 52.203125 43.703125 52.203125 31.203125 
z
" id="DejaVuSans-97"/>
      <path d="M 18.109375 8.203125 
L 18.109375 -20.796875 
L 9.078125 -20.796875 
L 9.078125 54.6875 
L 18.109375 54.6875 
L 18.109375 46.390625 
Q 20.953125 51.265625 25.265625 53.625 
Q 29.59375 56 35.59375 56 
Q 45.5625 56 51.78125 48.09375 
Q 58.015625 40.1875 58.015625 27.296875 
Q 58.015625 14.40625 51.78125 6.484375 
Q 45.5625 -1.421875 35.59375 -1.421875 
Q 29.59375 -1.421875 25.265625 0.953125 
Q 20.953125 3.328125 18.109375 8.203125 
z
M 48.6875 27.296875 
Q 48.6875 37.203125 44.609375 42.84375 
Q 40.53125 48.484375 33.40625 48.484375 
Q 26.265625 48.484375 22.1875 42.84375 
Q 18.109375 37.203125 18.109375 27.296875 
Q 18.109375 17.390625 22.1875 11.75 
Q 26.265625 6.109375 33.40625 6.109375 
Q 40.53125 6.109375 44.609375 11.75 
Q 48.6875 17.390625 48.6875 27.296875 
z
" id="DejaVuSans-112"/>
     </defs>
     <g transform="translate(414.739062 412.756563)scale(0.1 -0.1)">
      <use xlink:href="#DejaVuSans-84"/>
      <use x="61.037109" xlink:href="#DejaVuSans-105"/>
      <use x="88.820312" xlink:href="#DejaVuSans-109"/>
      <use x="186.232422" xlink:href="#DejaVuSans-101"/>
      <use x="247.755859" xlink:href="#DejaVuSans-115"/>
      <use x="299.855469" xlink:href="#DejaVuSans-116"/>
      <use x="339.064453" xlink:href="#DejaVuSans-97"/>
      <use x="400.34375" xlink:href="#DejaVuSans-109"/>
      <use x="497.755859" xlink:href="#DejaVuSans-112"/>
     </g>
    </g>
   </g>
   <g id="matplotlib.axis_2">
    <g id="ytick_1">
     <g id="line2d_9">
      <defs>
       <path d="M 0 0 
L -3.5 0 
" id="m91168b0765" style="stroke:#000000;stroke-width:0.8;"/>
      </defs>
      <g>
       <use style="stroke:#000000;stroke-width:0.8;" x="108" xlink:href="#m91168b0765" y="353.019722"/>
      </g>
     </g>
     <g id="text_10">
      <!-- −1000 -->
      <defs>
       <path d="M 10.59375 35.5 
L 73.1875 35.5 
L 73.1875 27.203125 
L 10.59375 27.203125 
z
" id="DejaVuSans-8722"/>
      </defs>
      <g transform="translate(67.170312 356.81894)scale(0.1 -0.1)">
       <use xlink:href="#DejaVuSans-8722"/>
       <use x="83.789062" xlink:href="#DejaVuSans-49"/>
       <use x="147.412109" xlink:href="#DejaVuSans-48"/>
       <use x="211.035156" xlink:href="#DejaVuSans-48"/>
       <use x="274.658203" xlink:href="#DejaVuSans-48"/>
      </g>
     </g>
    </g>
    <g id="ytick_2">
     <g id="line2d_10">
      <g>
       <use style="stroke:#000000;stroke-width:0.8;" x="108" xlink:href="#m91168b0765" y="306.399739"/>
      </g>
     </g>
     <g id="text_11">
      <!-- 0 -->
      <g transform="translate(94.6375 310.198958)scale(0.1 -0.1)">
       <use xlink:href="#DejaVuSans-48"/>
      </g>
     </g>
    </g>
    <g id="ytick_3">
     <g id="line2d_11">
      <g>
       <use style="stroke:#000000;stroke-width:0.8;" x="108" xlink:href="#m91168b0765" y="259.779757"/>
      </g>
     </g>
     <g id="text_12">
      <!-- 1000 -->
      <g transform="translate(75.55 263.578976)scale(0.1 -0.1)">
       <use xlink:href="#DejaVuSans-49"/>
       <use x="63.623047" xlink:href="#DejaVuSans-48"/>
       <use x="127.246094" xlink:href="#DejaVuSans-48"/>
       <use x="190.869141" xlink:href="#DejaVuSans-48"/>
      </g>
     </g>
    </g>
    <g id="ytick_4">
     <g id="line2d_12">
      <g>
       <use style="stroke:#000000;stroke-width:0.8;" x="108" xlink:href="#m91168b0765" y="213.159775"/>
      </g>
     </g>
     <g id="text_13">
      <!-- 2000 -->
      <g transform="translate(75.55 216.958994)scale(0.1 -0.1)">
       <use xlink:href="#DejaVuSans-50"/>
       <use x="63.623047" xlink:href="#DejaVuSans-48"/>
       <use x="127.246094" xlink:href="#DejaVuSans-48"/>
       <use x="190.869141" xlink:href="#DejaVuSans-48"/>
      </g>
     </g>
    </g>
    <g id="ytick_5">
     <g id="line2d_13">
      <g>
       <use style="stroke:#000000;stroke-width:0.8;" x="108" xlink:href="#m91168b0765" y="166.539793"/>
      </g>
     </g>
     <g id="text_14">
      <!-- 3000 -->
      <defs>
       <path d="M 40.578125 39.3125 
Q 47.65625 37.796875 51.625 33 
Q 55.609375 28.21875 55.609375 21.1875 
Q 55.609375 10.40625 48.1875 4.484375 
Q 40.765625 -1.421875 27.09375 -1.421875 
Q 22.515625 -1.421875 17.65625 -0.515625 
Q 12.796875 0.390625 7.625 2.203125 
L 7.625 11.71875 
Q 11.71875 9.328125 16.59375 8.109375 
Q 21.484375 6.890625 26.8125 6.890625 
Q 36.078125 6.890625 40.9375 10.546875 
Q 45.796875 14.203125 45.796875 21.1875 
Q 45.796875 27.640625 41.28125 31.265625 
Q 36.765625 34.90625 28.71875 34.90625 
L 20.21875 34.90625 
L 20.21875 43.015625 
L 29.109375 43.015625 
Q 36.375 43.015625 40.234375 45.921875 
Q 44.09375 48.828125 44.09375 54.296875 
Q 44.09375 59.90625 40.109375 62.90625 
Q 36.140625 65.921875 28.71875 65.921875 
Q 24.65625 65.921875 20.015625 65.03125 
Q 15.375 64.15625 9.8125 62.3125 
L 9.8125 71.09375 
Q 15.4375 72.65625 20.34375 73.4375 
Q 25.25 74.21875 29.59375 74.21875 
Q 40.828125 74.21875 47.359375 69.109375 
Q 53.90625 64.015625 53.90625 55.328125 
Q 53.90625 49.265625 50.4375 45.09375 
Q 46.96875 40.921875 40.578125 39.3125 
z
" id="DejaVuSans-51"/>
      </defs>
      <g transform="translate(75.55 170.339012)scale(0.1 -0.1)">
       <use xlink:href="#DejaVuSans-51"/>
       <use x="63.623047" xlink:href="#DejaVuSans-48"/>
       <use x="127.246094" xlink:href="#DejaVuSans-48"/>
       <use x="190.869141" xlink:href="#DejaVuSans-48"/>
      </g>
     </g>
    </g>
    <g id="ytick_6">
     <g id="line2d_14">
      <g>
       <use style="stroke:#000000;stroke-width:0.8;" x="108" xlink:href="#m91168b0765" y="119.919811"/>
      </g>
     </g>
     <g id="text_15">
      <!-- 4000 -->
      <g transform="translate(75.55 123.719029)scale(0.1 -0.1)">
       <use xlink:href="#DejaVuSans-52"/>
       <use x="63.623047" xlink:href="#DejaVuSans-48"/>
       <use x="127.246094" xlink:href="#DejaVuSans-48"/>
       <use x="190.869141" xlink:href="#DejaVuSans-48"/>
      </g>
     </g>
    </g>
    <g id="ytick_7">
     <g id="line2d_15">
      <g>
       <use style="stroke:#000000;stroke-width:0.8;" x="108" xlink:href="#m91168b0765" y="73.299828"/>
      </g>
     </g>
     <g id="text_16">
      <!-- 5000 -->
      <defs>
       <path d="M 10.796875 72.90625 
L 49.515625 72.90625 
L 49.515625 64.59375 
L 19.828125 64.59375 
L 19.828125 46.734375 
Q 21.96875 47.46875 24.109375 47.828125 
Q 26.265625 48.1875 28.421875 48.1875 
Q 40.625 48.1875 47.75 41.5 
Q 54.890625 34.8125 54.890625 23.390625 
Q 54.890625 11.625 47.5625 5.09375 
Q 40.234375 -1.421875 26.90625 -1.421875 
Q 22.3125 -1.421875 17.546875 -0.640625 
Q 12.796875 0.140625 7.71875 1.703125 
L 7.71875 11.625 
Q 12.109375 9.234375 16.796875 8.0625 
Q 21.484375 6.890625 26.703125 6.890625 
Q 35.15625 6.890625 40.078125 11.328125 
Q 45.015625 15.765625 45.015625 23.390625 
Q 45.015625 31 40.078125 35.4375 
Q 35.15625 39.890625 26.703125 39.890625 
Q 22.75 39.890625 18.8125 39.015625 
Q 14.890625 38.140625 10.796875 36.28125 
z
" id="DejaVuSans-53"/>
      </defs>
      <g transform="translate(75.55 77.099047)scale(0.1 -0.1)">
       <use xlink:href="#DejaVuSans-53"/>
       <use x="63.623047" xlink:href="#DejaVuSans-48"/>
       <use x="127.246094" xlink:href="#DejaVuSans-48"/>
       <use x="190.869141" xlink:href="#DejaVuSans-48"/>
      </g>
     </g>
    </g>
    <g id="text_17">
     <!-- Value -->
     <defs>
      <path d="M 28.609375 0 
L 0.78125 72.90625 
L 11.078125 72.90625 
L 34.1875 11.53125 
L 57.328125 72.90625 
L 67.578125 72.90625 
L 39.796875 0 
z
" id="DejaVuSans-86"/>
      <path d="M 9.421875 75.984375 
L 18.40625 75.984375 
L 18.40625 0 
L 9.421875 0 
z
" id="DejaVuSans-108"/>
      <path d="M 8.5 21.578125 
L 8.5 54.6875 
L 17.484375 54.6875 
L 17.484375 21.921875 
Q 17.484375 14.15625 20.5 10.265625 
Q 23.53125 6.390625 29.59375 6.390625 
Q 36.859375 6.390625 41.078125 11.03125 
Q 45.3125 15.671875 45.3125 23.6875 
L 45.3125 54.6875 
L 54.296875 54.6875 
L 54.296875 0 
L 45.3125 0 
L 45.3125 8.40625 
Q 42.046875 3.421875 37.71875 1 
Q 33.40625 -1.421875 27.6875 -1.421875 
Q 18.265625 -1.421875 13.375 4.4375 
Q 8.5 10.296875 8.5 21.578125 
z
M 31.109375 56 
z
" id="DejaVuSans-117"/>
     </defs>
     <g transform="translate(61.090625 232.273281)rotate(-90)scale(0.1 -0.1)">
      <use xlink:href="#DejaVuSans-86"/>
      <use x="68.298828" xlink:href="#DejaVuSans-97"/>
      <use x="129.578125" xlink:href="#DejaVuSans-108"/>
      <use x="157.361328" xlink:href="#DejaVuSans-117"/>
      <use x="220.740234" xlink:href="#DejaVuSans-101"/>
     </g>
    </g>
   </g>
   <g id="line2d_16">
    <path clip-path="url(#p3d957a98f2)" d="M 138.436364 293.269678 
L 138.865045 306.061353 
L 139.293726 285.427235 
L 139.722407 282.465831 
L 140.151088 287.780327 
L 140.57977 304.433988 
L 141.437132 284.789477 
L 141.865813 278.500567 
L 142.294494 250.429962 
L 143.151857 277.227713 
L 143.580538 277.863041 
L 144.009219 266.173691 
L 144.4379 263.543974 
L 144.866581 262.095255 
L 145.295262 252.782602 
L 145.723944 262.234713 
L 146.152625 246.364764 
L 146.581306 261.562632 
L 147.009987 249.237204 
L 147.438668 241.313231 
L 147.86735 242.267945 
L 148.296031 233.965556 
L 148.724712 241.621771 
L 149.582074 227.941664 
L 150.010755 245.564676 
L 150.439437 251.180661 
L 150.868118 237.146957 
L 151.72548 243.139376 
L 152.154161 242.244609 
L 152.582843 244.888396 
L 153.011524 231.306776 
L 153.440205 227.70289 
L 153.868886 230.301778 
L 154.297567 246.075663 
L 154.726248 230.188363 
L 155.15493 247.286888 
L 155.583611 227.920671 
L 156.440973 254.408875 
L 157.298335 266.055734 
L 157.727017 267.363951 
L 158.155698 274.971139 
L 158.584379 249.536353 
L 159.01306 255.583033 
L 159.441741 269.304053 
L 159.870423 267.120676 
L 160.299104 276.730728 
L 160.727785 250.760292 
L 161.156466 287.240588 
L 161.585147 282.803253 
L 162.013828 282.90213 
L 162.44251 282.391431 
L 162.871191 293.852392 
L 163.299872 318.320496 
L 163.728553 311.77181 
L 164.157234 298.403564 
L 164.585915 305.552001 
L 165.014597 318.450488 
L 165.443278 313.245507 
L 165.871959 323.704799 
L 166.30064 316.021428 
L 166.729321 336.353519 
L 167.158003 320.98835 
L 168.444046 333.344043 
L 168.872727 333.628671 
L 169.301408 345.59728 
L 169.73009 342.652922 
L 170.158771 336.973828 
L 170.587452 334.734059 
L 171.016133 346.719936 
L 171.444814 351.394891 
L 171.873496 361.409877 
L 172.302177 368.500639 
L 172.730858 363.418073 
L 173.159539 343.636822 
L 173.58822 349.78567 
L 174.016901 361.013861 
L 174.445583 363.964679 
L 174.874264 364.562126 
L 175.302945 350.450577 
L 175.731626 363.859065 
L 176.160307 348.188933 
L 176.588988 354.395192 
L 177.01767 347.415274 
L 177.446351 369.36 
L 177.875032 359.65452 
L 178.303713 368.013166 
L 178.732394 351.811724 
L 179.589757 358.369487 
L 180.018438 338.95733 
L 180.447119 349.928368 
L 180.8758 340.187889 
L 181.304481 340.409738 
L 181.733163 354.326226 
L 182.161844 350.38107 
L 182.590525 341.125745 
L 183.019206 350.689419 
L 183.447887 330.411585 
L 183.876569 346.73997 
L 184.30525 313.876191 
L 184.733931 332.756553 
L 185.162612 307.185063 
L 185.591293 325.518019 
L 186.019974 327.997769 
L 186.448656 314.361387 
L 186.877337 310.921747 
L 187.306018 325.04629 
L 187.734699 293.367087 
L 188.16338 312.215314 
L 188.592061 293.655631 
L 189.020743 288.436031 
L 189.449424 288.528724 
L 189.878105 287.598674 
L 190.306786 280.777948 
L 190.735467 290.291346 
L 191.164149 284.057593 
L 191.59283 283.803821 
L 192.021511 252.650099 
L 192.450192 250.162657 
L 192.878873 259.626405 
L 193.307554 271.854485 
L 194.164917 237.495359 
L 194.593598 255.086569 
L 195.022279 239.194406 
L 195.45096 254.802514 
L 195.879641 235.145949 
L 196.308323 249.713796 
L 196.737004 250.315643 
L 197.165685 245.392146 
L 197.594366 242.556507 
L 198.023047 241.198774 
L 198.451729 222.563263 
L 198.88041 228.047351 
L 199.309091 230.813117 
L 199.737772 237.571013 
L 200.166453 235.920869 
L 200.595134 232.621278 
L 201.023816 235.68597 
L 201.452497 228.388792 
L 201.881178 218.716459 
L 202.309859 235.728869 
L 202.73854 208.591324 
L 203.167222 237.606989 
L 203.595903 225.627404 
L 204.024584 200.93481 
L 204.881946 229.911721 
L 205.310627 237.47349 
L 205.739309 223.958439 
L 206.16799 231.660225 
L 206.596671 237.121798 
L 207.025352 231.866031 
L 207.454033 242.20632 
L 207.882714 211.948219 
L 208.740077 236.046712 
L 209.168758 239.284323 
L 209.597439 254.89358 
L 210.02612 242.94696 
L 210.454802 258.534951 
L 210.883483 268.288515 
L 211.312164 241.53943 
L 211.740845 273.623813 
L 212.169526 270.256679 
L 213.026889 283.478693 
L 213.45557 270.853161 
L 213.884251 296.050046 
L 214.312932 285.819028 
L 214.741613 292.95896 
L 215.170294 304.707331 
L 215.598976 294.437744 
L 216.027657 301.455048 
L 216.456338 306.386861 
L 216.885019 293.402622 
L 217.742382 310.726726 
L 218.171063 311.221808 
L 218.599744 323.389805 
L 219.028425 320.737917 
L 219.457106 310.080643 
L 219.885787 324.276351 
L 220.314469 324.990956 
L 220.74315 308.229926 
L 221.171831 338.646402 
L 221.600512 323.667438 
L 222.029193 317.148036 
L 222.457875 348.441092 
L 222.886556 339.0238 
L 223.315237 344.793048 
L 223.743918 347.240191 
L 224.172599 354.197217 
L 224.60128 353.725778 
L 225.029962 332.308057 
L 225.458643 339.985386 
L 225.887324 338.64987 
L 226.316005 330.951627 
L 226.744686 350.935131 
L 227.173367 338.746884 
L 227.602049 347.59012 
L 228.03073 351.752878 
L 228.459411 336.484683 
L 229.316773 355.344968 
L 229.745455 345.715956 
L 230.174136 326.578108 
L 230.602817 328.459232 
L 231.031498 353.939409 
L 231.460179 336.162159 
L 231.88886 326.469866 
L 232.317542 349.847154 
L 232.746223 316.358423 
L 233.174904 334.069844 
L 233.603585 323.098208 
L 234.032266 325.319797 
L 234.460948 304.31202 
L 234.889629 332.869093 
L 235.31831 316.164889 
L 235.746991 322.660608 
L 236.604353 282.173813 
L 237.033035 317.410723 
L 237.461716 299.043737 
L 237.890397 296.471904 
L 238.319078 275.572999 
L 238.747759 298.038028 
L 239.605122 263.30188 
L 240.033803 279.889096 
L 240.462484 280.896338 
L 241.319846 261.347619 
L 241.748528 273.44382 
L 242.177209 242.895001 
L 242.60589 256.055609 
L 243.034571 282.685585 
L 243.463252 260.875962 
L 243.891933 230.315452 
L 244.320615 253.203076 
L 244.749296 241.159236 
L 245.177977 236.752831 
L 245.606658 250.834128 
L 246.035339 226.635164 
L 246.46402 224.787196 
L 246.892702 207.395266 
L 247.750064 221.428506 
L 248.178745 221.131591 
L 248.607426 212.2043 
L 249.036108 225.921347 
L 249.464789 214.188242 
L 250.322151 207.110943 
L 250.750832 223.486145 
L 251.179513 195.929247 
L 251.608195 203.139959 
L 252.036876 184.103729 
L 252.465557 229.151737 
L 252.894238 215.68378 
L 253.322919 227.38347 
L 253.751601 214.351644 
L 254.180282 207.295886 
L 254.608963 193.607181 
L 255.037644 216.552658 
L 255.466325 225.344746 
L 256.323688 209.132267 
L 256.752369 215.173339 
L 257.18105 205.140317 
L 258.038412 239.517084 
L 258.467093 214.855979 
L 258.895775 238.388739 
L 259.324456 222.954905 
L 260.181818 230.65007 
L 260.610499 219.433924 
L 261.039181 242.157847 
L 261.467862 256.504562 
L 261.896543 245.324023 
L 262.325224 251.456005 
L 263.182586 238.586715 
L 263.611268 277.315716 
L 264.039949 264.181351 
L 264.46863 264.573463 
L 264.897311 262.973445 
L 265.325992 279.163259 
L 265.754673 271.305022 
L 266.183355 274.733109 
L 266.612036 282.10292 
L 267.040717 286.53936 
L 267.469398 273.386903 
L 267.898079 284.74695 
L 268.326761 274.665853 
L 268.755442 300.659025 
L 269.184123 313.696585 
L 269.612804 307.851696 
L 270.041485 305.577538 
L 270.470166 311.740577 
L 270.898848 316.120247 
L 271.327529 330.601594 
L 271.75621 324.914455 
L 272.184891 330.210617 
L 272.613572 317.8163 
L 273.042254 319.371705 
L 273.470935 308.841251 
L 273.899616 329.722856 
L 274.328297 318.018744 
L 274.756978 334.02404 
L 275.185659 345.820526 
L 275.614341 326.688551 
L 276.043022 337.294939 
L 276.471703 341.138241 
L 276.900384 340.752191 
L 277.329065 321.965483 
L 277.757746 317.040621 
L 278.186428 322.729376 
L 279.04379 345.784526 
L 279.472471 329.3151 
L 279.901152 319.273318 
L 280.329834 321.075558 
L 280.758515 325.24504 
L 281.187196 324.805417 
L 281.615877 334.226883 
L 282.044558 319.237543 
L 282.473239 321.349513 
L 282.901921 319.182708 
L 283.330602 319.772225 
L 283.759283 327.28643 
L 284.187964 318.988236 
L 284.616645 302.382705 
L 285.045327 307.144204 
L 285.474008 304.547026 
L 285.902689 303.660764 
L 286.33137 284.252587 
L 286.760051 295.341043 
L 287.188732 289.728027 
L 287.617414 287.446254 
L 288.046095 295.529251 
L 288.474776 282.853595 
L 288.903457 265.425082 
L 289.332138 270.440882 
L 289.760819 286.568737 
L 290.189501 267.239621 
L 290.618182 258.686119 
L 291.046863 261.645154 
L 291.475544 249.236844 
L 292.332907 261.056694 
L 292.761588 239.225122 
L 293.190269 240.598169 
L 293.61895 234.324464 
L 294.047631 225.887899 
L 294.476312 231.343048 
L 294.904994 247.016131 
L 295.333675 225.921241 
L 295.762356 241.081909 
L 296.191037 226.835522 
L 296.619718 208.80819 
L 297.048399 233.756156 
L 297.477081 212.458654 
L 297.905762 217.489169 
L 298.334443 212.129666 
L 298.763124 196.927236 
L 299.191805 200.401116 
L 299.620487 190.03805 
L 300.049168 213.489924 
L 300.477849 209.38201 
L 300.90653 206.984682 
L 301.335211 199.500055 
L 301.763892 207.622751 
L 302.192574 205.065696 
L 302.621255 206.159055 
L 303.049936 189.57498 
L 303.478617 190.013867 
L 303.907298 186.276782 
L 304.33598 168.530858 
L 304.764661 198.226883 
L 305.193342 189.909595 
L 305.622023 164.089947 
L 306.050704 192.920959 
L 306.479385 200.534282 
L 306.908067 211.138538 
L 307.336748 208.213081 
L 307.765429 221.603811 
L 308.19411 222.185503 
L 308.622791 212.089236 
L 309.051472 206.703772 
L 309.480154 211.792824 
L 309.908835 218.576241 
L 310.337516 235.775756 
L 310.766197 212.833435 
L 311.194878 217.592951 
L 311.62356 208.478567 
L 312.052241 247.159867 
L 312.480922 233.977517 
L 312.909603 216.052929 
L 313.338284 236.019598 
L 313.766965 226.148679 
L 314.195647 237.735945 
L 314.624328 245.527747 
L 315.053009 240.82748 
L 315.48169 272.13437 
L 315.910371 260.427378 
L 316.339052 254.026012 
L 316.767734 249.793324 
L 317.625096 268.229011 
L 318.053777 261.729698 
L 318.91114 291.231504 
L 319.339821 283.190711 
L 319.768502 287.631398 
L 320.197183 285.062789 
L 320.625864 295.637865 
L 321.054545 287.725466 
L 321.483227 275.845293 
L 321.911908 318.108798 
L 322.340589 295.971486 
L 322.76927 311.696711 
L 323.197951 312.856322 
L 323.626633 327.066887 
L 324.055314 312.857094 
L 324.483995 308.414255 
L 324.912676 328.08259 
L 325.341357 294.756755 
L 325.770038 323.739328 
L 326.19872 340.403268 
L 327.056082 294.186962 
L 327.484763 302.448442 
L 327.913444 306.02899 
L 328.342125 311.173748 
L 328.770807 314.476215 
L 330.05685 340.816628 
L 330.485531 329.254224 
L 330.914213 334.495609 
L 331.342894 325.146942 
L 331.771575 306.129426 
L 332.200256 321.246137 
L 332.628937 326.311359 
L 333.057618 318.644978 
L 333.4863 324.340043 
L 333.914981 296.214769 
L 334.343662 317.680266 
L 334.772343 301.277554 
L 336.058387 272.204207 
L 336.487068 306.931653 
L 336.915749 276.24506 
L 337.34443 288.383461 
L 337.773111 281.301193 
L 338.201793 261.240094 
L 338.630474 279.051004 
L 339.059155 262.378156 
L 339.487836 266.872079 
L 339.916517 267.446079 
L 340.345198 244.318833 
L 340.77388 257.6001 
L 341.202561 253.896077 
L 341.631242 240.949097 
L 342.059923 235.11843 
L 342.488604 250.501045 
L 342.917286 225.637146 
L 343.345967 240.506214 
L 343.774648 239.634532 
L 344.203329 251.140966 
L 344.63201 225.266514 
L 345.060691 217.239572 
L 345.489373 224.613771 
L 345.918054 201.436521 
L 346.346735 204.853517 
L 346.775416 207.328951 
L 347.204097 186.963367 
L 347.632778 218.419723 
L 348.06146 197.478421 
L 348.490141 189.325251 
L 348.918822 206.053189 
L 349.347503 196.352458 
L 349.776184 192.343418 
L 350.204866 194.573725 
L 350.633547 187.655387 
L 351.062228 188.519623 
L 351.490909 194.214841 
L 351.91959 176.703364 
L 352.348271 189.566309 
L 352.776953 189.337017 
L 353.634315 164.477653 
L 354.062996 199.895522 
L 354.491677 179.698935 
L 354.920359 177.818324 
L 355.34904 181.967103 
L 355.777721 156.42718 
L 356.206402 170.570677 
L 356.635083 189.924708 
L 357.063764 191.928015 
L 357.492446 177.310927 
L 357.921127 177.756451 
L 358.349808 182.293072 
L 358.778489 197.66283 
L 359.20717 187.760139 
L 359.635851 196.134549 
L 360.064533 178.453477 
L 360.493214 208.626508 
L 360.921895 201.915328 
L 361.350576 215.366868 
L 361.779257 217.593199 
L 362.207939 210.203699 
L 363.065301 221.215378 
L 363.493982 203.147985 
L 363.922663 221.323939 
L 364.351344 211.811781 
L 364.780026 238.733872 
L 365.208707 234.424421 
L 365.637388 249.661977 
L 366.066069 223.679484 
L 366.49475 251.97844 
L 366.923431 230.025629 
L 367.352113 258.769561 
L 367.780794 252.858653 
L 368.209475 284.811133 
L 368.638156 261.001431 
L 369.066837 261.531977 
L 369.495519 284.62924 
L 369.9242 270.932917 
L 370.352881 274.578356 
L 370.781562 292.919394 
L 371.210243 267.578132 
L 371.638924 292.105263 
L 372.067606 284.532598 
L 372.496287 279.017015 
L 372.924968 292.677447 
L 373.353649 281.899742 
L 373.78233 290.410409 
L 374.211012 278.434531 
L 374.639693 302.477416 
L 375.068374 309.336569 
L 375.497055 295.252169 
L 375.925736 302.363451 
L 376.354417 304.638278 
L 376.783099 297.548017 
L 377.21178 298.563321 
L 377.640461 304.083014 
L 378.069142 298.273963 
L 378.926504 296.754722 
L 379.355186 295.382436 
L 379.783867 291.807345 
L 380.212548 306.166868 
L 380.641229 308.73349 
L 381.06991 316.100447 
L 381.498592 304.981246 
L 381.927273 310.981383 
L 382.355954 295.919267 
L 382.784635 300.757717 
L 383.641997 305.382003 
L 384.070679 292.750428 
L 384.928041 302.014655 
L 385.356722 301.188629 
L 385.785403 272.795354 
L 386.214085 288.47174 
L 386.642766 286.576701 
L 387.071447 278.845205 
L 387.500128 278.773977 
L 388.35749 269.797431 
L 388.786172 269.527514 
L 389.214853 271.250475 
L 389.643534 249.217147 
L 390.072215 254.248478 
L 390.500896 264.504343 
L 390.929577 237.789264 
L 391.358259 260.460248 
L 391.78694 243.093183 
L 392.215621 238.338504 
L 392.644302 241.464384 
L 393.072983 225.265551 
L 393.501665 240.19573 
L 393.930346 205.520775 
L 394.359027 213.919207 
L 394.787708 196.772841 
L 395.216389 204.292003 
L 395.64507 225.031079 
L 396.073752 197.760164 
L 396.502433 196.687655 
L 396.931114 187.712249 
L 397.359795 184.289552 
L 397.788476 187.833958 
L 398.217157 183.359173 
L 398.645839 193.284349 
L 399.07452 168.552984 
L 399.503201 200.760821 
L 399.931882 199.820289 
L 400.360563 191.762762 
L 400.789245 167.249148 
L 401.217926 186.36428 
L 401.646607 177.404847 
L 402.075288 171.261456 
L 402.503969 175.939916 
L 402.93265 191.451048 
L 403.361332 157.139024 
L 403.790013 169.338228 
L 404.218694 162.642408 
L 405.076056 173.242725 
L 405.933419 159.785215 
L 406.3621 184.185809 
L 406.790781 181.244051 
L 407.219462 156.747328 
L 407.648143 180.499225 
L 408.076825 172.191446 
L 408.505506 188.416571 
L 408.934187 168.132027 
L 409.362868 170.77462 
L 409.791549 181.512845 
L 410.22023 164.69657 
L 410.648912 188.094283 
L 411.077593 188.099888 
L 411.506274 176.136198 
L 411.934955 185.273304 
L 412.363636 183.852203 
L 412.792318 180.261764 
L 413.220999 195.694221 
L 413.64968 194.446196 
L 414.078361 210.756261 
L 414.507042 202.453414 
L 414.935723 213.577682 
L 415.364405 200.454432 
L 415.793086 217.347839 
L 416.221767 219.84036 
L 416.650448 223.508146 
L 417.079129 247.772138 
L 417.50781 240.385727 
L 417.936492 213.268181 
L 418.365173 229.556231 
L 418.793854 239.739484 
L 419.222535 245.063336 
L 419.651216 248.34335 
L 420.079898 245.342071 
L 420.508579 96.205871 
L 420.93726 96.205871 
L 421.365941 260.505523 
L 421.794622 274.890728 
L 422.651985 262.215355 
L 423.080666 284.957318 
L 423.509347 262.020246 
L 423.938028 262.73033 
L 424.366709 277.194581 
L 424.795391 276.397976 
L 425.224072 267.270002 
L 425.652753 288.889989 
L 426.081434 294.154614 
L 426.510115 297.83352 
L 426.938796 297.306405 
L 427.367478 295.715141 
L 427.796159 285.506581 
L 428.22484 299.836001 
L 428.653521 293.539389 
L 429.082202 289.53776 
L 429.510883 304.640482 
L 429.939565 276.793201 
L 430.368246 277.806509 
L 430.796927 309.560738 
L 431.225608 295.451065 
L 431.654289 293.626301 
L 432.082971 287.175755 
L 432.511652 299.961327 
L 432.940333 290.534285 
L 433.369014 277.199169 
L 433.797695 273.495859 
L 434.226376 279.620567 
L 434.655058 276.626623 
L 435.083739 284.724282 
L 435.51242 280.430588 
L 435.941101 261.558646 
L 436.369782 270.383784 
L 436.798464 275.479776 
L 437.227145 248.879445 
L 437.655826 268.896456 
L 438.084507 248.272201 
L 438.513188 250.867586 
L 438.941869 249.79645 
L 439.370551 253.669878 
L 439.799232 238.024 
L 440.227913 260.694015 
L 441.513956 231.725909 
L 441.942638 228.729836 
L 442.371319 229.170978 
L 442.8 225.648333 
L 443.228681 214.20876 
L 443.657362 222.300463 
L 444.086044 234.48876 
L 444.514725 208.358295 
L 444.943406 196.022569 
L 445.372087 191.377969 
L 445.800768 201.104237 
L 446.229449 195.415395 
L 446.658131 175.973965 
L 447.086812 195.030487 
L 447.944174 177.385196 
L 448.372855 186.184314 
L 448.801536 181.586929 
L 449.230218 168.356694 
L 449.658899 179.180172 
L 450.08758 164.693874 
L 450.516261 179.541581 
L 450.944942 185.951225 
L 451.373624 156.887173 
L 451.802305 162.916002 
L 452.230986 164.468743 
L 452.659667 163.9724 
L 453.088348 147.15546 
L 453.517029 167.520356 
L 453.945711 145.584819 
L 454.374392 165.496335 
L 454.803073 155.711226 
L 455.231754 156.186146 
L 455.660435 147.929815 
L 456.089117 172.1944 
L 456.517798 156.767445 
L 456.946479 155.969993 
L 457.803841 144.353128 
L 458.232522 166.988725 
L 458.661204 154.627894 
L 459.089885 154.67829 
L 459.518566 148.558475 
L 459.947247 163.291021 
L 460.375928 152.340597 
L 460.804609 165.195028 
L 461.233291 171.205639 
L 461.661972 165.103589 
L 462.090653 169.811794 
L 462.519334 171.243132 
L 462.948015 167.445281 
L 463.376697 183.447562 
L 464.234059 188.306779 
L 464.66274 178.145482 
L 465.091421 172.165592 
L 465.520102 185.455036 
L 465.948784 187.884775 
L 466.377465 183.600232 
L 466.806146 210.996547 
L 467.234827 223.567822 
L 467.663508 223.193363 
L 468.09219 212.477273 
L 468.520871 218.204657 
L 468.949552 249.766045 
L 469.378233 212.892535 
L 469.806914 230.661923 
L 470.235595 232.237688 
L 470.664277 230.674256 
L 471.092958 251.50741 
L 471.521639 248.385323 
L 471.95032 233.465679 
L 472.379001 226.722945 
L 472.807682 242.803454 
L 473.236364 245.019532 
L 473.665045 272.856479 
L 474.093726 246.92559 
L 474.522407 248.589303 
L 474.951088 266.076353 
L 475.37977 262.607413 
L 475.808451 257.009372 
L 476.237132 246.179135 
L 476.665813 281.468452 
L 477.094494 260.944232 
L 477.523175 258.714438 
L 478.809219 277.496842 
L 479.2379 274.892112 
L 479.666581 268.119206 
L 480.095262 288.470351 
L 480.523944 290.069046 
L 480.952625 284.733539 
L 481.381306 291.819555 
L 481.809987 293.907673 
L 482.238668 261.876099 
L 482.66735 284.758577 
L 483.096031 279.498384 
L 483.524712 284.832367 
L 483.953393 266.52476 
L 484.382074 264.864149 
L 484.810755 256.391054 
L 485.239437 271.56129 
L 485.668118 252.024114 
L 486.096799 261.256973 
L 486.52548 273.770407 
L 486.954161 246.088302 
L 487.382843 239.795587 
L 487.811524 244.434714 
L 488.240205 254.325841 
L 488.668886 260.8233 
L 489.097567 243.557726 
L 489.526248 254.687204 
L 489.95493 256.30316 
L 490.383611 227.072238 
L 490.812292 234.049336 
L 491.240973 231.660234 
L 491.669654 230.709074 
L 492.098335 207.014824 
L 492.527017 233.355641 
L 493.384379 204.046151 
L 493.81306 203.305478 
L 494.241741 209.062346 
L 494.670423 199.799184 
L 495.099104 197.610679 
L 495.527785 174.786136 
L 495.956466 187.617485 
L 496.385147 192.022212 
L 496.813828 169.715029 
L 497.24251 191.787315 
L 497.671191 169.95382 
L 498.099872 159.72581 
L 498.528553 181.426065 
L 498.957234 163.190731 
L 499.385915 153.964175 
L 499.814597 149.600038 
L 500.671959 136.449712 
L 501.10064 151.90854 
L 501.529321 160.607515 
L 501.958003 157.738763 
L 502.386684 140.999967 
L 502.815365 162.752067 
L 503.244046 139.944934 
L 503.672727 155.722278 
L 504.101408 152.254743 
L 504.53009 138.276713 
L 504.958771 147.131294 
L 505.387452 149.030515 
L 505.816133 146.955294 
L 506.244814 125.328778 
L 506.673496 154.042489 
L 507.102177 138.963437 
L 507.530858 145.250703 
L 507.959539 110.463641 
L 508.38822 143.321793 
L 508.816901 123.844603 
L 509.245583 134.759945 
L 509.674264 161.038226 
L 510.102945 140.995705 
L 510.531626 140.703599 
L 510.960307 149.343374 
L 511.388988 171.596092 
L 511.81767 130.381805 
L 512.246351 157.6203 
L 512.675032 172.428307 
L 513.103713 147.562545 
L 513.532394 165.524127 
L 513.961076 163.11588 
L 514.818438 189.740528 
L 515.247119 175.974138 
L 515.6758 169.550156 
L 516.104481 180.573626 
L 516.533163 183.287046 
L 517.390525 185.95947 
L 517.819206 196.064465 
L 518.247887 199.821486 
L 518.676569 207.598286 
L 519.10525 217.624881 
L 519.533931 221.58378 
L 519.962612 218.159224 
L 520.391293 221.01112 
L 520.819974 220.659054 
L 521.248656 83.25209 
L 521.677337 83.25209 
L 522.106018 210.703652 
L 522.534699 225.348693 
L 522.96338 229.448715 
L 523.392061 235.261996 
L 523.820743 247.236978 
L 524.249424 246.54761 
L 524.678105 246.825839 
L 525.106786 244.530815 
L 525.535467 248.09964 
L 525.964149 231.301019 
L 526.39283 255.446514 
L 526.821511 261.539186 
L 527.250192 272.439187 
L 527.678873 267.43669 
L 528.107554 231.784479 
L 528.536236 256.644933 
L 528.964917 251.474885 
L 529.393598 259.590716 
L 529.822279 260.615282 
L 530.25096 264.694747 
L 530.679641 257.603016 
L 531.108323 248.635015 
L 531.537004 254.218807 
L 531.965685 265.598654 
L 532.394366 261.838703 
L 532.823047 277.302892 
L 533.251729 249.898016 
L 533.68041 242.01765 
L 534.109091 275.173018 
L 534.537772 258.515393 
L 534.966453 265.950217 
L 535.395134 267.603879 
L 535.823816 242.475709 
L 536.252497 239.528088 
L 536.681178 228.542229 
L 537.109859 242.063211 
L 537.53854 263.613523 
L 537.967222 237.275085 
L 538.395903 246.816071 
L 539.253265 231.51927 
L 539.681946 230.295769 
L 540.110627 219.748286 
L 540.539309 231.502202 
L 540.96799 228.467496 
L 541.825352 205.710547 
L 542.254033 215.341357 
L 542.682714 214.693867 
L 543.111396 214.674997 
L 543.540077 208.443331 
L 543.968758 200.052637 
L 544.397439 205.559637 
L 544.82612 182.847067 
L 545.254802 207.590743 
L 545.683483 184.446833 
L 546.112164 194.233698 
L 546.540845 163.347422 
L 546.969526 177.725967 
L 547.398207 157.474635 
L 547.826889 170.138041 
L 548.25557 164.797545 
L 548.684251 170.000286 
L 549.112932 188.216711 
L 549.541613 136.57764 
L 549.970294 165.268502 
L 550.398976 121.610579 
L 550.827657 142.12201 
L 551.256338 148.874498 
L 551.685019 133.558421 
L 552.1137 129.543002 
L 552.542382 138.973535 
L 552.971063 133.39 
L 553.399744 114.131203 
L 553.828425 146.099798 
L 554.257106 130.792391 
L 554.685787 120.945093 
L 555.114469 142.713446 
L 555.54315 145.783154 
L 555.971831 112.765126 
L 556.400512 133.984413 
L 556.829193 136.713271 
L 557.257875 126.325236 
L 557.686556 131.776033 
L 558.115237 132.117734 
L 558.543918 141.465881 
L 558.972599 136.849143 
L 559.40128 119.596904 
L 559.829962 124.19523 
L 560.258643 137.096136 
L 560.687324 106.989635 
L 561.116005 118.135285 
L 561.544686 142.683189 
L 561.973367 137.907871 
L 562.402049 172.225588 
L 562.83073 131.144266 
L 563.259411 137.503011 
L 563.688092 150.784964 
L 564.116773 150.170334 
L 564.545455 149.912727 
L 564.974136 143.057461 
L 565.402817 166.372642 
L 565.831498 148.323367 
L 566.260179 154.539599 
L 566.68886 172.657182 
L 567.117542 171.520233 
L 567.546223 152.805153 
L 567.974904 176.645258 
L 568.403585 192.642464 
L 568.832266 196.821485 
L 569.260948 185.698971 
L 569.689629 185.864591 
L 570.11831 189.094574 
L 570.546991 197.732784 
L 570.975672 218.673646 
L 571.833035 195.29903 
L 572.261716 231.938773 
L 572.690397 204.843191 
L 573.119078 229.410502 
L 573.547759 219.476443 
L 573.97644 234.579808 
L 574.405122 214.471694 
L 574.833803 231.736966 
L 575.262484 223.875251 
L 575.691165 238.941095 
L 576.548528 250.81469 
L 576.977209 249.248135 
L 577.40589 242.925837 
L 577.834571 226.775569 
L 578.263252 236.804276 
L 578.691933 250.714064 
L 579.120615 242.961178 
L 579.549296 256.869242 
L 579.977977 253.850522 
L 580.406658 246.662672 
L 580.835339 221.231469 
L 581.26402 246.937856 
L 581.692702 248.503354 
L 582.121383 273.309871 
L 582.550064 237.338628 
L 582.978745 236.274884 
L 583.407426 265.36083 
L 583.836108 247.981273 
L 584.264789 255.71701 
L 584.69347 244.824324 
L 585.122151 249.993022 
L 585.550832 232.876415 
L 585.979513 239.636643 
L 586.408195 239.273983 
L 586.836876 234.274825 
L 587.265557 254.955999 
L 587.694238 246.138443 
L 588.122919 217.620836 
L 588.551601 227.26318 
L 588.980282 222.426311 
L 589.408963 238.372609 
L 589.837644 198.662891 
L 590.266325 223.64568 
L 590.695006 210.012109 
L 591.123688 214.571693 
L 591.552369 199.128207 
L 591.98105 214.714443 
L 592.409731 191.814277 
L 592.838412 188.179766 
L 593.267093 203.177101 
L 593.695775 208.589325 
L 594.124456 183.822636 
L 594.553137 208.573636 
L 594.981818 173.274231 
L 595.839181 165.522003 
L 596.267862 173.618413 
L 596.696543 147.779677 
L 597.125224 164.612589 
L 597.553905 169.660097 
L 597.982586 160.280709 
L 598.411268 165.979054 
L 598.839949 162.893571 
L 599.26863 144.466383 
L 599.697311 143.034156 
L 600.125992 146.108091 
L 600.554673 139.962898 
L 600.983355 136.579604 
L 601.412036 135.529253 
L 601.840717 111.670685 
L 602.269398 133.673793 
L 602.698079 118.268832 
L 603.126761 126.834542 
L 603.555442 132.38176 
L 603.984123 129.396298 
L 604.412804 116.543475 
L 604.841485 122.660806 
L 605.270166 113.921904 
L 605.698848 110.999901 
L 606.127529 106.070329 
L 606.55621 123.523026 
L 606.984891 98.417108 
L 607.413572 131.878952 
L 607.842254 131.834949 
L 608.270935 100.363117 
L 608.699616 99.510296 
L 609.128297 124.641107 
L 609.556978 108.196233 
L 609.985659 127.812163 
L 610.414341 98.633581 
L 610.843022 115.530465 
L 611.700384 122.468731 
L 612.129065 133.400434 
L 612.557746 113.642064 
L 612.986428 124.284229 
L 613.415109 121.271153 
L 613.84379 136.941976 
L 614.272471 135.338896 
L 614.701152 130.940681 
L 615.129834 154.044426 
L 615.558515 148.490612 
L 615.987196 147.959414 
L 616.415877 138.582811 
L 616.844558 157.189592 
L 617.273239 161.709391 
L 617.701921 149.324766 
L 618.130602 164.650277 
L 618.559283 149.625432 
L 618.987964 180.783427 
L 619.416645 170.548845 
L 619.845327 178.258855 
L 620.274008 178.679151 
L 620.702689 169.252496 
L 621.13137 172.723617 
L 621.988732 205.910634 
L 622.417414 197.765307 
L 622.846095 179.292031 
L 623.274776 196.398229 
L 623.703457 208.36411 
L 624.989501 189.021433 
L 625.846863 223.632935 
L 626.275544 192.4828 
L 626.704225 217.42728 
L 627.132907 205.954844 
L 627.561588 209.307205 
L 627.990269 245.696793 
L 628.41895 209.625431 
L 628.847631 229.340172 
L 629.276312 238.357593 
L 629.704994 230.30676 
L 630.133675 231.421675 
L 630.562356 233.005928 
L 630.991037 235.630112 
L 631.419718 219.279981 
L 631.848399 224.60732 
L 632.277081 232.060386 
L 632.705762 241.638679 
L 633.134443 222.749123 
L 633.563124 228.204736 
L 633.991805 239.178403 
L 634.420487 239.305786 
L 634.849168 235.952196 
L 635.277849 234.050601 
L 636.135211 220.809133 
L 636.563892 226.157749 
L 636.992574 244.108166 
L 637.421255 221.262902 
L 637.849936 211.552696 
L 638.278617 234.299474 
L 638.707298 238.005288 
L 639.13598 207.946563 
L 639.564661 217.524406 
L 639.993342 205.567293 
L 640.422023 210.508606 
L 640.850704 187.198826 
L 641.708067 192.236502 
L 642.99411 177.439183 
L 643.422791 195.261415 
L 643.851472 165.834714 
L 644.280154 193.331066 
L 644.708835 197.334225 
L 645.137516 173.537687 
L 645.566197 161.520725 
L 645.994878 160.324183 
L 646.42356 154.825236 
L 646.852241 156.212076 
L 647.280922 159.956541 
L 647.709603 148.76637 
L 648.138284 128.183401 
L 648.566965 146.241024 
L 648.995647 134.957937 
L 649.424328 131.728056 
L 649.853009 121.011501 
L 650.28169 141.803518 
L 651.139052 121.697554 
L 651.567734 126.240969 
L 651.996415 117.382053 
L 652.425096 119.35157 
L 653.282458 128.837931 
L 653.71114 101.577343 
L 654.139821 106.993489 
L 654.568502 98.493912 
L 654.997183 128.48048 
L 655.425864 92.308789 
L 656.283227 105.579921 
L 656.711908 94.430821 
L 657.140589 96.347665 
L 657.56927 92.161276 
L 657.997951 92.832923 
L 658.426633 96.387057 
L 658.855314 96.609617 
L 659.283995 104.502301 
L 659.712676 93.910199 
L 660.141357 104.65348 
L 660.570038 86.344247 
L 660.99872 99.661978 
L 661.427401 86.946616 
L 661.856082 106.676196 
L 662.284763 106.57055 
L 662.713444 97.360793 
L 663.142125 96.091493 
L 663.570807 121.344775 
L 663.999488 103.035426 
L 664.428169 102.541535 
L 664.85685 120.703791 
L 665.285531 111.335333 
L 665.714213 127.856601 
L 666.142894 129.282337 
L 666.571575 128.41558 
L 667.000256 136.651067 
L 667.428937 117.222036 
L 667.857618 135.916013 
L 668.2863 142.953226 
L 668.714981 158.629942 
L 669.143662 144.297552 
L 669.572343 156.262353 
L 670.001024 155.831752 
L 670.429706 158.56112 
L 670.858387 175.534944 
L 671.287068 156.846131 
L 671.715749 162.8129 
L 672.14443 164.090504 
L 673.001793 194.098035 
L 673.430474 158.061943 
L 673.859155 166.74193 
L 674.287836 189.112691 
L 674.716517 202.30628 
L 675.145198 192.31128 
L 675.57388 193.727781 
L 676.002561 217.443135 
L 676.431242 201.653257 
L 676.859923 200.445045 
L 677.288604 186.296717 
L 677.717286 217.422167 
L 678.145967 183.327171 
L 679.003329 212.714516 
L 679.43201 217.647913 
L 680.289373 203.662523 
L 680.718054 203.197185 
L 681.575416 228.042148 
L 682.004097 209.328222 
L 682.432778 210.439422 
L 682.86146 227.687965 
L 683.290141 232.642534 
L 683.718822 223.073897 
L 684.147503 217.91909 
L 684.576184 223.530397 
L 685.004866 231.358941 
L 685.433547 228.594507 
L 685.862228 210.478591 
L 686.290909 210.772415 
L 686.71959 213.084086 
L 687.148271 221.874416 
L 687.576953 215.117306 
L 688.005634 223.306413 
L 688.434315 200.517154 
L 688.862996 226.12199 
L 689.291677 207.953753 
L 689.720359 205.528194 
L 690.14904 207.108161 
L 690.577721 172.476117 
L 691.006402 172.275974 
L 691.435083 197.517288 
L 691.863764 184.625131 
L 692.292446 182.722726 
L 693.149808 174.61757 
L 693.578489 183.257173 
L 694.00717 195.25756 
L 694.435851 174.10071 
L 694.864533 159.075669 
L 695.293214 168.437465 
L 695.721895 155.543823 
L 696.150576 163.400489 
L 696.579257 149.476149 
L 697.007939 143.230552 
L 697.43662 143.854273 
L 697.865301 151.756237 
L 698.293982 125.502159 
L 699.151344 143.872348 
L 700.008707 123.049147 
L 700.866069 136.602553 
L 701.723431 112.888936 
L 702.152113 108.224245 
L 702.580794 91.091009 
L 703.009475 110.769469 
L 703.438156 110.547626 
L 703.866837 106.236915 
L 704.295519 86.854503 
L 704.7242 103.924496 
L 705.152881 94.501967 
L 705.581562 69.995087 
L 706.010243 103.151664 
L 706.867606 92.154487 
L 707.296287 103.059246 
L 707.724968 83.637855 
L 708.153649 106.475566 
L 708.58233 88.675116 
L 709.011012 93.382195 
L 709.439693 91.674984 
L 709.868374 72.768967 
L 710.297055 77.500206 
L 710.725736 66.96 
L 711.583099 85.059498 
L 712.01178 94.162142 
L 712.440461 86.500759 
L 712.869142 87.210796 
L 713.297823 94.637613 
L 713.726504 108.649212 
L 714.155186 87.638311 
L 714.583867 105.577634 
L 715.012548 112.255684 
L 715.441229 101.091714 
L 715.86991 108.136372 
L 716.298592 96.566495 
L 716.727273 113.330236 
L 717.155954 100.201914 
L 717.584635 111.570122 
L 718.013316 115.417296 
L 718.441997 122.827229 
L 718.870679 111.291048 
L 719.29936 131.437139 
L 719.728041 136.768707 
L 720.156722 131.044536 
L 720.585403 134.422534 
L 721.014085 119.222899 
L 721.442766 143.743587 
L 721.871447 138.223424 
L 722.300128 150.302049 
L 722.728809 137.370991 
L 723.15749 150.654014 
L 723.586172 153.088215 
L 724.014853 160.071341 
L 724.443534 175.632322 
L 724.872215 175.618429 
L 725.300896 166.660053 
L 725.729577 186.050113 
L 726.158259 165.622312 
L 726.58694 194.413597 
L 727.015621 196.008047 
L 727.444302 198.185122 
L 728.301665 179.945553 
L 728.730346 209.532257 
L 729.159027 199.691176 
L 729.587708 196.685441 
L 730.016389 215.558193 
L 730.44507 203.507608 
L 730.873752 204.345814 
L 731.302433 192.90276 
L 731.731114 197.855773 
L 732.159795 219.1769 
L 732.588476 218.206074 
L 733.017157 214.771293 
L 733.445839 229.255854 
L 733.87452 219.761603 
L 734.303201 199.481003 
L 734.731882 211.83152 
L 735.160563 199.547145 
L 735.589245 198.601464 
L 736.017926 213.94741 
L 736.446607 210.014754 
L 736.875288 184.600861 
L 737.303969 206.595909 
L 737.73265 199.358752 
L 738.161332 188.257052 
L 738.590013 199.601406 
L 739.018694 194.924236 
L 739.447375 207.18716 
L 739.876056 171.560094 
L 740.304738 197.827535 
L 740.733419 199.545743 
L 741.1621 190.663347 
L 741.590781 163.983771 
L 742.019462 197.508028 
L 742.448143 178.420806 
L 742.876825 185.91571 
L 743.305506 180.666987 
L 743.734187 166.536931 
L 744.162868 158.597447 
L 744.591549 142.91972 
L 745.02023 160.760487 
L 745.448912 148.707087 
L 745.877593 178.196808 
L 746.306274 144.652769 
L 746.734955 125.575314 
L 747.163636 133.748836 
L 747.163636 133.748836 
" style="fill:none;stroke:#1f77b4;stroke-linecap:square;stroke-width:1.5;"/>
   </g>
   <g id="line2d_17">
    <path clip-path="url(#p3d957a98f2)" d="M 747.163636 384.48 
L 747.163636 51.84 
" style="fill:none;stroke:#808080;stroke-linecap:square;"/>
   </g>
   <g id="patch_47">
    <path d="M 108 384.48 
L 108 51.84 
" style="fill:none;stroke:#000000;stroke-linecap:square;stroke-linejoin:miter;stroke-width:0.8;"/>
   </g>
   <g id="patch_48">
    <path d="M 777.6 384.48 
L 777.6 51.84 
" style="fill:none;stroke:#000000;stroke-linecap:square;stroke-linejoin:miter;stroke-width:0.8;"/>
   </g>
   <g id="patch_49">
    <path d="M 108 384.48 
L 777.6 384.48 
" style="fill:none;stroke:#000000;stroke-linecap:square;stroke-linejoin:miter;stroke-width:0.8;"/>
   </g>
   <g id="patch_50">
    <path d="M 108 51.84 
L 777.6 51.84 
" style="fill:none;stroke:#000000;stroke-linecap:square;stroke-linejoin:miter;stroke-width:0.8;"/>
   </g>
   <g id="text_18">
    <!-- synthetic_82.csv -->
    <defs>
     <path d="M 32.171875 -5.078125 
Q 28.375 -14.84375 24.75 -17.8125 
Q 21.140625 -20.796875 15.09375 -20.796875 
L 7.90625 -20.796875 
L 7.90625 -13.28125 
L 13.1875 -13.28125 
Q 16.890625 -13.28125 18.9375 -11.515625 
Q 21 -9.765625 23.484375 -3.21875 
L 25.09375 0.875 
L 2.984375 54.6875 
L 12.5 54.6875 
L 29.59375 11.921875 
L 46.6875 54.6875 
L 56.203125 54.6875 
z
" id="DejaVuSans-121"/>
     <path d="M 54.890625 33.015625 
L 54.890625 0 
L 45.90625 0 
L 45.90625 32.71875 
Q 45.90625 40.484375 42.875 44.328125 
Q 39.84375 48.1875 33.796875 48.1875 
Q 26.515625 48.1875 22.3125 43.546875 
Q 18.109375 38.921875 18.109375 30.90625 
L 18.109375 0 
L 9.078125 0 
L 9.078125 54.6875 
L 18.109375 54.6875 
L 18.109375 46.1875 
Q 21.34375 51.125 25.703125 53.5625 
Q 30.078125 56 35.796875 56 
Q 45.21875 56 50.046875 50.171875 
Q 54.890625 44.34375 54.890625 33.015625 
z
" id="DejaVuSans-110"/>
     <path d="M 54.890625 33.015625 
L 54.890625 0 
L 45.90625 0 
L 45.90625 32.71875 
Q 45.90625 40.484375 42.875 44.328125 
Q 39.84375 48.1875 33.796875 48.1875 
Q 26.515625 48.1875 22.3125 43.546875 
Q 18.109375 38.921875 18.109375 30.90625 
L 18.109375 0 
L 9.078125 0 
L 9.078125 75.984375 
L 18.109375 75.984375 
L 18.109375 46.1875 
Q 21.34375 51.125 25.703125 53.5625 
Q 30.078125 56 35.796875 56 
Q 45.21875 56 50.046875 50.171875 
Q 54.890625 44.34375 54.890625 33.015625 
z
" id="DejaVuSans-104"/>
     <path d="M 48.78125 52.59375 
L 48.78125 44.1875 
Q 44.96875 46.296875 41.140625 47.34375 
Q 37.3125 48.390625 33.40625 48.390625 
Q 24.65625 48.390625 19.8125 42.84375 
Q 14.984375 37.3125 14.984375 27.296875 
Q 14.984375 17.28125 19.8125 11.734375 
Q 24.65625 6.203125 33.40625 6.203125 
Q 37.3125 6.203125 41.140625 7.25 
Q 44.96875 8.296875 48.78125 10.40625 
L 48.78125 2.09375 
Q 45.015625 0.34375 40.984375 -0.53125 
Q 36.96875 -1.421875 32.421875 -1.421875 
Q 20.0625 -1.421875 12.78125 6.34375 
Q 5.515625 14.109375 5.515625 27.296875 
Q 5.515625 40.671875 12.859375 48.328125 
Q 20.21875 56 33.015625 56 
Q 37.15625 56 41.109375 55.140625 
Q 45.0625 54.296875 48.78125 52.59375 
z
" id="DejaVuSans-99"/>
     <path d="M 50.984375 -16.609375 
L 50.984375 -23.578125 
L -0.984375 -23.578125 
L -0.984375 -16.609375 
z
" id="DejaVuSans-95"/>
     <path d="M 10.6875 12.40625 
L 21 12.40625 
L 21 0 
L 10.6875 0 
z
" id="DejaVuSans-46"/>
     <path d="M 2.984375 54.6875 
L 12.5 54.6875 
L 29.59375 8.796875 
L 46.6875 54.6875 
L 56.203125 54.6875 
L 35.6875 0 
L 23.484375 0 
z
" id="DejaVuSans-118"/>
    </defs>
    <g transform="translate(392.638125 45.84)scale(0.12 -0.12)">
     <use xlink:href="#DejaVuSans-115"/>
     <use x="52.099609" xlink:href="#DejaVuSans-121"/>
     <use x="111.279297" xlink:href="#DejaVuSans-110"/>
     <use x="174.658203" xlink:href="#DejaVuSans-116"/>
     <use x="213.867188" xlink:href="#DejaVuSans-104"/>
     <use x="277.246094" xlink:href="#DejaVuSans-101"/>
     <use x="338.769531" xlink:href="#DejaVuSans-116"/>
     <use x="377.978516" xlink:href="#DejaVuSans-105"/>
     <use x="405.761719" xlink:href="#DejaVuSans-99"/>
     <use x="460.742188" xlink:href="#DejaVuSans-95"/>
     <use x="510.742188" xlink:href="#DejaVuSans-56"/>
     <use x="574.365234" xlink:href="#DejaVuSans-50"/>
     <use x="637.988281" xlink:href="#DejaVuSans-46"/>
     <use x="669.775391" xlink:href="#DejaVuSans-99"/>
     <use x="724.755859" xlink:href="#DejaVuSans-115"/>
     <use x="776.855469" xlink:href="#DejaVuSans-118"/>
    </g>
   </g>
   <g id="legend_1">
    <g id="patch_51">
     <path d="M 115 74.518125 
L 174.315625 74.518125 
Q 176.315625 74.518125 176.315625 72.518125 
L 176.315625 58.84 
Q 176.315625 56.84 174.315625 56.84 
L 115 56.84 
Q 113 56.84 113 58.84 
L 113 72.518125 
Q 113 74.518125 115 74.518125 
z
" style="fill:#ffffff;opacity:0.8;stroke:#cccccc;stroke-linejoin:miter;"/>
    </g>
    <g id="line2d_18">
     <path d="M 117 64.938438 
L 137 64.938438 
" style="fill:none;stroke:#1f77b4;stroke-linecap:square;stroke-width:1.5;"/>
    </g>
    <g id="line2d_19"/>
    <g id="text_19">
     <!-- value -->
     <g transform="translate(145 68.438438)scale(0.1 -0.1)">
      <use xlink:href="#DejaVuSans-118"/>
      <use x="59.179688" xlink:href="#DejaVuSans-97"/>
      <use x="120.458984" xlink:href="#DejaVuSans-108"/>
      <use x="148.242188" xlink:href="#DejaVuSans-117"/>
      <use x="211.621094" xlink:href="#DejaVuSans-101"/>
     </g>
    </g>
   </g>
  </g>
 </g>
 <defs>
  <clipPath id="p3d957a98f2">
   <rect height="332.64" width="669.6" x="108" y="51.84"/>
  </clipPath>
 </defs>
</svg>
