<?xml version="1.0" encoding="utf-8" standalone="no"?>
<!DOCTYPE svg PUBLIC "-//W3C//DTD SVG 1.1//EN"
  "http://www.w3.org/Graphics/SVG/1.1/DTD/svg11.dtd">
<!-- Created with matplotlib (https://matplotlib.org/) -->
<svg height="432pt" version="1.1" viewBox="0 0 864 432" width="864pt" xmlns="http://www.w3.org/2000/svg" xmlns:xlink="http://www.w3.org/1999/xlink">
 <defs>
  <style type="text/css">
*{stroke-linecap:butt;stroke-linejoin:round;}
  </style>
 </defs>
 <g id="figure_1">
  <g id="patch_1">
   <path d="M 0 432 
L 864 432 
L 864 0 
L 0 0 
z
" style="fill:#ffffff;"/>
  </g>
  <g id="axes_1">
   <g id="patch_2">
    <path d="M 108 384.48 
L 777.6 384.48 
L 777.6 51.84 
L 108 51.84 
z
" style="fill:#ffffff;"/>
   </g>
   <g id="patch_3">
    <path clip-path="url(#ped7c343fa2)" d="M 138.436364 384.48 
L 138.436364 51.84 
L 440.999032 51.84 
L 440.999032 384.48 
z
" style="fill:#0000ff;opacity:0.05;"/>
   </g>
   <g id="patch_4">
    <path clip-path="url(#ped7c343fa2)" d="M 440.999032 384.48 
L 440.999032 51.84 
L 747.163636 51.84 
L 747.163636 384.48 
z
" style="fill:#ff0000;opacity:0.08;"/>
   </g>
   <g id="patch_5">
    <path clip-path="url(#ped7c343fa2)" d="M 138.436364 384.48 
L 138.436364 51.84 
L 142.0383 51.84 
L 142.0383 384.48 
z
" style="fill:#008000;opacity:0.04;"/>
   </g>
   <g id="patch_6">
    <path clip-path="url(#ped7c343fa2)" d="M 145.640237 384.48 
L 145.640237 51.84 
L 149.242173 51.84 
L 149.242173 384.48 
z
" style="fill:#008000;opacity:0.04;"/>
   </g>
   <g id="patch_7">
    <path clip-path="url(#ped7c343fa2)" d="M 152.84411 384.48 
L 152.84411 51.84 
L 156.446046 51.84 
L 156.446046 384.48 
z
" style="fill:#008000;opacity:0.04;"/>
   </g>
   <g id="patch_8">
    <path clip-path="url(#ped7c343fa2)" d="M 160.047983 384.48 
L 160.047983 51.84 
L 163.649919 51.84 
L 163.649919 384.48 
z
" style="fill:#008000;opacity:0.04;"/>
   </g>
   <g id="patch_9">
    <path clip-path="url(#ped7c343fa2)" d="M 167.251856 384.48 
L 167.251856 51.84 
L 170.853792 51.84 
L 170.853792 384.48 
z
" style="fill:#008000;opacity:0.04;"/>
   </g>
   <g id="patch_10">
    <path clip-path="url(#ped7c343fa2)" d="M 174.455729 384.48 
L 174.455729 51.84 
L 178.057665 51.84 
L 178.057665 384.48 
z
" style="fill:#008000;opacity:0.04;"/>
   </g>
   <g id="patch_11">
    <path clip-path="url(#ped7c343fa2)" d="M 181.659602 384.48 
L 181.659602 51.84 
L 185.261538 51.84 
L 185.261538 384.48 
z
" style="fill:#008000;opacity:0.04;"/>
   </g>
   <g id="patch_12">
    <path clip-path="url(#ped7c343fa2)" d="M 188.863475 384.48 
L 188.863475 51.84 
L 192.465412 51.84 
L 192.465412 384.48 
z
" style="fill:#008000;opacity:0.04;"/>
   </g>
   <g id="patch_13">
    <path clip-path="url(#ped7c343fa2)" d="M 188.863475 384.48 
L 188.863475 371.1744 
L 192.465412 371.1744 
L 192.465412 384.48 
z
" style="fill:#ffe500;"/>
   </g>
   <g id="patch_14">
    <path clip-path="url(#ped7c343fa2)" d="M 196.067348 384.48 
L 196.067348 51.84 
L 199.669285 51.84 
L 199.669285 384.48 
z
" style="fill:#008000;opacity:0.04;"/>
   </g>
   <g id="patch_15">
    <path clip-path="url(#ped7c343fa2)" d="M 203.271221 384.48 
L 203.271221 51.84 
L 206.873158 51.84 
L 206.873158 384.48 
z
" style="fill:#008000;opacity:0.04;"/>
   </g>
   <g id="patch_16">
    <path clip-path="url(#ped7c343fa2)" d="M 210.475094 384.48 
L 210.475094 51.84 
L 214.077031 51.84 
L 214.077031 384.48 
z
" style="fill:#008000;opacity:0.04;"/>
   </g>
   <g id="patch_17">
    <path clip-path="url(#ped7c343fa2)" d="M 217.678967 384.48 
L 217.678967 51.84 
L 221.280904 51.84 
L 221.280904 384.48 
z
" style="fill:#008000;opacity:0.04;"/>
   </g>
   <g id="patch_18">
    <path clip-path="url(#ped7c343fa2)" d="M 224.88284 384.48 
L 224.88284 51.84 
L 228.484777 51.84 
L 228.484777 384.48 
z
" style="fill:#008000;opacity:0.04;"/>
   </g>
   <g id="patch_19">
    <path clip-path="url(#ped7c343fa2)" d="M 232.086713 384.48 
L 232.086713 51.84 
L 235.68865 51.84 
L 235.68865 384.48 
z
" style="fill:#008000;opacity:0.04;"/>
   </g>
   <g id="patch_20">
    <path clip-path="url(#ped7c343fa2)" d="M 232.086713 384.48 
L 232.086713 371.1744 
L 235.68865 371.1744 
L 235.68865 384.48 
z
" style="fill:#ffe500;"/>
   </g>
   <g id="patch_21">
    <path clip-path="url(#ped7c343fa2)" d="M 239.290586 384.48 
L 239.290586 51.84 
L 242.892523 51.84 
L 242.892523 384.48 
z
" style="fill:#008000;opacity:0.04;"/>
   </g>
   <g id="patch_22">
    <path clip-path="url(#ped7c343fa2)" d="M 246.494459 384.48 
L 246.494459 51.84 
L 250.096396 51.84 
L 250.096396 384.48 
z
" style="fill:#008000;opacity:0.04;"/>
   </g>
   <g id="patch_23">
    <path clip-path="url(#ped7c343fa2)" d="M 253.698332 384.48 
L 253.698332 51.84 
L 257.300269 51.84 
L 257.300269 384.48 
z
" style="fill:#008000;opacity:0.04;"/>
   </g>
   <g id="patch_24">
    <path clip-path="url(#ped7c343fa2)" d="M 260.902205 384.48 
L 260.902205 51.84 
L 264.504142 51.84 
L 264.504142 384.48 
z
" style="fill:#008000;opacity:0.04;"/>
   </g>
   <g id="patch_25">
    <path clip-path="url(#ped7c343fa2)" d="M 268.106079 384.48 
L 268.106079 51.84 
L 271.708015 51.84 
L 271.708015 384.48 
z
" style="fill:#008000;opacity:0.04;"/>
   </g>
   <g id="patch_26">
    <path clip-path="url(#ped7c343fa2)" d="M 275.309952 384.48 
L 275.309952 51.84 
L 278.911888 51.84 
L 278.911888 384.48 
z
" style="fill:#008000;opacity:0.04;"/>
   </g>
   <g id="patch_27">
    <path clip-path="url(#ped7c343fa2)" d="M 282.513825 384.48 
L 282.513825 51.84 
L 286.115761 51.84 
L 286.115761 384.48 
z
" style="fill:#008000;opacity:0.04;"/>
   </g>
   <g id="patch_28">
    <path clip-path="url(#ped7c343fa2)" d="M 289.717698 384.48 
L 289.717698 51.84 
L 293.319634 51.84 
L 293.319634 384.48 
z
" style="fill:#008000;opacity:0.04;"/>
   </g>
   <g id="patch_29">
    <path clip-path="url(#ped7c343fa2)" d="M 296.921571 384.48 
L 296.921571 51.84 
L 300.523507 51.84 
L 300.523507 384.48 
z
" style="fill:#008000;opacity:0.04;"/>
   </g>
   <g id="patch_30">
    <path clip-path="url(#ped7c343fa2)" d="M 296.921571 371.1744 
L 296.921571 51.84 
L 300.523507 51.84 
L 300.523507 371.1744 
z
" style="fill:#008000;opacity:0.5;"/>
   </g>
   <g id="patch_31">
    <path clip-path="url(#ped7c343fa2)" d="M 296.921571 384.48 
L 296.921571 371.1744 
L 300.523507 371.1744 
L 300.523507 384.48 
z
" style="fill:#ffe500;"/>
   </g>
   <g id="patch_32">
    <path clip-path="url(#ped7c343fa2)" d="M 304.125444 384.48 
L 304.125444 51.84 
L 307.72738 51.84 
L 307.72738 384.48 
z
" style="fill:#008000;opacity:0.04;"/>
   </g>
   <g id="patch_33">
    <path clip-path="url(#ped7c343fa2)" d="M 311.329317 384.48 
L 311.329317 51.84 
L 314.931253 51.84 
L 314.931253 384.48 
z
" style="fill:#008000;opacity:0.04;"/>
   </g>
   <g id="patch_34">
    <path clip-path="url(#ped7c343fa2)" d="M 318.53319 384.48 
L 318.53319 51.84 
L 322.135126 51.84 
L 322.135126 384.48 
z
" style="fill:#008000;opacity:0.04;"/>
   </g>
   <g id="patch_35">
    <path clip-path="url(#ped7c343fa2)" d="M 318.53319 384.48 
L 318.53319 371.1744 
L 322.135126 371.1744 
L 322.135126 384.48 
z
" style="fill:#ffe500;"/>
   </g>
   <g id="patch_36">
    <path clip-path="url(#ped7c343fa2)" d="M 325.737063 384.48 
L 325.737063 51.84 
L 329.338999 51.84 
L 329.338999 384.48 
z
" style="fill:#008000;opacity:0.04;"/>
   </g>
   <g id="patch_37">
    <path clip-path="url(#ped7c343fa2)" d="M 332.940936 384.48 
L 332.940936 51.84 
L 336.542873 51.84 
L 336.542873 384.48 
z
" style="fill:#008000;opacity:0.04;"/>
   </g>
   <g id="patch_38">
    <path clip-path="url(#ped7c343fa2)" d="M 340.144809 384.48 
L 340.144809 51.84 
L 343.746746 51.84 
L 343.746746 384.48 
z
" style="fill:#008000;opacity:0.04;"/>
   </g>
   <g id="patch_39">
    <path clip-path="url(#ped7c343fa2)" d="M 347.348682 384.48 
L 347.348682 51.84 
L 350.950619 51.84 
L 350.950619 384.48 
z
" style="fill:#008000;opacity:0.04;"/>
   </g>
   <g id="patch_40">
    <path clip-path="url(#ped7c343fa2)" d="M 354.552555 384.48 
L 354.552555 51.84 
L 358.154492 51.84 
L 358.154492 384.48 
z
" style="fill:#008000;opacity:0.04;"/>
   </g>
   <g id="patch_41">
    <path clip-path="url(#ped7c343fa2)" d="M 361.756428 384.48 
L 361.756428 51.84 
L 365.358365 51.84 
L 365.358365 384.48 
z
" style="fill:#008000;opacity:0.04;"/>
   </g>
   <g id="patch_42">
    <path clip-path="url(#ped7c343fa2)" d="M 361.756428 384.48 
L 361.756428 371.1744 
L 365.358365 371.1744 
L 365.358365 384.48 
z
" style="fill:#ffe500;"/>
   </g>
   <g id="patch_43">
    <path clip-path="url(#ped7c343fa2)" d="M 368.960301 384.48 
L 368.960301 51.84 
L 372.562238 51.84 
L 372.562238 384.48 
z
" style="fill:#008000;opacity:0.04;"/>
   </g>
   <g id="patch_44">
    <path clip-path="url(#ped7c343fa2)" d="M 376.164174 384.48 
L 376.164174 51.84 
L 379.766111 51.84 
L 379.766111 384.48 
z
" style="fill:#008000;opacity:0.04;"/>
   </g>
   <g id="patch_45">
    <path clip-path="url(#ped7c343fa2)" d="M 682.328779 384.48 
L 682.328779 371.1744 
L 685.930715 371.1744 
L 685.930715 384.48 
z
" style="fill:#ff6600;"/>
   </g>
   <g id="patch_46">
    <path clip-path="url(#ped7c343fa2)" d="M 383.368047 384.48 
L 383.368047 51.84 
L 386.969984 51.84 
L 386.969984 384.48 
z
" style="fill:#008000;opacity:0.04;"/>
   </g>
   <g id="patch_47">
    <path clip-path="url(#ped7c343fa2)" d="M 390.57192 384.48 
L 390.57192 51.84 
L 394.173857 51.84 
L 394.173857 384.48 
z
" style="fill:#008000;opacity:0.04;"/>
   </g>
   <g id="patch_48">
    <path clip-path="url(#ped7c343fa2)" d="M 397.775793 384.48 
L 397.775793 51.84 
L 401.37773 51.84 
L 401.37773 384.48 
z
" style="fill:#008000;opacity:0.04;"/>
   </g>
   <g id="patch_49">
    <path clip-path="url(#ped7c343fa2)" d="M 404.979666 384.48 
L 404.979666 51.84 
L 408.581603 51.84 
L 408.581603 384.48 
z
" style="fill:#008000;opacity:0.04;"/>
   </g>
   <g id="patch_50">
    <path clip-path="url(#ped7c343fa2)" d="M 404.979666 384.48 
L 404.979666 371.1744 
L 408.581603 371.1744 
L 408.581603 384.48 
z
" style="fill:#ffe500;"/>
   </g>
   <g id="patch_51">
    <path clip-path="url(#ped7c343fa2)" d="M 412.18354 384.48 
L 412.18354 51.84 
L 415.785476 51.84 
L 415.785476 384.48 
z
" style="fill:#008000;opacity:0.04;"/>
   </g>
   <g id="patch_52">
    <path clip-path="url(#ped7c343fa2)" d="M 419.387413 384.48 
L 419.387413 51.84 
L 422.989349 51.84 
L 422.989349 384.48 
z
" style="fill:#008000;opacity:0.04;"/>
   </g>
   <g id="patch_53">
    <path clip-path="url(#ped7c343fa2)" d="M 426.591286 384.48 
L 426.591286 51.84 
L 430.193222 51.84 
L 430.193222 384.48 
z
" style="fill:#008000;opacity:0.04;"/>
   </g>
   <g id="patch_54">
    <path clip-path="url(#ped7c343fa2)" d="M 426.591286 384.48 
L 426.591286 371.1744 
L 430.193222 371.1744 
L 430.193222 384.48 
z
" style="fill:#ffe500;"/>
   </g>
   <g id="patch_55">
    <path clip-path="url(#ped7c343fa2)" d="M 433.795159 384.48 
L 433.795159 51.84 
L 437.397095 51.84 
L 437.397095 384.48 
z
" style="fill:#008000;opacity:0.04;"/>
   </g>
   <g id="patch_56">
    <path clip-path="url(#ped7c343fa2)" d="M 433.795159 371.1744 
L 433.795159 51.84 
L 437.397095 51.84 
L 437.397095 371.1744 
z
" style="fill:#008000;opacity:0.5;"/>
   </g>
   <g id="patch_57">
    <path clip-path="url(#ped7c343fa2)" d="M 433.795159 384.48 
L 433.795159 371.1744 
L 437.397095 371.1744 
L 437.397095 384.48 
z
" style="fill:#ffe500;"/>
   </g>
   <g id="patch_58">
    <path clip-path="url(#ped7c343fa2)" d="M 440.999032 384.48 
L 440.999032 51.84 
L 444.600968 51.84 
L 444.600968 384.48 
z
" style="fill:#008000;opacity:0.04;"/>
   </g>
   <g id="patch_59">
    <path clip-path="url(#ped7c343fa2)" d="M 743.5617 384.48 
L 743.5617 371.1744 
L 747.163636 371.1744 
L 747.163636 384.48 
z
" style="fill:#ff6600;"/>
   </g>
   <g id="patch_60">
    <path clip-path="url(#ped7c343fa2)" d="M 448.202905 384.48 
L 448.202905 51.84 
L 451.804841 51.84 
L 451.804841 384.48 
z
" style="fill:#008000;opacity:0.04;"/>
   </g>
   <g id="patch_61">
    <path clip-path="url(#ped7c343fa2)" d="M 455.406778 384.48 
L 455.406778 51.84 
L 459.008714 51.84 
L 459.008714 384.48 
z
" style="fill:#008000;opacity:0.04;"/>
   </g>
   <g id="patch_62">
    <path clip-path="url(#ped7c343fa2)" d="M 462.610651 384.48 
L 462.610651 51.84 
L 466.212587 51.84 
L 466.212587 384.48 
z
" style="fill:#008000;opacity:0.04;"/>
   </g>
   <g id="patch_63">
    <path clip-path="url(#ped7c343fa2)" d="M 469.814524 384.48 
L 469.814524 51.84 
L 473.41646 51.84 
L 473.41646 384.48 
z
" style="fill:#008000;opacity:0.04;"/>
   </g>
   <g id="patch_64">
    <path clip-path="url(#ped7c343fa2)" d="M 477.018397 384.48 
L 477.018397 51.84 
L 480.620334 51.84 
L 480.620334 384.48 
z
" style="fill:#008000;opacity:0.04;"/>
   </g>
   <g id="patch_65">
    <path clip-path="url(#ped7c343fa2)" d="M 484.22227 384.48 
L 484.22227 51.84 
L 487.824207 51.84 
L 487.824207 384.48 
z
" style="fill:#008000;opacity:0.04;"/>
   </g>
   <g id="patch_66">
    <path clip-path="url(#ped7c343fa2)" d="M 491.426143 384.48 
L 491.426143 51.84 
L 495.02808 51.84 
L 495.02808 384.48 
z
" style="fill:#008000;opacity:0.04;"/>
   </g>
   <g id="patch_67">
    <path clip-path="url(#ped7c343fa2)" d="M 498.630016 384.48 
L 498.630016 51.84 
L 502.231953 51.84 
L 502.231953 384.48 
z
" style="fill:#008000;opacity:0.04;"/>
   </g>
   <g id="patch_68">
    <path clip-path="url(#ped7c343fa2)" d="M 505.833889 384.48 
L 505.833889 51.84 
L 509.435826 51.84 
L 509.435826 384.48 
z
" style="fill:#008000;opacity:0.04;"/>
   </g>
   <g id="patch_69">
    <path clip-path="url(#ped7c343fa2)" d="M 513.037762 384.48 
L 513.037762 51.84 
L 516.639699 51.84 
L 516.639699 384.48 
z
" style="fill:#008000;opacity:0.04;"/>
   </g>
   <g id="patch_70">
    <path clip-path="url(#ped7c343fa2)" d="M 520.241635 384.48 
L 520.241635 51.84 
L 523.843572 51.84 
L 523.843572 384.48 
z
" style="fill:#008000;opacity:0.04;"/>
   </g>
   <g id="patch_71">
    <path clip-path="url(#ped7c343fa2)" d="M 527.445508 384.48 
L 527.445508 51.84 
L 531.047445 51.84 
L 531.047445 384.48 
z
" style="fill:#008000;opacity:0.04;"/>
   </g>
   <g id="patch_72">
    <path clip-path="url(#ped7c343fa2)" d="M 534.649381 384.48 
L 534.649381 51.84 
L 538.251318 51.84 
L 538.251318 384.48 
z
" style="fill:#008000;opacity:0.04;"/>
   </g>
   <g id="patch_73">
    <path clip-path="url(#ped7c343fa2)" d="M 541.853254 384.48 
L 541.853254 51.84 
L 545.455191 51.84 
L 545.455191 384.48 
z
" style="fill:#008000;opacity:0.04;"/>
   </g>
   <g id="patch_74">
    <path clip-path="url(#ped7c343fa2)" d="M 549.057127 384.48 
L 549.057127 51.84 
L 552.659064 51.84 
L 552.659064 384.48 
z
" style="fill:#008000;opacity:0.04;"/>
   </g>
   <g id="patch_75">
    <path clip-path="url(#ped7c343fa2)" d="M 556.261001 384.48 
L 556.261001 51.84 
L 559.862937 51.84 
L 559.862937 384.48 
z
" style="fill:#008000;opacity:0.04;"/>
   </g>
   <g id="patch_76">
    <path clip-path="url(#ped7c343fa2)" d="M 563.464874 384.48 
L 563.464874 51.84 
L 567.06681 51.84 
L 567.06681 384.48 
z
" style="fill:#008000;opacity:0.04;"/>
   </g>
   <g id="patch_77">
    <path clip-path="url(#ped7c343fa2)" d="M 570.668747 384.48 
L 570.668747 51.84 
L 574.270683 51.84 
L 574.270683 384.48 
z
" style="fill:#008000;opacity:0.04;"/>
   </g>
   <g id="patch_78">
    <path clip-path="url(#ped7c343fa2)" d="M 577.87262 384.48 
L 577.87262 51.84 
L 581.474556 51.84 
L 581.474556 384.48 
z
" style="fill:#008000;opacity:0.04;"/>
   </g>
   <g id="patch_79">
    <path clip-path="url(#ped7c343fa2)" d="M 585.076493 384.48 
L 585.076493 51.84 
L 588.678429 51.84 
L 588.678429 384.48 
z
" style="fill:#008000;opacity:0.04;"/>
   </g>
   <g id="patch_80">
    <path clip-path="url(#ped7c343fa2)" d="M 592.280366 384.48 
L 592.280366 51.84 
L 595.882302 51.84 
L 595.882302 384.48 
z
" style="fill:#008000;opacity:0.04;"/>
   </g>
   <g id="patch_81">
    <path clip-path="url(#ped7c343fa2)" d="M 599.484239 384.48 
L 599.484239 51.84 
L 603.086175 51.84 
L 603.086175 384.48 
z
" style="fill:#008000;opacity:0.04;"/>
   </g>
   <g id="patch_82">
    <path clip-path="url(#ped7c343fa2)" d="M 606.688112 384.48 
L 606.688112 51.84 
L 610.290048 51.84 
L 610.290048 384.48 
z
" style="fill:#008000;opacity:0.04;"/>
   </g>
   <g id="patch_83">
    <path clip-path="url(#ped7c343fa2)" d="M 613.891985 384.48 
L 613.891985 51.84 
L 617.493921 51.84 
L 617.493921 384.48 
z
" style="fill:#008000;opacity:0.04;"/>
   </g>
   <g id="patch_84">
    <path clip-path="url(#ped7c343fa2)" d="M 621.095858 384.48 
L 621.095858 51.84 
L 624.697795 51.84 
L 624.697795 384.48 
z
" style="fill:#008000;opacity:0.04;"/>
   </g>
   <g id="patch_85">
    <path clip-path="url(#ped7c343fa2)" d="M 628.299731 384.48 
L 628.299731 51.84 
L 631.901668 51.84 
L 631.901668 384.48 
z
" style="fill:#008000;opacity:0.04;"/>
   </g>
   <g id="patch_86">
    <path clip-path="url(#ped7c343fa2)" d="M 635.503604 384.48 
L 635.503604 51.84 
L 639.105541 51.84 
L 639.105541 384.48 
z
" style="fill:#008000;opacity:0.04;"/>
   </g>
   <g id="patch_87">
    <path clip-path="url(#ped7c343fa2)" d="M 642.707477 384.48 
L 642.707477 51.84 
L 646.309414 51.84 
L 646.309414 384.48 
z
" style="fill:#008000;opacity:0.04;"/>
   </g>
   <g id="patch_88">
    <path clip-path="url(#ped7c343fa2)" d="M 649.91135 384.48 
L 649.91135 51.84 
L 653.513287 51.84 
L 653.513287 384.48 
z
" style="fill:#008000;opacity:0.04;"/>
   </g>
   <g id="patch_89">
    <path clip-path="url(#ped7c343fa2)" d="M 657.115223 384.48 
L 657.115223 51.84 
L 660.71716 51.84 
L 660.71716 384.48 
z
" style="fill:#008000;opacity:0.04;"/>
   </g>
   <g id="patch_90">
    <path clip-path="url(#ped7c343fa2)" d="M 664.319096 384.48 
L 664.319096 51.84 
L 667.921033 51.84 
L 667.921033 384.48 
z
" style="fill:#008000;opacity:0.04;"/>
   </g>
   <g id="patch_91">
    <path clip-path="url(#ped7c343fa2)" d="M 671.522969 384.48 
L 671.522969 51.84 
L 675.124906 51.84 
L 675.124906 384.48 
z
" style="fill:#008000;opacity:0.04;"/>
   </g>
   <g id="patch_92">
    <path clip-path="url(#ped7c343fa2)" d="M 678.726842 384.48 
L 678.726842 51.84 
L 682.328779 51.84 
L 682.328779 384.48 
z
" style="fill:#008000;opacity:0.04;"/>
   </g>
   <g id="patch_93">
    <path clip-path="url(#ped7c343fa2)" d="M 682.328779 371.1744 
L 682.328779 51.84 
L 685.930715 51.84 
L 685.930715 371.1744 
z
" style="fill:#008000;opacity:0.5;"/>
   </g>
   <g id="patch_94">
    <path clip-path="url(#ped7c343fa2)" d="M 685.930715 384.48 
L 685.930715 51.84 
L 689.532652 51.84 
L 689.532652 384.48 
z
" style="fill:#008000;opacity:0.04;"/>
   </g>
   <g id="patch_95">
    <path clip-path="url(#ped7c343fa2)" d="M 693.134588 384.48 
L 693.134588 51.84 
L 696.736525 51.84 
L 696.736525 384.48 
z
" style="fill:#008000;opacity:0.04;"/>
   </g>
   <g id="patch_96">
    <path clip-path="url(#ped7c343fa2)" d="M 700.338462 384.48 
L 700.338462 51.84 
L 703.940398 51.84 
L 703.940398 384.48 
z
" style="fill:#008000;opacity:0.04;"/>
   </g>
   <g id="patch_97">
    <path clip-path="url(#ped7c343fa2)" d="M 707.542335 384.48 
L 707.542335 51.84 
L 711.144271 51.84 
L 711.144271 384.48 
z
" style="fill:#008000;opacity:0.04;"/>
   </g>
   <g id="patch_98">
    <path clip-path="url(#ped7c343fa2)" d="M 714.746208 384.48 
L 714.746208 51.84 
L 718.348144 51.84 
L 718.348144 384.48 
z
" style="fill:#008000;opacity:0.04;"/>
   </g>
   <g id="patch_99">
    <path clip-path="url(#ped7c343fa2)" d="M 721.950081 384.48 
L 721.950081 51.84 
L 725.552017 51.84 
L 725.552017 384.48 
z
" style="fill:#008000;opacity:0.04;"/>
   </g>
   <g id="patch_100">
    <path clip-path="url(#ped7c343fa2)" d="M 729.153954 384.48 
L 729.153954 51.84 
L 732.75589 51.84 
L 732.75589 384.48 
z
" style="fill:#008000;opacity:0.04;"/>
   </g>
   <g id="patch_101">
    <path clip-path="url(#ped7c343fa2)" d="M 736.357827 384.48 
L 736.357827 51.84 
L 739.959763 51.84 
L 739.959763 384.48 
z
" style="fill:#008000;opacity:0.04;"/>
   </g>
   <g id="patch_102">
    <path clip-path="url(#ped7c343fa2)" d="M 743.5617 384.48 
L 743.5617 51.84 
L 747.163636 51.84 
L 747.163636 384.48 
z
" style="fill:#008000;opacity:0.04;"/>
   </g>
   <g id="matplotlib.axis_1">
    <g id="xtick_1">
     <g id="line2d_1">
      <defs>
       <path d="M 0 0 
L 0 3.5 
" id="m4760bd6efc" style="stroke:#000000;stroke-width:0.8;"/>
      </defs>
      <g>
       <use style="stroke:#000000;stroke-width:0.8;" x="138.436364" xlink:href="#m4760bd6efc" y="384.48"/>
      </g>
     </g>
     <g id="text_1">
      <!-- 0 -->
      <defs>
       <path d="M 31.78125 66.40625 
Q 24.171875 66.40625 20.328125 58.90625 
Q 16.5 51.421875 16.5 36.375 
Q 16.5 21.390625 20.328125 13.890625 
Q 24.171875 6.390625 31.78125 6.390625 
Q 39.453125 6.390625 43.28125 13.890625 
Q 47.125 21.390625 47.125 36.375 
Q 47.125 51.421875 43.28125 58.90625 
Q 39.453125 66.40625 31.78125 66.40625 
z
M 31.78125 74.21875 
Q 44.046875 74.21875 50.515625 64.515625 
Q 56.984375 54.828125 56.984375 36.375 
Q 56.984375 17.96875 50.515625 8.265625 
Q 44.046875 -1.421875 31.78125 -1.421875 
Q 19.53125 -1.421875 13.0625 8.265625 
Q 6.59375 17.96875 6.59375 36.375 
Q 6.59375 54.828125 13.0625 64.515625 
Q 19.53125 74.21875 31.78125 74.21875 
z
" id="DejaVuSans-48"/>
      </defs>
      <g transform="translate(135.255114 399.078438)scale(0.1 -0.1)">
       <use xlink:href="#DejaVuSans-48"/>
      </g>
     </g>
    </g>
    <g id="xtick_2">
     <g id="line2d_2">
      <g>
       <use style="stroke:#000000;stroke-width:0.8;" x="228.484777" xlink:href="#m4760bd6efc" y="384.48"/>
      </g>
     </g>
     <g id="text_2">
      <!-- 250 -->
      <defs>
       <path d="M 19.1875 8.296875 
L 53.609375 8.296875 
L 53.609375 0 
L 7.328125 0 
L 7.328125 8.296875 
Q 12.9375 14.109375 22.625 23.890625 
Q 32.328125 33.6875 34.8125 36.53125 
Q 39.546875 41.84375 41.421875 45.53125 
Q 43.3125 49.21875 43.3125 52.78125 
Q 43.3125 58.59375 39.234375 62.25 
Q 35.15625 65.921875 28.609375 65.921875 
Q 23.96875 65.921875 18.8125 64.3125 
Q 13.671875 62.703125 7.8125 59.421875 
L 7.8125 69.390625 
Q 13.765625 71.78125 18.9375 73 
Q 24.125 74.21875 28.421875 74.21875 
Q 39.75 74.21875 46.484375 68.546875 
Q 53.21875 62.890625 53.21875 53.421875 
Q 53.21875 48.921875 51.53125 44.890625 
Q 49.859375 40.875 45.40625 35.40625 
Q 44.1875 33.984375 37.640625 27.21875 
Q 31.109375 20.453125 19.1875 8.296875 
z
" id="DejaVuSans-50"/>
       <path d="M 10.796875 72.90625 
L 49.515625 72.90625 
L 49.515625 64.59375 
L 19.828125 64.59375 
L 19.828125 46.734375 
Q 21.96875 47.46875 24.109375 47.828125 
Q 26.265625 48.1875 28.421875 48.1875 
Q 40.625 48.1875 47.75 41.5 
Q 54.890625 34.8125 54.890625 23.390625 
Q 54.890625 11.625 47.5625 5.09375 
Q 40.234375 -1.421875 26.90625 -1.421875 
Q 22.3125 -1.421875 17.546875 -0.640625 
Q 12.796875 0.140625 7.71875 1.703125 
L 7.71875 11.625 
Q 12.109375 9.234375 16.796875 8.0625 
Q 21.484375 6.890625 26.703125 6.890625 
Q 35.15625 6.890625 40.078125 11.328125 
Q 45.015625 15.765625 45.015625 23.390625 
Q 45.015625 31 40.078125 35.4375 
Q 35.15625 39.890625 26.703125 39.890625 
Q 22.75 39.890625 18.8125 39.015625 
Q 14.890625 38.140625 10.796875 36.28125 
z
" id="DejaVuSans-53"/>
      </defs>
      <g transform="translate(218.941027 399.078438)scale(0.1 -0.1)">
       <use xlink:href="#DejaVuSans-50"/>
       <use x="63.623047" xlink:href="#DejaVuSans-53"/>
       <use x="127.246094" xlink:href="#DejaVuSans-48"/>
      </g>
     </g>
    </g>
    <g id="xtick_3">
     <g id="line2d_3">
      <g>
       <use style="stroke:#000000;stroke-width:0.8;" x="318.53319" xlink:href="#m4760bd6efc" y="384.48"/>
      </g>
     </g>
     <g id="text_3">
      <!-- 500 -->
      <g transform="translate(308.98944 399.078438)scale(0.1 -0.1)">
       <use xlink:href="#DejaVuSans-53"/>
       <use x="63.623047" xlink:href="#DejaVuSans-48"/>
       <use x="127.246094" xlink:href="#DejaVuSans-48"/>
      </g>
     </g>
    </g>
    <g id="xtick_4">
     <g id="line2d_4">
      <g>
       <use style="stroke:#000000;stroke-width:0.8;" x="408.581603" xlink:href="#m4760bd6efc" y="384.48"/>
      </g>
     </g>
     <g id="text_4">
      <!-- 750 -->
      <defs>
       <path d="M 8.203125 72.90625 
L 55.078125 72.90625 
L 55.078125 68.703125 
L 28.609375 0 
L 18.3125 0 
L 43.21875 64.59375 
L 8.203125 64.59375 
z
" id="DejaVuSans-55"/>
      </defs>
      <g transform="translate(399.037853 399.078438)scale(0.1 -0.1)">
       <use xlink:href="#DejaVuSans-55"/>
       <use x="63.623047" xlink:href="#DejaVuSans-53"/>
       <use x="127.246094" xlink:href="#DejaVuSans-48"/>
      </g>
     </g>
    </g>
    <g id="xtick_5">
     <g id="line2d_5">
      <g>
       <use style="stroke:#000000;stroke-width:0.8;" x="498.630016" xlink:href="#m4760bd6efc" y="384.48"/>
      </g>
     </g>
     <g id="text_5">
      <!-- 1000 -->
      <defs>
       <path d="M 12.40625 8.296875 
L 28.515625 8.296875 
L 28.515625 63.921875 
L 10.984375 60.40625 
L 10.984375 69.390625 
L 28.421875 72.90625 
L 38.28125 72.90625 
L 38.28125 8.296875 
L 54.390625 8.296875 
L 54.390625 0 
L 12.40625 0 
z
" id="DejaVuSans-49"/>
      </defs>
      <g transform="translate(485.905016 399.078438)scale(0.1 -0.1)">
       <use xlink:href="#DejaVuSans-49"/>
       <use x="63.623047" xlink:href="#DejaVuSans-48"/>
       <use x="127.246094" xlink:href="#DejaVuSans-48"/>
       <use x="190.869141" xlink:href="#DejaVuSans-48"/>
      </g>
     </g>
    </g>
    <g id="xtick_6">
     <g id="line2d_6">
      <g>
       <use style="stroke:#000000;stroke-width:0.8;" x="588.678429" xlink:href="#m4760bd6efc" y="384.48"/>
      </g>
     </g>
     <g id="text_6">
      <!-- 1250 -->
      <g transform="translate(575.953429 399.078438)scale(0.1 -0.1)">
       <use xlink:href="#DejaVuSans-49"/>
       <use x="63.623047" xlink:href="#DejaVuSans-50"/>
       <use x="127.246094" xlink:href="#DejaVuSans-53"/>
       <use x="190.869141" xlink:href="#DejaVuSans-48"/>
      </g>
     </g>
    </g>
    <g id="xtick_7">
     <g id="line2d_7">
      <g>
       <use style="stroke:#000000;stroke-width:0.8;" x="678.726842" xlink:href="#m4760bd6efc" y="384.48"/>
      </g>
     </g>
     <g id="text_7">
      <!-- 1500 -->
      <g transform="translate(666.001842 399.078438)scale(0.1 -0.1)">
       <use xlink:href="#DejaVuSans-49"/>
       <use x="63.623047" xlink:href="#DejaVuSans-53"/>
       <use x="127.246094" xlink:href="#DejaVuSans-48"/>
       <use x="190.869141" xlink:href="#DejaVuSans-48"/>
      </g>
     </g>
    </g>
    <g id="xtick_8">
     <g id="line2d_8">
      <g>
       <use style="stroke:#000000;stroke-width:0.8;" x="768.775256" xlink:href="#m4760bd6efc" y="384.48"/>
      </g>
     </g>
     <g id="text_8">
      <!-- 1750 -->
      <g transform="translate(756.050256 399.078438)scale(0.1 -0.1)">
       <use xlink:href="#DejaVuSans-49"/>
       <use x="63.623047" xlink:href="#DejaVuSans-55"/>
       <use x="127.246094" xlink:href="#DejaVuSans-53"/>
       <use x="190.869141" xlink:href="#DejaVuSans-48"/>
      </g>
     </g>
    </g>
    <g id="text_9">
     <!-- Timestamp -->
     <defs>
      <path d="M -0.296875 72.90625 
L 61.375 72.90625 
L 61.375 64.59375 
L 35.5 64.59375 
L 35.5 0 
L 25.59375 0 
L 25.59375 64.59375 
L -0.296875 64.59375 
z
" id="DejaVuSans-84"/>
      <path d="M 9.421875 54.6875 
L 18.40625 54.6875 
L 18.40625 0 
L 9.421875 0 
z
M 9.421875 75.984375 
L 18.40625 75.984375 
L 18.40625 64.59375 
L 9.421875 64.59375 
z
" id="DejaVuSans-105"/>
      <path d="M 52 44.1875 
Q 55.375 50.25 60.0625 53.125 
Q 64.75 56 71.09375 56 
Q 79.640625 56 84.28125 50.015625 
Q 88.921875 44.046875 88.921875 33.015625 
L 88.921875 0 
L 79.890625 0 
L 79.890625 32.71875 
Q 79.890625 40.578125 77.09375 44.375 
Q 74.3125 48.1875 68.609375 48.1875 
Q 61.625 48.1875 57.5625 43.546875 
Q 53.515625 38.921875 53.515625 30.90625 
L 53.515625 0 
L 44.484375 0 
L 44.484375 32.71875 
Q 44.484375 40.625 41.703125 44.40625 
Q 38.921875 48.1875 33.109375 48.1875 
Q 26.21875 48.1875 22.15625 43.53125 
Q 18.109375 38.875 18.109375 30.90625 
L 18.109375 0 
L 9.078125 0 
L 9.078125 54.6875 
L 18.109375 54.6875 
L 18.109375 46.1875 
Q 21.1875 51.21875 25.484375 53.609375 
Q 29.78125 56 35.6875 56 
Q 41.65625 56 45.828125 52.96875 
Q 50 49.953125 52 44.1875 
z
" id="DejaVuSans-109"/>
      <path d="M 56.203125 29.59375 
L 56.203125 25.203125 
L 14.890625 25.203125 
Q 15.484375 15.921875 20.484375 11.0625 
Q 25.484375 6.203125 34.421875 6.203125 
Q 39.59375 6.203125 44.453125 7.46875 
Q 49.3125 8.734375 54.109375 11.28125 
L 54.109375 2.78125 
Q 49.265625 0.734375 44.1875 -0.34375 
Q 39.109375 -1.421875 33.890625 -1.421875 
Q 20.796875 -1.421875 13.15625 6.1875 
Q 5.515625 13.8125 5.515625 26.8125 
Q 5.515625 40.234375 12.765625 48.109375 
Q 20.015625 56 32.328125 56 
Q 43.359375 56 49.78125 48.890625 
Q 56.203125 41.796875 56.203125 29.59375 
z
M 47.21875 32.234375 
Q 47.125 39.59375 43.09375 43.984375 
Q 39.0625 48.390625 32.421875 48.390625 
Q 24.90625 48.390625 20.390625 44.140625 
Q 15.875 39.890625 15.1875 32.171875 
z
" id="DejaVuSans-101"/>
      <path d="M 44.28125 53.078125 
L 44.28125 44.578125 
Q 40.484375 46.53125 36.375 47.5 
Q 32.28125 48.484375 27.875 48.484375 
Q 21.1875 48.484375 17.84375 46.4375 
Q 14.5 44.390625 14.5 40.28125 
Q 14.5 37.15625 16.890625 35.375 
Q 19.28125 33.59375 26.515625 31.984375 
L 29.59375 31.296875 
Q 39.15625 29.25 43.1875 25.515625 
Q 47.21875 21.78125 47.21875 15.09375 
Q 47.21875 7.46875 41.1875 3.015625 
Q 35.15625 -1.421875 24.609375 -1.421875 
Q 20.21875 -1.421875 15.453125 -0.5625 
Q 10.6875 0.296875 5.421875 2 
L 5.421875 11.28125 
Q 10.40625 8.6875 15.234375 7.390625 
Q 20.0625 6.109375 24.8125 6.109375 
Q 31.15625 6.109375 34.5625 8.28125 
Q 37.984375 10.453125 37.984375 14.40625 
Q 37.984375 18.0625 35.515625 20.015625 
Q 33.0625 21.96875 24.703125 23.78125 
L 21.578125 24.515625 
Q 13.234375 26.265625 9.515625 29.90625 
Q 5.8125 33.546875 5.8125 39.890625 
Q 5.8125 47.609375 11.28125 51.796875 
Q 16.75 56 26.8125 56 
Q 31.78125 56 36.171875 55.265625 
Q 40.578125 54.546875 44.28125 53.078125 
z
" id="DejaVuSans-115"/>
      <path d="M 18.3125 70.21875 
L 18.3125 54.6875 
L 36.8125 54.6875 
L 36.8125 47.703125 
L 18.3125 47.703125 
L 18.3125 18.015625 
Q 18.3125 11.328125 20.140625 9.421875 
Q 21.96875 7.515625 27.59375 7.515625 
L 36.8125 7.515625 
L 36.8125 0 
L 27.59375 0 
Q 17.1875 0 13.234375 3.875 
Q 9.28125 7.765625 9.28125 18.015625 
L 9.28125 47.703125 
L 2.6875 47.703125 
L 2.6875 54.6875 
L 9.28125 54.6875 
L 9.28125 70.21875 
z
" id="DejaVuSans-116"/>
      <path d="M 34.28125 27.484375 
Q 23.390625 27.484375 19.1875 25 
Q 14.984375 22.515625 14.984375 16.5 
Q 14.984375 11.71875 18.140625 8.90625 
Q 21.296875 6.109375 26.703125 6.109375 
Q 34.1875 6.109375 38.703125 11.40625 
Q 43.21875 16.703125 43.21875 25.484375 
L 43.21875 27.484375 
z
M 52.203125 31.203125 
L 52.203125 0 
L 43.21875 0 
L 43.21875 8.296875 
Q 40.140625 3.328125 35.546875 0.953125 
Q 30.953125 -1.421875 24.3125 -1.421875 
Q 15.921875 -1.421875 10.953125 3.296875 
Q 6 8.015625 6 15.921875 
Q 6 25.140625 12.171875 29.828125 
Q 18.359375 34.515625 30.609375 34.515625 
L 43.21875 34.515625 
L 43.21875 35.40625 
Q 43.21875 41.609375 39.140625 45 
Q 35.0625 48.390625 27.6875 48.390625 
Q 23 48.390625 18.546875 47.265625 
Q 14.109375 46.140625 10.015625 43.890625 
L 10.015625 52.203125 
Q 14.9375 54.109375 19.578125 55.046875 
Q 24.21875 56 28.609375 56 
Q 40.484375 56 46.34375 49.84375 
Q 52.203125 43.703125 52.203125 31.203125 
z
" id="DejaVuSans-97"/>
      <path d="M 18.109375 8.203125 
L 18.109375 -20.796875 
L 9.078125 -20.796875 
L 9.078125 54.6875 
L 18.109375 54.6875 
L 18.109375 46.390625 
Q 20.953125 51.265625 25.265625 53.625 
Q 29.59375 56 35.59375 56 
Q 45.5625 56 51.78125 48.09375 
Q 58.015625 40.1875 58.015625 27.296875 
Q 58.015625 14.40625 51.78125 6.484375 
Q 45.5625 -1.421875 35.59375 -1.421875 
Q 29.59375 -1.421875 25.265625 0.953125 
Q 20.953125 3.328125 18.109375 8.203125 
z
M 48.6875 27.296875 
Q 48.6875 37.203125 44.609375 42.84375 
Q 40.53125 48.484375 33.40625 48.484375 
Q 26.265625 48.484375 22.1875 42.84375 
Q 18.109375 37.203125 18.109375 27.296875 
Q 18.109375 17.390625 22.1875 11.75 
Q 26.265625 6.109375 33.40625 6.109375 
Q 40.53125 6.109375 44.609375 11.75 
Q 48.6875 17.390625 48.6875 27.296875 
z
" id="DejaVuSans-112"/>
     </defs>
     <g transform="translate(414.739062 412.756563)scale(0.1 -0.1)">
      <use xlink:href="#DejaVuSans-84"/>
      <use x="61.037109" xlink:href="#DejaVuSans-105"/>
      <use x="88.820312" xlink:href="#DejaVuSans-109"/>
      <use x="186.232422" xlink:href="#DejaVuSans-101"/>
      <use x="247.755859" xlink:href="#DejaVuSans-115"/>
      <use x="299.855469" xlink:href="#DejaVuSans-116"/>
      <use x="339.064453" xlink:href="#DejaVuSans-97"/>
      <use x="400.34375" xlink:href="#DejaVuSans-109"/>
      <use x="497.755859" xlink:href="#DejaVuSans-112"/>
     </g>
    </g>
   </g>
   <g id="matplotlib.axis_2">
    <g id="ytick_1">
     <g id="line2d_9">
      <defs>
       <path d="M 0 0 
L -3.5 0 
" id="mdaca803385" style="stroke:#000000;stroke-width:0.8;"/>
      </defs>
      <g>
       <use style="stroke:#000000;stroke-width:0.8;" x="108" xlink:href="#mdaca803385" y="381.472529"/>
      </g>
     </g>
     <g id="text_10">
      <!-- −1500 -->
      <defs>
       <path d="M 10.59375 35.5 
L 73.1875 35.5 
L 73.1875 27.203125 
L 10.59375 27.203125 
z
" id="DejaVuSans-8722"/>
      </defs>
      <g transform="translate(67.170312 385.271748)scale(0.1 -0.1)">
       <use xlink:href="#DejaVuSans-8722"/>
       <use x="83.789062" xlink:href="#DejaVuSans-49"/>
       <use x="147.412109" xlink:href="#DejaVuSans-53"/>
       <use x="211.035156" xlink:href="#DejaVuSans-48"/>
       <use x="274.658203" xlink:href="#DejaVuSans-48"/>
      </g>
     </g>
    </g>
    <g id="ytick_2">
     <g id="line2d_10">
      <g>
       <use style="stroke:#000000;stroke-width:0.8;" x="108" xlink:href="#mdaca803385" y="344.095242"/>
      </g>
     </g>
     <g id="text_11">
      <!-- −1000 -->
      <g transform="translate(67.170312 347.89446)scale(0.1 -0.1)">
       <use xlink:href="#DejaVuSans-8722"/>
       <use x="83.789062" xlink:href="#DejaVuSans-49"/>
       <use x="147.412109" xlink:href="#DejaVuSans-48"/>
       <use x="211.035156" xlink:href="#DejaVuSans-48"/>
       <use x="274.658203" xlink:href="#DejaVuSans-48"/>
      </g>
     </g>
    </g>
    <g id="ytick_3">
     <g id="line2d_11">
      <g>
       <use style="stroke:#000000;stroke-width:0.8;" x="108" xlink:href="#mdaca803385" y="306.717954"/>
      </g>
     </g>
     <g id="text_12">
      <!-- −500 -->
      <g transform="translate(73.532813 310.517173)scale(0.1 -0.1)">
       <use xlink:href="#DejaVuSans-8722"/>
       <use x="83.789062" xlink:href="#DejaVuSans-53"/>
       <use x="147.412109" xlink:href="#DejaVuSans-48"/>
       <use x="211.035156" xlink:href="#DejaVuSans-48"/>
      </g>
     </g>
    </g>
    <g id="ytick_4">
     <g id="line2d_12">
      <g>
       <use style="stroke:#000000;stroke-width:0.8;" x="108" xlink:href="#mdaca803385" y="269.340667"/>
      </g>
     </g>
     <g id="text_13">
      <!-- 0 -->
      <g transform="translate(94.6375 273.139886)scale(0.1 -0.1)">
       <use xlink:href="#DejaVuSans-48"/>
      </g>
     </g>
    </g>
    <g id="ytick_5">
     <g id="line2d_13">
      <g>
       <use style="stroke:#000000;stroke-width:0.8;" x="108" xlink:href="#mdaca803385" y="231.963379"/>
      </g>
     </g>
     <g id="text_14">
      <!-- 500 -->
      <g transform="translate(81.9125 235.762598)scale(0.1 -0.1)">
       <use xlink:href="#DejaVuSans-53"/>
       <use x="63.623047" xlink:href="#DejaVuSans-48"/>
       <use x="127.246094" xlink:href="#DejaVuSans-48"/>
      </g>
     </g>
    </g>
    <g id="ytick_6">
     <g id="line2d_14">
      <g>
       <use style="stroke:#000000;stroke-width:0.8;" x="108" xlink:href="#mdaca803385" y="194.586092"/>
      </g>
     </g>
     <g id="text_15">
      <!-- 1000 -->
      <g transform="translate(75.55 198.385311)scale(0.1 -0.1)">
       <use xlink:href="#DejaVuSans-49"/>
       <use x="63.623047" xlink:href="#DejaVuSans-48"/>
       <use x="127.246094" xlink:href="#DejaVuSans-48"/>
       <use x="190.869141" xlink:href="#DejaVuSans-48"/>
      </g>
     </g>
    </g>
    <g id="ytick_7">
     <g id="line2d_15">
      <g>
       <use style="stroke:#000000;stroke-width:0.8;" x="108" xlink:href="#mdaca803385" y="157.208805"/>
      </g>
     </g>
     <g id="text_16">
      <!-- 1500 -->
      <g transform="translate(75.55 161.008023)scale(0.1 -0.1)">
       <use xlink:href="#DejaVuSans-49"/>
       <use x="63.623047" xlink:href="#DejaVuSans-53"/>
       <use x="127.246094" xlink:href="#DejaVuSans-48"/>
       <use x="190.869141" xlink:href="#DejaVuSans-48"/>
      </g>
     </g>
    </g>
    <g id="ytick_8">
     <g id="line2d_16">
      <g>
       <use style="stroke:#000000;stroke-width:0.8;" x="108" xlink:href="#mdaca803385" y="119.831517"/>
      </g>
     </g>
     <g id="text_17">
      <!-- 2000 -->
      <g transform="translate(75.55 123.630736)scale(0.1 -0.1)">
       <use xlink:href="#DejaVuSans-50"/>
       <use x="63.623047" xlink:href="#DejaVuSans-48"/>
       <use x="127.246094" xlink:href="#DejaVuSans-48"/>
       <use x="190.869141" xlink:href="#DejaVuSans-48"/>
      </g>
     </g>
    </g>
    <g id="ytick_9">
     <g id="line2d_17">
      <g>
       <use style="stroke:#000000;stroke-width:0.8;" x="108" xlink:href="#mdaca803385" y="82.45423"/>
      </g>
     </g>
     <g id="text_18">
      <!-- 2500 -->
      <g transform="translate(75.55 86.253449)scale(0.1 -0.1)">
       <use xlink:href="#DejaVuSans-50"/>
       <use x="63.623047" xlink:href="#DejaVuSans-53"/>
       <use x="127.246094" xlink:href="#DejaVuSans-48"/>
       <use x="190.869141" xlink:href="#DejaVuSans-48"/>
      </g>
     </g>
    </g>
    <g id="text_19">
     <!-- Value -->
     <defs>
      <path d="M 28.609375 0 
L 0.78125 72.90625 
L 11.078125 72.90625 
L 34.1875 11.53125 
L 57.328125 72.90625 
L 67.578125 72.90625 
L 39.796875 0 
z
" id="DejaVuSans-86"/>
      <path d="M 9.421875 75.984375 
L 18.40625 75.984375 
L 18.40625 0 
L 9.421875 0 
z
" id="DejaVuSans-108"/>
      <path d="M 8.5 21.578125 
L 8.5 54.6875 
L 17.484375 54.6875 
L 17.484375 21.921875 
Q 17.484375 14.15625 20.5 10.265625 
Q 23.53125 6.390625 29.59375 6.390625 
Q 36.859375 6.390625 41.078125 11.03125 
Q 45.3125 15.671875 45.3125 23.6875 
L 45.3125 54.6875 
L 54.296875 54.6875 
L 54.296875 0 
L 45.3125 0 
L 45.3125 8.40625 
Q 42.046875 3.421875 37.71875 1 
Q 33.40625 -1.421875 27.6875 -1.421875 
Q 18.265625 -1.421875 13.375 4.4375 
Q 8.5 10.296875 8.5 21.578125 
z
M 31.109375 56 
z
" id="DejaVuSans-117"/>
     </defs>
     <g transform="translate(61.090625 232.273281)rotate(-90)scale(0.1 -0.1)">
      <use xlink:href="#DejaVuSans-86"/>
      <use x="68.298828" xlink:href="#DejaVuSans-97"/>
      <use x="129.578125" xlink:href="#DejaVuSans-108"/>
      <use x="157.361328" xlink:href="#DejaVuSans-117"/>
      <use x="220.740234" xlink:href="#DejaVuSans-101"/>
     </g>
    </g>
   </g>
   <g id="line2d_18">
    <path clip-path="url(#ped7c343fa2)" d="M 138.436364 267.646126 
L 138.796557 240.551572 
L 139.156751 223.062465 
L 139.516945 197.655203 
L 139.877138 194.210961 
L 140.237332 201.821498 
L 140.597526 229.631257 
L 140.957719 266.933933 
L 141.317913 273.224431 
L 141.678107 287.879313 
L 142.0383 287.754017 
L 142.398494 281.491311 
L 142.758687 268.035252 
L 143.118881 240.722484 
L 143.479075 243.247102 
L 143.839268 238.670835 
L 144.919849 299.16463 
L 145.640237 329.644609 
L 146.00043 324.393982 
L 146.360624 321.555487 
L 147.441205 229.023272 
L 148.521786 180.555322 
L 149.962561 273.682224 
L 150.322754 280.766825 
L 150.682948 275.458709 
L 151.043141 272.743046 
L 151.403335 252.476733 
L 151.763529 244.628639 
L 152.123722 240.926268 
L 152.483916 234.667247 
L 153.204303 261.976031 
L 153.564497 289.927874 
L 153.924691 308.071347 
L 154.284884 335.446143 
L 154.645078 325.708817 
L 155.365465 287.964015 
L 156.085853 223.77527 
L 156.80624 189.156426 
L 157.166434 189.259218 
L 157.526627 194.443936 
L 157.886821 226.705177 
L 158.247015 245.401966 
L 158.967402 268.311952 
L 159.327595 276.92662 
L 159.687789 264.792547 
L 160.047983 262.506115 
L 160.408176 247.983568 
L 160.76837 240.087745 
L 161.128564 240.546212 
L 161.488757 251.789 
L 162.209145 294.576404 
L 162.929532 328.23457 
L 163.289726 324.731229 
L 163.649919 316.804938 
L 164.010113 294.931801 
L 165.090694 193.591711 
L 165.450888 190.546151 
L 165.811081 193.56817 
L 166.171275 198.648366 
L 166.891662 255.586393 
L 167.612049 278.405699 
L 167.972243 277.548304 
L 168.332437 266.652239 
L 168.69263 267.128248 
L 169.052824 241.858009 
L 169.413018 236.765975 
L 170.133405 255.957709 
L 170.493599 289.547077 
L 170.853792 298.558582 
L 171.213986 324.320558 
L 171.57418 333.245397 
L 171.934373 328.717584 
L 172.294567 328.166026 
L 173.014954 273.794583 
L 173.375148 228.131388 
L 174.095535 201.025311 
L 174.455729 202.95151 
L 175.176116 231.813115 
L 175.53631 260.610386 
L 175.896503 276.492716 
L 176.256697 285.378968 
L 176.616891 286.266418 
L 176.977084 291.408286 
L 177.337278 273.208057 
L 177.697472 264.552623 
L 178.057665 247.256576 
L 178.417859 251.022742 
L 178.778053 267.898144 
L 179.49844 310.292122 
L 179.858634 322.262969 
L 180.579021 338.843257 
L 180.939215 328.913155 
L 181.299408 306.680619 
L 182.379989 210.715154 
L 183.100377 205.622247 
L 183.46057 222.035398 
L 183.820764 231.27499 
L 184.541151 287.504349 
L 184.901345 287.90986 
L 185.261538 293.100423 
L 185.621732 272.14653 
L 185.981926 268.824358 
L 186.342119 258.565029 
L 186.702313 255.662792 
L 187.062507 248.440077 
L 187.782894 279.634575 
L 188.143088 295.820594 
L 188.503281 319.115218 
L 188.863475 352.35697 
L 189.223669 339.4619 
L 189.583862 319.869672 
L 190.664443 234.624206 
L 191.024637 200.13546 
L 191.384831 206.379659 
L 191.745024 194.289432 
L 192.465412 225.429461 
L 192.825605 248.999975 
L 193.185799 283.206534 
L 193.545992 278.662094 
L 193.906186 283.841217 
L 194.26638 274.960361 
L 194.626573 262.193223 
L 194.986767 243.586561 
L 195.346961 242.099442 
L 195.707154 241.321927 
L 196.067348 246.813095 
L 197.147929 317.519128 
L 197.508123 312.981058 
L 197.868316 316.142257 
L 198.22851 309.887792 
L 198.588704 284.323523 
L 198.948897 249.440808 
L 199.309091 231.630955 
L 199.669285 202.11045 
L 200.029478 185.03283 
L 200.389672 184.734109 
L 200.749866 195.019046 
L 201.110059 216.123064 
L 201.470253 228.756147 
L 201.830446 259.393988 
L 202.19064 277.830552 
L 202.550834 280.908502 
L 202.911027 257.071871 
L 203.991608 224.567281 
L 204.711996 241.443508 
L 205.072189 255.798207 
L 205.432383 285.942521 
L 205.792577 304.600086 
L 206.15277 311.208737 
L 206.512964 315.299171 
L 207.233351 287.090168 
L 207.593545 257.901852 
L 207.953739 214.367747 
L 208.674126 168.853913 
L 209.03432 186.981429 
L 209.754707 209.49102 
L 210.835288 253.585629 
L 211.195481 263.186275 
L 211.555675 261.86524 
L 211.915869 248.950666 
L 212.276062 221.026365 
L 212.636256 223.625891 
L 212.99645 224.149805 
L 213.716837 262.945322 
L 214.437224 308.545082 
L 214.797418 319.232951 
L 215.517805 301.826333 
L 215.877999 275.401182 
L 216.598386 207.465172 
L 216.95858 177.576375 
L 217.318774 175.069366 
L 217.678967 185.8841 
L 218.039161 178.878293 
L 218.399354 199.491429 
L 218.759548 229.760212 
L 219.119742 242.507375 
L 219.479935 267.622678 
L 219.840129 264.902384 
L 220.200323 253.428685 
L 220.560516 250.064705 
L 220.92071 233.112898 
L 221.280904 234.364615 
L 221.641097 234.074234 
L 222.001291 251.285949 
L 222.361485 260.46918 
L 223.442066 320.73233 
L 223.802259 309.589588 
L 224.162453 308.099482 
L 224.522647 286.800776 
L 225.603228 191.522293 
L 226.323615 171.089502 
L 226.683808 195.794459 
L 227.404196 232.45302 
L 227.764389 250.990349 
L 228.124583 258.355012 
L 228.484777 274.138788 
L 228.84497 252.390802 
L 229.205164 257.14442 
L 229.925551 227.14778 
L 230.645939 247.073961 
L 231.006132 265.392794 
L 231.72652 314.923681 
L 232.086713 325.136394 
L 232.446907 323.650823 
L 232.807101 309.350791 
L 233.527488 259.76432 
L 234.247875 193.424126 
L 234.608069 188.008638 
L 234.968263 177.131839 
L 235.68865 230.103655 
L 236.048843 233.673578 
L 236.409037 267.94051 
L 236.769231 272.721885 
L 237.129424 270.379946 
L 237.489618 265.450393 
L 237.849812 262.856396 
L 238.570199 230.614777 
L 238.930393 252.134874 
L 239.290586 244.324457 
L 239.65078 266.465502 
L 240.371167 318.788318 
L 240.731361 321.623444 
L 241.091555 319.729806 
L 241.451748 318.546176 
L 241.811942 295.712143 
L 242.532329 226.689373 
L 243.252717 189.775947 
L 243.61291 180.818347 
L 243.973104 207.135633 
L 244.333297 219.516573 
L 245.053685 263.505233 
L 245.413878 278.096524 
L 245.774072 272.571449 
L 246.134266 278.969871 
L 246.494459 268.670256 
L 246.854653 244.724352 
L 247.214847 228.483089 
L 247.57504 243.391289 
L 247.935234 249.728582 
L 249.015815 319.101658 
L 249.376009 313.929117 
L 249.736202 334.171608 
L 250.096396 317.183716 
L 251.176977 220.367151 
L 251.537171 189.282752 
L 251.897364 182.884709 
L 252.257558 178.533597 
L 252.617751 188.814833 
L 252.977945 203.620755 
L 253.338139 246.637288 
L 254.058526 269.460162 
L 254.41872 275.60922 
L 254.778913 259.789242 
L 255.139107 256.202929 
L 255.499301 239.476181 
L 255.859494 228.697709 
L 256.219688 223.191314 
L 258.020656 322.855143 
L 258.38085 310.890946 
L 258.741044 310.460097 
L 259.101237 287.879892 
L 259.461431 234.895248 
L 260.181818 196.521969 
L 260.902205 173.201372 
L 261.262399 193.202522 
L 261.622593 205.710612 
L 261.982786 236.58685 
L 262.34298 242.098025 
L 262.703174 257.776989 
L 263.063367 255.602509 
L 263.423561 251.376311 
L 263.783755 232.85149 
L 264.143948 229.214814 
L 264.504142 224.185943 
L 264.864336 215.841946 
L 265.224529 223.508635 
L 265.584723 248.238781 
L 265.944917 259.940207 
L 266.30511 293.733875 
L 266.665304 316.784081 
L 267.025498 315.956591 
L 267.385691 297.695621 
L 268.106079 227.929939 
L 268.466272 206.771707 
L 268.826466 174.827937 
L 269.186659 158.791218 
L 269.546853 165.189732 
L 269.907047 166.526731 
L 270.26724 197.524513 
L 270.627434 210.136826 
L 270.987628 239.97939 
L 271.347821 257.103733 
L 271.708015 251.832978 
L 272.068209 249.21141 
L 272.428402 227.055187 
L 272.788596 227.896939 
L 273.14879 215.685147 
L 273.508983 225.560653 
L 273.869177 215.554606 
L 274.229371 253.905638 
L 274.589564 274.440357 
L 274.949758 285.389316 
L 275.670145 298.794534 
L 276.030339 291.28122 
L 277.11092 198.826097 
L 277.471114 173.1345 
L 277.831307 167.173109 
L 278.191501 169.739877 
L 278.551694 179.928256 
L 278.911888 183.263812 
L 279.272082 222.041789 
L 279.632275 230.710065 
L 279.992469 251.469533 
L 280.352663 253.281079 
L 280.712856 244.87789 
L 281.433244 211.525878 
L 281.793437 212.704736 
L 282.153631 227.882309 
L 282.513825 228.132972 
L 282.874018 232.97249 
L 283.234212 269.282363 
L 283.954599 303.970066 
L 284.314793 299.6303 
L 284.674987 292.137496 
L 286.115761 174.29808 
L 286.475955 165.097526 
L 286.836148 172.080878 
L 287.196342 170.413956 
L 287.556536 206.763428 
L 287.916729 221.594943 
L 288.276923 246.908663 
L 288.637117 255.073784 
L 288.99731 255.134932 
L 289.357504 243.512396 
L 289.717698 237.306478 
L 290.077891 217.904678 
L 290.438085 222.124363 
L 290.798279 231.181768 
L 291.158472 235.815308 
L 291.518666 250.067847 
L 292.239053 304.517263 
L 292.599247 316.892054 
L 292.959441 310.955077 
L 293.319634 297.549981 
L 294.040022 245.525049 
L 294.760409 176.958391 
L 295.120602 177.655314 
L 295.480796 171.694492 
L 296.201183 196.794538 
L 296.561377 227.123337 
L 296.921571 245.793161 
L 297.281764 250.537548 
L 297.641958 257.771714 
L 298.002152 369.36 
L 298.362345 244.387479 
L 298.722539 239.05505 
L 299.082733 224.848053 
L 299.442926 233.480451 
L 299.80312 237.024872 
L 300.523507 276.044529 
L 301.243895 315.021859 
L 301.604088 313.721306 
L 302.324476 273.097584 
L 303.405056 188.33186 
L 303.76525 171.852519 
L 304.125444 171.294234 
L 304.845831 205.588127 
L 305.206025 226.959273 
L 305.566218 257.29308 
L 305.926412 255.979466 
L 306.286606 277.318966 
L 306.646799 255.707316 
L 307.006993 242.4108 
L 307.367187 222.421622 
L 307.72738 220.938853 
L 308.087574 220.763731 
L 308.447768 244.143057 
L 308.807961 259.543415 
L 309.168155 281.64099 
L 309.528349 293.350675 
L 309.888542 317.485732 
L 310.248736 318.598129 
L 310.60893 305.052459 
L 310.969123 262.032674 
L 312.409898 164.520226 
L 312.770091 165.934086 
L 314.210866 240.646651 
L 314.931253 265.304003 
L 315.291447 248.613514 
L 315.651641 241.760591 
L 316.011834 221.154693 
L 316.372028 219.565814 
L 316.732222 219.023236 
L 317.092415 222.796845 
L 318.53319 312.685369 
L 318.893384 296.513828 
L 319.253577 294.157772 
L 320.334158 203.244902 
L 321.054545 161.178117 
L 321.414739 159.830671 
L 321.774933 167.078128 
L 322.135126 185.700332 
L 322.49532 223.228715 
L 322.855514 224.340944 
L 323.215707 244.102265 
L 323.575901 251.596955 
L 323.936095 237.110817 
L 324.296288 230.618586 
L 325.016676 199.302944 
L 325.376869 212.555688 
L 325.737063 216.56765 
L 326.45745 252.955854 
L 326.817644 280.464171 
L 327.177838 291.027807 
L 327.898225 272.939751 
L 328.258419 251.584223 
L 328.978806 181.239032 
L 329.699193 155.673376 
L 330.059387 148.583658 
L 330.41958 161.591133 
L 331.500161 233.113937 
L 331.860355 235.478233 
L 332.220549 240.025928 
L 332.940936 218.399782 
L 333.30113 195.220344 
L 333.661323 199.148268 
L 334.021517 189.559612 
L 334.381711 213.242123 
L 334.741904 223.178229 
L 335.102098 262.282844 
L 335.462292 265.57357 
L 335.822485 289.561359 
L 336.542873 279.38695 
L 337.983647 160.832955 
L 338.343841 149.37689 
L 338.704034 143.066025 
L 339.064228 150.737699 
L 339.424422 173.602154 
L 339.784615 215.38867 
L 340.144809 222.990032 
L 340.505003 239.930529 
L 340.865196 236.527044 
L 341.22539 221.418923 
L 341.585584 221.716672 
L 341.945777 212.748031 
L 342.305971 191.776514 
L 342.666165 195.932144 
L 343.026358 209.29342 
L 344.467133 294.123767 
L 344.827327 285.495156 
L 345.18752 273.756518 
L 345.547714 257.261639 
L 345.907907 219.175503 
L 346.268101 201.517996 
L 346.628295 166.832817 
L 346.988488 158.166707 
L 347.348682 153.917899 
L 347.708876 172.118518 
L 348.069069 182.99546 
L 348.789457 235.06433 
L 349.14965 241.447807 
L 349.509844 250.430039 
L 349.870038 232.30307 
L 350.590425 213.180868 
L 350.950619 200.057393 
L 351.310812 204.3907 
L 351.671006 218.599043 
L 352.0312 237.456571 
L 352.751587 291.683134 
L 353.111781 288.875709 
L 353.471974 306.699444 
L 353.832168 293.25529 
L 354.552555 224.708126 
L 354.912749 205.507519 
L 355.272942 173.789455 
L 355.633136 164.90976 
L 355.99333 165.03051 
L 356.353523 171.293519 
L 356.713717 193.32705 
L 357.073911 206.372191 
L 357.434104 244.088981 
L 357.794298 241.500413 
L 358.154492 250.115678 
L 358.874879 231.943672 
L 359.235073 232.842099 
L 359.595266 207.653177 
L 359.95546 219.087438 
L 360.315654 217.931241 
L 361.036041 266.929397 
L 361.396235 295.999069 
L 361.756428 292.769437 
L 362.116622 312.429422 
L 362.837009 259.817598 
L 363.197203 220.487843 
L 363.557396 203.588 
L 363.91759 172.947787 
L 364.277784 161.271635 
L 364.637977 162.626799 
L 364.998171 179.677387 
L 365.358365 191.196773 
L 365.718558 222.539897 
L 366.078752 240.332868 
L 366.438946 250.759574 
L 366.799139 240.91013 
L 367.159333 255.428962 
L 367.87972 209.633142 
L 368.239914 213.01985 
L 368.600108 218.945722 
L 368.960301 222.493997 
L 369.320495 249.386429 
L 369.680689 262.213293 
L 370.040882 294.671924 
L 370.401076 302.466198 
L 370.761269 304.087237 
L 371.481657 264.266595 
L 372.202044 189.2419 
L 372.562238 167.350624 
L 372.922431 166.718847 
L 373.282625 151.045349 
L 373.642819 160.846985 
L 374.363206 213.036919 
L 374.7234 226.786136 
L 375.083593 225.344559 
L 375.443787 247.816049 
L 375.803981 236.211006 
L 376.164174 218.750616 
L 376.524368 209.727328 
L 376.884562 217.870426 
L 377.244755 207.291903 
L 377.604949 204.696203 
L 377.965143 241.377055 
L 378.325336 249.738529 
L 378.68553 281.829403 
L 379.045724 290.703248 
L 379.405917 290.438067 
L 379.766111 286.405687 
L 380.126304 247.844614 
L 380.486498 225.324697 
L 380.846692 173.002182 
L 381.206885 163.984723 
L 381.927273 135.16109 
L 382.287466 165.470758 
L 383.368047 219.962334 
L 383.728241 239.9234 
L 384.088435 238.025953 
L 384.808822 223.251574 
L 385.529209 180.471421 
L 385.889403 196.369008 
L 386.249597 220.109008 
L 386.60979 225.418578 
L 386.969984 248.782979 
L 387.330178 261.719752 
L 387.690371 283.246004 
L 388.050565 274.914538 
L 388.410758 256.561671 
L 388.770952 248.116619 
L 389.131146 199.507557 
L 389.851533 168.969707 
L 390.211727 127.477803 
L 390.57192 128.77082 
L 392.372889 226.203156 
L 392.733082 224.029862 
L 393.093276 216.232777 
L 393.45347 201.70581 
L 393.813663 196.116333 
L 394.173857 185.217002 
L 394.534051 200.686445 
L 394.894244 207.894233 
L 395.254438 217.951472 
L 395.974825 261.750803 
L 396.335019 276.968995 
L 396.695212 277.303704 
L 397.055406 265.346911 
L 397.775793 197.916662 
L 398.135987 159.71166 
L 398.856374 141.240519 
L 399.216568 141.015714 
L 399.576762 146.88537 
L 400.297149 190.080608 
L 400.657343 196.636215 
L 401.017536 222.524088 
L 401.37773 232.63705 
L 401.737924 223.892808 
L 402.098117 203.394142 
L 402.458311 195.134556 
L 402.818505 191.281254 
L 403.178698 182.296232 
L 403.899086 224.047564 
L 404.979666 286.434952 
L 405.33986 289.687285 
L 406.060247 242.285469 
L 407.140828 139.641713 
L 407.501022 136.418772 
L 407.861216 147.596161 
L 408.221409 151.956943 
L 408.581603 170.084268 
L 409.30199 226.010736 
L 409.662184 230.418506 
L 410.022378 230.483702 
L 410.382571 232.326651 
L 410.742765 197.30355 
L 411.102959 209.778114 
L 411.463152 200.000552 
L 411.823346 197.579328 
L 412.18354 204.315878 
L 412.543733 221.147045 
L 413.26412 283.106212 
L 413.624314 275.057991 
L 413.984508 284.810354 
L 414.344701 282.703433 
L 415.065089 218.371653 
L 416.14567 142.245599 
L 416.505863 141.647086 
L 416.866057 155.610314 
L 417.586444 212.750396 
L 417.946638 221.797298 
L 418.306832 243.615457 
L 418.667025 234.172136 
L 419.027219 244.020566 
L 419.747606 203.30704 
L 420.1078 205.960415 
L 420.467994 190.282373 
L 421.548575 258.56206 
L 421.908768 287.495571 
L 422.268962 296.060954 
L 422.629155 288.34954 
L 422.989349 268.03236 
L 423.349543 257.934554 
L 423.709736 210.552249 
L 424.430124 160.021217 
L 424.790317 149.044269 
L 425.150511 147.766219 
L 425.510705 168.072024 
L 425.870898 172.550604 
L 426.591286 221.754804 
L 426.951479 242.132376 
L 427.311673 242.178882 
L 428.392254 200.657441 
L 428.752448 199.403494 
L 429.112641 208.380195 
L 429.472835 212.044643 
L 429.833029 233.759328 
L 430.193222 235.576873 
L 430.553416 274.500544 
L 430.913609 291.496429 
L 431.273803 289.628923 
L 431.633997 274.205566 
L 432.354384 205.53126 
L 432.714578 184.358469 
L 433.074771 171.077102 
L 433.434965 150.172591 
L 433.795159 149.278578 
L 434.155352 153.30755 
L 434.87574 185.802138 
L 435.235933 229.440551 
L 435.596127 345.655165 
L 435.956321 227.961731 
L 436.316514 221.219197 
L 437.036902 192.800162 
L 437.397095 193.647058 
L 437.757289 197.570574 
L 438.117483 208.381575 
L 438.477676 226.03774 
L 439.198063 274.074069 
L 439.558257 284.147677 
L 439.918451 283.324313 
L 440.999032 213.483218 
L 441.719419 149.412791 
L 442.079613 135.331277 
L 442.439806 131.834132 
L 442.8 145.667211 
L 443.520387 182.952834 
L 443.880581 213.753958 
L 444.240775 221.507709 
L 444.600968 218.351869 
L 445.321356 202.56595 
L 446.401937 179.665977 
L 447.122324 217.449304 
L 447.482517 244.002911 
L 447.842711 253.311234 
L 448.202905 279.749648 
L 448.563098 270.857679 
L 448.923292 253.723702 
L 449.283486 219.734165 
L 449.643679 208.998256 
L 450.003873 164.522416 
L 450.364067 138.531379 
L 450.72426 134.80083 
L 451.084454 126.006645 
L 452.885422 214.588419 
L 453.245616 213.853107 
L 453.60581 201.048161 
L 453.966003 200.499118 
L 454.326197 166.181463 
L 454.686391 179.18744 
L 455.046584 187.475133 
L 455.406778 204.592668 
L 455.766971 213.612004 
L 456.127165 228.665506 
L 456.487359 251.954469 
L 456.847552 256.820614 
L 457.207746 265.057674 
L 457.56794 249.684527 
L 458.288327 189.698001 
L 458.648521 167.508416 
L 459.008714 132.638896 
L 459.368908 125.285465 
L 459.729102 139.313786 
L 460.089295 137.007376 
L 460.449489 149.543299 
L 460.809683 179.887735 
L 461.890264 220.113781 
L 462.250457 201.315355 
L 462.610651 202.770109 
L 463.331038 168.765501 
L 463.691232 180.841831 
L 464.051425 186.61175 
L 465.132006 252.222309 
L 465.852394 269.365068 
L 466.212587 256.237867 
L 466.572781 234.552743 
L 467.653362 143.742099 
L 468.373749 128.178212 
L 468.733943 137.948701 
L 469.094137 161.144238 
L 469.45433 195.980884 
L 469.814524 207.941101 
L 470.534911 213.013564 
L 470.895105 220.321087 
L 471.255299 208.534951 
L 471.615492 179.477677 
L 471.975686 188.492629 
L 472.33588 180.354541 
L 472.696073 190.689676 
L 473.056267 207.818934 
L 473.41646 239.503531 
L 473.776654 260.749228 
L 474.136848 263.849071 
L 474.497041 277.456422 
L 475.577622 207.045611 
L 476.29801 148.97758 
L 476.658203 132.262705 
L 477.018397 137.569899 
L 477.378591 147.001897 
L 477.738784 175.664198 
L 478.098978 183.424313 
L 478.459172 218.402494 
L 478.819365 225.973354 
L 479.539753 221.212097 
L 479.899946 200.684634 
L 480.26014 195.771188 
L 480.620334 198.455574 
L 480.980527 185.678174 
L 481.340721 205.527138 
L 481.700914 206.273081 
L 482.061108 244.474644 
L 482.421302 267.095271 
L 482.781495 279.158017 
L 483.141689 270.019354 
L 483.501883 249.342873 
L 483.862076 235.568721 
L 484.582464 184.997796 
L 484.942657 147.342851 
L 485.302851 135.7622 
L 485.663045 135.375918 
L 486.383432 164.867801 
L 486.743626 185.980269 
L 487.103819 214.555291 
L 487.464013 228.222261 
L 488.1844 215.514434 
L 488.544594 196.7107 
L 489.264981 187.841355 
L 489.625175 196.011326 
L 489.985368 193.013061 
L 491.065949 262.270315 
L 491.426143 273.283709 
L 491.786337 276.528692 
L 492.14653 261.405465 
L 492.506724 240.519723 
L 493.587305 150.183783 
L 493.947499 130.429635 
L 494.307692 132.598464 
L 494.667886 135.673168 
L 495.02808 171.683095 
L 496.108661 224.423474 
L 496.468854 209.357082 
L 496.829048 207.867791 
L 497.189242 202.298057 
L 497.549435 173.751664 
L 497.909629 179.162612 
L 498.269822 176.796219 
L 498.99021 216.526493 
L 499.710597 250.978185 
L 500.070791 270.273311 
L 500.430984 266.918292 
L 500.791178 257.220835 
L 501.871759 160.479836 
L 502.231953 138.857034 
L 502.592146 128.576211 
L 502.95234 129.205002 
L 503.312534 141.181469 
L 503.672727 159.54179 
L 504.032921 168.641585 
L 504.393115 201.175626 
L 504.753308 217.404363 
L 505.113502 206.795208 
L 505.473696 210.523289 
L 505.833889 184.252809 
L 506.194083 172.436097 
L 506.554276 167.37648 
L 506.91447 167.538669 
L 507.274664 179.621604 
L 507.995051 225.310734 
L 508.715438 261.819616 
L 509.075632 244.647494 
L 509.435826 246.546493 
L 509.796019 202.111007 
L 510.516407 148.183068 
L 510.8766 125.356862 
L 511.236794 118.017585 
L 511.596988 118.122459 
L 511.957181 117.093672 
L 512.677569 170.659593 
L 513.397956 200.85718 
L 513.75815 204.06201 
L 514.118343 198.806731 
L 514.478537 179.908463 
L 514.838731 171.393081 
L 515.198924 158.343637 
L 515.919311 177.09966 
L 516.639699 213.678061 
L 516.999892 242.375748 
L 517.360086 246.694185 
L 517.72028 247.62252 
L 518.080473 235.151734 
L 518.440667 213.440495 
L 518.800861 177.624401 
L 519.881442 108.548736 
L 520.241635 121.112493 
L 520.601829 124.771635 
L 521.68241 184.834871 
L 522.042604 202.190227 
L 522.402797 210.801176 
L 522.762991 190.657227 
L 523.123185 195.267234 
L 523.843572 149.431634 
L 524.203765 163.507901 
L 524.563959 172.055951 
L 524.924153 188.28717 
L 526.004734 264.446299 
L 526.364927 261.735207 
L 526.725121 232.319084 
L 527.085315 217.844494 
L 528.165896 125.971766 
L 528.526089 122.24252 
L 528.886283 104.962013 
L 529.246477 131.15973 
L 529.60667 144.47888 
L 529.966864 177.993924 
L 531.047445 212.21589 
L 531.407639 196.04477 
L 531.767832 174.325178 
L 532.128026 165.470852 
L 532.488219 162.480023 
L 532.848413 171.127719 
L 533.928994 216.056742 
L 534.289188 250.437845 
L 535.009575 263.014763 
L 535.369769 245.981276 
L 536.090156 196.045703 
L 536.45035 151.31149 
L 536.810543 129.812421 
L 537.170737 131.548327 
L 537.530931 111.555489 
L 537.891124 131.209973 
L 538.251318 161.148892 
L 539.331899 222.522964 
L 539.692093 219.346497 
L 540.052286 198.931456 
L 540.41248 190.791739 
L 540.772673 190.202214 
L 541.132867 173.35269 
L 541.493061 173.936817 
L 541.853254 191.460093 
L 542.213448 203.091616 
L 542.933835 255.051395 
L 543.294029 274.238658 
L 543.654223 270.14822 
L 544.37461 229.154137 
L 545.094997 164.419984 
L 545.455191 139.288515 
L 545.815385 131.843538 
L 546.175578 114.772116 
L 547.616353 205.212698 
L 547.976547 213.335767 
L 548.33674 207.476947 
L 549.057127 186.705112 
L 549.417321 171.000494 
L 549.777515 167.008052 
L 550.497902 191.0787 
L 550.858096 220.379628 
L 551.218289 231.633141 
L 551.938677 263.896768 
L 552.29887 269.65725 
L 552.659064 253.53446 
L 554.099839 132.030497 
L 554.460032 117.863781 
L 554.820226 115.354213 
L 555.18042 139.399021 
L 555.540613 152.017858 
L 555.900807 178.71456 
L 556.261001 179.88283 
L 556.621194 208.671331 
L 556.981388 201.962682 
L 557.341581 202.512481 
L 558.061969 164.949852 
L 558.422162 175.487168 
L 558.782356 174.819349 
L 559.14255 187.626704 
L 559.502743 192.891186 
L 559.862937 222.319226 
L 560.583324 249.539554 
L 560.943518 243.768708 
L 561.303712 226.054569 
L 561.663905 222.810263 
L 562.024099 193.053446 
L 562.384293 142.639085 
L 562.744486 122.443782 
L 563.10468 122.279488 
L 563.464874 114.568494 
L 563.825067 116.440853 
L 564.185261 147.491841 
L 564.545455 166.716426 
L 565.265842 191.425269 
L 565.626036 193.34748 
L 565.986229 187.598987 
L 566.706616 163.123746 
L 567.06681 147.769346 
L 567.427004 148.706944 
L 567.787197 170.394363 
L 568.147391 183.413867 
L 568.507585 208.450398 
L 568.867778 216.173797 
L 569.227972 235.587203 
L 569.588166 245.017275 
L 570.308553 205.575142 
L 571.02894 154.139448 
L 571.389134 113.610764 
L 571.749328 95.881104 
L 572.109521 92.218155 
L 573.550296 174.627369 
L 573.91049 183.497554 
L 574.270683 183.496289 
L 574.630877 194.890473 
L 574.99107 167.861529 
L 575.711458 146.856808 
L 576.071651 143.310397 
L 576.431845 155.332218 
L 576.792039 188.514696 
L 577.152232 208.054054 
L 577.512426 217.219088 
L 577.87262 221.222969 
L 578.232813 233.169742 
L 578.593007 221.029016 
L 578.953201 199.769655 
L 580.033782 108.867172 
L 580.393975 96.808792 
L 580.754169 109.011197 
L 581.114363 111.813454 
L 581.474556 128.517453 
L 581.83475 161.965627 
L 582.915331 191.951373 
L 583.275524 173.517908 
L 583.635718 162.067835 
L 583.995912 167.496736 
L 584.356105 154.367231 
L 584.716299 149.588837 
L 585.076493 160.824132 
L 585.79688 203.175581 
L 586.157074 231.439073 
L 586.517267 240.923542 
L 586.877461 241.339609 
L 587.597848 202.56206 
L 587.958042 165.32786 
L 589.038623 90.840417 
L 589.398817 98.354666 
L 589.75901 111.189539 
L 590.119204 148.379115 
L 590.479398 161.153485 
L 590.839591 179.108287 
L 591.199785 190.60369 
L 591.559978 192.746829 
L 592.280366 156.09822 
L 592.640559 160.084307 
L 593.000753 154.824798 
L 593.360947 160.8127 
L 593.72114 171.864827 
L 594.801721 240.902991 
L 595.161915 252.888284 
L 595.522109 247.602337 
L 595.882302 238.588329 
L 596.60269 172.689196 
L 596.962883 143.627442 
L 597.323077 124.360967 
L 597.683271 119.405213 
L 598.043464 112.426551 
L 598.763852 138.538092 
L 599.124045 165.651803 
L 599.484239 180.419567 
L 599.844432 188.271268 
L 600.204626 206.493728 
L 600.56482 187.024418 
L 601.285207 164.415699 
L 601.645401 164.488061 
L 602.005594 165.653497 
L 602.365788 183.724323 
L 602.725982 195.075853 
L 603.806563 250.23192 
L 604.166756 242.222127 
L 604.52695 244.450211 
L 605.607531 143.524694 
L 605.967725 137.382922 
L 606.327918 113.243637 
L 606.688112 119.835909 
L 607.408499 137.771963 
L 608.128886 190.313083 
L 608.48908 192.541822 
L 608.849274 191.664399 
L 609.209467 192.893696 
L 609.569661 173.058411 
L 609.929855 171.271699 
L 610.290048 165.473141 
L 610.650242 163.520949 
L 611.010436 167.14048 
L 611.370629 184.132716 
L 611.730823 219.987739 
L 612.091017 239.334915 
L 612.45121 248.354525 
L 612.811404 247.068246 
L 613.531791 223.97755 
L 614.252179 146.376239 
L 614.612372 109.549608 
L 615.33276 113.570523 
L 615.692953 119.063404 
L 616.053147 143.132803 
L 616.413341 155.819456 
L 616.773534 189.2385 
L 617.493921 203.551841 
L 617.854115 190.723874 
L 618.574502 152.00519 
L 618.934696 160.320193 
L 619.29489 162.576099 
L 619.655083 159.862294 
L 620.375471 210.682213 
L 620.735664 226.095982 
L 621.456052 243.354667 
L 621.816245 217.747257 
L 622.176439 203.903576 
L 622.536633 175.579901 
L 622.896826 133.082027 
L 623.617214 100.724817 
L 623.977407 96.119548 
L 624.337601 105.147649 
L 624.697795 136.12577 
L 625.057988 146.072357 
L 625.418182 172.493774 
L 625.778375 184.02988 
L 626.138569 186.093677 
L 626.498763 167.931954 
L 626.858956 166.312711 
L 627.21915 148.081773 
L 627.579344 149.797436 
L 627.939537 142.911415 
L 628.299731 154.099761 
L 628.659925 170.846695 
L 629.380312 226.655857 
L 629.740506 237.194806 
L 630.100699 219.47836 
L 630.460893 207.962719 
L 631.901668 102.816558 
L 632.261861 91.456448 
L 632.622055 90.893458 
L 632.982249 100.648259 
L 633.342442 117.218609 
L 633.702636 149.860631 
L 634.062829 157.749033 
L 634.423023 183.992732 
L 634.783217 181.874924 
L 635.14341 163.05359 
L 635.503604 155.508017 
L 635.863798 141.156846 
L 636.223991 135.949348 
L 636.584185 134.305445 
L 636.944379 144.245706 
L 637.664766 198.333625 
L 638.02496 207.417793 
L 638.385153 228.45087 
L 638.745347 225.447944 
L 639.105541 216.558328 
L 639.465734 181.198235 
L 639.825928 160.417575 
L 640.186122 122.685012 
L 640.906509 80.160153 
L 641.266703 91.581557 
L 641.626896 95.43315 
L 641.98709 112.490717 
L 642.347283 137.126627 
L 642.707477 177.474077 
L 643.067671 178.592876 
L 643.427864 175.490746 
L 643.788058 164.822911 
L 644.148252 157.480052 
L 644.508445 153.801211 
L 644.868639 143.539682 
L 645.228833 143.083604 
L 646.309414 188.611643 
L 646.669607 214.069276 
L 647.029801 229.220954 
L 647.750188 210.808445 
L 648.470576 152.702482 
L 648.830769 114.544621 
L 649.190963 107.867424 
L 649.551157 94.147352 
L 649.91135 91.273061 
L 650.271544 111.690757 
L 650.631737 119.475862 
L 650.991931 142.006743 
L 651.352125 152.098323 
L 651.712318 182.224312 
L 652.072512 174.725118 
L 652.432706 183.244782 
L 653.513287 133.920787 
L 654.233674 155.19636 
L 654.593868 183.093159 
L 654.954061 197.403906 
L 655.314255 224.361949 
L 655.674449 225.967377 
L 656.034642 228.708748 
L 656.394836 226.78635 
L 656.75503 201.709053 
L 657.475417 133.940616 
L 657.835611 119.860964 
L 658.195804 93.979057 
L 658.555998 97.886342 
L 658.916192 110.398335 
L 659.276385 136.282907 
L 659.636579 153.596476 
L 659.996772 179.993346 
L 660.356966 190.094007 
L 661.077353 181.099233 
L 661.797741 154.46759 
L 662.157934 141.438629 
L 662.878322 162.756528 
L 663.238515 182.22298 
L 663.958903 237.274468 
L 664.67929 246.182166 
L 665.039484 231.464419 
L 665.399677 210.268192 
L 665.759871 180.078516 
L 666.120065 140.408165 
L 666.480258 117.453478 
L 666.840452 104.433707 
L 667.200646 97.787077 
L 667.560839 116.53284 
L 667.921033 141.261797 
L 669.001614 182.575739 
L 669.361807 186.670988 
L 669.722001 183.891185 
L 670.082195 164.718722 
L 670.802582 141.930126 
L 671.162776 147.125852 
L 671.522969 158.552841 
L 672.60355 226.104388 
L 672.963744 230.66468 
L 673.323938 241.259679 
L 674.044325 193.806272 
L 674.764712 140.678961 
L 675.124906 112.451389 
L 675.4851 96.956032 
L 675.845293 93.729332 
L 676.205487 105.300834 
L 676.925874 154.518933 
L 677.286068 179.664321 
L 677.646261 183.207933 
L 678.006455 188.016702 
L 678.366649 166.852183 
L 678.726842 152.92413 
L 679.087036 147.445896 
L 679.44723 146.30084 
L 679.807423 148.175257 
L 680.167617 155.71256 
L 680.527811 165.87411 
L 680.888004 185.842351 
L 681.248198 221.698036 
L 681.608392 228.14888 
L 681.968585 227.155717 
L 682.328779 230.150721 
L 683.049166 151.693408 
L 683.40936 252.731892 
L 683.769554 99.146085 
L 684.129747 81.867779 
L 684.489941 83.352452 
L 684.850134 89.815906 
L 685.570522 136.995735 
L 686.290909 166.226687 
L 686.651103 179.855872 
L 687.37149 154.577616 
L 687.731684 133.945234 
L 688.091877 125.690779 
L 688.452071 127.515474 
L 688.812265 134.956661 
L 689.172458 169.061719 
L 689.532652 184.899774 
L 689.892846 207.665187 
L 690.253039 202.366386 
L 690.613233 221.182156 
L 691.33362 172.748213 
L 691.693814 154.657307 
L 692.054008 104.767922 
L 692.774395 72.866065 
L 693.134588 80.03126 
L 693.854976 107.060855 
L 694.575363 151.736227 
L 694.935557 168.56148 
L 695.29575 166.302572 
L 695.655944 161.828466 
L 696.016138 141.641601 
L 696.376331 140.496178 
L 696.736525 128.986617 
L 697.096719 131.532086 
L 697.456912 146.679142 
L 697.817106 155.216308 
L 698.1773 182.299662 
L 698.537493 187.923283 
L 698.897687 209.435324 
L 699.257881 207.984175 
L 699.618074 183.740193 
L 699.978268 173.763066 
L 701.058849 79.783868 
L 701.419042 66.96 
L 701.779236 74.795903 
L 702.13943 85.785013 
L 702.499623 112.728372 
L 703.220011 146.557974 
L 703.580204 165.758753 
L 704.300592 158.169725 
L 704.660785 138.643247 
L 705.020979 135.782955 
L 705.381173 120.224853 
L 705.741366 114.808858 
L 706.461754 169.184126 
L 707.182141 215.121913 
L 707.542335 208.959577 
L 707.902528 220.135485 
L 708.262722 202.38332 
L 709.703497 85.89191 
L 710.06369 76.627674 
L 710.423884 76.384321 
L 711.144271 107.319781 
L 711.504465 133.081137 
L 711.864658 150.755777 
L 712.224852 161.722456 
L 712.585046 164.227359 
L 712.945239 160.541106 
L 713.305433 153.137942 
L 713.665627 137.389957 
L 714.02582 135.153684 
L 714.386014 140.176619 
L 715.466595 187.164986 
L 715.826789 215.558854 
L 716.186982 224.143413 
L 716.547176 229.617867 
L 716.90737 219.504707 
L 717.267563 178.622054 
L 717.627757 156.339843 
L 717.987951 113.232243 
L 718.348144 100.415185 
L 718.708338 78.688765 
L 719.068531 81.337019 
L 720.149112 134.764735 
L 720.509306 160.808064 
L 721.229693 175.464106 
L 721.589887 166.810816 
L 721.950081 149.009322 
L 722.310274 146.266807 
L 722.670468 130.234112 
L 723.030662 141.878342 
L 723.390855 161.428089 
L 723.751049 168.342237 
L 724.471436 217.156553 
L 724.83163 225.652174 
L 725.552017 222.166521 
L 725.912211 201.14287 
L 726.632598 122.657764 
L 726.992792 92.208356 
L 727.352985 89.941434 
L 727.713179 88.436962 
L 728.073373 99.796952 
L 728.79376 151.081404 
L 729.153954 154.290227 
L 729.514147 173.838512 
L 729.874341 174.967203 
L 730.234535 168.413658 
L 730.594728 158.741684 
L 730.954922 139.465402 
L 731.315116 135.377524 
L 731.675309 141.326352 
L 732.035503 143.444393 
L 732.75589 190.996178 
L 733.116084 197.237872 
L 733.476278 220.678577 
L 733.836471 221.993715 
L 734.196665 206.65567 
L 734.556859 182.944433 
L 735.277246 121.303045 
L 735.997633 84.757329 
L 736.357827 76.934349 
L 736.71802 92.438247 
L 737.438408 137.20269 
L 737.798601 160.71432 
L 738.158795 174.046873 
L 738.518989 172.315675 
L 738.879182 152.194861 
L 739.239376 148.931656 
L 739.959763 123.663841 
L 740.319957 135.183851 
L 740.680151 134.910206 
L 741.400538 177.639835 
L 742.120925 217.893499 
L 742.841313 203.862007 
L 743.201506 174.462022 
L 743.201506 174.462022 
" style="fill:none;stroke:#1f77b4;stroke-linecap:square;stroke-width:1.5;"/>
   </g>
   <g id="line2d_19">
    <path clip-path="url(#ped7c343fa2)" d="M 747.163636 384.48 
L 747.163636 51.84 
" style="fill:none;stroke:#808080;stroke-linecap:square;"/>
   </g>
   <g id="patch_103">
    <path d="M 108 384.48 
L 108 51.84 
" style="fill:none;stroke:#000000;stroke-linecap:square;stroke-linejoin:miter;stroke-width:0.8;"/>
   </g>
   <g id="patch_104">
    <path d="M 777.6 384.48 
L 777.6 51.84 
" style="fill:none;stroke:#000000;stroke-linecap:square;stroke-linejoin:miter;stroke-width:0.8;"/>
   </g>
   <g id="patch_105">
    <path d="M 108 384.48 
L 777.6 384.48 
" style="fill:none;stroke:#000000;stroke-linecap:square;stroke-linejoin:miter;stroke-width:0.8;"/>
   </g>
   <g id="patch_106">
    <path d="M 108 51.84 
L 777.6 51.84 
" style="fill:none;stroke:#000000;stroke-linecap:square;stroke-linejoin:miter;stroke-width:0.8;"/>
   </g>
   <g id="text_20">
    <!-- A3Benchmark-TS35.csv -->
    <defs>
     <path d="M 34.1875 63.1875 
L 20.796875 26.90625 
L 47.609375 26.90625 
z
M 28.609375 72.90625 
L 39.796875 72.90625 
L 67.578125 0 
L 57.328125 0 
L 50.6875 18.703125 
L 17.828125 18.703125 
L 11.1875 0 
L 0.78125 0 
z
" id="DejaVuSans-65"/>
     <path d="M 40.578125 39.3125 
Q 47.65625 37.796875 51.625 33 
Q 55.609375 28.21875 55.609375 21.1875 
Q 55.609375 10.40625 48.1875 4.484375 
Q 40.765625 -1.421875 27.09375 -1.421875 
Q 22.515625 -1.421875 17.65625 -0.515625 
Q 12.796875 0.390625 7.625 2.203125 
L 7.625 11.71875 
Q 11.71875 9.328125 16.59375 8.109375 
Q 21.484375 6.890625 26.8125 6.890625 
Q 36.078125 6.890625 40.9375 10.546875 
Q 45.796875 14.203125 45.796875 21.1875 
Q 45.796875 27.640625 41.28125 31.265625 
Q 36.765625 34.90625 28.71875 34.90625 
L 20.21875 34.90625 
L 20.21875 43.015625 
L 29.109375 43.015625 
Q 36.375 43.015625 40.234375 45.921875 
Q 44.09375 48.828125 44.09375 54.296875 
Q 44.09375 59.90625 40.109375 62.90625 
Q 36.140625 65.921875 28.71875 65.921875 
Q 24.65625 65.921875 20.015625 65.03125 
Q 15.375 64.15625 9.8125 62.3125 
L 9.8125 71.09375 
Q 15.4375 72.65625 20.34375 73.4375 
Q 25.25 74.21875 29.59375 74.21875 
Q 40.828125 74.21875 47.359375 69.109375 
Q 53.90625 64.015625 53.90625 55.328125 
Q 53.90625 49.265625 50.4375 45.09375 
Q 46.96875 40.921875 40.578125 39.3125 
z
" id="DejaVuSans-51"/>
     <path d="M 19.671875 34.8125 
L 19.671875 8.109375 
L 35.5 8.109375 
Q 43.453125 8.109375 47.28125 11.40625 
Q 51.125 14.703125 51.125 21.484375 
Q 51.125 28.328125 47.28125 31.5625 
Q 43.453125 34.8125 35.5 34.8125 
z
M 19.671875 64.796875 
L 19.671875 42.828125 
L 34.28125 42.828125 
Q 41.5 42.828125 45.03125 45.53125 
Q 48.578125 48.25 48.578125 53.8125 
Q 48.578125 59.328125 45.03125 62.0625 
Q 41.5 64.796875 34.28125 64.796875 
z
M 9.8125 72.90625 
L 35.015625 72.90625 
Q 46.296875 72.90625 52.390625 68.21875 
Q 58.5 63.53125 58.5 54.890625 
Q 58.5 48.1875 55.375 44.234375 
Q 52.25 40.28125 46.1875 39.3125 
Q 53.46875 37.75 57.5 32.78125 
Q 61.53125 27.828125 61.53125 20.40625 
Q 61.53125 10.640625 54.890625 5.3125 
Q 48.25 0 35.984375 0 
L 9.8125 0 
z
" id="DejaVuSans-66"/>
     <path d="M 54.890625 33.015625 
L 54.890625 0 
L 45.90625 0 
L 45.90625 32.71875 
Q 45.90625 40.484375 42.875 44.328125 
Q 39.84375 48.1875 33.796875 48.1875 
Q 26.515625 48.1875 22.3125 43.546875 
Q 18.109375 38.921875 18.109375 30.90625 
L 18.109375 0 
L 9.078125 0 
L 9.078125 54.6875 
L 18.109375 54.6875 
L 18.109375 46.1875 
Q 21.34375 51.125 25.703125 53.5625 
Q 30.078125 56 35.796875 56 
Q 45.21875 56 50.046875 50.171875 
Q 54.890625 44.34375 54.890625 33.015625 
z
" id="DejaVuSans-110"/>
     <path d="M 48.78125 52.59375 
L 48.78125 44.1875 
Q 44.96875 46.296875 41.140625 47.34375 
Q 37.3125 48.390625 33.40625 48.390625 
Q 24.65625 48.390625 19.8125 42.84375 
Q 14.984375 37.3125 14.984375 27.296875 
Q 14.984375 17.28125 19.8125 11.734375 
Q 24.65625 6.203125 33.40625 6.203125 
Q 37.3125 6.203125 41.140625 7.25 
Q 44.96875 8.296875 48.78125 10.40625 
L 48.78125 2.09375 
Q 45.015625 0.34375 40.984375 -0.53125 
Q 36.96875 -1.421875 32.421875 -1.421875 
Q 20.0625 -1.421875 12.78125 6.34375 
Q 5.515625 14.109375 5.515625 27.296875 
Q 5.515625 40.671875 12.859375 48.328125 
Q 20.21875 56 33.015625 56 
Q 37.15625 56 41.109375 55.140625 
Q 45.0625 54.296875 48.78125 52.59375 
z
" id="DejaVuSans-99"/>
     <path d="M 54.890625 33.015625 
L 54.890625 0 
L 45.90625 0 
L 45.90625 32.71875 
Q 45.90625 40.484375 42.875 44.328125 
Q 39.84375 48.1875 33.796875 48.1875 
Q 26.515625 48.1875 22.3125 43.546875 
Q 18.109375 38.921875 18.109375 30.90625 
L 18.109375 0 
L 9.078125 0 
L 9.078125 75.984375 
L 18.109375 75.984375 
L 18.109375 46.1875 
Q 21.34375 51.125 25.703125 53.5625 
Q 30.078125 56 35.796875 56 
Q 45.21875 56 50.046875 50.171875 
Q 54.890625 44.34375 54.890625 33.015625 
z
" id="DejaVuSans-104"/>
     <path d="M 41.109375 46.296875 
Q 39.59375 47.171875 37.8125 47.578125 
Q 36.03125 48 33.890625 48 
Q 26.265625 48 22.1875 43.046875 
Q 18.109375 38.09375 18.109375 28.8125 
L 18.109375 0 
L 9.078125 0 
L 9.078125 54.6875 
L 18.109375 54.6875 
L 18.109375 46.1875 
Q 20.953125 51.171875 25.484375 53.578125 
Q 30.03125 56 36.53125 56 
Q 37.453125 56 38.578125 55.875 
Q 39.703125 55.765625 41.0625 55.515625 
z
" id="DejaVuSans-114"/>
     <path d="M 9.078125 75.984375 
L 18.109375 75.984375 
L 18.109375 31.109375 
L 44.921875 54.6875 
L 56.390625 54.6875 
L 27.390625 29.109375 
L 57.625 0 
L 45.90625 0 
L 18.109375 26.703125 
L 18.109375 0 
L 9.078125 0 
z
" id="DejaVuSans-107"/>
     <path d="M 4.890625 31.390625 
L 31.203125 31.390625 
L 31.203125 23.390625 
L 4.890625 23.390625 
z
" id="DejaVuSans-45"/>
     <path d="M 53.515625 70.515625 
L 53.515625 60.890625 
Q 47.90625 63.578125 42.921875 64.890625 
Q 37.9375 66.21875 33.296875 66.21875 
Q 25.25 66.21875 20.875 63.09375 
Q 16.5 59.96875 16.5 54.203125 
Q 16.5 49.359375 19.40625 46.890625 
Q 22.3125 44.4375 30.421875 42.921875 
L 36.375 41.703125 
Q 47.40625 39.59375 52.65625 34.296875 
Q 57.90625 29 57.90625 20.125 
Q 57.90625 9.515625 50.796875 4.046875 
Q 43.703125 -1.421875 29.984375 -1.421875 
Q 24.8125 -1.421875 18.96875 -0.25 
Q 13.140625 0.921875 6.890625 3.21875 
L 6.890625 13.375 
Q 12.890625 10.015625 18.65625 8.296875 
Q 24.421875 6.59375 29.984375 6.59375 
Q 38.421875 6.59375 43.015625 9.90625 
Q 47.609375 13.234375 47.609375 19.390625 
Q 47.609375 24.75 44.3125 27.78125 
Q 41.015625 30.8125 33.5 32.328125 
L 27.484375 33.5 
Q 16.453125 35.6875 11.515625 40.375 
Q 6.59375 45.0625 6.59375 53.421875 
Q 6.59375 63.09375 13.40625 68.65625 
Q 20.21875 74.21875 32.171875 74.21875 
Q 37.3125 74.21875 42.625 73.28125 
Q 47.953125 72.359375 53.515625 70.515625 
z
" id="DejaVuSans-83"/>
     <path d="M 10.6875 12.40625 
L 21 12.40625 
L 21 0 
L 10.6875 0 
z
" id="DejaVuSans-46"/>
     <path d="M 2.984375 54.6875 
L 12.5 54.6875 
L 29.59375 8.796875 
L 46.6875 54.6875 
L 56.203125 54.6875 
L 35.6875 0 
L 23.484375 0 
z
" id="DejaVuSans-118"/>
    </defs>
    <g transform="translate(371.555625 45.84)scale(0.12 -0.12)">
     <use xlink:href="#DejaVuSans-65"/>
     <use x="68.408203" xlink:href="#DejaVuSans-51"/>
     <use x="132.03125" xlink:href="#DejaVuSans-66"/>
     <use x="200.634766" xlink:href="#DejaVuSans-101"/>
     <use x="262.158203" xlink:href="#DejaVuSans-110"/>
     <use x="325.537109" xlink:href="#DejaVuSans-99"/>
     <use x="380.517578" xlink:href="#DejaVuSans-104"/>
     <use x="443.896484" xlink:href="#DejaVuSans-109"/>
     <use x="541.308594" xlink:href="#DejaVuSans-97"/>
     <use x="602.587891" xlink:href="#DejaVuSans-114"/>
     <use x="643.701172" xlink:href="#DejaVuSans-107"/>
     <use x="701.611328" xlink:href="#DejaVuSans-45"/>
     <use x="737.554688" xlink:href="#DejaVuSans-84"/>
     <use x="798.638672" xlink:href="#DejaVuSans-83"/>
     <use x="862.115234" xlink:href="#DejaVuSans-51"/>
     <use x="925.738281" xlink:href="#DejaVuSans-53"/>
     <use x="989.361328" xlink:href="#DejaVuSans-46"/>
     <use x="1021.148438" xlink:href="#DejaVuSans-99"/>
     <use x="1076.128906" xlink:href="#DejaVuSans-115"/>
     <use x="1128.228516" xlink:href="#DejaVuSans-118"/>
    </g>
   </g>
   <g id="legend_1">
    <g id="patch_107">
     <path d="M 115 74.518125 
L 174.315625 74.518125 
Q 176.315625 74.518125 176.315625 72.518125 
L 176.315625 58.84 
Q 176.315625 56.84 174.315625 56.84 
L 115 56.84 
Q 113 56.84 113 58.84 
L 113 72.518125 
Q 113 74.518125 115 74.518125 
z
" style="fill:#ffffff;opacity:0.8;stroke:#cccccc;stroke-linejoin:miter;"/>
    </g>
    <g id="line2d_20">
     <path d="M 117 64.938438 
L 137 64.938438 
" style="fill:none;stroke:#1f77b4;stroke-linecap:square;stroke-width:1.5;"/>
    </g>
    <g id="line2d_21"/>
    <g id="text_21">
     <!-- value -->
     <g transform="translate(145 68.438438)scale(0.1 -0.1)">
      <use xlink:href="#DejaVuSans-118"/>
      <use x="59.179688" xlink:href="#DejaVuSans-97"/>
      <use x="120.458984" xlink:href="#DejaVuSans-108"/>
      <use x="148.242188" xlink:href="#DejaVuSans-117"/>
      <use x="211.621094" xlink:href="#DejaVuSans-101"/>
     </g>
    </g>
   </g>
  </g>
 </g>
 <defs>
  <clipPath id="ped7c343fa2">
   <rect height="332.64" width="669.6" x="108" y="51.84"/>
  </clipPath>
 </defs>
</svg>
