<?xml version="1.0" encoding="utf-8" standalone="no"?>
<!DOCTYPE svg PUBLIC "-//W3C//DTD SVG 1.1//EN"
  "http://www.w3.org/Graphics/SVG/1.1/DTD/svg11.dtd">
<!-- Created with matplotlib (https://matplotlib.org/) -->
<svg height="432pt" version="1.1" viewBox="0 0 864 432" width="864pt" xmlns="http://www.w3.org/2000/svg" xmlns:xlink="http://www.w3.org/1999/xlink">
 <defs>
  <style type="text/css">
*{stroke-linecap:butt;stroke-linejoin:round;}
  </style>
 </defs>
 <g id="figure_1">
  <g id="patch_1">
   <path d="M 0 432 
L 864 432 
L 864 0 
L 0 0 
z
" style="fill:#ffffff;"/>
  </g>
  <g id="axes_1">
   <g id="patch_2">
    <path d="M 108 384.48 
L 777.6 384.48 
L 777.6 51.84 
L 108 51.84 
z
" style="fill:#ffffff;"/>
   </g>
   <g id="patch_3">
    <path clip-path="url(#pba2a1eb828)" d="M 138.436364 384.48 
L 138.436364 51.84 
L 440.999032 51.84 
L 440.999032 384.48 
z
" style="fill:#0000ff;opacity:0.05;"/>
   </g>
   <g id="patch_4">
    <path clip-path="url(#pba2a1eb828)" d="M 440.999032 384.48 
L 440.999032 51.84 
L 747.163636 51.84 
L 747.163636 384.48 
z
" style="fill:#ff0000;opacity:0.08;"/>
   </g>
   <g id="patch_5">
    <path clip-path="url(#pba2a1eb828)" d="M 138.436364 384.48 
L 138.436364 51.84 
L 142.0383 51.84 
L 142.0383 384.48 
z
" style="fill:#008000;opacity:0.04;"/>
   </g>
   <g id="patch_6">
    <path clip-path="url(#pba2a1eb828)" d="M 145.640237 384.48 
L 145.640237 51.84 
L 149.242173 51.84 
L 149.242173 384.48 
z
" style="fill:#008000;opacity:0.04;"/>
   </g>
   <g id="patch_7">
    <path clip-path="url(#pba2a1eb828)" d="M 152.84411 384.48 
L 152.84411 51.84 
L 156.446046 51.84 
L 156.446046 384.48 
z
" style="fill:#008000;opacity:0.04;"/>
   </g>
   <g id="patch_8">
    <path clip-path="url(#pba2a1eb828)" d="M 160.047983 384.48 
L 160.047983 51.84 
L 163.649919 51.84 
L 163.649919 384.48 
z
" style="fill:#008000;opacity:0.04;"/>
   </g>
   <g id="patch_9">
    <path clip-path="url(#pba2a1eb828)" d="M 160.047983 371.1744 
L 160.047983 51.84 
L 163.649919 51.84 
L 163.649919 371.1744 
z
" style="fill:#008000;opacity:0.5;"/>
   </g>
   <g id="patch_10">
    <path clip-path="url(#pba2a1eb828)" d="M 160.047983 384.48 
L 160.047983 371.1744 
L 163.649919 371.1744 
L 163.649919 384.48 
z
" style="fill:#ffe500;"/>
   </g>
   <g id="patch_11">
    <path clip-path="url(#pba2a1eb828)" d="M 466.212587 384.48 
L 466.212587 371.1744 
L 469.814524 371.1744 
L 469.814524 384.48 
z
" style="fill:#ff6600;"/>
   </g>
   <g id="patch_12">
    <path clip-path="url(#pba2a1eb828)" d="M 167.251856 384.48 
L 167.251856 51.84 
L 170.853792 51.84 
L 170.853792 384.48 
z
" style="fill:#008000;opacity:0.04;"/>
   </g>
   <g id="patch_13">
    <path clip-path="url(#pba2a1eb828)" d="M 174.455729 384.48 
L 174.455729 51.84 
L 178.057665 51.84 
L 178.057665 384.48 
z
" style="fill:#008000;opacity:0.04;"/>
   </g>
   <g id="patch_14">
    <path clip-path="url(#pba2a1eb828)" d="M 181.659602 384.48 
L 181.659602 51.84 
L 185.261538 51.84 
L 185.261538 384.48 
z
" style="fill:#008000;opacity:0.04;"/>
   </g>
   <g id="patch_15">
    <path clip-path="url(#pba2a1eb828)" d="M 188.863475 384.48 
L 188.863475 51.84 
L 192.465412 51.84 
L 192.465412 384.48 
z
" style="fill:#008000;opacity:0.04;"/>
   </g>
   <g id="patch_16">
    <path clip-path="url(#pba2a1eb828)" d="M 188.863475 384.48 
L 188.863475 371.1744 
L 192.465412 371.1744 
L 192.465412 384.48 
z
" style="fill:#ffe500;"/>
   </g>
   <g id="patch_17">
    <path clip-path="url(#pba2a1eb828)" d="M 196.067348 384.48 
L 196.067348 51.84 
L 199.669285 51.84 
L 199.669285 384.48 
z
" style="fill:#008000;opacity:0.04;"/>
   </g>
   <g id="patch_18">
    <path clip-path="url(#pba2a1eb828)" d="M 203.271221 384.48 
L 203.271221 51.84 
L 206.873158 51.84 
L 206.873158 384.48 
z
" style="fill:#008000;opacity:0.04;"/>
   </g>
   <g id="patch_19">
    <path clip-path="url(#pba2a1eb828)" d="M 210.475094 384.48 
L 210.475094 51.84 
L 214.077031 51.84 
L 214.077031 384.48 
z
" style="fill:#008000;opacity:0.04;"/>
   </g>
   <g id="patch_20">
    <path clip-path="url(#pba2a1eb828)" d="M 217.678967 384.48 
L 217.678967 51.84 
L 221.280904 51.84 
L 221.280904 384.48 
z
" style="fill:#008000;opacity:0.04;"/>
   </g>
   <g id="patch_21">
    <path clip-path="url(#pba2a1eb828)" d="M 520.241635 384.48 
L 520.241635 371.1744 
L 523.843572 371.1744 
L 523.843572 384.48 
z
" style="fill:#ff6600;"/>
   </g>
   <g id="patch_22">
    <path clip-path="url(#pba2a1eb828)" d="M 224.88284 384.48 
L 224.88284 51.84 
L 228.484777 51.84 
L 228.484777 384.48 
z
" style="fill:#008000;opacity:0.04;"/>
   </g>
   <g id="patch_23">
    <path clip-path="url(#pba2a1eb828)" d="M 232.086713 384.48 
L 232.086713 51.84 
L 235.68865 51.84 
L 235.68865 384.48 
z
" style="fill:#008000;opacity:0.04;"/>
   </g>
   <g id="patch_24">
    <path clip-path="url(#pba2a1eb828)" d="M 239.290586 384.48 
L 239.290586 51.84 
L 242.892523 51.84 
L 242.892523 384.48 
z
" style="fill:#008000;opacity:0.04;"/>
   </g>
   <g id="patch_25">
    <path clip-path="url(#pba2a1eb828)" d="M 246.494459 384.48 
L 246.494459 51.84 
L 250.096396 51.84 
L 250.096396 384.48 
z
" style="fill:#008000;opacity:0.04;"/>
   </g>
   <g id="patch_26">
    <path clip-path="url(#pba2a1eb828)" d="M 253.698332 384.48 
L 253.698332 51.84 
L 257.300269 51.84 
L 257.300269 384.48 
z
" style="fill:#008000;opacity:0.04;"/>
   </g>
   <g id="patch_27">
    <path clip-path="url(#pba2a1eb828)" d="M 260.902205 384.48 
L 260.902205 51.84 
L 264.504142 51.84 
L 264.504142 384.48 
z
" style="fill:#008000;opacity:0.04;"/>
   </g>
   <g id="patch_28">
    <path clip-path="url(#pba2a1eb828)" d="M 268.106079 384.48 
L 268.106079 51.84 
L 271.708015 51.84 
L 271.708015 384.48 
z
" style="fill:#008000;opacity:0.04;"/>
   </g>
   <g id="patch_29">
    <path clip-path="url(#pba2a1eb828)" d="M 275.309952 384.48 
L 275.309952 51.84 
L 278.911888 51.84 
L 278.911888 384.48 
z
" style="fill:#008000;opacity:0.04;"/>
   </g>
   <g id="patch_30">
    <path clip-path="url(#pba2a1eb828)" d="M 282.513825 384.48 
L 282.513825 51.84 
L 286.115761 51.84 
L 286.115761 384.48 
z
" style="fill:#008000;opacity:0.04;"/>
   </g>
   <g id="patch_31">
    <path clip-path="url(#pba2a1eb828)" d="M 585.076493 384.48 
L 585.076493 371.1744 
L 588.678429 371.1744 
L 588.678429 384.48 
z
" style="fill:#ff6600;"/>
   </g>
   <g id="patch_32">
    <path clip-path="url(#pba2a1eb828)" d="M 289.717698 384.48 
L 289.717698 51.84 
L 293.319634 51.84 
L 293.319634 384.48 
z
" style="fill:#008000;opacity:0.04;"/>
   </g>
   <g id="patch_33">
    <path clip-path="url(#pba2a1eb828)" d="M 296.921571 384.48 
L 296.921571 51.84 
L 300.523507 51.84 
L 300.523507 384.48 
z
" style="fill:#008000;opacity:0.04;"/>
   </g>
   <g id="patch_34">
    <path clip-path="url(#pba2a1eb828)" d="M 296.921571 384.48 
L 296.921571 371.1744 
L 300.523507 371.1744 
L 300.523507 384.48 
z
" style="fill:#ffe500;"/>
   </g>
   <g id="patch_35">
    <path clip-path="url(#pba2a1eb828)" d="M 304.125444 384.48 
L 304.125444 51.84 
L 307.72738 51.84 
L 307.72738 384.48 
z
" style="fill:#008000;opacity:0.04;"/>
   </g>
   <g id="patch_36">
    <path clip-path="url(#pba2a1eb828)" d="M 311.329317 384.48 
L 311.329317 51.84 
L 314.931253 51.84 
L 314.931253 384.48 
z
" style="fill:#008000;opacity:0.04;"/>
   </g>
   <g id="patch_37">
    <path clip-path="url(#pba2a1eb828)" d="M 318.53319 384.48 
L 318.53319 51.84 
L 322.135126 51.84 
L 322.135126 384.48 
z
" style="fill:#008000;opacity:0.04;"/>
   </g>
   <g id="patch_38">
    <path clip-path="url(#pba2a1eb828)" d="M 318.53319 384.48 
L 318.53319 371.1744 
L 322.135126 371.1744 
L 322.135126 384.48 
z
" style="fill:#ffe500;"/>
   </g>
   <g id="patch_39">
    <path clip-path="url(#pba2a1eb828)" d="M 325.737063 384.48 
L 325.737063 51.84 
L 329.338999 51.84 
L 329.338999 384.48 
z
" style="fill:#008000;opacity:0.04;"/>
   </g>
   <g id="patch_40">
    <path clip-path="url(#pba2a1eb828)" d="M 325.737063 371.1744 
L 325.737063 51.84 
L 329.338999 51.84 
L 329.338999 371.1744 
z
" style="fill:#008000;opacity:0.5;"/>
   </g>
   <g id="patch_41">
    <path clip-path="url(#pba2a1eb828)" d="M 325.737063 384.48 
L 325.737063 371.1744 
L 329.338999 371.1744 
L 329.338999 384.48 
z
" style="fill:#ffe500;"/>
   </g>
   <g id="patch_42">
    <path clip-path="url(#pba2a1eb828)" d="M 332.940936 384.48 
L 332.940936 51.84 
L 336.542873 51.84 
L 336.542873 384.48 
z
" style="fill:#008000;opacity:0.04;"/>
   </g>
   <g id="patch_43">
    <path clip-path="url(#pba2a1eb828)" d="M 340.144809 384.48 
L 340.144809 51.84 
L 343.746746 51.84 
L 343.746746 384.48 
z
" style="fill:#008000;opacity:0.04;"/>
   </g>
   <g id="patch_44">
    <path clip-path="url(#pba2a1eb828)" d="M 340.144809 384.48 
L 340.144809 371.1744 
L 343.746746 371.1744 
L 343.746746 384.48 
z
" style="fill:#ffe500;"/>
   </g>
   <g id="patch_45">
    <path clip-path="url(#pba2a1eb828)" d="M 347.348682 384.48 
L 347.348682 51.84 
L 350.950619 51.84 
L 350.950619 384.48 
z
" style="fill:#008000;opacity:0.04;"/>
   </g>
   <g id="patch_46">
    <path clip-path="url(#pba2a1eb828)" d="M 354.552555 384.48 
L 354.552555 51.84 
L 358.154492 51.84 
L 358.154492 384.48 
z
" style="fill:#008000;opacity:0.04;"/>
   </g>
   <g id="patch_47">
    <path clip-path="url(#pba2a1eb828)" d="M 361.756428 384.48 
L 361.756428 51.84 
L 365.358365 51.84 
L 365.358365 384.48 
z
" style="fill:#008000;opacity:0.04;"/>
   </g>
   <g id="patch_48">
    <path clip-path="url(#pba2a1eb828)" d="M 368.960301 384.48 
L 368.960301 51.84 
L 372.562238 51.84 
L 372.562238 384.48 
z
" style="fill:#008000;opacity:0.04;"/>
   </g>
   <g id="patch_49">
    <path clip-path="url(#pba2a1eb828)" d="M 372.562238 371.1744 
L 372.562238 51.84 
L 376.164174 51.84 
L 376.164174 371.1744 
z
" style="fill:#008000;opacity:0.5;"/>
   </g>
   <g id="patch_50">
    <path clip-path="url(#pba2a1eb828)" d="M 372.562238 384.48 
L 372.562238 371.1744 
L 376.164174 371.1744 
L 376.164174 384.48 
z
" style="fill:#ffe500;"/>
   </g>
   <g id="patch_51">
    <path clip-path="url(#pba2a1eb828)" d="M 675.124906 384.48 
L 675.124906 371.1744 
L 678.726842 371.1744 
L 678.726842 384.48 
z
" style="fill:#ff6600;"/>
   </g>
   <g id="patch_52">
    <path clip-path="url(#pba2a1eb828)" d="M 376.164174 384.48 
L 376.164174 51.84 
L 379.766111 51.84 
L 379.766111 384.48 
z
" style="fill:#008000;opacity:0.04;"/>
   </g>
   <g id="patch_53">
    <path clip-path="url(#pba2a1eb828)" d="M 376.164174 371.1744 
L 376.164174 51.84 
L 379.766111 51.84 
L 379.766111 371.1744 
z
" style="fill:#008000;opacity:0.5;"/>
   </g>
   <g id="patch_54">
    <path clip-path="url(#pba2a1eb828)" d="M 376.164174 384.48 
L 376.164174 371.1744 
L 379.766111 371.1744 
L 379.766111 384.48 
z
" style="fill:#ffe500;"/>
   </g>
   <g id="patch_55">
    <path clip-path="url(#pba2a1eb828)" d="M 383.368047 384.48 
L 383.368047 51.84 
L 386.969984 51.84 
L 386.969984 384.48 
z
" style="fill:#008000;opacity:0.04;"/>
   </g>
   <g id="patch_56">
    <path clip-path="url(#pba2a1eb828)" d="M 390.57192 384.48 
L 390.57192 51.84 
L 394.173857 51.84 
L 394.173857 384.48 
z
" style="fill:#008000;opacity:0.04;"/>
   </g>
   <g id="patch_57">
    <path clip-path="url(#pba2a1eb828)" d="M 397.775793 384.48 
L 397.775793 51.84 
L 401.37773 51.84 
L 401.37773 384.48 
z
" style="fill:#008000;opacity:0.04;"/>
   </g>
   <g id="patch_58">
    <path clip-path="url(#pba2a1eb828)" d="M 700.338462 384.48 
L 700.338462 371.1744 
L 703.940398 371.1744 
L 703.940398 384.48 
z
" style="fill:#ff6600;"/>
   </g>
   <g id="patch_59">
    <path clip-path="url(#pba2a1eb828)" d="M 404.979666 384.48 
L 404.979666 51.84 
L 408.581603 51.84 
L 408.581603 384.48 
z
" style="fill:#008000;opacity:0.04;"/>
   </g>
   <g id="patch_60">
    <path clip-path="url(#pba2a1eb828)" d="M 707.542335 384.48 
L 707.542335 371.1744 
L 711.144271 371.1744 
L 711.144271 384.48 
z
" style="fill:#ff6600;"/>
   </g>
   <g id="patch_61">
    <path clip-path="url(#pba2a1eb828)" d="M 412.18354 384.48 
L 412.18354 51.84 
L 415.785476 51.84 
L 415.785476 384.48 
z
" style="fill:#008000;opacity:0.04;"/>
   </g>
   <g id="patch_62">
    <path clip-path="url(#pba2a1eb828)" d="M 419.387413 384.48 
L 419.387413 51.84 
L 422.989349 51.84 
L 422.989349 384.48 
z
" style="fill:#008000;opacity:0.04;"/>
   </g>
   <g id="patch_63">
    <path clip-path="url(#pba2a1eb828)" d="M 426.591286 384.48 
L 426.591286 51.84 
L 430.193222 51.84 
L 430.193222 384.48 
z
" style="fill:#008000;opacity:0.04;"/>
   </g>
   <g id="patch_64">
    <path clip-path="url(#pba2a1eb828)" d="M 433.795159 384.48 
L 433.795159 51.84 
L 437.397095 51.84 
L 437.397095 384.48 
z
" style="fill:#008000;opacity:0.04;"/>
   </g>
   <g id="patch_65">
    <path clip-path="url(#pba2a1eb828)" d="M 440.999032 384.48 
L 440.999032 51.84 
L 444.600968 51.84 
L 444.600968 384.48 
z
" style="fill:#008000;opacity:0.04;"/>
   </g>
   <g id="patch_66">
    <path clip-path="url(#pba2a1eb828)" d="M 743.5617 384.48 
L 743.5617 371.1744 
L 747.163636 371.1744 
L 747.163636 384.48 
z
" style="fill:#ff6600;"/>
   </g>
   <g id="patch_67">
    <path clip-path="url(#pba2a1eb828)" d="M 448.202905 384.48 
L 448.202905 51.84 
L 451.804841 51.84 
L 451.804841 384.48 
z
" style="fill:#008000;opacity:0.04;"/>
   </g>
   <g id="patch_68">
    <path clip-path="url(#pba2a1eb828)" d="M 455.406778 384.48 
L 455.406778 51.84 
L 459.008714 51.84 
L 459.008714 384.48 
z
" style="fill:#008000;opacity:0.04;"/>
   </g>
   <g id="patch_69">
    <path clip-path="url(#pba2a1eb828)" d="M 462.610651 384.48 
L 462.610651 51.84 
L 466.212587 51.84 
L 466.212587 384.48 
z
" style="fill:#008000;opacity:0.04;"/>
   </g>
   <g id="patch_70">
    <path clip-path="url(#pba2a1eb828)" d="M 466.212587 371.1744 
L 466.212587 51.84 
L 469.814524 51.84 
L 469.814524 371.1744 
z
" style="fill:#008000;opacity:0.5;"/>
   </g>
   <g id="patch_71">
    <path clip-path="url(#pba2a1eb828)" d="M 469.814524 384.48 
L 469.814524 51.84 
L 473.41646 51.84 
L 473.41646 384.48 
z
" style="fill:#008000;opacity:0.04;"/>
   </g>
   <g id="patch_72">
    <path clip-path="url(#pba2a1eb828)" d="M 477.018397 384.48 
L 477.018397 51.84 
L 480.620334 51.84 
L 480.620334 384.48 
z
" style="fill:#008000;opacity:0.04;"/>
   </g>
   <g id="patch_73">
    <path clip-path="url(#pba2a1eb828)" d="M 484.22227 384.48 
L 484.22227 51.84 
L 487.824207 51.84 
L 487.824207 384.48 
z
" style="fill:#008000;opacity:0.04;"/>
   </g>
   <g id="patch_74">
    <path clip-path="url(#pba2a1eb828)" d="M 491.426143 384.48 
L 491.426143 51.84 
L 495.02808 51.84 
L 495.02808 384.48 
z
" style="fill:#008000;opacity:0.04;"/>
   </g>
   <g id="patch_75">
    <path clip-path="url(#pba2a1eb828)" d="M 498.630016 384.48 
L 498.630016 51.84 
L 502.231953 51.84 
L 502.231953 384.48 
z
" style="fill:#008000;opacity:0.04;"/>
   </g>
   <g id="patch_76">
    <path clip-path="url(#pba2a1eb828)" d="M 505.833889 384.48 
L 505.833889 51.84 
L 509.435826 51.84 
L 509.435826 384.48 
z
" style="fill:#008000;opacity:0.04;"/>
   </g>
   <g id="patch_77">
    <path clip-path="url(#pba2a1eb828)" d="M 513.037762 384.48 
L 513.037762 51.84 
L 516.639699 51.84 
L 516.639699 384.48 
z
" style="fill:#008000;opacity:0.04;"/>
   </g>
   <g id="patch_78">
    <path clip-path="url(#pba2a1eb828)" d="M 520.241635 384.48 
L 520.241635 51.84 
L 523.843572 51.84 
L 523.843572 384.48 
z
" style="fill:#008000;opacity:0.04;"/>
   </g>
   <g id="patch_79">
    <path clip-path="url(#pba2a1eb828)" d="M 520.241635 371.1744 
L 520.241635 51.84 
L 523.843572 51.84 
L 523.843572 371.1744 
z
" style="fill:#008000;opacity:0.5;"/>
   </g>
   <g id="patch_80">
    <path clip-path="url(#pba2a1eb828)" d="M 527.445508 384.48 
L 527.445508 51.84 
L 531.047445 51.84 
L 531.047445 384.48 
z
" style="fill:#008000;opacity:0.04;"/>
   </g>
   <g id="patch_81">
    <path clip-path="url(#pba2a1eb828)" d="M 534.649381 384.48 
L 534.649381 51.84 
L 538.251318 51.84 
L 538.251318 384.48 
z
" style="fill:#008000;opacity:0.04;"/>
   </g>
   <g id="patch_82">
    <path clip-path="url(#pba2a1eb828)" d="M 541.853254 384.48 
L 541.853254 51.84 
L 545.455191 51.84 
L 545.455191 384.48 
z
" style="fill:#008000;opacity:0.04;"/>
   </g>
   <g id="patch_83">
    <path clip-path="url(#pba2a1eb828)" d="M 549.057127 384.48 
L 549.057127 51.84 
L 552.659064 51.84 
L 552.659064 384.48 
z
" style="fill:#008000;opacity:0.04;"/>
   </g>
   <g id="patch_84">
    <path clip-path="url(#pba2a1eb828)" d="M 556.261001 384.48 
L 556.261001 51.84 
L 559.862937 51.84 
L 559.862937 384.48 
z
" style="fill:#008000;opacity:0.04;"/>
   </g>
   <g id="patch_85">
    <path clip-path="url(#pba2a1eb828)" d="M 563.464874 384.48 
L 563.464874 51.84 
L 567.06681 51.84 
L 567.06681 384.48 
z
" style="fill:#008000;opacity:0.04;"/>
   </g>
   <g id="patch_86">
    <path clip-path="url(#pba2a1eb828)" d="M 570.668747 384.48 
L 570.668747 51.84 
L 574.270683 51.84 
L 574.270683 384.48 
z
" style="fill:#008000;opacity:0.04;"/>
   </g>
   <g id="patch_87">
    <path clip-path="url(#pba2a1eb828)" d="M 577.87262 384.48 
L 577.87262 51.84 
L 581.474556 51.84 
L 581.474556 384.48 
z
" style="fill:#008000;opacity:0.04;"/>
   </g>
   <g id="patch_88">
    <path clip-path="url(#pba2a1eb828)" d="M 585.076493 384.48 
L 585.076493 51.84 
L 588.678429 51.84 
L 588.678429 384.48 
z
" style="fill:#008000;opacity:0.04;"/>
   </g>
   <g id="patch_89">
    <path clip-path="url(#pba2a1eb828)" d="M 585.076493 371.1744 
L 585.076493 51.84 
L 588.678429 51.84 
L 588.678429 371.1744 
z
" style="fill:#008000;opacity:0.5;"/>
   </g>
   <g id="patch_90">
    <path clip-path="url(#pba2a1eb828)" d="M 592.280366 384.48 
L 592.280366 51.84 
L 595.882302 51.84 
L 595.882302 384.48 
z
" style="fill:#008000;opacity:0.04;"/>
   </g>
   <g id="patch_91">
    <path clip-path="url(#pba2a1eb828)" d="M 599.484239 384.48 
L 599.484239 51.84 
L 603.086175 51.84 
L 603.086175 384.48 
z
" style="fill:#008000;opacity:0.04;"/>
   </g>
   <g id="patch_92">
    <path clip-path="url(#pba2a1eb828)" d="M 606.688112 384.48 
L 606.688112 51.84 
L 610.290048 51.84 
L 610.290048 384.48 
z
" style="fill:#008000;opacity:0.04;"/>
   </g>
   <g id="patch_93">
    <path clip-path="url(#pba2a1eb828)" d="M 613.891985 384.48 
L 613.891985 51.84 
L 617.493921 51.84 
L 617.493921 384.48 
z
" style="fill:#008000;opacity:0.04;"/>
   </g>
   <g id="patch_94">
    <path clip-path="url(#pba2a1eb828)" d="M 621.095858 384.48 
L 621.095858 51.84 
L 624.697795 51.84 
L 624.697795 384.48 
z
" style="fill:#008000;opacity:0.04;"/>
   </g>
   <g id="patch_95">
    <path clip-path="url(#pba2a1eb828)" d="M 628.299731 384.48 
L 628.299731 51.84 
L 631.901668 51.84 
L 631.901668 384.48 
z
" style="fill:#008000;opacity:0.04;"/>
   </g>
   <g id="patch_96">
    <path clip-path="url(#pba2a1eb828)" d="M 635.503604 384.48 
L 635.503604 51.84 
L 639.105541 51.84 
L 639.105541 384.48 
z
" style="fill:#008000;opacity:0.04;"/>
   </g>
   <g id="patch_97">
    <path clip-path="url(#pba2a1eb828)" d="M 642.707477 384.48 
L 642.707477 51.84 
L 646.309414 51.84 
L 646.309414 384.48 
z
" style="fill:#008000;opacity:0.04;"/>
   </g>
   <g id="patch_98">
    <path clip-path="url(#pba2a1eb828)" d="M 649.91135 384.48 
L 649.91135 51.84 
L 653.513287 51.84 
L 653.513287 384.48 
z
" style="fill:#008000;opacity:0.04;"/>
   </g>
   <g id="patch_99">
    <path clip-path="url(#pba2a1eb828)" d="M 657.115223 384.48 
L 657.115223 51.84 
L 660.71716 51.84 
L 660.71716 384.48 
z
" style="fill:#008000;opacity:0.04;"/>
   </g>
   <g id="patch_100">
    <path clip-path="url(#pba2a1eb828)" d="M 664.319096 384.48 
L 664.319096 51.84 
L 667.921033 51.84 
L 667.921033 384.48 
z
" style="fill:#008000;opacity:0.04;"/>
   </g>
   <g id="patch_101">
    <path clip-path="url(#pba2a1eb828)" d="M 671.522969 384.48 
L 671.522969 51.84 
L 675.124906 51.84 
L 675.124906 384.48 
z
" style="fill:#008000;opacity:0.04;"/>
   </g>
   <g id="patch_102">
    <path clip-path="url(#pba2a1eb828)" d="M 675.124906 371.1744 
L 675.124906 51.84 
L 678.726842 51.84 
L 678.726842 371.1744 
z
" style="fill:#008000;opacity:0.5;"/>
   </g>
   <g id="patch_103">
    <path clip-path="url(#pba2a1eb828)" d="M 678.726842 384.48 
L 678.726842 51.84 
L 682.328779 51.84 
L 682.328779 384.48 
z
" style="fill:#008000;opacity:0.04;"/>
   </g>
   <g id="patch_104">
    <path clip-path="url(#pba2a1eb828)" d="M 685.930715 384.48 
L 685.930715 51.84 
L 689.532652 51.84 
L 689.532652 384.48 
z
" style="fill:#008000;opacity:0.04;"/>
   </g>
   <g id="patch_105">
    <path clip-path="url(#pba2a1eb828)" d="M 693.134588 384.48 
L 693.134588 51.84 
L 696.736525 51.84 
L 696.736525 384.48 
z
" style="fill:#008000;opacity:0.04;"/>
   </g>
   <g id="patch_106">
    <path clip-path="url(#pba2a1eb828)" d="M 700.338462 384.48 
L 700.338462 51.84 
L 703.940398 51.84 
L 703.940398 384.48 
z
" style="fill:#008000;opacity:0.04;"/>
   </g>
   <g id="patch_107">
    <path clip-path="url(#pba2a1eb828)" d="M 700.338462 371.1744 
L 700.338462 51.84 
L 703.940398 51.84 
L 703.940398 371.1744 
z
" style="fill:#008000;opacity:0.5;"/>
   </g>
   <g id="patch_108">
    <path clip-path="url(#pba2a1eb828)" d="M 707.542335 384.48 
L 707.542335 51.84 
L 711.144271 51.84 
L 711.144271 384.48 
z
" style="fill:#008000;opacity:0.04;"/>
   </g>
   <g id="patch_109">
    <path clip-path="url(#pba2a1eb828)" d="M 707.542335 371.1744 
L 707.542335 51.84 
L 711.144271 51.84 
L 711.144271 371.1744 
z
" style="fill:#008000;opacity:0.5;"/>
   </g>
   <g id="patch_110">
    <path clip-path="url(#pba2a1eb828)" d="M 714.746208 384.48 
L 714.746208 51.84 
L 718.348144 51.84 
L 718.348144 384.48 
z
" style="fill:#008000;opacity:0.04;"/>
   </g>
   <g id="patch_111">
    <path clip-path="url(#pba2a1eb828)" d="M 721.950081 384.48 
L 721.950081 51.84 
L 725.552017 51.84 
L 725.552017 384.48 
z
" style="fill:#008000;opacity:0.04;"/>
   </g>
   <g id="patch_112">
    <path clip-path="url(#pba2a1eb828)" d="M 729.153954 384.48 
L 729.153954 51.84 
L 732.75589 51.84 
L 732.75589 384.48 
z
" style="fill:#008000;opacity:0.04;"/>
   </g>
   <g id="patch_113">
    <path clip-path="url(#pba2a1eb828)" d="M 736.357827 384.48 
L 736.357827 51.84 
L 739.959763 51.84 
L 739.959763 384.48 
z
" style="fill:#008000;opacity:0.04;"/>
   </g>
   <g id="patch_114">
    <path clip-path="url(#pba2a1eb828)" d="M 743.5617 384.48 
L 743.5617 51.84 
L 747.163636 51.84 
L 747.163636 384.48 
z
" style="fill:#008000;opacity:0.04;"/>
   </g>
   <g id="matplotlib.axis_1">
    <g id="xtick_1">
     <g id="line2d_1">
      <defs>
       <path d="M 0 0 
L 0 3.5 
" id="m0ba8f49713" style="stroke:#000000;stroke-width:0.8;"/>
      </defs>
      <g>
       <use style="stroke:#000000;stroke-width:0.8;" x="138.436364" xlink:href="#m0ba8f49713" y="384.48"/>
      </g>
     </g>
     <g id="text_1">
      <!-- 0 -->
      <defs>
       <path d="M 31.78125 66.40625 
Q 24.171875 66.40625 20.328125 58.90625 
Q 16.5 51.421875 16.5 36.375 
Q 16.5 21.390625 20.328125 13.890625 
Q 24.171875 6.390625 31.78125 6.390625 
Q 39.453125 6.390625 43.28125 13.890625 
Q 47.125 21.390625 47.125 36.375 
Q 47.125 51.421875 43.28125 58.90625 
Q 39.453125 66.40625 31.78125 66.40625 
z
M 31.78125 74.21875 
Q 44.046875 74.21875 50.515625 64.515625 
Q 56.984375 54.828125 56.984375 36.375 
Q 56.984375 17.96875 50.515625 8.265625 
Q 44.046875 -1.421875 31.78125 -1.421875 
Q 19.53125 -1.421875 13.0625 8.265625 
Q 6.59375 17.96875 6.59375 36.375 
Q 6.59375 54.828125 13.0625 64.515625 
Q 19.53125 74.21875 31.78125 74.21875 
z
" id="DejaVuSans-48"/>
      </defs>
      <g transform="translate(135.255114 399.078438)scale(0.1 -0.1)">
       <use xlink:href="#DejaVuSans-48"/>
      </g>
     </g>
    </g>
    <g id="xtick_2">
     <g id="line2d_2">
      <g>
       <use style="stroke:#000000;stroke-width:0.8;" x="228.484777" xlink:href="#m0ba8f49713" y="384.48"/>
      </g>
     </g>
     <g id="text_2">
      <!-- 250 -->
      <defs>
       <path d="M 19.1875 8.296875 
L 53.609375 8.296875 
L 53.609375 0 
L 7.328125 0 
L 7.328125 8.296875 
Q 12.9375 14.109375 22.625 23.890625 
Q 32.328125 33.6875 34.8125 36.53125 
Q 39.546875 41.84375 41.421875 45.53125 
Q 43.3125 49.21875 43.3125 52.78125 
Q 43.3125 58.59375 39.234375 62.25 
Q 35.15625 65.921875 28.609375 65.921875 
Q 23.96875 65.921875 18.8125 64.3125 
Q 13.671875 62.703125 7.8125 59.421875 
L 7.8125 69.390625 
Q 13.765625 71.78125 18.9375 73 
Q 24.125 74.21875 28.421875 74.21875 
Q 39.75 74.21875 46.484375 68.546875 
Q 53.21875 62.890625 53.21875 53.421875 
Q 53.21875 48.921875 51.53125 44.890625 
Q 49.859375 40.875 45.40625 35.40625 
Q 44.1875 33.984375 37.640625 27.21875 
Q 31.109375 20.453125 19.1875 8.296875 
z
" id="DejaVuSans-50"/>
       <path d="M 10.796875 72.90625 
L 49.515625 72.90625 
L 49.515625 64.59375 
L 19.828125 64.59375 
L 19.828125 46.734375 
Q 21.96875 47.46875 24.109375 47.828125 
Q 26.265625 48.1875 28.421875 48.1875 
Q 40.625 48.1875 47.75 41.5 
Q 54.890625 34.8125 54.890625 23.390625 
Q 54.890625 11.625 47.5625 5.09375 
Q 40.234375 -1.421875 26.90625 -1.421875 
Q 22.3125 -1.421875 17.546875 -0.640625 
Q 12.796875 0.140625 7.71875 1.703125 
L 7.71875 11.625 
Q 12.109375 9.234375 16.796875 8.0625 
Q 21.484375 6.890625 26.703125 6.890625 
Q 35.15625 6.890625 40.078125 11.328125 
Q 45.015625 15.765625 45.015625 23.390625 
Q 45.015625 31 40.078125 35.4375 
Q 35.15625 39.890625 26.703125 39.890625 
Q 22.75 39.890625 18.8125 39.015625 
Q 14.890625 38.140625 10.796875 36.28125 
z
" id="DejaVuSans-53"/>
      </defs>
      <g transform="translate(218.941027 399.078438)scale(0.1 -0.1)">
       <use xlink:href="#DejaVuSans-50"/>
       <use x="63.623047" xlink:href="#DejaVuSans-53"/>
       <use x="127.246094" xlink:href="#DejaVuSans-48"/>
      </g>
     </g>
    </g>
    <g id="xtick_3">
     <g id="line2d_3">
      <g>
       <use style="stroke:#000000;stroke-width:0.8;" x="318.53319" xlink:href="#m0ba8f49713" y="384.48"/>
      </g>
     </g>
     <g id="text_3">
      <!-- 500 -->
      <g transform="translate(308.98944 399.078438)scale(0.1 -0.1)">
       <use xlink:href="#DejaVuSans-53"/>
       <use x="63.623047" xlink:href="#DejaVuSans-48"/>
       <use x="127.246094" xlink:href="#DejaVuSans-48"/>
      </g>
     </g>
    </g>
    <g id="xtick_4">
     <g id="line2d_4">
      <g>
       <use style="stroke:#000000;stroke-width:0.8;" x="408.581603" xlink:href="#m0ba8f49713" y="384.48"/>
      </g>
     </g>
     <g id="text_4">
      <!-- 750 -->
      <defs>
       <path d="M 8.203125 72.90625 
L 55.078125 72.90625 
L 55.078125 68.703125 
L 28.609375 0 
L 18.3125 0 
L 43.21875 64.59375 
L 8.203125 64.59375 
z
" id="DejaVuSans-55"/>
      </defs>
      <g transform="translate(399.037853 399.078438)scale(0.1 -0.1)">
       <use xlink:href="#DejaVuSans-55"/>
       <use x="63.623047" xlink:href="#DejaVuSans-53"/>
       <use x="127.246094" xlink:href="#DejaVuSans-48"/>
      </g>
     </g>
    </g>
    <g id="xtick_5">
     <g id="line2d_5">
      <g>
       <use style="stroke:#000000;stroke-width:0.8;" x="498.630016" xlink:href="#m0ba8f49713" y="384.48"/>
      </g>
     </g>
     <g id="text_5">
      <!-- 1000 -->
      <defs>
       <path d="M 12.40625 8.296875 
L 28.515625 8.296875 
L 28.515625 63.921875 
L 10.984375 60.40625 
L 10.984375 69.390625 
L 28.421875 72.90625 
L 38.28125 72.90625 
L 38.28125 8.296875 
L 54.390625 8.296875 
L 54.390625 0 
L 12.40625 0 
z
" id="DejaVuSans-49"/>
      </defs>
      <g transform="translate(485.905016 399.078438)scale(0.1 -0.1)">
       <use xlink:href="#DejaVuSans-49"/>
       <use x="63.623047" xlink:href="#DejaVuSans-48"/>
       <use x="127.246094" xlink:href="#DejaVuSans-48"/>
       <use x="190.869141" xlink:href="#DejaVuSans-48"/>
      </g>
     </g>
    </g>
    <g id="xtick_6">
     <g id="line2d_6">
      <g>
       <use style="stroke:#000000;stroke-width:0.8;" x="588.678429" xlink:href="#m0ba8f49713" y="384.48"/>
      </g>
     </g>
     <g id="text_6">
      <!-- 1250 -->
      <g transform="translate(575.953429 399.078438)scale(0.1 -0.1)">
       <use xlink:href="#DejaVuSans-49"/>
       <use x="63.623047" xlink:href="#DejaVuSans-50"/>
       <use x="127.246094" xlink:href="#DejaVuSans-53"/>
       <use x="190.869141" xlink:href="#DejaVuSans-48"/>
      </g>
     </g>
    </g>
    <g id="xtick_7">
     <g id="line2d_7">
      <g>
       <use style="stroke:#000000;stroke-width:0.8;" x="678.726842" xlink:href="#m0ba8f49713" y="384.48"/>
      </g>
     </g>
     <g id="text_7">
      <!-- 1500 -->
      <g transform="translate(666.001842 399.078438)scale(0.1 -0.1)">
       <use xlink:href="#DejaVuSans-49"/>
       <use x="63.623047" xlink:href="#DejaVuSans-53"/>
       <use x="127.246094" xlink:href="#DejaVuSans-48"/>
       <use x="190.869141" xlink:href="#DejaVuSans-48"/>
      </g>
     </g>
    </g>
    <g id="xtick_8">
     <g id="line2d_8">
      <g>
       <use style="stroke:#000000;stroke-width:0.8;" x="768.775256" xlink:href="#m0ba8f49713" y="384.48"/>
      </g>
     </g>
     <g id="text_8">
      <!-- 1750 -->
      <g transform="translate(756.050256 399.078438)scale(0.1 -0.1)">
       <use xlink:href="#DejaVuSans-49"/>
       <use x="63.623047" xlink:href="#DejaVuSans-55"/>
       <use x="127.246094" xlink:href="#DejaVuSans-53"/>
       <use x="190.869141" xlink:href="#DejaVuSans-48"/>
      </g>
     </g>
    </g>
    <g id="text_9">
     <!-- Timestamp -->
     <defs>
      <path d="M -0.296875 72.90625 
L 61.375 72.90625 
L 61.375 64.59375 
L 35.5 64.59375 
L 35.5 0 
L 25.59375 0 
L 25.59375 64.59375 
L -0.296875 64.59375 
z
" id="DejaVuSans-84"/>
      <path d="M 9.421875 54.6875 
L 18.40625 54.6875 
L 18.40625 0 
L 9.421875 0 
z
M 9.421875 75.984375 
L 18.40625 75.984375 
L 18.40625 64.59375 
L 9.421875 64.59375 
z
" id="DejaVuSans-105"/>
      <path d="M 52 44.1875 
Q 55.375 50.25 60.0625 53.125 
Q 64.75 56 71.09375 56 
Q 79.640625 56 84.28125 50.015625 
Q 88.921875 44.046875 88.921875 33.015625 
L 88.921875 0 
L 79.890625 0 
L 79.890625 32.71875 
Q 79.890625 40.578125 77.09375 44.375 
Q 74.3125 48.1875 68.609375 48.1875 
Q 61.625 48.1875 57.5625 43.546875 
Q 53.515625 38.921875 53.515625 30.90625 
L 53.515625 0 
L 44.484375 0 
L 44.484375 32.71875 
Q 44.484375 40.625 41.703125 44.40625 
Q 38.921875 48.1875 33.109375 48.1875 
Q 26.21875 48.1875 22.15625 43.53125 
Q 18.109375 38.875 18.109375 30.90625 
L 18.109375 0 
L 9.078125 0 
L 9.078125 54.6875 
L 18.109375 54.6875 
L 18.109375 46.1875 
Q 21.1875 51.21875 25.484375 53.609375 
Q 29.78125 56 35.6875 56 
Q 41.65625 56 45.828125 52.96875 
Q 50 49.953125 52 44.1875 
z
" id="DejaVuSans-109"/>
      <path d="M 56.203125 29.59375 
L 56.203125 25.203125 
L 14.890625 25.203125 
Q 15.484375 15.921875 20.484375 11.0625 
Q 25.484375 6.203125 34.421875 6.203125 
Q 39.59375 6.203125 44.453125 7.46875 
Q 49.3125 8.734375 54.109375 11.28125 
L 54.109375 2.78125 
Q 49.265625 0.734375 44.1875 -0.34375 
Q 39.109375 -1.421875 33.890625 -1.421875 
Q 20.796875 -1.421875 13.15625 6.1875 
Q 5.515625 13.8125 5.515625 26.8125 
Q 5.515625 40.234375 12.765625 48.109375 
Q 20.015625 56 32.328125 56 
Q 43.359375 56 49.78125 48.890625 
Q 56.203125 41.796875 56.203125 29.59375 
z
M 47.21875 32.234375 
Q 47.125 39.59375 43.09375 43.984375 
Q 39.0625 48.390625 32.421875 48.390625 
Q 24.90625 48.390625 20.390625 44.140625 
Q 15.875 39.890625 15.1875 32.171875 
z
" id="DejaVuSans-101"/>
      <path d="M 44.28125 53.078125 
L 44.28125 44.578125 
Q 40.484375 46.53125 36.375 47.5 
Q 32.28125 48.484375 27.875 48.484375 
Q 21.1875 48.484375 17.84375 46.4375 
Q 14.5 44.390625 14.5 40.28125 
Q 14.5 37.15625 16.890625 35.375 
Q 19.28125 33.59375 26.515625 31.984375 
L 29.59375 31.296875 
Q 39.15625 29.25 43.1875 25.515625 
Q 47.21875 21.78125 47.21875 15.09375 
Q 47.21875 7.46875 41.1875 3.015625 
Q 35.15625 -1.421875 24.609375 -1.421875 
Q 20.21875 -1.421875 15.453125 -0.5625 
Q 10.6875 0.296875 5.421875 2 
L 5.421875 11.28125 
Q 10.40625 8.6875 15.234375 7.390625 
Q 20.0625 6.109375 24.8125 6.109375 
Q 31.15625 6.109375 34.5625 8.28125 
Q 37.984375 10.453125 37.984375 14.40625 
Q 37.984375 18.0625 35.515625 20.015625 
Q 33.0625 21.96875 24.703125 23.78125 
L 21.578125 24.515625 
Q 13.234375 26.265625 9.515625 29.90625 
Q 5.8125 33.546875 5.8125 39.890625 
Q 5.8125 47.609375 11.28125 51.796875 
Q 16.75 56 26.8125 56 
Q 31.78125 56 36.171875 55.265625 
Q 40.578125 54.546875 44.28125 53.078125 
z
" id="DejaVuSans-115"/>
      <path d="M 18.3125 70.21875 
L 18.3125 54.6875 
L 36.8125 54.6875 
L 36.8125 47.703125 
L 18.3125 47.703125 
L 18.3125 18.015625 
Q 18.3125 11.328125 20.140625 9.421875 
Q 21.96875 7.515625 27.59375 7.515625 
L 36.8125 7.515625 
L 36.8125 0 
L 27.59375 0 
Q 17.1875 0 13.234375 3.875 
Q 9.28125 7.765625 9.28125 18.015625 
L 9.28125 47.703125 
L 2.6875 47.703125 
L 2.6875 54.6875 
L 9.28125 54.6875 
L 9.28125 70.21875 
z
" id="DejaVuSans-116"/>
      <path d="M 34.28125 27.484375 
Q 23.390625 27.484375 19.1875 25 
Q 14.984375 22.515625 14.984375 16.5 
Q 14.984375 11.71875 18.140625 8.90625 
Q 21.296875 6.109375 26.703125 6.109375 
Q 34.1875 6.109375 38.703125 11.40625 
Q 43.21875 16.703125 43.21875 25.484375 
L 43.21875 27.484375 
z
M 52.203125 31.203125 
L 52.203125 0 
L 43.21875 0 
L 43.21875 8.296875 
Q 40.140625 3.328125 35.546875 0.953125 
Q 30.953125 -1.421875 24.3125 -1.421875 
Q 15.921875 -1.421875 10.953125 3.296875 
Q 6 8.015625 6 15.921875 
Q 6 25.140625 12.171875 29.828125 
Q 18.359375 34.515625 30.609375 34.515625 
L 43.21875 34.515625 
L 43.21875 35.40625 
Q 43.21875 41.609375 39.140625 45 
Q 35.0625 48.390625 27.6875 48.390625 
Q 23 48.390625 18.546875 47.265625 
Q 14.109375 46.140625 10.015625 43.890625 
L 10.015625 52.203125 
Q 14.9375 54.109375 19.578125 55.046875 
Q 24.21875 56 28.609375 56 
Q 40.484375 56 46.34375 49.84375 
Q 52.203125 43.703125 52.203125 31.203125 
z
" id="DejaVuSans-97"/>
      <path d="M 18.109375 8.203125 
L 18.109375 -20.796875 
L 9.078125 -20.796875 
L 9.078125 54.6875 
L 18.109375 54.6875 
L 18.109375 46.390625 
Q 20.953125 51.265625 25.265625 53.625 
Q 29.59375 56 35.59375 56 
Q 45.5625 56 51.78125 48.09375 
Q 58.015625 40.1875 58.015625 27.296875 
Q 58.015625 14.40625 51.78125 6.484375 
Q 45.5625 -1.421875 35.59375 -1.421875 
Q 29.59375 -1.421875 25.265625 0.953125 
Q 20.953125 3.328125 18.109375 8.203125 
z
M 48.6875 27.296875 
Q 48.6875 37.203125 44.609375 42.84375 
Q 40.53125 48.484375 33.40625 48.484375 
Q 26.265625 48.484375 22.1875 42.84375 
Q 18.109375 37.203125 18.109375 27.296875 
Q 18.109375 17.390625 22.1875 11.75 
Q 26.265625 6.109375 33.40625 6.109375 
Q 40.53125 6.109375 44.609375 11.75 
Q 48.6875 17.390625 48.6875 27.296875 
z
" id="DejaVuSans-112"/>
     </defs>
     <g transform="translate(414.739062 412.756563)scale(0.1 -0.1)">
      <use xlink:href="#DejaVuSans-84"/>
      <use x="61.037109" xlink:href="#DejaVuSans-105"/>
      <use x="88.820312" xlink:href="#DejaVuSans-109"/>
      <use x="186.232422" xlink:href="#DejaVuSans-101"/>
      <use x="247.755859" xlink:href="#DejaVuSans-115"/>
      <use x="299.855469" xlink:href="#DejaVuSans-116"/>
      <use x="339.064453" xlink:href="#DejaVuSans-97"/>
      <use x="400.34375" xlink:href="#DejaVuSans-109"/>
      <use x="497.755859" xlink:href="#DejaVuSans-112"/>
     </g>
    </g>
   </g>
   <g id="matplotlib.axis_2">
    <g id="ytick_1">
     <g id="line2d_9">
      <defs>
       <path d="M 0 0 
L -3.5 0 
" id="m1f742fdca5" style="stroke:#000000;stroke-width:0.8;"/>
      </defs>
      <g>
       <use style="stroke:#000000;stroke-width:0.8;" x="108" xlink:href="#m1f742fdca5" y="338.120778"/>
      </g>
     </g>
     <g id="text_10">
      <!-- 0 -->
      <g transform="translate(94.6375 341.919997)scale(0.1 -0.1)">
       <use xlink:href="#DejaVuSans-48"/>
      </g>
     </g>
    </g>
    <g id="ytick_2">
     <g id="line2d_10">
      <g>
       <use style="stroke:#000000;stroke-width:0.8;" x="108" xlink:href="#m1f742fdca5" y="274.633364"/>
      </g>
     </g>
     <g id="text_11">
      <!-- 500 -->
      <g transform="translate(81.9125 278.432582)scale(0.1 -0.1)">
       <use xlink:href="#DejaVuSans-53"/>
       <use x="63.623047" xlink:href="#DejaVuSans-48"/>
       <use x="127.246094" xlink:href="#DejaVuSans-48"/>
      </g>
     </g>
    </g>
    <g id="ytick_3">
     <g id="line2d_11">
      <g>
       <use style="stroke:#000000;stroke-width:0.8;" x="108" xlink:href="#m1f742fdca5" y="211.145949"/>
      </g>
     </g>
     <g id="text_12">
      <!-- 1000 -->
      <g transform="translate(75.55 214.945168)scale(0.1 -0.1)">
       <use xlink:href="#DejaVuSans-49"/>
       <use x="63.623047" xlink:href="#DejaVuSans-48"/>
       <use x="127.246094" xlink:href="#DejaVuSans-48"/>
       <use x="190.869141" xlink:href="#DejaVuSans-48"/>
      </g>
     </g>
    </g>
    <g id="ytick_4">
     <g id="line2d_12">
      <g>
       <use style="stroke:#000000;stroke-width:0.8;" x="108" xlink:href="#m1f742fdca5" y="147.658534"/>
      </g>
     </g>
     <g id="text_13">
      <!-- 1500 -->
      <g transform="translate(75.55 151.457753)scale(0.1 -0.1)">
       <use xlink:href="#DejaVuSans-49"/>
       <use x="63.623047" xlink:href="#DejaVuSans-53"/>
       <use x="127.246094" xlink:href="#DejaVuSans-48"/>
       <use x="190.869141" xlink:href="#DejaVuSans-48"/>
      </g>
     </g>
    </g>
    <g id="ytick_5">
     <g id="line2d_13">
      <g>
       <use style="stroke:#000000;stroke-width:0.8;" x="108" xlink:href="#m1f742fdca5" y="84.171119"/>
      </g>
     </g>
     <g id="text_14">
      <!-- 2000 -->
      <g transform="translate(75.55 87.970338)scale(0.1 -0.1)">
       <use xlink:href="#DejaVuSans-50"/>
       <use x="63.623047" xlink:href="#DejaVuSans-48"/>
       <use x="127.246094" xlink:href="#DejaVuSans-48"/>
       <use x="190.869141" xlink:href="#DejaVuSans-48"/>
      </g>
     </g>
    </g>
    <g id="text_15">
     <!-- Value -->
     <defs>
      <path d="M 28.609375 0 
L 0.78125 72.90625 
L 11.078125 72.90625 
L 34.1875 11.53125 
L 57.328125 72.90625 
L 67.578125 72.90625 
L 39.796875 0 
z
" id="DejaVuSans-86"/>
      <path d="M 9.421875 75.984375 
L 18.40625 75.984375 
L 18.40625 0 
L 9.421875 0 
z
" id="DejaVuSans-108"/>
      <path d="M 8.5 21.578125 
L 8.5 54.6875 
L 17.484375 54.6875 
L 17.484375 21.921875 
Q 17.484375 14.15625 20.5 10.265625 
Q 23.53125 6.390625 29.59375 6.390625 
Q 36.859375 6.390625 41.078125 11.03125 
Q 45.3125 15.671875 45.3125 23.6875 
L 45.3125 54.6875 
L 54.296875 54.6875 
L 54.296875 0 
L 45.3125 0 
L 45.3125 8.40625 
Q 42.046875 3.421875 37.71875 1 
Q 33.40625 -1.421875 27.6875 -1.421875 
Q 18.265625 -1.421875 13.375 4.4375 
Q 8.5 10.296875 8.5 21.578125 
z
M 31.109375 56 
z
" id="DejaVuSans-117"/>
     </defs>
     <g transform="translate(69.470312 232.273281)rotate(-90)scale(0.1 -0.1)">
      <use xlink:href="#DejaVuSans-86"/>
      <use x="68.298828" xlink:href="#DejaVuSans-97"/>
      <use x="129.578125" xlink:href="#DejaVuSans-108"/>
      <use x="157.361328" xlink:href="#DejaVuSans-117"/>
      <use x="220.740234" xlink:href="#DejaVuSans-101"/>
     </g>
    </g>
   </g>
   <g id="line2d_14">
    <path clip-path="url(#pba2a1eb828)" d="M 138.436364 338.082218 
L 139.156751 309.643419 
L 139.516945 301.94542 
L 139.877138 301.256599 
L 140.237332 306.171665 
L 141.678107 339.512768 
L 142.0383 339.624121 
L 142.398494 336.547012 
L 143.118881 325.231153 
L 143.479075 321.636759 
L 143.839268 322.414048 
L 144.199462 327.595851 
L 145.640237 360.255543 
L 146.00043 359.781738 
L 146.360624 352.654435 
L 147.081011 324.827642 
L 147.801399 297.052734 
L 148.161592 289.780539 
L 148.521786 288.821246 
L 148.88198 294.067038 
L 150.322754 328.316296 
L 150.682948 329.198374 
L 151.043141 325.860499 
L 152.123722 312.518116 
L 152.483916 312.867586 
L 152.84411 319.349747 
L 154.284884 353.120366 
L 154.645078 353.036272 
L 155.005272 346.18941 
L 155.725659 319.408914 
L 156.446046 292.170398 
L 156.80624 285.379752 
L 157.166434 285.331406 
L 157.526627 290.656799 
L 158.967402 326.62792 
L 159.327595 327.956974 
L 159.687789 324.849463 
L 160.408176 315.206039 
L 160.76837 312.560458 
L 161.128564 314.025753 
L 161.488757 320.130475 
L 161.848951 329.811773 
L 162.209145 288.325364 
L 162.569338 350.441856 
L 162.929532 356.208916 
L 163.289726 355.925931 
L 163.649919 349.636832 
L 164.370307 323.366085 
L 165.090694 296.392348 
L 165.450888 289.945722 
L 165.811081 290.436823 
L 166.171275 296.780041 
L 167.612049 333.228191 
L 167.972243 334.431005 
L 168.332437 331.965126 
L 169.052824 322.295765 
L 169.413018 319.76931 
L 169.773211 321.684172 
L 170.133405 327.717078 
L 171.213986 357.964828 
L 171.57418 364.169242 
L 171.934373 364.284005 
L 172.294567 357.894975 
L 173.014954 331.361759 
L 173.735342 305.09888 
L 174.095535 298.944508 
L 174.455729 298.697072 
L 174.815923 304.342776 
L 176.256697 340.687641 
L 176.616891 342.246861 
L 176.977084 339.464144 
L 177.697472 329.470973 
L 178.057665 326.747162 
L 178.417859 328.538796 
L 178.778053 334.137954 
L 180.218827 369.36 
L 180.579021 369.11189 
L 180.939215 362.610701 
L 181.659602 335.627173 
L 182.379989 308.125778 
L 182.740183 301.683002 
L 183.100377 301.388162 
L 183.46057 306.788985 
L 184.901345 341.793755 
L 185.261538 342.572756 
L 185.621732 339.235004 
L 186.342119 328.731779 
L 186.702313 325.685977 
L 187.062507 325.962592 
L 187.4227 331.818153 
L 188.503281 360.345443 
L 188.863475 365.465717 
L 189.223669 365.013131 
L 189.583862 357.993554 
L 190.30425 330.255603 
L 191.024637 302.376665 
L 191.384831 295.060167 
L 191.745024 293.870862 
L 192.105218 298.655615 
L 193.185799 327.147279 
L 193.545992 332.132429 
L 193.906186 333.207167 
L 194.26638 329.339056 
L 194.986767 318.149322 
L 195.346961 314.9314 
L 195.707154 315.00557 
L 196.067348 320.440697 
L 197.508123 353.36899 
L 197.868316 352.136889 
L 198.22851 345.125471 
L 198.948897 316.529085 
L 199.669285 288.98691 
L 200.029478 280.947674 
L 200.389672 280.243249 
L 200.749866 285.236949 
L 202.19064 318.05233 
L 202.550834 318.465706 
L 202.911027 315.299916 
L 203.631415 303.829457 
L 203.991608 300.342911 
L 204.351802 300.96474 
L 204.711996 306.024851 
L 206.15277 339.269302 
L 206.512964 338.19405 
L 206.873158 331.566148 
L 207.593545 303.554465 
L 208.313932 275.505117 
L 208.674126 268.236876 
L 209.03432 267.520642 
L 209.394513 273.157769 
L 210.835288 307.135459 
L 211.195481 307.979341 
L 211.555675 304.825932 
L 212.276062 293.864891 
L 212.636256 291.00247 
L 212.99645 291.733402 
L 213.356643 297.590561 
L 214.077031 317.209946 
L 214.437224 326.811602 
L 214.797418 331.860449 
L 215.157612 331.236689 
L 215.517805 325.22104 
L 216.238193 298.021789 
L 216.95858 270.848873 
L 217.318774 264.073223 
L 217.678967 263.8927 
L 218.039161 269.343394 
L 219.479935 304.980668 
L 219.840129 306.02161 
L 220.200323 303.794294 
L 220.92071 293.605487 
L 221.280904 291.213945 
L 221.641097 292.302485 
L 222.001291 298.682027 
L 223.442066 334.911181 
L 223.802259 334.596765 
L 224.162453 328.009074 
L 224.522647 316.697107 
L 225.603228 275.189586 
L 225.963421 269.082794 
L 226.323615 269.293137 
L 226.683808 275.194771 
L 227.764389 305.271913 
L 228.124583 311.684671 
L 228.484777 313.369666 
L 228.84497 311.052 
L 229.565358 300.996701 
L 229.925551 298.907977 
L 230.285745 300.580119 
L 230.645939 306.186415 
L 232.086713 342.672284 
L 232.446907 343.006376 
L 232.807101 336.78053 
L 233.527488 309.978677 
L 234.247875 283.893301 
L 234.608069 277.55941 
L 234.968263 277.364422 
L 235.328456 283.200478 
L 236.769231 319.143291 
L 237.129424 320.77878 
L 237.489618 318.123733 
L 238.210005 308.233331 
L 238.570199 305.652427 
L 238.930393 307.220303 
L 239.290586 312.670393 
L 240.731361 347.993067 
L 241.091555 347.8444 
L 241.451748 341.154256 
L 242.172136 314.044197 
L 242.892523 286.957972 
L 243.252717 280.343693 
L 243.61291 279.903421 
L 243.973104 285.141166 
L 245.053685 314.599568 
L 245.413878 319.676698 
L 245.774072 320.995111 
L 246.134266 318.095835 
L 246.854653 307.478875 
L 247.214847 304.143122 
L 247.57504 305.017249 
L 247.935234 310.850469 
L 249.376009 344.591577 
L 249.736202 343.688081 
L 250.096396 336.543851 
L 250.816783 308.669192 
L 251.537171 280.687538 
L 251.897364 273.805623 
L 252.257558 273.122589 
L 252.617751 277.506549 
L 254.058526 311.735882 
L 254.41872 311.909562 
L 254.778913 308.396112 
L 255.499301 296.536651 
L 255.859494 293.486132 
L 256.219688 294.143501 
L 256.579882 299.429603 
L 258.020656 331.58928 
L 258.38085 331.308215 
L 258.741044 323.509098 
L 259.101237 311.222824 
L 260.181818 267.231651 
L 260.542012 259.870707 
L 260.902205 258.855976 
L 261.262399 263.500802 
L 262.34298 291.269291 
L 262.703174 296.329662 
L 263.063367 297.344845 
L 263.423561 294.149334 
L 264.143948 282.843829 
L 264.504142 279.094767 
L 264.864336 280.02794 
L 265.224529 284.928318 
L 266.665304 317.858758 
L 267.025498 317.172801 
L 267.385691 310.125493 
L 268.106079 282.229656 
L 268.826466 254.214613 
L 269.186659 247.183106 
L 269.546853 246.685179 
L 269.907047 251.516869 
L 270.987628 280.008276 
L 271.347821 285.566564 
L 271.708015 286.5418 
L 272.068209 283.515674 
L 272.788596 272.815466 
L 273.14879 269.575694 
L 273.508983 270.906708 
L 273.869177 275.943059 
L 274.949758 305.033728 
L 275.309952 310.786934 
L 275.670145 310.52916 
L 276.030339 303.80507 
L 276.750726 276.761656 
L 277.471114 248.877197 
L 277.831307 242.819444 
L 278.191501 242.339557 
L 278.551694 248.245159 
L 279.992469 283.315783 
L 280.352663 285.099135 
L 280.712856 282.299065 
L 281.433244 272.355333 
L 281.793437 269.920688 
L 282.153631 271.12325 
L 282.513825 277.520162 
L 283.954599 313.180547 
L 284.314793 313.304946 
L 284.674987 307.016521 
L 285.395374 280.588877 
L 286.115761 253.532403 
L 286.475955 247.689722 
L 286.836148 247.565026 
L 287.196342 253.43054 
L 288.276923 284.110409 
L 288.637117 289.654582 
L 288.99731 292.002153 
L 289.357504 289.418432 
L 290.077891 279.797994 
L 290.438085 276.947149 
L 290.798279 279.328956 
L 291.158472 284.915888 
L 292.239053 315.743896 
L 292.599247 321.488312 
L 292.959441 321.495532 
L 293.319634 315.322865 
L 293.679828 304.093679 
L 294.760409 262.611055 
L 295.120602 256.141845 
L 295.480796 256.057567 
L 295.84099 261.84605 
L 297.281764 298.349266 
L 297.641958 299.121488 
L 298.002152 297.044431 
L 298.722539 286.994723 
L 299.082733 284.084483 
L 299.442926 285.568892 
L 299.80312 291.069901 
L 301.243895 327.024227 
L 301.604088 326.465594 
L 301.964282 320.06232 
L 302.684669 292.948255 
L 303.405056 265.845299 
L 303.76525 258.99608 
L 304.125444 258.488271 
L 304.485637 264.177297 
L 305.926412 298.85488 
L 306.286606 299.67464 
L 306.646799 296.789964 
L 307.367187 285.63536 
L 307.72738 283.117659 
L 308.087574 283.578755 
L 308.447768 289.397462 
L 309.888542 322.939434 
L 310.248736 323.016623 
L 310.60893 315.400079 
L 311.329317 287.22621 
L 312.049704 259.175923 
L 312.409898 252.430837 
L 312.770091 251.526677 
L 313.130285 256.169357 
L 314.210866 284.373085 
L 314.57106 289.391825 
L 314.931253 290.138474 
L 315.291447 286.784956 
L 316.372028 272.068626 
L 316.732222 272.636952 
L 317.092415 278.01869 
L 318.53319 310.295598 
L 318.893384 309.82292 
L 319.253577 302.240052 
L 319.973964 273.884455 
L 320.694352 245.285466 
L 321.054545 238.804035 
L 321.414739 237.213791 
L 321.774933 242.118159 
L 322.855514 270.161332 
L 323.215707 275.115863 
L 323.575901 276.198854 
L 323.936095 272.535432 
L 324.656482 260.996807 
L 325.016676 257.558875 
L 325.376869 258.705397 
L 325.737063 263.67782 
L 326.817644 291.473446 
L 327.177838 296.619972 
L 327.538031 295.49318 
L 327.898225 288.425824 
L 328.258419 275.811929 
L 328.618612 208.806454 
L 328.978806 245.019392 
L 329.338999 232.991896 
L 329.699193 225.569594 
L 330.059387 225.029539 
L 330.41958 230.180273 
L 331.139968 249.45127 
L 331.500161 259.121573 
L 331.860355 264.2523 
L 332.220549 265.018066 
L 332.580742 261.990101 
L 333.30113 251.19595 
L 333.661323 248.230909 
L 334.021517 249.712667 
L 334.381711 255.255795 
L 335.822485 289.234872 
L 336.182679 289.155352 
L 336.542873 282.509045 
L 337.26326 254.934949 
L 337.983647 227.804121 
L 338.343841 221.299575 
L 338.704034 221.287092 
L 339.064228 226.753372 
L 340.144809 256.859423 
L 340.505003 262.30693 
L 340.865196 264.150959 
L 341.22539 261.176834 
L 341.945777 251.138945 
L 342.305971 248.630544 
L 342.666165 250.105439 
L 343.026358 256.196969 
L 344.467133 291.881888 
L 344.827327 292.230583 
L 345.18752 285.861216 
L 345.907907 259.289184 
L 346.628295 232.805496 
L 346.988488 226.565181 
L 347.348682 226.444418 
L 347.708876 232.143418 
L 348.789457 262.80626 
L 349.14965 268.830656 
L 349.509844 270.637366 
L 349.870038 268.175044 
L 350.590425 258.530052 
L 350.950619 256.259613 
L 351.310812 257.673302 
L 351.671006 263.894745 
L 353.111781 300.308344 
L 353.471974 300.343869 
L 353.832168 294.047009 
L 354.552555 267.655124 
L 355.272942 240.973243 
L 355.633136 235.000092 
L 355.99333 234.266864 
L 356.353523 240.463547 
L 357.794298 276.570265 
L 358.154492 278.032405 
L 358.514685 275.599649 
L 359.235073 265.537205 
L 359.595266 262.799574 
L 359.95546 264.329877 
L 360.315654 270.199189 
L 361.756428 305.816331 
L 362.116622 305.08514 
L 362.476815 298.432762 
L 363.197203 271.121626 
L 363.91759 244.684172 
L 364.277784 237.620313 
L 364.637977 236.952782 
L 364.998171 243.022104 
L 366.438946 277.705041 
L 366.799139 278.371594 
L 367.159333 275.742814 
L 367.87972 264.775292 
L 368.239914 261.499345 
L 368.600108 262.626133 
L 368.960301 268.318236 
L 370.401076 301.471306 
L 370.761269 300.730028 
L 371.121463 294.187319 
L 371.84185 265.722769 
L 372.562238 237.834451 
L 372.922431 178.740915 
L 373.282625 230.349578 
L 373.642819 234.991818 
L 374.7234 262.967782 
L 375.083593 268.103771 
L 375.443787 269.339491 
L 375.803981 265.839485 
L 376.164174 259.744089 
L 376.524368 202.128951 
L 376.884562 250.842821 
L 377.244755 251.463619 
L 377.604949 256.86948 
L 379.045724 289.307078 
L 379.405917 288.843106 
L 379.766111 281.209288 
L 380.486498 252.551244 
L 381.206885 224.672642 
L 381.567079 216.813597 
L 381.927273 216.269909 
L 382.287466 221.071355 
L 383.368047 249.020347 
L 383.728241 253.868088 
L 384.088435 254.236234 
L 384.448628 251.285347 
L 385.169016 239.18338 
L 385.529209 236.103253 
L 385.889403 237.074566 
L 386.249597 242.077642 
L 387.690371 275.801717 
L 388.050565 274.573619 
L 388.410758 267.335725 
L 389.131146 239.091151 
L 389.851533 211.447002 
L 390.211727 204.100071 
L 390.57192 203.876964 
L 390.932114 209.394512 
L 392.372889 242.832304 
L 392.733082 243.390511 
L 393.093276 240.714826 
L 393.813663 230.082843 
L 394.173857 226.857917 
L 394.534051 227.472726 
L 394.894244 233.374646 
L 395.974825 262.402365 
L 396.335019 268.155184 
L 396.695212 267.912925 
L 397.055406 261.126023 
L 397.775793 233.910128 
L 398.496181 207.086865 
L 398.856374 199.886584 
L 399.216568 199.723874 
L 399.576762 205.239917 
L 400.657343 235.15047 
L 401.017536 241.236871 
L 401.37773 242.308969 
L 401.737924 239.532453 
L 402.458311 230.149674 
L 402.818505 227.258324 
L 403.178698 228.555554 
L 403.538892 234.916937 
L 404.979666 270.61493 
L 405.33986 270.857329 
L 405.700054 264.36774 
L 406.420441 237.962266 
L 407.140828 211.238551 
L 407.501022 205.015116 
L 407.861216 205.036697 
L 408.221409 210.99895 
L 409.662184 247.561263 
L 410.022378 249.455725 
L 410.382571 246.95214 
L 411.102959 237.154122 
L 411.463152 234.980259 
L 411.823346 236.525781 
L 412.18354 242.310552 
L 413.624314 279.328719 
L 413.984508 279.427137 
L 414.344701 272.842495 
L 415.065089 245.891135 
L 415.785476 219.763622 
L 416.14567 212.862682 
L 416.505863 213.580817 
L 416.866057 219.083696 
L 418.306832 255.163134 
L 418.667025 256.795096 
L 419.027219 254.403343 
L 419.747606 244.196894 
L 420.1078 241.233827 
L 420.467994 242.914069 
L 420.828187 249.081854 
L 422.268962 283.887076 
L 422.629155 283.869933 
L 422.989349 277.351436 
L 423.709736 250.437009 
L 424.430124 223.299659 
L 424.790317 215.970389 
L 425.150511 215.978285 
L 425.510705 220.964849 
L 426.951479 255.937124 
L 427.311673 256.836937 
L 427.671867 254.182344 
L 428.392254 243.283164 
L 428.752448 240.248932 
L 429.112641 240.935742 
L 429.472835 246.174054 
L 430.553416 275.356577 
L 430.913609 280.365062 
L 431.273803 279.844471 
L 431.633997 272.34447 
L 432.354384 244.737514 
L 433.074771 216.08072 
L 433.434965 209.445583 
L 433.795159 208.466865 
L 434.155352 213.628279 
L 435.596127 247.28344 
L 435.956321 247.294583 
L 436.316514 244.490698 
L 437.036902 233.088665 
L 437.397095 229.380214 
L 437.757289 229.732414 
L 438.117483 235.212617 
L 439.558257 267.803975 
L 439.918451 267.419756 
L 440.278644 259.674333 
L 440.999032 231.115959 
L 441.719419 203.195 
L 442.079613 195.495895 
L 442.439806 194.824882 
L 442.8 199.454031 
L 443.880581 227.484653 
L 444.240775 232.432639 
L 444.600968 233.411357 
L 444.961162 230.280368 
L 445.681549 218.48003 
L 446.041743 214.961729 
L 446.401937 215.983335 
L 446.76213 220.899376 
L 447.842711 248.863254 
L 448.202905 253.862106 
L 448.563098 253.08534 
L 448.923292 246.079393 
L 449.643679 218.011044 
L 450.364067 190.425431 
L 450.72426 182.933135 
L 451.084454 181.983563 
L 451.444648 187.569924 
L 452.885422 221.385377 
L 453.245616 222.464891 
L 453.60581 219.23244 
L 454.326197 208.603609 
L 454.686391 205.8319 
L 455.046584 206.81343 
L 455.406778 212.242382 
L 456.487359 241.178842 
L 456.847552 246.20198 
L 457.207746 246.294898 
L 457.56794 240.040936 
L 458.288327 212.277121 
L 459.008714 185.925703 
L 459.368908 178.92799 
L 459.729102 178.382941 
L 460.089295 183.435895 
L 461.53007 219.90391 
L 461.890264 221.128797 
L 462.250457 218.701032 
L 462.970845 208.249477 
L 463.331038 206.054545 
L 463.691232 207.259892 
L 464.051425 213.103229 
L 465.4922 249.347992 
L 465.852394 249.470128 
L 466.212587 242.88244 
L 466.932975 216.410566 
L 467.653362 190.671687 
L 468.013556 183.724531 
L 468.373749 131.841219 
L 468.733943 189.811329 
L 470.174718 226.478584 
L 470.534911 227.973845 
L 470.895105 225.510705 
L 471.615492 215.938226 
L 471.975686 213.637761 
L 472.33588 214.688431 
L 472.696073 221.064014 
L 473.776654 251.581949 
L 474.136848 257.53067 
L 474.497041 257.378548 
L 474.857235 251.360536 
L 475.577622 224.884043 
L 476.29801 197.980773 
L 476.658203 192.010685 
L 477.018397 192.213397 
L 477.378591 197.500224 
L 478.459172 227.862274 
L 478.819365 233.697061 
L 479.179559 235.436374 
L 479.539753 232.49708 
L 480.26014 222.634883 
L 480.620334 220.084908 
L 480.980527 221.741283 
L 481.340721 227.444094 
L 482.061108 247.620494 
L 482.421302 257.603125 
L 482.781495 262.684117 
L 483.141689 262.629109 
L 483.501883 256.314693 
L 484.22227 229.028642 
L 484.942657 201.69182 
L 485.302851 194.851076 
L 485.663045 194.814306 
L 486.023238 199.608142 
L 487.103819 229.381751 
L 487.464013 234.618731 
L 487.824207 235.505672 
L 488.1844 232.818068 
L 488.904788 222.21459 
L 489.264981 218.961827 
L 489.625175 219.993521 
L 489.985368 225.71518 
L 490.705756 244.893306 
L 491.065949 253.65378 
L 491.426143 259.057629 
L 491.786337 258.247654 
L 492.14653 250.956062 
L 492.866918 223.428973 
L 493.587305 195.162216 
L 493.947499 188.327069 
L 494.307692 187.599689 
L 494.667886 192.580751 
L 496.108661 225.524362 
L 496.468854 226.589228 
L 496.829048 222.771424 
L 497.549435 211.32065 
L 497.909629 208.396638 
L 498.269822 208.896074 
L 498.630016 214.337315 
L 500.070791 246.549792 
L 500.430984 245.709032 
L 500.791178 238.177475 
L 501.511565 209.92438 
L 502.231953 181.793246 
L 502.592146 174.26416 
L 502.95234 173.08565 
L 503.312534 178.605335 
L 504.393115 206.239638 
L 504.753308 210.949298 
L 505.113502 211.899779 
L 505.473696 208.602783 
L 506.194083 197.219656 
L 506.554276 193.895013 
L 506.91447 194.717861 
L 507.274664 199.22651 
L 508.355245 227.384248 
L 508.715438 232.737356 
L 509.075632 231.882292 
L 509.435826 224.711463 
L 509.796019 212.605111 
L 510.8766 168.462264 
L 511.236794 161.862449 
L 511.596988 161.116751 
L 511.957181 166.019398 
L 513.037762 194.461997 
L 513.397956 200.495638 
L 513.75815 200.598473 
L 514.118343 198.283745 
L 514.838731 187.102295 
L 515.198924 184.7146 
L 515.559118 185.112362 
L 515.919311 191.077867 
L 516.279505 199.778157 
L 516.999892 219.943075 
L 517.360086 225.700638 
L 517.72028 225.130651 
L 518.080473 218.087807 
L 518.800861 191.258893 
L 519.521248 163.735378 
L 519.881442 157.338479 
L 520.241635 156.995421 
L 520.601829 214.745603 
L 520.962023 172.034141 
L 521.68241 192.122083 
L 522.042604 198.765296 
L 522.402797 200.140408 
L 522.762991 196.837964 
L 523.483378 187.091553 
L 523.843572 184.067942 
L 524.203765 186.106075 
L 524.563959 191.731533 
L 525.64454 222.191506 
L 526.004734 228.128657 
L 526.364927 228.41905 
L 526.725121 221.630818 
L 527.445508 195.25052 
L 528.165896 168.694706 
L 528.526089 162.482215 
L 528.886283 162.548112 
L 529.246477 168.217131 
L 530.687251 204.622744 
L 531.047445 206.577639 
L 531.407639 204.219341 
L 532.488219 191.851387 
L 532.848413 193.800023 
L 533.208607 199.971104 
L 534.649381 236.212379 
L 535.009575 236.624148 
L 535.369769 229.903179 
L 536.090156 203.286561 
L 536.810543 177.046024 
L 537.170737 170.03333 
L 537.530931 170.502001 
L 537.891124 176.586017 
L 539.331899 212.339571 
L 539.692093 214.061903 
L 540.052286 211.516691 
L 540.772673 201.499184 
L 541.132867 198.905738 
L 541.493061 200.412469 
L 541.853254 205.932518 
L 542.933835 236.31838 
L 543.294029 241.531478 
L 543.654223 241.225876 
L 544.014416 234.513242 
L 544.734804 207.397563 
L 545.455191 180.602983 
L 545.815385 173.624801 
L 546.175578 173.164341 
L 546.535772 178.42369 
L 547.976547 213.407256 
L 548.33674 214.511623 
L 548.696934 211.163936 
L 549.417321 200.52177 
L 549.777515 197.654822 
L 550.137708 198.516508 
L 550.497902 204.142695 
L 551.938677 237.887303 
L 552.29887 236.47859 
L 552.659064 230.130162 
L 553.379451 201.855586 
L 554.099839 173.93549 
L 554.460032 167.067441 
L 554.820226 165.789587 
L 555.18042 170.889679 
L 556.261001 199.686639 
L 556.621194 204.103787 
L 556.981388 205.217837 
L 557.341581 201.905934 
L 558.061969 190.525914 
L 558.422162 186.768947 
L 558.782356 187.692494 
L 559.14255 192.65683 
L 560.223131 220.009875 
L 560.583324 225.254225 
L 560.943518 223.908852 
L 561.303712 217.300617 
L 562.024099 188.786842 
L 562.744486 159.958743 
L 563.10468 153.101498 
L 563.464874 152.607716 
L 563.825067 157.198041 
L 565.265842 190.089427 
L 565.626036 190.803152 
L 565.986229 186.960665 
L 566.706616 175.443373 
L 567.06681 172.48158 
L 567.427004 172.883418 
L 567.787197 177.964914 
L 569.227972 210.879945 
L 569.588166 210.361135 
L 569.948359 203.241573 
L 570.668747 176.045637 
L 571.389134 147.567746 
L 571.749328 140.46605 
L 572.109521 139.922638 
L 572.469715 144.366842 
L 573.550296 173.316647 
L 573.91049 178.91058 
L 574.270683 179.68267 
L 574.630877 176.587472 
L 575.351264 166.183945 
L 575.711458 163.168668 
L 576.071651 163.965005 
L 576.431845 169.320414 
L 577.87262 203.665731 
L 578.232813 203.794369 
L 578.593007 196.857653 
L 578.953201 185.202053 
L 580.033782 142.63612 
L 580.393975 136.021474 
L 580.754169 135.650045 
L 581.114363 141.482684 
L 582.194944 171.15151 
L 582.555137 177.024671 
L 582.915331 178.709958 
L 583.275524 175.731011 
L 583.995912 165.815461 
L 584.356105 163.320406 
L 584.716299 164.72221 
L 585.076493 171.11502 
L 585.79688 190.869383 
L 586.157074 200.710203 
L 586.517267 206.932097 
L 586.877461 206.618325 
L 587.237655 252.441975 
L 587.597848 188.536147 
L 588.678429 147.229621 
L 589.038623 141.051269 
L 589.398817 141.522007 
L 589.75901 147.067425 
L 591.199785 183.591092 
L 591.559978 185.306013 
L 591.920172 183.023253 
L 592.640559 173.162892 
L 593.000753 170.459793 
L 593.360947 171.930153 
L 593.72114 178.330124 
L 595.161915 215.032927 
L 595.522109 214.897519 
L 595.882302 208.761497 
L 596.60269 182.443864 
L 597.323077 156.109292 
L 597.683271 149.304186 
L 598.043464 149.433982 
L 598.403658 154.845701 
L 599.484239 186.087755 
L 599.844432 191.119714 
L 600.204626 192.857752 
L 600.56482 190.134281 
L 601.645401 177.505835 
L 602.005594 178.819607 
L 602.365788 184.825442 
L 603.806563 220.415888 
L 604.166756 219.842771 
L 604.52695 212.850272 
L 604.887144 201.476407 
L 605.967725 159.420177 
L 606.327918 152.470636 
L 606.688112 151.819119 
L 607.048306 157.893557 
L 608.48908 191.955852 
L 608.849274 192.962054 
L 609.209467 189.927072 
L 609.929855 179.478505 
L 610.290048 176.729056 
L 610.650242 177.464313 
L 611.010436 182.284931 
L 612.091017 211.0307 
L 612.45121 216.096365 
L 612.811404 215.420906 
L 613.171598 208.027902 
L 613.891985 180.873265 
L 614.612372 152.571999 
L 614.972566 145.48739 
L 615.33276 144.742084 
L 615.692953 150.020894 
L 616.773534 178.123102 
L 617.133728 182.785057 
L 617.493921 183.867647 
L 617.854115 180.301032 
L 618.574502 168.752583 
L 618.934696 165.08703 
L 619.29489 166.025159 
L 619.655083 171.460119 
L 621.095858 203.925797 
L 621.456052 202.775742 
L 621.816245 195.618294 
L 622.536633 167.565001 
L 623.25702 138.856997 
L 623.617214 131.780415 
L 623.977407 131.134456 
L 624.337601 135.945868 
L 625.778375 168.615778 
L 626.138569 169.338203 
L 626.498763 165.464282 
L 627.21915 154.25934 
L 627.579344 151.499818 
L 627.939537 151.52438 
L 628.299731 157.002616 
L 629.740506 190.106096 
L 630.100699 189.302922 
L 630.460893 181.915382 
L 630.821087 169.963105 
L 631.901668 126.168488 
L 632.261861 119.446486 
L 632.622055 118.339472 
L 632.982249 123.490342 
L 634.423023 157.360935 
L 634.783217 158.125868 
L 635.14341 155.535666 
L 636.223991 141.479834 
L 636.584185 142.534997 
L 636.944379 148.475395 
L 638.385153 182.651299 
L 638.745347 182.746793 
L 639.105541 176.275242 
L 639.825928 148.339699 
L 640.546315 121.040039 
L 640.906509 114.834253 
L 641.266703 114.490657 
L 641.626896 119.807159 
L 643.067671 155.830126 
L 643.427864 157.027756 
L 643.788058 154.630058 
L 644.508445 144.721521 
L 644.868639 141.825242 
L 645.228833 143.321376 
L 645.589026 149.488649 
L 647.029801 185.530341 
L 647.389995 184.798737 
L 647.750188 178.700171 
L 648.470576 152.63535 
L 649.190963 125.923873 
L 649.551157 119.742423 
L 649.91135 119.465905 
L 650.271544 125.801551 
L 651.712318 162.311665 
L 652.072512 164.186301 
L 652.432706 161.464237 
L 653.153093 151.841499 
L 653.513287 149.54151 
L 653.87348 151.20248 
L 654.233674 157.116251 
L 655.674449 193.621815 
L 656.034642 193.869304 
L 656.394836 187.207267 
L 657.115223 161.128462 
L 657.835611 134.483445 
L 658.195804 128.254866 
L 658.555998 128.252747 
L 658.916192 133.627998 
L 660.356966 169.865215 
L 660.71716 171.579912 
L 661.077353 169.196898 
L 661.797741 158.972321 
L 662.157934 155.850775 
L 662.518128 157.76717 
L 662.878322 163.688559 
L 663.958903 192.706843 
L 664.319096 198.751488 
L 664.67929 198.336946 
L 665.039484 192.322891 
L 665.759871 164.80474 
L 666.480258 138.082021 
L 666.840452 130.738754 
L 667.200646 130.982139 
L 667.560839 136.017121 
L 669.001614 170.650516 
L 669.361807 171.704872 
L 669.722001 168.455977 
L 670.442388 158.03686 
L 670.802582 154.933382 
L 671.162776 155.787141 
L 671.522969 161.438585 
L 672.963744 195.495377 
L 673.323938 194.410805 
L 673.684131 187.244346 
L 674.404519 159.00141 
L 675.124906 131.364786 
L 675.4851 124.049208 
L 675.845293 123.405722 
L 676.205487 128.827047 
L 676.56568 137.195725 
L 676.925874 95.447109 
L 677.286068 156.179476 
L 677.646261 161.25277 
L 678.006455 162.28618 
L 678.366649 158.890914 
L 679.087036 147.582752 
L 679.44723 144.102138 
L 679.807423 144.87012 
L 680.167617 150.157259 
L 680.888004 168.762948 
L 681.248198 178.014011 
L 681.608392 183.001927 
L 681.968585 181.505313 
L 682.328779 174.402812 
L 683.049166 145.920041 
L 683.769554 117.703455 
L 684.129747 110.017527 
L 684.489941 109.320406 
L 684.850134 114.182109 
L 686.290909 146.978406 
L 686.651103 148.10188 
L 687.011296 144.527267 
L 687.731684 133.098032 
L 688.091877 129.540297 
L 688.452071 130.363001 
L 688.812265 135.939722 
L 689.172458 143.745654 
L 689.892846 163.860005 
L 690.253039 168.792079 
L 690.613233 167.93537 
L 690.973427 160.693767 
L 691.693814 132.706011 
L 692.414201 104.769698 
L 692.774395 97.720259 
L 693.134588 96.995549 
L 693.494782 102.231945 
L 694.935557 135.843852 
L 695.29575 137.578161 
L 695.655944 133.906065 
L 696.736525 120.106751 
L 697.096719 121.065159 
L 697.456912 126.446504 
L 698.537493 155.934423 
L 698.897687 161.40701 
L 699.257881 161.025737 
L 699.618074 154.225361 
L 700.338462 126.749591 
L 701.058849 100.11465 
L 701.419042 93.60014 
L 701.779236 92.962747 
L 702.13943 98.541654 
L 702.499623 108.237256 
L 702.859817 66.96 
L 703.220011 128.87345 
L 703.580204 134.543998 
L 703.940398 135.601675 
L 704.300592 133.139646 
L 705.020979 123.371966 
L 705.381173 120.776974 
L 705.741366 121.929856 
L 706.10156 127.815189 
L 707.542335 164.028453 
L 707.902528 164.136424 
L 708.262722 209.926475 
L 708.622916 145.809069 
L 709.703497 104.73459 
L 710.06369 98.470098 
L 710.423884 98.252622 
L 710.784077 104.36472 
L 712.224852 140.790518 
L 712.585046 142.445579 
L 712.945239 140.08969 
L 713.665627 130.869451 
L 714.02582 128.131834 
L 714.386014 129.654475 
L 714.746208 135.990664 
L 716.186982 172.298467 
L 716.547176 172.297514 
L 716.90737 165.734572 
L 717.627757 139.455975 
L 718.348144 113.240666 
L 718.708338 106.152333 
L 719.068531 106.71877 
L 719.428725 112.358817 
L 720.8695 148.353666 
L 721.229693 150.03495 
L 721.589887 147.296557 
L 722.670468 134.856825 
L 723.030662 136.231601 
L 723.390855 141.994377 
L 724.471436 171.887082 
L 724.83163 177.167565 
L 725.191824 177.046431 
L 725.552017 170.410704 
L 726.272405 143.343597 
L 726.992792 115.764415 
L 727.352985 109.850827 
L 727.713179 109.415543 
L 728.073373 114.903699 
L 729.514147 149.439452 
L 729.874341 150.400792 
L 730.234535 147.252399 
L 731.315116 133.318759 
L 731.675309 134.21786 
L 732.035503 139.511466 
L 733.116084 168.011946 
L 733.476278 173.156871 
L 733.836471 173.017901 
L 734.196665 165.576868 
L 734.917052 138.009326 
L 735.637439 110.053632 
L 735.997633 102.950325 
L 736.357827 102.711943 
L 736.71802 107.272083 
L 738.158795 140.249087 
L 738.518989 140.940185 
L 738.879182 137.752968 
L 739.59957 126.328194 
L 739.959763 122.85825 
L 740.319957 123.619314 
L 740.680151 128.637703 
L 742.120925 161.578014 
L 742.481119 160.275707 
L 742.841313 152.817531 
L 743.201506 140.243629 
L 743.201506 140.243629 
" style="fill:none;stroke:#1f77b4;stroke-linecap:square;stroke-width:1.5;"/>
   </g>
   <g id="line2d_15">
    <path clip-path="url(#pba2a1eb828)" d="M 747.163636 384.48 
L 747.163636 51.84 
" style="fill:none;stroke:#808080;stroke-linecap:square;"/>
   </g>
   <g id="patch_115">
    <path d="M 108 384.48 
L 108 51.84 
" style="fill:none;stroke:#000000;stroke-linecap:square;stroke-linejoin:miter;stroke-width:0.8;"/>
   </g>
   <g id="patch_116">
    <path d="M 777.6 384.48 
L 777.6 51.84 
" style="fill:none;stroke:#000000;stroke-linecap:square;stroke-linejoin:miter;stroke-width:0.8;"/>
   </g>
   <g id="patch_117">
    <path d="M 108 384.48 
L 777.6 384.48 
" style="fill:none;stroke:#000000;stroke-linecap:square;stroke-linejoin:miter;stroke-width:0.8;"/>
   </g>
   <g id="patch_118">
    <path d="M 108 51.84 
L 777.6 51.84 
" style="fill:none;stroke:#000000;stroke-linecap:square;stroke-linejoin:miter;stroke-width:0.8;"/>
   </g>
   <g id="text_16">
    <!-- A3Benchmark-TS90.csv -->
    <defs>
     <path d="M 34.1875 63.1875 
L 20.796875 26.90625 
L 47.609375 26.90625 
z
M 28.609375 72.90625 
L 39.796875 72.90625 
L 67.578125 0 
L 57.328125 0 
L 50.6875 18.703125 
L 17.828125 18.703125 
L 11.1875 0 
L 0.78125 0 
z
" id="DejaVuSans-65"/>
     <path d="M 40.578125 39.3125 
Q 47.65625 37.796875 51.625 33 
Q 55.609375 28.21875 55.609375 21.1875 
Q 55.609375 10.40625 48.1875 4.484375 
Q 40.765625 -1.421875 27.09375 -1.421875 
Q 22.515625 -1.421875 17.65625 -0.515625 
Q 12.796875 0.390625 7.625 2.203125 
L 7.625 11.71875 
Q 11.71875 9.328125 16.59375 8.109375 
Q 21.484375 6.890625 26.8125 6.890625 
Q 36.078125 6.890625 40.9375 10.546875 
Q 45.796875 14.203125 45.796875 21.1875 
Q 45.796875 27.640625 41.28125 31.265625 
Q 36.765625 34.90625 28.71875 34.90625 
L 20.21875 34.90625 
L 20.21875 43.015625 
L 29.109375 43.015625 
Q 36.375 43.015625 40.234375 45.921875 
Q 44.09375 48.828125 44.09375 54.296875 
Q 44.09375 59.90625 40.109375 62.90625 
Q 36.140625 65.921875 28.71875 65.921875 
Q 24.65625 65.921875 20.015625 65.03125 
Q 15.375 64.15625 9.8125 62.3125 
L 9.8125 71.09375 
Q 15.4375 72.65625 20.34375 73.4375 
Q 25.25 74.21875 29.59375 74.21875 
Q 40.828125 74.21875 47.359375 69.109375 
Q 53.90625 64.015625 53.90625 55.328125 
Q 53.90625 49.265625 50.4375 45.09375 
Q 46.96875 40.921875 40.578125 39.3125 
z
" id="DejaVuSans-51"/>
     <path d="M 19.671875 34.8125 
L 19.671875 8.109375 
L 35.5 8.109375 
Q 43.453125 8.109375 47.28125 11.40625 
Q 51.125 14.703125 51.125 21.484375 
Q 51.125 28.328125 47.28125 31.5625 
Q 43.453125 34.8125 35.5 34.8125 
z
M 19.671875 64.796875 
L 19.671875 42.828125 
L 34.28125 42.828125 
Q 41.5 42.828125 45.03125 45.53125 
Q 48.578125 48.25 48.578125 53.8125 
Q 48.578125 59.328125 45.03125 62.0625 
Q 41.5 64.796875 34.28125 64.796875 
z
M 9.8125 72.90625 
L 35.015625 72.90625 
Q 46.296875 72.90625 52.390625 68.21875 
Q 58.5 63.53125 58.5 54.890625 
Q 58.5 48.1875 55.375 44.234375 
Q 52.25 40.28125 46.1875 39.3125 
Q 53.46875 37.75 57.5 32.78125 
Q 61.53125 27.828125 61.53125 20.40625 
Q 61.53125 10.640625 54.890625 5.3125 
Q 48.25 0 35.984375 0 
L 9.8125 0 
z
" id="DejaVuSans-66"/>
     <path d="M 54.890625 33.015625 
L 54.890625 0 
L 45.90625 0 
L 45.90625 32.71875 
Q 45.90625 40.484375 42.875 44.328125 
Q 39.84375 48.1875 33.796875 48.1875 
Q 26.515625 48.1875 22.3125 43.546875 
Q 18.109375 38.921875 18.109375 30.90625 
L 18.109375 0 
L 9.078125 0 
L 9.078125 54.6875 
L 18.109375 54.6875 
L 18.109375 46.1875 
Q 21.34375 51.125 25.703125 53.5625 
Q 30.078125 56 35.796875 56 
Q 45.21875 56 50.046875 50.171875 
Q 54.890625 44.34375 54.890625 33.015625 
z
" id="DejaVuSans-110"/>
     <path d="M 48.78125 52.59375 
L 48.78125 44.1875 
Q 44.96875 46.296875 41.140625 47.34375 
Q 37.3125 48.390625 33.40625 48.390625 
Q 24.65625 48.390625 19.8125 42.84375 
Q 14.984375 37.3125 14.984375 27.296875 
Q 14.984375 17.28125 19.8125 11.734375 
Q 24.65625 6.203125 33.40625 6.203125 
Q 37.3125 6.203125 41.140625 7.25 
Q 44.96875 8.296875 48.78125 10.40625 
L 48.78125 2.09375 
Q 45.015625 0.34375 40.984375 -0.53125 
Q 36.96875 -1.421875 32.421875 -1.421875 
Q 20.0625 -1.421875 12.78125 6.34375 
Q 5.515625 14.109375 5.515625 27.296875 
Q 5.515625 40.671875 12.859375 48.328125 
Q 20.21875 56 33.015625 56 
Q 37.15625 56 41.109375 55.140625 
Q 45.0625 54.296875 48.78125 52.59375 
z
" id="DejaVuSans-99"/>
     <path d="M 54.890625 33.015625 
L 54.890625 0 
L 45.90625 0 
L 45.90625 32.71875 
Q 45.90625 40.484375 42.875 44.328125 
Q 39.84375 48.1875 33.796875 48.1875 
Q 26.515625 48.1875 22.3125 43.546875 
Q 18.109375 38.921875 18.109375 30.90625 
L 18.109375 0 
L 9.078125 0 
L 9.078125 75.984375 
L 18.109375 75.984375 
L 18.109375 46.1875 
Q 21.34375 51.125 25.703125 53.5625 
Q 30.078125 56 35.796875 56 
Q 45.21875 56 50.046875 50.171875 
Q 54.890625 44.34375 54.890625 33.015625 
z
" id="DejaVuSans-104"/>
     <path d="M 41.109375 46.296875 
Q 39.59375 47.171875 37.8125 47.578125 
Q 36.03125 48 33.890625 48 
Q 26.265625 48 22.1875 43.046875 
Q 18.109375 38.09375 18.109375 28.8125 
L 18.109375 0 
L 9.078125 0 
L 9.078125 54.6875 
L 18.109375 54.6875 
L 18.109375 46.1875 
Q 20.953125 51.171875 25.484375 53.578125 
Q 30.03125 56 36.53125 56 
Q 37.453125 56 38.578125 55.875 
Q 39.703125 55.765625 41.0625 55.515625 
z
" id="DejaVuSans-114"/>
     <path d="M 9.078125 75.984375 
L 18.109375 75.984375 
L 18.109375 31.109375 
L 44.921875 54.6875 
L 56.390625 54.6875 
L 27.390625 29.109375 
L 57.625 0 
L 45.90625 0 
L 18.109375 26.703125 
L 18.109375 0 
L 9.078125 0 
z
" id="DejaVuSans-107"/>
     <path d="M 4.890625 31.390625 
L 31.203125 31.390625 
L 31.203125 23.390625 
L 4.890625 23.390625 
z
" id="DejaVuSans-45"/>
     <path d="M 53.515625 70.515625 
L 53.515625 60.890625 
Q 47.90625 63.578125 42.921875 64.890625 
Q 37.9375 66.21875 33.296875 66.21875 
Q 25.25 66.21875 20.875 63.09375 
Q 16.5 59.96875 16.5 54.203125 
Q 16.5 49.359375 19.40625 46.890625 
Q 22.3125 44.4375 30.421875 42.921875 
L 36.375 41.703125 
Q 47.40625 39.59375 52.65625 34.296875 
Q 57.90625 29 57.90625 20.125 
Q 57.90625 9.515625 50.796875 4.046875 
Q 43.703125 -1.421875 29.984375 -1.421875 
Q 24.8125 -1.421875 18.96875 -0.25 
Q 13.140625 0.921875 6.890625 3.21875 
L 6.890625 13.375 
Q 12.890625 10.015625 18.65625 8.296875 
Q 24.421875 6.59375 29.984375 6.59375 
Q 38.421875 6.59375 43.015625 9.90625 
Q 47.609375 13.234375 47.609375 19.390625 
Q 47.609375 24.75 44.3125 27.78125 
Q 41.015625 30.8125 33.5 32.328125 
L 27.484375 33.5 
Q 16.453125 35.6875 11.515625 40.375 
Q 6.59375 45.0625 6.59375 53.421875 
Q 6.59375 63.09375 13.40625 68.65625 
Q 20.21875 74.21875 32.171875 74.21875 
Q 37.3125 74.21875 42.625 73.28125 
Q 47.953125 72.359375 53.515625 70.515625 
z
" id="DejaVuSans-83"/>
     <path d="M 10.984375 1.515625 
L 10.984375 10.5 
Q 14.703125 8.734375 18.5 7.8125 
Q 22.3125 6.890625 25.984375 6.890625 
Q 35.75 6.890625 40.890625 13.453125 
Q 46.046875 20.015625 46.78125 33.40625 
Q 43.953125 29.203125 39.59375 26.953125 
Q 35.25 24.703125 29.984375 24.703125 
Q 19.046875 24.703125 12.671875 31.3125 
Q 6.296875 37.9375 6.296875 49.421875 
Q 6.296875 60.640625 12.9375 67.421875 
Q 19.578125 74.21875 30.609375 74.21875 
Q 43.265625 74.21875 49.921875 64.515625 
Q 56.59375 54.828125 56.59375 36.375 
Q 56.59375 19.140625 48.40625 8.859375 
Q 40.234375 -1.421875 26.421875 -1.421875 
Q 22.703125 -1.421875 18.890625 -0.6875 
Q 15.09375 0.046875 10.984375 1.515625 
z
M 30.609375 32.421875 
Q 37.25 32.421875 41.125 36.953125 
Q 45.015625 41.5 45.015625 49.421875 
Q 45.015625 57.28125 41.125 61.84375 
Q 37.25 66.40625 30.609375 66.40625 
Q 23.96875 66.40625 20.09375 61.84375 
Q 16.21875 57.28125 16.21875 49.421875 
Q 16.21875 41.5 20.09375 36.953125 
Q 23.96875 32.421875 30.609375 32.421875 
z
" id="DejaVuSans-57"/>
     <path d="M 10.6875 12.40625 
L 21 12.40625 
L 21 0 
L 10.6875 0 
z
" id="DejaVuSans-46"/>
     <path d="M 2.984375 54.6875 
L 12.5 54.6875 
L 29.59375 8.796875 
L 46.6875 54.6875 
L 56.203125 54.6875 
L 35.6875 0 
L 23.484375 0 
z
" id="DejaVuSans-118"/>
    </defs>
    <g transform="translate(371.555625 45.84)scale(0.12 -0.12)">
     <use xlink:href="#DejaVuSans-65"/>
     <use x="68.408203" xlink:href="#DejaVuSans-51"/>
     <use x="132.03125" xlink:href="#DejaVuSans-66"/>
     <use x="200.634766" xlink:href="#DejaVuSans-101"/>
     <use x="262.158203" xlink:href="#DejaVuSans-110"/>
     <use x="325.537109" xlink:href="#DejaVuSans-99"/>
     <use x="380.517578" xlink:href="#DejaVuSans-104"/>
     <use x="443.896484" xlink:href="#DejaVuSans-109"/>
     <use x="541.308594" xlink:href="#DejaVuSans-97"/>
     <use x="602.587891" xlink:href="#DejaVuSans-114"/>
     <use x="643.701172" xlink:href="#DejaVuSans-107"/>
     <use x="701.611328" xlink:href="#DejaVuSans-45"/>
     <use x="737.554688" xlink:href="#DejaVuSans-84"/>
     <use x="798.638672" xlink:href="#DejaVuSans-83"/>
     <use x="862.115234" xlink:href="#DejaVuSans-57"/>
     <use x="925.738281" xlink:href="#DejaVuSans-48"/>
     <use x="989.361328" xlink:href="#DejaVuSans-46"/>
     <use x="1021.148438" xlink:href="#DejaVuSans-99"/>
     <use x="1076.128906" xlink:href="#DejaVuSans-115"/>
     <use x="1128.228516" xlink:href="#DejaVuSans-118"/>
    </g>
   </g>
   <g id="legend_1">
    <g id="patch_119">
     <path d="M 115 74.518125 
L 174.315625 74.518125 
Q 176.315625 74.518125 176.315625 72.518125 
L 176.315625 58.84 
Q 176.315625 56.84 174.315625 56.84 
L 115 56.84 
Q 113 56.84 113 58.84 
L 113 72.518125 
Q 113 74.518125 115 74.518125 
z
" style="fill:#ffffff;opacity:0.8;stroke:#cccccc;stroke-linejoin:miter;"/>
    </g>
    <g id="line2d_16">
     <path d="M 117 64.938438 
L 137 64.938438 
" style="fill:none;stroke:#1f77b4;stroke-linecap:square;stroke-width:1.5;"/>
    </g>
    <g id="line2d_17"/>
    <g id="text_17">
     <!-- value -->
     <g transform="translate(145 68.438438)scale(0.1 -0.1)">
      <use xlink:href="#DejaVuSans-118"/>
      <use x="59.179688" xlink:href="#DejaVuSans-97"/>
      <use x="120.458984" xlink:href="#DejaVuSans-108"/>
      <use x="148.242188" xlink:href="#DejaVuSans-117"/>
      <use x="211.621094" xlink:href="#DejaVuSans-101"/>
     </g>
    </g>
   </g>
  </g>
 </g>
 <defs>
  <clipPath id="pba2a1eb828">
   <rect height="332.64" width="669.6" x="108" y="51.84"/>
  </clipPath>
 </defs>
</svg>
