<?xml version="1.0" encoding="utf-8" standalone="no"?>
<!DOCTYPE svg PUBLIC "-//W3C//DTD SVG 1.1//EN"
  "http://www.w3.org/Graphics/SVG/1.1/DTD/svg11.dtd">
<!-- Created with matplotlib (https://matplotlib.org/) -->
<svg height="432pt" version="1.1" viewBox="0 0 864 432" width="864pt" xmlns="http://www.w3.org/2000/svg" xmlns:xlink="http://www.w3.org/1999/xlink">
 <defs>
  <style type="text/css">
*{stroke-linecap:butt;stroke-linejoin:round;}
  </style>
 </defs>
 <g id="figure_1">
  <g id="patch_1">
   <path d="M 0 432 
L 864 432 
L 864 0 
L 0 0 
z
" style="fill:#ffffff;"/>
  </g>
  <g id="axes_1">
   <g id="patch_2">
    <path d="M 108 384.48 
L 777.6 384.48 
L 777.6 51.84 
L 108 51.84 
z
" style="fill:#ffffff;"/>
   </g>
   <g id="patch_3">
    <path clip-path="url(#p68b88f177d)" d="M 138.436364 384.48 
L 138.436364 51.84 
L 440.999032 51.84 
L 440.999032 384.48 
z
" style="fill:#0000ff;opacity:0.05;"/>
   </g>
   <g id="patch_4">
    <path clip-path="url(#p68b88f177d)" d="M 440.999032 384.48 
L 440.999032 51.84 
L 747.163636 51.84 
L 747.163636 384.48 
z
" style="fill:#ff0000;opacity:0.08;"/>
   </g>
   <g id="patch_5">
    <path clip-path="url(#p68b88f177d)" d="M 138.436364 384.48 
L 138.436364 51.84 
L 142.0383 51.84 
L 142.0383 384.48 
z
" style="fill:#008000;opacity:0.04;"/>
   </g>
   <g id="patch_6">
    <path clip-path="url(#p68b88f177d)" d="M 145.640237 384.48 
L 145.640237 51.84 
L 149.242173 51.84 
L 149.242173 384.48 
z
" style="fill:#008000;opacity:0.04;"/>
   </g>
   <g id="patch_7">
    <path clip-path="url(#p68b88f177d)" d="M 152.84411 384.48 
L 152.84411 51.84 
L 156.446046 51.84 
L 156.446046 384.48 
z
" style="fill:#008000;opacity:0.04;"/>
   </g>
   <g id="patch_8">
    <path clip-path="url(#p68b88f177d)" d="M 160.047983 384.48 
L 160.047983 51.84 
L 163.649919 51.84 
L 163.649919 384.48 
z
" style="fill:#008000;opacity:0.04;"/>
   </g>
   <g id="patch_9">
    <path clip-path="url(#p68b88f177d)" d="M 167.251856 384.48 
L 167.251856 51.84 
L 170.853792 51.84 
L 170.853792 384.48 
z
" style="fill:#008000;opacity:0.04;"/>
   </g>
   <g id="patch_10">
    <path clip-path="url(#p68b88f177d)" d="M 167.251856 384.48 
L 167.251856 371.1744 
L 170.853792 371.1744 
L 170.853792 384.48 
z
" style="fill:#ffe500;"/>
   </g>
   <g id="patch_11">
    <path clip-path="url(#p68b88f177d)" d="M 174.455729 384.48 
L 174.455729 51.84 
L 178.057665 51.84 
L 178.057665 384.48 
z
" style="fill:#008000;opacity:0.04;"/>
   </g>
   <g id="patch_12">
    <path clip-path="url(#p68b88f177d)" d="M 181.659602 384.48 
L 181.659602 51.84 
L 185.261538 51.84 
L 185.261538 384.48 
z
" style="fill:#008000;opacity:0.04;"/>
   </g>
   <g id="patch_13">
    <path clip-path="url(#p68b88f177d)" d="M 188.863475 384.48 
L 188.863475 51.84 
L 192.465412 51.84 
L 192.465412 384.48 
z
" style="fill:#008000;opacity:0.04;"/>
   </g>
   <g id="patch_14">
    <path clip-path="url(#p68b88f177d)" d="M 196.067348 384.48 
L 196.067348 51.84 
L 199.669285 51.84 
L 199.669285 384.48 
z
" style="fill:#008000;opacity:0.04;"/>
   </g>
   <g id="patch_15">
    <path clip-path="url(#p68b88f177d)" d="M 196.067348 384.48 
L 196.067348 371.1744 
L 199.669285 371.1744 
L 199.669285 384.48 
z
" style="fill:#ffe500;"/>
   </g>
   <g id="patch_16">
    <path clip-path="url(#p68b88f177d)" d="M 203.271221 384.48 
L 203.271221 51.84 
L 206.873158 51.84 
L 206.873158 384.48 
z
" style="fill:#008000;opacity:0.04;"/>
   </g>
   <g id="patch_17">
    <path clip-path="url(#p68b88f177d)" d="M 210.475094 384.48 
L 210.475094 51.84 
L 214.077031 51.84 
L 214.077031 384.48 
z
" style="fill:#008000;opacity:0.04;"/>
   </g>
   <g id="patch_18">
    <path clip-path="url(#p68b88f177d)" d="M 210.475094 384.48 
L 210.475094 371.1744 
L 214.077031 371.1744 
L 214.077031 384.48 
z
" style="fill:#ffe500;"/>
   </g>
   <g id="patch_19">
    <path clip-path="url(#p68b88f177d)" d="M 217.678967 384.48 
L 217.678967 51.84 
L 221.280904 51.84 
L 221.280904 384.48 
z
" style="fill:#008000;opacity:0.04;"/>
   </g>
   <g id="patch_20">
    <path clip-path="url(#p68b88f177d)" d="M 224.88284 384.48 
L 224.88284 51.84 
L 228.484777 51.84 
L 228.484777 384.48 
z
" style="fill:#008000;opacity:0.04;"/>
   </g>
   <g id="patch_21">
    <path clip-path="url(#p68b88f177d)" d="M 232.086713 384.48 
L 232.086713 51.84 
L 235.68865 51.84 
L 235.68865 384.48 
z
" style="fill:#008000;opacity:0.04;"/>
   </g>
   <g id="patch_22">
    <path clip-path="url(#p68b88f177d)" d="M 538.251318 384.48 
L 538.251318 371.1744 
L 541.853254 371.1744 
L 541.853254 384.48 
z
" style="fill:#ff6600;"/>
   </g>
   <g id="patch_23">
    <path clip-path="url(#p68b88f177d)" d="M 239.290586 384.48 
L 239.290586 51.84 
L 242.892523 51.84 
L 242.892523 384.48 
z
" style="fill:#008000;opacity:0.04;"/>
   </g>
   <g id="patch_24">
    <path clip-path="url(#p68b88f177d)" d="M 246.494459 384.48 
L 246.494459 51.84 
L 250.096396 51.84 
L 250.096396 384.48 
z
" style="fill:#008000;opacity:0.04;"/>
   </g>
   <g id="patch_25">
    <path clip-path="url(#p68b88f177d)" d="M 253.698332 384.48 
L 253.698332 51.84 
L 257.300269 51.84 
L 257.300269 384.48 
z
" style="fill:#008000;opacity:0.04;"/>
   </g>
   <g id="patch_26">
    <path clip-path="url(#p68b88f177d)" d="M 260.902205 384.48 
L 260.902205 51.84 
L 264.504142 51.84 
L 264.504142 384.48 
z
" style="fill:#008000;opacity:0.04;"/>
   </g>
   <g id="patch_27">
    <path clip-path="url(#p68b88f177d)" d="M 268.106079 384.48 
L 268.106079 51.84 
L 271.708015 51.84 
L 271.708015 384.48 
z
" style="fill:#008000;opacity:0.04;"/>
   </g>
   <g id="patch_28">
    <path clip-path="url(#p68b88f177d)" d="M 275.309952 384.48 
L 275.309952 51.84 
L 278.911888 51.84 
L 278.911888 384.48 
z
" style="fill:#008000;opacity:0.04;"/>
   </g>
   <g id="patch_29">
    <path clip-path="url(#p68b88f177d)" d="M 282.513825 384.48 
L 282.513825 51.84 
L 286.115761 51.84 
L 286.115761 384.48 
z
" style="fill:#008000;opacity:0.04;"/>
   </g>
   <g id="patch_30">
    <path clip-path="url(#p68b88f177d)" d="M 289.717698 384.48 
L 289.717698 51.84 
L 293.319634 51.84 
L 293.319634 384.48 
z
" style="fill:#008000;opacity:0.04;"/>
   </g>
   <g id="patch_31">
    <path clip-path="url(#p68b88f177d)" d="M 296.921571 384.48 
L 296.921571 51.84 
L 300.523507 51.84 
L 300.523507 384.48 
z
" style="fill:#008000;opacity:0.04;"/>
   </g>
   <g id="patch_32">
    <path clip-path="url(#p68b88f177d)" d="M 300.523507 384.48 
L 300.523507 371.1744 
L 304.125444 371.1744 
L 304.125444 384.48 
z
" style="fill:#ffe500;"/>
   </g>
   <g id="patch_33">
    <path clip-path="url(#p68b88f177d)" d="M 603.086175 384.48 
L 603.086175 371.1744 
L 606.688112 371.1744 
L 606.688112 384.48 
z
" style="fill:#ff6600;"/>
   </g>
   <g id="patch_34">
    <path clip-path="url(#p68b88f177d)" d="M 304.125444 384.48 
L 304.125444 51.84 
L 307.72738 51.84 
L 307.72738 384.48 
z
" style="fill:#008000;opacity:0.04;"/>
   </g>
   <g id="patch_35">
    <path clip-path="url(#p68b88f177d)" d="M 311.329317 384.48 
L 311.329317 51.84 
L 314.931253 51.84 
L 314.931253 384.48 
z
" style="fill:#008000;opacity:0.04;"/>
   </g>
   <g id="patch_36">
    <path clip-path="url(#p68b88f177d)" d="M 318.53319 384.48 
L 318.53319 51.84 
L 322.135126 51.84 
L 322.135126 384.48 
z
" style="fill:#008000;opacity:0.04;"/>
   </g>
   <g id="patch_37">
    <path clip-path="url(#p68b88f177d)" d="M 318.53319 384.48 
L 318.53319 371.1744 
L 322.135126 371.1744 
L 322.135126 384.48 
z
" style="fill:#ffe500;"/>
   </g>
   <g id="patch_38">
    <path clip-path="url(#p68b88f177d)" d="M 325.737063 384.48 
L 325.737063 51.84 
L 329.338999 51.84 
L 329.338999 384.48 
z
" style="fill:#008000;opacity:0.04;"/>
   </g>
   <g id="patch_39">
    <path clip-path="url(#p68b88f177d)" d="M 332.940936 384.48 
L 332.940936 51.84 
L 336.542873 51.84 
L 336.542873 384.48 
z
" style="fill:#008000;opacity:0.04;"/>
   </g>
   <g id="patch_40">
    <path clip-path="url(#p68b88f177d)" d="M 340.144809 384.48 
L 340.144809 51.84 
L 343.746746 51.84 
L 343.746746 384.48 
z
" style="fill:#008000;opacity:0.04;"/>
   </g>
   <g id="patch_41">
    <path clip-path="url(#p68b88f177d)" d="M 340.144809 384.48 
L 340.144809 371.1744 
L 343.746746 371.1744 
L 343.746746 384.48 
z
" style="fill:#ffe500;"/>
   </g>
   <g id="patch_42">
    <path clip-path="url(#p68b88f177d)" d="M 347.348682 384.48 
L 347.348682 51.84 
L 350.950619 51.84 
L 350.950619 384.48 
z
" style="fill:#008000;opacity:0.04;"/>
   </g>
   <g id="patch_43">
    <path clip-path="url(#p68b88f177d)" d="M 354.552555 384.48 
L 354.552555 51.84 
L 358.154492 51.84 
L 358.154492 384.48 
z
" style="fill:#008000;opacity:0.04;"/>
   </g>
   <g id="patch_44">
    <path clip-path="url(#p68b88f177d)" d="M 361.756428 384.48 
L 361.756428 51.84 
L 365.358365 51.84 
L 365.358365 384.48 
z
" style="fill:#008000;opacity:0.04;"/>
   </g>
   <g id="patch_45">
    <path clip-path="url(#p68b88f177d)" d="M 368.960301 384.48 
L 368.960301 51.84 
L 372.562238 51.84 
L 372.562238 384.48 
z
" style="fill:#008000;opacity:0.04;"/>
   </g>
   <g id="patch_46">
    <path clip-path="url(#p68b88f177d)" d="M 376.164174 384.48 
L 376.164174 51.84 
L 379.766111 51.84 
L 379.766111 384.48 
z
" style="fill:#008000;opacity:0.04;"/>
   </g>
   <g id="patch_47">
    <path clip-path="url(#p68b88f177d)" d="M 383.368047 384.48 
L 383.368047 51.84 
L 386.969984 51.84 
L 386.969984 384.48 
z
" style="fill:#008000;opacity:0.04;"/>
   </g>
   <g id="patch_48">
    <path clip-path="url(#p68b88f177d)" d="M 383.368047 384.48 
L 383.368047 371.1744 
L 386.969984 371.1744 
L 386.969984 384.48 
z
" style="fill:#ffe500;"/>
   </g>
   <g id="patch_49">
    <path clip-path="url(#p68b88f177d)" d="M 386.969984 384.48 
L 386.969984 371.1744 
L 390.57192 371.1744 
L 390.57192 384.48 
z
" style="fill:#ffe500;"/>
   </g>
   <g id="patch_50">
    <path clip-path="url(#p68b88f177d)" d="M 390.57192 384.48 
L 390.57192 51.84 
L 394.173857 51.84 
L 394.173857 384.48 
z
" style="fill:#008000;opacity:0.04;"/>
   </g>
   <g id="patch_51">
    <path clip-path="url(#p68b88f177d)" d="M 397.775793 384.48 
L 397.775793 51.84 
L 401.37773 51.84 
L 401.37773 384.48 
z
" style="fill:#008000;opacity:0.04;"/>
   </g>
   <g id="patch_52">
    <path clip-path="url(#p68b88f177d)" d="M 404.979666 384.48 
L 404.979666 51.84 
L 408.581603 51.84 
L 408.581603 384.48 
z
" style="fill:#008000;opacity:0.04;"/>
   </g>
   <g id="patch_53">
    <path clip-path="url(#p68b88f177d)" d="M 412.18354 384.48 
L 412.18354 51.84 
L 415.785476 51.84 
L 415.785476 384.48 
z
" style="fill:#008000;opacity:0.04;"/>
   </g>
   <g id="patch_54">
    <path clip-path="url(#p68b88f177d)" d="M 419.387413 384.48 
L 419.387413 51.84 
L 422.989349 51.84 
L 422.989349 384.48 
z
" style="fill:#008000;opacity:0.04;"/>
   </g>
   <g id="patch_55">
    <path clip-path="url(#p68b88f177d)" d="M 426.591286 384.48 
L 426.591286 51.84 
L 430.193222 51.84 
L 430.193222 384.48 
z
" style="fill:#008000;opacity:0.04;"/>
   </g>
   <g id="patch_56">
    <path clip-path="url(#p68b88f177d)" d="M 433.795159 384.48 
L 433.795159 51.84 
L 437.397095 51.84 
L 437.397095 384.48 
z
" style="fill:#008000;opacity:0.04;"/>
   </g>
   <g id="patch_57">
    <path clip-path="url(#p68b88f177d)" d="M 440.999032 384.48 
L 440.999032 51.84 
L 444.600968 51.84 
L 444.600968 384.48 
z
" style="fill:#008000;opacity:0.04;"/>
   </g>
   <g id="patch_58">
    <path clip-path="url(#p68b88f177d)" d="M 743.5617 384.48 
L 743.5617 371.1744 
L 747.163636 371.1744 
L 747.163636 384.48 
z
" style="fill:#ff6600;"/>
   </g>
   <g id="patch_59">
    <path clip-path="url(#p68b88f177d)" d="M 448.202905 384.48 
L 448.202905 51.84 
L 451.804841 51.84 
L 451.804841 384.48 
z
" style="fill:#008000;opacity:0.04;"/>
   </g>
   <g id="patch_60">
    <path clip-path="url(#p68b88f177d)" d="M 455.406778 384.48 
L 455.406778 51.84 
L 459.008714 51.84 
L 459.008714 384.48 
z
" style="fill:#008000;opacity:0.04;"/>
   </g>
   <g id="patch_61">
    <path clip-path="url(#p68b88f177d)" d="M 462.610651 384.48 
L 462.610651 51.84 
L 466.212587 51.84 
L 466.212587 384.48 
z
" style="fill:#008000;opacity:0.04;"/>
   </g>
   <g id="patch_62">
    <path clip-path="url(#p68b88f177d)" d="M 469.814524 384.48 
L 469.814524 51.84 
L 473.41646 51.84 
L 473.41646 384.48 
z
" style="fill:#008000;opacity:0.04;"/>
   </g>
   <g id="patch_63">
    <path clip-path="url(#p68b88f177d)" d="M 477.018397 384.48 
L 477.018397 51.84 
L 480.620334 51.84 
L 480.620334 384.48 
z
" style="fill:#008000;opacity:0.04;"/>
   </g>
   <g id="patch_64">
    <path clip-path="url(#p68b88f177d)" d="M 484.22227 384.48 
L 484.22227 51.84 
L 487.824207 51.84 
L 487.824207 384.48 
z
" style="fill:#008000;opacity:0.04;"/>
   </g>
   <g id="patch_65">
    <path clip-path="url(#p68b88f177d)" d="M 491.426143 384.48 
L 491.426143 51.84 
L 495.02808 51.84 
L 495.02808 384.48 
z
" style="fill:#008000;opacity:0.04;"/>
   </g>
   <g id="patch_66">
    <path clip-path="url(#p68b88f177d)" d="M 498.630016 384.48 
L 498.630016 51.84 
L 502.231953 51.84 
L 502.231953 384.48 
z
" style="fill:#008000;opacity:0.04;"/>
   </g>
   <g id="patch_67">
    <path clip-path="url(#p68b88f177d)" d="M 505.833889 384.48 
L 505.833889 51.84 
L 509.435826 51.84 
L 509.435826 384.48 
z
" style="fill:#008000;opacity:0.04;"/>
   </g>
   <g id="patch_68">
    <path clip-path="url(#p68b88f177d)" d="M 513.037762 384.48 
L 513.037762 51.84 
L 516.639699 51.84 
L 516.639699 384.48 
z
" style="fill:#008000;opacity:0.04;"/>
   </g>
   <g id="patch_69">
    <path clip-path="url(#p68b88f177d)" d="M 520.241635 384.48 
L 520.241635 51.84 
L 523.843572 51.84 
L 523.843572 384.48 
z
" style="fill:#008000;opacity:0.04;"/>
   </g>
   <g id="patch_70">
    <path clip-path="url(#p68b88f177d)" d="M 527.445508 384.48 
L 527.445508 51.84 
L 531.047445 51.84 
L 531.047445 384.48 
z
" style="fill:#008000;opacity:0.04;"/>
   </g>
   <g id="patch_71">
    <path clip-path="url(#p68b88f177d)" d="M 534.649381 384.48 
L 534.649381 51.84 
L 538.251318 51.84 
L 538.251318 384.48 
z
" style="fill:#008000;opacity:0.04;"/>
   </g>
   <g id="patch_72">
    <path clip-path="url(#p68b88f177d)" d="M 538.251318 371.1744 
L 538.251318 51.84 
L 541.853254 51.84 
L 541.853254 371.1744 
z
" style="fill:#008000;opacity:0.5;"/>
   </g>
   <g id="patch_73">
    <path clip-path="url(#p68b88f177d)" d="M 541.853254 384.48 
L 541.853254 51.84 
L 545.455191 51.84 
L 545.455191 384.48 
z
" style="fill:#008000;opacity:0.04;"/>
   </g>
   <g id="patch_74">
    <path clip-path="url(#p68b88f177d)" d="M 549.057127 384.48 
L 549.057127 51.84 
L 552.659064 51.84 
L 552.659064 384.48 
z
" style="fill:#008000;opacity:0.04;"/>
   </g>
   <g id="patch_75">
    <path clip-path="url(#p68b88f177d)" d="M 556.261001 384.48 
L 556.261001 51.84 
L 559.862937 51.84 
L 559.862937 384.48 
z
" style="fill:#008000;opacity:0.04;"/>
   </g>
   <g id="patch_76">
    <path clip-path="url(#p68b88f177d)" d="M 563.464874 384.48 
L 563.464874 51.84 
L 567.06681 51.84 
L 567.06681 384.48 
z
" style="fill:#008000;opacity:0.04;"/>
   </g>
   <g id="patch_77">
    <path clip-path="url(#p68b88f177d)" d="M 570.668747 384.48 
L 570.668747 51.84 
L 574.270683 51.84 
L 574.270683 384.48 
z
" style="fill:#008000;opacity:0.04;"/>
   </g>
   <g id="patch_78">
    <path clip-path="url(#p68b88f177d)" d="M 577.87262 384.48 
L 577.87262 51.84 
L 581.474556 51.84 
L 581.474556 384.48 
z
" style="fill:#008000;opacity:0.04;"/>
   </g>
   <g id="patch_79">
    <path clip-path="url(#p68b88f177d)" d="M 585.076493 384.48 
L 585.076493 51.84 
L 588.678429 51.84 
L 588.678429 384.48 
z
" style="fill:#008000;opacity:0.04;"/>
   </g>
   <g id="patch_80">
    <path clip-path="url(#p68b88f177d)" d="M 592.280366 384.48 
L 592.280366 51.84 
L 595.882302 51.84 
L 595.882302 384.48 
z
" style="fill:#008000;opacity:0.04;"/>
   </g>
   <g id="patch_81">
    <path clip-path="url(#p68b88f177d)" d="M 599.484239 384.48 
L 599.484239 51.84 
L 603.086175 51.84 
L 603.086175 384.48 
z
" style="fill:#008000;opacity:0.04;"/>
   </g>
   <g id="patch_82">
    <path clip-path="url(#p68b88f177d)" d="M 603.086175 371.1744 
L 603.086175 51.84 
L 606.688112 51.84 
L 606.688112 371.1744 
z
" style="fill:#008000;opacity:0.5;"/>
   </g>
   <g id="patch_83">
    <path clip-path="url(#p68b88f177d)" d="M 606.688112 384.48 
L 606.688112 51.84 
L 610.290048 51.84 
L 610.290048 384.48 
z
" style="fill:#008000;opacity:0.04;"/>
   </g>
   <g id="patch_84">
    <path clip-path="url(#p68b88f177d)" d="M 613.891985 384.48 
L 613.891985 51.84 
L 617.493921 51.84 
L 617.493921 384.48 
z
" style="fill:#008000;opacity:0.04;"/>
   </g>
   <g id="patch_85">
    <path clip-path="url(#p68b88f177d)" d="M 621.095858 384.48 
L 621.095858 51.84 
L 624.697795 51.84 
L 624.697795 384.48 
z
" style="fill:#008000;opacity:0.04;"/>
   </g>
   <g id="patch_86">
    <path clip-path="url(#p68b88f177d)" d="M 628.299731 384.48 
L 628.299731 51.84 
L 631.901668 51.84 
L 631.901668 384.48 
z
" style="fill:#008000;opacity:0.04;"/>
   </g>
   <g id="patch_87">
    <path clip-path="url(#p68b88f177d)" d="M 635.503604 384.48 
L 635.503604 51.84 
L 639.105541 51.84 
L 639.105541 384.48 
z
" style="fill:#008000;opacity:0.04;"/>
   </g>
   <g id="patch_88">
    <path clip-path="url(#p68b88f177d)" d="M 642.707477 384.48 
L 642.707477 51.84 
L 646.309414 51.84 
L 646.309414 384.48 
z
" style="fill:#008000;opacity:0.04;"/>
   </g>
   <g id="patch_89">
    <path clip-path="url(#p68b88f177d)" d="M 649.91135 384.48 
L 649.91135 51.84 
L 653.513287 51.84 
L 653.513287 384.48 
z
" style="fill:#008000;opacity:0.04;"/>
   </g>
   <g id="patch_90">
    <path clip-path="url(#p68b88f177d)" d="M 657.115223 384.48 
L 657.115223 51.84 
L 660.71716 51.84 
L 660.71716 384.48 
z
" style="fill:#008000;opacity:0.04;"/>
   </g>
   <g id="patch_91">
    <path clip-path="url(#p68b88f177d)" d="M 664.319096 384.48 
L 664.319096 51.84 
L 667.921033 51.84 
L 667.921033 384.48 
z
" style="fill:#008000;opacity:0.04;"/>
   </g>
   <g id="patch_92">
    <path clip-path="url(#p68b88f177d)" d="M 671.522969 384.48 
L 671.522969 51.84 
L 675.124906 51.84 
L 675.124906 384.48 
z
" style="fill:#008000;opacity:0.04;"/>
   </g>
   <g id="patch_93">
    <path clip-path="url(#p68b88f177d)" d="M 678.726842 384.48 
L 678.726842 51.84 
L 682.328779 51.84 
L 682.328779 384.48 
z
" style="fill:#008000;opacity:0.04;"/>
   </g>
   <g id="patch_94">
    <path clip-path="url(#p68b88f177d)" d="M 685.930715 384.48 
L 685.930715 51.84 
L 689.532652 51.84 
L 689.532652 384.48 
z
" style="fill:#008000;opacity:0.04;"/>
   </g>
   <g id="patch_95">
    <path clip-path="url(#p68b88f177d)" d="M 693.134588 384.48 
L 693.134588 51.84 
L 696.736525 51.84 
L 696.736525 384.48 
z
" style="fill:#008000;opacity:0.04;"/>
   </g>
   <g id="patch_96">
    <path clip-path="url(#p68b88f177d)" d="M 700.338462 384.48 
L 700.338462 51.84 
L 703.940398 51.84 
L 703.940398 384.48 
z
" style="fill:#008000;opacity:0.04;"/>
   </g>
   <g id="patch_97">
    <path clip-path="url(#p68b88f177d)" d="M 707.542335 384.48 
L 707.542335 51.84 
L 711.144271 51.84 
L 711.144271 384.48 
z
" style="fill:#008000;opacity:0.04;"/>
   </g>
   <g id="patch_98">
    <path clip-path="url(#p68b88f177d)" d="M 714.746208 384.48 
L 714.746208 51.84 
L 718.348144 51.84 
L 718.348144 384.48 
z
" style="fill:#008000;opacity:0.04;"/>
   </g>
   <g id="patch_99">
    <path clip-path="url(#p68b88f177d)" d="M 721.950081 384.48 
L 721.950081 51.84 
L 725.552017 51.84 
L 725.552017 384.48 
z
" style="fill:#008000;opacity:0.04;"/>
   </g>
   <g id="patch_100">
    <path clip-path="url(#p68b88f177d)" d="M 729.153954 384.48 
L 729.153954 51.84 
L 732.75589 51.84 
L 732.75589 384.48 
z
" style="fill:#008000;opacity:0.04;"/>
   </g>
   <g id="patch_101">
    <path clip-path="url(#p68b88f177d)" d="M 736.357827 384.48 
L 736.357827 51.84 
L 739.959763 51.84 
L 739.959763 384.48 
z
" style="fill:#008000;opacity:0.04;"/>
   </g>
   <g id="patch_102">
    <path clip-path="url(#p68b88f177d)" d="M 743.5617 384.48 
L 743.5617 51.84 
L 747.163636 51.84 
L 747.163636 384.48 
z
" style="fill:#008000;opacity:0.04;"/>
   </g>
   <g id="matplotlib.axis_1">
    <g id="xtick_1">
     <g id="line2d_1">
      <defs>
       <path d="M 0 0 
L 0 3.5 
" id="m726100966f" style="stroke:#000000;stroke-width:0.8;"/>
      </defs>
      <g>
       <use style="stroke:#000000;stroke-width:0.8;" x="138.436364" xlink:href="#m726100966f" y="384.48"/>
      </g>
     </g>
     <g id="text_1">
      <!-- 0 -->
      <defs>
       <path d="M 31.78125 66.40625 
Q 24.171875 66.40625 20.328125 58.90625 
Q 16.5 51.421875 16.5 36.375 
Q 16.5 21.390625 20.328125 13.890625 
Q 24.171875 6.390625 31.78125 6.390625 
Q 39.453125 6.390625 43.28125 13.890625 
Q 47.125 21.390625 47.125 36.375 
Q 47.125 51.421875 43.28125 58.90625 
Q 39.453125 66.40625 31.78125 66.40625 
z
M 31.78125 74.21875 
Q 44.046875 74.21875 50.515625 64.515625 
Q 56.984375 54.828125 56.984375 36.375 
Q 56.984375 17.96875 50.515625 8.265625 
Q 44.046875 -1.421875 31.78125 -1.421875 
Q 19.53125 -1.421875 13.0625 8.265625 
Q 6.59375 17.96875 6.59375 36.375 
Q 6.59375 54.828125 13.0625 64.515625 
Q 19.53125 74.21875 31.78125 74.21875 
z
" id="DejaVuSans-48"/>
      </defs>
      <g transform="translate(135.255114 399.078438)scale(0.1 -0.1)">
       <use xlink:href="#DejaVuSans-48"/>
      </g>
     </g>
    </g>
    <g id="xtick_2">
     <g id="line2d_2">
      <g>
       <use style="stroke:#000000;stroke-width:0.8;" x="228.484777" xlink:href="#m726100966f" y="384.48"/>
      </g>
     </g>
     <g id="text_2">
      <!-- 250 -->
      <defs>
       <path d="M 19.1875 8.296875 
L 53.609375 8.296875 
L 53.609375 0 
L 7.328125 0 
L 7.328125 8.296875 
Q 12.9375 14.109375 22.625 23.890625 
Q 32.328125 33.6875 34.8125 36.53125 
Q 39.546875 41.84375 41.421875 45.53125 
Q 43.3125 49.21875 43.3125 52.78125 
Q 43.3125 58.59375 39.234375 62.25 
Q 35.15625 65.921875 28.609375 65.921875 
Q 23.96875 65.921875 18.8125 64.3125 
Q 13.671875 62.703125 7.8125 59.421875 
L 7.8125 69.390625 
Q 13.765625 71.78125 18.9375 73 
Q 24.125 74.21875 28.421875 74.21875 
Q 39.75 74.21875 46.484375 68.546875 
Q 53.21875 62.890625 53.21875 53.421875 
Q 53.21875 48.921875 51.53125 44.890625 
Q 49.859375 40.875 45.40625 35.40625 
Q 44.1875 33.984375 37.640625 27.21875 
Q 31.109375 20.453125 19.1875 8.296875 
z
" id="DejaVuSans-50"/>
       <path d="M 10.796875 72.90625 
L 49.515625 72.90625 
L 49.515625 64.59375 
L 19.828125 64.59375 
L 19.828125 46.734375 
Q 21.96875 47.46875 24.109375 47.828125 
Q 26.265625 48.1875 28.421875 48.1875 
Q 40.625 48.1875 47.75 41.5 
Q 54.890625 34.8125 54.890625 23.390625 
Q 54.890625 11.625 47.5625 5.09375 
Q 40.234375 -1.421875 26.90625 -1.421875 
Q 22.3125 -1.421875 17.546875 -0.640625 
Q 12.796875 0.140625 7.71875 1.703125 
L 7.71875 11.625 
Q 12.109375 9.234375 16.796875 8.0625 
Q 21.484375 6.890625 26.703125 6.890625 
Q 35.15625 6.890625 40.078125 11.328125 
Q 45.015625 15.765625 45.015625 23.390625 
Q 45.015625 31 40.078125 35.4375 
Q 35.15625 39.890625 26.703125 39.890625 
Q 22.75 39.890625 18.8125 39.015625 
Q 14.890625 38.140625 10.796875 36.28125 
z
" id="DejaVuSans-53"/>
      </defs>
      <g transform="translate(218.941027 399.078438)scale(0.1 -0.1)">
       <use xlink:href="#DejaVuSans-50"/>
       <use x="63.623047" xlink:href="#DejaVuSans-53"/>
       <use x="127.246094" xlink:href="#DejaVuSans-48"/>
      </g>
     </g>
    </g>
    <g id="xtick_3">
     <g id="line2d_3">
      <g>
       <use style="stroke:#000000;stroke-width:0.8;" x="318.53319" xlink:href="#m726100966f" y="384.48"/>
      </g>
     </g>
     <g id="text_3">
      <!-- 500 -->
      <g transform="translate(308.98944 399.078438)scale(0.1 -0.1)">
       <use xlink:href="#DejaVuSans-53"/>
       <use x="63.623047" xlink:href="#DejaVuSans-48"/>
       <use x="127.246094" xlink:href="#DejaVuSans-48"/>
      </g>
     </g>
    </g>
    <g id="xtick_4">
     <g id="line2d_4">
      <g>
       <use style="stroke:#000000;stroke-width:0.8;" x="408.581603" xlink:href="#m726100966f" y="384.48"/>
      </g>
     </g>
     <g id="text_4">
      <!-- 750 -->
      <defs>
       <path d="M 8.203125 72.90625 
L 55.078125 72.90625 
L 55.078125 68.703125 
L 28.609375 0 
L 18.3125 0 
L 43.21875 64.59375 
L 8.203125 64.59375 
z
" id="DejaVuSans-55"/>
      </defs>
      <g transform="translate(399.037853 399.078438)scale(0.1 -0.1)">
       <use xlink:href="#DejaVuSans-55"/>
       <use x="63.623047" xlink:href="#DejaVuSans-53"/>
       <use x="127.246094" xlink:href="#DejaVuSans-48"/>
      </g>
     </g>
    </g>
    <g id="xtick_5">
     <g id="line2d_5">
      <g>
       <use style="stroke:#000000;stroke-width:0.8;" x="498.630016" xlink:href="#m726100966f" y="384.48"/>
      </g>
     </g>
     <g id="text_5">
      <!-- 1000 -->
      <defs>
       <path d="M 12.40625 8.296875 
L 28.515625 8.296875 
L 28.515625 63.921875 
L 10.984375 60.40625 
L 10.984375 69.390625 
L 28.421875 72.90625 
L 38.28125 72.90625 
L 38.28125 8.296875 
L 54.390625 8.296875 
L 54.390625 0 
L 12.40625 0 
z
" id="DejaVuSans-49"/>
      </defs>
      <g transform="translate(485.905016 399.078438)scale(0.1 -0.1)">
       <use xlink:href="#DejaVuSans-49"/>
       <use x="63.623047" xlink:href="#DejaVuSans-48"/>
       <use x="127.246094" xlink:href="#DejaVuSans-48"/>
       <use x="190.869141" xlink:href="#DejaVuSans-48"/>
      </g>
     </g>
    </g>
    <g id="xtick_6">
     <g id="line2d_6">
      <g>
       <use style="stroke:#000000;stroke-width:0.8;" x="588.678429" xlink:href="#m726100966f" y="384.48"/>
      </g>
     </g>
     <g id="text_6">
      <!-- 1250 -->
      <g transform="translate(575.953429 399.078438)scale(0.1 -0.1)">
       <use xlink:href="#DejaVuSans-49"/>
       <use x="63.623047" xlink:href="#DejaVuSans-50"/>
       <use x="127.246094" xlink:href="#DejaVuSans-53"/>
       <use x="190.869141" xlink:href="#DejaVuSans-48"/>
      </g>
     </g>
    </g>
    <g id="xtick_7">
     <g id="line2d_7">
      <g>
       <use style="stroke:#000000;stroke-width:0.8;" x="678.726842" xlink:href="#m726100966f" y="384.48"/>
      </g>
     </g>
     <g id="text_7">
      <!-- 1500 -->
      <g transform="translate(666.001842 399.078438)scale(0.1 -0.1)">
       <use xlink:href="#DejaVuSans-49"/>
       <use x="63.623047" xlink:href="#DejaVuSans-53"/>
       <use x="127.246094" xlink:href="#DejaVuSans-48"/>
       <use x="190.869141" xlink:href="#DejaVuSans-48"/>
      </g>
     </g>
    </g>
    <g id="xtick_8">
     <g id="line2d_8">
      <g>
       <use style="stroke:#000000;stroke-width:0.8;" x="768.775256" xlink:href="#m726100966f" y="384.48"/>
      </g>
     </g>
     <g id="text_8">
      <!-- 1750 -->
      <g transform="translate(756.050256 399.078438)scale(0.1 -0.1)">
       <use xlink:href="#DejaVuSans-49"/>
       <use x="63.623047" xlink:href="#DejaVuSans-55"/>
       <use x="127.246094" xlink:href="#DejaVuSans-53"/>
       <use x="190.869141" xlink:href="#DejaVuSans-48"/>
      </g>
     </g>
    </g>
    <g id="text_9">
     <!-- Timestamp -->
     <defs>
      <path d="M -0.296875 72.90625 
L 61.375 72.90625 
L 61.375 64.59375 
L 35.5 64.59375 
L 35.5 0 
L 25.59375 0 
L 25.59375 64.59375 
L -0.296875 64.59375 
z
" id="DejaVuSans-84"/>
      <path d="M 9.421875 54.6875 
L 18.40625 54.6875 
L 18.40625 0 
L 9.421875 0 
z
M 9.421875 75.984375 
L 18.40625 75.984375 
L 18.40625 64.59375 
L 9.421875 64.59375 
z
" id="DejaVuSans-105"/>
      <path d="M 52 44.1875 
Q 55.375 50.25 60.0625 53.125 
Q 64.75 56 71.09375 56 
Q 79.640625 56 84.28125 50.015625 
Q 88.921875 44.046875 88.921875 33.015625 
L 88.921875 0 
L 79.890625 0 
L 79.890625 32.71875 
Q 79.890625 40.578125 77.09375 44.375 
Q 74.3125 48.1875 68.609375 48.1875 
Q 61.625 48.1875 57.5625 43.546875 
Q 53.515625 38.921875 53.515625 30.90625 
L 53.515625 0 
L 44.484375 0 
L 44.484375 32.71875 
Q 44.484375 40.625 41.703125 44.40625 
Q 38.921875 48.1875 33.109375 48.1875 
Q 26.21875 48.1875 22.15625 43.53125 
Q 18.109375 38.875 18.109375 30.90625 
L 18.109375 0 
L 9.078125 0 
L 9.078125 54.6875 
L 18.109375 54.6875 
L 18.109375 46.1875 
Q 21.1875 51.21875 25.484375 53.609375 
Q 29.78125 56 35.6875 56 
Q 41.65625 56 45.828125 52.96875 
Q 50 49.953125 52 44.1875 
z
" id="DejaVuSans-109"/>
      <path d="M 56.203125 29.59375 
L 56.203125 25.203125 
L 14.890625 25.203125 
Q 15.484375 15.921875 20.484375 11.0625 
Q 25.484375 6.203125 34.421875 6.203125 
Q 39.59375 6.203125 44.453125 7.46875 
Q 49.3125 8.734375 54.109375 11.28125 
L 54.109375 2.78125 
Q 49.265625 0.734375 44.1875 -0.34375 
Q 39.109375 -1.421875 33.890625 -1.421875 
Q 20.796875 -1.421875 13.15625 6.1875 
Q 5.515625 13.8125 5.515625 26.8125 
Q 5.515625 40.234375 12.765625 48.109375 
Q 20.015625 56 32.328125 56 
Q 43.359375 56 49.78125 48.890625 
Q 56.203125 41.796875 56.203125 29.59375 
z
M 47.21875 32.234375 
Q 47.125 39.59375 43.09375 43.984375 
Q 39.0625 48.390625 32.421875 48.390625 
Q 24.90625 48.390625 20.390625 44.140625 
Q 15.875 39.890625 15.1875 32.171875 
z
" id="DejaVuSans-101"/>
      <path d="M 44.28125 53.078125 
L 44.28125 44.578125 
Q 40.484375 46.53125 36.375 47.5 
Q 32.28125 48.484375 27.875 48.484375 
Q 21.1875 48.484375 17.84375 46.4375 
Q 14.5 44.390625 14.5 40.28125 
Q 14.5 37.15625 16.890625 35.375 
Q 19.28125 33.59375 26.515625 31.984375 
L 29.59375 31.296875 
Q 39.15625 29.25 43.1875 25.515625 
Q 47.21875 21.78125 47.21875 15.09375 
Q 47.21875 7.46875 41.1875 3.015625 
Q 35.15625 -1.421875 24.609375 -1.421875 
Q 20.21875 -1.421875 15.453125 -0.5625 
Q 10.6875 0.296875 5.421875 2 
L 5.421875 11.28125 
Q 10.40625 8.6875 15.234375 7.390625 
Q 20.0625 6.109375 24.8125 6.109375 
Q 31.15625 6.109375 34.5625 8.28125 
Q 37.984375 10.453125 37.984375 14.40625 
Q 37.984375 18.0625 35.515625 20.015625 
Q 33.0625 21.96875 24.703125 23.78125 
L 21.578125 24.515625 
Q 13.234375 26.265625 9.515625 29.90625 
Q 5.8125 33.546875 5.8125 39.890625 
Q 5.8125 47.609375 11.28125 51.796875 
Q 16.75 56 26.8125 56 
Q 31.78125 56 36.171875 55.265625 
Q 40.578125 54.546875 44.28125 53.078125 
z
" id="DejaVuSans-115"/>
      <path d="M 18.3125 70.21875 
L 18.3125 54.6875 
L 36.8125 54.6875 
L 36.8125 47.703125 
L 18.3125 47.703125 
L 18.3125 18.015625 
Q 18.3125 11.328125 20.140625 9.421875 
Q 21.96875 7.515625 27.59375 7.515625 
L 36.8125 7.515625 
L 36.8125 0 
L 27.59375 0 
Q 17.1875 0 13.234375 3.875 
Q 9.28125 7.765625 9.28125 18.015625 
L 9.28125 47.703125 
L 2.6875 47.703125 
L 2.6875 54.6875 
L 9.28125 54.6875 
L 9.28125 70.21875 
z
" id="DejaVuSans-116"/>
      <path d="M 34.28125 27.484375 
Q 23.390625 27.484375 19.1875 25 
Q 14.984375 22.515625 14.984375 16.5 
Q 14.984375 11.71875 18.140625 8.90625 
Q 21.296875 6.109375 26.703125 6.109375 
Q 34.1875 6.109375 38.703125 11.40625 
Q 43.21875 16.703125 43.21875 25.484375 
L 43.21875 27.484375 
z
M 52.203125 31.203125 
L 52.203125 0 
L 43.21875 0 
L 43.21875 8.296875 
Q 40.140625 3.328125 35.546875 0.953125 
Q 30.953125 -1.421875 24.3125 -1.421875 
Q 15.921875 -1.421875 10.953125 3.296875 
Q 6 8.015625 6 15.921875 
Q 6 25.140625 12.171875 29.828125 
Q 18.359375 34.515625 30.609375 34.515625 
L 43.21875 34.515625 
L 43.21875 35.40625 
Q 43.21875 41.609375 39.140625 45 
Q 35.0625 48.390625 27.6875 48.390625 
Q 23 48.390625 18.546875 47.265625 
Q 14.109375 46.140625 10.015625 43.890625 
L 10.015625 52.203125 
Q 14.9375 54.109375 19.578125 55.046875 
Q 24.21875 56 28.609375 56 
Q 40.484375 56 46.34375 49.84375 
Q 52.203125 43.703125 52.203125 31.203125 
z
" id="DejaVuSans-97"/>
      <path d="M 18.109375 8.203125 
L 18.109375 -20.796875 
L 9.078125 -20.796875 
L 9.078125 54.6875 
L 18.109375 54.6875 
L 18.109375 46.390625 
Q 20.953125 51.265625 25.265625 53.625 
Q 29.59375 56 35.59375 56 
Q 45.5625 56 51.78125 48.09375 
Q 58.015625 40.1875 58.015625 27.296875 
Q 58.015625 14.40625 51.78125 6.484375 
Q 45.5625 -1.421875 35.59375 -1.421875 
Q 29.59375 -1.421875 25.265625 0.953125 
Q 20.953125 3.328125 18.109375 8.203125 
z
M 48.6875 27.296875 
Q 48.6875 37.203125 44.609375 42.84375 
Q 40.53125 48.484375 33.40625 48.484375 
Q 26.265625 48.484375 22.1875 42.84375 
Q 18.109375 37.203125 18.109375 27.296875 
Q 18.109375 17.390625 22.1875 11.75 
Q 26.265625 6.109375 33.40625 6.109375 
Q 40.53125 6.109375 44.609375 11.75 
Q 48.6875 17.390625 48.6875 27.296875 
z
" id="DejaVuSans-112"/>
     </defs>
     <g transform="translate(414.739062 412.756563)scale(0.1 -0.1)">
      <use xlink:href="#DejaVuSans-84"/>
      <use x="61.037109" xlink:href="#DejaVuSans-105"/>
      <use x="88.820312" xlink:href="#DejaVuSans-109"/>
      <use x="186.232422" xlink:href="#DejaVuSans-101"/>
      <use x="247.755859" xlink:href="#DejaVuSans-115"/>
      <use x="299.855469" xlink:href="#DejaVuSans-116"/>
      <use x="339.064453" xlink:href="#DejaVuSans-97"/>
      <use x="400.34375" xlink:href="#DejaVuSans-109"/>
      <use x="497.755859" xlink:href="#DejaVuSans-112"/>
     </g>
    </g>
   </g>
   <g id="matplotlib.axis_2">
    <g id="ytick_1">
     <g id="line2d_9">
      <defs>
       <path d="M 0 0 
L -3.5 0 
" id="m9ef2288bba" style="stroke:#000000;stroke-width:0.8;"/>
      </defs>
      <g>
       <use style="stroke:#000000;stroke-width:0.8;" x="108" xlink:href="#m9ef2288bba" y="337.593902"/>
      </g>
     </g>
     <g id="text_10">
      <!-- 0 -->
      <g transform="translate(94.6375 341.393121)scale(0.1 -0.1)">
       <use xlink:href="#DejaVuSans-48"/>
      </g>
     </g>
    </g>
    <g id="ytick_2">
     <g id="line2d_10">
      <g>
       <use style="stroke:#000000;stroke-width:0.8;" x="108" xlink:href="#m9ef2288bba" y="266.523474"/>
      </g>
     </g>
     <g id="text_11">
      <!-- 1000 -->
      <g transform="translate(75.55 270.322693)scale(0.1 -0.1)">
       <use xlink:href="#DejaVuSans-49"/>
       <use x="63.623047" xlink:href="#DejaVuSans-48"/>
       <use x="127.246094" xlink:href="#DejaVuSans-48"/>
       <use x="190.869141" xlink:href="#DejaVuSans-48"/>
      </g>
     </g>
    </g>
    <g id="ytick_3">
     <g id="line2d_11">
      <g>
       <use style="stroke:#000000;stroke-width:0.8;" x="108" xlink:href="#m9ef2288bba" y="195.453046"/>
      </g>
     </g>
     <g id="text_12">
      <!-- 2000 -->
      <g transform="translate(75.55 199.252265)scale(0.1 -0.1)">
       <use xlink:href="#DejaVuSans-50"/>
       <use x="63.623047" xlink:href="#DejaVuSans-48"/>
       <use x="127.246094" xlink:href="#DejaVuSans-48"/>
       <use x="190.869141" xlink:href="#DejaVuSans-48"/>
      </g>
     </g>
    </g>
    <g id="ytick_4">
     <g id="line2d_12">
      <g>
       <use style="stroke:#000000;stroke-width:0.8;" x="108" xlink:href="#m9ef2288bba" y="124.382618"/>
      </g>
     </g>
     <g id="text_13">
      <!-- 3000 -->
      <defs>
       <path d="M 40.578125 39.3125 
Q 47.65625 37.796875 51.625 33 
Q 55.609375 28.21875 55.609375 21.1875 
Q 55.609375 10.40625 48.1875 4.484375 
Q 40.765625 -1.421875 27.09375 -1.421875 
Q 22.515625 -1.421875 17.65625 -0.515625 
Q 12.796875 0.390625 7.625 2.203125 
L 7.625 11.71875 
Q 11.71875 9.328125 16.59375 8.109375 
Q 21.484375 6.890625 26.8125 6.890625 
Q 36.078125 6.890625 40.9375 10.546875 
Q 45.796875 14.203125 45.796875 21.1875 
Q 45.796875 27.640625 41.28125 31.265625 
Q 36.765625 34.90625 28.71875 34.90625 
L 20.21875 34.90625 
L 20.21875 43.015625 
L 29.109375 43.015625 
Q 36.375 43.015625 40.234375 45.921875 
Q 44.09375 48.828125 44.09375 54.296875 
Q 44.09375 59.90625 40.109375 62.90625 
Q 36.140625 65.921875 28.71875 65.921875 
Q 24.65625 65.921875 20.015625 65.03125 
Q 15.375 64.15625 9.8125 62.3125 
L 9.8125 71.09375 
Q 15.4375 72.65625 20.34375 73.4375 
Q 25.25 74.21875 29.59375 74.21875 
Q 40.828125 74.21875 47.359375 69.109375 
Q 53.90625 64.015625 53.90625 55.328125 
Q 53.90625 49.265625 50.4375 45.09375 
Q 46.96875 40.921875 40.578125 39.3125 
z
" id="DejaVuSans-51"/>
      </defs>
      <g transform="translate(75.55 128.181837)scale(0.1 -0.1)">
       <use xlink:href="#DejaVuSans-51"/>
       <use x="63.623047" xlink:href="#DejaVuSans-48"/>
       <use x="127.246094" xlink:href="#DejaVuSans-48"/>
       <use x="190.869141" xlink:href="#DejaVuSans-48"/>
      </g>
     </g>
    </g>
    <g id="ytick_5">
     <g id="line2d_13">
      <g>
       <use style="stroke:#000000;stroke-width:0.8;" x="108" xlink:href="#m9ef2288bba" y="53.312191"/>
      </g>
     </g>
     <g id="text_14">
      <!-- 4000 -->
      <defs>
       <path d="M 37.796875 64.3125 
L 12.890625 25.390625 
L 37.796875 25.390625 
z
M 35.203125 72.90625 
L 47.609375 72.90625 
L 47.609375 25.390625 
L 58.015625 25.390625 
L 58.015625 17.1875 
L 47.609375 17.1875 
L 47.609375 0 
L 37.796875 0 
L 37.796875 17.1875 
L 4.890625 17.1875 
L 4.890625 26.703125 
z
" id="DejaVuSans-52"/>
      </defs>
      <g transform="translate(75.55 57.111409)scale(0.1 -0.1)">
       <use xlink:href="#DejaVuSans-52"/>
       <use x="63.623047" xlink:href="#DejaVuSans-48"/>
       <use x="127.246094" xlink:href="#DejaVuSans-48"/>
       <use x="190.869141" xlink:href="#DejaVuSans-48"/>
      </g>
     </g>
    </g>
    <g id="text_15">
     <!-- Value -->
     <defs>
      <path d="M 28.609375 0 
L 0.78125 72.90625 
L 11.078125 72.90625 
L 34.1875 11.53125 
L 57.328125 72.90625 
L 67.578125 72.90625 
L 39.796875 0 
z
" id="DejaVuSans-86"/>
      <path d="M 9.421875 75.984375 
L 18.40625 75.984375 
L 18.40625 0 
L 9.421875 0 
z
" id="DejaVuSans-108"/>
      <path d="M 8.5 21.578125 
L 8.5 54.6875 
L 17.484375 54.6875 
L 17.484375 21.921875 
Q 17.484375 14.15625 20.5 10.265625 
Q 23.53125 6.390625 29.59375 6.390625 
Q 36.859375 6.390625 41.078125 11.03125 
Q 45.3125 15.671875 45.3125 23.6875 
L 45.3125 54.6875 
L 54.296875 54.6875 
L 54.296875 0 
L 45.3125 0 
L 45.3125 8.40625 
Q 42.046875 3.421875 37.71875 1 
Q 33.40625 -1.421875 27.6875 -1.421875 
Q 18.265625 -1.421875 13.375 4.4375 
Q 8.5 10.296875 8.5 21.578125 
z
M 31.109375 56 
z
" id="DejaVuSans-117"/>
     </defs>
     <g transform="translate(69.470312 232.273281)rotate(-90)scale(0.1 -0.1)">
      <use xlink:href="#DejaVuSans-86"/>
      <use x="68.298828" xlink:href="#DejaVuSans-97"/>
      <use x="129.578125" xlink:href="#DejaVuSans-108"/>
      <use x="157.361328" xlink:href="#DejaVuSans-117"/>
      <use x="220.740234" xlink:href="#DejaVuSans-101"/>
     </g>
    </g>
   </g>
   <g id="line2d_14">
    <path clip-path="url(#p68b88f177d)" d="M 138.436364 336.787842 
L 139.156751 302.960257 
L 139.516945 300.893807 
L 139.877138 297.100128 
L 141.678107 348.817123 
L 142.0383 348.772461 
L 142.758687 333.154263 
L 143.118881 322.236947 
L 143.479075 317.68082 
L 143.839268 316.277779 
L 144.199462 322.897689 
L 144.919849 344.748449 
L 145.280043 360.714779 
L 145.640237 362.719692 
L 146.00043 361.666759 
L 146.360624 361.072985 
L 147.441205 309.663248 
L 147.801399 295.010745 
L 148.161592 286.549333 
L 148.521786 289.663789 
L 148.88198 296.252889 
L 149.962561 332.393048 
L 150.322754 336.047194 
L 150.682948 337.943614 
L 151.043141 332.154686 
L 151.763529 313.124227 
L 152.123722 309.405171 
L 152.483916 310.014339 
L 152.84411 316.279923 
L 153.564497 336.577641 
L 153.924691 352.884835 
L 154.284884 359.801892 
L 155.005272 351.937334 
L 155.365465 340.358475 
L 156.085853 304.404503 
L 156.80624 280.628449 
L 157.526627 290.869882 
L 158.607208 328.436778 
L 158.967402 333.148219 
L 159.327595 330.767355 
L 159.687789 334.31223 
L 160.047983 317.354734 
L 160.408176 314.091598 
L 160.76837 308.649195 
L 161.128564 310.606888 
L 161.488757 316.889082 
L 162.209145 336.2518 
L 162.569338 355.70198 
L 162.929532 358.613126 
L 163.289726 359.342572 
L 163.649919 353.831062 
L 164.010113 341.888621 
L 164.7305 304.892215 
L 165.090694 291.22888 
L 165.450888 284.866702 
L 165.811081 288.924914 
L 166.171275 295.200042 
L 166.891662 321.056456 
L 167.251856 332.721295 
L 167.612049 335.141832 
L 167.972243 338.77077 
L 168.332437 330.653154 
L 168.69263 325.686872 
L 169.413018 311.335673 
L 169.773211 312.035374 
L 170.133405 317.819671 
L 171.213986 357.025807 
L 171.57418 364.024795 
L 171.934373 365.799173 
L 172.654761 346.625731 
L 173.735342 297.380968 
L 174.095535 292.193392 
L 174.455729 290.501333 
L 175.176116 309.716576 
L 175.53631 327.804954 
L 176.616891 346.594778 
L 177.337278 330.33681 
L 178.057665 315.986987 
L 178.417859 318.681572 
L 178.778053 322.235282 
L 180.218827 367.562967 
L 180.579021 369.36 
L 181.299408 345.130966 
L 181.659602 331.426338 
L 182.019796 311.568523 
L 182.740183 291.257907 
L 183.100377 292.860993 
L 183.820764 309.76017 
L 184.180958 325.716679 
L 184.541151 336.589494 
L 184.901345 339.984198 
L 185.261538 345.00947 
L 185.621732 337.441947 
L 185.981926 326.580675 
L 186.342119 320.87663 
L 186.702313 313.087492 
L 187.062507 315.01319 
L 187.4227 319.200077 
L 188.143088 342.446488 
L 188.503281 357.575963 
L 188.863475 365.819217 
L 189.223669 362.184633 
L 189.583862 354.04386 
L 190.30425 324.028624 
L 191.024637 294.682838 
L 191.384831 286.436001 
L 191.745024 287.671312 
L 193.545992 334.228048 
L 193.906186 329.950947 
L 194.26638 327.556482 
L 194.626573 316.688233 
L 194.986767 312.610333 
L 195.346961 303.969883 
L 195.707154 305.229691 
L 196.427542 320.127477 
L 197.147929 347.05744 
L 197.508123 351.334106 
L 197.868316 351.55311 
L 198.588704 336.351015 
L 199.309091 296.10842 
L 199.669285 282.982044 
L 200.029478 275.445931 
L 200.389672 277.023116 
L 201.110059 291.354996 
L 201.470253 307.87358 
L 201.830446 313.406096 
L 202.19064 322.587768 
L 202.550834 322.840995 
L 203.631415 297.166318 
L 203.991608 296.407085 
L 204.351802 294.819286 
L 204.711996 301.277018 
L 205.072189 310.276235 
L 205.432383 324.811955 
L 206.15277 342.102445 
L 206.512964 339.031451 
L 206.873158 334.489706 
L 207.593545 305.410783 
L 208.313932 274.680075 
L 208.674126 264.362819 
L 209.03432 262.619469 
L 209.394513 272.328111 
L 210.1149 297.908464 
L 210.475094 307.790378 
L 210.835288 313.327261 
L 211.195481 311.798417 
L 211.915869 299.607647 
L 212.276062 290.527111 
L 212.636256 284.588331 
L 212.99645 286.540228 
L 214.077031 313.601409 
L 214.437224 326.45983 
L 214.797418 333.249698 
L 215.157612 336.581295 
L 215.517805 329.579044 
L 216.95858 266.768218 
L 217.318774 257.867782 
L 217.678967 259.416191 
L 218.039161 266.874157 
L 219.119742 304.444154 
L 219.479935 310.070672 
L 219.840129 308.156439 
L 220.200323 308.05343 
L 220.560516 294.057587 
L 220.92071 290.86895 
L 221.280904 283.289965 
L 221.641097 284.908277 
L 222.001291 288.818378 
L 223.081872 329.945416 
L 223.802259 337.738776 
L 224.162453 329.952115 
L 224.522647 316.26292 
L 224.88284 296.767512 
L 225.243034 284.879175 
L 225.603228 269.000512 
L 225.963421 262.372411 
L 226.323615 262.365671 
L 226.683808 268.813099 
L 227.764389 309.946778 
L 228.124583 312.519721 
L 228.484777 312.395823 
L 229.565358 295.414337 
L 229.925551 288.120686 
L 230.285745 290.66935 
L 230.645939 295.350877 
L 231.006132 304.913837 
L 231.366326 321.78735 
L 231.72652 332.400819 
L 232.086713 339.612079 
L 232.446907 339.535612 
L 232.807101 334.906285 
L 234.247875 273.006147 
L 234.608069 268.846063 
L 234.968263 269.87114 
L 235.328456 274.916378 
L 236.409037 314.995762 
L 237.129424 319.700212 
L 237.489618 314.4058 
L 237.849812 302.135454 
L 238.210005 295.149229 
L 238.570199 293.989925 
L 238.930393 290.801953 
L 239.290586 297.893872 
L 240.371167 334.486571 
L 240.731361 343.836374 
L 241.091555 345.467255 
L 241.451748 337.647038 
L 242.172136 307.402437 
L 242.892523 275.182568 
L 243.252717 267.452634 
L 243.61291 269.577859 
L 243.973104 277.775455 
L 245.053685 311.237328 
L 245.413878 320.243648 
L 245.774072 314.231108 
L 246.134266 312.284052 
L 247.214847 289.863713 
L 247.57504 290.668891 
L 247.935234 297.306397 
L 249.376009 344.106296 
L 249.736202 339.565957 
L 250.096396 332.279475 
L 251.537171 268.708111 
L 251.897364 263.42211 
L 252.257558 262.78543 
L 252.617751 269.547244 
L 253.698332 305.543221 
L 254.058526 307.362159 
L 254.41872 311.993907 
L 254.778913 303.244593 
L 255.139107 297.208943 
L 255.499301 286.920397 
L 255.859494 280.292021 
L 256.219688 279.990226 
L 256.579882 286.978166 
L 258.020656 329.542659 
L 258.38085 327.480994 
L 258.741044 321.142971 
L 259.461431 289.912244 
L 259.821625 271.262833 
L 260.542012 245.79845 
L 260.902205 249.361294 
L 261.262399 255.91646 
L 261.982786 281.815403 
L 262.703174 299.239961 
L 263.063367 298.686287 
L 263.423561 289.595922 
L 264.504142 272.453478 
L 264.864336 271.597938 
L 265.584723 283.585517 
L 266.30511 309.992376 
L 266.665304 315.680488 
L 267.025498 318.122463 
L 267.385691 312.087364 
L 268.106079 279.113609 
L 268.826466 247.067613 
L 269.186659 243.095507 
L 269.546853 236.247995 
L 269.907047 245.499538 
L 270.987628 282.173075 
L 271.347821 289.764674 
L 271.708015 292.404597 
L 273.14879 258.592889 
L 273.508983 260.538544 
L 273.869177 267.8855 
L 274.589564 290.618429 
L 274.949758 304.445848 
L 275.309952 311.839132 
L 275.670145 311.853927 
L 276.390533 291.887631 
L 277.11092 254.406126 
L 277.831307 234.60178 
L 278.191501 234.576497 
L 279.632275 279.700293 
L 279.992469 284.297669 
L 280.352663 286.948099 
L 280.712856 281.994907 
L 281.433244 263.898235 
L 281.793437 260.247997 
L 282.153631 261.090696 
L 282.874018 278.390775 
L 283.954599 312.647811 
L 284.314793 314.761893 
L 284.674987 302.593385 
L 285.03518 296.641027 
L 285.755568 257.253951 
L 286.115761 245.103805 
L 286.475955 237.482305 
L 286.836148 238.78593 
L 287.196342 246.707273 
L 288.637117 289.565758 
L 288.99731 289.668155 
L 289.717698 279.461682 
L 290.077891 268.985021 
L 290.438085 266.792678 
L 290.798279 267.410315 
L 291.158472 272.553248 
L 291.518666 281.134283 
L 291.87886 297.550753 
L 292.599247 319.298679 
L 292.959441 319.050012 
L 293.319634 311.003456 
L 294.040022 281.111972 
L 294.760409 247.476954 
L 295.120602 243.127157 
L 295.480796 243.214188 
L 296.201183 261.893001 
L 296.561377 275.899588 
L 296.921571 283.47935 
L 297.281764 295.546397 
L 297.641958 294.68426 
L 298.002152 287.156617 
L 298.362345 284.667237 
L 298.722539 275.664291 
L 299.082733 270.302033 
L 299.442926 270.333361 
L 299.80312 275.227565 
L 300.883701 313.078978 
L 301.604088 324.179956 
L 301.964282 308.943798 
L 302.324476 299.938986 
L 302.684669 277.744816 
L 303.76525 242.226265 
L 304.125444 244.454308 
L 304.485637 249.948043 
L 305.206025 274.293416 
L 305.566218 288.305703 
L 305.926412 293.125302 
L 306.286606 292.723772 
L 306.646799 288.416331 
L 307.006993 277.491851 
L 307.367187 275.917806 
L 307.72738 267.088235 
L 308.087574 267.868679 
L 308.447768 271.566749 
L 309.528349 312.004263 
L 309.888542 313.503098 
L 310.248736 318.593767 
L 311.329317 277.833064 
L 311.68951 257.545369 
L 312.409898 234.908519 
L 312.770091 242.12129 
L 313.130285 245.405269 
L 314.210866 278.687423 
L 314.57106 282.542874 
L 314.931253 290.492547 
L 316.011834 261.883489 
L 316.372028 258.002562 
L 316.732222 259.608391 
L 317.092415 264.594568 
L 317.452609 274.072328 
L 318.172996 297.18193 
L 318.53319 305.749196 
L 318.893384 305.553783 
L 319.253577 298.25024 
L 319.973964 263.963715 
L 320.334158 250.644174 
L 320.694352 231.425553 
L 321.054545 221.247422 
L 321.414739 229.167668 
L 321.774933 233.149948 
L 322.855514 271.534785 
L 323.215707 273.960239 
L 323.936095 271.80816 
L 324.296288 259.157022 
L 324.656482 252.649668 
L 325.016676 243.078555 
L 325.376869 246.243387 
L 325.737063 251.775087 
L 326.45745 275.256715 
L 326.817644 285.747094 
L 327.177838 291.42375 
L 327.538031 291.065014 
L 327.898225 286.234688 
L 328.978806 237.946318 
L 329.338999 221.936141 
L 329.699193 215.722101 
L 330.41958 223.792352 
L 331.500161 258.938142 
L 331.860355 265.758075 
L 332.220549 266.759352 
L 332.580742 259.989777 
L 333.30113 241.445549 
L 333.661323 234.966426 
L 334.381711 244.141485 
L 335.822485 288.542741 
L 336.182679 287.454728 
L 336.903066 267.005551 
L 337.983647 215.275904 
L 338.704034 213.783368 
L 339.064228 221.756083 
L 340.144809 255.790048 
L 340.505003 260.013326 
L 340.865196 260.636799 
L 341.22539 260.05246 
L 341.585584 249.82312 
L 341.945777 244.38078 
L 342.305971 234.429564 
L 343.026358 243.283702 
L 343.386552 251.173315 
L 344.106939 277.94504 
L 344.467133 286.602114 
L 344.827327 288.261947 
L 345.18752 283.33084 
L 346.628295 219.628883 
L 346.988488 215.848083 
L 347.348682 216.550372 
L 348.069069 231.05605 
L 348.429263 247.774863 
L 348.789457 259.252608 
L 349.14965 267.058321 
L 349.509844 266.679932 
L 349.870038 260.539131 
L 350.230231 256.913723 
L 350.590425 245.476034 
L 350.950619 238.375633 
L 351.310812 242.037153 
L 353.111781 295.464652 
L 353.832168 287.743241 
L 354.192361 276.891198 
L 354.552555 254.819633 
L 355.272942 229.217757 
L 355.633136 218.824865 
L 356.353523 228.449939 
L 357.434104 266.899746 
L 357.794298 270.238573 
L 358.154492 270.493896 
L 358.514685 269.631934 
L 359.595266 243.714324 
L 359.95546 241.884678 
L 360.315654 249.760721 
L 361.036041 277.400202 
L 361.396235 284.86762 
L 361.756428 295.680792 
L 362.116622 296.858161 
L 362.476815 291.967164 
L 363.91759 227.9241 
L 364.277784 219.649583 
L 364.637977 220.299549 
L 364.998171 227.009079 
L 366.078752 266.379283 
L 366.799139 271.498194 
L 367.159333 265.810493 
L 367.519527 255.713487 
L 368.239914 243.254605 
L 368.600108 245.702724 
L 368.960301 249.326804 
L 369.320495 256.932353 
L 370.040882 285.517289 
L 370.401076 289.752888 
L 370.761269 292.457396 
L 371.121463 283.887962 
L 371.84185 253.715986 
L 372.202044 234.581049 
L 372.922431 214.04098 
L 373.282625 213.101726 
L 374.363206 244.670144 
L 374.7234 256.411524 
L 375.083593 262.480316 
L 375.443787 261.341898 
L 375.803981 256.701189 
L 376.164174 245.864731 
L 376.524368 238.682188 
L 376.884562 234.255492 
L 377.244755 235.584105 
L 377.604949 238.563539 
L 379.045724 282.923856 
L 379.766111 273.119786 
L 380.126304 259.84923 
L 380.846692 223.420118 
L 381.567079 204.271254 
L 381.927273 202.83632 
L 382.64766 222.260899 
L 383.368047 248.166775 
L 383.728241 247.934181 
L 384.088435 251.673476 
L 384.448628 244.599815 
L 384.808822 234.252705 
L 385.529209 221.991243 
L 385.889403 222.382505 
L 386.249597 227.507969 
L 386.60979 237.590387 
L 386.969984 252.981126 
L 387.330178 262.269034 
L 387.690371 274.717077 
L 388.050565 273.241207 
L 388.410758 262.843618 
L 389.851533 198.23809 
L 390.211727 191.070681 
L 390.57192 193.432532 
L 390.932114 199.586867 
L 391.652501 223.153679 
L 392.012695 230.304822 
L 392.372889 240.258228 
L 392.733082 239.959062 
L 393.093276 237.386068 
L 393.813663 220.33375 
L 394.173857 214.249282 
L 394.534051 212.767895 
L 395.614632 244.496937 
L 395.974825 258.52594 
L 396.335019 262.203667 
L 396.695212 262.335846 
L 397.055406 259.063356 
L 398.856374 185.236917 
L 399.576762 192.38173 
L 400.297149 222.651576 
L 401.017536 238.673269 
L 401.37773 238.583731 
L 401.737924 234.580064 
L 402.098117 227.497802 
L 402.458311 215.063332 
L 402.818505 212.193584 
L 403.178698 214.157851 
L 403.899086 231.062851 
L 404.259279 244.887049 
L 404.619473 253.352869 
L 404.979666 266.332518 
L 405.33986 265.764386 
L 405.700054 258.292036 
L 406.060247 245.386316 
L 406.780635 209.176323 
L 407.501022 190.101818 
L 407.861216 189.884317 
L 409.662184 244.935579 
L 410.022378 245.322861 
L 411.463152 215.143364 
L 411.823346 218.620574 
L 412.18354 223.594179 
L 413.624314 271.651864 
L 413.984508 273.073971 
L 414.344701 264.730568 
L 414.704895 251.724989 
L 415.065089 230.637844 
L 415.785476 203.48738 
L 416.14567 195.094596 
L 416.505863 198.923945 
L 416.866057 205.311711 
L 417.946638 243.027287 
L 418.667025 248.368488 
L 419.747606 228.630997 
L 420.1078 225.789126 
L 420.467994 224.407209 
L 420.828187 226.153255 
L 422.268962 272.145289 
L 422.629155 271.607018 
L 422.989349 265.726431 
L 423.349543 253.416891 
L 424.06993 218.602827 
L 424.430124 202.808247 
L 424.790317 196.362139 
L 425.150511 195.679588 
L 425.510705 204.251436 
L 425.870898 215.507818 
L 426.231092 230.269933 
L 426.591286 239.274508 
L 427.311673 250.088581 
L 427.671867 243.213752 
L 428.752448 216.526716 
L 429.112641 218.992446 
L 429.472835 223.819333 
L 430.193222 249.776032 
L 430.553416 259.923067 
L 430.913609 266.686875 
L 431.273803 267.099723 
L 431.633997 262.253168 
L 432.354384 228.430394 
L 433.074771 196.427295 
L 433.434965 190.422948 
L 433.795159 190.604655 
L 434.155352 196.083094 
L 434.515546 205.946702 
L 434.87574 224.485802 
L 435.596127 238.569693 
L 435.956321 237.390408 
L 436.316514 234.447625 
L 436.676708 220.382367 
L 437.036902 216.543805 
L 437.397095 207.656535 
L 437.757289 210.518181 
L 438.117483 215.373467 
L 439.558257 259.135363 
L 439.918451 257.926728 
L 440.278644 249.589052 
L 440.638838 238.579732 
L 441.359225 199.353678 
L 441.719419 185.484035 
L 442.079613 180.116713 
L 442.439806 177.604881 
L 443.880581 221.298011 
L 444.240775 227.131933 
L 444.600968 222.883996 
L 444.961162 225.939823 
L 445.321356 212.313004 
L 446.041743 196.016469 
L 446.401937 196.871359 
L 446.76213 201.507773 
L 447.842711 243.180202 
L 448.202905 247.120083 
L 448.563098 246.211 
L 448.923292 239.700407 
L 450.72426 165.505598 
L 451.084454 170.98976 
L 451.444648 173.366233 
L 452.165035 197.802551 
L 452.525229 211.174524 
L 452.885422 218.2713 
L 453.245616 216.833158 
L 453.60581 213.467242 
L 454.326197 195.608506 
L 455.046584 187.688236 
L 455.406778 195.718237 
L 456.847552 240.022789 
L 457.207746 237.508218 
L 457.56794 233.245163 
L 459.008714 170.017366 
L 459.368908 165.151264 
L 459.729102 166.666198 
L 460.089295 171.031272 
L 460.809683 197.105213 
L 461.169876 208.901883 
L 461.53007 213.832382 
L 461.890264 214.502919 
L 462.250457 210.106526 
L 462.970845 191.356406 
L 463.331038 186.280904 
L 463.691232 189.217265 
L 464.051425 196.218561 
L 464.411619 212.163985 
L 464.771813 221.851731 
L 465.132006 236.168247 
L 465.4922 241.230052 
L 465.852394 239.660592 
L 466.212587 236.593715 
L 466.932975 205.057946 
L 467.653362 173.075295 
L 468.013556 168.403178 
L 468.373749 168.258986 
L 469.094137 185.553712 
L 469.45433 200.454754 
L 470.174718 218.983742 
L 470.534911 217.961935 
L 470.895105 215.431507 
L 471.255299 207.751064 
L 471.615492 196.997082 
L 472.33588 191.865 
L 472.696073 199.318391 
L 473.41646 225.641583 
L 473.776654 237.00647 
L 474.136848 243.800552 
L 474.497041 243.257029 
L 474.857235 241.290504 
L 475.937816 189.959665 
L 476.29801 179.150682 
L 476.658203 173.825797 
L 477.018397 176.635955 
L 477.378591 180.459193 
L 477.738784 195.883802 
L 478.459172 217.178695 
L 478.819365 223.935559 
L 479.179559 222.35708 
L 479.539753 219.178363 
L 480.26014 201.64638 
L 480.620334 192.928734 
L 480.980527 196.475999 
L 481.340721 204.451516 
L 482.781495 249.211075 
L 483.141689 248.516377 
L 483.501883 246.671711 
L 484.942657 180.981768 
L 485.302851 172.178916 
L 485.663045 172.448367 
L 486.023238 179.599662 
L 486.383432 190.489698 
L 487.103819 216.641794 
L 487.464013 221.12841 
L 487.824207 220.839045 
L 488.1844 217.868917 
L 488.904788 200.421889 
L 489.264981 195.485663 
L 489.625175 195.488834 
L 489.985368 200.206709 
L 490.345562 213.751501 
L 490.705756 222.799149 
L 491.065949 237.941695 
L 491.426143 244.712505 
L 491.786337 243.333114 
L 492.14653 235.589154 
L 492.506724 223.488705 
L 493.587305 174.657936 
L 493.947499 166.275694 
L 494.307692 166.196567 
L 494.667886 177.013615 
L 495.02808 182.264821 
L 495.388273 199.085695 
L 495.748467 209.621563 
L 496.108661 215.357874 
L 496.468854 214.637341 
L 496.829048 211.031472 
L 497.549435 190.750056 
L 497.909629 185.008119 
L 498.269822 183.222818 
L 498.630016 190.316495 
L 500.070791 233.605346 
L 500.430984 235.906015 
L 501.151372 213.287464 
L 501.871759 176.122537 
L 502.231953 162.383798 
L 502.592146 154.972319 
L 502.95234 157.115218 
L 503.312534 162.15173 
L 504.393115 196.699367 
L 504.753308 203.183243 
L 505.473696 198.799972 
L 506.194083 177.325149 
L 506.554276 173.549693 
L 506.91447 173.475129 
L 507.274664 182.624364 
L 507.634857 188.540706 
L 507.995051 200.354101 
L 508.355245 217.684716 
L 508.715438 222.81978 
L 509.075632 221.221338 
L 509.435826 217.381862 
L 510.156213 182.620769 
L 510.516407 164.728616 
L 511.236794 143.053608 
L 511.596988 143.786066 
L 511.957181 151.655285 
L 512.677569 176.327769 
L 513.037762 187.382212 
L 513.397956 190.273756 
L 513.75815 194.114443 
L 514.118343 189.188242 
L 514.838731 171.53778 
L 515.198924 170.366821 
L 515.559118 167.410309 
L 515.919311 171.907816 
L 516.279505 180.504862 
L 516.639699 192.236746 
L 516.999892 207.815316 
L 517.360086 211.876338 
L 517.72028 218.774322 
L 518.440667 195.305261 
L 518.800861 172.87478 
L 519.161054 162.365712 
L 519.521248 146.160766 
L 519.881442 140.500585 
L 520.241635 140.259822 
L 520.962023 155.451637 
L 521.322216 174.799015 
L 522.042604 193.049663 
L 522.402797 189.808802 
L 522.762991 185.222131 
L 523.843572 164.943317 
L 524.203765 164.799305 
L 524.563959 170.840492 
L 525.64454 210.469051 
L 526.004734 217.450857 
L 526.364927 218.223522 
L 526.725121 210.260671 
L 528.165896 149.761602 
L 528.886283 142.588465 
L 529.60667 160.652984 
L 530.327058 189.444197 
L 530.687251 195.021734 
L 531.047445 197.175308 
L 531.767832 184.189456 
L 532.128026 171.742367 
L 532.488219 167.20879 
L 532.848413 170.963991 
L 533.208607 175.965762 
L 533.5688 184.671951 
L 534.289188 214.569575 
L 534.649381 217.877588 
L 535.009575 222.673239 
L 535.729962 203.530684 
L 536.810543 152.632249 
L 537.170737 147.241036 
L 537.530931 148.914793 
L 537.891124 154.348892 
L 538.611512 180.244411 
L 538.971705 190.866379 
L 539.331899 196.23644 
L 539.692093 270.216417 
L 540.052286 192.739339 
L 540.41248 188.125144 
L 540.772673 178.694453 
L 541.132867 173.431276 
L 541.493061 173.551721 
L 541.853254 177.966271 
L 542.933835 215.92796 
L 543.294029 222.537494 
L 543.654223 224.712101 
L 544.014416 217.904603 
L 545.815385 149.177418 
L 546.175578 149.066862 
L 546.895966 167.235166 
L 547.616353 192.255144 
L 547.976547 197.983128 
L 548.33674 197.92485 
L 548.696934 194.306402 
L 549.057127 181.525556 
L 549.417321 178.520137 
L 549.777515 173.444405 
L 550.137708 172.924799 
L 550.497902 178.019087 
L 550.858096 187.447271 
L 551.578483 212.565266 
L 551.938677 221.462068 
L 552.29887 220.531677 
L 552.659064 213.872587 
L 553.379451 180.465435 
L 554.099839 149.228259 
L 554.460032 146.091868 
L 554.820226 140.905479 
L 556.261001 183.52386 
L 556.621194 192.087204 
L 556.981388 190.219435 
L 557.341581 184.191031 
L 557.701775 175.835996 
L 558.422162 163.542158 
L 558.782356 162.789056 
L 559.14255 167.892305 
L 559.502743 174.963792 
L 560.223131 204.738699 
L 560.583324 206.027994 
L 560.943518 211.287924 
L 561.303712 202.677534 
L 561.663905 190.148546 
L 562.744486 139.662452 
L 563.10468 131.497648 
L 563.464874 129.663378 
L 563.825067 135.632261 
L 564.545455 162.134779 
L 565.265842 177.622016 
L 565.626036 176.691854 
L 565.986229 172.455276 
L 567.06681 149.077837 
L 567.427004 150.738365 
L 567.787197 154.42792 
L 568.867778 193.657162 
L 569.227972 197.773683 
L 569.588166 199.608867 
L 569.948359 191.013795 
L 570.308553 179.319719 
L 571.389134 126.702769 
L 571.749328 116.998446 
L 572.109521 120.176469 
L 572.469715 127.685331 
L 573.550296 161.83862 
L 573.91049 166.98387 
L 574.270683 167.105999 
L 574.630877 166.15618 
L 574.99107 152.38775 
L 575.351264 147.057011 
L 576.071651 139.914269 
L 576.431845 148.083075 
L 577.512426 184.481648 
L 577.87262 191.122025 
L 578.232813 192.459137 
L 578.593007 185.160029 
L 578.953201 171.391888 
L 579.673588 133.883962 
L 580.033782 123.068086 
L 580.393975 117.798893 
L 580.754169 118.23918 
L 581.114363 123.401423 
L 581.474556 134.476676 
L 581.83475 151.048503 
L 582.555137 166.404844 
L 582.915331 164.134714 
L 583.275524 160.529334 
L 584.356105 142.295807 
L 584.716299 141.472067 
L 585.076493 148.609372 
L 585.436686 158.095915 
L 586.157074 186.367689 
L 586.517267 193.598392 
L 586.877461 193.487053 
L 587.237655 186.711147 
L 587.597848 174.463916 
L 588.678429 125.655814 
L 589.038623 118.135451 
L 589.398817 119.017497 
L 589.75901 125.684046 
L 590.479398 152.035636 
L 590.839591 163.668377 
L 591.559978 171.084795 
L 591.920172 166.742803 
L 592.280366 157.233753 
L 593.000753 146.075299 
L 593.360947 145.443929 
L 594.081334 163.724242 
L 594.441528 174.110006 
L 594.801721 191.026074 
L 595.161915 197.684835 
L 595.522109 200.291405 
L 596.242496 179.766409 
L 596.962883 144.511283 
L 597.683271 123.122405 
L 598.043464 123.942343 
L 598.403658 131.439562 
L 599.484239 169.998198 
L 599.844432 172.042367 
L 600.204626 176.202128 
L 600.56482 171.469535 
L 601.645401 149.013917 
L 602.005594 149.528392 
L 602.725982 166.282205 
L 603.086175 107.61512 
L 603.446369 190.816161 
L 603.806563 200.611139 
L 604.166756 202.907074 
L 604.52695 194.929763 
L 605.967725 131.189809 
L 606.327918 125.134649 
L 606.688112 127.41929 
L 607.048306 133.467079 
L 608.48908 176.794291 
L 608.849274 174.320138 
L 609.569661 162.325423 
L 609.929855 152.051092 
L 610.290048 147.091323 
L 610.650242 146.797731 
L 611.010436 152.869125 
L 612.091017 189.530217 
L 612.45121 194.548569 
L 612.811404 195.406013 
L 613.171598 191.312468 
L 613.531791 176.860922 
L 614.252179 137.508091 
L 614.972566 119.355958 
L 615.33276 118.771456 
L 615.692953 125.526501 
L 616.413341 149.768843 
L 616.773534 162.5065 
L 617.133728 166.626421 
L 617.493921 164.67806 
L 617.854115 160.75194 
L 618.574502 141.355185 
L 618.934696 138.438729 
L 619.29489 137.318476 
L 619.655083 142.607535 
L 620.735664 178.448659 
L 621.095858 184.967769 
L 621.456052 187.799503 
L 621.816245 181.337311 
L 622.176439 166.749188 
L 622.896826 128.209937 
L 623.25702 114.267199 
L 623.617214 107.748873 
L 623.977407 108.456124 
L 624.697795 123.7905 
L 625.057988 137.550009 
L 625.778375 155.431659 
L 626.138569 154.375129 
L 626.498763 153.680557 
L 626.858956 141.329107 
L 627.579344 125.888158 
L 627.939537 128.302511 
L 628.299731 131.964148 
L 628.659925 139.459892 
L 629.380312 168.854825 
L 629.740506 173.072599 
L 630.100699 174.644997 
L 630.460893 167.785496 
L 630.821087 153.841875 
L 631.18128 133.554719 
L 631.541474 120.85295 
L 631.901668 102.746079 
L 632.261861 95.681761 
L 632.622055 100.560908 
L 632.982249 103.775639 
L 634.062829 139.484484 
L 634.423023 145.894377 
L 634.783217 146.154162 
L 635.14341 135.483177 
L 635.503604 130.807199 
L 635.863798 123.254114 
L 636.584185 116.672835 
L 637.304572 132.223147 
L 638.02496 160.367914 
L 638.385153 167.058115 
L 638.745347 167.727214 
L 639.105541 159.426323 
L 639.825928 131.076034 
L 640.186122 110.48297 
L 640.906509 91.472517 
L 641.266703 92.187458 
L 641.626896 97.865017 
L 642.707477 138.868858 
L 643.427864 143.999613 
L 644.508445 124.560716 
L 644.868639 114.71559 
L 645.228833 120.137069 
L 645.589026 123.190568 
L 645.94922 131.239721 
L 646.669607 160.313899 
L 647.389995 173.005058 
L 647.750188 162.361041 
L 648.470576 129.890887 
L 648.830769 114.176599 
L 649.551157 94.438056 
L 649.91135 95.618669 
L 650.271544 102.500159 
L 650.631737 113.176882 
L 651.352125 140.623313 
L 651.712318 142.84205 
L 652.072512 148.614957 
L 652.432706 145.689308 
L 652.792899 134.573262 
L 653.153093 129.149916 
L 653.513287 120.48066 
L 653.87348 124.167674 
L 654.233674 129.464836 
L 654.954061 150.36931 
L 655.314255 165.27689 
L 655.674449 171.090954 
L 656.034642 172.978796 
L 656.394836 167.513758 
L 656.75503 156.701317 
L 657.475417 118.424398 
L 657.835611 109.435469 
L 658.195804 97.658006 
L 658.916192 106.493417 
L 659.636579 136.412345 
L 659.996772 148.542201 
L 660.356966 150.331681 
L 660.71716 154.742993 
L 661.077353 149.703204 
L 661.797741 129.50945 
L 662.157934 125.270301 
L 662.518128 127.576374 
L 662.878322 132.7012 
L 663.598709 159.583424 
L 664.319096 173.789733 
L 664.67929 176.952929 
L 665.039484 170.032974 
L 665.399677 160.686589 
L 665.759871 135.686578 
L 666.480258 105.393533 
L 666.840452 100.936145 
L 667.200646 100.893399 
L 667.560839 108.437707 
L 668.281226 137.24098 
L 668.64142 144.582728 
L 669.001614 146.104065 
L 669.361807 148.990432 
L 669.722001 141.868398 
L 670.082195 137.326718 
L 670.442388 127.372524 
L 670.802582 123.016375 
L 671.522969 127.007069 
L 672.60355 167.709913 
L 672.963744 172.71222 
L 673.323938 172.940596 
L 673.684131 167.171413 
L 675.124906 101.04504 
L 675.4851 94.259871 
L 675.845293 92.345177 
L 676.56568 114.31783 
L 676.925874 126.895984 
L 677.646261 143.333909 
L 678.006455 141.046208 
L 678.366649 135.317695 
L 679.087036 121.108196 
L 679.807423 115.409372 
L 680.167617 121.007966 
L 681.608392 161.669635 
L 681.968585 160.378933 
L 682.328779 156.723675 
L 683.769554 92.586305 
L 684.129747 84.316735 
L 684.489941 83.296346 
L 685.930715 124.240191 
L 686.651103 132.430487 
L 687.731684 110.157175 
L 688.091877 103.148963 
L 688.452071 100.459103 
L 689.172458 116.279085 
L 689.532652 132.862486 
L 689.892846 139.127843 
L 690.253039 149.6888 
L 690.613233 148.978885 
L 690.973427 144.470079 
L 691.33362 129.136599 
L 691.693814 108.569537 
L 692.414201 77.717551 
L 693.134588 73.696761 
L 693.494782 80.623384 
L 694.935557 120.517614 
L 695.29575 120.530068 
L 696.016138 110.159735 
L 696.376331 99.178615 
L 696.736525 93.746431 
L 697.096719 94.644967 
L 697.456912 100.136758 
L 698.897687 143.394252 
L 699.257881 145.103572 
L 699.618074 138.157521 
L 701.058849 74.03385 
L 701.419042 66.96 
L 701.779236 70.026035 
L 702.499623 88.098589 
L 702.859817 103.490757 
L 703.580204 117.883559 
L 703.940398 119.941053 
L 704.300592 114.088343 
L 705.020979 100.170975 
L 705.381173 93.811012 
L 705.741366 94.692344 
L 706.10156 101.369966 
L 707.182141 136.730855 
L 707.542335 143.45993 
L 707.902528 145.009499 
L 708.262722 139.653671 
L 708.622916 128.517462 
L 708.983109 103.842187 
L 709.703497 75.226427 
L 710.423884 71.130351 
L 710.784077 78.793253 
L 711.504465 106.848474 
L 712.224852 122.90148 
L 712.585046 124.660821 
L 712.945239 120.433739 
L 714.02582 96.2215 
L 714.746208 103.856484 
L 715.106401 118.801521 
L 715.826789 139.119722 
L 716.186982 150.995084 
L 716.547176 152.078517 
L 717.267563 130.622939 
L 717.627757 109.259294 
L 717.987951 97.534135 
L 718.348144 82.023052 
L 718.708338 75.666549 
L 719.068531 77.38142 
L 719.428725 80.881353 
L 719.788919 100.15797 
L 720.149112 107.352862 
L 720.509306 120.86855 
L 720.8695 128.03289 
L 721.589887 120.205026 
L 721.950081 114.900315 
L 722.310274 107.844002 
L 722.670468 103.97284 
L 723.030662 103.570814 
L 723.390855 109.028728 
L 723.751049 123.497083 
L 724.111243 132.318 
L 724.471436 146.857444 
L 724.83163 152.23576 
L 725.191824 150.95577 
L 725.552017 144.078074 
L 726.992792 83.02455 
L 727.713179 76.229732 
L 728.433566 94.345988 
L 729.153954 123.338502 
L 729.514147 125.883953 
L 729.874341 126.907225 
L 730.234535 118.447505 
L 730.594728 114.651394 
L 730.954922 104.667859 
L 731.675309 99.955532 
L 732.395697 118.390804 
L 732.75589 130.932092 
L 733.476278 146.760901 
L 733.836471 149.994245 
L 734.196665 141.853503 
L 734.917052 110.352931 
L 735.277246 91.222189 
L 735.637439 78.730264 
L 735.997633 72.373307 
L 736.357827 71.079698 
L 736.71802 78.474803 
L 737.438408 101.729888 
L 738.158795 116.118861 
L 738.518989 118.554983 
L 739.239376 103.688181 
L 739.959763 91.004431 
L 740.319957 89.857103 
L 741.040344 105.92056 
L 741.400538 120.970863 
L 742.120925 141.115019 
L 742.481119 141.080038 
L 742.841313 132.981181 
L 743.201506 112.075829 
L 743.201506 112.075829 
" style="fill:none;stroke:#1f77b4;stroke-linecap:square;stroke-width:1.5;"/>
   </g>
   <g id="line2d_15">
    <path clip-path="url(#p68b88f177d)" d="M 747.163636 384.48 
L 747.163636 51.84 
" style="fill:none;stroke:#808080;stroke-linecap:square;"/>
   </g>
   <g id="patch_103">
    <path d="M 108 384.48 
L 108 51.84 
" style="fill:none;stroke:#000000;stroke-linecap:square;stroke-linejoin:miter;stroke-width:0.8;"/>
   </g>
   <g id="patch_104">
    <path d="M 777.6 384.48 
L 777.6 51.84 
" style="fill:none;stroke:#000000;stroke-linecap:square;stroke-linejoin:miter;stroke-width:0.8;"/>
   </g>
   <g id="patch_105">
    <path d="M 108 384.48 
L 777.6 384.48 
" style="fill:none;stroke:#000000;stroke-linecap:square;stroke-linejoin:miter;stroke-width:0.8;"/>
   </g>
   <g id="patch_106">
    <path d="M 108 51.84 
L 777.6 51.84 
" style="fill:none;stroke:#000000;stroke-linecap:square;stroke-linejoin:miter;stroke-width:0.8;"/>
   </g>
   <g id="text_16">
    <!-- A3Benchmark-TS25.csv -->
    <defs>
     <path d="M 34.1875 63.1875 
L 20.796875 26.90625 
L 47.609375 26.90625 
z
M 28.609375 72.90625 
L 39.796875 72.90625 
L 67.578125 0 
L 57.328125 0 
L 50.6875 18.703125 
L 17.828125 18.703125 
L 11.1875 0 
L 0.78125 0 
z
" id="DejaVuSans-65"/>
     <path d="M 19.671875 34.8125 
L 19.671875 8.109375 
L 35.5 8.109375 
Q 43.453125 8.109375 47.28125 11.40625 
Q 51.125 14.703125 51.125 21.484375 
Q 51.125 28.328125 47.28125 31.5625 
Q 43.453125 34.8125 35.5 34.8125 
z
M 19.671875 64.796875 
L 19.671875 42.828125 
L 34.28125 42.828125 
Q 41.5 42.828125 45.03125 45.53125 
Q 48.578125 48.25 48.578125 53.8125 
Q 48.578125 59.328125 45.03125 62.0625 
Q 41.5 64.796875 34.28125 64.796875 
z
M 9.8125 72.90625 
L 35.015625 72.90625 
Q 46.296875 72.90625 52.390625 68.21875 
Q 58.5 63.53125 58.5 54.890625 
Q 58.5 48.1875 55.375 44.234375 
Q 52.25 40.28125 46.1875 39.3125 
Q 53.46875 37.75 57.5 32.78125 
Q 61.53125 27.828125 61.53125 20.40625 
Q 61.53125 10.640625 54.890625 5.3125 
Q 48.25 0 35.984375 0 
L 9.8125 0 
z
" id="DejaVuSans-66"/>
     <path d="M 54.890625 33.015625 
L 54.890625 0 
L 45.90625 0 
L 45.90625 32.71875 
Q 45.90625 40.484375 42.875 44.328125 
Q 39.84375 48.1875 33.796875 48.1875 
Q 26.515625 48.1875 22.3125 43.546875 
Q 18.109375 38.921875 18.109375 30.90625 
L 18.109375 0 
L 9.078125 0 
L 9.078125 54.6875 
L 18.109375 54.6875 
L 18.109375 46.1875 
Q 21.34375 51.125 25.703125 53.5625 
Q 30.078125 56 35.796875 56 
Q 45.21875 56 50.046875 50.171875 
Q 54.890625 44.34375 54.890625 33.015625 
z
" id="DejaVuSans-110"/>
     <path d="M 48.78125 52.59375 
L 48.78125 44.1875 
Q 44.96875 46.296875 41.140625 47.34375 
Q 37.3125 48.390625 33.40625 48.390625 
Q 24.65625 48.390625 19.8125 42.84375 
Q 14.984375 37.3125 14.984375 27.296875 
Q 14.984375 17.28125 19.8125 11.734375 
Q 24.65625 6.203125 33.40625 6.203125 
Q 37.3125 6.203125 41.140625 7.25 
Q 44.96875 8.296875 48.78125 10.40625 
L 48.78125 2.09375 
Q 45.015625 0.34375 40.984375 -0.53125 
Q 36.96875 -1.421875 32.421875 -1.421875 
Q 20.0625 -1.421875 12.78125 6.34375 
Q 5.515625 14.109375 5.515625 27.296875 
Q 5.515625 40.671875 12.859375 48.328125 
Q 20.21875 56 33.015625 56 
Q 37.15625 56 41.109375 55.140625 
Q 45.0625 54.296875 48.78125 52.59375 
z
" id="DejaVuSans-99"/>
     <path d="M 54.890625 33.015625 
L 54.890625 0 
L 45.90625 0 
L 45.90625 32.71875 
Q 45.90625 40.484375 42.875 44.328125 
Q 39.84375 48.1875 33.796875 48.1875 
Q 26.515625 48.1875 22.3125 43.546875 
Q 18.109375 38.921875 18.109375 30.90625 
L 18.109375 0 
L 9.078125 0 
L 9.078125 75.984375 
L 18.109375 75.984375 
L 18.109375 46.1875 
Q 21.34375 51.125 25.703125 53.5625 
Q 30.078125 56 35.796875 56 
Q 45.21875 56 50.046875 50.171875 
Q 54.890625 44.34375 54.890625 33.015625 
z
" id="DejaVuSans-104"/>
     <path d="M 41.109375 46.296875 
Q 39.59375 47.171875 37.8125 47.578125 
Q 36.03125 48 33.890625 48 
Q 26.265625 48 22.1875 43.046875 
Q 18.109375 38.09375 18.109375 28.8125 
L 18.109375 0 
L 9.078125 0 
L 9.078125 54.6875 
L 18.109375 54.6875 
L 18.109375 46.1875 
Q 20.953125 51.171875 25.484375 53.578125 
Q 30.03125 56 36.53125 56 
Q 37.453125 56 38.578125 55.875 
Q 39.703125 55.765625 41.0625 55.515625 
z
" id="DejaVuSans-114"/>
     <path d="M 9.078125 75.984375 
L 18.109375 75.984375 
L 18.109375 31.109375 
L 44.921875 54.6875 
L 56.390625 54.6875 
L 27.390625 29.109375 
L 57.625 0 
L 45.90625 0 
L 18.109375 26.703125 
L 18.109375 0 
L 9.078125 0 
z
" id="DejaVuSans-107"/>
     <path d="M 4.890625 31.390625 
L 31.203125 31.390625 
L 31.203125 23.390625 
L 4.890625 23.390625 
z
" id="DejaVuSans-45"/>
     <path d="M 53.515625 70.515625 
L 53.515625 60.890625 
Q 47.90625 63.578125 42.921875 64.890625 
Q 37.9375 66.21875 33.296875 66.21875 
Q 25.25 66.21875 20.875 63.09375 
Q 16.5 59.96875 16.5 54.203125 
Q 16.5 49.359375 19.40625 46.890625 
Q 22.3125 44.4375 30.421875 42.921875 
L 36.375 41.703125 
Q 47.40625 39.59375 52.65625 34.296875 
Q 57.90625 29 57.90625 20.125 
Q 57.90625 9.515625 50.796875 4.046875 
Q 43.703125 -1.421875 29.984375 -1.421875 
Q 24.8125 -1.421875 18.96875 -0.25 
Q 13.140625 0.921875 6.890625 3.21875 
L 6.890625 13.375 
Q 12.890625 10.015625 18.65625 8.296875 
Q 24.421875 6.59375 29.984375 6.59375 
Q 38.421875 6.59375 43.015625 9.90625 
Q 47.609375 13.234375 47.609375 19.390625 
Q 47.609375 24.75 44.3125 27.78125 
Q 41.015625 30.8125 33.5 32.328125 
L 27.484375 33.5 
Q 16.453125 35.6875 11.515625 40.375 
Q 6.59375 45.0625 6.59375 53.421875 
Q 6.59375 63.09375 13.40625 68.65625 
Q 20.21875 74.21875 32.171875 74.21875 
Q 37.3125 74.21875 42.625 73.28125 
Q 47.953125 72.359375 53.515625 70.515625 
z
" id="DejaVuSans-83"/>
     <path d="M 10.6875 12.40625 
L 21 12.40625 
L 21 0 
L 10.6875 0 
z
" id="DejaVuSans-46"/>
     <path d="M 2.984375 54.6875 
L 12.5 54.6875 
L 29.59375 8.796875 
L 46.6875 54.6875 
L 56.203125 54.6875 
L 35.6875 0 
L 23.484375 0 
z
" id="DejaVuSans-118"/>
    </defs>
    <g transform="translate(371.555625 45.84)scale(0.12 -0.12)">
     <use xlink:href="#DejaVuSans-65"/>
     <use x="68.408203" xlink:href="#DejaVuSans-51"/>
     <use x="132.03125" xlink:href="#DejaVuSans-66"/>
     <use x="200.634766" xlink:href="#DejaVuSans-101"/>
     <use x="262.158203" xlink:href="#DejaVuSans-110"/>
     <use x="325.537109" xlink:href="#DejaVuSans-99"/>
     <use x="380.517578" xlink:href="#DejaVuSans-104"/>
     <use x="443.896484" xlink:href="#DejaVuSans-109"/>
     <use x="541.308594" xlink:href="#DejaVuSans-97"/>
     <use x="602.587891" xlink:href="#DejaVuSans-114"/>
     <use x="643.701172" xlink:href="#DejaVuSans-107"/>
     <use x="701.611328" xlink:href="#DejaVuSans-45"/>
     <use x="737.554688" xlink:href="#DejaVuSans-84"/>
     <use x="798.638672" xlink:href="#DejaVuSans-83"/>
     <use x="862.115234" xlink:href="#DejaVuSans-50"/>
     <use x="925.738281" xlink:href="#DejaVuSans-53"/>
     <use x="989.361328" xlink:href="#DejaVuSans-46"/>
     <use x="1021.148438" xlink:href="#DejaVuSans-99"/>
     <use x="1076.128906" xlink:href="#DejaVuSans-115"/>
     <use x="1128.228516" xlink:href="#DejaVuSans-118"/>
    </g>
   </g>
   <g id="legend_1">
    <g id="patch_107">
     <path d="M 115 74.518125 
L 174.315625 74.518125 
Q 176.315625 74.518125 176.315625 72.518125 
L 176.315625 58.84 
Q 176.315625 56.84 174.315625 56.84 
L 115 56.84 
Q 113 56.84 113 58.84 
L 113 72.518125 
Q 113 74.518125 115 74.518125 
z
" style="fill:#ffffff;opacity:0.8;stroke:#cccccc;stroke-linejoin:miter;"/>
    </g>
    <g id="line2d_16">
     <path d="M 117 64.938438 
L 137 64.938438 
" style="fill:none;stroke:#1f77b4;stroke-linecap:square;stroke-width:1.5;"/>
    </g>
    <g id="line2d_17"/>
    <g id="text_17">
     <!-- value -->
     <g transform="translate(145 68.438438)scale(0.1 -0.1)">
      <use xlink:href="#DejaVuSans-118"/>
      <use x="59.179688" xlink:href="#DejaVuSans-97"/>
      <use x="120.458984" xlink:href="#DejaVuSans-108"/>
      <use x="148.242188" xlink:href="#DejaVuSans-117"/>
      <use x="211.621094" xlink:href="#DejaVuSans-101"/>
     </g>
    </g>
   </g>
  </g>
 </g>
 <defs>
  <clipPath id="p68b88f177d">
   <rect height="332.64" width="669.6" x="108" y="51.84"/>
  </clipPath>
 </defs>
</svg>
