<?xml version="1.0" encoding="utf-8" standalone="no"?>
<!DOCTYPE svg PUBLIC "-//W3C//DTD SVG 1.1//EN"
  "http://www.w3.org/Graphics/SVG/1.1/DTD/svg11.dtd">
<!-- Created with matplotlib (https://matplotlib.org/) -->
<svg height="432pt" version="1.1" viewBox="0 0 864 432" width="864pt" xmlns="http://www.w3.org/2000/svg" xmlns:xlink="http://www.w3.org/1999/xlink">
 <defs>
  <style type="text/css">
*{stroke-linecap:butt;stroke-linejoin:round;}
  </style>
 </defs>
 <g id="figure_1">
  <g id="patch_1">
   <path d="M 0 432 
L 864 432 
L 864 0 
L 0 0 
z
" style="fill:#ffffff;"/>
  </g>
  <g id="axes_1">
   <g id="patch_2">
    <path d="M 108 384.48 
L 777.6 384.48 
L 777.6 51.84 
L 108 51.84 
z
" style="fill:#ffffff;"/>
   </g>
   <g id="patch_3">
    <path clip-path="url(#p6ea23ffcb3)" d="M 138.436364 384.48 
L 138.436364 51.84 
L 440.999032 51.84 
L 440.999032 384.48 
z
" style="fill:#0000ff;opacity:0.05;"/>
   </g>
   <g id="patch_4">
    <path clip-path="url(#p6ea23ffcb3)" d="M 440.999032 384.48 
L 440.999032 51.84 
L 747.163636 51.84 
L 747.163636 384.48 
z
" style="fill:#ff0000;opacity:0.08;"/>
   </g>
   <g id="patch_5">
    <path clip-path="url(#p6ea23ffcb3)" d="M 138.436364 384.48 
L 138.436364 51.84 
L 142.0383 51.84 
L 142.0383 384.48 
z
" style="fill:#008000;opacity:0.04;"/>
   </g>
   <g id="patch_6">
    <path clip-path="url(#p6ea23ffcb3)" d="M 145.640237 384.48 
L 145.640237 51.84 
L 149.242173 51.84 
L 149.242173 384.48 
z
" style="fill:#008000;opacity:0.04;"/>
   </g>
   <g id="patch_7">
    <path clip-path="url(#p6ea23ffcb3)" d="M 152.84411 384.48 
L 152.84411 51.84 
L 156.446046 51.84 
L 156.446046 384.48 
z
" style="fill:#008000;opacity:0.04;"/>
   </g>
   <g id="patch_8">
    <path clip-path="url(#p6ea23ffcb3)" d="M 160.047983 384.48 
L 160.047983 51.84 
L 163.649919 51.84 
L 163.649919 384.48 
z
" style="fill:#008000;opacity:0.04;"/>
   </g>
   <g id="patch_9">
    <path clip-path="url(#p6ea23ffcb3)" d="M 167.251856 384.48 
L 167.251856 51.84 
L 170.853792 51.84 
L 170.853792 384.48 
z
" style="fill:#008000;opacity:0.04;"/>
   </g>
   <g id="patch_10">
    <path clip-path="url(#p6ea23ffcb3)" d="M 174.455729 384.48 
L 174.455729 51.84 
L 178.057665 51.84 
L 178.057665 384.48 
z
" style="fill:#008000;opacity:0.04;"/>
   </g>
   <g id="patch_11">
    <path clip-path="url(#p6ea23ffcb3)" d="M 174.455729 371.1744 
L 174.455729 51.84 
L 178.057665 51.84 
L 178.057665 371.1744 
z
" style="fill:#008000;opacity:0.5;"/>
   </g>
   <g id="patch_12">
    <path clip-path="url(#p6ea23ffcb3)" d="M 174.455729 384.48 
L 174.455729 371.1744 
L 178.057665 371.1744 
L 178.057665 384.48 
z
" style="fill:#ffe500;"/>
   </g>
   <g id="patch_13">
    <path clip-path="url(#p6ea23ffcb3)" d="M 181.659602 384.48 
L 181.659602 51.84 
L 185.261538 51.84 
L 185.261538 384.48 
z
" style="fill:#008000;opacity:0.04;"/>
   </g>
   <g id="patch_14">
    <path clip-path="url(#p6ea23ffcb3)" d="M 188.863475 384.48 
L 188.863475 51.84 
L 192.465412 51.84 
L 192.465412 384.48 
z
" style="fill:#008000;opacity:0.04;"/>
   </g>
   <g id="patch_15">
    <path clip-path="url(#p6ea23ffcb3)" d="M 196.067348 384.48 
L 196.067348 51.84 
L 199.669285 51.84 
L 199.669285 384.48 
z
" style="fill:#008000;opacity:0.04;"/>
   </g>
   <g id="patch_16">
    <path clip-path="url(#p6ea23ffcb3)" d="M 498.630016 384.48 
L 498.630016 371.1744 
L 502.231953 371.1744 
L 502.231953 384.48 
z
" style="fill:#ff6600;"/>
   </g>
   <g id="patch_17">
    <path clip-path="url(#p6ea23ffcb3)" d="M 203.271221 384.48 
L 203.271221 51.84 
L 206.873158 51.84 
L 206.873158 384.48 
z
" style="fill:#008000;opacity:0.04;"/>
   </g>
   <g id="patch_18">
    <path clip-path="url(#p6ea23ffcb3)" d="M 210.475094 384.48 
L 210.475094 51.84 
L 214.077031 51.84 
L 214.077031 384.48 
z
" style="fill:#008000;opacity:0.04;"/>
   </g>
   <g id="patch_19">
    <path clip-path="url(#p6ea23ffcb3)" d="M 513.037762 384.48 
L 513.037762 371.1744 
L 516.639699 371.1744 
L 516.639699 384.48 
z
" style="fill:#ff6600;"/>
   </g>
   <g id="patch_20">
    <path clip-path="url(#p6ea23ffcb3)" d="M 214.077031 371.1744 
L 214.077031 51.84 
L 217.678967 51.84 
L 217.678967 371.1744 
z
" style="fill:#008000;opacity:0.5;"/>
   </g>
   <g id="patch_21">
    <path clip-path="url(#p6ea23ffcb3)" d="M 214.077031 384.48 
L 214.077031 371.1744 
L 217.678967 371.1744 
L 217.678967 384.48 
z
" style="fill:#ffe500;"/>
   </g>
   <g id="patch_22">
    <path clip-path="url(#p6ea23ffcb3)" d="M 217.678967 384.48 
L 217.678967 51.84 
L 221.280904 51.84 
L 221.280904 384.48 
z
" style="fill:#008000;opacity:0.04;"/>
   </g>
   <g id="patch_23">
    <path clip-path="url(#p6ea23ffcb3)" d="M 224.88284 384.48 
L 224.88284 51.84 
L 228.484777 51.84 
L 228.484777 384.48 
z
" style="fill:#008000;opacity:0.04;"/>
   </g>
   <g id="patch_24">
    <path clip-path="url(#p6ea23ffcb3)" d="M 232.086713 384.48 
L 232.086713 51.84 
L 235.68865 51.84 
L 235.68865 384.48 
z
" style="fill:#008000;opacity:0.04;"/>
   </g>
   <g id="patch_25">
    <path clip-path="url(#p6ea23ffcb3)" d="M 239.290586 384.48 
L 239.290586 51.84 
L 242.892523 51.84 
L 242.892523 384.48 
z
" style="fill:#008000;opacity:0.04;"/>
   </g>
   <g id="patch_26">
    <path clip-path="url(#p6ea23ffcb3)" d="M 246.494459 384.48 
L 246.494459 51.84 
L 250.096396 51.84 
L 250.096396 384.48 
z
" style="fill:#008000;opacity:0.04;"/>
   </g>
   <g id="patch_27">
    <path clip-path="url(#p6ea23ffcb3)" d="M 253.698332 384.48 
L 253.698332 51.84 
L 257.300269 51.84 
L 257.300269 384.48 
z
" style="fill:#008000;opacity:0.04;"/>
   </g>
   <g id="patch_28">
    <path clip-path="url(#p6ea23ffcb3)" d="M 260.902205 384.48 
L 260.902205 51.84 
L 264.504142 51.84 
L 264.504142 384.48 
z
" style="fill:#008000;opacity:0.04;"/>
   </g>
   <g id="patch_29">
    <path clip-path="url(#p6ea23ffcb3)" d="M 268.106079 384.48 
L 268.106079 51.84 
L 271.708015 51.84 
L 271.708015 384.48 
z
" style="fill:#008000;opacity:0.04;"/>
   </g>
   <g id="patch_30">
    <path clip-path="url(#p6ea23ffcb3)" d="M 268.106079 371.1744 
L 268.106079 51.84 
L 271.708015 51.84 
L 271.708015 371.1744 
z
" style="fill:#008000;opacity:0.5;"/>
   </g>
   <g id="patch_31">
    <path clip-path="url(#p6ea23ffcb3)" d="M 268.106079 384.48 
L 268.106079 371.1744 
L 271.708015 371.1744 
L 271.708015 384.48 
z
" style="fill:#ffe500;"/>
   </g>
   <g id="patch_32">
    <path clip-path="url(#p6ea23ffcb3)" d="M 275.309952 384.48 
L 275.309952 51.84 
L 278.911888 51.84 
L 278.911888 384.48 
z
" style="fill:#008000;opacity:0.04;"/>
   </g>
   <g id="patch_33">
    <path clip-path="url(#p6ea23ffcb3)" d="M 282.513825 384.48 
L 282.513825 51.84 
L 286.115761 51.84 
L 286.115761 384.48 
z
" style="fill:#008000;opacity:0.04;"/>
   </g>
   <g id="patch_34">
    <path clip-path="url(#p6ea23ffcb3)" d="M 585.076493 384.48 
L 585.076493 371.1744 
L 588.678429 371.1744 
L 588.678429 384.48 
z
" style="fill:#ff6600;"/>
   </g>
   <g id="patch_35">
    <path clip-path="url(#p6ea23ffcb3)" d="M 289.717698 384.48 
L 289.717698 51.84 
L 293.319634 51.84 
L 293.319634 384.48 
z
" style="fill:#008000;opacity:0.04;"/>
   </g>
   <g id="patch_36">
    <path clip-path="url(#p6ea23ffcb3)" d="M 296.921571 384.48 
L 296.921571 51.84 
L 300.523507 51.84 
L 300.523507 384.48 
z
" style="fill:#008000;opacity:0.04;"/>
   </g>
   <g id="patch_37">
    <path clip-path="url(#p6ea23ffcb3)" d="M 304.125444 384.48 
L 304.125444 51.84 
L 307.72738 51.84 
L 307.72738 384.48 
z
" style="fill:#008000;opacity:0.04;"/>
   </g>
   <g id="patch_38">
    <path clip-path="url(#p6ea23ffcb3)" d="M 610.290048 384.48 
L 610.290048 371.1744 
L 613.891985 371.1744 
L 613.891985 384.48 
z
" style="fill:#ff6600;"/>
   </g>
   <g id="patch_39">
    <path clip-path="url(#p6ea23ffcb3)" d="M 311.329317 384.48 
L 311.329317 51.84 
L 314.931253 51.84 
L 314.931253 384.48 
z
" style="fill:#008000;opacity:0.04;"/>
   </g>
   <g id="patch_40">
    <path clip-path="url(#p6ea23ffcb3)" d="M 311.329317 371.1744 
L 311.329317 51.84 
L 314.931253 51.84 
L 314.931253 371.1744 
z
" style="fill:#008000;opacity:0.5;"/>
   </g>
   <g id="patch_41">
    <path clip-path="url(#p6ea23ffcb3)" d="M 311.329317 384.48 
L 311.329317 371.1744 
L 314.931253 371.1744 
L 314.931253 384.48 
z
" style="fill:#ffe500;"/>
   </g>
   <g id="patch_42">
    <path clip-path="url(#p6ea23ffcb3)" d="M 318.53319 384.48 
L 318.53319 51.84 
L 322.135126 51.84 
L 322.135126 384.48 
z
" style="fill:#008000;opacity:0.04;"/>
   </g>
   <g id="patch_43">
    <path clip-path="url(#p6ea23ffcb3)" d="M 318.53319 371.1744 
L 318.53319 51.84 
L 322.135126 51.84 
L 322.135126 371.1744 
z
" style="fill:#008000;opacity:0.5;"/>
   </g>
   <g id="patch_44">
    <path clip-path="url(#p6ea23ffcb3)" d="M 318.53319 384.48 
L 318.53319 371.1744 
L 322.135126 371.1744 
L 322.135126 384.48 
z
" style="fill:#ffe500;"/>
   </g>
   <g id="patch_45">
    <path clip-path="url(#p6ea23ffcb3)" d="M 325.737063 384.48 
L 325.737063 51.84 
L 329.338999 51.84 
L 329.338999 384.48 
z
" style="fill:#008000;opacity:0.04;"/>
   </g>
   <g id="patch_46">
    <path clip-path="url(#p6ea23ffcb3)" d="M 332.940936 384.48 
L 332.940936 51.84 
L 336.542873 51.84 
L 336.542873 384.48 
z
" style="fill:#008000;opacity:0.04;"/>
   </g>
   <g id="patch_47">
    <path clip-path="url(#p6ea23ffcb3)" d="M 340.144809 384.48 
L 340.144809 51.84 
L 343.746746 51.84 
L 343.746746 384.48 
z
" style="fill:#008000;opacity:0.04;"/>
   </g>
   <g id="patch_48">
    <path clip-path="url(#p6ea23ffcb3)" d="M 340.144809 371.1744 
L 340.144809 51.84 
L 343.746746 51.84 
L 343.746746 371.1744 
z
" style="fill:#008000;opacity:0.5;"/>
   </g>
   <g id="patch_49">
    <path clip-path="url(#p6ea23ffcb3)" d="M 340.144809 384.48 
L 340.144809 371.1744 
L 343.746746 371.1744 
L 343.746746 384.48 
z
" style="fill:#ffe500;"/>
   </g>
   <g id="patch_50">
    <path clip-path="url(#p6ea23ffcb3)" d="M 347.348682 384.48 
L 347.348682 51.84 
L 350.950619 51.84 
L 350.950619 384.48 
z
" style="fill:#008000;opacity:0.04;"/>
   </g>
   <g id="patch_51">
    <path clip-path="url(#p6ea23ffcb3)" d="M 354.552555 384.48 
L 354.552555 51.84 
L 358.154492 51.84 
L 358.154492 384.48 
z
" style="fill:#008000;opacity:0.04;"/>
   </g>
   <g id="patch_52">
    <path clip-path="url(#p6ea23ffcb3)" d="M 361.756428 384.48 
L 361.756428 51.84 
L 365.358365 51.84 
L 365.358365 384.48 
z
" style="fill:#008000;opacity:0.04;"/>
   </g>
   <g id="patch_53">
    <path clip-path="url(#p6ea23ffcb3)" d="M 368.960301 384.48 
L 368.960301 51.84 
L 372.562238 51.84 
L 372.562238 384.48 
z
" style="fill:#008000;opacity:0.04;"/>
   </g>
   <g id="patch_54">
    <path clip-path="url(#p6ea23ffcb3)" d="M 368.960301 371.1744 
L 368.960301 51.84 
L 372.562238 51.84 
L 372.562238 371.1744 
z
" style="fill:#008000;opacity:0.5;"/>
   </g>
   <g id="patch_55">
    <path clip-path="url(#p6ea23ffcb3)" d="M 376.164174 384.48 
L 376.164174 51.84 
L 379.766111 51.84 
L 379.766111 384.48 
z
" style="fill:#008000;opacity:0.04;"/>
   </g>
   <g id="patch_56">
    <path clip-path="url(#p6ea23ffcb3)" d="M 682.328779 384.48 
L 682.328779 371.1744 
L 685.930715 371.1744 
L 685.930715 384.48 
z
" style="fill:#ff6600;"/>
   </g>
   <g id="patch_57">
    <path clip-path="url(#p6ea23ffcb3)" d="M 383.368047 384.48 
L 383.368047 51.84 
L 386.969984 51.84 
L 386.969984 384.48 
z
" style="fill:#008000;opacity:0.04;"/>
   </g>
   <g id="patch_58">
    <path clip-path="url(#p6ea23ffcb3)" d="M 390.57192 384.48 
L 390.57192 51.84 
L 394.173857 51.84 
L 394.173857 384.48 
z
" style="fill:#008000;opacity:0.04;"/>
   </g>
   <g id="patch_59">
    <path clip-path="url(#p6ea23ffcb3)" d="M 397.775793 384.48 
L 397.775793 51.84 
L 401.37773 51.84 
L 401.37773 384.48 
z
" style="fill:#008000;opacity:0.04;"/>
   </g>
   <g id="patch_60">
    <path clip-path="url(#p6ea23ffcb3)" d="M 397.775793 371.1744 
L 397.775793 51.84 
L 401.37773 51.84 
L 401.37773 371.1744 
z
" style="fill:#008000;opacity:0.5;"/>
   </g>
   <g id="patch_61">
    <path clip-path="url(#p6ea23ffcb3)" d="M 397.775793 384.48 
L 397.775793 371.1744 
L 401.37773 371.1744 
L 401.37773 384.48 
z
" style="fill:#ffe500;"/>
   </g>
   <g id="patch_62">
    <path clip-path="url(#p6ea23ffcb3)" d="M 404.979666 384.48 
L 404.979666 51.84 
L 408.581603 51.84 
L 408.581603 384.48 
z
" style="fill:#008000;opacity:0.04;"/>
   </g>
   <g id="patch_63">
    <path clip-path="url(#p6ea23ffcb3)" d="M 707.542335 384.48 
L 707.542335 371.1744 
L 711.144271 371.1744 
L 711.144271 384.48 
z
" style="fill:#ff6600;"/>
   </g>
   <g id="patch_64">
    <path clip-path="url(#p6ea23ffcb3)" d="M 412.18354 384.48 
L 412.18354 51.84 
L 415.785476 51.84 
L 415.785476 384.48 
z
" style="fill:#008000;opacity:0.04;"/>
   </g>
   <g id="patch_65">
    <path clip-path="url(#p6ea23ffcb3)" d="M 415.785476 371.1744 
L 415.785476 51.84 
L 419.387413 51.84 
L 419.387413 371.1744 
z
" style="fill:#008000;opacity:0.5;"/>
   </g>
   <g id="patch_66">
    <path clip-path="url(#p6ea23ffcb3)" d="M 415.785476 384.48 
L 415.785476 371.1744 
L 419.387413 371.1744 
L 419.387413 384.48 
z
" style="fill:#ffe500;"/>
   </g>
   <g id="patch_67">
    <path clip-path="url(#p6ea23ffcb3)" d="M 419.387413 384.48 
L 419.387413 51.84 
L 422.989349 51.84 
L 422.989349 384.48 
z
" style="fill:#008000;opacity:0.04;"/>
   </g>
   <g id="patch_68">
    <path clip-path="url(#p6ea23ffcb3)" d="M 725.552017 384.48 
L 725.552017 371.1744 
L 729.153954 371.1744 
L 729.153954 384.48 
z
" style="fill:#ff6600;"/>
   </g>
   <g id="patch_69">
    <path clip-path="url(#p6ea23ffcb3)" d="M 426.591286 384.48 
L 426.591286 51.84 
L 430.193222 51.84 
L 430.193222 384.48 
z
" style="fill:#008000;opacity:0.04;"/>
   </g>
   <g id="patch_70">
    <path clip-path="url(#p6ea23ffcb3)" d="M 433.795159 384.48 
L 433.795159 51.84 
L 437.397095 51.84 
L 437.397095 384.48 
z
" style="fill:#008000;opacity:0.04;"/>
   </g>
   <g id="patch_71">
    <path clip-path="url(#p6ea23ffcb3)" d="M 440.999032 384.48 
L 440.999032 51.84 
L 444.600968 51.84 
L 444.600968 384.48 
z
" style="fill:#008000;opacity:0.04;"/>
   </g>
   <g id="patch_72">
    <path clip-path="url(#p6ea23ffcb3)" d="M 743.5617 384.48 
L 743.5617 371.1744 
L 747.163636 371.1744 
L 747.163636 384.48 
z
" style="fill:#ff6600;"/>
   </g>
   <g id="patch_73">
    <path clip-path="url(#p6ea23ffcb3)" d="M 448.202905 384.48 
L 448.202905 51.84 
L 451.804841 51.84 
L 451.804841 384.48 
z
" style="fill:#008000;opacity:0.04;"/>
   </g>
   <g id="patch_74">
    <path clip-path="url(#p6ea23ffcb3)" d="M 455.406778 384.48 
L 455.406778 51.84 
L 459.008714 51.84 
L 459.008714 384.48 
z
" style="fill:#008000;opacity:0.04;"/>
   </g>
   <g id="patch_75">
    <path clip-path="url(#p6ea23ffcb3)" d="M 462.610651 384.48 
L 462.610651 51.84 
L 466.212587 51.84 
L 466.212587 384.48 
z
" style="fill:#008000;opacity:0.04;"/>
   </g>
   <g id="patch_76">
    <path clip-path="url(#p6ea23ffcb3)" d="M 469.814524 384.48 
L 469.814524 51.84 
L 473.41646 51.84 
L 473.41646 384.48 
z
" style="fill:#008000;opacity:0.04;"/>
   </g>
   <g id="patch_77">
    <path clip-path="url(#p6ea23ffcb3)" d="M 477.018397 384.48 
L 477.018397 51.84 
L 480.620334 51.84 
L 480.620334 384.48 
z
" style="fill:#008000;opacity:0.04;"/>
   </g>
   <g id="patch_78">
    <path clip-path="url(#p6ea23ffcb3)" d="M 484.22227 384.48 
L 484.22227 51.84 
L 487.824207 51.84 
L 487.824207 384.48 
z
" style="fill:#008000;opacity:0.04;"/>
   </g>
   <g id="patch_79">
    <path clip-path="url(#p6ea23ffcb3)" d="M 491.426143 384.48 
L 491.426143 51.84 
L 495.02808 51.84 
L 495.02808 384.48 
z
" style="fill:#008000;opacity:0.04;"/>
   </g>
   <g id="patch_80">
    <path clip-path="url(#p6ea23ffcb3)" d="M 498.630016 384.48 
L 498.630016 51.84 
L 502.231953 51.84 
L 502.231953 384.48 
z
" style="fill:#008000;opacity:0.04;"/>
   </g>
   <g id="patch_81">
    <path clip-path="url(#p6ea23ffcb3)" d="M 498.630016 371.1744 
L 498.630016 51.84 
L 502.231953 51.84 
L 502.231953 371.1744 
z
" style="fill:#008000;opacity:0.5;"/>
   </g>
   <g id="patch_82">
    <path clip-path="url(#p6ea23ffcb3)" d="M 505.833889 384.48 
L 505.833889 51.84 
L 509.435826 51.84 
L 509.435826 384.48 
z
" style="fill:#008000;opacity:0.04;"/>
   </g>
   <g id="patch_83">
    <path clip-path="url(#p6ea23ffcb3)" d="M 513.037762 384.48 
L 513.037762 51.84 
L 516.639699 51.84 
L 516.639699 384.48 
z
" style="fill:#008000;opacity:0.04;"/>
   </g>
   <g id="patch_84">
    <path clip-path="url(#p6ea23ffcb3)" d="M 513.037762 371.1744 
L 513.037762 51.84 
L 516.639699 51.84 
L 516.639699 371.1744 
z
" style="fill:#008000;opacity:0.5;"/>
   </g>
   <g id="patch_85">
    <path clip-path="url(#p6ea23ffcb3)" d="M 520.241635 384.48 
L 520.241635 51.84 
L 523.843572 51.84 
L 523.843572 384.48 
z
" style="fill:#008000;opacity:0.04;"/>
   </g>
   <g id="patch_86">
    <path clip-path="url(#p6ea23ffcb3)" d="M 527.445508 384.48 
L 527.445508 51.84 
L 531.047445 51.84 
L 531.047445 384.48 
z
" style="fill:#008000;opacity:0.04;"/>
   </g>
   <g id="patch_87">
    <path clip-path="url(#p6ea23ffcb3)" d="M 534.649381 384.48 
L 534.649381 51.84 
L 538.251318 51.84 
L 538.251318 384.48 
z
" style="fill:#008000;opacity:0.04;"/>
   </g>
   <g id="patch_88">
    <path clip-path="url(#p6ea23ffcb3)" d="M 541.853254 384.48 
L 541.853254 51.84 
L 545.455191 51.84 
L 545.455191 384.48 
z
" style="fill:#008000;opacity:0.04;"/>
   </g>
   <g id="patch_89">
    <path clip-path="url(#p6ea23ffcb3)" d="M 549.057127 384.48 
L 549.057127 51.84 
L 552.659064 51.84 
L 552.659064 384.48 
z
" style="fill:#008000;opacity:0.04;"/>
   </g>
   <g id="patch_90">
    <path clip-path="url(#p6ea23ffcb3)" d="M 556.261001 384.48 
L 556.261001 51.84 
L 559.862937 51.84 
L 559.862937 384.48 
z
" style="fill:#008000;opacity:0.04;"/>
   </g>
   <g id="patch_91">
    <path clip-path="url(#p6ea23ffcb3)" d="M 563.464874 384.48 
L 563.464874 51.84 
L 567.06681 51.84 
L 567.06681 384.48 
z
" style="fill:#008000;opacity:0.04;"/>
   </g>
   <g id="patch_92">
    <path clip-path="url(#p6ea23ffcb3)" d="M 570.668747 384.48 
L 570.668747 51.84 
L 574.270683 51.84 
L 574.270683 384.48 
z
" style="fill:#008000;opacity:0.04;"/>
   </g>
   <g id="patch_93">
    <path clip-path="url(#p6ea23ffcb3)" d="M 577.87262 384.48 
L 577.87262 51.84 
L 581.474556 51.84 
L 581.474556 384.48 
z
" style="fill:#008000;opacity:0.04;"/>
   </g>
   <g id="patch_94">
    <path clip-path="url(#p6ea23ffcb3)" d="M 585.076493 384.48 
L 585.076493 51.84 
L 588.678429 51.84 
L 588.678429 384.48 
z
" style="fill:#008000;opacity:0.04;"/>
   </g>
   <g id="patch_95">
    <path clip-path="url(#p6ea23ffcb3)" d="M 585.076493 371.1744 
L 585.076493 51.84 
L 588.678429 51.84 
L 588.678429 371.1744 
z
" style="fill:#008000;opacity:0.5;"/>
   </g>
   <g id="patch_96">
    <path clip-path="url(#p6ea23ffcb3)" d="M 592.280366 384.48 
L 592.280366 51.84 
L 595.882302 51.84 
L 595.882302 384.48 
z
" style="fill:#008000;opacity:0.04;"/>
   </g>
   <g id="patch_97">
    <path clip-path="url(#p6ea23ffcb3)" d="M 599.484239 384.48 
L 599.484239 51.84 
L 603.086175 51.84 
L 603.086175 384.48 
z
" style="fill:#008000;opacity:0.04;"/>
   </g>
   <g id="patch_98">
    <path clip-path="url(#p6ea23ffcb3)" d="M 606.688112 384.48 
L 606.688112 51.84 
L 610.290048 51.84 
L 610.290048 384.48 
z
" style="fill:#008000;opacity:0.04;"/>
   </g>
   <g id="patch_99">
    <path clip-path="url(#p6ea23ffcb3)" d="M 610.290048 371.1744 
L 610.290048 51.84 
L 613.891985 51.84 
L 613.891985 371.1744 
z
" style="fill:#008000;opacity:0.5;"/>
   </g>
   <g id="patch_100">
    <path clip-path="url(#p6ea23ffcb3)" d="M 613.891985 384.48 
L 613.891985 51.84 
L 617.493921 51.84 
L 617.493921 384.48 
z
" style="fill:#008000;opacity:0.04;"/>
   </g>
   <g id="patch_101">
    <path clip-path="url(#p6ea23ffcb3)" d="M 621.095858 384.48 
L 621.095858 51.84 
L 624.697795 51.84 
L 624.697795 384.48 
z
" style="fill:#008000;opacity:0.04;"/>
   </g>
   <g id="patch_102">
    <path clip-path="url(#p6ea23ffcb3)" d="M 628.299731 384.48 
L 628.299731 51.84 
L 631.901668 51.84 
L 631.901668 384.48 
z
" style="fill:#008000;opacity:0.04;"/>
   </g>
   <g id="patch_103">
    <path clip-path="url(#p6ea23ffcb3)" d="M 635.503604 384.48 
L 635.503604 51.84 
L 639.105541 51.84 
L 639.105541 384.48 
z
" style="fill:#008000;opacity:0.04;"/>
   </g>
   <g id="patch_104">
    <path clip-path="url(#p6ea23ffcb3)" d="M 642.707477 384.48 
L 642.707477 51.84 
L 646.309414 51.84 
L 646.309414 384.48 
z
" style="fill:#008000;opacity:0.04;"/>
   </g>
   <g id="patch_105">
    <path clip-path="url(#p6ea23ffcb3)" d="M 649.91135 384.48 
L 649.91135 51.84 
L 653.513287 51.84 
L 653.513287 384.48 
z
" style="fill:#008000;opacity:0.04;"/>
   </g>
   <g id="patch_106">
    <path clip-path="url(#p6ea23ffcb3)" d="M 657.115223 384.48 
L 657.115223 51.84 
L 660.71716 51.84 
L 660.71716 384.48 
z
" style="fill:#008000;opacity:0.04;"/>
   </g>
   <g id="patch_107">
    <path clip-path="url(#p6ea23ffcb3)" d="M 664.319096 384.48 
L 664.319096 51.84 
L 667.921033 51.84 
L 667.921033 384.48 
z
" style="fill:#008000;opacity:0.04;"/>
   </g>
   <g id="patch_108">
    <path clip-path="url(#p6ea23ffcb3)" d="M 671.522969 384.48 
L 671.522969 51.84 
L 675.124906 51.84 
L 675.124906 384.48 
z
" style="fill:#008000;opacity:0.04;"/>
   </g>
   <g id="patch_109">
    <path clip-path="url(#p6ea23ffcb3)" d="M 678.726842 384.48 
L 678.726842 51.84 
L 682.328779 51.84 
L 682.328779 384.48 
z
" style="fill:#008000;opacity:0.04;"/>
   </g>
   <g id="patch_110">
    <path clip-path="url(#p6ea23ffcb3)" d="M 682.328779 371.1744 
L 682.328779 51.84 
L 685.930715 51.84 
L 685.930715 371.1744 
z
" style="fill:#008000;opacity:0.5;"/>
   </g>
   <g id="patch_111">
    <path clip-path="url(#p6ea23ffcb3)" d="M 685.930715 384.48 
L 685.930715 51.84 
L 689.532652 51.84 
L 689.532652 384.48 
z
" style="fill:#008000;opacity:0.04;"/>
   </g>
   <g id="patch_112">
    <path clip-path="url(#p6ea23ffcb3)" d="M 693.134588 384.48 
L 693.134588 51.84 
L 696.736525 51.84 
L 696.736525 384.48 
z
" style="fill:#008000;opacity:0.04;"/>
   </g>
   <g id="patch_113">
    <path clip-path="url(#p6ea23ffcb3)" d="M 700.338462 384.48 
L 700.338462 51.84 
L 703.940398 51.84 
L 703.940398 384.48 
z
" style="fill:#008000;opacity:0.04;"/>
   </g>
   <g id="patch_114">
    <path clip-path="url(#p6ea23ffcb3)" d="M 707.542335 384.48 
L 707.542335 51.84 
L 711.144271 51.84 
L 711.144271 384.48 
z
" style="fill:#008000;opacity:0.04;"/>
   </g>
   <g id="patch_115">
    <path clip-path="url(#p6ea23ffcb3)" d="M 707.542335 371.1744 
L 707.542335 51.84 
L 711.144271 51.84 
L 711.144271 371.1744 
z
" style="fill:#008000;opacity:0.5;"/>
   </g>
   <g id="patch_116">
    <path clip-path="url(#p6ea23ffcb3)" d="M 714.746208 384.48 
L 714.746208 51.84 
L 718.348144 51.84 
L 718.348144 384.48 
z
" style="fill:#008000;opacity:0.04;"/>
   </g>
   <g id="patch_117">
    <path clip-path="url(#p6ea23ffcb3)" d="M 721.950081 384.48 
L 721.950081 51.84 
L 725.552017 51.84 
L 725.552017 384.48 
z
" style="fill:#008000;opacity:0.04;"/>
   </g>
   <g id="patch_118">
    <path clip-path="url(#p6ea23ffcb3)" d="M 725.552017 371.1744 
L 725.552017 51.84 
L 729.153954 51.84 
L 729.153954 371.1744 
z
" style="fill:#008000;opacity:0.5;"/>
   </g>
   <g id="patch_119">
    <path clip-path="url(#p6ea23ffcb3)" d="M 729.153954 384.48 
L 729.153954 51.84 
L 732.75589 51.84 
L 732.75589 384.48 
z
" style="fill:#008000;opacity:0.04;"/>
   </g>
   <g id="patch_120">
    <path clip-path="url(#p6ea23ffcb3)" d="M 736.357827 384.48 
L 736.357827 51.84 
L 739.959763 51.84 
L 739.959763 384.48 
z
" style="fill:#008000;opacity:0.04;"/>
   </g>
   <g id="patch_121">
    <path clip-path="url(#p6ea23ffcb3)" d="M 743.5617 384.48 
L 743.5617 51.84 
L 747.163636 51.84 
L 747.163636 384.48 
z
" style="fill:#008000;opacity:0.04;"/>
   </g>
   <g id="matplotlib.axis_1">
    <g id="xtick_1">
     <g id="line2d_1">
      <defs>
       <path d="M 0 0 
L 0 3.5 
" id="m7014253996" style="stroke:#000000;stroke-width:0.8;"/>
      </defs>
      <g>
       <use style="stroke:#000000;stroke-width:0.8;" x="138.436364" xlink:href="#m7014253996" y="384.48"/>
      </g>
     </g>
     <g id="text_1">
      <!-- 0 -->
      <defs>
       <path d="M 31.78125 66.40625 
Q 24.171875 66.40625 20.328125 58.90625 
Q 16.5 51.421875 16.5 36.375 
Q 16.5 21.390625 20.328125 13.890625 
Q 24.171875 6.390625 31.78125 6.390625 
Q 39.453125 6.390625 43.28125 13.890625 
Q 47.125 21.390625 47.125 36.375 
Q 47.125 51.421875 43.28125 58.90625 
Q 39.453125 66.40625 31.78125 66.40625 
z
M 31.78125 74.21875 
Q 44.046875 74.21875 50.515625 64.515625 
Q 56.984375 54.828125 56.984375 36.375 
Q 56.984375 17.96875 50.515625 8.265625 
Q 44.046875 -1.421875 31.78125 -1.421875 
Q 19.53125 -1.421875 13.0625 8.265625 
Q 6.59375 17.96875 6.59375 36.375 
Q 6.59375 54.828125 13.0625 64.515625 
Q 19.53125 74.21875 31.78125 74.21875 
z
" id="DejaVuSans-48"/>
      </defs>
      <g transform="translate(135.255114 399.078438)scale(0.1 -0.1)">
       <use xlink:href="#DejaVuSans-48"/>
      </g>
     </g>
    </g>
    <g id="xtick_2">
     <g id="line2d_2">
      <g>
       <use style="stroke:#000000;stroke-width:0.8;" x="228.484777" xlink:href="#m7014253996" y="384.48"/>
      </g>
     </g>
     <g id="text_2">
      <!-- 250 -->
      <defs>
       <path d="M 19.1875 8.296875 
L 53.609375 8.296875 
L 53.609375 0 
L 7.328125 0 
L 7.328125 8.296875 
Q 12.9375 14.109375 22.625 23.890625 
Q 32.328125 33.6875 34.8125 36.53125 
Q 39.546875 41.84375 41.421875 45.53125 
Q 43.3125 49.21875 43.3125 52.78125 
Q 43.3125 58.59375 39.234375 62.25 
Q 35.15625 65.921875 28.609375 65.921875 
Q 23.96875 65.921875 18.8125 64.3125 
Q 13.671875 62.703125 7.8125 59.421875 
L 7.8125 69.390625 
Q 13.765625 71.78125 18.9375 73 
Q 24.125 74.21875 28.421875 74.21875 
Q 39.75 74.21875 46.484375 68.546875 
Q 53.21875 62.890625 53.21875 53.421875 
Q 53.21875 48.921875 51.53125 44.890625 
Q 49.859375 40.875 45.40625 35.40625 
Q 44.1875 33.984375 37.640625 27.21875 
Q 31.109375 20.453125 19.1875 8.296875 
z
" id="DejaVuSans-50"/>
       <path d="M 10.796875 72.90625 
L 49.515625 72.90625 
L 49.515625 64.59375 
L 19.828125 64.59375 
L 19.828125 46.734375 
Q 21.96875 47.46875 24.109375 47.828125 
Q 26.265625 48.1875 28.421875 48.1875 
Q 40.625 48.1875 47.75 41.5 
Q 54.890625 34.8125 54.890625 23.390625 
Q 54.890625 11.625 47.5625 5.09375 
Q 40.234375 -1.421875 26.90625 -1.421875 
Q 22.3125 -1.421875 17.546875 -0.640625 
Q 12.796875 0.140625 7.71875 1.703125 
L 7.71875 11.625 
Q 12.109375 9.234375 16.796875 8.0625 
Q 21.484375 6.890625 26.703125 6.890625 
Q 35.15625 6.890625 40.078125 11.328125 
Q 45.015625 15.765625 45.015625 23.390625 
Q 45.015625 31 40.078125 35.4375 
Q 35.15625 39.890625 26.703125 39.890625 
Q 22.75 39.890625 18.8125 39.015625 
Q 14.890625 38.140625 10.796875 36.28125 
z
" id="DejaVuSans-53"/>
      </defs>
      <g transform="translate(218.941027 399.078438)scale(0.1 -0.1)">
       <use xlink:href="#DejaVuSans-50"/>
       <use x="63.623047" xlink:href="#DejaVuSans-53"/>
       <use x="127.246094" xlink:href="#DejaVuSans-48"/>
      </g>
     </g>
    </g>
    <g id="xtick_3">
     <g id="line2d_3">
      <g>
       <use style="stroke:#000000;stroke-width:0.8;" x="318.53319" xlink:href="#m7014253996" y="384.48"/>
      </g>
     </g>
     <g id="text_3">
      <!-- 500 -->
      <g transform="translate(308.98944 399.078438)scale(0.1 -0.1)">
       <use xlink:href="#DejaVuSans-53"/>
       <use x="63.623047" xlink:href="#DejaVuSans-48"/>
       <use x="127.246094" xlink:href="#DejaVuSans-48"/>
      </g>
     </g>
    </g>
    <g id="xtick_4">
     <g id="line2d_4">
      <g>
       <use style="stroke:#000000;stroke-width:0.8;" x="408.581603" xlink:href="#m7014253996" y="384.48"/>
      </g>
     </g>
     <g id="text_4">
      <!-- 750 -->
      <defs>
       <path d="M 8.203125 72.90625 
L 55.078125 72.90625 
L 55.078125 68.703125 
L 28.609375 0 
L 18.3125 0 
L 43.21875 64.59375 
L 8.203125 64.59375 
z
" id="DejaVuSans-55"/>
      </defs>
      <g transform="translate(399.037853 399.078438)scale(0.1 -0.1)">
       <use xlink:href="#DejaVuSans-55"/>
       <use x="63.623047" xlink:href="#DejaVuSans-53"/>
       <use x="127.246094" xlink:href="#DejaVuSans-48"/>
      </g>
     </g>
    </g>
    <g id="xtick_5">
     <g id="line2d_5">
      <g>
       <use style="stroke:#000000;stroke-width:0.8;" x="498.630016" xlink:href="#m7014253996" y="384.48"/>
      </g>
     </g>
     <g id="text_5">
      <!-- 1000 -->
      <defs>
       <path d="M 12.40625 8.296875 
L 28.515625 8.296875 
L 28.515625 63.921875 
L 10.984375 60.40625 
L 10.984375 69.390625 
L 28.421875 72.90625 
L 38.28125 72.90625 
L 38.28125 8.296875 
L 54.390625 8.296875 
L 54.390625 0 
L 12.40625 0 
z
" id="DejaVuSans-49"/>
      </defs>
      <g transform="translate(485.905016 399.078438)scale(0.1 -0.1)">
       <use xlink:href="#DejaVuSans-49"/>
       <use x="63.623047" xlink:href="#DejaVuSans-48"/>
       <use x="127.246094" xlink:href="#DejaVuSans-48"/>
       <use x="190.869141" xlink:href="#DejaVuSans-48"/>
      </g>
     </g>
    </g>
    <g id="xtick_6">
     <g id="line2d_6">
      <g>
       <use style="stroke:#000000;stroke-width:0.8;" x="588.678429" xlink:href="#m7014253996" y="384.48"/>
      </g>
     </g>
     <g id="text_6">
      <!-- 1250 -->
      <g transform="translate(575.953429 399.078438)scale(0.1 -0.1)">
       <use xlink:href="#DejaVuSans-49"/>
       <use x="63.623047" xlink:href="#DejaVuSans-50"/>
       <use x="127.246094" xlink:href="#DejaVuSans-53"/>
       <use x="190.869141" xlink:href="#DejaVuSans-48"/>
      </g>
     </g>
    </g>
    <g id="xtick_7">
     <g id="line2d_7">
      <g>
       <use style="stroke:#000000;stroke-width:0.8;" x="678.726842" xlink:href="#m7014253996" y="384.48"/>
      </g>
     </g>
     <g id="text_7">
      <!-- 1500 -->
      <g transform="translate(666.001842 399.078438)scale(0.1 -0.1)">
       <use xlink:href="#DejaVuSans-49"/>
       <use x="63.623047" xlink:href="#DejaVuSans-53"/>
       <use x="127.246094" xlink:href="#DejaVuSans-48"/>
       <use x="190.869141" xlink:href="#DejaVuSans-48"/>
      </g>
     </g>
    </g>
    <g id="xtick_8">
     <g id="line2d_8">
      <g>
       <use style="stroke:#000000;stroke-width:0.8;" x="768.775256" xlink:href="#m7014253996" y="384.48"/>
      </g>
     </g>
     <g id="text_8">
      <!-- 1750 -->
      <g transform="translate(756.050256 399.078438)scale(0.1 -0.1)">
       <use xlink:href="#DejaVuSans-49"/>
       <use x="63.623047" xlink:href="#DejaVuSans-55"/>
       <use x="127.246094" xlink:href="#DejaVuSans-53"/>
       <use x="190.869141" xlink:href="#DejaVuSans-48"/>
      </g>
     </g>
    </g>
    <g id="text_9">
     <!-- Timestamp -->
     <defs>
      <path d="M -0.296875 72.90625 
L 61.375 72.90625 
L 61.375 64.59375 
L 35.5 64.59375 
L 35.5 0 
L 25.59375 0 
L 25.59375 64.59375 
L -0.296875 64.59375 
z
" id="DejaVuSans-84"/>
      <path d="M 9.421875 54.6875 
L 18.40625 54.6875 
L 18.40625 0 
L 9.421875 0 
z
M 9.421875 75.984375 
L 18.40625 75.984375 
L 18.40625 64.59375 
L 9.421875 64.59375 
z
" id="DejaVuSans-105"/>
      <path d="M 52 44.1875 
Q 55.375 50.25 60.0625 53.125 
Q 64.75 56 71.09375 56 
Q 79.640625 56 84.28125 50.015625 
Q 88.921875 44.046875 88.921875 33.015625 
L 88.921875 0 
L 79.890625 0 
L 79.890625 32.71875 
Q 79.890625 40.578125 77.09375 44.375 
Q 74.3125 48.1875 68.609375 48.1875 
Q 61.625 48.1875 57.5625 43.546875 
Q 53.515625 38.921875 53.515625 30.90625 
L 53.515625 0 
L 44.484375 0 
L 44.484375 32.71875 
Q 44.484375 40.625 41.703125 44.40625 
Q 38.921875 48.1875 33.109375 48.1875 
Q 26.21875 48.1875 22.15625 43.53125 
Q 18.109375 38.875 18.109375 30.90625 
L 18.109375 0 
L 9.078125 0 
L 9.078125 54.6875 
L 18.109375 54.6875 
L 18.109375 46.1875 
Q 21.1875 51.21875 25.484375 53.609375 
Q 29.78125 56 35.6875 56 
Q 41.65625 56 45.828125 52.96875 
Q 50 49.953125 52 44.1875 
z
" id="DejaVuSans-109"/>
      <path d="M 56.203125 29.59375 
L 56.203125 25.203125 
L 14.890625 25.203125 
Q 15.484375 15.921875 20.484375 11.0625 
Q 25.484375 6.203125 34.421875 6.203125 
Q 39.59375 6.203125 44.453125 7.46875 
Q 49.3125 8.734375 54.109375 11.28125 
L 54.109375 2.78125 
Q 49.265625 0.734375 44.1875 -0.34375 
Q 39.109375 -1.421875 33.890625 -1.421875 
Q 20.796875 -1.421875 13.15625 6.1875 
Q 5.515625 13.8125 5.515625 26.8125 
Q 5.515625 40.234375 12.765625 48.109375 
Q 20.015625 56 32.328125 56 
Q 43.359375 56 49.78125 48.890625 
Q 56.203125 41.796875 56.203125 29.59375 
z
M 47.21875 32.234375 
Q 47.125 39.59375 43.09375 43.984375 
Q 39.0625 48.390625 32.421875 48.390625 
Q 24.90625 48.390625 20.390625 44.140625 
Q 15.875 39.890625 15.1875 32.171875 
z
" id="DejaVuSans-101"/>
      <path d="M 44.28125 53.078125 
L 44.28125 44.578125 
Q 40.484375 46.53125 36.375 47.5 
Q 32.28125 48.484375 27.875 48.484375 
Q 21.1875 48.484375 17.84375 46.4375 
Q 14.5 44.390625 14.5 40.28125 
Q 14.5 37.15625 16.890625 35.375 
Q 19.28125 33.59375 26.515625 31.984375 
L 29.59375 31.296875 
Q 39.15625 29.25 43.1875 25.515625 
Q 47.21875 21.78125 47.21875 15.09375 
Q 47.21875 7.46875 41.1875 3.015625 
Q 35.15625 -1.421875 24.609375 -1.421875 
Q 20.21875 -1.421875 15.453125 -0.5625 
Q 10.6875 0.296875 5.421875 2 
L 5.421875 11.28125 
Q 10.40625 8.6875 15.234375 7.390625 
Q 20.0625 6.109375 24.8125 6.109375 
Q 31.15625 6.109375 34.5625 8.28125 
Q 37.984375 10.453125 37.984375 14.40625 
Q 37.984375 18.0625 35.515625 20.015625 
Q 33.0625 21.96875 24.703125 23.78125 
L 21.578125 24.515625 
Q 13.234375 26.265625 9.515625 29.90625 
Q 5.8125 33.546875 5.8125 39.890625 
Q 5.8125 47.609375 11.28125 51.796875 
Q 16.75 56 26.8125 56 
Q 31.78125 56 36.171875 55.265625 
Q 40.578125 54.546875 44.28125 53.078125 
z
" id="DejaVuSans-115"/>
      <path d="M 18.3125 70.21875 
L 18.3125 54.6875 
L 36.8125 54.6875 
L 36.8125 47.703125 
L 18.3125 47.703125 
L 18.3125 18.015625 
Q 18.3125 11.328125 20.140625 9.421875 
Q 21.96875 7.515625 27.59375 7.515625 
L 36.8125 7.515625 
L 36.8125 0 
L 27.59375 0 
Q 17.1875 0 13.234375 3.875 
Q 9.28125 7.765625 9.28125 18.015625 
L 9.28125 47.703125 
L 2.6875 47.703125 
L 2.6875 54.6875 
L 9.28125 54.6875 
L 9.28125 70.21875 
z
" id="DejaVuSans-116"/>
      <path d="M 34.28125 27.484375 
Q 23.390625 27.484375 19.1875 25 
Q 14.984375 22.515625 14.984375 16.5 
Q 14.984375 11.71875 18.140625 8.90625 
Q 21.296875 6.109375 26.703125 6.109375 
Q 34.1875 6.109375 38.703125 11.40625 
Q 43.21875 16.703125 43.21875 25.484375 
L 43.21875 27.484375 
z
M 52.203125 31.203125 
L 52.203125 0 
L 43.21875 0 
L 43.21875 8.296875 
Q 40.140625 3.328125 35.546875 0.953125 
Q 30.953125 -1.421875 24.3125 -1.421875 
Q 15.921875 -1.421875 10.953125 3.296875 
Q 6 8.015625 6 15.921875 
Q 6 25.140625 12.171875 29.828125 
Q 18.359375 34.515625 30.609375 34.515625 
L 43.21875 34.515625 
L 43.21875 35.40625 
Q 43.21875 41.609375 39.140625 45 
Q 35.0625 48.390625 27.6875 48.390625 
Q 23 48.390625 18.546875 47.265625 
Q 14.109375 46.140625 10.015625 43.890625 
L 10.015625 52.203125 
Q 14.9375 54.109375 19.578125 55.046875 
Q 24.21875 56 28.609375 56 
Q 40.484375 56 46.34375 49.84375 
Q 52.203125 43.703125 52.203125 31.203125 
z
" id="DejaVuSans-97"/>
      <path d="M 18.109375 8.203125 
L 18.109375 -20.796875 
L 9.078125 -20.796875 
L 9.078125 54.6875 
L 18.109375 54.6875 
L 18.109375 46.390625 
Q 20.953125 51.265625 25.265625 53.625 
Q 29.59375 56 35.59375 56 
Q 45.5625 56 51.78125 48.09375 
Q 58.015625 40.1875 58.015625 27.296875 
Q 58.015625 14.40625 51.78125 6.484375 
Q 45.5625 -1.421875 35.59375 -1.421875 
Q 29.59375 -1.421875 25.265625 0.953125 
Q 20.953125 3.328125 18.109375 8.203125 
z
M 48.6875 27.296875 
Q 48.6875 37.203125 44.609375 42.84375 
Q 40.53125 48.484375 33.40625 48.484375 
Q 26.265625 48.484375 22.1875 42.84375 
Q 18.109375 37.203125 18.109375 27.296875 
Q 18.109375 17.390625 22.1875 11.75 
Q 26.265625 6.109375 33.40625 6.109375 
Q 40.53125 6.109375 44.609375 11.75 
Q 48.6875 17.390625 48.6875 27.296875 
z
" id="DejaVuSans-112"/>
     </defs>
     <g transform="translate(414.739062 412.756563)scale(0.1 -0.1)">
      <use xlink:href="#DejaVuSans-84"/>
      <use x="61.037109" xlink:href="#DejaVuSans-105"/>
      <use x="88.820312" xlink:href="#DejaVuSans-109"/>
      <use x="186.232422" xlink:href="#DejaVuSans-101"/>
      <use x="247.755859" xlink:href="#DejaVuSans-115"/>
      <use x="299.855469" xlink:href="#DejaVuSans-116"/>
      <use x="339.064453" xlink:href="#DejaVuSans-97"/>
      <use x="400.34375" xlink:href="#DejaVuSans-109"/>
      <use x="497.755859" xlink:href="#DejaVuSans-112"/>
     </g>
    </g>
   </g>
   <g id="matplotlib.axis_2">
    <g id="ytick_1">
     <g id="line2d_9">
      <defs>
       <path d="M 0 0 
L -3.5 0 
" id="mea1fbeddcb" style="stroke:#000000;stroke-width:0.8;"/>
      </defs>
      <g>
       <use style="stroke:#000000;stroke-width:0.8;" x="108" xlink:href="#mea1fbeddcb" y="370.883068"/>
      </g>
     </g>
     <g id="text_10">
      <!-- −3500 -->
      <defs>
       <path d="M 10.59375 35.5 
L 73.1875 35.5 
L 73.1875 27.203125 
L 10.59375 27.203125 
z
" id="DejaVuSans-8722"/>
       <path d="M 40.578125 39.3125 
Q 47.65625 37.796875 51.625 33 
Q 55.609375 28.21875 55.609375 21.1875 
Q 55.609375 10.40625 48.1875 4.484375 
Q 40.765625 -1.421875 27.09375 -1.421875 
Q 22.515625 -1.421875 17.65625 -0.515625 
Q 12.796875 0.390625 7.625 2.203125 
L 7.625 11.71875 
Q 11.71875 9.328125 16.59375 8.109375 
Q 21.484375 6.890625 26.8125 6.890625 
Q 36.078125 6.890625 40.9375 10.546875 
Q 45.796875 14.203125 45.796875 21.1875 
Q 45.796875 27.640625 41.28125 31.265625 
Q 36.765625 34.90625 28.71875 34.90625 
L 20.21875 34.90625 
L 20.21875 43.015625 
L 29.109375 43.015625 
Q 36.375 43.015625 40.234375 45.921875 
Q 44.09375 48.828125 44.09375 54.296875 
Q 44.09375 59.90625 40.109375 62.90625 
Q 36.140625 65.921875 28.71875 65.921875 
Q 24.65625 65.921875 20.015625 65.03125 
Q 15.375 64.15625 9.8125 62.3125 
L 9.8125 71.09375 
Q 15.4375 72.65625 20.34375 73.4375 
Q 25.25 74.21875 29.59375 74.21875 
Q 40.828125 74.21875 47.359375 69.109375 
Q 53.90625 64.015625 53.90625 55.328125 
Q 53.90625 49.265625 50.4375 45.09375 
Q 46.96875 40.921875 40.578125 39.3125 
z
" id="DejaVuSans-51"/>
      </defs>
      <g transform="translate(67.170312 374.682287)scale(0.1 -0.1)">
       <use xlink:href="#DejaVuSans-8722"/>
       <use x="83.789062" xlink:href="#DejaVuSans-51"/>
       <use x="147.412109" xlink:href="#DejaVuSans-53"/>
       <use x="211.035156" xlink:href="#DejaVuSans-48"/>
       <use x="274.658203" xlink:href="#DejaVuSans-48"/>
      </g>
     </g>
    </g>
    <g id="ytick_2">
     <g id="line2d_10">
      <g>
       <use style="stroke:#000000;stroke-width:0.8;" x="108" xlink:href="#mea1fbeddcb" y="328.789202"/>
      </g>
     </g>
     <g id="text_11">
      <!-- −3000 -->
      <g transform="translate(67.170312 332.588421)scale(0.1 -0.1)">
       <use xlink:href="#DejaVuSans-8722"/>
       <use x="83.789062" xlink:href="#DejaVuSans-51"/>
       <use x="147.412109" xlink:href="#DejaVuSans-48"/>
       <use x="211.035156" xlink:href="#DejaVuSans-48"/>
       <use x="274.658203" xlink:href="#DejaVuSans-48"/>
      </g>
     </g>
    </g>
    <g id="ytick_3">
     <g id="line2d_11">
      <g>
       <use style="stroke:#000000;stroke-width:0.8;" x="108" xlink:href="#mea1fbeddcb" y="286.695337"/>
      </g>
     </g>
     <g id="text_12">
      <!-- −2500 -->
      <g transform="translate(67.170312 290.494556)scale(0.1 -0.1)">
       <use xlink:href="#DejaVuSans-8722"/>
       <use x="83.789062" xlink:href="#DejaVuSans-50"/>
       <use x="147.412109" xlink:href="#DejaVuSans-53"/>
       <use x="211.035156" xlink:href="#DejaVuSans-48"/>
       <use x="274.658203" xlink:href="#DejaVuSans-48"/>
      </g>
     </g>
    </g>
    <g id="ytick_4">
     <g id="line2d_12">
      <g>
       <use style="stroke:#000000;stroke-width:0.8;" x="108" xlink:href="#mea1fbeddcb" y="244.601472"/>
      </g>
     </g>
     <g id="text_13">
      <!-- −2000 -->
      <g transform="translate(67.170312 248.400691)scale(0.1 -0.1)">
       <use xlink:href="#DejaVuSans-8722"/>
       <use x="83.789062" xlink:href="#DejaVuSans-50"/>
       <use x="147.412109" xlink:href="#DejaVuSans-48"/>
       <use x="211.035156" xlink:href="#DejaVuSans-48"/>
       <use x="274.658203" xlink:href="#DejaVuSans-48"/>
      </g>
     </g>
    </g>
    <g id="ytick_5">
     <g id="line2d_13">
      <g>
       <use style="stroke:#000000;stroke-width:0.8;" x="108" xlink:href="#mea1fbeddcb" y="202.507607"/>
      </g>
     </g>
     <g id="text_14">
      <!-- −1500 -->
      <g transform="translate(67.170312 206.306825)scale(0.1 -0.1)">
       <use xlink:href="#DejaVuSans-8722"/>
       <use x="83.789062" xlink:href="#DejaVuSans-49"/>
       <use x="147.412109" xlink:href="#DejaVuSans-53"/>
       <use x="211.035156" xlink:href="#DejaVuSans-48"/>
       <use x="274.658203" xlink:href="#DejaVuSans-48"/>
      </g>
     </g>
    </g>
    <g id="ytick_6">
     <g id="line2d_14">
      <g>
       <use style="stroke:#000000;stroke-width:0.8;" x="108" xlink:href="#mea1fbeddcb" y="160.413741"/>
      </g>
     </g>
     <g id="text_15">
      <!-- −1000 -->
      <g transform="translate(67.170312 164.21296)scale(0.1 -0.1)">
       <use xlink:href="#DejaVuSans-8722"/>
       <use x="83.789062" xlink:href="#DejaVuSans-49"/>
       <use x="147.412109" xlink:href="#DejaVuSans-48"/>
       <use x="211.035156" xlink:href="#DejaVuSans-48"/>
       <use x="274.658203" xlink:href="#DejaVuSans-48"/>
      </g>
     </g>
    </g>
    <g id="ytick_7">
     <g id="line2d_15">
      <g>
       <use style="stroke:#000000;stroke-width:0.8;" x="108" xlink:href="#mea1fbeddcb" y="118.319876"/>
      </g>
     </g>
     <g id="text_16">
      <!-- −500 -->
      <g transform="translate(73.532813 122.119095)scale(0.1 -0.1)">
       <use xlink:href="#DejaVuSans-8722"/>
       <use x="83.789062" xlink:href="#DejaVuSans-53"/>
       <use x="147.412109" xlink:href="#DejaVuSans-48"/>
       <use x="211.035156" xlink:href="#DejaVuSans-48"/>
      </g>
     </g>
    </g>
    <g id="ytick_8">
     <g id="line2d_16">
      <g>
       <use style="stroke:#000000;stroke-width:0.8;" x="108" xlink:href="#mea1fbeddcb" y="76.226011"/>
      </g>
     </g>
     <g id="text_17">
      <!-- 0 -->
      <g transform="translate(94.6375 80.025229)scale(0.1 -0.1)">
       <use xlink:href="#DejaVuSans-48"/>
      </g>
     </g>
    </g>
    <g id="text_18">
     <!-- Value -->
     <defs>
      <path d="M 28.609375 0 
L 0.78125 72.90625 
L 11.078125 72.90625 
L 34.1875 11.53125 
L 57.328125 72.90625 
L 67.578125 72.90625 
L 39.796875 0 
z
" id="DejaVuSans-86"/>
      <path d="M 9.421875 75.984375 
L 18.40625 75.984375 
L 18.40625 0 
L 9.421875 0 
z
" id="DejaVuSans-108"/>
      <path d="M 8.5 21.578125 
L 8.5 54.6875 
L 17.484375 54.6875 
L 17.484375 21.921875 
Q 17.484375 14.15625 20.5 10.265625 
Q 23.53125 6.390625 29.59375 6.390625 
Q 36.859375 6.390625 41.078125 11.03125 
Q 45.3125 15.671875 45.3125 23.6875 
L 45.3125 54.6875 
L 54.296875 54.6875 
L 54.296875 0 
L 45.3125 0 
L 45.3125 8.40625 
Q 42.046875 3.421875 37.71875 1 
Q 33.40625 -1.421875 27.6875 -1.421875 
Q 18.265625 -1.421875 13.375 4.4375 
Q 8.5 10.296875 8.5 21.578125 
z
M 31.109375 56 
z
" id="DejaVuSans-117"/>
     </defs>
     <g transform="translate(61.090625 232.273281)rotate(-90)scale(0.1 -0.1)">
      <use xlink:href="#DejaVuSans-86"/>
      <use x="68.298828" xlink:href="#DejaVuSans-97"/>
      <use x="129.578125" xlink:href="#DejaVuSans-108"/>
      <use x="157.361328" xlink:href="#DejaVuSans-117"/>
      <use x="220.740234" xlink:href="#DejaVuSans-101"/>
     </g>
    </g>
   </g>
   <g id="line2d_17">
    <path clip-path="url(#p6ea23ffcb3)" d="M 138.436364 76.718119 
L 138.796557 73.857145 
L 139.156751 67.331404 
L 139.516945 67.243923 
L 139.877138 66.96 
L 140.237332 68.692748 
L 140.597526 71.721018 
L 140.957719 78.396281 
L 141.317913 80.048937 
L 141.678107 78.793588 
L 142.0383 81.544836 
L 142.398494 80.246713 
L 142.758687 76.051091 
L 143.118881 75.911469 
L 143.479075 75.370375 
L 143.839268 74.148212 
L 144.199462 76.411558 
L 144.559656 77.092534 
L 144.919849 83.328451 
L 145.280043 83.916129 
L 145.640237 86.171149 
L 146.00043 85.153855 
L 146.360624 85.064495 
L 147.081011 77.846028 
L 147.441205 71.782056 
L 147.801399 70.872387 
L 148.161592 71.017561 
L 148.521786 70.938836 
L 148.88198 69.975532 
L 149.242173 72.718887 
L 149.602367 77.755232 
L 149.962561 78.330928 
L 150.322754 81.831735 
L 150.682948 82.356604 
L 151.403335 80.31717 
L 151.763529 76.035706 
L 152.123722 75.254134 
L 152.483916 75.709864 
L 152.84411 77.657023 
L 153.204303 78.943022 
L 153.564497 85.303452 
L 153.924691 89.610742 
L 154.284884 86.76859 
L 154.645078 89.433733 
L 155.005272 89.228176 
L 155.365465 85.620609 
L 155.725659 80.839068 
L 156.085853 78.597939 
L 156.446046 73.120059 
L 156.80624 73.029749 
L 157.166434 71.718001 
L 157.526627 74.573023 
L 157.886821 80.787673 
L 158.247015 83.199586 
L 158.607208 83.830415 
L 158.967402 84.115534 
L 159.327595 86.052866 
L 159.687789 85.436492 
L 160.047983 82.703471 
L 160.408176 81.352947 
L 160.76837 81.224435 
L 161.128564 78.9354 
L 161.488757 82.045898 
L 161.848951 87.090809 
L 162.209145 88.553778 
L 162.569338 93.320482 
L 162.929532 93.540498 
L 163.289726 94.91914 
L 163.649919 93.683502 
L 164.010113 91.554295 
L 165.090694 81.272363 
L 165.811081 78.938824 
L 166.171275 81.913835 
L 166.891662 92.550296 
L 167.251856 92.837073 
L 167.612049 89.753865 
L 168.332437 93.006288 
L 168.69263 92.233801 
L 169.413018 87.960649 
L 170.133405 87.73204 
L 170.493599 92.678663 
L 170.853792 94.326967 
L 171.213986 99.466547 
L 171.57418 101.433953 
L 171.934373 101.72824 
L 172.654761 100.02608 
L 173.014954 93.570282 
L 173.375148 91.494161 
L 173.735342 86.110808 
L 174.455729 86.292636 
L 174.815923 89.055962 
L 175.176116 90.779393 
L 175.53631 95.639998 
L 175.896503 96.917894 
L 176.256697 100.153529 
L 176.616891 99.033325 
L 176.977084 98.939449 
L 177.337278 110.323381 
L 177.697472 95.282655 
L 178.057665 96.117599 
L 178.417859 93.974868 
L 178.778053 95.977558 
L 179.49844 103.262997 
L 179.858634 103.411054 
L 180.218827 107.510668 
L 180.579021 107.607371 
L 180.939215 107.381535 
L 181.299408 103.056899 
L 181.659602 101.57553 
L 182.019796 94.758125 
L 182.379989 91.459181 
L 182.740183 92.326592 
L 183.100377 91.961976 
L 183.46057 94.699276 
L 183.820764 96.34311 
L 184.180958 102.379104 
L 184.541151 104.649857 
L 184.901345 104.706787 
L 185.261538 105.690073 
L 185.621732 103.916782 
L 185.981926 104.644138 
L 186.342119 99.342377 
L 186.702313 96.322102 
L 187.062507 97.622044 
L 187.4227 101.369453 
L 187.782894 102.000959 
L 188.143088 108.233419 
L 188.503281 108.396712 
L 188.863475 111.674707 
L 189.223669 112.159625 
L 189.583862 110.272622 
L 189.944056 104.347883 
L 190.30425 103.113709 
L 191.384831 94.535947 
L 191.745024 93.618864 
L 192.105218 96.80154 
L 192.465412 97.897166 
L 192.825605 104.318648 
L 193.185799 107.252867 
L 193.545992 107.192469 
L 194.26638 105.051927 
L 194.626573 101.682654 
L 194.986767 102.608295 
L 195.346961 100.252618 
L 195.707154 104.402074 
L 196.067348 104.858932 
L 196.427542 105.506217 
L 196.787735 107.009993 
L 197.508123 112.865041 
L 197.868316 113.040955 
L 198.22851 112.046463 
L 198.948897 104.420859 
L 199.309091 99.036252 
L 199.669285 98.755682 
L 200.389672 95.032993 
L 200.749866 96.566157 
L 201.110059 103.786123 
L 201.470253 106.864887 
L 201.830446 108.560347 
L 202.19064 111.522647 
L 202.550834 108.292175 
L 202.911027 109.179609 
L 203.631415 100.6071 
L 203.991608 100.685232 
L 204.351802 103.716749 
L 204.711996 101.920401 
L 205.072189 106.183145 
L 205.432383 107.414257 
L 205.792577 111.628026 
L 206.15277 114.191654 
L 206.512964 113.908696 
L 206.873158 112.795183 
L 207.233351 108.199249 
L 207.593545 106.155954 
L 207.953739 101.814018 
L 208.674126 97.044758 
L 209.394513 100.449716 
L 209.754707 101.131761 
L 210.1149 106.022989 
L 210.475094 109.143046 
L 210.835288 109.56467 
L 211.195481 112.548825 
L 211.915869 106.590587 
L 212.636256 104.015936 
L 212.99645 106.418854 
L 213.356643 105.956599 
L 213.716837 109.896029 
L 214.797418 117.204538 
L 215.157612 132.738713 
L 215.517805 117.91099 
L 215.877999 112.007887 
L 216.238193 108.965253 
L 216.598386 104.766949 
L 216.95858 102.390333 
L 217.318774 102.441257 
L 217.678967 105.491529 
L 218.039161 104.366734 
L 218.399354 105.220865 
L 218.759548 110.930469 
L 219.479935 115.388319 
L 219.840129 117.242215 
L 220.560516 112.474175 
L 220.92071 109.949368 
L 221.280904 108.78276 
L 221.641097 110.757953 
L 222.001291 110.090687 
L 222.721678 115.951245 
L 223.442066 122.774664 
L 223.802259 122.008304 
L 224.162453 123.050102 
L 224.522647 120.315548 
L 224.88284 114.342541 
L 225.603228 107.527516 
L 225.963421 109.266027 
L 226.323615 108.415054 
L 226.683808 112.088013 
L 227.404196 115.659256 
L 227.764389 121.418103 
L 228.124583 120.891934 
L 228.484777 121.940464 
L 228.84497 119.63174 
L 229.205164 119.030634 
L 229.565358 118.870929 
L 230.285745 114.962215 
L 231.366326 122.851856 
L 231.72652 126.808037 
L 232.086713 126.326536 
L 232.446907 130.770632 
L 232.807101 129.054751 
L 233.887682 118.005826 
L 234.247875 116.665161 
L 234.608069 114.706279 
L 234.968263 115.338274 
L 235.328456 121.06169 
L 235.68865 120.384405 
L 236.409037 127.233928 
L 236.769231 128.253665 
L 237.129424 127.231548 
L 237.489618 127.917628 
L 237.849812 121.999156 
L 238.210005 124.599678 
L 238.570199 121.088835 
L 238.930393 121.05059 
L 239.290586 125.243743 
L 239.65078 124.93919 
L 240.010974 129.579187 
L 240.371167 131.677483 
L 240.731361 138.157458 
L 241.091555 136.384018 
L 241.451748 135.866926 
L 241.811942 131.054222 
L 242.172136 128.76776 
L 242.532329 121.890454 
L 242.892523 122.199295 
L 243.252717 118.980697 
L 243.61291 120.171406 
L 243.973104 123.523624 
L 244.333297 121.291184 
L 244.693491 128.737663 
L 245.413878 134.475572 
L 245.774072 135.227238 
L 246.134266 128.674357 
L 246.494459 129.720266 
L 246.854653 126.761018 
L 247.57504 128.607435 
L 247.935234 126.155512 
L 248.655621 136.48012 
L 249.015815 136.575616 
L 249.376009 140.828629 
L 249.736202 139.096718 
L 250.096396 139.25935 
L 250.45659 136.258181 
L 251.537171 122.423632 
L 251.897364 124.946227 
L 252.257558 120.341935 
L 252.977945 128.382746 
L 253.698332 136.503832 
L 254.058526 135.040756 
L 254.41872 136.962814 
L 254.778913 133.867536 
L 255.139107 132.125417 
L 255.859494 130.28342 
L 256.219688 127.369278 
L 256.579882 131.595344 
L 256.940075 132.033301 
L 257.300269 137.345434 
L 257.660463 136.743297 
L 258.020656 141.862982 
L 258.38085 141.620365 
L 258.741044 140.54103 
L 260.181818 125.42292 
L 260.542012 123.228611 
L 260.902205 123.007569 
L 261.982786 133.375511 
L 262.34298 135.272803 
L 263.063367 137.608052 
L 263.783755 134.07786 
L 264.143948 132.823137 
L 264.504142 128.04264 
L 264.864336 129.947616 
L 265.584723 135.055028 
L 265.944917 139.28114 
L 266.30511 141.22287 
L 266.665304 142.498663 
L 267.025498 142.644129 
L 267.385691 142.510944 
L 267.745885 139.275778 
L 268.106079 133.388543 
L 268.466272 130.341021 
L 268.826466 128.691214 
L 269.186659 111.886177 
L 269.546853 128.513585 
L 269.907047 129.361212 
L 270.26724 130.880855 
L 270.627434 134.403261 
L 270.987628 139.11908 
L 271.347821 140.210807 
L 271.708015 137.899287 
L 272.068209 139.120924 
L 272.428402 138.07558 
L 273.14879 133.01413 
L 273.508983 131.776277 
L 274.229371 136.252355 
L 275.309952 146.031151 
L 275.670145 147.243665 
L 276.030339 146.475275 
L 276.750726 137.577559 
L 277.11092 132.896505 
L 277.471114 131.314731 
L 277.831307 127.107093 
L 278.191501 131.534029 
L 278.551694 130.916613 
L 278.911888 133.937524 
L 279.272082 140.567689 
L 280.352663 144.71616 
L 281.433244 138.422932 
L 281.793437 138.106701 
L 282.153631 138.474274 
L 282.513825 139.890736 
L 282.874018 144.109547 
L 283.234212 145.623852 
L 283.594406 150.291277 
L 283.954599 152.424162 
L 284.314793 150.936996 
L 284.674987 150.623123 
L 285.03518 147.760966 
L 285.755568 138.506584 
L 286.115761 137.333112 
L 286.475955 135.52413 
L 286.836148 135.427238 
L 287.556536 140.632535 
L 287.916729 145.684534 
L 288.276923 147.422037 
L 288.637117 150.394668 
L 288.99731 148.447329 
L 289.357504 147.581831 
L 289.717698 147.444086 
L 290.077891 145.046051 
L 290.438085 145.464215 
L 290.798279 144.434813 
L 291.518666 147.34348 
L 291.87886 153.39011 
L 292.239053 154.923446 
L 292.599247 158.304194 
L 292.959441 160.109816 
L 293.679828 153.306474 
L 294.040022 150.800067 
L 294.400215 146.733996 
L 295.120602 145.131203 
L 295.480796 142.145944 
L 295.84099 147.943303 
L 296.201183 148.208875 
L 296.561377 154.986368 
L 296.921571 154.662819 
L 297.281764 157.731548 
L 297.641958 153.947618 
L 298.002152 157.489918 
L 298.362345 151.169299 
L 298.722539 150.891599 
L 299.082733 151.576172 
L 299.442926 149.837508 
L 299.80312 152.758705 
L 300.163314 154.464676 
L 300.523507 161.670615 
L 300.883701 162.012348 
L 301.243895 166.908188 
L 301.964282 161.870221 
L 302.684669 157.133732 
L 303.044863 150.071564 
L 303.405056 149.79291 
L 303.76525 145.198178 
L 304.125444 149.650198 
L 304.485637 148.849577 
L 304.845831 152.814563 
L 305.206025 158.257741 
L 305.566218 158.27542 
L 305.926412 162.072881 
L 306.286606 163.30548 
L 306.646799 161.229355 
L 307.006993 158.280277 
L 307.367187 156.933915 
L 307.72738 155.032585 
L 308.087574 154.890158 
L 308.447768 158.514298 
L 308.807961 160.832564 
L 309.168155 162.359991 
L 309.888542 169.916637 
L 310.248736 167.472167 
L 310.60893 166.21043 
L 311.329317 158.86428 
L 311.68951 153.529678 
L 312.049704 166.873603 
L 312.409898 150.291962 
L 312.770091 151.933763 
L 313.130285 151.69203 
L 313.490479 154.025916 
L 314.210866 163.565332 
L 314.57106 162.650093 
L 314.931253 165.091644 
L 315.291447 161.715411 
L 315.651641 162.301833 
L 316.011834 160.128172 
L 316.372028 157.037656 
L 316.732222 156.577457 
L 317.092415 158.865476 
L 317.452609 162.993059 
L 317.812803 163.655022 
L 318.172996 167.29582 
L 318.53319 168.811385 
L 318.893384 170.823719 
L 319.253577 165.310488 
L 319.613771 165.143054 
L 319.973964 162.877725 
L 320.694352 154.626913 
L 321.054545 152.423603 
L 321.414739 151.169014 
L 321.774933 139.450558 
L 322.135126 158.104249 
L 322.49532 160.724664 
L 322.855514 162.342147 
L 323.215707 164.50727 
L 323.575901 165.279124 
L 323.936095 166.349205 
L 325.016676 155.926295 
L 325.376869 159.710507 
L 325.737063 160.965233 
L 326.097257 163.289609 
L 326.45745 166.976397 
L 326.817644 167.724556 
L 327.538031 172.752991 
L 327.898225 170.33224 
L 329.338999 156.283044 
L 329.699193 154.407286 
L 330.059387 153.287303 
L 330.41958 158.873037 
L 330.779774 161.11053 
L 331.139968 165.36748 
L 331.500161 165.743024 
L 331.860355 166.374438 
L 332.580742 166.533823 
L 332.940936 162.805074 
L 333.30113 163.747 
L 334.381711 162.005619 
L 335.462292 172.904254 
L 335.822485 174.207042 
L 336.182679 172.52647 
L 336.542873 173.039717 
L 337.26326 168.95805 
L 337.623453 162.183033 
L 337.983647 160.722445 
L 338.343841 157.439101 
L 339.064228 161.178796 
L 339.424422 166.006317 
L 339.784615 167.353581 
L 340.144809 169.463413 
L 340.505003 172.684229 
L 340.865196 171.107042 
L 341.22539 171.729182 
L 341.585584 169.938284 
L 341.945777 169.703059 
L 342.305971 164.619302 
L 342.666165 181.178114 
L 343.026358 167.444246 
L 344.106939 177.611958 
L 344.467133 180.041995 
L 344.827327 180.682267 
L 345.18752 178.622919 
L 345.547714 175.344794 
L 345.907907 173.314723 
L 346.628295 166.340774 
L 346.988488 165.926885 
L 347.348682 161.722496 
L 347.708876 167.526321 
L 348.069069 168.360559 
L 348.429263 174.882815 
L 348.789457 177.165499 
L 349.14965 178.396943 
L 349.509844 177.124139 
L 349.870038 179.565376 
L 350.230231 175.798819 
L 350.590425 173.813992 
L 350.950619 174.432057 
L 351.310812 171.530626 
L 352.0312 177.912199 
L 352.391393 179.526925 
L 352.751587 185.759355 
L 353.111781 187.195103 
L 353.471974 189.469537 
L 353.832168 185.369012 
L 354.192361 186.780607 
L 354.552555 178.915225 
L 354.912749 177.376378 
L 355.272942 170.424344 
L 355.633136 170.066039 
L 356.353523 176.296334 
L 356.713717 176.62878 
L 357.073911 179.126282 
L 357.434104 182.961808 
L 357.794298 184.078773 
L 358.514685 184.584114 
L 358.874879 180.268497 
L 359.235073 177.673331 
L 359.595266 180.178488 
L 359.95546 180.902476 
L 360.315654 180.950852 
L 360.675847 183.060926 
L 361.756428 195.684971 
L 362.116622 193.586015 
L 362.476815 192.184121 
L 362.837009 187.856408 
L 363.197203 185.715994 
L 363.557396 180.294963 
L 363.91759 177.804223 
L 364.277784 177.268281 
L 364.637977 177.190637 
L 364.998171 178.339263 
L 365.358365 182.588827 
L 365.718558 184.606942 
L 366.078752 187.29803 
L 366.438946 191.148216 
L 367.159333 188.398119 
L 367.519527 188.442619 
L 367.87972 183.816871 
L 368.239914 181.750357 
L 368.600108 184.190747 
L 368.960301 198.665533 
L 369.320495 188.524363 
L 370.040882 194.141719 
L 370.401076 196.937564 
L 370.761269 196.479845 
L 371.121463 194.426779 
L 371.84185 186.897138 
L 372.202044 185.094604 
L 372.562238 180.240119 
L 372.922431 179.488429 
L 373.282625 180.669405 
L 373.642819 181.258068 
L 374.363206 187.483342 
L 374.7234 188.631583 
L 375.083593 192.793654 
L 375.443787 194.345088 
L 375.803981 192.00665 
L 376.524368 185.405952 
L 376.884562 187.170635 
L 377.244755 188.112468 
L 377.604949 186.955965 
L 377.965143 187.334543 
L 378.325336 193.666645 
L 378.68553 196.537803 
L 379.045724 194.614855 
L 379.405917 197.005269 
L 379.766111 197.257578 
L 380.126304 195.357848 
L 380.486498 188.576734 
L 380.846692 185.53821 
L 381.206885 183.473951 
L 381.567079 179.620636 
L 381.927273 181.401874 
L 382.287466 182.430236 
L 383.007854 190.428004 
L 383.368047 191.798119 
L 383.728241 190.761181 
L 384.088435 193.325767 
L 384.808822 188.028329 
L 385.169016 186.731811 
L 385.529209 187.787507 
L 385.889403 184.823322 
L 386.249597 187.020854 
L 386.60979 192.64469 
L 387.330178 196.981408 
L 388.050565 199.026238 
L 388.410758 198.254572 
L 388.770952 195.182083 
L 389.131146 190.708044 
L 389.491339 188.084566 
L 389.851533 182.681764 
L 390.211727 180.56853 
L 390.57192 183.786215 
L 390.932114 184.343863 
L 391.292308 185.802059 
L 392.012695 195.167542 
L 392.372889 195.280265 
L 392.733082 196.04544 
L 393.093276 195.027856 
L 393.45347 191.150492 
L 393.813663 190.79501 
L 394.173857 190.070109 
L 394.534051 189.951513 
L 394.894244 191.200772 
L 395.254438 196.152309 
L 395.614632 196.159965 
L 395.974825 202.911738 
L 396.335019 200.54095 
L 396.695212 204.910982 
L 397.055406 201.208485 
L 397.4156 199.727406 
L 398.135987 189.953805 
L 398.496181 188.385615 
L 398.856374 185.273292 
L 399.216568 186.831234 
L 399.576762 189.87216 
L 399.936955 190.729706 
L 400.297149 210.809033 
L 400.657343 199.530757 
L 401.017536 201.37309 
L 401.37773 201.416064 
L 401.737924 199.398519 
L 402.098117 195.953836 
L 402.458311 195.212365 
L 402.818505 195.210493 
L 403.178698 192.97062 
L 403.899086 198.431623 
L 404.259279 203.351309 
L 404.619473 205.369415 
L 404.979666 208.632635 
L 405.33986 207.581928 
L 405.700054 207.048763 
L 406.420441 199.622371 
L 407.140828 193.304304 
L 407.501022 191.895094 
L 408.221409 194.849814 
L 408.581603 199.770236 
L 408.941797 201.388417 
L 409.30199 202.228645 
L 409.662184 208.002646 
L 410.022378 207.194165 
L 410.382571 205.763826 
L 410.742765 203.674413 
L 411.102959 202.601274 
L 411.463152 200.240677 
L 411.823346 200.519789 
L 412.18354 203.776408 
L 412.543733 204.841667 
L 413.624314 214.564201 
L 413.984508 213.538287 
L 414.344701 213.789262 
L 414.704895 209.818576 
L 415.065089 207.758782 
L 415.425282 202.951205 
L 415.785476 199.746779 
L 416.14567 199.100165 
L 416.505863 199.399391 
L 416.866057 201.242929 
L 417.226251 206.041001 
L 417.586444 207.739658 
L 417.946638 197.289894 
L 418.306832 214.082306 
L 418.667025 214.865805 
L 419.387413 209.160332 
L 419.747606 208.419177 
L 420.1078 203.579732 
L 420.467994 206.324292 
L 420.828187 207.78296 
L 421.188381 210.853934 
L 421.548575 215.589547 
L 421.908768 217.476413 
L 422.268962 217.426927 
L 422.629155 220.493554 
L 422.989349 216.857129 
L 423.349543 216.69073 
L 423.709736 210.435965 
L 424.06993 210.55455 
L 424.790317 204.746867 
L 425.150511 206.31914 
L 425.510705 209.032039 
L 425.870898 209.419712 
L 426.231092 214.164261 
L 426.591286 215.002214 
L 426.951479 216.828415 
L 427.311673 219.305421 
L 427.671867 218.106636 
L 428.392254 214.905309 
L 428.752448 213.885083 
L 429.112641 211.970325 
L 429.472835 213.556765 
L 429.833029 215.872726 
L 430.193222 220.71199 
L 430.913609 226.35053 
L 431.633997 221.770365 
L 431.99419 221.774772 
L 432.354384 216.309688 
L 433.074771 208.374608 
L 433.434965 207.140484 
L 433.795159 208.433636 
L 434.155352 206.498595 
L 434.515546 209.847094 
L 434.87574 217.868978 
L 435.235933 216.224731 
L 435.956321 222.604782 
L 436.676708 216.91358 
L 437.036902 215.431246 
L 437.397095 214.58726 
L 437.757289 212.751806 
L 438.117483 214.103582 
L 438.83787 219.409211 
L 439.198063 223.695973 
L 439.558257 226.013846 
L 440.278644 227.902211 
L 440.638838 221.112906 
L 440.999032 217.358371 
L 441.359225 211.379939 
L 441.719419 210.670666 
L 442.079613 209.298181 
L 442.439806 210.346221 
L 442.8 211.954135 
L 443.160194 216.000443 
L 443.520387 216.023512 
L 444.240775 221.623695 
L 444.600968 223.19528 
L 444.961162 220.905933 
L 445.321356 215.412225 
L 445.681549 217.66235 
L 446.041743 216.370313 
L 446.401937 214.281963 
L 447.482517 222.518152 
L 447.842711 223.741687 
L 448.202905 228.249645 
L 448.563098 227.734231 
L 448.923292 225.909241 
L 449.643679 218.357441 
L 450.003873 217.010708 
L 450.364067 214.343734 
L 450.72426 209.461455 
L 452.165035 219.017502 
L 452.525229 223.685033 
L 452.885422 223.834202 
L 453.245616 225.065528 
L 453.60581 221.844646 
L 453.966003 220.488591 
L 454.326197 219.872789 
L 455.046584 215.224086 
L 456.487359 229.712449 
L 456.847552 229.720278 
L 457.207746 232.086661 
L 457.56794 228.424637 
L 457.928133 228.055385 
L 458.288327 223.28792 
L 459.368908 215.611569 
L 459.729102 216.925618 
L 460.089295 217.076342 
L 460.449489 220.908849 
L 460.809683 223.074688 
L 461.53007 229.975558 
L 461.890264 226.656274 
L 462.250457 228.87709 
L 462.610651 225.139083 
L 462.970845 224.691633 
L 463.331038 221.852644 
L 463.691232 222.740488 
L 464.051425 225.555727 
L 464.411619 224.847008 
L 464.771813 229.097816 
L 465.132006 235.569392 
L 465.4922 235.902783 
L 465.852394 238.442979 
L 466.932975 227.520665 
L 467.293168 225.55122 
L 467.653362 222.913516 
L 468.013556 221.481119 
L 468.373749 222.358228 
L 468.733943 221.777953 
L 469.814524 232.389015 
L 470.174718 235.43785 
L 470.534911 233.349625 
L 470.895105 234.071706 
L 471.255299 229.248401 
L 471.615492 230.096212 
L 471.975686 228.694548 
L 472.33588 228.197881 
L 473.41646 238.002224 
L 474.136848 242.425839 
L 474.497041 242.970772 
L 474.857235 242.699111 
L 475.217429 241.413247 
L 475.937816 231.657451 
L 476.29801 227.639316 
L 476.658203 228.891341 
L 477.018397 227.92649 
L 477.378591 228.037159 
L 477.738784 234.501881 
L 478.098978 236.150261 
L 478.459172 240.680796 
L 478.819365 241.059732 
L 479.179559 243.103472 
L 479.539753 242.894663 
L 479.899946 240.600029 
L 480.26014 237.218141 
L 480.620334 236.50632 
L 480.980527 236.73463 
L 481.700914 241.983586 
L 482.421302 246.386697 
L 482.781495 246.817533 
L 483.141689 248.596312 
L 483.501883 247.337838 
L 483.862076 243.697788 
L 484.22227 241.360605 
L 484.942657 230.924208 
L 485.302851 234.05663 
L 485.663045 231.419387 
L 486.743626 240.666362 
L 487.103819 242.499762 
L 487.464013 245.205845 
L 487.824207 245.312132 
L 488.544594 241.619573 
L 488.904788 240.587177 
L 489.264981 240.184602 
L 489.625175 239.152437 
L 489.985368 242.233436 
L 490.705756 249.296003 
L 491.065949 252.089949 
L 491.426143 250.889933 
L 491.786337 253.46187 
L 492.14653 252.602716 
L 492.866918 245.432748 
L 493.587305 236.771655 
L 493.947499 237.083059 
L 494.307692 236.347656 
L 494.667886 238.470313 
L 495.02808 243.443411 
L 495.388273 245.229687 
L 495.748467 246.179101 
L 496.108661 248.091592 
L 496.468854 248.795454 
L 496.829048 250.218856 
L 497.549435 243.487518 
L 497.909629 242.040447 
L 498.630016 243.861932 
L 498.99021 245.627107 
L 499.350403 251.231584 
L 499.710597 254.136258 
L 500.070791 255.582437 
L 500.430984 252.330578 
L 500.791178 267.13458 
L 501.151372 251.953154 
L 501.511565 244.788951 
L 501.871759 240.490994 
L 502.231953 237.564816 
L 502.592146 237.166584 
L 502.95234 236.506881 
L 503.312534 240.042169 
L 503.672727 241.801928 
L 504.393115 250.44349 
L 504.753308 249.646796 
L 505.113502 249.454754 
L 505.473696 248.496156 
L 506.194083 244.23937 
L 506.554276 243.885896 
L 506.91447 244.728154 
L 507.274664 245.28213 
L 507.995051 251.202542 
L 508.355245 255.518295 
L 509.075632 255.987461 
L 509.435826 255.091101 
L 509.796019 252.334582 
L 510.516407 243.466541 
L 511.236794 238.955968 
L 511.596988 238.286572 
L 511.957181 241.031991 
L 512.317375 247.147368 
L 512.677569 246.476955 
L 513.037762 250.641634 
L 513.397956 253.516672 
L 514.118343 251.576107 
L 514.478537 251.08773 
L 514.838731 246.298294 
L 515.198924 248.234001 
L 515.559118 244.302141 
L 515.919311 262.40967 
L 516.279505 251.424459 
L 517.360086 260.350232 
L 517.72028 261.907827 
L 518.080473 258.661549 
L 518.440667 253.462734 
L 518.800861 252.105079 
L 519.161054 248.834086 
L 519.521248 244.53506 
L 519.881442 242.473068 
L 520.241635 241.629452 
L 521.322216 252.945109 
L 521.68241 254.095113 
L 522.042604 258.777637 
L 522.402797 256.042694 
L 522.762991 255.262023 
L 523.123185 256.570684 
L 523.483378 251.255063 
L 523.843572 251.747116 
L 524.203765 249.597024 
L 524.563959 252.678019 
L 524.924153 257.680378 
L 526.004734 264.758847 
L 526.364927 262.453454 
L 526.725121 265.121801 
L 527.445508 256.361057 
L 528.526089 248.036172 
L 529.60667 254.003858 
L 529.966864 258.775626 
L 530.687251 263.793438 
L 531.047445 263.58175 
L 531.767832 261.254775 
L 532.488219 256.4563 
L 532.848413 255.80709 
L 533.208607 260.822597 
L 533.5688 262.991063 
L 533.928994 265.963061 
L 534.289188 266.613697 
L 534.649381 272.706388 
L 535.009575 272.663577 
L 535.369769 271.399857 
L 536.45035 259.901535 
L 536.810543 260.127403 
L 537.170737 257.283871 
L 537.530931 256.071897 
L 537.891124 261.029035 
L 538.251318 260.462806 
L 538.611512 268.900336 
L 538.971705 266.0397 
L 539.331899 268.62835 
L 539.692093 268.207888 
L 540.052286 268.990839 
L 540.41248 264.446676 
L 540.772673 263.475457 
L 541.132867 264.992468 
L 541.493061 264.336156 
L 542.213448 269.559797 
L 543.294029 279.141355 
L 543.654223 280.020978 
L 545.094997 264.786804 
L 545.815385 260.265058 
L 546.175578 260.90823 
L 546.895966 265.251131 
L 547.616353 274.426302 
L 548.33674 275.997666 
L 549.057127 270.94004 
L 549.417321 269.795752 
L 549.777515 267.186461 
L 550.137708 268.550006 
L 550.497902 268.230642 
L 550.858096 270.734512 
L 551.218289 275.948702 
L 551.578483 275.859362 
L 551.938677 282.918638 
L 553.019258 276.610901 
L 554.099839 264.895969 
L 554.460032 264.5803 
L 554.820226 264.480923 
L 555.18042 265.307486 
L 555.540613 271.024271 
L 556.261001 273.670797 
L 556.621194 277.165427 
L 556.981388 275.73792 
L 557.341581 276.320927 
L 557.701775 274.090007 
L 558.061969 274.418396 
L 558.782356 269.730592 
L 559.14255 271.821203 
L 559.862937 278.661517 
L 560.223131 280.11162 
L 560.583324 284.696538 
L 560.943518 284.046114 
L 562.024099 275.486536 
L 562.384293 268.360975 
L 562.744486 267.715038 
L 563.10468 268.559451 
L 563.464874 265.934211 
L 563.825067 267.573034 
L 564.185261 269.742404 
L 564.545455 273.592177 
L 564.905648 276.04677 
L 565.265842 276.59197 
L 565.626036 276.637856 
L 566.346423 276.17812 
L 566.706616 271.822035 
L 567.06681 272.133457 
L 567.427004 271.66327 
L 567.787197 273.119703 
L 568.147391 275.617429 
L 568.867778 282.193451 
L 569.227972 283.071 
L 569.588166 284.864844 
L 570.308553 277.823149 
L 570.668747 274.881893 
L 571.02894 270.360572 
L 571.389134 268.573722 
L 571.749328 265.995903 
L 572.469715 269.373511 
L 573.550296 279.302056 
L 573.91049 281.537375 
L 574.270683 281.277028 
L 574.630877 280.020587 
L 574.99107 277.53781 
L 575.351264 274.177998 
L 575.711458 274.122389 
L 576.071651 272.885955 
L 576.431845 275.756795 
L 576.792039 277.657489 
L 577.152232 282.04639 
L 577.87262 286.985732 
L 578.232813 287.245709 
L 578.593007 283.667793 
L 578.953201 282.287335 
L 579.673588 273.892402 
L 580.033782 273.737025 
L 580.393975 270.6422 
L 580.754169 270.072631 
L 581.474556 278.044132 
L 581.83475 278.650522 
L 582.194944 283.490498 
L 582.555137 285.81962 
L 582.915331 284.210427 
L 583.275524 283.652237 
L 583.635718 283.552556 
L 583.995912 281.200939 
L 584.356105 280.92716 
L 585.076493 279.747988 
L 585.436686 281.703985 
L 585.79688 288.416169 
L 586.517267 294.868253 
L 587.237655 292.758702 
L 587.597848 287.347925 
L 587.958042 272.196797 
L 588.318236 280.106431 
L 588.678429 279.326709 
L 589.038623 278.81579 
L 589.398817 278.838519 
L 589.75901 280.238766 
L 590.119204 284.775798 
L 590.479398 284.577242 
L 590.839591 289.399086 
L 591.559978 291.475567 
L 591.920172 291.10042 
L 592.280366 288.976675 
L 592.640559 287.96334 
L 593.000753 284.239681 
L 593.360947 286.20991 
L 593.72114 289.24106 
L 594.081334 288.748826 
L 594.441528 295.552966 
L 594.801721 298.297513 
L 595.161915 297.666793 
L 595.522109 299.891106 
L 595.882302 296.980361 
L 596.242496 296.016339 
L 596.60269 290.229401 
L 596.962883 288.238487 
L 597.323077 284.293001 
L 597.683271 282.171111 
L 598.043464 282.851488 
L 598.763852 288.066078 
L 599.124045 295.337763 
L 599.484239 296.337577 
L 599.844432 299.455742 
L 600.204626 299.166399 
L 600.56482 298.163877 
L 601.645401 292.841706 
L 602.005594 291.639034 
L 602.365788 295.356155 
L 602.725982 301.362163 
L 603.086175 298.662245 
L 603.446369 303.71481 
L 603.806563 305.853876 
L 604.166756 307.011756 
L 604.52695 303.988429 
L 604.887144 302.815409 
L 605.247337 299.871182 
L 605.607531 293.120875 
L 605.967725 292.223242 
L 606.327918 288.464434 
L 606.688112 288.782981 
L 607.048306 291.030422 
L 608.128886 300.571864 
L 608.48908 302.761086 
L 608.849274 303.781796 
L 609.209467 300.853834 
L 609.569661 300.415436 
L 610.290048 294.929844 
L 610.650242 281.826581 
L 611.010436 299.609868 
L 611.370629 302.227759 
L 611.730823 302.891503 
L 612.091017 308.693159 
L 612.45121 310.49926 
L 612.811404 311.214819 
L 613.171598 306.918852 
L 613.531791 306.569073 
L 614.612372 294.937965 
L 614.972566 291.934559 
L 615.33276 291.820065 
L 615.692953 298.074835 
L 616.053147 297.760205 
L 616.413341 301.694068 
L 616.773534 304.37489 
L 617.133728 303.195331 
L 617.493921 305.184053 
L 617.854115 306.308091 
L 618.214309 301.818176 
L 618.574502 301.279776 
L 618.934696 299.125515 
L 619.29489 298.386348 
L 620.015277 302.973958 
L 620.375471 305.444107 
L 620.735664 309.461766 
L 621.456052 312.268079 
L 621.816245 310.404618 
L 622.176439 307.269682 
L 622.536633 302.045495 
L 622.896826 298.444083 
L 623.25702 292.777455 
L 623.617214 291.840786 
L 624.337601 295.633333 
L 624.697795 296.733763 
L 625.057988 304.539233 
L 625.418182 304.89364 
L 625.778375 307.110647 
L 626.138569 307.477694 
L 626.498763 303.501818 
L 626.858956 305.444749 
L 627.579344 300.010633 
L 627.939537 300.737831 
L 628.299731 299.946554 
L 629.020118 310.48533 
L 629.380312 309.653386 
L 629.740506 314.925673 
L 630.100699 313.323135 
L 630.460893 312.866852 
L 631.18128 303.432669 
L 631.541474 302.022969 
L 631.901668 297.600226 
L 632.261861 295.280981 
L 632.982249 297.695371 
L 634.062829 306.82123 
L 634.423023 310.065647 
L 634.783217 309.925833 
L 635.14341 307.843297 
L 635.503604 306.900832 
L 635.863798 304.693479 
L 636.223991 303.781229 
L 636.584185 301.932464 
L 637.664766 309.065554 
L 638.745347 317.604053 
L 639.105541 315.727813 
L 639.465734 310.709996 
L 639.825928 309.588508 
L 640.186122 303.137438 
L 640.546315 300.186477 
L 640.906509 299.668532 
L 641.266703 300.715606 
L 641.626896 299.640521 
L 641.98709 303.516382 
L 642.347283 309.334109 
L 643.067671 314.868687 
L 643.427864 315.142249 
L 644.148252 310.484637 
L 644.508445 306.70122 
L 644.868639 308.417074 
L 645.228833 306.90958 
L 645.589026 311.121018 
L 645.94922 311.88983 
L 646.309414 317.343167 
L 646.669607 316.765493 
L 647.029801 321.026757 
L 647.389995 321.141287 
L 647.750188 320.978332 
L 648.110382 315.972098 
L 648.830769 311.217253 
L 649.190963 306.003557 
L 649.551157 303.474405 
L 649.91135 305.320421 
L 650.271544 308.60611 
L 650.631737 308.986607 
L 651.712318 321.595949 
L 652.072512 318.369158 
L 652.432706 317.170343 
L 652.792899 318.202743 
L 653.153093 315.911062 
L 653.513287 312.283924 
L 653.87348 314.651862 
L 654.233674 318.190347 
L 654.593868 317.779812 
L 654.954061 322.239545 
L 655.674449 328.260745 
L 656.034642 327.305531 
L 656.75503 326.653924 
L 657.115223 319.600084 
L 657.835611 311.485727 
L 658.195804 313.61401 
L 658.555998 311.524849 
L 658.916192 314.341777 
L 659.276385 320.672847 
L 659.996772 324.825642 
L 660.71716 326.142049 
L 661.077353 326.420482 
L 661.437547 324.021154 
L 661.797741 323.874425 
L 662.157934 319.944327 
L 662.518128 319.771639 
L 662.878322 322.500442 
L 663.238515 324.197319 
L 663.598709 331.136146 
L 663.958903 331.85126 
L 664.319096 336.054465 
L 665.039484 333.526943 
L 665.399677 330.093445 
L 665.759871 325.487479 
L 666.120065 322.404934 
L 666.840452 318.735136 
L 667.200646 318.286657 
L 667.921033 323.962641 
L 668.281226 328.285647 
L 668.64142 327.415701 
L 669.001614 330.971909 
L 669.361807 331.898077 
L 669.722001 330.124859 
L 670.082195 326.260493 
L 670.442388 326.668992 
L 670.802582 325.279548 
L 671.162776 325.37468 
L 671.522969 327.555803 
L 671.883163 328.562689 
L 672.60355 337.059235 
L 673.323938 340.038773 
L 673.684131 336.323257 
L 674.044325 334.726945 
L 674.404519 328.990233 
L 674.764712 325.55151 
L 675.124906 320.345545 
L 675.4851 319.302848 
L 675.845293 322.17004 
L 676.205487 321.828208 
L 676.56568 323.928304 
L 677.286068 335.524512 
L 677.646261 333.789449 
L 678.006455 334.128148 
L 678.366649 332.401925 
L 678.726842 329.507505 
L 679.087036 329.172277 
L 679.44723 325.453389 
L 679.807423 326.404501 
L 680.527811 330.561214 
L 680.888004 336.076405 
L 681.248198 336.395235 
L 681.608392 340.99374 
L 681.968585 338.03344 
L 682.328779 324.813242 
L 682.688973 335.465791 
L 683.049166 329.821015 
L 683.40936 328.381752 
L 683.769554 324.107183 
L 684.129747 323.331565 
L 684.489941 320.353175 
L 685.570522 331.396412 
L 685.930715 331.870111 
L 686.290909 337.524098 
L 686.651103 333.337952 
L 687.011296 334.025668 
L 687.37149 332.553843 
L 687.731684 328.064782 
L 688.091877 328.515304 
L 688.452071 328.714726 
L 688.812265 328.376559 
L 689.172458 333.548971 
L 689.532652 334.491607 
L 689.892846 338.125941 
L 690.253039 340.261613 
L 690.613233 340.405202 
L 690.973427 341.439859 
L 691.693814 329.019651 
L 692.054008 329.950438 
L 692.774395 322.800995 
L 693.134588 323.799017 
L 693.494782 326.31703 
L 693.854976 330.421026 
L 694.215169 332.139051 
L 694.575363 335.420408 
L 694.935557 336.409684 
L 695.29575 337.783504 
L 695.655944 337.21095 
L 696.376331 332.746243 
L 696.736525 328.670567 
L 697.096719 328.674482 
L 697.456912 334.360967 
L 697.817106 336.322056 
L 698.1773 337.184251 
L 698.537493 343.575548 
L 698.897687 343.735008 
L 699.257881 346.090782 
L 699.978268 340.112322 
L 700.338462 338.482861 
L 700.698655 330.563467 
L 701.058849 327.003667 
L 701.419042 325.3385 
L 701.779236 327.947972 
L 702.499623 335.117169 
L 702.859817 339.590097 
L 703.220011 341.429912 
L 703.580204 341.744826 
L 703.940398 342.502326 
L 704.300592 340.672172 
L 704.660785 337.377218 
L 705.020979 337.234093 
L 705.381173 333.626362 
L 706.461754 341.379021 
L 707.542335 350.181705 
L 707.902528 348.116831 
L 708.262722 347.101214 
L 708.622916 344.116188 
L 708.983109 339.097591 
L 709.343303 339.911985 
L 709.703497 333.626802 
L 710.06369 335.139181 
L 710.423884 319.340173 
L 710.784077 336.654134 
L 711.144271 342.030833 
L 711.504465 339.902575 
L 711.864658 348.31671 
L 712.224852 348.899237 
L 712.585046 346.426857 
L 713.305433 344.995951 
L 713.665627 343.164172 
L 714.02582 343.150308 
L 714.386014 341.523838 
L 714.746208 346.996487 
L 715.106401 345.813148 
L 715.466595 352.455864 
L 715.826789 355.521617 
L 716.186982 353.920823 
L 716.547176 357.915448 
L 716.90737 353.831316 
L 717.267563 353.037349 
L 717.627757 347.081011 
L 718.348144 341.001266 
L 719.068531 339.538404 
L 719.428725 344.29144 
L 720.149112 349.963783 
L 720.509306 350.363608 
L 720.8695 356.28116 
L 721.229693 357.808252 
L 721.589887 353.198563 
L 721.950081 352.030379 
L 722.310274 348.167612 
L 722.670468 347.309406 
L 723.030662 348.011156 
L 723.751049 353.144309 
L 724.111243 356.711729 
L 724.471436 358.945802 
L 724.83163 362.232987 
L 725.191824 363.376468 
L 725.552017 359.79796 
L 725.912211 359.425562 
L 726.992792 346.269098 
L 727.352985 330.90624 
L 727.713179 346.967829 
L 728.073373 347.157372 
L 728.79376 355.459976 
L 729.153954 357.598221 
L 729.514147 357.009409 
L 729.874341 358.713524 
L 730.234535 359.808555 
L 730.954922 352.937842 
L 731.315116 353.375496 
L 731.675309 352.485543 
L 732.035503 355.155145 
L 732.395697 360.299536 
L 732.75589 359.654818 
L 733.116084 365.846799 
L 733.476278 369.115015 
L 734.196665 364.537093 
L 734.556859 363.951097 
L 735.277246 351.680264 
L 735.637439 352.224002 
L 735.997633 351.176071 
L 736.357827 349.550946 
L 736.71802 349.141393 
L 737.078214 355.103687 
L 738.518989 364.918238 
L 738.879182 361.153394 
L 739.239376 359.558857 
L 739.59957 355.46421 
L 739.959763 352.65133 
L 740.319957 353.656553 
L 740.680151 358.190408 
L 741.040344 361.096449 
L 741.400538 362.263222 
L 741.760732 365.195928 
L 742.120925 369.36 
L 742.481119 366.495316 
L 742.841313 368.338927 
L 743.201506 362.134163 
L 743.201506 362.134163 
" style="fill:none;stroke:#1f77b4;stroke-linecap:square;stroke-width:1.5;"/>
   </g>
   <g id="line2d_18">
    <path clip-path="url(#p6ea23ffcb3)" d="M 747.163636 384.48 
L 747.163636 51.84 
" style="fill:none;stroke:#808080;stroke-linecap:square;"/>
   </g>
   <g id="patch_122">
    <path d="M 108 384.48 
L 108 51.84 
" style="fill:none;stroke:#000000;stroke-linecap:square;stroke-linejoin:miter;stroke-width:0.8;"/>
   </g>
   <g id="patch_123">
    <path d="M 777.6 384.48 
L 777.6 51.84 
" style="fill:none;stroke:#000000;stroke-linecap:square;stroke-linejoin:miter;stroke-width:0.8;"/>
   </g>
   <g id="patch_124">
    <path d="M 108 384.48 
L 777.6 384.48 
" style="fill:none;stroke:#000000;stroke-linecap:square;stroke-linejoin:miter;stroke-width:0.8;"/>
   </g>
   <g id="patch_125">
    <path d="M 108 51.84 
L 777.6 51.84 
" style="fill:none;stroke:#000000;stroke-linecap:square;stroke-linejoin:miter;stroke-width:0.8;"/>
   </g>
   <g id="text_19">
    <!-- A3Benchmark-TS95.csv -->
    <defs>
     <path d="M 34.1875 63.1875 
L 20.796875 26.90625 
L 47.609375 26.90625 
z
M 28.609375 72.90625 
L 39.796875 72.90625 
L 67.578125 0 
L 57.328125 0 
L 50.6875 18.703125 
L 17.828125 18.703125 
L 11.1875 0 
L 0.78125 0 
z
" id="DejaVuSans-65"/>
     <path d="M 19.671875 34.8125 
L 19.671875 8.109375 
L 35.5 8.109375 
Q 43.453125 8.109375 47.28125 11.40625 
Q 51.125 14.703125 51.125 21.484375 
Q 51.125 28.328125 47.28125 31.5625 
Q 43.453125 34.8125 35.5 34.8125 
z
M 19.671875 64.796875 
L 19.671875 42.828125 
L 34.28125 42.828125 
Q 41.5 42.828125 45.03125 45.53125 
Q 48.578125 48.25 48.578125 53.8125 
Q 48.578125 59.328125 45.03125 62.0625 
Q 41.5 64.796875 34.28125 64.796875 
z
M 9.8125 72.90625 
L 35.015625 72.90625 
Q 46.296875 72.90625 52.390625 68.21875 
Q 58.5 63.53125 58.5 54.890625 
Q 58.5 48.1875 55.375 44.234375 
Q 52.25 40.28125 46.1875 39.3125 
Q 53.46875 37.75 57.5 32.78125 
Q 61.53125 27.828125 61.53125 20.40625 
Q 61.53125 10.640625 54.890625 5.3125 
Q 48.25 0 35.984375 0 
L 9.8125 0 
z
" id="DejaVuSans-66"/>
     <path d="M 54.890625 33.015625 
L 54.890625 0 
L 45.90625 0 
L 45.90625 32.71875 
Q 45.90625 40.484375 42.875 44.328125 
Q 39.84375 48.1875 33.796875 48.1875 
Q 26.515625 48.1875 22.3125 43.546875 
Q 18.109375 38.921875 18.109375 30.90625 
L 18.109375 0 
L 9.078125 0 
L 9.078125 54.6875 
L 18.109375 54.6875 
L 18.109375 46.1875 
Q 21.34375 51.125 25.703125 53.5625 
Q 30.078125 56 35.796875 56 
Q 45.21875 56 50.046875 50.171875 
Q 54.890625 44.34375 54.890625 33.015625 
z
" id="DejaVuSans-110"/>
     <path d="M 48.78125 52.59375 
L 48.78125 44.1875 
Q 44.96875 46.296875 41.140625 47.34375 
Q 37.3125 48.390625 33.40625 48.390625 
Q 24.65625 48.390625 19.8125 42.84375 
Q 14.984375 37.3125 14.984375 27.296875 
Q 14.984375 17.28125 19.8125 11.734375 
Q 24.65625 6.203125 33.40625 6.203125 
Q 37.3125 6.203125 41.140625 7.25 
Q 44.96875 8.296875 48.78125 10.40625 
L 48.78125 2.09375 
Q 45.015625 0.34375 40.984375 -0.53125 
Q 36.96875 -1.421875 32.421875 -1.421875 
Q 20.0625 -1.421875 12.78125 6.34375 
Q 5.515625 14.109375 5.515625 27.296875 
Q 5.515625 40.671875 12.859375 48.328125 
Q 20.21875 56 33.015625 56 
Q 37.15625 56 41.109375 55.140625 
Q 45.0625 54.296875 48.78125 52.59375 
z
" id="DejaVuSans-99"/>
     <path d="M 54.890625 33.015625 
L 54.890625 0 
L 45.90625 0 
L 45.90625 32.71875 
Q 45.90625 40.484375 42.875 44.328125 
Q 39.84375 48.1875 33.796875 48.1875 
Q 26.515625 48.1875 22.3125 43.546875 
Q 18.109375 38.921875 18.109375 30.90625 
L 18.109375 0 
L 9.078125 0 
L 9.078125 75.984375 
L 18.109375 75.984375 
L 18.109375 46.1875 
Q 21.34375 51.125 25.703125 53.5625 
Q 30.078125 56 35.796875 56 
Q 45.21875 56 50.046875 50.171875 
Q 54.890625 44.34375 54.890625 33.015625 
z
" id="DejaVuSans-104"/>
     <path d="M 41.109375 46.296875 
Q 39.59375 47.171875 37.8125 47.578125 
Q 36.03125 48 33.890625 48 
Q 26.265625 48 22.1875 43.046875 
Q 18.109375 38.09375 18.109375 28.8125 
L 18.109375 0 
L 9.078125 0 
L 9.078125 54.6875 
L 18.109375 54.6875 
L 18.109375 46.1875 
Q 20.953125 51.171875 25.484375 53.578125 
Q 30.03125 56 36.53125 56 
Q 37.453125 56 38.578125 55.875 
Q 39.703125 55.765625 41.0625 55.515625 
z
" id="DejaVuSans-114"/>
     <path d="M 9.078125 75.984375 
L 18.109375 75.984375 
L 18.109375 31.109375 
L 44.921875 54.6875 
L 56.390625 54.6875 
L 27.390625 29.109375 
L 57.625 0 
L 45.90625 0 
L 18.109375 26.703125 
L 18.109375 0 
L 9.078125 0 
z
" id="DejaVuSans-107"/>
     <path d="M 4.890625 31.390625 
L 31.203125 31.390625 
L 31.203125 23.390625 
L 4.890625 23.390625 
z
" id="DejaVuSans-45"/>
     <path d="M 53.515625 70.515625 
L 53.515625 60.890625 
Q 47.90625 63.578125 42.921875 64.890625 
Q 37.9375 66.21875 33.296875 66.21875 
Q 25.25 66.21875 20.875 63.09375 
Q 16.5 59.96875 16.5 54.203125 
Q 16.5 49.359375 19.40625 46.890625 
Q 22.3125 44.4375 30.421875 42.921875 
L 36.375 41.703125 
Q 47.40625 39.59375 52.65625 34.296875 
Q 57.90625 29 57.90625 20.125 
Q 57.90625 9.515625 50.796875 4.046875 
Q 43.703125 -1.421875 29.984375 -1.421875 
Q 24.8125 -1.421875 18.96875 -0.25 
Q 13.140625 0.921875 6.890625 3.21875 
L 6.890625 13.375 
Q 12.890625 10.015625 18.65625 8.296875 
Q 24.421875 6.59375 29.984375 6.59375 
Q 38.421875 6.59375 43.015625 9.90625 
Q 47.609375 13.234375 47.609375 19.390625 
Q 47.609375 24.75 44.3125 27.78125 
Q 41.015625 30.8125 33.5 32.328125 
L 27.484375 33.5 
Q 16.453125 35.6875 11.515625 40.375 
Q 6.59375 45.0625 6.59375 53.421875 
Q 6.59375 63.09375 13.40625 68.65625 
Q 20.21875 74.21875 32.171875 74.21875 
Q 37.3125 74.21875 42.625 73.28125 
Q 47.953125 72.359375 53.515625 70.515625 
z
" id="DejaVuSans-83"/>
     <path d="M 10.984375 1.515625 
L 10.984375 10.5 
Q 14.703125 8.734375 18.5 7.8125 
Q 22.3125 6.890625 25.984375 6.890625 
Q 35.75 6.890625 40.890625 13.453125 
Q 46.046875 20.015625 46.78125 33.40625 
Q 43.953125 29.203125 39.59375 26.953125 
Q 35.25 24.703125 29.984375 24.703125 
Q 19.046875 24.703125 12.671875 31.3125 
Q 6.296875 37.9375 6.296875 49.421875 
Q 6.296875 60.640625 12.9375 67.421875 
Q 19.578125 74.21875 30.609375 74.21875 
Q 43.265625 74.21875 49.921875 64.515625 
Q 56.59375 54.828125 56.59375 36.375 
Q 56.59375 19.140625 48.40625 8.859375 
Q 40.234375 -1.421875 26.421875 -1.421875 
Q 22.703125 -1.421875 18.890625 -0.6875 
Q 15.09375 0.046875 10.984375 1.515625 
z
M 30.609375 32.421875 
Q 37.25 32.421875 41.125 36.953125 
Q 45.015625 41.5 45.015625 49.421875 
Q 45.015625 57.28125 41.125 61.84375 
Q 37.25 66.40625 30.609375 66.40625 
Q 23.96875 66.40625 20.09375 61.84375 
Q 16.21875 57.28125 16.21875 49.421875 
Q 16.21875 41.5 20.09375 36.953125 
Q 23.96875 32.421875 30.609375 32.421875 
z
" id="DejaVuSans-57"/>
     <path d="M 10.6875 12.40625 
L 21 12.40625 
L 21 0 
L 10.6875 0 
z
" id="DejaVuSans-46"/>
     <path d="M 2.984375 54.6875 
L 12.5 54.6875 
L 29.59375 8.796875 
L 46.6875 54.6875 
L 56.203125 54.6875 
L 35.6875 0 
L 23.484375 0 
z
" id="DejaVuSans-118"/>
    </defs>
    <g transform="translate(371.555625 45.84)scale(0.12 -0.12)">
     <use xlink:href="#DejaVuSans-65"/>
     <use x="68.408203" xlink:href="#DejaVuSans-51"/>
     <use x="132.03125" xlink:href="#DejaVuSans-66"/>
     <use x="200.634766" xlink:href="#DejaVuSans-101"/>
     <use x="262.158203" xlink:href="#DejaVuSans-110"/>
     <use x="325.537109" xlink:href="#DejaVuSans-99"/>
     <use x="380.517578" xlink:href="#DejaVuSans-104"/>
     <use x="443.896484" xlink:href="#DejaVuSans-109"/>
     <use x="541.308594" xlink:href="#DejaVuSans-97"/>
     <use x="602.587891" xlink:href="#DejaVuSans-114"/>
     <use x="643.701172" xlink:href="#DejaVuSans-107"/>
     <use x="701.611328" xlink:href="#DejaVuSans-45"/>
     <use x="737.554688" xlink:href="#DejaVuSans-84"/>
     <use x="798.638672" xlink:href="#DejaVuSans-83"/>
     <use x="862.115234" xlink:href="#DejaVuSans-57"/>
     <use x="925.738281" xlink:href="#DejaVuSans-53"/>
     <use x="989.361328" xlink:href="#DejaVuSans-46"/>
     <use x="1021.148438" xlink:href="#DejaVuSans-99"/>
     <use x="1076.128906" xlink:href="#DejaVuSans-115"/>
     <use x="1128.228516" xlink:href="#DejaVuSans-118"/>
    </g>
   </g>
   <g id="legend_1">
    <g id="patch_126">
     <path d="M 115 226.999062 
L 174.315625 226.999062 
Q 176.315625 226.999062 176.315625 224.999062 
L 176.315625 211.320937 
Q 176.315625 209.320937 174.315625 209.320937 
L 115 209.320937 
Q 113 209.320937 113 211.320937 
L 113 224.999062 
Q 113 226.999062 115 226.999062 
z
" style="fill:#ffffff;opacity:0.8;stroke:#cccccc;stroke-linejoin:miter;"/>
    </g>
    <g id="line2d_19">
     <path d="M 117 217.419375 
L 137 217.419375 
" style="fill:none;stroke:#1f77b4;stroke-linecap:square;stroke-width:1.5;"/>
    </g>
    <g id="line2d_20"/>
    <g id="text_20">
     <!-- value -->
     <g transform="translate(145 220.919375)scale(0.1 -0.1)">
      <use xlink:href="#DejaVuSans-118"/>
      <use x="59.179688" xlink:href="#DejaVuSans-97"/>
      <use x="120.458984" xlink:href="#DejaVuSans-108"/>
      <use x="148.242188" xlink:href="#DejaVuSans-117"/>
      <use x="211.621094" xlink:href="#DejaVuSans-101"/>
     </g>
    </g>
   </g>
  </g>
 </g>
 <defs>
  <clipPath id="p6ea23ffcb3">
   <rect height="332.64" width="669.6" x="108" y="51.84"/>
  </clipPath>
 </defs>
</svg>
