<?xml version="1.0" encoding="utf-8" standalone="no"?>
<!DOCTYPE svg PUBLIC "-//W3C//DTD SVG 1.1//EN"
  "http://www.w3.org/Graphics/SVG/1.1/DTD/svg11.dtd">
<!-- Created with matplotlib (https://matplotlib.org/) -->
<svg height="432pt" version="1.1" viewBox="0 0 864 432" width="864pt" xmlns="http://www.w3.org/2000/svg" xmlns:xlink="http://www.w3.org/1999/xlink">
 <defs>
  <style type="text/css">
*{stroke-linecap:butt;stroke-linejoin:round;}
  </style>
 </defs>
 <g id="figure_1">
  <g id="patch_1">
   <path d="M 0 432 
L 864 432 
L 864 0 
L 0 0 
z
" style="fill:#ffffff;"/>
  </g>
  <g id="axes_1">
   <g id="patch_2">
    <path d="M 108 384.48 
L 777.6 384.48 
L 777.6 51.84 
L 108 51.84 
z
" style="fill:#ffffff;"/>
   </g>
   <g id="patch_3">
    <path clip-path="url(#p16268aa92f)" d="M 138.436364 384.48 
L 138.436364 51.84 
L 440.999032 51.84 
L 440.999032 384.48 
z
" style="fill:#0000ff;opacity:0.05;"/>
   </g>
   <g id="patch_4">
    <path clip-path="url(#p16268aa92f)" d="M 440.999032 384.48 
L 440.999032 51.84 
L 747.163636 51.84 
L 747.163636 384.48 
z
" style="fill:#ff0000;opacity:0.08;"/>
   </g>
   <g id="patch_5">
    <path clip-path="url(#p16268aa92f)" d="M 138.436364 384.48 
L 138.436364 51.84 
L 142.0383 51.84 
L 142.0383 384.48 
z
" style="fill:#008000;opacity:0.04;"/>
   </g>
   <g id="patch_6">
    <path clip-path="url(#p16268aa92f)" d="M 142.0383 371.1744 
L 142.0383 51.84 
L 145.640237 51.84 
L 145.640237 371.1744 
z
" style="fill:#008000;opacity:0.5;"/>
   </g>
   <g id="patch_7">
    <path clip-path="url(#p16268aa92f)" d="M 142.0383 384.48 
L 142.0383 371.1744 
L 145.640237 371.1744 
L 145.640237 384.48 
z
" style="fill:#ffe500;"/>
   </g>
   <g id="patch_8">
    <path clip-path="url(#p16268aa92f)" d="M 145.640237 384.48 
L 145.640237 51.84 
L 149.242173 51.84 
L 149.242173 384.48 
z
" style="fill:#008000;opacity:0.04;"/>
   </g>
   <g id="patch_9">
    <path clip-path="url(#p16268aa92f)" d="M 152.84411 384.48 
L 152.84411 51.84 
L 156.446046 51.84 
L 156.446046 384.48 
z
" style="fill:#008000;opacity:0.04;"/>
   </g>
   <g id="patch_10">
    <path clip-path="url(#p16268aa92f)" d="M 160.047983 384.48 
L 160.047983 51.84 
L 163.649919 51.84 
L 163.649919 384.48 
z
" style="fill:#008000;opacity:0.04;"/>
   </g>
   <g id="patch_11">
    <path clip-path="url(#p16268aa92f)" d="M 167.251856 384.48 
L 167.251856 51.84 
L 170.853792 51.84 
L 170.853792 384.48 
z
" style="fill:#008000;opacity:0.04;"/>
   </g>
   <g id="patch_12">
    <path clip-path="url(#p16268aa92f)" d="M 167.251856 384.48 
L 167.251856 371.1744 
L 170.853792 371.1744 
L 170.853792 384.48 
z
" style="fill:#ffe500;"/>
   </g>
   <g id="patch_13">
    <path clip-path="url(#p16268aa92f)" d="M 174.455729 384.48 
L 174.455729 51.84 
L 178.057665 51.84 
L 178.057665 384.48 
z
" style="fill:#008000;opacity:0.04;"/>
   </g>
   <g id="patch_14">
    <path clip-path="url(#p16268aa92f)" d="M 174.455729 371.1744 
L 174.455729 51.84 
L 178.057665 51.84 
L 178.057665 371.1744 
z
" style="fill:#008000;opacity:0.5;"/>
   </g>
   <g id="patch_15">
    <path clip-path="url(#p16268aa92f)" d="M 477.018397 384.48 
L 477.018397 371.1744 
L 480.620334 371.1744 
L 480.620334 384.48 
z
" style="fill:#ff6600;"/>
   </g>
   <g id="patch_16">
    <path clip-path="url(#p16268aa92f)" d="M 178.057665 371.1744 
L 178.057665 51.84 
L 181.659602 51.84 
L 181.659602 371.1744 
z
" style="fill:#008000;opacity:0.5;"/>
   </g>
   <g id="patch_17">
    <path clip-path="url(#p16268aa92f)" d="M 178.057665 384.48 
L 178.057665 371.1744 
L 181.659602 371.1744 
L 181.659602 384.48 
z
" style="fill:#ffe500;"/>
   </g>
   <g id="patch_18">
    <path clip-path="url(#p16268aa92f)" d="M 181.659602 384.48 
L 181.659602 51.84 
L 185.261538 51.84 
L 185.261538 384.48 
z
" style="fill:#008000;opacity:0.04;"/>
   </g>
   <g id="patch_19">
    <path clip-path="url(#p16268aa92f)" d="M 188.863475 384.48 
L 188.863475 51.84 
L 192.465412 51.84 
L 192.465412 384.48 
z
" style="fill:#008000;opacity:0.04;"/>
   </g>
   <g id="patch_20">
    <path clip-path="url(#p16268aa92f)" d="M 196.067348 384.48 
L 196.067348 51.84 
L 199.669285 51.84 
L 199.669285 384.48 
z
" style="fill:#008000;opacity:0.04;"/>
   </g>
   <g id="patch_21">
    <path clip-path="url(#p16268aa92f)" d="M 203.271221 384.48 
L 203.271221 51.84 
L 206.873158 51.84 
L 206.873158 384.48 
z
" style="fill:#008000;opacity:0.04;"/>
   </g>
   <g id="patch_22">
    <path clip-path="url(#p16268aa92f)" d="M 206.873158 371.1744 
L 206.873158 51.84 
L 210.475094 51.84 
L 210.475094 371.1744 
z
" style="fill:#008000;opacity:0.5;"/>
   </g>
   <g id="patch_23">
    <path clip-path="url(#p16268aa92f)" d="M 206.873158 384.48 
L 206.873158 371.1744 
L 210.475094 371.1744 
L 210.475094 384.48 
z
" style="fill:#ffe500;"/>
   </g>
   <g id="patch_24">
    <path clip-path="url(#p16268aa92f)" d="M 210.475094 384.48 
L 210.475094 51.84 
L 214.077031 51.84 
L 214.077031 384.48 
z
" style="fill:#008000;opacity:0.04;"/>
   </g>
   <g id="patch_25">
    <path clip-path="url(#p16268aa92f)" d="M 217.678967 384.48 
L 217.678967 51.84 
L 221.280904 51.84 
L 221.280904 384.48 
z
" style="fill:#008000;opacity:0.04;"/>
   </g>
   <g id="patch_26">
    <path clip-path="url(#p16268aa92f)" d="M 224.88284 384.48 
L 224.88284 51.84 
L 228.484777 51.84 
L 228.484777 384.48 
z
" style="fill:#008000;opacity:0.04;"/>
   </g>
   <g id="patch_27">
    <path clip-path="url(#p16268aa92f)" d="M 232.086713 384.48 
L 232.086713 51.84 
L 235.68865 51.84 
L 235.68865 384.48 
z
" style="fill:#008000;opacity:0.04;"/>
   </g>
   <g id="patch_28">
    <path clip-path="url(#p16268aa92f)" d="M 239.290586 384.48 
L 239.290586 51.84 
L 242.892523 51.84 
L 242.892523 384.48 
z
" style="fill:#008000;opacity:0.04;"/>
   </g>
   <g id="patch_29">
    <path clip-path="url(#p16268aa92f)" d="M 246.494459 384.48 
L 246.494459 51.84 
L 250.096396 51.84 
L 250.096396 384.48 
z
" style="fill:#008000;opacity:0.04;"/>
   </g>
   <g id="patch_30">
    <path clip-path="url(#p16268aa92f)" d="M 253.698332 384.48 
L 253.698332 51.84 
L 257.300269 51.84 
L 257.300269 384.48 
z
" style="fill:#008000;opacity:0.04;"/>
   </g>
   <g id="patch_31">
    <path clip-path="url(#p16268aa92f)" d="M 253.698332 384.48 
L 253.698332 371.1744 
L 257.300269 371.1744 
L 257.300269 384.48 
z
" style="fill:#ffe500;"/>
   </g>
   <g id="patch_32">
    <path clip-path="url(#p16268aa92f)" d="M 260.902205 384.48 
L 260.902205 51.84 
L 264.504142 51.84 
L 264.504142 384.48 
z
" style="fill:#008000;opacity:0.04;"/>
   </g>
   <g id="patch_33">
    <path clip-path="url(#p16268aa92f)" d="M 268.106079 384.48 
L 268.106079 51.84 
L 271.708015 51.84 
L 271.708015 384.48 
z
" style="fill:#008000;opacity:0.04;"/>
   </g>
   <g id="patch_34">
    <path clip-path="url(#p16268aa92f)" d="M 275.309952 384.48 
L 275.309952 51.84 
L 278.911888 51.84 
L 278.911888 384.48 
z
" style="fill:#008000;opacity:0.04;"/>
   </g>
   <g id="patch_35">
    <path clip-path="url(#p16268aa92f)" d="M 282.513825 384.48 
L 282.513825 51.84 
L 286.115761 51.84 
L 286.115761 384.48 
z
" style="fill:#008000;opacity:0.04;"/>
   </g>
   <g id="patch_36">
    <path clip-path="url(#p16268aa92f)" d="M 289.717698 384.48 
L 289.717698 51.84 
L 293.319634 51.84 
L 293.319634 384.48 
z
" style="fill:#008000;opacity:0.04;"/>
   </g>
   <g id="patch_37">
    <path clip-path="url(#p16268aa92f)" d="M 595.882302 384.48 
L 595.882302 371.1744 
L 599.484239 371.1744 
L 599.484239 384.48 
z
" style="fill:#ff6600;"/>
   </g>
   <g id="patch_38">
    <path clip-path="url(#p16268aa92f)" d="M 296.921571 384.48 
L 296.921571 51.84 
L 300.523507 51.84 
L 300.523507 384.48 
z
" style="fill:#008000;opacity:0.04;"/>
   </g>
   <g id="patch_39">
    <path clip-path="url(#p16268aa92f)" d="M 304.125444 384.48 
L 304.125444 51.84 
L 307.72738 51.84 
L 307.72738 384.48 
z
" style="fill:#008000;opacity:0.04;"/>
   </g>
   <g id="patch_40">
    <path clip-path="url(#p16268aa92f)" d="M 311.329317 384.48 
L 311.329317 51.84 
L 314.931253 51.84 
L 314.931253 384.48 
z
" style="fill:#008000;opacity:0.04;"/>
   </g>
   <g id="patch_41">
    <path clip-path="url(#p16268aa92f)" d="M 318.53319 384.48 
L 318.53319 51.84 
L 322.135126 51.84 
L 322.135126 384.48 
z
" style="fill:#008000;opacity:0.04;"/>
   </g>
   <g id="patch_42">
    <path clip-path="url(#p16268aa92f)" d="M 621.095858 384.48 
L 621.095858 371.1744 
L 624.697795 371.1744 
L 624.697795 384.48 
z
" style="fill:#ff6600;"/>
   </g>
   <g id="patch_43">
    <path clip-path="url(#p16268aa92f)" d="M 325.737063 384.48 
L 325.737063 51.84 
L 329.338999 51.84 
L 329.338999 384.48 
z
" style="fill:#008000;opacity:0.04;"/>
   </g>
   <g id="patch_44">
    <path clip-path="url(#p16268aa92f)" d="M 332.940936 384.48 
L 332.940936 51.84 
L 336.542873 51.84 
L 336.542873 384.48 
z
" style="fill:#008000;opacity:0.04;"/>
   </g>
   <g id="patch_45">
    <path clip-path="url(#p16268aa92f)" d="M 340.144809 384.48 
L 340.144809 51.84 
L 343.746746 51.84 
L 343.746746 384.48 
z
" style="fill:#008000;opacity:0.04;"/>
   </g>
   <g id="patch_46">
    <path clip-path="url(#p16268aa92f)" d="M 347.348682 384.48 
L 347.348682 51.84 
L 350.950619 51.84 
L 350.950619 384.48 
z
" style="fill:#008000;opacity:0.04;"/>
   </g>
   <g id="patch_47">
    <path clip-path="url(#p16268aa92f)" d="M 354.552555 384.48 
L 354.552555 51.84 
L 358.154492 51.84 
L 358.154492 384.48 
z
" style="fill:#008000;opacity:0.04;"/>
   </g>
   <g id="patch_48">
    <path clip-path="url(#p16268aa92f)" d="M 361.756428 384.48 
L 361.756428 51.84 
L 365.358365 51.84 
L 365.358365 384.48 
z
" style="fill:#008000;opacity:0.04;"/>
   </g>
   <g id="patch_49">
    <path clip-path="url(#p16268aa92f)" d="M 365.358365 371.1744 
L 365.358365 51.84 
L 368.960301 51.84 
L 368.960301 371.1744 
z
" style="fill:#008000;opacity:0.5;"/>
   </g>
   <g id="patch_50">
    <path clip-path="url(#p16268aa92f)" d="M 365.358365 384.48 
L 365.358365 371.1744 
L 368.960301 371.1744 
L 368.960301 384.48 
z
" style="fill:#ffe500;"/>
   </g>
   <g id="patch_51">
    <path clip-path="url(#p16268aa92f)" d="M 368.960301 384.48 
L 368.960301 51.84 
L 372.562238 51.84 
L 372.562238 384.48 
z
" style="fill:#008000;opacity:0.04;"/>
   </g>
   <g id="patch_52">
    <path clip-path="url(#p16268aa92f)" d="M 368.960301 371.1744 
L 368.960301 51.84 
L 372.562238 51.84 
L 372.562238 371.1744 
z
" style="fill:#008000;opacity:0.5;"/>
   </g>
   <g id="patch_53">
    <path clip-path="url(#p16268aa92f)" d="M 368.960301 384.48 
L 368.960301 371.1744 
L 372.562238 371.1744 
L 372.562238 384.48 
z
" style="fill:#ffe500;"/>
   </g>
   <g id="patch_54">
    <path clip-path="url(#p16268aa92f)" d="M 376.164174 384.48 
L 376.164174 51.84 
L 379.766111 51.84 
L 379.766111 384.48 
z
" style="fill:#008000;opacity:0.04;"/>
   </g>
   <g id="patch_55">
    <path clip-path="url(#p16268aa92f)" d="M 376.164174 371.1744 
L 376.164174 51.84 
L 379.766111 51.84 
L 379.766111 371.1744 
z
" style="fill:#008000;opacity:0.5;"/>
   </g>
   <g id="patch_56">
    <path clip-path="url(#p16268aa92f)" d="M 376.164174 384.48 
L 376.164174 371.1744 
L 379.766111 371.1744 
L 379.766111 384.48 
z
" style="fill:#ffe500;"/>
   </g>
   <g id="patch_57">
    <path clip-path="url(#p16268aa92f)" d="M 383.368047 384.48 
L 383.368047 51.84 
L 386.969984 51.84 
L 386.969984 384.48 
z
" style="fill:#008000;opacity:0.04;"/>
   </g>
   <g id="patch_58">
    <path clip-path="url(#p16268aa92f)" d="M 689.532652 384.48 
L 689.532652 371.1744 
L 693.134588 371.1744 
L 693.134588 384.48 
z
" style="fill:#ff6600;"/>
   </g>
   <g id="patch_59">
    <path clip-path="url(#p16268aa92f)" d="M 390.57192 384.48 
L 390.57192 51.84 
L 394.173857 51.84 
L 394.173857 384.48 
z
" style="fill:#008000;opacity:0.04;"/>
   </g>
   <g id="patch_60">
    <path clip-path="url(#p16268aa92f)" d="M 397.775793 384.48 
L 397.775793 51.84 
L 401.37773 51.84 
L 401.37773 384.48 
z
" style="fill:#008000;opacity:0.04;"/>
   </g>
   <g id="patch_61">
    <path clip-path="url(#p16268aa92f)" d="M 404.979666 384.48 
L 404.979666 51.84 
L 408.581603 51.84 
L 408.581603 384.48 
z
" style="fill:#008000;opacity:0.04;"/>
   </g>
   <g id="patch_62">
    <path clip-path="url(#p16268aa92f)" d="M 412.18354 384.48 
L 412.18354 51.84 
L 415.785476 51.84 
L 415.785476 384.48 
z
" style="fill:#008000;opacity:0.04;"/>
   </g>
   <g id="patch_63">
    <path clip-path="url(#p16268aa92f)" d="M 419.387413 384.48 
L 419.387413 51.84 
L 422.989349 51.84 
L 422.989349 384.48 
z
" style="fill:#008000;opacity:0.04;"/>
   </g>
   <g id="patch_64">
    <path clip-path="url(#p16268aa92f)" d="M 426.591286 384.48 
L 426.591286 51.84 
L 430.193222 51.84 
L 430.193222 384.48 
z
" style="fill:#008000;opacity:0.04;"/>
   </g>
   <g id="patch_65">
    <path clip-path="url(#p16268aa92f)" d="M 729.153954 384.48 
L 729.153954 371.1744 
L 732.75589 371.1744 
L 732.75589 384.48 
z
" style="fill:#ff6600;"/>
   </g>
   <g id="patch_66">
    <path clip-path="url(#p16268aa92f)" d="M 433.795159 384.48 
L 433.795159 51.84 
L 437.397095 51.84 
L 437.397095 384.48 
z
" style="fill:#008000;opacity:0.04;"/>
   </g>
   <g id="patch_67">
    <path clip-path="url(#p16268aa92f)" d="M 440.999032 384.48 
L 440.999032 51.84 
L 444.600968 51.84 
L 444.600968 384.48 
z
" style="fill:#008000;opacity:0.04;"/>
   </g>
   <g id="patch_68">
    <path clip-path="url(#p16268aa92f)" d="M 743.5617 384.48 
L 743.5617 371.1744 
L 747.163636 371.1744 
L 747.163636 384.48 
z
" style="fill:#ff6600;"/>
   </g>
   <g id="patch_69">
    <path clip-path="url(#p16268aa92f)" d="M 448.202905 384.48 
L 448.202905 51.84 
L 451.804841 51.84 
L 451.804841 384.48 
z
" style="fill:#008000;opacity:0.04;"/>
   </g>
   <g id="patch_70">
    <path clip-path="url(#p16268aa92f)" d="M 455.406778 384.48 
L 455.406778 51.84 
L 459.008714 51.84 
L 459.008714 384.48 
z
" style="fill:#008000;opacity:0.04;"/>
   </g>
   <g id="patch_71">
    <path clip-path="url(#p16268aa92f)" d="M 462.610651 384.48 
L 462.610651 51.84 
L 466.212587 51.84 
L 466.212587 384.48 
z
" style="fill:#008000;opacity:0.04;"/>
   </g>
   <g id="patch_72">
    <path clip-path="url(#p16268aa92f)" d="M 469.814524 384.48 
L 469.814524 51.84 
L 473.41646 51.84 
L 473.41646 384.48 
z
" style="fill:#008000;opacity:0.04;"/>
   </g>
   <g id="patch_73">
    <path clip-path="url(#p16268aa92f)" d="M 477.018397 384.48 
L 477.018397 51.84 
L 480.620334 51.84 
L 480.620334 384.48 
z
" style="fill:#008000;opacity:0.04;"/>
   </g>
   <g id="patch_74">
    <path clip-path="url(#p16268aa92f)" d="M 477.018397 371.1744 
L 477.018397 51.84 
L 480.620334 51.84 
L 480.620334 371.1744 
z
" style="fill:#008000;opacity:0.5;"/>
   </g>
   <g id="patch_75">
    <path clip-path="url(#p16268aa92f)" d="M 484.22227 384.48 
L 484.22227 51.84 
L 487.824207 51.84 
L 487.824207 384.48 
z
" style="fill:#008000;opacity:0.04;"/>
   </g>
   <g id="patch_76">
    <path clip-path="url(#p16268aa92f)" d="M 491.426143 384.48 
L 491.426143 51.84 
L 495.02808 51.84 
L 495.02808 384.48 
z
" style="fill:#008000;opacity:0.04;"/>
   </g>
   <g id="patch_77">
    <path clip-path="url(#p16268aa92f)" d="M 498.630016 384.48 
L 498.630016 51.84 
L 502.231953 51.84 
L 502.231953 384.48 
z
" style="fill:#008000;opacity:0.04;"/>
   </g>
   <g id="patch_78">
    <path clip-path="url(#p16268aa92f)" d="M 505.833889 384.48 
L 505.833889 51.84 
L 509.435826 51.84 
L 509.435826 384.48 
z
" style="fill:#008000;opacity:0.04;"/>
   </g>
   <g id="patch_79">
    <path clip-path="url(#p16268aa92f)" d="M 513.037762 384.48 
L 513.037762 51.84 
L 516.639699 51.84 
L 516.639699 384.48 
z
" style="fill:#008000;opacity:0.04;"/>
   </g>
   <g id="patch_80">
    <path clip-path="url(#p16268aa92f)" d="M 520.241635 384.48 
L 520.241635 51.84 
L 523.843572 51.84 
L 523.843572 384.48 
z
" style="fill:#008000;opacity:0.04;"/>
   </g>
   <g id="patch_81">
    <path clip-path="url(#p16268aa92f)" d="M 527.445508 384.48 
L 527.445508 51.84 
L 531.047445 51.84 
L 531.047445 384.48 
z
" style="fill:#008000;opacity:0.04;"/>
   </g>
   <g id="patch_82">
    <path clip-path="url(#p16268aa92f)" d="M 534.649381 384.48 
L 534.649381 51.84 
L 538.251318 51.84 
L 538.251318 384.48 
z
" style="fill:#008000;opacity:0.04;"/>
   </g>
   <g id="patch_83">
    <path clip-path="url(#p16268aa92f)" d="M 541.853254 384.48 
L 541.853254 51.84 
L 545.455191 51.84 
L 545.455191 384.48 
z
" style="fill:#008000;opacity:0.04;"/>
   </g>
   <g id="patch_84">
    <path clip-path="url(#p16268aa92f)" d="M 549.057127 384.48 
L 549.057127 51.84 
L 552.659064 51.84 
L 552.659064 384.48 
z
" style="fill:#008000;opacity:0.04;"/>
   </g>
   <g id="patch_85">
    <path clip-path="url(#p16268aa92f)" d="M 556.261001 384.48 
L 556.261001 51.84 
L 559.862937 51.84 
L 559.862937 384.48 
z
" style="fill:#008000;opacity:0.04;"/>
   </g>
   <g id="patch_86">
    <path clip-path="url(#p16268aa92f)" d="M 563.464874 384.48 
L 563.464874 51.84 
L 567.06681 51.84 
L 567.06681 384.48 
z
" style="fill:#008000;opacity:0.04;"/>
   </g>
   <g id="patch_87">
    <path clip-path="url(#p16268aa92f)" d="M 570.668747 384.48 
L 570.668747 51.84 
L 574.270683 51.84 
L 574.270683 384.48 
z
" style="fill:#008000;opacity:0.04;"/>
   </g>
   <g id="patch_88">
    <path clip-path="url(#p16268aa92f)" d="M 577.87262 384.48 
L 577.87262 51.84 
L 581.474556 51.84 
L 581.474556 384.48 
z
" style="fill:#008000;opacity:0.04;"/>
   </g>
   <g id="patch_89">
    <path clip-path="url(#p16268aa92f)" d="M 585.076493 384.48 
L 585.076493 51.84 
L 588.678429 51.84 
L 588.678429 384.48 
z
" style="fill:#008000;opacity:0.04;"/>
   </g>
   <g id="patch_90">
    <path clip-path="url(#p16268aa92f)" d="M 592.280366 384.48 
L 592.280366 51.84 
L 595.882302 51.84 
L 595.882302 384.48 
z
" style="fill:#008000;opacity:0.04;"/>
   </g>
   <g id="patch_91">
    <path clip-path="url(#p16268aa92f)" d="M 595.882302 371.1744 
L 595.882302 51.84 
L 599.484239 51.84 
L 599.484239 371.1744 
z
" style="fill:#008000;opacity:0.5;"/>
   </g>
   <g id="patch_92">
    <path clip-path="url(#p16268aa92f)" d="M 599.484239 384.48 
L 599.484239 51.84 
L 603.086175 51.84 
L 603.086175 384.48 
z
" style="fill:#008000;opacity:0.04;"/>
   </g>
   <g id="patch_93">
    <path clip-path="url(#p16268aa92f)" d="M 606.688112 384.48 
L 606.688112 51.84 
L 610.290048 51.84 
L 610.290048 384.48 
z
" style="fill:#008000;opacity:0.04;"/>
   </g>
   <g id="patch_94">
    <path clip-path="url(#p16268aa92f)" d="M 613.891985 384.48 
L 613.891985 51.84 
L 617.493921 51.84 
L 617.493921 384.48 
z
" style="fill:#008000;opacity:0.04;"/>
   </g>
   <g id="patch_95">
    <path clip-path="url(#p16268aa92f)" d="M 621.095858 384.48 
L 621.095858 51.84 
L 624.697795 51.84 
L 624.697795 384.48 
z
" style="fill:#008000;opacity:0.04;"/>
   </g>
   <g id="patch_96">
    <path clip-path="url(#p16268aa92f)" d="M 621.095858 371.1744 
L 621.095858 51.84 
L 624.697795 51.84 
L 624.697795 371.1744 
z
" style="fill:#008000;opacity:0.5;"/>
   </g>
   <g id="patch_97">
    <path clip-path="url(#p16268aa92f)" d="M 628.299731 384.48 
L 628.299731 51.84 
L 631.901668 51.84 
L 631.901668 384.48 
z
" style="fill:#008000;opacity:0.04;"/>
   </g>
   <g id="patch_98">
    <path clip-path="url(#p16268aa92f)" d="M 635.503604 384.48 
L 635.503604 51.84 
L 639.105541 51.84 
L 639.105541 384.48 
z
" style="fill:#008000;opacity:0.04;"/>
   </g>
   <g id="patch_99">
    <path clip-path="url(#p16268aa92f)" d="M 642.707477 384.48 
L 642.707477 51.84 
L 646.309414 51.84 
L 646.309414 384.48 
z
" style="fill:#008000;opacity:0.04;"/>
   </g>
   <g id="patch_100">
    <path clip-path="url(#p16268aa92f)" d="M 649.91135 384.48 
L 649.91135 51.84 
L 653.513287 51.84 
L 653.513287 384.48 
z
" style="fill:#008000;opacity:0.04;"/>
   </g>
   <g id="patch_101">
    <path clip-path="url(#p16268aa92f)" d="M 657.115223 384.48 
L 657.115223 51.84 
L 660.71716 51.84 
L 660.71716 384.48 
z
" style="fill:#008000;opacity:0.04;"/>
   </g>
   <g id="patch_102">
    <path clip-path="url(#p16268aa92f)" d="M 664.319096 384.48 
L 664.319096 51.84 
L 667.921033 51.84 
L 667.921033 384.48 
z
" style="fill:#008000;opacity:0.04;"/>
   </g>
   <g id="patch_103">
    <path clip-path="url(#p16268aa92f)" d="M 671.522969 384.48 
L 671.522969 51.84 
L 675.124906 51.84 
L 675.124906 384.48 
z
" style="fill:#008000;opacity:0.04;"/>
   </g>
   <g id="patch_104">
    <path clip-path="url(#p16268aa92f)" d="M 678.726842 384.48 
L 678.726842 51.84 
L 682.328779 51.84 
L 682.328779 384.48 
z
" style="fill:#008000;opacity:0.04;"/>
   </g>
   <g id="patch_105">
    <path clip-path="url(#p16268aa92f)" d="M 685.930715 384.48 
L 685.930715 51.84 
L 689.532652 51.84 
L 689.532652 384.48 
z
" style="fill:#008000;opacity:0.04;"/>
   </g>
   <g id="patch_106">
    <path clip-path="url(#p16268aa92f)" d="M 689.532652 371.1744 
L 689.532652 51.84 
L 693.134588 51.84 
L 693.134588 371.1744 
z
" style="fill:#008000;opacity:0.5;"/>
   </g>
   <g id="patch_107">
    <path clip-path="url(#p16268aa92f)" d="M 693.134588 384.48 
L 693.134588 51.84 
L 696.736525 51.84 
L 696.736525 384.48 
z
" style="fill:#008000;opacity:0.04;"/>
   </g>
   <g id="patch_108">
    <path clip-path="url(#p16268aa92f)" d="M 700.338462 384.48 
L 700.338462 51.84 
L 703.940398 51.84 
L 703.940398 384.48 
z
" style="fill:#008000;opacity:0.04;"/>
   </g>
   <g id="patch_109">
    <path clip-path="url(#p16268aa92f)" d="M 707.542335 384.48 
L 707.542335 51.84 
L 711.144271 51.84 
L 711.144271 384.48 
z
" style="fill:#008000;opacity:0.04;"/>
   </g>
   <g id="patch_110">
    <path clip-path="url(#p16268aa92f)" d="M 714.746208 384.48 
L 714.746208 51.84 
L 718.348144 51.84 
L 718.348144 384.48 
z
" style="fill:#008000;opacity:0.04;"/>
   </g>
   <g id="patch_111">
    <path clip-path="url(#p16268aa92f)" d="M 721.950081 384.48 
L 721.950081 51.84 
L 725.552017 51.84 
L 725.552017 384.48 
z
" style="fill:#008000;opacity:0.04;"/>
   </g>
   <g id="patch_112">
    <path clip-path="url(#p16268aa92f)" d="M 729.153954 384.48 
L 729.153954 51.84 
L 732.75589 51.84 
L 732.75589 384.48 
z
" style="fill:#008000;opacity:0.04;"/>
   </g>
   <g id="patch_113">
    <path clip-path="url(#p16268aa92f)" d="M 729.153954 371.1744 
L 729.153954 51.84 
L 732.75589 51.84 
L 732.75589 371.1744 
z
" style="fill:#008000;opacity:0.5;"/>
   </g>
   <g id="patch_114">
    <path clip-path="url(#p16268aa92f)" d="M 736.357827 384.48 
L 736.357827 51.84 
L 739.959763 51.84 
L 739.959763 384.48 
z
" style="fill:#008000;opacity:0.04;"/>
   </g>
   <g id="patch_115">
    <path clip-path="url(#p16268aa92f)" d="M 743.5617 384.48 
L 743.5617 51.84 
L 747.163636 51.84 
L 747.163636 384.48 
z
" style="fill:#008000;opacity:0.04;"/>
   </g>
   <g id="matplotlib.axis_1">
    <g id="xtick_1">
     <g id="line2d_1">
      <defs>
       <path d="M 0 0 
L 0 3.5 
" id="m6a0289c61c" style="stroke:#000000;stroke-width:0.8;"/>
      </defs>
      <g>
       <use style="stroke:#000000;stroke-width:0.8;" x="138.436364" xlink:href="#m6a0289c61c" y="384.48"/>
      </g>
     </g>
     <g id="text_1">
      <!-- 0 -->
      <defs>
       <path d="M 31.78125 66.40625 
Q 24.171875 66.40625 20.328125 58.90625 
Q 16.5 51.421875 16.5 36.375 
Q 16.5 21.390625 20.328125 13.890625 
Q 24.171875 6.390625 31.78125 6.390625 
Q 39.453125 6.390625 43.28125 13.890625 
Q 47.125 21.390625 47.125 36.375 
Q 47.125 51.421875 43.28125 58.90625 
Q 39.453125 66.40625 31.78125 66.40625 
z
M 31.78125 74.21875 
Q 44.046875 74.21875 50.515625 64.515625 
Q 56.984375 54.828125 56.984375 36.375 
Q 56.984375 17.96875 50.515625 8.265625 
Q 44.046875 -1.421875 31.78125 -1.421875 
Q 19.53125 -1.421875 13.0625 8.265625 
Q 6.59375 17.96875 6.59375 36.375 
Q 6.59375 54.828125 13.0625 64.515625 
Q 19.53125 74.21875 31.78125 74.21875 
z
" id="DejaVuSans-48"/>
      </defs>
      <g transform="translate(135.255114 399.078438)scale(0.1 -0.1)">
       <use xlink:href="#DejaVuSans-48"/>
      </g>
     </g>
    </g>
    <g id="xtick_2">
     <g id="line2d_2">
      <g>
       <use style="stroke:#000000;stroke-width:0.8;" x="228.484777" xlink:href="#m6a0289c61c" y="384.48"/>
      </g>
     </g>
     <g id="text_2">
      <!-- 250 -->
      <defs>
       <path d="M 19.1875 8.296875 
L 53.609375 8.296875 
L 53.609375 0 
L 7.328125 0 
L 7.328125 8.296875 
Q 12.9375 14.109375 22.625 23.890625 
Q 32.328125 33.6875 34.8125 36.53125 
Q 39.546875 41.84375 41.421875 45.53125 
Q 43.3125 49.21875 43.3125 52.78125 
Q 43.3125 58.59375 39.234375 62.25 
Q 35.15625 65.921875 28.609375 65.921875 
Q 23.96875 65.921875 18.8125 64.3125 
Q 13.671875 62.703125 7.8125 59.421875 
L 7.8125 69.390625 
Q 13.765625 71.78125 18.9375 73 
Q 24.125 74.21875 28.421875 74.21875 
Q 39.75 74.21875 46.484375 68.546875 
Q 53.21875 62.890625 53.21875 53.421875 
Q 53.21875 48.921875 51.53125 44.890625 
Q 49.859375 40.875 45.40625 35.40625 
Q 44.1875 33.984375 37.640625 27.21875 
Q 31.109375 20.453125 19.1875 8.296875 
z
" id="DejaVuSans-50"/>
       <path d="M 10.796875 72.90625 
L 49.515625 72.90625 
L 49.515625 64.59375 
L 19.828125 64.59375 
L 19.828125 46.734375 
Q 21.96875 47.46875 24.109375 47.828125 
Q 26.265625 48.1875 28.421875 48.1875 
Q 40.625 48.1875 47.75 41.5 
Q 54.890625 34.8125 54.890625 23.390625 
Q 54.890625 11.625 47.5625 5.09375 
Q 40.234375 -1.421875 26.90625 -1.421875 
Q 22.3125 -1.421875 17.546875 -0.640625 
Q 12.796875 0.140625 7.71875 1.703125 
L 7.71875 11.625 
Q 12.109375 9.234375 16.796875 8.0625 
Q 21.484375 6.890625 26.703125 6.890625 
Q 35.15625 6.890625 40.078125 11.328125 
Q 45.015625 15.765625 45.015625 23.390625 
Q 45.015625 31 40.078125 35.4375 
Q 35.15625 39.890625 26.703125 39.890625 
Q 22.75 39.890625 18.8125 39.015625 
Q 14.890625 38.140625 10.796875 36.28125 
z
" id="DejaVuSans-53"/>
      </defs>
      <g transform="translate(218.941027 399.078438)scale(0.1 -0.1)">
       <use xlink:href="#DejaVuSans-50"/>
       <use x="63.623047" xlink:href="#DejaVuSans-53"/>
       <use x="127.246094" xlink:href="#DejaVuSans-48"/>
      </g>
     </g>
    </g>
    <g id="xtick_3">
     <g id="line2d_3">
      <g>
       <use style="stroke:#000000;stroke-width:0.8;" x="318.53319" xlink:href="#m6a0289c61c" y="384.48"/>
      </g>
     </g>
     <g id="text_3">
      <!-- 500 -->
      <g transform="translate(308.98944 399.078438)scale(0.1 -0.1)">
       <use xlink:href="#DejaVuSans-53"/>
       <use x="63.623047" xlink:href="#DejaVuSans-48"/>
       <use x="127.246094" xlink:href="#DejaVuSans-48"/>
      </g>
     </g>
    </g>
    <g id="xtick_4">
     <g id="line2d_4">
      <g>
       <use style="stroke:#000000;stroke-width:0.8;" x="408.581603" xlink:href="#m6a0289c61c" y="384.48"/>
      </g>
     </g>
     <g id="text_4">
      <!-- 750 -->
      <defs>
       <path d="M 8.203125 72.90625 
L 55.078125 72.90625 
L 55.078125 68.703125 
L 28.609375 0 
L 18.3125 0 
L 43.21875 64.59375 
L 8.203125 64.59375 
z
" id="DejaVuSans-55"/>
      </defs>
      <g transform="translate(399.037853 399.078438)scale(0.1 -0.1)">
       <use xlink:href="#DejaVuSans-55"/>
       <use x="63.623047" xlink:href="#DejaVuSans-53"/>
       <use x="127.246094" xlink:href="#DejaVuSans-48"/>
      </g>
     </g>
    </g>
    <g id="xtick_5">
     <g id="line2d_5">
      <g>
       <use style="stroke:#000000;stroke-width:0.8;" x="498.630016" xlink:href="#m6a0289c61c" y="384.48"/>
      </g>
     </g>
     <g id="text_5">
      <!-- 1000 -->
      <defs>
       <path d="M 12.40625 8.296875 
L 28.515625 8.296875 
L 28.515625 63.921875 
L 10.984375 60.40625 
L 10.984375 69.390625 
L 28.421875 72.90625 
L 38.28125 72.90625 
L 38.28125 8.296875 
L 54.390625 8.296875 
L 54.390625 0 
L 12.40625 0 
z
" id="DejaVuSans-49"/>
      </defs>
      <g transform="translate(485.905016 399.078438)scale(0.1 -0.1)">
       <use xlink:href="#DejaVuSans-49"/>
       <use x="63.623047" xlink:href="#DejaVuSans-48"/>
       <use x="127.246094" xlink:href="#DejaVuSans-48"/>
       <use x="190.869141" xlink:href="#DejaVuSans-48"/>
      </g>
     </g>
    </g>
    <g id="xtick_6">
     <g id="line2d_6">
      <g>
       <use style="stroke:#000000;stroke-width:0.8;" x="588.678429" xlink:href="#m6a0289c61c" y="384.48"/>
      </g>
     </g>
     <g id="text_6">
      <!-- 1250 -->
      <g transform="translate(575.953429 399.078438)scale(0.1 -0.1)">
       <use xlink:href="#DejaVuSans-49"/>
       <use x="63.623047" xlink:href="#DejaVuSans-50"/>
       <use x="127.246094" xlink:href="#DejaVuSans-53"/>
       <use x="190.869141" xlink:href="#DejaVuSans-48"/>
      </g>
     </g>
    </g>
    <g id="xtick_7">
     <g id="line2d_7">
      <g>
       <use style="stroke:#000000;stroke-width:0.8;" x="678.726842" xlink:href="#m6a0289c61c" y="384.48"/>
      </g>
     </g>
     <g id="text_7">
      <!-- 1500 -->
      <g transform="translate(666.001842 399.078438)scale(0.1 -0.1)">
       <use xlink:href="#DejaVuSans-49"/>
       <use x="63.623047" xlink:href="#DejaVuSans-53"/>
       <use x="127.246094" xlink:href="#DejaVuSans-48"/>
       <use x="190.869141" xlink:href="#DejaVuSans-48"/>
      </g>
     </g>
    </g>
    <g id="xtick_8">
     <g id="line2d_8">
      <g>
       <use style="stroke:#000000;stroke-width:0.8;" x="768.775256" xlink:href="#m6a0289c61c" y="384.48"/>
      </g>
     </g>
     <g id="text_8">
      <!-- 1750 -->
      <g transform="translate(756.050256 399.078438)scale(0.1 -0.1)">
       <use xlink:href="#DejaVuSans-49"/>
       <use x="63.623047" xlink:href="#DejaVuSans-55"/>
       <use x="127.246094" xlink:href="#DejaVuSans-53"/>
       <use x="190.869141" xlink:href="#DejaVuSans-48"/>
      </g>
     </g>
    </g>
    <g id="text_9">
     <!-- Timestamp -->
     <defs>
      <path d="M -0.296875 72.90625 
L 61.375 72.90625 
L 61.375 64.59375 
L 35.5 64.59375 
L 35.5 0 
L 25.59375 0 
L 25.59375 64.59375 
L -0.296875 64.59375 
z
" id="DejaVuSans-84"/>
      <path d="M 9.421875 54.6875 
L 18.40625 54.6875 
L 18.40625 0 
L 9.421875 0 
z
M 9.421875 75.984375 
L 18.40625 75.984375 
L 18.40625 64.59375 
L 9.421875 64.59375 
z
" id="DejaVuSans-105"/>
      <path d="M 52 44.1875 
Q 55.375 50.25 60.0625 53.125 
Q 64.75 56 71.09375 56 
Q 79.640625 56 84.28125 50.015625 
Q 88.921875 44.046875 88.921875 33.015625 
L 88.921875 0 
L 79.890625 0 
L 79.890625 32.71875 
Q 79.890625 40.578125 77.09375 44.375 
Q 74.3125 48.1875 68.609375 48.1875 
Q 61.625 48.1875 57.5625 43.546875 
Q 53.515625 38.921875 53.515625 30.90625 
L 53.515625 0 
L 44.484375 0 
L 44.484375 32.71875 
Q 44.484375 40.625 41.703125 44.40625 
Q 38.921875 48.1875 33.109375 48.1875 
Q 26.21875 48.1875 22.15625 43.53125 
Q 18.109375 38.875 18.109375 30.90625 
L 18.109375 0 
L 9.078125 0 
L 9.078125 54.6875 
L 18.109375 54.6875 
L 18.109375 46.1875 
Q 21.1875 51.21875 25.484375 53.609375 
Q 29.78125 56 35.6875 56 
Q 41.65625 56 45.828125 52.96875 
Q 50 49.953125 52 44.1875 
z
" id="DejaVuSans-109"/>
      <path d="M 56.203125 29.59375 
L 56.203125 25.203125 
L 14.890625 25.203125 
Q 15.484375 15.921875 20.484375 11.0625 
Q 25.484375 6.203125 34.421875 6.203125 
Q 39.59375 6.203125 44.453125 7.46875 
Q 49.3125 8.734375 54.109375 11.28125 
L 54.109375 2.78125 
Q 49.265625 0.734375 44.1875 -0.34375 
Q 39.109375 -1.421875 33.890625 -1.421875 
Q 20.796875 -1.421875 13.15625 6.1875 
Q 5.515625 13.8125 5.515625 26.8125 
Q 5.515625 40.234375 12.765625 48.109375 
Q 20.015625 56 32.328125 56 
Q 43.359375 56 49.78125 48.890625 
Q 56.203125 41.796875 56.203125 29.59375 
z
M 47.21875 32.234375 
Q 47.125 39.59375 43.09375 43.984375 
Q 39.0625 48.390625 32.421875 48.390625 
Q 24.90625 48.390625 20.390625 44.140625 
Q 15.875 39.890625 15.1875 32.171875 
z
" id="DejaVuSans-101"/>
      <path d="M 44.28125 53.078125 
L 44.28125 44.578125 
Q 40.484375 46.53125 36.375 47.5 
Q 32.28125 48.484375 27.875 48.484375 
Q 21.1875 48.484375 17.84375 46.4375 
Q 14.5 44.390625 14.5 40.28125 
Q 14.5 37.15625 16.890625 35.375 
Q 19.28125 33.59375 26.515625 31.984375 
L 29.59375 31.296875 
Q 39.15625 29.25 43.1875 25.515625 
Q 47.21875 21.78125 47.21875 15.09375 
Q 47.21875 7.46875 41.1875 3.015625 
Q 35.15625 -1.421875 24.609375 -1.421875 
Q 20.21875 -1.421875 15.453125 -0.5625 
Q 10.6875 0.296875 5.421875 2 
L 5.421875 11.28125 
Q 10.40625 8.6875 15.234375 7.390625 
Q 20.0625 6.109375 24.8125 6.109375 
Q 31.15625 6.109375 34.5625 8.28125 
Q 37.984375 10.453125 37.984375 14.40625 
Q 37.984375 18.0625 35.515625 20.015625 
Q 33.0625 21.96875 24.703125 23.78125 
L 21.578125 24.515625 
Q 13.234375 26.265625 9.515625 29.90625 
Q 5.8125 33.546875 5.8125 39.890625 
Q 5.8125 47.609375 11.28125 51.796875 
Q 16.75 56 26.8125 56 
Q 31.78125 56 36.171875 55.265625 
Q 40.578125 54.546875 44.28125 53.078125 
z
" id="DejaVuSans-115"/>
      <path d="M 18.3125 70.21875 
L 18.3125 54.6875 
L 36.8125 54.6875 
L 36.8125 47.703125 
L 18.3125 47.703125 
L 18.3125 18.015625 
Q 18.3125 11.328125 20.140625 9.421875 
Q 21.96875 7.515625 27.59375 7.515625 
L 36.8125 7.515625 
L 36.8125 0 
L 27.59375 0 
Q 17.1875 0 13.234375 3.875 
Q 9.28125 7.765625 9.28125 18.015625 
L 9.28125 47.703125 
L 2.6875 47.703125 
L 2.6875 54.6875 
L 9.28125 54.6875 
L 9.28125 70.21875 
z
" id="DejaVuSans-116"/>
      <path d="M 34.28125 27.484375 
Q 23.390625 27.484375 19.1875 25 
Q 14.984375 22.515625 14.984375 16.5 
Q 14.984375 11.71875 18.140625 8.90625 
Q 21.296875 6.109375 26.703125 6.109375 
Q 34.1875 6.109375 38.703125 11.40625 
Q 43.21875 16.703125 43.21875 25.484375 
L 43.21875 27.484375 
z
M 52.203125 31.203125 
L 52.203125 0 
L 43.21875 0 
L 43.21875 8.296875 
Q 40.140625 3.328125 35.546875 0.953125 
Q 30.953125 -1.421875 24.3125 -1.421875 
Q 15.921875 -1.421875 10.953125 3.296875 
Q 6 8.015625 6 15.921875 
Q 6 25.140625 12.171875 29.828125 
Q 18.359375 34.515625 30.609375 34.515625 
L 43.21875 34.515625 
L 43.21875 35.40625 
Q 43.21875 41.609375 39.140625 45 
Q 35.0625 48.390625 27.6875 48.390625 
Q 23 48.390625 18.546875 47.265625 
Q 14.109375 46.140625 10.015625 43.890625 
L 10.015625 52.203125 
Q 14.9375 54.109375 19.578125 55.046875 
Q 24.21875 56 28.609375 56 
Q 40.484375 56 46.34375 49.84375 
Q 52.203125 43.703125 52.203125 31.203125 
z
" id="DejaVuSans-97"/>
      <path d="M 18.109375 8.203125 
L 18.109375 -20.796875 
L 9.078125 -20.796875 
L 9.078125 54.6875 
L 18.109375 54.6875 
L 18.109375 46.390625 
Q 20.953125 51.265625 25.265625 53.625 
Q 29.59375 56 35.59375 56 
Q 45.5625 56 51.78125 48.09375 
Q 58.015625 40.1875 58.015625 27.296875 
Q 58.015625 14.40625 51.78125 6.484375 
Q 45.5625 -1.421875 35.59375 -1.421875 
Q 29.59375 -1.421875 25.265625 0.953125 
Q 20.953125 3.328125 18.109375 8.203125 
z
M 48.6875 27.296875 
Q 48.6875 37.203125 44.609375 42.84375 
Q 40.53125 48.484375 33.40625 48.484375 
Q 26.265625 48.484375 22.1875 42.84375 
Q 18.109375 37.203125 18.109375 27.296875 
Q 18.109375 17.390625 22.1875 11.75 
Q 26.265625 6.109375 33.40625 6.109375 
Q 40.53125 6.109375 44.609375 11.75 
Q 48.6875 17.390625 48.6875 27.296875 
z
" id="DejaVuSans-112"/>
     </defs>
     <g transform="translate(414.739062 412.756563)scale(0.1 -0.1)">
      <use xlink:href="#DejaVuSans-84"/>
      <use x="61.037109" xlink:href="#DejaVuSans-105"/>
      <use x="88.820312" xlink:href="#DejaVuSans-109"/>
      <use x="186.232422" xlink:href="#DejaVuSans-101"/>
      <use x="247.755859" xlink:href="#DejaVuSans-115"/>
      <use x="299.855469" xlink:href="#DejaVuSans-116"/>
      <use x="339.064453" xlink:href="#DejaVuSans-97"/>
      <use x="400.34375" xlink:href="#DejaVuSans-109"/>
      <use x="497.755859" xlink:href="#DejaVuSans-112"/>
     </g>
    </g>
   </g>
   <g id="matplotlib.axis_2">
    <g id="ytick_1">
     <g id="line2d_9">
      <defs>
       <path d="M 0 0 
L -3.5 0 
" id="m635a5cae75" style="stroke:#000000;stroke-width:0.8;"/>
      </defs>
      <g>
       <use style="stroke:#000000;stroke-width:0.8;" x="108" xlink:href="#m635a5cae75" y="369.684266"/>
      </g>
     </g>
     <g id="text_10">
      <!-- −8000 -->
      <defs>
       <path d="M 10.59375 35.5 
L 73.1875 35.5 
L 73.1875 27.203125 
L 10.59375 27.203125 
z
" id="DejaVuSans-8722"/>
       <path d="M 31.78125 34.625 
Q 24.75 34.625 20.71875 30.859375 
Q 16.703125 27.09375 16.703125 20.515625 
Q 16.703125 13.921875 20.71875 10.15625 
Q 24.75 6.390625 31.78125 6.390625 
Q 38.8125 6.390625 42.859375 10.171875 
Q 46.921875 13.96875 46.921875 20.515625 
Q 46.921875 27.09375 42.890625 30.859375 
Q 38.875 34.625 31.78125 34.625 
z
M 21.921875 38.8125 
Q 15.578125 40.375 12.03125 44.71875 
Q 8.5 49.078125 8.5 55.328125 
Q 8.5 64.0625 14.71875 69.140625 
Q 20.953125 74.21875 31.78125 74.21875 
Q 42.671875 74.21875 48.875 69.140625 
Q 55.078125 64.0625 55.078125 55.328125 
Q 55.078125 49.078125 51.53125 44.71875 
Q 48 40.375 41.703125 38.8125 
Q 48.828125 37.15625 52.796875 32.3125 
Q 56.78125 27.484375 56.78125 20.515625 
Q 56.78125 9.90625 50.3125 4.234375 
Q 43.84375 -1.421875 31.78125 -1.421875 
Q 19.734375 -1.421875 13.25 4.234375 
Q 6.78125 9.90625 6.78125 20.515625 
Q 6.78125 27.484375 10.78125 32.3125 
Q 14.796875 37.15625 21.921875 38.8125 
z
M 18.3125 54.390625 
Q 18.3125 48.734375 21.84375 45.5625 
Q 25.390625 42.390625 31.78125 42.390625 
Q 38.140625 42.390625 41.71875 45.5625 
Q 45.3125 48.734375 45.3125 54.390625 
Q 45.3125 60.0625 41.71875 63.234375 
Q 38.140625 66.40625 31.78125 66.40625 
Q 25.390625 66.40625 21.84375 63.234375 
Q 18.3125 60.0625 18.3125 54.390625 
z
" id="DejaVuSans-56"/>
      </defs>
      <g transform="translate(67.170312 373.483484)scale(0.1 -0.1)">
       <use xlink:href="#DejaVuSans-8722"/>
       <use x="83.789062" xlink:href="#DejaVuSans-56"/>
       <use x="147.412109" xlink:href="#DejaVuSans-48"/>
       <use x="211.035156" xlink:href="#DejaVuSans-48"/>
       <use x="274.658203" xlink:href="#DejaVuSans-48"/>
      </g>
     </g>
    </g>
    <g id="ytick_2">
     <g id="line2d_10">
      <g>
       <use style="stroke:#000000;stroke-width:0.8;" x="108" xlink:href="#m635a5cae75" y="316.260627"/>
      </g>
     </g>
     <g id="text_11">
      <!-- −6000 -->
      <defs>
       <path d="M 33.015625 40.375 
Q 26.375 40.375 22.484375 35.828125 
Q 18.609375 31.296875 18.609375 23.390625 
Q 18.609375 15.53125 22.484375 10.953125 
Q 26.375 6.390625 33.015625 6.390625 
Q 39.65625 6.390625 43.53125 10.953125 
Q 47.40625 15.53125 47.40625 23.390625 
Q 47.40625 31.296875 43.53125 35.828125 
Q 39.65625 40.375 33.015625 40.375 
z
M 52.59375 71.296875 
L 52.59375 62.3125 
Q 48.875 64.0625 45.09375 64.984375 
Q 41.3125 65.921875 37.59375 65.921875 
Q 27.828125 65.921875 22.671875 59.328125 
Q 17.53125 52.734375 16.796875 39.40625 
Q 19.671875 43.65625 24.015625 45.921875 
Q 28.375 48.1875 33.59375 48.1875 
Q 44.578125 48.1875 50.953125 41.515625 
Q 57.328125 34.859375 57.328125 23.390625 
Q 57.328125 12.15625 50.6875 5.359375 
Q 44.046875 -1.421875 33.015625 -1.421875 
Q 20.359375 -1.421875 13.671875 8.265625 
Q 6.984375 17.96875 6.984375 36.375 
Q 6.984375 53.65625 15.1875 63.9375 
Q 23.390625 74.21875 37.203125 74.21875 
Q 40.921875 74.21875 44.703125 73.484375 
Q 48.484375 72.75 52.59375 71.296875 
z
" id="DejaVuSans-54"/>
      </defs>
      <g transform="translate(67.170312 320.059846)scale(0.1 -0.1)">
       <use xlink:href="#DejaVuSans-8722"/>
       <use x="83.789062" xlink:href="#DejaVuSans-54"/>
       <use x="147.412109" xlink:href="#DejaVuSans-48"/>
       <use x="211.035156" xlink:href="#DejaVuSans-48"/>
       <use x="274.658203" xlink:href="#DejaVuSans-48"/>
      </g>
     </g>
    </g>
    <g id="ytick_3">
     <g id="line2d_11">
      <g>
       <use style="stroke:#000000;stroke-width:0.8;" x="108" xlink:href="#m635a5cae75" y="262.836988"/>
      </g>
     </g>
     <g id="text_12">
      <!-- −4000 -->
      <defs>
       <path d="M 37.796875 64.3125 
L 12.890625 25.390625 
L 37.796875 25.390625 
z
M 35.203125 72.90625 
L 47.609375 72.90625 
L 47.609375 25.390625 
L 58.015625 25.390625 
L 58.015625 17.1875 
L 47.609375 17.1875 
L 47.609375 0 
L 37.796875 0 
L 37.796875 17.1875 
L 4.890625 17.1875 
L 4.890625 26.703125 
z
" id="DejaVuSans-52"/>
      </defs>
      <g transform="translate(67.170312 266.636207)scale(0.1 -0.1)">
       <use xlink:href="#DejaVuSans-8722"/>
       <use x="83.789062" xlink:href="#DejaVuSans-52"/>
       <use x="147.412109" xlink:href="#DejaVuSans-48"/>
       <use x="211.035156" xlink:href="#DejaVuSans-48"/>
       <use x="274.658203" xlink:href="#DejaVuSans-48"/>
      </g>
     </g>
    </g>
    <g id="ytick_4">
     <g id="line2d_12">
      <g>
       <use style="stroke:#000000;stroke-width:0.8;" x="108" xlink:href="#m635a5cae75" y="209.413349"/>
      </g>
     </g>
     <g id="text_13">
      <!-- −2000 -->
      <g transform="translate(67.170312 213.212568)scale(0.1 -0.1)">
       <use xlink:href="#DejaVuSans-8722"/>
       <use x="83.789062" xlink:href="#DejaVuSans-50"/>
       <use x="147.412109" xlink:href="#DejaVuSans-48"/>
       <use x="211.035156" xlink:href="#DejaVuSans-48"/>
       <use x="274.658203" xlink:href="#DejaVuSans-48"/>
      </g>
     </g>
    </g>
    <g id="ytick_5">
     <g id="line2d_13">
      <g>
       <use style="stroke:#000000;stroke-width:0.8;" x="108" xlink:href="#m635a5cae75" y="155.989711"/>
      </g>
     </g>
     <g id="text_14">
      <!-- 0 -->
      <g transform="translate(94.6375 159.788929)scale(0.1 -0.1)">
       <use xlink:href="#DejaVuSans-48"/>
      </g>
     </g>
    </g>
    <g id="ytick_6">
     <g id="line2d_14">
      <g>
       <use style="stroke:#000000;stroke-width:0.8;" x="108" xlink:href="#m635a5cae75" y="102.566072"/>
      </g>
     </g>
     <g id="text_15">
      <!-- 2000 -->
      <g transform="translate(75.55 106.365291)scale(0.1 -0.1)">
       <use xlink:href="#DejaVuSans-50"/>
       <use x="63.623047" xlink:href="#DejaVuSans-48"/>
       <use x="127.246094" xlink:href="#DejaVuSans-48"/>
       <use x="190.869141" xlink:href="#DejaVuSans-48"/>
      </g>
     </g>
    </g>
    <g id="text_16">
     <!-- Value -->
     <defs>
      <path d="M 28.609375 0 
L 0.78125 72.90625 
L 11.078125 72.90625 
L 34.1875 11.53125 
L 57.328125 72.90625 
L 67.578125 72.90625 
L 39.796875 0 
z
" id="DejaVuSans-86"/>
      <path d="M 9.421875 75.984375 
L 18.40625 75.984375 
L 18.40625 0 
L 9.421875 0 
z
" id="DejaVuSans-108"/>
      <path d="M 8.5 21.578125 
L 8.5 54.6875 
L 17.484375 54.6875 
L 17.484375 21.921875 
Q 17.484375 14.15625 20.5 10.265625 
Q 23.53125 6.390625 29.59375 6.390625 
Q 36.859375 6.390625 41.078125 11.03125 
Q 45.3125 15.671875 45.3125 23.6875 
L 45.3125 54.6875 
L 54.296875 54.6875 
L 54.296875 0 
L 45.3125 0 
L 45.3125 8.40625 
Q 42.046875 3.421875 37.71875 1 
Q 33.40625 -1.421875 27.6875 -1.421875 
Q 18.265625 -1.421875 13.375 4.4375 
Q 8.5 10.296875 8.5 21.578125 
z
M 31.109375 56 
z
" id="DejaVuSans-117"/>
     </defs>
     <g transform="translate(61.090625 232.273281)rotate(-90)scale(0.1 -0.1)">
      <use xlink:href="#DejaVuSans-86"/>
      <use x="68.298828" xlink:href="#DejaVuSans-97"/>
      <use x="129.578125" xlink:href="#DejaVuSans-108"/>
      <use x="157.361328" xlink:href="#DejaVuSans-117"/>
      <use x="220.740234" xlink:href="#DejaVuSans-101"/>
     </g>
    </g>
   </g>
   <g id="line2d_15">
    <path clip-path="url(#p16268aa92f)" d="M 138.436364 154.265068 
L 139.156751 118.687963 
L 139.516945 115.662163 
L 139.877138 117.924045 
L 140.237332 121.861191 
L 140.957719 148.125289 
L 141.678107 164.978356 
L 142.0383 163.808687 
L 142.398494 160.493248 
L 142.758687 153.055081 
L 143.118881 148.548032 
L 143.839268 143.096766 
L 144.199462 147.996462 
L 144.559656 225.672292 
L 144.919849 238.985654 
L 145.280043 183.22526 
L 145.640237 191.078647 
L 146.00043 190.645842 
L 146.360624 183.188664 
L 146.720818 170.810904 
L 147.441205 130.488827 
L 147.801399 119.398694 
L 148.521786 113.215299 
L 149.242173 129.968386 
L 149.962561 158.599879 
L 150.322754 160.193338 
L 150.682948 159.082923 
L 151.043141 157.289671 
L 151.403335 150.038165 
L 151.763529 148.826466 
L 152.123722 143.500065 
L 152.483916 139.9659 
L 152.84411 147.20652 
L 153.564497 176.353285 
L 154.284884 191.919427 
L 154.645078 193.134002 
L 155.365465 168.811357 
L 156.446046 123.198063 
L 156.80624 115.182589 
L 157.166434 114.768473 
L 157.526627 121.156484 
L 157.886821 136.945266 
L 159.327595 165.673284 
L 159.687789 160.646373 
L 160.408176 147.193126 
L 160.76837 143.049532 
L 161.128564 145.973967 
L 161.488757 150.618511 
L 162.209145 176.624405 
L 162.929532 198.451879 
L 163.289726 199.501784 
L 164.010113 177.855065 
L 165.090694 127.446625 
L 165.450888 120.091108 
L 165.811081 119.549346 
L 166.171275 127.065421 
L 166.891662 153.437192 
L 167.251856 164.251978 
L 167.972243 173.003887 
L 168.332437 171.550395 
L 168.69263 163.499362 
L 169.413018 153.645479 
L 169.773211 154.569085 
L 170.493599 168.772658 
L 170.853792 186.990982 
L 171.213986 198.034657 
L 171.57418 204.350564 
L 171.934373 206.033427 
L 172.294567 196.545746 
L 172.654761 183.745347 
L 173.735342 136.89654 
L 174.095535 128.758539 
L 174.455729 132.136721 
L 174.815923 137.067818 
L 175.176116 147.461204 
L 175.53631 161.706306 
L 175.896503 170.732658 
L 176.256697 176.564551 
L 176.616891 179.618015 
L 177.337278 169.249153 
L 177.697472 227.689033 
L 178.057665 159.82068 
L 178.417859 225.697096 
L 178.778053 168.268172 
L 179.49844 193.058196 
L 180.218827 212.903201 
L 180.579021 212.782517 
L 180.939215 202.52149 
L 182.019796 157.327467 
L 182.379989 147.773697 
L 182.740183 134.095621 
L 183.100377 134.793089 
L 183.46057 141.259798 
L 183.820764 155.603435 
L 184.180958 160.871441 
L 184.541151 178.441914 
L 184.901345 183.533806 
L 185.261538 184.06392 
L 185.621732 182.046028 
L 185.981926 174.036801 
L 186.702313 164.317934 
L 187.062507 164.861055 
L 187.4227 170.346783 
L 188.143088 197.52318 
L 188.503281 203.357275 
L 188.863475 212.896469 
L 189.223669 212.048448 
L 189.944056 192.899504 
L 190.664443 155.283532 
L 191.384831 132.889463 
L 191.745024 132.907784 
L 192.105218 139.963403 
L 193.545992 185.208793 
L 194.26638 177.687085 
L 194.986767 162.17578 
L 195.346961 159.993024 
L 195.707154 162.800483 
L 196.067348 169.818459 
L 196.427542 179.4398 
L 196.787735 196.192378 
L 197.147929 204.722072 
L 197.508123 207.597647 
L 197.868316 207.766206 
L 198.22851 200.861801 
L 198.588704 186.396465 
L 198.948897 165.438503 
L 199.309091 152.937105 
L 199.669285 136.255957 
L 200.029478 132.217175 
L 200.389672 130.924979 
L 200.749866 136.871122 
L 201.830446 170.275719 
L 202.19064 176.202927 
L 202.550834 178.035907 
L 202.911027 175.085357 
L 203.271221 165.438491 
L 203.631415 159.678331 
L 203.991608 157.176512 
L 204.351802 157.99572 
L 204.711996 163.930027 
L 206.15277 204.093993 
L 206.512964 204.936843 
L 206.873158 197.065547 
L 207.593545 167.670263 
L 207.953739 148.696372 
L 208.313932 66.96 
L 208.674126 125.492505 
L 209.03432 127.286376 
L 209.394513 133.543985 
L 210.1149 157.901177 
L 210.475094 169.316652 
L 210.835288 175.353202 
L 211.195481 178.13547 
L 211.915869 163.743856 
L 212.276062 161.890958 
L 212.636256 154.002378 
L 212.99645 156.701526 
L 213.716837 170.697303 
L 214.077031 190.06265 
L 214.437224 196.185806 
L 214.797418 206.25409 
L 215.157612 203.375725 
L 215.517805 196.453399 
L 216.95858 137.359458 
L 217.318774 127.18819 
L 217.678967 128.346361 
L 218.039161 135.516914 
L 218.759548 163.205093 
L 219.119742 168.270529 
L 219.479935 177.897445 
L 219.840129 178.570013 
L 220.200323 174.861579 
L 220.92071 159.498212 
L 221.280904 161.501032 
L 221.641097 158.764492 
L 222.361485 177.532356 
L 222.721678 188.328661 
L 223.081872 206.662083 
L 223.442066 207.757847 
L 223.802259 210.183424 
L 224.162453 203.08064 
L 224.522647 191.038727 
L 224.88284 170.684704 
L 225.243034 159.666643 
L 225.603228 141.837479 
L 225.963421 133.584918 
L 226.323615 133.638598 
L 227.044002 153.808825 
L 227.764389 180.69847 
L 228.124583 184.332814 
L 228.484777 185.417731 
L 229.565358 170.392945 
L 229.925551 165.155817 
L 230.285745 167.23849 
L 230.645939 173.626176 
L 231.366326 199.965806 
L 232.086713 217.272837 
L 232.446907 218.165853 
L 232.807101 214.500917 
L 234.247875 151.936695 
L 234.608069 140.861875 
L 234.968263 142.802149 
L 235.328456 149.832207 
L 235.68865 160.444007 
L 236.048843 175.683705 
L 236.409037 186.018604 
L 236.769231 193.133903 
L 237.129424 194.659078 
L 237.489618 187.940062 
L 237.849812 186.164823 
L 238.210005 175.095017 
L 238.570199 172.78688 
L 238.930393 175.035025 
L 239.290586 181.100704 
L 240.731361 224.658403 
L 241.091555 225.126428 
L 241.451748 219.396208 
L 242.532329 169.168342 
L 242.892523 156.146617 
L 243.252717 148.662183 
L 243.61291 149.806487 
L 243.973104 153.643247 
L 244.333297 169.328736 
L 244.693491 177.528969 
L 245.053685 192.326813 
L 245.413878 197.401935 
L 245.774072 196.426949 
L 246.134266 194.355704 
L 246.494459 188.975254 
L 246.854653 180.626926 
L 247.214847 178.209614 
L 247.57504 179.897901 
L 247.935234 184.601893 
L 249.376009 224.629939 
L 249.736202 223.204501 
L 250.096396 220.789369 
L 250.45659 207.86182 
L 251.176977 166.66358 
L 251.897364 149.189892 
L 252.257558 153.867443 
L 252.617751 155.908499 
L 252.977945 163.042029 
L 253.338139 179.969942 
L 254.058526 195.424519 
L 254.41872 192.167429 
L 254.778913 191.100091 
L 255.139107 188.485213 
L 255.499301 178.907554 
L 255.859494 176.310434 
L 256.219688 177.062533 
L 256.579882 183.944056 
L 257.660463 214.372273 
L 258.020656 221.420586 
L 258.38085 225.553226 
L 258.741044 214.547429 
L 260.181818 151.47976 
L 260.542012 146.292932 
L 260.902205 143.118634 
L 261.262399 148.690014 
L 262.34298 183.235028 
L 262.703174 191.869998 
L 263.063367 190.702626 
L 263.423561 188.216448 
L 264.143948 173.556792 
L 264.504142 172.260109 
L 264.864336 172.212279 
L 265.224529 178.437758 
L 265.584723 186.748936 
L 265.944917 203.177613 
L 266.665304 219.944295 
L 267.385691 210.991136 
L 268.826466 146.874861 
L 269.186659 140.8462 
L 269.546853 141.559925 
L 269.907047 147.72818 
L 270.26724 157.884695 
L 270.627434 171.359553 
L 271.347821 187.876712 
L 271.708015 188.759751 
L 272.428402 179.11111 
L 272.788596 170.932841 
L 273.14879 169.125539 
L 273.508983 173.675847 
L 273.869177 172.243748 
L 274.589564 198.686058 
L 274.949758 211.766014 
L 275.309952 220.583639 
L 275.670145 219.375914 
L 276.030339 211.045808 
L 276.750726 181.117858 
L 277.11092 164.004561 
L 277.831307 143.448606 
L 278.191501 140.976962 
L 278.911888 156.043781 
L 279.632275 184.977127 
L 279.992469 189.087019 
L 280.352663 191.580919 
L 280.712856 187.106683 
L 281.07305 178.640231 
L 281.433244 173.028524 
L 281.793437 172.754406 
L 282.153631 173.167365 
L 282.874018 190.856013 
L 283.234212 205.154334 
L 283.954599 223.584703 
L 284.674987 215.513451 
L 285.03518 203.987699 
L 286.115761 154.936733 
L 286.475955 148.615439 
L 286.836148 149.160691 
L 287.196342 152.768645 
L 287.916729 180.395657 
L 288.637117 199.847095 
L 288.99731 201.122609 
L 290.077891 185.714905 
L 290.438085 179.05695 
L 290.798279 179.259525 
L 291.518666 200.414913 
L 292.239053 227.168106 
L 292.599247 228.666979 
L 292.959441 233.509644 
L 293.319634 225.310063 
L 293.679828 211.409699 
L 294.400215 176.711682 
L 295.120602 155.048778 
L 295.480796 155.252755 
L 295.84099 162.936807 
L 296.201183 173.239036 
L 296.561377 190.621039 
L 297.641958 210.174157 
L 298.002152 204.924624 
L 298.722539 187.443553 
L 299.082733 187.900263 
L 299.442926 192.403125 
L 299.80312 193.530996 
L 300.883701 231.392331 
L 301.243895 237.591654 
L 301.604088 241.01731 
L 303.405056 172.986257 
L 303.76525 163.334379 
L 304.125444 161.609407 
L 304.485637 169.633008 
L 305.566218 202.322216 
L 305.926412 208.850077 
L 306.286606 211.679293 
L 307.006993 201.829221 
L 307.72738 186.480555 
L 308.087574 191.325162 
L 308.447768 198.252235 
L 308.807961 212.232746 
L 309.888542 238.908158 
L 310.248736 239.894399 
L 310.60893 233.109567 
L 312.049704 168.399661 
L 312.409898 161.153591 
L 312.770091 161.542059 
L 313.130285 167.228234 
L 314.210866 201.33441 
L 314.57106 209.59113 
L 314.931253 210.059696 
L 315.291447 203.070112 
L 315.651641 198.309039 
L 316.011834 189.033895 
L 316.372028 186.93055 
L 316.732222 187.805272 
L 317.092415 198.324093 
L 317.452609 205.545713 
L 318.172996 229.880857 
L 318.53319 236.952461 
L 318.893384 236.864062 
L 319.253577 228.047656 
L 319.973964 196.213303 
L 320.694352 166.209788 
L 321.054545 157.632363 
L 321.414739 154.12707 
L 322.855514 198.385747 
L 323.215707 205.886644 
L 323.575901 205.788196 
L 324.296288 190.750133 
L 324.656482 190.28266 
L 325.016676 181.491683 
L 325.376869 187.544638 
L 325.737063 191.185204 
L 326.097257 201.360576 
L 326.45745 217.516845 
L 327.177838 229.886894 
L 327.538031 232.84543 
L 327.898225 226.556049 
L 329.338999 160.151683 
L 329.699193 153.573202 
L 330.059387 152.587532 
L 330.41958 160.193968 
L 331.139968 183.635563 
L 331.500161 192.378502 
L 332.220549 204.673033 
L 332.580742 201.144349 
L 333.30113 183.168301 
L 333.661323 180.746779 
L 334.021517 179.951884 
L 334.381711 187.85736 
L 335.462292 223.151962 
L 335.822485 229.004971 
L 336.182679 230.679783 
L 336.542873 224.458024 
L 337.983647 162.20574 
L 338.343841 155.521666 
L 338.704034 153.878671 
L 339.064228 161.35004 
L 339.784615 187.474815 
L 340.144809 199.137669 
L 340.505003 203.667983 
L 340.865196 203.006084 
L 341.22539 203.692601 
L 341.945777 186.50523 
L 342.305971 187.060599 
L 342.666165 185.794192 
L 343.026358 191.398399 
L 344.106939 231.627287 
L 344.467133 236.830304 
L 344.827327 236.65411 
L 345.18752 230.475955 
L 345.547714 212.278067 
L 345.907907 200.717309 
L 346.988488 156.906677 
L 347.348682 161.04662 
L 347.708876 166.520122 
L 348.069069 182.735648 
L 348.429263 189.038154 
L 348.789457 203.96327 
L 349.14965 212.188597 
L 349.509844 214.77392 
L 350.950619 191.45598 
L 351.310812 194.902875 
L 352.0312 211.688597 
L 352.751587 236.126822 
L 353.111781 243.179918 
L 353.471974 242.399155 
L 353.832168 234.115933 
L 354.192361 222.874942 
L 354.552555 203.521805 
L 355.633136 165.776997 
L 355.99333 168.254761 
L 356.353523 175.974973 
L 357.434104 213.514284 
L 357.794298 217.989894 
L 358.154492 220.802306 
L 358.514685 216.017116 
L 359.235073 202.239074 
L 359.595266 201.776557 
L 359.95546 202.198025 
L 360.315654 208.520554 
L 361.756428 250.824442 
L 362.116622 248.205555 
L 362.476815 241.10514 
L 362.837009 230.220416 
L 363.91759 180.720446 
L 364.277784 176.677589 
L 364.998171 181.641462 
L 366.078752 218.377139 
L 366.438946 223.432323 
L 366.799139 288.884246 
L 367.159333 222.731621 
L 367.519527 214.063192 
L 368.239914 204.423984 
L 368.600108 205.811966 
L 368.960301 211.122596 
L 370.040882 246.669974 
L 370.401076 252.492754 
L 370.761269 250.181476 
L 371.121463 243.909042 
L 371.481657 229.882965 
L 371.84185 150.561403 
L 372.202044 198.55194 
L 372.562238 183.346987 
L 372.922431 175.973507 
L 373.282625 172.731878 
L 374.363206 204.966535 
L 374.7234 217.21253 
L 375.083593 222.023509 
L 375.443787 219.844446 
L 375.803981 218.662474 
L 376.164174 144.332004 
L 376.524368 207.526868 
L 376.884562 203.987422 
L 377.244755 204.328216 
L 377.604949 208.621415 
L 377.965143 217.515493 
L 378.325336 233.228811 
L 378.68553 242.83553 
L 379.045724 248.076265 
L 379.405917 247.392638 
L 379.766111 241.588726 
L 380.486498 212.025297 
L 381.206885 177.782841 
L 381.927273 169.146345 
L 382.64766 186.655536 
L 383.368047 211.659723 
L 383.728241 214.640832 
L 384.088435 219.3041 
L 384.448628 216.082578 
L 384.808822 206.688297 
L 385.529209 199.719955 
L 385.889403 199.210396 
L 386.60979 216.042041 
L 387.330178 234.825482 
L 387.690371 241.384427 
L 388.050565 243.015696 
L 388.410758 240.246677 
L 389.491339 190.563027 
L 389.851533 176.822701 
L 390.211727 168.640172 
L 390.57192 167.397519 
L 390.932114 172.670298 
L 392.012695 208.920541 
L 392.372889 213.642845 
L 392.733082 220.042329 
L 393.45347 204.817112 
L 393.813663 196.959302 
L 394.173857 195.684324 
L 394.534051 197.050965 
L 394.894244 203.204273 
L 395.254438 211.723361 
L 395.614632 227.186088 
L 396.335019 244.149941 
L 396.695212 244.354396 
L 397.055406 238.718306 
L 397.4156 225.962455 
L 398.135987 190.862188 
L 398.496181 179.377694 
L 398.856374 173.160772 
L 399.216568 169.209448 
L 399.576762 174.265934 
L 400.657343 211.677022 
L 401.017536 217.642262 
L 401.37773 216.95929 
L 401.737924 217.220829 
L 402.098117 205.723483 
L 402.818505 194.3968 
L 403.178698 197.024458 
L 403.538892 205.316223 
L 404.259279 233.193507 
L 404.619473 242.871579 
L 404.979666 246.332207 
L 405.33986 248.465221 
L 405.700054 243.210473 
L 406.420441 212.182975 
L 407.140828 181.109344 
L 407.501022 174.799411 
L 407.861216 175.752671 
L 408.221409 180.926527 
L 408.941797 210.009006 
L 409.662184 226.10648 
L 410.022378 226.442162 
L 410.382571 221.48185 
L 410.742765 218.984576 
L 411.463152 204.614694 
L 412.18354 213.803014 
L 412.903927 235.676942 
L 413.26412 248.83395 
L 413.624314 254.57147 
L 413.984508 257.989443 
L 414.344701 252.071506 
L 415.065089 221.543896 
L 415.785476 191.208531 
L 416.14567 182.746396 
L 416.505863 183.011551 
L 416.866057 189.662711 
L 417.586444 216.126685 
L 418.306832 237.574006 
L 418.667025 232.815889 
L 419.027219 234.166946 
L 419.747606 217.654939 
L 420.1078 214.130987 
L 420.467994 216.412568 
L 420.828187 221.458834 
L 421.188381 232.132415 
L 421.548575 247.148496 
L 421.908768 252.977346 
L 422.268962 262.994834 
L 422.629155 263.848143 
L 422.989349 256.104296 
L 424.06993 211.250117 
L 424.430124 193.748405 
L 424.790317 187.51499 
L 425.150511 189.948122 
L 425.510705 194.300902 
L 425.870898 209.035793 
L 426.231092 217.099132 
L 426.591286 230.350601 
L 426.951479 237.097461 
L 427.311673 237.275027 
L 427.671867 231.581425 
L 428.03206 229.880815 
L 428.392254 223.332951 
L 428.752448 214.299249 
L 429.112641 218.328069 
L 429.833029 236.415151 
L 430.193222 246.935653 
L 430.553416 260.943367 
L 431.273803 265.64505 
L 431.633997 261.225495 
L 431.99419 248.448953 
L 432.714578 207.661717 
L 433.434965 185.440479 
L 433.795159 187.462026 
L 435.596127 237.259398 
L 435.956321 236.334205 
L 436.316514 229.615796 
L 436.676708 226.711885 
L 437.036902 218.455741 
L 437.397095 214.914707 
L 437.757289 217.453359 
L 438.117483 222.334522 
L 438.477676 229.892334 
L 439.198063 259.059943 
L 439.558257 260.989886 
L 439.918451 259.750449 
L 440.278644 254.592659 
L 440.999032 226.097954 
L 441.359225 205.877407 
L 442.079613 182.782977 
L 442.439806 181.830226 
L 443.880581 225.120947 
L 444.240775 232.096513 
L 444.961162 228.448995 
L 445.681549 212.265092 
L 446.041743 211.58326 
L 446.401937 208.466887 
L 447.482517 238.136355 
L 447.842711 254.659729 
L 448.202905 260.922168 
L 448.563098 256.398544 
L 448.923292 255.722226 
L 449.283486 232.511909 
L 450.364067 187.167617 
L 450.72426 183.011057 
L 451.084454 177.067221 
L 451.804841 199.243879 
L 452.165035 212.605709 
L 452.525229 217.316432 
L 452.885422 232.698066 
L 453.245616 228.968309 
L 453.966003 219.823468 
L 454.326197 214.613543 
L 454.686391 207.386576 
L 455.046584 209.783212 
L 455.766971 228.150229 
L 456.127165 241.1589 
L 456.487359 249.225546 
L 456.847552 260.476455 
L 457.207746 256.292108 
L 457.56794 250.403862 
L 457.928133 239.287684 
L 459.008714 184.465525 
L 459.368908 179.767364 
L 459.729102 182.683671 
L 460.089295 189.832376 
L 461.169876 223.247222 
L 461.53007 231.3019 
L 461.890264 231.689376 
L 462.250457 228.966793 
L 463.331038 209.193945 
L 463.691232 211.246371 
L 464.411619 232.134072 
L 465.132006 255.751764 
L 465.4922 261.238054 
L 465.852394 263.952956 
L 466.572781 246.504744 
L 467.293168 209.260626 
L 468.013556 190.273511 
L 468.373749 187.007998 
L 470.174718 238.26238 
L 470.534911 237.814742 
L 470.895105 236.729944 
L 471.255299 228.266787 
L 471.615492 227.911371 
L 471.975686 218.584939 
L 472.33588 220.042208 
L 472.696073 232.430171 
L 473.056267 240.080933 
L 473.41646 253.67866 
L 474.136848 271.53588 
L 474.497041 272.473819 
L 474.857235 264.695282 
L 475.217429 252.807352 
L 475.577622 231.602853 
L 476.29801 203.428644 
L 476.658203 199.797618 
L 477.018397 136.289372 
L 477.378591 205.735906 
L 478.098978 226.105092 
L 478.819365 249.371726 
L 479.179559 250.072714 
L 480.26014 233.566072 
L 480.620334 228.44835 
L 480.980527 227.870502 
L 481.700914 244.726459 
L 482.061108 261.883076 
L 482.781495 279.578029 
L 483.141689 276.859929 
L 483.501883 270.743247 
L 484.22227 242.19434 
L 484.942657 208.401294 
L 485.302851 203.877282 
L 485.663045 203.974361 
L 486.023238 208.124672 
L 486.383432 216.984407 
L 487.103819 243.495931 
L 487.464013 251.887965 
L 487.824207 251.841115 
L 488.1844 248.109291 
L 488.904788 235.006294 
L 489.264981 231.443761 
L 489.625175 231.263826 
L 489.985368 242.628996 
L 490.345562 248.061446 
L 491.065949 273.437424 
L 491.426143 277.551262 
L 491.786337 280.378848 
L 492.14653 273.18071 
L 493.587305 208.986964 
L 493.947499 199.10443 
L 494.307692 205.465869 
L 494.667886 208.343631 
L 496.108661 250.183807 
L 496.468854 250.51205 
L 496.829048 244.836149 
L 497.189242 242.023578 
L 497.549435 230.950162 
L 497.909629 230.178927 
L 498.269822 228.717036 
L 498.630016 233.298337 
L 498.99021 248.822469 
L 500.070791 272.64351 
L 500.430984 275.521013 
L 500.791178 267.547886 
L 501.511565 237.235601 
L 501.871759 216.843519 
L 502.231953 204.667645 
L 502.592146 199.880706 
L 502.95234 199.237192 
L 503.672727 215.041461 
L 504.393115 238.734851 
L 504.753308 246.188626 
L 505.113502 248.839737 
L 506.194083 226.765382 
L 506.554276 219.757884 
L 506.91447 222.766989 
L 507.274664 230.766014 
L 507.995051 254.54533 
L 508.355245 265.632435 
L 508.715438 272.181068 
L 509.075632 271.394859 
L 509.435826 263.193595 
L 510.8766 199.987006 
L 511.236794 192.926831 
L 511.596988 192.301608 
L 511.957181 204.09448 
L 512.317375 212.219256 
L 512.677569 222.899122 
L 513.037762 237.369348 
L 513.397956 236.714439 
L 513.75815 238.760056 
L 514.478537 234.605941 
L 515.198924 222.924176 
L 515.559118 223.199158 
L 515.919311 229.475138 
L 516.639699 251.080928 
L 516.999892 265.375729 
L 517.360086 270.073178 
L 517.72028 267.401027 
L 518.080473 263.521286 
L 518.800861 232.765216 
L 519.161054 214.783601 
L 519.881442 194.978488 
L 520.241635 196.643266 
L 520.601829 201.16423 
L 521.68241 238.557977 
L 522.042604 245.269783 
L 522.402797 245.684634 
L 522.762991 240.484061 
L 523.123185 238.089041 
L 523.483378 227.751105 
L 523.843572 223.878679 
L 524.203765 225.564679 
L 526.004734 279.613057 
L 526.364927 277.579473 
L 526.725121 270.179391 
L 527.085315 257.946848 
L 528.165896 207.570853 
L 528.526089 201.022681 
L 529.246477 209.799732 
L 529.60667 218.339798 
L 530.327058 244.274038 
L 530.687251 251.758046 
L 531.407639 250.488345 
L 531.767832 242.58013 
L 532.128026 238.165349 
L 532.488219 236.419068 
L 532.848413 235.965224 
L 533.208607 241.149978 
L 534.289188 277.255069 
L 534.649381 283.486835 
L 535.009575 286.928472 
L 535.369769 277.30525 
L 536.810543 217.967496 
L 537.170737 209.214932 
L 537.530931 213.036244 
L 537.891124 218.19865 
L 539.331899 261.397093 
L 539.692093 260.60086 
L 540.052286 258.81212 
L 540.772673 240.915031 
L 541.132867 242.13176 
L 541.493061 239.884949 
L 542.213448 258.203308 
L 542.573642 273.99876 
L 542.933835 282.76449 
L 543.294029 287.910212 
L 543.654223 289.83136 
L 544.014416 286.444227 
L 544.734804 254.374376 
L 545.094997 237.297719 
L 545.815385 214.124068 
L 546.175578 216.594668 
L 546.535772 222.296199 
L 547.256159 248.786115 
L 547.616353 250.139958 
L 547.976547 262.470092 
L 548.33674 266.108659 
L 548.696934 263.728952 
L 549.057127 255.414029 
L 549.417321 250.21879 
L 549.777515 242.355182 
L 550.497902 254.068704 
L 551.938677 296.560374 
L 552.29887 296.641472 
L 553.019258 271.825896 
L 553.739645 235.341484 
L 554.099839 216.717579 
L 554.460032 216.717073 
L 554.820226 215.478366 
L 555.18042 221.744539 
L 556.261001 254.332838 
L 556.981388 266.753673 
L 557.341581 260.31622 
L 557.701775 250.939791 
L 558.422162 242.053889 
L 558.782356 243.79867 
L 559.14255 247.774056 
L 559.862937 272.47108 
L 560.583324 288.704739 
L 560.943518 290.281583 
L 561.303712 282.70595 
L 562.024099 252.411941 
L 562.384293 231.24336 
L 563.10468 210.587702 
L 563.464874 212.503304 
L 563.825067 216.846542 
L 564.905648 251.781772 
L 565.265842 254.968671 
L 565.626036 261.175943 
L 566.706616 240.445188 
L 567.06681 237.710244 
L 567.427004 237.220999 
L 567.787197 243.60413 
L 568.867778 276.002275 
L 569.227972 287.283615 
L 569.948359 280.14673 
L 570.668747 247.378416 
L 571.389134 213.336213 
L 572.109521 204.814457 
L 572.829909 221.801596 
L 573.550296 248.673872 
L 573.91049 253.668566 
L 574.270683 254.725225 
L 574.630877 252.130068 
L 574.99107 246.726399 
L 575.351264 238.581955 
L 575.711458 234.342775 
L 576.071651 234.47887 
L 577.512426 279.479397 
L 578.232813 287.963886 
L 578.593007 275.068051 
L 578.953201 266.238409 
L 579.673588 228.536892 
L 580.393975 206.563598 
L 580.754169 208.865841 
L 581.114363 213.590942 
L 582.194944 252.088635 
L 582.555137 259.984484 
L 582.915331 261.134231 
L 583.635718 253.62564 
L 583.995912 244.414436 
L 584.356105 240.031467 
L 584.716299 239.984406 
L 585.076493 246.926775 
L 585.436686 260.681558 
L 585.79688 269.931905 
L 586.157074 282.906111 
L 586.517267 290.430428 
L 587.237655 282.793687 
L 588.318236 234.650221 
L 588.678429 220.223464 
L 589.038623 215.521322 
L 589.398817 215.448395 
L 589.75901 223.827763 
L 591.199785 269.567014 
L 591.920172 262.810811 
L 592.280366 256.104443 
L 592.640559 256.492962 
L 593.000753 249.696298 
L 593.360947 250.179687 
L 593.72114 251.331796 
L 594.441528 282.762031 
L 595.161915 300.463279 
L 595.522109 297.860689 
L 595.882302 289.924704 
L 596.242496 344.695519 
L 596.60269 261.795785 
L 597.323077 233.315238 
L 597.683271 224.449665 
L 598.043464 224.24678 
L 598.763852 241.518724 
L 599.484239 267.520975 
L 599.844432 274.784775 
L 600.204626 272.441703 
L 600.56482 271.77209 
L 601.285207 256.877384 
L 601.645401 252.708826 
L 602.005594 257.225042 
L 602.365788 265.02064 
L 602.725982 275.297847 
L 603.086175 289.347679 
L 603.806563 306.647303 
L 604.166756 304.818586 
L 604.52695 299.272943 
L 605.247337 268.644542 
L 605.967725 234.173983 
L 606.327918 229.705458 
L 606.688112 229.963435 
L 607.048306 236.247634 
L 607.408499 246.194718 
L 608.128886 271.674753 
L 608.849274 281.216977 
L 610.290048 256.493933 
L 610.650242 263.583447 
L 611.010436 265.173922 
L 611.370629 275.658282 
L 612.091017 305.447626 
L 612.45121 304.274055 
L 612.811404 307.008456 
L 613.171598 301.154589 
L 614.252179 250.085969 
L 614.612372 236.913884 
L 614.972566 228.186734 
L 615.33276 229.786348 
L 616.053147 244.981421 
L 616.773534 269.605616 
L 617.133728 277.129432 
L 617.493921 277.043294 
L 617.854115 274.660469 
L 618.214309 268.939588 
L 618.574502 260.013429 
L 618.934696 258.042231 
L 619.29489 257.782717 
L 619.655083 262.351692 
L 620.015277 275.877932 
L 620.375471 283.95037 
L 620.735664 296.82074 
L 621.095858 303.948552 
L 621.456052 301.630942 
L 621.816245 294.021207 
L 622.536633 266.577315 
L 622.896826 246.739997 
L 623.25702 295.903905 
L 623.617214 229.51531 
L 623.977407 223.668019 
L 624.337601 230.147322 
L 625.057988 257.75964 
L 625.418182 265.11584 
L 625.778375 269.655064 
L 626.138569 269.589275 
L 626.498763 267.921891 
L 627.579344 249.254699 
L 627.939537 251.907993 
L 628.299731 258.105297 
L 628.659925 267.10633 
L 629.380312 292.989032 
L 629.740506 297.43515 
L 630.100699 300.482626 
L 630.460893 291.155409 
L 630.821087 277.08861 
L 631.541474 243.062265 
L 631.901668 227.351388 
L 632.261861 221.05323 
L 632.622055 222.206194 
L 632.982249 225.389941 
L 634.062829 263.088298 
L 634.423023 267.131225 
L 635.14341 265.839493 
L 635.503604 262.455666 
L 635.863798 252.500059 
L 636.223991 247.692605 
L 636.944379 256.263695 
L 637.304572 268.049042 
L 637.664766 275.854209 
L 638.02496 290.051471 
L 638.385153 297.303777 
L 638.745347 296.102397 
L 639.105541 290.710648 
L 640.546315 230.648051 
L 640.906509 222.14675 
L 641.266703 222.897216 
L 641.98709 236.036745 
L 642.347283 256.203384 
L 642.707477 264.472185 
L 643.067671 269.345856 
L 643.427864 270.55857 
L 643.788058 268.786054 
L 644.868639 250.573228 
L 645.228833 256.722437 
L 645.589026 257.512909 
L 647.029801 305.445895 
L 647.389995 307.55092 
L 647.750188 298.830338 
L 648.830769 246.869054 
L 649.551157 226.780297 
L 649.91135 230.944546 
L 650.631737 248.194875 
L 651.712318 278.372396 
L 652.072512 279.23597 
L 652.432706 278.964401 
L 652.792899 272.183862 
L 653.153093 261.845137 
L 653.513287 262.426715 
L 653.87348 260.343288 
L 655.674449 311.13757 
L 656.034642 311.771036 
L 656.394836 305.753971 
L 657.115223 277.476558 
L 657.475417 257.362912 
L 658.195804 237.769371 
L 658.555998 237.895698 
L 658.916192 242.284135 
L 660.356966 288.374994 
L 660.71716 288.787474 
L 661.077353 284.417792 
L 661.797741 272.191983 
L 662.157934 270.039581 
L 662.518128 271.577169 
L 662.878322 275.538317 
L 663.958903 312.890046 
L 664.319096 317.037021 
L 664.67929 319.810666 
L 665.039484 314.250473 
L 666.480258 248.016694 
L 667.200646 243.655025 
L 667.560839 249.698052 
L 668.64142 285.828518 
L 669.001614 292.451687 
L 669.722001 289.619156 
L 670.082195 280.556511 
L 670.802582 273.382304 
L 671.162776 271.824019 
L 671.522969 278.071515 
L 671.883163 291.863364 
L 672.243357 301.073516 
L 672.60355 318.173499 
L 672.963744 319.855877 
L 673.323938 316.571975 
L 673.684131 316.129859 
L 674.764712 264.240531 
L 675.124906 251.027147 
L 675.4851 242.896047 
L 675.845293 241.040035 
L 677.646261 289.644173 
L 678.006455 291.172906 
L 678.726842 277.800548 
L 679.44723 270.496969 
L 679.807423 270.308209 
L 680.527811 288.141606 
L 681.608392 317.497637 
L 681.968585 314.356734 
L 682.328779 309.62701 
L 682.688973 296.84256 
L 683.40936 260.697447 
L 683.769554 246.689823 
L 684.129747 240.334669 
L 684.489941 237.371334 
L 684.850134 241.061886 
L 685.570522 267.892158 
L 685.930715 277.821483 
L 686.290909 284.648676 
L 686.651103 287.02667 
L 687.011296 283.542588 
L 687.37149 272.810487 
L 687.731684 269.776072 
L 688.091877 264.571503 
L 688.452071 263.584014 
L 688.812265 269.024255 
L 689.532652 292.590479 
L 689.892846 369.36 
L 690.253039 312.674203 
L 690.613233 312.536694 
L 691.33362 292.755151 
L 692.414201 240.759304 
L 692.774395 234.793025 
L 693.134588 234.514094 
L 693.494782 238.573296 
L 694.575363 276.315788 
L 694.935557 281.419041 
L 695.655944 280.18119 
L 696.376331 267.271886 
L 696.736525 261.59149 
L 697.096719 263.12477 
L 697.456912 268.367039 
L 697.817106 277.528712 
L 698.1773 294.710404 
L 698.897687 312.04949 
L 699.257881 311.438138 
L 699.618074 302.128384 
L 700.338462 273.740064 
L 701.058849 241.275912 
L 701.419042 235.367512 
L 701.779236 236.410582 
L 702.859817 265.330222 
L 703.220011 281.675936 
L 703.580204 282.988252 
L 703.940398 287.522898 
L 704.660785 274.529485 
L 705.020979 268.028146 
L 705.381173 266.718063 
L 705.741366 270.364567 
L 706.10156 272.607003 
L 706.461754 284.733582 
L 706.821947 300.729062 
L 707.542335 319.427572 
L 708.262722 310.770305 
L 708.983109 278.700466 
L 709.343303 261.000927 
L 710.06369 241.337152 
L 710.423884 242.292608 
L 710.784077 249.930287 
L 711.144271 260.133829 
L 711.864658 285.637033 
L 712.224852 292.213481 
L 712.585046 292.852878 
L 712.945239 291.661445 
L 713.305433 281.200194 
L 713.665627 277.156822 
L 714.02582 270.772032 
L 714.386014 274.482048 
L 715.826789 318.496653 
L 716.547176 325.900666 
L 716.90737 319.674429 
L 717.267563 307.884687 
L 717.987951 270.887373 
L 718.348144 257.750479 
L 718.708338 253.359765 
L 719.068531 253.422193 
L 719.428725 259.523253 
L 719.788919 268.166172 
L 720.149112 284.09648 
L 720.509306 294.831577 
L 720.8695 297.413375 
L 721.229693 302.045239 
L 721.589887 298.076642 
L 722.670468 279.251698 
L 723.390855 290.784395 
L 723.751049 298.223955 
L 724.471436 325.542094 
L 724.83163 335.044522 
L 725.191824 332.935831 
L 725.552017 324.441311 
L 726.992792 263.503753 
L 727.352985 255.52334 
L 727.713179 256.283479 
L 728.073373 261.050226 
L 729.153954 297.145383 
L 729.514147 240.323969 
L 729.874341 305.660849 
L 730.234535 305.389869 
L 730.594728 292.932654 
L 730.954922 352.926029 
L 731.315116 281.591525 
L 731.675309 288.599219 
L 732.035503 291.35283 
L 732.75589 315.624921 
L 733.476278 333.133803 
L 733.836471 333.639737 
L 734.196665 327.177193 
L 734.556859 314.160759 
L 734.917052 293.782921 
L 735.997633 255.149896 
L 736.357827 257.249739 
L 737.078214 272.212918 
L 737.438408 285.553182 
L 738.158795 303.348725 
L 738.518989 303.730986 
L 738.879182 302.38154 
L 739.59957 286.844818 
L 739.959763 281.328454 
L 740.319957 285.666141 
L 740.680151 287.520872 
L 741.400538 312.52988 
L 742.120925 331.364034 
L 742.481119 330.760378 
L 742.841313 323.717445 
L 743.201506 307.719134 
L 743.201506 307.719134 
" style="fill:none;stroke:#1f77b4;stroke-linecap:square;stroke-width:1.5;"/>
   </g>
   <g id="line2d_16">
    <path clip-path="url(#p16268aa92f)" d="M 747.163636 384.48 
L 747.163636 51.84 
" style="fill:none;stroke:#808080;stroke-linecap:square;"/>
   </g>
   <g id="patch_116">
    <path d="M 108 384.48 
L 108 51.84 
" style="fill:none;stroke:#000000;stroke-linecap:square;stroke-linejoin:miter;stroke-width:0.8;"/>
   </g>
   <g id="patch_117">
    <path d="M 777.6 384.48 
L 777.6 51.84 
" style="fill:none;stroke:#000000;stroke-linecap:square;stroke-linejoin:miter;stroke-width:0.8;"/>
   </g>
   <g id="patch_118">
    <path d="M 108 384.48 
L 777.6 384.48 
" style="fill:none;stroke:#000000;stroke-linecap:square;stroke-linejoin:miter;stroke-width:0.8;"/>
   </g>
   <g id="patch_119">
    <path d="M 108 51.84 
L 777.6 51.84 
" style="fill:none;stroke:#000000;stroke-linecap:square;stroke-linejoin:miter;stroke-width:0.8;"/>
   </g>
   <g id="text_17">
    <!-- A3Benchmark-TS89.csv -->
    <defs>
     <path d="M 34.1875 63.1875 
L 20.796875 26.90625 
L 47.609375 26.90625 
z
M 28.609375 72.90625 
L 39.796875 72.90625 
L 67.578125 0 
L 57.328125 0 
L 50.6875 18.703125 
L 17.828125 18.703125 
L 11.1875 0 
L 0.78125 0 
z
" id="DejaVuSans-65"/>
     <path d="M 40.578125 39.3125 
Q 47.65625 37.796875 51.625 33 
Q 55.609375 28.21875 55.609375 21.1875 
Q 55.609375 10.40625 48.1875 4.484375 
Q 40.765625 -1.421875 27.09375 -1.421875 
Q 22.515625 -1.421875 17.65625 -0.515625 
Q 12.796875 0.390625 7.625 2.203125 
L 7.625 11.71875 
Q 11.71875 9.328125 16.59375 8.109375 
Q 21.484375 6.890625 26.8125 6.890625 
Q 36.078125 6.890625 40.9375 10.546875 
Q 45.796875 14.203125 45.796875 21.1875 
Q 45.796875 27.640625 41.28125 31.265625 
Q 36.765625 34.90625 28.71875 34.90625 
L 20.21875 34.90625 
L 20.21875 43.015625 
L 29.109375 43.015625 
Q 36.375 43.015625 40.234375 45.921875 
Q 44.09375 48.828125 44.09375 54.296875 
Q 44.09375 59.90625 40.109375 62.90625 
Q 36.140625 65.921875 28.71875 65.921875 
Q 24.65625 65.921875 20.015625 65.03125 
Q 15.375 64.15625 9.8125 62.3125 
L 9.8125 71.09375 
Q 15.4375 72.65625 20.34375 73.4375 
Q 25.25 74.21875 29.59375 74.21875 
Q 40.828125 74.21875 47.359375 69.109375 
Q 53.90625 64.015625 53.90625 55.328125 
Q 53.90625 49.265625 50.4375 45.09375 
Q 46.96875 40.921875 40.578125 39.3125 
z
" id="DejaVuSans-51"/>
     <path d="M 19.671875 34.8125 
L 19.671875 8.109375 
L 35.5 8.109375 
Q 43.453125 8.109375 47.28125 11.40625 
Q 51.125 14.703125 51.125 21.484375 
Q 51.125 28.328125 47.28125 31.5625 
Q 43.453125 34.8125 35.5 34.8125 
z
M 19.671875 64.796875 
L 19.671875 42.828125 
L 34.28125 42.828125 
Q 41.5 42.828125 45.03125 45.53125 
Q 48.578125 48.25 48.578125 53.8125 
Q 48.578125 59.328125 45.03125 62.0625 
Q 41.5 64.796875 34.28125 64.796875 
z
M 9.8125 72.90625 
L 35.015625 72.90625 
Q 46.296875 72.90625 52.390625 68.21875 
Q 58.5 63.53125 58.5 54.890625 
Q 58.5 48.1875 55.375 44.234375 
Q 52.25 40.28125 46.1875 39.3125 
Q 53.46875 37.75 57.5 32.78125 
Q 61.53125 27.828125 61.53125 20.40625 
Q 61.53125 10.640625 54.890625 5.3125 
Q 48.25 0 35.984375 0 
L 9.8125 0 
z
" id="DejaVuSans-66"/>
     <path d="M 54.890625 33.015625 
L 54.890625 0 
L 45.90625 0 
L 45.90625 32.71875 
Q 45.90625 40.484375 42.875 44.328125 
Q 39.84375 48.1875 33.796875 48.1875 
Q 26.515625 48.1875 22.3125 43.546875 
Q 18.109375 38.921875 18.109375 30.90625 
L 18.109375 0 
L 9.078125 0 
L 9.078125 54.6875 
L 18.109375 54.6875 
L 18.109375 46.1875 
Q 21.34375 51.125 25.703125 53.5625 
Q 30.078125 56 35.796875 56 
Q 45.21875 56 50.046875 50.171875 
Q 54.890625 44.34375 54.890625 33.015625 
z
" id="DejaVuSans-110"/>
     <path d="M 48.78125 52.59375 
L 48.78125 44.1875 
Q 44.96875 46.296875 41.140625 47.34375 
Q 37.3125 48.390625 33.40625 48.390625 
Q 24.65625 48.390625 19.8125 42.84375 
Q 14.984375 37.3125 14.984375 27.296875 
Q 14.984375 17.28125 19.8125 11.734375 
Q 24.65625 6.203125 33.40625 6.203125 
Q 37.3125 6.203125 41.140625 7.25 
Q 44.96875 8.296875 48.78125 10.40625 
L 48.78125 2.09375 
Q 45.015625 0.34375 40.984375 -0.53125 
Q 36.96875 -1.421875 32.421875 -1.421875 
Q 20.0625 -1.421875 12.78125 6.34375 
Q 5.515625 14.109375 5.515625 27.296875 
Q 5.515625 40.671875 12.859375 48.328125 
Q 20.21875 56 33.015625 56 
Q 37.15625 56 41.109375 55.140625 
Q 45.0625 54.296875 48.78125 52.59375 
z
" id="DejaVuSans-99"/>
     <path d="M 54.890625 33.015625 
L 54.890625 0 
L 45.90625 0 
L 45.90625 32.71875 
Q 45.90625 40.484375 42.875 44.328125 
Q 39.84375 48.1875 33.796875 48.1875 
Q 26.515625 48.1875 22.3125 43.546875 
Q 18.109375 38.921875 18.109375 30.90625 
L 18.109375 0 
L 9.078125 0 
L 9.078125 75.984375 
L 18.109375 75.984375 
L 18.109375 46.1875 
Q 21.34375 51.125 25.703125 53.5625 
Q 30.078125 56 35.796875 56 
Q 45.21875 56 50.046875 50.171875 
Q 54.890625 44.34375 54.890625 33.015625 
z
" id="DejaVuSans-104"/>
     <path d="M 41.109375 46.296875 
Q 39.59375 47.171875 37.8125 47.578125 
Q 36.03125 48 33.890625 48 
Q 26.265625 48 22.1875 43.046875 
Q 18.109375 38.09375 18.109375 28.8125 
L 18.109375 0 
L 9.078125 0 
L 9.078125 54.6875 
L 18.109375 54.6875 
L 18.109375 46.1875 
Q 20.953125 51.171875 25.484375 53.578125 
Q 30.03125 56 36.53125 56 
Q 37.453125 56 38.578125 55.875 
Q 39.703125 55.765625 41.0625 55.515625 
z
" id="DejaVuSans-114"/>
     <path d="M 9.078125 75.984375 
L 18.109375 75.984375 
L 18.109375 31.109375 
L 44.921875 54.6875 
L 56.390625 54.6875 
L 27.390625 29.109375 
L 57.625 0 
L 45.90625 0 
L 18.109375 26.703125 
L 18.109375 0 
L 9.078125 0 
z
" id="DejaVuSans-107"/>
     <path d="M 4.890625 31.390625 
L 31.203125 31.390625 
L 31.203125 23.390625 
L 4.890625 23.390625 
z
" id="DejaVuSans-45"/>
     <path d="M 53.515625 70.515625 
L 53.515625 60.890625 
Q 47.90625 63.578125 42.921875 64.890625 
Q 37.9375 66.21875 33.296875 66.21875 
Q 25.25 66.21875 20.875 63.09375 
Q 16.5 59.96875 16.5 54.203125 
Q 16.5 49.359375 19.40625 46.890625 
Q 22.3125 44.4375 30.421875 42.921875 
L 36.375 41.703125 
Q 47.40625 39.59375 52.65625 34.296875 
Q 57.90625 29 57.90625 20.125 
Q 57.90625 9.515625 50.796875 4.046875 
Q 43.703125 -1.421875 29.984375 -1.421875 
Q 24.8125 -1.421875 18.96875 -0.25 
Q 13.140625 0.921875 6.890625 3.21875 
L 6.890625 13.375 
Q 12.890625 10.015625 18.65625 8.296875 
Q 24.421875 6.59375 29.984375 6.59375 
Q 38.421875 6.59375 43.015625 9.90625 
Q 47.609375 13.234375 47.609375 19.390625 
Q 47.609375 24.75 44.3125 27.78125 
Q 41.015625 30.8125 33.5 32.328125 
L 27.484375 33.5 
Q 16.453125 35.6875 11.515625 40.375 
Q 6.59375 45.0625 6.59375 53.421875 
Q 6.59375 63.09375 13.40625 68.65625 
Q 20.21875 74.21875 32.171875 74.21875 
Q 37.3125 74.21875 42.625 73.28125 
Q 47.953125 72.359375 53.515625 70.515625 
z
" id="DejaVuSans-83"/>
     <path d="M 10.984375 1.515625 
L 10.984375 10.5 
Q 14.703125 8.734375 18.5 7.8125 
Q 22.3125 6.890625 25.984375 6.890625 
Q 35.75 6.890625 40.890625 13.453125 
Q 46.046875 20.015625 46.78125 33.40625 
Q 43.953125 29.203125 39.59375 26.953125 
Q 35.25 24.703125 29.984375 24.703125 
Q 19.046875 24.703125 12.671875 31.3125 
Q 6.296875 37.9375 6.296875 49.421875 
Q 6.296875 60.640625 12.9375 67.421875 
Q 19.578125 74.21875 30.609375 74.21875 
Q 43.265625 74.21875 49.921875 64.515625 
Q 56.59375 54.828125 56.59375 36.375 
Q 56.59375 19.140625 48.40625 8.859375 
Q 40.234375 -1.421875 26.421875 -1.421875 
Q 22.703125 -1.421875 18.890625 -0.6875 
Q 15.09375 0.046875 10.984375 1.515625 
z
M 30.609375 32.421875 
Q 37.25 32.421875 41.125 36.953125 
Q 45.015625 41.5 45.015625 49.421875 
Q 45.015625 57.28125 41.125 61.84375 
Q 37.25 66.40625 30.609375 66.40625 
Q 23.96875 66.40625 20.09375 61.84375 
Q 16.21875 57.28125 16.21875 49.421875 
Q 16.21875 41.5 20.09375 36.953125 
Q 23.96875 32.421875 30.609375 32.421875 
z
" id="DejaVuSans-57"/>
     <path d="M 10.6875 12.40625 
L 21 12.40625 
L 21 0 
L 10.6875 0 
z
" id="DejaVuSans-46"/>
     <path d="M 2.984375 54.6875 
L 12.5 54.6875 
L 29.59375 8.796875 
L 46.6875 54.6875 
L 56.203125 54.6875 
L 35.6875 0 
L 23.484375 0 
z
" id="DejaVuSans-118"/>
    </defs>
    <g transform="translate(371.555625 45.84)scale(0.12 -0.12)">
     <use xlink:href="#DejaVuSans-65"/>
     <use x="68.408203" xlink:href="#DejaVuSans-51"/>
     <use x="132.03125" xlink:href="#DejaVuSans-66"/>
     <use x="200.634766" xlink:href="#DejaVuSans-101"/>
     <use x="262.158203" xlink:href="#DejaVuSans-110"/>
     <use x="325.537109" xlink:href="#DejaVuSans-99"/>
     <use x="380.517578" xlink:href="#DejaVuSans-104"/>
     <use x="443.896484" xlink:href="#DejaVuSans-109"/>
     <use x="541.308594" xlink:href="#DejaVuSans-97"/>
     <use x="602.587891" xlink:href="#DejaVuSans-114"/>
     <use x="643.701172" xlink:href="#DejaVuSans-107"/>
     <use x="701.611328" xlink:href="#DejaVuSans-45"/>
     <use x="737.554688" xlink:href="#DejaVuSans-84"/>
     <use x="798.638672" xlink:href="#DejaVuSans-83"/>
     <use x="862.115234" xlink:href="#DejaVuSans-56"/>
     <use x="925.738281" xlink:href="#DejaVuSans-57"/>
     <use x="989.361328" xlink:href="#DejaVuSans-46"/>
     <use x="1021.148438" xlink:href="#DejaVuSans-99"/>
     <use x="1076.128906" xlink:href="#DejaVuSans-115"/>
     <use x="1128.228516" xlink:href="#DejaVuSans-118"/>
    </g>
   </g>
   <g id="legend_1">
    <g id="patch_120">
     <path d="M 711.284375 74.518125 
L 770.6 74.518125 
Q 772.6 74.518125 772.6 72.518125 
L 772.6 58.84 
Q 772.6 56.84 770.6 56.84 
L 711.284375 56.84 
Q 709.284375 56.84 709.284375 58.84 
L 709.284375 72.518125 
Q 709.284375 74.518125 711.284375 74.518125 
z
" style="fill:#ffffff;opacity:0.8;stroke:#cccccc;stroke-linejoin:miter;"/>
    </g>
    <g id="line2d_17">
     <path d="M 713.284375 64.938438 
L 733.284375 64.938438 
" style="fill:none;stroke:#1f77b4;stroke-linecap:square;stroke-width:1.5;"/>
    </g>
    <g id="line2d_18"/>
    <g id="text_18">
     <!-- value -->
     <g transform="translate(741.284375 68.438438)scale(0.1 -0.1)">
      <use xlink:href="#DejaVuSans-118"/>
      <use x="59.179688" xlink:href="#DejaVuSans-97"/>
      <use x="120.458984" xlink:href="#DejaVuSans-108"/>
      <use x="148.242188" xlink:href="#DejaVuSans-117"/>
      <use x="211.621094" xlink:href="#DejaVuSans-101"/>
     </g>
    </g>
   </g>
  </g>
 </g>
 <defs>
  <clipPath id="p16268aa92f">
   <rect height="332.64" width="669.6" x="108" y="51.84"/>
  </clipPath>
 </defs>
</svg>
