<?xml version="1.0" encoding="utf-8" standalone="no"?>
<!DOCTYPE svg PUBLIC "-//W3C//DTD SVG 1.1//EN"
  "http://www.w3.org/Graphics/SVG/1.1/DTD/svg11.dtd">
<!-- Created with matplotlib (https://matplotlib.org/) -->
<svg height="432pt" version="1.1" viewBox="0 0 864 432" width="864pt" xmlns="http://www.w3.org/2000/svg" xmlns:xlink="http://www.w3.org/1999/xlink">
 <defs>
  <style type="text/css">
*{stroke-linecap:butt;stroke-linejoin:round;}
  </style>
 </defs>
 <g id="figure_1">
  <g id="patch_1">
   <path d="M 0 432 
L 864 432 
L 864 0 
L 0 0 
z
" style="fill:#ffffff;"/>
  </g>
  <g id="axes_1">
   <g id="patch_2">
    <path d="M 108 384.48 
L 777.6 384.48 
L 777.6 51.84 
L 108 51.84 
z
" style="fill:#ffffff;"/>
   </g>
   <g id="patch_3">
    <path clip-path="url(#p214c3eb51f)" d="M 138.436364 384.48 
L 138.436364 51.84 
L 440.999032 51.84 
L 440.999032 384.48 
z
" style="fill:#0000ff;opacity:0.05;"/>
   </g>
   <g id="patch_4">
    <path clip-path="url(#p214c3eb51f)" d="M 440.999032 384.48 
L 440.999032 51.84 
L 747.163636 51.84 
L 747.163636 384.48 
z
" style="fill:#ff0000;opacity:0.08;"/>
   </g>
   <g id="patch_5">
    <path clip-path="url(#p214c3eb51f)" d="M 138.436364 384.48 
L 138.436364 51.84 
L 142.0383 51.84 
L 142.0383 384.48 
z
" style="fill:#008000;opacity:0.04;"/>
   </g>
   <g id="patch_6">
    <path clip-path="url(#p214c3eb51f)" d="M 444.600968 384.48 
L 444.600968 371.1744 
L 448.202905 371.1744 
L 448.202905 384.48 
z
" style="fill:#ff6600;"/>
   </g>
   <g id="patch_7">
    <path clip-path="url(#p214c3eb51f)" d="M 145.640237 384.48 
L 145.640237 51.84 
L 149.242173 51.84 
L 149.242173 384.48 
z
" style="fill:#008000;opacity:0.04;"/>
   </g>
   <g id="patch_8">
    <path clip-path="url(#p214c3eb51f)" d="M 152.84411 384.48 
L 152.84411 51.84 
L 156.446046 51.84 
L 156.446046 384.48 
z
" style="fill:#008000;opacity:0.04;"/>
   </g>
   <g id="patch_9">
    <path clip-path="url(#p214c3eb51f)" d="M 160.047983 384.48 
L 160.047983 51.84 
L 163.649919 51.84 
L 163.649919 384.48 
z
" style="fill:#008000;opacity:0.04;"/>
   </g>
   <g id="patch_10">
    <path clip-path="url(#p214c3eb51f)" d="M 167.251856 384.48 
L 167.251856 51.84 
L 170.853792 51.84 
L 170.853792 384.48 
z
" style="fill:#008000;opacity:0.04;"/>
   </g>
   <g id="patch_11">
    <path clip-path="url(#p214c3eb51f)" d="M 167.251856 384.48 
L 167.251856 371.1744 
L 170.853792 371.1744 
L 170.853792 384.48 
z
" style="fill:#ffe500;"/>
   </g>
   <g id="patch_12">
    <path clip-path="url(#p214c3eb51f)" d="M 174.455729 384.48 
L 174.455729 51.84 
L 178.057665 51.84 
L 178.057665 384.48 
z
" style="fill:#008000;opacity:0.04;"/>
   </g>
   <g id="patch_13">
    <path clip-path="url(#p214c3eb51f)" d="M 181.659602 384.48 
L 181.659602 51.84 
L 185.261538 51.84 
L 185.261538 384.48 
z
" style="fill:#008000;opacity:0.04;"/>
   </g>
   <g id="patch_14">
    <path clip-path="url(#p214c3eb51f)" d="M 188.863475 384.48 
L 188.863475 51.84 
L 192.465412 51.84 
L 192.465412 384.48 
z
" style="fill:#008000;opacity:0.04;"/>
   </g>
   <g id="patch_15">
    <path clip-path="url(#p214c3eb51f)" d="M 188.863475 371.1744 
L 188.863475 51.84 
L 192.465412 51.84 
L 192.465412 371.1744 
z
" style="fill:#008000;opacity:0.5;"/>
   </g>
   <g id="patch_16">
    <path clip-path="url(#p214c3eb51f)" d="M 188.863475 384.48 
L 188.863475 371.1744 
L 192.465412 371.1744 
L 192.465412 384.48 
z
" style="fill:#ffe500;"/>
   </g>
   <g id="patch_17">
    <path clip-path="url(#p214c3eb51f)" d="M 196.067348 384.48 
L 196.067348 51.84 
L 199.669285 51.84 
L 199.669285 384.48 
z
" style="fill:#008000;opacity:0.04;"/>
   </g>
   <g id="patch_18">
    <path clip-path="url(#p214c3eb51f)" d="M 498.630016 384.48 
L 498.630016 371.1744 
L 502.231953 371.1744 
L 502.231953 384.48 
z
" style="fill:#ff6600;"/>
   </g>
   <g id="patch_19">
    <path clip-path="url(#p214c3eb51f)" d="M 203.271221 384.48 
L 203.271221 51.84 
L 206.873158 51.84 
L 206.873158 384.48 
z
" style="fill:#008000;opacity:0.04;"/>
   </g>
   <g id="patch_20">
    <path clip-path="url(#p214c3eb51f)" d="M 210.475094 384.48 
L 210.475094 51.84 
L 214.077031 51.84 
L 214.077031 384.48 
z
" style="fill:#008000;opacity:0.04;"/>
   </g>
   <g id="patch_21">
    <path clip-path="url(#p214c3eb51f)" d="M 217.678967 384.48 
L 217.678967 51.84 
L 221.280904 51.84 
L 221.280904 384.48 
z
" style="fill:#008000;opacity:0.04;"/>
   </g>
   <g id="patch_22">
    <path clip-path="url(#p214c3eb51f)" d="M 217.678967 371.1744 
L 217.678967 51.84 
L 221.280904 51.84 
L 221.280904 371.1744 
z
" style="fill:#008000;opacity:0.5;"/>
   </g>
   <g id="patch_23">
    <path clip-path="url(#p214c3eb51f)" d="M 217.678967 384.48 
L 217.678967 371.1744 
L 221.280904 371.1744 
L 221.280904 384.48 
z
" style="fill:#ffe500;"/>
   </g>
   <g id="patch_24">
    <path clip-path="url(#p214c3eb51f)" d="M 224.88284 384.48 
L 224.88284 51.84 
L 228.484777 51.84 
L 228.484777 384.48 
z
" style="fill:#008000;opacity:0.04;"/>
   </g>
   <g id="patch_25">
    <path clip-path="url(#p214c3eb51f)" d="M 228.484777 371.1744 
L 228.484777 51.84 
L 232.086713 51.84 
L 232.086713 371.1744 
z
" style="fill:#008000;opacity:0.5;"/>
   </g>
   <g id="patch_26">
    <path clip-path="url(#p214c3eb51f)" d="M 228.484777 384.48 
L 228.484777 371.1744 
L 232.086713 371.1744 
L 232.086713 384.48 
z
" style="fill:#ffe500;"/>
   </g>
   <g id="patch_27">
    <path clip-path="url(#p214c3eb51f)" d="M 232.086713 384.48 
L 232.086713 51.84 
L 235.68865 51.84 
L 235.68865 384.48 
z
" style="fill:#008000;opacity:0.04;"/>
   </g>
   <g id="patch_28">
    <path clip-path="url(#p214c3eb51f)" d="M 239.290586 384.48 
L 239.290586 51.84 
L 242.892523 51.84 
L 242.892523 384.48 
z
" style="fill:#008000;opacity:0.04;"/>
   </g>
   <g id="patch_29">
    <path clip-path="url(#p214c3eb51f)" d="M 246.494459 384.48 
L 246.494459 51.84 
L 250.096396 51.84 
L 250.096396 384.48 
z
" style="fill:#008000;opacity:0.04;"/>
   </g>
   <g id="patch_30">
    <path clip-path="url(#p214c3eb51f)" d="M 253.698332 384.48 
L 253.698332 51.84 
L 257.300269 51.84 
L 257.300269 384.48 
z
" style="fill:#008000;opacity:0.04;"/>
   </g>
   <g id="patch_31">
    <path clip-path="url(#p214c3eb51f)" d="M 260.902205 384.48 
L 260.902205 51.84 
L 264.504142 51.84 
L 264.504142 384.48 
z
" style="fill:#008000;opacity:0.04;"/>
   </g>
   <g id="patch_32">
    <path clip-path="url(#p214c3eb51f)" d="M 268.106079 384.48 
L 268.106079 51.84 
L 271.708015 51.84 
L 271.708015 384.48 
z
" style="fill:#008000;opacity:0.04;"/>
   </g>
   <g id="patch_33">
    <path clip-path="url(#p214c3eb51f)" d="M 268.106079 371.1744 
L 268.106079 51.84 
L 271.708015 51.84 
L 271.708015 371.1744 
z
" style="fill:#008000;opacity:0.5;"/>
   </g>
   <g id="patch_34">
    <path clip-path="url(#p214c3eb51f)" d="M 275.309952 384.48 
L 275.309952 51.84 
L 278.911888 51.84 
L 278.911888 384.48 
z
" style="fill:#008000;opacity:0.04;"/>
   </g>
   <g id="patch_35">
    <path clip-path="url(#p214c3eb51f)" d="M 282.513825 384.48 
L 282.513825 51.84 
L 286.115761 51.84 
L 286.115761 384.48 
z
" style="fill:#008000;opacity:0.04;"/>
   </g>
   <g id="patch_36">
    <path clip-path="url(#p214c3eb51f)" d="M 289.717698 384.48 
L 289.717698 51.84 
L 293.319634 51.84 
L 293.319634 384.48 
z
" style="fill:#008000;opacity:0.04;"/>
   </g>
   <g id="patch_37">
    <path clip-path="url(#p214c3eb51f)" d="M 296.921571 384.48 
L 296.921571 51.84 
L 300.523507 51.84 
L 300.523507 384.48 
z
" style="fill:#008000;opacity:0.04;"/>
   </g>
   <g id="patch_38">
    <path clip-path="url(#p214c3eb51f)" d="M 304.125444 384.48 
L 304.125444 51.84 
L 307.72738 51.84 
L 307.72738 384.48 
z
" style="fill:#008000;opacity:0.04;"/>
   </g>
   <g id="patch_39">
    <path clip-path="url(#p214c3eb51f)" d="M 311.329317 384.48 
L 311.329317 51.84 
L 314.931253 51.84 
L 314.931253 384.48 
z
" style="fill:#008000;opacity:0.04;"/>
   </g>
   <g id="patch_40">
    <path clip-path="url(#p214c3eb51f)" d="M 314.931253 371.1744 
L 314.931253 51.84 
L 318.53319 51.84 
L 318.53319 371.1744 
z
" style="fill:#008000;opacity:0.5;"/>
   </g>
   <g id="patch_41">
    <path clip-path="url(#p214c3eb51f)" d="M 314.931253 384.48 
L 314.931253 371.1744 
L 318.53319 371.1744 
L 318.53319 384.48 
z
" style="fill:#ffe500;"/>
   </g>
   <g id="patch_42">
    <path clip-path="url(#p214c3eb51f)" d="M 318.53319 384.48 
L 318.53319 51.84 
L 322.135126 51.84 
L 322.135126 384.48 
z
" style="fill:#008000;opacity:0.04;"/>
   </g>
   <g id="patch_43">
    <path clip-path="url(#p214c3eb51f)" d="M 325.737063 384.48 
L 325.737063 51.84 
L 329.338999 51.84 
L 329.338999 384.48 
z
" style="fill:#008000;opacity:0.04;"/>
   </g>
   <g id="patch_44">
    <path clip-path="url(#p214c3eb51f)" d="M 332.940936 384.48 
L 332.940936 51.84 
L 336.542873 51.84 
L 336.542873 384.48 
z
" style="fill:#008000;opacity:0.04;"/>
   </g>
   <g id="patch_45">
    <path clip-path="url(#p214c3eb51f)" d="M 635.503604 384.48 
L 635.503604 371.1744 
L 639.105541 371.1744 
L 639.105541 384.48 
z
" style="fill:#ff6600;"/>
   </g>
   <g id="patch_46">
    <path clip-path="url(#p214c3eb51f)" d="M 340.144809 384.48 
L 340.144809 51.84 
L 343.746746 51.84 
L 343.746746 384.48 
z
" style="fill:#008000;opacity:0.04;"/>
   </g>
   <g id="patch_47">
    <path clip-path="url(#p214c3eb51f)" d="M 340.144809 371.1744 
L 340.144809 51.84 
L 343.746746 51.84 
L 343.746746 371.1744 
z
" style="fill:#008000;opacity:0.5;"/>
   </g>
   <g id="patch_48">
    <path clip-path="url(#p214c3eb51f)" d="M 340.144809 384.48 
L 340.144809 371.1744 
L 343.746746 371.1744 
L 343.746746 384.48 
z
" style="fill:#ffe500;"/>
   </g>
   <g id="patch_49">
    <path clip-path="url(#p214c3eb51f)" d="M 347.348682 384.48 
L 347.348682 51.84 
L 350.950619 51.84 
L 350.950619 384.48 
z
" style="fill:#008000;opacity:0.04;"/>
   </g>
   <g id="patch_50">
    <path clip-path="url(#p214c3eb51f)" d="M 653.513287 384.48 
L 653.513287 371.1744 
L 657.115223 371.1744 
L 657.115223 384.48 
z
" style="fill:#ff6600;"/>
   </g>
   <g id="patch_51">
    <path clip-path="url(#p214c3eb51f)" d="M 354.552555 384.48 
L 354.552555 51.84 
L 358.154492 51.84 
L 358.154492 384.48 
z
" style="fill:#008000;opacity:0.04;"/>
   </g>
   <g id="patch_52">
    <path clip-path="url(#p214c3eb51f)" d="M 361.756428 384.48 
L 361.756428 51.84 
L 365.358365 51.84 
L 365.358365 384.48 
z
" style="fill:#008000;opacity:0.04;"/>
   </g>
   <g id="patch_53">
    <path clip-path="url(#p214c3eb51f)" d="M 361.756428 371.1744 
L 361.756428 51.84 
L 365.358365 51.84 
L 365.358365 371.1744 
z
" style="fill:#008000;opacity:0.5;"/>
   </g>
   <g id="patch_54">
    <path clip-path="url(#p214c3eb51f)" d="M 361.756428 384.48 
L 361.756428 371.1744 
L 365.358365 371.1744 
L 365.358365 384.48 
z
" style="fill:#ffe500;"/>
   </g>
   <g id="patch_55">
    <path clip-path="url(#p214c3eb51f)" d="M 368.960301 384.48 
L 368.960301 51.84 
L 372.562238 51.84 
L 372.562238 384.48 
z
" style="fill:#008000;opacity:0.04;"/>
   </g>
   <g id="patch_56">
    <path clip-path="url(#p214c3eb51f)" d="M 376.164174 384.48 
L 376.164174 51.84 
L 379.766111 51.84 
L 379.766111 384.48 
z
" style="fill:#008000;opacity:0.04;"/>
   </g>
   <g id="patch_57">
    <path clip-path="url(#p214c3eb51f)" d="M 383.368047 384.48 
L 383.368047 51.84 
L 386.969984 51.84 
L 386.969984 384.48 
z
" style="fill:#008000;opacity:0.04;"/>
   </g>
   <g id="patch_58">
    <path clip-path="url(#p214c3eb51f)" d="M 383.368047 384.48 
L 383.368047 371.1744 
L 386.969984 371.1744 
L 386.969984 384.48 
z
" style="fill:#ffe500;"/>
   </g>
   <g id="patch_59">
    <path clip-path="url(#p214c3eb51f)" d="M 390.57192 384.48 
L 390.57192 51.84 
L 394.173857 51.84 
L 394.173857 384.48 
z
" style="fill:#008000;opacity:0.04;"/>
   </g>
   <g id="patch_60">
    <path clip-path="url(#p214c3eb51f)" d="M 397.775793 384.48 
L 397.775793 51.84 
L 401.37773 51.84 
L 401.37773 384.48 
z
" style="fill:#008000;opacity:0.04;"/>
   </g>
   <g id="patch_61">
    <path clip-path="url(#p214c3eb51f)" d="M 404.979666 384.48 
L 404.979666 51.84 
L 408.581603 51.84 
L 408.581603 384.48 
z
" style="fill:#008000;opacity:0.04;"/>
   </g>
   <g id="patch_62">
    <path clip-path="url(#p214c3eb51f)" d="M 412.18354 384.48 
L 412.18354 51.84 
L 415.785476 51.84 
L 415.785476 384.48 
z
" style="fill:#008000;opacity:0.04;"/>
   </g>
   <g id="patch_63">
    <path clip-path="url(#p214c3eb51f)" d="M 419.387413 384.48 
L 419.387413 51.84 
L 422.989349 51.84 
L 422.989349 384.48 
z
" style="fill:#008000;opacity:0.04;"/>
   </g>
   <g id="patch_64">
    <path clip-path="url(#p214c3eb51f)" d="M 426.591286 384.48 
L 426.591286 51.84 
L 430.193222 51.84 
L 430.193222 384.48 
z
" style="fill:#008000;opacity:0.04;"/>
   </g>
   <g id="patch_65">
    <path clip-path="url(#p214c3eb51f)" d="M 433.795159 384.48 
L 433.795159 51.84 
L 437.397095 51.84 
L 437.397095 384.48 
z
" style="fill:#008000;opacity:0.04;"/>
   </g>
   <g id="patch_66">
    <path clip-path="url(#p214c3eb51f)" d="M 440.999032 384.48 
L 440.999032 51.84 
L 444.600968 51.84 
L 444.600968 384.48 
z
" style="fill:#008000;opacity:0.04;"/>
   </g>
   <g id="patch_67">
    <path clip-path="url(#p214c3eb51f)" d="M 743.5617 384.48 
L 743.5617 371.1744 
L 747.163636 371.1744 
L 747.163636 384.48 
z
" style="fill:#ff6600;"/>
   </g>
   <g id="patch_68">
    <path clip-path="url(#p214c3eb51f)" d="M 444.600968 371.1744 
L 444.600968 51.84 
L 448.202905 51.84 
L 448.202905 371.1744 
z
" style="fill:#008000;opacity:0.5;"/>
   </g>
   <g id="patch_69">
    <path clip-path="url(#p214c3eb51f)" d="M 448.202905 384.48 
L 448.202905 51.84 
L 451.804841 51.84 
L 451.804841 384.48 
z
" style="fill:#008000;opacity:0.04;"/>
   </g>
   <g id="patch_70">
    <path clip-path="url(#p214c3eb51f)" d="M 455.406778 384.48 
L 455.406778 51.84 
L 459.008714 51.84 
L 459.008714 384.48 
z
" style="fill:#008000;opacity:0.04;"/>
   </g>
   <g id="patch_71">
    <path clip-path="url(#p214c3eb51f)" d="M 462.610651 384.48 
L 462.610651 51.84 
L 466.212587 51.84 
L 466.212587 384.48 
z
" style="fill:#008000;opacity:0.04;"/>
   </g>
   <g id="patch_72">
    <path clip-path="url(#p214c3eb51f)" d="M 469.814524 384.48 
L 469.814524 51.84 
L 473.41646 51.84 
L 473.41646 384.48 
z
" style="fill:#008000;opacity:0.04;"/>
   </g>
   <g id="patch_73">
    <path clip-path="url(#p214c3eb51f)" d="M 477.018397 384.48 
L 477.018397 51.84 
L 480.620334 51.84 
L 480.620334 384.48 
z
" style="fill:#008000;opacity:0.04;"/>
   </g>
   <g id="patch_74">
    <path clip-path="url(#p214c3eb51f)" d="M 484.22227 384.48 
L 484.22227 51.84 
L 487.824207 51.84 
L 487.824207 384.48 
z
" style="fill:#008000;opacity:0.04;"/>
   </g>
   <g id="patch_75">
    <path clip-path="url(#p214c3eb51f)" d="M 491.426143 384.48 
L 491.426143 51.84 
L 495.02808 51.84 
L 495.02808 384.48 
z
" style="fill:#008000;opacity:0.04;"/>
   </g>
   <g id="patch_76">
    <path clip-path="url(#p214c3eb51f)" d="M 498.630016 384.48 
L 498.630016 51.84 
L 502.231953 51.84 
L 502.231953 384.48 
z
" style="fill:#008000;opacity:0.04;"/>
   </g>
   <g id="patch_77">
    <path clip-path="url(#p214c3eb51f)" d="M 498.630016 371.1744 
L 498.630016 51.84 
L 502.231953 51.84 
L 502.231953 371.1744 
z
" style="fill:#008000;opacity:0.5;"/>
   </g>
   <g id="patch_78">
    <path clip-path="url(#p214c3eb51f)" d="M 505.833889 384.48 
L 505.833889 51.84 
L 509.435826 51.84 
L 509.435826 384.48 
z
" style="fill:#008000;opacity:0.04;"/>
   </g>
   <g id="patch_79">
    <path clip-path="url(#p214c3eb51f)" d="M 513.037762 384.48 
L 513.037762 51.84 
L 516.639699 51.84 
L 516.639699 384.48 
z
" style="fill:#008000;opacity:0.04;"/>
   </g>
   <g id="patch_80">
    <path clip-path="url(#p214c3eb51f)" d="M 520.241635 384.48 
L 520.241635 51.84 
L 523.843572 51.84 
L 523.843572 384.48 
z
" style="fill:#008000;opacity:0.04;"/>
   </g>
   <g id="patch_81">
    <path clip-path="url(#p214c3eb51f)" d="M 527.445508 384.48 
L 527.445508 51.84 
L 531.047445 51.84 
L 531.047445 384.48 
z
" style="fill:#008000;opacity:0.04;"/>
   </g>
   <g id="patch_82">
    <path clip-path="url(#p214c3eb51f)" d="M 534.649381 384.48 
L 534.649381 51.84 
L 538.251318 51.84 
L 538.251318 384.48 
z
" style="fill:#008000;opacity:0.04;"/>
   </g>
   <g id="patch_83">
    <path clip-path="url(#p214c3eb51f)" d="M 541.853254 384.48 
L 541.853254 51.84 
L 545.455191 51.84 
L 545.455191 384.48 
z
" style="fill:#008000;opacity:0.04;"/>
   </g>
   <g id="patch_84">
    <path clip-path="url(#p214c3eb51f)" d="M 549.057127 384.48 
L 549.057127 51.84 
L 552.659064 51.84 
L 552.659064 384.48 
z
" style="fill:#008000;opacity:0.04;"/>
   </g>
   <g id="patch_85">
    <path clip-path="url(#p214c3eb51f)" d="M 556.261001 384.48 
L 556.261001 51.84 
L 559.862937 51.84 
L 559.862937 384.48 
z
" style="fill:#008000;opacity:0.04;"/>
   </g>
   <g id="patch_86">
    <path clip-path="url(#p214c3eb51f)" d="M 563.464874 384.48 
L 563.464874 51.84 
L 567.06681 51.84 
L 567.06681 384.48 
z
" style="fill:#008000;opacity:0.04;"/>
   </g>
   <g id="patch_87">
    <path clip-path="url(#p214c3eb51f)" d="M 570.668747 384.48 
L 570.668747 51.84 
L 574.270683 51.84 
L 574.270683 384.48 
z
" style="fill:#008000;opacity:0.04;"/>
   </g>
   <g id="patch_88">
    <path clip-path="url(#p214c3eb51f)" d="M 577.87262 384.48 
L 577.87262 51.84 
L 581.474556 51.84 
L 581.474556 384.48 
z
" style="fill:#008000;opacity:0.04;"/>
   </g>
   <g id="patch_89">
    <path clip-path="url(#p214c3eb51f)" d="M 585.076493 384.48 
L 585.076493 51.84 
L 588.678429 51.84 
L 588.678429 384.48 
z
" style="fill:#008000;opacity:0.04;"/>
   </g>
   <g id="patch_90">
    <path clip-path="url(#p214c3eb51f)" d="M 592.280366 384.48 
L 592.280366 51.84 
L 595.882302 51.84 
L 595.882302 384.48 
z
" style="fill:#008000;opacity:0.04;"/>
   </g>
   <g id="patch_91">
    <path clip-path="url(#p214c3eb51f)" d="M 599.484239 384.48 
L 599.484239 51.84 
L 603.086175 51.84 
L 603.086175 384.48 
z
" style="fill:#008000;opacity:0.04;"/>
   </g>
   <g id="patch_92">
    <path clip-path="url(#p214c3eb51f)" d="M 606.688112 384.48 
L 606.688112 51.84 
L 610.290048 51.84 
L 610.290048 384.48 
z
" style="fill:#008000;opacity:0.04;"/>
   </g>
   <g id="patch_93">
    <path clip-path="url(#p214c3eb51f)" d="M 613.891985 384.48 
L 613.891985 51.84 
L 617.493921 51.84 
L 617.493921 384.48 
z
" style="fill:#008000;opacity:0.04;"/>
   </g>
   <g id="patch_94">
    <path clip-path="url(#p214c3eb51f)" d="M 621.095858 384.48 
L 621.095858 51.84 
L 624.697795 51.84 
L 624.697795 384.48 
z
" style="fill:#008000;opacity:0.04;"/>
   </g>
   <g id="patch_95">
    <path clip-path="url(#p214c3eb51f)" d="M 628.299731 384.48 
L 628.299731 51.84 
L 631.901668 51.84 
L 631.901668 384.48 
z
" style="fill:#008000;opacity:0.04;"/>
   </g>
   <g id="patch_96">
    <path clip-path="url(#p214c3eb51f)" d="M 635.503604 384.48 
L 635.503604 51.84 
L 639.105541 51.84 
L 639.105541 384.48 
z
" style="fill:#008000;opacity:0.04;"/>
   </g>
   <g id="patch_97">
    <path clip-path="url(#p214c3eb51f)" d="M 635.503604 371.1744 
L 635.503604 51.84 
L 639.105541 51.84 
L 639.105541 371.1744 
z
" style="fill:#008000;opacity:0.5;"/>
   </g>
   <g id="patch_98">
    <path clip-path="url(#p214c3eb51f)" d="M 642.707477 384.48 
L 642.707477 51.84 
L 646.309414 51.84 
L 646.309414 384.48 
z
" style="fill:#008000;opacity:0.04;"/>
   </g>
   <g id="patch_99">
    <path clip-path="url(#p214c3eb51f)" d="M 649.91135 384.48 
L 649.91135 51.84 
L 653.513287 51.84 
L 653.513287 384.48 
z
" style="fill:#008000;opacity:0.04;"/>
   </g>
   <g id="patch_100">
    <path clip-path="url(#p214c3eb51f)" d="M 653.513287 371.1744 
L 653.513287 51.84 
L 657.115223 51.84 
L 657.115223 371.1744 
z
" style="fill:#008000;opacity:0.5;"/>
   </g>
   <g id="patch_101">
    <path clip-path="url(#p214c3eb51f)" d="M 657.115223 384.48 
L 657.115223 51.84 
L 660.71716 51.84 
L 660.71716 384.48 
z
" style="fill:#008000;opacity:0.04;"/>
   </g>
   <g id="patch_102">
    <path clip-path="url(#p214c3eb51f)" d="M 664.319096 384.48 
L 664.319096 51.84 
L 667.921033 51.84 
L 667.921033 384.48 
z
" style="fill:#008000;opacity:0.04;"/>
   </g>
   <g id="patch_103">
    <path clip-path="url(#p214c3eb51f)" d="M 671.522969 384.48 
L 671.522969 51.84 
L 675.124906 51.84 
L 675.124906 384.48 
z
" style="fill:#008000;opacity:0.04;"/>
   </g>
   <g id="patch_104">
    <path clip-path="url(#p214c3eb51f)" d="M 678.726842 384.48 
L 678.726842 51.84 
L 682.328779 51.84 
L 682.328779 384.48 
z
" style="fill:#008000;opacity:0.04;"/>
   </g>
   <g id="patch_105">
    <path clip-path="url(#p214c3eb51f)" d="M 685.930715 384.48 
L 685.930715 51.84 
L 689.532652 51.84 
L 689.532652 384.48 
z
" style="fill:#008000;opacity:0.04;"/>
   </g>
   <g id="patch_106">
    <path clip-path="url(#p214c3eb51f)" d="M 693.134588 384.48 
L 693.134588 51.84 
L 696.736525 51.84 
L 696.736525 384.48 
z
" style="fill:#008000;opacity:0.04;"/>
   </g>
   <g id="patch_107">
    <path clip-path="url(#p214c3eb51f)" d="M 700.338462 384.48 
L 700.338462 51.84 
L 703.940398 51.84 
L 703.940398 384.48 
z
" style="fill:#008000;opacity:0.04;"/>
   </g>
   <g id="patch_108">
    <path clip-path="url(#p214c3eb51f)" d="M 707.542335 384.48 
L 707.542335 51.84 
L 711.144271 51.84 
L 711.144271 384.48 
z
" style="fill:#008000;opacity:0.04;"/>
   </g>
   <g id="patch_109">
    <path clip-path="url(#p214c3eb51f)" d="M 714.746208 384.48 
L 714.746208 51.84 
L 718.348144 51.84 
L 718.348144 384.48 
z
" style="fill:#008000;opacity:0.04;"/>
   </g>
   <g id="patch_110">
    <path clip-path="url(#p214c3eb51f)" d="M 721.950081 384.48 
L 721.950081 51.84 
L 725.552017 51.84 
L 725.552017 384.48 
z
" style="fill:#008000;opacity:0.04;"/>
   </g>
   <g id="patch_111">
    <path clip-path="url(#p214c3eb51f)" d="M 729.153954 384.48 
L 729.153954 51.84 
L 732.75589 51.84 
L 732.75589 384.48 
z
" style="fill:#008000;opacity:0.04;"/>
   </g>
   <g id="patch_112">
    <path clip-path="url(#p214c3eb51f)" d="M 736.357827 384.48 
L 736.357827 51.84 
L 739.959763 51.84 
L 739.959763 384.48 
z
" style="fill:#008000;opacity:0.04;"/>
   </g>
   <g id="patch_113">
    <path clip-path="url(#p214c3eb51f)" d="M 743.5617 384.48 
L 743.5617 51.84 
L 747.163636 51.84 
L 747.163636 384.48 
z
" style="fill:#008000;opacity:0.04;"/>
   </g>
   <g id="matplotlib.axis_1">
    <g id="xtick_1">
     <g id="line2d_1">
      <defs>
       <path d="M 0 0 
L 0 3.5 
" id="me1fdf41e41" style="stroke:#000000;stroke-width:0.8;"/>
      </defs>
      <g>
       <use style="stroke:#000000;stroke-width:0.8;" x="138.436364" xlink:href="#me1fdf41e41" y="384.48"/>
      </g>
     </g>
     <g id="text_1">
      <!-- 0 -->
      <defs>
       <path d="M 31.78125 66.40625 
Q 24.171875 66.40625 20.328125 58.90625 
Q 16.5 51.421875 16.5 36.375 
Q 16.5 21.390625 20.328125 13.890625 
Q 24.171875 6.390625 31.78125 6.390625 
Q 39.453125 6.390625 43.28125 13.890625 
Q 47.125 21.390625 47.125 36.375 
Q 47.125 51.421875 43.28125 58.90625 
Q 39.453125 66.40625 31.78125 66.40625 
z
M 31.78125 74.21875 
Q 44.046875 74.21875 50.515625 64.515625 
Q 56.984375 54.828125 56.984375 36.375 
Q 56.984375 17.96875 50.515625 8.265625 
Q 44.046875 -1.421875 31.78125 -1.421875 
Q 19.53125 -1.421875 13.0625 8.265625 
Q 6.59375 17.96875 6.59375 36.375 
Q 6.59375 54.828125 13.0625 64.515625 
Q 19.53125 74.21875 31.78125 74.21875 
z
" id="DejaVuSans-48"/>
      </defs>
      <g transform="translate(135.255114 399.078438)scale(0.1 -0.1)">
       <use xlink:href="#DejaVuSans-48"/>
      </g>
     </g>
    </g>
    <g id="xtick_2">
     <g id="line2d_2">
      <g>
       <use style="stroke:#000000;stroke-width:0.8;" x="228.484777" xlink:href="#me1fdf41e41" y="384.48"/>
      </g>
     </g>
     <g id="text_2">
      <!-- 250 -->
      <defs>
       <path d="M 19.1875 8.296875 
L 53.609375 8.296875 
L 53.609375 0 
L 7.328125 0 
L 7.328125 8.296875 
Q 12.9375 14.109375 22.625 23.890625 
Q 32.328125 33.6875 34.8125 36.53125 
Q 39.546875 41.84375 41.421875 45.53125 
Q 43.3125 49.21875 43.3125 52.78125 
Q 43.3125 58.59375 39.234375 62.25 
Q 35.15625 65.921875 28.609375 65.921875 
Q 23.96875 65.921875 18.8125 64.3125 
Q 13.671875 62.703125 7.8125 59.421875 
L 7.8125 69.390625 
Q 13.765625 71.78125 18.9375 73 
Q 24.125 74.21875 28.421875 74.21875 
Q 39.75 74.21875 46.484375 68.546875 
Q 53.21875 62.890625 53.21875 53.421875 
Q 53.21875 48.921875 51.53125 44.890625 
Q 49.859375 40.875 45.40625 35.40625 
Q 44.1875 33.984375 37.640625 27.21875 
Q 31.109375 20.453125 19.1875 8.296875 
z
" id="DejaVuSans-50"/>
       <path d="M 10.796875 72.90625 
L 49.515625 72.90625 
L 49.515625 64.59375 
L 19.828125 64.59375 
L 19.828125 46.734375 
Q 21.96875 47.46875 24.109375 47.828125 
Q 26.265625 48.1875 28.421875 48.1875 
Q 40.625 48.1875 47.75 41.5 
Q 54.890625 34.8125 54.890625 23.390625 
Q 54.890625 11.625 47.5625 5.09375 
Q 40.234375 -1.421875 26.90625 -1.421875 
Q 22.3125 -1.421875 17.546875 -0.640625 
Q 12.796875 0.140625 7.71875 1.703125 
L 7.71875 11.625 
Q 12.109375 9.234375 16.796875 8.0625 
Q 21.484375 6.890625 26.703125 6.890625 
Q 35.15625 6.890625 40.078125 11.328125 
Q 45.015625 15.765625 45.015625 23.390625 
Q 45.015625 31 40.078125 35.4375 
Q 35.15625 39.890625 26.703125 39.890625 
Q 22.75 39.890625 18.8125 39.015625 
Q 14.890625 38.140625 10.796875 36.28125 
z
" id="DejaVuSans-53"/>
      </defs>
      <g transform="translate(218.941027 399.078438)scale(0.1 -0.1)">
       <use xlink:href="#DejaVuSans-50"/>
       <use x="63.623047" xlink:href="#DejaVuSans-53"/>
       <use x="127.246094" xlink:href="#DejaVuSans-48"/>
      </g>
     </g>
    </g>
    <g id="xtick_3">
     <g id="line2d_3">
      <g>
       <use style="stroke:#000000;stroke-width:0.8;" x="318.53319" xlink:href="#me1fdf41e41" y="384.48"/>
      </g>
     </g>
     <g id="text_3">
      <!-- 500 -->
      <g transform="translate(308.98944 399.078438)scale(0.1 -0.1)">
       <use xlink:href="#DejaVuSans-53"/>
       <use x="63.623047" xlink:href="#DejaVuSans-48"/>
       <use x="127.246094" xlink:href="#DejaVuSans-48"/>
      </g>
     </g>
    </g>
    <g id="xtick_4">
     <g id="line2d_4">
      <g>
       <use style="stroke:#000000;stroke-width:0.8;" x="408.581603" xlink:href="#me1fdf41e41" y="384.48"/>
      </g>
     </g>
     <g id="text_4">
      <!-- 750 -->
      <defs>
       <path d="M 8.203125 72.90625 
L 55.078125 72.90625 
L 55.078125 68.703125 
L 28.609375 0 
L 18.3125 0 
L 43.21875 64.59375 
L 8.203125 64.59375 
z
" id="DejaVuSans-55"/>
      </defs>
      <g transform="translate(399.037853 399.078438)scale(0.1 -0.1)">
       <use xlink:href="#DejaVuSans-55"/>
       <use x="63.623047" xlink:href="#DejaVuSans-53"/>
       <use x="127.246094" xlink:href="#DejaVuSans-48"/>
      </g>
     </g>
    </g>
    <g id="xtick_5">
     <g id="line2d_5">
      <g>
       <use style="stroke:#000000;stroke-width:0.8;" x="498.630016" xlink:href="#me1fdf41e41" y="384.48"/>
      </g>
     </g>
     <g id="text_5">
      <!-- 1000 -->
      <defs>
       <path d="M 12.40625 8.296875 
L 28.515625 8.296875 
L 28.515625 63.921875 
L 10.984375 60.40625 
L 10.984375 69.390625 
L 28.421875 72.90625 
L 38.28125 72.90625 
L 38.28125 8.296875 
L 54.390625 8.296875 
L 54.390625 0 
L 12.40625 0 
z
" id="DejaVuSans-49"/>
      </defs>
      <g transform="translate(485.905016 399.078438)scale(0.1 -0.1)">
       <use xlink:href="#DejaVuSans-49"/>
       <use x="63.623047" xlink:href="#DejaVuSans-48"/>
       <use x="127.246094" xlink:href="#DejaVuSans-48"/>
       <use x="190.869141" xlink:href="#DejaVuSans-48"/>
      </g>
     </g>
    </g>
    <g id="xtick_6">
     <g id="line2d_6">
      <g>
       <use style="stroke:#000000;stroke-width:0.8;" x="588.678429" xlink:href="#me1fdf41e41" y="384.48"/>
      </g>
     </g>
     <g id="text_6">
      <!-- 1250 -->
      <g transform="translate(575.953429 399.078438)scale(0.1 -0.1)">
       <use xlink:href="#DejaVuSans-49"/>
       <use x="63.623047" xlink:href="#DejaVuSans-50"/>
       <use x="127.246094" xlink:href="#DejaVuSans-53"/>
       <use x="190.869141" xlink:href="#DejaVuSans-48"/>
      </g>
     </g>
    </g>
    <g id="xtick_7">
     <g id="line2d_7">
      <g>
       <use style="stroke:#000000;stroke-width:0.8;" x="678.726842" xlink:href="#me1fdf41e41" y="384.48"/>
      </g>
     </g>
     <g id="text_7">
      <!-- 1500 -->
      <g transform="translate(666.001842 399.078438)scale(0.1 -0.1)">
       <use xlink:href="#DejaVuSans-49"/>
       <use x="63.623047" xlink:href="#DejaVuSans-53"/>
       <use x="127.246094" xlink:href="#DejaVuSans-48"/>
       <use x="190.869141" xlink:href="#DejaVuSans-48"/>
      </g>
     </g>
    </g>
    <g id="xtick_8">
     <g id="line2d_8">
      <g>
       <use style="stroke:#000000;stroke-width:0.8;" x="768.775256" xlink:href="#me1fdf41e41" y="384.48"/>
      </g>
     </g>
     <g id="text_8">
      <!-- 1750 -->
      <g transform="translate(756.050256 399.078438)scale(0.1 -0.1)">
       <use xlink:href="#DejaVuSans-49"/>
       <use x="63.623047" xlink:href="#DejaVuSans-55"/>
       <use x="127.246094" xlink:href="#DejaVuSans-53"/>
       <use x="190.869141" xlink:href="#DejaVuSans-48"/>
      </g>
     </g>
    </g>
    <g id="text_9">
     <!-- Timestamp -->
     <defs>
      <path d="M -0.296875 72.90625 
L 61.375 72.90625 
L 61.375 64.59375 
L 35.5 64.59375 
L 35.5 0 
L 25.59375 0 
L 25.59375 64.59375 
L -0.296875 64.59375 
z
" id="DejaVuSans-84"/>
      <path d="M 9.421875 54.6875 
L 18.40625 54.6875 
L 18.40625 0 
L 9.421875 0 
z
M 9.421875 75.984375 
L 18.40625 75.984375 
L 18.40625 64.59375 
L 9.421875 64.59375 
z
" id="DejaVuSans-105"/>
      <path d="M 52 44.1875 
Q 55.375 50.25 60.0625 53.125 
Q 64.75 56 71.09375 56 
Q 79.640625 56 84.28125 50.015625 
Q 88.921875 44.046875 88.921875 33.015625 
L 88.921875 0 
L 79.890625 0 
L 79.890625 32.71875 
Q 79.890625 40.578125 77.09375 44.375 
Q 74.3125 48.1875 68.609375 48.1875 
Q 61.625 48.1875 57.5625 43.546875 
Q 53.515625 38.921875 53.515625 30.90625 
L 53.515625 0 
L 44.484375 0 
L 44.484375 32.71875 
Q 44.484375 40.625 41.703125 44.40625 
Q 38.921875 48.1875 33.109375 48.1875 
Q 26.21875 48.1875 22.15625 43.53125 
Q 18.109375 38.875 18.109375 30.90625 
L 18.109375 0 
L 9.078125 0 
L 9.078125 54.6875 
L 18.109375 54.6875 
L 18.109375 46.1875 
Q 21.1875 51.21875 25.484375 53.609375 
Q 29.78125 56 35.6875 56 
Q 41.65625 56 45.828125 52.96875 
Q 50 49.953125 52 44.1875 
z
" id="DejaVuSans-109"/>
      <path d="M 56.203125 29.59375 
L 56.203125 25.203125 
L 14.890625 25.203125 
Q 15.484375 15.921875 20.484375 11.0625 
Q 25.484375 6.203125 34.421875 6.203125 
Q 39.59375 6.203125 44.453125 7.46875 
Q 49.3125 8.734375 54.109375 11.28125 
L 54.109375 2.78125 
Q 49.265625 0.734375 44.1875 -0.34375 
Q 39.109375 -1.421875 33.890625 -1.421875 
Q 20.796875 -1.421875 13.15625 6.1875 
Q 5.515625 13.8125 5.515625 26.8125 
Q 5.515625 40.234375 12.765625 48.109375 
Q 20.015625 56 32.328125 56 
Q 43.359375 56 49.78125 48.890625 
Q 56.203125 41.796875 56.203125 29.59375 
z
M 47.21875 32.234375 
Q 47.125 39.59375 43.09375 43.984375 
Q 39.0625 48.390625 32.421875 48.390625 
Q 24.90625 48.390625 20.390625 44.140625 
Q 15.875 39.890625 15.1875 32.171875 
z
" id="DejaVuSans-101"/>
      <path d="M 44.28125 53.078125 
L 44.28125 44.578125 
Q 40.484375 46.53125 36.375 47.5 
Q 32.28125 48.484375 27.875 48.484375 
Q 21.1875 48.484375 17.84375 46.4375 
Q 14.5 44.390625 14.5 40.28125 
Q 14.5 37.15625 16.890625 35.375 
Q 19.28125 33.59375 26.515625 31.984375 
L 29.59375 31.296875 
Q 39.15625 29.25 43.1875 25.515625 
Q 47.21875 21.78125 47.21875 15.09375 
Q 47.21875 7.46875 41.1875 3.015625 
Q 35.15625 -1.421875 24.609375 -1.421875 
Q 20.21875 -1.421875 15.453125 -0.5625 
Q 10.6875 0.296875 5.421875 2 
L 5.421875 11.28125 
Q 10.40625 8.6875 15.234375 7.390625 
Q 20.0625 6.109375 24.8125 6.109375 
Q 31.15625 6.109375 34.5625 8.28125 
Q 37.984375 10.453125 37.984375 14.40625 
Q 37.984375 18.0625 35.515625 20.015625 
Q 33.0625 21.96875 24.703125 23.78125 
L 21.578125 24.515625 
Q 13.234375 26.265625 9.515625 29.90625 
Q 5.8125 33.546875 5.8125 39.890625 
Q 5.8125 47.609375 11.28125 51.796875 
Q 16.75 56 26.8125 56 
Q 31.78125 56 36.171875 55.265625 
Q 40.578125 54.546875 44.28125 53.078125 
z
" id="DejaVuSans-115"/>
      <path d="M 18.3125 70.21875 
L 18.3125 54.6875 
L 36.8125 54.6875 
L 36.8125 47.703125 
L 18.3125 47.703125 
L 18.3125 18.015625 
Q 18.3125 11.328125 20.140625 9.421875 
Q 21.96875 7.515625 27.59375 7.515625 
L 36.8125 7.515625 
L 36.8125 0 
L 27.59375 0 
Q 17.1875 0 13.234375 3.875 
Q 9.28125 7.765625 9.28125 18.015625 
L 9.28125 47.703125 
L 2.6875 47.703125 
L 2.6875 54.6875 
L 9.28125 54.6875 
L 9.28125 70.21875 
z
" id="DejaVuSans-116"/>
      <path d="M 34.28125 27.484375 
Q 23.390625 27.484375 19.1875 25 
Q 14.984375 22.515625 14.984375 16.5 
Q 14.984375 11.71875 18.140625 8.90625 
Q 21.296875 6.109375 26.703125 6.109375 
Q 34.1875 6.109375 38.703125 11.40625 
Q 43.21875 16.703125 43.21875 25.484375 
L 43.21875 27.484375 
z
M 52.203125 31.203125 
L 52.203125 0 
L 43.21875 0 
L 43.21875 8.296875 
Q 40.140625 3.328125 35.546875 0.953125 
Q 30.953125 -1.421875 24.3125 -1.421875 
Q 15.921875 -1.421875 10.953125 3.296875 
Q 6 8.015625 6 15.921875 
Q 6 25.140625 12.171875 29.828125 
Q 18.359375 34.515625 30.609375 34.515625 
L 43.21875 34.515625 
L 43.21875 35.40625 
Q 43.21875 41.609375 39.140625 45 
Q 35.0625 48.390625 27.6875 48.390625 
Q 23 48.390625 18.546875 47.265625 
Q 14.109375 46.140625 10.015625 43.890625 
L 10.015625 52.203125 
Q 14.9375 54.109375 19.578125 55.046875 
Q 24.21875 56 28.609375 56 
Q 40.484375 56 46.34375 49.84375 
Q 52.203125 43.703125 52.203125 31.203125 
z
" id="DejaVuSans-97"/>
      <path d="M 18.109375 8.203125 
L 18.109375 -20.796875 
L 9.078125 -20.796875 
L 9.078125 54.6875 
L 18.109375 54.6875 
L 18.109375 46.390625 
Q 20.953125 51.265625 25.265625 53.625 
Q 29.59375 56 35.59375 56 
Q 45.5625 56 51.78125 48.09375 
Q 58.015625 40.1875 58.015625 27.296875 
Q 58.015625 14.40625 51.78125 6.484375 
Q 45.5625 -1.421875 35.59375 -1.421875 
Q 29.59375 -1.421875 25.265625 0.953125 
Q 20.953125 3.328125 18.109375 8.203125 
z
M 48.6875 27.296875 
Q 48.6875 37.203125 44.609375 42.84375 
Q 40.53125 48.484375 33.40625 48.484375 
Q 26.265625 48.484375 22.1875 42.84375 
Q 18.109375 37.203125 18.109375 27.296875 
Q 18.109375 17.390625 22.1875 11.75 
Q 26.265625 6.109375 33.40625 6.109375 
Q 40.53125 6.109375 44.609375 11.75 
Q 48.6875 17.390625 48.6875 27.296875 
z
" id="DejaVuSans-112"/>
     </defs>
     <g transform="translate(414.739062 412.756563)scale(0.1 -0.1)">
      <use xlink:href="#DejaVuSans-84"/>
      <use x="61.037109" xlink:href="#DejaVuSans-105"/>
      <use x="88.820312" xlink:href="#DejaVuSans-109"/>
      <use x="186.232422" xlink:href="#DejaVuSans-101"/>
      <use x="247.755859" xlink:href="#DejaVuSans-115"/>
      <use x="299.855469" xlink:href="#DejaVuSans-116"/>
      <use x="339.064453" xlink:href="#DejaVuSans-97"/>
      <use x="400.34375" xlink:href="#DejaVuSans-109"/>
      <use x="497.755859" xlink:href="#DejaVuSans-112"/>
     </g>
    </g>
   </g>
   <g id="matplotlib.axis_2">
    <g id="ytick_1">
     <g id="line2d_9">
      <defs>
       <path d="M 0 0 
L -3.5 0 
" id="m12a9fe97ec" style="stroke:#000000;stroke-width:0.8;"/>
      </defs>
      <g>
       <use style="stroke:#000000;stroke-width:0.8;" x="108" xlink:href="#m12a9fe97ec" y="384.152483"/>
      </g>
     </g>
     <g id="text_10">
      <!-- −500 -->
      <defs>
       <path d="M 10.59375 35.5 
L 73.1875 35.5 
L 73.1875 27.203125 
L 10.59375 27.203125 
z
" id="DejaVuSans-8722"/>
      </defs>
      <g transform="translate(73.532813 387.951701)scale(0.1 -0.1)">
       <use xlink:href="#DejaVuSans-8722"/>
       <use x="83.789062" xlink:href="#DejaVuSans-53"/>
       <use x="147.412109" xlink:href="#DejaVuSans-48"/>
       <use x="211.035156" xlink:href="#DejaVuSans-48"/>
      </g>
     </g>
    </g>
    <g id="ytick_2">
     <g id="line2d_10">
      <g>
       <use style="stroke:#000000;stroke-width:0.8;" x="108" xlink:href="#m12a9fe97ec" y="322.836058"/>
      </g>
     </g>
     <g id="text_11">
      <!-- 0 -->
      <g transform="translate(94.6375 326.635277)scale(0.1 -0.1)">
       <use xlink:href="#DejaVuSans-48"/>
      </g>
     </g>
    </g>
    <g id="ytick_3">
     <g id="line2d_11">
      <g>
       <use style="stroke:#000000;stroke-width:0.8;" x="108" xlink:href="#m12a9fe97ec" y="261.519634"/>
      </g>
     </g>
     <g id="text_12">
      <!-- 500 -->
      <g transform="translate(81.9125 265.318853)scale(0.1 -0.1)">
       <use xlink:href="#DejaVuSans-53"/>
       <use x="63.623047" xlink:href="#DejaVuSans-48"/>
       <use x="127.246094" xlink:href="#DejaVuSans-48"/>
      </g>
     </g>
    </g>
    <g id="ytick_4">
     <g id="line2d_12">
      <g>
       <use style="stroke:#000000;stroke-width:0.8;" x="108" xlink:href="#m12a9fe97ec" y="200.20321"/>
      </g>
     </g>
     <g id="text_13">
      <!-- 1000 -->
      <g transform="translate(75.55 204.002429)scale(0.1 -0.1)">
       <use xlink:href="#DejaVuSans-49"/>
       <use x="63.623047" xlink:href="#DejaVuSans-48"/>
       <use x="127.246094" xlink:href="#DejaVuSans-48"/>
       <use x="190.869141" xlink:href="#DejaVuSans-48"/>
      </g>
     </g>
    </g>
    <g id="ytick_5">
     <g id="line2d_13">
      <g>
       <use style="stroke:#000000;stroke-width:0.8;" x="108" xlink:href="#m12a9fe97ec" y="138.886786"/>
      </g>
     </g>
     <g id="text_14">
      <!-- 1500 -->
      <g transform="translate(75.55 142.686005)scale(0.1 -0.1)">
       <use xlink:href="#DejaVuSans-49"/>
       <use x="63.623047" xlink:href="#DejaVuSans-53"/>
       <use x="127.246094" xlink:href="#DejaVuSans-48"/>
       <use x="190.869141" xlink:href="#DejaVuSans-48"/>
      </g>
     </g>
    </g>
    <g id="ytick_6">
     <g id="line2d_14">
      <g>
       <use style="stroke:#000000;stroke-width:0.8;" x="108" xlink:href="#m12a9fe97ec" y="77.570362"/>
      </g>
     </g>
     <g id="text_15">
      <!-- 2000 -->
      <g transform="translate(75.55 81.36958)scale(0.1 -0.1)">
       <use xlink:href="#DejaVuSans-50"/>
       <use x="63.623047" xlink:href="#DejaVuSans-48"/>
       <use x="127.246094" xlink:href="#DejaVuSans-48"/>
       <use x="190.869141" xlink:href="#DejaVuSans-48"/>
      </g>
     </g>
    </g>
    <g id="text_16">
     <!-- Value -->
     <defs>
      <path d="M 28.609375 0 
L 0.78125 72.90625 
L 11.078125 72.90625 
L 34.1875 11.53125 
L 57.328125 72.90625 
L 67.578125 72.90625 
L 39.796875 0 
z
" id="DejaVuSans-86"/>
      <path d="M 9.421875 75.984375 
L 18.40625 75.984375 
L 18.40625 0 
L 9.421875 0 
z
" id="DejaVuSans-108"/>
      <path d="M 8.5 21.578125 
L 8.5 54.6875 
L 17.484375 54.6875 
L 17.484375 21.921875 
Q 17.484375 14.15625 20.5 10.265625 
Q 23.53125 6.390625 29.59375 6.390625 
Q 36.859375 6.390625 41.078125 11.03125 
Q 45.3125 15.671875 45.3125 23.6875 
L 45.3125 54.6875 
L 54.296875 54.6875 
L 54.296875 0 
L 45.3125 0 
L 45.3125 8.40625 
Q 42.046875 3.421875 37.71875 1 
Q 33.40625 -1.421875 27.6875 -1.421875 
Q 18.265625 -1.421875 13.375 4.4375 
Q 8.5 10.296875 8.5 21.578125 
z
M 31.109375 56 
z
" id="DejaVuSans-117"/>
     </defs>
     <g transform="translate(67.453125 232.273281)rotate(-90)scale(0.1 -0.1)">
      <use xlink:href="#DejaVuSans-86"/>
      <use x="68.298828" xlink:href="#DejaVuSans-97"/>
      <use x="129.578125" xlink:href="#DejaVuSans-108"/>
      <use x="157.361328" xlink:href="#DejaVuSans-117"/>
      <use x="220.740234" xlink:href="#DejaVuSans-101"/>
     </g>
    </g>
   </g>
   <g id="line2d_15">
    <path clip-path="url(#p214c3eb51f)" d="M 138.436364 333.374028 
L 138.796557 304.390442 
L 139.156751 293.980831 
L 139.516945 294.199939 
L 139.877138 279.650784 
L 140.237332 298.049374 
L 140.597526 293.832431 
L 140.957719 308.995276 
L 141.317913 311.790546 
L 142.0383 334.811365 
L 142.398494 314.724602 
L 142.758687 301.578721 
L 143.118881 310.007781 
L 143.479075 311.73971 
L 143.839268 306.999916 
L 144.559656 325.598798 
L 144.919849 347.205049 
L 145.280043 346.86821 
L 145.640237 336.300143 
L 146.00043 345.466195 
L 146.360624 348.984281 
L 146.720818 321.501306 
L 147.081011 327.445772 
L 147.441205 285.193733 
L 147.801399 277.266744 
L 148.521786 265.243078 
L 148.88198 275.809484 
L 149.242173 277.55482 
L 149.602367 299.916828 
L 149.962561 307.993321 
L 150.322754 320.663633 
L 150.682948 314.356022 
L 151.043141 322.621487 
L 151.403335 297.401321 
L 151.763529 298.880453 
L 152.123722 284.645636 
L 152.84411 314.153277 
L 153.924691 334.234309 
L 154.284884 347.796861 
L 155.365465 326.287396 
L 155.725659 313.22507 
L 156.085853 280.984152 
L 156.80624 252.527315 
L 157.166434 272.702233 
L 157.526627 267.084802 
L 157.886821 290.64787 
L 158.247015 285.534012 
L 158.607208 303.138793 
L 158.967402 329.755681 
L 159.327595 323.479587 
L 159.687789 306.126937 
L 160.047983 294.79834 
L 160.408176 296.036176 
L 160.76837 300.797644 
L 161.128564 298.339318 
L 161.488757 306.307978 
L 162.209145 338.447107 
L 162.569338 333.70078 
L 162.929532 351.981627 
L 163.289726 351.898859 
L 163.649919 341.70644 
L 164.010113 321.558657 
L 164.370307 320.460232 
L 164.7305 280.888854 
L 165.090694 277.921447 
L 165.450888 262.672069 
L 165.811081 254.090973 
L 166.171275 263.264563 
L 166.531469 301.812188 
L 166.891662 316.534257 
L 167.251856 303.041018 
L 167.612049 323.819267 
L 167.972243 316.558535 
L 168.332437 320.062413 
L 168.69263 322.379828 
L 169.052824 310.903709 
L 169.413018 308.380858 
L 170.133405 311.910581 
L 170.493599 319.262812 
L 170.853792 338.721035 
L 171.213986 348.988796 
L 171.57418 345.185257 
L 171.934373 347.086256 
L 172.294567 348.329 
L 173.014954 326.52213 
L 173.375148 303.308129 
L 173.735342 270.220358 
L 174.095535 273.681808 
L 174.455729 286.115788 
L 174.815923 288.059812 
L 175.176116 301.590908 
L 175.53631 302.692962 
L 176.256697 337.274071 
L 176.616891 328.436283 
L 176.977084 333.230968 
L 177.337278 327.419373 
L 177.697472 325.52464 
L 178.057665 298.076491 
L 178.417859 307.785471 
L 178.778053 308.724497 
L 179.138246 341.346864 
L 179.49844 337.427311 
L 179.858634 358.708681 
L 180.218827 362.648464 
L 180.579021 369.36 
L 180.939215 349.176126 
L 181.299408 336.261813 
L 181.659602 308.018359 
L 182.019796 310.31968 
L 182.379989 284.990224 
L 182.740183 291.408812 
L 183.100377 275.131813 
L 183.46057 280.096657 
L 183.820764 305.363623 
L 184.180958 306.406297 
L 184.541151 327.700793 
L 184.901345 337.740522 
L 185.261538 328.988532 
L 185.981926 321.236083 
L 186.342119 315.033389 
L 186.702313 306.243251 
L 187.062507 309.986551 
L 187.4227 310.61204 
L 187.782894 331.732244 
L 188.143088 343.606703 
L 188.503281 359.61186 
L 188.863475 353.274019 
L 189.223669 359.024241 
L 189.583862 333.731253 
L 189.944056 334.733959 
L 190.664443 301.842172 
L 191.024637 284.53948 
L 191.384831 350.822211 
L 191.745024 265.684992 
L 192.465412 301.698814 
L 192.825605 288.816228 
L 193.185799 303.166084 
L 193.906186 314.107582 
L 194.26638 317.277581 
L 194.626573 324.99144 
L 194.986767 303.524143 
L 195.346961 299.673025 
L 195.707154 288.505735 
L 196.067348 299.580675 
L 196.427542 319.403881 
L 196.787735 332.626058 
L 197.147929 330.723604 
L 197.508123 334.835031 
L 197.868316 336.46458 
L 198.22851 317.540075 
L 198.588704 313.312978 
L 198.948897 314.166105 
L 199.309091 299.968647 
L 199.669285 262.097593 
L 200.029478 261.367226 
L 200.389672 266.641766 
L 200.749866 258.89932 
L 201.110059 273.562318 
L 202.19064 299.848102 
L 202.550834 310.959513 
L 203.271221 286.998714 
L 203.631415 306.226555 
L 204.351802 275.032212 
L 204.711996 282.163907 
L 206.15277 327.603129 
L 206.512964 333.503915 
L 206.873158 327.059361 
L 207.593545 276.957893 
L 207.953739 275.918474 
L 208.313932 247.529094 
L 208.674126 253.941839 
L 209.03432 246.439113 
L 209.394513 261.959926 
L 209.754707 253.814714 
L 210.475094 291.931387 
L 210.835288 287.623365 
L 211.195481 300.876093 
L 211.555675 284.459195 
L 211.915869 290.533888 
L 212.276062 271.255266 
L 212.636256 273.1281 
L 212.99645 268.902309 
L 213.356643 278.345043 
L 214.077031 316.800015 
L 214.437224 302.129939 
L 214.797418 315.98964 
L 215.157612 323.404731 
L 215.517805 305.925517 
L 215.877999 310.412087 
L 216.238193 283.456045 
L 216.95858 250.83008 
L 217.318774 245.462614 
L 217.678967 243.16315 
L 218.039161 254.549681 
L 218.399354 260.626796 
L 218.759548 276.515365 
L 219.119742 280.970479 
L 219.479935 225.304537 
L 219.840129 293.447653 
L 220.560516 284.464479 
L 220.92071 283.156786 
L 221.280904 265.882285 
L 221.641097 273.50967 
L 222.361485 305.918044 
L 222.721678 299.070789 
L 223.081872 324.957407 
L 223.442066 328.194325 
L 223.802259 325.088886 
L 224.162453 319.382227 
L 224.522647 305.888423 
L 224.88284 270.532838 
L 225.243034 275.893842 
L 225.603228 246.54708 
L 225.963421 254.419554 
L 226.323615 241.707501 
L 226.683808 246.623231 
L 227.764389 317.053028 
L 228.484777 288.84221 
L 228.84497 296.217545 
L 229.205164 280.436078 
L 229.565358 297.810633 
L 229.925551 284.249328 
L 230.285745 286.255252 
L 230.645939 294.626281 
L 231.006132 237.829532 
L 231.366326 315.085205 
L 231.72652 328.183619 
L 232.086713 336.933924 
L 232.446907 341.061215 
L 232.807101 324.164704 
L 233.527488 300.780741 
L 234.247875 270.788213 
L 234.608069 257.701659 
L 234.968263 263.72708 
L 235.328456 258.729599 
L 235.68865 275.701799 
L 236.048843 303.254677 
L 236.409037 292.796417 
L 236.769231 321.372621 
L 237.129424 301.472617 
L 237.489618 304.223553 
L 238.210005 291.784561 
L 238.570199 300.059168 
L 238.930393 294.616381 
L 239.290586 310.556593 
L 239.65078 310.311227 
L 240.371167 334.11701 
L 240.731361 332.734138 
L 241.091555 349.365517 
L 241.451748 329.730047 
L 241.811942 319.558954 
L 242.532329 274.130828 
L 242.892523 276.532051 
L 243.252717 261.260033 
L 243.61291 254.740648 
L 243.973104 275.452028 
L 244.333297 278.131636 
L 244.693491 297.579401 
L 245.053685 302.64045 
L 245.413878 297.966778 
L 245.774072 314.666938 
L 246.134266 306.628675 
L 246.494459 309.321044 
L 246.854653 287.265195 
L 247.214847 293.822979 
L 247.57504 291.51369 
L 247.935234 297.04092 
L 248.655621 312.197961 
L 249.015815 325.753434 
L 249.376009 328.400375 
L 249.736202 337.758821 
L 250.096396 317.362125 
L 250.45659 307.316351 
L 250.816783 306.484517 
L 251.537171 258.474173 
L 251.897364 247.299283 
L 252.257558 260.685633 
L 252.617751 260.654403 
L 252.977945 269.090855 
L 253.338139 280.483582 
L 253.698332 286.93712 
L 254.058526 303.216823 
L 254.41872 310.981934 
L 254.778913 297.062343 
L 255.139107 294.512456 
L 255.499301 285.218561 
L 255.859494 288.145953 
L 256.219688 289.424744 
L 256.579882 284.301328 
L 256.940075 299.455373 
L 257.300269 301.190999 
L 257.660463 304.939751 
L 258.020656 315.510355 
L 258.38085 329.586359 
L 258.741044 308.559618 
L 259.101237 312.488707 
L 259.821625 261.628806 
L 260.181818 251.778442 
L 260.542012 233.401218 
L 260.902205 233.106581 
L 261.262399 230.414589 
L 261.622593 256.362605 
L 261.982786 259.473417 
L 262.703174 284.033145 
L 263.063367 272.804705 
L 263.423561 281.403625 
L 263.783755 275.223178 
L 264.504142 260.294278 
L 264.864336 262.452013 
L 265.224529 282.630751 
L 265.584723 287.926922 
L 265.944917 289.203334 
L 266.30511 305.43779 
L 266.665304 310.344142 
L 267.025498 295.977533 
L 267.385691 316.115678 
L 268.106079 272.256406 
L 268.826466 231.72996 
L 269.186659 218.980034 
L 269.546853 229.88151 
L 269.907047 245.690262 
L 270.26724 241.63389 
L 270.987628 272.127582 
L 271.347821 211.379393 
L 271.708015 256.717694 
L 272.068209 277.80501 
L 272.428402 260.953264 
L 272.788596 252.095275 
L 273.14879 239.708518 
L 273.508983 253.961112 
L 273.869177 258.611504 
L 274.229371 266.182459 
L 274.949758 304.449867 
L 275.309952 307.270235 
L 275.670145 304.563576 
L 276.030339 308.464151 
L 276.390533 269.904399 
L 277.11092 249.772078 
L 277.471114 220.618586 
L 277.831307 222.164204 
L 278.191501 219.336455 
L 278.551694 238.498356 
L 278.911888 232.561139 
L 279.272082 253.468077 
L 279.632275 257.739312 
L 280.352663 273.382725 
L 280.712856 262.633584 
L 281.07305 265.252934 
L 281.433244 250.692695 
L 281.793437 255.591705 
L 282.153631 264.271805 
L 282.513825 262.046744 
L 282.874018 276.356939 
L 283.234212 278.512892 
L 283.954599 307.585565 
L 284.314793 303.804192 
L 284.674987 302.264819 
L 285.395374 263.145751 
L 285.755568 252.162926 
L 286.115761 237.417128 
L 286.475955 241.854298 
L 286.836148 224.576524 
L 287.196342 228.617172 
L 287.556536 234.556799 
L 288.276923 279.483996 
L 288.637117 269.486082 
L 288.99731 287.289564 
L 289.357504 287.979491 
L 289.717698 264.441426 
L 290.077891 264.13774 
L 290.438085 279.899534 
L 290.798279 253.617419 
L 291.158472 262.934679 
L 291.518666 276.634524 
L 291.87886 284.113275 
L 292.239053 306.04846 
L 292.959441 317.122812 
L 293.319634 306.667999 
L 293.679828 300.732477 
L 294.040022 266.230497 
L 294.400215 273.514139 
L 294.760409 238.551524 
L 295.120602 228.133212 
L 295.480796 221.487476 
L 295.84099 255.416333 
L 296.201183 259.340444 
L 296.561377 277.744199 
L 296.921571 273.760407 
L 297.281764 284.826687 
L 298.002152 295.123015 
L 298.362345 278.794209 
L 298.722539 286.712736 
L 299.082733 278.362131 
L 299.442926 273.617249 
L 299.80312 273.226037 
L 300.163314 293.605434 
L 300.523507 287.429882 
L 300.883701 319.192243 
L 301.243895 321.398096 
L 301.604088 329.102574 
L 301.964282 318.838429 
L 302.684669 290.463207 
L 303.044863 254.99779 
L 303.405056 241.40929 
L 303.76525 243.528737 
L 304.125444 240.459853 
L 305.206025 270.787059 
L 305.566218 276.190479 
L 305.926412 293.692212 
L 306.286606 292.307017 
L 306.646799 295.243998 
L 307.006993 273.288851 
L 307.367187 269.695393 
L 307.72738 264.461924 
L 308.087574 263.51724 
L 308.447768 278.25868 
L 308.807961 287.492563 
L 309.168155 290.423529 
L 309.528349 308.144081 
L 309.888542 296.637666 
L 310.248736 308.307208 
L 310.60893 304.751091 
L 310.969123 284.509571 
L 311.329317 276.830449 
L 312.049704 250.600923 
L 312.409898 226.186311 
L 312.770091 228.31302 
L 313.130285 243.385755 
L 313.490479 244.329418 
L 313.850672 270.768138 
L 314.210866 274.769346 
L 314.57106 272.24478 
L 314.931253 274.292636 
L 315.291447 288.667259 
L 315.651641 262.276615 
L 316.011834 201.363828 
L 316.372028 259.91846 
L 316.732222 251.280165 
L 317.452609 272.743607 
L 317.812803 280.765389 
L 318.53319 312.624172 
L 318.893384 300.999803 
L 319.253577 296.900491 
L 319.613771 290.355721 
L 319.973964 253.167284 
L 320.334158 243.961054 
L 320.694352 228.385248 
L 321.054545 224.135552 
L 321.414739 215.56228 
L 321.774933 224.170877 
L 322.135126 240.989202 
L 322.49532 236.852564 
L 322.855514 252.421377 
L 323.215707 258.100213 
L 323.575901 268.328677 
L 323.936095 259.922511 
L 324.296288 256.450262 
L 324.656482 241.833648 
L 325.016676 240.502633 
L 325.376869 250.642108 
L 325.737063 254.897306 
L 326.097257 268.09959 
L 326.45745 276.596857 
L 326.817644 270.181183 
L 327.177838 297.713914 
L 327.538031 292.814223 
L 327.898225 273.444516 
L 328.258419 273.620951 
L 329.338999 208.596929 
L 329.699193 192.868927 
L 330.059387 200.614158 
L 330.41958 218.199648 
L 330.779774 217.345684 
L 331.500161 251.714238 
L 331.860355 256.26475 
L 332.220549 266.477333 
L 332.580742 255.213504 
L 332.940936 247.972167 
L 333.30113 235.698065 
L 334.021517 223.752838 
L 334.741904 256.886996 
L 335.102098 264.344647 
L 335.462292 276.738239 
L 335.822485 279.181983 
L 336.182679 276.358164 
L 336.542873 278.762255 
L 337.26326 241.738782 
L 338.343841 197.549124 
L 338.704034 199.778708 
L 339.064228 209.442892 
L 339.424422 223.112919 
L 339.784615 228.249357 
L 340.144809 236.205267 
L 340.505003 250.331509 
L 340.865196 314.081735 
L 341.22539 248.975052 
L 341.585584 250.053197 
L 341.945777 240.096681 
L 342.305971 225.021588 
L 342.666165 219.262483 
L 343.026358 247.339911 
L 343.386552 253.257329 
L 344.467133 291.258933 
L 344.827327 283.75985 
L 345.18752 287.25264 
L 345.547714 271.194459 
L 345.907907 247.703814 
L 346.268101 235.929434 
L 346.628295 213.510952 
L 346.988488 204.145554 
L 347.348682 213.074602 
L 347.708876 210.676064 
L 348.069069 223.306215 
L 348.429263 242.267321 
L 348.789457 242.189446 
L 349.14965 257.500622 
L 349.509844 255.161743 
L 349.870038 257.579283 
L 350.230231 252.897891 
L 350.590425 241.042386 
L 350.950619 244.212137 
L 351.310812 256.951773 
L 351.671006 238.079789 
L 352.751587 300.58219 
L 353.111781 300.94689 
L 353.471974 290.814439 
L 353.832168 285.372541 
L 354.192361 275.969377 
L 354.912749 231.822616 
L 355.633136 216.076409 
L 355.99333 214.876689 
L 356.353523 226.348954 
L 356.713717 233.056784 
L 357.073911 255.433404 
L 357.434104 261.375459 
L 357.794298 282.1319 
L 358.154492 264.583305 
L 358.514685 272.461961 
L 358.874879 257.405607 
L 359.235073 251.750869 
L 359.595266 251.878646 
L 359.95546 249.214345 
L 360.315654 249.644775 
L 361.036041 290.426698 
L 361.396235 285.615498 
L 361.756428 296.858928 
L 362.116622 293.238113 
L 362.476815 355.866815 
L 362.837009 276.150752 
L 363.91759 226.164597 
L 364.277784 226.264717 
L 364.637977 217.777792 
L 364.998171 228.7009 
L 365.358365 243.501255 
L 365.718558 244.634071 
L 366.078752 249.902915 
L 366.438946 268.250196 
L 366.799139 270.91808 
L 367.159333 269.485829 
L 367.519527 245.243996 
L 367.87972 250.097209 
L 368.239914 248.289544 
L 368.600108 235.091306 
L 368.960301 259.360253 
L 369.320495 250.654201 
L 369.680689 278.991025 
L 370.401076 305.875017 
L 370.761269 299.775032 
L 371.121463 290.332096 
L 371.481657 260.799968 
L 371.84185 248.040811 
L 372.562238 206.448886 
L 372.922431 217.841738 
L 373.282625 203.753599 
L 373.642819 209.534328 
L 374.003012 217.22971 
L 374.363206 247.539417 
L 374.7234 243.703973 
L 375.083593 266.469875 
L 375.443787 264.690286 
L 375.803981 255.990684 
L 376.164174 243.983521 
L 376.524368 254.668604 
L 376.884562 227.04448 
L 377.965143 265.024061 
L 378.325336 271.480893 
L 379.045724 293.459814 
L 379.405917 288.089553 
L 379.766111 264.711139 
L 380.126304 259.238008 
L 380.486498 235.829633 
L 380.846692 226.544031 
L 381.206885 212.421702 
L 381.567079 193.516254 
L 381.927273 198.503288 
L 382.287466 212.081199 
L 382.64766 208.849014 
L 383.007854 208.848733 
L 383.368047 228.702912 
L 383.728241 237.303451 
L 384.088435 241.117806 
L 385.169016 223.423058 
L 385.529209 223.992275 
L 385.889403 217.517825 
L 386.249597 219.508415 
L 386.60979 238.18304 
L 386.969984 246.578764 
L 387.330178 270.259259 
L 387.690371 279.97667 
L 388.050565 261.796216 
L 388.410758 256.072514 
L 389.851533 191.141268 
L 390.211727 186.97018 
L 390.57192 197.901908 
L 390.932114 204.755929 
L 391.292308 199.194299 
L 391.652501 229.585254 
L 392.012695 228.939234 
L 392.372889 249.378999 
L 392.733082 239.877482 
L 393.093276 225.98284 
L 393.45347 219.330884 
L 393.813663 218.446641 
L 394.173857 210.362664 
L 394.534051 217.867204 
L 394.894244 219.780111 
L 395.974825 261.344317 
L 396.335019 258.522361 
L 396.695212 257.968962 
L 397.055406 272.747865 
L 397.4156 241.527294 
L 397.775793 224.501523 
L 398.135987 197.212186 
L 398.496181 194.466811 
L 398.856374 185.851851 
L 399.576762 189.710347 
L 399.936955 193.199056 
L 400.297149 205.920537 
L 400.657343 213.717775 
L 401.017536 228.847355 
L 401.37773 220.763369 
L 401.737924 231.887715 
L 402.098117 217.73306 
L 402.458311 211.395641 
L 402.818505 199.883676 
L 403.178698 204.563227 
L 403.538892 215.646621 
L 403.899086 242.619263 
L 404.259279 252.183603 
L 404.619473 257.937218 
L 404.979666 267.317366 
L 405.33986 273.654603 
L 405.700054 264.633267 
L 406.060247 249.414175 
L 406.780635 208.066023 
L 407.140828 199.896079 
L 407.501022 195.482019 
L 407.861216 185.935189 
L 408.221409 190.580532 
L 408.581603 203.521436 
L 408.941797 220.620071 
L 409.662184 233.426713 
L 410.022378 242.052893 
L 410.382571 239.161488 
L 410.742765 230.743788 
L 411.102959 215.562761 
L 411.463152 223.159771 
L 411.823346 215.025089 
L 412.18354 220.712646 
L 412.543733 245.338883 
L 412.903927 250.821598 
L 413.26412 271.60195 
L 413.624314 275.81685 
L 413.984508 265.524815 
L 414.344701 275.114874 
L 414.704895 251.949821 
L 415.065089 239.561592 
L 415.785476 194.618743 
L 416.14567 210.77078 
L 416.505863 187.904768 
L 416.866057 197.838811 
L 417.226251 213.316571 
L 417.586444 219.142267 
L 417.946638 243.41731 
L 418.306832 242.728302 
L 418.667025 248.896083 
L 419.027219 245.246502 
L 419.387413 238.726202 
L 419.747606 212.426432 
L 420.1078 218.308238 
L 420.467994 239.135129 
L 420.828187 224.622929 
L 421.188381 238.287908 
L 421.548575 260.505347 
L 421.908768 274.820155 
L 422.268962 277.840215 
L 422.629155 278.914308 
L 422.989349 261.728647 
L 423.349543 253.345943 
L 424.06993 213.166422 
L 424.790317 208.016681 
L 425.150511 191.48709 
L 425.510705 203.03921 
L 425.870898 210.122811 
L 426.231092 231.534055 
L 426.591286 235.04483 
L 426.951479 252.909687 
L 427.311673 237.472501 
L 427.671867 246.229248 
L 428.03206 235.996133 
L 428.392254 216.341449 
L 428.752448 231.931322 
L 429.112641 219.191024 
L 429.472835 251.3035 
L 429.833029 248.371426 
L 430.193222 256.486174 
L 430.553416 272.777612 
L 430.913609 272.366703 
L 431.273803 260.65036 
L 431.633997 269.754464 
L 431.99419 238.752919 
L 432.354384 235.422303 
L 432.714578 202.695425 
L 433.074771 206.253075 
L 433.434965 177.778131 
L 433.795159 180.609969 
L 434.155352 189.759942 
L 434.515546 220.575869 
L 434.87574 215.093444 
L 435.235933 226.510654 
L 435.596127 230.764999 
L 435.956321 239.806323 
L 436.316514 231.433899 
L 436.676708 241.784973 
L 437.036902 218.292101 
L 437.397095 212.453892 
L 437.757289 224.371286 
L 438.117483 205.761797 
L 438.477676 234.430036 
L 438.83787 230.009006 
L 439.198063 251.735397 
L 439.558257 242.544836 
L 439.918451 251.131146 
L 440.278644 255.463114 
L 440.638838 243.10613 
L 441.359225 188.723625 
L 441.719419 195.161378 
L 442.079613 176.410062 
L 442.439806 179.069055 
L 442.8 175.381852 
L 443.880581 216.966451 
L 444.240775 201.735674 
L 444.600968 210.525596 
L 444.961162 231.990944 
L 445.321356 213.044724 
L 445.681549 213.165578 
L 446.041743 198.521058 
L 446.401937 206.805359 
L 446.76213 146.465795 
L 447.122324 224.932237 
L 447.482517 217.802291 
L 447.842711 240.633793 
L 448.202905 252.550761 
L 448.563098 235.82801 
L 448.923292 245.181324 
L 449.283486 216.98115 
L 449.643679 208.868963 
L 450.003873 186.317408 
L 450.364067 177.689383 
L 450.72426 159.678802 
L 451.084454 159.851576 
L 451.444648 165.670361 
L 451.804841 184.863577 
L 452.165035 182.630658 
L 452.525229 201.147118 
L 452.885422 207.71807 
L 453.245616 211.766975 
L 453.60581 209.19405 
L 453.966003 205.009905 
L 454.326197 193.088548 
L 454.686391 192.909362 
L 455.046584 190.27831 
L 455.406778 182.904041 
L 455.766971 199.535282 
L 456.127165 221.424413 
L 456.847552 244.030973 
L 457.207746 250.488759 
L 457.56794 229.687992 
L 458.288327 205.890394 
L 458.648521 184.706858 
L 459.368908 162.664151 
L 459.729102 174.911731 
L 460.089295 159.891156 
L 460.449489 180.87304 
L 460.809683 187.811484 
L 461.169876 185.03453 
L 461.53007 221.417223 
L 461.890264 216.296606 
L 462.250457 203.784154 
L 462.610651 203.308888 
L 462.970845 199.522976 
L 463.331038 188.071664 
L 463.691232 193.036544 
L 464.051425 194.230629 
L 464.411619 217.664037 
L 464.771813 218.356482 
L 465.132006 240.526143 
L 465.4922 246.616784 
L 465.852394 238.243514 
L 466.212587 237.90552 
L 466.572781 229.885416 
L 466.932975 202.928979 
L 467.653362 182.097984 
L 468.013556 183.255905 
L 468.373749 170.589204 
L 468.733943 169.058917 
L 469.094137 193.440515 
L 469.45433 196.024933 
L 469.814524 219.341148 
L 470.174718 213.448145 
L 470.534911 213.246621 
L 470.895105 207.52897 
L 471.255299 220.754806 
L 471.615492 203.578832 
L 471.975686 199.220392 
L 472.33588 214.007793 
L 472.696073 214.975454 
L 473.056267 216.484071 
L 473.41646 229.918202 
L 473.776654 235.406061 
L 474.497041 263.000177 
L 474.857235 245.46631 
L 475.217429 239.03154 
L 475.577622 216.632294 
L 475.937816 211.659121 
L 476.29801 176.527899 
L 476.658203 175.795129 
L 477.018397 168.319963 
L 477.738784 197.980644 
L 478.098978 205.5694 
L 478.459172 217.0314 
L 478.819365 221.372143 
L 479.179559 228.355365 
L 479.899946 206.271277 
L 480.26014 201.654923 
L 480.620334 202.125239 
L 481.340721 212.575263 
L 482.061108 251.039321 
L 482.421302 255.274303 
L 482.781495 265.857984 
L 483.141689 249.301152 
L 483.501883 251.751106 
L 484.22227 223.660435 
L 484.942657 181.589924 
L 485.302851 190.855918 
L 485.663045 185.76143 
L 486.023238 185.471931 
L 486.383432 204.725459 
L 486.743626 217.26761 
L 487.103819 235.239297 
L 487.464013 220.966865 
L 487.824207 239.224346 
L 488.1844 227.377374 
L 488.544594 206.81024 
L 488.904788 205.072279 
L 489.264981 195.473979 
L 489.625175 203.594216 
L 489.985368 218.351403 
L 490.345562 225.997766 
L 490.705756 244.548447 
L 491.065949 247.579326 
L 491.786337 260.940483 
L 492.14653 247.972219 
L 492.506724 230.462727 
L 492.866918 230.148914 
L 493.227111 188.643005 
L 493.587305 171.632619 
L 493.947499 173.180855 
L 494.307692 162.559033 
L 494.667886 186.934912 
L 495.02808 188.587962 
L 495.388273 200.665165 
L 495.748467 220.509338 
L 496.108661 211.409898 
L 496.468854 221.697869 
L 497.189242 205.361631 
L 497.549435 189.113882 
L 497.909629 199.141347 
L 498.269822 187.064683 
L 498.630016 207.87139 
L 499.350403 223.458746 
L 499.710597 247.566858 
L 500.070791 235.014437 
L 500.430984 237.031263 
L 500.791178 235.639247 
L 501.151372 286.931983 
L 501.511565 204.25823 
L 501.871759 175.01481 
L 502.231953 177.175219 
L 502.592146 161.02419 
L 502.95234 155.217692 
L 503.312534 151.294101 
L 503.672727 187.017335 
L 504.032921 185.545829 
L 504.393115 197.724916 
L 504.753308 222.118938 
L 505.113502 187.291294 
L 505.473696 201.847303 
L 505.833889 195.682106 
L 506.194083 174.914945 
L 506.554276 179.453228 
L 506.91447 195.681113 
L 507.274664 201.42802 
L 507.634857 190.906437 
L 507.995051 231.246046 
L 508.355245 223.688935 
L 508.715438 228.574926 
L 509.075632 223.459303 
L 509.435826 216.444623 
L 509.796019 202.120633 
L 510.156213 177.782057 
L 510.516407 175.284813 
L 510.8766 148.220434 
L 511.236794 144.660709 
L 511.596988 144.259469 
L 512.317375 159.822452 
L 513.037762 188.726309 
L 513.397956 200.604708 
L 513.75815 190.22046 
L 514.118343 195.598466 
L 514.478537 192.656597 
L 514.838731 183.666002 
L 515.198924 171.664544 
L 515.559118 173.903014 
L 516.999892 219.383445 
L 517.360086 220.387004 
L 517.72028 215.88121 
L 518.080473 213.893964 
L 518.440667 196.930314 
L 518.800861 187.700426 
L 519.521248 135.883053 
L 519.881442 149.89088 
L 520.241635 142.579557 
L 520.601829 161.096895 
L 520.962023 170.58469 
L 521.322216 184.043196 
L 521.68241 192.444504 
L 522.042604 194.45239 
L 522.402797 186.579275 
L 522.762991 189.9124 
L 523.483378 167.50668 
L 523.843572 177.90449 
L 524.203765 168.843628 
L 524.563959 177.637077 
L 524.924153 180.488059 
L 525.284346 200.812823 
L 526.004734 220.082402 
L 526.364927 235.048469 
L 527.085315 195.317059 
L 527.445508 180.840658 
L 527.805702 172.701795 
L 528.165896 147.014556 
L 528.526089 134.400408 
L 528.886283 149.863739 
L 529.246477 148.582308 
L 529.60667 176.923315 
L 529.966864 170.402713 
L 530.327058 192.800039 
L 530.687251 194.246357 
L 531.047445 203.694252 
L 531.407639 195.48942 
L 531.767832 183.402606 
L 532.128026 180.789132 
L 532.488219 175.275203 
L 532.848413 182.500634 
L 533.208607 181.954281 
L 534.289188 232.161626 
L 534.649381 243.892257 
L 535.009575 238.480187 
L 535.369769 217.655914 
L 536.090156 199.918653 
L 536.45035 166.569816 
L 536.810543 168.470994 
L 537.170737 151.373501 
L 537.530931 160.195697 
L 537.891124 174.073799 
L 538.251318 173.702807 
L 538.611512 193.326463 
L 538.971705 193.979559 
L 539.692093 206.551604 
L 540.052286 201.809587 
L 540.41248 191.412475 
L 540.772673 197.734203 
L 541.132867 179.968699 
L 541.493061 186.590861 
L 541.853254 180.042889 
L 542.573642 209.387724 
L 543.294029 243.1903 
L 543.654223 227.931157 
L 544.37461 219.838975 
L 545.094997 178.814786 
L 545.455191 162.500056 
L 545.815385 159.872278 
L 546.175578 159.217288 
L 546.535772 173.046308 
L 546.895966 171.807281 
L 547.256159 189.717414 
L 547.616353 198.994039 
L 547.976547 196.562952 
L 548.33674 211.673884 
L 548.696934 203.300539 
L 549.057127 183.245511 
L 549.417321 197.030066 
L 549.777515 177.782697 
L 550.137708 181.907105 
L 550.497902 192.881428 
L 550.858096 212.945119 
L 551.218289 217.842535 
L 551.578483 216.734515 
L 552.29887 238.733223 
L 553.019258 205.432202 
L 553.379451 196.049714 
L 554.099839 148.684037 
L 554.460032 143.371382 
L 554.820226 145.766467 
L 555.18042 164.647064 
L 555.540613 172.308321 
L 555.900807 191.180701 
L 556.261001 182.999439 
L 556.621194 187.237033 
L 556.981388 194.371776 
L 557.341581 192.980352 
L 557.701775 195.889703 
L 558.061969 180.820062 
L 558.422162 173.707159 
L 558.782356 175.380994 
L 559.14255 164.2383 
L 559.502743 191.292893 
L 559.862937 206.99497 
L 560.223131 206.808624 
L 560.583324 235.740496 
L 560.943518 228.866207 
L 561.663905 188.527867 
L 562.024099 173.509147 
L 562.384293 178.509217 
L 563.10468 130.10102 
L 563.825067 136.799743 
L 564.545455 160.669756 
L 564.905648 180.854744 
L 565.265842 178.422665 
L 565.626036 183.94146 
L 566.346423 170.202941 
L 566.706616 158.974376 
L 567.06681 167.887465 
L 567.427004 154.805317 
L 567.787197 169.243888 
L 568.147391 177.716216 
L 568.507585 179.480257 
L 569.227972 218.640223 
L 569.588166 211.636357 
L 569.948359 198.819416 
L 570.668747 162.011007 
L 571.02894 154.719197 
L 571.389134 125.78967 
L 571.749328 117.152108 
L 572.109521 121.435913 
L 572.469715 146.109081 
L 572.829909 141.513498 
L 573.190102 152.044955 
L 573.550296 171.106964 
L 573.91049 163.866257 
L 574.270683 165.997703 
L 574.630877 169.293847 
L 574.99107 157.418097 
L 575.351264 153.25436 
L 575.711458 154.775374 
L 576.071651 154.98222 
L 576.431845 150.75919 
L 577.152232 189.404493 
L 577.512426 188.138913 
L 577.87262 210.47071 
L 578.593007 184.789816 
L 578.953201 182.458397 
L 579.313394 155.026749 
L 579.673588 149.258983 
L 580.033782 118.641879 
L 580.393975 119.361238 
L 580.754169 119.076689 
L 581.114363 134.968694 
L 581.474556 134.444639 
L 582.555137 167.061647 
L 582.915331 167.643721 
L 583.275524 175.012734 
L 583.635718 163.423832 
L 583.995912 161.896646 
L 584.356105 150.102307 
L 584.716299 164.436476 
L 585.076493 163.845742 
L 585.436686 175.963007 
L 585.79688 170.917006 
L 586.517267 212.274273 
L 587.237655 188.438255 
L 587.597848 188.648655 
L 587.958042 160.709561 
L 588.318236 157.264649 
L 588.678429 129.990906 
L 589.038623 128.62689 
L 589.398817 128.124747 
L 589.75901 146.460312 
L 590.119204 150.387015 
L 590.479398 169.347586 
L 590.839591 156.555529 
L 591.199785 183.859222 
L 591.559978 171.825685 
L 592.280366 166.102006 
L 592.640559 156.561467 
L 593.000753 153.262641 
L 593.360947 153.252482 
L 593.72114 161.020777 
L 594.081334 194.116207 
L 594.441528 192.665592 
L 594.801721 202.165897 
L 595.161915 215.783803 
L 595.522109 216.956306 
L 596.242496 196.950415 
L 596.60269 179.292847 
L 597.323077 134.92963 
L 597.683271 140.143524 
L 598.043464 135.83726 
L 598.403658 158.445191 
L 598.763852 139.28725 
L 599.484239 180.089204 
L 599.844432 191.739047 
L 600.204626 189.824876 
L 600.56482 178.668705 
L 600.925013 182.219763 
L 601.285207 161.619099 
L 601.645401 173.500922 
L 602.005594 168.388554 
L 602.725982 184.684787 
L 603.806563 224.190354 
L 604.166756 207.156992 
L 604.52695 201.911183 
L 604.887144 190.183087 
L 605.247337 185.107657 
L 605.607531 156.147429 
L 606.327918 135.179941 
L 606.688112 136.261482 
L 607.048306 148.970748 
L 607.408499 153.756959 
L 607.768693 173.226304 
L 608.128886 171.749698 
L 608.48908 187.641979 
L 608.849274 177.592261 
L 609.209467 186.90775 
L 609.569661 163.332299 
L 609.929855 172.896292 
L 610.290048 173.929439 
L 610.650242 160.754356 
L 611.010436 174.318678 
L 611.370629 168.970236 
L 611.730823 180.004818 
L 612.45121 210.107723 
L 612.811404 210.930874 
L 613.171598 205.694432 
L 613.531791 194.772799 
L 613.891985 172.600591 
L 614.252179 140.142353 
L 614.612372 133.523421 
L 614.972566 131.93561 
L 615.33276 122.902014 
L 615.692953 135.705393 
L 616.053147 137.234376 
L 616.413341 154.067248 
L 616.773534 164.578344 
L 617.133728 184.574357 
L 617.493921 179.197075 
L 617.854115 181.040975 
L 618.214309 156.773245 
L 618.574502 163.974444 
L 618.934696 160.754696 
L 619.29489 167.763919 
L 619.655083 158.866448 
L 620.015277 186.451425 
L 620.375471 198.022571 
L 620.735664 190.22746 
L 621.095858 185.738791 
L 621.456052 195.513148 
L 621.816245 193.008766 
L 622.176439 180.819514 
L 622.536633 153.464876 
L 622.896826 140.833918 
L 623.25702 122.635876 
L 623.617214 114.247766 
L 623.977407 114.816366 
L 624.697795 134.10726 
L 625.057988 151.566429 
L 625.778375 167.295669 
L 626.138569 153.950682 
L 626.498763 168.948767 
L 626.858956 155.671779 
L 627.21915 150.635386 
L 627.579344 150.943361 
L 627.939537 147.131848 
L 628.299731 153.224761 
L 628.659925 151.905901 
L 629.380312 183.844935 
L 629.740506 179.412317 
L 630.100699 168.431584 
L 630.460893 175.992545 
L 631.18128 145.487948 
L 631.901668 110.342182 
L 632.261861 97.13517 
L 632.622055 111.343098 
L 632.982249 103.046211 
L 633.342442 114.071986 
L 633.702636 120.809988 
L 634.062829 135.040726 
L 634.423023 139.20729 
L 634.783217 138.096266 
L 635.14341 144.006292 
L 635.503604 139.81737 
L 635.863798 126.146497 
L 636.223991 72.396361 
L 636.584185 128.584121 
L 636.944379 143.567534 
L 637.304572 146.361574 
L 637.664766 159.721962 
L 638.02496 166.957949 
L 638.385153 171.569047 
L 638.745347 180.95997 
L 639.105541 168.372296 
L 639.465734 148.075588 
L 639.825928 137.516043 
L 640.186122 114.48851 
L 640.546315 111.631218 
L 640.906509 95.595928 
L 641.266703 94.64054 
L 641.98709 113.543696 
L 642.707477 150.400448 
L 643.067671 132.359898 
L 643.427864 152.059265 
L 643.788058 145.140455 
L 644.148252 150.220489 
L 644.508445 128.808649 
L 644.868639 124.166094 
L 645.228833 136.235258 
L 645.589026 129.665556 
L 645.94922 142.860441 
L 646.309414 177.608707 
L 646.669607 178.981034 
L 647.029801 181.853578 
L 647.389995 177.266386 
L 647.750188 180.528203 
L 648.470576 139.882658 
L 648.830769 128.0177 
L 649.551157 96.011782 
L 650.271544 106.869526 
L 650.991931 144.316889 
L 651.352125 143.758759 
L 651.712318 140.085322 
L 652.072512 162.527217 
L 652.432706 172.171811 
L 653.153093 135.895926 
L 653.513287 213.529973 
L 653.87348 148.520769 
L 654.233674 144.689022 
L 654.593868 151.328458 
L 654.954061 172.738521 
L 655.314255 202.950842 
L 655.674449 200.575968 
L 656.75503 179.770827 
L 657.115223 155.383087 
L 657.475417 120.707801 
L 657.835611 116.91962 
L 658.195804 105.136597 
L 658.555998 114.439349 
L 658.916192 118.684302 
L 659.276385 140.563283 
L 659.636579 138.291248 
L 660.356966 152.442781 
L 660.71716 171.769028 
L 661.077353 157.347225 
L 661.437547 153.235265 
L 661.797741 147.261107 
L 662.157934 149.179739 
L 662.518128 158.900958 
L 662.878322 154.03859 
L 663.238515 161.58441 
L 663.598709 176.533108 
L 663.958903 175.909342 
L 664.319096 200.453346 
L 664.67929 196.80278 
L 665.039484 194.47093 
L 665.399677 186.065321 
L 665.759871 147.597616 
L 666.120065 140.546676 
L 666.480258 121.582612 
L 666.840452 133.535455 
L 667.200646 110.145306 
L 667.560839 117.62944 
L 667.921033 142.722747 
L 668.281226 129.383406 
L 668.64142 149.346128 
L 669.361807 166.677437 
L 669.722001 156.163834 
L 670.082195 149.381944 
L 670.442388 165.008481 
L 670.802582 148.478378 
L 671.162776 138.94581 
L 671.522969 147.560604 
L 671.883163 166.252413 
L 672.60355 182.806317 
L 672.963744 196.726035 
L 673.323938 192.49853 
L 673.684131 185.740202 
L 674.044325 163.591377 
L 674.404519 156.05036 
L 674.764712 131.308132 
L 675.124906 121.729679 
L 675.4851 120.195577 
L 675.845293 101.426755 
L 676.205487 121.093312 
L 676.56568 122.325423 
L 676.925874 126.337294 
L 677.646261 157.715492 
L 678.006455 163.182247 
L 678.366649 161.280974 
L 678.726842 140.164221 
L 679.087036 140.994229 
L 679.44723 130.300854 
L 679.807423 131.122372 
L 680.167617 134.157103 
L 680.527811 150.935143 
L 680.888004 155.21916 
L 681.248198 164.243587 
L 681.608392 183.15353 
L 681.968585 181.783222 
L 682.328779 173.312747 
L 682.688973 156.491293 
L 683.049166 132.628576 
L 683.40936 123.406026 
L 683.769554 92.895587 
L 684.129747 86.390127 
L 684.489941 107.81867 
L 684.850134 94.966067 
L 685.210328 110.360646 
L 685.570522 118.931378 
L 685.930715 139.033446 
L 686.290909 143.268112 
L 686.651103 143.854087 
L 687.37149 122.049944 
L 687.731684 122.674774 
L 688.091877 126.436997 
L 688.452071 108.396093 
L 688.812265 129.790287 
L 689.172458 126.181513 
L 689.532652 150.76475 
L 690.253039 172.376572 
L 690.613233 167.571008 
L 690.973427 169.800029 
L 691.33362 144.621677 
L 691.693814 131.721721 
L 692.054008 104.589246 
L 692.414201 102.515947 
L 692.774395 78.408942 
L 693.134588 82.351867 
L 693.494782 81.601195 
L 693.854976 102.526352 
L 694.215169 104.909788 
L 694.935557 129.339926 
L 695.29575 129.440318 
L 695.655944 136.261799 
L 696.016138 122.834218 
L 696.376331 98.988607 
L 696.736525 107.266094 
L 697.096719 112.476848 
L 697.817106 133.008644 
L 698.1773 151.429577 
L 698.537493 154.364735 
L 698.897687 176.049613 
L 699.257881 153.936483 
L 699.618074 148.112597 
L 699.978268 129.70967 
L 700.338462 123.071187 
L 700.698655 89.333957 
L 701.058849 92.230427 
L 701.419042 66.96 
L 701.779236 73.29674 
L 702.13943 82.085588 
L 702.499623 118.689211 
L 702.859817 120.294481 
L 703.220011 115.878421 
L 703.580204 130.72008 
L 703.940398 139.371042 
L 704.300592 110.494744 
L 704.660785 116.935868 
L 705.020979 115.83517 
L 705.381173 102.010708 
L 705.741366 97.606532 
L 706.10156 108.293292 
L 706.461754 148.477109 
L 706.821947 150.724271 
L 707.182141 147.117189 
L 707.542335 158.622325 
L 707.902528 162.1337 
L 708.262722 157.675441 
L 708.622916 135.570455 
L 708.983109 122.986314 
L 709.343303 125.202847 
L 709.703497 88.654899 
L 710.06369 71.128018 
L 710.423884 88.815222 
L 710.784077 82.800773 
L 711.144271 96.467592 
L 711.504465 120.633284 
L 711.864658 128.477561 
L 712.224852 131.764558 
L 712.585046 144.477151 
L 713.305433 133.546625 
L 713.665627 119.216839 
L 714.02582 118.927248 
L 714.386014 114.229941 
L 714.746208 125.05546 
L 715.466595 150.964467 
L 715.826789 175.765232 
L 716.186982 178.778834 
L 716.547176 173.289883 
L 716.90737 165.623119 
L 717.267563 138.408522 
L 717.627757 135.194298 
L 717.987951 100.586192 
L 718.348144 93.189287 
L 718.708338 89.683735 
L 719.068531 95.209281 
L 719.428725 85.680494 
L 719.788919 119.636879 
L 720.149112 117.640911 
L 720.8695 141.099854 
L 721.229693 139.172414 
L 721.589887 149.407684 
L 721.950081 127.53636 
L 722.310274 134.25983 
L 722.670468 138.193961 
L 723.030662 121.793161 
L 724.471436 162.022169 
L 724.83163 178.084267 
L 725.552017 163.40571 
L 725.912211 165.0623 
L 726.272405 125.992664 
L 726.632598 123.624733 
L 726.992792 104.541344 
L 727.352985 93.309748 
L 727.713179 86.889767 
L 728.79376 120.749625 
L 729.153954 136.512252 
L 729.514147 133.083413 
L 729.874341 145.186968 
L 730.234535 136.071808 
L 730.594728 142.670639 
L 730.954922 124.506103 
L 731.315116 122.603018 
L 731.675309 118.475989 
L 732.035503 146.854182 
L 732.395697 137.792588 
L 732.75589 161.287997 
L 733.116084 161.045727 
L 733.476278 174.829638 
L 733.836471 176.448818 
L 734.196665 180.859862 
L 734.917052 113.636751 
L 735.277246 116.192514 
L 735.637439 94.269036 
L 735.997633 93.617644 
L 736.357827 84.084402 
L 736.71802 101.115765 
L 737.078214 104.964659 
L 737.438408 113.468759 
L 738.158795 138.811678 
L 738.518989 132.044961 
L 738.879182 128.189101 
L 739.239376 125.94932 
L 739.59957 116.946717 
L 739.959763 114.59733 
L 740.319957 113.081633 
L 741.040344 121.925621 
L 741.400538 132.422078 
L 741.760732 167.217925 
L 742.120925 158.105961 
L 742.481119 164.087062 
L 742.841313 143.684763 
L 743.201506 132.080323 
L 743.201506 132.080323 
" style="fill:none;stroke:#1f77b4;stroke-linecap:square;stroke-width:1.5;"/>
   </g>
   <g id="line2d_16">
    <path clip-path="url(#p214c3eb51f)" d="M 747.163636 384.48 
L 747.163636 51.84 
" style="fill:none;stroke:#808080;stroke-linecap:square;"/>
   </g>
   <g id="patch_114">
    <path d="M 108 384.48 
L 108 51.84 
" style="fill:none;stroke:#000000;stroke-linecap:square;stroke-linejoin:miter;stroke-width:0.8;"/>
   </g>
   <g id="patch_115">
    <path d="M 777.6 384.48 
L 777.6 51.84 
" style="fill:none;stroke:#000000;stroke-linecap:square;stroke-linejoin:miter;stroke-width:0.8;"/>
   </g>
   <g id="patch_116">
    <path d="M 108 384.48 
L 777.6 384.48 
" style="fill:none;stroke:#000000;stroke-linecap:square;stroke-linejoin:miter;stroke-width:0.8;"/>
   </g>
   <g id="patch_117">
    <path d="M 108 51.84 
L 777.6 51.84 
" style="fill:none;stroke:#000000;stroke-linecap:square;stroke-linejoin:miter;stroke-width:0.8;"/>
   </g>
   <g id="text_17">
    <!-- A3Benchmark-TS59.csv -->
    <defs>
     <path d="M 34.1875 63.1875 
L 20.796875 26.90625 
L 47.609375 26.90625 
z
M 28.609375 72.90625 
L 39.796875 72.90625 
L 67.578125 0 
L 57.328125 0 
L 50.6875 18.703125 
L 17.828125 18.703125 
L 11.1875 0 
L 0.78125 0 
z
" id="DejaVuSans-65"/>
     <path d="M 40.578125 39.3125 
Q 47.65625 37.796875 51.625 33 
Q 55.609375 28.21875 55.609375 21.1875 
Q 55.609375 10.40625 48.1875 4.484375 
Q 40.765625 -1.421875 27.09375 -1.421875 
Q 22.515625 -1.421875 17.65625 -0.515625 
Q 12.796875 0.390625 7.625 2.203125 
L 7.625 11.71875 
Q 11.71875 9.328125 16.59375 8.109375 
Q 21.484375 6.890625 26.8125 6.890625 
Q 36.078125 6.890625 40.9375 10.546875 
Q 45.796875 14.203125 45.796875 21.1875 
Q 45.796875 27.640625 41.28125 31.265625 
Q 36.765625 34.90625 28.71875 34.90625 
L 20.21875 34.90625 
L 20.21875 43.015625 
L 29.109375 43.015625 
Q 36.375 43.015625 40.234375 45.921875 
Q 44.09375 48.828125 44.09375 54.296875 
Q 44.09375 59.90625 40.109375 62.90625 
Q 36.140625 65.921875 28.71875 65.921875 
Q 24.65625 65.921875 20.015625 65.03125 
Q 15.375 64.15625 9.8125 62.3125 
L 9.8125 71.09375 
Q 15.4375 72.65625 20.34375 73.4375 
Q 25.25 74.21875 29.59375 74.21875 
Q 40.828125 74.21875 47.359375 69.109375 
Q 53.90625 64.015625 53.90625 55.328125 
Q 53.90625 49.265625 50.4375 45.09375 
Q 46.96875 40.921875 40.578125 39.3125 
z
" id="DejaVuSans-51"/>
     <path d="M 19.671875 34.8125 
L 19.671875 8.109375 
L 35.5 8.109375 
Q 43.453125 8.109375 47.28125 11.40625 
Q 51.125 14.703125 51.125 21.484375 
Q 51.125 28.328125 47.28125 31.5625 
Q 43.453125 34.8125 35.5 34.8125 
z
M 19.671875 64.796875 
L 19.671875 42.828125 
L 34.28125 42.828125 
Q 41.5 42.828125 45.03125 45.53125 
Q 48.578125 48.25 48.578125 53.8125 
Q 48.578125 59.328125 45.03125 62.0625 
Q 41.5 64.796875 34.28125 64.796875 
z
M 9.8125 72.90625 
L 35.015625 72.90625 
Q 46.296875 72.90625 52.390625 68.21875 
Q 58.5 63.53125 58.5 54.890625 
Q 58.5 48.1875 55.375 44.234375 
Q 52.25 40.28125 46.1875 39.3125 
Q 53.46875 37.75 57.5 32.78125 
Q 61.53125 27.828125 61.53125 20.40625 
Q 61.53125 10.640625 54.890625 5.3125 
Q 48.25 0 35.984375 0 
L 9.8125 0 
z
" id="DejaVuSans-66"/>
     <path d="M 54.890625 33.015625 
L 54.890625 0 
L 45.90625 0 
L 45.90625 32.71875 
Q 45.90625 40.484375 42.875 44.328125 
Q 39.84375 48.1875 33.796875 48.1875 
Q 26.515625 48.1875 22.3125 43.546875 
Q 18.109375 38.921875 18.109375 30.90625 
L 18.109375 0 
L 9.078125 0 
L 9.078125 54.6875 
L 18.109375 54.6875 
L 18.109375 46.1875 
Q 21.34375 51.125 25.703125 53.5625 
Q 30.078125 56 35.796875 56 
Q 45.21875 56 50.046875 50.171875 
Q 54.890625 44.34375 54.890625 33.015625 
z
" id="DejaVuSans-110"/>
     <path d="M 48.78125 52.59375 
L 48.78125 44.1875 
Q 44.96875 46.296875 41.140625 47.34375 
Q 37.3125 48.390625 33.40625 48.390625 
Q 24.65625 48.390625 19.8125 42.84375 
Q 14.984375 37.3125 14.984375 27.296875 
Q 14.984375 17.28125 19.8125 11.734375 
Q 24.65625 6.203125 33.40625 6.203125 
Q 37.3125 6.203125 41.140625 7.25 
Q 44.96875 8.296875 48.78125 10.40625 
L 48.78125 2.09375 
Q 45.015625 0.34375 40.984375 -0.53125 
Q 36.96875 -1.421875 32.421875 -1.421875 
Q 20.0625 -1.421875 12.78125 6.34375 
Q 5.515625 14.109375 5.515625 27.296875 
Q 5.515625 40.671875 12.859375 48.328125 
Q 20.21875 56 33.015625 56 
Q 37.15625 56 41.109375 55.140625 
Q 45.0625 54.296875 48.78125 52.59375 
z
" id="DejaVuSans-99"/>
     <path d="M 54.890625 33.015625 
L 54.890625 0 
L 45.90625 0 
L 45.90625 32.71875 
Q 45.90625 40.484375 42.875 44.328125 
Q 39.84375 48.1875 33.796875 48.1875 
Q 26.515625 48.1875 22.3125 43.546875 
Q 18.109375 38.921875 18.109375 30.90625 
L 18.109375 0 
L 9.078125 0 
L 9.078125 75.984375 
L 18.109375 75.984375 
L 18.109375 46.1875 
Q 21.34375 51.125 25.703125 53.5625 
Q 30.078125 56 35.796875 56 
Q 45.21875 56 50.046875 50.171875 
Q 54.890625 44.34375 54.890625 33.015625 
z
" id="DejaVuSans-104"/>
     <path d="M 41.109375 46.296875 
Q 39.59375 47.171875 37.8125 47.578125 
Q 36.03125 48 33.890625 48 
Q 26.265625 48 22.1875 43.046875 
Q 18.109375 38.09375 18.109375 28.8125 
L 18.109375 0 
L 9.078125 0 
L 9.078125 54.6875 
L 18.109375 54.6875 
L 18.109375 46.1875 
Q 20.953125 51.171875 25.484375 53.578125 
Q 30.03125 56 36.53125 56 
Q 37.453125 56 38.578125 55.875 
Q 39.703125 55.765625 41.0625 55.515625 
z
" id="DejaVuSans-114"/>
     <path d="M 9.078125 75.984375 
L 18.109375 75.984375 
L 18.109375 31.109375 
L 44.921875 54.6875 
L 56.390625 54.6875 
L 27.390625 29.109375 
L 57.625 0 
L 45.90625 0 
L 18.109375 26.703125 
L 18.109375 0 
L 9.078125 0 
z
" id="DejaVuSans-107"/>
     <path d="M 4.890625 31.390625 
L 31.203125 31.390625 
L 31.203125 23.390625 
L 4.890625 23.390625 
z
" id="DejaVuSans-45"/>
     <path d="M 53.515625 70.515625 
L 53.515625 60.890625 
Q 47.90625 63.578125 42.921875 64.890625 
Q 37.9375 66.21875 33.296875 66.21875 
Q 25.25 66.21875 20.875 63.09375 
Q 16.5 59.96875 16.5 54.203125 
Q 16.5 49.359375 19.40625 46.890625 
Q 22.3125 44.4375 30.421875 42.921875 
L 36.375 41.703125 
Q 47.40625 39.59375 52.65625 34.296875 
Q 57.90625 29 57.90625 20.125 
Q 57.90625 9.515625 50.796875 4.046875 
Q 43.703125 -1.421875 29.984375 -1.421875 
Q 24.8125 -1.421875 18.96875 -0.25 
Q 13.140625 0.921875 6.890625 3.21875 
L 6.890625 13.375 
Q 12.890625 10.015625 18.65625 8.296875 
Q 24.421875 6.59375 29.984375 6.59375 
Q 38.421875 6.59375 43.015625 9.90625 
Q 47.609375 13.234375 47.609375 19.390625 
Q 47.609375 24.75 44.3125 27.78125 
Q 41.015625 30.8125 33.5 32.328125 
L 27.484375 33.5 
Q 16.453125 35.6875 11.515625 40.375 
Q 6.59375 45.0625 6.59375 53.421875 
Q 6.59375 63.09375 13.40625 68.65625 
Q 20.21875 74.21875 32.171875 74.21875 
Q 37.3125 74.21875 42.625 73.28125 
Q 47.953125 72.359375 53.515625 70.515625 
z
" id="DejaVuSans-83"/>
     <path d="M 10.984375 1.515625 
L 10.984375 10.5 
Q 14.703125 8.734375 18.5 7.8125 
Q 22.3125 6.890625 25.984375 6.890625 
Q 35.75 6.890625 40.890625 13.453125 
Q 46.046875 20.015625 46.78125 33.40625 
Q 43.953125 29.203125 39.59375 26.953125 
Q 35.25 24.703125 29.984375 24.703125 
Q 19.046875 24.703125 12.671875 31.3125 
Q 6.296875 37.9375 6.296875 49.421875 
Q 6.296875 60.640625 12.9375 67.421875 
Q 19.578125 74.21875 30.609375 74.21875 
Q 43.265625 74.21875 49.921875 64.515625 
Q 56.59375 54.828125 56.59375 36.375 
Q 56.59375 19.140625 48.40625 8.859375 
Q 40.234375 -1.421875 26.421875 -1.421875 
Q 22.703125 -1.421875 18.890625 -0.6875 
Q 15.09375 0.046875 10.984375 1.515625 
z
M 30.609375 32.421875 
Q 37.25 32.421875 41.125 36.953125 
Q 45.015625 41.5 45.015625 49.421875 
Q 45.015625 57.28125 41.125 61.84375 
Q 37.25 66.40625 30.609375 66.40625 
Q 23.96875 66.40625 20.09375 61.84375 
Q 16.21875 57.28125 16.21875 49.421875 
Q 16.21875 41.5 20.09375 36.953125 
Q 23.96875 32.421875 30.609375 32.421875 
z
" id="DejaVuSans-57"/>
     <path d="M 10.6875 12.40625 
L 21 12.40625 
L 21 0 
L 10.6875 0 
z
" id="DejaVuSans-46"/>
     <path d="M 2.984375 54.6875 
L 12.5 54.6875 
L 29.59375 8.796875 
L 46.6875 54.6875 
L 56.203125 54.6875 
L 35.6875 0 
L 23.484375 0 
z
" id="DejaVuSans-118"/>
    </defs>
    <g transform="translate(371.555625 45.84)scale(0.12 -0.12)">
     <use xlink:href="#DejaVuSans-65"/>
     <use x="68.408203" xlink:href="#DejaVuSans-51"/>
     <use x="132.03125" xlink:href="#DejaVuSans-66"/>
     <use x="200.634766" xlink:href="#DejaVuSans-101"/>
     <use x="262.158203" xlink:href="#DejaVuSans-110"/>
     <use x="325.537109" xlink:href="#DejaVuSans-99"/>
     <use x="380.517578" xlink:href="#DejaVuSans-104"/>
     <use x="443.896484" xlink:href="#DejaVuSans-109"/>
     <use x="541.308594" xlink:href="#DejaVuSans-97"/>
     <use x="602.587891" xlink:href="#DejaVuSans-114"/>
     <use x="643.701172" xlink:href="#DejaVuSans-107"/>
     <use x="701.611328" xlink:href="#DejaVuSans-45"/>
     <use x="737.554688" xlink:href="#DejaVuSans-84"/>
     <use x="798.638672" xlink:href="#DejaVuSans-83"/>
     <use x="862.115234" xlink:href="#DejaVuSans-53"/>
     <use x="925.738281" xlink:href="#DejaVuSans-57"/>
     <use x="989.361328" xlink:href="#DejaVuSans-46"/>
     <use x="1021.148438" xlink:href="#DejaVuSans-99"/>
     <use x="1076.128906" xlink:href="#DejaVuSans-115"/>
     <use x="1128.228516" xlink:href="#DejaVuSans-118"/>
    </g>
   </g>
   <g id="legend_1">
    <g id="patch_118">
     <path d="M 115 74.518125 
L 174.315625 74.518125 
Q 176.315625 74.518125 176.315625 72.518125 
L 176.315625 58.84 
Q 176.315625 56.84 174.315625 56.84 
L 115 56.84 
Q 113 56.84 113 58.84 
L 113 72.518125 
Q 113 74.518125 115 74.518125 
z
" style="fill:#ffffff;opacity:0.8;stroke:#cccccc;stroke-linejoin:miter;"/>
    </g>
    <g id="line2d_17">
     <path d="M 117 64.938438 
L 137 64.938438 
" style="fill:none;stroke:#1f77b4;stroke-linecap:square;stroke-width:1.5;"/>
    </g>
    <g id="line2d_18"/>
    <g id="text_18">
     <!-- value -->
     <g transform="translate(145 68.438438)scale(0.1 -0.1)">
      <use xlink:href="#DejaVuSans-118"/>
      <use x="59.179688" xlink:href="#DejaVuSans-97"/>
      <use x="120.458984" xlink:href="#DejaVuSans-108"/>
      <use x="148.242188" xlink:href="#DejaVuSans-117"/>
      <use x="211.621094" xlink:href="#DejaVuSans-101"/>
     </g>
    </g>
   </g>
  </g>
 </g>
 <defs>
  <clipPath id="p214c3eb51f">
   <rect height="332.64" width="669.6" x="108" y="51.84"/>
  </clipPath>
 </defs>
</svg>
