<?xml version="1.0" encoding="utf-8" standalone="no"?>
<!DOCTYPE svg PUBLIC "-//W3C//DTD SVG 1.1//EN"
  "http://www.w3.org/Graphics/SVG/1.1/DTD/svg11.dtd">
<!-- Created with matplotlib (https://matplotlib.org/) -->
<svg height="432pt" version="1.1" viewBox="0 0 864 432" width="864pt" xmlns="http://www.w3.org/2000/svg" xmlns:xlink="http://www.w3.org/1999/xlink">
 <defs>
  <style type="text/css">
*{stroke-linecap:butt;stroke-linejoin:round;}
  </style>
 </defs>
 <g id="figure_1">
  <g id="patch_1">
   <path d="M 0 432 
L 864 432 
L 864 0 
L 0 0 
z
" style="fill:#ffffff;"/>
  </g>
  <g id="axes_1">
   <g id="patch_2">
    <path d="M 108 384.48 
L 777.6 384.48 
L 777.6 51.84 
L 108 51.84 
z
" style="fill:#ffffff;"/>
   </g>
   <g id="patch_3">
    <path clip-path="url(#p7ee9c92b90)" d="M 138.436364 384.48 
L 138.436364 51.84 
L 440.999032 51.84 
L 440.999032 384.48 
z
" style="fill:#0000ff;opacity:0.05;"/>
   </g>
   <g id="patch_4">
    <path clip-path="url(#p7ee9c92b90)" d="M 440.999032 384.48 
L 440.999032 51.84 
L 747.163636 51.84 
L 747.163636 384.48 
z
" style="fill:#ff0000;opacity:0.08;"/>
   </g>
   <g id="patch_5">
    <path clip-path="url(#p7ee9c92b90)" d="M 138.436364 384.48 
L 138.436364 51.84 
L 142.0383 51.84 
L 142.0383 384.48 
z
" style="fill:#008000;opacity:0.04;"/>
   </g>
   <g id="patch_6">
    <path clip-path="url(#p7ee9c92b90)" d="M 145.640237 384.48 
L 145.640237 51.84 
L 149.242173 51.84 
L 149.242173 384.48 
z
" style="fill:#008000;opacity:0.04;"/>
   </g>
   <g id="patch_7">
    <path clip-path="url(#p7ee9c92b90)" d="M 149.242173 384.48 
L 149.242173 371.1744 
L 152.84411 371.1744 
L 152.84411 384.48 
z
" style="fill:#ffe500;"/>
   </g>
   <g id="patch_8">
    <path clip-path="url(#p7ee9c92b90)" d="M 152.84411 384.48 
L 152.84411 51.84 
L 156.446046 51.84 
L 156.446046 384.48 
z
" style="fill:#008000;opacity:0.04;"/>
   </g>
   <g id="patch_9">
    <path clip-path="url(#p7ee9c92b90)" d="M 160.047983 384.48 
L 160.047983 51.84 
L 163.649919 51.84 
L 163.649919 384.48 
z
" style="fill:#008000;opacity:0.04;"/>
   </g>
   <g id="patch_10">
    <path clip-path="url(#p7ee9c92b90)" d="M 167.251856 384.48 
L 167.251856 51.84 
L 170.853792 51.84 
L 170.853792 384.48 
z
" style="fill:#008000;opacity:0.04;"/>
   </g>
   <g id="patch_11">
    <path clip-path="url(#p7ee9c92b90)" d="M 167.251856 384.48 
L 167.251856 371.1744 
L 170.853792 371.1744 
L 170.853792 384.48 
z
" style="fill:#ffe500;"/>
   </g>
   <g id="patch_12">
    <path clip-path="url(#p7ee9c92b90)" d="M 174.455729 384.48 
L 174.455729 51.84 
L 178.057665 51.84 
L 178.057665 384.48 
z
" style="fill:#008000;opacity:0.04;"/>
   </g>
   <g id="patch_13">
    <path clip-path="url(#p7ee9c92b90)" d="M 181.659602 384.48 
L 181.659602 51.84 
L 185.261538 51.84 
L 185.261538 384.48 
z
" style="fill:#008000;opacity:0.04;"/>
   </g>
   <g id="patch_14">
    <path clip-path="url(#p7ee9c92b90)" d="M 188.863475 384.48 
L 188.863475 51.84 
L 192.465412 51.84 
L 192.465412 384.48 
z
" style="fill:#008000;opacity:0.04;"/>
   </g>
   <g id="patch_15">
    <path clip-path="url(#p7ee9c92b90)" d="M 196.067348 384.48 
L 196.067348 51.84 
L 199.669285 51.84 
L 199.669285 384.48 
z
" style="fill:#008000;opacity:0.04;"/>
   </g>
   <g id="patch_16">
    <path clip-path="url(#p7ee9c92b90)" d="M 199.669285 371.1744 
L 199.669285 51.84 
L 203.271221 51.84 
L 203.271221 371.1744 
z
" style="fill:#008000;opacity:0.5;"/>
   </g>
   <g id="patch_17">
    <path clip-path="url(#p7ee9c92b90)" d="M 199.669285 384.48 
L 199.669285 371.1744 
L 203.271221 371.1744 
L 203.271221 384.48 
z
" style="fill:#ffe500;"/>
   </g>
   <g id="patch_18">
    <path clip-path="url(#p7ee9c92b90)" d="M 203.271221 384.48 
L 203.271221 51.84 
L 206.873158 51.84 
L 206.873158 384.48 
z
" style="fill:#008000;opacity:0.04;"/>
   </g>
   <g id="patch_19">
    <path clip-path="url(#p7ee9c92b90)" d="M 210.475094 384.48 
L 210.475094 51.84 
L 214.077031 51.84 
L 214.077031 384.48 
z
" style="fill:#008000;opacity:0.04;"/>
   </g>
   <g id="patch_20">
    <path clip-path="url(#p7ee9c92b90)" d="M 217.678967 384.48 
L 217.678967 51.84 
L 221.280904 51.84 
L 221.280904 384.48 
z
" style="fill:#008000;opacity:0.04;"/>
   </g>
   <g id="patch_21">
    <path clip-path="url(#p7ee9c92b90)" d="M 523.843572 384.48 
L 523.843572 371.1744 
L 527.445508 371.1744 
L 527.445508 384.48 
z
" style="fill:#ff6600;"/>
   </g>
   <g id="patch_22">
    <path clip-path="url(#p7ee9c92b90)" d="M 224.88284 384.48 
L 224.88284 51.84 
L 228.484777 51.84 
L 228.484777 384.48 
z
" style="fill:#008000;opacity:0.04;"/>
   </g>
   <g id="patch_23">
    <path clip-path="url(#p7ee9c92b90)" d="M 232.086713 384.48 
L 232.086713 51.84 
L 235.68865 51.84 
L 235.68865 384.48 
z
" style="fill:#008000;opacity:0.04;"/>
   </g>
   <g id="patch_24">
    <path clip-path="url(#p7ee9c92b90)" d="M 239.290586 384.48 
L 239.290586 51.84 
L 242.892523 51.84 
L 242.892523 384.48 
z
" style="fill:#008000;opacity:0.04;"/>
   </g>
   <g id="patch_25">
    <path clip-path="url(#p7ee9c92b90)" d="M 246.494459 384.48 
L 246.494459 51.84 
L 250.096396 51.84 
L 250.096396 384.48 
z
" style="fill:#008000;opacity:0.04;"/>
   </g>
   <g id="patch_26">
    <path clip-path="url(#p7ee9c92b90)" d="M 253.698332 384.48 
L 253.698332 51.84 
L 257.300269 51.84 
L 257.300269 384.48 
z
" style="fill:#008000;opacity:0.04;"/>
   </g>
   <g id="patch_27">
    <path clip-path="url(#p7ee9c92b90)" d="M 260.902205 384.48 
L 260.902205 51.84 
L 264.504142 51.84 
L 264.504142 384.48 
z
" style="fill:#008000;opacity:0.04;"/>
   </g>
   <g id="patch_28">
    <path clip-path="url(#p7ee9c92b90)" d="M 268.106079 384.48 
L 268.106079 51.84 
L 271.708015 51.84 
L 271.708015 384.48 
z
" style="fill:#008000;opacity:0.04;"/>
   </g>
   <g id="patch_29">
    <path clip-path="url(#p7ee9c92b90)" d="M 275.309952 384.48 
L 275.309952 51.84 
L 278.911888 51.84 
L 278.911888 384.48 
z
" style="fill:#008000;opacity:0.04;"/>
   </g>
   <g id="patch_30">
    <path clip-path="url(#p7ee9c92b90)" d="M 278.911888 384.48 
L 278.911888 371.1744 
L 282.513825 371.1744 
L 282.513825 384.48 
z
" style="fill:#ffe500;"/>
   </g>
   <g id="patch_31">
    <path clip-path="url(#p7ee9c92b90)" d="M 581.474556 384.48 
L 581.474556 371.1744 
L 585.076493 371.1744 
L 585.076493 384.48 
z
" style="fill:#ff6600;"/>
   </g>
   <g id="patch_32">
    <path clip-path="url(#p7ee9c92b90)" d="M 282.513825 384.48 
L 282.513825 51.84 
L 286.115761 51.84 
L 286.115761 384.48 
z
" style="fill:#008000;opacity:0.04;"/>
   </g>
   <g id="patch_33">
    <path clip-path="url(#p7ee9c92b90)" d="M 282.513825 371.1744 
L 282.513825 51.84 
L 286.115761 51.84 
L 286.115761 371.1744 
z
" style="fill:#008000;opacity:0.5;"/>
   </g>
   <g id="patch_34">
    <path clip-path="url(#p7ee9c92b90)" d="M 289.717698 384.48 
L 289.717698 51.84 
L 293.319634 51.84 
L 293.319634 384.48 
z
" style="fill:#008000;opacity:0.04;"/>
   </g>
   <g id="patch_35">
    <path clip-path="url(#p7ee9c92b90)" d="M 296.921571 384.48 
L 296.921571 51.84 
L 300.523507 51.84 
L 300.523507 384.48 
z
" style="fill:#008000;opacity:0.04;"/>
   </g>
   <g id="patch_36">
    <path clip-path="url(#p7ee9c92b90)" d="M 296.921571 371.1744 
L 296.921571 51.84 
L 300.523507 51.84 
L 300.523507 371.1744 
z
" style="fill:#008000;opacity:0.5;"/>
   </g>
   <g id="patch_37">
    <path clip-path="url(#p7ee9c92b90)" d="M 296.921571 384.48 
L 296.921571 371.1744 
L 300.523507 371.1744 
L 300.523507 384.48 
z
" style="fill:#ffe500;"/>
   </g>
   <g id="patch_38">
    <path clip-path="url(#p7ee9c92b90)" d="M 304.125444 384.48 
L 304.125444 51.84 
L 307.72738 51.84 
L 307.72738 384.48 
z
" style="fill:#008000;opacity:0.04;"/>
   </g>
   <g id="patch_39">
    <path clip-path="url(#p7ee9c92b90)" d="M 311.329317 384.48 
L 311.329317 51.84 
L 314.931253 51.84 
L 314.931253 384.48 
z
" style="fill:#008000;opacity:0.04;"/>
   </g>
   <g id="patch_40">
    <path clip-path="url(#p7ee9c92b90)" d="M 318.53319 384.48 
L 318.53319 51.84 
L 322.135126 51.84 
L 322.135126 384.48 
z
" style="fill:#008000;opacity:0.04;"/>
   </g>
   <g id="patch_41">
    <path clip-path="url(#p7ee9c92b90)" d="M 325.737063 384.48 
L 325.737063 51.84 
L 329.338999 51.84 
L 329.338999 384.48 
z
" style="fill:#008000;opacity:0.04;"/>
   </g>
   <g id="patch_42">
    <path clip-path="url(#p7ee9c92b90)" d="M 332.940936 384.48 
L 332.940936 51.84 
L 336.542873 51.84 
L 336.542873 384.48 
z
" style="fill:#008000;opacity:0.04;"/>
   </g>
   <g id="patch_43">
    <path clip-path="url(#p7ee9c92b90)" d="M 340.144809 384.48 
L 340.144809 51.84 
L 343.746746 51.84 
L 343.746746 384.48 
z
" style="fill:#008000;opacity:0.04;"/>
   </g>
   <g id="patch_44">
    <path clip-path="url(#p7ee9c92b90)" d="M 340.144809 384.48 
L 340.144809 371.1744 
L 343.746746 371.1744 
L 343.746746 384.48 
z
" style="fill:#ffe500;"/>
   </g>
   <g id="patch_45">
    <path clip-path="url(#p7ee9c92b90)" d="M 347.348682 384.48 
L 347.348682 51.84 
L 350.950619 51.84 
L 350.950619 384.48 
z
" style="fill:#008000;opacity:0.04;"/>
   </g>
   <g id="patch_46">
    <path clip-path="url(#p7ee9c92b90)" d="M 354.552555 384.48 
L 354.552555 51.84 
L 358.154492 51.84 
L 358.154492 384.48 
z
" style="fill:#008000;opacity:0.04;"/>
   </g>
   <g id="patch_47">
    <path clip-path="url(#p7ee9c92b90)" d="M 361.756428 384.48 
L 361.756428 51.84 
L 365.358365 51.84 
L 365.358365 384.48 
z
" style="fill:#008000;opacity:0.04;"/>
   </g>
   <g id="patch_48">
    <path clip-path="url(#p7ee9c92b90)" d="M 361.756428 384.48 
L 361.756428 371.1744 
L 365.358365 371.1744 
L 365.358365 384.48 
z
" style="fill:#ffe500;"/>
   </g>
   <g id="patch_49">
    <path clip-path="url(#p7ee9c92b90)" d="M 368.960301 384.48 
L 368.960301 51.84 
L 372.562238 51.84 
L 372.562238 384.48 
z
" style="fill:#008000;opacity:0.04;"/>
   </g>
   <g id="patch_50">
    <path clip-path="url(#p7ee9c92b90)" d="M 376.164174 384.48 
L 376.164174 51.84 
L 379.766111 51.84 
L 379.766111 384.48 
z
" style="fill:#008000;opacity:0.04;"/>
   </g>
   <g id="patch_51">
    <path clip-path="url(#p7ee9c92b90)" d="M 376.164174 371.1744 
L 376.164174 51.84 
L 379.766111 51.84 
L 379.766111 371.1744 
z
" style="fill:#008000;opacity:0.5;"/>
   </g>
   <g id="patch_52">
    <path clip-path="url(#p7ee9c92b90)" d="M 383.368047 384.48 
L 383.368047 51.84 
L 386.969984 51.84 
L 386.969984 384.48 
z
" style="fill:#008000;opacity:0.04;"/>
   </g>
   <g id="patch_53">
    <path clip-path="url(#p7ee9c92b90)" d="M 390.57192 384.48 
L 390.57192 51.84 
L 394.173857 51.84 
L 394.173857 384.48 
z
" style="fill:#008000;opacity:0.04;"/>
   </g>
   <g id="patch_54">
    <path clip-path="url(#p7ee9c92b90)" d="M 397.775793 384.48 
L 397.775793 51.84 
L 401.37773 51.84 
L 401.37773 384.48 
z
" style="fill:#008000;opacity:0.04;"/>
   </g>
   <g id="patch_55">
    <path clip-path="url(#p7ee9c92b90)" d="M 404.979666 384.48 
L 404.979666 51.84 
L 408.581603 51.84 
L 408.581603 384.48 
z
" style="fill:#008000;opacity:0.04;"/>
   </g>
   <g id="patch_56">
    <path clip-path="url(#p7ee9c92b90)" d="M 404.979666 384.48 
L 404.979666 371.1744 
L 408.581603 371.1744 
L 408.581603 384.48 
z
" style="fill:#ffe500;"/>
   </g>
   <g id="patch_57">
    <path clip-path="url(#p7ee9c92b90)" d="M 412.18354 384.48 
L 412.18354 51.84 
L 415.785476 51.84 
L 415.785476 384.48 
z
" style="fill:#008000;opacity:0.04;"/>
   </g>
   <g id="patch_58">
    <path clip-path="url(#p7ee9c92b90)" d="M 412.18354 371.1744 
L 412.18354 51.84 
L 415.785476 51.84 
L 415.785476 371.1744 
z
" style="fill:#008000;opacity:0.5;"/>
   </g>
   <g id="patch_59">
    <path clip-path="url(#p7ee9c92b90)" d="M 419.387413 384.48 
L 419.387413 51.84 
L 422.989349 51.84 
L 422.989349 384.48 
z
" style="fill:#008000;opacity:0.04;"/>
   </g>
   <g id="patch_60">
    <path clip-path="url(#p7ee9c92b90)" d="M 426.591286 384.48 
L 426.591286 51.84 
L 430.193222 51.84 
L 430.193222 384.48 
z
" style="fill:#008000;opacity:0.04;"/>
   </g>
   <g id="patch_61">
    <path clip-path="url(#p7ee9c92b90)" d="M 433.795159 384.48 
L 433.795159 51.84 
L 437.397095 51.84 
L 437.397095 384.48 
z
" style="fill:#008000;opacity:0.04;"/>
   </g>
   <g id="patch_62">
    <path clip-path="url(#p7ee9c92b90)" d="M 440.999032 384.48 
L 440.999032 51.84 
L 444.600968 51.84 
L 444.600968 384.48 
z
" style="fill:#008000;opacity:0.04;"/>
   </g>
   <g id="patch_63">
    <path clip-path="url(#p7ee9c92b90)" d="M 743.5617 384.48 
L 743.5617 371.1744 
L 747.163636 371.1744 
L 747.163636 384.48 
z
" style="fill:#ff6600;"/>
   </g>
   <g id="patch_64">
    <path clip-path="url(#p7ee9c92b90)" d="M 448.202905 384.48 
L 448.202905 51.84 
L 451.804841 51.84 
L 451.804841 384.48 
z
" style="fill:#008000;opacity:0.04;"/>
   </g>
   <g id="patch_65">
    <path clip-path="url(#p7ee9c92b90)" d="M 451.804841 371.1744 
L 451.804841 51.84 
L 455.406778 51.84 
L 455.406778 371.1744 
z
" style="fill:#008000;opacity:0.5;"/>
   </g>
   <g id="patch_66">
    <path clip-path="url(#p7ee9c92b90)" d="M 455.406778 384.48 
L 455.406778 51.84 
L 459.008714 51.84 
L 459.008714 384.48 
z
" style="fill:#008000;opacity:0.04;"/>
   </g>
   <g id="patch_67">
    <path clip-path="url(#p7ee9c92b90)" d="M 462.610651 384.48 
L 462.610651 51.84 
L 466.212587 51.84 
L 466.212587 384.48 
z
" style="fill:#008000;opacity:0.04;"/>
   </g>
   <g id="patch_68">
    <path clip-path="url(#p7ee9c92b90)" d="M 469.814524 384.48 
L 469.814524 51.84 
L 473.41646 51.84 
L 473.41646 384.48 
z
" style="fill:#008000;opacity:0.04;"/>
   </g>
   <g id="patch_69">
    <path clip-path="url(#p7ee9c92b90)" d="M 477.018397 384.48 
L 477.018397 51.84 
L 480.620334 51.84 
L 480.620334 384.48 
z
" style="fill:#008000;opacity:0.04;"/>
   </g>
   <g id="patch_70">
    <path clip-path="url(#p7ee9c92b90)" d="M 484.22227 384.48 
L 484.22227 51.84 
L 487.824207 51.84 
L 487.824207 384.48 
z
" style="fill:#008000;opacity:0.04;"/>
   </g>
   <g id="patch_71">
    <path clip-path="url(#p7ee9c92b90)" d="M 491.426143 384.48 
L 491.426143 51.84 
L 495.02808 51.84 
L 495.02808 384.48 
z
" style="fill:#008000;opacity:0.04;"/>
   </g>
   <g id="patch_72">
    <path clip-path="url(#p7ee9c92b90)" d="M 498.630016 384.48 
L 498.630016 51.84 
L 502.231953 51.84 
L 502.231953 384.48 
z
" style="fill:#008000;opacity:0.04;"/>
   </g>
   <g id="patch_73">
    <path clip-path="url(#p7ee9c92b90)" d="M 505.833889 384.48 
L 505.833889 51.84 
L 509.435826 51.84 
L 509.435826 384.48 
z
" style="fill:#008000;opacity:0.04;"/>
   </g>
   <g id="patch_74">
    <path clip-path="url(#p7ee9c92b90)" d="M 513.037762 384.48 
L 513.037762 51.84 
L 516.639699 51.84 
L 516.639699 384.48 
z
" style="fill:#008000;opacity:0.04;"/>
   </g>
   <g id="patch_75">
    <path clip-path="url(#p7ee9c92b90)" d="M 520.241635 384.48 
L 520.241635 51.84 
L 523.843572 51.84 
L 523.843572 384.48 
z
" style="fill:#008000;opacity:0.04;"/>
   </g>
   <g id="patch_76">
    <path clip-path="url(#p7ee9c92b90)" d="M 523.843572 371.1744 
L 523.843572 51.84 
L 527.445508 51.84 
L 527.445508 371.1744 
z
" style="fill:#008000;opacity:0.5;"/>
   </g>
   <g id="patch_77">
    <path clip-path="url(#p7ee9c92b90)" d="M 527.445508 384.48 
L 527.445508 51.84 
L 531.047445 51.84 
L 531.047445 384.48 
z
" style="fill:#008000;opacity:0.04;"/>
   </g>
   <g id="patch_78">
    <path clip-path="url(#p7ee9c92b90)" d="M 534.649381 384.48 
L 534.649381 51.84 
L 538.251318 51.84 
L 538.251318 384.48 
z
" style="fill:#008000;opacity:0.04;"/>
   </g>
   <g id="patch_79">
    <path clip-path="url(#p7ee9c92b90)" d="M 541.853254 384.48 
L 541.853254 51.84 
L 545.455191 51.84 
L 545.455191 384.48 
z
" style="fill:#008000;opacity:0.04;"/>
   </g>
   <g id="patch_80">
    <path clip-path="url(#p7ee9c92b90)" d="M 549.057127 384.48 
L 549.057127 51.84 
L 552.659064 51.84 
L 552.659064 384.48 
z
" style="fill:#008000;opacity:0.04;"/>
   </g>
   <g id="patch_81">
    <path clip-path="url(#p7ee9c92b90)" d="M 556.261001 384.48 
L 556.261001 51.84 
L 559.862937 51.84 
L 559.862937 384.48 
z
" style="fill:#008000;opacity:0.04;"/>
   </g>
   <g id="patch_82">
    <path clip-path="url(#p7ee9c92b90)" d="M 563.464874 384.48 
L 563.464874 51.84 
L 567.06681 51.84 
L 567.06681 384.48 
z
" style="fill:#008000;opacity:0.04;"/>
   </g>
   <g id="patch_83">
    <path clip-path="url(#p7ee9c92b90)" d="M 570.668747 384.48 
L 570.668747 51.84 
L 574.270683 51.84 
L 574.270683 384.48 
z
" style="fill:#008000;opacity:0.04;"/>
   </g>
   <g id="patch_84">
    <path clip-path="url(#p7ee9c92b90)" d="M 577.87262 384.48 
L 577.87262 51.84 
L 581.474556 51.84 
L 581.474556 384.48 
z
" style="fill:#008000;opacity:0.04;"/>
   </g>
   <g id="patch_85">
    <path clip-path="url(#p7ee9c92b90)" d="M 581.474556 371.1744 
L 581.474556 51.84 
L 585.076493 51.84 
L 585.076493 371.1744 
z
" style="fill:#008000;opacity:0.5;"/>
   </g>
   <g id="patch_86">
    <path clip-path="url(#p7ee9c92b90)" d="M 585.076493 384.48 
L 585.076493 51.84 
L 588.678429 51.84 
L 588.678429 384.48 
z
" style="fill:#008000;opacity:0.04;"/>
   </g>
   <g id="patch_87">
    <path clip-path="url(#p7ee9c92b90)" d="M 592.280366 384.48 
L 592.280366 51.84 
L 595.882302 51.84 
L 595.882302 384.48 
z
" style="fill:#008000;opacity:0.04;"/>
   </g>
   <g id="patch_88">
    <path clip-path="url(#p7ee9c92b90)" d="M 595.882302 371.1744 
L 595.882302 51.84 
L 599.484239 51.84 
L 599.484239 371.1744 
z
" style="fill:#008000;opacity:0.5;"/>
   </g>
   <g id="patch_89">
    <path clip-path="url(#p7ee9c92b90)" d="M 599.484239 384.48 
L 599.484239 51.84 
L 603.086175 51.84 
L 603.086175 384.48 
z
" style="fill:#008000;opacity:0.04;"/>
   </g>
   <g id="patch_90">
    <path clip-path="url(#p7ee9c92b90)" d="M 606.688112 384.48 
L 606.688112 51.84 
L 610.290048 51.84 
L 610.290048 384.48 
z
" style="fill:#008000;opacity:0.04;"/>
   </g>
   <g id="patch_91">
    <path clip-path="url(#p7ee9c92b90)" d="M 613.891985 384.48 
L 613.891985 51.84 
L 617.493921 51.84 
L 617.493921 384.48 
z
" style="fill:#008000;opacity:0.04;"/>
   </g>
   <g id="patch_92">
    <path clip-path="url(#p7ee9c92b90)" d="M 621.095858 384.48 
L 621.095858 51.84 
L 624.697795 51.84 
L 624.697795 384.48 
z
" style="fill:#008000;opacity:0.04;"/>
   </g>
   <g id="patch_93">
    <path clip-path="url(#p7ee9c92b90)" d="M 624.697795 371.1744 
L 624.697795 51.84 
L 628.299731 51.84 
L 628.299731 371.1744 
z
" style="fill:#008000;opacity:0.5;"/>
   </g>
   <g id="patch_94">
    <path clip-path="url(#p7ee9c92b90)" d="M 628.299731 384.48 
L 628.299731 51.84 
L 631.901668 51.84 
L 631.901668 384.48 
z
" style="fill:#008000;opacity:0.04;"/>
   </g>
   <g id="patch_95">
    <path clip-path="url(#p7ee9c92b90)" d="M 635.503604 384.48 
L 635.503604 51.84 
L 639.105541 51.84 
L 639.105541 384.48 
z
" style="fill:#008000;opacity:0.04;"/>
   </g>
   <g id="patch_96">
    <path clip-path="url(#p7ee9c92b90)" d="M 642.707477 384.48 
L 642.707477 51.84 
L 646.309414 51.84 
L 646.309414 384.48 
z
" style="fill:#008000;opacity:0.04;"/>
   </g>
   <g id="patch_97">
    <path clip-path="url(#p7ee9c92b90)" d="M 649.91135 384.48 
L 649.91135 51.84 
L 653.513287 51.84 
L 653.513287 384.48 
z
" style="fill:#008000;opacity:0.04;"/>
   </g>
   <g id="patch_98">
    <path clip-path="url(#p7ee9c92b90)" d="M 653.513287 371.1744 
L 653.513287 51.84 
L 657.115223 51.84 
L 657.115223 371.1744 
z
" style="fill:#008000;opacity:0.5;"/>
   </g>
   <g id="patch_99">
    <path clip-path="url(#p7ee9c92b90)" d="M 657.115223 384.48 
L 657.115223 51.84 
L 660.71716 51.84 
L 660.71716 384.48 
z
" style="fill:#008000;opacity:0.04;"/>
   </g>
   <g id="patch_100">
    <path clip-path="url(#p7ee9c92b90)" d="M 664.319096 384.48 
L 664.319096 51.84 
L 667.921033 51.84 
L 667.921033 384.48 
z
" style="fill:#008000;opacity:0.04;"/>
   </g>
   <g id="patch_101">
    <path clip-path="url(#p7ee9c92b90)" d="M 671.522969 384.48 
L 671.522969 51.84 
L 675.124906 51.84 
L 675.124906 384.48 
z
" style="fill:#008000;opacity:0.04;"/>
   </g>
   <g id="patch_102">
    <path clip-path="url(#p7ee9c92b90)" d="M 678.726842 384.48 
L 678.726842 51.84 
L 682.328779 51.84 
L 682.328779 384.48 
z
" style="fill:#008000;opacity:0.04;"/>
   </g>
   <g id="patch_103">
    <path clip-path="url(#p7ee9c92b90)" d="M 685.930715 384.48 
L 685.930715 51.84 
L 689.532652 51.84 
L 689.532652 384.48 
z
" style="fill:#008000;opacity:0.04;"/>
   </g>
   <g id="patch_104">
    <path clip-path="url(#p7ee9c92b90)" d="M 693.134588 384.48 
L 693.134588 51.84 
L 696.736525 51.84 
L 696.736525 384.48 
z
" style="fill:#008000;opacity:0.04;"/>
   </g>
   <g id="patch_105">
    <path clip-path="url(#p7ee9c92b90)" d="M 700.338462 384.48 
L 700.338462 51.84 
L 703.940398 51.84 
L 703.940398 384.48 
z
" style="fill:#008000;opacity:0.04;"/>
   </g>
   <g id="patch_106">
    <path clip-path="url(#p7ee9c92b90)" d="M 707.542335 384.48 
L 707.542335 51.84 
L 711.144271 51.84 
L 711.144271 384.48 
z
" style="fill:#008000;opacity:0.04;"/>
   </g>
   <g id="patch_107">
    <path clip-path="url(#p7ee9c92b90)" d="M 714.746208 384.48 
L 714.746208 51.84 
L 718.348144 51.84 
L 718.348144 384.48 
z
" style="fill:#008000;opacity:0.04;"/>
   </g>
   <g id="patch_108">
    <path clip-path="url(#p7ee9c92b90)" d="M 721.950081 384.48 
L 721.950081 51.84 
L 725.552017 51.84 
L 725.552017 384.48 
z
" style="fill:#008000;opacity:0.04;"/>
   </g>
   <g id="patch_109">
    <path clip-path="url(#p7ee9c92b90)" d="M 729.153954 384.48 
L 729.153954 51.84 
L 732.75589 51.84 
L 732.75589 384.48 
z
" style="fill:#008000;opacity:0.04;"/>
   </g>
   <g id="patch_110">
    <path clip-path="url(#p7ee9c92b90)" d="M 736.357827 384.48 
L 736.357827 51.84 
L 739.959763 51.84 
L 739.959763 384.48 
z
" style="fill:#008000;opacity:0.04;"/>
   </g>
   <g id="patch_111">
    <path clip-path="url(#p7ee9c92b90)" d="M 743.5617 384.48 
L 743.5617 51.84 
L 747.163636 51.84 
L 747.163636 384.48 
z
" style="fill:#008000;opacity:0.04;"/>
   </g>
   <g id="matplotlib.axis_1">
    <g id="xtick_1">
     <g id="line2d_1">
      <defs>
       <path d="M 0 0 
L 0 3.5 
" id="mc4e5d294c0" style="stroke:#000000;stroke-width:0.8;"/>
      </defs>
      <g>
       <use style="stroke:#000000;stroke-width:0.8;" x="138.436364" xlink:href="#mc4e5d294c0" y="384.48"/>
      </g>
     </g>
     <g id="text_1">
      <!-- 0 -->
      <defs>
       <path d="M 31.78125 66.40625 
Q 24.171875 66.40625 20.328125 58.90625 
Q 16.5 51.421875 16.5 36.375 
Q 16.5 21.390625 20.328125 13.890625 
Q 24.171875 6.390625 31.78125 6.390625 
Q 39.453125 6.390625 43.28125 13.890625 
Q 47.125 21.390625 47.125 36.375 
Q 47.125 51.421875 43.28125 58.90625 
Q 39.453125 66.40625 31.78125 66.40625 
z
M 31.78125 74.21875 
Q 44.046875 74.21875 50.515625 64.515625 
Q 56.984375 54.828125 56.984375 36.375 
Q 56.984375 17.96875 50.515625 8.265625 
Q 44.046875 -1.421875 31.78125 -1.421875 
Q 19.53125 -1.421875 13.0625 8.265625 
Q 6.59375 17.96875 6.59375 36.375 
Q 6.59375 54.828125 13.0625 64.515625 
Q 19.53125 74.21875 31.78125 74.21875 
z
" id="DejaVuSans-48"/>
      </defs>
      <g transform="translate(135.255114 399.078438)scale(0.1 -0.1)">
       <use xlink:href="#DejaVuSans-48"/>
      </g>
     </g>
    </g>
    <g id="xtick_2">
     <g id="line2d_2">
      <g>
       <use style="stroke:#000000;stroke-width:0.8;" x="228.484777" xlink:href="#mc4e5d294c0" y="384.48"/>
      </g>
     </g>
     <g id="text_2">
      <!-- 250 -->
      <defs>
       <path d="M 19.1875 8.296875 
L 53.609375 8.296875 
L 53.609375 0 
L 7.328125 0 
L 7.328125 8.296875 
Q 12.9375 14.109375 22.625 23.890625 
Q 32.328125 33.6875 34.8125 36.53125 
Q 39.546875 41.84375 41.421875 45.53125 
Q 43.3125 49.21875 43.3125 52.78125 
Q 43.3125 58.59375 39.234375 62.25 
Q 35.15625 65.921875 28.609375 65.921875 
Q 23.96875 65.921875 18.8125 64.3125 
Q 13.671875 62.703125 7.8125 59.421875 
L 7.8125 69.390625 
Q 13.765625 71.78125 18.9375 73 
Q 24.125 74.21875 28.421875 74.21875 
Q 39.75 74.21875 46.484375 68.546875 
Q 53.21875 62.890625 53.21875 53.421875 
Q 53.21875 48.921875 51.53125 44.890625 
Q 49.859375 40.875 45.40625 35.40625 
Q 44.1875 33.984375 37.640625 27.21875 
Q 31.109375 20.453125 19.1875 8.296875 
z
" id="DejaVuSans-50"/>
       <path d="M 10.796875 72.90625 
L 49.515625 72.90625 
L 49.515625 64.59375 
L 19.828125 64.59375 
L 19.828125 46.734375 
Q 21.96875 47.46875 24.109375 47.828125 
Q 26.265625 48.1875 28.421875 48.1875 
Q 40.625 48.1875 47.75 41.5 
Q 54.890625 34.8125 54.890625 23.390625 
Q 54.890625 11.625 47.5625 5.09375 
Q 40.234375 -1.421875 26.90625 -1.421875 
Q 22.3125 -1.421875 17.546875 -0.640625 
Q 12.796875 0.140625 7.71875 1.703125 
L 7.71875 11.625 
Q 12.109375 9.234375 16.796875 8.0625 
Q 21.484375 6.890625 26.703125 6.890625 
Q 35.15625 6.890625 40.078125 11.328125 
Q 45.015625 15.765625 45.015625 23.390625 
Q 45.015625 31 40.078125 35.4375 
Q 35.15625 39.890625 26.703125 39.890625 
Q 22.75 39.890625 18.8125 39.015625 
Q 14.890625 38.140625 10.796875 36.28125 
z
" id="DejaVuSans-53"/>
      </defs>
      <g transform="translate(218.941027 399.078438)scale(0.1 -0.1)">
       <use xlink:href="#DejaVuSans-50"/>
       <use x="63.623047" xlink:href="#DejaVuSans-53"/>
       <use x="127.246094" xlink:href="#DejaVuSans-48"/>
      </g>
     </g>
    </g>
    <g id="xtick_3">
     <g id="line2d_3">
      <g>
       <use style="stroke:#000000;stroke-width:0.8;" x="318.53319" xlink:href="#mc4e5d294c0" y="384.48"/>
      </g>
     </g>
     <g id="text_3">
      <!-- 500 -->
      <g transform="translate(308.98944 399.078438)scale(0.1 -0.1)">
       <use xlink:href="#DejaVuSans-53"/>
       <use x="63.623047" xlink:href="#DejaVuSans-48"/>
       <use x="127.246094" xlink:href="#DejaVuSans-48"/>
      </g>
     </g>
    </g>
    <g id="xtick_4">
     <g id="line2d_4">
      <g>
       <use style="stroke:#000000;stroke-width:0.8;" x="408.581603" xlink:href="#mc4e5d294c0" y="384.48"/>
      </g>
     </g>
     <g id="text_4">
      <!-- 750 -->
      <defs>
       <path d="M 8.203125 72.90625 
L 55.078125 72.90625 
L 55.078125 68.703125 
L 28.609375 0 
L 18.3125 0 
L 43.21875 64.59375 
L 8.203125 64.59375 
z
" id="DejaVuSans-55"/>
      </defs>
      <g transform="translate(399.037853 399.078438)scale(0.1 -0.1)">
       <use xlink:href="#DejaVuSans-55"/>
       <use x="63.623047" xlink:href="#DejaVuSans-53"/>
       <use x="127.246094" xlink:href="#DejaVuSans-48"/>
      </g>
     </g>
    </g>
    <g id="xtick_5">
     <g id="line2d_5">
      <g>
       <use style="stroke:#000000;stroke-width:0.8;" x="498.630016" xlink:href="#mc4e5d294c0" y="384.48"/>
      </g>
     </g>
     <g id="text_5">
      <!-- 1000 -->
      <defs>
       <path d="M 12.40625 8.296875 
L 28.515625 8.296875 
L 28.515625 63.921875 
L 10.984375 60.40625 
L 10.984375 69.390625 
L 28.421875 72.90625 
L 38.28125 72.90625 
L 38.28125 8.296875 
L 54.390625 8.296875 
L 54.390625 0 
L 12.40625 0 
z
" id="DejaVuSans-49"/>
      </defs>
      <g transform="translate(485.905016 399.078438)scale(0.1 -0.1)">
       <use xlink:href="#DejaVuSans-49"/>
       <use x="63.623047" xlink:href="#DejaVuSans-48"/>
       <use x="127.246094" xlink:href="#DejaVuSans-48"/>
       <use x="190.869141" xlink:href="#DejaVuSans-48"/>
      </g>
     </g>
    </g>
    <g id="xtick_6">
     <g id="line2d_6">
      <g>
       <use style="stroke:#000000;stroke-width:0.8;" x="588.678429" xlink:href="#mc4e5d294c0" y="384.48"/>
      </g>
     </g>
     <g id="text_6">
      <!-- 1250 -->
      <g transform="translate(575.953429 399.078438)scale(0.1 -0.1)">
       <use xlink:href="#DejaVuSans-49"/>
       <use x="63.623047" xlink:href="#DejaVuSans-50"/>
       <use x="127.246094" xlink:href="#DejaVuSans-53"/>
       <use x="190.869141" xlink:href="#DejaVuSans-48"/>
      </g>
     </g>
    </g>
    <g id="xtick_7">
     <g id="line2d_7">
      <g>
       <use style="stroke:#000000;stroke-width:0.8;" x="678.726842" xlink:href="#mc4e5d294c0" y="384.48"/>
      </g>
     </g>
     <g id="text_7">
      <!-- 1500 -->
      <g transform="translate(666.001842 399.078438)scale(0.1 -0.1)">
       <use xlink:href="#DejaVuSans-49"/>
       <use x="63.623047" xlink:href="#DejaVuSans-53"/>
       <use x="127.246094" xlink:href="#DejaVuSans-48"/>
       <use x="190.869141" xlink:href="#DejaVuSans-48"/>
      </g>
     </g>
    </g>
    <g id="xtick_8">
     <g id="line2d_8">
      <g>
       <use style="stroke:#000000;stroke-width:0.8;" x="768.775256" xlink:href="#mc4e5d294c0" y="384.48"/>
      </g>
     </g>
     <g id="text_8">
      <!-- 1750 -->
      <g transform="translate(756.050256 399.078438)scale(0.1 -0.1)">
       <use xlink:href="#DejaVuSans-49"/>
       <use x="63.623047" xlink:href="#DejaVuSans-55"/>
       <use x="127.246094" xlink:href="#DejaVuSans-53"/>
       <use x="190.869141" xlink:href="#DejaVuSans-48"/>
      </g>
     </g>
    </g>
    <g id="text_9">
     <!-- Timestamp -->
     <defs>
      <path d="M -0.296875 72.90625 
L 61.375 72.90625 
L 61.375 64.59375 
L 35.5 64.59375 
L 35.5 0 
L 25.59375 0 
L 25.59375 64.59375 
L -0.296875 64.59375 
z
" id="DejaVuSans-84"/>
      <path d="M 9.421875 54.6875 
L 18.40625 54.6875 
L 18.40625 0 
L 9.421875 0 
z
M 9.421875 75.984375 
L 18.40625 75.984375 
L 18.40625 64.59375 
L 9.421875 64.59375 
z
" id="DejaVuSans-105"/>
      <path d="M 52 44.1875 
Q 55.375 50.25 60.0625 53.125 
Q 64.75 56 71.09375 56 
Q 79.640625 56 84.28125 50.015625 
Q 88.921875 44.046875 88.921875 33.015625 
L 88.921875 0 
L 79.890625 0 
L 79.890625 32.71875 
Q 79.890625 40.578125 77.09375 44.375 
Q 74.3125 48.1875 68.609375 48.1875 
Q 61.625 48.1875 57.5625 43.546875 
Q 53.515625 38.921875 53.515625 30.90625 
L 53.515625 0 
L 44.484375 0 
L 44.484375 32.71875 
Q 44.484375 40.625 41.703125 44.40625 
Q 38.921875 48.1875 33.109375 48.1875 
Q 26.21875 48.1875 22.15625 43.53125 
Q 18.109375 38.875 18.109375 30.90625 
L 18.109375 0 
L 9.078125 0 
L 9.078125 54.6875 
L 18.109375 54.6875 
L 18.109375 46.1875 
Q 21.1875 51.21875 25.484375 53.609375 
Q 29.78125 56 35.6875 56 
Q 41.65625 56 45.828125 52.96875 
Q 50 49.953125 52 44.1875 
z
" id="DejaVuSans-109"/>
      <path d="M 56.203125 29.59375 
L 56.203125 25.203125 
L 14.890625 25.203125 
Q 15.484375 15.921875 20.484375 11.0625 
Q 25.484375 6.203125 34.421875 6.203125 
Q 39.59375 6.203125 44.453125 7.46875 
Q 49.3125 8.734375 54.109375 11.28125 
L 54.109375 2.78125 
Q 49.265625 0.734375 44.1875 -0.34375 
Q 39.109375 -1.421875 33.890625 -1.421875 
Q 20.796875 -1.421875 13.15625 6.1875 
Q 5.515625 13.8125 5.515625 26.8125 
Q 5.515625 40.234375 12.765625 48.109375 
Q 20.015625 56 32.328125 56 
Q 43.359375 56 49.78125 48.890625 
Q 56.203125 41.796875 56.203125 29.59375 
z
M 47.21875 32.234375 
Q 47.125 39.59375 43.09375 43.984375 
Q 39.0625 48.390625 32.421875 48.390625 
Q 24.90625 48.390625 20.390625 44.140625 
Q 15.875 39.890625 15.1875 32.171875 
z
" id="DejaVuSans-101"/>
      <path d="M 44.28125 53.078125 
L 44.28125 44.578125 
Q 40.484375 46.53125 36.375 47.5 
Q 32.28125 48.484375 27.875 48.484375 
Q 21.1875 48.484375 17.84375 46.4375 
Q 14.5 44.390625 14.5 40.28125 
Q 14.5 37.15625 16.890625 35.375 
Q 19.28125 33.59375 26.515625 31.984375 
L 29.59375 31.296875 
Q 39.15625 29.25 43.1875 25.515625 
Q 47.21875 21.78125 47.21875 15.09375 
Q 47.21875 7.46875 41.1875 3.015625 
Q 35.15625 -1.421875 24.609375 -1.421875 
Q 20.21875 -1.421875 15.453125 -0.5625 
Q 10.6875 0.296875 5.421875 2 
L 5.421875 11.28125 
Q 10.40625 8.6875 15.234375 7.390625 
Q 20.0625 6.109375 24.8125 6.109375 
Q 31.15625 6.109375 34.5625 8.28125 
Q 37.984375 10.453125 37.984375 14.40625 
Q 37.984375 18.0625 35.515625 20.015625 
Q 33.0625 21.96875 24.703125 23.78125 
L 21.578125 24.515625 
Q 13.234375 26.265625 9.515625 29.90625 
Q 5.8125 33.546875 5.8125 39.890625 
Q 5.8125 47.609375 11.28125 51.796875 
Q 16.75 56 26.8125 56 
Q 31.78125 56 36.171875 55.265625 
Q 40.578125 54.546875 44.28125 53.078125 
z
" id="DejaVuSans-115"/>
      <path d="M 18.3125 70.21875 
L 18.3125 54.6875 
L 36.8125 54.6875 
L 36.8125 47.703125 
L 18.3125 47.703125 
L 18.3125 18.015625 
Q 18.3125 11.328125 20.140625 9.421875 
Q 21.96875 7.515625 27.59375 7.515625 
L 36.8125 7.515625 
L 36.8125 0 
L 27.59375 0 
Q 17.1875 0 13.234375 3.875 
Q 9.28125 7.765625 9.28125 18.015625 
L 9.28125 47.703125 
L 2.6875 47.703125 
L 2.6875 54.6875 
L 9.28125 54.6875 
L 9.28125 70.21875 
z
" id="DejaVuSans-116"/>
      <path d="M 34.28125 27.484375 
Q 23.390625 27.484375 19.1875 25 
Q 14.984375 22.515625 14.984375 16.5 
Q 14.984375 11.71875 18.140625 8.90625 
Q 21.296875 6.109375 26.703125 6.109375 
Q 34.1875 6.109375 38.703125 11.40625 
Q 43.21875 16.703125 43.21875 25.484375 
L 43.21875 27.484375 
z
M 52.203125 31.203125 
L 52.203125 0 
L 43.21875 0 
L 43.21875 8.296875 
Q 40.140625 3.328125 35.546875 0.953125 
Q 30.953125 -1.421875 24.3125 -1.421875 
Q 15.921875 -1.421875 10.953125 3.296875 
Q 6 8.015625 6 15.921875 
Q 6 25.140625 12.171875 29.828125 
Q 18.359375 34.515625 30.609375 34.515625 
L 43.21875 34.515625 
L 43.21875 35.40625 
Q 43.21875 41.609375 39.140625 45 
Q 35.0625 48.390625 27.6875 48.390625 
Q 23 48.390625 18.546875 47.265625 
Q 14.109375 46.140625 10.015625 43.890625 
L 10.015625 52.203125 
Q 14.9375 54.109375 19.578125 55.046875 
Q 24.21875 56 28.609375 56 
Q 40.484375 56 46.34375 49.84375 
Q 52.203125 43.703125 52.203125 31.203125 
z
" id="DejaVuSans-97"/>
      <path d="M 18.109375 8.203125 
L 18.109375 -20.796875 
L 9.078125 -20.796875 
L 9.078125 54.6875 
L 18.109375 54.6875 
L 18.109375 46.390625 
Q 20.953125 51.265625 25.265625 53.625 
Q 29.59375 56 35.59375 56 
Q 45.5625 56 51.78125 48.09375 
Q 58.015625 40.1875 58.015625 27.296875 
Q 58.015625 14.40625 51.78125 6.484375 
Q 45.5625 -1.421875 35.59375 -1.421875 
Q 29.59375 -1.421875 25.265625 0.953125 
Q 20.953125 3.328125 18.109375 8.203125 
z
M 48.6875 27.296875 
Q 48.6875 37.203125 44.609375 42.84375 
Q 40.53125 48.484375 33.40625 48.484375 
Q 26.265625 48.484375 22.1875 42.84375 
Q 18.109375 37.203125 18.109375 27.296875 
Q 18.109375 17.390625 22.1875 11.75 
Q 26.265625 6.109375 33.40625 6.109375 
Q 40.53125 6.109375 44.609375 11.75 
Q 48.6875 17.390625 48.6875 27.296875 
z
" id="DejaVuSans-112"/>
     </defs>
     <g transform="translate(414.739062 412.756563)scale(0.1 -0.1)">
      <use xlink:href="#DejaVuSans-84"/>
      <use x="61.037109" xlink:href="#DejaVuSans-105"/>
      <use x="88.820312" xlink:href="#DejaVuSans-109"/>
      <use x="186.232422" xlink:href="#DejaVuSans-101"/>
      <use x="247.755859" xlink:href="#DejaVuSans-115"/>
      <use x="299.855469" xlink:href="#DejaVuSans-116"/>
      <use x="339.064453" xlink:href="#DejaVuSans-97"/>
      <use x="400.34375" xlink:href="#DejaVuSans-109"/>
      <use x="497.755859" xlink:href="#DejaVuSans-112"/>
     </g>
    </g>
   </g>
   <g id="matplotlib.axis_2">
    <g id="ytick_1">
     <g id="line2d_9">
      <defs>
       <path d="M 0 0 
L -3.5 0 
" id="md4ea46495e" style="stroke:#000000;stroke-width:0.8;"/>
      </defs>
      <g>
       <use style="stroke:#000000;stroke-width:0.8;" x="108" xlink:href="#md4ea46495e" y="358.557832"/>
      </g>
     </g>
     <g id="text_10">
      <!-- −2000 -->
      <defs>
       <path d="M 10.59375 35.5 
L 73.1875 35.5 
L 73.1875 27.203125 
L 10.59375 27.203125 
z
" id="DejaVuSans-8722"/>
      </defs>
      <g transform="translate(67.170312 362.357051)scale(0.1 -0.1)">
       <use xlink:href="#DejaVuSans-8722"/>
       <use x="83.789062" xlink:href="#DejaVuSans-50"/>
       <use x="147.412109" xlink:href="#DejaVuSans-48"/>
       <use x="211.035156" xlink:href="#DejaVuSans-48"/>
       <use x="274.658203" xlink:href="#DejaVuSans-48"/>
      </g>
     </g>
    </g>
    <g id="ytick_2">
     <g id="line2d_10">
      <g>
       <use style="stroke:#000000;stroke-width:0.8;" x="108" xlink:href="#md4ea46495e" y="309.107497"/>
      </g>
     </g>
     <g id="text_11">
      <!-- −1000 -->
      <g transform="translate(67.170312 312.906715)scale(0.1 -0.1)">
       <use xlink:href="#DejaVuSans-8722"/>
       <use x="83.789062" xlink:href="#DejaVuSans-49"/>
       <use x="147.412109" xlink:href="#DejaVuSans-48"/>
       <use x="211.035156" xlink:href="#DejaVuSans-48"/>
       <use x="274.658203" xlink:href="#DejaVuSans-48"/>
      </g>
     </g>
    </g>
    <g id="ytick_3">
     <g id="line2d_11">
      <g>
       <use style="stroke:#000000;stroke-width:0.8;" x="108" xlink:href="#md4ea46495e" y="259.657161"/>
      </g>
     </g>
     <g id="text_12">
      <!-- 0 -->
      <g transform="translate(94.6375 263.45638)scale(0.1 -0.1)">
       <use xlink:href="#DejaVuSans-48"/>
      </g>
     </g>
    </g>
    <g id="ytick_4">
     <g id="line2d_12">
      <g>
       <use style="stroke:#000000;stroke-width:0.8;" x="108" xlink:href="#md4ea46495e" y="210.206826"/>
      </g>
     </g>
     <g id="text_13">
      <!-- 1000 -->
      <g transform="translate(75.55 214.006045)scale(0.1 -0.1)">
       <use xlink:href="#DejaVuSans-49"/>
       <use x="63.623047" xlink:href="#DejaVuSans-48"/>
       <use x="127.246094" xlink:href="#DejaVuSans-48"/>
       <use x="190.869141" xlink:href="#DejaVuSans-48"/>
      </g>
     </g>
    </g>
    <g id="ytick_5">
     <g id="line2d_13">
      <g>
       <use style="stroke:#000000;stroke-width:0.8;" x="108" xlink:href="#md4ea46495e" y="160.756491"/>
      </g>
     </g>
     <g id="text_14">
      <!-- 2000 -->
      <g transform="translate(75.55 164.55571)scale(0.1 -0.1)">
       <use xlink:href="#DejaVuSans-50"/>
       <use x="63.623047" xlink:href="#DejaVuSans-48"/>
       <use x="127.246094" xlink:href="#DejaVuSans-48"/>
       <use x="190.869141" xlink:href="#DejaVuSans-48"/>
      </g>
     </g>
    </g>
    <g id="ytick_6">
     <g id="line2d_14">
      <g>
       <use style="stroke:#000000;stroke-width:0.8;" x="108" xlink:href="#md4ea46495e" y="111.306156"/>
      </g>
     </g>
     <g id="text_15">
      <!-- 3000 -->
      <defs>
       <path d="M 40.578125 39.3125 
Q 47.65625 37.796875 51.625 33 
Q 55.609375 28.21875 55.609375 21.1875 
Q 55.609375 10.40625 48.1875 4.484375 
Q 40.765625 -1.421875 27.09375 -1.421875 
Q 22.515625 -1.421875 17.65625 -0.515625 
Q 12.796875 0.390625 7.625 2.203125 
L 7.625 11.71875 
Q 11.71875 9.328125 16.59375 8.109375 
Q 21.484375 6.890625 26.8125 6.890625 
Q 36.078125 6.890625 40.9375 10.546875 
Q 45.796875 14.203125 45.796875 21.1875 
Q 45.796875 27.640625 41.28125 31.265625 
Q 36.765625 34.90625 28.71875 34.90625 
L 20.21875 34.90625 
L 20.21875 43.015625 
L 29.109375 43.015625 
Q 36.375 43.015625 40.234375 45.921875 
Q 44.09375 48.828125 44.09375 54.296875 
Q 44.09375 59.90625 40.109375 62.90625 
Q 36.140625 65.921875 28.71875 65.921875 
Q 24.65625 65.921875 20.015625 65.03125 
Q 15.375 64.15625 9.8125 62.3125 
L 9.8125 71.09375 
Q 15.4375 72.65625 20.34375 73.4375 
Q 25.25 74.21875 29.59375 74.21875 
Q 40.828125 74.21875 47.359375 69.109375 
Q 53.90625 64.015625 53.90625 55.328125 
Q 53.90625 49.265625 50.4375 45.09375 
Q 46.96875 40.921875 40.578125 39.3125 
z
" id="DejaVuSans-51"/>
      </defs>
      <g transform="translate(75.55 115.105374)scale(0.1 -0.1)">
       <use xlink:href="#DejaVuSans-51"/>
       <use x="63.623047" xlink:href="#DejaVuSans-48"/>
       <use x="127.246094" xlink:href="#DejaVuSans-48"/>
       <use x="190.869141" xlink:href="#DejaVuSans-48"/>
      </g>
     </g>
    </g>
    <g id="ytick_7">
     <g id="line2d_15">
      <g>
       <use style="stroke:#000000;stroke-width:0.8;" x="108" xlink:href="#md4ea46495e" y="61.85582"/>
      </g>
     </g>
     <g id="text_16">
      <!-- 4000 -->
      <defs>
       <path d="M 37.796875 64.3125 
L 12.890625 25.390625 
L 37.796875 25.390625 
z
M 35.203125 72.90625 
L 47.609375 72.90625 
L 47.609375 25.390625 
L 58.015625 25.390625 
L 58.015625 17.1875 
L 47.609375 17.1875 
L 47.609375 0 
L 37.796875 0 
L 37.796875 17.1875 
L 4.890625 17.1875 
L 4.890625 26.703125 
z
" id="DejaVuSans-52"/>
      </defs>
      <g transform="translate(75.55 65.655039)scale(0.1 -0.1)">
       <use xlink:href="#DejaVuSans-52"/>
       <use x="63.623047" xlink:href="#DejaVuSans-48"/>
       <use x="127.246094" xlink:href="#DejaVuSans-48"/>
       <use x="190.869141" xlink:href="#DejaVuSans-48"/>
      </g>
     </g>
    </g>
    <g id="text_17">
     <!-- Value -->
     <defs>
      <path d="M 28.609375 0 
L 0.78125 72.90625 
L 11.078125 72.90625 
L 34.1875 11.53125 
L 57.328125 72.90625 
L 67.578125 72.90625 
L 39.796875 0 
z
" id="DejaVuSans-86"/>
      <path d="M 9.421875 75.984375 
L 18.40625 75.984375 
L 18.40625 0 
L 9.421875 0 
z
" id="DejaVuSans-108"/>
      <path d="M 8.5 21.578125 
L 8.5 54.6875 
L 17.484375 54.6875 
L 17.484375 21.921875 
Q 17.484375 14.15625 20.5 10.265625 
Q 23.53125 6.390625 29.59375 6.390625 
Q 36.859375 6.390625 41.078125 11.03125 
Q 45.3125 15.671875 45.3125 23.6875 
L 45.3125 54.6875 
L 54.296875 54.6875 
L 54.296875 0 
L 45.3125 0 
L 45.3125 8.40625 
Q 42.046875 3.421875 37.71875 1 
Q 33.40625 -1.421875 27.6875 -1.421875 
Q 18.265625 -1.421875 13.375 4.4375 
Q 8.5 10.296875 8.5 21.578125 
z
M 31.109375 56 
z
" id="DejaVuSans-117"/>
     </defs>
     <g transform="translate(61.090625 232.273281)rotate(-90)scale(0.1 -0.1)">
      <use xlink:href="#DejaVuSans-86"/>
      <use x="68.298828" xlink:href="#DejaVuSans-97"/>
      <use x="129.578125" xlink:href="#DejaVuSans-108"/>
      <use x="157.361328" xlink:href="#DejaVuSans-117"/>
      <use x="220.740234" xlink:href="#DejaVuSans-101"/>
     </g>
    </g>
   </g>
   <g id="line2d_16">
    <path clip-path="url(#p7ee9c92b90)" d="M 138.436364 243.225611 
L 138.796557 206.890244 
L 139.156751 197.195646 
L 139.516945 173.813251 
L 139.877138 168.480794 
L 140.237332 202.05391 
L 140.597526 218.071022 
L 140.957719 206.763383 
L 141.317913 269.166531 
L 141.678107 263.044087 
L 142.0383 265.751031 
L 142.398494 275.867319 
L 142.758687 262.124026 
L 143.118881 230.417252 
L 143.479075 226.001476 
L 143.839268 236.820046 
L 144.199462 239.761216 
L 144.919849 301.694138 
L 145.280043 303.226985 
L 146.00043 327.333329 
L 146.360624 297.98682 
L 146.720818 286.416101 
L 147.081011 257.138068 
L 147.441205 206.136163 
L 147.801399 192.225992 
L 148.161592 165.728478 
L 148.521786 161.490337 
L 148.88198 174.040245 
L 149.242173 211.265629 
L 150.322754 258.634981 
L 150.682948 242.433492 
L 151.043141 242.55966 
L 151.763529 214.466542 
L 152.123722 211.725289 
L 152.483916 222.922354 
L 152.84411 222.775958 
L 153.204303 282.831505 
L 153.564497 265.199771 
L 153.924691 305.020202 
L 154.284884 304.47817 
L 154.645078 337.807697 
L 156.446046 167.657429 
L 156.80624 151.869865 
L 157.166434 156.350004 
L 158.247015 215.684826 
L 158.607208 255.569693 
L 158.967402 273.40805 
L 159.327595 279.133729 
L 159.687789 259.879824 
L 160.047983 223.588166 
L 160.408176 250.482407 
L 160.76837 215.67233 
L 161.128564 214.200228 
L 161.488757 263.267557 
L 161.848951 237.957988 
L 162.209145 288.110071 
L 162.569338 284.828026 
L 162.929532 324.892574 
L 163.289726 295.018894 
L 163.649919 297.319019 
L 164.010113 259.560574 
L 164.370307 254.374513 
L 164.7305 202.227233 
L 165.090694 187.518435 
L 165.450888 165.864627 
L 165.811081 168.760346 
L 166.171275 161.439276 
L 166.891662 245.467761 
L 167.251856 253.899536 
L 167.612049 245.918989 
L 167.972243 282.391014 
L 168.332437 256.869611 
L 168.69263 252.099968 
L 169.052824 252.149091 
L 169.413018 241.481655 
L 169.773211 253.929534 
L 170.133405 253.4053 
L 171.57418 348.509351 
L 171.934373 346.930028 
L 172.294567 330.631842 
L 172.654761 329.53798 
L 173.014954 266.635623 
L 173.735342 203.906677 
L 174.455729 188.397102 
L 174.815923 194.610609 
L 175.896503 284.431323 
L 176.256697 282.213238 
L 176.616891 283.866551 
L 176.977084 292.231528 
L 177.337278 290.529632 
L 178.057665 254.606569 
L 178.417859 254.684198 
L 178.778053 261.486431 
L 179.138246 302.471337 
L 179.49844 315.162292 
L 179.858634 338.527902 
L 180.218827 347.983138 
L 180.579021 363.553138 
L 180.939215 337.6668 
L 181.299408 320.094178 
L 181.659602 294.521258 
L 182.019796 226.59923 
L 182.379989 199.383583 
L 182.740183 205.226446 
L 183.100377 169.213475 
L 183.820764 229.65882 
L 184.180958 274.938804 
L 184.541151 294.332088 
L 184.901345 290.025659 
L 185.261538 309.607517 
L 185.621732 272.364355 
L 185.981926 277.381048 
L 186.342119 255.525993 
L 186.702313 259.944678 
L 187.062507 254.267009 
L 187.4227 257.369288 
L 187.782894 277.018763 
L 188.143088 318.356514 
L 188.503281 337.587087 
L 188.863475 369.36 
L 189.223669 329.418762 
L 189.583862 318.134732 
L 189.944056 318.316381 
L 190.664443 230.378717 
L 191.024637 200.610411 
L 191.384831 188.335062 
L 191.745024 187.900897 
L 192.105218 229.491635 
L 192.465412 213.910307 
L 192.825605 232.448251 
L 193.185799 261.799327 
L 193.545992 263.779636 
L 193.906186 273.914938 
L 194.26638 251.161348 
L 194.626573 263.521838 
L 194.986767 228.037649 
L 195.346961 236.629271 
L 195.707154 235.699331 
L 196.067348 270.923716 
L 196.787735 306.667205 
L 197.147929 327.427206 
L 197.508123 314.975809 
L 197.868316 337.403191 
L 198.22851 291.206796 
L 198.588704 283.799769 
L 198.948897 240.282968 
L 199.309091 234.21583 
L 199.669285 172.690502 
L 200.029478 159.936011 
L 200.389672 162.078075 
L 200.749866 283.372408 
L 201.110059 184.448128 
L 201.470253 205.512942 
L 201.830446 250.50009 
L 202.19064 233.295052 
L 202.550834 266.380178 
L 202.911027 249.704932 
L 203.271221 252.683872 
L 203.631415 216.428369 
L 203.991608 221.712366 
L 204.351802 224.779232 
L 204.711996 252.570996 
L 205.072189 267.56248 
L 205.432383 277.13579 
L 205.792577 294.636377 
L 206.15277 306.094623 
L 206.512964 303.917571 
L 206.873158 313.729296 
L 207.233351 283.409281 
L 207.593545 230.730808 
L 208.674126 146.678793 
L 209.394513 180.127651 
L 209.754707 182.34626 
L 210.1149 213.59358 
L 210.475094 223.584245 
L 210.835288 268.232734 
L 211.195481 251.852723 
L 211.555675 219.614637 
L 211.915869 227.304082 
L 212.276062 207.756785 
L 212.636256 200.882123 
L 213.356643 240.667596 
L 213.716837 247.067765 
L 214.077031 267.96375 
L 214.437224 306.476479 
L 214.797418 300.323674 
L 215.157612 328.133853 
L 215.517805 284.937592 
L 215.877999 257.732166 
L 216.238193 255.187102 
L 216.598386 194.936961 
L 216.95858 174.82851 
L 217.318774 147.241216 
L 217.678967 163.031883 
L 218.039161 152.697869 
L 218.399354 170.748317 
L 218.759548 221.903245 
L 219.119742 222.824426 
L 219.479935 241.474754 
L 219.840129 246.968715 
L 220.200323 240.210107 
L 220.560516 248.600965 
L 221.280904 210.668136 
L 221.641097 205.516898 
L 222.001291 240.765768 
L 222.361485 255.180927 
L 223.442066 321.657433 
L 223.802259 307.412296 
L 224.162453 309.931249 
L 225.243034 204.197315 
L 225.603228 146.83362 
L 225.963421 174.398405 
L 226.323615 154.712446 
L 227.044002 197.720985 
L 227.404196 188.763346 
L 227.764389 251.861721 
L 228.124583 255.596414 
L 228.484777 240.817386 
L 228.84497 262.832212 
L 229.205164 242.505934 
L 229.565358 257.205813 
L 229.925551 247.919487 
L 230.285745 277.527227 
L 230.645939 249.771853 
L 231.006132 284.036871 
L 231.366326 287.865519 
L 231.72652 324.898183 
L 232.086713 308.502219 
L 232.446907 316.381652 
L 232.807101 321.002124 
L 233.167294 305.824566 
L 233.527488 247.907401 
L 233.887682 221.651045 
L 234.247875 186.983986 
L 234.608069 178.27914 
L 235.328456 191.795371 
L 235.68865 201.322045 
L 236.048843 217.744536 
L 236.769231 279.494701 
L 237.129424 275.453391 
L 237.849812 245.613524 
L 238.570199 238.092483 
L 238.930393 239.85197 
L 239.290586 256.870403 
L 240.010974 323.016812 
L 240.371167 321.424687 
L 240.731361 320.840152 
L 241.091555 323.419024 
L 241.451748 340.457947 
L 242.172136 265.803839 
L 242.892523 202.657984 
L 243.252717 197.137541 
L 243.61291 204.116132 
L 243.973104 194.807124 
L 244.333297 216.078582 
L 244.693491 250.45212 
L 245.053685 268.516924 
L 245.413878 305.09385 
L 245.774072 282.977154 
L 246.134266 271.205048 
L 246.494459 276.033281 
L 246.854653 227.805677 
L 247.214847 235.652517 
L 247.57504 236.024444 
L 247.935234 248.492787 
L 248.295428 305.439429 
L 248.655621 277.565849 
L 249.015815 342.585346 
L 249.376009 344.99811 
L 249.736202 327.853835 
L 250.096396 324.103476 
L 250.816783 273.788504 
L 251.176977 203.699132 
L 251.537171 198.977702 
L 251.897364 178.202657 
L 252.257558 168.088304 
L 252.617751 176.1808 
L 252.977945 209.475763 
L 253.698332 245.096405 
L 254.058526 284.939697 
L 254.41872 266.226052 
L 254.778913 276.673064 
L 255.499301 221.644287 
L 255.859494 219.037051 
L 256.219688 220.398131 
L 256.579882 255.435916 
L 256.940075 245.939115 
L 257.300269 298.824806 
L 257.660463 303.607977 
L 258.020656 340.320514 
L 258.38085 350.606581 
L 258.741044 309.08483 
L 260.542012 166.414101 
L 260.902205 169.178188 
L 261.262399 164.240964 
L 261.622593 170.975139 
L 261.982786 224.089958 
L 262.34298 234.953834 
L 262.703174 256.857955 
L 263.063367 266.798505 
L 263.423561 260.915147 
L 263.783755 225.725844 
L 264.143948 221.720963 
L 264.504142 201.05701 
L 265.224529 225.26821 
L 265.584723 244.31833 
L 266.30511 302.941406 
L 267.025498 285.014674 
L 267.385691 301.164821 
L 268.106079 219.342056 
L 268.466272 208.877215 
L 268.826466 138.175269 
L 269.186659 143.34391 
L 269.546853 152.025246 
L 269.907047 165.988356 
L 270.26724 186.062523 
L 270.627434 225.70532 
L 270.987628 235.642306 
L 271.347821 233.446855 
L 271.708015 246.232396 
L 272.068209 226.559422 
L 272.788596 214.707749 
L 273.14879 202.879164 
L 273.508983 235.188545 
L 273.869177 220.981381 
L 274.229371 231.046681 
L 274.589564 287.672057 
L 274.949758 291.515849 
L 275.309952 310.568707 
L 275.670145 300.80586 
L 276.030339 266.793595 
L 276.390533 246.478515 
L 276.750726 215.500108 
L 277.11092 171.501963 
L 277.471114 183.557855 
L 277.831307 133.891938 
L 278.191501 145.422949 
L 278.551694 186.189229 
L 278.911888 196.450586 
L 279.272082 216.965623 
L 279.632275 221.706063 
L 279.992469 237.266926 
L 280.352663 209.367532 
L 280.712856 230.080917 
L 281.07305 219.548475 
L 281.433244 216.41828 
L 281.793437 221.5639 
L 282.153631 211.959938 
L 282.513825 211.726754 
L 282.874018 226.236917 
L 283.234212 269.266355 
L 283.594406 294.977914 
L 283.954599 297.508455 
L 284.314793 308.037487 
L 284.674987 300.310794 
L 285.03518 280.676503 
L 285.395374 301.60277 
L 285.755568 202.687302 
L 286.115761 165.243338 
L 286.475955 155.064851 
L 286.836148 160.210128 
L 287.196342 172.209157 
L 287.556536 203.308697 
L 287.916729 213.663758 
L 288.276923 256.291569 
L 288.637117 255.71782 
L 288.99731 247.660523 
L 289.357504 273.64796 
L 290.077891 234.181551 
L 290.438085 212.602624 
L 290.798279 231.009999 
L 291.158472 260.299014 
L 291.518666 271.182602 
L 291.87886 277.997515 
L 292.239053 299.056847 
L 292.599247 347.008263 
L 292.959441 332.935516 
L 293.679828 271.675863 
L 294.040022 251.085499 
L 294.400215 192.746307 
L 295.120602 158.098082 
L 295.480796 163.585787 
L 296.201183 215.215177 
L 296.561377 225.643888 
L 296.921571 253.141501 
L 297.641958 283.670085 
L 298.002152 272.368803 
L 298.362345 158.301173 
L 298.722539 254.514607 
L 299.082733 221.160597 
L 299.442926 216.016538 
L 299.80312 278.676624 
L 300.163314 255.143771 
L 300.523507 310.110742 
L 300.883701 317.091051 
L 301.243895 337.700772 
L 301.604088 345.056256 
L 302.324476 296.182804 
L 302.684669 258.032301 
L 303.044863 198.738633 
L 303.405056 178.183576 
L 303.76525 179.222818 
L 304.485637 172.009094 
L 304.845831 212.239931 
L 305.206025 239.519498 
L 305.566218 251.810687 
L 305.926412 276.100969 
L 306.286606 268.077453 
L 306.646799 257.122034 
L 307.006993 262.988148 
L 307.367187 221.906374 
L 307.72738 209.626111 
L 308.087574 253.234303 
L 308.447768 258.946988 
L 309.168155 295.118656 
L 309.528349 329.772019 
L 309.888542 343.477349 
L 310.60893 315.938394 
L 310.969123 279.749913 
L 311.329317 255.126107 
L 311.68951 201.744446 
L 312.409898 154.858863 
L 312.770091 168.891308 
L 313.130285 172.828921 
L 313.490479 181.723121 
L 313.850672 232.889192 
L 314.210866 252.305762 
L 314.57106 283.843049 
L 314.931253 256.555765 
L 315.291447 239.352174 
L 315.651641 235.552758 
L 316.011834 195.279517 
L 316.372028 233.594458 
L 316.732222 193.934179 
L 317.092415 243.552874 
L 317.452609 240.25153 
L 318.172996 300.68978 
L 318.893384 319.002999 
L 319.253577 299.661265 
L 319.613771 257.633432 
L 319.973964 244.378571 
L 320.334158 192.017373 
L 321.054545 141.475506 
L 321.414739 170.207235 
L 321.774933 178.60955 
L 322.135126 194.599844 
L 322.49532 193.249219 
L 322.855514 239.341905 
L 323.215707 250.56557 
L 323.575901 240.797539 
L 323.936095 215.043658 
L 324.296288 239.324237 
L 324.656482 241.374165 
L 325.016676 197.881675 
L 325.376869 210.4251 
L 325.737063 203.716889 
L 326.097257 225.813743 
L 326.45745 276.03899 
L 326.817644 292.655649 
L 327.177838 291.934758 
L 327.538031 316.345538 
L 327.898225 295.132816 
L 328.258419 244.028453 
L 329.338999 150.352311 
L 329.699193 146.173923 
L 330.059387 134.469419 
L 331.139968 188.922687 
L 331.500161 202.330787 
L 331.860355 232.224218 
L 332.220549 248.75805 
L 332.580742 221.542898 
L 333.661323 176.306666 
L 334.021517 203.446609 
L 334.381711 218.086845 
L 334.741904 237.77444 
L 335.102098 273.038629 
L 335.462292 270.058967 
L 335.822485 291.356542 
L 336.182679 295.270093 
L 336.542873 275.305006 
L 337.26326 192.638131 
L 337.623453 188.877097 
L 337.983647 141.577675 
L 338.343841 131.352756 
L 339.424422 175.726137 
L 339.784615 178.327961 
L 340.505003 230.032935 
L 340.865196 223.50588 
L 341.22539 240.83333 
L 341.585584 220.105928 
L 341.945777 206.378857 
L 342.305971 198.824993 
L 342.666165 205.975374 
L 343.026358 216.067948 
L 343.746746 288.254269 
L 344.106939 294.259486 
L 344.467133 276.718522 
L 344.827327 315.603987 
L 345.18752 299.340573 
L 345.547714 248.936699 
L 345.907907 238.739588 
L 346.268101 198.980194 
L 346.628295 193.625263 
L 347.348682 129.773354 
L 348.429263 206.405224 
L 348.789457 225.395917 
L 349.14965 264.689487 
L 349.509844 233.628177 
L 349.870038 235.849956 
L 350.230231 247.458098 
L 350.590425 202.98697 
L 350.950619 192.898043 
L 351.310812 214.166124 
L 351.671006 221.048205 
L 352.0312 270.618145 
L 352.391393 276.507595 
L 353.111781 325.492466 
L 353.471974 328.708416 
L 353.832168 325.248653 
L 354.192361 257.683832 
L 354.912749 217.176403 
L 355.272942 165.839614 
L 355.633136 173.574198 
L 355.99333 157.443299 
L 356.353523 188.159631 
L 356.713717 171.020439 
L 357.073911 224.981872 
L 357.434104 227.486008 
L 357.794298 250.729184 
L 358.154492 263.791862 
L 358.514685 237.25925 
L 358.874879 246.365724 
L 359.235073 244.886207 
L 359.595266 219.537399 
L 359.95546 228.91513 
L 361.396235 334.635979 
L 361.756428 318.008568 
L 362.116622 342.546838 
L 362.476815 322.233065 
L 363.91759 166.770974 
L 364.277784 163.625955 
L 364.637977 165.881299 
L 364.998171 173.336832 
L 365.358365 217.39822 
L 365.718558 212.076295 
L 366.078752 243.70546 
L 366.438946 257.324406 
L 366.799139 281.422488 
L 367.159333 268.579936 
L 367.519527 245.079843 
L 367.87972 240.287319 
L 368.239914 219.455074 
L 370.040882 303.471279 
L 370.401076 322.560037 
L 370.761269 325.081075 
L 371.121463 321.549225 
L 371.84185 233.916201 
L 372.562238 171.969413 
L 372.922431 153.466333 
L 373.282625 149.336158 
L 374.003012 182.065627 
L 374.363206 216.139083 
L 374.7234 261.813438 
L 375.083593 251.693382 
L 375.443787 252.694305 
L 375.803981 245.644162 
L 376.164174 263.880253 
L 376.524368 228.209488 
L 376.884562 226.064426 
L 377.244755 210.569334 
L 377.604949 232.114996 
L 377.965143 267.479561 
L 378.325336 277.709631 
L 378.68553 323.58836 
L 379.045724 303.0237 
L 379.405917 210.604682 
L 379.766111 298.870673 
L 380.126304 273.103349 
L 380.486498 217.719439 
L 380.846692 208.331909 
L 381.567079 129.655195 
L 381.927273 150.621821 
L 382.287466 160.668079 
L 382.64766 180.340334 
L 383.007854 174.835033 
L 383.728241 256.205738 
L 384.088435 234.710355 
L 384.448628 235.823986 
L 384.808822 169.810751 
L 385.169016 198.824899 
L 385.529209 209.669176 
L 385.889403 210.126654 
L 386.249597 184.589867 
L 386.60979 237.297682 
L 387.690371 295.312967 
L 388.050565 286.4409 
L 388.410758 256.955276 
L 388.770952 245.705192 
L 389.131146 220.970435 
L 389.491339 173.167308 
L 390.57192 104.769818 
L 390.932114 134.315471 
L 391.292308 146.06996 
L 391.652501 202.486652 
L 392.012695 201.368503 
L 392.372889 227.249166 
L 392.733082 236.578174 
L 393.093276 226.434349 
L 393.45347 185.229925 
L 393.813663 205.165875 
L 394.173857 200.483939 
L 394.534051 182.845194 
L 394.894244 182.529973 
L 395.254438 222.261454 
L 395.614632 248.787926 
L 395.974825 253.140269 
L 396.695212 281.093302 
L 397.055406 285.395749 
L 397.4156 230.969036 
L 398.856374 97.06062 
L 399.216568 121.172728 
L 399.576762 135.351722 
L 399.936955 160.068574 
L 400.297149 195.529765 
L 400.657343 203.284752 
L 401.017536 214.925912 
L 401.37773 205.996279 
L 401.737924 232.671288 
L 402.098117 211.063977 
L 402.818505 181.13748 
L 403.178698 194.353862 
L 404.259279 254.195199 
L 404.979666 308.103392 
L 405.33986 294.05264 
L 406.060247 240.478359 
L 406.420441 224.972198 
L 406.780635 164.268729 
L 407.140828 142.813602 
L 407.501022 129.918662 
L 407.861216 149.630131 
L 408.221409 141.656925 
L 408.941797 204.655252 
L 409.30199 217.633275 
L 409.662184 240.484502 
L 410.382571 220.333526 
L 410.742765 215.256029 
L 411.102959 214.623981 
L 411.463152 212.058679 
L 411.823346 224.159283 
L 412.18354 226.917912 
L 412.543733 236.548304 
L 412.903927 261.327543 
L 413.26412 300.46225 
L 413.624314 312.763356 
L 413.984508 313.25552 
L 414.344701 286.648516 
L 414.704895 242.738892 
L 415.065089 227.939827 
L 415.425282 270.481657 
L 415.785476 176.55315 
L 416.505863 156.279537 
L 416.866057 155.887886 
L 417.226251 201.575137 
L 417.586444 206.688617 
L 417.946638 226.088755 
L 418.306832 235.425027 
L 418.667025 256.00638 
L 419.027219 242.744456 
L 419.387413 239.914534 
L 419.747606 225.976516 
L 420.1078 237.14446 
L 420.467994 242.717228 
L 420.828187 231.444771 
L 421.908768 315.422057 
L 422.268962 309.274624 
L 422.629155 316.402621 
L 422.989349 306.243123 
L 423.709736 214.024893 
L 424.06993 228.836442 
L 424.430124 172.885106 
L 424.790317 158.234814 
L 425.150511 166.043793 
L 425.510705 167.624284 
L 425.870898 170.061031 
L 426.231092 226.27243 
L 426.591286 239.224642 
L 426.951479 266.933996 
L 427.311673 243.215492 
L 427.671867 237.945393 
L 428.03206 250.551258 
L 428.392254 222.508566 
L 428.752448 216.365831 
L 429.112641 234.031061 
L 429.472835 222.42759 
L 429.833029 265.670493 
L 430.193222 272.599728 
L 430.553416 312.947098 
L 430.913609 310.328044 
L 431.273803 308.686607 
L 431.633997 304.348117 
L 431.99419 248.295949 
L 432.354384 227.868936 
L 432.714578 221.995601 
L 433.434965 137.969907 
L 433.795159 167.857221 
L 434.155352 162.792933 
L 434.515546 183.570937 
L 435.235933 243.808978 
L 435.596127 247.402022 
L 435.956321 234.829756 
L 436.316514 253.659258 
L 436.676708 233.824814 
L 437.036902 203.394033 
L 437.397095 199.628351 
L 437.757289 236.122884 
L 438.117483 219.019897 
L 438.477676 234.613058 
L 438.83787 264.172885 
L 439.198063 280.720935 
L 439.558257 317.093641 
L 439.918451 302.846055 
L 440.278644 268.643239 
L 440.638838 253.659265 
L 440.999032 197.013264 
L 441.719419 153.022168 
L 442.079613 143.058119 
L 442.439806 127.693308 
L 442.8 137.304889 
L 443.520387 195.987343 
L 443.880581 219.976412 
L 444.961162 238.930615 
L 445.321356 194.733212 
L 445.681549 193.079762 
L 446.401937 162.513894 
L 446.76213 199.870076 
L 447.122324 218.297081 
L 447.482517 252.503164 
L 447.842711 275.695846 
L 448.202905 290.334162 
L 448.563098 269.203225 
L 448.923292 300.070076 
L 449.283486 230.68842 
L 449.643679 201.05918 
L 450.003873 153.776213 
L 450.72426 115.053478 
L 451.084454 111.65658 
L 451.804841 169.470634 
L 452.165035 167.801653 
L 452.525229 111.458188 
L 452.885422 224.479771 
L 453.245616 206.123265 
L 453.60581 212.622963 
L 453.966003 208.457793 
L 454.326197 165.66931 
L 455.406778 195.554104 
L 455.766971 228.009012 
L 456.127165 232.561207 
L 456.847552 289.237538 
L 457.56794 249.216693 
L 457.928133 219.931147 
L 458.288327 208.052482 
L 458.648521 134.194036 
L 459.008714 137.515138 
L 459.368908 127.241387 
L 459.729102 109.00994 
L 460.089295 145.243317 
L 460.449489 159.356559 
L 461.169876 201.603474 
L 461.53007 214.079009 
L 461.890264 212.59016 
L 462.250457 223.677095 
L 462.610651 200.850097 
L 463.331038 174.258187 
L 463.691232 193.768231 
L 464.051425 228.797637 
L 464.771813 247.372439 
L 465.132006 285.27805 
L 465.4922 264.066734 
L 465.852394 290.665212 
L 466.212587 281.561647 
L 466.572781 251.731279 
L 466.932975 189.313202 
L 467.293168 165.203337 
L 467.653362 128.374088 
L 468.013556 147.413914 
L 468.373749 123.388434 
L 468.733943 131.327292 
L 469.094137 174.510531 
L 469.45433 174.49742 
L 469.814524 213.247081 
L 470.174718 215.407398 
L 470.534911 243.671156 
L 470.895105 245.350288 
L 471.255299 208.091521 
L 471.615492 194.115335 
L 472.33588 217.582704 
L 472.696073 215.184534 
L 473.056267 228.904139 
L 473.776654 294.846404 
L 474.136848 297.027475 
L 474.497041 313.396977 
L 474.857235 298.307736 
L 475.937816 203.428141 
L 476.658203 138.521641 
L 477.018397 138.527405 
L 477.378591 171.761815 
L 477.738784 162.522277 
L 478.098978 210.626672 
L 478.459172 219.545707 
L 478.819365 217.480719 
L 479.179559 259.364897 
L 479.539753 230.565152 
L 479.899946 225.905253 
L 480.26014 215.329607 
L 480.620334 218.426549 
L 480.980527 234.228687 
L 481.340721 227.54514 
L 481.700914 250.489709 
L 482.061108 259.436902 
L 482.421302 307.114514 
L 482.781495 318.968129 
L 483.141689 317.509775 
L 483.501883 289.687794 
L 483.862076 271.12028 
L 484.582464 187.228306 
L 485.302851 143.207004 
L 485.663045 155.254719 
L 486.023238 151.230585 
L 486.743626 227.756453 
L 487.103819 225.518726 
L 487.464013 247.224345 
L 487.824207 249.77756 
L 488.1844 258.382852 
L 488.544594 215.821464 
L 488.904788 200.799003 
L 489.625175 241.526287 
L 489.985368 236.710417 
L 490.345562 228.251016 
L 490.705756 273.954094 
L 491.065949 294.168915 
L 491.426143 325.805592 
L 491.786337 310.280362 
L 492.14653 288.14551 
L 492.506724 244.817795 
L 492.866918 235.894128 
L 493.587305 154.553908 
L 493.947499 151.927306 
L 494.307692 139.876646 
L 494.667886 161.06178 
L 495.02808 174.823171 
L 495.748467 231.529764 
L 496.108661 245.36567 
L 496.468854 252.744585 
L 496.829048 234.990197 
L 497.189242 206.703182 
L 497.549435 204.322677 
L 497.909629 206.167469 
L 498.269822 217.439808 
L 498.630016 232.203646 
L 498.99021 228.507153 
L 499.710597 263.780795 
L 500.070791 267.463362 
L 500.430984 295.219369 
L 501.151372 246.978285 
L 501.511565 215.380657 
L 501.871759 196.405994 
L 502.231953 136.903469 
L 502.95234 98.637033 
L 503.312534 146.515611 
L 503.672727 171.737495 
L 504.753308 217.424427 
L 505.113502 222.760077 
L 505.473696 213.468774 
L 505.833889 186.992319 
L 506.194083 205.43491 
L 506.554276 164.221309 
L 506.91447 168.465279 
L 507.274664 200.071892 
L 507.634857 203.187715 
L 507.995051 253.242733 
L 508.355245 285.464106 
L 508.715438 273.103051 
L 509.075632 268.226759 
L 509.796019 242.120347 
L 510.516407 165.984644 
L 510.8766 120.543012 
L 511.236794 110.80256 
L 511.596988 127.783281 
L 511.957181 117.484015 
L 512.677569 176.504424 
L 513.037762 188.223352 
L 513.397956 188.284761 
L 513.75815 236.895653 
L 514.118343 193.732147 
L 514.478537 183.783745 
L 514.838731 182.702423 
L 515.198924 162.642759 
L 515.559118 178.179454 
L 515.919311 186.437959 
L 516.279505 219 
L 516.639699 241.358884 
L 516.999892 253.480951 
L 517.360086 279.696546 
L 517.72028 261.79863 
L 518.080473 285.128795 
L 518.440667 199.635921 
L 519.161054 161.632043 
L 519.881442 100.202955 
L 520.241635 107.185701 
L 520.601829 117.35502 
L 521.322216 157.37083 
L 521.68241 199.02354 
L 522.042604 189.819903 
L 522.402797 223.543071 
L 522.762991 198.428579 
L 523.123185 187.79486 
L 523.483378 166.915948 
L 523.843572 161.422568 
L 524.203765 194.757338 
L 524.563959 182.699403 
L 524.924153 231.352179 
L 525.284346 237.268972 
L 525.64454 248.783959 
L 526.004734 272.538721 
L 526.364927 158.958566 
L 526.725121 269.376339 
L 527.085315 315.421931 
L 527.445508 197.60034 
L 528.526089 106.413573 
L 528.886283 123.144167 
L 529.246477 122.613669 
L 529.60667 138.975538 
L 529.966864 190.504316 
L 530.327058 225.551477 
L 530.687251 218.956865 
L 531.047445 217.684515 
L 531.407639 209.362907 
L 531.767832 197.989825 
L 532.128026 195.497587 
L 532.488219 169.858752 
L 532.848413 184.656452 
L 533.208607 212.780541 
L 533.928994 254.199504 
L 534.289188 273.790487 
L 534.649381 279.342536 
L 535.009575 267.87931 
L 535.369769 276.420068 
L 535.729962 250.029393 
L 536.45035 164.492339 
L 536.810543 158.770739 
L 537.170737 121.737957 
L 537.530931 127.029183 
L 538.251318 167.186305 
L 539.331899 240.607112 
L 539.692093 238.067356 
L 540.052286 233.337122 
L 540.41248 222.844787 
L 540.772673 200.573187 
L 541.853254 233.327937 
L 542.933835 293.734918 
L 543.294029 307.704949 
L 543.654223 288.599189 
L 544.014416 286.524357 
L 544.37461 253.155668 
L 544.734804 238.510556 
L 545.094997 177.132487 
L 545.455191 159.065935 
L 545.815385 160.747829 
L 546.175578 147.023192 
L 546.535772 152.550505 
L 547.616353 234.802226 
L 547.976547 235.232664 
L 548.33674 245.117639 
L 548.696934 229.734967 
L 549.417321 174.598566 
L 549.777515 203.115784 
L 550.137708 217.629215 
L 550.497902 199.428221 
L 550.858096 227.500264 
L 551.218289 267.073149 
L 551.578483 277.688417 
L 551.938677 307.443061 
L 552.659064 287.253385 
L 553.019258 256.121898 
L 553.379451 240.598778 
L 553.739645 194.76377 
L 554.099839 125.871872 
L 554.460032 134.056437 
L 554.820226 128.354771 
L 555.18042 133.184499 
L 555.540613 156.409709 
L 555.900807 209.158917 
L 556.261001 189.500529 
L 556.621194 219.750043 
L 556.981388 209.377132 
L 557.341581 230.623492 
L 557.701775 216.317841 
L 558.061969 190.423097 
L 558.422162 194.690517 
L 558.782356 191.659367 
L 559.502743 222.323126 
L 559.862937 251.984337 
L 560.223131 303.239734 
L 560.583324 294.441324 
L 560.943518 266.162212 
L 561.303712 282.35931 
L 561.663905 233.831783 
L 562.024099 204.430166 
L 562.384293 143.391035 
L 562.744486 146.239191 
L 563.10468 108.13414 
L 563.464874 140.045258 
L 563.825067 131.817026 
L 564.185261 167.503084 
L 564.545455 186.137047 
L 564.905648 190.444177 
L 565.265842 226.148751 
L 565.626036 212.31498 
L 565.986229 214.135169 
L 566.706616 183.587834 
L 567.06681 185.713635 
L 567.787197 199.765926 
L 568.147391 183.641268 
L 568.507585 222.550382 
L 568.867778 248.640663 
L 569.227972 244.494959 
L 569.588166 252.348189 
L 569.948359 237.160117 
L 570.308553 209.465917 
L 570.668747 207.135781 
L 571.389134 103.038354 
L 571.749328 100.503826 
L 572.109521 99.542625 
L 572.469715 82.950575 
L 572.829909 123.820121 
L 573.190102 144.809272 
L 573.550296 202.985086 
L 573.91049 210.05248 
L 574.270683 208.492556 
L 574.630877 216.085593 
L 574.99107 178.592955 
L 575.351264 176.684351 
L 575.711458 164.160334 
L 576.071651 155.565361 
L 576.431845 169.37988 
L 576.792039 206.156809 
L 577.87262 262.844391 
L 578.232813 252.574785 
L 578.593007 257.69465 
L 578.953201 235.158722 
L 579.673588 142.288881 
L 580.393975 85.290733 
L 580.754169 95.682633 
L 581.114363 112.371908 
L 581.474556 156.828306 
L 582.194944 177.722056 
L 582.555137 203.4071 
L 582.915331 202.646375 
L 583.275524 196.547733 
L 583.635718 208.890832 
L 583.995912 182.085885 
L 584.356105 68.448528 
L 584.716299 165.715222 
L 585.076493 188.667619 
L 585.436686 196.405489 
L 585.79688 239.046483 
L 586.877461 265.338715 
L 587.237655 233.968058 
L 587.597848 228.215836 
L 588.318236 154.774578 
L 588.678429 126.65688 
L 589.038623 118.404069 
L 589.398817 104.794987 
L 589.75901 106.938822 
L 590.479398 190.590457 
L 590.839591 158.535263 
L 591.199785 213.390692 
L 591.559978 203.899913 
L 591.920172 216.340208 
L 592.280366 204.199756 
L 592.640559 167.662295 
L 593.000753 153.38173 
L 593.360947 171.619776 
L 593.72114 198.61006 
L 594.081334 210.903561 
L 594.441528 250.500541 
L 595.161915 283.797073 
L 595.522109 281.431494 
L 595.882302 246.049859 
L 596.242496 245.150369 
L 596.60269 233.421166 
L 597.323077 152.366154 
L 597.683271 111.512334 
L 598.043464 124.033024 
L 598.403658 222.551494 
L 598.763852 163.038207 
L 599.124045 177.843663 
L 599.844432 245.515596 
L 600.204626 225.730754 
L 600.56482 226.019292 
L 600.925013 217.307973 
L 601.285207 193.376472 
L 601.645401 180.922394 
L 602.005594 177.443612 
L 602.725982 237.755064 
L 603.446369 296.984193 
L 603.806563 267.436395 
L 604.166756 287.438546 
L 604.52695 278.224012 
L 604.887144 274.319391 
L 605.607531 156.464306 
L 605.967725 145.638092 
L 606.327918 141.76798 
L 606.688112 129.692832 
L 607.048306 155.983225 
L 607.408499 154.579176 
L 607.768693 177.031424 
L 608.128886 191.239291 
L 608.48908 236.131194 
L 608.849274 250.002973 
L 609.209467 223.0946 
L 609.569661 219.556555 
L 609.929855 213.679383 
L 610.290048 192.265086 
L 610.650242 197.993157 
L 611.010436 213.73482 
L 611.730823 277.791506 
L 612.091017 283.125187 
L 612.45121 297.360434 
L 612.811404 292.277876 
L 613.171598 290.619069 
L 613.891985 208.874634 
L 614.252179 182.526414 
L 614.972566 105.247758 
L 615.33276 140.918768 
L 615.692953 121.2902 
L 616.053147 127.623145 
L 616.413341 187.61538 
L 616.773534 225.241689 
L 617.133728 218.207676 
L 617.493921 230.874936 
L 617.854115 204.042418 
L 618.574502 197.513924 
L 618.934696 199.836615 
L 619.29489 181.649521 
L 619.655083 194.973301 
L 620.015277 240.494502 
L 620.375471 226.947071 
L 620.735664 261.365705 
L 621.456052 253.259349 
L 621.816245 245.760079 
L 622.176439 231.100455 
L 622.896826 157.368438 
L 623.25702 121.66883 
L 623.617214 98.368741 
L 624.337601 114.516118 
L 624.697795 133.464944 
L 625.057988 173.885308 
L 625.418182 194.820683 
L 625.778375 100.922212 
L 626.138569 206.536674 
L 627.21915 170.380346 
L 627.579344 169.582495 
L 627.939537 152.527529 
L 628.299731 164.381642 
L 628.659925 184.646409 
L 629.020118 244.178192 
L 629.380312 240.927143 
L 629.740506 271.392773 
L 630.100699 244.205401 
L 630.460893 251.256537 
L 630.821087 192.0836 
L 631.18128 172.204932 
L 631.541474 130.795318 
L 631.901668 106.248435 
L 632.261861 117.146926 
L 632.622055 81.208186 
L 632.982249 101.300057 
L 633.342442 131.901513 
L 633.702636 151.077208 
L 634.062829 161.965289 
L 634.423023 177.981405 
L 634.783217 202.082044 
L 635.14341 192.718993 
L 635.503604 164.585689 
L 635.863798 167.557145 
L 636.223991 173.926386 
L 636.584185 170.405666 
L 636.944379 170.130621 
L 637.304572 170.559255 
L 637.664766 198.119091 
L 638.02496 248.801488 
L 639.105541 223.253945 
L 639.825928 162.041634 
L 640.186122 144.392139 
L 640.546315 120.228149 
L 640.906509 66.96 
L 641.266703 85.661394 
L 641.626896 70.995991 
L 641.98709 129.218163 
L 642.707477 176.695974 
L 643.067671 180.804753 
L 643.427864 186.560447 
L 643.788058 177.067391 
L 644.148252 178.145034 
L 644.508445 167.429394 
L 644.868639 150.518159 
L 645.228833 170.635604 
L 645.589026 158.501536 
L 645.94922 168.005228 
L 646.309414 198.279306 
L 646.669607 257.120265 
L 647.029801 291.853007 
L 647.389995 247.581072 
L 647.750188 237.129785 
L 648.110382 187.581883 
L 648.470576 190.254836 
L 648.830769 149.91409 
L 649.190963 135.097921 
L 649.551157 80.350248 
L 649.91135 96.046845 
L 650.631737 149.801469 
L 650.991931 189.735617 
L 651.352125 180.956158 
L 651.712318 204.603022 
L 652.072512 204.881027 
L 652.432706 199.764132 
L 652.792899 176.6256 
L 653.153093 185.074743 
L 653.513287 176.547738 
L 653.87348 178.902474 
L 654.233674 187.813541 
L 654.954061 228.619252 
L 655.314255 285.890724 
L 655.674449 264.529901 
L 656.034642 279.315788 
L 656.394836 153.851751 
L 656.75503 236.189267 
L 657.115223 209.522187 
L 657.835611 132.737964 
L 658.195804 118.677179 
L 658.555998 110.795832 
L 658.916192 144.239531 
L 659.276385 154.457418 
L 659.636579 199.63126 
L 659.996772 194.125316 
L 660.356966 230.820153 
L 660.71716 218.044599 
L 661.077353 222.671557 
L 661.797741 186.710228 
L 662.157934 183.365384 
L 662.518128 197.454449 
L 662.878322 191.552469 
L 663.238515 201.310997 
L 663.598709 270.958519 
L 663.958903 295.40457 
L 664.319096 297.824291 
L 665.039484 282.056787 
L 665.399677 244.514371 
L 665.759871 219.641743 
L 666.480258 143.078564 
L 666.840452 112.61163 
L 667.200646 129.700513 
L 667.560839 136.307944 
L 668.281226 193.011765 
L 668.64142 200.244922 
L 669.001614 238.308869 
L 669.361807 228.192642 
L 669.722001 227.87421 
L 670.082195 196.938831 
L 670.442388 205.06259 
L 670.802582 184.424614 
L 671.883163 237.940119 
L 672.243357 237.600041 
L 672.60355 278.527387 
L 672.963744 287.717888 
L 673.323938 272.428798 
L 673.684131 274.703133 
L 674.044325 227.582003 
L 674.404519 204.571066 
L 674.764712 173.92984 
L 675.124906 154.611733 
L 675.4851 114.288133 
L 675.845293 98.912885 
L 676.205487 139.93689 
L 676.56568 167.641549 
L 676.925874 161.477223 
L 677.286068 208.538744 
L 678.006455 223.498189 
L 678.726842 187.124208 
L 679.087036 188.244162 
L 679.44723 154.49672 
L 679.807423 177.624725 
L 680.167617 183.588886 
L 680.527811 221.044864 
L 680.888004 237.630354 
L 681.248198 248.507551 
L 681.608392 279.428985 
L 681.968585 243.517409 
L 682.328779 255.06327 
L 682.688973 225.923464 
L 683.049166 173.579189 
L 683.40936 144.092889 
L 683.769554 127.724143 
L 684.129747 86.467248 
L 684.489941 96.157483 
L 684.850134 109.006513 
L 685.570522 151.028637 
L 686.651103 220.750881 
L 687.011296 194.955037 
L 687.37149 185.170681 
L 687.731684 154.934916 
L 688.091877 150.241606 
L 688.452071 162.663005 
L 688.812265 169.525731 
L 689.172458 162.693938 
L 689.532652 212.311655 
L 690.253039 254.675183 
L 690.613233 249.271841 
L 690.973427 216.673605 
L 691.33362 218.577873 
L 691.693814 164.339179 
L 692.054008 165.15073 
L 692.414201 104.716967 
L 692.774395 107.258435 
L 693.134588 113.704974 
L 693.494782 96.115852 
L 693.854976 113.880045 
L 694.575363 201.959197 
L 694.935557 191.992089 
L 695.29575 173.326119 
L 695.655944 165.200269 
L 696.016138 187.605032 
L 696.736525 127.544657 
L 697.096719 180.188395 
L 697.456912 166.584387 
L 697.817106 171.175702 
L 698.1773 216.4764 
L 698.537493 223.839887 
L 698.897687 248.764534 
L 699.257881 227.538955 
L 699.618074 233.023251 
L 700.338462 159.76382 
L 700.698655 141.054339 
L 701.058849 94.528082 
L 701.419042 114.899354 
L 701.779236 71.187291 
L 702.499623 108.693772 
L 702.859817 167.706837 
L 703.220011 162.008598 
L 703.580204 186.560947 
L 703.940398 173.147586 
L 704.300592 185.116727 
L 704.660785 176.742467 
L 705.020979 159.936568 
L 705.381173 162.676574 
L 705.741366 138.63006 
L 706.10156 184.42362 
L 706.461754 178.01412 
L 707.182141 251.527083 
L 707.542335 249.798155 
L 707.902528 268.108293 
L 708.262722 227.092184 
L 708.622916 199.800826 
L 708.983109 184.749911 
L 709.703497 109.510437 
L 710.06369 102.501617 
L 710.423884 88.265607 
L 710.784077 123.335224 
L 711.144271 129.044966 
L 711.504465 171.57991 
L 711.864658 183.974916 
L 712.224852 182.089588 
L 712.585046 228.919281 
L 712.945239 198.268731 
L 713.305433 192.563292 
L 713.665627 165.159421 
L 714.02582 165.307597 
L 714.386014 177.513364 
L 714.746208 172.044822 
L 715.106401 214.071127 
L 715.466595 226.958242 
L 715.826789 244.376737 
L 716.186982 245.853722 
L 716.547176 269.997656 
L 716.90737 255.533403 
L 717.267563 228.649674 
L 717.627757 176.556014 
L 717.987951 156.575494 
L 718.348144 126.608572 
L 718.708338 106.017427 
L 719.068531 109.165499 
L 720.149112 168.107688 
L 720.509306 203.081749 
L 720.8695 218.854131 
L 721.229693 215.087043 
L 721.589887 213.1475 
L 721.950081 209.606973 
L 722.310274 181.805139 
L 722.670468 200.100282 
L 723.030662 171.461181 
L 723.390855 172.847656 
L 724.111243 258.712015 
L 724.471436 259.738405 
L 724.83163 277.852446 
L 725.552017 261.575677 
L 725.912211 236.945101 
L 726.632598 165.498933 
L 726.992792 110.522422 
L 727.352985 115.943822 
L 727.713179 112.217534 
L 728.433566 143.906906 
L 728.79376 177.586076 
L 729.153954 179.816091 
L 729.874341 217.395505 
L 730.234535 205.927028 
L 730.594728 177.292708 
L 730.954922 177.931362 
L 731.315116 191.434613 
L 731.675309 184.997782 
L 732.035503 189.238153 
L 732.395697 213.552926 
L 732.75589 257.137927 
L 733.116084 260.24014 
L 733.476278 277.993405 
L 733.836471 274.083137 
L 734.196665 260.544104 
L 734.556859 221.53367 
L 735.277246 171.246928 
L 735.637439 125.188647 
L 735.997633 134.276046 
L 736.357827 98.673967 
L 736.71802 120.740441 
L 737.078214 174.103368 
L 737.438408 168.414592 
L 737.798601 167.018899 
L 738.158795 190.824253 
L 738.518989 191.922926 
L 738.879182 209.289277 
L 739.59957 171.950773 
L 739.959763 186.10972 
L 740.319957 174.351244 
L 740.680151 167.345663 
L 741.760732 253.836883 
L 742.120925 269.719801 
L 742.481119 252.141544 
L 742.841313 247.070719 
L 743.201506 201.511474 
L 743.201506 201.511474 
" style="fill:none;stroke:#1f77b4;stroke-linecap:square;stroke-width:1.5;"/>
   </g>
   <g id="line2d_17">
    <path clip-path="url(#p7ee9c92b90)" d="M 747.163636 384.48 
L 747.163636 51.84 
" style="fill:none;stroke:#808080;stroke-linecap:square;"/>
   </g>
   <g id="patch_112">
    <path d="M 108 384.48 
L 108 51.84 
" style="fill:none;stroke:#000000;stroke-linecap:square;stroke-linejoin:miter;stroke-width:0.8;"/>
   </g>
   <g id="patch_113">
    <path d="M 777.6 384.48 
L 777.6 51.84 
" style="fill:none;stroke:#000000;stroke-linecap:square;stroke-linejoin:miter;stroke-width:0.8;"/>
   </g>
   <g id="patch_114">
    <path d="M 108 384.48 
L 777.6 384.48 
" style="fill:none;stroke:#000000;stroke-linecap:square;stroke-linejoin:miter;stroke-width:0.8;"/>
   </g>
   <g id="patch_115">
    <path d="M 108 51.84 
L 777.6 51.84 
" style="fill:none;stroke:#000000;stroke-linecap:square;stroke-linejoin:miter;stroke-width:0.8;"/>
   </g>
   <g id="text_18">
    <!-- A3Benchmark-TS88.csv -->
    <defs>
     <path d="M 34.1875 63.1875 
L 20.796875 26.90625 
L 47.609375 26.90625 
z
M 28.609375 72.90625 
L 39.796875 72.90625 
L 67.578125 0 
L 57.328125 0 
L 50.6875 18.703125 
L 17.828125 18.703125 
L 11.1875 0 
L 0.78125 0 
z
" id="DejaVuSans-65"/>
     <path d="M 19.671875 34.8125 
L 19.671875 8.109375 
L 35.5 8.109375 
Q 43.453125 8.109375 47.28125 11.40625 
Q 51.125 14.703125 51.125 21.484375 
Q 51.125 28.328125 47.28125 31.5625 
Q 43.453125 34.8125 35.5 34.8125 
z
M 19.671875 64.796875 
L 19.671875 42.828125 
L 34.28125 42.828125 
Q 41.5 42.828125 45.03125 45.53125 
Q 48.578125 48.25 48.578125 53.8125 
Q 48.578125 59.328125 45.03125 62.0625 
Q 41.5 64.796875 34.28125 64.796875 
z
M 9.8125 72.90625 
L 35.015625 72.90625 
Q 46.296875 72.90625 52.390625 68.21875 
Q 58.5 63.53125 58.5 54.890625 
Q 58.5 48.1875 55.375 44.234375 
Q 52.25 40.28125 46.1875 39.3125 
Q 53.46875 37.75 57.5 32.78125 
Q 61.53125 27.828125 61.53125 20.40625 
Q 61.53125 10.640625 54.890625 5.3125 
Q 48.25 0 35.984375 0 
L 9.8125 0 
z
" id="DejaVuSans-66"/>
     <path d="M 54.890625 33.015625 
L 54.890625 0 
L 45.90625 0 
L 45.90625 32.71875 
Q 45.90625 40.484375 42.875 44.328125 
Q 39.84375 48.1875 33.796875 48.1875 
Q 26.515625 48.1875 22.3125 43.546875 
Q 18.109375 38.921875 18.109375 30.90625 
L 18.109375 0 
L 9.078125 0 
L 9.078125 54.6875 
L 18.109375 54.6875 
L 18.109375 46.1875 
Q 21.34375 51.125 25.703125 53.5625 
Q 30.078125 56 35.796875 56 
Q 45.21875 56 50.046875 50.171875 
Q 54.890625 44.34375 54.890625 33.015625 
z
" id="DejaVuSans-110"/>
     <path d="M 48.78125 52.59375 
L 48.78125 44.1875 
Q 44.96875 46.296875 41.140625 47.34375 
Q 37.3125 48.390625 33.40625 48.390625 
Q 24.65625 48.390625 19.8125 42.84375 
Q 14.984375 37.3125 14.984375 27.296875 
Q 14.984375 17.28125 19.8125 11.734375 
Q 24.65625 6.203125 33.40625 6.203125 
Q 37.3125 6.203125 41.140625 7.25 
Q 44.96875 8.296875 48.78125 10.40625 
L 48.78125 2.09375 
Q 45.015625 0.34375 40.984375 -0.53125 
Q 36.96875 -1.421875 32.421875 -1.421875 
Q 20.0625 -1.421875 12.78125 6.34375 
Q 5.515625 14.109375 5.515625 27.296875 
Q 5.515625 40.671875 12.859375 48.328125 
Q 20.21875 56 33.015625 56 
Q 37.15625 56 41.109375 55.140625 
Q 45.0625 54.296875 48.78125 52.59375 
z
" id="DejaVuSans-99"/>
     <path d="M 54.890625 33.015625 
L 54.890625 0 
L 45.90625 0 
L 45.90625 32.71875 
Q 45.90625 40.484375 42.875 44.328125 
Q 39.84375 48.1875 33.796875 48.1875 
Q 26.515625 48.1875 22.3125 43.546875 
Q 18.109375 38.921875 18.109375 30.90625 
L 18.109375 0 
L 9.078125 0 
L 9.078125 75.984375 
L 18.109375 75.984375 
L 18.109375 46.1875 
Q 21.34375 51.125 25.703125 53.5625 
Q 30.078125 56 35.796875 56 
Q 45.21875 56 50.046875 50.171875 
Q 54.890625 44.34375 54.890625 33.015625 
z
" id="DejaVuSans-104"/>
     <path d="M 41.109375 46.296875 
Q 39.59375 47.171875 37.8125 47.578125 
Q 36.03125 48 33.890625 48 
Q 26.265625 48 22.1875 43.046875 
Q 18.109375 38.09375 18.109375 28.8125 
L 18.109375 0 
L 9.078125 0 
L 9.078125 54.6875 
L 18.109375 54.6875 
L 18.109375 46.1875 
Q 20.953125 51.171875 25.484375 53.578125 
Q 30.03125 56 36.53125 56 
Q 37.453125 56 38.578125 55.875 
Q 39.703125 55.765625 41.0625 55.515625 
z
" id="DejaVuSans-114"/>
     <path d="M 9.078125 75.984375 
L 18.109375 75.984375 
L 18.109375 31.109375 
L 44.921875 54.6875 
L 56.390625 54.6875 
L 27.390625 29.109375 
L 57.625 0 
L 45.90625 0 
L 18.109375 26.703125 
L 18.109375 0 
L 9.078125 0 
z
" id="DejaVuSans-107"/>
     <path d="M 4.890625 31.390625 
L 31.203125 31.390625 
L 31.203125 23.390625 
L 4.890625 23.390625 
z
" id="DejaVuSans-45"/>
     <path d="M 53.515625 70.515625 
L 53.515625 60.890625 
Q 47.90625 63.578125 42.921875 64.890625 
Q 37.9375 66.21875 33.296875 66.21875 
Q 25.25 66.21875 20.875 63.09375 
Q 16.5 59.96875 16.5 54.203125 
Q 16.5 49.359375 19.40625 46.890625 
Q 22.3125 44.4375 30.421875 42.921875 
L 36.375 41.703125 
Q 47.40625 39.59375 52.65625 34.296875 
Q 57.90625 29 57.90625 20.125 
Q 57.90625 9.515625 50.796875 4.046875 
Q 43.703125 -1.421875 29.984375 -1.421875 
Q 24.8125 -1.421875 18.96875 -0.25 
Q 13.140625 0.921875 6.890625 3.21875 
L 6.890625 13.375 
Q 12.890625 10.015625 18.65625 8.296875 
Q 24.421875 6.59375 29.984375 6.59375 
Q 38.421875 6.59375 43.015625 9.90625 
Q 47.609375 13.234375 47.609375 19.390625 
Q 47.609375 24.75 44.3125 27.78125 
Q 41.015625 30.8125 33.5 32.328125 
L 27.484375 33.5 
Q 16.453125 35.6875 11.515625 40.375 
Q 6.59375 45.0625 6.59375 53.421875 
Q 6.59375 63.09375 13.40625 68.65625 
Q 20.21875 74.21875 32.171875 74.21875 
Q 37.3125 74.21875 42.625 73.28125 
Q 47.953125 72.359375 53.515625 70.515625 
z
" id="DejaVuSans-83"/>
     <path d="M 31.78125 34.625 
Q 24.75 34.625 20.71875 30.859375 
Q 16.703125 27.09375 16.703125 20.515625 
Q 16.703125 13.921875 20.71875 10.15625 
Q 24.75 6.390625 31.78125 6.390625 
Q 38.8125 6.390625 42.859375 10.171875 
Q 46.921875 13.96875 46.921875 20.515625 
Q 46.921875 27.09375 42.890625 30.859375 
Q 38.875 34.625 31.78125 34.625 
z
M 21.921875 38.8125 
Q 15.578125 40.375 12.03125 44.71875 
Q 8.5 49.078125 8.5 55.328125 
Q 8.5 64.0625 14.71875 69.140625 
Q 20.953125 74.21875 31.78125 74.21875 
Q 42.671875 74.21875 48.875 69.140625 
Q 55.078125 64.0625 55.078125 55.328125 
Q 55.078125 49.078125 51.53125 44.71875 
Q 48 40.375 41.703125 38.8125 
Q 48.828125 37.15625 52.796875 32.3125 
Q 56.78125 27.484375 56.78125 20.515625 
Q 56.78125 9.90625 50.3125 4.234375 
Q 43.84375 -1.421875 31.78125 -1.421875 
Q 19.734375 -1.421875 13.25 4.234375 
Q 6.78125 9.90625 6.78125 20.515625 
Q 6.78125 27.484375 10.78125 32.3125 
Q 14.796875 37.15625 21.921875 38.8125 
z
M 18.3125 54.390625 
Q 18.3125 48.734375 21.84375 45.5625 
Q 25.390625 42.390625 31.78125 42.390625 
Q 38.140625 42.390625 41.71875 45.5625 
Q 45.3125 48.734375 45.3125 54.390625 
Q 45.3125 60.0625 41.71875 63.234375 
Q 38.140625 66.40625 31.78125 66.40625 
Q 25.390625 66.40625 21.84375 63.234375 
Q 18.3125 60.0625 18.3125 54.390625 
z
" id="DejaVuSans-56"/>
     <path d="M 10.6875 12.40625 
L 21 12.40625 
L 21 0 
L 10.6875 0 
z
" id="DejaVuSans-46"/>
     <path d="M 2.984375 54.6875 
L 12.5 54.6875 
L 29.59375 8.796875 
L 46.6875 54.6875 
L 56.203125 54.6875 
L 35.6875 0 
L 23.484375 0 
z
" id="DejaVuSans-118"/>
    </defs>
    <g transform="translate(371.555625 45.84)scale(0.12 -0.12)">
     <use xlink:href="#DejaVuSans-65"/>
     <use x="68.408203" xlink:href="#DejaVuSans-51"/>
     <use x="132.03125" xlink:href="#DejaVuSans-66"/>
     <use x="200.634766" xlink:href="#DejaVuSans-101"/>
     <use x="262.158203" xlink:href="#DejaVuSans-110"/>
     <use x="325.537109" xlink:href="#DejaVuSans-99"/>
     <use x="380.517578" xlink:href="#DejaVuSans-104"/>
     <use x="443.896484" xlink:href="#DejaVuSans-109"/>
     <use x="541.308594" xlink:href="#DejaVuSans-97"/>
     <use x="602.587891" xlink:href="#DejaVuSans-114"/>
     <use x="643.701172" xlink:href="#DejaVuSans-107"/>
     <use x="701.611328" xlink:href="#DejaVuSans-45"/>
     <use x="737.554688" xlink:href="#DejaVuSans-84"/>
     <use x="798.638672" xlink:href="#DejaVuSans-83"/>
     <use x="862.115234" xlink:href="#DejaVuSans-56"/>
     <use x="925.738281" xlink:href="#DejaVuSans-56"/>
     <use x="989.361328" xlink:href="#DejaVuSans-46"/>
     <use x="1021.148438" xlink:href="#DejaVuSans-99"/>
     <use x="1076.128906" xlink:href="#DejaVuSans-115"/>
     <use x="1128.228516" xlink:href="#DejaVuSans-118"/>
    </g>
   </g>
   <g id="legend_1">
    <g id="patch_116">
     <path d="M 115 74.518125 
L 174.315625 74.518125 
Q 176.315625 74.518125 176.315625 72.518125 
L 176.315625 58.84 
Q 176.315625 56.84 174.315625 56.84 
L 115 56.84 
Q 113 56.84 113 58.84 
L 113 72.518125 
Q 113 74.518125 115 74.518125 
z
" style="fill:#ffffff;opacity:0.8;stroke:#cccccc;stroke-linejoin:miter;"/>
    </g>
    <g id="line2d_18">
     <path d="M 117 64.938438 
L 137 64.938438 
" style="fill:none;stroke:#1f77b4;stroke-linecap:square;stroke-width:1.5;"/>
    </g>
    <g id="line2d_19"/>
    <g id="text_19">
     <!-- value -->
     <g transform="translate(145 68.438438)scale(0.1 -0.1)">
      <use xlink:href="#DejaVuSans-118"/>
      <use x="59.179688" xlink:href="#DejaVuSans-97"/>
      <use x="120.458984" xlink:href="#DejaVuSans-108"/>
      <use x="148.242188" xlink:href="#DejaVuSans-117"/>
      <use x="211.621094" xlink:href="#DejaVuSans-101"/>
     </g>
    </g>
   </g>
  </g>
 </g>
 <defs>
  <clipPath id="p7ee9c92b90">
   <rect height="332.64" width="669.6" x="108" y="51.84"/>
  </clipPath>
 </defs>
</svg>
