<?xml version="1.0" encoding="utf-8" standalone="no"?>
<!DOCTYPE svg PUBLIC "-//W3C//DTD SVG 1.1//EN"
  "http://www.w3.org/Graphics/SVG/1.1/DTD/svg11.dtd">
<!-- Created with matplotlib (https://matplotlib.org/) -->
<svg height="432pt" version="1.1" viewBox="0 0 864 432" width="864pt" xmlns="http://www.w3.org/2000/svg" xmlns:xlink="http://www.w3.org/1999/xlink">
 <defs>
  <style type="text/css">
*{stroke-linecap:butt;stroke-linejoin:round;}
  </style>
 </defs>
 <g id="figure_1">
  <g id="patch_1">
   <path d="M 0 432 
L 864 432 
L 864 0 
L 0 0 
z
" style="fill:#ffffff;"/>
  </g>
  <g id="axes_1">
   <g id="patch_2">
    <path d="M 108 384.48 
L 777.6 384.48 
L 777.6 51.84 
L 108 51.84 
z
" style="fill:#ffffff;"/>
   </g>
   <g id="patch_3">
    <path clip-path="url(#p20ff6feea9)" d="M 138.436364 384.48 
L 138.436364 51.84 
L 381.504545 51.84 
L 381.504545 384.48 
z
" style="fill:#0000ff;opacity:0.05;"/>
   </g>
   <g id="patch_4">
    <path clip-path="url(#p20ff6feea9)" d="M 381.504545 384.48 
L 381.504545 51.84 
L 747.163636 51.84 
L 747.163636 384.48 
z
" style="fill:#ff0000;opacity:0.08;"/>
   </g>
   <g id="patch_5">
    <path clip-path="url(#p20ff6feea9)" d="M 138.436364 384.48 
L 138.436364 51.84 
L 140.55 51.84 
L 140.55 384.48 
z
" style="fill:#008000;opacity:0.04;"/>
   </g>
   <g id="patch_6">
    <path clip-path="url(#p20ff6feea9)" d="M 142.663636 384.48 
L 142.663636 51.84 
L 144.777273 51.84 
L 144.777273 384.48 
z
" style="fill:#008000;opacity:0.04;"/>
   </g>
   <g id="patch_7">
    <path clip-path="url(#p20ff6feea9)" d="M 146.890909 384.48 
L 146.890909 51.84 
L 149.004545 51.84 
L 149.004545 384.48 
z
" style="fill:#008000;opacity:0.04;"/>
   </g>
   <g id="patch_8">
    <path clip-path="url(#p20ff6feea9)" d="M 151.118182 384.48 
L 151.118182 51.84 
L 153.231818 51.84 
L 153.231818 384.48 
z
" style="fill:#008000;opacity:0.04;"/>
   </g>
   <g id="patch_9">
    <path clip-path="url(#p20ff6feea9)" d="M 151.118182 384.48 
L 151.118182 371.1744 
L 153.231818 371.1744 
L 153.231818 384.48 
z
" style="fill:#ffe500;"/>
   </g>
   <g id="patch_10">
    <path clip-path="url(#p20ff6feea9)" d="M 155.345455 384.48 
L 155.345455 51.84 
L 157.459091 51.84 
L 157.459091 384.48 
z
" style="fill:#008000;opacity:0.04;"/>
   </g>
   <g id="patch_11">
    <path clip-path="url(#p20ff6feea9)" d="M 157.459091 384.48 
L 157.459091 371.1744 
L 159.572727 371.1744 
L 159.572727 384.48 
z
" style="fill:#ffe500;"/>
   </g>
   <g id="patch_12">
    <path clip-path="url(#p20ff6feea9)" d="M 159.572727 384.48 
L 159.572727 51.84 
L 161.686364 51.84 
L 161.686364 384.48 
z
" style="fill:#008000;opacity:0.04;"/>
   </g>
   <g id="patch_13">
    <path clip-path="url(#p20ff6feea9)" d="M 163.8 384.48 
L 163.8 51.84 
L 165.913636 51.84 
L 165.913636 384.48 
z
" style="fill:#008000;opacity:0.04;"/>
   </g>
   <g id="patch_14">
    <path clip-path="url(#p20ff6feea9)" d="M 168.027273 384.48 
L 168.027273 51.84 
L 170.140909 51.84 
L 170.140909 384.48 
z
" style="fill:#008000;opacity:0.04;"/>
   </g>
   <g id="patch_15">
    <path clip-path="url(#p20ff6feea9)" d="M 168.027273 384.48 
L 168.027273 371.1744 
L 170.140909 371.1744 
L 170.140909 384.48 
z
" style="fill:#ffe500;"/>
   </g>
   <g id="patch_16">
    <path clip-path="url(#p20ff6feea9)" d="M 170.140909 384.48 
L 170.140909 371.1744 
L 172.254545 371.1744 
L 172.254545 384.48 
z
" style="fill:#ffe500;"/>
   </g>
   <g id="patch_17">
    <path clip-path="url(#p20ff6feea9)" d="M 172.254545 384.48 
L 172.254545 51.84 
L 174.368182 51.84 
L 174.368182 384.48 
z
" style="fill:#008000;opacity:0.04;"/>
   </g>
   <g id="patch_18">
    <path clip-path="url(#p20ff6feea9)" d="M 176.481818 384.48 
L 176.481818 51.84 
L 178.595455 51.84 
L 178.595455 384.48 
z
" style="fill:#008000;opacity:0.04;"/>
   </g>
   <g id="patch_19">
    <path clip-path="url(#p20ff6feea9)" d="M 180.709091 384.48 
L 180.709091 51.84 
L 182.822727 51.84 
L 182.822727 384.48 
z
" style="fill:#008000;opacity:0.04;"/>
   </g>
   <g id="patch_20">
    <path clip-path="url(#p20ff6feea9)" d="M 184.936364 384.48 
L 184.936364 51.84 
L 187.05 51.84 
L 187.05 384.48 
z
" style="fill:#008000;opacity:0.04;"/>
   </g>
   <g id="patch_21">
    <path clip-path="url(#p20ff6feea9)" d="M 189.163636 384.48 
L 189.163636 51.84 
L 191.277273 51.84 
L 191.277273 384.48 
z
" style="fill:#008000;opacity:0.04;"/>
   </g>
   <g id="patch_22">
    <path clip-path="url(#p20ff6feea9)" d="M 191.277273 384.48 
L 191.277273 371.1744 
L 193.390909 371.1744 
L 193.390909 384.48 
z
" style="fill:#ffe500;"/>
   </g>
   <g id="patch_23">
    <path clip-path="url(#p20ff6feea9)" d="M 193.390909 384.48 
L 193.390909 51.84 
L 195.504545 51.84 
L 195.504545 384.48 
z
" style="fill:#008000;opacity:0.04;"/>
   </g>
   <g id="patch_24">
    <path clip-path="url(#p20ff6feea9)" d="M 197.618182 384.48 
L 197.618182 51.84 
L 199.731818 51.84 
L 199.731818 384.48 
z
" style="fill:#008000;opacity:0.04;"/>
   </g>
   <g id="patch_25">
    <path clip-path="url(#p20ff6feea9)" d="M 442.8 384.48 
L 442.8 371.1744 
L 444.913636 371.1744 
L 444.913636 384.48 
z
" style="fill:#ff6600;"/>
   </g>
   <g id="patch_26">
    <path clip-path="url(#p20ff6feea9)" d="M 201.845455 384.48 
L 201.845455 51.84 
L 203.959091 51.84 
L 203.959091 384.48 
z
" style="fill:#008000;opacity:0.04;"/>
   </g>
   <g id="patch_27">
    <path clip-path="url(#p20ff6feea9)" d="M 444.913636 384.48 
L 444.913636 371.1744 
L 447.027273 371.1744 
L 447.027273 384.48 
z
" style="fill:#ff6600;"/>
   </g>
   <g id="patch_28">
    <path clip-path="url(#p20ff6feea9)" d="M 206.072727 384.48 
L 206.072727 51.84 
L 208.186364 51.84 
L 208.186364 384.48 
z
" style="fill:#008000;opacity:0.04;"/>
   </g>
   <g id="patch_29">
    <path clip-path="url(#p20ff6feea9)" d="M 210.3 384.48 
L 210.3 51.84 
L 212.413636 51.84 
L 212.413636 384.48 
z
" style="fill:#008000;opacity:0.04;"/>
   </g>
   <g id="patch_30">
    <path clip-path="url(#p20ff6feea9)" d="M 453.368182 384.48 
L 453.368182 371.1744 
L 455.481818 371.1744 
L 455.481818 384.48 
z
" style="fill:#ff6600;"/>
   </g>
   <g id="patch_31">
    <path clip-path="url(#p20ff6feea9)" d="M 214.527273 384.48 
L 214.527273 51.84 
L 216.640909 51.84 
L 216.640909 384.48 
z
" style="fill:#008000;opacity:0.04;"/>
   </g>
   <g id="patch_32">
    <path clip-path="url(#p20ff6feea9)" d="M 218.754545 384.48 
L 218.754545 51.84 
L 220.868182 51.84 
L 220.868182 384.48 
z
" style="fill:#008000;opacity:0.04;"/>
   </g>
   <g id="patch_33">
    <path clip-path="url(#p20ff6feea9)" d="M 461.822727 384.48 
L 461.822727 371.1744 
L 463.936364 371.1744 
L 463.936364 384.48 
z
" style="fill:#ff6600;"/>
   </g>
   <g id="patch_34">
    <path clip-path="url(#p20ff6feea9)" d="M 463.936364 384.48 
L 463.936364 371.1744 
L 466.05 371.1744 
L 466.05 384.48 
z
" style="fill:#ff6600;"/>
   </g>
   <g id="patch_35">
    <path clip-path="url(#p20ff6feea9)" d="M 222.981818 384.48 
L 222.981818 51.84 
L 225.095455 51.84 
L 225.095455 384.48 
z
" style="fill:#008000;opacity:0.04;"/>
   </g>
   <g id="patch_36">
    <path clip-path="url(#p20ff6feea9)" d="M 227.209091 384.48 
L 227.209091 51.84 
L 229.322727 51.84 
L 229.322727 384.48 
z
" style="fill:#008000;opacity:0.04;"/>
   </g>
   <g id="patch_37">
    <path clip-path="url(#p20ff6feea9)" d="M 231.436364 384.48 
L 231.436364 51.84 
L 233.55 51.84 
L 233.55 384.48 
z
" style="fill:#008000;opacity:0.04;"/>
   </g>
   <g id="patch_38">
    <path clip-path="url(#p20ff6feea9)" d="M 235.663636 384.48 
L 235.663636 51.84 
L 237.777273 51.84 
L 237.777273 384.48 
z
" style="fill:#008000;opacity:0.04;"/>
   </g>
   <g id="patch_39">
    <path clip-path="url(#p20ff6feea9)" d="M 239.890909 384.48 
L 239.890909 51.84 
L 242.004545 51.84 
L 242.004545 384.48 
z
" style="fill:#008000;opacity:0.04;"/>
   </g>
   <g id="patch_40">
    <path clip-path="url(#p20ff6feea9)" d="M 485.072727 384.48 
L 485.072727 371.1744 
L 487.186364 371.1744 
L 487.186364 384.48 
z
" style="fill:#ff6600;"/>
   </g>
   <g id="patch_41">
    <path clip-path="url(#p20ff6feea9)" d="M 244.118182 384.48 
L 244.118182 51.84 
L 246.231818 51.84 
L 246.231818 384.48 
z
" style="fill:#008000;opacity:0.04;"/>
   </g>
   <g id="patch_42">
    <path clip-path="url(#p20ff6feea9)" d="M 248.345455 384.48 
L 248.345455 51.84 
L 250.459091 51.84 
L 250.459091 384.48 
z
" style="fill:#008000;opacity:0.04;"/>
   </g>
   <g id="patch_43">
    <path clip-path="url(#p20ff6feea9)" d="M 252.572727 384.48 
L 252.572727 51.84 
L 254.686364 51.84 
L 254.686364 384.48 
z
" style="fill:#008000;opacity:0.04;"/>
   </g>
   <g id="patch_44">
    <path clip-path="url(#p20ff6feea9)" d="M 256.8 384.48 
L 256.8 51.84 
L 258.913636 51.84 
L 258.913636 384.48 
z
" style="fill:#008000;opacity:0.04;"/>
   </g>
   <g id="patch_45">
    <path clip-path="url(#p20ff6feea9)" d="M 261.027273 384.48 
L 261.027273 51.84 
L 263.140909 51.84 
L 263.140909 384.48 
z
" style="fill:#008000;opacity:0.04;"/>
   </g>
   <g id="patch_46">
    <path clip-path="url(#p20ff6feea9)" d="M 261.027273 384.48 
L 261.027273 371.1744 
L 263.140909 371.1744 
L 263.140909 384.48 
z
" style="fill:#ffe500;"/>
   </g>
   <g id="patch_47">
    <path clip-path="url(#p20ff6feea9)" d="M 263.140909 384.48 
L 263.140909 371.1744 
L 265.254545 371.1744 
L 265.254545 384.48 
z
" style="fill:#ffe500;"/>
   </g>
   <g id="patch_48">
    <path clip-path="url(#p20ff6feea9)" d="M 506.209091 384.48 
L 506.209091 371.1744 
L 508.322727 371.1744 
L 508.322727 384.48 
z
" style="fill:#ff6600;"/>
   </g>
   <g id="patch_49">
    <path clip-path="url(#p20ff6feea9)" d="M 265.254545 384.48 
L 265.254545 51.84 
L 267.368182 51.84 
L 267.368182 384.48 
z
" style="fill:#008000;opacity:0.04;"/>
   </g>
   <g id="patch_50">
    <path clip-path="url(#p20ff6feea9)" d="M 269.481818 384.48 
L 269.481818 51.84 
L 271.595455 51.84 
L 271.595455 384.48 
z
" style="fill:#008000;opacity:0.04;"/>
   </g>
   <g id="patch_51">
    <path clip-path="url(#p20ff6feea9)" d="M 273.709091 384.48 
L 273.709091 51.84 
L 275.822727 51.84 
L 275.822727 384.48 
z
" style="fill:#008000;opacity:0.04;"/>
   </g>
   <g id="patch_52">
    <path clip-path="url(#p20ff6feea9)" d="M 273.709091 384.48 
L 273.709091 371.1744 
L 275.822727 371.1744 
L 275.822727 384.48 
z
" style="fill:#ffe500;"/>
   </g>
   <g id="patch_53">
    <path clip-path="url(#p20ff6feea9)" d="M 277.936364 384.48 
L 277.936364 51.84 
L 280.05 51.84 
L 280.05 384.48 
z
" style="fill:#008000;opacity:0.04;"/>
   </g>
   <g id="patch_54">
    <path clip-path="url(#p20ff6feea9)" d="M 523.118182 384.48 
L 523.118182 371.1744 
L 525.231818 371.1744 
L 525.231818 384.48 
z
" style="fill:#ff6600;"/>
   </g>
   <g id="patch_55">
    <path clip-path="url(#p20ff6feea9)" d="M 282.163636 384.48 
L 282.163636 51.84 
L 284.277273 51.84 
L 284.277273 384.48 
z
" style="fill:#008000;opacity:0.04;"/>
   </g>
   <g id="patch_56">
    <path clip-path="url(#p20ff6feea9)" d="M 284.277273 371.1744 
L 284.277273 51.84 
L 286.390909 51.84 
L 286.390909 371.1744 
z
" style="fill:#008000;opacity:0.5;"/>
   </g>
   <g id="patch_57">
    <path clip-path="url(#p20ff6feea9)" d="M 284.277273 384.48 
L 284.277273 371.1744 
L 286.390909 371.1744 
L 286.390909 384.48 
z
" style="fill:#ffe500;"/>
   </g>
   <g id="patch_58">
    <path clip-path="url(#p20ff6feea9)" d="M 286.390909 384.48 
L 286.390909 51.84 
L 288.504545 51.84 
L 288.504545 384.48 
z
" style="fill:#008000;opacity:0.04;"/>
   </g>
   <g id="patch_59">
    <path clip-path="url(#p20ff6feea9)" d="M 290.618182 384.48 
L 290.618182 51.84 
L 292.731818 51.84 
L 292.731818 384.48 
z
" style="fill:#008000;opacity:0.04;"/>
   </g>
   <g id="patch_60">
    <path clip-path="url(#p20ff6feea9)" d="M 294.845455 384.48 
L 294.845455 51.84 
L 296.959091 51.84 
L 296.959091 384.48 
z
" style="fill:#008000;opacity:0.04;"/>
   </g>
   <g id="patch_61">
    <path clip-path="url(#p20ff6feea9)" d="M 299.072727 384.48 
L 299.072727 51.84 
L 301.186364 51.84 
L 301.186364 384.48 
z
" style="fill:#008000;opacity:0.04;"/>
   </g>
   <g id="patch_62">
    <path clip-path="url(#p20ff6feea9)" d="M 544.254545 384.48 
L 544.254545 371.1744 
L 546.368182 371.1744 
L 546.368182 384.48 
z
" style="fill:#ff6600;"/>
   </g>
   <g id="patch_63">
    <path clip-path="url(#p20ff6feea9)" d="M 303.3 384.48 
L 303.3 51.84 
L 305.413636 51.84 
L 305.413636 384.48 
z
" style="fill:#008000;opacity:0.04;"/>
   </g>
   <g id="patch_64">
    <path clip-path="url(#p20ff6feea9)" d="M 307.527273 384.48 
L 307.527273 51.84 
L 309.640909 51.84 
L 309.640909 384.48 
z
" style="fill:#008000;opacity:0.04;"/>
   </g>
   <g id="patch_65">
    <path clip-path="url(#p20ff6feea9)" d="M 311.754545 384.48 
L 311.754545 51.84 
L 313.868182 51.84 
L 313.868182 384.48 
z
" style="fill:#008000;opacity:0.04;"/>
   </g>
   <g id="patch_66">
    <path clip-path="url(#p20ff6feea9)" d="M 311.754545 384.48 
L 311.754545 371.1744 
L 313.868182 371.1744 
L 313.868182 384.48 
z
" style="fill:#ffe500;"/>
   </g>
   <g id="patch_67">
    <path clip-path="url(#p20ff6feea9)" d="M 315.981818 384.48 
L 315.981818 51.84 
L 318.095455 51.84 
L 318.095455 384.48 
z
" style="fill:#008000;opacity:0.04;"/>
   </g>
   <g id="patch_68">
    <path clip-path="url(#p20ff6feea9)" d="M 320.209091 384.48 
L 320.209091 51.84 
L 322.322727 51.84 
L 322.322727 384.48 
z
" style="fill:#008000;opacity:0.04;"/>
   </g>
   <g id="patch_69">
    <path clip-path="url(#p20ff6feea9)" d="M 324.436364 384.48 
L 324.436364 51.84 
L 326.55 51.84 
L 326.55 384.48 
z
" style="fill:#008000;opacity:0.04;"/>
   </g>
   <g id="patch_70">
    <path clip-path="url(#p20ff6feea9)" d="M 328.663636 384.48 
L 328.663636 51.84 
L 330.777273 51.84 
L 330.777273 384.48 
z
" style="fill:#008000;opacity:0.04;"/>
   </g>
   <g id="patch_71">
    <path clip-path="url(#p20ff6feea9)" d="M 332.890909 384.48 
L 332.890909 51.84 
L 335.004545 51.84 
L 335.004545 384.48 
z
" style="fill:#008000;opacity:0.04;"/>
   </g>
   <g id="patch_72">
    <path clip-path="url(#p20ff6feea9)" d="M 337.118182 384.48 
L 337.118182 51.84 
L 339.231818 51.84 
L 339.231818 384.48 
z
" style="fill:#008000;opacity:0.04;"/>
   </g>
   <g id="patch_73">
    <path clip-path="url(#p20ff6feea9)" d="M 341.345455 384.48 
L 341.345455 51.84 
L 343.459091 51.84 
L 343.459091 384.48 
z
" style="fill:#008000;opacity:0.04;"/>
   </g>
   <g id="patch_74">
    <path clip-path="url(#p20ff6feea9)" d="M 584.413636 384.48 
L 584.413636 371.1744 
L 586.527273 371.1744 
L 586.527273 384.48 
z
" style="fill:#ff6600;"/>
   </g>
   <g id="patch_75">
    <path clip-path="url(#p20ff6feea9)" d="M 586.527273 384.48 
L 586.527273 371.1744 
L 588.640909 371.1744 
L 588.640909 384.48 
z
" style="fill:#ff6600;"/>
   </g>
   <g id="patch_76">
    <path clip-path="url(#p20ff6feea9)" d="M 345.572727 384.48 
L 345.572727 51.84 
L 347.686364 51.84 
L 347.686364 384.48 
z
" style="fill:#008000;opacity:0.04;"/>
   </g>
   <g id="patch_77">
    <path clip-path="url(#p20ff6feea9)" d="M 349.8 384.48 
L 349.8 51.84 
L 351.913636 51.84 
L 351.913636 384.48 
z
" style="fill:#008000;opacity:0.04;"/>
   </g>
   <g id="patch_78">
    <path clip-path="url(#p20ff6feea9)" d="M 354.027273 384.48 
L 354.027273 51.84 
L 356.140909 51.84 
L 356.140909 384.48 
z
" style="fill:#008000;opacity:0.04;"/>
   </g>
   <g id="patch_79">
    <path clip-path="url(#p20ff6feea9)" d="M 354.027273 384.48 
L 354.027273 371.1744 
L 356.140909 371.1744 
L 356.140909 384.48 
z
" style="fill:#ffe500;"/>
   </g>
   <g id="patch_80">
    <path clip-path="url(#p20ff6feea9)" d="M 358.254545 384.48 
L 358.254545 51.84 
L 360.368182 51.84 
L 360.368182 384.48 
z
" style="fill:#008000;opacity:0.04;"/>
   </g>
   <g id="patch_81">
    <path clip-path="url(#p20ff6feea9)" d="M 362.481818 384.48 
L 362.481818 51.84 
L 364.595455 51.84 
L 364.595455 384.48 
z
" style="fill:#008000;opacity:0.04;"/>
   </g>
   <g id="patch_82">
    <path clip-path="url(#p20ff6feea9)" d="M 366.709091 384.48 
L 366.709091 51.84 
L 368.822727 51.84 
L 368.822727 384.48 
z
" style="fill:#008000;opacity:0.04;"/>
   </g>
   <g id="patch_83">
    <path clip-path="url(#p20ff6feea9)" d="M 370.936364 384.48 
L 370.936364 51.84 
L 373.05 51.84 
L 373.05 384.48 
z
" style="fill:#008000;opacity:0.04;"/>
   </g>
   <g id="patch_84">
    <path clip-path="url(#p20ff6feea9)" d="M 616.118182 384.48 
L 616.118182 371.1744 
L 618.231818 371.1744 
L 618.231818 384.48 
z
" style="fill:#ff6600;"/>
   </g>
   <g id="patch_85">
    <path clip-path="url(#p20ff6feea9)" d="M 375.163636 384.48 
L 375.163636 51.84 
L 377.277273 51.84 
L 377.277273 384.48 
z
" style="fill:#008000;opacity:0.04;"/>
   </g>
   <g id="patch_86">
    <path clip-path="url(#p20ff6feea9)" d="M 620.345455 384.48 
L 620.345455 371.1744 
L 622.459091 371.1744 
L 622.459091 384.48 
z
" style="fill:#ff6600;"/>
   </g>
   <g id="patch_87">
    <path clip-path="url(#p20ff6feea9)" d="M 379.390909 384.48 
L 379.390909 51.84 
L 381.504545 51.84 
L 381.504545 384.48 
z
" style="fill:#008000;opacity:0.04;"/>
   </g>
   <g id="patch_88">
    <path clip-path="url(#p20ff6feea9)" d="M 383.618182 384.48 
L 383.618182 51.84 
L 385.731818 51.84 
L 385.731818 384.48 
z
" style="fill:#008000;opacity:0.04;"/>
   </g>
   <g id="patch_89">
    <path clip-path="url(#p20ff6feea9)" d="M 387.845455 384.48 
L 387.845455 51.84 
L 389.959091 51.84 
L 389.959091 384.48 
z
" style="fill:#008000;opacity:0.04;"/>
   </g>
   <g id="patch_90">
    <path clip-path="url(#p20ff6feea9)" d="M 392.072727 384.48 
L 392.072727 51.84 
L 394.186364 51.84 
L 394.186364 384.48 
z
" style="fill:#008000;opacity:0.04;"/>
   </g>
   <g id="patch_91">
    <path clip-path="url(#p20ff6feea9)" d="M 396.3 384.48 
L 396.3 51.84 
L 398.413636 51.84 
L 398.413636 384.48 
z
" style="fill:#008000;opacity:0.04;"/>
   </g>
   <g id="patch_92">
    <path clip-path="url(#p20ff6feea9)" d="M 400.527273 384.48 
L 400.527273 51.84 
L 402.640909 51.84 
L 402.640909 384.48 
z
" style="fill:#008000;opacity:0.04;"/>
   </g>
   <g id="patch_93">
    <path clip-path="url(#p20ff6feea9)" d="M 404.754545 384.48 
L 404.754545 51.84 
L 406.868182 51.84 
L 406.868182 384.48 
z
" style="fill:#008000;opacity:0.04;"/>
   </g>
   <g id="patch_94">
    <path clip-path="url(#p20ff6feea9)" d="M 408.981818 384.48 
L 408.981818 51.84 
L 411.095455 51.84 
L 411.095455 384.48 
z
" style="fill:#008000;opacity:0.04;"/>
   </g>
   <g id="patch_95">
    <path clip-path="url(#p20ff6feea9)" d="M 413.209091 384.48 
L 413.209091 51.84 
L 415.322727 51.84 
L 415.322727 384.48 
z
" style="fill:#008000;opacity:0.04;"/>
   </g>
   <g id="patch_96">
    <path clip-path="url(#p20ff6feea9)" d="M 656.277273 384.48 
L 656.277273 371.1744 
L 658.390909 371.1744 
L 658.390909 384.48 
z
" style="fill:#ff6600;"/>
   </g>
   <g id="patch_97">
    <path clip-path="url(#p20ff6feea9)" d="M 417.436364 384.48 
L 417.436364 51.84 
L 419.55 51.84 
L 419.55 384.48 
z
" style="fill:#008000;opacity:0.04;"/>
   </g>
   <g id="patch_98">
    <path clip-path="url(#p20ff6feea9)" d="M 421.663636 384.48 
L 421.663636 51.84 
L 423.777273 51.84 
L 423.777273 384.48 
z
" style="fill:#008000;opacity:0.04;"/>
   </g>
   <g id="patch_99">
    <path clip-path="url(#p20ff6feea9)" d="M 425.890909 384.48 
L 425.890909 51.84 
L 428.004545 51.84 
L 428.004545 384.48 
z
" style="fill:#008000;opacity:0.04;"/>
   </g>
   <g id="patch_100">
    <path clip-path="url(#p20ff6feea9)" d="M 430.118182 384.48 
L 430.118182 51.84 
L 432.231818 51.84 
L 432.231818 384.48 
z
" style="fill:#008000;opacity:0.04;"/>
   </g>
   <g id="patch_101">
    <path clip-path="url(#p20ff6feea9)" d="M 434.345455 384.48 
L 434.345455 51.84 
L 436.459091 51.84 
L 436.459091 384.48 
z
" style="fill:#008000;opacity:0.04;"/>
   </g>
   <g id="patch_102">
    <path clip-path="url(#p20ff6feea9)" d="M 679.527273 384.48 
L 679.527273 371.1744 
L 681.640909 371.1744 
L 681.640909 384.48 
z
" style="fill:#ff6600;"/>
   </g>
   <g id="patch_103">
    <path clip-path="url(#p20ff6feea9)" d="M 438.572727 384.48 
L 438.572727 51.84 
L 440.686364 51.84 
L 440.686364 384.48 
z
" style="fill:#008000;opacity:0.04;"/>
   </g>
   <g id="patch_104">
    <path clip-path="url(#p20ff6feea9)" d="M 442.8 384.48 
L 442.8 51.84 
L 444.913636 51.84 
L 444.913636 384.48 
z
" style="fill:#008000;opacity:0.04;"/>
   </g>
   <g id="patch_105">
    <path clip-path="url(#p20ff6feea9)" d="M 447.027273 384.48 
L 447.027273 51.84 
L 449.140909 51.84 
L 449.140909 384.48 
z
" style="fill:#008000;opacity:0.04;"/>
   </g>
   <g id="patch_106">
    <path clip-path="url(#p20ff6feea9)" d="M 451.254545 384.48 
L 451.254545 51.84 
L 453.368182 51.84 
L 453.368182 384.48 
z
" style="fill:#008000;opacity:0.04;"/>
   </g>
   <g id="patch_107">
    <path clip-path="url(#p20ff6feea9)" d="M 455.481818 384.48 
L 455.481818 51.84 
L 457.595455 51.84 
L 457.595455 384.48 
z
" style="fill:#008000;opacity:0.04;"/>
   </g>
   <g id="patch_108">
    <path clip-path="url(#p20ff6feea9)" d="M 459.709091 384.48 
L 459.709091 51.84 
L 461.822727 51.84 
L 461.822727 384.48 
z
" style="fill:#008000;opacity:0.04;"/>
   </g>
   <g id="patch_109">
    <path clip-path="url(#p20ff6feea9)" d="M 463.936364 384.48 
L 463.936364 51.84 
L 466.05 51.84 
L 466.05 384.48 
z
" style="fill:#008000;opacity:0.04;"/>
   </g>
   <g id="patch_110">
    <path clip-path="url(#p20ff6feea9)" d="M 468.163636 384.48 
L 468.163636 51.84 
L 470.277273 51.84 
L 470.277273 384.48 
z
" style="fill:#008000;opacity:0.04;"/>
   </g>
   <g id="patch_111">
    <path clip-path="url(#p20ff6feea9)" d="M 472.390909 384.48 
L 472.390909 51.84 
L 474.504545 51.84 
L 474.504545 384.48 
z
" style="fill:#008000;opacity:0.04;"/>
   </g>
   <g id="patch_112">
    <path clip-path="url(#p20ff6feea9)" d="M 476.618182 384.48 
L 476.618182 51.84 
L 478.731818 51.84 
L 478.731818 384.48 
z
" style="fill:#008000;opacity:0.04;"/>
   </g>
   <g id="patch_113">
    <path clip-path="url(#p20ff6feea9)" d="M 480.845455 384.48 
L 480.845455 51.84 
L 482.959091 51.84 
L 482.959091 384.48 
z
" style="fill:#008000;opacity:0.04;"/>
   </g>
   <g id="patch_114">
    <path clip-path="url(#p20ff6feea9)" d="M 485.072727 384.48 
L 485.072727 51.84 
L 487.186364 51.84 
L 487.186364 384.48 
z
" style="fill:#008000;opacity:0.04;"/>
   </g>
   <g id="patch_115">
    <path clip-path="url(#p20ff6feea9)" d="M 489.3 384.48 
L 489.3 51.84 
L 491.413636 51.84 
L 491.413636 384.48 
z
" style="fill:#008000;opacity:0.04;"/>
   </g>
   <g id="patch_116">
    <path clip-path="url(#p20ff6feea9)" d="M 493.527273 384.48 
L 493.527273 51.84 
L 495.640909 51.84 
L 495.640909 384.48 
z
" style="fill:#008000;opacity:0.04;"/>
   </g>
   <g id="patch_117">
    <path clip-path="url(#p20ff6feea9)" d="M 497.754545 384.48 
L 497.754545 51.84 
L 499.868182 51.84 
L 499.868182 384.48 
z
" style="fill:#008000;opacity:0.04;"/>
   </g>
   <g id="patch_118">
    <path clip-path="url(#p20ff6feea9)" d="M 501.981818 384.48 
L 501.981818 51.84 
L 504.095455 51.84 
L 504.095455 384.48 
z
" style="fill:#008000;opacity:0.04;"/>
   </g>
   <g id="patch_119">
    <path clip-path="url(#p20ff6feea9)" d="M 506.209091 384.48 
L 506.209091 51.84 
L 508.322727 51.84 
L 508.322727 384.48 
z
" style="fill:#008000;opacity:0.04;"/>
   </g>
   <g id="patch_120">
    <path clip-path="url(#p20ff6feea9)" d="M 510.436364 384.48 
L 510.436364 51.84 
L 512.55 51.84 
L 512.55 384.48 
z
" style="fill:#008000;opacity:0.04;"/>
   </g>
   <g id="patch_121">
    <path clip-path="url(#p20ff6feea9)" d="M 514.663636 384.48 
L 514.663636 51.84 
L 516.777273 51.84 
L 516.777273 384.48 
z
" style="fill:#008000;opacity:0.04;"/>
   </g>
   <g id="patch_122">
    <path clip-path="url(#p20ff6feea9)" d="M 518.890909 384.48 
L 518.890909 51.84 
L 521.004545 51.84 
L 521.004545 384.48 
z
" style="fill:#008000;opacity:0.04;"/>
   </g>
   <g id="patch_123">
    <path clip-path="url(#p20ff6feea9)" d="M 523.118182 384.48 
L 523.118182 51.84 
L 525.231818 51.84 
L 525.231818 384.48 
z
" style="fill:#008000;opacity:0.04;"/>
   </g>
   <g id="patch_124">
    <path clip-path="url(#p20ff6feea9)" d="M 527.345455 384.48 
L 527.345455 51.84 
L 529.459091 51.84 
L 529.459091 384.48 
z
" style="fill:#008000;opacity:0.04;"/>
   </g>
   <g id="patch_125">
    <path clip-path="url(#p20ff6feea9)" d="M 531.572727 384.48 
L 531.572727 51.84 
L 533.686364 51.84 
L 533.686364 384.48 
z
" style="fill:#008000;opacity:0.04;"/>
   </g>
   <g id="patch_126">
    <path clip-path="url(#p20ff6feea9)" d="M 535.8 384.48 
L 535.8 51.84 
L 537.913636 51.84 
L 537.913636 384.48 
z
" style="fill:#008000;opacity:0.04;"/>
   </g>
   <g id="patch_127">
    <path clip-path="url(#p20ff6feea9)" d="M 540.027273 384.48 
L 540.027273 51.84 
L 542.140909 51.84 
L 542.140909 384.48 
z
" style="fill:#008000;opacity:0.04;"/>
   </g>
   <g id="patch_128">
    <path clip-path="url(#p20ff6feea9)" d="M 544.254545 384.48 
L 544.254545 51.84 
L 546.368182 51.84 
L 546.368182 384.48 
z
" style="fill:#008000;opacity:0.04;"/>
   </g>
   <g id="patch_129">
    <path clip-path="url(#p20ff6feea9)" d="M 548.481818 384.48 
L 548.481818 51.84 
L 550.595455 51.84 
L 550.595455 384.48 
z
" style="fill:#008000;opacity:0.04;"/>
   </g>
   <g id="patch_130">
    <path clip-path="url(#p20ff6feea9)" d="M 552.709091 384.48 
L 552.709091 51.84 
L 554.822727 51.84 
L 554.822727 384.48 
z
" style="fill:#008000;opacity:0.04;"/>
   </g>
   <g id="patch_131">
    <path clip-path="url(#p20ff6feea9)" d="M 556.936364 384.48 
L 556.936364 51.84 
L 559.05 51.84 
L 559.05 384.48 
z
" style="fill:#008000;opacity:0.04;"/>
   </g>
   <g id="patch_132">
    <path clip-path="url(#p20ff6feea9)" d="M 561.163636 384.48 
L 561.163636 51.84 
L 563.277273 51.84 
L 563.277273 384.48 
z
" style="fill:#008000;opacity:0.04;"/>
   </g>
   <g id="patch_133">
    <path clip-path="url(#p20ff6feea9)" d="M 565.390909 384.48 
L 565.390909 51.84 
L 567.504545 51.84 
L 567.504545 384.48 
z
" style="fill:#008000;opacity:0.04;"/>
   </g>
   <g id="patch_134">
    <path clip-path="url(#p20ff6feea9)" d="M 569.618182 384.48 
L 569.618182 51.84 
L 571.731818 51.84 
L 571.731818 384.48 
z
" style="fill:#008000;opacity:0.04;"/>
   </g>
   <g id="patch_135">
    <path clip-path="url(#p20ff6feea9)" d="M 573.845455 384.48 
L 573.845455 51.84 
L 575.959091 51.84 
L 575.959091 384.48 
z
" style="fill:#008000;opacity:0.04;"/>
   </g>
   <g id="patch_136">
    <path clip-path="url(#p20ff6feea9)" d="M 578.072727 384.48 
L 578.072727 51.84 
L 580.186364 51.84 
L 580.186364 384.48 
z
" style="fill:#008000;opacity:0.04;"/>
   </g>
   <g id="patch_137">
    <path clip-path="url(#p20ff6feea9)" d="M 582.3 384.48 
L 582.3 51.84 
L 584.413636 51.84 
L 584.413636 384.48 
z
" style="fill:#008000;opacity:0.04;"/>
   </g>
   <g id="patch_138">
    <path clip-path="url(#p20ff6feea9)" d="M 586.527273 384.48 
L 586.527273 51.84 
L 588.640909 51.84 
L 588.640909 384.48 
z
" style="fill:#008000;opacity:0.04;"/>
   </g>
   <g id="patch_139">
    <path clip-path="url(#p20ff6feea9)" d="M 590.754545 384.48 
L 590.754545 51.84 
L 592.868182 51.84 
L 592.868182 384.48 
z
" style="fill:#008000;opacity:0.04;"/>
   </g>
   <g id="patch_140">
    <path clip-path="url(#p20ff6feea9)" d="M 594.981818 384.48 
L 594.981818 51.84 
L 597.095455 51.84 
L 597.095455 384.48 
z
" style="fill:#008000;opacity:0.04;"/>
   </g>
   <g id="patch_141">
    <path clip-path="url(#p20ff6feea9)" d="M 599.209091 384.48 
L 599.209091 51.84 
L 601.322727 51.84 
L 601.322727 384.48 
z
" style="fill:#008000;opacity:0.04;"/>
   </g>
   <g id="patch_142">
    <path clip-path="url(#p20ff6feea9)" d="M 603.436364 384.48 
L 603.436364 51.84 
L 605.55 51.84 
L 605.55 384.48 
z
" style="fill:#008000;opacity:0.04;"/>
   </g>
   <g id="patch_143">
    <path clip-path="url(#p20ff6feea9)" d="M 607.663636 384.48 
L 607.663636 51.84 
L 609.777273 51.84 
L 609.777273 384.48 
z
" style="fill:#008000;opacity:0.04;"/>
   </g>
   <g id="patch_144">
    <path clip-path="url(#p20ff6feea9)" d="M 611.890909 384.48 
L 611.890909 51.84 
L 614.004545 51.84 
L 614.004545 384.48 
z
" style="fill:#008000;opacity:0.04;"/>
   </g>
   <g id="patch_145">
    <path clip-path="url(#p20ff6feea9)" d="M 616.118182 384.48 
L 616.118182 51.84 
L 618.231818 51.84 
L 618.231818 384.48 
z
" style="fill:#008000;opacity:0.04;"/>
   </g>
   <g id="patch_146">
    <path clip-path="url(#p20ff6feea9)" d="M 620.345455 384.48 
L 620.345455 51.84 
L 622.459091 51.84 
L 622.459091 384.48 
z
" style="fill:#008000;opacity:0.04;"/>
   </g>
   <g id="patch_147">
    <path clip-path="url(#p20ff6feea9)" d="M 624.572727 384.48 
L 624.572727 51.84 
L 626.686364 51.84 
L 626.686364 384.48 
z
" style="fill:#008000;opacity:0.04;"/>
   </g>
   <g id="patch_148">
    <path clip-path="url(#p20ff6feea9)" d="M 628.8 384.48 
L 628.8 51.84 
L 630.913636 51.84 
L 630.913636 384.48 
z
" style="fill:#008000;opacity:0.04;"/>
   </g>
   <g id="patch_149">
    <path clip-path="url(#p20ff6feea9)" d="M 633.027273 384.48 
L 633.027273 51.84 
L 635.140909 51.84 
L 635.140909 384.48 
z
" style="fill:#008000;opacity:0.04;"/>
   </g>
   <g id="patch_150">
    <path clip-path="url(#p20ff6feea9)" d="M 637.254545 384.48 
L 637.254545 51.84 
L 639.368182 51.84 
L 639.368182 384.48 
z
" style="fill:#008000;opacity:0.04;"/>
   </g>
   <g id="patch_151">
    <path clip-path="url(#p20ff6feea9)" d="M 641.481818 384.48 
L 641.481818 51.84 
L 643.595455 51.84 
L 643.595455 384.48 
z
" style="fill:#008000;opacity:0.04;"/>
   </g>
   <g id="patch_152">
    <path clip-path="url(#p20ff6feea9)" d="M 645.709091 384.48 
L 645.709091 51.84 
L 647.822727 51.84 
L 647.822727 384.48 
z
" style="fill:#008000;opacity:0.04;"/>
   </g>
   <g id="patch_153">
    <path clip-path="url(#p20ff6feea9)" d="M 649.936364 384.48 
L 649.936364 51.84 
L 652.05 51.84 
L 652.05 384.48 
z
" style="fill:#008000;opacity:0.04;"/>
   </g>
   <g id="patch_154">
    <path clip-path="url(#p20ff6feea9)" d="M 654.163636 384.48 
L 654.163636 51.84 
L 656.277273 51.84 
L 656.277273 384.48 
z
" style="fill:#008000;opacity:0.04;"/>
   </g>
   <g id="patch_155">
    <path clip-path="url(#p20ff6feea9)" d="M 658.390909 384.48 
L 658.390909 51.84 
L 660.504545 51.84 
L 660.504545 384.48 
z
" style="fill:#008000;opacity:0.04;"/>
   </g>
   <g id="patch_156">
    <path clip-path="url(#p20ff6feea9)" d="M 662.618182 384.48 
L 662.618182 51.84 
L 664.731818 51.84 
L 664.731818 384.48 
z
" style="fill:#008000;opacity:0.04;"/>
   </g>
   <g id="patch_157">
    <path clip-path="url(#p20ff6feea9)" d="M 666.845455 384.48 
L 666.845455 51.84 
L 668.959091 51.84 
L 668.959091 384.48 
z
" style="fill:#008000;opacity:0.04;"/>
   </g>
   <g id="patch_158">
    <path clip-path="url(#p20ff6feea9)" d="M 671.072727 384.48 
L 671.072727 51.84 
L 673.186364 51.84 
L 673.186364 384.48 
z
" style="fill:#008000;opacity:0.04;"/>
   </g>
   <g id="patch_159">
    <path clip-path="url(#p20ff6feea9)" d="M 675.3 384.48 
L 675.3 51.84 
L 677.413636 51.84 
L 677.413636 384.48 
z
" style="fill:#008000;opacity:0.04;"/>
   </g>
   <g id="patch_160">
    <path clip-path="url(#p20ff6feea9)" d="M 679.527273 384.48 
L 679.527273 51.84 
L 681.640909 51.84 
L 681.640909 384.48 
z
" style="fill:#008000;opacity:0.04;"/>
   </g>
   <g id="patch_161">
    <path clip-path="url(#p20ff6feea9)" d="M 683.754545 384.48 
L 683.754545 51.84 
L 685.868182 51.84 
L 685.868182 384.48 
z
" style="fill:#008000;opacity:0.04;"/>
   </g>
   <g id="patch_162">
    <path clip-path="url(#p20ff6feea9)" d="M 687.981818 384.48 
L 687.981818 51.84 
L 690.095455 51.84 
L 690.095455 384.48 
z
" style="fill:#008000;opacity:0.04;"/>
   </g>
   <g id="patch_163">
    <path clip-path="url(#p20ff6feea9)" d="M 692.209091 384.48 
L 692.209091 51.84 
L 694.322727 51.84 
L 694.322727 384.48 
z
" style="fill:#008000;opacity:0.04;"/>
   </g>
   <g id="patch_164">
    <path clip-path="url(#p20ff6feea9)" d="M 696.436364 384.48 
L 696.436364 51.84 
L 698.55 51.84 
L 698.55 384.48 
z
" style="fill:#008000;opacity:0.04;"/>
   </g>
   <g id="patch_165">
    <path clip-path="url(#p20ff6feea9)" d="M 700.663636 384.48 
L 700.663636 51.84 
L 702.777273 51.84 
L 702.777273 384.48 
z
" style="fill:#008000;opacity:0.04;"/>
   </g>
   <g id="patch_166">
    <path clip-path="url(#p20ff6feea9)" d="M 704.890909 384.48 
L 704.890909 51.84 
L 707.004545 51.84 
L 707.004545 384.48 
z
" style="fill:#008000;opacity:0.04;"/>
   </g>
   <g id="patch_167">
    <path clip-path="url(#p20ff6feea9)" d="M 709.118182 384.48 
L 709.118182 51.84 
L 711.231818 51.84 
L 711.231818 384.48 
z
" style="fill:#008000;opacity:0.04;"/>
   </g>
   <g id="patch_168">
    <path clip-path="url(#p20ff6feea9)" d="M 713.345455 384.48 
L 713.345455 51.84 
L 715.459091 51.84 
L 715.459091 384.48 
z
" style="fill:#008000;opacity:0.04;"/>
   </g>
   <g id="patch_169">
    <path clip-path="url(#p20ff6feea9)" d="M 717.572727 384.48 
L 717.572727 51.84 
L 719.686364 51.84 
L 719.686364 384.48 
z
" style="fill:#008000;opacity:0.04;"/>
   </g>
   <g id="patch_170">
    <path clip-path="url(#p20ff6feea9)" d="M 721.8 384.48 
L 721.8 51.84 
L 723.913636 51.84 
L 723.913636 384.48 
z
" style="fill:#008000;opacity:0.04;"/>
   </g>
   <g id="patch_171">
    <path clip-path="url(#p20ff6feea9)" d="M 726.027273 384.48 
L 726.027273 51.84 
L 728.140909 51.84 
L 728.140909 384.48 
z
" style="fill:#008000;opacity:0.04;"/>
   </g>
   <g id="patch_172">
    <path clip-path="url(#p20ff6feea9)" d="M 730.254545 384.48 
L 730.254545 51.84 
L 732.368182 51.84 
L 732.368182 384.48 
z
" style="fill:#008000;opacity:0.04;"/>
   </g>
   <g id="patch_173">
    <path clip-path="url(#p20ff6feea9)" d="M 734.481818 384.48 
L 734.481818 51.84 
L 736.595455 51.84 
L 736.595455 384.48 
z
" style="fill:#008000;opacity:0.04;"/>
   </g>
   <g id="patch_174">
    <path clip-path="url(#p20ff6feea9)" d="M 738.709091 384.48 
L 738.709091 51.84 
L 740.822727 51.84 
L 740.822727 384.48 
z
" style="fill:#008000;opacity:0.04;"/>
   </g>
   <g id="patch_175">
    <path clip-path="url(#p20ff6feea9)" d="M 742.936364 384.48 
L 742.936364 51.84 
L 745.05 51.84 
L 745.05 384.48 
z
" style="fill:#008000;opacity:0.04;"/>
   </g>
   <g id="matplotlib.axis_1">
    <g id="xtick_1">
     <g id="line2d_1">
      <defs>
       <path d="M 0 0 
L 0 3.5 
" id="mfc7d28979b" style="stroke:#000000;stroke-width:0.8;"/>
      </defs>
      <g>
       <use style="stroke:#000000;stroke-width:0.8;" x="138.436364" xlink:href="#mfc7d28979b" y="384.48"/>
      </g>
     </g>
     <g id="text_1">
      <!-- 0 -->
      <defs>
       <path d="M 31.78125 66.40625 
Q 24.171875 66.40625 20.328125 58.90625 
Q 16.5 51.421875 16.5 36.375 
Q 16.5 21.390625 20.328125 13.890625 
Q 24.171875 6.390625 31.78125 6.390625 
Q 39.453125 6.390625 43.28125 13.890625 
Q 47.125 21.390625 47.125 36.375 
Q 47.125 51.421875 43.28125 58.90625 
Q 39.453125 66.40625 31.78125 66.40625 
z
M 31.78125 74.21875 
Q 44.046875 74.21875 50.515625 64.515625 
Q 56.984375 54.828125 56.984375 36.375 
Q 56.984375 17.96875 50.515625 8.265625 
Q 44.046875 -1.421875 31.78125 -1.421875 
Q 19.53125 -1.421875 13.0625 8.265625 
Q 6.59375 17.96875 6.59375 36.375 
Q 6.59375 54.828125 13.0625 64.515625 
Q 19.53125 74.21875 31.78125 74.21875 
z
" id="DejaVuSans-48"/>
      </defs>
      <g transform="translate(135.255114 399.078438)scale(0.1 -0.1)">
       <use xlink:href="#DejaVuSans-48"/>
      </g>
     </g>
    </g>
    <g id="xtick_2">
     <g id="line2d_2">
      <g>
       <use style="stroke:#000000;stroke-width:0.8;" x="222.981818" xlink:href="#mfc7d28979b" y="384.48"/>
      </g>
     </g>
     <g id="text_2">
      <!-- 200 -->
      <defs>
       <path d="M 19.1875 8.296875 
L 53.609375 8.296875 
L 53.609375 0 
L 7.328125 0 
L 7.328125 8.296875 
Q 12.9375 14.109375 22.625 23.890625 
Q 32.328125 33.6875 34.8125 36.53125 
Q 39.546875 41.84375 41.421875 45.53125 
Q 43.3125 49.21875 43.3125 52.78125 
Q 43.3125 58.59375 39.234375 62.25 
Q 35.15625 65.921875 28.609375 65.921875 
Q 23.96875 65.921875 18.8125 64.3125 
Q 13.671875 62.703125 7.8125 59.421875 
L 7.8125 69.390625 
Q 13.765625 71.78125 18.9375 73 
Q 24.125 74.21875 28.421875 74.21875 
Q 39.75 74.21875 46.484375 68.546875 
Q 53.21875 62.890625 53.21875 53.421875 
Q 53.21875 48.921875 51.53125 44.890625 
Q 49.859375 40.875 45.40625 35.40625 
Q 44.1875 33.984375 37.640625 27.21875 
Q 31.109375 20.453125 19.1875 8.296875 
z
" id="DejaVuSans-50"/>
      </defs>
      <g transform="translate(213.438068 399.078438)scale(0.1 -0.1)">
       <use xlink:href="#DejaVuSans-50"/>
       <use x="63.623047" xlink:href="#DejaVuSans-48"/>
       <use x="127.246094" xlink:href="#DejaVuSans-48"/>
      </g>
     </g>
    </g>
    <g id="xtick_3">
     <g id="line2d_3">
      <g>
       <use style="stroke:#000000;stroke-width:0.8;" x="307.527273" xlink:href="#mfc7d28979b" y="384.48"/>
      </g>
     </g>
     <g id="text_3">
      <!-- 400 -->
      <defs>
       <path d="M 37.796875 64.3125 
L 12.890625 25.390625 
L 37.796875 25.390625 
z
M 35.203125 72.90625 
L 47.609375 72.90625 
L 47.609375 25.390625 
L 58.015625 25.390625 
L 58.015625 17.1875 
L 47.609375 17.1875 
L 47.609375 0 
L 37.796875 0 
L 37.796875 17.1875 
L 4.890625 17.1875 
L 4.890625 26.703125 
z
" id="DejaVuSans-52"/>
      </defs>
      <g transform="translate(297.983523 399.078438)scale(0.1 -0.1)">
       <use xlink:href="#DejaVuSans-52"/>
       <use x="63.623047" xlink:href="#DejaVuSans-48"/>
       <use x="127.246094" xlink:href="#DejaVuSans-48"/>
      </g>
     </g>
    </g>
    <g id="xtick_4">
     <g id="line2d_4">
      <g>
       <use style="stroke:#000000;stroke-width:0.8;" x="392.072727" xlink:href="#mfc7d28979b" y="384.48"/>
      </g>
     </g>
     <g id="text_4">
      <!-- 600 -->
      <defs>
       <path d="M 33.015625 40.375 
Q 26.375 40.375 22.484375 35.828125 
Q 18.609375 31.296875 18.609375 23.390625 
Q 18.609375 15.53125 22.484375 10.953125 
Q 26.375 6.390625 33.015625 6.390625 
Q 39.65625 6.390625 43.53125 10.953125 
Q 47.40625 15.53125 47.40625 23.390625 
Q 47.40625 31.296875 43.53125 35.828125 
Q 39.65625 40.375 33.015625 40.375 
z
M 52.59375 71.296875 
L 52.59375 62.3125 
Q 48.875 64.0625 45.09375 64.984375 
Q 41.3125 65.921875 37.59375 65.921875 
Q 27.828125 65.921875 22.671875 59.328125 
Q 17.53125 52.734375 16.796875 39.40625 
Q 19.671875 43.65625 24.015625 45.921875 
Q 28.375 48.1875 33.59375 48.1875 
Q 44.578125 48.1875 50.953125 41.515625 
Q 57.328125 34.859375 57.328125 23.390625 
Q 57.328125 12.15625 50.6875 5.359375 
Q 44.046875 -1.421875 33.015625 -1.421875 
Q 20.359375 -1.421875 13.671875 8.265625 
Q 6.984375 17.96875 6.984375 36.375 
Q 6.984375 53.65625 15.1875 63.9375 
Q 23.390625 74.21875 37.203125 74.21875 
Q 40.921875 74.21875 44.703125 73.484375 
Q 48.484375 72.75 52.59375 71.296875 
z
" id="DejaVuSans-54"/>
      </defs>
      <g transform="translate(382.528977 399.078438)scale(0.1 -0.1)">
       <use xlink:href="#DejaVuSans-54"/>
       <use x="63.623047" xlink:href="#DejaVuSans-48"/>
       <use x="127.246094" xlink:href="#DejaVuSans-48"/>
      </g>
     </g>
    </g>
    <g id="xtick_5">
     <g id="line2d_5">
      <g>
       <use style="stroke:#000000;stroke-width:0.8;" x="476.618182" xlink:href="#mfc7d28979b" y="384.48"/>
      </g>
     </g>
     <g id="text_5">
      <!-- 800 -->
      <defs>
       <path d="M 31.78125 34.625 
Q 24.75 34.625 20.71875 30.859375 
Q 16.703125 27.09375 16.703125 20.515625 
Q 16.703125 13.921875 20.71875 10.15625 
Q 24.75 6.390625 31.78125 6.390625 
Q 38.8125 6.390625 42.859375 10.171875 
Q 46.921875 13.96875 46.921875 20.515625 
Q 46.921875 27.09375 42.890625 30.859375 
Q 38.875 34.625 31.78125 34.625 
z
M 21.921875 38.8125 
Q 15.578125 40.375 12.03125 44.71875 
Q 8.5 49.078125 8.5 55.328125 
Q 8.5 64.0625 14.71875 69.140625 
Q 20.953125 74.21875 31.78125 74.21875 
Q 42.671875 74.21875 48.875 69.140625 
Q 55.078125 64.0625 55.078125 55.328125 
Q 55.078125 49.078125 51.53125 44.71875 
Q 48 40.375 41.703125 38.8125 
Q 48.828125 37.15625 52.796875 32.3125 
Q 56.78125 27.484375 56.78125 20.515625 
Q 56.78125 9.90625 50.3125 4.234375 
Q 43.84375 -1.421875 31.78125 -1.421875 
Q 19.734375 -1.421875 13.25 4.234375 
Q 6.78125 9.90625 6.78125 20.515625 
Q 6.78125 27.484375 10.78125 32.3125 
Q 14.796875 37.15625 21.921875 38.8125 
z
M 18.3125 54.390625 
Q 18.3125 48.734375 21.84375 45.5625 
Q 25.390625 42.390625 31.78125 42.390625 
Q 38.140625 42.390625 41.71875 45.5625 
Q 45.3125 48.734375 45.3125 54.390625 
Q 45.3125 60.0625 41.71875 63.234375 
Q 38.140625 66.40625 31.78125 66.40625 
Q 25.390625 66.40625 21.84375 63.234375 
Q 18.3125 60.0625 18.3125 54.390625 
z
" id="DejaVuSans-56"/>
      </defs>
      <g transform="translate(467.074432 399.078438)scale(0.1 -0.1)">
       <use xlink:href="#DejaVuSans-56"/>
       <use x="63.623047" xlink:href="#DejaVuSans-48"/>
       <use x="127.246094" xlink:href="#DejaVuSans-48"/>
      </g>
     </g>
    </g>
    <g id="xtick_6">
     <g id="line2d_6">
      <g>
       <use style="stroke:#000000;stroke-width:0.8;" x="561.163636" xlink:href="#mfc7d28979b" y="384.48"/>
      </g>
     </g>
     <g id="text_6">
      <!-- 1000 -->
      <defs>
       <path d="M 12.40625 8.296875 
L 28.515625 8.296875 
L 28.515625 63.921875 
L 10.984375 60.40625 
L 10.984375 69.390625 
L 28.421875 72.90625 
L 38.28125 72.90625 
L 38.28125 8.296875 
L 54.390625 8.296875 
L 54.390625 0 
L 12.40625 0 
z
" id="DejaVuSans-49"/>
      </defs>
      <g transform="translate(548.438636 399.078438)scale(0.1 -0.1)">
       <use xlink:href="#DejaVuSans-49"/>
       <use x="63.623047" xlink:href="#DejaVuSans-48"/>
       <use x="127.246094" xlink:href="#DejaVuSans-48"/>
       <use x="190.869141" xlink:href="#DejaVuSans-48"/>
      </g>
     </g>
    </g>
    <g id="xtick_7">
     <g id="line2d_7">
      <g>
       <use style="stroke:#000000;stroke-width:0.8;" x="645.709091" xlink:href="#mfc7d28979b" y="384.48"/>
      </g>
     </g>
     <g id="text_7">
      <!-- 1200 -->
      <g transform="translate(632.984091 399.078438)scale(0.1 -0.1)">
       <use xlink:href="#DejaVuSans-49"/>
       <use x="63.623047" xlink:href="#DejaVuSans-50"/>
       <use x="127.246094" xlink:href="#DejaVuSans-48"/>
       <use x="190.869141" xlink:href="#DejaVuSans-48"/>
      </g>
     </g>
    </g>
    <g id="xtick_8">
     <g id="line2d_8">
      <g>
       <use style="stroke:#000000;stroke-width:0.8;" x="730.254545" xlink:href="#mfc7d28979b" y="384.48"/>
      </g>
     </g>
     <g id="text_8">
      <!-- 1400 -->
      <g transform="translate(717.529545 399.078438)scale(0.1 -0.1)">
       <use xlink:href="#DejaVuSans-49"/>
       <use x="63.623047" xlink:href="#DejaVuSans-52"/>
       <use x="127.246094" xlink:href="#DejaVuSans-48"/>
       <use x="190.869141" xlink:href="#DejaVuSans-48"/>
      </g>
     </g>
    </g>
    <g id="text_9">
     <!-- Timestamp -->
     <defs>
      <path d="M -0.296875 72.90625 
L 61.375 72.90625 
L 61.375 64.59375 
L 35.5 64.59375 
L 35.5 0 
L 25.59375 0 
L 25.59375 64.59375 
L -0.296875 64.59375 
z
" id="DejaVuSans-84"/>
      <path d="M 9.421875 54.6875 
L 18.40625 54.6875 
L 18.40625 0 
L 9.421875 0 
z
M 9.421875 75.984375 
L 18.40625 75.984375 
L 18.40625 64.59375 
L 9.421875 64.59375 
z
" id="DejaVuSans-105"/>
      <path d="M 52 44.1875 
Q 55.375 50.25 60.0625 53.125 
Q 64.75 56 71.09375 56 
Q 79.640625 56 84.28125 50.015625 
Q 88.921875 44.046875 88.921875 33.015625 
L 88.921875 0 
L 79.890625 0 
L 79.890625 32.71875 
Q 79.890625 40.578125 77.09375 44.375 
Q 74.3125 48.1875 68.609375 48.1875 
Q 61.625 48.1875 57.5625 43.546875 
Q 53.515625 38.921875 53.515625 30.90625 
L 53.515625 0 
L 44.484375 0 
L 44.484375 32.71875 
Q 44.484375 40.625 41.703125 44.40625 
Q 38.921875 48.1875 33.109375 48.1875 
Q 26.21875 48.1875 22.15625 43.53125 
Q 18.109375 38.875 18.109375 30.90625 
L 18.109375 0 
L 9.078125 0 
L 9.078125 54.6875 
L 18.109375 54.6875 
L 18.109375 46.1875 
Q 21.1875 51.21875 25.484375 53.609375 
Q 29.78125 56 35.6875 56 
Q 41.65625 56 45.828125 52.96875 
Q 50 49.953125 52 44.1875 
z
" id="DejaVuSans-109"/>
      <path d="M 56.203125 29.59375 
L 56.203125 25.203125 
L 14.890625 25.203125 
Q 15.484375 15.921875 20.484375 11.0625 
Q 25.484375 6.203125 34.421875 6.203125 
Q 39.59375 6.203125 44.453125 7.46875 
Q 49.3125 8.734375 54.109375 11.28125 
L 54.109375 2.78125 
Q 49.265625 0.734375 44.1875 -0.34375 
Q 39.109375 -1.421875 33.890625 -1.421875 
Q 20.796875 -1.421875 13.15625 6.1875 
Q 5.515625 13.8125 5.515625 26.8125 
Q 5.515625 40.234375 12.765625 48.109375 
Q 20.015625 56 32.328125 56 
Q 43.359375 56 49.78125 48.890625 
Q 56.203125 41.796875 56.203125 29.59375 
z
M 47.21875 32.234375 
Q 47.125 39.59375 43.09375 43.984375 
Q 39.0625 48.390625 32.421875 48.390625 
Q 24.90625 48.390625 20.390625 44.140625 
Q 15.875 39.890625 15.1875 32.171875 
z
" id="DejaVuSans-101"/>
      <path d="M 44.28125 53.078125 
L 44.28125 44.578125 
Q 40.484375 46.53125 36.375 47.5 
Q 32.28125 48.484375 27.875 48.484375 
Q 21.1875 48.484375 17.84375 46.4375 
Q 14.5 44.390625 14.5 40.28125 
Q 14.5 37.15625 16.890625 35.375 
Q 19.28125 33.59375 26.515625 31.984375 
L 29.59375 31.296875 
Q 39.15625 29.25 43.1875 25.515625 
Q 47.21875 21.78125 47.21875 15.09375 
Q 47.21875 7.46875 41.1875 3.015625 
Q 35.15625 -1.421875 24.609375 -1.421875 
Q 20.21875 -1.421875 15.453125 -0.5625 
Q 10.6875 0.296875 5.421875 2 
L 5.421875 11.28125 
Q 10.40625 8.6875 15.234375 7.390625 
Q 20.0625 6.109375 24.8125 6.109375 
Q 31.15625 6.109375 34.5625 8.28125 
Q 37.984375 10.453125 37.984375 14.40625 
Q 37.984375 18.0625 35.515625 20.015625 
Q 33.0625 21.96875 24.703125 23.78125 
L 21.578125 24.515625 
Q 13.234375 26.265625 9.515625 29.90625 
Q 5.8125 33.546875 5.8125 39.890625 
Q 5.8125 47.609375 11.28125 51.796875 
Q 16.75 56 26.8125 56 
Q 31.78125 56 36.171875 55.265625 
Q 40.578125 54.546875 44.28125 53.078125 
z
" id="DejaVuSans-115"/>
      <path d="M 18.3125 70.21875 
L 18.3125 54.6875 
L 36.8125 54.6875 
L 36.8125 47.703125 
L 18.3125 47.703125 
L 18.3125 18.015625 
Q 18.3125 11.328125 20.140625 9.421875 
Q 21.96875 7.515625 27.59375 7.515625 
L 36.8125 7.515625 
L 36.8125 0 
L 27.59375 0 
Q 17.1875 0 13.234375 3.875 
Q 9.28125 7.765625 9.28125 18.015625 
L 9.28125 47.703125 
L 2.6875 47.703125 
L 2.6875 54.6875 
L 9.28125 54.6875 
L 9.28125 70.21875 
z
" id="DejaVuSans-116"/>
      <path d="M 34.28125 27.484375 
Q 23.390625 27.484375 19.1875 25 
Q 14.984375 22.515625 14.984375 16.5 
Q 14.984375 11.71875 18.140625 8.90625 
Q 21.296875 6.109375 26.703125 6.109375 
Q 34.1875 6.109375 38.703125 11.40625 
Q 43.21875 16.703125 43.21875 25.484375 
L 43.21875 27.484375 
z
M 52.203125 31.203125 
L 52.203125 0 
L 43.21875 0 
L 43.21875 8.296875 
Q 40.140625 3.328125 35.546875 0.953125 
Q 30.953125 -1.421875 24.3125 -1.421875 
Q 15.921875 -1.421875 10.953125 3.296875 
Q 6 8.015625 6 15.921875 
Q 6 25.140625 12.171875 29.828125 
Q 18.359375 34.515625 30.609375 34.515625 
L 43.21875 34.515625 
L 43.21875 35.40625 
Q 43.21875 41.609375 39.140625 45 
Q 35.0625 48.390625 27.6875 48.390625 
Q 23 48.390625 18.546875 47.265625 
Q 14.109375 46.140625 10.015625 43.890625 
L 10.015625 52.203125 
Q 14.9375 54.109375 19.578125 55.046875 
Q 24.21875 56 28.609375 56 
Q 40.484375 56 46.34375 49.84375 
Q 52.203125 43.703125 52.203125 31.203125 
z
" id="DejaVuSans-97"/>
      <path d="M 18.109375 8.203125 
L 18.109375 -20.796875 
L 9.078125 -20.796875 
L 9.078125 54.6875 
L 18.109375 54.6875 
L 18.109375 46.390625 
Q 20.953125 51.265625 25.265625 53.625 
Q 29.59375 56 35.59375 56 
Q 45.5625 56 51.78125 48.09375 
Q 58.015625 40.1875 58.015625 27.296875 
Q 58.015625 14.40625 51.78125 6.484375 
Q 45.5625 -1.421875 35.59375 -1.421875 
Q 29.59375 -1.421875 25.265625 0.953125 
Q 20.953125 3.328125 18.109375 8.203125 
z
M 48.6875 27.296875 
Q 48.6875 37.203125 44.609375 42.84375 
Q 40.53125 48.484375 33.40625 48.484375 
Q 26.265625 48.484375 22.1875 42.84375 
Q 18.109375 37.203125 18.109375 27.296875 
Q 18.109375 17.390625 22.1875 11.75 
Q 26.265625 6.109375 33.40625 6.109375 
Q 40.53125 6.109375 44.609375 11.75 
Q 48.6875 17.390625 48.6875 27.296875 
z
" id="DejaVuSans-112"/>
     </defs>
     <g transform="translate(414.739062 412.756563)scale(0.1 -0.1)">
      <use xlink:href="#DejaVuSans-84"/>
      <use x="61.037109" xlink:href="#DejaVuSans-105"/>
      <use x="88.820312" xlink:href="#DejaVuSans-109"/>
      <use x="186.232422" xlink:href="#DejaVuSans-101"/>
      <use x="247.755859" xlink:href="#DejaVuSans-115"/>
      <use x="299.855469" xlink:href="#DejaVuSans-116"/>
      <use x="339.064453" xlink:href="#DejaVuSans-97"/>
      <use x="400.34375" xlink:href="#DejaVuSans-109"/>
      <use x="497.755859" xlink:href="#DejaVuSans-112"/>
     </g>
    </g>
   </g>
   <g id="matplotlib.axis_2">
    <g id="ytick_1">
     <g id="line2d_9">
      <defs>
       <path d="M 0 0 
L -3.5 0 
" id="m39a51696e1" style="stroke:#000000;stroke-width:0.8;"/>
      </defs>
      <g>
       <use style="stroke:#000000;stroke-width:0.8;" x="108" xlink:href="#m39a51696e1" y="369.582557"/>
      </g>
     </g>
     <g id="text_10">
      <!-- 0 -->
      <g transform="translate(94.6375 373.381776)scale(0.1 -0.1)">
       <use xlink:href="#DejaVuSans-48"/>
      </g>
     </g>
    </g>
    <g id="ytick_2">
     <g id="line2d_10">
      <g>
       <use style="stroke:#000000;stroke-width:0.8;" x="108" xlink:href="#m39a51696e1" y="313.943183"/>
      </g>
     </g>
     <g id="text_11">
      <!-- 2000 -->
      <g transform="translate(75.55 317.742402)scale(0.1 -0.1)">
       <use xlink:href="#DejaVuSans-50"/>
       <use x="63.623047" xlink:href="#DejaVuSans-48"/>
       <use x="127.246094" xlink:href="#DejaVuSans-48"/>
       <use x="190.869141" xlink:href="#DejaVuSans-48"/>
      </g>
     </g>
    </g>
    <g id="ytick_3">
     <g id="line2d_11">
      <g>
       <use style="stroke:#000000;stroke-width:0.8;" x="108" xlink:href="#m39a51696e1" y="258.303809"/>
      </g>
     </g>
     <g id="text_12">
      <!-- 4000 -->
      <g transform="translate(75.55 262.103027)scale(0.1 -0.1)">
       <use xlink:href="#DejaVuSans-52"/>
       <use x="63.623047" xlink:href="#DejaVuSans-48"/>
       <use x="127.246094" xlink:href="#DejaVuSans-48"/>
       <use x="190.869141" xlink:href="#DejaVuSans-48"/>
      </g>
     </g>
    </g>
    <g id="ytick_4">
     <g id="line2d_12">
      <g>
       <use style="stroke:#000000;stroke-width:0.8;" x="108" xlink:href="#m39a51696e1" y="202.664434"/>
      </g>
     </g>
     <g id="text_13">
      <!-- 6000 -->
      <g transform="translate(75.55 206.463653)scale(0.1 -0.1)">
       <use xlink:href="#DejaVuSans-54"/>
       <use x="63.623047" xlink:href="#DejaVuSans-48"/>
       <use x="127.246094" xlink:href="#DejaVuSans-48"/>
       <use x="190.869141" xlink:href="#DejaVuSans-48"/>
      </g>
     </g>
    </g>
    <g id="ytick_5">
     <g id="line2d_13">
      <g>
       <use style="stroke:#000000;stroke-width:0.8;" x="108" xlink:href="#m39a51696e1" y="147.02506"/>
      </g>
     </g>
     <g id="text_14">
      <!-- 8000 -->
      <g transform="translate(75.55 150.824279)scale(0.1 -0.1)">
       <use xlink:href="#DejaVuSans-56"/>
       <use x="63.623047" xlink:href="#DejaVuSans-48"/>
       <use x="127.246094" xlink:href="#DejaVuSans-48"/>
       <use x="190.869141" xlink:href="#DejaVuSans-48"/>
      </g>
     </g>
    </g>
    <g id="ytick_6">
     <g id="line2d_14">
      <g>
       <use style="stroke:#000000;stroke-width:0.8;" x="108" xlink:href="#m39a51696e1" y="91.385685"/>
      </g>
     </g>
     <g id="text_15">
      <!-- 10000 -->
      <g transform="translate(69.1875 95.184904)scale(0.1 -0.1)">
       <use xlink:href="#DejaVuSans-49"/>
       <use x="63.623047" xlink:href="#DejaVuSans-48"/>
       <use x="127.246094" xlink:href="#DejaVuSans-48"/>
       <use x="190.869141" xlink:href="#DejaVuSans-48"/>
       <use x="254.492188" xlink:href="#DejaVuSans-48"/>
      </g>
     </g>
    </g>
    <g id="text_16">
     <!-- Value -->
     <defs>
      <path d="M 28.609375 0 
L 0.78125 72.90625 
L 11.078125 72.90625 
L 34.1875 11.53125 
L 57.328125 72.90625 
L 67.578125 72.90625 
L 39.796875 0 
z
" id="DejaVuSans-86"/>
      <path d="M 9.421875 75.984375 
L 18.40625 75.984375 
L 18.40625 0 
L 9.421875 0 
z
" id="DejaVuSans-108"/>
      <path d="M 8.5 21.578125 
L 8.5 54.6875 
L 17.484375 54.6875 
L 17.484375 21.921875 
Q 17.484375 14.15625 20.5 10.265625 
Q 23.53125 6.390625 29.59375 6.390625 
Q 36.859375 6.390625 41.078125 11.03125 
Q 45.3125 15.671875 45.3125 23.6875 
L 45.3125 54.6875 
L 54.296875 54.6875 
L 54.296875 0 
L 45.3125 0 
L 45.3125 8.40625 
Q 42.046875 3.421875 37.71875 1 
Q 33.40625 -1.421875 27.6875 -1.421875 
Q 18.265625 -1.421875 13.375 4.4375 
Q 8.5 10.296875 8.5 21.578125 
z
M 31.109375 56 
z
" id="DejaVuSans-117"/>
     </defs>
     <g transform="translate(63.107813 232.273281)rotate(-90)scale(0.1 -0.1)">
      <use xlink:href="#DejaVuSans-86"/>
      <use x="68.298828" xlink:href="#DejaVuSans-97"/>
      <use x="129.578125" xlink:href="#DejaVuSans-108"/>
      <use x="157.361328" xlink:href="#DejaVuSans-117"/>
      <use x="220.740234" xlink:href="#DejaVuSans-101"/>
     </g>
    </g>
   </g>
   <g id="line2d_15">
    <path clip-path="url(#p20ff6feea9)" d="M 138.436364 369.36 
L 138.859091 352.779466 
L 139.281818 348.05012 
L 139.704545 349.329825 
L 140.127273 344.739577 
L 140.55 350.637351 
L 140.972727 354.949402 
L 141.395455 346.742594 
L 142.240909 354.309549 
L 142.663636 349.302006 
L 143.086364 349.691481 
L 143.509091 347.771923 
L 143.931818 351.694499 
L 144.354545 318.616891 
L 144.777273 319.729678 
L 145.2 312.802576 
L 145.622727 328.103404 
L 146.045455 316.697332 
L 146.468182 317.337185 
L 146.890909 324.375566 
L 147.313636 324.598123 
L 147.736364 331.775603 
L 148.581818 318.589071 
L 149.004545 303.176964 
L 149.427273 311.161214 
L 149.85 316.419135 
L 150.272727 315.11161 
L 150.695455 335.865097 
L 151.118182 297.891224 
L 151.540909 278.584361 
L 151.963636 315.055971 
L 152.386364 325.043238 
L 152.809091 319.785317 
L 153.231818 331.302668 
L 153.654545 317.531923 
L 154.077273 319.896596 
L 154.5 318.70035 
L 154.922727 345.741086 
L 155.345455 357.091518 
L 155.768182 354.504287 
L 156.190909 364.380276 
L 156.613636 363.517866 
L 157.036364 364.93667 
L 157.459091 364.408096 
L 157.881818 332.443275 
L 158.727273 320.258252 
L 159.15 337.589917 
L 159.572727 319.284563 
L 159.995455 312.301822 
L 160.418182 324.069549 
L 160.840909 325.043238 
L 161.263636 320.981564 
L 161.686364 327.380092 
L 162.109091 328.131224 
L 162.531818 320.925925 
L 162.954545 321.092843 
L 163.377273 314.416118 
L 163.8 315.028151 
L 164.222727 321.37104 
L 164.645455 321.065023 
L 165.068182 319.840957 
L 165.490909 310.910837 
L 165.913636 331.608684 
L 166.336364 332.276357 
L 166.759091 345.35161 
L 167.181818 347.605005 
L 167.604545 327.407912 
L 168.027273 330.356799 
L 168.45 329.995143 
L 168.872727 324.069549 
L 169.295455 355.839632 
L 169.718182 327.240994 
L 170.140909 322.706385 
L 170.563636 330.134241 
L 170.986364 302.258914 
L 171.409091 327.880846 
L 171.831818 323.652254 
L 172.254545 325.043238 
L 172.677273 323.568795 
L 173.1 327.268813 
L 173.522727 322.428188 
L 173.945455 323.1515 
L 174.368182 320.925925 
L 174.790909 319.757498 
L 175.213636 316.586053 
L 175.636364 323.596615 
L 176.059091 323.791352 
L 176.481818 331.553045 
L 176.904545 362.516357 
L 177.327273 365.743441 
L 177.75 365.854719 
L 178.172727 356.201288 
L 178.595455 354.476467 
L 179.018182 354.393008 
L 179.440909 357.592272 
L 179.863636 350.080957 
L 180.286364 347.354627 
L 180.709091 337.478638 
L 181.554545 341.262116 
L 181.977273 344.823036 
L 182.4 352.139614 
L 182.822727 343.376412 
L 183.668182 350.999006 
L 184.090909 342.959117 
L 184.513636 346.297479 
L 184.936364 335.53126 
L 185.359091 343.459871 
L 185.781818 354.921582 
L 186.627273 362.21034 
L 187.05 363.629144 
L 187.472727 367.301343 
L 188.318182 361.932144 
L 188.740909 353.780975 
L 189.163636 352.362171 
L 190.009091 334.223735 
L 190.431818 355.839632 
L 190.854545 342.013247 
L 191.277273 348.88471 
L 191.7 352.389991 
L 192.122727 323.12368 
L 192.545455 359.372732 
L 192.968182 352.223073 
L 193.390909 355.032861 
L 194.236364 341.679411 
L 194.659091 352.195253 
L 195.081818 355.533615 
L 195.504545 350.220055 
L 195.927273 361.292291 
L 196.772727 368.163753 
L 197.195455 367.774278 
L 197.618182 368.970524 
L 198.040909 369.276541 
L 198.463636 368.914885 
L 198.886364 367.60736 
L 199.309091 367.913376 
L 199.731818 366.800589 
L 200.154545 366.494572 
L 200.577273 365.353965 
L 201 349.023809 
L 201.422727 349.83058 
L 201.845455 345.156872 
L 202.268182 351.165925 
L 202.690909 349.580202 
L 203.113636 356.00655 
L 203.536364 352.056155 
L 203.959091 352.389991 
L 204.381818 352.946385 
L 204.804545 353.141122 
L 205.227273 351.388482 
L 205.65 351.750138 
L 206.072727 354.810304 
L 206.495455 365.020129 
L 206.918182 364.268997 
L 207.340909 367.468261 
L 207.763636 367.440442 
L 208.609091 367.996835 
L 209.031818 366.939687 
L 209.454545 366.68931 
L 209.877273 363.768243 
L 210.3 365.493063 
L 210.722727 364.686293 
L 211.145455 361.987783 
L 211.568182 350.247875 
L 211.990909 351.861417 
L 212.413636 345.713266 
L 212.836364 352.139614 
L 214.104545 354.420828 
L 214.527273 345.601987 
L 214.95 352.807286 
L 215.372727 346.130561 
L 215.795455 345.32379 
L 216.218182 354.142631 
L 217.063636 359.678749 
L 217.486364 367.356983 
L 217.909091 366.327654 
L 218.331818 368.163753 
L 218.754545 365.965998 
L 219.177273 362.738914 
L 219.6 364.575014 
L 220.022727 363.712603 
L 220.445455 364.296817 
L 220.868182 358.371224 
L 221.290909 361.932144 
L 221.713636 353.641877 
L 222.559091 347.938841 
L 222.981818 353.196762 
L 223.404545 342.291444 
L 223.827273 339.453836 
L 224.672727 345.35161 
L 225.095455 346.770414 
L 225.518182 344.4892 
L 225.940909 346.24184 
L 226.363636 359.400552 
L 226.786364 358.120846 
L 227.209091 364.129899 
L 227.631818 365.075768 
L 228.054545 367.635179 
L 228.477273 366.466753 
L 228.9 362.655455 
L 229.322727 363.517866 
L 229.745455 361.793045 
L 230.168182 361.125373 
L 230.590909 355.477976 
L 231.013636 363.462226 
L 231.436364 360.930635 
L 231.859091 362.711095 
L 232.281818 359.484011 
L 232.704545 345.045593 
L 233.127273 342.207985 
L 233.55 336.338031 
L 234.395455 353.753155 
L 234.818182 338.674885 
L 235.240909 343.376412 
L 235.663636 332.832751 
L 236.086364 338.953082 
L 236.509091 352.389991 
L 236.931818 360.318602 
L 237.354545 360.791536 
L 237.777273 361.932144 
L 238.622727 366.772769 
L 239.468182 359.56747 
L 239.890909 359.177994 
L 240.313636 360.513339 
L 240.736364 356.06219 
L 241.159091 359.511831 
L 241.581818 358.009568 
L 242.004545 362.794554 
L 242.427273 361.403569 
L 242.85 348.801251 
L 243.272727 343.459871 
L 243.695455 346.24184 
L 244.118182 347.13207 
L 244.540909 343.821527 
L 244.963636 360.262962 
L 245.386364 346.102741 
L 245.809091 340.622263 
L 246.231818 354.420828 
L 246.654545 357.035879 
L 247.077273 361.236651 
L 247.5 360.958454 
L 247.922727 367.523901 
L 248.345455 366.411113 
L 248.768182 367.746458 
L 249.190909 364.185538 
L 249.613636 358.065207 
L 250.036364 356.451665 
L 250.459091 359.344913 
L 250.881818 336.977884 
L 251.727273 354.532107 
L 252.15 357.842649 
L 252.572727 359.400552 
L 252.995455 361.403569 
L 253.418182 354.25391 
L 253.840909 327.686109 
L 254.263636 348.689972 
L 254.686364 342.486182 
L 255.109091 345.963643 
L 255.531818 342.625281 
L 255.954545 337.283901 
L 256.377273 344.656118 
L 256.8 345.768905 
L 257.222727 359.011076 
L 257.645455 362.878013 
L 258.068182 365.659982 
L 258.490909 364.853211 
L 258.913636 366.71713 
L 259.759091 357.78701 
L 260.181818 358.093027 
L 260.604545 354.031352 
L 261.027273 345.156872 
L 261.45 323.98609 
L 261.872727 332.777111 
L 262.295455 356.702042 
L 262.718182 305.708556 
L 263.140909 296.694977 
L 263.563636 359.484011 
L 263.986364 346.436578 
L 264.409091 353.558418 
L 264.831818 346.464397 
L 265.254545 342.875658 
L 265.677273 324.653763 
L 266.1 340.177148 
L 266.522727 343.126035 
L 267.368182 354.810304 
L 267.790909 363.656964 
L 268.213636 361.542668 
L 268.636364 364.157718 
L 269.059091 361.904324 
L 269.481818 362.711095 
L 269.904545 361.459209 
L 270.327273 350.359154 
L 270.75 356.03437 
L 271.172727 351.305023 
L 271.595455 352.807286 
L 272.018182 352.835106 
L 272.440909 356.312567 
L 272.863636 356.89678 
L 273.286364 361.570488 
L 273.709091 363.517866 
L 274.131818 357.480994 
L 274.554545 341.234296 
L 274.977273 320.063514 
L 275.4 340.288427 
L 275.822727 341.929788 
L 276.245455 336.198933 
L 277.090909 352.47345 
L 277.513636 351.305023 
L 277.936364 358.510322 
L 278.359091 362.460718 
L 278.781818 363.823882 
L 279.204545 362.015603 
L 279.627273 361.737406 
L 280.895455 355.422337 
L 281.318182 353.808795 
L 281.740909 356.841141 
L 282.163636 353.502778 
L 282.586364 355.644894 
L 283.009091 360.012585 
L 283.431818 359.233634 
L 283.854545 361.292291 
L 284.277273 361.403569 
L 284.7 361.153192 
L 285.122727 320.258252 
L 285.545455 66.96 
L 285.968182 252.461674 
L 286.390909 345.490708 
L 286.813636 325.126697 
L 287.236364 343.849347 
L 287.659091 357.397534 
L 288.081818 359.150175 
L 288.504545 362.655455 
L 288.927273 363.907341 
L 289.35 364.435915 
L 289.772727 356.9246 
L 290.195455 357.675731 
L 290.618182 352.334351 
L 291.040909 349.663661 
L 291.463636 351.305023 
L 291.886364 356.00655 
L 292.309091 346.770414 
L 292.731818 351.277203 
L 293.154545 360.179503 
L 293.577273 360.819356 
L 294 360.624618 
L 294.422727 360.680258 
L 294.845455 360.151684 
L 295.268182 356.117829 
L 295.690909 347.438086 
L 296.113636 325.293615 
L 296.536364 335.503441 
L 296.959091 338.535787 
L 297.381818 353.530598 
L 297.804545 361.264471 
L 298.227273 362.043422 
L 298.65 366.188556 
L 299.072727 366.077277 
L 299.495455 365.520883 
L 299.918182 359.428372 
L 300.340909 357.119338 
L 301.186364 349.608022 
L 301.609091 353.836615 
L 302.454545 349.80276 
L 302.877273 350.553891 
L 303.3 353.808795 
L 303.722727 353.252401 
L 304.145455 356.590764 
L 304.568182 361.014094 
L 304.990909 356.590764 
L 305.413636 361.153192 
L 305.836364 334.780129 
L 306.259091 331.831242 
L 307.104545 349.357645 
L 307.527273 340.789181 
L 307.95 354.699025 
L 308.372727 362.405078 
L 308.795455 364.129899 
L 309.218182 362.26598 
L 309.640909 362.989292 
L 310.063636 362.599816 
L 310.486364 357.953928 
L 310.909091 355.060681 
L 311.331818 346.714775 
L 311.754545 352.50127 
L 312.177273 349.83058 
L 312.6 350.69299 
L 313.022727 345.045593 
L 313.445455 306.960442 
L 313.868182 347.187709 
L 314.290909 355.867452 
L 314.713636 354.643385 
L 315.136364 342.180166 
L 315.559091 355.17196 
L 315.981818 353.057663 
L 316.404545 339.648574 
L 316.827273 332.749292 
L 317.25 337.31172 
L 317.672727 353.168942 
L 318.095455 362.711095 
L 318.518182 359.205814 
L 319.363636 365.409604 
L 319.786364 366.828408 
L 321.054545 356.674223 
L 321.477273 348.05012 
L 321.9 349.468924 
L 322.322727 347.410267 
L 322.745455 349.914039 
L 323.168182 349.886219 
L 323.590909 349.302006 
L 324.436364 355.450156 
L 324.859091 352.250892 
L 325.281818 350.887728 
L 325.704545 357.926109 
L 326.127273 356.618583 
L 326.55 350.470432 
L 326.972727 334.418473 
L 327.818182 348.133579 
L 328.240909 363.10057 
L 328.663636 362.516357 
L 329.086364 366.244195 
L 329.509091 362.905833 
L 329.931818 365.8269 
L 330.354545 360.986274 
L 330.777273 360.374241 
L 331.2 356.256927 
L 331.622727 345.657626 
L 332.045455 348.077939 
L 332.468182 343.682429 
L 332.890909 343.821527 
L 333.313636 352.167433 
L 333.736364 355.283238 
L 334.159091 350.915547 
L 334.581818 356.980239 
L 335.004545 353.725336 
L 335.427273 358.565961 
L 335.85 357.453174 
L 336.272727 352.946385 
L 336.695455 353.808795 
L 337.118182 326.990616 
L 337.540909 342.235805 
L 337.963636 349.218546 
L 338.386364 339.704213 
L 338.809091 362.460718 
L 339.231818 360.207323 
L 339.654545 365.242686 
L 340.077273 362.293799 
L 340.5 363.573505 
L 340.922727 360.096044 
L 341.345455 355.533615 
L 341.768182 353.113303 
L 342.190909 348.88471 
L 342.613636 350.526072 
L 343.036364 350.025317 
L 343.459091 348.495235 
L 343.881818 355.060681 
L 344.304545 353.725336 
L 344.727273 357.842649 
L 345.15 356.507305 
L 345.572727 357.369715 
L 345.995455 361.236651 
L 346.418182 355.923091 
L 346.840909 358.426863 
L 347.263636 354.22609 
L 347.686364 340.789181 
L 348.109091 340.817001 
L 348.531818 356.479485 
L 348.954545 357.369715 
L 349.8 364.241178 
L 350.222727 364.88103 
L 350.645455 361.848684 
L 351.068182 360.096044 
L 351.490909 356.117829 
L 352.336364 354.393008 
L 352.759091 350.442613 
L 353.181818 341.595952 
L 353.604545 340.761362 
L 354.027273 354.810304 
L 354.45 344.016265 
L 354.872727 324.180828 
L 355.295455 355.005041 
L 355.718182 359.678749 
L 356.140909 359.122355 
L 356.563636 357.703551 
L 357.409091 350.247875 
L 357.831818 337.33954 
L 358.254545 348.189218 
L 358.677273 362.683275 
L 359.1 359.53965 
L 359.522727 362.989292 
L 359.945455 363.629144 
L 360.368182 362.850193 
L 360.790909 361.014094 
L 361.213636 360.179503 
L 362.059091 342.041067 
L 362.481818 354.28173 
L 362.904545 346.492217 
L 363.327273 343.738068 
L 363.75 348.272677 
L 364.172727 355.97873 
L 364.595455 346.130561 
L 365.018182 355.923091 
L 365.440909 354.865943 
L 365.863636 355.227599 
L 366.286364 356.646403 
L 366.709091 354.365189 
L 367.131818 343.265133 
L 367.554545 346.21402 
L 367.977273 350.303514 
L 368.4 345.268151 
L 368.822727 356.729862 
L 369.245455 362.043422 
L 369.668182 364.769752 
L 370.090909 363.796063 
L 370.513636 366.188556 
L 370.936364 358.120846 
L 371.359091 358.259945 
L 371.781818 350.275695 
L 372.627273 355.17196 
L 373.05 349.218546 
L 373.472727 347.048611 
L 373.895455 351.861417 
L 374.318182 343.209494 
L 374.740909 350.053137 
L 375.163636 348.550874 
L 375.586364 356.03437 
L 376.009091 352.918565 
L 376.431818 353.474959 
L 377.277273 346.074922 
L 377.7 350.498252 
L 378.122727 353.753155 
L 378.545455 358.565961 
L 378.968182 351.277203 
L 379.813636 362.989292 
L 380.236364 362.878013 
L 381.081818 357.119338 
L 381.504545 360.902815 
L 381.927273 353.808795 
L 382.35 336.087654 
L 382.772727 352.083974 
L 383.195455 354.309549 
L 383.618182 349.858399 
L 384.040909 349.719301 
L 384.463636 351.026826 
L 384.886364 351.332843 
L 385.309091 341.456854 
L 385.731818 356.813321 
L 386.154545 351.221564 
L 386.577273 349.552383 
L 387 348.968169 
L 387.422727 348.606513 
L 387.845455 350.859908 
L 388.690909 359.511831 
L 389.113636 345.852364 
L 389.536364 358.927617 
L 389.959091 360.596799 
L 390.381818 365.715621 
L 390.804545 366.911868 
L 391.65 355.032861 
L 392.072727 354.25391 
L 392.495455 352.44563 
L 392.918182 351.777958 
L 393.340909 342.736559 
L 393.763636 351.444121 
L 394.186364 352.44563 
L 394.609091 355.227599 
L 395.031818 351.221564 
L 395.454545 354.615566 
L 395.877273 347.883201 
L 396.3 354.838123 
L 396.722727 351.471941 
L 397.145455 351.694499 
L 397.990909 357.926109 
L 398.413636 356.423845 
L 398.836364 360.068224 
L 399.259091 357.008059 
L 400.104545 361.125373 
L 400.527273 365.910359 
L 400.95 363.601325 
L 401.795455 357.008059 
L 402.218182 353.224581 
L 402.640909 354.504287 
L 403.063636 336.032015 
L 403.486364 350.66517 
L 403.909091 345.462889 
L 404.331818 347.771923 
L 404.754545 345.741086 
L 405.177273 355.366697 
L 405.6 351.972695 
L 406.022727 350.943367 
L 406.445455 354.699025 
L 406.868182 354.754664 
L 407.290909 353.141122 
L 407.713636 346.408758 
L 408.136364 347.13207 
L 408.559091 347.577185 
L 408.981818 355.97873 
L 409.404545 361.904324 
L 409.827273 358.399043 
L 410.25 359.734388 
L 410.672727 358.482502 
L 411.095455 364.241178 
L 411.518182 360.151684 
L 411.940909 354.086992 
L 412.363636 354.949402 
L 412.786364 347.549365 
L 413.209091 342.180166 
L 413.631818 353.474959 
L 414.054545 347.521546 
L 414.477273 350.776449 
L 414.9 352.44563 
L 415.322727 353.447139 
L 415.745455 355.839632 
L 416.168182 351.221564 
L 416.590909 360.541159 
L 417.013636 350.108776 
L 417.436364 352.584729 
L 417.859091 352.50127 
L 418.281818 352.556909 
L 418.704545 350.971187 
L 419.127273 361.987783 
L 419.55 361.820865 
L 419.972727 363.462226 
L 420.395455 358.399043 
L 420.818182 362.599816 
L 421.240909 362.961472 
L 421.663636 360.42988 
L 422.086364 356.340386 
L 422.509091 354.25391 
L 422.931818 355.227599 
L 423.354545 345.35161 
L 423.777273 348.300497 
L 424.2 332.777111 
L 424.622727 346.798234 
L 425.045455 349.023809 
L 425.468182 350.275695 
L 425.890909 355.561435 
L 426.313636 354.754664 
L 426.736364 355.311058 
L 427.159091 353.36368 
L 427.581818 346.714775 
L 428.004545 347.354627 
L 428.427273 346.826053 
L 428.85 351.026826 
L 429.272727 350.69299 
L 429.695455 359.984765 
L 430.118182 361.681766 
L 430.540909 358.482502 
L 430.963636 360.48552 
L 431.386364 361.848684 
L 431.809091 361.181012 
L 432.231818 353.586237 
L 432.654545 350.136596 
L 433.077273 350.609531 
L 433.5 344.962134 
L 433.922727 349.385465 
L 434.345455 339.648574 
L 434.768182 343.821527 
L 435.190909 343.738068 
L 435.613636 344.878675 
L 436.036364 352.000515 
L 436.459091 348.467415 
L 436.881818 349.886219 
L 437.304545 342.68092 
L 437.727273 340.483165 
L 438.15 346.074922 
L 438.572727 342.875658 
L 438.995455 345.017774 
L 439.418182 354.810304 
L 439.840909 358.593781 
L 440.263636 360.986274 
L 440.686364 364.01862 
L 441.109091 363.935161 
L 441.531818 361.681766 
L 441.954545 358.621601 
L 442.377273 359.56747 
L 442.8 344.962134 
L 443.222727 286.707709 
L 443.645455 341.234296 
L 444.068182 349.80276 
L 444.490909 348.272677 
L 444.913636 340.204968 
L 445.336364 339.09218 
L 445.759091 339.509476 
L 446.181818 318.589071 
L 446.604545 352.000515 
L 447.45 346.853873 
L 447.872727 345.518528 
L 448.295455 338.758344 
L 448.718182 336.783146 
L 449.563636 354.448648 
L 449.986364 354.170451 
L 450.409091 358.67724 
L 450.831818 361.208832 
L 451.254545 365.242686 
L 452.1 355.283238 
L 452.522727 344.4892 
L 452.945455 347.771923 
L 453.368182 332.248537 
L 453.790909 299.282208 
L 454.213636 336.838786 
L 454.636364 340.566624 
L 455.059091 341.373395 
L 455.481818 335.364342 
L 455.904545 337.422999 
L 456.327273 347.298988 
L 456.75 347.271168 
L 457.172727 350.192236 
L 457.595455 345.741086 
L 458.018182 347.855382 
L 458.440909 336.977884 
L 458.863636 338.507967 
L 459.286364 344.711757 
L 459.709091 357.898289 
L 460.131818 356.674223 
L 460.554545 362.321619 
L 460.977273 360.541159 
L 461.4 364.602833 
L 461.822727 360.123864 
L 462.245455 351.444121 
L 462.668182 317.198086 
L 463.090909 314.082282 
L 463.513636 318.505612 
L 464.359091 348.995989 
L 464.781818 340.371886 
L 465.204545 316.224397 
L 465.627273 343.126035 
L 466.05 338.758344 
L 466.472727 349.190727 
L 466.895455 344.600478 
L 467.318182 348.717792 
L 467.740909 350.609531 
L 468.163636 348.717792 
L 468.586364 348.995989 
L 469.009091 338.702705 
L 469.431818 342.847838 
L 469.854545 353.141122 
L 470.277273 358.399043 
L 470.7 359.706569 
L 471.122727 358.371224 
L 471.545455 360.012585 
L 471.968182 362.766734 
L 472.390909 359.984765 
L 472.813636 347.187709 
L 473.236364 342.903477 
L 473.659091 328.325961 
L 474.081818 334.724489 
L 474.504545 344.739577 
L 474.927273 344.016265 
L 475.35 337.228261 
L 475.772727 339.732033 
L 476.195455 338.730524 
L 476.618182 343.710248 
L 477.040909 346.102741 
L 477.463636 350.136596 
L 477.886364 346.047102 
L 478.309091 355.366697 
L 478.731818 353.725336 
L 479.154545 347.076431 
L 479.577273 343.821527 
L 480 345.490708 
L 480.845455 361.987783 
L 481.268182 362.154701 
L 482.113636 366.828408 
L 482.536364 359.623109 
L 482.959091 357.174977 
L 484.227273 341.429034 
L 484.65 342.041067 
L 485.072727 337.478638 
L 485.495455 300.172438 
L 485.918182 334.752309 
L 486.340909 342.514002 
L 486.763636 345.407249 
L 487.609091 352.640368 
L 488.031818 349.051628 
L 488.454545 349.107268 
L 488.877273 347.13207 
L 489.3 346.158381 
L 490.145455 355.589255 
L 490.568182 358.565961 
L 490.990909 363.12839 
L 491.413636 360.374241 
L 491.836364 359.428372 
L 492.259091 364.102079 
L 493.104545 354.393008 
L 493.527273 347.99448 
L 493.95 336.727507 
L 494.372727 336.44931 
L 494.795455 332.971849 
L 495.218182 333.361325 
L 495.640909 327.101895 
L 496.063636 335.503441 
L 496.486364 339.537295 
L 496.909091 340.288427 
L 497.331818 342.235805 
L 497.754545 347.716283 
L 498.177273 346.937332 
L 498.6 346.742594 
L 499.022727 344.572659 
L 499.445455 348.411776 
L 499.868182 344.044085 
L 500.290909 352.50127 
L 500.713636 355.533615 
L 501.136364 361.932144 
L 501.559091 361.653947 
L 501.981818 364.714112 
L 502.404545 364.964489 
L 503.672727 347.883201 
L 504.095455 310.382263 
L 504.518182 344.823036 
L 504.940909 339.815492 
L 505.363636 342.068887 
L 505.786364 332.02598 
L 506.209091 286.457332 
L 506.631818 333.500423 
L 507.054545 345.268151 
L 507.477273 340.371886 
L 507.9 344.823036 
L 508.322727 342.152346 
L 508.745455 336.532769 
L 509.590909 346.520037 
L 510.013636 344.600478 
L 510.436364 355.255419 
L 510.859091 357.508813 
L 511.281818 365.326145 
L 511.704545 364.88103 
L 512.127273 366.077277 
L 512.55 360.652438 
L 512.972727 369.220902 
L 513.395455 356.813321 
L 513.818182 354.365189 
L 514.240909 338.25759 
L 514.663636 347.076431 
L 515.086364 343.682429 
L 515.509091 322.010892 
L 515.931818 347.215529 
L 516.354545 339.759853 
L 516.777273 338.368868 
L 517.2 340.733542 
L 517.622727 337.868114 
L 518.045455 347.10425 
L 518.468182 321.120662 
L 518.890909 342.402723 
L 519.313636 333.7508 
L 520.581818 353.641877 
L 521.004545 356.729862 
L 521.427273 361.848684 
L 521.85 362.878013 
L 522.272727 365.743441 
L 522.695455 364.491555 
L 523.118182 357.647912 
L 523.540909 355.811812 
L 523.963636 354.532107 
L 524.386364 317.198086 
L 524.809091 317.365005 
L 525.231818 344.739577 
L 525.654545 342.847838 
L 526.077273 325.683091 
L 526.922727 344.183183 
L 527.345455 355.005041 
L 527.768182 350.609531 
L 528.190909 344.989954 
L 528.613636 346.853873 
L 529.036364 354.671205 
L 529.459091 352.946385 
L 530.304545 361.681766 
L 530.727273 363.267489 
L 531.15 363.962981 
L 531.572727 367.523901 
L 531.995455 368.275032 
L 532.418182 368.080294 
L 532.840909 368.720147 
L 533.263636 367.690819 
L 534.109091 347.187709 
L 534.531818 336.365851 
L 534.954545 346.074922 
L 535.377273 345.490708 
L 535.8 349.691481 
L 536.222727 341.79069 
L 536.645455 348.578694 
L 537.068182 345.490708 
L 537.490909 346.436578 
L 537.913636 353.892254 
L 538.336364 345.35161 
L 538.759091 348.328316 
L 539.181818 345.574167 
L 539.604545 345.935823 
L 540.027273 351.917056 
L 540.45 354.309549 
L 540.872727 363.323128 
L 541.295455 360.346421 
L 541.718182 365.77126 
L 542.140909 367.217884 
L 542.986364 368.608868 
L 543.409091 366.68931 
L 543.831818 366.244195 
L 544.254545 352.056155 
L 544.677273 238.718749 
L 545.1 342.152346 
L 545.522727 344.739577 
L 545.945455 343.849347 
L 546.368182 336.087654 
L 546.790909 348.0223 
L 547.213636 348.105759 
L 547.636364 353.864434 
L 548.481818 341.317755 
L 548.904545 347.605005 
L 549.327273 343.682429 
L 549.75 347.243349 
L 550.172727 348.244857 
L 550.595455 354.643385 
L 551.018182 357.063698 
L 551.440909 362.655455 
L 551.863636 364.853211 
L 552.286364 367.969016 
L 553.131818 367.301343 
L 553.554545 367.190064 
L 553.977273 367.329163 
L 554.4 363.907341 
L 554.822727 350.553891 
L 555.245455 350.581711 
L 555.668182 339.676394 
L 556.090909 336.226753 
L 556.936364 348.94035 
L 557.359091 345.908004 
L 557.781818 346.992971 
L 558.204545 343.126035 
L 558.627273 355.783993 
L 559.05 340.427525 
L 559.472727 342.068887 
L 559.895455 342.041067 
L 560.318182 340.650083 
L 560.740909 348.88471 
L 561.163636 346.992971 
L 561.586364 362.905833 
L 562.009091 365.159227 
L 562.431818 365.493063 
L 562.854545 366.188556 
L 563.277273 367.969016 
L 563.7 367.941196 
L 564.122727 364.435915 
L 564.545455 364.491555 
L 564.968182 363.962981 
L 565.813636 341.929788 
L 566.236364 343.014756 
L 566.659091 348.105759 
L 567.081818 335.030506 
L 567.504545 346.102741 
L 567.927273 348.328316 
L 568.35 348.745612 
L 568.772727 349.385465 
L 569.618182 338.507967 
L 570.040909 331.219209 
L 570.463636 346.26966 
L 570.886364 348.217038 
L 571.309091 356.284747 
L 572.154545 365.465244 
L 572.577273 366.744949 
L 573 366.66149 
L 573.422727 367.440442 
L 573.845455 364.268997 
L 574.268182 364.324637 
L 574.690909 363.044931 
L 575.113636 346.24184 
L 575.536364 350.887728 
L 575.959091 345.796725 
L 576.381818 345.629807 
L 576.804545 343.487691 
L 577.65 344.600478 
L 578.072727 349.719301 
L 578.495455 346.520037 
L 578.918182 349.914039 
L 579.340909 340.789181 
L 579.763636 345.935823 
L 580.186364 341.123017 
L 580.609091 339.09218 
L 581.877273 358.899798 
L 582.3 366.744949 
L 582.722727 366.077277 
L 583.145455 365.687801 
L 583.568182 366.522392 
L 583.990909 365.993818 
L 584.413636 361.932144 
L 584.836364 361.34793 
L 585.259091 344.044085 
L 585.681818 299.504765 
L 586.104545 350.192236 
L 586.527273 296.222042 
L 586.95 345.685446 
L 587.372727 351.249384 
L 588.640909 334.474112 
L 589.063636 346.881693 
L 589.486364 347.716283 
L 589.909091 339.648574 
L 590.331818 335.002686 
L 591.177273 348.411776 
L 591.6 353.614057 
L 592.022727 362.516357 
L 592.445455 365.353965 
L 592.868182 365.687801 
L 593.290909 366.856228 
L 593.713636 364.575014 
L 594.136364 360.290782 
L 594.559091 360.48552 
L 594.981818 361.626127 
L 595.404545 356.562944 
L 595.827273 361.876504 
L 596.25 355.644894 
L 596.672727 344.656118 
L 597.095455 346.464397 
L 597.518182 350.164416 
L 597.940909 337.645557 
L 598.363636 352.696007 
L 598.786364 351.889236 
L 599.209091 342.152346 
L 599.631818 348.91253 
L 600.054545 346.631316 
L 600.477273 330.2177 
L 600.9 340.288427 
L 601.322727 345.852364 
L 601.745455 356.590764 
L 602.168182 362.544177 
L 602.590909 363.962981 
L 603.013636 364.074259 
L 603.436364 366.466753 
L 603.859091 366.021638 
L 604.281818 361.570488 
L 605.127273 358.983257 
L 605.55 356.256927 
L 605.972727 358.315584 
L 606.395455 356.340386 
L 606.818182 356.562944 
L 607.240909 351.861417 
L 608.086364 339.509476 
L 608.509091 349.246366 
L 608.931818 350.414793 
L 609.354545 348.91253 
L 609.777273 310.159706 
L 610.2 316.335676 
L 610.622727 338.480147 
L 611.045455 347.771923 
L 611.468182 328.40942 
L 612.313636 361.959963 
L 612.736364 365.715621 
L 613.159091 366.939687 
L 614.004545 366.411113 
L 614.427273 361.737406 
L 614.85 358.732879 
L 615.272727 358.593781 
L 615.695455 353.113303 
L 616.118182 315.473266 
L 616.540909 308.740902 
L 616.963636 333.528243 
L 617.386364 307.016081 
L 617.809091 267.345207 
L 618.231818 317.253726 
L 618.654545 307.96195 
L 619.077273 278.111426 
L 619.5 308.824361 
L 619.922727 309.297295 
L 620.345455 234.657075 
L 620.768182 292.02127 
L 621.190909 307.878491 
L 621.613636 336.616228 
L 622.036364 321.259761 
L 622.459091 359.317093 
L 622.881818 366.744949 
L 623.304545 366.244195 
L 623.727273 368.998344 
L 624.15 368.330672 
L 624.572727 368.720147 
L 624.995455 367.829917 
L 625.418182 366.272015 
L 625.840909 366.049457 
L 626.263636 360.874995 
L 626.686364 353.892254 
L 627.531818 350.414793 
L 628.377273 317.365005 
L 628.8 338.090672 
L 629.645455 312.190543 
L 630.068182 318.171776 
L 630.490909 314.944692 
L 630.913636 328.715437 
L 631.759091 315.695823 
L 632.181818 319.674039 
L 632.604545 318.394333 
L 633.027273 322.901122 
L 633.872727 329.049273 
L 634.295455 327.296633 
L 634.718182 334.084637 
L 635.140909 327.713928 
L 635.563636 326.573321 
L 635.986364 336.47713 
L 636.409091 340.427525 
L 636.831818 338.22977 
L 637.254545 319.980055 
L 638.1 344.46138 
L 638.522727 346.408758 
L 638.945455 355.14414 
L 639.368182 351.694499 
L 639.790909 350.859908 
L 640.213636 352.139614 
L 640.636364 351.277203 
L 641.059091 351.277203 
L 641.481818 352.083974 
L 641.904545 358.009568 
L 642.327273 355.700534 
L 642.75 362.850193 
L 643.172727 364.769752 
L 643.595455 366.132916 
L 644.018182 367.913376 
L 644.440909 367.301343 
L 644.863636 367.134425 
L 645.286364 363.823882 
L 645.709091 357.620092 
L 646.131818 362.293799 
L 646.554545 360.290782 
L 646.977273 363.267489 
L 647.4 343.265133 
L 647.822727 348.05012 
L 648.245455 346.770414 
L 648.668182 346.26966 
L 649.090909 350.303514 
L 649.513636 347.938841 
L 649.936364 344.767397 
L 650.359091 330.273339 
L 650.781818 331.13575 
L 651.204545 313.971003 
L 651.627273 313.637167 
L 652.05 329.800405 
L 652.472727 337.144802 
L 652.895455 324.987599 
L 653.318182 327.713928 
L 653.740909 365.687801 
L 654.163636 366.995327 
L 654.586364 365.993818 
L 655.009091 365.353965 
L 655.431818 366.132916 
L 655.854545 364.686293 
L 656.277273 230.428482 
L 656.7 325.237976 
L 657.122727 325.349255 
L 657.545455 337.200442 
L 657.968182 324.069549 
L 658.390909 319.757498 
L 658.813636 310.966477 
L 659.236364 315.97402 
L 659.659091 316.725152 
L 660.081818 319.701858 
L 660.504545 308.267967 
L 660.927273 343.432052 
L 661.35 340.483165 
L 661.772727 347.771923 
L 662.195455 347.966661 
L 663.463636 365.965998 
L 663.886364 366.911868 
L 664.309091 364.408096 
L 664.731818 366.466753 
L 665.577273 359.261454 
L 666 345.101233 
L 666.422727 348.411776 
L 666.845455 344.739577 
L 667.268182 344.016265 
L 667.690909 338.813983 
L 668.113636 344.850856 
L 668.536364 345.156872 
L 668.959091 331.553045 
L 669.381818 311.383772 
L 669.804545 306.264949 
L 670.227273 308.991279 
L 670.65 309.186017 
L 671.072727 312.969494 
L 671.495455 305.263441 
L 671.918182 319.117645 
L 672.340909 327.853027 
L 672.763636 350.943367 
L 673.186364 346.380938 
L 673.609091 355.811812 
L 674.031818 357.870469 
L 674.454545 355.700534 
L 674.877273 354.699025 
L 675.722727 350.192236 
L 676.568182 308.740902 
L 676.990909 314.833413 
L 677.413636 341.150837 
L 677.836364 337.534278 
L 678.259091 308.740902 
L 678.681818 308.546164 
L 679.104545 328.659798 
L 679.527273 310.66046 
L 679.95 307.906311 
L 680.372727 259.08276 
L 680.795455 334.69667 
L 681.218182 340.204968 
L 681.640909 305.096523 
L 682.063636 289.406219 
L 682.486364 319.173284 
L 682.909091 320.786826 
L 683.331818 320.202613 
L 683.754545 329.967323 
L 684.177273 326.601141 
L 684.6 324.681582 
L 685.022727 325.877829 
L 685.445455 314.638675 
L 685.868182 290.24081 
L 686.290909 290.713744 
L 686.713636 272.742226 
L 687.136364 272.547489 
L 687.559091 296.138583 
L 687.981818 284.982889 
L 688.404545 311.133395 
L 688.827273 317.365005 
L 689.25 275.134719 
L 689.672727 296.194223 
L 690.095455 362.405078 
L 690.518182 350.192236 
L 690.940909 315.250708 
L 691.363636 312.691297 
L 691.786364 301.313045 
L 693.054545 315.306348 
L 693.477273 321.760515 
L 693.9 319.006366 
L 694.322727 323.819172 
L 694.745455 324.765041 
L 695.168182 325.404894 
L 695.590909 322.316909 
L 696.013636 322.539466 
L 696.436364 310.410083 
L 697.281818 305.235621 
L 697.704545 261.530892 
L 698.127273 284.593413 
L 698.55 262.031647 
L 698.972727 304.901785 
L 699.395455 301.73034 
L 699.818182 312.580018 
L 700.240909 315.306348 
L 700.663636 307.489016 
L 701.086364 354.393008 
L 701.509091 353.864434 
L 701.931818 339.620754 
L 702.354545 344.46138 
L 702.777273 337.506458 
L 703.2 354.031352 
L 703.622727 363.823882 
L 704.045455 362.099062 
L 704.468182 331.859062 
L 704.890909 314.972511 
L 705.313636 342.291444 
L 705.736364 362.377259 
L 706.159091 360.012585 
L 707.004545 352.167433 
L 707.427273 350.66517 
L 707.85 344.4892 
L 708.272727 335.698178 
L 708.695455 298.419798 
L 709.118182 342.207985 
L 709.540909 346.297479 
L 709.963636 300.144618 
L 710.386364 316.02966 
L 710.809091 314.443937 
L 711.231818 313.386789 
L 711.654545 309.269476 
L 712.077273 318.394333 
L 712.5 324.987599 
L 712.922727 303.5108 
L 713.345455 311.355952 
L 713.768182 315.195069 
L 714.190909 313.164232 
L 714.613636 314.889052 
L 715.036364 318.561251 
L 715.459091 318.422153 
L 715.881818 315.250708 
L 716.304545 307.544655 
L 716.727273 332.165078 
L 717.15 306.153671 
L 717.572727 312.301822 
L 717.995455 305.263441 
L 718.418182 317.865759 
L 718.840909 310.465722 
L 719.263636 310.855198 
L 719.686364 338.841803 
L 720.109091 343.487691 
L 720.531818 304.345391 
L 720.954545 295.804747 
L 721.377273 343.237314 
L 721.8 343.57115 
L 722.222727 350.915547 
L 722.645455 349.079448 
L 723.068182 349.886219 
L 723.490909 358.538142 
L 723.913636 361.876504 
L 724.759091 366.105097 
L 725.181818 367.190064 
L 725.604545 364.380276 
L 726.027273 360.513339 
L 726.45 355.338878 
L 726.872727 359.150175 
L 727.295455 347.99448 
L 727.718182 316.91989 
L 728.140909 323.98609 
L 728.563636 349.580202 
L 728.986364 349.413284 
L 729.409091 347.688464 
L 729.831818 342.374903 
L 730.254545 345.852364 
L 730.677273 339.453836 
L 731.1 306.459687 
L 731.522727 304.595768 
L 731.945455 306.765704 
L 732.368182 338.174131 
L 732.790909 320.313891 
L 733.213636 348.467415 
L 733.636364 352.835106 
L 734.059091 363.378767 
L 734.481818 362.961472 
L 734.904545 364.380276 
L 735.327273 364.825391 
L 735.75 364.352456 
L 736.172727 356.256927 
L 736.595455 356.229108 
L 737.018182 354.587746 
L 737.440909 350.220055 
L 737.863636 353.36368 
L 738.286364 353.669696 
L 738.709091 349.524563 
L 739.131818 353.3915 
L 739.554545 349.023809 
L 739.977273 350.080957 
L 740.4 351.917056 
L 740.822727 355.0885 
L 741.245455 347.326808 
L 741.668182 335.809457 
L 742.090909 341.095198 
L 742.513636 338.813983 
L 742.936364 331.274848 
L 743.359091 355.728353 
L 743.781818 356.368206 
L 744.204545 325.655271 
L 744.627273 344.850856 
L 745.05 321.537958 
L 745.472727 325.543993 
L 745.895455 323.540975 
L 746.318182 332.999669 
L 746.318182 332.999669 
" style="fill:none;stroke:#1f77b4;stroke-linecap:square;stroke-width:1.5;"/>
   </g>
   <g id="line2d_16">
    <path clip-path="url(#p20ff6feea9)" d="M 747.163636 384.48 
L 747.163636 51.84 
" style="fill:none;stroke:#808080;stroke-linecap:square;"/>
   </g>
   <g id="patch_176">
    <path d="M 108 384.48 
L 108 51.84 
" style="fill:none;stroke:#000000;stroke-linecap:square;stroke-linejoin:miter;stroke-width:0.8;"/>
   </g>
   <g id="patch_177">
    <path d="M 777.6 384.48 
L 777.6 51.84 
" style="fill:none;stroke:#000000;stroke-linecap:square;stroke-linejoin:miter;stroke-width:0.8;"/>
   </g>
   <g id="patch_178">
    <path d="M 108 384.48 
L 777.6 384.48 
" style="fill:none;stroke:#000000;stroke-linecap:square;stroke-linejoin:miter;stroke-width:0.8;"/>
   </g>
   <g id="patch_179">
    <path d="M 108 51.84 
L 777.6 51.84 
" style="fill:none;stroke:#000000;stroke-linecap:square;stroke-linejoin:miter;stroke-width:0.8;"/>
   </g>
   <g id="text_17">
    <!-- real_14.csv -->
    <defs>
     <path d="M 41.109375 46.296875 
Q 39.59375 47.171875 37.8125 47.578125 
Q 36.03125 48 33.890625 48 
Q 26.265625 48 22.1875 43.046875 
Q 18.109375 38.09375 18.109375 28.8125 
L 18.109375 0 
L 9.078125 0 
L 9.078125 54.6875 
L 18.109375 54.6875 
L 18.109375 46.1875 
Q 20.953125 51.171875 25.484375 53.578125 
Q 30.03125 56 36.53125 56 
Q 37.453125 56 38.578125 55.875 
Q 39.703125 55.765625 41.0625 55.515625 
z
" id="DejaVuSans-114"/>
     <path d="M 50.984375 -16.609375 
L 50.984375 -23.578125 
L -0.984375 -23.578125 
L -0.984375 -16.609375 
z
" id="DejaVuSans-95"/>
     <path d="M 10.6875 12.40625 
L 21 12.40625 
L 21 0 
L 10.6875 0 
z
" id="DejaVuSans-46"/>
     <path d="M 48.78125 52.59375 
L 48.78125 44.1875 
Q 44.96875 46.296875 41.140625 47.34375 
Q 37.3125 48.390625 33.40625 48.390625 
Q 24.65625 48.390625 19.8125 42.84375 
Q 14.984375 37.3125 14.984375 27.296875 
Q 14.984375 17.28125 19.8125 11.734375 
Q 24.65625 6.203125 33.40625 6.203125 
Q 37.3125 6.203125 41.140625 7.25 
Q 44.96875 8.296875 48.78125 10.40625 
L 48.78125 2.09375 
Q 45.015625 0.34375 40.984375 -0.53125 
Q 36.96875 -1.421875 32.421875 -1.421875 
Q 20.0625 -1.421875 12.78125 6.34375 
Q 5.515625 14.109375 5.515625 27.296875 
Q 5.515625 40.671875 12.859375 48.328125 
Q 20.21875 56 33.015625 56 
Q 37.15625 56 41.109375 55.140625 
Q 45.0625 54.296875 48.78125 52.59375 
z
" id="DejaVuSans-99"/>
     <path d="M 2.984375 54.6875 
L 12.5 54.6875 
L 29.59375 8.796875 
L 46.6875 54.6875 
L 56.203125 54.6875 
L 35.6875 0 
L 23.484375 0 
z
" id="DejaVuSans-118"/>
    </defs>
    <g transform="translate(408.781875 45.84)scale(0.12 -0.12)">
     <use xlink:href="#DejaVuSans-114"/>
     <use x="41.082031" xlink:href="#DejaVuSans-101"/>
     <use x="102.605469" xlink:href="#DejaVuSans-97"/>
     <use x="163.884766" xlink:href="#DejaVuSans-108"/>
     <use x="191.667969" xlink:href="#DejaVuSans-95"/>
     <use x="241.667969" xlink:href="#DejaVuSans-49"/>
     <use x="305.291016" xlink:href="#DejaVuSans-52"/>
     <use x="368.914062" xlink:href="#DejaVuSans-46"/>
     <use x="400.701172" xlink:href="#DejaVuSans-99"/>
     <use x="455.681641" xlink:href="#DejaVuSans-115"/>
     <use x="507.78125" xlink:href="#DejaVuSans-118"/>
    </g>
   </g>
   <g id="legend_1">
    <g id="patch_180">
     <path d="M 115 74.518125 
L 174.315625 74.518125 
Q 176.315625 74.518125 176.315625 72.518125 
L 176.315625 58.84 
Q 176.315625 56.84 174.315625 56.84 
L 115 56.84 
Q 113 56.84 113 58.84 
L 113 72.518125 
Q 113 74.518125 115 74.518125 
z
" style="fill:#ffffff;opacity:0.8;stroke:#cccccc;stroke-linejoin:miter;"/>
    </g>
    <g id="line2d_17">
     <path d="M 117 64.938438 
L 137 64.938438 
" style="fill:none;stroke:#1f77b4;stroke-linecap:square;stroke-width:1.5;"/>
    </g>
    <g id="line2d_18"/>
    <g id="text_18">
     <!-- value -->
     <g transform="translate(145 68.438438)scale(0.1 -0.1)">
      <use xlink:href="#DejaVuSans-118"/>
      <use x="59.179688" xlink:href="#DejaVuSans-97"/>
      <use x="120.458984" xlink:href="#DejaVuSans-108"/>
      <use x="148.242188" xlink:href="#DejaVuSans-117"/>
      <use x="211.621094" xlink:href="#DejaVuSans-101"/>
     </g>
    </g>
   </g>
  </g>
 </g>
 <defs>
  <clipPath id="p20ff6feea9">
   <rect height="332.64" width="669.6" x="108" y="51.84"/>
  </clipPath>
 </defs>
</svg>
