<?xml version="1.0" encoding="utf-8" standalone="no"?>
<!DOCTYPE svg PUBLIC "-//W3C//DTD SVG 1.1//EN"
  "http://www.w3.org/Graphics/SVG/1.1/DTD/svg11.dtd">
<!-- Created with matplotlib (https://matplotlib.org/) -->
<svg height="432pt" version="1.1" viewBox="0 0 864 432" width="864pt" xmlns="http://www.w3.org/2000/svg" xmlns:xlink="http://www.w3.org/1999/xlink">
 <defs>
  <style type="text/css">
*{stroke-linecap:butt;stroke-linejoin:round;}
  </style>
 </defs>
 <g id="figure_1">
  <g id="patch_1">
   <path d="M 0 432 
L 864 432 
L 864 0 
L 0 0 
z
" style="fill:#ffffff;"/>
  </g>
  <g id="axes_1">
   <g id="patch_2">
    <path d="M 108 384.48 
L 777.6 384.48 
L 777.6 51.84 
L 108 51.84 
z
" style="fill:#ffffff;"/>
   </g>
   <g id="patch_3">
    <path clip-path="url(#p7e15ef6c23)" d="M 138.436364 384.48 
L 138.436364 51.84 
L 380.130608 51.84 
L 380.130608 384.48 
z
" style="fill:#0000ff;opacity:0.05;"/>
   </g>
   <g id="patch_4">
    <path clip-path="url(#p7e15ef6c23)" d="M 380.130608 384.48 
L 380.130608 51.84 
L 745.880304 51.84 
L 745.880304 384.48 
z
" style="fill:#ff0000;opacity:0.08;"/>
   </g>
   <g id="patch_5">
    <path clip-path="url(#p7e15ef6c23)" d="M 138.436364 384.48 
L 138.436364 51.84 
L 140.575251 51.84 
L 140.575251 384.48 
z
" style="fill:#008000;opacity:0.04;"/>
   </g>
   <g id="patch_6">
    <path clip-path="url(#p7e15ef6c23)" d="M 142.714138 384.48 
L 142.714138 51.84 
L 144.853025 51.84 
L 144.853025 384.48 
z
" style="fill:#008000;opacity:0.04;"/>
   </g>
   <g id="patch_7">
    <path clip-path="url(#p7e15ef6c23)" d="M 142.714138 384.48 
L 142.714138 371.1744 
L 144.853025 371.1744 
L 144.853025 384.48 
z
" style="fill:#ffe500;"/>
   </g>
   <g id="patch_8">
    <path clip-path="url(#p7e15ef6c23)" d="M 146.991912 384.48 
L 146.991912 51.84 
L 149.130799 51.84 
L 149.130799 384.48 
z
" style="fill:#008000;opacity:0.04;"/>
   </g>
   <g id="patch_9">
    <path clip-path="url(#p7e15ef6c23)" d="M 151.269686 384.48 
L 151.269686 51.84 
L 153.408573 51.84 
L 153.408573 384.48 
z
" style="fill:#008000;opacity:0.04;"/>
   </g>
   <g id="patch_10">
    <path clip-path="url(#p7e15ef6c23)" d="M 155.547461 384.48 
L 155.547461 51.84 
L 157.686348 51.84 
L 157.686348 384.48 
z
" style="fill:#008000;opacity:0.04;"/>
   </g>
   <g id="patch_11">
    <path clip-path="url(#p7e15ef6c23)" d="M 159.825235 384.48 
L 159.825235 51.84 
L 161.964122 51.84 
L 161.964122 384.48 
z
" style="fill:#008000;opacity:0.04;"/>
   </g>
   <g id="patch_12">
    <path clip-path="url(#p7e15ef6c23)" d="M 164.103009 384.48 
L 164.103009 51.84 
L 166.241896 51.84 
L 166.241896 384.48 
z
" style="fill:#008000;opacity:0.04;"/>
   </g>
   <g id="patch_13">
    <path clip-path="url(#p7e15ef6c23)" d="M 168.380783 384.48 
L 168.380783 51.84 
L 170.51967 51.84 
L 170.51967 384.48 
z
" style="fill:#008000;opacity:0.04;"/>
   </g>
   <g id="patch_14">
    <path clip-path="url(#p7e15ef6c23)" d="M 170.51967 384.48 
L 170.51967 371.1744 
L 172.658557 371.1744 
L 172.658557 384.48 
z
" style="fill:#ffe500;"/>
   </g>
   <g id="patch_15">
    <path clip-path="url(#p7e15ef6c23)" d="M 172.658557 384.48 
L 172.658557 51.84 
L 174.797445 51.84 
L 174.797445 384.48 
z
" style="fill:#008000;opacity:0.04;"/>
   </g>
   <g id="patch_16">
    <path clip-path="url(#p7e15ef6c23)" d="M 176.936332 384.48 
L 176.936332 51.84 
L 179.075219 51.84 
L 179.075219 384.48 
z
" style="fill:#008000;opacity:0.04;"/>
   </g>
   <g id="patch_17">
    <path clip-path="url(#p7e15ef6c23)" d="M 181.214106 384.48 
L 181.214106 51.84 
L 183.352993 51.84 
L 183.352993 384.48 
z
" style="fill:#008000;opacity:0.04;"/>
   </g>
   <g id="patch_18">
    <path clip-path="url(#p7e15ef6c23)" d="M 181.214106 384.48 
L 181.214106 371.1744 
L 183.352993 371.1744 
L 183.352993 384.48 
z
" style="fill:#ffe500;"/>
   </g>
   <g id="patch_19">
    <path clip-path="url(#p7e15ef6c23)" d="M 185.49188 384.48 
L 185.49188 51.84 
L 187.630767 51.84 
L 187.630767 384.48 
z
" style="fill:#008000;opacity:0.04;"/>
   </g>
   <g id="patch_20">
    <path clip-path="url(#p7e15ef6c23)" d="M 189.769654 384.48 
L 189.769654 51.84 
L 191.908541 51.84 
L 191.908541 384.48 
z
" style="fill:#008000;opacity:0.04;"/>
   </g>
   <g id="patch_21">
    <path clip-path="url(#p7e15ef6c23)" d="M 194.047429 384.48 
L 194.047429 51.84 
L 196.186316 51.84 
L 196.186316 384.48 
z
" style="fill:#008000;opacity:0.04;"/>
   </g>
   <g id="patch_22">
    <path clip-path="url(#p7e15ef6c23)" d="M 198.325203 384.48 
L 198.325203 51.84 
L 200.46409 51.84 
L 200.46409 384.48 
z
" style="fill:#008000;opacity:0.04;"/>
   </g>
   <g id="patch_23">
    <path clip-path="url(#p7e15ef6c23)" d="M 202.602977 384.48 
L 202.602977 51.84 
L 204.741864 51.84 
L 204.741864 384.48 
z
" style="fill:#008000;opacity:0.04;"/>
   </g>
   <g id="patch_24">
    <path clip-path="url(#p7e15ef6c23)" d="M 206.880751 384.48 
L 206.880751 51.84 
L 209.019638 51.84 
L 209.019638 384.48 
z
" style="fill:#008000;opacity:0.04;"/>
   </g>
   <g id="patch_25">
    <path clip-path="url(#p7e15ef6c23)" d="M 448.574995 384.48 
L 448.574995 371.1744 
L 450.713882 371.1744 
L 450.713882 384.48 
z
" style="fill:#ff6600;"/>
   </g>
   <g id="patch_26">
    <path clip-path="url(#p7e15ef6c23)" d="M 211.158526 384.48 
L 211.158526 51.84 
L 213.297413 51.84 
L 213.297413 384.48 
z
" style="fill:#008000;opacity:0.04;"/>
   </g>
   <g id="patch_27">
    <path clip-path="url(#p7e15ef6c23)" d="M 454.991657 384.48 
L 454.991657 371.1744 
L 457.130544 371.1744 
L 457.130544 384.48 
z
" style="fill:#ff6600;"/>
   </g>
   <g id="patch_28">
    <path clip-path="url(#p7e15ef6c23)" d="M 215.4363 384.48 
L 215.4363 51.84 
L 217.575187 51.84 
L 217.575187 384.48 
z
" style="fill:#008000;opacity:0.04;"/>
   </g>
   <g id="patch_29">
    <path clip-path="url(#p7e15ef6c23)" d="M 219.714074 384.48 
L 219.714074 51.84 
L 221.852961 51.84 
L 221.852961 384.48 
z
" style="fill:#008000;opacity:0.04;"/>
   </g>
   <g id="patch_30">
    <path clip-path="url(#p7e15ef6c23)" d="M 223.991848 384.48 
L 223.991848 51.84 
L 226.130735 51.84 
L 226.130735 384.48 
z
" style="fill:#008000;opacity:0.04;"/>
   </g>
   <g id="patch_31">
    <path clip-path="url(#p7e15ef6c23)" d="M 465.686092 384.48 
L 465.686092 371.1744 
L 467.824979 371.1744 
L 467.824979 384.48 
z
" style="fill:#ff6600;"/>
   </g>
   <g id="patch_32">
    <path clip-path="url(#p7e15ef6c23)" d="M 228.269622 384.48 
L 228.269622 51.84 
L 230.40851 51.84 
L 230.40851 384.48 
z
" style="fill:#008000;opacity:0.04;"/>
   </g>
   <g id="patch_33">
    <path clip-path="url(#p7e15ef6c23)" d="M 232.547397 384.48 
L 232.547397 51.84 
L 234.686284 51.84 
L 234.686284 384.48 
z
" style="fill:#008000;opacity:0.04;"/>
   </g>
   <g id="patch_34">
    <path clip-path="url(#p7e15ef6c23)" d="M 232.547397 384.48 
L 232.547397 371.1744 
L 234.686284 371.1744 
L 234.686284 384.48 
z
" style="fill:#ffe500;"/>
   </g>
   <g id="patch_35">
    <path clip-path="url(#p7e15ef6c23)" d="M 236.825171 384.48 
L 236.825171 51.84 
L 238.964058 51.84 
L 238.964058 384.48 
z
" style="fill:#008000;opacity:0.04;"/>
   </g>
   <g id="patch_36">
    <path clip-path="url(#p7e15ef6c23)" d="M 241.102945 384.48 
L 241.102945 51.84 
L 243.241832 51.84 
L 243.241832 384.48 
z
" style="fill:#008000;opacity:0.04;"/>
   </g>
   <g id="patch_37">
    <path clip-path="url(#p7e15ef6c23)" d="M 243.241832 384.48 
L 243.241832 371.1744 
L 245.380719 371.1744 
L 245.380719 384.48 
z
" style="fill:#ffe500;"/>
   </g>
   <g id="patch_38">
    <path clip-path="url(#p7e15ef6c23)" d="M 245.380719 384.48 
L 245.380719 51.84 
L 247.519606 51.84 
L 247.519606 384.48 
z
" style="fill:#008000;opacity:0.04;"/>
   </g>
   <g id="patch_39">
    <path clip-path="url(#p7e15ef6c23)" d="M 489.21385 384.48 
L 489.21385 371.1744 
L 491.352737 371.1744 
L 491.352737 384.48 
z
" style="fill:#ff6600;"/>
   </g>
   <g id="patch_40">
    <path clip-path="url(#p7e15ef6c23)" d="M 249.658494 384.48 
L 249.658494 51.84 
L 251.797381 51.84 
L 251.797381 384.48 
z
" style="fill:#008000;opacity:0.04;"/>
   </g>
   <g id="patch_41">
    <path clip-path="url(#p7e15ef6c23)" d="M 253.936268 384.48 
L 253.936268 51.84 
L 256.075155 51.84 
L 256.075155 384.48 
z
" style="fill:#008000;opacity:0.04;"/>
   </g>
   <g id="patch_42">
    <path clip-path="url(#p7e15ef6c23)" d="M 258.214042 384.48 
L 258.214042 51.84 
L 260.352929 51.84 
L 260.352929 384.48 
z
" style="fill:#008000;opacity:0.04;"/>
   </g>
   <g id="patch_43">
    <path clip-path="url(#p7e15ef6c23)" d="M 260.352929 384.48 
L 260.352929 371.1744 
L 262.491816 371.1744 
L 262.491816 384.48 
z
" style="fill:#ffe500;"/>
   </g>
   <g id="patch_44">
    <path clip-path="url(#p7e15ef6c23)" d="M 262.491816 384.48 
L 262.491816 51.84 
L 264.630703 51.84 
L 264.630703 384.48 
z
" style="fill:#008000;opacity:0.04;"/>
   </g>
   <g id="patch_45">
    <path clip-path="url(#p7e15ef6c23)" d="M 266.76959 384.48 
L 266.76959 51.84 
L 268.908478 51.84 
L 268.908478 384.48 
z
" style="fill:#008000;opacity:0.04;"/>
   </g>
   <g id="patch_46">
    <path clip-path="url(#p7e15ef6c23)" d="M 271.047365 384.48 
L 271.047365 51.84 
L 273.186252 51.84 
L 273.186252 384.48 
z
" style="fill:#008000;opacity:0.04;"/>
   </g>
   <g id="patch_47">
    <path clip-path="url(#p7e15ef6c23)" d="M 514.880496 384.48 
L 514.880496 371.1744 
L 517.019383 371.1744 
L 517.019383 384.48 
z
" style="fill:#ff6600;"/>
   </g>
   <g id="patch_48">
    <path clip-path="url(#p7e15ef6c23)" d="M 275.325139 384.48 
L 275.325139 51.84 
L 277.464026 51.84 
L 277.464026 384.48 
z
" style="fill:#008000;opacity:0.04;"/>
   </g>
   <g id="patch_49">
    <path clip-path="url(#p7e15ef6c23)" d="M 517.019383 384.48 
L 517.019383 371.1744 
L 519.15827 371.1744 
L 519.15827 384.48 
z
" style="fill:#ff6600;"/>
   </g>
   <g id="patch_50">
    <path clip-path="url(#p7e15ef6c23)" d="M 279.602913 384.48 
L 279.602913 51.84 
L 281.7418 51.84 
L 281.7418 384.48 
z
" style="fill:#008000;opacity:0.04;"/>
   </g>
   <g id="patch_51">
    <path clip-path="url(#p7e15ef6c23)" d="M 283.880687 384.48 
L 283.880687 51.84 
L 286.019575 51.84 
L 286.019575 384.48 
z
" style="fill:#008000;opacity:0.04;"/>
   </g>
   <g id="patch_52">
    <path clip-path="url(#p7e15ef6c23)" d="M 288.158462 384.48 
L 288.158462 51.84 
L 290.297349 51.84 
L 290.297349 384.48 
z
" style="fill:#008000;opacity:0.04;"/>
   </g>
   <g id="patch_53">
    <path clip-path="url(#p7e15ef6c23)" d="M 292.436236 384.48 
L 292.436236 51.84 
L 294.575123 51.84 
L 294.575123 384.48 
z
" style="fill:#008000;opacity:0.04;"/>
   </g>
   <g id="patch_54">
    <path clip-path="url(#p7e15ef6c23)" d="M 294.575123 384.48 
L 294.575123 371.1744 
L 296.71401 371.1744 
L 296.71401 384.48 
z
" style="fill:#ffe500;"/>
   </g>
   <g id="patch_55">
    <path clip-path="url(#p7e15ef6c23)" d="M 296.71401 384.48 
L 296.71401 51.84 
L 298.852897 51.84 
L 298.852897 384.48 
z
" style="fill:#008000;opacity:0.04;"/>
   </g>
   <g id="patch_56">
    <path clip-path="url(#p7e15ef6c23)" d="M 296.71401 384.48 
L 296.71401 371.1744 
L 298.852897 371.1744 
L 298.852897 384.48 
z
" style="fill:#ffe500;"/>
   </g>
   <g id="patch_57">
    <path clip-path="url(#p7e15ef6c23)" d="M 540.547141 384.48 
L 540.547141 371.1744 
L 542.686028 371.1744 
L 542.686028 384.48 
z
" style="fill:#ff6600;"/>
   </g>
   <g id="patch_58">
    <path clip-path="url(#p7e15ef6c23)" d="M 300.991784 384.48 
L 300.991784 51.84 
L 303.130671 51.84 
L 303.130671 384.48 
z
" style="fill:#008000;opacity:0.04;"/>
   </g>
   <g id="patch_59">
    <path clip-path="url(#p7e15ef6c23)" d="M 305.269559 384.48 
L 305.269559 51.84 
L 307.408446 51.84 
L 307.408446 384.48 
z
" style="fill:#008000;opacity:0.04;"/>
   </g>
   <g id="patch_60">
    <path clip-path="url(#p7e15ef6c23)" d="M 546.963802 384.48 
L 546.963802 371.1744 
L 549.10269 371.1744 
L 549.10269 384.48 
z
" style="fill:#ff6600;"/>
   </g>
   <g id="patch_61">
    <path clip-path="url(#p7e15ef6c23)" d="M 549.10269 384.48 
L 549.10269 371.1744 
L 551.241577 371.1744 
L 551.241577 384.48 
z
" style="fill:#ff6600;"/>
   </g>
   <g id="patch_62">
    <path clip-path="url(#p7e15ef6c23)" d="M 309.547333 384.48 
L 309.547333 51.84 
L 311.68622 51.84 
L 311.68622 384.48 
z
" style="fill:#008000;opacity:0.04;"/>
   </g>
   <g id="patch_63">
    <path clip-path="url(#p7e15ef6c23)" d="M 551.241577 384.48 
L 551.241577 371.1744 
L 553.380464 371.1744 
L 553.380464 384.48 
z
" style="fill:#ff6600;"/>
   </g>
   <g id="patch_64">
    <path clip-path="url(#p7e15ef6c23)" d="M 311.68622 384.48 
L 311.68622 371.1744 
L 313.825107 371.1744 
L 313.825107 384.48 
z
" style="fill:#ffe500;"/>
   </g>
   <g id="patch_65">
    <path clip-path="url(#p7e15ef6c23)" d="M 313.825107 384.48 
L 313.825107 51.84 
L 315.963994 51.84 
L 315.963994 384.48 
z
" style="fill:#008000;opacity:0.04;"/>
   </g>
   <g id="patch_66">
    <path clip-path="url(#p7e15ef6c23)" d="M 557.658238 384.48 
L 557.658238 371.1744 
L 559.797125 371.1744 
L 559.797125 384.48 
z
" style="fill:#ff6600;"/>
   </g>
   <g id="patch_67">
    <path clip-path="url(#p7e15ef6c23)" d="M 318.102881 384.48 
L 318.102881 51.84 
L 320.241768 51.84 
L 320.241768 384.48 
z
" style="fill:#008000;opacity:0.04;"/>
   </g>
   <g id="patch_68">
    <path clip-path="url(#p7e15ef6c23)" d="M 318.102881 384.48 
L 318.102881 371.1744 
L 320.241768 371.1744 
L 320.241768 384.48 
z
" style="fill:#ffe500;"/>
   </g>
   <g id="patch_69">
    <path clip-path="url(#p7e15ef6c23)" d="M 322.380655 384.48 
L 322.380655 51.84 
L 324.519543 51.84 
L 324.519543 384.48 
z
" style="fill:#008000;opacity:0.04;"/>
   </g>
   <g id="patch_70">
    <path clip-path="url(#p7e15ef6c23)" d="M 564.074899 384.48 
L 564.074899 371.1744 
L 566.213786 371.1744 
L 566.213786 384.48 
z
" style="fill:#ff6600;"/>
   </g>
   <g id="patch_71">
    <path clip-path="url(#p7e15ef6c23)" d="M 326.65843 384.48 
L 326.65843 51.84 
L 328.797317 51.84 
L 328.797317 384.48 
z
" style="fill:#008000;opacity:0.04;"/>
   </g>
   <g id="patch_72">
    <path clip-path="url(#p7e15ef6c23)" d="M 330.936204 384.48 
L 330.936204 51.84 
L 333.075091 51.84 
L 333.075091 384.48 
z
" style="fill:#008000;opacity:0.04;"/>
   </g>
   <g id="patch_73">
    <path clip-path="url(#p7e15ef6c23)" d="M 335.213978 384.48 
L 335.213978 51.84 
L 337.352865 51.84 
L 337.352865 384.48 
z
" style="fill:#008000;opacity:0.04;"/>
   </g>
   <g id="patch_74">
    <path clip-path="url(#p7e15ef6c23)" d="M 339.491752 384.48 
L 339.491752 51.84 
L 341.630639 51.84 
L 341.630639 384.48 
z
" style="fill:#008000;opacity:0.04;"/>
   </g>
   <g id="patch_75">
    <path clip-path="url(#p7e15ef6c23)" d="M 583.324883 384.48 
L 583.324883 371.1744 
L 585.463771 371.1744 
L 585.463771 384.48 
z
" style="fill:#ff6600;"/>
   </g>
   <g id="patch_76">
    <path clip-path="url(#p7e15ef6c23)" d="M 343.769527 384.48 
L 343.769527 51.84 
L 345.908414 51.84 
L 345.908414 384.48 
z
" style="fill:#008000;opacity:0.04;"/>
   </g>
   <g id="patch_77">
    <path clip-path="url(#p7e15ef6c23)" d="M 587.602658 384.48 
L 587.602658 371.1744 
L 589.741545 371.1744 
L 589.741545 384.48 
z
" style="fill:#ff6600;"/>
   </g>
   <g id="patch_78">
    <path clip-path="url(#p7e15ef6c23)" d="M 348.047301 384.48 
L 348.047301 51.84 
L 350.186188 51.84 
L 350.186188 384.48 
z
" style="fill:#008000;opacity:0.04;"/>
   </g>
   <g id="patch_79">
    <path clip-path="url(#p7e15ef6c23)" d="M 591.880432 384.48 
L 591.880432 371.1744 
L 594.019319 371.1744 
L 594.019319 384.48 
z
" style="fill:#ff6600;"/>
   </g>
   <g id="patch_80">
    <path clip-path="url(#p7e15ef6c23)" d="M 352.325075 384.48 
L 352.325075 51.84 
L 354.463962 51.84 
L 354.463962 384.48 
z
" style="fill:#008000;opacity:0.04;"/>
   </g>
   <g id="patch_81">
    <path clip-path="url(#p7e15ef6c23)" d="M 356.602849 384.48 
L 356.602849 51.84 
L 358.741736 51.84 
L 358.741736 384.48 
z
" style="fill:#008000;opacity:0.04;"/>
   </g>
   <g id="patch_82">
    <path clip-path="url(#p7e15ef6c23)" d="M 598.297093 384.48 
L 598.297093 371.1744 
L 600.43598 371.1744 
L 600.43598 384.48 
z
" style="fill:#ff6600;"/>
   </g>
   <g id="patch_83">
    <path clip-path="url(#p7e15ef6c23)" d="M 360.880624 384.48 
L 360.880624 51.84 
L 363.019511 51.84 
L 363.019511 384.48 
z
" style="fill:#008000;opacity:0.04;"/>
   </g>
   <g id="patch_84">
    <path clip-path="url(#p7e15ef6c23)" d="M 602.574867 384.48 
L 602.574867 371.1744 
L 604.713755 371.1744 
L 604.713755 384.48 
z
" style="fill:#ff6600;"/>
   </g>
   <g id="patch_85">
    <path clip-path="url(#p7e15ef6c23)" d="M 365.158398 384.48 
L 365.158398 51.84 
L 367.297285 51.84 
L 367.297285 384.48 
z
" style="fill:#008000;opacity:0.04;"/>
   </g>
   <g id="patch_86">
    <path clip-path="url(#p7e15ef6c23)" d="M 608.991529 384.48 
L 608.991529 371.1744 
L 611.130416 371.1744 
L 611.130416 384.48 
z
" style="fill:#ff6600;"/>
   </g>
   <g id="patch_87">
    <path clip-path="url(#p7e15ef6c23)" d="M 369.436172 384.48 
L 369.436172 51.84 
L 371.575059 51.84 
L 371.575059 384.48 
z
" style="fill:#008000;opacity:0.04;"/>
   </g>
   <g id="patch_88">
    <path clip-path="url(#p7e15ef6c23)" d="M 373.713946 384.48 
L 373.713946 51.84 
L 375.852833 51.84 
L 375.852833 384.48 
z
" style="fill:#008000;opacity:0.04;"/>
   </g>
   <g id="patch_89">
    <path clip-path="url(#p7e15ef6c23)" d="M 375.852833 384.48 
L 375.852833 371.1744 
L 377.99172 371.1744 
L 377.99172 384.48 
z
" style="fill:#ffe500;"/>
   </g>
   <g id="patch_90">
    <path clip-path="url(#p7e15ef6c23)" d="M 377.99172 384.48 
L 377.99172 51.84 
L 380.130608 51.84 
L 380.130608 384.48 
z
" style="fill:#008000;opacity:0.04;"/>
   </g>
   <g id="patch_91">
    <path clip-path="url(#p7e15ef6c23)" d="M 619.685964 384.48 
L 619.685964 371.1744 
L 621.824851 371.1744 
L 621.824851 384.48 
z
" style="fill:#ff6600;"/>
   </g>
   <g id="patch_92">
    <path clip-path="url(#p7e15ef6c23)" d="M 382.269495 384.48 
L 382.269495 51.84 
L 384.408382 51.84 
L 384.408382 384.48 
z
" style="fill:#008000;opacity:0.04;"/>
   </g>
   <g id="patch_93">
    <path clip-path="url(#p7e15ef6c23)" d="M 386.547269 384.48 
L 386.547269 51.84 
L 388.686156 51.84 
L 388.686156 384.48 
z
" style="fill:#008000;opacity:0.04;"/>
   </g>
   <g id="patch_94">
    <path clip-path="url(#p7e15ef6c23)" d="M 390.825043 384.48 
L 390.825043 51.84 
L 392.96393 51.84 
L 392.96393 384.48 
z
" style="fill:#008000;opacity:0.04;"/>
   </g>
   <g id="patch_95">
    <path clip-path="url(#p7e15ef6c23)" d="M 395.102817 384.48 
L 395.102817 51.84 
L 397.241704 51.84 
L 397.241704 384.48 
z
" style="fill:#008000;opacity:0.04;"/>
   </g>
   <g id="patch_96">
    <path clip-path="url(#p7e15ef6c23)" d="M 399.380592 384.48 
L 399.380592 51.84 
L 401.519479 51.84 
L 401.519479 384.48 
z
" style="fill:#008000;opacity:0.04;"/>
   </g>
   <g id="patch_97">
    <path clip-path="url(#p7e15ef6c23)" d="M 403.658366 384.48 
L 403.658366 51.84 
L 405.797253 51.84 
L 405.797253 384.48 
z
" style="fill:#008000;opacity:0.04;"/>
   </g>
   <g id="patch_98">
    <path clip-path="url(#p7e15ef6c23)" d="M 407.93614 384.48 
L 407.93614 51.84 
L 410.075027 51.84 
L 410.075027 384.48 
z
" style="fill:#008000;opacity:0.04;"/>
   </g>
   <g id="patch_99">
    <path clip-path="url(#p7e15ef6c23)" d="M 412.213914 384.48 
L 412.213914 51.84 
L 414.352801 51.84 
L 414.352801 384.48 
z
" style="fill:#008000;opacity:0.04;"/>
   </g>
   <g id="patch_100">
    <path clip-path="url(#p7e15ef6c23)" d="M 653.908158 384.48 
L 653.908158 371.1744 
L 656.047045 371.1744 
L 656.047045 384.48 
z
" style="fill:#ff6600;"/>
   </g>
   <g id="patch_101">
    <path clip-path="url(#p7e15ef6c23)" d="M 416.491688 384.48 
L 416.491688 51.84 
L 418.630576 51.84 
L 418.630576 384.48 
z
" style="fill:#008000;opacity:0.04;"/>
   </g>
   <g id="patch_102">
    <path clip-path="url(#p7e15ef6c23)" d="M 660.32482 384.48 
L 660.32482 371.1744 
L 662.463707 371.1744 
L 662.463707 384.48 
z
" style="fill:#ff6600;"/>
   </g>
   <g id="patch_103">
    <path clip-path="url(#p7e15ef6c23)" d="M 420.769463 384.48 
L 420.769463 51.84 
L 422.90835 51.84 
L 422.90835 384.48 
z
" style="fill:#008000;opacity:0.04;"/>
   </g>
   <g id="patch_104">
    <path clip-path="url(#p7e15ef6c23)" d="M 664.602594 384.48 
L 664.602594 371.1744 
L 666.741481 371.1744 
L 666.741481 384.48 
z
" style="fill:#ff6600;"/>
   </g>
   <g id="patch_105">
    <path clip-path="url(#p7e15ef6c23)" d="M 425.047237 384.48 
L 425.047237 51.84 
L 427.186124 51.84 
L 427.186124 384.48 
z
" style="fill:#008000;opacity:0.04;"/>
   </g>
   <g id="patch_106">
    <path clip-path="url(#p7e15ef6c23)" d="M 429.325011 384.48 
L 429.325011 51.84 
L 431.463898 51.84 
L 431.463898 384.48 
z
" style="fill:#008000;opacity:0.04;"/>
   </g>
   <g id="patch_107">
    <path clip-path="url(#p7e15ef6c23)" d="M 671.019255 384.48 
L 671.019255 371.1744 
L 673.158142 371.1744 
L 673.158142 384.48 
z
" style="fill:#ff6600;"/>
   </g>
   <g id="patch_108">
    <path clip-path="url(#p7e15ef6c23)" d="M 433.602785 384.48 
L 433.602785 51.84 
L 435.741673 51.84 
L 435.741673 384.48 
z
" style="fill:#008000;opacity:0.04;"/>
   </g>
   <g id="patch_109">
    <path clip-path="url(#p7e15ef6c23)" d="M 437.88056 384.48 
L 437.88056 51.84 
L 440.019447 51.84 
L 440.019447 384.48 
z
" style="fill:#008000;opacity:0.04;"/>
   </g>
   <g id="patch_110">
    <path clip-path="url(#p7e15ef6c23)" d="M 679.574804 384.48 
L 679.574804 371.1744 
L 681.713691 371.1744 
L 681.713691 384.48 
z
" style="fill:#ff6600;"/>
   </g>
   <g id="patch_111">
    <path clip-path="url(#p7e15ef6c23)" d="M 442.158334 384.48 
L 442.158334 51.84 
L 444.297221 51.84 
L 444.297221 384.48 
z
" style="fill:#008000;opacity:0.04;"/>
   </g>
   <g id="patch_112">
    <path clip-path="url(#p7e15ef6c23)" d="M 446.436108 384.48 
L 446.436108 51.84 
L 448.574995 51.84 
L 448.574995 384.48 
z
" style="fill:#008000;opacity:0.04;"/>
   </g>
   <g id="patch_113">
    <path clip-path="url(#p7e15ef6c23)" d="M 690.269239 384.48 
L 690.269239 371.1744 
L 692.408126 371.1744 
L 692.408126 384.48 
z
" style="fill:#ff6600;"/>
   </g>
   <g id="patch_114">
    <path clip-path="url(#p7e15ef6c23)" d="M 450.713882 384.48 
L 450.713882 51.84 
L 452.852769 51.84 
L 452.852769 384.48 
z
" style="fill:#008000;opacity:0.04;"/>
   </g>
   <g id="patch_115">
    <path clip-path="url(#p7e15ef6c23)" d="M 454.991657 384.48 
L 454.991657 51.84 
L 457.130544 51.84 
L 457.130544 384.48 
z
" style="fill:#008000;opacity:0.04;"/>
   </g>
   <g id="patch_116">
    <path clip-path="url(#p7e15ef6c23)" d="M 459.269431 384.48 
L 459.269431 51.84 
L 461.408318 51.84 
L 461.408318 384.48 
z
" style="fill:#008000;opacity:0.04;"/>
   </g>
   <g id="patch_117">
    <path clip-path="url(#p7e15ef6c23)" d="M 700.963675 384.48 
L 700.963675 371.1744 
L 703.102562 371.1744 
L 703.102562 384.48 
z
" style="fill:#ff6600;"/>
   </g>
   <g id="patch_118">
    <path clip-path="url(#p7e15ef6c23)" d="M 463.547205 384.48 
L 463.547205 51.84 
L 465.686092 51.84 
L 465.686092 384.48 
z
" style="fill:#008000;opacity:0.04;"/>
   </g>
   <g id="patch_119">
    <path clip-path="url(#p7e15ef6c23)" d="M 467.824979 384.48 
L 467.824979 51.84 
L 469.963866 51.84 
L 469.963866 384.48 
z
" style="fill:#008000;opacity:0.04;"/>
   </g>
   <g id="patch_120">
    <path clip-path="url(#p7e15ef6c23)" d="M 472.102753 384.48 
L 472.102753 51.84 
L 474.241641 51.84 
L 474.241641 384.48 
z
" style="fill:#008000;opacity:0.04;"/>
   </g>
   <g id="patch_121">
    <path clip-path="url(#p7e15ef6c23)" d="M 476.380528 384.48 
L 476.380528 51.84 
L 478.519415 51.84 
L 478.519415 384.48 
z
" style="fill:#008000;opacity:0.04;"/>
   </g>
   <g id="patch_122">
    <path clip-path="url(#p7e15ef6c23)" d="M 480.658302 384.48 
L 480.658302 51.84 
L 482.797189 51.84 
L 482.797189 384.48 
z
" style="fill:#008000;opacity:0.04;"/>
   </g>
   <g id="patch_123">
    <path clip-path="url(#p7e15ef6c23)" d="M 484.936076 384.48 
L 484.936076 51.84 
L 487.074963 51.84 
L 487.074963 384.48 
z
" style="fill:#008000;opacity:0.04;"/>
   </g>
   <g id="patch_124">
    <path clip-path="url(#p7e15ef6c23)" d="M 726.63032 384.48 
L 726.63032 371.1744 
L 728.769207 371.1744 
L 728.769207 384.48 
z
" style="fill:#ff6600;"/>
   </g>
   <g id="patch_125">
    <path clip-path="url(#p7e15ef6c23)" d="M 489.21385 384.48 
L 489.21385 51.84 
L 491.352737 51.84 
L 491.352737 384.48 
z
" style="fill:#008000;opacity:0.04;"/>
   </g>
   <g id="patch_126">
    <path clip-path="url(#p7e15ef6c23)" d="M 730.908094 384.48 
L 730.908094 371.1744 
L 733.046981 371.1744 
L 733.046981 384.48 
z
" style="fill:#ff6600;"/>
   </g>
   <g id="patch_127">
    <path clip-path="url(#p7e15ef6c23)" d="M 493.491625 384.48 
L 493.491625 51.84 
L 495.630512 51.84 
L 495.630512 384.48 
z
" style="fill:#008000;opacity:0.04;"/>
   </g>
   <g id="patch_128">
    <path clip-path="url(#p7e15ef6c23)" d="M 735.185869 384.48 
L 735.185869 371.1744 
L 737.324756 371.1744 
L 737.324756 384.48 
z
" style="fill:#ff6600;"/>
   </g>
   <g id="patch_129">
    <path clip-path="url(#p7e15ef6c23)" d="M 497.769399 384.48 
L 497.769399 51.84 
L 499.908286 51.84 
L 499.908286 384.48 
z
" style="fill:#008000;opacity:0.04;"/>
   </g>
   <g id="patch_130">
    <path clip-path="url(#p7e15ef6c23)" d="M 741.60253 384.48 
L 741.60253 371.1744 
L 743.741417 371.1744 
L 743.741417 384.48 
z
" style="fill:#ff6600;"/>
   </g>
   <g id="patch_131">
    <path clip-path="url(#p7e15ef6c23)" d="M 502.047173 384.48 
L 502.047173 51.84 
L 504.18606 51.84 
L 504.18606 384.48 
z
" style="fill:#008000;opacity:0.04;"/>
   </g>
   <g id="patch_132">
    <path clip-path="url(#p7e15ef6c23)" d="M 506.324947 384.48 
L 506.324947 51.84 
L 508.463834 51.84 
L 508.463834 384.48 
z
" style="fill:#008000;opacity:0.04;"/>
   </g>
   <g id="patch_133">
    <path clip-path="url(#p7e15ef6c23)" d="M 510.602722 384.48 
L 510.602722 51.84 
L 512.741609 51.84 
L 512.741609 384.48 
z
" style="fill:#008000;opacity:0.04;"/>
   </g>
   <g id="patch_134">
    <path clip-path="url(#p7e15ef6c23)" d="M 514.880496 384.48 
L 514.880496 51.84 
L 517.019383 51.84 
L 517.019383 384.48 
z
" style="fill:#008000;opacity:0.04;"/>
   </g>
   <g id="patch_135">
    <path clip-path="url(#p7e15ef6c23)" d="M 519.15827 384.48 
L 519.15827 51.84 
L 521.297157 51.84 
L 521.297157 384.48 
z
" style="fill:#008000;opacity:0.04;"/>
   </g>
   <g id="patch_136">
    <path clip-path="url(#p7e15ef6c23)" d="M 523.436044 384.48 
L 523.436044 51.84 
L 525.574931 51.84 
L 525.574931 384.48 
z
" style="fill:#008000;opacity:0.04;"/>
   </g>
   <g id="patch_137">
    <path clip-path="url(#p7e15ef6c23)" d="M 527.713818 384.48 
L 527.713818 51.84 
L 529.852706 51.84 
L 529.852706 384.48 
z
" style="fill:#008000;opacity:0.04;"/>
   </g>
   <g id="patch_138">
    <path clip-path="url(#p7e15ef6c23)" d="M 531.991593 384.48 
L 531.991593 51.84 
L 534.13048 51.84 
L 534.13048 384.48 
z
" style="fill:#008000;opacity:0.04;"/>
   </g>
   <g id="patch_139">
    <path clip-path="url(#p7e15ef6c23)" d="M 536.269367 384.48 
L 536.269367 51.84 
L 538.408254 51.84 
L 538.408254 384.48 
z
" style="fill:#008000;opacity:0.04;"/>
   </g>
   <g id="patch_140">
    <path clip-path="url(#p7e15ef6c23)" d="M 540.547141 384.48 
L 540.547141 51.84 
L 542.686028 51.84 
L 542.686028 384.48 
z
" style="fill:#008000;opacity:0.04;"/>
   </g>
   <g id="patch_141">
    <path clip-path="url(#p7e15ef6c23)" d="M 544.824915 384.48 
L 544.824915 51.84 
L 546.963802 51.84 
L 546.963802 384.48 
z
" style="fill:#008000;opacity:0.04;"/>
   </g>
   <g id="patch_142">
    <path clip-path="url(#p7e15ef6c23)" d="M 549.10269 384.48 
L 549.10269 51.84 
L 551.241577 51.84 
L 551.241577 384.48 
z
" style="fill:#008000;opacity:0.04;"/>
   </g>
   <g id="patch_143">
    <path clip-path="url(#p7e15ef6c23)" d="M 553.380464 384.48 
L 553.380464 51.84 
L 555.519351 51.84 
L 555.519351 384.48 
z
" style="fill:#008000;opacity:0.04;"/>
   </g>
   <g id="patch_144">
    <path clip-path="url(#p7e15ef6c23)" d="M 557.658238 384.48 
L 557.658238 51.84 
L 559.797125 51.84 
L 559.797125 384.48 
z
" style="fill:#008000;opacity:0.04;"/>
   </g>
   <g id="patch_145">
    <path clip-path="url(#p7e15ef6c23)" d="M 561.936012 384.48 
L 561.936012 51.84 
L 564.074899 51.84 
L 564.074899 384.48 
z
" style="fill:#008000;opacity:0.04;"/>
   </g>
   <g id="patch_146">
    <path clip-path="url(#p7e15ef6c23)" d="M 566.213786 384.48 
L 566.213786 51.84 
L 568.352674 51.84 
L 568.352674 384.48 
z
" style="fill:#008000;opacity:0.04;"/>
   </g>
   <g id="patch_147">
    <path clip-path="url(#p7e15ef6c23)" d="M 570.491561 384.48 
L 570.491561 51.84 
L 572.630448 51.84 
L 572.630448 384.48 
z
" style="fill:#008000;opacity:0.04;"/>
   </g>
   <g id="patch_148">
    <path clip-path="url(#p7e15ef6c23)" d="M 574.769335 384.48 
L 574.769335 51.84 
L 576.908222 51.84 
L 576.908222 384.48 
z
" style="fill:#008000;opacity:0.04;"/>
   </g>
   <g id="patch_149">
    <path clip-path="url(#p7e15ef6c23)" d="M 579.047109 384.48 
L 579.047109 51.84 
L 581.185996 51.84 
L 581.185996 384.48 
z
" style="fill:#008000;opacity:0.04;"/>
   </g>
   <g id="patch_150">
    <path clip-path="url(#p7e15ef6c23)" d="M 583.324883 384.48 
L 583.324883 51.84 
L 585.463771 51.84 
L 585.463771 384.48 
z
" style="fill:#008000;opacity:0.04;"/>
   </g>
   <g id="patch_151">
    <path clip-path="url(#p7e15ef6c23)" d="M 587.602658 384.48 
L 587.602658 51.84 
L 589.741545 51.84 
L 589.741545 384.48 
z
" style="fill:#008000;opacity:0.04;"/>
   </g>
   <g id="patch_152">
    <path clip-path="url(#p7e15ef6c23)" d="M 591.880432 384.48 
L 591.880432 51.84 
L 594.019319 51.84 
L 594.019319 384.48 
z
" style="fill:#008000;opacity:0.04;"/>
   </g>
   <g id="patch_153">
    <path clip-path="url(#p7e15ef6c23)" d="M 596.158206 384.48 
L 596.158206 51.84 
L 598.297093 51.84 
L 598.297093 384.48 
z
" style="fill:#008000;opacity:0.04;"/>
   </g>
   <g id="patch_154">
    <path clip-path="url(#p7e15ef6c23)" d="M 600.43598 384.48 
L 600.43598 51.84 
L 602.574867 51.84 
L 602.574867 384.48 
z
" style="fill:#008000;opacity:0.04;"/>
   </g>
   <g id="patch_155">
    <path clip-path="url(#p7e15ef6c23)" d="M 604.713755 384.48 
L 604.713755 51.84 
L 606.852642 51.84 
L 606.852642 384.48 
z
" style="fill:#008000;opacity:0.04;"/>
   </g>
   <g id="patch_156">
    <path clip-path="url(#p7e15ef6c23)" d="M 608.991529 384.48 
L 608.991529 51.84 
L 611.130416 51.84 
L 611.130416 384.48 
z
" style="fill:#008000;opacity:0.04;"/>
   </g>
   <g id="patch_157">
    <path clip-path="url(#p7e15ef6c23)" d="M 613.269303 384.48 
L 613.269303 51.84 
L 615.40819 51.84 
L 615.40819 384.48 
z
" style="fill:#008000;opacity:0.04;"/>
   </g>
   <g id="patch_158">
    <path clip-path="url(#p7e15ef6c23)" d="M 617.547077 384.48 
L 617.547077 51.84 
L 619.685964 51.84 
L 619.685964 384.48 
z
" style="fill:#008000;opacity:0.04;"/>
   </g>
   <g id="patch_159">
    <path clip-path="url(#p7e15ef6c23)" d="M 621.824851 384.48 
L 621.824851 51.84 
L 623.963739 51.84 
L 623.963739 384.48 
z
" style="fill:#008000;opacity:0.04;"/>
   </g>
   <g id="patch_160">
    <path clip-path="url(#p7e15ef6c23)" d="M 626.102626 384.48 
L 626.102626 51.84 
L 628.241513 51.84 
L 628.241513 384.48 
z
" style="fill:#008000;opacity:0.04;"/>
   </g>
   <g id="patch_161">
    <path clip-path="url(#p7e15ef6c23)" d="M 630.3804 384.48 
L 630.3804 51.84 
L 632.519287 51.84 
L 632.519287 384.48 
z
" style="fill:#008000;opacity:0.04;"/>
   </g>
   <g id="patch_162">
    <path clip-path="url(#p7e15ef6c23)" d="M 634.658174 384.48 
L 634.658174 51.84 
L 636.797061 51.84 
L 636.797061 384.48 
z
" style="fill:#008000;opacity:0.04;"/>
   </g>
   <g id="patch_163">
    <path clip-path="url(#p7e15ef6c23)" d="M 638.935948 384.48 
L 638.935948 51.84 
L 641.074835 51.84 
L 641.074835 384.48 
z
" style="fill:#008000;opacity:0.04;"/>
   </g>
   <g id="patch_164">
    <path clip-path="url(#p7e15ef6c23)" d="M 643.213723 384.48 
L 643.213723 51.84 
L 645.35261 51.84 
L 645.35261 384.48 
z
" style="fill:#008000;opacity:0.04;"/>
   </g>
   <g id="patch_165">
    <path clip-path="url(#p7e15ef6c23)" d="M 647.491497 384.48 
L 647.491497 51.84 
L 649.630384 51.84 
L 649.630384 384.48 
z
" style="fill:#008000;opacity:0.04;"/>
   </g>
   <g id="patch_166">
    <path clip-path="url(#p7e15ef6c23)" d="M 651.769271 384.48 
L 651.769271 51.84 
L 653.908158 51.84 
L 653.908158 384.48 
z
" style="fill:#008000;opacity:0.04;"/>
   </g>
   <g id="patch_167">
    <path clip-path="url(#p7e15ef6c23)" d="M 656.047045 384.48 
L 656.047045 51.84 
L 658.185932 51.84 
L 658.185932 384.48 
z
" style="fill:#008000;opacity:0.04;"/>
   </g>
   <g id="patch_168">
    <path clip-path="url(#p7e15ef6c23)" d="M 656.047045 371.1744 
L 656.047045 51.84 
L 658.185932 51.84 
L 658.185932 371.1744 
z
" style="fill:#008000;opacity:0.5;"/>
   </g>
   <g id="patch_169">
    <path clip-path="url(#p7e15ef6c23)" d="M 658.185932 371.1744 
L 658.185932 51.84 
L 660.32482 51.84 
L 660.32482 371.1744 
z
" style="fill:#008000;opacity:0.5;"/>
   </g>
   <g id="patch_170">
    <path clip-path="url(#p7e15ef6c23)" d="M 660.32482 384.48 
L 660.32482 51.84 
L 662.463707 51.84 
L 662.463707 384.48 
z
" style="fill:#008000;opacity:0.04;"/>
   </g>
   <g id="patch_171">
    <path clip-path="url(#p7e15ef6c23)" d="M 660.32482 371.1744 
L 660.32482 51.84 
L 662.463707 51.84 
L 662.463707 371.1744 
z
" style="fill:#008000;opacity:0.5;"/>
   </g>
   <g id="patch_172">
    <path clip-path="url(#p7e15ef6c23)" d="M 664.602594 384.48 
L 664.602594 51.84 
L 666.741481 51.84 
L 666.741481 384.48 
z
" style="fill:#008000;opacity:0.04;"/>
   </g>
   <g id="patch_173">
    <path clip-path="url(#p7e15ef6c23)" d="M 668.880368 384.48 
L 668.880368 51.84 
L 671.019255 51.84 
L 671.019255 384.48 
z
" style="fill:#008000;opacity:0.04;"/>
   </g>
   <g id="patch_174">
    <path clip-path="url(#p7e15ef6c23)" d="M 673.158142 384.48 
L 673.158142 51.84 
L 675.297029 51.84 
L 675.297029 384.48 
z
" style="fill:#008000;opacity:0.04;"/>
   </g>
   <g id="patch_175">
    <path clip-path="url(#p7e15ef6c23)" d="M 677.435916 384.48 
L 677.435916 51.84 
L 679.574804 51.84 
L 679.574804 384.48 
z
" style="fill:#008000;opacity:0.04;"/>
   </g>
   <g id="patch_176">
    <path clip-path="url(#p7e15ef6c23)" d="M 681.713691 384.48 
L 681.713691 51.84 
L 683.852578 51.84 
L 683.852578 384.48 
z
" style="fill:#008000;opacity:0.04;"/>
   </g>
   <g id="patch_177">
    <path clip-path="url(#p7e15ef6c23)" d="M 685.991465 384.48 
L 685.991465 51.84 
L 688.130352 51.84 
L 688.130352 384.48 
z
" style="fill:#008000;opacity:0.04;"/>
   </g>
   <g id="patch_178">
    <path clip-path="url(#p7e15ef6c23)" d="M 690.269239 384.48 
L 690.269239 51.84 
L 692.408126 51.84 
L 692.408126 384.48 
z
" style="fill:#008000;opacity:0.04;"/>
   </g>
   <g id="patch_179">
    <path clip-path="url(#p7e15ef6c23)" d="M 694.547013 384.48 
L 694.547013 51.84 
L 696.6859 51.84 
L 696.6859 384.48 
z
" style="fill:#008000;opacity:0.04;"/>
   </g>
   <g id="patch_180">
    <path clip-path="url(#p7e15ef6c23)" d="M 698.824788 384.48 
L 698.824788 51.84 
L 700.963675 51.84 
L 700.963675 384.48 
z
" style="fill:#008000;opacity:0.04;"/>
   </g>
   <g id="patch_181">
    <path clip-path="url(#p7e15ef6c23)" d="M 703.102562 384.48 
L 703.102562 51.84 
L 705.241449 51.84 
L 705.241449 384.48 
z
" style="fill:#008000;opacity:0.04;"/>
   </g>
   <g id="patch_182">
    <path clip-path="url(#p7e15ef6c23)" d="M 707.380336 384.48 
L 707.380336 51.84 
L 709.519223 51.84 
L 709.519223 384.48 
z
" style="fill:#008000;opacity:0.04;"/>
   </g>
   <g id="patch_183">
    <path clip-path="url(#p7e15ef6c23)" d="M 711.65811 384.48 
L 711.65811 51.84 
L 713.796997 51.84 
L 713.796997 384.48 
z
" style="fill:#008000;opacity:0.04;"/>
   </g>
   <g id="patch_184">
    <path clip-path="url(#p7e15ef6c23)" d="M 715.935884 384.48 
L 715.935884 51.84 
L 718.074772 51.84 
L 718.074772 384.48 
z
" style="fill:#008000;opacity:0.04;"/>
   </g>
   <g id="patch_185">
    <path clip-path="url(#p7e15ef6c23)" d="M 720.213659 384.48 
L 720.213659 51.84 
L 722.352546 51.84 
L 722.352546 384.48 
z
" style="fill:#008000;opacity:0.04;"/>
   </g>
   <g id="patch_186">
    <path clip-path="url(#p7e15ef6c23)" d="M 724.491433 384.48 
L 724.491433 51.84 
L 726.63032 51.84 
L 726.63032 384.48 
z
" style="fill:#008000;opacity:0.04;"/>
   </g>
   <g id="patch_187">
    <path clip-path="url(#p7e15ef6c23)" d="M 728.769207 384.48 
L 728.769207 51.84 
L 730.908094 51.84 
L 730.908094 384.48 
z
" style="fill:#008000;opacity:0.04;"/>
   </g>
   <g id="patch_188">
    <path clip-path="url(#p7e15ef6c23)" d="M 730.908094 371.1744 
L 730.908094 51.84 
L 733.046981 51.84 
L 733.046981 371.1744 
z
" style="fill:#008000;opacity:0.5;"/>
   </g>
   <g id="patch_189">
    <path clip-path="url(#p7e15ef6c23)" d="M 733.046981 384.48 
L 733.046981 51.84 
L 735.185869 51.84 
L 735.185869 384.48 
z
" style="fill:#008000;opacity:0.04;"/>
   </g>
   <g id="patch_190">
    <path clip-path="url(#p7e15ef6c23)" d="M 737.324756 384.48 
L 737.324756 51.84 
L 739.463643 51.84 
L 739.463643 384.48 
z
" style="fill:#008000;opacity:0.04;"/>
   </g>
   <g id="patch_191">
    <path clip-path="url(#p7e15ef6c23)" d="M 741.60253 384.48 
L 741.60253 51.84 
L 743.741417 51.84 
L 743.741417 384.48 
z
" style="fill:#008000;opacity:0.04;"/>
   </g>
   <g id="patch_192">
    <path clip-path="url(#p7e15ef6c23)" d="M 741.60253 371.1744 
L 741.60253 51.84 
L 743.741417 51.84 
L 743.741417 371.1744 
z
" style="fill:#008000;opacity:0.5;"/>
   </g>
   <g id="matplotlib.axis_1">
    <g id="xtick_1">
     <g id="line2d_1">
      <defs>
       <path d="M 0 0 
L 0 3.5 
" id="meb0e0f1ed6" style="stroke:#000000;stroke-width:0.8;"/>
      </defs>
      <g>
       <use style="stroke:#000000;stroke-width:0.8;" x="138.436364" xlink:href="#meb0e0f1ed6" y="384.48"/>
      </g>
     </g>
     <g id="text_1">
      <!-- 0 -->
      <defs>
       <path d="M 31.78125 66.40625 
Q 24.171875 66.40625 20.328125 58.90625 
Q 16.5 51.421875 16.5 36.375 
Q 16.5 21.390625 20.328125 13.890625 
Q 24.171875 6.390625 31.78125 6.390625 
Q 39.453125 6.390625 43.28125 13.890625 
Q 47.125 21.390625 47.125 36.375 
Q 47.125 51.421875 43.28125 58.90625 
Q 39.453125 66.40625 31.78125 66.40625 
z
M 31.78125 74.21875 
Q 44.046875 74.21875 50.515625 64.515625 
Q 56.984375 54.828125 56.984375 36.375 
Q 56.984375 17.96875 50.515625 8.265625 
Q 44.046875 -1.421875 31.78125 -1.421875 
Q 19.53125 -1.421875 13.0625 8.265625 
Q 6.59375 17.96875 6.59375 36.375 
Q 6.59375 54.828125 13.0625 64.515625 
Q 19.53125 74.21875 31.78125 74.21875 
z
" id="DejaVuSans-48"/>
      </defs>
      <g transform="translate(135.255114 399.078438)scale(0.1 -0.1)">
       <use xlink:href="#DejaVuSans-48"/>
      </g>
     </g>
    </g>
    <g id="xtick_2">
     <g id="line2d_2">
      <g>
       <use style="stroke:#000000;stroke-width:0.8;" x="223.991848" xlink:href="#meb0e0f1ed6" y="384.48"/>
      </g>
     </g>
     <g id="text_2">
      <!-- 200 -->
      <defs>
       <path d="M 19.1875 8.296875 
L 53.609375 8.296875 
L 53.609375 0 
L 7.328125 0 
L 7.328125 8.296875 
Q 12.9375 14.109375 22.625 23.890625 
Q 32.328125 33.6875 34.8125 36.53125 
Q 39.546875 41.84375 41.421875 45.53125 
Q 43.3125 49.21875 43.3125 52.78125 
Q 43.3125 58.59375 39.234375 62.25 
Q 35.15625 65.921875 28.609375 65.921875 
Q 23.96875 65.921875 18.8125 64.3125 
Q 13.671875 62.703125 7.8125 59.421875 
L 7.8125 69.390625 
Q 13.765625 71.78125 18.9375 73 
Q 24.125 74.21875 28.421875 74.21875 
Q 39.75 74.21875 46.484375 68.546875 
Q 53.21875 62.890625 53.21875 53.421875 
Q 53.21875 48.921875 51.53125 44.890625 
Q 49.859375 40.875 45.40625 35.40625 
Q 44.1875 33.984375 37.640625 27.21875 
Q 31.109375 20.453125 19.1875 8.296875 
z
" id="DejaVuSans-50"/>
      </defs>
      <g transform="translate(214.448098 399.078438)scale(0.1 -0.1)">
       <use xlink:href="#DejaVuSans-50"/>
       <use x="63.623047" xlink:href="#DejaVuSans-48"/>
       <use x="127.246094" xlink:href="#DejaVuSans-48"/>
      </g>
     </g>
    </g>
    <g id="xtick_3">
     <g id="line2d_3">
      <g>
       <use style="stroke:#000000;stroke-width:0.8;" x="309.547333" xlink:href="#meb0e0f1ed6" y="384.48"/>
      </g>
     </g>
     <g id="text_3">
      <!-- 400 -->
      <defs>
       <path d="M 37.796875 64.3125 
L 12.890625 25.390625 
L 37.796875 25.390625 
z
M 35.203125 72.90625 
L 47.609375 72.90625 
L 47.609375 25.390625 
L 58.015625 25.390625 
L 58.015625 17.1875 
L 47.609375 17.1875 
L 47.609375 0 
L 37.796875 0 
L 37.796875 17.1875 
L 4.890625 17.1875 
L 4.890625 26.703125 
z
" id="DejaVuSans-52"/>
      </defs>
      <g transform="translate(300.003583 399.078438)scale(0.1 -0.1)">
       <use xlink:href="#DejaVuSans-52"/>
       <use x="63.623047" xlink:href="#DejaVuSans-48"/>
       <use x="127.246094" xlink:href="#DejaVuSans-48"/>
      </g>
     </g>
    </g>
    <g id="xtick_4">
     <g id="line2d_4">
      <g>
       <use style="stroke:#000000;stroke-width:0.8;" x="395.102817" xlink:href="#meb0e0f1ed6" y="384.48"/>
      </g>
     </g>
     <g id="text_4">
      <!-- 600 -->
      <defs>
       <path d="M 33.015625 40.375 
Q 26.375 40.375 22.484375 35.828125 
Q 18.609375 31.296875 18.609375 23.390625 
Q 18.609375 15.53125 22.484375 10.953125 
Q 26.375 6.390625 33.015625 6.390625 
Q 39.65625 6.390625 43.53125 10.953125 
Q 47.40625 15.53125 47.40625 23.390625 
Q 47.40625 31.296875 43.53125 35.828125 
Q 39.65625 40.375 33.015625 40.375 
z
M 52.59375 71.296875 
L 52.59375 62.3125 
Q 48.875 64.0625 45.09375 64.984375 
Q 41.3125 65.921875 37.59375 65.921875 
Q 27.828125 65.921875 22.671875 59.328125 
Q 17.53125 52.734375 16.796875 39.40625 
Q 19.671875 43.65625 24.015625 45.921875 
Q 28.375 48.1875 33.59375 48.1875 
Q 44.578125 48.1875 50.953125 41.515625 
Q 57.328125 34.859375 57.328125 23.390625 
Q 57.328125 12.15625 50.6875 5.359375 
Q 44.046875 -1.421875 33.015625 -1.421875 
Q 20.359375 -1.421875 13.671875 8.265625 
Q 6.984375 17.96875 6.984375 36.375 
Q 6.984375 53.65625 15.1875 63.9375 
Q 23.390625 74.21875 37.203125 74.21875 
Q 40.921875 74.21875 44.703125 73.484375 
Q 48.484375 72.75 52.59375 71.296875 
z
" id="DejaVuSans-54"/>
      </defs>
      <g transform="translate(385.559067 399.078438)scale(0.1 -0.1)">
       <use xlink:href="#DejaVuSans-54"/>
       <use x="63.623047" xlink:href="#DejaVuSans-48"/>
       <use x="127.246094" xlink:href="#DejaVuSans-48"/>
      </g>
     </g>
    </g>
    <g id="xtick_5">
     <g id="line2d_5">
      <g>
       <use style="stroke:#000000;stroke-width:0.8;" x="480.658302" xlink:href="#meb0e0f1ed6" y="384.48"/>
      </g>
     </g>
     <g id="text_5">
      <!-- 800 -->
      <defs>
       <path d="M 31.78125 34.625 
Q 24.75 34.625 20.71875 30.859375 
Q 16.703125 27.09375 16.703125 20.515625 
Q 16.703125 13.921875 20.71875 10.15625 
Q 24.75 6.390625 31.78125 6.390625 
Q 38.8125 6.390625 42.859375 10.171875 
Q 46.921875 13.96875 46.921875 20.515625 
Q 46.921875 27.09375 42.890625 30.859375 
Q 38.875 34.625 31.78125 34.625 
z
M 21.921875 38.8125 
Q 15.578125 40.375 12.03125 44.71875 
Q 8.5 49.078125 8.5 55.328125 
Q 8.5 64.0625 14.71875 69.140625 
Q 20.953125 74.21875 31.78125 74.21875 
Q 42.671875 74.21875 48.875 69.140625 
Q 55.078125 64.0625 55.078125 55.328125 
Q 55.078125 49.078125 51.53125 44.71875 
Q 48 40.375 41.703125 38.8125 
Q 48.828125 37.15625 52.796875 32.3125 
Q 56.78125 27.484375 56.78125 20.515625 
Q 56.78125 9.90625 50.3125 4.234375 
Q 43.84375 -1.421875 31.78125 -1.421875 
Q 19.734375 -1.421875 13.25 4.234375 
Q 6.78125 9.90625 6.78125 20.515625 
Q 6.78125 27.484375 10.78125 32.3125 
Q 14.796875 37.15625 21.921875 38.8125 
z
M 18.3125 54.390625 
Q 18.3125 48.734375 21.84375 45.5625 
Q 25.390625 42.390625 31.78125 42.390625 
Q 38.140625 42.390625 41.71875 45.5625 
Q 45.3125 48.734375 45.3125 54.390625 
Q 45.3125 60.0625 41.71875 63.234375 
Q 38.140625 66.40625 31.78125 66.40625 
Q 25.390625 66.40625 21.84375 63.234375 
Q 18.3125 60.0625 18.3125 54.390625 
z
" id="DejaVuSans-56"/>
      </defs>
      <g transform="translate(471.114552 399.078438)scale(0.1 -0.1)">
       <use xlink:href="#DejaVuSans-56"/>
       <use x="63.623047" xlink:href="#DejaVuSans-48"/>
       <use x="127.246094" xlink:href="#DejaVuSans-48"/>
      </g>
     </g>
    </g>
    <g id="xtick_6">
     <g id="line2d_6">
      <g>
       <use style="stroke:#000000;stroke-width:0.8;" x="566.213786" xlink:href="#meb0e0f1ed6" y="384.48"/>
      </g>
     </g>
     <g id="text_6">
      <!-- 1000 -->
      <defs>
       <path d="M 12.40625 8.296875 
L 28.515625 8.296875 
L 28.515625 63.921875 
L 10.984375 60.40625 
L 10.984375 69.390625 
L 28.421875 72.90625 
L 38.28125 72.90625 
L 38.28125 8.296875 
L 54.390625 8.296875 
L 54.390625 0 
L 12.40625 0 
z
" id="DejaVuSans-49"/>
      </defs>
      <g transform="translate(553.488786 399.078438)scale(0.1 -0.1)">
       <use xlink:href="#DejaVuSans-49"/>
       <use x="63.623047" xlink:href="#DejaVuSans-48"/>
       <use x="127.246094" xlink:href="#DejaVuSans-48"/>
       <use x="190.869141" xlink:href="#DejaVuSans-48"/>
      </g>
     </g>
    </g>
    <g id="xtick_7">
     <g id="line2d_7">
      <g>
       <use style="stroke:#000000;stroke-width:0.8;" x="651.769271" xlink:href="#meb0e0f1ed6" y="384.48"/>
      </g>
     </g>
     <g id="text_7">
      <!-- 1200 -->
      <g transform="translate(639.044271 399.078438)scale(0.1 -0.1)">
       <use xlink:href="#DejaVuSans-49"/>
       <use x="63.623047" xlink:href="#DejaVuSans-50"/>
       <use x="127.246094" xlink:href="#DejaVuSans-48"/>
       <use x="190.869141" xlink:href="#DejaVuSans-48"/>
      </g>
     </g>
    </g>
    <g id="xtick_8">
     <g id="line2d_8">
      <g>
       <use style="stroke:#000000;stroke-width:0.8;" x="737.324756" xlink:href="#meb0e0f1ed6" y="384.48"/>
      </g>
     </g>
     <g id="text_8">
      <!-- 1400 -->
      <g transform="translate(724.599756 399.078438)scale(0.1 -0.1)">
       <use xlink:href="#DejaVuSans-49"/>
       <use x="63.623047" xlink:href="#DejaVuSans-52"/>
       <use x="127.246094" xlink:href="#DejaVuSans-48"/>
       <use x="190.869141" xlink:href="#DejaVuSans-48"/>
      </g>
     </g>
    </g>
    <g id="text_9">
     <!-- Timestamp -->
     <defs>
      <path d="M -0.296875 72.90625 
L 61.375 72.90625 
L 61.375 64.59375 
L 35.5 64.59375 
L 35.5 0 
L 25.59375 0 
L 25.59375 64.59375 
L -0.296875 64.59375 
z
" id="DejaVuSans-84"/>
      <path d="M 9.421875 54.6875 
L 18.40625 54.6875 
L 18.40625 0 
L 9.421875 0 
z
M 9.421875 75.984375 
L 18.40625 75.984375 
L 18.40625 64.59375 
L 9.421875 64.59375 
z
" id="DejaVuSans-105"/>
      <path d="M 52 44.1875 
Q 55.375 50.25 60.0625 53.125 
Q 64.75 56 71.09375 56 
Q 79.640625 56 84.28125 50.015625 
Q 88.921875 44.046875 88.921875 33.015625 
L 88.921875 0 
L 79.890625 0 
L 79.890625 32.71875 
Q 79.890625 40.578125 77.09375 44.375 
Q 74.3125 48.1875 68.609375 48.1875 
Q 61.625 48.1875 57.5625 43.546875 
Q 53.515625 38.921875 53.515625 30.90625 
L 53.515625 0 
L 44.484375 0 
L 44.484375 32.71875 
Q 44.484375 40.625 41.703125 44.40625 
Q 38.921875 48.1875 33.109375 48.1875 
Q 26.21875 48.1875 22.15625 43.53125 
Q 18.109375 38.875 18.109375 30.90625 
L 18.109375 0 
L 9.078125 0 
L 9.078125 54.6875 
L 18.109375 54.6875 
L 18.109375 46.1875 
Q 21.1875 51.21875 25.484375 53.609375 
Q 29.78125 56 35.6875 56 
Q 41.65625 56 45.828125 52.96875 
Q 50 49.953125 52 44.1875 
z
" id="DejaVuSans-109"/>
      <path d="M 56.203125 29.59375 
L 56.203125 25.203125 
L 14.890625 25.203125 
Q 15.484375 15.921875 20.484375 11.0625 
Q 25.484375 6.203125 34.421875 6.203125 
Q 39.59375 6.203125 44.453125 7.46875 
Q 49.3125 8.734375 54.109375 11.28125 
L 54.109375 2.78125 
Q 49.265625 0.734375 44.1875 -0.34375 
Q 39.109375 -1.421875 33.890625 -1.421875 
Q 20.796875 -1.421875 13.15625 6.1875 
Q 5.515625 13.8125 5.515625 26.8125 
Q 5.515625 40.234375 12.765625 48.109375 
Q 20.015625 56 32.328125 56 
Q 43.359375 56 49.78125 48.890625 
Q 56.203125 41.796875 56.203125 29.59375 
z
M 47.21875 32.234375 
Q 47.125 39.59375 43.09375 43.984375 
Q 39.0625 48.390625 32.421875 48.390625 
Q 24.90625 48.390625 20.390625 44.140625 
Q 15.875 39.890625 15.1875 32.171875 
z
" id="DejaVuSans-101"/>
      <path d="M 44.28125 53.078125 
L 44.28125 44.578125 
Q 40.484375 46.53125 36.375 47.5 
Q 32.28125 48.484375 27.875 48.484375 
Q 21.1875 48.484375 17.84375 46.4375 
Q 14.5 44.390625 14.5 40.28125 
Q 14.5 37.15625 16.890625 35.375 
Q 19.28125 33.59375 26.515625 31.984375 
L 29.59375 31.296875 
Q 39.15625 29.25 43.1875 25.515625 
Q 47.21875 21.78125 47.21875 15.09375 
Q 47.21875 7.46875 41.1875 3.015625 
Q 35.15625 -1.421875 24.609375 -1.421875 
Q 20.21875 -1.421875 15.453125 -0.5625 
Q 10.6875 0.296875 5.421875 2 
L 5.421875 11.28125 
Q 10.40625 8.6875 15.234375 7.390625 
Q 20.0625 6.109375 24.8125 6.109375 
Q 31.15625 6.109375 34.5625 8.28125 
Q 37.984375 10.453125 37.984375 14.40625 
Q 37.984375 18.0625 35.515625 20.015625 
Q 33.0625 21.96875 24.703125 23.78125 
L 21.578125 24.515625 
Q 13.234375 26.265625 9.515625 29.90625 
Q 5.8125 33.546875 5.8125 39.890625 
Q 5.8125 47.609375 11.28125 51.796875 
Q 16.75 56 26.8125 56 
Q 31.78125 56 36.171875 55.265625 
Q 40.578125 54.546875 44.28125 53.078125 
z
" id="DejaVuSans-115"/>
      <path d="M 18.3125 70.21875 
L 18.3125 54.6875 
L 36.8125 54.6875 
L 36.8125 47.703125 
L 18.3125 47.703125 
L 18.3125 18.015625 
Q 18.3125 11.328125 20.140625 9.421875 
Q 21.96875 7.515625 27.59375 7.515625 
L 36.8125 7.515625 
L 36.8125 0 
L 27.59375 0 
Q 17.1875 0 13.234375 3.875 
Q 9.28125 7.765625 9.28125 18.015625 
L 9.28125 47.703125 
L 2.6875 47.703125 
L 2.6875 54.6875 
L 9.28125 54.6875 
L 9.28125 70.21875 
z
" id="DejaVuSans-116"/>
      <path d="M 34.28125 27.484375 
Q 23.390625 27.484375 19.1875 25 
Q 14.984375 22.515625 14.984375 16.5 
Q 14.984375 11.71875 18.140625 8.90625 
Q 21.296875 6.109375 26.703125 6.109375 
Q 34.1875 6.109375 38.703125 11.40625 
Q 43.21875 16.703125 43.21875 25.484375 
L 43.21875 27.484375 
z
M 52.203125 31.203125 
L 52.203125 0 
L 43.21875 0 
L 43.21875 8.296875 
Q 40.140625 3.328125 35.546875 0.953125 
Q 30.953125 -1.421875 24.3125 -1.421875 
Q 15.921875 -1.421875 10.953125 3.296875 
Q 6 8.015625 6 15.921875 
Q 6 25.140625 12.171875 29.828125 
Q 18.359375 34.515625 30.609375 34.515625 
L 43.21875 34.515625 
L 43.21875 35.40625 
Q 43.21875 41.609375 39.140625 45 
Q 35.0625 48.390625 27.6875 48.390625 
Q 23 48.390625 18.546875 47.265625 
Q 14.109375 46.140625 10.015625 43.890625 
L 10.015625 52.203125 
Q 14.9375 54.109375 19.578125 55.046875 
Q 24.21875 56 28.609375 56 
Q 40.484375 56 46.34375 49.84375 
Q 52.203125 43.703125 52.203125 31.203125 
z
" id="DejaVuSans-97"/>
      <path d="M 18.109375 8.203125 
L 18.109375 -20.796875 
L 9.078125 -20.796875 
L 9.078125 54.6875 
L 18.109375 54.6875 
L 18.109375 46.390625 
Q 20.953125 51.265625 25.265625 53.625 
Q 29.59375 56 35.59375 56 
Q 45.5625 56 51.78125 48.09375 
Q 58.015625 40.1875 58.015625 27.296875 
Q 58.015625 14.40625 51.78125 6.484375 
Q 45.5625 -1.421875 35.59375 -1.421875 
Q 29.59375 -1.421875 25.265625 0.953125 
Q 20.953125 3.328125 18.109375 8.203125 
z
M 48.6875 27.296875 
Q 48.6875 37.203125 44.609375 42.84375 
Q 40.53125 48.484375 33.40625 48.484375 
Q 26.265625 48.484375 22.1875 42.84375 
Q 18.109375 37.203125 18.109375 27.296875 
Q 18.109375 17.390625 22.1875 11.75 
Q 26.265625 6.109375 33.40625 6.109375 
Q 40.53125 6.109375 44.609375 11.75 
Q 48.6875 17.390625 48.6875 27.296875 
z
" id="DejaVuSans-112"/>
     </defs>
     <g transform="translate(414.739062 412.756563)scale(0.1 -0.1)">
      <use xlink:href="#DejaVuSans-84"/>
      <use x="61.037109" xlink:href="#DejaVuSans-105"/>
      <use x="88.820312" xlink:href="#DejaVuSans-109"/>
      <use x="186.232422" xlink:href="#DejaVuSans-101"/>
      <use x="247.755859" xlink:href="#DejaVuSans-115"/>
      <use x="299.855469" xlink:href="#DejaVuSans-116"/>
      <use x="339.064453" xlink:href="#DejaVuSans-97"/>
      <use x="400.34375" xlink:href="#DejaVuSans-109"/>
      <use x="497.755859" xlink:href="#DejaVuSans-112"/>
     </g>
    </g>
   </g>
   <g id="matplotlib.axis_2">
    <g id="ytick_1">
     <g id="line2d_9">
      <defs>
       <path d="M 0 0 
L -3.5 0 
" id="m637b186b57" style="stroke:#000000;stroke-width:0.8;"/>
      </defs>
      <g>
       <use style="stroke:#000000;stroke-width:0.8;" x="108" xlink:href="#m637b186b57" y="369.385944"/>
      </g>
     </g>
     <g id="text_10">
      <!-- 0 -->
      <g transform="translate(94.6375 373.185162)scale(0.1 -0.1)">
       <use xlink:href="#DejaVuSans-48"/>
      </g>
     </g>
    </g>
    <g id="ytick_2">
     <g id="line2d_10">
      <g>
       <use style="stroke:#000000;stroke-width:0.8;" x="108" xlink:href="#m637b186b57" y="304.526644"/>
      </g>
     </g>
     <g id="text_11">
      <!-- 5000 -->
      <defs>
       <path d="M 10.796875 72.90625 
L 49.515625 72.90625 
L 49.515625 64.59375 
L 19.828125 64.59375 
L 19.828125 46.734375 
Q 21.96875 47.46875 24.109375 47.828125 
Q 26.265625 48.1875 28.421875 48.1875 
Q 40.625 48.1875 47.75 41.5 
Q 54.890625 34.8125 54.890625 23.390625 
Q 54.890625 11.625 47.5625 5.09375 
Q 40.234375 -1.421875 26.90625 -1.421875 
Q 22.3125 -1.421875 17.546875 -0.640625 
Q 12.796875 0.140625 7.71875 1.703125 
L 7.71875 11.625 
Q 12.109375 9.234375 16.796875 8.0625 
Q 21.484375 6.890625 26.703125 6.890625 
Q 35.15625 6.890625 40.078125 11.328125 
Q 45.015625 15.765625 45.015625 23.390625 
Q 45.015625 31 40.078125 35.4375 
Q 35.15625 39.890625 26.703125 39.890625 
Q 22.75 39.890625 18.8125 39.015625 
Q 14.890625 38.140625 10.796875 36.28125 
z
" id="DejaVuSans-53"/>
      </defs>
      <g transform="translate(75.55 308.325863)scale(0.1 -0.1)">
       <use xlink:href="#DejaVuSans-53"/>
       <use x="63.623047" xlink:href="#DejaVuSans-48"/>
       <use x="127.246094" xlink:href="#DejaVuSans-48"/>
       <use x="190.869141" xlink:href="#DejaVuSans-48"/>
      </g>
     </g>
    </g>
    <g id="ytick_3">
     <g id="line2d_11">
      <g>
       <use style="stroke:#000000;stroke-width:0.8;" x="108" xlink:href="#m637b186b57" y="239.667344"/>
      </g>
     </g>
     <g id="text_12">
      <!-- 10000 -->
      <g transform="translate(69.1875 243.466563)scale(0.1 -0.1)">
       <use xlink:href="#DejaVuSans-49"/>
       <use x="63.623047" xlink:href="#DejaVuSans-48"/>
       <use x="127.246094" xlink:href="#DejaVuSans-48"/>
       <use x="190.869141" xlink:href="#DejaVuSans-48"/>
       <use x="254.492188" xlink:href="#DejaVuSans-48"/>
      </g>
     </g>
    </g>
    <g id="ytick_4">
     <g id="line2d_12">
      <g>
       <use style="stroke:#000000;stroke-width:0.8;" x="108" xlink:href="#m637b186b57" y="174.808044"/>
      </g>
     </g>
     <g id="text_13">
      <!-- 15000 -->
      <g transform="translate(69.1875 178.607263)scale(0.1 -0.1)">
       <use xlink:href="#DejaVuSans-49"/>
       <use x="63.623047" xlink:href="#DejaVuSans-53"/>
       <use x="127.246094" xlink:href="#DejaVuSans-48"/>
       <use x="190.869141" xlink:href="#DejaVuSans-48"/>
       <use x="254.492188" xlink:href="#DejaVuSans-48"/>
      </g>
     </g>
    </g>
    <g id="ytick_5">
     <g id="line2d_13">
      <g>
       <use style="stroke:#000000;stroke-width:0.8;" x="108" xlink:href="#m637b186b57" y="109.948744"/>
      </g>
     </g>
     <g id="text_14">
      <!-- 20000 -->
      <g transform="translate(69.1875 113.747963)scale(0.1 -0.1)">
       <use xlink:href="#DejaVuSans-50"/>
       <use x="63.623047" xlink:href="#DejaVuSans-48"/>
       <use x="127.246094" xlink:href="#DejaVuSans-48"/>
       <use x="190.869141" xlink:href="#DejaVuSans-48"/>
       <use x="254.492188" xlink:href="#DejaVuSans-48"/>
      </g>
     </g>
    </g>
    <g id="text_15">
     <!-- Value -->
     <defs>
      <path d="M 28.609375 0 
L 0.78125 72.90625 
L 11.078125 72.90625 
L 34.1875 11.53125 
L 57.328125 72.90625 
L 67.578125 72.90625 
L 39.796875 0 
z
" id="DejaVuSans-86"/>
      <path d="M 9.421875 75.984375 
L 18.40625 75.984375 
L 18.40625 0 
L 9.421875 0 
z
" id="DejaVuSans-108"/>
      <path d="M 8.5 21.578125 
L 8.5 54.6875 
L 17.484375 54.6875 
L 17.484375 21.921875 
Q 17.484375 14.15625 20.5 10.265625 
Q 23.53125 6.390625 29.59375 6.390625 
Q 36.859375 6.390625 41.078125 11.03125 
Q 45.3125 15.671875 45.3125 23.6875 
L 45.3125 54.6875 
L 54.296875 54.6875 
L 54.296875 0 
L 45.3125 0 
L 45.3125 8.40625 
Q 42.046875 3.421875 37.71875 1 
Q 33.40625 -1.421875 27.6875 -1.421875 
Q 18.265625 -1.421875 13.375 4.4375 
Q 8.5 10.296875 8.5 21.578125 
z
M 31.109375 56 
z
" id="DejaVuSans-117"/>
     </defs>
     <g transform="translate(63.107813 232.273281)rotate(-90)scale(0.1 -0.1)">
      <use xlink:href="#DejaVuSans-86"/>
      <use x="68.298828" xlink:href="#DejaVuSans-97"/>
      <use x="129.578125" xlink:href="#DejaVuSans-108"/>
      <use x="157.361328" xlink:href="#DejaVuSans-117"/>
      <use x="220.740234" xlink:href="#DejaVuSans-101"/>
     </g>
    </g>
   </g>
   <g id="line2d_14">
    <path clip-path="url(#p7e15ef6c23)" d="M 138.436364 369.36 
L 138.864141 363.756156 
L 139.719696 366.7786 
L 140.147473 366.519163 
L 140.575251 363.872903 
L 141.858583 353.326781 
L 142.28636 352.250117 
L 142.714138 349.149842 
L 143.141915 349.435223 
L 143.569693 354.351558 
L 143.99747 356.686493 
L 144.425248 349.577914 
L 144.853025 354.234811 
L 145.280802 353.664049 
L 145.70858 352.353892 
L 146.136357 352.730075 
L 146.991912 357.257255 
L 147.41969 353.832684 
L 149.130799 364.612299 
L 149.558577 366.622938 
L 149.986354 367.284502 
L 150.414131 366.817515 
L 150.841909 364.832821 
L 151.697464 358.800906 
L 152.553019 353.24895 
L 152.980796 351.938792 
L 153.408573 353.184091 
L 153.836351 353.015456 
L 154.264128 353.417584 
L 154.691906 354.494248 
L 155.547461 355.998984 
L 155.975238 355.765491 
L 156.403015 353.287865 
L 156.830793 354.57208 
L 157.25857 354.182924 
L 157.686348 355.908181 
L 158.541903 361.239616 
L 158.96968 363.98965 
L 159.397457 365.831654 
L 159.825235 366.895347 
L 160.253012 367.375305 
L 160.68079 366.480247 
L 161.536344 359.94243 
L 161.964122 351.731242 
L 162.391899 347.800769 
L 162.819677 349.110927 
L 163.247454 347.969403 
L 163.675232 350.60269 
L 164.103009 347.152176 
L 165.814119 355.376335 
L 166.241896 349.577914 
L 166.669674 352.561441 
L 167.097451 353.664049 
L 167.525228 354.403445 
L 167.953006 354.15698 
L 168.808561 361.006122 
L 169.236338 364.067481 
L 169.664116 366.104063 
L 170.091893 367.063981 
L 170.51967 367.582855 
L 170.947448 366.389444 
L 171.375225 363.7821 
L 171.803003 360.201867 
L 172.23078 354.636939 
L 172.658557 352.989513 
L 173.086335 352.626301 
L 173.514112 350.771325 
L 173.94189 352.509554 
L 174.369667 355.000151 
L 174.797445 352.48361 
L 175.225222 353.235978 
L 175.652999 357.114564 
L 176.080777 356.543802 
L 176.508554 353.832684 
L 176.936332 354.390474 
L 177.364109 355.311476 
L 177.791887 354.040233 
L 178.647441 357.399945 
L 179.075219 361.304475 
L 179.930774 366.000288 
L 180.358551 366.98615 
L 180.786328 367.440165 
L 181.214106 366.545106 
L 181.641883 363.405916 
L 182.069661 359.073315 
L 182.497438 351.744214 
L 182.925216 350.472972 
L 183.352993 350.382169 
L 183.78077 354.040233 
L 184.208548 350.862128 
L 184.636325 351.731242 
L 185.064103 353.326781 
L 185.49188 353.845655 
L 185.919658 352.470638 
L 186.347435 353.677021 
L 186.775212 353.197062 
L 187.20299 353.417584 
L 187.630767 353.845655 
L 188.058545 351.873933 
L 188.486322 353.482443 
L 188.9141 357.724242 
L 189.769654 362.887042 
L 190.197432 365.637076 
L 190.625209 366.934262 
L 191.052987 367.401249 
L 191.480764 366.026232 
L 191.908541 363.483747 
L 192.336319 359.73488 
L 192.764096 354.598023 
L 193.191874 352.016623 
L 193.619651 351.835017 
L 194.047429 352.34092 
L 194.475206 352.34092 
L 194.902983 355.27256 
L 195.330761 354.416417 
L 195.758538 355.350391 
L 196.186316 355.389307 
L 196.614093 354.636939 
L 197.041871 354.182924 
L 197.897425 355.363363 
L 198.325203 355.843322 
L 198.75298 354.195896 
L 199.180758 356.102759 
L 200.036313 362.355196 
L 200.891867 366.052176 
L 201.319645 367.076953 
L 201.747422 367.193699 
L 202.1752 365.624104 
L 203.886309 353.080316 
L 204.314087 351.510721 
L 204.741864 353.326781 
L 206.025196 356.919986 
L 206.452974 359.423555 
L 206.880751 357.685326 
L 207.308529 354.792601 
L 208.164084 359.151146 
L 208.591861 359.708936 
L 209.019638 358.852793 
L 209.447416 358.710103 
L 209.875193 360.616966 
L 210.302971 363.63941 
L 210.730748 365.170089 
L 211.586303 367.323418 
L 212.01408 366.804544 
L 212.441858 365.403583 
L 213.297413 359.008456 
L 213.72519 355.817378 
L 214.580745 352.159314 
L 215.008522 353.4565 
L 215.4363 354.273727 
L 215.864077 352.989513 
L 216.291855 356.219506 
L 216.719632 356.284365 
L 217.575187 355.194729 
L 218.002964 354.273727 
L 218.858519 358.528497 
L 219.286297 356.764324 
L 219.714074 358.230144 
L 220.141851 362.030899 
L 221.425184 366.687797 
L 221.852961 367.388277 
L 222.280739 367.33639 
L 222.708516 365.948401 
L 223.136293 363.379973 
L 223.564071 359.916486 
L 223.991848 357.983679 
L 224.419626 354.416417 
L 225.27518 349.603857 
L 226.130735 355.090954 
L 226.558513 351.977708 
L 226.98629 351.342086 
L 227.414068 352.081482 
L 227.841845 353.94943 
L 228.269622 353.223006 
L 228.6974 352.950597 
L 229.125177 351.173452 
L 229.552955 353.210034 
L 230.836287 363.43186 
L 231.691842 367.375305 
L 232.119619 367.076953 
L 232.547397 365.650048 
L 232.975174 363.133507 
L 233.402952 358.230144 
L 233.830729 351.744214 
L 234.258506 347.722938 
L 234.686284 347.398641 
L 235.969616 351.847989 
L 236.825171 353.754852 
L 237.252948 351.056706 
L 237.680726 352.172286 
L 238.108503 356.310309 
L 238.536281 353.819712 
L 238.964058 354.195896 
L 239.391835 353.145175 
L 239.819613 353.80674 
L 241.102945 363.7821 
L 241.530723 365.844626 
L 241.9585 366.999121 
L 242.386277 367.089925 
L 242.814055 366.480247 
L 243.66961 360.318614 
L 244.097387 356.764324 
L 244.525165 350.031929 
L 244.952942 350.732409 
L 245.380719 350.031929 
L 245.808497 351.147509 
L 246.236274 350.978874 
L 246.664052 354.053205 
L 247.091829 349.305504 
L 247.519606 348.43639 
L 247.947384 352.185257 
L 248.375161 349.824379 
L 248.802939 352.172286 
L 249.230716 353.093288 
L 249.658494 352.081482 
L 250.086271 353.664049 
L 251.369603 363.795072 
L 251.797381 365.87057 
L 252.225158 366.843459 
L 252.652936 366.843459 
L 253.080713 366.415388 
L 253.936268 359.747852 
L 254.364045 354.766658 
L 254.791823 352.548469 
L 255.2196 354.701798 
L 255.647377 351.601524 
L 256.075155 351.510721 
L 256.502932 351.01779 
L 256.93071 351.640439 
L 257.358487 349.90221 
L 257.786265 351.445861 
L 258.214042 352.509554 
L 258.641819 349.55197 
L 259.069597 349.668717 
L 259.497374 353.352725 
L 259.925152 350.836184 
L 260.352929 350.888071 
L 261.208484 360.149979 
L 262.064039 365.585189 
L 262.491816 366.687797 
L 262.919594 366.856431 
L 263.347371 365.779767 
L 263.775149 362.770295 
L 264.630703 351.316143 
L 265.058481 350.862128 
L 265.486258 348.695827 
L 265.914036 348.942292 
L 266.76959 351.692327 
L 267.197368 352.34092 
L 267.625145 355.000151 
L 268.052923 349.824379 
L 268.908478 351.432889 
L 269.336255 351.121565 
L 269.764032 350.10976 
L 270.19181 349.383336 
L 270.619587 351.134537 
L 272.330697 365.520329 
L 272.758474 366.830487 
L 273.186252 366.856431 
L 273.614029 365.624104 
L 274.469584 359.190062 
L 274.897362 354.92232 
L 275.325139 352.198229 
L 275.752916 353.210034 
L 276.180694 352.34092 
L 276.608471 354.144008 
L 277.036249 354.416417 
L 277.464026 354.351558 
L 277.891803 354.57208 
L 278.319581 352.859794 
L 278.747358 353.287865 
L 279.175136 350.382169 
L 279.602913 353.573246 
L 280.030691 355.531997 
L 280.458468 352.963569 
L 280.886245 353.4565 
L 281.314023 356.297337 
L 281.7418 360.08512 
L 282.169578 362.342224 
L 282.597355 365.377639 
L 283.025133 366.648881 
L 283.45291 367.089925 
L 283.880687 366.869403 
L 284.308465 364.75499 
L 285.591797 356.128703 
L 286.019575 353.988346 
L 286.447352 354.36453 
L 286.875129 352.613329 
L 287.302907 355.544969 
L 288.158462 353.482443 
L 288.586239 354.247783 
L 289.014016 355.519025 
L 289.441794 353.962402 
L 289.869571 356.063844 
L 290.297349 355.895209 
L 290.725126 355.181757 
L 291.152904 356.18059 
L 291.580681 359.021428 
L 292.008458 361.05801 
L 292.436236 362.238449 
L 292.864013 365.637076 
L 293.291791 366.194866 
L 293.719568 367.284502 
L 294.147346 367.492052 
L 294.575123 365.883542 
L 295.430678 359.579218 
L 295.858455 355.467138 
L 296.286233 353.002485 
L 296.71401 349.590885 
L 297.141788 344.791297 
L 297.569565 347.191091 
L 297.997342 352.029595 
L 298.42512 353.495415 
L 298.852897 351.938792 
L 299.280675 349.629801 
L 299.708452 348.99418 
L 300.136229 351.121565 
L 300.564007 350.66755 
L 300.991784 353.197062 
L 301.419562 354.299671 
L 301.847339 357.205367 
L 302.275117 361.576884 
L 302.702894 364.508524 
L 303.130671 366.545106 
L 303.558449 366.98615 
L 303.986226 367.595827 
L 304.414004 365.883542 
L 304.841781 363.496719 
L 305.269559 359.955402 
L 305.697336 354.001318 
L 306.125113 352.405779 
L 306.552891 352.470638 
L 306.980668 351.22534 
L 307.408446 351.627467 
L 307.836223 352.781963 
L 308.264001 354.675854 
L 308.691778 354.131036 
L 309.119555 355.207701 
L 309.547333 356.829183 
L 309.97511 356.80324 
L 310.402888 356.414084 
L 310.830665 357.036733 
L 311.258442 358.307975 
L 311.68622 359.164118 
L 312.113997 366.052176 
L 312.541775 369.15245 
L 312.969552 365.144146 
L 313.39733 367.038037 
L 314.252884 368.062814 
L 314.680662 367.803377 
L 315.108439 366.233782 
L 316.391772 358.333919 
L 316.819549 356.336253 
L 317.247326 356.673521 
L 317.675104 357.698298 
L 318.102881 357.542636 
L 318.530659 357.594523 
L 318.958436 357.931791 
L 319.386214 357.231311 
L 319.813991 358.035566 
L 320.241768 359.241949 
L 320.669546 359.410583 
L 321.097323 358.307975 
L 321.525101 359.514358 
L 321.952878 358.437694 
L 323.23621 365.507358 
L 323.663988 367.362334 
L 324.091765 367.712574 
L 324.519543 367.790405 
L 324.94732 367.180728 
L 325.375097 365.896513 
L 325.802875 363.43186 
L 326.230652 359.423555 
L 326.65843 358.320947 
L 327.086207 357.568579 
L 327.513985 356.440027 
L 327.941762 356.53083 
L 328.797317 357.386973 
L 329.225094 355.882237 
L 329.652872 356.932958 
L 330.080649 356.452999 
L 330.508426 357.685326 
L 330.936204 357.257255 
L 331.363981 358.256088 
L 331.791759 357.166452 
L 332.647314 359.501386 
L 333.502868 364.923624 
L 334.358423 367.946067 
L 334.786201 367.673658 
L 335.213978 366.661853 
L 335.641756 365.31278 
L 336.069533 362.757323 
L 336.49731 358.567412 
L 336.925088 355.68766 
L 337.352865 354.325614 
L 337.780643 355.233644 
L 338.20842 355.519025 
L 338.636198 357.023761 
L 339.063975 356.984846 
L 339.491752 355.791434 
L 339.91953 356.258421 
L 340.347307 356.154647 
L 340.775085 358.165285 
L 342.058417 355.363363 
L 342.486194 358.658216 
L 342.913972 359.94243 
L 344.197304 365.948401 
L 344.625081 367.556911 
L 345.052859 367.54394 
L 345.480636 367.025065 
L 346.336191 362.575717 
L 347.191746 354.001318 
L 347.619523 353.677021 
L 348.047301 354.351558 
L 348.475078 353.313809 
L 348.902856 355.246616 
L 349.758411 354.36453 
L 350.186188 353.002485 
L 350.613965 352.626301 
L 351.041743 352.003651 
L 351.46952 355.83035 
L 351.897298 355.635772 
L 352.325075 354.688826 
L 352.752852 356.271393 
L 353.18063 357.127536 
L 354.463962 365.66302 
L 354.89174 366.713741 
L 355.319517 367.453137 
L 355.747294 366.856431 
L 356.175072 365.027399 
L 357.030627 360.448332 
L 357.458404 355.998984 
L 358.313959 354.169952 
L 358.741736 354.286699 
L 359.169514 355.869266 
L 359.597291 356.102759 
L 360.025069 357.516692 
L 360.880624 357.763157 
L 361.308401 356.569746 
L 361.736178 358.385806 
L 362.163956 358.502553 
L 362.591733 357.205367 
L 363.019511 356.829183 
L 364.73062 365.624104 
L 365.158398 367.038037 
L 365.586175 367.569883 
L 366.013953 367.323418 
L 366.44173 365.766795 
L 367.297285 362.095758 
L 367.725062 357.918819 
L 368.15284 355.06501 
L 369.008395 351.679355 
L 369.436172 353.547303 
L 369.863949 354.079149 
L 370.291727 353.780796 
L 371.147282 356.115731 
L 371.575059 354.818545 
L 372.002837 354.195896 
L 372.430614 354.195896 
L 372.858391 353.793768 
L 373.286169 355.285532 
L 374.997278 366.155951 
L 375.425056 367.323418 
L 375.852833 367.193699 
L 376.280611 366.117035 
L 376.708388 363.911819 
L 377.136166 359.929458 
L 377.563943 353.858627 
L 377.99172 350.291366 
L 378.419498 351.406946 
L 378.847275 348.592052 
L 379.275053 351.22534 
L 379.70283 352.535498 
L 380.130608 351.471805 
L 380.558385 353.728909 
L 380.986162 352.613329 
L 381.41394 350.706465 
L 381.841717 349.668717 
L 382.269495 350.265422 
L 382.697272 352.172286 
L 383.12505 350.719437 
L 383.552827 352.613329 
L 383.980604 357.335086 
L 385.263937 365.909485 
L 385.691714 367.051009 
L 386.119491 367.115868 
L 386.547269 366.700769 
L 386.975046 363.976678 
L 387.402824 360.526163 
L 387.830601 355.817378 
L 388.258379 352.756019 
L 388.686156 351.951764 
L 389.113933 350.187591 
L 389.541711 351.264255 
L 389.969488 351.238312 
L 390.397266 352.237145 
L 390.825043 351.419918 
L 391.252821 349.915182 
L 391.680598 350.952931 
L 392.108375 348.125065 
L 392.536153 351.71827 
L 392.96393 352.937625 
L 393.391708 350.070844 
L 393.819485 351.069677 
L 394.67504 359.864598 
L 395.530595 365.390611 
L 395.958372 366.999121 
L 396.38615 367.206671 
L 396.813927 366.441332 
L 397.669482 359.838655 
L 398.097259 353.871599 
L 398.525037 350.421084 
L 398.952814 350.421084 
L 399.380592 349.214701 
L 399.808369 348.64394 
L 400.236146 349.577914 
L 400.663924 349.850323 
L 401.091701 351.004818 
L 401.519479 348.682855 
L 402.375034 348.605024 
L 402.802811 349.396307 
L 403.230588 349.837351 
L 403.658366 348.060206 
L 404.086143 350.226507 
L 405.369475 362.368167 
L 405.797253 365.520329 
L 406.22503 366.7786 
L 406.652808 366.869403 
L 407.080585 365.533301 
L 407.93614 359.605161 
L 408.363917 353.495415 
L 408.791695 349.655745 
L 409.219472 347.748881 
L 409.64725 346.698161 
L 410.075027 346.76302 
L 410.502805 346.711132 
L 410.930582 347.930487 
L 411.358359 348.008318 
L 411.786137 349.69466 
L 412.213914 348.306671 
L 412.641692 350.226507 
L 413.069469 349.681688 
L 413.497247 348.099121 
L 413.925024 347.11326 
L 414.352801 349.149842 
L 415.636134 362.796239 
L 416.063911 364.89768 
L 416.491688 366.389444 
L 416.919466 367.167756 
L 417.347243 366.01326 
L 417.775021 363.263226 
L 418.630576 353.988346 
L 419.058353 348.656911 
L 419.48613 349.357392 
L 419.913908 348.695827 
L 420.341685 349.564942 
L 420.769463 348.592052 
L 421.625018 351.043734 
L 422.052795 348.514221 
L 422.480572 349.967069 
L 422.90835 349.69466 
L 423.336127 353.24895 
L 423.763905 351.744214 
L 424.191682 351.238312 
L 424.61946 352.496582 
L 425.047237 354.935292 
L 425.902792 361.771462 
L 426.330569 364.780933 
L 426.758347 366.104063 
L 427.186124 366.57105 
L 427.613901 366.584022 
L 428.041679 364.793905 
L 429.325011 355.635772 
L 429.752789 353.365697 
L 430.608343 350.706465 
L 431.036121 352.768991 
L 431.463898 352.13337 
L 431.891676 350.888071 
L 432.319453 352.003651 
L 433.175008 352.081482 
L 433.602785 352.678188 
L 434.030563 352.600357 
L 434.45834 352.652244 
L 434.886118 353.832684 
L 435.313895 356.284365 
L 435.741673 359.618133 
L 437.025005 366.207838 
L 437.452782 367.310446 
L 437.88056 366.467275 
L 438.308337 365.87057 
L 439.163892 357.555607 
L 439.591669 352.185257 
L 440.019447 349.889238 
L 440.447224 345.478806 
L 440.875002 342.365559 
L 441.730556 347.554303 
L 442.158334 347.956431 
L 442.586111 344.765353 
L 443.441666 347.709966 
L 443.869444 346.853823 
L 444.297221 345.634468 
L 444.724998 348.073178 
L 445.152776 349.292533 
L 446.008331 359.514358 
L 446.436108 362.977845 
L 446.863886 365.45547 
L 447.71944 366.817515 
L 448.147218 365.675992 
L 448.574995 362.757323 
L 449.43055 352.042567 
L 449.858327 344.817241 
L 450.286105 343.027124 
L 450.713882 342.521222 
L 451.14166 344.544832 
L 451.569437 344.311338 
L 451.997215 344.259451 
L 452.424992 345.829046 
L 452.852769 345.634468 
L 453.280547 345.582581 
L 453.708324 345.660412 
L 454.136102 346.231174 
L 454.563879 343.610858 
L 454.991657 343.779492 
L 455.847211 351.043734 
L 456.274989 358.684159 
L 456.702766 363.133507 
L 457.130544 365.520329 
L 457.558321 366.311613 
L 457.986099 367.388277 
L 458.413876 366.104063 
L 458.841653 363.22431 
L 459.269431 358.956568 
L 459.697208 352.185257 
L 460.124986 347.515388 
L 460.98054 344.570776 
L 461.836095 344.908044 
L 462.263873 346.036596 
L 462.69165 345.764187 
L 463.119428 346.529526 
L 463.547205 345.154509 
L 463.974982 344.830213 
L 464.830537 343.20873 
L 465.258315 344.479973 
L 465.686092 344.921016 
L 466.541647 357.386973 
L 466.969424 362.134674 
L 467.397202 364.923624 
L 467.824979 366.7786 
L 468.252757 366.57105 
L 468.680534 365.909485 
L 469.536089 358.165285 
L 469.963866 351.238312 
L 470.391644 346.34792 
L 470.819421 343.338449 
L 471.247199 342.443391 
L 471.674976 344.32431 
L 472.102753 342.456362 
L 472.530531 344.985875 
L 472.958308 345.919849 
L 473.386086 344.596719 
L 474.241641 346.010652 
L 475.097195 343.662745 
L 475.524973 342.352588 
L 475.95275 348.345587 
L 476.380528 350.408113 
L 476.808305 357.840988 
L 477.236083 361.6158 
L 478.091637 366.467275 
L 478.519415 366.817515 
L 478.947192 365.286836 
L 479.37497 362.368167 
L 479.802747 357.594523 
L 480.658302 345.2972 
L 481.086079 344.804269 
L 481.513857 342.326644 
L 482.369412 343.053068 
L 482.797189 342.793631 
L 483.224966 343.844351 
L 483.652744 342.923349 
L 484.080521 343.922183 
L 484.508299 344.012986 
L 484.936076 343.662745 
L 485.363854 343.55897 
L 485.791631 340.134399 
L 486.219408 345.919849 
L 486.647186 348.942292 
L 487.074963 356.621633 
L 488.358296 365.844626 
L 488.786073 366.039204 
L 489.21385 365.520329 
L 489.641628 362.160618 
L 490.069405 356.932958 
L 490.497183 346.685189 
L 490.92496 341.794798 
L 491.352737 339.991709 
L 491.780515 339.070707 
L 492.63607 334.777021 
L 493.063847 331.41731 
L 493.491625 337.825408 
L 493.919402 336.320673 
L 494.347179 340.795964 
L 494.774957 339.745244 
L 495.202734 343.922183 
L 495.630512 345.478806 
L 496.486067 347.294866 
L 497.341621 356.842155 
L 498.197176 363.626438 
L 498.624954 365.507358 
L 499.052731 366.467275 
L 499.480509 366.415388 
L 499.908286 363.756156 
L 500.763841 355.882237 
L 501.191618 349.69466 
L 501.619396 346.724104 
L 502.047173 344.830213 
L 502.902728 347.761853 
L 503.330505 347.593219 
L 503.758283 348.202896 
L 504.18606 348.43639 
L 504.613838 348.047234 
L 505.041615 348.708799 
L 505.469392 350.485944 
L 505.89717 348.78663 
L 506.324947 348.864461 
L 506.752725 349.90221 
L 507.180502 353.936458 
L 507.60828 356.868099 
L 508.036057 361.356362 
L 508.463834 363.678325 
L 509.319389 366.999121 
L 509.747167 366.674825 
L 510.174944 365.364667 
L 510.602722 361.174756 
L 511.886054 344.18162 
L 512.313831 340.951627 
L 512.741609 335.827742 
L 513.169386 340.458696 
L 513.597163 341.353754 
L 514.024941 340.173315 
L 514.452718 337.332478 
L 514.880496 337.28059 
L 515.308273 338.123761 
L 515.736051 337.150872 
L 516.163828 328.926712 
L 517.019383 336.865491 
L 517.44716 347.735909 
L 517.874938 355.700631 
L 518.302715 360.928291 
L 518.730493 364.275031 
L 519.15827 366.259725 
L 519.586047 366.454303 
L 520.013825 364.884708 
L 520.441602 361.486081 
L 521.297157 345.206397 
L 521.724935 337.060069 
L 522.152712 333.311201 
L 522.580489 333.324173 
L 523.008267 333.220398 
L 523.436044 331.871325 
L 523.863822 332.714496 
L 524.291599 334.984571 
L 524.719376 334.569472 
L 525.574931 338.240508 
L 526.002709 337.306534 
L 526.858264 333.479835 
L 527.286041 339.187454 
L 528.141596 354.312642 
L 528.569373 360.124036 
L 528.997151 363.717241 
L 529.424928 365.572217 
L 529.852706 366.233782 
L 530.280483 365.637076 
L 530.70826 362.445999 
L 531.136038 356.94593 
L 531.563815 347.450528 
L 532.41937 337.008181 
L 532.847148 337.656774 
L 533.274925 335.723967 
L 533.702702 337.111956 
L 534.13048 337.254647 
L 534.558257 336.489307 
L 534.986035 334.569472 
L 535.413812 338.370226 
L 535.841589 335.308868 
L 536.269367 336.281757 
L 536.697144 335.412642 
L 537.124922 335.166177 
L 537.980477 345.08965 
L 538.408254 353.508387 
L 539.263809 363.237282 
L 539.691586 365.66302 
L 540.119364 366.441332 
L 540.547141 365.66302 
L 540.974919 362.601661 
L 541.402696 356.284365 
L 542.258251 340.48464 
L 542.686028 337.371393 
L 543.113806 335.218065 
L 543.541583 334.725134 
L 543.969361 335.892601 
L 544.824915 336.463363 
L 545.252693 337.124928 
L 545.68047 337.371393 
L 546.108248 336.087179 
L 546.536025 336.424447 
L 547.39158 332.078874 
L 547.819357 335.892601 
L 548.247135 346.192258 
L 549.10269 359.540302 
L 549.530467 369.165422 
L 550.386022 365.221977 
L 550.813799 364.936596 
L 551.241577 362.004955 
L 551.669354 356.076815 
L 552.097132 345.323143 
L 552.524909 337.825408 
L 553.380464 333.181482 
L 553.808241 332.88313 
L 554.236019 333.44092 
L 555.091574 335.957461 
L 555.519351 334.504612 
L 555.947128 334.426781 
L 556.374906 335.698023 
L 556.802683 333.168511 
L 557.230461 328.226232 
L 557.658238 330.44442 
L 558.086015 333.765216 
L 558.513793 344.000014 
L 559.797125 362.069815 
L 560.224903 364.871736 
L 560.65268 365.935429 
L 561.080457 364.508524 
L 561.508235 361.045038 
L 561.936012 355.12987 
L 562.791567 336.670913 
L 563.219345 333.726301 
L 564.074899 331.326507 
L 564.502677 335.60722 
L 565.358232 323.737968 
L 565.786009 330.690885 
L 566.213786 330.626026 
L 566.641564 335.736939 
L 567.069341 336.852519 
L 567.497119 335.905573 
L 567.924896 335.970432 
L 570.063783 361.148813 
L 570.491561 364.832821 
L 570.919338 366.415388 
L 571.347116 365.857598 
L 571.774893 363.068648 
L 572.20267 359.099259 
L 572.630448 351.860961 
L 573.91378 337.90324 
L 574.341558 334.5565 
L 574.769335 336.16501 
L 575.197112 338.227536 
L 575.62489 339.148538 
L 576.052667 339.356088 
L 576.480445 337.773521 
L 576.908222 339.485806 
L 577.335999 338.201592 
L 577.763777 338.162677 
L 578.191554 337.552999 
L 578.619332 340.186287 
L 579.902664 357.892876 
L 580.758219 364.975511 
L 581.613774 366.026232 
L 582.041551 363.730213 
L 582.469329 358.982512 
L 583.324883 343.987042 
L 584.608216 321.753274 
L 585.035993 327.123624 
L 585.463771 328.174345 
L 585.891548 327.292258 
L 586.319325 329.588277 
L 586.747103 325.670776 
L 587.17488 324.65897 
L 587.602658 321.506809 
L 588.030435 321.895964 
L 588.458212 317.550391 
L 590.169322 357.840988 
L 590.5971 362.770295 
L 591.024877 364.988483 
L 591.452654 365.753823 
L 591.880432 364.430693 
L 592.308209 359.566246 
L 592.735987 352.548469 
L 593.591542 327.175511 
L 594.019319 321.779218 
L 594.447096 320.157735 
L 595.302651 321.02685 
L 596.158206 326.89013 
L 596.585984 323.063432 
L 597.013761 326.656637 
L 597.441538 324.905436 
L 597.869316 326.851215 
L 598.297093 320.015045 
L 598.724871 320.05396 
L 599.152648 331.858353 
L 599.580425 360.253754 
L 600.008203 349.954097 
L 600.43598 357.283198 
L 601.291535 364.430693 
L 601.719313 365.740851 
L 602.14709 364.910652 
L 602.574867 360.253754 
L 603.002645 353.028428 
L 603.430422 339.654441 
L 603.8582 330.029321 
L 604.285977 325.943185 
L 604.713755 325.398367 
L 605.141532 324.282787 
L 605.569309 325.359451 
L 606.424864 324.905436 
L 606.852642 324.451421 
L 607.280419 323.219094 
L 607.708197 323.452588 
L 608.135974 321.013878 
L 608.563751 320.845244 
L 608.991529 319.301592 
L 609.419306 325.177845 
L 610.702638 357.166452 
L 611.130416 360.603995 
L 611.558193 365.390611 
L 611.985971 365.844626 
L 612.413748 364.767962 
L 612.841526 360.396445 
L 613.269303 352.989513 
L 614.124858 329.88663 
L 614.552635 326.098847 
L 614.980413 323.647165 
L 615.40819 323.673109 
L 615.835968 322.583473 
L 616.263745 323.374756 
L 616.691522 325.541057 
L 617.1193 325.969128 
L 617.547077 326.008044 
L 617.974855 324.399533 
L 618.402632 321.532752 
L 618.83041 321.02685 
L 619.258187 317.861716 
L 619.685964 324.671942 
L 620.541519 348.864461 
L 620.969297 356.53083 
L 621.824851 364.015594 
L 622.252629 365.792739 
L 622.680406 364.223143 
L 623.108184 359.812711 
L 623.535961 352.89871 
L 624.391516 329.717996 
L 624.819293 328.278119 
L 625.674848 322.816966 
L 626.102626 325.450254 
L 626.530403 324.970295 
L 626.958181 324.905436 
L 627.385958 327.473864 
L 627.813735 324.179012 
L 628.241513 324.16604 
L 629.097068 314.359314 
L 629.524845 315.79919 
L 629.952623 324.230899 
L 630.3804 335.023487 
L 630.808177 348.773658 
L 631.663732 360.759657 
L 632.09151 364.534468 
L 632.947064 364.910652 
L 633.374842 361.330419 
L 633.802619 353.0414 
L 634.658174 330.976266 
L 635.085952 327.811132 
L 635.513729 326.669609 
L 635.941506 324.399533 
L 636.369284 327.434949 
L 636.797061 324.86652 
L 637.224839 326.993905 
L 637.652616 326.241537 
L 638.080394 325.904269 
L 638.508171 323.802828 
L 638.935948 325.722663 
L 639.363726 326.552862 
L 639.791503 329.847714 
L 640.647058 339.849019 
L 641.074835 348.760686 
L 641.93039 360.616966 
L 642.358168 364.145312 
L 642.785945 364.69013 
L 643.213723 364.430693 
L 643.6415 362.964873 
L 644.069277 356.089787 
L 644.924832 337.890268 
L 645.780387 323.763912 
L 646.208165 323.634194 
L 646.635942 324.295758 
L 647.063719 323.504475 
L 647.491497 323.478531 
L 647.919274 325.541057 
L 648.774829 324.282787 
L 649.202607 326.410172 
L 649.630384 323.206122 
L 650.058161 329.458559 
L 650.485939 331.76755 
L 651.341494 347.009485 
L 651.769271 355.48011 
L 652.197048 360.370501 
L 652.624826 363.535635 
L 653.052603 365.494386 
L 653.480381 365.157117 
L 653.908158 363.185395 
L 654.335936 356.868099 
L 654.763713 347.437557 
L 655.619268 322.518614 
L 656.047045 313.165903 
L 656.474823 300.349705 
L 656.9026 302.451146 
L 657.330378 303.17757 
L 658.61371 293.526507 
L 659.041487 286.560618 
L 659.469265 275.845861 
L 659.897042 275.716143 
L 660.32482 286.768167 
L 661.180374 325.683747 
L 661.608152 343.014152 
L 662.035929 353.741881 
L 662.463707 360.396445 
L 662.891484 364.054509 
L 663.319261 364.573384 
L 663.747039 363.509691 
L 664.174816 359.280865 
L 664.602594 348.773658 
L 665.458149 310.273178 
L 665.885926 303.748332 
L 666.313703 301.854441 
L 666.741481 302.399259 
L 667.169258 304.435841 
L 667.597036 307.030213 
L 668.024813 311.207152 
L 668.452591 309.676472 
L 668.880368 306.861579 
L 669.308145 306.93941 
L 670.1637 287.97455 
L 670.591478 292.579561 
L 672.302587 354.105093 
L 672.730365 360.746685 
L 673.158142 363.561579 
L 673.58592 364.495553 
L 674.013697 364.262059 
L 674.441474 359.047371 
L 674.869252 349.072011 
L 675.724807 318.44545 
L 676.152584 314.761441 
L 676.580362 312.958353 
L 677.008139 313.21779 
L 677.435916 313.126987 
L 677.863694 313.178874 
L 678.291471 315.980796 
L 678.719249 311.259039 
L 679.147026 314.047989 
L 679.574804 302.982992 
L 680.002581 295.238792 
L 680.430358 289.842498 
L 680.858136 295.757666 
L 681.285913 309.793219 
L 682.141468 344.544832 
L 682.569246 354.234811 
L 682.997023 361.317447 
L 683.4248 364.041537 
L 683.852578 365.027399 
L 684.280355 363.561579 
L 684.708133 358.852793 
L 685.13591 348.825546 
L 685.991465 320.05396 
L 686.419242 316.525614 
L 686.84702 315.773246 
L 687.274797 314.424173 
L 687.702575 314.255539 
L 688.130352 316.110515 
L 688.558129 316.447783 
L 688.985907 315.902965 
L 689.413684 311.220124 
L 689.841462 308.042018 
L 690.697017 289.466314 
L 691.124794 295.744695 
L 691.552571 308.651695 
L 692.408126 346.55547 
L 692.835904 354.779629 
L 693.263681 360.396445 
L 693.691459 363.561579 
L 694.119236 364.767962 
L 694.547013 363.457804 
L 694.974791 358.372835 
L 695.402568 348.64394 
L 696.258123 320.092876 
L 696.6859 313.671805 
L 697.113678 315.007907 
L 697.541455 315.085738 
L 697.969233 314.618751 
L 698.39701 317.628222 
L 698.824788 317.355813 
L 699.252565 318.536253 
L 699.680342 314.514976 
L 700.963675 284.005161 
L 701.391452 296.120879 
L 702.674784 348.267756 
L 703.102562 356.543802 
L 703.530339 361.784434 
L 703.958117 364.716074 
L 704.385894 365.157117 
L 704.813672 364.275031 
L 705.241449 358.191229 
L 705.669226 348.462334 
L 706.097004 330.664942 
L 706.524781 319.223761 
L 706.952559 312.789719 
L 707.380336 313.931242 
L 707.808113 314.579835 
L 708.663668 311.570364 
L 709.091446 311.362814 
L 709.947001 312.932409 
L 711.230333 299.27304 
L 712.085888 317.537419 
L 713.36922 354.247783 
L 714.224775 363.821016 
L 715.08033 365.234949 
L 715.508107 360.227811 
L 715.935884 352.48361 
L 717.219217 306.900494 
L 717.646994 304.020741 
L 718.074772 294.784777 
L 718.502549 301.050185 
L 718.930326 299.727056 
L 719.358104 296.847303 
L 719.785881 299.350872 
L 720.213659 299.882718 
L 720.641436 292.047714 
L 721.069214 288.428566 
L 721.496991 290.41326 
L 722.780323 325.826438 
L 723.635878 352.652244 
L 724.491433 362.31628 
L 724.91921 364.352862 
L 725.346988 364.534468 
L 725.774765 360.941263 
L 726.202543 349.577914 
L 727.058097 308.975992 
L 727.913652 274.730281 
L 728.769207 248.086081 
L 729.196985 242.84545 
L 729.624762 242.949224 
L 730.052539 230.184914 
L 730.480317 211.453548 
L 730.908094 171.980178 
L 731.335872 66.96 
L 731.763649 115.889856 
L 732.191427 204.539547 
L 733.046981 311.207152 
L 733.474759 335.749911 
L 733.902536 352.457666 
L 734.330314 359.371668 
L 734.758091 362.407083 
L 735.185869 364.456637 
L 735.613646 362.653548 
L 736.041423 355.324447 
L 736.469201 337.410309 
L 737.324756 280.126575 
L 737.752533 275.21024 
L 738.18031 277.181963 
L 738.608088 277.908387 
L 739.035865 284.90022 
L 739.463643 287.48162 
L 739.89142 286.327124 
L 740.319198 284.044077 
L 740.746975 272.551009 
L 741.174752 257.63337 
L 741.60253 216.188277 
L 742.030307 205.071393 
L 743.31364 315.189513 
L 743.741417 338.837213 
L 744.169194 353.728909 
L 744.596972 360.707769 
L 745.024749 363.003789 
L 745.452527 364.210172 
L 745.880304 362.52383 
L 746.308082 355.116898 
L 746.735859 339.836047 
L 747.163636 337.034125 
L 747.163636 337.034125 
" style="fill:none;stroke:#1f77b4;stroke-linecap:square;stroke-width:1.5;"/>
   </g>
   <g id="line2d_15">
    <path clip-path="url(#p7e15ef6c23)" d="M 745.880304 384.48 
L 745.880304 51.84 
" style="fill:none;stroke:#808080;stroke-linecap:square;"/>
   </g>
   <g id="patch_193">
    <path d="M 108 384.48 
L 108 51.84 
" style="fill:none;stroke:#000000;stroke-linecap:square;stroke-linejoin:miter;stroke-width:0.8;"/>
   </g>
   <g id="patch_194">
    <path d="M 777.6 384.48 
L 777.6 51.84 
" style="fill:none;stroke:#000000;stroke-linecap:square;stroke-linejoin:miter;stroke-width:0.8;"/>
   </g>
   <g id="patch_195">
    <path d="M 108 384.48 
L 777.6 384.48 
" style="fill:none;stroke:#000000;stroke-linecap:square;stroke-linejoin:miter;stroke-width:0.8;"/>
   </g>
   <g id="patch_196">
    <path d="M 108 51.84 
L 777.6 51.84 
" style="fill:none;stroke:#000000;stroke-linecap:square;stroke-linejoin:miter;stroke-width:0.8;"/>
   </g>
   <g id="text_16">
    <!-- real_65.csv -->
    <defs>
     <path d="M 41.109375 46.296875 
Q 39.59375 47.171875 37.8125 47.578125 
Q 36.03125 48 33.890625 48 
Q 26.265625 48 22.1875 43.046875 
Q 18.109375 38.09375 18.109375 28.8125 
L 18.109375 0 
L 9.078125 0 
L 9.078125 54.6875 
L 18.109375 54.6875 
L 18.109375 46.1875 
Q 20.953125 51.171875 25.484375 53.578125 
Q 30.03125 56 36.53125 56 
Q 37.453125 56 38.578125 55.875 
Q 39.703125 55.765625 41.0625 55.515625 
z
" id="DejaVuSans-114"/>
     <path d="M 50.984375 -16.609375 
L 50.984375 -23.578125 
L -0.984375 -23.578125 
L -0.984375 -16.609375 
z
" id="DejaVuSans-95"/>
     <path d="M 10.6875 12.40625 
L 21 12.40625 
L 21 0 
L 10.6875 0 
z
" id="DejaVuSans-46"/>
     <path d="M 48.78125 52.59375 
L 48.78125 44.1875 
Q 44.96875 46.296875 41.140625 47.34375 
Q 37.3125 48.390625 33.40625 48.390625 
Q 24.65625 48.390625 19.8125 42.84375 
Q 14.984375 37.3125 14.984375 27.296875 
Q 14.984375 17.28125 19.8125 11.734375 
Q 24.65625 6.203125 33.40625 6.203125 
Q 37.3125 6.203125 41.140625 7.25 
Q 44.96875 8.296875 48.78125 10.40625 
L 48.78125 2.09375 
Q 45.015625 0.34375 40.984375 -0.53125 
Q 36.96875 -1.421875 32.421875 -1.421875 
Q 20.0625 -1.421875 12.78125 6.34375 
Q 5.515625 14.109375 5.515625 27.296875 
Q 5.515625 40.671875 12.859375 48.328125 
Q 20.21875 56 33.015625 56 
Q 37.15625 56 41.109375 55.140625 
Q 45.0625 54.296875 48.78125 52.59375 
z
" id="DejaVuSans-99"/>
     <path d="M 2.984375 54.6875 
L 12.5 54.6875 
L 29.59375 8.796875 
L 46.6875 54.6875 
L 56.203125 54.6875 
L 35.6875 0 
L 23.484375 0 
z
" id="DejaVuSans-118"/>
    </defs>
    <g transform="translate(408.781875 45.84)scale(0.12 -0.12)">
     <use xlink:href="#DejaVuSans-114"/>
     <use x="41.082031" xlink:href="#DejaVuSans-101"/>
     <use x="102.605469" xlink:href="#DejaVuSans-97"/>
     <use x="163.884766" xlink:href="#DejaVuSans-108"/>
     <use x="191.667969" xlink:href="#DejaVuSans-95"/>
     <use x="241.667969" xlink:href="#DejaVuSans-54"/>
     <use x="305.291016" xlink:href="#DejaVuSans-53"/>
     <use x="368.914062" xlink:href="#DejaVuSans-46"/>
     <use x="400.701172" xlink:href="#DejaVuSans-99"/>
     <use x="455.681641" xlink:href="#DejaVuSans-115"/>
     <use x="507.78125" xlink:href="#DejaVuSans-118"/>
    </g>
   </g>
   <g id="legend_1">
    <g id="patch_197">
     <path d="M 115 74.518125 
L 174.315625 74.518125 
Q 176.315625 74.518125 176.315625 72.518125 
L 176.315625 58.84 
Q 176.315625 56.84 174.315625 56.84 
L 115 56.84 
Q 113 56.84 113 58.84 
L 113 72.518125 
Q 113 74.518125 115 74.518125 
z
" style="fill:#ffffff;opacity:0.8;stroke:#cccccc;stroke-linejoin:miter;"/>
    </g>
    <g id="line2d_16">
     <path d="M 117 64.938438 
L 137 64.938438 
" style="fill:none;stroke:#1f77b4;stroke-linecap:square;stroke-width:1.5;"/>
    </g>
    <g id="line2d_17"/>
    <g id="text_17">
     <!-- value -->
     <g transform="translate(145 68.438438)scale(0.1 -0.1)">
      <use xlink:href="#DejaVuSans-118"/>
      <use x="59.179688" xlink:href="#DejaVuSans-97"/>
      <use x="120.458984" xlink:href="#DejaVuSans-108"/>
      <use x="148.242188" xlink:href="#DejaVuSans-117"/>
      <use x="211.621094" xlink:href="#DejaVuSans-101"/>
     </g>
    </g>
   </g>
  </g>
 </g>
 <defs>
  <clipPath id="p7e15ef6c23">
   <rect height="332.64" width="669.6" x="108" y="51.84"/>
  </clipPath>
 </defs>
</svg>
