<?xml version="1.0" encoding="utf-8" standalone="no"?>
<!DOCTYPE svg PUBLIC "-//W3C//DTD SVG 1.1//EN"
  "http://www.w3.org/Graphics/SVG/1.1/DTD/svg11.dtd">
<!-- Created with matplotlib (https://matplotlib.org/) -->
<svg height="432pt" version="1.1" viewBox="0 0 864 432" width="864pt" xmlns="http://www.w3.org/2000/svg" xmlns:xlink="http://www.w3.org/1999/xlink">
 <defs>
  <style type="text/css">
*{stroke-linecap:butt;stroke-linejoin:round;}
  </style>
 </defs>
 <g id="figure_1">
  <g id="patch_1">
   <path d="M 0 432 
L 864 432 
L 864 0 
L 0 0 
z
" style="fill:#ffffff;"/>
  </g>
  <g id="axes_1">
   <g id="patch_2">
    <path d="M 108 384.48 
L 777.6 384.48 
L 777.6 51.84 
L 108 51.84 
z
" style="fill:#ffffff;"/>
   </g>
   <g id="patch_3">
    <path clip-path="url(#p8132406ad6)" d="M 138.436364 384.48 
L 138.436364 51.84 
L 500.774026 51.84 
L 500.774026 384.48 
z
" style="fill:#0000ff;opacity:0.05;"/>
   </g>
   <g id="patch_4">
    <path clip-path="url(#p8132406ad6)" d="M 500.774026 384.48 
L 500.774026 51.84 
L 747.163636 51.84 
L 747.163636 384.48 
z
" style="fill:#ff0000;opacity:0.08;"/>
   </g>
   <g id="patch_5">
    <path clip-path="url(#p8132406ad6)" d="M 138.436364 384.48 
L 138.436364 51.84 
L 142.05974 51.84 
L 142.05974 384.48 
z
" style="fill:#008000;opacity:0.04;"/>
   </g>
   <g id="patch_6">
    <path clip-path="url(#p8132406ad6)" d="M 145.683117 384.48 
L 145.683117 51.84 
L 149.306494 51.84 
L 149.306494 384.48 
z
" style="fill:#008000;opacity:0.04;"/>
   </g>
   <g id="patch_7">
    <path clip-path="url(#p8132406ad6)" d="M 145.683117 384.48 
L 145.683117 371.1744 
L 149.306494 371.1744 
L 149.306494 384.48 
z
" style="fill:#ffe500;"/>
   </g>
   <g id="patch_8">
    <path clip-path="url(#p8132406ad6)" d="M 508.020779 384.48 
L 508.020779 371.1744 
L 511.644156 371.1744 
L 511.644156 384.48 
z
" style="fill:#ff6600;"/>
   </g>
   <g id="patch_9">
    <path clip-path="url(#p8132406ad6)" d="M 152.92987 384.48 
L 152.92987 51.84 
L 156.553247 51.84 
L 156.553247 384.48 
z
" style="fill:#008000;opacity:0.04;"/>
   </g>
   <g id="patch_10">
    <path clip-path="url(#p8132406ad6)" d="M 160.176623 384.48 
L 160.176623 51.84 
L 163.8 51.84 
L 163.8 384.48 
z
" style="fill:#008000;opacity:0.04;"/>
   </g>
   <g id="patch_11">
    <path clip-path="url(#p8132406ad6)" d="M 167.423377 384.48 
L 167.423377 51.84 
L 171.046753 51.84 
L 171.046753 384.48 
z
" style="fill:#008000;opacity:0.04;"/>
   </g>
   <g id="patch_12">
    <path clip-path="url(#p8132406ad6)" d="M 167.423377 384.48 
L 167.423377 371.1744 
L 171.046753 371.1744 
L 171.046753 384.48 
z
" style="fill:#ffe500;"/>
   </g>
   <g id="patch_13">
    <path clip-path="url(#p8132406ad6)" d="M 174.67013 384.48 
L 174.67013 51.84 
L 178.293506 51.84 
L 178.293506 384.48 
z
" style="fill:#008000;opacity:0.04;"/>
   </g>
   <g id="patch_14">
    <path clip-path="url(#p8132406ad6)" d="M 181.916883 384.48 
L 181.916883 51.84 
L 185.54026 51.84 
L 185.54026 384.48 
z
" style="fill:#008000;opacity:0.04;"/>
   </g>
   <g id="patch_15">
    <path clip-path="url(#p8132406ad6)" d="M 189.163636 384.48 
L 189.163636 51.84 
L 192.787013 51.84 
L 192.787013 384.48 
z
" style="fill:#008000;opacity:0.04;"/>
   </g>
   <g id="patch_16">
    <path clip-path="url(#p8132406ad6)" d="M 189.163636 384.48 
L 189.163636 371.1744 
L 192.787013 371.1744 
L 192.787013 384.48 
z
" style="fill:#ffe500;"/>
   </g>
   <g id="patch_17">
    <path clip-path="url(#p8132406ad6)" d="M 196.41039 384.48 
L 196.41039 51.84 
L 200.033766 51.84 
L 200.033766 384.48 
z
" style="fill:#008000;opacity:0.04;"/>
   </g>
   <g id="patch_18">
    <path clip-path="url(#p8132406ad6)" d="M 203.657143 384.48 
L 203.657143 51.84 
L 207.280519 51.84 
L 207.280519 384.48 
z
" style="fill:#008000;opacity:0.04;"/>
   </g>
   <g id="patch_19">
    <path clip-path="url(#p8132406ad6)" d="M 210.903896 384.48 
L 210.903896 51.84 
L 214.527273 51.84 
L 214.527273 384.48 
z
" style="fill:#008000;opacity:0.04;"/>
   </g>
   <g id="patch_20">
    <path clip-path="url(#p8132406ad6)" d="M 218.150649 384.48 
L 218.150649 51.84 
L 221.774026 51.84 
L 221.774026 384.48 
z
" style="fill:#008000;opacity:0.04;"/>
   </g>
   <g id="patch_21">
    <path clip-path="url(#p8132406ad6)" d="M 225.397403 384.48 
L 225.397403 51.84 
L 229.020779 51.84 
L 229.020779 384.48 
z
" style="fill:#008000;opacity:0.04;"/>
   </g>
   <g id="patch_22">
    <path clip-path="url(#p8132406ad6)" d="M 232.644156 384.48 
L 232.644156 51.84 
L 236.267532 51.84 
L 236.267532 384.48 
z
" style="fill:#008000;opacity:0.04;"/>
   </g>
   <g id="patch_23">
    <path clip-path="url(#p8132406ad6)" d="M 239.890909 384.48 
L 239.890909 51.84 
L 243.514286 51.84 
L 243.514286 384.48 
z
" style="fill:#008000;opacity:0.04;"/>
   </g>
   <g id="patch_24">
    <path clip-path="url(#p8132406ad6)" d="M 247.137662 384.48 
L 247.137662 51.84 
L 250.761039 51.84 
L 250.761039 384.48 
z
" style="fill:#008000;opacity:0.04;"/>
   </g>
   <g id="patch_25">
    <path clip-path="url(#p8132406ad6)" d="M 613.098701 384.48 
L 613.098701 371.1744 
L 616.722078 371.1744 
L 616.722078 384.48 
z
" style="fill:#ff6600;"/>
   </g>
   <g id="patch_26">
    <path clip-path="url(#p8132406ad6)" d="M 254.384416 384.48 
L 254.384416 51.84 
L 258.007792 51.84 
L 258.007792 384.48 
z
" style="fill:#008000;opacity:0.04;"/>
   </g>
   <g id="patch_27">
    <path clip-path="url(#p8132406ad6)" d="M 620.345455 384.48 
L 620.345455 371.1744 
L 623.968831 371.1744 
L 623.968831 384.48 
z
" style="fill:#ff6600;"/>
   </g>
   <g id="patch_28">
    <path clip-path="url(#p8132406ad6)" d="M 261.631169 384.48 
L 261.631169 51.84 
L 265.254545 51.84 
L 265.254545 384.48 
z
" style="fill:#008000;opacity:0.04;"/>
   </g>
   <g id="patch_29">
    <path clip-path="url(#p8132406ad6)" d="M 268.877922 384.48 
L 268.877922 51.84 
L 272.501299 51.84 
L 272.501299 384.48 
z
" style="fill:#008000;opacity:0.04;"/>
   </g>
   <g id="patch_30">
    <path clip-path="url(#p8132406ad6)" d="M 276.124675 384.48 
L 276.124675 51.84 
L 279.748052 51.84 
L 279.748052 384.48 
z
" style="fill:#008000;opacity:0.04;"/>
   </g>
   <g id="patch_31">
    <path clip-path="url(#p8132406ad6)" d="M 276.124675 384.48 
L 276.124675 371.1744 
L 279.748052 371.1744 
L 279.748052 384.48 
z
" style="fill:#ffe500;"/>
   </g>
   <g id="patch_32">
    <path clip-path="url(#p8132406ad6)" d="M 283.371429 384.48 
L 283.371429 51.84 
L 286.994805 51.84 
L 286.994805 384.48 
z
" style="fill:#008000;opacity:0.04;"/>
   </g>
   <g id="patch_33">
    <path clip-path="url(#p8132406ad6)" d="M 290.618182 384.48 
L 290.618182 51.84 
L 294.241558 51.84 
L 294.241558 384.48 
z
" style="fill:#008000;opacity:0.04;"/>
   </g>
   <g id="patch_34">
    <path clip-path="url(#p8132406ad6)" d="M 297.864935 384.48 
L 297.864935 51.84 
L 301.488312 51.84 
L 301.488312 384.48 
z
" style="fill:#008000;opacity:0.04;"/>
   </g>
   <g id="patch_35">
    <path clip-path="url(#p8132406ad6)" d="M 305.111688 384.48 
L 305.111688 51.84 
L 308.735065 51.84 
L 308.735065 384.48 
z
" style="fill:#008000;opacity:0.04;"/>
   </g>
   <g id="patch_36">
    <path clip-path="url(#p8132406ad6)" d="M 312.358442 384.48 
L 312.358442 51.84 
L 315.981818 51.84 
L 315.981818 384.48 
z
" style="fill:#008000;opacity:0.04;"/>
   </g>
   <g id="patch_37">
    <path clip-path="url(#p8132406ad6)" d="M 319.605195 384.48 
L 319.605195 51.84 
L 323.228571 51.84 
L 323.228571 384.48 
z
" style="fill:#008000;opacity:0.04;"/>
   </g>
   <g id="patch_38">
    <path clip-path="url(#p8132406ad6)" d="M 319.605195 384.48 
L 319.605195 371.1744 
L 323.228571 371.1744 
L 323.228571 384.48 
z
" style="fill:#ffe500;"/>
   </g>
   <g id="patch_39">
    <path clip-path="url(#p8132406ad6)" d="M 326.851948 384.48 
L 326.851948 51.84 
L 330.475325 51.84 
L 330.475325 384.48 
z
" style="fill:#008000;opacity:0.04;"/>
   </g>
   <g id="patch_40">
    <path clip-path="url(#p8132406ad6)" d="M 334.098701 384.48 
L 334.098701 51.84 
L 337.722078 51.84 
L 337.722078 384.48 
z
" style="fill:#008000;opacity:0.04;"/>
   </g>
   <g id="patch_41">
    <path clip-path="url(#p8132406ad6)" d="M 341.345455 384.48 
L 341.345455 51.84 
L 344.968831 51.84 
L 344.968831 384.48 
z
" style="fill:#008000;opacity:0.04;"/>
   </g>
   <g id="patch_42">
    <path clip-path="url(#p8132406ad6)" d="M 348.592208 384.48 
L 348.592208 51.84 
L 352.215584 51.84 
L 352.215584 384.48 
z
" style="fill:#008000;opacity:0.04;"/>
   </g>
   <g id="patch_43">
    <path clip-path="url(#p8132406ad6)" d="M 355.838961 384.48 
L 355.838961 51.84 
L 359.462338 51.84 
L 359.462338 384.48 
z
" style="fill:#008000;opacity:0.04;"/>
   </g>
   <g id="patch_44">
    <path clip-path="url(#p8132406ad6)" d="M 363.085714 384.48 
L 363.085714 51.84 
L 366.709091 51.84 
L 366.709091 384.48 
z
" style="fill:#008000;opacity:0.04;"/>
   </g>
   <g id="patch_45">
    <path clip-path="url(#p8132406ad6)" d="M 366.709091 371.1744 
L 366.709091 51.84 
L 370.332468 51.84 
L 370.332468 371.1744 
z
" style="fill:#008000;opacity:0.5;"/>
   </g>
   <g id="patch_46">
    <path clip-path="url(#p8132406ad6)" d="M 366.709091 384.48 
L 366.709091 371.1744 
L 370.332468 371.1744 
L 370.332468 384.48 
z
" style="fill:#ffe500;"/>
   </g>
   <g id="patch_47">
    <path clip-path="url(#p8132406ad6)" d="M 370.332468 384.48 
L 370.332468 51.84 
L 373.955844 51.84 
L 373.955844 384.48 
z
" style="fill:#008000;opacity:0.04;"/>
   </g>
   <g id="patch_48">
    <path clip-path="url(#p8132406ad6)" d="M 377.579221 384.48 
L 377.579221 51.84 
L 381.202597 51.84 
L 381.202597 384.48 
z
" style="fill:#008000;opacity:0.04;"/>
   </g>
   <g id="patch_49">
    <path clip-path="url(#p8132406ad6)" d="M 384.825974 384.48 
L 384.825974 51.84 
L 388.449351 51.84 
L 388.449351 384.48 
z
" style="fill:#008000;opacity:0.04;"/>
   </g>
   <g id="patch_50">
    <path clip-path="url(#p8132406ad6)" d="M 384.825974 384.48 
L 384.825974 371.1744 
L 388.449351 371.1744 
L 388.449351 384.48 
z
" style="fill:#ffe500;"/>
   </g>
   <g id="patch_51">
    <path clip-path="url(#p8132406ad6)" d="M 392.072727 384.48 
L 392.072727 51.84 
L 395.696104 51.84 
L 395.696104 384.48 
z
" style="fill:#008000;opacity:0.04;"/>
   </g>
   <g id="patch_52">
    <path clip-path="url(#p8132406ad6)" d="M 399.319481 384.48 
L 399.319481 51.84 
L 402.942857 51.84 
L 402.942857 384.48 
z
" style="fill:#008000;opacity:0.04;"/>
   </g>
   <g id="patch_53">
    <path clip-path="url(#p8132406ad6)" d="M 406.566234 384.48 
L 406.566234 51.84 
L 410.18961 51.84 
L 410.18961 384.48 
z
" style="fill:#008000;opacity:0.04;"/>
   </g>
   <g id="patch_54">
    <path clip-path="url(#p8132406ad6)" d="M 413.812987 384.48 
L 413.812987 51.84 
L 417.436364 51.84 
L 417.436364 384.48 
z
" style="fill:#008000;opacity:0.04;"/>
   </g>
   <g id="patch_55">
    <path clip-path="url(#p8132406ad6)" d="M 421.05974 384.48 
L 421.05974 51.84 
L 424.683117 51.84 
L 424.683117 384.48 
z
" style="fill:#008000;opacity:0.04;"/>
   </g>
   <g id="patch_56">
    <path clip-path="url(#p8132406ad6)" d="M 428.306494 384.48 
L 428.306494 51.84 
L 431.92987 51.84 
L 431.92987 384.48 
z
" style="fill:#008000;opacity:0.04;"/>
   </g>
   <g id="patch_57">
    <path clip-path="url(#p8132406ad6)" d="M 435.553247 384.48 
L 435.553247 51.84 
L 439.176623 51.84 
L 439.176623 384.48 
z
" style="fill:#008000;opacity:0.04;"/>
   </g>
   <g id="patch_58">
    <path clip-path="url(#p8132406ad6)" d="M 442.8 384.48 
L 442.8 51.84 
L 446.423377 51.84 
L 446.423377 384.48 
z
" style="fill:#008000;opacity:0.04;"/>
   </g>
   <g id="patch_59">
    <path clip-path="url(#p8132406ad6)" d="M 450.046753 384.48 
L 450.046753 51.84 
L 453.67013 51.84 
L 453.67013 384.48 
z
" style="fill:#008000;opacity:0.04;"/>
   </g>
   <g id="patch_60">
    <path clip-path="url(#p8132406ad6)" d="M 450.046753 384.48 
L 450.046753 371.1744 
L 453.67013 371.1744 
L 453.67013 384.48 
z
" style="fill:#ffe500;"/>
   </g>
   <g id="patch_61">
    <path clip-path="url(#p8132406ad6)" d="M 457.293506 384.48 
L 457.293506 51.84 
L 460.916883 51.84 
L 460.916883 384.48 
z
" style="fill:#008000;opacity:0.04;"/>
   </g>
   <g id="patch_62">
    <path clip-path="url(#p8132406ad6)" d="M 464.54026 384.48 
L 464.54026 51.84 
L 468.163636 51.84 
L 468.163636 384.48 
z
" style="fill:#008000;opacity:0.04;"/>
   </g>
   <g id="patch_63">
    <path clip-path="url(#p8132406ad6)" d="M 471.787013 384.48 
L 471.787013 51.84 
L 475.41039 51.84 
L 475.41039 384.48 
z
" style="fill:#008000;opacity:0.04;"/>
   </g>
   <g id="patch_64">
    <path clip-path="url(#p8132406ad6)" d="M 471.787013 384.48 
L 471.787013 371.1744 
L 475.41039 371.1744 
L 475.41039 384.48 
z
" style="fill:#ffe500;"/>
   </g>
   <g id="patch_65">
    <path clip-path="url(#p8132406ad6)" d="M 479.033766 384.48 
L 479.033766 51.84 
L 482.657143 51.84 
L 482.657143 384.48 
z
" style="fill:#008000;opacity:0.04;"/>
   </g>
   <g id="patch_66">
    <path clip-path="url(#p8132406ad6)" d="M 486.280519 384.48 
L 486.280519 51.84 
L 489.903896 51.84 
L 489.903896 384.48 
z
" style="fill:#008000;opacity:0.04;"/>
   </g>
   <g id="patch_67">
    <path clip-path="url(#p8132406ad6)" d="M 493.527273 384.48 
L 493.527273 51.84 
L 497.150649 51.84 
L 497.150649 384.48 
z
" style="fill:#008000;opacity:0.04;"/>
   </g>
   <g id="patch_68">
    <path clip-path="url(#p8132406ad6)" d="M 493.527273 384.48 
L 493.527273 371.1744 
L 497.150649 371.1744 
L 497.150649 384.48 
z
" style="fill:#ffe500;"/>
   </g>
   <g id="patch_69">
    <path clip-path="url(#p8132406ad6)" d="M 500.774026 384.48 
L 500.774026 51.84 
L 504.397403 51.84 
L 504.397403 384.48 
z
" style="fill:#008000;opacity:0.04;"/>
   </g>
   <g id="patch_70">
    <path clip-path="url(#p8132406ad6)" d="M 508.020779 384.48 
L 508.020779 51.84 
L 511.644156 51.84 
L 511.644156 384.48 
z
" style="fill:#008000;opacity:0.04;"/>
   </g>
   <g id="patch_71">
    <path clip-path="url(#p8132406ad6)" d="M 508.020779 371.1744 
L 508.020779 51.84 
L 511.644156 51.84 
L 511.644156 371.1744 
z
" style="fill:#008000;opacity:0.5;"/>
   </g>
   <g id="patch_72">
    <path clip-path="url(#p8132406ad6)" d="M 515.267532 384.48 
L 515.267532 51.84 
L 518.890909 51.84 
L 518.890909 384.48 
z
" style="fill:#008000;opacity:0.04;"/>
   </g>
   <g id="patch_73">
    <path clip-path="url(#p8132406ad6)" d="M 522.514286 384.48 
L 522.514286 51.84 
L 526.137662 51.84 
L 526.137662 384.48 
z
" style="fill:#008000;opacity:0.04;"/>
   </g>
   <g id="patch_74">
    <path clip-path="url(#p8132406ad6)" d="M 529.761039 384.48 
L 529.761039 51.84 
L 533.384416 51.84 
L 533.384416 384.48 
z
" style="fill:#008000;opacity:0.04;"/>
   </g>
   <g id="patch_75">
    <path clip-path="url(#p8132406ad6)" d="M 537.007792 384.48 
L 537.007792 51.84 
L 540.631169 51.84 
L 540.631169 384.48 
z
" style="fill:#008000;opacity:0.04;"/>
   </g>
   <g id="patch_76">
    <path clip-path="url(#p8132406ad6)" d="M 544.254545 384.48 
L 544.254545 51.84 
L 547.877922 51.84 
L 547.877922 384.48 
z
" style="fill:#008000;opacity:0.04;"/>
   </g>
   <g id="patch_77">
    <path clip-path="url(#p8132406ad6)" d="M 551.501299 384.48 
L 551.501299 51.84 
L 555.124675 51.84 
L 555.124675 384.48 
z
" style="fill:#008000;opacity:0.04;"/>
   </g>
   <g id="patch_78">
    <path clip-path="url(#p8132406ad6)" d="M 558.748052 384.48 
L 558.748052 51.84 
L 562.371429 51.84 
L 562.371429 384.48 
z
" style="fill:#008000;opacity:0.04;"/>
   </g>
   <g id="patch_79">
    <path clip-path="url(#p8132406ad6)" d="M 565.994805 384.48 
L 565.994805 51.84 
L 569.618182 51.84 
L 569.618182 384.48 
z
" style="fill:#008000;opacity:0.04;"/>
   </g>
   <g id="patch_80">
    <path clip-path="url(#p8132406ad6)" d="M 573.241558 384.48 
L 573.241558 51.84 
L 576.864935 51.84 
L 576.864935 384.48 
z
" style="fill:#008000;opacity:0.04;"/>
   </g>
   <g id="patch_81">
    <path clip-path="url(#p8132406ad6)" d="M 573.241558 371.1744 
L 573.241558 51.84 
L 576.864935 51.84 
L 576.864935 371.1744 
z
" style="fill:#008000;opacity:0.5;"/>
   </g>
   <g id="patch_82">
    <path clip-path="url(#p8132406ad6)" d="M 580.488312 384.48 
L 580.488312 51.84 
L 584.111688 51.84 
L 584.111688 384.48 
z
" style="fill:#008000;opacity:0.04;"/>
   </g>
   <g id="patch_83">
    <path clip-path="url(#p8132406ad6)" d="M 587.735065 384.48 
L 587.735065 51.84 
L 591.358442 51.84 
L 591.358442 384.48 
z
" style="fill:#008000;opacity:0.04;"/>
   </g>
   <g id="patch_84">
    <path clip-path="url(#p8132406ad6)" d="M 594.981818 384.48 
L 594.981818 51.84 
L 598.605195 51.84 
L 598.605195 384.48 
z
" style="fill:#008000;opacity:0.04;"/>
   </g>
   <g id="patch_85">
    <path clip-path="url(#p8132406ad6)" d="M 602.228571 384.48 
L 602.228571 51.84 
L 605.851948 51.84 
L 605.851948 384.48 
z
" style="fill:#008000;opacity:0.04;"/>
   </g>
   <g id="patch_86">
    <path clip-path="url(#p8132406ad6)" d="M 609.475325 384.48 
L 609.475325 51.84 
L 613.098701 51.84 
L 613.098701 384.48 
z
" style="fill:#008000;opacity:0.04;"/>
   </g>
   <g id="patch_87">
    <path clip-path="url(#p8132406ad6)" d="M 613.098701 371.1744 
L 613.098701 51.84 
L 616.722078 51.84 
L 616.722078 371.1744 
z
" style="fill:#008000;opacity:0.5;"/>
   </g>
   <g id="patch_88">
    <path clip-path="url(#p8132406ad6)" d="M 616.722078 384.48 
L 616.722078 51.84 
L 620.345455 51.84 
L 620.345455 384.48 
z
" style="fill:#008000;opacity:0.04;"/>
   </g>
   <g id="patch_89">
    <path clip-path="url(#p8132406ad6)" d="M 620.345455 371.1744 
L 620.345455 51.84 
L 623.968831 51.84 
L 623.968831 371.1744 
z
" style="fill:#008000;opacity:0.5;"/>
   </g>
   <g id="patch_90">
    <path clip-path="url(#p8132406ad6)" d="M 623.968831 384.48 
L 623.968831 51.84 
L 627.592208 51.84 
L 627.592208 384.48 
z
" style="fill:#008000;opacity:0.04;"/>
   </g>
   <g id="patch_91">
    <path clip-path="url(#p8132406ad6)" d="M 631.215584 384.48 
L 631.215584 51.84 
L 634.838961 51.84 
L 634.838961 384.48 
z
" style="fill:#008000;opacity:0.04;"/>
   </g>
   <g id="patch_92">
    <path clip-path="url(#p8132406ad6)" d="M 638.462338 384.48 
L 638.462338 51.84 
L 642.085714 51.84 
L 642.085714 384.48 
z
" style="fill:#008000;opacity:0.04;"/>
   </g>
   <g id="patch_93">
    <path clip-path="url(#p8132406ad6)" d="M 645.709091 384.48 
L 645.709091 51.84 
L 649.332468 51.84 
L 649.332468 384.48 
z
" style="fill:#008000;opacity:0.04;"/>
   </g>
   <g id="patch_94">
    <path clip-path="url(#p8132406ad6)" d="M 652.955844 384.48 
L 652.955844 51.84 
L 656.579221 51.84 
L 656.579221 384.48 
z
" style="fill:#008000;opacity:0.04;"/>
   </g>
   <g id="patch_95">
    <path clip-path="url(#p8132406ad6)" d="M 660.202597 384.48 
L 660.202597 51.84 
L 663.825974 51.84 
L 663.825974 384.48 
z
" style="fill:#008000;opacity:0.04;"/>
   </g>
   <g id="patch_96">
    <path clip-path="url(#p8132406ad6)" d="M 667.449351 384.48 
L 667.449351 51.84 
L 671.072727 51.84 
L 671.072727 384.48 
z
" style="fill:#008000;opacity:0.04;"/>
   </g>
   <g id="patch_97">
    <path clip-path="url(#p8132406ad6)" d="M 674.696104 384.48 
L 674.696104 51.84 
L 678.319481 51.84 
L 678.319481 384.48 
z
" style="fill:#008000;opacity:0.04;"/>
   </g>
   <g id="patch_98">
    <path clip-path="url(#p8132406ad6)" d="M 681.942857 384.48 
L 681.942857 51.84 
L 685.566234 51.84 
L 685.566234 384.48 
z
" style="fill:#008000;opacity:0.04;"/>
   </g>
   <g id="patch_99">
    <path clip-path="url(#p8132406ad6)" d="M 689.18961 384.48 
L 689.18961 51.84 
L 692.812987 51.84 
L 692.812987 384.48 
z
" style="fill:#008000;opacity:0.04;"/>
   </g>
   <g id="patch_100">
    <path clip-path="url(#p8132406ad6)" d="M 696.436364 384.48 
L 696.436364 51.84 
L 700.05974 51.84 
L 700.05974 384.48 
z
" style="fill:#008000;opacity:0.04;"/>
   </g>
   <g id="patch_101">
    <path clip-path="url(#p8132406ad6)" d="M 703.683117 384.48 
L 703.683117 51.84 
L 707.306494 51.84 
L 707.306494 384.48 
z
" style="fill:#008000;opacity:0.04;"/>
   </g>
   <g id="patch_102">
    <path clip-path="url(#p8132406ad6)" d="M 710.92987 384.48 
L 710.92987 51.84 
L 714.553247 51.84 
L 714.553247 384.48 
z
" style="fill:#008000;opacity:0.04;"/>
   </g>
   <g id="patch_103">
    <path clip-path="url(#p8132406ad6)" d="M 718.176623 384.48 
L 718.176623 51.84 
L 721.8 51.84 
L 721.8 384.48 
z
" style="fill:#008000;opacity:0.04;"/>
   </g>
   <g id="patch_104">
    <path clip-path="url(#p8132406ad6)" d="M 725.423377 384.48 
L 725.423377 51.84 
L 729.046753 51.84 
L 729.046753 384.48 
z
" style="fill:#008000;opacity:0.04;"/>
   </g>
   <g id="patch_105">
    <path clip-path="url(#p8132406ad6)" d="M 732.67013 384.48 
L 732.67013 51.84 
L 736.293506 51.84 
L 736.293506 384.48 
z
" style="fill:#008000;opacity:0.04;"/>
   </g>
   <g id="patch_106">
    <path clip-path="url(#p8132406ad6)" d="M 739.916883 384.48 
L 739.916883 51.84 
L 743.54026 51.84 
L 743.54026 384.48 
z
" style="fill:#008000;opacity:0.04;"/>
   </g>
   <g id="matplotlib.axis_1">
    <g id="xtick_1">
     <g id="line2d_1">
      <defs>
       <path d="M 0 0 
L 0 3.5 
" id="m3b4a0559ec" style="stroke:#000000;stroke-width:0.8;"/>
      </defs>
      <g>
       <use style="stroke:#000000;stroke-width:0.8;" x="138.436364" xlink:href="#m3b4a0559ec" y="384.48"/>
      </g>
     </g>
     <g id="text_1">
      <!-- 0 -->
      <defs>
       <path d="M 31.78125 66.40625 
Q 24.171875 66.40625 20.328125 58.90625 
Q 16.5 51.421875 16.5 36.375 
Q 16.5 21.390625 20.328125 13.890625 
Q 24.171875 6.390625 31.78125 6.390625 
Q 39.453125 6.390625 43.28125 13.890625 
Q 47.125 21.390625 47.125 36.375 
Q 47.125 51.421875 43.28125 58.90625 
Q 39.453125 66.40625 31.78125 66.40625 
z
M 31.78125 74.21875 
Q 44.046875 74.21875 50.515625 64.515625 
Q 56.984375 54.828125 56.984375 36.375 
Q 56.984375 17.96875 50.515625 8.265625 
Q 44.046875 -1.421875 31.78125 -1.421875 
Q 19.53125 -1.421875 13.0625 8.265625 
Q 6.59375 17.96875 6.59375 36.375 
Q 6.59375 54.828125 13.0625 64.515625 
Q 19.53125 74.21875 31.78125 74.21875 
z
" id="DejaVuSans-48"/>
      </defs>
      <g transform="translate(135.255114 399.078438)scale(0.1 -0.1)">
       <use xlink:href="#DejaVuSans-48"/>
      </g>
     </g>
    </g>
    <g id="xtick_2">
     <g id="line2d_2">
      <g>
       <use style="stroke:#000000;stroke-width:0.8;" x="229.020779" xlink:href="#m3b4a0559ec" y="384.48"/>
      </g>
     </g>
     <g id="text_2">
      <!-- 250 -->
      <defs>
       <path d="M 19.1875 8.296875 
L 53.609375 8.296875 
L 53.609375 0 
L 7.328125 0 
L 7.328125 8.296875 
Q 12.9375 14.109375 22.625 23.890625 
Q 32.328125 33.6875 34.8125 36.53125 
Q 39.546875 41.84375 41.421875 45.53125 
Q 43.3125 49.21875 43.3125 52.78125 
Q 43.3125 58.59375 39.234375 62.25 
Q 35.15625 65.921875 28.609375 65.921875 
Q 23.96875 65.921875 18.8125 64.3125 
Q 13.671875 62.703125 7.8125 59.421875 
L 7.8125 69.390625 
Q 13.765625 71.78125 18.9375 73 
Q 24.125 74.21875 28.421875 74.21875 
Q 39.75 74.21875 46.484375 68.546875 
Q 53.21875 62.890625 53.21875 53.421875 
Q 53.21875 48.921875 51.53125 44.890625 
Q 49.859375 40.875 45.40625 35.40625 
Q 44.1875 33.984375 37.640625 27.21875 
Q 31.109375 20.453125 19.1875 8.296875 
z
" id="DejaVuSans-50"/>
       <path d="M 10.796875 72.90625 
L 49.515625 72.90625 
L 49.515625 64.59375 
L 19.828125 64.59375 
L 19.828125 46.734375 
Q 21.96875 47.46875 24.109375 47.828125 
Q 26.265625 48.1875 28.421875 48.1875 
Q 40.625 48.1875 47.75 41.5 
Q 54.890625 34.8125 54.890625 23.390625 
Q 54.890625 11.625 47.5625 5.09375 
Q 40.234375 -1.421875 26.90625 -1.421875 
Q 22.3125 -1.421875 17.546875 -0.640625 
Q 12.796875 0.140625 7.71875 1.703125 
L 7.71875 11.625 
Q 12.109375 9.234375 16.796875 8.0625 
Q 21.484375 6.890625 26.703125 6.890625 
Q 35.15625 6.890625 40.078125 11.328125 
Q 45.015625 15.765625 45.015625 23.390625 
Q 45.015625 31 40.078125 35.4375 
Q 35.15625 39.890625 26.703125 39.890625 
Q 22.75 39.890625 18.8125 39.015625 
Q 14.890625 38.140625 10.796875 36.28125 
z
" id="DejaVuSans-53"/>
      </defs>
      <g transform="translate(219.477029 399.078438)scale(0.1 -0.1)">
       <use xlink:href="#DejaVuSans-50"/>
       <use x="63.623047" xlink:href="#DejaVuSans-53"/>
       <use x="127.246094" xlink:href="#DejaVuSans-48"/>
      </g>
     </g>
    </g>
    <g id="xtick_3">
     <g id="line2d_3">
      <g>
       <use style="stroke:#000000;stroke-width:0.8;" x="319.605195" xlink:href="#m3b4a0559ec" y="384.48"/>
      </g>
     </g>
     <g id="text_3">
      <!-- 500 -->
      <g transform="translate(310.061445 399.078438)scale(0.1 -0.1)">
       <use xlink:href="#DejaVuSans-53"/>
       <use x="63.623047" xlink:href="#DejaVuSans-48"/>
       <use x="127.246094" xlink:href="#DejaVuSans-48"/>
      </g>
     </g>
    </g>
    <g id="xtick_4">
     <g id="line2d_4">
      <g>
       <use style="stroke:#000000;stroke-width:0.8;" x="410.18961" xlink:href="#m3b4a0559ec" y="384.48"/>
      </g>
     </g>
     <g id="text_4">
      <!-- 750 -->
      <defs>
       <path d="M 8.203125 72.90625 
L 55.078125 72.90625 
L 55.078125 68.703125 
L 28.609375 0 
L 18.3125 0 
L 43.21875 64.59375 
L 8.203125 64.59375 
z
" id="DejaVuSans-55"/>
      </defs>
      <g transform="translate(400.64586 399.078438)scale(0.1 -0.1)">
       <use xlink:href="#DejaVuSans-55"/>
       <use x="63.623047" xlink:href="#DejaVuSans-53"/>
       <use x="127.246094" xlink:href="#DejaVuSans-48"/>
      </g>
     </g>
    </g>
    <g id="xtick_5">
     <g id="line2d_5">
      <g>
       <use style="stroke:#000000;stroke-width:0.8;" x="500.774026" xlink:href="#m3b4a0559ec" y="384.48"/>
      </g>
     </g>
     <g id="text_5">
      <!-- 1000 -->
      <defs>
       <path d="M 12.40625 8.296875 
L 28.515625 8.296875 
L 28.515625 63.921875 
L 10.984375 60.40625 
L 10.984375 69.390625 
L 28.421875 72.90625 
L 38.28125 72.90625 
L 38.28125 8.296875 
L 54.390625 8.296875 
L 54.390625 0 
L 12.40625 0 
z
" id="DejaVuSans-49"/>
      </defs>
      <g transform="translate(488.049026 399.078438)scale(0.1 -0.1)">
       <use xlink:href="#DejaVuSans-49"/>
       <use x="63.623047" xlink:href="#DejaVuSans-48"/>
       <use x="127.246094" xlink:href="#DejaVuSans-48"/>
       <use x="190.869141" xlink:href="#DejaVuSans-48"/>
      </g>
     </g>
    </g>
    <g id="xtick_6">
     <g id="line2d_6">
      <g>
       <use style="stroke:#000000;stroke-width:0.8;" x="591.358442" xlink:href="#m3b4a0559ec" y="384.48"/>
      </g>
     </g>
     <g id="text_6">
      <!-- 1250 -->
      <g transform="translate(578.633442 399.078438)scale(0.1 -0.1)">
       <use xlink:href="#DejaVuSans-49"/>
       <use x="63.623047" xlink:href="#DejaVuSans-50"/>
       <use x="127.246094" xlink:href="#DejaVuSans-53"/>
       <use x="190.869141" xlink:href="#DejaVuSans-48"/>
      </g>
     </g>
    </g>
    <g id="xtick_7">
     <g id="line2d_7">
      <g>
       <use style="stroke:#000000;stroke-width:0.8;" x="681.942857" xlink:href="#m3b4a0559ec" y="384.48"/>
      </g>
     </g>
     <g id="text_7">
      <!-- 1500 -->
      <g transform="translate(669.217857 399.078438)scale(0.1 -0.1)">
       <use xlink:href="#DejaVuSans-49"/>
       <use x="63.623047" xlink:href="#DejaVuSans-53"/>
       <use x="127.246094" xlink:href="#DejaVuSans-48"/>
       <use x="190.869141" xlink:href="#DejaVuSans-48"/>
      </g>
     </g>
    </g>
    <g id="xtick_8">
     <g id="line2d_8">
      <g>
       <use style="stroke:#000000;stroke-width:0.8;" x="772.527273" xlink:href="#m3b4a0559ec" y="384.48"/>
      </g>
     </g>
     <g id="text_8">
      <!-- 1750 -->
      <g transform="translate(759.802273 399.078438)scale(0.1 -0.1)">
       <use xlink:href="#DejaVuSans-49"/>
       <use x="63.623047" xlink:href="#DejaVuSans-55"/>
       <use x="127.246094" xlink:href="#DejaVuSans-53"/>
       <use x="190.869141" xlink:href="#DejaVuSans-48"/>
      </g>
     </g>
    </g>
    <g id="text_9">
     <!-- Timestamp -->
     <defs>
      <path d="M -0.296875 72.90625 
L 61.375 72.90625 
L 61.375 64.59375 
L 35.5 64.59375 
L 35.5 0 
L 25.59375 0 
L 25.59375 64.59375 
L -0.296875 64.59375 
z
" id="DejaVuSans-84"/>
      <path d="M 9.421875 54.6875 
L 18.40625 54.6875 
L 18.40625 0 
L 9.421875 0 
z
M 9.421875 75.984375 
L 18.40625 75.984375 
L 18.40625 64.59375 
L 9.421875 64.59375 
z
" id="DejaVuSans-105"/>
      <path d="M 52 44.1875 
Q 55.375 50.25 60.0625 53.125 
Q 64.75 56 71.09375 56 
Q 79.640625 56 84.28125 50.015625 
Q 88.921875 44.046875 88.921875 33.015625 
L 88.921875 0 
L 79.890625 0 
L 79.890625 32.71875 
Q 79.890625 40.578125 77.09375 44.375 
Q 74.3125 48.1875 68.609375 48.1875 
Q 61.625 48.1875 57.5625 43.546875 
Q 53.515625 38.921875 53.515625 30.90625 
L 53.515625 0 
L 44.484375 0 
L 44.484375 32.71875 
Q 44.484375 40.625 41.703125 44.40625 
Q 38.921875 48.1875 33.109375 48.1875 
Q 26.21875 48.1875 22.15625 43.53125 
Q 18.109375 38.875 18.109375 30.90625 
L 18.109375 0 
L 9.078125 0 
L 9.078125 54.6875 
L 18.109375 54.6875 
L 18.109375 46.1875 
Q 21.1875 51.21875 25.484375 53.609375 
Q 29.78125 56 35.6875 56 
Q 41.65625 56 45.828125 52.96875 
Q 50 49.953125 52 44.1875 
z
" id="DejaVuSans-109"/>
      <path d="M 56.203125 29.59375 
L 56.203125 25.203125 
L 14.890625 25.203125 
Q 15.484375 15.921875 20.484375 11.0625 
Q 25.484375 6.203125 34.421875 6.203125 
Q 39.59375 6.203125 44.453125 7.46875 
Q 49.3125 8.734375 54.109375 11.28125 
L 54.109375 2.78125 
Q 49.265625 0.734375 44.1875 -0.34375 
Q 39.109375 -1.421875 33.890625 -1.421875 
Q 20.796875 -1.421875 13.15625 6.1875 
Q 5.515625 13.8125 5.515625 26.8125 
Q 5.515625 40.234375 12.765625 48.109375 
Q 20.015625 56 32.328125 56 
Q 43.359375 56 49.78125 48.890625 
Q 56.203125 41.796875 56.203125 29.59375 
z
M 47.21875 32.234375 
Q 47.125 39.59375 43.09375 43.984375 
Q 39.0625 48.390625 32.421875 48.390625 
Q 24.90625 48.390625 20.390625 44.140625 
Q 15.875 39.890625 15.1875 32.171875 
z
" id="DejaVuSans-101"/>
      <path d="M 44.28125 53.078125 
L 44.28125 44.578125 
Q 40.484375 46.53125 36.375 47.5 
Q 32.28125 48.484375 27.875 48.484375 
Q 21.1875 48.484375 17.84375 46.4375 
Q 14.5 44.390625 14.5 40.28125 
Q 14.5 37.15625 16.890625 35.375 
Q 19.28125 33.59375 26.515625 31.984375 
L 29.59375 31.296875 
Q 39.15625 29.25 43.1875 25.515625 
Q 47.21875 21.78125 47.21875 15.09375 
Q 47.21875 7.46875 41.1875 3.015625 
Q 35.15625 -1.421875 24.609375 -1.421875 
Q 20.21875 -1.421875 15.453125 -0.5625 
Q 10.6875 0.296875 5.421875 2 
L 5.421875 11.28125 
Q 10.40625 8.6875 15.234375 7.390625 
Q 20.0625 6.109375 24.8125 6.109375 
Q 31.15625 6.109375 34.5625 8.28125 
Q 37.984375 10.453125 37.984375 14.40625 
Q 37.984375 18.0625 35.515625 20.015625 
Q 33.0625 21.96875 24.703125 23.78125 
L 21.578125 24.515625 
Q 13.234375 26.265625 9.515625 29.90625 
Q 5.8125 33.546875 5.8125 39.890625 
Q 5.8125 47.609375 11.28125 51.796875 
Q 16.75 56 26.8125 56 
Q 31.78125 56 36.171875 55.265625 
Q 40.578125 54.546875 44.28125 53.078125 
z
" id="DejaVuSans-115"/>
      <path d="M 18.3125 70.21875 
L 18.3125 54.6875 
L 36.8125 54.6875 
L 36.8125 47.703125 
L 18.3125 47.703125 
L 18.3125 18.015625 
Q 18.3125 11.328125 20.140625 9.421875 
Q 21.96875 7.515625 27.59375 7.515625 
L 36.8125 7.515625 
L 36.8125 0 
L 27.59375 0 
Q 17.1875 0 13.234375 3.875 
Q 9.28125 7.765625 9.28125 18.015625 
L 9.28125 47.703125 
L 2.6875 47.703125 
L 2.6875 54.6875 
L 9.28125 54.6875 
L 9.28125 70.21875 
z
" id="DejaVuSans-116"/>
      <path d="M 34.28125 27.484375 
Q 23.390625 27.484375 19.1875 25 
Q 14.984375 22.515625 14.984375 16.5 
Q 14.984375 11.71875 18.140625 8.90625 
Q 21.296875 6.109375 26.703125 6.109375 
Q 34.1875 6.109375 38.703125 11.40625 
Q 43.21875 16.703125 43.21875 25.484375 
L 43.21875 27.484375 
z
M 52.203125 31.203125 
L 52.203125 0 
L 43.21875 0 
L 43.21875 8.296875 
Q 40.140625 3.328125 35.546875 0.953125 
Q 30.953125 -1.421875 24.3125 -1.421875 
Q 15.921875 -1.421875 10.953125 3.296875 
Q 6 8.015625 6 15.921875 
Q 6 25.140625 12.171875 29.828125 
Q 18.359375 34.515625 30.609375 34.515625 
L 43.21875 34.515625 
L 43.21875 35.40625 
Q 43.21875 41.609375 39.140625 45 
Q 35.0625 48.390625 27.6875 48.390625 
Q 23 48.390625 18.546875 47.265625 
Q 14.109375 46.140625 10.015625 43.890625 
L 10.015625 52.203125 
Q 14.9375 54.109375 19.578125 55.046875 
Q 24.21875 56 28.609375 56 
Q 40.484375 56 46.34375 49.84375 
Q 52.203125 43.703125 52.203125 31.203125 
z
" id="DejaVuSans-97"/>
      <path d="M 18.109375 8.203125 
L 18.109375 -20.796875 
L 9.078125 -20.796875 
L 9.078125 54.6875 
L 18.109375 54.6875 
L 18.109375 46.390625 
Q 20.953125 51.265625 25.265625 53.625 
Q 29.59375 56 35.59375 56 
Q 45.5625 56 51.78125 48.09375 
Q 58.015625 40.1875 58.015625 27.296875 
Q 58.015625 14.40625 51.78125 6.484375 
Q 45.5625 -1.421875 35.59375 -1.421875 
Q 29.59375 -1.421875 25.265625 0.953125 
Q 20.953125 3.328125 18.109375 8.203125 
z
M 48.6875 27.296875 
Q 48.6875 37.203125 44.609375 42.84375 
Q 40.53125 48.484375 33.40625 48.484375 
Q 26.265625 48.484375 22.1875 42.84375 
Q 18.109375 37.203125 18.109375 27.296875 
Q 18.109375 17.390625 22.1875 11.75 
Q 26.265625 6.109375 33.40625 6.109375 
Q 40.53125 6.109375 44.609375 11.75 
Q 48.6875 17.390625 48.6875 27.296875 
z
" id="DejaVuSans-112"/>
     </defs>
     <g transform="translate(414.739062 412.756563)scale(0.1 -0.1)">
      <use xlink:href="#DejaVuSans-84"/>
      <use x="61.037109" xlink:href="#DejaVuSans-105"/>
      <use x="88.820312" xlink:href="#DejaVuSans-109"/>
      <use x="186.232422" xlink:href="#DejaVuSans-101"/>
      <use x="247.755859" xlink:href="#DejaVuSans-115"/>
      <use x="299.855469" xlink:href="#DejaVuSans-116"/>
      <use x="339.064453" xlink:href="#DejaVuSans-97"/>
      <use x="400.34375" xlink:href="#DejaVuSans-109"/>
      <use x="497.755859" xlink:href="#DejaVuSans-112"/>
     </g>
    </g>
   </g>
   <g id="matplotlib.axis_2">
    <g id="ytick_1">
     <g id="line2d_9">
      <defs>
       <path d="M 0 0 
L -3.5 0 
" id="m0f82928ca2" style="stroke:#000000;stroke-width:0.8;"/>
      </defs>
      <g>
       <use style="stroke:#000000;stroke-width:0.8;" x="108" xlink:href="#m0f82928ca2" y="361.576552"/>
      </g>
     </g>
     <g id="text_10">
      <!-- −6000 -->
      <defs>
       <path d="M 10.59375 35.5 
L 73.1875 35.5 
L 73.1875 27.203125 
L 10.59375 27.203125 
z
" id="DejaVuSans-8722"/>
       <path d="M 33.015625 40.375 
Q 26.375 40.375 22.484375 35.828125 
Q 18.609375 31.296875 18.609375 23.390625 
Q 18.609375 15.53125 22.484375 10.953125 
Q 26.375 6.390625 33.015625 6.390625 
Q 39.65625 6.390625 43.53125 10.953125 
Q 47.40625 15.53125 47.40625 23.390625 
Q 47.40625 31.296875 43.53125 35.828125 
Q 39.65625 40.375 33.015625 40.375 
z
M 52.59375 71.296875 
L 52.59375 62.3125 
Q 48.875 64.0625 45.09375 64.984375 
Q 41.3125 65.921875 37.59375 65.921875 
Q 27.828125 65.921875 22.671875 59.328125 
Q 17.53125 52.734375 16.796875 39.40625 
Q 19.671875 43.65625 24.015625 45.921875 
Q 28.375 48.1875 33.59375 48.1875 
Q 44.578125 48.1875 50.953125 41.515625 
Q 57.328125 34.859375 57.328125 23.390625 
Q 57.328125 12.15625 50.6875 5.359375 
Q 44.046875 -1.421875 33.015625 -1.421875 
Q 20.359375 -1.421875 13.671875 8.265625 
Q 6.984375 17.96875 6.984375 36.375 
Q 6.984375 53.65625 15.1875 63.9375 
Q 23.390625 74.21875 37.203125 74.21875 
Q 40.921875 74.21875 44.703125 73.484375 
Q 48.484375 72.75 52.59375 71.296875 
z
" id="DejaVuSans-54"/>
      </defs>
      <g transform="translate(67.170312 365.37577)scale(0.1 -0.1)">
       <use xlink:href="#DejaVuSans-8722"/>
       <use x="83.789062" xlink:href="#DejaVuSans-54"/>
       <use x="147.412109" xlink:href="#DejaVuSans-48"/>
       <use x="211.035156" xlink:href="#DejaVuSans-48"/>
       <use x="274.658203" xlink:href="#DejaVuSans-48"/>
      </g>
     </g>
    </g>
    <g id="ytick_2">
     <g id="line2d_10">
      <g>
       <use style="stroke:#000000;stroke-width:0.8;" x="108" xlink:href="#m0f82928ca2" y="320.856146"/>
      </g>
     </g>
     <g id="text_11">
      <!-- −5000 -->
      <g transform="translate(67.170312 324.655365)scale(0.1 -0.1)">
       <use xlink:href="#DejaVuSans-8722"/>
       <use x="83.789062" xlink:href="#DejaVuSans-53"/>
       <use x="147.412109" xlink:href="#DejaVuSans-48"/>
       <use x="211.035156" xlink:href="#DejaVuSans-48"/>
       <use x="274.658203" xlink:href="#DejaVuSans-48"/>
      </g>
     </g>
    </g>
    <g id="ytick_3">
     <g id="line2d_11">
      <g>
       <use style="stroke:#000000;stroke-width:0.8;" x="108" xlink:href="#m0f82928ca2" y="280.135741"/>
      </g>
     </g>
     <g id="text_12">
      <!-- −4000 -->
      <defs>
       <path d="M 37.796875 64.3125 
L 12.890625 25.390625 
L 37.796875 25.390625 
z
M 35.203125 72.90625 
L 47.609375 72.90625 
L 47.609375 25.390625 
L 58.015625 25.390625 
L 58.015625 17.1875 
L 47.609375 17.1875 
L 47.609375 0 
L 37.796875 0 
L 37.796875 17.1875 
L 4.890625 17.1875 
L 4.890625 26.703125 
z
" id="DejaVuSans-52"/>
      </defs>
      <g transform="translate(67.170312 283.93496)scale(0.1 -0.1)">
       <use xlink:href="#DejaVuSans-8722"/>
       <use x="83.789062" xlink:href="#DejaVuSans-52"/>
       <use x="147.412109" xlink:href="#DejaVuSans-48"/>
       <use x="211.035156" xlink:href="#DejaVuSans-48"/>
       <use x="274.658203" xlink:href="#DejaVuSans-48"/>
      </g>
     </g>
    </g>
    <g id="ytick_4">
     <g id="line2d_12">
      <g>
       <use style="stroke:#000000;stroke-width:0.8;" x="108" xlink:href="#m0f82928ca2" y="239.415336"/>
      </g>
     </g>
     <g id="text_13">
      <!-- −3000 -->
      <defs>
       <path d="M 40.578125 39.3125 
Q 47.65625 37.796875 51.625 33 
Q 55.609375 28.21875 55.609375 21.1875 
Q 55.609375 10.40625 48.1875 4.484375 
Q 40.765625 -1.421875 27.09375 -1.421875 
Q 22.515625 -1.421875 17.65625 -0.515625 
Q 12.796875 0.390625 7.625 2.203125 
L 7.625 11.71875 
Q 11.71875 9.328125 16.59375 8.109375 
Q 21.484375 6.890625 26.8125 6.890625 
Q 36.078125 6.890625 40.9375 10.546875 
Q 45.796875 14.203125 45.796875 21.1875 
Q 45.796875 27.640625 41.28125 31.265625 
Q 36.765625 34.90625 28.71875 34.90625 
L 20.21875 34.90625 
L 20.21875 43.015625 
L 29.109375 43.015625 
Q 36.375 43.015625 40.234375 45.921875 
Q 44.09375 48.828125 44.09375 54.296875 
Q 44.09375 59.90625 40.109375 62.90625 
Q 36.140625 65.921875 28.71875 65.921875 
Q 24.65625 65.921875 20.015625 65.03125 
Q 15.375 64.15625 9.8125 62.3125 
L 9.8125 71.09375 
Q 15.4375 72.65625 20.34375 73.4375 
Q 25.25 74.21875 29.59375 74.21875 
Q 40.828125 74.21875 47.359375 69.109375 
Q 53.90625 64.015625 53.90625 55.328125 
Q 53.90625 49.265625 50.4375 45.09375 
Q 46.96875 40.921875 40.578125 39.3125 
z
" id="DejaVuSans-51"/>
      </defs>
      <g transform="translate(67.170312 243.214554)scale(0.1 -0.1)">
       <use xlink:href="#DejaVuSans-8722"/>
       <use x="83.789062" xlink:href="#DejaVuSans-51"/>
       <use x="147.412109" xlink:href="#DejaVuSans-48"/>
       <use x="211.035156" xlink:href="#DejaVuSans-48"/>
       <use x="274.658203" xlink:href="#DejaVuSans-48"/>
      </g>
     </g>
    </g>
    <g id="ytick_5">
     <g id="line2d_13">
      <g>
       <use style="stroke:#000000;stroke-width:0.8;" x="108" xlink:href="#m0f82928ca2" y="198.69493"/>
      </g>
     </g>
     <g id="text_14">
      <!-- −2000 -->
      <g transform="translate(67.170312 202.494149)scale(0.1 -0.1)">
       <use xlink:href="#DejaVuSans-8722"/>
       <use x="83.789062" xlink:href="#DejaVuSans-50"/>
       <use x="147.412109" xlink:href="#DejaVuSans-48"/>
       <use x="211.035156" xlink:href="#DejaVuSans-48"/>
       <use x="274.658203" xlink:href="#DejaVuSans-48"/>
      </g>
     </g>
    </g>
    <g id="ytick_6">
     <g id="line2d_14">
      <g>
       <use style="stroke:#000000;stroke-width:0.8;" x="108" xlink:href="#m0f82928ca2" y="157.974525"/>
      </g>
     </g>
     <g id="text_15">
      <!-- −1000 -->
      <g transform="translate(67.170312 161.773744)scale(0.1 -0.1)">
       <use xlink:href="#DejaVuSans-8722"/>
       <use x="83.789062" xlink:href="#DejaVuSans-49"/>
       <use x="147.412109" xlink:href="#DejaVuSans-48"/>
       <use x="211.035156" xlink:href="#DejaVuSans-48"/>
       <use x="274.658203" xlink:href="#DejaVuSans-48"/>
      </g>
     </g>
    </g>
    <g id="ytick_7">
     <g id="line2d_15">
      <g>
       <use style="stroke:#000000;stroke-width:0.8;" x="108" xlink:href="#m0f82928ca2" y="117.25412"/>
      </g>
     </g>
     <g id="text_16">
      <!-- 0 -->
      <g transform="translate(94.6375 121.053339)scale(0.1 -0.1)">
       <use xlink:href="#DejaVuSans-48"/>
      </g>
     </g>
    </g>
    <g id="ytick_8">
     <g id="line2d_16">
      <g>
       <use style="stroke:#000000;stroke-width:0.8;" x="108" xlink:href="#m0f82928ca2" y="76.533715"/>
      </g>
     </g>
     <g id="text_17">
      <!-- 1000 -->
      <g transform="translate(75.55 80.332933)scale(0.1 -0.1)">
       <use xlink:href="#DejaVuSans-49"/>
       <use x="63.623047" xlink:href="#DejaVuSans-48"/>
       <use x="127.246094" xlink:href="#DejaVuSans-48"/>
       <use x="190.869141" xlink:href="#DejaVuSans-48"/>
      </g>
     </g>
    </g>
    <g id="text_18">
     <!-- Value -->
     <defs>
      <path d="M 28.609375 0 
L 0.78125 72.90625 
L 11.078125 72.90625 
L 34.1875 11.53125 
L 57.328125 72.90625 
L 67.578125 72.90625 
L 39.796875 0 
z
" id="DejaVuSans-86"/>
      <path d="M 9.421875 75.984375 
L 18.40625 75.984375 
L 18.40625 0 
L 9.421875 0 
z
" id="DejaVuSans-108"/>
      <path d="M 8.5 21.578125 
L 8.5 54.6875 
L 17.484375 54.6875 
L 17.484375 21.921875 
Q 17.484375 14.15625 20.5 10.265625 
Q 23.53125 6.390625 29.59375 6.390625 
Q 36.859375 6.390625 41.078125 11.03125 
Q 45.3125 15.671875 45.3125 23.6875 
L 45.3125 54.6875 
L 54.296875 54.6875 
L 54.296875 0 
L 45.3125 0 
L 45.3125 8.40625 
Q 42.046875 3.421875 37.71875 1 
Q 33.40625 -1.421875 27.6875 -1.421875 
Q 18.265625 -1.421875 13.375 4.4375 
Q 8.5 10.296875 8.5 21.578125 
z
M 31.109375 56 
z
" id="DejaVuSans-117"/>
     </defs>
     <g transform="translate(61.090625 232.273281)rotate(-90)scale(0.1 -0.1)">
      <use xlink:href="#DejaVuSans-86"/>
      <use x="68.298828" xlink:href="#DejaVuSans-97"/>
      <use x="129.578125" xlink:href="#DejaVuSans-108"/>
      <use x="157.361328" xlink:href="#DejaVuSans-117"/>
      <use x="220.740234" xlink:href="#DejaVuSans-101"/>
     </g>
    </g>
   </g>
   <g id="line2d_17">
    <path clip-path="url(#p8132406ad6)" d="M 138.436364 118.745427 
L 138.798701 103.55362 
L 139.161039 83.397408 
L 139.885714 72.995038 
L 140.248052 86.503767 
L 140.61039 94.993803 
L 141.335065 114.424747 
L 142.05974 119.91707 
L 142.422078 119.677509 
L 142.784416 110.049488 
L 143.509091 100.751833 
L 143.871429 100.768023 
L 144.233766 111.850886 
L 144.596104 113.934797 
L 144.958442 134.759419 
L 145.320779 144.688986 
L 145.683117 146.838758 
L 146.045455 156.765313 
L 146.407792 139.06505 
L 146.77013 127.840495 
L 147.132468 112.400148 
L 147.494805 88.11085 
L 147.857143 74.74655 
L 148.581818 66.96 
L 149.668831 99.460739 
L 150.031169 110.953586 
L 150.755844 121.521919 
L 151.118182 116.696508 
L 151.842857 99.523727 
L 152.205195 96.296206 
L 152.567532 106.465123 
L 152.92987 102.754607 
L 153.654545 120.335008 
L 154.016883 141.061783 
L 154.379221 149.251176 
L 154.741558 148.266518 
L 155.103896 141.50067 
L 155.466234 127.044414 
L 156.190909 85.513402 
L 156.553247 76.083082 
L 156.915584 72.673639 
L 157.277922 75.206721 
L 157.64026 74.971246 
L 158.727273 117.776901 
L 159.08961 122.740573 
L 159.451948 124.817814 
L 159.814286 120.588486 
L 160.176623 108.146014 
L 160.538961 107.040526 
L 160.901299 102.932126 
L 161.263636 104.83808 
L 162.350649 139.924035 
L 162.712987 144.206303 
L 163.075325 145.185914 
L 163.437662 159.751004 
L 163.8 154.449717 
L 164.524675 121.598354 
L 164.887013 99.116718 
L 165.249351 95.801787 
L 165.611688 72.148309 
L 167.061039 115.528113 
L 167.423377 123.91533 
L 167.785714 138.15487 
L 168.148052 140.377094 
L 168.51039 128.666784 
L 168.872727 129.973358 
L 169.235065 120.152165 
L 169.597403 122.007627 
L 169.95974 119.322385 
L 170.322078 126.123235 
L 170.684416 144.734166 
L 171.046753 147.365085 
L 171.771429 171.369047 
L 172.133766 176.091444 
L 172.496104 166.240062 
L 172.858442 148.38342 
L 173.220779 137.503174 
L 173.583117 115.258708 
L 173.945455 101.237654 
L 174.307792 95.173806 
L 174.67013 102.16999 
L 175.032468 102.56391 
L 175.757143 125.230215 
L 176.119481 141.547849 
L 176.481818 151.114927 
L 176.844156 149.958385 
L 177.206494 148.234686 
L 177.568831 141.834537 
L 177.931169 140.604461 
L 178.293506 132.290092 
L 178.655844 134.99493 
L 179.018182 139.869182 
L 179.380519 147.572181 
L 179.742857 165.570933 
L 180.105195 175.352467 
L 180.467532 189.051251 
L 180.82987 180.779524 
L 181.192208 181.670885 
L 181.554545 158.207781 
L 181.916883 148.287731 
L 182.279221 123.41928 
L 182.641558 116.645781 
L 183.003896 104.736538 
L 183.366234 104.786715 
L 183.728571 106.40807 
L 184.453247 145.334443 
L 184.815584 150.05897 
L 185.177922 151.876725 
L 185.54026 159.310396 
L 185.902597 154.590502 
L 186.264935 153.80158 
L 186.627273 139.552677 
L 186.98961 140.186905 
L 187.351948 141.091251 
L 187.714286 145.359506 
L 188.076623 154.93761 
L 188.801299 181.375266 
L 189.163636 183.210173 
L 189.525974 184.260786 
L 189.888312 177.316947 
L 190.612987 150.658806 
L 190.975325 118.014925 
L 191.337662 117.884281 
L 191.7 103.782679 
L 192.062338 97.730536 
L 192.424675 112.746286 
L 192.787013 133.677794 
L 193.149351 143.480467 
L 193.511688 140.100145 
L 193.874026 153.509451 
L 194.236364 156.003814 
L 194.598701 151.119618 
L 194.961039 138.139691 
L 195.323377 132.707509 
L 195.685714 130.652699 
L 196.048052 123.677151 
L 196.41039 132.864201 
L 197.497403 182.505586 
L 197.85974 183.065249 
L 198.584416 169.47165 
L 198.946753 159.746374 
L 199.309091 134.534193 
L 199.671429 123.57802 
L 200.396104 93.964476 
L 200.758442 100.029773 
L 201.120779 109.589545 
L 201.483117 110.147866 
L 202.207792 142.821168 
L 202.57013 142.75652 
L 202.932468 142.564159 
L 203.657143 134.461254 
L 204.381818 115.656164 
L 204.744156 116.248662 
L 205.106494 124.661434 
L 206.555844 175.390611 
L 206.918182 174.804901 
L 208.005195 132.424983 
L 208.72987 97.171628 
L 209.092208 80.816626 
L 209.454545 95.689303 
L 209.816883 99.679288 
L 210.179221 106.077303 
L 210.541558 120.639471 
L 210.903896 127.680497 
L 211.628571 143.99468 
L 211.990909 135.179768 
L 212.353247 129.679621 
L 213.077922 112.08461 
L 213.44026 121.237029 
L 213.802597 125.395903 
L 214.164935 132.996003 
L 214.88961 163.097501 
L 215.251948 170.273144 
L 215.614286 172.072341 
L 215.976623 168.460146 
L 216.338961 152.503652 
L 216.701299 127.657663 
L 217.425974 98.515925 
L 218.150649 84.026281 
L 219.6 136.821448 
L 219.962338 140.955329 
L 220.324675 141.9468 
L 220.687013 141.58514 
L 221.049351 137.140802 
L 221.411688 125.56249 
L 221.774026 127.61451 
L 222.136364 125.367856 
L 223.223377 159.053459 
L 223.585714 173.031645 
L 223.948052 171.236004 
L 224.31039 183.481163 
L 224.672727 172.01955 
L 225.75974 118.087842 
L 226.122078 113.237563 
L 226.484416 101.285961 
L 226.846753 98.981603 
L 227.209091 103.927347 
L 227.933766 131.88579 
L 228.296104 143.828863 
L 228.658442 161.091173 
L 229.020779 156.467068 
L 229.383117 156.100611 
L 229.745455 145.487956 
L 230.107792 145.472934 
L 230.47013 135.359704 
L 230.832468 136.804515 
L 231.194805 152.3173 
L 231.557143 153.312781 
L 231.919481 177.924347 
L 232.644156 194.702529 
L 233.006494 193.245315 
L 233.368831 186.542614 
L 233.731169 177.600024 
L 234.455844 136.975405 
L 234.818182 122.48204 
L 235.180519 116.804918 
L 235.542857 121.211917 
L 235.905195 123.770253 
L 236.267532 138.367063 
L 236.62987 159.318655 
L 236.992208 166.589047 
L 237.354545 168.227871 
L 237.716883 174.035705 
L 238.079221 174.47576 
L 238.441558 159.206415 
L 239.166234 144.356203 
L 239.528571 155.502508 
L 239.890909 153.843588 
L 240.615584 190.232584 
L 241.34026 204.0993 
L 241.702597 206.610004 
L 242.064935 197.078241 
L 243.151948 146.883175 
L 243.876623 131.96115 
L 244.238961 123.971538 
L 245.325974 157.391114 
L 245.688312 176.932055 
L 246.050649 173.644687 
L 246.412987 182.664531 
L 246.775325 175.620003 
L 247.137662 166.071477 
L 247.5 160.257044 
L 247.862338 152.561485 
L 248.224675 164.394695 
L 248.587013 164.564989 
L 248.949351 178.67329 
L 249.311688 182.290833 
L 249.674026 202.423021 
L 250.036364 206.650665 
L 250.398701 205.564326 
L 250.761039 202.655441 
L 252.572727 119.756453 
L 252.935065 125.199059 
L 253.297403 133.097755 
L 254.384416 169.066622 
L 254.746753 177.170988 
L 255.471429 169.819206 
L 255.833766 158.719203 
L 256.196104 155.149067 
L 256.558442 147.721664 
L 256.920779 152.132852 
L 257.283117 162.456055 
L 257.645455 166.55416 
L 258.007792 188.26438 
L 258.37013 198.861757 
L 258.732468 190.122996 
L 259.094805 202.158104 
L 259.457143 195.038557 
L 259.819481 171.834827 
L 260.181818 159.056025 
L 260.544156 136.989268 
L 260.906494 125.060159 
L 261.268831 122.68692 
L 261.631169 117.67258 
L 261.993506 124.384366 
L 263.080519 161.357099 
L 263.442857 167.562606 
L 263.805195 165.195583 
L 264.167532 163.841657 
L 264.52987 157.763617 
L 264.892208 144.734345 
L 265.254545 142.616086 
L 265.616883 142.314902 
L 265.979221 148.414267 
L 266.341558 165.001078 
L 267.428571 196.053416 
L 267.790909 193.25068 
L 268.153247 187.791094 
L 269.24026 133.06576 
L 269.964935 107.276888 
L 270.327273 106.942229 
L 271.051948 129.656392 
L 271.414286 132.216662 
L 272.138961 162.386477 
L 272.863636 153.062531 
L 273.588312 135.782528 
L 273.950649 144.780461 
L 274.312987 134.375104 
L 274.675325 139.677661 
L 275.037662 158.413088 
L 275.4 164.687384 
L 275.762338 183.930746 
L 276.124675 194.229444 
L 276.849351 183.651109 
L 277.574026 148.902563 
L 277.936364 137.221063 
L 278.661039 107.535943 
L 279.023377 112.234647 
L 279.385714 113.884596 
L 280.11039 144.563901 
L 280.472727 154.592575 
L 281.197403 164.860466 
L 281.55974 158.258096 
L 281.922078 159.596049 
L 282.646753 140.695714 
L 283.009091 149.6153 
L 283.371429 150.278283 
L 284.096104 176.813026 
L 284.820779 200.619908 
L 285.183117 199.137226 
L 285.907792 174.571789 
L 286.27013 163.535597 
L 286.632468 137.382031 
L 287.357143 119.965912 
L 287.719481 126.168812 
L 288.081818 129.798585 
L 288.444156 144.594302 
L 289.168831 165.159456 
L 289.531169 180.888987 
L 289.893506 176.644684 
L 290.255844 170.766198 
L 290.618182 174.384471 
L 291.342857 152.538801 
L 292.067532 168.656586 
L 292.42987 186.720957 
L 292.792208 192.59385 
L 293.154545 205.618498 
L 293.516883 213.367723 
L 293.879221 210.024809 
L 294.241558 203.469685 
L 294.966234 179.550777 
L 295.690909 147.475461 
L 296.053247 145.999325 
L 296.415584 132.691402 
L 296.777922 143.578045 
L 297.502597 170.321573 
L 298.227273 190.932266 
L 298.58961 196.322372 
L 299.314286 189.099433 
L 299.676623 175.242506 
L 300.038961 177.082021 
L 300.401299 166.935787 
L 300.763636 182.735287 
L 301.125974 192.644676 
L 301.488312 210.279168 
L 301.850649 214.093851 
L 302.212987 223.433782 
L 302.575325 228.635977 
L 302.937662 220.625408 
L 303.3 209.969651 
L 304.024675 172.632088 
L 304.387013 153.028748 
L 305.111688 145.21827 
L 305.474026 157.388708 
L 305.836364 164.844675 
L 306.198701 176.247655 
L 306.561039 193.998266 
L 307.285714 201.212128 
L 307.648052 201.526275 
L 308.01039 186.346057 
L 308.372727 183.139908 
L 308.735065 175.920166 
L 309.097403 174.498239 
L 309.822078 195.062535 
L 310.184416 215.788531 
L 310.909091 224.993194 
L 311.271429 233.84136 
L 311.633766 223.232653 
L 311.996104 199.042398 
L 312.358442 188.642446 
L 312.720779 160.998751 
L 313.083117 155.919306 
L 313.445455 144.719665 
L 313.807792 144.429302 
L 314.894805 180.367792 
L 315.257143 182.260718 
L 315.619481 194.021971 
L 315.981818 195.657919 
L 316.344156 191.585638 
L 316.706494 189.093609 
L 317.068831 170.438123 
L 317.431169 164.149959 
L 317.793506 166.916992 
L 318.155844 185.296641 
L 318.518182 187.401639 
L 318.880519 205.35608 
L 319.242857 211.724228 
L 319.605195 220.302493 
L 319.967532 221.991623 
L 320.32987 209.943697 
L 320.692208 202.996881 
L 321.779221 145.003143 
L 322.141558 131.827622 
L 322.503896 136.92593 
L 322.866234 146.306185 
L 323.590909 169.91619 
L 323.953247 173.771537 
L 324.315584 191.778021 
L 324.677922 182.185461 
L 325.04026 182.547241 
L 325.764935 168.114547 
L 326.127273 163.512368 
L 326.48961 164.435343 
L 326.851948 169.201841 
L 327.214286 180.630934 
L 327.576623 196.262429 
L 328.663636 219.959521 
L 329.388312 188.401817 
L 329.750649 176.692515 
L 330.112987 147.624279 
L 330.475325 133.98916 
L 330.837662 134.492664 
L 331.2 126.66785 
L 331.924675 144.081096 
L 332.287013 167.532952 
L 332.649351 175.621245 
L 333.011688 177.49875 
L 333.374026 178.537021 
L 333.736364 172.911657 
L 334.098701 169.470351 
L 334.461039 159.036897 
L 334.823377 158.358923 
L 335.185714 153.564675 
L 335.548052 157.938702 
L 336.272727 193.735175 
L 336.635065 200.838409 
L 336.997403 210.522735 
L 337.35974 213.63105 
L 337.722078 195.647695 
L 338.084416 190.552061 
L 338.446753 160.113581 
L 338.809091 152.068222 
L 339.533766 132.214003 
L 339.896104 137.140363 
L 340.258442 138.328078 
L 340.620779 153.81386 
L 340.983117 160.08399 
L 341.345455 177.577523 
L 341.707792 181.139048 
L 342.07013 189.88224 
L 342.432468 174.188573 
L 342.794805 175.369223 
L 343.519481 161.477317 
L 343.881818 164.500656 
L 344.606494 185.026749 
L 344.968831 201.095991 
L 345.331169 208.565405 
L 345.693506 221.779489 
L 346.055844 216.455578 
L 347.142857 186.684477 
L 347.505195 162.368747 
L 347.867532 149.12223 
L 348.22987 142.227092 
L 348.592208 142.285004 
L 348.954545 151.461239 
L 349.316883 167.088517 
L 350.766234 202.651827 
L 351.490909 187.128815 
L 351.853247 185.778081 
L 352.215584 177.303825 
L 352.577922 181.404655 
L 352.94026 184.023926 
L 354.027273 226.492212 
L 354.38961 232.879143 
L 354.751948 234.211185 
L 355.114286 228.202408 
L 355.476623 212.165875 
L 355.838961 203.411057 
L 356.201299 178.746118 
L 356.925974 163.22055 
L 357.288312 163.04493 
L 357.650649 168.016232 
L 358.375325 200.686249 
L 358.737662 201.295129 
L 359.1 218.587185 
L 359.462338 213.432982 
L 359.824675 203.575273 
L 360.187013 196.848418 
L 360.549351 204.933222 
L 360.911688 194.792308 
L 361.274026 193.206971 
L 361.636364 193.67426 
L 361.998701 214.964296 
L 363.085714 245.546414 
L 363.448052 251.684808 
L 363.81039 242.384512 
L 364.172727 230.122067 
L 365.25974 173.845016 
L 365.622078 167.972563 
L 366.346753 174.802581 
L 366.709091 192.841387 
L 367.071429 264.540033 
L 367.433766 219.251005 
L 367.796104 212.497898 
L 368.158442 224.360117 
L 368.520779 211.856957 
L 368.883117 210.83749 
L 369.245455 200.002623 
L 369.607792 196.816297 
L 369.97013 194.942129 
L 370.332468 205.368425 
L 370.694805 212.568757 
L 371.419481 240.710774 
L 371.781818 249.056583 
L 372.144156 251.869392 
L 373.231169 212.151338 
L 373.593506 186.431789 
L 373.955844 169.208533 
L 374.318182 166.942347 
L 374.680519 162.406141 
L 375.042857 171.604353 
L 376.12987 211.026705 
L 376.492208 212.874986 
L 376.854545 216.485084 
L 377.579221 208.75397 
L 377.941558 193.963002 
L 378.303896 188.583162 
L 378.666234 191.936685 
L 379.390909 211.931503 
L 379.753247 229.178549 
L 380.115584 227.889491 
L 380.84026 241.965476 
L 381.202597 235.217226 
L 381.927273 198.462908 
L 382.651948 161.760774 
L 383.014286 153.287861 
L 383.376623 153.482375 
L 383.738961 167.920823 
L 384.101299 173.591015 
L 384.463636 183.099782 
L 384.825974 203.364094 
L 385.188312 204.571243 
L 385.550649 196.368134 
L 385.912987 202.219795 
L 386.275325 199.744348 
L 387 180.914501 
L 387.362338 179.626941 
L 387.724675 187.562734 
L 388.449351 212.853137 
L 388.811688 220.754561 
L 389.174026 235.949432 
L 389.898701 220.731761 
L 390.261039 212.721132 
L 390.623377 197.804095 
L 391.348052 154.58298 
L 391.71039 152.779885 
L 392.072727 151.602964 
L 392.435065 156.518427 
L 392.797403 174.956717 
L 393.15974 177.15318 
L 393.522078 187.151451 
L 393.884416 202.192264 
L 394.246753 196.697314 
L 394.609091 194.586168 
L 394.971429 194.446476 
L 395.333766 179.801309 
L 395.696104 176.222239 
L 396.058442 179.850805 
L 396.420779 185.459958 
L 396.783117 193.582642 
L 397.507792 220.843683 
L 397.87013 228.918161 
L 398.232468 231.505057 
L 398.594805 223.206556 
L 399.681818 175.778761 
L 400.044156 159.358746 
L 400.406494 150.869564 
L 401.131169 161.572136 
L 401.493506 169.07763 
L 401.855844 188.838084 
L 402.580519 204.290318 
L 402.942857 208.977134 
L 403.305195 195.696265 
L 403.667532 193.994327 
L 404.02987 190.382928 
L 404.392208 185.503643 
L 404.754545 187.472917 
L 405.116883 192.014007 
L 405.841558 223.243366 
L 406.566234 244.175473 
L 406.928571 242.008572 
L 407.290909 235.322511 
L 407.653247 225.87787 
L 408.74026 172.278778 
L 409.102597 161.678102 
L 409.464935 161.791351 
L 409.827273 173.038593 
L 410.18961 180.775526 
L 410.551948 198.643329 
L 411.276623 218.570989 
L 411.638961 220.001887 
L 412.001299 212.919268 
L 412.363636 202.114345 
L 412.725974 204.396468 
L 413.088312 200.598672 
L 413.450649 200.39985 
L 414.9 246.409456 
L 415.262338 249.072543 
L 415.624675 255.25948 
L 416.349351 241.044275 
L 416.711688 213.654032 
L 417.074026 201.786302 
L 417.436364 183.102388 
L 417.798701 184.528508 
L 418.161039 177.663065 
L 418.523377 187.103432 
L 419.61039 228.407191 
L 419.972727 232.680432 
L 420.335065 231.757208 
L 420.697403 229.04264 
L 421.784416 213.1112 
L 422.146753 212.650476 
L 422.509091 227.164031 
L 423.233766 247.538278 
L 423.596104 262.044517 
L 423.958442 267.361448 
L 424.320779 270.781157 
L 424.683117 262.074635 
L 426.132468 199.163752 
L 426.494805 189.176566 
L 426.857143 191.547609 
L 427.219481 195.726279 
L 427.581818 207.524248 
L 428.306494 235.415404 
L 428.668831 245.139539 
L 429.031169 242.227375 
L 429.393506 234.342439 
L 429.755844 230.531675 
L 430.118182 220.351248 
L 430.480519 224.867537 
L 430.842857 220.575437 
L 431.205195 223.327273 
L 431.567532 243.186441 
L 431.92987 251.973711 
L 432.292208 267.224907 
L 432.654545 264.070396 
L 433.016883 272.125519 
L 433.741558 247.692825 
L 434.466234 212.18944 
L 434.828571 196.678905 
L 435.190909 193.571181 
L 435.553247 184.59304 
L 436.277922 215.34489 
L 437.364935 237.685688 
L 437.727273 234.989914 
L 438.08961 228.751776 
L 438.451948 225.888547 
L 438.814286 214.421736 
L 439.538961 216.944346 
L 439.901299 224.633424 
L 440.263636 227.325969 
L 440.625974 241.882566 
L 440.988312 248.401724 
L 441.350649 263.741222 
L 441.712987 260.814002 
L 442.075325 251.461204 
L 442.437662 237.949497 
L 443.524675 181.675937 
L 443.887013 181.398931 
L 444.249351 178.029334 
L 444.611688 184.811879 
L 445.698701 223.816165 
L 446.061039 235.164162 
L 446.423377 234.542773 
L 447.148052 211.491474 
L 447.51039 213.870314 
L 447.872727 201.178301 
L 448.95974 220.182782 
L 449.322078 235.548548 
L 450.046753 254.763266 
L 450.409091 258.502522 
L 450.771429 248.089821 
L 451.133766 231.333013 
L 451.496104 208.845065 
L 452.583117 169.755218 
L 452.945455 169.625925 
L 453.307792 180.473292 
L 453.67013 187.2 
L 454.032468 204.415456 
L 454.394805 212.126779 
L 454.757143 227.107937 
L 455.119481 224.476448 
L 455.481818 211.180522 
L 455.844156 214.374485 
L 456.206494 202.616139 
L 456.568831 200.844647 
L 456.931169 197.129991 
L 457.293506 207.345581 
L 458.018182 236.156436 
L 458.742857 253.881041 
L 459.105195 246.938473 
L 459.467532 242.16491 
L 460.192208 214.444446 
L 460.554545 191.018418 
L 460.916883 176.110372 
L 461.279221 171.997188 
L 461.641558 183.072352 
L 462.003896 175.563094 
L 462.366234 198.073823 
L 462.728571 204.373494 
L 463.090909 216.54205 
L 463.453247 221.758266 
L 463.815584 223.76836 
L 464.177922 220.761819 
L 464.54026 211.298378 
L 464.902597 209.922607 
L 465.264935 209.057416 
L 465.627273 214.398073 
L 465.98961 216.315447 
L 466.351948 221.770845 
L 466.714286 241.204772 
L 467.076623 249.720989 
L 467.438961 262.514673 
L 467.801299 261.570464 
L 468.525974 243.335213 
L 468.888312 222.420629 
L 469.612987 194.710393 
L 469.975325 187.803919 
L 470.337662 192.078357 
L 470.7 190.726883 
L 471.424675 222.361053 
L 471.787013 234.316725 
L 472.149351 240.543201 
L 472.511688 235.535724 
L 472.874026 238.568684 
L 473.598701 218.655419 
L 473.961039 222.812969 
L 474.323377 222.069558 
L 474.685714 227.978306 
L 476.135065 272.82477 
L 476.497403 272.302643 
L 476.85974 265.800948 
L 477.222078 254.358311 
L 477.584416 230.663884 
L 477.946753 228.877018 
L 478.309091 209.550924 
L 478.671429 197.459211 
L 479.033766 199.643305 
L 479.396104 205.428749 
L 479.758442 213.680404 
L 480.120779 234.211829 
L 480.483117 246.627789 
L 480.845455 254.013241 
L 481.207792 253.970801 
L 481.57013 251.76116 
L 482.294805 240.735606 
L 482.657143 227.681517 
L 483.381818 243.76893 
L 483.744156 251.145334 
L 484.468831 280.72429 
L 484.831169 280.84677 
L 485.193506 292.839304 
L 485.555844 278.062339 
L 485.918182 267.824635 
L 486.642857 235.006553 
L 487.005195 221.588072 
L 487.367532 218.865536 
L 487.72987 210.852098 
L 488.092208 215.967721 
L 488.816883 242.056662 
L 489.179221 259.045731 
L 489.541558 258.669143 
L 489.903896 260.935864 
L 490.266234 257.950861 
L 490.628571 248.638357 
L 490.990909 244.01121 
L 491.353247 236.766881 
L 491.715584 238.332801 
L 492.077922 250.518715 
L 492.44026 258.832792 
L 492.802597 274.598562 
L 493.164935 283.046046 
L 493.527273 279.130667 
L 493.88961 294.225921 
L 494.251948 284.861689 
L 495.338961 231.792815 
L 495.701299 221.643565 
L 496.063636 203.09595 
L 496.425974 206.296821 
L 497.150649 226.42153 
L 497.875325 255.534827 
L 498.237662 259.780324 
L 498.6 256.65981 
L 498.962338 256.602454 
L 499.324675 246.531025 
L 499.687013 242.795688 
L 500.049351 232.346125 
L 500.411688 237.581967 
L 500.774026 239.178439 
L 501.498701 265.58044 
L 501.861039 272.867018 
L 502.223377 285.114327 
L 502.585714 271.033196 
L 502.948052 276.387203 
L 503.31039 256.316206 
L 503.672727 242.830955 
L 504.397403 206.477053 
L 504.75974 200.133497 
L 505.122078 198.856675 
L 505.484416 211.592711 
L 505.846753 210.117027 
L 506.571429 245.164353 
L 506.933766 250.423885 
L 507.296104 248.355401 
L 507.658442 242.074764 
L 508.020779 242.730531 
L 508.383117 226.77063 
L 508.745455 227.101462 
L 509.107792 225.348428 
L 510.194805 252.160352 
L 510.919481 279.901543 
L 511.281818 341.138876 
L 511.644156 256.094575 
L 512.006494 247.511002 
L 513.093506 199.761764 
L 513.455844 192.880542 
L 513.818182 195.133948 
L 514.180519 203.575259 
L 514.542857 207.374663 
L 514.905195 222.346043 
L 515.267532 230.35578 
L 515.62987 242.989748 
L 515.992208 235.980864 
L 516.354545 235.068131 
L 517.079221 224.374662 
L 517.441558 221.999417 
L 517.803896 215.038639 
L 518.528571 237.286562 
L 518.890909 256.262306 
L 519.253247 268.512909 
L 519.615584 271.30007 
L 519.977922 279.794333 
L 520.702597 249.924913 
L 521.064935 234.996634 
L 521.427273 210.984771 
L 522.151948 187.636477 
L 522.514286 194.701945 
L 522.876623 198.055304 
L 523.963636 240.202511 
L 524.325974 249.470033 
L 524.688312 247.555712 
L 525.050649 238.525664 
L 525.412987 237.293506 
L 525.775325 230.650784 
L 526.137662 230.632372 
L 526.5 230.488568 
L 526.862338 239.031943 
L 527.224675 242.259491 
L 527.587013 255.264318 
L 527.949351 276.889039 
L 528.311688 279.749021 
L 528.674026 287.846595 
L 529.036364 272.397749 
L 529.398701 268.769387 
L 529.761039 243.088222 
L 530.485714 215.451088 
L 530.848052 202.853059 
L 531.21039 204.441601 
L 531.572727 218.173866 
L 531.935065 226.135914 
L 532.297403 242.970903 
L 532.65974 253.406099 
L 533.022078 260.530398 
L 533.384416 257.638689 
L 533.746753 258.888193 
L 534.109091 250.902434 
L 534.471429 248.30136 
L 534.833766 243.323589 
L 535.196104 241.106522 
L 535.558442 256.205083 
L 535.920779 257.901361 
L 536.283117 277.148095 
L 537.007792 299.465141 
L 537.37013 295.035538 
L 538.094805 278.213724 
L 539.181818 226.267971 
L 539.544156 216.460337 
L 539.906494 219.113905 
L 540.268831 222.602909 
L 540.631169 245.271836 
L 540.993506 258.505344 
L 541.355844 264.311709 
L 541.718182 278.505143 
L 542.080519 274.291175 
L 542.442857 275.978824 
L 542.805195 267.195576 
L 543.167532 262.286202 
L 543.52987 254.182622 
L 543.892208 260.887571 
L 544.254545 264.199745 
L 544.616883 273.730523 
L 544.979221 290.598118 
L 546.066234 314.501166 
L 546.428571 297.175096 
L 546.790909 288.84454 
L 547.515584 256.923018 
L 547.877922 240.17562 
L 548.24026 233.83776 
L 548.602597 236.27358 
L 548.964935 237.253538 
L 549.327273 253.970554 
L 549.68961 259.726839 
L 550.051948 269.729115 
L 550.414286 283.487558 
L 550.776623 282.451794 
L 551.138961 275.464474 
L 551.501299 277.908939 
L 552.225974 256.172989 
L 552.950649 263.309886 
L 553.675325 291.129054 
L 554.4 313.740948 
L 555.487013 284.38898 
L 556.574026 231.748982 
L 556.936364 232.192832 
L 557.298701 229.684166 
L 557.661039 235.202104 
L 558.385714 264.563378 
L 558.748052 272.988991 
L 559.11039 271.184793 
L 559.472727 279.29845 
L 559.835065 269.055479 
L 560.197403 269.913985 
L 560.55974 252.607588 
L 560.922078 250.703842 
L 561.284416 250.807654 
L 561.646753 257.429266 
L 562.733766 293.855688 
L 563.096104 300.74354 
L 563.458442 302.678441 
L 564.545455 268.137631 
L 564.907792 244.829843 
L 565.27013 231.19024 
L 565.632468 209.95274 
L 565.994805 221.780769 
L 566.357143 219.627274 
L 566.719481 240.947083 
L 567.081818 253.395066 
L 567.444156 257.080464 
L 567.806494 268.003028 
L 568.168831 261.134286 
L 568.531169 266.061862 
L 568.893506 262.20969 
L 569.255844 246.353072 
L 569.618182 238.930656 
L 569.980519 253.108232 
L 570.342857 251.374583 
L 570.705195 260.794691 
L 571.42987 287.811145 
L 571.792208 290.541021 
L 572.154545 289.70878 
L 572.516883 286.856501 
L 572.879221 266.076684 
L 573.241558 189.386738 
L 573.603896 233.754453 
L 573.966234 220.266775 
L 574.328571 212.895126 
L 574.690909 211.222832 
L 575.415584 229.395837 
L 575.777922 252.144925 
L 576.14026 259.655326 
L 576.502597 264.326917 
L 576.864935 262.841037 
L 577.227273 254.5052 
L 577.58961 252.513574 
L 577.951948 247.029199 
L 578.314286 232.998636 
L 580.488312 296.322187 
L 581.212987 281.812401 
L 581.937662 251.560405 
L 582.662338 222.753731 
L 583.024675 216.967599 
L 583.387013 215.427529 
L 583.749351 227.688225 
L 584.111688 234.035775 
L 584.474026 251.519894 
L 585.198701 269.466532 
L 585.561039 259.098891 
L 585.923377 263.521715 
L 586.285714 250.172337 
L 586.648052 255.874041 
L 587.01039 241.665236 
L 588.097403 270.879873 
L 588.45974 284.37891 
L 588.822078 281.683378 
L 589.184416 302.209164 
L 589.546753 293.425837 
L 589.909091 290.022917 
L 590.271429 281.05205 
L 591.358442 236.866542 
L 591.720779 234.741161 
L 592.083117 220.379126 
L 592.445455 243.69268 
L 592.807792 238.43221 
L 593.532468 276.391602 
L 593.894805 274.189789 
L 594.257143 285.095894 
L 594.619481 276.445221 
L 595.344156 266.842979 
L 595.706494 262.908654 
L 596.068831 263.733503 
L 597.155844 290.804069 
L 597.518182 311.199643 
L 597.880519 316.55203 
L 598.242857 319.543617 
L 598.605195 307.461025 
L 598.967532 286.507361 
L 599.32987 284.692276 
L 600.054545 247.962547 
L 600.416883 243.093663 
L 600.779221 240.83858 
L 601.866234 271.706269 
L 602.228571 290.444057 
L 602.590909 291.793762 
L 602.953247 301.371462 
L 603.315584 297.963278 
L 603.677922 292.021281 
L 604.04026 279.345194 
L 604.402597 275.494847 
L 604.764935 274.8664 
L 605.127273 279.965088 
L 605.851948 310.723618 
L 606.576623 335.1747 
L 606.938961 337.428216 
L 607.663636 304.427017 
L 608.025974 295.440538 
L 608.388312 270.97263 
L 608.750649 254.614081 
L 609.112987 252.829857 
L 609.475325 253.889737 
L 609.837662 257.649727 
L 610.2 274.043111 
L 610.562338 273.723621 
L 610.924675 294.998886 
L 611.287013 297.711222 
L 611.649351 308.076728 
L 612.011688 294.885489 
L 612.374026 292.897437 
L 612.736364 283.533351 
L 613.098701 286.750432 
L 613.461039 279.22683 
L 613.823377 281.969553 
L 614.91039 321.406634 
L 615.272727 326.983995 
L 615.635065 266.75918 
L 615.997403 328.778247 
L 616.35974 313.31547 
L 616.722078 283.568032 
L 617.084416 273.364429 
L 617.446753 253.615136 
L 617.809091 250.938408 
L 618.171429 253.600846 
L 618.896104 260.784891 
L 619.620779 297.746155 
L 619.983117 301.477262 
L 620.345455 306.783155 
L 621.07013 284.861642 
L 621.432468 274.844299 
L 621.794805 207.259838 
L 622.157143 275.256276 
L 622.519481 288.373856 
L 622.881818 289.925116 
L 623.606494 317.190025 
L 623.968831 320.9668 
L 624.331169 327.794733 
L 625.055844 298.084975 
L 626.142857 246.371729 
L 626.505195 240.14251 
L 626.867532 240.951302 
L 627.592208 255.224048 
L 627.954545 269.230879 
L 628.316883 274.747057 
L 628.679221 283.853475 
L 629.041558 284.199692 
L 629.403896 284.005342 
L 630.128571 268.117271 
L 630.853247 271.559685 
L 631.215584 267.934386 
L 631.577922 282.093723 
L 631.94026 302.566977 
L 632.302597 305.110603 
L 632.664935 317.171622 
L 633.027273 316.450305 
L 633.38961 307.102413 
L 634.476623 258.872657 
L 634.838961 237.281253 
L 635.201299 231.695286 
L 635.563636 233.715236 
L 636.288312 246.500392 
L 636.650649 270.289665 
L 637.012987 282.402682 
L 637.375325 283.976916 
L 638.1 279.192828 
L 638.462338 271.466214 
L 639.187013 263.073523 
L 639.549351 260.37352 
L 639.911688 264.285601 
L 640.636364 293.061645 
L 640.998701 305.125954 
L 641.361039 310.304908 
L 641.723377 305.357545 
L 642.085714 303.804042 
L 642.448052 290.639308 
L 642.81039 271.231275 
L 643.172727 258.146024 
L 643.535065 240.734652 
L 644.25974 231.204665 
L 644.622078 238.237471 
L 645.346753 269.127275 
L 645.709091 271.208924 
L 646.071429 282.583458 
L 646.433766 284.143009 
L 646.796104 287.289281 
L 647.158442 281.087804 
L 647.520779 272.488968 
L 647.883117 269.454211 
L 648.245455 272.796417 
L 648.607792 274.936109 
L 648.97013 287.339523 
L 649.332468 305.611274 
L 650.419481 324.281653 
L 651.144156 302.523483 
L 651.868831 267.878933 
L 652.593506 244.358508 
L 652.955844 248.011599 
L 653.318182 249.85042 
L 654.405195 293.02509 
L 654.767532 299.529717 
L 655.492208 302.43759 
L 655.854545 290.947254 
L 656.216883 287.670632 
L 656.579221 280.090907 
L 656.941558 289.035529 
L 657.303896 289.584629 
L 658.028571 311.455845 
L 658.390909 332.762202 
L 658.753247 329.936127 
L 659.115584 339.617445 
L 659.477922 334.57162 
L 659.84026 322.968281 
L 660.202597 298.574512 
L 660.564935 292.018919 
L 660.927273 269.383929 
L 661.28961 260.584532 
L 662.014286 269.379581 
L 662.376623 277.66355 
L 662.738961 292.949645 
L 663.463636 309.291847 
L 663.825974 313.485936 
L 664.188312 308.754325 
L 664.550649 310.81737 
L 664.912987 292.785176 
L 665.275325 297.192721 
L 665.637662 299.687754 
L 666 303.28142 
L 666.362338 311.259425 
L 666.724675 334.299521 
L 667.449351 350.325096 
L 667.811688 353.529769 
L 668.174026 341.265009 
L 668.536364 321.276722 
L 668.898701 313.995926 
L 669.623377 278.687193 
L 669.985714 277.36537 
L 670.348052 269.590307 
L 671.072727 286.89406 
L 671.435065 308.053859 
L 672.15974 328.202243 
L 672.522078 327.989506 
L 672.884416 317.68614 
L 673.609091 303.563011 
L 673.971429 303.585327 
L 674.333766 301.193809 
L 676.145455 351.204356 
L 676.507792 354.071935 
L 677.232468 330.291727 
L 677.594805 303.937245 
L 678.319481 273.718378 
L 678.681818 269.002033 
L 679.044156 269.046811 
L 679.406494 276.426351 
L 679.768831 291.424144 
L 680.131169 299.180523 
L 680.493506 313.740868 
L 680.855844 318.830188 
L 681.218182 321.279556 
L 681.580519 306.397787 
L 681.942857 310.427507 
L 682.667532 293.589998 
L 683.02987 295.367309 
L 683.754545 311.93398 
L 684.841558 347.89928 
L 685.203896 345.970065 
L 685.566234 337.024097 
L 687.015584 263.152701 
L 687.377922 262.871621 
L 687.74026 259.409667 
L 688.464935 278.89651 
L 688.827273 295.353216 
L 689.18961 301.324906 
L 689.551948 315.881115 
L 689.914286 312.966111 
L 690.638961 293.760122 
L 691.001299 290.220898 
L 691.363636 285.429468 
L 691.725974 284.260677 
L 692.450649 306.176368 
L 692.812987 313.616275 
L 693.175325 326.562223 
L 693.537662 335.269122 
L 694.262338 328.990561 
L 694.987013 291.835076 
L 695.711688 258.464058 
L 696.074026 252.519336 
L 696.436364 249.234273 
L 697.885714 298.81007 
L 698.248052 302.849921 
L 698.61039 302.067697 
L 699.335065 296.846076 
L 699.697403 285.492686 
L 700.05974 278.477401 
L 700.422078 281.399212 
L 700.784416 293.641482 
L 701.146753 295.52491 
L 701.509091 304.615639 
L 701.871429 332.549045 
L 702.596104 337.536683 
L 702.958442 336.972623 
L 703.320779 305.706311 
L 703.683117 292.362367 
L 704.045455 272.504985 
L 704.407792 260.321384 
L 704.77013 253.809526 
L 705.132468 255.263324 
L 705.494805 258.862948 
L 705.857143 279.971473 
L 706.219481 286.540669 
L 706.581818 305.560613 
L 706.944156 305.694793 
L 707.668831 308.125187 
L 708.031169 295.682937 
L 708.755844 281.795424 
L 709.118182 292.705996 
L 709.480519 297.953027 
L 709.842857 305.329048 
L 710.567532 337.161832 
L 710.92987 336.98183 
L 711.292208 341.372452 
L 712.016883 323.993517 
L 712.741558 291.818027 
L 713.103896 276.02168 
L 713.828571 260.386751 
L 715.277922 313.716457 
L 715.64026 322.300939 
L 716.002597 324.261098 
L 716.364935 320.72851 
L 716.727273 312.512586 
L 717.08961 310.909465 
L 717.451948 296.506747 
L 718.176623 309.154019 
L 718.901299 337.408254 
L 719.263636 353.609138 
L 719.625974 356.189423 
L 719.988312 361.834155 
L 720.712987 333.020489 
L 721.437662 303.171244 
L 721.8 291.78426 
L 722.162338 276.646435 
L 722.524675 284.976977 
L 722.887013 287.459377 
L 723.974026 327.103223 
L 724.336364 336.984286 
L 724.698701 342.825268 
L 725.061039 333.356724 
L 725.423377 326.984784 
L 725.785714 313.917373 
L 726.148052 317.560267 
L 726.51039 316.362473 
L 726.872727 322.541242 
L 727.235065 340.526312 
L 727.597403 343.972722 
L 727.95974 357.836431 
L 728.322078 364.666804 
L 728.684416 369.36 
L 729.771429 334.052013 
L 730.133766 310.179834 
L 730.496104 301.860645 
L 730.858442 287.344222 
L 731.220779 291.901655 
L 731.583117 298.789676 
L 732.67013 335.874804 
L 733.032468 341.470776 
L 733.757143 338.650031 
L 734.481818 322.404433 
L 734.844156 323.201668 
L 735.206494 318.080847 
L 736.655844 361.986347 
L 737.018182 369.249005 
L 737.380519 368.707916 
L 737.742857 367.599329 
L 738.467532 328.489646 
L 738.82987 318.482838 
L 739.554545 288.859422 
L 739.916883 291.381848 
L 740.279221 306.51076 
L 740.641558 307.389889 
L 741.003896 316.61194 
L 741.366234 331.914923 
L 741.728571 337.354585 
L 742.090909 338.786314 
L 742.815584 326.07943 
L 743.177922 322.360581 
L 743.54026 315.148882 
L 743.902597 312.739085 
L 744.264935 320.552744 
L 744.98961 343.8544 
L 745.351948 362.327835 
L 745.714286 363.967822 
L 746.076623 364.512703 
L 746.438961 362.05846 
L 746.801299 340.967363 
L 746.801299 340.967363 
" style="fill:none;stroke:#1f77b4;stroke-linecap:square;stroke-width:1.5;"/>
   </g>
   <g id="line2d_18">
    <path clip-path="url(#p8132406ad6)" d="M 747.163636 384.48 
L 747.163636 51.84 
" style="fill:none;stroke:#808080;stroke-linecap:square;"/>
   </g>
   <g id="patch_107">
    <path d="M 108 384.48 
L 108 51.84 
" style="fill:none;stroke:#000000;stroke-linecap:square;stroke-linejoin:miter;stroke-width:0.8;"/>
   </g>
   <g id="patch_108">
    <path d="M 777.6 384.48 
L 777.6 51.84 
" style="fill:none;stroke:#000000;stroke-linecap:square;stroke-linejoin:miter;stroke-width:0.8;"/>
   </g>
   <g id="patch_109">
    <path d="M 108 384.48 
L 777.6 384.48 
" style="fill:none;stroke:#000000;stroke-linecap:square;stroke-linejoin:miter;stroke-width:0.8;"/>
   </g>
   <g id="patch_110">
    <path d="M 108 51.84 
L 777.6 51.84 
" style="fill:none;stroke:#000000;stroke-linecap:square;stroke-linejoin:miter;stroke-width:0.8;"/>
   </g>
   <g id="text_19">
    <!-- A3Benchmark-TS96.csv -->
    <defs>
     <path d="M 34.1875 63.1875 
L 20.796875 26.90625 
L 47.609375 26.90625 
z
M 28.609375 72.90625 
L 39.796875 72.90625 
L 67.578125 0 
L 57.328125 0 
L 50.6875 18.703125 
L 17.828125 18.703125 
L 11.1875 0 
L 0.78125 0 
z
" id="DejaVuSans-65"/>
     <path d="M 19.671875 34.8125 
L 19.671875 8.109375 
L 35.5 8.109375 
Q 43.453125 8.109375 47.28125 11.40625 
Q 51.125 14.703125 51.125 21.484375 
Q 51.125 28.328125 47.28125 31.5625 
Q 43.453125 34.8125 35.5 34.8125 
z
M 19.671875 64.796875 
L 19.671875 42.828125 
L 34.28125 42.828125 
Q 41.5 42.828125 45.03125 45.53125 
Q 48.578125 48.25 48.578125 53.8125 
Q 48.578125 59.328125 45.03125 62.0625 
Q 41.5 64.796875 34.28125 64.796875 
z
M 9.8125 72.90625 
L 35.015625 72.90625 
Q 46.296875 72.90625 52.390625 68.21875 
Q 58.5 63.53125 58.5 54.890625 
Q 58.5 48.1875 55.375 44.234375 
Q 52.25 40.28125 46.1875 39.3125 
Q 53.46875 37.75 57.5 32.78125 
Q 61.53125 27.828125 61.53125 20.40625 
Q 61.53125 10.640625 54.890625 5.3125 
Q 48.25 0 35.984375 0 
L 9.8125 0 
z
" id="DejaVuSans-66"/>
     <path d="M 54.890625 33.015625 
L 54.890625 0 
L 45.90625 0 
L 45.90625 32.71875 
Q 45.90625 40.484375 42.875 44.328125 
Q 39.84375 48.1875 33.796875 48.1875 
Q 26.515625 48.1875 22.3125 43.546875 
Q 18.109375 38.921875 18.109375 30.90625 
L 18.109375 0 
L 9.078125 0 
L 9.078125 54.6875 
L 18.109375 54.6875 
L 18.109375 46.1875 
Q 21.34375 51.125 25.703125 53.5625 
Q 30.078125 56 35.796875 56 
Q 45.21875 56 50.046875 50.171875 
Q 54.890625 44.34375 54.890625 33.015625 
z
" id="DejaVuSans-110"/>
     <path d="M 48.78125 52.59375 
L 48.78125 44.1875 
Q 44.96875 46.296875 41.140625 47.34375 
Q 37.3125 48.390625 33.40625 48.390625 
Q 24.65625 48.390625 19.8125 42.84375 
Q 14.984375 37.3125 14.984375 27.296875 
Q 14.984375 17.28125 19.8125 11.734375 
Q 24.65625 6.203125 33.40625 6.203125 
Q 37.3125 6.203125 41.140625 7.25 
Q 44.96875 8.296875 48.78125 10.40625 
L 48.78125 2.09375 
Q 45.015625 0.34375 40.984375 -0.53125 
Q 36.96875 -1.421875 32.421875 -1.421875 
Q 20.0625 -1.421875 12.78125 6.34375 
Q 5.515625 14.109375 5.515625 27.296875 
Q 5.515625 40.671875 12.859375 48.328125 
Q 20.21875 56 33.015625 56 
Q 37.15625 56 41.109375 55.140625 
Q 45.0625 54.296875 48.78125 52.59375 
z
" id="DejaVuSans-99"/>
     <path d="M 54.890625 33.015625 
L 54.890625 0 
L 45.90625 0 
L 45.90625 32.71875 
Q 45.90625 40.484375 42.875 44.328125 
Q 39.84375 48.1875 33.796875 48.1875 
Q 26.515625 48.1875 22.3125 43.546875 
Q 18.109375 38.921875 18.109375 30.90625 
L 18.109375 0 
L 9.078125 0 
L 9.078125 75.984375 
L 18.109375 75.984375 
L 18.109375 46.1875 
Q 21.34375 51.125 25.703125 53.5625 
Q 30.078125 56 35.796875 56 
Q 45.21875 56 50.046875 50.171875 
Q 54.890625 44.34375 54.890625 33.015625 
z
" id="DejaVuSans-104"/>
     <path d="M 41.109375 46.296875 
Q 39.59375 47.171875 37.8125 47.578125 
Q 36.03125 48 33.890625 48 
Q 26.265625 48 22.1875 43.046875 
Q 18.109375 38.09375 18.109375 28.8125 
L 18.109375 0 
L 9.078125 0 
L 9.078125 54.6875 
L 18.109375 54.6875 
L 18.109375 46.1875 
Q 20.953125 51.171875 25.484375 53.578125 
Q 30.03125 56 36.53125 56 
Q 37.453125 56 38.578125 55.875 
Q 39.703125 55.765625 41.0625 55.515625 
z
" id="DejaVuSans-114"/>
     <path d="M 9.078125 75.984375 
L 18.109375 75.984375 
L 18.109375 31.109375 
L 44.921875 54.6875 
L 56.390625 54.6875 
L 27.390625 29.109375 
L 57.625 0 
L 45.90625 0 
L 18.109375 26.703125 
L 18.109375 0 
L 9.078125 0 
z
" id="DejaVuSans-107"/>
     <path d="M 4.890625 31.390625 
L 31.203125 31.390625 
L 31.203125 23.390625 
L 4.890625 23.390625 
z
" id="DejaVuSans-45"/>
     <path d="M 53.515625 70.515625 
L 53.515625 60.890625 
Q 47.90625 63.578125 42.921875 64.890625 
Q 37.9375 66.21875 33.296875 66.21875 
Q 25.25 66.21875 20.875 63.09375 
Q 16.5 59.96875 16.5 54.203125 
Q 16.5 49.359375 19.40625 46.890625 
Q 22.3125 44.4375 30.421875 42.921875 
L 36.375 41.703125 
Q 47.40625 39.59375 52.65625 34.296875 
Q 57.90625 29 57.90625 20.125 
Q 57.90625 9.515625 50.796875 4.046875 
Q 43.703125 -1.421875 29.984375 -1.421875 
Q 24.8125 -1.421875 18.96875 -0.25 
Q 13.140625 0.921875 6.890625 3.21875 
L 6.890625 13.375 
Q 12.890625 10.015625 18.65625 8.296875 
Q 24.421875 6.59375 29.984375 6.59375 
Q 38.421875 6.59375 43.015625 9.90625 
Q 47.609375 13.234375 47.609375 19.390625 
Q 47.609375 24.75 44.3125 27.78125 
Q 41.015625 30.8125 33.5 32.328125 
L 27.484375 33.5 
Q 16.453125 35.6875 11.515625 40.375 
Q 6.59375 45.0625 6.59375 53.421875 
Q 6.59375 63.09375 13.40625 68.65625 
Q 20.21875 74.21875 32.171875 74.21875 
Q 37.3125 74.21875 42.625 73.28125 
Q 47.953125 72.359375 53.515625 70.515625 
z
" id="DejaVuSans-83"/>
     <path d="M 10.984375 1.515625 
L 10.984375 10.5 
Q 14.703125 8.734375 18.5 7.8125 
Q 22.3125 6.890625 25.984375 6.890625 
Q 35.75 6.890625 40.890625 13.453125 
Q 46.046875 20.015625 46.78125 33.40625 
Q 43.953125 29.203125 39.59375 26.953125 
Q 35.25 24.703125 29.984375 24.703125 
Q 19.046875 24.703125 12.671875 31.3125 
Q 6.296875 37.9375 6.296875 49.421875 
Q 6.296875 60.640625 12.9375 67.421875 
Q 19.578125 74.21875 30.609375 74.21875 
Q 43.265625 74.21875 49.921875 64.515625 
Q 56.59375 54.828125 56.59375 36.375 
Q 56.59375 19.140625 48.40625 8.859375 
Q 40.234375 -1.421875 26.421875 -1.421875 
Q 22.703125 -1.421875 18.890625 -0.6875 
Q 15.09375 0.046875 10.984375 1.515625 
z
M 30.609375 32.421875 
Q 37.25 32.421875 41.125 36.953125 
Q 45.015625 41.5 45.015625 49.421875 
Q 45.015625 57.28125 41.125 61.84375 
Q 37.25 66.40625 30.609375 66.40625 
Q 23.96875 66.40625 20.09375 61.84375 
Q 16.21875 57.28125 16.21875 49.421875 
Q 16.21875 41.5 20.09375 36.953125 
Q 23.96875 32.421875 30.609375 32.421875 
z
" id="DejaVuSans-57"/>
     <path d="M 10.6875 12.40625 
L 21 12.40625 
L 21 0 
L 10.6875 0 
z
" id="DejaVuSans-46"/>
     <path d="M 2.984375 54.6875 
L 12.5 54.6875 
L 29.59375 8.796875 
L 46.6875 54.6875 
L 56.203125 54.6875 
L 35.6875 0 
L 23.484375 0 
z
" id="DejaVuSans-118"/>
    </defs>
    <g transform="translate(371.555625 45.84)scale(0.12 -0.12)">
     <use xlink:href="#DejaVuSans-65"/>
     <use x="68.408203" xlink:href="#DejaVuSans-51"/>
     <use x="132.03125" xlink:href="#DejaVuSans-66"/>
     <use x="200.634766" xlink:href="#DejaVuSans-101"/>
     <use x="262.158203" xlink:href="#DejaVuSans-110"/>
     <use x="325.537109" xlink:href="#DejaVuSans-99"/>
     <use x="380.517578" xlink:href="#DejaVuSans-104"/>
     <use x="443.896484" xlink:href="#DejaVuSans-109"/>
     <use x="541.308594" xlink:href="#DejaVuSans-97"/>
     <use x="602.587891" xlink:href="#DejaVuSans-114"/>
     <use x="643.701172" xlink:href="#DejaVuSans-107"/>
     <use x="701.611328" xlink:href="#DejaVuSans-45"/>
     <use x="737.554688" xlink:href="#DejaVuSans-84"/>
     <use x="798.638672" xlink:href="#DejaVuSans-83"/>
     <use x="862.115234" xlink:href="#DejaVuSans-57"/>
     <use x="925.738281" xlink:href="#DejaVuSans-54"/>
     <use x="989.361328" xlink:href="#DejaVuSans-46"/>
     <use x="1021.148438" xlink:href="#DejaVuSans-99"/>
     <use x="1076.128906" xlink:href="#DejaVuSans-115"/>
     <use x="1128.228516" xlink:href="#DejaVuSans-118"/>
    </g>
   </g>
   <g id="legend_1">
    <g id="patch_111">
     <path d="M 711.284375 74.518125 
L 770.6 74.518125 
Q 772.6 74.518125 772.6 72.518125 
L 772.6 58.84 
Q 772.6 56.84 770.6 56.84 
L 711.284375 56.84 
Q 709.284375 56.84 709.284375 58.84 
L 709.284375 72.518125 
Q 709.284375 74.518125 711.284375 74.518125 
z
" style="fill:#ffffff;opacity:0.8;stroke:#cccccc;stroke-linejoin:miter;"/>
    </g>
    <g id="line2d_19">
     <path d="M 713.284375 64.938438 
L 733.284375 64.938438 
" style="fill:none;stroke:#1f77b4;stroke-linecap:square;stroke-width:1.5;"/>
    </g>
    <g id="line2d_20"/>
    <g id="text_20">
     <!-- value -->
     <g transform="translate(741.284375 68.438438)scale(0.1 -0.1)">
      <use xlink:href="#DejaVuSans-118"/>
      <use x="59.179688" xlink:href="#DejaVuSans-97"/>
      <use x="120.458984" xlink:href="#DejaVuSans-108"/>
      <use x="148.242188" xlink:href="#DejaVuSans-117"/>
      <use x="211.621094" xlink:href="#DejaVuSans-101"/>
     </g>
    </g>
   </g>
  </g>
 </g>
 <defs>
  <clipPath id="p8132406ad6">
   <rect height="332.64" width="669.6" x="108" y="51.84"/>
  </clipPath>
 </defs>
</svg>
