<?xml version="1.0" encoding="utf-8" standalone="no"?>
<!DOCTYPE svg PUBLIC "-//W3C//DTD SVG 1.1//EN"
  "http://www.w3.org/Graphics/SVG/1.1/DTD/svg11.dtd">
<!-- Created with matplotlib (https://matplotlib.org/) -->
<svg height="432pt" version="1.1" viewBox="0 0 864 432" width="864pt" xmlns="http://www.w3.org/2000/svg" xmlns:xlink="http://www.w3.org/1999/xlink">
 <defs>
  <style type="text/css">
*{stroke-linecap:butt;stroke-linejoin:round;}
  </style>
 </defs>
 <g id="figure_1">
  <g id="patch_1">
   <path d="M 0 432 
L 864 432 
L 864 0 
L 0 0 
z
" style="fill:#ffffff;"/>
  </g>
  <g id="axes_1">
   <g id="patch_2">
    <path d="M 108 384.48 
L 777.6 384.48 
L 777.6 51.84 
L 108 51.84 
z
" style="fill:#ffffff;"/>
   </g>
   <g id="patch_3">
    <path clip-path="url(#p1c9d502a29)" d="M 138.436364 384.48 
L 138.436364 51.84 
L 500.774026 51.84 
L 500.774026 384.48 
z
" style="fill:#0000ff;opacity:0.05;"/>
   </g>
   <g id="patch_4">
    <path clip-path="url(#p1c9d502a29)" d="M 500.774026 384.48 
L 500.774026 51.84 
L 747.163636 51.84 
L 747.163636 384.48 
z
" style="fill:#ff0000;opacity:0.08;"/>
   </g>
   <g id="patch_5">
    <path clip-path="url(#p1c9d502a29)" d="M 138.436364 384.48 
L 138.436364 51.84 
L 142.05974 51.84 
L 142.05974 384.48 
z
" style="fill:#008000;opacity:0.04;"/>
   </g>
   <g id="patch_6">
    <path clip-path="url(#p1c9d502a29)" d="M 145.683117 384.48 
L 145.683117 51.84 
L 149.306494 51.84 
L 149.306494 384.48 
z
" style="fill:#008000;opacity:0.04;"/>
   </g>
   <g id="patch_7">
    <path clip-path="url(#p1c9d502a29)" d="M 145.683117 384.48 
L 145.683117 371.1744 
L 149.306494 371.1744 
L 149.306494 384.48 
z
" style="fill:#ffe500;"/>
   </g>
   <g id="patch_8">
    <path clip-path="url(#p1c9d502a29)" d="M 152.92987 384.48 
L 152.92987 51.84 
L 156.553247 51.84 
L 156.553247 384.48 
z
" style="fill:#008000;opacity:0.04;"/>
   </g>
   <g id="patch_9">
    <path clip-path="url(#p1c9d502a29)" d="M 160.176623 384.48 
L 160.176623 51.84 
L 163.8 51.84 
L 163.8 384.48 
z
" style="fill:#008000;opacity:0.04;"/>
   </g>
   <g id="patch_10">
    <path clip-path="url(#p1c9d502a29)" d="M 167.423377 384.48 
L 167.423377 51.84 
L 171.046753 51.84 
L 171.046753 384.48 
z
" style="fill:#008000;opacity:0.04;"/>
   </g>
   <g id="patch_11">
    <path clip-path="url(#p1c9d502a29)" d="M 167.423377 384.48 
L 167.423377 371.1744 
L 171.046753 371.1744 
L 171.046753 384.48 
z
" style="fill:#ffe500;"/>
   </g>
   <g id="patch_12">
    <path clip-path="url(#p1c9d502a29)" d="M 533.384416 384.48 
L 533.384416 371.1744 
L 537.007792 371.1744 
L 537.007792 384.48 
z
" style="fill:#ff6600;"/>
   </g>
   <g id="patch_13">
    <path clip-path="url(#p1c9d502a29)" d="M 174.67013 384.48 
L 174.67013 51.84 
L 178.293506 51.84 
L 178.293506 384.48 
z
" style="fill:#008000;opacity:0.04;"/>
   </g>
   <g id="patch_14">
    <path clip-path="url(#p1c9d502a29)" d="M 181.916883 384.48 
L 181.916883 51.84 
L 185.54026 51.84 
L 185.54026 384.48 
z
" style="fill:#008000;opacity:0.04;"/>
   </g>
   <g id="patch_15">
    <path clip-path="url(#p1c9d502a29)" d="M 189.163636 384.48 
L 189.163636 51.84 
L 192.787013 51.84 
L 192.787013 384.48 
z
" style="fill:#008000;opacity:0.04;"/>
   </g>
   <g id="patch_16">
    <path clip-path="url(#p1c9d502a29)" d="M 189.163636 384.48 
L 189.163636 371.1744 
L 192.787013 371.1744 
L 192.787013 384.48 
z
" style="fill:#ffe500;"/>
   </g>
   <g id="patch_17">
    <path clip-path="url(#p1c9d502a29)" d="M 196.41039 384.48 
L 196.41039 51.84 
L 200.033766 51.84 
L 200.033766 384.48 
z
" style="fill:#008000;opacity:0.04;"/>
   </g>
   <g id="patch_18">
    <path clip-path="url(#p1c9d502a29)" d="M 203.657143 384.48 
L 203.657143 51.84 
L 207.280519 51.84 
L 207.280519 384.48 
z
" style="fill:#008000;opacity:0.04;"/>
   </g>
   <g id="patch_19">
    <path clip-path="url(#p1c9d502a29)" d="M 210.903896 384.48 
L 210.903896 51.84 
L 214.527273 51.84 
L 214.527273 384.48 
z
" style="fill:#008000;opacity:0.04;"/>
   </g>
   <g id="patch_20">
    <path clip-path="url(#p1c9d502a29)" d="M 218.150649 384.48 
L 218.150649 51.84 
L 221.774026 51.84 
L 221.774026 384.48 
z
" style="fill:#008000;opacity:0.04;"/>
   </g>
   <g id="patch_21">
    <path clip-path="url(#p1c9d502a29)" d="M 225.397403 384.48 
L 225.397403 51.84 
L 229.020779 51.84 
L 229.020779 384.48 
z
" style="fill:#008000;opacity:0.04;"/>
   </g>
   <g id="patch_22">
    <path clip-path="url(#p1c9d502a29)" d="M 232.644156 384.48 
L 232.644156 51.84 
L 236.267532 51.84 
L 236.267532 384.48 
z
" style="fill:#008000;opacity:0.04;"/>
   </g>
   <g id="patch_23">
    <path clip-path="url(#p1c9d502a29)" d="M 239.890909 384.48 
L 239.890909 51.84 
L 243.514286 51.84 
L 243.514286 384.48 
z
" style="fill:#008000;opacity:0.04;"/>
   </g>
   <g id="patch_24">
    <path clip-path="url(#p1c9d502a29)" d="M 602.228571 384.48 
L 602.228571 371.1744 
L 605.851948 371.1744 
L 605.851948 384.48 
z
" style="fill:#ff6600;"/>
   </g>
   <g id="patch_25">
    <path clip-path="url(#p1c9d502a29)" d="M 247.137662 384.48 
L 247.137662 51.84 
L 250.761039 51.84 
L 250.761039 384.48 
z
" style="fill:#008000;opacity:0.04;"/>
   </g>
   <g id="patch_26">
    <path clip-path="url(#p1c9d502a29)" d="M 254.384416 384.48 
L 254.384416 51.84 
L 258.007792 51.84 
L 258.007792 384.48 
z
" style="fill:#008000;opacity:0.04;"/>
   </g>
   <g id="patch_27">
    <path clip-path="url(#p1c9d502a29)" d="M 261.631169 384.48 
L 261.631169 51.84 
L 265.254545 51.84 
L 265.254545 384.48 
z
" style="fill:#008000;opacity:0.04;"/>
   </g>
   <g id="patch_28">
    <path clip-path="url(#p1c9d502a29)" d="M 268.877922 384.48 
L 268.877922 51.84 
L 272.501299 51.84 
L 272.501299 384.48 
z
" style="fill:#008000;opacity:0.04;"/>
   </g>
   <g id="patch_29">
    <path clip-path="url(#p1c9d502a29)" d="M 276.124675 384.48 
L 276.124675 51.84 
L 279.748052 51.84 
L 279.748052 384.48 
z
" style="fill:#008000;opacity:0.04;"/>
   </g>
   <g id="patch_30">
    <path clip-path="url(#p1c9d502a29)" d="M 283.371429 384.48 
L 283.371429 51.84 
L 286.994805 51.84 
L 286.994805 384.48 
z
" style="fill:#008000;opacity:0.04;"/>
   </g>
   <g id="patch_31">
    <path clip-path="url(#p1c9d502a29)" d="M 290.618182 384.48 
L 290.618182 51.84 
L 294.241558 51.84 
L 294.241558 384.48 
z
" style="fill:#008000;opacity:0.04;"/>
   </g>
   <g id="patch_32">
    <path clip-path="url(#p1c9d502a29)" d="M 297.864935 384.48 
L 297.864935 51.84 
L 301.488312 51.84 
L 301.488312 384.48 
z
" style="fill:#008000;opacity:0.04;"/>
   </g>
   <g id="patch_33">
    <path clip-path="url(#p1c9d502a29)" d="M 297.864935 384.48 
L 297.864935 371.1744 
L 301.488312 371.1744 
L 301.488312 384.48 
z
" style="fill:#ffe500;"/>
   </g>
   <g id="patch_34">
    <path clip-path="url(#p1c9d502a29)" d="M 305.111688 384.48 
L 305.111688 51.84 
L 308.735065 51.84 
L 308.735065 384.48 
z
" style="fill:#008000;opacity:0.04;"/>
   </g>
   <g id="patch_35">
    <path clip-path="url(#p1c9d502a29)" d="M 312.358442 384.48 
L 312.358442 51.84 
L 315.981818 51.84 
L 315.981818 384.48 
z
" style="fill:#008000;opacity:0.04;"/>
   </g>
   <g id="patch_36">
    <path clip-path="url(#p1c9d502a29)" d="M 319.605195 384.48 
L 319.605195 51.84 
L 323.228571 51.84 
L 323.228571 384.48 
z
" style="fill:#008000;opacity:0.04;"/>
   </g>
   <g id="patch_37">
    <path clip-path="url(#p1c9d502a29)" d="M 326.851948 384.48 
L 326.851948 51.84 
L 330.475325 51.84 
L 330.475325 384.48 
z
" style="fill:#008000;opacity:0.04;"/>
   </g>
   <g id="patch_38">
    <path clip-path="url(#p1c9d502a29)" d="M 334.098701 384.48 
L 334.098701 51.84 
L 337.722078 51.84 
L 337.722078 384.48 
z
" style="fill:#008000;opacity:0.04;"/>
   </g>
   <g id="patch_39">
    <path clip-path="url(#p1c9d502a29)" d="M 341.345455 384.48 
L 341.345455 51.84 
L 344.968831 51.84 
L 344.968831 384.48 
z
" style="fill:#008000;opacity:0.04;"/>
   </g>
   <g id="patch_40">
    <path clip-path="url(#p1c9d502a29)" d="M 341.345455 384.48 
L 341.345455 371.1744 
L 344.968831 371.1744 
L 344.968831 384.48 
z
" style="fill:#ffe500;"/>
   </g>
   <g id="patch_41">
    <path clip-path="url(#p1c9d502a29)" d="M 703.683117 384.48 
L 703.683117 371.1744 
L 707.306494 371.1744 
L 707.306494 384.48 
z
" style="fill:#ff6600;"/>
   </g>
   <g id="patch_42">
    <path clip-path="url(#p1c9d502a29)" d="M 348.592208 384.48 
L 348.592208 51.84 
L 352.215584 51.84 
L 352.215584 384.48 
z
" style="fill:#008000;opacity:0.04;"/>
   </g>
   <g id="patch_43">
    <path clip-path="url(#p1c9d502a29)" d="M 355.838961 384.48 
L 355.838961 51.84 
L 359.462338 51.84 
L 359.462338 384.48 
z
" style="fill:#008000;opacity:0.04;"/>
   </g>
   <g id="patch_44">
    <path clip-path="url(#p1c9d502a29)" d="M 363.085714 384.48 
L 363.085714 51.84 
L 366.709091 51.84 
L 366.709091 384.48 
z
" style="fill:#008000;opacity:0.04;"/>
   </g>
   <g id="patch_45">
    <path clip-path="url(#p1c9d502a29)" d="M 363.085714 384.48 
L 363.085714 371.1744 
L 366.709091 371.1744 
L 366.709091 384.48 
z
" style="fill:#ffe500;"/>
   </g>
   <g id="patch_46">
    <path clip-path="url(#p1c9d502a29)" d="M 370.332468 384.48 
L 370.332468 51.84 
L 373.955844 51.84 
L 373.955844 384.48 
z
" style="fill:#008000;opacity:0.04;"/>
   </g>
   <g id="patch_47">
    <path clip-path="url(#p1c9d502a29)" d="M 377.579221 384.48 
L 377.579221 51.84 
L 381.202597 51.84 
L 381.202597 384.48 
z
" style="fill:#008000;opacity:0.04;"/>
   </g>
   <g id="patch_48">
    <path clip-path="url(#p1c9d502a29)" d="M 377.579221 371.1744 
L 377.579221 51.84 
L 381.202597 51.84 
L 381.202597 371.1744 
z
" style="fill:#008000;opacity:0.5;"/>
   </g>
   <g id="patch_49">
    <path clip-path="url(#p1c9d502a29)" d="M 377.579221 384.48 
L 377.579221 371.1744 
L 381.202597 371.1744 
L 381.202597 384.48 
z
" style="fill:#ffe500;"/>
   </g>
   <g id="patch_50">
    <path clip-path="url(#p1c9d502a29)" d="M 384.825974 384.48 
L 384.825974 51.84 
L 388.449351 51.84 
L 388.449351 384.48 
z
" style="fill:#008000;opacity:0.04;"/>
   </g>
   <g id="patch_51">
    <path clip-path="url(#p1c9d502a29)" d="M 392.072727 384.48 
L 392.072727 51.84 
L 395.696104 51.84 
L 395.696104 384.48 
z
" style="fill:#008000;opacity:0.04;"/>
   </g>
   <g id="patch_52">
    <path clip-path="url(#p1c9d502a29)" d="M 399.319481 384.48 
L 399.319481 51.84 
L 402.942857 51.84 
L 402.942857 384.48 
z
" style="fill:#008000;opacity:0.04;"/>
   </g>
   <g id="patch_53">
    <path clip-path="url(#p1c9d502a29)" d="M 406.566234 384.48 
L 406.566234 51.84 
L 410.18961 51.84 
L 410.18961 384.48 
z
" style="fill:#008000;opacity:0.04;"/>
   </g>
   <g id="patch_54">
    <path clip-path="url(#p1c9d502a29)" d="M 413.812987 384.48 
L 413.812987 51.84 
L 417.436364 51.84 
L 417.436364 384.48 
z
" style="fill:#008000;opacity:0.04;"/>
   </g>
   <g id="patch_55">
    <path clip-path="url(#p1c9d502a29)" d="M 421.05974 384.48 
L 421.05974 51.84 
L 424.683117 51.84 
L 424.683117 384.48 
z
" style="fill:#008000;opacity:0.04;"/>
   </g>
   <g id="patch_56">
    <path clip-path="url(#p1c9d502a29)" d="M 428.306494 384.48 
L 428.306494 51.84 
L 431.92987 51.84 
L 431.92987 384.48 
z
" style="fill:#008000;opacity:0.04;"/>
   </g>
   <g id="patch_57">
    <path clip-path="url(#p1c9d502a29)" d="M 435.553247 384.48 
L 435.553247 51.84 
L 439.176623 51.84 
L 439.176623 384.48 
z
" style="fill:#008000;opacity:0.04;"/>
   </g>
   <g id="patch_58">
    <path clip-path="url(#p1c9d502a29)" d="M 442.8 384.48 
L 442.8 51.84 
L 446.423377 51.84 
L 446.423377 384.48 
z
" style="fill:#008000;opacity:0.04;"/>
   </g>
   <g id="patch_59">
    <path clip-path="url(#p1c9d502a29)" d="M 450.046753 384.48 
L 450.046753 51.84 
L 453.67013 51.84 
L 453.67013 384.48 
z
" style="fill:#008000;opacity:0.04;"/>
   </g>
   <g id="patch_60">
    <path clip-path="url(#p1c9d502a29)" d="M 450.046753 384.48 
L 450.046753 371.1744 
L 453.67013 371.1744 
L 453.67013 384.48 
z
" style="fill:#ffe500;"/>
   </g>
   <g id="patch_61">
    <path clip-path="url(#p1c9d502a29)" d="M 457.293506 384.48 
L 457.293506 51.84 
L 460.916883 51.84 
L 460.916883 384.48 
z
" style="fill:#008000;opacity:0.04;"/>
   </g>
   <g id="patch_62">
    <path clip-path="url(#p1c9d502a29)" d="M 464.54026 384.48 
L 464.54026 51.84 
L 468.163636 51.84 
L 468.163636 384.48 
z
" style="fill:#008000;opacity:0.04;"/>
   </g>
   <g id="patch_63">
    <path clip-path="url(#p1c9d502a29)" d="M 471.787013 384.48 
L 471.787013 51.84 
L 475.41039 51.84 
L 475.41039 384.48 
z
" style="fill:#008000;opacity:0.04;"/>
   </g>
   <g id="patch_64">
    <path clip-path="url(#p1c9d502a29)" d="M 471.787013 384.48 
L 471.787013 371.1744 
L 475.41039 371.1744 
L 475.41039 384.48 
z
" style="fill:#ffe500;"/>
   </g>
   <g id="patch_65">
    <path clip-path="url(#p1c9d502a29)" d="M 479.033766 384.48 
L 479.033766 51.84 
L 482.657143 51.84 
L 482.657143 384.48 
z
" style="fill:#008000;opacity:0.04;"/>
   </g>
   <g id="patch_66">
    <path clip-path="url(#p1c9d502a29)" d="M 486.280519 384.48 
L 486.280519 51.84 
L 489.903896 51.84 
L 489.903896 384.48 
z
" style="fill:#008000;opacity:0.04;"/>
   </g>
   <g id="patch_67">
    <path clip-path="url(#p1c9d502a29)" d="M 493.527273 384.48 
L 493.527273 51.84 
L 497.150649 51.84 
L 497.150649 384.48 
z
" style="fill:#008000;opacity:0.04;"/>
   </g>
   <g id="patch_68">
    <path clip-path="url(#p1c9d502a29)" d="M 493.527273 384.48 
L 493.527273 371.1744 
L 497.150649 371.1744 
L 497.150649 384.48 
z
" style="fill:#ffe500;"/>
   </g>
   <g id="patch_69">
    <path clip-path="url(#p1c9d502a29)" d="M 500.774026 384.48 
L 500.774026 51.84 
L 504.397403 51.84 
L 504.397403 384.48 
z
" style="fill:#008000;opacity:0.04;"/>
   </g>
   <g id="patch_70">
    <path clip-path="url(#p1c9d502a29)" d="M 508.020779 384.48 
L 508.020779 51.84 
L 511.644156 51.84 
L 511.644156 384.48 
z
" style="fill:#008000;opacity:0.04;"/>
   </g>
   <g id="patch_71">
    <path clip-path="url(#p1c9d502a29)" d="M 515.267532 384.48 
L 515.267532 51.84 
L 518.890909 51.84 
L 518.890909 384.48 
z
" style="fill:#008000;opacity:0.04;"/>
   </g>
   <g id="patch_72">
    <path clip-path="url(#p1c9d502a29)" d="M 522.514286 384.48 
L 522.514286 51.84 
L 526.137662 51.84 
L 526.137662 384.48 
z
" style="fill:#008000;opacity:0.04;"/>
   </g>
   <g id="patch_73">
    <path clip-path="url(#p1c9d502a29)" d="M 529.761039 384.48 
L 529.761039 51.84 
L 533.384416 51.84 
L 533.384416 384.48 
z
" style="fill:#008000;opacity:0.04;"/>
   </g>
   <g id="patch_74">
    <path clip-path="url(#p1c9d502a29)" d="M 533.384416 371.1744 
L 533.384416 51.84 
L 537.007792 51.84 
L 537.007792 371.1744 
z
" style="fill:#008000;opacity:0.5;"/>
   </g>
   <g id="patch_75">
    <path clip-path="url(#p1c9d502a29)" d="M 537.007792 384.48 
L 537.007792 51.84 
L 540.631169 51.84 
L 540.631169 384.48 
z
" style="fill:#008000;opacity:0.04;"/>
   </g>
   <g id="patch_76">
    <path clip-path="url(#p1c9d502a29)" d="M 544.254545 384.48 
L 544.254545 51.84 
L 547.877922 51.84 
L 547.877922 384.48 
z
" style="fill:#008000;opacity:0.04;"/>
   </g>
   <g id="patch_77">
    <path clip-path="url(#p1c9d502a29)" d="M 551.501299 384.48 
L 551.501299 51.84 
L 555.124675 51.84 
L 555.124675 384.48 
z
" style="fill:#008000;opacity:0.04;"/>
   </g>
   <g id="patch_78">
    <path clip-path="url(#p1c9d502a29)" d="M 558.748052 384.48 
L 558.748052 51.84 
L 562.371429 51.84 
L 562.371429 384.48 
z
" style="fill:#008000;opacity:0.04;"/>
   </g>
   <g id="patch_79">
    <path clip-path="url(#p1c9d502a29)" d="M 565.994805 384.48 
L 565.994805 51.84 
L 569.618182 51.84 
L 569.618182 384.48 
z
" style="fill:#008000;opacity:0.04;"/>
   </g>
   <g id="patch_80">
    <path clip-path="url(#p1c9d502a29)" d="M 573.241558 384.48 
L 573.241558 51.84 
L 576.864935 51.84 
L 576.864935 384.48 
z
" style="fill:#008000;opacity:0.04;"/>
   </g>
   <g id="patch_81">
    <path clip-path="url(#p1c9d502a29)" d="M 580.488312 384.48 
L 580.488312 51.84 
L 584.111688 51.84 
L 584.111688 384.48 
z
" style="fill:#008000;opacity:0.04;"/>
   </g>
   <g id="patch_82">
    <path clip-path="url(#p1c9d502a29)" d="M 587.735065 384.48 
L 587.735065 51.84 
L 591.358442 51.84 
L 591.358442 384.48 
z
" style="fill:#008000;opacity:0.04;"/>
   </g>
   <g id="patch_83">
    <path clip-path="url(#p1c9d502a29)" d="M 594.981818 384.48 
L 594.981818 51.84 
L 598.605195 51.84 
L 598.605195 384.48 
z
" style="fill:#008000;opacity:0.04;"/>
   </g>
   <g id="patch_84">
    <path clip-path="url(#p1c9d502a29)" d="M 602.228571 384.48 
L 602.228571 51.84 
L 605.851948 51.84 
L 605.851948 384.48 
z
" style="fill:#008000;opacity:0.04;"/>
   </g>
   <g id="patch_85">
    <path clip-path="url(#p1c9d502a29)" d="M 602.228571 371.1744 
L 602.228571 51.84 
L 605.851948 51.84 
L 605.851948 371.1744 
z
" style="fill:#008000;opacity:0.5;"/>
   </g>
   <g id="patch_86">
    <path clip-path="url(#p1c9d502a29)" d="M 609.475325 384.48 
L 609.475325 51.84 
L 613.098701 51.84 
L 613.098701 384.48 
z
" style="fill:#008000;opacity:0.04;"/>
   </g>
   <g id="patch_87">
    <path clip-path="url(#p1c9d502a29)" d="M 616.722078 384.48 
L 616.722078 51.84 
L 620.345455 51.84 
L 620.345455 384.48 
z
" style="fill:#008000;opacity:0.04;"/>
   </g>
   <g id="patch_88">
    <path clip-path="url(#p1c9d502a29)" d="M 623.968831 384.48 
L 623.968831 51.84 
L 627.592208 51.84 
L 627.592208 384.48 
z
" style="fill:#008000;opacity:0.04;"/>
   </g>
   <g id="patch_89">
    <path clip-path="url(#p1c9d502a29)" d="M 631.215584 384.48 
L 631.215584 51.84 
L 634.838961 51.84 
L 634.838961 384.48 
z
" style="fill:#008000;opacity:0.04;"/>
   </g>
   <g id="patch_90">
    <path clip-path="url(#p1c9d502a29)" d="M 638.462338 384.48 
L 638.462338 51.84 
L 642.085714 51.84 
L 642.085714 384.48 
z
" style="fill:#008000;opacity:0.04;"/>
   </g>
   <g id="patch_91">
    <path clip-path="url(#p1c9d502a29)" d="M 645.709091 384.48 
L 645.709091 51.84 
L 649.332468 51.84 
L 649.332468 384.48 
z
" style="fill:#008000;opacity:0.04;"/>
   </g>
   <g id="patch_92">
    <path clip-path="url(#p1c9d502a29)" d="M 652.955844 384.48 
L 652.955844 51.84 
L 656.579221 51.84 
L 656.579221 384.48 
z
" style="fill:#008000;opacity:0.04;"/>
   </g>
   <g id="patch_93">
    <path clip-path="url(#p1c9d502a29)" d="M 660.202597 384.48 
L 660.202597 51.84 
L 663.825974 51.84 
L 663.825974 384.48 
z
" style="fill:#008000;opacity:0.04;"/>
   </g>
   <g id="patch_94">
    <path clip-path="url(#p1c9d502a29)" d="M 667.449351 384.48 
L 667.449351 51.84 
L 671.072727 51.84 
L 671.072727 384.48 
z
" style="fill:#008000;opacity:0.04;"/>
   </g>
   <g id="patch_95">
    <path clip-path="url(#p1c9d502a29)" d="M 674.696104 384.48 
L 674.696104 51.84 
L 678.319481 51.84 
L 678.319481 384.48 
z
" style="fill:#008000;opacity:0.04;"/>
   </g>
   <g id="patch_96">
    <path clip-path="url(#p1c9d502a29)" d="M 681.942857 384.48 
L 681.942857 51.84 
L 685.566234 51.84 
L 685.566234 384.48 
z
" style="fill:#008000;opacity:0.04;"/>
   </g>
   <g id="patch_97">
    <path clip-path="url(#p1c9d502a29)" d="M 689.18961 384.48 
L 689.18961 51.84 
L 692.812987 51.84 
L 692.812987 384.48 
z
" style="fill:#008000;opacity:0.04;"/>
   </g>
   <g id="patch_98">
    <path clip-path="url(#p1c9d502a29)" d="M 696.436364 384.48 
L 696.436364 51.84 
L 700.05974 51.84 
L 700.05974 384.48 
z
" style="fill:#008000;opacity:0.04;"/>
   </g>
   <g id="patch_99">
    <path clip-path="url(#p1c9d502a29)" d="M 703.683117 384.48 
L 703.683117 51.84 
L 707.306494 51.84 
L 707.306494 384.48 
z
" style="fill:#008000;opacity:0.04;"/>
   </g>
   <g id="patch_100">
    <path clip-path="url(#p1c9d502a29)" d="M 703.683117 371.1744 
L 703.683117 51.84 
L 707.306494 51.84 
L 707.306494 371.1744 
z
" style="fill:#008000;opacity:0.5;"/>
   </g>
   <g id="patch_101">
    <path clip-path="url(#p1c9d502a29)" d="M 710.92987 384.48 
L 710.92987 51.84 
L 714.553247 51.84 
L 714.553247 384.48 
z
" style="fill:#008000;opacity:0.04;"/>
   </g>
   <g id="patch_102">
    <path clip-path="url(#p1c9d502a29)" d="M 718.176623 384.48 
L 718.176623 51.84 
L 721.8 51.84 
L 721.8 384.48 
z
" style="fill:#008000;opacity:0.04;"/>
   </g>
   <g id="patch_103">
    <path clip-path="url(#p1c9d502a29)" d="M 725.423377 384.48 
L 725.423377 51.84 
L 729.046753 51.84 
L 729.046753 384.48 
z
" style="fill:#008000;opacity:0.04;"/>
   </g>
   <g id="patch_104">
    <path clip-path="url(#p1c9d502a29)" d="M 732.67013 384.48 
L 732.67013 51.84 
L 736.293506 51.84 
L 736.293506 384.48 
z
" style="fill:#008000;opacity:0.04;"/>
   </g>
   <g id="patch_105">
    <path clip-path="url(#p1c9d502a29)" d="M 739.916883 384.48 
L 739.916883 51.84 
L 743.54026 51.84 
L 743.54026 384.48 
z
" style="fill:#008000;opacity:0.04;"/>
   </g>
   <g id="matplotlib.axis_1">
    <g id="xtick_1">
     <g id="line2d_1">
      <defs>
       <path d="M 0 0 
L 0 3.5 
" id="m9baa599ce0" style="stroke:#000000;stroke-width:0.8;"/>
      </defs>
      <g>
       <use style="stroke:#000000;stroke-width:0.8;" x="138.436364" xlink:href="#m9baa599ce0" y="384.48"/>
      </g>
     </g>
     <g id="text_1">
      <!-- 0 -->
      <defs>
       <path d="M 31.78125 66.40625 
Q 24.171875 66.40625 20.328125 58.90625 
Q 16.5 51.421875 16.5 36.375 
Q 16.5 21.390625 20.328125 13.890625 
Q 24.171875 6.390625 31.78125 6.390625 
Q 39.453125 6.390625 43.28125 13.890625 
Q 47.125 21.390625 47.125 36.375 
Q 47.125 51.421875 43.28125 58.90625 
Q 39.453125 66.40625 31.78125 66.40625 
z
M 31.78125 74.21875 
Q 44.046875 74.21875 50.515625 64.515625 
Q 56.984375 54.828125 56.984375 36.375 
Q 56.984375 17.96875 50.515625 8.265625 
Q 44.046875 -1.421875 31.78125 -1.421875 
Q 19.53125 -1.421875 13.0625 8.265625 
Q 6.59375 17.96875 6.59375 36.375 
Q 6.59375 54.828125 13.0625 64.515625 
Q 19.53125 74.21875 31.78125 74.21875 
z
" id="DejaVuSans-48"/>
      </defs>
      <g transform="translate(135.255114 399.078438)scale(0.1 -0.1)">
       <use xlink:href="#DejaVuSans-48"/>
      </g>
     </g>
    </g>
    <g id="xtick_2">
     <g id="line2d_2">
      <g>
       <use style="stroke:#000000;stroke-width:0.8;" x="229.020779" xlink:href="#m9baa599ce0" y="384.48"/>
      </g>
     </g>
     <g id="text_2">
      <!-- 250 -->
      <defs>
       <path d="M 19.1875 8.296875 
L 53.609375 8.296875 
L 53.609375 0 
L 7.328125 0 
L 7.328125 8.296875 
Q 12.9375 14.109375 22.625 23.890625 
Q 32.328125 33.6875 34.8125 36.53125 
Q 39.546875 41.84375 41.421875 45.53125 
Q 43.3125 49.21875 43.3125 52.78125 
Q 43.3125 58.59375 39.234375 62.25 
Q 35.15625 65.921875 28.609375 65.921875 
Q 23.96875 65.921875 18.8125 64.3125 
Q 13.671875 62.703125 7.8125 59.421875 
L 7.8125 69.390625 
Q 13.765625 71.78125 18.9375 73 
Q 24.125 74.21875 28.421875 74.21875 
Q 39.75 74.21875 46.484375 68.546875 
Q 53.21875 62.890625 53.21875 53.421875 
Q 53.21875 48.921875 51.53125 44.890625 
Q 49.859375 40.875 45.40625 35.40625 
Q 44.1875 33.984375 37.640625 27.21875 
Q 31.109375 20.453125 19.1875 8.296875 
z
" id="DejaVuSans-50"/>
       <path d="M 10.796875 72.90625 
L 49.515625 72.90625 
L 49.515625 64.59375 
L 19.828125 64.59375 
L 19.828125 46.734375 
Q 21.96875 47.46875 24.109375 47.828125 
Q 26.265625 48.1875 28.421875 48.1875 
Q 40.625 48.1875 47.75 41.5 
Q 54.890625 34.8125 54.890625 23.390625 
Q 54.890625 11.625 47.5625 5.09375 
Q 40.234375 -1.421875 26.90625 -1.421875 
Q 22.3125 -1.421875 17.546875 -0.640625 
Q 12.796875 0.140625 7.71875 1.703125 
L 7.71875 11.625 
Q 12.109375 9.234375 16.796875 8.0625 
Q 21.484375 6.890625 26.703125 6.890625 
Q 35.15625 6.890625 40.078125 11.328125 
Q 45.015625 15.765625 45.015625 23.390625 
Q 45.015625 31 40.078125 35.4375 
Q 35.15625 39.890625 26.703125 39.890625 
Q 22.75 39.890625 18.8125 39.015625 
Q 14.890625 38.140625 10.796875 36.28125 
z
" id="DejaVuSans-53"/>
      </defs>
      <g transform="translate(219.477029 399.078438)scale(0.1 -0.1)">
       <use xlink:href="#DejaVuSans-50"/>
       <use x="63.623047" xlink:href="#DejaVuSans-53"/>
       <use x="127.246094" xlink:href="#DejaVuSans-48"/>
      </g>
     </g>
    </g>
    <g id="xtick_3">
     <g id="line2d_3">
      <g>
       <use style="stroke:#000000;stroke-width:0.8;" x="319.605195" xlink:href="#m9baa599ce0" y="384.48"/>
      </g>
     </g>
     <g id="text_3">
      <!-- 500 -->
      <g transform="translate(310.061445 399.078438)scale(0.1 -0.1)">
       <use xlink:href="#DejaVuSans-53"/>
       <use x="63.623047" xlink:href="#DejaVuSans-48"/>
       <use x="127.246094" xlink:href="#DejaVuSans-48"/>
      </g>
     </g>
    </g>
    <g id="xtick_4">
     <g id="line2d_4">
      <g>
       <use style="stroke:#000000;stroke-width:0.8;" x="410.18961" xlink:href="#m9baa599ce0" y="384.48"/>
      </g>
     </g>
     <g id="text_4">
      <!-- 750 -->
      <defs>
       <path d="M 8.203125 72.90625 
L 55.078125 72.90625 
L 55.078125 68.703125 
L 28.609375 0 
L 18.3125 0 
L 43.21875 64.59375 
L 8.203125 64.59375 
z
" id="DejaVuSans-55"/>
      </defs>
      <g transform="translate(400.64586 399.078438)scale(0.1 -0.1)">
       <use xlink:href="#DejaVuSans-55"/>
       <use x="63.623047" xlink:href="#DejaVuSans-53"/>
       <use x="127.246094" xlink:href="#DejaVuSans-48"/>
      </g>
     </g>
    </g>
    <g id="xtick_5">
     <g id="line2d_5">
      <g>
       <use style="stroke:#000000;stroke-width:0.8;" x="500.774026" xlink:href="#m9baa599ce0" y="384.48"/>
      </g>
     </g>
     <g id="text_5">
      <!-- 1000 -->
      <defs>
       <path d="M 12.40625 8.296875 
L 28.515625 8.296875 
L 28.515625 63.921875 
L 10.984375 60.40625 
L 10.984375 69.390625 
L 28.421875 72.90625 
L 38.28125 72.90625 
L 38.28125 8.296875 
L 54.390625 8.296875 
L 54.390625 0 
L 12.40625 0 
z
" id="DejaVuSans-49"/>
      </defs>
      <g transform="translate(488.049026 399.078438)scale(0.1 -0.1)">
       <use xlink:href="#DejaVuSans-49"/>
       <use x="63.623047" xlink:href="#DejaVuSans-48"/>
       <use x="127.246094" xlink:href="#DejaVuSans-48"/>
       <use x="190.869141" xlink:href="#DejaVuSans-48"/>
      </g>
     </g>
    </g>
    <g id="xtick_6">
     <g id="line2d_6">
      <g>
       <use style="stroke:#000000;stroke-width:0.8;" x="591.358442" xlink:href="#m9baa599ce0" y="384.48"/>
      </g>
     </g>
     <g id="text_6">
      <!-- 1250 -->
      <g transform="translate(578.633442 399.078438)scale(0.1 -0.1)">
       <use xlink:href="#DejaVuSans-49"/>
       <use x="63.623047" xlink:href="#DejaVuSans-50"/>
       <use x="127.246094" xlink:href="#DejaVuSans-53"/>
       <use x="190.869141" xlink:href="#DejaVuSans-48"/>
      </g>
     </g>
    </g>
    <g id="xtick_7">
     <g id="line2d_7">
      <g>
       <use style="stroke:#000000;stroke-width:0.8;" x="681.942857" xlink:href="#m9baa599ce0" y="384.48"/>
      </g>
     </g>
     <g id="text_7">
      <!-- 1500 -->
      <g transform="translate(669.217857 399.078438)scale(0.1 -0.1)">
       <use xlink:href="#DejaVuSans-49"/>
       <use x="63.623047" xlink:href="#DejaVuSans-53"/>
       <use x="127.246094" xlink:href="#DejaVuSans-48"/>
       <use x="190.869141" xlink:href="#DejaVuSans-48"/>
      </g>
     </g>
    </g>
    <g id="xtick_8">
     <g id="line2d_8">
      <g>
       <use style="stroke:#000000;stroke-width:0.8;" x="772.527273" xlink:href="#m9baa599ce0" y="384.48"/>
      </g>
     </g>
     <g id="text_8">
      <!-- 1750 -->
      <g transform="translate(759.802273 399.078438)scale(0.1 -0.1)">
       <use xlink:href="#DejaVuSans-49"/>
       <use x="63.623047" xlink:href="#DejaVuSans-55"/>
       <use x="127.246094" xlink:href="#DejaVuSans-53"/>
       <use x="190.869141" xlink:href="#DejaVuSans-48"/>
      </g>
     </g>
    </g>
    <g id="text_9">
     <!-- Timestamp -->
     <defs>
      <path d="M -0.296875 72.90625 
L 61.375 72.90625 
L 61.375 64.59375 
L 35.5 64.59375 
L 35.5 0 
L 25.59375 0 
L 25.59375 64.59375 
L -0.296875 64.59375 
z
" id="DejaVuSans-84"/>
      <path d="M 9.421875 54.6875 
L 18.40625 54.6875 
L 18.40625 0 
L 9.421875 0 
z
M 9.421875 75.984375 
L 18.40625 75.984375 
L 18.40625 64.59375 
L 9.421875 64.59375 
z
" id="DejaVuSans-105"/>
      <path d="M 52 44.1875 
Q 55.375 50.25 60.0625 53.125 
Q 64.75 56 71.09375 56 
Q 79.640625 56 84.28125 50.015625 
Q 88.921875 44.046875 88.921875 33.015625 
L 88.921875 0 
L 79.890625 0 
L 79.890625 32.71875 
Q 79.890625 40.578125 77.09375 44.375 
Q 74.3125 48.1875 68.609375 48.1875 
Q 61.625 48.1875 57.5625 43.546875 
Q 53.515625 38.921875 53.515625 30.90625 
L 53.515625 0 
L 44.484375 0 
L 44.484375 32.71875 
Q 44.484375 40.625 41.703125 44.40625 
Q 38.921875 48.1875 33.109375 48.1875 
Q 26.21875 48.1875 22.15625 43.53125 
Q 18.109375 38.875 18.109375 30.90625 
L 18.109375 0 
L 9.078125 0 
L 9.078125 54.6875 
L 18.109375 54.6875 
L 18.109375 46.1875 
Q 21.1875 51.21875 25.484375 53.609375 
Q 29.78125 56 35.6875 56 
Q 41.65625 56 45.828125 52.96875 
Q 50 49.953125 52 44.1875 
z
" id="DejaVuSans-109"/>
      <path d="M 56.203125 29.59375 
L 56.203125 25.203125 
L 14.890625 25.203125 
Q 15.484375 15.921875 20.484375 11.0625 
Q 25.484375 6.203125 34.421875 6.203125 
Q 39.59375 6.203125 44.453125 7.46875 
Q 49.3125 8.734375 54.109375 11.28125 
L 54.109375 2.78125 
Q 49.265625 0.734375 44.1875 -0.34375 
Q 39.109375 -1.421875 33.890625 -1.421875 
Q 20.796875 -1.421875 13.15625 6.1875 
Q 5.515625 13.8125 5.515625 26.8125 
Q 5.515625 40.234375 12.765625 48.109375 
Q 20.015625 56 32.328125 56 
Q 43.359375 56 49.78125 48.890625 
Q 56.203125 41.796875 56.203125 29.59375 
z
M 47.21875 32.234375 
Q 47.125 39.59375 43.09375 43.984375 
Q 39.0625 48.390625 32.421875 48.390625 
Q 24.90625 48.390625 20.390625 44.140625 
Q 15.875 39.890625 15.1875 32.171875 
z
" id="DejaVuSans-101"/>
      <path d="M 44.28125 53.078125 
L 44.28125 44.578125 
Q 40.484375 46.53125 36.375 47.5 
Q 32.28125 48.484375 27.875 48.484375 
Q 21.1875 48.484375 17.84375 46.4375 
Q 14.5 44.390625 14.5 40.28125 
Q 14.5 37.15625 16.890625 35.375 
Q 19.28125 33.59375 26.515625 31.984375 
L 29.59375 31.296875 
Q 39.15625 29.25 43.1875 25.515625 
Q 47.21875 21.78125 47.21875 15.09375 
Q 47.21875 7.46875 41.1875 3.015625 
Q 35.15625 -1.421875 24.609375 -1.421875 
Q 20.21875 -1.421875 15.453125 -0.5625 
Q 10.6875 0.296875 5.421875 2 
L 5.421875 11.28125 
Q 10.40625 8.6875 15.234375 7.390625 
Q 20.0625 6.109375 24.8125 6.109375 
Q 31.15625 6.109375 34.5625 8.28125 
Q 37.984375 10.453125 37.984375 14.40625 
Q 37.984375 18.0625 35.515625 20.015625 
Q 33.0625 21.96875 24.703125 23.78125 
L 21.578125 24.515625 
Q 13.234375 26.265625 9.515625 29.90625 
Q 5.8125 33.546875 5.8125 39.890625 
Q 5.8125 47.609375 11.28125 51.796875 
Q 16.75 56 26.8125 56 
Q 31.78125 56 36.171875 55.265625 
Q 40.578125 54.546875 44.28125 53.078125 
z
" id="DejaVuSans-115"/>
      <path d="M 18.3125 70.21875 
L 18.3125 54.6875 
L 36.8125 54.6875 
L 36.8125 47.703125 
L 18.3125 47.703125 
L 18.3125 18.015625 
Q 18.3125 11.328125 20.140625 9.421875 
Q 21.96875 7.515625 27.59375 7.515625 
L 36.8125 7.515625 
L 36.8125 0 
L 27.59375 0 
Q 17.1875 0 13.234375 3.875 
Q 9.28125 7.765625 9.28125 18.015625 
L 9.28125 47.703125 
L 2.6875 47.703125 
L 2.6875 54.6875 
L 9.28125 54.6875 
L 9.28125 70.21875 
z
" id="DejaVuSans-116"/>
      <path d="M 34.28125 27.484375 
Q 23.390625 27.484375 19.1875 25 
Q 14.984375 22.515625 14.984375 16.5 
Q 14.984375 11.71875 18.140625 8.90625 
Q 21.296875 6.109375 26.703125 6.109375 
Q 34.1875 6.109375 38.703125 11.40625 
Q 43.21875 16.703125 43.21875 25.484375 
L 43.21875 27.484375 
z
M 52.203125 31.203125 
L 52.203125 0 
L 43.21875 0 
L 43.21875 8.296875 
Q 40.140625 3.328125 35.546875 0.953125 
Q 30.953125 -1.421875 24.3125 -1.421875 
Q 15.921875 -1.421875 10.953125 3.296875 
Q 6 8.015625 6 15.921875 
Q 6 25.140625 12.171875 29.828125 
Q 18.359375 34.515625 30.609375 34.515625 
L 43.21875 34.515625 
L 43.21875 35.40625 
Q 43.21875 41.609375 39.140625 45 
Q 35.0625 48.390625 27.6875 48.390625 
Q 23 48.390625 18.546875 47.265625 
Q 14.109375 46.140625 10.015625 43.890625 
L 10.015625 52.203125 
Q 14.9375 54.109375 19.578125 55.046875 
Q 24.21875 56 28.609375 56 
Q 40.484375 56 46.34375 49.84375 
Q 52.203125 43.703125 52.203125 31.203125 
z
" id="DejaVuSans-97"/>
      <path d="M 18.109375 8.203125 
L 18.109375 -20.796875 
L 9.078125 -20.796875 
L 9.078125 54.6875 
L 18.109375 54.6875 
L 18.109375 46.390625 
Q 20.953125 51.265625 25.265625 53.625 
Q 29.59375 56 35.59375 56 
Q 45.5625 56 51.78125 48.09375 
Q 58.015625 40.1875 58.015625 27.296875 
Q 58.015625 14.40625 51.78125 6.484375 
Q 45.5625 -1.421875 35.59375 -1.421875 
Q 29.59375 -1.421875 25.265625 0.953125 
Q 20.953125 3.328125 18.109375 8.203125 
z
M 48.6875 27.296875 
Q 48.6875 37.203125 44.609375 42.84375 
Q 40.53125 48.484375 33.40625 48.484375 
Q 26.265625 48.484375 22.1875 42.84375 
Q 18.109375 37.203125 18.109375 27.296875 
Q 18.109375 17.390625 22.1875 11.75 
Q 26.265625 6.109375 33.40625 6.109375 
Q 40.53125 6.109375 44.609375 11.75 
Q 48.6875 17.390625 48.6875 27.296875 
z
" id="DejaVuSans-112"/>
     </defs>
     <g transform="translate(414.739062 412.756563)scale(0.1 -0.1)">
      <use xlink:href="#DejaVuSans-84"/>
      <use x="61.037109" xlink:href="#DejaVuSans-105"/>
      <use x="88.820312" xlink:href="#DejaVuSans-109"/>
      <use x="186.232422" xlink:href="#DejaVuSans-101"/>
      <use x="247.755859" xlink:href="#DejaVuSans-115"/>
      <use x="299.855469" xlink:href="#DejaVuSans-116"/>
      <use x="339.064453" xlink:href="#DejaVuSans-97"/>
      <use x="400.34375" xlink:href="#DejaVuSans-109"/>
      <use x="497.755859" xlink:href="#DejaVuSans-112"/>
     </g>
    </g>
   </g>
   <g id="matplotlib.axis_2">
    <g id="ytick_1">
     <g id="line2d_9">
      <defs>
       <path d="M 0 0 
L -3.5 0 
" id="m6734839e7b" style="stroke:#000000;stroke-width:0.8;"/>
      </defs>
      <g>
       <use style="stroke:#000000;stroke-width:0.8;" x="108" xlink:href="#m6734839e7b" y="382.448153"/>
      </g>
     </g>
     <g id="text_10">
      <!-- −6000 -->
      <defs>
       <path d="M 10.59375 35.5 
L 73.1875 35.5 
L 73.1875 27.203125 
L 10.59375 27.203125 
z
" id="DejaVuSans-8722"/>
       <path d="M 33.015625 40.375 
Q 26.375 40.375 22.484375 35.828125 
Q 18.609375 31.296875 18.609375 23.390625 
Q 18.609375 15.53125 22.484375 10.953125 
Q 26.375 6.390625 33.015625 6.390625 
Q 39.65625 6.390625 43.53125 10.953125 
Q 47.40625 15.53125 47.40625 23.390625 
Q 47.40625 31.296875 43.53125 35.828125 
Q 39.65625 40.375 33.015625 40.375 
z
M 52.59375 71.296875 
L 52.59375 62.3125 
Q 48.875 64.0625 45.09375 64.984375 
Q 41.3125 65.921875 37.59375 65.921875 
Q 27.828125 65.921875 22.671875 59.328125 
Q 17.53125 52.734375 16.796875 39.40625 
Q 19.671875 43.65625 24.015625 45.921875 
Q 28.375 48.1875 33.59375 48.1875 
Q 44.578125 48.1875 50.953125 41.515625 
Q 57.328125 34.859375 57.328125 23.390625 
Q 57.328125 12.15625 50.6875 5.359375 
Q 44.046875 -1.421875 33.015625 -1.421875 
Q 20.359375 -1.421875 13.671875 8.265625 
Q 6.984375 17.96875 6.984375 36.375 
Q 6.984375 53.65625 15.1875 63.9375 
Q 23.390625 74.21875 37.203125 74.21875 
Q 40.921875 74.21875 44.703125 73.484375 
Q 48.484375 72.75 52.59375 71.296875 
z
" id="DejaVuSans-54"/>
      </defs>
      <g transform="translate(67.170312 386.247372)scale(0.1 -0.1)">
       <use xlink:href="#DejaVuSans-8722"/>
       <use x="83.789062" xlink:href="#DejaVuSans-54"/>
       <use x="147.412109" xlink:href="#DejaVuSans-48"/>
       <use x="211.035156" xlink:href="#DejaVuSans-48"/>
       <use x="274.658203" xlink:href="#DejaVuSans-48"/>
      </g>
     </g>
    </g>
    <g id="ytick_2">
     <g id="line2d_10">
      <g>
       <use style="stroke:#000000;stroke-width:0.8;" x="108" xlink:href="#m6734839e7b" y="334.355748"/>
      </g>
     </g>
     <g id="text_11">
      <!-- −5000 -->
      <g transform="translate(67.170312 338.154967)scale(0.1 -0.1)">
       <use xlink:href="#DejaVuSans-8722"/>
       <use x="83.789062" xlink:href="#DejaVuSans-53"/>
       <use x="147.412109" xlink:href="#DejaVuSans-48"/>
       <use x="211.035156" xlink:href="#DejaVuSans-48"/>
       <use x="274.658203" xlink:href="#DejaVuSans-48"/>
      </g>
     </g>
    </g>
    <g id="ytick_3">
     <g id="line2d_11">
      <g>
       <use style="stroke:#000000;stroke-width:0.8;" x="108" xlink:href="#m6734839e7b" y="286.263343"/>
      </g>
     </g>
     <g id="text_12">
      <!-- −4000 -->
      <defs>
       <path d="M 37.796875 64.3125 
L 12.890625 25.390625 
L 37.796875 25.390625 
z
M 35.203125 72.90625 
L 47.609375 72.90625 
L 47.609375 25.390625 
L 58.015625 25.390625 
L 58.015625 17.1875 
L 47.609375 17.1875 
L 47.609375 0 
L 37.796875 0 
L 37.796875 17.1875 
L 4.890625 17.1875 
L 4.890625 26.703125 
z
" id="DejaVuSans-52"/>
      </defs>
      <g transform="translate(67.170312 290.062562)scale(0.1 -0.1)">
       <use xlink:href="#DejaVuSans-8722"/>
       <use x="83.789062" xlink:href="#DejaVuSans-52"/>
       <use x="147.412109" xlink:href="#DejaVuSans-48"/>
       <use x="211.035156" xlink:href="#DejaVuSans-48"/>
       <use x="274.658203" xlink:href="#DejaVuSans-48"/>
      </g>
     </g>
    </g>
    <g id="ytick_4">
     <g id="line2d_12">
      <g>
       <use style="stroke:#000000;stroke-width:0.8;" x="108" xlink:href="#m6734839e7b" y="238.170938"/>
      </g>
     </g>
     <g id="text_13">
      <!-- −3000 -->
      <defs>
       <path d="M 40.578125 39.3125 
Q 47.65625 37.796875 51.625 33 
Q 55.609375 28.21875 55.609375 21.1875 
Q 55.609375 10.40625 48.1875 4.484375 
Q 40.765625 -1.421875 27.09375 -1.421875 
Q 22.515625 -1.421875 17.65625 -0.515625 
Q 12.796875 0.390625 7.625 2.203125 
L 7.625 11.71875 
Q 11.71875 9.328125 16.59375 8.109375 
Q 21.484375 6.890625 26.8125 6.890625 
Q 36.078125 6.890625 40.9375 10.546875 
Q 45.796875 14.203125 45.796875 21.1875 
Q 45.796875 27.640625 41.28125 31.265625 
Q 36.765625 34.90625 28.71875 34.90625 
L 20.21875 34.90625 
L 20.21875 43.015625 
L 29.109375 43.015625 
Q 36.375 43.015625 40.234375 45.921875 
Q 44.09375 48.828125 44.09375 54.296875 
Q 44.09375 59.90625 40.109375 62.90625 
Q 36.140625 65.921875 28.71875 65.921875 
Q 24.65625 65.921875 20.015625 65.03125 
Q 15.375 64.15625 9.8125 62.3125 
L 9.8125 71.09375 
Q 15.4375 72.65625 20.34375 73.4375 
Q 25.25 74.21875 29.59375 74.21875 
Q 40.828125 74.21875 47.359375 69.109375 
Q 53.90625 64.015625 53.90625 55.328125 
Q 53.90625 49.265625 50.4375 45.09375 
Q 46.96875 40.921875 40.578125 39.3125 
z
" id="DejaVuSans-51"/>
      </defs>
      <g transform="translate(67.170312 241.970157)scale(0.1 -0.1)">
       <use xlink:href="#DejaVuSans-8722"/>
       <use x="83.789062" xlink:href="#DejaVuSans-51"/>
       <use x="147.412109" xlink:href="#DejaVuSans-48"/>
       <use x="211.035156" xlink:href="#DejaVuSans-48"/>
       <use x="274.658203" xlink:href="#DejaVuSans-48"/>
      </g>
     </g>
    </g>
    <g id="ytick_5">
     <g id="line2d_13">
      <g>
       <use style="stroke:#000000;stroke-width:0.8;" x="108" xlink:href="#m6734839e7b" y="190.078533"/>
      </g>
     </g>
     <g id="text_14">
      <!-- −2000 -->
      <g transform="translate(67.170312 193.877752)scale(0.1 -0.1)">
       <use xlink:href="#DejaVuSans-8722"/>
       <use x="83.789062" xlink:href="#DejaVuSans-50"/>
       <use x="147.412109" xlink:href="#DejaVuSans-48"/>
       <use x="211.035156" xlink:href="#DejaVuSans-48"/>
       <use x="274.658203" xlink:href="#DejaVuSans-48"/>
      </g>
     </g>
    </g>
    <g id="ytick_6">
     <g id="line2d_14">
      <g>
       <use style="stroke:#000000;stroke-width:0.8;" x="108" xlink:href="#m6734839e7b" y="141.986129"/>
      </g>
     </g>
     <g id="text_15">
      <!-- −1000 -->
      <g transform="translate(67.170312 145.785347)scale(0.1 -0.1)">
       <use xlink:href="#DejaVuSans-8722"/>
       <use x="83.789062" xlink:href="#DejaVuSans-49"/>
       <use x="147.412109" xlink:href="#DejaVuSans-48"/>
       <use x="211.035156" xlink:href="#DejaVuSans-48"/>
       <use x="274.658203" xlink:href="#DejaVuSans-48"/>
      </g>
     </g>
    </g>
    <g id="ytick_7">
     <g id="line2d_15">
      <g>
       <use style="stroke:#000000;stroke-width:0.8;" x="108" xlink:href="#m6734839e7b" y="93.893724"/>
      </g>
     </g>
     <g id="text_16">
      <!-- 0 -->
      <g transform="translate(94.6375 97.692942)scale(0.1 -0.1)">
       <use xlink:href="#DejaVuSans-48"/>
      </g>
     </g>
    </g>
    <g id="text_17">
     <!-- Value -->
     <defs>
      <path d="M 28.609375 0 
L 0.78125 72.90625 
L 11.078125 72.90625 
L 34.1875 11.53125 
L 57.328125 72.90625 
L 67.578125 72.90625 
L 39.796875 0 
z
" id="DejaVuSans-86"/>
      <path d="M 9.421875 75.984375 
L 18.40625 75.984375 
L 18.40625 0 
L 9.421875 0 
z
" id="DejaVuSans-108"/>
      <path d="M 8.5 21.578125 
L 8.5 54.6875 
L 17.484375 54.6875 
L 17.484375 21.921875 
Q 17.484375 14.15625 20.5 10.265625 
Q 23.53125 6.390625 29.59375 6.390625 
Q 36.859375 6.390625 41.078125 11.03125 
Q 45.3125 15.671875 45.3125 23.6875 
L 45.3125 54.6875 
L 54.296875 54.6875 
L 54.296875 0 
L 45.3125 0 
L 45.3125 8.40625 
Q 42.046875 3.421875 37.71875 1 
Q 33.40625 -1.421875 27.6875 -1.421875 
Q 18.265625 -1.421875 13.375 4.4375 
Q 8.5 10.296875 8.5 21.578125 
z
M 31.109375 56 
z
" id="DejaVuSans-117"/>
     </defs>
     <g transform="translate(61.090625 232.273281)rotate(-90)scale(0.1 -0.1)">
      <use xlink:href="#DejaVuSans-86"/>
      <use x="68.298828" xlink:href="#DejaVuSans-97"/>
      <use x="129.578125" xlink:href="#DejaVuSans-108"/>
      <use x="157.361328" xlink:href="#DejaVuSans-117"/>
      <use x="220.740234" xlink:href="#DejaVuSans-101"/>
     </g>
    </g>
   </g>
   <g id="line2d_16">
    <path clip-path="url(#p1c9d502a29)" d="M 138.436364 93.808972 
L 139.161039 71.621538 
L 139.523377 66.96 
L 139.885714 69.548357 
L 140.61039 83.334461 
L 140.972727 94.392221 
L 141.697403 105.99983 
L 142.05974 102.654435 
L 142.422078 100.634404 
L 142.784416 94.851984 
L 143.146753 86.702558 
L 143.509091 82.870007 
L 143.871429 80.35623 
L 144.596104 93.011036 
L 144.958442 102.568461 
L 145.683117 115.970137 
L 146.045455 117.990932 
L 146.407792 113.469183 
L 146.77013 105.425562 
L 147.494805 78.190781 
L 147.857143 70.786057 
L 148.219481 68.330148 
L 148.581818 68.050134 
L 148.944156 73.719236 
L 149.668831 92.533584 
L 150.031169 101.017182 
L 150.393506 103.887941 
L 150.755844 105.132399 
L 151.480519 94.069741 
L 151.842857 86.806111 
L 152.205195 83.718632 
L 152.567532 79.411557 
L 153.654545 101.572877 
L 154.379221 118.715326 
L 154.741558 119.417942 
L 155.103896 113.910314 
L 155.466234 106.17189 
L 156.553247 71.538383 
L 156.915584 69.277617 
L 157.277922 71.013206 
L 158.002597 84.556844 
L 158.364935 94.775999 
L 159.08961 107.782532 
L 159.451948 105.915443 
L 159.814286 103.191747 
L 160.176623 98.191659 
L 160.901299 85.979462 
L 161.263636 86.034702 
L 161.625974 91.838913 
L 161.988312 99.950983 
L 162.350649 112.160484 
L 163.075325 124.860482 
L 163.437662 125.39155 
L 164.162338 115.36257 
L 165.249351 80.242109 
L 165.611688 75.764935 
L 165.974026 78.353295 
L 166.336364 84.155572 
L 167.423377 111.635228 
L 167.785714 116.118086 
L 168.148052 115.103315 
L 168.51039 111.735231 
L 169.597403 96.171078 
L 169.95974 95.573404 
L 170.322078 98.849204 
L 171.046753 117.175152 
L 171.771429 134.866457 
L 172.133766 136.579539 
L 172.496104 131.745513 
L 172.858442 123.401336 
L 173.220779 109.248742 
L 173.945455 91.174504 
L 174.307792 87.813167 
L 174.67013 85.498549 
L 175.394805 101.621276 
L 176.119481 121.794726 
L 176.481818 125.323228 
L 176.844156 126.272994 
L 177.568831 115.322858 
L 178.293506 103.078933 
L 178.655844 105.254202 
L 179.018182 110.160472 
L 180.467532 141.654864 
L 180.82987 143.314732 
L 181.192208 139.999214 
L 182.641558 95.882007 
L 183.003896 91.443565 
L 183.366234 93.408974 
L 183.728571 99.81723 
L 184.815584 126.528567 
L 185.177922 132.014197 
L 185.54026 130.608197 
L 185.902597 124.975317 
L 186.264935 121.117624 
L 186.627273 114.996019 
L 186.98961 106.243325 
L 187.351948 107.682887 
L 187.714286 112.044374 
L 188.076623 119.957781 
L 188.801299 138.730893 
L 189.163636 145.328489 
L 189.525974 147.103865 
L 189.888312 140.04204 
L 190.975325 110.819237 
L 191.337662 98.146871 
L 191.7 92.962173 
L 192.062338 95.324407 
L 192.424675 100.662289 
L 193.511688 128.042943 
L 193.874026 130.336974 
L 194.236364 129.061971 
L 194.598701 126.225469 
L 195.323377 112.411631 
L 195.685714 106.109093 
L 196.048052 108.497711 
L 196.772727 120.279615 
L 197.497403 137.418509 
L 197.85974 144.149044 
L 198.222078 143.849614 
L 198.584416 140.294023 
L 199.309091 119.13976 
L 199.671429 104.880218 
L 200.033766 97.57269 
L 200.396104 93.738243 
L 200.758442 93.22607 
L 201.120779 98.082173 
L 201.845455 117.920338 
L 202.57013 129.799637 
L 202.932468 128.207903 
L 203.657143 117.207434 
L 204.019481 109.054671 
L 204.381818 105.25097 
L 204.744156 106.72493 
L 205.106494 110.542759 
L 205.468831 116.145583 
L 205.831169 128.305291 
L 206.555844 141.453935 
L 206.918182 140.81229 
L 207.280519 137.610232 
L 207.642857 128.682756 
L 208.367532 105.419871 
L 208.72987 94.44892 
L 209.092208 93.986669 
L 209.454545 91.589509 
L 209.816883 97.551894 
L 210.179221 105.907156 
L 210.541558 118.497266 
L 211.266234 128.465486 
L 211.628571 127.534507 
L 211.990909 123.276907 
L 212.715584 110.02434 
L 213.077922 105.03847 
L 213.44026 106.247378 
L 214.164935 116.119284 
L 214.527273 129.560073 
L 215.251948 142.737802 
L 215.614286 143.061273 
L 215.976623 140.514268 
L 216.701299 118.843736 
L 217.425974 99.121477 
L 217.788312 91.037802 
L 218.512987 99.732011 
L 219.6 128.562487 
L 219.962338 132.723921 
L 220.324675 133.353343 
L 221.774026 111.704147 
L 222.136364 112.311868 
L 222.498701 115.81019 
L 223.223377 132.5917 
L 223.585714 143.771424 
L 223.948052 150.138634 
L 224.31039 150.677185 
L 224.672727 147.426921 
L 225.397403 125.531932 
L 226.122078 106.386784 
L 226.484416 101.125911 
L 226.846753 103.444315 
L 227.571429 115.69071 
L 228.296104 137.223963 
L 228.658442 141.413997 
L 229.020779 142.807413 
L 230.107792 123.642516 
L 230.47013 118.276502 
L 230.832468 119.311009 
L 231.194805 124.360674 
L 231.557143 131.997273 
L 232.281818 152.398215 
L 232.644156 157.021211 
L 233.006494 158.844769 
L 233.368831 156.503907 
L 233.731169 147.703575 
L 234.455844 124.165592 
L 234.818182 115.887015 
L 235.180519 111.930967 
L 235.542857 112.397005 
L 235.905195 116.311753 
L 236.267532 125.029263 
L 236.62987 137.154747 
L 237.354545 148.868055 
L 237.716883 148.611026 
L 238.079221 145.277363 
L 238.441558 138.776356 
L 238.803896 134.710333 
L 239.166234 127.760549 
L 239.528571 128.438885 
L 240.253247 139.481464 
L 240.977922 159.273565 
L 241.34026 166.208828 
L 241.702597 166.549233 
L 242.427273 156.436324 
L 243.151948 128.208153 
L 243.514286 119.817772 
L 243.876623 118.703824 
L 244.238961 119.489442 
L 244.601299 123.501888 
L 245.325974 144.193516 
L 245.688312 151.714473 
L 246.050649 154.541785 
L 246.412987 153.272029 
L 247.862338 132.966082 
L 248.224675 131.603293 
L 248.587013 136.986541 
L 249.311688 153.907829 
L 249.674026 164.770952 
L 250.036364 169.020709 
L 250.398701 169.803303 
L 250.761039 166.315071 
L 252.21039 124.335657 
L 252.572727 116.689997 
L 252.935065 119.63204 
L 253.297403 125.268999 
L 254.022078 143.62276 
L 254.384416 151.99558 
L 254.746753 154.943003 
L 255.109091 155.134084 
L 255.471429 148.416054 
L 255.833766 144.807113 
L 256.196104 137.092116 
L 256.558442 133.909665 
L 256.920779 131.895072 
L 257.283117 135.695345 
L 258.37013 161.974482 
L 258.732468 167.819031 
L 259.094805 167.741888 
L 259.457143 165.293104 
L 259.819481 155.658507 
L 260.544156 131.662047 
L 261.268831 116.148858 
L 261.631169 117.776354 
L 261.993506 123.798584 
L 263.080519 150.300823 
L 263.805195 153.212763 
L 264.167532 148.747693 
L 264.892208 133.896201 
L 265.254545 131.175235 
L 265.616883 130.33057 
L 265.979221 134.665049 
L 267.428571 165.331212 
L 267.790909 167.554175 
L 268.515584 153.139138 
L 269.24026 127.168301 
L 269.602597 119.161836 
L 269.964935 116.248652 
L 270.327273 114.675851 
L 271.051948 130.181153 
L 271.414286 140.392108 
L 272.138961 153.194572 
L 272.501299 151.50624 
L 273.225974 139.778262 
L 273.588312 135.523293 
L 273.950649 129.370608 
L 274.312987 128.124518 
L 274.675325 133.367932 
L 275.4 149.90761 
L 275.762338 163.60093 
L 276.124675 166.83791 
L 276.487013 168.193728 
L 276.849351 164.017875 
L 278.298701 121.57865 
L 278.661039 117.673606 
L 279.023377 120.053351 
L 279.385714 125.230675 
L 280.835065 156.416341 
L 281.197403 154.93828 
L 281.55974 152.839597 
L 281.922078 145.701853 
L 282.646753 136.318106 
L 283.009091 136.124685 
L 283.371429 138.891603 
L 284.458442 167.63997 
L 284.820779 172.683488 
L 285.183117 174.360788 
L 285.545455 171.402339 
L 286.632468 138.263573 
L 286.994805 130.309363 
L 287.357143 127.202644 
L 287.719481 126.12968 
L 288.081818 131.545015 
L 289.168831 160.522321 
L 289.531169 166.140434 
L 289.893506 165.237476 
L 291.342857 145.451187 
L 291.705195 144.123803 
L 292.067532 148.703895 
L 292.42987 155.760692 
L 292.792208 168.307531 
L 293.516883 182.456344 
L 293.879221 183.743229 
L 294.241558 179.602884 
L 295.690909 138.411361 
L 296.053247 135.652946 
L 296.415584 136.436485 
L 296.777922 141.716647 
L 297.864935 169.919814 
L 298.227273 175.410978 
L 298.58961 173.694234 
L 298.951948 169.241522 
L 299.676623 157.056819 
L 300.401299 153.141678 
L 300.763636 157.977703 
L 301.488312 173.978815 
L 301.850649 185.203445 
L 302.212987 190.010419 
L 302.575325 190.585844 
L 302.937662 187.94008 
L 304.024675 155.482885 
L 304.387013 144.90539 
L 304.749351 141.669534 
L 305.111688 143.297289 
L 305.836364 156.353124 
L 306.198701 168.385852 
L 306.923377 180.304942 
L 307.285714 178.840519 
L 308.01039 169.529539 
L 308.735065 156.205264 
L 309.097403 156.844954 
L 309.45974 161.814668 
L 309.822078 168.883056 
L 310.546753 188.853069 
L 310.909091 193.287819 
L 311.271429 192.040857 
L 311.633766 188.108466 
L 311.996104 180.258111 
L 313.083117 146.403902 
L 313.445455 142.59948 
L 313.807792 143.677264 
L 314.17013 149.292261 
L 315.257143 174.239213 
L 315.619481 180.32809 
L 316.344156 174.97945 
L 317.431169 155.117947 
L 317.793506 155.922575 
L 318.155844 159.668209 
L 319.242857 186.230297 
L 319.605195 191.219392 
L 319.967532 191.447616 
L 320.32987 186.913366 
L 321.054545 165.382263 
L 321.416883 153.068406 
L 322.141558 141.210538 
L 322.503896 141.724382 
L 323.228571 155.774963 
L 323.953247 172.626137 
L 324.677922 176.40469 
L 325.04026 172.730319 
L 325.402597 164.63453 
L 326.127273 155.312934 
L 326.48961 154.922759 
L 326.851948 157.613745 
L 327.214286 164.830125 
L 327.938961 184.316678 
L 328.301299 189.626042 
L 328.663636 190.346114 
L 329.025974 188.275211 
L 330.112987 152.744624 
L 330.475325 144.292658 
L 330.837662 138.851375 
L 331.2 141.443586 
L 331.562338 146.496807 
L 332.649351 173.338445 
L 333.374026 177.074304 
L 333.736364 172.178737 
L 334.823377 154.53941 
L 335.185714 154.391527 
L 335.91039 166.521675 
L 336.997403 189.887388 
L 337.35974 191.28674 
L 338.084416 179.602936 
L 338.809091 156.050476 
L 339.171429 144.764166 
L 339.533766 143.034992 
L 339.896104 143.526093 
L 340.258442 149.032988 
L 340.620779 156.23404 
L 340.983117 168.680533 
L 341.707792 178.662393 
L 342.07013 181.032877 
L 342.432468 177.536996 
L 342.794805 167.714369 
L 343.157143 164.594538 
L 343.519481 159.636644 
L 343.881818 160.616541 
L 344.244156 163.121137 
L 345.331169 191.208803 
L 345.693506 197.317383 
L 346.055844 199.423346 
L 346.418182 194.919666 
L 346.780519 186.235912 
L 347.505195 162.067683 
L 347.867532 154.226643 
L 348.22987 149.642162 
L 348.592208 149.452524 
L 348.954545 156.259139 
L 349.679221 177.421755 
L 350.041558 182.143679 
L 350.403896 190.198031 
L 350.766234 189.439459 
L 351.490909 178.092345 
L 351.853247 170.561537 
L 352.215584 167.886586 
L 352.577922 167.054761 
L 352.94026 171.391988 
L 354.027273 200.619826 
L 354.751948 209.655332 
L 355.114286 204.999159 
L 355.476623 195.078734 
L 356.201299 171.894367 
L 356.563636 162.49348 
L 356.925974 159.558371 
L 357.288312 160.734802 
L 357.650649 165.91289 
L 358.737662 195.334931 
L 359.1 198.524233 
L 359.462338 199.876593 
L 360.549351 180.413431 
L 360.911688 178.111682 
L 361.274026 178.141941 
L 361.636364 182.428652 
L 363.085714 213.184905 
L 363.448052 216.87482 
L 363.81039 211.178082 
L 364.172727 203.112196 
L 364.897403 177.418961 
L 365.622078 165.194191 
L 365.984416 166.13991 
L 366.709091 179.8091 
L 367.071429 192.203142 
L 367.433766 199.557304 
L 367.796104 204.39149 
L 368.520779 199.574718 
L 369.245455 184.296346 
L 369.607792 182.497888 
L 369.97013 181.944379 
L 370.332468 184.91751 
L 371.419481 212.782492 
L 371.781818 218.227831 
L 372.144156 217.65444 
L 372.506494 213.648382 
L 373.955844 170.754762 
L 374.318182 167.079726 
L 374.680519 167.844267 
L 375.042857 172.962011 
L 376.12987 201.234904 
L 376.492208 204.888978 
L 376.854545 204.123524 
L 378.303896 180.592275 
L 378.666234 180.844258 
L 379.028571 185.296084 
L 379.390909 191.453574 
L 379.753247 146.01232 
L 380.115584 210.360066 
L 380.477922 216.029101 
L 380.84026 216.913054 
L 381.202597 212.750927 
L 382.651948 168.946468 
L 383.014286 165.187219 
L 383.376623 164.03741 
L 385.188312 201.169739 
L 385.550649 200.853881 
L 386.275325 192.611213 
L 386.637662 182.951738 
L 387 178.017621 
L 387.724675 182.577071 
L 388.087013 188.93041 
L 388.449351 200.830082 
L 388.811688 207.570985 
L 389.174026 216.515385 
L 389.536364 215.611832 
L 389.898701 209.15715 
L 390.623377 189.877944 
L 391.348052 168.269247 
L 391.71039 162.64585 
L 392.072727 164.808761 
L 392.435065 169.965328 
L 393.522078 196.128047 
L 393.884416 203.686087 
L 394.246753 199.710906 
L 394.609091 193.876431 
L 394.971429 190.727198 
L 395.333766 182.155511 
L 396.058442 176.965661 
L 396.783117 191.158069 
L 397.87013 215.919471 
L 398.232468 216.096076 
L 398.594805 212.698599 
L 400.044156 170.085248 
L 400.406494 165.549766 
L 400.768831 166.938893 
L 401.493506 182.962909 
L 402.218182 201.262137 
L 402.580519 205.816371 
L 402.942857 205.029665 
L 403.667532 192.597296 
L 404.02987 189.948695 
L 404.392208 185.207904 
L 404.754545 184.513529 
L 405.116883 187.657566 
L 405.479221 195.697924 
L 406.203896 215.62199 
L 406.566234 222.213687 
L 406.928571 224.20468 
L 407.290909 218.256999 
L 408.015584 200.691478 
L 408.74026 177.881495 
L 409.102597 175.043971 
L 409.464935 176.366875 
L 409.827273 180.940824 
L 410.914286 208.483478 
L 411.276623 214.006725 
L 411.638961 214.558913 
L 412.363636 203.309386 
L 413.088312 192.791785 
L 413.450649 191.830868 
L 413.812987 196.511194 
L 414.9 224.599016 
L 415.262338 230.766874 
L 415.624675 231.75593 
L 415.987013 227.301704 
L 416.711688 209.065441 
L 417.074026 194.565103 
L 417.798701 182.826084 
L 418.161039 184.480529 
L 418.523377 189.313749 
L 419.61039 220.44311 
L 419.972727 221.738395 
L 420.335065 221.934678 
L 420.697403 217.751898 
L 421.422078 205.437941 
L 421.784416 203.731708 
L 422.146753 201.08256 
L 422.871429 214.107215 
L 423.233766 221.282214 
L 423.958442 239.621369 
L 424.320779 240.023407 
L 425.045455 227.927551 
L 425.407792 214.249378 
L 425.77013 206.127419 
L 426.132468 194.519096 
L 426.494805 189.518283 
L 426.857143 190.257756 
L 427.219481 195.404726 
L 428.306494 223.628952 
L 428.668831 227.043146 
L 429.031169 227.286538 
L 429.393506 222.7338 
L 429.755844 215.099584 
L 430.118182 210.023424 
L 430.480519 206.779595 
L 430.842857 205.405298 
L 431.205195 208.638219 
L 431.567532 216.578035 
L 432.292208 237.323259 
L 432.654545 240.829199 
L 433.016883 241.871868 
L 433.379221 239.178228 
L 433.741558 229.684739 
L 434.103896 215.990157 
L 434.466234 207.670406 
L 434.828571 196.772066 
L 435.190909 192.479947 
L 435.553247 190.906215 
L 435.915584 196.053169 
L 437.002597 223.302144 
L 437.364935 228.056432 
L 437.727273 228.504752 
L 438.451948 217.136459 
L 438.814286 210.031993 
L 439.176623 207.670868 
L 439.538961 206.042832 
L 439.901299 207.487618 
L 440.263636 215.299706 
L 440.988312 237.585473 
L 441.712987 241.737285 
L 442.075325 236.245576 
L 443.524675 194.584828 
L 443.887013 190.972361 
L 444.249351 191.441477 
L 444.974026 203.221069 
L 445.698701 221.962229 
L 446.061039 225.871486 
L 446.423377 226.035879 
L 446.785714 222.054133 
L 447.148052 213.718542 
L 447.51039 208.857921 
L 447.872727 201.687507 
L 448.235065 201.553212 
L 448.95974 211.168225 
L 449.322078 224.513472 
L 450.046753 238.248817 
L 450.409091 238.578747 
L 450.771429 234.775618 
L 451.496104 213.31167 
L 451.858442 200.589457 
L 452.220779 193.096677 
L 452.583117 189.078364 
L 452.945455 189.075759 
L 453.307792 194.159047 
L 454.394805 221.914898 
L 454.757143 225.285566 
L 455.119481 223.560354 
L 455.844156 213.242553 
L 456.206494 206.510047 
L 456.568831 203.571789 
L 456.931169 202.376633 
L 457.293506 206.792409 
L 458.742857 238.924818 
L 459.105195 239.674849 
L 459.467532 235.598985 
L 459.82987 227.885538 
L 460.916883 196.188173 
L 461.279221 190.949802 
L 461.641558 192.40823 
L 463.090909 224.92123 
L 463.453247 227.903928 
L 463.815584 229.304557 
L 465.264935 208.389369 
L 465.627273 207.787628 
L 466.351948 221.403563 
L 466.714286 233.866281 
L 467.438961 245.158349 
L 467.801299 247.242296 
L 468.163636 243.150253 
L 468.888312 222.204985 
L 469.612987 201.927005 
L 469.975325 199.349475 
L 470.337662 199.292431 
L 470.7 203.803613 
L 471.424675 226.621798 
L 472.149351 237.858769 
L 472.511688 238.315003 
L 473.236364 227.28898 
L 473.598701 220.706112 
L 473.961039 218.344684 
L 474.323377 217.634727 
L 474.685714 222.270395 
L 475.41039 237.809316 
L 476.135065 257.117212 
L 476.497403 256.352783 
L 476.85974 252.623288 
L 477.946753 222.287982 
L 478.309091 212.293558 
L 478.671429 207.790039 
L 479.033766 208.051026 
L 479.396104 214.889651 
L 480.120779 235.812027 
L 480.483117 242.597781 
L 480.845455 245.635588 
L 481.207792 247.409307 
L 481.57013 243.953628 
L 481.932468 235.172236 
L 482.294805 229.890919 
L 483.019481 225.874754 
L 483.744156 237.635991 
L 484.468831 256.582693 
L 484.831169 262.560496 
L 485.193506 263.787793 
L 485.555844 260.698978 
L 486.280519 238.024862 
L 486.642857 225.321637 
L 487.367532 214.385807 
L 487.72987 213.926497 
L 488.454545 229.074361 
L 488.816883 239.758099 
L 489.179221 247.062172 
L 489.903896 253.271035 
L 490.266234 248.595688 
L 490.990909 234.112778 
L 491.715584 226.625745 
L 492.077922 230.573489 
L 492.802597 252.053528 
L 493.527273 265.988311 
L 493.88961 266.177803 
L 494.251948 261.437519 
L 494.614286 253.262237 
L 495.338961 229.739936 
L 495.701299 220.623548 
L 496.063636 215.792167 
L 496.425974 217.151585 
L 496.788312 222.020152 
L 497.512987 240.931309 
L 497.875325 247.918527 
L 498.237662 251.889791 
L 498.6 252.458901 
L 498.962338 248.452245 
L 499.687013 234.407424 
L 500.049351 229.501128 
L 500.411688 227.806009 
L 501.498701 249.246028 
L 501.861039 259.408036 
L 502.223377 265.864437 
L 502.585714 265.553555 
L 502.948052 261.261044 
L 503.31039 251.979051 
L 504.397403 218.213001 
L 504.75974 212.42389 
L 505.484416 218.783407 
L 506.571429 245.839962 
L 506.933766 249.720887 
L 507.296104 248.690534 
L 508.020779 239.264479 
L 508.745455 226.533217 
L 509.107792 226.770503 
L 509.47013 230.846186 
L 510.919481 262.333487 
L 511.281818 265.125424 
L 512.006494 250.239447 
L 513.093506 216.048691 
L 513.455844 211.447594 
L 513.818182 213.179175 
L 514.180519 217.732226 
L 514.542857 229.227445 
L 515.267532 244.392479 
L 515.62987 249.518227 
L 515.992208 248.19946 
L 516.716883 239.697803 
L 517.079221 231.095036 
L 517.803896 227.146043 
L 518.166234 229.384476 
L 519.615584 264.224176 
L 519.977922 265.199557 
L 520.34026 260.052594 
L 520.702597 252.35894 
L 521.427273 227.686906 
L 522.151948 213.561656 
L 522.514286 214.735479 
L 522.876623 221.279302 
L 523.601299 242.92818 
L 524.325974 253.317962 
L 524.688312 252.404314 
L 525.050649 249.512297 
L 525.775325 236.410751 
L 526.137662 233.82048 
L 526.5 234.495517 
L 526.862338 236.410813 
L 528.311688 270.775617 
L 528.674026 272.321123 
L 529.036364 267.80553 
L 529.398701 259.720261 
L 530.123377 237.120404 
L 530.485714 227.612775 
L 530.848052 223.208102 
L 531.21039 222.711506 
L 531.572727 230.262096 
L 532.65974 258.374891 
L 533.022078 263.142088 
L 533.384416 264.092316 
L 534.109091 252.36428 
L 534.471429 300.16293 
L 534.833766 240.993667 
L 535.196104 241.189267 
L 535.558442 245.491976 
L 536.645455 274.434935 
L 537.007792 278.855364 
L 537.37013 280.563048 
L 537.732468 276.650745 
L 538.094805 268.66335 
L 539.181818 234.687011 
L 539.544156 232.581768 
L 539.906494 231.77312 
L 540.631169 246.470599 
L 540.993506 258.051577 
L 541.718182 271.017387 
L 542.080519 272.271225 
L 543.167532 253.491147 
L 543.52987 249.177874 
L 543.892208 249.793135 
L 544.254545 253.267998 
L 545.341558 282.475017 
L 545.703896 288.618631 
L 546.428571 283.935414 
L 546.790909 274.679255 
L 547.153247 260.187494 
L 547.877922 242.544065 
L 548.24026 237.250132 
L 548.602597 240.463668 
L 548.964935 245.034097 
L 550.414286 278.759886 
L 550.776623 276.707821 
L 551.138961 269.684911 
L 551.501299 265.136045 
L 551.863636 257.309245 
L 552.225974 254.708002 
L 552.588312 253.820398 
L 552.950649 256.101341 
L 554.037662 284.551411 
L 554.4 289.73776 
L 554.762338 292.635377 
L 555.124675 286.062921 
L 555.487013 277.40389 
L 556.211688 252.408018 
L 556.936364 240.60808 
L 557.298701 240.495002 
L 557.661039 245.776048 
L 558.023377 256.006719 
L 559.11039 277.235123 
L 559.472727 277.80445 
L 559.835065 272.993202 
L 560.55974 258.285277 
L 560.922078 254.193158 
L 561.284416 253.480435 
L 561.646753 255.07017 
L 562.733766 283.046343 
L 563.096104 288.222587 
L 563.458442 289.853667 
L 564.183117 277.680371 
L 564.907792 249.46649 
L 565.27013 239.998963 
L 565.632468 235.870224 
L 566.357143 243.28417 
L 567.444156 269.752985 
L 567.806494 275.071411 
L 568.531169 270.132062 
L 569.618182 250.553999 
L 569.980519 249.786239 
L 570.342857 255.505889 
L 571.067532 272.567956 
L 571.42987 282.389408 
L 571.792208 286.889424 
L 572.154545 288.938151 
L 572.516883 282.857674 
L 574.328571 235.496612 
L 575.053247 240.888824 
L 576.14026 268.967164 
L 576.502597 272.440079 
L 576.864935 272.145687 
L 577.227273 268.95876 
L 577.951948 254.116701 
L 578.676623 249.630771 
L 579.038961 255.24753 
L 579.763636 272.328623 
L 580.488312 290.38814 
L 580.850649 288.497172 
L 581.575325 276.649059 
L 582.3 253.415061 
L 582.662338 243.373267 
L 583.024675 239.704096 
L 583.387013 239.575338 
L 583.749351 245.365063 
L 584.836364 273.383369 
L 585.198701 276.888311 
L 585.561039 278.411755 
L 585.923377 275.023316 
L 586.648052 261.247404 
L 587.01039 257.201376 
L 587.372727 257.868647 
L 587.735065 261.984092 
L 588.097403 268.774405 
L 588.822078 288.021315 
L 589.184416 294.95421 
L 589.546753 295.652688 
L 589.909091 291.333488 
L 590.633766 271.821304 
L 590.996104 260.122104 
L 591.358442 254.071779 
L 591.720779 246.141177 
L 592.083117 248.716403 
L 592.445455 253.933967 
L 593.894805 285.100566 
L 594.257143 286.684935 
L 594.619481 282.001767 
L 595.344156 269.314308 
L 595.706494 264.608557 
L 596.068831 264.556475 
L 596.431169 270.56823 
L 597.155844 288.457689 
L 597.518182 299.065038 
L 597.880519 304.452634 
L 598.242857 306.291257 
L 598.605195 301.238327 
L 598.967532 292.393414 
L 599.692208 268.892416 
L 600.054545 260.358596 
L 600.416883 256.548932 
L 600.779221 257.662003 
L 601.141558 261.918656 
L 601.866234 282.628374 
L 602.590909 295.62543 
L 602.953247 294.229322 
L 603.677922 284.597637 
L 604.04026 275.267047 
L 604.402597 273.182648 
L 604.764935 273.340294 
L 605.127273 223.595288 
L 605.48961 285.298026 
L 606.576623 312.189397 
L 606.938961 312.708557 
L 607.663636 300.555275 
L 608.388312 274.908459 
L 609.112987 261.989915 
L 609.475325 262.392369 
L 609.837662 268.372464 
L 610.562338 287.603267 
L 611.287013 301.309064 
L 611.649351 300.751663 
L 612.011688 296.251429 
L 612.374026 287.68045 
L 613.098701 278.990561 
L 613.461039 277.836722 
L 614.185714 288.19804 
L 614.91039 309.901044 
L 615.272727 315.287475 
L 615.635065 315.389707 
L 616.35974 301.338489 
L 616.722078 290.77147 
L 617.084416 276.39292 
L 617.446753 268.534462 
L 617.809091 264.474103 
L 618.171429 264.341092 
L 618.533766 269.910716 
L 618.896104 278.440704 
L 619.258442 290.099935 
L 619.620779 297.222846 
L 619.983117 299.64089 
L 620.345455 300.745949 
L 620.707792 298.763902 
L 621.432468 280.999048 
L 621.794805 278.580098 
L 622.157143 277.453007 
L 622.519481 281.776156 
L 623.244156 298.639689 
L 623.606494 307.570877 
L 623.968831 312.769006 
L 624.331169 315.31612 
L 624.693506 309.705688 
L 626.142857 265.396797 
L 626.505195 262.894867 
L 626.867532 262.468845 
L 627.592208 274.081571 
L 627.954545 288.096161 
L 628.316883 294.824226 
L 628.679221 299.2879 
L 629.041558 297.908399 
L 629.403896 294.085645 
L 630.490909 275.474318 
L 630.853247 273.095517 
L 631.577922 287.371863 
L 632.302597 304.931701 
L 632.664935 309.659943 
L 633.027273 311.544583 
L 633.38961 307.00497 
L 635.201299 259.793259 
L 635.563636 261.368382 
L 635.925974 267.138434 
L 636.650649 286.292307 
L 637.375325 298.511994 
L 637.737662 298.00694 
L 638.824675 281.593773 
L 639.187013 276.809888 
L 639.549351 276.046071 
L 640.274026 287.847609 
L 641.361039 313.497207 
L 641.723377 312.091574 
L 642.085714 308.766215 
L 642.448052 300.330374 
L 643.172727 276.795229 
L 643.535065 267.814552 
L 643.897403 264.273086 
L 644.25974 265.672317 
L 644.622078 268.508776 
L 645.709091 298.367115 
L 646.071429 302.516813 
L 646.433766 302.703235 
L 646.796104 295.898004 
L 647.158442 292.014036 
L 647.520779 284.426561 
L 647.883117 281.713644 
L 648.245455 280.175173 
L 648.97013 293.570916 
L 649.694805 312.953336 
L 650.057143 319.159238 
L 650.419481 319.783826 
L 650.781818 315.592876 
L 651.506494 295.854349 
L 652.231169 274.70786 
L 652.593506 269.349867 
L 653.318182 278.251421 
L 654.405195 305.141414 
L 654.767532 309.769104 
L 655.12987 310.087336 
L 655.854545 301.668844 
L 656.216883 293.516104 
L 656.579221 288.446085 
L 656.941558 290.652191 
L 657.303896 295.186227 
L 657.666234 301.325152 
L 658.390909 321.91306 
L 659.115584 331.826737 
L 659.477922 326.480396 
L 659.84026 316.798976 
L 660.564935 290.118477 
L 660.927273 284.187416 
L 661.28961 280.391903 
L 662.014286 288.163909 
L 663.101299 314.681781 
L 663.463636 318.276093 
L 663.825974 320.005765 
L 664.188312 316.83146 
L 664.912987 302.739381 
L 665.637662 296.694055 
L 666 303.528465 
L 666.362338 308.209812 
L 667.087013 329.830806 
L 667.449351 337.001589 
L 667.811688 335.841778 
L 668.174026 331.808595 
L 668.536364 325.269832 
L 668.898701 308.974268 
L 669.261039 298.732247 
L 669.985714 287.630124 
L 670.348052 288.393176 
L 671.072727 301.94123 
L 671.435065 314.088286 
L 671.797403 321.89919 
L 672.15974 323.766199 
L 672.522078 324.569176 
L 673.971429 303.422478 
L 674.333766 300.895179 
L 674.696104 306.441203 
L 675.058442 313.927366 
L 675.420779 325.715891 
L 675.783117 333.48198 
L 676.145455 338.67686 
L 676.507792 340.38709 
L 676.87013 333.991178 
L 677.232468 325.158183 
L 678.319481 291.208451 
L 678.681818 288.313894 
L 679.044156 289.060346 
L 679.406494 293.850333 
L 680.493506 318.905815 
L 680.855844 324.349558 
L 681.218182 323.965878 
L 681.580519 319.666805 
L 682.305195 306.511607 
L 682.667532 302.477509 
L 683.02987 301.401359 
L 683.392208 305.080313 
L 683.754545 311.51006 
L 684.116883 324.0686 
L 685.203896 340.909045 
L 685.566234 335.421901 
L 687.015584 291.667838 
L 687.377922 287.473358 
L 687.74026 287.219369 
L 688.102597 293.087248 
L 689.18961 318.478304 
L 689.551948 322.668696 
L 689.914286 321.745937 
L 690.276623 318.229726 
L 691.001299 302.979616 
L 691.363636 299.828305 
L 691.725974 299.26999 
L 692.088312 303.67001 
L 692.812987 320.039495 
L 693.175325 329.661464 
L 693.537662 336.059184 
L 693.9 336.064513 
L 694.262338 331.803906 
L 695.711688 289.233244 
L 696.074026 284.662512 
L 696.436364 283.850251 
L 696.798701 294.084355 
L 697.161039 300.434679 
L 697.885714 317.605864 
L 698.248052 320.994353 
L 698.61039 321.923142 
L 698.972727 318.647936 
L 699.335065 309.249673 
L 700.05974 301.370759 
L 700.422078 300.288068 
L 700.784416 304.04404 
L 701.146753 311.177499 
L 701.509091 323.053162 
L 702.233766 336.927546 
L 702.596104 338.899969 
L 703.320779 325.996486 
L 704.045455 301.530945 
L 704.77013 286.770003 
L 705.132468 287.297681 
L 705.857143 304.043578 
L 706.219481 369.36 
L 706.581818 323.102835 
L 706.944156 325.975664 
L 707.306494 325.185138 
L 707.668831 322.337066 
L 708.393506 310.329588 
L 708.755844 306.047724 
L 709.118182 306.303181 
L 709.480519 308.672266 
L 710.205195 325.72855 
L 710.92987 342.7304 
L 711.292208 344.574913 
L 711.654545 340.602869 
L 712.016883 332.211093 
L 712.741558 308.558239 
L 713.103896 298.874054 
L 713.466234 294.299847 
L 713.828571 295.120781 
L 714.190909 302.581307 
L 714.915584 321.163531 
L 715.277922 330.568932 
L 715.64026 335.116911 
L 716.002597 334.023822 
L 716.364935 331.487908 
L 717.08961 316.715315 
L 717.451948 313.980851 
L 717.814286 313.65322 
L 718.176623 317.800395 
L 719.625974 354.226704 
L 719.988312 353.003284 
L 720.350649 348.535606 
L 720.712987 341.64048 
L 721.8 308.50496 
L 722.162338 302.361986 
L 722.524675 304.720494 
L 722.887013 311.144391 
L 723.974026 340.620232 
L 724.336364 343.644173 
L 724.698701 342.025847 
L 725.061039 338.569498 
L 726.148052 320.839353 
L 726.51039 321.964263 
L 726.872727 325.440429 
L 727.235065 337.051465 
L 728.322078 360.432319 
L 728.684416 361.726065 
L 729.409091 346.8045 
L 730.496104 316.069335 
L 730.858442 311.006655 
L 731.220779 310.628261 
L 731.583117 317.815983 
L 732.307792 337.704396 
L 733.032468 348.137874 
L 733.394805 348.006157 
L 733.757143 344.010499 
L 734.119481 338.768836 
L 734.481818 330.365867 
L 734.844156 325.881496 
L 735.206494 325.693181 
L 735.931169 339.114165 
L 736.293506 349.389764 
L 736.655844 354.90897 
L 737.018182 363.103309 
L 737.380519 362.685695 
L 737.742857 359.258513 
L 738.105195 352.348837 
L 738.82987 325.495741 
L 739.192208 315.947762 
L 739.554545 310.962323 
L 739.916883 311.182945 
L 740.279221 318.914095 
L 741.003896 338.143096 
L 741.728571 349.21152 
L 742.090909 346.630293 
L 742.453247 345.124133 
L 742.815584 336.798573 
L 743.177922 331.893567 
L 743.54026 324.766344 
L 743.902597 326.260036 
L 744.264935 329.181785 
L 745.351948 357.385193 
L 745.714286 360.948793 
L 746.076623 362.629616 
L 746.438961 357.401535 
L 746.801299 349.109898 
L 746.801299 349.109898 
" style="fill:none;stroke:#1f77b4;stroke-linecap:square;stroke-width:1.5;"/>
   </g>
   <g id="line2d_17">
    <path clip-path="url(#p1c9d502a29)" d="M 747.163636 384.48 
L 747.163636 51.84 
" style="fill:none;stroke:#808080;stroke-linecap:square;"/>
   </g>
   <g id="patch_106">
    <path d="M 108 384.48 
L 108 51.84 
" style="fill:none;stroke:#000000;stroke-linecap:square;stroke-linejoin:miter;stroke-width:0.8;"/>
   </g>
   <g id="patch_107">
    <path d="M 777.6 384.48 
L 777.6 51.84 
" style="fill:none;stroke:#000000;stroke-linecap:square;stroke-linejoin:miter;stroke-width:0.8;"/>
   </g>
   <g id="patch_108">
    <path d="M 108 384.48 
L 777.6 384.48 
" style="fill:none;stroke:#000000;stroke-linecap:square;stroke-linejoin:miter;stroke-width:0.8;"/>
   </g>
   <g id="patch_109">
    <path d="M 108 51.84 
L 777.6 51.84 
" style="fill:none;stroke:#000000;stroke-linecap:square;stroke-linejoin:miter;stroke-width:0.8;"/>
   </g>
   <g id="text_18">
    <!-- A3Benchmark-TS8.csv -->
    <defs>
     <path d="M 34.1875 63.1875 
L 20.796875 26.90625 
L 47.609375 26.90625 
z
M 28.609375 72.90625 
L 39.796875 72.90625 
L 67.578125 0 
L 57.328125 0 
L 50.6875 18.703125 
L 17.828125 18.703125 
L 11.1875 0 
L 0.78125 0 
z
" id="DejaVuSans-65"/>
     <path d="M 19.671875 34.8125 
L 19.671875 8.109375 
L 35.5 8.109375 
Q 43.453125 8.109375 47.28125 11.40625 
Q 51.125 14.703125 51.125 21.484375 
Q 51.125 28.328125 47.28125 31.5625 
Q 43.453125 34.8125 35.5 34.8125 
z
M 19.671875 64.796875 
L 19.671875 42.828125 
L 34.28125 42.828125 
Q 41.5 42.828125 45.03125 45.53125 
Q 48.578125 48.25 48.578125 53.8125 
Q 48.578125 59.328125 45.03125 62.0625 
Q 41.5 64.796875 34.28125 64.796875 
z
M 9.8125 72.90625 
L 35.015625 72.90625 
Q 46.296875 72.90625 52.390625 68.21875 
Q 58.5 63.53125 58.5 54.890625 
Q 58.5 48.1875 55.375 44.234375 
Q 52.25 40.28125 46.1875 39.3125 
Q 53.46875 37.75 57.5 32.78125 
Q 61.53125 27.828125 61.53125 20.40625 
Q 61.53125 10.640625 54.890625 5.3125 
Q 48.25 0 35.984375 0 
L 9.8125 0 
z
" id="DejaVuSans-66"/>
     <path d="M 54.890625 33.015625 
L 54.890625 0 
L 45.90625 0 
L 45.90625 32.71875 
Q 45.90625 40.484375 42.875 44.328125 
Q 39.84375 48.1875 33.796875 48.1875 
Q 26.515625 48.1875 22.3125 43.546875 
Q 18.109375 38.921875 18.109375 30.90625 
L 18.109375 0 
L 9.078125 0 
L 9.078125 54.6875 
L 18.109375 54.6875 
L 18.109375 46.1875 
Q 21.34375 51.125 25.703125 53.5625 
Q 30.078125 56 35.796875 56 
Q 45.21875 56 50.046875 50.171875 
Q 54.890625 44.34375 54.890625 33.015625 
z
" id="DejaVuSans-110"/>
     <path d="M 48.78125 52.59375 
L 48.78125 44.1875 
Q 44.96875 46.296875 41.140625 47.34375 
Q 37.3125 48.390625 33.40625 48.390625 
Q 24.65625 48.390625 19.8125 42.84375 
Q 14.984375 37.3125 14.984375 27.296875 
Q 14.984375 17.28125 19.8125 11.734375 
Q 24.65625 6.203125 33.40625 6.203125 
Q 37.3125 6.203125 41.140625 7.25 
Q 44.96875 8.296875 48.78125 10.40625 
L 48.78125 2.09375 
Q 45.015625 0.34375 40.984375 -0.53125 
Q 36.96875 -1.421875 32.421875 -1.421875 
Q 20.0625 -1.421875 12.78125 6.34375 
Q 5.515625 14.109375 5.515625 27.296875 
Q 5.515625 40.671875 12.859375 48.328125 
Q 20.21875 56 33.015625 56 
Q 37.15625 56 41.109375 55.140625 
Q 45.0625 54.296875 48.78125 52.59375 
z
" id="DejaVuSans-99"/>
     <path d="M 54.890625 33.015625 
L 54.890625 0 
L 45.90625 0 
L 45.90625 32.71875 
Q 45.90625 40.484375 42.875 44.328125 
Q 39.84375 48.1875 33.796875 48.1875 
Q 26.515625 48.1875 22.3125 43.546875 
Q 18.109375 38.921875 18.109375 30.90625 
L 18.109375 0 
L 9.078125 0 
L 9.078125 75.984375 
L 18.109375 75.984375 
L 18.109375 46.1875 
Q 21.34375 51.125 25.703125 53.5625 
Q 30.078125 56 35.796875 56 
Q 45.21875 56 50.046875 50.171875 
Q 54.890625 44.34375 54.890625 33.015625 
z
" id="DejaVuSans-104"/>
     <path d="M 41.109375 46.296875 
Q 39.59375 47.171875 37.8125 47.578125 
Q 36.03125 48 33.890625 48 
Q 26.265625 48 22.1875 43.046875 
Q 18.109375 38.09375 18.109375 28.8125 
L 18.109375 0 
L 9.078125 0 
L 9.078125 54.6875 
L 18.109375 54.6875 
L 18.109375 46.1875 
Q 20.953125 51.171875 25.484375 53.578125 
Q 30.03125 56 36.53125 56 
Q 37.453125 56 38.578125 55.875 
Q 39.703125 55.765625 41.0625 55.515625 
z
" id="DejaVuSans-114"/>
     <path d="M 9.078125 75.984375 
L 18.109375 75.984375 
L 18.109375 31.109375 
L 44.921875 54.6875 
L 56.390625 54.6875 
L 27.390625 29.109375 
L 57.625 0 
L 45.90625 0 
L 18.109375 26.703125 
L 18.109375 0 
L 9.078125 0 
z
" id="DejaVuSans-107"/>
     <path d="M 4.890625 31.390625 
L 31.203125 31.390625 
L 31.203125 23.390625 
L 4.890625 23.390625 
z
" id="DejaVuSans-45"/>
     <path d="M 53.515625 70.515625 
L 53.515625 60.890625 
Q 47.90625 63.578125 42.921875 64.890625 
Q 37.9375 66.21875 33.296875 66.21875 
Q 25.25 66.21875 20.875 63.09375 
Q 16.5 59.96875 16.5 54.203125 
Q 16.5 49.359375 19.40625 46.890625 
Q 22.3125 44.4375 30.421875 42.921875 
L 36.375 41.703125 
Q 47.40625 39.59375 52.65625 34.296875 
Q 57.90625 29 57.90625 20.125 
Q 57.90625 9.515625 50.796875 4.046875 
Q 43.703125 -1.421875 29.984375 -1.421875 
Q 24.8125 -1.421875 18.96875 -0.25 
Q 13.140625 0.921875 6.890625 3.21875 
L 6.890625 13.375 
Q 12.890625 10.015625 18.65625 8.296875 
Q 24.421875 6.59375 29.984375 6.59375 
Q 38.421875 6.59375 43.015625 9.90625 
Q 47.609375 13.234375 47.609375 19.390625 
Q 47.609375 24.75 44.3125 27.78125 
Q 41.015625 30.8125 33.5 32.328125 
L 27.484375 33.5 
Q 16.453125 35.6875 11.515625 40.375 
Q 6.59375 45.0625 6.59375 53.421875 
Q 6.59375 63.09375 13.40625 68.65625 
Q 20.21875 74.21875 32.171875 74.21875 
Q 37.3125 74.21875 42.625 73.28125 
Q 47.953125 72.359375 53.515625 70.515625 
z
" id="DejaVuSans-83"/>
     <path d="M 31.78125 34.625 
Q 24.75 34.625 20.71875 30.859375 
Q 16.703125 27.09375 16.703125 20.515625 
Q 16.703125 13.921875 20.71875 10.15625 
Q 24.75 6.390625 31.78125 6.390625 
Q 38.8125 6.390625 42.859375 10.171875 
Q 46.921875 13.96875 46.921875 20.515625 
Q 46.921875 27.09375 42.890625 30.859375 
Q 38.875 34.625 31.78125 34.625 
z
M 21.921875 38.8125 
Q 15.578125 40.375 12.03125 44.71875 
Q 8.5 49.078125 8.5 55.328125 
Q 8.5 64.0625 14.71875 69.140625 
Q 20.953125 74.21875 31.78125 74.21875 
Q 42.671875 74.21875 48.875 69.140625 
Q 55.078125 64.0625 55.078125 55.328125 
Q 55.078125 49.078125 51.53125 44.71875 
Q 48 40.375 41.703125 38.8125 
Q 48.828125 37.15625 52.796875 32.3125 
Q 56.78125 27.484375 56.78125 20.515625 
Q 56.78125 9.90625 50.3125 4.234375 
Q 43.84375 -1.421875 31.78125 -1.421875 
Q 19.734375 -1.421875 13.25 4.234375 
Q 6.78125 9.90625 6.78125 20.515625 
Q 6.78125 27.484375 10.78125 32.3125 
Q 14.796875 37.15625 21.921875 38.8125 
z
M 18.3125 54.390625 
Q 18.3125 48.734375 21.84375 45.5625 
Q 25.390625 42.390625 31.78125 42.390625 
Q 38.140625 42.390625 41.71875 45.5625 
Q 45.3125 48.734375 45.3125 54.390625 
Q 45.3125 60.0625 41.71875 63.234375 
Q 38.140625 66.40625 31.78125 66.40625 
Q 25.390625 66.40625 21.84375 63.234375 
Q 18.3125 60.0625 18.3125 54.390625 
z
" id="DejaVuSans-56"/>
     <path d="M 10.6875 12.40625 
L 21 12.40625 
L 21 0 
L 10.6875 0 
z
" id="DejaVuSans-46"/>
     <path d="M 2.984375 54.6875 
L 12.5 54.6875 
L 29.59375 8.796875 
L 46.6875 54.6875 
L 56.203125 54.6875 
L 35.6875 0 
L 23.484375 0 
z
" id="DejaVuSans-118"/>
    </defs>
    <g transform="translate(375.373125 45.84)scale(0.12 -0.12)">
     <use xlink:href="#DejaVuSans-65"/>
     <use x="68.408203" xlink:href="#DejaVuSans-51"/>
     <use x="132.03125" xlink:href="#DejaVuSans-66"/>
     <use x="200.634766" xlink:href="#DejaVuSans-101"/>
     <use x="262.158203" xlink:href="#DejaVuSans-110"/>
     <use x="325.537109" xlink:href="#DejaVuSans-99"/>
     <use x="380.517578" xlink:href="#DejaVuSans-104"/>
     <use x="443.896484" xlink:href="#DejaVuSans-109"/>
     <use x="541.308594" xlink:href="#DejaVuSans-97"/>
     <use x="602.587891" xlink:href="#DejaVuSans-114"/>
     <use x="643.701172" xlink:href="#DejaVuSans-107"/>
     <use x="701.611328" xlink:href="#DejaVuSans-45"/>
     <use x="737.554688" xlink:href="#DejaVuSans-84"/>
     <use x="798.638672" xlink:href="#DejaVuSans-83"/>
     <use x="862.115234" xlink:href="#DejaVuSans-56"/>
     <use x="925.738281" xlink:href="#DejaVuSans-46"/>
     <use x="957.525391" xlink:href="#DejaVuSans-99"/>
     <use x="1012.505859" xlink:href="#DejaVuSans-115"/>
     <use x="1064.605469" xlink:href="#DejaVuSans-118"/>
    </g>
   </g>
   <g id="legend_1">
    <g id="patch_110">
     <path d="M 711.284375 74.518125 
L 770.6 74.518125 
Q 772.6 74.518125 772.6 72.518125 
L 772.6 58.84 
Q 772.6 56.84 770.6 56.84 
L 711.284375 56.84 
Q 709.284375 56.84 709.284375 58.84 
L 709.284375 72.518125 
Q 709.284375 74.518125 711.284375 74.518125 
z
" style="fill:#ffffff;opacity:0.8;stroke:#cccccc;stroke-linejoin:miter;"/>
    </g>
    <g id="line2d_18">
     <path d="M 713.284375 64.938438 
L 733.284375 64.938438 
" style="fill:none;stroke:#1f77b4;stroke-linecap:square;stroke-width:1.5;"/>
    </g>
    <g id="line2d_19"/>
    <g id="text_19">
     <!-- value -->
     <g transform="translate(741.284375 68.438438)scale(0.1 -0.1)">
      <use xlink:href="#DejaVuSans-118"/>
      <use x="59.179688" xlink:href="#DejaVuSans-97"/>
      <use x="120.458984" xlink:href="#DejaVuSans-108"/>
      <use x="148.242188" xlink:href="#DejaVuSans-117"/>
      <use x="211.621094" xlink:href="#DejaVuSans-101"/>
     </g>
    </g>
   </g>
  </g>
 </g>
 <defs>
  <clipPath id="p1c9d502a29">
   <rect height="332.64" width="669.6" x="108" y="51.84"/>
  </clipPath>
 </defs>
</svg>
