<?xml version="1.0" encoding="utf-8" standalone="no"?>
<!DOCTYPE svg PUBLIC "-//W3C//DTD SVG 1.1//EN"
  "http://www.w3.org/Graphics/SVG/1.1/DTD/svg11.dtd">
<!-- Created with matplotlib (https://matplotlib.org/) -->
<svg height="432pt" version="1.1" viewBox="0 0 864 432" width="864pt" xmlns="http://www.w3.org/2000/svg" xmlns:xlink="http://www.w3.org/1999/xlink">
 <defs>
  <style type="text/css">
*{stroke-linecap:butt;stroke-linejoin:round;}
  </style>
 </defs>
 <g id="figure_1">
  <g id="patch_1">
   <path d="M 0 432 
L 864 432 
L 864 0 
L 0 0 
z
" style="fill:#ffffff;"/>
  </g>
  <g id="axes_1">
   <g id="patch_2">
    <path d="M 108 384.48 
L 777.6 384.48 
L 777.6 51.84 
L 108 51.84 
z
" style="fill:#ffffff;"/>
   </g>
   <g id="patch_3">
    <path clip-path="url(#p2487ed0928)" d="M 138.436364 384.48 
L 138.436364 51.84 
L 258.007792 51.84 
L 258.007792 384.48 
z
" style="fill:#0000ff;opacity:0.05;"/>
   </g>
   <g id="patch_4">
    <path clip-path="url(#p2487ed0928)" d="M 258.007792 384.48 
L 258.007792 51.84 
L 747.163636 51.84 
L 747.163636 384.48 
z
" style="fill:#ff0000;opacity:0.08;"/>
   </g>
   <g id="patch_5">
    <path clip-path="url(#p2487ed0928)" d="M 138.436364 384.48 
L 138.436364 51.84 
L 142.05974 51.84 
L 142.05974 384.48 
z
" style="fill:#008000;opacity:0.04;"/>
   </g>
   <g id="patch_6">
    <path clip-path="url(#p2487ed0928)" d="M 145.683117 384.48 
L 145.683117 51.84 
L 149.306494 51.84 
L 149.306494 384.48 
z
" style="fill:#008000;opacity:0.04;"/>
   </g>
   <g id="patch_7">
    <path clip-path="url(#p2487ed0928)" d="M 145.683117 384.48 
L 145.683117 371.1744 
L 149.306494 371.1744 
L 149.306494 384.48 
z
" style="fill:#ffe500;"/>
   </g>
   <g id="patch_8">
    <path clip-path="url(#p2487ed0928)" d="M 268.877922 384.48 
L 268.877922 371.1744 
L 272.501299 371.1744 
L 272.501299 384.48 
z
" style="fill:#ff6600;"/>
   </g>
   <g id="patch_9">
    <path clip-path="url(#p2487ed0928)" d="M 152.92987 384.48 
L 152.92987 51.84 
L 156.553247 51.84 
L 156.553247 384.48 
z
" style="fill:#008000;opacity:0.04;"/>
   </g>
   <g id="patch_10">
    <path clip-path="url(#p2487ed0928)" d="M 160.176623 384.48 
L 160.176623 51.84 
L 163.8 51.84 
L 163.8 384.48 
z
" style="fill:#008000;opacity:0.04;"/>
   </g>
   <g id="patch_11">
    <path clip-path="url(#p2487ed0928)" d="M 167.423377 384.48 
L 167.423377 51.84 
L 171.046753 51.84 
L 171.046753 384.48 
z
" style="fill:#008000;opacity:0.04;"/>
   </g>
   <g id="patch_12">
    <path clip-path="url(#p2487ed0928)" d="M 174.67013 384.48 
L 174.67013 51.84 
L 178.293506 51.84 
L 178.293506 384.48 
z
" style="fill:#008000;opacity:0.04;"/>
   </g>
   <g id="patch_13">
    <path clip-path="url(#p2487ed0928)" d="M 181.916883 384.48 
L 181.916883 51.84 
L 185.54026 51.84 
L 185.54026 384.48 
z
" style="fill:#008000;opacity:0.04;"/>
   </g>
   <g id="patch_14">
    <path clip-path="url(#p2487ed0928)" d="M 189.163636 384.48 
L 189.163636 51.84 
L 192.787013 51.84 
L 192.787013 384.48 
z
" style="fill:#008000;opacity:0.04;"/>
   </g>
   <g id="patch_15">
    <path clip-path="url(#p2487ed0928)" d="M 189.163636 384.48 
L 189.163636 371.1744 
L 192.787013 371.1744 
L 192.787013 384.48 
z
" style="fill:#ffe500;"/>
   </g>
   <g id="patch_16">
    <path clip-path="url(#p2487ed0928)" d="M 196.41039 384.48 
L 196.41039 51.84 
L 200.033766 51.84 
L 200.033766 384.48 
z
" style="fill:#008000;opacity:0.04;"/>
   </g>
   <g id="patch_17">
    <path clip-path="url(#p2487ed0928)" d="M 203.657143 384.48 
L 203.657143 51.84 
L 207.280519 51.84 
L 207.280519 384.48 
z
" style="fill:#008000;opacity:0.04;"/>
   </g>
   <g id="patch_18">
    <path clip-path="url(#p2487ed0928)" d="M 323.228571 384.48 
L 323.228571 371.1744 
L 326.851948 371.1744 
L 326.851948 384.48 
z
" style="fill:#ff6600;"/>
   </g>
   <g id="patch_19">
    <path clip-path="url(#p2487ed0928)" d="M 210.903896 384.48 
L 210.903896 51.84 
L 214.527273 51.84 
L 214.527273 384.48 
z
" style="fill:#008000;opacity:0.04;"/>
   </g>
   <g id="patch_20">
    <path clip-path="url(#p2487ed0928)" d="M 218.150649 384.48 
L 218.150649 51.84 
L 221.774026 51.84 
L 221.774026 384.48 
z
" style="fill:#008000;opacity:0.04;"/>
   </g>
   <g id="patch_21">
    <path clip-path="url(#p2487ed0928)" d="M 225.397403 384.48 
L 225.397403 51.84 
L 229.020779 51.84 
L 229.020779 384.48 
z
" style="fill:#008000;opacity:0.04;"/>
   </g>
   <g id="patch_22">
    <path clip-path="url(#p2487ed0928)" d="M 225.397403 371.1744 
L 225.397403 51.84 
L 229.020779 51.84 
L 229.020779 371.1744 
z
" style="fill:#008000;opacity:0.5;"/>
   </g>
   <g id="patch_23">
    <path clip-path="url(#p2487ed0928)" d="M 225.397403 384.48 
L 225.397403 371.1744 
L 229.020779 371.1744 
L 229.020779 384.48 
z
" style="fill:#ffe500;"/>
   </g>
   <g id="patch_24">
    <path clip-path="url(#p2487ed0928)" d="M 232.644156 384.48 
L 232.644156 51.84 
L 236.267532 51.84 
L 236.267532 384.48 
z
" style="fill:#008000;opacity:0.04;"/>
   </g>
   <g id="patch_25">
    <path clip-path="url(#p2487ed0928)" d="M 239.890909 384.48 
L 239.890909 51.84 
L 243.514286 51.84 
L 243.514286 384.48 
z
" style="fill:#008000;opacity:0.04;"/>
   </g>
   <g id="patch_26">
    <path clip-path="url(#p2487ed0928)" d="M 247.137662 384.48 
L 247.137662 51.84 
L 250.761039 51.84 
L 250.761039 384.48 
z
" style="fill:#008000;opacity:0.04;"/>
   </g>
   <g id="patch_27">
    <path clip-path="url(#p2487ed0928)" d="M 254.384416 384.48 
L 254.384416 51.84 
L 258.007792 51.84 
L 258.007792 384.48 
z
" style="fill:#008000;opacity:0.04;"/>
   </g>
   <g id="patch_28">
    <path clip-path="url(#p2487ed0928)" d="M 261.631169 384.48 
L 261.631169 51.84 
L 265.254545 51.84 
L 265.254545 384.48 
z
" style="fill:#008000;opacity:0.04;"/>
   </g>
   <g id="patch_29">
    <path clip-path="url(#p2487ed0928)" d="M 268.877922 384.48 
L 268.877922 51.84 
L 272.501299 51.84 
L 272.501299 384.48 
z
" style="fill:#008000;opacity:0.04;"/>
   </g>
   <g id="patch_30">
    <path clip-path="url(#p2487ed0928)" d="M 268.877922 371.1744 
L 268.877922 51.84 
L 272.501299 51.84 
L 272.501299 371.1744 
z
" style="fill:#008000;opacity:0.5;"/>
   </g>
   <g id="patch_31">
    <path clip-path="url(#p2487ed0928)" d="M 276.124675 384.48 
L 276.124675 51.84 
L 279.748052 51.84 
L 279.748052 384.48 
z
" style="fill:#008000;opacity:0.04;"/>
   </g>
   <g id="patch_32">
    <path clip-path="url(#p2487ed0928)" d="M 283.371429 384.48 
L 283.371429 51.84 
L 286.994805 51.84 
L 286.994805 384.48 
z
" style="fill:#008000;opacity:0.04;"/>
   </g>
   <g id="patch_33">
    <path clip-path="url(#p2487ed0928)" d="M 290.618182 384.48 
L 290.618182 51.84 
L 294.241558 51.84 
L 294.241558 384.48 
z
" style="fill:#008000;opacity:0.04;"/>
   </g>
   <g id="patch_34">
    <path clip-path="url(#p2487ed0928)" d="M 297.864935 384.48 
L 297.864935 51.84 
L 301.488312 51.84 
L 301.488312 384.48 
z
" style="fill:#008000;opacity:0.04;"/>
   </g>
   <g id="patch_35">
    <path clip-path="url(#p2487ed0928)" d="M 305.111688 384.48 
L 305.111688 51.84 
L 308.735065 51.84 
L 308.735065 384.48 
z
" style="fill:#008000;opacity:0.04;"/>
   </g>
   <g id="patch_36">
    <path clip-path="url(#p2487ed0928)" d="M 312.358442 384.48 
L 312.358442 51.84 
L 315.981818 51.84 
L 315.981818 384.48 
z
" style="fill:#008000;opacity:0.04;"/>
   </g>
   <g id="patch_37">
    <path clip-path="url(#p2487ed0928)" d="M 319.605195 384.48 
L 319.605195 51.84 
L 323.228571 51.84 
L 323.228571 384.48 
z
" style="fill:#008000;opacity:0.04;"/>
   </g>
   <g id="patch_38">
    <path clip-path="url(#p2487ed0928)" d="M 323.228571 371.1744 
L 323.228571 51.84 
L 326.851948 51.84 
L 326.851948 371.1744 
z
" style="fill:#008000;opacity:0.5;"/>
   </g>
   <g id="patch_39">
    <path clip-path="url(#p2487ed0928)" d="M 326.851948 384.48 
L 326.851948 51.84 
L 330.475325 51.84 
L 330.475325 384.48 
z
" style="fill:#008000;opacity:0.04;"/>
   </g>
   <g id="patch_40">
    <path clip-path="url(#p2487ed0928)" d="M 334.098701 384.48 
L 334.098701 51.84 
L 337.722078 51.84 
L 337.722078 384.48 
z
" style="fill:#008000;opacity:0.04;"/>
   </g>
   <g id="patch_41">
    <path clip-path="url(#p2487ed0928)" d="M 341.345455 384.48 
L 341.345455 51.84 
L 344.968831 51.84 
L 344.968831 384.48 
z
" style="fill:#008000;opacity:0.04;"/>
   </g>
   <g id="patch_42">
    <path clip-path="url(#p2487ed0928)" d="M 348.592208 384.48 
L 348.592208 51.84 
L 352.215584 51.84 
L 352.215584 384.48 
z
" style="fill:#008000;opacity:0.04;"/>
   </g>
   <g id="patch_43">
    <path clip-path="url(#p2487ed0928)" d="M 355.838961 384.48 
L 355.838961 51.84 
L 359.462338 51.84 
L 359.462338 384.48 
z
" style="fill:#008000;opacity:0.04;"/>
   </g>
   <g id="patch_44">
    <path clip-path="url(#p2487ed0928)" d="M 363.085714 384.48 
L 363.085714 51.84 
L 366.709091 51.84 
L 366.709091 384.48 
z
" style="fill:#008000;opacity:0.04;"/>
   </g>
   <g id="patch_45">
    <path clip-path="url(#p2487ed0928)" d="M 482.657143 384.48 
L 482.657143 371.1744 
L 486.280519 371.1744 
L 486.280519 384.48 
z
" style="fill:#ff6600;"/>
   </g>
   <g id="patch_46">
    <path clip-path="url(#p2487ed0928)" d="M 370.332468 384.48 
L 370.332468 51.84 
L 373.955844 51.84 
L 373.955844 384.48 
z
" style="fill:#008000;opacity:0.04;"/>
   </g>
   <g id="patch_47">
    <path clip-path="url(#p2487ed0928)" d="M 377.579221 384.48 
L 377.579221 51.84 
L 381.202597 51.84 
L 381.202597 384.48 
z
" style="fill:#008000;opacity:0.04;"/>
   </g>
   <g id="patch_48">
    <path clip-path="url(#p2487ed0928)" d="M 384.825974 384.48 
L 384.825974 51.84 
L 388.449351 51.84 
L 388.449351 384.48 
z
" style="fill:#008000;opacity:0.04;"/>
   </g>
   <g id="patch_49">
    <path clip-path="url(#p2487ed0928)" d="M 392.072727 384.48 
L 392.072727 51.84 
L 395.696104 51.84 
L 395.696104 384.48 
z
" style="fill:#008000;opacity:0.04;"/>
   </g>
   <g id="patch_50">
    <path clip-path="url(#p2487ed0928)" d="M 399.319481 384.48 
L 399.319481 51.84 
L 402.942857 51.84 
L 402.942857 384.48 
z
" style="fill:#008000;opacity:0.04;"/>
   </g>
   <g id="patch_51">
    <path clip-path="url(#p2487ed0928)" d="M 406.566234 384.48 
L 406.566234 51.84 
L 410.18961 51.84 
L 410.18961 384.48 
z
" style="fill:#008000;opacity:0.04;"/>
   </g>
   <g id="patch_52">
    <path clip-path="url(#p2487ed0928)" d="M 413.812987 384.48 
L 413.812987 51.84 
L 417.436364 51.84 
L 417.436364 384.48 
z
" style="fill:#008000;opacity:0.04;"/>
   </g>
   <g id="patch_53">
    <path clip-path="url(#p2487ed0928)" d="M 421.05974 384.48 
L 421.05974 51.84 
L 424.683117 51.84 
L 424.683117 384.48 
z
" style="fill:#008000;opacity:0.04;"/>
   </g>
   <g id="patch_54">
    <path clip-path="url(#p2487ed0928)" d="M 428.306494 384.48 
L 428.306494 51.84 
L 431.92987 51.84 
L 431.92987 384.48 
z
" style="fill:#008000;opacity:0.04;"/>
   </g>
   <g id="patch_55">
    <path clip-path="url(#p2487ed0928)" d="M 435.553247 384.48 
L 435.553247 51.84 
L 439.176623 51.84 
L 439.176623 384.48 
z
" style="fill:#008000;opacity:0.04;"/>
   </g>
   <g id="patch_56">
    <path clip-path="url(#p2487ed0928)" d="M 442.8 384.48 
L 442.8 51.84 
L 446.423377 51.84 
L 446.423377 384.48 
z
" style="fill:#008000;opacity:0.04;"/>
   </g>
   <g id="patch_57">
    <path clip-path="url(#p2487ed0928)" d="M 450.046753 384.48 
L 450.046753 51.84 
L 453.67013 51.84 
L 453.67013 384.48 
z
" style="fill:#008000;opacity:0.04;"/>
   </g>
   <g id="patch_58">
    <path clip-path="url(#p2487ed0928)" d="M 457.293506 384.48 
L 457.293506 51.84 
L 460.916883 51.84 
L 460.916883 384.48 
z
" style="fill:#008000;opacity:0.04;"/>
   </g>
   <g id="patch_59">
    <path clip-path="url(#p2487ed0928)" d="M 464.54026 384.48 
L 464.54026 51.84 
L 468.163636 51.84 
L 468.163636 384.48 
z
" style="fill:#008000;opacity:0.04;"/>
   </g>
   <g id="patch_60">
    <path clip-path="url(#p2487ed0928)" d="M 471.787013 384.48 
L 471.787013 51.84 
L 475.41039 51.84 
L 475.41039 384.48 
z
" style="fill:#008000;opacity:0.04;"/>
   </g>
   <g id="patch_61">
    <path clip-path="url(#p2487ed0928)" d="M 479.033766 384.48 
L 479.033766 51.84 
L 482.657143 51.84 
L 482.657143 384.48 
z
" style="fill:#008000;opacity:0.04;"/>
   </g>
   <g id="patch_62">
    <path clip-path="url(#p2487ed0928)" d="M 482.657143 371.1744 
L 482.657143 51.84 
L 486.280519 51.84 
L 486.280519 371.1744 
z
" style="fill:#008000;opacity:0.5;"/>
   </g>
   <g id="patch_63">
    <path clip-path="url(#p2487ed0928)" d="M 602.228571 384.48 
L 602.228571 371.1744 
L 605.851948 371.1744 
L 605.851948 384.48 
z
" style="fill:#ff6600;"/>
   </g>
   <g id="patch_64">
    <path clip-path="url(#p2487ed0928)" d="M 486.280519 384.48 
L 486.280519 51.84 
L 489.903896 51.84 
L 489.903896 384.48 
z
" style="fill:#008000;opacity:0.04;"/>
   </g>
   <g id="patch_65">
    <path clip-path="url(#p2487ed0928)" d="M 493.527273 384.48 
L 493.527273 51.84 
L 497.150649 51.84 
L 497.150649 384.48 
z
" style="fill:#008000;opacity:0.04;"/>
   </g>
   <g id="patch_66">
    <path clip-path="url(#p2487ed0928)" d="M 500.774026 384.48 
L 500.774026 51.84 
L 504.397403 51.84 
L 504.397403 384.48 
z
" style="fill:#008000;opacity:0.04;"/>
   </g>
   <g id="patch_67">
    <path clip-path="url(#p2487ed0928)" d="M 508.020779 384.48 
L 508.020779 51.84 
L 511.644156 51.84 
L 511.644156 384.48 
z
" style="fill:#008000;opacity:0.04;"/>
   </g>
   <g id="patch_68">
    <path clip-path="url(#p2487ed0928)" d="M 627.592208 384.48 
L 627.592208 371.1744 
L 631.215584 371.1744 
L 631.215584 384.48 
z
" style="fill:#ff6600;"/>
   </g>
   <g id="patch_69">
    <path clip-path="url(#p2487ed0928)" d="M 515.267532 384.48 
L 515.267532 51.84 
L 518.890909 51.84 
L 518.890909 384.48 
z
" style="fill:#008000;opacity:0.04;"/>
   </g>
   <g id="patch_70">
    <path clip-path="url(#p2487ed0928)" d="M 522.514286 384.48 
L 522.514286 51.84 
L 526.137662 51.84 
L 526.137662 384.48 
z
" style="fill:#008000;opacity:0.04;"/>
   </g>
   <g id="patch_71">
    <path clip-path="url(#p2487ed0928)" d="M 529.761039 384.48 
L 529.761039 51.84 
L 533.384416 51.84 
L 533.384416 384.48 
z
" style="fill:#008000;opacity:0.04;"/>
   </g>
   <g id="patch_72">
    <path clip-path="url(#p2487ed0928)" d="M 537.007792 384.48 
L 537.007792 51.84 
L 540.631169 51.84 
L 540.631169 384.48 
z
" style="fill:#008000;opacity:0.04;"/>
   </g>
   <g id="patch_73">
    <path clip-path="url(#p2487ed0928)" d="M 544.254545 384.48 
L 544.254545 51.84 
L 547.877922 51.84 
L 547.877922 384.48 
z
" style="fill:#008000;opacity:0.04;"/>
   </g>
   <g id="patch_74">
    <path clip-path="url(#p2487ed0928)" d="M 551.501299 384.48 
L 551.501299 51.84 
L 555.124675 51.84 
L 555.124675 384.48 
z
" style="fill:#008000;opacity:0.04;"/>
   </g>
   <g id="patch_75">
    <path clip-path="url(#p2487ed0928)" d="M 558.748052 384.48 
L 558.748052 51.84 
L 562.371429 51.84 
L 562.371429 384.48 
z
" style="fill:#008000;opacity:0.04;"/>
   </g>
   <g id="patch_76">
    <path clip-path="url(#p2487ed0928)" d="M 565.994805 384.48 
L 565.994805 51.84 
L 569.618182 51.84 
L 569.618182 384.48 
z
" style="fill:#008000;opacity:0.04;"/>
   </g>
   <g id="patch_77">
    <path clip-path="url(#p2487ed0928)" d="M 573.241558 384.48 
L 573.241558 51.84 
L 576.864935 51.84 
L 576.864935 384.48 
z
" style="fill:#008000;opacity:0.04;"/>
   </g>
   <g id="patch_78">
    <path clip-path="url(#p2487ed0928)" d="M 580.488312 384.48 
L 580.488312 51.84 
L 584.111688 51.84 
L 584.111688 384.48 
z
" style="fill:#008000;opacity:0.04;"/>
   </g>
   <g id="patch_79">
    <path clip-path="url(#p2487ed0928)" d="M 587.735065 384.48 
L 587.735065 51.84 
L 591.358442 51.84 
L 591.358442 384.48 
z
" style="fill:#008000;opacity:0.04;"/>
   </g>
   <g id="patch_80">
    <path clip-path="url(#p2487ed0928)" d="M 594.981818 384.48 
L 594.981818 51.84 
L 598.605195 51.84 
L 598.605195 384.48 
z
" style="fill:#008000;opacity:0.04;"/>
   </g>
   <g id="patch_81">
    <path clip-path="url(#p2487ed0928)" d="M 602.228571 384.48 
L 602.228571 51.84 
L 605.851948 51.84 
L 605.851948 384.48 
z
" style="fill:#008000;opacity:0.04;"/>
   </g>
   <g id="patch_82">
    <path clip-path="url(#p2487ed0928)" d="M 602.228571 371.1744 
L 602.228571 51.84 
L 605.851948 51.84 
L 605.851948 371.1744 
z
" style="fill:#008000;opacity:0.5;"/>
   </g>
   <g id="patch_83">
    <path clip-path="url(#p2487ed0928)" d="M 609.475325 384.48 
L 609.475325 51.84 
L 613.098701 51.84 
L 613.098701 384.48 
z
" style="fill:#008000;opacity:0.04;"/>
   </g>
   <g id="patch_84">
    <path clip-path="url(#p2487ed0928)" d="M 616.722078 384.48 
L 616.722078 51.84 
L 620.345455 51.84 
L 620.345455 384.48 
z
" style="fill:#008000;opacity:0.04;"/>
   </g>
   <g id="patch_85">
    <path clip-path="url(#p2487ed0928)" d="M 623.968831 384.48 
L 623.968831 51.84 
L 627.592208 51.84 
L 627.592208 384.48 
z
" style="fill:#008000;opacity:0.04;"/>
   </g>
   <g id="patch_86">
    <path clip-path="url(#p2487ed0928)" d="M 627.592208 371.1744 
L 627.592208 51.84 
L 631.215584 51.84 
L 631.215584 371.1744 
z
" style="fill:#008000;opacity:0.5;"/>
   </g>
   <g id="patch_87">
    <path clip-path="url(#p2487ed0928)" d="M 631.215584 384.48 
L 631.215584 51.84 
L 634.838961 51.84 
L 634.838961 384.48 
z
" style="fill:#008000;opacity:0.04;"/>
   </g>
   <g id="patch_88">
    <path clip-path="url(#p2487ed0928)" d="M 638.462338 384.48 
L 638.462338 51.84 
L 642.085714 51.84 
L 642.085714 384.48 
z
" style="fill:#008000;opacity:0.04;"/>
   </g>
   <g id="patch_89">
    <path clip-path="url(#p2487ed0928)" d="M 645.709091 384.48 
L 645.709091 51.84 
L 649.332468 51.84 
L 649.332468 384.48 
z
" style="fill:#008000;opacity:0.04;"/>
   </g>
   <g id="patch_90">
    <path clip-path="url(#p2487ed0928)" d="M 652.955844 384.48 
L 652.955844 51.84 
L 656.579221 51.84 
L 656.579221 384.48 
z
" style="fill:#008000;opacity:0.04;"/>
   </g>
   <g id="patch_91">
    <path clip-path="url(#p2487ed0928)" d="M 660.202597 384.48 
L 660.202597 51.84 
L 663.825974 51.84 
L 663.825974 384.48 
z
" style="fill:#008000;opacity:0.04;"/>
   </g>
   <g id="patch_92">
    <path clip-path="url(#p2487ed0928)" d="M 667.449351 384.48 
L 667.449351 51.84 
L 671.072727 51.84 
L 671.072727 384.48 
z
" style="fill:#008000;opacity:0.04;"/>
   </g>
   <g id="patch_93">
    <path clip-path="url(#p2487ed0928)" d="M 674.696104 384.48 
L 674.696104 51.84 
L 678.319481 51.84 
L 678.319481 384.48 
z
" style="fill:#008000;opacity:0.04;"/>
   </g>
   <g id="patch_94">
    <path clip-path="url(#p2487ed0928)" d="M 681.942857 384.48 
L 681.942857 51.84 
L 685.566234 51.84 
L 685.566234 384.48 
z
" style="fill:#008000;opacity:0.04;"/>
   </g>
   <g id="patch_95">
    <path clip-path="url(#p2487ed0928)" d="M 689.18961 384.48 
L 689.18961 51.84 
L 692.812987 51.84 
L 692.812987 384.48 
z
" style="fill:#008000;opacity:0.04;"/>
   </g>
   <g id="patch_96">
    <path clip-path="url(#p2487ed0928)" d="M 696.436364 384.48 
L 696.436364 51.84 
L 700.05974 51.84 
L 700.05974 384.48 
z
" style="fill:#008000;opacity:0.04;"/>
   </g>
   <g id="patch_97">
    <path clip-path="url(#p2487ed0928)" d="M 703.683117 384.48 
L 703.683117 51.84 
L 707.306494 51.84 
L 707.306494 384.48 
z
" style="fill:#008000;opacity:0.04;"/>
   </g>
   <g id="patch_98">
    <path clip-path="url(#p2487ed0928)" d="M 710.92987 384.48 
L 710.92987 51.84 
L 714.553247 51.84 
L 714.553247 384.48 
z
" style="fill:#008000;opacity:0.04;"/>
   </g>
   <g id="patch_99">
    <path clip-path="url(#p2487ed0928)" d="M 718.176623 384.48 
L 718.176623 51.84 
L 721.8 51.84 
L 721.8 384.48 
z
" style="fill:#008000;opacity:0.04;"/>
   </g>
   <g id="patch_100">
    <path clip-path="url(#p2487ed0928)" d="M 725.423377 384.48 
L 725.423377 51.84 
L 729.046753 51.84 
L 729.046753 384.48 
z
" style="fill:#008000;opacity:0.04;"/>
   </g>
   <g id="patch_101">
    <path clip-path="url(#p2487ed0928)" d="M 732.67013 384.48 
L 732.67013 51.84 
L 736.293506 51.84 
L 736.293506 384.48 
z
" style="fill:#008000;opacity:0.04;"/>
   </g>
   <g id="patch_102">
    <path clip-path="url(#p2487ed0928)" d="M 739.916883 384.48 
L 739.916883 51.84 
L 743.54026 51.84 
L 743.54026 384.48 
z
" style="fill:#008000;opacity:0.04;"/>
   </g>
   <g id="matplotlib.axis_1">
    <g id="xtick_1">
     <g id="line2d_1">
      <defs>
       <path d="M 0 0 
L 0 3.5 
" id="mbf474a6a9c" style="stroke:#000000;stroke-width:0.8;"/>
      </defs>
      <g>
       <use style="stroke:#000000;stroke-width:0.8;" x="138.436364" xlink:href="#mbf474a6a9c" y="384.48"/>
      </g>
     </g>
     <g id="text_1">
      <!-- 0 -->
      <defs>
       <path d="M 31.78125 66.40625 
Q 24.171875 66.40625 20.328125 58.90625 
Q 16.5 51.421875 16.5 36.375 
Q 16.5 21.390625 20.328125 13.890625 
Q 24.171875 6.390625 31.78125 6.390625 
Q 39.453125 6.390625 43.28125 13.890625 
Q 47.125 21.390625 47.125 36.375 
Q 47.125 51.421875 43.28125 58.90625 
Q 39.453125 66.40625 31.78125 66.40625 
z
M 31.78125 74.21875 
Q 44.046875 74.21875 50.515625 64.515625 
Q 56.984375 54.828125 56.984375 36.375 
Q 56.984375 17.96875 50.515625 8.265625 
Q 44.046875 -1.421875 31.78125 -1.421875 
Q 19.53125 -1.421875 13.0625 8.265625 
Q 6.59375 17.96875 6.59375 36.375 
Q 6.59375 54.828125 13.0625 64.515625 
Q 19.53125 74.21875 31.78125 74.21875 
z
" id="DejaVuSans-48"/>
      </defs>
      <g transform="translate(135.255114 399.078438)scale(0.1 -0.1)">
       <use xlink:href="#DejaVuSans-48"/>
      </g>
     </g>
    </g>
    <g id="xtick_2">
     <g id="line2d_2">
      <g>
       <use style="stroke:#000000;stroke-width:0.8;" x="229.020779" xlink:href="#mbf474a6a9c" y="384.48"/>
      </g>
     </g>
     <g id="text_2">
      <!-- 250 -->
      <defs>
       <path d="M 19.1875 8.296875 
L 53.609375 8.296875 
L 53.609375 0 
L 7.328125 0 
L 7.328125 8.296875 
Q 12.9375 14.109375 22.625 23.890625 
Q 32.328125 33.6875 34.8125 36.53125 
Q 39.546875 41.84375 41.421875 45.53125 
Q 43.3125 49.21875 43.3125 52.78125 
Q 43.3125 58.59375 39.234375 62.25 
Q 35.15625 65.921875 28.609375 65.921875 
Q 23.96875 65.921875 18.8125 64.3125 
Q 13.671875 62.703125 7.8125 59.421875 
L 7.8125 69.390625 
Q 13.765625 71.78125 18.9375 73 
Q 24.125 74.21875 28.421875 74.21875 
Q 39.75 74.21875 46.484375 68.546875 
Q 53.21875 62.890625 53.21875 53.421875 
Q 53.21875 48.921875 51.53125 44.890625 
Q 49.859375 40.875 45.40625 35.40625 
Q 44.1875 33.984375 37.640625 27.21875 
Q 31.109375 20.453125 19.1875 8.296875 
z
" id="DejaVuSans-50"/>
       <path d="M 10.796875 72.90625 
L 49.515625 72.90625 
L 49.515625 64.59375 
L 19.828125 64.59375 
L 19.828125 46.734375 
Q 21.96875 47.46875 24.109375 47.828125 
Q 26.265625 48.1875 28.421875 48.1875 
Q 40.625 48.1875 47.75 41.5 
Q 54.890625 34.8125 54.890625 23.390625 
Q 54.890625 11.625 47.5625 5.09375 
Q 40.234375 -1.421875 26.90625 -1.421875 
Q 22.3125 -1.421875 17.546875 -0.640625 
Q 12.796875 0.140625 7.71875 1.703125 
L 7.71875 11.625 
Q 12.109375 9.234375 16.796875 8.0625 
Q 21.484375 6.890625 26.703125 6.890625 
Q 35.15625 6.890625 40.078125 11.328125 
Q 45.015625 15.765625 45.015625 23.390625 
Q 45.015625 31 40.078125 35.4375 
Q 35.15625 39.890625 26.703125 39.890625 
Q 22.75 39.890625 18.8125 39.015625 
Q 14.890625 38.140625 10.796875 36.28125 
z
" id="DejaVuSans-53"/>
      </defs>
      <g transform="translate(219.477029 399.078438)scale(0.1 -0.1)">
       <use xlink:href="#DejaVuSans-50"/>
       <use x="63.623047" xlink:href="#DejaVuSans-53"/>
       <use x="127.246094" xlink:href="#DejaVuSans-48"/>
      </g>
     </g>
    </g>
    <g id="xtick_3">
     <g id="line2d_3">
      <g>
       <use style="stroke:#000000;stroke-width:0.8;" x="319.605195" xlink:href="#mbf474a6a9c" y="384.48"/>
      </g>
     </g>
     <g id="text_3">
      <!-- 500 -->
      <g transform="translate(310.061445 399.078438)scale(0.1 -0.1)">
       <use xlink:href="#DejaVuSans-53"/>
       <use x="63.623047" xlink:href="#DejaVuSans-48"/>
       <use x="127.246094" xlink:href="#DejaVuSans-48"/>
      </g>
     </g>
    </g>
    <g id="xtick_4">
     <g id="line2d_4">
      <g>
       <use style="stroke:#000000;stroke-width:0.8;" x="410.18961" xlink:href="#mbf474a6a9c" y="384.48"/>
      </g>
     </g>
     <g id="text_4">
      <!-- 750 -->
      <defs>
       <path d="M 8.203125 72.90625 
L 55.078125 72.90625 
L 55.078125 68.703125 
L 28.609375 0 
L 18.3125 0 
L 43.21875 64.59375 
L 8.203125 64.59375 
z
" id="DejaVuSans-55"/>
      </defs>
      <g transform="translate(400.64586 399.078438)scale(0.1 -0.1)">
       <use xlink:href="#DejaVuSans-55"/>
       <use x="63.623047" xlink:href="#DejaVuSans-53"/>
       <use x="127.246094" xlink:href="#DejaVuSans-48"/>
      </g>
     </g>
    </g>
    <g id="xtick_5">
     <g id="line2d_5">
      <g>
       <use style="stroke:#000000;stroke-width:0.8;" x="500.774026" xlink:href="#mbf474a6a9c" y="384.48"/>
      </g>
     </g>
     <g id="text_5">
      <!-- 1000 -->
      <defs>
       <path d="M 12.40625 8.296875 
L 28.515625 8.296875 
L 28.515625 63.921875 
L 10.984375 60.40625 
L 10.984375 69.390625 
L 28.421875 72.90625 
L 38.28125 72.90625 
L 38.28125 8.296875 
L 54.390625 8.296875 
L 54.390625 0 
L 12.40625 0 
z
" id="DejaVuSans-49"/>
      </defs>
      <g transform="translate(488.049026 399.078438)scale(0.1 -0.1)">
       <use xlink:href="#DejaVuSans-49"/>
       <use x="63.623047" xlink:href="#DejaVuSans-48"/>
       <use x="127.246094" xlink:href="#DejaVuSans-48"/>
       <use x="190.869141" xlink:href="#DejaVuSans-48"/>
      </g>
     </g>
    </g>
    <g id="xtick_6">
     <g id="line2d_6">
      <g>
       <use style="stroke:#000000;stroke-width:0.8;" x="591.358442" xlink:href="#mbf474a6a9c" y="384.48"/>
      </g>
     </g>
     <g id="text_6">
      <!-- 1250 -->
      <g transform="translate(578.633442 399.078438)scale(0.1 -0.1)">
       <use xlink:href="#DejaVuSans-49"/>
       <use x="63.623047" xlink:href="#DejaVuSans-50"/>
       <use x="127.246094" xlink:href="#DejaVuSans-53"/>
       <use x="190.869141" xlink:href="#DejaVuSans-48"/>
      </g>
     </g>
    </g>
    <g id="xtick_7">
     <g id="line2d_7">
      <g>
       <use style="stroke:#000000;stroke-width:0.8;" x="681.942857" xlink:href="#mbf474a6a9c" y="384.48"/>
      </g>
     </g>
     <g id="text_7">
      <!-- 1500 -->
      <g transform="translate(669.217857 399.078438)scale(0.1 -0.1)">
       <use xlink:href="#DejaVuSans-49"/>
       <use x="63.623047" xlink:href="#DejaVuSans-53"/>
       <use x="127.246094" xlink:href="#DejaVuSans-48"/>
       <use x="190.869141" xlink:href="#DejaVuSans-48"/>
      </g>
     </g>
    </g>
    <g id="xtick_8">
     <g id="line2d_8">
      <g>
       <use style="stroke:#000000;stroke-width:0.8;" x="772.527273" xlink:href="#mbf474a6a9c" y="384.48"/>
      </g>
     </g>
     <g id="text_8">
      <!-- 1750 -->
      <g transform="translate(759.802273 399.078438)scale(0.1 -0.1)">
       <use xlink:href="#DejaVuSans-49"/>
       <use x="63.623047" xlink:href="#DejaVuSans-55"/>
       <use x="127.246094" xlink:href="#DejaVuSans-53"/>
       <use x="190.869141" xlink:href="#DejaVuSans-48"/>
      </g>
     </g>
    </g>
    <g id="text_9">
     <!-- Timestamp -->
     <defs>
      <path d="M -0.296875 72.90625 
L 61.375 72.90625 
L 61.375 64.59375 
L 35.5 64.59375 
L 35.5 0 
L 25.59375 0 
L 25.59375 64.59375 
L -0.296875 64.59375 
z
" id="DejaVuSans-84"/>
      <path d="M 9.421875 54.6875 
L 18.40625 54.6875 
L 18.40625 0 
L 9.421875 0 
z
M 9.421875 75.984375 
L 18.40625 75.984375 
L 18.40625 64.59375 
L 9.421875 64.59375 
z
" id="DejaVuSans-105"/>
      <path d="M 52 44.1875 
Q 55.375 50.25 60.0625 53.125 
Q 64.75 56 71.09375 56 
Q 79.640625 56 84.28125 50.015625 
Q 88.921875 44.046875 88.921875 33.015625 
L 88.921875 0 
L 79.890625 0 
L 79.890625 32.71875 
Q 79.890625 40.578125 77.09375 44.375 
Q 74.3125 48.1875 68.609375 48.1875 
Q 61.625 48.1875 57.5625 43.546875 
Q 53.515625 38.921875 53.515625 30.90625 
L 53.515625 0 
L 44.484375 0 
L 44.484375 32.71875 
Q 44.484375 40.625 41.703125 44.40625 
Q 38.921875 48.1875 33.109375 48.1875 
Q 26.21875 48.1875 22.15625 43.53125 
Q 18.109375 38.875 18.109375 30.90625 
L 18.109375 0 
L 9.078125 0 
L 9.078125 54.6875 
L 18.109375 54.6875 
L 18.109375 46.1875 
Q 21.1875 51.21875 25.484375 53.609375 
Q 29.78125 56 35.6875 56 
Q 41.65625 56 45.828125 52.96875 
Q 50 49.953125 52 44.1875 
z
" id="DejaVuSans-109"/>
      <path d="M 56.203125 29.59375 
L 56.203125 25.203125 
L 14.890625 25.203125 
Q 15.484375 15.921875 20.484375 11.0625 
Q 25.484375 6.203125 34.421875 6.203125 
Q 39.59375 6.203125 44.453125 7.46875 
Q 49.3125 8.734375 54.109375 11.28125 
L 54.109375 2.78125 
Q 49.265625 0.734375 44.1875 -0.34375 
Q 39.109375 -1.421875 33.890625 -1.421875 
Q 20.796875 -1.421875 13.15625 6.1875 
Q 5.515625 13.8125 5.515625 26.8125 
Q 5.515625 40.234375 12.765625 48.109375 
Q 20.015625 56 32.328125 56 
Q 43.359375 56 49.78125 48.890625 
Q 56.203125 41.796875 56.203125 29.59375 
z
M 47.21875 32.234375 
Q 47.125 39.59375 43.09375 43.984375 
Q 39.0625 48.390625 32.421875 48.390625 
Q 24.90625 48.390625 20.390625 44.140625 
Q 15.875 39.890625 15.1875 32.171875 
z
" id="DejaVuSans-101"/>
      <path d="M 44.28125 53.078125 
L 44.28125 44.578125 
Q 40.484375 46.53125 36.375 47.5 
Q 32.28125 48.484375 27.875 48.484375 
Q 21.1875 48.484375 17.84375 46.4375 
Q 14.5 44.390625 14.5 40.28125 
Q 14.5 37.15625 16.890625 35.375 
Q 19.28125 33.59375 26.515625 31.984375 
L 29.59375 31.296875 
Q 39.15625 29.25 43.1875 25.515625 
Q 47.21875 21.78125 47.21875 15.09375 
Q 47.21875 7.46875 41.1875 3.015625 
Q 35.15625 -1.421875 24.609375 -1.421875 
Q 20.21875 -1.421875 15.453125 -0.5625 
Q 10.6875 0.296875 5.421875 2 
L 5.421875 11.28125 
Q 10.40625 8.6875 15.234375 7.390625 
Q 20.0625 6.109375 24.8125 6.109375 
Q 31.15625 6.109375 34.5625 8.28125 
Q 37.984375 10.453125 37.984375 14.40625 
Q 37.984375 18.0625 35.515625 20.015625 
Q 33.0625 21.96875 24.703125 23.78125 
L 21.578125 24.515625 
Q 13.234375 26.265625 9.515625 29.90625 
Q 5.8125 33.546875 5.8125 39.890625 
Q 5.8125 47.609375 11.28125 51.796875 
Q 16.75 56 26.8125 56 
Q 31.78125 56 36.171875 55.265625 
Q 40.578125 54.546875 44.28125 53.078125 
z
" id="DejaVuSans-115"/>
      <path d="M 18.3125 70.21875 
L 18.3125 54.6875 
L 36.8125 54.6875 
L 36.8125 47.703125 
L 18.3125 47.703125 
L 18.3125 18.015625 
Q 18.3125 11.328125 20.140625 9.421875 
Q 21.96875 7.515625 27.59375 7.515625 
L 36.8125 7.515625 
L 36.8125 0 
L 27.59375 0 
Q 17.1875 0 13.234375 3.875 
Q 9.28125 7.765625 9.28125 18.015625 
L 9.28125 47.703125 
L 2.6875 47.703125 
L 2.6875 54.6875 
L 9.28125 54.6875 
L 9.28125 70.21875 
z
" id="DejaVuSans-116"/>
      <path d="M 34.28125 27.484375 
Q 23.390625 27.484375 19.1875 25 
Q 14.984375 22.515625 14.984375 16.5 
Q 14.984375 11.71875 18.140625 8.90625 
Q 21.296875 6.109375 26.703125 6.109375 
Q 34.1875 6.109375 38.703125 11.40625 
Q 43.21875 16.703125 43.21875 25.484375 
L 43.21875 27.484375 
z
M 52.203125 31.203125 
L 52.203125 0 
L 43.21875 0 
L 43.21875 8.296875 
Q 40.140625 3.328125 35.546875 0.953125 
Q 30.953125 -1.421875 24.3125 -1.421875 
Q 15.921875 -1.421875 10.953125 3.296875 
Q 6 8.015625 6 15.921875 
Q 6 25.140625 12.171875 29.828125 
Q 18.359375 34.515625 30.609375 34.515625 
L 43.21875 34.515625 
L 43.21875 35.40625 
Q 43.21875 41.609375 39.140625 45 
Q 35.0625 48.390625 27.6875 48.390625 
Q 23 48.390625 18.546875 47.265625 
Q 14.109375 46.140625 10.015625 43.890625 
L 10.015625 52.203125 
Q 14.9375 54.109375 19.578125 55.046875 
Q 24.21875 56 28.609375 56 
Q 40.484375 56 46.34375 49.84375 
Q 52.203125 43.703125 52.203125 31.203125 
z
" id="DejaVuSans-97"/>
      <path d="M 18.109375 8.203125 
L 18.109375 -20.796875 
L 9.078125 -20.796875 
L 9.078125 54.6875 
L 18.109375 54.6875 
L 18.109375 46.390625 
Q 20.953125 51.265625 25.265625 53.625 
Q 29.59375 56 35.59375 56 
Q 45.5625 56 51.78125 48.09375 
Q 58.015625 40.1875 58.015625 27.296875 
Q 58.015625 14.40625 51.78125 6.484375 
Q 45.5625 -1.421875 35.59375 -1.421875 
Q 29.59375 -1.421875 25.265625 0.953125 
Q 20.953125 3.328125 18.109375 8.203125 
z
M 48.6875 27.296875 
Q 48.6875 37.203125 44.609375 42.84375 
Q 40.53125 48.484375 33.40625 48.484375 
Q 26.265625 48.484375 22.1875 42.84375 
Q 18.109375 37.203125 18.109375 27.296875 
Q 18.109375 17.390625 22.1875 11.75 
Q 26.265625 6.109375 33.40625 6.109375 
Q 40.53125 6.109375 44.609375 11.75 
Q 48.6875 17.390625 48.6875 27.296875 
z
" id="DejaVuSans-112"/>
     </defs>
     <g transform="translate(414.739062 412.756563)scale(0.1 -0.1)">
      <use xlink:href="#DejaVuSans-84"/>
      <use x="61.037109" xlink:href="#DejaVuSans-105"/>
      <use x="88.820312" xlink:href="#DejaVuSans-109"/>
      <use x="186.232422" xlink:href="#DejaVuSans-101"/>
      <use x="247.755859" xlink:href="#DejaVuSans-115"/>
      <use x="299.855469" xlink:href="#DejaVuSans-116"/>
      <use x="339.064453" xlink:href="#DejaVuSans-97"/>
      <use x="400.34375" xlink:href="#DejaVuSans-109"/>
      <use x="497.755859" xlink:href="#DejaVuSans-112"/>
     </g>
    </g>
   </g>
   <g id="matplotlib.axis_2">
    <g id="ytick_1">
     <g id="line2d_9">
      <defs>
       <path d="M 0 0 
L -3.5 0 
" id="m114e2bdbb2" style="stroke:#000000;stroke-width:0.8;"/>
      </defs>
      <g>
       <use style="stroke:#000000;stroke-width:0.8;" x="108" xlink:href="#m114e2bdbb2" y="354.233001"/>
      </g>
     </g>
     <g id="text_10">
      <!-- −200 -->
      <defs>
       <path d="M 10.59375 35.5 
L 73.1875 35.5 
L 73.1875 27.203125 
L 10.59375 27.203125 
z
" id="DejaVuSans-8722"/>
      </defs>
      <g transform="translate(73.532813 358.03222)scale(0.1 -0.1)">
       <use xlink:href="#DejaVuSans-8722"/>
       <use x="83.789062" xlink:href="#DejaVuSans-50"/>
       <use x="147.412109" xlink:href="#DejaVuSans-48"/>
       <use x="211.035156" xlink:href="#DejaVuSans-48"/>
      </g>
     </g>
    </g>
    <g id="ytick_2">
     <g id="line2d_10">
      <g>
       <use style="stroke:#000000;stroke-width:0.8;" x="108" xlink:href="#m114e2bdbb2" y="286.2936"/>
      </g>
     </g>
     <g id="text_11">
      <!-- −100 -->
      <g transform="translate(73.532813 290.092819)scale(0.1 -0.1)">
       <use xlink:href="#DejaVuSans-8722"/>
       <use x="83.789062" xlink:href="#DejaVuSans-49"/>
       <use x="147.412109" xlink:href="#DejaVuSans-48"/>
       <use x="211.035156" xlink:href="#DejaVuSans-48"/>
      </g>
     </g>
    </g>
    <g id="ytick_3">
     <g id="line2d_11">
      <g>
       <use style="stroke:#000000;stroke-width:0.8;" x="108" xlink:href="#m114e2bdbb2" y="218.3542"/>
      </g>
     </g>
     <g id="text_12">
      <!-- 0 -->
      <g transform="translate(94.6375 222.153418)scale(0.1 -0.1)">
       <use xlink:href="#DejaVuSans-48"/>
      </g>
     </g>
    </g>
    <g id="ytick_4">
     <g id="line2d_12">
      <g>
       <use style="stroke:#000000;stroke-width:0.8;" x="108" xlink:href="#m114e2bdbb2" y="150.414799"/>
      </g>
     </g>
     <g id="text_13">
      <!-- 100 -->
      <g transform="translate(81.9125 154.214018)scale(0.1 -0.1)">
       <use xlink:href="#DejaVuSans-49"/>
       <use x="63.623047" xlink:href="#DejaVuSans-48"/>
       <use x="127.246094" xlink:href="#DejaVuSans-48"/>
      </g>
     </g>
    </g>
    <g id="ytick_5">
     <g id="line2d_13">
      <g>
       <use style="stroke:#000000;stroke-width:0.8;" x="108" xlink:href="#m114e2bdbb2" y="82.475398"/>
      </g>
     </g>
     <g id="text_14">
      <!-- 200 -->
      <g transform="translate(81.9125 86.274617)scale(0.1 -0.1)">
       <use xlink:href="#DejaVuSans-50"/>
       <use x="63.623047" xlink:href="#DejaVuSans-48"/>
       <use x="127.246094" xlink:href="#DejaVuSans-48"/>
      </g>
     </g>
    </g>
    <g id="text_15">
     <!-- Value -->
     <defs>
      <path d="M 28.609375 0 
L 0.78125 72.90625 
L 11.078125 72.90625 
L 34.1875 11.53125 
L 57.328125 72.90625 
L 67.578125 72.90625 
L 39.796875 0 
z
" id="DejaVuSans-86"/>
      <path d="M 9.421875 75.984375 
L 18.40625 75.984375 
L 18.40625 0 
L 9.421875 0 
z
" id="DejaVuSans-108"/>
      <path d="M 8.5 21.578125 
L 8.5 54.6875 
L 17.484375 54.6875 
L 17.484375 21.921875 
Q 17.484375 14.15625 20.5 10.265625 
Q 23.53125 6.390625 29.59375 6.390625 
Q 36.859375 6.390625 41.078125 11.03125 
Q 45.3125 15.671875 45.3125 23.6875 
L 45.3125 54.6875 
L 54.296875 54.6875 
L 54.296875 0 
L 45.3125 0 
L 45.3125 8.40625 
Q 42.046875 3.421875 37.71875 1 
Q 33.40625 -1.421875 27.6875 -1.421875 
Q 18.265625 -1.421875 13.375 4.4375 
Q 8.5 10.296875 8.5 21.578125 
z
M 31.109375 56 
z
" id="DejaVuSans-117"/>
     </defs>
     <g transform="translate(67.453125 232.273281)rotate(-90)scale(0.1 -0.1)">
      <use xlink:href="#DejaVuSans-86"/>
      <use x="68.298828" xlink:href="#DejaVuSans-97"/>
      <use x="129.578125" xlink:href="#DejaVuSans-108"/>
      <use x="157.361328" xlink:href="#DejaVuSans-117"/>
      <use x="220.740234" xlink:href="#DejaVuSans-101"/>
     </g>
    </g>
   </g>
   <g id="line2d_14">
    <path clip-path="url(#p2487ed0928)" d="M 138.436364 221.035462 
L 139.161039 159.297926 
L 139.523377 143.516907 
L 139.885714 148.108476 
L 140.248052 163.851203 
L 141.335065 232.605116 
L 141.697403 246.690217 
L 142.05974 243.58403 
L 142.422078 229.670343 
L 142.784416 204.839294 
L 143.509091 174.056275 
L 143.871429 173.243629 
L 144.233766 180.394191 
L 145.320779 255.222263 
L 145.683117 269.342739 
L 146.045455 266.045719 
L 146.407792 257.793671 
L 147.857143 139.198857 
L 148.219481 127.795039 
L 148.581818 134.41827 
L 148.944156 145.353215 
L 149.306494 176.768135 
L 149.668831 191.139049 
L 150.031169 216.706517 
L 150.393506 227.13459 
L 150.755844 230.466664 
L 151.118182 206.433565 
L 151.480519 195.28976 
L 152.205195 161.109254 
L 152.567532 162.187383 
L 152.92987 169.321313 
L 154.016883 248.825814 
L 154.379221 260.479147 
L 154.741558 264.602982 
L 155.103896 259.371707 
L 156.553247 137.545857 
L 156.915584 119.83507 
L 157.64026 143.229711 
L 158.727273 225.802989 
L 159.08961 236.965644 
L 159.451948 227.91963 
L 159.814286 222.284279 
L 160.176623 211.24709 
L 160.538961 180.478682 
L 160.901299 165.505258 
L 161.263636 166.174457 
L 161.625974 174.08496 
L 161.988312 205.366276 
L 162.350649 225.871318 
L 162.712987 253.7935 
L 163.437662 281.38442 
L 163.8 266.541188 
L 164.162338 241.937669 
L 164.887013 170.058812 
L 165.611688 142.13127 
L 165.974026 141.344299 
L 166.698701 186.534923 
L 167.061039 216.930469 
L 167.785714 251.214669 
L 168.148052 248.314789 
L 168.872727 221.949716 
L 169.235065 199.116588 
L 169.597403 183.680912 
L 169.95974 188.522722 
L 170.322078 198.48377 
L 171.046753 249.886519 
L 171.771429 291.380821 
L 172.133766 292.904508 
L 172.496104 285.281401 
L 173.220779 230.41201 
L 173.583117 197.806695 
L 173.945455 181.14122 
L 174.307792 153.660522 
L 174.67013 162.148395 
L 175.032468 174.151422 
L 175.394805 211.744486 
L 176.119481 259.115763 
L 176.481818 268.613696 
L 176.844156 267.91624 
L 177.568831 234.577857 
L 177.931169 224.399609 
L 178.293506 203.799349 
L 178.655844 205.044032 
L 179.018182 216.881757 
L 179.380519 235.749932 
L 180.105195 290.024441 
L 180.467532 314.36562 
L 180.82987 311.593847 
L 181.192208 298.030982 
L 182.641558 184.511172 
L 183.003896 177.194951 
L 183.366234 180.059474 
L 183.728571 189.220514 
L 184.090909 222.255681 
L 184.453247 238.674666 
L 184.815584 265.288148 
L 185.177922 277.443116 
L 185.902597 258.894625 
L 186.264935 242.832777 
L 186.627273 217.168137 
L 186.98961 206.126379 
L 187.351948 207.049876 
L 187.714286 217.35293 
L 189.163636 307.452451 
L 189.525974 307.029989 
L 189.888312 293.980183 
L 190.250649 274.250967 
L 190.975325 200.476549 
L 191.337662 175.529231 
L 191.7 161.003287 
L 192.062338 161.328644 
L 192.787013 205.430063 
L 193.149351 234.334251 
L 193.511688 251.412049 
L 193.874026 262.327809 
L 194.236364 260.237509 
L 194.598701 249.352014 
L 195.685714 197.278911 
L 196.048052 193.856611 
L 196.41039 196.612194 
L 197.497403 270.716013 
L 197.85974 293.78314 
L 198.584416 282.397008 
L 198.946753 257.551166 
L 199.671429 184.371254 
L 200.033766 161.438143 
L 200.396104 146.857583 
L 200.758442 151.332249 
L 201.120779 159.878431 
L 201.483117 180.197097 
L 201.845455 221.15336 
L 202.207792 237.290465 
L 202.57013 248.391832 
L 202.932468 241.960623 
L 203.294805 229.045776 
L 204.019481 189.177415 
L 204.381818 178.27461 
L 204.744156 171.009877 
L 205.106494 178.219179 
L 205.468831 209.075414 
L 205.831169 225.038047 
L 206.193506 253.048263 
L 206.555844 267.374641 
L 206.918182 273.661483 
L 207.280519 259.600089 
L 208.72987 139.14374 
L 209.092208 131.264418 
L 209.454545 129.637068 
L 210.179221 167.325824 
L 210.541558 201.375337 
L 210.903896 220.81616 
L 211.266234 224.491015 
L 211.628571 229.73396 
L 211.990909 218.602933 
L 212.715584 180.239947 
L 213.077922 162.316225 
L 213.44026 161.219681 
L 214.164935 189.271573 
L 214.527273 223.003904 
L 214.88961 239.998744 
L 215.251948 265.507617 
L 215.614286 268.184268 
L 215.976623 258.010602 
L 216.338961 222.978926 
L 216.701299 199.532444 
L 217.425974 133.02548 
L 217.788312 129.365534 
L 218.150649 132.23018 
L 218.512987 145.103502 
L 219.237662 199.509571 
L 219.6 218.118806 
L 219.962338 230.040616 
L 220.324675 223.733138 
L 221.049351 205.500782 
L 221.411688 177.781561 
L 221.774026 170.726032 
L 222.136364 172.8551 
L 222.498701 179.077356 
L 222.861039 203.147169 
L 223.223377 235.060548 
L 223.948052 269.384612 
L 224.31039 277.210604 
L 224.672727 256.647129 
L 225.035065 246.215861 
L 225.397403 204.713663 
L 225.75974 182.100809 
L 226.122078 146.635392 
L 226.484416 140.325526 
L 226.846753 145.349901 
L 227.209091 163.920854 
L 227.571429 191.150543 
L 227.933766 207.990666 
L 228.296104 97.067414 
L 228.658442 248.954188 
L 229.383117 232.956743 
L 229.745455 211.008925 
L 230.47013 186.785159 
L 230.832468 190.180838 
L 231.557143 220.152514 
L 232.644156 292.210715 
L 233.006494 298.842547 
L 233.368831 282.979592 
L 233.731169 260.645612 
L 234.818182 175.116224 
L 235.180519 159.307268 
L 235.542857 163.524806 
L 235.905195 182.041715 
L 236.62987 233.572561 
L 236.992208 255.204116 
L 237.354545 266.258094 
L 237.716883 268.521243 
L 238.079221 250.377689 
L 238.441558 242.063232 
L 238.803896 217.834841 
L 239.166234 203.95544 
L 239.528571 205.958981 
L 240.253247 234.84831 
L 240.977922 284.28663 
L 241.34026 308.222979 
L 241.702597 313.359956 
L 242.064935 297.583686 
L 242.78961 251.09418 
L 243.151948 204.883541 
L 243.514286 187.923706 
L 244.238961 173.141622 
L 244.601299 189.413482 
L 245.688312 265.385182 
L 246.050649 274.905676 
L 246.775325 263.289105 
L 247.137662 245.892262 
L 247.5 221.100878 
L 247.862338 207.240846 
L 248.224675 203.773253 
L 248.949351 245.104153 
L 249.674026 289.509625 
L 250.036364 304.966629 
L 250.398701 310.818559 
L 250.761039 296.697058 
L 251.848052 203.873247 
L 252.572727 166.073487 
L 253.297403 184.170429 
L 254.384416 249.372879 
L 254.746753 264.409651 
L 255.109091 267.316662 
L 256.196104 200.353152 
L 256.558442 197.37769 
L 256.920779 190.265562 
L 257.283117 202.047074 
L 258.37013 276.607388 
L 258.732468 286.807385 
L 259.094805 288.414114 
L 259.457143 280.043169 
L 260.181818 223.470102 
L 260.544156 180.806176 
L 260.906494 159.726725 
L 261.268831 145.161161 
L 261.631169 145.506637 
L 262.718182 210.668208 
L 263.080519 233.498538 
L 263.442857 242.412478 
L 263.805195 242.927696 
L 264.167532 226.756323 
L 264.52987 199.589369 
L 264.892208 188.815877 
L 265.254545 170.197113 
L 265.616883 167.209662 
L 265.979221 183.898298 
L 267.066234 253.544036 
L 267.428571 267.717312 
L 267.790909 270.14214 
L 268.153247 257.000334 
L 269.964935 124.377668 
L 270.327273 128.734744 
L 270.68961 144.294341 
L 271.051948 305.758893 
L 271.414286 200.06402 
L 271.776623 217.114774 
L 272.138961 228.29572 
L 272.501299 234.399865 
L 272.863636 210.839285 
L 273.225974 195.556769 
L 273.588312 171.449992 
L 273.950649 161.478143 
L 274.312987 168.719601 
L 274.675325 171.831315 
L 275.037662 188.364073 
L 275.762338 248.583085 
L 276.124675 267.437426 
L 276.487013 261.704999 
L 276.849351 253.274374 
L 277.574026 197.903425 
L 277.936364 158.642298 
L 278.298701 138.7744 
L 278.661039 128.11794 
L 279.023377 128.597405 
L 279.748052 168.630701 
L 280.472727 225.003073 
L 280.835065 228.925594 
L 281.197403 224.011148 
L 281.55974 215.877572 
L 281.922078 197.901007 
L 282.284416 187.9001 
L 282.646753 169.895943 
L 283.009091 170.338218 
L 283.371429 178.411698 
L 283.733766 199.640007 
L 284.096104 231.769527 
L 284.820779 272.549349 
L 285.183117 274.175088 
L 285.545455 269.740035 
L 285.907792 243.994309 
L 286.632468 179.750045 
L 287.357143 140.749832 
L 287.719481 142.002128 
L 288.444156 184.671071 
L 289.168831 232.71836 
L 289.531169 245.665808 
L 289.893506 245.4179 
L 290.618182 225.069032 
L 290.980519 197.43834 
L 291.342857 188.171646 
L 291.705195 188.83852 
L 292.42987 215.651297 
L 293.154545 279.231925 
L 293.516883 294.480652 
L 293.879221 291.309604 
L 294.241558 281.958978 
L 294.603896 259.666358 
L 295.328571 199.421059 
L 296.053247 155.913667 
L 297.14026 205.173214 
L 297.502597 236.525468 
L 298.227273 266.955581 
L 298.58961 265.293996 
L 298.951948 257.668301 
L 299.676623 212.884752 
L 300.038961 202.899151 
L 300.401299 206.611688 
L 300.763636 215.382945 
L 301.488312 265.766754 
L 301.850649 293.764365 
L 302.212987 307.024427 
L 302.575325 308.04411 
L 302.937662 300.890409 
L 304.024675 210.430508 
L 304.387013 182.659477 
L 304.749351 170.915601 
L 305.111688 174.100963 
L 305.836364 214.866391 
L 306.198701 243.899331 
L 306.561039 261.656415 
L 306.923377 273.732955 
L 307.285714 270.923053 
L 307.648052 259.550697 
L 308.735065 209.167659 
L 309.097403 213.159267 
L 309.45974 219.300587 
L 310.184416 266.281997 
L 310.546753 291.4467 
L 310.909091 306.916963 
L 311.271429 309.592613 
L 311.633766 301.378201 
L 312.358442 242.504515 
L 312.720779 199.297346 
L 313.083117 187.334989 
L 313.445455 156.96802 
L 313.807792 171.15859 
L 314.17013 178.87324 
L 315.257143 256.553109 
L 315.619481 261.227096 
L 315.981818 269.537821 
L 316.706494 231.461307 
L 317.068831 204.876462 
L 317.431169 197.377328 
L 317.793506 200.870491 
L 318.155844 202.096324 
L 319.242857 274.365331 
L 319.605195 287.704922 
L 319.967532 288.363793 
L 320.32987 276.867842 
L 321.054545 223.52532 
L 321.416883 185.625996 
L 321.779221 162.661865 
L 322.141558 147.417559 
L 322.503896 152.103112 
L 322.866234 162.155539 
L 323.590909 215.20763 
L 323.953247 369.36 
L 324.315584 247.188251 
L 324.677922 237.826969 
L 325.04026 231.615841 
L 326.127273 171.363636 
L 326.48961 173.745118 
L 326.851948 183.186285 
L 327.214286 197.066517 
L 327.938961 252.631929 
L 328.301299 268.626989 
L 328.663636 268.341788 
L 329.025974 252.379122 
L 329.388312 231.118245 
L 330.112987 170.882512 
L 330.837662 124.878796 
L 331.2 130.359063 
L 331.562338 148.365304 
L 332.649351 218.616478 
L 333.374026 228.777217 
L 333.736364 216.033553 
L 334.461039 174.813774 
L 334.823377 162.249217 
L 335.185714 160.918363 
L 335.91039 187.281733 
L 336.272727 226.272825 
L 336.635065 248.80215 
L 336.997403 258.526801 
L 337.35974 264.253673 
L 337.722078 251.406404 
L 338.084416 227.656661 
L 339.171429 136.149328 
L 339.533766 126.067115 
L 339.896104 126.914642 
L 341.345455 214.985734 
L 341.707792 231.571861 
L 342.07013 230.094816 
L 343.157143 180.738126 
L 343.519481 170.6758 
L 343.881818 170.889107 
L 344.244156 189.699901 
L 344.606494 201.579476 
L 345.331169 258.404652 
L 346.055844 276.36746 
L 346.418182 264.028823 
L 348.22987 139.49426 
L 348.592208 139.224562 
L 349.679221 213.672951 
L 350.041558 238.815595 
L 350.403896 251.307772 
L 350.766234 249.728319 
L 351.128571 239.065516 
L 351.853247 203.825812 
L 352.577922 183.135457 
L 353.302597 216.718987 
L 353.664935 253.793513 
L 354.027273 278.910609 
L 354.751948 304.463426 
L 355.114286 286.344576 
L 355.838961 233.660927 
L 356.563636 169.068664 
L 356.925974 162.486618 
L 357.288312 169.554082 
L 357.650649 183.250466 
L 358.012987 204.378022 
L 358.737662 254.719162 
L 359.1 262.948548 
L 359.462338 258.121673 
L 359.824675 254.843791 
L 360.549351 218.41496 
L 360.911688 210.291348 
L 361.274026 206.42052 
L 361.636364 215.173799 
L 361.998701 232.661931 
L 362.723377 289.417016 
L 363.448052 315.392437 
L 363.81039 302.456725 
L 364.172727 277.488823 
L 364.897403 206.739379 
L 365.25974 178.509888 
L 365.622078 172.540473 
L 365.984416 174.688883 
L 366.346753 188.679149 
L 366.709091 211.570885 
L 367.071429 243.599086 
L 367.796104 277.424411 
L 368.158442 271.531576 
L 368.883117 240.777034 
L 369.245455 225.424613 
L 369.607792 204.392909 
L 369.97013 209.097946 
L 370.694805 240.430112 
L 371.057143 263.321503 
L 371.419481 294.720823 
L 372.144156 312.491832 
L 372.868831 270.946169 
L 373.231169 234.389456 
L 373.593506 210.001028 
L 373.955844 176.627362 
L 374.318182 164.333405 
L 374.680519 165.584436 
L 375.405195 202.999515 
L 375.767532 236.059831 
L 376.12987 257.457798 
L 376.492208 266.61186 
L 377.216883 249.897626 
L 377.941558 211.217107 
L 378.303896 197.828076 
L 378.666234 188.652138 
L 379.028571 211.745026 
L 379.390909 222.812324 
L 380.115584 275.096871 
L 380.477922 285.076594 
L 380.84026 288.93975 
L 381.202597 274.714108 
L 381.564935 252.303399 
L 382.651948 158.234904 
L 383.014286 141.784808 
L 383.738961 161.292815 
L 384.825974 234.631475 
L 385.188312 237.413872 
L 385.550649 246.992949 
L 386.275325 205.690281 
L 387 170.381018 
L 387.362338 168.388877 
L 387.724675 188.036787 
L 388.087013 201.186604 
L 388.811688 249.303677 
L 389.174026 265.730882 
L 389.536364 267.854174 
L 389.898701 264.12061 
L 391.348052 141.487658 
L 391.71039 124.781885 
L 392.072727 122.457598 
L 392.435065 143.463234 
L 392.797403 173.461194 
L 393.522078 213.370733 
L 393.884416 225.550641 
L 394.246753 220.322045 
L 394.609091 219.630969 
L 394.971429 196.3202 
L 395.333766 183.091676 
L 395.696104 164.763518 
L 396.058442 162.622788 
L 396.420779 170.083094 
L 397.507792 249.766052 
L 398.232468 264.100199 
L 398.594805 251.808851 
L 398.957143 229.258138 
L 399.681818 162.299064 
L 400.406494 121.803748 
L 401.131169 139.596959 
L 402.218182 226.762939 
L 402.580519 232.200992 
L 402.942857 232.481209 
L 403.305195 222.933339 
L 403.667532 191.881949 
L 404.392208 169.277451 
L 404.754545 167.99982 
L 405.479221 202.498069 
L 406.203896 252.553071 
L 406.566234 272.385144 
L 406.928571 273.371127 
L 407.290909 269.49765 
L 408.015584 211.095019 
L 408.377922 171.688072 
L 408.74026 153.830543 
L 409.102597 143.74904 
L 409.464935 138.7394 
L 411.276623 251.180968 
L 411.638961 247.669876 
L 412.001299 241.159571 
L 412.363636 216.115136 
L 412.725974 205.740959 
L 413.088312 190.066596 
L 413.450649 186.832132 
L 414.175325 221.439864 
L 414.9 282.777446 
L 415.262338 289.575912 
L 415.624675 293.235677 
L 415.987013 286.926965 
L 417.436364 174.5782 
L 417.798701 161.056003 
L 418.161039 168.310365 
L 418.885714 203.419632 
L 419.61039 258.389823 
L 419.972727 269.953756 
L 420.335065 266.954999 
L 420.697403 255.682234 
L 421.422078 219.147192 
L 421.784416 205.463203 
L 422.146753 202.197567 
L 422.509091 214.944632 
L 423.596104 291.647341 
L 423.958442 305.615982 
L 424.320779 304.289613 
L 424.683117 294.941859 
L 425.045455 273.992514 
L 426.132468 182.34539 
L 426.494805 173.479086 
L 426.857143 173.568229 
L 427.581818 217.679886 
L 427.944156 243.178023 
L 428.668831 274.464225 
L 429.031169 276.278053 
L 429.755844 247.138009 
L 430.118182 219.274689 
L 430.480519 207.703217 
L 430.842857 205.78317 
L 431.92987 266.621297 
L 432.292208 294.925707 
L 432.654545 310.22688 
L 433.016883 306.062171 
L 433.379221 291.958112 
L 433.741558 267.498183 
L 434.828571 179.634461 
L 435.190909 161.764785 
L 435.553247 163.853512 
L 436.277922 204.390139 
L 436.64026 234.031617 
L 437.002597 254.453058 
L 437.364935 262.286094 
L 437.727273 262.903631 
L 439.176623 197.175926 
L 439.538961 189.274792 
L 440.263636 229.647367 
L 440.988312 273.603358 
L 441.350649 287.379723 
L 441.712987 290.950401 
L 442.075325 280.641842 
L 443.524675 154.968533 
L 443.887013 149.598918 
L 444.249351 141.992291 
L 445.698701 233.156085 
L 446.061039 240.758466 
L 446.423377 238.013642 
L 447.148052 211.359308 
L 447.51039 185.728384 
L 447.872727 181.151691 
L 448.235065 166.979511 
L 448.95974 201.788456 
L 449.684416 251.727052 
L 450.046753 271.929027 
L 450.409091 273.833119 
L 451.133766 231.941414 
L 452.220779 135.516421 
L 452.583117 127.755876 
L 452.945455 133.098896 
L 453.307792 144.403004 
L 453.67013 164.20256 
L 454.032468 196.155565 
L 454.394805 213.268924 
L 454.757143 236.222322 
L 455.119481 233.90881 
L 455.481818 213.092147 
L 455.844156 203.254641 
L 456.206494 175.706952 
L 456.568831 163.074563 
L 456.931169 160.489965 
L 457.293506 173.412515 
L 457.655844 193.350929 
L 458.742857 266.488278 
L 459.105195 259.664338 
L 459.82987 231.421336 
L 460.554545 161.377949 
L 461.279221 126.029371 
L 461.641558 125.957329 
L 462.366234 165.744859 
L 463.090909 220.27477 
L 463.453247 234.301708 
L 463.815584 228.875864 
L 465.264935 173.630804 
L 465.627273 168.946661 
L 466.351948 193.610512 
L 466.714286 231.968839 
L 467.438961 274.497577 
L 467.801299 274.65567 
L 468.163636 264.214856 
L 468.888312 209.41894 
L 469.250649 171.321824 
L 469.612987 148.799616 
L 469.975325 139.634389 
L 470.7 162.623905 
L 471.424675 210.934894 
L 471.787013 237.24588 
L 472.149351 246.617962 
L 472.511688 245.645325 
L 472.874026 233.870729 
L 473.598701 195.185559 
L 473.961039 189.67213 
L 474.323377 188.253964 
L 474.685714 200.272771 
L 475.048052 218.233296 
L 475.41039 244.829324 
L 475.772727 280.454935 
L 476.135065 297.310271 
L 476.497403 293.629942 
L 476.85974 287.818529 
L 477.222078 266.541921 
L 477.584416 223.197995 
L 478.309091 169.4334 
L 478.671429 164.338969 
L 479.033766 164.942077 
L 479.396104 180.02085 
L 480.845455 266.385689 
L 481.207792 264.500354 
L 481.932468 233.773479 
L 482.294805 217.154932 
L 482.657143 207.412772 
L 483.019481 66.96 
L 483.381818 217.875974 
L 483.744156 235.452926 
L 484.468831 294.247703 
L 484.831169 311.357312 
L 485.193506 317.15255 
L 485.555844 300.494098 
L 486.280519 244.383615 
L 486.642857 209.227416 
L 487.367532 173.663687 
L 487.72987 177.171406 
L 488.092208 190.225638 
L 489.179221 263.840182 
L 489.541558 273.750466 
L 489.903896 274.239344 
L 490.266234 261.667286 
L 490.990909 226.235748 
L 491.715584 211.380253 
L 492.077922 214.334424 
L 492.802597 262.956036 
L 493.164935 293.449282 
L 493.88961 312.198818 
L 494.614286 265.490209 
L 494.976623 240.597511 
L 495.701299 178.313832 
L 496.063636 167.644369 
L 496.425974 162.444089 
L 497.875325 254.748196 
L 498.237662 260.056946 
L 498.6 267.754544 
L 499.687013 212.149195 
L 500.049351 197.933695 
L 500.411688 199.210422 
L 500.774026 204.008926 
L 501.498701 242.470889 
L 501.861039 271.993867 
L 502.585714 296.94467 
L 502.948052 280.742813 
L 503.672727 219.870836 
L 504.035065 176.32424 
L 504.397403 166.150836 
L 504.75974 146.879262 
L 505.122078 147.910936 
L 505.484416 165.640543 
L 506.571429 234.175165 
L 506.933766 240.431725 
L 507.296104 244.441185 
L 507.658442 229.938412 
L 508.020779 209.218047 
L 508.383117 181.925941 
L 509.107792 173.814004 
L 509.832468 201.452259 
L 510.557143 251.457525 
L 510.919481 266.106589 
L 511.281818 271.460844 
L 511.644156 257.073693 
L 512.006494 232.364773 
L 512.731169 165.839173 
L 513.455844 128.826156 
L 513.818182 127.135497 
L 514.180519 141.069823 
L 514.905195 197.824228 
L 515.62987 225.864343 
L 515.992208 226.780783 
L 516.354545 216.871565 
L 516.716883 191.678791 
L 517.441558 165.878646 
L 517.803896 161.302294 
L 518.166234 170.427885 
L 518.528571 192.631226 
L 518.890909 225.097793 
L 519.253247 240.876867 
L 519.615584 261.772025 
L 519.977922 262.409737 
L 520.34026 251.251066 
L 520.702597 228.650265 
L 521.427273 166.208457 
L 521.78961 137.72623 
L 522.151948 124.398364 
L 522.514286 123.410694 
L 523.238961 167.920837 
L 523.963636 222.491724 
L 524.325974 223.921378 
L 524.688312 232.396025 
L 525.412987 200.249313 
L 526.137662 168.491051 
L 526.5 173.822128 
L 526.862338 177.41949 
L 527.224675 197.320105 
L 527.949351 254.544904 
L 528.311688 277.129492 
L 528.674026 276.363187 
L 529.036364 268.399842 
L 529.398701 243.98381 
L 530.123377 177.588594 
L 530.848052 140.629675 
L 531.21039 149.274536 
L 531.935065 185.749759 
L 532.65974 238.918394 
L 533.022078 250.108224 
L 533.746753 240.160571 
L 534.471429 202.529581 
L 534.833766 185.730918 
L 535.196104 189.383478 
L 535.920779 218.175699 
L 536.283117 254.008163 
L 536.645455 268.892531 
L 537.007792 297.612284 
L 537.37013 297.856922 
L 537.732468 283.519063 
L 538.094805 263.012555 
L 538.819481 198.338975 
L 539.181818 170.757024 
L 539.544156 159.617203 
L 539.906494 163.257938 
L 541.355844 253.418587 
L 541.718182 270.296754 
L 542.080519 267.352397 
L 542.442857 253.254006 
L 542.805195 232.463431 
L 543.52987 204.916348 
L 543.892208 206.69006 
L 544.254545 212.013471 
L 545.703896 311.686401 
L 546.066234 313.529847 
L 546.428571 297.638055 
L 546.790909 274.637945 
L 547.877922 182.15758 
L 548.24026 174.995279 
L 548.602597 174.294859 
L 548.964935 184.981629 
L 550.051948 265.949942 
L 550.414286 271.888341 
L 550.776623 273.874631 
L 551.138961 263.716024 
L 551.501299 236.06067 
L 551.863636 225.014654 
L 552.225974 203.923893 
L 552.588312 207.501163 
L 552.950649 218.372051 
L 553.675325 261.345674 
L 554.4 309.538586 
L 554.762338 309.896108 
L 555.124675 299.890908 
L 555.487013 274.167247 
L 555.849351 233.969878 
L 556.574026 180.536995 
L 556.936364 162.883151 
L 557.298701 164.93689 
L 557.661039 181.940609 
L 558.748052 258.709087 
L 559.11039 265.630263 
L 559.472727 262.028238 
L 560.197403 226.508161 
L 560.55974 209.574058 
L 561.284416 189.163276 
L 561.646753 203.751181 
L 563.096104 292.405676 
L 563.458442 289.478218 
L 563.820779 274.462709 
L 564.183117 254.159697 
L 564.545455 212.363192 
L 565.27013 153.938882 
L 565.632468 143.941259 
L 565.994805 140.453683 
L 567.081818 214.737413 
L 567.444156 233.510969 
L 568.168831 246.932969 
L 569.255844 186.249588 
L 569.980519 171.853313 
L 570.342857 184.533733 
L 570.705195 201.335159 
L 571.067532 234.134027 
L 571.42987 251.12748 
L 572.154545 270.235097 
L 572.516883 261.096636 
L 573.966234 138.082681 
L 574.328571 126.710206 
L 574.690909 133.487897 
L 575.053247 134.821738 
L 575.777922 198.25287 
L 576.14026 216.012003 
L 576.502597 227.795214 
L 576.864935 226.707691 
L 578.314286 164.999788 
L 578.676623 162.483291 
L 579.038961 174.98251 
L 579.401299 192.692456 
L 580.125974 253.63829 
L 580.488312 268.568706 
L 580.850649 266.795521 
L 581.575325 227.398285 
L 582.3 157.818598 
L 582.662338 135.854636 
L 583.024675 127.106524 
L 583.387013 124.855136 
L 584.111688 164.303736 
L 584.474026 200.177865 
L 585.198701 233.507972 
L 585.561039 227.54515 
L 586.285714 204.082892 
L 586.648052 179.684072 
L 587.01039 164.162491 
L 587.372727 166.676896 
L 587.735065 180.130265 
L 588.097403 200.625682 
L 588.822078 252.380975 
L 589.184416 272.480939 
L 589.546753 273.599495 
L 589.909091 262.269749 
L 590.271429 241.773976 
L 590.633766 202.068744 
L 590.996104 180.835548 
L 591.358442 152.490695 
L 591.720779 148.580608 
L 592.083117 141.443514 
L 592.445455 158.691949 
L 593.17013 216.814999 
L 593.532468 228.313146 
L 593.894805 249.540589 
L 594.257143 249.3527 
L 594.981818 217.352699 
L 595.344156 197.109149 
L 595.706494 183.904786 
L 596.068831 183.396068 
L 596.431169 199.688374 
L 597.518182 273.740167 
L 597.880519 291.878475 
L 598.242857 291.52707 
L 598.605195 290.595013 
L 599.692208 193.191655 
L 600.416883 162.401714 
L 600.779221 166.547502 
L 601.141558 181.70681 
L 602.228571 255.525373 
L 602.590909 266.404949 
L 602.953247 268.844561 
L 604.402597 201.697481 
L 604.764935 207.338094 
L 605.127273 84.932216 
L 605.48961 238.033966 
L 606.214286 292.219325 
L 606.576623 312.005956 
L 606.938961 312.485938 
L 607.301299 298.014747 
L 607.663636 273.847026 
L 608.750649 177.722121 
L 609.112987 175.142782 
L 609.475325 180.046391 
L 609.837662 190.555455 
L 610.924675 270.622673 
L 611.287013 269.376737 
L 611.649351 276.244891 
L 612.374026 245.459643 
L 612.736364 229.398222 
L 613.098701 207.207055 
L 613.461039 205.839902 
L 614.185714 245.73984 
L 614.548052 263.922501 
L 615.272727 306.463104 
L 615.635065 313.794833 
L 615.997403 296.057823 
L 616.35974 270.555545 
L 617.084416 206.667709 
L 617.446753 182.949331 
L 617.809091 167.232105 
L 618.171429 171.073019 
L 618.533766 181.193706 
L 619.258442 237.444435 
L 619.620779 254.6413 
L 619.983117 261.307426 
L 620.345455 262.221292 
L 620.707792 252.288035 
L 621.07013 231.440055 
L 621.432468 203.616992 
L 621.794805 192.982934 
L 622.519481 204.011812 
L 622.881818 224.437965 
L 623.606494 275.605836 
L 623.968831 292.669781 
L 624.331169 283.290273 
L 624.693506 282.444929 
L 626.505195 138.451135 
L 626.867532 150.463853 
L 627.592208 184.906379 
L 627.954545 214.051658 
L 628.679221 241.184633 
L 629.041558 240.563799 
L 629.403896 225.522595 
L 629.766234 204.000348 
L 630.128571 326.665239 
L 630.490909 177.248439 
L 630.853247 172.650931 
L 631.215584 182.820827 
L 631.577922 197.253617 
L 632.302597 252.255715 
L 632.664935 273.106488 
L 633.027273 270.444036 
L 633.38961 256.813977 
L 634.838961 138.552945 
L 635.201299 127.065655 
L 635.563636 135.111652 
L 635.925974 145.87505 
L 637.012987 217.346264 
L 637.375325 230.798827 
L 637.737662 229.723757 
L 638.1 215.526292 
L 638.462338 188.280545 
L 639.187013 162.247014 
L 639.549351 163.744606 
L 639.911688 176.985584 
L 640.274026 195.234113 
L 640.636364 223.869057 
L 641.361039 261.856746 
L 641.723377 263.603484 
L 642.448052 226.966982 
L 643.535065 135.083354 
L 643.897403 118.58545 
L 644.25974 132.73107 
L 644.622078 142.271018 
L 645.709091 219.491248 
L 646.071429 228.061295 
L 646.433766 230.113295 
L 646.796104 210.309616 
L 647.158442 200.721168 
L 647.520779 176.566303 
L 647.883117 169.850424 
L 648.245455 167.673607 
L 648.607792 182.340673 
L 649.332468 228.054462 
L 649.694805 256.375933 
L 650.057143 274.81131 
L 650.419481 276.888479 
L 651.506494 211.793511 
L 652.231169 148.975127 
L 652.593506 138.590688 
L 652.955844 146.876998 
L 653.318182 158.109946 
L 653.680519 180.490871 
L 654.042857 213.08449 
L 654.767532 248.332785 
L 655.12987 245.110446 
L 655.492208 237.350075 
L 655.854545 209.496735 
L 656.216883 200.266034 
L 656.579221 185.195797 
L 656.941558 187.332264 
L 657.303896 197.218898 
L 657.666234 216.554987 
L 658.390909 280.099372 
L 658.753247 290.22556 
L 659.115584 297.164883 
L 659.477922 281.427483 
L 659.84026 259.383849 
L 660.202597 224.088157 
L 660.564935 200.04623 
L 660.927273 166.720697 
L 661.28961 162.827805 
L 661.651948 168.023875 
L 662.014286 180.672955 
L 663.101299 257.973029 
L 663.463636 265.076139 
L 663.825974 265.99347 
L 664.188312 256.877463 
L 664.550649 231.345538 
L 664.912987 219.808753 
L 665.275325 201.630168 
L 665.637662 201.423505 
L 666 216.585523 
L 666.724675 261.968714 
L 667.087013 291.813768 
L 667.449351 306.838837 
L 667.811688 308.897399 
L 668.536364 274.953243 
L 669.261039 201.775946 
L 669.623377 191.54801 
L 669.985714 170.109419 
L 670.348052 177.547144 
L 671.072727 216.298719 
L 671.435065 244.466624 
L 672.15974 270.601238 
L 672.522078 273.236854 
L 673.246753 240.196353 
L 673.609091 217.335892 
L 673.971429 211.303075 
L 674.333766 200.363984 
L 674.696104 218.808895 
L 675.783117 296.202105 
L 676.145455 308.347104 
L 676.507792 308.86946 
L 676.87013 292.637734 
L 677.594805 234.252446 
L 678.319481 176.131516 
L 678.681818 166.572498 
L 679.044156 167.939143 
L 679.406494 186.276985 
L 680.131169 230.230506 
L 680.855844 267.00602 
L 681.218182 263.088291 
L 683.02987 188.717898 
L 683.392208 202.901821 
L 684.479221 277.503462 
L 684.841558 290.552732 
L 685.203896 291.476721 
L 685.566234 276.311299 
L 686.290909 218.014824 
L 686.653247 184.436188 
L 687.015584 162.723502 
L 687.377922 147.916969 
L 687.74026 143.677194 
L 688.102597 159.802991 
L 688.464935 180.938694 
L 689.18961 233.221325 
L 689.551948 244.434687 
L 689.914286 239.342593 
L 690.276623 229.921696 
L 691.001299 185.932909 
L 691.363636 172.677284 
L 691.725974 170.368473 
L 692.088312 183.534448 
L 693.175325 255.492337 
L 693.537662 269.055983 
L 693.9 271.500766 
L 694.262338 257.510737 
L 694.987013 197.462977 
L 695.711688 141.028843 
L 696.436364 122.766079 
L 697.885714 215.194745 
L 698.248052 231.772717 
L 698.61039 233.298278 
L 698.972727 218.886947 
L 699.697403 172.881828 
L 700.422078 163.326178 
L 700.784416 170.892699 
L 701.146753 191.603281 
L 701.871429 244.591994 
L 702.233766 257.24233 
L 702.596104 262.005597 
L 702.958442 249.773843 
L 703.320779 228.333385 
L 704.407792 139.117967 
L 704.77013 125.144335 
L 705.132468 131.947005 
L 705.494805 148.185604 
L 706.581818 223.214946 
L 706.944156 232.972979 
L 707.306494 228.389775 
L 707.668831 222.179786 
L 708.755844 167.9555 
L 709.118182 171.010004 
L 709.480519 178.547703 
L 710.567532 256.560598 
L 710.92987 270.24683 
L 711.292208 271.091129 
L 711.654545 265.754079 
L 712.379221 211.746204 
L 713.103896 148.020362 
L 713.466234 138.330651 
L 713.828571 142.689531 
L 714.553247 182.758972 
L 714.915584 216.319969 
L 715.277922 236.106514 
L 715.64026 247.124228 
L 716.002597 247.864667 
L 716.364935 236.711638 
L 716.727273 217.032687 
L 717.451948 194.891096 
L 717.814286 189.60744 
L 718.176623 201.841806 
L 718.901299 242.364768 
L 719.263636 278.803034 
L 719.625974 290.573573 
L 719.988312 296.635636 
L 720.712987 270.210153 
L 721.437662 196.663484 
L 721.8 170.984918 
L 722.162338 164.429583 
L 722.524675 167.896442 
L 722.887013 183.576302 
L 723.249351 205.116618 
L 723.611688 239.070631 
L 723.974026 261.466302 
L 724.336364 262.559075 
L 724.698701 268.81809 
L 725.785714 221.102995 
L 726.148052 202.475549 
L 726.51039 203.011331 
L 726.872727 219.457329 
L 727.597403 265.096279 
L 727.95974 294.039957 
L 728.322078 306.602943 
L 728.684416 308.607404 
L 729.046753 305.071443 
L 729.409091 282.171873 
L 730.496104 185.747595 
L 730.858442 169.020921 
L 731.583117 191.571774 
L 732.67013 266.512036 
L 733.032468 272.982353 
L 733.394805 271.095777 
L 733.757143 257.961366 
L 734.119481 235.41916 
L 734.481818 225.165461 
L 734.844156 210.2668 
L 735.206494 201.401892 
L 735.568831 219.222341 
L 736.293506 266.992011 
L 736.655844 283.912731 
L 737.018182 312.846388 
L 737.380519 311.75817 
L 737.742857 298.328299 
L 738.105195 273.614086 
L 739.192208 174.185897 
L 739.554545 161.173478 
L 740.279221 183.038984 
L 741.003896 235.569148 
L 741.728571 263.961177 
L 742.090909 260.58608 
L 742.453247 249.630859 
L 742.815584 234.40136 
L 743.54026 195.614767 
L 743.902597 193.749329 
L 744.264935 200.106695 
L 745.714286 289.075406 
L 746.076623 290.043081 
L 746.438961 280.090284 
L 746.801299 253.094182 
L 746.801299 253.094182 
" style="fill:none;stroke:#1f77b4;stroke-linecap:square;stroke-width:1.5;"/>
   </g>
   <g id="line2d_15">
    <path clip-path="url(#p2487ed0928)" d="M 747.163636 384.48 
L 747.163636 51.84 
" style="fill:none;stroke:#808080;stroke-linecap:square;"/>
   </g>
   <g id="patch_103">
    <path d="M 108 384.48 
L 108 51.84 
" style="fill:none;stroke:#000000;stroke-linecap:square;stroke-linejoin:miter;stroke-width:0.8;"/>
   </g>
   <g id="patch_104">
    <path d="M 777.6 384.48 
L 777.6 51.84 
" style="fill:none;stroke:#000000;stroke-linecap:square;stroke-linejoin:miter;stroke-width:0.8;"/>
   </g>
   <g id="patch_105">
    <path d="M 108 384.48 
L 777.6 384.48 
" style="fill:none;stroke:#000000;stroke-linecap:square;stroke-linejoin:miter;stroke-width:0.8;"/>
   </g>
   <g id="patch_106">
    <path d="M 108 51.84 
L 777.6 51.84 
" style="fill:none;stroke:#000000;stroke-linecap:square;stroke-linejoin:miter;stroke-width:0.8;"/>
   </g>
   <g id="text_16">
    <!-- A3Benchmark-TS6.csv -->
    <defs>
     <path d="M 34.1875 63.1875 
L 20.796875 26.90625 
L 47.609375 26.90625 
z
M 28.609375 72.90625 
L 39.796875 72.90625 
L 67.578125 0 
L 57.328125 0 
L 50.6875 18.703125 
L 17.828125 18.703125 
L 11.1875 0 
L 0.78125 0 
z
" id="DejaVuSans-65"/>
     <path d="M 40.578125 39.3125 
Q 47.65625 37.796875 51.625 33 
Q 55.609375 28.21875 55.609375 21.1875 
Q 55.609375 10.40625 48.1875 4.484375 
Q 40.765625 -1.421875 27.09375 -1.421875 
Q 22.515625 -1.421875 17.65625 -0.515625 
Q 12.796875 0.390625 7.625 2.203125 
L 7.625 11.71875 
Q 11.71875 9.328125 16.59375 8.109375 
Q 21.484375 6.890625 26.8125 6.890625 
Q 36.078125 6.890625 40.9375 10.546875 
Q 45.796875 14.203125 45.796875 21.1875 
Q 45.796875 27.640625 41.28125 31.265625 
Q 36.765625 34.90625 28.71875 34.90625 
L 20.21875 34.90625 
L 20.21875 43.015625 
L 29.109375 43.015625 
Q 36.375 43.015625 40.234375 45.921875 
Q 44.09375 48.828125 44.09375 54.296875 
Q 44.09375 59.90625 40.109375 62.90625 
Q 36.140625 65.921875 28.71875 65.921875 
Q 24.65625 65.921875 20.015625 65.03125 
Q 15.375 64.15625 9.8125 62.3125 
L 9.8125 71.09375 
Q 15.4375 72.65625 20.34375 73.4375 
Q 25.25 74.21875 29.59375 74.21875 
Q 40.828125 74.21875 47.359375 69.109375 
Q 53.90625 64.015625 53.90625 55.328125 
Q 53.90625 49.265625 50.4375 45.09375 
Q 46.96875 40.921875 40.578125 39.3125 
z
" id="DejaVuSans-51"/>
     <path d="M 19.671875 34.8125 
L 19.671875 8.109375 
L 35.5 8.109375 
Q 43.453125 8.109375 47.28125 11.40625 
Q 51.125 14.703125 51.125 21.484375 
Q 51.125 28.328125 47.28125 31.5625 
Q 43.453125 34.8125 35.5 34.8125 
z
M 19.671875 64.796875 
L 19.671875 42.828125 
L 34.28125 42.828125 
Q 41.5 42.828125 45.03125 45.53125 
Q 48.578125 48.25 48.578125 53.8125 
Q 48.578125 59.328125 45.03125 62.0625 
Q 41.5 64.796875 34.28125 64.796875 
z
M 9.8125 72.90625 
L 35.015625 72.90625 
Q 46.296875 72.90625 52.390625 68.21875 
Q 58.5 63.53125 58.5 54.890625 
Q 58.5 48.1875 55.375 44.234375 
Q 52.25 40.28125 46.1875 39.3125 
Q 53.46875 37.75 57.5 32.78125 
Q 61.53125 27.828125 61.53125 20.40625 
Q 61.53125 10.640625 54.890625 5.3125 
Q 48.25 0 35.984375 0 
L 9.8125 0 
z
" id="DejaVuSans-66"/>
     <path d="M 54.890625 33.015625 
L 54.890625 0 
L 45.90625 0 
L 45.90625 32.71875 
Q 45.90625 40.484375 42.875 44.328125 
Q 39.84375 48.1875 33.796875 48.1875 
Q 26.515625 48.1875 22.3125 43.546875 
Q 18.109375 38.921875 18.109375 30.90625 
L 18.109375 0 
L 9.078125 0 
L 9.078125 54.6875 
L 18.109375 54.6875 
L 18.109375 46.1875 
Q 21.34375 51.125 25.703125 53.5625 
Q 30.078125 56 35.796875 56 
Q 45.21875 56 50.046875 50.171875 
Q 54.890625 44.34375 54.890625 33.015625 
z
" id="DejaVuSans-110"/>
     <path d="M 48.78125 52.59375 
L 48.78125 44.1875 
Q 44.96875 46.296875 41.140625 47.34375 
Q 37.3125 48.390625 33.40625 48.390625 
Q 24.65625 48.390625 19.8125 42.84375 
Q 14.984375 37.3125 14.984375 27.296875 
Q 14.984375 17.28125 19.8125 11.734375 
Q 24.65625 6.203125 33.40625 6.203125 
Q 37.3125 6.203125 41.140625 7.25 
Q 44.96875 8.296875 48.78125 10.40625 
L 48.78125 2.09375 
Q 45.015625 0.34375 40.984375 -0.53125 
Q 36.96875 -1.421875 32.421875 -1.421875 
Q 20.0625 -1.421875 12.78125 6.34375 
Q 5.515625 14.109375 5.515625 27.296875 
Q 5.515625 40.671875 12.859375 48.328125 
Q 20.21875 56 33.015625 56 
Q 37.15625 56 41.109375 55.140625 
Q 45.0625 54.296875 48.78125 52.59375 
z
" id="DejaVuSans-99"/>
     <path d="M 54.890625 33.015625 
L 54.890625 0 
L 45.90625 0 
L 45.90625 32.71875 
Q 45.90625 40.484375 42.875 44.328125 
Q 39.84375 48.1875 33.796875 48.1875 
Q 26.515625 48.1875 22.3125 43.546875 
Q 18.109375 38.921875 18.109375 30.90625 
L 18.109375 0 
L 9.078125 0 
L 9.078125 75.984375 
L 18.109375 75.984375 
L 18.109375 46.1875 
Q 21.34375 51.125 25.703125 53.5625 
Q 30.078125 56 35.796875 56 
Q 45.21875 56 50.046875 50.171875 
Q 54.890625 44.34375 54.890625 33.015625 
z
" id="DejaVuSans-104"/>
     <path d="M 41.109375 46.296875 
Q 39.59375 47.171875 37.8125 47.578125 
Q 36.03125 48 33.890625 48 
Q 26.265625 48 22.1875 43.046875 
Q 18.109375 38.09375 18.109375 28.8125 
L 18.109375 0 
L 9.078125 0 
L 9.078125 54.6875 
L 18.109375 54.6875 
L 18.109375 46.1875 
Q 20.953125 51.171875 25.484375 53.578125 
Q 30.03125 56 36.53125 56 
Q 37.453125 56 38.578125 55.875 
Q 39.703125 55.765625 41.0625 55.515625 
z
" id="DejaVuSans-114"/>
     <path d="M 9.078125 75.984375 
L 18.109375 75.984375 
L 18.109375 31.109375 
L 44.921875 54.6875 
L 56.390625 54.6875 
L 27.390625 29.109375 
L 57.625 0 
L 45.90625 0 
L 18.109375 26.703125 
L 18.109375 0 
L 9.078125 0 
z
" id="DejaVuSans-107"/>
     <path d="M 4.890625 31.390625 
L 31.203125 31.390625 
L 31.203125 23.390625 
L 4.890625 23.390625 
z
" id="DejaVuSans-45"/>
     <path d="M 53.515625 70.515625 
L 53.515625 60.890625 
Q 47.90625 63.578125 42.921875 64.890625 
Q 37.9375 66.21875 33.296875 66.21875 
Q 25.25 66.21875 20.875 63.09375 
Q 16.5 59.96875 16.5 54.203125 
Q 16.5 49.359375 19.40625 46.890625 
Q 22.3125 44.4375 30.421875 42.921875 
L 36.375 41.703125 
Q 47.40625 39.59375 52.65625 34.296875 
Q 57.90625 29 57.90625 20.125 
Q 57.90625 9.515625 50.796875 4.046875 
Q 43.703125 -1.421875 29.984375 -1.421875 
Q 24.8125 -1.421875 18.96875 -0.25 
Q 13.140625 0.921875 6.890625 3.21875 
L 6.890625 13.375 
Q 12.890625 10.015625 18.65625 8.296875 
Q 24.421875 6.59375 29.984375 6.59375 
Q 38.421875 6.59375 43.015625 9.90625 
Q 47.609375 13.234375 47.609375 19.390625 
Q 47.609375 24.75 44.3125 27.78125 
Q 41.015625 30.8125 33.5 32.328125 
L 27.484375 33.5 
Q 16.453125 35.6875 11.515625 40.375 
Q 6.59375 45.0625 6.59375 53.421875 
Q 6.59375 63.09375 13.40625 68.65625 
Q 20.21875 74.21875 32.171875 74.21875 
Q 37.3125 74.21875 42.625 73.28125 
Q 47.953125 72.359375 53.515625 70.515625 
z
" id="DejaVuSans-83"/>
     <path d="M 33.015625 40.375 
Q 26.375 40.375 22.484375 35.828125 
Q 18.609375 31.296875 18.609375 23.390625 
Q 18.609375 15.53125 22.484375 10.953125 
Q 26.375 6.390625 33.015625 6.390625 
Q 39.65625 6.390625 43.53125 10.953125 
Q 47.40625 15.53125 47.40625 23.390625 
Q 47.40625 31.296875 43.53125 35.828125 
Q 39.65625 40.375 33.015625 40.375 
z
M 52.59375 71.296875 
L 52.59375 62.3125 
Q 48.875 64.0625 45.09375 64.984375 
Q 41.3125 65.921875 37.59375 65.921875 
Q 27.828125 65.921875 22.671875 59.328125 
Q 17.53125 52.734375 16.796875 39.40625 
Q 19.671875 43.65625 24.015625 45.921875 
Q 28.375 48.1875 33.59375 48.1875 
Q 44.578125 48.1875 50.953125 41.515625 
Q 57.328125 34.859375 57.328125 23.390625 
Q 57.328125 12.15625 50.6875 5.359375 
Q 44.046875 -1.421875 33.015625 -1.421875 
Q 20.359375 -1.421875 13.671875 8.265625 
Q 6.984375 17.96875 6.984375 36.375 
Q 6.984375 53.65625 15.1875 63.9375 
Q 23.390625 74.21875 37.203125 74.21875 
Q 40.921875 74.21875 44.703125 73.484375 
Q 48.484375 72.75 52.59375 71.296875 
z
" id="DejaVuSans-54"/>
     <path d="M 10.6875 12.40625 
L 21 12.40625 
L 21 0 
L 10.6875 0 
z
" id="DejaVuSans-46"/>
     <path d="M 2.984375 54.6875 
L 12.5 54.6875 
L 29.59375 8.796875 
L 46.6875 54.6875 
L 56.203125 54.6875 
L 35.6875 0 
L 23.484375 0 
z
" id="DejaVuSans-118"/>
    </defs>
    <g transform="translate(375.373125 45.84)scale(0.12 -0.12)">
     <use xlink:href="#DejaVuSans-65"/>
     <use x="68.408203" xlink:href="#DejaVuSans-51"/>
     <use x="132.03125" xlink:href="#DejaVuSans-66"/>
     <use x="200.634766" xlink:href="#DejaVuSans-101"/>
     <use x="262.158203" xlink:href="#DejaVuSans-110"/>
     <use x="325.537109" xlink:href="#DejaVuSans-99"/>
     <use x="380.517578" xlink:href="#DejaVuSans-104"/>
     <use x="443.896484" xlink:href="#DejaVuSans-109"/>
     <use x="541.308594" xlink:href="#DejaVuSans-97"/>
     <use x="602.587891" xlink:href="#DejaVuSans-114"/>
     <use x="643.701172" xlink:href="#DejaVuSans-107"/>
     <use x="701.611328" xlink:href="#DejaVuSans-45"/>
     <use x="737.554688" xlink:href="#DejaVuSans-84"/>
     <use x="798.638672" xlink:href="#DejaVuSans-83"/>
     <use x="862.115234" xlink:href="#DejaVuSans-54"/>
     <use x="925.738281" xlink:href="#DejaVuSans-46"/>
     <use x="957.525391" xlink:href="#DejaVuSans-99"/>
     <use x="1012.505859" xlink:href="#DejaVuSans-115"/>
     <use x="1064.605469" xlink:href="#DejaVuSans-118"/>
    </g>
   </g>
   <g id="legend_1">
    <g id="patch_107">
     <path d="M 711.284375 74.518125 
L 770.6 74.518125 
Q 772.6 74.518125 772.6 72.518125 
L 772.6 58.84 
Q 772.6 56.84 770.6 56.84 
L 711.284375 56.84 
Q 709.284375 56.84 709.284375 58.84 
L 709.284375 72.518125 
Q 709.284375 74.518125 711.284375 74.518125 
z
" style="fill:#ffffff;opacity:0.8;stroke:#cccccc;stroke-linejoin:miter;"/>
    </g>
    <g id="line2d_16">
     <path d="M 713.284375 64.938438 
L 733.284375 64.938438 
" style="fill:none;stroke:#1f77b4;stroke-linecap:square;stroke-width:1.5;"/>
    </g>
    <g id="line2d_17"/>
    <g id="text_17">
     <!-- value -->
     <g transform="translate(741.284375 68.438438)scale(0.1 -0.1)">
      <use xlink:href="#DejaVuSans-118"/>
      <use x="59.179688" xlink:href="#DejaVuSans-97"/>
      <use x="120.458984" xlink:href="#DejaVuSans-108"/>
      <use x="148.242188" xlink:href="#DejaVuSans-117"/>
      <use x="211.621094" xlink:href="#DejaVuSans-101"/>
     </g>
    </g>
   </g>
  </g>
 </g>
 <defs>
  <clipPath id="p2487ed0928">
   <rect height="332.64" width="669.6" x="108" y="51.84"/>
  </clipPath>
 </defs>
</svg>
