<?xml version="1.0" encoding="utf-8" standalone="no"?>
<!DOCTYPE svg PUBLIC "-//W3C//DTD SVG 1.1//EN"
  "http://www.w3.org/Graphics/SVG/1.1/DTD/svg11.dtd">
<!-- Created with matplotlib (https://matplotlib.org/) -->
<svg height="432pt" version="1.1" viewBox="0 0 864 432" width="864pt" xmlns="http://www.w3.org/2000/svg" xmlns:xlink="http://www.w3.org/1999/xlink">
 <defs>
  <style type="text/css">
*{stroke-linecap:butt;stroke-linejoin:round;}
  </style>
 </defs>
 <g id="figure_1">
  <g id="patch_1">
   <path d="M 0 432 
L 864 432 
L 864 0 
L 0 0 
z
" style="fill:#ffffff;"/>
  </g>
  <g id="axes_1">
   <g id="patch_2">
    <path d="M 108 384.48 
L 777.6 384.48 
L 777.6 51.84 
L 108 51.84 
z
" style="fill:#ffffff;"/>
   </g>
   <g id="patch_3">
    <path clip-path="url(#p0a88556a2e)" d="M 138.436364 384.48 
L 138.436364 51.84 
L 198.451729 51.84 
L 198.451729 384.48 
z
" style="fill:#0000ff;opacity:0.05;"/>
   </g>
   <g id="patch_4">
    <path clip-path="url(#p0a88556a2e)" d="M 198.451729 384.48 
L 198.451729 51.84 
L 747.163636 51.84 
L 747.163636 384.48 
z
" style="fill:#ff0000;opacity:0.08;"/>
   </g>
   <g id="patch_5">
    <path clip-path="url(#p0a88556a2e)" d="M 138.436364 384.48 
L 138.436364 51.84 
L 142.723175 51.84 
L 142.723175 384.48 
z
" style="fill:#008000;opacity:0.04;"/>
   </g>
   <g id="patch_6">
    <path clip-path="url(#p0a88556a2e)" d="M 147.009987 384.48 
L 147.009987 51.84 
L 151.296799 51.84 
L 151.296799 384.48 
z
" style="fill:#008000;opacity:0.04;"/>
   </g>
   <g id="patch_7">
    <path clip-path="url(#p0a88556a2e)" d="M 155.583611 384.48 
L 155.583611 51.84 
L 159.870423 51.84 
L 159.870423 384.48 
z
" style="fill:#008000;opacity:0.04;"/>
   </g>
   <g id="patch_8">
    <path clip-path="url(#p0a88556a2e)" d="M 159.870423 384.48 
L 159.870423 371.1744 
L 164.157234 371.1744 
L 164.157234 384.48 
z
" style="fill:#ffe500;"/>
   </g>
   <g id="patch_9">
    <path clip-path="url(#p0a88556a2e)" d="M 164.157234 384.48 
L 164.157234 51.84 
L 168.444046 51.84 
L 168.444046 384.48 
z
" style="fill:#008000;opacity:0.04;"/>
   </g>
   <g id="patch_10">
    <path clip-path="url(#p0a88556a2e)" d="M 172.730858 384.48 
L 172.730858 51.84 
L 177.01767 51.84 
L 177.01767 384.48 
z
" style="fill:#008000;opacity:0.04;"/>
   </g>
   <g id="patch_11">
    <path clip-path="url(#p0a88556a2e)" d="M 181.304481 384.48 
L 181.304481 51.84 
L 185.591293 51.84 
L 185.591293 384.48 
z
" style="fill:#008000;opacity:0.04;"/>
   </g>
   <g id="patch_12">
    <path clip-path="url(#p0a88556a2e)" d="M 189.878105 384.48 
L 189.878105 51.84 
L 194.164917 51.84 
L 194.164917 384.48 
z
" style="fill:#008000;opacity:0.04;"/>
   </g>
   <g id="patch_13">
    <path clip-path="url(#p0a88556a2e)" d="M 198.451729 384.48 
L 198.451729 51.84 
L 202.73854 51.84 
L 202.73854 384.48 
z
" style="fill:#008000;opacity:0.04;"/>
   </g>
   <g id="patch_14">
    <path clip-path="url(#p0a88556a2e)" d="M 207.025352 384.48 
L 207.025352 51.84 
L 211.312164 51.84 
L 211.312164 384.48 
z
" style="fill:#008000;opacity:0.04;"/>
   </g>
   <g id="patch_15">
    <path clip-path="url(#p0a88556a2e)" d="M 215.598976 384.48 
L 215.598976 51.84 
L 219.885787 51.84 
L 219.885787 384.48 
z
" style="fill:#008000;opacity:0.04;"/>
   </g>
   <g id="patch_16">
    <path clip-path="url(#p0a88556a2e)" d="M 224.172599 384.48 
L 224.172599 51.84 
L 228.459411 51.84 
L 228.459411 384.48 
z
" style="fill:#008000;opacity:0.04;"/>
   </g>
   <g id="patch_17">
    <path clip-path="url(#p0a88556a2e)" d="M 232.746223 384.48 
L 232.746223 51.84 
L 237.033035 51.84 
L 237.033035 384.48 
z
" style="fill:#008000;opacity:0.04;"/>
   </g>
   <g id="patch_18">
    <path clip-path="url(#p0a88556a2e)" d="M 241.319846 384.48 
L 241.319846 51.84 
L 245.606658 51.84 
L 245.606658 384.48 
z
" style="fill:#008000;opacity:0.04;"/>
   </g>
   <g id="patch_19">
    <path clip-path="url(#p0a88556a2e)" d="M 305.622023 384.48 
L 305.622023 371.1744 
L 309.908835 371.1744 
L 309.908835 384.48 
z
" style="fill:#ff6600;"/>
   </g>
   <g id="patch_20">
    <path clip-path="url(#p0a88556a2e)" d="M 249.89347 384.48 
L 249.89347 51.84 
L 254.180282 51.84 
L 254.180282 384.48 
z
" style="fill:#008000;opacity:0.04;"/>
   </g>
   <g id="patch_21">
    <path clip-path="url(#p0a88556a2e)" d="M 309.908835 384.48 
L 309.908835 371.1744 
L 314.195647 371.1744 
L 314.195647 384.48 
z
" style="fill:#ff6600;"/>
   </g>
   <g id="patch_22">
    <path clip-path="url(#p0a88556a2e)" d="M 258.467093 384.48 
L 258.467093 51.84 
L 262.753905 51.84 
L 262.753905 384.48 
z
" style="fill:#008000;opacity:0.04;"/>
   </g>
   <g id="patch_23">
    <path clip-path="url(#p0a88556a2e)" d="M 267.040717 384.48 
L 267.040717 51.84 
L 271.327529 51.84 
L 271.327529 384.48 
z
" style="fill:#008000;opacity:0.04;"/>
   </g>
   <g id="patch_24">
    <path clip-path="url(#p0a88556a2e)" d="M 275.614341 384.48 
L 275.614341 51.84 
L 279.901152 51.84 
L 279.901152 384.48 
z
" style="fill:#008000;opacity:0.04;"/>
   </g>
   <g id="patch_25">
    <path clip-path="url(#p0a88556a2e)" d="M 284.187964 384.48 
L 284.187964 51.84 
L 288.474776 51.84 
L 288.474776 384.48 
z
" style="fill:#008000;opacity:0.04;"/>
   </g>
   <g id="patch_26">
    <path clip-path="url(#p0a88556a2e)" d="M 344.203329 384.48 
L 344.203329 371.1744 
L 348.490141 371.1744 
L 348.490141 384.48 
z
" style="fill:#ff6600;"/>
   </g>
   <g id="patch_27">
    <path clip-path="url(#p0a88556a2e)" d="M 292.761588 384.48 
L 292.761588 51.84 
L 297.048399 51.84 
L 297.048399 384.48 
z
" style="fill:#008000;opacity:0.04;"/>
   </g>
   <g id="patch_28">
    <path clip-path="url(#p0a88556a2e)" d="M 301.335211 384.48 
L 301.335211 51.84 
L 305.622023 51.84 
L 305.622023 384.48 
z
" style="fill:#008000;opacity:0.04;"/>
   </g>
   <g id="patch_29">
    <path clip-path="url(#p0a88556a2e)" d="M 309.908835 384.48 
L 309.908835 51.84 
L 314.195647 51.84 
L 314.195647 384.48 
z
" style="fill:#008000;opacity:0.04;"/>
   </g>
   <g id="patch_30">
    <path clip-path="url(#p0a88556a2e)" d="M 318.482458 384.48 
L 318.482458 51.84 
L 322.76927 51.84 
L 322.76927 384.48 
z
" style="fill:#008000;opacity:0.04;"/>
   </g>
   <g id="patch_31">
    <path clip-path="url(#p0a88556a2e)" d="M 327.056082 384.48 
L 327.056082 51.84 
L 331.342894 51.84 
L 331.342894 384.48 
z
" style="fill:#008000;opacity:0.04;"/>
   </g>
   <g id="patch_32">
    <path clip-path="url(#p0a88556a2e)" d="M 335.629706 384.48 
L 335.629706 51.84 
L 339.916517 51.84 
L 339.916517 384.48 
z
" style="fill:#008000;opacity:0.04;"/>
   </g>
   <g id="patch_33">
    <path clip-path="url(#p0a88556a2e)" d="M 344.203329 384.48 
L 344.203329 51.84 
L 348.490141 51.84 
L 348.490141 384.48 
z
" style="fill:#008000;opacity:0.04;"/>
   </g>
   <g id="patch_34">
    <path clip-path="url(#p0a88556a2e)" d="M 352.776953 384.48 
L 352.776953 51.84 
L 357.063764 51.84 
L 357.063764 384.48 
z
" style="fill:#008000;opacity:0.04;"/>
   </g>
   <g id="patch_35">
    <path clip-path="url(#p0a88556a2e)" d="M 417.079129 384.48 
L 417.079129 371.1744 
L 421.365941 371.1744 
L 421.365941 384.48 
z
" style="fill:#ff6600;"/>
   </g>
   <g id="patch_36">
    <path clip-path="url(#p0a88556a2e)" d="M 361.350576 384.48 
L 361.350576 51.84 
L 365.637388 51.84 
L 365.637388 384.48 
z
" style="fill:#008000;opacity:0.04;"/>
   </g>
   <g id="patch_37">
    <path clip-path="url(#p0a88556a2e)" d="M 369.9242 384.48 
L 369.9242 51.84 
L 374.211012 51.84 
L 374.211012 384.48 
z
" style="fill:#008000;opacity:0.04;"/>
   </g>
   <g id="patch_38">
    <path clip-path="url(#p0a88556a2e)" d="M 378.497823 384.48 
L 378.497823 51.84 
L 382.784635 51.84 
L 382.784635 384.48 
z
" style="fill:#008000;opacity:0.04;"/>
   </g>
   <g id="patch_39">
    <path clip-path="url(#p0a88556a2e)" d="M 387.071447 384.48 
L 387.071447 51.84 
L 391.358259 51.84 
L 391.358259 384.48 
z
" style="fill:#008000;opacity:0.04;"/>
   </g>
   <g id="patch_40">
    <path clip-path="url(#p0a88556a2e)" d="M 395.64507 384.48 
L 395.64507 51.84 
L 399.931882 51.84 
L 399.931882 384.48 
z
" style="fill:#008000;opacity:0.04;"/>
   </g>
   <g id="patch_41">
    <path clip-path="url(#p0a88556a2e)" d="M 404.218694 384.48 
L 404.218694 51.84 
L 408.505506 51.84 
L 408.505506 384.48 
z
" style="fill:#008000;opacity:0.04;"/>
   </g>
   <g id="patch_42">
    <path clip-path="url(#p0a88556a2e)" d="M 468.520871 384.48 
L 468.520871 371.1744 
L 472.807682 371.1744 
L 472.807682 384.48 
z
" style="fill:#ff6600;"/>
   </g>
   <g id="patch_43">
    <path clip-path="url(#p0a88556a2e)" d="M 412.792318 384.48 
L 412.792318 51.84 
L 417.079129 51.84 
L 417.079129 384.48 
z
" style="fill:#008000;opacity:0.04;"/>
   </g>
   <g id="patch_44">
    <path clip-path="url(#p0a88556a2e)" d="M 417.079129 371.1744 
L 417.079129 51.84 
L 421.365941 51.84 
L 421.365941 371.1744 
z
" style="fill:#008000;opacity:0.5;"/>
   </g>
   <g id="patch_45">
    <path clip-path="url(#p0a88556a2e)" d="M 421.365941 384.48 
L 421.365941 51.84 
L 425.652753 51.84 
L 425.652753 384.48 
z
" style="fill:#008000;opacity:0.04;"/>
   </g>
   <g id="patch_46">
    <path clip-path="url(#p0a88556a2e)" d="M 429.939565 384.48 
L 429.939565 51.84 
L 434.226376 51.84 
L 434.226376 384.48 
z
" style="fill:#008000;opacity:0.04;"/>
   </g>
   <g id="patch_47">
    <path clip-path="url(#p0a88556a2e)" d="M 438.513188 384.48 
L 438.513188 51.84 
L 442.8 51.84 
L 442.8 384.48 
z
" style="fill:#008000;opacity:0.04;"/>
   </g>
   <g id="patch_48">
    <path clip-path="url(#p0a88556a2e)" d="M 447.086812 384.48 
L 447.086812 51.84 
L 451.373624 51.84 
L 451.373624 384.48 
z
" style="fill:#008000;opacity:0.04;"/>
   </g>
   <g id="patch_49">
    <path clip-path="url(#p0a88556a2e)" d="M 455.660435 384.48 
L 455.660435 51.84 
L 459.947247 51.84 
L 459.947247 384.48 
z
" style="fill:#008000;opacity:0.04;"/>
   </g>
   <g id="patch_50">
    <path clip-path="url(#p0a88556a2e)" d="M 515.6758 384.48 
L 515.6758 371.1744 
L 519.962612 371.1744 
L 519.962612 384.48 
z
" style="fill:#ff6600;"/>
   </g>
   <g id="patch_51">
    <path clip-path="url(#p0a88556a2e)" d="M 519.962612 384.48 
L 519.962612 371.1744 
L 524.249424 371.1744 
L 524.249424 384.48 
z
" style="fill:#ff6600;"/>
   </g>
   <g id="patch_52">
    <path clip-path="url(#p0a88556a2e)" d="M 464.234059 384.48 
L 464.234059 51.84 
L 468.520871 51.84 
L 468.520871 384.48 
z
" style="fill:#008000;opacity:0.04;"/>
   </g>
   <g id="patch_53">
    <path clip-path="url(#p0a88556a2e)" d="M 472.807682 384.48 
L 472.807682 51.84 
L 477.094494 51.84 
L 477.094494 384.48 
z
" style="fill:#008000;opacity:0.04;"/>
   </g>
   <g id="patch_54">
    <path clip-path="url(#p0a88556a2e)" d="M 481.381306 384.48 
L 481.381306 51.84 
L 485.668118 51.84 
L 485.668118 384.48 
z
" style="fill:#008000;opacity:0.04;"/>
   </g>
   <g id="patch_55">
    <path clip-path="url(#p0a88556a2e)" d="M 489.95493 384.48 
L 489.95493 51.84 
L 494.241741 51.84 
L 494.241741 384.48 
z
" style="fill:#008000;opacity:0.04;"/>
   </g>
   <g id="patch_56">
    <path clip-path="url(#p0a88556a2e)" d="M 498.528553 384.48 
L 498.528553 51.84 
L 502.815365 51.84 
L 502.815365 384.48 
z
" style="fill:#008000;opacity:0.04;"/>
   </g>
   <g id="patch_57">
    <path clip-path="url(#p0a88556a2e)" d="M 507.102177 384.48 
L 507.102177 51.84 
L 511.388988 51.84 
L 511.388988 384.48 
z
" style="fill:#008000;opacity:0.04;"/>
   </g>
   <g id="patch_58">
    <path clip-path="url(#p0a88556a2e)" d="M 515.6758 384.48 
L 515.6758 51.84 
L 519.962612 51.84 
L 519.962612 384.48 
z
" style="fill:#008000;opacity:0.04;"/>
   </g>
   <g id="patch_59">
    <path clip-path="url(#p0a88556a2e)" d="M 519.962612 371.1744 
L 519.962612 51.84 
L 524.249424 51.84 
L 524.249424 371.1744 
z
" style="fill:#008000;opacity:0.5;"/>
   </g>
   <g id="patch_60">
    <path clip-path="url(#p0a88556a2e)" d="M 524.249424 384.48 
L 524.249424 51.84 
L 528.536236 51.84 
L 528.536236 384.48 
z
" style="fill:#008000;opacity:0.04;"/>
   </g>
   <g id="patch_61">
    <path clip-path="url(#p0a88556a2e)" d="M 532.823047 384.48 
L 532.823047 51.84 
L 537.109859 51.84 
L 537.109859 384.48 
z
" style="fill:#008000;opacity:0.04;"/>
   </g>
   <g id="patch_62">
    <path clip-path="url(#p0a88556a2e)" d="M 597.125224 384.48 
L 597.125224 371.1744 
L 601.412036 371.1744 
L 601.412036 384.48 
z
" style="fill:#ff6600;"/>
   </g>
   <g id="patch_63">
    <path clip-path="url(#p0a88556a2e)" d="M 541.396671 384.48 
L 541.396671 51.84 
L 545.683483 51.84 
L 545.683483 384.48 
z
" style="fill:#008000;opacity:0.04;"/>
   </g>
   <g id="patch_64">
    <path clip-path="url(#p0a88556a2e)" d="M 549.970294 384.48 
L 549.970294 51.84 
L 554.257106 51.84 
L 554.257106 384.48 
z
" style="fill:#008000;opacity:0.04;"/>
   </g>
   <g id="patch_65">
    <path clip-path="url(#p0a88556a2e)" d="M 558.543918 384.48 
L 558.543918 51.84 
L 562.83073 51.84 
L 562.83073 384.48 
z
" style="fill:#008000;opacity:0.04;"/>
   </g>
   <g id="patch_66">
    <path clip-path="url(#p0a88556a2e)" d="M 567.117542 384.48 
L 567.117542 51.84 
L 571.404353 51.84 
L 571.404353 384.48 
z
" style="fill:#008000;opacity:0.04;"/>
   </g>
   <g id="patch_67">
    <path clip-path="url(#p0a88556a2e)" d="M 575.691165 384.48 
L 575.691165 51.84 
L 579.977977 51.84 
L 579.977977 384.48 
z
" style="fill:#008000;opacity:0.04;"/>
   </g>
   <g id="patch_68">
    <path clip-path="url(#p0a88556a2e)" d="M 584.264789 384.48 
L 584.264789 51.84 
L 588.551601 51.84 
L 588.551601 384.48 
z
" style="fill:#008000;opacity:0.04;"/>
   </g>
   <g id="patch_69">
    <path clip-path="url(#p0a88556a2e)" d="M 592.838412 384.48 
L 592.838412 51.84 
L 597.125224 51.84 
L 597.125224 384.48 
z
" style="fill:#008000;opacity:0.04;"/>
   </g>
   <g id="patch_70">
    <path clip-path="url(#p0a88556a2e)" d="M 601.412036 384.48 
L 601.412036 51.84 
L 605.698848 51.84 
L 605.698848 384.48 
z
" style="fill:#008000;opacity:0.04;"/>
   </g>
   <g id="patch_71">
    <path clip-path="url(#p0a88556a2e)" d="M 609.985659 384.48 
L 609.985659 51.84 
L 614.272471 51.84 
L 614.272471 384.48 
z
" style="fill:#008000;opacity:0.04;"/>
   </g>
   <g id="patch_72">
    <path clip-path="url(#p0a88556a2e)" d="M 618.559283 384.48 
L 618.559283 51.84 
L 622.846095 51.84 
L 622.846095 384.48 
z
" style="fill:#008000;opacity:0.04;"/>
   </g>
   <g id="patch_73">
    <path clip-path="url(#p0a88556a2e)" d="M 627.132907 384.48 
L 627.132907 51.84 
L 631.419718 51.84 
L 631.419718 384.48 
z
" style="fill:#008000;opacity:0.04;"/>
   </g>
   <g id="patch_74">
    <path clip-path="url(#p0a88556a2e)" d="M 635.70653 384.48 
L 635.70653 51.84 
L 639.993342 51.84 
L 639.993342 384.48 
z
" style="fill:#008000;opacity:0.04;"/>
   </g>
   <g id="patch_75">
    <path clip-path="url(#p0a88556a2e)" d="M 644.280154 384.48 
L 644.280154 51.84 
L 648.566965 51.84 
L 648.566965 384.48 
z
" style="fill:#008000;opacity:0.04;"/>
   </g>
   <g id="patch_76">
    <path clip-path="url(#p0a88556a2e)" d="M 652.853777 384.48 
L 652.853777 51.84 
L 657.140589 51.84 
L 657.140589 384.48 
z
" style="fill:#008000;opacity:0.04;"/>
   </g>
   <g id="patch_77">
    <path clip-path="url(#p0a88556a2e)" d="M 661.427401 384.48 
L 661.427401 51.84 
L 665.714213 51.84 
L 665.714213 384.48 
z
" style="fill:#008000;opacity:0.04;"/>
   </g>
   <g id="patch_78">
    <path clip-path="url(#p0a88556a2e)" d="M 670.001024 384.48 
L 670.001024 51.84 
L 674.287836 51.84 
L 674.287836 384.48 
z
" style="fill:#008000;opacity:0.04;"/>
   </g>
   <g id="patch_79">
    <path clip-path="url(#p0a88556a2e)" d="M 678.574648 384.48 
L 678.574648 51.84 
L 682.86146 51.84 
L 682.86146 384.48 
z
" style="fill:#008000;opacity:0.04;"/>
   </g>
   <g id="patch_80">
    <path clip-path="url(#p0a88556a2e)" d="M 738.590013 384.48 
L 738.590013 371.1744 
L 742.876825 371.1744 
L 742.876825 384.48 
z
" style="fill:#ff6600;"/>
   </g>
   <g id="patch_81">
    <path clip-path="url(#p0a88556a2e)" d="M 687.148271 384.48 
L 687.148271 51.84 
L 691.435083 51.84 
L 691.435083 384.48 
z
" style="fill:#008000;opacity:0.04;"/>
   </g>
   <g id="patch_82">
    <path clip-path="url(#p0a88556a2e)" d="M 695.721895 384.48 
L 695.721895 51.84 
L 700.008707 51.84 
L 700.008707 384.48 
z
" style="fill:#008000;opacity:0.04;"/>
   </g>
   <g id="patch_83">
    <path clip-path="url(#p0a88556a2e)" d="M 704.295519 384.48 
L 704.295519 51.84 
L 708.58233 51.84 
L 708.58233 384.48 
z
" style="fill:#008000;opacity:0.04;"/>
   </g>
   <g id="patch_84">
    <path clip-path="url(#p0a88556a2e)" d="M 712.869142 384.48 
L 712.869142 51.84 
L 717.155954 51.84 
L 717.155954 384.48 
z
" style="fill:#008000;opacity:0.04;"/>
   </g>
   <g id="patch_85">
    <path clip-path="url(#p0a88556a2e)" d="M 721.442766 384.48 
L 721.442766 51.84 
L 725.729577 51.84 
L 725.729577 384.48 
z
" style="fill:#008000;opacity:0.04;"/>
   </g>
   <g id="patch_86">
    <path clip-path="url(#p0a88556a2e)" d="M 730.016389 384.48 
L 730.016389 51.84 
L 734.303201 51.84 
L 734.303201 384.48 
z
" style="fill:#008000;opacity:0.04;"/>
   </g>
   <g id="patch_87">
    <path clip-path="url(#p0a88556a2e)" d="M 738.590013 384.48 
L 738.590013 51.84 
L 742.876825 51.84 
L 742.876825 384.48 
z
" style="fill:#008000;opacity:0.04;"/>
   </g>
   <g id="matplotlib.axis_1">
    <g id="xtick_1">
     <g id="line2d_1">
      <defs>
       <path d="M 0 0 
L 0 3.5 
" id="m1b89a6d4fb" style="stroke:#000000;stroke-width:0.8;"/>
      </defs>
      <g>
       <use style="stroke:#000000;stroke-width:0.8;" x="138.436364" xlink:href="#m1b89a6d4fb" y="384.48"/>
      </g>
     </g>
     <g id="text_1">
      <!-- 0 -->
      <defs>
       <path d="M 31.78125 66.40625 
Q 24.171875 66.40625 20.328125 58.90625 
Q 16.5 51.421875 16.5 36.375 
Q 16.5 21.390625 20.328125 13.890625 
Q 24.171875 6.390625 31.78125 6.390625 
Q 39.453125 6.390625 43.28125 13.890625 
Q 47.125 21.390625 47.125 36.375 
Q 47.125 51.421875 43.28125 58.90625 
Q 39.453125 66.40625 31.78125 66.40625 
z
M 31.78125 74.21875 
Q 44.046875 74.21875 50.515625 64.515625 
Q 56.984375 54.828125 56.984375 36.375 
Q 56.984375 17.96875 50.515625 8.265625 
Q 44.046875 -1.421875 31.78125 -1.421875 
Q 19.53125 -1.421875 13.0625 8.265625 
Q 6.59375 17.96875 6.59375 36.375 
Q 6.59375 54.828125 13.0625 64.515625 
Q 19.53125 74.21875 31.78125 74.21875 
z
" id="DejaVuSans-48"/>
      </defs>
      <g transform="translate(135.255114 399.078438)scale(0.1 -0.1)">
       <use xlink:href="#DejaVuSans-48"/>
      </g>
     </g>
    </g>
    <g id="xtick_2">
     <g id="line2d_2">
      <g>
       <use style="stroke:#000000;stroke-width:0.8;" x="224.172599" xlink:href="#m1b89a6d4fb" y="384.48"/>
      </g>
     </g>
     <g id="text_2">
      <!-- 200 -->
      <defs>
       <path d="M 19.1875 8.296875 
L 53.609375 8.296875 
L 53.609375 0 
L 7.328125 0 
L 7.328125 8.296875 
Q 12.9375 14.109375 22.625 23.890625 
Q 32.328125 33.6875 34.8125 36.53125 
Q 39.546875 41.84375 41.421875 45.53125 
Q 43.3125 49.21875 43.3125 52.78125 
Q 43.3125 58.59375 39.234375 62.25 
Q 35.15625 65.921875 28.609375 65.921875 
Q 23.96875 65.921875 18.8125 64.3125 
Q 13.671875 62.703125 7.8125 59.421875 
L 7.8125 69.390625 
Q 13.765625 71.78125 18.9375 73 
Q 24.125 74.21875 28.421875 74.21875 
Q 39.75 74.21875 46.484375 68.546875 
Q 53.21875 62.890625 53.21875 53.421875 
Q 53.21875 48.921875 51.53125 44.890625 
Q 49.859375 40.875 45.40625 35.40625 
Q 44.1875 33.984375 37.640625 27.21875 
Q 31.109375 20.453125 19.1875 8.296875 
z
" id="DejaVuSans-50"/>
      </defs>
      <g transform="translate(214.628849 399.078438)scale(0.1 -0.1)">
       <use xlink:href="#DejaVuSans-50"/>
       <use x="63.623047" xlink:href="#DejaVuSans-48"/>
       <use x="127.246094" xlink:href="#DejaVuSans-48"/>
      </g>
     </g>
    </g>
    <g id="xtick_3">
     <g id="line2d_3">
      <g>
       <use style="stroke:#000000;stroke-width:0.8;" x="309.908835" xlink:href="#m1b89a6d4fb" y="384.48"/>
      </g>
     </g>
     <g id="text_3">
      <!-- 400 -->
      <defs>
       <path d="M 37.796875 64.3125 
L 12.890625 25.390625 
L 37.796875 25.390625 
z
M 35.203125 72.90625 
L 47.609375 72.90625 
L 47.609375 25.390625 
L 58.015625 25.390625 
L 58.015625 17.1875 
L 47.609375 17.1875 
L 47.609375 0 
L 37.796875 0 
L 37.796875 17.1875 
L 4.890625 17.1875 
L 4.890625 26.703125 
z
" id="DejaVuSans-52"/>
      </defs>
      <g transform="translate(300.365085 399.078438)scale(0.1 -0.1)">
       <use xlink:href="#DejaVuSans-52"/>
       <use x="63.623047" xlink:href="#DejaVuSans-48"/>
       <use x="127.246094" xlink:href="#DejaVuSans-48"/>
      </g>
     </g>
    </g>
    <g id="xtick_4">
     <g id="line2d_4">
      <g>
       <use style="stroke:#000000;stroke-width:0.8;" x="395.64507" xlink:href="#m1b89a6d4fb" y="384.48"/>
      </g>
     </g>
     <g id="text_4">
      <!-- 600 -->
      <defs>
       <path d="M 33.015625 40.375 
Q 26.375 40.375 22.484375 35.828125 
Q 18.609375 31.296875 18.609375 23.390625 
Q 18.609375 15.53125 22.484375 10.953125 
Q 26.375 6.390625 33.015625 6.390625 
Q 39.65625 6.390625 43.53125 10.953125 
Q 47.40625 15.53125 47.40625 23.390625 
Q 47.40625 31.296875 43.53125 35.828125 
Q 39.65625 40.375 33.015625 40.375 
z
M 52.59375 71.296875 
L 52.59375 62.3125 
Q 48.875 64.0625 45.09375 64.984375 
Q 41.3125 65.921875 37.59375 65.921875 
Q 27.828125 65.921875 22.671875 59.328125 
Q 17.53125 52.734375 16.796875 39.40625 
Q 19.671875 43.65625 24.015625 45.921875 
Q 28.375 48.1875 33.59375 48.1875 
Q 44.578125 48.1875 50.953125 41.515625 
Q 57.328125 34.859375 57.328125 23.390625 
Q 57.328125 12.15625 50.6875 5.359375 
Q 44.046875 -1.421875 33.015625 -1.421875 
Q 20.359375 -1.421875 13.671875 8.265625 
Q 6.984375 17.96875 6.984375 36.375 
Q 6.984375 53.65625 15.1875 63.9375 
Q 23.390625 74.21875 37.203125 74.21875 
Q 40.921875 74.21875 44.703125 73.484375 
Q 48.484375 72.75 52.59375 71.296875 
z
" id="DejaVuSans-54"/>
      </defs>
      <g transform="translate(386.10132 399.078438)scale(0.1 -0.1)">
       <use xlink:href="#DejaVuSans-54"/>
       <use x="63.623047" xlink:href="#DejaVuSans-48"/>
       <use x="127.246094" xlink:href="#DejaVuSans-48"/>
      </g>
     </g>
    </g>
    <g id="xtick_5">
     <g id="line2d_5">
      <g>
       <use style="stroke:#000000;stroke-width:0.8;" x="481.381306" xlink:href="#m1b89a6d4fb" y="384.48"/>
      </g>
     </g>
     <g id="text_5">
      <!-- 800 -->
      <defs>
       <path d="M 31.78125 34.625 
Q 24.75 34.625 20.71875 30.859375 
Q 16.703125 27.09375 16.703125 20.515625 
Q 16.703125 13.921875 20.71875 10.15625 
Q 24.75 6.390625 31.78125 6.390625 
Q 38.8125 6.390625 42.859375 10.171875 
Q 46.921875 13.96875 46.921875 20.515625 
Q 46.921875 27.09375 42.890625 30.859375 
Q 38.875 34.625 31.78125 34.625 
z
M 21.921875 38.8125 
Q 15.578125 40.375 12.03125 44.71875 
Q 8.5 49.078125 8.5 55.328125 
Q 8.5 64.0625 14.71875 69.140625 
Q 20.953125 74.21875 31.78125 74.21875 
Q 42.671875 74.21875 48.875 69.140625 
Q 55.078125 64.0625 55.078125 55.328125 
Q 55.078125 49.078125 51.53125 44.71875 
Q 48 40.375 41.703125 38.8125 
Q 48.828125 37.15625 52.796875 32.3125 
Q 56.78125 27.484375 56.78125 20.515625 
Q 56.78125 9.90625 50.3125 4.234375 
Q 43.84375 -1.421875 31.78125 -1.421875 
Q 19.734375 -1.421875 13.25 4.234375 
Q 6.78125 9.90625 6.78125 20.515625 
Q 6.78125 27.484375 10.78125 32.3125 
Q 14.796875 37.15625 21.921875 38.8125 
z
M 18.3125 54.390625 
Q 18.3125 48.734375 21.84375 45.5625 
Q 25.390625 42.390625 31.78125 42.390625 
Q 38.140625 42.390625 41.71875 45.5625 
Q 45.3125 48.734375 45.3125 54.390625 
Q 45.3125 60.0625 41.71875 63.234375 
Q 38.140625 66.40625 31.78125 66.40625 
Q 25.390625 66.40625 21.84375 63.234375 
Q 18.3125 60.0625 18.3125 54.390625 
z
" id="DejaVuSans-56"/>
      </defs>
      <g transform="translate(471.837556 399.078438)scale(0.1 -0.1)">
       <use xlink:href="#DejaVuSans-56"/>
       <use x="63.623047" xlink:href="#DejaVuSans-48"/>
       <use x="127.246094" xlink:href="#DejaVuSans-48"/>
      </g>
     </g>
    </g>
    <g id="xtick_6">
     <g id="line2d_6">
      <g>
       <use style="stroke:#000000;stroke-width:0.8;" x="567.117542" xlink:href="#m1b89a6d4fb" y="384.48"/>
      </g>
     </g>
     <g id="text_6">
      <!-- 1000 -->
      <defs>
       <path d="M 12.40625 8.296875 
L 28.515625 8.296875 
L 28.515625 63.921875 
L 10.984375 60.40625 
L 10.984375 69.390625 
L 28.421875 72.90625 
L 38.28125 72.90625 
L 38.28125 8.296875 
L 54.390625 8.296875 
L 54.390625 0 
L 12.40625 0 
z
" id="DejaVuSans-49"/>
      </defs>
      <g transform="translate(554.392542 399.078438)scale(0.1 -0.1)">
       <use xlink:href="#DejaVuSans-49"/>
       <use x="63.623047" xlink:href="#DejaVuSans-48"/>
       <use x="127.246094" xlink:href="#DejaVuSans-48"/>
       <use x="190.869141" xlink:href="#DejaVuSans-48"/>
      </g>
     </g>
    </g>
    <g id="xtick_7">
     <g id="line2d_7">
      <g>
       <use style="stroke:#000000;stroke-width:0.8;" x="652.853777" xlink:href="#m1b89a6d4fb" y="384.48"/>
      </g>
     </g>
     <g id="text_7">
      <!-- 1200 -->
      <g transform="translate(640.128777 399.078438)scale(0.1 -0.1)">
       <use xlink:href="#DejaVuSans-49"/>
       <use x="63.623047" xlink:href="#DejaVuSans-50"/>
       <use x="127.246094" xlink:href="#DejaVuSans-48"/>
       <use x="190.869141" xlink:href="#DejaVuSans-48"/>
      </g>
     </g>
    </g>
    <g id="xtick_8">
     <g id="line2d_8">
      <g>
       <use style="stroke:#000000;stroke-width:0.8;" x="738.590013" xlink:href="#m1b89a6d4fb" y="384.48"/>
      </g>
     </g>
     <g id="text_8">
      <!-- 1400 -->
      <g transform="translate(725.865013 399.078438)scale(0.1 -0.1)">
       <use xlink:href="#DejaVuSans-49"/>
       <use x="63.623047" xlink:href="#DejaVuSans-52"/>
       <use x="127.246094" xlink:href="#DejaVuSans-48"/>
       <use x="190.869141" xlink:href="#DejaVuSans-48"/>
      </g>
     </g>
    </g>
    <g id="text_9">
     <!-- Timestamp -->
     <defs>
      <path d="M -0.296875 72.90625 
L 61.375 72.90625 
L 61.375 64.59375 
L 35.5 64.59375 
L 35.5 0 
L 25.59375 0 
L 25.59375 64.59375 
L -0.296875 64.59375 
z
" id="DejaVuSans-84"/>
      <path d="M 9.421875 54.6875 
L 18.40625 54.6875 
L 18.40625 0 
L 9.421875 0 
z
M 9.421875 75.984375 
L 18.40625 75.984375 
L 18.40625 64.59375 
L 9.421875 64.59375 
z
" id="DejaVuSans-105"/>
      <path d="M 52 44.1875 
Q 55.375 50.25 60.0625 53.125 
Q 64.75 56 71.09375 56 
Q 79.640625 56 84.28125 50.015625 
Q 88.921875 44.046875 88.921875 33.015625 
L 88.921875 0 
L 79.890625 0 
L 79.890625 32.71875 
Q 79.890625 40.578125 77.09375 44.375 
Q 74.3125 48.1875 68.609375 48.1875 
Q 61.625 48.1875 57.5625 43.546875 
Q 53.515625 38.921875 53.515625 30.90625 
L 53.515625 0 
L 44.484375 0 
L 44.484375 32.71875 
Q 44.484375 40.625 41.703125 44.40625 
Q 38.921875 48.1875 33.109375 48.1875 
Q 26.21875 48.1875 22.15625 43.53125 
Q 18.109375 38.875 18.109375 30.90625 
L 18.109375 0 
L 9.078125 0 
L 9.078125 54.6875 
L 18.109375 54.6875 
L 18.109375 46.1875 
Q 21.1875 51.21875 25.484375 53.609375 
Q 29.78125 56 35.6875 56 
Q 41.65625 56 45.828125 52.96875 
Q 50 49.953125 52 44.1875 
z
" id="DejaVuSans-109"/>
      <path d="M 56.203125 29.59375 
L 56.203125 25.203125 
L 14.890625 25.203125 
Q 15.484375 15.921875 20.484375 11.0625 
Q 25.484375 6.203125 34.421875 6.203125 
Q 39.59375 6.203125 44.453125 7.46875 
Q 49.3125 8.734375 54.109375 11.28125 
L 54.109375 2.78125 
Q 49.265625 0.734375 44.1875 -0.34375 
Q 39.109375 -1.421875 33.890625 -1.421875 
Q 20.796875 -1.421875 13.15625 6.1875 
Q 5.515625 13.8125 5.515625 26.8125 
Q 5.515625 40.234375 12.765625 48.109375 
Q 20.015625 56 32.328125 56 
Q 43.359375 56 49.78125 48.890625 
Q 56.203125 41.796875 56.203125 29.59375 
z
M 47.21875 32.234375 
Q 47.125 39.59375 43.09375 43.984375 
Q 39.0625 48.390625 32.421875 48.390625 
Q 24.90625 48.390625 20.390625 44.140625 
Q 15.875 39.890625 15.1875 32.171875 
z
" id="DejaVuSans-101"/>
      <path d="M 44.28125 53.078125 
L 44.28125 44.578125 
Q 40.484375 46.53125 36.375 47.5 
Q 32.28125 48.484375 27.875 48.484375 
Q 21.1875 48.484375 17.84375 46.4375 
Q 14.5 44.390625 14.5 40.28125 
Q 14.5 37.15625 16.890625 35.375 
Q 19.28125 33.59375 26.515625 31.984375 
L 29.59375 31.296875 
Q 39.15625 29.25 43.1875 25.515625 
Q 47.21875 21.78125 47.21875 15.09375 
Q 47.21875 7.46875 41.1875 3.015625 
Q 35.15625 -1.421875 24.609375 -1.421875 
Q 20.21875 -1.421875 15.453125 -0.5625 
Q 10.6875 0.296875 5.421875 2 
L 5.421875 11.28125 
Q 10.40625 8.6875 15.234375 7.390625 
Q 20.0625 6.109375 24.8125 6.109375 
Q 31.15625 6.109375 34.5625 8.28125 
Q 37.984375 10.453125 37.984375 14.40625 
Q 37.984375 18.0625 35.515625 20.015625 
Q 33.0625 21.96875 24.703125 23.78125 
L 21.578125 24.515625 
Q 13.234375 26.265625 9.515625 29.90625 
Q 5.8125 33.546875 5.8125 39.890625 
Q 5.8125 47.609375 11.28125 51.796875 
Q 16.75 56 26.8125 56 
Q 31.78125 56 36.171875 55.265625 
Q 40.578125 54.546875 44.28125 53.078125 
z
" id="DejaVuSans-115"/>
      <path d="M 18.3125 70.21875 
L 18.3125 54.6875 
L 36.8125 54.6875 
L 36.8125 47.703125 
L 18.3125 47.703125 
L 18.3125 18.015625 
Q 18.3125 11.328125 20.140625 9.421875 
Q 21.96875 7.515625 27.59375 7.515625 
L 36.8125 7.515625 
L 36.8125 0 
L 27.59375 0 
Q 17.1875 0 13.234375 3.875 
Q 9.28125 7.765625 9.28125 18.015625 
L 9.28125 47.703125 
L 2.6875 47.703125 
L 2.6875 54.6875 
L 9.28125 54.6875 
L 9.28125 70.21875 
z
" id="DejaVuSans-116"/>
      <path d="M 34.28125 27.484375 
Q 23.390625 27.484375 19.1875 25 
Q 14.984375 22.515625 14.984375 16.5 
Q 14.984375 11.71875 18.140625 8.90625 
Q 21.296875 6.109375 26.703125 6.109375 
Q 34.1875 6.109375 38.703125 11.40625 
Q 43.21875 16.703125 43.21875 25.484375 
L 43.21875 27.484375 
z
M 52.203125 31.203125 
L 52.203125 0 
L 43.21875 0 
L 43.21875 8.296875 
Q 40.140625 3.328125 35.546875 0.953125 
Q 30.953125 -1.421875 24.3125 -1.421875 
Q 15.921875 -1.421875 10.953125 3.296875 
Q 6 8.015625 6 15.921875 
Q 6 25.140625 12.171875 29.828125 
Q 18.359375 34.515625 30.609375 34.515625 
L 43.21875 34.515625 
L 43.21875 35.40625 
Q 43.21875 41.609375 39.140625 45 
Q 35.0625 48.390625 27.6875 48.390625 
Q 23 48.390625 18.546875 47.265625 
Q 14.109375 46.140625 10.015625 43.890625 
L 10.015625 52.203125 
Q 14.9375 54.109375 19.578125 55.046875 
Q 24.21875 56 28.609375 56 
Q 40.484375 56 46.34375 49.84375 
Q 52.203125 43.703125 52.203125 31.203125 
z
" id="DejaVuSans-97"/>
      <path d="M 18.109375 8.203125 
L 18.109375 -20.796875 
L 9.078125 -20.796875 
L 9.078125 54.6875 
L 18.109375 54.6875 
L 18.109375 46.390625 
Q 20.953125 51.265625 25.265625 53.625 
Q 29.59375 56 35.59375 56 
Q 45.5625 56 51.78125 48.09375 
Q 58.015625 40.1875 58.015625 27.296875 
Q 58.015625 14.40625 51.78125 6.484375 
Q 45.5625 -1.421875 35.59375 -1.421875 
Q 29.59375 -1.421875 25.265625 0.953125 
Q 20.953125 3.328125 18.109375 8.203125 
z
M 48.6875 27.296875 
Q 48.6875 37.203125 44.609375 42.84375 
Q 40.53125 48.484375 33.40625 48.484375 
Q 26.265625 48.484375 22.1875 42.84375 
Q 18.109375 37.203125 18.109375 27.296875 
Q 18.109375 17.390625 22.1875 11.75 
Q 26.265625 6.109375 33.40625 6.109375 
Q 40.53125 6.109375 44.609375 11.75 
Q 48.6875 17.390625 48.6875 27.296875 
z
" id="DejaVuSans-112"/>
     </defs>
     <g transform="translate(414.739062 412.756563)scale(0.1 -0.1)">
      <use xlink:href="#DejaVuSans-84"/>
      <use x="61.037109" xlink:href="#DejaVuSans-105"/>
      <use x="88.820312" xlink:href="#DejaVuSans-109"/>
      <use x="186.232422" xlink:href="#DejaVuSans-101"/>
      <use x="247.755859" xlink:href="#DejaVuSans-115"/>
      <use x="299.855469" xlink:href="#DejaVuSans-116"/>
      <use x="339.064453" xlink:href="#DejaVuSans-97"/>
      <use x="400.34375" xlink:href="#DejaVuSans-109"/>
      <use x="497.755859" xlink:href="#DejaVuSans-112"/>
     </g>
    </g>
   </g>
   <g id="matplotlib.axis_2">
    <g id="ytick_1">
     <g id="line2d_9">
      <defs>
       <path d="M 0 0 
L -3.5 0 
" id="m691095b570" style="stroke:#000000;stroke-width:0.8;"/>
      </defs>
      <g>
       <use style="stroke:#000000;stroke-width:0.8;" x="108" xlink:href="#m691095b570" y="329.275937"/>
      </g>
     </g>
     <g id="text_10">
      <!-- 0 -->
      <g transform="translate(94.6375 333.075156)scale(0.1 -0.1)">
       <use xlink:href="#DejaVuSans-48"/>
      </g>
     </g>
    </g>
    <g id="ytick_2">
     <g id="line2d_10">
      <g>
       <use style="stroke:#000000;stroke-width:0.8;" x="108" xlink:href="#m691095b570" y="265.380269"/>
      </g>
     </g>
     <g id="text_11">
      <!-- 2000 -->
      <g transform="translate(75.55 269.179488)scale(0.1 -0.1)">
       <use xlink:href="#DejaVuSans-50"/>
       <use x="63.623047" xlink:href="#DejaVuSans-48"/>
       <use x="127.246094" xlink:href="#DejaVuSans-48"/>
       <use x="190.869141" xlink:href="#DejaVuSans-48"/>
      </g>
     </g>
    </g>
    <g id="ytick_3">
     <g id="line2d_11">
      <g>
       <use style="stroke:#000000;stroke-width:0.8;" x="108" xlink:href="#m691095b570" y="201.484602"/>
      </g>
     </g>
     <g id="text_12">
      <!-- 4000 -->
      <g transform="translate(75.55 205.283821)scale(0.1 -0.1)">
       <use xlink:href="#DejaVuSans-52"/>
       <use x="63.623047" xlink:href="#DejaVuSans-48"/>
       <use x="127.246094" xlink:href="#DejaVuSans-48"/>
       <use x="190.869141" xlink:href="#DejaVuSans-48"/>
      </g>
     </g>
    </g>
    <g id="ytick_4">
     <g id="line2d_12">
      <g>
       <use style="stroke:#000000;stroke-width:0.8;" x="108" xlink:href="#m691095b570" y="137.588935"/>
      </g>
     </g>
     <g id="text_13">
      <!-- 6000 -->
      <g transform="translate(75.55 141.388153)scale(0.1 -0.1)">
       <use xlink:href="#DejaVuSans-54"/>
       <use x="63.623047" xlink:href="#DejaVuSans-48"/>
       <use x="127.246094" xlink:href="#DejaVuSans-48"/>
       <use x="190.869141" xlink:href="#DejaVuSans-48"/>
      </g>
     </g>
    </g>
    <g id="ytick_5">
     <g id="line2d_13">
      <g>
       <use style="stroke:#000000;stroke-width:0.8;" x="108" xlink:href="#m691095b570" y="73.693267"/>
      </g>
     </g>
     <g id="text_14">
      <!-- 8000 -->
      <g transform="translate(75.55 77.492486)scale(0.1 -0.1)">
       <use xlink:href="#DejaVuSans-56"/>
       <use x="63.623047" xlink:href="#DejaVuSans-48"/>
       <use x="127.246094" xlink:href="#DejaVuSans-48"/>
       <use x="190.869141" xlink:href="#DejaVuSans-48"/>
      </g>
     </g>
    </g>
    <g id="text_15">
     <!-- Value -->
     <defs>
      <path d="M 28.609375 0 
L 0.78125 72.90625 
L 11.078125 72.90625 
L 34.1875 11.53125 
L 57.328125 72.90625 
L 67.578125 72.90625 
L 39.796875 0 
z
" id="DejaVuSans-86"/>
      <path d="M 9.421875 75.984375 
L 18.40625 75.984375 
L 18.40625 0 
L 9.421875 0 
z
" id="DejaVuSans-108"/>
      <path d="M 8.5 21.578125 
L 8.5 54.6875 
L 17.484375 54.6875 
L 17.484375 21.921875 
Q 17.484375 14.15625 20.5 10.265625 
Q 23.53125 6.390625 29.59375 6.390625 
Q 36.859375 6.390625 41.078125 11.03125 
Q 45.3125 15.671875 45.3125 23.6875 
L 45.3125 54.6875 
L 54.296875 54.6875 
L 54.296875 0 
L 45.3125 0 
L 45.3125 8.40625 
Q 42.046875 3.421875 37.71875 1 
Q 33.40625 -1.421875 27.6875 -1.421875 
Q 18.265625 -1.421875 13.375 4.4375 
Q 8.5 10.296875 8.5 21.578125 
z
M 31.109375 56 
z
" id="DejaVuSans-117"/>
     </defs>
     <g transform="translate(69.470312 232.273281)rotate(-90)scale(0.1 -0.1)">
      <use xlink:href="#DejaVuSans-86"/>
      <use x="68.298828" xlink:href="#DejaVuSans-97"/>
      <use x="129.578125" xlink:href="#DejaVuSans-108"/>
      <use x="157.361328" xlink:href="#DejaVuSans-117"/>
      <use x="220.740234" xlink:href="#DejaVuSans-101"/>
     </g>
    </g>
   </g>
   <g id="line2d_14">
    <path clip-path="url(#p0a88556a2e)" d="M 138.436364 319.053367 
L 138.865045 330.514555 
L 139.293726 315.953462 
L 139.722407 315.133656 
L 140.151088 320.734835 
L 140.57977 335.134521 
L 141.437132 322.614485 
L 141.865813 319.038393 
L 142.294494 298.457098 
L 143.151857 321.665444 
L 143.580538 323.233666 
L 144.009219 315.1342 
L 144.4379 314.0054 
L 144.866581 313.710325 
L 145.295262 307.204563 
L 145.723944 315.209003 
L 146.152625 303.406468 
L 146.581306 315.681775 
L 147.009987 306.429587 
L 147.438668 300.493999 
L 147.86735 301.356862 
L 148.296031 294.900511 
L 148.724712 300.748396 
L 149.582074 289.52317 
L 150.010755 302.770024 
L 150.439437 306.5506 
L 150.868118 294.916347 
L 151.72548 297.793872 
L 152.154161 296.024289 
L 152.582843 296.890452 
L 153.011524 285.011656 
L 153.440205 280.784078 
L 153.868886 281.272112 
L 154.297567 291.905127 
L 154.726248 277.790026 
L 155.15493 289.245567 
L 155.583611 272.221812 
L 156.440973 288.657603 
L 157.298335 293.203092 
L 157.727017 291.847528 
L 158.155698 295.325984 
L 158.584379 273.025121 
L 159.01306 275.170189 
L 159.441741 283.238387 
L 159.870423 278.884873 
L 160.299104 283.673885 
L 160.727785 260.740991 
L 161.156466 286.391692 
L 161.585147 280.180979 
L 162.44251 274.33103 
L 162.871191 280.493865 
L 163.299872 296.795281 
L 163.728553 288.978766 
L 164.157234 275.884798 
L 164.585915 278.79695 
L 165.014597 286.229806 
L 165.443278 279.625507 
L 165.871959 285.273118 
L 166.30064 276.867782 
L 166.729321 290.341856 
L 167.158003 276.114339 
L 167.586684 277.222294 
L 168.015365 278.886918 
L 168.444046 279.483465 
L 168.872727 277.830355 
L 169.301408 285.385107 
L 169.73009 281.4529 
L 170.158771 275.517616 
L 170.587452 272.389762 
L 171.016133 280.46929 
L 171.444814 282.998713 
L 171.873496 289.828582 
L 172.302177 294.530658 
L 172.730858 289.909826 
L 173.159539 274.003738 
L 173.58822 278.436825 
L 174.016901 286.983191 
L 174.445583 289.249204 
L 174.874264 289.847144 
L 175.302945 279.161724 
L 175.731626 290.06085 
L 176.160307 278.49376 
L 176.588988 284.119011 
L 177.01767 279.646685 
L 177.446351 297.85101 
L 177.875032 291.584852 
L 178.303713 299.539467 
L 178.732394 288.537993 
L 179.589757 297.325321 
L 180.018438 284.285555 
L 180.447119 295.039811 
L 180.8758 289.816617 
L 181.304481 292.485143 
L 181.733163 305.945432 
L 182.161844 305.631833 
L 182.590525 301.307723 
L 183.019206 311.747164 
L 183.447887 299.07122 
L 183.876569 314.990179 
L 184.30525 292.719893 
L 184.733931 310.812818 
L 185.162612 294.391786 
L 185.591293 312.217699 
L 186.019974 317.773182 
L 186.448656 310.845826 
L 186.877337 311.907185 
L 187.306018 326.683321 
L 187.734699 305.84637 
L 188.16338 324.363251 
L 188.592061 313.784951 
L 189.020743 313.600571 
L 189.878105 320.704991 
L 190.306786 319.257583 
L 190.735467 330.500697 
L 191.164149 329.456933 
L 191.59283 333.028416 
L 192.021511 312.503102 
L 192.450192 314.233762 
L 193.307554 338.253059 
L 193.736236 329.445757 
L 194.164917 318.334491 
L 194.593598 335.301971 
L 195.022279 326.109514 
L 195.45096 341.327718 
L 195.879641 328.986653 
L 196.308323 343.1641 
L 196.737004 346.347411 
L 197.165685 345.100595 
L 197.594366 345.343988 
L 198.023047 346.598133 
L 198.451729 334.260994 
L 198.88041 340.548432 
L 199.309091 344.568701 
L 199.737772 351.541365 
L 200.166453 351.812465 
L 200.595134 350.639833 
L 201.023816 354.258597 
L 201.452497 349.649077 
L 201.881178 343.026203 
L 202.309859 357.006719 
L 202.73854 336.459163 
L 203.167222 359.450227 
L 203.595903 350.369106 
L 204.024584 331.228963 
L 204.881946 353.450886 
L 205.310627 358.930839 
L 205.739309 347.84984 
L 206.16799 353.128227 
L 206.596671 356.512502 
L 207.025352 351.408505 
L 207.454033 358.300129 
L 207.882714 333.455209 
L 208.740077 349.224919 
L 209.168758 350.063589 
L 209.597439 360.413182 
L 210.02612 349.203688 
L 210.454802 359.318503 
L 210.883483 364.792618 
L 211.312164 341.763301 
L 211.740845 364.438041 
L 212.169526 359.441131 
L 213.026889 364.769411 
L 213.45557 352.371188 
L 213.884251 369.36 
L 214.312932 358.732148 
L 214.741613 361.588902 
L 215.170294 368.004714 
L 215.598976 357.263697 
L 216.027657 359.96468 
L 216.456338 361.03758 
L 216.885019 348.168886 
L 217.3137 351.483621 
L 217.742382 356.163863 
L 218.171063 353.838263 
L 218.599744 360.629497 
L 219.028425 355.924992 
L 219.457106 345.035291 
L 219.885787 353.540865 
L 220.314469 351.612411 
L 220.74315 336.147105 
L 221.171831 357.470816 
L 221.600512 343.539043 
L 222.029193 336.272858 
L 222.457875 358.522892 
L 222.886556 349.17909 
L 223.315237 351.750828 
L 223.743918 351.836832 
L 224.172599 355.53658 
L 224.60128 353.561815 
L 225.029962 335.394613 
L 225.458643 339.985197 
L 225.887324 337.676284 
L 226.316005 330.532449 
L 226.744686 345.052323 
L 227.173367 334.652733 
L 227.602049 340.742931 
L 228.03073 343.311553 
L 228.459411 330.878252 
L 228.888092 337.000777 
L 229.316773 344.819595 
L 229.745455 337.135654 
L 230.174136 322.168569 
L 230.602817 323.676481 
L 231.031498 343.665264 
L 231.460179 330.097495 
L 231.88886 322.93037 
L 232.317542 341.606326 
L 232.746223 316.124296 
L 233.174904 330.588995 
L 233.603585 322.822584 
L 234.032266 325.413153 
L 234.460948 310.007984 
L 234.889629 333.25827 
L 235.31831 321.354926 
L 235.746991 327.576259 
L 236.604353 298.577469 
L 237.033035 327.337287 
L 237.461716 314.420917 
L 237.890397 313.835731 
L 238.319078 299.017683 
L 238.747759 317.974712 
L 239.605122 293.931242 
L 240.033803 308.347276 
L 240.462484 310.635058 
L 241.319846 298.394065 
L 241.748528 309.265277 
L 242.177209 286.916549 
L 242.60589 298.5516 
L 243.034571 320.627978 
L 243.463252 304.955237 
L 243.891933 282.41723 
L 244.320615 301.417904 
L 244.749296 293.165049 
L 245.177977 290.784746 
L 245.606658 302.716477 
L 246.035339 284.77224 
L 246.46402 284.136889 
L 246.892702 271.311933 
L 247.750064 283.364866 
L 248.178745 283.54554 
L 248.607426 276.902118 
L 249.036108 287.772879 
L 249.464789 278.722867 
L 250.322151 273.031192 
L 250.750832 285.507224 
L 251.179513 263.670694 
L 251.608195 268.773257 
L 252.036876 253.326406 
L 252.465557 287.635414 
L 252.894238 276.280028 
L 253.322919 284.392448 
L 253.751601 273.136898 
L 254.180282 266.414759 
L 254.608963 254.414194 
L 255.037644 270.812519 
L 255.466325 276.084026 
L 256.323688 260.001662 
L 256.752369 262.817815 
L 257.18105 253.026226 
L 258.038412 275.542454 
L 258.467093 254.101576 
L 258.895775 270.092395 
L 259.324456 255.682894 
L 259.753137 256.005977 
L 260.181818 256.684033 
L 260.610499 245.375982 
L 261.039181 260.436046 
L 261.467862 268.935119 
L 261.896543 257.532098 
L 262.325224 259.57652 
L 263.182586 244.05186 
L 263.611268 271.429368 
L 264.039949 258.44369 
L 264.46863 255.995732 
L 264.897311 252.014857 
L 265.325992 261.905109 
L 265.754673 253.111392 
L 266.183355 253.142268 
L 266.612036 256.288921 
L 267.040717 257.207886 
L 267.469398 244.500045 
L 267.898079 250.940467 
L 268.326761 240.770255 
L 268.755442 258.761022 
L 269.184123 266.759296 
L 269.612804 260.1588 
L 270.041485 256.441404 
L 270.470166 259.400892 
L 270.898848 261.088463 
L 271.327529 270.759998 
L 271.75621 264.861417 
L 272.184891 267.643457 
L 272.613572 256.793904 
L 273.042254 256.942995 
L 273.470935 247.83118 
L 273.899616 263.316946 
L 274.328297 253.593798 
L 274.756978 265.592865 
L 275.185659 274.47463 
L 275.614341 259.445269 
L 276.043022 267.724031 
L 276.471703 270.903048 
L 276.900384 270.955383 
L 277.329065 256.852044 
L 277.757746 253.703364 
L 278.186428 258.981017 
L 279.04379 279.119236 
L 279.472471 267.642648 
L 279.901152 261.32941 
L 280.329834 264.392839 
L 280.758515 269.454399 
L 281.187196 271.081262 
L 281.615877 280.532191 
L 282.044558 271.129275 
L 282.473239 275.177428 
L 282.901921 276.031782 
L 283.330602 279.162843 
L 283.759283 287.80958 
L 284.187964 284.269941 
L 284.616645 274.379231 
L 285.045327 281.226974 
L 285.474008 282.449246 
L 285.902689 285.098192 
L 286.33137 273.419439 
L 286.760051 285.557194 
L 287.188732 284.769392 
L 287.617414 286.639973 
L 288.046095 296.63535 
L 288.474776 290.523977 
L 288.903457 280.755165 
L 289.332138 288.488435 
L 289.760819 304.895512 
L 290.189501 293.723041 
L 290.618182 290.945738 
L 291.046863 297.12872 
L 291.475544 291.342759 
L 292.332907 308.226326 
L 292.761588 295.030584 
L 293.190269 299.85341 
L 293.61895 298.67487 
L 294.047631 295.755135 
L 294.476312 303.58176 
L 294.904994 319.287762 
L 295.333675 306.296228 
L 295.762356 321.434607 
L 296.191037 313.590222 
L 296.619718 302.701265 
L 297.048399 325.15192 
L 297.477081 311.494833 
L 297.905762 318.208497 
L 298.334443 316.709396 
L 298.763124 307.418036 
L 299.191805 312.526173 
L 299.620487 306.723916 
L 300.049168 327.094806 
L 300.477849 325.866613 
L 300.90653 325.817181 
L 301.335211 321.652579 
L 301.763892 329.476876 
L 302.192574 328.82838 
L 302.621255 330.858475 
L 303.049936 318.966094 
L 303.478617 320.157739 
L 303.907298 317.933514 
L 304.33598 304.640223 
L 304.764661 328.105639 
L 305.193342 321.819987 
L 305.622023 301.748122 
L 306.050704 324.048674 
L 306.479385 329.674656 
L 306.908067 337.470057 
L 307.336748 334.579396 
L 307.765429 344.234963 
L 308.19411 343.771806 
L 308.622791 334.852323 
L 309.051472 329.457807 
L 309.480154 332.078652 
L 309.908835 335.885988 
L 310.337516 347.673091 
L 310.766197 328.095774 
L 311.194878 329.96289 
L 311.62356 320.921701 
L 312.052241 348.976235 
L 312.480922 336.567378 
L 312.909603 320.376659 
L 313.338284 333.592823 
L 313.766965 323.509043 
L 314.195647 330.056294 
L 314.624328 333.586759 
L 315.053009 327.33919 
L 315.48169 349.068326 
L 315.910371 337.279097 
L 316.767734 323.556581 
L 317.625096 332.388945 
L 318.053777 324.564955 
L 318.91114 342.018001 
L 319.339821 333.031658 
L 319.768502 333.786742 
L 320.197183 329.120506 
L 320.625864 334.725041 
L 321.054545 325.988317 
L 321.483227 314.21763 
L 321.911908 344.647809 
L 322.340589 325.020945 
L 322.76927 334.935108 
L 323.197951 333.590666 
L 323.626633 342.487047 
L 324.055314 329.351827 
L 324.483995 323.911115 
L 324.912676 337.333458 
L 325.341357 309.611268 
L 325.770038 330.488984 
L 326.19872 341.887206 
L 327.056082 303.109899 
L 327.484763 308.309269 
L 327.913444 309.983242 
L 328.342125 312.993914 
L 328.770807 314.69106 
L 330.05685 333.299414 
L 330.485531 323.911505 
L 330.914213 327.722014 
L 331.342894 320.295666 
L 331.771575 305.461058 
L 332.200256 317.308437 
L 332.628937 321.445425 
L 333.057618 315.783377 
L 333.4863 320.62765 
L 333.914981 299.252971 
L 334.343662 316.575069 
L 334.772343 304.520028 
L 336.058387 284.557124 
L 336.487068 312.634959 
L 336.915749 289.872324 
L 337.34443 300.506807 
L 337.773111 296.242073 
L 338.201793 281.930219 
L 338.630474 297.142659 
L 339.059155 285.558132 
L 339.487836 290.483404 
L 339.916517 292.38681 
L 340.345198 275.865802 
L 340.77388 287.697525 
L 341.202561 286.318497 
L 341.631242 277.74787 
L 342.059923 274.711406 
L 342.488604 288.174121 
L 342.917286 270.294729 
L 343.345967 283.315134 
L 343.774648 284.053187 
L 344.203329 294.387499 
L 344.63201 275.583935 
L 345.060691 270.620889 
L 345.489373 277.588254 
L 345.918054 260.714917 
L 346.775416 267.42281 
L 347.204097 252.517463 
L 347.632778 277.861647 
L 348.06146 262.335778 
L 348.490141 256.669894 
L 348.918822 270.271832 
L 349.347503 263.202945 
L 349.776184 260.459134 
L 350.204866 262.46338 
L 350.633547 257.236182 
L 351.062228 257.952644 
L 351.490909 262.3133 
L 351.91959 248.494383 
L 352.348271 258.19695 
L 352.776953 257.589498 
L 353.634315 237.020046 
L 354.062996 263.793457 
L 354.491677 247.160923 
L 354.920359 244.66381 
L 355.34904 246.740592 
L 355.777721 225.593227 
L 356.206402 235.216472 
L 356.635083 248.782198 
L 357.063764 248.733544 
L 357.492446 235.642014 
L 357.921127 234.170146 
L 358.349808 235.782523 
L 358.778489 245.730647 
L 359.20717 235.917755 
L 359.635851 240.243524 
L 360.064533 224.208683 
L 360.493214 245.342919 
L 360.921895 237.699477 
L 361.350576 245.684266 
L 361.779257 244.873993 
L 362.207939 236.527623 
L 363.065301 239.778364 
L 363.493982 223.005465 
L 363.922663 234.41638 
L 364.351344 224.260066 
L 364.780026 242.450736 
L 365.208707 236.331099 
L 365.637388 245.429959 
L 366.066069 222.459482 
L 366.49475 241.756725 
L 366.923431 221.970402 
L 367.352113 241.677014 
L 367.780794 234.454423 
L 368.209475 256.751564 
L 368.638156 235.706471 
L 369.066837 233.67074 
L 369.495519 249.271247 
L 369.9242 236.314557 
L 370.352881 236.941502 
L 370.781562 249.099305 
L 371.210243 227.358609 
L 371.638924 244.536879 
L 372.496287 230.869828 
L 372.924968 239.944238 
L 373.353649 230.127166 
L 373.78233 235.456236 
L 374.211012 224.979039 
L 374.639693 242.67838 
L 375.068374 247.1504 
L 375.497055 235.472452 
L 375.925736 240.445066 
L 376.354417 241.810157 
L 376.783099 236.045577 
L 377.21178 236.750976 
L 377.640461 241.125259 
L 378.069142 236.846706 
L 378.497823 236.57214 
L 378.926504 236.646024 
L 379.355186 236.31761 
L 379.783867 234.440259 
L 380.212548 246.686295 
L 380.641229 249.917407 
L 381.06991 257.046621 
L 381.498592 249.94789 
L 381.927273 256.330787 
L 382.355954 246.475495 
L 382.784635 252.260429 
L 383.641997 260.337423 
L 384.070679 252.956573 
L 384.928041 265.467047 
L 385.356722 267.66334 
L 385.785403 248.522435 
L 386.214085 263.793781 
L 386.642766 265.495379 
L 387.071447 262.754027 
L 387.500128 266.067456 
L 388.35749 266.068265 
L 388.786172 269.461777 
L 389.214853 274.469422 
L 389.643534 261.042572 
L 390.072215 268.727485 
L 390.500896 280.517702 
L 390.929577 263.56395 
L 391.358259 285.070137 
L 391.78694 275.428492 
L 392.215621 275.608777 
L 392.644302 281.919739 
L 393.072983 273.178905 
L 393.501665 288.646343 
L 393.930346 265.477778 
L 394.359027 275.797244 
L 394.787708 266.190566 
L 395.216389 275.728711 
L 395.64507 295.495549 
L 396.073752 277.827665 
L 396.502433 280.474354 
L 396.931114 276.886948 
L 397.359795 277.530853 
L 397.788476 283.499956 
L 398.217157 283.12363 
L 398.645839 293.844431 
L 399.07452 277.475216 
L 399.503201 305.299732 
L 399.931882 307.196704 
L 400.360563 303.421337 
L 400.789245 286.700112 
L 401.217926 303.792971 
L 401.646607 298.88863 
L 402.075288 296.025713 
L 402.503969 301.431841 
L 402.93265 315.112477 
L 403.361332 289.856223 
L 403.790013 300.638627 
L 404.218694 296.551824 
L 405.076056 306.557191 
L 405.933419 297.175409 
L 406.3621 316.464248 
L 406.790781 314.307601 
L 407.219462 295.211009 
L 407.648143 313.504659 
L 408.076825 306.686056 
L 408.505506 318.803972 
L 408.934187 302.351338 
L 409.362868 303.591374 
L 409.791549 310.984146 
L 410.22023 296.786801 
L 410.648912 313.748238 
L 411.077593 312.367973 
L 411.506274 301.541346 
L 411.934955 307.012222 
L 412.363636 304.145674 
L 412.792318 299.476574 
L 413.220999 309.504997 
L 413.64968 306.449026 
L 414.078361 316.963251 
L 414.507042 308.232387 
L 414.935723 314.539951 
L 415.364405 301.900721 
L 415.793086 312.556047 
L 416.221767 311.942765 
L 416.650448 312.191304 
L 417.079129 328.424608 
L 417.50781 319.986341 
L 417.936492 296.160945 
L 418.365173 306.09577 
L 418.793854 311.264157 
L 419.222535 312.642989 
L 419.651216 312.431178 
L 420.079898 307.338157 
L 420.508579 74.584085 
L 420.93726 74.584085 
L 421.365941 310.987331 
L 421.794622 319.529255 
L 422.651985 304.491859 
L 423.080666 319.687283 
L 423.509347 299.392937 
L 423.938028 297.571841 
L 424.366709 306.529946 
L 424.795391 303.690123 
L 425.224072 294.45081 
L 425.652753 309.232585 
L 426.081434 311.379179 
L 426.510115 312.39014 
L 426.938796 310.229975 
L 427.367478 307.347578 
L 427.796159 297.86749 
L 428.22484 307.597523 
L 428.653521 301.388698 
L 429.082202 297.082689 
L 429.510883 307.764059 
L 429.939565 285.13682 
L 430.368246 285.092584 
L 430.796927 309.095385 
L 431.225608 297.523349 
L 431.654289 295.633869 
L 432.082971 290.26464 
L 432.511652 299.986555 
L 432.940333 292.538427 
L 433.369014 282.165071 
L 433.797695 279.402562 
L 434.226376 284.401157 
L 434.655058 282.411725 
L 435.083739 289.160893 
L 435.51242 286.368234 
L 435.941101 272.327874 
L 436.369782 279.938875 
L 436.798464 284.737593 
L 437.227145 264.952304 
L 437.655826 281.530111 
L 438.084507 266.551857 
L 438.513188 269.715485 
L 438.941869 270.089668 
L 439.370551 274.370627 
L 439.799232 263.511944 
L 440.227913 282.520954 
L 441.513956 264.282418 
L 441.942638 263.435629 
L 442.371319 265.277552 
L 442.8 264.041195 
L 443.228681 256.64304 
L 443.657362 264.439445 
L 444.086044 275.410754 
L 444.514725 256.538109 
L 444.943406 248.375161 
L 445.372087 246.164871 
L 445.800768 255.099676 
L 446.229449 251.99062 
L 446.658131 238.12547 
L 447.086812 254.165144 
L 447.944174 242.64906 
L 448.372855 250.495905 
L 448.801536 247.835657 
L 449.230218 238.370949 
L 449.658899 247.537272 
L 450.08758 236.910288 
L 450.516261 249.01551 
L 450.944942 254.450884 
L 451.373624 232.170912 
L 451.802305 237.094884 
L 452.230986 238.423196 
L 452.659667 238.042342 
L 453.088348 224.842607 
L 453.517029 240.463561 
L 453.945711 223.04226 
L 454.374392 238.070271 
L 454.803073 229.864073 
L 455.231754 229.521979 
L 455.660435 222.26312 
L 456.089117 240.194896 
L 456.517798 227.114813 
L 456.946479 225.302637 
L 457.803841 213.530373 
L 458.232522 229.613112 
L 458.661204 218.348689 
L 459.089885 216.638004 
L 459.518566 210.022555 
L 459.947247 219.538095 
L 460.375928 208.970102 
L 460.804609 216.839842 
L 461.233291 219.29812 
L 461.661972 212.249336 
L 462.090653 213.540005 
L 462.519334 212.211755 
L 462.948015 206.751064 
L 463.376697 216.644643 
L 464.234059 215.161462 
L 464.66274 204.562302 
L 465.091421 197.188183 
L 465.520102 204.789289 
L 465.948784 203.923266 
L 466.377465 197.823909 
L 466.806146 216.381887 
L 467.234827 223.408887 
L 467.663508 220.37517 
L 468.09219 209.315137 
L 468.520871 211.083425 
L 468.949552 232.99634 
L 469.378233 201.691318 
L 469.806914 212.968123 
L 470.235595 211.701626 
L 470.664277 208.05948 
L 471.092958 221.923534 
L 471.521639 217.224891 
L 471.95032 203.432824 
L 472.379001 196.100285 
L 472.807682 206.633092 
L 473.236364 206.483242 
L 473.665045 226.388428 
L 474.093726 204.56565 
L 474.522407 204.345322 
L 474.951088 216.570982 
L 475.37977 212.621923 
L 475.808451 207.155805 
L 476.237132 197.761698 
L 476.665813 224.410897 
L 477.094494 207.771722 
L 477.523175 205.526051 
L 477.951857 209.80199 
L 478.809219 219.568681 
L 479.2379 217.674345 
L 479.666581 212.70064 
L 480.095262 229.003283 
L 480.523944 230.876636 
L 480.952625 227.518853 
L 481.381306 233.994138 
L 481.809987 236.743932 
L 482.238668 213.101225 
L 482.66735 232.359836 
L 483.096031 229.87401 
L 483.524712 235.790336 
L 483.953393 223.459929 
L 484.382074 224.23631 
L 484.810755 219.857067 
L 485.239437 234.022048 
L 485.668118 221.311993 
L 486.096799 231.126983 
L 486.52548 243.623214 
L 486.954161 224.957419 
L 487.382843 223.055726 
L 487.811524 229.772819 
L 488.668886 249.046446 
L 489.097567 239.006747 
L 489.526248 251.150324 
L 489.95493 255.965284 
L 490.383611 236.840139 
L 490.812292 245.956392 
L 491.240973 247.835391 
L 491.669654 250.878008 
L 492.098335 236.255798 
L 492.527017 260.604212 
L 493.384379 245.537336 
L 493.81306 248.841748 
L 494.241741 257.197614 
L 494.670423 253.849242 
L 495.099104 255.984686 
L 495.527785 242.028201 
L 495.956466 255.78392 
L 496.385147 262.933985 
L 496.813828 249.238808 
L 497.24251 270.021406 
L 497.671191 256.561063 
L 498.099872 252.055037 
L 498.528553 272.313357 
L 498.957234 261.396799 
L 499.385915 257.392227 
L 499.814597 257.0659 
L 500.671959 252.627879 
L 501.10064 267.374477 
L 501.529321 276.730123 
L 501.958003 276.947743 
L 502.386684 266.230704 
L 502.815365 285.327513 
L 503.244046 269.595704 
L 503.672727 283.742971 
L 504.101408 282.757114 
L 504.53009 273.433338 
L 504.958771 281.72038 
L 505.387452 284.432049 
L 505.816133 283.886813 
L 506.244814 267.959919 
L 506.673496 291.047636 
L 507.102177 279.885284 
L 507.530858 285.186685 
L 507.959539 258.354352 
L 508.38822 284.006339 
L 508.816901 268.762293 
L 509.245583 277.011595 
L 509.674264 297.058735 
L 510.102945 280.897362 
L 510.531626 279.95405 
L 510.960307 285.81194 
L 511.388988 302.117981 
L 511.81767 268.884334 
L 512.246351 288.789398 
L 512.675032 298.885857 
L 513.103713 277.975073 
L 513.532394 290.273508 
L 513.961076 286.599957 
L 514.818438 303.393316 
L 515.247119 290.561693 
L 515.6758 283.351541 
L 516.104481 289.634431 
L 516.533163 289.370056 
L 517.390525 286.487521 
L 517.819206 291.780618 
L 518.247887 292.082641 
L 518.676569 295.470394 
L 519.10525 300.573857 
L 519.533931 300.927071 
L 519.962612 295.513587 
L 520.391293 294.972605 
L 520.819974 291.933027 
L 521.248656 66.96 
L 521.677337 66.96 
L 522.106018 275.933209 
L 522.534699 284.620616 
L 522.96338 285.132491 
L 523.392061 287.016483 
L 523.820743 293.741618 
L 524.249424 290.662039 
L 524.678105 288.393951 
L 525.106786 284.187633 
L 525.535467 284.615638 
L 525.964149 269.267614 
L 526.39283 285.868124 
L 526.821511 288.50453 
L 527.250192 294.973813 
L 527.678873 289.16183 
L 528.107554 259.594852 
L 528.536236 277.228958 
L 528.964917 271.597234 
L 529.393598 276.416194 
L 529.822279 275.828887 
L 530.25096 277.73449 
L 531.108323 263.049431 
L 531.537004 266.481938 
L 531.965685 274.546397 
L 532.394366 270.948722 
L 532.823047 282.434641 
L 533.251729 260.67625 
L 533.68041 254.234158 
L 534.109091 279.849586 
L 534.537772 266.812875 
L 534.966453 272.64327 
L 535.395134 274.087716 
L 535.823816 254.798677 
L 536.252497 252.880975 
L 536.681178 244.811865 
L 537.109859 255.917808 
L 537.53854 273.370342 
L 537.967222 253.643846 
L 538.395903 261.93115 
L 539.253265 251.994997 
L 539.681946 252.140389 
L 540.110627 245.096883 
L 540.539309 255.473011 
L 540.96799 254.395455 
L 541.825352 239.397043 
L 542.254033 248.309256 
L 542.682714 249.25302 
L 543.111396 250.71068 
L 543.540077 247.350856 
L 543.968758 242.321906 
L 544.397439 248.114133 
L 544.82612 231.940627 
L 545.254802 252.69362 
L 545.683483 236.159642 
L 546.112164 245.233483 
L 546.540845 222.622109 
L 546.969526 235.205089 
L 547.398207 220.793431 
L 547.826889 231.951279 
L 548.25557 229.042177 
L 548.684251 234.278589 
L 549.112932 249.5775 
L 549.541613 210.435698 
L 549.970294 233.73815 
L 550.398976 200.648876 
L 550.827657 217.415994 
L 551.256338 223.3828 
L 551.685019 212.077554 
L 552.1137 209.467736 
L 552.542382 217.219348 
L 552.971063 213.178394 
L 553.399744 198.383835 
L 553.828425 223.347149 
L 554.257106 211.400142 
L 554.685787 203.585707 
L 555.114469 220.259265 
L 555.54315 222.259627 
L 555.971831 196.051892 
L 556.400512 211.936179 
L 556.829193 213.307911 
L 557.257875 204.349648 
L 557.686556 207.598513 
L 558.115237 206.751669 
L 558.543918 212.796798 
L 558.972599 207.857005 
L 559.40128 192.96918 
L 559.829962 194.976654 
L 560.258643 203.337902 
L 560.687324 178.121341 
L 561.116005 184.910421 
L 561.544686 202.033398 
L 561.973367 196.241093 
L 562.402049 220.787005 
L 562.83073 186.566162 
L 563.259411 189.190331 
L 563.688092 197.130518 
L 564.545455 191.463592 
L 564.974136 183.549642 
L 565.402817 199.069886 
L 565.831498 182.354944 
L 566.260179 184.491947 
L 566.68886 195.864842 
L 567.117542 192.231993 
L 567.546223 174.905469 
L 567.974904 190.69485 
L 568.403585 200.382468 
L 568.832266 200.881888 
L 569.260948 189.48959 
L 569.689629 186.908104 
L 570.11831 186.744422 
L 570.546991 190.830373 
L 570.975672 204.539465 
L 571.833035 181.341704 
L 572.261716 207.457482 
L 572.690397 184.044783 
L 573.119078 200.925793 
L 573.547759 191.045102 
L 573.97644 200.748772 
L 574.405122 183.151089 
L 574.833803 194.751519 
L 575.262484 186.911538 
L 575.691165 197.037991 
L 576.548528 203.467048 
L 576.977209 201.044815 
L 577.40589 195.062637 
L 577.834571 181.576884 
L 578.263252 188.615766 
L 578.691933 198.828088 
L 579.120615 192.336002 
L 579.549296 202.861224 
L 579.977977 200.372917 
L 580.406658 194.802304 
L 580.835339 175.196778 
L 581.26402 195.557032 
L 581.692702 197.29395 
L 582.121383 217.285401 
L 582.550064 190.1388 
L 582.978745 190.325995 
L 583.407426 214.142909 
L 583.836108 201.957959 
L 584.264789 209.481083 
L 584.69347 202.663966 
L 585.122151 208.503223 
L 585.550832 197.150278 
L 585.979513 204.529948 
L 586.408195 206.511073 
L 586.836876 205.024589 
L 587.265557 223.661677 
L 587.694238 219.471151 
L 588.122919 200.074087 
L 588.551601 210.497689 
L 588.980282 209.766607 
L 589.408963 225.319555 
L 589.837644 197.656888 
L 590.266325 220.439889 
L 590.695006 213.255551 
L 591.123688 220.311842 
L 591.552369 211.87292 
L 591.98105 227.650291 
L 592.409731 213.531265 
L 592.838412 214.456676 
L 593.267093 229.925118 
L 593.695775 237.966927 
L 594.124456 222.545507 
L 594.553137 245.680885 
L 594.981818 222.087067 
L 595.839181 223.804911 
L 596.267862 233.96106 
L 596.696543 217.680039 
L 597.125224 234.577123 
L 597.553905 242.259807 
L 597.982586 238.664093 
L 598.411268 246.745653 
L 598.839949 247.925047 
L 599.26863 237.090579 
L 599.697311 239.402628 
L 600.125992 245.133822 
L 600.554673 243.59465 
L 600.983355 244.103246 
L 601.412036 246.319237 
L 601.840717 230.668855 
L 602.269398 250.592402 
L 602.698079 241.274854 
L 603.126761 250.482396 
L 603.555442 257.204225 
L 603.984123 257.144008 
L 604.412804 249.258709 
L 604.841485 255.988893 
L 605.270166 251.003771 
L 605.698848 250.39029 
L 606.127529 248.055919 
L 606.55621 262.981146 
L 606.984891 244.62017 
L 607.413572 271.678862 
L 607.842254 272.494671 
L 608.270935 248.684306 
L 608.699616 248.539032 
L 609.128297 268.45131 
L 609.556978 255.839904 
L 609.985659 271.130853 
L 610.414341 248.28215 
L 610.843022 261.133589 
L 611.700384 265.461967 
L 612.129065 273.203658 
L 612.557746 256.909694 
L 612.986428 264.131071 
L 613.415109 260.583001 
L 613.84379 271.439709 
L 614.272471 268.719777 
L 614.701152 263.697224 
L 615.129834 279.957868 
L 615.558515 273.79805 
L 615.987196 271.437211 
L 616.415877 262.087959 
L 616.844558 274.420795 
L 617.273239 275.698692 
L 617.701921 263.735629 
L 618.130602 273.262398 
L 618.559283 259.097265 
L 618.987964 280.813795 
L 619.416645 270.258831 
L 619.845327 273.622357 
L 620.274008 271.271877 
L 620.702689 261.22466 
L 621.13137 261.190685 
L 621.988732 281.504108 
L 622.417414 272.399013 
L 622.846095 255.260688 
L 623.274776 265.826602 
L 623.703457 272.411587 
L 624.989501 249.362731 
L 625.846863 271.198375 
L 626.275544 244.490227 
L 626.704225 261.507438 
L 627.132907 250.253479 
L 627.561588 250.615668 
L 627.990269 276.774131 
L 628.41895 246.623907 
L 628.847631 259.9852 
L 629.276312 265.117865 
L 629.704994 257.067378 
L 630.133675 256.255511 
L 630.562356 255.917111 
L 630.991037 256.499239 
L 631.419718 242.427268 
L 631.848399 245.342976 
L 632.277081 250.030954 
L 632.705762 256.492277 
L 633.134443 240.917223 
L 633.563124 244.411206 
L 633.991805 252.321259 
L 634.420487 251.910819 
L 634.849168 248.911886 
L 635.277849 247.162965 
L 636.135211 236.673676 
L 636.563892 240.918481 
L 636.992574 255.084103 
L 637.421255 237.608229 
L 637.849936 230.462476 
L 638.278617 248.681855 
L 638.707298 252.181474 
L 639.13598 229.497866 
L 639.564661 237.7553 
L 639.993342 229.338978 
L 640.422023 234.156998 
L 640.850704 217.064072 
L 641.708067 223.292958 
L 642.99411 215.675471 
L 643.422791 230.938696 
L 643.851472 209.46332 
L 644.280154 232.320572 
L 644.708835 236.91534 
L 645.137516 219.88916 
L 645.566197 212.040116 
L 645.994878 212.614932 
L 646.42356 209.836649 
L 646.852241 212.406358 
L 647.280922 216.793048 
L 647.709603 209.531372 
L 648.138284 194.927998 
L 648.566965 210.361145 
L 648.995647 202.914139 
L 649.424328 201.684677 
L 649.853009 194.571888 
L 650.28169 211.920124 
L 651.139052 198.393293 
L 651.567734 202.874788 
L 651.996415 196.841325 
L 652.425096 199.1471 
L 653.282458 207.792653 
L 653.71114 187.056812 
L 654.139821 191.648686 
L 654.568502 185.301792 
L 654.997183 208.797929 
L 655.425864 180.689081 
L 656.283227 190.756505 
L 656.711908 181.770336 
L 657.140589 182.833236 
L 657.56927 179.024977 
L 657.997951 178.876445 
L 658.426633 180.8501 
L 658.855314 180.109924 
L 659.283995 185.219432 
L 659.712676 175.823287 
L 660.141357 182.915382 
L 660.570038 167.280451 
L 660.99872 176.148084 
L 661.427401 164.643791 
L 661.856082 178.284503 
L 662.284763 176.383655 
L 662.713444 167.297134 
L 663.142125 164.294969 
L 663.570807 181.844206 
L 663.999488 165.401827 
L 664.428169 162.743883 
L 664.85685 174.530052 
L 665.285531 164.818433 
L 665.714213 175.192412 
L 666.142894 173.759031 
L 666.571575 170.489355 
L 667.000256 174.258566 
L 667.428937 156.457623 
L 667.857618 168.296344 
L 668.2863 171.037903 
L 668.714981 180.486257 
L 669.143662 166.568289 
L 669.572343 173.115011 
L 670.001024 170.01924 
L 670.429706 169.395396 
L 670.858387 179.878214 
L 671.287068 162.632282 
L 671.715749 164.611276 
L 672.14443 162.983552 
L 673.001793 181.253083 
L 673.430474 150.757293 
L 673.859155 155.136738 
L 674.287836 170.251301 
L 674.716517 178.309635 
L 675.145198 168.41331 
L 675.57388 167.49836 
L 676.002561 184.044818 
L 676.431242 169.956254 
L 676.859923 167.334711 
L 677.288604 154.765378 
L 677.717286 177.561811 
L 678.145967 149.730608 
L 679.003329 170.433286 
L 679.43201 173.406478 
L 680.289373 161.243447 
L 680.718054 160.475848 
L 681.575416 179.481848 
L 682.004097 164.994943 
L 682.432778 166.102468 
L 682.86146 179.935103 
L 683.290141 184.365052 
L 683.718822 177.657363 
L 684.147503 174.550509 
L 684.576184 179.987749 
L 685.004866 187.31425 
L 685.433547 186.558135 
L 685.862228 174.013815 
L 686.290909 175.955449 
L 686.71959 179.622292 
L 687.148271 188.483 
L 687.576953 185.3909 
L 688.005634 194.075415 
L 688.434315 178.788771 
L 688.862996 201.302362 
L 689.291677 189.876791 
L 689.720359 190.828157 
L 690.14904 195.015626 
L 690.577721 171.131584 
L 691.006402 174.152331 
L 691.435083 197.073938 
L 691.863764 190.408752 
L 692.292446 192.3826 
L 692.721127 192.492572 
L 693.149808 193.210705 
L 694.00717 216.663437 
L 694.435851 203.965914 
L 694.864533 196.079832 
L 695.293214 207.204953 
L 695.721895 201.030954 
L 696.150576 211.021108 
L 696.579257 204.064584 
L 697.007939 203.081663 
L 697.43662 207.433936 
L 697.865301 217.431267 
L 698.293982 200.816726 
L 699.151344 222.635732 
L 699.580026 218.927065 
L 700.008707 213.740302 
L 700.866069 231.32769 
L 701.723431 219.577248 
L 702.152113 219.157157 
L 702.580794 208.928675 
L 703.009475 227.24052 
L 703.438156 229.947231 
L 703.866837 229.349117 
L 704.295519 216.892649 
L 704.7242 232.674199 
L 705.152881 227.698467 
L 705.581562 210.840023 
L 706.010243 238.714853 
L 706.867606 233.839054 
L 707.296287 243.934519 
L 707.724968 230.267745 
L 708.153649 249.33017 
L 708.58233 236.600559 
L 709.011012 241.224301 
L 709.439693 240.690445 
L 709.868374 226.604844 
L 710.297055 230.750408 
L 710.725736 222.844589 
L 712.01178 243.925902 
L 712.440461 237.610395 
L 712.869142 237.652813 
L 713.297823 242.768117 
L 713.726504 252.856727 
L 714.155186 235.538941 
L 714.583867 248.39211 
L 715.012548 252.340521 
L 715.441229 242.266902 
L 715.86991 246.234599 
L 716.298592 235.589092 
L 716.727273 246.875928 
L 717.155954 234.783429 
L 717.584635 241.648621 
L 718.013316 242.558277 
L 718.441997 246.145471 
L 718.870679 234.898081 
L 719.29936 248.22739 
L 719.728041 249.951667 
L 720.156722 243.003582 
L 720.585403 243.079471 
L 721.014085 228.643372 
L 721.442766 245.076463 
L 721.871447 238.090711 
L 722.300128 244.771956 
L 722.728809 231.965354 
L 723.15749 239.546313 
L 723.586172 238.67611 
L 724.014853 241.346456 
L 724.443534 250.700566 
L 724.872215 247.947595 
L 725.300896 238.255301 
L 725.729577 250.65616 
L 726.158259 232.102889 
L 726.58694 251.900373 
L 727.015621 250.580241 
L 727.444302 249.769875 
L 728.301665 230.757868 
L 728.730346 251.48588 
L 729.159027 241.60668 
L 729.587708 237.132346 
L 730.016389 249.775931 
L 730.44507 238.445981 
L 730.873752 237.246007 
L 731.302433 226.589892 
L 731.731114 228.800951 
L 732.159795 243.860628 
L 732.588476 241.682378 
L 733.017157 237.700935 
L 733.445839 247.782852 
L 733.87452 239.320232 
L 734.303201 222.582192 
L 734.731882 231.361781 
L 735.160563 221.089043 
L 735.589245 219.76263 
L 736.017926 231.237228 
L 736.446607 227.827689 
L 736.875288 207.818705 
L 737.303969 224.826601 
L 737.73265 219.199326 
L 738.161332 210.678602 
L 738.590013 219.739682 
L 739.018694 216.440184 
L 739.447375 226.431204 
L 739.876056 199.251573 
L 740.304738 220.343497 
L 740.733419 222.423127 
L 741.1621 216.342371 
L 741.590781 196.495406 
L 742.019462 223.585992 
L 742.448143 209.804022 
L 742.876825 216.780978 
L 743.305506 213.903717 
L 743.734187 204.172445 
L 744.162868 199.311699 
L 744.591549 188.474405 
L 745.02023 203.764627 
L 745.448912 195.821415 
L 745.877593 220.238333 
L 746.306274 195.615859 
L 746.734955 182.266327 
L 747.163636 190.133174 
L 747.163636 190.133174 
" style="fill:none;stroke:#1f77b4;stroke-linecap:square;stroke-width:1.5;"/>
   </g>
   <g id="line2d_15">
    <path clip-path="url(#p0a88556a2e)" d="M 747.163636 384.48 
L 747.163636 51.84 
" style="fill:none;stroke:#808080;stroke-linecap:square;"/>
   </g>
   <g id="patch_88">
    <path d="M 108 384.48 
L 108 51.84 
" style="fill:none;stroke:#000000;stroke-linecap:square;stroke-linejoin:miter;stroke-width:0.8;"/>
   </g>
   <g id="patch_89">
    <path d="M 777.6 384.48 
L 777.6 51.84 
" style="fill:none;stroke:#000000;stroke-linecap:square;stroke-linejoin:miter;stroke-width:0.8;"/>
   </g>
   <g id="patch_90">
    <path d="M 108 384.48 
L 777.6 384.48 
" style="fill:none;stroke:#000000;stroke-linecap:square;stroke-linejoin:miter;stroke-width:0.8;"/>
   </g>
   <g id="patch_91">
    <path d="M 108 51.84 
L 777.6 51.84 
" style="fill:none;stroke:#000000;stroke-linecap:square;stroke-linejoin:miter;stroke-width:0.8;"/>
   </g>
   <g id="text_16">
    <!-- synthetic_85.csv -->
    <defs>
     <path d="M 32.171875 -5.078125 
Q 28.375 -14.84375 24.75 -17.8125 
Q 21.140625 -20.796875 15.09375 -20.796875 
L 7.90625 -20.796875 
L 7.90625 -13.28125 
L 13.1875 -13.28125 
Q 16.890625 -13.28125 18.9375 -11.515625 
Q 21 -9.765625 23.484375 -3.21875 
L 25.09375 0.875 
L 2.984375 54.6875 
L 12.5 54.6875 
L 29.59375 11.921875 
L 46.6875 54.6875 
L 56.203125 54.6875 
z
" id="DejaVuSans-121"/>
     <path d="M 54.890625 33.015625 
L 54.890625 0 
L 45.90625 0 
L 45.90625 32.71875 
Q 45.90625 40.484375 42.875 44.328125 
Q 39.84375 48.1875 33.796875 48.1875 
Q 26.515625 48.1875 22.3125 43.546875 
Q 18.109375 38.921875 18.109375 30.90625 
L 18.109375 0 
L 9.078125 0 
L 9.078125 54.6875 
L 18.109375 54.6875 
L 18.109375 46.1875 
Q 21.34375 51.125 25.703125 53.5625 
Q 30.078125 56 35.796875 56 
Q 45.21875 56 50.046875 50.171875 
Q 54.890625 44.34375 54.890625 33.015625 
z
" id="DejaVuSans-110"/>
     <path d="M 54.890625 33.015625 
L 54.890625 0 
L 45.90625 0 
L 45.90625 32.71875 
Q 45.90625 40.484375 42.875 44.328125 
Q 39.84375 48.1875 33.796875 48.1875 
Q 26.515625 48.1875 22.3125 43.546875 
Q 18.109375 38.921875 18.109375 30.90625 
L 18.109375 0 
L 9.078125 0 
L 9.078125 75.984375 
L 18.109375 75.984375 
L 18.109375 46.1875 
Q 21.34375 51.125 25.703125 53.5625 
Q 30.078125 56 35.796875 56 
Q 45.21875 56 50.046875 50.171875 
Q 54.890625 44.34375 54.890625 33.015625 
z
" id="DejaVuSans-104"/>
     <path d="M 48.78125 52.59375 
L 48.78125 44.1875 
Q 44.96875 46.296875 41.140625 47.34375 
Q 37.3125 48.390625 33.40625 48.390625 
Q 24.65625 48.390625 19.8125 42.84375 
Q 14.984375 37.3125 14.984375 27.296875 
Q 14.984375 17.28125 19.8125 11.734375 
Q 24.65625 6.203125 33.40625 6.203125 
Q 37.3125 6.203125 41.140625 7.25 
Q 44.96875 8.296875 48.78125 10.40625 
L 48.78125 2.09375 
Q 45.015625 0.34375 40.984375 -0.53125 
Q 36.96875 -1.421875 32.421875 -1.421875 
Q 20.0625 -1.421875 12.78125 6.34375 
Q 5.515625 14.109375 5.515625 27.296875 
Q 5.515625 40.671875 12.859375 48.328125 
Q 20.21875 56 33.015625 56 
Q 37.15625 56 41.109375 55.140625 
Q 45.0625 54.296875 48.78125 52.59375 
z
" id="DejaVuSans-99"/>
     <path d="M 50.984375 -16.609375 
L 50.984375 -23.578125 
L -0.984375 -23.578125 
L -0.984375 -16.609375 
z
" id="DejaVuSans-95"/>
     <path d="M 10.796875 72.90625 
L 49.515625 72.90625 
L 49.515625 64.59375 
L 19.828125 64.59375 
L 19.828125 46.734375 
Q 21.96875 47.46875 24.109375 47.828125 
Q 26.265625 48.1875 28.421875 48.1875 
Q 40.625 48.1875 47.75 41.5 
Q 54.890625 34.8125 54.890625 23.390625 
Q 54.890625 11.625 47.5625 5.09375 
Q 40.234375 -1.421875 26.90625 -1.421875 
Q 22.3125 -1.421875 17.546875 -0.640625 
Q 12.796875 0.140625 7.71875 1.703125 
L 7.71875 11.625 
Q 12.109375 9.234375 16.796875 8.0625 
Q 21.484375 6.890625 26.703125 6.890625 
Q 35.15625 6.890625 40.078125 11.328125 
Q 45.015625 15.765625 45.015625 23.390625 
Q 45.015625 31 40.078125 35.4375 
Q 35.15625 39.890625 26.703125 39.890625 
Q 22.75 39.890625 18.8125 39.015625 
Q 14.890625 38.140625 10.796875 36.28125 
z
" id="DejaVuSans-53"/>
     <path d="M 10.6875 12.40625 
L 21 12.40625 
L 21 0 
L 10.6875 0 
z
" id="DejaVuSans-46"/>
     <path d="M 2.984375 54.6875 
L 12.5 54.6875 
L 29.59375 8.796875 
L 46.6875 54.6875 
L 56.203125 54.6875 
L 35.6875 0 
L 23.484375 0 
z
" id="DejaVuSans-118"/>
    </defs>
    <g transform="translate(392.638125 45.84)scale(0.12 -0.12)">
     <use xlink:href="#DejaVuSans-115"/>
     <use x="52.099609" xlink:href="#DejaVuSans-121"/>
     <use x="111.279297" xlink:href="#DejaVuSans-110"/>
     <use x="174.658203" xlink:href="#DejaVuSans-116"/>
     <use x="213.867188" xlink:href="#DejaVuSans-104"/>
     <use x="277.246094" xlink:href="#DejaVuSans-101"/>
     <use x="338.769531" xlink:href="#DejaVuSans-116"/>
     <use x="377.978516" xlink:href="#DejaVuSans-105"/>
     <use x="405.761719" xlink:href="#DejaVuSans-99"/>
     <use x="460.742188" xlink:href="#DejaVuSans-95"/>
     <use x="510.742188" xlink:href="#DejaVuSans-56"/>
     <use x="574.365234" xlink:href="#DejaVuSans-53"/>
     <use x="637.988281" xlink:href="#DejaVuSans-46"/>
     <use x="669.775391" xlink:href="#DejaVuSans-99"/>
     <use x="724.755859" xlink:href="#DejaVuSans-115"/>
     <use x="776.855469" xlink:href="#DejaVuSans-118"/>
    </g>
   </g>
   <g id="legend_1">
    <g id="patch_92">
     <path d="M 711.284375 74.518125 
L 770.6 74.518125 
Q 772.6 74.518125 772.6 72.518125 
L 772.6 58.84 
Q 772.6 56.84 770.6 56.84 
L 711.284375 56.84 
Q 709.284375 56.84 709.284375 58.84 
L 709.284375 72.518125 
Q 709.284375 74.518125 711.284375 74.518125 
z
" style="fill:#ffffff;opacity:0.8;stroke:#cccccc;stroke-linejoin:miter;"/>
    </g>
    <g id="line2d_16">
     <path d="M 713.284375 64.938438 
L 733.284375 64.938438 
" style="fill:none;stroke:#1f77b4;stroke-linecap:square;stroke-width:1.5;"/>
    </g>
    <g id="line2d_17"/>
    <g id="text_17">
     <!-- value -->
     <g transform="translate(741.284375 68.438438)scale(0.1 -0.1)">
      <use xlink:href="#DejaVuSans-118"/>
      <use x="59.179688" xlink:href="#DejaVuSans-97"/>
      <use x="120.458984" xlink:href="#DejaVuSans-108"/>
      <use x="148.242188" xlink:href="#DejaVuSans-117"/>
      <use x="211.621094" xlink:href="#DejaVuSans-101"/>
     </g>
    </g>
   </g>
  </g>
 </g>
 <defs>
  <clipPath id="p0a88556a2e">
   <rect height="332.64" width="669.6" x="108" y="51.84"/>
  </clipPath>
 </defs>
</svg>
