<?xml version="1.0" encoding="utf-8" standalone="no"?>
<!DOCTYPE svg PUBLIC "-//W3C//DTD SVG 1.1//EN"
  "http://www.w3.org/Graphics/SVG/1.1/DTD/svg11.dtd">
<!-- Created with matplotlib (https://matplotlib.org/) -->
<svg height="432pt" version="1.1" viewBox="0 0 864 432" width="864pt" xmlns="http://www.w3.org/2000/svg" xmlns:xlink="http://www.w3.org/1999/xlink">
 <defs>
  <style type="text/css">
*{stroke-linecap:butt;stroke-linejoin:round;}
  </style>
 </defs>
 <g id="figure_1">
  <g id="patch_1">
   <path d="M 0 432 
L 864 432 
L 864 0 
L 0 0 
z
" style="fill:#ffffff;"/>
  </g>
  <g id="axes_1">
   <g id="patch_2">
    <path d="M 108 384.48 
L 777.6 384.48 
L 777.6 51.84 
L 108 51.84 
z
" style="fill:#ffffff;"/>
   </g>
   <g id="patch_3">
    <path clip-path="url(#p340202f12f)" d="M 138.436364 384.48 
L 138.436364 51.84 
L 372.281174 51.84 
L 372.281174 384.48 
z
" style="fill:#0000ff;opacity:0.05;"/>
   </g>
   <g id="patch_4">
    <path clip-path="url(#p340202f12f)" d="M 372.281174 384.48 
L 372.281174 51.84 
L 737.663691 51.84 
L 737.663691 384.48 
z
" style="fill:#ff0000;opacity:0.08;"/>
   </g>
   <g id="patch_5">
    <path clip-path="url(#p340202f12f)" d="M 138.436364 384.48 
L 138.436364 51.84 
L 153.051664 51.84 
L 153.051664 384.48 
z
" style="fill:#008000;opacity:0.04;"/>
   </g>
   <g id="patch_6">
    <path clip-path="url(#p340202f12f)" d="M 138.436364 384.48 
L 138.436364 371.1744 
L 153.051664 371.1744 
L 153.051664 384.48 
z
" style="fill:#ffe500;"/>
   </g>
   <g id="patch_7">
    <path clip-path="url(#p340202f12f)" d="M 167.666965 384.48 
L 167.666965 51.84 
L 182.282266 51.84 
L 182.282266 384.48 
z
" style="fill:#008000;opacity:0.04;"/>
   </g>
   <g id="patch_8">
    <path clip-path="url(#p340202f12f)" d="M 196.897566 384.48 
L 196.897566 51.84 
L 211.512867 51.84 
L 211.512867 384.48 
z
" style="fill:#008000;opacity:0.04;"/>
   </g>
   <g id="patch_9">
    <path clip-path="url(#p340202f12f)" d="M 226.128168 384.48 
L 226.128168 51.84 
L 240.743468 51.84 
L 240.743468 384.48 
z
" style="fill:#008000;opacity:0.04;"/>
   </g>
   <g id="patch_10">
    <path clip-path="url(#p340202f12f)" d="M 255.358769 384.48 
L 255.358769 51.84 
L 269.97407 51.84 
L 269.97407 384.48 
z
" style="fill:#008000;opacity:0.04;"/>
   </g>
   <g id="patch_11">
    <path clip-path="url(#p340202f12f)" d="M 284.58937 384.48 
L 284.58937 51.84 
L 299.204671 51.84 
L 299.204671 384.48 
z
" style="fill:#008000;opacity:0.04;"/>
   </g>
   <g id="patch_12">
    <path clip-path="url(#p340202f12f)" d="M 313.819972 384.48 
L 313.819972 51.84 
L 328.435272 51.84 
L 328.435272 384.48 
z
" style="fill:#008000;opacity:0.04;"/>
   </g>
   <g id="patch_13">
    <path clip-path="url(#p340202f12f)" d="M 343.050573 384.48 
L 343.050573 51.84 
L 357.665874 51.84 
L 357.665874 384.48 
z
" style="fill:#008000;opacity:0.04;"/>
   </g>
   <g id="patch_14">
    <path clip-path="url(#p340202f12f)" d="M 372.281174 384.48 
L 372.281174 51.84 
L 386.896475 51.84 
L 386.896475 384.48 
z
" style="fill:#008000;opacity:0.04;"/>
   </g>
   <g id="patch_15">
    <path clip-path="url(#p340202f12f)" d="M 401.511776 384.48 
L 401.511776 51.84 
L 416.127076 51.84 
L 416.127076 384.48 
z
" style="fill:#008000;opacity:0.04;"/>
   </g>
   <g id="patch_16">
    <path clip-path="url(#p340202f12f)" d="M 430.742377 384.48 
L 430.742377 51.84 
L 445.357678 51.84 
L 445.357678 384.48 
z
" style="fill:#008000;opacity:0.04;"/>
   </g>
   <g id="patch_17">
    <path clip-path="url(#p340202f12f)" d="M 459.972978 384.48 
L 459.972978 51.84 
L 474.588279 51.84 
L 474.588279 384.48 
z
" style="fill:#008000;opacity:0.04;"/>
   </g>
   <g id="patch_18">
    <path clip-path="url(#p340202f12f)" d="M 708.43309 384.48 
L 708.43309 371.1744 
L 723.04839 371.1744 
L 723.04839 384.48 
z
" style="fill:#ff6600;"/>
   </g>
   <g id="patch_19">
    <path clip-path="url(#p340202f12f)" d="M 489.20358 384.48 
L 489.20358 51.84 
L 503.81888 51.84 
L 503.81888 384.48 
z
" style="fill:#008000;opacity:0.04;"/>
   </g>
   <g id="patch_20">
    <path clip-path="url(#p340202f12f)" d="M 518.434181 384.48 
L 518.434181 51.84 
L 533.049482 51.84 
L 533.049482 384.48 
z
" style="fill:#008000;opacity:0.04;"/>
   </g>
   <g id="patch_21">
    <path clip-path="url(#p340202f12f)" d="M 547.664782 384.48 
L 547.664782 51.84 
L 562.280083 51.84 
L 562.280083 384.48 
z
" style="fill:#008000;opacity:0.04;"/>
   </g>
   <g id="patch_22">
    <path clip-path="url(#p340202f12f)" d="M 576.895384 384.48 
L 576.895384 51.84 
L 591.510684 51.84 
L 591.510684 384.48 
z
" style="fill:#008000;opacity:0.04;"/>
   </g>
   <g id="patch_23">
    <path clip-path="url(#p340202f12f)" d="M 606.125985 384.48 
L 606.125985 51.84 
L 620.741286 51.84 
L 620.741286 384.48 
z
" style="fill:#008000;opacity:0.04;"/>
   </g>
   <g id="patch_24">
    <path clip-path="url(#p340202f12f)" d="M 635.356586 384.48 
L 635.356586 51.84 
L 649.971887 51.84 
L 649.971887 384.48 
z
" style="fill:#008000;opacity:0.04;"/>
   </g>
   <g id="patch_25">
    <path clip-path="url(#p340202f12f)" d="M 664.587188 384.48 
L 664.587188 51.84 
L 679.202488 51.84 
L 679.202488 384.48 
z
" style="fill:#008000;opacity:0.04;"/>
   </g>
   <g id="patch_26">
    <path clip-path="url(#p340202f12f)" d="M 679.202488 371.1744 
L 679.202488 51.84 
L 693.817789 51.84 
L 693.817789 371.1744 
z
" style="fill:#008000;opacity:0.5;"/>
   </g>
   <g id="patch_27">
    <path clip-path="url(#p340202f12f)" d="M 693.817789 384.48 
L 693.817789 51.84 
L 708.43309 51.84 
L 708.43309 384.48 
z
" style="fill:#008000;opacity:0.04;"/>
   </g>
   <g id="patch_28">
    <path clip-path="url(#p340202f12f)" d="M 693.817789 371.1744 
L 693.817789 51.84 
L 708.43309 51.84 
L 708.43309 371.1744 
z
" style="fill:#008000;opacity:0.5;"/>
   </g>
   <g id="patch_29">
    <path clip-path="url(#p340202f12f)" d="M 708.43309 371.1744 
L 708.43309 51.84 
L 723.04839 51.84 
L 723.04839 371.1744 
z
" style="fill:#008000;opacity:0.5;"/>
   </g>
   <g id="patch_30">
    <path clip-path="url(#p340202f12f)" d="M 723.04839 384.48 
L 723.04839 51.84 
L 737.663691 51.84 
L 737.663691 384.48 
z
" style="fill:#008000;opacity:0.04;"/>
   </g>
   <g id="patch_31">
    <path clip-path="url(#p340202f12f)" d="M 723.04839 371.1744 
L 723.04839 51.84 
L 737.663691 51.84 
L 737.663691 371.1744 
z
" style="fill:#008000;opacity:0.5;"/>
   </g>
   <g id="matplotlib.axis_1">
    <g id="xtick_1">
     <g id="line2d_1">
      <defs>
       <path d="M 0 0 
L 0 3.5 
" id="m88c87464df" style="stroke:#000000;stroke-width:0.8;"/>
      </defs>
      <g>
       <use style="stroke:#000000;stroke-width:0.8;" x="138.436364" xlink:href="#m88c87464df" y="384.48"/>
      </g>
     </g>
     <g id="text_1">
      <!-- 0 -->
      <defs>
       <path d="M 31.78125 66.40625 
Q 24.171875 66.40625 20.328125 58.90625 
Q 16.5 51.421875 16.5 36.375 
Q 16.5 21.390625 20.328125 13.890625 
Q 24.171875 6.390625 31.78125 6.390625 
Q 39.453125 6.390625 43.28125 13.890625 
Q 47.125 21.390625 47.125 36.375 
Q 47.125 51.421875 43.28125 58.90625 
Q 39.453125 66.40625 31.78125 66.40625 
z
M 31.78125 74.21875 
Q 44.046875 74.21875 50.515625 64.515625 
Q 56.984375 54.828125 56.984375 36.375 
Q 56.984375 17.96875 50.515625 8.265625 
Q 44.046875 -1.421875 31.78125 -1.421875 
Q 19.53125 -1.421875 13.0625 8.265625 
Q 6.59375 17.96875 6.59375 36.375 
Q 6.59375 54.828125 13.0625 64.515625 
Q 19.53125 74.21875 31.78125 74.21875 
z
" id="DejaVuSans-48"/>
      </defs>
      <g transform="translate(135.255114 399.078438)scale(0.1 -0.1)">
       <use xlink:href="#DejaVuSans-48"/>
      </g>
     </g>
    </g>
    <g id="xtick_2">
     <g id="line2d_2">
      <g>
       <use style="stroke:#000000;stroke-width:0.8;" x="260.230536" xlink:href="#m88c87464df" y="384.48"/>
      </g>
     </g>
     <g id="text_2">
      <!-- 500 -->
      <defs>
       <path d="M 10.796875 72.90625 
L 49.515625 72.90625 
L 49.515625 64.59375 
L 19.828125 64.59375 
L 19.828125 46.734375 
Q 21.96875 47.46875 24.109375 47.828125 
Q 26.265625 48.1875 28.421875 48.1875 
Q 40.625 48.1875 47.75 41.5 
Q 54.890625 34.8125 54.890625 23.390625 
Q 54.890625 11.625 47.5625 5.09375 
Q 40.234375 -1.421875 26.90625 -1.421875 
Q 22.3125 -1.421875 17.546875 -0.640625 
Q 12.796875 0.140625 7.71875 1.703125 
L 7.71875 11.625 
Q 12.109375 9.234375 16.796875 8.0625 
Q 21.484375 6.890625 26.703125 6.890625 
Q 35.15625 6.890625 40.078125 11.328125 
Q 45.015625 15.765625 45.015625 23.390625 
Q 45.015625 31 40.078125 35.4375 
Q 35.15625 39.890625 26.703125 39.890625 
Q 22.75 39.890625 18.8125 39.015625 
Q 14.890625 38.140625 10.796875 36.28125 
z
" id="DejaVuSans-53"/>
      </defs>
      <g transform="translate(250.686786 399.078438)scale(0.1 -0.1)">
       <use xlink:href="#DejaVuSans-53"/>
       <use x="63.623047" xlink:href="#DejaVuSans-48"/>
       <use x="127.246094" xlink:href="#DejaVuSans-48"/>
      </g>
     </g>
    </g>
    <g id="xtick_3">
     <g id="line2d_3">
      <g>
       <use style="stroke:#000000;stroke-width:0.8;" x="382.024708" xlink:href="#m88c87464df" y="384.48"/>
      </g>
     </g>
     <g id="text_3">
      <!-- 1000 -->
      <defs>
       <path d="M 12.40625 8.296875 
L 28.515625 8.296875 
L 28.515625 63.921875 
L 10.984375 60.40625 
L 10.984375 69.390625 
L 28.421875 72.90625 
L 38.28125 72.90625 
L 38.28125 8.296875 
L 54.390625 8.296875 
L 54.390625 0 
L 12.40625 0 
z
" id="DejaVuSans-49"/>
      </defs>
      <g transform="translate(369.299708 399.078438)scale(0.1 -0.1)">
       <use xlink:href="#DejaVuSans-49"/>
       <use x="63.623047" xlink:href="#DejaVuSans-48"/>
       <use x="127.246094" xlink:href="#DejaVuSans-48"/>
       <use x="190.869141" xlink:href="#DejaVuSans-48"/>
      </g>
     </g>
    </g>
    <g id="xtick_4">
     <g id="line2d_4">
      <g>
       <use style="stroke:#000000;stroke-width:0.8;" x="503.81888" xlink:href="#m88c87464df" y="384.48"/>
      </g>
     </g>
     <g id="text_4">
      <!-- 1500 -->
      <g transform="translate(491.09388 399.078438)scale(0.1 -0.1)">
       <use xlink:href="#DejaVuSans-49"/>
       <use x="63.623047" xlink:href="#DejaVuSans-53"/>
       <use x="127.246094" xlink:href="#DejaVuSans-48"/>
       <use x="190.869141" xlink:href="#DejaVuSans-48"/>
      </g>
     </g>
    </g>
    <g id="xtick_5">
     <g id="line2d_5">
      <g>
       <use style="stroke:#000000;stroke-width:0.8;" x="625.613052" xlink:href="#m88c87464df" y="384.48"/>
      </g>
     </g>
     <g id="text_5">
      <!-- 2000 -->
      <defs>
       <path d="M 19.1875 8.296875 
L 53.609375 8.296875 
L 53.609375 0 
L 7.328125 0 
L 7.328125 8.296875 
Q 12.9375 14.109375 22.625 23.890625 
Q 32.328125 33.6875 34.8125 36.53125 
Q 39.546875 41.84375 41.421875 45.53125 
Q 43.3125 49.21875 43.3125 52.78125 
Q 43.3125 58.59375 39.234375 62.25 
Q 35.15625 65.921875 28.609375 65.921875 
Q 23.96875 65.921875 18.8125 64.3125 
Q 13.671875 62.703125 7.8125 59.421875 
L 7.8125 69.390625 
Q 13.765625 71.78125 18.9375 73 
Q 24.125 74.21875 28.421875 74.21875 
Q 39.75 74.21875 46.484375 68.546875 
Q 53.21875 62.890625 53.21875 53.421875 
Q 53.21875 48.921875 51.53125 44.890625 
Q 49.859375 40.875 45.40625 35.40625 
Q 44.1875 33.984375 37.640625 27.21875 
Q 31.109375 20.453125 19.1875 8.296875 
z
" id="DejaVuSans-50"/>
      </defs>
      <g transform="translate(612.888052 399.078438)scale(0.1 -0.1)">
       <use xlink:href="#DejaVuSans-50"/>
       <use x="63.623047" xlink:href="#DejaVuSans-48"/>
       <use x="127.246094" xlink:href="#DejaVuSans-48"/>
       <use x="190.869141" xlink:href="#DejaVuSans-48"/>
      </g>
     </g>
    </g>
    <g id="xtick_6">
     <g id="line2d_6">
      <g>
       <use style="stroke:#000000;stroke-width:0.8;" x="747.407225" xlink:href="#m88c87464df" y="384.48"/>
      </g>
     </g>
     <g id="text_6">
      <!-- 2500 -->
      <g transform="translate(734.682225 399.078438)scale(0.1 -0.1)">
       <use xlink:href="#DejaVuSans-50"/>
       <use x="63.623047" xlink:href="#DejaVuSans-53"/>
       <use x="127.246094" xlink:href="#DejaVuSans-48"/>
       <use x="190.869141" xlink:href="#DejaVuSans-48"/>
      </g>
     </g>
    </g>
    <g id="text_7">
     <!-- Timestamp -->
     <defs>
      <path d="M -0.296875 72.90625 
L 61.375 72.90625 
L 61.375 64.59375 
L 35.5 64.59375 
L 35.5 0 
L 25.59375 0 
L 25.59375 64.59375 
L -0.296875 64.59375 
z
" id="DejaVuSans-84"/>
      <path d="M 9.421875 54.6875 
L 18.40625 54.6875 
L 18.40625 0 
L 9.421875 0 
z
M 9.421875 75.984375 
L 18.40625 75.984375 
L 18.40625 64.59375 
L 9.421875 64.59375 
z
" id="DejaVuSans-105"/>
      <path d="M 52 44.1875 
Q 55.375 50.25 60.0625 53.125 
Q 64.75 56 71.09375 56 
Q 79.640625 56 84.28125 50.015625 
Q 88.921875 44.046875 88.921875 33.015625 
L 88.921875 0 
L 79.890625 0 
L 79.890625 32.71875 
Q 79.890625 40.578125 77.09375 44.375 
Q 74.3125 48.1875 68.609375 48.1875 
Q 61.625 48.1875 57.5625 43.546875 
Q 53.515625 38.921875 53.515625 30.90625 
L 53.515625 0 
L 44.484375 0 
L 44.484375 32.71875 
Q 44.484375 40.625 41.703125 44.40625 
Q 38.921875 48.1875 33.109375 48.1875 
Q 26.21875 48.1875 22.15625 43.53125 
Q 18.109375 38.875 18.109375 30.90625 
L 18.109375 0 
L 9.078125 0 
L 9.078125 54.6875 
L 18.109375 54.6875 
L 18.109375 46.1875 
Q 21.1875 51.21875 25.484375 53.609375 
Q 29.78125 56 35.6875 56 
Q 41.65625 56 45.828125 52.96875 
Q 50 49.953125 52 44.1875 
z
" id="DejaVuSans-109"/>
      <path d="M 56.203125 29.59375 
L 56.203125 25.203125 
L 14.890625 25.203125 
Q 15.484375 15.921875 20.484375 11.0625 
Q 25.484375 6.203125 34.421875 6.203125 
Q 39.59375 6.203125 44.453125 7.46875 
Q 49.3125 8.734375 54.109375 11.28125 
L 54.109375 2.78125 
Q 49.265625 0.734375 44.1875 -0.34375 
Q 39.109375 -1.421875 33.890625 -1.421875 
Q 20.796875 -1.421875 13.15625 6.1875 
Q 5.515625 13.8125 5.515625 26.8125 
Q 5.515625 40.234375 12.765625 48.109375 
Q 20.015625 56 32.328125 56 
Q 43.359375 56 49.78125 48.890625 
Q 56.203125 41.796875 56.203125 29.59375 
z
M 47.21875 32.234375 
Q 47.125 39.59375 43.09375 43.984375 
Q 39.0625 48.390625 32.421875 48.390625 
Q 24.90625 48.390625 20.390625 44.140625 
Q 15.875 39.890625 15.1875 32.171875 
z
" id="DejaVuSans-101"/>
      <path d="M 44.28125 53.078125 
L 44.28125 44.578125 
Q 40.484375 46.53125 36.375 47.5 
Q 32.28125 48.484375 27.875 48.484375 
Q 21.1875 48.484375 17.84375 46.4375 
Q 14.5 44.390625 14.5 40.28125 
Q 14.5 37.15625 16.890625 35.375 
Q 19.28125 33.59375 26.515625 31.984375 
L 29.59375 31.296875 
Q 39.15625 29.25 43.1875 25.515625 
Q 47.21875 21.78125 47.21875 15.09375 
Q 47.21875 7.46875 41.1875 3.015625 
Q 35.15625 -1.421875 24.609375 -1.421875 
Q 20.21875 -1.421875 15.453125 -0.5625 
Q 10.6875 0.296875 5.421875 2 
L 5.421875 11.28125 
Q 10.40625 8.6875 15.234375 7.390625 
Q 20.0625 6.109375 24.8125 6.109375 
Q 31.15625 6.109375 34.5625 8.28125 
Q 37.984375 10.453125 37.984375 14.40625 
Q 37.984375 18.0625 35.515625 20.015625 
Q 33.0625 21.96875 24.703125 23.78125 
L 21.578125 24.515625 
Q 13.234375 26.265625 9.515625 29.90625 
Q 5.8125 33.546875 5.8125 39.890625 
Q 5.8125 47.609375 11.28125 51.796875 
Q 16.75 56 26.8125 56 
Q 31.78125 56 36.171875 55.265625 
Q 40.578125 54.546875 44.28125 53.078125 
z
" id="DejaVuSans-115"/>
      <path d="M 18.3125 70.21875 
L 18.3125 54.6875 
L 36.8125 54.6875 
L 36.8125 47.703125 
L 18.3125 47.703125 
L 18.3125 18.015625 
Q 18.3125 11.328125 20.140625 9.421875 
Q 21.96875 7.515625 27.59375 7.515625 
L 36.8125 7.515625 
L 36.8125 0 
L 27.59375 0 
Q 17.1875 0 13.234375 3.875 
Q 9.28125 7.765625 9.28125 18.015625 
L 9.28125 47.703125 
L 2.6875 47.703125 
L 2.6875 54.6875 
L 9.28125 54.6875 
L 9.28125 70.21875 
z
" id="DejaVuSans-116"/>
      <path d="M 34.28125 27.484375 
Q 23.390625 27.484375 19.1875 25 
Q 14.984375 22.515625 14.984375 16.5 
Q 14.984375 11.71875 18.140625 8.90625 
Q 21.296875 6.109375 26.703125 6.109375 
Q 34.1875 6.109375 38.703125 11.40625 
Q 43.21875 16.703125 43.21875 25.484375 
L 43.21875 27.484375 
z
M 52.203125 31.203125 
L 52.203125 0 
L 43.21875 0 
L 43.21875 8.296875 
Q 40.140625 3.328125 35.546875 0.953125 
Q 30.953125 -1.421875 24.3125 -1.421875 
Q 15.921875 -1.421875 10.953125 3.296875 
Q 6 8.015625 6 15.921875 
Q 6 25.140625 12.171875 29.828125 
Q 18.359375 34.515625 30.609375 34.515625 
L 43.21875 34.515625 
L 43.21875 35.40625 
Q 43.21875 41.609375 39.140625 45 
Q 35.0625 48.390625 27.6875 48.390625 
Q 23 48.390625 18.546875 47.265625 
Q 14.109375 46.140625 10.015625 43.890625 
L 10.015625 52.203125 
Q 14.9375 54.109375 19.578125 55.046875 
Q 24.21875 56 28.609375 56 
Q 40.484375 56 46.34375 49.84375 
Q 52.203125 43.703125 52.203125 31.203125 
z
" id="DejaVuSans-97"/>
      <path d="M 18.109375 8.203125 
L 18.109375 -20.796875 
L 9.078125 -20.796875 
L 9.078125 54.6875 
L 18.109375 54.6875 
L 18.109375 46.390625 
Q 20.953125 51.265625 25.265625 53.625 
Q 29.59375 56 35.59375 56 
Q 45.5625 56 51.78125 48.09375 
Q 58.015625 40.1875 58.015625 27.296875 
Q 58.015625 14.40625 51.78125 6.484375 
Q 45.5625 -1.421875 35.59375 -1.421875 
Q 29.59375 -1.421875 25.265625 0.953125 
Q 20.953125 3.328125 18.109375 8.203125 
z
M 48.6875 27.296875 
Q 48.6875 37.203125 44.609375 42.84375 
Q 40.53125 48.484375 33.40625 48.484375 
Q 26.265625 48.484375 22.1875 42.84375 
Q 18.109375 37.203125 18.109375 27.296875 
Q 18.109375 17.390625 22.1875 11.75 
Q 26.265625 6.109375 33.40625 6.109375 
Q 40.53125 6.109375 44.609375 11.75 
Q 48.6875 17.390625 48.6875 27.296875 
z
" id="DejaVuSans-112"/>
     </defs>
     <g transform="translate(414.739062 412.756563)scale(0.1 -0.1)">
      <use xlink:href="#DejaVuSans-84"/>
      <use x="61.037109" xlink:href="#DejaVuSans-105"/>
      <use x="88.820312" xlink:href="#DejaVuSans-109"/>
      <use x="186.232422" xlink:href="#DejaVuSans-101"/>
      <use x="247.755859" xlink:href="#DejaVuSans-115"/>
      <use x="299.855469" xlink:href="#DejaVuSans-116"/>
      <use x="339.064453" xlink:href="#DejaVuSans-97"/>
      <use x="400.34375" xlink:href="#DejaVuSans-109"/>
      <use x="497.755859" xlink:href="#DejaVuSans-112"/>
     </g>
    </g>
   </g>
   <g id="matplotlib.axis_2">
    <g id="ytick_1">
     <g id="line2d_7">
      <defs>
       <path d="M 0 0 
L -3.5 0 
" id="mfb0571f215" style="stroke:#000000;stroke-width:0.8;"/>
      </defs>
      <g>
       <use style="stroke:#000000;stroke-width:0.8;" x="108" xlink:href="#mfb0571f215" y="369.36"/>
      </g>
     </g>
     <g id="text_8">
      <!-- 20 -->
      <g transform="translate(88.275 373.159219)scale(0.1 -0.1)">
       <use xlink:href="#DejaVuSans-50"/>
       <use x="63.623047" xlink:href="#DejaVuSans-48"/>
      </g>
     </g>
    </g>
    <g id="ytick_2">
     <g id="line2d_8">
      <g>
       <use style="stroke:#000000;stroke-width:0.8;" x="108" xlink:href="#mfb0571f215" y="301.404944"/>
      </g>
     </g>
     <g id="text_9">
      <!-- 40 -->
      <defs>
       <path d="M 37.796875 64.3125 
L 12.890625 25.390625 
L 37.796875 25.390625 
z
M 35.203125 72.90625 
L 47.609375 72.90625 
L 47.609375 25.390625 
L 58.015625 25.390625 
L 58.015625 17.1875 
L 47.609375 17.1875 
L 47.609375 0 
L 37.796875 0 
L 37.796875 17.1875 
L 4.890625 17.1875 
L 4.890625 26.703125 
z
" id="DejaVuSans-52"/>
      </defs>
      <g transform="translate(88.275 305.204163)scale(0.1 -0.1)">
       <use xlink:href="#DejaVuSans-52"/>
       <use x="63.623047" xlink:href="#DejaVuSans-48"/>
      </g>
     </g>
    </g>
    <g id="ytick_3">
     <g id="line2d_9">
      <g>
       <use style="stroke:#000000;stroke-width:0.8;" x="108" xlink:href="#mfb0571f215" y="233.449888"/>
      </g>
     </g>
     <g id="text_10">
      <!-- 60 -->
      <defs>
       <path d="M 33.015625 40.375 
Q 26.375 40.375 22.484375 35.828125 
Q 18.609375 31.296875 18.609375 23.390625 
Q 18.609375 15.53125 22.484375 10.953125 
Q 26.375 6.390625 33.015625 6.390625 
Q 39.65625 6.390625 43.53125 10.953125 
Q 47.40625 15.53125 47.40625 23.390625 
Q 47.40625 31.296875 43.53125 35.828125 
Q 39.65625 40.375 33.015625 40.375 
z
M 52.59375 71.296875 
L 52.59375 62.3125 
Q 48.875 64.0625 45.09375 64.984375 
Q 41.3125 65.921875 37.59375 65.921875 
Q 27.828125 65.921875 22.671875 59.328125 
Q 17.53125 52.734375 16.796875 39.40625 
Q 19.671875 43.65625 24.015625 45.921875 
Q 28.375 48.1875 33.59375 48.1875 
Q 44.578125 48.1875 50.953125 41.515625 
Q 57.328125 34.859375 57.328125 23.390625 
Q 57.328125 12.15625 50.6875 5.359375 
Q 44.046875 -1.421875 33.015625 -1.421875 
Q 20.359375 -1.421875 13.671875 8.265625 
Q 6.984375 17.96875 6.984375 36.375 
Q 6.984375 53.65625 15.1875 63.9375 
Q 23.390625 74.21875 37.203125 74.21875 
Q 40.921875 74.21875 44.703125 73.484375 
Q 48.484375 72.75 52.59375 71.296875 
z
" id="DejaVuSans-54"/>
      </defs>
      <g transform="translate(88.275 237.249106)scale(0.1 -0.1)">
       <use xlink:href="#DejaVuSans-54"/>
       <use x="63.623047" xlink:href="#DejaVuSans-48"/>
      </g>
     </g>
    </g>
    <g id="ytick_4">
     <g id="line2d_10">
      <g>
       <use style="stroke:#000000;stroke-width:0.8;" x="108" xlink:href="#mfb0571f215" y="165.494831"/>
      </g>
     </g>
     <g id="text_11">
      <!-- 80 -->
      <defs>
       <path d="M 31.78125 34.625 
Q 24.75 34.625 20.71875 30.859375 
Q 16.703125 27.09375 16.703125 20.515625 
Q 16.703125 13.921875 20.71875 10.15625 
Q 24.75 6.390625 31.78125 6.390625 
Q 38.8125 6.390625 42.859375 10.171875 
Q 46.921875 13.96875 46.921875 20.515625 
Q 46.921875 27.09375 42.890625 30.859375 
Q 38.875 34.625 31.78125 34.625 
z
M 21.921875 38.8125 
Q 15.578125 40.375 12.03125 44.71875 
Q 8.5 49.078125 8.5 55.328125 
Q 8.5 64.0625 14.71875 69.140625 
Q 20.953125 74.21875 31.78125 74.21875 
Q 42.671875 74.21875 48.875 69.140625 
Q 55.078125 64.0625 55.078125 55.328125 
Q 55.078125 49.078125 51.53125 44.71875 
Q 48 40.375 41.703125 38.8125 
Q 48.828125 37.15625 52.796875 32.3125 
Q 56.78125 27.484375 56.78125 20.515625 
Q 56.78125 9.90625 50.3125 4.234375 
Q 43.84375 -1.421875 31.78125 -1.421875 
Q 19.734375 -1.421875 13.25 4.234375 
Q 6.78125 9.90625 6.78125 20.515625 
Q 6.78125 27.484375 10.78125 32.3125 
Q 14.796875 37.15625 21.921875 38.8125 
z
M 18.3125 54.390625 
Q 18.3125 48.734375 21.84375 45.5625 
Q 25.390625 42.390625 31.78125 42.390625 
Q 38.140625 42.390625 41.71875 45.5625 
Q 45.3125 48.734375 45.3125 54.390625 
Q 45.3125 60.0625 41.71875 63.234375 
Q 38.140625 66.40625 31.78125 66.40625 
Q 25.390625 66.40625 21.84375 63.234375 
Q 18.3125 60.0625 18.3125 54.390625 
z
" id="DejaVuSans-56"/>
      </defs>
      <g transform="translate(88.275 169.29405)scale(0.1 -0.1)">
       <use xlink:href="#DejaVuSans-56"/>
       <use x="63.623047" xlink:href="#DejaVuSans-48"/>
      </g>
     </g>
    </g>
    <g id="ytick_5">
     <g id="line2d_11">
      <g>
       <use style="stroke:#000000;stroke-width:0.8;" x="108" xlink:href="#mfb0571f215" y="97.539775"/>
      </g>
     </g>
     <g id="text_12">
      <!-- 100 -->
      <g transform="translate(81.9125 101.338994)scale(0.1 -0.1)">
       <use xlink:href="#DejaVuSans-49"/>
       <use x="63.623047" xlink:href="#DejaVuSans-48"/>
       <use x="127.246094" xlink:href="#DejaVuSans-48"/>
      </g>
     </g>
    </g>
    <g id="text_13">
     <!-- Value -->
     <defs>
      <path d="M 28.609375 0 
L 0.78125 72.90625 
L 11.078125 72.90625 
L 34.1875 11.53125 
L 57.328125 72.90625 
L 67.578125 72.90625 
L 39.796875 0 
z
" id="DejaVuSans-86"/>
      <path d="M 9.421875 75.984375 
L 18.40625 75.984375 
L 18.40625 0 
L 9.421875 0 
z
" id="DejaVuSans-108"/>
      <path d="M 8.5 21.578125 
L 8.5 54.6875 
L 17.484375 54.6875 
L 17.484375 21.921875 
Q 17.484375 14.15625 20.5 10.265625 
Q 23.53125 6.390625 29.59375 6.390625 
Q 36.859375 6.390625 41.078125 11.03125 
Q 45.3125 15.671875 45.3125 23.6875 
L 45.3125 54.6875 
L 54.296875 54.6875 
L 54.296875 0 
L 45.3125 0 
L 45.3125 8.40625 
Q 42.046875 3.421875 37.71875 1 
Q 33.40625 -1.421875 27.6875 -1.421875 
Q 18.265625 -1.421875 13.375 4.4375 
Q 8.5 10.296875 8.5 21.578125 
z
M 31.109375 56 
z
" id="DejaVuSans-117"/>
     </defs>
     <g transform="translate(75.832812 232.273281)rotate(-90)scale(0.1 -0.1)">
      <use xlink:href="#DejaVuSans-86"/>
      <use x="68.298828" xlink:href="#DejaVuSans-97"/>
      <use x="129.578125" xlink:href="#DejaVuSans-108"/>
      <use x="157.361328" xlink:href="#DejaVuSans-117"/>
      <use x="220.740234" xlink:href="#DejaVuSans-101"/>
     </g>
    </g>
   </g>
   <g id="line2d_12">
    <path clip-path="url(#p340202f12f)" d="M 138.436364 131.517303 
L 138.679952 165.494831 
L 138.92354 151.90382 
L 139.167129 117.926292 
L 139.410717 131.517303 
L 139.654305 128.119551 
L 139.897894 226.654382 
L 140.141482 111.130787 
L 140.38507 182.483596 
L 140.628659 151.90382 
L 140.872247 145.108315 
L 141.115835 121.324045 
L 141.359424 202.870112 
L 141.603012 138.312809 
L 141.8466 196.074607 
L 142.090189 185.881348 
L 142.333777 206.267865 
L 142.577365 138.312809 
L 142.820954 196.074607 
L 143.064542 141.710562 
L 143.308131 158.699326 
L 143.551719 206.267865 
L 143.795307 189.279101 
L 144.038896 202.870112 
L 144.526072 291.211685 
L 144.769661 277.620674 
L 145.013249 189.279101 
L 145.744014 141.710562 
L 145.987602 175.68809 
L 146.231191 165.494831 
L 146.718367 223.256629 
L 146.961956 172.290337 
L 147.205544 213.063371 
L 147.449132 192.676854 
L 147.692721 253.836404 
L 147.936309 189.279101 
L 148.423486 131.517303 
L 148.667074 124.721798 
L 148.910662 223.256629 
L 149.154251 202.870112 
L 149.397839 107.733034 
L 149.641427 148.506067 
L 149.885016 145.108315 
L 150.128604 151.90382 
L 150.372193 138.312809 
L 150.615781 172.290337 
L 150.859369 138.312809 
L 151.346546 182.483596 
L 151.590134 138.312809 
L 151.833723 202.870112 
L 152.077311 151.90382 
L 152.320899 179.085843 
L 152.564488 151.90382 
L 152.808076 141.710562 
L 153.051664 141.710562 
L 153.295253 209.665618 
L 153.538841 226.654382 
L 153.782429 151.90382 
L 154.026018 134.915056 
L 154.269606 162.097079 
L 154.513194 151.90382 
L 154.756783 148.506067 
L 155.000371 134.915056 
L 155.243959 162.097079 
L 155.487548 128.119551 
L 155.731136 158.699326 
L 155.974724 117.926292 
L 156.218313 148.506067 
L 156.461901 90.74427 
L 156.705489 179.085843 
L 156.949078 145.108315 
L 157.192666 141.710562 
L 157.436255 155.301573 
L 157.679843 121.324045 
L 158.16702 165.494831 
L 158.410608 141.710562 
L 158.654196 182.483596 
L 158.897785 182.483596 
L 159.141373 206.267865 
L 159.384961 117.926292 
L 159.62855 175.68809 
L 159.872138 158.699326 
L 160.115726 117.926292 
L 160.359315 172.290337 
L 160.602903 151.90382 
L 160.846491 158.699326 
L 161.09008 97.539775 
L 161.333668 206.267865 
L 161.820845 121.324045 
L 162.064433 128.119551 
L 162.308021 172.290337 
L 162.55161 175.68809 
L 162.795198 148.506067 
L 163.038786 151.90382 
L 163.525963 240.245393 
L 163.769551 165.494831 
L 164.01314 213.063371 
L 164.256728 145.108315 
L 164.500316 185.881348 
L 164.743905 145.108315 
L 164.987493 196.074607 
L 165.231082 141.710562 
L 165.47467 189.279101 
L 165.718258 179.085843 
L 165.961847 213.063371 
L 166.205435 206.267865 
L 166.449023 145.108315 
L 166.692612 131.517303 
L 167.179788 182.483596 
L 167.423377 151.90382 
L 167.666965 138.312809 
L 167.910553 148.506067 
L 168.154142 124.721798 
L 168.39773 117.926292 
L 168.641318 124.721798 
L 168.884907 175.68809 
L 169.128495 121.324045 
L 169.372083 175.68809 
L 169.615672 189.279101 
L 169.85926 138.312809 
L 170.102848 179.085843 
L 170.346437 121.324045 
L 170.590025 179.085843 
L 170.833613 141.710562 
L 171.077202 131.517303 
L 171.32079 128.119551 
L 171.564378 90.74427 
L 171.807967 182.483596 
L 172.051555 206.267865 
L 172.538732 121.324045 
L 172.78232 121.324045 
L 173.025909 151.90382 
L 173.269497 141.710562 
L 173.513085 165.494831 
L 173.756674 145.108315 
L 174.000262 209.665618 
L 174.24385 117.926292 
L 174.731027 199.47236 
L 174.974615 158.699326 
L 175.461792 138.312809 
L 175.70538 148.506067 
L 175.948969 192.676854 
L 176.192557 172.290337 
L 176.679734 165.494831 
L 176.923322 216.461124 
L 177.16691 165.494831 
L 177.410499 202.870112 
L 177.654087 128.119551 
L 177.897675 107.733034 
L 178.141264 117.926292 
L 178.384852 111.130787 
L 178.62844 175.68809 
L 178.872029 168.892584 
L 179.115617 172.290337 
L 179.359206 196.074607 
L 179.602794 138.312809 
L 179.846382 179.085843 
L 180.333559 219.858876 
L 180.577147 213.063371 
L 180.820736 185.881348 
L 181.064324 199.47236 
L 181.551501 168.892584 
L 181.795089 196.074607 
L 182.038677 185.881348 
L 182.282266 114.528539 
L 182.525854 104.335281 
L 182.769442 124.721798 
L 183.013031 213.063371 
L 183.256619 209.665618 
L 183.500207 236.84764 
L 183.987384 131.517303 
L 184.230972 179.085843 
L 184.474561 196.074607 
L 184.718149 141.710562 
L 184.961737 134.915056 
L 185.205326 168.892584 
L 185.448914 175.68809 
L 185.692502 151.90382 
L 185.936091 151.90382 
L 186.179679 141.710562 
L 186.423267 121.324045 
L 186.666856 155.301573 
L 186.910444 138.312809 
L 187.154033 131.517303 
L 187.397621 134.915056 
L 187.641209 151.90382 
L 187.884798 138.312809 
L 188.128386 114.528539 
L 188.615563 168.892584 
L 188.859151 134.915056 
L 189.102739 168.892584 
L 189.346328 182.483596 
L 189.589916 151.90382 
L 189.833504 155.301573 
L 190.320681 219.858876 
L 190.564269 182.483596 
L 190.807858 192.676854 
L 191.051446 138.312809 
L 191.295034 179.085843 
L 191.538623 189.279101 
L 191.782211 145.108315 
L 192.025799 141.710562 
L 192.269388 141.710562 
L 192.512976 155.301573 
L 192.756564 138.312809 
L 193.243741 155.301573 
L 193.487329 145.108315 
L 193.730918 151.90382 
L 193.974506 192.676854 
L 194.461683 145.108315 
L 194.94886 243.643146 
L 195.192448 155.301573 
L 195.436036 131.517303 
L 195.923213 223.256629 
L 196.166801 148.506067 
L 196.41039 189.279101 
L 196.653978 155.301573 
L 197.141155 209.665618 
L 197.384743 134.915056 
L 197.628331 134.915056 
L 197.87192 162.097079 
L 198.115508 134.915056 
L 198.359096 182.483596 
L 198.602685 175.68809 
L 198.846273 209.665618 
L 199.089861 131.517303 
L 199.33345 138.312809 
L 199.577038 111.130787 
L 199.820626 168.892584 
L 200.064215 134.915056 
L 200.307803 121.324045 
L 200.551391 192.676854 
L 200.79498 121.324045 
L 201.038568 192.676854 
L 201.282156 179.085843 
L 201.525745 145.108315 
L 201.769333 172.290337 
L 202.012922 134.915056 
L 202.25651 182.483596 
L 202.500098 141.710562 
L 202.743687 155.301573 
L 202.987275 175.68809 
L 203.230863 124.721798 
L 203.474452 158.699326 
L 203.961628 158.699326 
L 204.205217 151.90382 
L 204.448805 182.483596 
L 204.692393 168.892584 
L 204.935982 192.676854 
L 205.17957 111.130787 
L 205.423158 182.483596 
L 205.666747 213.063371 
L 205.910335 134.915056 
L 206.153923 185.881348 
L 206.397512 141.710562 
L 206.6411 162.097079 
L 206.884688 131.517303 
L 207.128277 168.892584 
L 207.371865 158.699326 
L 207.615453 121.324045 
L 207.859042 196.074607 
L 208.10263 131.517303 
L 208.346218 107.733034 
L 208.589807 162.097079 
L 208.833395 148.506067 
L 209.076984 172.290337 
L 209.320572 172.290337 
L 209.56416 199.47236 
L 209.807749 100.937528 
L 210.051337 148.506067 
L 210.294925 104.335281 
L 210.538514 158.699326 
L 210.782102 185.881348 
L 211.269279 121.324045 
L 211.512867 131.517303 
L 211.756455 128.119551 
L 212.000044 175.68809 
L 212.243632 155.301573 
L 212.48722 165.494831 
L 212.730809 151.90382 
L 212.974397 172.290337 
L 213.217985 165.494831 
L 213.461574 189.279101 
L 213.705162 165.494831 
L 213.94875 158.699326 
L 214.192339 168.892584 
L 214.435927 206.267865 
L 214.679515 182.483596 
L 214.923104 117.926292 
L 215.166692 179.085843 
L 215.41028 121.324045 
L 215.653869 175.68809 
L 216.384634 104.335281 
L 216.628222 162.097079 
L 216.871811 172.290337 
L 217.115399 162.097079 
L 217.602576 117.926292 
L 217.846164 128.119551 
L 218.089752 162.097079 
L 218.333341 148.506067 
L 218.576929 121.324045 
L 218.820517 151.90382 
L 219.064106 162.097079 
L 219.307694 192.676854 
L 219.551282 128.119551 
L 219.794871 192.676854 
L 220.038459 192.676854 
L 220.282047 158.699326 
L 220.525636 185.881348 
L 220.769224 148.506067 
L 221.012812 134.915056 
L 221.256401 182.483596 
L 221.499989 185.881348 
L 221.743577 158.699326 
L 222.230754 226.654382 
L 222.717931 196.074607 
L 222.961519 172.290337 
L 223.205107 124.721798 
L 223.448696 206.267865 
L 223.935873 168.892584 
L 224.179461 168.892584 
L 224.423049 179.085843 
L 224.666638 165.494831 
L 224.910226 168.892584 
L 225.153814 155.301573 
L 225.640991 219.858876 
L 225.884579 219.858876 
L 226.128168 189.279101 
L 226.371756 196.074607 
L 226.615344 209.665618 
L 227.346109 131.517303 
L 227.589698 206.267865 
L 228.076874 124.721798 
L 228.320463 141.710562 
L 228.564051 196.074607 
L 228.807639 131.517303 
L 229.051228 138.312809 
L 229.294816 121.324045 
L 229.538404 128.119551 
L 229.781993 121.324045 
L 230.025581 155.301573 
L 230.269169 158.699326 
L 230.512758 134.915056 
L 230.756346 145.108315 
L 230.999935 138.312809 
L 231.243523 165.494831 
L 231.487111 107.733034 
L 231.7307 117.926292 
L 231.974288 145.108315 
L 232.217876 121.324045 
L 232.461465 145.108315 
L 232.705053 134.915056 
L 232.948641 209.665618 
L 233.19223 117.926292 
L 233.679406 145.108315 
L 233.922995 158.699326 
L 234.166583 165.494831 
L 234.410171 128.119551 
L 234.897348 134.915056 
L 235.384525 185.881348 
L 235.628113 117.926292 
L 235.871701 179.085843 
L 236.11529 138.312809 
L 236.358878 124.721798 
L 236.602466 172.290337 
L 236.846055 172.290337 
L 237.333231 196.074607 
L 237.820408 131.517303 
L 238.063997 141.710562 
L 238.307585 117.926292 
L 238.551173 175.68809 
L 239.03835 141.710562 
L 239.281938 196.074607 
L 239.525527 168.892584 
L 239.769115 117.926292 
L 240.012703 104.335281 
L 240.49988 199.47236 
L 240.743468 175.68809 
L 240.987057 189.279101 
L 241.474233 134.915056 
L 241.717822 233.449888 
L 242.204998 128.119551 
L 242.448587 165.494831 
L 242.692175 158.699326 
L 242.935763 111.130787 
L 243.179352 168.892584 
L 243.666528 151.90382 
L 243.910117 185.881348 
L 244.153705 138.312809 
L 244.397293 145.108315 
L 244.640882 117.926292 
L 244.88447 189.279101 
L 245.128058 155.301573 
L 245.371647 179.085843 
L 245.615235 172.290337 
L 245.858824 179.085843 
L 246.102412 124.721798 
L 246.589589 179.085843 
L 246.833177 172.290337 
L 247.076765 107.733034 
L 247.563942 202.870112 
L 247.80753 196.074607 
L 248.051119 124.721798 
L 248.294707 128.119551 
L 248.538295 124.721798 
L 248.781884 175.68809 
L 249.025472 151.90382 
L 249.26906 162.097079 
L 249.512649 226.654382 
L 249.756237 155.301573 
L 249.999825 158.699326 
L 250.243414 111.130787 
L 250.487002 111.130787 
L 250.73059 134.915056 
L 250.974179 90.74427 
L 251.217767 134.915056 
L 251.461355 158.699326 
L 251.704944 165.494831 
L 251.948532 141.710562 
L 252.19212 148.506067 
L 252.435709 196.074607 
L 252.679297 189.279101 
L 252.922886 192.676854 
L 253.166474 117.926292 
L 253.410062 189.279101 
L 253.897239 134.915056 
L 254.140827 155.301573 
L 254.384416 128.119551 
L 254.628004 128.119551 
L 255.115181 192.676854 
L 255.358769 158.699326 
L 255.602357 196.074607 
L 256.089534 141.710562 
L 256.333122 162.097079 
L 256.576711 107.733034 
L 256.820299 151.90382 
L 257.063887 138.312809 
L 257.307476 145.108315 
L 257.551064 162.097079 
L 257.794652 128.119551 
L 258.038241 168.892584 
L 258.525417 100.937528 
L 258.769006 124.721798 
L 259.012594 162.097079 
L 259.256182 148.506067 
L 259.743359 172.290337 
L 259.986948 151.90382 
L 260.230536 141.710562 
L 260.474124 199.47236 
L 260.717713 151.90382 
L 260.961301 148.506067 
L 261.204889 172.290337 
L 261.448478 128.119551 
L 261.692066 168.892584 
L 261.935654 141.710562 
L 262.179243 185.881348 
L 262.422831 131.517303 
L 262.666419 162.097079 
L 263.153596 104.335281 
L 263.397184 162.097079 
L 263.640773 172.290337 
L 263.884361 175.68809 
L 264.127949 128.119551 
L 264.615126 155.301573 
L 264.858714 216.461124 
L 265.102303 141.710562 
L 265.345891 192.676854 
L 265.589479 114.528539 
L 266.076656 165.494831 
L 266.320244 226.654382 
L 266.807421 172.290337 
L 267.051009 185.881348 
L 267.294598 151.90382 
L 267.538186 138.312809 
L 267.781775 192.676854 
L 268.025363 196.074607 
L 268.51254 189.279101 
L 268.756128 162.097079 
L 268.999716 162.097079 
L 269.243305 124.721798 
L 269.486893 168.892584 
L 269.730481 114.528539 
L 269.97407 179.085843 
L 270.217658 158.699326 
L 270.461246 175.68809 
L 270.704835 168.892584 
L 270.948423 141.710562 
L 271.192011 141.710562 
L 271.4356 151.90382 
L 271.679188 145.108315 
L 271.922776 151.90382 
L 272.166365 168.892584 
L 272.409953 155.301573 
L 272.653541 158.699326 
L 272.89713 158.699326 
L 273.140718 148.506067 
L 273.384306 155.301573 
L 273.627895 151.90382 
L 273.871483 151.90382 
L 274.115071 155.301573 
L 274.602248 192.676854 
L 274.845837 138.312809 
L 275.089425 162.097079 
L 275.576602 121.324045 
L 275.82019 172.290337 
L 276.063778 165.494831 
L 276.307367 114.528539 
L 276.550955 165.494831 
L 276.794543 131.517303 
L 277.038132 131.517303 
L 277.28172 158.699326 
L 277.525308 97.539775 
L 277.768897 172.290337 
L 278.012485 196.074607 
L 278.256073 145.108315 
L 278.499662 182.483596 
L 278.74325 168.892584 
L 278.986838 131.517303 
L 279.230427 165.494831 
L 279.474015 145.108315 
L 279.717603 162.097079 
L 279.961192 155.301573 
L 280.20478 189.279101 
L 280.448368 162.097079 
L 280.691957 175.68809 
L 280.935545 151.90382 
L 281.179133 209.665618 
L 281.422722 131.517303 
L 281.66631 162.097079 
L 282.397075 107.733034 
L 282.640664 162.097079 
L 282.884252 158.699326 
L 283.12784 128.119551 
L 283.371429 175.68809 
L 283.615017 165.494831 
L 283.858605 131.517303 
L 284.102194 155.301573 
L 284.58937 162.097079 
L 284.832959 100.937528 
L 285.076547 141.710562 
L 285.320135 209.665618 
L 285.563724 151.90382 
L 285.807312 151.90382 
L 286.0509 162.097079 
L 286.294489 141.710562 
L 286.538077 172.290337 
L 286.781665 138.312809 
L 287.025254 189.279101 
L 287.268842 97.539775 
L 287.51243 151.90382 
L 287.756019 124.721798 
L 288.243195 148.506067 
L 288.486784 172.290337 
L 288.97396 121.324045 
L 289.217549 148.506067 
L 289.461137 124.721798 
L 289.704726 179.085843 
L 289.948314 128.119551 
L 290.191902 134.915056 
L 290.435491 158.699326 
L 290.679079 128.119551 
L 290.922667 151.90382 
L 291.166256 155.301573 
L 291.409844 189.279101 
L 291.897021 111.130787 
L 292.140609 172.290337 
L 292.384197 175.68809 
L 292.627786 158.699326 
L 292.871374 158.699326 
L 293.114962 165.494831 
L 293.358551 128.119551 
L 293.602139 141.710562 
L 293.845727 124.721798 
L 294.089316 131.517303 
L 294.332904 121.324045 
L 294.576492 148.506067 
L 294.820081 111.130787 
L 295.063669 165.494831 
L 295.307257 148.506067 
L 295.550846 155.301573 
L 295.794434 185.881348 
L 296.038022 148.506067 
L 296.281611 179.085843 
L 296.525199 128.119551 
L 296.768788 107.733034 
L 297.012376 114.528539 
L 297.255964 155.301573 
L 297.499553 128.119551 
L 297.743141 128.119551 
L 297.986729 117.926292 
L 298.230318 151.90382 
L 298.473906 107.733034 
L 298.717494 111.130787 
L 298.961083 134.915056 
L 299.204671 111.130787 
L 299.448259 155.301573 
L 299.691848 168.892584 
L 299.935436 151.90382 
L 300.179024 179.085843 
L 300.422613 131.517303 
L 300.666201 121.324045 
L 301.153378 168.892584 
L 301.396966 107.733034 
L 301.640554 158.699326 
L 301.884143 141.710562 
L 302.127731 162.097079 
L 302.371319 141.710562 
L 302.614908 172.290337 
L 302.858496 172.290337 
L 303.102084 165.494831 
L 303.345673 165.494831 
L 303.589261 121.324045 
L 303.83285 185.881348 
L 304.076438 151.90382 
L 304.320026 165.494831 
L 304.563615 155.301573 
L 304.807203 138.312809 
L 305.050791 100.937528 
L 305.29438 168.892584 
L 305.537968 151.90382 
L 305.781556 196.074607 
L 306.025145 100.937528 
L 306.268733 168.892584 
L 306.512321 134.915056 
L 306.75591 155.301573 
L 306.999498 117.926292 
L 307.243086 104.335281 
L 307.486675 162.097079 
L 307.730263 172.290337 
L 307.973851 134.915056 
L 308.21744 165.494831 
L 308.461028 138.312809 
L 308.704616 124.721798 
L 308.948205 117.926292 
L 309.191793 117.926292 
L 309.435381 165.494831 
L 309.922558 124.721798 
L 310.166146 199.47236 
L 310.409735 155.301573 
L 310.653323 209.665618 
L 310.896911 104.335281 
L 311.1405 134.915056 
L 311.384088 90.74427 
L 311.627677 145.108315 
L 311.871265 172.290337 
L 312.114853 151.90382 
L 312.358442 121.324045 
L 312.60203 141.710562 
L 313.089207 141.710562 
L 313.332795 175.68809 
L 313.576383 155.301573 
L 313.819972 165.494831 
L 314.06356 124.721798 
L 314.550737 131.517303 
L 315.281502 185.881348 
L 315.52509 134.915056 
L 316.012267 182.483596 
L 316.255855 155.301573 
L 316.499443 162.097079 
L 316.743032 151.90382 
L 317.230208 114.528539 
L 317.473797 128.119551 
L 317.717385 230.052135 
L 317.960973 128.119551 
L 318.204562 138.312809 
L 318.44815 185.881348 
L 318.691739 128.119551 
L 318.935327 151.90382 
L 319.178915 128.119551 
L 319.422504 162.097079 
L 319.666092 134.915056 
L 319.90968 162.097079 
L 320.153269 124.721798 
L 320.396857 182.483596 
L 320.640445 131.517303 
L 320.884034 124.721798 
L 321.127622 192.676854 
L 321.614799 77.153258 
L 321.858387 121.324045 
L 322.101975 117.926292 
L 322.345564 134.915056 
L 322.589152 121.324045 
L 322.83274 182.483596 
L 323.076329 158.699326 
L 323.319917 172.290337 
L 323.807094 124.721798 
L 324.050682 172.290337 
L 324.29427 185.881348 
L 324.537859 114.528539 
L 324.781447 138.312809 
L 325.025035 206.267865 
L 325.268624 185.881348 
L 325.512212 182.483596 
L 325.755801 162.097079 
L 325.999389 158.699326 
L 326.242977 124.721798 
L 326.486566 209.665618 
L 326.730154 148.506067 
L 326.973742 141.710562 
L 327.217331 196.074607 
L 327.460919 162.097079 
L 327.704507 165.494831 
L 328.191684 107.733034 
L 328.435272 226.654382 
L 328.678861 141.710562 
L 328.922449 124.721798 
L 329.409626 223.256629 
L 329.653214 145.108315 
L 329.896802 175.68809 
L 330.140391 175.68809 
L 330.383979 158.699326 
L 330.627567 131.517303 
L 330.871156 121.324045 
L 331.114744 179.085843 
L 331.358332 185.881348 
L 331.845509 155.301573 
L 332.089097 182.483596 
L 332.576274 141.710562 
L 332.819862 196.074607 
L 333.063451 134.915056 
L 333.307039 151.90382 
L 333.550628 145.108315 
L 333.794216 124.721798 
L 334.037804 114.528539 
L 334.281393 141.710562 
L 334.524981 131.517303 
L 335.012158 155.301573 
L 335.255746 145.108315 
L 335.499334 155.301573 
L 335.742923 172.290337 
L 335.986511 199.47236 
L 336.230099 202.870112 
L 336.473688 185.881348 
L 336.717276 179.085843 
L 336.960864 202.870112 
L 337.204453 175.68809 
L 337.448041 162.097079 
L 337.691629 162.097079 
L 337.935218 138.312809 
L 338.422394 162.097079 
L 338.665983 111.130787 
L 338.909571 124.721798 
L 339.153159 158.699326 
L 339.396748 141.710562 
L 339.640336 175.68809 
L 339.883924 128.119551 
L 340.127513 128.119551 
L 340.371101 179.085843 
L 340.61469 107.733034 
L 340.858278 134.915056 
L 341.101866 182.483596 
L 341.345455 128.119551 
L 341.589043 168.892584 
L 341.832631 182.483596 
L 342.07622 131.517303 
L 342.319808 206.267865 
L 342.563396 117.926292 
L 342.806985 121.324045 
L 343.050573 196.074607 
L 343.294161 172.290337 
L 343.53775 172.290337 
L 343.781338 145.108315 
L 344.024926 172.290337 
L 344.268515 165.494831 
L 344.512103 151.90382 
L 344.755691 131.517303 
L 344.99928 162.097079 
L 345.486456 182.483596 
L 345.730045 104.335281 
L 345.973633 145.108315 
L 346.217221 138.312809 
L 346.46081 124.721798 
L 346.704398 131.517303 
L 346.947986 165.494831 
L 347.191575 117.926292 
L 347.435163 172.290337 
L 347.678752 182.483596 
L 347.92234 168.892584 
L 348.165928 179.085843 
L 348.409517 145.108315 
L 348.653105 165.494831 
L 348.896693 141.710562 
L 349.140282 158.699326 
L 349.38387 185.881348 
L 349.627458 185.881348 
L 349.871047 168.892584 
L 350.114635 165.494831 
L 350.358223 155.301573 
L 350.601812 97.539775 
L 350.8454 172.290337 
L 351.088988 172.290337 
L 351.332577 134.915056 
L 351.576165 162.097079 
L 351.819753 168.892584 
L 352.063342 124.721798 
L 352.30693 172.290337 
L 352.550518 148.506067 
L 352.794107 175.68809 
L 353.037695 138.312809 
L 353.281283 162.097079 
L 353.524872 172.290337 
L 353.76846 155.301573 
L 354.012048 206.267865 
L 354.255637 206.267865 
L 354.499225 155.301573 
L 354.742813 162.097079 
L 354.986402 155.301573 
L 355.22999 117.926292 
L 355.473579 158.699326 
L 355.717167 219.858876 
L 355.960755 175.68809 
L 356.204344 172.290337 
L 356.447932 192.676854 
L 356.69152 230.052135 
L 356.935109 165.494831 
L 357.178697 243.643146 
L 357.422285 165.494831 
L 357.665874 189.279101 
L 357.909462 168.892584 
L 358.15305 216.461124 
L 358.396639 223.256629 
L 358.640227 206.267865 
L 359.127404 192.676854 
L 359.370992 206.267865 
L 359.858169 155.301573 
L 360.101757 162.097079 
L 360.345345 206.267865 
L 360.588934 206.267865 
L 360.832522 236.84764 
L 361.07611 243.643146 
L 361.319699 243.643146 
L 361.563287 223.256629 
L 361.806875 189.279101 
L 362.050464 179.085843 
L 362.294052 175.68809 
L 362.537641 202.870112 
L 362.781229 189.279101 
L 363.024817 199.47236 
L 363.268406 131.517303 
L 363.511994 148.506067 
L 363.755582 155.301573 
L 363.999171 172.290337 
L 364.242759 148.506067 
L 364.486347 175.68809 
L 364.729936 128.119551 
L 364.973524 138.312809 
L 365.460701 124.721798 
L 365.704289 114.528539 
L 365.947877 185.881348 
L 366.191466 117.926292 
L 366.435054 240.245393 
L 366.678642 138.312809 
L 366.922231 141.710562 
L 367.165819 158.699326 
L 367.409407 148.506067 
L 367.652996 196.074607 
L 367.896584 145.108315 
L 368.140172 168.892584 
L 368.383761 172.290337 
L 368.627349 145.108315 
L 369.114526 175.68809 
L 369.358114 185.881348 
L 369.601702 175.68809 
L 369.845291 104.335281 
L 370.088879 104.335281 
L 370.332468 202.870112 
L 370.819644 148.506067 
L 371.063233 148.506067 
L 371.306821 138.312809 
L 371.550409 216.461124 
L 372.037586 107.733034 
L 372.281174 131.517303 
L 372.524763 131.517303 
L 372.768351 114.528539 
L 373.011939 179.085843 
L 373.255528 172.290337 
L 373.499116 168.892584 
L 373.742704 168.892584 
L 373.986293 162.097079 
L 374.229881 162.097079 
L 374.473469 175.68809 
L 374.717058 141.710562 
L 374.960646 131.517303 
L 375.204234 162.097079 
L 375.447823 114.528539 
L 375.691411 141.710562 
L 376.178588 172.290337 
L 376.422176 148.506067 
L 376.665764 148.506067 
L 376.909353 138.312809 
L 377.152941 117.926292 
L 377.39653 182.483596 
L 377.640118 185.881348 
L 377.883706 148.506067 
L 378.127295 162.097079 
L 378.370883 165.494831 
L 378.614471 145.108315 
L 378.85806 151.90382 
L 379.101648 114.528539 
L 379.588825 145.108315 
L 379.832413 131.517303 
L 380.076001 124.721798 
L 380.31959 128.119551 
L 380.563178 158.699326 
L 380.806766 148.506067 
L 381.050355 192.676854 
L 381.293943 131.517303 
L 381.537531 182.483596 
L 381.78112 131.517303 
L 382.024708 175.68809 
L 382.268296 148.506067 
L 382.755473 175.68809 
L 382.999061 134.915056 
L 383.24265 128.119551 
L 383.486238 151.90382 
L 383.729826 141.710562 
L 383.973415 151.90382 
L 384.217003 216.461124 
L 384.460592 172.290337 
L 384.70418 100.937528 
L 384.947768 182.483596 
L 385.191357 168.892584 
L 385.434945 138.312809 
L 385.678533 145.108315 
L 385.922122 145.108315 
L 386.16571 182.483596 
L 386.409298 141.710562 
L 386.652887 141.710562 
L 386.896475 175.68809 
L 387.140063 128.119551 
L 387.383652 162.097079 
L 388.114417 192.676854 
L 388.601593 151.90382 
L 388.845182 206.267865 
L 389.08877 199.47236 
L 389.332358 131.517303 
L 389.819535 158.699326 
L 390.063123 128.119551 
L 390.306712 162.097079 
L 390.5503 168.892584 
L 390.793888 162.097079 
L 391.037477 172.290337 
L 391.281065 151.90382 
L 391.524653 117.926292 
L 391.768242 162.097079 
L 392.01183 168.892584 
L 392.255419 155.301573 
L 392.499007 124.721798 
L 392.742595 134.915056 
L 392.986184 168.892584 
L 393.229772 162.097079 
L 393.47336 124.721798 
L 393.716949 131.517303 
L 393.960537 172.290337 
L 394.447714 117.926292 
L 394.93489 192.676854 
L 395.178479 172.290337 
L 395.665655 216.461124 
L 395.909244 219.858876 
L 396.152832 202.870112 
L 396.39642 151.90382 
L 396.883597 196.074607 
L 397.127185 192.676854 
L 397.614362 165.494831 
L 397.85795 175.68809 
L 398.101539 199.47236 
L 398.345127 162.097079 
L 398.588715 148.506067 
L 398.832304 151.90382 
L 399.075892 145.108315 
L 399.319481 179.085843 
L 399.563069 155.301573 
L 399.806657 155.301573 
L 400.050246 179.085843 
L 400.293834 162.097079 
L 400.537422 189.279101 
L 400.781011 162.097079 
L 401.024599 114.528539 
L 401.511776 148.506067 
L 401.755364 141.710562 
L 401.998952 111.130787 
L 402.486129 138.312809 
L 402.729717 168.892584 
L 402.973306 155.301573 
L 403.216894 134.915056 
L 403.460482 131.517303 
L 403.704071 134.915056 
L 403.947659 162.097079 
L 404.191247 134.915056 
L 404.434836 141.710562 
L 404.678424 121.324045 
L 404.922012 168.892584 
L 405.165601 162.097079 
L 405.409189 158.699326 
L 405.652777 145.108315 
L 405.896366 145.108315 
L 406.139954 213.063371 
L 406.383543 175.68809 
L 406.627131 162.097079 
L 406.870719 168.892584 
L 407.114308 148.506067 
L 407.357896 158.699326 
L 407.601484 162.097079 
L 407.845073 131.517303 
L 408.088661 209.665618 
L 408.332249 151.90382 
L 408.819426 185.881348 
L 409.063014 182.483596 
L 409.306603 145.108315 
L 409.550191 182.483596 
L 409.793779 182.483596 
L 410.037368 172.290337 
L 410.280956 151.90382 
L 410.524544 151.90382 
L 410.768133 165.494831 
L 411.011721 141.710562 
L 411.255309 141.710562 
L 411.498898 182.483596 
L 411.742486 162.097079 
L 411.986074 175.68809 
L 412.229663 100.937528 
L 412.473251 175.68809 
L 412.716839 145.108315 
L 412.960428 219.858876 
L 413.447604 155.301573 
L 413.691193 192.676854 
L 413.934781 145.108315 
L 414.17837 145.108315 
L 414.421958 141.710562 
L 414.665546 131.517303 
L 415.152723 158.699326 
L 415.396311 165.494831 
L 415.6399 121.324045 
L 415.883488 179.085843 
L 416.370665 141.710562 
L 416.614253 162.097079 
L 416.857841 165.494831 
L 417.10143 155.301573 
L 417.345018 138.312809 
L 417.832195 223.256629 
L 418.075783 179.085843 
L 418.319371 165.494831 
L 418.56296 158.699326 
L 418.806548 192.676854 
L 419.293725 141.710562 
L 419.537313 155.301573 
L 419.780901 155.301573 
L 420.02449 128.119551 
L 420.268078 162.097079 
L 420.511666 179.085843 
L 420.755255 134.915056 
L 420.998843 145.108315 
L 421.242432 128.119551 
L 421.48602 182.483596 
L 421.729608 182.483596 
L 421.973197 134.915056 
L 422.216785 131.517303 
L 422.460373 172.290337 
L 422.703962 145.108315 
L 423.191138 182.483596 
L 423.434727 172.290337 
L 423.678315 151.90382 
L 423.921903 175.68809 
L 424.165492 138.312809 
L 424.40908 202.870112 
L 424.652668 172.290337 
L 424.896257 162.097079 
L 425.139845 134.915056 
L 425.383433 158.699326 
L 425.627022 202.870112 
L 425.87061 179.085843 
L 426.114198 134.915056 
L 426.357787 172.290337 
L 426.601375 128.119551 
L 426.844963 182.483596 
L 427.33214 124.721798 
L 427.575728 148.506067 
L 427.819317 148.506067 
L 428.062905 185.881348 
L 428.306494 158.699326 
L 428.79367 223.256629 
L 429.037259 151.90382 
L 429.280847 148.506067 
L 429.524435 131.517303 
L 429.768024 257.234157 
L 430.011612 158.699326 
L 430.2552 165.494831 
L 430.498789 124.721798 
L 430.742377 165.494831 
L 430.985965 168.892584 
L 431.229554 155.301573 
L 431.473142 175.68809 
L 431.71673 168.892584 
L 431.960319 179.085843 
L 432.203907 134.915056 
L 432.447495 148.506067 
L 432.691084 128.119551 
L 432.934672 175.68809 
L 433.17826 151.90382 
L 433.421849 162.097079 
L 433.665437 148.506067 
L 433.909025 117.926292 
L 434.152614 165.494831 
L 434.396202 141.710562 
L 434.63979 165.494831 
L 434.883379 168.892584 
L 435.126967 196.074607 
L 435.370555 151.90382 
L 435.614144 148.506067 
L 436.101321 107.733034 
L 436.344909 168.892584 
L 436.588497 134.915056 
L 436.832086 175.68809 
L 437.075674 162.097079 
L 437.319262 158.699326 
L 437.562851 189.279101 
L 437.806439 131.517303 
L 438.050027 134.915056 
L 438.293616 121.324045 
L 438.537204 145.108315 
L 438.780792 182.483596 
L 439.024381 175.68809 
L 439.267969 124.721798 
L 439.511557 216.461124 
L 439.755146 151.90382 
L 439.998734 117.926292 
L 440.242322 196.074607 
L 440.485911 199.47236 
L 440.729499 148.506067 
L 440.973087 121.324045 
L 441.216676 121.324045 
L 441.703852 179.085843 
L 441.947441 114.528539 
L 442.191029 131.517303 
L 442.434617 192.676854 
L 442.678206 155.301573 
L 442.921794 175.68809 
L 443.165383 155.301573 
L 443.652559 179.085843 
L 443.896148 151.90382 
L 444.139736 158.699326 
L 444.383324 175.68809 
L 444.626913 202.870112 
L 445.114089 97.539775 
L 445.357678 196.074607 
L 445.601266 226.654382 
L 445.844854 192.676854 
L 446.332031 247.040899 
L 446.575619 250.438652 
L 446.819208 206.267865 
L 447.062796 114.528539 
L 447.306384 117.926292 
L 447.549973 199.47236 
L 447.793561 172.290337 
L 448.037149 124.721798 
L 448.524326 131.517303 
L 448.767914 199.47236 
L 449.011503 192.676854 
L 449.255091 189.279101 
L 449.498679 151.90382 
L 449.742268 165.494831 
L 449.985856 158.699326 
L 450.473033 196.074607 
L 450.716621 151.90382 
L 450.96021 151.90382 
L 451.203798 124.721798 
L 451.447386 128.119551 
L 451.690975 158.699326 
L 451.934563 165.494831 
L 452.42174 97.539775 
L 452.665328 104.335281 
L 452.908916 155.301573 
L 453.152505 158.699326 
L 453.396093 128.119551 
L 453.88327 148.506067 
L 454.126858 138.312809 
L 454.370446 168.892584 
L 454.614035 107.733034 
L 454.857623 185.881348 
L 455.101211 107.733034 
L 455.588388 202.870112 
L 455.831976 145.108315 
L 456.075565 165.494831 
L 456.319153 114.528539 
L 456.562741 141.710562 
L 456.80633 111.130787 
L 457.049918 97.539775 
L 457.293506 90.74427 
L 457.780683 165.494831 
L 458.024272 107.733034 
L 458.26786 131.517303 
L 458.511448 172.290337 
L 458.755037 66.96 
L 459.242213 148.506067 
L 459.485802 121.324045 
L 459.72939 117.926292 
L 459.972978 100.937528 
L 460.216567 165.494831 
L 460.460155 131.517303 
L 460.703743 128.119551 
L 460.947332 151.90382 
L 461.19092 124.721798 
L 461.434508 114.528539 
L 461.921685 162.097079 
L 462.165273 107.733034 
L 462.408862 145.108315 
L 462.65245 158.699326 
L 462.896038 162.097079 
L 463.139627 162.097079 
L 463.383215 175.68809 
L 463.626803 134.915056 
L 463.870392 134.915056 
L 464.11398 141.710562 
L 464.357568 179.085843 
L 464.601157 100.937528 
L 465.088334 131.517303 
L 465.331922 107.733034 
L 465.57551 168.892584 
L 465.819099 145.108315 
L 466.062687 134.915056 
L 466.306275 151.90382 
L 466.549864 179.085843 
L 466.793452 165.494831 
L 467.03704 141.710562 
L 467.524217 192.676854 
L 467.767805 148.506067 
L 468.011394 158.699326 
L 468.254982 134.915056 
L 468.49857 145.108315 
L 468.742159 162.097079 
L 468.985747 104.335281 
L 469.472924 168.892584 
L 469.716512 148.506067 
L 470.203689 162.097079 
L 470.447277 104.335281 
L 470.934454 192.676854 
L 471.178042 134.915056 
L 471.42163 117.926292 
L 471.665219 121.324045 
L 472.152396 165.494831 
L 472.395984 138.312809 
L 472.639572 158.699326 
L 472.883161 141.710562 
L 473.126749 138.312809 
L 473.613926 209.665618 
L 474.101102 141.710562 
L 474.344691 182.483596 
L 474.831867 124.721798 
L 475.075456 162.097079 
L 475.319044 128.119551 
L 475.562632 148.506067 
L 475.806221 155.301573 
L 476.049809 111.130787 
L 476.293397 172.290337 
L 476.536986 148.506067 
L 476.780574 206.267865 
L 477.267751 138.312809 
L 477.511339 168.892584 
L 477.754927 111.130787 
L 477.998516 138.312809 
L 478.242104 134.915056 
L 478.485692 134.915056 
L 478.729281 124.721798 
L 478.972869 107.733034 
L 479.216457 145.108315 
L 479.460046 145.108315 
L 479.703634 158.699326 
L 479.947223 162.097079 
L 480.190811 179.085843 
L 480.434399 111.130787 
L 480.677988 168.892584 
L 480.921576 107.733034 
L 481.165164 165.494831 
L 481.408753 111.130787 
L 481.652341 117.926292 
L 481.895929 182.483596 
L 482.139518 138.312809 
L 482.383106 134.915056 
L 482.626694 138.312809 
L 482.870283 121.324045 
L 483.113871 165.494831 
L 483.357459 128.119551 
L 483.601048 121.324045 
L 484.088224 148.506067 
L 484.575401 141.710562 
L 484.818989 128.119551 
L 485.306166 165.494831 
L 485.549754 145.108315 
L 485.793343 138.312809 
L 486.036931 185.881348 
L 486.280519 172.290337 
L 486.767696 138.312809 
L 487.011285 216.461124 
L 487.254873 145.108315 
L 487.498461 141.710562 
L 487.74205 158.699326 
L 487.985638 148.506067 
L 488.229226 128.119551 
L 488.472815 162.097079 
L 488.716403 155.301573 
L 489.20358 97.539775 
L 489.447168 131.517303 
L 489.690756 138.312809 
L 489.934345 128.119551 
L 490.177933 168.892584 
L 490.421521 148.506067 
L 490.66511 162.097079 
L 490.908698 141.710562 
L 491.152286 145.108315 
L 491.395875 185.881348 
L 491.639463 175.68809 
L 491.883051 151.90382 
L 492.12664 151.90382 
L 492.370228 131.517303 
L 492.613816 145.108315 
L 492.857405 131.517303 
L 493.100993 111.130787 
L 493.344581 165.494831 
L 493.58817 151.90382 
L 494.075347 151.90382 
L 494.318935 158.699326 
L 494.562523 145.108315 
L 494.806112 158.699326 
L 495.0497 148.506067 
L 495.293288 111.130787 
L 495.780465 148.506067 
L 496.024053 107.733034 
L 496.267642 158.699326 
L 496.51123 165.494831 
L 496.754818 114.528539 
L 496.998407 138.312809 
L 497.241995 134.915056 
L 497.485583 114.528539 
L 498.216348 189.279101 
L 498.459937 134.915056 
L 498.703525 141.710562 
L 498.947113 185.881348 
L 499.43429 117.926292 
L 499.677878 128.119551 
L 500.408643 185.881348 
L 500.89582 124.721798 
L 501.139408 155.301573 
L 501.382997 165.494831 
L 501.626585 117.926292 
L 501.870174 209.665618 
L 502.35735 148.506067 
L 502.600939 151.90382 
L 502.844527 131.517303 
L 503.088115 134.915056 
L 503.331704 158.699326 
L 503.575292 145.108315 
L 503.81888 175.68809 
L 504.062469 162.097079 
L 504.306057 131.517303 
L 504.549645 151.90382 
L 504.793234 162.097079 
L 505.036822 128.119551 
L 505.28041 162.097079 
L 505.523999 175.68809 
L 505.767587 172.290337 
L 506.011175 94.142022 
L 506.254764 199.47236 
L 506.498352 151.90382 
L 506.985529 121.324045 
L 507.229117 141.710562 
L 507.472705 111.130787 
L 507.716294 192.676854 
L 508.20347 107.733034 
L 508.447059 155.301573 
L 508.690647 141.710562 
L 508.934236 145.108315 
L 509.177824 87.346517 
L 509.421412 134.915056 
L 509.665001 158.699326 
L 509.908589 138.312809 
L 510.152177 151.90382 
L 510.395766 134.915056 
L 510.639354 148.506067 
L 510.882942 131.517303 
L 511.126531 151.90382 
L 511.613707 128.119551 
L 511.857296 175.68809 
L 512.100884 141.710562 
L 512.344472 158.699326 
L 512.588061 158.699326 
L 512.831649 148.506067 
L 513.075237 168.892584 
L 513.318826 117.926292 
L 513.562414 145.108315 
L 513.806002 185.881348 
L 514.049591 155.301573 
L 514.293179 168.892584 
L 514.536767 155.301573 
L 514.780356 148.506067 
L 515.023944 165.494831 
L 515.267532 162.097079 
L 515.511121 162.097079 
L 515.754709 128.119551 
L 515.998298 145.108315 
L 516.241886 145.108315 
L 516.485474 158.699326 
L 516.729063 134.915056 
L 517.216239 179.085843 
L 517.459828 117.926292 
L 517.703416 131.517303 
L 517.947004 134.915056 
L 518.190593 128.119551 
L 518.434181 141.710562 
L 518.677769 168.892584 
L 518.921358 117.926292 
L 519.164946 168.892584 
L 519.408534 151.90382 
L 519.895711 165.494831 
L 520.139299 138.312809 
L 520.382888 151.90382 
L 520.626476 131.517303 
L 520.870064 145.108315 
L 521.357241 185.881348 
L 521.600829 138.312809 
L 521.844418 114.528539 
L 522.331594 179.085843 
L 522.575183 121.324045 
L 522.818771 165.494831 
L 523.062359 138.312809 
L 523.549536 175.68809 
L 523.793125 117.926292 
L 524.036713 117.926292 
L 524.280301 145.108315 
L 524.52389 185.881348 
L 524.767478 206.267865 
L 525.011066 179.085843 
L 525.254655 175.68809 
L 525.498243 134.915056 
L 525.741831 141.710562 
L 526.229008 192.676854 
L 526.472596 175.68809 
L 526.716185 128.119551 
L 526.959773 134.915056 
L 527.203361 117.926292 
L 527.44695 202.870112 
L 527.690538 148.506067 
L 527.934126 168.892584 
L 528.177715 138.312809 
L 528.421303 162.097079 
L 528.664891 168.892584 
L 528.90848 141.710562 
L 529.152068 172.290337 
L 529.395656 138.312809 
L 529.639245 121.324045 
L 530.126421 196.074607 
L 530.613598 141.710562 
L 530.857187 168.892584 
L 531.100775 175.68809 
L 531.344363 168.892584 
L 531.587952 168.892584 
L 531.83154 202.870112 
L 532.075128 196.074607 
L 532.562305 134.915056 
L 532.805893 165.494831 
L 533.049482 179.085843 
L 533.29307 162.097079 
L 533.536658 162.097079 
L 533.780247 145.108315 
L 534.023835 138.312809 
L 534.511012 179.085843 
L 534.7546 179.085843 
L 534.998188 162.097079 
L 535.241777 185.881348 
L 535.485365 192.676854 
L 535.728953 209.665618 
L 535.972542 196.074607 
L 536.21613 175.68809 
L 536.459718 175.68809 
L 536.703307 206.267865 
L 536.946895 165.494831 
L 537.190483 185.881348 
L 537.434072 107.733034 
L 537.67766 131.517303 
L 537.921248 134.915056 
L 538.164837 206.267865 
L 538.408425 151.90382 
L 538.652014 162.097079 
L 538.895602 114.528539 
L 539.13919 179.085843 
L 539.626367 179.085843 
L 539.869955 141.710562 
L 540.113544 145.108315 
L 540.357132 151.90382 
L 540.60072 121.324045 
L 540.844309 172.290337 
L 541.087897 128.119551 
L 541.331485 141.710562 
L 541.575074 162.097079 
L 541.818662 145.108315 
L 542.06225 145.108315 
L 542.305839 196.074607 
L 542.549427 148.506067 
L 543.036604 179.085843 
L 543.280192 128.119551 
L 543.52378 131.517303 
L 543.767369 158.699326 
L 544.010957 168.892584 
L 544.254545 141.710562 
L 544.498134 138.312809 
L 544.741722 145.108315 
L 544.98531 155.301573 
L 545.228899 158.699326 
L 545.472487 141.710562 
L 545.716076 145.108315 
L 545.959664 185.881348 
L 546.203252 172.290337 
L 546.446841 148.506067 
L 546.690429 202.870112 
L 546.934017 165.494831 
L 547.177606 175.68809 
L 547.421194 155.301573 
L 547.664782 158.699326 
L 547.908371 141.710562 
L 548.151959 138.312809 
L 548.395547 148.506067 
L 548.639136 182.483596 
L 548.882724 114.528539 
L 549.126312 121.324045 
L 549.613489 175.68809 
L 549.857077 162.097079 
L 550.100666 172.290337 
L 550.344254 172.290337 
L 550.587842 168.892584 
L 550.831431 124.721798 
L 551.075019 182.483596 
L 551.318607 182.483596 
L 551.562196 199.47236 
L 551.805784 168.892584 
L 552.049372 189.279101 
L 552.292961 141.710562 
L 552.536549 151.90382 
L 553.023726 185.881348 
L 553.267314 219.858876 
L 553.510903 158.699326 
L 553.754491 145.108315 
L 553.998079 104.335281 
L 554.728844 165.494831 
L 554.972433 138.312809 
L 555.216021 179.085843 
L 555.459609 182.483596 
L 555.703198 131.517303 
L 555.946786 168.892584 
L 556.190374 131.517303 
L 556.433963 179.085843 
L 556.677551 124.721798 
L 556.921139 151.90382 
L 557.408316 134.915056 
L 557.651904 223.256629 
L 557.895493 172.290337 
L 558.139081 155.301573 
L 558.382669 185.881348 
L 558.626258 100.937528 
L 558.869846 189.279101 
L 559.113434 124.721798 
L 559.600611 151.90382 
L 560.087788 138.312809 
L 560.331376 124.721798 
L 560.574965 158.699326 
L 560.818553 141.710562 
L 561.062141 141.710562 
L 561.30573 124.721798 
L 561.549318 168.892584 
L 561.792906 128.119551 
L 562.036495 158.699326 
L 562.280083 117.926292 
L 562.76726 172.290337 
L 563.010848 162.097079 
L 563.254436 175.68809 
L 563.498025 162.097079 
L 563.741613 158.699326 
L 563.985201 196.074607 
L 564.22879 162.097079 
L 564.472378 155.301573 
L 564.715966 158.699326 
L 564.959555 121.324045 
L 565.203143 151.90382 
L 565.446731 117.926292 
L 565.69032 185.881348 
L 565.933908 141.710562 
L 566.177496 179.085843 
L 566.421085 104.335281 
L 566.664673 151.90382 
L 566.908261 165.494831 
L 567.15185 155.301573 
L 567.395438 213.063371 
L 567.639027 189.279101 
L 567.882615 151.90382 
L 568.126203 138.312809 
L 568.369792 202.870112 
L 568.61338 128.119551 
L 569.100557 168.892584 
L 569.344145 155.301573 
L 569.587733 151.90382 
L 569.831322 196.074607 
L 570.07491 165.494831 
L 570.318498 223.256629 
L 570.562087 155.301573 
L 570.805675 148.506067 
L 571.049263 158.699326 
L 571.292852 131.517303 
L 571.780028 145.108315 
L 572.023617 155.301573 
L 572.510793 131.517303 
L 572.754382 145.108315 
L 572.99797 179.085843 
L 573.485147 131.517303 
L 573.728735 189.279101 
L 573.972323 165.494831 
L 574.215912 155.301573 
L 574.4595 117.926292 
L 574.703089 172.290337 
L 574.946677 155.301573 
L 575.190265 185.881348 
L 575.433854 162.097079 
L 575.677442 158.699326 
L 575.92103 141.710562 
L 576.164619 145.108315 
L 576.408207 155.301573 
L 576.651795 247.040899 
L 576.895384 179.085843 
L 577.138972 158.699326 
L 577.38256 172.290337 
L 577.626149 128.119551 
L 578.113325 141.710562 
L 578.356914 158.699326 
L 578.600502 185.881348 
L 579.331267 141.710562 
L 579.574855 213.063371 
L 579.818444 179.085843 
L 580.062032 168.892584 
L 580.30562 182.483596 
L 580.549209 151.90382 
L 580.792797 172.290337 
L 581.279974 117.926292 
L 581.523562 182.483596 
L 581.76715 182.483596 
L 582.497916 240.245393 
L 582.741504 233.449888 
L 582.985092 233.449888 
L 583.228681 236.84764 
L 583.472269 243.643146 
L 583.959446 182.483596 
L 584.203034 189.279101 
L 584.446622 216.461124 
L 584.690211 206.267865 
L 584.933799 185.881348 
L 585.177387 182.483596 
L 585.420976 192.676854 
L 585.664564 216.461124 
L 585.908152 213.063371 
L 586.151741 230.052135 
L 586.395329 209.665618 
L 586.638917 138.312809 
L 587.126094 185.881348 
L 587.369682 189.279101 
L 587.613271 219.858876 
L 587.856859 158.699326 
L 588.100447 175.68809 
L 588.344036 141.710562 
L 588.587624 141.710562 
L 588.831212 128.119551 
L 589.074801 141.710562 
L 589.318389 182.483596 
L 589.805566 209.665618 
L 590.049154 148.506067 
L 590.292743 148.506067 
L 590.536331 131.517303 
L 591.023508 145.108315 
L 591.267096 145.108315 
L 591.510684 199.47236 
L 591.754273 172.290337 
L 591.997861 168.892584 
L 592.241449 141.710562 
L 592.485038 141.710562 
L 592.728626 168.892584 
L 592.972214 172.290337 
L 593.215803 168.892584 
L 593.459391 189.279101 
L 593.702979 148.506067 
L 593.946568 158.699326 
L 594.190156 114.528539 
L 594.433744 148.506067 
L 594.677333 134.915056 
L 594.920921 131.517303 
L 595.164509 117.926292 
L 595.408098 165.494831 
L 595.651686 134.915056 
L 595.895274 141.710562 
L 596.138863 151.90382 
L 596.382451 111.130787 
L 596.62604 165.494831 
L 596.869628 168.892584 
L 597.113216 165.494831 
L 597.356805 219.858876 
L 597.843981 162.097079 
L 598.08757 155.301573 
L 598.331158 134.915056 
L 598.574746 145.108315 
L 598.818335 138.312809 
L 599.061923 172.290337 
L 599.305511 148.506067 
L 599.5491 151.90382 
L 599.792688 199.47236 
L 600.036276 192.676854 
L 600.279865 107.733034 
L 600.767041 155.301573 
L 601.01063 185.881348 
L 601.254218 128.119551 
L 601.497806 196.074607 
L 601.741395 138.312809 
L 601.984983 114.528539 
L 602.228571 165.494831 
L 602.47216 189.279101 
L 602.715748 155.301573 
L 603.202925 182.483596 
L 603.446513 182.483596 
L 603.690101 230.052135 
L 603.93369 111.130787 
L 604.177278 151.90382 
L 604.420867 158.699326 
L 604.664455 185.881348 
L 604.908043 145.108315 
L 605.151632 199.47236 
L 605.39522 128.119551 
L 605.638808 192.676854 
L 605.882397 168.892584 
L 606.125985 168.892584 
L 606.369573 165.494831 
L 606.85675 134.915056 
L 607.100338 128.119551 
L 607.343927 172.290337 
L 607.587515 128.119551 
L 607.831103 151.90382 
L 608.074692 192.676854 
L 608.31828 158.699326 
L 608.805457 158.699326 
L 609.049045 162.097079 
L 609.292633 151.90382 
L 609.77981 100.937528 
L 610.023398 158.699326 
L 610.266987 158.699326 
L 610.510575 179.085843 
L 610.754163 216.461124 
L 610.997752 141.710562 
L 611.24134 179.085843 
L 611.484929 179.085843 
L 611.728517 134.915056 
L 611.972105 192.676854 
L 612.215694 206.267865 
L 612.459282 162.097079 
L 612.70287 141.710562 
L 612.946459 155.301573 
L 613.190047 138.312809 
L 613.433635 151.90382 
L 613.677224 172.290337 
L 613.920812 179.085843 
L 614.1644 182.483596 
L 614.407989 131.517303 
L 614.651577 138.312809 
L 615.138754 182.483596 
L 615.382342 165.494831 
L 615.62593 124.721798 
L 615.869519 124.721798 
L 616.356695 138.312809 
L 616.600284 151.90382 
L 616.843872 172.290337 
L 617.08746 168.892584 
L 617.331049 158.699326 
L 617.574637 131.517303 
L 617.818225 175.68809 
L 618.061814 141.710562 
L 618.305402 192.676854 
L 618.548991 151.90382 
L 618.792579 185.881348 
L 619.036167 138.312809 
L 619.523344 179.085843 
L 619.766932 148.506067 
L 620.254109 148.506067 
L 620.497697 97.539775 
L 620.741286 148.506067 
L 620.984874 145.108315 
L 621.228462 151.90382 
L 621.472051 114.528539 
L 621.715639 124.721798 
L 621.959227 175.68809 
L 622.202816 155.301573 
L 622.446404 168.892584 
L 622.689992 162.097079 
L 622.933581 168.892584 
L 623.177169 104.335281 
L 623.420757 199.47236 
L 623.664346 148.506067 
L 623.907934 131.517303 
L 624.151522 131.517303 
L 624.395111 121.324045 
L 624.638699 131.517303 
L 624.882287 182.483596 
L 625.125876 172.290337 
L 625.369464 121.324045 
L 625.613052 182.483596 
L 626.100229 165.494831 
L 626.343818 138.312809 
L 626.587406 151.90382 
L 626.830994 145.108315 
L 627.074583 148.506067 
L 627.318171 148.506067 
L 627.561759 185.881348 
L 627.805348 124.721798 
L 628.048936 192.676854 
L 628.292524 179.085843 
L 628.536113 117.926292 
L 628.779701 124.721798 
L 629.023289 202.870112 
L 629.266878 179.085843 
L 629.510466 131.517303 
L 629.754054 141.710562 
L 629.997643 145.108315 
L 630.241231 145.108315 
L 630.484819 158.699326 
L 630.728408 165.494831 
L 630.971996 185.881348 
L 631.215584 141.710562 
L 631.459173 196.074607 
L 631.702761 165.494831 
L 631.946349 202.870112 
L 632.189938 162.097079 
L 632.433526 206.267865 
L 632.677114 128.119551 
L 633.164291 175.68809 
L 633.651468 189.279101 
L 633.895056 155.301573 
L 634.382233 206.267865 
L 634.86941 138.312809 
L 635.600175 192.676854 
L 636.087351 162.097079 
L 636.33094 155.301573 
L 636.574528 179.085843 
L 636.818116 189.279101 
L 637.061705 219.858876 
L 637.305293 182.483596 
L 637.548881 168.892584 
L 637.79247 202.870112 
L 638.036058 172.290337 
L 638.279646 196.074607 
L 638.523235 175.68809 
L 638.766823 141.710562 
L 639.010411 192.676854 
L 639.254 124.721798 
L 639.497588 145.108315 
L 639.741176 155.301573 
L 639.984765 134.915056 
L 640.228353 141.710562 
L 640.71553 162.097079 
L 640.959118 192.676854 
L 641.446295 168.892584 
L 641.689883 199.47236 
L 641.933472 172.290337 
L 642.17706 158.699326 
L 642.664237 107.733034 
L 642.907825 87.346517 
L 643.151413 94.142022 
L 643.395002 80.551011 
L 643.63859 80.551011 
L 643.882178 134.915056 
L 644.125767 124.721798 
L 644.369355 128.119551 
L 644.612943 128.119551 
L 644.856532 114.528539 
L 645.10012 124.721798 
L 645.343708 117.926292 
L 645.587297 138.312809 
L 645.830885 226.654382 
L 646.318062 141.710562 
L 646.56165 192.676854 
L 646.805238 209.665618 
L 647.048827 202.870112 
L 647.292415 243.643146 
L 647.536003 243.643146 
L 647.779592 175.68809 
L 648.02318 148.506067 
L 648.266769 185.881348 
L 648.510357 179.085843 
L 648.753945 199.47236 
L 648.997534 165.494831 
L 649.241122 165.494831 
L 649.48471 151.90382 
L 649.728299 155.301573 
L 649.971887 165.494831 
L 650.215475 182.483596 
L 650.459064 134.915056 
L 650.702652 148.506067 
L 650.94624 155.301573 
L 651.189829 148.506067 
L 651.433417 121.324045 
L 651.677005 131.517303 
L 651.920594 77.153258 
L 652.164182 117.926292 
L 652.40777 185.881348 
L 652.651359 104.335281 
L 652.894947 141.710562 
L 653.138535 158.699326 
L 653.382124 114.528539 
L 653.8693 145.108315 
L 654.356477 185.881348 
L 654.600065 165.494831 
L 654.843654 196.074607 
L 655.087242 145.108315 
L 655.330831 182.483596 
L 655.574419 158.699326 
L 655.818007 148.506067 
L 656.061596 128.119551 
L 656.305184 179.085843 
L 656.548772 151.90382 
L 656.792361 158.699326 
L 657.035949 175.68809 
L 657.279537 151.90382 
L 657.523126 175.68809 
L 658.010302 114.528539 
L 658.497479 162.097079 
L 658.741067 151.90382 
L 658.984656 151.90382 
L 659.228244 128.119551 
L 659.471832 145.108315 
L 659.715421 145.108315 
L 659.959009 175.68809 
L 660.202597 175.68809 
L 660.689774 145.108315 
L 660.933362 151.90382 
L 661.176951 219.858876 
L 661.420539 155.301573 
L 661.907716 172.290337 
L 662.151304 114.528539 
L 662.394893 121.324045 
L 662.638481 189.279101 
L 662.882069 145.108315 
L 663.125658 226.654382 
L 663.369246 145.108315 
L 663.612834 151.90382 
L 663.856423 172.290337 
L 664.100011 172.290337 
L 664.343599 168.892584 
L 664.587188 128.119551 
L 664.830776 199.47236 
L 665.074364 179.085843 
L 665.317953 121.324045 
L 665.805129 155.301573 
L 666.048718 162.097079 
L 666.535894 111.130787 
L 666.779483 162.097079 
L 667.023071 138.312809 
L 667.266659 199.47236 
L 667.510248 185.881348 
L 667.753836 219.858876 
L 667.997424 162.097079 
L 668.484601 189.279101 
L 668.728189 155.301573 
L 668.971778 155.301573 
L 669.215366 226.654382 
L 669.458954 206.267865 
L 669.702543 151.90382 
L 669.946131 179.085843 
L 670.18972 162.097079 
L 670.433308 121.324045 
L 670.676896 124.721798 
L 670.920485 206.267865 
L 671.164073 151.90382 
L 671.407661 155.301573 
L 671.65125 148.506067 
L 671.894838 196.074607 
L 672.138426 172.290337 
L 672.382015 175.68809 
L 672.625603 175.68809 
L 672.869191 138.312809 
L 673.11278 165.494831 
L 673.356368 134.915056 
L 673.599956 134.915056 
L 674.087133 192.676854 
L 674.330721 138.312809 
L 674.57431 192.676854 
L 674.817898 148.506067 
L 675.061486 148.506067 
L 675.305075 134.915056 
L 675.548663 158.699326 
L 675.792251 141.710562 
L 676.03584 202.870112 
L 676.523016 141.710562 
L 677.010193 172.290337 
L 677.253782 128.119551 
L 677.740958 189.279101 
L 677.984547 182.483596 
L 678.228135 182.483596 
L 678.471723 155.301573 
L 678.9589 148.506067 
L 679.202488 148.506067 
L 679.446077 145.108315 
L 679.689665 168.892584 
L 679.933253 148.506067 
L 680.176842 155.301573 
L 680.42043 172.290337 
L 680.664018 117.926292 
L 681.151195 189.279101 
L 681.394783 209.665618 
L 681.638372 155.301573 
L 681.88196 162.097079 
L 682.125548 155.301573 
L 682.369137 206.267865 
L 682.612725 175.68809 
L 682.856313 199.47236 
L 683.099902 182.483596 
L 683.34349 185.881348 
L 683.587078 141.710562 
L 683.830667 148.506067 
L 684.074255 121.324045 
L 684.317844 182.483596 
L 684.561432 100.937528 
L 684.80502 151.90382 
L 685.048609 141.710562 
L 685.292197 158.699326 
L 685.535785 151.90382 
L 685.779374 179.085843 
L 686.022962 104.335281 
L 686.26655 141.710562 
L 686.510139 117.926292 
L 686.753727 124.721798 
L 687.240904 179.085843 
L 687.484492 196.074607 
L 687.72808 151.90382 
L 688.215257 131.517303 
L 688.458845 179.085843 
L 688.702434 134.915056 
L 688.946022 114.528539 
L 689.433199 192.676854 
L 689.676787 155.301573 
L 689.920375 206.267865 
L 690.163964 121.324045 
L 690.407552 179.085843 
L 690.65114 121.324045 
L 690.894729 121.324045 
L 691.138317 138.312809 
L 691.381905 121.324045 
L 691.869082 196.074607 
L 692.112671 192.676854 
L 692.356259 168.892584 
L 692.599847 168.892584 
L 692.843436 138.312809 
L 693.087024 165.494831 
L 693.330612 219.858876 
L 693.817789 134.915056 
L 694.061377 158.699326 
L 694.304966 145.108315 
L 694.548554 162.097079 
L 694.792142 202.870112 
L 695.035731 206.267865 
L 695.279319 145.108315 
L 695.522907 121.324045 
L 695.766496 179.085843 
L 696.010084 165.494831 
L 696.253672 165.494831 
L 696.497261 158.699326 
L 696.740849 175.68809 
L 696.984437 172.290337 
L 697.228026 179.085843 
L 697.471614 189.279101 
L 697.715202 223.256629 
L 697.958791 223.256629 
L 698.445967 158.699326 
L 698.689556 185.881348 
L 698.933144 182.483596 
L 699.176733 182.483596 
L 699.420321 134.915056 
L 699.663909 111.130787 
L 699.907498 182.483596 
L 700.151086 179.085843 
L 700.394674 134.915056 
L 700.638263 121.324045 
L 700.881851 148.506067 
L 701.125439 189.279101 
L 701.612616 162.097079 
L 701.856204 223.256629 
L 702.099793 216.461124 
L 702.343381 213.063371 
L 702.586969 182.483596 
L 702.830558 240.245393 
L 703.074146 243.643146 
L 703.317734 172.290337 
L 703.804911 155.301573 
L 704.292088 206.267865 
L 704.535676 185.881348 
L 704.779264 196.074607 
L 705.022853 189.279101 
L 705.266441 185.881348 
L 705.510029 165.494831 
L 705.753618 172.290337 
L 705.997206 175.68809 
L 706.240794 155.301573 
L 706.484383 155.301573 
L 706.727971 151.90382 
L 706.97156 128.119551 
L 707.215148 121.324045 
L 707.458736 121.324045 
L 707.702325 128.119551 
L 708.189501 151.90382 
L 708.43309 145.108315 
L 708.920266 189.279101 
L 709.163855 196.074607 
L 709.651031 202.870112 
L 710.138208 158.699326 
L 710.381796 202.870112 
L 710.625385 199.47236 
L 710.868973 219.858876 
L 711.112561 213.063371 
L 711.599738 162.097079 
L 711.843326 165.494831 
L 712.086915 151.90382 
L 712.330503 148.506067 
L 712.574091 141.710562 
L 713.061268 196.074607 
L 713.304856 189.279101 
L 713.548445 185.881348 
L 713.792033 148.506067 
L 714.035622 158.699326 
L 714.27921 155.301573 
L 714.522798 148.506067 
L 714.766387 131.517303 
L 715.009975 158.699326 
L 715.253563 141.710562 
L 715.497152 138.312809 
L 715.74074 172.290337 
L 715.984328 138.312809 
L 716.471505 162.097079 
L 716.715093 158.699326 
L 716.958682 179.085843 
L 717.20227 138.312809 
L 717.445858 155.301573 
L 717.689447 189.279101 
L 717.933035 182.483596 
L 718.176623 196.074607 
L 718.420212 182.483596 
L 718.6638 185.881348 
L 718.907388 165.494831 
L 719.150977 226.654382 
L 719.394565 213.063371 
L 719.638153 342.177978 
L 719.881742 206.267865 
L 720.12533 236.84764 
L 720.368918 369.36 
L 720.612507 209.665618 
L 720.856095 230.052135 
L 721.099684 236.84764 
L 721.343272 338.780225 
L 721.830449 145.108315 
L 722.074037 165.494831 
L 722.317625 206.267865 
L 722.804802 134.915056 
L 723.291979 134.915056 
L 723.535567 141.710562 
L 723.779155 162.097079 
L 724.022744 158.699326 
L 724.266332 158.699326 
L 724.753509 257.234157 
L 724.997097 202.870112 
L 725.240685 196.074607 
L 725.484274 257.234157 
L 725.727862 199.47236 
L 725.97145 192.676854 
L 726.215039 182.483596 
L 726.458627 185.881348 
L 726.702215 141.710562 
L 726.945804 199.47236 
L 727.189392 175.68809 
L 727.920157 219.858876 
L 728.163745 206.267865 
L 728.407334 148.506067 
L 728.650922 199.47236 
L 728.894511 213.063371 
L 729.138099 165.494831 
L 729.381687 182.483596 
L 729.868864 189.279101 
L 730.112452 209.665618 
L 730.356041 216.461124 
L 730.599629 168.892584 
L 730.843217 172.290337 
L 731.086806 179.085843 
L 731.330394 128.119551 
L 731.817571 158.699326 
L 732.061159 124.721798 
L 732.304747 155.301573 
L 732.548336 158.699326 
L 732.791924 155.301573 
L 733.035512 209.665618 
L 733.279101 134.915056 
L 733.522689 165.494831 
L 733.766277 168.892584 
L 734.009866 141.710562 
L 734.253454 141.710562 
L 734.497042 175.68809 
L 734.984219 151.90382 
L 735.227807 131.517303 
L 735.471396 141.710562 
L 735.714984 158.699326 
L 735.958573 155.301573 
L 736.202161 175.68809 
L 736.689338 107.733034 
L 736.932926 141.710562 
L 737.176514 128.119551 
L 737.420103 182.483596 
L 737.663691 134.915056 
L 737.907279 175.68809 
L 738.150868 182.483596 
L 738.394456 155.301573 
L 738.638044 148.506067 
L 738.881633 155.301573 
L 739.125221 175.68809 
L 739.368809 182.483596 
L 739.612398 192.676854 
L 740.099574 151.90382 
L 740.343163 196.074607 
L 740.586751 165.494831 
L 740.830339 196.074607 
L 741.073928 168.892584 
L 741.561104 138.312809 
L 741.804693 172.290337 
L 742.048281 107.733034 
L 742.291869 162.097079 
L 742.535458 121.324045 
L 742.779046 175.68809 
L 743.022635 162.097079 
L 743.266223 185.881348 
L 743.509811 131.517303 
L 743.7534 175.68809 
L 743.996988 165.494831 
L 744.240576 138.312809 
L 744.484165 151.90382 
L 744.727753 172.290337 
L 744.971341 128.119551 
L 745.21493 155.301573 
L 745.702106 175.68809 
L 745.945695 158.699326 
L 746.189283 162.097079 
L 746.432871 134.915056 
L 746.67646 141.710562 
L 746.920048 158.699326 
L 747.163636 155.301573 
L 747.163636 155.301573 
" style="fill:none;stroke:#1f77b4;stroke-linecap:square;stroke-width:1.5;"/>
   </g>
   <g id="line2d_13">
    <path clip-path="url(#p340202f12f)" d="M 737.663691 384.48 
L 737.663691 51.84 
" style="fill:none;stroke:#808080;stroke-linecap:square;"/>
   </g>
   <g id="patch_32">
    <path d="M 108 384.48 
L 108 51.84 
" style="fill:none;stroke:#000000;stroke-linecap:square;stroke-linejoin:miter;stroke-width:0.8;"/>
   </g>
   <g id="patch_33">
    <path d="M 777.6 384.48 
L 777.6 51.84 
" style="fill:none;stroke:#000000;stroke-linecap:square;stroke-linejoin:miter;stroke-width:0.8;"/>
   </g>
   <g id="patch_34">
    <path d="M 108 384.48 
L 777.6 384.48 
" style="fill:none;stroke:#000000;stroke-linecap:square;stroke-linejoin:miter;stroke-width:0.8;"/>
   </g>
   <g id="patch_35">
    <path d="M 108 51.84 
L 777.6 51.84 
" style="fill:none;stroke:#000000;stroke-linecap:square;stroke-linejoin:miter;stroke-width:0.8;"/>
   </g>
   <g id="text_14">
    <!-- speed_6005.csv -->
    <defs>
     <path d="M 45.40625 46.390625 
L 45.40625 75.984375 
L 54.390625 75.984375 
L 54.390625 0 
L 45.40625 0 
L 45.40625 8.203125 
Q 42.578125 3.328125 38.25 0.953125 
Q 33.9375 -1.421875 27.875 -1.421875 
Q 17.96875 -1.421875 11.734375 6.484375 
Q 5.515625 14.40625 5.515625 27.296875 
Q 5.515625 40.1875 11.734375 48.09375 
Q 17.96875 56 27.875 56 
Q 33.9375 56 38.25 53.625 
Q 42.578125 51.265625 45.40625 46.390625 
z
M 14.796875 27.296875 
Q 14.796875 17.390625 18.875 11.75 
Q 22.953125 6.109375 30.078125 6.109375 
Q 37.203125 6.109375 41.296875 11.75 
Q 45.40625 17.390625 45.40625 27.296875 
Q 45.40625 37.203125 41.296875 42.84375 
Q 37.203125 48.484375 30.078125 48.484375 
Q 22.953125 48.484375 18.875 42.84375 
Q 14.796875 37.203125 14.796875 27.296875 
z
" id="DejaVuSans-100"/>
     <path d="M 50.984375 -16.609375 
L 50.984375 -23.578125 
L -0.984375 -23.578125 
L -0.984375 -16.609375 
z
" id="DejaVuSans-95"/>
     <path d="M 10.6875 12.40625 
L 21 12.40625 
L 21 0 
L 10.6875 0 
z
" id="DejaVuSans-46"/>
     <path d="M 48.78125 52.59375 
L 48.78125 44.1875 
Q 44.96875 46.296875 41.140625 47.34375 
Q 37.3125 48.390625 33.40625 48.390625 
Q 24.65625 48.390625 19.8125 42.84375 
Q 14.984375 37.3125 14.984375 27.296875 
Q 14.984375 17.28125 19.8125 11.734375 
Q 24.65625 6.203125 33.40625 6.203125 
Q 37.3125 6.203125 41.140625 7.25 
Q 44.96875 8.296875 48.78125 10.40625 
L 48.78125 2.09375 
Q 45.015625 0.34375 40.984375 -0.53125 
Q 36.96875 -1.421875 32.421875 -1.421875 
Q 20.0625 -1.421875 12.78125 6.34375 
Q 5.515625 14.109375 5.515625 27.296875 
Q 5.515625 40.671875 12.859375 48.328125 
Q 20.21875 56 33.015625 56 
Q 37.15625 56 41.109375 55.140625 
Q 45.0625 54.296875 48.78125 52.59375 
z
" id="DejaVuSans-99"/>
     <path d="M 2.984375 54.6875 
L 12.5 54.6875 
L 29.59375 8.796875 
L 46.6875 54.6875 
L 56.203125 54.6875 
L 35.6875 0 
L 23.484375 0 
z
" id="DejaVuSans-118"/>
    </defs>
    <g transform="translate(394.519688 45.84)scale(0.12 -0.12)">
     <use xlink:href="#DejaVuSans-115"/>
     <use x="52.099609" xlink:href="#DejaVuSans-112"/>
     <use x="115.576172" xlink:href="#DejaVuSans-101"/>
     <use x="177.099609" xlink:href="#DejaVuSans-101"/>
     <use x="238.623047" xlink:href="#DejaVuSans-100"/>
     <use x="302.099609" xlink:href="#DejaVuSans-95"/>
     <use x="352.099609" xlink:href="#DejaVuSans-54"/>
     <use x="415.722656" xlink:href="#DejaVuSans-48"/>
     <use x="479.345703" xlink:href="#DejaVuSans-48"/>
     <use x="542.96875" xlink:href="#DejaVuSans-53"/>
     <use x="606.591797" xlink:href="#DejaVuSans-46"/>
     <use x="638.378906" xlink:href="#DejaVuSans-99"/>
     <use x="693.359375" xlink:href="#DejaVuSans-115"/>
     <use x="745.458984" xlink:href="#DejaVuSans-118"/>
    </g>
   </g>
   <g id="legend_1">
    <g id="patch_36">
     <path d="M 115 74.518125 
L 174.315625 74.518125 
Q 176.315625 74.518125 176.315625 72.518125 
L 176.315625 58.84 
Q 176.315625 56.84 174.315625 56.84 
L 115 56.84 
Q 113 56.84 113 58.84 
L 113 72.518125 
Q 113 74.518125 115 74.518125 
z
" style="fill:#ffffff;opacity:0.8;stroke:#cccccc;stroke-linejoin:miter;"/>
    </g>
    <g id="line2d_14">
     <path d="M 117 64.938438 
L 137 64.938438 
" style="fill:none;stroke:#1f77b4;stroke-linecap:square;stroke-width:1.5;"/>
    </g>
    <g id="line2d_15"/>
    <g id="text_15">
     <!-- value -->
     <g transform="translate(145 68.438438)scale(0.1 -0.1)">
      <use xlink:href="#DejaVuSans-118"/>
      <use x="59.179688" xlink:href="#DejaVuSans-97"/>
      <use x="120.458984" xlink:href="#DejaVuSans-108"/>
      <use x="148.242188" xlink:href="#DejaVuSans-117"/>
      <use x="211.621094" xlink:href="#DejaVuSans-101"/>
     </g>
    </g>
   </g>
  </g>
 </g>
 <defs>
  <clipPath id="p340202f12f">
   <rect height="332.64" width="669.6" x="108" y="51.84"/>
  </clipPath>
 </defs>
</svg>
