<?xml version="1.0" encoding="utf-8" standalone="no"?>
<!DOCTYPE svg PUBLIC "-//W3C//DTD SVG 1.1//EN"
  "http://www.w3.org/Graphics/SVG/1.1/DTD/svg11.dtd">
<!-- Created with matplotlib (https://matplotlib.org/) -->
<svg height="432pt" version="1.1" viewBox="0 0 864 432" width="864pt" xmlns="http://www.w3.org/2000/svg" xmlns:xlink="http://www.w3.org/1999/xlink">
 <defs>
  <style type="text/css">
*{stroke-linecap:butt;stroke-linejoin:round;}
  </style>
 </defs>
 <g id="figure_1">
  <g id="patch_1">
   <path d="M 0 432 
L 864 432 
L 864 0 
L 0 0 
z
" style="fill:#ffffff;"/>
  </g>
  <g id="axes_1">
   <g id="patch_2">
    <path d="M 108 384.48 
L 777.6 384.48 
L 777.6 51.84 
L 108 51.84 
z
" style="fill:#ffffff;"/>
   </g>
   <g id="patch_3">
    <path clip-path="url(#p0206f5ad16)" d="M 138.436364 384.48 
L 138.436364 51.84 
L 372.281174 51.84 
L 372.281174 384.48 
z
" style="fill:#0000ff;opacity:0.05;"/>
   </g>
   <g id="patch_4">
    <path clip-path="url(#p0206f5ad16)" d="M 372.281174 384.48 
L 372.281174 51.84 
L 737.663691 51.84 
L 737.663691 384.48 
z
" style="fill:#ff0000;opacity:0.08;"/>
   </g>
   <g id="patch_5">
    <path clip-path="url(#p0206f5ad16)" d="M 138.436364 384.48 
L 138.436364 51.84 
L 153.051664 51.84 
L 153.051664 384.48 
z
" style="fill:#008000;opacity:0.04;"/>
   </g>
   <g id="patch_6">
    <path clip-path="url(#p0206f5ad16)" d="M 167.666965 384.48 
L 167.666965 51.84 
L 182.282266 51.84 
L 182.282266 384.48 
z
" style="fill:#008000;opacity:0.04;"/>
   </g>
   <g id="patch_7">
    <path clip-path="url(#p0206f5ad16)" d="M 167.666965 384.48 
L 167.666965 371.1744 
L 182.282266 371.1744 
L 182.282266 384.48 
z
" style="fill:#ffe500;"/>
   </g>
   <g id="patch_8">
    <path clip-path="url(#p0206f5ad16)" d="M 196.897566 384.48 
L 196.897566 51.84 
L 211.512867 51.84 
L 211.512867 384.48 
z
" style="fill:#008000;opacity:0.04;"/>
   </g>
   <g id="patch_9">
    <path clip-path="url(#p0206f5ad16)" d="M 226.128168 384.48 
L 226.128168 51.84 
L 240.743468 51.84 
L 240.743468 384.48 
z
" style="fill:#008000;opacity:0.04;"/>
   </g>
   <g id="patch_10">
    <path clip-path="url(#p0206f5ad16)" d="M 255.358769 384.48 
L 255.358769 51.84 
L 269.97407 51.84 
L 269.97407 384.48 
z
" style="fill:#008000;opacity:0.04;"/>
   </g>
   <g id="patch_11">
    <path clip-path="url(#p0206f5ad16)" d="M 489.20358 384.48 
L 489.20358 371.1744 
L 503.81888 371.1744 
L 503.81888 384.48 
z
" style="fill:#ff6600;"/>
   </g>
   <g id="patch_12">
    <path clip-path="url(#p0206f5ad16)" d="M 284.58937 384.48 
L 284.58937 51.84 
L 299.204671 51.84 
L 299.204671 384.48 
z
" style="fill:#008000;opacity:0.04;"/>
   </g>
   <g id="patch_13">
    <path clip-path="url(#p0206f5ad16)" d="M 313.819972 384.48 
L 313.819972 51.84 
L 328.435272 51.84 
L 328.435272 384.48 
z
" style="fill:#008000;opacity:0.04;"/>
   </g>
   <g id="patch_14">
    <path clip-path="url(#p0206f5ad16)" d="M 343.050573 384.48 
L 343.050573 51.84 
L 357.665874 51.84 
L 357.665874 384.48 
z
" style="fill:#008000;opacity:0.04;"/>
   </g>
   <g id="patch_15">
    <path clip-path="url(#p0206f5ad16)" d="M 372.281174 384.48 
L 372.281174 51.84 
L 386.896475 51.84 
L 386.896475 384.48 
z
" style="fill:#008000;opacity:0.04;"/>
   </g>
   <g id="patch_16">
    <path clip-path="url(#p0206f5ad16)" d="M 401.511776 384.48 
L 401.511776 51.84 
L 416.127076 51.84 
L 416.127076 384.48 
z
" style="fill:#008000;opacity:0.04;"/>
   </g>
   <g id="patch_17">
    <path clip-path="url(#p0206f5ad16)" d="M 649.971887 384.48 
L 649.971887 371.1744 
L 664.587188 371.1744 
L 664.587188 384.48 
z
" style="fill:#ff6600;"/>
   </g>
   <g id="patch_18">
    <path clip-path="url(#p0206f5ad16)" d="M 430.742377 384.48 
L 430.742377 51.84 
L 445.357678 51.84 
L 445.357678 384.48 
z
" style="fill:#008000;opacity:0.04;"/>
   </g>
   <g id="patch_19">
    <path clip-path="url(#p0206f5ad16)" d="M 459.972978 384.48 
L 459.972978 51.84 
L 474.588279 51.84 
L 474.588279 384.48 
z
" style="fill:#008000;opacity:0.04;"/>
   </g>
   <g id="patch_20">
    <path clip-path="url(#p0206f5ad16)" d="M 708.43309 384.48 
L 708.43309 371.1744 
L 723.04839 371.1744 
L 723.04839 384.48 
z
" style="fill:#ff6600;"/>
   </g>
   <g id="patch_21">
    <path clip-path="url(#p0206f5ad16)" d="M 489.20358 384.48 
L 489.20358 51.84 
L 503.81888 51.84 
L 503.81888 384.48 
z
" style="fill:#008000;opacity:0.04;"/>
   </g>
   <g id="patch_22">
    <path clip-path="url(#p0206f5ad16)" d="M 518.434181 384.48 
L 518.434181 51.84 
L 533.049482 51.84 
L 533.049482 384.48 
z
" style="fill:#008000;opacity:0.04;"/>
   </g>
   <g id="patch_23">
    <path clip-path="url(#p0206f5ad16)" d="M 547.664782 384.48 
L 547.664782 51.84 
L 562.280083 51.84 
L 562.280083 384.48 
z
" style="fill:#008000;opacity:0.04;"/>
   </g>
   <g id="patch_24">
    <path clip-path="url(#p0206f5ad16)" d="M 576.895384 384.48 
L 576.895384 51.84 
L 591.510684 51.84 
L 591.510684 384.48 
z
" style="fill:#008000;opacity:0.04;"/>
   </g>
   <g id="patch_25">
    <path clip-path="url(#p0206f5ad16)" d="M 606.125985 384.48 
L 606.125985 51.84 
L 620.741286 51.84 
L 620.741286 384.48 
z
" style="fill:#008000;opacity:0.04;"/>
   </g>
   <g id="patch_26">
    <path clip-path="url(#p0206f5ad16)" d="M 635.356586 384.48 
L 635.356586 51.84 
L 649.971887 51.84 
L 649.971887 384.48 
z
" style="fill:#008000;opacity:0.04;"/>
   </g>
   <g id="patch_27">
    <path clip-path="url(#p0206f5ad16)" d="M 635.356586 371.1744 
L 635.356586 51.84 
L 649.971887 51.84 
L 649.971887 371.1744 
z
" style="fill:#008000;opacity:0.5;"/>
   </g>
   <g id="patch_28">
    <path clip-path="url(#p0206f5ad16)" d="M 649.971887 371.1744 
L 649.971887 51.84 
L 664.587188 51.84 
L 664.587188 371.1744 
z
" style="fill:#008000;opacity:0.5;"/>
   </g>
   <g id="patch_29">
    <path clip-path="url(#p0206f5ad16)" d="M 664.587188 384.48 
L 664.587188 51.84 
L 679.202488 51.84 
L 679.202488 384.48 
z
" style="fill:#008000;opacity:0.04;"/>
   </g>
   <g id="patch_30">
    <path clip-path="url(#p0206f5ad16)" d="M 664.587188 371.1744 
L 664.587188 51.84 
L 679.202488 51.84 
L 679.202488 371.1744 
z
" style="fill:#008000;opacity:0.5;"/>
   </g>
   <g id="patch_31">
    <path clip-path="url(#p0206f5ad16)" d="M 693.817789 384.48 
L 693.817789 51.84 
L 708.43309 51.84 
L 708.43309 384.48 
z
" style="fill:#008000;opacity:0.04;"/>
   </g>
   <g id="patch_32">
    <path clip-path="url(#p0206f5ad16)" d="M 693.817789 371.1744 
L 693.817789 51.84 
L 708.43309 51.84 
L 708.43309 371.1744 
z
" style="fill:#008000;opacity:0.5;"/>
   </g>
   <g id="patch_33">
    <path clip-path="url(#p0206f5ad16)" d="M 708.43309 371.1744 
L 708.43309 51.84 
L 723.04839 51.84 
L 723.04839 371.1744 
z
" style="fill:#008000;opacity:0.5;"/>
   </g>
   <g id="patch_34">
    <path clip-path="url(#p0206f5ad16)" d="M 723.04839 384.48 
L 723.04839 51.84 
L 737.663691 51.84 
L 737.663691 384.48 
z
" style="fill:#008000;opacity:0.04;"/>
   </g>
   <g id="patch_35">
    <path clip-path="url(#p0206f5ad16)" d="M 723.04839 371.1744 
L 723.04839 51.84 
L 737.663691 51.84 
L 737.663691 371.1744 
z
" style="fill:#008000;opacity:0.5;"/>
   </g>
   <g id="matplotlib.axis_1">
    <g id="xtick_1">
     <g id="line2d_1">
      <defs>
       <path d="M 0 0 
L 0 3.5 
" id="m5b413b0c0c" style="stroke:#000000;stroke-width:0.8;"/>
      </defs>
      <g>
       <use style="stroke:#000000;stroke-width:0.8;" x="138.436364" xlink:href="#m5b413b0c0c" y="384.48"/>
      </g>
     </g>
     <g id="text_1">
      <!-- 0 -->
      <defs>
       <path d="M 31.78125 66.40625 
Q 24.171875 66.40625 20.328125 58.90625 
Q 16.5 51.421875 16.5 36.375 
Q 16.5 21.390625 20.328125 13.890625 
Q 24.171875 6.390625 31.78125 6.390625 
Q 39.453125 6.390625 43.28125 13.890625 
Q 47.125 21.390625 47.125 36.375 
Q 47.125 51.421875 43.28125 58.90625 
Q 39.453125 66.40625 31.78125 66.40625 
z
M 31.78125 74.21875 
Q 44.046875 74.21875 50.515625 64.515625 
Q 56.984375 54.828125 56.984375 36.375 
Q 56.984375 17.96875 50.515625 8.265625 
Q 44.046875 -1.421875 31.78125 -1.421875 
Q 19.53125 -1.421875 13.0625 8.265625 
Q 6.59375 17.96875 6.59375 36.375 
Q 6.59375 54.828125 13.0625 64.515625 
Q 19.53125 74.21875 31.78125 74.21875 
z
" id="DejaVuSans-48"/>
      </defs>
      <g transform="translate(135.255114 399.078438)scale(0.1 -0.1)">
       <use xlink:href="#DejaVuSans-48"/>
      </g>
     </g>
    </g>
    <g id="xtick_2">
     <g id="line2d_2">
      <g>
       <use style="stroke:#000000;stroke-width:0.8;" x="260.230536" xlink:href="#m5b413b0c0c" y="384.48"/>
      </g>
     </g>
     <g id="text_2">
      <!-- 500 -->
      <defs>
       <path d="M 10.796875 72.90625 
L 49.515625 72.90625 
L 49.515625 64.59375 
L 19.828125 64.59375 
L 19.828125 46.734375 
Q 21.96875 47.46875 24.109375 47.828125 
Q 26.265625 48.1875 28.421875 48.1875 
Q 40.625 48.1875 47.75 41.5 
Q 54.890625 34.8125 54.890625 23.390625 
Q 54.890625 11.625 47.5625 5.09375 
Q 40.234375 -1.421875 26.90625 -1.421875 
Q 22.3125 -1.421875 17.546875 -0.640625 
Q 12.796875 0.140625 7.71875 1.703125 
L 7.71875 11.625 
Q 12.109375 9.234375 16.796875 8.0625 
Q 21.484375 6.890625 26.703125 6.890625 
Q 35.15625 6.890625 40.078125 11.328125 
Q 45.015625 15.765625 45.015625 23.390625 
Q 45.015625 31 40.078125 35.4375 
Q 35.15625 39.890625 26.703125 39.890625 
Q 22.75 39.890625 18.8125 39.015625 
Q 14.890625 38.140625 10.796875 36.28125 
z
" id="DejaVuSans-53"/>
      </defs>
      <g transform="translate(250.686786 399.078438)scale(0.1 -0.1)">
       <use xlink:href="#DejaVuSans-53"/>
       <use x="63.623047" xlink:href="#DejaVuSans-48"/>
       <use x="127.246094" xlink:href="#DejaVuSans-48"/>
      </g>
     </g>
    </g>
    <g id="xtick_3">
     <g id="line2d_3">
      <g>
       <use style="stroke:#000000;stroke-width:0.8;" x="382.024708" xlink:href="#m5b413b0c0c" y="384.48"/>
      </g>
     </g>
     <g id="text_3">
      <!-- 1000 -->
      <defs>
       <path d="M 12.40625 8.296875 
L 28.515625 8.296875 
L 28.515625 63.921875 
L 10.984375 60.40625 
L 10.984375 69.390625 
L 28.421875 72.90625 
L 38.28125 72.90625 
L 38.28125 8.296875 
L 54.390625 8.296875 
L 54.390625 0 
L 12.40625 0 
z
" id="DejaVuSans-49"/>
      </defs>
      <g transform="translate(369.299708 399.078438)scale(0.1 -0.1)">
       <use xlink:href="#DejaVuSans-49"/>
       <use x="63.623047" xlink:href="#DejaVuSans-48"/>
       <use x="127.246094" xlink:href="#DejaVuSans-48"/>
       <use x="190.869141" xlink:href="#DejaVuSans-48"/>
      </g>
     </g>
    </g>
    <g id="xtick_4">
     <g id="line2d_4">
      <g>
       <use style="stroke:#000000;stroke-width:0.8;" x="503.81888" xlink:href="#m5b413b0c0c" y="384.48"/>
      </g>
     </g>
     <g id="text_4">
      <!-- 1500 -->
      <g transform="translate(491.09388 399.078438)scale(0.1 -0.1)">
       <use xlink:href="#DejaVuSans-49"/>
       <use x="63.623047" xlink:href="#DejaVuSans-53"/>
       <use x="127.246094" xlink:href="#DejaVuSans-48"/>
       <use x="190.869141" xlink:href="#DejaVuSans-48"/>
      </g>
     </g>
    </g>
    <g id="xtick_5">
     <g id="line2d_5">
      <g>
       <use style="stroke:#000000;stroke-width:0.8;" x="625.613052" xlink:href="#m5b413b0c0c" y="384.48"/>
      </g>
     </g>
     <g id="text_5">
      <!-- 2000 -->
      <defs>
       <path d="M 19.1875 8.296875 
L 53.609375 8.296875 
L 53.609375 0 
L 7.328125 0 
L 7.328125 8.296875 
Q 12.9375 14.109375 22.625 23.890625 
Q 32.328125 33.6875 34.8125 36.53125 
Q 39.546875 41.84375 41.421875 45.53125 
Q 43.3125 49.21875 43.3125 52.78125 
Q 43.3125 58.59375 39.234375 62.25 
Q 35.15625 65.921875 28.609375 65.921875 
Q 23.96875 65.921875 18.8125 64.3125 
Q 13.671875 62.703125 7.8125 59.421875 
L 7.8125 69.390625 
Q 13.765625 71.78125 18.9375 73 
Q 24.125 74.21875 28.421875 74.21875 
Q 39.75 74.21875 46.484375 68.546875 
Q 53.21875 62.890625 53.21875 53.421875 
Q 53.21875 48.921875 51.53125 44.890625 
Q 49.859375 40.875 45.40625 35.40625 
Q 44.1875 33.984375 37.640625 27.21875 
Q 31.109375 20.453125 19.1875 8.296875 
z
" id="DejaVuSans-50"/>
      </defs>
      <g transform="translate(612.888052 399.078438)scale(0.1 -0.1)">
       <use xlink:href="#DejaVuSans-50"/>
       <use x="63.623047" xlink:href="#DejaVuSans-48"/>
       <use x="127.246094" xlink:href="#DejaVuSans-48"/>
       <use x="190.869141" xlink:href="#DejaVuSans-48"/>
      </g>
     </g>
    </g>
    <g id="xtick_6">
     <g id="line2d_6">
      <g>
       <use style="stroke:#000000;stroke-width:0.8;" x="747.407225" xlink:href="#m5b413b0c0c" y="384.48"/>
      </g>
     </g>
     <g id="text_6">
      <!-- 2500 -->
      <g transform="translate(734.682225 399.078438)scale(0.1 -0.1)">
       <use xlink:href="#DejaVuSans-50"/>
       <use x="63.623047" xlink:href="#DejaVuSans-53"/>
       <use x="127.246094" xlink:href="#DejaVuSans-48"/>
       <use x="190.869141" xlink:href="#DejaVuSans-48"/>
      </g>
     </g>
    </g>
    <g id="text_7">
     <!-- Timestamp -->
     <defs>
      <path d="M -0.296875 72.90625 
L 61.375 72.90625 
L 61.375 64.59375 
L 35.5 64.59375 
L 35.5 0 
L 25.59375 0 
L 25.59375 64.59375 
L -0.296875 64.59375 
z
" id="DejaVuSans-84"/>
      <path d="M 9.421875 54.6875 
L 18.40625 54.6875 
L 18.40625 0 
L 9.421875 0 
z
M 9.421875 75.984375 
L 18.40625 75.984375 
L 18.40625 64.59375 
L 9.421875 64.59375 
z
" id="DejaVuSans-105"/>
      <path d="M 52 44.1875 
Q 55.375 50.25 60.0625 53.125 
Q 64.75 56 71.09375 56 
Q 79.640625 56 84.28125 50.015625 
Q 88.921875 44.046875 88.921875 33.015625 
L 88.921875 0 
L 79.890625 0 
L 79.890625 32.71875 
Q 79.890625 40.578125 77.09375 44.375 
Q 74.3125 48.1875 68.609375 48.1875 
Q 61.625 48.1875 57.5625 43.546875 
Q 53.515625 38.921875 53.515625 30.90625 
L 53.515625 0 
L 44.484375 0 
L 44.484375 32.71875 
Q 44.484375 40.625 41.703125 44.40625 
Q 38.921875 48.1875 33.109375 48.1875 
Q 26.21875 48.1875 22.15625 43.53125 
Q 18.109375 38.875 18.109375 30.90625 
L 18.109375 0 
L 9.078125 0 
L 9.078125 54.6875 
L 18.109375 54.6875 
L 18.109375 46.1875 
Q 21.1875 51.21875 25.484375 53.609375 
Q 29.78125 56 35.6875 56 
Q 41.65625 56 45.828125 52.96875 
Q 50 49.953125 52 44.1875 
z
" id="DejaVuSans-109"/>
      <path d="M 56.203125 29.59375 
L 56.203125 25.203125 
L 14.890625 25.203125 
Q 15.484375 15.921875 20.484375 11.0625 
Q 25.484375 6.203125 34.421875 6.203125 
Q 39.59375 6.203125 44.453125 7.46875 
Q 49.3125 8.734375 54.109375 11.28125 
L 54.109375 2.78125 
Q 49.265625 0.734375 44.1875 -0.34375 
Q 39.109375 -1.421875 33.890625 -1.421875 
Q 20.796875 -1.421875 13.15625 6.1875 
Q 5.515625 13.8125 5.515625 26.8125 
Q 5.515625 40.234375 12.765625 48.109375 
Q 20.015625 56 32.328125 56 
Q 43.359375 56 49.78125 48.890625 
Q 56.203125 41.796875 56.203125 29.59375 
z
M 47.21875 32.234375 
Q 47.125 39.59375 43.09375 43.984375 
Q 39.0625 48.390625 32.421875 48.390625 
Q 24.90625 48.390625 20.390625 44.140625 
Q 15.875 39.890625 15.1875 32.171875 
z
" id="DejaVuSans-101"/>
      <path d="M 44.28125 53.078125 
L 44.28125 44.578125 
Q 40.484375 46.53125 36.375 47.5 
Q 32.28125 48.484375 27.875 48.484375 
Q 21.1875 48.484375 17.84375 46.4375 
Q 14.5 44.390625 14.5 40.28125 
Q 14.5 37.15625 16.890625 35.375 
Q 19.28125 33.59375 26.515625 31.984375 
L 29.59375 31.296875 
Q 39.15625 29.25 43.1875 25.515625 
Q 47.21875 21.78125 47.21875 15.09375 
Q 47.21875 7.46875 41.1875 3.015625 
Q 35.15625 -1.421875 24.609375 -1.421875 
Q 20.21875 -1.421875 15.453125 -0.5625 
Q 10.6875 0.296875 5.421875 2 
L 5.421875 11.28125 
Q 10.40625 8.6875 15.234375 7.390625 
Q 20.0625 6.109375 24.8125 6.109375 
Q 31.15625 6.109375 34.5625 8.28125 
Q 37.984375 10.453125 37.984375 14.40625 
Q 37.984375 18.0625 35.515625 20.015625 
Q 33.0625 21.96875 24.703125 23.78125 
L 21.578125 24.515625 
Q 13.234375 26.265625 9.515625 29.90625 
Q 5.8125 33.546875 5.8125 39.890625 
Q 5.8125 47.609375 11.28125 51.796875 
Q 16.75 56 26.8125 56 
Q 31.78125 56 36.171875 55.265625 
Q 40.578125 54.546875 44.28125 53.078125 
z
" id="DejaVuSans-115"/>
      <path d="M 18.3125 70.21875 
L 18.3125 54.6875 
L 36.8125 54.6875 
L 36.8125 47.703125 
L 18.3125 47.703125 
L 18.3125 18.015625 
Q 18.3125 11.328125 20.140625 9.421875 
Q 21.96875 7.515625 27.59375 7.515625 
L 36.8125 7.515625 
L 36.8125 0 
L 27.59375 0 
Q 17.1875 0 13.234375 3.875 
Q 9.28125 7.765625 9.28125 18.015625 
L 9.28125 47.703125 
L 2.6875 47.703125 
L 2.6875 54.6875 
L 9.28125 54.6875 
L 9.28125 70.21875 
z
" id="DejaVuSans-116"/>
      <path d="M 34.28125 27.484375 
Q 23.390625 27.484375 19.1875 25 
Q 14.984375 22.515625 14.984375 16.5 
Q 14.984375 11.71875 18.140625 8.90625 
Q 21.296875 6.109375 26.703125 6.109375 
Q 34.1875 6.109375 38.703125 11.40625 
Q 43.21875 16.703125 43.21875 25.484375 
L 43.21875 27.484375 
z
M 52.203125 31.203125 
L 52.203125 0 
L 43.21875 0 
L 43.21875 8.296875 
Q 40.140625 3.328125 35.546875 0.953125 
Q 30.953125 -1.421875 24.3125 -1.421875 
Q 15.921875 -1.421875 10.953125 3.296875 
Q 6 8.015625 6 15.921875 
Q 6 25.140625 12.171875 29.828125 
Q 18.359375 34.515625 30.609375 34.515625 
L 43.21875 34.515625 
L 43.21875 35.40625 
Q 43.21875 41.609375 39.140625 45 
Q 35.0625 48.390625 27.6875 48.390625 
Q 23 48.390625 18.546875 47.265625 
Q 14.109375 46.140625 10.015625 43.890625 
L 10.015625 52.203125 
Q 14.9375 54.109375 19.578125 55.046875 
Q 24.21875 56 28.609375 56 
Q 40.484375 56 46.34375 49.84375 
Q 52.203125 43.703125 52.203125 31.203125 
z
" id="DejaVuSans-97"/>
      <path d="M 18.109375 8.203125 
L 18.109375 -20.796875 
L 9.078125 -20.796875 
L 9.078125 54.6875 
L 18.109375 54.6875 
L 18.109375 46.390625 
Q 20.953125 51.265625 25.265625 53.625 
Q 29.59375 56 35.59375 56 
Q 45.5625 56 51.78125 48.09375 
Q 58.015625 40.1875 58.015625 27.296875 
Q 58.015625 14.40625 51.78125 6.484375 
Q 45.5625 -1.421875 35.59375 -1.421875 
Q 29.59375 -1.421875 25.265625 0.953125 
Q 20.953125 3.328125 18.109375 8.203125 
z
M 48.6875 27.296875 
Q 48.6875 37.203125 44.609375 42.84375 
Q 40.53125 48.484375 33.40625 48.484375 
Q 26.265625 48.484375 22.1875 42.84375 
Q 18.109375 37.203125 18.109375 27.296875 
Q 18.109375 17.390625 22.1875 11.75 
Q 26.265625 6.109375 33.40625 6.109375 
Q 40.53125 6.109375 44.609375 11.75 
Q 48.6875 17.390625 48.6875 27.296875 
z
" id="DejaVuSans-112"/>
     </defs>
     <g transform="translate(414.739062 412.756563)scale(0.1 -0.1)">
      <use xlink:href="#DejaVuSans-84"/>
      <use x="61.037109" xlink:href="#DejaVuSans-105"/>
      <use x="88.820312" xlink:href="#DejaVuSans-109"/>
      <use x="186.232422" xlink:href="#DejaVuSans-101"/>
      <use x="247.755859" xlink:href="#DejaVuSans-115"/>
      <use x="299.855469" xlink:href="#DejaVuSans-116"/>
      <use x="339.064453" xlink:href="#DejaVuSans-97"/>
      <use x="400.34375" xlink:href="#DejaVuSans-109"/>
      <use x="497.755859" xlink:href="#DejaVuSans-112"/>
     </g>
    </g>
   </g>
   <g id="matplotlib.axis_2">
    <g id="ytick_1">
     <g id="line2d_7">
      <defs>
       <path d="M 0 0 
L -3.5 0 
" id="m3e32c64d1f" style="stroke:#000000;stroke-width:0.8;"/>
      </defs>
      <g>
       <use style="stroke:#000000;stroke-width:0.8;" x="108" xlink:href="#m3e32c64d1f" y="369.36"/>
      </g>
     </g>
     <g id="text_8">
      <!-- 0 -->
      <g transform="translate(94.6375 373.159219)scale(0.1 -0.1)">
       <use xlink:href="#DejaVuSans-48"/>
      </g>
     </g>
    </g>
    <g id="ytick_2">
     <g id="line2d_8">
      <g>
       <use style="stroke:#000000;stroke-width:0.8;" x="108" xlink:href="#m3e32c64d1f" y="299.132411"/>
      </g>
     </g>
     <g id="text_9">
      <!-- 10 -->
      <g transform="translate(88.275 302.931629)scale(0.1 -0.1)">
       <use xlink:href="#DejaVuSans-49"/>
       <use x="63.623047" xlink:href="#DejaVuSans-48"/>
      </g>
     </g>
    </g>
    <g id="ytick_3">
     <g id="line2d_9">
      <g>
       <use style="stroke:#000000;stroke-width:0.8;" x="108" xlink:href="#m3e32c64d1f" y="228.904821"/>
      </g>
     </g>
     <g id="text_10">
      <!-- 20 -->
      <g transform="translate(88.275 232.70404)scale(0.1 -0.1)">
       <use xlink:href="#DejaVuSans-50"/>
       <use x="63.623047" xlink:href="#DejaVuSans-48"/>
      </g>
     </g>
    </g>
    <g id="ytick_4">
     <g id="line2d_10">
      <g>
       <use style="stroke:#000000;stroke-width:0.8;" x="108" xlink:href="#m3e32c64d1f" y="158.677232"/>
      </g>
     </g>
     <g id="text_11">
      <!-- 30 -->
      <defs>
       <path d="M 40.578125 39.3125 
Q 47.65625 37.796875 51.625 33 
Q 55.609375 28.21875 55.609375 21.1875 
Q 55.609375 10.40625 48.1875 4.484375 
Q 40.765625 -1.421875 27.09375 -1.421875 
Q 22.515625 -1.421875 17.65625 -0.515625 
Q 12.796875 0.390625 7.625 2.203125 
L 7.625 11.71875 
Q 11.71875 9.328125 16.59375 8.109375 
Q 21.484375 6.890625 26.8125 6.890625 
Q 36.078125 6.890625 40.9375 10.546875 
Q 45.796875 14.203125 45.796875 21.1875 
Q 45.796875 27.640625 41.28125 31.265625 
Q 36.765625 34.90625 28.71875 34.90625 
L 20.21875 34.90625 
L 20.21875 43.015625 
L 29.109375 43.015625 
Q 36.375 43.015625 40.234375 45.921875 
Q 44.09375 48.828125 44.09375 54.296875 
Q 44.09375 59.90625 40.109375 62.90625 
Q 36.140625 65.921875 28.71875 65.921875 
Q 24.65625 65.921875 20.015625 65.03125 
Q 15.375 64.15625 9.8125 62.3125 
L 9.8125 71.09375 
Q 15.4375 72.65625 20.34375 73.4375 
Q 25.25 74.21875 29.59375 74.21875 
Q 40.828125 74.21875 47.359375 69.109375 
Q 53.90625 64.015625 53.90625 55.328125 
Q 53.90625 49.265625 50.4375 45.09375 
Q 46.96875 40.921875 40.578125 39.3125 
z
" id="DejaVuSans-51"/>
      </defs>
      <g transform="translate(88.275 162.476451)scale(0.1 -0.1)">
       <use xlink:href="#DejaVuSans-51"/>
       <use x="63.623047" xlink:href="#DejaVuSans-48"/>
      </g>
     </g>
    </g>
    <g id="ytick_5">
     <g id="line2d_11">
      <g>
       <use style="stroke:#000000;stroke-width:0.8;" x="108" xlink:href="#m3e32c64d1f" y="88.449642"/>
      </g>
     </g>
     <g id="text_12">
      <!-- 40 -->
      <defs>
       <path d="M 37.796875 64.3125 
L 12.890625 25.390625 
L 37.796875 25.390625 
z
M 35.203125 72.90625 
L 47.609375 72.90625 
L 47.609375 25.390625 
L 58.015625 25.390625 
L 58.015625 17.1875 
L 47.609375 17.1875 
L 47.609375 0 
L 37.796875 0 
L 37.796875 17.1875 
L 4.890625 17.1875 
L 4.890625 26.703125 
z
" id="DejaVuSans-52"/>
      </defs>
      <g transform="translate(88.275 92.248861)scale(0.1 -0.1)">
       <use xlink:href="#DejaVuSans-52"/>
       <use x="63.623047" xlink:href="#DejaVuSans-48"/>
      </g>
     </g>
    </g>
    <g id="text_13">
     <!-- Value -->
     <defs>
      <path d="M 28.609375 0 
L 0.78125 72.90625 
L 11.078125 72.90625 
L 34.1875 11.53125 
L 57.328125 72.90625 
L 67.578125 72.90625 
L 39.796875 0 
z
" id="DejaVuSans-86"/>
      <path d="M 9.421875 75.984375 
L 18.40625 75.984375 
L 18.40625 0 
L 9.421875 0 
z
" id="DejaVuSans-108"/>
      <path d="M 8.5 21.578125 
L 8.5 54.6875 
L 17.484375 54.6875 
L 17.484375 21.921875 
Q 17.484375 14.15625 20.5 10.265625 
Q 23.53125 6.390625 29.59375 6.390625 
Q 36.859375 6.390625 41.078125 11.03125 
Q 45.3125 15.671875 45.3125 23.6875 
L 45.3125 54.6875 
L 54.296875 54.6875 
L 54.296875 0 
L 45.3125 0 
L 45.3125 8.40625 
Q 42.046875 3.421875 37.71875 1 
Q 33.40625 -1.421875 27.6875 -1.421875 
Q 18.265625 -1.421875 13.375 4.4375 
Q 8.5 10.296875 8.5 21.578125 
z
M 31.109375 56 
z
" id="DejaVuSans-117"/>
     </defs>
     <g transform="translate(82.195312 232.273281)rotate(-90)scale(0.1 -0.1)">
      <use xlink:href="#DejaVuSans-86"/>
      <use x="68.298828" xlink:href="#DejaVuSans-97"/>
      <use x="129.578125" xlink:href="#DejaVuSans-108"/>
      <use x="157.361328" xlink:href="#DejaVuSans-117"/>
      <use x="220.740234" xlink:href="#DejaVuSans-101"/>
     </g>
    </g>
   </g>
   <g id="line2d_12">
    <path clip-path="url(#p0206f5ad16)" d="M 138.436364 274.131389 
L 138.679952 310.860418 
L 139.167129 262.052243 
L 139.410717 298.711045 
L 139.654305 317.110673 
L 139.897894 312.405425 
L 140.141482 294.076024 
L 140.38507 286.280762 
L 140.628659 301.871287 
L 141.115835 294.076024 
L 141.359424 297.166038 
L 141.603012 273.007747 
L 142.090189 351.030599 
L 142.333777 317.883177 
L 142.577365 309.666549 
L 142.820954 295.199666 
L 143.064542 272.586382 
L 143.308131 314.722935 
L 143.551719 315.144301 
L 143.795307 298.359907 
L 144.038896 302.222425 
L 144.282484 264.439981 
L 144.526072 187.540771 
L 144.769661 297.938542 
L 145.013249 324.48457 
L 145.256837 278.836637 
L 145.500426 305.733804 
L 145.744014 287.404403 
L 145.987602 313.599294 
L 146.231191 311.984059 
L 146.474779 195.757399 
L 146.718367 305.733804 
L 146.961956 264.791119 
L 147.205544 311.211556 
L 147.449132 314.371797 
L 147.936309 264.439981 
L 148.179897 268.302499 
L 148.423486 316.689308 
L 148.667074 288.598272 
L 149.154251 307.349039 
L 149.397839 289.792141 
L 149.641427 290.915783 
L 149.885016 300.32628 
L 150.128604 315.495439 
L 150.372193 264.791119 
L 150.615781 318.234315 
L 150.859369 286.280762 
L 151.102958 273.007747 
L 151.346546 219.564552 
L 151.590134 217.598179 
L 151.833723 266.757492 
L 152.077311 262.052243 
L 152.564488 315.916804 
L 153.051664 294.076024 
L 153.295253 305.733804 
L 153.538841 271.041375 
L 153.782429 267.10863 
L 154.026018 312.756563 
L 154.269606 335.018709 
L 154.513194 315.144301 
L 154.756783 305.382666 
L 155.000371 320.973191 
L 155.243959 305.382666 
L 155.487548 310.860418 
L 155.731136 331.928695 
L 155.974724 326.450943 
L 156.218313 340.847599 
L 156.461901 319.779322 
L 156.705489 328.417315 
L 156.949078 308.47268 
L 157.436255 345.552847 
L 157.679843 330.734826 
L 158.16702 279.258003 
L 158.410608 326.450943 
L 158.654196 329.540957 
L 158.897785 326.029577 
L 159.141373 352.224468 
L 159.384961 341.268964 
L 159.62855 322.16706 
L 159.872138 359.247227 
L 160.115726 306.15517 
L 160.359315 361.915876 
L 160.602903 322.939563 
L 161.09008 346.325351 
L 161.333668 356.508351 
L 161.577256 347.097854 
L 161.820845 333.052336 
L 162.064433 351.381737 
L 162.308021 340.075095 
L 162.55161 364.654752 
L 162.795198 365.076117 
L 163.038786 350.258096 
L 163.282375 352.575606 
L 163.525963 329.540957 
L 163.769551 363.53111 
L 164.01314 358.053358 
L 164.256728 338.530088 
L 164.500316 343.586475 
L 164.987493 363.53111 
L 165.231082 357.280855 
L 165.47467 338.17895 
L 165.718258 330.734826 
L 165.961847 340.075095 
L 166.205435 353.769475 
L 166.449023 298.359907 
L 166.692612 357.280855 
L 166.9362 359.598365 
L 167.179788 326.450943 
L 167.423377 313.599294 
L 167.666965 329.540957 
L 167.910553 329.540957 
L 168.154142 338.17895 
L 168.39773 326.802081 
L 168.641318 354.120613 
L 168.884907 329.962322 
L 169.128495 324.133432 
L 169.372083 313.177928 
L 169.615672 296.8149 
L 169.85926 269.075002 
L 170.102848 270.620009 
L 170.346437 287.825769 
L 170.590025 278.485499 
L 170.833613 282.348017 
L 171.077202 251.518105 
L 171.32079 308.47268 
L 171.564378 216.825676 
L 171.807967 294.427162 
L 172.051555 283.12052 
L 172.295144 255.801988 
L 172.538732 189.507144 
L 172.78232 188.313275 
L 173.025909 303.065156 
L 173.269497 307.349039 
L 173.513085 287.053265 
L 173.756674 283.893024 
L 174.000262 268.723864 
L 174.24385 284.314389 
L 174.487439 273.358885 
L 174.731027 304.961301 
L 175.218204 231.994835 
L 175.461792 242.950339 
L 175.70538 269.847506 
L 175.948969 310.860418 
L 176.192557 258.962229 
L 176.436145 279.258003 
L 176.679734 220.337055 
L 176.923322 247.234222 
L 177.16691 256.223353 
L 177.410499 237.121449 
L 177.654087 250.745601 
L 177.897675 238.666456 
L 178.141264 279.609141 
L 178.384852 275.746623 
L 178.62844 227.710952 
L 178.872029 217.949317 
L 179.115617 286.6319 
L 179.359206 279.609141 
L 179.602794 283.893024 
L 179.846382 314.722935 
L 180.089971 323.290701 
L 180.333559 277.642768 
L 180.577147 263.59725 
L 180.820736 287.053265 
L 181.064324 323.712067 
L 181.307912 280.030506 
L 181.551501 302.222425 
L 181.795089 272.586382 
L 182.038677 282.769382 
L 182.282266 304.610163 
L 182.525854 296.393535 
L 182.769442 333.82484 
L 183.013031 329.189819 
L 183.256619 295.199666 
L 183.500207 280.030506 
L 183.743796 240.632829 
L 183.987384 307.700176 
L 184.230972 301.871287 
L 184.474561 275.746623 
L 184.718149 320.200687 
L 185.205326 286.6319 
L 185.448914 347.870358 
L 185.692502 275.746623 
L 185.936091 269.075002 
L 186.179679 268.723864 
L 186.423267 320.973191 
L 186.666856 290.564645 
L 186.910444 311.984059 
L 187.154033 311.211556 
L 187.397621 263.246112 
L 187.641209 277.642768 
L 187.884798 282.348017 
L 188.128386 276.097761 
L 188.371974 326.802081 
L 188.615563 245.689215 
L 189.102739 298.359907 
L 189.346328 307.349039 
L 189.589916 278.836637 
L 189.833504 336.985081 
L 190.077093 262.052243 
L 190.320681 323.290701 
L 190.807858 273.358885 
L 191.051446 307.700176 
L 191.295034 286.6319 
L 191.538623 299.553776 
L 192.025799 281.996879 
L 192.269388 280.80301 
L 192.512976 293.654659 
L 192.756564 297.166038 
L 193.000153 269.847506 
L 193.243741 273.007747 
L 193.487329 280.381644 
L 193.974506 261.27974 
L 194.218095 274.97412 
L 194.461683 296.8149 
L 194.705271 284.665527 
L 194.94886 290.915783 
L 195.192448 271.041375 
L 195.436036 286.6319 
L 195.679625 273.780251 
L 195.923213 317.110673 
L 196.41039 287.404403 
L 196.653978 309.245183 
L 196.897566 316.689308 
L 197.141155 283.541886 
L 197.384743 281.996879 
L 197.628331 313.950432 
L 197.87192 244.916712 
L 198.115508 271.46274 
L 198.359096 285.508258 
L 198.602685 275.325258 
L 198.846273 306.576535 
L 199.089861 268.723864 
L 199.33345 266.336126 
L 199.577038 290.915783 
L 199.820626 239.43896 
L 200.064215 330.31346 
L 200.307803 298.359907 
L 200.551391 294.076024 
L 200.79498 310.087915 
L 201.038568 297.938542 
L 201.282156 300.32628 
L 201.525745 288.598272 
L 201.769333 299.904914 
L 202.012922 286.6319 
L 202.500098 322.16706 
L 202.743687 312.405425 
L 202.987275 312.756563 
L 203.230863 342.813971 
L 203.474452 319.428184 
L 203.961628 323.712067 
L 204.205217 323.290701 
L 204.692393 343.235337 
L 204.935982 342.813971 
L 205.17957 294.427162 
L 205.423158 329.540957 
L 205.666747 275.746623 
L 205.910335 303.065156 
L 206.153923 297.587404 
L 206.397512 313.177928 
L 206.6411 314.722935 
L 206.884688 333.473702 
L 207.371865 348.713089 
L 207.615453 323.290701 
L 207.859042 343.235337 
L 208.10263 330.31346 
L 208.346218 335.791212 
L 208.589807 333.473702 
L 208.833395 333.473702 
L 209.076984 303.065156 
L 209.320572 345.552847 
L 209.56416 328.417315 
L 209.807749 359.598365 
L 210.051337 346.746716 
L 210.294925 358.053358 
L 210.538514 333.052336 
L 210.782102 358.053358 
L 211.02569 356.859489 
L 211.269279 364.654752 
L 211.756455 342.041468 
L 212.000044 351.030599 
L 212.48722 338.951454 
L 212.730809 360.792234 
L 213.217985 352.224468 
L 213.461574 353.34811 
L 213.705162 350.258096 
L 214.192339 346.746716 
L 214.435927 364.303614 
L 214.679515 365.427255 
L 214.923104 335.791212 
L 215.166692 358.053358 
L 215.41028 357.280855 
L 215.653869 350.258096 
L 216.141046 356.508351 
L 216.628222 311.984059 
L 216.871811 294.427162 
L 217.115399 347.097854 
L 217.358987 316.267942 
L 217.602576 326.450943 
L 217.846164 324.133432 
L 218.333341 354.120613 
L 218.576929 333.82484 
L 218.820517 285.086893 
L 219.064106 286.280762 
L 219.307694 274.131389 
L 219.551282 337.336219 
L 219.794871 320.200687 
L 220.038459 313.177928 
L 220.282047 282.769382 
L 220.525636 281.996879 
L 220.769224 277.642768 
L 221.012812 325.257074 
L 221.256401 288.598272 
L 221.499989 289.792141 
L 221.743577 310.439052 
L 221.987166 279.609141 
L 222.230754 290.143279 
L 222.474342 306.927673 
L 222.717931 310.860418 
L 222.961519 245.689215 
L 223.205107 293.303521 
L 223.448696 283.541886 
L 223.692284 280.381644 
L 223.935873 316.689308 
L 224.179461 278.064134 
L 224.423049 293.654659 
L 224.666638 283.541886 
L 224.910226 239.43896 
L 225.153814 273.007747 
L 225.397403 284.665527 
L 225.884579 315.144301 
L 226.128168 308.121542 
L 226.371756 285.508258 
L 226.615344 330.734826 
L 226.858933 317.461811 
L 227.102521 248.006725 
L 227.589698 316.689308 
L 227.833286 325.678439 
L 228.320463 313.599294 
L 228.564051 273.780251 
L 229.051228 318.65568 
L 229.294816 280.381644 
L 229.538404 294.076024 
L 229.781993 286.280762 
L 230.269169 310.860418 
L 230.512758 251.939471 
L 230.756346 296.042397 
L 230.999935 289.370776 
L 231.243523 309.666549 
L 231.487111 311.632922 
L 231.7307 296.042397 
L 231.974288 301.449921 
L 232.461465 326.029577 
L 232.705053 296.393535 
L 232.948641 315.495439 
L 233.19223 303.416294 
L 233.679406 260.507236 
L 233.922995 333.82484 
L 234.166583 326.802081 
L 234.410171 326.029577 
L 234.65376 324.133432 
L 235.140936 275.325258 
L 235.384525 306.927673 
L 235.628113 303.065156 
L 235.871701 313.177928 
L 236.11529 291.337148 
L 236.358878 297.166038 
L 236.602466 323.712067 
L 236.846055 322.16706 
L 237.089643 269.075002 
L 237.333231 361.143372 
L 237.57682 310.087915 
L 237.820408 282.769382 
L 238.063997 284.665527 
L 238.307585 283.12052 
L 238.551173 312.756563 
L 238.794762 303.065156 
L 239.03835 283.12052 
L 239.281938 322.16706 
L 239.769115 283.893024 
L 240.256292 322.16706 
L 240.49988 289.792141 
L 240.743468 342.041468 
L 240.987057 309.245183 
L 241.230645 256.574491 
L 241.474233 307.349039 
L 241.717822 321.745694 
L 242.204998 271.813878 
L 242.692175 340.075095 
L 242.935763 341.268964 
L 243.42294 310.860418 
L 243.910117 297.166038 
L 244.153705 338.530088 
L 244.397293 326.802081 
L 244.640882 333.82484 
L 244.88447 271.46274 
L 245.371647 329.189819 
L 245.615235 330.734826 
L 245.858824 337.757585 
L 246.102412 329.540957 
L 246.346 291.337148 
L 246.589589 310.087915 
L 246.833177 290.915783 
L 247.076765 329.189819 
L 247.320354 315.495439 
L 247.563942 334.246205 
L 247.80753 327.644812 
L 248.051119 335.440074 
L 248.294707 335.440074 
L 248.538295 317.461811 
L 249.26906 354.120613 
L 249.512649 319.428184 
L 249.756237 340.075095 
L 249.999825 338.17895 
L 250.243414 357.631993 
L 250.487002 340.847599 
L 250.73059 340.847599 
L 250.974179 324.905936 
L 251.217767 326.802081 
L 251.461355 352.224468 
L 251.704944 329.962322 
L 251.948532 345.201709 
L 252.19212 308.121542 
L 252.435709 346.746716 
L 252.679297 355.314482 
L 253.166474 320.622053 
L 253.410062 340.496461 
L 253.653651 333.82484 
L 253.897239 308.47268 
L 254.384416 333.473702 
L 254.628004 359.247227 
L 254.871592 338.951454 
L 255.115181 355.735848 
L 255.358769 363.53111 
L 255.602357 363.882248 
L 256.089534 338.17895 
L 256.333122 364.654752 
L 256.576711 362.758607 
L 256.820299 347.51922 
L 257.063887 342.813971 
L 257.307476 349.064227 
L 257.551064 336.985081 
L 257.794652 345.201709 
L 258.038241 343.586475 
L 258.281829 360.792234 
L 258.525417 340.847599 
L 258.769006 363.109745 
L 259.012594 344.780344 
L 259.256182 361.915876 
L 259.499771 343.235337 
L 259.743359 348.291723 
L 259.986948 342.813971 
L 260.230536 348.713089 
L 260.474124 347.870358 
L 260.717713 354.120613 
L 260.961301 318.234315 
L 261.204889 319.428184 
L 261.692066 336.985081 
L 261.935654 324.48457 
L 262.179243 298.711045 
L 262.422831 286.6319 
L 262.666419 319.779322 
L 262.910008 333.473702 
L 263.153596 319.428184 
L 263.397184 297.166038 
L 263.640773 313.950432 
L 263.884361 287.825769 
L 264.371538 315.916804 
L 264.615126 346.746716 
L 264.858714 317.883177 
L 265.102303 273.358885 
L 265.345891 297.938542 
L 265.589479 297.938542 
L 265.833068 276.870265 
L 266.076656 288.598272 
L 266.320244 291.337148 
L 266.563833 326.029577 
L 266.807421 319.006818 
L 267.051009 272.586382 
L 267.294598 304.961301 
L 267.538186 314.371797 
L 268.268951 276.870265 
L 268.51254 304.610163 
L 268.756128 313.177928 
L 268.999716 301.449921 
L 269.243305 343.586475 
L 269.486893 320.200687 
L 269.730481 319.779322 
L 269.97407 284.665527 
L 270.217658 307.700176 
L 270.704835 271.813878 
L 270.948423 327.223446 
L 271.192011 319.428184 
L 271.4356 333.052336 
L 271.922776 291.337148 
L 272.166365 320.622053 
L 272.409953 301.098783 
L 272.653541 327.223446 
L 272.89713 305.733804 
L 273.384306 327.223446 
L 273.627895 299.904914 
L 273.871483 335.791212 
L 274.115071 295.199666 
L 274.35866 310.860418 
L 274.602248 262.052243 
L 275.089425 320.622053 
L 275.333013 326.450943 
L 275.576602 325.678439 
L 275.82019 318.234315 
L 276.063778 317.110673 
L 276.307367 292.531017 
L 276.550955 331.507329 
L 277.038132 305.382666 
L 277.28172 307.700176 
L 277.525308 353.769475 
L 277.768897 346.746716 
L 278.012485 323.290701 
L 278.256073 322.16706 
L 278.499662 352.996972 
L 278.74325 294.076024 
L 278.986838 336.563716 
L 279.230427 303.065156 
L 279.474015 325.257074 
L 279.717603 323.712067 
L 279.961192 334.246205 
L 280.20478 298.711045 
L 280.691957 306.15517 
L 280.935545 325.678439 
L 281.179133 320.200687 
L 281.422722 264.018616 
L 281.66631 318.234315 
L 281.909899 333.052336 
L 282.153487 340.075095 
L 282.397075 293.654659 
L 282.640664 268.723864 
L 282.884252 340.075095 
L 283.12784 311.211556 
L 283.371429 330.31346 
L 283.615017 294.076024 
L 283.858605 333.82484 
L 284.102194 345.974213 
L 284.345782 342.813971 
L 285.076547 286.280762 
L 285.320135 327.223446 
L 285.563724 321.394556 
L 285.807312 327.99595 
L 286.0509 301.449921 
L 286.294489 312.405425 
L 286.538077 314.722935 
L 286.781665 333.82484 
L 287.025254 293.303521 
L 287.268842 324.48457 
L 287.756019 351.030599 
L 287.999607 352.224468 
L 288.243195 345.552847 
L 288.486784 344.358978 
L 288.730372 337.336219 
L 288.97396 322.518198 
L 289.217549 356.859489 
L 289.461137 308.894046 
L 289.704726 355.314482 
L 289.948314 292.882155 
L 290.191902 342.462833 
L 290.435491 323.712067 
L 290.679079 342.813971 
L 290.922667 342.462833 
L 291.166256 333.473702 
L 291.653432 353.34811 
L 291.897021 332.701198 
L 292.140609 339.723957 
L 292.384197 357.280855 
L 292.627786 349.064227 
L 292.871374 320.200687 
L 293.114962 348.713089 
L 293.358551 322.518198 
L 293.602139 348.291723 
L 293.845727 361.564738 
L 294.089316 335.440074 
L 294.332904 344.358978 
L 294.576492 298.711045 
L 294.820081 333.473702 
L 295.063669 299.553776 
L 295.307257 344.358978 
L 295.794434 322.939563 
L 296.038022 321.745694 
L 296.281611 291.337148 
L 296.525199 316.267942 
L 296.768788 264.018616 
L 297.012376 308.121542 
L 297.255964 288.176907 
L 297.499553 296.393535 
L 297.743141 270.268871 
L 297.986729 310.439052 
L 298.230318 305.382666 
L 298.473906 351.803103 
L 298.717494 304.961301 
L 298.961083 319.428184 
L 299.204671 279.258003 
L 299.448259 327.644812 
L 299.691848 322.518198 
L 299.935436 334.246205 
L 300.179024 308.47268 
L 300.422613 306.576535 
L 300.666201 296.042397 
L 300.909789 295.621031 
L 301.153378 283.12052 
L 301.396966 262.473609 
L 301.640554 319.006818 
L 301.884143 312.405425 
L 302.127731 288.176907 
L 302.371319 335.440074 
L 302.614908 283.12052 
L 302.858496 294.427162 
L 303.102084 299.553776 
L 303.345673 297.587404 
L 303.589261 311.211556 
L 303.83285 339.302592 
L 304.076438 326.802081 
L 304.320026 304.610163 
L 304.563615 302.64379 
L 304.807203 292.882155 
L 305.050791 311.984059 
L 305.29438 302.64379 
L 305.537968 324.905936 
L 305.781556 312.405425 
L 306.025145 323.712067 
L 306.268733 326.029577 
L 306.512321 277.642768 
L 306.75591 303.837659 
L 306.999498 294.076024 
L 307.243086 302.222425 
L 307.486675 321.394556 
L 307.730263 302.222425 
L 307.973851 324.905936 
L 308.21744 318.234315 
L 308.461028 318.65568 
L 308.704616 322.16706 
L 308.948205 290.143279 
L 309.191793 286.6319 
L 309.435381 330.31346 
L 309.67897 333.82484 
L 309.922558 323.290701 
L 310.166146 332.701198 
L 310.409735 322.518198 
L 310.653323 341.268964 
L 310.896911 337.336219 
L 311.1405 292.531017 
L 311.384088 281.996879 
L 311.627677 324.905936 
L 311.871265 306.927673 
L 312.114853 274.131389 
L 312.358442 320.622053 
L 312.60203 304.961301 
L 312.845618 325.257074 
L 313.089207 329.189819 
L 313.332795 336.563716 
L 313.576383 333.473702 
L 313.819972 344.358978 
L 314.06356 302.64379 
L 314.307148 349.485592 
L 314.550737 327.99595 
L 314.794325 350.258096 
L 315.037913 358.404496 
L 315.281502 336.985081 
L 315.52509 345.201709 
L 315.768678 326.802081 
L 316.012267 339.723957 
L 316.255855 319.779322 
L 316.499443 348.291723 
L 316.98662 325.257074 
L 317.230208 356.086986 
L 317.473797 350.609234 
L 317.717385 352.996972 
L 317.960973 337.757585 
L 318.204562 340.075095 
L 318.44815 356.859489 
L 318.691739 357.631993 
L 318.935327 349.064227 
L 319.178915 351.030599 
L 319.422504 338.17895 
L 319.666092 363.53111 
L 319.90968 350.258096 
L 320.153269 347.870358 
L 320.640445 365.076117 
L 320.884034 363.53111 
L 321.127622 344.358978 
L 321.37121 352.224468 
L 321.614799 321.394556 
L 321.858387 263.246112 
L 322.101975 322.939563 
L 322.345564 284.665527 
L 322.589152 317.883177 
L 322.83274 328.417315 
L 323.076329 284.665527 
L 323.563505 327.644812 
L 323.807094 311.984059 
L 324.050682 315.916804 
L 324.29427 307.349039 
L 324.537859 325.678439 
L 324.781447 333.052336 
L 325.025035 293.654659 
L 325.268624 292.882155 
L 325.512212 313.950432 
L 325.755801 321.745694 
L 325.999389 335.440074 
L 326.242977 309.666549 
L 326.486566 305.382666 
L 326.730154 295.199666 
L 326.973742 342.041468 
L 327.217331 250.394464 
L 327.704507 325.257074 
L 327.948096 295.621031 
L 328.191684 323.290701 
L 328.678861 277.642768 
L 328.922449 298.711045 
L 329.166037 295.621031 
L 329.409626 326.029577 
L 329.653214 320.973191 
L 329.896802 303.837659 
L 330.140391 341.69033 
L 330.383979 292.109652 
L 330.627567 287.404403 
L 330.871156 325.678439 
L 331.114744 292.109652 
L 331.358332 312.405425 
L 331.601921 310.860418 
L 331.845509 305.733804 
L 332.089097 343.586475 
L 332.332686 324.133432 
L 332.576274 318.234315 
L 332.819862 331.507329 
L 333.063451 315.144301 
L 333.550628 358.825862 
L 333.794216 293.654659 
L 334.037804 330.734826 
L 334.281393 340.847599 
L 334.524981 291.688286 
L 334.768569 351.381737 
L 335.255746 290.143279 
L 335.499334 332.279833 
L 335.742923 291.337148 
L 335.986511 318.234315 
L 336.230099 296.042397 
L 336.473688 333.82484 
L 336.717276 304.188797 
L 336.960864 310.439052 
L 337.204453 302.64379 
L 337.448041 333.473702 
L 337.691629 308.47268 
L 337.935218 318.65568 
L 338.422394 325.678439 
L 338.665983 320.200687 
L 338.909571 290.564645 
L 339.153159 320.973191 
L 339.396748 305.733804 
L 339.640336 322.939563 
L 339.883924 278.836637 
L 340.127513 320.622053 
L 340.371101 285.508258 
L 340.61469 283.893024 
L 340.858278 308.121542 
L 341.101866 284.314389 
L 341.345455 296.393535 
L 341.589043 333.473702 
L 341.832631 331.928695 
L 342.319808 294.427162 
L 342.563396 326.029577 
L 342.806985 340.847599 
L 343.050573 318.234315 
L 343.294161 346.746716 
L 343.53775 313.599294 
L 343.781338 338.17895 
L 344.024926 328.417315 
L 344.268515 335.440074 
L 344.512103 324.48457 
L 344.755691 296.8149 
L 344.99928 337.336219 
L 345.242868 347.870358 
L 345.486456 326.802081 
L 345.973633 357.631993 
L 346.217221 330.31346 
L 346.46081 360.019731 
L 346.704398 351.381737 
L 346.947986 323.712067 
L 347.191575 363.109745 
L 347.435163 276.870265 
L 347.678752 335.440074 
L 347.92234 341.69033 
L 348.165928 342.813971 
L 348.409517 352.224468 
L 348.653105 327.223446 
L 348.896693 320.973191 
L 349.140282 352.996972 
L 349.38387 340.075095 
L 349.627458 365.427255 
L 349.871047 278.836637 
L 350.114635 332.701198 
L 350.601812 363.882248 
L 350.8454 351.381737 
L 351.088988 362.758607 
L 351.332577 354.120613 
L 351.576165 354.893117 
L 352.063342 333.82484 
L 352.30693 364.654752 
L 352.550518 364.654752 
L 352.794107 347.870358 
L 353.037695 351.030599 
L 353.281283 347.870358 
L 353.524872 354.541979 
L 354.255637 364.303614 
L 354.499225 333.473702 
L 354.742813 363.882248 
L 354.986402 364.303614 
L 355.22999 350.609234 
L 355.473579 361.915876 
L 355.717167 326.802081 
L 355.960755 351.381737 
L 356.204344 306.576535 
L 356.447932 329.962322 
L 356.69152 285.859396 
L 356.935109 266.336126 
L 357.178697 278.485499 
L 357.422285 279.258003 
L 357.665874 269.496368 
L 357.909462 278.064134 
L 358.15305 312.405425 
L 358.396639 244.495346 
L 358.883815 290.564645 
L 359.127404 294.427162 
L 359.370992 321.394556 
L 359.61458 268.302499 
L 359.858169 321.394556 
L 360.101757 257.417222 
L 360.345345 297.587404 
L 360.588934 265.563623 
L 360.832522 296.8149 
L 361.07611 343.586475 
L 361.319699 321.394556 
L 361.563287 323.712067 
L 361.806875 345.201709 
L 362.050464 346.746716 
L 362.294052 290.143279 
L 362.537641 318.234315 
L 362.781229 317.110673 
L 363.268406 304.188797 
L 363.511994 300.677418 
L 363.755582 301.871287 
L 363.999171 315.916804 
L 364.242759 291.337148 
L 364.486347 307.349039 
L 364.729936 292.531017 
L 365.460701 320.200687 
L 365.704289 292.531017 
L 365.947877 278.485499 
L 366.191466 321.745694 
L 366.435054 294.848528 
L 366.678642 290.143279 
L 366.922231 294.848528 
L 367.165819 319.006818 
L 367.409407 281.575513 
L 367.652996 309.666549 
L 368.140172 302.64379 
L 368.383761 291.337148 
L 368.627349 346.325351 
L 368.870937 327.644812 
L 369.114526 284.665527 
L 369.358114 319.779322 
L 369.601702 300.32628 
L 369.845291 311.984059 
L 370.088879 337.757585 
L 370.576056 293.654659 
L 370.819644 308.894046 
L 371.063233 308.47268 
L 371.306821 306.15517 
L 371.550409 265.984988 
L 371.793998 326.029577 
L 372.037586 344.780344 
L 372.281174 297.938542 
L 372.524763 287.404403 
L 372.768351 308.47268 
L 373.011939 274.97412 
L 373.255528 306.927673 
L 373.499116 300.32628 
L 373.742704 306.576535 
L 373.986293 340.075095 
L 374.229881 308.47268 
L 374.473469 341.268964 
L 374.717058 300.677418 
L 374.960646 301.871287 
L 375.204234 300.32628 
L 375.447823 330.31346 
L 375.934999 278.836637 
L 376.178588 324.905936 
L 376.422176 336.212578 
L 376.909353 288.176907 
L 377.152941 299.132411 
L 377.39653 336.985081 
L 377.640118 322.518198 
L 377.883706 248.428091 
L 378.127295 289.019638 
L 378.370883 309.245183 
L 378.614471 304.961301 
L 378.85806 322.16706 
L 379.101648 300.677418 
L 379.345236 304.188797 
L 379.588825 304.188797 
L 379.832413 287.053265 
L 380.31959 306.927673 
L 380.563178 293.654659 
L 380.806766 315.916804 
L 381.050355 297.166038 
L 381.537531 342.813971 
L 381.78112 293.654659 
L 382.024708 349.485592 
L 382.511885 310.087915 
L 382.755473 323.712067 
L 382.999061 317.110673 
L 383.24265 274.97412 
L 383.486238 324.48457 
L 383.729826 318.234315 
L 383.973415 319.006818 
L 384.460592 348.291723 
L 384.70418 342.041468 
L 384.947768 347.870358 
L 385.191357 344.358978 
L 385.678533 324.905936 
L 385.922122 336.212578 
L 386.16571 309.245183 
L 386.652887 342.041468 
L 386.896475 336.563716 
L 387.140063 360.019731 
L 387.383652 324.133432 
L 387.62724 324.133432 
L 387.870828 331.507329 
L 388.114417 297.587404 
L 388.601593 360.370869 
L 388.845182 336.563716 
L 389.08877 335.018709 
L 389.332358 357.631993 
L 389.575947 347.097854 
L 389.819535 355.314482 
L 390.306712 346.325351 
L 390.5503 332.701198 
L 390.793888 331.507329 
L 391.037477 335.791212 
L 391.281065 319.428184 
L 391.524653 357.631993 
L 391.768242 354.120613 
L 392.01183 353.769475 
L 392.255419 363.109745 
L 392.742595 333.052336 
L 392.986184 363.882248 
L 393.229772 348.291723 
L 393.47336 352.575606 
L 393.716949 362.758607 
L 393.960537 345.974213 
L 394.204125 351.803103 
L 394.447714 342.813971 
L 394.691302 367.814993 
L 394.93489 347.51922 
L 395.178479 364.303614 
L 395.422067 362.337241 
L 395.665655 336.563716 
L 395.909244 364.303614 
L 396.152832 342.041468 
L 396.39642 358.404496 
L 396.640009 353.769475 
L 396.883597 352.224468 
L 397.127185 358.825862 
L 397.370774 306.576535 
L 397.614362 344.358978 
L 397.85795 311.211556 
L 398.101539 311.984059 
L 398.345127 339.723957 
L 398.588715 313.599294 
L 398.832304 325.257074 
L 399.075892 348.291723 
L 399.319481 309.245183 
L 399.563069 333.82484 
L 399.806657 333.82484 
L 400.050246 302.222425 
L 400.537422 336.985081 
L 400.781011 271.46274 
L 401.024599 277.642768 
L 401.268187 316.689308 
L 401.511776 294.076024 
L 401.755364 312.405425 
L 402.242541 322.939563 
L 402.486129 313.599294 
L 402.973306 272.586382 
L 403.216894 303.065156 
L 403.460482 304.188797 
L 403.704071 303.837659 
L 403.947659 290.143279 
L 404.191247 283.12052 
L 404.434836 262.052243 
L 404.678424 344.358978 
L 404.922012 312.405425 
L 405.409189 297.166038 
L 405.652777 305.733804 
L 405.896366 289.370776 
L 406.139954 312.756563 
L 406.383543 279.609141 
L 406.627131 274.97412 
L 406.870719 313.177928 
L 407.114308 288.176907 
L 407.601484 339.302592 
L 408.088661 294.848528 
L 408.332249 319.779322 
L 408.819426 298.359907 
L 409.063014 337.757585 
L 409.306603 336.212578 
L 409.550191 271.813878 
L 409.793779 333.82484 
L 410.037368 263.59725 
L 410.280956 304.610163 
L 410.524544 298.359907 
L 410.768133 285.859396 
L 411.255309 336.563716 
L 411.498898 285.508258 
L 411.742486 323.290701 
L 411.986074 331.156191 
L 412.229663 315.144301 
L 412.473251 350.258096 
L 412.960428 280.030506 
L 413.204016 335.791212 
L 413.447604 297.587404 
L 413.934781 313.950432 
L 414.17837 249.200595 
L 414.421958 249.551732 
L 414.665546 296.8149 
L 415.152723 294.427162 
L 415.396311 292.109652 
L 415.6399 303.837659 
L 415.883488 290.143279 
L 416.127076 330.734826 
L 416.370665 285.508258 
L 416.614253 301.449921 
L 416.857841 293.303521 
L 417.10143 294.427162 
L 417.345018 351.381737 
L 417.588606 309.666549 
L 417.832195 292.109652 
L 418.075783 287.053265 
L 418.319371 291.688286 
L 418.56296 335.440074 
L 418.806548 293.303521 
L 419.050136 323.290701 
L 419.293725 335.018709 
L 419.537313 307.700176 
L 419.780901 348.713089 
L 420.02449 338.951454 
L 420.511666 250.394464 
L 420.755255 292.882155 
L 420.998843 311.984059 
L 421.242432 340.496461 
L 421.48602 299.553776 
L 421.729608 317.883177 
L 421.973197 292.109652 
L 422.216785 318.65568 
L 422.460373 327.223446 
L 422.703962 310.439052 
L 422.94755 315.495439 
L 423.191138 295.199666 
L 423.434727 327.644812 
L 423.921903 322.16706 
L 424.165492 283.12052 
L 424.40908 320.200687 
L 424.652668 304.188797 
L 424.896257 313.177928 
L 425.139845 336.563716 
L 425.383433 299.132411 
L 425.627022 301.871287 
L 425.87061 297.166038 
L 426.114198 309.666549 
L 426.357787 313.950432 
L 426.844963 285.859396 
L 427.088552 313.599294 
L 427.33214 280.030506 
L 427.575728 288.176907 
L 427.819317 312.405425 
L 428.062905 294.076024 
L 428.306494 340.496461 
L 428.79367 306.576535 
L 429.280847 298.711045 
L 429.524435 289.019638 
L 429.768024 330.31346 
L 430.011612 338.17895 
L 430.2552 326.802081 
L 430.498789 274.552754 
L 430.742377 342.041468 
L 430.985965 313.599294 
L 431.229554 313.599294 
L 431.473142 316.267942 
L 431.71673 339.723957 
L 431.960319 320.622053 
L 432.203907 327.99595 
L 432.447495 343.586475 
L 432.691084 310.860418 
L 432.934672 328.417315 
L 433.17826 331.928695 
L 433.421849 321.745694 
L 433.665437 324.905936 
L 433.909025 319.428184 
L 434.152614 363.109745 
L 434.396202 333.052336 
L 434.63979 358.825862 
L 434.883379 331.156191 
L 435.126967 345.552847 
L 435.370555 320.622053 
L 435.614144 331.156191 
L 435.857732 328.768453 
L 436.101321 351.030599 
L 436.344909 351.381737 
L 436.588497 336.985081 
L 436.832086 329.189819 
L 437.075674 330.31346 
L 437.319262 327.644812 
L 437.562851 332.279833 
L 438.050027 349.064227 
L 438.293616 333.82484 
L 438.537204 347.097854 
L 438.780792 321.745694 
L 439.024381 356.859489 
L 439.267969 330.734826 
L 439.511557 348.713089 
L 439.755146 323.712067 
L 439.998734 362.337241 
L 440.242322 347.51922 
L 440.485911 363.882248 
L 440.729499 330.31346 
L 440.973087 353.769475 
L 441.216676 345.201709 
L 441.703852 365.427255 
L 441.947441 342.813971 
L 442.191029 364.303614 
L 442.434617 345.552847 
L 442.678206 356.859489 
L 442.921794 339.723957 
L 443.165383 359.247227 
L 443.408971 361.915876 
L 443.652559 362.337241 
L 443.896148 363.109745 
L 444.139736 359.598365 
L 444.383324 364.654752 
L 444.626913 336.563716 
L 444.870501 358.404496 
L 445.114089 356.859489 
L 445.357678 353.34811 
L 445.601266 364.654752 
L 445.844854 353.34811 
L 446.088443 357.280855 
L 446.332031 320.622053 
L 446.575619 364.654752 
L 446.819208 358.825862 
L 447.062796 344.00784 
L 447.306384 356.086986 
L 447.549973 350.258096 
L 447.793561 360.019731 
L 448.037149 363.53111 
L 448.280738 356.859489 
L 448.524326 363.882248 
L 448.767914 321.394556 
L 449.011503 357.280855 
L 449.255091 354.541979 
L 449.498679 349.83673 
L 449.742268 365.427255 
L 449.985856 357.631993 
L 450.229445 339.302592 
L 450.473033 329.540957 
L 450.716621 328.768453 
L 450.96021 331.928695 
L 451.203798 324.905936 
L 451.447386 354.541979 
L 451.690975 347.870358 
L 451.934563 317.883177 
L 452.42174 345.974213 
L 452.665328 303.065156 
L 452.908916 346.746716 
L 453.152505 320.200687 
L 453.396093 353.34811 
L 453.639681 317.461811 
L 453.88327 306.15517 
L 454.370446 339.723957 
L 454.614035 348.291723 
L 454.857623 308.121542 
L 455.101211 346.325351 
L 455.3448 327.223446 
L 455.588388 321.745694 
L 455.831976 325.257074 
L 456.075565 314.371797 
L 456.319153 327.644812 
L 456.562741 303.416294 
L 456.80633 321.394556 
L 457.049918 330.31346 
L 457.293506 308.47268 
L 457.537095 328.417315 
L 457.780683 326.450943 
L 458.024272 329.962322 
L 458.26786 289.792141 
L 458.511448 334.246205 
L 458.755037 308.121542 
L 458.998625 338.17895 
L 459.242213 317.110673 
L 459.485802 311.984059 
L 459.972978 338.951454 
L 460.460155 293.303521 
L 460.703743 306.576535 
L 460.947332 331.156191 
L 461.19092 279.258003 
L 461.434508 262.824747 
L 461.678097 316.267942 
L 461.921685 312.756563 
L 462.165273 310.860418 
L 462.408862 312.756563 
L 462.65245 332.701198 
L 462.896038 296.042397 
L 463.383215 331.507329 
L 463.626803 330.31346 
L 463.870392 332.279833 
L 464.11398 328.768453 
L 464.357568 328.768453 
L 464.601157 320.622053 
L 464.844745 342.041468 
L 465.088334 335.018709 
L 465.331922 339.302592 
L 465.57551 317.883177 
L 465.819099 320.200687 
L 466.062687 305.733804 
L 466.306275 306.576535 
L 466.549864 331.928695 
L 466.793452 302.222425 
L 467.03704 340.075095 
L 467.280629 335.791212 
L 467.524217 301.098783 
L 467.767805 306.927673 
L 468.011394 342.041468 
L 468.49857 282.769382 
L 468.742159 313.177928 
L 468.985747 324.905936 
L 469.229335 350.258096 
L 469.472924 316.267942 
L 469.716512 314.371797 
L 469.9601 313.599294 
L 470.203689 310.087915 
L 470.447277 303.065156 
L 470.690865 349.83673 
L 470.934454 341.69033 
L 471.178042 311.984059 
L 471.42163 354.120613 
L 471.665219 329.962322 
L 471.908807 333.82484 
L 472.152396 332.279833 
L 472.395984 293.303521 
L 472.639572 299.553776 
L 472.883161 302.64379 
L 473.126749 286.6319 
L 473.370337 345.552847 
L 473.613926 347.097854 
L 473.857514 324.133432 
L 474.101102 341.268964 
L 474.344691 329.189819 
L 474.588279 328.417315 
L 474.831867 322.939563 
L 475.075456 303.837659 
L 475.319044 298.711045 
L 475.562632 317.461811 
L 475.806221 314.722935 
L 476.049809 327.644812 
L 476.293397 352.224468 
L 476.536986 303.416294 
L 476.780574 334.246205 
L 477.024162 327.223446 
L 477.267751 330.734826 
L 477.511339 328.768453 
L 477.754927 329.189819 
L 477.998516 329.962322 
L 478.242104 347.097854 
L 478.485692 348.713089 
L 478.729281 326.450943 
L 478.972869 333.052336 
L 479.216457 333.052336 
L 479.460046 345.201709 
L 479.703634 331.156191 
L 479.947223 354.541979 
L 480.190811 337.336219 
L 480.677988 344.780344 
L 481.165164 346.746716 
L 481.408753 344.780344 
L 481.652341 359.598365 
L 482.139518 336.212578 
L 482.383106 345.974213 
L 482.626694 337.757585 
L 482.870283 351.803103 
L 483.113871 346.325351 
L 483.357459 333.473702 
L 483.601048 339.302592 
L 484.088224 345.201709 
L 484.331813 324.905936 
L 484.575401 357.631993 
L 484.818989 331.156191 
L 485.062578 351.030599 
L 485.306166 342.462833 
L 485.549754 345.201709 
L 485.793343 345.974213 
L 486.036931 337.336219 
L 486.280519 364.654752 
L 486.524108 338.951454 
L 486.767696 351.803103 
L 487.011285 355.735848 
L 487.254873 340.847599 
L 487.498461 333.052336 
L 487.74205 355.314482 
L 487.985638 356.859489 
L 488.229226 347.870358 
L 488.472815 364.654752 
L 488.716403 358.404496 
L 488.959991 338.530088 
L 489.20358 340.075095 
L 489.447168 357.631993 
L 489.690756 359.598365 
L 489.934345 344.00784 
L 490.177933 363.53111 
L 490.421521 351.381737 
L 490.908698 363.109745 
L 491.152286 363.882248 
L 491.395875 363.53111 
L 491.639463 362.337241 
L 491.883051 363.53111 
L 492.12664 363.882248 
L 492.370228 355.314482 
L 492.613816 358.053358 
L 492.857405 363.882248 
L 493.100993 351.803103 
L 493.344581 368.938634 
L 493.58817 356.086986 
L 493.831758 350.609234 
L 494.075347 342.462833 
L 494.318935 358.404496 
L 494.562523 356.086986 
L 494.806112 358.053358 
L 495.293288 364.303614 
L 495.536877 344.358978 
L 495.780465 357.280855 
L 496.024053 352.224468 
L 496.267642 363.109745 
L 496.51123 345.552847 
L 496.754818 359.247227 
L 496.998407 353.34811 
L 497.241995 358.053358 
L 497.485583 326.450943 
L 497.729172 339.302592 
L 497.97276 343.586475 
L 498.216348 342.041468 
L 498.459937 352.575606 
L 498.703525 347.51922 
L 498.947113 358.404496 
L 499.190702 329.189819 
L 499.43429 342.813971 
L 499.677878 347.870358 
L 500.165055 335.440074 
L 500.408643 334.246205 
L 500.652232 324.133432 
L 500.89582 337.757585 
L 501.139408 336.563716 
L 501.382997 343.586475 
L 501.626585 315.495439 
L 501.870174 324.905936 
L 502.113762 321.745694 
L 502.35735 353.34811 
L 502.600939 349.485592 
L 502.844527 327.644812 
L 503.331704 341.69033 
L 503.575292 330.734826 
L 503.81888 341.268964 
L 504.062469 311.632922 
L 504.306057 322.939563 
L 504.549645 320.973191 
L 504.793234 334.667571 
L 505.036822 307.700176 
L 505.28041 348.713089 
L 505.523999 337.757585 
L 505.767587 291.688286 
L 506.011175 314.371797 
L 506.254764 315.144301 
L 506.498352 340.847599 
L 506.74194 296.042397 
L 506.985529 363.53111 
L 507.229117 269.496368 
L 507.472705 317.461811 
L 507.716294 324.48457 
L 507.959882 303.416294 
L 508.20347 323.712067 
L 508.447059 313.950432 
L 508.690647 311.632922 
L 508.934236 301.449921 
L 509.177824 304.610163 
L 509.421412 321.394556 
L 509.665001 301.871287 
L 509.908589 337.336219 
L 510.152177 305.382666 
L 510.395766 320.973191 
L 510.639354 323.290701 
L 510.882942 308.894046 
L 511.126531 331.507329 
L 511.370119 310.439052 
L 511.613707 339.302592 
L 511.857296 314.371797 
L 512.100884 331.156191 
L 512.344472 336.563716 
L 512.588061 326.802081 
L 512.831649 333.473702 
L 513.075237 326.802081 
L 513.318826 310.860418 
L 513.562414 332.279833 
L 514.049591 297.938542 
L 514.293179 348.291723 
L 514.536767 310.439052 
L 514.780356 324.48457 
L 515.023944 297.938542 
L 515.267532 323.290701 
L 515.511121 305.382666 
L 515.754709 299.904914 
L 515.998298 327.99595 
L 516.241886 338.17895 
L 516.485474 320.200687 
L 516.729063 321.394556 
L 516.972651 340.847599 
L 517.459828 306.576535 
L 517.703416 303.837659 
L 517.947004 296.8149 
L 518.190593 331.156191 
L 518.434181 347.870358 
L 518.921358 301.098783 
L 519.408534 310.439052 
L 519.652123 322.518198 
L 519.895711 343.586475 
L 520.139299 301.449921 
L 520.626476 334.667571 
L 520.870064 331.928695 
L 521.113653 304.961301 
L 521.357241 349.83673 
L 521.600829 339.302592 
L 521.844418 296.393535 
L 522.088006 352.575606 
L 522.331594 290.915783 
L 522.575183 322.518198 
L 523.062359 327.644812 
L 523.305948 328.417315 
L 523.549536 327.223446 
L 523.793125 310.860418 
L 524.036713 331.507329 
L 524.280301 297.938542 
L 524.52389 322.518198 
L 524.767478 328.768453 
L 525.011066 301.098783 
L 525.254655 357.631993 
L 525.498243 314.722935 
L 525.741831 321.394556 
L 525.98542 355.314482 
L 526.472596 335.440074 
L 526.716185 337.336219 
L 526.959773 338.17895 
L 527.203361 322.939563 
L 527.44695 320.973191 
L 527.690538 327.99595 
L 528.177715 313.599294 
L 528.421303 336.212578 
L 528.664891 346.746716 
L 528.90848 348.291723 
L 529.395656 356.086986 
L 529.639245 343.586475 
L 529.882833 315.916804 
L 530.126421 353.769475 
L 530.37001 345.552847 
L 530.613598 345.974213 
L 530.857187 352.996972 
L 531.100775 363.53111 
L 531.587952 325.257074 
L 532.075128 351.803103 
L 532.318717 348.713089 
L 532.562305 352.575606 
L 532.805893 363.109745 
L 533.049482 356.086986 
L 533.29307 362.758607 
L 533.536658 365.076117 
L 533.780247 352.996972 
L 534.267423 359.247227 
L 534.511012 336.985081 
L 534.7546 360.792234 
L 534.998188 356.859489 
L 535.241777 363.109745 
L 535.485365 362.758607 
L 535.728953 354.541979 
L 535.972542 358.053358 
L 536.21613 357.631993 
L 536.459718 356.859489 
L 536.703307 357.280855 
L 536.946895 344.00784 
L 537.190483 358.825862 
L 537.434072 332.701198 
L 537.67766 350.258096 
L 537.921248 342.813971 
L 538.164837 363.882248 
L 538.408425 358.825862 
L 538.652014 363.109745 
L 538.895602 363.53111 
L 539.382779 362.758607 
L 539.626367 352.224468 
L 539.869955 351.381737 
L 540.113544 351.803103 
L 540.357132 359.598365 
L 540.60072 345.552847 
L 540.844309 341.268964 
L 541.087897 355.735848 
L 541.331485 338.951454 
L 541.575074 344.358978 
L 541.818662 353.34811 
L 542.06225 326.450943 
L 542.305839 336.212578 
L 542.549427 352.575606 
L 542.793015 332.701198 
L 543.036604 343.586475 
L 543.280192 347.51922 
L 543.52378 313.177928 
L 543.767369 326.802081 
L 544.010957 308.894046 
L 544.254545 340.847599 
L 544.498134 296.393535 
L 544.741722 275.325258 
L 544.98531 335.018709 
L 545.472487 310.439052 
L 545.716076 316.689308 
L 545.959664 290.915783 
L 546.446841 271.041375 
L 546.690429 304.610163 
L 546.934017 321.745694 
L 547.177606 285.508258 
L 547.664782 306.576535 
L 548.151959 280.80301 
L 548.395547 327.223446 
L 548.639136 297.166038 
L 548.882724 325.257074 
L 549.126312 287.404403 
L 549.369901 295.621031 
L 549.613489 223.848435 
L 549.857077 238.666456 
L 550.100666 301.098783 
L 550.344254 284.314389 
L 550.587842 323.712067 
L 551.075019 261.27974 
L 551.318607 285.508258 
L 551.562196 344.358978 
L 551.805784 341.69033 
L 552.049372 328.768453 
L 552.292961 297.938542 
L 552.536549 282.348017 
L 552.780138 299.553776 
L 553.023726 308.47268 
L 553.267314 269.075002 
L 553.510903 330.734826 
L 553.754491 286.6319 
L 553.998079 312.405425 
L 554.241668 277.29163 
L 554.485256 329.540957 
L 554.728844 301.449921 
L 554.972433 310.439052 
L 555.216021 330.31346 
L 555.459609 322.16706 
L 555.703198 304.610163 
L 555.946786 319.779322 
L 556.190374 296.8149 
L 556.433963 325.678439 
L 556.677551 290.143279 
L 556.921139 322.518198 
L 557.164728 295.199666 
L 557.408316 326.450943 
L 557.651904 307.700176 
L 557.895493 255.029484 
L 558.139081 271.813878 
L 558.382669 338.951454 
L 558.626258 311.984059 
L 558.869846 331.156191 
L 559.113434 327.223446 
L 559.357023 356.086986 
L 559.600611 274.97412 
L 560.087788 310.439052 
L 560.331376 268.302499 
L 560.574965 310.439052 
L 560.818553 315.144301 
L 561.062141 317.110673 
L 561.30573 311.211556 
L 561.549318 311.632922 
L 561.792906 332.701198 
L 562.036495 292.109652 
L 562.280083 325.257074 
L 562.523671 308.47268 
L 562.76726 314.371797 
L 563.010848 299.904914 
L 563.254436 296.8149 
L 563.498025 312.405425 
L 563.741613 342.041468 
L 563.985201 320.200687 
L 564.22879 358.825862 
L 564.472378 335.791212 
L 564.715966 290.143279 
L 564.959555 328.768453 
L 565.203143 293.303521 
L 565.446731 285.086893 
L 565.69032 283.541886 
L 565.933908 313.599294 
L 566.177496 305.382666 
L 566.421085 301.449921 
L 566.908261 333.052336 
L 567.15185 247.655588 
L 567.395438 350.609234 
L 567.639027 310.439052 
L 567.882615 299.904914 
L 568.126203 330.734826 
L 568.369792 311.984059 
L 568.61338 306.576535 
L 568.856968 311.211556 
L 569.100557 276.097761 
L 569.344145 281.154148 
L 569.587733 273.780251 
L 569.831322 339.723957 
L 570.07491 307.349039 
L 570.318498 324.48457 
L 570.562087 313.599294 
L 570.805675 291.688286 
L 571.049263 342.462833 
L 571.292852 313.950432 
L 571.53644 306.15517 
L 571.780028 316.689308 
L 572.023617 268.723864 
L 572.510793 314.722935 
L 572.754382 288.176907 
L 572.99797 309.245183 
L 573.241558 304.961301 
L 573.485147 326.450943 
L 573.728735 335.018709 
L 573.972323 318.65568 
L 574.215912 335.440074 
L 574.703089 283.12052 
L 574.946677 318.65568 
L 575.190265 323.290701 
L 575.433854 349.83673 
L 575.92103 310.439052 
L 576.164619 314.371797 
L 576.408207 292.531017 
L 576.651795 350.258096 
L 576.895384 301.449921 
L 577.138972 313.599294 
L 577.38256 304.610163 
L 577.626149 345.201709 
L 578.600502 307.349039 
L 578.84409 307.349039 
L 579.087679 323.290701 
L 579.331267 319.006818 
L 579.574855 351.803103 
L 579.818444 306.576535 
L 580.062032 316.267942 
L 580.30562 303.065156 
L 580.792797 353.34811 
L 581.036385 300.677418 
L 581.279974 333.473702 
L 581.523562 343.586475 
L 581.76715 345.974213 
L 582.010739 330.734826 
L 582.254327 344.780344 
L 582.497916 330.31346 
L 582.741504 354.120613 
L 582.985092 358.053358 
L 583.228681 346.325351 
L 583.472269 323.712067 
L 583.715857 332.279833 
L 583.959446 352.996972 
L 584.203034 357.631993 
L 584.446622 306.927673 
L 584.690211 325.257074 
L 584.933799 357.280855 
L 585.177387 363.53111 
L 585.420976 322.939563 
L 585.664564 363.53111 
L 585.908152 362.337241 
L 586.151741 362.758607 
L 586.395329 348.291723 
L 586.638917 344.780344 
L 586.882506 352.575606 
L 587.126094 352.575606 
L 587.369682 358.404496 
L 587.613271 359.247227 
L 587.856859 349.485592 
L 588.100447 364.654752 
L 588.344036 362.337241 
L 588.587624 358.053358 
L 588.831212 363.882248 
L 589.074801 362.337241 
L 589.318389 365.076117 
L 589.561978 349.485592 
L 590.049154 363.882248 
L 590.292743 344.00784 
L 590.536331 357.631993 
L 590.779919 349.83673 
L 591.023508 365.427255 
L 591.267096 362.337241 
L 591.510684 364.654752 
L 591.754273 358.404496 
L 591.997861 365.076117 
L 592.241449 344.780344 
L 592.485038 349.485592 
L 592.728626 363.882248 
L 592.972214 339.302592 
L 593.215803 363.53111 
L 593.459391 364.303614 
L 593.702979 333.82484 
L 593.946568 350.258096 
L 594.190156 347.870358 
L 594.433744 336.985081 
L 594.677333 331.928695 
L 594.920921 337.336219 
L 595.164509 337.336219 
L 595.408098 364.303614 
L 595.651686 329.540957 
L 595.895274 340.075095 
L 596.138863 332.279833 
L 596.382451 302.222425 
L 596.62604 360.019731 
L 596.869628 324.48457 
L 597.113216 343.235337 
L 597.356805 283.12052 
L 597.600393 296.8149 
L 597.843981 272.235244 
L 598.08757 307.700176 
L 598.331158 316.267942 
L 598.818335 293.654659 
L 599.061923 300.32628 
L 599.305511 318.234315 
L 599.5491 297.938542 
L 599.792688 315.916804 
L 600.036276 284.314389 
L 600.279865 269.847506 
L 600.523453 297.166038 
L 600.767041 285.859396 
L 601.254218 317.883177 
L 601.497806 288.598272 
L 601.741395 289.370776 
L 601.984983 313.950432 
L 602.228571 315.495439 
L 602.47216 305.733804 
L 602.715748 301.449921 
L 602.959336 300.677418 
L 603.202925 286.280762 
L 603.446513 281.996879 
L 603.690101 311.211556 
L 603.93369 280.80301 
L 604.420867 332.701198 
L 604.664455 284.665527 
L 604.908043 266.757492 
L 605.151632 264.018616 
L 605.39522 308.121542 
L 605.638808 319.779322 
L 605.882397 297.587404 
L 606.125985 312.405425 
L 606.613162 260.507236 
L 607.100338 348.713089 
L 607.343927 283.893024 
L 607.587515 267.10863 
L 607.831103 348.713089 
L 608.074692 313.599294 
L 608.31828 317.110673 
L 608.561868 334.246205 
L 609.049045 306.576535 
L 609.292633 307.349039 
L 609.536222 287.053265 
L 609.77981 286.280762 
L 610.023398 320.622053 
L 610.266987 321.745694 
L 610.510575 321.394556 
L 610.754163 288.176907 
L 610.997752 288.176907 
L 611.24134 284.314389 
L 611.728517 320.622053 
L 611.972105 299.132411 
L 612.215694 331.507329 
L 612.459282 306.927673 
L 612.70287 327.644812 
L 612.946459 295.621031 
L 613.190047 328.417315 
L 613.433635 287.404403 
L 613.677224 339.723957 
L 613.920812 316.267942 
L 614.1644 321.394556 
L 614.407989 337.757585 
L 614.651577 276.097761 
L 615.138754 343.586475 
L 615.382342 274.131389 
L 615.869519 331.156191 
L 616.113107 331.928695 
L 616.600284 302.64379 
L 616.843872 324.48457 
L 617.08746 270.268871 
L 617.331049 321.394556 
L 617.574637 313.599294 
L 617.818225 280.80301 
L 618.061814 307.700176 
L 618.305402 296.8149 
L 618.792579 323.290701 
L 619.036167 317.883177 
L 619.279756 300.32628 
L 619.523344 311.984059 
L 619.766932 335.018709 
L 620.254109 283.893024 
L 620.497697 319.779322 
L 620.741286 328.417315 
L 620.984874 305.382666 
L 621.228462 320.200687 
L 621.472051 279.609141 
L 621.715639 317.461811 
L 621.959227 326.802081 
L 622.202816 315.144301 
L 622.446404 293.303521 
L 622.933581 289.370776 
L 623.177169 310.860418 
L 623.420757 288.176907 
L 623.664346 331.928695 
L 624.151522 291.688286 
L 624.395111 313.177928 
L 624.638699 312.405425 
L 624.882287 307.349039 
L 625.125876 315.495439 
L 625.369464 299.553776 
L 625.856641 327.644812 
L 626.100229 303.065156 
L 626.343818 340.847599 
L 626.830994 293.654659 
L 627.561759 317.461811 
L 627.805348 301.098783 
L 628.048936 320.622053 
L 628.292524 311.632922 
L 628.536113 324.133432 
L 628.779701 290.564645 
L 629.023289 335.018709 
L 629.266878 323.290701 
L 629.510466 289.370776 
L 629.754054 316.689308 
L 629.997643 287.404403 
L 630.241231 278.064134 
L 630.484819 303.837659 
L 630.971996 322.939563 
L 631.215584 347.870358 
L 631.459173 340.847599 
L 631.702761 295.199666 
L 631.946349 303.065156 
L 632.189938 281.154148 
L 632.433526 334.667571 
L 632.677114 331.928695 
L 632.920703 336.563716 
L 633.40788 314.371797 
L 633.895056 349.485592 
L 634.138645 344.780344 
L 634.382233 308.47268 
L 634.625821 356.508351 
L 634.86941 361.143372 
L 635.356586 333.052336 
L 635.600175 319.779322 
L 635.843763 322.518198 
L 636.087351 329.189819 
L 636.33094 352.224468 
L 636.574528 320.200687 
L 636.818116 319.006818 
L 637.061705 340.847599 
L 637.305293 308.894046 
L 637.548881 347.097854 
L 637.79247 340.075095 
L 638.036058 327.644812 
L 638.279646 358.825862 
L 638.523235 316.689308 
L 638.766823 330.734826 
L 639.010411 358.404496 
L 639.254 317.461811 
L 639.497588 352.996972 
L 639.741176 353.769475 
L 639.984765 349.064227 
L 640.228353 334.667571 
L 640.471942 285.508258 
L 640.71553 337.757585 
L 640.959118 326.029577 
L 641.202707 356.086986 
L 641.446295 329.540957 
L 641.689883 319.779322 
L 642.17706 364.303614 
L 642.420648 344.00784 
L 642.664237 352.575606 
L 642.907825 346.325351 
L 643.151413 358.404496 
L 643.395002 353.34811 
L 643.63859 338.530088 
L 643.882178 362.337241 
L 644.125767 353.34811 
L 644.369355 366.269986 
L 644.612943 353.34811 
L 644.856532 318.234315 
L 645.10012 363.53111 
L 645.343708 359.247227 
L 645.587297 363.882248 
L 645.830885 364.303614 
L 646.318062 339.302592 
L 646.56165 343.235337 
L 646.805238 363.882248 
L 647.048827 363.53111 
L 647.292415 361.915876 
L 647.536003 363.53111 
L 647.779592 362.758607 
L 648.02318 350.609234 
L 648.266769 345.201709 
L 648.510357 357.631993 
L 648.753945 356.086986 
L 648.997534 355.735848 
L 649.241122 363.882248 
L 649.48471 354.120613 
L 649.728299 360.019731 
L 649.971887 341.69033 
L 650.215475 352.575606 
L 650.459064 352.996972 
L 650.702652 343.586475 
L 651.189829 353.34811 
L 651.677005 345.974213 
L 651.920594 336.212578 
L 652.164182 345.201709 
L 652.40777 345.974213 
L 652.651359 340.847599 
L 652.894947 356.508351 
L 653.138535 338.951454 
L 653.382124 336.563716 
L 653.625712 327.99595 
L 653.8693 358.053358 
L 654.112889 338.530088 
L 654.356477 333.473702 
L 654.600065 308.121542 
L 654.843654 299.553776 
L 655.087242 335.791212 
L 655.330831 294.427162 
L 655.574419 305.382666 
L 655.818007 342.462833 
L 656.305184 269.847506 
L 656.548772 287.825769 
L 656.792361 331.507329 
L 657.035949 319.428184 
L 657.279537 274.552754 
L 657.766714 326.802081 
L 658.010302 302.222425 
L 658.253891 317.110673 
L 658.497479 296.042397 
L 658.741067 259.734733 
L 658.984656 285.859396 
L 659.228244 336.985081 
L 659.471832 309.245183 
L 659.715421 313.599294 
L 660.202597 273.780251 
L 660.446186 315.495439 
L 661.176951 253.905843 
L 661.420539 143.437845 
L 661.664127 186.768268 
L 661.907716 96.66627 
L 662.151304 279.609141 
L 662.394893 100.528788 
L 662.638481 134.097575 
L 662.882069 211.347924 
L 663.369246 159.098597 
L 663.612834 173.916619 
L 663.856423 314.722935 
L 664.100011 279.258003 
L 664.343599 262.052243 
L 664.587188 305.382666 
L 664.830776 304.610163 
L 665.074364 300.32628 
L 665.317953 310.087915 
L 665.561541 288.598272 
L 665.805129 313.177928 
L 666.048718 278.836637 
L 666.292306 337.336219 
L 666.535894 258.189726 
L 666.779483 301.871287 
L 667.023071 297.938542 
L 667.266659 283.541886 
L 667.510248 301.871287 
L 667.753836 306.15517 
L 668.241013 341.69033 
L 668.484601 254.678346 
L 668.728189 299.132411 
L 668.971778 308.47268 
L 669.215366 291.688286 
L 669.458954 331.156191 
L 669.702543 322.939563 
L 669.946131 345.201709 
L 670.18972 317.110673 
L 670.433308 273.358885 
L 670.676896 330.31346 
L 670.920485 291.337148 
L 671.164073 312.405425 
L 671.407661 258.962229 
L 671.65125 308.894046 
L 671.894838 280.381644 
L 672.138426 277.642768 
L 672.869191 340.496461 
L 673.11278 330.734826 
L 673.356368 288.176907 
L 673.599956 342.462833 
L 673.843545 311.632922 
L 674.330721 338.951454 
L 674.57431 315.144301 
L 674.817898 271.041375 
L 675.061486 333.473702 
L 675.305075 309.245183 
L 676.03584 351.381737 
L 676.279428 306.927673 
L 676.523016 326.450943 
L 676.766605 322.518198 
L 677.010193 299.132411 
L 677.253782 309.245183 
L 677.49737 332.701198 
L 677.740958 276.519127 
L 677.984547 306.576535 
L 678.228135 268.723864 
L 678.471723 316.267942 
L 678.715312 266.336126 
L 678.9589 329.962322 
L 679.202488 289.019638 
L 679.446077 303.065156 
L 679.689665 326.450943 
L 680.176842 297.938542 
L 680.42043 307.349039 
L 680.664018 322.939563 
L 680.907607 327.223446 
L 681.151195 321.394556 
L 681.394783 293.654659 
L 681.638372 281.996879 
L 681.88196 300.32628 
L 682.125548 327.99595 
L 682.369137 328.768453 
L 682.612725 282.348017 
L 682.856313 305.382666 
L 683.099902 263.246112 
L 683.34349 256.995857 
L 683.587078 322.16706 
L 683.830667 291.688286 
L 684.074255 307.700176 
L 684.561432 265.563623 
L 684.80502 349.83673 
L 685.292197 306.927673 
L 685.535785 300.32628 
L 685.779374 308.47268 
L 686.26655 333.473702 
L 686.510139 289.792141 
L 686.997315 328.417315 
L 687.240904 326.450943 
L 687.484492 329.540957 
L 687.72808 235.92758 
L 688.215257 331.507329 
L 688.458845 333.052336 
L 688.702434 293.654659 
L 688.946022 302.64379 
L 689.18961 290.143279 
L 689.433199 310.087915 
L 689.676787 292.531017 
L 689.920375 331.156191 
L 690.163964 317.110673 
L 690.407552 320.200687 
L 690.65114 311.984059 
L 690.894729 285.508258 
L 691.138317 291.688286 
L 691.381905 309.245183 
L 691.625494 306.15517 
L 692.112671 333.473702 
L 692.356259 311.984059 
L 692.599847 341.69033 
L 692.843436 336.563716 
L 693.087024 308.121542 
L 693.330612 338.17895 
L 693.574201 336.212578 
L 693.817789 330.31346 
L 694.061377 316.689308 
L 694.548554 329.189819 
L 694.792142 363.882248 
L 695.279319 324.133432 
L 695.522907 340.847599 
L 696.010084 329.189819 
L 696.253672 315.916804 
L 696.497261 338.951454 
L 696.740849 319.428184 
L 696.984437 347.51922 
L 697.228026 346.746716 
L 697.471614 338.17895 
L 697.715202 351.803103 
L 697.958791 320.200687 
L 698.202379 352.575606 
L 698.445967 358.404496 
L 698.689556 357.280855 
L 698.933144 354.541979 
L 699.176733 356.508351 
L 699.420321 351.030599 
L 699.663909 329.962322 
L 699.907498 322.518198 
L 700.151086 364.303614 
L 700.394674 364.303614 
L 700.638263 335.018709 
L 701.125439 357.631993 
L 701.369028 358.825862 
L 701.612616 345.974213 
L 701.856204 340.496461 
L 702.099793 351.030599 
L 702.343381 333.473702 
L 702.586969 364.303614 
L 702.830558 350.609234 
L 703.074146 357.280855 
L 703.317734 354.541979 
L 703.561323 364.303614 
L 703.804911 359.598365 
L 704.048499 364.654752 
L 704.292088 338.951454 
L 704.535676 352.224468 
L 704.779264 349.064227 
L 705.022853 354.120613 
L 705.266441 348.713089 
L 705.510029 363.882248 
L 705.753618 358.404496 
L 705.997206 360.370869 
L 706.727971 351.381737 
L 706.97156 339.302592 
L 707.215148 361.143372 
L 707.458736 363.109745 
L 707.702325 362.758607 
L 707.945913 363.109745 
L 708.189501 364.654752 
L 708.43309 363.882248 
L 708.676678 342.462833 
L 708.920266 360.792234 
L 709.163855 362.337241 
L 709.407443 364.654752 
L 709.651031 363.882248 
L 709.89462 347.097854 
L 710.138208 364.654752 
L 710.381796 358.404496 
L 710.625385 364.303614 
L 710.868973 358.404496 
L 711.112561 334.667571 
L 711.35615 365.076117 
L 711.843326 354.893117 
L 712.086915 359.598365 
L 712.330503 350.258096 
L 712.574091 345.552847 
L 712.81768 352.996972 
L 713.061268 369.36 
L 713.304856 338.951454 
L 713.548445 338.951454 
L 713.792033 344.358978 
L 714.27921 336.212578 
L 714.522798 352.996972 
L 714.766387 336.212578 
L 715.009975 350.258096 
L 715.253563 344.00784 
L 715.497152 324.48457 
L 715.74074 331.928695 
L 715.984328 310.439052 
L 716.227917 352.575606 
L 716.471505 346.325351 
L 716.715093 312.756563 
L 716.958682 318.65568 
L 717.20227 329.540957 
L 717.445858 289.370776 
L 718.176623 349.064227 
L 718.6638 320.200687 
L 718.907388 306.576535 
L 719.150977 277.642768 
L 719.394565 278.064134 
L 719.638153 276.870265 
L 719.881742 327.644812 
L 720.368918 291.688286 
L 720.612507 306.927673 
L 720.856095 247.234222 
L 721.58686 314.722935 
L 722.074037 235.92758 
L 722.317625 66.96 
L 722.561214 114.223168 
L 722.804802 269.847506 
L 723.04839 182.484385 
L 723.291979 214.0868 
L 723.535567 262.473609 
L 723.779155 224.972076 
L 724.022744 249.551732 
L 724.266332 323.712067 
L 724.50992 274.131389 
L 724.753509 319.779322 
L 724.997097 277.29163 
L 725.240685 294.427162 
L 725.727862 282.769382 
L 725.97145 315.144301 
L 726.458627 295.199666 
L 726.702215 296.042397 
L 726.945804 277.642768 
L 727.189392 333.052336 
L 727.43298 301.449921 
L 727.676569 341.268964 
L 727.920157 294.076024 
L 728.407334 320.622053 
L 728.650922 260.507236 
L 728.894511 319.428184 
L 729.381687 300.32628 
L 729.625276 320.973191 
L 729.868864 298.359907 
L 730.112452 296.393535 
L 730.356041 301.871287 
L 730.599629 280.381644 
L 730.843217 283.893024 
L 731.086806 304.188797 
L 731.330394 281.996879 
L 731.573982 315.495439 
L 732.061159 292.531017 
L 732.304747 334.667571 
L 732.548336 314.722935 
L 732.791924 331.156191 
L 733.035512 299.132411 
L 733.279101 330.31346 
L 733.522689 302.222425 
L 733.766277 307.700176 
L 734.009866 333.473702 
L 734.253454 342.813971 
L 734.497042 329.540957 
L 734.740631 304.610163 
L 734.984219 340.496461 
L 735.471396 269.075002 
L 735.714984 330.31346 
L 735.958573 286.6319 
L 736.445749 309.245183 
L 736.689338 338.951454 
L 736.932926 324.48457 
L 737.176514 281.996879 
L 737.420103 317.883177 
L 737.663691 323.712067 
L 737.907279 319.428184 
L 738.150868 250.394464 
L 738.394456 286.6319 
L 738.638044 291.688286 
L 738.881633 292.882155 
L 739.125221 332.701198 
L 739.368809 351.381737 
L 739.612398 294.848528 
L 739.855986 342.813971 
L 740.099574 261.701105 
L 740.586751 294.848528 
L 740.830339 325.678439 
L 741.073928 264.439981 
L 741.561104 284.314389 
L 741.804693 314.371797 
L 742.048281 292.531017 
L 742.291869 320.622053 
L 742.535458 299.132411 
L 742.779046 365.076117 
L 743.022635 295.621031 
L 743.266223 321.745694 
L 743.509811 303.837659 
L 743.7534 311.211556 
L 743.996988 293.654659 
L 744.240576 329.540957 
L 744.484165 319.006818 
L 744.727753 319.006818 
L 744.971341 317.883177 
L 745.21493 319.428184 
L 745.458518 325.257074 
L 745.702106 338.530088 
L 745.945695 308.121542 
L 746.189283 299.553776 
L 746.432871 280.030506 
L 746.67646 299.132411 
L 746.920048 303.416294 
L 747.163636 312.756563 
L 747.163636 312.756563 
" style="fill:none;stroke:#1f77b4;stroke-linecap:square;stroke-width:1.5;"/>
   </g>
   <g id="line2d_13">
    <path clip-path="url(#p0206f5ad16)" d="M 737.663691 384.48 
L 737.663691 51.84 
" style="fill:none;stroke:#808080;stroke-linecap:square;"/>
   </g>
   <g id="patch_36">
    <path d="M 108 384.48 
L 108 51.84 
" style="fill:none;stroke:#000000;stroke-linecap:square;stroke-linejoin:miter;stroke-width:0.8;"/>
   </g>
   <g id="patch_37">
    <path d="M 777.6 384.48 
L 777.6 51.84 
" style="fill:none;stroke:#000000;stroke-linecap:square;stroke-linejoin:miter;stroke-width:0.8;"/>
   </g>
   <g id="patch_38">
    <path d="M 108 384.48 
L 777.6 384.48 
" style="fill:none;stroke:#000000;stroke-linecap:square;stroke-linejoin:miter;stroke-width:0.8;"/>
   </g>
   <g id="patch_39">
    <path d="M 108 51.84 
L 777.6 51.84 
" style="fill:none;stroke:#000000;stroke-linecap:square;stroke-linejoin:miter;stroke-width:0.8;"/>
   </g>
   <g id="text_14">
    <!-- occupancy_t4013.csv -->
    <defs>
     <path d="M 30.609375 48.390625 
Q 23.390625 48.390625 19.1875 42.75 
Q 14.984375 37.109375 14.984375 27.296875 
Q 14.984375 17.484375 19.15625 11.84375 
Q 23.34375 6.203125 30.609375 6.203125 
Q 37.796875 6.203125 41.984375 11.859375 
Q 46.1875 17.53125 46.1875 27.296875 
Q 46.1875 37.015625 41.984375 42.703125 
Q 37.796875 48.390625 30.609375 48.390625 
z
M 30.609375 56 
Q 42.328125 56 49.015625 48.375 
Q 55.71875 40.765625 55.71875 27.296875 
Q 55.71875 13.875 49.015625 6.21875 
Q 42.328125 -1.421875 30.609375 -1.421875 
Q 18.84375 -1.421875 12.171875 6.21875 
Q 5.515625 13.875 5.515625 27.296875 
Q 5.515625 40.765625 12.171875 48.375 
Q 18.84375 56 30.609375 56 
z
" id="DejaVuSans-111"/>
     <path d="M 48.78125 52.59375 
L 48.78125 44.1875 
Q 44.96875 46.296875 41.140625 47.34375 
Q 37.3125 48.390625 33.40625 48.390625 
Q 24.65625 48.390625 19.8125 42.84375 
Q 14.984375 37.3125 14.984375 27.296875 
Q 14.984375 17.28125 19.8125 11.734375 
Q 24.65625 6.203125 33.40625 6.203125 
Q 37.3125 6.203125 41.140625 7.25 
Q 44.96875 8.296875 48.78125 10.40625 
L 48.78125 2.09375 
Q 45.015625 0.34375 40.984375 -0.53125 
Q 36.96875 -1.421875 32.421875 -1.421875 
Q 20.0625 -1.421875 12.78125 6.34375 
Q 5.515625 14.109375 5.515625 27.296875 
Q 5.515625 40.671875 12.859375 48.328125 
Q 20.21875 56 33.015625 56 
Q 37.15625 56 41.109375 55.140625 
Q 45.0625 54.296875 48.78125 52.59375 
z
" id="DejaVuSans-99"/>
     <path d="M 54.890625 33.015625 
L 54.890625 0 
L 45.90625 0 
L 45.90625 32.71875 
Q 45.90625 40.484375 42.875 44.328125 
Q 39.84375 48.1875 33.796875 48.1875 
Q 26.515625 48.1875 22.3125 43.546875 
Q 18.109375 38.921875 18.109375 30.90625 
L 18.109375 0 
L 9.078125 0 
L 9.078125 54.6875 
L 18.109375 54.6875 
L 18.109375 46.1875 
Q 21.34375 51.125 25.703125 53.5625 
Q 30.078125 56 35.796875 56 
Q 45.21875 56 50.046875 50.171875 
Q 54.890625 44.34375 54.890625 33.015625 
z
" id="DejaVuSans-110"/>
     <path d="M 32.171875 -5.078125 
Q 28.375 -14.84375 24.75 -17.8125 
Q 21.140625 -20.796875 15.09375 -20.796875 
L 7.90625 -20.796875 
L 7.90625 -13.28125 
L 13.1875 -13.28125 
Q 16.890625 -13.28125 18.9375 -11.515625 
Q 21 -9.765625 23.484375 -3.21875 
L 25.09375 0.875 
L 2.984375 54.6875 
L 12.5 54.6875 
L 29.59375 11.921875 
L 46.6875 54.6875 
L 56.203125 54.6875 
z
" id="DejaVuSans-121"/>
     <path d="M 50.984375 -16.609375 
L 50.984375 -23.578125 
L -0.984375 -23.578125 
L -0.984375 -16.609375 
z
" id="DejaVuSans-95"/>
     <path d="M 10.6875 12.40625 
L 21 12.40625 
L 21 0 
L 10.6875 0 
z
" id="DejaVuSans-46"/>
     <path d="M 2.984375 54.6875 
L 12.5 54.6875 
L 29.59375 8.796875 
L 46.6875 54.6875 
L 56.203125 54.6875 
L 35.6875 0 
L 23.484375 0 
z
" id="DejaVuSans-118"/>
    </defs>
    <g transform="translate(378.084375 45.84)scale(0.12 -0.12)">
     <use xlink:href="#DejaVuSans-111"/>
     <use x="61.181641" xlink:href="#DejaVuSans-99"/>
     <use x="116.162109" xlink:href="#DejaVuSans-99"/>
     <use x="171.142578" xlink:href="#DejaVuSans-117"/>
     <use x="234.521484" xlink:href="#DejaVuSans-112"/>
     <use x="297.998047" xlink:href="#DejaVuSans-97"/>
     <use x="359.277344" xlink:href="#DejaVuSans-110"/>
     <use x="422.65625" xlink:href="#DejaVuSans-99"/>
     <use x="477.636719" xlink:href="#DejaVuSans-121"/>
     <use x="536.816406" xlink:href="#DejaVuSans-95"/>
     <use x="586.816406" xlink:href="#DejaVuSans-116"/>
     <use x="626.025391" xlink:href="#DejaVuSans-52"/>
     <use x="689.648438" xlink:href="#DejaVuSans-48"/>
     <use x="753.271484" xlink:href="#DejaVuSans-49"/>
     <use x="816.894531" xlink:href="#DejaVuSans-51"/>
     <use x="880.517578" xlink:href="#DejaVuSans-46"/>
     <use x="912.304688" xlink:href="#DejaVuSans-99"/>
     <use x="967.285156" xlink:href="#DejaVuSans-115"/>
     <use x="1019.384766" xlink:href="#DejaVuSans-118"/>
    </g>
   </g>
   <g id="legend_1">
    <g id="patch_40">
     <path d="M 115 74.518125 
L 174.315625 74.518125 
Q 176.315625 74.518125 176.315625 72.518125 
L 176.315625 58.84 
Q 176.315625 56.84 174.315625 56.84 
L 115 56.84 
Q 113 56.84 113 58.84 
L 113 72.518125 
Q 113 74.518125 115 74.518125 
z
" style="fill:#ffffff;opacity:0.8;stroke:#cccccc;stroke-linejoin:miter;"/>
    </g>
    <g id="line2d_14">
     <path d="M 117 64.938438 
L 137 64.938438 
" style="fill:none;stroke:#1f77b4;stroke-linecap:square;stroke-width:1.5;"/>
    </g>
    <g id="line2d_15"/>
    <g id="text_15">
     <!-- value -->
     <g transform="translate(145 68.438438)scale(0.1 -0.1)">
      <use xlink:href="#DejaVuSans-118"/>
      <use x="59.179688" xlink:href="#DejaVuSans-97"/>
      <use x="120.458984" xlink:href="#DejaVuSans-108"/>
      <use x="148.242188" xlink:href="#DejaVuSans-117"/>
      <use x="211.621094" xlink:href="#DejaVuSans-101"/>
     </g>
    </g>
   </g>
  </g>
 </g>
 <defs>
  <clipPath id="p0206f5ad16">
   <rect height="332.64" width="669.6" x="108" y="51.84"/>
  </clipPath>
 </defs>
</svg>
