<?xml version="1.0" encoding="utf-8" standalone="no"?>
<!DOCTYPE svg PUBLIC "-//W3C//DTD SVG 1.1//EN"
  "http://www.w3.org/Graphics/SVG/1.1/DTD/svg11.dtd">
<!-- Created with matplotlib (https://matplotlib.org/) -->
<svg height="432pt" version="1.1" viewBox="0 0 864 432" width="864pt" xmlns="http://www.w3.org/2000/svg" xmlns:xlink="http://www.w3.org/1999/xlink">
 <defs>
  <style type="text/css">
*{stroke-linecap:butt;stroke-linejoin:round;}
  </style>
 </defs>
 <g id="figure_1">
  <g id="patch_1">
   <path d="M 0 432 
L 864 432 
L 864 0 
L 0 0 
z
" style="fill:#ffffff;"/>
  </g>
  <g id="axes_1">
   <g id="patch_2">
    <path d="M 108 384.48 
L 777.6 384.48 
L 777.6 51.84 
L 108 51.84 
z
" style="fill:#ffffff;"/>
   </g>
   <g id="patch_3">
    <path clip-path="url(#pfa6a0446c6)" d="M 138.436364 384.48 
L 138.436364 51.84 
L 373.383732 51.84 
L 373.383732 384.48 
z
" style="fill:#0000ff;opacity:0.05;"/>
   </g>
   <g id="patch_4">
    <path clip-path="url(#pfa6a0446c6)" d="M 373.383732 384.48 
L 373.383732 51.84 
L 747.163636 51.84 
L 747.163636 384.48 
z
" style="fill:#ff0000;opacity:0.08;"/>
   </g>
   <g id="patch_5">
    <path clip-path="url(#pfa6a0446c6)" d="M 138.436364 384.48 
L 138.436364 51.84 
L 149.115789 51.84 
L 149.115789 384.48 
z
" style="fill:#008000;opacity:0.04;"/>
   </g>
   <g id="patch_6">
    <path clip-path="url(#pfa6a0446c6)" d="M 159.795215 384.48 
L 159.795215 51.84 
L 170.474641 51.84 
L 170.474641 384.48 
z
" style="fill:#008000;opacity:0.04;"/>
   </g>
   <g id="patch_7">
    <path clip-path="url(#pfa6a0446c6)" d="M 181.154067 384.48 
L 181.154067 51.84 
L 191.833493 51.84 
L 191.833493 384.48 
z
" style="fill:#008000;opacity:0.04;"/>
   </g>
   <g id="patch_8">
    <path clip-path="url(#pfa6a0446c6)" d="M 416.101435 384.48 
L 416.101435 371.1744 
L 426.780861 371.1744 
L 426.780861 384.48 
z
" style="fill:#ff6600;"/>
   </g>
   <g id="patch_9">
    <path clip-path="url(#pfa6a0446c6)" d="M 202.512919 384.48 
L 202.512919 51.84 
L 213.192344 51.84 
L 213.192344 384.48 
z
" style="fill:#008000;opacity:0.04;"/>
   </g>
   <g id="patch_10">
    <path clip-path="url(#pfa6a0446c6)" d="M 213.192344 384.48 
L 213.192344 371.1744 
L 223.87177 371.1744 
L 223.87177 384.48 
z
" style="fill:#ffe500;"/>
   </g>
   <g id="patch_11">
    <path clip-path="url(#pfa6a0446c6)" d="M 223.87177 384.48 
L 223.87177 51.84 
L 234.551196 51.84 
L 234.551196 384.48 
z
" style="fill:#008000;opacity:0.04;"/>
   </g>
   <g id="patch_12">
    <path clip-path="url(#pfa6a0446c6)" d="M 245.230622 384.48 
L 245.230622 51.84 
L 255.910048 51.84 
L 255.910048 384.48 
z
" style="fill:#008000;opacity:0.04;"/>
   </g>
   <g id="patch_13">
    <path clip-path="url(#pfa6a0446c6)" d="M 266.589474 384.48 
L 266.589474 51.84 
L 277.2689 51.84 
L 277.2689 384.48 
z
" style="fill:#008000;opacity:0.04;"/>
   </g>
   <g id="patch_14">
    <path clip-path="url(#pfa6a0446c6)" d="M 277.2689 384.48 
L 277.2689 371.1744 
L 287.948325 371.1744 
L 287.948325 384.48 
z
" style="fill:#ffe500;"/>
   </g>
   <g id="patch_15">
    <path clip-path="url(#pfa6a0446c6)" d="M 512.216268 384.48 
L 512.216268 371.1744 
L 522.895694 371.1744 
L 522.895694 384.48 
z
" style="fill:#ff6600;"/>
   </g>
   <g id="patch_16">
    <path clip-path="url(#pfa6a0446c6)" d="M 287.948325 384.48 
L 287.948325 51.84 
L 298.627751 51.84 
L 298.627751 384.48 
z
" style="fill:#008000;opacity:0.04;"/>
   </g>
   <g id="patch_17">
    <path clip-path="url(#pfa6a0446c6)" d="M 309.307177 384.48 
L 309.307177 51.84 
L 319.986603 51.84 
L 319.986603 384.48 
z
" style="fill:#008000;opacity:0.04;"/>
   </g>
   <g id="patch_18">
    <path clip-path="url(#pfa6a0446c6)" d="M 330.666029 384.48 
L 330.666029 51.84 
L 341.345455 51.84 
L 341.345455 384.48 
z
" style="fill:#008000;opacity:0.04;"/>
   </g>
   <g id="patch_19">
    <path clip-path="url(#pfa6a0446c6)" d="M 352.02488 384.48 
L 352.02488 51.84 
L 362.704306 51.84 
L 362.704306 384.48 
z
" style="fill:#008000;opacity:0.04;"/>
   </g>
   <g id="patch_20">
    <path clip-path="url(#pfa6a0446c6)" d="M 373.383732 384.48 
L 373.383732 51.84 
L 384.063158 51.84 
L 384.063158 384.48 
z
" style="fill:#008000;opacity:0.04;"/>
   </g>
   <g id="patch_21">
    <path clip-path="url(#pfa6a0446c6)" d="M 394.742584 384.48 
L 394.742584 51.84 
L 405.42201 51.84 
L 405.42201 384.48 
z
" style="fill:#008000;opacity:0.04;"/>
   </g>
   <g id="patch_22">
    <path clip-path="url(#pfa6a0446c6)" d="M 416.101435 384.48 
L 416.101435 51.84 
L 426.780861 51.84 
L 426.780861 384.48 
z
" style="fill:#008000;opacity:0.04;"/>
   </g>
   <g id="patch_23">
    <path clip-path="url(#pfa6a0446c6)" d="M 416.101435 371.1744 
L 416.101435 51.84 
L 426.780861 51.84 
L 426.780861 371.1744 
z
" style="fill:#008000;opacity:0.5;"/>
   </g>
   <g id="patch_24">
    <path clip-path="url(#pfa6a0446c6)" d="M 437.460287 384.48 
L 437.460287 51.84 
L 448.139713 51.84 
L 448.139713 384.48 
z
" style="fill:#008000;opacity:0.04;"/>
   </g>
   <g id="patch_25">
    <path clip-path="url(#pfa6a0446c6)" d="M 458.819139 384.48 
L 458.819139 51.84 
L 469.498565 51.84 
L 469.498565 384.48 
z
" style="fill:#008000;opacity:0.04;"/>
   </g>
   <g id="patch_26">
    <path clip-path="url(#pfa6a0446c6)" d="M 480.17799 384.48 
L 480.17799 51.84 
L 490.857416 51.84 
L 490.857416 384.48 
z
" style="fill:#008000;opacity:0.04;"/>
   </g>
   <g id="patch_27">
    <path clip-path="url(#pfa6a0446c6)" d="M 501.536842 384.48 
L 501.536842 51.84 
L 512.216268 51.84 
L 512.216268 384.48 
z
" style="fill:#008000;opacity:0.04;"/>
   </g>
   <g id="patch_28">
    <path clip-path="url(#pfa6a0446c6)" d="M 512.216268 371.1744 
L 512.216268 51.84 
L 522.895694 51.84 
L 522.895694 371.1744 
z
" style="fill:#008000;opacity:0.5;"/>
   </g>
   <g id="patch_29">
    <path clip-path="url(#pfa6a0446c6)" d="M 522.895694 384.48 
L 522.895694 51.84 
L 533.57512 51.84 
L 533.57512 384.48 
z
" style="fill:#008000;opacity:0.04;"/>
   </g>
   <g id="patch_30">
    <path clip-path="url(#pfa6a0446c6)" d="M 544.254545 384.48 
L 544.254545 51.84 
L 554.933971 51.84 
L 554.933971 384.48 
z
" style="fill:#008000;opacity:0.04;"/>
   </g>
   <g id="patch_31">
    <path clip-path="url(#pfa6a0446c6)" d="M 565.613397 384.48 
L 565.613397 51.84 
L 576.292823 51.84 
L 576.292823 384.48 
z
" style="fill:#008000;opacity:0.04;"/>
   </g>
   <g id="patch_32">
    <path clip-path="url(#pfa6a0446c6)" d="M 586.972249 384.48 
L 586.972249 51.84 
L 597.651675 51.84 
L 597.651675 384.48 
z
" style="fill:#008000;opacity:0.04;"/>
   </g>
   <g id="patch_33">
    <path clip-path="url(#pfa6a0446c6)" d="M 608.3311 384.48 
L 608.3311 51.84 
L 619.010526 51.84 
L 619.010526 384.48 
z
" style="fill:#008000;opacity:0.04;"/>
   </g>
   <g id="patch_34">
    <path clip-path="url(#pfa6a0446c6)" d="M 629.689952 384.48 
L 629.689952 51.84 
L 640.369378 51.84 
L 640.369378 384.48 
z
" style="fill:#008000;opacity:0.04;"/>
   </g>
   <g id="patch_35">
    <path clip-path="url(#pfa6a0446c6)" d="M 651.048804 384.48 
L 651.048804 51.84 
L 661.72823 51.84 
L 661.72823 384.48 
z
" style="fill:#008000;opacity:0.04;"/>
   </g>
   <g id="patch_36">
    <path clip-path="url(#pfa6a0446c6)" d="M 672.407656 384.48 
L 672.407656 51.84 
L 683.087081 51.84 
L 683.087081 384.48 
z
" style="fill:#008000;opacity:0.04;"/>
   </g>
   <g id="patch_37">
    <path clip-path="url(#pfa6a0446c6)" d="M 693.766507 384.48 
L 693.766507 51.84 
L 704.445933 51.84 
L 704.445933 384.48 
z
" style="fill:#008000;opacity:0.04;"/>
   </g>
   <g id="patch_38">
    <path clip-path="url(#pfa6a0446c6)" d="M 715.125359 384.48 
L 715.125359 51.84 
L 725.804785 51.84 
L 725.804785 384.48 
z
" style="fill:#008000;opacity:0.04;"/>
   </g>
   <g id="patch_39">
    <path clip-path="url(#pfa6a0446c6)" d="M 736.484211 384.48 
L 736.484211 51.84 
L 747.163636 51.84 
L 747.163636 384.48 
z
" style="fill:#008000;opacity:0.04;"/>
   </g>
   <g id="matplotlib.axis_1">
    <g id="xtick_1">
     <g id="line2d_1">
      <defs>
       <path d="M 0 0 
L 0 3.5 
" id="mf324855bc6" style="stroke:#000000;stroke-width:0.8;"/>
      </defs>
      <g>
       <use style="stroke:#000000;stroke-width:0.8;" x="138.436364" xlink:href="#mf324855bc6" y="384.48"/>
      </g>
     </g>
     <g id="text_1">
      <!-- 0 -->
      <defs>
       <path d="M 31.78125 66.40625 
Q 24.171875 66.40625 20.328125 58.90625 
Q 16.5 51.421875 16.5 36.375 
Q 16.5 21.390625 20.328125 13.890625 
Q 24.171875 6.390625 31.78125 6.390625 
Q 39.453125 6.390625 43.28125 13.890625 
Q 47.125 21.390625 47.125 36.375 
Q 47.125 51.421875 43.28125 58.90625 
Q 39.453125 66.40625 31.78125 66.40625 
z
M 31.78125 74.21875 
Q 44.046875 74.21875 50.515625 64.515625 
Q 56.984375 54.828125 56.984375 36.375 
Q 56.984375 17.96875 50.515625 8.265625 
Q 44.046875 -1.421875 31.78125 -1.421875 
Q 19.53125 -1.421875 13.0625 8.265625 
Q 6.59375 17.96875 6.59375 36.375 
Q 6.59375 54.828125 13.0625 64.515625 
Q 19.53125 74.21875 31.78125 74.21875 
z
" id="DejaVuSans-48"/>
      </defs>
      <g transform="translate(135.255114 399.078438)scale(0.1 -0.1)">
       <use xlink:href="#DejaVuSans-48"/>
      </g>
     </g>
    </g>
    <g id="xtick_2">
     <g id="line2d_2">
      <g>
       <use style="stroke:#000000;stroke-width:0.8;" x="223.87177" xlink:href="#mf324855bc6" y="384.48"/>
      </g>
     </g>
     <g id="text_2">
      <!-- 200 -->
      <defs>
       <path d="M 19.1875 8.296875 
L 53.609375 8.296875 
L 53.609375 0 
L 7.328125 0 
L 7.328125 8.296875 
Q 12.9375 14.109375 22.625 23.890625 
Q 32.328125 33.6875 34.8125 36.53125 
Q 39.546875 41.84375 41.421875 45.53125 
Q 43.3125 49.21875 43.3125 52.78125 
Q 43.3125 58.59375 39.234375 62.25 
Q 35.15625 65.921875 28.609375 65.921875 
Q 23.96875 65.921875 18.8125 64.3125 
Q 13.671875 62.703125 7.8125 59.421875 
L 7.8125 69.390625 
Q 13.765625 71.78125 18.9375 73 
Q 24.125 74.21875 28.421875 74.21875 
Q 39.75 74.21875 46.484375 68.546875 
Q 53.21875 62.890625 53.21875 53.421875 
Q 53.21875 48.921875 51.53125 44.890625 
Q 49.859375 40.875 45.40625 35.40625 
Q 44.1875 33.984375 37.640625 27.21875 
Q 31.109375 20.453125 19.1875 8.296875 
z
" id="DejaVuSans-50"/>
      </defs>
      <g transform="translate(214.32802 399.078438)scale(0.1 -0.1)">
       <use xlink:href="#DejaVuSans-50"/>
       <use x="63.623047" xlink:href="#DejaVuSans-48"/>
       <use x="127.246094" xlink:href="#DejaVuSans-48"/>
      </g>
     </g>
    </g>
    <g id="xtick_3">
     <g id="line2d_3">
      <g>
       <use style="stroke:#000000;stroke-width:0.8;" x="309.307177" xlink:href="#mf324855bc6" y="384.48"/>
      </g>
     </g>
     <g id="text_3">
      <!-- 400 -->
      <defs>
       <path d="M 37.796875 64.3125 
L 12.890625 25.390625 
L 37.796875 25.390625 
z
M 35.203125 72.90625 
L 47.609375 72.90625 
L 47.609375 25.390625 
L 58.015625 25.390625 
L 58.015625 17.1875 
L 47.609375 17.1875 
L 47.609375 0 
L 37.796875 0 
L 37.796875 17.1875 
L 4.890625 17.1875 
L 4.890625 26.703125 
z
" id="DejaVuSans-52"/>
      </defs>
      <g transform="translate(299.763427 399.078438)scale(0.1 -0.1)">
       <use xlink:href="#DejaVuSans-52"/>
       <use x="63.623047" xlink:href="#DejaVuSans-48"/>
       <use x="127.246094" xlink:href="#DejaVuSans-48"/>
      </g>
     </g>
    </g>
    <g id="xtick_4">
     <g id="line2d_4">
      <g>
       <use style="stroke:#000000;stroke-width:0.8;" x="394.742584" xlink:href="#mf324855bc6" y="384.48"/>
      </g>
     </g>
     <g id="text_4">
      <!-- 600 -->
      <defs>
       <path d="M 33.015625 40.375 
Q 26.375 40.375 22.484375 35.828125 
Q 18.609375 31.296875 18.609375 23.390625 
Q 18.609375 15.53125 22.484375 10.953125 
Q 26.375 6.390625 33.015625 6.390625 
Q 39.65625 6.390625 43.53125 10.953125 
Q 47.40625 15.53125 47.40625 23.390625 
Q 47.40625 31.296875 43.53125 35.828125 
Q 39.65625 40.375 33.015625 40.375 
z
M 52.59375 71.296875 
L 52.59375 62.3125 
Q 48.875 64.0625 45.09375 64.984375 
Q 41.3125 65.921875 37.59375 65.921875 
Q 27.828125 65.921875 22.671875 59.328125 
Q 17.53125 52.734375 16.796875 39.40625 
Q 19.671875 43.65625 24.015625 45.921875 
Q 28.375 48.1875 33.59375 48.1875 
Q 44.578125 48.1875 50.953125 41.515625 
Q 57.328125 34.859375 57.328125 23.390625 
Q 57.328125 12.15625 50.6875 5.359375 
Q 44.046875 -1.421875 33.015625 -1.421875 
Q 20.359375 -1.421875 13.671875 8.265625 
Q 6.984375 17.96875 6.984375 36.375 
Q 6.984375 53.65625 15.1875 63.9375 
Q 23.390625 74.21875 37.203125 74.21875 
Q 40.921875 74.21875 44.703125 73.484375 
Q 48.484375 72.75 52.59375 71.296875 
z
" id="DejaVuSans-54"/>
      </defs>
      <g transform="translate(385.198834 399.078438)scale(0.1 -0.1)">
       <use xlink:href="#DejaVuSans-54"/>
       <use x="63.623047" xlink:href="#DejaVuSans-48"/>
       <use x="127.246094" xlink:href="#DejaVuSans-48"/>
      </g>
     </g>
    </g>
    <g id="xtick_5">
     <g id="line2d_5">
      <g>
       <use style="stroke:#000000;stroke-width:0.8;" x="480.17799" xlink:href="#mf324855bc6" y="384.48"/>
      </g>
     </g>
     <g id="text_5">
      <!-- 800 -->
      <defs>
       <path d="M 31.78125 34.625 
Q 24.75 34.625 20.71875 30.859375 
Q 16.703125 27.09375 16.703125 20.515625 
Q 16.703125 13.921875 20.71875 10.15625 
Q 24.75 6.390625 31.78125 6.390625 
Q 38.8125 6.390625 42.859375 10.171875 
Q 46.921875 13.96875 46.921875 20.515625 
Q 46.921875 27.09375 42.890625 30.859375 
Q 38.875 34.625 31.78125 34.625 
z
M 21.921875 38.8125 
Q 15.578125 40.375 12.03125 44.71875 
Q 8.5 49.078125 8.5 55.328125 
Q 8.5 64.0625 14.71875 69.140625 
Q 20.953125 74.21875 31.78125 74.21875 
Q 42.671875 74.21875 48.875 69.140625 
Q 55.078125 64.0625 55.078125 55.328125 
Q 55.078125 49.078125 51.53125 44.71875 
Q 48 40.375 41.703125 38.8125 
Q 48.828125 37.15625 52.796875 32.3125 
Q 56.78125 27.484375 56.78125 20.515625 
Q 56.78125 9.90625 50.3125 4.234375 
Q 43.84375 -1.421875 31.78125 -1.421875 
Q 19.734375 -1.421875 13.25 4.234375 
Q 6.78125 9.90625 6.78125 20.515625 
Q 6.78125 27.484375 10.78125 32.3125 
Q 14.796875 37.15625 21.921875 38.8125 
z
M 18.3125 54.390625 
Q 18.3125 48.734375 21.84375 45.5625 
Q 25.390625 42.390625 31.78125 42.390625 
Q 38.140625 42.390625 41.71875 45.5625 
Q 45.3125 48.734375 45.3125 54.390625 
Q 45.3125 60.0625 41.71875 63.234375 
Q 38.140625 66.40625 31.78125 66.40625 
Q 25.390625 66.40625 21.84375 63.234375 
Q 18.3125 60.0625 18.3125 54.390625 
z
" id="DejaVuSans-56"/>
      </defs>
      <g transform="translate(470.63424 399.078438)scale(0.1 -0.1)">
       <use xlink:href="#DejaVuSans-56"/>
       <use x="63.623047" xlink:href="#DejaVuSans-48"/>
       <use x="127.246094" xlink:href="#DejaVuSans-48"/>
      </g>
     </g>
    </g>
    <g id="xtick_6">
     <g id="line2d_6">
      <g>
       <use style="stroke:#000000;stroke-width:0.8;" x="565.613397" xlink:href="#mf324855bc6" y="384.48"/>
      </g>
     </g>
     <g id="text_6">
      <!-- 1000 -->
      <defs>
       <path d="M 12.40625 8.296875 
L 28.515625 8.296875 
L 28.515625 63.921875 
L 10.984375 60.40625 
L 10.984375 69.390625 
L 28.421875 72.90625 
L 38.28125 72.90625 
L 38.28125 8.296875 
L 54.390625 8.296875 
L 54.390625 0 
L 12.40625 0 
z
" id="DejaVuSans-49"/>
      </defs>
      <g transform="translate(552.888397 399.078438)scale(0.1 -0.1)">
       <use xlink:href="#DejaVuSans-49"/>
       <use x="63.623047" xlink:href="#DejaVuSans-48"/>
       <use x="127.246094" xlink:href="#DejaVuSans-48"/>
       <use x="190.869141" xlink:href="#DejaVuSans-48"/>
      </g>
     </g>
    </g>
    <g id="xtick_7">
     <g id="line2d_7">
      <g>
       <use style="stroke:#000000;stroke-width:0.8;" x="651.048804" xlink:href="#mf324855bc6" y="384.48"/>
      </g>
     </g>
     <g id="text_7">
      <!-- 1200 -->
      <g transform="translate(638.323804 399.078438)scale(0.1 -0.1)">
       <use xlink:href="#DejaVuSans-49"/>
       <use x="63.623047" xlink:href="#DejaVuSans-50"/>
       <use x="127.246094" xlink:href="#DejaVuSans-48"/>
       <use x="190.869141" xlink:href="#DejaVuSans-48"/>
      </g>
     </g>
    </g>
    <g id="xtick_8">
     <g id="line2d_8">
      <g>
       <use style="stroke:#000000;stroke-width:0.8;" x="736.484211" xlink:href="#mf324855bc6" y="384.48"/>
      </g>
     </g>
     <g id="text_8">
      <!-- 1400 -->
      <g transform="translate(723.759211 399.078438)scale(0.1 -0.1)">
       <use xlink:href="#DejaVuSans-49"/>
       <use x="63.623047" xlink:href="#DejaVuSans-52"/>
       <use x="127.246094" xlink:href="#DejaVuSans-48"/>
       <use x="190.869141" xlink:href="#DejaVuSans-48"/>
      </g>
     </g>
    </g>
    <g id="text_9">
     <!-- Timestamp -->
     <defs>
      <path d="M -0.296875 72.90625 
L 61.375 72.90625 
L 61.375 64.59375 
L 35.5 64.59375 
L 35.5 0 
L 25.59375 0 
L 25.59375 64.59375 
L -0.296875 64.59375 
z
" id="DejaVuSans-84"/>
      <path d="M 9.421875 54.6875 
L 18.40625 54.6875 
L 18.40625 0 
L 9.421875 0 
z
M 9.421875 75.984375 
L 18.40625 75.984375 
L 18.40625 64.59375 
L 9.421875 64.59375 
z
" id="DejaVuSans-105"/>
      <path d="M 52 44.1875 
Q 55.375 50.25 60.0625 53.125 
Q 64.75 56 71.09375 56 
Q 79.640625 56 84.28125 50.015625 
Q 88.921875 44.046875 88.921875 33.015625 
L 88.921875 0 
L 79.890625 0 
L 79.890625 32.71875 
Q 79.890625 40.578125 77.09375 44.375 
Q 74.3125 48.1875 68.609375 48.1875 
Q 61.625 48.1875 57.5625 43.546875 
Q 53.515625 38.921875 53.515625 30.90625 
L 53.515625 0 
L 44.484375 0 
L 44.484375 32.71875 
Q 44.484375 40.625 41.703125 44.40625 
Q 38.921875 48.1875 33.109375 48.1875 
Q 26.21875 48.1875 22.15625 43.53125 
Q 18.109375 38.875 18.109375 30.90625 
L 18.109375 0 
L 9.078125 0 
L 9.078125 54.6875 
L 18.109375 54.6875 
L 18.109375 46.1875 
Q 21.1875 51.21875 25.484375 53.609375 
Q 29.78125 56 35.6875 56 
Q 41.65625 56 45.828125 52.96875 
Q 50 49.953125 52 44.1875 
z
" id="DejaVuSans-109"/>
      <path d="M 56.203125 29.59375 
L 56.203125 25.203125 
L 14.890625 25.203125 
Q 15.484375 15.921875 20.484375 11.0625 
Q 25.484375 6.203125 34.421875 6.203125 
Q 39.59375 6.203125 44.453125 7.46875 
Q 49.3125 8.734375 54.109375 11.28125 
L 54.109375 2.78125 
Q 49.265625 0.734375 44.1875 -0.34375 
Q 39.109375 -1.421875 33.890625 -1.421875 
Q 20.796875 -1.421875 13.15625 6.1875 
Q 5.515625 13.8125 5.515625 26.8125 
Q 5.515625 40.234375 12.765625 48.109375 
Q 20.015625 56 32.328125 56 
Q 43.359375 56 49.78125 48.890625 
Q 56.203125 41.796875 56.203125 29.59375 
z
M 47.21875 32.234375 
Q 47.125 39.59375 43.09375 43.984375 
Q 39.0625 48.390625 32.421875 48.390625 
Q 24.90625 48.390625 20.390625 44.140625 
Q 15.875 39.890625 15.1875 32.171875 
z
" id="DejaVuSans-101"/>
      <path d="M 44.28125 53.078125 
L 44.28125 44.578125 
Q 40.484375 46.53125 36.375 47.5 
Q 32.28125 48.484375 27.875 48.484375 
Q 21.1875 48.484375 17.84375 46.4375 
Q 14.5 44.390625 14.5 40.28125 
Q 14.5 37.15625 16.890625 35.375 
Q 19.28125 33.59375 26.515625 31.984375 
L 29.59375 31.296875 
Q 39.15625 29.25 43.1875 25.515625 
Q 47.21875 21.78125 47.21875 15.09375 
Q 47.21875 7.46875 41.1875 3.015625 
Q 35.15625 -1.421875 24.609375 -1.421875 
Q 20.21875 -1.421875 15.453125 -0.5625 
Q 10.6875 0.296875 5.421875 2 
L 5.421875 11.28125 
Q 10.40625 8.6875 15.234375 7.390625 
Q 20.0625 6.109375 24.8125 6.109375 
Q 31.15625 6.109375 34.5625 8.28125 
Q 37.984375 10.453125 37.984375 14.40625 
Q 37.984375 18.0625 35.515625 20.015625 
Q 33.0625 21.96875 24.703125 23.78125 
L 21.578125 24.515625 
Q 13.234375 26.265625 9.515625 29.90625 
Q 5.8125 33.546875 5.8125 39.890625 
Q 5.8125 47.609375 11.28125 51.796875 
Q 16.75 56 26.8125 56 
Q 31.78125 56 36.171875 55.265625 
Q 40.578125 54.546875 44.28125 53.078125 
z
" id="DejaVuSans-115"/>
      <path d="M 18.3125 70.21875 
L 18.3125 54.6875 
L 36.8125 54.6875 
L 36.8125 47.703125 
L 18.3125 47.703125 
L 18.3125 18.015625 
Q 18.3125 11.328125 20.140625 9.421875 
Q 21.96875 7.515625 27.59375 7.515625 
L 36.8125 7.515625 
L 36.8125 0 
L 27.59375 0 
Q 17.1875 0 13.234375 3.875 
Q 9.28125 7.765625 9.28125 18.015625 
L 9.28125 47.703125 
L 2.6875 47.703125 
L 2.6875 54.6875 
L 9.28125 54.6875 
L 9.28125 70.21875 
z
" id="DejaVuSans-116"/>
      <path d="M 34.28125 27.484375 
Q 23.390625 27.484375 19.1875 25 
Q 14.984375 22.515625 14.984375 16.5 
Q 14.984375 11.71875 18.140625 8.90625 
Q 21.296875 6.109375 26.703125 6.109375 
Q 34.1875 6.109375 38.703125 11.40625 
Q 43.21875 16.703125 43.21875 25.484375 
L 43.21875 27.484375 
z
M 52.203125 31.203125 
L 52.203125 0 
L 43.21875 0 
L 43.21875 8.296875 
Q 40.140625 3.328125 35.546875 0.953125 
Q 30.953125 -1.421875 24.3125 -1.421875 
Q 15.921875 -1.421875 10.953125 3.296875 
Q 6 8.015625 6 15.921875 
Q 6 25.140625 12.171875 29.828125 
Q 18.359375 34.515625 30.609375 34.515625 
L 43.21875 34.515625 
L 43.21875 35.40625 
Q 43.21875 41.609375 39.140625 45 
Q 35.0625 48.390625 27.6875 48.390625 
Q 23 48.390625 18.546875 47.265625 
Q 14.109375 46.140625 10.015625 43.890625 
L 10.015625 52.203125 
Q 14.9375 54.109375 19.578125 55.046875 
Q 24.21875 56 28.609375 56 
Q 40.484375 56 46.34375 49.84375 
Q 52.203125 43.703125 52.203125 31.203125 
z
" id="DejaVuSans-97"/>
      <path d="M 18.109375 8.203125 
L 18.109375 -20.796875 
L 9.078125 -20.796875 
L 9.078125 54.6875 
L 18.109375 54.6875 
L 18.109375 46.390625 
Q 20.953125 51.265625 25.265625 53.625 
Q 29.59375 56 35.59375 56 
Q 45.5625 56 51.78125 48.09375 
Q 58.015625 40.1875 58.015625 27.296875 
Q 58.015625 14.40625 51.78125 6.484375 
Q 45.5625 -1.421875 35.59375 -1.421875 
Q 29.59375 -1.421875 25.265625 0.953125 
Q 20.953125 3.328125 18.109375 8.203125 
z
M 48.6875 27.296875 
Q 48.6875 37.203125 44.609375 42.84375 
Q 40.53125 48.484375 33.40625 48.484375 
Q 26.265625 48.484375 22.1875 42.84375 
Q 18.109375 37.203125 18.109375 27.296875 
Q 18.109375 17.390625 22.1875 11.75 
Q 26.265625 6.109375 33.40625 6.109375 
Q 40.53125 6.109375 44.609375 11.75 
Q 48.6875 17.390625 48.6875 27.296875 
z
" id="DejaVuSans-112"/>
     </defs>
     <g transform="translate(414.739062 412.756563)scale(0.1 -0.1)">
      <use xlink:href="#DejaVuSans-84"/>
      <use x="61.037109" xlink:href="#DejaVuSans-105"/>
      <use x="88.820312" xlink:href="#DejaVuSans-109"/>
      <use x="186.232422" xlink:href="#DejaVuSans-101"/>
      <use x="247.755859" xlink:href="#DejaVuSans-115"/>
      <use x="299.855469" xlink:href="#DejaVuSans-116"/>
      <use x="339.064453" xlink:href="#DejaVuSans-97"/>
      <use x="400.34375" xlink:href="#DejaVuSans-109"/>
      <use x="497.755859" xlink:href="#DejaVuSans-112"/>
     </g>
    </g>
   </g>
   <g id="matplotlib.axis_2">
    <g id="ytick_1">
     <g id="line2d_9">
      <defs>
       <path d="M 0 0 
L -3.5 0 
" id="m79a0c67c64" style="stroke:#000000;stroke-width:0.8;"/>
      </defs>
      <g>
       <use style="stroke:#000000;stroke-width:0.8;" x="108" xlink:href="#m79a0c67c64" y="369.482887"/>
      </g>
     </g>
     <g id="text_10">
      <!-- 0 -->
      <g transform="translate(94.6375 373.282105)scale(0.1 -0.1)">
       <use xlink:href="#DejaVuSans-48"/>
      </g>
     </g>
    </g>
    <g id="ytick_2">
     <g id="line2d_10">
      <g>
       <use style="stroke:#000000;stroke-width:0.8;" x="108" xlink:href="#m79a0c67c64" y="323.689796"/>
      </g>
     </g>
     <g id="text_11">
      <!-- 10000 -->
      <g transform="translate(69.1875 327.489015)scale(0.1 -0.1)">
       <use xlink:href="#DejaVuSans-49"/>
       <use x="63.623047" xlink:href="#DejaVuSans-48"/>
       <use x="127.246094" xlink:href="#DejaVuSans-48"/>
       <use x="190.869141" xlink:href="#DejaVuSans-48"/>
       <use x="254.492188" xlink:href="#DejaVuSans-48"/>
      </g>
     </g>
    </g>
    <g id="ytick_3">
     <g id="line2d_11">
      <g>
       <use style="stroke:#000000;stroke-width:0.8;" x="108" xlink:href="#m79a0c67c64" y="277.896705"/>
      </g>
     </g>
     <g id="text_12">
      <!-- 20000 -->
      <g transform="translate(69.1875 281.695924)scale(0.1 -0.1)">
       <use xlink:href="#DejaVuSans-50"/>
       <use x="63.623047" xlink:href="#DejaVuSans-48"/>
       <use x="127.246094" xlink:href="#DejaVuSans-48"/>
       <use x="190.869141" xlink:href="#DejaVuSans-48"/>
       <use x="254.492188" xlink:href="#DejaVuSans-48"/>
      </g>
     </g>
    </g>
    <g id="ytick_4">
     <g id="line2d_12">
      <g>
       <use style="stroke:#000000;stroke-width:0.8;" x="108" xlink:href="#m79a0c67c64" y="232.103614"/>
      </g>
     </g>
     <g id="text_13">
      <!-- 30000 -->
      <defs>
       <path d="M 40.578125 39.3125 
Q 47.65625 37.796875 51.625 33 
Q 55.609375 28.21875 55.609375 21.1875 
Q 55.609375 10.40625 48.1875 4.484375 
Q 40.765625 -1.421875 27.09375 -1.421875 
Q 22.515625 -1.421875 17.65625 -0.515625 
Q 12.796875 0.390625 7.625 2.203125 
L 7.625 11.71875 
Q 11.71875 9.328125 16.59375 8.109375 
Q 21.484375 6.890625 26.8125 6.890625 
Q 36.078125 6.890625 40.9375 10.546875 
Q 45.796875 14.203125 45.796875 21.1875 
Q 45.796875 27.640625 41.28125 31.265625 
Q 36.765625 34.90625 28.71875 34.90625 
L 20.21875 34.90625 
L 20.21875 43.015625 
L 29.109375 43.015625 
Q 36.375 43.015625 40.234375 45.921875 
Q 44.09375 48.828125 44.09375 54.296875 
Q 44.09375 59.90625 40.109375 62.90625 
Q 36.140625 65.921875 28.71875 65.921875 
Q 24.65625 65.921875 20.015625 65.03125 
Q 15.375 64.15625 9.8125 62.3125 
L 9.8125 71.09375 
Q 15.4375 72.65625 20.34375 73.4375 
Q 25.25 74.21875 29.59375 74.21875 
Q 40.828125 74.21875 47.359375 69.109375 
Q 53.90625 64.015625 53.90625 55.328125 
Q 53.90625 49.265625 50.4375 45.09375 
Q 46.96875 40.921875 40.578125 39.3125 
z
" id="DejaVuSans-51"/>
      </defs>
      <g transform="translate(69.1875 235.902833)scale(0.1 -0.1)">
       <use xlink:href="#DejaVuSans-51"/>
       <use x="63.623047" xlink:href="#DejaVuSans-48"/>
       <use x="127.246094" xlink:href="#DejaVuSans-48"/>
       <use x="190.869141" xlink:href="#DejaVuSans-48"/>
       <use x="254.492188" xlink:href="#DejaVuSans-48"/>
      </g>
     </g>
    </g>
    <g id="ytick_5">
     <g id="line2d_13">
      <g>
       <use style="stroke:#000000;stroke-width:0.8;" x="108" xlink:href="#m79a0c67c64" y="186.310523"/>
      </g>
     </g>
     <g id="text_14">
      <!-- 40000 -->
      <g transform="translate(69.1875 190.109742)scale(0.1 -0.1)">
       <use xlink:href="#DejaVuSans-52"/>
       <use x="63.623047" xlink:href="#DejaVuSans-48"/>
       <use x="127.246094" xlink:href="#DejaVuSans-48"/>
       <use x="190.869141" xlink:href="#DejaVuSans-48"/>
       <use x="254.492188" xlink:href="#DejaVuSans-48"/>
      </g>
     </g>
    </g>
    <g id="ytick_6">
     <g id="line2d_14">
      <g>
       <use style="stroke:#000000;stroke-width:0.8;" x="108" xlink:href="#m79a0c67c64" y="140.517433"/>
      </g>
     </g>
     <g id="text_15">
      <!-- 50000 -->
      <defs>
       <path d="M 10.796875 72.90625 
L 49.515625 72.90625 
L 49.515625 64.59375 
L 19.828125 64.59375 
L 19.828125 46.734375 
Q 21.96875 47.46875 24.109375 47.828125 
Q 26.265625 48.1875 28.421875 48.1875 
Q 40.625 48.1875 47.75 41.5 
Q 54.890625 34.8125 54.890625 23.390625 
Q 54.890625 11.625 47.5625 5.09375 
Q 40.234375 -1.421875 26.90625 -1.421875 
Q 22.3125 -1.421875 17.546875 -0.640625 
Q 12.796875 0.140625 7.71875 1.703125 
L 7.71875 11.625 
Q 12.109375 9.234375 16.796875 8.0625 
Q 21.484375 6.890625 26.703125 6.890625 
Q 35.15625 6.890625 40.078125 11.328125 
Q 45.015625 15.765625 45.015625 23.390625 
Q 45.015625 31 40.078125 35.4375 
Q 35.15625 39.890625 26.703125 39.890625 
Q 22.75 39.890625 18.8125 39.015625 
Q 14.890625 38.140625 10.796875 36.28125 
z
" id="DejaVuSans-53"/>
      </defs>
      <g transform="translate(69.1875 144.316651)scale(0.1 -0.1)">
       <use xlink:href="#DejaVuSans-53"/>
       <use x="63.623047" xlink:href="#DejaVuSans-48"/>
       <use x="127.246094" xlink:href="#DejaVuSans-48"/>
       <use x="190.869141" xlink:href="#DejaVuSans-48"/>
       <use x="254.492188" xlink:href="#DejaVuSans-48"/>
      </g>
     </g>
    </g>
    <g id="ytick_7">
     <g id="line2d_15">
      <g>
       <use style="stroke:#000000;stroke-width:0.8;" x="108" xlink:href="#m79a0c67c64" y="94.724342"/>
      </g>
     </g>
     <g id="text_16">
      <!-- 60000 -->
      <g transform="translate(69.1875 98.523561)scale(0.1 -0.1)">
       <use xlink:href="#DejaVuSans-54"/>
       <use x="63.623047" xlink:href="#DejaVuSans-48"/>
       <use x="127.246094" xlink:href="#DejaVuSans-48"/>
       <use x="190.869141" xlink:href="#DejaVuSans-48"/>
       <use x="254.492188" xlink:href="#DejaVuSans-48"/>
      </g>
     </g>
    </g>
    <g id="text_17">
     <!-- Value -->
     <defs>
      <path d="M 28.609375 0 
L 0.78125 72.90625 
L 11.078125 72.90625 
L 34.1875 11.53125 
L 57.328125 72.90625 
L 67.578125 72.90625 
L 39.796875 0 
z
" id="DejaVuSans-86"/>
      <path d="M 9.421875 75.984375 
L 18.40625 75.984375 
L 18.40625 0 
L 9.421875 0 
z
" id="DejaVuSans-108"/>
      <path d="M 8.5 21.578125 
L 8.5 54.6875 
L 17.484375 54.6875 
L 17.484375 21.921875 
Q 17.484375 14.15625 20.5 10.265625 
Q 23.53125 6.390625 29.59375 6.390625 
Q 36.859375 6.390625 41.078125 11.03125 
Q 45.3125 15.671875 45.3125 23.6875 
L 45.3125 54.6875 
L 54.296875 54.6875 
L 54.296875 0 
L 45.3125 0 
L 45.3125 8.40625 
Q 42.046875 3.421875 37.71875 1 
Q 33.40625 -1.421875 27.6875 -1.421875 
Q 18.265625 -1.421875 13.375 4.4375 
Q 8.5 10.296875 8.5 21.578125 
z
M 31.109375 56 
z
" id="DejaVuSans-117"/>
     </defs>
     <g transform="translate(63.107813 232.273281)rotate(-90)scale(0.1 -0.1)">
      <use xlink:href="#DejaVuSans-86"/>
      <use x="68.298828" xlink:href="#DejaVuSans-97"/>
      <use x="129.578125" xlink:href="#DejaVuSans-108"/>
      <use x="157.361328" xlink:href="#DejaVuSans-117"/>
      <use x="220.740234" xlink:href="#DejaVuSans-101"/>
     </g>
    </g>
   </g>
   <g id="line2d_16">
    <path clip-path="url(#pfa6a0446c6)" d="M 138.436364 368.280491 
L 138.863541 369.36 
L 139.290718 367.601317 
L 139.717895 367.341727 
L 140.145072 367.782923 
L 140.572249 369.18437 
L 141.426603 367.482695 
L 141.85378 366.926018 
L 142.280957 364.515656 
L 143.135311 366.720003 
L 143.562488 366.729752 
L 143.989665 365.686676 
L 144.844019 365.21758 
L 145.271196 364.354075 
L 145.698373 365.075403 
L 146.12555 363.638596 
L 146.552727 364.830426 
L 146.979904 363.676683 
L 147.407081 362.8873 
L 147.834258 362.842159 
L 148.261435 362.0015 
L 148.688612 362.505812 
L 149.542967 361.023463 
L 149.970144 362.34407 
L 150.397321 362.635414 
L 150.824498 361.248741 
L 151.678852 361.337492 
L 152.106029 361.037183 
L 152.533206 361.027946 
L 152.960383 359.63221 
L 153.38756 359.074698 
L 153.814737 359.035255 
L 154.241914 360.106117 
L 154.669091 358.48141 
L 155.096268 359.64959 
L 155.523445 357.715275 
L 156.377799 359.364579 
L 157.232153 359.732413 
L 157.65933 359.526362 
L 158.086507 359.851414 
L 158.513684 357.368454 
L 158.940861 357.555691 
L 159.368038 358.392752 
L 159.795215 357.878672 
L 160.222392 358.365492 
L 160.649569 355.832244 
L 161.076746 358.601764 
L 161.503923 357.899601 
L 162.358278 357.222424 
L 162.785455 357.880124 
L 163.212632 359.646938 
L 163.639809 358.786317 
L 164.066986 357.353167 
L 164.494163 357.668863 
L 164.92134 358.480559 
L 165.348517 357.763989 
L 165.775694 358.38648 
L 166.202871 357.478768 
L 166.630048 358.959998 
L 167.057225 357.422092 
L 168.338756 357.844341 
L 168.765933 357.686178 
L 169.19311 358.534068 
L 169.620287 358.130622 
L 170.047464 357.510134 
L 170.474641 357.197158 
L 170.901818 358.107756 
L 171.328995 358.413984 
L 171.756172 359.190121 
L 172.183349 359.734865 
L 172.610526 359.263263 
L 173.037703 357.561119 
L 173.46488 358.077651 
L 173.892057 359.042886 
L 174.319234 359.322997 
L 174.746411 359.420894 
L 175.173589 358.287644 
L 175.600766 359.508091 
L 176.027943 358.27731 
L 176.45512 358.920824 
L 176.882297 358.461867 
L 177.309474 360.475065 
L 177.736651 359.817764 
L 178.163828 360.709979 
L 178.591005 359.532841 
L 179.445359 360.531058 
L 179.872536 359.125375 
L 180.299713 360.312593 
L 180.72689 359.754551 
L 181.154067 360.054584 
L 181.581244 361.528859 
L 182.008421 361.497772 
L 182.435598 361.026099 
L 182.862775 362.161445 
L 183.289952 360.772093 
L 183.717129 362.498114 
L 184.144306 360.055011 
L 184.571483 362.010626 
L 184.99866 360.197738 
L 185.425837 362.116198 
L 185.853014 362.692089 
L 186.280191 361.902129 
L 186.707368 361.979108 
L 187.134545 363.547482 
L 187.561722 361.226802 
L 187.9889 363.193857 
L 188.416077 361.982602 
L 188.843254 361.900158 
L 189.697608 362.53542 
L 190.124785 362.300098 
L 190.551962 363.443802 
L 190.979139 363.242109 
L 191.406316 363.538539 
L 191.833493 361.201331 
L 192.26067 361.286294 
L 193.115024 363.68234 
L 193.969378 361.264192 
L 194.396555 362.983923 
L 194.823732 361.844844 
L 195.250909 363.36286 
L 195.678086 361.869456 
L 196.105263 363.263089 
L 196.53244 363.452157 
L 196.959617 363.152651 
L 197.813971 362.973031 
L 198.241148 361.448025 
L 198.668325 361.949289 
L 199.095502 362.198155 
L 199.522679 362.764011 
L 199.949856 362.593942 
L 200.377033 362.261523 
L 200.804211 362.446928 
L 201.231388 361.730155 
L 201.658565 360.789186 
L 202.085742 362.091013 
L 202.512919 359.622381 
L 202.940096 361.898396 
L 203.367273 360.67207 
L 203.79445 358.344578 
L 204.648804 360.277334 
L 205.075981 360.62409 
L 205.503158 359.161072 
L 205.930335 359.479164 
L 206.357512 359.587559 
L 206.784689 358.767176 
L 207.211866 359.252432 
L 207.639043 356.273491 
L 208.493397 357.448448 
L 208.920574 357.264222 
L 209.347751 358.115532 
L 209.774928 356.613667 
L 210.202105 357.436251 
L 210.629282 357.751398 
L 211.056459 354.956525 
L 211.483636 357.145886 
L 211.910813 356.316363 
L 212.765167 356.327441 
L 213.192344 354.68995 
L 213.619522 356.257995 
L 214.046699 354.814215 
L 214.473876 354.841872 
L 214.901053 355.258572 
L 215.32823 353.804984 
L 215.755407 353.818836 
L 216.182584 353.656605 
L 216.609761 351.975431 
L 217.036938 352.061365 
L 217.464115 352.298383 
L 217.891292 351.77361 
L 218.318469 352.245812 
L 218.745646 351.46692 
L 219.172823 350.016381 
L 219.6 350.684549 
L 220.027177 350.218051 
L 220.454354 348.278655 
L 220.881531 350.355767 
L 221.308708 348.591457 
L 221.735885 347.558387 
L 222.163062 349.74914 
L 222.590239 348.498432 
L 223.017416 348.552156 
L 223.444593 348.339696 
L 223.87177 348.526519 
L 224.298947 348.099694 
L 224.726124 345.912164 
L 225.153301 346.212517 
L 225.580478 345.766092 
L 226.007656 344.798231 
L 226.434833 346.19937 
L 226.86201 344.888672 
L 227.289187 345.38291 
L 227.716364 345.499509 
L 228.143541 343.986392 
L 228.570718 344.503926 
L 228.997895 345.213295 
L 229.425072 344.238647 
L 229.852249 342.476615 
L 230.279426 342.518666 
L 230.706603 344.583668 
L 231.13378 342.995805 
L 231.560957 342.113405 
L 231.988134 344.057176 
L 232.415311 341.191928 
L 232.842488 342.691279 
L 233.269665 341.773326 
L 233.696842 341.992588 
L 234.124019 340.256563 
L 234.551196 342.744393 
L 234.978373 341.405488 
L 235.40555 342.051084 
L 236.259904 338.84482 
L 236.687081 341.971415 
L 237.114258 340.559746 
L 237.541435 340.50053 
L 237.968612 338.89629 
L 238.395789 340.983349 
L 239.250144 338.421311 
L 239.677321 340.034664 
L 240.104498 340.332178 
L 240.958852 339.113659 
L 241.386029 340.367866 
L 241.813206 338.005259 
L 242.240383 339.355837 
L 242.66756 341.851613 
L 243.094737 340.236157 
L 243.521914 337.877922 
L 243.949091 340.056325 
L 244.376268 339.267815 
L 244.803445 339.125391 
L 245.230622 340.549398 
L 245.657799 338.719924 
L 246.084976 338.783385 
L 246.512153 337.522091 
L 247.366507 339.125477 
L 247.793684 339.295933 
L 248.220861 338.726031 
L 248.648038 340.070203 
L 249.075215 339.24507 
L 249.929569 338.957847 
L 250.356746 340.489777 
L 250.783923 338.281692 
L 251.2111 339.014259 
L 251.638278 337.507502 
L 252.065455 341.429591 
L 252.492632 340.372473 
L 252.919809 341.440066 
L 253.346986 340.396166 
L 253.774163 339.847509 
L 254.20134 338.723619 
L 254.628517 340.697522 
L 255.055694 341.457752 
L 255.910048 340.072909 
L 256.337225 340.563595 
L 256.764402 339.677994 
L 257.618756 342.494263 
L 258.045933 340.333046 
L 258.47311 342.25242 
L 258.900287 340.85346 
L 259.754641 341.299631 
L 260.181818 340.229939 
L 260.608995 342.032771 
L 261.036172 343.116184 
L 261.463349 342.024766 
L 261.890526 342.395805 
L 262.74488 340.984686 
L 263.172057 344.10451 
L 263.599234 342.816517 
L 264.026411 342.672402 
L 264.453589 342.355353 
L 264.880766 343.545314 
L 265.307943 342.691179 
L 265.73512 342.793181 
L 266.162297 343.228436 
L 266.589474 343.413912 
L 267.016651 342.106076 
L 267.443828 342.879622 
L 267.871005 341.83403 
L 268.298182 343.852508 
L 268.725359 344.773365 
L 269.152536 344.094019 
L 269.579713 343.72112 
L 270.00689 344.068321 
L 270.434067 344.268483 
L 270.861244 345.331043 
L 271.288421 344.686759 
L 271.715598 344.980623 
L 272.142775 343.778862 
L 272.569952 343.767878 
L 272.997129 342.737808 
L 273.424306 344.381625 
L 273.851483 343.266701 
L 274.27866 344.511904 
L 274.705837 345.407853 
L 275.133014 343.686453 
L 275.560191 344.498025 
L 275.987368 344.744003 
L 276.414545 344.639578 
L 276.841722 342.981775 
L 277.2689 342.509458 
L 277.696077 342.946867 
L 278.550431 344.838924 
L 278.977608 343.420961 
L 279.404785 342.556954 
L 279.831962 342.706519 
L 280.259139 343.064921 
L 280.686316 343.03966 
L 281.113493 343.858851 
L 281.54067 342.61274 
L 281.967847 342.825032 
L 282.395024 342.68033 
L 282.822201 342.775438 
L 283.249378 343.463771 
L 283.676555 342.814648 
L 284.103732 341.464689 
L 284.530909 341.9325 
L 284.958086 341.778936 
L 285.385263 341.773371 
L 285.81244 340.197601 
L 286.239617 341.212328 
L 286.666794 340.810168 
L 287.093971 340.691114 
L 287.521148 341.451616 
L 287.948325 340.448877 
L 288.375502 339.041005 
L 288.802679 339.536169 
L 289.229856 340.971677 
L 289.657033 339.393499 
L 290.084211 338.725763 
L 290.511388 339.030362 
L 290.938565 338.024737 
L 291.792919 339.104088 
L 292.220096 337.277666 
L 292.647273 337.412945 
L 293.07445 336.890274 
L 293.501627 336.174612 
L 293.928804 336.628308 
L 294.355981 337.938944 
L 294.783158 336.117256 
L 295.210335 337.361898 
L 296.064689 334.501031 
L 296.491866 336.539396 
L 296.919043 334.638704 
L 297.34622 334.959556 
L 297.773397 334.384566 
L 298.200574 332.95991 
L 298.627751 333.106426 
L 299.054928 332.063795 
L 299.482105 333.877149 
L 300.336459 332.925491 
L 300.763636 332.068124 
L 301.190813 332.520855 
L 301.61799 332.052167 
L 302.045167 331.87868 
L 302.472344 330.189962 
L 302.899522 329.931997 
L 303.326699 329.305383 
L 303.753876 327.475653 
L 304.181053 329.659823 
L 304.60823 328.603742 
L 305.035407 326.049027 
L 305.462584 328.121355 
L 305.889761 328.380553 
L 306.316938 328.882258 
L 306.744115 328.224543 
L 307.171292 328.941682 
L 307.598469 328.561784 
L 308.025646 327.266413 
L 308.452823 326.362645 
L 308.88 326.34049 
L 309.307177 326.455323 
L 309.734354 327.448324 
L 310.161531 325.028302 
L 310.588708 324.955492 
L 311.015885 323.701267 
L 311.443062 326.501767 
L 312.297416 322.889741 
L 312.724593 324.09852 
L 313.15177 322.775128 
L 313.578947 323.275109 
L 314.006124 323.455544 
L 314.433301 322.579086 
L 314.860478 324.763882 
L 315.287656 323.302572 
L 316.14201 321.484894 
L 316.996364 322.167775 
L 317.423541 321.189462 
L 318.277895 322.874149 
L 318.705072 321.799996 
L 319.132249 321.798735 
L 319.559426 321.216521 
L 319.986603 321.76494 
L 320.41378 320.759464 
L 320.840957 319.433394 
L 321.268134 322.720606 
L 321.695311 320.558188 
L 322.122488 321.628104 
L 322.549665 321.480145 
L 322.976842 322.459249 
L 323.404019 321.045276 
L 323.831196 320.480455 
L 324.258373 321.982874 
L 324.68555 319.007198 
L 325.112727 321.342023 
L 325.539904 322.652309 
L 326.394258 318.584523 
L 326.821435 319.246063 
L 327.248612 319.531882 
L 328.102967 320.277549 
L 329.384498 322.716849 
L 329.811675 321.84496 
L 330.238852 322.420068 
L 330.666029 321.776706 
L 331.093206 320.332235 
L 331.520383 321.804742 
L 331.94756 322.442687 
L 332.374737 322.017998 
L 332.801914 322.74518 
L 333.229091 320.61822 
L 333.656268 322.71741 
L 334.083445 321.617427 
L 335.364976 320.112344 
L 335.792153 323.407225 
L 336.21933 321.160383 
L 336.646507 322.559578 
L 337.073684 322.336663 
L 337.500861 321.020557 
L 337.928038 322.927129 
L 338.355215 321.912916 
L 338.782392 322.701209 
L 339.209569 323.161304 
L 339.636746 321.612872 
L 340.063923 323.157723 
L 340.4911 323.262068 
L 340.918278 322.582111 
L 341.345455 322.505566 
L 341.772632 324.228097 
L 342.199809 322.531177 
L 342.626986 324.203406 
L 343.054163 324.534445 
L 343.48134 325.910344 
L 343.908517 324.105926 
L 344.335694 323.808667 
L 344.762871 324.809909 
L 345.190048 323.207669 
L 346.044402 324.405172 
L 346.471579 323.006451 
L 346.898756 325.993562 
L 347.325933 324.518237 
L 347.75311 324.113477 
L 348.180287 325.805139 
L 348.607464 325.236707 
L 349.034641 325.134291 
L 349.461818 325.543759 
L 349.888995 325.158205 
L 350.316172 325.414426 
L 350.743349 326.06136 
L 351.170526 324.718376 
L 351.597703 325.933707 
L 352.02488 326.017014 
L 352.879234 324.049251 
L 353.306411 327.095345 
L 353.733589 325.398694 
L 354.160766 325.235332 
L 354.587943 325.562171 
L 355.01512 323.347015 
L 355.442297 324.479083 
L 355.869474 326.031988 
L 356.296651 326.090601 
L 356.723828 324.717121 
L 357.151005 324.601441 
L 357.578182 324.812459 
L 358.005359 325.922863 
L 358.432536 324.86795 
L 358.859713 325.345177 
L 359.28689 323.591517 
L 359.714067 325.88185 
L 360.141244 325.02309 
L 360.568421 325.858682 
L 360.995598 325.72466 
L 361.422775 324.758313 
L 362.277129 324.969833 
L 362.704306 323.053282 
L 363.131483 324.200474 
L 363.55866 322.984921 
L 363.985837 324.85096 
L 364.413014 324.055129 
L 364.840191 324.909013 
L 365.267368 322.254837 
L 365.694545 324.200853 
L 366.121722 321.873894 
L 366.5489 323.844643 
L 366.976077 322.86832 
L 367.403254 325.102104 
L 367.830431 322.59882 
L 368.257608 322.159488 
L 368.684785 323.634472 
L 369.111962 321.98545 
L 369.539139 321.809012 
L 369.966316 322.881419 
L 370.393493 320.247714 
L 370.82067 321.850512 
L 371.675024 319.793238 
L 372.102201 320.487737 
L 372.529378 319.113963 
L 372.956555 319.384727 
L 373.383732 317.924174 
L 373.810909 319.529883 
L 374.238086 319.686038 
L 374.665263 318.074101 
L 375.09244 318.271983 
L 375.519617 318.070324 
L 375.946794 317.085213 
L 376.373971 316.800276 
L 376.801148 316.910259 
L 377.228325 316.07147 
L 378.509856 314.870365 
L 378.937033 314.27641 
L 379.364211 315.219401 
L 379.791388 315.175867 
L 380.218565 315.554573 
L 380.645742 314.378757 
L 381.072919 314.671098 
L 381.500096 313.190266 
L 381.927273 313.413652 
L 382.781627 313.475548 
L 383.208804 312.259625 
L 384.063158 312.801347 
L 384.490335 312.62956 
L 384.917512 310.130919 
L 385.344689 311.386506 
L 385.771866 311.163076 
L 386.199043 310.456425 
L 386.62622 310.411878 
L 387.480574 309.606333 
L 387.907751 309.57739 
L 388.334928 309.727386 
L 388.762105 307.86984 
L 389.189282 308.318479 
L 389.616459 309.218634 
L 390.043636 306.987606 
L 390.470813 308.955816 
L 390.89799 307.531188 
L 391.325167 307.182689 
L 391.752344 307.50796 
L 392.179522 306.196813 
L 392.606699 307.531717 
L 393.033876 304.658283 
L 393.461053 305.443547 
L 393.88823 304.061681 
L 394.315407 304.774502 
L 394.742584 306.609712 
L 395.169761 304.368716 
L 395.596938 304.350616 
L 396.024115 303.659854 
L 396.451292 303.438111 
L 396.878469 303.804876 
L 397.305646 303.487365 
L 397.732823 304.388255 
L 398.16 302.342503 
L 398.587177 305.125399 
L 399.014354 305.088726 
L 399.441531 304.441911 
L 399.868708 302.391724 
L 400.295885 304.038533 
L 400.723062 303.29492 
L 401.150239 302.782945 
L 401.577416 303.181958 
L 402.004593 304.492626 
L 402.43177 301.565512 
L 402.858947 302.578497 
L 403.286124 301.978938 
L 404.140478 302.79066 
L 404.994833 301.525221 
L 405.42201 303.522107 
L 405.849187 303.189225 
L 406.276364 301.017989 
L 406.703541 302.934337 
L 407.130718 302.120881 
L 407.557895 303.382116 
L 407.985072 301.536234 
L 408.412249 301.629248 
L 408.839426 302.402386 
L 409.266603 300.82956 
L 409.69378 302.664173 
L 410.120957 302.506945 
L 410.548134 301.32801 
L 410.975311 301.935217 
L 411.402488 301.641431 
L 411.829665 301.159296 
L 412.256842 302.288388 
L 412.684019 301.998295 
L 413.111196 303.196163 
L 413.538373 302.302558 
L 413.96555 303.056724 
L 414.392727 301.751605 
L 414.819904 302.994418 
L 415.674258 303.136423 
L 416.101435 305.00783 
L 416.528612 304.194547 
L 416.955789 301.709044 
L 417.382967 302.911762 
L 417.810144 303.600247 
L 418.237321 303.880822 
L 418.664498 303.993095 
L 419.091675 303.577913 
L 419.518852 83.166898 
L 419.946029 83.166898 
L 420.373206 304.424215 
L 420.800383 305.513594 
L 421.654737 304.199637 
L 422.081914 306.025066 
L 422.509091 303.98243 
L 422.936268 303.957382 
L 423.363445 305.11044 
L 423.790622 304.978775 
L 424.217799 304.150942 
L 424.644976 305.944739 
L 425.49933 306.655779 
L 426.353684 306.475437 
L 426.780861 305.626705 
L 427.208038 306.873227 
L 427.635215 306.380923 
L 428.062392 306.095574 
L 428.489569 307.44409 
L 428.916746 305.158407 
L 429.343923 305.334542 
L 429.7711 308.131924 
L 430.198278 307.047145 
L 430.625455 307.016322 
L 431.052632 306.60355 
L 431.479809 307.83417 
L 431.906986 307.189107 
L 432.334163 306.22185 
L 432.76134 306.081368 
L 433.188517 306.78382 
L 433.615694 306.720246 
L 434.042871 307.605778 
L 434.470048 307.446296 
L 434.897225 306.055526 
L 435.324402 307.021668 
L 435.751579 307.676196 
L 436.178756 305.644204 
L 436.605933 307.573203 
L 437.03311 306.054849 
L 437.460287 306.509685 
L 437.887464 306.654494 
L 438.314641 307.219495 
L 438.741818 306.127078 
L 439.168995 308.286192 
L 440.450526 306.515303 
L 440.877703 306.482413 
L 441.30488 306.735929 
L 441.732057 306.646721 
L 442.159234 305.878367 
L 442.586411 306.760186 
L 443.013589 307.981074 
L 443.440766 305.939488 
L 443.867943 305.05868 
L 444.29512 304.819731 
L 444.722297 305.788947 
L 445.149474 305.436995 
L 445.576651 303.904304 
L 446.003828 305.625867 
L 446.858182 304.291162 
L 447.285359 305.096361 
L 447.712536 304.747942 
L 448.139713 303.649778 
L 448.56689 304.576224 
L 448.994067 303.336246 
L 449.421244 304.568277 
L 449.848421 305.065388 
L 450.275598 302.532133 
L 450.702775 302.958797 
L 451.129952 302.986038 
L 451.557129 302.819699 
L 451.984306 301.24809 
L 452.411483 302.813065 
L 452.83866 300.76713 
L 453.265837 302.253766 
L 453.693014 301.199502 
L 454.120191 300.996449 
L 454.547368 300.032534 
L 454.974545 301.809944 
L 455.401722 300.198628 
L 455.8289 299.810317 
L 456.683254 298.127505 
L 457.110431 299.67389 
L 457.537608 298.232031 
L 457.964785 297.826994 
L 458.391962 296.881918 
L 458.819139 297.691416 
L 459.246316 296.305634 
L 459.673493 296.926397 
L 460.10067 296.952583 
L 460.527847 295.937665 
L 460.955024 295.828416 
L 461.382201 295.429768 
L 461.809378 294.576839 
L 462.236555 295.395311 
L 463.090909 294.703044 
L 463.945263 292.201297 
L 464.37244 292.756165 
L 464.799617 292.385423 
L 465.226794 291.442008 
L 465.653971 293.186407 
L 466.081148 293.671662 
L 466.508325 293.058355 
L 466.935502 291.568603 
L 467.362679 291.477304 
L 467.789856 293.582689 
L 468.217033 289.88308 
L 468.644211 290.827882 
L 469.071388 290.404633 
L 469.498565 289.722562 
L 469.925742 290.950458 
L 470.352919 290.154377 
L 470.780096 288.367371 
L 471.207273 287.286053 
L 471.63445 288.154695 
L 472.061627 287.859671 
L 472.488804 289.753836 
L 472.915981 287.098512 
L 473.343158 286.80154 
L 473.770335 287.864381 
L 474.624689 286.303721 
L 475.051866 285.016361 
L 475.479043 287.663352 
L 475.90622 285.591894 
L 476.333397 285.093696 
L 476.760574 285.3103 
L 477.187751 285.672283 
L 477.614928 285.887017 
L 478.042105 285.441898 
L 478.469282 284.664941 
L 478.896459 286.212832 
L 479.323636 286.191165 
L 479.750813 285.603329 
L 480.17799 286.092538 
L 480.605167 286.180022 
L 481.032344 283.393516 
L 481.459522 285.291215 
L 481.886699 284.822086 
L 482.313876 285.274394 
L 482.741053 283.741535 
L 483.16823 283.643407 
L 483.595407 282.988133 
L 484.022584 284.360787 
L 484.449761 282.807392 
L 484.876938 283.716218 
L 485.304115 284.922872 
L 485.731292 282.735992 
L 486.158469 282.383056 
L 486.585646 282.975646 
L 487.44 284.814127 
L 487.867177 283.595374 
L 488.294354 284.801672 
L 488.721531 285.214047 
L 489.148708 283.020607 
L 489.575885 283.912931 
L 490.003062 284.021213 
L 490.430239 284.261722 
L 490.857416 282.580732 
L 491.284593 285.155604 
L 492.138947 283.36582 
L 492.566124 283.660607 
L 492.993301 284.511313 
L 493.420478 284.090261 
L 493.847656 284.272122 
L 494.274833 282.703466 
L 494.70201 284.162058 
L 495.129187 284.904636 
L 495.556364 283.377936 
L 495.983541 285.616109 
L 496.410718 284.123448 
L 496.837895 283.6115 
L 497.265072 285.804591 
L 497.692249 284.601124 
L 498.119426 284.155225 
L 498.546603 284.114043 
L 499.400957 283.628805 
L 499.828134 285.241399 
L 500.255311 286.268934 
L 500.682488 286.302556 
L 501.109665 285.146149 
L 501.536842 287.24413 
L 501.964019 285.545579 
L 502.391196 287.108217 
L 502.818373 287.022256 
L 503.24555 286.028712 
L 503.672727 286.957735 
L 504.099904 287.280167 
L 504.527081 287.248729 
L 504.954258 285.540768 
L 505.381435 288.089298 
L 505.808612 286.902936 
L 506.235789 287.513039 
L 506.662967 284.618757 
L 507.090144 287.449488 
L 507.517321 285.819774 
L 507.944498 286.752607 
L 508.371675 288.97216 
L 508.798852 287.242063 
L 509.226029 287.17142 
L 509.653206 287.842018 
L 510.080383 289.651488 
L 510.50756 286.056606 
L 510.934737 288.256687 
L 511.361914 289.385714 
L 511.789091 287.131336 
L 512.216268 288.497706 
L 512.643445 288.12033 
L 513.497799 289.993219 
L 513.924976 288.611239 
L 514.352153 287.84025 
L 514.77933 288.538705 
L 515.206507 288.520622 
L 516.060861 288.220045 
L 516.488038 288.800236 
L 516.915215 288.833189 
L 517.342392 289.199769 
L 517.769569 289.750448 
L 518.196746 289.779873 
L 518.623923 289.177093 
L 519.0511 289.10248 
L 519.478278 288.751968 
L 519.905455 66.96 
L 520.332632 66.96 
L 520.759809 286.92901 
L 521.186986 287.843479 
L 521.614163 287.862551 
L 522.04134 288.027575 
L 522.468517 288.716891 
L 523.750048 287.519373 
L 524.177225 287.506579 
L 524.604402 285.769185 
L 525.031579 287.51266 
L 525.458756 287.729163 
L 525.885933 288.359875 
L 526.31311 287.647185 
L 526.740287 284.339632 
L 527.167464 286.176648 
L 527.594641 285.472205 
L 528.021818 285.903905 
L 528.448995 285.742218 
L 528.876172 285.848774 
L 529.730526 284.033637 
L 530.157703 284.296048 
L 530.58488 285.060236 
L 531.012057 284.549021 
L 531.439234 285.679718 
L 531.866411 283.181122 
L 532.293589 282.349979 
L 532.720766 285.012392 
L 533.147943 283.455921 
L 533.57512 283.954468 
L 534.002297 283.971847 
L 534.429474 281.725079 
L 534.856651 281.370487 
L 535.283828 280.342477 
L 535.711005 281.4036 
L 536.138182 283.154729 
L 536.565359 280.848504 
L 536.992536 281.595837 
L 537.84689 280.193397 
L 538.274067 280.047429 
L 538.701244 279.115858 
L 539.128421 280.08295 
L 539.555598 279.799533 
L 540.409952 277.82873 
L 540.837129 278.632099 
L 541.691483 278.554749 
L 542.11866 278.018 
L 542.545837 277.298956 
L 542.973014 277.760117 
L 543.400191 275.825451 
L 543.827368 277.91867 
L 544.254545 275.945211 
L 544.681722 276.765355 
L 545.1089 274.130107 
L 545.536077 275.33438 
L 545.963254 273.595157 
L 546.390431 274.645919 
L 546.817608 274.163526 
L 547.244785 274.570899 
L 547.671962 276.077265 
L 548.099139 271.647179 
L 548.526316 274.029794 
L 548.953493 270.263412 
L 549.38067 271.936984 
L 549.807847 272.434609 
L 550.235024 271.050512 
L 550.662201 270.617168 
L 551.089378 271.316406 
L 551.516555 270.731926 
L 551.943732 268.97716 
L 552.370909 271.561659 
L 552.798086 270.123076 
L 553.225263 269.138185 
L 553.65244 270.827311 
L 554.079617 270.919101 
L 554.506794 267.937345 
L 554.933971 269.549981 
L 555.361148 269.583038 
L 555.788325 268.492792 
L 556.215502 268.737503 
L 556.642679 268.539028 
L 557.069856 269.095885 
L 557.497033 268.45823 
L 557.924211 266.739207 
L 558.351388 266.866743 
L 558.778565 267.691075 
L 559.205742 264.856765 
L 559.632919 265.517235 
L 560.060096 267.308697 
L 560.487273 266.604567 
L 560.91445 269.213385 
L 561.341627 265.416186 
L 561.768804 265.641649 
L 562.195981 266.450798 
L 563.050335 265.730347 
L 563.477512 264.821674 
L 563.904689 266.472803 
L 564.331866 264.611658 
L 564.759043 264.810437 
L 565.18622 266.020237 
L 565.613397 265.596894 
L 566.040574 263.683461 
L 566.467751 265.385546 
L 566.894928 266.425484 
L 567.322105 266.466555 
L 567.749282 265.213798 
L 568.176459 264.925221 
L 568.603636 264.903432 
L 569.030813 265.348139 
L 569.45799 266.845353 
L 570.312344 264.327161 
L 570.739522 267.185619 
L 571.166699 264.644291 
L 571.593876 266.500254 
L 572.021053 265.439436 
L 572.44823 266.516823 
L 572.875407 264.61831 
L 573.302584 265.906343 
L 573.729761 265.075623 
L 574.156938 266.206097 
L 575.011292 266.963264 
L 575.438469 266.728751 
L 575.865646 266.10689 
L 576.292823 264.667384 
L 576.72 265.467207 
L 577.147177 266.613648 
L 577.574354 265.93841 
L 578.001531 267.119467 
L 578.428708 266.881097 
L 578.855885 266.306369 
L 579.283062 264.200483 
L 579.710239 266.453303 
L 580.137416 266.674162 
L 580.564593 268.885282 
L 580.99177 265.953917 
L 581.418947 266.002787 
L 581.846124 268.627712 
L 582.273301 267.324317 
L 582.700478 268.168903 
L 583.127656 267.447546 
L 583.554833 268.104694 
L 583.98201 266.884504 
L 584.409187 267.705256 
L 584.836364 267.934728 
L 585.263541 267.783378 
L 585.690718 269.82422 
L 586.117895 269.37228 
L 586.545072 267.258665 
L 586.972249 268.394492 
L 587.399426 268.310306 
L 587.826603 269.998797 
L 588.25378 266.97001 
L 588.680957 269.439753 
L 589.108134 268.636991 
L 589.535311 269.383505 
L 589.962488 268.43579 
L 590.389665 270.125192 
L 590.816842 268.549353 
L 591.244019 268.610008 
L 591.671196 270.252365 
L 592.098373 271.080023 
L 592.52555 269.343726 
L 592.952727 271.808112 
L 593.379904 269.170678 
L 594.234258 269.21504 
L 594.661435 270.243639 
L 595.088612 268.38346 
L 595.515789 270.136879 
L 595.942967 270.879962 
L 596.370144 270.387537 
L 596.797321 271.163419 
L 597.224498 271.181057 
L 597.651675 269.882878 
L 598.078852 270.013188 
L 598.506029 270.51098 
L 598.933206 270.21031 
L 599.360383 270.127537 
L 599.78756 270.225544 
L 600.214737 268.369372 
L 600.641914 270.387948 
L 601.069091 269.211715 
L 601.496268 270.050719 
L 601.923445 270.613285 
L 602.350622 270.430845 
L 602.777799 269.389684 
L 603.204976 269.937529 
L 603.632153 269.202461 
L 604.05933 268.939208 
L 604.486507 268.483317 
L 604.913684 269.905137 
L 605.340861 267.691565 
L 605.768038 270.427403 
L 606.195215 270.29629 
L 606.622392 267.474673 
L 607.049569 267.229953 
L 607.476746 269.168766 
L 607.903923 267.556034 
L 608.3311 268.982751 
L 608.758278 266.245642 
L 609.185455 267.398794 
L 610.039809 267.363306 
L 610.466986 267.949027 
L 610.894163 265.910056 
L 611.32134 266.433101 
L 611.748517 265.778783 
L 612.175694 266.693111 
L 612.602871 266.124242 
L 613.030048 265.302052 
L 613.457225 266.799313 
L 613.884402 265.849315 
L 614.311579 265.312092 
L 614.738756 264.011225 
L 615.165933 265.074099 
L 615.59311 264.930184 
L 616.020287 263.341249 
L 616.447464 264.095701 
L 616.874641 262.265631 
L 617.301818 264.349133 
L 617.728995 262.912734 
L 618.156172 262.99474 
L 618.583349 262.453984 
L 619.010526 261.074421 
L 619.437703 260.787952 
L 619.86488 261.774308 
L 620.292057 262.441696 
L 620.719234 261.169864 
L 621.146411 259.023607 
L 621.573589 259.901141 
L 622.000766 260.346679 
L 623.282297 257.029969 
L 624.136651 258.891484 
L 624.563828 255.723366 
L 624.991005 257.328191 
L 625.418182 255.853265 
L 625.845359 255.649423 
L 626.272536 258.263531 
L 626.699713 254.740325 
L 627.12689 255.967704 
L 627.554067 256.302384 
L 627.981244 255.204138 
L 628.835598 254.654069 
L 629.262775 254.513444 
L 629.689952 252.780118 
L 630.117129 252.905518 
L 630.544306 253.230199 
L 630.971483 253.75442 
L 631.39866 251.881316 
L 631.825837 252.09452 
L 632.253014 252.79591 
L 632.680191 252.596389 
L 633.961722 251.064989 
L 634.3889 250.383881 
L 634.816077 250.726839 
L 635.243254 252.159101 
L 635.670431 250.147403 
L 636.097608 249.269788 
L 636.524785 251.166232 
L 636.951962 251.464595 
L 637.379139 248.914561 
L 637.806316 249.746893 
L 638.233493 248.768118 
L 638.66067 249.240427 
L 639.087847 247.330421 
L 639.942201 247.941326 
L 641.223732 247.064393 
L 641.650909 248.728853 
L 642.078086 246.393549 
L 642.505263 248.90113 
L 642.93244 249.424083 
L 643.359617 247.596022 
L 643.786794 246.776114 
L 644.213971 246.882115 
L 644.641148 246.629379 
L 645.068325 246.966863 
L 645.495502 247.509319 
L 645.922679 246.787925 
L 646.349856 245.272298 
L 646.777033 247.039271 
L 647.204211 246.316914 
L 647.631388 246.278863 
L 648.058565 245.605084 
L 648.485742 247.605175 
L 649.340096 246.362297 
L 649.767273 246.975432 
L 650.19445 246.446793 
L 650.621627 246.832676 
L 651.475981 248.058453 
L 651.903158 245.944712 
L 652.330335 246.597659 
L 652.757512 246.061374 
L 653.184689 248.783835 
L 653.611866 245.881014 
L 654.46622 247.314694 
L 654.893397 246.506556 
L 655.320574 246.796985 
L 655.747751 246.558338 
L 656.174928 246.720851 
L 656.602105 247.116566 
L 657.029282 247.217743 
L 657.456459 247.958173 
L 657.883636 247.11737 
L 658.310813 248.075673 
L 658.73799 246.555479 
L 659.165167 247.708004 
L 659.592344 246.638371 
L 660.019522 248.31099 
L 660.446699 248.287774 
L 660.873876 247.479854 
L 661.301053 247.334363 
L 661.72823 249.428998 
L 662.155407 247.814303 
L 662.582584 247.701097 
L 663.009761 249.161062 
L 663.436938 248.273631 
L 663.864115 249.574172 
L 664.291292 249.583751 
L 664.718469 249.389682 
L 665.145646 249.959749 
L 665.572823 248.173215 
L 666 249.615443 
L 666.427177 250.061033 
L 666.854354 251.233525 
L 667.281531 249.852501 
L 667.708708 250.698512 
L 668.135885 250.487434 
L 668.563062 250.540395 
L 668.990239 251.798986 
L 669.417416 250.027081 
L 669.844593 250.345854 
L 670.27177 250.264772 
L 671.126124 252.430216 
L 671.553301 249.179818 
L 671.980478 249.726132 
L 672.407656 251.435938 
L 672.834833 252.368503 
L 673.26201 251.334933 
L 673.689187 251.273071 
L 674.116364 253.107709 
L 674.543541 251.59267 
L 674.970718 251.320024 
L 675.397895 249.95386 
L 675.825072 252.436555 
L 676.252249 249.388417 
L 677.106603 251.594984 
L 677.53378 251.880056 
L 678.388134 250.447652 
L 678.815311 250.297279 
L 679.669665 252.209219 
L 680.096842 250.534552 
L 680.524019 250.551465 
L 680.951196 251.946978 
L 681.378373 252.307536 
L 681.80555 251.443905 
L 682.232727 250.963671 
L 682.659904 251.406035 
L 683.087081 252.045165 
L 683.514258 251.793437 
L 683.941435 250.246722 
L 684.368612 250.270886 
L 684.795789 250.474143 
L 685.222967 251.23491 
L 685.650144 250.68303 
L 686.077321 251.406846 
L 686.504498 249.507338 
L 686.931675 251.722225 
L 687.358852 250.226784 
L 687.786029 250.072993 
L 688.213206 250.263972 
L 688.640383 247.385049 
L 689.06756 247.432823 
L 689.494737 249.643519 
L 689.921914 248.619532 
L 690.349091 248.530459 
L 691.203445 247.990693 
L 691.630622 248.798742 
L 692.057799 249.891544 
L 692.484976 248.168339 
L 692.912153 246.963806 
L 693.33933 247.826991 
L 693.766507 246.797649 
L 694.193684 247.52597 
L 694.620861 246.4007 
L 695.048038 245.922085 
L 695.475215 246.020751 
L 695.902392 246.730765 
L 696.329569 244.534028 
L 697.183923 246.133618 
L 698.038278 244.370028 
L 698.892632 245.484268 
L 699.746986 243.390173 
L 700.174163 242.935751 
L 700.60134 241.410315 
L 701.028517 242.99699 
L 701.455694 242.880996 
L 701.882871 242.404277 
L 702.310048 240.634184 
L 702.737225 241.944468 
L 703.164402 240.991364 
L 703.591579 238.743163 
L 704.018756 241.375463 
L 704.87311 240.032585 
L 705.300287 240.731386 
L 705.727464 238.840895 
L 706.154641 240.523119 
L 706.581818 238.740823 
L 707.008995 238.854751 
L 707.436172 238.409858 
L 707.863349 236.490861 
L 708.290526 236.564715 
L 708.717703 235.328689 
L 709.572057 236.143875 
L 709.999234 236.53739 
L 710.426411 235.496022 
L 710.853589 235.154104 
L 711.280766 235.371729 
L 711.707943 236.138289 
L 712.13512 233.922271 
L 712.562297 235.004062 
L 712.989474 235.121783 
L 713.416651 233.717502 
L 713.843828 233.852398 
L 714.271005 232.401245 
L 714.698182 233.350387 
L 715.125359 231.757732 
L 715.552536 232.241305 
L 715.979713 232.083923 
L 716.40689 232.227396 
L 716.834067 230.761787 
L 717.261244 231.985967 
L 717.688421 231.953627 
L 718.115598 230.984781 
L 718.542775 230.791611 
L 718.969952 229.02524 
L 719.397129 230.635651 
L 719.824306 229.701576 
L 720.251483 230.268181 
L 720.67866 228.719242 
L 721.105837 229.404172 
L 721.533014 229.177503 
L 721.960191 229.347262 
L 722.387368 230.256335 
L 722.814545 229.855178 
L 723.241722 228.707478 
L 723.6689 229.979914 
L 724.096077 227.886453 
L 724.523254 229.986396 
L 725.377608 229.666162 
L 726.231962 227.545731 
L 726.659139 229.798536 
L 727.086316 228.723026 
L 727.513493 228.24708 
L 727.94067 229.648191 
L 728.367847 228.444285 
L 728.795024 228.355038 
L 729.222201 227.244012 
L 729.649378 227.545959 
L 730.076555 229.258721 
L 730.503732 229.100518 
L 730.930909 228.754714 
L 731.358086 229.951763 
L 731.785263 229.134847 
L 732.21244 227.423874 
L 732.639617 228.504572 
L 733.066794 227.515358 
L 733.493971 227.509931 
L 733.921148 228.908524 
L 734.348325 228.691208 
L 734.775502 226.670663 
L 735.202679 228.694761 
L 735.629856 228.25682 
L 736.057033 227.509886 
L 736.484211 228.687006 
L 736.911388 228.522008 
L 737.338565 229.812475 
L 737.765742 227.05417 
L 738.192919 229.566274 
L 738.620096 230.009638 
L 739.047273 229.567626 
L 739.47445 227.628502 
L 739.901627 230.813123 
L 740.328804 229.543457 
L 740.755981 230.541545 
L 741.183158 230.468003 
L 741.610335 229.649764 
L 742.037512 229.365345 
L 742.464689 228.431306 
L 742.891866 230.349021 
L 743.319043 229.734212 
L 743.74622 232.650325 
L 744.173397 230.218529 
L 744.600574 229.01696 
L 745.027751 230.129855 
L 745.027751 230.129855 
" style="fill:none;stroke:#1f77b4;stroke-linecap:square;stroke-width:1.5;"/>
   </g>
   <g id="line2d_17">
    <path clip-path="url(#pfa6a0446c6)" d="M 747.163636 384.48 
L 747.163636 51.84 
" style="fill:none;stroke:#808080;stroke-linecap:square;"/>
   </g>
   <g id="patch_40">
    <path d="M 108 384.48 
L 108 51.84 
" style="fill:none;stroke:#000000;stroke-linecap:square;stroke-linejoin:miter;stroke-width:0.8;"/>
   </g>
   <g id="patch_41">
    <path d="M 777.6 384.48 
L 777.6 51.84 
" style="fill:none;stroke:#000000;stroke-linecap:square;stroke-linejoin:miter;stroke-width:0.8;"/>
   </g>
   <g id="patch_42">
    <path d="M 108 384.48 
L 777.6 384.48 
" style="fill:none;stroke:#000000;stroke-linecap:square;stroke-linejoin:miter;stroke-width:0.8;"/>
   </g>
   <g id="patch_43">
    <path d="M 108 51.84 
L 777.6 51.84 
" style="fill:none;stroke:#000000;stroke-linecap:square;stroke-linejoin:miter;stroke-width:0.8;"/>
   </g>
   <g id="text_18">
    <!-- synthetic_79.csv -->
    <defs>
     <path d="M 32.171875 -5.078125 
Q 28.375 -14.84375 24.75 -17.8125 
Q 21.140625 -20.796875 15.09375 -20.796875 
L 7.90625 -20.796875 
L 7.90625 -13.28125 
L 13.1875 -13.28125 
Q 16.890625 -13.28125 18.9375 -11.515625 
Q 21 -9.765625 23.484375 -3.21875 
L 25.09375 0.875 
L 2.984375 54.6875 
L 12.5 54.6875 
L 29.59375 11.921875 
L 46.6875 54.6875 
L 56.203125 54.6875 
z
" id="DejaVuSans-121"/>
     <path d="M 54.890625 33.015625 
L 54.890625 0 
L 45.90625 0 
L 45.90625 32.71875 
Q 45.90625 40.484375 42.875 44.328125 
Q 39.84375 48.1875 33.796875 48.1875 
Q 26.515625 48.1875 22.3125 43.546875 
Q 18.109375 38.921875 18.109375 30.90625 
L 18.109375 0 
L 9.078125 0 
L 9.078125 54.6875 
L 18.109375 54.6875 
L 18.109375 46.1875 
Q 21.34375 51.125 25.703125 53.5625 
Q 30.078125 56 35.796875 56 
Q 45.21875 56 50.046875 50.171875 
Q 54.890625 44.34375 54.890625 33.015625 
z
" id="DejaVuSans-110"/>
     <path d="M 54.890625 33.015625 
L 54.890625 0 
L 45.90625 0 
L 45.90625 32.71875 
Q 45.90625 40.484375 42.875 44.328125 
Q 39.84375 48.1875 33.796875 48.1875 
Q 26.515625 48.1875 22.3125 43.546875 
Q 18.109375 38.921875 18.109375 30.90625 
L 18.109375 0 
L 9.078125 0 
L 9.078125 75.984375 
L 18.109375 75.984375 
L 18.109375 46.1875 
Q 21.34375 51.125 25.703125 53.5625 
Q 30.078125 56 35.796875 56 
Q 45.21875 56 50.046875 50.171875 
Q 54.890625 44.34375 54.890625 33.015625 
z
" id="DejaVuSans-104"/>
     <path d="M 48.78125 52.59375 
L 48.78125 44.1875 
Q 44.96875 46.296875 41.140625 47.34375 
Q 37.3125 48.390625 33.40625 48.390625 
Q 24.65625 48.390625 19.8125 42.84375 
Q 14.984375 37.3125 14.984375 27.296875 
Q 14.984375 17.28125 19.8125 11.734375 
Q 24.65625 6.203125 33.40625 6.203125 
Q 37.3125 6.203125 41.140625 7.25 
Q 44.96875 8.296875 48.78125 10.40625 
L 48.78125 2.09375 
Q 45.015625 0.34375 40.984375 -0.53125 
Q 36.96875 -1.421875 32.421875 -1.421875 
Q 20.0625 -1.421875 12.78125 6.34375 
Q 5.515625 14.109375 5.515625 27.296875 
Q 5.515625 40.671875 12.859375 48.328125 
Q 20.21875 56 33.015625 56 
Q 37.15625 56 41.109375 55.140625 
Q 45.0625 54.296875 48.78125 52.59375 
z
" id="DejaVuSans-99"/>
     <path d="M 50.984375 -16.609375 
L 50.984375 -23.578125 
L -0.984375 -23.578125 
L -0.984375 -16.609375 
z
" id="DejaVuSans-95"/>
     <path d="M 8.203125 72.90625 
L 55.078125 72.90625 
L 55.078125 68.703125 
L 28.609375 0 
L 18.3125 0 
L 43.21875 64.59375 
L 8.203125 64.59375 
z
" id="DejaVuSans-55"/>
     <path d="M 10.984375 1.515625 
L 10.984375 10.5 
Q 14.703125 8.734375 18.5 7.8125 
Q 22.3125 6.890625 25.984375 6.890625 
Q 35.75 6.890625 40.890625 13.453125 
Q 46.046875 20.015625 46.78125 33.40625 
Q 43.953125 29.203125 39.59375 26.953125 
Q 35.25 24.703125 29.984375 24.703125 
Q 19.046875 24.703125 12.671875 31.3125 
Q 6.296875 37.9375 6.296875 49.421875 
Q 6.296875 60.640625 12.9375 67.421875 
Q 19.578125 74.21875 30.609375 74.21875 
Q 43.265625 74.21875 49.921875 64.515625 
Q 56.59375 54.828125 56.59375 36.375 
Q 56.59375 19.140625 48.40625 8.859375 
Q 40.234375 -1.421875 26.421875 -1.421875 
Q 22.703125 -1.421875 18.890625 -0.6875 
Q 15.09375 0.046875 10.984375 1.515625 
z
M 30.609375 32.421875 
Q 37.25 32.421875 41.125 36.953125 
Q 45.015625 41.5 45.015625 49.421875 
Q 45.015625 57.28125 41.125 61.84375 
Q 37.25 66.40625 30.609375 66.40625 
Q 23.96875 66.40625 20.09375 61.84375 
Q 16.21875 57.28125 16.21875 49.421875 
Q 16.21875 41.5 20.09375 36.953125 
Q 23.96875 32.421875 30.609375 32.421875 
z
" id="DejaVuSans-57"/>
     <path d="M 10.6875 12.40625 
L 21 12.40625 
L 21 0 
L 10.6875 0 
z
" id="DejaVuSans-46"/>
     <path d="M 2.984375 54.6875 
L 12.5 54.6875 
L 29.59375 8.796875 
L 46.6875 54.6875 
L 56.203125 54.6875 
L 35.6875 0 
L 23.484375 0 
z
" id="DejaVuSans-118"/>
    </defs>
    <g transform="translate(392.638125 45.84)scale(0.12 -0.12)">
     <use xlink:href="#DejaVuSans-115"/>
     <use x="52.099609" xlink:href="#DejaVuSans-121"/>
     <use x="111.279297" xlink:href="#DejaVuSans-110"/>
     <use x="174.658203" xlink:href="#DejaVuSans-116"/>
     <use x="213.867188" xlink:href="#DejaVuSans-104"/>
     <use x="277.246094" xlink:href="#DejaVuSans-101"/>
     <use x="338.769531" xlink:href="#DejaVuSans-116"/>
     <use x="377.978516" xlink:href="#DejaVuSans-105"/>
     <use x="405.761719" xlink:href="#DejaVuSans-99"/>
     <use x="460.742188" xlink:href="#DejaVuSans-95"/>
     <use x="510.742188" xlink:href="#DejaVuSans-55"/>
     <use x="574.365234" xlink:href="#DejaVuSans-57"/>
     <use x="637.988281" xlink:href="#DejaVuSans-46"/>
     <use x="669.775391" xlink:href="#DejaVuSans-99"/>
     <use x="724.755859" xlink:href="#DejaVuSans-115"/>
     <use x="776.855469" xlink:href="#DejaVuSans-118"/>
    </g>
   </g>
   <g id="legend_1">
    <g id="patch_44">
     <path d="M 115 74.518125 
L 174.315625 74.518125 
Q 176.315625 74.518125 176.315625 72.518125 
L 176.315625 58.84 
Q 176.315625 56.84 174.315625 56.84 
L 115 56.84 
Q 113 56.84 113 58.84 
L 113 72.518125 
Q 113 74.518125 115 74.518125 
z
" style="fill:#ffffff;opacity:0.8;stroke:#cccccc;stroke-linejoin:miter;"/>
    </g>
    <g id="line2d_18">
     <path d="M 117 64.938438 
L 137 64.938438 
" style="fill:none;stroke:#1f77b4;stroke-linecap:square;stroke-width:1.5;"/>
    </g>
    <g id="line2d_19"/>
    <g id="text_19">
     <!-- value -->
     <g transform="translate(145 68.438438)scale(0.1 -0.1)">
      <use xlink:href="#DejaVuSans-118"/>
      <use x="59.179688" xlink:href="#DejaVuSans-97"/>
      <use x="120.458984" xlink:href="#DejaVuSans-108"/>
      <use x="148.242188" xlink:href="#DejaVuSans-117"/>
      <use x="211.621094" xlink:href="#DejaVuSans-101"/>
     </g>
    </g>
   </g>
  </g>
 </g>
 <defs>
  <clipPath id="pfa6a0446c6">
   <rect height="332.64" width="669.6" x="108" y="51.84"/>
  </clipPath>
 </defs>
</svg>
