<?xml version="1.0" encoding="utf-8" standalone="no"?>
<!DOCTYPE svg PUBLIC "-//W3C//DTD SVG 1.1//EN"
  "http://www.w3.org/Graphics/SVG/1.1/DTD/svg11.dtd">
<!-- Created with matplotlib (https://matplotlib.org/) -->
<svg height="432pt" version="1.1" viewBox="0 0 864 432" width="864pt" xmlns="http://www.w3.org/2000/svg" xmlns:xlink="http://www.w3.org/1999/xlink">
 <defs>
  <style type="text/css">
*{stroke-linecap:butt;stroke-linejoin:round;}
  </style>
 </defs>
 <g id="figure_1">
  <g id="patch_1">
   <path d="M 0 432 
L 864 432 
L 864 0 
L 0 0 
z
" style="fill:#ffffff;"/>
  </g>
  <g id="axes_1">
   <g id="patch_2">
    <path d="M 108 384.48 
L 777.6 384.48 
L 777.6 51.84 
L 108 51.84 
z
" style="fill:#ffffff;"/>
   </g>
   <g id="patch_3">
    <path clip-path="url(#p9f1feb7a47)" d="M 138.436364 384.48 
L 138.436364 51.84 
L 373.383732 51.84 
L 373.383732 384.48 
z
" style="fill:#0000ff;opacity:0.05;"/>
   </g>
   <g id="patch_4">
    <path clip-path="url(#p9f1feb7a47)" d="M 373.383732 384.48 
L 373.383732 51.84 
L 747.163636 51.84 
L 747.163636 384.48 
z
" style="fill:#ff0000;opacity:0.08;"/>
   </g>
   <g id="patch_5">
    <path clip-path="url(#p9f1feb7a47)" d="M 138.436364 384.48 
L 138.436364 51.84 
L 149.115789 51.84 
L 149.115789 384.48 
z
" style="fill:#008000;opacity:0.04;"/>
   </g>
   <g id="patch_6">
    <path clip-path="url(#p9f1feb7a47)" d="M 159.795215 384.48 
L 159.795215 51.84 
L 170.474641 51.84 
L 170.474641 384.48 
z
" style="fill:#008000;opacity:0.04;"/>
   </g>
   <g id="patch_7">
    <path clip-path="url(#p9f1feb7a47)" d="M 181.154067 384.48 
L 181.154067 51.84 
L 191.833493 51.84 
L 191.833493 384.48 
z
" style="fill:#008000;opacity:0.04;"/>
   </g>
   <g id="patch_8">
    <path clip-path="url(#p9f1feb7a47)" d="M 416.101435 384.48 
L 416.101435 371.1744 
L 426.780861 371.1744 
L 426.780861 384.48 
z
" style="fill:#ff6600;"/>
   </g>
   <g id="patch_9">
    <path clip-path="url(#p9f1feb7a47)" d="M 202.512919 384.48 
L 202.512919 51.84 
L 213.192344 51.84 
L 213.192344 384.48 
z
" style="fill:#008000;opacity:0.04;"/>
   </g>
   <g id="patch_10">
    <path clip-path="url(#p9f1feb7a47)" d="M 223.87177 384.48 
L 223.87177 51.84 
L 234.551196 51.84 
L 234.551196 384.48 
z
" style="fill:#008000;opacity:0.04;"/>
   </g>
   <g id="patch_11">
    <path clip-path="url(#p9f1feb7a47)" d="M 245.230622 384.48 
L 245.230622 51.84 
L 255.910048 51.84 
L 255.910048 384.48 
z
" style="fill:#008000;opacity:0.04;"/>
   </g>
   <g id="patch_12">
    <path clip-path="url(#p9f1feb7a47)" d="M 245.230622 384.48 
L 245.230622 371.1744 
L 255.910048 371.1744 
L 255.910048 384.48 
z
" style="fill:#ffe500;"/>
   </g>
   <g id="patch_13">
    <path clip-path="url(#p9f1feb7a47)" d="M 266.589474 384.48 
L 266.589474 51.84 
L 277.2689 51.84 
L 277.2689 384.48 
z
" style="fill:#008000;opacity:0.04;"/>
   </g>
   <g id="patch_14">
    <path clip-path="url(#p9f1feb7a47)" d="M 277.2689 384.48 
L 277.2689 371.1744 
L 287.948325 371.1744 
L 287.948325 384.48 
z
" style="fill:#ffe500;"/>
   </g>
   <g id="patch_15">
    <path clip-path="url(#p9f1feb7a47)" d="M 512.216268 384.48 
L 512.216268 371.1744 
L 522.895694 371.1744 
L 522.895694 384.48 
z
" style="fill:#ff6600;"/>
   </g>
   <g id="patch_16">
    <path clip-path="url(#p9f1feb7a47)" d="M 287.948325 384.48 
L 287.948325 51.84 
L 298.627751 51.84 
L 298.627751 384.48 
z
" style="fill:#008000;opacity:0.04;"/>
   </g>
   <g id="patch_17">
    <path clip-path="url(#p9f1feb7a47)" d="M 309.307177 384.48 
L 309.307177 51.84 
L 319.986603 51.84 
L 319.986603 384.48 
z
" style="fill:#008000;opacity:0.04;"/>
   </g>
   <g id="patch_18">
    <path clip-path="url(#p9f1feb7a47)" d="M 330.666029 384.48 
L 330.666029 51.84 
L 341.345455 51.84 
L 341.345455 384.48 
z
" style="fill:#008000;opacity:0.04;"/>
   </g>
   <g id="patch_19">
    <path clip-path="url(#p9f1feb7a47)" d="M 352.02488 384.48 
L 352.02488 51.84 
L 362.704306 51.84 
L 362.704306 384.48 
z
" style="fill:#008000;opacity:0.04;"/>
   </g>
   <g id="patch_20">
    <path clip-path="url(#p9f1feb7a47)" d="M 373.383732 384.48 
L 373.383732 51.84 
L 384.063158 51.84 
L 384.063158 384.48 
z
" style="fill:#008000;opacity:0.04;"/>
   </g>
   <g id="patch_21">
    <path clip-path="url(#p9f1feb7a47)" d="M 394.742584 384.48 
L 394.742584 51.84 
L 405.42201 51.84 
L 405.42201 384.48 
z
" style="fill:#008000;opacity:0.04;"/>
   </g>
   <g id="patch_22">
    <path clip-path="url(#p9f1feb7a47)" d="M 416.101435 384.48 
L 416.101435 51.84 
L 426.780861 51.84 
L 426.780861 384.48 
z
" style="fill:#008000;opacity:0.04;"/>
   </g>
   <g id="patch_23">
    <path clip-path="url(#p9f1feb7a47)" d="M 416.101435 371.1744 
L 416.101435 51.84 
L 426.780861 51.84 
L 426.780861 371.1744 
z
" style="fill:#008000;opacity:0.5;"/>
   </g>
   <g id="patch_24">
    <path clip-path="url(#p9f1feb7a47)" d="M 437.460287 384.48 
L 437.460287 51.84 
L 448.139713 51.84 
L 448.139713 384.48 
z
" style="fill:#008000;opacity:0.04;"/>
   </g>
   <g id="patch_25">
    <path clip-path="url(#p9f1feb7a47)" d="M 458.819139 384.48 
L 458.819139 51.84 
L 469.498565 51.84 
L 469.498565 384.48 
z
" style="fill:#008000;opacity:0.04;"/>
   </g>
   <g id="patch_26">
    <path clip-path="url(#p9f1feb7a47)" d="M 480.17799 384.48 
L 480.17799 51.84 
L 490.857416 51.84 
L 490.857416 384.48 
z
" style="fill:#008000;opacity:0.04;"/>
   </g>
   <g id="patch_27">
    <path clip-path="url(#p9f1feb7a47)" d="M 501.536842 384.48 
L 501.536842 51.84 
L 512.216268 51.84 
L 512.216268 384.48 
z
" style="fill:#008000;opacity:0.04;"/>
   </g>
   <g id="patch_28">
    <path clip-path="url(#p9f1feb7a47)" d="M 512.216268 371.1744 
L 512.216268 51.84 
L 522.895694 51.84 
L 522.895694 371.1744 
z
" style="fill:#008000;opacity:0.5;"/>
   </g>
   <g id="patch_29">
    <path clip-path="url(#p9f1feb7a47)" d="M 522.895694 384.48 
L 522.895694 51.84 
L 533.57512 51.84 
L 533.57512 384.48 
z
" style="fill:#008000;opacity:0.04;"/>
   </g>
   <g id="patch_30">
    <path clip-path="url(#p9f1feb7a47)" d="M 544.254545 384.48 
L 544.254545 51.84 
L 554.933971 51.84 
L 554.933971 384.48 
z
" style="fill:#008000;opacity:0.04;"/>
   </g>
   <g id="patch_31">
    <path clip-path="url(#p9f1feb7a47)" d="M 565.613397 384.48 
L 565.613397 51.84 
L 576.292823 51.84 
L 576.292823 384.48 
z
" style="fill:#008000;opacity:0.04;"/>
   </g>
   <g id="patch_32">
    <path clip-path="url(#p9f1feb7a47)" d="M 586.972249 384.48 
L 586.972249 51.84 
L 597.651675 51.84 
L 597.651675 384.48 
z
" style="fill:#008000;opacity:0.04;"/>
   </g>
   <g id="patch_33">
    <path clip-path="url(#p9f1feb7a47)" d="M 608.3311 384.48 
L 608.3311 51.84 
L 619.010526 51.84 
L 619.010526 384.48 
z
" style="fill:#008000;opacity:0.04;"/>
   </g>
   <g id="patch_34">
    <path clip-path="url(#p9f1feb7a47)" d="M 629.689952 384.48 
L 629.689952 51.84 
L 640.369378 51.84 
L 640.369378 384.48 
z
" style="fill:#008000;opacity:0.04;"/>
   </g>
   <g id="patch_35">
    <path clip-path="url(#p9f1feb7a47)" d="M 651.048804 384.48 
L 651.048804 51.84 
L 661.72823 51.84 
L 661.72823 384.48 
z
" style="fill:#008000;opacity:0.04;"/>
   </g>
   <g id="patch_36">
    <path clip-path="url(#p9f1feb7a47)" d="M 672.407656 384.48 
L 672.407656 51.84 
L 683.087081 51.84 
L 683.087081 384.48 
z
" style="fill:#008000;opacity:0.04;"/>
   </g>
   <g id="patch_37">
    <path clip-path="url(#p9f1feb7a47)" d="M 693.766507 384.48 
L 693.766507 51.84 
L 704.445933 51.84 
L 704.445933 384.48 
z
" style="fill:#008000;opacity:0.04;"/>
   </g>
   <g id="patch_38">
    <path clip-path="url(#p9f1feb7a47)" d="M 715.125359 384.48 
L 715.125359 51.84 
L 725.804785 51.84 
L 725.804785 384.48 
z
" style="fill:#008000;opacity:0.04;"/>
   </g>
   <g id="patch_39">
    <path clip-path="url(#p9f1feb7a47)" d="M 736.484211 384.48 
L 736.484211 51.84 
L 747.163636 51.84 
L 747.163636 384.48 
z
" style="fill:#008000;opacity:0.04;"/>
   </g>
   <g id="matplotlib.axis_1">
    <g id="xtick_1">
     <g id="line2d_1">
      <defs>
       <path d="M 0 0 
L 0 3.5 
" id="m9a1ec00770" style="stroke:#000000;stroke-width:0.8;"/>
      </defs>
      <g>
       <use style="stroke:#000000;stroke-width:0.8;" x="138.436364" xlink:href="#m9a1ec00770" y="384.48"/>
      </g>
     </g>
     <g id="text_1">
      <!-- 0 -->
      <defs>
       <path d="M 31.78125 66.40625 
Q 24.171875 66.40625 20.328125 58.90625 
Q 16.5 51.421875 16.5 36.375 
Q 16.5 21.390625 20.328125 13.890625 
Q 24.171875 6.390625 31.78125 6.390625 
Q 39.453125 6.390625 43.28125 13.890625 
Q 47.125 21.390625 47.125 36.375 
Q 47.125 51.421875 43.28125 58.90625 
Q 39.453125 66.40625 31.78125 66.40625 
z
M 31.78125 74.21875 
Q 44.046875 74.21875 50.515625 64.515625 
Q 56.984375 54.828125 56.984375 36.375 
Q 56.984375 17.96875 50.515625 8.265625 
Q 44.046875 -1.421875 31.78125 -1.421875 
Q 19.53125 -1.421875 13.0625 8.265625 
Q 6.59375 17.96875 6.59375 36.375 
Q 6.59375 54.828125 13.0625 64.515625 
Q 19.53125 74.21875 31.78125 74.21875 
z
" id="DejaVuSans-48"/>
      </defs>
      <g transform="translate(135.255114 399.078438)scale(0.1 -0.1)">
       <use xlink:href="#DejaVuSans-48"/>
      </g>
     </g>
    </g>
    <g id="xtick_2">
     <g id="line2d_2">
      <g>
       <use style="stroke:#000000;stroke-width:0.8;" x="223.87177" xlink:href="#m9a1ec00770" y="384.48"/>
      </g>
     </g>
     <g id="text_2">
      <!-- 200 -->
      <defs>
       <path d="M 19.1875 8.296875 
L 53.609375 8.296875 
L 53.609375 0 
L 7.328125 0 
L 7.328125 8.296875 
Q 12.9375 14.109375 22.625 23.890625 
Q 32.328125 33.6875 34.8125 36.53125 
Q 39.546875 41.84375 41.421875 45.53125 
Q 43.3125 49.21875 43.3125 52.78125 
Q 43.3125 58.59375 39.234375 62.25 
Q 35.15625 65.921875 28.609375 65.921875 
Q 23.96875 65.921875 18.8125 64.3125 
Q 13.671875 62.703125 7.8125 59.421875 
L 7.8125 69.390625 
Q 13.765625 71.78125 18.9375 73 
Q 24.125 74.21875 28.421875 74.21875 
Q 39.75 74.21875 46.484375 68.546875 
Q 53.21875 62.890625 53.21875 53.421875 
Q 53.21875 48.921875 51.53125 44.890625 
Q 49.859375 40.875 45.40625 35.40625 
Q 44.1875 33.984375 37.640625 27.21875 
Q 31.109375 20.453125 19.1875 8.296875 
z
" id="DejaVuSans-50"/>
      </defs>
      <g transform="translate(214.32802 399.078438)scale(0.1 -0.1)">
       <use xlink:href="#DejaVuSans-50"/>
       <use x="63.623047" xlink:href="#DejaVuSans-48"/>
       <use x="127.246094" xlink:href="#DejaVuSans-48"/>
      </g>
     </g>
    </g>
    <g id="xtick_3">
     <g id="line2d_3">
      <g>
       <use style="stroke:#000000;stroke-width:0.8;" x="309.307177" xlink:href="#m9a1ec00770" y="384.48"/>
      </g>
     </g>
     <g id="text_3">
      <!-- 400 -->
      <defs>
       <path d="M 37.796875 64.3125 
L 12.890625 25.390625 
L 37.796875 25.390625 
z
M 35.203125 72.90625 
L 47.609375 72.90625 
L 47.609375 25.390625 
L 58.015625 25.390625 
L 58.015625 17.1875 
L 47.609375 17.1875 
L 47.609375 0 
L 37.796875 0 
L 37.796875 17.1875 
L 4.890625 17.1875 
L 4.890625 26.703125 
z
" id="DejaVuSans-52"/>
      </defs>
      <g transform="translate(299.763427 399.078438)scale(0.1 -0.1)">
       <use xlink:href="#DejaVuSans-52"/>
       <use x="63.623047" xlink:href="#DejaVuSans-48"/>
       <use x="127.246094" xlink:href="#DejaVuSans-48"/>
      </g>
     </g>
    </g>
    <g id="xtick_4">
     <g id="line2d_4">
      <g>
       <use style="stroke:#000000;stroke-width:0.8;" x="394.742584" xlink:href="#m9a1ec00770" y="384.48"/>
      </g>
     </g>
     <g id="text_4">
      <!-- 600 -->
      <defs>
       <path d="M 33.015625 40.375 
Q 26.375 40.375 22.484375 35.828125 
Q 18.609375 31.296875 18.609375 23.390625 
Q 18.609375 15.53125 22.484375 10.953125 
Q 26.375 6.390625 33.015625 6.390625 
Q 39.65625 6.390625 43.53125 10.953125 
Q 47.40625 15.53125 47.40625 23.390625 
Q 47.40625 31.296875 43.53125 35.828125 
Q 39.65625 40.375 33.015625 40.375 
z
M 52.59375 71.296875 
L 52.59375 62.3125 
Q 48.875 64.0625 45.09375 64.984375 
Q 41.3125 65.921875 37.59375 65.921875 
Q 27.828125 65.921875 22.671875 59.328125 
Q 17.53125 52.734375 16.796875 39.40625 
Q 19.671875 43.65625 24.015625 45.921875 
Q 28.375 48.1875 33.59375 48.1875 
Q 44.578125 48.1875 50.953125 41.515625 
Q 57.328125 34.859375 57.328125 23.390625 
Q 57.328125 12.15625 50.6875 5.359375 
Q 44.046875 -1.421875 33.015625 -1.421875 
Q 20.359375 -1.421875 13.671875 8.265625 
Q 6.984375 17.96875 6.984375 36.375 
Q 6.984375 53.65625 15.1875 63.9375 
Q 23.390625 74.21875 37.203125 74.21875 
Q 40.921875 74.21875 44.703125 73.484375 
Q 48.484375 72.75 52.59375 71.296875 
z
" id="DejaVuSans-54"/>
      </defs>
      <g transform="translate(385.198834 399.078438)scale(0.1 -0.1)">
       <use xlink:href="#DejaVuSans-54"/>
       <use x="63.623047" xlink:href="#DejaVuSans-48"/>
       <use x="127.246094" xlink:href="#DejaVuSans-48"/>
      </g>
     </g>
    </g>
    <g id="xtick_5">
     <g id="line2d_5">
      <g>
       <use style="stroke:#000000;stroke-width:0.8;" x="480.17799" xlink:href="#m9a1ec00770" y="384.48"/>
      </g>
     </g>
     <g id="text_5">
      <!-- 800 -->
      <defs>
       <path d="M 31.78125 34.625 
Q 24.75 34.625 20.71875 30.859375 
Q 16.703125 27.09375 16.703125 20.515625 
Q 16.703125 13.921875 20.71875 10.15625 
Q 24.75 6.390625 31.78125 6.390625 
Q 38.8125 6.390625 42.859375 10.171875 
Q 46.921875 13.96875 46.921875 20.515625 
Q 46.921875 27.09375 42.890625 30.859375 
Q 38.875 34.625 31.78125 34.625 
z
M 21.921875 38.8125 
Q 15.578125 40.375 12.03125 44.71875 
Q 8.5 49.078125 8.5 55.328125 
Q 8.5 64.0625 14.71875 69.140625 
Q 20.953125 74.21875 31.78125 74.21875 
Q 42.671875 74.21875 48.875 69.140625 
Q 55.078125 64.0625 55.078125 55.328125 
Q 55.078125 49.078125 51.53125 44.71875 
Q 48 40.375 41.703125 38.8125 
Q 48.828125 37.15625 52.796875 32.3125 
Q 56.78125 27.484375 56.78125 20.515625 
Q 56.78125 9.90625 50.3125 4.234375 
Q 43.84375 -1.421875 31.78125 -1.421875 
Q 19.734375 -1.421875 13.25 4.234375 
Q 6.78125 9.90625 6.78125 20.515625 
Q 6.78125 27.484375 10.78125 32.3125 
Q 14.796875 37.15625 21.921875 38.8125 
z
M 18.3125 54.390625 
Q 18.3125 48.734375 21.84375 45.5625 
Q 25.390625 42.390625 31.78125 42.390625 
Q 38.140625 42.390625 41.71875 45.5625 
Q 45.3125 48.734375 45.3125 54.390625 
Q 45.3125 60.0625 41.71875 63.234375 
Q 38.140625 66.40625 31.78125 66.40625 
Q 25.390625 66.40625 21.84375 63.234375 
Q 18.3125 60.0625 18.3125 54.390625 
z
" id="DejaVuSans-56"/>
      </defs>
      <g transform="translate(470.63424 399.078438)scale(0.1 -0.1)">
       <use xlink:href="#DejaVuSans-56"/>
       <use x="63.623047" xlink:href="#DejaVuSans-48"/>
       <use x="127.246094" xlink:href="#DejaVuSans-48"/>
      </g>
     </g>
    </g>
    <g id="xtick_6">
     <g id="line2d_6">
      <g>
       <use style="stroke:#000000;stroke-width:0.8;" x="565.613397" xlink:href="#m9a1ec00770" y="384.48"/>
      </g>
     </g>
     <g id="text_6">
      <!-- 1000 -->
      <defs>
       <path d="M 12.40625 8.296875 
L 28.515625 8.296875 
L 28.515625 63.921875 
L 10.984375 60.40625 
L 10.984375 69.390625 
L 28.421875 72.90625 
L 38.28125 72.90625 
L 38.28125 8.296875 
L 54.390625 8.296875 
L 54.390625 0 
L 12.40625 0 
z
" id="DejaVuSans-49"/>
      </defs>
      <g transform="translate(552.888397 399.078438)scale(0.1 -0.1)">
       <use xlink:href="#DejaVuSans-49"/>
       <use x="63.623047" xlink:href="#DejaVuSans-48"/>
       <use x="127.246094" xlink:href="#DejaVuSans-48"/>
       <use x="190.869141" xlink:href="#DejaVuSans-48"/>
      </g>
     </g>
    </g>
    <g id="xtick_7">
     <g id="line2d_7">
      <g>
       <use style="stroke:#000000;stroke-width:0.8;" x="651.048804" xlink:href="#m9a1ec00770" y="384.48"/>
      </g>
     </g>
     <g id="text_7">
      <!-- 1200 -->
      <g transform="translate(638.323804 399.078438)scale(0.1 -0.1)">
       <use xlink:href="#DejaVuSans-49"/>
       <use x="63.623047" xlink:href="#DejaVuSans-50"/>
       <use x="127.246094" xlink:href="#DejaVuSans-48"/>
       <use x="190.869141" xlink:href="#DejaVuSans-48"/>
      </g>
     </g>
    </g>
    <g id="xtick_8">
     <g id="line2d_8">
      <g>
       <use style="stroke:#000000;stroke-width:0.8;" x="736.484211" xlink:href="#m9a1ec00770" y="384.48"/>
      </g>
     </g>
     <g id="text_8">
      <!-- 1400 -->
      <g transform="translate(723.759211 399.078438)scale(0.1 -0.1)">
       <use xlink:href="#DejaVuSans-49"/>
       <use x="63.623047" xlink:href="#DejaVuSans-52"/>
       <use x="127.246094" xlink:href="#DejaVuSans-48"/>
       <use x="190.869141" xlink:href="#DejaVuSans-48"/>
      </g>
     </g>
    </g>
    <g id="text_9">
     <!-- Timestamp -->
     <defs>
      <path d="M -0.296875 72.90625 
L 61.375 72.90625 
L 61.375 64.59375 
L 35.5 64.59375 
L 35.5 0 
L 25.59375 0 
L 25.59375 64.59375 
L -0.296875 64.59375 
z
" id="DejaVuSans-84"/>
      <path d="M 9.421875 54.6875 
L 18.40625 54.6875 
L 18.40625 0 
L 9.421875 0 
z
M 9.421875 75.984375 
L 18.40625 75.984375 
L 18.40625 64.59375 
L 9.421875 64.59375 
z
" id="DejaVuSans-105"/>
      <path d="M 52 44.1875 
Q 55.375 50.25 60.0625 53.125 
Q 64.75 56 71.09375 56 
Q 79.640625 56 84.28125 50.015625 
Q 88.921875 44.046875 88.921875 33.015625 
L 88.921875 0 
L 79.890625 0 
L 79.890625 32.71875 
Q 79.890625 40.578125 77.09375 44.375 
Q 74.3125 48.1875 68.609375 48.1875 
Q 61.625 48.1875 57.5625 43.546875 
Q 53.515625 38.921875 53.515625 30.90625 
L 53.515625 0 
L 44.484375 0 
L 44.484375 32.71875 
Q 44.484375 40.625 41.703125 44.40625 
Q 38.921875 48.1875 33.109375 48.1875 
Q 26.21875 48.1875 22.15625 43.53125 
Q 18.109375 38.875 18.109375 30.90625 
L 18.109375 0 
L 9.078125 0 
L 9.078125 54.6875 
L 18.109375 54.6875 
L 18.109375 46.1875 
Q 21.1875 51.21875 25.484375 53.609375 
Q 29.78125 56 35.6875 56 
Q 41.65625 56 45.828125 52.96875 
Q 50 49.953125 52 44.1875 
z
" id="DejaVuSans-109"/>
      <path d="M 56.203125 29.59375 
L 56.203125 25.203125 
L 14.890625 25.203125 
Q 15.484375 15.921875 20.484375 11.0625 
Q 25.484375 6.203125 34.421875 6.203125 
Q 39.59375 6.203125 44.453125 7.46875 
Q 49.3125 8.734375 54.109375 11.28125 
L 54.109375 2.78125 
Q 49.265625 0.734375 44.1875 -0.34375 
Q 39.109375 -1.421875 33.890625 -1.421875 
Q 20.796875 -1.421875 13.15625 6.1875 
Q 5.515625 13.8125 5.515625 26.8125 
Q 5.515625 40.234375 12.765625 48.109375 
Q 20.015625 56 32.328125 56 
Q 43.359375 56 49.78125 48.890625 
Q 56.203125 41.796875 56.203125 29.59375 
z
M 47.21875 32.234375 
Q 47.125 39.59375 43.09375 43.984375 
Q 39.0625 48.390625 32.421875 48.390625 
Q 24.90625 48.390625 20.390625 44.140625 
Q 15.875 39.890625 15.1875 32.171875 
z
" id="DejaVuSans-101"/>
      <path d="M 44.28125 53.078125 
L 44.28125 44.578125 
Q 40.484375 46.53125 36.375 47.5 
Q 32.28125 48.484375 27.875 48.484375 
Q 21.1875 48.484375 17.84375 46.4375 
Q 14.5 44.390625 14.5 40.28125 
Q 14.5 37.15625 16.890625 35.375 
Q 19.28125 33.59375 26.515625 31.984375 
L 29.59375 31.296875 
Q 39.15625 29.25 43.1875 25.515625 
Q 47.21875 21.78125 47.21875 15.09375 
Q 47.21875 7.46875 41.1875 3.015625 
Q 35.15625 -1.421875 24.609375 -1.421875 
Q 20.21875 -1.421875 15.453125 -0.5625 
Q 10.6875 0.296875 5.421875 2 
L 5.421875 11.28125 
Q 10.40625 8.6875 15.234375 7.390625 
Q 20.0625 6.109375 24.8125 6.109375 
Q 31.15625 6.109375 34.5625 8.28125 
Q 37.984375 10.453125 37.984375 14.40625 
Q 37.984375 18.0625 35.515625 20.015625 
Q 33.0625 21.96875 24.703125 23.78125 
L 21.578125 24.515625 
Q 13.234375 26.265625 9.515625 29.90625 
Q 5.8125 33.546875 5.8125 39.890625 
Q 5.8125 47.609375 11.28125 51.796875 
Q 16.75 56 26.8125 56 
Q 31.78125 56 36.171875 55.265625 
Q 40.578125 54.546875 44.28125 53.078125 
z
" id="DejaVuSans-115"/>
      <path d="M 18.3125 70.21875 
L 18.3125 54.6875 
L 36.8125 54.6875 
L 36.8125 47.703125 
L 18.3125 47.703125 
L 18.3125 18.015625 
Q 18.3125 11.328125 20.140625 9.421875 
Q 21.96875 7.515625 27.59375 7.515625 
L 36.8125 7.515625 
L 36.8125 0 
L 27.59375 0 
Q 17.1875 0 13.234375 3.875 
Q 9.28125 7.765625 9.28125 18.015625 
L 9.28125 47.703125 
L 2.6875 47.703125 
L 2.6875 54.6875 
L 9.28125 54.6875 
L 9.28125 70.21875 
z
" id="DejaVuSans-116"/>
      <path d="M 34.28125 27.484375 
Q 23.390625 27.484375 19.1875 25 
Q 14.984375 22.515625 14.984375 16.5 
Q 14.984375 11.71875 18.140625 8.90625 
Q 21.296875 6.109375 26.703125 6.109375 
Q 34.1875 6.109375 38.703125 11.40625 
Q 43.21875 16.703125 43.21875 25.484375 
L 43.21875 27.484375 
z
M 52.203125 31.203125 
L 52.203125 0 
L 43.21875 0 
L 43.21875 8.296875 
Q 40.140625 3.328125 35.546875 0.953125 
Q 30.953125 -1.421875 24.3125 -1.421875 
Q 15.921875 -1.421875 10.953125 3.296875 
Q 6 8.015625 6 15.921875 
Q 6 25.140625 12.171875 29.828125 
Q 18.359375 34.515625 30.609375 34.515625 
L 43.21875 34.515625 
L 43.21875 35.40625 
Q 43.21875 41.609375 39.140625 45 
Q 35.0625 48.390625 27.6875 48.390625 
Q 23 48.390625 18.546875 47.265625 
Q 14.109375 46.140625 10.015625 43.890625 
L 10.015625 52.203125 
Q 14.9375 54.109375 19.578125 55.046875 
Q 24.21875 56 28.609375 56 
Q 40.484375 56 46.34375 49.84375 
Q 52.203125 43.703125 52.203125 31.203125 
z
" id="DejaVuSans-97"/>
      <path d="M 18.109375 8.203125 
L 18.109375 -20.796875 
L 9.078125 -20.796875 
L 9.078125 54.6875 
L 18.109375 54.6875 
L 18.109375 46.390625 
Q 20.953125 51.265625 25.265625 53.625 
Q 29.59375 56 35.59375 56 
Q 45.5625 56 51.78125 48.09375 
Q 58.015625 40.1875 58.015625 27.296875 
Q 58.015625 14.40625 51.78125 6.484375 
Q 45.5625 -1.421875 35.59375 -1.421875 
Q 29.59375 -1.421875 25.265625 0.953125 
Q 20.953125 3.328125 18.109375 8.203125 
z
M 48.6875 27.296875 
Q 48.6875 37.203125 44.609375 42.84375 
Q 40.53125 48.484375 33.40625 48.484375 
Q 26.265625 48.484375 22.1875 42.84375 
Q 18.109375 37.203125 18.109375 27.296875 
Q 18.109375 17.390625 22.1875 11.75 
Q 26.265625 6.109375 33.40625 6.109375 
Q 40.53125 6.109375 44.609375 11.75 
Q 48.6875 17.390625 48.6875 27.296875 
z
" id="DejaVuSans-112"/>
     </defs>
     <g transform="translate(414.739062 412.756563)scale(0.1 -0.1)">
      <use xlink:href="#DejaVuSans-84"/>
      <use x="61.037109" xlink:href="#DejaVuSans-105"/>
      <use x="88.820312" xlink:href="#DejaVuSans-109"/>
      <use x="186.232422" xlink:href="#DejaVuSans-101"/>
      <use x="247.755859" xlink:href="#DejaVuSans-115"/>
      <use x="299.855469" xlink:href="#DejaVuSans-116"/>
      <use x="339.064453" xlink:href="#DejaVuSans-97"/>
      <use x="400.34375" xlink:href="#DejaVuSans-109"/>
      <use x="497.755859" xlink:href="#DejaVuSans-112"/>
     </g>
    </g>
   </g>
   <g id="matplotlib.axis_2">
    <g id="ytick_1">
     <g id="line2d_9">
      <defs>
       <path d="M 0 0 
L -3.5 0 
" id="m8c0161a729" style="stroke:#000000;stroke-width:0.8;"/>
      </defs>
      <g>
       <use style="stroke:#000000;stroke-width:0.8;" x="108" xlink:href="#m8c0161a729" y="342.294651"/>
      </g>
     </g>
     <g id="text_10">
      <!-- 0 -->
      <g transform="translate(94.6375 346.09387)scale(0.1 -0.1)">
       <use xlink:href="#DejaVuSans-48"/>
      </g>
     </g>
    </g>
    <g id="ytick_2">
     <g id="line2d_10">
      <g>
       <use style="stroke:#000000;stroke-width:0.8;" x="108" xlink:href="#m8c0161a729" y="298.352112"/>
      </g>
     </g>
     <g id="text_11">
      <!-- 2000 -->
      <g transform="translate(75.55 302.151331)scale(0.1 -0.1)">
       <use xlink:href="#DejaVuSans-50"/>
       <use x="63.623047" xlink:href="#DejaVuSans-48"/>
       <use x="127.246094" xlink:href="#DejaVuSans-48"/>
       <use x="190.869141" xlink:href="#DejaVuSans-48"/>
      </g>
     </g>
    </g>
    <g id="ytick_3">
     <g id="line2d_11">
      <g>
       <use style="stroke:#000000;stroke-width:0.8;" x="108" xlink:href="#m8c0161a729" y="254.409574"/>
      </g>
     </g>
     <g id="text_12">
      <!-- 4000 -->
      <g transform="translate(75.55 258.208792)scale(0.1 -0.1)">
       <use xlink:href="#DejaVuSans-52"/>
       <use x="63.623047" xlink:href="#DejaVuSans-48"/>
       <use x="127.246094" xlink:href="#DejaVuSans-48"/>
       <use x="190.869141" xlink:href="#DejaVuSans-48"/>
      </g>
     </g>
    </g>
    <g id="ytick_4">
     <g id="line2d_12">
      <g>
       <use style="stroke:#000000;stroke-width:0.8;" x="108" xlink:href="#m8c0161a729" y="210.467035"/>
      </g>
     </g>
     <g id="text_13">
      <!-- 6000 -->
      <g transform="translate(75.55 214.266254)scale(0.1 -0.1)">
       <use xlink:href="#DejaVuSans-54"/>
       <use x="63.623047" xlink:href="#DejaVuSans-48"/>
       <use x="127.246094" xlink:href="#DejaVuSans-48"/>
       <use x="190.869141" xlink:href="#DejaVuSans-48"/>
      </g>
     </g>
    </g>
    <g id="ytick_5">
     <g id="line2d_13">
      <g>
       <use style="stroke:#000000;stroke-width:0.8;" x="108" xlink:href="#m8c0161a729" y="166.524496"/>
      </g>
     </g>
     <g id="text_14">
      <!-- 8000 -->
      <g transform="translate(75.55 170.323715)scale(0.1 -0.1)">
       <use xlink:href="#DejaVuSans-56"/>
       <use x="63.623047" xlink:href="#DejaVuSans-48"/>
       <use x="127.246094" xlink:href="#DejaVuSans-48"/>
       <use x="190.869141" xlink:href="#DejaVuSans-48"/>
      </g>
     </g>
    </g>
    <g id="ytick_6">
     <g id="line2d_14">
      <g>
       <use style="stroke:#000000;stroke-width:0.8;" x="108" xlink:href="#m8c0161a729" y="122.581957"/>
      </g>
     </g>
     <g id="text_15">
      <!-- 10000 -->
      <g transform="translate(69.1875 126.381176)scale(0.1 -0.1)">
       <use xlink:href="#DejaVuSans-49"/>
       <use x="63.623047" xlink:href="#DejaVuSans-48"/>
       <use x="127.246094" xlink:href="#DejaVuSans-48"/>
       <use x="190.869141" xlink:href="#DejaVuSans-48"/>
       <use x="254.492188" xlink:href="#DejaVuSans-48"/>
      </g>
     </g>
    </g>
    <g id="ytick_7">
     <g id="line2d_15">
      <g>
       <use style="stroke:#000000;stroke-width:0.8;" x="108" xlink:href="#m8c0161a729" y="78.639419"/>
      </g>
     </g>
     <g id="text_16">
      <!-- 12000 -->
      <g transform="translate(69.1875 82.438637)scale(0.1 -0.1)">
       <use xlink:href="#DejaVuSans-49"/>
       <use x="63.623047" xlink:href="#DejaVuSans-50"/>
       <use x="127.246094" xlink:href="#DejaVuSans-48"/>
       <use x="190.869141" xlink:href="#DejaVuSans-48"/>
       <use x="254.492188" xlink:href="#DejaVuSans-48"/>
      </g>
     </g>
    </g>
    <g id="text_17">
     <!-- Value -->
     <defs>
      <path d="M 28.609375 0 
L 0.78125 72.90625 
L 11.078125 72.90625 
L 34.1875 11.53125 
L 57.328125 72.90625 
L 67.578125 72.90625 
L 39.796875 0 
z
" id="DejaVuSans-86"/>
      <path d="M 9.421875 75.984375 
L 18.40625 75.984375 
L 18.40625 0 
L 9.421875 0 
z
" id="DejaVuSans-108"/>
      <path d="M 8.5 21.578125 
L 8.5 54.6875 
L 17.484375 54.6875 
L 17.484375 21.921875 
Q 17.484375 14.15625 20.5 10.265625 
Q 23.53125 6.390625 29.59375 6.390625 
Q 36.859375 6.390625 41.078125 11.03125 
Q 45.3125 15.671875 45.3125 23.6875 
L 45.3125 54.6875 
L 54.296875 54.6875 
L 54.296875 0 
L 45.3125 0 
L 45.3125 8.40625 
Q 42.046875 3.421875 37.71875 1 
Q 33.40625 -1.421875 27.6875 -1.421875 
Q 18.265625 -1.421875 13.375 4.4375 
Q 8.5 10.296875 8.5 21.578125 
z
M 31.109375 56 
z
" id="DejaVuSans-117"/>
     </defs>
     <g transform="translate(63.107813 232.273281)rotate(-90)scale(0.1 -0.1)">
      <use xlink:href="#DejaVuSans-86"/>
      <use x="68.298828" xlink:href="#DejaVuSans-97"/>
      <use x="129.578125" xlink:href="#DejaVuSans-108"/>
      <use x="157.361328" xlink:href="#DejaVuSans-117"/>
      <use x="220.740234" xlink:href="#DejaVuSans-101"/>
     </g>
    </g>
   </g>
   <g id="line2d_16">
    <path clip-path="url(#p9f1feb7a47)" d="M 138.436364 329.353191 
L 138.863541 343.871788 
L 139.290718 325.523427 
L 139.717895 324.53586 
L 140.145072 331.664753 
L 140.572249 349.915167 
L 141.426603 334.257046 
L 141.85378 329.837905 
L 142.280957 303.955052 
L 143.135311 333.551236 
L 143.562488 335.70348 
L 143.989665 325.667027 
L 144.416842 324.459519 
L 144.844019 324.330834 
L 145.271196 316.384539 
L 145.698373 326.794734 
L 146.12555 312.216336 
L 146.552727 328.08184 
L 146.979904 316.787802 
L 147.407081 309.716014 
L 147.834258 311.265317 
L 148.261435 303.604336 
L 148.688612 311.520309 
L 149.542967 298.508742 
L 149.970144 315.879423 
L 150.397321 321.330089 
L 150.824498 307.347176 
L 151.678852 312.517566 
L 152.106029 311.105337 
L 152.533206 313.05859 
L 152.960383 298.949317 
L 153.38756 294.539493 
L 153.814737 296.120387 
L 154.241914 310.549021 
L 154.669091 293.750618 
L 155.096268 309.282166 
L 155.523445 288.871468 
L 156.377799 311.901211 
L 157.232153 320.015626 
L 157.65933 319.524441 
L 158.086507 325.15973 
L 158.513684 298.251533 
L 158.940861 302.237764 
L 159.368038 313.719947 
L 159.795215 309.524301 
L 160.222392 316.886495 
L 160.649569 289.240318 
L 161.076746 322.96549 
L 161.503923 316.448629 
L 161.9311 314.381519 
L 162.358278 311.712183 
L 162.785455 320.815879 
L 163.212632 342.717398 
L 163.639809 334.144225 
L 164.066986 318.891114 
L 164.494163 323.838686 
L 164.92134 334.476727 
L 165.348517 327.361735 
L 165.775694 335.696771 
L 166.202871 326.253018 
L 166.630048 344.41407 
L 167.057225 327.550809 
L 167.484402 330.020875 
L 167.911579 333.154172 
L 168.338756 334.895647 
L 168.765933 333.75005 
L 169.19311 344.186736 
L 169.620287 340.063189 
L 170.047464 333.355952 
L 170.474641 330.138642 
L 170.901818 341.01881 
L 171.328995 344.82748 
L 171.756172 354.004621 
L 172.183349 360.428394 
L 172.610526 355.008402 
L 173.037703 335.263905 
L 173.46488 341.138031 
L 173.892057 352.133829 
L 174.319234 355.121244 
L 174.746411 355.924442 
L 175.173589 342.396742 
L 175.600766 356.052501 
L 176.027943 341.249522 
L 176.45512 348.07976 
L 176.882297 342.072067 
L 177.309474 364.623014 
L 177.736651 356.179897 
L 178.163828 365.61343 
L 178.591005 351.017187 
L 179.445359 360.456739 
L 179.872536 343.026372 
L 180.299713 355.564108 
L 180.72689 347.834566 
L 181.154067 349.987618 
L 181.581244 365.686982 
L 182.008421 363.904366 
L 182.435598 356.972946 
L 182.862775 368.607531 
L 183.289952 350.964159 
L 183.717129 369.36 
L 184.144306 339.440952 
L 184.571483 360.429077 
L 184.99866 337.748202 
L 185.425837 358.252876 
L 185.853014 363.188729 
L 186.280191 352.289759 
L 186.707368 351.41621 
L 187.134545 367.803285 
L 187.561722 339.147187 
L 187.9889 360.142142 
L 188.416077 344.332494 
L 188.843254 341.600338 
L 189.270431 344.046163 
L 189.697608 345.434678 
L 190.124785 340.972996 
L 190.551962 352.502866 
L 190.979139 348.478634 
L 191.406316 350.253139 
L 191.833493 321.563616 
L 192.26067 320.962432 
L 193.115024 345.67217 
L 193.969378 314.836426 
L 194.396555 333.422218 
L 194.823732 318.965302 
L 195.250909 335.345901 
L 195.678086 316.924356 
L 196.105263 332.010862 
L 196.53244 333.226886 
L 196.959617 328.867524 
L 197.386794 326.414821 
L 197.813971 325.267161 
L 198.241148 306.984534 
L 198.668325 312.263012 
L 199.095502 314.717908 
L 199.522679 320.945921 
L 199.949856 318.756799 
L 200.377033 314.795451 
L 200.804211 316.941138 
L 201.231388 308.752117 
L 201.658565 298.081967 
L 202.085742 313.501465 
L 202.512919 285.376796 
L 202.940096 312.317876 
L 203.367273 298.823028 
L 203.79445 272.700198 
L 204.648804 297.11949 
L 205.075981 302.343783 
L 205.503158 286.737845 
L 205.930335 291.885918 
L 206.357512 294.73395 
L 206.784689 286.954759 
L 207.211866 294.423551 
L 207.639043 261.903474 
L 208.493397 279.845273 
L 208.920574 280.068268 
L 209.347751 292.407456 
L 209.774928 277.618857 
L 210.202105 289.869556 
L 210.629282 296.363406 
L 211.056459 266.959499 
L 211.483636 295.390161 
L 211.910813 288.973842 
L 212.765167 295.809802 
L 213.192344 280.359052 
L 213.619522 302.130931 
L 214.046699 289.122682 
L 214.473876 293.248682 
L 214.901053 301.970701 
L 215.32823 289.120969 
L 215.755407 293.347654 
L 216.182584 295.613948 
L 216.609761 280.364741 
L 217.036938 285.649286 
L 217.464115 292.748842 
L 217.891292 291.087254 
L 218.318469 301.02687 
L 218.745646 296.529269 
L 219.172823 284.299639 
L 219.6 296.646185 
L 220.027177 295.888397 
L 220.454354 278.104118 
L 220.881531 306.857377 
L 221.308708 291.14495 
L 221.735885 283.914499 
L 222.163062 314.025554 
L 222.590239 304.286044 
L 223.017416 309.649607 
L 223.444593 311.922335 
L 223.87177 318.804952 
L 224.298947 318.561749 
L 224.726124 297.903764 
L 225.153301 306.02568 
L 225.580478 305.463373 
L 226.007656 298.820871 
L 226.434833 319.565071 
L 226.86201 308.852559 
L 227.289187 318.983969 
L 227.716364 324.678995 
L 228.143541 311.432948 
L 228.997895 333.968622 
L 229.425072 326.723254 
L 229.852249 310.271745 
L 230.279426 314.619647 
L 230.706603 342.297075 
L 231.13378 327.571611 
L 231.560957 320.910171 
L 231.988134 346.867356 
L 232.415311 317.020926 
L 232.842488 337.601173 
L 233.269665 330.067623 
L 233.696842 335.579627 
L 234.124019 318.321732 
L 234.551196 349.847825 
L 234.978373 336.926308 
L 235.40555 346.850966 
L 236.259904 314.203811 
L 236.687081 352.441182 
L 237.114258 337.980756 
L 237.541435 339.037834 
L 237.968612 322.057343 
L 238.395789 347.676911 
L 239.250144 320.466376 
L 239.677321 340.15704 
L 240.104498 344.461667 
L 240.958852 331.62598 
L 241.386029 346.567183 
L 241.813206 319.478355 
L 242.240383 335.24478 
L 242.66756 364.129547 
L 243.094737 345.262777 
L 243.521914 317.654219 
L 243.949091 342.443551 
L 244.376268 332.739028 
L 244.803445 330.382987 
L 245.230622 346.036023 
L 245.657799 323.884595 
L 246.084976 323.529192 
L 246.512153 307.71098 
L 247.366507 323.503891 
L 247.793684 323.922284 
L 248.220861 315.660188 
L 248.648038 329.461054 
L 249.075215 318.04208 
L 249.929569 310.711083 
L 250.356746 326.319434 
L 250.783923 298.536992 
L 251.2111 304.733346 
L 251.638278 284.927446 
L 252.065455 327.924723 
L 252.492632 313.201202 
L 252.919809 323.028265 
L 253.346986 308.354413 
L 253.774163 299.372071 
L 254.20134 283.690216 
L 254.628517 303.849408 
L 255.055694 309.926799 
L 255.910048 288.37841 
L 256.337225 291.28694 
L 256.764402 278.25294 
L 257.618756 305.318133 
L 258.045933 277.531678 
L 258.47311 297.017623 
L 258.900287 278.099049 
L 259.327464 277.786047 
L 259.754641 277.920369 
L 260.181818 262.916079 
L 260.608995 281.220892 
L 261.036172 291.243822 
L 261.463349 276.135608 
L 261.890526 278.022296 
L 262.74488 257.056968 
L 263.172057 290.980881 
L 263.599234 273.937926 
L 264.026411 270.223027 
L 264.453589 264.591062 
L 264.880766 276.500342 
L 265.307943 264.831436 
L 265.73512 264.331776 
L 266.162297 267.791505 
L 266.589474 268.462136 
L 267.016651 251.946121 
L 267.443828 259.642625 
L 267.871005 246.384808 
L 268.298182 268.724553 
L 268.725359 278.470182 
L 269.152536 269.803671 
L 269.579713 264.806629 
L 270.00689 268.271 
L 270.434067 270.15644 
L 270.861244 282.153889 
L 271.288421 274.511604 
L 271.715598 277.86044 
L 272.142775 264.017046 
L 272.569952 264.091405 
L 272.997129 252.49269 
L 273.424306 271.986963 
L 273.851483 259.66217 
L 274.705837 286.01328 
L 275.133014 267.046787 
L 275.560191 277.538567 
L 275.987368 281.60491 
L 276.414545 281.736467 
L 276.841722 264.000789 
L 277.2689 260.113282 
L 277.696077 266.878633 
L 278.550431 292.534692 
L 278.977608 278.154886 
L 279.404785 270.298828 
L 279.831962 274.286378 
L 280.259139 280.795588 
L 280.686316 282.962118 
L 281.113493 295.004912 
L 281.54067 283.224725 
L 281.967847 288.424061 
L 282.395024 289.576489 
L 282.822201 293.58971 
L 283.249378 304.55276 
L 283.676555 300.103887 
L 284.103732 287.611608 
L 284.530909 296.238433 
L 284.958086 297.734225 
L 285.385263 301.004594 
L 285.81244 286.148064 
L 286.239617 301.343009 
L 286.666794 300.178303 
L 287.093971 302.336343 
L 287.521148 314.720051 
L 287.948325 306.720644 
L 288.375502 294.061348 
L 288.802679 303.467417 
L 289.229856 323.786319 
L 289.657033 309.22474 
L 290.084211 305.22141 
L 290.511388 312.488958 
L 290.938565 304.59041 
L 291.792919 324.587905 
L 292.220096 307.180587 
L 292.647273 312.481475 
L 293.07445 310.15025 
L 293.501627 305.567585 
L 293.928804 314.506356 
L 294.355981 333.345108 
L 294.783158 315.883184 
L 295.210335 333.899977 
L 295.637512 322.834829 
L 296.064689 307.872231 
L 296.491866 334.969886 
L 296.919043 316.408832 
L 297.34622 323.528348 
L 297.773397 320.225226 
L 298.200574 307.031642 
L 298.627751 311.979371 
L 299.054928 303.100542 
L 299.482105 327.23714 
L 299.909282 324.049157 
L 300.336459 322.309169 
L 300.763636 315.332148 
L 301.190813 323.461203 
L 301.61799 320.853001 
L 302.045167 321.595097 
L 302.472344 304.720772 
L 302.899522 304.344543 
L 303.326699 299.627688 
L 303.753876 280.905937 
L 304.181053 308.593634 
L 304.60823 298.684398 
L 305.035407 271.346399 
L 305.462584 297.517021 
L 305.889761 302.616428 
L 306.316938 310.449676 
L 306.744115 304.781978 
L 307.171292 314.961413 
L 307.598469 312.362868 
L 308.025646 299.089379 
L 308.452823 290.277914 
L 308.88 291.603644 
L 309.307177 294.444302 
L 309.734354 307.383893 
L 310.161531 280.729779 
L 310.588708 281.188686 
L 311.015885 267.898943 
L 311.443062 301.498247 
L 311.870239 284.024306 
L 312.297416 261.813226 
L 312.724593 276.789317 
L 313.15177 262.381351 
L 313.578947 269.029734 
L 314.006124 271.920291 
L 314.433301 262.515938 
L 314.860478 288.508084 
L 315.287656 272.224714 
L 316.14201 252.304165 
L 316.996364 261.153998 
L 317.423541 250.230189 
L 318.277895 270.428848 
L 318.705072 258.277452 
L 319.132249 258.515076 
L 319.559426 251.991472 
L 319.986603 258.529296 
L 320.41378 247.04256 
L 320.840957 231.815172 
L 321.268134 269.985079 
L 321.695311 245.021727 
L 322.122488 257.467296 
L 322.549665 255.788358 
L 322.976842 267.141853 
L 323.404019 250.764835 
L 323.831196 244.205123 
L 324.258373 261.570144 
L 324.68555 227.063928 
L 325.112727 254.043517 
L 325.539904 269.148118 
L 326.394258 221.877435 
L 326.821435 229.445555 
L 327.248612 232.657076 
L 327.675789 237.652372 
L 328.102967 241.082772 
L 329.384498 268.99881 
L 329.811675 258.789818 
L 330.238852 265.337979 
L 330.666029 257.776787 
L 331.093206 240.939945 
L 331.520383 257.884789 
L 331.94756 265.167472 
L 332.374737 260.147159 
L 332.801914 268.468957 
L 333.229091 243.741928 
L 333.656268 267.958707 
L 334.083445 255.131356 
L 335.364976 237.455893 
L 335.792153 275.536851 
L 336.21933 249.4459 
L 336.646507 265.580606 
L 337.073684 262.933631 
L 337.500861 247.629846 
L 337.928038 269.648359 
L 338.355215 257.84529 
L 338.782392 266.917801 
L 339.209569 272.191211 
L 339.636746 254.206331 
L 340.063923 272.043698 
L 340.4911 273.199959 
L 340.918278 265.273826 
L 341.345455 264.335185 
L 341.772632 284.229914 
L 342.199809 264.525117 
L 342.626986 283.835016 
L 343.054163 287.61176 
L 343.48134 303.486385 
L 343.908517 282.529444 
L 344.335694 279.023391 
L 344.762871 290.551658 
L 345.190048 271.927581 
L 346.044402 285.646201 
L 346.471579 269.368846 
L 346.898756 303.87754 
L 347.325933 286.70596 
L 347.75311 281.928366 
L 348.180287 301.42467 
L 348.607464 294.744892 
L 349.034641 293.458601 
L 349.461818 298.097205 
L 349.888995 293.52655 
L 350.316172 296.385628 
L 350.743349 303.767496 
L 351.170526 288.104022 
L 351.597703 302.066018 
L 352.02488 302.918562 
L 352.879234 279.909045 
L 353.306411 315.075612 
L 353.733589 295.32235 
L 354.160766 293.329038 
L 354.587943 297.017331 
L 355.01512 271.274335 
L 355.442297 284.300563 
L 355.869474 302.208557 
L 356.296651 302.821647 
L 356.723828 286.861436 
L 357.151005 285.479302 
L 357.578182 287.894141 
L 358.005359 300.739399 
L 358.432536 288.526179 
L 358.859713 294.074027 
L 359.28689 273.807297 
L 359.714067 300.393138 
L 360.141244 290.534607 
L 360.568421 300.322388 
L 360.995598 298.908513 
L 361.422775 287.88465 
L 362.277129 290.76106 
L 362.704306 268.830524 
L 363.131483 282.415378 
L 363.55866 268.676741 
L 363.985837 290.663969 
L 364.413014 281.867508 
L 364.840191 292.219029 
L 365.267368 261.991401 
L 365.694545 285.083125 
L 366.121722 258.741397 
L 366.5489 282.219778 
L 366.976077 271.622772 
L 367.403254 298.254561 
L 367.830431 270.085584 
L 368.257608 265.875856 
L 368.684785 283.894153 
L 369.111962 265.796349 
L 369.539139 264.814195 
L 369.966316 278.358112 
L 370.393493 249.049194 
L 370.82067 268.867209 
L 371.675024 247.761744 
L 372.102201 257.267996 
L 372.529378 242.893744 
L 372.956555 247.635583 
L 373.383732 232.400568 
L 373.810909 252.747093 
L 374.238086 256.380832 
L 374.665263 239.613394 
L 375.09244 243.878619 
L 375.519617 243.591465 
L 375.946794 234.306151 
L 376.373971 233.203532 
L 376.801148 236.748461 
L 377.228325 229.38013 
L 378.509856 222.944408 
L 378.937033 218.700921 
L 379.364211 232.326069 
L 379.791388 234.595955 
L 380.218565 241.823351 
L 380.645742 231.115176 
L 381.072919 237.473634 
L 381.500096 223.361216 
L 381.927273 229.045593 
L 382.781627 236.133281 
L 383.208804 225.321526 
L 384.063158 238.288553 
L 384.490335 239.71868 
L 384.917512 214.247781 
L 385.344689 232.294227 
L 385.771866 233.2521 
L 386.199043 228.650006 
L 386.62622 231.748053 
L 387.480574 229.732263 
L 387.907751 233.089014 
L 388.334928 238.536907 
L 388.762105 220.75202 
L 389.189282 229.685171 
L 389.616459 243.854789 
L 390.043636 221.767981 
L 390.470813 248.309845 
L 390.89799 235.557264 
L 391.325167 235.25852 
L 391.752344 242.750054 
L 392.179522 231.274878 
L 392.606699 250.421446 
L 393.033876 220.809177 
L 393.461053 233.537128 
L 393.88823 221.135795 
L 394.315407 232.95444 
L 394.742584 257.729302 
L 395.169761 235.254498 
L 395.596938 238.471861 
L 396.024115 233.84562 
L 396.451292 234.59278 
L 396.878469 242.093047 
L 397.305646 241.603112 
L 397.732823 255.15276 
L 398.16 234.505364 
L 398.587177 269.697974 
L 399.014354 272.157622 
L 399.441531 267.466707 
L 399.868708 246.435836 
L 400.295885 268.125786 
L 400.723062 262.038668 
L 401.150239 258.535776 
L 401.577416 265.481176 
L 402.004593 282.879693 
L 402.43177 251.096135 
L 402.858947 264.830804 
L 403.286124 259.779543 
L 404.140478 272.617961 
L 404.994833 260.928068 
L 405.42201 285.352756 
L 405.849187 282.674374 
L 406.276364 258.582394 
L 406.703541 281.700341 
L 407.130718 273.079381 
L 407.557895 288.356662 
L 407.985072 267.524396 
L 408.412249 269.017011 
L 408.839426 278.257335 
L 409.266603 260.202239 
L 409.69378 281.478582 
L 410.120957 279.561183 
L 410.548134 265.685276 
L 410.975311 272.36774 
L 411.402488 268.491638 
L 411.829665 262.311018 
L 412.256842 274.66718 
L 412.684019 270.468541 
L 413.111196 283.382897 
L 413.538373 271.961203 
L 413.96555 279.507655 
L 414.392727 263.095682 
L 414.819904 276.081321 
L 415.247081 274.808225 
L 415.674258 274.599275 
L 416.101435 294.557328 
L 416.528612 283.33003 
L 416.955789 252.645789 
L 417.382967 264.584331 
L 417.810144 270.483625 
L 418.237321 271.579028 
L 418.664498 270.649551 
L 419.091675 263.540482 
L 419.518852 86.742919 
L 419.946029 86.742919 
L 420.373206 266.054808 
L 420.800383 276.129848 
L 421.654737 255.695339 
L 422.081914 274.166785 
L 422.509091 247.812561 
L 422.936268 244.796127 
L 423.363445 255.401364 
L 423.790622 251.113243 
L 424.217799 238.752964 
L 424.644976 256.747452 
L 425.072153 258.798267 
L 425.49933 259.433047 
L 425.926507 256.083197 
L 426.353684 251.844405 
L 426.780861 239.297784 
L 427.208038 251.043875 
L 427.635215 242.688114 
L 428.062392 236.768904 
L 428.489569 249.815867 
L 428.916746 220.828252 
L 429.343923 220.405591 
L 429.7711 250.399393 
L 430.198278 235.502934 
L 430.625455 232.883415 
L 431.052632 225.917507 
L 431.479809 238.064312 
L 431.906986 228.576382 
L 432.334163 215.448354 
L 432.76134 211.990238 
L 433.188517 218.393528 
L 433.615694 216.030067 
L 434.042871 224.765812 
L 434.470048 221.511992 
L 434.897225 204.115196 
L 435.324402 214.131717 
L 435.751579 220.662363 
L 436.178756 196.208012 
L 436.605933 217.752337 
L 437.03311 199.506711 
L 437.460287 204.24563 
L 437.887464 205.530972 
L 438.314641 211.821086 
L 438.741818 199.058422 
L 439.168995 224.092182 
L 440.450526 204.544442 
L 440.877703 204.776536 
L 441.30488 208.472979 
L 441.732057 208.348587 
L 442.159234 200.507557 
L 442.586411 211.924172 
L 443.013589 227.415022 
L 443.440766 205.272269 
L 443.867943 196.718055 
L 444.29512 195.742031 
L 444.722297 208.900986 
L 445.149474 206.902776 
L 445.576651 191.3719 
L 446.003828 213.665328 
L 446.858182 203.330629 
L 447.285359 215.414819 
L 447.712536 214.26857 
L 448.139713 204.565914 
L 448.56689 218.43175 
L 448.994067 207.32894 
L 449.421244 224.968757 
L 449.848421 234.210007 
L 450.275598 208.46666 
L 450.702775 217.104433 
L 451.129952 221.216645 
L 451.557129 223.182659 
L 451.984306 208.966152 
L 452.411483 231.158855 
L 452.83866 211.617467 
L 453.265837 233.061316 
L 453.693014 225.152312 
L 454.120191 227.167287 
L 454.547368 220.432626 
L 454.974545 245.499713 
L 455.401722 231.37488 
L 455.8289 231.458318 
L 456.683254 221.245461 
L 457.110431 243.836626 
L 457.537608 231.846072 
L 457.964785 231.88001 
L 458.391962 225.672159 
L 458.819139 239.78941 
L 459.246316 228.48536 
L 459.673493 240.41314 
L 460.10067 245.445244 
L 460.527847 238.40519 
L 460.955024 241.831876 
L 461.382201 241.880567 
L 461.809378 236.636505 
L 462.236555 250.710622 
L 463.090909 251.753171 
L 463.518086 239.698539 
L 463.945263 231.631042 
L 464.37244 242.390133 
L 464.799617 242.363378 
L 465.226794 235.633374 
L 465.653971 259.953406 
L 466.081148 269.611933 
L 466.508325 266.464455 
L 466.935502 253.079198 
L 467.362679 255.796565 
L 467.789856 283.856721 
L 468.217033 244.593765 
L 468.644211 259.012472 
L 469.071388 257.483145 
L 469.498565 252.848174 
L 469.925742 270.220214 
L 470.352919 264.040177 
L 470.780096 246.268836 
L 471.207273 236.551483 
L 471.63445 249.2953 
L 472.061627 248.441592 
L 472.488804 272.816152 
L 472.915981 244.381189 
L 473.343158 243.130999 
L 473.770335 257.501195 
L 474.197512 251.342082 
L 474.624689 243.169435 
L 475.051866 229.939693 
L 475.479043 262.142833 
L 475.90622 239.576281 
L 476.333397 235.100716 
L 476.760574 238.77538 
L 477.187751 244.006825 
L 477.614928 247.407232 
L 478.042105 243.041538 
L 478.469282 234.709559 
L 478.896459 253.178184 
L 479.323636 253.350365 
L 479.750813 246.847559 
L 480.17799 252.700786 
L 480.605167 253.787492 
L 481.032344 221.480238 
L 481.459522 243.308255 
L 481.886699 237.62053 
L 482.313876 242.499212 
L 482.741053 224.287623 
L 483.16823 222.592525 
L 483.595407 214.350383 
L 484.022584 229.500628 
L 484.449761 210.677739 
L 484.876938 220.283417 
L 485.304115 233.25679 
L 485.731292 206.854151 
L 486.158469 201.615482 
L 486.585646 207.256406 
L 487.012823 218.189076 
L 487.44 225.90962 
L 487.867177 210.388426 
L 488.294354 222.896302 
L 488.721531 226.160443 
L 489.148708 199.202619 
L 489.575885 207.937621 
L 490.003062 207.555828 
L 490.430239 208.672186 
L 490.857416 187.507973 
L 491.284593 215.603536 
L 492.138947 191.374915 
L 492.566124 193.017117 
L 492.993301 201.088935 
L 493.420478 194.429214 
L 493.847656 194.75135 
L 494.274833 174.805709 
L 494.70201 189.924473 
L 495.129187 196.76308 
L 495.556364 177.337894 
L 495.983541 201.530318 
L 496.410718 182.540827 
L 496.837895 174.934389 
L 497.265072 198.682769 
L 497.692249 183.130435 
L 498.119426 176.386937 
L 498.546603 174.36923 
L 499.400957 165.797127 
L 499.828134 183.065106 
L 500.255311 193.608063 
L 500.682488 192.693791 
L 501.109665 178.053547 
L 501.536842 201.157591 
L 501.964019 180.355711 
L 502.391196 197.380931 
L 502.818373 195.3779 
L 503.24555 182.929532 
L 503.672727 192.811592 
L 504.099904 195.736913 
L 504.527081 194.633351 
L 504.954258 174.185251 
L 505.381435 203.100142 
L 505.808612 188.835675 
L 506.235789 195.447769 
L 506.662967 161.551175 
L 507.090144 194.026301 
L 507.517321 174.92199 
L 507.944498 185.567382 
L 508.371675 211.18797 
L 508.798852 191.144576 
L 509.226029 190.392567 
L 509.653206 198.298417 
L 510.080383 219.46641 
L 510.50756 178.12305 
L 510.934737 203.959993 
L 511.361914 217.46544 
L 511.789091 191.86066 
L 512.216268 208.255467 
L 512.643445 204.525965 
L 513.497799 227.698276 
L 513.924976 212.534845 
L 514.352153 204.5109 
L 514.77933 213.566236 
L 515.206507 214.384875 
L 516.060861 213.137107 
L 516.488038 221.057673 
L 516.915215 222.69557 
L 517.342392 228.249797 
L 517.769569 235.986992 
L 518.196746 237.737097 
L 518.623923 232.213403 
L 519.0511 232.851601 
L 519.478278 230.338446 
L 519.905455 66.96 
L 520.332632 66.96 
L 520.759809 214.108633 
L 521.186986 226.400148 
L 521.614163 228.356837 
L 522.04134 232.036047 
L 522.468517 241.817242 
L 522.895694 239.198892 
L 523.322871 237.588299 
L 523.750048 233.510235 
L 524.177225 235.264613 
L 524.604402 217.069091 
L 525.031579 239.203275 
L 525.458756 243.672856 
L 525.885933 252.955845 
L 526.31311 246.696912 
L 526.740287 210.402185 
L 527.167464 233.695771 
L 527.594641 227.569191 
L 528.021818 234.609147 
L 528.448995 234.785752 
L 528.876172 238.075827 
L 529.730526 221.18493 
L 530.157703 226.294611 
L 530.58488 237.218013 
L 531.012057 233.373828 
L 531.439234 248.544858 
L 531.866411 221.687821 
L 532.293589 214.140334 
L 532.720766 247.048764 
L 533.147943 231.099574 
L 533.57512 238.946455 
L 534.002297 241.218968 
L 534.429474 217.269201 
L 534.856651 215.228627 
L 535.283828 205.386465 
L 535.711005 219.733916 
L 536.138182 242.068437 
L 536.565359 217.4137 
L 536.992536 228.116756 
L 537.84689 215.962679 
L 538.274067 216.310544 
L 538.701244 207.557603 
L 539.128421 220.788848 
L 539.555598 219.535907 
L 540.409952 200.764105 
L 540.837129 212.0897 
L 541.264306 213.340913 
L 541.691483 215.233848 
L 542.11866 211.036388 
L 542.545837 204.727265 
L 542.973014 212.08512 
L 543.400191 191.698528 
L 543.827368 217.956842 
L 544.254545 197.122354 
L 544.681722 208.64006 
L 545.1089 180.144582 
L 545.536077 196.114081 
L 545.963254 177.998992 
L 546.390431 192.195462 
L 546.817608 188.640165 
L 547.244785 195.39167 
L 547.671962 214.873084 
L 548.099139 165.611487 
L 548.526316 195.246995 
L 548.953493 153.678329 
L 549.38067 175.10996 
L 549.807847 182.927243 
L 550.235024 168.956984 
L 550.662201 166.000185 
L 551.089378 176.162332 
L 551.516555 171.461554 
L 551.943732 153.211126 
L 552.370909 185.213412 
L 552.798086 170.62885 
L 553.225263 161.299735 
L 553.65244 182.937715 
L 554.079617 186.078342 
L 554.506794 153.625856 
L 554.933971 174.377171 
L 555.361148 176.834586 
L 555.788325 166.281075 
L 556.215502 171.183311 
L 556.642679 170.948733 
L 557.069856 179.455566 
L 557.497033 174.122794 
L 557.924211 156.259464 
L 558.351388 159.770851 
L 558.778565 171.340956 
L 559.205742 140.530801 
L 559.632919 150.178314 
L 560.060096 172.908453 
L 560.487273 166.722503 
L 560.91445 198.883969 
L 561.341627 156.84194 
L 561.768804 161.362829 
L 562.195981 172.620267 
L 563.050335 167.976345 
L 563.477512 159.261978 
L 563.904689 180.161213 
L 564.331866 160.355271 
L 564.759043 164.370433 
L 565.18622 180.058149 
L 565.613397 176.796087 
L 566.040574 156.238971 
L 566.467751 177.509798 
L 566.894928 191.069687 
L 567.322105 193.017407 
L 567.749282 179.935348 
L 568.176459 177.97026 
L 568.603636 179.044234 
L 569.030813 185.468204 
L 569.45799 204.026616 
L 570.312344 177.136448 
L 570.739522 211.28653 
L 571.166699 182.844484 
L 571.593876 205.262661 
L 572.021053 193.839881 
L 572.44823 207.113443 
L 572.875407 185.858754 
L 573.302584 201.438044 
L 573.729761 192.412814 
L 574.156938 206.029321 
L 575.011292 215.635389 
L 575.438469 213.230583 
L 575.865646 206.267274 
L 576.292823 189.7619 
L 576.72 199.114915 
L 577.147177 212.407713 
L 577.574354 204.530351 
L 578.001531 218.075097 
L 578.428708 215.107882 
L 578.855885 208.171207 
L 579.283062 183.429121 
L 579.710239 209.088922 
L 580.137416 211.144796 
L 580.564593 236.176294 
L 580.99177 201.584343 
L 581.418947 201.434073 
L 581.846124 231.046015 
L 582.273301 215.098294 
L 582.700478 223.958126 
L 583.127656 214.618392 
L 583.554833 221.178544 
L 583.98201 205.936494 
L 584.409187 214.269296 
L 584.836364 215.696892 
L 585.263541 212.658657 
L 585.690718 234.95338 
L 586.117895 228.32972 
L 586.545072 202.41479 
L 586.972249 214.083886 
L 587.399426 211.581831 
L 587.826603 229.568043 
L 588.25378 192.889445 
L 588.680957 219.852101 
L 589.108134 208.887364 
L 589.535311 215.836654 
L 589.962488 203.142414 
L 590.389665 220.966824 
L 590.816842 200.96198 
L 591.244019 199.895542 
L 591.671196 217.136786 
L 592.098373 224.938355 
L 592.52555 203.047125 
L 592.952727 229.804139 
L 593.379904 197.486943 
L 594.234258 194.487982 
L 594.661435 204.66982 
L 595.088612 181.421825 
L 595.515789 200.048165 
L 595.942967 207.006107 
L 596.370144 199.692304 
L 596.797321 207.106048 
L 597.224498 205.783309 
L 597.651675 189.271336 
L 598.078852 189.354366 
L 598.506029 193.749629 
L 598.933206 188.9591 
L 599.360383 186.75662 
L 599.78756 186.716295 
L 600.214737 164.118361 
L 600.641914 186.467809 
L 601.069091 171.900217 
L 601.496268 180.753528 
L 601.923445 186.492807 
L 602.350622 183.695295 
L 602.777799 171.047472 
L 603.204976 176.898126 
L 603.632153 167.992447 
L 604.05933 164.653806 
L 604.486507 159.190405 
L 604.913684 175.580341 
L 605.340861 149.982329 
L 605.768038 181.813995 
L 606.195215 180.56112 
L 606.622392 148.269102 
L 607.049569 145.938305 
L 607.476746 169.015127 
L 607.903923 151.086711 
L 608.3311 168.48063 
L 608.758278 137.781363 
L 609.185455 152.259266 
L 610.039809 154.478525 
L 610.466986 162.768602 
L 610.894163 140.792121 
L 611.32134 148.613099 
L 611.748517 142.927859 
L 612.175694 155.535799 
L 612.602871 151.094773 
L 613.030048 143.846376 
L 613.457225 163.583193 
L 613.884402 155.103672 
L 614.311579 151.526614 
L 614.738756 139.226975 
L 615.165933 154.419176 
L 615.59311 155.753044 
L 616.020287 140.467497 
L 616.447464 152.431253 
L 616.874641 134.574602 
L 617.301818 162.14506 
L 617.728995 149.057164 
L 618.156172 153.653166 
L 618.583349 151.13417 
L 619.010526 138.994696 
L 619.437703 139.603152 
L 620.292057 166.85857 
L 620.719234 156.30057 
L 621.146411 135.689346 
L 621.573589 150.163236 
L 622.000766 159.698278 
L 623.282297 134.751166 
L 624.136651 165.511866 
L 624.563828 133.478958 
L 624.991005 156.746989 
L 625.418182 144.373391 
L 625.845359 146.737035 
L 626.272536 181.745706 
L 626.699713 145.688522 
L 627.12689 164.645898 
L 627.554067 173.260891 
L 627.981244 165.271853 
L 628.408421 166.470117 
L 628.835598 168.30691 
L 629.262775 171.343235 
L 629.689952 155.902919 
L 630.117129 161.949244 
L 630.544306 170.259725 
L 630.971483 180.831945 
L 631.39866 163.587848 
L 631.825837 170.444291 
L 632.253014 182.889208 
L 632.680191 184.831184 
L 633.107368 183.506637 
L 633.534545 183.760326 
L 634.3889 175.420166 
L 634.816077 183.220841 
L 635.243254 203.537594 
L 635.670431 183.869244 
L 636.097608 177.227161 
L 636.524785 202.598912 
L 636.951962 209.349682 
L 637.379139 182.996735 
L 637.806316 195.69123 
L 638.233493 187.287536 
L 638.66067 195.560016 
L 639.087847 176.1136 
L 639.942201 188.129724 
L 640.369378 186.693427 
L 640.796555 185.843989 
L 641.223732 184.346648 
L 641.650909 205.460961 
L 642.078086 180.111666 
L 642.505263 210.698855 
L 642.93244 218.156459 
L 643.359617 198.240912 
L 643.786794 189.852243 
L 644.213971 192.037806 
L 644.641148 189.920981 
L 645.068325 194.491308 
L 645.495502 201.287987 
L 645.922679 193.302215 
L 646.349856 175.973324 
L 646.777033 196.513777 
L 647.204211 188.083861 
L 647.631388 187.437116 
L 648.058565 179.28893 
L 648.485742 201.967784 
L 649.340096 186.206136 
L 649.767273 192.426005 
L 650.19445 185.296754 
L 650.621627 188.634197 
L 651.475981 200.208665 
L 651.903158 174.248625 
L 652.330335 180.218377 
L 652.757512 172.310863 
L 653.184689 202.03953 
L 653.611866 166.528302 
L 654.46622 179.066871 
L 654.893397 167.549133 
L 655.320574 168.674867 
L 655.747751 163.600276 
L 656.174928 163.102942 
L 656.602105 165.242988 
L 657.029282 163.914255 
L 657.456459 169.9357 
L 657.883636 157.598653 
L 658.310813 166.054169 
L 658.73799 145.77149 
L 659.165167 156.409184 
L 659.592344 141.288314 
L 660.019522 157.904198 
L 660.446699 154.86772 
L 660.873876 142.735741 
L 661.301053 138.272211 
L 661.72823 159.753032 
L 662.155407 138.286828 
L 662.582584 134.222369 
L 663.009761 148.39526 
L 663.436938 135.409275 
L 663.864115 147.791056 
L 664.291292 145.258545 
L 664.718469 140.408465 
L 665.145646 144.453257 
L 665.572823 121.25863 
L 666 135.510168 
L 666.427177 138.280938 
L 666.854354 149.534898 
L 667.281531 131.288163 
L 667.708708 138.905759 
L 668.135885 134.360595 
L 668.563062 132.955991 
L 668.990239 145.599942 
L 669.417416 123.240362 
L 669.844593 125.186056 
L 670.27177 122.599238 
L 671.126124 144.687255 
L 671.553301 105.711771 
L 671.980478 110.813888 
L 672.407656 129.502518 
L 672.834833 139.305648 
L 673.26201 126.457659 
L 673.689187 124.981876 
L 674.116364 145.589565 
L 674.543541 127.529616 
L 674.970718 123.981337 
L 675.397895 107.895193 
L 675.825072 136.506756 
L 676.252249 101.196444 
L 677.106603 127.10976 
L 677.53378 130.783686 
L 678.388134 115.32602 
L 678.815311 114.341392 
L 679.669665 138.376045 
L 680.096842 120.117832 
L 680.524019 121.572681 
L 680.951196 139.114757 
L 681.378373 144.792586 
L 681.80555 136.41302 
L 682.232727 132.590579 
L 682.659904 139.567299 
L 683.087081 148.935502 
L 683.514258 148.097672 
L 683.941435 132.371252 
L 684.368612 134.94135 
L 684.795789 139.687685 
L 685.222967 150.989459 
L 685.650144 147.186435 
L 686.077321 158.24934 
L 686.504498 139.022689 
L 686.931675 167.528358 
L 687.358852 153.149508 
L 687.786029 154.3863 
L 688.213206 159.690739 
L 688.640383 129.515786 
L 689.06756 133.300441 
L 689.494737 162.195931 
L 689.921914 153.691934 
L 690.349091 156.069885 
L 690.776268 156.061543 
L 691.203445 156.787504 
L 692.057799 185.939868 
L 692.484976 169.608229 
L 692.912153 159.313301 
L 693.33933 172.989427 
L 693.766507 164.771276 
L 694.193684 176.925288 
L 694.620861 167.627623 
L 695.048038 165.827962 
L 695.475215 170.718886 
L 695.902392 182.690857 
L 696.329569 160.999024 
L 697.183923 186.99409 
L 697.6111 181.449703 
L 698.038278 173.986094 
L 698.892632 194.219108 
L 699.746986 177.185253 
L 700.174163 175.480477 
L 700.60134 161.334961 
L 701.028517 183.187876 
L 701.455694 185.279357 
L 701.882871 183.146852 
L 702.310048 165.987262 
L 702.737225 184.44776 
L 703.164402 176.643131 
L 703.591579 153.784259 
L 704.018756 187.384784 
L 704.87311 177.884852 
L 705.300287 188.907232 
L 705.727464 169.878754 
L 706.154641 192.156338 
L 706.581818 174.244787 
L 707.008995 178.222378 
L 707.436172 175.657706 
L 707.863349 155.95053 
L 708.290526 159.248722 
L 708.717703 147.304785 
L 709.572057 161.262725 
L 709.999234 167.967239 
L 710.426411 157.980775 
L 710.853589 156.019717 
L 711.280766 160.464035 
L 711.707943 171.191116 
L 712.13512 147.305077 
L 712.562297 161.535662 
L 712.989474 164.529272 
L 713.416651 149.825555 
L 713.843828 152.87493 
L 714.271005 137.48697 
L 714.698182 149.826066 
L 715.125359 132.66199 
L 715.552536 139.474403 
L 715.979713 138.798536 
L 716.40689 141.542242 
L 716.834067 125.589117 
L 717.261244 140.723201 
L 717.688421 141.246261 
L 718.115598 130.865777 
L 718.542775 129.411091 
L 718.969952 109.683014 
L 719.397129 129.005964 
L 719.824306 118.811173 
L 720.251483 125.94499 
L 720.67866 108.532013 
L 721.105837 116.941944 
L 721.533014 114.750931 
L 721.960191 117.108321 
L 722.387368 127.986736 
L 722.814545 123.65357 
L 723.241722 110.638434 
L 723.6689 125.614563 
L 724.096077 101.579359 
L 724.523254 126.074254 
L 724.950431 123.985843 
L 725.377608 122.633385 
L 726.231962 98.242889 
L 726.659139 124.379545 
L 727.086316 111.952577 
L 727.513493 106.449936 
L 727.94067 122.667086 
L 728.367847 108.701471 
L 728.795024 107.629832 
L 729.222201 94.712879 
L 729.649378 98.147347 
L 730.076555 117.909587 
L 730.503732 115.996622 
L 730.930909 111.903665 
L 731.358086 125.671197 
L 731.785263 116.111004 
L 732.21244 96.193063 
L 732.639617 108.60049 
L 733.066794 97.035194 
L 733.493971 96.861013 
L 733.921148 112.945158 
L 734.348325 110.316427 
L 734.775502 86.806211 
L 735.202679 110.135659 
L 735.629856 104.955429 
L 736.057033 96.199053 
L 736.484211 109.726457 
L 736.911388 107.714444 
L 737.338565 122.560333 
L 737.765742 90.523206 
L 738.192919 119.522845 
L 738.620096 124.569214 
L 739.047273 119.366174 
L 739.47445 96.829564 
L 739.901627 133.631387 
L 740.328804 118.854297 
L 740.755981 130.341932 
L 741.183158 129.422806 
L 741.610335 119.882694 
L 742.037512 116.527093 
L 742.464689 105.651026 
L 742.891866 127.80145 
L 743.319043 120.626061 
L 743.74622 154.34154 
L 744.173397 126.127296 
L 744.600574 112.160283 
L 745.027751 124.996017 
L 745.027751 124.996017 
" style="fill:none;stroke:#1f77b4;stroke-linecap:square;stroke-width:1.5;"/>
   </g>
   <g id="line2d_17">
    <path clip-path="url(#p9f1feb7a47)" d="M 747.163636 384.48 
L 747.163636 51.84 
" style="fill:none;stroke:#808080;stroke-linecap:square;"/>
   </g>
   <g id="patch_40">
    <path d="M 108 384.48 
L 108 51.84 
" style="fill:none;stroke:#000000;stroke-linecap:square;stroke-linejoin:miter;stroke-width:0.8;"/>
   </g>
   <g id="patch_41">
    <path d="M 777.6 384.48 
L 777.6 51.84 
" style="fill:none;stroke:#000000;stroke-linecap:square;stroke-linejoin:miter;stroke-width:0.8;"/>
   </g>
   <g id="patch_42">
    <path d="M 108 384.48 
L 777.6 384.48 
" style="fill:none;stroke:#000000;stroke-linecap:square;stroke-linejoin:miter;stroke-width:0.8;"/>
   </g>
   <g id="patch_43">
    <path d="M 108 51.84 
L 777.6 51.84 
" style="fill:none;stroke:#000000;stroke-linecap:square;stroke-linejoin:miter;stroke-width:0.8;"/>
   </g>
   <g id="text_18">
    <!-- synthetic_46.csv -->
    <defs>
     <path d="M 32.171875 -5.078125 
Q 28.375 -14.84375 24.75 -17.8125 
Q 21.140625 -20.796875 15.09375 -20.796875 
L 7.90625 -20.796875 
L 7.90625 -13.28125 
L 13.1875 -13.28125 
Q 16.890625 -13.28125 18.9375 -11.515625 
Q 21 -9.765625 23.484375 -3.21875 
L 25.09375 0.875 
L 2.984375 54.6875 
L 12.5 54.6875 
L 29.59375 11.921875 
L 46.6875 54.6875 
L 56.203125 54.6875 
z
" id="DejaVuSans-121"/>
     <path d="M 54.890625 33.015625 
L 54.890625 0 
L 45.90625 0 
L 45.90625 32.71875 
Q 45.90625 40.484375 42.875 44.328125 
Q 39.84375 48.1875 33.796875 48.1875 
Q 26.515625 48.1875 22.3125 43.546875 
Q 18.109375 38.921875 18.109375 30.90625 
L 18.109375 0 
L 9.078125 0 
L 9.078125 54.6875 
L 18.109375 54.6875 
L 18.109375 46.1875 
Q 21.34375 51.125 25.703125 53.5625 
Q 30.078125 56 35.796875 56 
Q 45.21875 56 50.046875 50.171875 
Q 54.890625 44.34375 54.890625 33.015625 
z
" id="DejaVuSans-110"/>
     <path d="M 54.890625 33.015625 
L 54.890625 0 
L 45.90625 0 
L 45.90625 32.71875 
Q 45.90625 40.484375 42.875 44.328125 
Q 39.84375 48.1875 33.796875 48.1875 
Q 26.515625 48.1875 22.3125 43.546875 
Q 18.109375 38.921875 18.109375 30.90625 
L 18.109375 0 
L 9.078125 0 
L 9.078125 75.984375 
L 18.109375 75.984375 
L 18.109375 46.1875 
Q 21.34375 51.125 25.703125 53.5625 
Q 30.078125 56 35.796875 56 
Q 45.21875 56 50.046875 50.171875 
Q 54.890625 44.34375 54.890625 33.015625 
z
" id="DejaVuSans-104"/>
     <path d="M 48.78125 52.59375 
L 48.78125 44.1875 
Q 44.96875 46.296875 41.140625 47.34375 
Q 37.3125 48.390625 33.40625 48.390625 
Q 24.65625 48.390625 19.8125 42.84375 
Q 14.984375 37.3125 14.984375 27.296875 
Q 14.984375 17.28125 19.8125 11.734375 
Q 24.65625 6.203125 33.40625 6.203125 
Q 37.3125 6.203125 41.140625 7.25 
Q 44.96875 8.296875 48.78125 10.40625 
L 48.78125 2.09375 
Q 45.015625 0.34375 40.984375 -0.53125 
Q 36.96875 -1.421875 32.421875 -1.421875 
Q 20.0625 -1.421875 12.78125 6.34375 
Q 5.515625 14.109375 5.515625 27.296875 
Q 5.515625 40.671875 12.859375 48.328125 
Q 20.21875 56 33.015625 56 
Q 37.15625 56 41.109375 55.140625 
Q 45.0625 54.296875 48.78125 52.59375 
z
" id="DejaVuSans-99"/>
     <path d="M 50.984375 -16.609375 
L 50.984375 -23.578125 
L -0.984375 -23.578125 
L -0.984375 -16.609375 
z
" id="DejaVuSans-95"/>
     <path d="M 10.6875 12.40625 
L 21 12.40625 
L 21 0 
L 10.6875 0 
z
" id="DejaVuSans-46"/>
     <path d="M 2.984375 54.6875 
L 12.5 54.6875 
L 29.59375 8.796875 
L 46.6875 54.6875 
L 56.203125 54.6875 
L 35.6875 0 
L 23.484375 0 
z
" id="DejaVuSans-118"/>
    </defs>
    <g transform="translate(392.638125 45.84)scale(0.12 -0.12)">
     <use xlink:href="#DejaVuSans-115"/>
     <use x="52.099609" xlink:href="#DejaVuSans-121"/>
     <use x="111.279297" xlink:href="#DejaVuSans-110"/>
     <use x="174.658203" xlink:href="#DejaVuSans-116"/>
     <use x="213.867188" xlink:href="#DejaVuSans-104"/>
     <use x="277.246094" xlink:href="#DejaVuSans-101"/>
     <use x="338.769531" xlink:href="#DejaVuSans-116"/>
     <use x="377.978516" xlink:href="#DejaVuSans-105"/>
     <use x="405.761719" xlink:href="#DejaVuSans-99"/>
     <use x="460.742188" xlink:href="#DejaVuSans-95"/>
     <use x="510.742188" xlink:href="#DejaVuSans-52"/>
     <use x="574.365234" xlink:href="#DejaVuSans-54"/>
     <use x="637.988281" xlink:href="#DejaVuSans-46"/>
     <use x="669.775391" xlink:href="#DejaVuSans-99"/>
     <use x="724.755859" xlink:href="#DejaVuSans-115"/>
     <use x="776.855469" xlink:href="#DejaVuSans-118"/>
    </g>
   </g>
   <g id="legend_1">
    <g id="patch_44">
     <path d="M 115 74.518125 
L 174.315625 74.518125 
Q 176.315625 74.518125 176.315625 72.518125 
L 176.315625 58.84 
Q 176.315625 56.84 174.315625 56.84 
L 115 56.84 
Q 113 56.84 113 58.84 
L 113 72.518125 
Q 113 74.518125 115 74.518125 
z
" style="fill:#ffffff;opacity:0.8;stroke:#cccccc;stroke-linejoin:miter;"/>
    </g>
    <g id="line2d_18">
     <path d="M 117 64.938438 
L 137 64.938438 
" style="fill:none;stroke:#1f77b4;stroke-linecap:square;stroke-width:1.5;"/>
    </g>
    <g id="line2d_19"/>
    <g id="text_19">
     <!-- value -->
     <g transform="translate(145 68.438438)scale(0.1 -0.1)">
      <use xlink:href="#DejaVuSans-118"/>
      <use x="59.179688" xlink:href="#DejaVuSans-97"/>
      <use x="120.458984" xlink:href="#DejaVuSans-108"/>
      <use x="148.242188" xlink:href="#DejaVuSans-117"/>
      <use x="211.621094" xlink:href="#DejaVuSans-101"/>
     </g>
    </g>
   </g>
  </g>
 </g>
 <defs>
  <clipPath id="p9f1feb7a47">
   <rect height="332.64" width="669.6" x="108" y="51.84"/>
  </clipPath>
 </defs>
</svg>
