<?xml version="1.0" encoding="utf-8" standalone="no"?>
<!DOCTYPE svg PUBLIC "-//W3C//DTD SVG 1.1//EN"
  "http://www.w3.org/Graphics/SVG/1.1/DTD/svg11.dtd">
<!-- Created with matplotlib (https://matplotlib.org/) -->
<svg height="432pt" version="1.1" viewBox="0 0 864 432" width="864pt" xmlns="http://www.w3.org/2000/svg" xmlns:xlink="http://www.w3.org/1999/xlink">
 <defs>
  <style type="text/css">
*{stroke-linecap:butt;stroke-linejoin:round;}
  </style>
 </defs>
 <g id="figure_1">
  <g id="patch_1">
   <path d="M 0 432 
L 864 432 
L 864 0 
L 0 0 
z
" style="fill:#ffffff;"/>
  </g>
  <g id="axes_1">
   <g id="patch_2">
    <path d="M 108 384.48 
L 777.6 384.48 
L 777.6 51.84 
L 108 51.84 
z
" style="fill:#ffffff;"/>
   </g>
   <g id="patch_3">
    <path clip-path="url(#p166401fa01)" d="M 138.436364 384.48 
L 138.436364 51.84 
L 373.383732 51.84 
L 373.383732 384.48 
z
" style="fill:#0000ff;opacity:0.05;"/>
   </g>
   <g id="patch_4">
    <path clip-path="url(#p166401fa01)" d="M 373.383732 384.48 
L 373.383732 51.84 
L 747.163636 51.84 
L 747.163636 384.48 
z
" style="fill:#ff0000;opacity:0.08;"/>
   </g>
   <g id="patch_5">
    <path clip-path="url(#p166401fa01)" d="M 138.436364 384.48 
L 138.436364 51.84 
L 149.115789 51.84 
L 149.115789 384.48 
z
" style="fill:#008000;opacity:0.04;"/>
   </g>
   <g id="patch_6">
    <path clip-path="url(#p166401fa01)" d="M 159.795215 384.48 
L 159.795215 51.84 
L 170.474641 51.84 
L 170.474641 384.48 
z
" style="fill:#008000;opacity:0.04;"/>
   </g>
   <g id="patch_7">
    <path clip-path="url(#p166401fa01)" d="M 170.474641 384.48 
L 170.474641 371.1744 
L 181.154067 371.1744 
L 181.154067 384.48 
z
" style="fill:#ffe500;"/>
   </g>
   <g id="patch_8">
    <path clip-path="url(#p166401fa01)" d="M 181.154067 384.48 
L 181.154067 51.84 
L 191.833493 51.84 
L 191.833493 384.48 
z
" style="fill:#008000;opacity:0.04;"/>
   </g>
   <g id="patch_9">
    <path clip-path="url(#p166401fa01)" d="M 416.101435 384.48 
L 416.101435 371.1744 
L 426.780861 371.1744 
L 426.780861 384.48 
z
" style="fill:#ff6600;"/>
   </g>
   <g id="patch_10">
    <path clip-path="url(#p166401fa01)" d="M 202.512919 384.48 
L 202.512919 51.84 
L 213.192344 51.84 
L 213.192344 384.48 
z
" style="fill:#008000;opacity:0.04;"/>
   </g>
   <g id="patch_11">
    <path clip-path="url(#p166401fa01)" d="M 223.87177 384.48 
L 223.87177 51.84 
L 234.551196 51.84 
L 234.551196 384.48 
z
" style="fill:#008000;opacity:0.04;"/>
   </g>
   <g id="patch_12">
    <path clip-path="url(#p166401fa01)" d="M 245.230622 384.48 
L 245.230622 51.84 
L 255.910048 51.84 
L 255.910048 384.48 
z
" style="fill:#008000;opacity:0.04;"/>
   </g>
   <g id="patch_13">
    <path clip-path="url(#p166401fa01)" d="M 266.589474 384.48 
L 266.589474 51.84 
L 277.2689 51.84 
L 277.2689 384.48 
z
" style="fill:#008000;opacity:0.04;"/>
   </g>
   <g id="patch_14">
    <path clip-path="url(#p166401fa01)" d="M 277.2689 384.48 
L 277.2689 371.1744 
L 287.948325 371.1744 
L 287.948325 384.48 
z
" style="fill:#ffe500;"/>
   </g>
   <g id="patch_15">
    <path clip-path="url(#p166401fa01)" d="M 512.216268 384.48 
L 512.216268 371.1744 
L 522.895694 371.1744 
L 522.895694 384.48 
z
" style="fill:#ff6600;"/>
   </g>
   <g id="patch_16">
    <path clip-path="url(#p166401fa01)" d="M 287.948325 384.48 
L 287.948325 51.84 
L 298.627751 51.84 
L 298.627751 384.48 
z
" style="fill:#008000;opacity:0.04;"/>
   </g>
   <g id="patch_17">
    <path clip-path="url(#p166401fa01)" d="M 309.307177 384.48 
L 309.307177 51.84 
L 319.986603 51.84 
L 319.986603 384.48 
z
" style="fill:#008000;opacity:0.04;"/>
   </g>
   <g id="patch_18">
    <path clip-path="url(#p166401fa01)" d="M 330.666029 384.48 
L 330.666029 51.84 
L 341.345455 51.84 
L 341.345455 384.48 
z
" style="fill:#008000;opacity:0.04;"/>
   </g>
   <g id="patch_19">
    <path clip-path="url(#p166401fa01)" d="M 352.02488 384.48 
L 352.02488 51.84 
L 362.704306 51.84 
L 362.704306 384.48 
z
" style="fill:#008000;opacity:0.04;"/>
   </g>
   <g id="patch_20">
    <path clip-path="url(#p166401fa01)" d="M 373.383732 384.48 
L 373.383732 51.84 
L 384.063158 51.84 
L 384.063158 384.48 
z
" style="fill:#008000;opacity:0.04;"/>
   </g>
   <g id="patch_21">
    <path clip-path="url(#p166401fa01)" d="M 394.742584 384.48 
L 394.742584 51.84 
L 405.42201 51.84 
L 405.42201 384.48 
z
" style="fill:#008000;opacity:0.04;"/>
   </g>
   <g id="patch_22">
    <path clip-path="url(#p166401fa01)" d="M 416.101435 384.48 
L 416.101435 51.84 
L 426.780861 51.84 
L 426.780861 384.48 
z
" style="fill:#008000;opacity:0.04;"/>
   </g>
   <g id="patch_23">
    <path clip-path="url(#p166401fa01)" d="M 416.101435 371.1744 
L 416.101435 51.84 
L 426.780861 51.84 
L 426.780861 371.1744 
z
" style="fill:#008000;opacity:0.5;"/>
   </g>
   <g id="patch_24">
    <path clip-path="url(#p166401fa01)" d="M 437.460287 384.48 
L 437.460287 51.84 
L 448.139713 51.84 
L 448.139713 384.48 
z
" style="fill:#008000;opacity:0.04;"/>
   </g>
   <g id="patch_25">
    <path clip-path="url(#p166401fa01)" d="M 458.819139 384.48 
L 458.819139 51.84 
L 469.498565 51.84 
L 469.498565 384.48 
z
" style="fill:#008000;opacity:0.04;"/>
   </g>
   <g id="patch_26">
    <path clip-path="url(#p166401fa01)" d="M 480.17799 384.48 
L 480.17799 51.84 
L 490.857416 51.84 
L 490.857416 384.48 
z
" style="fill:#008000;opacity:0.04;"/>
   </g>
   <g id="patch_27">
    <path clip-path="url(#p166401fa01)" d="M 501.536842 384.48 
L 501.536842 51.84 
L 512.216268 51.84 
L 512.216268 384.48 
z
" style="fill:#008000;opacity:0.04;"/>
   </g>
   <g id="patch_28">
    <path clip-path="url(#p166401fa01)" d="M 512.216268 371.1744 
L 512.216268 51.84 
L 522.895694 51.84 
L 522.895694 371.1744 
z
" style="fill:#008000;opacity:0.5;"/>
   </g>
   <g id="patch_29">
    <path clip-path="url(#p166401fa01)" d="M 522.895694 384.48 
L 522.895694 51.84 
L 533.57512 51.84 
L 533.57512 384.48 
z
" style="fill:#008000;opacity:0.04;"/>
   </g>
   <g id="patch_30">
    <path clip-path="url(#p166401fa01)" d="M 544.254545 384.48 
L 544.254545 51.84 
L 554.933971 51.84 
L 554.933971 384.48 
z
" style="fill:#008000;opacity:0.04;"/>
   </g>
   <g id="patch_31">
    <path clip-path="url(#p166401fa01)" d="M 565.613397 384.48 
L 565.613397 51.84 
L 576.292823 51.84 
L 576.292823 384.48 
z
" style="fill:#008000;opacity:0.04;"/>
   </g>
   <g id="patch_32">
    <path clip-path="url(#p166401fa01)" d="M 586.972249 384.48 
L 586.972249 51.84 
L 597.651675 51.84 
L 597.651675 384.48 
z
" style="fill:#008000;opacity:0.04;"/>
   </g>
   <g id="patch_33">
    <path clip-path="url(#p166401fa01)" d="M 608.3311 384.48 
L 608.3311 51.84 
L 619.010526 51.84 
L 619.010526 384.48 
z
" style="fill:#008000;opacity:0.04;"/>
   </g>
   <g id="patch_34">
    <path clip-path="url(#p166401fa01)" d="M 629.689952 384.48 
L 629.689952 51.84 
L 640.369378 51.84 
L 640.369378 384.48 
z
" style="fill:#008000;opacity:0.04;"/>
   </g>
   <g id="patch_35">
    <path clip-path="url(#p166401fa01)" d="M 651.048804 384.48 
L 651.048804 51.84 
L 661.72823 51.84 
L 661.72823 384.48 
z
" style="fill:#008000;opacity:0.04;"/>
   </g>
   <g id="patch_36">
    <path clip-path="url(#p166401fa01)" d="M 672.407656 384.48 
L 672.407656 51.84 
L 683.087081 51.84 
L 683.087081 384.48 
z
" style="fill:#008000;opacity:0.04;"/>
   </g>
   <g id="patch_37">
    <path clip-path="url(#p166401fa01)" d="M 693.766507 384.48 
L 693.766507 51.84 
L 704.445933 51.84 
L 704.445933 384.48 
z
" style="fill:#008000;opacity:0.04;"/>
   </g>
   <g id="patch_38">
    <path clip-path="url(#p166401fa01)" d="M 715.125359 384.48 
L 715.125359 51.84 
L 725.804785 51.84 
L 725.804785 384.48 
z
" style="fill:#008000;opacity:0.04;"/>
   </g>
   <g id="patch_39">
    <path clip-path="url(#p166401fa01)" d="M 736.484211 384.48 
L 736.484211 51.84 
L 747.163636 51.84 
L 747.163636 384.48 
z
" style="fill:#008000;opacity:0.04;"/>
   </g>
   <g id="matplotlib.axis_1">
    <g id="xtick_1">
     <g id="line2d_1">
      <defs>
       <path d="M 0 0 
L 0 3.5 
" id="m68443f08e0" style="stroke:#000000;stroke-width:0.8;"/>
      </defs>
      <g>
       <use style="stroke:#000000;stroke-width:0.8;" x="138.436364" xlink:href="#m68443f08e0" y="384.48"/>
      </g>
     </g>
     <g id="text_1">
      <!-- 0 -->
      <defs>
       <path d="M 31.78125 66.40625 
Q 24.171875 66.40625 20.328125 58.90625 
Q 16.5 51.421875 16.5 36.375 
Q 16.5 21.390625 20.328125 13.890625 
Q 24.171875 6.390625 31.78125 6.390625 
Q 39.453125 6.390625 43.28125 13.890625 
Q 47.125 21.390625 47.125 36.375 
Q 47.125 51.421875 43.28125 58.90625 
Q 39.453125 66.40625 31.78125 66.40625 
z
M 31.78125 74.21875 
Q 44.046875 74.21875 50.515625 64.515625 
Q 56.984375 54.828125 56.984375 36.375 
Q 56.984375 17.96875 50.515625 8.265625 
Q 44.046875 -1.421875 31.78125 -1.421875 
Q 19.53125 -1.421875 13.0625 8.265625 
Q 6.59375 17.96875 6.59375 36.375 
Q 6.59375 54.828125 13.0625 64.515625 
Q 19.53125 74.21875 31.78125 74.21875 
z
" id="DejaVuSans-48"/>
      </defs>
      <g transform="translate(135.255114 399.078438)scale(0.1 -0.1)">
       <use xlink:href="#DejaVuSans-48"/>
      </g>
     </g>
    </g>
    <g id="xtick_2">
     <g id="line2d_2">
      <g>
       <use style="stroke:#000000;stroke-width:0.8;" x="223.87177" xlink:href="#m68443f08e0" y="384.48"/>
      </g>
     </g>
     <g id="text_2">
      <!-- 200 -->
      <defs>
       <path d="M 19.1875 8.296875 
L 53.609375 8.296875 
L 53.609375 0 
L 7.328125 0 
L 7.328125 8.296875 
Q 12.9375 14.109375 22.625 23.890625 
Q 32.328125 33.6875 34.8125 36.53125 
Q 39.546875 41.84375 41.421875 45.53125 
Q 43.3125 49.21875 43.3125 52.78125 
Q 43.3125 58.59375 39.234375 62.25 
Q 35.15625 65.921875 28.609375 65.921875 
Q 23.96875 65.921875 18.8125 64.3125 
Q 13.671875 62.703125 7.8125 59.421875 
L 7.8125 69.390625 
Q 13.765625 71.78125 18.9375 73 
Q 24.125 74.21875 28.421875 74.21875 
Q 39.75 74.21875 46.484375 68.546875 
Q 53.21875 62.890625 53.21875 53.421875 
Q 53.21875 48.921875 51.53125 44.890625 
Q 49.859375 40.875 45.40625 35.40625 
Q 44.1875 33.984375 37.640625 27.21875 
Q 31.109375 20.453125 19.1875 8.296875 
z
" id="DejaVuSans-50"/>
      </defs>
      <g transform="translate(214.32802 399.078438)scale(0.1 -0.1)">
       <use xlink:href="#DejaVuSans-50"/>
       <use x="63.623047" xlink:href="#DejaVuSans-48"/>
       <use x="127.246094" xlink:href="#DejaVuSans-48"/>
      </g>
     </g>
    </g>
    <g id="xtick_3">
     <g id="line2d_3">
      <g>
       <use style="stroke:#000000;stroke-width:0.8;" x="309.307177" xlink:href="#m68443f08e0" y="384.48"/>
      </g>
     </g>
     <g id="text_3">
      <!-- 400 -->
      <defs>
       <path d="M 37.796875 64.3125 
L 12.890625 25.390625 
L 37.796875 25.390625 
z
M 35.203125 72.90625 
L 47.609375 72.90625 
L 47.609375 25.390625 
L 58.015625 25.390625 
L 58.015625 17.1875 
L 47.609375 17.1875 
L 47.609375 0 
L 37.796875 0 
L 37.796875 17.1875 
L 4.890625 17.1875 
L 4.890625 26.703125 
z
" id="DejaVuSans-52"/>
      </defs>
      <g transform="translate(299.763427 399.078438)scale(0.1 -0.1)">
       <use xlink:href="#DejaVuSans-52"/>
       <use x="63.623047" xlink:href="#DejaVuSans-48"/>
       <use x="127.246094" xlink:href="#DejaVuSans-48"/>
      </g>
     </g>
    </g>
    <g id="xtick_4">
     <g id="line2d_4">
      <g>
       <use style="stroke:#000000;stroke-width:0.8;" x="394.742584" xlink:href="#m68443f08e0" y="384.48"/>
      </g>
     </g>
     <g id="text_4">
      <!-- 600 -->
      <defs>
       <path d="M 33.015625 40.375 
Q 26.375 40.375 22.484375 35.828125 
Q 18.609375 31.296875 18.609375 23.390625 
Q 18.609375 15.53125 22.484375 10.953125 
Q 26.375 6.390625 33.015625 6.390625 
Q 39.65625 6.390625 43.53125 10.953125 
Q 47.40625 15.53125 47.40625 23.390625 
Q 47.40625 31.296875 43.53125 35.828125 
Q 39.65625 40.375 33.015625 40.375 
z
M 52.59375 71.296875 
L 52.59375 62.3125 
Q 48.875 64.0625 45.09375 64.984375 
Q 41.3125 65.921875 37.59375 65.921875 
Q 27.828125 65.921875 22.671875 59.328125 
Q 17.53125 52.734375 16.796875 39.40625 
Q 19.671875 43.65625 24.015625 45.921875 
Q 28.375 48.1875 33.59375 48.1875 
Q 44.578125 48.1875 50.953125 41.515625 
Q 57.328125 34.859375 57.328125 23.390625 
Q 57.328125 12.15625 50.6875 5.359375 
Q 44.046875 -1.421875 33.015625 -1.421875 
Q 20.359375 -1.421875 13.671875 8.265625 
Q 6.984375 17.96875 6.984375 36.375 
Q 6.984375 53.65625 15.1875 63.9375 
Q 23.390625 74.21875 37.203125 74.21875 
Q 40.921875 74.21875 44.703125 73.484375 
Q 48.484375 72.75 52.59375 71.296875 
z
" id="DejaVuSans-54"/>
      </defs>
      <g transform="translate(385.198834 399.078438)scale(0.1 -0.1)">
       <use xlink:href="#DejaVuSans-54"/>
       <use x="63.623047" xlink:href="#DejaVuSans-48"/>
       <use x="127.246094" xlink:href="#DejaVuSans-48"/>
      </g>
     </g>
    </g>
    <g id="xtick_5">
     <g id="line2d_5">
      <g>
       <use style="stroke:#000000;stroke-width:0.8;" x="480.17799" xlink:href="#m68443f08e0" y="384.48"/>
      </g>
     </g>
     <g id="text_5">
      <!-- 800 -->
      <defs>
       <path d="M 31.78125 34.625 
Q 24.75 34.625 20.71875 30.859375 
Q 16.703125 27.09375 16.703125 20.515625 
Q 16.703125 13.921875 20.71875 10.15625 
Q 24.75 6.390625 31.78125 6.390625 
Q 38.8125 6.390625 42.859375 10.171875 
Q 46.921875 13.96875 46.921875 20.515625 
Q 46.921875 27.09375 42.890625 30.859375 
Q 38.875 34.625 31.78125 34.625 
z
M 21.921875 38.8125 
Q 15.578125 40.375 12.03125 44.71875 
Q 8.5 49.078125 8.5 55.328125 
Q 8.5 64.0625 14.71875 69.140625 
Q 20.953125 74.21875 31.78125 74.21875 
Q 42.671875 74.21875 48.875 69.140625 
Q 55.078125 64.0625 55.078125 55.328125 
Q 55.078125 49.078125 51.53125 44.71875 
Q 48 40.375 41.703125 38.8125 
Q 48.828125 37.15625 52.796875 32.3125 
Q 56.78125 27.484375 56.78125 20.515625 
Q 56.78125 9.90625 50.3125 4.234375 
Q 43.84375 -1.421875 31.78125 -1.421875 
Q 19.734375 -1.421875 13.25 4.234375 
Q 6.78125 9.90625 6.78125 20.515625 
Q 6.78125 27.484375 10.78125 32.3125 
Q 14.796875 37.15625 21.921875 38.8125 
z
M 18.3125 54.390625 
Q 18.3125 48.734375 21.84375 45.5625 
Q 25.390625 42.390625 31.78125 42.390625 
Q 38.140625 42.390625 41.71875 45.5625 
Q 45.3125 48.734375 45.3125 54.390625 
Q 45.3125 60.0625 41.71875 63.234375 
Q 38.140625 66.40625 31.78125 66.40625 
Q 25.390625 66.40625 21.84375 63.234375 
Q 18.3125 60.0625 18.3125 54.390625 
z
" id="DejaVuSans-56"/>
      </defs>
      <g transform="translate(470.63424 399.078438)scale(0.1 -0.1)">
       <use xlink:href="#DejaVuSans-56"/>
       <use x="63.623047" xlink:href="#DejaVuSans-48"/>
       <use x="127.246094" xlink:href="#DejaVuSans-48"/>
      </g>
     </g>
    </g>
    <g id="xtick_6">
     <g id="line2d_6">
      <g>
       <use style="stroke:#000000;stroke-width:0.8;" x="565.613397" xlink:href="#m68443f08e0" y="384.48"/>
      </g>
     </g>
     <g id="text_6">
      <!-- 1000 -->
      <defs>
       <path d="M 12.40625 8.296875 
L 28.515625 8.296875 
L 28.515625 63.921875 
L 10.984375 60.40625 
L 10.984375 69.390625 
L 28.421875 72.90625 
L 38.28125 72.90625 
L 38.28125 8.296875 
L 54.390625 8.296875 
L 54.390625 0 
L 12.40625 0 
z
" id="DejaVuSans-49"/>
      </defs>
      <g transform="translate(552.888397 399.078438)scale(0.1 -0.1)">
       <use xlink:href="#DejaVuSans-49"/>
       <use x="63.623047" xlink:href="#DejaVuSans-48"/>
       <use x="127.246094" xlink:href="#DejaVuSans-48"/>
       <use x="190.869141" xlink:href="#DejaVuSans-48"/>
      </g>
     </g>
    </g>
    <g id="xtick_7">
     <g id="line2d_7">
      <g>
       <use style="stroke:#000000;stroke-width:0.8;" x="651.048804" xlink:href="#m68443f08e0" y="384.48"/>
      </g>
     </g>
     <g id="text_7">
      <!-- 1200 -->
      <g transform="translate(638.323804 399.078438)scale(0.1 -0.1)">
       <use xlink:href="#DejaVuSans-49"/>
       <use x="63.623047" xlink:href="#DejaVuSans-50"/>
       <use x="127.246094" xlink:href="#DejaVuSans-48"/>
       <use x="190.869141" xlink:href="#DejaVuSans-48"/>
      </g>
     </g>
    </g>
    <g id="xtick_8">
     <g id="line2d_8">
      <g>
       <use style="stroke:#000000;stroke-width:0.8;" x="736.484211" xlink:href="#m68443f08e0" y="384.48"/>
      </g>
     </g>
     <g id="text_8">
      <!-- 1400 -->
      <g transform="translate(723.759211 399.078438)scale(0.1 -0.1)">
       <use xlink:href="#DejaVuSans-49"/>
       <use x="63.623047" xlink:href="#DejaVuSans-52"/>
       <use x="127.246094" xlink:href="#DejaVuSans-48"/>
       <use x="190.869141" xlink:href="#DejaVuSans-48"/>
      </g>
     </g>
    </g>
    <g id="text_9">
     <!-- Timestamp -->
     <defs>
      <path d="M -0.296875 72.90625 
L 61.375 72.90625 
L 61.375 64.59375 
L 35.5 64.59375 
L 35.5 0 
L 25.59375 0 
L 25.59375 64.59375 
L -0.296875 64.59375 
z
" id="DejaVuSans-84"/>
      <path d="M 9.421875 54.6875 
L 18.40625 54.6875 
L 18.40625 0 
L 9.421875 0 
z
M 9.421875 75.984375 
L 18.40625 75.984375 
L 18.40625 64.59375 
L 9.421875 64.59375 
z
" id="DejaVuSans-105"/>
      <path d="M 52 44.1875 
Q 55.375 50.25 60.0625 53.125 
Q 64.75 56 71.09375 56 
Q 79.640625 56 84.28125 50.015625 
Q 88.921875 44.046875 88.921875 33.015625 
L 88.921875 0 
L 79.890625 0 
L 79.890625 32.71875 
Q 79.890625 40.578125 77.09375 44.375 
Q 74.3125 48.1875 68.609375 48.1875 
Q 61.625 48.1875 57.5625 43.546875 
Q 53.515625 38.921875 53.515625 30.90625 
L 53.515625 0 
L 44.484375 0 
L 44.484375 32.71875 
Q 44.484375 40.625 41.703125 44.40625 
Q 38.921875 48.1875 33.109375 48.1875 
Q 26.21875 48.1875 22.15625 43.53125 
Q 18.109375 38.875 18.109375 30.90625 
L 18.109375 0 
L 9.078125 0 
L 9.078125 54.6875 
L 18.109375 54.6875 
L 18.109375 46.1875 
Q 21.1875 51.21875 25.484375 53.609375 
Q 29.78125 56 35.6875 56 
Q 41.65625 56 45.828125 52.96875 
Q 50 49.953125 52 44.1875 
z
" id="DejaVuSans-109"/>
      <path d="M 56.203125 29.59375 
L 56.203125 25.203125 
L 14.890625 25.203125 
Q 15.484375 15.921875 20.484375 11.0625 
Q 25.484375 6.203125 34.421875 6.203125 
Q 39.59375 6.203125 44.453125 7.46875 
Q 49.3125 8.734375 54.109375 11.28125 
L 54.109375 2.78125 
Q 49.265625 0.734375 44.1875 -0.34375 
Q 39.109375 -1.421875 33.890625 -1.421875 
Q 20.796875 -1.421875 13.15625 6.1875 
Q 5.515625 13.8125 5.515625 26.8125 
Q 5.515625 40.234375 12.765625 48.109375 
Q 20.015625 56 32.328125 56 
Q 43.359375 56 49.78125 48.890625 
Q 56.203125 41.796875 56.203125 29.59375 
z
M 47.21875 32.234375 
Q 47.125 39.59375 43.09375 43.984375 
Q 39.0625 48.390625 32.421875 48.390625 
Q 24.90625 48.390625 20.390625 44.140625 
Q 15.875 39.890625 15.1875 32.171875 
z
" id="DejaVuSans-101"/>
      <path d="M 44.28125 53.078125 
L 44.28125 44.578125 
Q 40.484375 46.53125 36.375 47.5 
Q 32.28125 48.484375 27.875 48.484375 
Q 21.1875 48.484375 17.84375 46.4375 
Q 14.5 44.390625 14.5 40.28125 
Q 14.5 37.15625 16.890625 35.375 
Q 19.28125 33.59375 26.515625 31.984375 
L 29.59375 31.296875 
Q 39.15625 29.25 43.1875 25.515625 
Q 47.21875 21.78125 47.21875 15.09375 
Q 47.21875 7.46875 41.1875 3.015625 
Q 35.15625 -1.421875 24.609375 -1.421875 
Q 20.21875 -1.421875 15.453125 -0.5625 
Q 10.6875 0.296875 5.421875 2 
L 5.421875 11.28125 
Q 10.40625 8.6875 15.234375 7.390625 
Q 20.0625 6.109375 24.8125 6.109375 
Q 31.15625 6.109375 34.5625 8.28125 
Q 37.984375 10.453125 37.984375 14.40625 
Q 37.984375 18.0625 35.515625 20.015625 
Q 33.0625 21.96875 24.703125 23.78125 
L 21.578125 24.515625 
Q 13.234375 26.265625 9.515625 29.90625 
Q 5.8125 33.546875 5.8125 39.890625 
Q 5.8125 47.609375 11.28125 51.796875 
Q 16.75 56 26.8125 56 
Q 31.78125 56 36.171875 55.265625 
Q 40.578125 54.546875 44.28125 53.078125 
z
" id="DejaVuSans-115"/>
      <path d="M 18.3125 70.21875 
L 18.3125 54.6875 
L 36.8125 54.6875 
L 36.8125 47.703125 
L 18.3125 47.703125 
L 18.3125 18.015625 
Q 18.3125 11.328125 20.140625 9.421875 
Q 21.96875 7.515625 27.59375 7.515625 
L 36.8125 7.515625 
L 36.8125 0 
L 27.59375 0 
Q 17.1875 0 13.234375 3.875 
Q 9.28125 7.765625 9.28125 18.015625 
L 9.28125 47.703125 
L 2.6875 47.703125 
L 2.6875 54.6875 
L 9.28125 54.6875 
L 9.28125 70.21875 
z
" id="DejaVuSans-116"/>
      <path d="M 34.28125 27.484375 
Q 23.390625 27.484375 19.1875 25 
Q 14.984375 22.515625 14.984375 16.5 
Q 14.984375 11.71875 18.140625 8.90625 
Q 21.296875 6.109375 26.703125 6.109375 
Q 34.1875 6.109375 38.703125 11.40625 
Q 43.21875 16.703125 43.21875 25.484375 
L 43.21875 27.484375 
z
M 52.203125 31.203125 
L 52.203125 0 
L 43.21875 0 
L 43.21875 8.296875 
Q 40.140625 3.328125 35.546875 0.953125 
Q 30.953125 -1.421875 24.3125 -1.421875 
Q 15.921875 -1.421875 10.953125 3.296875 
Q 6 8.015625 6 15.921875 
Q 6 25.140625 12.171875 29.828125 
Q 18.359375 34.515625 30.609375 34.515625 
L 43.21875 34.515625 
L 43.21875 35.40625 
Q 43.21875 41.609375 39.140625 45 
Q 35.0625 48.390625 27.6875 48.390625 
Q 23 48.390625 18.546875 47.265625 
Q 14.109375 46.140625 10.015625 43.890625 
L 10.015625 52.203125 
Q 14.9375 54.109375 19.578125 55.046875 
Q 24.21875 56 28.609375 56 
Q 40.484375 56 46.34375 49.84375 
Q 52.203125 43.703125 52.203125 31.203125 
z
" id="DejaVuSans-97"/>
      <path d="M 18.109375 8.203125 
L 18.109375 -20.796875 
L 9.078125 -20.796875 
L 9.078125 54.6875 
L 18.109375 54.6875 
L 18.109375 46.390625 
Q 20.953125 51.265625 25.265625 53.625 
Q 29.59375 56 35.59375 56 
Q 45.5625 56 51.78125 48.09375 
Q 58.015625 40.1875 58.015625 27.296875 
Q 58.015625 14.40625 51.78125 6.484375 
Q 45.5625 -1.421875 35.59375 -1.421875 
Q 29.59375 -1.421875 25.265625 0.953125 
Q 20.953125 3.328125 18.109375 8.203125 
z
M 48.6875 27.296875 
Q 48.6875 37.203125 44.609375 42.84375 
Q 40.53125 48.484375 33.40625 48.484375 
Q 26.265625 48.484375 22.1875 42.84375 
Q 18.109375 37.203125 18.109375 27.296875 
Q 18.109375 17.390625 22.1875 11.75 
Q 26.265625 6.109375 33.40625 6.109375 
Q 40.53125 6.109375 44.609375 11.75 
Q 48.6875 17.390625 48.6875 27.296875 
z
" id="DejaVuSans-112"/>
     </defs>
     <g transform="translate(414.739062 412.756563)scale(0.1 -0.1)">
      <use xlink:href="#DejaVuSans-84"/>
      <use x="61.037109" xlink:href="#DejaVuSans-105"/>
      <use x="88.820312" xlink:href="#DejaVuSans-109"/>
      <use x="186.232422" xlink:href="#DejaVuSans-101"/>
      <use x="247.755859" xlink:href="#DejaVuSans-115"/>
      <use x="299.855469" xlink:href="#DejaVuSans-116"/>
      <use x="339.064453" xlink:href="#DejaVuSans-97"/>
      <use x="400.34375" xlink:href="#DejaVuSans-109"/>
      <use x="497.755859" xlink:href="#DejaVuSans-112"/>
     </g>
    </g>
   </g>
   <g id="matplotlib.axis_2">
    <g id="ytick_1">
     <g id="line2d_9">
      <defs>
       <path d="M 0 0 
L -3.5 0 
" id="m33ca4b6149" style="stroke:#000000;stroke-width:0.8;"/>
      </defs>
      <g>
       <use style="stroke:#000000;stroke-width:0.8;" x="108" xlink:href="#m33ca4b6149" y="383.257372"/>
      </g>
     </g>
     <g id="text_10">
      <!-- −2000 -->
      <defs>
       <path d="M 10.59375 35.5 
L 73.1875 35.5 
L 73.1875 27.203125 
L 10.59375 27.203125 
z
" id="DejaVuSans-8722"/>
      </defs>
      <g transform="translate(67.170312 387.056591)scale(0.1 -0.1)">
       <use xlink:href="#DejaVuSans-8722"/>
       <use x="83.789062" xlink:href="#DejaVuSans-50"/>
       <use x="147.412109" xlink:href="#DejaVuSans-48"/>
       <use x="211.035156" xlink:href="#DejaVuSans-48"/>
       <use x="274.658203" xlink:href="#DejaVuSans-48"/>
      </g>
     </g>
    </g>
    <g id="ytick_2">
     <g id="line2d_10">
      <g>
       <use style="stroke:#000000;stroke-width:0.8;" x="108" xlink:href="#m33ca4b6149" y="314.100883"/>
      </g>
     </g>
     <g id="text_11">
      <!-- 0 -->
      <g transform="translate(94.6375 317.900102)scale(0.1 -0.1)">
       <use xlink:href="#DejaVuSans-48"/>
      </g>
     </g>
    </g>
    <g id="ytick_3">
     <g id="line2d_11">
      <g>
       <use style="stroke:#000000;stroke-width:0.8;" x="108" xlink:href="#m33ca4b6149" y="244.944394"/>
      </g>
     </g>
     <g id="text_12">
      <!-- 2000 -->
      <g transform="translate(75.55 248.743612)scale(0.1 -0.1)">
       <use xlink:href="#DejaVuSans-50"/>
       <use x="63.623047" xlink:href="#DejaVuSans-48"/>
       <use x="127.246094" xlink:href="#DejaVuSans-48"/>
       <use x="190.869141" xlink:href="#DejaVuSans-48"/>
      </g>
     </g>
    </g>
    <g id="ytick_4">
     <g id="line2d_12">
      <g>
       <use style="stroke:#000000;stroke-width:0.8;" x="108" xlink:href="#m33ca4b6149" y="175.787905"/>
      </g>
     </g>
     <g id="text_13">
      <!-- 4000 -->
      <g transform="translate(75.55 179.587123)scale(0.1 -0.1)">
       <use xlink:href="#DejaVuSans-52"/>
       <use x="63.623047" xlink:href="#DejaVuSans-48"/>
       <use x="127.246094" xlink:href="#DejaVuSans-48"/>
       <use x="190.869141" xlink:href="#DejaVuSans-48"/>
      </g>
     </g>
    </g>
    <g id="ytick_5">
     <g id="line2d_13">
      <g>
       <use style="stroke:#000000;stroke-width:0.8;" x="108" xlink:href="#m33ca4b6149" y="106.631416"/>
      </g>
     </g>
     <g id="text_14">
      <!-- 6000 -->
      <g transform="translate(75.55 110.430634)scale(0.1 -0.1)">
       <use xlink:href="#DejaVuSans-54"/>
       <use x="63.623047" xlink:href="#DejaVuSans-48"/>
       <use x="127.246094" xlink:href="#DejaVuSans-48"/>
       <use x="190.869141" xlink:href="#DejaVuSans-48"/>
      </g>
     </g>
    </g>
    <g id="text_15">
     <!-- Value -->
     <defs>
      <path d="M 28.609375 0 
L 0.78125 72.90625 
L 11.078125 72.90625 
L 34.1875 11.53125 
L 57.328125 72.90625 
L 67.578125 72.90625 
L 39.796875 0 
z
" id="DejaVuSans-86"/>
      <path d="M 9.421875 75.984375 
L 18.40625 75.984375 
L 18.40625 0 
L 9.421875 0 
z
" id="DejaVuSans-108"/>
      <path d="M 8.5 21.578125 
L 8.5 54.6875 
L 17.484375 54.6875 
L 17.484375 21.921875 
Q 17.484375 14.15625 20.5 10.265625 
Q 23.53125 6.390625 29.59375 6.390625 
Q 36.859375 6.390625 41.078125 11.03125 
Q 45.3125 15.671875 45.3125 23.6875 
L 45.3125 54.6875 
L 54.296875 54.6875 
L 54.296875 0 
L 45.3125 0 
L 45.3125 8.40625 
Q 42.046875 3.421875 37.71875 1 
Q 33.40625 -1.421875 27.6875 -1.421875 
Q 18.265625 -1.421875 13.375 4.4375 
Q 8.5 10.296875 8.5 21.578125 
z
M 31.109375 56 
z
" id="DejaVuSans-117"/>
     </defs>
     <g transform="translate(61.090625 232.273281)rotate(-90)scale(0.1 -0.1)">
      <use xlink:href="#DejaVuSans-86"/>
      <use x="68.298828" xlink:href="#DejaVuSans-97"/>
      <use x="129.578125" xlink:href="#DejaVuSans-108"/>
      <use x="157.361328" xlink:href="#DejaVuSans-117"/>
      <use x="220.740234" xlink:href="#DejaVuSans-101"/>
     </g>
    </g>
   </g>
   <g id="line2d_14">
    <path clip-path="url(#p166401fa01)" d="M 138.436364 295.189421 
L 138.863541 317.49901 
L 139.290718 291.445261 
L 139.717895 290.928545 
L 140.145072 302.343351 
L 140.572249 330.107682 
L 141.426603 308.833425 
L 141.85378 303.177939 
L 142.280957 265.912945 
L 143.135311 310.999029 
L 143.562488 314.879896 
L 143.989665 300.785595 
L 144.416842 299.638075 
L 144.844019 300.031155 
L 145.271196 288.872118 
L 145.698373 304.670364 
L 146.12555 283.646464 
L 146.552727 307.360237 
L 146.979904 291.053105 
L 147.407081 280.897521 
L 147.834258 283.363985 
L 148.261435 272.214119 
L 148.688612 283.91778 
L 149.542967 264.681997 
L 149.970144 290.091512 
L 150.397321 297.89177 
L 150.824498 277.026846 
L 151.678852 283.838126 
L 152.106029 281.254334 
L 152.533206 283.550731 
L 152.960383 262.141688 
L 153.38756 254.933308 
L 153.814737 256.469342 
L 154.241914 276.83995 
L 154.669091 251.195566 
L 155.096268 273.053789 
L 155.523445 241.961891 
L 156.377799 273.537443 
L 157.232153 282.926875 
L 157.65933 280.844705 
L 158.086507 287.723855 
L 158.513684 246.668879 
L 158.940861 251.023724 
L 159.368038 266.36337 
L 159.795215 258.593549 
L 160.222392 267.791466 
L 160.649569 225.444025 
L 161.076746 273.365694 
L 161.503923 262.048441 
L 162.358278 251.554303 
L 162.785455 263.160486 
L 163.212632 293.584903 
L 163.639809 279.161431 
L 164.066986 254.905288 
L 164.494163 260.372229 
L 164.92134 274.21651 
L 165.348517 261.948188 
L 165.775694 272.425832 
L 166.202871 256.761656 
L 166.630048 281.736425 
L 167.057225 255.203423 
L 167.484402 257.147621 
L 167.911579 260.102595 
L 168.338756 261.048898 
L 168.765933 257.790728 
L 169.19311 271.622198 
L 169.620287 264.081969 
L 170.047464 252.796166 
L 170.474641 246.705405 
L 170.901818 261.421349 
L 171.328995 265.800297 
L 171.756172 278.149894 
L 172.183349 286.523493 
L 172.610526 277.549213 
L 173.037703 247.580347 
L 173.46488 255.391583 
L 173.892057 270.827283 
L 174.319234 274.571151 
L 174.746411 275.195546 
L 175.173589 254.830762 
L 175.600766 274.562571 
L 176.027943 252.522589 
L 176.45512 262.417115 
L 176.882297 253.528001 
L 177.309474 286.766969 
L 177.736651 274.511043 
L 178.163828 288.668831 
L 178.591005 267.581283 
L 179.445359 282.586576 
L 179.872536 257.66823 
L 180.299713 276.958203 
L 180.72689 266.541335 
L 181.154067 270.779301 
L 181.581244 295.06243 
L 182.008421 293.735772 
L 182.435598 284.945258 
L 182.862775 303.583274 
L 183.289952 279.252012 
L 183.717129 308.056201 
L 184.144306 265.877401 
L 184.571483 298.706808 
L 184.99866 267.38503 
L 185.425837 299.705565 
L 185.853014 309.216005 
L 186.280191 295.52222 
L 186.707368 296.671454 
L 187.134545 323.306296 
L 187.561722 283.751023 
L 187.9889 317.333109 
L 188.416077 296.839972 
L 188.843254 295.663183 
L 189.697608 307.198589 
L 190.124785 303.675746 
L 190.551962 323.740105 
L 190.979139 320.971549 
L 191.406316 326.783502 
L 191.833493 287.814967 
L 192.26067 290.213706 
L 193.115024 333.233875 
L 193.969378 294.619888 
L 194.396555 325.367452 
L 194.823732 307.504565 
L 195.250909 335.017838 
L 195.678086 311.321202 
L 196.105263 336.919392 
L 196.53244 342.095336 
L 196.959617 339.048904 
L 197.386794 338.783674 
L 197.813971 340.409143 
L 198.241148 316.787824 
L 198.668325 327.793791 
L 199.095502 334.600053 
L 199.522679 346.907756 
L 199.949856 346.775429 
L 200.377033 343.975325 
L 200.804211 350.095991 
L 201.231388 340.940703 
L 201.658565 328.060448 
L 202.085742 353.489156 
L 202.512919 314.764862 
L 202.940096 356.975792 
L 203.367273 339.598881 
L 203.79445 303.54624 
L 204.648804 343.943764 
L 205.075981 353.707396 
L 205.503158 332.712909 
L 205.930335 342.14345 
L 206.357512 348.075023 
L 206.784689 338.252628 
L 207.211866 350.746099 
L 207.639043 304.279016 
L 208.493397 333.069658 
L 208.920574 334.403819 
L 209.347751 353.437265 
L 209.774928 332.426252 
L 210.202105 351.07022 
L 210.629282 361.113089 
L 211.056459 318.205873 
L 211.483636 360.26412 
L 211.910813 350.918413 
L 212.765167 360.775995 
L 213.192344 337.747731 
L 213.619522 369.36 
L 214.046699 349.670852 
L 214.473876 355.067452 
L 214.901053 367.103066 
L 215.32823 347.276979 
L 215.755407 352.457404 
L 216.182584 354.636383 
L 216.609761 330.929054 
L 217.036938 337.323007 
L 217.464115 346.278874 
L 217.891292 342.238292 
L 218.318469 355.165291 
L 218.745646 346.751029 
L 219.172823 326.865037 
L 219.6 343.048708 
L 220.027177 339.86376 
L 220.454354 311.543337 
L 220.881531 351.618376 
L 221.308708 326.193144 
L 221.735885 313.178137 
L 222.163062 355.041212 
L 222.590239 338.208379 
L 223.017416 343.541968 
L 223.444593 344.276726 
L 223.87177 351.748253 
L 224.298947 348.693869 
L 224.726124 315.565524 
L 225.153301 324.75224 
L 225.580478 321.135238 
L 226.007656 308.55114 
L 226.434833 336.247509 
L 226.86201 317.648578 
L 227.289187 329.713433 
L 227.716364 335.250279 
L 228.143541 312.922286 
L 228.997895 340.43852 
L 229.425072 326.98349 
L 229.852249 300.00704 
L 230.279426 303.663401 
L 230.706603 341.679969 
L 231.13378 317.344085 
L 231.560957 304.91607 
L 231.988134 340.529334 
L 232.415311 294.085567 
L 232.842488 321.893702 
L 233.269665 308.394963 
L 233.696842 314.154073 
L 234.124019 286.476595 
L 234.551196 330.648768 
L 234.978373 309.495001 
L 235.40555 322.032977 
L 236.259904 270.10754 
L 236.687081 324.550269 
L 237.114258 301.541663 
L 237.541435 301.454361 
L 237.968612 274.918158 
L 238.395789 311.155674 
L 239.250144 268.486522 
L 239.677321 296.287796 
L 240.104498 301.548368 
L 240.958852 280.812515 
L 241.386029 302.020941 
L 241.813206 261.486943 
L 242.240383 284.10871 
L 242.66756 326.131701 
L 243.094737 297.992814 
L 243.521914 257.089389 
L 243.949091 293.380049 
L 244.376268 279.013103 
L 244.803445 275.553105 
L 245.230622 298.684308 
L 245.657799 266.282223 
L 246.084976 266.0398 
L 246.512153 243.133179 
L 247.366507 267.359649 
L 247.793684 268.591541 
L 248.220861 257.128761 
L 248.648038 278.203703 
L 249.075215 262.242545 
L 249.929569 253.33973 
L 250.356746 277.342348 
L 250.783923 237.55946 
L 251.2111 247.827417 
L 251.638278 219.887831 
L 252.065455 284.403327 
L 252.492632 264.033869 
L 252.919809 279.827895 
L 253.346986 259.608257 
L 253.774163 247.795494 
L 254.20134 226.153782 
L 254.628517 257.272375 
L 255.055694 267.691927 
L 255.910048 238.98679 
L 256.337225 244.781641 
L 256.764402 227.123714 
L 257.618756 269.985339 
L 258.045933 230.61177 
L 258.47311 260.783076 
L 258.900287 234.432465 
L 259.327464 235.439684 
L 259.754641 237.083563 
L 260.181818 216.427863 
L 260.608995 244.754126 
L 261.036172 260.863079 
L 261.463349 239.959978 
L 261.890526 244.025154 
L 262.74488 215.631292 
L 263.172057 266.705773 
L 263.599234 242.740498 
L 264.026411 238.335293 
L 264.453589 231.056703 
L 264.880766 249.533292 
L 265.307943 233.261057 
L 265.73512 233.364967 
L 266.162297 239.235156 
L 266.589474 240.94078 
L 267.016651 217.296521 
L 267.443828 229.215277 
L 267.871005 210.238851 
L 268.298182 243.575881 
L 268.725359 258.317861 
L 269.152536 245.904123 
L 269.579713 238.825075 
L 270.00689 244.131689 
L 270.434067 247.051229 
L 270.861244 264.786063 
L 271.288421 253.560913 
L 271.715598 258.44628 
L 272.142775 237.974937 
L 272.569952 237.922721 
L 272.997129 220.637336 
L 273.424306 249.04545 
L 273.851483 230.581484 
L 274.27866 252.467783 
L 274.705837 268.540193 
L 275.133014 240.153532 
L 275.560191 255.065667 
L 275.987368 260.480665 
L 276.414545 260.065894 
L 276.841722 233.324275 
L 277.2689 226.924069 
L 277.696077 236.166801 
L 278.550431 272.411592 
L 278.977608 250.466722 
L 279.404785 238.102415 
L 279.831962 243.149671 
L 280.259139 251.895919 
L 280.686316 254.244716 
L 281.113493 271.121132 
L 281.54067 252.944528 
L 281.967847 259.754492 
L 282.395024 260.616921 
L 282.822201 265.699381 
L 283.249378 281.022113 
L 283.676555 273.686252 
L 284.103732 254.537367 
L 284.530909 266.488191 
L 284.958086 267.97574 
L 285.385263 272.107113 
L 285.81244 249.60326 
L 286.239617 271.356223 
L 286.666794 269.081109 
L 287.093971 271.74147 
L 287.521148 289.49733 
L 287.948325 277.314743 
L 288.375502 258.331526 
L 288.802679 271.873525 
L 289.229856 301.533939 
L 289.657033 279.936169 
L 290.084211 273.94026 
L 290.511388 284.597136 
L 290.938565 273.010252 
L 291.792919 302.725862 
L 292.220096 277.373659 
L 292.647273 285.512399 
L 293.07445 282.501414 
L 293.501627 276.258921 
L 293.928804 289.993812 
L 294.355981 318.3784 
L 294.783158 293.434729 
L 295.210335 320.777849 
L 295.637512 305.414916 
L 296.064689 284.401895 
L 296.491866 325.359783 
L 296.919043 299.220535 
L 297.34622 310.950631 
L 297.773397 307.427885 
L 298.200574 289.434395 
L 298.627751 298.214351 
L 299.054928 286.729612 
L 299.482105 323.900893 
L 299.909282 320.943537 
L 300.336459 320.190952 
L 300.763636 311.804834 
L 301.190813 325.715288 
L 301.61799 323.894543 
L 302.045167 327.068065 
L 302.472344 304.383073 
L 302.899522 306.031916 
L 303.326699 301.349819 
L 303.753876 276.113685 
L 304.181053 319.212375 
L 304.60823 307.037184 
L 305.035407 269.259374 
L 305.462584 310.250758 
L 305.889761 320.272259 
L 306.316938 334.346 
L 306.744115 328.580284 
L 307.171292 346.152912 
L 307.598469 344.94115 
L 308.025646 328.034892 
L 308.452823 317.701793 
L 308.88 322.287576 
L 309.307177 329.100978 
L 309.734354 350.767618 
L 310.161531 314.166136 
L 310.588708 317.442564 
L 311.015885 300.469191 
L 311.443062 352.462198 
L 311.870239 329.277306 
L 312.297416 299.087677 
L 312.724593 323.575083 
L 313.15177 304.783431 
L 313.578947 316.924968 
L 314.006124 323.484094 
L 314.433301 311.895019 
L 314.860478 352.325377 
L 315.287656 330.48595 
L 316.14201 305.197869 
L 316.996364 321.926008 
L 317.423541 307.578127 
L 318.277895 340.473687 
L 318.705072 324.038066 
L 319.132249 325.730934 
L 319.559426 317.372018 
L 319.986603 328.125079 
L 320.41378 312.248218 
L 320.840957 290.755975 
L 321.268134 347.717555 
L 321.695311 311.67042 
L 322.122488 330.548195 
L 322.549665 328.524068 
L 322.976842 345.554686 
L 323.404019 321.661114 
L 323.831196 312.089339 
L 324.258373 337.595907 
L 324.68555 286.655738 
L 325.112727 326.05949 
L 325.539904 347.865605 
L 326.394258 277.101163 
L 326.821435 287.444651 
L 327.248612 291.254668 
L 327.675789 297.567042 
L 328.102967 301.455856 
L 329.384498 338.34486 
L 329.811675 321.697866 
L 330.238852 329.595517 
L 330.666029 316.624078 
L 331.093206 289.898515 
L 331.520383 312.775383 
L 331.94756 321.335536 
L 332.374737 311.69665 
L 332.801914 321.595889 
L 333.229091 282.778369 
L 333.656268 315.89009 
L 334.083445 294.414364 
L 335.364976 260.154901 
L 335.792153 313.301681 
L 336.21933 271.968153 
L 336.646507 292.710156 
L 337.073684 285.767804 
L 337.500861 260.158141 
L 337.928038 289.42443 
L 338.355215 268.892362 
L 338.782392 279.047386 
L 339.209569 283.589047 
L 339.636746 253.890901 
L 340.063923 276.888125 
L 340.4911 275.333891 
L 340.918278 260.414209 
L 341.345455 255.779397 
L 341.772632 281.807402 
L 342.199809 249.584036 
L 342.626986 274.785895 
L 343.054163 277.157847 
L 343.48134 297.360884 
L 343.908517 263.406558 
L 344.335694 255.170036 
L 344.762871 269.100731 
L 345.190048 238.717014 
L 346.044402 253.113698 
L 346.471579 226.365145 
L 346.898756 274.412092 
L 347.325933 246.492318 
L 347.75311 236.887547 
L 348.180287 263.081755 
L 348.607464 250.847952 
L 349.034641 246.640714 
L 349.461818 251.245588 
L 349.888995 242.397985 
L 350.316172 244.583426 
L 350.743349 253.527791 
L 351.170526 228.670842 
L 351.597703 247.513921 
L 352.02488 247.180308 
L 352.879234 210.494225 
L 353.306411 260.999056 
L 353.733589 230.816131 
L 354.160766 226.886247 
L 354.587943 231.438764 
L 355.01512 192.810298 
L 355.442297 211.350269 
L 355.869474 237.197911 
L 356.296651 237.723223 
L 356.723828 213.987981 
L 357.151005 211.827416 
L 357.578182 215.378021 
L 358.005359 234.399441 
L 358.432536 216.673225 
L 358.859713 225.201988 
L 359.28689 195.86818 
L 359.714067 235.591078 
L 360.141244 221.807675 
L 360.568421 237.046593 
L 360.995598 235.916664 
L 361.422775 220.757479 
L 362.277129 227.433546 
L 362.704306 196.542504 
L 363.131483 218.0074 
L 363.55866 199.365264 
L 363.985837 233.382094 
L 364.413014 222.193666 
L 364.840191 239.264615 
L 365.267368 196.709944 
L 365.694545 232.685836 
L 366.121722 196.000036 
L 366.5489 232.687815 
L 366.976077 219.302931 
L 367.403254 260.756374 
L 367.830431 221.633446 
L 368.257608 217.81533 
L 368.684785 246.750145 
L 369.111962 222.586997 
L 369.539139 223.645197 
L 369.966316 246.109772 
L 370.393493 205.549931 
L 370.82067 237.297884 
L 371.675024 211.471622 
L 372.102201 228.089082 
L 372.529378 209.573842 
L 372.956555 219.185445 
L 373.383732 199.398774 
L 373.810909 231.956626 
L 374.238086 239.909786 
L 374.665263 217.826797 
L 375.09244 226.668122 
L 375.519617 228.784239 
L 375.946794 217.629556 
L 376.373971 218.47954 
L 376.801148 226.12871 
L 377.228325 217.677423 
L 377.655502 216.648929 
L 378.082679 216.249805 
L 378.509856 215.085211 
L 378.937033 211.024564 
L 379.364211 233.195506 
L 379.791388 238.595717 
L 380.218565 251.224682 
L 380.645742 237.395447 
L 381.072919 248.607059 
L 381.500096 229.625442 
L 381.927273 239.697501 
L 382.781627 253.310693 
L 383.208804 238.875727 
L 384.063158 260.657094 
L 384.490335 263.98818 
L 384.917512 227.653967 
L 385.344689 255.266005 
L 385.771866 257.649836 
L 386.199043 251.768325 
L 386.62622 257.132229 
L 387.480574 255.525572 
L 387.907751 261.019685 
L 388.334928 269.508736 
L 388.762105 243.732771 
L 389.189282 257.189578 
L 389.616459 278.273112 
L 390.043636 245.933294 
L 390.470813 285.069954 
L 390.89799 266.316952 
L 391.325167 265.817679 
L 391.752344 276.712553 
L 392.179522 259.634368 
L 392.606699 287.54903 
L 393.033876 243.660427 
L 393.461053 262.0125 
L 393.88823 243.335073 
L 394.315407 260.242599 
L 394.742584 296.164995 
L 395.169761 262.519927 
L 395.596938 266.635712 
L 396.024115 259.171993 
L 396.451292 259.579461 
L 396.878469 269.891737 
L 397.305646 268.419448 
L 397.732823 287.580374 
L 398.16 256.403902 
L 398.587177 307.372235 
L 399.014354 310.164814 
L 399.441531 302.426734 
L 399.868708 270.640654 
L 400.295885 301.710988 
L 400.723062 291.912417 
L 401.150239 285.921527 
L 401.577416 295.312953 
L 402.004593 320.097368 
L 402.43177 272.532401 
L 402.858947 291.961411 
L 403.286124 283.772077 
L 404.140478 301.229848 
L 404.994833 282.726951 
L 405.42201 318.069648 
L 405.849187 313.574615 
L 406.276364 277.615852 
L 406.703541 311.166985 
L 407.130718 298.066835 
L 407.557895 320.180879 
L 407.985072 289.217069 
L 408.412249 291.15643 
L 408.839426 304.552188 
L 409.266603 277.844258 
L 409.69378 309.067323 
L 410.120957 306.224477 
L 410.548134 285.848058 
L 410.975311 295.783562 
L 411.402488 290.246933 
L 411.829665 281.383513 
L 412.256842 299.85906 
L 412.684019 294.040758 
L 413.111196 313.466609 
L 413.538373 297.149195 
L 413.96555 308.804929 
L 414.392727 285.272015 
L 414.819904 305.056552 
L 415.247081 303.922598 
L 415.674258 304.41475 
L 416.101435 334.639194 
L 416.528612 319.035723 
L 416.955789 274.859572 
L 417.382967 293.451612 
L 417.810144 303.209602 
L 418.237321 305.949046 
L 418.664498 305.756579 
L 419.091675 296.516569 
L 419.518852 66.96 
L 419.946029 66.96 
L 420.373206 304.119238 
L 420.800383 320.315727 
L 421.654737 293.081594 
L 422.081914 321.713867 
L 422.509091 284.41101 
L 422.936268 281.463646 
L 423.363445 298.572051 
L 423.790622 293.77613 
L 424.217799 277.108657 
L 424.644976 305.106311 
L 425.072153 309.642713 
L 425.49933 312.089574 
L 425.926507 308.663565 
L 426.353684 303.915634 
L 426.780861 286.925807 
L 427.208038 305.657797 
L 427.635215 294.786456 
L 428.062392 287.470316 
L 428.489569 308.026754 
L 428.916746 266.696726 
L 429.343923 267.354942 
L 429.7711 312.721866 
L 430.198278 291.989132 
L 430.625455 289.267606 
L 431.052632 280.09451 
L 431.479809 298.98354 
L 431.906986 285.976418 
L 432.334163 267.546755 
L 432.76134 263.275428 
L 433.188517 273.44114 
L 433.615694 270.631918 
L 434.042871 284.075302 
L 434.470048 279.796352 
L 434.897225 254.624102 
L 435.324402 269.701221 
L 435.751579 279.56117 
L 436.178756 243.740365 
L 436.605933 275.50904 
L 437.03311 248.638104 
L 437.460287 255.491092 
L 437.887464 257.166288 
L 438.314641 266.108059 
L 438.741818 246.917799 
L 439.168995 283.24149 
L 440.450526 252.351413 
L 440.877703 251.784548 
L 441.30488 256.21598 
L 441.732057 254.927046 
L 442.159234 242.186346 
L 442.586411 257.684248 
L 443.013589 279.081443 
L 443.440766 245.011384 
L 443.867943 230.842819 
L 444.29512 227.734094 
L 444.722297 245.334766 
L 445.149474 240.547274 
L 445.576651 215.764305 
L 446.003828 246.553983 
L 446.858182 227.090878 
L 447.285359 242.632969 
L 447.712536 238.639235 
L 448.139713 221.990455 
L 448.56689 239.958155 
L 448.994067 221.129701 
L 449.421244 244.538623 
L 449.848421 255.540307 
L 450.275598 215.0209 
L 450.702775 225.047924 
L 451.129952 228.37943 
L 451.557129 228.52094 
L 451.984306 204.824395 
L 452.411483 234.676852 
L 452.83866 203.10485 
L 453.265837 231.824665 
L 453.693014 217.347375 
L 454.120191 217.469051 
L 454.547368 204.718814 
L 454.974545 238.768148 
L 455.401722 215.163672 
L 455.8289 212.482347 
L 456.683254 191.919915 
L 457.110431 222.438876 
L 457.537608 202.112859 
L 457.964785 199.522215 
L 458.391962 187.79531 
L 458.819139 206.026978 
L 459.246316 186.911815 
L 459.673493 202.041701 
L 460.10067 207.092358 
L 460.527847 194.451787 
L 460.955024 197.28767 
L 461.382201 195.233507 
L 461.809378 185.476171 
L 462.236555 204.231707 
L 463.090909 202.141244 
L 463.518086 182.740077 
L 463.945263 169.308789 
L 464.37244 183.68509 
L 464.799617 182.301001 
L 465.226794 171.166468 
L 465.653971 205.833537 
L 466.081148 219.04578 
L 466.508325 213.535646 
L 466.935502 193.084059 
L 467.362679 196.44958 
L 467.789856 237.229644 
L 468.217033 179.079161 
L 468.644211 200.043064 
L 469.071388 197.670764 
L 469.498565 190.859027 
L 469.925742 216.558578 
L 470.352919 207.73509 
L 470.780096 181.987438 
L 471.207273 168.221088 
L 471.63445 187.634037 
L 472.061627 187.169691 
L 472.488804 223.954575 
L 472.915981 183.164529 
L 473.343158 182.500032 
L 473.770335 204.943944 
L 474.197512 197.304628 
L 474.624689 186.823777 
L 475.051866 169.02094 
L 475.479043 218.183504 
L 475.90622 186.873005 
L 476.333397 182.292169 
L 476.760574 189.811343 
L 477.187751 199.725843 
L 477.614928 207.047489 
L 478.042105 203.039964 
L 478.469282 193.290463 
L 478.896459 223.064764 
L 479.323636 226.003991 
L 479.750813 219.203453 
L 480.17799 230.660591 
L 480.605167 235.177148 
L 481.032344 190.62672 
L 481.459522 225.793105 
L 481.886699 220.531978 
L 482.313876 230.871613 
L 482.741053 207.28529 
L 483.16823 208.044402 
L 483.595407 199.208604 
L 484.022584 224.824869 
L 484.449761 200.481577 
L 484.876938 217.989877 
L 485.304115 240.470426 
L 485.731292 205.025737 
L 486.158469 200.727622 
L 486.585646 212.438527 
L 487.44 246.68817 
L 487.867177 227.232794 
L 488.294354 248.998647 
L 488.721531 257.138187 
L 489.148708 220.779415 
L 489.575885 236.902849 
L 490.003062 239.571677 
L 490.430239 244.399646 
L 490.857416 216.394538 
L 491.284593 260.81459 
L 492.138947 231.145269 
L 492.566124 236.45222 
L 492.993301 251.147786 
L 493.420478 244.091981 
L 493.847656 247.229639 
L 494.274833 220.46265 
L 494.70201 245.202117 
L 495.129187 257.668569 
L 495.556364 231.398224 
L 495.983541 269.21014 
L 496.410718 243.386763 
L 496.837895 234.21129 
L 497.265072 271.067456 
L 497.692249 249.992235 
L 498.119426 241.77109 
L 498.546603 240.394684 
L 499.400957 230.635191 
L 499.828134 257.30163 
L 500.255311 273.959986 
L 500.682488 273.646858 
L 501.109665 253.023752 
L 501.536842 287.822763 
L 501.964019 257.905724 
L 502.391196 283.53312 
L 502.818373 281.049825 
L 503.24555 263.085319 
L 503.672727 277.86612 
L 504.099904 282.300941 
L 504.527081 280.699168 
L 504.954258 250.527292 
L 505.381435 292.881832 
L 505.808612 271.600041 
L 506.235789 280.934541 
L 506.662967 230.566812 
L 507.090144 277.760825 
L 507.517321 248.968594 
L 507.944498 263.85886 
L 508.371675 300.695765 
L 508.798852 270.259349 
L 509.226029 268.126794 
L 509.653206 278.655609 
L 510.080383 308.623999 
L 510.50756 246.544222 
L 510.934737 283.245466 
L 511.361914 301.739738 
L 511.789091 262.629393 
L 512.216268 285.26165 
L 512.643445 278.232932 
L 513.497799 309.110998 
L 513.924976 285.132458 
L 514.352153 271.625328 
L 514.77933 283.219146 
L 515.206507 282.668908 
L 516.060861 277.2666 
L 516.488038 287.117845 
L 516.915215 287.717537 
L 517.342392 294.076541 
L 517.769569 303.648675 
L 518.196746 304.416887 
L 518.623923 294.492075 
L 519.0511 293.647275 
L 519.478278 288.183168 
L 519.905455 74.520037 
L 520.332632 74.520037 
L 520.759809 259.14768 
L 521.186986 275.57489 
L 521.614163 276.831634 
L 522.04134 280.662165 
L 522.468517 293.513535 
L 522.895694 288.166074 
L 523.322871 284.349911 
L 523.750048 276.95444 
L 524.177225 278.194584 
L 524.604402 250.137235 
L 525.031579 281.478736 
L 525.458756 286.889674 
L 525.885933 299.445629 
L 526.31311 289.197982 
L 526.740287 234.822354 
L 527.167464 268.191036 
L 527.594641 258.340153 
L 528.021818 267.931836 
L 528.448995 267.495388 
L 528.876172 271.711109 
L 529.730526 245.822593 
L 530.157703 252.930762 
L 530.58488 268.664804 
L 531.012057 262.74152 
L 531.439234 284.867654 
L 531.866411 245.224794 
L 532.293589 234.062852 
L 532.720766 282.495056 
L 533.147943 259.106228 
L 533.57512 270.795968 
L 534.002297 274.347688 
L 534.429474 239.378762 
L 534.856651 236.706857 
L 535.283828 222.614128 
L 535.711005 244.169501 
L 536.138182 277.530559 
L 536.565359 241.803876 
L 536.992536 258.150429 
L 537.84689 241.598443 
L 538.274067 242.83738 
L 538.701244 230.72251 
L 539.128421 250.988428 
L 539.555598 249.973133 
L 540.409952 224.087327 
L 540.837129 241.651043 
L 541.264306 244.408336 
L 541.691483 248.123087 
L 542.11866 242.886225 
L 542.545837 234.548355 
L 542.973014 246.322194 
L 543.400191 217.272262 
L 543.827368 256.849761 
L 544.254545 227.12751 
L 544.681722 244.995502 
L 545.1089 203.973374 
L 545.536077 228.356878 
L 545.963254 202.566462 
L 546.390431 224.292513 
L 546.817608 219.869619 
L 547.244785 230.57925 
L 547.671962 259.983514 
L 548.099139 188.201876 
L 548.526316 232.465686 
L 548.953493 171.916387 
L 549.38067 204.01664 
L 549.807847 216.03471 
L 550.235024 195.942204 
L 550.662201 191.999379 
L 551.089378 207.30194 
L 551.516555 200.675874 
L 551.943732 174.051544 
L 552.370909 221.304517 
L 552.798086 199.945592 
L 553.225263 186.252889 
L 553.65244 218.056655 
L 554.079617 222.574885 
L 554.506794 174.652319 
L 554.933971 204.941989 
L 555.361148 208.243203 
L 555.788325 192.328824 
L 556.215502 199.083881 
L 556.642679 198.208934 
L 557.069856 210.124276 
L 557.497033 201.605087 
L 557.924211 174.578034 
L 558.351388 178.931343 
L 558.778565 195.073103 
L 559.205742 148.789673 
L 559.632919 161.968251 
L 560.060096 194.331334 
L 560.487273 184.084649 
L 560.91445 230.200088 
L 561.341627 167.074817 
L 561.768804 172.40406 
L 562.195981 187.590585 
L 563.050335 177.849012 
L 563.477512 163.501287 
L 563.904689 192.682799 
L 564.331866 161.931233 
L 564.759043 166.192411 
L 565.18622 187.594655 
L 565.613397 181.084496 
L 566.040574 149.10032 
L 566.467751 178.638143 
L 566.894928 196.811434 
L 567.322105 197.883959 
L 567.749282 176.831162 
L 568.176459 172.128893 
L 568.603636 171.895671 
L 569.030813 179.535979 
L 569.45799 205.036575 
L 570.312344 161.894405 
L 570.739522 210.380021 
L 571.166699 166.792291 
L 571.593876 198.066825 
L 572.021053 179.580557 
L 572.44823 197.468287 
L 572.875407 164.592577 
L 573.302584 185.958474 
L 573.729761 171.170956 
L 574.156938 189.751262 
L 575.011292 201.152074 
L 575.438469 196.342995 
L 575.865646 184.895751 
L 576.292823 159.481353 
L 576.72 172.190845 
L 577.147177 190.777163 
L 577.574354 178.297457 
L 578.001531 197.424247 
L 578.428708 192.34527 
L 578.855885 181.518194 
L 579.283062 144.587873 
L 579.710239 181.915587 
L 580.137416 184.613257 
L 580.564593 221.219232 
L 580.99177 170.20114 
L 581.418947 169.966171 
L 581.846124 213.630728 
L 582.273301 190.369361 
L 582.700478 203.720082 
L 583.127656 190.404237 
L 583.554833 200.595843 
L 583.98201 178.821526 
L 584.409187 191.848485 
L 584.836364 194.829246 
L 585.263541 191.353026 
L 585.690718 225.264858 
L 586.117895 216.74007 
L 586.545072 179.943097 
L 586.972249 198.558068 
L 587.399426 196.432451 
L 587.826603 224.561991 
L 588.25378 172.366571 
L 588.680957 213.917302 
L 589.108134 199.766367 
L 589.535311 212.075374 
L 589.962488 195.58057 
L 590.389665 224.08685 
L 590.816842 197.025835 
L 591.244019 197.921185 
L 591.671196 225.841677 
L 592.098373 239.957099 
L 592.52555 210.463909 
L 592.952727 252.627645 
L 593.379904 207.94402 
L 594.234258 209.468776 
L 594.661435 227.511775 
L 595.088612 196.422954 
L 595.515789 226.998591 
L 595.942967 240.452407 
L 596.370144 232.94908 
L 596.797321 247.152612 
L 597.224498 248.533553 
L 597.651675 227.592392 
L 598.078852 231.090595 
L 598.506029 240.950359 
L 598.933206 237.305734 
L 599.360383 237.475186 
L 599.78756 240.826735 
L 600.214737 210.982927 
L 600.641914 247.263732 
L 601.069091 229.210318 
L 601.496268 245.597237 
L 601.923445 257.376257 
L 602.350622 256.563159 
L 602.777799 241.22001 
L 603.204976 253.053383 
L 603.632153 243.127765 
L 604.05933 241.341444 
L 604.486507 236.371905 
L 604.913684 263.495092 
L 605.340861 228.771588 
L 605.768038 278.477583 
L 606.195215 279.427931 
L 606.622392 234.627762 
L 607.049569 233.827356 
L 607.476746 270.322503 
L 607.903923 246.39083 
L 608.3311 274.33519 
L 608.758278 231.416198 
L 609.185455 254.866289 
L 610.039809 262.103139 
L 610.466986 276.118807 
L 610.894163 245.48532 
L 611.32134 258.577025 
L 611.748517 251.675566 
L 612.175694 271.567789 
L 612.602871 266.250193 
L 613.030048 256.675906 
L 613.457225 286.679659 
L 613.884402 275.037945 
L 614.311579 270.480074 
L 614.738756 252.957743 
L 615.165933 275.755553 
L 615.59311 278.031535 
L 616.020287 255.723076 
L 616.447464 273.377841 
L 616.874641 247.025189 
L 617.301818 287.383311 
L 617.728995 267.788898 
L 618.156172 274.086573 
L 618.583349 269.789163 
L 619.010526 251.211751 
L 619.437703 251.26852 
L 620.292057 289.334331 
L 620.719234 272.605504 
L 621.146411 240.971097 
L 621.573589 260.849491 
L 622.000766 273.353352 
L 623.282297 231.456649 
L 624.136651 272.782567 
L 624.563828 223.551953 
L 624.991005 255.608223 
L 625.418182 235.144816 
L 625.845359 236.292483 
L 626.272536 285.404866 
L 626.699713 229.888725 
L 627.12689 255.260678 
L 627.554067 265.360791 
L 627.981244 250.980694 
L 628.408421 250.074121 
L 628.835598 250.0676 
L 629.262775 251.79162 
L 629.689952 226.30018 
L 630.117129 232.399458 
L 630.544306 241.811038 
L 630.971483 254.536482 
L 631.39866 226.324727 
L 631.825837 233.570167 
L 632.253014 249.039638 
L 632.680191 249.061621 
L 633.107368 244.288608 
L 633.534545 241.853998 
L 634.3889 224.034765 
L 634.816077 232.782169 
L 635.243254 259.980644 
L 635.670431 228.385637 
L 636.097608 216.001283 
L 636.524785 250.769746 
L 636.951962 258.19224 
L 637.379139 216.963209 
L 637.806316 233.248123 
L 638.233493 218.553769 
L 638.66067 228.464064 
L 639.087847 197.6605 
L 639.942201 211.185727 
L 641.223732 199.995126 
L 641.650909 229.359894 
L 642.078086 190.449028 
L 642.505263 233.933639 
L 642.93244 243.479388 
L 643.359617 212.843889 
L 643.786794 199.26506 
L 644.213971 201.342284 
L 644.641148 197.187303 
L 645.068325 202.970541 
L 645.495502 212.128925 
L 645.922679 199.636321 
L 646.349856 173.496067 
L 646.777033 203.175342 
L 647.204211 190.327299 
L 647.631388 189.029685 
L 648.058565 176.792262 
L 648.485742 210.009708 
L 649.340096 186.799939 
L 649.767273 196.082039 
L 650.19445 185.813293 
L 650.621627 191.033821 
L 651.475981 208.941869 
L 651.903158 171.307884 
L 652.330335 180.734096 
L 652.757512 169.818286 
L 653.184689 214.353309 
L 653.611866 162.966603 
L 654.46622 183.342715 
L 654.893397 167.452577 
L 655.320574 170.22333 
L 655.747751 163.925074 
L 656.174928 164.412058 
L 656.602105 168.826274 
L 657.029282 168.179468 
L 657.456459 178.386571 
L 657.883636 161.616531 
L 658.310813 175.471403 
L 658.73799 147.068782 
L 659.165167 164.184968 
L 659.592344 143.419855 
L 660.019522 169.366771 
L 660.446699 166.408942 
L 660.873876 150.07553 
L 661.301053 145.028697 
L 661.72823 178.155292 
L 662.155407 148.086229 
L 662.582584 143.613529 
L 663.009761 165.962945 
L 663.436938 148.335812 
L 663.864115 168.015066 
L 664.291292 165.727082 
L 664.718469 160.002989 
L 665.145646 167.33722 
L 665.572823 134.559394 
L 666 156.843354 
L 666.427177 162.196158 
L 666.854354 179.989509 
L 667.281531 154.332092 
L 667.708708 166.684227 
L 668.135885 161.091323 
L 668.563062 160.068109 
L 668.990239 179.662298 
L 669.417416 147.697842 
L 669.844593 151.438651 
L 670.27177 148.451889 
L 671.126124 182.409579 
L 671.553301 125.698138 
L 671.980478 133.778488 
L 672.407656 161.786065 
L 672.834833 176.655581 
L 673.26201 158.132324 
L 673.689187 156.277354 
L 674.116364 186.851078 
L 674.543541 160.465946 
L 674.970718 155.369263 
L 675.397895 131.761594 
L 675.825072 173.858904 
L 676.252249 121.841784 
L 677.106603 159.666684 
L 677.53378 164.834255 
L 678.388134 141.449401 
L 678.815311 139.601892 
L 679.669665 174.022589 
L 680.096842 146.61804 
L 680.524019 148.176835 
L 680.951196 173.366727 
L 681.378373 181.063395 
L 681.80555 168.042851 
L 682.232727 161.697159 
L 682.659904 171.213881 
L 683.087081 184.225417 
L 683.514258 182.199414 
L 683.941435 158.249492 
L 684.368612 161.20697 
L 684.795789 167.356385 
L 685.222967 183.144804 
L 685.650144 176.705489 
L 686.077321 192.14038 
L 686.504498 163.012411 
L 686.931675 204.124948 
L 687.358852 182.150129 
L 687.786029 183.167505 
L 688.213206 190.189327 
L 688.640383 145.030657 
L 689.06756 149.86614 
L 689.494737 191.679513 
L 689.921914 178.498054 
L 690.349091 181.365497 
L 690.776268 180.762695 
L 691.203445 181.284588 
L 691.630622 199.778501 
L 692.057799 223.232011 
L 692.484976 198.807842 
L 692.912153 183.322764 
L 693.33933 203.167832 
L 693.766507 190.86057 
L 694.193684 208.593477 
L 694.620861 194.830368 
L 695.048038 192.169482 
L 695.475215 199.424975 
L 695.902392 217.173385 
L 696.329569 185.465508 
L 697.183923 224.366284 
L 697.6111 216.65447 
L 698.038278 206.20033 
L 698.892632 237.274449 
L 699.746986 213.850404 
L 700.174163 212.288293 
L 700.60134 192.505665 
L 701.028517 225.774629 
L 701.455694 230.05097 
L 701.882871 228.195539 
L 702.310048 204.312098 
L 702.737225 232.920758 
L 703.164402 222.963803 
L 703.591579 190.935274 
L 704.018756 242.057146 
L 704.87311 231.669371 
L 705.300287 249.790708 
L 705.727464 223.764913 
L 706.154641 258.58243 
L 706.581818 234.330346 
L 707.008995 242.346372 
L 707.436172 240.794133 
L 707.863349 214.073471 
L 708.290526 221.253713 
L 708.717703 206.054846 
L 709.999234 243.832457 
L 710.426411 231.667315 
L 710.853589 231.338917 
L 711.280766 240.459351 
L 711.707943 258.843881 
L 712.13512 226.314803 
L 712.562297 249.880543 
L 712.989474 256.918761 
L 713.416651 237.919222 
L 713.843828 245.038214 
L 714.271005 225.021247 
L 714.698182 245.788835 
L 715.125359 223.128948 
L 715.552536 235.725595 
L 715.979713 237.277455 
L 716.40689 243.829343 
L 716.834067 222.834939 
L 717.261244 247.54066 
L 717.688421 250.70248 
L 718.115598 237.770886 
L 718.542775 237.917768 
L 718.969952 211.118359 
L 719.397129 241.714111 
L 719.824306 228.810153 
L 720.251483 241.330923 
L 720.67866 217.657778 
L 721.105837 231.899557 
L 721.533014 230.459145 
L 721.960191 235.623198 
L 722.387368 253.233336 
L 722.814545 248.366476 
L 723.241722 230.626834 
L 723.6689 253.971447 
L 724.096077 219.811226 
L 724.523254 256.949877 
L 724.950431 254.864611 
L 725.377608 253.749953 
L 726.231962 219.267499 
L 726.659139 258.250402 
L 727.086316 240.371722 
L 727.513493 232.560016 
L 727.94067 256.58382 
L 728.367847 236.07392 
L 728.795024 234.411733 
L 729.222201 215.195913 
L 729.649378 219.914223 
L 730.076555 248.531813 
L 730.503732 245.132131 
L 730.930909 238.400402 
L 731.358086 257.824377 
L 731.785263 242.801506 
L 732.21244 212.416616 
L 732.639617 229.474007 
L 733.066794 211.139473 
L 733.493971 209.448338 
L 733.921148 231.564096 
L 734.348325 226.033106 
L 734.775502 189.66694 
L 735.202679 222.1116 
L 735.629856 212.502581 
L 736.057033 197.529548 
L 736.484211 215.245433 
L 736.911388 210.00144 
L 737.338565 229.469842 
L 737.765742 179.867442 
L 738.192919 219.988918 
L 738.620096 224.785924 
L 739.047273 214.426255 
L 739.47445 178.490823 
L 739.901627 229.797613 
L 740.328804 205.149982 
L 740.755981 219.090082 
L 741.183158 214.722434 
L 741.610335 197.622322 
L 742.037512 189.579294 
L 742.464689 170.433308 
L 742.891866 199.849472 
L 743.319043 186.089288 
L 743.74622 232.473347 
L 744.173397 187.719115 
L 744.600574 163.917066 
L 745.027751 179.546536 
L 745.027751 179.546536 
" style="fill:none;stroke:#1f77b4;stroke-linecap:square;stroke-width:1.5;"/>
   </g>
   <g id="line2d_15">
    <path clip-path="url(#p166401fa01)" d="M 747.163636 384.48 
L 747.163636 51.84 
" style="fill:none;stroke:#808080;stroke-linecap:square;"/>
   </g>
   <g id="patch_40">
    <path d="M 108 384.48 
L 108 51.84 
" style="fill:none;stroke:#000000;stroke-linecap:square;stroke-linejoin:miter;stroke-width:0.8;"/>
   </g>
   <g id="patch_41">
    <path d="M 777.6 384.48 
L 777.6 51.84 
" style="fill:none;stroke:#000000;stroke-linecap:square;stroke-linejoin:miter;stroke-width:0.8;"/>
   </g>
   <g id="patch_42">
    <path d="M 108 384.48 
L 777.6 384.48 
" style="fill:none;stroke:#000000;stroke-linecap:square;stroke-linejoin:miter;stroke-width:0.8;"/>
   </g>
   <g id="patch_43">
    <path d="M 108 51.84 
L 777.6 51.84 
" style="fill:none;stroke:#000000;stroke-linecap:square;stroke-linejoin:miter;stroke-width:0.8;"/>
   </g>
   <g id="text_16">
    <!-- synthetic_43.csv -->
    <defs>
     <path d="M 32.171875 -5.078125 
Q 28.375 -14.84375 24.75 -17.8125 
Q 21.140625 -20.796875 15.09375 -20.796875 
L 7.90625 -20.796875 
L 7.90625 -13.28125 
L 13.1875 -13.28125 
Q 16.890625 -13.28125 18.9375 -11.515625 
Q 21 -9.765625 23.484375 -3.21875 
L 25.09375 0.875 
L 2.984375 54.6875 
L 12.5 54.6875 
L 29.59375 11.921875 
L 46.6875 54.6875 
L 56.203125 54.6875 
z
" id="DejaVuSans-121"/>
     <path d="M 54.890625 33.015625 
L 54.890625 0 
L 45.90625 0 
L 45.90625 32.71875 
Q 45.90625 40.484375 42.875 44.328125 
Q 39.84375 48.1875 33.796875 48.1875 
Q 26.515625 48.1875 22.3125 43.546875 
Q 18.109375 38.921875 18.109375 30.90625 
L 18.109375 0 
L 9.078125 0 
L 9.078125 54.6875 
L 18.109375 54.6875 
L 18.109375 46.1875 
Q 21.34375 51.125 25.703125 53.5625 
Q 30.078125 56 35.796875 56 
Q 45.21875 56 50.046875 50.171875 
Q 54.890625 44.34375 54.890625 33.015625 
z
" id="DejaVuSans-110"/>
     <path d="M 54.890625 33.015625 
L 54.890625 0 
L 45.90625 0 
L 45.90625 32.71875 
Q 45.90625 40.484375 42.875 44.328125 
Q 39.84375 48.1875 33.796875 48.1875 
Q 26.515625 48.1875 22.3125 43.546875 
Q 18.109375 38.921875 18.109375 30.90625 
L 18.109375 0 
L 9.078125 0 
L 9.078125 75.984375 
L 18.109375 75.984375 
L 18.109375 46.1875 
Q 21.34375 51.125 25.703125 53.5625 
Q 30.078125 56 35.796875 56 
Q 45.21875 56 50.046875 50.171875 
Q 54.890625 44.34375 54.890625 33.015625 
z
" id="DejaVuSans-104"/>
     <path d="M 48.78125 52.59375 
L 48.78125 44.1875 
Q 44.96875 46.296875 41.140625 47.34375 
Q 37.3125 48.390625 33.40625 48.390625 
Q 24.65625 48.390625 19.8125 42.84375 
Q 14.984375 37.3125 14.984375 27.296875 
Q 14.984375 17.28125 19.8125 11.734375 
Q 24.65625 6.203125 33.40625 6.203125 
Q 37.3125 6.203125 41.140625 7.25 
Q 44.96875 8.296875 48.78125 10.40625 
L 48.78125 2.09375 
Q 45.015625 0.34375 40.984375 -0.53125 
Q 36.96875 -1.421875 32.421875 -1.421875 
Q 20.0625 -1.421875 12.78125 6.34375 
Q 5.515625 14.109375 5.515625 27.296875 
Q 5.515625 40.671875 12.859375 48.328125 
Q 20.21875 56 33.015625 56 
Q 37.15625 56 41.109375 55.140625 
Q 45.0625 54.296875 48.78125 52.59375 
z
" id="DejaVuSans-99"/>
     <path d="M 50.984375 -16.609375 
L 50.984375 -23.578125 
L -0.984375 -23.578125 
L -0.984375 -16.609375 
z
" id="DejaVuSans-95"/>
     <path d="M 40.578125 39.3125 
Q 47.65625 37.796875 51.625 33 
Q 55.609375 28.21875 55.609375 21.1875 
Q 55.609375 10.40625 48.1875 4.484375 
Q 40.765625 -1.421875 27.09375 -1.421875 
Q 22.515625 -1.421875 17.65625 -0.515625 
Q 12.796875 0.390625 7.625 2.203125 
L 7.625 11.71875 
Q 11.71875 9.328125 16.59375 8.109375 
Q 21.484375 6.890625 26.8125 6.890625 
Q 36.078125 6.890625 40.9375 10.546875 
Q 45.796875 14.203125 45.796875 21.1875 
Q 45.796875 27.640625 41.28125 31.265625 
Q 36.765625 34.90625 28.71875 34.90625 
L 20.21875 34.90625 
L 20.21875 43.015625 
L 29.109375 43.015625 
Q 36.375 43.015625 40.234375 45.921875 
Q 44.09375 48.828125 44.09375 54.296875 
Q 44.09375 59.90625 40.109375 62.90625 
Q 36.140625 65.921875 28.71875 65.921875 
Q 24.65625 65.921875 20.015625 65.03125 
Q 15.375 64.15625 9.8125 62.3125 
L 9.8125 71.09375 
Q 15.4375 72.65625 20.34375 73.4375 
Q 25.25 74.21875 29.59375 74.21875 
Q 40.828125 74.21875 47.359375 69.109375 
Q 53.90625 64.015625 53.90625 55.328125 
Q 53.90625 49.265625 50.4375 45.09375 
Q 46.96875 40.921875 40.578125 39.3125 
z
" id="DejaVuSans-51"/>
     <path d="M 10.6875 12.40625 
L 21 12.40625 
L 21 0 
L 10.6875 0 
z
" id="DejaVuSans-46"/>
     <path d="M 2.984375 54.6875 
L 12.5 54.6875 
L 29.59375 8.796875 
L 46.6875 54.6875 
L 56.203125 54.6875 
L 35.6875 0 
L 23.484375 0 
z
" id="DejaVuSans-118"/>
    </defs>
    <g transform="translate(392.638125 45.84)scale(0.12 -0.12)">
     <use xlink:href="#DejaVuSans-115"/>
     <use x="52.099609" xlink:href="#DejaVuSans-121"/>
     <use x="111.279297" xlink:href="#DejaVuSans-110"/>
     <use x="174.658203" xlink:href="#DejaVuSans-116"/>
     <use x="213.867188" xlink:href="#DejaVuSans-104"/>
     <use x="277.246094" xlink:href="#DejaVuSans-101"/>
     <use x="338.769531" xlink:href="#DejaVuSans-116"/>
     <use x="377.978516" xlink:href="#DejaVuSans-105"/>
     <use x="405.761719" xlink:href="#DejaVuSans-99"/>
     <use x="460.742188" xlink:href="#DejaVuSans-95"/>
     <use x="510.742188" xlink:href="#DejaVuSans-52"/>
     <use x="574.365234" xlink:href="#DejaVuSans-51"/>
     <use x="637.988281" xlink:href="#DejaVuSans-46"/>
     <use x="669.775391" xlink:href="#DejaVuSans-99"/>
     <use x="724.755859" xlink:href="#DejaVuSans-115"/>
     <use x="776.855469" xlink:href="#DejaVuSans-118"/>
    </g>
   </g>
   <g id="legend_1">
    <g id="patch_44">
     <path d="M 115 74.518125 
L 174.315625 74.518125 
Q 176.315625 74.518125 176.315625 72.518125 
L 176.315625 58.84 
Q 176.315625 56.84 174.315625 56.84 
L 115 56.84 
Q 113 56.84 113 58.84 
L 113 72.518125 
Q 113 74.518125 115 74.518125 
z
" style="fill:#ffffff;opacity:0.8;stroke:#cccccc;stroke-linejoin:miter;"/>
    </g>
    <g id="line2d_16">
     <path d="M 117 64.938438 
L 137 64.938438 
" style="fill:none;stroke:#1f77b4;stroke-linecap:square;stroke-width:1.5;"/>
    </g>
    <g id="line2d_17"/>
    <g id="text_17">
     <!-- value -->
     <g transform="translate(145 68.438438)scale(0.1 -0.1)">
      <use xlink:href="#DejaVuSans-118"/>
      <use x="59.179688" xlink:href="#DejaVuSans-97"/>
      <use x="120.458984" xlink:href="#DejaVuSans-108"/>
      <use x="148.242188" xlink:href="#DejaVuSans-117"/>
      <use x="211.621094" xlink:href="#DejaVuSans-101"/>
     </g>
    </g>
   </g>
  </g>
 </g>
 <defs>
  <clipPath id="p166401fa01">
   <rect height="332.64" width="669.6" x="108" y="51.84"/>
  </clipPath>
 </defs>
</svg>
