<?xml version="1.0" encoding="utf-8" standalone="no"?>
<!DOCTYPE svg PUBLIC "-//W3C//DTD SVG 1.1//EN"
  "http://www.w3.org/Graphics/SVG/1.1/DTD/svg11.dtd">
<!-- Created with matplotlib (https://matplotlib.org/) -->
<svg height="432pt" version="1.1" viewBox="0 0 864 432" width="864pt" xmlns="http://www.w3.org/2000/svg" xmlns:xlink="http://www.w3.org/1999/xlink">
 <defs>
  <style type="text/css">
*{stroke-linecap:butt;stroke-linejoin:round;}
  </style>
 </defs>
 <g id="figure_1">
  <g id="patch_1">
   <path d="M 0 432 
L 864 432 
L 864 0 
L 0 0 
z
" style="fill:#ffffff;"/>
  </g>
  <g id="axes_1">
   <g id="patch_2">
    <path d="M 108 384.48 
L 777.6 384.48 
L 777.6 51.84 
L 108 51.84 
z
" style="fill:#ffffff;"/>
   </g>
   <g id="patch_3">
    <path clip-path="url(#pc1eb2ead6e)" d="M 138.436364 384.48 
L 138.436364 51.84 
L 373.383732 51.84 
L 373.383732 384.48 
z
" style="fill:#0000ff;opacity:0.05;"/>
   </g>
   <g id="patch_4">
    <path clip-path="url(#pc1eb2ead6e)" d="M 373.383732 384.48 
L 373.383732 51.84 
L 747.163636 51.84 
L 747.163636 384.48 
z
" style="fill:#ff0000;opacity:0.08;"/>
   </g>
   <g id="patch_5">
    <path clip-path="url(#pc1eb2ead6e)" d="M 138.436364 384.48 
L 138.436364 51.84 
L 149.115789 51.84 
L 149.115789 384.48 
z
" style="fill:#008000;opacity:0.04;"/>
   </g>
   <g id="patch_6">
    <path clip-path="url(#pc1eb2ead6e)" d="M 149.115789 384.48 
L 149.115789 371.1744 
L 159.795215 371.1744 
L 159.795215 384.48 
z
" style="fill:#ffe500;"/>
   </g>
   <g id="patch_7">
    <path clip-path="url(#pc1eb2ead6e)" d="M 159.795215 384.48 
L 159.795215 51.84 
L 170.474641 51.84 
L 170.474641 384.48 
z
" style="fill:#008000;opacity:0.04;"/>
   </g>
   <g id="patch_8">
    <path clip-path="url(#pc1eb2ead6e)" d="M 181.154067 384.48 
L 181.154067 51.84 
L 191.833493 51.84 
L 191.833493 384.48 
z
" style="fill:#008000;opacity:0.04;"/>
   </g>
   <g id="patch_9">
    <path clip-path="url(#pc1eb2ead6e)" d="M 202.512919 384.48 
L 202.512919 51.84 
L 213.192344 51.84 
L 213.192344 384.48 
z
" style="fill:#008000;opacity:0.04;"/>
   </g>
   <g id="patch_10">
    <path clip-path="url(#pc1eb2ead6e)" d="M 223.87177 384.48 
L 223.87177 51.84 
L 234.551196 51.84 
L 234.551196 384.48 
z
" style="fill:#008000;opacity:0.04;"/>
   </g>
   <g id="patch_11">
    <path clip-path="url(#pc1eb2ead6e)" d="M 245.230622 384.48 
L 245.230622 51.84 
L 255.910048 51.84 
L 255.910048 384.48 
z
" style="fill:#008000;opacity:0.04;"/>
   </g>
   <g id="patch_12">
    <path clip-path="url(#pc1eb2ead6e)" d="M 490.857416 384.48 
L 490.857416 371.1744 
L 501.536842 371.1744 
L 501.536842 384.48 
z
" style="fill:#ff6600;"/>
   </g>
   <g id="patch_13">
    <path clip-path="url(#pc1eb2ead6e)" d="M 266.589474 384.48 
L 266.589474 51.84 
L 277.2689 51.84 
L 277.2689 384.48 
z
" style="fill:#008000;opacity:0.04;"/>
   </g>
   <g id="patch_14">
    <path clip-path="url(#pc1eb2ead6e)" d="M 287.948325 384.48 
L 287.948325 51.84 
L 298.627751 51.84 
L 298.627751 384.48 
z
" style="fill:#008000;opacity:0.04;"/>
   </g>
   <g id="patch_15">
    <path clip-path="url(#pc1eb2ead6e)" d="M 309.307177 384.48 
L 309.307177 51.84 
L 319.986603 51.84 
L 319.986603 384.48 
z
" style="fill:#008000;opacity:0.04;"/>
   </g>
   <g id="patch_16">
    <path clip-path="url(#pc1eb2ead6e)" d="M 330.666029 384.48 
L 330.666029 51.84 
L 341.345455 51.84 
L 341.345455 384.48 
z
" style="fill:#008000;opacity:0.04;"/>
   </g>
   <g id="patch_17">
    <path clip-path="url(#pc1eb2ead6e)" d="M 341.345455 384.48 
L 341.345455 371.1744 
L 352.02488 371.1744 
L 352.02488 384.48 
z
" style="fill:#ffe500;"/>
   </g>
   <g id="patch_18">
    <path clip-path="url(#pc1eb2ead6e)" d="M 352.02488 384.48 
L 352.02488 51.84 
L 362.704306 51.84 
L 362.704306 384.48 
z
" style="fill:#008000;opacity:0.04;"/>
   </g>
   <g id="patch_19">
    <path clip-path="url(#pc1eb2ead6e)" d="M 373.383732 384.48 
L 373.383732 51.84 
L 384.063158 51.84 
L 384.063158 384.48 
z
" style="fill:#008000;opacity:0.04;"/>
   </g>
   <g id="patch_20">
    <path clip-path="url(#pc1eb2ead6e)" d="M 394.742584 384.48 
L 394.742584 51.84 
L 405.42201 51.84 
L 405.42201 384.48 
z
" style="fill:#008000;opacity:0.04;"/>
   </g>
   <g id="patch_21">
    <path clip-path="url(#pc1eb2ead6e)" d="M 416.101435 384.48 
L 416.101435 51.84 
L 426.780861 51.84 
L 426.780861 384.48 
z
" style="fill:#008000;opacity:0.04;"/>
   </g>
   <g id="patch_22">
    <path clip-path="url(#pc1eb2ead6e)" d="M 437.460287 384.48 
L 437.460287 51.84 
L 448.139713 51.84 
L 448.139713 384.48 
z
" style="fill:#008000;opacity:0.04;"/>
   </g>
   <g id="patch_23">
    <path clip-path="url(#pc1eb2ead6e)" d="M 458.819139 384.48 
L 458.819139 51.84 
L 469.498565 51.84 
L 469.498565 384.48 
z
" style="fill:#008000;opacity:0.04;"/>
   </g>
   <g id="patch_24">
    <path clip-path="url(#pc1eb2ead6e)" d="M 480.17799 384.48 
L 480.17799 51.84 
L 490.857416 51.84 
L 490.857416 384.48 
z
" style="fill:#008000;opacity:0.04;"/>
   </g>
   <g id="patch_25">
    <path clip-path="url(#pc1eb2ead6e)" d="M 501.536842 384.48 
L 501.536842 51.84 
L 512.216268 51.84 
L 512.216268 384.48 
z
" style="fill:#008000;opacity:0.04;"/>
   </g>
   <g id="patch_26">
    <path clip-path="url(#pc1eb2ead6e)" d="M 512.216268 371.1744 
L 512.216268 51.84 
L 522.895694 51.84 
L 522.895694 371.1744 
z
" style="fill:#008000;opacity:0.5;"/>
   </g>
   <g id="patch_27">
    <path clip-path="url(#pc1eb2ead6e)" d="M 522.895694 384.48 
L 522.895694 51.84 
L 533.57512 51.84 
L 533.57512 384.48 
z
" style="fill:#008000;opacity:0.04;"/>
   </g>
   <g id="patch_28">
    <path clip-path="url(#pc1eb2ead6e)" d="M 544.254545 384.48 
L 544.254545 51.84 
L 554.933971 51.84 
L 554.933971 384.48 
z
" style="fill:#008000;opacity:0.04;"/>
   </g>
   <g id="patch_29">
    <path clip-path="url(#pc1eb2ead6e)" d="M 565.613397 384.48 
L 565.613397 51.84 
L 576.292823 51.84 
L 576.292823 384.48 
z
" style="fill:#008000;opacity:0.04;"/>
   </g>
   <g id="patch_30">
    <path clip-path="url(#pc1eb2ead6e)" d="M 586.972249 384.48 
L 586.972249 51.84 
L 597.651675 51.84 
L 597.651675 384.48 
z
" style="fill:#008000;opacity:0.04;"/>
   </g>
   <g id="patch_31">
    <path clip-path="url(#pc1eb2ead6e)" d="M 608.3311 384.48 
L 608.3311 51.84 
L 619.010526 51.84 
L 619.010526 384.48 
z
" style="fill:#008000;opacity:0.04;"/>
   </g>
   <g id="patch_32">
    <path clip-path="url(#pc1eb2ead6e)" d="M 629.689952 384.48 
L 629.689952 51.84 
L 640.369378 51.84 
L 640.369378 384.48 
z
" style="fill:#008000;opacity:0.04;"/>
   </g>
   <g id="patch_33">
    <path clip-path="url(#pc1eb2ead6e)" d="M 651.048804 384.48 
L 651.048804 51.84 
L 661.72823 51.84 
L 661.72823 384.48 
z
" style="fill:#008000;opacity:0.04;"/>
   </g>
   <g id="patch_34">
    <path clip-path="url(#pc1eb2ead6e)" d="M 672.407656 384.48 
L 672.407656 51.84 
L 683.087081 51.84 
L 683.087081 384.48 
z
" style="fill:#008000;opacity:0.04;"/>
   </g>
   <g id="patch_35">
    <path clip-path="url(#pc1eb2ead6e)" d="M 693.766507 384.48 
L 693.766507 51.84 
L 704.445933 51.84 
L 704.445933 384.48 
z
" style="fill:#008000;opacity:0.04;"/>
   </g>
   <g id="patch_36">
    <path clip-path="url(#pc1eb2ead6e)" d="M 715.125359 384.48 
L 715.125359 51.84 
L 725.804785 51.84 
L 725.804785 384.48 
z
" style="fill:#008000;opacity:0.04;"/>
   </g>
   <g id="patch_37">
    <path clip-path="url(#pc1eb2ead6e)" d="M 736.484211 384.48 
L 736.484211 51.84 
L 747.163636 51.84 
L 747.163636 384.48 
z
" style="fill:#008000;opacity:0.04;"/>
   </g>
   <g id="matplotlib.axis_1">
    <g id="xtick_1">
     <g id="line2d_1">
      <defs>
       <path d="M 0 0 
L 0 3.5 
" id="m84de5e0e98" style="stroke:#000000;stroke-width:0.8;"/>
      </defs>
      <g>
       <use style="stroke:#000000;stroke-width:0.8;" x="138.436364" xlink:href="#m84de5e0e98" y="384.48"/>
      </g>
     </g>
     <g id="text_1">
      <!-- 0 -->
      <defs>
       <path d="M 31.78125 66.40625 
Q 24.171875 66.40625 20.328125 58.90625 
Q 16.5 51.421875 16.5 36.375 
Q 16.5 21.390625 20.328125 13.890625 
Q 24.171875 6.390625 31.78125 6.390625 
Q 39.453125 6.390625 43.28125 13.890625 
Q 47.125 21.390625 47.125 36.375 
Q 47.125 51.421875 43.28125 58.90625 
Q 39.453125 66.40625 31.78125 66.40625 
z
M 31.78125 74.21875 
Q 44.046875 74.21875 50.515625 64.515625 
Q 56.984375 54.828125 56.984375 36.375 
Q 56.984375 17.96875 50.515625 8.265625 
Q 44.046875 -1.421875 31.78125 -1.421875 
Q 19.53125 -1.421875 13.0625 8.265625 
Q 6.59375 17.96875 6.59375 36.375 
Q 6.59375 54.828125 13.0625 64.515625 
Q 19.53125 74.21875 31.78125 74.21875 
z
" id="DejaVuSans-48"/>
      </defs>
      <g transform="translate(135.255114 399.078438)scale(0.1 -0.1)">
       <use xlink:href="#DejaVuSans-48"/>
      </g>
     </g>
    </g>
    <g id="xtick_2">
     <g id="line2d_2">
      <g>
       <use style="stroke:#000000;stroke-width:0.8;" x="223.87177" xlink:href="#m84de5e0e98" y="384.48"/>
      </g>
     </g>
     <g id="text_2">
      <!-- 200 -->
      <defs>
       <path d="M 19.1875 8.296875 
L 53.609375 8.296875 
L 53.609375 0 
L 7.328125 0 
L 7.328125 8.296875 
Q 12.9375 14.109375 22.625 23.890625 
Q 32.328125 33.6875 34.8125 36.53125 
Q 39.546875 41.84375 41.421875 45.53125 
Q 43.3125 49.21875 43.3125 52.78125 
Q 43.3125 58.59375 39.234375 62.25 
Q 35.15625 65.921875 28.609375 65.921875 
Q 23.96875 65.921875 18.8125 64.3125 
Q 13.671875 62.703125 7.8125 59.421875 
L 7.8125 69.390625 
Q 13.765625 71.78125 18.9375 73 
Q 24.125 74.21875 28.421875 74.21875 
Q 39.75 74.21875 46.484375 68.546875 
Q 53.21875 62.890625 53.21875 53.421875 
Q 53.21875 48.921875 51.53125 44.890625 
Q 49.859375 40.875 45.40625 35.40625 
Q 44.1875 33.984375 37.640625 27.21875 
Q 31.109375 20.453125 19.1875 8.296875 
z
" id="DejaVuSans-50"/>
      </defs>
      <g transform="translate(214.32802 399.078438)scale(0.1 -0.1)">
       <use xlink:href="#DejaVuSans-50"/>
       <use x="63.623047" xlink:href="#DejaVuSans-48"/>
       <use x="127.246094" xlink:href="#DejaVuSans-48"/>
      </g>
     </g>
    </g>
    <g id="xtick_3">
     <g id="line2d_3">
      <g>
       <use style="stroke:#000000;stroke-width:0.8;" x="309.307177" xlink:href="#m84de5e0e98" y="384.48"/>
      </g>
     </g>
     <g id="text_3">
      <!-- 400 -->
      <defs>
       <path d="M 37.796875 64.3125 
L 12.890625 25.390625 
L 37.796875 25.390625 
z
M 35.203125 72.90625 
L 47.609375 72.90625 
L 47.609375 25.390625 
L 58.015625 25.390625 
L 58.015625 17.1875 
L 47.609375 17.1875 
L 47.609375 0 
L 37.796875 0 
L 37.796875 17.1875 
L 4.890625 17.1875 
L 4.890625 26.703125 
z
" id="DejaVuSans-52"/>
      </defs>
      <g transform="translate(299.763427 399.078438)scale(0.1 -0.1)">
       <use xlink:href="#DejaVuSans-52"/>
       <use x="63.623047" xlink:href="#DejaVuSans-48"/>
       <use x="127.246094" xlink:href="#DejaVuSans-48"/>
      </g>
     </g>
    </g>
    <g id="xtick_4">
     <g id="line2d_4">
      <g>
       <use style="stroke:#000000;stroke-width:0.8;" x="394.742584" xlink:href="#m84de5e0e98" y="384.48"/>
      </g>
     </g>
     <g id="text_4">
      <!-- 600 -->
      <defs>
       <path d="M 33.015625 40.375 
Q 26.375 40.375 22.484375 35.828125 
Q 18.609375 31.296875 18.609375 23.390625 
Q 18.609375 15.53125 22.484375 10.953125 
Q 26.375 6.390625 33.015625 6.390625 
Q 39.65625 6.390625 43.53125 10.953125 
Q 47.40625 15.53125 47.40625 23.390625 
Q 47.40625 31.296875 43.53125 35.828125 
Q 39.65625 40.375 33.015625 40.375 
z
M 52.59375 71.296875 
L 52.59375 62.3125 
Q 48.875 64.0625 45.09375 64.984375 
Q 41.3125 65.921875 37.59375 65.921875 
Q 27.828125 65.921875 22.671875 59.328125 
Q 17.53125 52.734375 16.796875 39.40625 
Q 19.671875 43.65625 24.015625 45.921875 
Q 28.375 48.1875 33.59375 48.1875 
Q 44.578125 48.1875 50.953125 41.515625 
Q 57.328125 34.859375 57.328125 23.390625 
Q 57.328125 12.15625 50.6875 5.359375 
Q 44.046875 -1.421875 33.015625 -1.421875 
Q 20.359375 -1.421875 13.671875 8.265625 
Q 6.984375 17.96875 6.984375 36.375 
Q 6.984375 53.65625 15.1875 63.9375 
Q 23.390625 74.21875 37.203125 74.21875 
Q 40.921875 74.21875 44.703125 73.484375 
Q 48.484375 72.75 52.59375 71.296875 
z
" id="DejaVuSans-54"/>
      </defs>
      <g transform="translate(385.198834 399.078438)scale(0.1 -0.1)">
       <use xlink:href="#DejaVuSans-54"/>
       <use x="63.623047" xlink:href="#DejaVuSans-48"/>
       <use x="127.246094" xlink:href="#DejaVuSans-48"/>
      </g>
     </g>
    </g>
    <g id="xtick_5">
     <g id="line2d_5">
      <g>
       <use style="stroke:#000000;stroke-width:0.8;" x="480.17799" xlink:href="#m84de5e0e98" y="384.48"/>
      </g>
     </g>
     <g id="text_5">
      <!-- 800 -->
      <defs>
       <path d="M 31.78125 34.625 
Q 24.75 34.625 20.71875 30.859375 
Q 16.703125 27.09375 16.703125 20.515625 
Q 16.703125 13.921875 20.71875 10.15625 
Q 24.75 6.390625 31.78125 6.390625 
Q 38.8125 6.390625 42.859375 10.171875 
Q 46.921875 13.96875 46.921875 20.515625 
Q 46.921875 27.09375 42.890625 30.859375 
Q 38.875 34.625 31.78125 34.625 
z
M 21.921875 38.8125 
Q 15.578125 40.375 12.03125 44.71875 
Q 8.5 49.078125 8.5 55.328125 
Q 8.5 64.0625 14.71875 69.140625 
Q 20.953125 74.21875 31.78125 74.21875 
Q 42.671875 74.21875 48.875 69.140625 
Q 55.078125 64.0625 55.078125 55.328125 
Q 55.078125 49.078125 51.53125 44.71875 
Q 48 40.375 41.703125 38.8125 
Q 48.828125 37.15625 52.796875 32.3125 
Q 56.78125 27.484375 56.78125 20.515625 
Q 56.78125 9.90625 50.3125 4.234375 
Q 43.84375 -1.421875 31.78125 -1.421875 
Q 19.734375 -1.421875 13.25 4.234375 
Q 6.78125 9.90625 6.78125 20.515625 
Q 6.78125 27.484375 10.78125 32.3125 
Q 14.796875 37.15625 21.921875 38.8125 
z
M 18.3125 54.390625 
Q 18.3125 48.734375 21.84375 45.5625 
Q 25.390625 42.390625 31.78125 42.390625 
Q 38.140625 42.390625 41.71875 45.5625 
Q 45.3125 48.734375 45.3125 54.390625 
Q 45.3125 60.0625 41.71875 63.234375 
Q 38.140625 66.40625 31.78125 66.40625 
Q 25.390625 66.40625 21.84375 63.234375 
Q 18.3125 60.0625 18.3125 54.390625 
z
" id="DejaVuSans-56"/>
      </defs>
      <g transform="translate(470.63424 399.078438)scale(0.1 -0.1)">
       <use xlink:href="#DejaVuSans-56"/>
       <use x="63.623047" xlink:href="#DejaVuSans-48"/>
       <use x="127.246094" xlink:href="#DejaVuSans-48"/>
      </g>
     </g>
    </g>
    <g id="xtick_6">
     <g id="line2d_6">
      <g>
       <use style="stroke:#000000;stroke-width:0.8;" x="565.613397" xlink:href="#m84de5e0e98" y="384.48"/>
      </g>
     </g>
     <g id="text_6">
      <!-- 1000 -->
      <defs>
       <path d="M 12.40625 8.296875 
L 28.515625 8.296875 
L 28.515625 63.921875 
L 10.984375 60.40625 
L 10.984375 69.390625 
L 28.421875 72.90625 
L 38.28125 72.90625 
L 38.28125 8.296875 
L 54.390625 8.296875 
L 54.390625 0 
L 12.40625 0 
z
" id="DejaVuSans-49"/>
      </defs>
      <g transform="translate(552.888397 399.078438)scale(0.1 -0.1)">
       <use xlink:href="#DejaVuSans-49"/>
       <use x="63.623047" xlink:href="#DejaVuSans-48"/>
       <use x="127.246094" xlink:href="#DejaVuSans-48"/>
       <use x="190.869141" xlink:href="#DejaVuSans-48"/>
      </g>
     </g>
    </g>
    <g id="xtick_7">
     <g id="line2d_7">
      <g>
       <use style="stroke:#000000;stroke-width:0.8;" x="651.048804" xlink:href="#m84de5e0e98" y="384.48"/>
      </g>
     </g>
     <g id="text_7">
      <!-- 1200 -->
      <g transform="translate(638.323804 399.078438)scale(0.1 -0.1)">
       <use xlink:href="#DejaVuSans-49"/>
       <use x="63.623047" xlink:href="#DejaVuSans-50"/>
       <use x="127.246094" xlink:href="#DejaVuSans-48"/>
       <use x="190.869141" xlink:href="#DejaVuSans-48"/>
      </g>
     </g>
    </g>
    <g id="xtick_8">
     <g id="line2d_8">
      <g>
       <use style="stroke:#000000;stroke-width:0.8;" x="736.484211" xlink:href="#m84de5e0e98" y="384.48"/>
      </g>
     </g>
     <g id="text_8">
      <!-- 1400 -->
      <g transform="translate(723.759211 399.078438)scale(0.1 -0.1)">
       <use xlink:href="#DejaVuSans-49"/>
       <use x="63.623047" xlink:href="#DejaVuSans-52"/>
       <use x="127.246094" xlink:href="#DejaVuSans-48"/>
       <use x="190.869141" xlink:href="#DejaVuSans-48"/>
      </g>
     </g>
    </g>
    <g id="text_9">
     <!-- Timestamp -->
     <defs>
      <path d="M -0.296875 72.90625 
L 61.375 72.90625 
L 61.375 64.59375 
L 35.5 64.59375 
L 35.5 0 
L 25.59375 0 
L 25.59375 64.59375 
L -0.296875 64.59375 
z
" id="DejaVuSans-84"/>
      <path d="M 9.421875 54.6875 
L 18.40625 54.6875 
L 18.40625 0 
L 9.421875 0 
z
M 9.421875 75.984375 
L 18.40625 75.984375 
L 18.40625 64.59375 
L 9.421875 64.59375 
z
" id="DejaVuSans-105"/>
      <path d="M 52 44.1875 
Q 55.375 50.25 60.0625 53.125 
Q 64.75 56 71.09375 56 
Q 79.640625 56 84.28125 50.015625 
Q 88.921875 44.046875 88.921875 33.015625 
L 88.921875 0 
L 79.890625 0 
L 79.890625 32.71875 
Q 79.890625 40.578125 77.09375 44.375 
Q 74.3125 48.1875 68.609375 48.1875 
Q 61.625 48.1875 57.5625 43.546875 
Q 53.515625 38.921875 53.515625 30.90625 
L 53.515625 0 
L 44.484375 0 
L 44.484375 32.71875 
Q 44.484375 40.625 41.703125 44.40625 
Q 38.921875 48.1875 33.109375 48.1875 
Q 26.21875 48.1875 22.15625 43.53125 
Q 18.109375 38.875 18.109375 30.90625 
L 18.109375 0 
L 9.078125 0 
L 9.078125 54.6875 
L 18.109375 54.6875 
L 18.109375 46.1875 
Q 21.1875 51.21875 25.484375 53.609375 
Q 29.78125 56 35.6875 56 
Q 41.65625 56 45.828125 52.96875 
Q 50 49.953125 52 44.1875 
z
" id="DejaVuSans-109"/>
      <path d="M 56.203125 29.59375 
L 56.203125 25.203125 
L 14.890625 25.203125 
Q 15.484375 15.921875 20.484375 11.0625 
Q 25.484375 6.203125 34.421875 6.203125 
Q 39.59375 6.203125 44.453125 7.46875 
Q 49.3125 8.734375 54.109375 11.28125 
L 54.109375 2.78125 
Q 49.265625 0.734375 44.1875 -0.34375 
Q 39.109375 -1.421875 33.890625 -1.421875 
Q 20.796875 -1.421875 13.15625 6.1875 
Q 5.515625 13.8125 5.515625 26.8125 
Q 5.515625 40.234375 12.765625 48.109375 
Q 20.015625 56 32.328125 56 
Q 43.359375 56 49.78125 48.890625 
Q 56.203125 41.796875 56.203125 29.59375 
z
M 47.21875 32.234375 
Q 47.125 39.59375 43.09375 43.984375 
Q 39.0625 48.390625 32.421875 48.390625 
Q 24.90625 48.390625 20.390625 44.140625 
Q 15.875 39.890625 15.1875 32.171875 
z
" id="DejaVuSans-101"/>
      <path d="M 44.28125 53.078125 
L 44.28125 44.578125 
Q 40.484375 46.53125 36.375 47.5 
Q 32.28125 48.484375 27.875 48.484375 
Q 21.1875 48.484375 17.84375 46.4375 
Q 14.5 44.390625 14.5 40.28125 
Q 14.5 37.15625 16.890625 35.375 
Q 19.28125 33.59375 26.515625 31.984375 
L 29.59375 31.296875 
Q 39.15625 29.25 43.1875 25.515625 
Q 47.21875 21.78125 47.21875 15.09375 
Q 47.21875 7.46875 41.1875 3.015625 
Q 35.15625 -1.421875 24.609375 -1.421875 
Q 20.21875 -1.421875 15.453125 -0.5625 
Q 10.6875 0.296875 5.421875 2 
L 5.421875 11.28125 
Q 10.40625 8.6875 15.234375 7.390625 
Q 20.0625 6.109375 24.8125 6.109375 
Q 31.15625 6.109375 34.5625 8.28125 
Q 37.984375 10.453125 37.984375 14.40625 
Q 37.984375 18.0625 35.515625 20.015625 
Q 33.0625 21.96875 24.703125 23.78125 
L 21.578125 24.515625 
Q 13.234375 26.265625 9.515625 29.90625 
Q 5.8125 33.546875 5.8125 39.890625 
Q 5.8125 47.609375 11.28125 51.796875 
Q 16.75 56 26.8125 56 
Q 31.78125 56 36.171875 55.265625 
Q 40.578125 54.546875 44.28125 53.078125 
z
" id="DejaVuSans-115"/>
      <path d="M 18.3125 70.21875 
L 18.3125 54.6875 
L 36.8125 54.6875 
L 36.8125 47.703125 
L 18.3125 47.703125 
L 18.3125 18.015625 
Q 18.3125 11.328125 20.140625 9.421875 
Q 21.96875 7.515625 27.59375 7.515625 
L 36.8125 7.515625 
L 36.8125 0 
L 27.59375 0 
Q 17.1875 0 13.234375 3.875 
Q 9.28125 7.765625 9.28125 18.015625 
L 9.28125 47.703125 
L 2.6875 47.703125 
L 2.6875 54.6875 
L 9.28125 54.6875 
L 9.28125 70.21875 
z
" id="DejaVuSans-116"/>
      <path d="M 34.28125 27.484375 
Q 23.390625 27.484375 19.1875 25 
Q 14.984375 22.515625 14.984375 16.5 
Q 14.984375 11.71875 18.140625 8.90625 
Q 21.296875 6.109375 26.703125 6.109375 
Q 34.1875 6.109375 38.703125 11.40625 
Q 43.21875 16.703125 43.21875 25.484375 
L 43.21875 27.484375 
z
M 52.203125 31.203125 
L 52.203125 0 
L 43.21875 0 
L 43.21875 8.296875 
Q 40.140625 3.328125 35.546875 0.953125 
Q 30.953125 -1.421875 24.3125 -1.421875 
Q 15.921875 -1.421875 10.953125 3.296875 
Q 6 8.015625 6 15.921875 
Q 6 25.140625 12.171875 29.828125 
Q 18.359375 34.515625 30.609375 34.515625 
L 43.21875 34.515625 
L 43.21875 35.40625 
Q 43.21875 41.609375 39.140625 45 
Q 35.0625 48.390625 27.6875 48.390625 
Q 23 48.390625 18.546875 47.265625 
Q 14.109375 46.140625 10.015625 43.890625 
L 10.015625 52.203125 
Q 14.9375 54.109375 19.578125 55.046875 
Q 24.21875 56 28.609375 56 
Q 40.484375 56 46.34375 49.84375 
Q 52.203125 43.703125 52.203125 31.203125 
z
" id="DejaVuSans-97"/>
      <path d="M 18.109375 8.203125 
L 18.109375 -20.796875 
L 9.078125 -20.796875 
L 9.078125 54.6875 
L 18.109375 54.6875 
L 18.109375 46.390625 
Q 20.953125 51.265625 25.265625 53.625 
Q 29.59375 56 35.59375 56 
Q 45.5625 56 51.78125 48.09375 
Q 58.015625 40.1875 58.015625 27.296875 
Q 58.015625 14.40625 51.78125 6.484375 
Q 45.5625 -1.421875 35.59375 -1.421875 
Q 29.59375 -1.421875 25.265625 0.953125 
Q 20.953125 3.328125 18.109375 8.203125 
z
M 48.6875 27.296875 
Q 48.6875 37.203125 44.609375 42.84375 
Q 40.53125 48.484375 33.40625 48.484375 
Q 26.265625 48.484375 22.1875 42.84375 
Q 18.109375 37.203125 18.109375 27.296875 
Q 18.109375 17.390625 22.1875 11.75 
Q 26.265625 6.109375 33.40625 6.109375 
Q 40.53125 6.109375 44.609375 11.75 
Q 48.6875 17.390625 48.6875 27.296875 
z
" id="DejaVuSans-112"/>
     </defs>
     <g transform="translate(414.739062 412.756563)scale(0.1 -0.1)">
      <use xlink:href="#DejaVuSans-84"/>
      <use x="61.037109" xlink:href="#DejaVuSans-105"/>
      <use x="88.820312" xlink:href="#DejaVuSans-109"/>
      <use x="186.232422" xlink:href="#DejaVuSans-101"/>
      <use x="247.755859" xlink:href="#DejaVuSans-115"/>
      <use x="299.855469" xlink:href="#DejaVuSans-116"/>
      <use x="339.064453" xlink:href="#DejaVuSans-97"/>
      <use x="400.34375" xlink:href="#DejaVuSans-109"/>
      <use x="497.755859" xlink:href="#DejaVuSans-112"/>
     </g>
    </g>
   </g>
   <g id="matplotlib.axis_2">
    <g id="ytick_1">
     <g id="line2d_9">
      <defs>
       <path d="M 0 0 
L -3.5 0 
" id="m2415f5b9eb" style="stroke:#000000;stroke-width:0.8;"/>
      </defs>
      <g>
       <use style="stroke:#000000;stroke-width:0.8;" x="108" xlink:href="#m2415f5b9eb" y="377.208191"/>
      </g>
     </g>
     <g id="text_10">
      <!-- −2000 -->
      <defs>
       <path d="M 10.59375 35.5 
L 73.1875 35.5 
L 73.1875 27.203125 
L 10.59375 27.203125 
z
" id="DejaVuSans-8722"/>
      </defs>
      <g transform="translate(67.170312 381.00741)scale(0.1 -0.1)">
       <use xlink:href="#DejaVuSans-8722"/>
       <use x="83.789062" xlink:href="#DejaVuSans-50"/>
       <use x="147.412109" xlink:href="#DejaVuSans-48"/>
       <use x="211.035156" xlink:href="#DejaVuSans-48"/>
       <use x="274.658203" xlink:href="#DejaVuSans-48"/>
      </g>
     </g>
    </g>
    <g id="ytick_2">
     <g id="line2d_10">
      <g>
       <use style="stroke:#000000;stroke-width:0.8;" x="108" xlink:href="#m2415f5b9eb" y="319.503529"/>
      </g>
     </g>
     <g id="text_11">
      <!-- −1000 -->
      <g transform="translate(67.170312 323.302747)scale(0.1 -0.1)">
       <use xlink:href="#DejaVuSans-8722"/>
       <use x="83.789062" xlink:href="#DejaVuSans-49"/>
       <use x="147.412109" xlink:href="#DejaVuSans-48"/>
       <use x="211.035156" xlink:href="#DejaVuSans-48"/>
       <use x="274.658203" xlink:href="#DejaVuSans-48"/>
      </g>
     </g>
    </g>
    <g id="ytick_3">
     <g id="line2d_11">
      <g>
       <use style="stroke:#000000;stroke-width:0.8;" x="108" xlink:href="#m2415f5b9eb" y="261.798866"/>
      </g>
     </g>
     <g id="text_12">
      <!-- 0 -->
      <g transform="translate(94.6375 265.598085)scale(0.1 -0.1)">
       <use xlink:href="#DejaVuSans-48"/>
      </g>
     </g>
    </g>
    <g id="ytick_4">
     <g id="line2d_12">
      <g>
       <use style="stroke:#000000;stroke-width:0.8;" x="108" xlink:href="#m2415f5b9eb" y="204.094203"/>
      </g>
     </g>
     <g id="text_13">
      <!-- 1000 -->
      <g transform="translate(75.55 207.893422)scale(0.1 -0.1)">
       <use xlink:href="#DejaVuSans-49"/>
       <use x="63.623047" xlink:href="#DejaVuSans-48"/>
       <use x="127.246094" xlink:href="#DejaVuSans-48"/>
       <use x="190.869141" xlink:href="#DejaVuSans-48"/>
      </g>
     </g>
    </g>
    <g id="ytick_5">
     <g id="line2d_13">
      <g>
       <use style="stroke:#000000;stroke-width:0.8;" x="108" xlink:href="#m2415f5b9eb" y="146.389541"/>
      </g>
     </g>
     <g id="text_14">
      <!-- 2000 -->
      <g transform="translate(75.55 150.18876)scale(0.1 -0.1)">
       <use xlink:href="#DejaVuSans-50"/>
       <use x="63.623047" xlink:href="#DejaVuSans-48"/>
       <use x="127.246094" xlink:href="#DejaVuSans-48"/>
       <use x="190.869141" xlink:href="#DejaVuSans-48"/>
      </g>
     </g>
    </g>
    <g id="ytick_6">
     <g id="line2d_14">
      <g>
       <use style="stroke:#000000;stroke-width:0.8;" x="108" xlink:href="#m2415f5b9eb" y="88.684878"/>
      </g>
     </g>
     <g id="text_15">
      <!-- 3000 -->
      <defs>
       <path d="M 40.578125 39.3125 
Q 47.65625 37.796875 51.625 33 
Q 55.609375 28.21875 55.609375 21.1875 
Q 55.609375 10.40625 48.1875 4.484375 
Q 40.765625 -1.421875 27.09375 -1.421875 
Q 22.515625 -1.421875 17.65625 -0.515625 
Q 12.796875 0.390625 7.625 2.203125 
L 7.625 11.71875 
Q 11.71875 9.328125 16.59375 8.109375 
Q 21.484375 6.890625 26.8125 6.890625 
Q 36.078125 6.890625 40.9375 10.546875 
Q 45.796875 14.203125 45.796875 21.1875 
Q 45.796875 27.640625 41.28125 31.265625 
Q 36.765625 34.90625 28.71875 34.90625 
L 20.21875 34.90625 
L 20.21875 43.015625 
L 29.109375 43.015625 
Q 36.375 43.015625 40.234375 45.921875 
Q 44.09375 48.828125 44.09375 54.296875 
Q 44.09375 59.90625 40.109375 62.90625 
Q 36.140625 65.921875 28.71875 65.921875 
Q 24.65625 65.921875 20.015625 65.03125 
Q 15.375 64.15625 9.8125 62.3125 
L 9.8125 71.09375 
Q 15.4375 72.65625 20.34375 73.4375 
Q 25.25 74.21875 29.59375 74.21875 
Q 40.828125 74.21875 47.359375 69.109375 
Q 53.90625 64.015625 53.90625 55.328125 
Q 53.90625 49.265625 50.4375 45.09375 
Q 46.96875 40.921875 40.578125 39.3125 
z
" id="DejaVuSans-51"/>
      </defs>
      <g transform="translate(75.55 92.484097)scale(0.1 -0.1)">
       <use xlink:href="#DejaVuSans-51"/>
       <use x="63.623047" xlink:href="#DejaVuSans-48"/>
       <use x="127.246094" xlink:href="#DejaVuSans-48"/>
       <use x="190.869141" xlink:href="#DejaVuSans-48"/>
      </g>
     </g>
    </g>
    <g id="text_16">
     <!-- Value -->
     <defs>
      <path d="M 28.609375 0 
L 0.78125 72.90625 
L 11.078125 72.90625 
L 34.1875 11.53125 
L 57.328125 72.90625 
L 67.578125 72.90625 
L 39.796875 0 
z
" id="DejaVuSans-86"/>
      <path d="M 9.421875 75.984375 
L 18.40625 75.984375 
L 18.40625 0 
L 9.421875 0 
z
" id="DejaVuSans-108"/>
      <path d="M 8.5 21.578125 
L 8.5 54.6875 
L 17.484375 54.6875 
L 17.484375 21.921875 
Q 17.484375 14.15625 20.5 10.265625 
Q 23.53125 6.390625 29.59375 6.390625 
Q 36.859375 6.390625 41.078125 11.03125 
Q 45.3125 15.671875 45.3125 23.6875 
L 45.3125 54.6875 
L 54.296875 54.6875 
L 54.296875 0 
L 45.3125 0 
L 45.3125 8.40625 
Q 42.046875 3.421875 37.71875 1 
Q 33.40625 -1.421875 27.6875 -1.421875 
Q 18.265625 -1.421875 13.375 4.4375 
Q 8.5 10.296875 8.5 21.578125 
z
M 31.109375 56 
z
" id="DejaVuSans-117"/>
     </defs>
     <g transform="translate(61.090625 232.273281)rotate(-90)scale(0.1 -0.1)">
      <use xlink:href="#DejaVuSans-86"/>
      <use x="68.298828" xlink:href="#DejaVuSans-97"/>
      <use x="129.578125" xlink:href="#DejaVuSans-108"/>
      <use x="157.361328" xlink:href="#DejaVuSans-117"/>
      <use x="220.740234" xlink:href="#DejaVuSans-101"/>
     </g>
    </g>
   </g>
   <g id="line2d_15">
    <path clip-path="url(#pc1eb2ead6e)" d="M 138.436364 274.79698 
L 138.863541 255.725228 
L 139.290718 274.763275 
L 139.717895 221.932295 
L 140.572249 267.887237 
L 140.999426 238.468251 
L 141.426603 231.077104 
L 141.85378 232.308985 
L 142.280957 248.52285 
L 142.708134 208.54005 
L 143.562488 248.762826 
L 143.989665 279.877309 
L 144.416842 208.247964 
L 144.844019 230.578324 
L 145.271196 227.962104 
L 145.698373 205.969432 
L 146.12555 206.554515 
L 146.552727 209.346929 
L 146.979904 200.659691 
L 147.407081 201.623657 
L 147.834258 214.506848 
L 148.261435 255.675986 
L 148.688612 199.530756 
L 149.115789 211.853242 
L 149.542967 212.205934 
L 149.970144 237.911054 
L 151.251675 174.137243 
L 151.678852 203.050654 
L 152.106029 191.344481 
L 152.533206 199.094583 
L 152.960383 225.25708 
L 153.38756 203.857905 
L 153.814737 202.114184 
L 154.241914 193.870247 
L 154.669091 168.501065 
L 155.096268 174.347737 
L 155.523445 192.551597 
L 155.950622 193.330541 
L 156.377799 172.512721 
L 156.804976 174.46526 
L 157.232153 199.490724 
L 157.65933 199.015142 
L 158.086507 175.869299 
L 158.513684 166.694943 
L 158.940861 184.339368 
L 159.368038 162.993296 
L 159.795215 172.458717 
L 160.222392 192.960253 
L 160.649569 172.61959 
L 161.076746 202.822379 
L 161.503923 149.071092 
L 161.9311 137.351666 
L 162.358278 185.995634 
L 162.785455 199.893174 
L 163.212632 166.127705 
L 163.639809 180.719384 
L 164.066986 127.844184 
L 164.494163 178.714746 
L 164.92134 163.610085 
L 165.775694 193.793891 
L 166.202871 174.628554 
L 166.630048 216.468277 
L 167.057225 148.702094 
L 167.484402 176.457997 
L 167.911579 134.866195 
L 168.338756 170.748415 
L 168.765933 196.026936 
L 169.19311 169.153479 
L 169.620287 202.025948 
L 170.047464 209.42711 
L 170.474641 178.038333 
L 170.901818 194.193294 
L 171.328995 185.83658 
L 171.756172 185.262344 
L 172.183349 200.09285 
L 172.610526 200.709032 
L 173.037703 192.777844 
L 173.46488 166.567353 
L 173.892057 224.039979 
L 174.319234 181.168611 
L 174.746411 187.889875 
L 175.173589 174.008275 
L 175.600766 203.862201 
L 176.027943 191.231228 
L 176.45512 194.82985 
L 176.882297 213.189979 
L 177.309474 178.260531 
L 177.736651 180.820634 
L 178.163828 192.014986 
L 178.591005 175.18892 
L 179.018182 198.288539 
L 179.445359 238.226552 
L 179.872536 225.317884 
L 180.299713 240.6595 
L 180.72689 226.813134 
L 181.154067 231.705016 
L 181.581244 219.761597 
L 182.008421 241.496981 
L 182.435598 221.135483 
L 182.862775 239.992105 
L 183.289952 191.491072 
L 183.717129 215.345747 
L 184.144306 213.303524 
L 184.571483 226.265431 
L 184.99866 201.246745 
L 185.425837 251.56629 
L 185.853014 249.986433 
L 186.280191 212.591045 
L 186.707368 258.049629 
L 187.134545 250.890045 
L 187.561722 256.834579 
L 187.9889 257.404603 
L 188.416077 258.643412 
L 188.843254 244.626871 
L 189.270431 260.708442 
L 189.697608 269.646094 
L 190.124785 233.218324 
L 190.551962 267.751018 
L 190.979139 269.10126 
L 191.406316 269.520743 
L 191.833493 254.652055 
L 192.26067 273.084551 
L 192.687847 274.378789 
L 193.115024 289.824476 
L 193.969378 278.385963 
L 194.396555 293.888687 
L 194.823732 272.512623 
L 195.250909 317.157689 
L 195.678086 281.062816 
L 196.105263 321.353611 
L 196.53244 297.491002 
L 196.959617 304.074333 
L 197.386794 308.474772 
L 197.813971 297.868782 
L 198.241148 338.325409 
L 198.668325 275.668933 
L 199.095502 336.562373 
L 199.522679 313.201111 
L 199.949856 328.423049 
L 200.377033 322.413382 
L 200.804211 264.853086 
L 201.231388 309.489984 
L 201.658565 338.129216 
L 202.085742 346.950967 
L 202.512919 304.79655 
L 202.940096 315.918458 
L 203.367273 323.471478 
L 204.221627 350.325141 
L 204.648804 342.914967 
L 205.075981 300.816103 
L 205.503158 335.67288 
L 205.930335 352.604801 
L 206.357512 285.810128 
L 206.784689 316.829163 
L 207.211866 331.539594 
L 207.639043 305.350671 
L 208.06622 309.714834 
L 208.493397 341.80707 
L 208.920574 283.625032 
L 209.347751 335.513749 
L 209.774928 360.441059 
L 210.202105 334.28585 
L 210.629282 327.410302 
L 211.056459 284.055542 
L 211.483636 330.274414 
L 211.910813 323.246913 
L 212.33799 334.606109 
L 212.765167 340.13215 
L 213.192344 334.016693 
L 213.619522 316.947719 
L 214.046699 290.130265 
L 214.473876 311.906698 
L 214.901053 308.037583 
L 215.32823 358.684545 
L 215.755407 312.316047 
L 216.182584 327.9515 
L 216.609761 362.76204 
L 217.036938 320.95159 
L 217.464115 334.664222 
L 217.891292 300.343883 
L 218.318469 346.252433 
L 218.745646 338.641279 
L 219.172823 348.302263 
L 220.027177 319.134715 
L 220.454354 341.921796 
L 220.881531 308.49717 
L 221.308708 350.025365 
L 221.735885 345.703071 
L 222.163062 292.812671 
L 222.590239 342.907155 
L 223.017416 312.025834 
L 223.444593 327.359658 
L 223.87177 309.658479 
L 224.298947 281.723809 
L 224.726124 282.526823 
L 225.580478 360.391826 
L 226.007656 259.296632 
L 226.434833 295.92721 
L 226.86201 297.001866 
L 227.289187 306.972585 
L 227.716364 294.442913 
L 228.143541 306.830914 
L 228.570718 292.943622 
L 229.425072 326.745262 
L 229.852249 275.820425 
L 230.279426 262.904365 
L 230.706603 299.127567 
L 231.13378 316.907454 
L 231.560957 275.496146 
L 231.988134 287.854424 
L 232.415311 321.050821 
L 232.842488 282.899108 
L 233.269665 294.048574 
L 233.696842 285.974807 
L 234.124019 300.898168 
L 234.551196 237.157643 
L 234.978373 279.514584 
L 235.40555 303.942864 
L 235.832727 264.256687 
L 236.259904 260.735902 
L 236.687081 284.596554 
L 237.114258 322.072815 
L 237.541435 273.058369 
L 237.968612 245.648398 
L 238.395789 256.588057 
L 238.822967 255.196188 
L 239.250144 239.272849 
L 239.677321 273.474618 
L 240.104498 223.715689 
L 240.531675 244.480438 
L 240.958852 227.444422 
L 241.386029 218.451387 
L 241.813206 233.159011 
L 242.240383 253.948283 
L 242.66756 209.256127 
L 243.094737 272.998204 
L 243.521914 240.542955 
L 243.949091 232.396358 
L 244.376268 228.422513 
L 244.803445 201.612779 
L 245.230622 217.959548 
L 245.657799 210.261895 
L 246.084976 218.162434 
L 246.512153 219.86083 
L 246.93933 198.226489 
L 247.366507 186.877673 
L 247.793684 258.881066 
L 248.220861 194.984302 
L 248.648038 197.232508 
L 249.075215 212.051278 
L 249.502392 181.567094 
L 249.929569 207.705056 
L 250.356746 203.772687 
L 251.2111 158.641012 
L 251.638278 187.200488 
L 252.492632 214.440533 
L 252.919809 195.048361 
L 253.346986 206.255346 
L 254.20134 175.642012 
L 254.628517 200.259911 
L 255.055694 126.031728 
L 255.482871 176.717381 
L 255.910048 155.220958 
L 256.337225 225.296224 
L 256.764402 161.069618 
L 257.191579 202.869964 
L 257.618756 155.285708 
L 258.045933 165.199968 
L 258.47311 181.082014 
L 258.900287 144.158131 
L 259.327464 185.556676 
L 259.754641 182.302495 
L 260.181818 190.37381 
L 260.608995 182.806372 
L 261.036172 148.61998 
L 261.463349 158.752457 
L 261.890526 146.381509 
L 262.317703 175.036373 
L 262.74488 158.7149 
L 263.172057 161.170943 
L 263.599234 195.726814 
L 264.026411 128.7842 
L 264.453589 162.902923 
L 264.880766 149.684403 
L 265.307943 145.722243 
L 265.73512 166.715497 
L 266.162297 172.132628 
L 266.589474 147.302272 
L 267.016651 187.948653 
L 267.443828 125.335954 
L 267.871005 174.719057 
L 268.298182 132.651076 
L 268.725359 136.045074 
L 269.152536 166.31087 
L 269.579713 156.770646 
L 270.00689 190.53134 
L 270.434067 163.115834 
L 270.861244 148.814038 
L 271.288421 169.252367 
L 271.715598 181.591373 
L 272.142775 186.658453 
L 272.569952 174.663588 
L 272.997129 152.611268 
L 273.424306 185.983077 
L 273.851483 179.488818 
L 274.27866 205.041718 
L 274.705837 168.948113 
L 275.133014 153.20878 
L 275.560191 150.523202 
L 275.987368 166.036407 
L 276.414545 223.300975 
L 276.841722 175.695003 
L 277.2689 177.661812 
L 277.696077 195.993671 
L 278.123254 186.588061 
L 278.550431 209.68493 
L 278.977608 179.120229 
L 279.831962 229.230643 
L 280.259139 205.887882 
L 280.686316 171.531838 
L 281.113493 208.671376 
L 281.54067 188.226688 
L 281.967847 185.58408 
L 282.395024 207.050539 
L 282.822201 216.347119 
L 283.249378 221.932469 
L 283.676555 197.405399 
L 284.103732 236.90132 
L 284.530909 211.575764 
L 284.958086 224.711256 
L 285.385263 267.855104 
L 285.81244 252.032764 
L 286.239617 205.627585 
L 286.666794 230.732688 
L 287.521148 191.541003 
L 287.948325 202.226826 
L 288.375502 220.89901 
L 288.802679 229.175975 
L 289.229856 243.195586 
L 289.657033 208.400885 
L 290.084211 230.94291 
L 290.511388 269.90326 
L 290.938565 250.789505 
L 291.365742 289.609006 
L 291.792919 255.786646 
L 292.220096 307.798544 
L 292.647273 228.494394 
L 293.07445 271.167188 
L 293.501627 268.935554 
L 293.928804 265.544184 
L 294.355981 251.288771 
L 294.783158 251.921493 
L 295.210335 256.214774 
L 295.637512 281.948761 
L 296.064689 300.377794 
L 296.491866 282.01214 
L 296.919043 270.039068 
L 297.34622 294.864744 
L 297.773397 281.018464 
L 298.200574 305.747836 
L 298.627751 283.408787 
L 299.054928 282.334515 
L 299.482105 289.810469 
L 299.909282 291.907701 
L 300.336459 253.444865 
L 300.763636 275.951372 
L 301.190813 270.304391 
L 301.61799 314.272395 
L 302.472344 274.038123 
L 302.899522 300.740255 
L 303.326699 345.347766 
L 303.753876 295.192281 
L 304.181053 343.401648 
L 304.60823 321.915742 
L 305.035407 278.691565 
L 305.462584 294.656683 
L 305.889761 285.902617 
L 306.316938 303.37157 
L 306.744115 313.120133 
L 307.171292 331.097917 
L 307.598469 279.628713 
L 308.025646 312.79134 
L 308.452823 329.492624 
L 308.88 297.38648 
L 309.307177 293.790563 
L 309.734354 277.392966 
L 310.161531 330.099273 
L 310.588708 326.282258 
L 311.015885 327.357903 
L 311.443062 327.005491 
L 311.870239 327.254803 
L 312.297416 326.158484 
L 312.724593 290.289831 
L 313.15177 335.125287 
L 313.578947 328.893918 
L 314.006124 307.371277 
L 314.433301 297.633874 
L 314.860478 337.191658 
L 315.287656 331.677833 
L 315.714833 310.115188 
L 316.14201 299.694013 
L 316.996364 350.258089 
L 317.423541 284.568014 
L 317.850718 289.922437 
L 318.277895 334.204231 
L 318.705072 320.294958 
L 319.132249 355.06926 
L 319.559426 305.971179 
L 319.986603 283.619077 
L 320.41378 350.625908 
L 320.840957 332.017023 
L 321.268134 328.338915 
L 321.695311 328.322862 
L 322.122488 355.589165 
L 322.549665 301.844329 
L 322.976842 343.185301 
L 323.404019 310.741621 
L 323.831196 296.763286 
L 324.258373 312.09053 
L 324.68555 288.177495 
L 325.112727 306.044725 
L 325.539904 317.703696 
L 325.967081 289.404546 
L 326.394258 310.518512 
L 326.821435 263.123239 
L 327.248612 298.954472 
L 327.675789 279.291609 
L 328.102967 291.224871 
L 328.530144 356.562291 
L 328.957321 320.721357 
L 329.384498 299.423084 
L 329.811675 283.94395 
L 330.238852 335.932039 
L 330.666029 265.315106 
L 331.093206 296.125244 
L 331.520383 297.371523 
L 331.94756 312.216865 
L 332.374737 308.191952 
L 332.801914 274.797918 
L 333.229091 263.39994 
L 333.656268 315.726748 
L 334.083445 290.937405 
L 334.510622 256.821958 
L 334.937799 275.366734 
L 335.364976 218.748508 
L 335.792153 235.813975 
L 336.646507 257.430623 
L 337.073684 249.57511 
L 337.500861 267.949297 
L 337.928038 238.000529 
L 338.355215 218.077262 
L 338.782392 224.163958 
L 339.209569 261.488904 
L 339.636746 276.080913 
L 340.063923 242.447792 
L 340.4911 228.783204 
L 340.918278 207.62799 
L 341.345455 261.044054 
L 341.772632 223.792009 
L 342.199809 224.329598 
L 342.626986 202.138594 
L 343.054163 225.415385 
L 343.48134 230.109192 
L 343.908517 244.398093 
L 344.335694 229.140668 
L 344.762871 223.772324 
L 345.190048 165.14464 
L 345.617225 161.042368 
L 346.044402 213.394077 
L 346.898756 246.907001 
L 347.325933 193.061744 
L 347.75311 224.499255 
L 348.180287 152.210898 
L 348.607464 216.300301 
L 349.034641 193.612387 
L 349.461818 114.657176 
L 349.888995 215.263957 
L 350.316172 183.921083 
L 350.743349 211.582789 
L 351.170526 179.512533 
L 351.597703 203.210618 
L 352.02488 181.709514 
L 352.452057 187.841591 
L 352.879234 204.681701 
L 353.733589 156.247041 
L 354.160766 142.195659 
L 354.587943 202.534849 
L 355.442297 146.996512 
L 355.869474 193.032 
L 356.296651 221.211865 
L 356.723828 186.801411 
L 357.151005 186.267681 
L 357.578182 163.991683 
L 358.005359 172.302999 
L 358.432536 158.032093 
L 358.859713 170.665855 
L 359.28689 153.138188 
L 359.714067 167.67252 
L 360.141244 134.425947 
L 360.568421 173.799571 
L 360.995598 151.661474 
L 361.422775 175.47985 
L 361.849952 152.099635 
L 362.277129 156.867607 
L 362.704306 190.460334 
L 363.55866 129.943908 
L 364.413014 150.930584 
L 364.840191 178.529809 
L 365.267368 129.169947 
L 365.694545 151.767998 
L 366.121722 162.777166 
L 366.5489 119.165523 
L 366.976077 169.464954 
L 367.830431 127.027314 
L 368.257608 141.414619 
L 368.684785 160.643858 
L 369.111962 163.308887 
L 369.539139 147.595006 
L 369.966316 144.752254 
L 370.393493 155.5721 
L 370.82067 129.060284 
L 371.247847 158.516757 
L 371.675024 172.407339 
L 372.102201 147.353093 
L 372.529378 205.192418 
L 372.956555 151.992983 
L 373.383732 150.689607 
L 374.238086 186.232946 
L 374.665263 172.223831 
L 375.09244 132.793388 
L 375.519617 181.697794 
L 375.946794 215.960086 
L 376.373971 151.691252 
L 376.801148 180.323904 
L 377.228325 181.837226 
L 377.655502 197.869727 
L 378.082679 174.421626 
L 378.509856 160.785002 
L 378.937033 189.112287 
L 379.364211 191.033913 
L 379.791388 157.109267 
L 380.218565 186.705662 
L 380.645742 186.512426 
L 381.072919 197.883715 
L 381.500096 167.790493 
L 381.927273 208.990357 
L 382.35445 172.35198 
L 382.781627 175.051954 
L 383.208804 203.397825 
L 383.635981 177.831562 
L 384.063158 176.823566 
L 384.490335 187.286776 
L 384.917512 159.018883 
L 385.344689 244.02069 
L 385.771866 229.372297 
L 386.199043 235.762194 
L 387.053397 178.092022 
L 387.480574 178.179019 
L 387.907751 205.002585 
L 388.334928 198.924724 
L 388.762105 222.310896 
L 389.189282 211.596403 
L 389.616459 215.608046 
L 390.043636 241.384425 
L 390.470813 233.730022 
L 390.89799 232.52111 
L 391.325167 202.76935 
L 391.752344 255.499396 
L 392.179522 280.0324 
L 392.606699 222.070438 
L 393.033876 257.15832 
L 393.461053 251.31657 
L 393.88823 225.452861 
L 394.315407 262.252991 
L 394.742584 255.50846 
L 395.169761 219.140203 
L 395.596938 241.45266 
L 396.024115 243.168275 
L 396.451292 259.297923 
L 396.878469 282.100212 
L 397.305646 291.547195 
L 397.732823 266.952574 
L 398.16 222.50678 
L 398.587177 261.469258 
L 399.014354 264.520548 
L 399.441531 262.84603 
L 399.868708 279.601873 
L 400.295885 302.488592 
L 400.723062 219.353831 
L 401.150239 285.629966 
L 401.577416 284.70201 
L 402.004593 317.462136 
L 402.43177 286.899512 
L 403.286124 290.160681 
L 403.713301 323.557088 
L 404.140478 250.610357 
L 404.567656 252.463011 
L 404.994833 276.207141 
L 405.42201 314.830842 
L 405.849187 278.301034 
L 406.276364 299.558925 
L 406.703541 302.279636 
L 407.130718 268.378931 
L 407.557895 323.4422 
L 407.985072 309.563673 
L 408.412249 315.14741 
L 408.839426 300.455515 
L 409.266603 334.532603 
L 409.69378 317.268427 
L 410.120957 288.500535 
L 410.548134 294.468111 
L 410.975311 325.138562 
L 411.402488 293.839535 
L 411.829665 356.747898 
L 412.256842 313.694653 
L 412.684019 292.22264 
L 413.111196 321.223615 
L 413.538373 308.616408 
L 413.96555 341.355582 
L 414.392727 290.755404 
L 414.819904 347.156668 
L 415.247081 315.490363 
L 415.674258 314.146432 
L 416.101435 307.584306 
L 416.528612 325.975043 
L 416.955789 270.615013 
L 417.382967 338.37131 
L 417.810144 303.086652 
L 418.237321 369.36 
L 418.664498 307.7533 
L 419.091675 296.813361 
L 419.518852 329.597216 
L 419.946029 291.833041 
L 420.373206 299.080075 
L 420.800383 285.040343 
L 421.22756 322.295478 
L 421.654737 324.240558 
L 422.081914 340.165986 
L 422.509091 309.167048 
L 422.936268 329.472665 
L 423.363445 286.330017 
L 423.790622 298.210276 
L 424.217799 253.058346 
L 424.644976 321.71889 
L 425.072153 271.864642 
L 425.49933 306.296281 
L 425.926507 324.435493 
L 426.353684 280.890302 
L 426.780861 321.372829 
L 427.635215 304.024568 
L 428.062392 282.912876 
L 428.489569 306.62604 
L 428.916746 261.833053 
L 429.343923 307.690784 
L 429.7711 276.59033 
L 430.198278 276.472635 
L 430.625455 299.967134 
L 431.052632 284.971399 
L 431.479809 287.953125 
L 431.906986 252.506034 
L 432.334163 238.251714 
L 432.76134 290.491174 
L 433.188517 247.538212 
L 433.615694 266.579511 
L 434.042871 304.044295 
L 434.897225 249.49537 
L 435.324402 254.061516 
L 435.751579 305.921475 
L 436.178756 240.895695 
L 436.605933 237.259419 
L 437.03311 255.151085 
L 437.460287 261.433665 
L 437.887464 203.494824 
L 438.314641 244.298073 
L 438.741818 240.561153 
L 439.168995 261.507673 
L 439.596172 263.930927 
L 440.023349 265.479069 
L 440.450526 240.352564 
L 440.877703 201.020669 
L 441.30488 190.641838 
L 441.732057 192.308296 
L 442.159234 195.769982 
L 442.586411 225.537856 
L 443.013589 243.897363 
L 443.440766 223.038169 
L 443.867943 264.282844 
L 444.722297 175.112282 
L 445.149474 204.807795 
L 445.576651 182.564732 
L 446.003828 193.071316 
L 446.431005 217.377039 
L 446.858182 162.733194 
L 447.285359 198.607384 
L 447.712536 215.236388 
L 448.139713 191.402775 
L 448.56689 222.491788 
L 448.994067 170.869556 
L 449.421244 176.445747 
L 449.848421 192.341723 
L 450.275598 193.210332 
L 450.702775 161.644762 
L 451.129952 201.423998 
L 451.557129 197.96181 
L 451.984306 166.837336 
L 452.411483 183.317908 
L 452.83866 152.922124 
L 453.265837 174.643215 
L 453.693014 143.965426 
L 454.120191 156.921634 
L 454.547368 212.442472 
L 454.974545 191.959498 
L 455.401722 135.930657 
L 455.8289 146.815937 
L 456.256077 179.948699 
L 456.683254 186.48016 
L 457.110431 135.600321 
L 457.537608 172.777515 
L 457.964785 117.116102 
L 458.391962 116.574496 
L 458.819139 182.659998 
L 459.246316 168.901237 
L 459.673493 176.313075 
L 460.10067 135.393213 
L 460.527847 175.263929 
L 460.955024 189.901399 
L 461.382201 104.589014 
L 461.809378 124.981149 
L 462.236555 128.209648 
L 462.663732 158.412205 
L 463.518086 130.534584 
L 463.945263 169.647982 
L 464.37244 145.11714 
L 464.799617 138.494438 
L 465.226794 106.575738 
L 465.653971 128.201812 
L 466.081148 114.66414 
L 466.935502 164.313401 
L 467.362679 148.181567 
L 467.789856 175.809094 
L 468.217033 121.861465 
L 468.644211 111.834034 
L 469.071388 142.849464 
L 469.498565 162.227333 
L 469.925742 119.45407 
L 470.352919 139.561676 
L 470.780096 150.929479 
L 471.207273 119.951285 
L 471.63445 159.714994 
L 472.061627 120.535784 
L 472.488804 162.658121 
L 472.915981 137.646143 
L 473.343158 127.975993 
L 473.770335 175.157269 
L 474.197512 139.89787 
L 474.624689 151.416535 
L 475.051866 135.966717 
L 475.479043 167.472321 
L 475.90622 153.907344 
L 476.333397 124.399421 
L 476.760574 150.831074 
L 477.187751 138.386191 
L 478.042105 179.501765 
L 478.469282 159.614134 
L 479.323636 216.252244 
L 479.750813 139.271868 
L 480.17799 187.762772 
L 480.605167 204.694345 
L 481.032344 147.492751 
L 481.459522 170.080924 
L 481.886699 183.968366 
L 482.313876 176.861908 
L 482.741053 183.739572 
L 483.16823 155.846613 
L 483.595407 163.223368 
L 484.022584 216.152069 
L 484.449761 174.652563 
L 484.876938 168.730816 
L 485.304115 171.832844 
L 485.731292 238.161745 
L 486.585646 150.300032 
L 487.012823 176.909844 
L 487.44 231.102721 
L 487.867177 232.157485 
L 488.294354 189.29073 
L 488.721531 205.181258 
L 489.148708 183.577144 
L 489.575885 199.539071 
L 490.003062 206.039817 
L 490.430239 205.976509 
L 490.857416 208.420946 
L 491.284593 240.418635 
L 491.71177 167.118322 
L 492.138947 247.567945 
L 492.566124 220.600156 
L 492.993301 233.677647 
L 493.420478 186.929272 
L 493.847656 205.443756 
L 494.274833 240.336267 
L 494.70201 226.386854 
L 495.556364 188.198826 
L 495.983541 230.530639 
L 496.410718 260.573822 
L 496.837895 261.36079 
L 497.265072 201.089718 
L 497.692249 287.98649 
L 498.119426 183.161506 
L 498.546603 254.204156 
L 498.97378 260.146902 
L 499.400957 249.297454 
L 499.828134 235.009896 
L 500.255311 249.993622 
L 500.682488 298.872472 
L 501.109665 252.551306 
L 501.536842 252.296111 
L 501.964019 249.671856 
L 502.818373 316.169239 
L 503.24555 275.170685 
L 503.672727 289.676255 
L 504.099904 287.518622 
L 504.527081 292.953322 
L 504.954258 282.857202 
L 505.381435 282.490388 
L 505.808612 260.82328 
L 506.235789 258.215586 
L 506.662967 296.629289 
L 507.090144 287.780663 
L 507.517321 275.042313 
L 507.944498 254.610893 
L 508.798852 321.353342 
L 509.226029 282.167887 
L 509.653206 290.463282 
L 510.080383 251.993536 
L 510.50756 282.646708 
L 510.934737 303.611747 
L 511.361914 300.568523 
L 511.789091 302.665833 
L 512.216268 288.93825 
L 512.643445 289.758578 
L 513.070622 274.920902 
L 514.352153 314.96058 
L 514.77933 282.489105 
L 515.206507 297.300974 
L 515.633684 292.422562 
L 516.060861 273.416503 
L 516.488038 260.028398 
L 516.915215 316.45708 
L 517.342392 262.344441 
L 517.769569 314.596384 
L 518.196746 290.883923 
L 518.623923 291.634512 
L 519.0511 301.812762 
L 519.478278 266.721041 
L 519.905455 209.372904 
L 520.332632 281.277856 
L 520.759809 294.865701 
L 521.186986 313.489707 
L 521.614163 268.222652 
L 522.04134 336.414813 
L 522.468517 303.203026 
L 522.895694 323.628534 
L 523.322871 286.693622 
L 523.750048 284.402604 
L 524.177225 312.332214 
L 524.604402 274.531501 
L 525.031579 308.621268 
L 525.458756 272.334323 
L 525.885933 280.023753 
L 526.31311 268.940072 
L 526.740287 302.203638 
L 527.167464 279.432951 
L 527.594641 289.778966 
L 528.021818 309.408924 
L 528.876172 239.069702 
L 529.303349 288.059013 
L 529.730526 277.218017 
L 530.157703 257.152984 
L 530.58488 269.172915 
L 531.012057 227.815049 
L 531.439234 251.281978 
L 531.866411 216.583098 
L 532.720766 285.055411 
L 533.147943 250.853888 
L 533.57512 277.054963 
L 534.002297 276.906997 
L 534.429474 257.979129 
L 534.856651 232.652566 
L 535.283828 242.991372 
L 535.711005 231.220737 
L 536.138182 227.10812 
L 536.565359 247.730885 
L 536.992536 292.146179 
L 537.419713 223.457747 
L 537.84689 192.766321 
L 538.274067 234.632858 
L 538.701244 261.954962 
L 539.128421 239.253512 
L 539.555598 248.91793 
L 540.409952 211.040675 
L 540.837129 204.899608 
L 541.264306 215.866262 
L 541.691483 238.03225 
L 542.11866 199.442243 
L 542.545837 186.100601 
L 542.973014 165.081633 
L 543.400191 220.078956 
L 544.254545 180.544855 
L 544.681722 205.650382 
L 545.1089 190.113309 
L 545.963254 199.515478 
L 546.390431 191.054145 
L 546.817608 172.329914 
L 547.244785 181.787375 
L 547.671962 197.910957 
L 548.099139 232.760653 
L 548.526316 200.591926 
L 548.953493 182.391874 
L 549.38067 232.322803 
L 549.807847 131.876872 
L 550.235024 206.961172 
L 550.662201 198.167684 
L 551.089378 141.686967 
L 551.516555 215.765826 
L 551.943732 152.875259 
L 552.370909 173.590963 
L 552.798086 155.113885 
L 553.225263 144.536878 
L 553.65244 181.048237 
L 554.079617 174.074282 
L 554.506794 220.126249 
L 554.933971 176.078576 
L 555.361148 146.54046 
L 555.788325 142.380824 
L 556.215502 109.158528 
L 556.642679 148.563553 
L 557.069856 138.819178 
L 557.497033 145.532162 
L 557.924211 155.888444 
L 558.351388 128.849112 
L 559.205742 139.301153 
L 559.632919 157.8302 
L 560.487273 122.405182 
L 560.91445 123.587466 
L 561.341627 146.780311 
L 561.768804 149.763611 
L 562.195981 124.294331 
L 562.623158 112.331228 
L 563.050335 130.918109 
L 563.477512 139.278838 
L 563.904689 150.465298 
L 564.331866 140.276238 
L 564.759043 161.907263 
L 565.18622 145.07889 
L 565.613397 106.499191 
L 566.040574 106.624557 
L 566.467751 147.62916 
L 566.894928 124.858492 
L 567.322105 127.618157 
L 567.749282 163.571351 
L 568.176459 111.974392 
L 568.603636 168.688291 
L 569.030813 154.866164 
L 569.45799 108.201553 
L 569.885167 140.418281 
L 570.312344 133.871812 
L 570.739522 163.421257 
L 571.166699 160.185477 
L 571.593876 123.031697 
L 572.875407 159.608697 
L 573.302584 155.279245 
L 573.729761 90.662073 
L 574.156938 140.58758 
L 574.584115 118.425131 
L 575.011292 119.010726 
L 575.438469 120.330561 
L 575.865646 131.006421 
L 576.292823 164.204108 
L 576.72 160.162991 
L 577.147177 124.547914 
L 577.574354 168.570227 
L 578.001531 131.488364 
L 578.428708 154.800966 
L 578.855885 153.239782 
L 579.283062 162.688037 
L 579.710239 152.377268 
L 580.137416 130.695793 
L 580.564593 140.944279 
L 580.99177 156.706825 
L 581.418947 135.248596 
L 581.846124 120.421439 
L 582.273301 156.634641 
L 582.700478 148.320955 
L 583.127656 153.981233 
L 583.554833 181.836867 
L 583.98201 182.489398 
L 584.409187 124.94878 
L 584.836364 148.365071 
L 585.263541 153.076601 
L 585.690718 167.300434 
L 586.117895 162.128864 
L 586.545072 170.96723 
L 586.972249 175.169595 
L 587.399426 173.326257 
L 587.826603 200.986483 
L 588.25378 131.892228 
L 588.680957 167.200774 
L 589.108134 191.149891 
L 589.535311 162.675793 
L 589.962488 203.047159 
L 590.389665 156.385258 
L 591.244019 244.522097 
L 591.671196 169.823381 
L 592.098373 176.737646 
L 592.52555 218.541829 
L 592.952727 233.883037 
L 593.379904 244.81146 
L 593.807081 214.292375 
L 594.234258 248.982946 
L 595.088612 211.544122 
L 595.515789 199.207546 
L 595.942967 236.180264 
L 596.370144 223.735187 
L 596.797321 217.899997 
L 597.224498 189.441858 
L 597.651675 247.242332 
L 598.078852 262.704681 
L 598.506029 269.725018 
L 598.933206 221.677555 
L 599.360383 236.463339 
L 599.78756 221.063314 
L 600.214737 241.994705 
L 600.641914 232.762557 
L 601.496268 244.165824 
L 601.923445 259.445294 
L 602.350622 221.961772 
L 602.777799 258.456934 
L 603.204976 237.836019 
L 603.632153 249.984853 
L 604.05933 217.957906 
L 604.913684 265.307713 
L 605.340861 260.009997 
L 605.768038 263.937515 
L 606.195215 306.350474 
L 606.622392 228.863598 
L 607.049569 243.446201 
L 607.476746 282.920898 
L 607.903923 260.292622 
L 608.3311 264.465801 
L 608.758278 294.310618 
L 609.185455 240.839181 
L 609.612632 278.162326 
L 610.039809 270.233493 
L 610.466986 266.641602 
L 610.894163 296.752719 
L 611.32134 299.572389 
L 611.748517 278.83914 
L 612.175694 266.642036 
L 612.602871 277.867084 
L 613.030048 265.408676 
L 613.457225 273.792328 
L 613.884402 270.01118 
L 614.311579 311.144314 
L 614.738756 268.30848 
L 615.165933 299.30243 
L 616.020287 285.74158 
L 616.447464 318.154039 
L 616.874641 286.113766 
L 617.728995 299.264449 
L 618.156172 295.892979 
L 618.583349 258.380854 
L 619.010526 310.480424 
L 619.437703 288.614419 
L 619.86488 335.437486 
L 620.292057 297.745648 
L 620.719234 293.846505 
L 621.146411 250.920564 
L 621.573589 302.678806 
L 622.000766 300.340639 
L 622.427943 310.764073 
L 622.85512 277.326128 
L 623.282297 256.39758 
L 623.709474 304.718622 
L 624.136651 287.878382 
L 624.563828 249.752637 
L 624.991005 291.621236 
L 625.418182 262.185267 
L 625.845359 267.398617 
L 626.272536 301.701451 
L 626.699713 248.103847 
L 627.12689 255.783825 
L 627.554067 281.3642 
L 627.981244 288.823119 
L 628.408421 276.874422 
L 628.835598 250.486388 
L 629.689952 303.755887 
L 630.117129 266.258506 
L 630.544306 245.72669 
L 630.971483 284.435376 
L 631.39866 263.687229 
L 631.825837 282.592877 
L 632.253014 253.062542 
L 632.680191 256.58102 
L 633.107368 252.81102 
L 633.534545 263.326218 
L 633.961722 263.358021 
L 634.3889 228.613229 
L 634.816077 242.730299 
L 635.243254 246.937866 
L 635.670431 308.072918 
L 636.524785 221.350837 
L 636.951962 243.731888 
L 637.379139 258.418508 
L 637.806316 240.366944 
L 638.233493 236.985633 
L 638.66067 237.53429 
L 639.515024 191.206568 
L 639.942201 200.181475 
L 640.369378 192.668547 
L 640.796555 223.348311 
L 641.223732 196.726549 
L 641.650909 232.581753 
L 642.078086 212.865898 
L 642.505263 162.254629 
L 642.93244 205.857116 
L 643.786794 213.369935 
L 644.641148 152.933179 
L 645.068325 186.029265 
L 645.495502 197.868653 
L 645.922679 147.042974 
L 646.349856 204.290514 
L 646.777033 162.327197 
L 647.204211 192.517992 
L 647.631388 202.878917 
L 648.058565 154.08222 
L 648.485742 214.833864 
L 648.912919 181.660694 
L 649.340096 172.830635 
L 649.767273 180.301135 
L 650.19445 203.162426 
L 650.621627 180.376761 
L 651.048804 197.448729 
L 651.475981 122.973775 
L 651.903158 199.764413 
L 652.330335 203.03267 
L 652.757512 142.729948 
L 653.184689 136.492927 
L 653.611866 157.643248 
L 654.039043 156.065425 
L 654.893397 119.114481 
L 655.320574 179.685731 
L 655.747751 117.71535 
L 656.174928 139.182355 
L 656.602105 148.749535 
L 657.029282 113.781181 
L 657.456459 119.055841 
L 657.883636 110.550278 
L 658.310813 141.819651 
L 658.73799 118.212604 
L 659.165167 126.893255 
L 659.592344 142.546102 
L 660.019522 93.932094 
L 660.446699 125.982174 
L 660.873876 129.352509 
L 661.301053 116.105815 
L 661.72823 117.96819 
L 662.155407 139.80187 
L 662.582584 125.271794 
L 663.009761 68.984692 
L 663.436938 123.962043 
L 663.864115 127.844194 
L 664.291292 105.651767 
L 664.718469 111.916232 
L 665.145646 130.878675 
L 665.572823 141.660357 
L 666 100.940984 
L 666.427177 115.678085 
L 666.854354 107.715936 
L 667.281531 123.494865 
L 667.708708 151.562794 
L 668.135885 115.485294 
L 668.563062 66.96 
L 668.990239 147.101027 
L 669.417416 137.113393 
L 669.844593 144.435511 
L 670.27177 124.271899 
L 670.698947 88.006952 
L 671.126124 120.153909 
L 671.553301 122.516085 
L 671.980478 144.324466 
L 672.407656 116.465491 
L 672.834833 96.658111 
L 673.26201 71.597777 
L 673.689187 91.805198 
L 674.116364 137.881611 
L 674.543541 130.858702 
L 674.970718 108.397485 
L 675.397895 121.987938 
L 675.825072 116.823157 
L 676.252249 150.727759 
L 676.679426 133.15962 
L 677.106603 144.50725 
L 677.53378 145.536876 
L 677.960957 142.203663 
L 678.388134 136.95158 
L 678.815311 129.55985 
L 679.242488 117.424102 
L 679.669665 142.450809 
L 680.096842 150.966006 
L 680.524019 100.760168 
L 680.951196 115.080823 
L 681.378373 122.667857 
L 681.80555 103.212468 
L 682.232727 160.474363 
L 682.659904 98.947649 
L 683.514258 138.386401 
L 683.941435 133.408154 
L 684.368612 146.802483 
L 684.795789 152.088869 
L 685.222967 184.347476 
L 685.650144 137.806288 
L 686.077321 110.44071 
L 686.504498 113.356612 
L 686.931675 155.200702 
L 687.358852 162.859012 
L 687.786029 158.718967 
L 688.213206 140.560296 
L 688.640383 135.600403 
L 689.06756 159.839763 
L 689.494737 147.107849 
L 689.921914 172.883211 
L 690.349091 163.966218 
L 690.776268 151.665667 
L 691.203445 102.589549 
L 691.630622 181.586074 
L 692.057799 196.443806 
L 692.484976 175.311359 
L 692.912153 195.131874 
L 693.33933 175.529498 
L 693.766507 183.744028 
L 694.193684 165.52702 
L 694.620861 215.030979 
L 695.048038 222.243709 
L 695.475215 166.565581 
L 696.329569 222.604077 
L 696.756746 227.832446 
L 697.183923 219.037927 
L 697.6111 197.289143 
L 698.038278 222.619861 
L 698.465455 185.717694 
L 698.892632 210.610841 
L 699.319809 213.614825 
L 700.174163 227.851842 
L 700.60134 227.095792 
L 701.028517 201.440516 
L 701.455694 255.326088 
L 701.882871 206.68118 
L 702.310048 238.482321 
L 702.737225 217.70216 
L 703.164402 236.026734 
L 703.591579 264.618177 
L 704.018756 231.099118 
L 704.445933 253.335273 
L 704.87311 218.291501 
L 705.300287 260.600424 
L 705.727464 282.207512 
L 706.154641 264.327126 
L 706.581818 259.986493 
L 707.008995 266.770396 
L 707.436172 255.968979 
L 707.863349 264.83485 
L 708.290526 262.361218 
L 708.717703 248.300798 
L 709.14488 280.658042 
L 709.572057 241.821477 
L 709.999234 258.903712 
L 710.426411 260.793455 
L 710.853589 303.513771 
L 711.280766 268.42171 
L 711.707943 274.722906 
L 712.13512 246.449063 
L 712.562297 236.027379 
L 712.989474 240.200882 
L 713.416651 289.839172 
L 713.843828 283.974506 
L 714.271005 269.948074 
L 714.698182 290.795354 
L 715.125359 302.725111 
L 715.552536 253.349374 
L 715.979713 268.888735 
L 716.40689 257.928658 
L 716.834067 296.152078 
L 717.261244 278.489791 
L 717.688421 296.047252 
L 718.115598 289.120787 
L 718.542775 267.205891 
L 718.969952 289.039113 
L 719.397129 292.780645 
L 719.824306 299.262291 
L 720.251483 301.840075 
L 720.67866 289.790915 
L 721.105837 236.120608 
L 721.533014 285.010603 
L 721.960191 294.224889 
L 722.387368 299.941444 
L 722.814545 273.371536 
L 723.241722 277.955817 
L 723.6689 263.95624 
L 724.096077 274.500182 
L 724.523254 249.885248 
L 724.950431 252.253964 
L 725.377608 244.495569 
L 725.804785 260.609481 
L 726.231962 241.6023 
L 726.659139 265.492379 
L 727.086316 243.493453 
L 727.513493 265.197316 
L 728.367847 285.129654 
L 728.795024 273.310529 
L 729.222201 272.92037 
L 729.649378 244.057935 
L 730.503732 266.518776 
L 730.930909 270.698838 
L 731.358086 219.027449 
L 731.785263 253.981376 
L 732.21244 273.53289 
L 732.639617 254.9046 
L 733.066794 242.392045 
L 733.493971 225.33236 
L 733.921148 242.767768 
L 734.348325 236.944949 
L 734.775502 259.169309 
L 735.202679 219.133377 
L 735.629856 231.817739 
L 736.484211 197.932066 
L 736.911388 224.513118 
L 737.765742 240.312054 
L 738.192919 234.341465 
L 738.620096 239.374423 
L 739.047273 210.571416 
L 739.47445 246.790853 
L 739.901627 250.495784 
L 740.328804 225.942653 
L 740.755981 187.33943 
L 741.183158 205.239064 
L 741.610335 215.951596 
L 742.037512 189.553128 
L 742.464689 208.658724 
L 743.319043 195.46163 
L 743.74622 172.114123 
L 744.173397 165.677035 
L 744.600574 163.691748 
L 745.027751 167.816831 
L 745.027751 167.816831 
" style="fill:none;stroke:#1f77b4;stroke-linecap:square;stroke-width:1.5;"/>
   </g>
   <g id="line2d_16">
    <path clip-path="url(#pc1eb2ead6e)" d="M 747.163636 384.48 
L 747.163636 51.84 
" style="fill:none;stroke:#808080;stroke-linecap:square;"/>
   </g>
   <g id="patch_38">
    <path d="M 108 384.48 
L 108 51.84 
" style="fill:none;stroke:#000000;stroke-linecap:square;stroke-linejoin:miter;stroke-width:0.8;"/>
   </g>
   <g id="patch_39">
    <path d="M 777.6 384.48 
L 777.6 51.84 
" style="fill:none;stroke:#000000;stroke-linecap:square;stroke-linejoin:miter;stroke-width:0.8;"/>
   </g>
   <g id="patch_40">
    <path d="M 108 384.48 
L 777.6 384.48 
" style="fill:none;stroke:#000000;stroke-linecap:square;stroke-linejoin:miter;stroke-width:0.8;"/>
   </g>
   <g id="patch_41">
    <path d="M 108 51.84 
L 777.6 51.84 
" style="fill:none;stroke:#000000;stroke-linecap:square;stroke-linejoin:miter;stroke-width:0.8;"/>
   </g>
   <g id="text_17">
    <!-- synthetic_36.csv -->
    <defs>
     <path d="M 32.171875 -5.078125 
Q 28.375 -14.84375 24.75 -17.8125 
Q 21.140625 -20.796875 15.09375 -20.796875 
L 7.90625 -20.796875 
L 7.90625 -13.28125 
L 13.1875 -13.28125 
Q 16.890625 -13.28125 18.9375 -11.515625 
Q 21 -9.765625 23.484375 -3.21875 
L 25.09375 0.875 
L 2.984375 54.6875 
L 12.5 54.6875 
L 29.59375 11.921875 
L 46.6875 54.6875 
L 56.203125 54.6875 
z
" id="DejaVuSans-121"/>
     <path d="M 54.890625 33.015625 
L 54.890625 0 
L 45.90625 0 
L 45.90625 32.71875 
Q 45.90625 40.484375 42.875 44.328125 
Q 39.84375 48.1875 33.796875 48.1875 
Q 26.515625 48.1875 22.3125 43.546875 
Q 18.109375 38.921875 18.109375 30.90625 
L 18.109375 0 
L 9.078125 0 
L 9.078125 54.6875 
L 18.109375 54.6875 
L 18.109375 46.1875 
Q 21.34375 51.125 25.703125 53.5625 
Q 30.078125 56 35.796875 56 
Q 45.21875 56 50.046875 50.171875 
Q 54.890625 44.34375 54.890625 33.015625 
z
" id="DejaVuSans-110"/>
     <path d="M 54.890625 33.015625 
L 54.890625 0 
L 45.90625 0 
L 45.90625 32.71875 
Q 45.90625 40.484375 42.875 44.328125 
Q 39.84375 48.1875 33.796875 48.1875 
Q 26.515625 48.1875 22.3125 43.546875 
Q 18.109375 38.921875 18.109375 30.90625 
L 18.109375 0 
L 9.078125 0 
L 9.078125 75.984375 
L 18.109375 75.984375 
L 18.109375 46.1875 
Q 21.34375 51.125 25.703125 53.5625 
Q 30.078125 56 35.796875 56 
Q 45.21875 56 50.046875 50.171875 
Q 54.890625 44.34375 54.890625 33.015625 
z
" id="DejaVuSans-104"/>
     <path d="M 48.78125 52.59375 
L 48.78125 44.1875 
Q 44.96875 46.296875 41.140625 47.34375 
Q 37.3125 48.390625 33.40625 48.390625 
Q 24.65625 48.390625 19.8125 42.84375 
Q 14.984375 37.3125 14.984375 27.296875 
Q 14.984375 17.28125 19.8125 11.734375 
Q 24.65625 6.203125 33.40625 6.203125 
Q 37.3125 6.203125 41.140625 7.25 
Q 44.96875 8.296875 48.78125 10.40625 
L 48.78125 2.09375 
Q 45.015625 0.34375 40.984375 -0.53125 
Q 36.96875 -1.421875 32.421875 -1.421875 
Q 20.0625 -1.421875 12.78125 6.34375 
Q 5.515625 14.109375 5.515625 27.296875 
Q 5.515625 40.671875 12.859375 48.328125 
Q 20.21875 56 33.015625 56 
Q 37.15625 56 41.109375 55.140625 
Q 45.0625 54.296875 48.78125 52.59375 
z
" id="DejaVuSans-99"/>
     <path d="M 50.984375 -16.609375 
L 50.984375 -23.578125 
L -0.984375 -23.578125 
L -0.984375 -16.609375 
z
" id="DejaVuSans-95"/>
     <path d="M 10.6875 12.40625 
L 21 12.40625 
L 21 0 
L 10.6875 0 
z
" id="DejaVuSans-46"/>
     <path d="M 2.984375 54.6875 
L 12.5 54.6875 
L 29.59375 8.796875 
L 46.6875 54.6875 
L 56.203125 54.6875 
L 35.6875 0 
L 23.484375 0 
z
" id="DejaVuSans-118"/>
    </defs>
    <g transform="translate(392.638125 45.84)scale(0.12 -0.12)">
     <use xlink:href="#DejaVuSans-115"/>
     <use x="52.099609" xlink:href="#DejaVuSans-121"/>
     <use x="111.279297" xlink:href="#DejaVuSans-110"/>
     <use x="174.658203" xlink:href="#DejaVuSans-116"/>
     <use x="213.867188" xlink:href="#DejaVuSans-104"/>
     <use x="277.246094" xlink:href="#DejaVuSans-101"/>
     <use x="338.769531" xlink:href="#DejaVuSans-116"/>
     <use x="377.978516" xlink:href="#DejaVuSans-105"/>
     <use x="405.761719" xlink:href="#DejaVuSans-99"/>
     <use x="460.742188" xlink:href="#DejaVuSans-95"/>
     <use x="510.742188" xlink:href="#DejaVuSans-51"/>
     <use x="574.365234" xlink:href="#DejaVuSans-54"/>
     <use x="637.988281" xlink:href="#DejaVuSans-46"/>
     <use x="669.775391" xlink:href="#DejaVuSans-99"/>
     <use x="724.755859" xlink:href="#DejaVuSans-115"/>
     <use x="776.855469" xlink:href="#DejaVuSans-118"/>
    </g>
   </g>
   <g id="legend_1">
    <g id="patch_42">
     <path d="M 115 74.518125 
L 174.315625 74.518125 
Q 176.315625 74.518125 176.315625 72.518125 
L 176.315625 58.84 
Q 176.315625 56.84 174.315625 56.84 
L 115 56.84 
Q 113 56.84 113 58.84 
L 113 72.518125 
Q 113 74.518125 115 74.518125 
z
" style="fill:#ffffff;opacity:0.8;stroke:#cccccc;stroke-linejoin:miter;"/>
    </g>
    <g id="line2d_17">
     <path d="M 117 64.938438 
L 137 64.938438 
" style="fill:none;stroke:#1f77b4;stroke-linecap:square;stroke-width:1.5;"/>
    </g>
    <g id="line2d_18"/>
    <g id="text_18">
     <!-- value -->
     <g transform="translate(145 68.438438)scale(0.1 -0.1)">
      <use xlink:href="#DejaVuSans-118"/>
      <use x="59.179688" xlink:href="#DejaVuSans-97"/>
      <use x="120.458984" xlink:href="#DejaVuSans-108"/>
      <use x="148.242188" xlink:href="#DejaVuSans-117"/>
      <use x="211.621094" xlink:href="#DejaVuSans-101"/>
     </g>
    </g>
   </g>
  </g>
 </g>
 <defs>
  <clipPath id="pc1eb2ead6e">
   <rect height="332.64" width="669.6" x="108" y="51.84"/>
  </clipPath>
 </defs>
</svg>
