<?xml version="1.0" encoding="utf-8" standalone="no"?>
<!DOCTYPE svg PUBLIC "-//W3C//DTD SVG 1.1//EN"
  "http://www.w3.org/Graphics/SVG/1.1/DTD/svg11.dtd">
<!-- Created with matplotlib (https://matplotlib.org/) -->
<svg height="432pt" version="1.1" viewBox="0 0 864 432" width="864pt" xmlns="http://www.w3.org/2000/svg" xmlns:xlink="http://www.w3.org/1999/xlink">
 <defs>
  <style type="text/css">
*{stroke-linecap:butt;stroke-linejoin:round;}
  </style>
 </defs>
 <g id="figure_1">
  <g id="patch_1">
   <path d="M 0 432 
L 864 432 
L 864 0 
L 0 0 
z
" style="fill:#ffffff;"/>
  </g>
  <g id="axes_1">
   <g id="patch_2">
    <path d="M 108 384.48 
L 777.6 384.48 
L 777.6 51.84 
L 108 51.84 
z
" style="fill:#ffffff;"/>
   </g>
   <g id="patch_3">
    <path clip-path="url(#p8ab48b5532)" d="M 138.436364 384.48 
L 138.436364 51.84 
L 373.383732 51.84 
L 373.383732 384.48 
z
" style="fill:#0000ff;opacity:0.05;"/>
   </g>
   <g id="patch_4">
    <path clip-path="url(#p8ab48b5532)" d="M 373.383732 384.48 
L 373.383732 51.84 
L 747.163636 51.84 
L 747.163636 384.48 
z
" style="fill:#ff0000;opacity:0.08;"/>
   </g>
   <g id="patch_5">
    <path clip-path="url(#p8ab48b5532)" d="M 138.436364 384.48 
L 138.436364 51.84 
L 149.115789 51.84 
L 149.115789 384.48 
z
" style="fill:#008000;opacity:0.04;"/>
   </g>
   <g id="patch_6">
    <path clip-path="url(#p8ab48b5532)" d="M 149.115789 384.48 
L 149.115789 371.1744 
L 159.795215 371.1744 
L 159.795215 384.48 
z
" style="fill:#ffe500;"/>
   </g>
   <g id="patch_7">
    <path clip-path="url(#p8ab48b5532)" d="M 159.795215 384.48 
L 159.795215 51.84 
L 170.474641 51.84 
L 170.474641 384.48 
z
" style="fill:#008000;opacity:0.04;"/>
   </g>
   <g id="patch_8">
    <path clip-path="url(#p8ab48b5532)" d="M 181.154067 384.48 
L 181.154067 51.84 
L 191.833493 51.84 
L 191.833493 384.48 
z
" style="fill:#008000;opacity:0.04;"/>
   </g>
   <g id="patch_9">
    <path clip-path="url(#p8ab48b5532)" d="M 202.512919 384.48 
L 202.512919 51.84 
L 213.192344 51.84 
L 213.192344 384.48 
z
" style="fill:#008000;opacity:0.04;"/>
   </g>
   <g id="patch_10">
    <path clip-path="url(#p8ab48b5532)" d="M 223.87177 384.48 
L 223.87177 51.84 
L 234.551196 51.84 
L 234.551196 384.48 
z
" style="fill:#008000;opacity:0.04;"/>
   </g>
   <g id="patch_11">
    <path clip-path="url(#p8ab48b5532)" d="M 245.230622 384.48 
L 245.230622 51.84 
L 255.910048 51.84 
L 255.910048 384.48 
z
" style="fill:#008000;opacity:0.04;"/>
   </g>
   <g id="patch_12">
    <path clip-path="url(#p8ab48b5532)" d="M 255.910048 384.48 
L 255.910048 371.1744 
L 266.589474 371.1744 
L 266.589474 384.48 
z
" style="fill:#ffe500;"/>
   </g>
   <g id="patch_13">
    <path clip-path="url(#p8ab48b5532)" d="M 490.857416 384.48 
L 490.857416 371.1744 
L 501.536842 371.1744 
L 501.536842 384.48 
z
" style="fill:#ff6600;"/>
   </g>
   <g id="patch_14">
    <path clip-path="url(#p8ab48b5532)" d="M 266.589474 384.48 
L 266.589474 51.84 
L 277.2689 51.84 
L 277.2689 384.48 
z
" style="fill:#008000;opacity:0.04;"/>
   </g>
   <g id="patch_15">
    <path clip-path="url(#p8ab48b5532)" d="M 512.216268 384.48 
L 512.216268 371.1744 
L 522.895694 371.1744 
L 522.895694 384.48 
z
" style="fill:#ff6600;"/>
   </g>
   <g id="patch_16">
    <path clip-path="url(#p8ab48b5532)" d="M 287.948325 384.48 
L 287.948325 51.84 
L 298.627751 51.84 
L 298.627751 384.48 
z
" style="fill:#008000;opacity:0.04;"/>
   </g>
   <g id="patch_17">
    <path clip-path="url(#p8ab48b5532)" d="M 309.307177 384.48 
L 309.307177 51.84 
L 319.986603 51.84 
L 319.986603 384.48 
z
" style="fill:#008000;opacity:0.04;"/>
   </g>
   <g id="patch_18">
    <path clip-path="url(#p8ab48b5532)" d="M 330.666029 384.48 
L 330.666029 51.84 
L 341.345455 51.84 
L 341.345455 384.48 
z
" style="fill:#008000;opacity:0.04;"/>
   </g>
   <g id="patch_19">
    <path clip-path="url(#p8ab48b5532)" d="M 352.02488 384.48 
L 352.02488 51.84 
L 362.704306 51.84 
L 362.704306 384.48 
z
" style="fill:#008000;opacity:0.04;"/>
   </g>
   <g id="patch_20">
    <path clip-path="url(#p8ab48b5532)" d="M 373.383732 384.48 
L 373.383732 51.84 
L 384.063158 51.84 
L 384.063158 384.48 
z
" style="fill:#008000;opacity:0.04;"/>
   </g>
   <g id="patch_21">
    <path clip-path="url(#p8ab48b5532)" d="M 394.742584 384.48 
L 394.742584 51.84 
L 405.42201 51.84 
L 405.42201 384.48 
z
" style="fill:#008000;opacity:0.04;"/>
   </g>
   <g id="patch_22">
    <path clip-path="url(#p8ab48b5532)" d="M 416.101435 384.48 
L 416.101435 51.84 
L 426.780861 51.84 
L 426.780861 384.48 
z
" style="fill:#008000;opacity:0.04;"/>
   </g>
   <g id="patch_23">
    <path clip-path="url(#p8ab48b5532)" d="M 437.460287 384.48 
L 437.460287 51.84 
L 448.139713 51.84 
L 448.139713 384.48 
z
" style="fill:#008000;opacity:0.04;"/>
   </g>
   <g id="patch_24">
    <path clip-path="url(#p8ab48b5532)" d="M 458.819139 384.48 
L 458.819139 51.84 
L 469.498565 51.84 
L 469.498565 384.48 
z
" style="fill:#008000;opacity:0.04;"/>
   </g>
   <g id="patch_25">
    <path clip-path="url(#p8ab48b5532)" d="M 480.17799 384.48 
L 480.17799 51.84 
L 490.857416 51.84 
L 490.857416 384.48 
z
" style="fill:#008000;opacity:0.04;"/>
   </g>
   <g id="patch_26">
    <path clip-path="url(#p8ab48b5532)" d="M 501.536842 384.48 
L 501.536842 51.84 
L 512.216268 51.84 
L 512.216268 384.48 
z
" style="fill:#008000;opacity:0.04;"/>
   </g>
   <g id="patch_27">
    <path clip-path="url(#p8ab48b5532)" d="M 512.216268 371.1744 
L 512.216268 51.84 
L 522.895694 51.84 
L 522.895694 371.1744 
z
" style="fill:#008000;opacity:0.5;"/>
   </g>
   <g id="patch_28">
    <path clip-path="url(#p8ab48b5532)" d="M 522.895694 384.48 
L 522.895694 51.84 
L 533.57512 51.84 
L 533.57512 384.48 
z
" style="fill:#008000;opacity:0.04;"/>
   </g>
   <g id="patch_29">
    <path clip-path="url(#p8ab48b5532)" d="M 544.254545 384.48 
L 544.254545 51.84 
L 554.933971 51.84 
L 554.933971 384.48 
z
" style="fill:#008000;opacity:0.04;"/>
   </g>
   <g id="patch_30">
    <path clip-path="url(#p8ab48b5532)" d="M 565.613397 384.48 
L 565.613397 51.84 
L 576.292823 51.84 
L 576.292823 384.48 
z
" style="fill:#008000;opacity:0.04;"/>
   </g>
   <g id="patch_31">
    <path clip-path="url(#p8ab48b5532)" d="M 586.972249 384.48 
L 586.972249 51.84 
L 597.651675 51.84 
L 597.651675 384.48 
z
" style="fill:#008000;opacity:0.04;"/>
   </g>
   <g id="patch_32">
    <path clip-path="url(#p8ab48b5532)" d="M 608.3311 384.48 
L 608.3311 51.84 
L 619.010526 51.84 
L 619.010526 384.48 
z
" style="fill:#008000;opacity:0.04;"/>
   </g>
   <g id="patch_33">
    <path clip-path="url(#p8ab48b5532)" d="M 629.689952 384.48 
L 629.689952 51.84 
L 640.369378 51.84 
L 640.369378 384.48 
z
" style="fill:#008000;opacity:0.04;"/>
   </g>
   <g id="patch_34">
    <path clip-path="url(#p8ab48b5532)" d="M 651.048804 384.48 
L 651.048804 51.84 
L 661.72823 51.84 
L 661.72823 384.48 
z
" style="fill:#008000;opacity:0.04;"/>
   </g>
   <g id="patch_35">
    <path clip-path="url(#p8ab48b5532)" d="M 672.407656 384.48 
L 672.407656 51.84 
L 683.087081 51.84 
L 683.087081 384.48 
z
" style="fill:#008000;opacity:0.04;"/>
   </g>
   <g id="patch_36">
    <path clip-path="url(#p8ab48b5532)" d="M 693.766507 384.48 
L 693.766507 51.84 
L 704.445933 51.84 
L 704.445933 384.48 
z
" style="fill:#008000;opacity:0.04;"/>
   </g>
   <g id="patch_37">
    <path clip-path="url(#p8ab48b5532)" d="M 715.125359 384.48 
L 715.125359 51.84 
L 725.804785 51.84 
L 725.804785 384.48 
z
" style="fill:#008000;opacity:0.04;"/>
   </g>
   <g id="patch_38">
    <path clip-path="url(#p8ab48b5532)" d="M 736.484211 384.48 
L 736.484211 51.84 
L 747.163636 51.84 
L 747.163636 384.48 
z
" style="fill:#008000;opacity:0.04;"/>
   </g>
   <g id="matplotlib.axis_1">
    <g id="xtick_1">
     <g id="line2d_1">
      <defs>
       <path d="M 0 0 
L 0 3.5 
" id="m23103a123f" style="stroke:#000000;stroke-width:0.8;"/>
      </defs>
      <g>
       <use style="stroke:#000000;stroke-width:0.8;" x="138.436364" xlink:href="#m23103a123f" y="384.48"/>
      </g>
     </g>
     <g id="text_1">
      <!-- 0 -->
      <defs>
       <path d="M 31.78125 66.40625 
Q 24.171875 66.40625 20.328125 58.90625 
Q 16.5 51.421875 16.5 36.375 
Q 16.5 21.390625 20.328125 13.890625 
Q 24.171875 6.390625 31.78125 6.390625 
Q 39.453125 6.390625 43.28125 13.890625 
Q 47.125 21.390625 47.125 36.375 
Q 47.125 51.421875 43.28125 58.90625 
Q 39.453125 66.40625 31.78125 66.40625 
z
M 31.78125 74.21875 
Q 44.046875 74.21875 50.515625 64.515625 
Q 56.984375 54.828125 56.984375 36.375 
Q 56.984375 17.96875 50.515625 8.265625 
Q 44.046875 -1.421875 31.78125 -1.421875 
Q 19.53125 -1.421875 13.0625 8.265625 
Q 6.59375 17.96875 6.59375 36.375 
Q 6.59375 54.828125 13.0625 64.515625 
Q 19.53125 74.21875 31.78125 74.21875 
z
" id="DejaVuSans-48"/>
      </defs>
      <g transform="translate(135.255114 399.078438)scale(0.1 -0.1)">
       <use xlink:href="#DejaVuSans-48"/>
      </g>
     </g>
    </g>
    <g id="xtick_2">
     <g id="line2d_2">
      <g>
       <use style="stroke:#000000;stroke-width:0.8;" x="223.87177" xlink:href="#m23103a123f" y="384.48"/>
      </g>
     </g>
     <g id="text_2">
      <!-- 200 -->
      <defs>
       <path d="M 19.1875 8.296875 
L 53.609375 8.296875 
L 53.609375 0 
L 7.328125 0 
L 7.328125 8.296875 
Q 12.9375 14.109375 22.625 23.890625 
Q 32.328125 33.6875 34.8125 36.53125 
Q 39.546875 41.84375 41.421875 45.53125 
Q 43.3125 49.21875 43.3125 52.78125 
Q 43.3125 58.59375 39.234375 62.25 
Q 35.15625 65.921875 28.609375 65.921875 
Q 23.96875 65.921875 18.8125 64.3125 
Q 13.671875 62.703125 7.8125 59.421875 
L 7.8125 69.390625 
Q 13.765625 71.78125 18.9375 73 
Q 24.125 74.21875 28.421875 74.21875 
Q 39.75 74.21875 46.484375 68.546875 
Q 53.21875 62.890625 53.21875 53.421875 
Q 53.21875 48.921875 51.53125 44.890625 
Q 49.859375 40.875 45.40625 35.40625 
Q 44.1875 33.984375 37.640625 27.21875 
Q 31.109375 20.453125 19.1875 8.296875 
z
" id="DejaVuSans-50"/>
      </defs>
      <g transform="translate(214.32802 399.078438)scale(0.1 -0.1)">
       <use xlink:href="#DejaVuSans-50"/>
       <use x="63.623047" xlink:href="#DejaVuSans-48"/>
       <use x="127.246094" xlink:href="#DejaVuSans-48"/>
      </g>
     </g>
    </g>
    <g id="xtick_3">
     <g id="line2d_3">
      <g>
       <use style="stroke:#000000;stroke-width:0.8;" x="309.307177" xlink:href="#m23103a123f" y="384.48"/>
      </g>
     </g>
     <g id="text_3">
      <!-- 400 -->
      <defs>
       <path d="M 37.796875 64.3125 
L 12.890625 25.390625 
L 37.796875 25.390625 
z
M 35.203125 72.90625 
L 47.609375 72.90625 
L 47.609375 25.390625 
L 58.015625 25.390625 
L 58.015625 17.1875 
L 47.609375 17.1875 
L 47.609375 0 
L 37.796875 0 
L 37.796875 17.1875 
L 4.890625 17.1875 
L 4.890625 26.703125 
z
" id="DejaVuSans-52"/>
      </defs>
      <g transform="translate(299.763427 399.078438)scale(0.1 -0.1)">
       <use xlink:href="#DejaVuSans-52"/>
       <use x="63.623047" xlink:href="#DejaVuSans-48"/>
       <use x="127.246094" xlink:href="#DejaVuSans-48"/>
      </g>
     </g>
    </g>
    <g id="xtick_4">
     <g id="line2d_4">
      <g>
       <use style="stroke:#000000;stroke-width:0.8;" x="394.742584" xlink:href="#m23103a123f" y="384.48"/>
      </g>
     </g>
     <g id="text_4">
      <!-- 600 -->
      <defs>
       <path d="M 33.015625 40.375 
Q 26.375 40.375 22.484375 35.828125 
Q 18.609375 31.296875 18.609375 23.390625 
Q 18.609375 15.53125 22.484375 10.953125 
Q 26.375 6.390625 33.015625 6.390625 
Q 39.65625 6.390625 43.53125 10.953125 
Q 47.40625 15.53125 47.40625 23.390625 
Q 47.40625 31.296875 43.53125 35.828125 
Q 39.65625 40.375 33.015625 40.375 
z
M 52.59375 71.296875 
L 52.59375 62.3125 
Q 48.875 64.0625 45.09375 64.984375 
Q 41.3125 65.921875 37.59375 65.921875 
Q 27.828125 65.921875 22.671875 59.328125 
Q 17.53125 52.734375 16.796875 39.40625 
Q 19.671875 43.65625 24.015625 45.921875 
Q 28.375 48.1875 33.59375 48.1875 
Q 44.578125 48.1875 50.953125 41.515625 
Q 57.328125 34.859375 57.328125 23.390625 
Q 57.328125 12.15625 50.6875 5.359375 
Q 44.046875 -1.421875 33.015625 -1.421875 
Q 20.359375 -1.421875 13.671875 8.265625 
Q 6.984375 17.96875 6.984375 36.375 
Q 6.984375 53.65625 15.1875 63.9375 
Q 23.390625 74.21875 37.203125 74.21875 
Q 40.921875 74.21875 44.703125 73.484375 
Q 48.484375 72.75 52.59375 71.296875 
z
" id="DejaVuSans-54"/>
      </defs>
      <g transform="translate(385.198834 399.078438)scale(0.1 -0.1)">
       <use xlink:href="#DejaVuSans-54"/>
       <use x="63.623047" xlink:href="#DejaVuSans-48"/>
       <use x="127.246094" xlink:href="#DejaVuSans-48"/>
      </g>
     </g>
    </g>
    <g id="xtick_5">
     <g id="line2d_5">
      <g>
       <use style="stroke:#000000;stroke-width:0.8;" x="480.17799" xlink:href="#m23103a123f" y="384.48"/>
      </g>
     </g>
     <g id="text_5">
      <!-- 800 -->
      <defs>
       <path d="M 31.78125 34.625 
Q 24.75 34.625 20.71875 30.859375 
Q 16.703125 27.09375 16.703125 20.515625 
Q 16.703125 13.921875 20.71875 10.15625 
Q 24.75 6.390625 31.78125 6.390625 
Q 38.8125 6.390625 42.859375 10.171875 
Q 46.921875 13.96875 46.921875 20.515625 
Q 46.921875 27.09375 42.890625 30.859375 
Q 38.875 34.625 31.78125 34.625 
z
M 21.921875 38.8125 
Q 15.578125 40.375 12.03125 44.71875 
Q 8.5 49.078125 8.5 55.328125 
Q 8.5 64.0625 14.71875 69.140625 
Q 20.953125 74.21875 31.78125 74.21875 
Q 42.671875 74.21875 48.875 69.140625 
Q 55.078125 64.0625 55.078125 55.328125 
Q 55.078125 49.078125 51.53125 44.71875 
Q 48 40.375 41.703125 38.8125 
Q 48.828125 37.15625 52.796875 32.3125 
Q 56.78125 27.484375 56.78125 20.515625 
Q 56.78125 9.90625 50.3125 4.234375 
Q 43.84375 -1.421875 31.78125 -1.421875 
Q 19.734375 -1.421875 13.25 4.234375 
Q 6.78125 9.90625 6.78125 20.515625 
Q 6.78125 27.484375 10.78125 32.3125 
Q 14.796875 37.15625 21.921875 38.8125 
z
M 18.3125 54.390625 
Q 18.3125 48.734375 21.84375 45.5625 
Q 25.390625 42.390625 31.78125 42.390625 
Q 38.140625 42.390625 41.71875 45.5625 
Q 45.3125 48.734375 45.3125 54.390625 
Q 45.3125 60.0625 41.71875 63.234375 
Q 38.140625 66.40625 31.78125 66.40625 
Q 25.390625 66.40625 21.84375 63.234375 
Q 18.3125 60.0625 18.3125 54.390625 
z
" id="DejaVuSans-56"/>
      </defs>
      <g transform="translate(470.63424 399.078438)scale(0.1 -0.1)">
       <use xlink:href="#DejaVuSans-56"/>
       <use x="63.623047" xlink:href="#DejaVuSans-48"/>
       <use x="127.246094" xlink:href="#DejaVuSans-48"/>
      </g>
     </g>
    </g>
    <g id="xtick_6">
     <g id="line2d_6">
      <g>
       <use style="stroke:#000000;stroke-width:0.8;" x="565.613397" xlink:href="#m23103a123f" y="384.48"/>
      </g>
     </g>
     <g id="text_6">
      <!-- 1000 -->
      <defs>
       <path d="M 12.40625 8.296875 
L 28.515625 8.296875 
L 28.515625 63.921875 
L 10.984375 60.40625 
L 10.984375 69.390625 
L 28.421875 72.90625 
L 38.28125 72.90625 
L 38.28125 8.296875 
L 54.390625 8.296875 
L 54.390625 0 
L 12.40625 0 
z
" id="DejaVuSans-49"/>
      </defs>
      <g transform="translate(552.888397 399.078438)scale(0.1 -0.1)">
       <use xlink:href="#DejaVuSans-49"/>
       <use x="63.623047" xlink:href="#DejaVuSans-48"/>
       <use x="127.246094" xlink:href="#DejaVuSans-48"/>
       <use x="190.869141" xlink:href="#DejaVuSans-48"/>
      </g>
     </g>
    </g>
    <g id="xtick_7">
     <g id="line2d_7">
      <g>
       <use style="stroke:#000000;stroke-width:0.8;" x="651.048804" xlink:href="#m23103a123f" y="384.48"/>
      </g>
     </g>
     <g id="text_7">
      <!-- 1200 -->
      <g transform="translate(638.323804 399.078438)scale(0.1 -0.1)">
       <use xlink:href="#DejaVuSans-49"/>
       <use x="63.623047" xlink:href="#DejaVuSans-50"/>
       <use x="127.246094" xlink:href="#DejaVuSans-48"/>
       <use x="190.869141" xlink:href="#DejaVuSans-48"/>
      </g>
     </g>
    </g>
    <g id="xtick_8">
     <g id="line2d_8">
      <g>
       <use style="stroke:#000000;stroke-width:0.8;" x="736.484211" xlink:href="#m23103a123f" y="384.48"/>
      </g>
     </g>
     <g id="text_8">
      <!-- 1400 -->
      <g transform="translate(723.759211 399.078438)scale(0.1 -0.1)">
       <use xlink:href="#DejaVuSans-49"/>
       <use x="63.623047" xlink:href="#DejaVuSans-52"/>
       <use x="127.246094" xlink:href="#DejaVuSans-48"/>
       <use x="190.869141" xlink:href="#DejaVuSans-48"/>
      </g>
     </g>
    </g>
    <g id="text_9">
     <!-- Timestamp -->
     <defs>
      <path d="M -0.296875 72.90625 
L 61.375 72.90625 
L 61.375 64.59375 
L 35.5 64.59375 
L 35.5 0 
L 25.59375 0 
L 25.59375 64.59375 
L -0.296875 64.59375 
z
" id="DejaVuSans-84"/>
      <path d="M 9.421875 54.6875 
L 18.40625 54.6875 
L 18.40625 0 
L 9.421875 0 
z
M 9.421875 75.984375 
L 18.40625 75.984375 
L 18.40625 64.59375 
L 9.421875 64.59375 
z
" id="DejaVuSans-105"/>
      <path d="M 52 44.1875 
Q 55.375 50.25 60.0625 53.125 
Q 64.75 56 71.09375 56 
Q 79.640625 56 84.28125 50.015625 
Q 88.921875 44.046875 88.921875 33.015625 
L 88.921875 0 
L 79.890625 0 
L 79.890625 32.71875 
Q 79.890625 40.578125 77.09375 44.375 
Q 74.3125 48.1875 68.609375 48.1875 
Q 61.625 48.1875 57.5625 43.546875 
Q 53.515625 38.921875 53.515625 30.90625 
L 53.515625 0 
L 44.484375 0 
L 44.484375 32.71875 
Q 44.484375 40.625 41.703125 44.40625 
Q 38.921875 48.1875 33.109375 48.1875 
Q 26.21875 48.1875 22.15625 43.53125 
Q 18.109375 38.875 18.109375 30.90625 
L 18.109375 0 
L 9.078125 0 
L 9.078125 54.6875 
L 18.109375 54.6875 
L 18.109375 46.1875 
Q 21.1875 51.21875 25.484375 53.609375 
Q 29.78125 56 35.6875 56 
Q 41.65625 56 45.828125 52.96875 
Q 50 49.953125 52 44.1875 
z
" id="DejaVuSans-109"/>
      <path d="M 56.203125 29.59375 
L 56.203125 25.203125 
L 14.890625 25.203125 
Q 15.484375 15.921875 20.484375 11.0625 
Q 25.484375 6.203125 34.421875 6.203125 
Q 39.59375 6.203125 44.453125 7.46875 
Q 49.3125 8.734375 54.109375 11.28125 
L 54.109375 2.78125 
Q 49.265625 0.734375 44.1875 -0.34375 
Q 39.109375 -1.421875 33.890625 -1.421875 
Q 20.796875 -1.421875 13.15625 6.1875 
Q 5.515625 13.8125 5.515625 26.8125 
Q 5.515625 40.234375 12.765625 48.109375 
Q 20.015625 56 32.328125 56 
Q 43.359375 56 49.78125 48.890625 
Q 56.203125 41.796875 56.203125 29.59375 
z
M 47.21875 32.234375 
Q 47.125 39.59375 43.09375 43.984375 
Q 39.0625 48.390625 32.421875 48.390625 
Q 24.90625 48.390625 20.390625 44.140625 
Q 15.875 39.890625 15.1875 32.171875 
z
" id="DejaVuSans-101"/>
      <path d="M 44.28125 53.078125 
L 44.28125 44.578125 
Q 40.484375 46.53125 36.375 47.5 
Q 32.28125 48.484375 27.875 48.484375 
Q 21.1875 48.484375 17.84375 46.4375 
Q 14.5 44.390625 14.5 40.28125 
Q 14.5 37.15625 16.890625 35.375 
Q 19.28125 33.59375 26.515625 31.984375 
L 29.59375 31.296875 
Q 39.15625 29.25 43.1875 25.515625 
Q 47.21875 21.78125 47.21875 15.09375 
Q 47.21875 7.46875 41.1875 3.015625 
Q 35.15625 -1.421875 24.609375 -1.421875 
Q 20.21875 -1.421875 15.453125 -0.5625 
Q 10.6875 0.296875 5.421875 2 
L 5.421875 11.28125 
Q 10.40625 8.6875 15.234375 7.390625 
Q 20.0625 6.109375 24.8125 6.109375 
Q 31.15625 6.109375 34.5625 8.28125 
Q 37.984375 10.453125 37.984375 14.40625 
Q 37.984375 18.0625 35.515625 20.015625 
Q 33.0625 21.96875 24.703125 23.78125 
L 21.578125 24.515625 
Q 13.234375 26.265625 9.515625 29.90625 
Q 5.8125 33.546875 5.8125 39.890625 
Q 5.8125 47.609375 11.28125 51.796875 
Q 16.75 56 26.8125 56 
Q 31.78125 56 36.171875 55.265625 
Q 40.578125 54.546875 44.28125 53.078125 
z
" id="DejaVuSans-115"/>
      <path d="M 18.3125 70.21875 
L 18.3125 54.6875 
L 36.8125 54.6875 
L 36.8125 47.703125 
L 18.3125 47.703125 
L 18.3125 18.015625 
Q 18.3125 11.328125 20.140625 9.421875 
Q 21.96875 7.515625 27.59375 7.515625 
L 36.8125 7.515625 
L 36.8125 0 
L 27.59375 0 
Q 17.1875 0 13.234375 3.875 
Q 9.28125 7.765625 9.28125 18.015625 
L 9.28125 47.703125 
L 2.6875 47.703125 
L 2.6875 54.6875 
L 9.28125 54.6875 
L 9.28125 70.21875 
z
" id="DejaVuSans-116"/>
      <path d="M 34.28125 27.484375 
Q 23.390625 27.484375 19.1875 25 
Q 14.984375 22.515625 14.984375 16.5 
Q 14.984375 11.71875 18.140625 8.90625 
Q 21.296875 6.109375 26.703125 6.109375 
Q 34.1875 6.109375 38.703125 11.40625 
Q 43.21875 16.703125 43.21875 25.484375 
L 43.21875 27.484375 
z
M 52.203125 31.203125 
L 52.203125 0 
L 43.21875 0 
L 43.21875 8.296875 
Q 40.140625 3.328125 35.546875 0.953125 
Q 30.953125 -1.421875 24.3125 -1.421875 
Q 15.921875 -1.421875 10.953125 3.296875 
Q 6 8.015625 6 15.921875 
Q 6 25.140625 12.171875 29.828125 
Q 18.359375 34.515625 30.609375 34.515625 
L 43.21875 34.515625 
L 43.21875 35.40625 
Q 43.21875 41.609375 39.140625 45 
Q 35.0625 48.390625 27.6875 48.390625 
Q 23 48.390625 18.546875 47.265625 
Q 14.109375 46.140625 10.015625 43.890625 
L 10.015625 52.203125 
Q 14.9375 54.109375 19.578125 55.046875 
Q 24.21875 56 28.609375 56 
Q 40.484375 56 46.34375 49.84375 
Q 52.203125 43.703125 52.203125 31.203125 
z
" id="DejaVuSans-97"/>
      <path d="M 18.109375 8.203125 
L 18.109375 -20.796875 
L 9.078125 -20.796875 
L 9.078125 54.6875 
L 18.109375 54.6875 
L 18.109375 46.390625 
Q 20.953125 51.265625 25.265625 53.625 
Q 29.59375 56 35.59375 56 
Q 45.5625 56 51.78125 48.09375 
Q 58.015625 40.1875 58.015625 27.296875 
Q 58.015625 14.40625 51.78125 6.484375 
Q 45.5625 -1.421875 35.59375 -1.421875 
Q 29.59375 -1.421875 25.265625 0.953125 
Q 20.953125 3.328125 18.109375 8.203125 
z
M 48.6875 27.296875 
Q 48.6875 37.203125 44.609375 42.84375 
Q 40.53125 48.484375 33.40625 48.484375 
Q 26.265625 48.484375 22.1875 42.84375 
Q 18.109375 37.203125 18.109375 27.296875 
Q 18.109375 17.390625 22.1875 11.75 
Q 26.265625 6.109375 33.40625 6.109375 
Q 40.53125 6.109375 44.609375 11.75 
Q 48.6875 17.390625 48.6875 27.296875 
z
" id="DejaVuSans-112"/>
     </defs>
     <g transform="translate(414.739062 412.756563)scale(0.1 -0.1)">
      <use xlink:href="#DejaVuSans-84"/>
      <use x="61.037109" xlink:href="#DejaVuSans-105"/>
      <use x="88.820312" xlink:href="#DejaVuSans-109"/>
      <use x="186.232422" xlink:href="#DejaVuSans-101"/>
      <use x="247.755859" xlink:href="#DejaVuSans-115"/>
      <use x="299.855469" xlink:href="#DejaVuSans-116"/>
      <use x="339.064453" xlink:href="#DejaVuSans-97"/>
      <use x="400.34375" xlink:href="#DejaVuSans-109"/>
      <use x="497.755859" xlink:href="#DejaVuSans-112"/>
     </g>
    </g>
   </g>
   <g id="matplotlib.axis_2">
    <g id="ytick_1">
     <g id="line2d_9">
      <defs>
       <path d="M 0 0 
L -3.5 0 
" id="m9aab5f6b6d" style="stroke:#000000;stroke-width:0.8;"/>
      </defs>
      <g>
       <use style="stroke:#000000;stroke-width:0.8;" x="108" xlink:href="#m9aab5f6b6d" y="368.940043"/>
      </g>
     </g>
     <g id="text_10">
      <!-- 0 -->
      <g transform="translate(94.6375 372.739262)scale(0.1 -0.1)">
       <use xlink:href="#DejaVuSans-48"/>
      </g>
     </g>
    </g>
    <g id="ytick_2">
     <g id="line2d_10">
      <g>
       <use style="stroke:#000000;stroke-width:0.8;" x="108" xlink:href="#m9aab5f6b6d" y="331.041686"/>
      </g>
     </g>
     <g id="text_11">
      <!-- 10000 -->
      <g transform="translate(69.1875 334.840904)scale(0.1 -0.1)">
       <use xlink:href="#DejaVuSans-49"/>
       <use x="63.623047" xlink:href="#DejaVuSans-48"/>
       <use x="127.246094" xlink:href="#DejaVuSans-48"/>
       <use x="190.869141" xlink:href="#DejaVuSans-48"/>
       <use x="254.492188" xlink:href="#DejaVuSans-48"/>
      </g>
     </g>
    </g>
    <g id="ytick_3">
     <g id="line2d_11">
      <g>
       <use style="stroke:#000000;stroke-width:0.8;" x="108" xlink:href="#m9aab5f6b6d" y="293.143329"/>
      </g>
     </g>
     <g id="text_12">
      <!-- 20000 -->
      <g transform="translate(69.1875 296.942547)scale(0.1 -0.1)">
       <use xlink:href="#DejaVuSans-50"/>
       <use x="63.623047" xlink:href="#DejaVuSans-48"/>
       <use x="127.246094" xlink:href="#DejaVuSans-48"/>
       <use x="190.869141" xlink:href="#DejaVuSans-48"/>
       <use x="254.492188" xlink:href="#DejaVuSans-48"/>
      </g>
     </g>
    </g>
    <g id="ytick_4">
     <g id="line2d_12">
      <g>
       <use style="stroke:#000000;stroke-width:0.8;" x="108" xlink:href="#m9aab5f6b6d" y="255.244971"/>
      </g>
     </g>
     <g id="text_13">
      <!-- 30000 -->
      <defs>
       <path d="M 40.578125 39.3125 
Q 47.65625 37.796875 51.625 33 
Q 55.609375 28.21875 55.609375 21.1875 
Q 55.609375 10.40625 48.1875 4.484375 
Q 40.765625 -1.421875 27.09375 -1.421875 
Q 22.515625 -1.421875 17.65625 -0.515625 
Q 12.796875 0.390625 7.625 2.203125 
L 7.625 11.71875 
Q 11.71875 9.328125 16.59375 8.109375 
Q 21.484375 6.890625 26.8125 6.890625 
Q 36.078125 6.890625 40.9375 10.546875 
Q 45.796875 14.203125 45.796875 21.1875 
Q 45.796875 27.640625 41.28125 31.265625 
Q 36.765625 34.90625 28.71875 34.90625 
L 20.21875 34.90625 
L 20.21875 43.015625 
L 29.109375 43.015625 
Q 36.375 43.015625 40.234375 45.921875 
Q 44.09375 48.828125 44.09375 54.296875 
Q 44.09375 59.90625 40.109375 62.90625 
Q 36.140625 65.921875 28.71875 65.921875 
Q 24.65625 65.921875 20.015625 65.03125 
Q 15.375 64.15625 9.8125 62.3125 
L 9.8125 71.09375 
Q 15.4375 72.65625 20.34375 73.4375 
Q 25.25 74.21875 29.59375 74.21875 
Q 40.828125 74.21875 47.359375 69.109375 
Q 53.90625 64.015625 53.90625 55.328125 
Q 53.90625 49.265625 50.4375 45.09375 
Q 46.96875 40.921875 40.578125 39.3125 
z
" id="DejaVuSans-51"/>
      </defs>
      <g transform="translate(69.1875 259.04419)scale(0.1 -0.1)">
       <use xlink:href="#DejaVuSans-51"/>
       <use x="63.623047" xlink:href="#DejaVuSans-48"/>
       <use x="127.246094" xlink:href="#DejaVuSans-48"/>
       <use x="190.869141" xlink:href="#DejaVuSans-48"/>
       <use x="254.492188" xlink:href="#DejaVuSans-48"/>
      </g>
     </g>
    </g>
    <g id="ytick_5">
     <g id="line2d_13">
      <g>
       <use style="stroke:#000000;stroke-width:0.8;" x="108" xlink:href="#m9aab5f6b6d" y="217.346614"/>
      </g>
     </g>
     <g id="text_14">
      <!-- 40000 -->
      <g transform="translate(69.1875 221.145833)scale(0.1 -0.1)">
       <use xlink:href="#DejaVuSans-52"/>
       <use x="63.623047" xlink:href="#DejaVuSans-48"/>
       <use x="127.246094" xlink:href="#DejaVuSans-48"/>
       <use x="190.869141" xlink:href="#DejaVuSans-48"/>
       <use x="254.492188" xlink:href="#DejaVuSans-48"/>
      </g>
     </g>
    </g>
    <g id="ytick_6">
     <g id="line2d_14">
      <g>
       <use style="stroke:#000000;stroke-width:0.8;" x="108" xlink:href="#m9aab5f6b6d" y="179.448257"/>
      </g>
     </g>
     <g id="text_15">
      <!-- 50000 -->
      <defs>
       <path d="M 10.796875 72.90625 
L 49.515625 72.90625 
L 49.515625 64.59375 
L 19.828125 64.59375 
L 19.828125 46.734375 
Q 21.96875 47.46875 24.109375 47.828125 
Q 26.265625 48.1875 28.421875 48.1875 
Q 40.625 48.1875 47.75 41.5 
Q 54.890625 34.8125 54.890625 23.390625 
Q 54.890625 11.625 47.5625 5.09375 
Q 40.234375 -1.421875 26.90625 -1.421875 
Q 22.3125 -1.421875 17.546875 -0.640625 
Q 12.796875 0.140625 7.71875 1.703125 
L 7.71875 11.625 
Q 12.109375 9.234375 16.796875 8.0625 
Q 21.484375 6.890625 26.703125 6.890625 
Q 35.15625 6.890625 40.078125 11.328125 
Q 45.015625 15.765625 45.015625 23.390625 
Q 45.015625 31 40.078125 35.4375 
Q 35.15625 39.890625 26.703125 39.890625 
Q 22.75 39.890625 18.8125 39.015625 
Q 14.890625 38.140625 10.796875 36.28125 
z
" id="DejaVuSans-53"/>
      </defs>
      <g transform="translate(69.1875 183.247476)scale(0.1 -0.1)">
       <use xlink:href="#DejaVuSans-53"/>
       <use x="63.623047" xlink:href="#DejaVuSans-48"/>
       <use x="127.246094" xlink:href="#DejaVuSans-48"/>
       <use x="190.869141" xlink:href="#DejaVuSans-48"/>
       <use x="254.492188" xlink:href="#DejaVuSans-48"/>
      </g>
     </g>
    </g>
    <g id="ytick_7">
     <g id="line2d_15">
      <g>
       <use style="stroke:#000000;stroke-width:0.8;" x="108" xlink:href="#m9aab5f6b6d" y="141.5499"/>
      </g>
     </g>
     <g id="text_16">
      <!-- 60000 -->
      <g transform="translate(69.1875 145.349119)scale(0.1 -0.1)">
       <use xlink:href="#DejaVuSans-54"/>
       <use x="63.623047" xlink:href="#DejaVuSans-48"/>
       <use x="127.246094" xlink:href="#DejaVuSans-48"/>
       <use x="190.869141" xlink:href="#DejaVuSans-48"/>
       <use x="254.492188" xlink:href="#DejaVuSans-48"/>
      </g>
     </g>
    </g>
    <g id="ytick_8">
     <g id="line2d_16">
      <g>
       <use style="stroke:#000000;stroke-width:0.8;" x="108" xlink:href="#m9aab5f6b6d" y="103.651543"/>
      </g>
     </g>
     <g id="text_17">
      <!-- 70000 -->
      <defs>
       <path d="M 8.203125 72.90625 
L 55.078125 72.90625 
L 55.078125 68.703125 
L 28.609375 0 
L 18.3125 0 
L 43.21875 64.59375 
L 8.203125 64.59375 
z
" id="DejaVuSans-55"/>
      </defs>
      <g transform="translate(69.1875 107.450761)scale(0.1 -0.1)">
       <use xlink:href="#DejaVuSans-55"/>
       <use x="63.623047" xlink:href="#DejaVuSans-48"/>
       <use x="127.246094" xlink:href="#DejaVuSans-48"/>
       <use x="190.869141" xlink:href="#DejaVuSans-48"/>
       <use x="254.492188" xlink:href="#DejaVuSans-48"/>
      </g>
     </g>
    </g>
    <g id="ytick_9">
     <g id="line2d_17">
      <g>
       <use style="stroke:#000000;stroke-width:0.8;" x="108" xlink:href="#m9aab5f6b6d" y="65.753186"/>
      </g>
     </g>
     <g id="text_18">
      <!-- 80000 -->
      <g transform="translate(69.1875 69.552404)scale(0.1 -0.1)">
       <use xlink:href="#DejaVuSans-56"/>
       <use x="63.623047" xlink:href="#DejaVuSans-48"/>
       <use x="127.246094" xlink:href="#DejaVuSans-48"/>
       <use x="190.869141" xlink:href="#DejaVuSans-48"/>
       <use x="254.492188" xlink:href="#DejaVuSans-48"/>
      </g>
     </g>
    </g>
    <g id="text_19">
     <!-- Value -->
     <defs>
      <path d="M 28.609375 0 
L 0.78125 72.90625 
L 11.078125 72.90625 
L 34.1875 11.53125 
L 57.328125 72.90625 
L 67.578125 72.90625 
L 39.796875 0 
z
" id="DejaVuSans-86"/>
      <path d="M 9.421875 75.984375 
L 18.40625 75.984375 
L 18.40625 0 
L 9.421875 0 
z
" id="DejaVuSans-108"/>
      <path d="M 8.5 21.578125 
L 8.5 54.6875 
L 17.484375 54.6875 
L 17.484375 21.921875 
Q 17.484375 14.15625 20.5 10.265625 
Q 23.53125 6.390625 29.59375 6.390625 
Q 36.859375 6.390625 41.078125 11.03125 
Q 45.3125 15.671875 45.3125 23.6875 
L 45.3125 54.6875 
L 54.296875 54.6875 
L 54.296875 0 
L 45.3125 0 
L 45.3125 8.40625 
Q 42.046875 3.421875 37.71875 1 
Q 33.40625 -1.421875 27.6875 -1.421875 
Q 18.265625 -1.421875 13.375 4.4375 
Q 8.5 10.296875 8.5 21.578125 
z
M 31.109375 56 
z
" id="DejaVuSans-117"/>
     </defs>
     <g transform="translate(63.107813 232.273281)rotate(-90)scale(0.1 -0.1)">
      <use xlink:href="#DejaVuSans-86"/>
      <use x="68.298828" xlink:href="#DejaVuSans-97"/>
      <use x="129.578125" xlink:href="#DejaVuSans-108"/>
      <use x="157.361328" xlink:href="#DejaVuSans-117"/>
      <use x="220.740234" xlink:href="#DejaVuSans-101"/>
     </g>
    </g>
   </g>
   <g id="line2d_18">
    <path clip-path="url(#p8ab48b5532)" d="M 138.436364 369.36 
L 138.863541 368.362244 
L 139.290718 369.035385 
L 139.717895 366.557385 
L 140.572249 368.248773 
L 140.999426 366.796978 
L 141.426603 366.310847 
L 141.85378 366.202623 
L 142.280957 366.751091 
L 142.708134 364.835404 
L 143.562488 366.272941 
L 143.989665 367.473724 
L 144.416842 364.169406 
L 144.844019 364.984416 
L 145.271196 364.705296 
L 145.698373 363.576247 
L 146.552727 363.393578 
L 146.979904 362.846675 
L 147.407081 362.722479 
L 147.834258 363.120415 
L 148.261435 364.758061 
L 148.688612 362.128465 
L 149.115789 362.500312 
L 149.542967 362.346812 
L 149.970144 363.304338 
L 151.251675 359.99621 
L 151.678852 361.092073 
L 152.106029 360.406361 
L 152.533206 360.573084 
L 152.960383 361.546464 
L 153.38756 360.433864 
L 153.814737 360.182407 
L 154.241914 359.645291 
L 154.669091 358.356656 
L 155.096268 358.43601 
L 155.523445 359.056491 
L 155.950622 358.912301 
L 156.377799 357.820524 
L 156.804976 357.726432 
L 157.232153 358.643288 
L 157.65933 358.441373 
L 158.086507 357.244802 
L 158.513684 356.660133 
L 158.940861 357.250658 
L 159.368038 356.130977 
L 159.795215 356.36156 
L 160.222392 357.075363 
L 160.649569 355.997792 
L 161.076746 357.135653 
L 161.503923 354.591921 
L 161.9311 353.89045 
L 162.358278 355.834996 
L 162.785455 356.255489 
L 163.212632 354.585616 
L 163.639809 355.035386 
L 164.066986 352.526521 
L 164.494163 354.565842 
L 164.92134 353.711962 
L 165.775694 354.650643 
L 166.202871 353.61727 
L 166.630048 355.258217 
L 167.057225 352.093081 
L 167.484402 353.115705 
L 167.911579 351.097411 
L 168.338756 352.47561 
L 168.765933 353.388568 
L 169.19311 352.014629 
L 169.620287 353.259977 
L 170.047464 353.388297 
L 170.474641 351.815662 
L 170.901818 352.327398 
L 171.328995 351.76427 
L 171.756172 351.542244 
L 172.183349 351.99555 
L 172.610526 351.825575 
L 173.037703 351.280821 
L 173.46488 349.934624 
L 173.892057 352.257556 
L 174.319234 350.180996 
L 174.746411 350.27894 
L 175.173589 349.47371 
L 175.600766 350.586253 
L 176.027943 349.83628 
L 176.45512 349.798162 
L 176.882297 350.407568 
L 177.309474 348.680843 
L 177.736651 348.598231 
L 178.163828 348.894612 
L 178.591005 347.962906 
L 179.018182 348.782245 
L 179.445359 350.340408 
L 179.872536 349.582101 
L 180.299713 350.063054 
L 180.72689 349.264931 
L 181.154067 349.289097 
L 181.581244 348.575874 
L 182.008421 349.340089 
L 182.435598 348.259405 
L 182.862775 348.899114 
L 183.289952 346.586451 
L 183.717129 347.447178 
L 184.144306 347.173459 
L 184.571483 347.558638 
L 184.99866 346.279644 
L 185.425837 348.304974 
L 185.853014 348.055943 
L 186.280191 346.237788 
L 186.707368 348.053604 
L 187.134545 347.563665 
L 187.561722 347.649598 
L 188.416077 347.383622 
L 188.843254 346.598563 
L 189.270431 347.13463 
L 189.697608 347.358983 
L 190.124785 345.595841 
L 190.551962 346.945538 
L 191.406316 346.699245 
L 191.833493 345.887896 
L 192.26067 346.538351 
L 192.687847 346.43913 
L 193.115024 346.962157 
L 193.969378 346.157716 
L 194.396555 346.688757 
L 194.823732 345.604743 
L 195.250909 347.417339 
L 195.678086 345.691843 
L 196.105263 347.317438 
L 196.53244 346.132223 
L 197.386794 346.34194 
L 197.813971 345.744058 
L 198.241148 347.387082 
L 198.668325 344.511207 
L 199.095502 347.054472 
L 199.522679 345.905714 
L 199.949856 346.450763 
L 200.377033 346.067056 
L 200.804211 343.425269 
L 201.231388 345.266472 
L 201.658565 346.408429 
L 202.085742 346.683665 
L 202.512919 344.726037 
L 202.940096 345.106489 
L 203.367273 345.33265 
L 204.221627 346.306608 
L 204.648804 345.883267 
L 205.075981 343.941184 
L 205.503158 345.37539 
L 205.930335 346.025851 
L 206.357512 343.007485 
L 206.784689 344.279904 
L 207.211866 344.839412 
L 207.639043 343.607817 
L 208.06622 343.717932 
L 208.493397 345.045876 
L 208.920574 342.41783 
L 209.347751 344.617887 
L 209.774928 345.637861 
L 210.202105 344.420142 
L 210.629282 344.04973 
L 211.056459 342.081857 
L 211.483636 344.043273 
L 211.910813 343.672018 
L 212.33799 344.108809 
L 212.765167 344.291696 
L 213.192344 343.96598 
L 213.619522 343.161792 
L 214.046699 341.93193 
L 214.473876 342.834375 
L 214.901053 342.614064 
L 215.32823 344.785638 
L 215.755407 342.705167 
L 216.182584 343.344802 
L 216.609761 344.82667 
L 217.036938 342.950554 
L 217.464115 343.510253 
L 217.891292 341.965313 
L 218.318469 343.939314 
L 218.745646 343.568009 
L 219.172823 343.955209 
L 220.027177 342.607004 
L 220.454354 343.573019 
L 220.881531 342.075426 
L 221.308708 343.865064 
L 221.735885 343.645262 
L 222.163062 341.296807 
L 222.590239 343.464467 
L 223.017416 342.082438 
L 223.444593 342.727334 
L 223.87177 341.924374 
L 224.298947 340.673224 
L 224.726124 340.682507 
L 225.580478 344.045669 
L 226.007656 339.588124 
L 226.434833 341.169317 
L 226.86201 341.191655 
L 227.289187 341.604062 
L 227.716364 341.029893 
L 228.143541 341.548119 
L 228.570718 340.914115 
L 229.425072 342.345055 
L 229.852249 340.08614 
L 230.279426 339.493237 
L 230.706603 341.054288 
L 231.13378 341.806068 
L 231.560957 339.961916 
L 231.988134 340.474514 
L 232.415311 341.899911 
L 232.842488 340.196137 
L 233.269665 340.652975 
L 233.696842 340.265905 
L 234.124019 340.886003 
L 234.551196 338.055876 
L 234.978373 339.876297 
L 235.40555 340.909279 
L 235.832727 339.129737 
L 236.259904 338.934361 
L 236.687081 339.937947 
L 237.114258 341.536863 
L 237.541435 339.341885 
L 237.968612 338.092368 
L 238.395789 338.522431 
L 238.822967 338.409896 
L 239.250144 337.658238 
L 239.677321 339.102252 
L 240.104498 336.86289 
L 240.531675 337.713443 
L 240.958852 336.904368 
L 241.386029 336.445617 
L 241.813206 337.023638 
L 242.240383 337.865864 
L 242.66756 335.834557 
L 243.094737 338.554977 
L 243.521914 337.05501 
L 243.949091 336.618175 
L 244.376268 336.361558 
L 244.803445 335.100913 
L 245.230622 335.729619 
L 245.657799 335.301204 
L 246.084976 335.553744 
L 246.512153 335.531358 
L 246.93933 334.482907 
L 247.366507 333.882336 
L 247.793684 336.933204 
L 248.220861 334.022364 
L 248.648038 334.008429 
L 249.075215 334.542394 
L 249.502392 333.08676 
L 249.929569 334.110389 
L 250.356746 333.812223 
L 251.2111 331.571704 
L 251.638278 332.68786 
L 252.492632 333.599659 
L 252.919809 332.602856 
L 253.346986 332.944117 
L 254.20134 331.290931 
L 254.628517 332.209429 
L 255.055694 328.79041 
L 255.482871 330.844601 
L 255.910048 329.730337 
L 256.337225 332.627383 
L 256.764402 329.632324 
L 257.191579 331.282358 
L 257.618756 329.009678 
L 258.045933 329.254365 
L 258.47311 329.757063 
L 258.900287 327.940847 
L 259.327464 329.55504 
L 259.754641 329.207814 
L 260.181818 329.353543 
L 260.608995 328.809995 
L 261.036172 327.095762 
L 261.463349 327.321126 
L 261.890526 326.55629 
L 262.317703 327.58671 
L 262.74488 326.641655 
L 263.172057 326.516435 
L 263.599234 327.795195 
L 264.026411 324.620359 
L 264.453589 325.87318 
L 264.880766 325.047171 
L 265.307943 324.623712 
L 265.73512 325.291166 
L 266.162297 325.272473 
L 266.589474 323.924413 
L 267.016651 325.444053 
L 267.443828 322.433233 
L 267.871005 324.329836 
L 268.298182 322.213801 
L 268.725359 322.088126 
L 269.152536 323.137781 
L 269.579713 322.43934 
L 270.00689 323.636681 
L 270.434067 322.149073 
L 270.861244 321.233815 
L 271.288421 321.839182 
L 271.715598 322.086947 
L 272.142775 322.013456 
L 272.569952 321.189537 
L 272.997129 319.922373 
L 273.424306 321.083072 
L 273.851483 320.493717 
L 274.27866 321.307416 
L 274.705837 319.416255 
L 275.133014 318.41563 
L 275.560191 317.985532 
L 275.987368 318.351627 
L 276.414545 320.546658 
L 276.841722 318.142084 
L 277.2689 317.909546 
L 277.696077 318.393142 
L 278.123254 317.659286 
L 278.550431 318.349286 
L 278.977608 316.685373 
L 279.404785 317.350694 
L 279.831962 318.231842 
L 280.259139 316.881752 
L 280.686316 315.048031 
L 281.113493 316.348367 
L 281.54067 315.123362 
L 281.967847 314.678418 
L 282.395024 315.29016 
L 282.822201 315.368038 
L 283.249378 315.283018 
L 283.676555 313.877639 
L 284.103732 315.279358 
L 284.530909 313.839099 
L 284.958086 314.085375 
L 285.385263 315.647675 
L 285.81244 314.625018 
L 286.239617 312.261967 
L 286.666794 313.034886 
L 287.521148 310.663124 
L 287.948325 310.806246 
L 288.375502 311.300531 
L 288.802679 311.340139 
L 289.229856 311.63273 
L 289.657033 309.786355 
L 290.084211 310.455296 
L 290.511388 311.845585 
L 290.938565 310.691202 
L 291.365742 312.078576 
L 291.792919 310.282746 
L 292.220096 312.252177 
L 292.647273 308.466025 
L 293.07445 310.029992 
L 293.928804 309.175929 
L 294.355981 308.250575 
L 294.783158 307.980397 
L 295.210335 307.87321 
L 295.637512 308.708668 
L 296.064689 309.226504 
L 296.919043 307.324257 
L 297.34622 308.131034 
L 297.773397 307.245228 
L 298.200574 308.053831 
L 298.627751 306.801861 
L 299.054928 306.485455 
L 299.482105 306.547217 
L 299.909282 306.376504 
L 300.336459 304.430861 
L 300.763636 305.161905 
L 301.190813 304.662116 
L 301.61799 306.34131 
L 302.472344 304.091179 
L 302.899522 305.024567 
L 303.326699 306.746865 
L 303.753876 304.318191 
L 304.181053 306.206272 
L 304.60823 305.042573 
L 305.035407 302.929811 
L 305.462584 303.416296 
L 305.889761 302.823107 
L 306.316938 303.383841 
L 306.744115 303.610291 
L 307.171292 304.201801 
L 307.598469 301.752697 
L 308.025646 303.018583 
L 308.452823 303.567065 
L 308.88 301.979958 
L 309.307177 301.64727 
L 309.734354 300.757707 
L 310.161531 302.90243 
L 310.588708 302.573339 
L 311.870239 302.157583 
L 312.297416 301.96568 
L 312.724593 300.253675 
L 313.15177 302.084627 
L 313.578947 301.681046 
L 314.006124 300.611504 
L 314.433301 300.063164 
L 314.860478 301.680636 
L 315.287656 301.326404 
L 315.714833 300.272954 
L 316.14201 299.712427 
L 316.996364 301.735379 
L 317.423541 298.764742 
L 317.850718 298.913378 
L 318.277895 300.773086 
L 318.705072 300.085682 
L 319.132249 301.537043 
L 319.559426 299.315226 
L 319.986603 298.270247 
L 320.41378 301.147323 
L 320.840957 300.27466 
L 321.268134 300.060666 
L 321.695311 300.011216 
L 322.122488 301.161889 
L 322.549665 298.764511 
L 322.976842 300.539985 
L 323.404019 299.084141 
L 323.831196 298.441613 
L 324.258373 299.087628 
L 324.68555 298.016735 
L 325.112727 298.781206 
L 325.539904 299.276921 
L 325.967081 298.024048 
L 326.394258 298.940992 
L 326.821435 296.857382 
L 327.248612 298.425983 
L 327.675789 297.564524 
L 328.102967 298.091389 
L 328.530144 300.962669 
L 328.957321 299.400622 
L 329.811675 297.815063 
L 330.238852 300.11185 
L 330.666029 297.035512 
L 331.093206 298.408628 
L 331.520383 298.487819 
L 331.94756 299.165466 
L 332.374737 299.01786 
L 332.801914 297.584583 
L 333.229091 297.11764 
L 333.656268 299.446526 
L 334.083445 298.39598 
L 334.510622 296.938154 
L 334.937799 297.79073 
L 335.364976 295.349207 
L 335.792153 296.139654 
L 336.646507 297.175388 
L 337.073684 296.876495 
L 337.500861 297.728536 
L 337.928038 296.46265 
L 338.355215 295.637013 
L 338.782392 295.952356 
L 339.209569 297.637806 
L 339.636746 298.326892 
L 340.063923 296.901804 
L 340.4911 296.352378 
L 340.918278 295.474562 
L 341.345455 297.866247 
L 341.772632 296.282415 
L 342.199809 296.355178 
L 342.626986 295.431011 
L 343.054163 296.499873 
L 343.48134 296.753355 
L 343.908517 297.426815 
L 344.335694 296.803993 
L 344.762871 296.613828 
L 345.190048 294.087474 
L 345.617225 293.950642 
L 346.044402 296.287786 
L 346.898756 297.836582 
L 347.325933 295.513174 
L 347.75311 296.927329 
L 348.180287 293.791876 
L 348.607464 296.634042 
L 349.034641 295.669513 
L 349.461818 292.235901 
L 349.888995 296.673027 
L 350.316172 295.322592 
L 350.743349 296.556879 
L 351.170526 295.169799 
L 351.597703 296.225366 
L 352.02488 295.296577 
L 352.452057 295.576673 
L 352.879234 296.323488 
L 353.733589 294.208141 
L 354.160766 293.591701 
L 354.587943 296.233809 
L 355.442297 293.78221 
L 355.869474 295.787418 
L 356.296651 297.00635 
L 356.723828 295.477547 
L 357.151005 295.430531 
L 357.578182 294.426628 
L 358.005359 294.76016 
L 358.432536 294.099852 
L 358.859713 294.615393 
L 359.28689 293.804668 
L 359.714067 294.395804 
L 360.141244 292.888043 
L 360.568421 294.560311 
L 360.995598 293.531556 
L 361.422775 294.513669 
L 361.849952 293.422229 
L 362.277129 293.56077 
L 362.704306 294.958917 
L 363.55866 292.14335 
L 364.413014 292.884028 
L 364.840191 293.997835 
L 365.267368 291.732984 
L 365.694545 292.618709 
L 366.121722 292.991889 
L 366.5489 290.965777 
L 366.976077 293.052727 
L 367.830431 290.941779 
L 368.257608 291.440726 
L 368.684785 292.147478 
L 369.111962 292.123483 
L 369.539139 291.289178 
L 369.966316 291.014722 
L 370.393493 291.334824 
L 370.82067 290.013653 
L 371.247847 291.141952 
L 371.675024 291.583324 
L 372.102201 290.312737 
L 372.529378 292.672207 
L 372.956555 290.158807 
L 373.383732 289.916426 
L 374.238086 291.09138 
L 374.665263 290.279007 
L 375.09244 288.347798 
L 375.519617 290.285421 
L 375.946794 291.576897 
L 376.373971 288.54416 
L 376.801148 289.5806 
L 377.228325 289.423961 
L 377.655502 289.899925 
L 378.082679 288.640927 
L 378.509856 287.808226 
L 378.937033 288.811597 
L 379.364211 288.653436 
L 379.791388 286.919879 
L 380.218565 287.967738 
L 380.645742 287.705876 
L 381.072919 287.947526 
L 381.500096 286.3677 
L 381.927273 287.910313 
L 382.35445 286.036783 
L 382.781627 285.88478 
L 383.208804 286.854032 
L 383.635981 285.456397 
L 384.063158 285.132481 
L 384.490335 285.308558 
L 384.917512 283.783593 
L 385.344689 287.222129 
L 385.771866 286.288791 
L 386.199043 286.27524 
L 387.053397 283.151697 
L 387.480574 282.854402 
L 387.907751 283.72708 
L 388.334928 283.154996 
L 388.762105 283.872649 
L 389.189282 283.093142 
L 389.616459 282.957374 
L 390.043636 283.774044 
L 390.470813 283.123204 
L 390.89799 282.753319 
L 391.325167 281.130424 
L 391.752344 283.122482 
L 392.179522 283.876884 
L 392.606699 281.013039 
L 393.033876 282.227791 
L 393.461053 281.64692 
L 393.88823 280.187219 
L 394.315407 281.474138 
L 394.742584 280.851073 
L 395.169761 278.928484 
L 395.596938 279.578172 
L 396.024115 279.324317 
L 396.451292 279.702067 
L 396.878469 280.372101 
L 397.305646 280.456392 
L 397.732823 279.048051 
L 398.16 276.769353 
L 398.587177 278.147799 
L 399.014354 277.951935 
L 399.441531 277.549176 
L 399.868708 277.954902 
L 400.295885 278.629937 
L 400.723062 274.657066 
L 401.150239 277.235796 
L 401.577416 276.868754 
L 402.004593 277.979643 
L 402.43177 276.315122 
L 403.286124 275.812381 
L 403.713301 276.955601 
L 404.140478 273.437548 
L 404.567656 273.200489 
L 404.994833 273.924766 
L 405.42201 275.30303 
L 405.849187 273.387871 
L 406.276364 274.008168 
L 406.703541 273.817545 
L 407.130718 272.023181 
L 407.557895 274.131435 
L 407.985072 273.219019 
L 408.412249 273.162078 
L 408.839426 272.218382 
L 409.266603 273.415259 
L 409.69378 272.363455 
L 410.120957 270.809713 
L 410.548134 270.781454 
L 410.975311 271.838867 
L 411.402488 270.181874 
L 411.829665 272.6581 
L 412.256842 270.491211 
L 412.684019 269.273373 
L 413.111196 270.2714 
L 413.538373 269.448056 
L 413.96555 270.61591 
L 414.392727 268.132796 
L 414.819904 270.344244 
L 415.247081 268.697513 
L 415.674258 268.383448 
L 416.101435 267.843819 
L 416.528612 268.401515 
L 416.955789 265.728921 
L 417.382967 268.457699 
L 417.810144 266.672034 
L 418.237321 269.342586 
L 418.664498 266.409691 
L 419.091675 265.70175 
L 419.518852 266.914375 
L 419.946029 265.037351 
L 420.373206 265.137388 
L 420.800383 264.307675 
L 421.22756 265.730567 
L 421.654737 265.608894 
L 422.081914 266.103802 
L 422.509091 264.544943 
L 422.936268 265.239163 
L 423.363445 263.155143 
L 423.790622 263.487246 
L 424.217799 261.322428 
L 424.644976 264.151363 
L 425.072153 261.787676 
L 425.49933 263.123145 
L 425.926507 263.747915 
L 426.353684 261.671773 
L 426.780861 263.283444 
L 427.635215 262.207071 
L 428.062392 261.128944 
L 428.489569 262.019725 
L 428.916746 259.910404 
L 429.343923 261.779181 
L 429.7711 260.277233 
L 430.198278 260.137196 
L 430.625455 261.03588 
L 431.052632 260.250381 
L 431.479809 260.256488 
L 431.906986 258.581039 
L 432.334163 257.838105 
L 432.76134 260.013866 
L 433.188517 258.019166 
L 433.615694 258.745802 
L 434.042871 260.283377 
L 434.897225 257.690859 
L 435.324402 257.795212 
L 435.751579 259.976138 
L 436.178756 257.035146 
L 436.605933 256.78865 
L 437.03311 257.488871 
L 437.460287 257.682864 
L 437.887464 255.063791 
L 438.314641 256.776718 
L 438.741818 256.539387 
L 439.168995 257.386845 
L 440.023349 257.426481 
L 440.450526 256.26114 
L 440.877703 254.475263 
L 441.30488 253.961065 
L 442.159234 254.074073 
L 442.586411 255.326414 
L 443.013589 256.080525 
L 443.440766 255.116997 
L 443.867943 256.87824 
L 444.722297 252.879528 
L 445.149474 254.139476 
L 445.576651 253.123732 
L 446.003828 253.545373 
L 446.431005 254.573442 
L 446.858182 252.141309 
L 447.285359 253.679193 
L 447.712536 254.374463 
L 448.139713 253.296768 
L 448.56689 254.628193 
L 448.994067 252.334119 
L 449.421244 252.548801 
L 449.848421 253.216775 
L 450.275598 253.226624 
L 450.702775 251.815073 
L 451.129952 253.532231 
L 451.557129 253.354 
L 451.984306 251.963374 
L 452.411483 252.66037 
L 452.83866 251.302387 
L 453.265837 252.229702 
L 453.693014 250.859758 
L 454.120191 251.40304 
L 454.547368 253.812589 
L 454.974545 252.889711 
L 455.401722 250.408213 
L 455.8289 250.860375 
L 456.256077 252.287724 
L 456.683254 252.548421 
L 457.110431 250.291536 
L 457.537608 251.895053 
L 457.964785 249.427549 
L 458.391962 249.376186 
L 458.819139 252.245438 
L 459.246316 251.613214 
L 459.673493 251.908442 
L 460.10067 250.083739 
L 460.527847 251.800401 
L 460.955024 252.409763 
L 461.382201 248.635824 
L 461.809378 249.495427 
L 462.236555 249.601372 
L 462.663732 250.888818 
L 463.518086 249.58923 
L 463.945263 251.263537 
L 464.37244 250.14599 
L 464.799617 249.812197 
L 465.226794 248.367831 
L 465.653971 249.269613 
L 466.081148 248.628082 
L 466.935502 250.704149 
L 467.362679 249.943943 
L 467.789856 251.100639 
L 468.217033 248.678918 
L 468.644211 248.18108 
L 469.071388 249.480934 
L 469.498565 250.268679 
L 469.925742 248.329519 
L 470.352919 249.145446 
L 470.780096 249.576226 
L 471.207273 248.148375 
L 471.63445 249.820196 
L 472.061627 248.028747 
L 472.488804 249.799914 
L 472.915981 248.625516 
L 473.343158 248.121695 
L 473.770335 250.108421 
L 474.197512 248.478424 
L 474.624689 248.897278 
L 475.051866 248.131558 
L 475.479043 249.422442 
L 475.90622 248.735046 
L 476.333397 247.346463 
L 476.760574 248.408368 
L 477.187751 247.763554 
L 478.042105 249.361366 
L 478.469282 248.383665 
L 479.323636 250.648944 
L 479.750813 247.161467 
L 480.17799 249.173095 
L 480.605167 249.798838 
L 481.032344 247.17206 
L 481.459522 248.041508 
L 481.886699 248.527335 
L 482.313876 248.09056 
L 482.741053 248.264804 
L 483.16823 246.912436 
L 483.595407 247.104384 
L 484.022584 249.291488 
L 484.449761 247.33635 
L 484.876938 246.93909 
L 485.304115 246.935471 
L 485.731292 249.702046 
L 486.585646 245.56068 
L 487.012823 246.57997 
L 487.44 248.806752 
L 487.867177 248.701841 
L 488.294354 246.669366 
L 488.721531 247.211301 
L 489.148708 246.107517 
L 489.575885 246.649074 
L 490.003062 246.774101 
L 490.857416 246.553518 
L 491.284593 247.791536 
L 491.71177 244.4112 
L 492.138947 247.770483 
L 492.566124 246.418557 
L 492.993301 246.820952 
L 493.420478 244.59886 
L 493.847656 245.236825 
L 494.274833 246.591535 
L 495.129187 244.839385 
L 495.556364 243.772417 
L 495.983541 245.448297 
L 496.410718 246.584232 
L 496.837895 246.43632 
L 497.265072 243.610252 
L 497.692249 247.235718 
L 498.119426 242.454171 
L 498.546603 245.38258 
L 498.97378 245.455785 
L 499.828134 243.976395 
L 500.255311 244.443535 
L 500.682488 246.396064 
L 501.109665 244.173859 
L 501.964019 243.663168 
L 502.818373 246.192003 
L 503.24555 244.200296 
L 503.672727 244.641711 
L 504.099904 244.352117 
L 504.527081 244.395035 
L 504.954258 243.756673 
L 505.381435 243.544596 
L 505.808612 242.398353 
L 506.235789 242.087551 
L 506.662967 243.575148 
L 507.517321 242.234976 
L 507.944498 241.142191 
L 508.798852 243.674492 
L 509.226029 241.759432 
L 509.653206 241.926232 
L 510.080383 240.042717 
L 510.50756 241.190021 
L 510.934737 241.912711 
L 511.361914 241.582953 
L 511.789091 241.478803 
L 512.216268 240.681062 
L 512.643445 240.521451 
L 513.070622 239.675622 
L 514.352153 240.847434 
L 514.77933 239.229929 
L 515.206507 239.685987 
L 515.633684 239.279176 
L 516.488038 237.474455 
L 516.915215 239.757121 
L 517.342392 237.19364 
L 517.769569 239.29425 
L 518.196746 238.064767 
L 518.623923 237.908441 
L 519.0511 238.16606 
L 519.478278 236.439424 
L 519.905455 66.96 
L 520.332632 236.703438 
L 520.759809 237.113031 
L 521.186986 237.744079 
L 521.614163 235.574481 
L 522.04134 238.380154 
L 522.468517 236.740445 
L 522.895694 237.45313 
L 523.322871 235.651527 
L 523.750048 235.369561 
L 524.177225 236.413296 
L 524.604402 234.575771 
L 525.031579 235.890959 
L 525.458756 234.121166 
L 525.885933 234.280192 
L 526.31311 233.616788 
L 526.740287 234.898457 
L 527.167464 233.723975 
L 527.594641 234.002153 
L 528.021818 234.68804 
L 528.876172 231.256382 
L 529.303349 233.231444 
L 529.730526 232.583871 
L 530.157703 231.53248 
L 530.58488 231.888449 
L 531.012057 229.904658 
L 531.439234 230.763677 
L 531.866411 229.072979 
L 532.293589 230.629624 
L 532.720766 231.738101 
L 533.147943 230.070794 
L 533.57512 231.05233 
L 534.002297 230.879073 
L 534.856651 228.606565 
L 535.283828 228.894426 
L 535.711005 228.213303 
L 536.138182 227.868329 
L 536.565359 228.60824 
L 536.992536 230.391674 
L 537.419713 227.216404 
L 537.84689 225.707409 
L 538.274067 227.379989 
L 538.701244 228.415124 
L 539.128421 227.257211 
L 539.555598 227.518585 
L 540.409952 225.533668 
L 540.837129 225.102535 
L 541.264306 225.421602 
L 541.691483 226.231792 
L 542.11866 224.378205 
L 542.545837 223.631672 
L 542.973014 222.548543 
L 543.400191 224.798335 
L 544.254545 222.741719 
L 544.681722 223.680736 
L 545.1089 222.837677 
L 545.963254 222.925827 
L 546.390431 222.392543 
L 546.817608 221.409083 
L 547.244785 221.661023 
L 547.671962 222.204993 
L 548.099139 223.569738 
L 548.526316 221.995774 
L 548.953493 221.033952 
L 549.38067 223.058993 
L 549.807847 218.490416 
L 550.235024 221.617572 
L 550.662201 221.066715 
L 551.089378 218.424599 
L 551.516555 221.506421 
L 551.943732 218.582375 
L 552.370909 219.323567 
L 552.798086 218.345864 
L 553.225263 217.714032 
L 553.65244 219.146263 
L 554.079617 218.671345 
L 554.506794 220.520791 
L 554.933971 218.419258 
L 555.361148 216.953314 
L 555.788325 216.599494 
L 556.215502 214.970819 
L 556.642679 216.525866 
L 557.069856 215.925335 
L 557.497033 216.04574 
L 557.924211 216.32524 
L 558.351388 214.96448 
L 559.205742 215.07032 
L 559.632919 215.705508 
L 560.487273 213.795841 
L 560.91445 213.668431 
L 561.341627 214.50539 
L 561.768804 214.455583 
L 562.195981 213.157594 
L 562.623158 212.451104 
L 563.050335 213.083399 
L 563.477512 213.266657 
L 563.904689 213.573141 
L 564.331866 212.941755 
L 564.759043 213.704862 
L 565.18622 212.781073 
L 565.613397 210.902958 
L 566.040574 210.721235 
L 566.467751 212.33124 
L 566.894928 211.144416 
L 567.322105 211.076373 
L 567.749282 212.463117 
L 568.176459 210.010665 
L 568.603636 212.306544 
L 569.030813 211.509243 
L 569.45799 209.271449 
L 569.885167 210.491705 
L 570.312344 210.011913 
L 570.739522 211.114286 
L 571.166699 210.778759 
L 571.593876 208.955685 
L 572.875407 209.974954 
L 573.302584 209.589651 
L 573.729761 206.560749 
L 574.156938 208.553703 
L 574.584115 207.385734 
L 575.438469 207.076186 
L 575.865646 207.347496 
L 576.292823 208.606165 
L 576.72 208.232024 
L 577.147177 206.473482 
L 577.574354 208.206625 
L 578.001531 206.383786 
L 578.428708 207.208998 
L 578.855885 206.943716 
L 579.283062 207.161273 
L 579.710239 206.512665 
L 580.137416 205.365716 
L 580.564593 205.618976 
L 580.99177 206.114282 
L 581.846124 204.13275 
L 582.273301 205.525792 
L 582.700478 204.966996 
L 583.127656 205.021366 
L 583.554833 206.04941 
L 583.98201 205.885296 
L 584.409187 203.170309 
L 584.836364 204.005514 
L 585.263541 204.021293 
L 585.690718 204.454864 
L 586.117895 204.038812 
L 586.545072 204.237832 
L 586.972249 204.234437 
L 587.399426 203.96686 
L 587.826603 204.993796 
L 588.25378 201.779514 
L 588.680957 203.14378 
L 589.108134 204.011049 
L 589.535311 202.580923 
L 589.962488 204.170459 
L 590.389665 201.945207 
L 591.244019 205.454525 
L 591.671196 202.003774 
L 592.098373 202.132675 
L 592.52555 203.792696 
L 592.952727 204.293864 
L 593.379904 204.603003 
L 593.807081 203.096367 
L 594.234258 204.450368 
L 595.088612 202.479568 
L 595.515789 201.77645 
L 595.942967 203.236956 
L 596.370144 202.532439 
L 596.797321 202.119459 
L 597.224498 200.716336 
L 597.651675 203.097005 
L 598.078852 203.623181 
L 598.506029 203.781066 
L 598.933206 201.526381 
L 599.360383 202.028517 
L 599.78756 201.209087 
L 600.214737 201.984556 
L 600.641914 201.439482 
L 601.496268 201.664892 
L 601.923445 202.200585 
L 602.350622 200.424947 
L 602.777799 201.894975 
L 603.204976 200.862846 
L 603.632153 201.269611 
L 604.05933 199.741615 
L 604.913684 201.576525 
L 605.340861 201.226906 
L 605.768038 201.283932 
L 606.195215 203.030521 
L 606.622392 199.522289 
L 607.049569 200.053019 
L 607.476746 201.677326 
L 607.903923 200.580919 
L 608.3311 200.661808 
L 608.758278 201.870454 
L 609.185455 199.428288 
L 609.612632 200.969183 
L 610.039809 200.52818 
L 610.466986 200.279497 
L 610.894163 201.510676 
L 611.32134 201.54741 
L 611.748517 200.553603 
L 612.175694 199.936184 
L 612.602871 200.347814 
L 613.030048 199.723134 
L 613.457225 200.014344 
L 613.884402 199.774241 
L 614.311579 201.505433 
L 614.738756 199.557019 
L 615.165933 200.847651 
L 616.020287 200.122334 
L 616.447464 201.480952 
L 616.874641 200.015516 
L 617.728995 200.476329 
L 618.156172 200.273294 
L 618.583349 198.5751 
L 619.010526 200.807621 
L 619.437703 199.798787 
L 619.86488 201.803237 
L 620.292057 200.103714 
L 620.719234 199.887362 
L 621.146411 197.961371 
L 621.573589 200.188242 
L 622.000766 200.044655 
L 622.427943 200.461945 
L 622.85512 198.957431 
L 623.282297 198.002636 
L 623.709474 200.085274 
L 624.136651 199.312059 
L 624.563828 197.606666 
L 624.991005 199.409645 
L 625.418182 198.087251 
L 625.845359 198.284964 
L 626.272536 199.758956 
L 626.699713 197.379751 
L 627.12689 197.687987 
L 627.554067 198.781732 
L 627.981244 199.081547 
L 628.408421 198.530977 
L 628.835598 197.34779 
L 629.689952 199.632138 
L 630.117129 197.962889 
L 630.544306 197.037701 
L 630.971483 198.710047 
L 631.39866 197.775581 
L 631.825837 198.579731 
L 632.253014 197.260137 
L 632.680191 197.389424 
L 633.107368 197.198933 
L 633.534545 197.634489 
L 633.961722 197.610043 
L 634.3889 196.060389 
L 634.816077 196.652576 
L 635.243254 196.809704 
L 635.670431 199.462163 
L 636.524785 195.60159 
L 636.951962 196.552491 
L 637.379139 197.165086 
L 637.806316 196.34126 
L 638.233493 196.159559 
L 638.66067 196.149003 
L 639.515024 194.044757 
L 639.942201 194.399719 
L 640.369378 194.030317 
L 640.796555 195.333944 
L 641.223732 194.123592 
L 641.650909 195.650869 
L 642.078086 194.739898 
L 642.505263 192.472511 
L 642.93244 194.33404 
L 643.786794 194.557094 
L 644.641148 191.79258 
L 645.068325 193.183054 
L 645.495502 193.639252 
L 645.922679 191.345566 
L 646.349856 193.787938 
L 646.777033 191.877953 
L 647.204211 193.129036 
L 647.631388 193.508096 
L 648.058565 191.290752 
L 648.485742 193.873849 
L 648.912919 192.336066 
L 649.340096 191.862797 
L 649.767273 192.101364 
L 650.19445 193.011827 
L 650.621627 191.91794 
L 651.048804 192.568598 
L 651.475981 189.20233 
L 651.903158 192.465188 
L 652.330335 192.501315 
L 652.757512 189.746988 
L 653.184689 189.359938 
L 653.611866 190.170415 
L 654.039043 189.981072 
L 654.893397 188.110575 
L 655.320574 190.63603 
L 655.747751 187.785218 
L 656.174928 188.589247 
L 656.602105 188.868037 
L 657.029282 187.190654 
L 657.456459 187.274184 
L 657.883636 186.749963 
L 658.310813 187.966092 
L 658.73799 186.772575 
L 659.165167 186.991101 
L 659.592344 187.511701 
L 660.019522 185.210895 
L 660.446699 186.443159 
L 660.873876 186.414316 
L 661.301053 185.653251 
L 661.72823 185.55099 
L 662.155407 186.320717 
L 662.582584 185.492428 
L 663.009761 182.82966 
L 663.436938 185.041635 
L 663.864115 185.009715 
L 664.291292 183.830938 
L 664.718469 183.896245 
L 665.145646 184.514704 
L 665.572823 184.770904 
L 666 182.76549 
L 666.427177 183.188028 
L 666.854354 182.611812 
L 667.281531 183.073039 
L 667.708708 184.069621 
L 668.135885 182.250329 
L 668.563062 179.881872 
L 668.990239 183.151423 
L 669.417416 182.465969 
L 669.844593 182.536179 
L 670.27177 181.398037 
L 670.698947 179.550736 
L 671.126124 180.699796 
L 671.553301 180.539838 
L 671.980478 181.22944 
L 672.834833 178.597374 
L 673.26201 177.223161 
L 673.689187 177.830866 
L 674.116364 179.570011 
L 674.543541 178.978296 
L 674.970718 177.707029 
L 675.397895 178.013846 
L 675.825072 177.495809 
L 676.252249 178.688302 
L 676.679426 177.621581 
L 677.106603 177.820345 
L 677.53378 177.564464 
L 678.388134 176.579533 
L 678.815311 175.94811 
L 679.242488 175.106739 
L 679.669665 175.892884 
L 680.096842 175.953297 
L 680.524019 173.437386 
L 680.951196 173.749014 
L 681.378373 173.76387 
L 681.80555 172.591605 
L 682.232727 174.78164 
L 682.659904 171.762124 
L 683.514258 172.844087 
L 683.941435 172.300654 
L 684.368612 172.561854 
L 684.795789 172.466745 
L 685.222967 173.553507 
L 685.650144 171.18467 
L 686.077321 169.656051 
L 686.504498 169.454684 
L 686.931675 170.959779 
L 687.358852 170.965757 
L 687.786029 170.454289 
L 688.213206 169.328126 
L 688.640383 168.780711 
L 689.06756 169.513682 
L 689.494737 168.625896 
L 689.921914 169.426802 
L 690.776268 167.839523 
L 691.203445 165.360197 
L 691.630622 168.496945 
L 692.057799 168.822371 
L 692.484976 167.570747 
L 692.912153 168.115736 
L 693.33933 166.933365 
L 693.766507 166.971853 
L 694.193684 165.852779 
L 694.620861 167.704349 
L 695.048038 167.703183 
L 695.475215 164.946187 
L 696.329569 166.776826 
L 696.756746 166.69568 
L 697.183923 166.00169 
L 697.6111 164.741802 
L 698.038278 165.548282 
L 698.465455 163.628427 
L 698.892632 164.420331 
L 699.319809 164.254943 
L 700.174163 164.29262 
L 700.60134 163.970194 
L 701.028517 162.558836 
L 701.455694 164.637795 
L 701.882871 162.224246 
L 702.310048 163.34086 
L 702.737225 162.155139 
L 703.164402 162.687125 
L 703.591579 163.672497 
L 704.018756 161.937946 
L 704.445933 162.651356 
L 704.87311 160.856778 
L 705.300287 162.457235 
L 705.727464 163.153597 
L 706.154641 162.122273 
L 706.581818 161.688298 
L 707.008995 161.745835 
L 707.436172 161.03616 
L 707.863349 161.192664 
L 708.290526 160.85591 
L 708.717703 160.015106 
L 709.14488 161.213501 
L 709.572057 159.294475 
L 709.999234 159.831314 
L 710.426411 159.70619 
L 710.853589 161.37547 
L 711.280766 159.637299 
L 711.707943 159.718274 
L 712.13512 158.287603 
L 712.562297 157.643983 
L 712.989474 157.644639 
L 713.416651 159.643071 
L 713.843828 159.212379 
L 714.271005 158.428254 
L 714.698182 159.177601 
L 715.125359 159.540412 
L 715.552536 157.219753 
L 715.979713 157.749766 
L 716.40689 157.122395 
L 716.834067 158.655959 
L 717.261244 157.743708 
L 717.688421 158.380154 
L 718.115598 157.947592 
L 718.542775 156.862346 
L 718.969952 157.699708 
L 719.397129 157.748306 
L 719.824306 157.921497 
L 720.251483 157.92796 
L 720.67866 157.297525 
L 721.105837 154.846613 
L 721.533014 156.896827 
L 721.960191 157.211813 
L 722.387368 157.377765 
L 722.814545 156.132412 
L 723.241722 156.257273 
L 723.6689 155.571551 
L 724.096077 155.966127 
L 724.523254 154.823311 
L 724.950431 154.867698 
L 725.377608 154.472123 
L 725.804785 155.127241 
L 726.231962 154.246442 
L 726.659139 155.250382 
L 727.086316 154.246182 
L 727.513493 155.16193 
L 728.367847 155.975322 
L 728.795024 155.432307 
L 729.222201 155.39395 
L 729.649378 154.110718 
L 730.503732 155.070183 
L 730.930909 155.245746 
L 731.358086 152.975708 
L 731.785263 154.506877 
L 732.21244 155.365777 
L 732.639617 154.553653 
L 733.066794 154.01256 
L 733.493971 153.2749 
L 733.921148 154.052392 
L 734.348325 153.81276 
L 734.775502 154.805396 
L 735.202679 153.070688 
L 735.629856 153.649858 
L 736.484211 152.216905 
L 736.911388 153.411898 
L 737.765742 154.169551 
L 738.192919 153.942977 
L 738.620096 154.20054 
L 739.047273 152.976154 
L 739.47445 154.604158 
L 739.901627 154.807949 
L 740.328804 153.774047 
L 740.755981 152.125296 
L 741.183158 152.95498 
L 741.610335 153.470511 
L 742.037512 152.359773 
L 742.464689 153.244911 
L 743.319043 152.763027 
L 743.74622 151.78843 
L 744.173397 151.555593 
L 744.600574 151.518161 
L 745.027751 151.748746 
L 745.027751 151.748746 
" style="fill:none;stroke:#1f77b4;stroke-linecap:square;stroke-width:1.5;"/>
   </g>
   <g id="line2d_19">
    <path clip-path="url(#p8ab48b5532)" d="M 747.163636 384.48 
L 747.163636 51.84 
" style="fill:none;stroke:#808080;stroke-linecap:square;"/>
   </g>
   <g id="patch_39">
    <path d="M 108 384.48 
L 108 51.84 
" style="fill:none;stroke:#000000;stroke-linecap:square;stroke-linejoin:miter;stroke-width:0.8;"/>
   </g>
   <g id="patch_40">
    <path d="M 777.6 384.48 
L 777.6 51.84 
" style="fill:none;stroke:#000000;stroke-linecap:square;stroke-linejoin:miter;stroke-width:0.8;"/>
   </g>
   <g id="patch_41">
    <path d="M 108 384.48 
L 777.6 384.48 
" style="fill:none;stroke:#000000;stroke-linecap:square;stroke-linejoin:miter;stroke-width:0.8;"/>
   </g>
   <g id="patch_42">
    <path d="M 108 51.84 
L 777.6 51.84 
" style="fill:none;stroke:#000000;stroke-linecap:square;stroke-linejoin:miter;stroke-width:0.8;"/>
   </g>
   <g id="text_20">
    <!-- synthetic_84.csv -->
    <defs>
     <path d="M 32.171875 -5.078125 
Q 28.375 -14.84375 24.75 -17.8125 
Q 21.140625 -20.796875 15.09375 -20.796875 
L 7.90625 -20.796875 
L 7.90625 -13.28125 
L 13.1875 -13.28125 
Q 16.890625 -13.28125 18.9375 -11.515625 
Q 21 -9.765625 23.484375 -3.21875 
L 25.09375 0.875 
L 2.984375 54.6875 
L 12.5 54.6875 
L 29.59375 11.921875 
L 46.6875 54.6875 
L 56.203125 54.6875 
z
" id="DejaVuSans-121"/>
     <path d="M 54.890625 33.015625 
L 54.890625 0 
L 45.90625 0 
L 45.90625 32.71875 
Q 45.90625 40.484375 42.875 44.328125 
Q 39.84375 48.1875 33.796875 48.1875 
Q 26.515625 48.1875 22.3125 43.546875 
Q 18.109375 38.921875 18.109375 30.90625 
L 18.109375 0 
L 9.078125 0 
L 9.078125 54.6875 
L 18.109375 54.6875 
L 18.109375 46.1875 
Q 21.34375 51.125 25.703125 53.5625 
Q 30.078125 56 35.796875 56 
Q 45.21875 56 50.046875 50.171875 
Q 54.890625 44.34375 54.890625 33.015625 
z
" id="DejaVuSans-110"/>
     <path d="M 54.890625 33.015625 
L 54.890625 0 
L 45.90625 0 
L 45.90625 32.71875 
Q 45.90625 40.484375 42.875 44.328125 
Q 39.84375 48.1875 33.796875 48.1875 
Q 26.515625 48.1875 22.3125 43.546875 
Q 18.109375 38.921875 18.109375 30.90625 
L 18.109375 0 
L 9.078125 0 
L 9.078125 75.984375 
L 18.109375 75.984375 
L 18.109375 46.1875 
Q 21.34375 51.125 25.703125 53.5625 
Q 30.078125 56 35.796875 56 
Q 45.21875 56 50.046875 50.171875 
Q 54.890625 44.34375 54.890625 33.015625 
z
" id="DejaVuSans-104"/>
     <path d="M 48.78125 52.59375 
L 48.78125 44.1875 
Q 44.96875 46.296875 41.140625 47.34375 
Q 37.3125 48.390625 33.40625 48.390625 
Q 24.65625 48.390625 19.8125 42.84375 
Q 14.984375 37.3125 14.984375 27.296875 
Q 14.984375 17.28125 19.8125 11.734375 
Q 24.65625 6.203125 33.40625 6.203125 
Q 37.3125 6.203125 41.140625 7.25 
Q 44.96875 8.296875 48.78125 10.40625 
L 48.78125 2.09375 
Q 45.015625 0.34375 40.984375 -0.53125 
Q 36.96875 -1.421875 32.421875 -1.421875 
Q 20.0625 -1.421875 12.78125 6.34375 
Q 5.515625 14.109375 5.515625 27.296875 
Q 5.515625 40.671875 12.859375 48.328125 
Q 20.21875 56 33.015625 56 
Q 37.15625 56 41.109375 55.140625 
Q 45.0625 54.296875 48.78125 52.59375 
z
" id="DejaVuSans-99"/>
     <path d="M 50.984375 -16.609375 
L 50.984375 -23.578125 
L -0.984375 -23.578125 
L -0.984375 -16.609375 
z
" id="DejaVuSans-95"/>
     <path d="M 10.6875 12.40625 
L 21 12.40625 
L 21 0 
L 10.6875 0 
z
" id="DejaVuSans-46"/>
     <path d="M 2.984375 54.6875 
L 12.5 54.6875 
L 29.59375 8.796875 
L 46.6875 54.6875 
L 56.203125 54.6875 
L 35.6875 0 
L 23.484375 0 
z
" id="DejaVuSans-118"/>
    </defs>
    <g transform="translate(392.638125 45.84)scale(0.12 -0.12)">
     <use xlink:href="#DejaVuSans-115"/>
     <use x="52.099609" xlink:href="#DejaVuSans-121"/>
     <use x="111.279297" xlink:href="#DejaVuSans-110"/>
     <use x="174.658203" xlink:href="#DejaVuSans-116"/>
     <use x="213.867188" xlink:href="#DejaVuSans-104"/>
     <use x="277.246094" xlink:href="#DejaVuSans-101"/>
     <use x="338.769531" xlink:href="#DejaVuSans-116"/>
     <use x="377.978516" xlink:href="#DejaVuSans-105"/>
     <use x="405.761719" xlink:href="#DejaVuSans-99"/>
     <use x="460.742188" xlink:href="#DejaVuSans-95"/>
     <use x="510.742188" xlink:href="#DejaVuSans-56"/>
     <use x="574.365234" xlink:href="#DejaVuSans-52"/>
     <use x="637.988281" xlink:href="#DejaVuSans-46"/>
     <use x="669.775391" xlink:href="#DejaVuSans-99"/>
     <use x="724.755859" xlink:href="#DejaVuSans-115"/>
     <use x="776.855469" xlink:href="#DejaVuSans-118"/>
    </g>
   </g>
   <g id="legend_1">
    <g id="patch_43">
     <path d="M 115 74.518125 
L 174.315625 74.518125 
Q 176.315625 74.518125 176.315625 72.518125 
L 176.315625 58.84 
Q 176.315625 56.84 174.315625 56.84 
L 115 56.84 
Q 113 56.84 113 58.84 
L 113 72.518125 
Q 113 74.518125 115 74.518125 
z
" style="fill:#ffffff;opacity:0.8;stroke:#cccccc;stroke-linejoin:miter;"/>
    </g>
    <g id="line2d_20">
     <path d="M 117 64.938438 
L 137 64.938438 
" style="fill:none;stroke:#1f77b4;stroke-linecap:square;stroke-width:1.5;"/>
    </g>
    <g id="line2d_21"/>
    <g id="text_21">
     <!-- value -->
     <g transform="translate(145 68.438438)scale(0.1 -0.1)">
      <use xlink:href="#DejaVuSans-118"/>
      <use x="59.179688" xlink:href="#DejaVuSans-97"/>
      <use x="120.458984" xlink:href="#DejaVuSans-108"/>
      <use x="148.242188" xlink:href="#DejaVuSans-117"/>
      <use x="211.621094" xlink:href="#DejaVuSans-101"/>
     </g>
    </g>
   </g>
  </g>
 </g>
 <defs>
  <clipPath id="p8ab48b5532">
   <rect height="332.64" width="669.6" x="108" y="51.84"/>
  </clipPath>
 </defs>
</svg>
