<?xml version="1.0" encoding="utf-8" standalone="no"?>
<!DOCTYPE svg PUBLIC "-//W3C//DTD SVG 1.1//EN"
  "http://www.w3.org/Graphics/SVG/1.1/DTD/svg11.dtd">
<!-- Created with matplotlib (https://matplotlib.org/) -->
<svg height="432pt" version="1.1" viewBox="0 0 864 432" width="864pt" xmlns="http://www.w3.org/2000/svg" xmlns:xlink="http://www.w3.org/1999/xlink">
 <defs>
  <style type="text/css">
*{stroke-linecap:butt;stroke-linejoin:round;}
  </style>
 </defs>
 <g id="figure_1">
  <g id="patch_1">
   <path d="M 0 432 
L 864 432 
L 864 0 
L 0 0 
z
" style="fill:#ffffff;"/>
  </g>
  <g id="axes_1">
   <g id="patch_2">
    <path d="M 108 384.48 
L 777.6 384.48 
L 777.6 51.84 
L 108 51.84 
z
" style="fill:#ffffff;"/>
   </g>
   <g id="patch_3">
    <path clip-path="url(#pcd37e949b0)" d="M 138.436364 384.48 
L 138.436364 51.84 
L 373.383732 51.84 
L 373.383732 384.48 
z
" style="fill:#0000ff;opacity:0.05;"/>
   </g>
   <g id="patch_4">
    <path clip-path="url(#pcd37e949b0)" d="M 373.383732 384.48 
L 373.383732 51.84 
L 747.163636 51.84 
L 747.163636 384.48 
z
" style="fill:#ff0000;opacity:0.08;"/>
   </g>
   <g id="patch_5">
    <path clip-path="url(#pcd37e949b0)" d="M 138.436364 384.48 
L 138.436364 51.84 
L 149.115789 51.84 
L 149.115789 384.48 
z
" style="fill:#008000;opacity:0.04;"/>
   </g>
   <g id="patch_6">
    <path clip-path="url(#pcd37e949b0)" d="M 159.795215 384.48 
L 159.795215 51.84 
L 170.474641 51.84 
L 170.474641 384.48 
z
" style="fill:#008000;opacity:0.04;"/>
   </g>
   <g id="patch_7">
    <path clip-path="url(#pcd37e949b0)" d="M 394.742584 384.48 
L 394.742584 371.1744 
L 405.42201 371.1744 
L 405.42201 384.48 
z
" style="fill:#ff6600;"/>
   </g>
   <g id="patch_8">
    <path clip-path="url(#pcd37e949b0)" d="M 405.42201 384.48 
L 405.42201 371.1744 
L 416.101435 371.1744 
L 416.101435 384.48 
z
" style="fill:#ff6600;"/>
   </g>
   <g id="patch_9">
    <path clip-path="url(#pcd37e949b0)" d="M 181.154067 384.48 
L 181.154067 51.84 
L 191.833493 51.84 
L 191.833493 384.48 
z
" style="fill:#008000;opacity:0.04;"/>
   </g>
   <g id="patch_10">
    <path clip-path="url(#pcd37e949b0)" d="M 416.101435 384.48 
L 416.101435 371.1744 
L 426.780861 371.1744 
L 426.780861 384.48 
z
" style="fill:#ff6600;"/>
   </g>
   <g id="patch_11">
    <path clip-path="url(#pcd37e949b0)" d="M 202.512919 384.48 
L 202.512919 51.84 
L 213.192344 51.84 
L 213.192344 384.48 
z
" style="fill:#008000;opacity:0.04;"/>
   </g>
   <g id="patch_12">
    <path clip-path="url(#pcd37e949b0)" d="M 223.87177 384.48 
L 223.87177 51.84 
L 234.551196 51.84 
L 234.551196 384.48 
z
" style="fill:#008000;opacity:0.04;"/>
   </g>
   <g id="patch_13">
    <path clip-path="url(#pcd37e949b0)" d="M 245.230622 384.48 
L 245.230622 51.84 
L 255.910048 51.84 
L 255.910048 384.48 
z
" style="fill:#008000;opacity:0.04;"/>
   </g>
   <g id="patch_14">
    <path clip-path="url(#pcd37e949b0)" d="M 245.230622 384.48 
L 245.230622 371.1744 
L 255.910048 371.1744 
L 255.910048 384.48 
z
" style="fill:#ffe500;"/>
   </g>
   <g id="patch_15">
    <path clip-path="url(#pcd37e949b0)" d="M 266.589474 384.48 
L 266.589474 51.84 
L 277.2689 51.84 
L 277.2689 384.48 
z
" style="fill:#008000;opacity:0.04;"/>
   </g>
   <g id="patch_16">
    <path clip-path="url(#pcd37e949b0)" d="M 277.2689 384.48 
L 277.2689 371.1744 
L 287.948325 371.1744 
L 287.948325 384.48 
z
" style="fill:#ffe500;"/>
   </g>
   <g id="patch_17">
    <path clip-path="url(#pcd37e949b0)" d="M 512.216268 384.48 
L 512.216268 371.1744 
L 522.895694 371.1744 
L 522.895694 384.48 
z
" style="fill:#ff6600;"/>
   </g>
   <g id="patch_18">
    <path clip-path="url(#pcd37e949b0)" d="M 287.948325 384.48 
L 287.948325 51.84 
L 298.627751 51.84 
L 298.627751 384.48 
z
" style="fill:#008000;opacity:0.04;"/>
   </g>
   <g id="patch_19">
    <path clip-path="url(#pcd37e949b0)" d="M 309.307177 384.48 
L 309.307177 51.84 
L 319.986603 51.84 
L 319.986603 384.48 
z
" style="fill:#008000;opacity:0.04;"/>
   </g>
   <g id="patch_20">
    <path clip-path="url(#pcd37e949b0)" d="M 330.666029 384.48 
L 330.666029 51.84 
L 341.345455 51.84 
L 341.345455 384.48 
z
" style="fill:#008000;opacity:0.04;"/>
   </g>
   <g id="patch_21">
    <path clip-path="url(#pcd37e949b0)" d="M 352.02488 384.48 
L 352.02488 51.84 
L 362.704306 51.84 
L 362.704306 384.48 
z
" style="fill:#008000;opacity:0.04;"/>
   </g>
   <g id="patch_22">
    <path clip-path="url(#pcd37e949b0)" d="M 373.383732 384.48 
L 373.383732 51.84 
L 384.063158 51.84 
L 384.063158 384.48 
z
" style="fill:#008000;opacity:0.04;"/>
   </g>
   <g id="patch_23">
    <path clip-path="url(#pcd37e949b0)" d="M 394.742584 384.48 
L 394.742584 51.84 
L 405.42201 51.84 
L 405.42201 384.48 
z
" style="fill:#008000;opacity:0.04;"/>
   </g>
   <g id="patch_24">
    <path clip-path="url(#pcd37e949b0)" d="M 394.742584 371.1744 
L 394.742584 51.84 
L 405.42201 51.84 
L 405.42201 371.1744 
z
" style="fill:#008000;opacity:0.5;"/>
   </g>
   <g id="patch_25">
    <path clip-path="url(#pcd37e949b0)" d="M 405.42201 371.1744 
L 405.42201 51.84 
L 416.101435 51.84 
L 416.101435 371.1744 
z
" style="fill:#008000;opacity:0.5;"/>
   </g>
   <g id="patch_26">
    <path clip-path="url(#pcd37e949b0)" d="M 416.101435 384.48 
L 416.101435 51.84 
L 426.780861 51.84 
L 426.780861 384.48 
z
" style="fill:#008000;opacity:0.04;"/>
   </g>
   <g id="patch_27">
    <path clip-path="url(#pcd37e949b0)" d="M 416.101435 371.1744 
L 416.101435 51.84 
L 426.780861 51.84 
L 426.780861 371.1744 
z
" style="fill:#008000;opacity:0.5;"/>
   </g>
   <g id="patch_28">
    <path clip-path="url(#pcd37e949b0)" d="M 437.460287 384.48 
L 437.460287 51.84 
L 448.139713 51.84 
L 448.139713 384.48 
z
" style="fill:#008000;opacity:0.04;"/>
   </g>
   <g id="patch_29">
    <path clip-path="url(#pcd37e949b0)" d="M 458.819139 384.48 
L 458.819139 51.84 
L 469.498565 51.84 
L 469.498565 384.48 
z
" style="fill:#008000;opacity:0.04;"/>
   </g>
   <g id="patch_30">
    <path clip-path="url(#pcd37e949b0)" d="M 480.17799 384.48 
L 480.17799 51.84 
L 490.857416 51.84 
L 490.857416 384.48 
z
" style="fill:#008000;opacity:0.04;"/>
   </g>
   <g id="patch_31">
    <path clip-path="url(#pcd37e949b0)" d="M 501.536842 384.48 
L 501.536842 51.84 
L 512.216268 51.84 
L 512.216268 384.48 
z
" style="fill:#008000;opacity:0.04;"/>
   </g>
   <g id="patch_32">
    <path clip-path="url(#pcd37e949b0)" d="M 512.216268 371.1744 
L 512.216268 51.84 
L 522.895694 51.84 
L 522.895694 371.1744 
z
" style="fill:#008000;opacity:0.5;"/>
   </g>
   <g id="patch_33">
    <path clip-path="url(#pcd37e949b0)" d="M 522.895694 384.48 
L 522.895694 51.84 
L 533.57512 51.84 
L 533.57512 384.48 
z
" style="fill:#008000;opacity:0.04;"/>
   </g>
   <g id="patch_34">
    <path clip-path="url(#pcd37e949b0)" d="M 544.254545 384.48 
L 544.254545 51.84 
L 554.933971 51.84 
L 554.933971 384.48 
z
" style="fill:#008000;opacity:0.04;"/>
   </g>
   <g id="patch_35">
    <path clip-path="url(#pcd37e949b0)" d="M 565.613397 384.48 
L 565.613397 51.84 
L 576.292823 51.84 
L 576.292823 384.48 
z
" style="fill:#008000;opacity:0.04;"/>
   </g>
   <g id="patch_36">
    <path clip-path="url(#pcd37e949b0)" d="M 586.972249 384.48 
L 586.972249 51.84 
L 597.651675 51.84 
L 597.651675 384.48 
z
" style="fill:#008000;opacity:0.04;"/>
   </g>
   <g id="patch_37">
    <path clip-path="url(#pcd37e949b0)" d="M 608.3311 384.48 
L 608.3311 51.84 
L 619.010526 51.84 
L 619.010526 384.48 
z
" style="fill:#008000;opacity:0.04;"/>
   </g>
   <g id="patch_38">
    <path clip-path="url(#pcd37e949b0)" d="M 629.689952 384.48 
L 629.689952 51.84 
L 640.369378 51.84 
L 640.369378 384.48 
z
" style="fill:#008000;opacity:0.04;"/>
   </g>
   <g id="patch_39">
    <path clip-path="url(#pcd37e949b0)" d="M 651.048804 384.48 
L 651.048804 51.84 
L 661.72823 51.84 
L 661.72823 384.48 
z
" style="fill:#008000;opacity:0.04;"/>
   </g>
   <g id="patch_40">
    <path clip-path="url(#pcd37e949b0)" d="M 672.407656 384.48 
L 672.407656 51.84 
L 683.087081 51.84 
L 683.087081 384.48 
z
" style="fill:#008000;opacity:0.04;"/>
   </g>
   <g id="patch_41">
    <path clip-path="url(#pcd37e949b0)" d="M 693.766507 384.48 
L 693.766507 51.84 
L 704.445933 51.84 
L 704.445933 384.48 
z
" style="fill:#008000;opacity:0.04;"/>
   </g>
   <g id="patch_42">
    <path clip-path="url(#pcd37e949b0)" d="M 715.125359 384.48 
L 715.125359 51.84 
L 725.804785 51.84 
L 725.804785 384.48 
z
" style="fill:#008000;opacity:0.04;"/>
   </g>
   <g id="patch_43">
    <path clip-path="url(#pcd37e949b0)" d="M 736.484211 384.48 
L 736.484211 51.84 
L 747.163636 51.84 
L 747.163636 384.48 
z
" style="fill:#008000;opacity:0.04;"/>
   </g>
   <g id="matplotlib.axis_1">
    <g id="xtick_1">
     <g id="line2d_1">
      <defs>
       <path d="M 0 0 
L 0 3.5 
" id="m79cb36270f" style="stroke:#000000;stroke-width:0.8;"/>
      </defs>
      <g>
       <use style="stroke:#000000;stroke-width:0.8;" x="138.436364" xlink:href="#m79cb36270f" y="384.48"/>
      </g>
     </g>
     <g id="text_1">
      <!-- 0 -->
      <defs>
       <path d="M 31.78125 66.40625 
Q 24.171875 66.40625 20.328125 58.90625 
Q 16.5 51.421875 16.5 36.375 
Q 16.5 21.390625 20.328125 13.890625 
Q 24.171875 6.390625 31.78125 6.390625 
Q 39.453125 6.390625 43.28125 13.890625 
Q 47.125 21.390625 47.125 36.375 
Q 47.125 51.421875 43.28125 58.90625 
Q 39.453125 66.40625 31.78125 66.40625 
z
M 31.78125 74.21875 
Q 44.046875 74.21875 50.515625 64.515625 
Q 56.984375 54.828125 56.984375 36.375 
Q 56.984375 17.96875 50.515625 8.265625 
Q 44.046875 -1.421875 31.78125 -1.421875 
Q 19.53125 -1.421875 13.0625 8.265625 
Q 6.59375 17.96875 6.59375 36.375 
Q 6.59375 54.828125 13.0625 64.515625 
Q 19.53125 74.21875 31.78125 74.21875 
z
" id="DejaVuSans-48"/>
      </defs>
      <g transform="translate(135.255114 399.078438)scale(0.1 -0.1)">
       <use xlink:href="#DejaVuSans-48"/>
      </g>
     </g>
    </g>
    <g id="xtick_2">
     <g id="line2d_2">
      <g>
       <use style="stroke:#000000;stroke-width:0.8;" x="223.87177" xlink:href="#m79cb36270f" y="384.48"/>
      </g>
     </g>
     <g id="text_2">
      <!-- 200 -->
      <defs>
       <path d="M 19.1875 8.296875 
L 53.609375 8.296875 
L 53.609375 0 
L 7.328125 0 
L 7.328125 8.296875 
Q 12.9375 14.109375 22.625 23.890625 
Q 32.328125 33.6875 34.8125 36.53125 
Q 39.546875 41.84375 41.421875 45.53125 
Q 43.3125 49.21875 43.3125 52.78125 
Q 43.3125 58.59375 39.234375 62.25 
Q 35.15625 65.921875 28.609375 65.921875 
Q 23.96875 65.921875 18.8125 64.3125 
Q 13.671875 62.703125 7.8125 59.421875 
L 7.8125 69.390625 
Q 13.765625 71.78125 18.9375 73 
Q 24.125 74.21875 28.421875 74.21875 
Q 39.75 74.21875 46.484375 68.546875 
Q 53.21875 62.890625 53.21875 53.421875 
Q 53.21875 48.921875 51.53125 44.890625 
Q 49.859375 40.875 45.40625 35.40625 
Q 44.1875 33.984375 37.640625 27.21875 
Q 31.109375 20.453125 19.1875 8.296875 
z
" id="DejaVuSans-50"/>
      </defs>
      <g transform="translate(214.32802 399.078438)scale(0.1 -0.1)">
       <use xlink:href="#DejaVuSans-50"/>
       <use x="63.623047" xlink:href="#DejaVuSans-48"/>
       <use x="127.246094" xlink:href="#DejaVuSans-48"/>
      </g>
     </g>
    </g>
    <g id="xtick_3">
     <g id="line2d_3">
      <g>
       <use style="stroke:#000000;stroke-width:0.8;" x="309.307177" xlink:href="#m79cb36270f" y="384.48"/>
      </g>
     </g>
     <g id="text_3">
      <!-- 400 -->
      <defs>
       <path d="M 37.796875 64.3125 
L 12.890625 25.390625 
L 37.796875 25.390625 
z
M 35.203125 72.90625 
L 47.609375 72.90625 
L 47.609375 25.390625 
L 58.015625 25.390625 
L 58.015625 17.1875 
L 47.609375 17.1875 
L 47.609375 0 
L 37.796875 0 
L 37.796875 17.1875 
L 4.890625 17.1875 
L 4.890625 26.703125 
z
" id="DejaVuSans-52"/>
      </defs>
      <g transform="translate(299.763427 399.078438)scale(0.1 -0.1)">
       <use xlink:href="#DejaVuSans-52"/>
       <use x="63.623047" xlink:href="#DejaVuSans-48"/>
       <use x="127.246094" xlink:href="#DejaVuSans-48"/>
      </g>
     </g>
    </g>
    <g id="xtick_4">
     <g id="line2d_4">
      <g>
       <use style="stroke:#000000;stroke-width:0.8;" x="394.742584" xlink:href="#m79cb36270f" y="384.48"/>
      </g>
     </g>
     <g id="text_4">
      <!-- 600 -->
      <defs>
       <path d="M 33.015625 40.375 
Q 26.375 40.375 22.484375 35.828125 
Q 18.609375 31.296875 18.609375 23.390625 
Q 18.609375 15.53125 22.484375 10.953125 
Q 26.375 6.390625 33.015625 6.390625 
Q 39.65625 6.390625 43.53125 10.953125 
Q 47.40625 15.53125 47.40625 23.390625 
Q 47.40625 31.296875 43.53125 35.828125 
Q 39.65625 40.375 33.015625 40.375 
z
M 52.59375 71.296875 
L 52.59375 62.3125 
Q 48.875 64.0625 45.09375 64.984375 
Q 41.3125 65.921875 37.59375 65.921875 
Q 27.828125 65.921875 22.671875 59.328125 
Q 17.53125 52.734375 16.796875 39.40625 
Q 19.671875 43.65625 24.015625 45.921875 
Q 28.375 48.1875 33.59375 48.1875 
Q 44.578125 48.1875 50.953125 41.515625 
Q 57.328125 34.859375 57.328125 23.390625 
Q 57.328125 12.15625 50.6875 5.359375 
Q 44.046875 -1.421875 33.015625 -1.421875 
Q 20.359375 -1.421875 13.671875 8.265625 
Q 6.984375 17.96875 6.984375 36.375 
Q 6.984375 53.65625 15.1875 63.9375 
Q 23.390625 74.21875 37.203125 74.21875 
Q 40.921875 74.21875 44.703125 73.484375 
Q 48.484375 72.75 52.59375 71.296875 
z
" id="DejaVuSans-54"/>
      </defs>
      <g transform="translate(385.198834 399.078438)scale(0.1 -0.1)">
       <use xlink:href="#DejaVuSans-54"/>
       <use x="63.623047" xlink:href="#DejaVuSans-48"/>
       <use x="127.246094" xlink:href="#DejaVuSans-48"/>
      </g>
     </g>
    </g>
    <g id="xtick_5">
     <g id="line2d_5">
      <g>
       <use style="stroke:#000000;stroke-width:0.8;" x="480.17799" xlink:href="#m79cb36270f" y="384.48"/>
      </g>
     </g>
     <g id="text_5">
      <!-- 800 -->
      <defs>
       <path d="M 31.78125 34.625 
Q 24.75 34.625 20.71875 30.859375 
Q 16.703125 27.09375 16.703125 20.515625 
Q 16.703125 13.921875 20.71875 10.15625 
Q 24.75 6.390625 31.78125 6.390625 
Q 38.8125 6.390625 42.859375 10.171875 
Q 46.921875 13.96875 46.921875 20.515625 
Q 46.921875 27.09375 42.890625 30.859375 
Q 38.875 34.625 31.78125 34.625 
z
M 21.921875 38.8125 
Q 15.578125 40.375 12.03125 44.71875 
Q 8.5 49.078125 8.5 55.328125 
Q 8.5 64.0625 14.71875 69.140625 
Q 20.953125 74.21875 31.78125 74.21875 
Q 42.671875 74.21875 48.875 69.140625 
Q 55.078125 64.0625 55.078125 55.328125 
Q 55.078125 49.078125 51.53125 44.71875 
Q 48 40.375 41.703125 38.8125 
Q 48.828125 37.15625 52.796875 32.3125 
Q 56.78125 27.484375 56.78125 20.515625 
Q 56.78125 9.90625 50.3125 4.234375 
Q 43.84375 -1.421875 31.78125 -1.421875 
Q 19.734375 -1.421875 13.25 4.234375 
Q 6.78125 9.90625 6.78125 20.515625 
Q 6.78125 27.484375 10.78125 32.3125 
Q 14.796875 37.15625 21.921875 38.8125 
z
M 18.3125 54.390625 
Q 18.3125 48.734375 21.84375 45.5625 
Q 25.390625 42.390625 31.78125 42.390625 
Q 38.140625 42.390625 41.71875 45.5625 
Q 45.3125 48.734375 45.3125 54.390625 
Q 45.3125 60.0625 41.71875 63.234375 
Q 38.140625 66.40625 31.78125 66.40625 
Q 25.390625 66.40625 21.84375 63.234375 
Q 18.3125 60.0625 18.3125 54.390625 
z
" id="DejaVuSans-56"/>
      </defs>
      <g transform="translate(470.63424 399.078438)scale(0.1 -0.1)">
       <use xlink:href="#DejaVuSans-56"/>
       <use x="63.623047" xlink:href="#DejaVuSans-48"/>
       <use x="127.246094" xlink:href="#DejaVuSans-48"/>
      </g>
     </g>
    </g>
    <g id="xtick_6">
     <g id="line2d_6">
      <g>
       <use style="stroke:#000000;stroke-width:0.8;" x="565.613397" xlink:href="#m79cb36270f" y="384.48"/>
      </g>
     </g>
     <g id="text_6">
      <!-- 1000 -->
      <defs>
       <path d="M 12.40625 8.296875 
L 28.515625 8.296875 
L 28.515625 63.921875 
L 10.984375 60.40625 
L 10.984375 69.390625 
L 28.421875 72.90625 
L 38.28125 72.90625 
L 38.28125 8.296875 
L 54.390625 8.296875 
L 54.390625 0 
L 12.40625 0 
z
" id="DejaVuSans-49"/>
      </defs>
      <g transform="translate(552.888397 399.078438)scale(0.1 -0.1)">
       <use xlink:href="#DejaVuSans-49"/>
       <use x="63.623047" xlink:href="#DejaVuSans-48"/>
       <use x="127.246094" xlink:href="#DejaVuSans-48"/>
       <use x="190.869141" xlink:href="#DejaVuSans-48"/>
      </g>
     </g>
    </g>
    <g id="xtick_7">
     <g id="line2d_7">
      <g>
       <use style="stroke:#000000;stroke-width:0.8;" x="651.048804" xlink:href="#m79cb36270f" y="384.48"/>
      </g>
     </g>
     <g id="text_7">
      <!-- 1200 -->
      <g transform="translate(638.323804 399.078438)scale(0.1 -0.1)">
       <use xlink:href="#DejaVuSans-49"/>
       <use x="63.623047" xlink:href="#DejaVuSans-50"/>
       <use x="127.246094" xlink:href="#DejaVuSans-48"/>
       <use x="190.869141" xlink:href="#DejaVuSans-48"/>
      </g>
     </g>
    </g>
    <g id="xtick_8">
     <g id="line2d_8">
      <g>
       <use style="stroke:#000000;stroke-width:0.8;" x="736.484211" xlink:href="#m79cb36270f" y="384.48"/>
      </g>
     </g>
     <g id="text_8">
      <!-- 1400 -->
      <g transform="translate(723.759211 399.078438)scale(0.1 -0.1)">
       <use xlink:href="#DejaVuSans-49"/>
       <use x="63.623047" xlink:href="#DejaVuSans-52"/>
       <use x="127.246094" xlink:href="#DejaVuSans-48"/>
       <use x="190.869141" xlink:href="#DejaVuSans-48"/>
      </g>
     </g>
    </g>
    <g id="text_9">
     <!-- Timestamp -->
     <defs>
      <path d="M -0.296875 72.90625 
L 61.375 72.90625 
L 61.375 64.59375 
L 35.5 64.59375 
L 35.5 0 
L 25.59375 0 
L 25.59375 64.59375 
L -0.296875 64.59375 
z
" id="DejaVuSans-84"/>
      <path d="M 9.421875 54.6875 
L 18.40625 54.6875 
L 18.40625 0 
L 9.421875 0 
z
M 9.421875 75.984375 
L 18.40625 75.984375 
L 18.40625 64.59375 
L 9.421875 64.59375 
z
" id="DejaVuSans-105"/>
      <path d="M 52 44.1875 
Q 55.375 50.25 60.0625 53.125 
Q 64.75 56 71.09375 56 
Q 79.640625 56 84.28125 50.015625 
Q 88.921875 44.046875 88.921875 33.015625 
L 88.921875 0 
L 79.890625 0 
L 79.890625 32.71875 
Q 79.890625 40.578125 77.09375 44.375 
Q 74.3125 48.1875 68.609375 48.1875 
Q 61.625 48.1875 57.5625 43.546875 
Q 53.515625 38.921875 53.515625 30.90625 
L 53.515625 0 
L 44.484375 0 
L 44.484375 32.71875 
Q 44.484375 40.625 41.703125 44.40625 
Q 38.921875 48.1875 33.109375 48.1875 
Q 26.21875 48.1875 22.15625 43.53125 
Q 18.109375 38.875 18.109375 30.90625 
L 18.109375 0 
L 9.078125 0 
L 9.078125 54.6875 
L 18.109375 54.6875 
L 18.109375 46.1875 
Q 21.1875 51.21875 25.484375 53.609375 
Q 29.78125 56 35.6875 56 
Q 41.65625 56 45.828125 52.96875 
Q 50 49.953125 52 44.1875 
z
" id="DejaVuSans-109"/>
      <path d="M 56.203125 29.59375 
L 56.203125 25.203125 
L 14.890625 25.203125 
Q 15.484375 15.921875 20.484375 11.0625 
Q 25.484375 6.203125 34.421875 6.203125 
Q 39.59375 6.203125 44.453125 7.46875 
Q 49.3125 8.734375 54.109375 11.28125 
L 54.109375 2.78125 
Q 49.265625 0.734375 44.1875 -0.34375 
Q 39.109375 -1.421875 33.890625 -1.421875 
Q 20.796875 -1.421875 13.15625 6.1875 
Q 5.515625 13.8125 5.515625 26.8125 
Q 5.515625 40.234375 12.765625 48.109375 
Q 20.015625 56 32.328125 56 
Q 43.359375 56 49.78125 48.890625 
Q 56.203125 41.796875 56.203125 29.59375 
z
M 47.21875 32.234375 
Q 47.125 39.59375 43.09375 43.984375 
Q 39.0625 48.390625 32.421875 48.390625 
Q 24.90625 48.390625 20.390625 44.140625 
Q 15.875 39.890625 15.1875 32.171875 
z
" id="DejaVuSans-101"/>
      <path d="M 44.28125 53.078125 
L 44.28125 44.578125 
Q 40.484375 46.53125 36.375 47.5 
Q 32.28125 48.484375 27.875 48.484375 
Q 21.1875 48.484375 17.84375 46.4375 
Q 14.5 44.390625 14.5 40.28125 
Q 14.5 37.15625 16.890625 35.375 
Q 19.28125 33.59375 26.515625 31.984375 
L 29.59375 31.296875 
Q 39.15625 29.25 43.1875 25.515625 
Q 47.21875 21.78125 47.21875 15.09375 
Q 47.21875 7.46875 41.1875 3.015625 
Q 35.15625 -1.421875 24.609375 -1.421875 
Q 20.21875 -1.421875 15.453125 -0.5625 
Q 10.6875 0.296875 5.421875 2 
L 5.421875 11.28125 
Q 10.40625 8.6875 15.234375 7.390625 
Q 20.0625 6.109375 24.8125 6.109375 
Q 31.15625 6.109375 34.5625 8.28125 
Q 37.984375 10.453125 37.984375 14.40625 
Q 37.984375 18.0625 35.515625 20.015625 
Q 33.0625 21.96875 24.703125 23.78125 
L 21.578125 24.515625 
Q 13.234375 26.265625 9.515625 29.90625 
Q 5.8125 33.546875 5.8125 39.890625 
Q 5.8125 47.609375 11.28125 51.796875 
Q 16.75 56 26.8125 56 
Q 31.78125 56 36.171875 55.265625 
Q 40.578125 54.546875 44.28125 53.078125 
z
" id="DejaVuSans-115"/>
      <path d="M 18.3125 70.21875 
L 18.3125 54.6875 
L 36.8125 54.6875 
L 36.8125 47.703125 
L 18.3125 47.703125 
L 18.3125 18.015625 
Q 18.3125 11.328125 20.140625 9.421875 
Q 21.96875 7.515625 27.59375 7.515625 
L 36.8125 7.515625 
L 36.8125 0 
L 27.59375 0 
Q 17.1875 0 13.234375 3.875 
Q 9.28125 7.765625 9.28125 18.015625 
L 9.28125 47.703125 
L 2.6875 47.703125 
L 2.6875 54.6875 
L 9.28125 54.6875 
L 9.28125 70.21875 
z
" id="DejaVuSans-116"/>
      <path d="M 34.28125 27.484375 
Q 23.390625 27.484375 19.1875 25 
Q 14.984375 22.515625 14.984375 16.5 
Q 14.984375 11.71875 18.140625 8.90625 
Q 21.296875 6.109375 26.703125 6.109375 
Q 34.1875 6.109375 38.703125 11.40625 
Q 43.21875 16.703125 43.21875 25.484375 
L 43.21875 27.484375 
z
M 52.203125 31.203125 
L 52.203125 0 
L 43.21875 0 
L 43.21875 8.296875 
Q 40.140625 3.328125 35.546875 0.953125 
Q 30.953125 -1.421875 24.3125 -1.421875 
Q 15.921875 -1.421875 10.953125 3.296875 
Q 6 8.015625 6 15.921875 
Q 6 25.140625 12.171875 29.828125 
Q 18.359375 34.515625 30.609375 34.515625 
L 43.21875 34.515625 
L 43.21875 35.40625 
Q 43.21875 41.609375 39.140625 45 
Q 35.0625 48.390625 27.6875 48.390625 
Q 23 48.390625 18.546875 47.265625 
Q 14.109375 46.140625 10.015625 43.890625 
L 10.015625 52.203125 
Q 14.9375 54.109375 19.578125 55.046875 
Q 24.21875 56 28.609375 56 
Q 40.484375 56 46.34375 49.84375 
Q 52.203125 43.703125 52.203125 31.203125 
z
" id="DejaVuSans-97"/>
      <path d="M 18.109375 8.203125 
L 18.109375 -20.796875 
L 9.078125 -20.796875 
L 9.078125 54.6875 
L 18.109375 54.6875 
L 18.109375 46.390625 
Q 20.953125 51.265625 25.265625 53.625 
Q 29.59375 56 35.59375 56 
Q 45.5625 56 51.78125 48.09375 
Q 58.015625 40.1875 58.015625 27.296875 
Q 58.015625 14.40625 51.78125 6.484375 
Q 45.5625 -1.421875 35.59375 -1.421875 
Q 29.59375 -1.421875 25.265625 0.953125 
Q 20.953125 3.328125 18.109375 8.203125 
z
M 48.6875 27.296875 
Q 48.6875 37.203125 44.609375 42.84375 
Q 40.53125 48.484375 33.40625 48.484375 
Q 26.265625 48.484375 22.1875 42.84375 
Q 18.109375 37.203125 18.109375 27.296875 
Q 18.109375 17.390625 22.1875 11.75 
Q 26.265625 6.109375 33.40625 6.109375 
Q 40.53125 6.109375 44.609375 11.75 
Q 48.6875 17.390625 48.6875 27.296875 
z
" id="DejaVuSans-112"/>
     </defs>
     <g transform="translate(414.739062 412.756563)scale(0.1 -0.1)">
      <use xlink:href="#DejaVuSans-84"/>
      <use x="61.037109" xlink:href="#DejaVuSans-105"/>
      <use x="88.820312" xlink:href="#DejaVuSans-109"/>
      <use x="186.232422" xlink:href="#DejaVuSans-101"/>
      <use x="247.755859" xlink:href="#DejaVuSans-115"/>
      <use x="299.855469" xlink:href="#DejaVuSans-116"/>
      <use x="339.064453" xlink:href="#DejaVuSans-97"/>
      <use x="400.34375" xlink:href="#DejaVuSans-109"/>
      <use x="497.755859" xlink:href="#DejaVuSans-112"/>
     </g>
    </g>
   </g>
   <g id="matplotlib.axis_2">
    <g id="ytick_1">
     <g id="line2d_9">
      <defs>
       <path d="M 0 0 
L -3.5 0 
" id="m3c59dcbcf8" style="stroke:#000000;stroke-width:0.8;"/>
      </defs>
      <g>
       <use style="stroke:#000000;stroke-width:0.8;" x="108" xlink:href="#m3c59dcbcf8" y="315.858412"/>
      </g>
     </g>
     <g id="text_10">
      <!-- 0 -->
      <g transform="translate(94.6375 319.657631)scale(0.1 -0.1)">
       <use xlink:href="#DejaVuSans-48"/>
      </g>
     </g>
    </g>
    <g id="ytick_2">
     <g id="line2d_10">
      <g>
       <use style="stroke:#000000;stroke-width:0.8;" x="108" xlink:href="#m3c59dcbcf8" y="243.065136"/>
      </g>
     </g>
     <g id="text_11">
      <!-- 2000 -->
      <g transform="translate(75.55 246.864354)scale(0.1 -0.1)">
       <use xlink:href="#DejaVuSans-50"/>
       <use x="63.623047" xlink:href="#DejaVuSans-48"/>
       <use x="127.246094" xlink:href="#DejaVuSans-48"/>
       <use x="190.869141" xlink:href="#DejaVuSans-48"/>
      </g>
     </g>
    </g>
    <g id="ytick_3">
     <g id="line2d_11">
      <g>
       <use style="stroke:#000000;stroke-width:0.8;" x="108" xlink:href="#m3c59dcbcf8" y="170.271859"/>
      </g>
     </g>
     <g id="text_12">
      <!-- 4000 -->
      <g transform="translate(75.55 174.071077)scale(0.1 -0.1)">
       <use xlink:href="#DejaVuSans-52"/>
       <use x="63.623047" xlink:href="#DejaVuSans-48"/>
       <use x="127.246094" xlink:href="#DejaVuSans-48"/>
       <use x="190.869141" xlink:href="#DejaVuSans-48"/>
      </g>
     </g>
    </g>
    <g id="ytick_4">
     <g id="line2d_12">
      <g>
       <use style="stroke:#000000;stroke-width:0.8;" x="108" xlink:href="#m3c59dcbcf8" y="97.478582"/>
      </g>
     </g>
     <g id="text_13">
      <!-- 6000 -->
      <g transform="translate(75.55 101.277801)scale(0.1 -0.1)">
       <use xlink:href="#DejaVuSans-54"/>
       <use x="63.623047" xlink:href="#DejaVuSans-48"/>
       <use x="127.246094" xlink:href="#DejaVuSans-48"/>
       <use x="190.869141" xlink:href="#DejaVuSans-48"/>
      </g>
     </g>
    </g>
    <g id="text_14">
     <!-- Value -->
     <defs>
      <path d="M 28.609375 0 
L 0.78125 72.90625 
L 11.078125 72.90625 
L 34.1875 11.53125 
L 57.328125 72.90625 
L 67.578125 72.90625 
L 39.796875 0 
z
" id="DejaVuSans-86"/>
      <path d="M 9.421875 75.984375 
L 18.40625 75.984375 
L 18.40625 0 
L 9.421875 0 
z
" id="DejaVuSans-108"/>
      <path d="M 8.5 21.578125 
L 8.5 54.6875 
L 17.484375 54.6875 
L 17.484375 21.921875 
Q 17.484375 14.15625 20.5 10.265625 
Q 23.53125 6.390625 29.59375 6.390625 
Q 36.859375 6.390625 41.078125 11.03125 
Q 45.3125 15.671875 45.3125 23.6875 
L 45.3125 54.6875 
L 54.296875 54.6875 
L 54.296875 0 
L 45.3125 0 
L 45.3125 8.40625 
Q 42.046875 3.421875 37.71875 1 
Q 33.40625 -1.421875 27.6875 -1.421875 
Q 18.265625 -1.421875 13.375 4.4375 
Q 8.5 10.296875 8.5 21.578125 
z
M 31.109375 56 
z
" id="DejaVuSans-117"/>
     </defs>
     <g transform="translate(69.470312 232.273281)rotate(-90)scale(0.1 -0.1)">
      <use xlink:href="#DejaVuSans-86"/>
      <use x="68.298828" xlink:href="#DejaVuSans-97"/>
      <use x="129.578125" xlink:href="#DejaVuSans-108"/>
      <use x="157.361328" xlink:href="#DejaVuSans-117"/>
      <use x="220.740234" xlink:href="#DejaVuSans-101"/>
     </g>
    </g>
   </g>
   <g id="line2d_13">
    <path clip-path="url(#pcd37e949b0)" d="M 138.436364 306.519367 
L 138.863541 315.003827 
L 139.290718 299.758001 
L 139.717895 297.068619 
L 140.145072 300.267274 
L 140.572249 311.532859 
L 141.426603 296.526499 
L 141.85378 291.569982 
L 142.280957 271.176989 
L 143.135311 289.384451 
L 143.562488 289.482378 
L 143.989665 280.870789 
L 144.416842 278.736261 
L 144.844019 277.486801 
L 145.271196 270.70205 
L 145.698373 277.291699 
L 146.12555 265.953167 
L 146.552727 276.727749 
L 146.979904 268.013467 
L 147.407081 262.479449 
L 147.834258 263.305251 
L 148.261435 257.613617 
L 148.688612 263.309019 
L 149.542967 254.278181 
L 149.970144 267.213609 
L 150.397321 271.675572 
L 150.824498 262.235802 
L 151.678852 267.685074 
L 152.106029 267.714645 
L 152.533206 270.298552 
L 152.960383 261.400403 
L 153.38756 259.622815 
L 153.814737 262.282032 
L 154.241914 274.325197 
L 154.669091 263.912361 
L 155.096268 276.942654 
L 155.523445 264.098173 
L 156.377799 284.75433 
L 157.232153 294.889146 
L 157.65933 296.745406 
L 158.086507 303.064679 
L 158.513684 285.90796 
L 158.940861 291.085824 
L 159.368038 301.689152 
L 159.795215 300.971025 
L 160.222392 308.593838 
L 160.649569 290.914872 
L 161.076746 317.537375 
L 161.503923 315.05961 
L 161.9311 315.752161 
L 162.358278 315.957164 
L 162.785455 324.604122 
L 163.212632 342.424588 
L 163.639809 338.155596 
L 164.066986 328.975292 
L 164.494163 334.290942 
L 164.92134 343.614654 
L 165.348517 340.006608 
L 165.775694 347.441624 
L 166.202871 341.912989 
L 166.630048 356.194016 
L 167.057225 345.04383 
L 168.338756 352.58477 
L 168.765933 352.204683 
L 169.19311 360.035712 
L 169.620287 357.193381 
L 170.047464 352.326148 
L 170.474641 349.819533 
L 170.901818 357.334382 
L 171.328995 359.580817 
L 171.756172 365.544385 
L 172.183349 369.36 
L 172.610526 364.463612 
L 173.037703 349.065744 
L 173.46488 352.019114 
L 173.892057 358.522796 
L 174.319234 359.097351 
L 174.746411 357.954016 
L 175.173589 346.32472 
L 175.600766 354.199833 
L 176.027943 341.396702 
L 176.45512 344.102066 
L 176.882297 337.425509 
L 177.309474 351.274248 
L 177.736651 342.643009 
L 178.163828 346.838198 
L 178.591005 333.600725 
L 179.018182 334.543171 
L 179.445359 334.835608 
L 179.872536 319.377202 
L 180.299713 325.525504 
L 180.72689 317.007003 
L 181.154067 315.608433 
L 181.581244 323.986437 
L 182.008421 319.740649 
L 182.435598 311.789577 
L 182.862775 317.272386 
L 183.289952 301.643272 
L 183.717129 312.089579 
L 184.144306 287.69507 
L 184.571483 300.135443 
L 184.99866 281.111035 
L 185.425837 293.364449 
L 185.853014 294.468681 
L 186.280191 284.24101 
L 186.707368 281.368673 
L 187.134545 291.086203 
L 187.561722 268.401618 
L 187.9889 281.717933 
L 188.416077 268.598081 
L 188.843254 265.077579 
L 189.270431 265.45736 
L 189.697608 265.239854 
L 190.124785 260.968756 
L 190.551962 268.424664 
L 190.979139 264.827314 
L 191.406316 265.602984 
L 191.833493 244.563142 
L 192.26067 244.001011 
L 193.115024 262.169679 
L 193.969378 240.99337 
L 194.396555 255.254482 
L 194.823732 245.840814 
L 195.250909 258.88911 
L 195.678086 246.986758 
L 196.105263 259.468829 
L 196.53244 262.110924 
L 196.959617 260.899556 
L 197.386794 261.233374 
L 197.813971 262.671813 
L 198.241148 251.889533 
L 198.668325 258.273013 
L 199.095502 262.757581 
L 199.522679 270.099603 
L 199.949856 271.48565 
L 200.377033 271.705952 
L 200.804211 276.441844 
L 201.231388 273.807857 
L 201.658565 269.466005 
L 202.085742 284.041433 
L 202.512919 267.228482 
L 202.940096 290.239101 
L 203.367273 284.083487 
L 203.79445 268.834844 
L 204.648804 293.74643 
L 205.075981 301.150807 
L 205.503158 293.489936 
L 206.357512 306.378492 
L 206.784689 304.238221 
L 207.211866 313.043322 
L 207.639043 292.886145 
L 208.493397 312.224028 
L 208.920574 315.411019 
L 209.347751 327.226099 
L 209.774928 319.31432 
L 210.202105 330.789416 
L 210.629282 337.954386 
L 211.056459 319.030511 
L 211.483636 341.709845 
L 211.910813 339.043308 
L 212.765167 347.357758 
L 213.192344 337.59481 
L 213.619522 354.514917 
L 214.046699 346.107784 
L 214.473876 349.865764 
L 214.901053 356.729532 
L 215.32823 347.796219 
L 215.755407 350.978455 
L 216.182584 352.525302 
L 216.609761 341.201283 
L 217.036938 344.48862 
L 217.464115 348.868291 
L 217.891292 346.703169 
L 218.318469 352.702887 
L 218.745646 348.063787 
L 219.172823 337.632732 
L 219.6 344.749646 
L 220.027177 342.204193 
L 220.454354 327.169441 
L 220.881531 345.562542 
L 221.308708 331.661554 
L 221.735885 323.716948 
L 222.163062 342.581571 
L 222.590239 332.510637 
L 223.017416 333.205132 
L 223.444593 331.534052 
L 223.87177 333.069844 
L 224.298947 329.346971 
L 224.726124 310.778413 
L 225.153301 312.907743 
L 225.580478 308.687549 
L 226.007656 300.01083 
L 226.434833 311.062232 
L 226.86201 299.353368 
L 227.289187 302.672326 
L 227.716364 302.772703 
L 228.143541 289.191093 
L 228.570718 292.552822 
L 228.997895 297.487044 
L 229.425072 288.313133 
L 229.852249 272.54008 
L 230.279426 271.852704 
L 230.706603 288.090877 
L 231.13378 273.790066 
L 231.560957 265.413083 
L 231.988134 280.706665 
L 232.415311 255.817099 
L 232.842488 267.482512 
L 233.269665 258.985703 
L 233.696842 260.06494 
L 234.124019 244.861188 
L 234.551196 265.064833 
L 234.978373 253.345639 
L 235.40555 258.315894 
L 236.259904 230.932667 
L 236.687081 256.957945 
L 237.114258 245.134246 
L 237.541435 244.736165 
L 237.968612 231.531612 
L 238.395789 249.320599 
L 239.250144 228.919268 
L 239.677321 243.111228 
L 240.104498 246.419943 
L 240.958852 238.234035 
L 241.386029 249.907521 
L 241.813206 231.446549 
L 242.240383 244.157861 
L 242.66756 266.558994 
L 243.094737 254.680286 
L 243.521914 236.691727 
L 243.949091 256.746488 
L 244.376268 252.078028 
L 244.803445 252.900309 
L 245.230622 266.904974 
L 245.657799 253.770639 
L 246.084976 256.535796 
L 246.512153 248.27958 
L 247.366507 266.423408 
L 247.793684 270.271915 
L 248.220861 267.954053 
L 248.648038 281.663148 
L 249.075215 277.236002 
L 249.502392 278.30454 
L 249.929569 279.770386 
L 250.356746 295.027468 
L 250.783923 278.973408 
L 251.2111 287.477228 
L 251.638278 277.203285 
L 252.065455 312.280373 
L 252.492632 305.644405 
L 252.919809 316.704955 
L 253.346986 310.020797 
L 253.774163 307.386611 
L 254.20134 299.840434 
L 254.628517 318.096153 
L 255.055694 326.084156 
L 255.910048 317.38177 
L 256.337225 322.723934 
L 256.764402 316.411401 
L 257.618756 341.705434 
L 258.045933 324.262339 
L 258.47311 340.787617 
L 258.900287 329.391748 
L 259.754641 333.225328 
L 260.181818 324.070624 
L 260.608995 338.76831 
L 261.036172 347.274227 
L 261.463349 337.41519 
L 261.890526 339.614993 
L 262.74488 325.49095 
L 263.172057 350.173029 
L 263.599234 337.823445 
L 264.026411 334.881601 
L 264.453589 330.33801 
L 264.880766 338.249247 
L 265.307943 328.918934 
L 265.73512 327.447959 
L 266.162297 328.633279 
L 266.589474 327.605745 
L 267.016651 313.972143 
L 267.443828 317.64033 
L 267.871005 305.994485 
L 268.298182 319.888031 
L 268.725359 324.521508 
L 269.152536 315.701313 
L 269.579713 309.385471 
L 270.00689 309.044608 
L 270.434067 307.436813 
L 270.861244 313.016471 
L 271.288421 304.305397 
L 271.715598 303.438422 
L 272.142775 290.070751 
L 272.569952 286.683783 
L 272.997129 274.805659 
L 273.424306 285.336996 
L 273.851483 272.850091 
L 274.27866 280.171897 
L 274.705837 284.652285 
L 275.133014 267.331972 
L 275.560191 271.300532 
L 275.987368 270.652048 
L 276.414545 267.197226 
L 276.841722 250.884641 
L 277.2689 244.632857 
L 277.696077 246.145129 
L 278.550431 258.179935 
L 278.977608 244.692782 
L 279.404785 236.028674 
L 279.831962 236.039355 
L 280.259139 238.000736 
L 280.686316 236.963308 
L 281.113493 243.204934 
L 281.54067 232.392937 
L 281.967847 234.004669 
L 282.395024 232.859541 
L 282.822201 233.952433 
L 283.249378 240.24176 
L 283.676555 235.580623 
L 284.103732 225.294844 
L 284.530909 230.450801 
L 284.958086 230.646616 
L 285.385263 232.316329 
L 285.81244 221.086737 
L 286.239617 231.756186 
L 286.666794 230.802935 
L 287.093971 232.442126 
L 287.521148 241.657977 
L 287.948325 236.340372 
L 288.375502 227.842899 
L 288.802679 235.464989 
L 289.229856 251.147366 
L 289.657033 241.810063 
L 290.084211 240.266959 
L 290.511388 247.026936 
L 290.938565 242.98892 
L 291.792919 261.206589 
L 292.220096 250.725732 
L 292.647273 256.772211 
L 293.07445 257.423423 
L 293.501627 256.556704 
L 293.928804 265.555074 
L 294.355981 281.79326 
L 294.783158 271.891938 
L 295.210335 287.685343 
L 295.637512 282.532817 
L 296.064689 274.614038 
L 296.491866 297.112503 
L 296.919043 286.660619 
L 297.34622 294.774201 
L 297.773397 295.36629 
L 298.200574 288.810707 
L 298.627751 295.343571 
L 299.054928 291.865005 
L 299.482105 312.197505 
L 299.909282 312.74912 
L 300.336459 314.291721 
L 300.763636 311.987376 
L 301.190813 320.520135 
L 301.61799 321.215163 
L 302.045167 324.238976 
L 302.472344 314.439723 
L 302.899522 316.449648 
L 303.326699 315.210203 
L 303.753876 303.734303 
L 304.181053 325.65123 
L 304.60823 320.279607 
L 305.035407 302.181029 
L 305.462584 322.586852 
L 305.889761 327.625864 
L 306.316938 334.488148 
L 306.744115 331.444682 
L 307.171292 339.690293 
L 307.598469 338.547947 
L 308.025646 329.535311 
L 308.452823 323.584708 
L 308.88 324.795064 
L 309.307177 326.93925 
L 309.734354 336.218353 
L 310.161531 316.742413 
L 310.588708 316.694138 
L 311.015885 306.563078 
L 311.443062 330.149565 
L 311.870239 316.702014 
L 312.297416 299.692164 
L 312.724593 309.405738 
L 313.15177 297.765563 
L 313.578947 301.209245 
L 314.006124 301.820485 
L 314.433301 293.439895 
L 314.860478 310.52078 
L 315.287656 296.970204 
L 316.14201 278.74342 
L 316.996364 281.005575 
L 317.423541 270.963011 
L 318.277895 281.115953 
L 318.705072 270.074095 
L 319.132249 267.961234 
L 319.559426 260.954878 
L 319.986603 263.381594 
L 320.840957 239.52995 
L 321.268134 264.855676 
L 321.695311 244.6171 
L 322.122488 251.441722 
L 322.549665 248.116753 
L 322.976842 254.265068 
L 323.404019 240.452579 
L 323.831196 233.806625 
L 324.258373 244.523856 
L 324.68555 217.865779 
L 325.112727 235.713591 
L 325.539904 245.086868 
L 326.394258 208.201273 
L 326.821435 212.470534 
L 327.248612 213.71538 
L 327.675789 216.374569 
L 328.102967 218.032656 
L 329.384498 236.536121 
L 329.811675 228.881035 
L 330.238852 233.466372 
L 330.666029 227.998048 
L 331.093206 215.966722 
L 331.520383 228.470391 
L 331.94756 234.129065 
L 332.374737 231.033123 
L 332.801914 237.702587 
L 333.229091 220.627291 
L 333.656268 239.024534 
L 334.083445 230.783332 
L 334.937799 224.716551 
L 335.364976 221.743682 
L 335.792153 250.690894 
L 336.21933 233.378253 
L 336.646507 246.647116 
L 337.073684 246.426504 
L 337.500861 237.13291 
L 337.928038 254.857275 
L 338.355215 248.206461 
L 338.782392 256.678685 
L 339.209569 262.443859 
L 339.636746 251.438761 
L 340.063923 266.327162 
L 340.4911 269.178748 
L 340.918278 265.473243 
L 341.345455 266.808863 
L 341.772632 283.177501 
L 342.199809 270.921573 
L 342.626986 286.813534 
L 343.054163 291.446618 
L 343.48134 304.769793 
L 343.908517 291.434657 
L 344.335694 290.64018 
L 344.762871 300.63342 
L 345.190048 288.77004 
L 346.044402 301.592591 
L 346.471579 291.148757 
L 346.898756 317.282297 
L 347.325933 305.979142 
L 347.75311 303.513386 
L 348.180287 318.46102 
L 348.607464 314.379318 
L 349.034641 314.066536 
L 349.461818 317.903412 
L 349.888995 314.956389 
L 350.316172 317.241319 
L 350.743349 322.657092 
L 351.170526 311.291036 
L 351.597703 321.185433 
L 352.02488 321.47415 
L 352.879234 303.792971 
L 353.306411 328.460875 
L 353.733589 313.330649 
L 354.160766 310.899783 
L 354.587943 312.447804 
L 355.01512 292.617522 
L 355.442297 300.672711 
L 355.869474 312.142262 
L 356.296651 311.013917 
L 356.723828 297.814663 
L 357.151005 295.05051 
L 357.578182 294.941182 
L 358.005359 302.284835 
L 358.432536 291.456156 
L 358.859713 293.390216 
L 359.28689 276.621486 
L 359.714067 293.643713 
L 360.141244 284.302259 
L 360.568421 289.118585 
L 360.995598 285.820897 
L 361.422775 275.56781 
L 362.277129 273.057038 
L 362.704306 254.938113 
L 363.131483 262.493311 
L 363.55866 250.344993 
L 363.985837 264.041099 
L 364.413014 255.55259 
L 364.840191 260.952614 
L 365.267368 237.110582 
L 365.694545 251.855309 
L 366.121722 230.979485 
L 366.5489 246.179226 
L 366.976077 236.866769 
L 367.403254 254.550518 
L 367.830431 232.766997 
L 368.257608 228.409004 
L 368.684785 240.232288 
L 369.111962 226.102196 
L 369.539139 224.471828 
L 369.966316 233.475572 
L 370.393493 211.674465 
L 370.82067 225.506727 
L 371.675024 209.762492 
L 372.102201 216.614719 
L 372.529378 206.378406 
L 372.956555 210.109718 
L 373.383732 199.573189 
L 373.810909 214.896837 
L 374.238086 218.308997 
L 374.665263 207.144148 
L 375.09244 211.326729 
L 375.519617 212.374674 
L 375.946794 207.073643 
L 376.373971 207.829051 
L 376.801148 212.083141 
L 377.228325 208.591799 
L 377.655502 208.898471 
L 378.082679 209.664108 
L 378.509856 210.199158 
L 378.937033 209.452351 
L 379.364211 221.715987 
L 379.791388 225.874555 
L 380.218565 233.702036 
L 380.645742 228.654716 
L 381.072919 236.004725 
L 381.500096 228.630414 
L 382.35445 240.830963 
L 382.781627 246.581578 
L 383.208804 241.737794 
L 384.063158 257.056686 
L 384.490335 261.05646 
L 384.917512 245.605728 
L 385.344689 261.555167 
L 385.771866 265.120218 
L 386.199043 264.617207 
L 386.62622 269.6132 
L 387.480574 273.445588 
L 387.907751 278.380294 
L 388.334928 284.723318 
L 388.762105 274.174684 
L 389.189282 282.803648 
L 389.616459 295.086166 
L 390.043636 281.044963 
L 390.470813 301.982579 
L 390.89799 294.387344 
L 391.325167 295.628932 
L 391.752344 302.332789 
L 392.179522 295.16742 
L 392.606699 309.944131 
L 393.033876 289.323981 
L 393.461053 299.101436 
L 393.88823 290.541821 
L 394.315407 299.286112 
L 394.742584 317.19679 
L 395.169761 300.787428 
L 395.596938 302.74123 
L 396.024115 298.836197 
L 396.451292 298.619255 
L 396.878469 303.08824 
L 397.305646 301.596446 
L 397.732823 310.058037 
L 398.16 293.636317 
L 398.587177 317.366556 
L 399.014354 317.279507 
L 399.441531 311.857865 
L 399.868708 294.470216 
L 400.295885 307.780981 
L 401.150239 295.699322 
L 401.577416 297.931666 
L 402.004593 307.587555 
L 402.43177 281.603163 
L 402.858947 288.387444 
L 403.286124 281.505168 
L 404.140478 284.057785 
L 404.567656 148.602848 
L 405.42201 148.602848 
L 405.849187 277.179109 
L 406.276364 256.163443 
L 406.703541 269.238251 
L 407.130718 259.392962 
L 407.557895 266.824839 
L 407.985072 248.203947 
L 408.412249 245.747904 
L 408.839426 248.939945 
L 409.266603 232.481178 
L 409.69378 244.506009 
L 410.120957 239.865632 
L 410.548134 226.686137 
L 410.975311 228.46448 
L 411.402488 222.73632 
L 411.829665 215.473547 
L 412.256842 221.739082 
L 412.684019 216.196618 
L 413.111196 223.172411 
L 413.538373 212.737371 
L 413.96555 216.176839 
L 414.392727 202.493469 
L 414.819904 210.23164 
L 415.247081 207.865719 
L 415.674258 206.468538 
L 416.101435 219.842454 
L 416.528612 210.901274 
L 416.955789 188.119642 
L 417.382967 196.338891 
L 417.810144 200.413885 
L 418.237321 201.238304 
L 418.664498 200.820036 
L 419.091675 196.158206 
L 419.518852 66.96 
L 420.373206 66.96 
L 420.800383 209.314159 
L 421.654737 197.850676 
L 422.081914 213.141467 
L 422.509091 196.249475 
L 422.936268 196.400944 
L 423.363445 206.571181 
L 423.790622 206.15694 
L 424.217799 200.076784 
L 424.644976 216.076671 
L 425.49933 224.451483 
L 425.926507 225.444028 
L 426.353684 225.910054 
L 426.780861 220.479991 
L 427.208038 232.688845 
L 427.635215 230.459825 
L 428.062392 230.059714 
L 428.489569 243.415065 
L 428.916746 226.454145 
L 429.343923 230.156358 
L 429.7711 255.846158 
L 430.198278 249.118625 
L 430.625455 251.251113 
L 431.052632 250.224087 
L 431.479809 262.968512 
L 431.906986 260.040799 
L 432.334163 254.425303 
L 432.76134 255.722976 
L 433.188517 264.059843 
L 433.615694 265.969266 
L 434.042871 275.78816 
L 434.470048 276.828744 
L 434.897225 267.52466 
L 435.751579 285.567852 
L 436.178756 270.715809 
L 436.605933 288.918234 
L 437.03311 278.20374 
L 437.460287 283.904618 
L 437.887464 286.917916 
L 438.314641 293.346085 
L 438.741818 285.806873 
L 439.168995 305.35545 
L 440.450526 294.325356 
L 440.877703 295.073615 
L 441.30488 298.095867 
L 441.732057 298.129099 
L 442.159234 292.359099 
L 442.586411 300.269035 
L 443.013589 310.89347 
L 443.440766 294.10984 
L 443.867943 286.91712 
L 444.29512 284.977541 
L 444.722297 293.030961 
L 445.149474 289.925234 
L 445.576651 276.839154 
L 446.003828 290.872599 
L 446.858182 278.699094 
L 447.285359 284.802069 
L 447.712536 281.179934 
L 448.139713 271.217758 
L 448.56689 278.128141 
L 448.994067 266.864174 
L 449.421244 276.230642 
L 449.848421 279.412482 
L 450.275598 257.218715 
L 450.702775 259.762037 
L 451.129952 258.953239 
L 451.557129 256.523156 
L 451.984306 242.346238 
L 452.411483 254.420744 
L 452.83866 236.318709 
L 453.265837 247.798962 
L 453.693014 238.071168 
L 454.120191 235.516875 
L 454.547368 226.661563 
L 454.974545 240.807231 
L 455.401722 226.689803 
L 455.8289 222.891334 
L 456.683254 208.016652 
L 457.110431 220.718055 
L 457.537608 208.546453 
L 457.964785 205.175354 
L 458.391962 197.42223 
L 458.819139 204.485895 
L 459.246316 193.334769 
L 459.673493 199.118982 
L 460.10067 200.08702 
L 460.527847 192.508257 
L 460.955024 192.669541 
L 461.382201 190.5782 
L 461.809378 184.857628 
L 462.236555 193.289346 
L 463.090909 191.192455 
L 463.518086 181.377473 
L 463.945263 174.657585 
L 464.37244 181.753147 
L 464.799617 181.277405 
L 465.226794 176.179877 
L 465.653971 193.728776 
L 466.081148 200.907209 
L 466.508325 199.053947 
L 466.935502 190.021819 
L 467.362679 192.832946 
L 467.789856 214.157715 
L 468.217033 187.061851 
L 468.644211 198.938928 
L 469.071388 199.491778 
L 469.498565 197.989951 
L 469.925742 212.564871 
L 470.352919 210.303099 
L 470.780096 199.835677 
L 471.207273 195.343438 
L 471.63445 207.223372 
L 472.061627 209.421882 
L 472.488804 229.971958 
L 472.915981 212.498816 
L 473.343158 214.769582 
L 473.770335 228.420714 
L 474.197512 227.331086 
L 474.624689 224.862707 
L 475.051866 218.805657 
L 475.479043 245.615666 
L 475.90622 232.907211 
L 476.333397 233.293559 
L 477.614928 253.087482 
L 478.042105 253.545466 
L 478.469282 251.106967 
L 478.896459 267.982407 
L 479.323636 271.58795 
L 479.750813 270.306229 
L 480.17799 277.871879 
L 480.605167 281.907103 
L 481.032344 261.724788 
L 481.459522 280.535002 
L 481.886699 279.35394 
L 482.313876 285.678247 
L 482.741053 275.190038 
L 483.16823 276.488122 
L 483.595407 272.906782 
L 484.022584 286.063453 
L 484.449761 274.518153 
L 485.304115 294.411276 
L 485.731292 276.866475 
L 486.158469 274.424118 
L 486.585646 279.65277 
L 487.012823 288.513832 
L 487.44 294.863207 
L 487.867177 284.232734 
L 488.294354 293.653282 
L 488.721531 296.203745 
L 489.148708 276.732812 
L 489.575885 282.8503 
L 490.003062 282.193449 
L 490.430239 282.431801 
L 490.857416 266.393918 
L 491.284593 285.755353 
L 492.138947 265.872791 
L 492.566124 265.617987 
L 492.993301 269.848872 
L 493.420478 263.288026 
L 493.847656 261.625638 
L 494.274833 245.187694 
L 494.70201 253.947213 
L 495.129187 256.606086 
L 495.556364 240.184082 
L 495.983541 255.163835 
L 496.410718 238.861907 
L 496.837895 230.698858 
L 497.265072 245.109748 
L 497.692249 231.072203 
L 498.119426 223.344791 
L 498.546603 218.988913 
L 499.400957 206.917357 
L 499.828134 216.429132 
L 500.255311 221.084157 
L 500.682488 217.474988 
L 501.109665 203.973371 
L 501.536842 217.765125 
L 501.964019 199.886597 
L 502.391196 209.381184 
L 502.818373 205.193421 
L 503.24555 193.531838 
L 503.672727 198.078491 
L 504.099904 197.688719 
L 504.527081 194.485522 
L 504.954258 177.414706 
L 505.381435 196.109305 
L 505.808612 183.735499 
L 506.235789 186.565656 
L 506.662967 160.268905 
L 507.090144 182.047559 
L 507.517321 166.713675 
L 507.944498 173.013492 
L 508.371675 190.279636 
L 508.798852 174.717351 
L 509.226029 173.244819 
L 509.653206 178.18383 
L 510.080383 192.861427 
L 510.50756 162.549374 
L 510.934737 180.920723 
L 511.361914 190.545961 
L 511.789091 172.082645 
L 512.216268 184.112699 
L 512.643445 181.763659 
L 513.497799 199.647091 
L 513.924976 189.490055 
L 514.352153 184.632001 
L 514.77933 192.247404 
L 515.206507 194.045966 
L 515.633684 194.867449 
L 516.060861 195.93287 
L 516.488038 203.221786 
L 516.915215 206.079762 
L 517.342392 211.865922 
L 517.769569 219.320638 
L 518.196746 222.534927 
L 518.623923 220.571191 
L 519.0511 223.12518 
L 519.478278 223.461501 
L 519.905455 104.966347 
L 520.759809 104.966347 
L 521.186986 229.628543 
L 521.614163 233.350454 
L 522.04134 238.320403 
L 522.468517 247.692383 
L 522.895694 248.094143 
L 523.322871 249.200418 
L 523.750048 248.492286 
L 524.177225 251.955867 
L 524.604402 240.960798 
L 525.031579 259.037156 
L 525.458756 264.289253 
L 525.885933 272.944671 
L 526.31311 270.293953 
L 526.740287 245.861573 
L 527.167464 264.373964 
L 527.594641 261.536504 
L 528.021818 268.102617 
L 528.448995 269.599914 
L 528.876172 273.229501 
L 529.303349 268.887024 
L 529.730526 263.169627 
L 530.157703 267.739632 
L 530.58488 276.377697 
L 531.012057 274.216176 
L 531.439234 285.653678 
L 531.866411 266.599063 
L 532.293589 261.35413 
L 532.720766 285.192188 
L 533.147943 273.60491 
L 533.57512 279.069041 
L 534.002297 280.372618 
L 534.429474 262.604254 
L 534.856651 260.530571 
L 535.283828 252.695363 
L 535.711005 262.208592 
L 536.138182 277.371677 
L 536.565359 258.481261 
L 536.992536 265.019376 
L 537.84689 253.549821 
L 538.274067 252.314565 
L 538.701244 244.42071 
L 539.128421 252.327031 
L 539.555598 249.700654 
L 540.409952 232.516313 
L 540.837129 238.807676 
L 541.264306 237.782886 
L 541.691483 237.19023 
L 542.11866 232.17574 
L 542.545837 225.621697 
L 542.973014 228.933189 
L 543.400191 212.208497 
L 543.827368 229.185646 
L 544.254545 212.169009 
L 544.681722 218.548041 
L 545.1089 196.063575 
L 545.536077 205.740126 
L 545.963254 190.851537 
L 546.390431 199.361788 
L 546.817608 195.119105 
L 547.244785 198.396769 
L 547.671962 210.951961 
L 548.099139 173.945716 
L 548.526316 194.02083 
L 548.953493 162.76921 
L 549.38067 177.128665 
L 549.807847 181.76767 
L 550.235024 170.787649 
L 550.662201 167.884108 
L 551.089378 174.581534 
L 551.516555 170.672635 
L 551.943732 157.108696 
L 552.370909 179.974646 
L 552.798086 169.327586 
L 553.225263 162.612939 
L 553.65244 178.402124 
L 554.079617 180.968361 
L 554.506794 157.963341 
L 554.933971 173.521603 
L 555.361148 176.000695 
L 555.788325 169.214217 
L 556.215502 173.720187 
L 556.642679 174.641943 
L 557.069856 181.999622 
L 557.497033 179.479337 
L 557.924211 168.021854 
L 558.351388 172.110838 
L 558.778565 182.122859 
L 559.205742 161.621137 
L 559.632919 170.430764 
L 560.060096 188.772616 
L 560.487273 186.304927 
L 560.91445 211.602723 
L 561.341627 183.365666 
L 561.768804 188.811894 
L 562.195981 199.1675 
L 562.623158 199.644568 
L 563.050335 200.359249 
L 563.477512 196.368606 
L 563.904689 213.775371 
L 564.331866 201.78105 
L 564.759043 206.982022 
L 565.18622 220.594506 
L 565.613397 220.491636 
L 566.040574 207.859441 
L 566.467751 225.391812 
L 566.894928 237.299252 
L 567.322105 240.755254 
L 567.749282 233.282817 
L 568.176459 233.758699 
L 568.603636 236.340381 
L 569.030813 242.689215 
L 569.45799 257.697971 
L 570.312344 241.143607 
L 570.739522 267.059414 
L 571.166699 247.636186 
L 571.593876 264.812055 
L 572.021053 257.40473 
L 572.44823 267.689678 
L 572.875407 252.886674 
L 573.302584 264.535341 
L 573.729761 258.257501 
L 574.156938 268.175583 
L 575.011292 274.80139 
L 575.438469 272.667223 
L 575.865646 267.079811 
L 576.292823 254.440355 
L 576.72 260.318939 
L 577.147177 268.886246 
L 577.574354 262.008539 
L 578.001531 270.452131 
L 578.428708 266.821936 
L 578.855885 260.181288 
L 579.283062 240.541643 
L 579.710239 257.172602 
L 580.137416 256.627631 
L 580.564593 272.556229 
L 580.99177 245.306178 
L 581.418947 242.825467 
L 581.846124 261.74199 
L 582.273301 247.660963 
L 582.700478 251.415254 
L 583.127656 241.950889 
L 583.554833 243.9062 
L 583.98201 230.059512 
L 584.409187 233.195215 
L 584.836364 231.308398 
L 585.263541 226.171148 
L 585.690718 239.316675 
L 586.117895 231.571181 
L 586.545072 209.898621 
L 586.972249 215.38907 
L 587.399426 210.671778 
L 587.826603 220.790869 
L 588.25378 191.475825 
L 588.680957 208.186291 
L 589.108134 197.572249 
L 589.535311 199.976503 
L 589.962488 188.282099 
L 590.389665 198.729409 
L 590.816842 181.961901 
L 591.244019 178.990289 
L 591.671196 189.367634 
L 592.098373 193.061 
L 592.52555 175.449911 
L 592.952727 193.125322 
L 593.379904 168.289105 
L 594.234258 163.627394 
L 594.661435 169.991311 
L 595.088612 152.388012 
L 595.515789 165.211757 
L 595.942967 169.793581 
L 596.370144 164.256022 
L 596.797321 169.546709 
L 597.224498 168.719786 
L 597.651675 157.115521 
L 598.078852 157.691056 
L 598.506029 161.574459 
L 598.933206 159.015384 
L 599.360383 158.515996 
L 599.78756 159.766254 
L 600.214737 144.908658 
L 600.641914 162.696481 
L 601.069091 153.996893 
L 601.923445 168.690704 
L 602.350622 168.990064 
L 602.777799 162.327881 
L 603.204976 169.172341 
L 603.632153 165.496495 
L 604.05933 165.970942 
L 604.486507 165.031207 
L 604.913684 179.986661 
L 605.340861 164.716702 
L 605.768038 191.017805 
L 606.195215 193.503483 
L 606.622392 173.640219 
L 607.049569 175.475775 
L 607.476746 195.709816 
L 607.903923 186.362541 
L 608.3311 202.551501 
L 608.758278 184.016026 
L 609.185455 198.110755 
L 610.039809 206.940787 
L 610.466986 216.49377 
L 610.894163 204.137882 
L 611.32134 213.243876 
L 611.748517 212.522985 
L 612.175694 224.931543 
L 612.602871 224.93161 
L 613.030048 222.798502 
L 613.457225 240.039904 
L 613.884402 236.774899 
L 614.311579 236.914341 
L 614.738756 230.607696 
L 615.165933 244.002573 
L 615.59311 247.224273 
L 616.020287 238.270461 
L 616.447464 248.818784 
L 616.874641 237.642383 
L 617.301818 259.084126 
L 617.728995 250.961083 
L 618.156172 255.407173 
L 618.583349 254.506389 
L 619.010526 246.445329 
L 619.437703 247.377014 
L 620.292057 267.394334 
L 620.719234 259.605257 
L 621.146411 244.335126 
L 621.573589 254.186663 
L 622.000766 260.252904 
L 623.282297 238.48714 
L 624.136651 257.171609 
L 624.563828 231.972453 
L 624.991005 246.526256 
L 625.418182 235.154472 
L 625.845359 234.2518 
L 626.272536 256.760561 
L 626.699713 227.781785 
L 627.12689 238.389051 
L 627.554067 241.386453 
L 627.981244 232.261491 
L 628.835598 227.397747 
L 629.262775 225.911957 
L 629.689952 210.995875 
L 630.117129 211.525895 
L 630.544306 213.630403 
L 630.971483 217.320138 
L 631.39866 200.883205 
L 631.825837 201.830541 
L 632.253014 206.804286 
L 632.680191 204.194999 
L 633.961722 188.372402 
L 634.3889 181.638032 
L 634.816077 183.468218 
L 635.243254 194.41779 
L 635.670431 176.57869 
L 636.097608 168.251419 
L 636.524785 183.161687 
L 636.951962 184.748482 
L 637.379139 162.562057 
L 637.806316 168.725528 
L 638.233493 159.807169 
L 638.66067 163.099692 
L 639.087847 146.546529 
L 639.942201 150.767372 
L 640.796555 145.448728 
L 641.223732 142.845226 
L 641.650909 156.788307 
L 642.078086 137.391089 
L 642.505263 158.617961 
L 642.93244 163.364509 
L 643.359617 148.567846 
L 643.786794 142.325776 
L 644.213971 143.950859 
L 644.641148 142.697989 
L 645.068325 146.503737 
L 645.495502 152.144562 
L 645.922679 147.333101 
L 646.349856 135.994934 
L 646.777033 152.22651 
L 647.204211 147.746784 
L 647.631388 149.096605 
L 648.058565 145.230398 
L 648.485742 163.825211 
L 649.340096 157.427007 
L 649.767273 164.674733 
L 650.19445 162.443842 
L 650.621627 167.926355 
L 651.475981 182.850597 
L 651.903158 167.571392 
L 652.330335 175.465227 
L 652.757512 173.435293 
L 653.184689 198.676419 
L 653.611866 176.871811 
L 654.46622 193.792311 
L 654.893397 189.468006 
L 655.320574 194.300281 
L 655.747751 194.66583 
L 656.174928 198.336045 
L 656.602105 203.896865 
L 657.029282 206.925103 
L 657.456459 215.222238 
L 657.883636 210.206984 
L 658.310813 220.144667 
L 658.73799 209.248387 
L 659.165167 220.596 
L 659.592344 213.238261 
L 660.019522 228.691236 
L 660.446699 229.827118 
L 660.873876 224.260419 
L 661.301053 224.089323 
L 661.72823 242.504548 
L 662.155407 229.73878 
L 662.582584 229.371899 
L 663.009761 241.999628 
L 663.436938 234.826294 
L 663.864115 245.783881 
L 664.291292 245.771815 
L 664.718469 243.883099 
L 665.145646 248.211587 
L 665.572823 232.654574 
L 666 243.929514 
L 666.427177 246.695349 
L 666.854354 255.369763 
L 667.281531 242.517014 
L 667.708708 248.125471 
L 668.135885 244.729645 
L 668.563062 243.383878 
L 668.990239 251.968607 
L 669.417416 235.057448 
L 669.844593 235.490837 
L 670.27177 232.444016 
L 670.698947 239.939225 
L 671.126124 245.440533 
L 671.553301 215.522245 
L 671.980478 217.256009 
L 672.407656 228.626096 
L 672.834833 233.409302 
L 673.26201 221.671349 
L 673.689187 217.99512 
L 674.116364 230.126309 
L 674.543541 214.195719 
L 674.970718 208.623404 
L 675.397895 193.882681 
L 675.825072 211.324042 
L 676.252249 182.505613 
L 677.106603 194.365952 
L 677.53378 193.501465 
L 678.388134 175.180132 
L 678.815311 170.854389 
L 679.242488 176.951606 
L 679.669665 180.972647 
L 680.096842 164.18251 
L 680.524019 161.658398 
L 680.951196 170.793192 
L 681.378373 171.40984 
L 681.80555 161.935602 
L 682.232727 155.826289 
L 682.659904 157.601103 
L 683.087081 161.19782 
L 683.514258 157.527641 
L 683.941435 143.218125 
L 684.368612 142.247178 
L 684.795789 142.980301 
L 685.222967 148.588725 
L 685.650144 143.435578 
L 686.077321 149.175091 
L 686.504498 133.199304 
L 686.931675 151.867332 
L 687.358852 139.734525 
L 687.786029 139.058767 
L 688.213206 141.503429 
L 688.640383 118.508286 
L 689.06756 120.230107 
L 689.494737 140.279873 
L 689.921914 133.509614 
L 690.349091 134.792564 
L 690.776268 134.545631 
L 691.203445 135.022262 
L 691.630622 144.489758 
L 692.057799 156.557192 
L 692.484976 145.283739 
L 692.912153 138.555188 
L 693.33933 149.321325 
L 693.766507 144.450564 
L 694.193684 154.465907 
L 694.620861 149.153668 
L 695.048038 149.417401 
L 695.475215 154.667394 
L 695.902392 165.178633 
L 696.329569 151.514714 
L 697.183923 174.682926 
L 697.6111 173.050447 
L 698.038278 170.136924 
L 698.892632 189.982741 
L 699.319809 186.99907 
L 699.746986 183.216102 
L 700.174163 184.841736 
L 700.60134 177.52704 
L 701.028517 196.24778 
L 701.455694 200.719535 
L 701.882871 202.153976 
L 702.310048 192.737731 
L 702.737225 209.041345 
L 703.164402 206.356376 
L 703.591579 192.769837 
L 704.018756 219.923947 
L 704.445933 219.082206 
L 704.87311 218.678331 
L 705.300287 229.350939 
L 705.727464 218.242022 
L 706.154641 236.881959 
L 706.581818 226.400567 
L 707.008995 231.627277 
L 707.436172 232.019254 
L 707.863349 219.913077 
L 708.290526 224.299781 
L 708.717703 217.548045 
L 709.999234 237.26621 
L 710.426411 231.35905 
L 710.853589 231.096026 
L 711.280766 235.304149 
L 711.707943 243.892569 
L 712.13512 227.321603 
L 712.562297 238.120871 
L 712.989474 240.643113 
L 713.416651 230.222296 
L 713.843828 232.463993 
L 714.271005 221.230133 
L 714.698182 229.865871 
L 715.125359 217.037817 
L 715.552536 221.375884 
L 715.979713 220.157478 
L 716.40689 221.265135 
L 716.834067 208.729378 
L 717.261244 218.51296 
L 717.688421 217.614861 
L 718.115598 208.718912 
L 718.542775 206.153752 
L 718.969952 190.280993 
L 719.397129 202.511719 
L 719.824306 193.328135 
L 720.251483 196.573958 
L 720.67866 182.011883 
L 721.105837 186.03098 
L 721.533014 182.331919 
L 721.960191 181.865468 
L 722.387368 187.509903 
L 722.814545 182.132886 
L 723.241722 170.459731 
L 723.6689 178.987719 
L 724.096077 159.33191 
L 724.523254 174.730286 
L 725.377608 167.70086 
L 726.231962 145.65706 
L 726.659139 162.386846 
L 727.086316 151.318078 
L 727.513493 145.313534 
L 727.94067 155.067353 
L 728.367847 143.099198 
L 728.795024 140.529344 
L 729.222201 129.496025 
L 729.649378 130.371331 
L 730.076555 143.144118 
L 730.503732 140.371367 
L 730.930909 136.138979 
L 731.358086 144.926207 
L 731.785263 136.987992 
L 732.21244 121.695756 
L 732.639617 129.88139 
L 733.066794 120.884823 
L 733.493971 120.25036 
L 733.921148 131.494881 
L 734.348325 129.360512 
L 734.775502 112.281247 
L 735.202679 129.170001 
L 735.629856 125.603217 
L 736.057033 119.588381 
L 736.484211 129.801554 
L 736.911388 128.921676 
L 737.338565 140.345536 
L 737.765742 118.031382 
L 738.192919 139.922823 
L 738.620096 144.629475 
L 739.047273 142.044413 
L 739.47445 127.04565 
L 739.901627 155.005576 
L 740.328804 145.805506 
L 740.755981 155.663305 
L 741.183158 156.640787 
L 741.610335 151.465175 
L 742.037512 150.822646 
L 742.464689 144.806777 
L 742.891866 162.695611 
L 743.319043 159.445653 
L 743.74622 185.764217 
L 744.173397 167.378364 
L 744.600574 159.300113 
L 745.027751 170.589381 
L 745.027751 170.589381 
" style="fill:none;stroke:#1f77b4;stroke-linecap:square;stroke-width:1.5;"/>
   </g>
   <g id="line2d_14">
    <path clip-path="url(#pcd37e949b0)" d="M 747.163636 384.48 
L 747.163636 51.84 
" style="fill:none;stroke:#808080;stroke-linecap:square;"/>
   </g>
   <g id="patch_44">
    <path d="M 108 384.48 
L 108 51.84 
" style="fill:none;stroke:#000000;stroke-linecap:square;stroke-linejoin:miter;stroke-width:0.8;"/>
   </g>
   <g id="patch_45">
    <path d="M 777.6 384.48 
L 777.6 51.84 
" style="fill:none;stroke:#000000;stroke-linecap:square;stroke-linejoin:miter;stroke-width:0.8;"/>
   </g>
   <g id="patch_46">
    <path d="M 108 384.48 
L 777.6 384.48 
" style="fill:none;stroke:#000000;stroke-linecap:square;stroke-linejoin:miter;stroke-width:0.8;"/>
   </g>
   <g id="patch_47">
    <path d="M 108 51.84 
L 777.6 51.84 
" style="fill:none;stroke:#000000;stroke-linecap:square;stroke-linejoin:miter;stroke-width:0.8;"/>
   </g>
   <g id="text_15">
    <!-- synthetic_20.csv -->
    <defs>
     <path d="M 32.171875 -5.078125 
Q 28.375 -14.84375 24.75 -17.8125 
Q 21.140625 -20.796875 15.09375 -20.796875 
L 7.90625 -20.796875 
L 7.90625 -13.28125 
L 13.1875 -13.28125 
Q 16.890625 -13.28125 18.9375 -11.515625 
Q 21 -9.765625 23.484375 -3.21875 
L 25.09375 0.875 
L 2.984375 54.6875 
L 12.5 54.6875 
L 29.59375 11.921875 
L 46.6875 54.6875 
L 56.203125 54.6875 
z
" id="DejaVuSans-121"/>
     <path d="M 54.890625 33.015625 
L 54.890625 0 
L 45.90625 0 
L 45.90625 32.71875 
Q 45.90625 40.484375 42.875 44.328125 
Q 39.84375 48.1875 33.796875 48.1875 
Q 26.515625 48.1875 22.3125 43.546875 
Q 18.109375 38.921875 18.109375 30.90625 
L 18.109375 0 
L 9.078125 0 
L 9.078125 54.6875 
L 18.109375 54.6875 
L 18.109375 46.1875 
Q 21.34375 51.125 25.703125 53.5625 
Q 30.078125 56 35.796875 56 
Q 45.21875 56 50.046875 50.171875 
Q 54.890625 44.34375 54.890625 33.015625 
z
" id="DejaVuSans-110"/>
     <path d="M 54.890625 33.015625 
L 54.890625 0 
L 45.90625 0 
L 45.90625 32.71875 
Q 45.90625 40.484375 42.875 44.328125 
Q 39.84375 48.1875 33.796875 48.1875 
Q 26.515625 48.1875 22.3125 43.546875 
Q 18.109375 38.921875 18.109375 30.90625 
L 18.109375 0 
L 9.078125 0 
L 9.078125 75.984375 
L 18.109375 75.984375 
L 18.109375 46.1875 
Q 21.34375 51.125 25.703125 53.5625 
Q 30.078125 56 35.796875 56 
Q 45.21875 56 50.046875 50.171875 
Q 54.890625 44.34375 54.890625 33.015625 
z
" id="DejaVuSans-104"/>
     <path d="M 48.78125 52.59375 
L 48.78125 44.1875 
Q 44.96875 46.296875 41.140625 47.34375 
Q 37.3125 48.390625 33.40625 48.390625 
Q 24.65625 48.390625 19.8125 42.84375 
Q 14.984375 37.3125 14.984375 27.296875 
Q 14.984375 17.28125 19.8125 11.734375 
Q 24.65625 6.203125 33.40625 6.203125 
Q 37.3125 6.203125 41.140625 7.25 
Q 44.96875 8.296875 48.78125 10.40625 
L 48.78125 2.09375 
Q 45.015625 0.34375 40.984375 -0.53125 
Q 36.96875 -1.421875 32.421875 -1.421875 
Q 20.0625 -1.421875 12.78125 6.34375 
Q 5.515625 14.109375 5.515625 27.296875 
Q 5.515625 40.671875 12.859375 48.328125 
Q 20.21875 56 33.015625 56 
Q 37.15625 56 41.109375 55.140625 
Q 45.0625 54.296875 48.78125 52.59375 
z
" id="DejaVuSans-99"/>
     <path d="M 50.984375 -16.609375 
L 50.984375 -23.578125 
L -0.984375 -23.578125 
L -0.984375 -16.609375 
z
" id="DejaVuSans-95"/>
     <path d="M 10.6875 12.40625 
L 21 12.40625 
L 21 0 
L 10.6875 0 
z
" id="DejaVuSans-46"/>
     <path d="M 2.984375 54.6875 
L 12.5 54.6875 
L 29.59375 8.796875 
L 46.6875 54.6875 
L 56.203125 54.6875 
L 35.6875 0 
L 23.484375 0 
z
" id="DejaVuSans-118"/>
    </defs>
    <g transform="translate(392.638125 45.84)scale(0.12 -0.12)">
     <use xlink:href="#DejaVuSans-115"/>
     <use x="52.099609" xlink:href="#DejaVuSans-121"/>
     <use x="111.279297" xlink:href="#DejaVuSans-110"/>
     <use x="174.658203" xlink:href="#DejaVuSans-116"/>
     <use x="213.867188" xlink:href="#DejaVuSans-104"/>
     <use x="277.246094" xlink:href="#DejaVuSans-101"/>
     <use x="338.769531" xlink:href="#DejaVuSans-116"/>
     <use x="377.978516" xlink:href="#DejaVuSans-105"/>
     <use x="405.761719" xlink:href="#DejaVuSans-99"/>
     <use x="460.742188" xlink:href="#DejaVuSans-95"/>
     <use x="510.742188" xlink:href="#DejaVuSans-50"/>
     <use x="574.365234" xlink:href="#DejaVuSans-48"/>
     <use x="637.988281" xlink:href="#DejaVuSans-46"/>
     <use x="669.775391" xlink:href="#DejaVuSans-99"/>
     <use x="724.755859" xlink:href="#DejaVuSans-115"/>
     <use x="776.855469" xlink:href="#DejaVuSans-118"/>
    </g>
   </g>
   <g id="legend_1">
    <g id="patch_48">
     <path d="M 115 74.518125 
L 174.315625 74.518125 
Q 176.315625 74.518125 176.315625 72.518125 
L 176.315625 58.84 
Q 176.315625 56.84 174.315625 56.84 
L 115 56.84 
Q 113 56.84 113 58.84 
L 113 72.518125 
Q 113 74.518125 115 74.518125 
z
" style="fill:#ffffff;opacity:0.8;stroke:#cccccc;stroke-linejoin:miter;"/>
    </g>
    <g id="line2d_15">
     <path d="M 117 64.938438 
L 137 64.938438 
" style="fill:none;stroke:#1f77b4;stroke-linecap:square;stroke-width:1.5;"/>
    </g>
    <g id="line2d_16"/>
    <g id="text_16">
     <!-- value -->
     <g transform="translate(145 68.438438)scale(0.1 -0.1)">
      <use xlink:href="#DejaVuSans-118"/>
      <use x="59.179688" xlink:href="#DejaVuSans-97"/>
      <use x="120.458984" xlink:href="#DejaVuSans-108"/>
      <use x="148.242188" xlink:href="#DejaVuSans-117"/>
      <use x="211.621094" xlink:href="#DejaVuSans-101"/>
     </g>
    </g>
   </g>
  </g>
 </g>
 <defs>
  <clipPath id="pcd37e949b0">
   <rect height="332.64" width="669.6" x="108" y="51.84"/>
  </clipPath>
 </defs>
</svg>
