<?xml version="1.0" encoding="utf-8" standalone="no"?>
<!DOCTYPE svg PUBLIC "-//W3C//DTD SVG 1.1//EN"
  "http://www.w3.org/Graphics/SVG/1.1/DTD/svg11.dtd">
<!-- Created with matplotlib (https://matplotlib.org/) -->
<svg height="432pt" version="1.1" viewBox="0 0 864 432" width="864pt" xmlns="http://www.w3.org/2000/svg" xmlns:xlink="http://www.w3.org/1999/xlink">
 <defs>
  <style type="text/css">
*{stroke-linecap:butt;stroke-linejoin:round;}
  </style>
 </defs>
 <g id="figure_1">
  <g id="patch_1">
   <path d="M 0 432 
L 864 432 
L 864 0 
L 0 0 
z
" style="fill:#ffffff;"/>
  </g>
  <g id="axes_1">
   <g id="patch_2">
    <path d="M 108 384.48 
L 777.6 384.48 
L 777.6 51.84 
L 108 51.84 
z
" style="fill:#ffffff;"/>
   </g>
   <g id="patch_3">
    <path clip-path="url(#pfba742de83)" d="M 138.436364 384.48 
L 138.436364 51.84 
L 373.383732 51.84 
L 373.383732 384.48 
z
" style="fill:#0000ff;opacity:0.05;"/>
   </g>
   <g id="patch_4">
    <path clip-path="url(#pfba742de83)" d="M 373.383732 384.48 
L 373.383732 51.84 
L 747.163636 51.84 
L 747.163636 384.48 
z
" style="fill:#ff0000;opacity:0.08;"/>
   </g>
   <g id="patch_5">
    <path clip-path="url(#pfba742de83)" d="M 138.436364 384.48 
L 138.436364 51.84 
L 149.115789 51.84 
L 149.115789 384.48 
z
" style="fill:#008000;opacity:0.04;"/>
   </g>
   <g id="patch_6">
    <path clip-path="url(#pfba742de83)" d="M 149.115789 384.48 
L 149.115789 371.1744 
L 159.795215 371.1744 
L 159.795215 384.48 
z
" style="fill:#ffe500;"/>
   </g>
   <g id="patch_7">
    <path clip-path="url(#pfba742de83)" d="M 159.795215 384.48 
L 159.795215 51.84 
L 170.474641 51.84 
L 170.474641 384.48 
z
" style="fill:#008000;opacity:0.04;"/>
   </g>
   <g id="patch_8">
    <path clip-path="url(#pfba742de83)" d="M 181.154067 384.48 
L 181.154067 51.84 
L 191.833493 51.84 
L 191.833493 384.48 
z
" style="fill:#008000;opacity:0.04;"/>
   </g>
   <g id="patch_9">
    <path clip-path="url(#pfba742de83)" d="M 202.512919 384.48 
L 202.512919 51.84 
L 213.192344 51.84 
L 213.192344 384.48 
z
" style="fill:#008000;opacity:0.04;"/>
   </g>
   <g id="patch_10">
    <path clip-path="url(#pfba742de83)" d="M 223.87177 384.48 
L 223.87177 51.84 
L 234.551196 51.84 
L 234.551196 384.48 
z
" style="fill:#008000;opacity:0.04;"/>
   </g>
   <g id="patch_11">
    <path clip-path="url(#pfba742de83)" d="M 245.230622 384.48 
L 245.230622 51.84 
L 255.910048 51.84 
L 255.910048 384.48 
z
" style="fill:#008000;opacity:0.04;"/>
   </g>
   <g id="patch_12">
    <path clip-path="url(#pfba742de83)" d="M 490.857416 384.48 
L 490.857416 371.1744 
L 501.536842 371.1744 
L 501.536842 384.48 
z
" style="fill:#ff6600;"/>
   </g>
   <g id="patch_13">
    <path clip-path="url(#pfba742de83)" d="M 266.589474 384.48 
L 266.589474 51.84 
L 277.2689 51.84 
L 277.2689 384.48 
z
" style="fill:#008000;opacity:0.04;"/>
   </g>
   <g id="patch_14">
    <path clip-path="url(#pfba742de83)" d="M 512.216268 384.48 
L 512.216268 371.1744 
L 522.895694 371.1744 
L 522.895694 384.48 
z
" style="fill:#ff6600;"/>
   </g>
   <g id="patch_15">
    <path clip-path="url(#pfba742de83)" d="M 287.948325 384.48 
L 287.948325 51.84 
L 298.627751 51.84 
L 298.627751 384.48 
z
" style="fill:#008000;opacity:0.04;"/>
   </g>
   <g id="patch_16">
    <path clip-path="url(#pfba742de83)" d="M 309.307177 384.48 
L 309.307177 51.84 
L 319.986603 51.84 
L 319.986603 384.48 
z
" style="fill:#008000;opacity:0.04;"/>
   </g>
   <g id="patch_17">
    <path clip-path="url(#pfba742de83)" d="M 330.666029 384.48 
L 330.666029 51.84 
L 341.345455 51.84 
L 341.345455 384.48 
z
" style="fill:#008000;opacity:0.04;"/>
   </g>
   <g id="patch_18">
    <path clip-path="url(#pfba742de83)" d="M 341.345455 384.48 
L 341.345455 371.1744 
L 352.02488 371.1744 
L 352.02488 384.48 
z
" style="fill:#ffe500;"/>
   </g>
   <g id="patch_19">
    <path clip-path="url(#pfba742de83)" d="M 352.02488 384.48 
L 352.02488 51.84 
L 362.704306 51.84 
L 362.704306 384.48 
z
" style="fill:#008000;opacity:0.04;"/>
   </g>
   <g id="patch_20">
    <path clip-path="url(#pfba742de83)" d="M 373.383732 384.48 
L 373.383732 51.84 
L 384.063158 51.84 
L 384.063158 384.48 
z
" style="fill:#008000;opacity:0.04;"/>
   </g>
   <g id="patch_21">
    <path clip-path="url(#pfba742de83)" d="M 394.742584 384.48 
L 394.742584 51.84 
L 405.42201 51.84 
L 405.42201 384.48 
z
" style="fill:#008000;opacity:0.04;"/>
   </g>
   <g id="patch_22">
    <path clip-path="url(#pfba742de83)" d="M 416.101435 384.48 
L 416.101435 51.84 
L 426.780861 51.84 
L 426.780861 384.48 
z
" style="fill:#008000;opacity:0.04;"/>
   </g>
   <g id="patch_23">
    <path clip-path="url(#pfba742de83)" d="M 437.460287 384.48 
L 437.460287 51.84 
L 448.139713 51.84 
L 448.139713 384.48 
z
" style="fill:#008000;opacity:0.04;"/>
   </g>
   <g id="patch_24">
    <path clip-path="url(#pfba742de83)" d="M 458.819139 384.48 
L 458.819139 51.84 
L 469.498565 51.84 
L 469.498565 384.48 
z
" style="fill:#008000;opacity:0.04;"/>
   </g>
   <g id="patch_25">
    <path clip-path="url(#pfba742de83)" d="M 480.17799 384.48 
L 480.17799 51.84 
L 490.857416 51.84 
L 490.857416 384.48 
z
" style="fill:#008000;opacity:0.04;"/>
   </g>
   <g id="patch_26">
    <path clip-path="url(#pfba742de83)" d="M 501.536842 384.48 
L 501.536842 51.84 
L 512.216268 51.84 
L 512.216268 384.48 
z
" style="fill:#008000;opacity:0.04;"/>
   </g>
   <g id="patch_27">
    <path clip-path="url(#pfba742de83)" d="M 512.216268 371.1744 
L 512.216268 51.84 
L 522.895694 51.84 
L 522.895694 371.1744 
z
" style="fill:#008000;opacity:0.5;"/>
   </g>
   <g id="patch_28">
    <path clip-path="url(#pfba742de83)" d="M 522.895694 384.48 
L 522.895694 51.84 
L 533.57512 51.84 
L 533.57512 384.48 
z
" style="fill:#008000;opacity:0.04;"/>
   </g>
   <g id="patch_29">
    <path clip-path="url(#pfba742de83)" d="M 544.254545 384.48 
L 544.254545 51.84 
L 554.933971 51.84 
L 554.933971 384.48 
z
" style="fill:#008000;opacity:0.04;"/>
   </g>
   <g id="patch_30">
    <path clip-path="url(#pfba742de83)" d="M 565.613397 384.48 
L 565.613397 51.84 
L 576.292823 51.84 
L 576.292823 384.48 
z
" style="fill:#008000;opacity:0.04;"/>
   </g>
   <g id="patch_31">
    <path clip-path="url(#pfba742de83)" d="M 586.972249 384.48 
L 586.972249 51.84 
L 597.651675 51.84 
L 597.651675 384.48 
z
" style="fill:#008000;opacity:0.04;"/>
   </g>
   <g id="patch_32">
    <path clip-path="url(#pfba742de83)" d="M 608.3311 384.48 
L 608.3311 51.84 
L 619.010526 51.84 
L 619.010526 384.48 
z
" style="fill:#008000;opacity:0.04;"/>
   </g>
   <g id="patch_33">
    <path clip-path="url(#pfba742de83)" d="M 629.689952 384.48 
L 629.689952 51.84 
L 640.369378 51.84 
L 640.369378 384.48 
z
" style="fill:#008000;opacity:0.04;"/>
   </g>
   <g id="patch_34">
    <path clip-path="url(#pfba742de83)" d="M 651.048804 384.48 
L 651.048804 51.84 
L 661.72823 51.84 
L 661.72823 384.48 
z
" style="fill:#008000;opacity:0.04;"/>
   </g>
   <g id="patch_35">
    <path clip-path="url(#pfba742de83)" d="M 672.407656 384.48 
L 672.407656 51.84 
L 683.087081 51.84 
L 683.087081 384.48 
z
" style="fill:#008000;opacity:0.04;"/>
   </g>
   <g id="patch_36">
    <path clip-path="url(#pfba742de83)" d="M 693.766507 384.48 
L 693.766507 51.84 
L 704.445933 51.84 
L 704.445933 384.48 
z
" style="fill:#008000;opacity:0.04;"/>
   </g>
   <g id="patch_37">
    <path clip-path="url(#pfba742de83)" d="M 715.125359 384.48 
L 715.125359 51.84 
L 725.804785 51.84 
L 725.804785 384.48 
z
" style="fill:#008000;opacity:0.04;"/>
   </g>
   <g id="patch_38">
    <path clip-path="url(#pfba742de83)" d="M 736.484211 384.48 
L 736.484211 51.84 
L 747.163636 51.84 
L 747.163636 384.48 
z
" style="fill:#008000;opacity:0.04;"/>
   </g>
   <g id="matplotlib.axis_1">
    <g id="xtick_1">
     <g id="line2d_1">
      <defs>
       <path d="M 0 0 
L 0 3.5 
" id="mcf403f6d15" style="stroke:#000000;stroke-width:0.8;"/>
      </defs>
      <g>
       <use style="stroke:#000000;stroke-width:0.8;" x="138.436364" xlink:href="#mcf403f6d15" y="384.48"/>
      </g>
     </g>
     <g id="text_1">
      <!-- 0 -->
      <defs>
       <path d="M 31.78125 66.40625 
Q 24.171875 66.40625 20.328125 58.90625 
Q 16.5 51.421875 16.5 36.375 
Q 16.5 21.390625 20.328125 13.890625 
Q 24.171875 6.390625 31.78125 6.390625 
Q 39.453125 6.390625 43.28125 13.890625 
Q 47.125 21.390625 47.125 36.375 
Q 47.125 51.421875 43.28125 58.90625 
Q 39.453125 66.40625 31.78125 66.40625 
z
M 31.78125 74.21875 
Q 44.046875 74.21875 50.515625 64.515625 
Q 56.984375 54.828125 56.984375 36.375 
Q 56.984375 17.96875 50.515625 8.265625 
Q 44.046875 -1.421875 31.78125 -1.421875 
Q 19.53125 -1.421875 13.0625 8.265625 
Q 6.59375 17.96875 6.59375 36.375 
Q 6.59375 54.828125 13.0625 64.515625 
Q 19.53125 74.21875 31.78125 74.21875 
z
" id="DejaVuSans-48"/>
      </defs>
      <g transform="translate(135.255114 399.078438)scale(0.1 -0.1)">
       <use xlink:href="#DejaVuSans-48"/>
      </g>
     </g>
    </g>
    <g id="xtick_2">
     <g id="line2d_2">
      <g>
       <use style="stroke:#000000;stroke-width:0.8;" x="223.87177" xlink:href="#mcf403f6d15" y="384.48"/>
      </g>
     </g>
     <g id="text_2">
      <!-- 200 -->
      <defs>
       <path d="M 19.1875 8.296875 
L 53.609375 8.296875 
L 53.609375 0 
L 7.328125 0 
L 7.328125 8.296875 
Q 12.9375 14.109375 22.625 23.890625 
Q 32.328125 33.6875 34.8125 36.53125 
Q 39.546875 41.84375 41.421875 45.53125 
Q 43.3125 49.21875 43.3125 52.78125 
Q 43.3125 58.59375 39.234375 62.25 
Q 35.15625 65.921875 28.609375 65.921875 
Q 23.96875 65.921875 18.8125 64.3125 
Q 13.671875 62.703125 7.8125 59.421875 
L 7.8125 69.390625 
Q 13.765625 71.78125 18.9375 73 
Q 24.125 74.21875 28.421875 74.21875 
Q 39.75 74.21875 46.484375 68.546875 
Q 53.21875 62.890625 53.21875 53.421875 
Q 53.21875 48.921875 51.53125 44.890625 
Q 49.859375 40.875 45.40625 35.40625 
Q 44.1875 33.984375 37.640625 27.21875 
Q 31.109375 20.453125 19.1875 8.296875 
z
" id="DejaVuSans-50"/>
      </defs>
      <g transform="translate(214.32802 399.078438)scale(0.1 -0.1)">
       <use xlink:href="#DejaVuSans-50"/>
       <use x="63.623047" xlink:href="#DejaVuSans-48"/>
       <use x="127.246094" xlink:href="#DejaVuSans-48"/>
      </g>
     </g>
    </g>
    <g id="xtick_3">
     <g id="line2d_3">
      <g>
       <use style="stroke:#000000;stroke-width:0.8;" x="309.307177" xlink:href="#mcf403f6d15" y="384.48"/>
      </g>
     </g>
     <g id="text_3">
      <!-- 400 -->
      <defs>
       <path d="M 37.796875 64.3125 
L 12.890625 25.390625 
L 37.796875 25.390625 
z
M 35.203125 72.90625 
L 47.609375 72.90625 
L 47.609375 25.390625 
L 58.015625 25.390625 
L 58.015625 17.1875 
L 47.609375 17.1875 
L 47.609375 0 
L 37.796875 0 
L 37.796875 17.1875 
L 4.890625 17.1875 
L 4.890625 26.703125 
z
" id="DejaVuSans-52"/>
      </defs>
      <g transform="translate(299.763427 399.078438)scale(0.1 -0.1)">
       <use xlink:href="#DejaVuSans-52"/>
       <use x="63.623047" xlink:href="#DejaVuSans-48"/>
       <use x="127.246094" xlink:href="#DejaVuSans-48"/>
      </g>
     </g>
    </g>
    <g id="xtick_4">
     <g id="line2d_4">
      <g>
       <use style="stroke:#000000;stroke-width:0.8;" x="394.742584" xlink:href="#mcf403f6d15" y="384.48"/>
      </g>
     </g>
     <g id="text_4">
      <!-- 600 -->
      <defs>
       <path d="M 33.015625 40.375 
Q 26.375 40.375 22.484375 35.828125 
Q 18.609375 31.296875 18.609375 23.390625 
Q 18.609375 15.53125 22.484375 10.953125 
Q 26.375 6.390625 33.015625 6.390625 
Q 39.65625 6.390625 43.53125 10.953125 
Q 47.40625 15.53125 47.40625 23.390625 
Q 47.40625 31.296875 43.53125 35.828125 
Q 39.65625 40.375 33.015625 40.375 
z
M 52.59375 71.296875 
L 52.59375 62.3125 
Q 48.875 64.0625 45.09375 64.984375 
Q 41.3125 65.921875 37.59375 65.921875 
Q 27.828125 65.921875 22.671875 59.328125 
Q 17.53125 52.734375 16.796875 39.40625 
Q 19.671875 43.65625 24.015625 45.921875 
Q 28.375 48.1875 33.59375 48.1875 
Q 44.578125 48.1875 50.953125 41.515625 
Q 57.328125 34.859375 57.328125 23.390625 
Q 57.328125 12.15625 50.6875 5.359375 
Q 44.046875 -1.421875 33.015625 -1.421875 
Q 20.359375 -1.421875 13.671875 8.265625 
Q 6.984375 17.96875 6.984375 36.375 
Q 6.984375 53.65625 15.1875 63.9375 
Q 23.390625 74.21875 37.203125 74.21875 
Q 40.921875 74.21875 44.703125 73.484375 
Q 48.484375 72.75 52.59375 71.296875 
z
" id="DejaVuSans-54"/>
      </defs>
      <g transform="translate(385.198834 399.078438)scale(0.1 -0.1)">
       <use xlink:href="#DejaVuSans-54"/>
       <use x="63.623047" xlink:href="#DejaVuSans-48"/>
       <use x="127.246094" xlink:href="#DejaVuSans-48"/>
      </g>
     </g>
    </g>
    <g id="xtick_5">
     <g id="line2d_5">
      <g>
       <use style="stroke:#000000;stroke-width:0.8;" x="480.17799" xlink:href="#mcf403f6d15" y="384.48"/>
      </g>
     </g>
     <g id="text_5">
      <!-- 800 -->
      <defs>
       <path d="M 31.78125 34.625 
Q 24.75 34.625 20.71875 30.859375 
Q 16.703125 27.09375 16.703125 20.515625 
Q 16.703125 13.921875 20.71875 10.15625 
Q 24.75 6.390625 31.78125 6.390625 
Q 38.8125 6.390625 42.859375 10.171875 
Q 46.921875 13.96875 46.921875 20.515625 
Q 46.921875 27.09375 42.890625 30.859375 
Q 38.875 34.625 31.78125 34.625 
z
M 21.921875 38.8125 
Q 15.578125 40.375 12.03125 44.71875 
Q 8.5 49.078125 8.5 55.328125 
Q 8.5 64.0625 14.71875 69.140625 
Q 20.953125 74.21875 31.78125 74.21875 
Q 42.671875 74.21875 48.875 69.140625 
Q 55.078125 64.0625 55.078125 55.328125 
Q 55.078125 49.078125 51.53125 44.71875 
Q 48 40.375 41.703125 38.8125 
Q 48.828125 37.15625 52.796875 32.3125 
Q 56.78125 27.484375 56.78125 20.515625 
Q 56.78125 9.90625 50.3125 4.234375 
Q 43.84375 -1.421875 31.78125 -1.421875 
Q 19.734375 -1.421875 13.25 4.234375 
Q 6.78125 9.90625 6.78125 20.515625 
Q 6.78125 27.484375 10.78125 32.3125 
Q 14.796875 37.15625 21.921875 38.8125 
z
M 18.3125 54.390625 
Q 18.3125 48.734375 21.84375 45.5625 
Q 25.390625 42.390625 31.78125 42.390625 
Q 38.140625 42.390625 41.71875 45.5625 
Q 45.3125 48.734375 45.3125 54.390625 
Q 45.3125 60.0625 41.71875 63.234375 
Q 38.140625 66.40625 31.78125 66.40625 
Q 25.390625 66.40625 21.84375 63.234375 
Q 18.3125 60.0625 18.3125 54.390625 
z
" id="DejaVuSans-56"/>
      </defs>
      <g transform="translate(470.63424 399.078438)scale(0.1 -0.1)">
       <use xlink:href="#DejaVuSans-56"/>
       <use x="63.623047" xlink:href="#DejaVuSans-48"/>
       <use x="127.246094" xlink:href="#DejaVuSans-48"/>
      </g>
     </g>
    </g>
    <g id="xtick_6">
     <g id="line2d_6">
      <g>
       <use style="stroke:#000000;stroke-width:0.8;" x="565.613397" xlink:href="#mcf403f6d15" y="384.48"/>
      </g>
     </g>
     <g id="text_6">
      <!-- 1000 -->
      <defs>
       <path d="M 12.40625 8.296875 
L 28.515625 8.296875 
L 28.515625 63.921875 
L 10.984375 60.40625 
L 10.984375 69.390625 
L 28.421875 72.90625 
L 38.28125 72.90625 
L 38.28125 8.296875 
L 54.390625 8.296875 
L 54.390625 0 
L 12.40625 0 
z
" id="DejaVuSans-49"/>
      </defs>
      <g transform="translate(552.888397 399.078438)scale(0.1 -0.1)">
       <use xlink:href="#DejaVuSans-49"/>
       <use x="63.623047" xlink:href="#DejaVuSans-48"/>
       <use x="127.246094" xlink:href="#DejaVuSans-48"/>
       <use x="190.869141" xlink:href="#DejaVuSans-48"/>
      </g>
     </g>
    </g>
    <g id="xtick_7">
     <g id="line2d_7">
      <g>
       <use style="stroke:#000000;stroke-width:0.8;" x="651.048804" xlink:href="#mcf403f6d15" y="384.48"/>
      </g>
     </g>
     <g id="text_7">
      <!-- 1200 -->
      <g transform="translate(638.323804 399.078438)scale(0.1 -0.1)">
       <use xlink:href="#DejaVuSans-49"/>
       <use x="63.623047" xlink:href="#DejaVuSans-50"/>
       <use x="127.246094" xlink:href="#DejaVuSans-48"/>
       <use x="190.869141" xlink:href="#DejaVuSans-48"/>
      </g>
     </g>
    </g>
    <g id="xtick_8">
     <g id="line2d_8">
      <g>
       <use style="stroke:#000000;stroke-width:0.8;" x="736.484211" xlink:href="#mcf403f6d15" y="384.48"/>
      </g>
     </g>
     <g id="text_8">
      <!-- 1400 -->
      <g transform="translate(723.759211 399.078438)scale(0.1 -0.1)">
       <use xlink:href="#DejaVuSans-49"/>
       <use x="63.623047" xlink:href="#DejaVuSans-52"/>
       <use x="127.246094" xlink:href="#DejaVuSans-48"/>
       <use x="190.869141" xlink:href="#DejaVuSans-48"/>
      </g>
     </g>
    </g>
    <g id="text_9">
     <!-- Timestamp -->
     <defs>
      <path d="M -0.296875 72.90625 
L 61.375 72.90625 
L 61.375 64.59375 
L 35.5 64.59375 
L 35.5 0 
L 25.59375 0 
L 25.59375 64.59375 
L -0.296875 64.59375 
z
" id="DejaVuSans-84"/>
      <path d="M 9.421875 54.6875 
L 18.40625 54.6875 
L 18.40625 0 
L 9.421875 0 
z
M 9.421875 75.984375 
L 18.40625 75.984375 
L 18.40625 64.59375 
L 9.421875 64.59375 
z
" id="DejaVuSans-105"/>
      <path d="M 52 44.1875 
Q 55.375 50.25 60.0625 53.125 
Q 64.75 56 71.09375 56 
Q 79.640625 56 84.28125 50.015625 
Q 88.921875 44.046875 88.921875 33.015625 
L 88.921875 0 
L 79.890625 0 
L 79.890625 32.71875 
Q 79.890625 40.578125 77.09375 44.375 
Q 74.3125 48.1875 68.609375 48.1875 
Q 61.625 48.1875 57.5625 43.546875 
Q 53.515625 38.921875 53.515625 30.90625 
L 53.515625 0 
L 44.484375 0 
L 44.484375 32.71875 
Q 44.484375 40.625 41.703125 44.40625 
Q 38.921875 48.1875 33.109375 48.1875 
Q 26.21875 48.1875 22.15625 43.53125 
Q 18.109375 38.875 18.109375 30.90625 
L 18.109375 0 
L 9.078125 0 
L 9.078125 54.6875 
L 18.109375 54.6875 
L 18.109375 46.1875 
Q 21.1875 51.21875 25.484375 53.609375 
Q 29.78125 56 35.6875 56 
Q 41.65625 56 45.828125 52.96875 
Q 50 49.953125 52 44.1875 
z
" id="DejaVuSans-109"/>
      <path d="M 56.203125 29.59375 
L 56.203125 25.203125 
L 14.890625 25.203125 
Q 15.484375 15.921875 20.484375 11.0625 
Q 25.484375 6.203125 34.421875 6.203125 
Q 39.59375 6.203125 44.453125 7.46875 
Q 49.3125 8.734375 54.109375 11.28125 
L 54.109375 2.78125 
Q 49.265625 0.734375 44.1875 -0.34375 
Q 39.109375 -1.421875 33.890625 -1.421875 
Q 20.796875 -1.421875 13.15625 6.1875 
Q 5.515625 13.8125 5.515625 26.8125 
Q 5.515625 40.234375 12.765625 48.109375 
Q 20.015625 56 32.328125 56 
Q 43.359375 56 49.78125 48.890625 
Q 56.203125 41.796875 56.203125 29.59375 
z
M 47.21875 32.234375 
Q 47.125 39.59375 43.09375 43.984375 
Q 39.0625 48.390625 32.421875 48.390625 
Q 24.90625 48.390625 20.390625 44.140625 
Q 15.875 39.890625 15.1875 32.171875 
z
" id="DejaVuSans-101"/>
      <path d="M 44.28125 53.078125 
L 44.28125 44.578125 
Q 40.484375 46.53125 36.375 47.5 
Q 32.28125 48.484375 27.875 48.484375 
Q 21.1875 48.484375 17.84375 46.4375 
Q 14.5 44.390625 14.5 40.28125 
Q 14.5 37.15625 16.890625 35.375 
Q 19.28125 33.59375 26.515625 31.984375 
L 29.59375 31.296875 
Q 39.15625 29.25 43.1875 25.515625 
Q 47.21875 21.78125 47.21875 15.09375 
Q 47.21875 7.46875 41.1875 3.015625 
Q 35.15625 -1.421875 24.609375 -1.421875 
Q 20.21875 -1.421875 15.453125 -0.5625 
Q 10.6875 0.296875 5.421875 2 
L 5.421875 11.28125 
Q 10.40625 8.6875 15.234375 7.390625 
Q 20.0625 6.109375 24.8125 6.109375 
Q 31.15625 6.109375 34.5625 8.28125 
Q 37.984375 10.453125 37.984375 14.40625 
Q 37.984375 18.0625 35.515625 20.015625 
Q 33.0625 21.96875 24.703125 23.78125 
L 21.578125 24.515625 
Q 13.234375 26.265625 9.515625 29.90625 
Q 5.8125 33.546875 5.8125 39.890625 
Q 5.8125 47.609375 11.28125 51.796875 
Q 16.75 56 26.8125 56 
Q 31.78125 56 36.171875 55.265625 
Q 40.578125 54.546875 44.28125 53.078125 
z
" id="DejaVuSans-115"/>
      <path d="M 18.3125 70.21875 
L 18.3125 54.6875 
L 36.8125 54.6875 
L 36.8125 47.703125 
L 18.3125 47.703125 
L 18.3125 18.015625 
Q 18.3125 11.328125 20.140625 9.421875 
Q 21.96875 7.515625 27.59375 7.515625 
L 36.8125 7.515625 
L 36.8125 0 
L 27.59375 0 
Q 17.1875 0 13.234375 3.875 
Q 9.28125 7.765625 9.28125 18.015625 
L 9.28125 47.703125 
L 2.6875 47.703125 
L 2.6875 54.6875 
L 9.28125 54.6875 
L 9.28125 70.21875 
z
" id="DejaVuSans-116"/>
      <path d="M 34.28125 27.484375 
Q 23.390625 27.484375 19.1875 25 
Q 14.984375 22.515625 14.984375 16.5 
Q 14.984375 11.71875 18.140625 8.90625 
Q 21.296875 6.109375 26.703125 6.109375 
Q 34.1875 6.109375 38.703125 11.40625 
Q 43.21875 16.703125 43.21875 25.484375 
L 43.21875 27.484375 
z
M 52.203125 31.203125 
L 52.203125 0 
L 43.21875 0 
L 43.21875 8.296875 
Q 40.140625 3.328125 35.546875 0.953125 
Q 30.953125 -1.421875 24.3125 -1.421875 
Q 15.921875 -1.421875 10.953125 3.296875 
Q 6 8.015625 6 15.921875 
Q 6 25.140625 12.171875 29.828125 
Q 18.359375 34.515625 30.609375 34.515625 
L 43.21875 34.515625 
L 43.21875 35.40625 
Q 43.21875 41.609375 39.140625 45 
Q 35.0625 48.390625 27.6875 48.390625 
Q 23 48.390625 18.546875 47.265625 
Q 14.109375 46.140625 10.015625 43.890625 
L 10.015625 52.203125 
Q 14.9375 54.109375 19.578125 55.046875 
Q 24.21875 56 28.609375 56 
Q 40.484375 56 46.34375 49.84375 
Q 52.203125 43.703125 52.203125 31.203125 
z
" id="DejaVuSans-97"/>
      <path d="M 18.109375 8.203125 
L 18.109375 -20.796875 
L 9.078125 -20.796875 
L 9.078125 54.6875 
L 18.109375 54.6875 
L 18.109375 46.390625 
Q 20.953125 51.265625 25.265625 53.625 
Q 29.59375 56 35.59375 56 
Q 45.5625 56 51.78125 48.09375 
Q 58.015625 40.1875 58.015625 27.296875 
Q 58.015625 14.40625 51.78125 6.484375 
Q 45.5625 -1.421875 35.59375 -1.421875 
Q 29.59375 -1.421875 25.265625 0.953125 
Q 20.953125 3.328125 18.109375 8.203125 
z
M 48.6875 27.296875 
Q 48.6875 37.203125 44.609375 42.84375 
Q 40.53125 48.484375 33.40625 48.484375 
Q 26.265625 48.484375 22.1875 42.84375 
Q 18.109375 37.203125 18.109375 27.296875 
Q 18.109375 17.390625 22.1875 11.75 
Q 26.265625 6.109375 33.40625 6.109375 
Q 40.53125 6.109375 44.609375 11.75 
Q 48.6875 17.390625 48.6875 27.296875 
z
" id="DejaVuSans-112"/>
     </defs>
     <g transform="translate(414.739062 412.756563)scale(0.1 -0.1)">
      <use xlink:href="#DejaVuSans-84"/>
      <use x="61.037109" xlink:href="#DejaVuSans-105"/>
      <use x="88.820312" xlink:href="#DejaVuSans-109"/>
      <use x="186.232422" xlink:href="#DejaVuSans-101"/>
      <use x="247.755859" xlink:href="#DejaVuSans-115"/>
      <use x="299.855469" xlink:href="#DejaVuSans-116"/>
      <use x="339.064453" xlink:href="#DejaVuSans-97"/>
      <use x="400.34375" xlink:href="#DejaVuSans-109"/>
      <use x="497.755859" xlink:href="#DejaVuSans-112"/>
     </g>
    </g>
   </g>
   <g id="matplotlib.axis_2">
    <g id="ytick_1">
     <g id="line2d_9">
      <defs>
       <path d="M 0 0 
L -3.5 0 
" id="mb972c37900" style="stroke:#000000;stroke-width:0.8;"/>
      </defs>
      <g>
       <use style="stroke:#000000;stroke-width:0.8;" x="108" xlink:href="#mb972c37900" y="342.11226"/>
      </g>
     </g>
     <g id="text_10">
      <!-- −1000 -->
      <defs>
       <path d="M 10.59375 35.5 
L 73.1875 35.5 
L 73.1875 27.203125 
L 10.59375 27.203125 
z
" id="DejaVuSans-8722"/>
      </defs>
      <g transform="translate(67.170312 345.911479)scale(0.1 -0.1)">
       <use xlink:href="#DejaVuSans-8722"/>
       <use x="83.789062" xlink:href="#DejaVuSans-49"/>
       <use x="147.412109" xlink:href="#DejaVuSans-48"/>
       <use x="211.035156" xlink:href="#DejaVuSans-48"/>
       <use x="274.658203" xlink:href="#DejaVuSans-48"/>
      </g>
     </g>
    </g>
    <g id="ytick_2">
     <g id="line2d_10">
      <g>
       <use style="stroke:#000000;stroke-width:0.8;" x="108" xlink:href="#mb972c37900" y="294.255633"/>
      </g>
     </g>
     <g id="text_11">
      <!-- 0 -->
      <g transform="translate(94.6375 298.054852)scale(0.1 -0.1)">
       <use xlink:href="#DejaVuSans-48"/>
      </g>
     </g>
    </g>
    <g id="ytick_3">
     <g id="line2d_11">
      <g>
       <use style="stroke:#000000;stroke-width:0.8;" x="108" xlink:href="#mb972c37900" y="246.399007"/>
      </g>
     </g>
     <g id="text_12">
      <!-- 1000 -->
      <g transform="translate(75.55 250.198225)scale(0.1 -0.1)">
       <use xlink:href="#DejaVuSans-49"/>
       <use x="63.623047" xlink:href="#DejaVuSans-48"/>
       <use x="127.246094" xlink:href="#DejaVuSans-48"/>
       <use x="190.869141" xlink:href="#DejaVuSans-48"/>
      </g>
     </g>
    </g>
    <g id="ytick_4">
     <g id="line2d_12">
      <g>
       <use style="stroke:#000000;stroke-width:0.8;" x="108" xlink:href="#mb972c37900" y="198.54238"/>
      </g>
     </g>
     <g id="text_13">
      <!-- 2000 -->
      <g transform="translate(75.55 202.341599)scale(0.1 -0.1)">
       <use xlink:href="#DejaVuSans-50"/>
       <use x="63.623047" xlink:href="#DejaVuSans-48"/>
       <use x="127.246094" xlink:href="#DejaVuSans-48"/>
       <use x="190.869141" xlink:href="#DejaVuSans-48"/>
      </g>
     </g>
    </g>
    <g id="ytick_5">
     <g id="line2d_13">
      <g>
       <use style="stroke:#000000;stroke-width:0.8;" x="108" xlink:href="#mb972c37900" y="150.685754"/>
      </g>
     </g>
     <g id="text_14">
      <!-- 3000 -->
      <defs>
       <path d="M 40.578125 39.3125 
Q 47.65625 37.796875 51.625 33 
Q 55.609375 28.21875 55.609375 21.1875 
Q 55.609375 10.40625 48.1875 4.484375 
Q 40.765625 -1.421875 27.09375 -1.421875 
Q 22.515625 -1.421875 17.65625 -0.515625 
Q 12.796875 0.390625 7.625 2.203125 
L 7.625 11.71875 
Q 11.71875 9.328125 16.59375 8.109375 
Q 21.484375 6.890625 26.8125 6.890625 
Q 36.078125 6.890625 40.9375 10.546875 
Q 45.796875 14.203125 45.796875 21.1875 
Q 45.796875 27.640625 41.28125 31.265625 
Q 36.765625 34.90625 28.71875 34.90625 
L 20.21875 34.90625 
L 20.21875 43.015625 
L 29.109375 43.015625 
Q 36.375 43.015625 40.234375 45.921875 
Q 44.09375 48.828125 44.09375 54.296875 
Q 44.09375 59.90625 40.109375 62.90625 
Q 36.140625 65.921875 28.71875 65.921875 
Q 24.65625 65.921875 20.015625 65.03125 
Q 15.375 64.15625 9.8125 62.3125 
L 9.8125 71.09375 
Q 15.4375 72.65625 20.34375 73.4375 
Q 25.25 74.21875 29.59375 74.21875 
Q 40.828125 74.21875 47.359375 69.109375 
Q 53.90625 64.015625 53.90625 55.328125 
Q 53.90625 49.265625 50.4375 45.09375 
Q 46.96875 40.921875 40.578125 39.3125 
z
" id="DejaVuSans-51"/>
      </defs>
      <g transform="translate(75.55 154.484972)scale(0.1 -0.1)">
       <use xlink:href="#DejaVuSans-51"/>
       <use x="63.623047" xlink:href="#DejaVuSans-48"/>
       <use x="127.246094" xlink:href="#DejaVuSans-48"/>
       <use x="190.869141" xlink:href="#DejaVuSans-48"/>
      </g>
     </g>
    </g>
    <g id="ytick_6">
     <g id="line2d_14">
      <g>
       <use style="stroke:#000000;stroke-width:0.8;" x="108" xlink:href="#mb972c37900" y="102.829127"/>
      </g>
     </g>
     <g id="text_15">
      <!-- 4000 -->
      <g transform="translate(75.55 106.628346)scale(0.1 -0.1)">
       <use xlink:href="#DejaVuSans-52"/>
       <use x="63.623047" xlink:href="#DejaVuSans-48"/>
       <use x="127.246094" xlink:href="#DejaVuSans-48"/>
       <use x="190.869141" xlink:href="#DejaVuSans-48"/>
      </g>
     </g>
    </g>
    <g id="ytick_7">
     <g id="line2d_15">
      <g>
       <use style="stroke:#000000;stroke-width:0.8;" x="108" xlink:href="#mb972c37900" y="54.9725"/>
      </g>
     </g>
     <g id="text_16">
      <!-- 5000 -->
      <defs>
       <path d="M 10.796875 72.90625 
L 49.515625 72.90625 
L 49.515625 64.59375 
L 19.828125 64.59375 
L 19.828125 46.734375 
Q 21.96875 47.46875 24.109375 47.828125 
Q 26.265625 48.1875 28.421875 48.1875 
Q 40.625 48.1875 47.75 41.5 
Q 54.890625 34.8125 54.890625 23.390625 
Q 54.890625 11.625 47.5625 5.09375 
Q 40.234375 -1.421875 26.90625 -1.421875 
Q 22.3125 -1.421875 17.546875 -0.640625 
Q 12.796875 0.140625 7.71875 1.703125 
L 7.71875 11.625 
Q 12.109375 9.234375 16.796875 8.0625 
Q 21.484375 6.890625 26.703125 6.890625 
Q 35.15625 6.890625 40.078125 11.328125 
Q 45.015625 15.765625 45.015625 23.390625 
Q 45.015625 31 40.078125 35.4375 
Q 35.15625 39.890625 26.703125 39.890625 
Q 22.75 39.890625 18.8125 39.015625 
Q 14.890625 38.140625 10.796875 36.28125 
z
" id="DejaVuSans-53"/>
      </defs>
      <g transform="translate(75.55 58.771719)scale(0.1 -0.1)">
       <use xlink:href="#DejaVuSans-53"/>
       <use x="63.623047" xlink:href="#DejaVuSans-48"/>
       <use x="127.246094" xlink:href="#DejaVuSans-48"/>
       <use x="190.869141" xlink:href="#DejaVuSans-48"/>
      </g>
     </g>
    </g>
    <g id="text_17">
     <!-- Value -->
     <defs>
      <path d="M 28.609375 0 
L 0.78125 72.90625 
L 11.078125 72.90625 
L 34.1875 11.53125 
L 57.328125 72.90625 
L 67.578125 72.90625 
L 39.796875 0 
z
" id="DejaVuSans-86"/>
      <path d="M 9.421875 75.984375 
L 18.40625 75.984375 
L 18.40625 0 
L 9.421875 0 
z
" id="DejaVuSans-108"/>
      <path d="M 8.5 21.578125 
L 8.5 54.6875 
L 17.484375 54.6875 
L 17.484375 21.921875 
Q 17.484375 14.15625 20.5 10.265625 
Q 23.53125 6.390625 29.59375 6.390625 
Q 36.859375 6.390625 41.078125 11.03125 
Q 45.3125 15.671875 45.3125 23.6875 
L 45.3125 54.6875 
L 54.296875 54.6875 
L 54.296875 0 
L 45.3125 0 
L 45.3125 8.40625 
Q 42.046875 3.421875 37.71875 1 
Q 33.40625 -1.421875 27.6875 -1.421875 
Q 18.265625 -1.421875 13.375 4.4375 
Q 8.5 10.296875 8.5 21.578125 
z
M 31.109375 56 
z
" id="DejaVuSans-117"/>
     </defs>
     <g transform="translate(61.090625 232.273281)rotate(-90)scale(0.1 -0.1)">
      <use xlink:href="#DejaVuSans-86"/>
      <use x="68.298828" xlink:href="#DejaVuSans-97"/>
      <use x="129.578125" xlink:href="#DejaVuSans-108"/>
      <use x="157.361328" xlink:href="#DejaVuSans-117"/>
      <use x="220.740234" xlink:href="#DejaVuSans-101"/>
     </g>
    </g>
   </g>
   <g id="line2d_16">
    <path clip-path="url(#pfba742de83)" d="M 138.436364 302.30229 
L 138.863541 289.0507 
L 139.290718 299.528695 
L 139.717895 265.269237 
L 140.572249 291.176336 
L 140.999426 271.531912 
L 141.426603 265.621041 
L 141.85378 265.101354 
L 142.280957 273.934914 
L 142.708134 247.810584 
L 143.562488 270.487128 
L 143.989665 288.730861 
L 144.416842 243.049205 
L 144.844019 255.908061 
L 145.271196 253.281749 
L 145.698373 238.640695 
L 146.12555 238.107129 
L 146.552727 239.001292 
L 146.979904 232.804283 
L 147.407081 232.673892 
L 147.834258 240.02423 
L 148.261435 265.046827 
L 148.688612 229.547645 
L 149.115789 236.740589 
L 149.542967 236.548714 
L 149.970144 252.209486 
L 151.251675 211.903225 
L 151.678852 229.848956 
L 152.106029 222.580154 
L 152.533206 227.499369 
L 152.960383 243.957249 
L 153.38756 230.880238 
L 153.814737 230.116445 
L 154.241914 225.382055 
L 154.669091 210.062125 
L 155.096268 214.252544 
L 155.523445 226.212 
L 155.950622 227.398355 
L 156.377799 215.213685 
L 156.804976 217.279182 
L 157.232153 233.7823 
L 157.65933 234.480928 
L 158.086507 221.136246 
L 158.513684 216.559228 
L 158.940861 228.746824 
L 159.368038 216.726052 
L 159.795215 223.95229 
L 160.222392 238.111948 
L 160.649569 226.90475 
L 161.076746 247.223181 
L 161.503923 215.32987 
L 161.9311 209.658409 
L 162.358278 241.619092 
L 162.785455 251.99609 
L 163.212632 232.745108 
L 163.639809 243.643286 
L 164.066986 212.578289 
L 164.494163 246.140194 
L 164.92134 238.661461 
L 165.775694 261.39262 
L 166.202871 251.468409 
L 166.630048 279.545347 
L 167.057225 239.401439 
L 167.484402 258.741167 
L 167.911579 234.916751 
L 168.338756 259.332416 
L 168.765933 277.149293 
L 169.19311 262.496651 
L 169.620287 285.035835 
L 170.047464 291.708764 
L 170.474641 274.219777 
L 170.901818 286.314466 
L 171.328995 283.128972 
L 171.756172 284.765107 
L 172.183349 295.964535 
L 172.610526 298.283332 
L 173.037703 295.245868 
L 173.46488 280.789547 
L 173.892057 318.390172 
L 174.319234 293.473005 
L 174.746411 299.381591 
L 175.173589 292.410269 
L 175.600766 312.61118 
L 176.027943 306.302033 
L 176.45512 310.033797 
L 176.882297 322.889211 
L 177.309474 302.498036 
L 177.736651 305.374203 
L 178.163828 313.550062 
L 178.591005 304.202355 
L 179.018182 319.629989 
L 179.445359 345.456663 
L 179.872536 338.295468 
L 180.299713 348.633087 
L 180.72689 340.70744 
L 181.154067 344.354119 
L 181.581244 337.42378 
L 182.008421 351.36344 
L 182.435598 338.995097 
L 182.862775 350.941989 
L 183.289952 320.850973 
L 183.717129 335.703079 
L 184.144306 334.327284 
L 184.571483 342.186614 
L 184.99866 326.293116 
L 185.425837 357.195811 
L 185.853014 355.678898 
L 186.280191 331.755451 
L 186.707368 359.306195 
L 187.134545 353.989209 
L 187.561722 356.721821 
L 187.9889 355.999947 
L 188.416077 355.58647 
L 188.843254 345.568016 
L 189.270431 354.181419 
L 189.697608 358.241608 
L 190.124785 333.953879 
L 190.551962 353.741391 
L 190.979139 352.7686 
L 191.406316 351.11631 
L 191.833493 339.847721 
L 192.26067 349.215418 
L 192.687847 347.819064 
L 193.115024 355.141193 
L 193.969378 343.166001 
L 194.396555 350.26311 
L 194.823732 334.319014 
L 195.250909 359.399865 
L 195.678086 334.138697 
L 196.105263 356.361607 
L 196.53244 338.575559 
L 196.959617 339.679472 
L 197.386794 339.36301 
L 197.813971 329.646278 
L 198.241148 351.666216 
L 198.668325 309.440477 
L 199.095502 344.088358 
L 199.522679 326.239566 
L 199.949856 332.374415 
L 200.377033 325.257868 
L 200.804211 286.018365 
L 201.231388 310.38025 
L 201.658565 324.762589 
L 202.085742 326.791806 
L 202.512919 297.073811 
L 202.940096 300.518476 
L 203.367273 301.739935 
L 204.221627 311.511578 
L 204.648804 303.441659 
L 205.075981 273.792932 
L 205.503158 292.077353 
L 205.930335 299.229201 
L 206.357512 254.286517 
L 206.784689 270.276853 
L 207.211866 276.154902 
L 207.639043 256.615638 
L 208.06622 256.148299 
L 208.493397 272.998617 
L 208.920574 233.705475 
L 209.347751 263.003534 
L 209.774928 275.584009 
L 210.202105 256.433895 
L 210.629282 249.363248 
L 211.056459 219.661936 
L 211.483636 245.81157 
L 211.910813 238.899535 
L 212.33799 243.526714 
L 212.765167 244.618028 
L 213.192344 238.560862 
L 213.619522 225.786937 
L 214.046699 207.049754 
L 214.473876 218.675077 
L 214.901053 214.446111 
L 215.32823 244.272509 
L 215.755407 213.816873 
L 216.182584 222.083612 
L 216.609761 242.410829 
L 217.036938 215.160279 
L 217.464115 222.603908 
L 217.891292 200.271948 
L 218.318469 228.019027 
L 218.745646 222.577836 
L 219.172823 228.023119 
L 220.027177 209.129409 
L 220.454354 223.152682 
L 220.881531 202.316627 
L 221.308708 228.281723 
L 221.735885 225.838813 
L 222.163062 193.296017 
L 222.590239 225.006639 
L 223.017416 206.440603 
L 223.444593 216.783579 
L 223.87177 206.695513 
L 224.298947 190.371207 
L 224.726124 192.072139 
L 225.580478 243.347237 
L 226.007656 182.001683 
L 226.434833 206.52866 
L 226.86201 209.044917 
L 227.289187 217.223068 
L 227.716364 211.514037 
L 228.143541 221.436706 
L 228.570718 215.116805 
L 229.425072 241.148863 
L 229.852249 212.099942 
L 230.279426 206.817883 
L 230.706603 232.228804 
L 231.13378 246.253718 
L 231.560957 223.520173 
L 231.988134 234.351106 
L 232.415311 258.240129 
L 232.842488 237.790066 
L 233.269665 248.110183 
L 233.696842 246.534392 
L 234.124019 259.343679 
L 234.551196 223.24166 
L 234.978373 253.251919 
L 235.40555 272.153889 
L 235.832727 251.188547 
L 236.259904 252.782983 
L 236.687081 271.46358 
L 237.114258 298.655061 
L 237.541435 272.028477 
L 237.968612 258.876358 
L 238.395789 269.618751 
L 238.822967 272.697583 
L 239.250144 266.738066 
L 239.677321 291.98875 
L 240.104498 264.965687 
L 240.531675 281.84217 
L 240.958852 275.172705 
L 241.386029 273.493423 
L 241.813206 286.54732 
L 242.240383 303.360117 
L 242.66756 279.373221 
L 243.094737 322.85757 
L 243.521914 306.409259 
L 243.949091 305.047685 
L 244.376268 306.231874 
L 244.803445 293.142115 
L 245.230622 306.859107 
L 245.657799 305.540504 
L 246.084976 313.862415 
L 246.512153 318.248063 
L 246.93933 308.028054 
L 247.366507 304.12819 
L 247.793684 352.034083 
L 248.220861 315.240271 
L 248.648038 319.531667 
L 249.075215 331.550406 
L 249.502392 315.262234 
L 249.929569 334.120031 
L 250.356746 334.147807 
L 250.783923 320.638831 
L 251.2111 310.662945 
L 251.638278 330.574881 
L 252.492632 351.43373 
L 252.919809 341.124311 
L 253.346986 349.738285 
L 254.20134 333.56443 
L 254.628517 350.136295 
L 255.055694 305.035433 
L 255.482871 337.568531 
L 255.910048 325.027187 
L 256.337225 369.36 
L 256.764402 329.942635 
L 257.191579 356.397961 
L 257.618756 327.066978 
L 258.045933 333.395762 
L 258.47311 343.302625 
L 258.900287 320.196751 
L 259.327464 345.716226 
L 259.754641 343.300253 
L 260.181818 347.800525 
L 260.608995 342.43082 
L 261.036172 320.356408 
L 261.463349 325.743032 
L 261.890526 316.990299 
L 262.317703 333.651889 
L 262.74488 322.186813 
L 263.172057 322.288929 
L 263.599234 342.254733 
L 264.026411 298.911437 
L 264.453589 318.370825 
L 264.880766 308.246109 
L 265.307943 303.774123 
L 265.73512 314.731828 
L 266.162297 315.888435 
L 266.589474 298.113244 
L 267.016651 321.005468 
L 267.443828 279.51763 
L 267.871005 307.666255 
L 268.298182 278.793772 
L 268.725359 278.143084 
L 269.152536 294.14441 
L 269.579713 285.289789 
L 270.00689 303.323934 
L 270.434067 283.206067 
L 270.861244 271.191772 
L 271.288421 280.749608 
L 271.715598 285.213208 
L 272.142775 285.102247 
L 272.569952 274.326282 
L 272.997129 257.250795 
L 273.424306 274.647803 
L 273.851483 267.196496 
L 274.27866 279.673132 
L 274.705837 253.750896 
L 275.133014 240.486342 
L 275.560191 235.339066 
L 275.987368 241.516966 
L 276.414545 273.688049 
L 276.841722 240.573533 
L 277.2689 238.330969 
L 277.696077 246.290594 
L 278.123254 236.999751 
L 278.550431 247.966982 
L 278.977608 225.552971 
L 279.404785 236.259276 
L 279.831962 250.079547 
L 280.259139 232.26955 
L 280.686316 207.647312 
L 281.113493 227.58506 
L 281.54067 211.724627 
L 281.967847 207.0037 
L 282.395024 217.352649 
L 282.822201 220.188699 
L 283.249378 220.781569 
L 283.676555 202.697914 
L 284.103732 224.547614 
L 284.530909 206.11821 
L 284.958086 211.714106 
L 285.385263 236.075756 
L 285.81244 223.812399 
L 286.239617 192.597485 
L 286.666794 205.994346 
L 287.521148 177.410909 
L 287.948325 182.117258 
L 288.375502 191.895181 
L 288.802679 195.302414 
L 289.229856 202.387547 
L 289.657033 179.186021 
L 290.084211 191.786249 
L 290.511388 214.714391 
L 290.938565 201.59401 
L 291.365742 224.649341 
L 291.792919 202.587802 
L 292.220096 234.073371 
L 292.647273 183.913384 
L 293.07445 209.802313 
L 293.501627 207.843452 
L 293.928804 205.270931 
L 294.355981 196.042581 
L 294.783158 196.190471 
L 295.210335 198.723754 
L 295.637512 214.710974 
L 296.064689 226.254604 
L 296.491866 214.993724 
L 296.919043 207.814307 
L 297.34622 223.644955 
L 297.773397 215.497593 
L 298.200574 231.46295 
L 298.627751 218.218961 
L 299.054928 218.306175 
L 299.482105 223.806525 
L 299.909282 226.045759 
L 300.336459 203.118247 
L 300.763636 218.231249 
L 301.190813 215.896163 
L 301.61799 244.527012 
L 302.472344 222.211173 
L 302.899522 240.30484 
L 303.326699 269.610351 
L 303.753876 239.979621 
L 304.181053 271.646271 
L 304.60823 259.976426 
L 305.035407 234.823507 
L 305.462584 246.567604 
L 305.889761 242.965576 
L 306.316938 255.729214 
L 306.744115 263.722418 
L 307.171292 276.871316 
L 307.598469 246.812703 
L 308.025646 269.468773 
L 308.452823 281.897422 
L 308.88 263.956916 
L 309.307177 263.779674 
L 309.734354 255.642054 
L 310.161531 290.532839 
L 310.588708 290.235617 
L 311.015885 292.982856 
L 312.297416 298.42248 
L 312.724593 278.126106 
L 313.15177 308.054646 
L 313.578947 306.167066 
L 314.006124 294.733038 
L 314.433301 290.606476 
L 314.860478 317.136999 
L 315.287656 315.570841 
L 315.714833 303.973879 
L 316.14201 299.271208 
L 316.996364 334.184142 
L 317.423541 294.929155 
L 317.850718 299.851909 
L 318.277895 328.954586 
L 318.705072 321.771144 
L 319.132249 344.837123 
L 319.559426 315.624133 
L 319.986603 302.998723 
L 320.41378 345.940495 
L 320.840957 335.512542 
L 321.268134 334.311296 
L 321.695311 335.319717 
L 322.122488 353.242015 
L 322.549665 320.656016 
L 322.976842 347.19471 
L 323.404019 327.722368 
L 323.831196 319.671066 
L 324.258373 329.789161 
L 324.68555 315.40118 
L 325.112727 326.948436 
L 325.539904 334.55428 
L 325.967081 317.206873 
L 326.394258 330.546924 
L 326.821435 301.159003 
L 327.248612 323.510835 
L 327.675789 311.238763 
L 328.102967 318.563957 
L 328.530144 359.064525 
L 328.957321 336.50196 
L 329.384498 322.922732 
L 329.811675 312.897096 
L 330.238852 344.807203 
L 330.666029 300.319974 
L 331.093206 318.914403 
L 331.520383 319.04034 
L 331.94756 327.571982 
L 332.374737 324.296724 
L 332.801914 302.680374 
L 333.229091 294.703996 
L 333.656268 326.349319 
L 334.083445 309.93444 
L 334.510622 287.666462 
L 334.937799 298.139307 
L 335.364976 261.775867 
L 335.792153 271.247514 
L 336.646507 282.295143 
L 337.073684 276.152942 
L 337.500861 286.313922 
L 337.928038 266.3664 
L 338.355215 252.639948 
L 338.782392 255.089315 
L 339.209569 276.972734 
L 339.636746 284.692215 
L 340.063923 262.380163 
L 340.4911 252.495682 
L 340.918278 237.946611 
L 341.345455 269.826116 
L 341.772632 245.263195 
L 342.199809 244.235994 
L 342.626986 229.0705 
L 343.054163 242.227471 
L 343.48134 243.833557 
L 343.908517 251.434965 
L 344.335694 240.666269 
L 344.762871 236.082149 
L 345.190048 198.37087 
L 345.617225 194.639753 
L 346.044402 226.092398 
L 346.898756 244.797826 
L 347.325933 210.261853 
L 347.75311 228.868736 
L 348.180287 182.94852 
L 348.607464 221.986703 
L 349.034641 207.054342 
L 349.461818 157.148517 
L 349.888995 219.093313 
L 350.316172 198.950676 
L 350.743349 215.606277 
L 351.170526 195.139227 
L 351.597703 209.459057 
L 352.02488 195.707215 
L 352.452057 199.228889 
L 352.879234 209.48815 
L 353.733589 179.101284 
L 354.160766 170.347559 
L 354.587943 207.982484 
L 355.442297 173.77034 
L 355.869474 202.727385 
L 356.296651 220.644193 
L 356.723828 199.66997 
L 357.151005 199.862769 
L 357.578182 186.595187 
L 358.005359 192.446003 
L 358.432536 184.312495 
L 358.859713 193.003354 
L 359.28689 182.989656 
L 359.714067 193.009282 
L 360.141244 173.352697 
L 360.568421 198.977595 
L 360.995598 186.375053 
L 361.422775 202.450752 
L 361.849952 189.206755 
L 362.277129 193.55041 
L 362.704306 215.900958 
L 363.55866 181.272997 
L 364.413014 197.605212 
L 364.840191 216.496647 
L 365.267368 187.521951 
L 365.694545 203.390669 
L 366.121722 212.085569 
L 366.5489 186.812958 
L 366.976077 220.042333 
L 367.830431 197.542293 
L 368.257608 208.499501 
L 368.684785 222.493122 
L 369.111962 226.19271 
L 369.539139 218.464951 
L 369.966316 218.761828 
L 370.393493 227.572464 
L 370.82067 213.145321 
L 371.247847 233.563123 
L 371.675024 244.286576 
L 372.102201 230.756725 
L 372.529378 268.823608 
L 372.956555 237.745573 
L 373.383732 238.958339 
L 374.238086 265.064559 
L 374.665263 258.288768 
L 375.09244 235.652619 
L 375.519617 267.974396 
L 375.946794 291.139288 
L 376.373971 252.916248 
L 376.801148 272.48326 
L 377.228325 275.114533 
L 377.655502 286.729759 
L 378.082679 273.706464 
L 378.509856 266.729411 
L 378.937033 285.812684 
L 379.364211 288.387734 
L 379.791388 268.57393 
L 380.218565 288.232075 
L 380.645742 289.266135 
L 381.072919 297.419442 
L 381.500096 279.674606 
L 381.927273 306.229339 
L 382.35445 284.235383 
L 382.781627 286.641859 
L 383.208804 304.92192 
L 383.635981 289.542443 
L 384.063158 289.355349 
L 384.490335 296.211104 
L 384.917512 278.853208 
L 385.344689 331.912371 
L 385.771866 322.828113 
L 386.199043 326.737113 
L 387.053397 290.3763 
L 387.480574 290.041313 
L 387.907751 306.243849 
L 388.334928 301.854214 
L 388.762105 315.699458 
L 389.189282 308.205546 
L 389.616459 309.771003 
L 390.043636 324.778136 
L 390.470813 318.863876 
L 390.89799 316.854862 
L 391.325167 296.968889 
L 391.752344 328.328301 
L 392.179522 342.02804 
L 392.606699 304.264703 
L 393.033876 324.329913 
L 393.461053 318.812674 
L 393.88823 300.731369 
L 394.315407 321.566201 
L 394.742584 315.196235 
L 395.169761 290.290547 
L 395.596938 301.827848 
L 396.024115 300.454258 
L 396.451292 307.969421 
L 396.878469 319.55654 
L 397.305646 322.749626 
L 397.732823 304.672952 
L 398.16 274.164383 
L 398.587177 295.514258 
L 399.014354 294.440467 
L 399.441531 290.361917 
L 399.868708 297.69882 
L 400.295885 308.797616 
L 400.723062 253.838717 
L 401.150239 291.852537 
L 401.577416 287.983616 
L 402.004593 305.049328 
L 402.43177 282.657212 
L 403.286124 277.872407 
L 403.713301 295.222539 
L 404.140478 246.349118 
L 404.567656 244.031947 
L 404.994833 255.336393 
L 405.42201 275.901663 
L 405.849187 249.6799 
L 406.276364 259.441989 
L 406.703541 257.674521 
L 407.130718 233.123395 
L 407.557895 263.979955 
L 407.985072 251.940383 
L 408.412249 252.04775 
L 408.839426 239.566838 
L 409.266603 257.487919 
L 409.69378 243.489258 
L 410.120957 222.377394 
L 410.548134 222.94433 
L 410.975311 238.948486 
L 411.402488 216.434045 
L 411.829665 252.637526 
L 412.256842 222.942536 
L 412.684019 206.758542 
L 413.111196 222.076998 
L 413.538373 211.574271 
L 413.96555 229.390202 
L 414.392727 195.411781 
L 414.819904 228.144546 
L 415.247081 206.146534 
L 415.674258 203.128077 
L 416.101435 196.965737 
L 416.528612 206.446511 
L 416.955789 170.1228 
L 417.382967 210.562476 
L 417.810144 186.967902 
L 418.237321 226.72033 
L 418.664498 186.979275 
L 419.091675 178.906194 
L 419.518852 198.180659 
L 419.946029 173.661565 
L 420.373206 177.295232 
L 420.800383 167.807634 
L 421.22756 190.38786 
L 421.654737 191.11888 
L 422.081914 200.688827 
L 422.509091 181.180673 
L 422.936268 193.750188 
L 423.363445 166.955363 
L 423.790622 174.553958 
L 424.217799 146.783126 
L 424.644976 190.006793 
L 425.072153 159.583013 
L 425.49933 181.77042 
L 425.926507 193.950591 
L 426.353684 167.862676 
L 426.780861 194.2227 
L 427.635215 186.132645 
L 428.062392 174.540054 
L 428.489569 190.982625 
L 428.916746 164.901101 
L 429.343923 195.380807 
L 429.7711 178.069952 
L 430.198278 180.167643 
L 430.625455 197.082495 
L 431.052632 190.148145 
L 431.479809 194.517134 
L 431.906986 175.069072 
L 432.334163 168.919734 
L 432.76134 204.269077 
L 433.188517 180.451381 
L 433.615694 195.323802 
L 434.042871 221.756329 
L 434.897225 194.265228 
L 435.324402 200.461736 
L 435.751579 236.175796 
L 436.178756 199.188536 
L 436.605933 200.485553 
L 437.03311 215.24534 
L 437.460287 222.832842 
L 437.887464 190.488046 
L 438.314641 219.663488 
L 438.741818 221.149981 
L 439.168995 238.039606 
L 440.023349 248.296939 
L 440.450526 236.579627 
L 440.877703 216.033843 
L 441.30488 213.523913 
L 442.159234 224.630308 
L 442.586411 247.114804 
L 443.013589 262.486377 
L 443.440766 253.425795 
L 443.867943 283.009061 
L 444.722297 235.221856 
L 445.149474 257.522623 
L 445.576651 247.446863 
L 446.003828 257.714633 
L 446.431005 276.522935 
L 446.858182 246.123761 
L 447.285359 272.019097 
L 447.712536 285.868249 
L 448.139713 274.457212 
L 448.56689 297.166255 
L 448.994067 268.303343 
L 449.421244 274.968855 
L 449.848421 287.973132 
L 450.275598 291.531649 
L 450.702775 274.803485 
L 451.129952 302.395376 
L 451.557129 302.964974 
L 451.984306 286.208076 
L 452.411483 298.981139 
L 452.83866 282.459068 
L 453.265837 298.269837 
L 453.693014 281.341508 
L 454.120191 291.459329 
L 454.547368 327.955067 
L 454.974545 317.008404 
L 455.401722 283.805414 
L 455.8289 292.133412 
L 456.256077 314.182194 
L 456.683254 319.538033 
L 457.110431 289.017924 
L 457.537608 313.185931 
L 457.964785 279.419511 
L 458.391962 279.83337 
L 458.819139 321.591044 
L 459.246316 313.502325 
L 459.673493 318.4565 
L 460.10067 293.182939 
L 460.527847 318.070349 
L 460.955024 327.111004 
L 461.382201 273.788532 
L 461.809378 286.13935 
L 462.236555 287.669397 
L 462.663732 305.858847 
L 463.518086 286.877923 
L 463.945263 310.221059 
L 464.37244 293.812696 
L 464.799617 288.427429 
L 465.226794 267.169448 
L 465.653971 279.125498 
L 466.081148 269.070103 
L 466.935502 296.378936 
L 467.362679 284.366741 
L 467.789856 299.490103 
L 468.217033 263.721778 
L 468.644211 255.195637 
L 469.071388 272.12376 
L 469.498565 281.71208 
L 469.925742 252.515684 
L 470.352919 262.380456 
L 470.780096 266.7209 
L 471.207273 244.618574 
L 471.63445 266.483537 
L 472.061627 239.129615 
L 472.488804 262.325647 
L 472.915981 243.663188 
L 473.343158 234.494431 
L 473.770335 260.666793 
L 474.197512 235.464715 
L 474.624689 239.341435 
L 475.051866 226.388657 
L 475.479043 242.63439 
L 475.90622 230.790026 
L 476.333397 208.994484 
L 476.760574 222.004913 
L 477.187751 210.795691 
L 477.614928 221.635593 
L 478.042105 229.441588 
L 478.469282 213.579032 
L 479.323636 241.891931 
L 479.750813 190.507255 
L 480.17799 217.254877 
L 480.605167 224.375647 
L 481.032344 185.368542 
L 481.459522 196.066904 
L 481.886699 201.382913 
L 482.313876 193.667398 
L 482.741053 194.701079 
L 483.16823 174.13447 
L 483.595407 175.577115 
L 484.022584 205.434418 
L 484.449761 176.561734 
L 484.876938 169.901535 
L 485.304115 168.925508 
L 485.731292 207.382748 
L 486.585646 147.229028 
L 487.012823 161.186625 
L 487.44 192.39909 
L 487.867177 190.614068 
L 488.294354 161.572273 
L 488.721531 169.201717 
L 489.148708 153.580513 
L 489.575885 161.441953 
L 490.003062 163.510023 
L 490.430239 161.59031 
L 490.857416 161.332454 
L 491.284593 179.575951 
L 491.71177 132.36689 
L 492.138947 180.98388 
L 492.566124 162.831145 
L 492.993301 169.71652 
L 493.420478 139.463242 
L 493.847656 149.949284 
L 494.274833 170.740467 
L 495.129187 149.352353 
L 495.556364 136.137417 
L 495.983541 161.995035 
L 496.410718 180.310089 
L 496.837895 180.518349 
L 497.265072 142.819963 
L 497.692249 196.850714 
L 498.119426 131.62456 
L 498.546603 175.993068 
L 498.97378 179.933939 
L 499.400957 173.520918 
L 499.828134 165.06627 
L 500.255311 174.932295 
L 500.682488 205.995723 
L 501.109665 177.88275 
L 501.536842 178.540136 
L 501.964019 177.810969 
L 502.818373 221.27505 
L 503.24555 196.904646 
L 503.672727 207.167586 
L 504.099904 207.131203 
L 504.527081 211.893413 
L 504.954258 207.055147 
L 505.381435 208.339576 
L 505.808612 196.425086 
L 506.235789 196.43535 
L 506.662967 222.039963 
L 507.090144 218.271982 
L 507.517321 212.130651 
L 507.944498 201.24448 
L 508.798852 246.584167 
L 509.226029 224.134158 
L 509.653206 231.274511 
L 510.080383 209.326038 
L 510.50756 230.434224 
L 510.934737 245.529306 
L 511.361914 245.692097 
L 511.789091 249.066188 
L 512.216268 242.595199 
L 512.643445 245.184788 
L 513.070622 238.025699 
L 514.352153 269.149994 
L 514.77933 250.974394 
L 515.206507 262.21786 
L 515.633684 261.180671 
L 516.060861 251.322596 
L 516.488038 244.933471 
L 516.915215 281.978777 
L 517.342392 250.168486 
L 517.769569 284.540201 
L 518.196746 271.577046 
L 518.623923 273.799977 
L 519.0511 281.84551 
L 519.478278 261.657452 
L 519.905455 66.96 
L 520.332632 273.87989 
L 520.759809 283.835006 
L 521.186986 296.866368 
L 521.614163 270.059352 
L 522.04134 313.826236 
L 522.468517 294.396251 
L 522.895694 308.292843 
L 523.322871 286.40978 
L 523.750048 286.02542 
L 524.177225 304.384642 
L 524.604402 281.749406 
L 525.031579 303.798286 
L 525.458756 281.958092 
L 525.885933 287.421737 
L 526.31311 281.122237 
L 526.740287 302.356464 
L 527.167464 288.628896 
L 527.594641 295.442754 
L 528.021818 307.960315 
L 528.876172 264.533477 
L 529.303349 295.102225 
L 529.730526 288.347214 
L 530.157703 275.775489 
L 530.58488 283.105969 
L 531.012057 257.132492 
L 531.439234 271.446452 
L 531.866411 249.477974 
L 532.293589 273.5442 
L 532.720766 291.172384 
L 533.147943 269.313344 
L 533.57512 284.996262 
L 534.002297 284.213442 
L 534.429474 271.679277 
L 534.856651 255.104153 
L 535.283828 260.678435 
L 535.711005 252.435178 
L 536.138182 248.909359 
L 536.565359 260.735484 
L 536.992536 287.329171 
L 537.419713 243.464623 
L 537.84689 223.2165 
L 538.274067 248.104518 
L 538.701244 263.903625 
L 539.128421 248.528306 
L 539.555598 253.275384 
L 540.409952 227.083157 
L 540.837129 221.925238 
L 541.264306 227.402948 
L 541.691483 239.841097 
L 542.11866 214.445191 
L 542.545837 204.762866 
L 542.973014 190.298618 
L 543.400191 223.161483 
L 544.254545 195.810442 
L 544.681722 210.086328 
L 545.1089 199.073229 
L 545.536077 200.425145 
L 545.963254 202.302028 
L 546.390431 195.755823 
L 546.817608 182.847004 
L 547.244785 187.513357 
L 547.671962 196.362776 
L 548.099139 216.90648 
L 548.526316 195.764742 
L 548.953493 183.361092 
L 549.38067 213.418477 
L 549.807847 149.901526 
L 550.235024 195.715146 
L 550.662201 189.360264 
L 551.089378 153.370671 
L 551.516555 198.721047 
L 551.943732 158.856078 
L 552.370909 171.103237 
L 552.798086 159.012565 
L 553.225263 151.904829 
L 553.65244 174.179476 
L 554.079617 169.448971 
L 554.506794 197.800471 
L 554.933971 170.128578 
L 555.361148 151.561792 
L 555.788325 148.867915 
L 556.215502 128.154047 
L 556.642679 152.730841 
L 557.069856 146.783514 
L 557.497033 151.15784 
L 557.924211 157.876427 
L 558.351388 141.389587 
L 559.205742 148.820045 
L 559.632919 160.931511 
L 560.487273 140.254347 
L 560.91445 141.791155 
L 561.341627 157.104807 
L 561.768804 159.90906 
L 562.195981 145.07088 
L 562.623158 138.711585 
L 563.050335 151.44087 
L 563.477512 157.870912 
L 563.904689 166.125848 
L 564.331866 161.136731 
L 564.759043 176.020004 
L 565.18622 167.019197 
L 565.613397 144.534191 
L 566.040574 146.201454 
L 566.467751 173.372148 
L 566.894928 160.888215 
L 567.322105 164.346641 
L 567.749282 188.515599 
L 568.176459 158.219956 
L 568.603636 195.395365 
L 569.030813 188.692768 
L 569.45799 161.576166 
L 569.885167 183.599047 
L 570.312344 181.515293 
L 570.739522 201.92711 
L 571.166699 201.947222 
L 571.593876 180.866882 
L 572.875407 209.852053 
L 573.302584 209.235799 
L 573.729761 171.083652 
L 574.156938 204.23729 
L 574.584115 192.500948 
L 575.438469 197.766083 
L 575.865646 206.422403 
L 576.292823 229.075473 
L 576.72 228.515903 
L 577.147177 208.266735 
L 577.574354 237.561892 
L 578.001531 216.323622 
L 578.428708 232.642094 
L 578.855885 233.427609 
L 579.283062 241.01667 
L 579.710239 236.250012 
L 580.137416 224.346554 
L 580.564593 232.260917 
L 580.99177 243.543846 
L 581.418947 231.586368 
L 581.846124 223.686494 
L 582.273301 247.489379 
L 582.700478 243.494064 
L 583.127656 248.118987 
L 583.554833 266.479847 
L 583.98201 267.819643 
L 584.409187 232.842152 
L 584.836364 248.176634 
L 585.263541 251.77372 
L 585.690718 261.198568 
L 586.117895 258.451883 
L 586.545072 264.329195 
L 586.972249 267.220238 
L 587.399426 266.245776 
L 587.826603 283.536538 
L 588.25378 240.485849 
L 588.680957 262.328532 
L 589.108134 276.992679 
L 589.535311 258.912098 
L 589.962488 283.585262 
L 590.389665 253.965127 
L 591.244019 307.371912 
L 591.671196 259.970332 
L 592.098373 263.27049 
L 592.52555 288.184016 
L 592.952727 296.514512 
L 593.379904 301.990614 
L 593.807081 281.556201 
L 594.234258 301.614625 
L 595.088612 274.917089 
L 595.515789 265.389663 
L 595.942967 286.461636 
L 596.370144 276.669614 
L 596.797321 270.897172 
L 597.224498 250.946775 
L 597.651675 284.607933 
L 598.078852 291.821712 
L 598.506029 293.693685 
L 598.933206 261.198463 
L 599.360383 267.74147 
L 599.78756 255.4142 
L 600.214737 265.63195 
L 600.641914 256.999783 
L 601.069091 257.399634 
L 601.496268 258.131828 
L 601.923445 264.568779 
L 602.350622 238.100354 
L 602.777799 257.636929 
L 603.204976 241.56587 
L 603.632153 245.852133 
L 604.05933 222.595349 
L 604.913684 245.335646 
L 605.340861 238.625054 
L 605.768038 237.635114 
L 606.195215 260.587084 
L 606.622392 208.878462 
L 607.049569 214.481139 
L 607.476746 235.576653 
L 607.903923 218.008534 
L 608.3311 217.131364 
L 608.758278 232.246465 
L 609.185455 195.505186 
L 609.612632 215.309709 
L 610.039809 206.965269 
L 610.466986 201.349518 
L 610.894163 216.7498 
L 611.32134 215.197029 
L 611.748517 199.02337 
L 612.175694 188.211345 
L 612.602871 192.033201 
L 613.030048 181.166558 
L 613.457225 183.336433 
L 613.884402 177.99788 
L 614.311579 200.691341 
L 614.738756 171.181253 
L 615.165933 187.713668 
L 616.020287 173.992904 
L 616.447464 191.66557 
L 616.874641 169.304735 
L 617.301818 171.499562 
L 617.728995 172.9597 
L 618.156172 168.748482 
L 618.583349 143.38905 
L 619.010526 173.929893 
L 619.437703 158.534462 
L 619.86488 186.019093 
L 620.292057 161.005115 
L 620.719234 157.150637 
L 621.146411 129.122223 
L 621.573589 160.167452 
L 622.000766 157.6609 
L 622.427943 163.228667 
L 622.85512 141.62022 
L 623.282297 127.932193 
L 623.709474 157.49103 
L 624.136651 146.616686 
L 624.563828 122.626144 
L 624.991005 148.574679 
L 625.418182 130.267576 
L 625.845359 133.66968 
L 626.272536 155.319739 
L 626.699713 122.382469 
L 627.12689 127.732509 
L 627.554067 144.363814 
L 627.981244 149.849408 
L 628.408421 143.387783 
L 628.835598 128.071111 
L 629.689952 163.858197 
L 630.117129 142.021105 
L 630.544306 130.875223 
L 630.971483 156.738078 
L 631.39866 145.70934 
L 631.825837 159.490796 
L 632.253014 143.237335 
L 632.680191 147.676958 
L 633.107368 147.693836 
L 633.534545 156.716339 
L 633.961722 159.321034 
L 634.3889 140.380305 
L 634.816077 151.962182 
L 635.243254 157.473431 
L 635.670431 198.521587 
L 636.524785 150.774257 
L 636.951962 167.957231 
L 637.379139 180.429053 
L 637.806316 172.593774 
L 638.233493 173.962428 
L 638.66067 177.843874 
L 639.515024 156.260873 
L 639.942201 165.558759 
L 640.369378 164.63897 
L 640.796555 187.539474 
L 641.223732 174.802795 
L 641.650909 200.995298 
L 642.078086 192.61792 
L 642.505263 165.028071 
L 642.93244 196.11076 
L 643.786794 208.692609 
L 644.641148 178.977489 
L 645.068325 203.527738 
L 645.495502 214.830281 
L 645.922679 187.100076 
L 646.349856 226.62979 
L 646.777033 204.363994 
L 647.204211 226.985594 
L 647.631388 237.222467 
L 648.058565 210.585123 
L 648.485742 252.101193 
L 648.912919 235.088122 
L 649.340096 233.172112 
L 649.767273 241.341416 
L 650.19445 259.025089 
L 650.621627 248.217965 
L 651.048804 262.148912 
L 651.475981 219.004198 
L 651.903158 269.949254 
L 652.330335 275.032191 
L 652.757512 240.444646 
L 653.184689 239.420798 
L 653.611866 255.347693 
L 654.039043 257.021102 
L 654.46622 246.3826 
L 654.893397 239.004209 
L 655.320574 279.040504 
L 655.747751 242.669334 
L 656.174928 258.125862 
L 656.602105 266.052779 
L 657.029282 246.129477 
L 657.456459 251.134973 
L 657.883636 247.433618 
L 658.310813 268.365812 
L 658.73799 255.002125 
L 659.165167 261.607494 
L 659.592344 272.419786 
L 660.019522 243.086095 
L 660.446699 263.836233 
L 660.873876 266.594499 
L 661.301053 258.870343 
L 661.72823 260.41538 
L 662.155407 274.256585 
L 662.582584 265.321076 
L 663.009761 230.251362 
L 663.436938 264.315566 
L 663.864115 266.432871 
L 664.291292 252.181347 
L 664.718469 255.512035 
L 665.145646 266.614962 
L 665.572823 272.49285 
L 666 246.176998 
L 666.427177 254.258437 
L 666.854354 248.081071 
L 667.281531 256.559639 
L 667.708708 272.566555 
L 668.135885 248.51786 
L 668.563062 216.601865 
L 668.990239 264.675705 
L 669.417416 256.525442 
L 669.844593 259.04278 
L 670.27177 244.342205 
L 670.698947 219.514651 
L 671.126124 237.179542 
L 671.553301 236.205381 
L 671.980478 247.245911 
L 672.834833 212.235112 
L 673.26201 193.843031 
L 673.689187 203.557236 
L 674.116364 229.304663 
L 674.543541 221.925681 
L 674.970718 204.871511 
L 675.397895 210.203039 
L 675.825072 203.803197 
L 676.252249 221.676796 
L 676.679426 207.458941 
L 677.106603 211.202306 
L 677.53378 208.48549 
L 678.388134 196.334282 
L 678.815311 188.293428 
L 679.242488 177.281475 
L 679.669665 189.393174 
L 680.096842 191.217065 
L 680.524019 156.479171 
L 680.951196 161.915303 
L 681.378373 163.165205 
L 681.80555 147.589717 
L 682.232727 179.791876 
L 682.659904 138.058708 
L 683.514258 155.833544 
L 683.941435 149.392216 
L 684.368612 154.42662 
L 684.795789 154.454813 
L 685.222967 171.321048 
L 685.650144 139.178123 
L 686.077321 119.027252 
L 686.504498 117.786551 
L 686.931675 140.843012 
L 687.358852 142.681172 
L 687.786029 137.242451 
L 688.213206 123.147954 
L 688.640383 117.345885 
L 689.06756 129.800916 
L 689.494737 119.31978 
L 689.921914 132.896572 
L 690.776268 115.009535 
L 691.203445 82.253743 
L 691.630622 129.327228 
L 692.057799 136.565632 
L 692.484976 121.495601 
L 692.912153 132.021982 
L 693.33933 118.106229 
L 693.766507 121.611782 
L 694.193684 108.766096 
L 694.620861 138.187519 
L 695.048038 141.385926 
L 695.475215 105.537258 
L 696.329569 138.380474 
L 696.756746 140.775946 
L 697.183923 134.549941 
L 697.6111 120.367714 
L 698.038278 135.604713 
L 698.465455 112.205153 
L 698.892632 127.385628 
L 699.319809 129.045381 
L 700.174163 137.805398 
L 700.60134 137.439324 
L 701.028517 121.67412 
L 701.455694 155.530316 
L 701.882871 125.652804 
L 702.310048 145.956836 
L 702.737225 133.620683 
L 703.164402 145.723933 
L 703.591579 164.310593 
L 704.018756 144.317837 
L 704.445933 159.123736 
L 704.87311 138.352617 
L 705.300287 165.82101 
L 705.727464 180.479602 
L 706.154641 170.629985 
L 706.581818 169.282711 
L 707.008995 174.93103 
L 707.436172 169.697657 
L 707.863349 176.771956 
L 708.290526 176.846464 
L 708.717703 169.763813 
L 709.14488 191.632777 
L 709.572057 169.227587 
L 709.999234 181.682073 
L 710.426411 184.720319 
L 710.853589 213.21733 
L 711.280766 193.304986 
L 711.707943 199.19426 
L 712.13512 183.585249 
L 712.562297 179.114151 
L 712.989474 183.749457 
L 713.416651 216.70608 
L 713.843828 215.120007 
L 714.271005 208.461 
L 714.698182 223.518204 
L 715.125359 233.024445 
L 715.552536 204.360444 
L 715.979713 216.104591 
L 716.40689 211.34063 
L 716.834067 237.18344 
L 717.261244 228.215779 
L 717.688421 241.154347 
L 718.115598 238.825571 
L 718.542775 227.137779 
L 718.969952 242.655732 
L 719.397129 246.876174 
L 719.824306 252.765401 
L 720.251483 256.184001 
L 720.67866 250.453099 
L 721.105837 218.763891 
L 721.533014 250.877745 
L 721.960191 258.239138 
L 722.387368 263.369153 
L 722.814545 248.342193 
L 723.241722 252.652699 
L 723.6689 245.332748 
L 724.096077 253.230449 
L 724.523254 239.174557 
L 724.950431 241.851844 
L 725.377608 238.156371 
L 725.804785 249.25392 
L 726.231962 238.415195 
L 726.659139 254.211449 
L 727.086316 241.365308 
L 727.513493 255.653672 
L 728.367847 269.390642 
L 728.795024 262.582736 
L 729.222201 262.814179 
L 729.649378 245.243179 
L 730.503732 259.794226 
L 730.930909 262.566342 
L 731.358086 230.491087 
L 731.785263 252.271804 
L 732.21244 264.38903 
L 732.639617 252.662907 
L 733.066794 244.671795 
L 733.493971 233.778339 
L 733.921148 244.290577 
L 734.348325 240.253969 
L 734.775502 253.611595 
L 735.202679 228.141696 
L 735.629856 235.430319 
L 736.484211 212.932891 
L 736.911388 228.693117 
L 737.765742 236.78702 
L 738.192919 232.120949 
L 738.620096 234.256843 
L 739.047273 215.281227 
L 739.47445 236.743771 
L 739.901627 237.92294 
L 740.328804 221.471527 
L 740.755981 196.237987 
L 741.183158 206.149946 
L 741.610335 211.5585 
L 742.037512 193.836786 
L 742.464689 204.422185 
L 743.319043 193.531988 
L 743.74622 177.638112 
L 744.173397 172.262437 
L 744.600574 169.651781 
L 745.027751 170.842014 
L 745.027751 170.842014 
" style="fill:none;stroke:#1f77b4;stroke-linecap:square;stroke-width:1.5;"/>
   </g>
   <g id="line2d_17">
    <path clip-path="url(#pfba742de83)" d="M 747.163636 384.48 
L 747.163636 51.84 
" style="fill:none;stroke:#808080;stroke-linecap:square;"/>
   </g>
   <g id="patch_39">
    <path d="M 108 384.48 
L 108 51.84 
" style="fill:none;stroke:#000000;stroke-linecap:square;stroke-linejoin:miter;stroke-width:0.8;"/>
   </g>
   <g id="patch_40">
    <path d="M 777.6 384.48 
L 777.6 51.84 
" style="fill:none;stroke:#000000;stroke-linecap:square;stroke-linejoin:miter;stroke-width:0.8;"/>
   </g>
   <g id="patch_41">
    <path d="M 108 384.48 
L 777.6 384.48 
" style="fill:none;stroke:#000000;stroke-linecap:square;stroke-linejoin:miter;stroke-width:0.8;"/>
   </g>
   <g id="patch_42">
    <path d="M 108 51.84 
L 777.6 51.84 
" style="fill:none;stroke:#000000;stroke-linecap:square;stroke-linejoin:miter;stroke-width:0.8;"/>
   </g>
   <g id="text_18">
    <!-- synthetic_87.csv -->
    <defs>
     <path d="M 32.171875 -5.078125 
Q 28.375 -14.84375 24.75 -17.8125 
Q 21.140625 -20.796875 15.09375 -20.796875 
L 7.90625 -20.796875 
L 7.90625 -13.28125 
L 13.1875 -13.28125 
Q 16.890625 -13.28125 18.9375 -11.515625 
Q 21 -9.765625 23.484375 -3.21875 
L 25.09375 0.875 
L 2.984375 54.6875 
L 12.5 54.6875 
L 29.59375 11.921875 
L 46.6875 54.6875 
L 56.203125 54.6875 
z
" id="DejaVuSans-121"/>
     <path d="M 54.890625 33.015625 
L 54.890625 0 
L 45.90625 0 
L 45.90625 32.71875 
Q 45.90625 40.484375 42.875 44.328125 
Q 39.84375 48.1875 33.796875 48.1875 
Q 26.515625 48.1875 22.3125 43.546875 
Q 18.109375 38.921875 18.109375 30.90625 
L 18.109375 0 
L 9.078125 0 
L 9.078125 54.6875 
L 18.109375 54.6875 
L 18.109375 46.1875 
Q 21.34375 51.125 25.703125 53.5625 
Q 30.078125 56 35.796875 56 
Q 45.21875 56 50.046875 50.171875 
Q 54.890625 44.34375 54.890625 33.015625 
z
" id="DejaVuSans-110"/>
     <path d="M 54.890625 33.015625 
L 54.890625 0 
L 45.90625 0 
L 45.90625 32.71875 
Q 45.90625 40.484375 42.875 44.328125 
Q 39.84375 48.1875 33.796875 48.1875 
Q 26.515625 48.1875 22.3125 43.546875 
Q 18.109375 38.921875 18.109375 30.90625 
L 18.109375 0 
L 9.078125 0 
L 9.078125 75.984375 
L 18.109375 75.984375 
L 18.109375 46.1875 
Q 21.34375 51.125 25.703125 53.5625 
Q 30.078125 56 35.796875 56 
Q 45.21875 56 50.046875 50.171875 
Q 54.890625 44.34375 54.890625 33.015625 
z
" id="DejaVuSans-104"/>
     <path d="M 48.78125 52.59375 
L 48.78125 44.1875 
Q 44.96875 46.296875 41.140625 47.34375 
Q 37.3125 48.390625 33.40625 48.390625 
Q 24.65625 48.390625 19.8125 42.84375 
Q 14.984375 37.3125 14.984375 27.296875 
Q 14.984375 17.28125 19.8125 11.734375 
Q 24.65625 6.203125 33.40625 6.203125 
Q 37.3125 6.203125 41.140625 7.25 
Q 44.96875 8.296875 48.78125 10.40625 
L 48.78125 2.09375 
Q 45.015625 0.34375 40.984375 -0.53125 
Q 36.96875 -1.421875 32.421875 -1.421875 
Q 20.0625 -1.421875 12.78125 6.34375 
Q 5.515625 14.109375 5.515625 27.296875 
Q 5.515625 40.671875 12.859375 48.328125 
Q 20.21875 56 33.015625 56 
Q 37.15625 56 41.109375 55.140625 
Q 45.0625 54.296875 48.78125 52.59375 
z
" id="DejaVuSans-99"/>
     <path d="M 50.984375 -16.609375 
L 50.984375 -23.578125 
L -0.984375 -23.578125 
L -0.984375 -16.609375 
z
" id="DejaVuSans-95"/>
     <path d="M 8.203125 72.90625 
L 55.078125 72.90625 
L 55.078125 68.703125 
L 28.609375 0 
L 18.3125 0 
L 43.21875 64.59375 
L 8.203125 64.59375 
z
" id="DejaVuSans-55"/>
     <path d="M 10.6875 12.40625 
L 21 12.40625 
L 21 0 
L 10.6875 0 
z
" id="DejaVuSans-46"/>
     <path d="M 2.984375 54.6875 
L 12.5 54.6875 
L 29.59375 8.796875 
L 46.6875 54.6875 
L 56.203125 54.6875 
L 35.6875 0 
L 23.484375 0 
z
" id="DejaVuSans-118"/>
    </defs>
    <g transform="translate(392.638125 45.84)scale(0.12 -0.12)">
     <use xlink:href="#DejaVuSans-115"/>
     <use x="52.099609" xlink:href="#DejaVuSans-121"/>
     <use x="111.279297" xlink:href="#DejaVuSans-110"/>
     <use x="174.658203" xlink:href="#DejaVuSans-116"/>
     <use x="213.867188" xlink:href="#DejaVuSans-104"/>
     <use x="277.246094" xlink:href="#DejaVuSans-101"/>
     <use x="338.769531" xlink:href="#DejaVuSans-116"/>
     <use x="377.978516" xlink:href="#DejaVuSans-105"/>
     <use x="405.761719" xlink:href="#DejaVuSans-99"/>
     <use x="460.742188" xlink:href="#DejaVuSans-95"/>
     <use x="510.742188" xlink:href="#DejaVuSans-56"/>
     <use x="574.365234" xlink:href="#DejaVuSans-55"/>
     <use x="637.988281" xlink:href="#DejaVuSans-46"/>
     <use x="669.775391" xlink:href="#DejaVuSans-99"/>
     <use x="724.755859" xlink:href="#DejaVuSans-115"/>
     <use x="776.855469" xlink:href="#DejaVuSans-118"/>
    </g>
   </g>
   <g id="legend_1">
    <g id="patch_43">
     <path d="M 115 74.518125 
L 174.315625 74.518125 
Q 176.315625 74.518125 176.315625 72.518125 
L 176.315625 58.84 
Q 176.315625 56.84 174.315625 56.84 
L 115 56.84 
Q 113 56.84 113 58.84 
L 113 72.518125 
Q 113 74.518125 115 74.518125 
z
" style="fill:#ffffff;opacity:0.8;stroke:#cccccc;stroke-linejoin:miter;"/>
    </g>
    <g id="line2d_18">
     <path d="M 117 64.938438 
L 137 64.938438 
" style="fill:none;stroke:#1f77b4;stroke-linecap:square;stroke-width:1.5;"/>
    </g>
    <g id="line2d_19"/>
    <g id="text_19">
     <!-- value -->
     <g transform="translate(145 68.438438)scale(0.1 -0.1)">
      <use xlink:href="#DejaVuSans-118"/>
      <use x="59.179688" xlink:href="#DejaVuSans-97"/>
      <use x="120.458984" xlink:href="#DejaVuSans-108"/>
      <use x="148.242188" xlink:href="#DejaVuSans-117"/>
      <use x="211.621094" xlink:href="#DejaVuSans-101"/>
     </g>
    </g>
   </g>
  </g>
 </g>
 <defs>
  <clipPath id="pfba742de83">
   <rect height="332.64" width="669.6" x="108" y="51.84"/>
  </clipPath>
 </defs>
</svg>
