<?xml version="1.0" encoding="utf-8" standalone="no"?>
<!DOCTYPE svg PUBLIC "-//W3C//DTD SVG 1.1//EN"
  "http://www.w3.org/Graphics/SVG/1.1/DTD/svg11.dtd">
<!-- Created with matplotlib (https://matplotlib.org/) -->
<svg height="432pt" version="1.1" viewBox="0 0 864 432" width="864pt" xmlns="http://www.w3.org/2000/svg" xmlns:xlink="http://www.w3.org/1999/xlink">
 <defs>
  <style type="text/css">
*{stroke-linecap:butt;stroke-linejoin:round;}
  </style>
 </defs>
 <g id="figure_1">
  <g id="patch_1">
   <path d="M 0 432 
L 864 432 
L 864 0 
L 0 0 
z
" style="fill:#ffffff;"/>
  </g>
  <g id="axes_1">
   <g id="patch_2">
    <path d="M 108 384.48 
L 777.6 384.48 
L 777.6 51.84 
L 108 51.84 
z
" style="fill:#ffffff;"/>
   </g>
   <g id="patch_3">
    <path clip-path="url(#p9c13622a53)" d="M 138.436364 384.48 
L 138.436364 51.84 
L 373.383732 51.84 
L 373.383732 384.48 
z
" style="fill:#0000ff;opacity:0.05;"/>
   </g>
   <g id="patch_4">
    <path clip-path="url(#p9c13622a53)" d="M 373.383732 384.48 
L 373.383732 51.84 
L 747.163636 51.84 
L 747.163636 384.48 
z
" style="fill:#ff0000;opacity:0.08;"/>
   </g>
   <g id="patch_5">
    <path clip-path="url(#p9c13622a53)" d="M 138.436364 384.48 
L 138.436364 51.84 
L 149.115789 51.84 
L 149.115789 384.48 
z
" style="fill:#008000;opacity:0.04;"/>
   </g>
   <g id="patch_6">
    <path clip-path="url(#p9c13622a53)" d="M 149.115789 384.48 
L 149.115789 371.1744 
L 159.795215 371.1744 
L 159.795215 384.48 
z
" style="fill:#ffe500;"/>
   </g>
   <g id="patch_7">
    <path clip-path="url(#p9c13622a53)" d="M 159.795215 384.48 
L 159.795215 51.84 
L 170.474641 51.84 
L 170.474641 384.48 
z
" style="fill:#008000;opacity:0.04;"/>
   </g>
   <g id="patch_8">
    <path clip-path="url(#p9c13622a53)" d="M 181.154067 384.48 
L 181.154067 51.84 
L 191.833493 51.84 
L 191.833493 384.48 
z
" style="fill:#008000;opacity:0.04;"/>
   </g>
   <g id="patch_9">
    <path clip-path="url(#p9c13622a53)" d="M 202.512919 384.48 
L 202.512919 51.84 
L 213.192344 51.84 
L 213.192344 384.48 
z
" style="fill:#008000;opacity:0.04;"/>
   </g>
   <g id="patch_10">
    <path clip-path="url(#p9c13622a53)" d="M 223.87177 384.48 
L 223.87177 51.84 
L 234.551196 51.84 
L 234.551196 384.48 
z
" style="fill:#008000;opacity:0.04;"/>
   </g>
   <g id="patch_11">
    <path clip-path="url(#p9c13622a53)" d="M 245.230622 384.48 
L 245.230622 51.84 
L 255.910048 51.84 
L 255.910048 384.48 
z
" style="fill:#008000;opacity:0.04;"/>
   </g>
   <g id="patch_12">
    <path clip-path="url(#p9c13622a53)" d="M 490.857416 384.48 
L 490.857416 371.1744 
L 501.536842 371.1744 
L 501.536842 384.48 
z
" style="fill:#ff6600;"/>
   </g>
   <g id="patch_13">
    <path clip-path="url(#p9c13622a53)" d="M 266.589474 384.48 
L 266.589474 51.84 
L 277.2689 51.84 
L 277.2689 384.48 
z
" style="fill:#008000;opacity:0.04;"/>
   </g>
   <g id="patch_14">
    <path clip-path="url(#p9c13622a53)" d="M 512.216268 384.48 
L 512.216268 371.1744 
L 522.895694 371.1744 
L 522.895694 384.48 
z
" style="fill:#ff6600;"/>
   </g>
   <g id="patch_15">
    <path clip-path="url(#p9c13622a53)" d="M 287.948325 384.48 
L 287.948325 51.84 
L 298.627751 51.84 
L 298.627751 384.48 
z
" style="fill:#008000;opacity:0.04;"/>
   </g>
   <g id="patch_16">
    <path clip-path="url(#p9c13622a53)" d="M 309.307177 384.48 
L 309.307177 51.84 
L 319.986603 51.84 
L 319.986603 384.48 
z
" style="fill:#008000;opacity:0.04;"/>
   </g>
   <g id="patch_17">
    <path clip-path="url(#p9c13622a53)" d="M 330.666029 384.48 
L 330.666029 51.84 
L 341.345455 51.84 
L 341.345455 384.48 
z
" style="fill:#008000;opacity:0.04;"/>
   </g>
   <g id="patch_18">
    <path clip-path="url(#p9c13622a53)" d="M 341.345455 384.48 
L 341.345455 371.1744 
L 352.02488 371.1744 
L 352.02488 384.48 
z
" style="fill:#ffe500;"/>
   </g>
   <g id="patch_19">
    <path clip-path="url(#p9c13622a53)" d="M 352.02488 384.48 
L 352.02488 51.84 
L 362.704306 51.84 
L 362.704306 384.48 
z
" style="fill:#008000;opacity:0.04;"/>
   </g>
   <g id="patch_20">
    <path clip-path="url(#p9c13622a53)" d="M 373.383732 384.48 
L 373.383732 51.84 
L 384.063158 51.84 
L 384.063158 384.48 
z
" style="fill:#008000;opacity:0.04;"/>
   </g>
   <g id="patch_21">
    <path clip-path="url(#p9c13622a53)" d="M 394.742584 384.48 
L 394.742584 51.84 
L 405.42201 51.84 
L 405.42201 384.48 
z
" style="fill:#008000;opacity:0.04;"/>
   </g>
   <g id="patch_22">
    <path clip-path="url(#p9c13622a53)" d="M 416.101435 384.48 
L 416.101435 51.84 
L 426.780861 51.84 
L 426.780861 384.48 
z
" style="fill:#008000;opacity:0.04;"/>
   </g>
   <g id="patch_23">
    <path clip-path="url(#p9c13622a53)" d="M 437.460287 384.48 
L 437.460287 51.84 
L 448.139713 51.84 
L 448.139713 384.48 
z
" style="fill:#008000;opacity:0.04;"/>
   </g>
   <g id="patch_24">
    <path clip-path="url(#p9c13622a53)" d="M 458.819139 384.48 
L 458.819139 51.84 
L 469.498565 51.84 
L 469.498565 384.48 
z
" style="fill:#008000;opacity:0.04;"/>
   </g>
   <g id="patch_25">
    <path clip-path="url(#p9c13622a53)" d="M 480.17799 384.48 
L 480.17799 51.84 
L 490.857416 51.84 
L 490.857416 384.48 
z
" style="fill:#008000;opacity:0.04;"/>
   </g>
   <g id="patch_26">
    <path clip-path="url(#p9c13622a53)" d="M 501.536842 384.48 
L 501.536842 51.84 
L 512.216268 51.84 
L 512.216268 384.48 
z
" style="fill:#008000;opacity:0.04;"/>
   </g>
   <g id="patch_27">
    <path clip-path="url(#p9c13622a53)" d="M 512.216268 371.1744 
L 512.216268 51.84 
L 522.895694 51.84 
L 522.895694 371.1744 
z
" style="fill:#008000;opacity:0.5;"/>
   </g>
   <g id="patch_28">
    <path clip-path="url(#p9c13622a53)" d="M 522.895694 384.48 
L 522.895694 51.84 
L 533.57512 51.84 
L 533.57512 384.48 
z
" style="fill:#008000;opacity:0.04;"/>
   </g>
   <g id="patch_29">
    <path clip-path="url(#p9c13622a53)" d="M 544.254545 384.48 
L 544.254545 51.84 
L 554.933971 51.84 
L 554.933971 384.48 
z
" style="fill:#008000;opacity:0.04;"/>
   </g>
   <g id="patch_30">
    <path clip-path="url(#p9c13622a53)" d="M 565.613397 384.48 
L 565.613397 51.84 
L 576.292823 51.84 
L 576.292823 384.48 
z
" style="fill:#008000;opacity:0.04;"/>
   </g>
   <g id="patch_31">
    <path clip-path="url(#p9c13622a53)" d="M 586.972249 384.48 
L 586.972249 51.84 
L 597.651675 51.84 
L 597.651675 384.48 
z
" style="fill:#008000;opacity:0.04;"/>
   </g>
   <g id="patch_32">
    <path clip-path="url(#p9c13622a53)" d="M 608.3311 384.48 
L 608.3311 51.84 
L 619.010526 51.84 
L 619.010526 384.48 
z
" style="fill:#008000;opacity:0.04;"/>
   </g>
   <g id="patch_33">
    <path clip-path="url(#p9c13622a53)" d="M 629.689952 384.48 
L 629.689952 51.84 
L 640.369378 51.84 
L 640.369378 384.48 
z
" style="fill:#008000;opacity:0.04;"/>
   </g>
   <g id="patch_34">
    <path clip-path="url(#p9c13622a53)" d="M 651.048804 384.48 
L 651.048804 51.84 
L 661.72823 51.84 
L 661.72823 384.48 
z
" style="fill:#008000;opacity:0.04;"/>
   </g>
   <g id="patch_35">
    <path clip-path="url(#p9c13622a53)" d="M 672.407656 384.48 
L 672.407656 51.84 
L 683.087081 51.84 
L 683.087081 384.48 
z
" style="fill:#008000;opacity:0.04;"/>
   </g>
   <g id="patch_36">
    <path clip-path="url(#p9c13622a53)" d="M 693.766507 384.48 
L 693.766507 51.84 
L 704.445933 51.84 
L 704.445933 384.48 
z
" style="fill:#008000;opacity:0.04;"/>
   </g>
   <g id="patch_37">
    <path clip-path="url(#p9c13622a53)" d="M 715.125359 384.48 
L 715.125359 51.84 
L 725.804785 51.84 
L 725.804785 384.48 
z
" style="fill:#008000;opacity:0.04;"/>
   </g>
   <g id="patch_38">
    <path clip-path="url(#p9c13622a53)" d="M 736.484211 384.48 
L 736.484211 51.84 
L 747.163636 51.84 
L 747.163636 384.48 
z
" style="fill:#008000;opacity:0.04;"/>
   </g>
   <g id="matplotlib.axis_1">
    <g id="xtick_1">
     <g id="line2d_1">
      <defs>
       <path d="M 0 0 
L 0 3.5 
" id="m2fddd21a27" style="stroke:#000000;stroke-width:0.8;"/>
      </defs>
      <g>
       <use style="stroke:#000000;stroke-width:0.8;" x="138.436364" xlink:href="#m2fddd21a27" y="384.48"/>
      </g>
     </g>
     <g id="text_1">
      <!-- 0 -->
      <defs>
       <path d="M 31.78125 66.40625 
Q 24.171875 66.40625 20.328125 58.90625 
Q 16.5 51.421875 16.5 36.375 
Q 16.5 21.390625 20.328125 13.890625 
Q 24.171875 6.390625 31.78125 6.390625 
Q 39.453125 6.390625 43.28125 13.890625 
Q 47.125 21.390625 47.125 36.375 
Q 47.125 51.421875 43.28125 58.90625 
Q 39.453125 66.40625 31.78125 66.40625 
z
M 31.78125 74.21875 
Q 44.046875 74.21875 50.515625 64.515625 
Q 56.984375 54.828125 56.984375 36.375 
Q 56.984375 17.96875 50.515625 8.265625 
Q 44.046875 -1.421875 31.78125 -1.421875 
Q 19.53125 -1.421875 13.0625 8.265625 
Q 6.59375 17.96875 6.59375 36.375 
Q 6.59375 54.828125 13.0625 64.515625 
Q 19.53125 74.21875 31.78125 74.21875 
z
" id="DejaVuSans-48"/>
      </defs>
      <g transform="translate(135.255114 399.078438)scale(0.1 -0.1)">
       <use xlink:href="#DejaVuSans-48"/>
      </g>
     </g>
    </g>
    <g id="xtick_2">
     <g id="line2d_2">
      <g>
       <use style="stroke:#000000;stroke-width:0.8;" x="223.87177" xlink:href="#m2fddd21a27" y="384.48"/>
      </g>
     </g>
     <g id="text_2">
      <!-- 200 -->
      <defs>
       <path d="M 19.1875 8.296875 
L 53.609375 8.296875 
L 53.609375 0 
L 7.328125 0 
L 7.328125 8.296875 
Q 12.9375 14.109375 22.625 23.890625 
Q 32.328125 33.6875 34.8125 36.53125 
Q 39.546875 41.84375 41.421875 45.53125 
Q 43.3125 49.21875 43.3125 52.78125 
Q 43.3125 58.59375 39.234375 62.25 
Q 35.15625 65.921875 28.609375 65.921875 
Q 23.96875 65.921875 18.8125 64.3125 
Q 13.671875 62.703125 7.8125 59.421875 
L 7.8125 69.390625 
Q 13.765625 71.78125 18.9375 73 
Q 24.125 74.21875 28.421875 74.21875 
Q 39.75 74.21875 46.484375 68.546875 
Q 53.21875 62.890625 53.21875 53.421875 
Q 53.21875 48.921875 51.53125 44.890625 
Q 49.859375 40.875 45.40625 35.40625 
Q 44.1875 33.984375 37.640625 27.21875 
Q 31.109375 20.453125 19.1875 8.296875 
z
" id="DejaVuSans-50"/>
      </defs>
      <g transform="translate(214.32802 399.078438)scale(0.1 -0.1)">
       <use xlink:href="#DejaVuSans-50"/>
       <use x="63.623047" xlink:href="#DejaVuSans-48"/>
       <use x="127.246094" xlink:href="#DejaVuSans-48"/>
      </g>
     </g>
    </g>
    <g id="xtick_3">
     <g id="line2d_3">
      <g>
       <use style="stroke:#000000;stroke-width:0.8;" x="309.307177" xlink:href="#m2fddd21a27" y="384.48"/>
      </g>
     </g>
     <g id="text_3">
      <!-- 400 -->
      <defs>
       <path d="M 37.796875 64.3125 
L 12.890625 25.390625 
L 37.796875 25.390625 
z
M 35.203125 72.90625 
L 47.609375 72.90625 
L 47.609375 25.390625 
L 58.015625 25.390625 
L 58.015625 17.1875 
L 47.609375 17.1875 
L 47.609375 0 
L 37.796875 0 
L 37.796875 17.1875 
L 4.890625 17.1875 
L 4.890625 26.703125 
z
" id="DejaVuSans-52"/>
      </defs>
      <g transform="translate(299.763427 399.078438)scale(0.1 -0.1)">
       <use xlink:href="#DejaVuSans-52"/>
       <use x="63.623047" xlink:href="#DejaVuSans-48"/>
       <use x="127.246094" xlink:href="#DejaVuSans-48"/>
      </g>
     </g>
    </g>
    <g id="xtick_4">
     <g id="line2d_4">
      <g>
       <use style="stroke:#000000;stroke-width:0.8;" x="394.742584" xlink:href="#m2fddd21a27" y="384.48"/>
      </g>
     </g>
     <g id="text_4">
      <!-- 600 -->
      <defs>
       <path d="M 33.015625 40.375 
Q 26.375 40.375 22.484375 35.828125 
Q 18.609375 31.296875 18.609375 23.390625 
Q 18.609375 15.53125 22.484375 10.953125 
Q 26.375 6.390625 33.015625 6.390625 
Q 39.65625 6.390625 43.53125 10.953125 
Q 47.40625 15.53125 47.40625 23.390625 
Q 47.40625 31.296875 43.53125 35.828125 
Q 39.65625 40.375 33.015625 40.375 
z
M 52.59375 71.296875 
L 52.59375 62.3125 
Q 48.875 64.0625 45.09375 64.984375 
Q 41.3125 65.921875 37.59375 65.921875 
Q 27.828125 65.921875 22.671875 59.328125 
Q 17.53125 52.734375 16.796875 39.40625 
Q 19.671875 43.65625 24.015625 45.921875 
Q 28.375 48.1875 33.59375 48.1875 
Q 44.578125 48.1875 50.953125 41.515625 
Q 57.328125 34.859375 57.328125 23.390625 
Q 57.328125 12.15625 50.6875 5.359375 
Q 44.046875 -1.421875 33.015625 -1.421875 
Q 20.359375 -1.421875 13.671875 8.265625 
Q 6.984375 17.96875 6.984375 36.375 
Q 6.984375 53.65625 15.1875 63.9375 
Q 23.390625 74.21875 37.203125 74.21875 
Q 40.921875 74.21875 44.703125 73.484375 
Q 48.484375 72.75 52.59375 71.296875 
z
" id="DejaVuSans-54"/>
      </defs>
      <g transform="translate(385.198834 399.078438)scale(0.1 -0.1)">
       <use xlink:href="#DejaVuSans-54"/>
       <use x="63.623047" xlink:href="#DejaVuSans-48"/>
       <use x="127.246094" xlink:href="#DejaVuSans-48"/>
      </g>
     </g>
    </g>
    <g id="xtick_5">
     <g id="line2d_5">
      <g>
       <use style="stroke:#000000;stroke-width:0.8;" x="480.17799" xlink:href="#m2fddd21a27" y="384.48"/>
      </g>
     </g>
     <g id="text_5">
      <!-- 800 -->
      <defs>
       <path d="M 31.78125 34.625 
Q 24.75 34.625 20.71875 30.859375 
Q 16.703125 27.09375 16.703125 20.515625 
Q 16.703125 13.921875 20.71875 10.15625 
Q 24.75 6.390625 31.78125 6.390625 
Q 38.8125 6.390625 42.859375 10.171875 
Q 46.921875 13.96875 46.921875 20.515625 
Q 46.921875 27.09375 42.890625 30.859375 
Q 38.875 34.625 31.78125 34.625 
z
M 21.921875 38.8125 
Q 15.578125 40.375 12.03125 44.71875 
Q 8.5 49.078125 8.5 55.328125 
Q 8.5 64.0625 14.71875 69.140625 
Q 20.953125 74.21875 31.78125 74.21875 
Q 42.671875 74.21875 48.875 69.140625 
Q 55.078125 64.0625 55.078125 55.328125 
Q 55.078125 49.078125 51.53125 44.71875 
Q 48 40.375 41.703125 38.8125 
Q 48.828125 37.15625 52.796875 32.3125 
Q 56.78125 27.484375 56.78125 20.515625 
Q 56.78125 9.90625 50.3125 4.234375 
Q 43.84375 -1.421875 31.78125 -1.421875 
Q 19.734375 -1.421875 13.25 4.234375 
Q 6.78125 9.90625 6.78125 20.515625 
Q 6.78125 27.484375 10.78125 32.3125 
Q 14.796875 37.15625 21.921875 38.8125 
z
M 18.3125 54.390625 
Q 18.3125 48.734375 21.84375 45.5625 
Q 25.390625 42.390625 31.78125 42.390625 
Q 38.140625 42.390625 41.71875 45.5625 
Q 45.3125 48.734375 45.3125 54.390625 
Q 45.3125 60.0625 41.71875 63.234375 
Q 38.140625 66.40625 31.78125 66.40625 
Q 25.390625 66.40625 21.84375 63.234375 
Q 18.3125 60.0625 18.3125 54.390625 
z
" id="DejaVuSans-56"/>
      </defs>
      <g transform="translate(470.63424 399.078438)scale(0.1 -0.1)">
       <use xlink:href="#DejaVuSans-56"/>
       <use x="63.623047" xlink:href="#DejaVuSans-48"/>
       <use x="127.246094" xlink:href="#DejaVuSans-48"/>
      </g>
     </g>
    </g>
    <g id="xtick_6">
     <g id="line2d_6">
      <g>
       <use style="stroke:#000000;stroke-width:0.8;" x="565.613397" xlink:href="#m2fddd21a27" y="384.48"/>
      </g>
     </g>
     <g id="text_6">
      <!-- 1000 -->
      <defs>
       <path d="M 12.40625 8.296875 
L 28.515625 8.296875 
L 28.515625 63.921875 
L 10.984375 60.40625 
L 10.984375 69.390625 
L 28.421875 72.90625 
L 38.28125 72.90625 
L 38.28125 8.296875 
L 54.390625 8.296875 
L 54.390625 0 
L 12.40625 0 
z
" id="DejaVuSans-49"/>
      </defs>
      <g transform="translate(552.888397 399.078438)scale(0.1 -0.1)">
       <use xlink:href="#DejaVuSans-49"/>
       <use x="63.623047" xlink:href="#DejaVuSans-48"/>
       <use x="127.246094" xlink:href="#DejaVuSans-48"/>
       <use x="190.869141" xlink:href="#DejaVuSans-48"/>
      </g>
     </g>
    </g>
    <g id="xtick_7">
     <g id="line2d_7">
      <g>
       <use style="stroke:#000000;stroke-width:0.8;" x="651.048804" xlink:href="#m2fddd21a27" y="384.48"/>
      </g>
     </g>
     <g id="text_7">
      <!-- 1200 -->
      <g transform="translate(638.323804 399.078438)scale(0.1 -0.1)">
       <use xlink:href="#DejaVuSans-49"/>
       <use x="63.623047" xlink:href="#DejaVuSans-50"/>
       <use x="127.246094" xlink:href="#DejaVuSans-48"/>
       <use x="190.869141" xlink:href="#DejaVuSans-48"/>
      </g>
     </g>
    </g>
    <g id="xtick_8">
     <g id="line2d_8">
      <g>
       <use style="stroke:#000000;stroke-width:0.8;" x="736.484211" xlink:href="#m2fddd21a27" y="384.48"/>
      </g>
     </g>
     <g id="text_8">
      <!-- 1400 -->
      <g transform="translate(723.759211 399.078438)scale(0.1 -0.1)">
       <use xlink:href="#DejaVuSans-49"/>
       <use x="63.623047" xlink:href="#DejaVuSans-52"/>
       <use x="127.246094" xlink:href="#DejaVuSans-48"/>
       <use x="190.869141" xlink:href="#DejaVuSans-48"/>
      </g>
     </g>
    </g>
    <g id="text_9">
     <!-- Timestamp -->
     <defs>
      <path d="M -0.296875 72.90625 
L 61.375 72.90625 
L 61.375 64.59375 
L 35.5 64.59375 
L 35.5 0 
L 25.59375 0 
L 25.59375 64.59375 
L -0.296875 64.59375 
z
" id="DejaVuSans-84"/>
      <path d="M 9.421875 54.6875 
L 18.40625 54.6875 
L 18.40625 0 
L 9.421875 0 
z
M 9.421875 75.984375 
L 18.40625 75.984375 
L 18.40625 64.59375 
L 9.421875 64.59375 
z
" id="DejaVuSans-105"/>
      <path d="M 52 44.1875 
Q 55.375 50.25 60.0625 53.125 
Q 64.75 56 71.09375 56 
Q 79.640625 56 84.28125 50.015625 
Q 88.921875 44.046875 88.921875 33.015625 
L 88.921875 0 
L 79.890625 0 
L 79.890625 32.71875 
Q 79.890625 40.578125 77.09375 44.375 
Q 74.3125 48.1875 68.609375 48.1875 
Q 61.625 48.1875 57.5625 43.546875 
Q 53.515625 38.921875 53.515625 30.90625 
L 53.515625 0 
L 44.484375 0 
L 44.484375 32.71875 
Q 44.484375 40.625 41.703125 44.40625 
Q 38.921875 48.1875 33.109375 48.1875 
Q 26.21875 48.1875 22.15625 43.53125 
Q 18.109375 38.875 18.109375 30.90625 
L 18.109375 0 
L 9.078125 0 
L 9.078125 54.6875 
L 18.109375 54.6875 
L 18.109375 46.1875 
Q 21.1875 51.21875 25.484375 53.609375 
Q 29.78125 56 35.6875 56 
Q 41.65625 56 45.828125 52.96875 
Q 50 49.953125 52 44.1875 
z
" id="DejaVuSans-109"/>
      <path d="M 56.203125 29.59375 
L 56.203125 25.203125 
L 14.890625 25.203125 
Q 15.484375 15.921875 20.484375 11.0625 
Q 25.484375 6.203125 34.421875 6.203125 
Q 39.59375 6.203125 44.453125 7.46875 
Q 49.3125 8.734375 54.109375 11.28125 
L 54.109375 2.78125 
Q 49.265625 0.734375 44.1875 -0.34375 
Q 39.109375 -1.421875 33.890625 -1.421875 
Q 20.796875 -1.421875 13.15625 6.1875 
Q 5.515625 13.8125 5.515625 26.8125 
Q 5.515625 40.234375 12.765625 48.109375 
Q 20.015625 56 32.328125 56 
Q 43.359375 56 49.78125 48.890625 
Q 56.203125 41.796875 56.203125 29.59375 
z
M 47.21875 32.234375 
Q 47.125 39.59375 43.09375 43.984375 
Q 39.0625 48.390625 32.421875 48.390625 
Q 24.90625 48.390625 20.390625 44.140625 
Q 15.875 39.890625 15.1875 32.171875 
z
" id="DejaVuSans-101"/>
      <path d="M 44.28125 53.078125 
L 44.28125 44.578125 
Q 40.484375 46.53125 36.375 47.5 
Q 32.28125 48.484375 27.875 48.484375 
Q 21.1875 48.484375 17.84375 46.4375 
Q 14.5 44.390625 14.5 40.28125 
Q 14.5 37.15625 16.890625 35.375 
Q 19.28125 33.59375 26.515625 31.984375 
L 29.59375 31.296875 
Q 39.15625 29.25 43.1875 25.515625 
Q 47.21875 21.78125 47.21875 15.09375 
Q 47.21875 7.46875 41.1875 3.015625 
Q 35.15625 -1.421875 24.609375 -1.421875 
Q 20.21875 -1.421875 15.453125 -0.5625 
Q 10.6875 0.296875 5.421875 2 
L 5.421875 11.28125 
Q 10.40625 8.6875 15.234375 7.390625 
Q 20.0625 6.109375 24.8125 6.109375 
Q 31.15625 6.109375 34.5625 8.28125 
Q 37.984375 10.453125 37.984375 14.40625 
Q 37.984375 18.0625 35.515625 20.015625 
Q 33.0625 21.96875 24.703125 23.78125 
L 21.578125 24.515625 
Q 13.234375 26.265625 9.515625 29.90625 
Q 5.8125 33.546875 5.8125 39.890625 
Q 5.8125 47.609375 11.28125 51.796875 
Q 16.75 56 26.8125 56 
Q 31.78125 56 36.171875 55.265625 
Q 40.578125 54.546875 44.28125 53.078125 
z
" id="DejaVuSans-115"/>
      <path d="M 18.3125 70.21875 
L 18.3125 54.6875 
L 36.8125 54.6875 
L 36.8125 47.703125 
L 18.3125 47.703125 
L 18.3125 18.015625 
Q 18.3125 11.328125 20.140625 9.421875 
Q 21.96875 7.515625 27.59375 7.515625 
L 36.8125 7.515625 
L 36.8125 0 
L 27.59375 0 
Q 17.1875 0 13.234375 3.875 
Q 9.28125 7.765625 9.28125 18.015625 
L 9.28125 47.703125 
L 2.6875 47.703125 
L 2.6875 54.6875 
L 9.28125 54.6875 
L 9.28125 70.21875 
z
" id="DejaVuSans-116"/>
      <path d="M 34.28125 27.484375 
Q 23.390625 27.484375 19.1875 25 
Q 14.984375 22.515625 14.984375 16.5 
Q 14.984375 11.71875 18.140625 8.90625 
Q 21.296875 6.109375 26.703125 6.109375 
Q 34.1875 6.109375 38.703125 11.40625 
Q 43.21875 16.703125 43.21875 25.484375 
L 43.21875 27.484375 
z
M 52.203125 31.203125 
L 52.203125 0 
L 43.21875 0 
L 43.21875 8.296875 
Q 40.140625 3.328125 35.546875 0.953125 
Q 30.953125 -1.421875 24.3125 -1.421875 
Q 15.921875 -1.421875 10.953125 3.296875 
Q 6 8.015625 6 15.921875 
Q 6 25.140625 12.171875 29.828125 
Q 18.359375 34.515625 30.609375 34.515625 
L 43.21875 34.515625 
L 43.21875 35.40625 
Q 43.21875 41.609375 39.140625 45 
Q 35.0625 48.390625 27.6875 48.390625 
Q 23 48.390625 18.546875 47.265625 
Q 14.109375 46.140625 10.015625 43.890625 
L 10.015625 52.203125 
Q 14.9375 54.109375 19.578125 55.046875 
Q 24.21875 56 28.609375 56 
Q 40.484375 56 46.34375 49.84375 
Q 52.203125 43.703125 52.203125 31.203125 
z
" id="DejaVuSans-97"/>
      <path d="M 18.109375 8.203125 
L 18.109375 -20.796875 
L 9.078125 -20.796875 
L 9.078125 54.6875 
L 18.109375 54.6875 
L 18.109375 46.390625 
Q 20.953125 51.265625 25.265625 53.625 
Q 29.59375 56 35.59375 56 
Q 45.5625 56 51.78125 48.09375 
Q 58.015625 40.1875 58.015625 27.296875 
Q 58.015625 14.40625 51.78125 6.484375 
Q 45.5625 -1.421875 35.59375 -1.421875 
Q 29.59375 -1.421875 25.265625 0.953125 
Q 20.953125 3.328125 18.109375 8.203125 
z
M 48.6875 27.296875 
Q 48.6875 37.203125 44.609375 42.84375 
Q 40.53125 48.484375 33.40625 48.484375 
Q 26.265625 48.484375 22.1875 42.84375 
Q 18.109375 37.203125 18.109375 27.296875 
Q 18.109375 17.390625 22.1875 11.75 
Q 26.265625 6.109375 33.40625 6.109375 
Q 40.53125 6.109375 44.609375 11.75 
Q 48.6875 17.390625 48.6875 27.296875 
z
" id="DejaVuSans-112"/>
     </defs>
     <g transform="translate(414.739062 412.756563)scale(0.1 -0.1)">
      <use xlink:href="#DejaVuSans-84"/>
      <use x="61.037109" xlink:href="#DejaVuSans-105"/>
      <use x="88.820312" xlink:href="#DejaVuSans-109"/>
      <use x="186.232422" xlink:href="#DejaVuSans-101"/>
      <use x="247.755859" xlink:href="#DejaVuSans-115"/>
      <use x="299.855469" xlink:href="#DejaVuSans-116"/>
      <use x="339.064453" xlink:href="#DejaVuSans-97"/>
      <use x="400.34375" xlink:href="#DejaVuSans-109"/>
      <use x="497.755859" xlink:href="#DejaVuSans-112"/>
     </g>
    </g>
   </g>
   <g id="matplotlib.axis_2">
    <g id="ytick_1">
     <g id="line2d_9">
      <defs>
       <path d="M 0 0 
L -3.5 0 
" id="mdbbcf8a4cc" style="stroke:#000000;stroke-width:0.8;"/>
      </defs>
      <g>
       <use style="stroke:#000000;stroke-width:0.8;" x="108" xlink:href="#mdbbcf8a4cc" y="360.979638"/>
      </g>
     </g>
     <g id="text_10">
      <!-- 0 -->
      <g transform="translate(94.6375 364.778857)scale(0.1 -0.1)">
       <use xlink:href="#DejaVuSans-48"/>
      </g>
     </g>
    </g>
    <g id="ytick_2">
     <g id="line2d_10">
      <g>
       <use style="stroke:#000000;stroke-width:0.8;" x="108" xlink:href="#mdbbcf8a4cc" y="304.765592"/>
      </g>
     </g>
     <g id="text_11">
      <!-- 5000 -->
      <defs>
       <path d="M 10.796875 72.90625 
L 49.515625 72.90625 
L 49.515625 64.59375 
L 19.828125 64.59375 
L 19.828125 46.734375 
Q 21.96875 47.46875 24.109375 47.828125 
Q 26.265625 48.1875 28.421875 48.1875 
Q 40.625 48.1875 47.75 41.5 
Q 54.890625 34.8125 54.890625 23.390625 
Q 54.890625 11.625 47.5625 5.09375 
Q 40.234375 -1.421875 26.90625 -1.421875 
Q 22.3125 -1.421875 17.546875 -0.640625 
Q 12.796875 0.140625 7.71875 1.703125 
L 7.71875 11.625 
Q 12.109375 9.234375 16.796875 8.0625 
Q 21.484375 6.890625 26.703125 6.890625 
Q 35.15625 6.890625 40.078125 11.328125 
Q 45.015625 15.765625 45.015625 23.390625 
Q 45.015625 31 40.078125 35.4375 
Q 35.15625 39.890625 26.703125 39.890625 
Q 22.75 39.890625 18.8125 39.015625 
Q 14.890625 38.140625 10.796875 36.28125 
z
" id="DejaVuSans-53"/>
      </defs>
      <g transform="translate(75.55 308.564811)scale(0.1 -0.1)">
       <use xlink:href="#DejaVuSans-53"/>
       <use x="63.623047" xlink:href="#DejaVuSans-48"/>
       <use x="127.246094" xlink:href="#DejaVuSans-48"/>
       <use x="190.869141" xlink:href="#DejaVuSans-48"/>
      </g>
     </g>
    </g>
    <g id="ytick_3">
     <g id="line2d_11">
      <g>
       <use style="stroke:#000000;stroke-width:0.8;" x="108" xlink:href="#mdbbcf8a4cc" y="248.551547"/>
      </g>
     </g>
     <g id="text_12">
      <!-- 10000 -->
      <g transform="translate(69.1875 252.350766)scale(0.1 -0.1)">
       <use xlink:href="#DejaVuSans-49"/>
       <use x="63.623047" xlink:href="#DejaVuSans-48"/>
       <use x="127.246094" xlink:href="#DejaVuSans-48"/>
       <use x="190.869141" xlink:href="#DejaVuSans-48"/>
       <use x="254.492188" xlink:href="#DejaVuSans-48"/>
      </g>
     </g>
    </g>
    <g id="ytick_4">
     <g id="line2d_12">
      <g>
       <use style="stroke:#000000;stroke-width:0.8;" x="108" xlink:href="#mdbbcf8a4cc" y="192.337501"/>
      </g>
     </g>
     <g id="text_13">
      <!-- 15000 -->
      <g transform="translate(69.1875 196.13672)scale(0.1 -0.1)">
       <use xlink:href="#DejaVuSans-49"/>
       <use x="63.623047" xlink:href="#DejaVuSans-53"/>
       <use x="127.246094" xlink:href="#DejaVuSans-48"/>
       <use x="190.869141" xlink:href="#DejaVuSans-48"/>
       <use x="254.492188" xlink:href="#DejaVuSans-48"/>
      </g>
     </g>
    </g>
    <g id="ytick_5">
     <g id="line2d_13">
      <g>
       <use style="stroke:#000000;stroke-width:0.8;" x="108" xlink:href="#mdbbcf8a4cc" y="136.123456"/>
      </g>
     </g>
     <g id="text_14">
      <!-- 20000 -->
      <g transform="translate(69.1875 139.922675)scale(0.1 -0.1)">
       <use xlink:href="#DejaVuSans-50"/>
       <use x="63.623047" xlink:href="#DejaVuSans-48"/>
       <use x="127.246094" xlink:href="#DejaVuSans-48"/>
       <use x="190.869141" xlink:href="#DejaVuSans-48"/>
       <use x="254.492188" xlink:href="#DejaVuSans-48"/>
      </g>
     </g>
    </g>
    <g id="ytick_6">
     <g id="line2d_14">
      <g>
       <use style="stroke:#000000;stroke-width:0.8;" x="108" xlink:href="#mdbbcf8a4cc" y="79.90941"/>
      </g>
     </g>
     <g id="text_15">
      <!-- 25000 -->
      <g transform="translate(69.1875 83.708629)scale(0.1 -0.1)">
       <use xlink:href="#DejaVuSans-50"/>
       <use x="63.623047" xlink:href="#DejaVuSans-53"/>
       <use x="127.246094" xlink:href="#DejaVuSans-48"/>
       <use x="190.869141" xlink:href="#DejaVuSans-48"/>
       <use x="254.492188" xlink:href="#DejaVuSans-48"/>
      </g>
     </g>
    </g>
    <g id="text_16">
     <!-- Value -->
     <defs>
      <path d="M 28.609375 0 
L 0.78125 72.90625 
L 11.078125 72.90625 
L 34.1875 11.53125 
L 57.328125 72.90625 
L 67.578125 72.90625 
L 39.796875 0 
z
" id="DejaVuSans-86"/>
      <path d="M 9.421875 75.984375 
L 18.40625 75.984375 
L 18.40625 0 
L 9.421875 0 
z
" id="DejaVuSans-108"/>
      <path d="M 8.5 21.578125 
L 8.5 54.6875 
L 17.484375 54.6875 
L 17.484375 21.921875 
Q 17.484375 14.15625 20.5 10.265625 
Q 23.53125 6.390625 29.59375 6.390625 
Q 36.859375 6.390625 41.078125 11.03125 
Q 45.3125 15.671875 45.3125 23.6875 
L 45.3125 54.6875 
L 54.296875 54.6875 
L 54.296875 0 
L 45.3125 0 
L 45.3125 8.40625 
Q 42.046875 3.421875 37.71875 1 
Q 33.40625 -1.421875 27.6875 -1.421875 
Q 18.265625 -1.421875 13.375 4.4375 
Q 8.5 10.296875 8.5 21.578125 
z
M 31.109375 56 
z
" id="DejaVuSans-117"/>
     </defs>
     <g transform="translate(63.107813 232.273281)rotate(-90)scale(0.1 -0.1)">
      <use xlink:href="#DejaVuSans-86"/>
      <use x="68.298828" xlink:href="#DejaVuSans-97"/>
      <use x="129.578125" xlink:href="#DejaVuSans-108"/>
      <use x="157.361328" xlink:href="#DejaVuSans-117"/>
      <use x="220.740234" xlink:href="#DejaVuSans-101"/>
     </g>
    </g>
   </g>
   <g id="line2d_15">
    <path clip-path="url(#p9c13622a53)" d="M 138.436364 362.953804 
L 138.863541 359.126901 
L 139.290718 361.494091 
L 139.717895 352.192264 
L 140.572249 358.249827 
L 140.999426 352.788186 
L 141.426603 350.923225 
L 141.85378 350.480176 
L 142.280957 352.494841 
L 142.708134 345.406848 
L 143.562488 350.845557 
L 143.989665 355.402186 
L 144.416842 343.304164 
L 144.844019 346.50833 
L 145.271196 345.700146 
L 145.698373 341.786279 
L 146.12555 341.583872 
L 146.552727 341.785188 
L 146.979904 340.168047 
L 147.407081 340.166295 
L 147.834258 342.149303 
L 148.261435 348.776607 
L 148.688612 339.644823 
L 149.115789 341.685826 
L 149.542967 341.832601 
L 149.970144 346.148159 
L 151.251675 336.505433 
L 151.678852 341.538942 
L 152.106029 340.02091 
L 152.533206 341.709548 
L 152.960383 346.433903 
L 153.38756 343.474847 
L 153.814737 343.750162 
L 154.241914 343.00893 
L 154.669091 339.523042 
L 155.096268 341.143358 
L 155.523445 344.803903 
L 155.950622 345.664031 
L 156.377799 343.043389 
L 156.804976 344.146719 
L 157.232153 349.020306 
L 157.65933 349.770275 
L 158.086507 346.853428 
L 158.513684 346.21912 
L 158.940861 349.951198 
L 159.368038 347.355583 
L 159.795215 349.768377 
L 160.222392 353.973686 
L 160.649569 351.540427 
L 161.076746 357.310922 
L 161.503923 349.432476 
L 161.9311 348.368282 
L 162.358278 357.092962 
L 162.785455 360.152473 
L 163.212632 355.44522 
L 163.639809 358.566581 
L 164.066986 350.697641 
L 164.494163 359.649048 
L 164.92134 357.846427 
L 165.775694 363.931947 
L 166.202871 361.344082 
L 166.630048 368.619524 
L 167.057225 358.039932 
L 167.484402 362.926406 
L 167.911579 356.493576 
L 168.338756 362.590933 
L 168.765933 366.908419 
L 169.19311 362.694925 
L 169.620287 368.127057 
L 170.047464 369.36 
L 170.474641 364.229156 
L 170.901818 366.758771 
L 171.328995 365.242779 
L 171.756172 364.927039 
L 172.183349 367.049635 
L 172.610526 366.798952 
L 173.037703 365.095845 
L 173.46488 360.359801 
L 173.892057 369.155408 
L 174.319234 361.588081 
L 174.746411 362.01628 
L 175.173589 359.037912 
L 175.600766 363.10628 
L 176.027943 360.216399 
L 176.45512 359.908334 
L 176.882297 361.945584 
L 177.309474 355.275326 
L 177.736651 354.647073 
L 178.163828 355.375723 
L 178.591005 351.509303 
L 179.018182 354.08851 
L 179.445359 359.365675 
L 179.872536 356.023375 
L 180.299713 357.239036 
L 180.72689 353.684952 
L 181.154067 353.150103 
L 181.581244 349.858898 
L 182.008421 352.020859 
L 182.435598 347.329622 
L 182.862775 348.99845 
L 183.289952 339.717531 
L 183.717129 342.187064 
L 184.144306 340.449369 
L 184.571483 341.152449 
L 184.99866 335.692421 
L 185.425837 342.481604 
L 185.853014 340.853558 
L 186.280191 333.424555 
L 186.707368 339.47597 
L 187.134545 337.003458 
L 187.561722 336.686882 
L 188.416077 334.509905 
L 188.843254 331.050191 
L 189.270431 332.518777 
L 189.697608 332.868238 
L 190.124785 325.891887 
L 190.551962 330.489307 
L 191.406316 328.898673 
L 191.833493 325.621308 
L 192.26067 327.807384 
L 192.687847 327.26436 
L 193.115024 329.076515 
L 193.969378 325.996963 
L 194.396555 327.992529 
L 194.823732 324.056264 
L 195.250909 330.90462 
L 195.678086 324.696095 
L 196.105263 330.955772 
L 196.53244 326.852515 
L 196.959617 327.753536 
L 197.386794 328.357466 
L 197.813971 326.580138 
L 198.241148 333.153403 
L 198.668325 323.029874 
L 199.095502 333.029739 
L 199.522679 329.393179 
L 199.949856 332.073515 
L 200.377033 331.351743 
L 200.804211 322.300331 
L 201.231388 329.89351 
L 201.658565 334.927928 
L 202.085742 336.780485 
L 202.512919 330.386733 
L 204.221627 339.891348 
L 204.648804 339.272506 
L 205.075981 333.035362 
L 205.503158 339.313498 
L 205.930335 342.690237 
L 206.357512 332.472775 
L 206.784689 338.149338 
L 207.211866 341.177385 
L 207.639043 337.558914 
L 208.06622 338.898298 
L 208.493397 344.733484 
L 208.920574 335.891767 
L 209.347751 344.916455 
L 209.774928 349.543567 
L 210.202105 345.851761 
L 210.629282 345.268724 
L 211.056459 338.733725 
L 211.483636 346.7217 
L 211.910813 346.028968 
L 212.33799 348.290164 
L 212.765167 349.568636 
L 213.192344 348.918858 
L 213.619522 346.450798 
L 214.046699 342.358584 
L 214.473876 346.118551 
L 214.901053 345.669123 
L 215.32823 354.031558 
L 215.755407 346.588442 
L 216.182584 349.171955 
L 216.609761 354.823954 
L 217.036938 347.981893 
L 217.464115 350.112595 
L 217.891292 344.393283 
L 218.318469 351.6605 
L 218.745646 350.187036 
L 219.172823 351.473737 
L 220.027177 346.036208 
L 220.454354 349.323679 
L 220.881531 343.438087 
L 221.308708 349.688804 
L 221.735885 348.452861 
L 222.163062 339.290629 
L 222.590239 346.824089 
L 223.017416 341.170737 
L 223.444593 342.995193 
L 223.87177 339.425583 
L 224.298947 334.168578 
L 224.726124 333.557743 
L 225.580478 344.668611 
L 226.007656 327.454201 
L 226.434833 332.602712 
L 226.86201 331.967351 
L 227.289187 332.772494 
L 227.716364 329.920875 
L 228.143541 331.118773 
L 228.570718 328.052988 
L 228.997895 329.747379 
L 229.425072 331.951522 
L 229.852249 322.902188 
L 230.279426 320.044743 
L 230.706603 325.190398 
L 231.13378 327.363264 
L 231.560957 319.946714 
L 231.988134 321.294215 
L 232.415311 326.058754 
L 232.842488 319.267205 
L 233.269665 320.521737 
L 233.696842 318.692883 
L 234.124019 320.641679 
L 234.551196 309.855302 
L 234.978373 316.350473 
L 235.40555 319.980823 
L 235.832727 313.245087 
L 236.259904 312.435365 
L 236.687081 316.126024 
L 237.114258 322.081939 
L 237.541435 314.041671 
L 237.968612 309.566202 
L 238.395789 311.376384 
L 238.822967 311.239383 
L 239.250144 308.798004 
L 239.677321 314.555781 
L 240.104498 306.730085 
L 240.531675 310.416695 
L 240.958852 308.017551 
L 241.386029 306.97922 
L 241.813206 309.844306 
L 242.240383 313.749379 
L 242.66756 307.067538 
L 243.094737 318.050035 
L 243.521914 313.452454 
L 243.949091 312.849221 
L 244.376268 312.967138 
L 244.803445 309.416357 
L 245.230622 312.915018 
L 245.657799 312.543685 
L 246.084976 314.739658 
L 246.512153 315.958618 
L 246.93933 313.414735 
L 247.366507 312.566286 
L 247.793684 325.279898 
L 248.220861 315.934495 
L 248.648038 317.349254 
L 249.075215 320.817557 
L 249.502392 316.934334 
L 249.929569 322.253969 
L 250.356746 322.689639 
L 250.783923 319.619803 
L 251.2111 317.495771 
L 251.638278 323.191559 
L 252.492632 329.686369 
L 252.919809 327.542509 
L 253.346986 330.346044 
L 254.20134 327.255065 
L 254.628517 332.147096 
L 255.055694 320.945133 
L 255.482871 329.996303 
L 255.910048 327.279269 
L 256.337225 339.393323 
L 256.764402 329.642429 
L 257.191579 337.065881 
L 257.618756 329.916537 
L 258.045933 332.053631 
L 258.47311 335.10398 
L 258.900287 329.517945 
L 259.327464 336.595907 
L 259.754641 336.35899 
L 260.181818 337.899719 
L 260.608995 336.836703 
L 261.036172 331.385382 
L 261.463349 333.069085 
L 261.890526 331.03204 
L 262.317703 335.594454 
L 262.74488 332.785173 
L 263.172057 332.961306 
L 263.599234 338.287501 
L 264.026411 327.06116 
L 264.453589 332.189217 
L 264.880766 329.565151 
L 265.307943 328.383887 
L 265.73512 331.197168 
L 266.162297 331.422186 
L 266.589474 326.677337 
L 267.016651 332.515094 
L 267.443828 321.52622 
L 267.871005 328.68143 
L 268.298182 320.932936 
L 268.725359 320.525017 
L 269.152536 324.440377 
L 269.579713 321.849945 
L 270.00689 326.257497 
L 270.434067 320.693635 
L 270.861244 317.229993 
L 271.288421 319.383034 
L 271.715598 320.196729 
L 272.142775 319.808844 
L 272.569952 316.63238 
L 272.997129 311.808665 
L 273.424306 315.978732 
L 273.851483 313.666039 
L 274.27866 316.55646 
L 274.705837 309.432802 
L 275.133014 305.619638 
L 275.560191 303.934395 
L 275.987368 305.216248 
L 276.414545 313.294642 
L 276.841722 304.353886 
L 277.2689 303.486648 
L 277.696077 305.301343 
L 278.123254 302.636413 
L 278.550431 305.280756 
L 278.977608 299.239628 
L 279.404785 301.866957 
L 279.831962 305.334398 
L 280.259139 300.577203 
L 280.686316 294.072283 
L 281.113493 299.225293 
L 281.54067 295.06886 
L 281.967847 293.851223 
L 282.395024 296.598416 
L 282.822201 297.418148 
L 283.249378 297.685619 
L 283.676555 293.112809 
L 284.103732 298.992835 
L 284.530909 294.395241 
L 284.958086 296.098711 
L 285.385263 302.730195 
L 285.81244 299.835566 
L 286.239617 292.025445 
L 286.666794 295.884506 
L 287.521148 289.232993 
L 287.948325 290.901518 
L 288.375502 293.915839 
L 288.802679 295.288434 
L 289.229856 297.639335 
L 289.657033 292.103948 
L 290.084211 295.924742 
L 290.511388 302.452416 
L 290.938565 299.583382 
L 291.365742 306.160859 
L 291.792919 300.970296 
L 292.220096 309.753779 
L 292.647273 297.232283 
L 293.07445 304.550821 
L 293.501627 304.596445 
L 293.928804 304.472613 
L 294.355981 302.599863 
L 294.783158 303.158634 
L 295.210335 304.321915 
L 296.064689 312.445035 
L 296.491866 309.938217 
L 296.919043 308.467271 
L 297.34622 312.968623 
L 297.773397 311.178894 
L 298.200574 315.644039 
L 298.627751 312.448098 
L 299.054928 312.688988 
L 299.482105 314.298387 
L 299.909282 315.010783 
L 300.336459 309.108278 
L 300.763636 313.081925 
L 301.190813 312.451189 
L 301.61799 319.847368 
L 302.472344 313.71051 
L 302.899522 318.190167 
L 303.326699 325.537742 
L 303.753876 317.448572 
L 304.181053 325.295162 
L 304.60823 321.774732 
L 305.035407 314.676948 
L 305.462584 317.147774 
L 305.889761 315.555527 
L 306.316938 318.175389 
L 306.744115 319.492953 
L 307.171292 322.099193 
L 307.598469 313.37564 
L 308.025646 318.352929 
L 308.452823 320.608864 
L 308.88 314.889493 
L 309.307177 313.756075 
L 309.734354 310.498527 
L 310.161531 318.423793 
L 310.588708 317.125018 
L 311.015885 316.580935 
L 312.297416 314.007618 
L 312.724593 307.320921 
L 313.15177 313.715115 
L 313.578947 311.78637 
L 314.006124 307.34913 
L 314.433301 304.804776 
L 314.860478 310.249724 
L 315.287656 308.356928 
L 315.714833 303.844228 
L 316.14201 301.131842 
L 316.996364 307.291022 
L 317.423541 295.590514 
L 317.850718 295.434624 
L 318.277895 301.609191 
L 318.705072 298.340511 
L 319.132249 302.993811 
L 319.559426 294.038483 
L 319.986603 289.447873 
L 320.41378 299.39674 
L 320.840957 295.463368 
L 321.268134 293.984746 
L 321.695311 293.133254 
L 322.122488 296.748948 
L 322.549665 287.242216 
L 322.976842 293.222934 
L 323.404019 287.26045 
L 323.831196 284.343342 
L 324.258373 286.234924 
L 324.68555 281.801989 
L 325.112727 284.208432 
L 325.539904 285.660291 
L 325.967081 280.676521 
L 326.394258 283.777088 
L 326.821435 275.806656 
L 327.248612 281.416015 
L 327.675789 278.070747 
L 328.102967 279.919501 
L 328.530144 290.505554 
L 328.957321 284.717101 
L 329.384498 281.353301 
L 329.811675 278.996926 
L 330.238852 287.662506 
L 330.666029 276.472069 
L 331.093206 281.819233 
L 331.520383 282.423458 
L 331.94756 285.29553 
L 332.374737 285.15948 
L 332.801914 280.30828 
L 333.229091 279.084608 
L 333.656268 288.265509 
L 334.083445 284.96917 
L 334.510622 280.205986 
L 334.937799 284.043372 
L 335.364976 275.713773 
L 336.21933 282.199589 
L 336.646507 284.83498 
L 337.073684 284.572539 
L 337.500861 288.599986 
L 337.928038 284.802911 
L 338.355215 282.656778 
L 338.782392 284.75489 
L 339.209569 291.943129 
L 339.636746 295.450297 
L 340.063923 291.131602 
L 340.4911 290.061616 
L 340.918278 287.775968 
L 341.345455 297.602122 
L 341.772632 292.693134 
L 342.199809 293.913561 
L 342.626986 291.4286 
L 343.054163 296.313349 
L 343.48134 298.159237 
L 343.908517 301.540459 
L 344.335694 300.095148 
L 344.762871 300.226436 
L 345.190048 291.672678 
L 345.617225 291.940656 
L 346.044402 301.340802 
L 346.898756 308.448716 
L 347.325933 300.464588 
L 347.75311 306.285816 
L 348.180287 295.20557 
L 348.607464 306.227038 
L 349.034641 303.096603 
L 349.461818 290.769057 
L 349.888995 307.553766 
L 350.316172 302.844036 
L 350.743349 307.659608 
L 351.170526 302.710753 
L 351.597703 306.760024 
L 352.02488 303.404694 
L 352.452057 304.476262 
L 352.879234 307.225206 
L 353.733589 299.197929 
L 354.160766 296.744008 
L 354.587943 306.314759 
L 355.442297 296.653254 
L 355.869474 303.72653 
L 356.296651 307.84405 
L 356.723828 301.740329 
L 357.151005 301.088458 
L 357.578182 296.85511 
L 358.005359 297.543502 
L 358.432536 294.518527 
L 358.859713 295.821884 
L 359.28689 292.185727 
L 359.714067 293.721068 
L 360.141244 287.460164 
L 360.568421 292.965274 
L 360.995598 288.449516 
L 361.422775 291.374342 
L 361.849952 286.609756 
L 362.277129 286.399159 
L 362.704306 290.855722 
L 363.55866 278.990304 
L 364.413014 280.34296 
L 364.840191 283.798081 
L 365.267368 274.755399 
L 365.694545 277.40989 
L 366.121722 278.192431 
L 366.5489 270.115527 
L 366.976077 277.311399 
L 367.830431 268.528723 
L 368.257608 269.958242 
L 368.684785 272.202263 
L 369.111962 271.78582 
L 369.539139 268.416467 
L 369.966316 267.173028 
L 370.393493 268.18614 
L 370.82067 263.173622 
L 371.247847 267.293914 
L 371.675024 268.927763 
L 372.102201 264.278626 
L 372.529378 273.140522 
L 372.956555 264.009918 
L 373.383732 263.356632 
L 373.810909 265.557037 
L 374.238086 268.390199 
L 374.665263 265.816177 
L 375.09244 259.1606 
L 375.519617 266.903182 
L 375.946794 272.314862 
L 376.373971 261.767246 
L 376.801148 266.358114 
L 377.228325 266.589037 
L 377.655502 269.223174 
L 378.082679 265.486938 
L 378.509856 263.386468 
L 378.937033 268.143373 
L 379.364211 268.649173 
L 379.791388 263.368314 
L 380.218565 268.441088 
L 380.645742 268.706851 
L 381.072919 270.881308 
L 381.500096 266.347366 
L 381.927273 273.420075 
L 382.35445 267.870181 
L 382.781627 268.730406 
L 383.208804 273.773543 
L 383.635981 270.072359 
L 384.063158 270.371488 
L 384.490335 272.541883 
L 384.917512 268.425037 
L 385.344689 282.710578 
L 385.771866 280.806268 
L 386.199043 282.31499 
L 387.053397 273.861304 
L 387.480574 274.313513 
L 387.907751 279.092151 
L 388.334928 278.505982 
L 388.762105 282.683456 
L 389.189282 281.295581 
L 389.616459 282.271599 
L 390.043636 286.7523 
L 390.470813 285.768571 
L 390.89799 285.795953 
L 391.325167 281.148258 
L 391.752344 289.859438 
L 392.179522 293.947564 
L 392.606699 284.590015 
L 393.033876 290.302583 
L 393.461053 289.318598 
L 393.88823 285.033186 
L 394.315407 290.877586 
L 394.742584 289.597095 
L 395.169761 283.45238 
L 395.596938 286.787997 
L 396.024115 286.724781 
L 396.451292 288.950067 
L 396.878469 292.206228 
L 397.305646 293.239864 
L 397.732823 288.690827 
L 398.16 280.864933 
L 398.587177 286.537576 
L 399.014354 286.326106 
L 399.441531 285.297773 
L 399.868708 287.215661 
L 400.295885 290.083218 
L 400.723062 275.682841 
L 401.150239 285.511723 
L 401.577416 284.382511 
L 402.004593 288.687467 
L 402.43177 282.669403 
L 403.286124 280.994581 
L 403.713301 285.273785 
L 404.140478 272.252017 
L 404.567656 271.359105 
L 404.994833 274.003178 
L 405.42201 279.048317 
L 405.849187 271.871785 
L 406.276364 274.073374 
L 406.703541 273.257382 
L 407.130718 266.489421 
L 407.557895 274.174451 
L 407.985072 270.663943 
L 408.412249 270.322729 
L 408.839426 266.698808 
L 409.266603 271.012028 
L 409.69378 267.002773 
L 410.120957 261.146095 
L 410.548134 260.956946 
L 410.975311 264.80879 
L 411.402488 258.624787 
L 411.829665 267.779185 
L 412.256842 259.757281 
L 412.684019 255.281484 
L 413.111196 259.048086 
L 413.538373 256.10104 
L 413.96555 260.568753 
L 414.392727 251.548436 
L 414.819904 259.963426 
L 415.247081 254.126568 
L 415.674258 253.272354 
L 416.101435 251.628891 
L 416.528612 254.099039 
L 416.955789 244.649612 
L 417.382967 255.263082 
L 417.810144 249.200861 
L 418.237321 259.701075 
L 418.664498 249.491768 
L 419.091675 247.578453 
L 419.518852 252.833383 
L 419.946029 246.692886 
L 420.373206 247.929446 
L 420.800383 245.772394 
L 421.22756 252.012034 
L 421.654737 252.578402 
L 422.081914 255.47771 
L 422.509091 250.814633 
L 422.936268 254.545121 
L 423.363445 248.025777 
L 423.790622 250.500566 
L 424.217799 243.763983 
L 424.644976 255.567795 
L 425.072153 248.167798 
L 425.49933 254.506743 
L 425.926507 258.242922 
L 426.353684 251.999585 
L 426.780861 259.444969 
L 427.208038 258.848767 
L 427.635215 258.467413 
L 428.062392 256.003229 
L 428.489569 260.846609 
L 428.916746 254.583426 
L 429.343923 263.065503 
L 429.7711 259.06109 
L 430.198278 260.101831 
L 430.625455 264.98684 
L 431.052632 263.623955 
L 431.479809 265.182888 
L 431.906986 260.496834 
L 432.334163 259.247893 
L 432.76134 268.791803 
L 433.188517 262.859004 
L 433.615694 266.981315 
L 434.042871 274.077313 
L 434.897225 267.164898 
L 435.324402 268.839871 
L 435.751579 278.166297 
L 436.178756 268.47021 
L 436.605933 268.710005 
L 437.03311 272.407612 
L 437.460287 274.177514 
L 437.887464 265.470565 
L 438.314641 272.758361 
L 438.741818 272.762641 
L 439.168995 276.727178 
L 440.023349 278.341171 
L 440.450526 274.663965 
L 440.877703 268.624563 
L 441.30488 267.233368 
L 441.732057 267.743146 
L 442.159234 268.488414 
L 442.586411 273.450865 
L 443.013589 276.503774 
L 443.440766 273.12957 
L 443.867943 279.788689 
L 444.722297 265.056733 
L 445.149474 269.677726 
L 445.576651 265.809422 
L 446.003828 267.210926 
L 446.431005 270.805268 
L 446.858182 261.52703 
L 447.285359 266.908339 
L 447.712536 269.120061 
L 448.139713 264.717588 
L 448.56689 269.198705 
L 448.994067 260.207063 
L 449.421244 260.473745 
L 449.848421 262.385935 
L 450.275598 261.828737 
L 450.702775 255.977256 
L 451.129952 261.693471 
L 451.557129 260.365708 
L 451.984306 254.527882 
L 452.411483 256.410379 
L 452.83866 250.667708 
L 453.265837 253.384609 
L 453.693014 247.585525 
L 454.120191 248.874286 
L 454.547368 257.080317 
L 454.974545 252.945138 
L 455.401722 243.044273 
L 455.8289 244.02551 
L 456.256077 248.635661 
L 456.683254 248.942071 
L 457.110431 239.942423 
L 457.537608 245.270954 
L 457.964785 235.543541 
L 458.391962 234.798718 
L 458.819139 244.908235 
L 459.246316 242.079866 
L 459.673493 242.725708 
L 460.10067 235.556974 
L 460.527847 241.551543 
L 460.955024 243.487341 
L 461.382201 229.22802 
L 461.809378 232.183696 
L 462.236555 232.395389 
L 462.663732 237.034253 
L 463.518086 232.108722 
L 463.945263 238.334466 
L 464.37244 234.268149 
L 464.799617 233.158037 
L 465.226794 227.985342 
L 465.653971 231.55744 
L 466.081148 229.462912 
L 466.935502 237.871823 
L 467.362679 235.487681 
L 467.789856 240.253796 
L 468.217033 231.807895 
L 468.644211 230.535177 
L 469.071388 235.966366 
L 469.498565 239.541452 
L 469.925742 233.052286 
L 470.352919 236.808183 
L 470.780096 239.171843 
L 471.207273 234.681344 
L 471.63445 241.705293 
L 472.061627 235.924424 
L 472.488804 243.367791 
L 472.915981 239.91884 
L 473.343158 238.972903 
L 473.770335 247.270178 
L 474.197512 242.179338 
L 474.624689 244.688956 
L 475.051866 242.815598 
L 475.479043 248.565073 
L 475.90622 246.984403 
L 476.333397 242.802186 
L 476.760574 247.692627 
L 477.187751 246.249547 
L 478.042105 254.019636 
L 478.469282 251.294973 
L 479.323636 261.414858 
L 479.750813 249.316535 
L 480.17799 257.562802 
L 480.605167 260.641305 
L 481.032344 251.633472 
L 481.459522 255.542025 
L 481.886699 257.989451 
L 482.313876 256.976749 
L 482.741053 258.184344 
L 483.16823 253.690332 
L 483.595407 254.8714 
L 484.022584 263.396633 
L 484.449761 256.52498 
L 484.876938 255.37518 
L 485.304115 255.632794 
L 485.731292 266.102677 
L 486.585646 251.040655 
L 487.012823 254.879998 
L 487.44 263.141191 
L 487.867177 262.711469 
L 488.294354 255.088779 
L 488.721531 256.954322 
L 489.148708 252.672941 
L 489.575885 254.43963 
L 490.003062 254.616231 
L 490.430239 253.675049 
L 490.857416 253.091649 
L 491.284593 257.261626 
L 491.71177 244.2804 
L 492.138947 256.232991 
L 492.566124 250.694915 
L 492.993301 251.624323 
L 493.420478 242.799789 
L 493.847656 244.545046 
L 494.274833 248.921707 
L 495.129187 241.083656 
L 495.556364 236.433258 
L 495.983541 241.933704 
L 496.410718 245.425104 
L 496.837895 244.154548 
L 497.265072 232.959327 
L 497.692249 245.669572 
L 498.119426 227.235803 
L 498.546603 237.376984 
L 498.97378 236.951198 
L 499.828134 230.12525 
L 500.255311 231.215162 
L 500.682488 237.833955 
L 501.109665 229.013307 
L 501.964019 226.044897 
L 502.818373 234.488605 
L 503.24555 226.709404 
L 503.672727 227.990928 
L 504.099904 226.612078 
L 504.527081 226.515627 
L 504.954258 223.947461 
L 505.381435 223.013227 
L 505.808612 218.674061 
L 506.235789 217.48821 
L 506.662967 223.024999 
L 507.090144 220.944007 
L 507.517321 218.29236 
L 507.944498 214.453194 
L 508.798852 224.445143 
L 509.226029 217.749996 
L 509.653206 218.832354 
L 510.080383 212.381807 
L 510.50756 217.224291 
L 510.934737 220.556411 
L 511.361914 220.051205 
L 511.789091 220.443096 
L 512.216268 218.325186 
L 512.643445 218.630351 
L 513.070622 216.450183 
L 514.352153 223.978506 
L 514.77933 219.14931 
L 515.206507 222.049993 
L 515.633684 221.79819 
L 516.060861 219.295007 
L 516.488038 217.745462 
L 516.915215 227.57594 
L 517.342392 219.48412 
L 517.769569 228.70364 
L 518.196746 225.61182 
L 518.623923 226.520055 
L 519.0511 228.982585 
L 519.478278 224.11041 
L 519.905455 66.96 
L 520.332632 228.177222 
L 520.759809 231.251341 
L 521.186986 235.149554 
L 521.614163 228.67115 
L 522.04134 240.623538 
L 522.468517 236.098567 
L 522.895694 240.279583 
L 523.322871 235.131606 
L 523.750048 235.597666 
L 524.177225 240.956078 
L 524.604402 235.616452 
L 525.031579 241.932531 
L 525.458756 236.789992 
L 525.885933 238.762929 
L 526.31311 237.655016 
L 526.740287 243.717782 
L 527.167464 240.641807 
L 527.594641 242.907618 
L 528.021818 246.641546 
L 528.876172 236.17747 
L 529.303349 244.550291 
L 529.730526 243.15721 
L 530.157703 240.218154 
L 530.58488 242.442884 
L 531.012057 235.947115 
L 531.439234 239.932461 
L 531.866411 234.418576 
L 532.293589 240.884236 
L 532.720766 245.637172 
L 533.147943 240.053536 
L 533.57512 244.232786 
L 534.002297 244.082618 
L 534.429474 240.833453 
L 534.856651 236.497624 
L 535.283828 237.909663 
L 535.711005 235.685324 
L 536.138182 234.66189 
L 536.565359 237.615285 
L 536.992536 244.394184 
L 537.419713 232.761605 
L 537.84689 227.266198 
L 538.274067 233.524709 
L 538.701244 237.38964 
L 539.128421 233.099877 
L 539.555598 234.042316 
L 540.409952 226.567935 
L 540.837129 224.882395 
L 541.264306 225.96172 
L 541.691483 228.849091 
L 542.11866 221.85832 
L 542.545837 218.964007 
L 542.973014 214.82043 
L 543.400191 223.026836 
L 544.254545 215.164013 
L 544.681722 218.536114 
L 545.1089 215.319081 
L 545.536077 215.340238 
L 545.963254 215.512197 
L 546.390431 213.502125 
L 546.817608 209.849611 
L 547.244785 210.802688 
L 547.671962 212.868677 
L 548.099139 218.009179 
L 548.526316 212.2972 
L 548.953493 208.891381 
L 549.38067 216.592506 
L 549.807847 199.905581 
L 550.235024 211.776381 
L 550.662201 210.065305 
L 551.089378 200.652964 
L 551.516555 212.497016 
L 551.943732 202.138072 
L 552.370909 205.409812 
L 552.798086 202.364044 
L 553.225263 200.651553 
L 553.65244 206.638822 
L 554.079617 205.612136 
L 554.506794 213.249774 
L 554.933971 206.300509 
L 555.361148 201.757751 
L 555.788325 201.38649 
L 556.215502 196.341814 
L 556.642679 203.142328 
L 557.069856 202.003994 
L 557.497033 203.583279 
L 557.924211 205.796912 
L 558.351388 201.976281 
L 559.205742 204.932264 
L 559.632919 208.624047 
L 560.487273 204.325993 
L 560.91445 205.287908 
L 561.341627 209.849421 
L 561.768804 211.148918 
L 562.195981 207.844305 
L 562.623158 206.748746 
L 563.050335 210.627861 
L 563.904689 215.545 
L 564.331866 214.765168 
L 564.759043 219.153107 
L 565.18622 217.288437 
L 565.613397 211.882006 
L 566.040574 212.751642 
L 566.467751 220.247162 
L 566.894928 217.363953 
L 567.322105 218.606514 
L 567.749282 225.216481 
L 568.176459 217.575685 
L 568.603636 227.498879 
L 569.030813 225.929111 
L 569.45799 218.986802 
L 569.885167 224.818797 
L 570.312344 224.310864 
L 570.739522 229.621369 
L 571.166699 229.558022 
L 571.593876 223.934486 
L 572.875407 230.791107 
L 573.302584 230.279294 
L 573.729761 219.914365 
L 574.156938 228.096458 
L 574.584115 224.506082 
L 575.438469 224.64703 
L 575.865646 226.201594 
L 576.292823 231.35076 
L 576.72 230.38624 
L 577.147177 224.228407 
L 577.574354 230.944007 
L 578.001531 224.420884 
L 578.428708 227.646405 
L 578.855885 226.769556 
L 579.283062 227.620741 
L 579.710239 225.202903 
L 580.137416 220.880247 
L 580.564593 221.688719 
L 580.99177 223.338898 
L 581.846124 215.469552 
L 582.273301 220.292759 
L 582.700478 217.837631 
L 583.127656 217.610383 
L 583.554833 220.949397 
L 583.98201 219.83276 
L 584.409187 209.229145 
L 584.836364 211.746813 
L 585.263541 211.198839 
L 585.690718 212.172453 
L 586.117895 209.974958 
L 586.545072 210.036557 
L 586.972249 209.3317 
L 587.399426 207.634926 
L 587.826603 210.72483 
L 588.25378 198.094208 
L 588.680957 202.42491 
L 589.108134 204.914779 
L 589.535311 198.896497 
L 589.962488 204.073833 
L 590.389665 195.127546 
L 591.244019 206.772179 
L 591.671196 193.336548 
L 592.098373 193.18725 
L 592.52555 198.737119 
L 592.952727 200.022238 
L 593.379904 200.62751 
L 593.807081 194.539282 
L 594.234258 199.086694 
L 595.088612 190.964637 
L 595.515789 188.012898 
L 595.942967 193.122369 
L 596.370144 190.256427 
L 596.797321 188.518382 
L 597.224498 183.160672 
L 597.651675 191.872407 
L 598.078852 193.763842 
L 598.506029 194.34221 
L 598.933206 186.033652 
L 599.360383 187.991713 
L 599.78756 185.105482 
L 600.214737 188.180727 
L 600.641914 186.415013 
L 601.496268 187.911069 
L 601.923445 190.301281 
L 602.350622 184.176268 
L 602.777799 190.124166 
L 603.204976 186.847063 
L 603.632153 188.945453 
L 604.05933 183.917689 
L 604.913684 192.102832 
L 605.340861 191.555983 
L 605.768038 192.549507 
L 606.195215 199.834281 
L 606.622392 187.677804 
L 607.049569 190.512052 
L 607.476746 197.421153 
L 607.903923 194.269735 
L 608.3311 195.497448 
L 608.758278 200.917695 
L 609.185455 192.822133 
L 609.612632 199.492133 
L 610.039809 198.823555 
L 610.466986 198.868965 
L 610.894163 204.395687 
L 611.32134 205.491863 
L 611.748517 202.761604 
L 612.175694 201.414628 
L 612.602871 203.86603 
L 613.030048 202.460334 
L 613.457225 204.427719 
L 613.884402 204.403199 
L 614.311579 211.656447 
L 614.738756 205.247405 
L 615.165933 210.807983 
L 616.020287 209.573519 
L 616.447464 215.277098 
L 616.874641 210.476513 
L 617.728995 213.312391 
L 618.156172 213.056181 
L 618.583349 207.212771 
L 619.010526 215.884491 
L 619.437703 212.496777 
L 619.86488 220.22302 
L 620.292057 214.174179 
L 620.719234 213.568811 
L 621.146411 206.576819 
L 621.573589 214.919444 
L 622.000766 214.426994 
L 622.427943 215.960745 
L 622.85512 210.322518 
L 623.282297 206.670309 
L 623.709474 214.222317 
L 624.136651 211.144188 
L 624.563828 204.56465 
L 624.991005 210.937982 
L 625.418182 205.686883 
L 625.845359 206.025281 
L 626.272536 211.051715 
L 626.699713 201.762921 
L 627.12689 202.395115 
L 627.554067 205.903811 
L 627.981244 206.439542 
L 628.408421 203.795826 
L 628.835598 198.78234 
L 629.689952 205.92119 
L 630.117129 199.047201 
L 630.544306 194.916479 
L 630.971483 200.399652 
L 631.39866 196.217245 
L 631.825837 198.473015 
L 632.253014 192.859801 
L 632.680191 192.618072 
L 633.107368 191.198149 
L 633.534545 192.107866 
L 633.961722 191.326678 
L 634.3889 184.911242 
L 634.816077 186.451816 
L 635.243254 186.403944 
L 635.670431 195.62835 
L 636.524785 180.210599 
L 636.951962 183.229385 
L 637.379139 185.033563 
L 637.806316 181.557239 
L 638.233493 180.504345 
L 638.66067 180.132347 
L 639.515024 171.819719 
L 639.942201 172.955934 
L 640.369378 171.463592 
L 640.796555 176.227065 
L 641.223732 171.734465 
L 641.650909 177.445054 
L 642.078086 174.182679 
L 642.505263 165.956641 
L 642.93244 173.091606 
L 643.786794 174.584087 
L 644.641148 165.262739 
L 645.068325 170.971012 
L 645.495502 173.280888 
L 645.922679 165.464648 
L 646.349856 175.257881 
L 646.777033 168.985754 
L 647.204211 174.485281 
L 647.631388 176.811912 
L 648.058565 169.574989 
L 648.485742 180.179034 
L 648.912919 175.567414 
L 649.340096 174.950601 
L 649.767273 177.01961 
L 650.19445 181.624043 
L 650.621627 178.845499 
L 651.048804 182.571446 
L 651.475981 171.45206 
L 651.903158 184.929464 
L 652.330335 186.483375 
L 652.757512 177.727143 
L 653.184689 177.767657 
L 653.611866 182.26758 
L 654.039043 183.082128 
L 654.46622 180.715295 
L 654.893397 179.22765 
L 655.320574 190.137851 
L 655.747751 181.133746 
L 656.174928 185.673364 
L 656.602105 188.265538 
L 657.029282 183.605072 
L 657.456459 185.46092 
L 657.883636 185.053555 
L 658.310813 191.079775 
L 658.73799 188.160109 
L 659.165167 190.451344 
L 659.592344 193.837902 
L 660.019522 186.743978 
L 660.446699 192.710988 
L 660.873876 193.973208 
L 661.301053 192.487706 
L 661.72823 193.406045 
L 662.155407 197.515872 
L 662.582584 195.66342 
L 663.009761 186.970654 
L 663.436938 196.294401 
L 663.864115 197.257594 
L 664.291292 193.923527 
L 664.718469 195.149764 
L 665.145646 198.375302 
L 665.572823 200.207616 
L 666 193.608726 
L 666.427177 195.953685 
L 666.854354 194.545863 
L 667.281531 196.929627 
L 667.708708 201.244856 
L 668.135885 195.075163 
L 668.563062 186.819588 
L 668.990239 199.403197 
L 669.417416 197.283546 
L 669.844593 197.91543 
L 670.27177 194.023237 
L 670.698947 187.458033 
L 671.126124 191.95094 
L 671.553301 191.551782 
L 671.980478 194.260369 
L 672.834833 184.70399 
L 673.26201 179.659293 
L 673.689187 181.927253 
L 674.116364 188.359383 
L 674.543541 186.130154 
L 674.970718 181.36073 
L 675.397895 182.418893 
L 675.825072 180.404439 
L 676.252249 184.714369 
L 676.679426 180.643368 
L 677.106603 181.254072 
L 677.53378 180.17635 
L 678.388134 176.268815 
L 678.815311 173.807112 
L 679.242488 170.576364 
L 679.669665 173.387761 
L 680.096842 173.525288 
L 680.524019 164.135292 
L 680.951196 165.242772 
L 681.378373 165.274632 
L 681.80555 160.934798 
L 682.232727 169.082193 
L 682.659904 157.959546 
L 683.514258 162.204364 
L 683.941435 160.366351 
L 684.368612 161.550726 
L 684.795789 161.457942 
L 685.222967 165.788908 
L 685.650144 157.362744 
L 686.077321 152.097439 
L 686.504498 151.79873 
L 686.931675 157.872681 
L 687.358852 158.443041 
L 687.786029 157.147693 
L 688.213206 153.626776 
L 688.640383 152.302423 
L 689.06756 155.774363 
L 689.494737 153.293343 
L 689.921914 157.120988 
L 690.349091 155.365761 
L 690.776268 153.113459 
L 691.203445 144.938956 
L 691.630622 157.621316 
L 692.057799 159.934607 
L 692.484976 156.450492 
L 692.912153 159.667191 
L 693.33933 156.526069 
L 693.766507 157.948683 
L 694.193684 155.120501 
L 694.620861 163.334766 
L 695.048038 164.71775 
L 695.475215 155.920777 
L 696.329569 165.620956 
L 696.756746 166.813856 
L 697.183923 165.755294 
L 697.6111 162.616073 
L 698.038278 167.14588 
L 698.465455 161.58383 
L 698.892632 166.075462 
L 699.319809 167.023074 
L 700.174163 170.278454 
L 700.60134 170.63235 
L 701.028517 166.940798 
L 701.455694 176.167116 
L 701.882871 168.73049 
L 702.310048 174.352648 
L 702.737225 171.420116 
L 703.164402 174.824466 
L 703.591579 179.878071 
L 704.018756 174.820336 
L 704.445933 178.795992 
L 704.87311 173.439729 
L 705.300287 180.620296 
L 705.727464 184.406232 
L 706.154641 181.743539 
L 706.581818 181.244452 
L 707.008995 182.514653 
L 707.436172 180.888379 
L 707.863349 182.415716 
L 708.290526 182.05809 
L 708.717703 179.774017 
L 709.14488 184.985266 
L 709.572057 178.584749 
L 709.999234 181.22131 
L 710.426411 181.342253 
L 710.853589 188.048214 
L 711.280766 182.065299 
L 711.707943 182.758625 
L 712.13512 177.78724 
L 712.562297 175.668404 
L 712.989474 175.873603 
L 713.416651 183.418423 
L 713.843828 181.901487 
L 714.271005 179.014585 
L 714.698182 181.750223 
L 715.125359 182.995966 
L 715.552536 174.243005 
L 715.979713 175.997891 
L 716.40689 173.412222 
L 716.834067 178.782954 
L 717.261244 175.043766 
L 717.688421 176.997304 
L 718.115598 174.947203 
L 718.542775 170.438714 
L 718.969952 173.01647 
L 719.397129 172.637419 
L 719.824306 172.68871 
L 720.251483 172.094094 
L 720.67866 169.114734 
L 721.105837 159.368587 
L 721.533014 166.281364 
L 721.960191 166.749915 
L 722.387368 166.654704 
L 722.814545 161.322274 
L 723.241722 161.061953 
L 723.6689 157.797026 
L 724.096077 158.536864 
L 724.523254 153.585967 
L 724.950431 153.042657 
L 725.377608 150.881366 
L 725.804785 152.628396 
L 726.231962 148.703162 
L 726.659139 151.782724 
L 727.086316 147.446408 
L 727.513493 150.251176 
L 728.367847 152.181627 
L 728.795024 149.67972 
L 729.222201 149.085266 
L 729.649378 143.918202 
L 730.503732 146.775548 
L 730.930909 147.144517 
L 731.358086 138.499154 
L 731.785263 143.986054 
L 732.21244 147.031538 
L 732.639617 143.936054 
L 733.066794 141.895933 
L 733.493971 139.179241 
L 733.921148 142.128496 
L 734.348325 141.361449 
L 734.775502 145.21238 
L 735.202679 139.010166 
L 735.629856 141.432799 
L 736.484211 136.829181 
L 736.911388 141.683918 
L 737.765742 145.488078 
L 738.192919 145.215516 
L 738.620096 146.780164 
L 739.047273 142.895545 
L 739.47445 149.618935 
L 739.901627 151.10278 
L 740.328804 148.03585 
L 740.755981 142.723422 
L 741.183158 146.623964 
L 741.610335 149.387893 
L 742.037512 146.150862 
L 742.464689 150.330534 
L 742.891866 150.274193 
L 743.319043 150.398606 
L 743.74622 147.734893 
L 744.173397 147.829044 
L 744.600574 148.653578 
L 745.027751 150.474347 
L 745.027751 150.474347 
" style="fill:none;stroke:#1f77b4;stroke-linecap:square;stroke-width:1.5;"/>
   </g>
   <g id="line2d_16">
    <path clip-path="url(#p9c13622a53)" d="M 747.163636 384.48 
L 747.163636 51.84 
" style="fill:none;stroke:#808080;stroke-linecap:square;"/>
   </g>
   <g id="patch_39">
    <path d="M 108 384.48 
L 108 51.84 
" style="fill:none;stroke:#000000;stroke-linecap:square;stroke-linejoin:miter;stroke-width:0.8;"/>
   </g>
   <g id="patch_40">
    <path d="M 777.6 384.48 
L 777.6 51.84 
" style="fill:none;stroke:#000000;stroke-linecap:square;stroke-linejoin:miter;stroke-width:0.8;"/>
   </g>
   <g id="patch_41">
    <path d="M 108 384.48 
L 777.6 384.48 
" style="fill:none;stroke:#000000;stroke-linecap:square;stroke-linejoin:miter;stroke-width:0.8;"/>
   </g>
   <g id="patch_42">
    <path d="M 108 51.84 
L 777.6 51.84 
" style="fill:none;stroke:#000000;stroke-linecap:square;stroke-linejoin:miter;stroke-width:0.8;"/>
   </g>
   <g id="text_17">
    <!-- synthetic_90.csv -->
    <defs>
     <path d="M 32.171875 -5.078125 
Q 28.375 -14.84375 24.75 -17.8125 
Q 21.140625 -20.796875 15.09375 -20.796875 
L 7.90625 -20.796875 
L 7.90625 -13.28125 
L 13.1875 -13.28125 
Q 16.890625 -13.28125 18.9375 -11.515625 
Q 21 -9.765625 23.484375 -3.21875 
L 25.09375 0.875 
L 2.984375 54.6875 
L 12.5 54.6875 
L 29.59375 11.921875 
L 46.6875 54.6875 
L 56.203125 54.6875 
z
" id="DejaVuSans-121"/>
     <path d="M 54.890625 33.015625 
L 54.890625 0 
L 45.90625 0 
L 45.90625 32.71875 
Q 45.90625 40.484375 42.875 44.328125 
Q 39.84375 48.1875 33.796875 48.1875 
Q 26.515625 48.1875 22.3125 43.546875 
Q 18.109375 38.921875 18.109375 30.90625 
L 18.109375 0 
L 9.078125 0 
L 9.078125 54.6875 
L 18.109375 54.6875 
L 18.109375 46.1875 
Q 21.34375 51.125 25.703125 53.5625 
Q 30.078125 56 35.796875 56 
Q 45.21875 56 50.046875 50.171875 
Q 54.890625 44.34375 54.890625 33.015625 
z
" id="DejaVuSans-110"/>
     <path d="M 54.890625 33.015625 
L 54.890625 0 
L 45.90625 0 
L 45.90625 32.71875 
Q 45.90625 40.484375 42.875 44.328125 
Q 39.84375 48.1875 33.796875 48.1875 
Q 26.515625 48.1875 22.3125 43.546875 
Q 18.109375 38.921875 18.109375 30.90625 
L 18.109375 0 
L 9.078125 0 
L 9.078125 75.984375 
L 18.109375 75.984375 
L 18.109375 46.1875 
Q 21.34375 51.125 25.703125 53.5625 
Q 30.078125 56 35.796875 56 
Q 45.21875 56 50.046875 50.171875 
Q 54.890625 44.34375 54.890625 33.015625 
z
" id="DejaVuSans-104"/>
     <path d="M 48.78125 52.59375 
L 48.78125 44.1875 
Q 44.96875 46.296875 41.140625 47.34375 
Q 37.3125 48.390625 33.40625 48.390625 
Q 24.65625 48.390625 19.8125 42.84375 
Q 14.984375 37.3125 14.984375 27.296875 
Q 14.984375 17.28125 19.8125 11.734375 
Q 24.65625 6.203125 33.40625 6.203125 
Q 37.3125 6.203125 41.140625 7.25 
Q 44.96875 8.296875 48.78125 10.40625 
L 48.78125 2.09375 
Q 45.015625 0.34375 40.984375 -0.53125 
Q 36.96875 -1.421875 32.421875 -1.421875 
Q 20.0625 -1.421875 12.78125 6.34375 
Q 5.515625 14.109375 5.515625 27.296875 
Q 5.515625 40.671875 12.859375 48.328125 
Q 20.21875 56 33.015625 56 
Q 37.15625 56 41.109375 55.140625 
Q 45.0625 54.296875 48.78125 52.59375 
z
" id="DejaVuSans-99"/>
     <path d="M 50.984375 -16.609375 
L 50.984375 -23.578125 
L -0.984375 -23.578125 
L -0.984375 -16.609375 
z
" id="DejaVuSans-95"/>
     <path d="M 10.984375 1.515625 
L 10.984375 10.5 
Q 14.703125 8.734375 18.5 7.8125 
Q 22.3125 6.890625 25.984375 6.890625 
Q 35.75 6.890625 40.890625 13.453125 
Q 46.046875 20.015625 46.78125 33.40625 
Q 43.953125 29.203125 39.59375 26.953125 
Q 35.25 24.703125 29.984375 24.703125 
Q 19.046875 24.703125 12.671875 31.3125 
Q 6.296875 37.9375 6.296875 49.421875 
Q 6.296875 60.640625 12.9375 67.421875 
Q 19.578125 74.21875 30.609375 74.21875 
Q 43.265625 74.21875 49.921875 64.515625 
Q 56.59375 54.828125 56.59375 36.375 
Q 56.59375 19.140625 48.40625 8.859375 
Q 40.234375 -1.421875 26.421875 -1.421875 
Q 22.703125 -1.421875 18.890625 -0.6875 
Q 15.09375 0.046875 10.984375 1.515625 
z
M 30.609375 32.421875 
Q 37.25 32.421875 41.125 36.953125 
Q 45.015625 41.5 45.015625 49.421875 
Q 45.015625 57.28125 41.125 61.84375 
Q 37.25 66.40625 30.609375 66.40625 
Q 23.96875 66.40625 20.09375 61.84375 
Q 16.21875 57.28125 16.21875 49.421875 
Q 16.21875 41.5 20.09375 36.953125 
Q 23.96875 32.421875 30.609375 32.421875 
z
" id="DejaVuSans-57"/>
     <path d="M 10.6875 12.40625 
L 21 12.40625 
L 21 0 
L 10.6875 0 
z
" id="DejaVuSans-46"/>
     <path d="M 2.984375 54.6875 
L 12.5 54.6875 
L 29.59375 8.796875 
L 46.6875 54.6875 
L 56.203125 54.6875 
L 35.6875 0 
L 23.484375 0 
z
" id="DejaVuSans-118"/>
    </defs>
    <g transform="translate(392.638125 45.84)scale(0.12 -0.12)">
     <use xlink:href="#DejaVuSans-115"/>
     <use x="52.099609" xlink:href="#DejaVuSans-121"/>
     <use x="111.279297" xlink:href="#DejaVuSans-110"/>
     <use x="174.658203" xlink:href="#DejaVuSans-116"/>
     <use x="213.867188" xlink:href="#DejaVuSans-104"/>
     <use x="277.246094" xlink:href="#DejaVuSans-101"/>
     <use x="338.769531" xlink:href="#DejaVuSans-116"/>
     <use x="377.978516" xlink:href="#DejaVuSans-105"/>
     <use x="405.761719" xlink:href="#DejaVuSans-99"/>
     <use x="460.742188" xlink:href="#DejaVuSans-95"/>
     <use x="510.742188" xlink:href="#DejaVuSans-57"/>
     <use x="574.365234" xlink:href="#DejaVuSans-48"/>
     <use x="637.988281" xlink:href="#DejaVuSans-46"/>
     <use x="669.775391" xlink:href="#DejaVuSans-99"/>
     <use x="724.755859" xlink:href="#DejaVuSans-115"/>
     <use x="776.855469" xlink:href="#DejaVuSans-118"/>
    </g>
   </g>
   <g id="legend_1">
    <g id="patch_43">
     <path d="M 115 74.518125 
L 174.315625 74.518125 
Q 176.315625 74.518125 176.315625 72.518125 
L 176.315625 58.84 
Q 176.315625 56.84 174.315625 56.84 
L 115 56.84 
Q 113 56.84 113 58.84 
L 113 72.518125 
Q 113 74.518125 115 74.518125 
z
" style="fill:#ffffff;opacity:0.8;stroke:#cccccc;stroke-linejoin:miter;"/>
    </g>
    <g id="line2d_17">
     <path d="M 117 64.938438 
L 137 64.938438 
" style="fill:none;stroke:#1f77b4;stroke-linecap:square;stroke-width:1.5;"/>
    </g>
    <g id="line2d_18"/>
    <g id="text_18">
     <!-- value -->
     <g transform="translate(145 68.438438)scale(0.1 -0.1)">
      <use xlink:href="#DejaVuSans-118"/>
      <use x="59.179688" xlink:href="#DejaVuSans-97"/>
      <use x="120.458984" xlink:href="#DejaVuSans-108"/>
      <use x="148.242188" xlink:href="#DejaVuSans-117"/>
      <use x="211.621094" xlink:href="#DejaVuSans-101"/>
     </g>
    </g>
   </g>
  </g>
 </g>
 <defs>
  <clipPath id="p9c13622a53">
   <rect height="332.64" width="669.6" x="108" y="51.84"/>
  </clipPath>
 </defs>
</svg>
