<?xml version="1.0" encoding="utf-8" standalone="no"?>
<!DOCTYPE svg PUBLIC "-//W3C//DTD SVG 1.1//EN"
  "http://www.w3.org/Graphics/SVG/1.1/DTD/svg11.dtd">
<!-- Created with matplotlib (https://matplotlib.org/) -->
<svg height="432pt" version="1.1" viewBox="0 0 864 432" width="864pt" xmlns="http://www.w3.org/2000/svg" xmlns:xlink="http://www.w3.org/1999/xlink">
 <defs>
  <style type="text/css">
*{stroke-linecap:butt;stroke-linejoin:round;}
  </style>
 </defs>
 <g id="figure_1">
  <g id="patch_1">
   <path d="M 0 432 
L 864 432 
L 864 0 
L 0 0 
z
" style="fill:#ffffff;"/>
  </g>
  <g id="axes_1">
   <g id="patch_2">
    <path d="M 108 384.48 
L 777.6 384.48 
L 777.6 51.84 
L 108 51.84 
z
" style="fill:#ffffff;"/>
   </g>
   <g id="patch_3">
    <path clip-path="url(#p87f5034734)" d="M 138.436364 384.48 
L 138.436364 51.84 
L 381.202597 51.84 
L 381.202597 384.48 
z
" style="fill:#0000ff;opacity:0.05;"/>
   </g>
   <g id="patch_4">
    <path clip-path="url(#p87f5034734)" d="M 381.202597 384.48 
L 381.202597 51.84 
L 747.163636 51.84 
L 747.163636 384.48 
z
" style="fill:#ff0000;opacity:0.08;"/>
   </g>
   <g id="patch_5">
    <path clip-path="url(#p87f5034734)" d="M 138.436364 384.48 
L 138.436364 51.84 
L 142.05974 51.84 
L 142.05974 384.48 
z
" style="fill:#008000;opacity:0.04;"/>
   </g>
   <g id="patch_6">
    <path clip-path="url(#p87f5034734)" d="M 381.202597 384.48 
L 381.202597 371.1744 
L 384.825974 371.1744 
L 384.825974 384.48 
z
" style="fill:#ff6600;"/>
   </g>
   <g id="patch_7">
    <path clip-path="url(#p87f5034734)" d="M 145.683117 384.48 
L 145.683117 51.84 
L 149.306494 51.84 
L 149.306494 384.48 
z
" style="fill:#008000;opacity:0.04;"/>
   </g>
   <g id="patch_8">
    <path clip-path="url(#p87f5034734)" d="M 145.683117 384.48 
L 145.683117 371.1744 
L 149.306494 371.1744 
L 149.306494 384.48 
z
" style="fill:#ffe500;"/>
   </g>
   <g id="patch_9">
    <path clip-path="url(#p87f5034734)" d="M 388.449351 384.48 
L 388.449351 371.1744 
L 392.072727 371.1744 
L 392.072727 384.48 
z
" style="fill:#ff6600;"/>
   </g>
   <g id="patch_10">
    <path clip-path="url(#p87f5034734)" d="M 152.92987 384.48 
L 152.92987 51.84 
L 156.553247 51.84 
L 156.553247 384.48 
z
" style="fill:#008000;opacity:0.04;"/>
   </g>
   <g id="patch_11">
    <path clip-path="url(#p87f5034734)" d="M 395.696104 384.48 
L 395.696104 371.1744 
L 399.319481 371.1744 
L 399.319481 384.48 
z
" style="fill:#ff6600;"/>
   </g>
   <g id="patch_12">
    <path clip-path="url(#p87f5034734)" d="M 160.176623 384.48 
L 160.176623 51.84 
L 163.8 51.84 
L 163.8 384.48 
z
" style="fill:#008000;opacity:0.04;"/>
   </g>
   <g id="patch_13">
    <path clip-path="url(#p87f5034734)" d="M 167.423377 384.48 
L 167.423377 51.84 
L 171.046753 51.84 
L 171.046753 384.48 
z
" style="fill:#008000;opacity:0.04;"/>
   </g>
   <g id="patch_14">
    <path clip-path="url(#p87f5034734)" d="M 167.423377 384.48 
L 167.423377 371.1744 
L 171.046753 371.1744 
L 171.046753 384.48 
z
" style="fill:#ffe500;"/>
   </g>
   <g id="patch_15">
    <path clip-path="url(#p87f5034734)" d="M 174.67013 384.48 
L 174.67013 51.84 
L 178.293506 51.84 
L 178.293506 384.48 
z
" style="fill:#008000;opacity:0.04;"/>
   </g>
   <g id="patch_16">
    <path clip-path="url(#p87f5034734)" d="M 181.916883 384.48 
L 181.916883 51.84 
L 185.54026 51.84 
L 185.54026 384.48 
z
" style="fill:#008000;opacity:0.04;"/>
   </g>
   <g id="patch_17">
    <path clip-path="url(#p87f5034734)" d="M 189.163636 384.48 
L 189.163636 51.84 
L 192.787013 51.84 
L 192.787013 384.48 
z
" style="fill:#008000;opacity:0.04;"/>
   </g>
   <g id="patch_18">
    <path clip-path="url(#p87f5034734)" d="M 189.163636 384.48 
L 189.163636 371.1744 
L 192.787013 371.1744 
L 192.787013 384.48 
z
" style="fill:#ffe500;"/>
   </g>
   <g id="patch_19">
    <path clip-path="url(#p87f5034734)" d="M 196.41039 384.48 
L 196.41039 51.84 
L 200.033766 51.84 
L 200.033766 384.48 
z
" style="fill:#008000;opacity:0.04;"/>
   </g>
   <g id="patch_20">
    <path clip-path="url(#p87f5034734)" d="M 200.033766 371.1744 
L 200.033766 51.84 
L 203.657143 51.84 
L 203.657143 371.1744 
z
" style="fill:#008000;opacity:0.5;"/>
   </g>
   <g id="patch_21">
    <path clip-path="url(#p87f5034734)" d="M 200.033766 384.48 
L 200.033766 371.1744 
L 203.657143 371.1744 
L 203.657143 384.48 
z
" style="fill:#ffe500;"/>
   </g>
   <g id="patch_22">
    <path clip-path="url(#p87f5034734)" d="M 203.657143 384.48 
L 203.657143 51.84 
L 207.280519 51.84 
L 207.280519 384.48 
z
" style="fill:#008000;opacity:0.04;"/>
   </g>
   <g id="patch_23">
    <path clip-path="url(#p87f5034734)" d="M 210.903896 384.48 
L 210.903896 51.84 
L 214.527273 51.84 
L 214.527273 384.48 
z
" style="fill:#008000;opacity:0.04;"/>
   </g>
   <g id="patch_24">
    <path clip-path="url(#p87f5034734)" d="M 210.903896 384.48 
L 210.903896 371.1744 
L 214.527273 371.1744 
L 214.527273 384.48 
z
" style="fill:#ffe500;"/>
   </g>
   <g id="patch_25">
    <path clip-path="url(#p87f5034734)" d="M 218.150649 384.48 
L 218.150649 51.84 
L 221.774026 51.84 
L 221.774026 384.48 
z
" style="fill:#008000;opacity:0.04;"/>
   </g>
   <g id="patch_26">
    <path clip-path="url(#p87f5034734)" d="M 225.397403 384.48 
L 225.397403 51.84 
L 229.020779 51.84 
L 229.020779 384.48 
z
" style="fill:#008000;opacity:0.04;"/>
   </g>
   <g id="patch_27">
    <path clip-path="url(#p87f5034734)" d="M 232.644156 384.48 
L 232.644156 51.84 
L 236.267532 51.84 
L 236.267532 384.48 
z
" style="fill:#008000;opacity:0.04;"/>
   </g>
   <g id="patch_28">
    <path clip-path="url(#p87f5034734)" d="M 239.890909 384.48 
L 239.890909 51.84 
L 243.514286 51.84 
L 243.514286 384.48 
z
" style="fill:#008000;opacity:0.04;"/>
   </g>
   <g id="patch_29">
    <path clip-path="url(#p87f5034734)" d="M 247.137662 384.48 
L 247.137662 51.84 
L 250.761039 51.84 
L 250.761039 384.48 
z
" style="fill:#008000;opacity:0.04;"/>
   </g>
   <g id="patch_30">
    <path clip-path="url(#p87f5034734)" d="M 493.527273 384.48 
L 493.527273 371.1744 
L 497.150649 371.1744 
L 497.150649 384.48 
z
" style="fill:#ff6600;"/>
   </g>
   <g id="patch_31">
    <path clip-path="url(#p87f5034734)" d="M 254.384416 384.48 
L 254.384416 51.84 
L 258.007792 51.84 
L 258.007792 384.48 
z
" style="fill:#008000;opacity:0.04;"/>
   </g>
   <g id="patch_32">
    <path clip-path="url(#p87f5034734)" d="M 254.384416 371.1744 
L 254.384416 51.84 
L 258.007792 51.84 
L 258.007792 371.1744 
z
" style="fill:#008000;opacity:0.5;"/>
   </g>
   <g id="patch_33">
    <path clip-path="url(#p87f5034734)" d="M 254.384416 384.48 
L 254.384416 371.1744 
L 258.007792 371.1744 
L 258.007792 384.48 
z
" style="fill:#ffe500;"/>
   </g>
   <g id="patch_34">
    <path clip-path="url(#p87f5034734)" d="M 261.631169 384.48 
L 261.631169 51.84 
L 265.254545 51.84 
L 265.254545 384.48 
z
" style="fill:#008000;opacity:0.04;"/>
   </g>
   <g id="patch_35">
    <path clip-path="url(#p87f5034734)" d="M 268.877922 384.48 
L 268.877922 51.84 
L 272.501299 51.84 
L 272.501299 384.48 
z
" style="fill:#008000;opacity:0.04;"/>
   </g>
   <g id="patch_36">
    <path clip-path="url(#p87f5034734)" d="M 276.124675 384.48 
L 276.124675 51.84 
L 279.748052 51.84 
L 279.748052 384.48 
z
" style="fill:#008000;opacity:0.04;"/>
   </g>
   <g id="patch_37">
    <path clip-path="url(#p87f5034734)" d="M 276.124675 384.48 
L 276.124675 371.1744 
L 279.748052 371.1744 
L 279.748052 384.48 
z
" style="fill:#ffe500;"/>
   </g>
   <g id="patch_38">
    <path clip-path="url(#p87f5034734)" d="M 283.371429 384.48 
L 283.371429 51.84 
L 286.994805 51.84 
L 286.994805 384.48 
z
" style="fill:#008000;opacity:0.04;"/>
   </g>
   <g id="patch_39">
    <path clip-path="url(#p87f5034734)" d="M 290.618182 384.48 
L 290.618182 51.84 
L 294.241558 51.84 
L 294.241558 384.48 
z
" style="fill:#008000;opacity:0.04;"/>
   </g>
   <g id="patch_40">
    <path clip-path="url(#p87f5034734)" d="M 297.864935 384.48 
L 297.864935 51.84 
L 301.488312 51.84 
L 301.488312 384.48 
z
" style="fill:#008000;opacity:0.04;"/>
   </g>
   <g id="patch_41">
    <path clip-path="url(#p87f5034734)" d="M 297.864935 384.48 
L 297.864935 371.1744 
L 301.488312 371.1744 
L 301.488312 384.48 
z
" style="fill:#ffe500;"/>
   </g>
   <g id="patch_42">
    <path clip-path="url(#p87f5034734)" d="M 305.111688 384.48 
L 305.111688 51.84 
L 308.735065 51.84 
L 308.735065 384.48 
z
" style="fill:#008000;opacity:0.04;"/>
   </g>
   <g id="patch_43">
    <path clip-path="url(#p87f5034734)" d="M 312.358442 384.48 
L 312.358442 51.84 
L 315.981818 51.84 
L 315.981818 384.48 
z
" style="fill:#008000;opacity:0.04;"/>
   </g>
   <g id="patch_44">
    <path clip-path="url(#p87f5034734)" d="M 319.605195 384.48 
L 319.605195 51.84 
L 323.228571 51.84 
L 323.228571 384.48 
z
" style="fill:#008000;opacity:0.04;"/>
   </g>
   <g id="patch_45">
    <path clip-path="url(#p87f5034734)" d="M 319.605195 384.48 
L 319.605195 371.1744 
L 323.228571 371.1744 
L 323.228571 384.48 
z
" style="fill:#ffe500;"/>
   </g>
   <g id="patch_46">
    <path clip-path="url(#p87f5034734)" d="M 326.851948 384.48 
L 326.851948 51.84 
L 330.475325 51.84 
L 330.475325 384.48 
z
" style="fill:#008000;opacity:0.04;"/>
   </g>
   <g id="patch_47">
    <path clip-path="url(#p87f5034734)" d="M 334.098701 384.48 
L 334.098701 51.84 
L 337.722078 51.84 
L 337.722078 384.48 
z
" style="fill:#008000;opacity:0.04;"/>
   </g>
   <g id="patch_48">
    <path clip-path="url(#p87f5034734)" d="M 341.345455 384.48 
L 341.345455 51.84 
L 344.968831 51.84 
L 344.968831 384.48 
z
" style="fill:#008000;opacity:0.04;"/>
   </g>
   <g id="patch_49">
    <path clip-path="url(#p87f5034734)" d="M 341.345455 384.48 
L 341.345455 371.1744 
L 344.968831 371.1744 
L 344.968831 384.48 
z
" style="fill:#ffe500;"/>
   </g>
   <g id="patch_50">
    <path clip-path="url(#p87f5034734)" d="M 348.592208 384.48 
L 348.592208 51.84 
L 352.215584 51.84 
L 352.215584 384.48 
z
" style="fill:#008000;opacity:0.04;"/>
   </g>
   <g id="patch_51">
    <path clip-path="url(#p87f5034734)" d="M 355.838961 384.48 
L 355.838961 51.84 
L 359.462338 51.84 
L 359.462338 384.48 
z
" style="fill:#008000;opacity:0.04;"/>
   </g>
   <g id="patch_52">
    <path clip-path="url(#p87f5034734)" d="M 363.085714 384.48 
L 363.085714 51.84 
L 366.709091 51.84 
L 366.709091 384.48 
z
" style="fill:#008000;opacity:0.04;"/>
   </g>
   <g id="patch_53">
    <path clip-path="url(#p87f5034734)" d="M 370.332468 384.48 
L 370.332468 51.84 
L 373.955844 51.84 
L 373.955844 384.48 
z
" style="fill:#008000;opacity:0.04;"/>
   </g>
   <g id="patch_54">
    <path clip-path="url(#p87f5034734)" d="M 377.579221 384.48 
L 377.579221 51.84 
L 381.202597 51.84 
L 381.202597 384.48 
z
" style="fill:#008000;opacity:0.04;"/>
   </g>
   <g id="patch_55">
    <path clip-path="url(#p87f5034734)" d="M 381.202597 371.1744 
L 381.202597 51.84 
L 384.825974 51.84 
L 384.825974 371.1744 
z
" style="fill:#008000;opacity:0.5;"/>
   </g>
   <g id="patch_56">
    <path clip-path="url(#p87f5034734)" d="M 384.825974 384.48 
L 384.825974 51.84 
L 388.449351 51.84 
L 388.449351 384.48 
z
" style="fill:#008000;opacity:0.04;"/>
   </g>
   <g id="patch_57">
    <path clip-path="url(#p87f5034734)" d="M 388.449351 371.1744 
L 388.449351 51.84 
L 392.072727 51.84 
L 392.072727 371.1744 
z
" style="fill:#008000;opacity:0.5;"/>
   </g>
   <g id="patch_58">
    <path clip-path="url(#p87f5034734)" d="M 392.072727 384.48 
L 392.072727 51.84 
L 395.696104 51.84 
L 395.696104 384.48 
z
" style="fill:#008000;opacity:0.04;"/>
   </g>
   <g id="patch_59">
    <path clip-path="url(#p87f5034734)" d="M 395.696104 371.1744 
L 395.696104 51.84 
L 399.319481 51.84 
L 399.319481 371.1744 
z
" style="fill:#008000;opacity:0.5;"/>
   </g>
   <g id="patch_60">
    <path clip-path="url(#p87f5034734)" d="M 399.319481 384.48 
L 399.319481 51.84 
L 402.942857 51.84 
L 402.942857 384.48 
z
" style="fill:#008000;opacity:0.04;"/>
   </g>
   <g id="patch_61">
    <path clip-path="url(#p87f5034734)" d="M 406.566234 384.48 
L 406.566234 51.84 
L 410.18961 51.84 
L 410.18961 384.48 
z
" style="fill:#008000;opacity:0.04;"/>
   </g>
   <g id="patch_62">
    <path clip-path="url(#p87f5034734)" d="M 413.812987 384.48 
L 413.812987 51.84 
L 417.436364 51.84 
L 417.436364 384.48 
z
" style="fill:#008000;opacity:0.04;"/>
   </g>
   <g id="patch_63">
    <path clip-path="url(#p87f5034734)" d="M 421.05974 384.48 
L 421.05974 51.84 
L 424.683117 51.84 
L 424.683117 384.48 
z
" style="fill:#008000;opacity:0.04;"/>
   </g>
   <g id="patch_64">
    <path clip-path="url(#p87f5034734)" d="M 428.306494 384.48 
L 428.306494 51.84 
L 431.92987 51.84 
L 431.92987 384.48 
z
" style="fill:#008000;opacity:0.04;"/>
   </g>
   <g id="patch_65">
    <path clip-path="url(#p87f5034734)" d="M 435.553247 384.48 
L 435.553247 51.84 
L 439.176623 51.84 
L 439.176623 384.48 
z
" style="fill:#008000;opacity:0.04;"/>
   </g>
   <g id="patch_66">
    <path clip-path="url(#p87f5034734)" d="M 442.8 384.48 
L 442.8 51.84 
L 446.423377 51.84 
L 446.423377 384.48 
z
" style="fill:#008000;opacity:0.04;"/>
   </g>
   <g id="patch_67">
    <path clip-path="url(#p87f5034734)" d="M 450.046753 384.48 
L 450.046753 51.84 
L 453.67013 51.84 
L 453.67013 384.48 
z
" style="fill:#008000;opacity:0.04;"/>
   </g>
   <g id="patch_68">
    <path clip-path="url(#p87f5034734)" d="M 457.293506 384.48 
L 457.293506 51.84 
L 460.916883 51.84 
L 460.916883 384.48 
z
" style="fill:#008000;opacity:0.04;"/>
   </g>
   <g id="patch_69">
    <path clip-path="url(#p87f5034734)" d="M 464.54026 384.48 
L 464.54026 51.84 
L 468.163636 51.84 
L 468.163636 384.48 
z
" style="fill:#008000;opacity:0.04;"/>
   </g>
   <g id="patch_70">
    <path clip-path="url(#p87f5034734)" d="M 471.787013 384.48 
L 471.787013 51.84 
L 475.41039 51.84 
L 475.41039 384.48 
z
" style="fill:#008000;opacity:0.04;"/>
   </g>
   <g id="patch_71">
    <path clip-path="url(#p87f5034734)" d="M 479.033766 384.48 
L 479.033766 51.84 
L 482.657143 51.84 
L 482.657143 384.48 
z
" style="fill:#008000;opacity:0.04;"/>
   </g>
   <g id="patch_72">
    <path clip-path="url(#p87f5034734)" d="M 486.280519 384.48 
L 486.280519 51.84 
L 489.903896 51.84 
L 489.903896 384.48 
z
" style="fill:#008000;opacity:0.04;"/>
   </g>
   <g id="patch_73">
    <path clip-path="url(#p87f5034734)" d="M 493.527273 384.48 
L 493.527273 51.84 
L 497.150649 51.84 
L 497.150649 384.48 
z
" style="fill:#008000;opacity:0.04;"/>
   </g>
   <g id="patch_74">
    <path clip-path="url(#p87f5034734)" d="M 493.527273 371.1744 
L 493.527273 51.84 
L 497.150649 51.84 
L 497.150649 371.1744 
z
" style="fill:#008000;opacity:0.5;"/>
   </g>
   <g id="patch_75">
    <path clip-path="url(#p87f5034734)" d="M 500.774026 384.48 
L 500.774026 51.84 
L 504.397403 51.84 
L 504.397403 384.48 
z
" style="fill:#008000;opacity:0.04;"/>
   </g>
   <g id="patch_76">
    <path clip-path="url(#p87f5034734)" d="M 508.020779 384.48 
L 508.020779 51.84 
L 511.644156 51.84 
L 511.644156 384.48 
z
" style="fill:#008000;opacity:0.04;"/>
   </g>
   <g id="patch_77">
    <path clip-path="url(#p87f5034734)" d="M 515.267532 384.48 
L 515.267532 51.84 
L 518.890909 51.84 
L 518.890909 384.48 
z
" style="fill:#008000;opacity:0.04;"/>
   </g>
   <g id="patch_78">
    <path clip-path="url(#p87f5034734)" d="M 522.514286 384.48 
L 522.514286 51.84 
L 526.137662 51.84 
L 526.137662 384.48 
z
" style="fill:#008000;opacity:0.04;"/>
   </g>
   <g id="patch_79">
    <path clip-path="url(#p87f5034734)" d="M 529.761039 384.48 
L 529.761039 51.84 
L 533.384416 51.84 
L 533.384416 384.48 
z
" style="fill:#008000;opacity:0.04;"/>
   </g>
   <g id="patch_80">
    <path clip-path="url(#p87f5034734)" d="M 537.007792 384.48 
L 537.007792 51.84 
L 540.631169 51.84 
L 540.631169 384.48 
z
" style="fill:#008000;opacity:0.04;"/>
   </g>
   <g id="patch_81">
    <path clip-path="url(#p87f5034734)" d="M 544.254545 384.48 
L 544.254545 51.84 
L 547.877922 51.84 
L 547.877922 384.48 
z
" style="fill:#008000;opacity:0.04;"/>
   </g>
   <g id="patch_82">
    <path clip-path="url(#p87f5034734)" d="M 551.501299 384.48 
L 551.501299 51.84 
L 555.124675 51.84 
L 555.124675 384.48 
z
" style="fill:#008000;opacity:0.04;"/>
   </g>
   <g id="patch_83">
    <path clip-path="url(#p87f5034734)" d="M 558.748052 384.48 
L 558.748052 51.84 
L 562.371429 51.84 
L 562.371429 384.48 
z
" style="fill:#008000;opacity:0.04;"/>
   </g>
   <g id="patch_84">
    <path clip-path="url(#p87f5034734)" d="M 565.994805 384.48 
L 565.994805 51.84 
L 569.618182 51.84 
L 569.618182 384.48 
z
" style="fill:#008000;opacity:0.04;"/>
   </g>
   <g id="patch_85">
    <path clip-path="url(#p87f5034734)" d="M 573.241558 384.48 
L 573.241558 51.84 
L 576.864935 51.84 
L 576.864935 384.48 
z
" style="fill:#008000;opacity:0.04;"/>
   </g>
   <g id="patch_86">
    <path clip-path="url(#p87f5034734)" d="M 580.488312 384.48 
L 580.488312 51.84 
L 584.111688 51.84 
L 584.111688 384.48 
z
" style="fill:#008000;opacity:0.04;"/>
   </g>
   <g id="patch_87">
    <path clip-path="url(#p87f5034734)" d="M 587.735065 384.48 
L 587.735065 51.84 
L 591.358442 51.84 
L 591.358442 384.48 
z
" style="fill:#008000;opacity:0.04;"/>
   </g>
   <g id="patch_88">
    <path clip-path="url(#p87f5034734)" d="M 594.981818 384.48 
L 594.981818 51.84 
L 598.605195 51.84 
L 598.605195 384.48 
z
" style="fill:#008000;opacity:0.04;"/>
   </g>
   <g id="patch_89">
    <path clip-path="url(#p87f5034734)" d="M 602.228571 384.48 
L 602.228571 51.84 
L 605.851948 51.84 
L 605.851948 384.48 
z
" style="fill:#008000;opacity:0.04;"/>
   </g>
   <g id="patch_90">
    <path clip-path="url(#p87f5034734)" d="M 609.475325 384.48 
L 609.475325 51.84 
L 613.098701 51.84 
L 613.098701 384.48 
z
" style="fill:#008000;opacity:0.04;"/>
   </g>
   <g id="patch_91">
    <path clip-path="url(#p87f5034734)" d="M 616.722078 384.48 
L 616.722078 51.84 
L 620.345455 51.84 
L 620.345455 384.48 
z
" style="fill:#008000;opacity:0.04;"/>
   </g>
   <g id="patch_92">
    <path clip-path="url(#p87f5034734)" d="M 623.968831 384.48 
L 623.968831 51.84 
L 627.592208 51.84 
L 627.592208 384.48 
z
" style="fill:#008000;opacity:0.04;"/>
   </g>
   <g id="patch_93">
    <path clip-path="url(#p87f5034734)" d="M 631.215584 384.48 
L 631.215584 51.84 
L 634.838961 51.84 
L 634.838961 384.48 
z
" style="fill:#008000;opacity:0.04;"/>
   </g>
   <g id="patch_94">
    <path clip-path="url(#p87f5034734)" d="M 638.462338 384.48 
L 638.462338 51.84 
L 642.085714 51.84 
L 642.085714 384.48 
z
" style="fill:#008000;opacity:0.04;"/>
   </g>
   <g id="patch_95">
    <path clip-path="url(#p87f5034734)" d="M 645.709091 384.48 
L 645.709091 51.84 
L 649.332468 51.84 
L 649.332468 384.48 
z
" style="fill:#008000;opacity:0.04;"/>
   </g>
   <g id="patch_96">
    <path clip-path="url(#p87f5034734)" d="M 652.955844 384.48 
L 652.955844 51.84 
L 656.579221 51.84 
L 656.579221 384.48 
z
" style="fill:#008000;opacity:0.04;"/>
   </g>
   <g id="patch_97">
    <path clip-path="url(#p87f5034734)" d="M 660.202597 384.48 
L 660.202597 51.84 
L 663.825974 51.84 
L 663.825974 384.48 
z
" style="fill:#008000;opacity:0.04;"/>
   </g>
   <g id="patch_98">
    <path clip-path="url(#p87f5034734)" d="M 667.449351 384.48 
L 667.449351 51.84 
L 671.072727 51.84 
L 671.072727 384.48 
z
" style="fill:#008000;opacity:0.04;"/>
   </g>
   <g id="patch_99">
    <path clip-path="url(#p87f5034734)" d="M 674.696104 384.48 
L 674.696104 51.84 
L 678.319481 51.84 
L 678.319481 384.48 
z
" style="fill:#008000;opacity:0.04;"/>
   </g>
   <g id="patch_100">
    <path clip-path="url(#p87f5034734)" d="M 681.942857 384.48 
L 681.942857 51.84 
L 685.566234 51.84 
L 685.566234 384.48 
z
" style="fill:#008000;opacity:0.04;"/>
   </g>
   <g id="patch_101">
    <path clip-path="url(#p87f5034734)" d="M 689.18961 384.48 
L 689.18961 51.84 
L 692.812987 51.84 
L 692.812987 384.48 
z
" style="fill:#008000;opacity:0.04;"/>
   </g>
   <g id="patch_102">
    <path clip-path="url(#p87f5034734)" d="M 696.436364 384.48 
L 696.436364 51.84 
L 700.05974 51.84 
L 700.05974 384.48 
z
" style="fill:#008000;opacity:0.04;"/>
   </g>
   <g id="patch_103">
    <path clip-path="url(#p87f5034734)" d="M 703.683117 384.48 
L 703.683117 51.84 
L 707.306494 51.84 
L 707.306494 384.48 
z
" style="fill:#008000;opacity:0.04;"/>
   </g>
   <g id="patch_104">
    <path clip-path="url(#p87f5034734)" d="M 710.92987 384.48 
L 710.92987 51.84 
L 714.553247 51.84 
L 714.553247 384.48 
z
" style="fill:#008000;opacity:0.04;"/>
   </g>
   <g id="patch_105">
    <path clip-path="url(#p87f5034734)" d="M 718.176623 384.48 
L 718.176623 51.84 
L 721.8 51.84 
L 721.8 384.48 
z
" style="fill:#008000;opacity:0.04;"/>
   </g>
   <g id="patch_106">
    <path clip-path="url(#p87f5034734)" d="M 725.423377 384.48 
L 725.423377 51.84 
L 729.046753 51.84 
L 729.046753 384.48 
z
" style="fill:#008000;opacity:0.04;"/>
   </g>
   <g id="patch_107">
    <path clip-path="url(#p87f5034734)" d="M 732.67013 384.48 
L 732.67013 51.84 
L 736.293506 51.84 
L 736.293506 384.48 
z
" style="fill:#008000;opacity:0.04;"/>
   </g>
   <g id="patch_108">
    <path clip-path="url(#p87f5034734)" d="M 739.916883 384.48 
L 739.916883 51.84 
L 743.54026 51.84 
L 743.54026 384.48 
z
" style="fill:#008000;opacity:0.04;"/>
   </g>
   <g id="matplotlib.axis_1">
    <g id="xtick_1">
     <g id="line2d_1">
      <defs>
       <path d="M 0 0 
L 0 3.5 
" id="m28eef9d948" style="stroke:#000000;stroke-width:0.8;"/>
      </defs>
      <g>
       <use style="stroke:#000000;stroke-width:0.8;" x="138.436364" xlink:href="#m28eef9d948" y="384.48"/>
      </g>
     </g>
     <g id="text_1">
      <!-- 0 -->
      <defs>
       <path d="M 31.78125 66.40625 
Q 24.171875 66.40625 20.328125 58.90625 
Q 16.5 51.421875 16.5 36.375 
Q 16.5 21.390625 20.328125 13.890625 
Q 24.171875 6.390625 31.78125 6.390625 
Q 39.453125 6.390625 43.28125 13.890625 
Q 47.125 21.390625 47.125 36.375 
Q 47.125 51.421875 43.28125 58.90625 
Q 39.453125 66.40625 31.78125 66.40625 
z
M 31.78125 74.21875 
Q 44.046875 74.21875 50.515625 64.515625 
Q 56.984375 54.828125 56.984375 36.375 
Q 56.984375 17.96875 50.515625 8.265625 
Q 44.046875 -1.421875 31.78125 -1.421875 
Q 19.53125 -1.421875 13.0625 8.265625 
Q 6.59375 17.96875 6.59375 36.375 
Q 6.59375 54.828125 13.0625 64.515625 
Q 19.53125 74.21875 31.78125 74.21875 
z
" id="DejaVuSans-48"/>
      </defs>
      <g transform="translate(135.255114 399.078438)scale(0.1 -0.1)">
       <use xlink:href="#DejaVuSans-48"/>
      </g>
     </g>
    </g>
    <g id="xtick_2">
     <g id="line2d_2">
      <g>
       <use style="stroke:#000000;stroke-width:0.8;" x="229.020779" xlink:href="#m28eef9d948" y="384.48"/>
      </g>
     </g>
     <g id="text_2">
      <!-- 250 -->
      <defs>
       <path d="M 19.1875 8.296875 
L 53.609375 8.296875 
L 53.609375 0 
L 7.328125 0 
L 7.328125 8.296875 
Q 12.9375 14.109375 22.625 23.890625 
Q 32.328125 33.6875 34.8125 36.53125 
Q 39.546875 41.84375 41.421875 45.53125 
Q 43.3125 49.21875 43.3125 52.78125 
Q 43.3125 58.59375 39.234375 62.25 
Q 35.15625 65.921875 28.609375 65.921875 
Q 23.96875 65.921875 18.8125 64.3125 
Q 13.671875 62.703125 7.8125 59.421875 
L 7.8125 69.390625 
Q 13.765625 71.78125 18.9375 73 
Q 24.125 74.21875 28.421875 74.21875 
Q 39.75 74.21875 46.484375 68.546875 
Q 53.21875 62.890625 53.21875 53.421875 
Q 53.21875 48.921875 51.53125 44.890625 
Q 49.859375 40.875 45.40625 35.40625 
Q 44.1875 33.984375 37.640625 27.21875 
Q 31.109375 20.453125 19.1875 8.296875 
z
" id="DejaVuSans-50"/>
       <path d="M 10.796875 72.90625 
L 49.515625 72.90625 
L 49.515625 64.59375 
L 19.828125 64.59375 
L 19.828125 46.734375 
Q 21.96875 47.46875 24.109375 47.828125 
Q 26.265625 48.1875 28.421875 48.1875 
Q 40.625 48.1875 47.75 41.5 
Q 54.890625 34.8125 54.890625 23.390625 
Q 54.890625 11.625 47.5625 5.09375 
Q 40.234375 -1.421875 26.90625 -1.421875 
Q 22.3125 -1.421875 17.546875 -0.640625 
Q 12.796875 0.140625 7.71875 1.703125 
L 7.71875 11.625 
Q 12.109375 9.234375 16.796875 8.0625 
Q 21.484375 6.890625 26.703125 6.890625 
Q 35.15625 6.890625 40.078125 11.328125 
Q 45.015625 15.765625 45.015625 23.390625 
Q 45.015625 31 40.078125 35.4375 
Q 35.15625 39.890625 26.703125 39.890625 
Q 22.75 39.890625 18.8125 39.015625 
Q 14.890625 38.140625 10.796875 36.28125 
z
" id="DejaVuSans-53"/>
      </defs>
      <g transform="translate(219.477029 399.078438)scale(0.1 -0.1)">
       <use xlink:href="#DejaVuSans-50"/>
       <use x="63.623047" xlink:href="#DejaVuSans-53"/>
       <use x="127.246094" xlink:href="#DejaVuSans-48"/>
      </g>
     </g>
    </g>
    <g id="xtick_3">
     <g id="line2d_3">
      <g>
       <use style="stroke:#000000;stroke-width:0.8;" x="319.605195" xlink:href="#m28eef9d948" y="384.48"/>
      </g>
     </g>
     <g id="text_3">
      <!-- 500 -->
      <g transform="translate(310.061445 399.078438)scale(0.1 -0.1)">
       <use xlink:href="#DejaVuSans-53"/>
       <use x="63.623047" xlink:href="#DejaVuSans-48"/>
       <use x="127.246094" xlink:href="#DejaVuSans-48"/>
      </g>
     </g>
    </g>
    <g id="xtick_4">
     <g id="line2d_4">
      <g>
       <use style="stroke:#000000;stroke-width:0.8;" x="410.18961" xlink:href="#m28eef9d948" y="384.48"/>
      </g>
     </g>
     <g id="text_4">
      <!-- 750 -->
      <defs>
       <path d="M 8.203125 72.90625 
L 55.078125 72.90625 
L 55.078125 68.703125 
L 28.609375 0 
L 18.3125 0 
L 43.21875 64.59375 
L 8.203125 64.59375 
z
" id="DejaVuSans-55"/>
      </defs>
      <g transform="translate(400.64586 399.078438)scale(0.1 -0.1)">
       <use xlink:href="#DejaVuSans-55"/>
       <use x="63.623047" xlink:href="#DejaVuSans-53"/>
       <use x="127.246094" xlink:href="#DejaVuSans-48"/>
      </g>
     </g>
    </g>
    <g id="xtick_5">
     <g id="line2d_5">
      <g>
       <use style="stroke:#000000;stroke-width:0.8;" x="500.774026" xlink:href="#m28eef9d948" y="384.48"/>
      </g>
     </g>
     <g id="text_5">
      <!-- 1000 -->
      <defs>
       <path d="M 12.40625 8.296875 
L 28.515625 8.296875 
L 28.515625 63.921875 
L 10.984375 60.40625 
L 10.984375 69.390625 
L 28.421875 72.90625 
L 38.28125 72.90625 
L 38.28125 8.296875 
L 54.390625 8.296875 
L 54.390625 0 
L 12.40625 0 
z
" id="DejaVuSans-49"/>
      </defs>
      <g transform="translate(488.049026 399.078438)scale(0.1 -0.1)">
       <use xlink:href="#DejaVuSans-49"/>
       <use x="63.623047" xlink:href="#DejaVuSans-48"/>
       <use x="127.246094" xlink:href="#DejaVuSans-48"/>
       <use x="190.869141" xlink:href="#DejaVuSans-48"/>
      </g>
     </g>
    </g>
    <g id="xtick_6">
     <g id="line2d_6">
      <g>
       <use style="stroke:#000000;stroke-width:0.8;" x="591.358442" xlink:href="#m28eef9d948" y="384.48"/>
      </g>
     </g>
     <g id="text_6">
      <!-- 1250 -->
      <g transform="translate(578.633442 399.078438)scale(0.1 -0.1)">
       <use xlink:href="#DejaVuSans-49"/>
       <use x="63.623047" xlink:href="#DejaVuSans-50"/>
       <use x="127.246094" xlink:href="#DejaVuSans-53"/>
       <use x="190.869141" xlink:href="#DejaVuSans-48"/>
      </g>
     </g>
    </g>
    <g id="xtick_7">
     <g id="line2d_7">
      <g>
       <use style="stroke:#000000;stroke-width:0.8;" x="681.942857" xlink:href="#m28eef9d948" y="384.48"/>
      </g>
     </g>
     <g id="text_7">
      <!-- 1500 -->
      <g transform="translate(669.217857 399.078438)scale(0.1 -0.1)">
       <use xlink:href="#DejaVuSans-49"/>
       <use x="63.623047" xlink:href="#DejaVuSans-53"/>
       <use x="127.246094" xlink:href="#DejaVuSans-48"/>
       <use x="190.869141" xlink:href="#DejaVuSans-48"/>
      </g>
     </g>
    </g>
    <g id="xtick_8">
     <g id="line2d_8">
      <g>
       <use style="stroke:#000000;stroke-width:0.8;" x="772.527273" xlink:href="#m28eef9d948" y="384.48"/>
      </g>
     </g>
     <g id="text_8">
      <!-- 1750 -->
      <g transform="translate(759.802273 399.078438)scale(0.1 -0.1)">
       <use xlink:href="#DejaVuSans-49"/>
       <use x="63.623047" xlink:href="#DejaVuSans-55"/>
       <use x="127.246094" xlink:href="#DejaVuSans-53"/>
       <use x="190.869141" xlink:href="#DejaVuSans-48"/>
      </g>
     </g>
    </g>
    <g id="text_9">
     <!-- Timestamp -->
     <defs>
      <path d="M -0.296875 72.90625 
L 61.375 72.90625 
L 61.375 64.59375 
L 35.5 64.59375 
L 35.5 0 
L 25.59375 0 
L 25.59375 64.59375 
L -0.296875 64.59375 
z
" id="DejaVuSans-84"/>
      <path d="M 9.421875 54.6875 
L 18.40625 54.6875 
L 18.40625 0 
L 9.421875 0 
z
M 9.421875 75.984375 
L 18.40625 75.984375 
L 18.40625 64.59375 
L 9.421875 64.59375 
z
" id="DejaVuSans-105"/>
      <path d="M 52 44.1875 
Q 55.375 50.25 60.0625 53.125 
Q 64.75 56 71.09375 56 
Q 79.640625 56 84.28125 50.015625 
Q 88.921875 44.046875 88.921875 33.015625 
L 88.921875 0 
L 79.890625 0 
L 79.890625 32.71875 
Q 79.890625 40.578125 77.09375 44.375 
Q 74.3125 48.1875 68.609375 48.1875 
Q 61.625 48.1875 57.5625 43.546875 
Q 53.515625 38.921875 53.515625 30.90625 
L 53.515625 0 
L 44.484375 0 
L 44.484375 32.71875 
Q 44.484375 40.625 41.703125 44.40625 
Q 38.921875 48.1875 33.109375 48.1875 
Q 26.21875 48.1875 22.15625 43.53125 
Q 18.109375 38.875 18.109375 30.90625 
L 18.109375 0 
L 9.078125 0 
L 9.078125 54.6875 
L 18.109375 54.6875 
L 18.109375 46.1875 
Q 21.1875 51.21875 25.484375 53.609375 
Q 29.78125 56 35.6875 56 
Q 41.65625 56 45.828125 52.96875 
Q 50 49.953125 52 44.1875 
z
" id="DejaVuSans-109"/>
      <path d="M 56.203125 29.59375 
L 56.203125 25.203125 
L 14.890625 25.203125 
Q 15.484375 15.921875 20.484375 11.0625 
Q 25.484375 6.203125 34.421875 6.203125 
Q 39.59375 6.203125 44.453125 7.46875 
Q 49.3125 8.734375 54.109375 11.28125 
L 54.109375 2.78125 
Q 49.265625 0.734375 44.1875 -0.34375 
Q 39.109375 -1.421875 33.890625 -1.421875 
Q 20.796875 -1.421875 13.15625 6.1875 
Q 5.515625 13.8125 5.515625 26.8125 
Q 5.515625 40.234375 12.765625 48.109375 
Q 20.015625 56 32.328125 56 
Q 43.359375 56 49.78125 48.890625 
Q 56.203125 41.796875 56.203125 29.59375 
z
M 47.21875 32.234375 
Q 47.125 39.59375 43.09375 43.984375 
Q 39.0625 48.390625 32.421875 48.390625 
Q 24.90625 48.390625 20.390625 44.140625 
Q 15.875 39.890625 15.1875 32.171875 
z
" id="DejaVuSans-101"/>
      <path d="M 44.28125 53.078125 
L 44.28125 44.578125 
Q 40.484375 46.53125 36.375 47.5 
Q 32.28125 48.484375 27.875 48.484375 
Q 21.1875 48.484375 17.84375 46.4375 
Q 14.5 44.390625 14.5 40.28125 
Q 14.5 37.15625 16.890625 35.375 
Q 19.28125 33.59375 26.515625 31.984375 
L 29.59375 31.296875 
Q 39.15625 29.25 43.1875 25.515625 
Q 47.21875 21.78125 47.21875 15.09375 
Q 47.21875 7.46875 41.1875 3.015625 
Q 35.15625 -1.421875 24.609375 -1.421875 
Q 20.21875 -1.421875 15.453125 -0.5625 
Q 10.6875 0.296875 5.421875 2 
L 5.421875 11.28125 
Q 10.40625 8.6875 15.234375 7.390625 
Q 20.0625 6.109375 24.8125 6.109375 
Q 31.15625 6.109375 34.5625 8.28125 
Q 37.984375 10.453125 37.984375 14.40625 
Q 37.984375 18.0625 35.515625 20.015625 
Q 33.0625 21.96875 24.703125 23.78125 
L 21.578125 24.515625 
Q 13.234375 26.265625 9.515625 29.90625 
Q 5.8125 33.546875 5.8125 39.890625 
Q 5.8125 47.609375 11.28125 51.796875 
Q 16.75 56 26.8125 56 
Q 31.78125 56 36.171875 55.265625 
Q 40.578125 54.546875 44.28125 53.078125 
z
" id="DejaVuSans-115"/>
      <path d="M 18.3125 70.21875 
L 18.3125 54.6875 
L 36.8125 54.6875 
L 36.8125 47.703125 
L 18.3125 47.703125 
L 18.3125 18.015625 
Q 18.3125 11.328125 20.140625 9.421875 
Q 21.96875 7.515625 27.59375 7.515625 
L 36.8125 7.515625 
L 36.8125 0 
L 27.59375 0 
Q 17.1875 0 13.234375 3.875 
Q 9.28125 7.765625 9.28125 18.015625 
L 9.28125 47.703125 
L 2.6875 47.703125 
L 2.6875 54.6875 
L 9.28125 54.6875 
L 9.28125 70.21875 
z
" id="DejaVuSans-116"/>
      <path d="M 34.28125 27.484375 
Q 23.390625 27.484375 19.1875 25 
Q 14.984375 22.515625 14.984375 16.5 
Q 14.984375 11.71875 18.140625 8.90625 
Q 21.296875 6.109375 26.703125 6.109375 
Q 34.1875 6.109375 38.703125 11.40625 
Q 43.21875 16.703125 43.21875 25.484375 
L 43.21875 27.484375 
z
M 52.203125 31.203125 
L 52.203125 0 
L 43.21875 0 
L 43.21875 8.296875 
Q 40.140625 3.328125 35.546875 0.953125 
Q 30.953125 -1.421875 24.3125 -1.421875 
Q 15.921875 -1.421875 10.953125 3.296875 
Q 6 8.015625 6 15.921875 
Q 6 25.140625 12.171875 29.828125 
Q 18.359375 34.515625 30.609375 34.515625 
L 43.21875 34.515625 
L 43.21875 35.40625 
Q 43.21875 41.609375 39.140625 45 
Q 35.0625 48.390625 27.6875 48.390625 
Q 23 48.390625 18.546875 47.265625 
Q 14.109375 46.140625 10.015625 43.890625 
L 10.015625 52.203125 
Q 14.9375 54.109375 19.578125 55.046875 
Q 24.21875 56 28.609375 56 
Q 40.484375 56 46.34375 49.84375 
Q 52.203125 43.703125 52.203125 31.203125 
z
" id="DejaVuSans-97"/>
      <path d="M 18.109375 8.203125 
L 18.109375 -20.796875 
L 9.078125 -20.796875 
L 9.078125 54.6875 
L 18.109375 54.6875 
L 18.109375 46.390625 
Q 20.953125 51.265625 25.265625 53.625 
Q 29.59375 56 35.59375 56 
Q 45.5625 56 51.78125 48.09375 
Q 58.015625 40.1875 58.015625 27.296875 
Q 58.015625 14.40625 51.78125 6.484375 
Q 45.5625 -1.421875 35.59375 -1.421875 
Q 29.59375 -1.421875 25.265625 0.953125 
Q 20.953125 3.328125 18.109375 8.203125 
z
M 48.6875 27.296875 
Q 48.6875 37.203125 44.609375 42.84375 
Q 40.53125 48.484375 33.40625 48.484375 
Q 26.265625 48.484375 22.1875 42.84375 
Q 18.109375 37.203125 18.109375 27.296875 
Q 18.109375 17.390625 22.1875 11.75 
Q 26.265625 6.109375 33.40625 6.109375 
Q 40.53125 6.109375 44.609375 11.75 
Q 48.6875 17.390625 48.6875 27.296875 
z
" id="DejaVuSans-112"/>
     </defs>
     <g transform="translate(414.739062 412.756563)scale(0.1 -0.1)">
      <use xlink:href="#DejaVuSans-84"/>
      <use x="61.037109" xlink:href="#DejaVuSans-105"/>
      <use x="88.820312" xlink:href="#DejaVuSans-109"/>
      <use x="186.232422" xlink:href="#DejaVuSans-101"/>
      <use x="247.755859" xlink:href="#DejaVuSans-115"/>
      <use x="299.855469" xlink:href="#DejaVuSans-116"/>
      <use x="339.064453" xlink:href="#DejaVuSans-97"/>
      <use x="400.34375" xlink:href="#DejaVuSans-109"/>
      <use x="497.755859" xlink:href="#DejaVuSans-112"/>
     </g>
    </g>
   </g>
   <g id="matplotlib.axis_2">
    <g id="ytick_1">
     <g id="line2d_9">
      <defs>
       <path d="M 0 0 
L -3.5 0 
" id="m52537ab1d1" style="stroke:#000000;stroke-width:0.8;"/>
      </defs>
      <g>
       <use style="stroke:#000000;stroke-width:0.8;" x="108" xlink:href="#m52537ab1d1" y="346.923843"/>
      </g>
     </g>
     <g id="text_10">
      <!-- −5000 -->
      <defs>
       <path d="M 10.59375 35.5 
L 73.1875 35.5 
L 73.1875 27.203125 
L 10.59375 27.203125 
z
" id="DejaVuSans-8722"/>
      </defs>
      <g transform="translate(67.170312 350.723062)scale(0.1 -0.1)">
       <use xlink:href="#DejaVuSans-8722"/>
       <use x="83.789062" xlink:href="#DejaVuSans-53"/>
       <use x="147.412109" xlink:href="#DejaVuSans-48"/>
       <use x="211.035156" xlink:href="#DejaVuSans-48"/>
       <use x="274.658203" xlink:href="#DejaVuSans-48"/>
      </g>
     </g>
    </g>
    <g id="ytick_2">
     <g id="line2d_10">
      <g>
       <use style="stroke:#000000;stroke-width:0.8;" x="108" xlink:href="#m52537ab1d1" y="295.430515"/>
      </g>
     </g>
     <g id="text_11">
      <!-- −4000 -->
      <defs>
       <path d="M 37.796875 64.3125 
L 12.890625 25.390625 
L 37.796875 25.390625 
z
M 35.203125 72.90625 
L 47.609375 72.90625 
L 47.609375 25.390625 
L 58.015625 25.390625 
L 58.015625 17.1875 
L 47.609375 17.1875 
L 47.609375 0 
L 37.796875 0 
L 37.796875 17.1875 
L 4.890625 17.1875 
L 4.890625 26.703125 
z
" id="DejaVuSans-52"/>
      </defs>
      <g transform="translate(67.170312 299.229733)scale(0.1 -0.1)">
       <use xlink:href="#DejaVuSans-8722"/>
       <use x="83.789062" xlink:href="#DejaVuSans-52"/>
       <use x="147.412109" xlink:href="#DejaVuSans-48"/>
       <use x="211.035156" xlink:href="#DejaVuSans-48"/>
       <use x="274.658203" xlink:href="#DejaVuSans-48"/>
      </g>
     </g>
    </g>
    <g id="ytick_3">
     <g id="line2d_11">
      <g>
       <use style="stroke:#000000;stroke-width:0.8;" x="108" xlink:href="#m52537ab1d1" y="243.937186"/>
      </g>
     </g>
     <g id="text_12">
      <!-- −3000 -->
      <defs>
       <path d="M 40.578125 39.3125 
Q 47.65625 37.796875 51.625 33 
Q 55.609375 28.21875 55.609375 21.1875 
Q 55.609375 10.40625 48.1875 4.484375 
Q 40.765625 -1.421875 27.09375 -1.421875 
Q 22.515625 -1.421875 17.65625 -0.515625 
Q 12.796875 0.390625 7.625 2.203125 
L 7.625 11.71875 
Q 11.71875 9.328125 16.59375 8.109375 
Q 21.484375 6.890625 26.8125 6.890625 
Q 36.078125 6.890625 40.9375 10.546875 
Q 45.796875 14.203125 45.796875 21.1875 
Q 45.796875 27.640625 41.28125 31.265625 
Q 36.765625 34.90625 28.71875 34.90625 
L 20.21875 34.90625 
L 20.21875 43.015625 
L 29.109375 43.015625 
Q 36.375 43.015625 40.234375 45.921875 
Q 44.09375 48.828125 44.09375 54.296875 
Q 44.09375 59.90625 40.109375 62.90625 
Q 36.140625 65.921875 28.71875 65.921875 
Q 24.65625 65.921875 20.015625 65.03125 
Q 15.375 64.15625 9.8125 62.3125 
L 9.8125 71.09375 
Q 15.4375 72.65625 20.34375 73.4375 
Q 25.25 74.21875 29.59375 74.21875 
Q 40.828125 74.21875 47.359375 69.109375 
Q 53.90625 64.015625 53.90625 55.328125 
Q 53.90625 49.265625 50.4375 45.09375 
Q 46.96875 40.921875 40.578125 39.3125 
z
" id="DejaVuSans-51"/>
      </defs>
      <g transform="translate(67.170312 247.736405)scale(0.1 -0.1)">
       <use xlink:href="#DejaVuSans-8722"/>
       <use x="83.789062" xlink:href="#DejaVuSans-51"/>
       <use x="147.412109" xlink:href="#DejaVuSans-48"/>
       <use x="211.035156" xlink:href="#DejaVuSans-48"/>
       <use x="274.658203" xlink:href="#DejaVuSans-48"/>
      </g>
     </g>
    </g>
    <g id="ytick_4">
     <g id="line2d_12">
      <g>
       <use style="stroke:#000000;stroke-width:0.8;" x="108" xlink:href="#m52537ab1d1" y="192.443858"/>
      </g>
     </g>
     <g id="text_13">
      <!-- −2000 -->
      <g transform="translate(67.170312 196.243076)scale(0.1 -0.1)">
       <use xlink:href="#DejaVuSans-8722"/>
       <use x="83.789062" xlink:href="#DejaVuSans-50"/>
       <use x="147.412109" xlink:href="#DejaVuSans-48"/>
       <use x="211.035156" xlink:href="#DejaVuSans-48"/>
       <use x="274.658203" xlink:href="#DejaVuSans-48"/>
      </g>
     </g>
    </g>
    <g id="ytick_5">
     <g id="line2d_13">
      <g>
       <use style="stroke:#000000;stroke-width:0.8;" x="108" xlink:href="#m52537ab1d1" y="140.950529"/>
      </g>
     </g>
     <g id="text_14">
      <!-- −1000 -->
      <g transform="translate(67.170312 144.749748)scale(0.1 -0.1)">
       <use xlink:href="#DejaVuSans-8722"/>
       <use x="83.789062" xlink:href="#DejaVuSans-49"/>
       <use x="147.412109" xlink:href="#DejaVuSans-48"/>
       <use x="211.035156" xlink:href="#DejaVuSans-48"/>
       <use x="274.658203" xlink:href="#DejaVuSans-48"/>
      </g>
     </g>
    </g>
    <g id="ytick_6">
     <g id="line2d_14">
      <g>
       <use style="stroke:#000000;stroke-width:0.8;" x="108" xlink:href="#m52537ab1d1" y="89.4572"/>
      </g>
     </g>
     <g id="text_15">
      <!-- 0 -->
      <g transform="translate(94.6375 93.256419)scale(0.1 -0.1)">
       <use xlink:href="#DejaVuSans-48"/>
      </g>
     </g>
    </g>
    <g id="text_16">
     <!-- Value -->
     <defs>
      <path d="M 28.609375 0 
L 0.78125 72.90625 
L 11.078125 72.90625 
L 34.1875 11.53125 
L 57.328125 72.90625 
L 67.578125 72.90625 
L 39.796875 0 
z
" id="DejaVuSans-86"/>
      <path d="M 9.421875 75.984375 
L 18.40625 75.984375 
L 18.40625 0 
L 9.421875 0 
z
" id="DejaVuSans-108"/>
      <path d="M 8.5 21.578125 
L 8.5 54.6875 
L 17.484375 54.6875 
L 17.484375 21.921875 
Q 17.484375 14.15625 20.5 10.265625 
Q 23.53125 6.390625 29.59375 6.390625 
Q 36.859375 6.390625 41.078125 11.03125 
Q 45.3125 15.671875 45.3125 23.6875 
L 45.3125 54.6875 
L 54.296875 54.6875 
L 54.296875 0 
L 45.3125 0 
L 45.3125 8.40625 
Q 42.046875 3.421875 37.71875 1 
Q 33.40625 -1.421875 27.6875 -1.421875 
Q 18.265625 -1.421875 13.375 4.4375 
Q 8.5 10.296875 8.5 21.578125 
z
M 31.109375 56 
z
" id="DejaVuSans-117"/>
     </defs>
     <g transform="translate(61.090625 232.273281)rotate(-90)scale(0.1 -0.1)">
      <use xlink:href="#DejaVuSans-86"/>
      <use x="68.298828" xlink:href="#DejaVuSans-97"/>
      <use x="129.578125" xlink:href="#DejaVuSans-108"/>
      <use x="157.361328" xlink:href="#DejaVuSans-117"/>
      <use x="220.740234" xlink:href="#DejaVuSans-101"/>
     </g>
    </g>
   </g>
   <g id="line2d_15">
    <path clip-path="url(#p87f5034734)" d="M 138.436364 90.338187 
L 138.798701 79.749098 
L 139.523377 66.96 
L 139.885714 68.139353 
L 140.248052 71.042873 
L 141.335065 89.826877 
L 141.697403 94.756423 
L 142.05974 94.004558 
L 142.422078 91.701567 
L 143.146753 85.950088 
L 143.509091 85.390065 
L 143.871429 85.917338 
L 144.233766 88.391948 
L 144.958442 102.902744 
L 145.683117 112.310143 
L 146.045455 111.002436 
L 146.407792 108.319852 
L 147.857143 73.821714 
L 148.219481 70.653378 
L 148.581818 70.202484 
L 148.944156 72.96205 
L 150.031169 94.014401 
L 150.393506 97.517721 
L 150.755844 97.184327 
L 152.205195 87.424876 
L 152.567532 87.608155 
L 152.92987 91.659162 
L 154.379221 115.319229 
L 154.741558 113.374874 
L 155.103896 109.936976 
L 155.466234 103.250289 
L 156.553247 76.275995 
L 156.915584 73.992055 
L 157.277922 73.497739 
L 157.64026 77.203989 
L 158.002597 82.681818 
L 158.364935 91.1849 
L 159.08961 100.838759 
L 159.451948 100.238387 
L 159.814286 98.541196 
L 160.176623 94.44874 
L 160.538961 92.305429 
L 160.901299 90.873693 
L 161.263636 91.208333 
L 163.075325 119.028835 
L 163.437662 118.911241 
L 163.8 115.827517 
L 164.524675 100.001565 
L 164.887013 90.388614 
L 165.249351 83.814924 
L 165.611688 79.720562 
L 165.974026 79.930892 
L 166.698701 88.558491 
L 167.423377 100.681412 
L 167.785714 104.927142 
L 168.148052 106.167195 
L 168.51039 106.020223 
L 168.872727 101.757874 
L 169.235065 100.267466 
L 169.597403 98.221093 
L 170.322078 101.809526 
L 171.046753 116.156294 
L 171.771429 126.458134 
L 172.133766 125.310683 
L 172.496104 122.435133 
L 173.945455 88.746863 
L 174.307792 85.988399 
L 174.67013 85.562484 
L 175.032468 89.261763 
L 176.119481 108.508618 
L 176.481818 113.887995 
L 176.844156 112.849162 
L 177.206494 113.300942 
L 178.293506 102.476948 
L 178.655844 105.218433 
L 179.380519 114.326971 
L 180.105195 126.760092 
L 180.467532 132.956863 
L 180.82987 131.923402 
L 181.192208 128.354939 
L 183.003896 91.125115 
L 183.366234 91.395842 
L 183.728571 95.10125 
L 184.815584 113.463283 
L 185.54026 116.678279 
L 185.902597 116.106944 
L 186.98961 108.227288 
L 187.351948 108.985927 
L 188.076623 119.305126 
L 188.801299 131.573939 
L 189.163636 134.641163 
L 189.525974 135.692827 
L 189.888312 131.08999 
L 190.250649 124.322572 
L 190.975325 105.489927 
L 191.7 94.137778 
L 192.062338 94.392346 
L 192.787013 103.479465 
L 193.149351 108.55821 
L 193.511688 115.971544 
L 193.874026 119.392259 
L 194.236364 119.965256 
L 194.961039 115.518815 
L 195.323377 111.800019 
L 195.685714 110.500431 
L 196.048052 111.268069 
L 196.41039 113.581635 
L 197.497403 132.148432 
L 197.85974 136.245136 
L 198.222078 135.658456 
L 198.584416 132.714169 
L 199.671429 106.386461 
L 200.033766 99.766504 
L 200.396104 95.226171 
L 200.758442 94.207614 
L 201.120779 97.164329 
L 201.845455 112.024572 
L 202.207792 83.546761 
L 202.57013 120.861497 
L 202.932468 121.734179 
L 203.294805 119.792398 
L 203.657143 115.500848 
L 204.019481 112.87532 
L 204.381818 111.736723 
L 204.744156 111.956374 
L 205.106494 114.901364 
L 205.468831 119.631711 
L 206.193506 133.057661 
L 206.555844 137.377189 
L 206.918182 136.150216 
L 207.642857 126.839325 
L 208.367532 105.788679 
L 209.092208 95.183403 
L 209.454545 95.411737 
L 209.816883 97.81219 
L 210.903896 118.67163 
L 211.266234 120.662813 
L 211.628571 121.606302 
L 212.353247 118.146975 
L 213.077922 111.838106 
L 213.44026 113.73873 
L 213.802597 117.071564 
L 214.527273 130.816045 
L 214.88961 136.38758 
L 215.251948 139.490945 
L 215.614286 138.814477 
L 215.976623 136.740235 
L 216.338961 129.329864 
L 217.063636 110.282962 
L 217.425974 103.616661 
L 217.788312 99.391685 
L 218.150649 99.422831 
L 218.512987 103.5074 
L 219.6 122.55215 
L 219.962338 125.828402 
L 220.324675 126.447262 
L 220.687013 125.360161 
L 221.411688 118.447823 
L 221.774026 118.187395 
L 222.136364 118.757969 
L 222.498701 122.856905 
L 223.223377 134.864451 
L 223.585714 141.655453 
L 223.948052 145.748374 
L 224.31039 144.558236 
L 224.672727 140.570032 
L 225.035065 135.016242 
L 226.122078 108.735409 
L 226.484416 104.031502 
L 226.846753 104.5108 
L 227.209091 108.014844 
L 228.296104 129.132519 
L 228.658442 131.871177 
L 229.020779 132.535059 
L 229.383117 131.640582 
L 229.745455 128.139951 
L 230.107792 127.402248 
L 230.47013 124.042449 
L 230.832468 124.671778 
L 231.557143 134.911238 
L 232.281818 148.553588 
L 232.644156 152.33583 
L 233.006494 152.522683 
L 233.368831 148.847345 
L 233.731169 141.183884 
L 234.455844 123.413613 
L 234.818182 115.316359 
L 235.180519 112.374127 
L 235.542857 111.905221 
L 236.267532 123.180714 
L 236.62987 129.728966 
L 237.354545 138.611663 
L 237.716883 138.954416 
L 238.079221 138.369224 
L 238.803896 133.51665 
L 239.166234 130.201066 
L 239.528571 131.870493 
L 239.890909 134.462247 
L 240.977922 154.09693 
L 241.34026 158.538373 
L 241.702597 157.049835 
L 242.064935 155.077634 
L 243.514286 121.513468 
L 243.876623 117.771957 
L 244.238961 118.011847 
L 244.601299 119.338919 
L 245.325974 133.143341 
L 246.050649 144.575568 
L 246.412987 144.454145 
L 246.775325 142.714988 
L 247.137662 139.752011 
L 247.5 135.7638 
L 247.862338 133.878223 
L 248.224675 133.550828 
L 248.949351 145.473446 
L 249.674026 157.082835 
L 250.036364 160.460895 
L 250.398701 161.036032 
L 250.761039 157.013341 
L 251.123377 150.760014 
L 251.848052 130.687938 
L 252.21039 123.055054 
L 252.572727 120.075332 
L 252.935065 119.970592 
L 253.297403 122.464888 
L 253.65974 128.884794 
L 254.022078 137.611287 
L 254.384416 142.184911 
L 254.746753 144.746624 
L 255.109091 145.312117 
L 255.471429 144.77451 
L 256.196104 137.101672 
L 256.558442 136.122124 
L 256.920779 137.124609 
L 257.283117 139.586812 
L 257.645455 179.835121 
L 258.007792 152.813622 
L 258.37013 159.43845 
L 258.732468 161.885118 
L 259.094805 161.14783 
L 259.457143 157.657059 
L 259.819481 150.998461 
L 260.544156 133.449008 
L 260.906494 125.280136 
L 261.268831 119.886878 
L 261.631169 119.539221 
L 261.993506 122.480238 
L 262.355844 130.464855 
L 263.442857 146.341323 
L 263.805195 146.036272 
L 264.167532 143.319708 
L 264.52987 142.285905 
L 264.892208 138.476511 
L 265.254545 138.298325 
L 265.616883 136.991407 
L 265.979221 140.720356 
L 266.703896 153.411236 
L 267.428571 162.668119 
L 267.790909 163.786268 
L 268.515584 151.605454 
L 269.602597 126.761095 
L 269.964935 122.120619 
L 270.327273 122.441263 
L 270.68961 123.558104 
L 271.776623 143.899483 
L 272.138961 147.613565 
L 272.501299 149.302379 
L 272.863636 145.398665 
L 273.225974 143.976519 
L 273.588312 140.143757 
L 273.950649 139.564344 
L 274.312987 139.948261 
L 275.037662 150.811031 
L 276.124675 166.233212 
L 276.487013 165.327516 
L 276.849351 160.452758 
L 277.211688 153.801899 
L 278.298701 126.404844 
L 278.661039 124.487507 
L 279.023377 125.187685 
L 279.385714 128.503163 
L 280.472727 148.672063 
L 281.197403 153.500063 
L 281.55974 152.588513 
L 281.922078 147.077055 
L 282.284416 145.539365 
L 282.646753 143.092912 
L 283.009091 144.78354 
L 283.733766 154.540245 
L 284.458442 166.521948 
L 284.820779 170.835116 
L 285.183117 170.440683 
L 285.545455 166.899678 
L 286.27013 151.634901 
L 286.632468 142.485856 
L 287.357143 130.887677 
L 287.719481 131.629905 
L 288.081818 133.133331 
L 288.806494 147.030843 
L 289.531169 158.179245 
L 289.893506 158.148012 
L 290.255844 157.775419 
L 290.618182 155.764042 
L 290.980519 151.475577 
L 291.342857 151.481795 
L 291.705195 150.137293 
L 292.42987 160.616086 
L 293.516883 179.05308 
L 293.879221 177.946316 
L 294.241558 174.953148 
L 294.603896 165.891651 
L 294.966234 159.791405 
L 295.328571 148.571934 
L 295.690909 140.811691 
L 296.053247 138.158268 
L 296.415584 137.856712 
L 296.777922 140.636341 
L 297.502597 155.232194 
L 297.864935 161.241638 
L 298.227273 165.267423 
L 298.58961 165.76405 
L 298.951948 164.068644 
L 299.314286 161.768782 
L 299.676623 158.129759 
L 300.038961 157.407702 
L 300.401299 157.142538 
L 301.125974 166.97834 
L 301.850649 179.327446 
L 302.212987 182.328621 
L 302.575325 183.813203 
L 302.937662 181.453424 
L 304.387013 146.626847 
L 304.749351 142.023292 
L 305.111688 143.250142 
L 305.474026 146.98429 
L 306.198701 158.796607 
L 306.561039 166.874603 
L 306.923377 170.139922 
L 307.285714 170.451648 
L 307.648052 169.054722 
L 308.01039 164.11886 
L 308.372727 162.38713 
L 308.735065 161.780852 
L 309.097403 160.674379 
L 309.822078 171.466001 
L 310.546753 183.496108 
L 310.909091 187.722853 
L 311.271429 186.216349 
L 311.633766 182.425282 
L 312.358442 165.349836 
L 313.083117 148.175706 
L 313.445455 146.108554 
L 313.807792 146.001423 
L 314.17013 149.022727 
L 314.532468 154.293631 
L 315.257143 167.817621 
L 315.981818 172.921575 
L 316.344156 168.646204 
L 316.706494 167.799887 
L 317.068831 165.280797 
L 317.431169 161.835384 
L 317.793506 164.20153 
L 318.518182 173.358035 
L 318.880519 179.983177 
L 319.605195 189.28372 
L 319.967532 187.530364 
L 320.32987 183.251922 
L 320.692208 177.260925 
L 321.779221 151.221013 
L 322.141558 146.538108 
L 322.503896 147.048442 
L 322.866234 152.277122 
L 323.228571 155.175768 
L 323.953247 168.314648 
L 324.315584 171.968232 
L 324.677922 172.861008 
L 325.04026 171.536014 
L 325.764935 164.046192 
L 326.48961 162.879726 
L 327.576623 179.133698 
L 327.938961 187.365522 
L 328.301299 189.347319 
L 328.663636 189.589842 
L 329.025974 186.311016 
L 330.475325 152.227817 
L 330.837662 148.483631 
L 331.2 146.578279 
L 333.011688 175.203046 
L 333.374026 174.329711 
L 333.736364 170.500649 
L 334.098701 168.852392 
L 334.461039 166.465977 
L 334.823377 165.084095 
L 335.185714 166.679597 
L 335.548052 169.447083 
L 336.272727 181.681108 
L 336.635065 188.133492 
L 336.997403 192.139379 
L 337.35974 190.587665 
L 338.084416 181.00753 
L 339.533766 148.780513 
L 339.896104 151.091286 
L 340.258442 154.317311 
L 341.345455 174.90575 
L 341.707792 176.797057 
L 342.07013 179.347982 
L 342.432468 177.381234 
L 342.794805 172.817367 
L 343.519481 170.20831 
L 343.881818 170.995748 
L 344.244156 174.941408 
L 345.331169 194.187671 
L 345.693506 197.376745 
L 346.055844 197.216591 
L 346.418182 192.756062 
L 346.780519 186.690795 
L 347.505195 167.508762 
L 347.867532 160.480047 
L 348.22987 157.623135 
L 348.592208 157.942586 
L 348.954545 161.593436 
L 349.316883 166.385019 
L 349.679221 174.966704 
L 350.403896 184.478315 
L 350.766234 185.1281 
L 352.215584 176.443662 
L 352.577922 177.421614 
L 352.94026 180.359905 
L 354.027273 200.708652 
L 354.38961 202.856047 
L 354.751948 203.372924 
L 355.114286 200.388717 
L 355.476623 193.532658 
L 356.201299 175.022107 
L 356.563636 166.411907 
L 356.925974 163.527026 
L 357.288312 162.040024 
L 357.650649 166.893189 
L 358.737662 186.760426 
L 359.1 189.930327 
L 359.462338 189.937861 
L 359.824675 190.072978 
L 360.549351 183.056456 
L 360.911688 182.166954 
L 361.274026 183.536872 
L 361.636364 186.693046 
L 362.723377 206.161297 
L 363.448052 210.472962 
L 363.81039 206.715265 
L 364.897403 180.384328 
L 365.25974 171.742288 
L 365.622078 169.52326 
L 365.984416 170.259639 
L 366.346753 172.939792 
L 367.433766 192.184109 
L 367.796104 195.034775 
L 368.158442 195.696422 
L 368.520779 194.328832 
L 368.883117 191.875883 
L 369.245455 187.479554 
L 369.607792 187.536806 
L 369.97013 184.516118 
L 370.694805 197.82773 
L 371.057143 201.779421 
L 371.781818 214.430905 
L 372.144156 213.13634 
L 372.506494 209.154599 
L 373.955844 175.209557 
L 374.680519 172.021295 
L 375.042857 175.390021 
L 375.767532 187.446558 
L 376.12987 195.15583 
L 376.492208 198.000457 
L 377.216883 197.732129 
L 377.941558 189.913045 
L 378.303896 187.371509 
L 379.028571 191.584183 
L 380.115584 211.708958 
L 380.477922 215.378254 
L 380.84026 215.054352 
L 381.202597 211.303964 
L 381.927273 194.398013 
L 382.28961 150.972634 
L 382.651948 177.330509 
L 383.014286 171.971154 
L 383.376623 172.392067 
L 383.738961 176.730889 
L 384.825974 194.036479 
L 385.188312 196.796997 
L 385.550649 198.268268 
L 386.275325 193.499635 
L 387 188.704569 
L 387.362338 189.107663 
L 388.087013 199.134306 
L 388.811688 211.96342 
L 389.174026 215.008445 
L 389.536364 181.949967 
L 389.898701 210.789749 
L 390.623377 195.527071 
L 390.985714 183.712992 
L 391.348052 178.122876 
L 391.71039 174.64285 
L 392.072727 174.188449 
L 392.435065 177.076191 
L 393.15974 189.384622 
L 393.522078 197.031132 
L 393.884416 198.477676 
L 394.246753 200.465942 
L 394.971429 196.967208 
L 395.333766 192.409298 
L 395.696104 189.301148 
L 396.420779 194.201396 
L 397.507792 215.080688 
L 397.87013 217.752187 
L 398.232468 217.612627 
L 398.594805 214.820211 
L 398.957143 173.582832 
L 399.319481 196.208857 
L 400.044156 179.957145 
L 400.406494 177.826374 
L 400.768831 176.961622 
L 401.131169 179.937095 
L 402.218182 199.864912 
L 402.580519 204.302671 
L 402.942857 205.30743 
L 403.305195 203.376883 
L 403.667532 200.544871 
L 404.02987 196.045654 
L 404.392208 195.249716 
L 404.754545 196.528742 
L 405.116883 199.951553 
L 406.203896 219.536935 
L 406.566234 222.579467 
L 407.290909 219.438717 
L 408.74026 186.156614 
L 409.102597 182.99458 
L 409.464935 182.87661 
L 409.827273 186.782972 
L 410.551948 199.085526 
L 410.914286 205.642657 
L 411.276623 209.314992 
L 411.638961 211.376757 
L 412.001299 210.970286 
L 412.725974 204.383233 
L 413.088312 202.076329 
L 413.450649 203.613639 
L 413.812987 207.198475 
L 415.262338 231.043954 
L 415.624675 230.891646 
L 415.987013 225.638178 
L 416.349351 218.403336 
L 417.074026 200.7033 
L 417.436364 193.037989 
L 417.798701 190.275686 
L 418.161039 189.199334 
L 418.523377 192.464588 
L 418.885714 200.848586 
L 419.972727 216.564576 
L 420.335065 217.845623 
L 420.697403 217.58347 
L 421.05974 212.199116 
L 421.422078 209.484591 
L 421.784416 208.896299 
L 422.146753 209.317867 
L 422.871429 219.546326 
L 423.958442 237.098985 
L 424.320779 236.768419 
L 424.683117 232.820933 
L 425.407792 216.605562 
L 425.77013 205.531111 
L 426.132468 198.579071 
L 426.494805 195.672668 
L 426.857143 195.479901 
L 427.219481 197.258704 
L 428.306494 217.184508 
L 428.668831 220.910921 
L 429.031169 222.831609 
L 429.393506 220.76474 
L 429.755844 217.965467 
L 430.118182 214.016931 
L 430.480519 213.158434 
L 430.842857 213.970787 
L 431.205195 217.956466 
L 432.292208 235.113033 
L 432.654545 238.605372 
L 433.016883 239.631085 
L 433.379221 234.646962 
L 434.828571 201.723944 
L 435.553247 197.165377 
L 436.64026 212.670294 
L 437.002597 221.207966 
L 437.364935 225.18739 
L 438.451948 219.155225 
L 439.176623 213.880591 
L 439.538961 215.847602 
L 439.901299 219.016032 
L 440.625974 230.443258 
L 441.350649 240.188793 
L 441.712987 240.503507 
L 442.075325 235.845572 
L 443.524675 203.437069 
L 443.887013 198.885235 
L 444.249351 199.841903 
L 444.611688 202.729043 
L 444.974026 207.295073 
L 445.336364 215.297684 
L 445.698701 220.486157 
L 446.061039 223.311914 
L 446.423377 223.872801 
L 446.785714 222.862615 
L 447.51039 215.973681 
L 447.872727 214.955427 
L 448.597403 218.95263 
L 450.046753 242.48305 
L 450.409091 242.130457 
L 450.771429 237.825971 
L 452.220779 203.605648 
L 452.583117 200.043528 
L 452.945455 199.839924 
L 453.67013 209.020726 
L 454.757143 226.181507 
L 455.119481 226.390183 
L 455.844156 222.891652 
L 456.206494 217.274719 
L 456.568831 217.178617 
L 456.931169 217.373128 
L 458.742857 243.405575 
L 459.105195 244.253233 
L 459.467532 240.922549 
L 460.554545 212.280187 
L 461.279221 202.856327 
L 461.641558 203.649948 
L 462.003896 206.47438 
L 462.366234 211.30118 
L 462.728571 220.419044 
L 463.090909 225.907414 
L 463.815584 230.06046 
L 464.177922 229.257461 
L 465.264935 221.103825 
L 465.98961 226.446069 
L 466.714286 238.328408 
L 467.438961 248.557562 
L 467.801299 249.429929 
L 468.163636 245.390446 
L 469.250649 219.85611 
L 469.612987 212.821985 
L 469.975325 208.470941 
L 470.337662 209.198033 
L 470.7 212.557824 
L 471.062338 218.21207 
L 471.787013 232.040746 
L 472.149351 236.641985 
L 472.511688 237.200703 
L 472.874026 235.853621 
L 473.236364 231.479309 
L 473.598701 230.995346 
L 473.961039 229.049469 
L 474.323377 229.557555 
L 474.685714 232.321772 
L 475.772727 252.448981 
L 476.135065 256.207967 
L 476.497403 255.843728 
L 477.222078 245.804105 
L 477.946753 227.628482 
L 478.671429 214.95611 
L 479.033766 216.747172 
L 479.396104 217.88735 
L 480.845455 242.371109 
L 481.207792 243.301687 
L 481.57013 242.148311 
L 481.932468 238.107444 
L 482.657143 234.167618 
L 483.019481 234.156532 
L 483.381818 237.736692 
L 484.106494 251.63104 
L 484.468831 257.55087 
L 484.831169 261.178821 
L 485.193506 262.743561 
L 485.918182 250.571934 
L 486.642857 232.11368 
L 487.367532 220.403511 
L 487.72987 221.809424 
L 488.092208 225.155538 
L 489.541558 247.696392 
L 489.903896 247.473399 
L 490.266234 247.717058 
L 490.628571 244.686194 
L 490.990909 240.231914 
L 491.353247 239.197252 
L 491.715584 239.940794 
L 492.077922 242.430612 
L 492.44026 247.816085 
L 492.802597 256.00394 
L 493.164935 260.954574 
L 493.527273 264.278411 
L 493.88961 231.43466 
L 494.251948 259.91851 
L 494.976623 245.454646 
L 495.338961 234.449846 
L 495.701299 228.195137 
L 496.063636 224.05563 
L 496.425974 222.368314 
L 497.875325 246.120742 
L 498.237662 248.161775 
L 498.6 248.961654 
L 498.962338 247.881187 
L 499.324675 243.521136 
L 499.687013 241.676986 
L 500.049351 238.177904 
L 500.411688 240.986747 
L 501.136364 250.191327 
L 501.861039 262.411597 
L 502.223377 265.970508 
L 502.585714 264.993524 
L 502.948052 262.785924 
L 504.397403 227.946048 
L 504.75974 224.168847 
L 505.122078 225.274779 
L 505.846753 233.176888 
L 506.571429 246.956796 
L 506.933766 249.363271 
L 507.296104 249.689977 
L 507.658442 249.643391 
L 508.383117 241.316389 
L 508.745455 239.832932 
L 509.107792 239.519819 
L 509.47013 244.052288 
L 510.194805 257.565301 
L 510.919481 268.126011 
L 511.281818 266.210125 
L 511.644156 262.291873 
L 513.093506 230.153908 
L 513.455844 224.6274 
L 513.818182 225.745649 
L 514.180519 228.894419 
L 514.542857 234.0226 
L 515.267532 247.282611 
L 515.62987 252.231702 
L 515.992208 251.851825 
L 516.354545 251.041806 
L 516.716883 247.772181 
L 517.079221 243.455861 
L 517.441558 241.885403 
L 518.166234 246.53102 
L 519.253247 264.723488 
L 519.615584 270.55152 
L 519.977922 269.669939 
L 520.34026 265.882976 
L 520.702597 258.960726 
L 521.427273 239.601051 
L 521.78961 233.467655 
L 522.151948 230.086494 
L 522.514286 229.362341 
L 522.876623 232.242284 
L 523.963636 252.070229 
L 524.325974 255.751764 
L 524.688312 256.491385 
L 525.050649 254.107111 
L 525.412987 252.639693 
L 525.775325 248.759813 
L 526.137662 246.219769 
L 526.5 248.766905 
L 526.862338 252.174734 
L 527.587013 264.105831 
L 527.949351 271.580766 
L 528.311688 275.443422 
L 528.674026 276.070945 
L 529.036364 272.705017 
L 530.485714 238.240086 
L 530.848052 234.753399 
L 531.21039 234.504648 
L 531.572727 238.144891 
L 531.935065 245.061672 
L 532.297403 249.393114 
L 532.65974 258.261363 
L 533.022078 262.304625 
L 533.384416 261.326267 
L 533.746753 258.487574 
L 534.109091 258.690132 
L 534.471429 254.98047 
L 534.833766 254.280556 
L 535.196104 254.412264 
L 535.920779 265.251784 
L 536.645455 278.426497 
L 537.007792 280.64104 
L 537.37013 282.008943 
L 537.732468 278.612151 
L 538.094805 271.879927 
L 539.181818 245.531945 
L 539.544156 240.939465 
L 539.906494 242.296018 
L 540.268831 244.997278 
L 540.993506 257.743578 
L 541.718182 268.926071 
L 542.080519 269.313483 
L 542.442857 267.771675 
L 542.805195 266.756306 
L 543.167532 261.106566 
L 543.52987 260.620731 
L 543.892208 261.205852 
L 544.979221 276.162593 
L 545.341558 283.718704 
L 545.703896 287.463369 
L 546.066234 288.171909 
L 546.428571 284.201156 
L 547.877922 250.459494 
L 548.24026 247.317772 
L 548.602597 246.149803 
L 548.964935 249.143869 
L 549.68961 264.643223 
L 550.414286 273.158082 
L 550.776623 275.439686 
L 551.138961 273.540835 
L 552.225974 263.948497 
L 552.588312 263.782315 
L 553.675325 280.4859 
L 554.037662 288.757837 
L 554.4 291.788387 
L 554.762338 290.105196 
L 555.124675 287.710613 
L 555.849351 271.815964 
L 556.574026 252.688155 
L 556.936364 248.377184 
L 557.298701 249.794896 
L 557.661039 253.071053 
L 559.11039 275.617275 
L 559.472727 275.639275 
L 559.835065 274.965278 
L 560.197403 271.6504 
L 560.55974 267.194082 
L 560.922078 265.127167 
L 561.284416 266.535348 
L 561.646753 269.00105 
L 562.733766 289.908845 
L 563.096104 292.573149 
L 563.458442 292.60672 
L 563.820779 288.279989 
L 564.545455 272.829022 
L 564.907792 261.486537 
L 565.27013 254.252293 
L 565.632468 250.803639 
L 565.994805 251.099453 
L 566.357143 252.070778 
L 567.081818 266.78784 
L 567.806494 275.176109 
L 568.168831 276.130752 
L 568.531169 275.87326 
L 568.893506 271.315078 
L 569.618182 266.182466 
L 570.342857 272.122486 
L 571.067532 283.816642 
L 571.42987 289.855243 
L 571.792208 292.581528 
L 572.154545 291.862401 
L 572.516883 289.037729 
L 573.966234 255.39254 
L 574.328571 251.663061 
L 574.690909 251.534225 
L 575.053247 255.637269 
L 575.777922 269.282751 
L 576.14026 273.607309 
L 576.864935 278.31086 
L 577.227273 277.655839 
L 577.58961 273.201471 
L 578.314286 268.341827 
L 579.038961 273.905363 
L 580.488312 296.446327 
L 580.850649 294.497877 
L 581.212987 291.616655 
L 581.575325 284.957255 
L 582.662338 258.866856 
L 583.024675 254.042265 
L 583.749351 257.282992 
L 584.474026 271.340231 
L 584.836364 277.11581 
L 585.198701 281.100147 
L 585.561039 282.076353 
L 585.923377 278.940519 
L 587.01039 273.133477 
L 587.372727 274.390517 
L 587.735065 278.239162 
L 588.822078 298.102677 
L 589.184416 301.718326 
L 589.546753 301.543181 
L 589.909091 296.901439 
L 591.720779 260.238824 
L 592.083117 262.74405 
L 592.445455 263.68821 
L 593.532468 284.695807 
L 593.894805 287.65091 
L 594.257143 288.946903 
L 594.619481 287.74877 
L 594.981818 284.851814 
L 595.344156 280.386019 
L 595.706494 281.345018 
L 596.068831 281.225844 
L 597.155844 296.434078 
L 597.880519 308.966834 
L 598.242857 306.965865 
L 598.605195 303.635664 
L 598.967532 296.333533 
L 599.692208 277.543159 
L 600.416883 267.165149 
L 600.779221 266.313842 
L 601.141558 270.35627 
L 601.866234 284.349539 
L 602.590909 295.140158 
L 602.953247 293.413929 
L 603.315584 294.678495 
L 603.677922 292.138167 
L 604.402597 285.451403 
L 605.127273 291.740458 
L 605.48961 296.827885 
L 605.851948 304.537061 
L 606.214286 307.994376 
L 606.576623 313.471112 
L 606.938961 314.128696 
L 607.301299 309.223842 
L 607.663636 302.082304 
L 608.388312 283.584469 
L 608.750649 277.866589 
L 609.112987 274.313336 
L 609.475325 272.63272 
L 609.837662 275.727385 
L 610.2 281.313106 
L 610.924675 295.98734 
L 611.287013 299.695527 
L 611.649351 300.984003 
L 612.374026 294.757096 
L 612.736364 291.864726 
L 613.098701 290.727121 
L 613.461039 291.551993 
L 613.823377 294.244429 
L 614.185714 299.975943 
L 614.548052 308.62505 
L 614.91039 313.777575 
L 615.272727 317.341595 
L 615.635065 317.677055 
L 615.997403 313.541557 
L 617.446753 278.3486 
L 617.809091 276.651911 
L 618.171429 276.003912 
L 618.533766 278.262101 
L 619.620779 298.671571 
L 619.983117 299.715117 
L 620.345455 303.190789 
L 620.707792 301.152085 
L 621.07013 296.616394 
L 621.432468 293.489711 
L 621.794805 291.959418 
L 622.157143 293.348331 
L 622.519481 296.659539 
L 623.244156 307.821481 
L 623.606494 315.939844 
L 624.331169 317.02181 
L 624.693506 313.36918 
L 625.055844 307.294579 
L 626.142857 279.86119 
L 626.505195 276.631653 
L 626.867532 276.257271 
L 627.22987 278.74126 
L 627.592208 284.931961 
L 627.954545 293.26007 
L 629.041558 304.950152 
L 629.766234 297.026313 
L 630.490909 292.67108 
L 630.853247 293.589246 
L 631.215584 296.4657 
L 631.94026 309.583504 
L 632.302597 315.950326 
L 632.664935 319.467665 
L 633.027273 318.256408 
L 633.38961 314.30676 
L 634.114286 299.109058 
L 634.838961 281.965641 
L 635.201299 277.57194 
L 635.563636 277.003026 
L 636.288312 286.135394 
L 637.012987 299.782746 
L 637.375325 302.452851 
L 637.737662 303.440928 
L 638.1 301.757958 
L 638.462338 298.733458 
L 638.824675 297.307529 
L 639.187013 294.281257 
L 639.549351 295.522832 
L 639.911688 299.462712 
L 640.636364 311.493505 
L 641.361039 321.990555 
L 641.723377 321.470567 
L 642.085714 317.668268 
L 643.172727 293.075161 
L 643.535065 284.594858 
L 643.897403 280.968291 
L 644.25974 281.504343 
L 644.622078 284.053002 
L 646.071429 308.000736 
L 646.433766 309.364106 
L 647.158442 304.521272 
L 647.520779 300.173051 
L 647.883117 299.730739 
L 648.245455 298.706956 
L 650.057143 327.332172 
L 650.781818 323.846203 
L 652.231169 288.492294 
L 652.593506 286.697165 
L 652.955844 287.495127 
L 653.318182 289.82176 
L 654.042857 303.387216 
L 654.405195 307.351915 
L 654.767532 314.116185 
L 655.12987 313.658572 
L 655.492208 312.659377 
L 655.854545 310.81424 
L 656.579221 305.143136 
L 657.303896 311.467098 
L 658.390909 329.614733 
L 658.753247 332.584145 
L 659.115584 332.423841 
L 659.477922 328.67295 
L 659.84026 323.738333 
L 660.202597 312.439895 
L 660.564935 306.533221 
L 660.927273 297.319588 
L 661.28961 293.538257 
L 661.651948 292.994658 
L 662.014286 296.560138 
L 662.738961 310.092288 
L 663.101299 316.637909 
L 663.463636 320.601213 
L 663.825974 321.660358 
L 664.188312 319.865571 
L 664.550649 316.482015 
L 665.275325 312.845956 
L 665.637662 312.678067 
L 666.362338 321.832599 
L 666.724675 330.544946 
L 667.449351 340.395936 
L 667.811688 338.446413 
L 668.174026 337.575082 
L 669.623377 302.469731 
L 669.985714 298.613702 
L 670.348052 298.362952 
L 670.71039 302.811021 
L 671.797403 322.570746 
L 672.15974 324.674097 
L 672.522078 325.744123 
L 672.884416 324.333516 
L 673.609091 317.064476 
L 673.971429 317.210108 
L 674.333766 316.840076 
L 674.696104 319.529955 
L 675.783117 340.276244 
L 676.145455 343.635446 
L 676.507792 343.874312 
L 676.87013 338.126366 
L 677.594805 322.89953 
L 677.957143 312.123774 
L 678.319481 305.011817 
L 679.044156 300.521284 
L 679.768831 310.639569 
L 680.131169 318.213905 
L 680.493506 320.578053 
L 680.855844 328.542503 
L 681.218182 328.195545 
L 681.580519 326.852188 
L 682.305195 318.194093 
L 682.667532 318.74613 
L 683.02987 318.388365 
L 683.392208 321.852933 
L 684.479221 341.46481 
L 684.841558 344.151729 
L 685.566234 340.889329 
L 685.928571 332.776365 
L 686.653247 313.462829 
L 687.015584 305.955229 
L 687.377922 302.333614 
L 687.74026 301.643541 
L 688.102597 304.961059 
L 688.464935 310.856322 
L 688.827273 319.794186 
L 689.551948 328.614563 
L 689.914286 327.113671 
L 690.276623 326.828671 
L 691.001299 318.80063 
L 691.363636 318.528182 
L 691.725974 319.349629 
L 692.812987 335.051138 
L 693.175325 341.834978 
L 693.537662 344.11249 
L 693.9 342.767418 
L 694.262338 339.403787 
L 694.987013 324.669716 
L 695.711688 307.590947 
L 696.074026 303.089538 
L 696.436364 303.588076 
L 696.798701 306.177826 
L 697.885714 325.361594 
L 698.61039 331.297627 
L 698.972727 329.043993 
L 699.697403 321.748015 
L 700.05974 320.46366 
L 700.422078 322.363635 
L 700.784416 324.892426 
L 701.509091 336.503606 
L 702.233766 349.384753 
L 702.596104 348.457776 
L 702.958442 344.542915 
L 703.320779 337.188807 
L 703.683117 326.057349 
L 704.407792 311.427196 
L 704.77013 307.327629 
L 705.132468 307.077435 
L 705.494805 310.580318 
L 706.219481 323.550373 
L 706.581818 328.968175 
L 707.306494 333.710344 
L 707.668831 332.883811 
L 708.031169 330.620506 
L 708.393506 326.377858 
L 708.755844 326.431068 
L 709.118182 327.426102 
L 709.480519 329.940891 
L 710.567532 349.74206 
L 710.92987 353.128819 
L 711.292208 353.482344 
L 711.654545 349.135982 
L 713.103896 315.002046 
L 713.466234 312.887369 
L 713.828571 311.838896 
L 714.553247 323.395404 
L 714.915584 330.418809 
L 715.277922 334.550187 
L 715.64026 340.79867 
L 716.002597 339.103101 
L 716.364935 338.82704 
L 716.727273 334.827082 
L 717.08961 333.61192 
L 717.451948 331.043834 
L 717.814286 332.25669 
L 718.538961 342.53842 
L 719.263636 355.39367 
L 719.625974 361.402741 
L 719.988312 359.947958 
L 720.350649 357.499744 
L 720.712987 346.119802 
L 721.075325 339.773641 
L 721.437662 329.615828 
L 722.162338 320.580101 
L 722.524675 318.186745 
L 723.611688 336.061209 
L 723.974026 342.861553 
L 724.336364 346.31144 
L 724.698701 347.316479 
L 725.061039 346.430008 
L 725.423377 341.909386 
L 725.785714 340.423987 
L 726.51039 339.859695 
L 726.872727 342.759193 
L 727.235065 348.048146 
L 727.597403 355.98723 
L 727.95974 361.124671 
L 728.322078 364.636448 
L 728.684416 366.465091 
L 729.046753 361.739081 
L 729.771429 345.995756 
L 730.496104 328.644663 
L 730.858442 323.702138 
L 731.220779 325.090263 
L 731.583117 328.459311 
L 731.945455 333.657053 
L 732.67013 347.911981 
L 733.032468 350.28608 
L 733.757143 349.431063 
L 734.481818 343.907596 
L 734.844156 341.676208 
L 735.206494 343.411557 
L 735.568831 346.655345 
L 735.931169 351.98262 
L 736.655844 366.173054 
L 737.018182 368.80845 
L 737.380519 368.347685 
L 737.742857 366.062431 
L 739.192208 331.045763 
L 739.554545 329.038592 
L 739.916883 328.082323 
L 740.279221 331.136259 
L 741.366234 349.095326 
L 742.090909 354.584377 
L 742.453247 352.162048 
L 742.815584 348.407123 
L 743.54026 343.772681 
L 743.902597 343.948757 
L 744.627273 352.648477 
L 744.98961 361.621383 
L 745.351948 366.294557 
L 745.714286 369.36 
L 746.076623 369.261193 
L 746.438961 366.454155 
L 746.801299 357.962113 
L 746.801299 357.962113 
" style="fill:none;stroke:#1f77b4;stroke-linecap:square;stroke-width:1.5;"/>
   </g>
   <g id="line2d_16">
    <path clip-path="url(#p87f5034734)" d="M 747.163636 384.48 
L 747.163636 51.84 
" style="fill:none;stroke:#808080;stroke-linecap:square;"/>
   </g>
   <g id="patch_109">
    <path d="M 108 384.48 
L 108 51.84 
" style="fill:none;stroke:#000000;stroke-linecap:square;stroke-linejoin:miter;stroke-width:0.8;"/>
   </g>
   <g id="patch_110">
    <path d="M 777.6 384.48 
L 777.6 51.84 
" style="fill:none;stroke:#000000;stroke-linecap:square;stroke-linejoin:miter;stroke-width:0.8;"/>
   </g>
   <g id="patch_111">
    <path d="M 108 384.48 
L 777.6 384.48 
" style="fill:none;stroke:#000000;stroke-linecap:square;stroke-linejoin:miter;stroke-width:0.8;"/>
   </g>
   <g id="patch_112">
    <path d="M 108 51.84 
L 777.6 51.84 
" style="fill:none;stroke:#000000;stroke-linecap:square;stroke-linejoin:miter;stroke-width:0.8;"/>
   </g>
   <g id="text_17">
    <!-- A3Benchmark-TS74.csv -->
    <defs>
     <path d="M 34.1875 63.1875 
L 20.796875 26.90625 
L 47.609375 26.90625 
z
M 28.609375 72.90625 
L 39.796875 72.90625 
L 67.578125 0 
L 57.328125 0 
L 50.6875 18.703125 
L 17.828125 18.703125 
L 11.1875 0 
L 0.78125 0 
z
" id="DejaVuSans-65"/>
     <path d="M 19.671875 34.8125 
L 19.671875 8.109375 
L 35.5 8.109375 
Q 43.453125 8.109375 47.28125 11.40625 
Q 51.125 14.703125 51.125 21.484375 
Q 51.125 28.328125 47.28125 31.5625 
Q 43.453125 34.8125 35.5 34.8125 
z
M 19.671875 64.796875 
L 19.671875 42.828125 
L 34.28125 42.828125 
Q 41.5 42.828125 45.03125 45.53125 
Q 48.578125 48.25 48.578125 53.8125 
Q 48.578125 59.328125 45.03125 62.0625 
Q 41.5 64.796875 34.28125 64.796875 
z
M 9.8125 72.90625 
L 35.015625 72.90625 
Q 46.296875 72.90625 52.390625 68.21875 
Q 58.5 63.53125 58.5 54.890625 
Q 58.5 48.1875 55.375 44.234375 
Q 52.25 40.28125 46.1875 39.3125 
Q 53.46875 37.75 57.5 32.78125 
Q 61.53125 27.828125 61.53125 20.40625 
Q 61.53125 10.640625 54.890625 5.3125 
Q 48.25 0 35.984375 0 
L 9.8125 0 
z
" id="DejaVuSans-66"/>
     <path d="M 54.890625 33.015625 
L 54.890625 0 
L 45.90625 0 
L 45.90625 32.71875 
Q 45.90625 40.484375 42.875 44.328125 
Q 39.84375 48.1875 33.796875 48.1875 
Q 26.515625 48.1875 22.3125 43.546875 
Q 18.109375 38.921875 18.109375 30.90625 
L 18.109375 0 
L 9.078125 0 
L 9.078125 54.6875 
L 18.109375 54.6875 
L 18.109375 46.1875 
Q 21.34375 51.125 25.703125 53.5625 
Q 30.078125 56 35.796875 56 
Q 45.21875 56 50.046875 50.171875 
Q 54.890625 44.34375 54.890625 33.015625 
z
" id="DejaVuSans-110"/>
     <path d="M 48.78125 52.59375 
L 48.78125 44.1875 
Q 44.96875 46.296875 41.140625 47.34375 
Q 37.3125 48.390625 33.40625 48.390625 
Q 24.65625 48.390625 19.8125 42.84375 
Q 14.984375 37.3125 14.984375 27.296875 
Q 14.984375 17.28125 19.8125 11.734375 
Q 24.65625 6.203125 33.40625 6.203125 
Q 37.3125 6.203125 41.140625 7.25 
Q 44.96875 8.296875 48.78125 10.40625 
L 48.78125 2.09375 
Q 45.015625 0.34375 40.984375 -0.53125 
Q 36.96875 -1.421875 32.421875 -1.421875 
Q 20.0625 -1.421875 12.78125 6.34375 
Q 5.515625 14.109375 5.515625 27.296875 
Q 5.515625 40.671875 12.859375 48.328125 
Q 20.21875 56 33.015625 56 
Q 37.15625 56 41.109375 55.140625 
Q 45.0625 54.296875 48.78125 52.59375 
z
" id="DejaVuSans-99"/>
     <path d="M 54.890625 33.015625 
L 54.890625 0 
L 45.90625 0 
L 45.90625 32.71875 
Q 45.90625 40.484375 42.875 44.328125 
Q 39.84375 48.1875 33.796875 48.1875 
Q 26.515625 48.1875 22.3125 43.546875 
Q 18.109375 38.921875 18.109375 30.90625 
L 18.109375 0 
L 9.078125 0 
L 9.078125 75.984375 
L 18.109375 75.984375 
L 18.109375 46.1875 
Q 21.34375 51.125 25.703125 53.5625 
Q 30.078125 56 35.796875 56 
Q 45.21875 56 50.046875 50.171875 
Q 54.890625 44.34375 54.890625 33.015625 
z
" id="DejaVuSans-104"/>
     <path d="M 41.109375 46.296875 
Q 39.59375 47.171875 37.8125 47.578125 
Q 36.03125 48 33.890625 48 
Q 26.265625 48 22.1875 43.046875 
Q 18.109375 38.09375 18.109375 28.8125 
L 18.109375 0 
L 9.078125 0 
L 9.078125 54.6875 
L 18.109375 54.6875 
L 18.109375 46.1875 
Q 20.953125 51.171875 25.484375 53.578125 
Q 30.03125 56 36.53125 56 
Q 37.453125 56 38.578125 55.875 
Q 39.703125 55.765625 41.0625 55.515625 
z
" id="DejaVuSans-114"/>
     <path d="M 9.078125 75.984375 
L 18.109375 75.984375 
L 18.109375 31.109375 
L 44.921875 54.6875 
L 56.390625 54.6875 
L 27.390625 29.109375 
L 57.625 0 
L 45.90625 0 
L 18.109375 26.703125 
L 18.109375 0 
L 9.078125 0 
z
" id="DejaVuSans-107"/>
     <path d="M 4.890625 31.390625 
L 31.203125 31.390625 
L 31.203125 23.390625 
L 4.890625 23.390625 
z
" id="DejaVuSans-45"/>
     <path d="M 53.515625 70.515625 
L 53.515625 60.890625 
Q 47.90625 63.578125 42.921875 64.890625 
Q 37.9375 66.21875 33.296875 66.21875 
Q 25.25 66.21875 20.875 63.09375 
Q 16.5 59.96875 16.5 54.203125 
Q 16.5 49.359375 19.40625 46.890625 
Q 22.3125 44.4375 30.421875 42.921875 
L 36.375 41.703125 
Q 47.40625 39.59375 52.65625 34.296875 
Q 57.90625 29 57.90625 20.125 
Q 57.90625 9.515625 50.796875 4.046875 
Q 43.703125 -1.421875 29.984375 -1.421875 
Q 24.8125 -1.421875 18.96875 -0.25 
Q 13.140625 0.921875 6.890625 3.21875 
L 6.890625 13.375 
Q 12.890625 10.015625 18.65625 8.296875 
Q 24.421875 6.59375 29.984375 6.59375 
Q 38.421875 6.59375 43.015625 9.90625 
Q 47.609375 13.234375 47.609375 19.390625 
Q 47.609375 24.75 44.3125 27.78125 
Q 41.015625 30.8125 33.5 32.328125 
L 27.484375 33.5 
Q 16.453125 35.6875 11.515625 40.375 
Q 6.59375 45.0625 6.59375 53.421875 
Q 6.59375 63.09375 13.40625 68.65625 
Q 20.21875 74.21875 32.171875 74.21875 
Q 37.3125 74.21875 42.625 73.28125 
Q 47.953125 72.359375 53.515625 70.515625 
z
" id="DejaVuSans-83"/>
     <path d="M 10.6875 12.40625 
L 21 12.40625 
L 21 0 
L 10.6875 0 
z
" id="DejaVuSans-46"/>
     <path d="M 2.984375 54.6875 
L 12.5 54.6875 
L 29.59375 8.796875 
L 46.6875 54.6875 
L 56.203125 54.6875 
L 35.6875 0 
L 23.484375 0 
z
" id="DejaVuSans-118"/>
    </defs>
    <g transform="translate(371.555625 45.84)scale(0.12 -0.12)">
     <use xlink:href="#DejaVuSans-65"/>
     <use x="68.408203" xlink:href="#DejaVuSans-51"/>
     <use x="132.03125" xlink:href="#DejaVuSans-66"/>
     <use x="200.634766" xlink:href="#DejaVuSans-101"/>
     <use x="262.158203" xlink:href="#DejaVuSans-110"/>
     <use x="325.537109" xlink:href="#DejaVuSans-99"/>
     <use x="380.517578" xlink:href="#DejaVuSans-104"/>
     <use x="443.896484" xlink:href="#DejaVuSans-109"/>
     <use x="541.308594" xlink:href="#DejaVuSans-97"/>
     <use x="602.587891" xlink:href="#DejaVuSans-114"/>
     <use x="643.701172" xlink:href="#DejaVuSans-107"/>
     <use x="701.611328" xlink:href="#DejaVuSans-45"/>
     <use x="737.554688" xlink:href="#DejaVuSans-84"/>
     <use x="798.638672" xlink:href="#DejaVuSans-83"/>
     <use x="862.115234" xlink:href="#DejaVuSans-55"/>
     <use x="925.738281" xlink:href="#DejaVuSans-52"/>
     <use x="989.361328" xlink:href="#DejaVuSans-46"/>
     <use x="1021.148438" xlink:href="#DejaVuSans-99"/>
     <use x="1076.128906" xlink:href="#DejaVuSans-115"/>
     <use x="1128.228516" xlink:href="#DejaVuSans-118"/>
    </g>
   </g>
   <g id="legend_1">
    <g id="patch_113">
     <path d="M 711.284375 74.518125 
L 770.6 74.518125 
Q 772.6 74.518125 772.6 72.518125 
L 772.6 58.84 
Q 772.6 56.84 770.6 56.84 
L 711.284375 56.84 
Q 709.284375 56.84 709.284375 58.84 
L 709.284375 72.518125 
Q 709.284375 74.518125 711.284375 74.518125 
z
" style="fill:#ffffff;opacity:0.8;stroke:#cccccc;stroke-linejoin:miter;"/>
    </g>
    <g id="line2d_17">
     <path d="M 713.284375 64.938438 
L 733.284375 64.938438 
" style="fill:none;stroke:#1f77b4;stroke-linecap:square;stroke-width:1.5;"/>
    </g>
    <g id="line2d_18"/>
    <g id="text_18">
     <!-- value -->
     <g transform="translate(741.284375 68.438438)scale(0.1 -0.1)">
      <use xlink:href="#DejaVuSans-118"/>
      <use x="59.179688" xlink:href="#DejaVuSans-97"/>
      <use x="120.458984" xlink:href="#DejaVuSans-108"/>
      <use x="148.242188" xlink:href="#DejaVuSans-117"/>
      <use x="211.621094" xlink:href="#DejaVuSans-101"/>
     </g>
    </g>
   </g>
  </g>
 </g>
 <defs>
  <clipPath id="p87f5034734">
   <rect height="332.64" width="669.6" x="108" y="51.84"/>
  </clipPath>
 </defs>
</svg>
