<?xml version="1.0" encoding="utf-8" standalone="no"?>
<!DOCTYPE svg PUBLIC "-//W3C//DTD SVG 1.1//EN"
  "http://www.w3.org/Graphics/SVG/1.1/DTD/svg11.dtd">
<!-- Created with matplotlib (https://matplotlib.org/) -->
<svg height="432pt" version="1.1" viewBox="0 0 864 432" width="864pt" xmlns="http://www.w3.org/2000/svg" xmlns:xlink="http://www.w3.org/1999/xlink">
 <defs>
  <style type="text/css">
*{stroke-linecap:butt;stroke-linejoin:round;}
  </style>
 </defs>
 <g id="figure_1">
  <g id="patch_1">
   <path d="M 0 432 
L 864 432 
L 864 0 
L 0 0 
z
" style="fill:#ffffff;"/>
  </g>
  <g id="axes_1">
   <g id="patch_2">
    <path d="M 108 384.48 
L 777.6 384.48 
L 777.6 51.84 
L 108 51.84 
z
" style="fill:#ffffff;"/>
   </g>
   <g id="patch_3">
    <path clip-path="url(#pedb39d13c8)" d="M 138.436364 384.48 
L 138.436364 51.84 
L 378.476693 51.84 
L 378.476693 384.48 
z
" style="fill:#0000ff;opacity:0.05;"/>
   </g>
   <g id="patch_4">
    <path clip-path="url(#pedb39d13c8)" d="M 378.476693 384.48 
L 378.476693 51.84 
L 738.537187 51.84 
L 738.537187 384.48 
z
" style="fill:#ff0000;opacity:0.08;"/>
   </g>
   <g id="patch_5">
    <path clip-path="url(#pedb39d13c8)" d="M 138.436364 384.48 
L 138.436364 51.84 
L 153.438884 51.84 
L 153.438884 384.48 
z
" style="fill:#008000;opacity:0.04;"/>
   </g>
   <g id="patch_6">
    <path clip-path="url(#pedb39d13c8)" d="M 138.436364 384.48 
L 138.436364 371.1744 
L 153.438884 371.1744 
L 153.438884 384.48 
z
" style="fill:#ffe500;"/>
   </g>
   <g id="patch_7">
    <path clip-path="url(#pedb39d13c8)" d="M 168.441405 384.48 
L 168.441405 51.84 
L 183.443925 51.84 
L 183.443925 384.48 
z
" style="fill:#008000;opacity:0.04;"/>
   </g>
   <g id="patch_8">
    <path clip-path="url(#pedb39d13c8)" d="M 198.446446 384.48 
L 198.446446 51.84 
L 213.448967 51.84 
L 213.448967 384.48 
z
" style="fill:#008000;opacity:0.04;"/>
   </g>
   <g id="patch_9">
    <path clip-path="url(#pedb39d13c8)" d="M 228.451487 384.48 
L 228.451487 51.84 
L 243.454008 51.84 
L 243.454008 384.48 
z
" style="fill:#008000;opacity:0.04;"/>
   </g>
   <g id="patch_10">
    <path clip-path="url(#pedb39d13c8)" d="M 258.456528 384.48 
L 258.456528 51.84 
L 273.459049 51.84 
L 273.459049 384.48 
z
" style="fill:#008000;opacity:0.04;"/>
   </g>
   <g id="patch_11">
    <path clip-path="url(#pedb39d13c8)" d="M 513.499378 384.48 
L 513.499378 371.1744 
L 528.501899 371.1744 
L 528.501899 384.48 
z
" style="fill:#ff6600;"/>
   </g>
   <g id="patch_12">
    <path clip-path="url(#pedb39d13c8)" d="M 288.461569 384.48 
L 288.461569 51.84 
L 303.46409 51.84 
L 303.46409 384.48 
z
" style="fill:#008000;opacity:0.04;"/>
   </g>
   <g id="patch_13">
    <path clip-path="url(#pedb39d13c8)" d="M 318.466611 384.48 
L 318.466611 51.84 
L 333.469131 51.84 
L 333.469131 384.48 
z
" style="fill:#008000;opacity:0.04;"/>
   </g>
   <g id="patch_14">
    <path clip-path="url(#pedb39d13c8)" d="M 348.471652 384.48 
L 348.471652 51.84 
L 363.474172 51.84 
L 363.474172 384.48 
z
" style="fill:#008000;opacity:0.04;"/>
   </g>
   <g id="patch_15">
    <path clip-path="url(#pedb39d13c8)" d="M 348.471652 371.1744 
L 348.471652 51.84 
L 363.474172 51.84 
L 363.474172 371.1744 
z
" style="fill:#008000;opacity:0.5;"/>
   </g>
   <g id="patch_16">
    <path clip-path="url(#pedb39d13c8)" d="M 363.474172 371.1744 
L 363.474172 51.84 
L 378.476693 51.84 
L 378.476693 371.1744 
z
" style="fill:#008000;opacity:0.5;"/>
   </g>
   <g id="patch_17">
    <path clip-path="url(#pedb39d13c8)" d="M 378.476693 384.48 
L 378.476693 51.84 
L 393.479214 51.84 
L 393.479214 384.48 
z
" style="fill:#008000;opacity:0.04;"/>
   </g>
   <g id="patch_18">
    <path clip-path="url(#pedb39d13c8)" d="M 378.476693 371.1744 
L 378.476693 51.84 
L 393.479214 51.84 
L 393.479214 371.1744 
z
" style="fill:#008000;opacity:0.5;"/>
   </g>
   <g id="patch_19">
    <path clip-path="url(#pedb39d13c8)" d="M 408.481734 384.48 
L 408.481734 51.84 
L 423.484255 51.84 
L 423.484255 384.48 
z
" style="fill:#008000;opacity:0.04;"/>
   </g>
   <g id="patch_20">
    <path clip-path="url(#pedb39d13c8)" d="M 438.486775 384.48 
L 438.486775 51.84 
L 453.489296 51.84 
L 453.489296 384.48 
z
" style="fill:#008000;opacity:0.04;"/>
   </g>
   <g id="patch_21">
    <path clip-path="url(#pedb39d13c8)" d="M 468.491817 384.48 
L 468.491817 51.84 
L 483.494337 51.84 
L 483.494337 384.48 
z
" style="fill:#008000;opacity:0.04;"/>
   </g>
   <g id="patch_22">
    <path clip-path="url(#pedb39d13c8)" d="M 483.494337 371.1744 
L 483.494337 51.84 
L 498.496858 51.84 
L 498.496858 371.1744 
z
" style="fill:#008000;opacity:0.5;"/>
   </g>
   <g id="patch_23">
    <path clip-path="url(#pedb39d13c8)" d="M 498.496858 384.48 
L 498.496858 51.84 
L 513.499378 51.84 
L 513.499378 384.48 
z
" style="fill:#008000;opacity:0.04;"/>
   </g>
   <g id="patch_24">
    <path clip-path="url(#pedb39d13c8)" d="M 498.496858 371.1744 
L 498.496858 51.84 
L 513.499378 51.84 
L 513.499378 371.1744 
z
" style="fill:#008000;opacity:0.5;"/>
   </g>
   <g id="patch_25">
    <path clip-path="url(#pedb39d13c8)" d="M 513.499378 371.1744 
L 513.499378 51.84 
L 528.501899 51.84 
L 528.501899 371.1744 
z
" style="fill:#008000;opacity:0.5;"/>
   </g>
   <g id="patch_26">
    <path clip-path="url(#pedb39d13c8)" d="M 528.501899 384.48 
L 528.501899 51.84 
L 543.504419 51.84 
L 543.504419 384.48 
z
" style="fill:#008000;opacity:0.04;"/>
   </g>
   <g id="patch_27">
    <path clip-path="url(#pedb39d13c8)" d="M 558.50694 384.48 
L 558.50694 51.84 
L 573.509461 51.84 
L 573.509461 384.48 
z
" style="fill:#008000;opacity:0.04;"/>
   </g>
   <g id="patch_28">
    <path clip-path="url(#pedb39d13c8)" d="M 588.511981 384.48 
L 588.511981 51.84 
L 603.514502 51.84 
L 603.514502 384.48 
z
" style="fill:#008000;opacity:0.04;"/>
   </g>
   <g id="patch_29">
    <path clip-path="url(#pedb39d13c8)" d="M 618.517022 384.48 
L 618.517022 51.84 
L 633.519543 51.84 
L 633.519543 384.48 
z
" style="fill:#008000;opacity:0.04;"/>
   </g>
   <g id="patch_30">
    <path clip-path="url(#pedb39d13c8)" d="M 648.522064 384.48 
L 648.522064 51.84 
L 663.524584 51.84 
L 663.524584 384.48 
z
" style="fill:#008000;opacity:0.04;"/>
   </g>
   <g id="patch_31">
    <path clip-path="url(#pedb39d13c8)" d="M 678.527105 384.48 
L 678.527105 51.84 
L 693.529625 51.84 
L 693.529625 384.48 
z
" style="fill:#008000;opacity:0.04;"/>
   </g>
   <g id="patch_32">
    <path clip-path="url(#pedb39d13c8)" d="M 708.532146 384.48 
L 708.532146 51.84 
L 723.534666 51.84 
L 723.534666 384.48 
z
" style="fill:#008000;opacity:0.04;"/>
   </g>
   <g id="matplotlib.axis_1">
    <g id="xtick_1">
     <g id="line2d_1">
      <defs>
       <path d="M 0 0 
L 0 3.5 
" id="mcdaffe3304" style="stroke:#000000;stroke-width:0.8;"/>
      </defs>
      <g>
       <use style="stroke:#000000;stroke-width:0.8;" x="138.436364" xlink:href="#mcdaffe3304" y="384.48"/>
      </g>
     </g>
     <g id="text_1">
      <!-- 0 -->
      <defs>
       <path d="M 31.78125 66.40625 
Q 24.171875 66.40625 20.328125 58.90625 
Q 16.5 51.421875 16.5 36.375 
Q 16.5 21.390625 20.328125 13.890625 
Q 24.171875 6.390625 31.78125 6.390625 
Q 39.453125 6.390625 43.28125 13.890625 
Q 47.125 21.390625 47.125 36.375 
Q 47.125 51.421875 43.28125 58.90625 
Q 39.453125 66.40625 31.78125 66.40625 
z
M 31.78125 74.21875 
Q 44.046875 74.21875 50.515625 64.515625 
Q 56.984375 54.828125 56.984375 36.375 
Q 56.984375 17.96875 50.515625 8.265625 
Q 44.046875 -1.421875 31.78125 -1.421875 
Q 19.53125 -1.421875 13.0625 8.265625 
Q 6.59375 17.96875 6.59375 36.375 
Q 6.59375 54.828125 13.0625 64.515625 
Q 19.53125 74.21875 31.78125 74.21875 
z
" id="DejaVuSans-48"/>
      </defs>
      <g transform="translate(135.255114 399.078438)scale(0.1 -0.1)">
       <use xlink:href="#DejaVuSans-48"/>
      </g>
     </g>
    </g>
    <g id="xtick_2">
     <g id="line2d_2">
      <g>
       <use style="stroke:#000000;stroke-width:0.8;" x="213.448967" xlink:href="#mcdaffe3304" y="384.48"/>
      </g>
     </g>
     <g id="text_2">
      <!-- 200 -->
      <defs>
       <path d="M 19.1875 8.296875 
L 53.609375 8.296875 
L 53.609375 0 
L 7.328125 0 
L 7.328125 8.296875 
Q 12.9375 14.109375 22.625 23.890625 
Q 32.328125 33.6875 34.8125 36.53125 
Q 39.546875 41.84375 41.421875 45.53125 
Q 43.3125 49.21875 43.3125 52.78125 
Q 43.3125 58.59375 39.234375 62.25 
Q 35.15625 65.921875 28.609375 65.921875 
Q 23.96875 65.921875 18.8125 64.3125 
Q 13.671875 62.703125 7.8125 59.421875 
L 7.8125 69.390625 
Q 13.765625 71.78125 18.9375 73 
Q 24.125 74.21875 28.421875 74.21875 
Q 39.75 74.21875 46.484375 68.546875 
Q 53.21875 62.890625 53.21875 53.421875 
Q 53.21875 48.921875 51.53125 44.890625 
Q 49.859375 40.875 45.40625 35.40625 
Q 44.1875 33.984375 37.640625 27.21875 
Q 31.109375 20.453125 19.1875 8.296875 
z
" id="DejaVuSans-50"/>
      </defs>
      <g transform="translate(203.905217 399.078438)scale(0.1 -0.1)">
       <use xlink:href="#DejaVuSans-50"/>
       <use x="63.623047" xlink:href="#DejaVuSans-48"/>
       <use x="127.246094" xlink:href="#DejaVuSans-48"/>
      </g>
     </g>
    </g>
    <g id="xtick_3">
     <g id="line2d_3">
      <g>
       <use style="stroke:#000000;stroke-width:0.8;" x="288.461569" xlink:href="#mcdaffe3304" y="384.48"/>
      </g>
     </g>
     <g id="text_3">
      <!-- 400 -->
      <defs>
       <path d="M 37.796875 64.3125 
L 12.890625 25.390625 
L 37.796875 25.390625 
z
M 35.203125 72.90625 
L 47.609375 72.90625 
L 47.609375 25.390625 
L 58.015625 25.390625 
L 58.015625 17.1875 
L 47.609375 17.1875 
L 47.609375 0 
L 37.796875 0 
L 37.796875 17.1875 
L 4.890625 17.1875 
L 4.890625 26.703125 
z
" id="DejaVuSans-52"/>
      </defs>
      <g transform="translate(278.917819 399.078438)scale(0.1 -0.1)">
       <use xlink:href="#DejaVuSans-52"/>
       <use x="63.623047" xlink:href="#DejaVuSans-48"/>
       <use x="127.246094" xlink:href="#DejaVuSans-48"/>
      </g>
     </g>
    </g>
    <g id="xtick_4">
     <g id="line2d_4">
      <g>
       <use style="stroke:#000000;stroke-width:0.8;" x="363.474172" xlink:href="#mcdaffe3304" y="384.48"/>
      </g>
     </g>
     <g id="text_4">
      <!-- 600 -->
      <defs>
       <path d="M 33.015625 40.375 
Q 26.375 40.375 22.484375 35.828125 
Q 18.609375 31.296875 18.609375 23.390625 
Q 18.609375 15.53125 22.484375 10.953125 
Q 26.375 6.390625 33.015625 6.390625 
Q 39.65625 6.390625 43.53125 10.953125 
Q 47.40625 15.53125 47.40625 23.390625 
Q 47.40625 31.296875 43.53125 35.828125 
Q 39.65625 40.375 33.015625 40.375 
z
M 52.59375 71.296875 
L 52.59375 62.3125 
Q 48.875 64.0625 45.09375 64.984375 
Q 41.3125 65.921875 37.59375 65.921875 
Q 27.828125 65.921875 22.671875 59.328125 
Q 17.53125 52.734375 16.796875 39.40625 
Q 19.671875 43.65625 24.015625 45.921875 
Q 28.375 48.1875 33.59375 48.1875 
Q 44.578125 48.1875 50.953125 41.515625 
Q 57.328125 34.859375 57.328125 23.390625 
Q 57.328125 12.15625 50.6875 5.359375 
Q 44.046875 -1.421875 33.015625 -1.421875 
Q 20.359375 -1.421875 13.671875 8.265625 
Q 6.984375 17.96875 6.984375 36.375 
Q 6.984375 53.65625 15.1875 63.9375 
Q 23.390625 74.21875 37.203125 74.21875 
Q 40.921875 74.21875 44.703125 73.484375 
Q 48.484375 72.75 52.59375 71.296875 
z
" id="DejaVuSans-54"/>
      </defs>
      <g transform="translate(353.930422 399.078438)scale(0.1 -0.1)">
       <use xlink:href="#DejaVuSans-54"/>
       <use x="63.623047" xlink:href="#DejaVuSans-48"/>
       <use x="127.246094" xlink:href="#DejaVuSans-48"/>
      </g>
     </g>
    </g>
    <g id="xtick_5">
     <g id="line2d_5">
      <g>
       <use style="stroke:#000000;stroke-width:0.8;" x="438.486775" xlink:href="#mcdaffe3304" y="384.48"/>
      </g>
     </g>
     <g id="text_5">
      <!-- 800 -->
      <defs>
       <path d="M 31.78125 34.625 
Q 24.75 34.625 20.71875 30.859375 
Q 16.703125 27.09375 16.703125 20.515625 
Q 16.703125 13.921875 20.71875 10.15625 
Q 24.75 6.390625 31.78125 6.390625 
Q 38.8125 6.390625 42.859375 10.171875 
Q 46.921875 13.96875 46.921875 20.515625 
Q 46.921875 27.09375 42.890625 30.859375 
Q 38.875 34.625 31.78125 34.625 
z
M 21.921875 38.8125 
Q 15.578125 40.375 12.03125 44.71875 
Q 8.5 49.078125 8.5 55.328125 
Q 8.5 64.0625 14.71875 69.140625 
Q 20.953125 74.21875 31.78125 74.21875 
Q 42.671875 74.21875 48.875 69.140625 
Q 55.078125 64.0625 55.078125 55.328125 
Q 55.078125 49.078125 51.53125 44.71875 
Q 48 40.375 41.703125 38.8125 
Q 48.828125 37.15625 52.796875 32.3125 
Q 56.78125 27.484375 56.78125 20.515625 
Q 56.78125 9.90625 50.3125 4.234375 
Q 43.84375 -1.421875 31.78125 -1.421875 
Q 19.734375 -1.421875 13.25 4.234375 
Q 6.78125 9.90625 6.78125 20.515625 
Q 6.78125 27.484375 10.78125 32.3125 
Q 14.796875 37.15625 21.921875 38.8125 
z
M 18.3125 54.390625 
Q 18.3125 48.734375 21.84375 45.5625 
Q 25.390625 42.390625 31.78125 42.390625 
Q 38.140625 42.390625 41.71875 45.5625 
Q 45.3125 48.734375 45.3125 54.390625 
Q 45.3125 60.0625 41.71875 63.234375 
Q 38.140625 66.40625 31.78125 66.40625 
Q 25.390625 66.40625 21.84375 63.234375 
Q 18.3125 60.0625 18.3125 54.390625 
z
" id="DejaVuSans-56"/>
      </defs>
      <g transform="translate(428.943025 399.078438)scale(0.1 -0.1)">
       <use xlink:href="#DejaVuSans-56"/>
       <use x="63.623047" xlink:href="#DejaVuSans-48"/>
       <use x="127.246094" xlink:href="#DejaVuSans-48"/>
      </g>
     </g>
    </g>
    <g id="xtick_6">
     <g id="line2d_6">
      <g>
       <use style="stroke:#000000;stroke-width:0.8;" x="513.499378" xlink:href="#mcdaffe3304" y="384.48"/>
      </g>
     </g>
     <g id="text_6">
      <!-- 1000 -->
      <defs>
       <path d="M 12.40625 8.296875 
L 28.515625 8.296875 
L 28.515625 63.921875 
L 10.984375 60.40625 
L 10.984375 69.390625 
L 28.421875 72.90625 
L 38.28125 72.90625 
L 38.28125 8.296875 
L 54.390625 8.296875 
L 54.390625 0 
L 12.40625 0 
z
" id="DejaVuSans-49"/>
      </defs>
      <g transform="translate(500.774378 399.078438)scale(0.1 -0.1)">
       <use xlink:href="#DejaVuSans-49"/>
       <use x="63.623047" xlink:href="#DejaVuSans-48"/>
       <use x="127.246094" xlink:href="#DejaVuSans-48"/>
       <use x="190.869141" xlink:href="#DejaVuSans-48"/>
      </g>
     </g>
    </g>
    <g id="xtick_7">
     <g id="line2d_7">
      <g>
       <use style="stroke:#000000;stroke-width:0.8;" x="588.511981" xlink:href="#mcdaffe3304" y="384.48"/>
      </g>
     </g>
     <g id="text_7">
      <!-- 1200 -->
      <g transform="translate(575.786981 399.078438)scale(0.1 -0.1)">
       <use xlink:href="#DejaVuSans-49"/>
       <use x="63.623047" xlink:href="#DejaVuSans-50"/>
       <use x="127.246094" xlink:href="#DejaVuSans-48"/>
       <use x="190.869141" xlink:href="#DejaVuSans-48"/>
      </g>
     </g>
    </g>
    <g id="xtick_8">
     <g id="line2d_8">
      <g>
       <use style="stroke:#000000;stroke-width:0.8;" x="663.524584" xlink:href="#mcdaffe3304" y="384.48"/>
      </g>
     </g>
     <g id="text_8">
      <!-- 1400 -->
      <g transform="translate(650.799584 399.078438)scale(0.1 -0.1)">
       <use xlink:href="#DejaVuSans-49"/>
       <use x="63.623047" xlink:href="#DejaVuSans-52"/>
       <use x="127.246094" xlink:href="#DejaVuSans-48"/>
       <use x="190.869141" xlink:href="#DejaVuSans-48"/>
      </g>
     </g>
    </g>
    <g id="xtick_9">
     <g id="line2d_9">
      <g>
       <use style="stroke:#000000;stroke-width:0.8;" x="738.537187" xlink:href="#mcdaffe3304" y="384.48"/>
      </g>
     </g>
     <g id="text_9">
      <!-- 1600 -->
      <g transform="translate(725.812187 399.078438)scale(0.1 -0.1)">
       <use xlink:href="#DejaVuSans-49"/>
       <use x="63.623047" xlink:href="#DejaVuSans-54"/>
       <use x="127.246094" xlink:href="#DejaVuSans-48"/>
       <use x="190.869141" xlink:href="#DejaVuSans-48"/>
      </g>
     </g>
    </g>
    <g id="text_10">
     <!-- Timestamp -->
     <defs>
      <path d="M -0.296875 72.90625 
L 61.375 72.90625 
L 61.375 64.59375 
L 35.5 64.59375 
L 35.5 0 
L 25.59375 0 
L 25.59375 64.59375 
L -0.296875 64.59375 
z
" id="DejaVuSans-84"/>
      <path d="M 9.421875 54.6875 
L 18.40625 54.6875 
L 18.40625 0 
L 9.421875 0 
z
M 9.421875 75.984375 
L 18.40625 75.984375 
L 18.40625 64.59375 
L 9.421875 64.59375 
z
" id="DejaVuSans-105"/>
      <path d="M 52 44.1875 
Q 55.375 50.25 60.0625 53.125 
Q 64.75 56 71.09375 56 
Q 79.640625 56 84.28125 50.015625 
Q 88.921875 44.046875 88.921875 33.015625 
L 88.921875 0 
L 79.890625 0 
L 79.890625 32.71875 
Q 79.890625 40.578125 77.09375 44.375 
Q 74.3125 48.1875 68.609375 48.1875 
Q 61.625 48.1875 57.5625 43.546875 
Q 53.515625 38.921875 53.515625 30.90625 
L 53.515625 0 
L 44.484375 0 
L 44.484375 32.71875 
Q 44.484375 40.625 41.703125 44.40625 
Q 38.921875 48.1875 33.109375 48.1875 
Q 26.21875 48.1875 22.15625 43.53125 
Q 18.109375 38.875 18.109375 30.90625 
L 18.109375 0 
L 9.078125 0 
L 9.078125 54.6875 
L 18.109375 54.6875 
L 18.109375 46.1875 
Q 21.1875 51.21875 25.484375 53.609375 
Q 29.78125 56 35.6875 56 
Q 41.65625 56 45.828125 52.96875 
Q 50 49.953125 52 44.1875 
z
" id="DejaVuSans-109"/>
      <path d="M 56.203125 29.59375 
L 56.203125 25.203125 
L 14.890625 25.203125 
Q 15.484375 15.921875 20.484375 11.0625 
Q 25.484375 6.203125 34.421875 6.203125 
Q 39.59375 6.203125 44.453125 7.46875 
Q 49.3125 8.734375 54.109375 11.28125 
L 54.109375 2.78125 
Q 49.265625 0.734375 44.1875 -0.34375 
Q 39.109375 -1.421875 33.890625 -1.421875 
Q 20.796875 -1.421875 13.15625 6.1875 
Q 5.515625 13.8125 5.515625 26.8125 
Q 5.515625 40.234375 12.765625 48.109375 
Q 20.015625 56 32.328125 56 
Q 43.359375 56 49.78125 48.890625 
Q 56.203125 41.796875 56.203125 29.59375 
z
M 47.21875 32.234375 
Q 47.125 39.59375 43.09375 43.984375 
Q 39.0625 48.390625 32.421875 48.390625 
Q 24.90625 48.390625 20.390625 44.140625 
Q 15.875 39.890625 15.1875 32.171875 
z
" id="DejaVuSans-101"/>
      <path d="M 44.28125 53.078125 
L 44.28125 44.578125 
Q 40.484375 46.53125 36.375 47.5 
Q 32.28125 48.484375 27.875 48.484375 
Q 21.1875 48.484375 17.84375 46.4375 
Q 14.5 44.390625 14.5 40.28125 
Q 14.5 37.15625 16.890625 35.375 
Q 19.28125 33.59375 26.515625 31.984375 
L 29.59375 31.296875 
Q 39.15625 29.25 43.1875 25.515625 
Q 47.21875 21.78125 47.21875 15.09375 
Q 47.21875 7.46875 41.1875 3.015625 
Q 35.15625 -1.421875 24.609375 -1.421875 
Q 20.21875 -1.421875 15.453125 -0.5625 
Q 10.6875 0.296875 5.421875 2 
L 5.421875 11.28125 
Q 10.40625 8.6875 15.234375 7.390625 
Q 20.0625 6.109375 24.8125 6.109375 
Q 31.15625 6.109375 34.5625 8.28125 
Q 37.984375 10.453125 37.984375 14.40625 
Q 37.984375 18.0625 35.515625 20.015625 
Q 33.0625 21.96875 24.703125 23.78125 
L 21.578125 24.515625 
Q 13.234375 26.265625 9.515625 29.90625 
Q 5.8125 33.546875 5.8125 39.890625 
Q 5.8125 47.609375 11.28125 51.796875 
Q 16.75 56 26.8125 56 
Q 31.78125 56 36.171875 55.265625 
Q 40.578125 54.546875 44.28125 53.078125 
z
" id="DejaVuSans-115"/>
      <path d="M 18.3125 70.21875 
L 18.3125 54.6875 
L 36.8125 54.6875 
L 36.8125 47.703125 
L 18.3125 47.703125 
L 18.3125 18.015625 
Q 18.3125 11.328125 20.140625 9.421875 
Q 21.96875 7.515625 27.59375 7.515625 
L 36.8125 7.515625 
L 36.8125 0 
L 27.59375 0 
Q 17.1875 0 13.234375 3.875 
Q 9.28125 7.765625 9.28125 18.015625 
L 9.28125 47.703125 
L 2.6875 47.703125 
L 2.6875 54.6875 
L 9.28125 54.6875 
L 9.28125 70.21875 
z
" id="DejaVuSans-116"/>
      <path d="M 34.28125 27.484375 
Q 23.390625 27.484375 19.1875 25 
Q 14.984375 22.515625 14.984375 16.5 
Q 14.984375 11.71875 18.140625 8.90625 
Q 21.296875 6.109375 26.703125 6.109375 
Q 34.1875 6.109375 38.703125 11.40625 
Q 43.21875 16.703125 43.21875 25.484375 
L 43.21875 27.484375 
z
M 52.203125 31.203125 
L 52.203125 0 
L 43.21875 0 
L 43.21875 8.296875 
Q 40.140625 3.328125 35.546875 0.953125 
Q 30.953125 -1.421875 24.3125 -1.421875 
Q 15.921875 -1.421875 10.953125 3.296875 
Q 6 8.015625 6 15.921875 
Q 6 25.140625 12.171875 29.828125 
Q 18.359375 34.515625 30.609375 34.515625 
L 43.21875 34.515625 
L 43.21875 35.40625 
Q 43.21875 41.609375 39.140625 45 
Q 35.0625 48.390625 27.6875 48.390625 
Q 23 48.390625 18.546875 47.265625 
Q 14.109375 46.140625 10.015625 43.890625 
L 10.015625 52.203125 
Q 14.9375 54.109375 19.578125 55.046875 
Q 24.21875 56 28.609375 56 
Q 40.484375 56 46.34375 49.84375 
Q 52.203125 43.703125 52.203125 31.203125 
z
" id="DejaVuSans-97"/>
      <path d="M 18.109375 8.203125 
L 18.109375 -20.796875 
L 9.078125 -20.796875 
L 9.078125 54.6875 
L 18.109375 54.6875 
L 18.109375 46.390625 
Q 20.953125 51.265625 25.265625 53.625 
Q 29.59375 56 35.59375 56 
Q 45.5625 56 51.78125 48.09375 
Q 58.015625 40.1875 58.015625 27.296875 
Q 58.015625 14.40625 51.78125 6.484375 
Q 45.5625 -1.421875 35.59375 -1.421875 
Q 29.59375 -1.421875 25.265625 0.953125 
Q 20.953125 3.328125 18.109375 8.203125 
z
M 48.6875 27.296875 
Q 48.6875 37.203125 44.609375 42.84375 
Q 40.53125 48.484375 33.40625 48.484375 
Q 26.265625 48.484375 22.1875 42.84375 
Q 18.109375 37.203125 18.109375 27.296875 
Q 18.109375 17.390625 22.1875 11.75 
Q 26.265625 6.109375 33.40625 6.109375 
Q 40.53125 6.109375 44.609375 11.75 
Q 48.6875 17.390625 48.6875 27.296875 
z
" id="DejaVuSans-112"/>
     </defs>
     <g transform="translate(414.739062 412.756563)scale(0.1 -0.1)">
      <use xlink:href="#DejaVuSans-84"/>
      <use x="61.037109" xlink:href="#DejaVuSans-105"/>
      <use x="88.820312" xlink:href="#DejaVuSans-109"/>
      <use x="186.232422" xlink:href="#DejaVuSans-101"/>
      <use x="247.755859" xlink:href="#DejaVuSans-115"/>
      <use x="299.855469" xlink:href="#DejaVuSans-116"/>
      <use x="339.064453" xlink:href="#DejaVuSans-97"/>
      <use x="400.34375" xlink:href="#DejaVuSans-109"/>
      <use x="497.755859" xlink:href="#DejaVuSans-112"/>
     </g>
    </g>
   </g>
   <g id="matplotlib.axis_2">
    <g id="ytick_1">
     <g id="line2d_10">
      <defs>
       <path d="M 0 0 
L -3.5 0 
" id="me62aba50df" style="stroke:#000000;stroke-width:0.8;"/>
      </defs>
      <g>
       <use style="stroke:#000000;stroke-width:0.8;" x="108" xlink:href="#me62aba50df" y="369.47077"/>
      </g>
     </g>
     <g id="text_11">
      <!-- 0.0 -->
      <defs>
       <path d="M 10.6875 12.40625 
L 21 12.40625 
L 21 0 
L 10.6875 0 
z
" id="DejaVuSans-46"/>
      </defs>
      <g transform="translate(85.096875 373.269989)scale(0.1 -0.1)">
       <use xlink:href="#DejaVuSans-48"/>
       <use x="63.623047" xlink:href="#DejaVuSans-46"/>
       <use x="95.410156" xlink:href="#DejaVuSans-48"/>
      </g>
     </g>
    </g>
    <g id="ytick_2">
     <g id="line2d_11">
      <g>
       <use style="stroke:#000000;stroke-width:0.8;" x="108" xlink:href="#me62aba50df" y="311.928721"/>
      </g>
     </g>
     <g id="text_12">
      <!-- 0.2 -->
      <g transform="translate(85.096875 315.72794)scale(0.1 -0.1)">
       <use xlink:href="#DejaVuSans-48"/>
       <use x="63.623047" xlink:href="#DejaVuSans-46"/>
       <use x="95.410156" xlink:href="#DejaVuSans-50"/>
      </g>
     </g>
    </g>
    <g id="ytick_3">
     <g id="line2d_12">
      <g>
       <use style="stroke:#000000;stroke-width:0.8;" x="108" xlink:href="#me62aba50df" y="254.386673"/>
      </g>
     </g>
     <g id="text_13">
      <!-- 0.4 -->
      <g transform="translate(85.096875 258.185891)scale(0.1 -0.1)">
       <use xlink:href="#DejaVuSans-48"/>
       <use x="63.623047" xlink:href="#DejaVuSans-46"/>
       <use x="95.410156" xlink:href="#DejaVuSans-52"/>
      </g>
     </g>
    </g>
    <g id="ytick_4">
     <g id="line2d_13">
      <g>
       <use style="stroke:#000000;stroke-width:0.8;" x="108" xlink:href="#me62aba50df" y="196.844624"/>
      </g>
     </g>
     <g id="text_14">
      <!-- 0.6 -->
      <g transform="translate(85.096875 200.643843)scale(0.1 -0.1)">
       <use xlink:href="#DejaVuSans-48"/>
       <use x="63.623047" xlink:href="#DejaVuSans-46"/>
       <use x="95.410156" xlink:href="#DejaVuSans-54"/>
      </g>
     </g>
    </g>
    <g id="ytick_5">
     <g id="line2d_14">
      <g>
       <use style="stroke:#000000;stroke-width:0.8;" x="108" xlink:href="#me62aba50df" y="139.302576"/>
      </g>
     </g>
     <g id="text_15">
      <!-- 0.8 -->
      <g transform="translate(85.096875 143.101794)scale(0.1 -0.1)">
       <use xlink:href="#DejaVuSans-48"/>
       <use x="63.623047" xlink:href="#DejaVuSans-46"/>
       <use x="95.410156" xlink:href="#DejaVuSans-56"/>
      </g>
     </g>
    </g>
    <g id="ytick_6">
     <g id="line2d_15">
      <g>
       <use style="stroke:#000000;stroke-width:0.8;" x="108" xlink:href="#me62aba50df" y="81.760527"/>
      </g>
     </g>
     <g id="text_16">
      <!-- 1.0 -->
      <g transform="translate(85.096875 85.559746)scale(0.1 -0.1)">
       <use xlink:href="#DejaVuSans-49"/>
       <use x="63.623047" xlink:href="#DejaVuSans-46"/>
       <use x="95.410156" xlink:href="#DejaVuSans-48"/>
      </g>
     </g>
    </g>
    <g id="text_17">
     <!-- Value -->
     <defs>
      <path d="M 28.609375 0 
L 0.78125 72.90625 
L 11.078125 72.90625 
L 34.1875 11.53125 
L 57.328125 72.90625 
L 67.578125 72.90625 
L 39.796875 0 
z
" id="DejaVuSans-86"/>
      <path d="M 9.421875 75.984375 
L 18.40625 75.984375 
L 18.40625 0 
L 9.421875 0 
z
" id="DejaVuSans-108"/>
      <path d="M 8.5 21.578125 
L 8.5 54.6875 
L 17.484375 54.6875 
L 17.484375 21.921875 
Q 17.484375 14.15625 20.5 10.265625 
Q 23.53125 6.390625 29.59375 6.390625 
Q 36.859375 6.390625 41.078125 11.03125 
Q 45.3125 15.671875 45.3125 23.6875 
L 45.3125 54.6875 
L 54.296875 54.6875 
L 54.296875 0 
L 45.3125 0 
L 45.3125 8.40625 
Q 42.046875 3.421875 37.71875 1 
Q 33.40625 -1.421875 27.6875 -1.421875 
Q 18.265625 -1.421875 13.375 4.4375 
Q 8.5 10.296875 8.5 21.578125 
z
M 31.109375 56 
z
" id="DejaVuSans-117"/>
     </defs>
     <g transform="translate(79.017187 232.273281)rotate(-90)scale(0.1 -0.1)">
      <use xlink:href="#DejaVuSans-86"/>
      <use x="68.298828" xlink:href="#DejaVuSans-97"/>
      <use x="129.578125" xlink:href="#DejaVuSans-108"/>
      <use x="157.361328" xlink:href="#DejaVuSans-117"/>
      <use x="220.740234" xlink:href="#DejaVuSans-101"/>
     </g>
    </g>
   </g>
   <g id="line2d_16">
    <path clip-path="url(#pedb39d13c8)" d="M 138.436364 254.085124 
L 138.811427 256.481525 
L 139.561553 308.206167 
L 139.936616 310.259741 
L 140.686742 281.25004 
L 141.061805 284.307952 
L 141.811931 142.10789 
L 142.186994 155.441159 
L 142.562057 157.451399 
L 142.93712 168.769213 
L 143.312183 171.715482 
L 143.687246 220.595698 
L 144.062309 220.141467 
L 144.437372 221.549334 
L 144.812435 249.416298 
L 145.187498 297.987027 
L 145.562561 280.464588 
L 145.937624 290.906342 
L 146.312687 293.38263 
L 146.68775 302.756594 
L 147.062813 294.219433 
L 147.437876 276.017986 
L 147.812939 297.163238 
L 148.188002 307.714878 
L 148.563065 321.630235 
L 148.938128 308.529383 
L 149.313191 282.232106 
L 149.688254 286.639575 
L 150.063317 255.331603 
L 150.43838 200.177594 
L 150.813443 198.749918 
L 151.188506 164.083025 
L 151.563569 142.891699 
L 152.313695 173.234533 
L 152.688758 161.553611 
L 153.063821 217.1744 
L 153.438884 253.259297 
L 154.18901 289.914391 
L 154.564073 290.743545 
L 154.939136 269.165474 
L 155.314199 286.279863 
L 155.689262 276.918145 
L 156.439388 310.529603 
L 156.814451 309.794004 
L 157.564577 331.434717 
L 157.93964 320.302352 
L 158.314703 289.108801 
L 158.689766 298.194993 
L 159.064829 269.408327 
L 159.439892 174.67943 
L 159.814955 188.643138 
L 160.190018 196.627565 
L 160.565081 198.117215 
L 160.940145 162.805037 
L 161.690271 207.924337 
L 162.065334 242.928208 
L 162.81546 281.813564 
L 163.190523 293.710863 
L 163.565586 299.581565 
L 163.940649 300.032945 
L 164.315712 309.565352 
L 164.690775 311.233729 
L 165.065838 302.939785 
L 165.440901 317.699708 
L 165.815964 314.036665 
L 166.56609 328.53764 
L 166.941153 331.966304 
L 167.691279 308.28166 
L 168.066342 288.759084 
L 168.441405 232.80508 
L 168.816468 212.902555 
L 169.191531 224.366968 
L 169.566594 215.568171 
L 169.941657 194.028085 
L 170.31672 220.033069 
L 170.691783 218.910906 
L 171.441909 274.99849 
L 171.816972 268.737979 
L 172.192035 299.246743 
L 172.567098 300.196598 
L 172.942161 306.26032 
L 173.317224 307.301923 
L 173.692287 305.5098 
L 174.06735 297.054043 
L 174.442413 303.709719 
L 174.817476 322.655225 
L 175.192539 317.57268 
L 175.567602 332.509146 
L 175.942665 331.49621 
L 176.692791 305.730406 
L 177.067854 289.565358 
L 177.442917 242.570737 
L 177.81798 231.879587 
L 178.193043 212.497579 
L 178.568106 177.42685 
L 178.943169 213.075894 
L 179.318232 200.226545 
L 179.693295 246.115365 
L 180.818484 276.921704 
L 181.193547 291.403086 
L 181.56861 300.96038 
L 181.943673 307.550313 
L 182.318736 308.264734 
L 182.693799 314.427815 
L 183.068862 299.81267 
L 183.443925 304.712533 
L 183.818988 312.659217 
L 184.194051 330.14052 
L 184.569114 336.752418 
L 185.31924 311.138633 
L 185.694303 304.529126 
L 186.069366 288.234539 
L 186.819493 183.856984 
L 187.194556 218.087353 
L 187.569619 203.989873 
L 187.944682 203.474214 
L 188.319745 221.292707 
L 188.694808 252.599355 
L 189.069871 240.932024 
L 189.444934 265.630923 
L 189.819997 267.384639 
L 190.570123 299.38302 
L 190.945186 309.719793 
L 191.320249 284.400673 
L 191.695312 307.579957 
L 192.070375 304.506249 
L 192.445438 308.714619 
L 193.195564 333.949811 
L 193.570627 337.207265 
L 193.94569 333.882264 
L 194.320753 319.354029 
L 194.695816 313.424491 
L 195.070879 297.939485 
L 195.821005 215.930935 
L 196.196068 213.608271 
L 196.571131 242.811297 
L 196.946194 235.560481 
L 197.321257 244.510929 
L 197.69632 268.721287 
L 198.071383 259.790601 
L 198.821509 297.298164 
L 199.196572 303.793385 
L 199.571635 325.822753 
L 199.946698 317.528241 
L 200.321761 319.854591 
L 200.696824 320.327262 
L 201.071887 324.204627 
L 201.44695 323.208168 
L 201.822013 327.250546 
L 202.197076 328.919517 
L 202.572139 339.940492 
L 202.947202 337.66083 
L 203.322265 327.97536 
L 203.697328 323.916952 
L 204.072391 279.697718 
L 204.447454 217.788505 
L 204.822517 244.602908 
L 205.19758 227.267964 
L 205.572643 238.00314 
L 205.947706 241.645464 
L 206.322769 265.38184 
L 206.697832 280.506328 
L 207.072895 276.47352 
L 207.447958 303.865013 
L 207.823021 298.007613 
L 208.198084 303.199603 
L 208.573147 312.148385 
L 208.94821 316.930278 
L 209.323273 311.478106 
L 209.698336 312.535522 
L 210.073399 317.604872 
L 210.448462 314.082421 
L 211.198588 332.17966 
L 211.573651 337.680374 
L 212.323778 301.245669 
L 212.698841 303.52495 
L 213.073904 283.627498 
L 213.448967 225.864989 
L 213.82403 235.862267 
L 214.199093 233.557735 
L 214.574156 212.914314 
L 214.949219 203.306181 
L 215.324282 221.157835 
L 215.699345 252.104145 
L 216.074408 254.432673 
L 216.449471 267.786752 
L 217.199597 307.414081 
L 217.57466 301.603178 
L 217.949723 314.41243 
L 218.324786 315.112482 
L 218.699849 311.476202 
L 219.074912 305.893269 
L 219.449975 310.746128 
L 220.200101 335.091628 
L 220.575164 337.214314 
L 220.950227 331.308284 
L 221.32529 305.560621 
L 221.700353 314.302269 
L 222.075416 294.438773 
L 222.450479 233.868877 
L 222.825542 232.147689 
L 223.200605 240.983709 
L 223.575668 226.724345 
L 223.950731 226.929792 
L 224.325794 245.989696 
L 224.700857 249.666264 
L 225.450983 269.833725 
L 225.826046 275.981864 
L 226.201109 304.739289 
L 226.576172 313.690275 
L 226.951235 313.141857 
L 227.326298 317.784394 
L 227.701361 317.934658 
L 228.451487 329.366992 
L 228.82655 328.916712 
L 229.201613 342.928373 
L 229.576676 345.816348 
L 229.951739 343.332352 
L 230.326802 324.248355 
L 230.701865 319.775137 
L 231.076928 295.654109 
L 231.451991 246.249153 
L 231.827054 241.662124 
L 232.202117 230.305845 
L 232.57718 237.507147 
L 232.952243 249.092225 
L 233.327306 256.270708 
L 233.702369 279.166592 
L 234.077432 286.26977 
L 234.452495 297.786126 
L 234.827558 295.76715 
L 235.202621 308.197646 
L 235.577684 307.103806 
L 235.952747 312.568446 
L 236.32781 315.400141 
L 236.702873 315.548075 
L 237.077936 315.523102 
L 237.828063 325.717253 
L 238.203126 329.921693 
L 238.578189 339.516514 
L 238.953252 328.351639 
L 239.328315 328.248956 
L 239.703378 316.066307 
L 240.078441 319.72343 
L 240.453504 228.616634 
L 240.828567 232.701537 
L 241.578693 214.309891 
L 241.953756 207.584741 
L 242.328819 227.445512 
L 242.703882 261.558782 
L 243.078945 263.814424 
L 243.454008 280.416463 
L 243.829071 286.061343 
L 244.204134 298.327531 
L 244.579197 304.716718 
L 245.329323 299.343603 
L 245.704386 304.391154 
L 246.079449 306.036341 
L 246.454512 318.409493 
L 246.829575 321.967021 
L 247.204638 331.878581 
L 247.579701 336.458707 
L 247.954764 328.855293 
L 248.70489 303.429206 
L 249.455016 229.08019 
L 249.830079 214.351825 
L 250.205142 235.833701 
L 250.580205 190.465758 
L 250.955268 209.022708 
L 251.330331 238.765143 
L 251.705394 238.471808 
L 252.080457 252.688569 
L 252.45552 250.801667 
L 252.830583 276.922745 
L 253.205646 279.306968 
L 253.580709 294.375184 
L 253.955772 292.608602 
L 254.330835 311.231752 
L 254.705898 297.499527 
L 255.080961 295.064161 
L 255.456024 310.982387 
L 256.20615 332.114366 
L 256.581213 335.601748 
L 257.331339 296.709393 
L 257.706402 302.893169 
L 258.456528 227.400994 
L 258.831591 226.778314 
L 259.206654 240.132062 
L 259.581717 249.052161 
L 259.95678 198.435176 
L 260.331843 179.34271 
L 260.706906 207.044825 
L 261.081969 246.67804 
L 261.457032 254.085312 
L 261.832095 297.813203 
L 262.207158 280.036319 
L 262.582221 302.278318 
L 262.957284 307.098906 
L 263.332348 302.077406 
L 263.707411 304.783545 
L 264.082474 304.802131 
L 264.457537 315.670011 
L 264.8326 314.2003 
L 265.207663 330.648124 
L 265.582726 332.08692 
L 265.957789 321.249179 
L 266.332852 317.27724 
L 267.082978 286.33662 
L 267.458041 237.376482 
L 267.833104 203.20689 
L 268.208167 237.264611 
L 268.58323 204.516897 
L 268.958293 157.77023 
L 269.333356 216.680991 
L 269.708419 230.979725 
L 270.458545 248.378192 
L 270.833608 276.57926 
L 271.208671 328.048204 
L 271.583734 356.549736 
L 271.958797 302.747982 
L 272.33386 280.909467 
L 272.708923 307.516052 
L 273.083986 311.653714 
L 273.459049 237.720944 
L 273.834112 309.732402 
L 274.584238 321.669092 
L 274.959301 353.735928 
L 275.334364 250.504312 
L 275.709427 308.284683 
L 276.08449 252.808649 
L 276.459553 256.150853 
L 276.834616 217.01985 
L 277.209679 233.021732 
L 277.584742 230.937915 
L 277.959805 163.936745 
L 278.709931 226.35953 
L 279.084994 233.558143 
L 279.460057 256.961011 
L 280.210183 284.581098 
L 280.585246 289.039966 
L 280.960309 298.308556 
L 281.335372 302.051368 
L 281.710435 299.132362 
L 282.085498 294.590014 
L 282.460561 312.621027 
L 282.835624 312.840086 
L 283.58575 328.224885 
L 283.960813 307.936489 
L 284.335876 306.873405 
L 284.710939 302.027417 
L 285.086002 269.668383 
L 285.461065 249.43944 
L 285.836128 247.331891 
L 286.211191 211.614527 
L 286.961317 193.113459 
L 287.33638 205.22713 
L 287.711443 202.497301 
L 288.086506 218.181425 
L 288.461569 255.315617 
L 289.586759 295.538425 
L 289.961822 291.644643 
L 290.336885 300.494266 
L 290.711948 302.042557 
L 291.087011 315.414037 
L 291.462074 304.683249 
L 291.837137 322.981948 
L 292.587263 329.61425 
L 292.962326 329.357206 
L 293.337389 327.473391 
L 293.712452 315.70381 
L 294.087515 277.506957 
L 294.462578 219.684666 
L 294.837641 238.979277 
L 295.212704 224.803972 
L 295.587767 198.52066 
L 295.96283 249.559106 
L 296.337893 237.972349 
L 297.088019 256.877562 
L 297.463082 206.73856 
L 297.838145 276.888455 
L 298.213208 304.927962 
L 298.588271 298.536082 
L 298.963334 309.592739 
L 299.338397 303.800974 
L 299.71346 309.644491 
L 300.088523 311.305321 
L 300.463586 309.18085 
L 300.838649 316.505848 
L 301.213712 318.911864 
L 301.588775 324.420186 
L 301.963838 320.623288 
L 302.338901 307.992905 
L 302.713964 280.876225 
L 303.089027 310.119544 
L 303.46409 258.727312 
L 303.839153 229.72943 
L 304.214216 213.002025 
L 304.589279 221.959428 
L 304.964342 221.424373 
L 305.339405 258.103748 
L 305.714468 283.381346 
L 306.089531 234.976777 
L 306.464594 281.44887 
L 307.21472 303.635696 
L 307.589783 260.865953 
L 307.964846 305.414857 
L 308.339909 300.600331 
L 308.714972 308.81929 
L 309.090035 309.851454 
L 309.465098 316.77053 
L 309.840161 319.019935 
L 310.215224 326.578216 
L 310.590287 331.141692 
L 310.96535 325.644329 
L 311.715476 303.781754 
L 312.090539 278.027257 
L 312.465602 263.380723 
L 312.840665 223.616353 
L 313.215728 232.807513 
L 313.590791 227.507088 
L 313.965854 230.210344 
L 314.340917 218.364348 
L 314.715981 261.734277 
L 315.466107 309.268002 
L 315.84117 255.726758 
L 316.216233 298.276377 
L 316.591296 311.511758 
L 316.966359 304.279102 
L 317.341422 307.166656 
L 317.716485 306.802037 
L 318.091548 289.195658 
L 318.466611 318.603579 
L 318.841674 324.66166 
L 319.216737 321.1629 
L 319.5918 327.655159 
L 319.966863 322.772237 
L 320.716989 281.602585 
L 321.092052 291.04312 
L 321.467115 273.420176 
L 321.842178 225.419183 
L 322.217241 256.023656 
L 322.592304 171.322375 
L 322.967367 212.225189 
L 323.34243 234.721778 
L 324.092556 252.806516 
L 324.467619 269.501713 
L 324.842682 267.06464 
L 325.217745 277.0095 
L 325.592808 283.935381 
L 325.967871 280.16628 
L 326.342934 289.101687 
L 326.717997 290.886012 
L 327.09306 307.265394 
L 327.468123 306.474744 
L 328.218249 323.319055 
L 328.593312 303.403478 
L 328.968375 308.505189 
L 329.343438 301.286116 
L 329.718501 287.451827 
L 330.093564 226.535305 
L 330.468627 250.162295 
L 330.84369 180.025366 
L 331.218753 232.23213 
L 331.593816 197.780581 
L 331.968879 222.098342 
L 332.343942 228.096926 
L 332.719005 261.02391 
L 333.094068 272.970284 
L 333.469131 274.116044 
L 333.844194 274.249436 
L 334.219257 321.769969 
L 334.59432 256.053685 
L 334.969383 287.330352 
L 335.344446 287.350612 
L 335.719509 288.074917 
L 336.094572 293.304046 
L 336.469635 284.856525 
L 336.844698 307.849207 
L 337.219761 317.487664 
L 337.594824 291.73175 
L 337.969887 291.251483 
L 338.34495 304.85898 
L 339.095076 227.483532 
L 339.470139 229.426718 
L 339.845202 222.794237 
L 340.220266 194.953467 
L 340.595329 190.952794 
L 340.970392 215.022855 
L 341.345455 200.217515 
L 341.720518 219.846865 
L 342.470644 277.313405 
L 342.845707 282.267009 
L 343.22077 295.617553 
L 343.970896 312.111094 
L 344.345959 310.732775 
L 344.721022 311.622204 
L 345.096085 308.64993 
L 345.846211 332.458689 
L 346.221274 336.881943 
L 346.596337 313.663793 
L 346.9714 308.481358 
L 347.346463 317.088175 
L 347.721526 287.363276 
L 348.096589 286.168261 
L 348.471652 244.859565 
L 348.846715 244.527501 
L 349.221778 194.729711 
L 349.596841 210.718604 
L 349.971904 221.663085 
L 350.346967 203.758778 
L 351.097093 264.897098 
L 351.472156 285.175876 
L 351.847219 290.555275 
L 352.222282 308.319144 
L 352.597345 308.041175 
L 352.972408 312.354167 
L 353.347471 314.517321 
L 353.722534 318.649675 
L 354.097597 318.237383 
L 354.47266 330.530049 
L 354.847723 336.630773 
L 355.222786 339.384985 
L 355.597849 327.969456 
L 355.972912 320.423612 
L 356.347975 325.318974 
L 356.723038 314.800001 
L 357.098101 261.49227 
L 357.473164 269.364268 
L 357.848227 257.133066 
L 358.598353 245.673282 
L 358.973416 247.392772 
L 359.348479 239.230004 
L 359.723542 241.289977 
L 360.098605 324.113263 
L 360.473668 254.126142 
L 360.848731 300.062487 
L 361.223794 320.65006 
L 361.598857 301.812829 
L 361.97392 311.665972 
L 362.348983 310.782054 
L 362.724046 310.450575 
L 363.099109 328.36234 
L 363.474172 240.326746 
L 363.849235 329.377788 
L 364.224298 332.432103 
L 364.599361 332.479109 
L 364.974424 322.65379 
L 365.349487 369.187671 
L 365.72455 299.585154 
L 366.099614 259.426507 
L 366.474677 274.571042 
L 366.84974 218.889636 
L 367.599866 254.627524 
L 367.974929 260.268709 
L 368.349992 248.66358 
L 368.725055 282.89295 
L 369.100118 288.825122 
L 369.475181 296.530416 
L 369.850244 294.83628 
L 370.225307 313.69974 
L 370.60037 306.576163 
L 370.975433 313.080138 
L 371.350496 315.463681 
L 371.725559 312.955523 
L 372.475685 323.130854 
L 372.850748 327.612149 
L 373.225811 338.526745 
L 373.975937 309.173223 
L 374.351 326.697035 
L 374.726063 309.192068 
L 375.476189 265.442754 
L 375.851252 243.003059 
L 376.226315 228.068439 
L 376.601378 242.125922 
L 376.976441 240.530446 
L 377.351504 243.258608 
L 377.726567 261.850897 
L 378.10163 260.278371 
L 378.476693 276.962239 
L 378.851756 274.148291 
L 379.226819 294.842403 
L 379.601882 295.633664 
L 379.976945 304.727423 
L 380.352008 299.35538 
L 380.727071 308.065337 
L 381.102134 327.023578 
L 381.477197 305.851528 
L 381.85226 324.281116 
L 382.227323 330.388295 
L 382.602386 328.405313 
L 382.977449 311.010005 
L 383.352512 322.819127 
L 383.727575 359.225687 
L 384.102638 220.466416 
L 384.477701 262.831188 
L 384.852764 193.248394 
L 385.227827 231.877229 
L 385.977953 248.738832 
L 386.353016 253.196744 
L 386.728079 260.509934 
L 387.103142 368.531372 
L 387.478205 368.585092 
L 387.853268 238.516378 
L 388.228331 283.794609 
L 388.603394 311.30782 
L 388.978457 300.001924 
L 389.35352 305.89709 
L 389.728583 304.674541 
L 390.478709 312.98124 
L 390.853772 326.969619 
L 391.228835 330.911896 
L 391.603899 328.899731 
L 391.978962 320.857682 
L 392.354025 323.778604 
L 392.729088 305.08883 
L 393.104151 237.858269 
L 393.479214 226.446962 
L 393.854277 234.404001 
L 394.22934 226.973728 
L 394.604403 235.531562 
L 394.979466 216.423034 
L 395.354529 239.108837 
L 395.729592 246.41532 
L 396.104655 319.862283 
L 396.479718 247.566522 
L 396.854781 292.667183 
L 397.229844 294.535565 
L 397.604907 351.440414 
L 397.97997 272.963645 
L 398.355033 306.058378 
L 398.730096 290.916048 
L 399.105159 303.565183 
L 399.480222 309.240382 
L 399.855285 324.922904 
L 400.230348 320.137565 
L 400.605411 310.830219 
L 400.980474 283.671707 
L 401.355537 302.452811 
L 401.7306 291.294083 
L 402.105663 261.325752 
L 402.480726 260.878699 
L 402.855789 243.011679 
L 403.230852 203.296008 
L 403.605915 232.793472 
L 403.980978 207.908885 
L 404.356041 238.584094 
L 404.731104 251.274354 
L 405.106167 280.270384 
L 405.48123 277.767558 
L 405.856293 276.646948 
L 406.231356 293.774174 
L 406.606419 300.446742 
L 406.981482 298.590775 
L 407.356545 301.896126 
L 407.731608 301.769182 
L 408.106671 294.976639 
L 409.23186 330.28449 
L 409.981986 295.27039 
L 410.357049 308.439973 
L 410.732112 296.502624 
L 411.107175 288.797937 
L 411.482238 273.084667 
L 411.857301 275.828893 
L 412.232364 231.856118 
L 412.607427 247.939037 
L 412.98249 246.304202 
L 413.357553 238.687021 
L 413.732616 244.462102 
L 414.107679 261.100952 
L 414.482742 289.873461 
L 414.857805 302.937376 
L 415.232868 303.170107 
L 415.607931 305.680091 
L 415.982994 327.093214 
L 416.358057 291.22235 
L 416.73312 316.460281 
L 417.108183 316.573823 
L 417.483247 327.321617 
L 417.85831 330.209996 
L 418.233373 344.213905 
L 418.608436 336.800276 
L 418.983499 333.878643 
L 419.358562 326.483411 
L 419.733625 306.50402 
L 420.108688 265.459494 
L 420.483751 309.570018 
L 420.858814 228.896343 
L 421.233877 223.252804 
L 421.60894 250.608975 
L 421.984003 240.569279 
L 422.359066 265.963508 
L 422.734129 261.118249 
L 423.109192 286.301286 
L 423.484255 278.470109 
L 423.859318 276.359735 
L 424.234381 294.888995 
L 424.609444 303.489414 
L 425.734633 314.068425 
L 426.109696 319.06116 
L 426.484759 332.057731 
L 426.859822 319.839691 
L 427.234885 339.928783 
L 427.609948 334.127596 
L 427.985011 322.632987 
L 428.360074 320.052949 
L 429.1102 254.057474 
L 429.485263 233.685013 
L 429.860326 240.837161 
L 430.235389 202.282598 
L 430.610452 235.901419 
L 430.985515 226.700362 
L 431.360578 239.3975 
L 431.735641 244.65747 
L 432.86083 280.543252 
L 433.235893 285.82065 
L 433.986019 278.187206 
L 434.361082 283.961835 
L 435.111208 315.298679 
L 435.486271 320.132075 
L 436.236397 339.908545 
L 436.61146 332.571181 
L 436.986523 319.309758 
L 437.361586 325.239978 
L 437.736649 304.82613 
L 438.111712 265.184988 
L 438.486775 313.51818 
L 438.861838 170.387905 
L 439.236901 234.765086 
L 439.611964 241.720534 
L 439.987027 228.929458 
L 441.112216 260.599311 
L 441.487279 285.988059 
L 441.862342 292.562349 
L 442.237405 278.42213 
L 442.612468 294.46129 
L 442.987532 301.497013 
L 443.362595 302.352054 
L 444.112721 323.980509 
L 444.487784 324.905529 
L 445.23791 341.560222 
L 445.612973 333.65227 
L 445.988036 330.847824 
L 446.363099 333.414776 
L 446.738162 303.528398 
L 447.113225 223.917338 
L 447.488288 241.894167 
L 447.863351 249.222103 
L 448.238414 215.694606 
L 448.613477 211.300651 
L 448.98854 234.067152 
L 449.738666 250.868487 
L 450.113729 260.936011 
L 450.488792 289.629868 
L 450.863855 281.099507 
L 451.238918 296.978725 
L 451.613981 295.359247 
L 452.364107 300.679852 
L 452.73917 305.673501 
L 453.114233 320.074106 
L 453.489296 324.089456 
L 454.239422 340.670302 
L 454.614485 332.212941 
L 454.989548 314.549167 
L 455.364611 316.390919 
L 456.114737 224.037274 
L 456.4898 209.476051 
L 456.864863 235.05211 
L 457.239926 206.325884 
L 457.614989 239.162349 
L 457.990052 226.652432 
L 458.365115 234.069457 
L 459.490304 273.722409 
L 459.865367 292.079372 
L 460.24043 290.631784 
L 460.615493 297.053657 
L 460.990556 300.118687 
L 461.365619 298.631658 
L 461.740682 307.346553 
L 462.115745 297.557647 
L 462.490808 323.751321 
L 462.865871 329.895401 
L 463.240934 312.630258 
L 463.99106 259.677363 
L 464.366123 290.641718 
L 464.741186 225.514652 
L 465.116249 202.426973 
L 465.491312 245.741325 
L 465.866375 248.556626 
L 466.241438 215.627622 
L 466.616501 153.389261 
L 466.991564 218.100543 
L 467.366627 208.224959 
L 467.74169 252.693901 
L 468.116753 240.689596 
L 468.491817 263.031839 
L 468.86688 269.005173 
L 469.241943 282.958937 
L 469.617006 269.923158 
L 469.992069 280.227871 
L 470.367132 255.89224 
L 470.742195 280.597015 
L 471.117258 283.120186 
L 471.867384 305.992643 
L 472.242447 307.966295 
L 472.61751 295.907457 
L 472.992573 274.617463 
L 473.367636 293.030688 
L 473.742699 242.270996 
L 474.117762 166.550641 
L 474.492825 228.602764 
L 474.867888 205.196391 
L 475.242951 304.17085 
L 475.618014 189.506261 
L 475.993077 200.421684 
L 476.36814 227.207159 
L 476.743203 229.724302 
L 477.118266 270.712029 
L 477.493329 275.502387 
L 477.868392 284.377748 
L 478.243455 295.925201 
L 478.618518 292.131885 
L 478.993581 318.227566 
L 479.368644 310.923974 
L 480.11877 323.891289 
L 480.493833 327.156876 
L 481.243959 342.451296 
L 481.619022 333.28536 
L 481.994085 319.434171 
L 482.369148 322.174446 
L 482.744211 279.968916 
L 483.119274 214.475353 
L 483.494337 246.547996 
L 483.8694 224.240987 
L 484.244463 184.623962 
L 484.994589 232.758217 
L 485.369652 229.053613 
L 486.119778 262.494325 
L 486.494841 280.053866 
L 486.869904 282.157641 
L 487.244967 316.104035 
L 487.62003 303.744985 
L 487.995093 303.5883 
L 488.370156 304.894389 
L 488.745219 321.537563 
L 489.120282 330.186104 
L 489.495345 331.658522 
L 489.870408 334.746781 
L 490.245471 335.443199 
L 490.620534 322.696464 
L 490.995597 318.204821 
L 491.37066 282.049141 
L 491.745723 211.002981 
L 492.120786 242.587625 
L 492.495849 216.964733 
L 492.870912 235.748109 
L 493.245975 231.163593 
L 493.621038 243.308681 
L 493.996101 270.434394 
L 494.371165 322.224284 
L 494.746228 239.617196 
L 495.121291 228.917581 
L 495.496354 282.685562 
L 495.871417 293.991293 
L 496.24648 291.480678 
L 496.621543 295.301827 
L 496.996606 284.951395 
L 497.371669 311.38154 
L 497.746732 317.42583 
L 498.121795 316.750324 
L 498.871921 334.471042 
L 499.246984 331.26787 
L 500.747236 267.610758 
L 501.122299 220.64731 
L 501.497362 237.947754 
L 501.872425 212.248261 
L 502.247488 239.918346 
L 502.622551 230.690793 
L 502.997614 229.723643 
L 503.372677 200.44762 
L 503.74774 96.678095 
L 504.122803 180.361498 
L 504.497866 316.989329 
L 504.872929 309.015247 
L 505.247992 272.985169 
L 505.623055 283.719615 
L 505.998118 300.810576 
L 507.49837 330.153022 
L 507.873433 323.370735 
L 508.248496 308.812683 
L 508.623559 287.121129 
L 508.998622 243.801498 
L 509.373685 236.708378 
L 510.123811 174.17338 
L 510.498874 213.214096 
L 510.873937 181.926757 
L 511.249 221.207991 
L 511.624063 206.10244 
L 512.374189 251.445658 
L 512.749252 262.956244 
L 513.124315 359.092086 
L 513.499378 276.310206 
L 513.874441 270.739914 
L 514.249504 255.191273 
L 514.624567 278.689625 
L 514.99963 282.742018 
L 516.124819 313.524717 
L 516.499882 329.580381 
L 516.874945 308.179735 
L 517.250008 295.014006 
L 517.625071 297.681043 
L 518.000134 289.827449 
L 518.375197 66.96 
L 518.75026 211.010971 
L 519.125323 209.610527 
L 519.500386 193.971965 
L 519.87545 203.223106 
L 520.250513 199.644365 
L 520.625576 210.417318 
L 521.000639 228.147978 
L 521.750765 271.909502 
L 522.125828 287.171053 
L 522.500891 276.37162 
L 522.875954 281.780529 
L 523.251017 295.850785 
L 523.62608 298.346521 
L 524.001143 297.502689 
L 524.376206 296.983941 
L 524.751269 295.178624 
L 525.126332 304.443784 
L 525.501395 323.70442 
L 526.251521 298.20852 
L 526.626584 288.132295 
L 527.37671 213.153559 
L 527.751773 192.169333 
L 528.126836 181.181586 
L 528.501899 186.538121 
L 528.876962 133.195607 
L 529.252025 127.171404 
L 529.627088 158.97278 
L 530.002151 213.829693 
L 530.752277 261.784116 
L 531.12734 277.614909 
L 531.502403 281.124888 
L 531.877466 290.814771 
L 532.252529 294.442752 
L 532.627592 286.944229 
L 533.002655 289.303367 
L 533.377718 281.46804 
L 534.127844 292.722148 
L 534.502907 294.228997 
L 534.87797 288.913588 
L 535.253033 266.485139 
L 535.628096 255.808575 
L 536.003159 221.437748 
L 536.378222 216.247753 
L 536.753285 232.471084 
L 537.128348 196.165004 
L 537.878474 168.69328 
L 538.253537 168.471667 
L 538.6286 166.624724 
L 539.378726 222.050869 
L 539.753789 253.271771 
L 540.128852 261.700634 
L 540.503915 287.412569 
L 540.878978 295.149794 
L 541.254041 298.338588 
L 541.629104 296.847153 
L 542.004167 307.595418 
L 542.37923 306.383862 
L 542.754293 294.667979 
L 543.129356 337.113242 
L 543.504419 332.100113 
L 543.879482 316.425962 
L 544.254545 285.577227 
L 544.629608 267.423668 
L 545.004671 263.106038 
L 545.379734 192.198461 
L 545.754798 205.060087 
L 546.129861 205.099061 
L 546.504924 149.898838 
L 546.879987 213.479048 
L 547.25505 189.893179 
L 547.630113 203.20881 
L 548.005176 175.44241 
L 548.380239 235.498969 
L 548.755302 260.391403 
L 549.130365 260.829722 
L 549.505428 284.587728 
L 549.880491 284.774356 
L 550.255554 286.943415 
L 550.630617 184.453678 
L 551.00568 337.410215 
L 551.380743 321.344821 
L 551.755806 330.235233 
L 552.505932 307.97045 
L 552.880995 299.351691 
L 553.631121 205.51547 
L 554.006184 192.33552 
L 554.381247 206.875634 
L 554.75631 182.567317 
L 555.131373 172.503812 
L 555.506436 182.594435 
L 555.881499 150.363954 
L 556.256562 211.880992 
L 556.631625 250.098103 
L 557.381751 286.023949 
L 557.756814 285.548558 
L 558.131877 296.990233 
L 558.50694 296.524377 
L 559.257066 306.915147 
L 559.632129 301.609617 
L 560.007192 313.277419 
L 560.382255 313.165453 
L 560.757318 310.770358 
L 561.132381 326.956287 
L 561.507444 292.359533 
L 561.882507 293.025994 
L 562.25757 254.729067 
L 562.632633 237.863408 
L 563.007696 181.880135 
L 563.382759 202.294856 
L 563.757822 230.059115 
L 564.132885 222.520894 
L 564.507948 210.496683 
L 565.258074 225.78845 
L 565.633137 241.663156 
L 566.0082 269.992383 
L 566.758326 264.33813 
L 567.133389 282.017057 
L 567.508452 279.497804 
L 568.258578 310.805635 
L 568.633641 311.403329 
L 569.008704 318.73759 
L 569.383767 321.097647 
L 569.75883 333.180642 
L 570.133893 326.726166 
L 570.508956 316.005353 
L 570.884019 314.291104 
L 571.634146 207.274537 
L 572.009209 190.648674 
L 572.384272 182.025532 
L 572.759335 210.56469 
L 573.134398 207.945065 
L 573.509461 233.570239 
L 573.884524 237.82655 
L 574.259587 221.35216 
L 574.63465 242.618058 
L 575.009713 243.231274 
L 576.134902 289.294919 
L 576.509965 286.380855 
L 576.885028 292.569817 
L 577.260091 305.053521 
L 577.635154 310.947399 
L 578.010217 319.00261 
L 578.38528 321.487851 
L 578.760343 333.599381 
L 579.135406 313.713161 
L 579.510469 313.868652 
L 579.885532 299.906865 
L 580.260595 234.641399 
L 580.635658 203.10762 
L 581.010721 181.121698 
L 581.385784 199.031328 
L 581.760847 187.408622 
L 582.13591 181.110307 
L 582.510973 121.909946 
L 582.886036 205.798984 
L 583.261099 211.577037 
L 584.011225 275.275834 
L 584.386288 286.686811 
L 584.761351 273.451362 
L 585.136414 292.5137 
L 585.511477 296.670188 
L 585.88654 289.121007 
L 586.261603 303.16377 
L 586.636666 306.878466 
L 587.011729 305.582871 
L 587.761855 327.281981 
L 588.136918 318.917329 
L 588.511981 296.54295 
L 588.887044 305.717563 
L 589.63717 214.648587 
L 590.012233 214.835451 
L 590.387296 209.386507 
L 590.762359 208.167149 
L 591.137422 159.303442 
L 591.887548 185.970574 
L 592.262611 228.276296 
L 592.637674 240.156865 
L 593.012737 278.701563 
L 593.762863 301.482173 
L 594.137926 301.785649 
L 594.512989 306.027174 
L 594.888052 302.590651 
L 595.263115 300.313537 
L 595.638178 313.349318 
L 596.013241 306.344425 
L 596.388304 325.139647 
L 596.763368 333.76539 
L 597.138431 323.129519 
L 597.513494 304.927036 
L 597.888557 311.610592 
L 598.26362 275.13331 
L 598.638683 200.347945 
L 599.013746 228.364486 
L 599.388809 218.815784 
L 599.763872 196.397772 
L 600.138935 222.043563 
L 600.513998 216.847332 
L 600.889061 227.573422 
L 601.264124 232.516781 
L 601.639187 275.749199 
L 602.01425 294.092224 
L 602.389313 305.804722 
L 603.889565 318.470688 
L 604.264628 318.833532 
L 604.639691 325.91563 
L 605.014754 330.262389 
L 605.389817 337.648447 
L 605.76488 338.856332 
L 606.139943 333.901482 
L 606.515006 319.400427 
L 606.890069 324.250913 
L 607.265132 284.754348 
L 607.640195 177.516707 
L 608.015258 215.756281 
L 608.765384 217.584923 
L 609.140447 221.080867 
L 609.51551 209.511909 
L 609.890573 219.86724 
L 610.265636 255.928189 
L 610.640699 261.988792 
L 611.015762 283.566506 
L 611.390825 280.949776 
L 611.765888 271.412286 
L 612.140951 272.933458 
L 612.516014 270.026257 
L 612.891077 290.895056 
L 613.26614 324.849954 
L 613.641203 334.069022 
L 614.016266 323.422049 
L 614.391329 344.909933 
L 614.766392 343.600386 
L 615.141455 334.462357 
L 615.516518 320.141692 
L 615.891581 300.868989 
L 616.266644 259.755493 
L 616.641707 133.41246 
L 617.01677 147.20725 
L 617.766896 192.978829 
L 618.141959 204.671899 
L 618.517022 209.665134 
L 618.892085 178.029066 
L 619.642211 291.135782 
L 620.017274 275.383838 
L 620.392337 285.893969 
L 620.7674 289.135671 
L 621.142463 302.335005 
L 621.517526 304.35984 
L 621.892589 295.132611 
L 622.267652 318.57239 
L 622.642716 298.963871 
L 623.017779 319.781723 
L 623.767905 341.663279 
L 624.142968 335.245738 
L 624.893094 311.940094 
L 626.018283 158.607321 
L 626.393346 250.653572 
L 626.768409 211.476347 
L 627.143472 251.944108 
L 627.518535 236.62214 
L 627.893598 229.418403 
L 628.643724 255.772578 
L 629.018787 279.455141 
L 629.768913 256.25226 
L 630.143976 270.212799 
L 630.519039 291.966058 
L 630.894102 252.196114 
L 631.269165 319.659707 
L 631.644228 307.293981 
L 632.019291 318.853623 
L 632.394354 320.836645 
L 632.769417 326.945027 
L 633.14448 339.080781 
L 633.519543 369.36 
L 633.894606 236.74957 
L 634.269669 302.356135 
L 634.644732 234.673889 
L 635.019795 202.24585 
L 635.394858 186.88438 
L 636.144984 227.383292 
L 636.520047 222.678589 
L 636.89511 197.166372 
L 637.270173 234.039874 
L 637.645236 229.079542 
L 638.020299 251.666688 
L 638.395362 254.939399 
L 638.770425 288.856799 
L 639.145488 300.121251 
L 639.520551 259.604807 
L 639.895614 298.857303 
L 640.270677 301.99831 
L 641.020803 319.861037 
L 641.395866 323.655227 
L 641.770929 324.795633 
L 642.145992 335.390452 
L 642.521055 300.25645 
L 642.896118 304.604192 
L 643.271181 289.179307 
L 643.646244 206.181796 
L 644.021307 207.992432 
L 644.39637 184.922667 
L 644.771433 133.509993 
L 645.146496 227.51927 
L 645.521559 211.810583 
L 645.896622 190.486426 
L 646.271685 222.140075 
L 646.646748 223.539242 
L 647.021811 228.749126 
L 647.396874 247.409768 
L 647.771937 250.72982 
L 648.147001 271.645607 
L 648.522064 275.431591 
L 648.897127 288.731841 
L 649.27219 296.884375 
L 649.647253 285.573658 
L 650.022316 307.487357 
L 650.397379 306.099442 
L 650.772442 315.750364 
L 651.147505 318.770755 
L 651.897631 290.26808 
L 652.272694 293.408674 
L 652.647757 254.295134 
L 653.02282 190.358018 
L 653.397883 187.281228 
L 653.772946 182.446202 
L 654.148009 158.289008 
L 654.523072 197.365293 
L 654.898135 187.201555 
L 655.273198 232.746388 
L 655.648261 236.139958 
L 656.398387 274.833449 
L 657.148513 278.957696 
L 657.523576 283.459165 
L 657.898639 284.861976 
L 658.273702 298.578551 
L 658.648765 301.585484 
L 659.023828 309.732849 
L 659.773954 328.778317 
L 660.149017 333.050772 
L 660.52408 316.777344 
L 660.899143 311.347427 
L 661.274206 295.817922 
L 661.649269 285.679923 
L 662.024332 213.998339 
L 662.399395 217.829479 
L 662.774458 211.231426 
L 663.149521 210.713229 
L 663.524584 197.02502 
L 664.27471 222.231466 
L 664.649773 247.746477 
L 665.399899 278.525938 
L 665.774962 292.815944 
L 666.150025 300.469576 
L 666.525088 313.825487 
L 666.900151 309.512603 
L 667.275214 308.143118 
L 668.400403 334.175811 
L 668.775466 338.058009 
L 669.150529 343.782487 
L 669.525592 333.629282 
L 669.900655 318.728879 
L 670.275718 311.309437 
L 670.650781 273.666964 
L 671.025844 215.67556 
L 671.400907 183.560911 
L 671.77597 174.825548 
L 672.151033 228.670212 
L 672.526096 253.82771 
L 672.901159 211.334239 
L 673.276222 244.582907 
L 673.651285 244.301869 
L 674.026349 245.285709 
L 674.401412 274.394914 
L 674.776475 282.637007 
L 675.151538 268.498472 
L 675.526601 296.901934 
L 675.901664 300.107517 
L 676.276727 299.963128 
L 676.65179 288.604492 
L 677.401916 325.54784 
L 678.152042 337.867568 
L 678.527105 295.668748 
L 678.902168 279.864555 
L 679.277231 287.864576 
L 680.40242 141.790721 
L 680.777483 249.097226 
L 681.152546 240.448952 
L 681.527609 244.117975 
L 681.902672 243.065475 
L 682.277735 275.416479 
L 682.652798 240.698945 
L 683.027861 234.746583 
L 683.402924 265.236256 
L 683.777987 267.677419 
L 684.15305 266.844527 
L 684.528113 267.522937 
L 685.278239 295.85253 
L 685.653302 293.589342 
L 686.028365 299.921625 
L 686.403428 315.501434 
L 687.153554 327.932121 
L 687.528617 302.934884 
L 687.90368 238.012609 
L 688.278743 274.747643 
L 688.653806 255.313567 
L 689.028869 190.702452 
L 689.403932 215.853213 
L 689.778995 214.890668 
L 690.154058 239.990646 
L 690.529121 203.975823 
L 690.904184 244.034572 
L 691.279247 230.575318 
L 691.65431 255.90054 
L 692.029373 248.298324 
L 692.404436 265.508726 
L 692.779499 251.838735 
L 693.154562 227.540273 
L 693.529625 228.148966 
L 693.904688 227.326621 
L 694.279751 270.879734 
L 694.654814 270.475775 
L 695.029877 307.196157 
L 695.40494 312.615579 
L 695.780003 324.140437 
L 696.155066 332.226022 
L 696.905192 250.09492 
L 697.280255 243.914153 
L 697.655318 222.554901 
L 698.030381 177.47178 
L 698.405444 172.833251 
L 698.780507 157.47712 
L 699.530634 248.503866 
L 699.905697 217.39572 
L 700.28076 250.848329 
L 700.655823 228.250828 
L 701.030886 246.165964 
L 701.405949 270.452689 
L 701.781012 265.036027 
L 702.156075 284.669325 
L 702.531138 229.850776 
L 702.906201 251.002321 
L 703.281264 251.417034 
L 703.656327 265.481772 
L 704.03139 274.25099 
L 704.406453 289.938356 
L 704.781516 285.547334 
L 705.156579 282.641346 
L 705.531642 285.569502 
L 705.906705 289.500789 
L 706.281768 298.08204 
L 706.656831 320.700515 
L 707.031894 297.632287 
L 707.406957 258.616121 
L 707.78202 258.801224 
L 708.157083 261.235856 
L 708.907209 159.460652 
L 709.657335 193.236734 
L 710.032398 184.920227 
L 710.407461 200.124885 
L 710.782524 205.362054 
L 711.53265 260.215365 
L 711.907713 268.735018 
L 712.282776 290.145905 
L 712.657839 286.674454 
L 713.032902 292.995092 
L 713.407965 289.472775 
L 713.783028 287.013577 
L 714.158091 294.085241 
L 714.533154 294.806048 
L 714.908217 298.600657 
L 715.658343 318.153446 
L 716.033406 298.898451 
L 716.408469 270.418954 
L 716.783532 281.262701 
L 718.283784 134.581162 
L 718.658847 176.449253 
L 719.03391 192.66475 
L 719.408973 193.155555 
L 719.784036 202.809349 
L 720.534162 253.787528 
L 720.909225 261.518149 
L 721.284288 280.930778 
L 722.034414 298.432123 
L 722.409477 303.771016 
L 722.78454 302.280303 
L 723.159603 307.455238 
L 723.534666 304.731626 
L 723.909729 309.053595 
L 724.284792 325.412976 
L 724.659855 335.166789 
L 725.034919 321.787971 
L 725.409982 303.160989 
L 725.785045 302.256052 
L 726.160108 287.706784 
L 726.535171 211.072262 
L 726.910234 159.738331 
L 727.285297 216.94216 
L 727.66036 173.916477 
L 728.035423 205.600711 
L 728.410486 208.887814 
L 728.785549 224.534504 
L 729.160612 258.125137 
L 729.535675 265.680863 
L 729.910738 293.805209 
L 730.285801 292.922381 
L 730.660864 300.329004 
L 731.035927 304.406771 
L 731.41099 310.565514 
L 731.786053 319.396581 
L 732.161116 319.952618 
L 732.536179 317.200569 
L 732.911242 321.48852 
L 733.286305 339.173262 
L 733.661368 343.792561 
L 734.036431 322.299363 
L 734.786557 307.486119 
L 735.16162 241.305506 
L 735.536683 221.354465 
L 735.911746 226.437988 
L 736.286809 196.382546 
L 736.661872 254.257745 
L 737.036935 258.660283 
L 737.411998 239.526406 
L 737.787061 250.335015 
L 738.162124 246.961038 
L 738.537187 270.913754 
L 738.91225 275.821122 
L 739.287313 317.537954 
L 739.662376 209.024061 
L 740.037439 263.817083 
L 740.412502 235.839871 
L 740.787565 275.364333 
L 741.162628 289.564928 
L 741.537691 286.456685 
L 742.287817 325.913068 
L 742.66288 330.98845 
L 743.037943 325.410509 
L 744.163132 256.910222 
L 744.538195 207.528227 
L 744.913258 204.889325 
L 745.288321 200.531244 
L 745.663384 270.501458 
L 746.038447 252.97959 
L 746.41351 242.331613 
L 746.788573 287.249085 
L 747.163636 260.548402 
L 747.163636 260.548402 
" style="fill:none;stroke:#1f77b4;stroke-linecap:square;stroke-width:1.5;"/>
   </g>
   <g id="line2d_17">
    <path clip-path="url(#pedb39d13c8)" d="M 738.537187 384.48 
L 738.537187 51.84 
" style="fill:none;stroke:#808080;stroke-linecap:square;"/>
   </g>
   <g id="patch_33">
    <path d="M 108 384.48 
L 108 51.84 
" style="fill:none;stroke:#000000;stroke-linecap:square;stroke-linejoin:miter;stroke-width:0.8;"/>
   </g>
   <g id="patch_34">
    <path d="M 777.6 384.48 
L 777.6 51.84 
" style="fill:none;stroke:#000000;stroke-linecap:square;stroke-linejoin:miter;stroke-width:0.8;"/>
   </g>
   <g id="patch_35">
    <path d="M 108 384.48 
L 777.6 384.48 
" style="fill:none;stroke:#000000;stroke-linecap:square;stroke-linejoin:miter;stroke-width:0.8;"/>
   </g>
   <g id="patch_36">
    <path d="M 108 51.84 
L 777.6 51.84 
" style="fill:none;stroke:#000000;stroke-linecap:square;stroke-linejoin:miter;stroke-width:0.8;"/>
   </g>
   <g id="text_18">
    <!-- exchange-2_cpm_results.csv -->
    <defs>
     <path d="M 54.890625 54.6875 
L 35.109375 28.078125 
L 55.90625 0 
L 45.3125 0 
L 29.390625 21.484375 
L 13.484375 0 
L 2.875 0 
L 24.125 28.609375 
L 4.6875 54.6875 
L 15.28125 54.6875 
L 29.78125 35.203125 
L 44.28125 54.6875 
z
" id="DejaVuSans-120"/>
     <path d="M 48.78125 52.59375 
L 48.78125 44.1875 
Q 44.96875 46.296875 41.140625 47.34375 
Q 37.3125 48.390625 33.40625 48.390625 
Q 24.65625 48.390625 19.8125 42.84375 
Q 14.984375 37.3125 14.984375 27.296875 
Q 14.984375 17.28125 19.8125 11.734375 
Q 24.65625 6.203125 33.40625 6.203125 
Q 37.3125 6.203125 41.140625 7.25 
Q 44.96875 8.296875 48.78125 10.40625 
L 48.78125 2.09375 
Q 45.015625 0.34375 40.984375 -0.53125 
Q 36.96875 -1.421875 32.421875 -1.421875 
Q 20.0625 -1.421875 12.78125 6.34375 
Q 5.515625 14.109375 5.515625 27.296875 
Q 5.515625 40.671875 12.859375 48.328125 
Q 20.21875 56 33.015625 56 
Q 37.15625 56 41.109375 55.140625 
Q 45.0625 54.296875 48.78125 52.59375 
z
" id="DejaVuSans-99"/>
     <path d="M 54.890625 33.015625 
L 54.890625 0 
L 45.90625 0 
L 45.90625 32.71875 
Q 45.90625 40.484375 42.875 44.328125 
Q 39.84375 48.1875 33.796875 48.1875 
Q 26.515625 48.1875 22.3125 43.546875 
Q 18.109375 38.921875 18.109375 30.90625 
L 18.109375 0 
L 9.078125 0 
L 9.078125 75.984375 
L 18.109375 75.984375 
L 18.109375 46.1875 
Q 21.34375 51.125 25.703125 53.5625 
Q 30.078125 56 35.796875 56 
Q 45.21875 56 50.046875 50.171875 
Q 54.890625 44.34375 54.890625 33.015625 
z
" id="DejaVuSans-104"/>
     <path d="M 54.890625 33.015625 
L 54.890625 0 
L 45.90625 0 
L 45.90625 32.71875 
Q 45.90625 40.484375 42.875 44.328125 
Q 39.84375 48.1875 33.796875 48.1875 
Q 26.515625 48.1875 22.3125 43.546875 
Q 18.109375 38.921875 18.109375 30.90625 
L 18.109375 0 
L 9.078125 0 
L 9.078125 54.6875 
L 18.109375 54.6875 
L 18.109375 46.1875 
Q 21.34375 51.125 25.703125 53.5625 
Q 30.078125 56 35.796875 56 
Q 45.21875 56 50.046875 50.171875 
Q 54.890625 44.34375 54.890625 33.015625 
z
" id="DejaVuSans-110"/>
     <path d="M 45.40625 27.984375 
Q 45.40625 37.75 41.375 43.109375 
Q 37.359375 48.484375 30.078125 48.484375 
Q 22.859375 48.484375 18.828125 43.109375 
Q 14.796875 37.75 14.796875 27.984375 
Q 14.796875 18.265625 18.828125 12.890625 
Q 22.859375 7.515625 30.078125 7.515625 
Q 37.359375 7.515625 41.375 12.890625 
Q 45.40625 18.265625 45.40625 27.984375 
z
M 54.390625 6.78125 
Q 54.390625 -7.171875 48.1875 -13.984375 
Q 42 -20.796875 29.203125 -20.796875 
Q 24.46875 -20.796875 20.265625 -20.09375 
Q 16.0625 -19.390625 12.109375 -17.921875 
L 12.109375 -9.1875 
Q 16.0625 -11.328125 19.921875 -12.34375 
Q 23.78125 -13.375 27.78125 -13.375 
Q 36.625 -13.375 41.015625 -8.765625 
Q 45.40625 -4.15625 45.40625 5.171875 
L 45.40625 9.625 
Q 42.625 4.78125 38.28125 2.390625 
Q 33.9375 0 27.875 0 
Q 17.828125 0 11.671875 7.65625 
Q 5.515625 15.328125 5.515625 27.984375 
Q 5.515625 40.671875 11.671875 48.328125 
Q 17.828125 56 27.875 56 
Q 33.9375 56 38.28125 53.609375 
Q 42.625 51.21875 45.40625 46.390625 
L 45.40625 54.6875 
L 54.390625 54.6875 
z
" id="DejaVuSans-103"/>
     <path d="M 4.890625 31.390625 
L 31.203125 31.390625 
L 31.203125 23.390625 
L 4.890625 23.390625 
z
" id="DejaVuSans-45"/>
     <path d="M 50.984375 -16.609375 
L 50.984375 -23.578125 
L -0.984375 -23.578125 
L -0.984375 -16.609375 
z
" id="DejaVuSans-95"/>
     <path d="M 41.109375 46.296875 
Q 39.59375 47.171875 37.8125 47.578125 
Q 36.03125 48 33.890625 48 
Q 26.265625 48 22.1875 43.046875 
Q 18.109375 38.09375 18.109375 28.8125 
L 18.109375 0 
L 9.078125 0 
L 9.078125 54.6875 
L 18.109375 54.6875 
L 18.109375 46.1875 
Q 20.953125 51.171875 25.484375 53.578125 
Q 30.03125 56 36.53125 56 
Q 37.453125 56 38.578125 55.875 
Q 39.703125 55.765625 41.0625 55.515625 
z
" id="DejaVuSans-114"/>
     <path d="M 2.984375 54.6875 
L 12.5 54.6875 
L 29.59375 8.796875 
L 46.6875 54.6875 
L 56.203125 54.6875 
L 35.6875 0 
L 23.484375 0 
z
" id="DejaVuSans-118"/>
    </defs>
    <g transform="translate(356.43 45.84)scale(0.12 -0.12)">
     <use xlink:href="#DejaVuSans-101"/>
     <use x="61.507812" xlink:href="#DejaVuSans-120"/>
     <use x="120.671875" xlink:href="#DejaVuSans-99"/>
     <use x="175.652344" xlink:href="#DejaVuSans-104"/>
     <use x="239.03125" xlink:href="#DejaVuSans-97"/>
     <use x="300.310547" xlink:href="#DejaVuSans-110"/>
     <use x="363.689453" xlink:href="#DejaVuSans-103"/>
     <use x="427.166016" xlink:href="#DejaVuSans-101"/>
     <use x="488.689453" xlink:href="#DejaVuSans-45"/>
     <use x="524.773438" xlink:href="#DejaVuSans-50"/>
     <use x="588.396484" xlink:href="#DejaVuSans-95"/>
     <use x="638.396484" xlink:href="#DejaVuSans-99"/>
     <use x="693.376953" xlink:href="#DejaVuSans-112"/>
     <use x="756.853516" xlink:href="#DejaVuSans-109"/>
     <use x="854.265625" xlink:href="#DejaVuSans-95"/>
     <use x="904.265625" xlink:href="#DejaVuSans-114"/>
     <use x="945.347656" xlink:href="#DejaVuSans-101"/>
     <use x="1006.871094" xlink:href="#DejaVuSans-115"/>
     <use x="1058.970703" xlink:href="#DejaVuSans-117"/>
     <use x="1122.349609" xlink:href="#DejaVuSans-108"/>
     <use x="1150.132812" xlink:href="#DejaVuSans-116"/>
     <use x="1189.341797" xlink:href="#DejaVuSans-115"/>
     <use x="1241.441406" xlink:href="#DejaVuSans-46"/>
     <use x="1273.228516" xlink:href="#DejaVuSans-99"/>
     <use x="1328.208984" xlink:href="#DejaVuSans-115"/>
     <use x="1380.308594" xlink:href="#DejaVuSans-118"/>
    </g>
   </g>
   <g id="legend_1">
    <g id="patch_37">
     <path d="M 711.284375 74.518125 
L 770.6 74.518125 
Q 772.6 74.518125 772.6 72.518125 
L 772.6 58.84 
Q 772.6 56.84 770.6 56.84 
L 711.284375 56.84 
Q 709.284375 56.84 709.284375 58.84 
L 709.284375 72.518125 
Q 709.284375 74.518125 711.284375 74.518125 
z
" style="fill:#ffffff;opacity:0.8;stroke:#cccccc;stroke-linejoin:miter;"/>
    </g>
    <g id="line2d_18">
     <path d="M 713.284375 64.938438 
L 733.284375 64.938438 
" style="fill:none;stroke:#1f77b4;stroke-linecap:square;stroke-width:1.5;"/>
    </g>
    <g id="line2d_19"/>
    <g id="text_19">
     <!-- value -->
     <g transform="translate(741.284375 68.438438)scale(0.1 -0.1)">
      <use xlink:href="#DejaVuSans-118"/>
      <use x="59.179688" xlink:href="#DejaVuSans-97"/>
      <use x="120.458984" xlink:href="#DejaVuSans-108"/>
      <use x="148.242188" xlink:href="#DejaVuSans-117"/>
      <use x="211.621094" xlink:href="#DejaVuSans-101"/>
     </g>
    </g>
   </g>
  </g>
 </g>
 <defs>
  <clipPath id="pedb39d13c8">
   <rect height="332.64" width="669.6" x="108" y="51.84"/>
  </clipPath>
 </defs>
</svg>
