<?xml version="1.0" encoding="utf-8" standalone="no"?>
<!DOCTYPE svg PUBLIC "-//W3C//DTD SVG 1.1//EN"
  "http://www.w3.org/Graphics/SVG/1.1/DTD/svg11.dtd">
<!-- Created with matplotlib (https://matplotlib.org/) -->
<svg height="432pt" version="1.1" viewBox="0 0 864 432" width="864pt" xmlns="http://www.w3.org/2000/svg" xmlns:xlink="http://www.w3.org/1999/xlink">
 <defs>
  <style type="text/css">
*{stroke-linecap:butt;stroke-linejoin:round;}
  </style>
 </defs>
 <g id="figure_1">
  <g id="patch_1">
   <path d="M 0 432 
L 864 432 
L 864 0 
L 0 0 
z
" style="fill:#ffffff;"/>
  </g>
  <g id="axes_1">
   <g id="patch_2">
    <path d="M 108 384.48 
L 777.6 384.48 
L 777.6 51.84 
L 108 51.84 
z
" style="fill:#ffffff;"/>
   </g>
   <g id="patch_3">
    <path clip-path="url(#pb6d338e878)" d="M 138.436364 384.48 
L 138.436364 51.84 
L 376.354417 51.84 
L 376.354417 384.48 
z
" style="fill:#0000ff;opacity:0.05;"/>
   </g>
   <g id="patch_4">
    <path clip-path="url(#pb6d338e878)" d="M 376.354417 384.48 
L 376.354417 51.84 
L 742.876825 51.84 
L 742.876825 384.48 
z
" style="fill:#ff0000;opacity:0.08;"/>
   </g>
   <g id="patch_5">
    <path clip-path="url(#pb6d338e878)" d="M 138.436364 384.48 
L 138.436364 51.84 
L 144.866581 51.84 
L 144.866581 384.48 
z
" style="fill:#008000;opacity:0.04;"/>
   </g>
   <g id="patch_6">
    <path clip-path="url(#pb6d338e878)" d="M 151.296799 384.48 
L 151.296799 51.84 
L 157.727017 51.84 
L 157.727017 384.48 
z
" style="fill:#008000;opacity:0.04;"/>
   </g>
   <g id="patch_7">
    <path clip-path="url(#pb6d338e878)" d="M 164.157234 384.48 
L 164.157234 51.84 
L 170.587452 51.84 
L 170.587452 384.48 
z
" style="fill:#008000;opacity:0.04;"/>
   </g>
   <g id="patch_8">
    <path clip-path="url(#pb6d338e878)" d="M 177.01767 384.48 
L 177.01767 51.84 
L 183.447887 51.84 
L 183.447887 384.48 
z
" style="fill:#008000;opacity:0.04;"/>
   </g>
   <g id="patch_9">
    <path clip-path="url(#pb6d338e878)" d="M 414.935723 384.48 
L 414.935723 371.1744 
L 421.365941 371.1744 
L 421.365941 384.48 
z
" style="fill:#ff6600;"/>
   </g>
   <g id="patch_10">
    <path clip-path="url(#pb6d338e878)" d="M 189.878105 384.48 
L 189.878105 51.84 
L 196.308323 51.84 
L 196.308323 384.48 
z
" style="fill:#008000;opacity:0.04;"/>
   </g>
   <g id="patch_11">
    <path clip-path="url(#pb6d338e878)" d="M 202.73854 384.48 
L 202.73854 51.84 
L 209.168758 51.84 
L 209.168758 384.48 
z
" style="fill:#008000;opacity:0.04;"/>
   </g>
   <g id="patch_12">
    <path clip-path="url(#pb6d338e878)" d="M 215.598976 384.48 
L 215.598976 51.84 
L 222.029193 51.84 
L 222.029193 384.48 
z
" style="fill:#008000;opacity:0.04;"/>
   </g>
   <g id="patch_13">
    <path clip-path="url(#pb6d338e878)" d="M 228.459411 384.48 
L 228.459411 51.84 
L 234.889629 51.84 
L 234.889629 384.48 
z
" style="fill:#008000;opacity:0.04;"/>
   </g>
   <g id="patch_14">
    <path clip-path="url(#pb6d338e878)" d="M 241.319846 384.48 
L 241.319846 51.84 
L 247.750064 51.84 
L 247.750064 384.48 
z
" style="fill:#008000;opacity:0.04;"/>
   </g>
   <g id="patch_15">
    <path clip-path="url(#pb6d338e878)" d="M 254.180282 384.48 
L 254.180282 51.84 
L 260.610499 51.84 
L 260.610499 384.48 
z
" style="fill:#008000;opacity:0.04;"/>
   </g>
   <g id="patch_16">
    <path clip-path="url(#pb6d338e878)" d="M 267.040717 384.48 
L 267.040717 51.84 
L 273.470935 51.84 
L 273.470935 384.48 
z
" style="fill:#008000;opacity:0.04;"/>
   </g>
   <g id="patch_17">
    <path clip-path="url(#pb6d338e878)" d="M 279.901152 384.48 
L 279.901152 51.84 
L 286.33137 51.84 
L 286.33137 384.48 
z
" style="fill:#008000;opacity:0.04;"/>
   </g>
   <g id="patch_18">
    <path clip-path="url(#pb6d338e878)" d="M 279.901152 384.48 
L 279.901152 371.1744 
L 286.33137 371.1744 
L 286.33137 384.48 
z
" style="fill:#ffe500;"/>
   </g>
   <g id="patch_19">
    <path clip-path="url(#pb6d338e878)" d="M 517.819206 384.48 
L 517.819206 371.1744 
L 524.249424 371.1744 
L 524.249424 384.48 
z
" style="fill:#ff6600;"/>
   </g>
   <g id="patch_20">
    <path clip-path="url(#pb6d338e878)" d="M 286.33137 384.48 
L 286.33137 371.1744 
L 292.761588 371.1744 
L 292.761588 384.48 
z
" style="fill:#ffe500;"/>
   </g>
   <g id="patch_21">
    <path clip-path="url(#pb6d338e878)" d="M 292.761588 384.48 
L 292.761588 51.84 
L 299.191805 51.84 
L 299.191805 384.48 
z
" style="fill:#008000;opacity:0.04;"/>
   </g>
   <g id="patch_22">
    <path clip-path="url(#pb6d338e878)" d="M 305.622023 384.48 
L 305.622023 51.84 
L 312.052241 51.84 
L 312.052241 384.48 
z
" style="fill:#008000;opacity:0.04;"/>
   </g>
   <g id="patch_23">
    <path clip-path="url(#pb6d338e878)" d="M 305.622023 384.48 
L 305.622023 371.1744 
L 312.052241 371.1744 
L 312.052241 384.48 
z
" style="fill:#ffe500;"/>
   </g>
   <g id="patch_24">
    <path clip-path="url(#pb6d338e878)" d="M 318.482458 384.48 
L 318.482458 51.84 
L 324.912676 51.84 
L 324.912676 384.48 
z
" style="fill:#008000;opacity:0.04;"/>
   </g>
   <g id="patch_25">
    <path clip-path="url(#pb6d338e878)" d="M 331.342894 384.48 
L 331.342894 51.84 
L 337.773111 51.84 
L 337.773111 384.48 
z
" style="fill:#008000;opacity:0.04;"/>
   </g>
   <g id="patch_26">
    <path clip-path="url(#pb6d338e878)" d="M 344.203329 384.48 
L 344.203329 51.84 
L 350.633547 51.84 
L 350.633547 384.48 
z
" style="fill:#008000;opacity:0.04;"/>
   </g>
   <g id="patch_27">
    <path clip-path="url(#pb6d338e878)" d="M 357.063764 384.48 
L 357.063764 51.84 
L 363.493982 51.84 
L 363.493982 384.48 
z
" style="fill:#008000;opacity:0.04;"/>
   </g>
   <g id="patch_28">
    <path clip-path="url(#pb6d338e878)" d="M 369.9242 384.48 
L 369.9242 51.84 
L 376.354417 51.84 
L 376.354417 384.48 
z
" style="fill:#008000;opacity:0.04;"/>
   </g>
   <g id="patch_29">
    <path clip-path="url(#pb6d338e878)" d="M 382.784635 384.48 
L 382.784635 51.84 
L 389.214853 51.84 
L 389.214853 384.48 
z
" style="fill:#008000;opacity:0.04;"/>
   </g>
   <g id="patch_30">
    <path clip-path="url(#pb6d338e878)" d="M 395.64507 384.48 
L 395.64507 51.84 
L 402.075288 51.84 
L 402.075288 384.48 
z
" style="fill:#008000;opacity:0.04;"/>
   </g>
   <g id="patch_31">
    <path clip-path="url(#pb6d338e878)" d="M 408.505506 384.48 
L 408.505506 51.84 
L 414.935723 51.84 
L 414.935723 384.48 
z
" style="fill:#008000;opacity:0.04;"/>
   </g>
   <g id="patch_32">
    <path clip-path="url(#pb6d338e878)" d="M 414.935723 371.1744 
L 414.935723 51.84 
L 421.365941 51.84 
L 421.365941 371.1744 
z
" style="fill:#008000;opacity:0.5;"/>
   </g>
   <g id="patch_33">
    <path clip-path="url(#pb6d338e878)" d="M 421.365941 384.48 
L 421.365941 51.84 
L 427.796159 51.84 
L 427.796159 384.48 
z
" style="fill:#008000;opacity:0.04;"/>
   </g>
   <g id="patch_34">
    <path clip-path="url(#pb6d338e878)" d="M 434.226376 384.48 
L 434.226376 51.84 
L 440.656594 51.84 
L 440.656594 384.48 
z
" style="fill:#008000;opacity:0.04;"/>
   </g>
   <g id="patch_35">
    <path clip-path="url(#pb6d338e878)" d="M 447.086812 384.48 
L 447.086812 51.84 
L 453.517029 51.84 
L 453.517029 384.48 
z
" style="fill:#008000;opacity:0.04;"/>
   </g>
   <g id="patch_36">
    <path clip-path="url(#pb6d338e878)" d="M 459.947247 384.48 
L 459.947247 51.84 
L 466.377465 51.84 
L 466.377465 384.48 
z
" style="fill:#008000;opacity:0.04;"/>
   </g>
   <g id="patch_37">
    <path clip-path="url(#pb6d338e878)" d="M 472.807682 384.48 
L 472.807682 51.84 
L 479.2379 51.84 
L 479.2379 384.48 
z
" style="fill:#008000;opacity:0.04;"/>
   </g>
   <g id="patch_38">
    <path clip-path="url(#pb6d338e878)" d="M 485.668118 384.48 
L 485.668118 51.84 
L 492.098335 51.84 
L 492.098335 384.48 
z
" style="fill:#008000;opacity:0.04;"/>
   </g>
   <g id="patch_39">
    <path clip-path="url(#pb6d338e878)" d="M 498.528553 384.48 
L 498.528553 51.84 
L 504.958771 51.84 
L 504.958771 384.48 
z
" style="fill:#008000;opacity:0.04;"/>
   </g>
   <g id="patch_40">
    <path clip-path="url(#pb6d338e878)" d="M 511.388988 384.48 
L 511.388988 51.84 
L 517.819206 51.84 
L 517.819206 384.48 
z
" style="fill:#008000;opacity:0.04;"/>
   </g>
   <g id="patch_41">
    <path clip-path="url(#pb6d338e878)" d="M 517.819206 371.1744 
L 517.819206 51.84 
L 524.249424 51.84 
L 524.249424 371.1744 
z
" style="fill:#008000;opacity:0.5;"/>
   </g>
   <g id="patch_42">
    <path clip-path="url(#pb6d338e878)" d="M 524.249424 384.48 
L 524.249424 51.84 
L 530.679641 51.84 
L 530.679641 384.48 
z
" style="fill:#008000;opacity:0.04;"/>
   </g>
   <g id="patch_43">
    <path clip-path="url(#pb6d338e878)" d="M 537.109859 384.48 
L 537.109859 51.84 
L 543.540077 51.84 
L 543.540077 384.48 
z
" style="fill:#008000;opacity:0.04;"/>
   </g>
   <g id="patch_44">
    <path clip-path="url(#pb6d338e878)" d="M 549.970294 384.48 
L 549.970294 51.84 
L 556.400512 51.84 
L 556.400512 384.48 
z
" style="fill:#008000;opacity:0.04;"/>
   </g>
   <g id="patch_45">
    <path clip-path="url(#pb6d338e878)" d="M 562.83073 384.48 
L 562.83073 51.84 
L 569.260948 51.84 
L 569.260948 384.48 
z
" style="fill:#008000;opacity:0.04;"/>
   </g>
   <g id="patch_46">
    <path clip-path="url(#pb6d338e878)" d="M 575.691165 384.48 
L 575.691165 51.84 
L 582.121383 51.84 
L 582.121383 384.48 
z
" style="fill:#008000;opacity:0.04;"/>
   </g>
   <g id="patch_47">
    <path clip-path="url(#pb6d338e878)" d="M 588.551601 384.48 
L 588.551601 51.84 
L 594.981818 51.84 
L 594.981818 384.48 
z
" style="fill:#008000;opacity:0.04;"/>
   </g>
   <g id="patch_48">
    <path clip-path="url(#pb6d338e878)" d="M 601.412036 384.48 
L 601.412036 51.84 
L 607.842254 51.84 
L 607.842254 384.48 
z
" style="fill:#008000;opacity:0.04;"/>
   </g>
   <g id="patch_49">
    <path clip-path="url(#pb6d338e878)" d="M 614.272471 384.48 
L 614.272471 51.84 
L 620.702689 51.84 
L 620.702689 384.48 
z
" style="fill:#008000;opacity:0.04;"/>
   </g>
   <g id="patch_50">
    <path clip-path="url(#pb6d338e878)" d="M 627.132907 384.48 
L 627.132907 51.84 
L 633.563124 51.84 
L 633.563124 384.48 
z
" style="fill:#008000;opacity:0.04;"/>
   </g>
   <g id="patch_51">
    <path clip-path="url(#pb6d338e878)" d="M 639.993342 384.48 
L 639.993342 51.84 
L 646.42356 51.84 
L 646.42356 384.48 
z
" style="fill:#008000;opacity:0.04;"/>
   </g>
   <g id="patch_52">
    <path clip-path="url(#pb6d338e878)" d="M 652.853777 384.48 
L 652.853777 51.84 
L 659.283995 51.84 
L 659.283995 384.48 
z
" style="fill:#008000;opacity:0.04;"/>
   </g>
   <g id="patch_53">
    <path clip-path="url(#pb6d338e878)" d="M 665.714213 384.48 
L 665.714213 51.84 
L 672.14443 51.84 
L 672.14443 384.48 
z
" style="fill:#008000;opacity:0.04;"/>
   </g>
   <g id="patch_54">
    <path clip-path="url(#pb6d338e878)" d="M 678.574648 384.48 
L 678.574648 51.84 
L 685.004866 51.84 
L 685.004866 384.48 
z
" style="fill:#008000;opacity:0.04;"/>
   </g>
   <g id="patch_55">
    <path clip-path="url(#pb6d338e878)" d="M 691.435083 384.48 
L 691.435083 51.84 
L 697.865301 51.84 
L 697.865301 384.48 
z
" style="fill:#008000;opacity:0.04;"/>
   </g>
   <g id="patch_56">
    <path clip-path="url(#pb6d338e878)" d="M 704.295519 384.48 
L 704.295519 51.84 
L 710.725736 51.84 
L 710.725736 384.48 
z
" style="fill:#008000;opacity:0.04;"/>
   </g>
   <g id="patch_57">
    <path clip-path="url(#pb6d338e878)" d="M 717.155954 384.48 
L 717.155954 51.84 
L 723.586172 51.84 
L 723.586172 384.48 
z
" style="fill:#008000;opacity:0.04;"/>
   </g>
   <g id="patch_58">
    <path clip-path="url(#pb6d338e878)" d="M 730.016389 384.48 
L 730.016389 51.84 
L 736.446607 51.84 
L 736.446607 384.48 
z
" style="fill:#008000;opacity:0.04;"/>
   </g>
   <g id="matplotlib.axis_1">
    <g id="xtick_1">
     <g id="line2d_1">
      <defs>
       <path d="M 0 0 
L 0 3.5 
" id="m057304f558" style="stroke:#000000;stroke-width:0.8;"/>
      </defs>
      <g>
       <use style="stroke:#000000;stroke-width:0.8;" x="138.436364" xlink:href="#m057304f558" y="384.48"/>
      </g>
     </g>
     <g id="text_1">
      <!-- 0 -->
      <defs>
       <path d="M 31.78125 66.40625 
Q 24.171875 66.40625 20.328125 58.90625 
Q 16.5 51.421875 16.5 36.375 
Q 16.5 21.390625 20.328125 13.890625 
Q 24.171875 6.390625 31.78125 6.390625 
Q 39.453125 6.390625 43.28125 13.890625 
Q 47.125 21.390625 47.125 36.375 
Q 47.125 51.421875 43.28125 58.90625 
Q 39.453125 66.40625 31.78125 66.40625 
z
M 31.78125 74.21875 
Q 44.046875 74.21875 50.515625 64.515625 
Q 56.984375 54.828125 56.984375 36.375 
Q 56.984375 17.96875 50.515625 8.265625 
Q 44.046875 -1.421875 31.78125 -1.421875 
Q 19.53125 -1.421875 13.0625 8.265625 
Q 6.59375 17.96875 6.59375 36.375 
Q 6.59375 54.828125 13.0625 64.515625 
Q 19.53125 74.21875 31.78125 74.21875 
z
" id="DejaVuSans-48"/>
      </defs>
      <g transform="translate(135.255114 399.078438)scale(0.1 -0.1)">
       <use xlink:href="#DejaVuSans-48"/>
      </g>
     </g>
    </g>
    <g id="xtick_2">
     <g id="line2d_2">
      <g>
       <use style="stroke:#000000;stroke-width:0.8;" x="224.172599" xlink:href="#m057304f558" y="384.48"/>
      </g>
     </g>
     <g id="text_2">
      <!-- 200 -->
      <defs>
       <path d="M 19.1875 8.296875 
L 53.609375 8.296875 
L 53.609375 0 
L 7.328125 0 
L 7.328125 8.296875 
Q 12.9375 14.109375 22.625 23.890625 
Q 32.328125 33.6875 34.8125 36.53125 
Q 39.546875 41.84375 41.421875 45.53125 
Q 43.3125 49.21875 43.3125 52.78125 
Q 43.3125 58.59375 39.234375 62.25 
Q 35.15625 65.921875 28.609375 65.921875 
Q 23.96875 65.921875 18.8125 64.3125 
Q 13.671875 62.703125 7.8125 59.421875 
L 7.8125 69.390625 
Q 13.765625 71.78125 18.9375 73 
Q 24.125 74.21875 28.421875 74.21875 
Q 39.75 74.21875 46.484375 68.546875 
Q 53.21875 62.890625 53.21875 53.421875 
Q 53.21875 48.921875 51.53125 44.890625 
Q 49.859375 40.875 45.40625 35.40625 
Q 44.1875 33.984375 37.640625 27.21875 
Q 31.109375 20.453125 19.1875 8.296875 
z
" id="DejaVuSans-50"/>
      </defs>
      <g transform="translate(214.628849 399.078438)scale(0.1 -0.1)">
       <use xlink:href="#DejaVuSans-50"/>
       <use x="63.623047" xlink:href="#DejaVuSans-48"/>
       <use x="127.246094" xlink:href="#DejaVuSans-48"/>
      </g>
     </g>
    </g>
    <g id="xtick_3">
     <g id="line2d_3">
      <g>
       <use style="stroke:#000000;stroke-width:0.8;" x="309.908835" xlink:href="#m057304f558" y="384.48"/>
      </g>
     </g>
     <g id="text_3">
      <!-- 400 -->
      <defs>
       <path d="M 37.796875 64.3125 
L 12.890625 25.390625 
L 37.796875 25.390625 
z
M 35.203125 72.90625 
L 47.609375 72.90625 
L 47.609375 25.390625 
L 58.015625 25.390625 
L 58.015625 17.1875 
L 47.609375 17.1875 
L 47.609375 0 
L 37.796875 0 
L 37.796875 17.1875 
L 4.890625 17.1875 
L 4.890625 26.703125 
z
" id="DejaVuSans-52"/>
      </defs>
      <g transform="translate(300.365085 399.078438)scale(0.1 -0.1)">
       <use xlink:href="#DejaVuSans-52"/>
       <use x="63.623047" xlink:href="#DejaVuSans-48"/>
       <use x="127.246094" xlink:href="#DejaVuSans-48"/>
      </g>
     </g>
    </g>
    <g id="xtick_4">
     <g id="line2d_4">
      <g>
       <use style="stroke:#000000;stroke-width:0.8;" x="395.64507" xlink:href="#m057304f558" y="384.48"/>
      </g>
     </g>
     <g id="text_4">
      <!-- 600 -->
      <defs>
       <path d="M 33.015625 40.375 
Q 26.375 40.375 22.484375 35.828125 
Q 18.609375 31.296875 18.609375 23.390625 
Q 18.609375 15.53125 22.484375 10.953125 
Q 26.375 6.390625 33.015625 6.390625 
Q 39.65625 6.390625 43.53125 10.953125 
Q 47.40625 15.53125 47.40625 23.390625 
Q 47.40625 31.296875 43.53125 35.828125 
Q 39.65625 40.375 33.015625 40.375 
z
M 52.59375 71.296875 
L 52.59375 62.3125 
Q 48.875 64.0625 45.09375 64.984375 
Q 41.3125 65.921875 37.59375 65.921875 
Q 27.828125 65.921875 22.671875 59.328125 
Q 17.53125 52.734375 16.796875 39.40625 
Q 19.671875 43.65625 24.015625 45.921875 
Q 28.375 48.1875 33.59375 48.1875 
Q 44.578125 48.1875 50.953125 41.515625 
Q 57.328125 34.859375 57.328125 23.390625 
Q 57.328125 12.15625 50.6875 5.359375 
Q 44.046875 -1.421875 33.015625 -1.421875 
Q 20.359375 -1.421875 13.671875 8.265625 
Q 6.984375 17.96875 6.984375 36.375 
Q 6.984375 53.65625 15.1875 63.9375 
Q 23.390625 74.21875 37.203125 74.21875 
Q 40.921875 74.21875 44.703125 73.484375 
Q 48.484375 72.75 52.59375 71.296875 
z
" id="DejaVuSans-54"/>
      </defs>
      <g transform="translate(386.10132 399.078438)scale(0.1 -0.1)">
       <use xlink:href="#DejaVuSans-54"/>
       <use x="63.623047" xlink:href="#DejaVuSans-48"/>
       <use x="127.246094" xlink:href="#DejaVuSans-48"/>
      </g>
     </g>
    </g>
    <g id="xtick_5">
     <g id="line2d_5">
      <g>
       <use style="stroke:#000000;stroke-width:0.8;" x="481.381306" xlink:href="#m057304f558" y="384.48"/>
      </g>
     </g>
     <g id="text_5">
      <!-- 800 -->
      <defs>
       <path d="M 31.78125 34.625 
Q 24.75 34.625 20.71875 30.859375 
Q 16.703125 27.09375 16.703125 20.515625 
Q 16.703125 13.921875 20.71875 10.15625 
Q 24.75 6.390625 31.78125 6.390625 
Q 38.8125 6.390625 42.859375 10.171875 
Q 46.921875 13.96875 46.921875 20.515625 
Q 46.921875 27.09375 42.890625 30.859375 
Q 38.875 34.625 31.78125 34.625 
z
M 21.921875 38.8125 
Q 15.578125 40.375 12.03125 44.71875 
Q 8.5 49.078125 8.5 55.328125 
Q 8.5 64.0625 14.71875 69.140625 
Q 20.953125 74.21875 31.78125 74.21875 
Q 42.671875 74.21875 48.875 69.140625 
Q 55.078125 64.0625 55.078125 55.328125 
Q 55.078125 49.078125 51.53125 44.71875 
Q 48 40.375 41.703125 38.8125 
Q 48.828125 37.15625 52.796875 32.3125 
Q 56.78125 27.484375 56.78125 20.515625 
Q 56.78125 9.90625 50.3125 4.234375 
Q 43.84375 -1.421875 31.78125 -1.421875 
Q 19.734375 -1.421875 13.25 4.234375 
Q 6.78125 9.90625 6.78125 20.515625 
Q 6.78125 27.484375 10.78125 32.3125 
Q 14.796875 37.15625 21.921875 38.8125 
z
M 18.3125 54.390625 
Q 18.3125 48.734375 21.84375 45.5625 
Q 25.390625 42.390625 31.78125 42.390625 
Q 38.140625 42.390625 41.71875 45.5625 
Q 45.3125 48.734375 45.3125 54.390625 
Q 45.3125 60.0625 41.71875 63.234375 
Q 38.140625 66.40625 31.78125 66.40625 
Q 25.390625 66.40625 21.84375 63.234375 
Q 18.3125 60.0625 18.3125 54.390625 
z
" id="DejaVuSans-56"/>
      </defs>
      <g transform="translate(471.837556 399.078438)scale(0.1 -0.1)">
       <use xlink:href="#DejaVuSans-56"/>
       <use x="63.623047" xlink:href="#DejaVuSans-48"/>
       <use x="127.246094" xlink:href="#DejaVuSans-48"/>
      </g>
     </g>
    </g>
    <g id="xtick_6">
     <g id="line2d_6">
      <g>
       <use style="stroke:#000000;stroke-width:0.8;" x="567.117542" xlink:href="#m057304f558" y="384.48"/>
      </g>
     </g>
     <g id="text_6">
      <!-- 1000 -->
      <defs>
       <path d="M 12.40625 8.296875 
L 28.515625 8.296875 
L 28.515625 63.921875 
L 10.984375 60.40625 
L 10.984375 69.390625 
L 28.421875 72.90625 
L 38.28125 72.90625 
L 38.28125 8.296875 
L 54.390625 8.296875 
L 54.390625 0 
L 12.40625 0 
z
" id="DejaVuSans-49"/>
      </defs>
      <g transform="translate(554.392542 399.078438)scale(0.1 -0.1)">
       <use xlink:href="#DejaVuSans-49"/>
       <use x="63.623047" xlink:href="#DejaVuSans-48"/>
       <use x="127.246094" xlink:href="#DejaVuSans-48"/>
       <use x="190.869141" xlink:href="#DejaVuSans-48"/>
      </g>
     </g>
    </g>
    <g id="xtick_7">
     <g id="line2d_7">
      <g>
       <use style="stroke:#000000;stroke-width:0.8;" x="652.853777" xlink:href="#m057304f558" y="384.48"/>
      </g>
     </g>
     <g id="text_7">
      <!-- 1200 -->
      <g transform="translate(640.128777 399.078438)scale(0.1 -0.1)">
       <use xlink:href="#DejaVuSans-49"/>
       <use x="63.623047" xlink:href="#DejaVuSans-50"/>
       <use x="127.246094" xlink:href="#DejaVuSans-48"/>
       <use x="190.869141" xlink:href="#DejaVuSans-48"/>
      </g>
     </g>
    </g>
    <g id="xtick_8">
     <g id="line2d_8">
      <g>
       <use style="stroke:#000000;stroke-width:0.8;" x="738.590013" xlink:href="#m057304f558" y="384.48"/>
      </g>
     </g>
     <g id="text_8">
      <!-- 1400 -->
      <g transform="translate(725.865013 399.078438)scale(0.1 -0.1)">
       <use xlink:href="#DejaVuSans-49"/>
       <use x="63.623047" xlink:href="#DejaVuSans-52"/>
       <use x="127.246094" xlink:href="#DejaVuSans-48"/>
       <use x="190.869141" xlink:href="#DejaVuSans-48"/>
      </g>
     </g>
    </g>
    <g id="text_9">
     <!-- Timestamp -->
     <defs>
      <path d="M -0.296875 72.90625 
L 61.375 72.90625 
L 61.375 64.59375 
L 35.5 64.59375 
L 35.5 0 
L 25.59375 0 
L 25.59375 64.59375 
L -0.296875 64.59375 
z
" id="DejaVuSans-84"/>
      <path d="M 9.421875 54.6875 
L 18.40625 54.6875 
L 18.40625 0 
L 9.421875 0 
z
M 9.421875 75.984375 
L 18.40625 75.984375 
L 18.40625 64.59375 
L 9.421875 64.59375 
z
" id="DejaVuSans-105"/>
      <path d="M 52 44.1875 
Q 55.375 50.25 60.0625 53.125 
Q 64.75 56 71.09375 56 
Q 79.640625 56 84.28125 50.015625 
Q 88.921875 44.046875 88.921875 33.015625 
L 88.921875 0 
L 79.890625 0 
L 79.890625 32.71875 
Q 79.890625 40.578125 77.09375 44.375 
Q 74.3125 48.1875 68.609375 48.1875 
Q 61.625 48.1875 57.5625 43.546875 
Q 53.515625 38.921875 53.515625 30.90625 
L 53.515625 0 
L 44.484375 0 
L 44.484375 32.71875 
Q 44.484375 40.625 41.703125 44.40625 
Q 38.921875 48.1875 33.109375 48.1875 
Q 26.21875 48.1875 22.15625 43.53125 
Q 18.109375 38.875 18.109375 30.90625 
L 18.109375 0 
L 9.078125 0 
L 9.078125 54.6875 
L 18.109375 54.6875 
L 18.109375 46.1875 
Q 21.1875 51.21875 25.484375 53.609375 
Q 29.78125 56 35.6875 56 
Q 41.65625 56 45.828125 52.96875 
Q 50 49.953125 52 44.1875 
z
" id="DejaVuSans-109"/>
      <path d="M 56.203125 29.59375 
L 56.203125 25.203125 
L 14.890625 25.203125 
Q 15.484375 15.921875 20.484375 11.0625 
Q 25.484375 6.203125 34.421875 6.203125 
Q 39.59375 6.203125 44.453125 7.46875 
Q 49.3125 8.734375 54.109375 11.28125 
L 54.109375 2.78125 
Q 49.265625 0.734375 44.1875 -0.34375 
Q 39.109375 -1.421875 33.890625 -1.421875 
Q 20.796875 -1.421875 13.15625 6.1875 
Q 5.515625 13.8125 5.515625 26.8125 
Q 5.515625 40.234375 12.765625 48.109375 
Q 20.015625 56 32.328125 56 
Q 43.359375 56 49.78125 48.890625 
Q 56.203125 41.796875 56.203125 29.59375 
z
M 47.21875 32.234375 
Q 47.125 39.59375 43.09375 43.984375 
Q 39.0625 48.390625 32.421875 48.390625 
Q 24.90625 48.390625 20.390625 44.140625 
Q 15.875 39.890625 15.1875 32.171875 
z
" id="DejaVuSans-101"/>
      <path d="M 44.28125 53.078125 
L 44.28125 44.578125 
Q 40.484375 46.53125 36.375 47.5 
Q 32.28125 48.484375 27.875 48.484375 
Q 21.1875 48.484375 17.84375 46.4375 
Q 14.5 44.390625 14.5 40.28125 
Q 14.5 37.15625 16.890625 35.375 
Q 19.28125 33.59375 26.515625 31.984375 
L 29.59375 31.296875 
Q 39.15625 29.25 43.1875 25.515625 
Q 47.21875 21.78125 47.21875 15.09375 
Q 47.21875 7.46875 41.1875 3.015625 
Q 35.15625 -1.421875 24.609375 -1.421875 
Q 20.21875 -1.421875 15.453125 -0.5625 
Q 10.6875 0.296875 5.421875 2 
L 5.421875 11.28125 
Q 10.40625 8.6875 15.234375 7.390625 
Q 20.0625 6.109375 24.8125 6.109375 
Q 31.15625 6.109375 34.5625 8.28125 
Q 37.984375 10.453125 37.984375 14.40625 
Q 37.984375 18.0625 35.515625 20.015625 
Q 33.0625 21.96875 24.703125 23.78125 
L 21.578125 24.515625 
Q 13.234375 26.265625 9.515625 29.90625 
Q 5.8125 33.546875 5.8125 39.890625 
Q 5.8125 47.609375 11.28125 51.796875 
Q 16.75 56 26.8125 56 
Q 31.78125 56 36.171875 55.265625 
Q 40.578125 54.546875 44.28125 53.078125 
z
" id="DejaVuSans-115"/>
      <path d="M 18.3125 70.21875 
L 18.3125 54.6875 
L 36.8125 54.6875 
L 36.8125 47.703125 
L 18.3125 47.703125 
L 18.3125 18.015625 
Q 18.3125 11.328125 20.140625 9.421875 
Q 21.96875 7.515625 27.59375 7.515625 
L 36.8125 7.515625 
L 36.8125 0 
L 27.59375 0 
Q 17.1875 0 13.234375 3.875 
Q 9.28125 7.765625 9.28125 18.015625 
L 9.28125 47.703125 
L 2.6875 47.703125 
L 2.6875 54.6875 
L 9.28125 54.6875 
L 9.28125 70.21875 
z
" id="DejaVuSans-116"/>
      <path d="M 34.28125 27.484375 
Q 23.390625 27.484375 19.1875 25 
Q 14.984375 22.515625 14.984375 16.5 
Q 14.984375 11.71875 18.140625 8.90625 
Q 21.296875 6.109375 26.703125 6.109375 
Q 34.1875 6.109375 38.703125 11.40625 
Q 43.21875 16.703125 43.21875 25.484375 
L 43.21875 27.484375 
z
M 52.203125 31.203125 
L 52.203125 0 
L 43.21875 0 
L 43.21875 8.296875 
Q 40.140625 3.328125 35.546875 0.953125 
Q 30.953125 -1.421875 24.3125 -1.421875 
Q 15.921875 -1.421875 10.953125 3.296875 
Q 6 8.015625 6 15.921875 
Q 6 25.140625 12.171875 29.828125 
Q 18.359375 34.515625 30.609375 34.515625 
L 43.21875 34.515625 
L 43.21875 35.40625 
Q 43.21875 41.609375 39.140625 45 
Q 35.0625 48.390625 27.6875 48.390625 
Q 23 48.390625 18.546875 47.265625 
Q 14.109375 46.140625 10.015625 43.890625 
L 10.015625 52.203125 
Q 14.9375 54.109375 19.578125 55.046875 
Q 24.21875 56 28.609375 56 
Q 40.484375 56 46.34375 49.84375 
Q 52.203125 43.703125 52.203125 31.203125 
z
" id="DejaVuSans-97"/>
      <path d="M 18.109375 8.203125 
L 18.109375 -20.796875 
L 9.078125 -20.796875 
L 9.078125 54.6875 
L 18.109375 54.6875 
L 18.109375 46.390625 
Q 20.953125 51.265625 25.265625 53.625 
Q 29.59375 56 35.59375 56 
Q 45.5625 56 51.78125 48.09375 
Q 58.015625 40.1875 58.015625 27.296875 
Q 58.015625 14.40625 51.78125 6.484375 
Q 45.5625 -1.421875 35.59375 -1.421875 
Q 29.59375 -1.421875 25.265625 0.953125 
Q 20.953125 3.328125 18.109375 8.203125 
z
M 48.6875 27.296875 
Q 48.6875 37.203125 44.609375 42.84375 
Q 40.53125 48.484375 33.40625 48.484375 
Q 26.265625 48.484375 22.1875 42.84375 
Q 18.109375 37.203125 18.109375 27.296875 
Q 18.109375 17.390625 22.1875 11.75 
Q 26.265625 6.109375 33.40625 6.109375 
Q 40.53125 6.109375 44.609375 11.75 
Q 48.6875 17.390625 48.6875 27.296875 
z
" id="DejaVuSans-112"/>
     </defs>
     <g transform="translate(414.739062 412.756563)scale(0.1 -0.1)">
      <use xlink:href="#DejaVuSans-84"/>
      <use x="61.037109" xlink:href="#DejaVuSans-105"/>
      <use x="88.820312" xlink:href="#DejaVuSans-109"/>
      <use x="186.232422" xlink:href="#DejaVuSans-101"/>
      <use x="247.755859" xlink:href="#DejaVuSans-115"/>
      <use x="299.855469" xlink:href="#DejaVuSans-116"/>
      <use x="339.064453" xlink:href="#DejaVuSans-97"/>
      <use x="400.34375" xlink:href="#DejaVuSans-109"/>
      <use x="497.755859" xlink:href="#DejaVuSans-112"/>
     </g>
    </g>
   </g>
   <g id="matplotlib.axis_2">
    <g id="ytick_1">
     <g id="line2d_9">
      <defs>
       <path d="M 0 0 
L -3.5 0 
" id="m2f4e441356" style="stroke:#000000;stroke-width:0.8;"/>
      </defs>
      <g>
       <use style="stroke:#000000;stroke-width:0.8;" x="108" xlink:href="#m2f4e441356" y="365.647248"/>
      </g>
     </g>
     <g id="text_10">
      <!-- −1500 -->
      <defs>
       <path d="M 10.59375 35.5 
L 73.1875 35.5 
L 73.1875 27.203125 
L 10.59375 27.203125 
z
" id="DejaVuSans-8722"/>
       <path d="M 10.796875 72.90625 
L 49.515625 72.90625 
L 49.515625 64.59375 
L 19.828125 64.59375 
L 19.828125 46.734375 
Q 21.96875 47.46875 24.109375 47.828125 
Q 26.265625 48.1875 28.421875 48.1875 
Q 40.625 48.1875 47.75 41.5 
Q 54.890625 34.8125 54.890625 23.390625 
Q 54.890625 11.625 47.5625 5.09375 
Q 40.234375 -1.421875 26.90625 -1.421875 
Q 22.3125 -1.421875 17.546875 -0.640625 
Q 12.796875 0.140625 7.71875 1.703125 
L 7.71875 11.625 
Q 12.109375 9.234375 16.796875 8.0625 
Q 21.484375 6.890625 26.703125 6.890625 
Q 35.15625 6.890625 40.078125 11.328125 
Q 45.015625 15.765625 45.015625 23.390625 
Q 45.015625 31 40.078125 35.4375 
Q 35.15625 39.890625 26.703125 39.890625 
Q 22.75 39.890625 18.8125 39.015625 
Q 14.890625 38.140625 10.796875 36.28125 
z
" id="DejaVuSans-53"/>
      </defs>
      <g transform="translate(67.170312 369.446467)scale(0.1 -0.1)">
       <use xlink:href="#DejaVuSans-8722"/>
       <use x="83.789062" xlink:href="#DejaVuSans-49"/>
       <use x="147.412109" xlink:href="#DejaVuSans-53"/>
       <use x="211.035156" xlink:href="#DejaVuSans-48"/>
       <use x="274.658203" xlink:href="#DejaVuSans-48"/>
      </g>
     </g>
    </g>
    <g id="ytick_2">
     <g id="line2d_10">
      <g>
       <use style="stroke:#000000;stroke-width:0.8;" x="108" xlink:href="#m2f4e441356" y="328.220697"/>
      </g>
     </g>
     <g id="text_11">
      <!-- −1000 -->
      <g transform="translate(67.170312 332.019915)scale(0.1 -0.1)">
       <use xlink:href="#DejaVuSans-8722"/>
       <use x="83.789062" xlink:href="#DejaVuSans-49"/>
       <use x="147.412109" xlink:href="#DejaVuSans-48"/>
       <use x="211.035156" xlink:href="#DejaVuSans-48"/>
       <use x="274.658203" xlink:href="#DejaVuSans-48"/>
      </g>
     </g>
    </g>
    <g id="ytick_3">
     <g id="line2d_11">
      <g>
       <use style="stroke:#000000;stroke-width:0.8;" x="108" xlink:href="#m2f4e441356" y="290.794146"/>
      </g>
     </g>
     <g id="text_12">
      <!-- −500 -->
      <g transform="translate(73.532813 294.593364)scale(0.1 -0.1)">
       <use xlink:href="#DejaVuSans-8722"/>
       <use x="83.789062" xlink:href="#DejaVuSans-53"/>
       <use x="147.412109" xlink:href="#DejaVuSans-48"/>
       <use x="211.035156" xlink:href="#DejaVuSans-48"/>
      </g>
     </g>
    </g>
    <g id="ytick_4">
     <g id="line2d_12">
      <g>
       <use style="stroke:#000000;stroke-width:0.8;" x="108" xlink:href="#m2f4e441356" y="253.367595"/>
      </g>
     </g>
     <g id="text_13">
      <!-- 0 -->
      <g transform="translate(94.6375 257.166813)scale(0.1 -0.1)">
       <use xlink:href="#DejaVuSans-48"/>
      </g>
     </g>
    </g>
    <g id="ytick_5">
     <g id="line2d_13">
      <g>
       <use style="stroke:#000000;stroke-width:0.8;" x="108" xlink:href="#m2f4e441356" y="215.941044"/>
      </g>
     </g>
     <g id="text_14">
      <!-- 500 -->
      <g transform="translate(81.9125 219.740262)scale(0.1 -0.1)">
       <use xlink:href="#DejaVuSans-53"/>
       <use x="63.623047" xlink:href="#DejaVuSans-48"/>
       <use x="127.246094" xlink:href="#DejaVuSans-48"/>
      </g>
     </g>
    </g>
    <g id="ytick_6">
     <g id="line2d_14">
      <g>
       <use style="stroke:#000000;stroke-width:0.8;" x="108" xlink:href="#m2f4e441356" y="178.514492"/>
      </g>
     </g>
     <g id="text_15">
      <!-- 1000 -->
      <g transform="translate(75.55 182.313711)scale(0.1 -0.1)">
       <use xlink:href="#DejaVuSans-49"/>
       <use x="63.623047" xlink:href="#DejaVuSans-48"/>
       <use x="127.246094" xlink:href="#DejaVuSans-48"/>
       <use x="190.869141" xlink:href="#DejaVuSans-48"/>
      </g>
     </g>
    </g>
    <g id="ytick_7">
     <g id="line2d_15">
      <g>
       <use style="stroke:#000000;stroke-width:0.8;" x="108" xlink:href="#m2f4e441356" y="141.087941"/>
      </g>
     </g>
     <g id="text_16">
      <!-- 1500 -->
      <g transform="translate(75.55 144.88716)scale(0.1 -0.1)">
       <use xlink:href="#DejaVuSans-49"/>
       <use x="63.623047" xlink:href="#DejaVuSans-53"/>
       <use x="127.246094" xlink:href="#DejaVuSans-48"/>
       <use x="190.869141" xlink:href="#DejaVuSans-48"/>
      </g>
     </g>
    </g>
    <g id="ytick_8">
     <g id="line2d_16">
      <g>
       <use style="stroke:#000000;stroke-width:0.8;" x="108" xlink:href="#m2f4e441356" y="103.66139"/>
      </g>
     </g>
     <g id="text_17">
      <!-- 2000 -->
      <g transform="translate(75.55 107.460609)scale(0.1 -0.1)">
       <use xlink:href="#DejaVuSans-50"/>
       <use x="63.623047" xlink:href="#DejaVuSans-48"/>
       <use x="127.246094" xlink:href="#DejaVuSans-48"/>
       <use x="190.869141" xlink:href="#DejaVuSans-48"/>
      </g>
     </g>
    </g>
    <g id="ytick_9">
     <g id="line2d_17">
      <g>
       <use style="stroke:#000000;stroke-width:0.8;" x="108" xlink:href="#m2f4e441356" y="66.234839"/>
      </g>
     </g>
     <g id="text_18">
      <!-- 2500 -->
      <g transform="translate(75.55 70.034058)scale(0.1 -0.1)">
       <use xlink:href="#DejaVuSans-50"/>
       <use x="63.623047" xlink:href="#DejaVuSans-53"/>
       <use x="127.246094" xlink:href="#DejaVuSans-48"/>
       <use x="190.869141" xlink:href="#DejaVuSans-48"/>
      </g>
     </g>
    </g>
    <g id="text_19">
     <!-- Value -->
     <defs>
      <path d="M 28.609375 0 
L 0.78125 72.90625 
L 11.078125 72.90625 
L 34.1875 11.53125 
L 57.328125 72.90625 
L 67.578125 72.90625 
L 39.796875 0 
z
" id="DejaVuSans-86"/>
      <path d="M 9.421875 75.984375 
L 18.40625 75.984375 
L 18.40625 0 
L 9.421875 0 
z
" id="DejaVuSans-108"/>
      <path d="M 8.5 21.578125 
L 8.5 54.6875 
L 17.484375 54.6875 
L 17.484375 21.921875 
Q 17.484375 14.15625 20.5 10.265625 
Q 23.53125 6.390625 29.59375 6.390625 
Q 36.859375 6.390625 41.078125 11.03125 
Q 45.3125 15.671875 45.3125 23.6875 
L 45.3125 54.6875 
L 54.296875 54.6875 
L 54.296875 0 
L 45.3125 0 
L 45.3125 8.40625 
Q 42.046875 3.421875 37.71875 1 
Q 33.40625 -1.421875 27.6875 -1.421875 
Q 18.265625 -1.421875 13.375 4.4375 
Q 8.5 10.296875 8.5 21.578125 
z
M 31.109375 56 
z
" id="DejaVuSans-117"/>
     </defs>
     <g transform="translate(61.090625 232.273281)rotate(-90)scale(0.1 -0.1)">
      <use xlink:href="#DejaVuSans-86"/>
      <use x="68.298828" xlink:href="#DejaVuSans-97"/>
      <use x="129.578125" xlink:href="#DejaVuSans-108"/>
      <use x="157.361328" xlink:href="#DejaVuSans-117"/>
      <use x="220.740234" xlink:href="#DejaVuSans-101"/>
     </g>
    </g>
   </g>
   <g id="line2d_18">
    <path clip-path="url(#pb6d338e878)" d="M 138.436364 243.80891 
L 138.865045 251.640762 
L 139.293726 234.944835 
L 139.722407 231.215731 
L 140.151088 233.557722 
L 140.57977 244.218085 
L 141.437132 226.675675 
L 141.865813 220.492393 
L 142.294494 198.322519 
L 143.151857 214.830346 
L 143.580538 213.712692 
L 144.009219 203.547525 
L 144.866581 197.368485 
L 145.295262 188.937089 
L 145.723944 194.272409 
L 146.152625 181.025 
L 146.581306 190.573497 
L 147.009987 179.925745 
L 147.438668 172.5086 
L 147.86735 171.608581 
L 148.296031 163.919334 
L 148.724712 167.94518 
L 149.582074 154.744323 
L 150.010755 166.109007 
L 150.439437 168.675607 
L 150.868118 156.83832 
L 151.296799 157.35331 
L 151.72548 158.20996 
L 152.154161 156.0727 
L 152.582843 156.557001 
L 153.011524 145.163348 
L 153.440205 141.122152 
L 153.868886 141.666562 
L 154.297567 151.915917 
L 154.726248 138.973599 
L 155.15493 150.27983 
L 155.583611 134.876581 
L 156.440973 152.085219 
L 157.298335 158.638017 
L 157.727017 158.698514 
L 158.155698 163.450963 
L 158.584379 144.031485 
L 159.01306 147.789962 
L 159.441741 157.260915 
L 159.870423 155.146411 
L 160.299104 161.77427 
L 160.727785 142.385986 
L 161.156466 168.918586 
L 161.585147 165.525707 
L 162.013828 165.563872 
L 162.44251 165.26041 
L 162.871191 173.850285 
L 163.299872 192.096253 
L 163.728553 187.697144 
L 164.157234 178.411049 
L 164.585915 184.299225 
L 165.014597 194.528416 
L 165.443278 191.597372 
L 165.871959 200.286033 
L 166.30064 195.789061 
L 166.729321 211.977758 
L 167.158003 202.101969 
L 168.444046 216.1487 
L 168.872727 218.279712 
L 169.301408 229.11491 
L 169.73009 229.137295 
L 170.158771 227.28207 
L 170.587452 228.07837 
L 171.016133 239.439403 
L 171.444814 245.560113 
L 172.302177 263.856195 
L 172.730858 263.175106 
L 173.159539 251.821726 
L 173.58822 259.605145 
L 174.016901 271.221573 
L 174.445583 276.865883 
L 174.874264 280.880467 
L 175.302945 274.194145 
L 175.731626 287.788644 
L 176.160307 280.127454 
L 176.588988 288.594664 
L 177.01767 287.455966 
L 177.446351 307.605185 
L 177.875032 304.587025 
L 178.303713 314.874103 
L 178.732394 307.18247 
L 179.589757 320.487418 
L 180.018438 310.52416 
L 180.447119 322.868055 
L 180.8758 320.018651 
L 181.304481 324.475603 
L 181.733163 338.969231 
L 182.161844 340.335614 
L 182.590525 337.776193 
L 183.019206 348.987826 
L 183.447887 338.255588 
L 183.876569 354.328813 
L 184.30525 334.241428 
L 184.733931 352.049829 
L 185.162612 337.15839 
L 185.591293 354.392596 
L 186.019974 359.894711 
L 186.448656 353.463218 
L 186.877337 354.39754 
L 187.306018 368.09542 
L 187.734699 348.050442 
L 188.16338 364.940623 
L 188.592061 354.232798 
L 189.020743 353.157296 
L 189.449424 355.816092 
L 189.878105 357.55353 
L 190.306786 354.790766 
L 190.735467 363.829398 
L 191.164149 361.122545 
L 191.59283 362.607276 
L 192.021511 341.216231 
L 192.450192 340.652834 
L 193.307554 358.453398 
L 194.164917 334.244063 
L 194.593598 347.314699 
L 195.022279 335.586281 
L 195.45096 346.740435 
L 195.879641 331.784582 
L 196.308323 341.707323 
L 196.737004 341.146709 
L 197.165685 336.296127 
L 198.023047 330.038472 
L 198.451729 314.423385 
L 198.88041 316.275516 
L 199.309091 315.904057 
L 199.737772 318.235892 
L 200.166453 314.175401 
L 200.595134 308.685826 
L 201.023816 307.651916 
L 201.881178 288.011757 
L 202.309859 296.600964 
L 202.73854 272.602069 
L 203.167222 289.622548 
L 203.595903 276.383971 
L 204.024584 253.647094 
L 204.453265 260.706193 
L 204.881946 265.198027 
L 205.310627 265.670458 
L 205.739309 250.542605 
L 206.16799 250.858537 
L 206.596671 249.416008 
L 207.025352 240.005094 
L 207.454033 241.944816 
L 207.882714 214.011743 
L 208.740077 220.032309 
L 209.168758 216.499015 
L 209.597439 222.00778 
L 210.02612 207.272591 
L 210.454802 212.730033 
L 210.883483 213.906829 
L 211.312164 188.311588 
L 211.740845 205.912636 
L 212.169526 197.537852 
L 213.026889 195.595155 
L 213.45557 180.614843 
L 213.884251 193.475295 
L 214.312932 180.43894 
L 214.741613 180.26062 
L 215.170294 183.587285 
L 215.598976 170.892624 
L 216.027657 171.029226 
L 216.456338 169.79316 
L 216.885019 155.579135 
L 217.3137 156.792348 
L 217.742382 159.465889 
L 218.171063 155.710379 
L 218.599744 160.728966 
L 219.028425 155.090827 
L 219.457106 143.804993 
L 219.885787 150.990561 
L 220.314469 148.526449 
L 220.74315 133.48882 
L 221.171831 153.325728 
L 221.600512 140.1151 
L 222.029193 133.380452 
L 222.457875 154.665557 
L 222.886556 146.356414 
L 223.315237 149.473139 
L 223.743918 150.437847 
L 224.172599 155.000325 
L 224.60128 154.402642 
L 225.029962 138.727266 
L 225.458643 144.694578 
L 225.887324 144.342051 
L 226.316005 139.614012 
L 226.744686 155.490758 
L 227.173367 148.051354 
L 227.602049 156.333186 
L 228.03073 161.466499 
L 228.459411 152.624255 
L 229.316773 172.016984 
L 229.745455 168.133658 
L 230.174136 157.535741 
L 230.602817 162.617588 
L 231.031498 185.265462 
L 231.460179 176.41381 
L 231.88886 173.728696 
L 232.317542 195.534832 
L 232.746223 175.830089 
L 233.174904 193.90191 
L 233.603585 191.123492 
L 234.032266 198.212469 
L 234.460948 188.431787 
L 234.889629 215.185289 
L 235.31831 208.879731 
L 235.746991 219.738765 
L 236.175672 212.425426 
L 236.604353 202.58903 
L 237.033035 234.88607 
L 237.461716 227.939951 
L 237.890397 232.661213 
L 238.319078 223.998219 
L 238.747759 247.205173 
L 239.17644 240.174855 
L 239.605122 235.257767 
L 240.033803 254.220494 
L 240.462484 261.746329 
L 240.891165 261.779219 
L 241.319846 260.90648 
L 241.748528 276.472959 
L 242.177209 260.687989 
L 242.60589 276.903443 
L 243.034571 302.91646 
L 243.463252 293.286307 
L 243.891933 277.122974 
L 244.320615 300.054354 
L 244.749296 297.216798 
L 245.177977 299.834554 
L 245.606658 315.857656 
L 246.035339 303.619481 
L 246.46402 307.59917 
L 246.892702 299.97955 
L 247.750064 319.94104 
L 248.178745 324.22619 
L 248.607426 321.947375 
L 249.036108 336.0452 
L 249.464789 331.221135 
L 249.89347 331.903268 
L 250.322151 332.829787 
L 250.750832 347.849394 
L 251.179513 330.36025 
L 251.608195 338.105922 
L 252.036876 326.310828 
L 252.465557 361.254705 
L 252.894238 352.972787 
L 253.322919 362.868187 
L 253.751601 354.324072 
L 254.180282 349.871979 
L 254.608963 340.259154 
L 255.037644 357.234357 
L 255.466325 363.531367 
L 256.323688 350.454101 
L 256.752369 353.865162 
L 257.18105 345.19788 
L 258.038412 366.977872 
L 258.467093 346.751564 
L 258.895775 361.62426 
L 259.324456 347.645294 
L 259.753137 347.366737 
L 260.181818 347.234879 
L 260.610499 335.616311 
L 261.039181 348.673035 
L 261.467862 355.361945 
L 261.896543 343.107618 
L 262.325224 343.354468 
L 263.182586 324.837973 
L 263.611268 348.456636 
L 264.039949 333.85763 
L 264.46863 329.033891 
L 264.897311 322.609486 
L 265.325992 329.111629 
L 265.754673 317.852233 
L 266.183355 314.770976 
L 266.612036 314.490643 
L 267.040717 311.978659 
L 267.469398 296.493412 
L 267.898079 298.940545 
L 268.326761 285.612568 
L 268.755442 298.725698 
L 269.184123 302.315162 
L 270.041485 284.401366 
L 270.470166 282.969336 
L 270.898848 280.260724 
L 271.327529 285.008519 
L 271.75621 275.012822 
L 272.184891 273.143825 
L 272.613572 258.372593 
L 273.042254 253.92723 
L 273.470935 240.714139 
L 273.899616 250.661828 
L 274.328297 236.820126 
L 274.756978 243.442366 
L 275.185659 247.117068 
L 275.614341 228.246991 
L 276.043022 231.35708 
L 276.471703 229.671587 
L 276.900384 225.057627 
L 277.329065 207.124032 
L 277.757746 199.551447 
L 278.186428 199.962931 
L 278.615109 205.850502 
L 279.04379 209.966525 
L 279.472471 194.741208 
L 279.901152 184.449712 
L 280.329834 183.070555 
L 280.758515 183.653418 
L 281.187196 181.08224 
L 281.615877 185.977515 
L 282.044558 173.193176 
L 282.473239 173.191544 
L 282.901921 170.28529 
L 283.330602 169.637103 
L 283.759283 174.305612 
L 284.187964 167.606216 
L 284.616645 155.044947 
L 285.045327 158.394774 
L 285.474008 156.57529 
L 285.902689 156.239107 
L 286.33137 142.536801 
L 286.760051 151.433885 
L 287.188732 148.293428 
L 287.617414 147.810816 
L 288.046095 155.142462 
L 288.474776 147.445521 
L 288.903457 136.459326 
L 289.332138 142.134875 
L 289.760819 156.150642 
L 290.189501 144.328686 
L 290.618182 140.586879 
L 291.046863 145.458928 
L 291.475544 139.213575 
L 292.332907 154.052272 
L 292.761588 141.322816 
L 293.190269 145.747948 
L 293.61895 144.681199 
L 294.047631 142.138109 
L 294.476312 149.890678 
L 294.904994 165.234505 
L 295.333675 153.68348 
L 295.762356 168.812156 
L 296.191037 162.42972 
L 296.619718 153.331334 
L 297.048399 175.817076 
L 297.477081 164.409636 
L 297.905762 172.353395 
L 298.334443 172.696706 
L 298.763124 165.832478 
L 299.191805 172.679178 
L 299.620487 169.370884 
L 300.049168 190.865526 
L 300.477849 192.119479 
L 300.90653 194.603005 
L 301.335211 193.32034 
L 301.763892 203.449424 
L 302.192574 205.694124 
L 302.621255 210.562725 
L 303.049936 202.398572 
L 303.478617 206.657765 
L 303.907298 207.778781 
L 304.33598 198.54059 
L 304.764661 224.029088 
L 305.193342 221.533519 
L 305.622023 206.099489 
L 306.050704 230.666916 
L 306.908067 250.540629 
L 307.336748 251.480541 
L 307.765429 264.277443 
L 308.19411 267.556768 
L 308.622791 262.879576 
L 309.051472 261.535501 
L 309.908835 275.084117 
L 310.337516 289.930856 
L 310.766197 275.192493 
L 311.194878 280.650714 
L 311.62356 275.797565 
L 312.052241 305.884906 
L 312.480922 297.784706 
L 312.909603 286.074223 
L 313.338284 302.037842 
L 313.766965 295.978367 
L 314.195647 305.536926 
L 314.624328 312.184342 
L 315.053009 309.54093 
L 315.48169 333.196475 
L 315.910371 325.168953 
L 316.339052 320.916691 
L 316.767734 318.140404 
L 317.625096 331.99231 
L 318.053777 327.223717 
L 318.91114 348.565237 
L 319.339821 342.364903 
L 319.768502 345.229901 
L 320.197183 342.861838 
L 320.625864 350.052243 
L 321.054545 343.594452 
L 321.483227 334.146494 
L 321.911908 364.353245 
L 322.340589 347.232718 
L 322.76927 357.82766 
L 323.197951 357.671028 
L 323.626633 367.031097 
L 324.055314 355.480694 
L 324.483995 351.044631 
L 324.912676 364.252038 
L 325.341357 338.527979 
L 325.770038 358.482822 
L 326.19872 369.36 
L 327.056082 332.643889 
L 327.484763 337.259338 
L 327.913444 338.414011 
L 328.342125 340.693308 
L 328.770807 341.600301 
L 330.05685 356.281706 
L 330.485531 346.223538 
L 330.914213 348.486638 
L 331.342894 340.036629 
L 331.771575 324.486299 
L 332.200256 333.979089 
L 332.628937 336.093739 
L 333.057618 328.864884 
L 333.4863 331.440237 
L 333.914981 309.19964 
L 334.343662 323.34946 
L 334.772343 309.714604 
L 336.058387 283.603508 
L 336.487068 307.500713 
L 336.915749 283.402244 
L 337.34443 290.731908 
L 337.773111 283.961644 
L 338.201793 267.671415 
L 338.630474 279.174375 
L 339.059155 265.376866 
L 339.487836 267.113836 
L 339.916517 265.976691 
L 340.345198 247.449785 
L 340.77388 255.640038 
L 341.202561 251.367528 
L 341.631242 240.312891 
L 342.059923 234.479707 
L 342.488604 244.211527 
L 342.917286 224.40976 
L 343.345967 233.761374 
L 343.774648 231.560311 
L 344.203329 238.439254 
L 344.63201 217.885598 
L 345.060691 210.424616 
L 345.489373 214.260975 
L 345.918054 195.675358 
L 346.346735 196.600156 
L 346.775416 196.83013 
L 347.204097 180.295995 
L 347.632778 201.784298 
L 348.06146 184.820976 
L 348.490141 177.23864 
L 348.918822 187.911502 
L 349.347503 179.190132 
L 349.776184 174.644735 
L 350.204866 174.678187 
L 350.633547 168.000222 
L 351.062228 167.035961 
L 351.490909 169.621033 
L 351.91959 155.183507 
L 352.348271 163.041969 
L 352.776953 161.303282 
L 353.634315 139.958473 
L 354.062996 164.418947 
L 354.491677 148.089298 
L 354.920359 145.220923 
L 355.34904 146.800898 
L 355.777721 126.622815 
L 356.206402 135.59365 
L 356.635083 148.420945 
L 357.063764 148.552877 
L 357.492446 136.528666 
L 357.921127 135.600126 
L 358.349808 137.720052 
L 358.778489 147.839193 
L 359.20717 139.467565 
L 359.635851 144.564706 
L 360.064533 130.603909 
L 360.493214 151.822419 
L 360.921895 146.044599 
L 361.350576 155.134216 
L 361.779257 156.063162 
L 362.207939 150.016127 
L 363.065301 157.101459 
L 363.493982 143.481165 
L 363.922663 156.550094 
L 364.351344 149.399987 
L 364.780026 169.086016 
L 365.208707 165.959528 
L 365.637388 177.284014 
L 366.066069 158.472716 
L 366.49475 179.605709 
L 366.923431 163.981112 
L 367.352113 185.675571 
L 367.780794 182.061962 
L 368.209475 206.354914 
L 368.638156 189.855584 
L 369.066837 191.343301 
L 369.495519 209.518086 
L 369.9242 200.823594 
L 370.352881 204.984239 
L 370.781562 220.058936 
L 371.210243 203.211399 
L 371.638924 223.087457 
L 372.067606 219.54012 
L 372.496287 217.63253 
L 372.924968 229.925388 
L 373.353649 224.414265 
L 373.78233 233.183379 
L 374.211012 227.044815 
L 374.639693 247.458992 
L 375.068374 255.38443 
L 375.497055 248.059448 
L 375.925736 256.401915 
L 376.354417 261.306476 
L 376.783099 259.44632 
L 377.21178 263.636985 
L 377.640461 271.231567 
L 378.069142 270.607262 
L 379.355186 279.911854 
L 379.783867 281.248956 
L 380.212548 295.81183 
L 380.641229 301.780473 
L 381.06991 311.323938 
L 381.498592 307.348019 
L 381.927273 315.972133 
L 382.355954 309.171866 
L 383.213316 322.813212 
L 383.641997 328.978207 
L 384.070679 324.005751 
L 384.928041 339.359757 
L 385.356722 342.996329 
L 385.785403 326.369481 
L 386.214085 342.036335 
L 386.642766 344.757027 
L 387.071447 343.133662 
L 387.500128 347.061083 
L 388.35749 348.187975 
L 388.786172 351.706495 
L 389.214853 356.582315 
L 389.643534 343.912655 
L 390.072215 350.980594 
L 390.500896 361.752001 
L 390.929577 345.256527 
L 391.358259 364.853453 
L 391.78694 354.917326 
L 392.215621 354.074602 
L 392.644302 358.845944 
L 393.072983 349.261685 
L 393.501665 362.337187 
L 393.930346 338.824882 
L 394.359027 346.724547 
L 394.787708 335.679756 
L 395.216389 342.52862 
L 395.64507 358.867633 
L 396.073752 339.762898 
L 396.502433 339.663053 
L 396.931114 333.541505 
L 397.359795 331.268483 
L 397.788476 333.87905 
L 398.217157 330.374208 
L 398.645839 337.202864 
L 399.07452 318.366887 
L 399.503201 341.076668 
L 399.931882 339.22723 
L 400.360563 331.92004 
L 400.789245 312.302884 
L 401.217926 324.466058 
L 402.075288 308.963846 
L 402.503969 309.844829 
L 402.93265 318.450778 
L 403.361332 290.277301 
L 403.790013 296.017048 
L 404.218694 287.680872 
L 405.076056 288.001588 
L 405.933419 269.894137 
L 406.3621 283.40899 
L 406.790781 276.688163 
L 407.219462 253.986387 
L 407.648143 266.532728 
L 408.076825 255.407319 
L 408.505506 262.146027 
L 408.934187 241.966578 
L 409.362868 238.492601 
L 409.791549 240.851339 
L 410.22023 222.894018 
L 410.648912 234.358833 
L 411.077593 228.583997 
L 411.506274 213.962794 
L 411.934955 214.773104 
L 412.792318 199.199041 
L 413.220999 204.544912 
L 413.64968 197.647389 
L 414.078361 203.642467 
L 414.507042 191.598268 
L 414.935723 193.84301 
L 415.364405 178.341517 
L 415.793086 184.92428 
L 416.650448 178.043231 
L 417.079129 190.284157 
L 417.50781 179.408164 
L 417.936492 154.173299 
L 418.365173 160.919846 
L 418.793854 163.32949 
L 419.222535 162.32733 
L 419.651216 159.990353 
L 420.079898 153.219876 
L 420.508579 66.96 
L 420.93726 66.96 
L 421.365941 151.797352 
L 421.794622 158.587121 
L 422.651985 142.433889 
L 423.080666 156.051378 
L 423.509347 136.397845 
L 423.938028 134.350512 
L 424.366709 142.65651 
L 424.795391 140.031043 
L 425.224072 131.56418 
L 425.652753 145.936394 
L 426.081434 148.588338 
L 426.510115 150.361321 
L 426.938796 149.335631 
L 427.367478 147.81913 
L 427.796159 140.271258 
L 428.22484 151.021923 
L 428.653521 146.931161 
L 429.082202 144.817919 
L 429.510883 157.015901 
L 429.939565 137.989434 
L 430.368246 140.429849 
L 430.796927 165.714314 
L 431.225608 157.628416 
L 431.654289 158.836861 
L 432.082971 156.926464 
L 432.511652 169.401619 
L 432.940333 165.842388 
L 433.369014 159.674107 
L 433.797695 160.825323 
L 434.226376 169.432695 
L 434.655058 171.585649 
L 435.083739 182.105723 
L 435.51242 183.752674 
L 435.941101 174.912439 
L 436.798464 195.733238 
L 437.227145 181.79153 
L 437.655826 202.224958 
L 438.084507 192.993303 
L 438.513188 200.944716 
L 438.941869 206.338498 
L 439.370551 215.480881 
L 439.799232 210.408037 
L 440.227913 233.545441 
L 440.656594 232.669091 
L 441.085275 231.135674 
L 441.513956 232.233091 
L 441.942638 236.78312 
L 442.371319 243.882844 
L 442.8 248.087794 
L 443.228681 246.483449 
L 444.086044 274.889054 
L 444.514725 262.422275 
L 444.943406 260.023009 
L 445.372087 263.199061 
L 445.800768 276.838582 
L 446.229449 279.072028 
L 446.658131 271.106398 
L 447.086812 291.269485 
L 447.515493 291.196589 
L 447.944174 290.270706 
L 448.372855 302.47265 
L 448.801536 304.676298 
L 449.230218 300.366044 
L 449.658899 313.515995 
L 450.08758 307.893865 
L 450.516261 323.586424 
L 450.944942 332.867863 
L 451.373624 315.891052 
L 451.802305 324.42807 
L 452.230986 329.43608 
L 452.659667 332.688653 
L 453.088348 323.706852 
L 453.517029 341.743575 
L 453.945711 328.470577 
L 454.374392 345.628703 
L 454.803073 340.716091 
L 455.231754 343.048376 
L 455.660435 338.6869 
L 456.089117 357.89916 
L 456.517798 347.695027 
L 456.946479 347.932951 
L 457.803841 340.174287 
L 458.232522 356.726851 
L 458.661204 347.307841 
L 459.089885 346.705918 
L 459.518566 341.28878 
L 459.947247 350.88811 
L 460.375928 341.360757 
L 460.804609 349.024178 
L 461.233291 351.39372 
L 461.661972 344.608545 
L 462.090653 345.49496 
L 462.519334 343.722517 
L 462.948015 337.86558 
L 463.376697 346.297645 
L 464.234059 342.555256 
L 465.091421 322.544204 
L 465.520102 327.913514 
L 465.948784 325.128218 
L 466.377465 317.240509 
L 466.806146 332.434715 
L 467.234827 336.596645 
L 467.663508 331.116551 
L 468.09219 317.916771 
L 468.520871 316.663441 
L 468.949552 334.259061 
L 469.378233 301.542919 
L 469.806914 308.839439 
L 470.235595 304.182399 
L 470.664277 297.163287 
L 471.092958 306.53223 
L 471.521639 298.289578 
L 471.95032 281.368871 
L 472.379001 270.439432 
L 472.807682 276.260831 
L 473.236364 271.924606 
L 473.665045 286.416499 
L 474.093726 261.494561 
L 474.522407 256.872896 
L 474.951088 263.925622 
L 475.808451 245.950595 
L 476.237132 232.482792 
L 476.665813 252.96438 
L 477.094494 232.609061 
L 477.523175 225.805889 
L 477.951857 225.140329 
L 478.380538 225.696189 
L 478.809219 224.949863 
L 479.2379 218.47634 
L 479.666581 209.116653 
L 480.095262 219.840081 
L 480.523944 216.990463 
L 480.952625 209.246518 
L 481.381306 210.817353 
L 481.809987 208.926669 
L 482.238668 182.210686 
L 482.66735 196.005481 
L 483.096031 189.369814 
L 483.524712 190.731809 
L 483.953393 174.973114 
L 484.382074 171.65946 
L 484.810755 163.578901 
L 485.239437 173.081023 
L 485.668118 157.350278 
L 486.096799 162.965887 
L 486.52548 171.224278 
L 486.954161 150.223103 
L 487.382843 145.151368 
L 487.811524 148.334147 
L 488.240205 155.601821 
L 488.668886 160.608027 
L 489.097567 148.403307 
L 489.526248 157.257055 
L 489.95493 159.348973 
L 490.383611 139.020923 
L 490.812292 145.472029 
L 491.240973 145.255847 
L 491.669654 146.294954 
L 492.098335 130.840087 
L 492.527017 152.288506 
L 493.384379 135.561517 
L 493.81306 137.664197 
L 494.241741 144.695985 
L 494.670423 140.860224 
L 495.099104 142.361898 
L 495.527785 128.859512 
L 495.956466 141.65096 
L 496.385147 148.381058 
L 496.813828 135.624 
L 497.24251 155.536816 
L 497.671191 143.328798 
L 498.099872 139.724392 
L 498.528553 159.627326 
L 498.957234 150.296438 
L 499.385915 147.637398 
L 499.814597 148.598886 
L 500.243278 147.884789 
L 500.671959 147.399727 
L 501.10064 163.012247 
L 501.529321 173.682365 
L 501.958003 175.873688 
L 502.386684 167.88848 
L 502.815365 188.140036 
L 503.244046 175.679663 
L 503.672727 191.508825 
L 504.101408 193.185735 
L 504.53009 187.11206 
L 504.958771 197.747116 
L 505.387452 203.226033 
L 505.816133 205.729394 
L 506.244814 193.820694 
L 506.673496 218.778812 
L 507.102177 211.524748 
L 507.530858 219.865377 
L 507.959539 197.977541 
L 508.38822 225.63258 
L 508.816901 214.786231 
L 509.245583 226.138255 
L 509.674264 248.656107 
L 510.102945 237.073615 
L 510.531626 239.869164 
L 510.960307 249.10119 
L 511.388988 268.201774 
L 511.81767 240.608605 
L 512.246351 263.119853 
L 512.675032 276.383055 
L 513.103713 260.406102 
L 513.532394 275.725623 
L 513.961076 275.96784 
L 514.818438 299.130432 
L 515.247119 290.64529 
L 515.6758 287.41718 
L 516.104481 296.861616 
L 516.533163 300.079112 
L 517.390525 304.11029 
L 517.819206 312.371961 
L 518.247887 315.852499 
L 519.533931 333.275673 
L 519.962612 331.016974 
L 520.391293 333.253091 
L 520.819974 333.030458 
L 521.248656 259.626317 
L 521.677337 259.626317 
L 522.106018 325.217951 
L 522.534699 335.601439 
L 522.96338 338.156215 
L 523.392061 341.880803 
L 523.820743 350.043068 
L 524.249424 348.832528 
L 524.678105 348.255812 
L 525.106786 345.718485 
L 525.535467 347.41532 
L 525.964149 334.102049 
L 526.39283 350.771722 
L 526.821511 354.137196 
L 527.250192 360.976512 
L 527.678873 356.096809 
L 528.107554 328.680415 
L 528.536236 345.624098 
L 528.964917 340.492354 
L 529.393598 345.073265 
L 529.822279 344.417671 
L 530.25096 345.973749 
L 531.108323 331.236673 
L 531.537004 333.82419 
L 531.965685 340.646008 
L 532.394366 336.342256 
L 532.823047 346.130895 
L 533.251729 324.451266 
L 533.68041 317.088668 
L 534.109091 339.829539 
L 534.537772 326.012507 
L 534.966453 329.869623 
L 535.395134 329.481633 
L 535.823816 309.439939 
L 536.252497 305.673391 
L 536.681178 296.009018 
L 537.109859 304.328675 
L 537.53854 318.542207 
L 537.967222 297.618566 
L 538.395903 303.025774 
L 539.253265 288.624566 
L 539.681946 286.144253 
L 540.110627 276.826125 
L 540.539309 283.87624 
L 540.96799 280.078469 
L 541.825352 260.248113 
L 542.254033 265.753585 
L 543.111396 262.148492 
L 543.968758 248.308466 
L 544.397439 250.795019 
L 544.82612 232.574388 
L 545.254802 249.175545 
L 545.683483 230.636411 
L 546.112164 236.259498 
L 546.540845 212.035129 
L 546.969526 221.022561 
L 547.398207 204.596148 
L 547.826889 212.318559 
L 548.25557 206.826374 
L 548.684251 209.066779 
L 549.112932 220.852444 
L 549.541613 181.37549 
L 549.970294 200.839313 
L 550.398976 167.211292 
L 550.827657 180.666236 
L 551.256338 184.02224 
L 551.685019 171.182419 
L 552.1137 166.633189 
L 552.542382 171.949559 
L 552.971063 166.249059 
L 553.399744 150.515191 
L 553.828425 172.373584 
L 554.257106 159.545663 
L 554.685787 150.729768 
L 555.114469 165.120052 
L 555.54315 165.798659 
L 555.971831 140.007791 
L 556.400512 154.028449 
L 556.829193 154.496641 
L 557.257875 145.357797 
L 557.686556 147.861659 
L 558.115237 146.639726 
L 558.543918 152.05255 
L 558.972599 147.247146 
L 559.40128 133.202061 
L 559.829962 135.225713 
L 560.258643 143.380126 
L 560.687324 120.018354 
L 561.116005 126.971973 
L 561.544686 143.808782 
L 561.973367 139.181223 
L 562.402049 163.29555 
L 562.83073 132.1433 
L 563.259411 135.865291 
L 563.688092 144.734769 
L 564.545455 142.5588 
L 564.974136 136.876715 
L 565.402817 153.415574 
L 565.831498 139.688083 
L 566.260179 143.855944 
L 566.68886 156.850144 
L 567.117542 155.812568 
L 567.546223 141.976729 
L 567.974904 159.470641 
L 568.403585 171.316292 
L 568.832266 174.599724 
L 569.260948 166.76781 
L 569.689629 167.334281 
L 570.11831 170.267236 
L 570.546991 177.288921 
L 570.975672 193.460497 
L 571.833035 178.294607 
L 572.261716 206.363798 
L 572.690397 187.794005 
L 573.119078 207.263295 
L 573.547759 201.54663 
L 573.97644 214.332918 
L 574.405122 201.412772 
L 574.833803 216.047486 
L 575.262484 212.374994 
L 575.691165 225.656085 
L 576.548528 239.205527 
L 576.977209 240.663698 
L 577.40589 238.755775 
L 577.834571 229.757495 
L 578.263252 240.087407 
L 578.691933 253.380711 
L 579.120615 250.890526 
L 579.549296 264.403257 
L 579.977977 265.599936 
L 580.406658 263.837577 
L 580.835339 248.784132 
L 581.26402 271.345108 
L 581.692702 276.277283 
L 582.121383 298.343068 
L 582.550064 275.885179 
L 582.978745 279.109558 
L 583.407426 304.518603 
L 583.836108 295.886824 
L 584.264789 305.731965 
L 584.69347 301.948529 
L 585.122151 309.983866 
L 585.550832 301.69228 
L 585.979513 310.9389 
L 586.408195 314.968719 
L 586.836876 315.59806 
L 587.265557 335.064559 
L 587.694238 332.870415 
L 588.122919 316.19718 
L 588.551601 327.492828 
L 588.980282 328.123007 
L 589.408963 343.953846 
L 589.837644 318.886886 
L 590.266325 341.222853 
L 590.695006 335.146807 
L 591.123688 342.335753 
L 591.552369 334.753289 
L 591.98105 349.837688 
L 592.409731 336.570748 
L 592.838412 337.321426 
L 593.267093 351.616343 
L 593.695775 358.742274 
L 594.124456 343.579902 
L 594.553137 364.601366 
L 594.981818 341.400077 
L 595.410499 341.119126 
L 595.839181 340.607624 
L 596.267862 348.730064 
L 596.696543 331.765123 
L 597.125224 345.91933 
L 597.553905 351.227321 
L 597.982586 345.74539 
L 598.411268 351.118442 
L 598.839949 349.832643 
L 599.26863 337.07169 
L 599.697311 336.559806 
L 600.125992 339.129542 
L 600.554673 334.706589 
L 600.983355 332.079918 
L 601.412036 330.932753 
L 601.840717 312.815441 
L 602.269398 328.115641 
L 602.698079 315.731001 
L 603.126761 320.700068 
L 603.555442 323.219157 
L 603.984123 319.243043 
L 604.412804 307.793856 
L 604.841485 310.03405 
L 605.270166 301.144978 
L 605.698848 296.299259 
L 606.127529 289.759008 
L 606.55621 299.42512 
L 606.984891 277.649762 
L 607.413572 298.642694 
L 607.842254 294.847587 
L 608.270935 267.795324 
L 608.699616 263.021284 
L 609.128297 277.131127 
L 609.556978 260.558544 
L 609.985659 270.27967 
L 610.414341 244.037577 
L 610.843022 251.454857 
L 611.700384 246.170437 
L 612.129065 248.817072 
L 612.557746 228.832706 
L 612.986428 231.05504 
L 613.415109 223.16759 
L 613.84379 228.911327 
L 614.272471 221.912437 
L 614.701152 212.806759 
L 615.129834 223.837527 
L 615.558515 213.807886 
L 615.987196 207.443842 
L 616.415877 194.581536 
L 616.844558 202.257592 
L 617.273239 199.613956 
L 617.701921 184.595693 
L 618.130602 189.95261 
L 618.559283 173.093439 
L 618.987964 190.18924 
L 619.416645 176.991128 
L 619.845327 177.051867 
L 620.274008 171.867106 
L 620.702689 159.572356 
L 621.13137 156.869059 
L 621.560051 165.313266 
L 621.988732 171.148366 
L 622.417414 160.371511 
L 622.846095 142.188268 
L 623.274776 150.295127 
L 623.703457 154.822785 
L 624.989501 129.123114 
L 625.846863 147.981045 
L 626.275544 122.21765 
L 626.704225 137.867547 
L 627.132907 127.054075 
L 627.561588 127.383532 
L 627.990269 152.225388 
L 628.41895 124.171995 
L 628.847631 137.333072 
L 629.276312 142.928123 
L 629.704994 136.285494 
L 630.133675 136.657827 
L 630.562356 137.665861 
L 630.991037 139.729673 
L 631.419718 128.163943 
L 631.848399 132.798339 
L 632.277081 139.285659 
L 632.705762 147.624418 
L 633.134443 135.36423 
L 633.563124 141.255937 
L 633.991805 151.481552 
L 634.420487 154.029608 
L 634.849168 154.300406 
L 635.277849 155.908836 
L 635.70653 154.219878 
L 636.135211 152.994335 
L 636.563892 160.704522 
L 636.992574 177.908715 
L 637.421255 165.417148 
L 637.849936 162.794999 
L 638.278617 184.211626 
L 638.707298 191.86958 
L 639.13598 174.955299 
L 639.564661 187.319038 
L 639.993342 184.063707 
L 640.422023 193.380058 
L 640.850704 182.126866 
L 641.708067 197.960274 
L 642.565429 203.539749 
L 642.99411 206.209458 
L 643.422791 225.845526 
L 643.851472 210.883945 
L 644.280154 237.750771 
L 644.708835 247.424486 
L 645.137516 236.731396 
L 645.566197 234.700309 
L 645.994878 240.613643 
L 646.42356 243.360762 
L 647.280922 260.607743 
L 647.709603 259.068839 
L 648.138284 250.573861 
L 648.566965 270.355449 
L 648.995647 268.516973 
L 649.424328 272.484395 
L 649.853009 270.842064 
L 650.28169 292.191458 
L 651.139052 289.188599 
L 651.567734 298.156912 
L 651.996415 297.115217 
L 652.425096 303.83278 
L 653.282458 320.737873 
L 653.71114 305.386869 
L 654.139821 313.78805 
L 654.568502 311.744184 
L 654.997183 337.698764 
L 655.425864 314.858156 
L 656.283227 331.223617 
L 656.711908 325.956243 
L 657.140589 330.002557 
L 657.56927 329.291938 
L 657.997951 331.863538 
L 658.426633 336.264325 
L 658.855314 337.931743 
L 659.283995 344.936468 
L 659.712676 338.084969 
L 660.141357 346.59564 
L 660.570038 333.49449 
L 660.99872 343.307349 
L 661.427401 333.725301 
L 661.856082 347.660044 
L 662.284763 346.751563 
L 662.713444 338.87697 
L 663.142125 336.546673 
L 663.570807 353.399903 
L 663.999488 338.014011 
L 664.428169 335.432262 
L 664.85685 346.277249 
L 665.285531 336.664152 
L 665.714213 345.798679 
L 666.142894 343.613876 
L 666.571575 339.512144 
L 667.000256 341.862959 
L 667.428937 323.69623 
L 667.857618 333.294734 
L 668.2863 334.140499 
L 668.714981 341.136441 
L 669.143662 325.933168 
L 669.572343 329.85778 
L 670.001024 324.529247 
L 670.429706 321.372978 
L 670.858387 328.533985 
L 671.287068 309.403008 
L 671.715749 308.25229 
L 672.14443 303.561215 
L 672.573111 309.820084 
L 673.001793 314.073237 
L 673.430474 281.776871 
L 673.859155 282.242042 
L 674.287836 292.715414 
L 674.716517 296.429371 
L 675.145198 283.115035 
L 675.57388 278.173699 
L 676.002561 289.606609 
L 676.431242 272.075267 
L 676.859923 265.27971 
L 677.288604 249.036868 
L 677.717286 266.074746 
L 678.145967 235.326229 
L 678.574648 239.845067 
L 679.003329 245.688001 
L 679.43201 243.857907 
L 680.289373 223.049431 
L 680.718054 217.631719 
L 681.146735 222.972546 
L 681.575416 226.150703 
L 682.004097 207.800863 
L 682.432778 204.168064 
L 682.86146 212.554046 
L 683.290141 212.103752 
L 683.718822 201.188277 
L 684.147503 193.709661 
L 684.576184 194.335003 
L 685.004866 196.796719 
L 685.433547 191.699833 
L 685.862228 175.557063 
L 686.290909 173.145681 
L 686.71959 172.441014 
L 687.148271 176.719205 
L 687.576953 169.82027 
L 688.005634 174.121735 
L 688.434315 155.926311 
L 688.862996 173.476858 
L 689.291677 159.143102 
L 689.720359 156.596396 
L 690.14904 157.223518 
L 690.577721 131.512375 
L 691.006402 131.298471 
L 691.435083 149.982612 
L 691.863764 140.912047 
L 692.292446 140.129394 
L 692.721127 137.735956 
L 693.149808 136.06548 
L 693.578489 143.666903 
L 694.00717 153.941549 
L 694.435851 140.087986 
L 694.864533 130.930248 
L 695.293214 139.857637 
L 695.721895 132.638679 
L 696.150576 140.823648 
L 696.579257 133.197004 
L 697.007939 131.368643 
L 697.43662 134.737248 
L 697.865301 143.595262 
L 698.293982 127.531141 
L 699.151344 147.802664 
L 699.580026 144.405728 
L 700.008707 139.780136 
L 700.866069 157.379645 
L 701.723431 147.960819 
L 702.152113 148.629713 
L 702.580794 140.204922 
L 703.009475 158.838599 
L 703.438156 162.907781 
L 703.866837 164.005926 
L 704.295519 154.065435 
L 704.7242 170.885245 
L 705.152881 168.269146 
L 705.581562 154.579998 
L 706.010243 183.190709 
L 706.438924 183.072785 
L 706.867606 183.614165 
L 707.296287 195.812564 
L 707.724968 185.715163 
L 708.153649 206.576596 
L 708.58233 197.561537 
L 709.011012 204.998542 
L 709.439693 207.658995 
L 709.868374 197.623371 
L 710.297055 204.850665 
L 710.725736 200.784928 
L 712.01178 231.17799 
L 712.440461 228.827716 
L 712.869142 232.510465 
L 713.297823 241.008531 
L 713.726504 254.221821 
L 714.155186 241.616772 
L 714.583867 257.47063 
L 715.012548 264.936878 
L 715.441229 259.184764 
L 715.86991 266.665993 
L 716.298592 260.359131 
L 716.727273 274.712909 
L 717.155954 267.001745 
L 717.584635 277.134645 
L 718.013316 281.617666 
L 718.441997 288.584136 
L 718.870679 281.517988 
L 719.29936 297.570201 
L 719.728041 302.623351 
L 720.156722 299.436886 
L 720.585403 302.803873 
L 721.014085 292.41518 
L 721.442766 311.050794 
L 721.871447 307.523478 
L 722.300128 316.792746 
L 722.728809 307.595899 
L 723.15749 317.522769 
L 723.586172 319.380221 
L 724.014853 324.469921 
L 724.443534 335.751437 
L 724.872215 335.505274 
L 725.300896 328.600126 
L 725.729577 342.404375 
L 726.158259 326.902449 
L 726.58694 347.431683 
L 727.015621 347.923197 
L 727.444302 348.764794 
L 728.301665 333.65192 
L 728.730346 354.396544 
L 729.159027 346.147442 
L 729.587708 342.855385 
L 730.016389 355.562449 
L 730.44507 345.527275 
L 730.873752 344.901984 
L 731.302433 335.220772 
L 731.731114 337.529971 
L 732.159795 351.812415 
L 732.588476 349.703309 
L 733.017157 345.755219 
L 733.445839 354.928063 
L 733.87452 346.48066 
L 734.303201 330.096183 
L 734.731882 337.636224 
L 735.160563 327.082563 
L 735.589245 324.834333 
L 736.017926 334.528148 
L 736.446607 330.06532 
L 736.875288 309.831544 
L 737.303969 324.378962 
L 737.73265 317.471362 
L 738.161332 307.724569 
L 738.590013 314.446168 
L 739.018694 309.410567 
L 739.447375 316.805456 
L 739.876056 289.060638 
L 740.304738 306.734738 
L 740.733419 306.397584 
L 741.1621 298.284945 
L 741.590781 277.116505 
L 742.019462 300.12825 
L 742.448143 284.538552 
L 742.876825 288.458281 
L 743.305506 283.03089 
L 743.734187 271.090334 
L 744.162868 263.69589 
L 744.591549 250.626571 
L 745.02023 262.155459 
L 745.448912 251.75111 
L 745.877593 271.832436 
L 746.306274 245.662359 
L 746.734955 230.108681 
L 747.163636 234.551817 
L 747.163636 234.551817 
" style="fill:none;stroke:#1f77b4;stroke-linecap:square;stroke-width:1.5;"/>
   </g>
   <g id="line2d_19">
    <path clip-path="url(#pb6d338e878)" d="M 742.876825 384.48 
L 742.876825 51.84 
" style="fill:none;stroke:#808080;stroke-linecap:square;"/>
   </g>
   <g id="patch_59">
    <path d="M 108 384.48 
L 108 51.84 
" style="fill:none;stroke:#000000;stroke-linecap:square;stroke-linejoin:miter;stroke-width:0.8;"/>
   </g>
   <g id="patch_60">
    <path d="M 777.6 384.48 
L 777.6 51.84 
" style="fill:none;stroke:#000000;stroke-linecap:square;stroke-linejoin:miter;stroke-width:0.8;"/>
   </g>
   <g id="patch_61">
    <path d="M 108 384.48 
L 777.6 384.48 
" style="fill:none;stroke:#000000;stroke-linecap:square;stroke-linejoin:miter;stroke-width:0.8;"/>
   </g>
   <g id="patch_62">
    <path d="M 108 51.84 
L 777.6 51.84 
" style="fill:none;stroke:#000000;stroke-linecap:square;stroke-linejoin:miter;stroke-width:0.8;"/>
   </g>
   <g id="text_20">
    <!-- synthetic_10.csv -->
    <defs>
     <path d="M 32.171875 -5.078125 
Q 28.375 -14.84375 24.75 -17.8125 
Q 21.140625 -20.796875 15.09375 -20.796875 
L 7.90625 -20.796875 
L 7.90625 -13.28125 
L 13.1875 -13.28125 
Q 16.890625 -13.28125 18.9375 -11.515625 
Q 21 -9.765625 23.484375 -3.21875 
L 25.09375 0.875 
L 2.984375 54.6875 
L 12.5 54.6875 
L 29.59375 11.921875 
L 46.6875 54.6875 
L 56.203125 54.6875 
z
" id="DejaVuSans-121"/>
     <path d="M 54.890625 33.015625 
L 54.890625 0 
L 45.90625 0 
L 45.90625 32.71875 
Q 45.90625 40.484375 42.875 44.328125 
Q 39.84375 48.1875 33.796875 48.1875 
Q 26.515625 48.1875 22.3125 43.546875 
Q 18.109375 38.921875 18.109375 30.90625 
L 18.109375 0 
L 9.078125 0 
L 9.078125 54.6875 
L 18.109375 54.6875 
L 18.109375 46.1875 
Q 21.34375 51.125 25.703125 53.5625 
Q 30.078125 56 35.796875 56 
Q 45.21875 56 50.046875 50.171875 
Q 54.890625 44.34375 54.890625 33.015625 
z
" id="DejaVuSans-110"/>
     <path d="M 54.890625 33.015625 
L 54.890625 0 
L 45.90625 0 
L 45.90625 32.71875 
Q 45.90625 40.484375 42.875 44.328125 
Q 39.84375 48.1875 33.796875 48.1875 
Q 26.515625 48.1875 22.3125 43.546875 
Q 18.109375 38.921875 18.109375 30.90625 
L 18.109375 0 
L 9.078125 0 
L 9.078125 75.984375 
L 18.109375 75.984375 
L 18.109375 46.1875 
Q 21.34375 51.125 25.703125 53.5625 
Q 30.078125 56 35.796875 56 
Q 45.21875 56 50.046875 50.171875 
Q 54.890625 44.34375 54.890625 33.015625 
z
" id="DejaVuSans-104"/>
     <path d="M 48.78125 52.59375 
L 48.78125 44.1875 
Q 44.96875 46.296875 41.140625 47.34375 
Q 37.3125 48.390625 33.40625 48.390625 
Q 24.65625 48.390625 19.8125 42.84375 
Q 14.984375 37.3125 14.984375 27.296875 
Q 14.984375 17.28125 19.8125 11.734375 
Q 24.65625 6.203125 33.40625 6.203125 
Q 37.3125 6.203125 41.140625 7.25 
Q 44.96875 8.296875 48.78125 10.40625 
L 48.78125 2.09375 
Q 45.015625 0.34375 40.984375 -0.53125 
Q 36.96875 -1.421875 32.421875 -1.421875 
Q 20.0625 -1.421875 12.78125 6.34375 
Q 5.515625 14.109375 5.515625 27.296875 
Q 5.515625 40.671875 12.859375 48.328125 
Q 20.21875 56 33.015625 56 
Q 37.15625 56 41.109375 55.140625 
Q 45.0625 54.296875 48.78125 52.59375 
z
" id="DejaVuSans-99"/>
     <path d="M 50.984375 -16.609375 
L 50.984375 -23.578125 
L -0.984375 -23.578125 
L -0.984375 -16.609375 
z
" id="DejaVuSans-95"/>
     <path d="M 10.6875 12.40625 
L 21 12.40625 
L 21 0 
L 10.6875 0 
z
" id="DejaVuSans-46"/>
     <path d="M 2.984375 54.6875 
L 12.5 54.6875 
L 29.59375 8.796875 
L 46.6875 54.6875 
L 56.203125 54.6875 
L 35.6875 0 
L 23.484375 0 
z
" id="DejaVuSans-118"/>
    </defs>
    <g transform="translate(392.638125 45.84)scale(0.12 -0.12)">
     <use xlink:href="#DejaVuSans-115"/>
     <use x="52.099609" xlink:href="#DejaVuSans-121"/>
     <use x="111.279297" xlink:href="#DejaVuSans-110"/>
     <use x="174.658203" xlink:href="#DejaVuSans-116"/>
     <use x="213.867188" xlink:href="#DejaVuSans-104"/>
     <use x="277.246094" xlink:href="#DejaVuSans-101"/>
     <use x="338.769531" xlink:href="#DejaVuSans-116"/>
     <use x="377.978516" xlink:href="#DejaVuSans-105"/>
     <use x="405.761719" xlink:href="#DejaVuSans-99"/>
     <use x="460.742188" xlink:href="#DejaVuSans-95"/>
     <use x="510.742188" xlink:href="#DejaVuSans-49"/>
     <use x="574.365234" xlink:href="#DejaVuSans-48"/>
     <use x="637.988281" xlink:href="#DejaVuSans-46"/>
     <use x="669.775391" xlink:href="#DejaVuSans-99"/>
     <use x="724.755859" xlink:href="#DejaVuSans-115"/>
     <use x="776.855469" xlink:href="#DejaVuSans-118"/>
    </g>
   </g>
   <g id="legend_1">
    <g id="patch_63">
     <path d="M 115 74.518125 
L 174.315625 74.518125 
Q 176.315625 74.518125 176.315625 72.518125 
L 176.315625 58.84 
Q 176.315625 56.84 174.315625 56.84 
L 115 56.84 
Q 113 56.84 113 58.84 
L 113 72.518125 
Q 113 74.518125 115 74.518125 
z
" style="fill:#ffffff;opacity:0.8;stroke:#cccccc;stroke-linejoin:miter;"/>
    </g>
    <g id="line2d_20">
     <path d="M 117 64.938438 
L 137 64.938438 
" style="fill:none;stroke:#1f77b4;stroke-linecap:square;stroke-width:1.5;"/>
    </g>
    <g id="line2d_21"/>
    <g id="text_21">
     <!-- value -->
     <g transform="translate(145 68.438438)scale(0.1 -0.1)">
      <use xlink:href="#DejaVuSans-118"/>
      <use x="59.179688" xlink:href="#DejaVuSans-97"/>
      <use x="120.458984" xlink:href="#DejaVuSans-108"/>
      <use x="148.242188" xlink:href="#DejaVuSans-117"/>
      <use x="211.621094" xlink:href="#DejaVuSans-101"/>
     </g>
    </g>
   </g>
  </g>
 </g>
 <defs>
  <clipPath id="pb6d338e878">
   <rect height="332.64" width="669.6" x="108" y="51.84"/>
  </clipPath>
 </defs>
</svg>
