<?xml version="1.0" encoding="utf-8" standalone="no"?>
<!DOCTYPE svg PUBLIC "-//W3C//DTD SVG 1.1//EN"
  "http://www.w3.org/Graphics/SVG/1.1/DTD/svg11.dtd">
<!-- Created with matplotlib (https://matplotlib.org/) -->
<svg height="432pt" version="1.1" viewBox="0 0 864 432" width="864pt" xmlns="http://www.w3.org/2000/svg" xmlns:xlink="http://www.w3.org/1999/xlink">
 <defs>
  <style type="text/css">
*{stroke-linecap:butt;stroke-linejoin:round;}
  </style>
 </defs>
 <g id="figure_1">
  <g id="patch_1">
   <path d="M 0 432 
L 864 432 
L 864 0 
L 0 0 
z
" style="fill:#ffffff;"/>
  </g>
  <g id="axes_1">
   <g id="patch_2">
    <path d="M 108 384.48 
L 777.6 384.48 
L 777.6 51.84 
L 108 51.84 
z
" style="fill:#ffffff;"/>
   </g>
   <g id="patch_3">
    <path clip-path="url(#p77ac016b64)" d="M 138.436364 384.48 
L 138.436364 51.84 
L 376.354417 51.84 
L 376.354417 384.48 
z
" style="fill:#0000ff;opacity:0.05;"/>
   </g>
   <g id="patch_4">
    <path clip-path="url(#p77ac016b64)" d="M 376.354417 384.48 
L 376.354417 51.84 
L 742.876825 51.84 
L 742.876825 384.48 
z
" style="fill:#ff0000;opacity:0.08;"/>
   </g>
   <g id="patch_5">
    <path clip-path="url(#p77ac016b64)" d="M 138.436364 384.48 
L 138.436364 51.84 
L 144.866581 51.84 
L 144.866581 384.48 
z
" style="fill:#008000;opacity:0.04;"/>
   </g>
   <g id="patch_6">
    <path clip-path="url(#p77ac016b64)" d="M 151.296799 384.48 
L 151.296799 51.84 
L 157.727017 51.84 
L 157.727017 384.48 
z
" style="fill:#008000;opacity:0.04;"/>
   </g>
   <g id="patch_7">
    <path clip-path="url(#p77ac016b64)" d="M 164.157234 384.48 
L 164.157234 51.84 
L 170.587452 51.84 
L 170.587452 384.48 
z
" style="fill:#008000;opacity:0.04;"/>
   </g>
   <g id="patch_8">
    <path clip-path="url(#p77ac016b64)" d="M 164.157234 384.48 
L 164.157234 371.1744 
L 170.587452 371.1744 
L 170.587452 384.48 
z
" style="fill:#ffe500;"/>
   </g>
   <g id="patch_9">
    <path clip-path="url(#p77ac016b64)" d="M 177.01767 384.48 
L 177.01767 51.84 
L 183.447887 51.84 
L 183.447887 384.48 
z
" style="fill:#008000;opacity:0.04;"/>
   </g>
   <g id="patch_10">
    <path clip-path="url(#p77ac016b64)" d="M 414.935723 384.48 
L 414.935723 371.1744 
L 421.365941 371.1744 
L 421.365941 384.48 
z
" style="fill:#ff6600;"/>
   </g>
   <g id="patch_11">
    <path clip-path="url(#p77ac016b64)" d="M 189.878105 384.48 
L 189.878105 51.84 
L 196.308323 51.84 
L 196.308323 384.48 
z
" style="fill:#008000;opacity:0.04;"/>
   </g>
   <g id="patch_12">
    <path clip-path="url(#p77ac016b64)" d="M 202.73854 384.48 
L 202.73854 51.84 
L 209.168758 51.84 
L 209.168758 384.48 
z
" style="fill:#008000;opacity:0.04;"/>
   </g>
   <g id="patch_13">
    <path clip-path="url(#p77ac016b64)" d="M 215.598976 384.48 
L 215.598976 51.84 
L 222.029193 51.84 
L 222.029193 384.48 
z
" style="fill:#008000;opacity:0.04;"/>
   </g>
   <g id="patch_14">
    <path clip-path="url(#p77ac016b64)" d="M 228.459411 384.48 
L 228.459411 51.84 
L 234.889629 51.84 
L 234.889629 384.48 
z
" style="fill:#008000;opacity:0.04;"/>
   </g>
   <g id="patch_15">
    <path clip-path="url(#p77ac016b64)" d="M 241.319846 384.48 
L 241.319846 51.84 
L 247.750064 51.84 
L 247.750064 384.48 
z
" style="fill:#008000;opacity:0.04;"/>
   </g>
   <g id="patch_16">
    <path clip-path="url(#p77ac016b64)" d="M 241.319846 384.48 
L 241.319846 371.1744 
L 247.750064 371.1744 
L 247.750064 384.48 
z
" style="fill:#ffe500;"/>
   </g>
   <g id="patch_17">
    <path clip-path="url(#p77ac016b64)" d="M 254.180282 384.48 
L 254.180282 51.84 
L 260.610499 51.84 
L 260.610499 384.48 
z
" style="fill:#008000;opacity:0.04;"/>
   </g>
   <g id="patch_18">
    <path clip-path="url(#p77ac016b64)" d="M 267.040717 384.48 
L 267.040717 51.84 
L 273.470935 51.84 
L 273.470935 384.48 
z
" style="fill:#008000;opacity:0.04;"/>
   </g>
   <g id="patch_19">
    <path clip-path="url(#p77ac016b64)" d="M 279.901152 384.48 
L 279.901152 51.84 
L 286.33137 51.84 
L 286.33137 384.48 
z
" style="fill:#008000;opacity:0.04;"/>
   </g>
   <g id="patch_20">
    <path clip-path="url(#p77ac016b64)" d="M 279.901152 384.48 
L 279.901152 371.1744 
L 286.33137 371.1744 
L 286.33137 384.48 
z
" style="fill:#ffe500;"/>
   </g>
   <g id="patch_21">
    <path clip-path="url(#p77ac016b64)" d="M 517.819206 384.48 
L 517.819206 371.1744 
L 524.249424 371.1744 
L 524.249424 384.48 
z
" style="fill:#ff6600;"/>
   </g>
   <g id="patch_22">
    <path clip-path="url(#p77ac016b64)" d="M 292.761588 384.48 
L 292.761588 51.84 
L 299.191805 51.84 
L 299.191805 384.48 
z
" style="fill:#008000;opacity:0.04;"/>
   </g>
   <g id="patch_23">
    <path clip-path="url(#p77ac016b64)" d="M 305.622023 384.48 
L 305.622023 51.84 
L 312.052241 51.84 
L 312.052241 384.48 
z
" style="fill:#008000;opacity:0.04;"/>
   </g>
   <g id="patch_24">
    <path clip-path="url(#p77ac016b64)" d="M 318.482458 384.48 
L 318.482458 51.84 
L 324.912676 51.84 
L 324.912676 384.48 
z
" style="fill:#008000;opacity:0.04;"/>
   </g>
   <g id="patch_25">
    <path clip-path="url(#p77ac016b64)" d="M 331.342894 384.48 
L 331.342894 51.84 
L 337.773111 51.84 
L 337.773111 384.48 
z
" style="fill:#008000;opacity:0.04;"/>
   </g>
   <g id="patch_26">
    <path clip-path="url(#p77ac016b64)" d="M 344.203329 384.48 
L 344.203329 51.84 
L 350.633547 51.84 
L 350.633547 384.48 
z
" style="fill:#008000;opacity:0.04;"/>
   </g>
   <g id="patch_27">
    <path clip-path="url(#p77ac016b64)" d="M 357.063764 384.48 
L 357.063764 51.84 
L 363.493982 51.84 
L 363.493982 384.48 
z
" style="fill:#008000;opacity:0.04;"/>
   </g>
   <g id="patch_28">
    <path clip-path="url(#p77ac016b64)" d="M 369.9242 384.48 
L 369.9242 51.84 
L 376.354417 51.84 
L 376.354417 384.48 
z
" style="fill:#008000;opacity:0.04;"/>
   </g>
   <g id="patch_29">
    <path clip-path="url(#p77ac016b64)" d="M 382.784635 384.48 
L 382.784635 51.84 
L 389.214853 51.84 
L 389.214853 384.48 
z
" style="fill:#008000;opacity:0.04;"/>
   </g>
   <g id="patch_30">
    <path clip-path="url(#p77ac016b64)" d="M 395.64507 384.48 
L 395.64507 51.84 
L 402.075288 51.84 
L 402.075288 384.48 
z
" style="fill:#008000;opacity:0.04;"/>
   </g>
   <g id="patch_31">
    <path clip-path="url(#p77ac016b64)" d="M 408.505506 384.48 
L 408.505506 51.84 
L 414.935723 51.84 
L 414.935723 384.48 
z
" style="fill:#008000;opacity:0.04;"/>
   </g>
   <g id="patch_32">
    <path clip-path="url(#p77ac016b64)" d="M 414.935723 371.1744 
L 414.935723 51.84 
L 421.365941 51.84 
L 421.365941 371.1744 
z
" style="fill:#008000;opacity:0.5;"/>
   </g>
   <g id="patch_33">
    <path clip-path="url(#p77ac016b64)" d="M 421.365941 384.48 
L 421.365941 51.84 
L 427.796159 51.84 
L 427.796159 384.48 
z
" style="fill:#008000;opacity:0.04;"/>
   </g>
   <g id="patch_34">
    <path clip-path="url(#p77ac016b64)" d="M 434.226376 384.48 
L 434.226376 51.84 
L 440.656594 51.84 
L 440.656594 384.48 
z
" style="fill:#008000;opacity:0.04;"/>
   </g>
   <g id="patch_35">
    <path clip-path="url(#p77ac016b64)" d="M 447.086812 384.48 
L 447.086812 51.84 
L 453.517029 51.84 
L 453.517029 384.48 
z
" style="fill:#008000;opacity:0.04;"/>
   </g>
   <g id="patch_36">
    <path clip-path="url(#p77ac016b64)" d="M 459.947247 384.48 
L 459.947247 51.84 
L 466.377465 51.84 
L 466.377465 384.48 
z
" style="fill:#008000;opacity:0.04;"/>
   </g>
   <g id="patch_37">
    <path clip-path="url(#p77ac016b64)" d="M 472.807682 384.48 
L 472.807682 51.84 
L 479.2379 51.84 
L 479.2379 384.48 
z
" style="fill:#008000;opacity:0.04;"/>
   </g>
   <g id="patch_38">
    <path clip-path="url(#p77ac016b64)" d="M 485.668118 384.48 
L 485.668118 51.84 
L 492.098335 51.84 
L 492.098335 384.48 
z
" style="fill:#008000;opacity:0.04;"/>
   </g>
   <g id="patch_39">
    <path clip-path="url(#p77ac016b64)" d="M 498.528553 384.48 
L 498.528553 51.84 
L 504.958771 51.84 
L 504.958771 384.48 
z
" style="fill:#008000;opacity:0.04;"/>
   </g>
   <g id="patch_40">
    <path clip-path="url(#p77ac016b64)" d="M 511.388988 384.48 
L 511.388988 51.84 
L 517.819206 51.84 
L 517.819206 384.48 
z
" style="fill:#008000;opacity:0.04;"/>
   </g>
   <g id="patch_41">
    <path clip-path="url(#p77ac016b64)" d="M 517.819206 371.1744 
L 517.819206 51.84 
L 524.249424 51.84 
L 524.249424 371.1744 
z
" style="fill:#008000;opacity:0.5;"/>
   </g>
   <g id="patch_42">
    <path clip-path="url(#p77ac016b64)" d="M 524.249424 384.48 
L 524.249424 51.84 
L 530.679641 51.84 
L 530.679641 384.48 
z
" style="fill:#008000;opacity:0.04;"/>
   </g>
   <g id="patch_43">
    <path clip-path="url(#p77ac016b64)" d="M 537.109859 384.48 
L 537.109859 51.84 
L 543.540077 51.84 
L 543.540077 384.48 
z
" style="fill:#008000;opacity:0.04;"/>
   </g>
   <g id="patch_44">
    <path clip-path="url(#p77ac016b64)" d="M 549.970294 384.48 
L 549.970294 51.84 
L 556.400512 51.84 
L 556.400512 384.48 
z
" style="fill:#008000;opacity:0.04;"/>
   </g>
   <g id="patch_45">
    <path clip-path="url(#p77ac016b64)" d="M 562.83073 384.48 
L 562.83073 51.84 
L 569.260948 51.84 
L 569.260948 384.48 
z
" style="fill:#008000;opacity:0.04;"/>
   </g>
   <g id="patch_46">
    <path clip-path="url(#p77ac016b64)" d="M 575.691165 384.48 
L 575.691165 51.84 
L 582.121383 51.84 
L 582.121383 384.48 
z
" style="fill:#008000;opacity:0.04;"/>
   </g>
   <g id="patch_47">
    <path clip-path="url(#p77ac016b64)" d="M 588.551601 384.48 
L 588.551601 51.84 
L 594.981818 51.84 
L 594.981818 384.48 
z
" style="fill:#008000;opacity:0.04;"/>
   </g>
   <g id="patch_48">
    <path clip-path="url(#p77ac016b64)" d="M 601.412036 384.48 
L 601.412036 51.84 
L 607.842254 51.84 
L 607.842254 384.48 
z
" style="fill:#008000;opacity:0.04;"/>
   </g>
   <g id="patch_49">
    <path clip-path="url(#p77ac016b64)" d="M 614.272471 384.48 
L 614.272471 51.84 
L 620.702689 51.84 
L 620.702689 384.48 
z
" style="fill:#008000;opacity:0.04;"/>
   </g>
   <g id="patch_50">
    <path clip-path="url(#p77ac016b64)" d="M 627.132907 384.48 
L 627.132907 51.84 
L 633.563124 51.84 
L 633.563124 384.48 
z
" style="fill:#008000;opacity:0.04;"/>
   </g>
   <g id="patch_51">
    <path clip-path="url(#p77ac016b64)" d="M 639.993342 384.48 
L 639.993342 51.84 
L 646.42356 51.84 
L 646.42356 384.48 
z
" style="fill:#008000;opacity:0.04;"/>
   </g>
   <g id="patch_52">
    <path clip-path="url(#p77ac016b64)" d="M 652.853777 384.48 
L 652.853777 51.84 
L 659.283995 51.84 
L 659.283995 384.48 
z
" style="fill:#008000;opacity:0.04;"/>
   </g>
   <g id="patch_53">
    <path clip-path="url(#p77ac016b64)" d="M 665.714213 384.48 
L 665.714213 51.84 
L 672.14443 51.84 
L 672.14443 384.48 
z
" style="fill:#008000;opacity:0.04;"/>
   </g>
   <g id="patch_54">
    <path clip-path="url(#p77ac016b64)" d="M 678.574648 384.48 
L 678.574648 51.84 
L 685.004866 51.84 
L 685.004866 384.48 
z
" style="fill:#008000;opacity:0.04;"/>
   </g>
   <g id="patch_55">
    <path clip-path="url(#p77ac016b64)" d="M 691.435083 384.48 
L 691.435083 51.84 
L 697.865301 51.84 
L 697.865301 384.48 
z
" style="fill:#008000;opacity:0.04;"/>
   </g>
   <g id="patch_56">
    <path clip-path="url(#p77ac016b64)" d="M 704.295519 384.48 
L 704.295519 51.84 
L 710.725736 51.84 
L 710.725736 384.48 
z
" style="fill:#008000;opacity:0.04;"/>
   </g>
   <g id="patch_57">
    <path clip-path="url(#p77ac016b64)" d="M 717.155954 384.48 
L 717.155954 51.84 
L 723.586172 51.84 
L 723.586172 384.48 
z
" style="fill:#008000;opacity:0.04;"/>
   </g>
   <g id="patch_58">
    <path clip-path="url(#p77ac016b64)" d="M 730.016389 384.48 
L 730.016389 51.84 
L 736.446607 51.84 
L 736.446607 384.48 
z
" style="fill:#008000;opacity:0.04;"/>
   </g>
   <g id="matplotlib.axis_1">
    <g id="xtick_1">
     <g id="line2d_1">
      <defs>
       <path d="M 0 0 
L 0 3.5 
" id="m5d7e89b782" style="stroke:#000000;stroke-width:0.8;"/>
      </defs>
      <g>
       <use style="stroke:#000000;stroke-width:0.8;" x="138.436364" xlink:href="#m5d7e89b782" y="384.48"/>
      </g>
     </g>
     <g id="text_1">
      <!-- 0 -->
      <defs>
       <path d="M 31.78125 66.40625 
Q 24.171875 66.40625 20.328125 58.90625 
Q 16.5 51.421875 16.5 36.375 
Q 16.5 21.390625 20.328125 13.890625 
Q 24.171875 6.390625 31.78125 6.390625 
Q 39.453125 6.390625 43.28125 13.890625 
Q 47.125 21.390625 47.125 36.375 
Q 47.125 51.421875 43.28125 58.90625 
Q 39.453125 66.40625 31.78125 66.40625 
z
M 31.78125 74.21875 
Q 44.046875 74.21875 50.515625 64.515625 
Q 56.984375 54.828125 56.984375 36.375 
Q 56.984375 17.96875 50.515625 8.265625 
Q 44.046875 -1.421875 31.78125 -1.421875 
Q 19.53125 -1.421875 13.0625 8.265625 
Q 6.59375 17.96875 6.59375 36.375 
Q 6.59375 54.828125 13.0625 64.515625 
Q 19.53125 74.21875 31.78125 74.21875 
z
" id="DejaVuSans-48"/>
      </defs>
      <g transform="translate(135.255114 399.078438)scale(0.1 -0.1)">
       <use xlink:href="#DejaVuSans-48"/>
      </g>
     </g>
    </g>
    <g id="xtick_2">
     <g id="line2d_2">
      <g>
       <use style="stroke:#000000;stroke-width:0.8;" x="224.172599" xlink:href="#m5d7e89b782" y="384.48"/>
      </g>
     </g>
     <g id="text_2">
      <!-- 200 -->
      <defs>
       <path d="M 19.1875 8.296875 
L 53.609375 8.296875 
L 53.609375 0 
L 7.328125 0 
L 7.328125 8.296875 
Q 12.9375 14.109375 22.625 23.890625 
Q 32.328125 33.6875 34.8125 36.53125 
Q 39.546875 41.84375 41.421875 45.53125 
Q 43.3125 49.21875 43.3125 52.78125 
Q 43.3125 58.59375 39.234375 62.25 
Q 35.15625 65.921875 28.609375 65.921875 
Q 23.96875 65.921875 18.8125 64.3125 
Q 13.671875 62.703125 7.8125 59.421875 
L 7.8125 69.390625 
Q 13.765625 71.78125 18.9375 73 
Q 24.125 74.21875 28.421875 74.21875 
Q 39.75 74.21875 46.484375 68.546875 
Q 53.21875 62.890625 53.21875 53.421875 
Q 53.21875 48.921875 51.53125 44.890625 
Q 49.859375 40.875 45.40625 35.40625 
Q 44.1875 33.984375 37.640625 27.21875 
Q 31.109375 20.453125 19.1875 8.296875 
z
" id="DejaVuSans-50"/>
      </defs>
      <g transform="translate(214.628849 399.078438)scale(0.1 -0.1)">
       <use xlink:href="#DejaVuSans-50"/>
       <use x="63.623047" xlink:href="#DejaVuSans-48"/>
       <use x="127.246094" xlink:href="#DejaVuSans-48"/>
      </g>
     </g>
    </g>
    <g id="xtick_3">
     <g id="line2d_3">
      <g>
       <use style="stroke:#000000;stroke-width:0.8;" x="309.908835" xlink:href="#m5d7e89b782" y="384.48"/>
      </g>
     </g>
     <g id="text_3">
      <!-- 400 -->
      <defs>
       <path d="M 37.796875 64.3125 
L 12.890625 25.390625 
L 37.796875 25.390625 
z
M 35.203125 72.90625 
L 47.609375 72.90625 
L 47.609375 25.390625 
L 58.015625 25.390625 
L 58.015625 17.1875 
L 47.609375 17.1875 
L 47.609375 0 
L 37.796875 0 
L 37.796875 17.1875 
L 4.890625 17.1875 
L 4.890625 26.703125 
z
" id="DejaVuSans-52"/>
      </defs>
      <g transform="translate(300.365085 399.078438)scale(0.1 -0.1)">
       <use xlink:href="#DejaVuSans-52"/>
       <use x="63.623047" xlink:href="#DejaVuSans-48"/>
       <use x="127.246094" xlink:href="#DejaVuSans-48"/>
      </g>
     </g>
    </g>
    <g id="xtick_4">
     <g id="line2d_4">
      <g>
       <use style="stroke:#000000;stroke-width:0.8;" x="395.64507" xlink:href="#m5d7e89b782" y="384.48"/>
      </g>
     </g>
     <g id="text_4">
      <!-- 600 -->
      <defs>
       <path d="M 33.015625 40.375 
Q 26.375 40.375 22.484375 35.828125 
Q 18.609375 31.296875 18.609375 23.390625 
Q 18.609375 15.53125 22.484375 10.953125 
Q 26.375 6.390625 33.015625 6.390625 
Q 39.65625 6.390625 43.53125 10.953125 
Q 47.40625 15.53125 47.40625 23.390625 
Q 47.40625 31.296875 43.53125 35.828125 
Q 39.65625 40.375 33.015625 40.375 
z
M 52.59375 71.296875 
L 52.59375 62.3125 
Q 48.875 64.0625 45.09375 64.984375 
Q 41.3125 65.921875 37.59375 65.921875 
Q 27.828125 65.921875 22.671875 59.328125 
Q 17.53125 52.734375 16.796875 39.40625 
Q 19.671875 43.65625 24.015625 45.921875 
Q 28.375 48.1875 33.59375 48.1875 
Q 44.578125 48.1875 50.953125 41.515625 
Q 57.328125 34.859375 57.328125 23.390625 
Q 57.328125 12.15625 50.6875 5.359375 
Q 44.046875 -1.421875 33.015625 -1.421875 
Q 20.359375 -1.421875 13.671875 8.265625 
Q 6.984375 17.96875 6.984375 36.375 
Q 6.984375 53.65625 15.1875 63.9375 
Q 23.390625 74.21875 37.203125 74.21875 
Q 40.921875 74.21875 44.703125 73.484375 
Q 48.484375 72.75 52.59375 71.296875 
z
" id="DejaVuSans-54"/>
      </defs>
      <g transform="translate(386.10132 399.078438)scale(0.1 -0.1)">
       <use xlink:href="#DejaVuSans-54"/>
       <use x="63.623047" xlink:href="#DejaVuSans-48"/>
       <use x="127.246094" xlink:href="#DejaVuSans-48"/>
      </g>
     </g>
    </g>
    <g id="xtick_5">
     <g id="line2d_5">
      <g>
       <use style="stroke:#000000;stroke-width:0.8;" x="481.381306" xlink:href="#m5d7e89b782" y="384.48"/>
      </g>
     </g>
     <g id="text_5">
      <!-- 800 -->
      <defs>
       <path d="M 31.78125 34.625 
Q 24.75 34.625 20.71875 30.859375 
Q 16.703125 27.09375 16.703125 20.515625 
Q 16.703125 13.921875 20.71875 10.15625 
Q 24.75 6.390625 31.78125 6.390625 
Q 38.8125 6.390625 42.859375 10.171875 
Q 46.921875 13.96875 46.921875 20.515625 
Q 46.921875 27.09375 42.890625 30.859375 
Q 38.875 34.625 31.78125 34.625 
z
M 21.921875 38.8125 
Q 15.578125 40.375 12.03125 44.71875 
Q 8.5 49.078125 8.5 55.328125 
Q 8.5 64.0625 14.71875 69.140625 
Q 20.953125 74.21875 31.78125 74.21875 
Q 42.671875 74.21875 48.875 69.140625 
Q 55.078125 64.0625 55.078125 55.328125 
Q 55.078125 49.078125 51.53125 44.71875 
Q 48 40.375 41.703125 38.8125 
Q 48.828125 37.15625 52.796875 32.3125 
Q 56.78125 27.484375 56.78125 20.515625 
Q 56.78125 9.90625 50.3125 4.234375 
Q 43.84375 -1.421875 31.78125 -1.421875 
Q 19.734375 -1.421875 13.25 4.234375 
Q 6.78125 9.90625 6.78125 20.515625 
Q 6.78125 27.484375 10.78125 32.3125 
Q 14.796875 37.15625 21.921875 38.8125 
z
M 18.3125 54.390625 
Q 18.3125 48.734375 21.84375 45.5625 
Q 25.390625 42.390625 31.78125 42.390625 
Q 38.140625 42.390625 41.71875 45.5625 
Q 45.3125 48.734375 45.3125 54.390625 
Q 45.3125 60.0625 41.71875 63.234375 
Q 38.140625 66.40625 31.78125 66.40625 
Q 25.390625 66.40625 21.84375 63.234375 
Q 18.3125 60.0625 18.3125 54.390625 
z
" id="DejaVuSans-56"/>
      </defs>
      <g transform="translate(471.837556 399.078438)scale(0.1 -0.1)">
       <use xlink:href="#DejaVuSans-56"/>
       <use x="63.623047" xlink:href="#DejaVuSans-48"/>
       <use x="127.246094" xlink:href="#DejaVuSans-48"/>
      </g>
     </g>
    </g>
    <g id="xtick_6">
     <g id="line2d_6">
      <g>
       <use style="stroke:#000000;stroke-width:0.8;" x="567.117542" xlink:href="#m5d7e89b782" y="384.48"/>
      </g>
     </g>
     <g id="text_6">
      <!-- 1000 -->
      <defs>
       <path d="M 12.40625 8.296875 
L 28.515625 8.296875 
L 28.515625 63.921875 
L 10.984375 60.40625 
L 10.984375 69.390625 
L 28.421875 72.90625 
L 38.28125 72.90625 
L 38.28125 8.296875 
L 54.390625 8.296875 
L 54.390625 0 
L 12.40625 0 
z
" id="DejaVuSans-49"/>
      </defs>
      <g transform="translate(554.392542 399.078438)scale(0.1 -0.1)">
       <use xlink:href="#DejaVuSans-49"/>
       <use x="63.623047" xlink:href="#DejaVuSans-48"/>
       <use x="127.246094" xlink:href="#DejaVuSans-48"/>
       <use x="190.869141" xlink:href="#DejaVuSans-48"/>
      </g>
     </g>
    </g>
    <g id="xtick_7">
     <g id="line2d_7">
      <g>
       <use style="stroke:#000000;stroke-width:0.8;" x="652.853777" xlink:href="#m5d7e89b782" y="384.48"/>
      </g>
     </g>
     <g id="text_7">
      <!-- 1200 -->
      <g transform="translate(640.128777 399.078438)scale(0.1 -0.1)">
       <use xlink:href="#DejaVuSans-49"/>
       <use x="63.623047" xlink:href="#DejaVuSans-50"/>
       <use x="127.246094" xlink:href="#DejaVuSans-48"/>
       <use x="190.869141" xlink:href="#DejaVuSans-48"/>
      </g>
     </g>
    </g>
    <g id="xtick_8">
     <g id="line2d_8">
      <g>
       <use style="stroke:#000000;stroke-width:0.8;" x="738.590013" xlink:href="#m5d7e89b782" y="384.48"/>
      </g>
     </g>
     <g id="text_8">
      <!-- 1400 -->
      <g transform="translate(725.865013 399.078438)scale(0.1 -0.1)">
       <use xlink:href="#DejaVuSans-49"/>
       <use x="63.623047" xlink:href="#DejaVuSans-52"/>
       <use x="127.246094" xlink:href="#DejaVuSans-48"/>
       <use x="190.869141" xlink:href="#DejaVuSans-48"/>
      </g>
     </g>
    </g>
    <g id="text_9">
     <!-- Timestamp -->
     <defs>
      <path d="M -0.296875 72.90625 
L 61.375 72.90625 
L 61.375 64.59375 
L 35.5 64.59375 
L 35.5 0 
L 25.59375 0 
L 25.59375 64.59375 
L -0.296875 64.59375 
z
" id="DejaVuSans-84"/>
      <path d="M 9.421875 54.6875 
L 18.40625 54.6875 
L 18.40625 0 
L 9.421875 0 
z
M 9.421875 75.984375 
L 18.40625 75.984375 
L 18.40625 64.59375 
L 9.421875 64.59375 
z
" id="DejaVuSans-105"/>
      <path d="M 52 44.1875 
Q 55.375 50.25 60.0625 53.125 
Q 64.75 56 71.09375 56 
Q 79.640625 56 84.28125 50.015625 
Q 88.921875 44.046875 88.921875 33.015625 
L 88.921875 0 
L 79.890625 0 
L 79.890625 32.71875 
Q 79.890625 40.578125 77.09375 44.375 
Q 74.3125 48.1875 68.609375 48.1875 
Q 61.625 48.1875 57.5625 43.546875 
Q 53.515625 38.921875 53.515625 30.90625 
L 53.515625 0 
L 44.484375 0 
L 44.484375 32.71875 
Q 44.484375 40.625 41.703125 44.40625 
Q 38.921875 48.1875 33.109375 48.1875 
Q 26.21875 48.1875 22.15625 43.53125 
Q 18.109375 38.875 18.109375 30.90625 
L 18.109375 0 
L 9.078125 0 
L 9.078125 54.6875 
L 18.109375 54.6875 
L 18.109375 46.1875 
Q 21.1875 51.21875 25.484375 53.609375 
Q 29.78125 56 35.6875 56 
Q 41.65625 56 45.828125 52.96875 
Q 50 49.953125 52 44.1875 
z
" id="DejaVuSans-109"/>
      <path d="M 56.203125 29.59375 
L 56.203125 25.203125 
L 14.890625 25.203125 
Q 15.484375 15.921875 20.484375 11.0625 
Q 25.484375 6.203125 34.421875 6.203125 
Q 39.59375 6.203125 44.453125 7.46875 
Q 49.3125 8.734375 54.109375 11.28125 
L 54.109375 2.78125 
Q 49.265625 0.734375 44.1875 -0.34375 
Q 39.109375 -1.421875 33.890625 -1.421875 
Q 20.796875 -1.421875 13.15625 6.1875 
Q 5.515625 13.8125 5.515625 26.8125 
Q 5.515625 40.234375 12.765625 48.109375 
Q 20.015625 56 32.328125 56 
Q 43.359375 56 49.78125 48.890625 
Q 56.203125 41.796875 56.203125 29.59375 
z
M 47.21875 32.234375 
Q 47.125 39.59375 43.09375 43.984375 
Q 39.0625 48.390625 32.421875 48.390625 
Q 24.90625 48.390625 20.390625 44.140625 
Q 15.875 39.890625 15.1875 32.171875 
z
" id="DejaVuSans-101"/>
      <path d="M 44.28125 53.078125 
L 44.28125 44.578125 
Q 40.484375 46.53125 36.375 47.5 
Q 32.28125 48.484375 27.875 48.484375 
Q 21.1875 48.484375 17.84375 46.4375 
Q 14.5 44.390625 14.5 40.28125 
Q 14.5 37.15625 16.890625 35.375 
Q 19.28125 33.59375 26.515625 31.984375 
L 29.59375 31.296875 
Q 39.15625 29.25 43.1875 25.515625 
Q 47.21875 21.78125 47.21875 15.09375 
Q 47.21875 7.46875 41.1875 3.015625 
Q 35.15625 -1.421875 24.609375 -1.421875 
Q 20.21875 -1.421875 15.453125 -0.5625 
Q 10.6875 0.296875 5.421875 2 
L 5.421875 11.28125 
Q 10.40625 8.6875 15.234375 7.390625 
Q 20.0625 6.109375 24.8125 6.109375 
Q 31.15625 6.109375 34.5625 8.28125 
Q 37.984375 10.453125 37.984375 14.40625 
Q 37.984375 18.0625 35.515625 20.015625 
Q 33.0625 21.96875 24.703125 23.78125 
L 21.578125 24.515625 
Q 13.234375 26.265625 9.515625 29.90625 
Q 5.8125 33.546875 5.8125 39.890625 
Q 5.8125 47.609375 11.28125 51.796875 
Q 16.75 56 26.8125 56 
Q 31.78125 56 36.171875 55.265625 
Q 40.578125 54.546875 44.28125 53.078125 
z
" id="DejaVuSans-115"/>
      <path d="M 18.3125 70.21875 
L 18.3125 54.6875 
L 36.8125 54.6875 
L 36.8125 47.703125 
L 18.3125 47.703125 
L 18.3125 18.015625 
Q 18.3125 11.328125 20.140625 9.421875 
Q 21.96875 7.515625 27.59375 7.515625 
L 36.8125 7.515625 
L 36.8125 0 
L 27.59375 0 
Q 17.1875 0 13.234375 3.875 
Q 9.28125 7.765625 9.28125 18.015625 
L 9.28125 47.703125 
L 2.6875 47.703125 
L 2.6875 54.6875 
L 9.28125 54.6875 
L 9.28125 70.21875 
z
" id="DejaVuSans-116"/>
      <path d="M 34.28125 27.484375 
Q 23.390625 27.484375 19.1875 25 
Q 14.984375 22.515625 14.984375 16.5 
Q 14.984375 11.71875 18.140625 8.90625 
Q 21.296875 6.109375 26.703125 6.109375 
Q 34.1875 6.109375 38.703125 11.40625 
Q 43.21875 16.703125 43.21875 25.484375 
L 43.21875 27.484375 
z
M 52.203125 31.203125 
L 52.203125 0 
L 43.21875 0 
L 43.21875 8.296875 
Q 40.140625 3.328125 35.546875 0.953125 
Q 30.953125 -1.421875 24.3125 -1.421875 
Q 15.921875 -1.421875 10.953125 3.296875 
Q 6 8.015625 6 15.921875 
Q 6 25.140625 12.171875 29.828125 
Q 18.359375 34.515625 30.609375 34.515625 
L 43.21875 34.515625 
L 43.21875 35.40625 
Q 43.21875 41.609375 39.140625 45 
Q 35.0625 48.390625 27.6875 48.390625 
Q 23 48.390625 18.546875 47.265625 
Q 14.109375 46.140625 10.015625 43.890625 
L 10.015625 52.203125 
Q 14.9375 54.109375 19.578125 55.046875 
Q 24.21875 56 28.609375 56 
Q 40.484375 56 46.34375 49.84375 
Q 52.203125 43.703125 52.203125 31.203125 
z
" id="DejaVuSans-97"/>
      <path d="M 18.109375 8.203125 
L 18.109375 -20.796875 
L 9.078125 -20.796875 
L 9.078125 54.6875 
L 18.109375 54.6875 
L 18.109375 46.390625 
Q 20.953125 51.265625 25.265625 53.625 
Q 29.59375 56 35.59375 56 
Q 45.5625 56 51.78125 48.09375 
Q 58.015625 40.1875 58.015625 27.296875 
Q 58.015625 14.40625 51.78125 6.484375 
Q 45.5625 -1.421875 35.59375 -1.421875 
Q 29.59375 -1.421875 25.265625 0.953125 
Q 20.953125 3.328125 18.109375 8.203125 
z
M 48.6875 27.296875 
Q 48.6875 37.203125 44.609375 42.84375 
Q 40.53125 48.484375 33.40625 48.484375 
Q 26.265625 48.484375 22.1875 42.84375 
Q 18.109375 37.203125 18.109375 27.296875 
Q 18.109375 17.390625 22.1875 11.75 
Q 26.265625 6.109375 33.40625 6.109375 
Q 40.53125 6.109375 44.609375 11.75 
Q 48.6875 17.390625 48.6875 27.296875 
z
" id="DejaVuSans-112"/>
     </defs>
     <g transform="translate(414.739062 412.756563)scale(0.1 -0.1)">
      <use xlink:href="#DejaVuSans-84"/>
      <use x="61.037109" xlink:href="#DejaVuSans-105"/>
      <use x="88.820312" xlink:href="#DejaVuSans-109"/>
      <use x="186.232422" xlink:href="#DejaVuSans-101"/>
      <use x="247.755859" xlink:href="#DejaVuSans-115"/>
      <use x="299.855469" xlink:href="#DejaVuSans-116"/>
      <use x="339.064453" xlink:href="#DejaVuSans-97"/>
      <use x="400.34375" xlink:href="#DejaVuSans-109"/>
      <use x="497.755859" xlink:href="#DejaVuSans-112"/>
     </g>
    </g>
   </g>
   <g id="matplotlib.axis_2">
    <g id="ytick_1">
     <g id="line2d_9">
      <defs>
       <path d="M 0 0 
L -3.5 0 
" id="m1adb430eb4" style="stroke:#000000;stroke-width:0.8;"/>
      </defs>
      <g>
       <use style="stroke:#000000;stroke-width:0.8;" x="108" xlink:href="#m1adb430eb4" y="342.294651"/>
      </g>
     </g>
     <g id="text_10">
      <!-- 0 -->
      <g transform="translate(94.6375 346.09387)scale(0.1 -0.1)">
       <use xlink:href="#DejaVuSans-48"/>
      </g>
     </g>
    </g>
    <g id="ytick_2">
     <g id="line2d_10">
      <g>
       <use style="stroke:#000000;stroke-width:0.8;" x="108" xlink:href="#m1adb430eb4" y="298.352112"/>
      </g>
     </g>
     <g id="text_11">
      <!-- 2000 -->
      <g transform="translate(75.55 302.151331)scale(0.1 -0.1)">
       <use xlink:href="#DejaVuSans-50"/>
       <use x="63.623047" xlink:href="#DejaVuSans-48"/>
       <use x="127.246094" xlink:href="#DejaVuSans-48"/>
       <use x="190.869141" xlink:href="#DejaVuSans-48"/>
      </g>
     </g>
    </g>
    <g id="ytick_3">
     <g id="line2d_11">
      <g>
       <use style="stroke:#000000;stroke-width:0.8;" x="108" xlink:href="#m1adb430eb4" y="254.409574"/>
      </g>
     </g>
     <g id="text_12">
      <!-- 4000 -->
      <g transform="translate(75.55 258.208792)scale(0.1 -0.1)">
       <use xlink:href="#DejaVuSans-52"/>
       <use x="63.623047" xlink:href="#DejaVuSans-48"/>
       <use x="127.246094" xlink:href="#DejaVuSans-48"/>
       <use x="190.869141" xlink:href="#DejaVuSans-48"/>
      </g>
     </g>
    </g>
    <g id="ytick_4">
     <g id="line2d_12">
      <g>
       <use style="stroke:#000000;stroke-width:0.8;" x="108" xlink:href="#m1adb430eb4" y="210.467035"/>
      </g>
     </g>
     <g id="text_13">
      <!-- 6000 -->
      <g transform="translate(75.55 214.266254)scale(0.1 -0.1)">
       <use xlink:href="#DejaVuSans-54"/>
       <use x="63.623047" xlink:href="#DejaVuSans-48"/>
       <use x="127.246094" xlink:href="#DejaVuSans-48"/>
       <use x="190.869141" xlink:href="#DejaVuSans-48"/>
      </g>
     </g>
    </g>
    <g id="ytick_5">
     <g id="line2d_13">
      <g>
       <use style="stroke:#000000;stroke-width:0.8;" x="108" xlink:href="#m1adb430eb4" y="166.524496"/>
      </g>
     </g>
     <g id="text_14">
      <!-- 8000 -->
      <g transform="translate(75.55 170.323715)scale(0.1 -0.1)">
       <use xlink:href="#DejaVuSans-56"/>
       <use x="63.623047" xlink:href="#DejaVuSans-48"/>
       <use x="127.246094" xlink:href="#DejaVuSans-48"/>
       <use x="190.869141" xlink:href="#DejaVuSans-48"/>
      </g>
     </g>
    </g>
    <g id="ytick_6">
     <g id="line2d_14">
      <g>
       <use style="stroke:#000000;stroke-width:0.8;" x="108" xlink:href="#m1adb430eb4" y="122.581957"/>
      </g>
     </g>
     <g id="text_15">
      <!-- 10000 -->
      <g transform="translate(69.1875 126.381176)scale(0.1 -0.1)">
       <use xlink:href="#DejaVuSans-49"/>
       <use x="63.623047" xlink:href="#DejaVuSans-48"/>
       <use x="127.246094" xlink:href="#DejaVuSans-48"/>
       <use x="190.869141" xlink:href="#DejaVuSans-48"/>
       <use x="254.492188" xlink:href="#DejaVuSans-48"/>
      </g>
     </g>
    </g>
    <g id="ytick_7">
     <g id="line2d_15">
      <g>
       <use style="stroke:#000000;stroke-width:0.8;" x="108" xlink:href="#m1adb430eb4" y="78.639419"/>
      </g>
     </g>
     <g id="text_16">
      <!-- 12000 -->
      <g transform="translate(69.1875 82.438637)scale(0.1 -0.1)">
       <use xlink:href="#DejaVuSans-49"/>
       <use x="63.623047" xlink:href="#DejaVuSans-50"/>
       <use x="127.246094" xlink:href="#DejaVuSans-48"/>
       <use x="190.869141" xlink:href="#DejaVuSans-48"/>
       <use x="254.492188" xlink:href="#DejaVuSans-48"/>
      </g>
     </g>
    </g>
    <g id="text_17">
     <!-- Value -->
     <defs>
      <path d="M 28.609375 0 
L 0.78125 72.90625 
L 11.078125 72.90625 
L 34.1875 11.53125 
L 57.328125 72.90625 
L 67.578125 72.90625 
L 39.796875 0 
z
" id="DejaVuSans-86"/>
      <path d="M 9.421875 75.984375 
L 18.40625 75.984375 
L 18.40625 0 
L 9.421875 0 
z
" id="DejaVuSans-108"/>
      <path d="M 8.5 21.578125 
L 8.5 54.6875 
L 17.484375 54.6875 
L 17.484375 21.921875 
Q 17.484375 14.15625 20.5 10.265625 
Q 23.53125 6.390625 29.59375 6.390625 
Q 36.859375 6.390625 41.078125 11.03125 
Q 45.3125 15.671875 45.3125 23.6875 
L 45.3125 54.6875 
L 54.296875 54.6875 
L 54.296875 0 
L 45.3125 0 
L 45.3125 8.40625 
Q 42.046875 3.421875 37.71875 1 
Q 33.40625 -1.421875 27.6875 -1.421875 
Q 18.265625 -1.421875 13.375 4.4375 
Q 8.5 10.296875 8.5 21.578125 
z
M 31.109375 56 
z
" id="DejaVuSans-117"/>
     </defs>
     <g transform="translate(63.107813 232.273281)rotate(-90)scale(0.1 -0.1)">
      <use xlink:href="#DejaVuSans-86"/>
      <use x="68.298828" xlink:href="#DejaVuSans-97"/>
      <use x="129.578125" xlink:href="#DejaVuSans-108"/>
      <use x="157.361328" xlink:href="#DejaVuSans-117"/>
      <use x="220.740234" xlink:href="#DejaVuSans-101"/>
     </g>
    </g>
   </g>
   <g id="line2d_16">
    <path clip-path="url(#p77ac016b64)" d="M 138.436364 329.353191 
L 138.865045 343.871788 
L 139.293726 325.523427 
L 139.722407 324.53586 
L 140.151088 331.664753 
L 140.57977 349.915167 
L 141.437132 334.257046 
L 141.865813 329.837905 
L 142.294494 303.955052 
L 143.151857 333.551236 
L 143.580538 335.70348 
L 144.009219 325.667027 
L 144.4379 324.459519 
L 144.866581 324.330834 
L 145.295262 316.384539 
L 145.723944 326.794734 
L 146.152625 312.216336 
L 146.581306 328.08184 
L 147.009987 316.787802 
L 147.438668 309.716014 
L 147.86735 311.265317 
L 148.296031 303.604336 
L 148.724712 311.520309 
L 149.582074 298.508742 
L 150.010755 315.879423 
L 150.439437 321.330089 
L 150.868118 307.347176 
L 151.72548 312.517566 
L 152.154161 311.105337 
L 152.582843 313.05859 
L 153.011524 298.949317 
L 153.440205 294.539493 
L 153.868886 296.120387 
L 154.297567 310.549021 
L 154.726248 293.750618 
L 155.15493 309.282166 
L 155.583611 288.871468 
L 156.440973 311.901211 
L 157.298335 320.015626 
L 157.727017 319.524441 
L 158.155698 325.15973 
L 158.584379 298.251533 
L 159.01306 302.237764 
L 159.441741 313.719947 
L 159.870423 309.524301 
L 160.299104 316.886495 
L 160.727785 289.240318 
L 161.156466 322.96549 
L 161.585147 316.448629 
L 162.013828 314.381519 
L 162.44251 311.712183 
L 162.871191 320.815879 
L 163.299872 342.717398 
L 163.728553 334.144225 
L 164.157234 318.891114 
L 164.585915 323.838686 
L 165.014597 334.476727 
L 165.443278 327.361735 
L 165.871959 335.696771 
L 166.30064 326.253018 
L 166.729321 344.41407 
L 167.158003 327.550809 
L 167.586684 330.020875 
L 168.015365 333.154172 
L 168.444046 334.895647 
L 168.872727 333.75005 
L 169.301408 344.186736 
L 169.73009 340.063189 
L 170.158771 333.355952 
L 170.587452 330.138642 
L 171.016133 341.01881 
L 171.444814 344.82748 
L 171.873496 354.004621 
L 172.302177 360.428394 
L 172.730858 355.008402 
L 173.159539 335.263905 
L 173.58822 341.138031 
L 174.016901 352.133829 
L 174.445583 355.121244 
L 174.874264 355.924442 
L 175.302945 342.396742 
L 175.731626 356.052501 
L 176.160307 341.249522 
L 176.588988 348.07976 
L 177.01767 342.072067 
L 177.446351 364.623014 
L 177.875032 356.179897 
L 178.303713 365.61343 
L 178.732394 351.017187 
L 179.589757 360.456739 
L 180.018438 343.026372 
L 180.447119 355.564108 
L 180.8758 347.834566 
L 181.304481 349.987618 
L 181.733163 365.686982 
L 182.161844 363.904366 
L 182.590525 356.972946 
L 183.019206 368.607531 
L 183.447887 350.964159 
L 183.876569 369.36 
L 184.30525 339.440952 
L 184.733931 360.429077 
L 185.162612 337.748202 
L 185.591293 358.252876 
L 186.019974 363.188729 
L 186.448656 352.289759 
L 186.877337 351.41621 
L 187.306018 367.803285 
L 187.734699 339.147187 
L 188.16338 360.142142 
L 188.592061 344.332494 
L 189.020743 341.600338 
L 189.449424 344.046163 
L 189.878105 345.434678 
L 190.306786 340.972996 
L 190.735467 352.502866 
L 191.164149 348.478634 
L 191.59283 350.253139 
L 192.021511 321.563616 
L 192.450192 320.962432 
L 193.307554 345.67217 
L 194.164917 314.836426 
L 194.593598 333.422218 
L 195.022279 318.965302 
L 195.45096 335.345901 
L 195.879641 316.924356 
L 196.308323 332.010862 
L 196.737004 333.226886 
L 197.165685 328.867524 
L 197.594366 326.414821 
L 198.023047 325.267161 
L 198.451729 306.984534 
L 198.88041 312.263012 
L 199.309091 314.717908 
L 199.737772 320.945921 
L 200.166453 318.756799 
L 200.595134 314.795451 
L 201.023816 316.941138 
L 201.452497 308.752117 
L 201.881178 298.081967 
L 202.309859 313.501465 
L 202.73854 285.376796 
L 203.167222 312.317876 
L 203.595903 298.823028 
L 204.024584 272.700198 
L 204.881946 297.11949 
L 205.310627 302.343783 
L 205.739309 286.737845 
L 206.16799 291.885918 
L 206.596671 294.73395 
L 207.025352 286.954759 
L 207.454033 294.423551 
L 207.882714 261.903474 
L 208.740077 279.845273 
L 209.168758 280.068268 
L 209.597439 292.407456 
L 210.02612 277.618857 
L 210.454802 289.869556 
L 210.883483 296.363406 
L 211.312164 266.959499 
L 211.740845 295.390161 
L 212.169526 288.973842 
L 213.026889 295.809802 
L 213.45557 280.359052 
L 213.884251 302.130931 
L 214.312932 289.122682 
L 214.741613 293.248682 
L 215.170294 301.970701 
L 215.598976 289.120969 
L 216.027657 293.347654 
L 216.456338 295.613948 
L 216.885019 280.364741 
L 217.3137 285.649286 
L 217.742382 292.748842 
L 218.171063 291.087254 
L 218.599744 301.02687 
L 219.028425 296.529269 
L 219.457106 284.299639 
L 219.885787 296.646185 
L 220.314469 295.888397 
L 220.74315 278.104118 
L 221.171831 306.857377 
L 221.600512 291.14495 
L 222.029193 283.914499 
L 222.457875 314.025554 
L 222.886556 304.286044 
L 223.315237 309.649607 
L 223.743918 311.922335 
L 224.172599 318.804952 
L 224.60128 318.561749 
L 225.029962 297.903764 
L 225.458643 306.02568 
L 225.887324 305.463373 
L 226.316005 298.820871 
L 226.744686 319.565071 
L 227.173367 308.852559 
L 227.602049 318.983969 
L 228.03073 324.678995 
L 228.459411 311.432948 
L 229.316773 333.968622 
L 229.745455 326.723254 
L 230.174136 310.271745 
L 230.602817 314.619647 
L 231.031498 342.297075 
L 231.460179 327.571611 
L 231.88886 320.910171 
L 232.317542 346.867356 
L 232.746223 317.020926 
L 233.174904 337.601173 
L 233.603585 330.067623 
L 234.032266 335.579627 
L 234.460948 318.321732 
L 234.889629 349.847825 
L 235.31831 336.926308 
L 235.746991 346.850966 
L 236.604353 314.203811 
L 237.033035 352.441182 
L 237.461716 337.980756 
L 237.890397 339.037834 
L 238.319078 322.057343 
L 238.747759 347.676911 
L 239.605122 320.466376 
L 240.033803 340.15704 
L 240.462484 344.461667 
L 241.319846 331.62598 
L 241.748528 346.567183 
L 242.177209 319.478355 
L 242.60589 335.24478 
L 243.034571 364.129547 
L 243.463252 345.262777 
L 243.891933 317.654219 
L 244.320615 342.443551 
L 244.749296 332.739028 
L 245.177977 330.382987 
L 245.606658 346.036023 
L 246.035339 323.884595 
L 246.46402 323.529192 
L 246.892702 307.71098 
L 247.750064 323.503891 
L 248.178745 323.922284 
L 248.607426 315.660188 
L 249.036108 329.461054 
L 249.464789 318.04208 
L 250.322151 310.711083 
L 250.750832 326.319434 
L 251.179513 298.536992 
L 251.608195 304.733346 
L 252.036876 284.927446 
L 252.465557 327.924723 
L 252.894238 313.201202 
L 253.322919 323.028265 
L 253.751601 308.354413 
L 254.180282 299.372071 
L 254.608963 283.690216 
L 255.037644 303.849408 
L 255.466325 309.926799 
L 256.323688 288.37841 
L 256.752369 291.28694 
L 257.18105 278.25294 
L 258.038412 305.318133 
L 258.467093 277.531678 
L 258.895775 297.017623 
L 259.324456 278.099049 
L 259.753137 277.786047 
L 260.181818 277.920369 
L 260.610499 262.916079 
L 261.039181 281.220892 
L 261.467862 291.243822 
L 261.896543 276.135608 
L 262.325224 278.022296 
L 263.182586 257.056968 
L 263.611268 290.980881 
L 264.039949 273.937926 
L 264.46863 270.223027 
L 264.897311 264.591062 
L 265.325992 276.500342 
L 265.754673 264.831436 
L 266.183355 264.331776 
L 266.612036 267.791505 
L 267.040717 268.462136 
L 267.469398 251.946121 
L 267.898079 259.642625 
L 268.326761 246.384808 
L 268.755442 268.724553 
L 269.184123 278.470182 
L 269.612804 269.803671 
L 270.041485 264.806629 
L 270.470166 268.271 
L 270.898848 270.15644 
L 271.327529 282.153889 
L 271.75621 274.511604 
L 272.184891 277.86044 
L 272.613572 264.017046 
L 273.042254 264.091405 
L 273.470935 252.49269 
L 273.899616 271.986963 
L 274.328297 259.66217 
L 275.185659 286.01328 
L 275.614341 267.046787 
L 276.043022 277.538567 
L 276.471703 281.60491 
L 276.900384 281.736467 
L 277.329065 264.000789 
L 277.757746 260.113282 
L 278.186428 266.878633 
L 279.04379 292.534692 
L 279.472471 278.154886 
L 279.901152 270.298828 
L 280.329834 274.286378 
L 280.758515 280.795588 
L 281.187196 282.962118 
L 281.615877 295.004912 
L 282.044558 283.224725 
L 282.473239 288.424061 
L 282.901921 289.576489 
L 283.330602 293.58971 
L 283.759283 304.55276 
L 284.187964 300.103887 
L 284.616645 287.611608 
L 285.045327 296.238433 
L 285.474008 297.734225 
L 285.902689 301.004594 
L 286.33137 286.148064 
L 286.760051 301.343009 
L 287.188732 300.178303 
L 287.617414 302.336343 
L 288.046095 314.720051 
L 288.474776 306.720644 
L 288.903457 294.061348 
L 289.332138 303.467417 
L 289.760819 323.786319 
L 290.189501 309.22474 
L 290.618182 305.22141 
L 291.046863 312.488958 
L 291.475544 304.59041 
L 292.332907 324.587905 
L 292.761588 307.180587 
L 293.190269 312.481475 
L 293.61895 310.15025 
L 294.047631 305.567585 
L 294.476312 314.506356 
L 294.904994 333.345108 
L 295.333675 315.883184 
L 295.762356 333.899977 
L 296.191037 322.834829 
L 296.619718 307.872231 
L 297.048399 334.969886 
L 297.477081 316.408832 
L 297.905762 323.528348 
L 298.334443 320.225226 
L 298.763124 307.031642 
L 299.191805 311.979371 
L 299.620487 303.100542 
L 300.049168 327.23714 
L 300.477849 324.049157 
L 300.90653 322.309169 
L 301.335211 315.332148 
L 301.763892 323.461203 
L 302.192574 320.853001 
L 302.621255 321.595097 
L 303.049936 304.720772 
L 303.478617 304.344543 
L 303.907298 299.627688 
L 304.33598 280.905937 
L 304.764661 308.593634 
L 305.193342 298.684398 
L 305.622023 271.346399 
L 306.050704 297.517021 
L 306.479385 302.616428 
L 306.908067 310.449676 
L 307.336748 304.781978 
L 307.765429 314.961413 
L 308.19411 312.362868 
L 308.622791 299.089379 
L 309.051472 290.277914 
L 309.480154 291.603644 
L 309.908835 294.444302 
L 310.337516 307.383893 
L 310.766197 280.729779 
L 311.194878 281.188686 
L 311.62356 267.898943 
L 312.052241 301.498247 
L 312.480922 284.024306 
L 312.909603 261.813226 
L 313.338284 276.789317 
L 313.766965 262.381351 
L 314.195647 269.029734 
L 314.624328 271.920291 
L 315.053009 262.515938 
L 315.48169 288.508084 
L 315.910371 272.224714 
L 316.767734 252.304165 
L 317.625096 261.153998 
L 318.053777 250.230189 
L 318.91114 270.428848 
L 319.339821 258.277452 
L 319.768502 258.515076 
L 320.197183 251.991472 
L 320.625864 258.529296 
L 321.054545 247.04256 
L 321.483227 231.815172 
L 321.911908 269.985079 
L 322.340589 245.021727 
L 322.76927 257.467296 
L 323.197951 255.788358 
L 323.626633 267.141853 
L 324.055314 250.764835 
L 324.483995 244.205123 
L 324.912676 261.570144 
L 325.341357 227.063928 
L 325.770038 254.043517 
L 326.19872 269.148118 
L 327.056082 221.877435 
L 327.484763 229.445555 
L 327.913444 232.657076 
L 328.342125 237.652372 
L 328.770807 241.082772 
L 330.05685 268.99881 
L 330.485531 258.789818 
L 330.914213 265.337979 
L 331.342894 257.776787 
L 331.771575 240.939945 
L 332.200256 257.884789 
L 332.628937 265.167472 
L 333.057618 260.147159 
L 333.4863 268.468957 
L 333.914981 243.741928 
L 334.343662 267.958707 
L 334.772343 255.131356 
L 336.058387 237.455893 
L 336.487068 275.536851 
L 336.915749 249.4459 
L 337.34443 265.580606 
L 337.773111 262.933631 
L 338.201793 247.629846 
L 338.630474 269.648359 
L 339.059155 257.84529 
L 339.487836 266.917801 
L 339.916517 272.191211 
L 340.345198 254.206331 
L 340.77388 272.043698 
L 341.202561 273.199959 
L 341.631242 265.273826 
L 342.059923 264.335185 
L 342.488604 284.229914 
L 342.917286 264.525117 
L 343.345967 283.835016 
L 343.774648 287.61176 
L 344.203329 303.486385 
L 344.63201 282.529444 
L 345.060691 279.023391 
L 345.489373 290.551658 
L 345.918054 271.927581 
L 346.775416 285.646201 
L 347.204097 269.368846 
L 347.632778 303.87754 
L 348.06146 286.70596 
L 348.490141 281.928366 
L 348.918822 301.42467 
L 349.347503 294.744892 
L 349.776184 293.458601 
L 350.204866 298.097205 
L 350.633547 293.52655 
L 351.062228 296.385628 
L 351.490909 303.767496 
L 351.91959 288.104022 
L 352.348271 302.066018 
L 352.776953 302.918562 
L 353.634315 279.909045 
L 354.062996 315.075612 
L 354.491677 295.32235 
L 354.920359 293.329038 
L 355.34904 297.017331 
L 355.777721 271.274335 
L 356.206402 284.300563 
L 356.635083 302.208557 
L 357.063764 302.821647 
L 357.492446 286.861436 
L 357.921127 285.479302 
L 358.349808 287.894141 
L 358.778489 300.739399 
L 359.20717 288.526179 
L 359.635851 294.074027 
L 360.064533 273.807297 
L 360.493214 300.393138 
L 360.921895 290.534607 
L 361.350576 300.322388 
L 361.779257 298.908513 
L 362.207939 287.88465 
L 363.065301 290.76106 
L 363.493982 268.830524 
L 363.922663 282.415378 
L 364.351344 268.676741 
L 364.780026 290.663969 
L 365.208707 281.867508 
L 365.637388 292.219029 
L 366.066069 261.991401 
L 366.49475 285.083125 
L 366.923431 258.741397 
L 367.352113 282.219778 
L 367.780794 271.622772 
L 368.209475 298.254561 
L 368.638156 270.085584 
L 369.066837 265.875856 
L 369.495519 283.894153 
L 369.9242 265.796349 
L 370.352881 264.814195 
L 370.781562 278.358112 
L 371.210243 249.049194 
L 371.638924 268.867209 
L 372.496287 247.761744 
L 372.924968 257.267996 
L 373.353649 242.893744 
L 373.78233 247.635583 
L 374.211012 232.400568 
L 374.639693 252.747093 
L 375.068374 256.380832 
L 375.497055 239.613394 
L 375.925736 243.878619 
L 376.354417 243.591465 
L 376.783099 234.306151 
L 377.21178 233.203532 
L 377.640461 236.748461 
L 378.069142 229.38013 
L 379.355186 222.944408 
L 379.783867 218.700921 
L 380.212548 232.326069 
L 380.641229 234.595955 
L 381.06991 241.823351 
L 381.498592 231.115176 
L 381.927273 237.473634 
L 382.355954 223.361216 
L 382.784635 229.045593 
L 383.641997 236.133281 
L 384.070679 225.321526 
L 384.928041 238.288553 
L 385.356722 239.71868 
L 385.785403 214.247781 
L 386.214085 232.294227 
L 386.642766 233.2521 
L 387.071447 228.650006 
L 387.500128 231.748053 
L 388.35749 229.732263 
L 388.786172 233.089014 
L 389.214853 238.536907 
L 389.643534 220.75202 
L 390.072215 229.685171 
L 390.500896 243.854789 
L 390.929577 221.767981 
L 391.358259 248.309845 
L 391.78694 235.557264 
L 392.215621 235.25852 
L 392.644302 242.750054 
L 393.072983 231.274878 
L 393.501665 250.421446 
L 393.930346 220.809177 
L 394.359027 233.537128 
L 394.787708 221.135795 
L 395.216389 232.95444 
L 395.64507 257.729302 
L 396.073752 235.254498 
L 396.502433 238.471861 
L 396.931114 233.84562 
L 397.359795 234.59278 
L 397.788476 242.093047 
L 398.217157 241.603112 
L 398.645839 255.15276 
L 399.07452 234.505364 
L 399.503201 269.697974 
L 399.931882 272.157622 
L 400.360563 267.466707 
L 400.789245 246.435836 
L 401.217926 268.125786 
L 401.646607 262.038668 
L 402.075288 258.535776 
L 402.503969 265.481176 
L 402.93265 282.879693 
L 403.361332 251.096135 
L 403.790013 264.830804 
L 404.218694 259.779543 
L 405.076056 272.617961 
L 405.933419 260.928068 
L 406.3621 285.352756 
L 406.790781 282.674374 
L 407.219462 258.582394 
L 407.648143 281.700341 
L 408.076825 273.079381 
L 408.505506 288.356662 
L 408.934187 267.524396 
L 409.362868 269.017011 
L 409.791549 278.257335 
L 410.22023 260.202239 
L 410.648912 281.478582 
L 411.077593 279.561183 
L 411.506274 265.685276 
L 411.934955 272.36774 
L 412.363636 268.491638 
L 412.792318 262.311018 
L 413.220999 274.66718 
L 413.64968 270.468541 
L 414.078361 283.382897 
L 414.507042 271.961203 
L 414.935723 279.507655 
L 415.364405 263.095682 
L 415.793086 276.081321 
L 416.221767 274.808225 
L 416.650448 274.599275 
L 417.079129 294.557328 
L 417.50781 283.33003 
L 417.936492 252.645789 
L 418.365173 264.584331 
L 418.793854 270.483625 
L 419.222535 271.579028 
L 419.651216 270.649551 
L 420.079898 263.540482 
L 420.508579 86.742919 
L 420.93726 86.742919 
L 421.365941 266.054808 
L 421.794622 276.129848 
L 422.651985 255.695339 
L 423.080666 274.166785 
L 423.509347 247.812561 
L 423.938028 244.796127 
L 424.366709 255.401364 
L 424.795391 251.113243 
L 425.224072 238.752964 
L 425.652753 256.747452 
L 426.081434 258.798267 
L 426.510115 259.433047 
L 426.938796 256.083197 
L 427.367478 251.844405 
L 427.796159 239.297784 
L 428.22484 251.043875 
L 428.653521 242.688114 
L 429.082202 236.768904 
L 429.510883 249.815867 
L 429.939565 220.828252 
L 430.368246 220.405591 
L 430.796927 250.399393 
L 431.225608 235.502934 
L 431.654289 232.883415 
L 432.082971 225.917507 
L 432.511652 238.064312 
L 432.940333 228.576382 
L 433.369014 215.448354 
L 433.797695 211.990238 
L 434.226376 218.393528 
L 434.655058 216.030067 
L 435.083739 224.765812 
L 435.51242 221.511992 
L 435.941101 204.115196 
L 436.369782 214.131717 
L 436.798464 220.662363 
L 437.227145 196.208012 
L 437.655826 217.752337 
L 438.084507 199.506711 
L 438.513188 204.24563 
L 438.941869 205.530972 
L 439.370551 211.821086 
L 439.799232 199.058422 
L 440.227913 224.092182 
L 441.513956 204.544442 
L 441.942638 204.776536 
L 442.371319 208.472979 
L 442.8 208.348587 
L 443.228681 200.507557 
L 443.657362 211.924172 
L 444.086044 227.415022 
L 444.514725 205.272269 
L 444.943406 196.718055 
L 445.372087 195.742031 
L 445.800768 208.900986 
L 446.229449 206.902776 
L 446.658131 191.3719 
L 447.086812 213.665328 
L 447.944174 203.330629 
L 448.372855 215.414819 
L 448.801536 214.26857 
L 449.230218 204.565914 
L 449.658899 218.43175 
L 450.08758 207.32894 
L 450.516261 224.968757 
L 450.944942 234.210007 
L 451.373624 208.46666 
L 451.802305 217.104433 
L 452.230986 221.216645 
L 452.659667 223.182659 
L 453.088348 208.966152 
L 453.517029 231.158855 
L 453.945711 211.617467 
L 454.374392 233.061316 
L 454.803073 225.152312 
L 455.231754 227.167287 
L 455.660435 220.432626 
L 456.089117 245.499713 
L 456.517798 231.37488 
L 456.946479 231.458318 
L 457.803841 221.245461 
L 458.232522 243.836626 
L 458.661204 231.846072 
L 459.089885 231.88001 
L 459.518566 225.672159 
L 459.947247 239.78941 
L 460.375928 228.48536 
L 460.804609 240.41314 
L 461.233291 245.445244 
L 461.661972 238.40519 
L 462.090653 241.831876 
L 462.519334 241.880567 
L 462.948015 236.636505 
L 463.376697 250.710622 
L 464.234059 251.753171 
L 464.66274 239.698539 
L 465.091421 231.631042 
L 465.520102 242.390133 
L 465.948784 242.363378 
L 466.377465 235.633374 
L 466.806146 259.953406 
L 467.234827 269.611933 
L 467.663508 266.464455 
L 468.09219 253.079198 
L 468.520871 255.796565 
L 468.949552 283.856721 
L 469.378233 244.593765 
L 469.806914 259.012472 
L 470.235595 257.483145 
L 470.664277 252.848174 
L 471.092958 270.220214 
L 471.521639 264.040177 
L 471.95032 246.268836 
L 472.379001 236.551483 
L 472.807682 249.2953 
L 473.236364 248.441592 
L 473.665045 272.816152 
L 474.093726 244.381189 
L 474.522407 243.130999 
L 474.951088 257.501195 
L 475.37977 251.342082 
L 475.808451 243.169435 
L 476.237132 229.939693 
L 476.665813 262.142833 
L 477.094494 239.576281 
L 477.523175 235.100716 
L 477.951857 238.77538 
L 478.380538 244.006825 
L 478.809219 247.407232 
L 479.2379 243.041538 
L 479.666581 234.709559 
L 480.095262 253.178184 
L 480.523944 253.350365 
L 480.952625 246.847559 
L 481.381306 252.700786 
L 481.809987 253.787492 
L 482.238668 221.480238 
L 482.66735 243.308255 
L 483.096031 237.62053 
L 483.524712 242.499212 
L 483.953393 224.287623 
L 484.382074 222.592525 
L 484.810755 214.350383 
L 485.239437 229.500628 
L 485.668118 210.677739 
L 486.096799 220.283417 
L 486.52548 233.25679 
L 486.954161 206.854151 
L 487.382843 201.615482 
L 487.811524 207.256406 
L 488.240205 218.189076 
L 488.668886 225.90962 
L 489.097567 210.388426 
L 489.526248 222.896302 
L 489.95493 226.160443 
L 490.383611 199.202619 
L 490.812292 207.937621 
L 491.240973 207.555828 
L 491.669654 208.672186 
L 492.098335 187.507973 
L 492.527017 215.603536 
L 493.384379 191.374915 
L 493.81306 193.017117 
L 494.241741 201.088935 
L 494.670423 194.429214 
L 495.099104 194.75135 
L 495.527785 174.805709 
L 495.956466 189.924473 
L 496.385147 196.76308 
L 496.813828 177.337894 
L 497.24251 201.530318 
L 497.671191 182.540827 
L 498.099872 174.934389 
L 498.528553 198.682769 
L 498.957234 183.130435 
L 499.385915 176.386937 
L 499.814597 174.36923 
L 500.671959 165.797127 
L 501.10064 183.065106 
L 501.529321 193.608063 
L 501.958003 192.693791 
L 502.386684 178.053547 
L 502.815365 201.157591 
L 503.244046 180.355711 
L 503.672727 197.380931 
L 504.101408 195.3779 
L 504.53009 182.929532 
L 504.958771 192.811592 
L 505.387452 195.736913 
L 505.816133 194.633351 
L 506.244814 174.185251 
L 506.673496 203.100142 
L 507.102177 188.835675 
L 507.530858 195.447769 
L 507.959539 161.551175 
L 508.38822 194.026301 
L 508.816901 174.92199 
L 509.245583 185.567382 
L 509.674264 211.18797 
L 510.102945 191.144576 
L 510.531626 190.392567 
L 510.960307 198.298417 
L 511.388988 219.46641 
L 511.81767 178.12305 
L 512.246351 203.959993 
L 512.675032 217.46544 
L 513.103713 191.86066 
L 513.532394 208.255467 
L 513.961076 204.525965 
L 514.818438 227.698276 
L 515.247119 212.534845 
L 515.6758 204.5109 
L 516.104481 213.566236 
L 516.533163 214.384875 
L 517.390525 213.137107 
L 517.819206 221.057673 
L 518.247887 222.69557 
L 518.676569 228.249797 
L 519.10525 235.986992 
L 519.533931 237.737097 
L 519.962612 232.213403 
L 520.391293 232.851601 
L 520.819974 230.338446 
L 521.248656 66.96 
L 521.677337 66.96 
L 522.106018 214.108633 
L 522.534699 226.400148 
L 522.96338 228.356837 
L 523.392061 232.036047 
L 523.820743 241.817242 
L 524.249424 239.198892 
L 524.678105 237.588299 
L 525.106786 233.510235 
L 525.535467 235.264613 
L 525.964149 217.069091 
L 526.39283 239.203275 
L 526.821511 243.672856 
L 527.250192 252.955845 
L 527.678873 246.696912 
L 528.107554 210.402185 
L 528.536236 233.695771 
L 528.964917 227.569191 
L 529.393598 234.609147 
L 529.822279 234.785752 
L 530.25096 238.075827 
L 531.108323 221.18493 
L 531.537004 226.294611 
L 531.965685 237.218013 
L 532.394366 233.373828 
L 532.823047 248.544858 
L 533.251729 221.687821 
L 533.68041 214.140334 
L 534.109091 247.048764 
L 534.537772 231.099574 
L 534.966453 238.946455 
L 535.395134 241.218968 
L 535.823816 217.269201 
L 536.252497 215.228627 
L 536.681178 205.386465 
L 537.109859 219.733916 
L 537.53854 242.068437 
L 537.967222 217.4137 
L 538.395903 228.116756 
L 539.253265 215.962679 
L 539.681946 216.310544 
L 540.110627 207.557603 
L 540.539309 220.788848 
L 540.96799 219.535907 
L 541.825352 200.764105 
L 542.254033 212.0897 
L 542.682714 213.340913 
L 543.111396 215.233848 
L 543.540077 211.036388 
L 543.968758 204.727265 
L 544.397439 212.08512 
L 544.82612 191.698528 
L 545.254802 217.956842 
L 545.683483 197.122354 
L 546.112164 208.64006 
L 546.540845 180.144582 
L 546.969526 196.114081 
L 547.398207 177.998992 
L 547.826889 192.195462 
L 548.25557 188.640165 
L 548.684251 195.39167 
L 549.112932 214.873084 
L 549.541613 165.611487 
L 549.970294 195.246995 
L 550.398976 153.678329 
L 550.827657 175.10996 
L 551.256338 182.927243 
L 551.685019 168.956984 
L 552.1137 166.000185 
L 552.542382 176.162332 
L 552.971063 171.461554 
L 553.399744 153.211126 
L 553.828425 185.213412 
L 554.257106 170.62885 
L 554.685787 161.299735 
L 555.114469 182.937715 
L 555.54315 186.078342 
L 555.971831 153.625856 
L 556.400512 174.377171 
L 556.829193 176.834586 
L 557.257875 166.281075 
L 557.686556 171.183311 
L 558.115237 170.948733 
L 558.543918 179.455566 
L 558.972599 174.122794 
L 559.40128 156.259464 
L 559.829962 159.770851 
L 560.258643 171.340956 
L 560.687324 140.530801 
L 561.116005 150.178314 
L 561.544686 172.908453 
L 561.973367 166.722503 
L 562.402049 198.883969 
L 562.83073 156.84194 
L 563.259411 161.362829 
L 563.688092 172.620267 
L 564.545455 167.976345 
L 564.974136 159.261978 
L 565.402817 180.161213 
L 565.831498 160.355271 
L 566.260179 164.370433 
L 566.68886 180.058149 
L 567.117542 176.796087 
L 567.546223 156.238971 
L 567.974904 177.509798 
L 568.403585 191.069687 
L 568.832266 193.017407 
L 569.260948 179.935348 
L 569.689629 177.97026 
L 570.11831 179.044234 
L 570.546991 185.468204 
L 570.975672 204.026616 
L 571.833035 177.136448 
L 572.261716 211.28653 
L 572.690397 182.844484 
L 573.119078 205.262661 
L 573.547759 193.839881 
L 573.97644 207.113443 
L 574.405122 185.858754 
L 574.833803 201.438044 
L 575.262484 192.412814 
L 575.691165 206.029321 
L 576.548528 215.635389 
L 576.977209 213.230583 
L 577.40589 206.267274 
L 577.834571 189.7619 
L 578.263252 199.114915 
L 578.691933 212.407713 
L 579.120615 204.530351 
L 579.549296 218.075097 
L 579.977977 215.107882 
L 580.406658 208.171207 
L 580.835339 183.429121 
L 581.26402 209.088922 
L 581.692702 211.144796 
L 582.121383 236.176294 
L 582.550064 201.584343 
L 582.978745 201.434073 
L 583.407426 231.046015 
L 583.836108 215.098294 
L 584.264789 223.958126 
L 584.69347 214.618392 
L 585.122151 221.178544 
L 585.550832 205.936494 
L 585.979513 214.269296 
L 586.408195 215.696892 
L 586.836876 212.658657 
L 587.265557 234.95338 
L 587.694238 228.32972 
L 588.122919 202.41479 
L 588.551601 214.083886 
L 588.980282 211.581831 
L 589.408963 229.568043 
L 589.837644 192.889445 
L 590.266325 219.852101 
L 590.695006 208.887364 
L 591.123688 215.836654 
L 591.552369 203.142414 
L 591.98105 220.966824 
L 592.409731 200.96198 
L 592.838412 199.895542 
L 593.267093 217.136786 
L 593.695775 224.938355 
L 594.124456 203.047125 
L 594.553137 229.804139 
L 594.981818 197.486943 
L 595.839181 194.487982 
L 596.267862 204.66982 
L 596.696543 181.421825 
L 597.125224 200.048165 
L 597.553905 207.006107 
L 597.982586 199.692304 
L 598.411268 207.106048 
L 598.839949 205.783309 
L 599.26863 189.271336 
L 599.697311 189.354366 
L 600.125992 193.749629 
L 600.554673 188.9591 
L 600.983355 186.75662 
L 601.412036 186.716295 
L 601.840717 164.118361 
L 602.269398 186.467809 
L 602.698079 171.900217 
L 603.126761 180.753528 
L 603.555442 186.492807 
L 603.984123 183.695295 
L 604.412804 171.047472 
L 604.841485 176.898126 
L 605.270166 167.992447 
L 605.698848 164.653806 
L 606.127529 159.190405 
L 606.55621 175.580341 
L 606.984891 149.982329 
L 607.413572 181.813995 
L 607.842254 180.56112 
L 608.270935 148.269102 
L 608.699616 145.938305 
L 609.128297 169.015127 
L 609.556978 151.086711 
L 609.985659 168.48063 
L 610.414341 137.781363 
L 610.843022 152.259266 
L 611.700384 154.478525 
L 612.129065 162.768602 
L 612.557746 140.792121 
L 612.986428 148.613099 
L 613.415109 142.927859 
L 613.84379 155.535799 
L 614.272471 151.094773 
L 614.701152 143.846376 
L 615.129834 163.583193 
L 615.558515 155.103672 
L 615.987196 151.526614 
L 616.415877 139.226975 
L 616.844558 154.419176 
L 617.273239 155.753044 
L 617.701921 140.467497 
L 618.130602 152.431253 
L 618.559283 134.574602 
L 618.987964 162.14506 
L 619.416645 149.057164 
L 619.845327 153.653166 
L 620.274008 151.13417 
L 620.702689 138.994696 
L 621.13137 139.603152 
L 621.988732 166.85857 
L 622.417414 156.30057 
L 622.846095 135.689346 
L 623.274776 150.163236 
L 623.703457 159.698278 
L 624.989501 134.751166 
L 625.846863 165.511866 
L 626.275544 133.478958 
L 626.704225 156.746989 
L 627.132907 144.373391 
L 627.561588 146.737035 
L 627.990269 181.745706 
L 628.41895 145.688522 
L 628.847631 164.645898 
L 629.276312 173.260891 
L 629.704994 165.271853 
L 630.133675 166.470117 
L 630.562356 168.30691 
L 630.991037 171.343235 
L 631.419718 155.902919 
L 631.848399 161.949244 
L 632.277081 170.259725 
L 632.705762 180.831945 
L 633.134443 163.587848 
L 633.563124 170.444291 
L 633.991805 182.889208 
L 634.420487 184.831184 
L 634.849168 183.506637 
L 635.277849 183.760326 
L 636.135211 175.420166 
L 636.563892 183.220841 
L 636.992574 203.537594 
L 637.421255 183.869244 
L 637.849936 177.227161 
L 638.278617 202.598912 
L 638.707298 209.349682 
L 639.13598 182.996735 
L 639.564661 195.69123 
L 639.993342 187.287536 
L 640.422023 195.560016 
L 640.850704 176.1136 
L 641.708067 188.129724 
L 642.136748 186.693427 
L 642.565429 185.843989 
L 642.99411 184.346648 
L 643.422791 205.460961 
L 643.851472 180.111666 
L 644.280154 210.698855 
L 644.708835 218.156459 
L 645.137516 198.240912 
L 645.566197 189.852243 
L 645.994878 192.037806 
L 646.42356 189.920981 
L 646.852241 194.491308 
L 647.280922 201.287987 
L 647.709603 193.302215 
L 648.138284 175.973324 
L 648.566965 196.513777 
L 648.995647 188.083861 
L 649.424328 187.437116 
L 649.853009 179.28893 
L 650.28169 201.967784 
L 651.139052 186.206136 
L 651.567734 192.426005 
L 651.996415 185.296754 
L 652.425096 188.634197 
L 653.282458 200.208665 
L 653.71114 174.248625 
L 654.139821 180.218377 
L 654.568502 172.310863 
L 654.997183 202.03953 
L 655.425864 166.528302 
L 656.283227 179.066871 
L 656.711908 167.549133 
L 657.140589 168.674867 
L 657.56927 163.600276 
L 657.997951 163.102942 
L 658.426633 165.242988 
L 658.855314 163.914255 
L 659.283995 169.9357 
L 659.712676 157.598653 
L 660.141357 166.054169 
L 660.570038 145.77149 
L 660.99872 156.409184 
L 661.427401 141.288314 
L 661.856082 157.904198 
L 662.284763 154.86772 
L 662.713444 142.735741 
L 663.142125 138.272211 
L 663.570807 159.753032 
L 663.999488 138.286828 
L 664.428169 134.222369 
L 664.85685 148.39526 
L 665.285531 135.409275 
L 665.714213 147.791056 
L 666.142894 145.258545 
L 666.571575 140.408465 
L 667.000256 144.453257 
L 667.428937 121.25863 
L 667.857618 135.510168 
L 668.2863 138.280938 
L 668.714981 149.534898 
L 669.143662 131.288163 
L 669.572343 138.905759 
L 670.001024 134.360595 
L 670.429706 132.955991 
L 670.858387 145.599942 
L 671.287068 123.240362 
L 671.715749 125.186056 
L 672.14443 122.599238 
L 673.001793 144.687255 
L 673.430474 105.711771 
L 673.859155 110.813888 
L 674.287836 129.502518 
L 674.716517 139.305648 
L 675.145198 126.457659 
L 675.57388 124.981876 
L 676.002561 145.589565 
L 676.431242 127.529616 
L 676.859923 123.981337 
L 677.288604 107.895193 
L 677.717286 136.506756 
L 678.145967 101.196444 
L 679.003329 127.10976 
L 679.43201 130.783686 
L 680.289373 115.32602 
L 680.718054 114.341392 
L 681.575416 138.376045 
L 682.004097 120.117832 
L 682.432778 121.572681 
L 682.86146 139.114757 
L 683.290141 144.792586 
L 683.718822 136.41302 
L 684.147503 132.590579 
L 684.576184 139.567299 
L 685.004866 148.935502 
L 685.433547 148.097672 
L 685.862228 132.371252 
L 686.290909 134.94135 
L 686.71959 139.687685 
L 687.148271 150.989459 
L 687.576953 147.186435 
L 688.005634 158.24934 
L 688.434315 139.022689 
L 688.862996 167.528358 
L 689.291677 153.149508 
L 689.720359 154.3863 
L 690.14904 159.690739 
L 690.577721 129.515786 
L 691.006402 133.300441 
L 691.435083 162.195931 
L 691.863764 153.691934 
L 692.292446 156.069885 
L 692.721127 156.061543 
L 693.149808 156.787504 
L 694.00717 185.939868 
L 694.435851 169.608229 
L 694.864533 159.313301 
L 695.293214 172.989427 
L 695.721895 164.771276 
L 696.150576 176.925288 
L 696.579257 167.627623 
L 697.007939 165.827962 
L 697.43662 170.718886 
L 697.865301 182.690857 
L 698.293982 160.999024 
L 699.151344 186.99409 
L 699.580026 181.449703 
L 700.008707 173.986094 
L 700.866069 194.219108 
L 701.723431 177.185253 
L 702.152113 175.480477 
L 702.580794 161.334961 
L 703.009475 183.187876 
L 703.438156 185.279357 
L 703.866837 183.146852 
L 704.295519 165.987262 
L 704.7242 184.44776 
L 705.152881 176.643131 
L 705.581562 153.784259 
L 706.010243 187.384784 
L 706.867606 177.884852 
L 707.296287 188.907232 
L 707.724968 169.878754 
L 708.153649 192.156338 
L 708.58233 174.244787 
L 709.011012 178.222378 
L 709.439693 175.657706 
L 709.868374 155.95053 
L 710.297055 159.248722 
L 710.725736 147.304785 
L 711.583099 161.262725 
L 712.01178 167.967239 
L 712.440461 157.980775 
L 712.869142 156.019717 
L 713.297823 160.464035 
L 713.726504 171.191116 
L 714.155186 147.305077 
L 714.583867 161.535662 
L 715.012548 164.529272 
L 715.441229 149.825555 
L 715.86991 152.87493 
L 716.298592 137.48697 
L 716.727273 149.826066 
L 717.155954 132.66199 
L 717.584635 139.474403 
L 718.013316 138.798536 
L 718.441997 141.542242 
L 718.870679 125.589117 
L 719.29936 140.723201 
L 719.728041 141.246261 
L 720.156722 130.865777 
L 720.585403 129.411091 
L 721.014085 109.683014 
L 721.442766 129.005964 
L 721.871447 118.811173 
L 722.300128 125.94499 
L 722.728809 108.532013 
L 723.15749 116.941944 
L 723.586172 114.750931 
L 724.014853 117.108321 
L 724.443534 127.986736 
L 724.872215 123.65357 
L 725.300896 110.638434 
L 725.729577 125.614563 
L 726.158259 101.579359 
L 726.58694 126.074254 
L 727.015621 123.985843 
L 727.444302 122.633385 
L 728.301665 98.242889 
L 728.730346 124.379545 
L 729.159027 111.952577 
L 729.587708 106.449936 
L 730.016389 122.667086 
L 730.44507 108.701471 
L 730.873752 107.629832 
L 731.302433 94.712879 
L 731.731114 98.147347 
L 732.159795 117.909587 
L 732.588476 115.996622 
L 733.017157 111.903665 
L 733.445839 125.671197 
L 733.87452 116.111004 
L 734.303201 96.193063 
L 734.731882 108.60049 
L 735.160563 97.035194 
L 735.589245 96.861013 
L 736.017926 112.945158 
L 736.446607 110.316427 
L 736.875288 86.806211 
L 737.303969 110.135659 
L 737.73265 104.955429 
L 738.161332 96.199053 
L 738.590013 109.726457 
L 739.018694 107.714444 
L 739.447375 122.560333 
L 739.876056 90.523206 
L 740.304738 119.522845 
L 740.733419 124.569214 
L 741.1621 119.366174 
L 741.590781 96.829564 
L 742.019462 133.631387 
L 742.448143 118.854297 
L 742.876825 130.341932 
L 743.305506 129.422806 
L 743.734187 119.882694 
L 744.162868 116.527093 
L 744.591549 105.651026 
L 745.02023 127.80145 
L 745.448912 120.626061 
L 745.877593 154.34154 
L 746.306274 126.127296 
L 746.734955 112.160283 
L 747.163636 124.996017 
L 747.163636 124.996017 
" style="fill:none;stroke:#1f77b4;stroke-linecap:square;stroke-width:1.5;"/>
   </g>
   <g id="line2d_17">
    <path clip-path="url(#p77ac016b64)" d="M 742.876825 384.48 
L 742.876825 51.84 
" style="fill:none;stroke:#808080;stroke-linecap:square;"/>
   </g>
   <g id="patch_59">
    <path d="M 108 384.48 
L 108 51.84 
" style="fill:none;stroke:#000000;stroke-linecap:square;stroke-linejoin:miter;stroke-width:0.8;"/>
   </g>
   <g id="patch_60">
    <path d="M 777.6 384.48 
L 777.6 51.84 
" style="fill:none;stroke:#000000;stroke-linecap:square;stroke-linejoin:miter;stroke-width:0.8;"/>
   </g>
   <g id="patch_61">
    <path d="M 108 384.48 
L 777.6 384.48 
" style="fill:none;stroke:#000000;stroke-linecap:square;stroke-linejoin:miter;stroke-width:0.8;"/>
   </g>
   <g id="patch_62">
    <path d="M 108 51.84 
L 777.6 51.84 
" style="fill:none;stroke:#000000;stroke-linecap:square;stroke-linejoin:miter;stroke-width:0.8;"/>
   </g>
   <g id="text_18">
    <!-- synthetic_46.csv -->
    <defs>
     <path d="M 32.171875 -5.078125 
Q 28.375 -14.84375 24.75 -17.8125 
Q 21.140625 -20.796875 15.09375 -20.796875 
L 7.90625 -20.796875 
L 7.90625 -13.28125 
L 13.1875 -13.28125 
Q 16.890625 -13.28125 18.9375 -11.515625 
Q 21 -9.765625 23.484375 -3.21875 
L 25.09375 0.875 
L 2.984375 54.6875 
L 12.5 54.6875 
L 29.59375 11.921875 
L 46.6875 54.6875 
L 56.203125 54.6875 
z
" id="DejaVuSans-121"/>
     <path d="M 54.890625 33.015625 
L 54.890625 0 
L 45.90625 0 
L 45.90625 32.71875 
Q 45.90625 40.484375 42.875 44.328125 
Q 39.84375 48.1875 33.796875 48.1875 
Q 26.515625 48.1875 22.3125 43.546875 
Q 18.109375 38.921875 18.109375 30.90625 
L 18.109375 0 
L 9.078125 0 
L 9.078125 54.6875 
L 18.109375 54.6875 
L 18.109375 46.1875 
Q 21.34375 51.125 25.703125 53.5625 
Q 30.078125 56 35.796875 56 
Q 45.21875 56 50.046875 50.171875 
Q 54.890625 44.34375 54.890625 33.015625 
z
" id="DejaVuSans-110"/>
     <path d="M 54.890625 33.015625 
L 54.890625 0 
L 45.90625 0 
L 45.90625 32.71875 
Q 45.90625 40.484375 42.875 44.328125 
Q 39.84375 48.1875 33.796875 48.1875 
Q 26.515625 48.1875 22.3125 43.546875 
Q 18.109375 38.921875 18.109375 30.90625 
L 18.109375 0 
L 9.078125 0 
L 9.078125 75.984375 
L 18.109375 75.984375 
L 18.109375 46.1875 
Q 21.34375 51.125 25.703125 53.5625 
Q 30.078125 56 35.796875 56 
Q 45.21875 56 50.046875 50.171875 
Q 54.890625 44.34375 54.890625 33.015625 
z
" id="DejaVuSans-104"/>
     <path d="M 48.78125 52.59375 
L 48.78125 44.1875 
Q 44.96875 46.296875 41.140625 47.34375 
Q 37.3125 48.390625 33.40625 48.390625 
Q 24.65625 48.390625 19.8125 42.84375 
Q 14.984375 37.3125 14.984375 27.296875 
Q 14.984375 17.28125 19.8125 11.734375 
Q 24.65625 6.203125 33.40625 6.203125 
Q 37.3125 6.203125 41.140625 7.25 
Q 44.96875 8.296875 48.78125 10.40625 
L 48.78125 2.09375 
Q 45.015625 0.34375 40.984375 -0.53125 
Q 36.96875 -1.421875 32.421875 -1.421875 
Q 20.0625 -1.421875 12.78125 6.34375 
Q 5.515625 14.109375 5.515625 27.296875 
Q 5.515625 40.671875 12.859375 48.328125 
Q 20.21875 56 33.015625 56 
Q 37.15625 56 41.109375 55.140625 
Q 45.0625 54.296875 48.78125 52.59375 
z
" id="DejaVuSans-99"/>
     <path d="M 50.984375 -16.609375 
L 50.984375 -23.578125 
L -0.984375 -23.578125 
L -0.984375 -16.609375 
z
" id="DejaVuSans-95"/>
     <path d="M 10.6875 12.40625 
L 21 12.40625 
L 21 0 
L 10.6875 0 
z
" id="DejaVuSans-46"/>
     <path d="M 2.984375 54.6875 
L 12.5 54.6875 
L 29.59375 8.796875 
L 46.6875 54.6875 
L 56.203125 54.6875 
L 35.6875 0 
L 23.484375 0 
z
" id="DejaVuSans-118"/>
    </defs>
    <g transform="translate(392.638125 45.84)scale(0.12 -0.12)">
     <use xlink:href="#DejaVuSans-115"/>
     <use x="52.099609" xlink:href="#DejaVuSans-121"/>
     <use x="111.279297" xlink:href="#DejaVuSans-110"/>
     <use x="174.658203" xlink:href="#DejaVuSans-116"/>
     <use x="213.867188" xlink:href="#DejaVuSans-104"/>
     <use x="277.246094" xlink:href="#DejaVuSans-101"/>
     <use x="338.769531" xlink:href="#DejaVuSans-116"/>
     <use x="377.978516" xlink:href="#DejaVuSans-105"/>
     <use x="405.761719" xlink:href="#DejaVuSans-99"/>
     <use x="460.742188" xlink:href="#DejaVuSans-95"/>
     <use x="510.742188" xlink:href="#DejaVuSans-52"/>
     <use x="574.365234" xlink:href="#DejaVuSans-54"/>
     <use x="637.988281" xlink:href="#DejaVuSans-46"/>
     <use x="669.775391" xlink:href="#DejaVuSans-99"/>
     <use x="724.755859" xlink:href="#DejaVuSans-115"/>
     <use x="776.855469" xlink:href="#DejaVuSans-118"/>
    </g>
   </g>
   <g id="legend_1">
    <g id="patch_63">
     <path d="M 115 74.518125 
L 174.315625 74.518125 
Q 176.315625 74.518125 176.315625 72.518125 
L 176.315625 58.84 
Q 176.315625 56.84 174.315625 56.84 
L 115 56.84 
Q 113 56.84 113 58.84 
L 113 72.518125 
Q 113 74.518125 115 74.518125 
z
" style="fill:#ffffff;opacity:0.8;stroke:#cccccc;stroke-linejoin:miter;"/>
    </g>
    <g id="line2d_18">
     <path d="M 117 64.938438 
L 137 64.938438 
" style="fill:none;stroke:#1f77b4;stroke-linecap:square;stroke-width:1.5;"/>
    </g>
    <g id="line2d_19"/>
    <g id="text_19">
     <!-- value -->
     <g transform="translate(145 68.438438)scale(0.1 -0.1)">
      <use xlink:href="#DejaVuSans-118"/>
      <use x="59.179688" xlink:href="#DejaVuSans-97"/>
      <use x="120.458984" xlink:href="#DejaVuSans-108"/>
      <use x="148.242188" xlink:href="#DejaVuSans-117"/>
      <use x="211.621094" xlink:href="#DejaVuSans-101"/>
     </g>
    </g>
   </g>
  </g>
 </g>
 <defs>
  <clipPath id="p77ac016b64">
   <rect height="332.64" width="669.6" x="108" y="51.84"/>
  </clipPath>
 </defs>
</svg>
