<?xml version="1.0" encoding="utf-8" standalone="no"?>
<!DOCTYPE svg PUBLIC "-//W3C//DTD SVG 1.1//EN"
  "http://www.w3.org/Graphics/SVG/1.1/DTD/svg11.dtd">
<!-- Created with matplotlib (https://matplotlib.org/) -->
<svg height="432pt" version="1.1" viewBox="0 0 864 432" width="864pt" xmlns="http://www.w3.org/2000/svg" xmlns:xlink="http://www.w3.org/1999/xlink">
 <defs>
  <style type="text/css">
*{stroke-linecap:butt;stroke-linejoin:round;}
  </style>
 </defs>
 <g id="figure_1">
  <g id="patch_1">
   <path d="M 0 432 
L 864 432 
L 864 0 
L 0 0 
z
" style="fill:#ffffff;"/>
  </g>
  <g id="axes_1">
   <g id="patch_2">
    <path d="M 108 384.48 
L 777.6 384.48 
L 777.6 51.84 
L 108 51.84 
z
" style="fill:#ffffff;"/>
   </g>
   <g id="patch_3">
    <path clip-path="url(#p02f388fab5)" d="M 138.436364 384.48 
L 138.436364 51.84 
L 381.202597 51.84 
L 381.202597 384.48 
z
" style="fill:#0000ff;opacity:0.05;"/>
   </g>
   <g id="patch_4">
    <path clip-path="url(#p02f388fab5)" d="M 381.202597 384.48 
L 381.202597 51.84 
L 747.163636 51.84 
L 747.163636 384.48 
z
" style="fill:#ff0000;opacity:0.08;"/>
   </g>
   <g id="patch_5">
    <path clip-path="url(#p02f388fab5)" d="M 138.436364 384.48 
L 138.436364 51.84 
L 142.05974 51.84 
L 142.05974 384.48 
z
" style="fill:#008000;opacity:0.04;"/>
   </g>
   <g id="patch_6">
    <path clip-path="url(#p02f388fab5)" d="M 145.683117 384.48 
L 145.683117 51.84 
L 149.306494 51.84 
L 149.306494 384.48 
z
" style="fill:#008000;opacity:0.04;"/>
   </g>
   <g id="patch_7">
    <path clip-path="url(#p02f388fab5)" d="M 145.683117 384.48 
L 145.683117 371.1744 
L 149.306494 371.1744 
L 149.306494 384.48 
z
" style="fill:#ffe500;"/>
   </g>
   <g id="patch_8">
    <path clip-path="url(#p02f388fab5)" d="M 152.92987 384.48 
L 152.92987 51.84 
L 156.553247 51.84 
L 156.553247 384.48 
z
" style="fill:#008000;opacity:0.04;"/>
   </g>
   <g id="patch_9">
    <path clip-path="url(#p02f388fab5)" d="M 152.92987 384.48 
L 152.92987 371.1744 
L 156.553247 371.1744 
L 156.553247 384.48 
z
" style="fill:#ffe500;"/>
   </g>
   <g id="patch_10">
    <path clip-path="url(#p02f388fab5)" d="M 160.176623 384.48 
L 160.176623 51.84 
L 163.8 51.84 
L 163.8 384.48 
z
" style="fill:#008000;opacity:0.04;"/>
   </g>
   <g id="patch_11">
    <path clip-path="url(#p02f388fab5)" d="M 167.423377 384.48 
L 167.423377 51.84 
L 171.046753 51.84 
L 171.046753 384.48 
z
" style="fill:#008000;opacity:0.04;"/>
   </g>
   <g id="patch_12">
    <path clip-path="url(#p02f388fab5)" d="M 171.046753 384.48 
L 171.046753 371.1744 
L 174.67013 371.1744 
L 174.67013 384.48 
z
" style="fill:#ffe500;"/>
   </g>
   <g id="patch_13">
    <path clip-path="url(#p02f388fab5)" d="M 174.67013 384.48 
L 174.67013 51.84 
L 178.293506 51.84 
L 178.293506 384.48 
z
" style="fill:#008000;opacity:0.04;"/>
   </g>
   <g id="patch_14">
    <path clip-path="url(#p02f388fab5)" d="M 181.916883 384.48 
L 181.916883 51.84 
L 185.54026 51.84 
L 185.54026 384.48 
z
" style="fill:#008000;opacity:0.04;"/>
   </g>
   <g id="patch_15">
    <path clip-path="url(#p02f388fab5)" d="M 189.163636 384.48 
L 189.163636 51.84 
L 192.787013 51.84 
L 192.787013 384.48 
z
" style="fill:#008000;opacity:0.04;"/>
   </g>
   <g id="patch_16">
    <path clip-path="url(#p02f388fab5)" d="M 189.163636 384.48 
L 189.163636 371.1744 
L 192.787013 371.1744 
L 192.787013 384.48 
z
" style="fill:#ffe500;"/>
   </g>
   <g id="patch_17">
    <path clip-path="url(#p02f388fab5)" d="M 196.41039 384.48 
L 196.41039 51.84 
L 200.033766 51.84 
L 200.033766 384.48 
z
" style="fill:#008000;opacity:0.04;"/>
   </g>
   <g id="patch_18">
    <path clip-path="url(#p02f388fab5)" d="M 203.657143 384.48 
L 203.657143 51.84 
L 207.280519 51.84 
L 207.280519 384.48 
z
" style="fill:#008000;opacity:0.04;"/>
   </g>
   <g id="patch_19">
    <path clip-path="url(#p02f388fab5)" d="M 446.423377 384.48 
L 446.423377 371.1744 
L 450.046753 371.1744 
L 450.046753 384.48 
z
" style="fill:#ff6600;"/>
   </g>
   <g id="patch_20">
    <path clip-path="url(#p02f388fab5)" d="M 207.280519 384.48 
L 207.280519 371.1744 
L 210.903896 371.1744 
L 210.903896 384.48 
z
" style="fill:#ffe500;"/>
   </g>
   <g id="patch_21">
    <path clip-path="url(#p02f388fab5)" d="M 210.903896 384.48 
L 210.903896 51.84 
L 214.527273 51.84 
L 214.527273 384.48 
z
" style="fill:#008000;opacity:0.04;"/>
   </g>
   <g id="patch_22">
    <path clip-path="url(#p02f388fab5)" d="M 214.527273 384.48 
L 214.527273 371.1744 
L 218.150649 371.1744 
L 218.150649 384.48 
z
" style="fill:#ffe500;"/>
   </g>
   <g id="patch_23">
    <path clip-path="url(#p02f388fab5)" d="M 218.150649 384.48 
L 218.150649 51.84 
L 221.774026 51.84 
L 221.774026 384.48 
z
" style="fill:#008000;opacity:0.04;"/>
   </g>
   <g id="patch_24">
    <path clip-path="url(#p02f388fab5)" d="M 225.397403 384.48 
L 225.397403 51.84 
L 229.020779 51.84 
L 229.020779 384.48 
z
" style="fill:#008000;opacity:0.04;"/>
   </g>
   <g id="patch_25">
    <path clip-path="url(#p02f388fab5)" d="M 232.644156 384.48 
L 232.644156 51.84 
L 236.267532 51.84 
L 236.267532 384.48 
z
" style="fill:#008000;opacity:0.04;"/>
   </g>
   <g id="patch_26">
    <path clip-path="url(#p02f388fab5)" d="M 239.890909 384.48 
L 239.890909 51.84 
L 243.514286 51.84 
L 243.514286 384.48 
z
" style="fill:#008000;opacity:0.04;"/>
   </g>
   <g id="patch_27">
    <path clip-path="url(#p02f388fab5)" d="M 239.890909 384.48 
L 239.890909 371.1744 
L 243.514286 371.1744 
L 243.514286 384.48 
z
" style="fill:#ffe500;"/>
   </g>
   <g id="patch_28">
    <path clip-path="url(#p02f388fab5)" d="M 243.514286 384.48 
L 243.514286 371.1744 
L 247.137662 371.1744 
L 247.137662 384.48 
z
" style="fill:#ffe500;"/>
   </g>
   <g id="patch_29">
    <path clip-path="url(#p02f388fab5)" d="M 247.137662 384.48 
L 247.137662 51.84 
L 250.761039 51.84 
L 250.761039 384.48 
z
" style="fill:#008000;opacity:0.04;"/>
   </g>
   <g id="patch_30">
    <path clip-path="url(#p02f388fab5)" d="M 254.384416 384.48 
L 254.384416 51.84 
L 258.007792 51.84 
L 258.007792 384.48 
z
" style="fill:#008000;opacity:0.04;"/>
   </g>
   <g id="patch_31">
    <path clip-path="url(#p02f388fab5)" d="M 258.007792 384.48 
L 258.007792 371.1744 
L 261.631169 371.1744 
L 261.631169 384.48 
z
" style="fill:#ffe500;"/>
   </g>
   <g id="patch_32">
    <path clip-path="url(#p02f388fab5)" d="M 261.631169 384.48 
L 261.631169 51.84 
L 265.254545 51.84 
L 265.254545 384.48 
z
" style="fill:#008000;opacity:0.04;"/>
   </g>
   <g id="patch_33">
    <path clip-path="url(#p02f388fab5)" d="M 268.877922 384.48 
L 268.877922 51.84 
L 272.501299 51.84 
L 272.501299 384.48 
z
" style="fill:#008000;opacity:0.04;"/>
   </g>
   <g id="patch_34">
    <path clip-path="url(#p02f388fab5)" d="M 268.877922 384.48 
L 268.877922 371.1744 
L 272.501299 371.1744 
L 272.501299 384.48 
z
" style="fill:#ffe500;"/>
   </g>
   <g id="patch_35">
    <path clip-path="url(#p02f388fab5)" d="M 276.124675 384.48 
L 276.124675 51.84 
L 279.748052 51.84 
L 279.748052 384.48 
z
" style="fill:#008000;opacity:0.04;"/>
   </g>
   <g id="patch_36">
    <path clip-path="url(#p02f388fab5)" d="M 283.371429 384.48 
L 283.371429 51.84 
L 286.994805 51.84 
L 286.994805 384.48 
z
" style="fill:#008000;opacity:0.04;"/>
   </g>
   <g id="patch_37">
    <path clip-path="url(#p02f388fab5)" d="M 286.994805 371.1744 
L 286.994805 357.8688 
L 290.618182 357.8688 
L 290.618182 371.1744 
z
" style="fill:#ff00ff;"/>
   </g>
   <g id="patch_38">
    <path clip-path="url(#p02f388fab5)" d="M 290.618182 384.48 
L 290.618182 51.84 
L 294.241558 51.84 
L 294.241558 384.48 
z
" style="fill:#008000;opacity:0.04;"/>
   </g>
   <g id="patch_39">
    <path clip-path="url(#p02f388fab5)" d="M 290.618182 384.48 
L 290.618182 371.1744 
L 294.241558 371.1744 
L 294.241558 384.48 
z
" style="fill:#ffe500;"/>
   </g>
   <g id="patch_40">
    <path clip-path="url(#p02f388fab5)" d="M 297.864935 384.48 
L 297.864935 51.84 
L 301.488312 51.84 
L 301.488312 384.48 
z
" style="fill:#008000;opacity:0.04;"/>
   </g>
   <g id="patch_41">
    <path clip-path="url(#p02f388fab5)" d="M 297.864935 384.48 
L 297.864935 371.1744 
L 301.488312 371.1744 
L 301.488312 384.48 
z
" style="fill:#ffe500;"/>
   </g>
   <g id="patch_42">
    <path clip-path="url(#p02f388fab5)" d="M 305.111688 384.48 
L 305.111688 51.84 
L 308.735065 51.84 
L 308.735065 384.48 
z
" style="fill:#008000;opacity:0.04;"/>
   </g>
   <g id="patch_43">
    <path clip-path="url(#p02f388fab5)" d="M 312.358442 384.48 
L 312.358442 51.84 
L 315.981818 51.84 
L 315.981818 384.48 
z
" style="fill:#008000;opacity:0.04;"/>
   </g>
   <g id="patch_44">
    <path clip-path="url(#p02f388fab5)" d="M 319.605195 384.48 
L 319.605195 51.84 
L 323.228571 51.84 
L 323.228571 384.48 
z
" style="fill:#008000;opacity:0.04;"/>
   </g>
   <g id="patch_45">
    <path clip-path="url(#p02f388fab5)" d="M 323.228571 384.48 
L 323.228571 371.1744 
L 326.851948 371.1744 
L 326.851948 384.48 
z
" style="fill:#ffe500;"/>
   </g>
   <g id="patch_46">
    <path clip-path="url(#p02f388fab5)" d="M 326.851948 384.48 
L 326.851948 51.84 
L 330.475325 51.84 
L 330.475325 384.48 
z
" style="fill:#008000;opacity:0.04;"/>
   </g>
   <g id="patch_47">
    <path clip-path="url(#p02f388fab5)" d="M 334.098701 384.48 
L 334.098701 51.84 
L 337.722078 51.84 
L 337.722078 384.48 
z
" style="fill:#008000;opacity:0.04;"/>
   </g>
   <g id="patch_48">
    <path clip-path="url(#p02f388fab5)" d="M 341.345455 384.48 
L 341.345455 51.84 
L 344.968831 51.84 
L 344.968831 384.48 
z
" style="fill:#008000;opacity:0.04;"/>
   </g>
   <g id="patch_49">
    <path clip-path="url(#p02f388fab5)" d="M 341.345455 384.48 
L 341.345455 371.1744 
L 344.968831 371.1744 
L 344.968831 384.48 
z
" style="fill:#ffe500;"/>
   </g>
   <g id="patch_50">
    <path clip-path="url(#p02f388fab5)" d="M 348.592208 384.48 
L 348.592208 51.84 
L 352.215584 51.84 
L 352.215584 384.48 
z
" style="fill:#008000;opacity:0.04;"/>
   </g>
   <g id="patch_51">
    <path clip-path="url(#p02f388fab5)" d="M 355.838961 384.48 
L 355.838961 51.84 
L 359.462338 51.84 
L 359.462338 384.48 
z
" style="fill:#008000;opacity:0.04;"/>
   </g>
   <g id="patch_52">
    <path clip-path="url(#p02f388fab5)" d="M 363.085714 384.48 
L 363.085714 51.84 
L 366.709091 51.84 
L 366.709091 384.48 
z
" style="fill:#008000;opacity:0.04;"/>
   </g>
   <g id="patch_53">
    <path clip-path="url(#p02f388fab5)" d="M 366.709091 384.48 
L 366.709091 371.1744 
L 370.332468 371.1744 
L 370.332468 384.48 
z
" style="fill:#ffe500;"/>
   </g>
   <g id="patch_54">
    <path clip-path="url(#p02f388fab5)" d="M 370.332468 384.48 
L 370.332468 51.84 
L 373.955844 51.84 
L 373.955844 384.48 
z
" style="fill:#008000;opacity:0.04;"/>
   </g>
   <g id="patch_55">
    <path clip-path="url(#p02f388fab5)" d="M 377.579221 384.48 
L 377.579221 51.84 
L 381.202597 51.84 
L 381.202597 384.48 
z
" style="fill:#008000;opacity:0.04;"/>
   </g>
   <g id="patch_56">
    <path clip-path="url(#p02f388fab5)" d="M 377.579221 384.48 
L 377.579221 371.1744 
L 381.202597 371.1744 
L 381.202597 384.48 
z
" style="fill:#ffe500;"/>
   </g>
   <g id="patch_57">
    <path clip-path="url(#p02f388fab5)" d="M 384.825974 384.48 
L 384.825974 51.84 
L 388.449351 51.84 
L 388.449351 384.48 
z
" style="fill:#008000;opacity:0.04;"/>
   </g>
   <g id="patch_58">
    <path clip-path="url(#p02f388fab5)" d="M 392.072727 384.48 
L 392.072727 51.84 
L 395.696104 51.84 
L 395.696104 384.48 
z
" style="fill:#008000;opacity:0.04;"/>
   </g>
   <g id="patch_59">
    <path clip-path="url(#p02f388fab5)" d="M 399.319481 384.48 
L 399.319481 51.84 
L 402.942857 51.84 
L 402.942857 384.48 
z
" style="fill:#008000;opacity:0.04;"/>
   </g>
   <g id="patch_60">
    <path clip-path="url(#p02f388fab5)" d="M 406.566234 384.48 
L 406.566234 51.84 
L 410.18961 51.84 
L 410.18961 384.48 
z
" style="fill:#008000;opacity:0.04;"/>
   </g>
   <g id="patch_61">
    <path clip-path="url(#p02f388fab5)" d="M 413.812987 384.48 
L 413.812987 51.84 
L 417.436364 51.84 
L 417.436364 384.48 
z
" style="fill:#008000;opacity:0.04;"/>
   </g>
   <g id="patch_62">
    <path clip-path="url(#p02f388fab5)" d="M 421.05974 384.48 
L 421.05974 51.84 
L 424.683117 51.84 
L 424.683117 384.48 
z
" style="fill:#008000;opacity:0.04;"/>
   </g>
   <g id="patch_63">
    <path clip-path="url(#p02f388fab5)" d="M 428.306494 384.48 
L 428.306494 51.84 
L 431.92987 51.84 
L 431.92987 384.48 
z
" style="fill:#008000;opacity:0.04;"/>
   </g>
   <g id="patch_64">
    <path clip-path="url(#p02f388fab5)" d="M 435.553247 384.48 
L 435.553247 51.84 
L 439.176623 51.84 
L 439.176623 384.48 
z
" style="fill:#008000;opacity:0.04;"/>
   </g>
   <g id="patch_65">
    <path clip-path="url(#p02f388fab5)" d="M 442.8 384.48 
L 442.8 51.84 
L 446.423377 51.84 
L 446.423377 384.48 
z
" style="fill:#008000;opacity:0.04;"/>
   </g>
   <g id="patch_66">
    <path clip-path="url(#p02f388fab5)" d="M 446.423377 371.1744 
L 446.423377 51.84 
L 450.046753 51.84 
L 450.046753 371.1744 
z
" style="fill:#008000;opacity:0.5;"/>
   </g>
   <g id="patch_67">
    <path clip-path="url(#p02f388fab5)" d="M 450.046753 384.48 
L 450.046753 51.84 
L 453.67013 51.84 
L 453.67013 384.48 
z
" style="fill:#008000;opacity:0.04;"/>
   </g>
   <g id="patch_68">
    <path clip-path="url(#p02f388fab5)" d="M 457.293506 384.48 
L 457.293506 51.84 
L 460.916883 51.84 
L 460.916883 384.48 
z
" style="fill:#008000;opacity:0.04;"/>
   </g>
   <g id="patch_69">
    <path clip-path="url(#p02f388fab5)" d="M 464.54026 384.48 
L 464.54026 51.84 
L 468.163636 51.84 
L 468.163636 384.48 
z
" style="fill:#008000;opacity:0.04;"/>
   </g>
   <g id="patch_70">
    <path clip-path="url(#p02f388fab5)" d="M 471.787013 384.48 
L 471.787013 51.84 
L 475.41039 51.84 
L 475.41039 384.48 
z
" style="fill:#008000;opacity:0.04;"/>
   </g>
   <g id="patch_71">
    <path clip-path="url(#p02f388fab5)" d="M 479.033766 384.48 
L 479.033766 51.84 
L 482.657143 51.84 
L 482.657143 384.48 
z
" style="fill:#008000;opacity:0.04;"/>
   </g>
   <g id="patch_72">
    <path clip-path="url(#p02f388fab5)" d="M 486.280519 384.48 
L 486.280519 51.84 
L 489.903896 51.84 
L 489.903896 384.48 
z
" style="fill:#008000;opacity:0.04;"/>
   </g>
   <g id="patch_73">
    <path clip-path="url(#p02f388fab5)" d="M 493.527273 384.48 
L 493.527273 51.84 
L 497.150649 51.84 
L 497.150649 384.48 
z
" style="fill:#008000;opacity:0.04;"/>
   </g>
   <g id="patch_74">
    <path clip-path="url(#p02f388fab5)" d="M 500.774026 384.48 
L 500.774026 51.84 
L 504.397403 51.84 
L 504.397403 384.48 
z
" style="fill:#008000;opacity:0.04;"/>
   </g>
   <g id="patch_75">
    <path clip-path="url(#p02f388fab5)" d="M 508.020779 384.48 
L 508.020779 51.84 
L 511.644156 51.84 
L 511.644156 384.48 
z
" style="fill:#008000;opacity:0.04;"/>
   </g>
   <g id="patch_76">
    <path clip-path="url(#p02f388fab5)" d="M 515.267532 384.48 
L 515.267532 51.84 
L 518.890909 51.84 
L 518.890909 384.48 
z
" style="fill:#008000;opacity:0.04;"/>
   </g>
   <g id="patch_77">
    <path clip-path="url(#p02f388fab5)" d="M 522.514286 384.48 
L 522.514286 51.84 
L 526.137662 51.84 
L 526.137662 384.48 
z
" style="fill:#008000;opacity:0.04;"/>
   </g>
   <g id="patch_78">
    <path clip-path="url(#p02f388fab5)" d="M 529.761039 384.48 
L 529.761039 51.84 
L 533.384416 51.84 
L 533.384416 384.48 
z
" style="fill:#008000;opacity:0.04;"/>
   </g>
   <g id="patch_79">
    <path clip-path="url(#p02f388fab5)" d="M 537.007792 384.48 
L 537.007792 51.84 
L 540.631169 51.84 
L 540.631169 384.48 
z
" style="fill:#008000;opacity:0.04;"/>
   </g>
   <g id="patch_80">
    <path clip-path="url(#p02f388fab5)" d="M 544.254545 384.48 
L 544.254545 51.84 
L 547.877922 51.84 
L 547.877922 384.48 
z
" style="fill:#008000;opacity:0.04;"/>
   </g>
   <g id="patch_81">
    <path clip-path="url(#p02f388fab5)" d="M 551.501299 384.48 
L 551.501299 51.84 
L 555.124675 51.84 
L 555.124675 384.48 
z
" style="fill:#008000;opacity:0.04;"/>
   </g>
   <g id="patch_82">
    <path clip-path="url(#p02f388fab5)" d="M 558.748052 384.48 
L 558.748052 51.84 
L 562.371429 51.84 
L 562.371429 384.48 
z
" style="fill:#008000;opacity:0.04;"/>
   </g>
   <g id="patch_83">
    <path clip-path="url(#p02f388fab5)" d="M 565.994805 384.48 
L 565.994805 51.84 
L 569.618182 51.84 
L 569.618182 384.48 
z
" style="fill:#008000;opacity:0.04;"/>
   </g>
   <g id="patch_84">
    <path clip-path="url(#p02f388fab5)" d="M 573.241558 384.48 
L 573.241558 51.84 
L 576.864935 51.84 
L 576.864935 384.48 
z
" style="fill:#008000;opacity:0.04;"/>
   </g>
   <g id="patch_85">
    <path clip-path="url(#p02f388fab5)" d="M 580.488312 384.48 
L 580.488312 51.84 
L 584.111688 51.84 
L 584.111688 384.48 
z
" style="fill:#008000;opacity:0.04;"/>
   </g>
   <g id="patch_86">
    <path clip-path="url(#p02f388fab5)" d="M 587.735065 384.48 
L 587.735065 51.84 
L 591.358442 51.84 
L 591.358442 384.48 
z
" style="fill:#008000;opacity:0.04;"/>
   </g>
   <g id="patch_87">
    <path clip-path="url(#p02f388fab5)" d="M 594.981818 384.48 
L 594.981818 51.84 
L 598.605195 51.84 
L 598.605195 384.48 
z
" style="fill:#008000;opacity:0.04;"/>
   </g>
   <g id="patch_88">
    <path clip-path="url(#p02f388fab5)" d="M 602.228571 384.48 
L 602.228571 51.84 
L 605.851948 51.84 
L 605.851948 384.48 
z
" style="fill:#008000;opacity:0.04;"/>
   </g>
   <g id="patch_89">
    <path clip-path="url(#p02f388fab5)" d="M 609.475325 384.48 
L 609.475325 51.84 
L 613.098701 51.84 
L 613.098701 384.48 
z
" style="fill:#008000;opacity:0.04;"/>
   </g>
   <g id="patch_90">
    <path clip-path="url(#p02f388fab5)" d="M 616.722078 384.48 
L 616.722078 51.84 
L 620.345455 51.84 
L 620.345455 384.48 
z
" style="fill:#008000;opacity:0.04;"/>
   </g>
   <g id="patch_91">
    <path clip-path="url(#p02f388fab5)" d="M 623.968831 384.48 
L 623.968831 51.84 
L 627.592208 51.84 
L 627.592208 384.48 
z
" style="fill:#008000;opacity:0.04;"/>
   </g>
   <g id="patch_92">
    <path clip-path="url(#p02f388fab5)" d="M 631.215584 384.48 
L 631.215584 51.84 
L 634.838961 51.84 
L 634.838961 384.48 
z
" style="fill:#008000;opacity:0.04;"/>
   </g>
   <g id="patch_93">
    <path clip-path="url(#p02f388fab5)" d="M 638.462338 384.48 
L 638.462338 51.84 
L 642.085714 51.84 
L 642.085714 384.48 
z
" style="fill:#008000;opacity:0.04;"/>
   </g>
   <g id="patch_94">
    <path clip-path="url(#p02f388fab5)" d="M 645.709091 384.48 
L 645.709091 51.84 
L 649.332468 51.84 
L 649.332468 384.48 
z
" style="fill:#008000;opacity:0.04;"/>
   </g>
   <g id="patch_95">
    <path clip-path="url(#p02f388fab5)" d="M 652.955844 384.48 
L 652.955844 51.84 
L 656.579221 51.84 
L 656.579221 384.48 
z
" style="fill:#008000;opacity:0.04;"/>
   </g>
   <g id="patch_96">
    <path clip-path="url(#p02f388fab5)" d="M 660.202597 384.48 
L 660.202597 51.84 
L 663.825974 51.84 
L 663.825974 384.48 
z
" style="fill:#008000;opacity:0.04;"/>
   </g>
   <g id="patch_97">
    <path clip-path="url(#p02f388fab5)" d="M 667.449351 384.48 
L 667.449351 51.84 
L 671.072727 51.84 
L 671.072727 384.48 
z
" style="fill:#008000;opacity:0.04;"/>
   </g>
   <g id="patch_98">
    <path clip-path="url(#p02f388fab5)" d="M 674.696104 384.48 
L 674.696104 51.84 
L 678.319481 51.84 
L 678.319481 384.48 
z
" style="fill:#008000;opacity:0.04;"/>
   </g>
   <g id="patch_99">
    <path clip-path="url(#p02f388fab5)" d="M 681.942857 384.48 
L 681.942857 51.84 
L 685.566234 51.84 
L 685.566234 384.48 
z
" style="fill:#008000;opacity:0.04;"/>
   </g>
   <g id="patch_100">
    <path clip-path="url(#p02f388fab5)" d="M 689.18961 384.48 
L 689.18961 51.84 
L 692.812987 51.84 
L 692.812987 384.48 
z
" style="fill:#008000;opacity:0.04;"/>
   </g>
   <g id="patch_101">
    <path clip-path="url(#p02f388fab5)" d="M 696.436364 384.48 
L 696.436364 51.84 
L 700.05974 51.84 
L 700.05974 384.48 
z
" style="fill:#008000;opacity:0.04;"/>
   </g>
   <g id="patch_102">
    <path clip-path="url(#p02f388fab5)" d="M 703.683117 384.48 
L 703.683117 51.84 
L 707.306494 51.84 
L 707.306494 384.48 
z
" style="fill:#008000;opacity:0.04;"/>
   </g>
   <g id="patch_103">
    <path clip-path="url(#p02f388fab5)" d="M 710.92987 384.48 
L 710.92987 51.84 
L 714.553247 51.84 
L 714.553247 384.48 
z
" style="fill:#008000;opacity:0.04;"/>
   </g>
   <g id="patch_104">
    <path clip-path="url(#p02f388fab5)" d="M 718.176623 384.48 
L 718.176623 51.84 
L 721.8 51.84 
L 721.8 384.48 
z
" style="fill:#008000;opacity:0.04;"/>
   </g>
   <g id="patch_105">
    <path clip-path="url(#p02f388fab5)" d="M 725.423377 384.48 
L 725.423377 51.84 
L 729.046753 51.84 
L 729.046753 384.48 
z
" style="fill:#008000;opacity:0.04;"/>
   </g>
   <g id="patch_106">
    <path clip-path="url(#p02f388fab5)" d="M 732.67013 384.48 
L 732.67013 51.84 
L 736.293506 51.84 
L 736.293506 384.48 
z
" style="fill:#008000;opacity:0.04;"/>
   </g>
   <g id="patch_107">
    <path clip-path="url(#p02f388fab5)" d="M 739.916883 384.48 
L 739.916883 51.84 
L 743.54026 51.84 
L 743.54026 384.48 
z
" style="fill:#008000;opacity:0.04;"/>
   </g>
   <g id="matplotlib.axis_1">
    <g id="xtick_1">
     <g id="line2d_1">
      <defs>
       <path d="M 0 0 
L 0 3.5 
" id="mf706e8365d" style="stroke:#000000;stroke-width:0.8;"/>
      </defs>
      <g>
       <use style="stroke:#000000;stroke-width:0.8;" x="138.436364" xlink:href="#mf706e8365d" y="384.48"/>
      </g>
     </g>
     <g id="text_1">
      <!-- 0 -->
      <defs>
       <path d="M 31.78125 66.40625 
Q 24.171875 66.40625 20.328125 58.90625 
Q 16.5 51.421875 16.5 36.375 
Q 16.5 21.390625 20.328125 13.890625 
Q 24.171875 6.390625 31.78125 6.390625 
Q 39.453125 6.390625 43.28125 13.890625 
Q 47.125 21.390625 47.125 36.375 
Q 47.125 51.421875 43.28125 58.90625 
Q 39.453125 66.40625 31.78125 66.40625 
z
M 31.78125 74.21875 
Q 44.046875 74.21875 50.515625 64.515625 
Q 56.984375 54.828125 56.984375 36.375 
Q 56.984375 17.96875 50.515625 8.265625 
Q 44.046875 -1.421875 31.78125 -1.421875 
Q 19.53125 -1.421875 13.0625 8.265625 
Q 6.59375 17.96875 6.59375 36.375 
Q 6.59375 54.828125 13.0625 64.515625 
Q 19.53125 74.21875 31.78125 74.21875 
z
" id="DejaVuSans-48"/>
      </defs>
      <g transform="translate(135.255114 399.078438)scale(0.1 -0.1)">
       <use xlink:href="#DejaVuSans-48"/>
      </g>
     </g>
    </g>
    <g id="xtick_2">
     <g id="line2d_2">
      <g>
       <use style="stroke:#000000;stroke-width:0.8;" x="229.020779" xlink:href="#mf706e8365d" y="384.48"/>
      </g>
     </g>
     <g id="text_2">
      <!-- 250 -->
      <defs>
       <path d="M 19.1875 8.296875 
L 53.609375 8.296875 
L 53.609375 0 
L 7.328125 0 
L 7.328125 8.296875 
Q 12.9375 14.109375 22.625 23.890625 
Q 32.328125 33.6875 34.8125 36.53125 
Q 39.546875 41.84375 41.421875 45.53125 
Q 43.3125 49.21875 43.3125 52.78125 
Q 43.3125 58.59375 39.234375 62.25 
Q 35.15625 65.921875 28.609375 65.921875 
Q 23.96875 65.921875 18.8125 64.3125 
Q 13.671875 62.703125 7.8125 59.421875 
L 7.8125 69.390625 
Q 13.765625 71.78125 18.9375 73 
Q 24.125 74.21875 28.421875 74.21875 
Q 39.75 74.21875 46.484375 68.546875 
Q 53.21875 62.890625 53.21875 53.421875 
Q 53.21875 48.921875 51.53125 44.890625 
Q 49.859375 40.875 45.40625 35.40625 
Q 44.1875 33.984375 37.640625 27.21875 
Q 31.109375 20.453125 19.1875 8.296875 
z
" id="DejaVuSans-50"/>
       <path d="M 10.796875 72.90625 
L 49.515625 72.90625 
L 49.515625 64.59375 
L 19.828125 64.59375 
L 19.828125 46.734375 
Q 21.96875 47.46875 24.109375 47.828125 
Q 26.265625 48.1875 28.421875 48.1875 
Q 40.625 48.1875 47.75 41.5 
Q 54.890625 34.8125 54.890625 23.390625 
Q 54.890625 11.625 47.5625 5.09375 
Q 40.234375 -1.421875 26.90625 -1.421875 
Q 22.3125 -1.421875 17.546875 -0.640625 
Q 12.796875 0.140625 7.71875 1.703125 
L 7.71875 11.625 
Q 12.109375 9.234375 16.796875 8.0625 
Q 21.484375 6.890625 26.703125 6.890625 
Q 35.15625 6.890625 40.078125 11.328125 
Q 45.015625 15.765625 45.015625 23.390625 
Q 45.015625 31 40.078125 35.4375 
Q 35.15625 39.890625 26.703125 39.890625 
Q 22.75 39.890625 18.8125 39.015625 
Q 14.890625 38.140625 10.796875 36.28125 
z
" id="DejaVuSans-53"/>
      </defs>
      <g transform="translate(219.477029 399.078438)scale(0.1 -0.1)">
       <use xlink:href="#DejaVuSans-50"/>
       <use x="63.623047" xlink:href="#DejaVuSans-53"/>
       <use x="127.246094" xlink:href="#DejaVuSans-48"/>
      </g>
     </g>
    </g>
    <g id="xtick_3">
     <g id="line2d_3">
      <g>
       <use style="stroke:#000000;stroke-width:0.8;" x="319.605195" xlink:href="#mf706e8365d" y="384.48"/>
      </g>
     </g>
     <g id="text_3">
      <!-- 500 -->
      <g transform="translate(310.061445 399.078438)scale(0.1 -0.1)">
       <use xlink:href="#DejaVuSans-53"/>
       <use x="63.623047" xlink:href="#DejaVuSans-48"/>
       <use x="127.246094" xlink:href="#DejaVuSans-48"/>
      </g>
     </g>
    </g>
    <g id="xtick_4">
     <g id="line2d_4">
      <g>
       <use style="stroke:#000000;stroke-width:0.8;" x="410.18961" xlink:href="#mf706e8365d" y="384.48"/>
      </g>
     </g>
     <g id="text_4">
      <!-- 750 -->
      <defs>
       <path d="M 8.203125 72.90625 
L 55.078125 72.90625 
L 55.078125 68.703125 
L 28.609375 0 
L 18.3125 0 
L 43.21875 64.59375 
L 8.203125 64.59375 
z
" id="DejaVuSans-55"/>
      </defs>
      <g transform="translate(400.64586 399.078438)scale(0.1 -0.1)">
       <use xlink:href="#DejaVuSans-55"/>
       <use x="63.623047" xlink:href="#DejaVuSans-53"/>
       <use x="127.246094" xlink:href="#DejaVuSans-48"/>
      </g>
     </g>
    </g>
    <g id="xtick_5">
     <g id="line2d_5">
      <g>
       <use style="stroke:#000000;stroke-width:0.8;" x="500.774026" xlink:href="#mf706e8365d" y="384.48"/>
      </g>
     </g>
     <g id="text_5">
      <!-- 1000 -->
      <defs>
       <path d="M 12.40625 8.296875 
L 28.515625 8.296875 
L 28.515625 63.921875 
L 10.984375 60.40625 
L 10.984375 69.390625 
L 28.421875 72.90625 
L 38.28125 72.90625 
L 38.28125 8.296875 
L 54.390625 8.296875 
L 54.390625 0 
L 12.40625 0 
z
" id="DejaVuSans-49"/>
      </defs>
      <g transform="translate(488.049026 399.078438)scale(0.1 -0.1)">
       <use xlink:href="#DejaVuSans-49"/>
       <use x="63.623047" xlink:href="#DejaVuSans-48"/>
       <use x="127.246094" xlink:href="#DejaVuSans-48"/>
       <use x="190.869141" xlink:href="#DejaVuSans-48"/>
      </g>
     </g>
    </g>
    <g id="xtick_6">
     <g id="line2d_6">
      <g>
       <use style="stroke:#000000;stroke-width:0.8;" x="591.358442" xlink:href="#mf706e8365d" y="384.48"/>
      </g>
     </g>
     <g id="text_6">
      <!-- 1250 -->
      <g transform="translate(578.633442 399.078438)scale(0.1 -0.1)">
       <use xlink:href="#DejaVuSans-49"/>
       <use x="63.623047" xlink:href="#DejaVuSans-50"/>
       <use x="127.246094" xlink:href="#DejaVuSans-53"/>
       <use x="190.869141" xlink:href="#DejaVuSans-48"/>
      </g>
     </g>
    </g>
    <g id="xtick_7">
     <g id="line2d_7">
      <g>
       <use style="stroke:#000000;stroke-width:0.8;" x="681.942857" xlink:href="#mf706e8365d" y="384.48"/>
      </g>
     </g>
     <g id="text_7">
      <!-- 1500 -->
      <g transform="translate(669.217857 399.078438)scale(0.1 -0.1)">
       <use xlink:href="#DejaVuSans-49"/>
       <use x="63.623047" xlink:href="#DejaVuSans-53"/>
       <use x="127.246094" xlink:href="#DejaVuSans-48"/>
       <use x="190.869141" xlink:href="#DejaVuSans-48"/>
      </g>
     </g>
    </g>
    <g id="xtick_8">
     <g id="line2d_8">
      <g>
       <use style="stroke:#000000;stroke-width:0.8;" x="772.527273" xlink:href="#mf706e8365d" y="384.48"/>
      </g>
     </g>
     <g id="text_8">
      <!-- 1750 -->
      <g transform="translate(759.802273 399.078438)scale(0.1 -0.1)">
       <use xlink:href="#DejaVuSans-49"/>
       <use x="63.623047" xlink:href="#DejaVuSans-55"/>
       <use x="127.246094" xlink:href="#DejaVuSans-53"/>
       <use x="190.869141" xlink:href="#DejaVuSans-48"/>
      </g>
     </g>
    </g>
    <g id="text_9">
     <!-- Timestamp -->
     <defs>
      <path d="M -0.296875 72.90625 
L 61.375 72.90625 
L 61.375 64.59375 
L 35.5 64.59375 
L 35.5 0 
L 25.59375 0 
L 25.59375 64.59375 
L -0.296875 64.59375 
z
" id="DejaVuSans-84"/>
      <path d="M 9.421875 54.6875 
L 18.40625 54.6875 
L 18.40625 0 
L 9.421875 0 
z
M 9.421875 75.984375 
L 18.40625 75.984375 
L 18.40625 64.59375 
L 9.421875 64.59375 
z
" id="DejaVuSans-105"/>
      <path d="M 52 44.1875 
Q 55.375 50.25 60.0625 53.125 
Q 64.75 56 71.09375 56 
Q 79.640625 56 84.28125 50.015625 
Q 88.921875 44.046875 88.921875 33.015625 
L 88.921875 0 
L 79.890625 0 
L 79.890625 32.71875 
Q 79.890625 40.578125 77.09375 44.375 
Q 74.3125 48.1875 68.609375 48.1875 
Q 61.625 48.1875 57.5625 43.546875 
Q 53.515625 38.921875 53.515625 30.90625 
L 53.515625 0 
L 44.484375 0 
L 44.484375 32.71875 
Q 44.484375 40.625 41.703125 44.40625 
Q 38.921875 48.1875 33.109375 48.1875 
Q 26.21875 48.1875 22.15625 43.53125 
Q 18.109375 38.875 18.109375 30.90625 
L 18.109375 0 
L 9.078125 0 
L 9.078125 54.6875 
L 18.109375 54.6875 
L 18.109375 46.1875 
Q 21.1875 51.21875 25.484375 53.609375 
Q 29.78125 56 35.6875 56 
Q 41.65625 56 45.828125 52.96875 
Q 50 49.953125 52 44.1875 
z
" id="DejaVuSans-109"/>
      <path d="M 56.203125 29.59375 
L 56.203125 25.203125 
L 14.890625 25.203125 
Q 15.484375 15.921875 20.484375 11.0625 
Q 25.484375 6.203125 34.421875 6.203125 
Q 39.59375 6.203125 44.453125 7.46875 
Q 49.3125 8.734375 54.109375 11.28125 
L 54.109375 2.78125 
Q 49.265625 0.734375 44.1875 -0.34375 
Q 39.109375 -1.421875 33.890625 -1.421875 
Q 20.796875 -1.421875 13.15625 6.1875 
Q 5.515625 13.8125 5.515625 26.8125 
Q 5.515625 40.234375 12.765625 48.109375 
Q 20.015625 56 32.328125 56 
Q 43.359375 56 49.78125 48.890625 
Q 56.203125 41.796875 56.203125 29.59375 
z
M 47.21875 32.234375 
Q 47.125 39.59375 43.09375 43.984375 
Q 39.0625 48.390625 32.421875 48.390625 
Q 24.90625 48.390625 20.390625 44.140625 
Q 15.875 39.890625 15.1875 32.171875 
z
" id="DejaVuSans-101"/>
      <path d="M 44.28125 53.078125 
L 44.28125 44.578125 
Q 40.484375 46.53125 36.375 47.5 
Q 32.28125 48.484375 27.875 48.484375 
Q 21.1875 48.484375 17.84375 46.4375 
Q 14.5 44.390625 14.5 40.28125 
Q 14.5 37.15625 16.890625 35.375 
Q 19.28125 33.59375 26.515625 31.984375 
L 29.59375 31.296875 
Q 39.15625 29.25 43.1875 25.515625 
Q 47.21875 21.78125 47.21875 15.09375 
Q 47.21875 7.46875 41.1875 3.015625 
Q 35.15625 -1.421875 24.609375 -1.421875 
Q 20.21875 -1.421875 15.453125 -0.5625 
Q 10.6875 0.296875 5.421875 2 
L 5.421875 11.28125 
Q 10.40625 8.6875 15.234375 7.390625 
Q 20.0625 6.109375 24.8125 6.109375 
Q 31.15625 6.109375 34.5625 8.28125 
Q 37.984375 10.453125 37.984375 14.40625 
Q 37.984375 18.0625 35.515625 20.015625 
Q 33.0625 21.96875 24.703125 23.78125 
L 21.578125 24.515625 
Q 13.234375 26.265625 9.515625 29.90625 
Q 5.8125 33.546875 5.8125 39.890625 
Q 5.8125 47.609375 11.28125 51.796875 
Q 16.75 56 26.8125 56 
Q 31.78125 56 36.171875 55.265625 
Q 40.578125 54.546875 44.28125 53.078125 
z
" id="DejaVuSans-115"/>
      <path d="M 18.3125 70.21875 
L 18.3125 54.6875 
L 36.8125 54.6875 
L 36.8125 47.703125 
L 18.3125 47.703125 
L 18.3125 18.015625 
Q 18.3125 11.328125 20.140625 9.421875 
Q 21.96875 7.515625 27.59375 7.515625 
L 36.8125 7.515625 
L 36.8125 0 
L 27.59375 0 
Q 17.1875 0 13.234375 3.875 
Q 9.28125 7.765625 9.28125 18.015625 
L 9.28125 47.703125 
L 2.6875 47.703125 
L 2.6875 54.6875 
L 9.28125 54.6875 
L 9.28125 70.21875 
z
" id="DejaVuSans-116"/>
      <path d="M 34.28125 27.484375 
Q 23.390625 27.484375 19.1875 25 
Q 14.984375 22.515625 14.984375 16.5 
Q 14.984375 11.71875 18.140625 8.90625 
Q 21.296875 6.109375 26.703125 6.109375 
Q 34.1875 6.109375 38.703125 11.40625 
Q 43.21875 16.703125 43.21875 25.484375 
L 43.21875 27.484375 
z
M 52.203125 31.203125 
L 52.203125 0 
L 43.21875 0 
L 43.21875 8.296875 
Q 40.140625 3.328125 35.546875 0.953125 
Q 30.953125 -1.421875 24.3125 -1.421875 
Q 15.921875 -1.421875 10.953125 3.296875 
Q 6 8.015625 6 15.921875 
Q 6 25.140625 12.171875 29.828125 
Q 18.359375 34.515625 30.609375 34.515625 
L 43.21875 34.515625 
L 43.21875 35.40625 
Q 43.21875 41.609375 39.140625 45 
Q 35.0625 48.390625 27.6875 48.390625 
Q 23 48.390625 18.546875 47.265625 
Q 14.109375 46.140625 10.015625 43.890625 
L 10.015625 52.203125 
Q 14.9375 54.109375 19.578125 55.046875 
Q 24.21875 56 28.609375 56 
Q 40.484375 56 46.34375 49.84375 
Q 52.203125 43.703125 52.203125 31.203125 
z
" id="DejaVuSans-97"/>
      <path d="M 18.109375 8.203125 
L 18.109375 -20.796875 
L 9.078125 -20.796875 
L 9.078125 54.6875 
L 18.109375 54.6875 
L 18.109375 46.390625 
Q 20.953125 51.265625 25.265625 53.625 
Q 29.59375 56 35.59375 56 
Q 45.5625 56 51.78125 48.09375 
Q 58.015625 40.1875 58.015625 27.296875 
Q 58.015625 14.40625 51.78125 6.484375 
Q 45.5625 -1.421875 35.59375 -1.421875 
Q 29.59375 -1.421875 25.265625 0.953125 
Q 20.953125 3.328125 18.109375 8.203125 
z
M 48.6875 27.296875 
Q 48.6875 37.203125 44.609375 42.84375 
Q 40.53125 48.484375 33.40625 48.484375 
Q 26.265625 48.484375 22.1875 42.84375 
Q 18.109375 37.203125 18.109375 27.296875 
Q 18.109375 17.390625 22.1875 11.75 
Q 26.265625 6.109375 33.40625 6.109375 
Q 40.53125 6.109375 44.609375 11.75 
Q 48.6875 17.390625 48.6875 27.296875 
z
" id="DejaVuSans-112"/>
     </defs>
     <g transform="translate(414.739062 412.756563)scale(0.1 -0.1)">
      <use xlink:href="#DejaVuSans-84"/>
      <use x="61.037109" xlink:href="#DejaVuSans-105"/>
      <use x="88.820312" xlink:href="#DejaVuSans-109"/>
      <use x="186.232422" xlink:href="#DejaVuSans-101"/>
      <use x="247.755859" xlink:href="#DejaVuSans-115"/>
      <use x="299.855469" xlink:href="#DejaVuSans-116"/>
      <use x="339.064453" xlink:href="#DejaVuSans-97"/>
      <use x="400.34375" xlink:href="#DejaVuSans-109"/>
      <use x="497.755859" xlink:href="#DejaVuSans-112"/>
     </g>
    </g>
   </g>
   <g id="matplotlib.axis_2">
    <g id="ytick_1">
     <g id="line2d_9">
      <defs>
       <path d="M 0 0 
L -3.5 0 
" id="m84c5a7e9ac" style="stroke:#000000;stroke-width:0.8;"/>
      </defs>
      <g>
       <use style="stroke:#000000;stroke-width:0.8;" x="108" xlink:href="#m84c5a7e9ac" y="381.73469"/>
      </g>
     </g>
     <g id="text_10">
      <!-- −1500 -->
      <defs>
       <path d="M 10.59375 35.5 
L 73.1875 35.5 
L 73.1875 27.203125 
L 10.59375 27.203125 
z
" id="DejaVuSans-8722"/>
      </defs>
      <g transform="translate(67.170312 385.533909)scale(0.1 -0.1)">
       <use xlink:href="#DejaVuSans-8722"/>
       <use x="83.789062" xlink:href="#DejaVuSans-49"/>
       <use x="147.412109" xlink:href="#DejaVuSans-53"/>
       <use x="211.035156" xlink:href="#DejaVuSans-48"/>
       <use x="274.658203" xlink:href="#DejaVuSans-48"/>
      </g>
     </g>
    </g>
    <g id="ytick_2">
     <g id="line2d_10">
      <g>
       <use style="stroke:#000000;stroke-width:0.8;" x="108" xlink:href="#m84c5a7e9ac" y="339.803651"/>
      </g>
     </g>
     <g id="text_11">
      <!-- −1000 -->
      <g transform="translate(67.170312 343.60287)scale(0.1 -0.1)">
       <use xlink:href="#DejaVuSans-8722"/>
       <use x="83.789062" xlink:href="#DejaVuSans-49"/>
       <use x="147.412109" xlink:href="#DejaVuSans-48"/>
       <use x="211.035156" xlink:href="#DejaVuSans-48"/>
       <use x="274.658203" xlink:href="#DejaVuSans-48"/>
      </g>
     </g>
    </g>
    <g id="ytick_3">
     <g id="line2d_11">
      <g>
       <use style="stroke:#000000;stroke-width:0.8;" x="108" xlink:href="#m84c5a7e9ac" y="297.872612"/>
      </g>
     </g>
     <g id="text_12">
      <!-- −500 -->
      <g transform="translate(73.532813 301.671831)scale(0.1 -0.1)">
       <use xlink:href="#DejaVuSans-8722"/>
       <use x="83.789062" xlink:href="#DejaVuSans-53"/>
       <use x="147.412109" xlink:href="#DejaVuSans-48"/>
       <use x="211.035156" xlink:href="#DejaVuSans-48"/>
      </g>
     </g>
    </g>
    <g id="ytick_4">
     <g id="line2d_12">
      <g>
       <use style="stroke:#000000;stroke-width:0.8;" x="108" xlink:href="#m84c5a7e9ac" y="255.941573"/>
      </g>
     </g>
     <g id="text_13">
      <!-- 0 -->
      <g transform="translate(94.6375 259.740792)scale(0.1 -0.1)">
       <use xlink:href="#DejaVuSans-48"/>
      </g>
     </g>
    </g>
    <g id="ytick_5">
     <g id="line2d_13">
      <g>
       <use style="stroke:#000000;stroke-width:0.8;" x="108" xlink:href="#m84c5a7e9ac" y="214.010534"/>
      </g>
     </g>
     <g id="text_14">
      <!-- 500 -->
      <g transform="translate(81.9125 217.809753)scale(0.1 -0.1)">
       <use xlink:href="#DejaVuSans-53"/>
       <use x="63.623047" xlink:href="#DejaVuSans-48"/>
       <use x="127.246094" xlink:href="#DejaVuSans-48"/>
      </g>
     </g>
    </g>
    <g id="ytick_6">
     <g id="line2d_14">
      <g>
       <use style="stroke:#000000;stroke-width:0.8;" x="108" xlink:href="#m84c5a7e9ac" y="172.079495"/>
      </g>
     </g>
     <g id="text_15">
      <!-- 1000 -->
      <g transform="translate(75.55 175.878714)scale(0.1 -0.1)">
       <use xlink:href="#DejaVuSans-49"/>
       <use x="63.623047" xlink:href="#DejaVuSans-48"/>
       <use x="127.246094" xlink:href="#DejaVuSans-48"/>
       <use x="190.869141" xlink:href="#DejaVuSans-48"/>
      </g>
     </g>
    </g>
    <g id="ytick_7">
     <g id="line2d_15">
      <g>
       <use style="stroke:#000000;stroke-width:0.8;" x="108" xlink:href="#m84c5a7e9ac" y="130.148456"/>
      </g>
     </g>
     <g id="text_16">
      <!-- 1500 -->
      <g transform="translate(75.55 133.947675)scale(0.1 -0.1)">
       <use xlink:href="#DejaVuSans-49"/>
       <use x="63.623047" xlink:href="#DejaVuSans-53"/>
       <use x="127.246094" xlink:href="#DejaVuSans-48"/>
       <use x="190.869141" xlink:href="#DejaVuSans-48"/>
      </g>
     </g>
    </g>
    <g id="ytick_8">
     <g id="line2d_16">
      <g>
       <use style="stroke:#000000;stroke-width:0.8;" x="108" xlink:href="#m84c5a7e9ac" y="88.217417"/>
      </g>
     </g>
     <g id="text_17">
      <!-- 2000 -->
      <g transform="translate(75.55 92.016636)scale(0.1 -0.1)">
       <use xlink:href="#DejaVuSans-50"/>
       <use x="63.623047" xlink:href="#DejaVuSans-48"/>
       <use x="127.246094" xlink:href="#DejaVuSans-48"/>
       <use x="190.869141" xlink:href="#DejaVuSans-48"/>
      </g>
     </g>
    </g>
    <g id="text_18">
     <!-- Value -->
     <defs>
      <path d="M 28.609375 0 
L 0.78125 72.90625 
L 11.078125 72.90625 
L 34.1875 11.53125 
L 57.328125 72.90625 
L 67.578125 72.90625 
L 39.796875 0 
z
" id="DejaVuSans-86"/>
      <path d="M 9.421875 75.984375 
L 18.40625 75.984375 
L 18.40625 0 
L 9.421875 0 
z
" id="DejaVuSans-108"/>
      <path d="M 8.5 21.578125 
L 8.5 54.6875 
L 17.484375 54.6875 
L 17.484375 21.921875 
Q 17.484375 14.15625 20.5 10.265625 
Q 23.53125 6.390625 29.59375 6.390625 
Q 36.859375 6.390625 41.078125 11.03125 
Q 45.3125 15.671875 45.3125 23.6875 
L 45.3125 54.6875 
L 54.296875 54.6875 
L 54.296875 0 
L 45.3125 0 
L 45.3125 8.40625 
Q 42.046875 3.421875 37.71875 1 
Q 33.40625 -1.421875 27.6875 -1.421875 
Q 18.265625 -1.421875 13.375 4.4375 
Q 8.5 10.296875 8.5 21.578125 
z
M 31.109375 56 
z
" id="DejaVuSans-117"/>
     </defs>
     <g transform="translate(61.090625 232.273281)rotate(-90)scale(0.1 -0.1)">
      <use xlink:href="#DejaVuSans-86"/>
      <use x="68.298828" xlink:href="#DejaVuSans-97"/>
      <use x="129.578125" xlink:href="#DejaVuSans-108"/>
      <use x="157.361328" xlink:href="#DejaVuSans-117"/>
      <use x="220.740234" xlink:href="#DejaVuSans-101"/>
     </g>
    </g>
   </g>
   <g id="line2d_17">
    <path clip-path="url(#p02f388fab5)" d="M 138.436364 236.426736 
L 138.798701 197.861629 
L 139.161039 175.477366 
L 139.523377 171.57606 
L 139.885714 159.322081 
L 140.248052 185.906443 
L 140.972727 258.572271 
L 141.335065 268.44359 
L 141.697403 271.542481 
L 142.05974 272.810745 
L 142.422078 247.948416 
L 142.784416 278.123197 
L 143.146753 208.493799 
L 143.509091 191.46632 
L 143.871429 217.808021 
L 144.233766 204.835641 
L 145.320779 293.867093 
L 145.683117 306.886761 
L 146.045455 332.812139 
L 146.407792 298.128927 
L 146.77013 283.267644 
L 147.494805 187.987352 
L 147.857143 157.941336 
L 148.219481 153.358509 
L 148.581818 117.250065 
L 148.944156 147.754992 
L 149.306494 212.996384 
L 149.668831 219.609237 
L 150.031169 267.039952 
L 150.393506 260.689599 
L 150.755844 258.436328 
L 151.118182 247.507895 
L 151.480519 250.149242 
L 151.842857 214.280304 
L 152.205195 192.237847 
L 152.92987 176.713306 
L 153.292208 230.338735 
L 154.379221 320.730042 
L 154.741558 320.397477 
L 155.103896 310.084329 
L 155.466234 257.224705 
L 155.828571 237.358598 
L 156.190909 175.702539 
L 156.915584 123.178062 
L 157.277922 127.716942 
L 157.64026 141.234753 
L 158.364935 220.966205 
L 158.727273 248.702895 
L 159.08961 238.900696 
L 159.451948 252.973927 
L 159.814286 253.478206 
L 160.176623 205.088541 
L 160.538961 186.077487 
L 160.901299 199.463545 
L 161.263636 172.035951 
L 161.625974 191.881213 
L 162.350649 279.815181 
L 163.075325 330.312312 
L 163.437662 310.605962 
L 163.8 306.916507 
L 164.887013 184.613635 
L 165.249351 162.28769 
L 165.611688 153.512916 
L 165.974026 130.400709 
L 167.061039 223.678182 
L 167.423377 270.747427 
L 167.785714 270.66608 
L 168.148052 253.856642 
L 168.51039 265.883607 
L 169.597403 189.069468 
L 169.95974 211.001514 
L 170.322078 226.168252 
L 171.771429 326.307533 
L 172.133766 348.730577 
L 172.496104 311.407952 
L 172.858442 299.757521 
L 173.220779 257.817807 
L 173.583117 231.73911 
L 173.945455 162.800475 
L 174.307792 166.496383 
L 174.67013 172.934326 
L 175.032468 187.913258 
L 175.394805 214.03108 
L 176.119481 295.9903 
L 176.481818 279.778107 
L 176.844156 275.032753 
L 177.206494 275.768016 
L 177.568831 250.944326 
L 177.931169 240.920396 
L 178.293506 212.749444 
L 178.655844 210.498215 
L 179.380519 276.12342 
L 179.742857 297.618803 
L 180.105195 327.295145 
L 180.467532 338.004554 
L 180.82987 352.609833 
L 181.192208 342.945145 
L 181.554545 313.350673 
L 182.279221 226.213065 
L 182.641558 180.145179 
L 183.003896 176.556415 
L 183.728571 199.420363 
L 184.815584 263.12786 
L 185.177922 300.006436 
L 185.54026 303.738236 
L 185.902597 289.302273 
L 186.627273 243.529498 
L 186.98961 235.568959 
L 187.351948 220.115369 
L 187.714286 233.239266 
L 188.438961 306.871154 
L 189.525974 369.36 
L 190.250649 313.38671 
L 190.975325 209.760613 
L 191.337662 186.013551 
L 191.7 179.810619 
L 192.062338 179.063373 
L 192.424675 177.735615 
L 192.787013 192.511687 
L 193.511688 280.170908 
L 193.874026 275.018821 
L 194.236364 280.058275 
L 194.598701 252.172062 
L 194.961039 242.470636 
L 195.323377 188.336295 
L 195.685714 223.516785 
L 196.048052 216.399475 
L 196.772727 256.725095 
L 197.135065 284.438613 
L 197.497403 295.565039 
L 197.85974 347.480172 
L 198.222078 298.230671 
L 198.584416 296.276506 
L 198.946753 278.651643 
L 199.671429 202.189074 
L 200.033766 139.117908 
L 200.396104 142.081798 
L 200.758442 136.586465 
L 201.120779 125.856209 
L 201.483117 199.937423 
L 201.845455 211.260359 
L 202.207792 231.492672 
L 202.57013 258.743904 
L 203.294805 237.455803 
L 203.657143 191.001491 
L 204.019481 182.384673 
L 204.381818 180.858818 
L 204.744156 190.38401 
L 205.106494 172.872822 
L 205.468831 209.992183 
L 206.193506 299.693791 
L 206.555844 274.273793 
L 206.918182 304.27654 
L 207.280519 291.397416 
L 208.367532 182.396209 
L 209.092208 79.923199 
L 210.179221 134.694605 
L 210.903896 221.465887 
L 211.266234 230.110914 
L 211.628571 219.115767 
L 211.990909 217.946817 
L 212.353247 188.68186 
L 212.715584 174.076699 
L 213.077922 153.292163 
L 213.44026 148.761559 
L 213.802597 170.039251 
L 214.164935 211.853107 
L 214.527273 239.159665 
L 214.88961 243.099028 
L 215.614286 312.001871 
L 215.976623 252.37734 
L 216.338961 240.458779 
L 217.063636 145.819848 
L 217.788312 89.921498 
L 218.150649 99.559696 
L 218.512987 128.314323 
L 218.875325 143.818105 
L 219.6 232.045289 
L 219.962338 237.649341 
L 220.324675 221.467268 
L 220.687013 200.124283 
L 221.411688 175.304449 
L 221.774026 159.746018 
L 222.136364 161.679696 
L 222.498701 193.110302 
L 222.861039 195.358464 
L 223.223377 222.41256 
L 223.948052 288.917337 
L 224.31039 279.083813 
L 224.672727 289.069556 
L 226.484416 106.334163 
L 226.846753 135.801285 
L 227.209091 152.313844 
L 227.571429 142.329246 
L 227.933766 197.208209 
L 228.658442 260.018418 
L 229.020779 231.838952 
L 229.383117 225.151877 
L 229.745455 184.692815 
L 230.107792 189.559305 
L 230.47013 169.120535 
L 230.832468 187.028556 
L 231.194805 185.628547 
L 231.557143 227.612312 
L 231.919481 256.402036 
L 232.281818 307.205541 
L 232.644156 305.831235 
L 233.006494 283.559662 
L 233.368831 300.178731 
L 234.093506 216.334341 
L 234.455844 193.535547 
L 234.818182 152.657607 
L 235.180519 132.347002 
L 235.542857 128.197807 
L 235.905195 158.464176 
L 236.267532 211.146409 
L 236.62987 232.746275 
L 237.354545 253.549591 
L 237.716883 270.654368 
L 238.079221 256.765076 
L 238.441558 228.941943 
L 238.803896 221.468641 
L 239.166234 205.475328 
L 239.528571 213.577653 
L 239.890909 209.230716 
L 240.253247 216.235212 
L 240.615584 273.908911 
L 241.34026 336.400901 
L 242.427273 293.313223 
L 242.78961 250.318664 
L 243.151948 188.576963 
L 243.514286 168.096652 
L 243.876623 110.994035 
L 244.238961 137.328171 
L 244.601299 154.42315 
L 245.325974 248.524037 
L 246.412987 287.051197 
L 246.775325 273.843838 
L 247.5 209.626791 
L 247.862338 194.106388 
L 248.224675 201.23336 
L 248.587013 191.220317 
L 248.949351 220.971745 
L 249.311688 278.333972 
L 249.674026 288.787413 
L 250.036364 310.899238 
L 250.398701 311.637742 
L 251.123377 272.786971 
L 251.848052 186.84662 
L 252.572727 131.97163 
L 252.935065 124.998584 
L 253.297403 158.05579 
L 253.65974 166.117925 
L 254.022078 226.419416 
L 254.384416 232.604829 
L 254.746753 251.808482 
L 255.109091 260.624284 
L 255.471429 243.640182 
L 255.833766 210.561702 
L 256.196104 195.863098 
L 256.558442 173.431179 
L 256.920779 188.49832 
L 257.283117 185.122812 
L 257.645455 221.455859 
L 258.732468 289.208805 
L 259.094805 299.15157 
L 259.457143 275.630946 
L 259.819481 260.239925 
L 260.181818 183.769988 
L 260.544156 165.746573 
L 261.268831 97.126372 
L 261.631169 98.17648 
L 261.993506 139.305614 
L 262.355844 136.850665 
L 262.718182 187.080828 
L 263.080519 197.984951 
L 263.442857 218.573492 
L 263.805195 218.099313 
L 264.167532 197.537553 
L 264.52987 193.199335 
L 264.892208 165.274864 
L 265.254545 168.756255 
L 265.616883 163.030519 
L 265.979221 163.915789 
L 266.703896 218.086657 
L 267.066234 233.753762 
L 267.428571 277.348865 
L 267.790909 289.103596 
L 268.515584 207.729368 
L 268.877922 184.83804 
L 269.602597 83.013354 
L 269.964935 74.130311 
L 270.327273 85.881721 
L 270.68961 87.408804 
L 271.051948 143.781263 
L 271.414286 167.296376 
L 272.138961 229.708887 
L 272.501299 203.251128 
L 272.863636 192.649024 
L 273.225974 172.972215 
L 273.588312 143.738694 
L 273.950649 135.84547 
L 274.312987 144.493555 
L 274.675325 140.893125 
L 275.037662 144.563223 
L 275.4 206.219905 
L 275.762338 243.030575 
L 276.124675 257.411708 
L 276.487013 250.455296 
L 276.849351 216.849874 
L 277.211688 219.356024 
L 277.936364 124.510556 
L 278.298701 82.663678 
L 278.661039 79.636858 
L 279.023377 85.085278 
L 279.385714 76.96923 
L 279.748052 124.083936 
L 280.11039 141.36918 
L 280.472727 189.190089 
L 280.835065 199.3034 
L 281.197403 189.745231 
L 281.55974 199.915654 
L 281.922078 188.731216 
L 282.284416 137.818105 
L 282.646753 148.016104 
L 283.009091 133.792709 
L 284.096104 203.779656 
L 284.820779 275.47886 
L 285.183117 267.678329 
L 285.545455 264.473559 
L 285.907792 225.172517 
L 286.632468 118.477617 
L 286.994805 102.243491 
L 287.357143 66.96 
L 287.719481 102.254465 
L 288.081818 90.157826 
L 288.444156 149.836284 
L 288.806494 149.543307 
L 289.168831 206.298609 
L 289.531169 225.716773 
L 289.893506 207.439869 
L 290.980519 173.688925 
L 291.342857 167.794339 
L 291.705195 176.52784 
L 292.42987 189.617423 
L 293.516883 235.842211 
L 293.879221 238.728287 
L 294.603896 214.681467 
L 295.690909 152.214048 
L 296.053247 150.403775 
L 296.415584 134.676388 
L 297.14026 178.338619 
L 297.864935 203.569149 
L 298.227273 214.346944 
L 298.58961 212.833143 
L 298.951948 213.340051 
L 299.314286 207.683589 
L 300.038961 184.338676 
L 300.401299 183.872664 
L 300.763636 188.574421 
L 301.125974 200.715749 
L 301.850649 245.716264 
L 302.212987 247.478958 
L 302.575325 241.857926 
L 302.937662 247.422743 
L 304.387013 151.352569 
L 304.749351 162.521384 
L 305.111688 153.067917 
L 305.474026 164.938974 
L 305.836364 185.692387 
L 306.198701 195.562354 
L 306.561039 223.394566 
L 306.923377 213.465759 
L 307.285714 217.831938 
L 307.648052 214.799783 
L 308.372727 187.658487 
L 308.735065 183.010796 
L 309.097403 182.614436 
L 309.45974 190.093405 
L 309.822078 201.019321 
L 310.184416 223.805464 
L 310.546753 254.559412 
L 310.909091 249.944572 
L 311.271429 250.643133 
L 311.633766 238.466847 
L 313.083117 158.435225 
L 313.445455 152.488214 
L 314.17013 169.107203 
L 314.532468 173.857521 
L 314.894805 184.760976 
L 315.257143 209.781353 
L 315.619481 219.648295 
L 315.981818 219.117795 
L 316.344156 220.64402 
L 316.706494 193.996026 
L 317.068831 195.480236 
L 317.431169 180.309481 
L 317.793506 184.952532 
L 318.155844 182.266316 
L 318.518182 192.647842 
L 318.880519 222.025199 
L 319.242857 231.647772 
L 319.605195 245.216549 
L 319.967532 231.083413 
L 320.32987 237.831525 
L 320.692208 204.795361 
L 321.054545 193.520688 
L 321.779221 155.006708 
L 322.503896 142.848495 
L 322.866234 149.419863 
L 323.228571 179.314156 
L 323.590909 180.948657 
L 323.953247 198.634714 
L 324.315584 193.403294 
L 324.677922 210.246218 
L 325.04026 187.515006 
L 325.402597 185.405176 
L 326.127273 170.680119 
L 326.48961 171.52314 
L 326.851948 175.253669 
L 327.938961 216.289704 
L 328.301299 224.10305 
L 328.663636 234.839131 
L 329.025974 222.521174 
L 330.475325 144.005691 
L 331.2 131.7795 
L 331.924675 154.859956 
L 332.287013 182.124642 
L 333.011688 200.716299 
L 333.374026 194.508892 
L 333.736364 196.075051 
L 334.098701 181.980843 
L 334.461039 162.980135 
L 334.823377 158.171015 
L 335.185714 167.799962 
L 335.548052 173.620434 
L 335.91039 189.442749 
L 336.272727 196.716626 
L 336.635065 219.954927 
L 336.997403 233.870643 
L 337.35974 232.159664 
L 337.722078 218.142342 
L 338.809091 163.807471 
L 339.171429 146.033856 
L 339.533766 143.828432 
L 339.896104 139.378199 
L 340.620779 159.463973 
L 340.983117 188.22022 
L 341.345455 202.219011 
L 342.07013 190.659743 
L 342.432468 197.428591 
L 342.794805 195.596565 
L 343.157143 173.704719 
L 343.519481 170.05173 
L 344.244156 174.354612 
L 344.606494 195.670948 
L 344.968831 207.896814 
L 345.331169 228.66357 
L 345.693506 231.739889 
L 346.055844 236.974512 
L 346.780519 211.022393 
L 347.142857 196.798338 
L 347.505195 161.667182 
L 347.867532 159.514253 
L 348.22987 151.160536 
L 348.592208 154.684721 
L 348.954545 165.378708 
L 349.316883 171.932684 
L 349.679221 194.233142 
L 350.041558 209.418016 
L 350.403896 212.949455 
L 350.766234 224.532474 
L 351.128571 214.092104 
L 351.853247 180.925978 
L 352.215584 179.544552 
L 352.94026 197.688728 
L 353.302597 197.306602 
L 353.664935 234.136632 
L 354.027273 226.085896 
L 354.38961 245.08525 
L 354.751948 247.798763 
L 355.114286 235.199133 
L 355.476623 227.327977 
L 356.201299 180.98416 
L 356.563636 168.854909 
L 356.925974 161.267251 
L 357.288312 156.89946 
L 357.650649 173.710641 
L 358.375325 193.70121 
L 358.737662 225.713206 
L 359.1 225.089707 
L 359.462338 223.631154 
L 359.824675 214.356033 
L 360.187013 215.428659 
L 360.549351 199.419222 
L 360.911688 215.010813 
L 361.274026 191.182121 
L 361.636364 209.910484 
L 361.998701 213.663197 
L 362.723377 256.810841 
L 363.085714 259.742849 
L 363.448052 273.48977 
L 363.81039 259.181163 
L 364.172727 232.977771 
L 364.535065 223.235506 
L 364.897403 176.103924 
L 365.25974 170.681954 
L 365.622078 162.435429 
L 366.346753 175.145349 
L 367.433766 229.179697 
L 367.796104 230.074757 
L 368.158442 237.08376 
L 368.883117 214.694041 
L 369.607792 195.840291 
L 369.97013 195.005467 
L 370.332468 210.73487 
L 370.694805 216.455722 
L 371.057143 224.449479 
L 371.781818 262.114895 
L 372.144156 272.089264 
L 372.506494 251.130919 
L 372.868831 245.844175 
L 373.231169 215.492214 
L 373.593506 201.784202 
L 374.318182 158.975764 
L 374.680519 175.029324 
L 375.405195 192.422544 
L 375.767532 213.566997 
L 376.12987 216.250451 
L 376.492208 229.995951 
L 376.854545 232.588769 
L 377.579221 208.862216 
L 378.303896 185.651599 
L 378.666234 198.821037 
L 379.390909 211.545086 
L 379.753247 225.067479 
L 380.115584 243.705797 
L 380.477922 252.416722 
L 380.84026 251.090859 
L 381.564935 231.857222 
L 381.927273 203.712357 
L 382.28961 191.84996 
L 382.651948 166.435509 
L 383.014286 153.10913 
L 383.376623 158.570728 
L 383.738961 167.579567 
L 384.463636 194.129383 
L 384.825974 224.247675 
L 385.188312 212.089244 
L 385.550649 218.584829 
L 385.912987 215.438042 
L 386.637662 192.480522 
L 387.362338 176.0895 
L 388.087013 206.347805 
L 388.449351 207.194205 
L 389.536364 255.861259 
L 389.898701 241.338185 
L 390.261039 222.125202 
L 390.623377 209.161521 
L 390.985714 168.031142 
L 391.71039 151.022764 
L 392.072727 149.367497 
L 392.435065 151.559364 
L 393.15974 204.234352 
L 393.522078 203.937388 
L 393.884416 218.541467 
L 394.246753 214.835121 
L 394.609091 204.305257 
L 394.971429 205.38435 
L 395.333766 182.759922 
L 395.696104 182.678521 
L 396.058442 184.029786 
L 396.420779 171.590206 
L 396.783117 206.727791 
L 397.87013 246.092587 
L 398.232468 248.712816 
L 398.594805 241.366903 
L 398.957143 227.108797 
L 400.044156 151.594292 
L 400.406494 142.819574 
L 400.768831 152.846095 
L 401.131169 154.622746 
L 401.855844 199.472155 
L 402.218182 213.173903 
L 402.580519 218.611251 
L 402.942857 228.711331 
L 403.667532 200.698416 
L 404.02987 191.956775 
L 404.392208 189.765836 
L 404.754545 183.093175 
L 405.841558 230.30645 
L 406.203896 241.885063 
L 406.566234 237.321732 
L 406.928571 253.088987 
L 407.290909 244.712099 
L 407.653247 217.004566 
L 408.377922 190.172635 
L 409.102597 165.623196 
L 409.827273 173.785153 
L 410.18961 185.591344 
L 410.551948 215.821611 
L 410.914286 221.170255 
L 411.638961 234.43815 
L 412.001299 232.708205 
L 412.363636 213.087792 
L 412.725974 202.09826 
L 413.088312 200.38224 
L 413.450649 199.710011 
L 413.812987 206.507061 
L 414.175325 222.094092 
L 414.537662 246.040336 
L 415.262338 260.521604 
L 415.624675 264.19328 
L 415.987013 260.485756 
L 417.074026 199.242341 
L 417.436364 188.848203 
L 417.798701 174.625237 
L 418.161039 169.625902 
L 418.885714 199.515011 
L 419.248052 225.803802 
L 419.61039 230.471496 
L 419.972727 242.481803 
L 420.335065 248.178877 
L 420.697403 243.168945 
L 421.422078 220.913626 
L 421.784416 203.311698 
L 422.146753 199.071801 
L 422.509091 226.761569 
L 422.871429 237.526315 
L 423.233766 252.881794 
L 423.596104 260.651113 
L 423.958442 278.899897 
L 424.320779 279.076489 
L 425.045455 247.390226 
L 425.407792 232.180662 
L 426.132468 187.555935 
L 426.494805 191.412844 
L 426.857143 181.530756 
L 427.219481 193.749846 
L 427.944156 237.95176 
L 428.306494 246.01732 
L 428.668831 247.640031 
L 429.031169 255.052781 
L 429.393506 246.484649 
L 430.118182 211.26196 
L 430.842857 207.320547 
L 431.205195 211.94928 
L 431.92987 255.57724 
L 432.292208 263.675415 
L 432.654545 277.122947 
L 433.016883 279.349906 
L 433.379221 260.782737 
L 433.741558 253.327143 
L 434.466234 206.599448 
L 435.190909 188.20673 
L 435.553247 183.24662 
L 435.915584 195.209329 
L 436.277922 211.205362 
L 436.64026 216.330017 
L 437.002597 237.718717 
L 437.364935 241.349237 
L 437.727273 251.275746 
L 438.451948 232.127651 
L 438.814286 212.527712 
L 439.538961 197.799559 
L 439.901299 218.302904 
L 440.263636 230.623006 
L 440.625974 249.92206 
L 440.988312 259.120968 
L 441.350649 271.966526 
L 441.712987 265.003049 
L 442.075325 263.24875 
L 442.437662 238.279262 
L 442.8 225.097403 
L 443.162338 193.598747 
L 443.524675 190.533559 
L 443.887013 165.36842 
L 444.249351 169.634171 
L 444.611688 192.517941 
L 444.974026 194.74519 
L 445.698701 239.641255 
L 446.061039 234.112869 
L 446.423377 240.859237 
L 446.785714 227.417764 
L 447.148052 219.331139 
L 447.872727 187.897557 
L 448.235065 203.78289 
L 448.597403 202.279411 
L 448.95974 288.900453 
L 449.322078 232.40805 
L 449.684416 238.847996 
L 450.409091 259.459568 
L 450.771429 253.742541 
L 451.133766 234.439161 
L 451.496104 205.742312 
L 451.858442 188.403309 
L 452.220779 185.225566 
L 452.583117 151.62167 
L 452.945455 158.22177 
L 453.67013 186.991548 
L 454.394805 222.970353 
L 454.757143 228.181451 
L 455.119481 221.830901 
L 455.481818 221.29911 
L 455.844156 202.106462 
L 456.206494 206.260916 
L 456.568831 190.915286 
L 456.931169 191.752766 
L 457.293506 207.319338 
L 457.655844 210.739475 
L 458.018182 234.730703 
L 458.380519 236.697245 
L 458.742857 249.765894 
L 459.105195 258.101768 
L 459.467532 247.137477 
L 460.192208 216.780198 
L 460.554545 188.30677 
L 461.279221 157.551172 
L 461.641558 157.362555 
L 463.090909 233.222469 
L 463.453247 241.056032 
L 463.815584 236.63974 
L 464.177922 222.155828 
L 464.54026 218.009266 
L 464.902597 210.162133 
L 465.264935 191.539138 
L 465.627273 204.574569 
L 465.98961 204.797848 
L 466.351948 227.948132 
L 466.714286 234.318333 
L 467.076623 247.292971 
L 467.438961 265.686582 
L 467.801299 272.89224 
L 468.163636 268.209557 
L 469.250649 189.87698 
L 469.612987 197.384603 
L 469.975325 190.816837 
L 470.337662 186.4357 
L 470.7 192.342225 
L 471.787013 245.250477 
L 472.149351 242.228597 
L 472.511688 252.46541 
L 472.874026 244.148354 
L 473.236364 224.222493 
L 473.598701 216.724829 
L 473.961039 213.13821 
L 474.323377 207.767962 
L 475.41039 261.572206 
L 475.772727 269.055781 
L 476.135065 280.949051 
L 476.497403 280.188693 
L 476.85974 274.199881 
L 477.222078 262.11155 
L 477.946753 221.866155 
L 478.671429 182.319599 
L 479.033766 189.486895 
L 479.396104 187.31734 
L 480.120779 237.123036 
L 480.483117 254.626657 
L 480.845455 251.417757 
L 481.207792 253.831215 
L 481.57013 248.459784 
L 481.932468 235.760425 
L 482.294805 228.657387 
L 482.657143 213.207028 
L 483.381818 231.045726 
L 483.744156 251.355481 
L 484.106494 251.736794 
L 484.468831 273.870607 
L 484.831169 287.883886 
L 485.193506 286.475952 
L 485.555844 283.360331 
L 485.918182 275.998389 
L 486.280519 239.291136 
L 487.367532 198.227105 
L 487.72987 195.985569 
L 488.454545 219.704658 
L 488.816883 238.29178 
L 489.179221 262.631142 
L 489.541558 265.647905 
L 489.903896 263.627244 
L 490.266234 256.0327 
L 490.628571 245.056261 
L 490.990909 230.618519 
L 491.353247 221.177261 
L 491.715584 225.183169 
L 492.077922 231.49191 
L 492.44026 249.068592 
L 492.802597 274.312788 
L 493.164935 281.463361 
L 493.527273 282.782361 
L 493.88961 288.947696 
L 494.251948 277.056391 
L 494.976623 246.454586 
L 495.338961 230.163349 
L 495.701299 198.615483 
L 496.063636 199.611834 
L 496.425974 207.793921 
L 496.788312 199.827097 
L 497.150649 230.804842 
L 497.512987 242.684188 
L 497.875325 243.493064 
L 498.237662 266.13324 
L 498.6 251.965363 
L 498.962338 246.296758 
L 499.324675 245.914362 
L 499.687013 231.298945 
L 500.049351 221.938866 
L 500.411688 223.147499 
L 500.774026 229.649648 
L 501.498701 255.83848 
L 501.861039 278.462088 
L 502.223377 282.413619 
L 502.585714 284.110175 
L 502.948052 279.15723 
L 503.31039 263.2159 
L 504.397403 194.000861 
L 504.75974 194.910704 
L 505.122078 196.913824 
L 505.484416 201.812277 
L 506.209091 228.296064 
L 506.933766 243.451378 
L 507.296104 249.710998 
L 508.020779 220.708564 
L 508.383117 215.725331 
L 508.745455 215.724481 
L 509.107792 220.818258 
L 509.47013 218.979806 
L 509.832468 231.224068 
L 510.194805 249.617782 
L 510.557143 261.57428 
L 511.281818 277.13408 
L 511.644156 269.485774 
L 512.006494 251.254725 
L 513.093506 177.693917 
L 513.455844 166.210112 
L 513.818182 195.613528 
L 514.180519 186.890622 
L 514.542857 206.2478 
L 514.905195 215.216071 
L 515.62987 241.841154 
L 515.992208 247.161479 
L 516.354545 243.503271 
L 516.716883 222.130421 
L 517.079221 218.443329 
L 517.441558 219.232283 
L 517.803896 204.966649 
L 518.166234 213.338115 
L 518.528571 229.142273 
L 518.890909 250.227282 
L 519.615584 267.764407 
L 519.977922 277.303213 
L 520.34026 268.153974 
L 520.702597 252.537802 
L 521.427273 205.639235 
L 521.78961 190.445072 
L 522.151948 182.475799 
L 522.514286 184.529274 
L 522.876623 187.313018 
L 523.238961 208.035697 
L 523.601299 220.908168 
L 523.963636 240.722802 
L 524.325974 244.90391 
L 524.688312 246.307849 
L 525.050649 243.824383 
L 525.775325 215.130766 
L 526.137662 213.568211 
L 526.5 213.734245 
L 527.224675 236.492146 
L 527.949351 270.288853 
L 528.311688 269.193595 
L 528.674026 287.239296 
L 529.398701 258.481575 
L 530.123377 209.808711 
L 530.848052 190.35943 
L 531.21039 187.842861 
L 531.935065 226.061067 
L 532.297403 225.743088 
L 532.65974 249.561226 
L 533.384416 261.749781 
L 533.746753 245.126941 
L 534.109091 240.764444 
L 534.471429 223.964249 
L 534.833766 213.521191 
L 535.196104 218.188527 
L 535.558442 233.624775 
L 535.920779 242.124872 
L 536.283117 269.412884 
L 537.007792 290.103652 
L 537.37013 288.706007 
L 537.732468 283.625055 
L 538.819481 221.210485 
L 539.181818 217.593411 
L 539.544156 200.066327 
L 540.268831 224.320436 
L 540.631169 229.070227 
L 540.993506 257.240549 
L 541.355844 268.354105 
L 541.718182 270.88914 
L 542.080519 275.06873 
L 542.442857 271.904857 
L 542.805195 252.44214 
L 543.167532 245.059094 
L 543.52987 233.556005 
L 543.892208 235.520065 
L 544.254545 260.040943 
L 544.616883 257.302632 
L 544.979221 273.099805 
L 545.341558 296.005433 
L 545.703896 288.199046 
L 546.066234 300.157023 
L 546.428571 295.683705 
L 547.153247 252.964097 
L 548.24026 208.245245 
L 548.602597 208.278539 
L 548.964935 220.439954 
L 549.327273 227.76783 
L 549.68961 264.46972 
L 550.051948 266.609945 
L 550.414286 279.068582 
L 550.776623 270.986942 
L 551.138961 268.13096 
L 551.501299 270.48421 
L 551.863636 242.555381 
L 552.225974 239.128845 
L 552.588312 232.521934 
L 552.950649 256.307166 
L 553.312987 267.790677 
L 554.037662 300.083609 
L 554.4 298.92939 
L 554.762338 298.622337 
L 555.124675 287.498248 
L 555.487013 281.544408 
L 555.849351 248.149032 
L 556.211688 238.712073 
L 556.574026 215.312129 
L 556.936364 209.60363 
L 557.298701 201.351273 
L 557.661039 217.784041 
L 558.023377 239.94639 
L 558.385714 248.49005 
L 558.748052 276.144883 
L 559.11039 285.279891 
L 559.472727 266.834314 
L 559.835065 264.93064 
L 560.197403 254.829499 
L 560.55974 240.938833 
L 560.922078 232.090495 
L 561.284416 237.441641 
L 561.646753 245.424618 
L 562.733766 290.586941 
L 563.096104 290.608973 
L 563.458442 299.56921 
L 563.820779 287.340804 
L 564.545455 244.838813 
L 564.907792 233.41962 
L 565.632468 182.909335 
L 565.994805 206.909437 
L 566.357143 206.450185 
L 566.719481 231.742376 
L 567.081818 243.696347 
L 567.806494 260.166079 
L 568.168831 257.746951 
L 568.531169 260.188756 
L 569.255844 221.403528 
L 569.618182 218.171338 
L 569.980519 223.200695 
L 570.342857 240.882545 
L 570.705195 248.440745 
L 571.42987 285.178063 
L 572.154545 291.473593 
L 572.516883 267.860723 
L 572.879221 264.840027 
L 573.241558 235.579434 
L 573.603896 216.574229 
L 574.690909 186.986432 
L 575.053247 193.632668 
L 575.415584 220.257746 
L 575.777922 222.027511 
L 576.14026 253.557597 
L 576.502597 260.300723 
L 576.864935 255.64743 
L 577.227273 246.183139 
L 577.58961 245.772972 
L 578.314286 222.440154 
L 578.676623 217.680734 
L 579.038961 229.981295 
L 579.401299 236.625688 
L 579.763636 260.540681 
L 580.488312 281.608065 
L 580.850649 285.583561 
L 581.212987 287.659045 
L 582.3 212.37388 
L 583.024675 191.246696 
L 583.387013 196.697175 
L 583.749351 200.095351 
L 584.111688 226.630774 
L 584.474026 240.891561 
L 584.836364 242.560804 
L 585.198701 259.404746 
L 585.561039 262.7126 
L 585.923377 254.983292 
L 586.285714 239.843356 
L 586.648052 234.205147 
L 587.01039 226.161765 
L 587.372727 220.978463 
L 587.735065 239.2743 
L 588.097403 237.935387 
L 588.45974 267.602164 
L 588.822078 288.104201 
L 589.184416 292.226687 
L 589.546753 292.787018 
L 589.909091 287.967912 
L 590.271429 263.784449 
L 590.633766 250.451068 
L 591.358442 211.65375 
L 591.720779 203.867453 
L 592.083117 205.638365 
L 592.445455 222.034366 
L 592.807792 225.500031 
L 593.532468 271.276385 
L 593.894805 275.181338 
L 594.257143 288.569134 
L 594.619481 261.316543 
L 594.981818 256.874887 
L 595.344156 239.829205 
L 596.068831 230.499358 
L 596.431169 242.792899 
L 597.880519 318.892667 
L 598.605195 305.164846 
L 600.416883 215.446707 
L 600.779221 224.724509 
L 601.141558 225.623419 
L 601.503896 237.613953 
L 602.228571 281.48123 
L 602.590909 291.098767 
L 602.953247 294.401107 
L 603.315584 281.364475 
L 603.677922 281.264438 
L 604.04026 262.238828 
L 604.402597 259.27478 
L 604.764935 257.335333 
L 605.127273 256.930748 
L 605.851948 290.922644 
L 606.214286 300.707751 
L 606.576623 316.810305 
L 606.938961 320.907224 
L 607.663636 303.266141 
L 608.025974 270.472814 
L 608.388312 257.442986 
L 608.750649 230.350553 
L 609.112987 224.587035 
L 609.475325 221.332425 
L 609.837662 233.639843 
L 610.2 258.608306 
L 610.562338 260.602022 
L 611.287013 293.059142 
L 611.649351 292.453489 
L 612.011688 280.143974 
L 612.736364 262.173007 
L 613.098701 260.44161 
L 613.461039 260.990709 
L 613.823377 262.808274 
L 614.185714 270.136905 
L 614.548052 301.684572 
L 615.272727 319.973576 
L 615.635065 315.108059 
L 616.35974 292.880571 
L 616.722078 264.854951 
L 617.084416 251.888445 
L 617.446753 225.622861 
L 617.809091 226.607191 
L 618.171429 221.292241 
L 618.533766 245.738787 
L 618.896104 249.862374 
L 619.258442 263.385864 
L 619.620779 288.518842 
L 619.983117 285.422597 
L 620.345455 291.059178 
L 620.707792 275.065826 
L 621.07013 265.4535 
L 621.432468 249.261672 
L 621.794805 245.782476 
L 622.157143 253.852339 
L 622.519481 248.377611 
L 622.881818 276.874903 
L 623.244156 285.596076 
L 623.606494 302.909413 
L 623.968831 296.079776 
L 624.331169 314.986801 
L 624.693506 305.877909 
L 625.418182 255.442726 
L 625.780519 248.662182 
L 626.505195 213.003582 
L 627.22987 233.586497 
L 627.592208 239.391416 
L 627.954545 262.857062 
L 628.316883 266.099213 
L 628.679221 267.983224 
L 629.041558 267.474622 
L 629.403896 260.843145 
L 629.766234 259.628807 
L 630.128571 241.317242 
L 630.490909 250.553364 
L 630.853247 237.882661 
L 631.577922 250.967608 
L 631.94026 283.609862 
L 632.302597 288.223321 
L 632.664935 310.771564 
L 633.027273 298.087488 
L 633.38961 294.393345 
L 634.114286 249.596923 
L 634.838961 224.123892 
L 635.201299 205.456426 
L 635.925974 209.918136 
L 636.288312 239.578553 
L 637.012987 268.980686 
L 637.375325 276.312202 
L 637.737662 266.133634 
L 638.1 267.063659 
L 638.462338 251.416063 
L 638.824675 242.002968 
L 639.187013 229.090452 
L 639.549351 237.345706 
L 639.911688 241.062788 
L 640.274026 251.039568 
L 640.998701 288.107121 
L 641.361039 297.318126 
L 641.723377 297.282141 
L 642.085714 304.488118 
L 643.172727 234.224166 
L 643.535065 226.712333 
L 643.897403 210.13621 
L 644.25974 208.63156 
L 644.622078 219.900104 
L 644.984416 226.324812 
L 645.346753 254.330081 
L 645.709091 264.943736 
L 646.071429 271.042004 
L 646.433766 283.643605 
L 647.520779 239.99887 
L 647.883117 245.992145 
L 648.245455 234.862088 
L 648.607792 239.628896 
L 648.97013 270.782211 
L 649.332468 291.36638 
L 649.694805 289.799246 
L 650.057143 312.416692 
L 650.419481 313.739567 
L 650.781818 300.94272 
L 651.144156 283.744482 
L 651.506494 253.035703 
L 651.868831 250.296749 
L 652.593506 206.077143 
L 652.955844 216.662083 
L 653.318182 235.995918 
L 653.680519 242.023091 
L 654.042857 276.89442 
L 654.405195 277.73767 
L 654.767532 281.915802 
L 655.12987 295.518553 
L 655.854545 273.231102 
L 656.579221 255.848831 
L 656.941558 251.745295 
L 657.666234 277.748293 
L 658.028571 296.965571 
L 658.390909 308.044238 
L 658.753247 332.996889 
L 659.115584 322.90805 
L 659.477922 317.654959 
L 659.84026 293.120105 
L 660.202597 280.364665 
L 660.564935 253.152174 
L 661.28961 228.063697 
L 661.651948 227.472084 
L 662.014286 244.529922 
L 662.376623 250.105273 
L 662.738961 286.022253 
L 663.463636 306.820295 
L 664.188312 291.988046 
L 664.550649 276.936788 
L 664.912987 270.852891 
L 665.275325 259.655477 
L 665.637662 256.315415 
L 666 268.615584 
L 667.087013 331.363867 
L 667.449351 323.632048 
L 667.811688 334.431198 
L 668.174026 320.688072 
L 668.536364 312.56224 
L 669.261039 270.587596 
L 669.623377 243.650798 
L 669.985714 237.206991 
L 670.348052 237.471892 
L 671.072727 267.408562 
L 671.435065 292.09338 
L 672.15974 304.36675 
L 672.522078 305.056909 
L 672.884416 291.810454 
L 673.246753 287.248594 
L 673.609091 280.738656 
L 673.971429 270.459036 
L 674.333766 269.576492 
L 674.696104 267.320813 
L 675.058442 284.206697 
L 675.420779 312.677309 
L 676.145455 341.592334 
L 676.507792 334.697218 
L 677.232468 304.083013 
L 677.594805 290.222975 
L 677.957143 259.625505 
L 678.319481 242.052179 
L 678.681818 235.631 
L 679.044156 234.226119 
L 679.406494 255.807714 
L 679.768831 268.222541 
L 680.131169 275.930572 
L 680.493506 292.788661 
L 680.855844 298.928345 
L 681.218182 300.260494 
L 681.580519 286.30045 
L 681.942857 287.790371 
L 682.305195 272.164025 
L 682.667532 267.379504 
L 683.02987 255.6938 
L 683.754545 286.880382 
L 684.841558 332.204341 
L 685.203896 332.292244 
L 685.566234 319.115613 
L 687.015584 231.924143 
L 687.377922 225.049872 
L 687.74026 229.490118 
L 688.102597 237.308175 
L 688.827273 277.845119 
L 689.18961 286.818742 
L 689.551948 291.506163 
L 689.914286 280.583353 
L 690.276623 280.397243 
L 690.638961 277.492909 
L 691.001299 256.615299 
L 691.363636 243.218529 
L 691.725974 259.700134 
L 692.088312 259.758567 
L 692.450649 280.924828 
L 693.175325 310.066964 
L 693.537662 314.517619 
L 693.9 326.581355 
L 694.987013 265.064404 
L 695.349351 241.692623 
L 695.711688 227.741953 
L 696.074026 223.39421 
L 696.436364 222.697473 
L 696.798701 231.23476 
L 697.523377 266.341893 
L 698.248052 275.532046 
L 698.61039 280.315231 
L 698.972727 283.452539 
L 699.697403 253.492758 
L 700.05974 249.580191 
L 700.422078 251.469591 
L 700.784416 256.686563 
L 701.146753 268.184949 
L 701.509091 299.168305 
L 701.871429 301.573977 
L 702.233766 315.738814 
L 702.596104 313.098536 
L 703.320779 286.469582 
L 704.407792 222.787923 
L 704.77013 222.012338 
L 705.132468 219.97369 
L 705.494805 228.264696 
L 706.219481 257.624442 
L 706.581818 281.439591 
L 706.944156 292.731719 
L 707.306494 294.639401 
L 707.668831 287.808553 
L 708.031169 270.045561 
L 708.755844 259.83311 
L 709.118182 256.464057 
L 709.842857 277.360734 
L 710.205195 300.773844 
L 710.567532 306.411219 
L 710.92987 321.235923 
L 711.292208 321.978269 
L 711.654545 300.06028 
L 712.016883 291.136691 
L 712.379221 275.932816 
L 712.741558 253.357831 
L 713.466234 226.969939 
L 713.828571 229.671186 
L 714.190909 238.182918 
L 714.553247 267.752853 
L 714.915584 284.437941 
L 715.277922 294.897729 
L 715.64026 293.44983 
L 716.002597 290.571246 
L 716.364935 279.342826 
L 716.727273 277.340828 
L 717.08961 271.922464 
L 717.814286 266.484497 
L 718.901299 304.86597 
L 719.263636 326.252617 
L 719.625974 338.072153 
L 719.988312 336.076268 
L 720.350649 319.39875 
L 720.712987 317.172907 
L 721.437662 270.504596 
L 721.8 249.489673 
L 722.162338 247.02603 
L 722.524675 248.293158 
L 722.887013 256.416393 
L 723.249351 276.186929 
L 723.611688 288.309209 
L 723.974026 304.219719 
L 724.698701 320.709986 
L 726.148052 282.256555 
L 726.51039 269.827104 
L 727.235065 302.263499 
L 727.597403 313.041668 
L 727.95974 334.378638 
L 728.322078 344.437784 
L 728.684416 345.602024 
L 729.409091 321.38288 
L 729.771429 290.066194 
L 730.133766 282.809157 
L 731.220779 245.308231 
L 731.583117 269.261733 
L 731.945455 273.876981 
L 732.307792 304.662567 
L 733.032468 323.858444 
L 733.394805 318.219271 
L 733.757143 315.300029 
L 734.119481 303.51428 
L 734.481818 283.195867 
L 734.844156 289.951633 
L 735.206494 286.460426 
L 735.568831 298.831859 
L 735.931169 300.852455 
L 736.293506 322.616703 
L 736.655844 326.73861 
L 737.018182 346.164939 
L 737.380519 347.54533 
L 737.742857 348.101004 
L 738.467532 292.049469 
L 739.554545 247.880159 
L 739.916883 256.610205 
L 740.279221 255.870488 
L 740.641558 278.335749 
L 741.003896 290.938177 
L 741.366234 311.826367 
L 741.728571 308.946162 
L 742.090909 316.766878 
L 742.453247 303.460524 
L 742.815584 297.247461 
L 743.177922 285.274109 
L 743.54026 264.355291 
L 744.264935 288.54961 
L 744.627273 306.041502 
L 744.98961 315.390927 
L 745.714286 344.985939 
L 746.076623 332.906528 
L 746.438961 330.430794 
L 746.801299 313.93422 
L 746.801299 313.93422 
" style="fill:none;stroke:#1f77b4;stroke-linecap:square;stroke-width:1.5;"/>
   </g>
   <g id="line2d_18">
    <path clip-path="url(#p02f388fab5)" d="M 747.163636 384.48 
L 747.163636 51.84 
" style="fill:none;stroke:#808080;stroke-linecap:square;"/>
   </g>
   <g id="patch_108">
    <path d="M 108 384.48 
L 108 51.84 
" style="fill:none;stroke:#000000;stroke-linecap:square;stroke-linejoin:miter;stroke-width:0.8;"/>
   </g>
   <g id="patch_109">
    <path d="M 777.6 384.48 
L 777.6 51.84 
" style="fill:none;stroke:#000000;stroke-linecap:square;stroke-linejoin:miter;stroke-width:0.8;"/>
   </g>
   <g id="patch_110">
    <path d="M 108 384.48 
L 777.6 384.48 
" style="fill:none;stroke:#000000;stroke-linecap:square;stroke-linejoin:miter;stroke-width:0.8;"/>
   </g>
   <g id="patch_111">
    <path d="M 108 51.84 
L 777.6 51.84 
" style="fill:none;stroke:#000000;stroke-linecap:square;stroke-linejoin:miter;stroke-width:0.8;"/>
   </g>
   <g id="text_19">
    <!-- A4Benchmark-TS51.csv -->
    <defs>
     <path d="M 34.1875 63.1875 
L 20.796875 26.90625 
L 47.609375 26.90625 
z
M 28.609375 72.90625 
L 39.796875 72.90625 
L 67.578125 0 
L 57.328125 0 
L 50.6875 18.703125 
L 17.828125 18.703125 
L 11.1875 0 
L 0.78125 0 
z
" id="DejaVuSans-65"/>
     <path d="M 37.796875 64.3125 
L 12.890625 25.390625 
L 37.796875 25.390625 
z
M 35.203125 72.90625 
L 47.609375 72.90625 
L 47.609375 25.390625 
L 58.015625 25.390625 
L 58.015625 17.1875 
L 47.609375 17.1875 
L 47.609375 0 
L 37.796875 0 
L 37.796875 17.1875 
L 4.890625 17.1875 
L 4.890625 26.703125 
z
" id="DejaVuSans-52"/>
     <path d="M 19.671875 34.8125 
L 19.671875 8.109375 
L 35.5 8.109375 
Q 43.453125 8.109375 47.28125 11.40625 
Q 51.125 14.703125 51.125 21.484375 
Q 51.125 28.328125 47.28125 31.5625 
Q 43.453125 34.8125 35.5 34.8125 
z
M 19.671875 64.796875 
L 19.671875 42.828125 
L 34.28125 42.828125 
Q 41.5 42.828125 45.03125 45.53125 
Q 48.578125 48.25 48.578125 53.8125 
Q 48.578125 59.328125 45.03125 62.0625 
Q 41.5 64.796875 34.28125 64.796875 
z
M 9.8125 72.90625 
L 35.015625 72.90625 
Q 46.296875 72.90625 52.390625 68.21875 
Q 58.5 63.53125 58.5 54.890625 
Q 58.5 48.1875 55.375 44.234375 
Q 52.25 40.28125 46.1875 39.3125 
Q 53.46875 37.75 57.5 32.78125 
Q 61.53125 27.828125 61.53125 20.40625 
Q 61.53125 10.640625 54.890625 5.3125 
Q 48.25 0 35.984375 0 
L 9.8125 0 
z
" id="DejaVuSans-66"/>
     <path d="M 54.890625 33.015625 
L 54.890625 0 
L 45.90625 0 
L 45.90625 32.71875 
Q 45.90625 40.484375 42.875 44.328125 
Q 39.84375 48.1875 33.796875 48.1875 
Q 26.515625 48.1875 22.3125 43.546875 
Q 18.109375 38.921875 18.109375 30.90625 
L 18.109375 0 
L 9.078125 0 
L 9.078125 54.6875 
L 18.109375 54.6875 
L 18.109375 46.1875 
Q 21.34375 51.125 25.703125 53.5625 
Q 30.078125 56 35.796875 56 
Q 45.21875 56 50.046875 50.171875 
Q 54.890625 44.34375 54.890625 33.015625 
z
" id="DejaVuSans-110"/>
     <path d="M 48.78125 52.59375 
L 48.78125 44.1875 
Q 44.96875 46.296875 41.140625 47.34375 
Q 37.3125 48.390625 33.40625 48.390625 
Q 24.65625 48.390625 19.8125 42.84375 
Q 14.984375 37.3125 14.984375 27.296875 
Q 14.984375 17.28125 19.8125 11.734375 
Q 24.65625 6.203125 33.40625 6.203125 
Q 37.3125 6.203125 41.140625 7.25 
Q 44.96875 8.296875 48.78125 10.40625 
L 48.78125 2.09375 
Q 45.015625 0.34375 40.984375 -0.53125 
Q 36.96875 -1.421875 32.421875 -1.421875 
Q 20.0625 -1.421875 12.78125 6.34375 
Q 5.515625 14.109375 5.515625 27.296875 
Q 5.515625 40.671875 12.859375 48.328125 
Q 20.21875 56 33.015625 56 
Q 37.15625 56 41.109375 55.140625 
Q 45.0625 54.296875 48.78125 52.59375 
z
" id="DejaVuSans-99"/>
     <path d="M 54.890625 33.015625 
L 54.890625 0 
L 45.90625 0 
L 45.90625 32.71875 
Q 45.90625 40.484375 42.875 44.328125 
Q 39.84375 48.1875 33.796875 48.1875 
Q 26.515625 48.1875 22.3125 43.546875 
Q 18.109375 38.921875 18.109375 30.90625 
L 18.109375 0 
L 9.078125 0 
L 9.078125 75.984375 
L 18.109375 75.984375 
L 18.109375 46.1875 
Q 21.34375 51.125 25.703125 53.5625 
Q 30.078125 56 35.796875 56 
Q 45.21875 56 50.046875 50.171875 
Q 54.890625 44.34375 54.890625 33.015625 
z
" id="DejaVuSans-104"/>
     <path d="M 41.109375 46.296875 
Q 39.59375 47.171875 37.8125 47.578125 
Q 36.03125 48 33.890625 48 
Q 26.265625 48 22.1875 43.046875 
Q 18.109375 38.09375 18.109375 28.8125 
L 18.109375 0 
L 9.078125 0 
L 9.078125 54.6875 
L 18.109375 54.6875 
L 18.109375 46.1875 
Q 20.953125 51.171875 25.484375 53.578125 
Q 30.03125 56 36.53125 56 
Q 37.453125 56 38.578125 55.875 
Q 39.703125 55.765625 41.0625 55.515625 
z
" id="DejaVuSans-114"/>
     <path d="M 9.078125 75.984375 
L 18.109375 75.984375 
L 18.109375 31.109375 
L 44.921875 54.6875 
L 56.390625 54.6875 
L 27.390625 29.109375 
L 57.625 0 
L 45.90625 0 
L 18.109375 26.703125 
L 18.109375 0 
L 9.078125 0 
z
" id="DejaVuSans-107"/>
     <path d="M 4.890625 31.390625 
L 31.203125 31.390625 
L 31.203125 23.390625 
L 4.890625 23.390625 
z
" id="DejaVuSans-45"/>
     <path d="M 53.515625 70.515625 
L 53.515625 60.890625 
Q 47.90625 63.578125 42.921875 64.890625 
Q 37.9375 66.21875 33.296875 66.21875 
Q 25.25 66.21875 20.875 63.09375 
Q 16.5 59.96875 16.5 54.203125 
Q 16.5 49.359375 19.40625 46.890625 
Q 22.3125 44.4375 30.421875 42.921875 
L 36.375 41.703125 
Q 47.40625 39.59375 52.65625 34.296875 
Q 57.90625 29 57.90625 20.125 
Q 57.90625 9.515625 50.796875 4.046875 
Q 43.703125 -1.421875 29.984375 -1.421875 
Q 24.8125 -1.421875 18.96875 -0.25 
Q 13.140625 0.921875 6.890625 3.21875 
L 6.890625 13.375 
Q 12.890625 10.015625 18.65625 8.296875 
Q 24.421875 6.59375 29.984375 6.59375 
Q 38.421875 6.59375 43.015625 9.90625 
Q 47.609375 13.234375 47.609375 19.390625 
Q 47.609375 24.75 44.3125 27.78125 
Q 41.015625 30.8125 33.5 32.328125 
L 27.484375 33.5 
Q 16.453125 35.6875 11.515625 40.375 
Q 6.59375 45.0625 6.59375 53.421875 
Q 6.59375 63.09375 13.40625 68.65625 
Q 20.21875 74.21875 32.171875 74.21875 
Q 37.3125 74.21875 42.625 73.28125 
Q 47.953125 72.359375 53.515625 70.515625 
z
" id="DejaVuSans-83"/>
     <path d="M 10.6875 12.40625 
L 21 12.40625 
L 21 0 
L 10.6875 0 
z
" id="DejaVuSans-46"/>
     <path d="M 2.984375 54.6875 
L 12.5 54.6875 
L 29.59375 8.796875 
L 46.6875 54.6875 
L 56.203125 54.6875 
L 35.6875 0 
L 23.484375 0 
z
" id="DejaVuSans-118"/>
    </defs>
    <g transform="translate(371.555625 45.84)scale(0.12 -0.12)">
     <use xlink:href="#DejaVuSans-65"/>
     <use x="68.408203" xlink:href="#DejaVuSans-52"/>
     <use x="132.03125" xlink:href="#DejaVuSans-66"/>
     <use x="200.634766" xlink:href="#DejaVuSans-101"/>
     <use x="262.158203" xlink:href="#DejaVuSans-110"/>
     <use x="325.537109" xlink:href="#DejaVuSans-99"/>
     <use x="380.517578" xlink:href="#DejaVuSans-104"/>
     <use x="443.896484" xlink:href="#DejaVuSans-109"/>
     <use x="541.308594" xlink:href="#DejaVuSans-97"/>
     <use x="602.587891" xlink:href="#DejaVuSans-114"/>
     <use x="643.701172" xlink:href="#DejaVuSans-107"/>
     <use x="701.611328" xlink:href="#DejaVuSans-45"/>
     <use x="737.554688" xlink:href="#DejaVuSans-84"/>
     <use x="798.638672" xlink:href="#DejaVuSans-83"/>
     <use x="862.115234" xlink:href="#DejaVuSans-53"/>
     <use x="925.738281" xlink:href="#DejaVuSans-49"/>
     <use x="989.361328" xlink:href="#DejaVuSans-46"/>
     <use x="1021.148438" xlink:href="#DejaVuSans-99"/>
     <use x="1076.128906" xlink:href="#DejaVuSans-115"/>
     <use x="1128.228516" xlink:href="#DejaVuSans-118"/>
    </g>
   </g>
   <g id="legend_1">
    <g id="patch_112">
     <path d="M 711.284375 74.518125 
L 770.6 74.518125 
Q 772.6 74.518125 772.6 72.518125 
L 772.6 58.84 
Q 772.6 56.84 770.6 56.84 
L 711.284375 56.84 
Q 709.284375 56.84 709.284375 58.84 
L 709.284375 72.518125 
Q 709.284375 74.518125 711.284375 74.518125 
z
" style="fill:#ffffff;opacity:0.8;stroke:#cccccc;stroke-linejoin:miter;"/>
    </g>
    <g id="line2d_19">
     <path d="M 713.284375 64.938438 
L 733.284375 64.938438 
" style="fill:none;stroke:#1f77b4;stroke-linecap:square;stroke-width:1.5;"/>
    </g>
    <g id="line2d_20"/>
    <g id="text_20">
     <!-- value -->
     <g transform="translate(741.284375 68.438438)scale(0.1 -0.1)">
      <use xlink:href="#DejaVuSans-118"/>
      <use x="59.179688" xlink:href="#DejaVuSans-97"/>
      <use x="120.458984" xlink:href="#DejaVuSans-108"/>
      <use x="148.242188" xlink:href="#DejaVuSans-117"/>
      <use x="211.621094" xlink:href="#DejaVuSans-101"/>
     </g>
    </g>
   </g>
  </g>
 </g>
 <defs>
  <clipPath id="p02f388fab5">
   <rect height="332.64" width="669.6" x="108" y="51.84"/>
  </clipPath>
 </defs>
</svg>
