<?xml version="1.0" encoding="utf-8" standalone="no"?>
<!DOCTYPE svg PUBLIC "-//W3C//DTD SVG 1.1//EN"
  "http://www.w3.org/Graphics/SVG/1.1/DTD/svg11.dtd">
<!-- Created with matplotlib (https://matplotlib.org/) -->
<svg height="432pt" version="1.1" viewBox="0 0 864 432" width="864pt" xmlns="http://www.w3.org/2000/svg" xmlns:xlink="http://www.w3.org/1999/xlink">
 <defs>
  <style type="text/css">
*{stroke-linecap:butt;stroke-linejoin:round;}
  </style>
 </defs>
 <g id="figure_1">
  <g id="patch_1">
   <path d="M 0 432 
L 864 432 
L 864 0 
L 0 0 
z
" style="fill:#ffffff;"/>
  </g>
  <g id="axes_1">
   <g id="patch_2">
    <path d="M 108 384.48 
L 777.6 384.48 
L 777.6 51.84 
L 108 51.84 
z
" style="fill:#ffffff;"/>
   </g>
   <g id="patch_3">
    <path clip-path="url(#pa5016e2b61)" d="M 138.436364 384.48 
L 138.436364 51.84 
L 375.163636 51.84 
L 375.163636 384.48 
z
" style="fill:#0000ff;opacity:0.05;"/>
   </g>
   <g id="patch_4">
    <path clip-path="url(#pa5016e2b61)" d="M 375.163636 384.48 
L 375.163636 51.84 
L 747.163636 51.84 
L 747.163636 384.48 
z
" style="fill:#ff0000;opacity:0.08;"/>
   </g>
   <g id="patch_5">
    <path clip-path="url(#pa5016e2b61)" d="M 138.436364 384.48 
L 138.436364 51.84 
L 146.890909 51.84 
L 146.890909 384.48 
z
" style="fill:#008000;opacity:0.04;"/>
   </g>
   <g id="patch_6">
    <path clip-path="url(#pa5016e2b61)" d="M 155.345455 384.48 
L 155.345455 51.84 
L 163.8 51.84 
L 163.8 384.48 
z
" style="fill:#008000;opacity:0.04;"/>
   </g>
   <g id="patch_7">
    <path clip-path="url(#pa5016e2b61)" d="M 172.254545 384.48 
L 172.254545 51.84 
L 180.709091 51.84 
L 180.709091 384.48 
z
" style="fill:#008000;opacity:0.04;"/>
   </g>
   <g id="patch_8">
    <path clip-path="url(#pa5016e2b61)" d="M 189.163636 384.48 
L 189.163636 51.84 
L 197.618182 51.84 
L 197.618182 384.48 
z
" style="fill:#008000;opacity:0.04;"/>
   </g>
   <g id="patch_9">
    <path clip-path="url(#pa5016e2b61)" d="M 206.072727 384.48 
L 206.072727 51.84 
L 214.527273 51.84 
L 214.527273 384.48 
z
" style="fill:#008000;opacity:0.04;"/>
   </g>
   <g id="patch_10">
    <path clip-path="url(#pa5016e2b61)" d="M 222.981818 384.48 
L 222.981818 51.84 
L 231.436364 51.84 
L 231.436364 384.48 
z
" style="fill:#008000;opacity:0.04;"/>
   </g>
   <g id="patch_11">
    <path clip-path="url(#pa5016e2b61)" d="M 239.890909 384.48 
L 239.890909 51.84 
L 248.345455 51.84 
L 248.345455 384.48 
z
" style="fill:#008000;opacity:0.04;"/>
   </g>
   <g id="patch_12">
    <path clip-path="url(#pa5016e2b61)" d="M 256.8 384.48 
L 256.8 51.84 
L 265.254545 51.84 
L 265.254545 384.48 
z
" style="fill:#008000;opacity:0.04;"/>
   </g>
   <g id="patch_13">
    <path clip-path="url(#pa5016e2b61)" d="M 256.8 384.48 
L 256.8 371.1744 
L 265.254545 371.1744 
L 265.254545 384.48 
z
" style="fill:#ffe500;"/>
   </g>
   <g id="patch_14">
    <path clip-path="url(#pa5016e2b61)" d="M 273.709091 384.48 
L 273.709091 51.84 
L 282.163636 51.84 
L 282.163636 384.48 
z
" style="fill:#008000;opacity:0.04;"/>
   </g>
   <g id="patch_15">
    <path clip-path="url(#pa5016e2b61)" d="M 290.618182 384.48 
L 290.618182 51.84 
L 299.072727 51.84 
L 299.072727 384.48 
z
" style="fill:#008000;opacity:0.04;"/>
   </g>
   <g id="patch_16">
    <path clip-path="url(#pa5016e2b61)" d="M 307.527273 384.48 
L 307.527273 51.84 
L 315.981818 51.84 
L 315.981818 384.48 
z
" style="fill:#008000;opacity:0.04;"/>
   </g>
   <g id="patch_17">
    <path clip-path="url(#pa5016e2b61)" d="M 324.436364 384.48 
L 324.436364 51.84 
L 332.890909 51.84 
L 332.890909 384.48 
z
" style="fill:#008000;opacity:0.04;"/>
   </g>
   <g id="patch_18">
    <path clip-path="url(#pa5016e2b61)" d="M 341.345455 384.48 
L 341.345455 51.84 
L 349.8 51.84 
L 349.8 384.48 
z
" style="fill:#008000;opacity:0.04;"/>
   </g>
   <g id="patch_19">
    <path clip-path="url(#pa5016e2b61)" d="M 358.254545 384.48 
L 358.254545 51.84 
L 366.709091 51.84 
L 366.709091 384.48 
z
" style="fill:#008000;opacity:0.04;"/>
   </g>
   <g id="patch_20">
    <path clip-path="url(#pa5016e2b61)" d="M 358.254545 384.48 
L 358.254545 371.1744 
L 366.709091 371.1744 
L 366.709091 384.48 
z
" style="fill:#ffe500;"/>
   </g>
   <g id="patch_21">
    <path clip-path="url(#pa5016e2b61)" d="M 375.163636 384.48 
L 375.163636 51.84 
L 383.618182 51.84 
L 383.618182 384.48 
z
" style="fill:#008000;opacity:0.04;"/>
   </g>
   <g id="patch_22">
    <path clip-path="url(#pa5016e2b61)" d="M 392.072727 384.48 
L 392.072727 51.84 
L 400.527273 51.84 
L 400.527273 384.48 
z
" style="fill:#008000;opacity:0.04;"/>
   </g>
   <g id="patch_23">
    <path clip-path="url(#pa5016e2b61)" d="M 408.981818 384.48 
L 408.981818 51.84 
L 417.436364 51.84 
L 417.436364 384.48 
z
" style="fill:#008000;opacity:0.04;"/>
   </g>
   <g id="patch_24">
    <path clip-path="url(#pa5016e2b61)" d="M 425.890909 384.48 
L 425.890909 51.84 
L 434.345455 51.84 
L 434.345455 384.48 
z
" style="fill:#008000;opacity:0.04;"/>
   </g>
   <g id="patch_25">
    <path clip-path="url(#pa5016e2b61)" d="M 442.8 384.48 
L 442.8 51.84 
L 451.254545 51.84 
L 451.254545 384.48 
z
" style="fill:#008000;opacity:0.04;"/>
   </g>
   <g id="patch_26">
    <path clip-path="url(#pa5016e2b61)" d="M 459.709091 384.48 
L 459.709091 51.84 
L 468.163636 51.84 
L 468.163636 384.48 
z
" style="fill:#008000;opacity:0.04;"/>
   </g>
   <g id="patch_27">
    <path clip-path="url(#pa5016e2b61)" d="M 696.436364 384.48 
L 696.436364 371.1744 
L 704.890909 371.1744 
L 704.890909 384.48 
z
" style="fill:#ff6600;"/>
   </g>
   <g id="patch_28">
    <path clip-path="url(#pa5016e2b61)" d="M 476.618182 384.48 
L 476.618182 51.84 
L 485.072727 51.84 
L 485.072727 384.48 
z
" style="fill:#008000;opacity:0.04;"/>
   </g>
   <g id="patch_29">
    <path clip-path="url(#pa5016e2b61)" d="M 493.527273 384.48 
L 493.527273 51.84 
L 501.981818 51.84 
L 501.981818 384.48 
z
" style="fill:#008000;opacity:0.04;"/>
   </g>
   <g id="patch_30">
    <path clip-path="url(#pa5016e2b61)" d="M 510.436364 384.48 
L 510.436364 51.84 
L 518.890909 51.84 
L 518.890909 384.48 
z
" style="fill:#008000;opacity:0.04;"/>
   </g>
   <g id="patch_31">
    <path clip-path="url(#pa5016e2b61)" d="M 527.345455 384.48 
L 527.345455 51.84 
L 535.8 51.84 
L 535.8 384.48 
z
" style="fill:#008000;opacity:0.04;"/>
   </g>
   <g id="patch_32">
    <path clip-path="url(#pa5016e2b61)" d="M 544.254545 384.48 
L 544.254545 51.84 
L 552.709091 51.84 
L 552.709091 384.48 
z
" style="fill:#008000;opacity:0.04;"/>
   </g>
   <g id="patch_33">
    <path clip-path="url(#pa5016e2b61)" d="M 561.163636 384.48 
L 561.163636 51.84 
L 569.618182 51.84 
L 569.618182 384.48 
z
" style="fill:#008000;opacity:0.04;"/>
   </g>
   <g id="patch_34">
    <path clip-path="url(#pa5016e2b61)" d="M 578.072727 384.48 
L 578.072727 51.84 
L 586.527273 51.84 
L 586.527273 384.48 
z
" style="fill:#008000;opacity:0.04;"/>
   </g>
   <g id="patch_35">
    <path clip-path="url(#pa5016e2b61)" d="M 594.981818 384.48 
L 594.981818 51.84 
L 603.436364 51.84 
L 603.436364 384.48 
z
" style="fill:#008000;opacity:0.04;"/>
   </g>
   <g id="patch_36">
    <path clip-path="url(#pa5016e2b61)" d="M 611.890909 384.48 
L 611.890909 51.84 
L 620.345455 51.84 
L 620.345455 384.48 
z
" style="fill:#008000;opacity:0.04;"/>
   </g>
   <g id="patch_37">
    <path clip-path="url(#pa5016e2b61)" d="M 628.8 384.48 
L 628.8 51.84 
L 637.254545 51.84 
L 637.254545 384.48 
z
" style="fill:#008000;opacity:0.04;"/>
   </g>
   <g id="patch_38">
    <path clip-path="url(#pa5016e2b61)" d="M 645.709091 384.48 
L 645.709091 51.84 
L 654.163636 51.84 
L 654.163636 384.48 
z
" style="fill:#008000;opacity:0.04;"/>
   </g>
   <g id="patch_39">
    <path clip-path="url(#pa5016e2b61)" d="M 662.618182 384.48 
L 662.618182 51.84 
L 671.072727 51.84 
L 671.072727 384.48 
z
" style="fill:#008000;opacity:0.04;"/>
   </g>
   <g id="patch_40">
    <path clip-path="url(#pa5016e2b61)" d="M 679.527273 384.48 
L 679.527273 51.84 
L 687.981818 51.84 
L 687.981818 384.48 
z
" style="fill:#008000;opacity:0.04;"/>
   </g>
   <g id="patch_41">
    <path clip-path="url(#pa5016e2b61)" d="M 696.436364 384.48 
L 696.436364 51.84 
L 704.890909 51.84 
L 704.890909 384.48 
z
" style="fill:#008000;opacity:0.04;"/>
   </g>
   <g id="patch_42">
    <path clip-path="url(#pa5016e2b61)" d="M 713.345455 384.48 
L 713.345455 51.84 
L 721.8 51.84 
L 721.8 384.48 
z
" style="fill:#008000;opacity:0.04;"/>
   </g>
   <g id="patch_43">
    <path clip-path="url(#pa5016e2b61)" d="M 730.254545 384.48 
L 730.254545 51.84 
L 738.709091 51.84 
L 738.709091 384.48 
z
" style="fill:#008000;opacity:0.04;"/>
   </g>
   <g id="matplotlib.axis_1">
    <g id="xtick_1">
     <g id="line2d_1">
      <defs>
       <path d="M 0 0 
L 0 3.5 
" id="mc663b75106" style="stroke:#000000;stroke-width:0.8;"/>
      </defs>
      <g>
       <use style="stroke:#000000;stroke-width:0.8;" x="138.436364" xlink:href="#mc663b75106" y="384.48"/>
      </g>
     </g>
     <g id="text_1">
      <!-- 0 -->
      <defs>
       <path d="M 31.78125 66.40625 
Q 24.171875 66.40625 20.328125 58.90625 
Q 16.5 51.421875 16.5 36.375 
Q 16.5 21.390625 20.328125 13.890625 
Q 24.171875 6.390625 31.78125 6.390625 
Q 39.453125 6.390625 43.28125 13.890625 
Q 47.125 21.390625 47.125 36.375 
Q 47.125 51.421875 43.28125 58.90625 
Q 39.453125 66.40625 31.78125 66.40625 
z
M 31.78125 74.21875 
Q 44.046875 74.21875 50.515625 64.515625 
Q 56.984375 54.828125 56.984375 36.375 
Q 56.984375 17.96875 50.515625 8.265625 
Q 44.046875 -1.421875 31.78125 -1.421875 
Q 19.53125 -1.421875 13.0625 8.265625 
Q 6.59375 17.96875 6.59375 36.375 
Q 6.59375 54.828125 13.0625 64.515625 
Q 19.53125 74.21875 31.78125 74.21875 
z
" id="DejaVuSans-48"/>
      </defs>
      <g transform="translate(135.255114 399.078438)scale(0.1 -0.1)">
       <use xlink:href="#DejaVuSans-48"/>
      </g>
     </g>
    </g>
    <g id="xtick_2">
     <g id="line2d_2">
      <g>
       <use style="stroke:#000000;stroke-width:0.8;" x="222.981818" xlink:href="#mc663b75106" y="384.48"/>
      </g>
     </g>
     <g id="text_2">
      <!-- 200 -->
      <defs>
       <path d="M 19.1875 8.296875 
L 53.609375 8.296875 
L 53.609375 0 
L 7.328125 0 
L 7.328125 8.296875 
Q 12.9375 14.109375 22.625 23.890625 
Q 32.328125 33.6875 34.8125 36.53125 
Q 39.546875 41.84375 41.421875 45.53125 
Q 43.3125 49.21875 43.3125 52.78125 
Q 43.3125 58.59375 39.234375 62.25 
Q 35.15625 65.921875 28.609375 65.921875 
Q 23.96875 65.921875 18.8125 64.3125 
Q 13.671875 62.703125 7.8125 59.421875 
L 7.8125 69.390625 
Q 13.765625 71.78125 18.9375 73 
Q 24.125 74.21875 28.421875 74.21875 
Q 39.75 74.21875 46.484375 68.546875 
Q 53.21875 62.890625 53.21875 53.421875 
Q 53.21875 48.921875 51.53125 44.890625 
Q 49.859375 40.875 45.40625 35.40625 
Q 44.1875 33.984375 37.640625 27.21875 
Q 31.109375 20.453125 19.1875 8.296875 
z
" id="DejaVuSans-50"/>
      </defs>
      <g transform="translate(213.438068 399.078438)scale(0.1 -0.1)">
       <use xlink:href="#DejaVuSans-50"/>
       <use x="63.623047" xlink:href="#DejaVuSans-48"/>
       <use x="127.246094" xlink:href="#DejaVuSans-48"/>
      </g>
     </g>
    </g>
    <g id="xtick_3">
     <g id="line2d_3">
      <g>
       <use style="stroke:#000000;stroke-width:0.8;" x="307.527273" xlink:href="#mc663b75106" y="384.48"/>
      </g>
     </g>
     <g id="text_3">
      <!-- 400 -->
      <defs>
       <path d="M 37.796875 64.3125 
L 12.890625 25.390625 
L 37.796875 25.390625 
z
M 35.203125 72.90625 
L 47.609375 72.90625 
L 47.609375 25.390625 
L 58.015625 25.390625 
L 58.015625 17.1875 
L 47.609375 17.1875 
L 47.609375 0 
L 37.796875 0 
L 37.796875 17.1875 
L 4.890625 17.1875 
L 4.890625 26.703125 
z
" id="DejaVuSans-52"/>
      </defs>
      <g transform="translate(297.983523 399.078438)scale(0.1 -0.1)">
       <use xlink:href="#DejaVuSans-52"/>
       <use x="63.623047" xlink:href="#DejaVuSans-48"/>
       <use x="127.246094" xlink:href="#DejaVuSans-48"/>
      </g>
     </g>
    </g>
    <g id="xtick_4">
     <g id="line2d_4">
      <g>
       <use style="stroke:#000000;stroke-width:0.8;" x="392.072727" xlink:href="#mc663b75106" y="384.48"/>
      </g>
     </g>
     <g id="text_4">
      <!-- 600 -->
      <defs>
       <path d="M 33.015625 40.375 
Q 26.375 40.375 22.484375 35.828125 
Q 18.609375 31.296875 18.609375 23.390625 
Q 18.609375 15.53125 22.484375 10.953125 
Q 26.375 6.390625 33.015625 6.390625 
Q 39.65625 6.390625 43.53125 10.953125 
Q 47.40625 15.53125 47.40625 23.390625 
Q 47.40625 31.296875 43.53125 35.828125 
Q 39.65625 40.375 33.015625 40.375 
z
M 52.59375 71.296875 
L 52.59375 62.3125 
Q 48.875 64.0625 45.09375 64.984375 
Q 41.3125 65.921875 37.59375 65.921875 
Q 27.828125 65.921875 22.671875 59.328125 
Q 17.53125 52.734375 16.796875 39.40625 
Q 19.671875 43.65625 24.015625 45.921875 
Q 28.375 48.1875 33.59375 48.1875 
Q 44.578125 48.1875 50.953125 41.515625 
Q 57.328125 34.859375 57.328125 23.390625 
Q 57.328125 12.15625 50.6875 5.359375 
Q 44.046875 -1.421875 33.015625 -1.421875 
Q 20.359375 -1.421875 13.671875 8.265625 
Q 6.984375 17.96875 6.984375 36.375 
Q 6.984375 53.65625 15.1875 63.9375 
Q 23.390625 74.21875 37.203125 74.21875 
Q 40.921875 74.21875 44.703125 73.484375 
Q 48.484375 72.75 52.59375 71.296875 
z
" id="DejaVuSans-54"/>
      </defs>
      <g transform="translate(382.528977 399.078438)scale(0.1 -0.1)">
       <use xlink:href="#DejaVuSans-54"/>
       <use x="63.623047" xlink:href="#DejaVuSans-48"/>
       <use x="127.246094" xlink:href="#DejaVuSans-48"/>
      </g>
     </g>
    </g>
    <g id="xtick_5">
     <g id="line2d_5">
      <g>
       <use style="stroke:#000000;stroke-width:0.8;" x="476.618182" xlink:href="#mc663b75106" y="384.48"/>
      </g>
     </g>
     <g id="text_5">
      <!-- 800 -->
      <defs>
       <path d="M 31.78125 34.625 
Q 24.75 34.625 20.71875 30.859375 
Q 16.703125 27.09375 16.703125 20.515625 
Q 16.703125 13.921875 20.71875 10.15625 
Q 24.75 6.390625 31.78125 6.390625 
Q 38.8125 6.390625 42.859375 10.171875 
Q 46.921875 13.96875 46.921875 20.515625 
Q 46.921875 27.09375 42.890625 30.859375 
Q 38.875 34.625 31.78125 34.625 
z
M 21.921875 38.8125 
Q 15.578125 40.375 12.03125 44.71875 
Q 8.5 49.078125 8.5 55.328125 
Q 8.5 64.0625 14.71875 69.140625 
Q 20.953125 74.21875 31.78125 74.21875 
Q 42.671875 74.21875 48.875 69.140625 
Q 55.078125 64.0625 55.078125 55.328125 
Q 55.078125 49.078125 51.53125 44.71875 
Q 48 40.375 41.703125 38.8125 
Q 48.828125 37.15625 52.796875 32.3125 
Q 56.78125 27.484375 56.78125 20.515625 
Q 56.78125 9.90625 50.3125 4.234375 
Q 43.84375 -1.421875 31.78125 -1.421875 
Q 19.734375 -1.421875 13.25 4.234375 
Q 6.78125 9.90625 6.78125 20.515625 
Q 6.78125 27.484375 10.78125 32.3125 
Q 14.796875 37.15625 21.921875 38.8125 
z
M 18.3125 54.390625 
Q 18.3125 48.734375 21.84375 45.5625 
Q 25.390625 42.390625 31.78125 42.390625 
Q 38.140625 42.390625 41.71875 45.5625 
Q 45.3125 48.734375 45.3125 54.390625 
Q 45.3125 60.0625 41.71875 63.234375 
Q 38.140625 66.40625 31.78125 66.40625 
Q 25.390625 66.40625 21.84375 63.234375 
Q 18.3125 60.0625 18.3125 54.390625 
z
" id="DejaVuSans-56"/>
      </defs>
      <g transform="translate(467.074432 399.078438)scale(0.1 -0.1)">
       <use xlink:href="#DejaVuSans-56"/>
       <use x="63.623047" xlink:href="#DejaVuSans-48"/>
       <use x="127.246094" xlink:href="#DejaVuSans-48"/>
      </g>
     </g>
    </g>
    <g id="xtick_6">
     <g id="line2d_6">
      <g>
       <use style="stroke:#000000;stroke-width:0.8;" x="561.163636" xlink:href="#mc663b75106" y="384.48"/>
      </g>
     </g>
     <g id="text_6">
      <!-- 1000 -->
      <defs>
       <path d="M 12.40625 8.296875 
L 28.515625 8.296875 
L 28.515625 63.921875 
L 10.984375 60.40625 
L 10.984375 69.390625 
L 28.421875 72.90625 
L 38.28125 72.90625 
L 38.28125 8.296875 
L 54.390625 8.296875 
L 54.390625 0 
L 12.40625 0 
z
" id="DejaVuSans-49"/>
      </defs>
      <g transform="translate(548.438636 399.078438)scale(0.1 -0.1)">
       <use xlink:href="#DejaVuSans-49"/>
       <use x="63.623047" xlink:href="#DejaVuSans-48"/>
       <use x="127.246094" xlink:href="#DejaVuSans-48"/>
       <use x="190.869141" xlink:href="#DejaVuSans-48"/>
      </g>
     </g>
    </g>
    <g id="xtick_7">
     <g id="line2d_7">
      <g>
       <use style="stroke:#000000;stroke-width:0.8;" x="645.709091" xlink:href="#mc663b75106" y="384.48"/>
      </g>
     </g>
     <g id="text_7">
      <!-- 1200 -->
      <g transform="translate(632.984091 399.078438)scale(0.1 -0.1)">
       <use xlink:href="#DejaVuSans-49"/>
       <use x="63.623047" xlink:href="#DejaVuSans-50"/>
       <use x="127.246094" xlink:href="#DejaVuSans-48"/>
       <use x="190.869141" xlink:href="#DejaVuSans-48"/>
      </g>
     </g>
    </g>
    <g id="xtick_8">
     <g id="line2d_8">
      <g>
       <use style="stroke:#000000;stroke-width:0.8;" x="730.254545" xlink:href="#mc663b75106" y="384.48"/>
      </g>
     </g>
     <g id="text_8">
      <!-- 1400 -->
      <g transform="translate(717.529545 399.078438)scale(0.1 -0.1)">
       <use xlink:href="#DejaVuSans-49"/>
       <use x="63.623047" xlink:href="#DejaVuSans-52"/>
       <use x="127.246094" xlink:href="#DejaVuSans-48"/>
       <use x="190.869141" xlink:href="#DejaVuSans-48"/>
      </g>
     </g>
    </g>
    <g id="text_9">
     <!-- Timestamp -->
     <defs>
      <path d="M -0.296875 72.90625 
L 61.375 72.90625 
L 61.375 64.59375 
L 35.5 64.59375 
L 35.5 0 
L 25.59375 0 
L 25.59375 64.59375 
L -0.296875 64.59375 
z
" id="DejaVuSans-84"/>
      <path d="M 9.421875 54.6875 
L 18.40625 54.6875 
L 18.40625 0 
L 9.421875 0 
z
M 9.421875 75.984375 
L 18.40625 75.984375 
L 18.40625 64.59375 
L 9.421875 64.59375 
z
" id="DejaVuSans-105"/>
      <path d="M 52 44.1875 
Q 55.375 50.25 60.0625 53.125 
Q 64.75 56 71.09375 56 
Q 79.640625 56 84.28125 50.015625 
Q 88.921875 44.046875 88.921875 33.015625 
L 88.921875 0 
L 79.890625 0 
L 79.890625 32.71875 
Q 79.890625 40.578125 77.09375 44.375 
Q 74.3125 48.1875 68.609375 48.1875 
Q 61.625 48.1875 57.5625 43.546875 
Q 53.515625 38.921875 53.515625 30.90625 
L 53.515625 0 
L 44.484375 0 
L 44.484375 32.71875 
Q 44.484375 40.625 41.703125 44.40625 
Q 38.921875 48.1875 33.109375 48.1875 
Q 26.21875 48.1875 22.15625 43.53125 
Q 18.109375 38.875 18.109375 30.90625 
L 18.109375 0 
L 9.078125 0 
L 9.078125 54.6875 
L 18.109375 54.6875 
L 18.109375 46.1875 
Q 21.1875 51.21875 25.484375 53.609375 
Q 29.78125 56 35.6875 56 
Q 41.65625 56 45.828125 52.96875 
Q 50 49.953125 52 44.1875 
z
" id="DejaVuSans-109"/>
      <path d="M 56.203125 29.59375 
L 56.203125 25.203125 
L 14.890625 25.203125 
Q 15.484375 15.921875 20.484375 11.0625 
Q 25.484375 6.203125 34.421875 6.203125 
Q 39.59375 6.203125 44.453125 7.46875 
Q 49.3125 8.734375 54.109375 11.28125 
L 54.109375 2.78125 
Q 49.265625 0.734375 44.1875 -0.34375 
Q 39.109375 -1.421875 33.890625 -1.421875 
Q 20.796875 -1.421875 13.15625 6.1875 
Q 5.515625 13.8125 5.515625 26.8125 
Q 5.515625 40.234375 12.765625 48.109375 
Q 20.015625 56 32.328125 56 
Q 43.359375 56 49.78125 48.890625 
Q 56.203125 41.796875 56.203125 29.59375 
z
M 47.21875 32.234375 
Q 47.125 39.59375 43.09375 43.984375 
Q 39.0625 48.390625 32.421875 48.390625 
Q 24.90625 48.390625 20.390625 44.140625 
Q 15.875 39.890625 15.1875 32.171875 
z
" id="DejaVuSans-101"/>
      <path d="M 44.28125 53.078125 
L 44.28125 44.578125 
Q 40.484375 46.53125 36.375 47.5 
Q 32.28125 48.484375 27.875 48.484375 
Q 21.1875 48.484375 17.84375 46.4375 
Q 14.5 44.390625 14.5 40.28125 
Q 14.5 37.15625 16.890625 35.375 
Q 19.28125 33.59375 26.515625 31.984375 
L 29.59375 31.296875 
Q 39.15625 29.25 43.1875 25.515625 
Q 47.21875 21.78125 47.21875 15.09375 
Q 47.21875 7.46875 41.1875 3.015625 
Q 35.15625 -1.421875 24.609375 -1.421875 
Q 20.21875 -1.421875 15.453125 -0.5625 
Q 10.6875 0.296875 5.421875 2 
L 5.421875 11.28125 
Q 10.40625 8.6875 15.234375 7.390625 
Q 20.0625 6.109375 24.8125 6.109375 
Q 31.15625 6.109375 34.5625 8.28125 
Q 37.984375 10.453125 37.984375 14.40625 
Q 37.984375 18.0625 35.515625 20.015625 
Q 33.0625 21.96875 24.703125 23.78125 
L 21.578125 24.515625 
Q 13.234375 26.265625 9.515625 29.90625 
Q 5.8125 33.546875 5.8125 39.890625 
Q 5.8125 47.609375 11.28125 51.796875 
Q 16.75 56 26.8125 56 
Q 31.78125 56 36.171875 55.265625 
Q 40.578125 54.546875 44.28125 53.078125 
z
" id="DejaVuSans-115"/>
      <path d="M 18.3125 70.21875 
L 18.3125 54.6875 
L 36.8125 54.6875 
L 36.8125 47.703125 
L 18.3125 47.703125 
L 18.3125 18.015625 
Q 18.3125 11.328125 20.140625 9.421875 
Q 21.96875 7.515625 27.59375 7.515625 
L 36.8125 7.515625 
L 36.8125 0 
L 27.59375 0 
Q 17.1875 0 13.234375 3.875 
Q 9.28125 7.765625 9.28125 18.015625 
L 9.28125 47.703125 
L 2.6875 47.703125 
L 2.6875 54.6875 
L 9.28125 54.6875 
L 9.28125 70.21875 
z
" id="DejaVuSans-116"/>
      <path d="M 34.28125 27.484375 
Q 23.390625 27.484375 19.1875 25 
Q 14.984375 22.515625 14.984375 16.5 
Q 14.984375 11.71875 18.140625 8.90625 
Q 21.296875 6.109375 26.703125 6.109375 
Q 34.1875 6.109375 38.703125 11.40625 
Q 43.21875 16.703125 43.21875 25.484375 
L 43.21875 27.484375 
z
M 52.203125 31.203125 
L 52.203125 0 
L 43.21875 0 
L 43.21875 8.296875 
Q 40.140625 3.328125 35.546875 0.953125 
Q 30.953125 -1.421875 24.3125 -1.421875 
Q 15.921875 -1.421875 10.953125 3.296875 
Q 6 8.015625 6 15.921875 
Q 6 25.140625 12.171875 29.828125 
Q 18.359375 34.515625 30.609375 34.515625 
L 43.21875 34.515625 
L 43.21875 35.40625 
Q 43.21875 41.609375 39.140625 45 
Q 35.0625 48.390625 27.6875 48.390625 
Q 23 48.390625 18.546875 47.265625 
Q 14.109375 46.140625 10.015625 43.890625 
L 10.015625 52.203125 
Q 14.9375 54.109375 19.578125 55.046875 
Q 24.21875 56 28.609375 56 
Q 40.484375 56 46.34375 49.84375 
Q 52.203125 43.703125 52.203125 31.203125 
z
" id="DejaVuSans-97"/>
      <path d="M 18.109375 8.203125 
L 18.109375 -20.796875 
L 9.078125 -20.796875 
L 9.078125 54.6875 
L 18.109375 54.6875 
L 18.109375 46.390625 
Q 20.953125 51.265625 25.265625 53.625 
Q 29.59375 56 35.59375 56 
Q 45.5625 56 51.78125 48.09375 
Q 58.015625 40.1875 58.015625 27.296875 
Q 58.015625 14.40625 51.78125 6.484375 
Q 45.5625 -1.421875 35.59375 -1.421875 
Q 29.59375 -1.421875 25.265625 0.953125 
Q 20.953125 3.328125 18.109375 8.203125 
z
M 48.6875 27.296875 
Q 48.6875 37.203125 44.609375 42.84375 
Q 40.53125 48.484375 33.40625 48.484375 
Q 26.265625 48.484375 22.1875 42.84375 
Q 18.109375 37.203125 18.109375 27.296875 
Q 18.109375 17.390625 22.1875 11.75 
Q 26.265625 6.109375 33.40625 6.109375 
Q 40.53125 6.109375 44.609375 11.75 
Q 48.6875 17.390625 48.6875 27.296875 
z
" id="DejaVuSans-112"/>
     </defs>
     <g transform="translate(414.739062 412.756563)scale(0.1 -0.1)">
      <use xlink:href="#DejaVuSans-84"/>
      <use x="61.037109" xlink:href="#DejaVuSans-105"/>
      <use x="88.820312" xlink:href="#DejaVuSans-109"/>
      <use x="186.232422" xlink:href="#DejaVuSans-101"/>
      <use x="247.755859" xlink:href="#DejaVuSans-115"/>
      <use x="299.855469" xlink:href="#DejaVuSans-116"/>
      <use x="339.064453" xlink:href="#DejaVuSans-97"/>
      <use x="400.34375" xlink:href="#DejaVuSans-109"/>
      <use x="497.755859" xlink:href="#DejaVuSans-112"/>
     </g>
    </g>
   </g>
   <g id="matplotlib.axis_2">
    <g id="ytick_1">
     <g id="line2d_9">
      <defs>
       <path d="M 0 0 
L -3.5 0 
" id="mdbf176ee3d" style="stroke:#000000;stroke-width:0.8;"/>
      </defs>
      <g>
       <use style="stroke:#000000;stroke-width:0.8;" x="108" xlink:href="#mdbf176ee3d" y="369.36"/>
      </g>
     </g>
     <g id="text_10">
      <!-- 0 -->
      <g transform="translate(94.6375 373.159219)scale(0.1 -0.1)">
       <use xlink:href="#DejaVuSans-48"/>
      </g>
     </g>
    </g>
    <g id="ytick_2">
     <g id="line2d_10">
      <g>
       <use style="stroke:#000000;stroke-width:0.8;" x="108" xlink:href="#mdbf176ee3d" y="305.019574"/>
      </g>
     </g>
     <g id="text_11">
      <!-- 10 -->
      <g transform="translate(88.275 308.818793)scale(0.1 -0.1)">
       <use xlink:href="#DejaVuSans-49"/>
       <use x="63.623047" xlink:href="#DejaVuSans-48"/>
      </g>
     </g>
    </g>
    <g id="ytick_3">
     <g id="line2d_11">
      <g>
       <use style="stroke:#000000;stroke-width:0.8;" x="108" xlink:href="#mdbf176ee3d" y="240.679149"/>
      </g>
     </g>
     <g id="text_12">
      <!-- 20 -->
      <g transform="translate(88.275 244.478368)scale(0.1 -0.1)">
       <use xlink:href="#DejaVuSans-50"/>
       <use x="63.623047" xlink:href="#DejaVuSans-48"/>
      </g>
     </g>
    </g>
    <g id="ytick_4">
     <g id="line2d_12">
      <g>
       <use style="stroke:#000000;stroke-width:0.8;" x="108" xlink:href="#mdbf176ee3d" y="176.338723"/>
      </g>
     </g>
     <g id="text_13">
      <!-- 30 -->
      <defs>
       <path d="M 40.578125 39.3125 
Q 47.65625 37.796875 51.625 33 
Q 55.609375 28.21875 55.609375 21.1875 
Q 55.609375 10.40625 48.1875 4.484375 
Q 40.765625 -1.421875 27.09375 -1.421875 
Q 22.515625 -1.421875 17.65625 -0.515625 
Q 12.796875 0.390625 7.625 2.203125 
L 7.625 11.71875 
Q 11.71875 9.328125 16.59375 8.109375 
Q 21.484375 6.890625 26.8125 6.890625 
Q 36.078125 6.890625 40.9375 10.546875 
Q 45.796875 14.203125 45.796875 21.1875 
Q 45.796875 27.640625 41.28125 31.265625 
Q 36.765625 34.90625 28.71875 34.90625 
L 20.21875 34.90625 
L 20.21875 43.015625 
L 29.109375 43.015625 
Q 36.375 43.015625 40.234375 45.921875 
Q 44.09375 48.828125 44.09375 54.296875 
Q 44.09375 59.90625 40.109375 62.90625 
Q 36.140625 65.921875 28.71875 65.921875 
Q 24.65625 65.921875 20.015625 65.03125 
Q 15.375 64.15625 9.8125 62.3125 
L 9.8125 71.09375 
Q 15.4375 72.65625 20.34375 73.4375 
Q 25.25 74.21875 29.59375 74.21875 
Q 40.828125 74.21875 47.359375 69.109375 
Q 53.90625 64.015625 53.90625 55.328125 
Q 53.90625 49.265625 50.4375 45.09375 
Q 46.96875 40.921875 40.578125 39.3125 
z
" id="DejaVuSans-51"/>
      </defs>
      <g transform="translate(88.275 180.137942)scale(0.1 -0.1)">
       <use xlink:href="#DejaVuSans-51"/>
       <use x="63.623047" xlink:href="#DejaVuSans-48"/>
      </g>
     </g>
    </g>
    <g id="ytick_5">
     <g id="line2d_13">
      <g>
       <use style="stroke:#000000;stroke-width:0.8;" x="108" xlink:href="#mdbf176ee3d" y="111.998298"/>
      </g>
     </g>
     <g id="text_14">
      <!-- 40 -->
      <g transform="translate(88.275 115.797517)scale(0.1 -0.1)">
       <use xlink:href="#DejaVuSans-52"/>
       <use x="63.623047" xlink:href="#DejaVuSans-48"/>
      </g>
     </g>
    </g>
    <g id="text_15">
     <!-- Value -->
     <defs>
      <path d="M 28.609375 0 
L 0.78125 72.90625 
L 11.078125 72.90625 
L 34.1875 11.53125 
L 57.328125 72.90625 
L 67.578125 72.90625 
L 39.796875 0 
z
" id="DejaVuSans-86"/>
      <path d="M 9.421875 75.984375 
L 18.40625 75.984375 
L 18.40625 0 
L 9.421875 0 
z
" id="DejaVuSans-108"/>
      <path d="M 8.5 21.578125 
L 8.5 54.6875 
L 17.484375 54.6875 
L 17.484375 21.921875 
Q 17.484375 14.15625 20.5 10.265625 
Q 23.53125 6.390625 29.59375 6.390625 
Q 36.859375 6.390625 41.078125 11.03125 
Q 45.3125 15.671875 45.3125 23.6875 
L 45.3125 54.6875 
L 54.296875 54.6875 
L 54.296875 0 
L 45.3125 0 
L 45.3125 8.40625 
Q 42.046875 3.421875 37.71875 1 
Q 33.40625 -1.421875 27.6875 -1.421875 
Q 18.265625 -1.421875 13.375 4.4375 
Q 8.5 10.296875 8.5 21.578125 
z
M 31.109375 56 
z
" id="DejaVuSans-117"/>
     </defs>
     <g transform="translate(82.195312 232.273281)rotate(-90)scale(0.1 -0.1)">
      <use xlink:href="#DejaVuSans-86"/>
      <use x="68.298828" xlink:href="#DejaVuSans-97"/>
      <use x="129.578125" xlink:href="#DejaVuSans-108"/>
      <use x="157.361328" xlink:href="#DejaVuSans-117"/>
      <use x="220.740234" xlink:href="#DejaVuSans-101"/>
     </g>
    </g>
   </g>
   <g id="line2d_14">
    <path clip-path="url(#pa5016e2b61)" d="M 138.436364 337.189787 
L 138.859091 324.321702 
L 139.281818 343.62383 
L 139.704545 337.189787 
L 140.127273 369.36 
L 140.55 356.491915 
L 140.972727 356.491915 
L 141.395455 311.453617 
L 141.818182 298.585532 
L 142.240909 311.453617 
L 142.663636 305.019574 
L 143.086364 279.283404 
L 143.509091 330.755745 
L 143.931818 311.453617 
L 144.354545 317.88766 
L 144.777273 292.151489 
L 145.622727 330.755745 
L 146.045455 234.245106 
L 146.468182 337.189787 
L 146.890909 343.62383 
L 147.313636 292.151489 
L 147.736364 285.717447 
L 148.159091 356.491915 
L 148.581818 337.189787 
L 149.004545 285.717447 
L 149.427273 356.491915 
L 150.272727 317.88766 
L 150.695455 324.321702 
L 151.540909 259.981277 
L 151.963636 311.453617 
L 152.386364 234.245106 
L 152.809091 298.585532 
L 153.231818 343.62383 
L 153.654545 311.453617 
L 154.077273 324.321702 
L 154.5 259.981277 
L 154.922727 259.981277 
L 155.345455 324.321702 
L 155.768182 330.755745 
L 156.190909 272.849362 
L 156.613636 324.321702 
L 157.036364 285.717447 
L 157.881818 337.189787 
L 158.304545 298.585532 
L 158.727273 311.453617 
L 159.15 356.491915 
L 159.572727 330.755745 
L 159.995455 330.755745 
L 160.418182 343.62383 
L 160.840909 330.755745 
L 161.263636 311.453617 
L 161.686364 272.849362 
L 162.531818 343.62383 
L 163.377273 240.679149 
L 163.8 298.585532 
L 164.222727 221.377021 
L 164.645455 292.151489 
L 165.068182 317.88766 
L 165.490909 214.942979 
L 165.913636 324.321702 
L 166.759091 298.585532 
L 167.181818 317.88766 
L 167.604545 350.057872 
L 168.027273 292.151489 
L 168.45 305.019574 
L 168.872727 356.491915 
L 169.718182 311.453617 
L 170.140909 317.88766 
L 170.563636 317.88766 
L 170.986364 350.057872 
L 171.409091 330.755745 
L 171.831818 305.019574 
L 172.254545 330.755745 
L 172.677273 266.415319 
L 173.1 305.019574 
L 173.522727 324.321702 
L 173.945455 272.849362 
L 174.368182 330.755745 
L 174.790909 356.491915 
L 175.213636 259.981277 
L 175.636364 317.88766 
L 176.059091 324.321702 
L 176.481818 324.321702 
L 176.904545 356.491915 
L 177.327273 317.88766 
L 177.75 317.88766 
L 178.172727 330.755745 
L 178.595455 311.453617 
L 179.018182 330.755745 
L 179.440909 324.321702 
L 179.863636 343.62383 
L 180.709091 369.36 
L 181.131818 279.283404 
L 181.554545 317.88766 
L 181.977273 298.585532 
L 182.4 285.717447 
L 182.822727 311.453617 
L 183.245455 298.585532 
L 183.668182 311.453617 
L 184.090909 292.151489 
L 184.513636 227.811064 
L 184.936364 356.491915 
L 185.359091 266.415319 
L 185.781818 337.189787 
L 186.204545 343.62383 
L 186.627273 311.453617 
L 187.05 317.88766 
L 187.472727 350.057872 
L 187.895455 305.019574 
L 188.318182 356.491915 
L 188.740909 343.62383 
L 189.163636 369.36 
L 189.586364 343.62383 
L 190.009091 369.36 
L 190.431818 337.189787 
L 190.854545 285.717447 
L 191.277273 330.755745 
L 192.122727 343.62383 
L 192.545455 330.755745 
L 192.968182 343.62383 
L 193.390909 311.453617 
L 193.813636 253.547234 
L 194.236364 356.491915 
L 194.659091 324.321702 
L 195.081818 195.640851 
L 195.504545 311.453617 
L 195.927273 305.019574 
L 196.35 317.88766 
L 196.772727 362.925957 
L 197.195455 292.151489 
L 197.618182 317.88766 
L 198.463636 343.62383 
L 198.886364 317.88766 
L 199.309091 343.62383 
L 199.731818 317.88766 
L 200.154545 356.491915 
L 200.577273 317.88766 
L 201 324.321702 
L 201.422727 356.491915 
L 201.845455 330.755745 
L 202.268182 324.321702 
L 202.690909 343.62383 
L 203.113636 317.88766 
L 203.536364 259.981277 
L 204.381818 343.62383 
L 204.804545 343.62383 
L 205.227273 285.717447 
L 205.65 317.88766 
L 206.072727 337.189787 
L 206.495455 337.189787 
L 206.918182 343.62383 
L 207.340909 337.189787 
L 207.763636 350.057872 
L 208.186364 330.755745 
L 208.609091 330.755745 
L 209.031818 343.62383 
L 209.454545 337.189787 
L 209.877273 292.151489 
L 210.3 221.377021 
L 210.722727 330.755745 
L 211.145455 272.849362 
L 211.568182 337.189787 
L 211.990909 317.88766 
L 212.413636 266.415319 
L 212.836364 285.717447 
L 213.259091 292.151489 
L 213.681818 279.283404 
L 214.104545 343.62383 
L 214.527273 311.453617 
L 214.95 330.755745 
L 215.372727 343.62383 
L 215.795455 202.074894 
L 216.218182 292.151489 
L 216.640909 337.189787 
L 217.063636 253.547234 
L 217.486364 330.755745 
L 217.909091 330.755745 
L 218.331818 317.88766 
L 218.754545 285.717447 
L 219.177273 311.453617 
L 219.6 317.88766 
L 220.022727 369.36 
L 220.445455 266.415319 
L 220.868182 343.62383 
L 221.290909 317.88766 
L 222.136364 369.36 
L 222.559091 343.62383 
L 222.981818 285.717447 
L 223.404545 279.283404 
L 223.827273 240.679149 
L 224.25 350.057872 
L 224.672727 272.849362 
L 225.095455 317.88766 
L 225.518182 311.453617 
L 225.940909 317.88766 
L 226.363636 279.283404 
L 226.786364 317.88766 
L 227.209091 298.585532 
L 227.631818 272.849362 
L 228.054545 285.717447 
L 228.477273 343.62383 
L 228.9 324.321702 
L 229.322727 285.717447 
L 229.745455 266.415319 
L 230.168182 305.019574 
L 230.590909 311.453617 
L 231.013636 343.62383 
L 231.436364 292.151489 
L 231.859091 356.491915 
L 232.704545 285.717447 
L 233.127273 234.245106 
L 233.55 292.151489 
L 233.972727 202.074894 
L 234.395455 253.547234 
L 234.818182 343.62383 
L 235.240909 356.491915 
L 236.086364 214.942979 
L 236.509091 272.849362 
L 236.931818 253.547234 
L 237.354545 266.415319 
L 237.777273 317.88766 
L 238.2 298.585532 
L 238.622727 356.491915 
L 239.045455 324.321702 
L 239.468182 311.453617 
L 239.890909 317.88766 
L 240.313636 343.62383 
L 240.736364 279.283404 
L 241.159091 305.019574 
L 241.581818 343.62383 
L 242.004545 324.321702 
L 242.427273 234.245106 
L 242.85 279.283404 
L 243.272727 292.151489 
L 243.695455 227.811064 
L 244.540909 305.019574 
L 244.963636 285.717447 
L 245.386364 234.245106 
L 245.809091 266.415319 
L 246.231818 317.88766 
L 246.654545 317.88766 
L 247.077273 266.415319 
L 247.5 266.415319 
L 247.922727 292.151489 
L 248.345455 305.019574 
L 248.768182 330.755745 
L 249.190909 311.453617 
L 249.613636 317.88766 
L 250.036364 234.245106 
L 250.459091 343.62383 
L 250.881818 266.415319 
L 251.304545 247.113191 
L 251.727273 195.640851 
L 252.15 279.283404 
L 252.572727 247.113191 
L 252.995455 272.849362 
L 253.418182 208.508936 
L 253.840909 292.151489 
L 254.263636 259.981277 
L 254.686364 208.508936 
L 255.109091 202.074894 
L 255.531818 227.811064 
L 255.954545 266.415319 
L 256.377273 292.151489 
L 256.8 176.338723 
L 257.222727 189.206809 
L 258.068182 292.151489 
L 258.490909 343.62383 
L 258.913636 227.811064 
L 259.336364 305.019574 
L 259.759091 317.88766 
L 260.181818 324.321702 
L 260.604545 305.019574 
L 261.027273 131.300426 
L 261.45 292.151489 
L 261.872727 292.151489 
L 262.295455 247.113191 
L 262.718182 272.849362 
L 263.140909 317.88766 
L 263.563636 298.585532 
L 263.986364 202.074894 
L 264.409091 144.168511 
L 264.831818 163.470638 
L 265.254545 305.019574 
L 265.677273 259.981277 
L 266.1 305.019574 
L 266.522727 253.547234 
L 266.945455 324.321702 
L 267.368182 285.717447 
L 267.790909 330.755745 
L 268.213636 337.189787 
L 268.636364 305.019574 
L 269.059091 259.981277 
L 269.481818 324.321702 
L 269.904545 208.508936 
L 270.327273 337.189787 
L 270.75 253.547234 
L 271.172727 317.88766 
L 271.595455 247.113191 
L 272.018182 298.585532 
L 272.440909 330.755745 
L 272.863636 317.88766 
L 273.286364 253.547234 
L 273.709091 298.585532 
L 274.131818 311.453617 
L 274.554545 272.849362 
L 274.977273 285.717447 
L 275.4 285.717447 
L 275.822727 298.585532 
L 276.245455 253.547234 
L 276.668182 240.679149 
L 277.090909 324.321702 
L 277.513636 311.453617 
L 277.936364 272.849362 
L 278.359091 272.849362 
L 278.781818 305.019574 
L 279.204545 240.679149 
L 279.627273 259.981277 
L 280.05 317.88766 
L 280.472727 317.88766 
L 280.895455 240.679149 
L 281.318182 324.321702 
L 281.740909 240.679149 
L 282.163636 214.942979 
L 282.586364 292.151489 
L 283.009091 266.415319 
L 283.431818 305.019574 
L 283.854545 285.717447 
L 284.277273 253.547234 
L 284.7 124.866383 
L 285.122727 259.981277 
L 285.545455 253.547234 
L 285.968182 195.640851 
L 286.390909 330.755745 
L 286.813636 317.88766 
L 287.236364 253.547234 
L 287.659091 343.62383 
L 288.081818 279.283404 
L 288.504545 253.547234 
L 288.927273 305.019574 
L 289.35 240.679149 
L 289.772727 272.849362 
L 290.195455 317.88766 
L 290.618182 285.717447 
L 291.040909 285.717447 
L 291.463636 343.62383 
L 291.886364 356.491915 
L 292.309091 247.113191 
L 292.731818 311.453617 
L 293.577273 240.679149 
L 294 266.415319 
L 294.422727 247.113191 
L 294.845455 182.772766 
L 295.268182 221.377021 
L 295.690909 272.849362 
L 296.113636 298.585532 
L 296.536364 195.640851 
L 296.959091 253.547234 
L 297.381818 227.811064 
L 297.804545 292.151489 
L 298.65 240.679149 
L 299.072727 240.679149 
L 299.495455 311.453617 
L 300.340909 311.453617 
L 300.763636 356.491915 
L 301.186364 240.679149 
L 301.609091 305.019574 
L 302.031818 324.321702 
L 302.877273 285.717447 
L 303.3 240.679149 
L 303.722727 157.036596 
L 304.145455 279.283404 
L 304.568182 240.679149 
L 304.990909 176.338723 
L 305.413636 279.283404 
L 305.836364 221.377021 
L 306.259091 240.679149 
L 306.681818 253.547234 
L 307.104545 259.981277 
L 307.527273 317.88766 
L 307.95 240.679149 
L 308.372727 305.019574 
L 308.795455 285.717447 
L 309.218182 292.151489 
L 309.640909 343.62383 
L 310.063636 298.585532 
L 310.486364 292.151489 
L 310.909091 298.585532 
L 311.331818 227.811064 
L 311.754545 317.88766 
L 312.177273 279.283404 
L 312.6 317.88766 
L 313.022727 279.283404 
L 313.445455 259.981277 
L 313.868182 169.904681 
L 314.290909 272.849362 
L 314.713636 285.717447 
L 315.136364 285.717447 
L 315.559091 317.88766 
L 315.981818 279.283404 
L 316.404545 272.849362 
L 316.827273 330.755745 
L 317.25 305.019574 
L 317.672727 234.245106 
L 318.095455 305.019574 
L 318.518182 292.151489 
L 318.940909 343.62383 
L 319.363636 305.019574 
L 320.209091 317.88766 
L 320.631818 311.453617 
L 321.054545 350.057872 
L 321.477273 298.585532 
L 321.9 272.849362 
L 322.322727 298.585532 
L 322.745455 279.283404 
L 323.168182 337.189787 
L 323.590909 305.019574 
L 324.013636 317.88766 
L 324.436364 292.151489 
L 324.859091 157.036596 
L 325.281818 292.151489 
L 325.704545 298.585532 
L 326.127273 350.057872 
L 326.55 253.547234 
L 326.972727 285.717447 
L 327.818182 234.245106 
L 328.240909 305.019574 
L 328.663636 253.547234 
L 329.086364 247.113191 
L 329.509091 305.019574 
L 330.354545 330.755745 
L 330.777273 337.189787 
L 331.2 305.019574 
L 331.622727 253.547234 
L 332.045455 279.283404 
L 332.468182 266.415319 
L 332.890909 305.019574 
L 333.313636 285.717447 
L 333.736364 330.755745 
L 334.159091 182.772766 
L 334.581818 305.019574 
L 335.004545 227.811064 
L 335.427273 311.453617 
L 335.85 221.377021 
L 336.272727 266.415319 
L 336.695455 330.755745 
L 337.118182 240.679149 
L 337.540909 221.377021 
L 337.963636 247.113191 
L 338.386364 298.585532 
L 338.809091 317.88766 
L 339.231818 317.88766 
L 339.654545 298.585532 
L 340.077273 259.981277 
L 340.5 369.36 
L 340.922727 317.88766 
L 341.345455 305.019574 
L 341.768182 311.453617 
L 342.190909 272.849362 
L 342.613636 343.62383 
L 343.036364 189.206809 
L 343.459091 240.679149 
L 343.881818 266.415319 
L 344.304545 272.849362 
L 344.727273 272.849362 
L 345.15 214.942979 
L 345.572727 279.283404 
L 345.995455 259.981277 
L 346.418182 317.88766 
L 346.840909 195.640851 
L 347.263636 279.283404 
L 347.686364 330.755745 
L 348.109091 292.151489 
L 348.531818 311.453617 
L 348.954545 285.717447 
L 349.377273 272.849362 
L 349.8 330.755745 
L 350.222727 285.717447 
L 350.645455 272.849362 
L 351.068182 298.585532 
L 351.490909 279.283404 
L 351.913636 337.189787 
L 352.336364 266.415319 
L 352.759091 305.019574 
L 353.181818 311.453617 
L 353.604545 221.377021 
L 354.027273 227.811064 
L 354.45 227.811064 
L 354.872727 305.019574 
L 355.295455 195.640851 
L 356.140909 240.679149 
L 356.563636 330.755745 
L 356.986364 285.717447 
L 357.409091 253.547234 
L 357.831818 157.036596 
L 358.254545 272.849362 
L 358.677273 350.057872 
L 359.1 330.755745 
L 359.522727 234.245106 
L 359.945455 279.283404 
L 360.368182 169.904681 
L 360.790909 305.019574 
L 361.213636 163.470638 
L 361.636364 311.453617 
L 362.059091 253.547234 
L 362.481818 285.717447 
L 362.904545 305.019574 
L 363.327273 234.245106 
L 363.75 343.62383 
L 364.172727 343.62383 
L 364.595455 227.811064 
L 365.018182 317.88766 
L 365.440909 324.321702 
L 365.863636 247.113191 
L 366.286364 227.811064 
L 366.709091 272.849362 
L 367.131818 247.113191 
L 367.554545 202.074894 
L 367.977273 227.811064 
L 368.4 227.811064 
L 368.822727 266.415319 
L 369.668182 240.679149 
L 370.090909 285.717447 
L 370.513636 253.547234 
L 370.936364 272.849362 
L 371.359091 311.453617 
L 371.781818 214.942979 
L 372.204545 292.151489 
L 372.627273 285.717447 
L 373.05 292.151489 
L 373.472727 356.491915 
L 373.895455 305.019574 
L 374.318182 285.717447 
L 374.740909 311.453617 
L 375.163636 247.113191 
L 375.586364 311.453617 
L 376.009091 195.640851 
L 376.431818 292.151489 
L 376.854545 234.245106 
L 377.277273 330.755745 
L 377.7 214.942979 
L 378.545455 266.415319 
L 378.968182 279.283404 
L 379.390909 279.283404 
L 379.813636 324.321702 
L 380.236364 259.981277 
L 380.659091 259.981277 
L 381.081818 234.245106 
L 381.504545 221.377021 
L 381.927273 324.321702 
L 382.35 324.321702 
L 382.772727 311.453617 
L 383.195455 305.019574 
L 383.618182 279.283404 
L 384.040909 343.62383 
L 384.463636 266.415319 
L 384.886364 259.981277 
L 385.309091 305.019574 
L 385.731818 189.206809 
L 386.154545 234.245106 
L 386.577273 253.547234 
L 387 144.168511 
L 387.422727 266.415319 
L 387.845455 272.849362 
L 388.268182 298.585532 
L 388.690909 272.849362 
L 389.113636 272.849362 
L 389.536364 317.88766 
L 389.959091 221.377021 
L 390.381818 298.585532 
L 390.804545 317.88766 
L 391.227273 305.019574 
L 391.65 272.849362 
L 392.495455 356.491915 
L 392.918182 324.321702 
L 393.340909 324.321702 
L 393.763636 298.585532 
L 394.186364 324.321702 
L 394.609091 272.849362 
L 395.031818 285.717447 
L 395.454545 266.415319 
L 395.877273 272.849362 
L 396.3 176.338723 
L 396.722727 285.717447 
L 397.568182 330.755745 
L 397.990909 279.283404 
L 398.413636 311.453617 
L 398.836364 285.717447 
L 399.259091 330.755745 
L 399.681818 221.377021 
L 400.104545 202.074894 
L 400.527273 330.755745 
L 400.95 343.62383 
L 401.372727 298.585532 
L 401.795455 311.453617 
L 402.218182 311.453617 
L 402.640909 343.62383 
L 403.063636 298.585532 
L 403.486364 272.849362 
L 403.909091 324.321702 
L 404.331818 279.283404 
L 404.754545 266.415319 
L 405.177273 356.491915 
L 405.6 330.755745 
L 406.022727 247.113191 
L 406.445455 317.88766 
L 406.868182 279.283404 
L 407.290909 259.981277 
L 407.713636 292.151489 
L 408.136364 292.151489 
L 408.559091 285.717447 
L 408.981818 259.981277 
L 409.404545 343.62383 
L 409.827273 356.491915 
L 410.672727 214.942979 
L 411.095455 227.811064 
L 411.518182 266.415319 
L 411.940909 202.074894 
L 412.363636 292.151489 
L 412.786364 285.717447 
L 413.209091 285.717447 
L 413.631818 330.755745 
L 414.054545 305.019574 
L 414.9 330.755745 
L 415.322727 221.377021 
L 415.745455 279.283404 
L 416.168182 305.019574 
L 416.590909 272.849362 
L 417.013636 279.283404 
L 417.436364 253.547234 
L 417.859091 285.717447 
L 418.281818 99.130213 
L 418.704545 214.942979 
L 419.127273 240.679149 
L 419.55 330.755745 
L 419.972727 292.151489 
L 420.395455 330.755745 
L 420.818182 292.151489 
L 421.240909 221.377021 
L 421.663636 253.547234 
L 422.086364 343.62383 
L 422.509091 343.62383 
L 422.931818 311.453617 
L 423.354545 259.981277 
L 423.777273 317.88766 
L 424.2 311.453617 
L 424.622727 362.925957 
L 425.045455 330.755745 
L 425.468182 337.189787 
L 425.890909 266.415319 
L 426.313636 292.151489 
L 426.736364 189.206809 
L 427.159091 176.338723 
L 427.581818 279.283404 
L 428.004545 305.019574 
L 428.427273 137.734468 
L 428.85 292.151489 
L 429.272727 285.717447 
L 430.118182 214.942979 
L 430.540909 208.508936 
L 430.963636 324.321702 
L 431.386364 259.981277 
L 431.809091 330.755745 
L 432.231818 240.679149 
L 432.654545 234.245106 
L 433.077273 305.019574 
L 433.922727 266.415319 
L 434.345455 266.415319 
L 434.768182 272.849362 
L 435.190909 247.113191 
L 435.613636 311.453617 
L 436.036364 227.811064 
L 436.881818 317.88766 
L 437.304545 305.019574 
L 437.727273 311.453617 
L 438.15 247.113191 
L 438.572727 163.470638 
L 438.995455 343.62383 
L 439.418182 369.36 
L 440.263636 221.377021 
L 440.686364 240.679149 
L 441.109091 240.679149 
L 441.531818 317.88766 
L 441.954545 298.585532 
L 442.377273 343.62383 
L 442.8 298.585532 
L 443.222727 330.755745 
L 443.645455 227.811064 
L 444.068182 317.88766 
L 444.490909 305.019574 
L 444.913636 317.88766 
L 445.336364 305.019574 
L 445.759091 356.491915 
L 446.181818 234.245106 
L 446.604545 285.717447 
L 447.027273 259.981277 
L 447.45 266.415319 
L 447.872727 285.717447 
L 448.295455 214.942979 
L 448.718182 279.283404 
L 449.140909 208.508936 
L 449.563636 330.755745 
L 449.986364 266.415319 
L 450.409091 247.113191 
L 450.831818 272.849362 
L 451.254545 285.717447 
L 451.677273 253.547234 
L 452.1 356.491915 
L 452.522727 305.019574 
L 452.945455 317.88766 
L 453.368182 317.88766 
L 453.790909 247.113191 
L 454.213636 279.283404 
L 454.636364 259.981277 
L 455.059091 343.62383 
L 455.481818 279.283404 
L 455.904545 285.717447 
L 456.327273 330.755745 
L 456.75 247.113191 
L 457.172727 285.717447 
L 457.595455 266.415319 
L 458.018182 292.151489 
L 458.440909 227.811064 
L 458.863636 311.453617 
L 459.286364 311.453617 
L 459.709091 266.415319 
L 460.131818 317.88766 
L 460.554545 305.019574 
L 461.4 330.755745 
L 461.822727 266.415319 
L 462.245455 324.321702 
L 462.668182 305.019574 
L 463.090909 292.151489 
L 463.513636 298.585532 
L 463.936364 266.415319 
L 464.359091 266.415319 
L 465.204545 292.151489 
L 465.627273 247.113191 
L 466.05 285.717447 
L 466.472727 305.019574 
L 466.895455 305.019574 
L 467.740909 214.942979 
L 468.163636 227.811064 
L 469.009091 285.717447 
L 469.431818 292.151489 
L 469.854545 214.942979 
L 470.277273 285.717447 
L 470.7 311.453617 
L 471.122727 279.283404 
L 471.545455 305.019574 
L 471.968182 240.679149 
L 472.390909 343.62383 
L 472.813636 317.88766 
L 473.236364 343.62383 
L 474.081818 234.245106 
L 474.504545 324.321702 
L 474.927273 285.717447 
L 475.35 272.849362 
L 475.772727 343.62383 
L 476.195455 272.849362 
L 476.618182 285.717447 
L 477.040909 169.904681 
L 477.463636 272.849362 
L 477.886364 253.547234 
L 478.309091 157.036596 
L 478.731818 298.585532 
L 479.154545 317.88766 
L 479.577273 247.113191 
L 480 266.415319 
L 480.422727 266.415319 
L 480.845455 343.62383 
L 481.690909 305.019574 
L 482.113636 298.585532 
L 482.536364 259.981277 
L 482.959091 285.717447 
L 483.381818 337.189787 
L 483.804545 259.981277 
L 484.227273 234.245106 
L 484.65 292.151489 
L 485.072727 317.88766 
L 485.495455 298.585532 
L 485.918182 285.717447 
L 486.340909 311.453617 
L 486.763636 311.453617 
L 487.186364 324.321702 
L 487.609091 343.62383 
L 488.031818 292.151489 
L 488.454545 330.755745 
L 488.877273 214.942979 
L 489.3 259.981277 
L 489.722727 317.88766 
L 490.568182 330.755745 
L 490.990909 343.62383 
L 491.413636 266.415319 
L 491.836364 234.245106 
L 492.259091 292.151489 
L 492.681818 330.755745 
L 493.104545 317.88766 
L 493.527273 324.321702 
L 494.372727 285.717447 
L 494.795455 279.283404 
L 495.218182 285.717447 
L 495.640909 240.679149 
L 496.063636 311.453617 
L 496.486364 259.981277 
L 496.909091 272.849362 
L 497.331818 305.019574 
L 497.754545 285.717447 
L 498.177273 311.453617 
L 498.6 253.547234 
L 499.022727 311.453617 
L 499.445455 292.151489 
L 499.868182 298.585532 
L 500.290909 253.547234 
L 500.713636 305.019574 
L 501.136364 285.717447 
L 501.559091 279.283404 
L 501.981818 259.981277 
L 502.404545 305.019574 
L 502.827273 317.88766 
L 503.25 298.585532 
L 503.672727 311.453617 
L 504.095455 305.019574 
L 504.518182 350.057872 
L 505.363636 292.151489 
L 505.786364 305.019574 
L 506.209091 305.019574 
L 506.631818 285.717447 
L 507.054545 317.88766 
L 507.477273 272.849362 
L 507.9 272.849362 
L 508.322727 298.585532 
L 508.745455 266.415319 
L 509.168182 272.849362 
L 509.590909 259.981277 
L 510.013636 350.057872 
L 510.436364 343.62383 
L 510.859091 279.283404 
L 511.281818 253.547234 
L 511.704545 247.113191 
L 512.127273 259.981277 
L 512.55 317.88766 
L 512.972727 343.62383 
L 513.395455 317.88766 
L 513.818182 279.283404 
L 514.240909 330.755745 
L 514.663636 298.585532 
L 515.086364 317.88766 
L 515.509091 369.36 
L 515.931818 272.849362 
L 516.354545 317.88766 
L 516.777273 330.755745 
L 517.2 234.245106 
L 517.622727 227.811064 
L 518.045455 208.508936 
L 518.890909 279.283404 
L 519.313636 221.377021 
L 519.736364 311.453617 
L 520.159091 272.849362 
L 520.581818 330.755745 
L 521.004545 324.321702 
L 521.427273 144.168511 
L 521.85 240.679149 
L 522.272727 144.168511 
L 522.695455 279.283404 
L 523.118182 343.62383 
L 523.540909 292.151489 
L 523.963636 298.585532 
L 524.386364 317.88766 
L 524.809091 305.019574 
L 525.231818 337.189787 
L 525.654545 317.88766 
L 526.077273 330.755745 
L 526.5 253.547234 
L 526.922727 240.679149 
L 527.345455 266.415319 
L 527.768182 221.377021 
L 528.190909 272.849362 
L 528.613636 208.508936 
L 529.036364 305.019574 
L 529.459091 317.88766 
L 529.881818 311.453617 
L 530.304545 317.88766 
L 530.727273 221.377021 
L 531.15 150.602553 
L 531.572727 292.151489 
L 531.995455 279.283404 
L 532.418182 292.151489 
L 532.840909 259.981277 
L 533.263636 240.679149 
L 533.686364 330.755745 
L 534.109091 343.62383 
L 534.531818 330.755745 
L 534.954545 202.074894 
L 535.377273 343.62383 
L 535.8 279.283404 
L 536.222727 253.547234 
L 536.645455 285.717447 
L 537.068182 247.113191 
L 537.490909 247.113191 
L 537.913636 298.585532 
L 538.336364 292.151489 
L 538.759091 111.998298 
L 539.181818 298.585532 
L 539.604545 298.585532 
L 540.027273 234.245106 
L 540.45 247.113191 
L 540.872727 343.62383 
L 541.295455 266.415319 
L 541.718182 266.415319 
L 542.140909 298.585532 
L 542.563636 317.88766 
L 542.986364 305.019574 
L 543.409091 350.057872 
L 543.831818 350.057872 
L 544.254545 317.88766 
L 544.677273 317.88766 
L 545.1 253.547234 
L 545.522727 324.321702 
L 545.945455 285.717447 
L 546.790909 285.717447 
L 547.213636 317.88766 
L 547.636364 279.283404 
L 548.059091 305.019574 
L 548.481818 227.811064 
L 548.904545 234.245106 
L 549.327273 195.640851 
L 549.75 330.755745 
L 550.172727 324.321702 
L 550.595455 337.189787 
L 551.018182 259.981277 
L 551.440909 369.36 
L 551.863636 292.151489 
L 552.286364 253.547234 
L 552.709091 317.88766 
L 553.131818 305.019574 
L 553.554545 311.453617 
L 553.977273 330.755745 
L 554.822727 343.62383 
L 555.245455 292.151489 
L 555.668182 324.321702 
L 556.090909 298.585532 
L 556.513636 343.62383 
L 556.936364 298.585532 
L 557.359091 292.151489 
L 557.781818 266.415319 
L 558.204545 285.717447 
L 558.627273 240.679149 
L 559.05 317.88766 
L 559.472727 317.88766 
L 559.895455 259.981277 
L 560.318182 285.717447 
L 560.740909 272.849362 
L 561.163636 240.679149 
L 561.586364 330.755745 
L 562.009091 311.453617 
L 562.431818 285.717447 
L 562.854545 311.453617 
L 563.277273 285.717447 
L 563.7 330.755745 
L 564.122727 298.585532 
L 564.545455 240.679149 
L 564.968182 272.849362 
L 565.390909 343.62383 
L 565.813636 240.679149 
L 566.236364 311.453617 
L 566.659091 298.585532 
L 567.081818 330.755745 
L 567.504545 324.321702 
L 567.927273 247.113191 
L 568.35 234.245106 
L 568.772727 343.62383 
L 569.195455 279.283404 
L 569.618182 279.283404 
L 570.040909 259.981277 
L 570.463636 247.113191 
L 571.309091 298.585532 
L 571.731818 305.019574 
L 572.154545 259.981277 
L 572.577273 317.88766 
L 573 305.019574 
L 573.422727 259.981277 
L 573.845455 343.62383 
L 574.268182 356.491915 
L 574.690909 330.755745 
L 575.113636 221.377021 
L 575.536364 292.151489 
L 575.959091 317.88766 
L 576.381818 253.547234 
L 577.227273 343.62383 
L 577.65 317.88766 
L 578.072727 272.849362 
L 578.495455 253.547234 
L 578.918182 330.755745 
L 579.340909 311.453617 
L 579.763636 330.755745 
L 580.186364 356.491915 
L 581.031818 253.547234 
L 581.454545 259.981277 
L 581.877273 305.019574 
L 582.3 292.151489 
L 582.722727 330.755745 
L 583.145455 324.321702 
L 583.568182 343.62383 
L 583.990909 247.113191 
L 584.413636 337.189787 
L 584.836364 324.321702 
L 585.259091 356.491915 
L 585.681818 298.585532 
L 586.527273 272.849362 
L 586.95 285.717447 
L 587.372727 118.43234 
L 587.795455 292.151489 
L 588.218182 247.113191 
L 588.640909 292.151489 
L 589.063636 298.585532 
L 589.486364 279.283404 
L 589.909091 247.113191 
L 590.331818 305.019574 
L 590.754545 247.113191 
L 591.177273 279.283404 
L 591.6 272.849362 
L 592.022727 317.88766 
L 592.445455 298.585532 
L 592.868182 330.755745 
L 593.290909 221.377021 
L 593.713636 292.151489 
L 594.136364 343.62383 
L 594.559091 292.151489 
L 594.981818 259.981277 
L 595.404545 350.057872 
L 595.827273 305.019574 
L 596.672727 305.019574 
L 597.095455 285.717447 
L 597.518182 292.151489 
L 597.940909 305.019574 
L 598.363636 324.321702 
L 599.209091 227.811064 
L 599.631818 266.415319 
L 600.054545 292.151489 
L 600.477273 279.283404 
L 601.322727 324.321702 
L 601.745455 259.981277 
L 602.168182 343.62383 
L 602.590909 305.019574 
L 603.013636 279.283404 
L 603.436364 266.415319 
L 603.859091 324.321702 
L 604.281818 285.717447 
L 604.704545 324.321702 
L 605.127273 330.755745 
L 605.55 311.453617 
L 605.972727 298.585532 
L 606.395455 317.88766 
L 606.818182 330.755745 
L 607.240909 285.717447 
L 608.086364 298.585532 
L 608.509091 227.811064 
L 608.931818 298.585532 
L 609.354545 266.415319 
L 609.777273 324.321702 
L 610.2 221.377021 
L 610.622727 356.491915 
L 611.045455 311.453617 
L 611.468182 311.453617 
L 611.890909 298.585532 
L 612.313636 292.151489 
L 612.736364 305.019574 
L 613.159091 330.755745 
L 613.581818 272.849362 
L 614.004545 311.453617 
L 614.427273 317.88766 
L 614.85 330.755745 
L 615.272727 324.321702 
L 615.695455 259.981277 
L 616.118182 259.981277 
L 616.540909 272.849362 
L 616.963636 311.453617 
L 617.386364 259.981277 
L 617.809091 279.283404 
L 618.231818 330.755745 
L 618.654545 285.717447 
L 619.5 259.981277 
L 619.922727 311.453617 
L 620.345455 285.717447 
L 620.768182 285.717447 
L 621.613636 298.585532 
L 622.036364 317.88766 
L 622.459091 305.019574 
L 622.881818 350.057872 
L 623.304545 369.36 
L 623.727273 337.189787 
L 624.15 356.491915 
L 624.995455 279.283404 
L 625.418182 311.453617 
L 625.840909 221.377021 
L 626.263636 343.62383 
L 626.686364 266.415319 
L 627.109091 330.755745 
L 627.531818 266.415319 
L 627.954545 311.453617 
L 628.377273 298.585532 
L 628.8 221.377021 
L 629.222727 292.151489 
L 629.645455 208.508936 
L 630.068182 189.206809 
L 630.490909 227.811064 
L 630.913636 253.547234 
L 631.336364 305.019574 
L 631.759091 247.113191 
L 632.181818 330.755745 
L 633.027273 234.245106 
L 633.45 356.491915 
L 633.872727 279.283404 
L 634.295455 298.585532 
L 634.718182 356.491915 
L 635.140909 305.019574 
L 635.563636 337.189787 
L 635.986364 337.189787 
L 636.409091 317.88766 
L 636.831818 324.321702 
L 637.254545 311.453617 
L 638.1 221.377021 
L 638.522727 285.717447 
L 638.945455 285.717447 
L 639.368182 279.283404 
L 640.213636 317.88766 
L 640.636364 272.849362 
L 641.059091 292.151489 
L 641.481818 350.057872 
L 641.904545 272.849362 
L 642.327273 253.547234 
L 642.75 343.62383 
L 643.172727 317.88766 
L 643.595455 272.849362 
L 644.018182 298.585532 
L 644.440909 305.019574 
L 644.863636 350.057872 
L 645.286364 272.849362 
L 645.709091 330.755745 
L 646.131818 350.057872 
L 646.554545 266.415319 
L 646.977273 279.283404 
L 647.4 369.36 
L 647.822727 292.151489 
L 648.245455 305.019574 
L 648.668182 266.415319 
L 649.090909 285.717447 
L 649.936364 247.113191 
L 650.359091 305.019574 
L 650.781818 253.547234 
L 651.204545 234.245106 
L 651.627273 247.113191 
L 652.05 202.074894 
L 652.472727 272.849362 
L 652.895455 311.453617 
L 653.318182 240.679149 
L 653.740909 330.755745 
L 654.163636 266.415319 
L 654.586364 317.88766 
L 655.009091 317.88766 
L 655.431818 330.755745 
L 655.854545 317.88766 
L 656.277273 292.151489 
L 656.7 311.453617 
L 657.122727 317.88766 
L 657.545455 317.88766 
L 657.968182 292.151489 
L 658.390909 298.585532 
L 658.813636 227.811064 
L 659.236364 272.849362 
L 659.659091 176.338723 
L 660.081818 305.019574 
L 660.504545 189.206809 
L 660.927273 279.283404 
L 661.35 305.019574 
L 661.772727 195.640851 
L 662.195455 292.151489 
L 662.618182 311.453617 
L 663.040909 298.585532 
L 663.463636 343.62383 
L 663.886364 305.019574 
L 664.309091 285.717447 
L 664.731818 279.283404 
L 665.577273 240.679149 
L 666 285.717447 
L 666.422727 292.151489 
L 666.845455 324.321702 
L 667.268182 324.321702 
L 667.690909 292.151489 
L 668.113636 350.057872 
L 668.536364 253.547234 
L 668.959091 311.453617 
L 669.381818 247.113191 
L 669.804545 272.849362 
L 670.227273 150.602553 
L 670.65 317.88766 
L 671.072727 317.88766 
L 671.495455 266.415319 
L 671.918182 247.113191 
L 672.340909 305.019574 
L 672.763636 272.849362 
L 673.186364 343.62383 
L 673.609091 343.62383 
L 674.031818 356.491915 
L 674.454545 221.377021 
L 674.877273 298.585532 
L 675.3 317.88766 
L 675.722727 285.717447 
L 676.145455 356.491915 
L 676.568182 343.62383 
L 676.990909 369.36 
L 677.413636 292.151489 
L 677.836364 330.755745 
L 678.259091 337.189787 
L 678.681818 305.019574 
L 679.104545 350.057872 
L 679.527273 247.113191 
L 679.95 272.849362 
L 680.372727 337.189787 
L 680.795455 195.640851 
L 681.218182 324.321702 
L 681.640909 279.283404 
L 682.063636 272.849362 
L 682.486364 292.151489 
L 682.909091 259.981277 
L 683.331818 298.585532 
L 683.754545 247.113191 
L 684.177273 292.151489 
L 684.6 350.057872 
L 685.022727 259.981277 
L 685.445455 279.283404 
L 685.868182 317.88766 
L 686.290909 337.189787 
L 687.136364 298.585532 
L 687.559091 343.62383 
L 687.981818 305.019574 
L 688.404545 285.717447 
L 688.827273 259.981277 
L 689.25 285.717447 
L 689.672727 279.283404 
L 690.095455 279.283404 
L 690.518182 266.415319 
L 690.940909 227.811064 
L 691.363636 305.019574 
L 691.786364 317.88766 
L 692.209091 247.113191 
L 693.054545 272.849362 
L 693.477273 317.88766 
L 693.9 305.019574 
L 694.322727 285.717447 
L 694.745455 356.491915 
L 695.168182 292.151489 
L 695.590909 253.547234 
L 696.013636 279.283404 
L 696.436364 337.189787 
L 696.859091 362.925957 
L 697.281818 66.96 
L 697.704545 330.755745 
L 698.55 292.151489 
L 698.972727 292.151489 
L 699.395455 317.88766 
L 699.818182 285.717447 
L 700.240909 317.88766 
L 700.663636 259.981277 
L 701.086364 330.755745 
L 701.509091 311.453617 
L 701.931818 279.283404 
L 702.354545 266.415319 
L 702.777273 182.772766 
L 703.2 266.415319 
L 703.622727 324.321702 
L 704.468182 298.585532 
L 704.890909 247.113191 
L 705.313636 330.755745 
L 705.736364 343.62383 
L 706.159091 343.62383 
L 706.581818 369.36 
L 707.004545 305.019574 
L 707.427273 337.189787 
L 707.85 305.019574 
L 708.272727 298.585532 
L 708.695455 311.453617 
L 709.118182 337.189787 
L 709.540909 317.88766 
L 710.386364 234.245106 
L 711.231818 298.585532 
L 711.654545 176.338723 
L 712.077273 144.168511 
L 712.5 298.585532 
L 712.922727 240.679149 
L 713.345455 298.585532 
L 713.768182 285.717447 
L 714.190909 279.283404 
L 714.613636 253.547234 
L 715.036364 330.755745 
L 715.459091 317.88766 
L 715.881818 330.755745 
L 716.304545 317.88766 
L 716.727273 317.88766 
L 717.15 305.019574 
L 717.572727 350.057872 
L 717.995455 337.189787 
L 718.418182 369.36 
L 718.840909 369.36 
L 719.263636 227.811064 
L 719.686364 292.151489 
L 720.109091 247.113191 
L 720.531818 247.113191 
L 720.954545 279.283404 
L 721.377273 298.585532 
L 721.8 279.283404 
L 722.222727 202.074894 
L 722.645455 324.321702 
L 723.068182 356.491915 
L 723.490909 253.547234 
L 723.913636 285.717447 
L 724.336364 330.755745 
L 724.759091 324.321702 
L 725.181818 324.321702 
L 725.604545 305.019574 
L 726.45 317.88766 
L 726.872727 317.88766 
L 727.295455 305.019574 
L 727.718182 317.88766 
L 728.140909 266.415319 
L 728.563636 356.491915 
L 728.986364 266.415319 
L 729.409091 285.717447 
L 729.831818 272.849362 
L 730.254545 272.849362 
L 730.677273 227.811064 
L 731.1 202.074894 
L 731.522727 214.942979 
L 731.945455 137.734468 
L 732.368182 317.88766 
L 732.790909 266.415319 
L 733.213636 176.338723 
L 733.636364 311.453617 
L 734.059091 324.321702 
L 734.481818 150.602553 
L 734.904545 317.88766 
L 735.327273 279.283404 
L 735.75 305.019574 
L 736.172727 234.245106 
L 736.595455 285.717447 
L 737.018182 234.245106 
L 737.440909 305.019574 
L 737.863636 298.585532 
L 738.286364 317.88766 
L 738.709091 305.019574 
L 739.554545 292.151489 
L 739.977273 208.508936 
L 740.4 279.283404 
L 740.822727 317.88766 
L 741.245455 292.151489 
L 741.668182 144.168511 
L 742.090909 234.245106 
L 742.936364 279.283404 
L 743.359091 272.849362 
L 743.781818 305.019574 
L 744.204545 285.717447 
L 744.627273 234.245106 
L 745.05 324.321702 
L 745.472727 253.547234 
L 745.895455 259.981277 
L 746.318182 330.755745 
L 746.740909 272.849362 
L 747.163636 330.755745 
L 747.163636 330.755745 
" style="fill:none;stroke:#1f77b4;stroke-linecap:square;stroke-width:1.5;"/>
   </g>
   <g id="line2d_15">
    <path clip-path="url(#pa5016e2b61)" d="M 747.163636 384.48 
L 747.163636 51.84 
" style="fill:none;stroke:#808080;stroke-linecap:square;"/>
   </g>
   <g id="patch_44">
    <path d="M 108 384.48 
L 108 51.84 
" style="fill:none;stroke:#000000;stroke-linecap:square;stroke-linejoin:miter;stroke-width:0.8;"/>
   </g>
   <g id="patch_45">
    <path d="M 777.6 384.48 
L 777.6 51.84 
" style="fill:none;stroke:#000000;stroke-linecap:square;stroke-linejoin:miter;stroke-width:0.8;"/>
   </g>
   <g id="patch_46">
    <path d="M 108 384.48 
L 777.6 384.48 
" style="fill:none;stroke:#000000;stroke-linecap:square;stroke-linejoin:miter;stroke-width:0.8;"/>
   </g>
   <g id="patch_47">
    <path d="M 108 51.84 
L 777.6 51.84 
" style="fill:none;stroke:#000000;stroke-linecap:square;stroke-linejoin:miter;stroke-width:0.8;"/>
   </g>
   <g id="text_16">
    <!-- real_64.csv -->
    <defs>
     <path d="M 41.109375 46.296875 
Q 39.59375 47.171875 37.8125 47.578125 
Q 36.03125 48 33.890625 48 
Q 26.265625 48 22.1875 43.046875 
Q 18.109375 38.09375 18.109375 28.8125 
L 18.109375 0 
L 9.078125 0 
L 9.078125 54.6875 
L 18.109375 54.6875 
L 18.109375 46.1875 
Q 20.953125 51.171875 25.484375 53.578125 
Q 30.03125 56 36.53125 56 
Q 37.453125 56 38.578125 55.875 
Q 39.703125 55.765625 41.0625 55.515625 
z
" id="DejaVuSans-114"/>
     <path d="M 50.984375 -16.609375 
L 50.984375 -23.578125 
L -0.984375 -23.578125 
L -0.984375 -16.609375 
z
" id="DejaVuSans-95"/>
     <path d="M 10.6875 12.40625 
L 21 12.40625 
L 21 0 
L 10.6875 0 
z
" id="DejaVuSans-46"/>
     <path d="M 48.78125 52.59375 
L 48.78125 44.1875 
Q 44.96875 46.296875 41.140625 47.34375 
Q 37.3125 48.390625 33.40625 48.390625 
Q 24.65625 48.390625 19.8125 42.84375 
Q 14.984375 37.3125 14.984375 27.296875 
Q 14.984375 17.28125 19.8125 11.734375 
Q 24.65625 6.203125 33.40625 6.203125 
Q 37.3125 6.203125 41.140625 7.25 
Q 44.96875 8.296875 48.78125 10.40625 
L 48.78125 2.09375 
Q 45.015625 0.34375 40.984375 -0.53125 
Q 36.96875 -1.421875 32.421875 -1.421875 
Q 20.0625 -1.421875 12.78125 6.34375 
Q 5.515625 14.109375 5.515625 27.296875 
Q 5.515625 40.671875 12.859375 48.328125 
Q 20.21875 56 33.015625 56 
Q 37.15625 56 41.109375 55.140625 
Q 45.0625 54.296875 48.78125 52.59375 
z
" id="DejaVuSans-99"/>
     <path d="M 2.984375 54.6875 
L 12.5 54.6875 
L 29.59375 8.796875 
L 46.6875 54.6875 
L 56.203125 54.6875 
L 35.6875 0 
L 23.484375 0 
z
" id="DejaVuSans-118"/>
    </defs>
    <g transform="translate(408.781875 45.84)scale(0.12 -0.12)">
     <use xlink:href="#DejaVuSans-114"/>
     <use x="41.082031" xlink:href="#DejaVuSans-101"/>
     <use x="102.605469" xlink:href="#DejaVuSans-97"/>
     <use x="163.884766" xlink:href="#DejaVuSans-108"/>
     <use x="191.667969" xlink:href="#DejaVuSans-95"/>
     <use x="241.667969" xlink:href="#DejaVuSans-54"/>
     <use x="305.291016" xlink:href="#DejaVuSans-52"/>
     <use x="368.914062" xlink:href="#DejaVuSans-46"/>
     <use x="400.701172" xlink:href="#DejaVuSans-99"/>
     <use x="455.681641" xlink:href="#DejaVuSans-115"/>
     <use x="507.78125" xlink:href="#DejaVuSans-118"/>
    </g>
   </g>
   <g id="legend_1">
    <g id="patch_48">
     <path d="M 711.284375 74.518125 
L 770.6 74.518125 
Q 772.6 74.518125 772.6 72.518125 
L 772.6 58.84 
Q 772.6 56.84 770.6 56.84 
L 711.284375 56.84 
Q 709.284375 56.84 709.284375 58.84 
L 709.284375 72.518125 
Q 709.284375 74.518125 711.284375 74.518125 
z
" style="fill:#ffffff;opacity:0.8;stroke:#cccccc;stroke-linejoin:miter;"/>
    </g>
    <g id="line2d_16">
     <path d="M 713.284375 64.938438 
L 733.284375 64.938438 
" style="fill:none;stroke:#1f77b4;stroke-linecap:square;stroke-width:1.5;"/>
    </g>
    <g id="line2d_17"/>
    <g id="text_17">
     <!-- value -->
     <g transform="translate(741.284375 68.438438)scale(0.1 -0.1)">
      <use xlink:href="#DejaVuSans-118"/>
      <use x="59.179688" xlink:href="#DejaVuSans-97"/>
      <use x="120.458984" xlink:href="#DejaVuSans-108"/>
      <use x="148.242188" xlink:href="#DejaVuSans-117"/>
      <use x="211.621094" xlink:href="#DejaVuSans-101"/>
     </g>
    </g>
   </g>
  </g>
 </g>
 <defs>
  <clipPath id="pa5016e2b61">
   <rect height="332.64" width="669.6" x="108" y="51.84"/>
  </clipPath>
 </defs>
</svg>
