<?xml version="1.0" encoding="utf-8" standalone="no"?>
<!DOCTYPE svg PUBLIC "-//W3C//DTD SVG 1.1//EN"
  "http://www.w3.org/Graphics/SVG/1.1/DTD/svg11.dtd">
<!-- Created with matplotlib (https://matplotlib.org/) -->
<svg height="432pt" version="1.1" viewBox="0 0 864 432" width="864pt" xmlns="http://www.w3.org/2000/svg" xmlns:xlink="http://www.w3.org/1999/xlink">
 <defs>
  <style type="text/css">
*{stroke-linecap:butt;stroke-linejoin:round;}
  </style>
 </defs>
 <g id="figure_1">
  <g id="patch_1">
   <path d="M 0 432 
L 864 432 
L 864 0 
L 0 0 
z
" style="fill:#ffffff;"/>
  </g>
  <g id="axes_1">
   <g id="patch_2">
    <path d="M 108 384.48 
L 777.6 384.48 
L 777.6 51.84 
L 108 51.84 
z
" style="fill:#ffffff;"/>
   </g>
   <g id="patch_3">
    <path clip-path="url(#p681f05ee5a)" d="M 138.436364 384.48 
L 138.436364 51.84 
L 377.579221 51.84 
L 377.579221 384.48 
z
" style="fill:#0000ff;opacity:0.05;"/>
   </g>
   <g id="patch_4">
    <path clip-path="url(#p681f05ee5a)" d="M 377.579221 384.48 
L 377.579221 51.84 
L 747.163636 51.84 
L 747.163636 384.48 
z
" style="fill:#ff0000;opacity:0.08;"/>
   </g>
   <g id="patch_5">
    <path clip-path="url(#p681f05ee5a)" d="M 138.436364 384.48 
L 138.436364 51.84 
L 143.871429 51.84 
L 143.871429 384.48 
z
" style="fill:#008000;opacity:0.04;"/>
   </g>
   <g id="patch_6">
    <path clip-path="url(#p681f05ee5a)" d="M 149.306494 384.48 
L 149.306494 51.84 
L 154.741558 51.84 
L 154.741558 384.48 
z
" style="fill:#008000;opacity:0.04;"/>
   </g>
   <g id="patch_7">
    <path clip-path="url(#p681f05ee5a)" d="M 160.176623 384.48 
L 160.176623 51.84 
L 165.611688 51.84 
L 165.611688 384.48 
z
" style="fill:#008000;opacity:0.04;"/>
   </g>
   <g id="patch_8">
    <path clip-path="url(#p681f05ee5a)" d="M 171.046753 384.48 
L 171.046753 51.84 
L 176.481818 51.84 
L 176.481818 384.48 
z
" style="fill:#008000;opacity:0.04;"/>
   </g>
   <g id="patch_9">
    <path clip-path="url(#p681f05ee5a)" d="M 181.916883 384.48 
L 181.916883 51.84 
L 187.351948 51.84 
L 187.351948 384.48 
z
" style="fill:#008000;opacity:0.04;"/>
   </g>
   <g id="patch_10">
    <path clip-path="url(#p681f05ee5a)" d="M 192.787013 384.48 
L 192.787013 51.84 
L 198.222078 51.84 
L 198.222078 384.48 
z
" style="fill:#008000;opacity:0.04;"/>
   </g>
   <g id="patch_11">
    <path clip-path="url(#p681f05ee5a)" d="M 203.657143 384.48 
L 203.657143 51.84 
L 209.092208 51.84 
L 209.092208 384.48 
z
" style="fill:#008000;opacity:0.04;"/>
   </g>
   <g id="patch_12">
    <path clip-path="url(#p681f05ee5a)" d="M 214.527273 384.48 
L 214.527273 51.84 
L 219.962338 51.84 
L 219.962338 384.48 
z
" style="fill:#008000;opacity:0.04;"/>
   </g>
   <g id="patch_13">
    <path clip-path="url(#p681f05ee5a)" d="M 214.527273 371.1744 
L 214.527273 51.84 
L 219.962338 51.84 
L 219.962338 371.1744 
z
" style="fill:#008000;opacity:0.5;"/>
   </g>
   <g id="patch_14">
    <path clip-path="url(#p681f05ee5a)" d="M 214.527273 384.48 
L 214.527273 371.1744 
L 219.962338 371.1744 
L 219.962338 384.48 
z
" style="fill:#ffe500;"/>
   </g>
   <g id="patch_15">
    <path clip-path="url(#p681f05ee5a)" d="M 225.397403 384.48 
L 225.397403 51.84 
L 230.832468 51.84 
L 230.832468 384.48 
z
" style="fill:#008000;opacity:0.04;"/>
   </g>
   <g id="patch_16">
    <path clip-path="url(#p681f05ee5a)" d="M 225.397403 371.1744 
L 225.397403 51.84 
L 230.832468 51.84 
L 230.832468 371.1744 
z
" style="fill:#008000;opacity:0.5;"/>
   </g>
   <g id="patch_17">
    <path clip-path="url(#p681f05ee5a)" d="M 225.397403 384.48 
L 225.397403 371.1744 
L 230.832468 371.1744 
L 230.832468 384.48 
z
" style="fill:#ffe500;"/>
   </g>
   <g id="patch_18">
    <path clip-path="url(#p681f05ee5a)" d="M 236.267532 384.48 
L 236.267532 51.84 
L 241.702597 51.84 
L 241.702597 384.48 
z
" style="fill:#008000;opacity:0.04;"/>
   </g>
   <g id="patch_19">
    <path clip-path="url(#p681f05ee5a)" d="M 236.267532 371.1744 
L 236.267532 51.84 
L 241.702597 51.84 
L 241.702597 371.1744 
z
" style="fill:#008000;opacity:0.5;"/>
   </g>
   <g id="patch_20">
    <path clip-path="url(#p681f05ee5a)" d="M 236.267532 384.48 
L 236.267532 371.1744 
L 241.702597 371.1744 
L 241.702597 384.48 
z
" style="fill:#ffe500;"/>
   </g>
   <g id="patch_21">
    <path clip-path="url(#p681f05ee5a)" d="M 247.137662 384.48 
L 247.137662 51.84 
L 252.572727 51.84 
L 252.572727 384.48 
z
" style="fill:#008000;opacity:0.04;"/>
   </g>
   <g id="patch_22">
    <path clip-path="url(#p681f05ee5a)" d="M 247.137662 371.1744 
L 247.137662 51.84 
L 252.572727 51.84 
L 252.572727 371.1744 
z
" style="fill:#008000;opacity:0.5;"/>
   </g>
   <g id="patch_23">
    <path clip-path="url(#p681f05ee5a)" d="M 247.137662 384.48 
L 247.137662 371.1744 
L 252.572727 371.1744 
L 252.572727 384.48 
z
" style="fill:#ffe500;"/>
   </g>
   <g id="patch_24">
    <path clip-path="url(#p681f05ee5a)" d="M 258.007792 384.48 
L 258.007792 51.84 
L 263.442857 51.84 
L 263.442857 384.48 
z
" style="fill:#008000;opacity:0.04;"/>
   </g>
   <g id="patch_25">
    <path clip-path="url(#p681f05ee5a)" d="M 268.877922 384.48 
L 268.877922 51.84 
L 274.312987 51.84 
L 274.312987 384.48 
z
" style="fill:#008000;opacity:0.04;"/>
   </g>
   <g id="patch_26">
    <path clip-path="url(#p681f05ee5a)" d="M 279.748052 384.48 
L 279.748052 51.84 
L 285.183117 51.84 
L 285.183117 384.48 
z
" style="fill:#008000;opacity:0.04;"/>
   </g>
   <g id="patch_27">
    <path clip-path="url(#p681f05ee5a)" d="M 290.618182 384.48 
L 290.618182 51.84 
L 296.053247 51.84 
L 296.053247 384.48 
z
" style="fill:#008000;opacity:0.04;"/>
   </g>
   <g id="patch_28">
    <path clip-path="url(#p681f05ee5a)" d="M 301.488312 384.48 
L 301.488312 51.84 
L 306.923377 51.84 
L 306.923377 384.48 
z
" style="fill:#008000;opacity:0.04;"/>
   </g>
   <g id="patch_29">
    <path clip-path="url(#p681f05ee5a)" d="M 312.358442 384.48 
L 312.358442 51.84 
L 317.793506 51.84 
L 317.793506 384.48 
z
" style="fill:#008000;opacity:0.04;"/>
   </g>
   <g id="patch_30">
    <path clip-path="url(#p681f05ee5a)" d="M 323.228571 384.48 
L 323.228571 51.84 
L 328.663636 51.84 
L 328.663636 384.48 
z
" style="fill:#008000;opacity:0.04;"/>
   </g>
   <g id="patch_31">
    <path clip-path="url(#p681f05ee5a)" d="M 334.098701 384.48 
L 334.098701 51.84 
L 339.533766 51.84 
L 339.533766 384.48 
z
" style="fill:#008000;opacity:0.04;"/>
   </g>
   <g id="patch_32">
    <path clip-path="url(#p681f05ee5a)" d="M 344.968831 384.48 
L 344.968831 51.84 
L 350.403896 51.84 
L 350.403896 384.48 
z
" style="fill:#008000;opacity:0.04;"/>
   </g>
   <g id="patch_33">
    <path clip-path="url(#p681f05ee5a)" d="M 355.838961 384.48 
L 355.838961 51.84 
L 361.274026 51.84 
L 361.274026 384.48 
z
" style="fill:#008000;opacity:0.04;"/>
   </g>
   <g id="patch_34">
    <path clip-path="url(#p681f05ee5a)" d="M 366.709091 384.48 
L 366.709091 51.84 
L 372.144156 51.84 
L 372.144156 384.48 
z
" style="fill:#008000;opacity:0.04;"/>
   </g>
   <g id="patch_35">
    <path clip-path="url(#p681f05ee5a)" d="M 377.579221 384.48 
L 377.579221 51.84 
L 383.014286 51.84 
L 383.014286 384.48 
z
" style="fill:#008000;opacity:0.04;"/>
   </g>
   <g id="patch_36">
    <path clip-path="url(#p681f05ee5a)" d="M 388.449351 384.48 
L 388.449351 51.84 
L 393.884416 51.84 
L 393.884416 384.48 
z
" style="fill:#008000;opacity:0.04;"/>
   </g>
   <g id="patch_37">
    <path clip-path="url(#p681f05ee5a)" d="M 399.319481 384.48 
L 399.319481 51.84 
L 404.754545 51.84 
L 404.754545 384.48 
z
" style="fill:#008000;opacity:0.04;"/>
   </g>
   <g id="patch_38">
    <path clip-path="url(#p681f05ee5a)" d="M 410.18961 384.48 
L 410.18961 51.84 
L 415.624675 51.84 
L 415.624675 384.48 
z
" style="fill:#008000;opacity:0.04;"/>
   </g>
   <g id="patch_39">
    <path clip-path="url(#p681f05ee5a)" d="M 421.05974 384.48 
L 421.05974 51.84 
L 426.494805 51.84 
L 426.494805 384.48 
z
" style="fill:#008000;opacity:0.04;"/>
   </g>
   <g id="patch_40">
    <path clip-path="url(#p681f05ee5a)" d="M 665.637662 384.48 
L 665.637662 371.1744 
L 671.072727 371.1744 
L 671.072727 384.48 
z
" style="fill:#ff6600;"/>
   </g>
   <g id="patch_41">
    <path clip-path="url(#p681f05ee5a)" d="M 431.92987 384.48 
L 431.92987 51.84 
L 437.364935 51.84 
L 437.364935 384.48 
z
" style="fill:#008000;opacity:0.04;"/>
   </g>
   <g id="patch_42">
    <path clip-path="url(#p681f05ee5a)" d="M 442.8 384.48 
L 442.8 51.84 
L 448.235065 51.84 
L 448.235065 384.48 
z
" style="fill:#008000;opacity:0.04;"/>
   </g>
   <g id="patch_43">
    <path clip-path="url(#p681f05ee5a)" d="M 453.67013 384.48 
L 453.67013 51.84 
L 459.105195 51.84 
L 459.105195 384.48 
z
" style="fill:#008000;opacity:0.04;"/>
   </g>
   <g id="patch_44">
    <path clip-path="url(#p681f05ee5a)" d="M 464.54026 384.48 
L 464.54026 51.84 
L 469.975325 51.84 
L 469.975325 384.48 
z
" style="fill:#008000;opacity:0.04;"/>
   </g>
   <g id="patch_45">
    <path clip-path="url(#p681f05ee5a)" d="M 475.41039 384.48 
L 475.41039 51.84 
L 480.845455 51.84 
L 480.845455 384.48 
z
" style="fill:#008000;opacity:0.04;"/>
   </g>
   <g id="patch_46">
    <path clip-path="url(#p681f05ee5a)" d="M 486.280519 384.48 
L 486.280519 51.84 
L 491.715584 51.84 
L 491.715584 384.48 
z
" style="fill:#008000;opacity:0.04;"/>
   </g>
   <g id="patch_47">
    <path clip-path="url(#p681f05ee5a)" d="M 497.150649 384.48 
L 497.150649 51.84 
L 502.585714 51.84 
L 502.585714 384.48 
z
" style="fill:#008000;opacity:0.04;"/>
   </g>
   <g id="patch_48">
    <path clip-path="url(#p681f05ee5a)" d="M 508.020779 384.48 
L 508.020779 51.84 
L 513.455844 51.84 
L 513.455844 384.48 
z
" style="fill:#008000;opacity:0.04;"/>
   </g>
   <g id="patch_49">
    <path clip-path="url(#p681f05ee5a)" d="M 518.890909 384.48 
L 518.890909 51.84 
L 524.325974 51.84 
L 524.325974 384.48 
z
" style="fill:#008000;opacity:0.04;"/>
   </g>
   <g id="patch_50">
    <path clip-path="url(#p681f05ee5a)" d="M 529.761039 384.48 
L 529.761039 51.84 
L 535.196104 51.84 
L 535.196104 384.48 
z
" style="fill:#008000;opacity:0.04;"/>
   </g>
   <g id="patch_51">
    <path clip-path="url(#p681f05ee5a)" d="M 540.631169 384.48 
L 540.631169 51.84 
L 546.066234 51.84 
L 546.066234 384.48 
z
" style="fill:#008000;opacity:0.04;"/>
   </g>
   <g id="patch_52">
    <path clip-path="url(#p681f05ee5a)" d="M 551.501299 384.48 
L 551.501299 51.84 
L 556.936364 51.84 
L 556.936364 384.48 
z
" style="fill:#008000;opacity:0.04;"/>
   </g>
   <g id="patch_53">
    <path clip-path="url(#p681f05ee5a)" d="M 562.371429 384.48 
L 562.371429 51.84 
L 567.806494 51.84 
L 567.806494 384.48 
z
" style="fill:#008000;opacity:0.04;"/>
   </g>
   <g id="patch_54">
    <path clip-path="url(#p681f05ee5a)" d="M 573.241558 384.48 
L 573.241558 51.84 
L 578.676623 51.84 
L 578.676623 384.48 
z
" style="fill:#008000;opacity:0.04;"/>
   </g>
   <g id="patch_55">
    <path clip-path="url(#p681f05ee5a)" d="M 584.111688 384.48 
L 584.111688 51.84 
L 589.546753 51.84 
L 589.546753 384.48 
z
" style="fill:#008000;opacity:0.04;"/>
   </g>
   <g id="patch_56">
    <path clip-path="url(#p681f05ee5a)" d="M 594.981818 384.48 
L 594.981818 51.84 
L 600.416883 51.84 
L 600.416883 384.48 
z
" style="fill:#008000;opacity:0.04;"/>
   </g>
   <g id="patch_57">
    <path clip-path="url(#p681f05ee5a)" d="M 605.851948 384.48 
L 605.851948 51.84 
L 611.287013 51.84 
L 611.287013 384.48 
z
" style="fill:#008000;opacity:0.04;"/>
   </g>
   <g id="patch_58">
    <path clip-path="url(#p681f05ee5a)" d="M 616.722078 384.48 
L 616.722078 51.84 
L 622.157143 51.84 
L 622.157143 384.48 
z
" style="fill:#008000;opacity:0.04;"/>
   </g>
   <g id="patch_59">
    <path clip-path="url(#p681f05ee5a)" d="M 627.592208 384.48 
L 627.592208 51.84 
L 633.027273 51.84 
L 633.027273 384.48 
z
" style="fill:#008000;opacity:0.04;"/>
   </g>
   <g id="patch_60">
    <path clip-path="url(#p681f05ee5a)" d="M 638.462338 384.48 
L 638.462338 51.84 
L 643.897403 51.84 
L 643.897403 384.48 
z
" style="fill:#008000;opacity:0.04;"/>
   </g>
   <g id="patch_61">
    <path clip-path="url(#p681f05ee5a)" d="M 649.332468 384.48 
L 649.332468 51.84 
L 654.767532 51.84 
L 654.767532 384.48 
z
" style="fill:#008000;opacity:0.04;"/>
   </g>
   <g id="patch_62">
    <path clip-path="url(#p681f05ee5a)" d="M 660.202597 384.48 
L 660.202597 51.84 
L 665.637662 51.84 
L 665.637662 384.48 
z
" style="fill:#008000;opacity:0.04;"/>
   </g>
   <g id="patch_63">
    <path clip-path="url(#p681f05ee5a)" d="M 665.637662 371.1744 
L 665.637662 51.84 
L 671.072727 51.84 
L 671.072727 371.1744 
z
" style="fill:#008000;opacity:0.5;"/>
   </g>
   <g id="patch_64">
    <path clip-path="url(#p681f05ee5a)" d="M 671.072727 384.48 
L 671.072727 51.84 
L 676.507792 51.84 
L 676.507792 384.48 
z
" style="fill:#008000;opacity:0.04;"/>
   </g>
   <g id="patch_65">
    <path clip-path="url(#p681f05ee5a)" d="M 681.942857 384.48 
L 681.942857 51.84 
L 687.377922 51.84 
L 687.377922 384.48 
z
" style="fill:#008000;opacity:0.04;"/>
   </g>
   <g id="patch_66">
    <path clip-path="url(#p681f05ee5a)" d="M 692.812987 384.48 
L 692.812987 51.84 
L 698.248052 51.84 
L 698.248052 384.48 
z
" style="fill:#008000;opacity:0.04;"/>
   </g>
   <g id="patch_67">
    <path clip-path="url(#p681f05ee5a)" d="M 703.683117 384.48 
L 703.683117 51.84 
L 709.118182 51.84 
L 709.118182 384.48 
z
" style="fill:#008000;opacity:0.04;"/>
   </g>
   <g id="patch_68">
    <path clip-path="url(#p681f05ee5a)" d="M 714.553247 384.48 
L 714.553247 51.84 
L 719.988312 51.84 
L 719.988312 384.48 
z
" style="fill:#008000;opacity:0.04;"/>
   </g>
   <g id="patch_69">
    <path clip-path="url(#p681f05ee5a)" d="M 725.423377 384.48 
L 725.423377 51.84 
L 730.858442 51.84 
L 730.858442 384.48 
z
" style="fill:#008000;opacity:0.04;"/>
   </g>
   <g id="patch_70">
    <path clip-path="url(#p681f05ee5a)" d="M 736.293506 384.48 
L 736.293506 51.84 
L 741.728571 51.84 
L 741.728571 384.48 
z
" style="fill:#008000;opacity:0.04;"/>
   </g>
   <g id="matplotlib.axis_1">
    <g id="xtick_1">
     <g id="line2d_1">
      <defs>
       <path d="M 0 0 
L 0 3.5 
" id="m8d15d7ca49" style="stroke:#000000;stroke-width:0.8;"/>
      </defs>
      <g>
       <use style="stroke:#000000;stroke-width:0.8;" x="138.436364" xlink:href="#m8d15d7ca49" y="384.48"/>
      </g>
     </g>
     <g id="text_1">
      <!-- 0 -->
      <defs>
       <path d="M 31.78125 66.40625 
Q 24.171875 66.40625 20.328125 58.90625 
Q 16.5 51.421875 16.5 36.375 
Q 16.5 21.390625 20.328125 13.890625 
Q 24.171875 6.390625 31.78125 6.390625 
Q 39.453125 6.390625 43.28125 13.890625 
Q 47.125 21.390625 47.125 36.375 
Q 47.125 51.421875 43.28125 58.90625 
Q 39.453125 66.40625 31.78125 66.40625 
z
M 31.78125 74.21875 
Q 44.046875 74.21875 50.515625 64.515625 
Q 56.984375 54.828125 56.984375 36.375 
Q 56.984375 17.96875 50.515625 8.265625 
Q 44.046875 -1.421875 31.78125 -1.421875 
Q 19.53125 -1.421875 13.0625 8.265625 
Q 6.59375 17.96875 6.59375 36.375 
Q 6.59375 54.828125 13.0625 64.515625 
Q 19.53125 74.21875 31.78125 74.21875 
z
" id="DejaVuSans-48"/>
      </defs>
      <g transform="translate(135.255114 399.078438)scale(0.1 -0.1)">
       <use xlink:href="#DejaVuSans-48"/>
      </g>
     </g>
    </g>
    <g id="xtick_2">
     <g id="line2d_2">
      <g>
       <use style="stroke:#000000;stroke-width:0.8;" x="229.020779" xlink:href="#m8d15d7ca49" y="384.48"/>
      </g>
     </g>
     <g id="text_2">
      <!-- 250 -->
      <defs>
       <path d="M 19.1875 8.296875 
L 53.609375 8.296875 
L 53.609375 0 
L 7.328125 0 
L 7.328125 8.296875 
Q 12.9375 14.109375 22.625 23.890625 
Q 32.328125 33.6875 34.8125 36.53125 
Q 39.546875 41.84375 41.421875 45.53125 
Q 43.3125 49.21875 43.3125 52.78125 
Q 43.3125 58.59375 39.234375 62.25 
Q 35.15625 65.921875 28.609375 65.921875 
Q 23.96875 65.921875 18.8125 64.3125 
Q 13.671875 62.703125 7.8125 59.421875 
L 7.8125 69.390625 
Q 13.765625 71.78125 18.9375 73 
Q 24.125 74.21875 28.421875 74.21875 
Q 39.75 74.21875 46.484375 68.546875 
Q 53.21875 62.890625 53.21875 53.421875 
Q 53.21875 48.921875 51.53125 44.890625 
Q 49.859375 40.875 45.40625 35.40625 
Q 44.1875 33.984375 37.640625 27.21875 
Q 31.109375 20.453125 19.1875 8.296875 
z
" id="DejaVuSans-50"/>
       <path d="M 10.796875 72.90625 
L 49.515625 72.90625 
L 49.515625 64.59375 
L 19.828125 64.59375 
L 19.828125 46.734375 
Q 21.96875 47.46875 24.109375 47.828125 
Q 26.265625 48.1875 28.421875 48.1875 
Q 40.625 48.1875 47.75 41.5 
Q 54.890625 34.8125 54.890625 23.390625 
Q 54.890625 11.625 47.5625 5.09375 
Q 40.234375 -1.421875 26.90625 -1.421875 
Q 22.3125 -1.421875 17.546875 -0.640625 
Q 12.796875 0.140625 7.71875 1.703125 
L 7.71875 11.625 
Q 12.109375 9.234375 16.796875 8.0625 
Q 21.484375 6.890625 26.703125 6.890625 
Q 35.15625 6.890625 40.078125 11.328125 
Q 45.015625 15.765625 45.015625 23.390625 
Q 45.015625 31 40.078125 35.4375 
Q 35.15625 39.890625 26.703125 39.890625 
Q 22.75 39.890625 18.8125 39.015625 
Q 14.890625 38.140625 10.796875 36.28125 
z
" id="DejaVuSans-53"/>
      </defs>
      <g transform="translate(219.477029 399.078438)scale(0.1 -0.1)">
       <use xlink:href="#DejaVuSans-50"/>
       <use x="63.623047" xlink:href="#DejaVuSans-53"/>
       <use x="127.246094" xlink:href="#DejaVuSans-48"/>
      </g>
     </g>
    </g>
    <g id="xtick_3">
     <g id="line2d_3">
      <g>
       <use style="stroke:#000000;stroke-width:0.8;" x="319.605195" xlink:href="#m8d15d7ca49" y="384.48"/>
      </g>
     </g>
     <g id="text_3">
      <!-- 500 -->
      <g transform="translate(310.061445 399.078438)scale(0.1 -0.1)">
       <use xlink:href="#DejaVuSans-53"/>
       <use x="63.623047" xlink:href="#DejaVuSans-48"/>
       <use x="127.246094" xlink:href="#DejaVuSans-48"/>
      </g>
     </g>
    </g>
    <g id="xtick_4">
     <g id="line2d_4">
      <g>
       <use style="stroke:#000000;stroke-width:0.8;" x="410.18961" xlink:href="#m8d15d7ca49" y="384.48"/>
      </g>
     </g>
     <g id="text_4">
      <!-- 750 -->
      <defs>
       <path d="M 8.203125 72.90625 
L 55.078125 72.90625 
L 55.078125 68.703125 
L 28.609375 0 
L 18.3125 0 
L 43.21875 64.59375 
L 8.203125 64.59375 
z
" id="DejaVuSans-55"/>
      </defs>
      <g transform="translate(400.64586 399.078438)scale(0.1 -0.1)">
       <use xlink:href="#DejaVuSans-55"/>
       <use x="63.623047" xlink:href="#DejaVuSans-53"/>
       <use x="127.246094" xlink:href="#DejaVuSans-48"/>
      </g>
     </g>
    </g>
    <g id="xtick_5">
     <g id="line2d_5">
      <g>
       <use style="stroke:#000000;stroke-width:0.8;" x="500.774026" xlink:href="#m8d15d7ca49" y="384.48"/>
      </g>
     </g>
     <g id="text_5">
      <!-- 1000 -->
      <defs>
       <path d="M 12.40625 8.296875 
L 28.515625 8.296875 
L 28.515625 63.921875 
L 10.984375 60.40625 
L 10.984375 69.390625 
L 28.421875 72.90625 
L 38.28125 72.90625 
L 38.28125 8.296875 
L 54.390625 8.296875 
L 54.390625 0 
L 12.40625 0 
z
" id="DejaVuSans-49"/>
      </defs>
      <g transform="translate(488.049026 399.078438)scale(0.1 -0.1)">
       <use xlink:href="#DejaVuSans-49"/>
       <use x="63.623047" xlink:href="#DejaVuSans-48"/>
       <use x="127.246094" xlink:href="#DejaVuSans-48"/>
       <use x="190.869141" xlink:href="#DejaVuSans-48"/>
      </g>
     </g>
    </g>
    <g id="xtick_6">
     <g id="line2d_6">
      <g>
       <use style="stroke:#000000;stroke-width:0.8;" x="591.358442" xlink:href="#m8d15d7ca49" y="384.48"/>
      </g>
     </g>
     <g id="text_6">
      <!-- 1250 -->
      <g transform="translate(578.633442 399.078438)scale(0.1 -0.1)">
       <use xlink:href="#DejaVuSans-49"/>
       <use x="63.623047" xlink:href="#DejaVuSans-50"/>
       <use x="127.246094" xlink:href="#DejaVuSans-53"/>
       <use x="190.869141" xlink:href="#DejaVuSans-48"/>
      </g>
     </g>
    </g>
    <g id="xtick_7">
     <g id="line2d_7">
      <g>
       <use style="stroke:#000000;stroke-width:0.8;" x="681.942857" xlink:href="#m8d15d7ca49" y="384.48"/>
      </g>
     </g>
     <g id="text_7">
      <!-- 1500 -->
      <g transform="translate(669.217857 399.078438)scale(0.1 -0.1)">
       <use xlink:href="#DejaVuSans-49"/>
       <use x="63.623047" xlink:href="#DejaVuSans-53"/>
       <use x="127.246094" xlink:href="#DejaVuSans-48"/>
       <use x="190.869141" xlink:href="#DejaVuSans-48"/>
      </g>
     </g>
    </g>
    <g id="xtick_8">
     <g id="line2d_8">
      <g>
       <use style="stroke:#000000;stroke-width:0.8;" x="772.527273" xlink:href="#m8d15d7ca49" y="384.48"/>
      </g>
     </g>
     <g id="text_8">
      <!-- 1750 -->
      <g transform="translate(759.802273 399.078438)scale(0.1 -0.1)">
       <use xlink:href="#DejaVuSans-49"/>
       <use x="63.623047" xlink:href="#DejaVuSans-55"/>
       <use x="127.246094" xlink:href="#DejaVuSans-53"/>
       <use x="190.869141" xlink:href="#DejaVuSans-48"/>
      </g>
     </g>
    </g>
    <g id="text_9">
     <!-- Timestamp -->
     <defs>
      <path d="M -0.296875 72.90625 
L 61.375 72.90625 
L 61.375 64.59375 
L 35.5 64.59375 
L 35.5 0 
L 25.59375 0 
L 25.59375 64.59375 
L -0.296875 64.59375 
z
" id="DejaVuSans-84"/>
      <path d="M 9.421875 54.6875 
L 18.40625 54.6875 
L 18.40625 0 
L 9.421875 0 
z
M 9.421875 75.984375 
L 18.40625 75.984375 
L 18.40625 64.59375 
L 9.421875 64.59375 
z
" id="DejaVuSans-105"/>
      <path d="M 52 44.1875 
Q 55.375 50.25 60.0625 53.125 
Q 64.75 56 71.09375 56 
Q 79.640625 56 84.28125 50.015625 
Q 88.921875 44.046875 88.921875 33.015625 
L 88.921875 0 
L 79.890625 0 
L 79.890625 32.71875 
Q 79.890625 40.578125 77.09375 44.375 
Q 74.3125 48.1875 68.609375 48.1875 
Q 61.625 48.1875 57.5625 43.546875 
Q 53.515625 38.921875 53.515625 30.90625 
L 53.515625 0 
L 44.484375 0 
L 44.484375 32.71875 
Q 44.484375 40.625 41.703125 44.40625 
Q 38.921875 48.1875 33.109375 48.1875 
Q 26.21875 48.1875 22.15625 43.53125 
Q 18.109375 38.875 18.109375 30.90625 
L 18.109375 0 
L 9.078125 0 
L 9.078125 54.6875 
L 18.109375 54.6875 
L 18.109375 46.1875 
Q 21.1875 51.21875 25.484375 53.609375 
Q 29.78125 56 35.6875 56 
Q 41.65625 56 45.828125 52.96875 
Q 50 49.953125 52 44.1875 
z
" id="DejaVuSans-109"/>
      <path d="M 56.203125 29.59375 
L 56.203125 25.203125 
L 14.890625 25.203125 
Q 15.484375 15.921875 20.484375 11.0625 
Q 25.484375 6.203125 34.421875 6.203125 
Q 39.59375 6.203125 44.453125 7.46875 
Q 49.3125 8.734375 54.109375 11.28125 
L 54.109375 2.78125 
Q 49.265625 0.734375 44.1875 -0.34375 
Q 39.109375 -1.421875 33.890625 -1.421875 
Q 20.796875 -1.421875 13.15625 6.1875 
Q 5.515625 13.8125 5.515625 26.8125 
Q 5.515625 40.234375 12.765625 48.109375 
Q 20.015625 56 32.328125 56 
Q 43.359375 56 49.78125 48.890625 
Q 56.203125 41.796875 56.203125 29.59375 
z
M 47.21875 32.234375 
Q 47.125 39.59375 43.09375 43.984375 
Q 39.0625 48.390625 32.421875 48.390625 
Q 24.90625 48.390625 20.390625 44.140625 
Q 15.875 39.890625 15.1875 32.171875 
z
" id="DejaVuSans-101"/>
      <path d="M 44.28125 53.078125 
L 44.28125 44.578125 
Q 40.484375 46.53125 36.375 47.5 
Q 32.28125 48.484375 27.875 48.484375 
Q 21.1875 48.484375 17.84375 46.4375 
Q 14.5 44.390625 14.5 40.28125 
Q 14.5 37.15625 16.890625 35.375 
Q 19.28125 33.59375 26.515625 31.984375 
L 29.59375 31.296875 
Q 39.15625 29.25 43.1875 25.515625 
Q 47.21875 21.78125 47.21875 15.09375 
Q 47.21875 7.46875 41.1875 3.015625 
Q 35.15625 -1.421875 24.609375 -1.421875 
Q 20.21875 -1.421875 15.453125 -0.5625 
Q 10.6875 0.296875 5.421875 2 
L 5.421875 11.28125 
Q 10.40625 8.6875 15.234375 7.390625 
Q 20.0625 6.109375 24.8125 6.109375 
Q 31.15625 6.109375 34.5625 8.28125 
Q 37.984375 10.453125 37.984375 14.40625 
Q 37.984375 18.0625 35.515625 20.015625 
Q 33.0625 21.96875 24.703125 23.78125 
L 21.578125 24.515625 
Q 13.234375 26.265625 9.515625 29.90625 
Q 5.8125 33.546875 5.8125 39.890625 
Q 5.8125 47.609375 11.28125 51.796875 
Q 16.75 56 26.8125 56 
Q 31.78125 56 36.171875 55.265625 
Q 40.578125 54.546875 44.28125 53.078125 
z
" id="DejaVuSans-115"/>
      <path d="M 18.3125 70.21875 
L 18.3125 54.6875 
L 36.8125 54.6875 
L 36.8125 47.703125 
L 18.3125 47.703125 
L 18.3125 18.015625 
Q 18.3125 11.328125 20.140625 9.421875 
Q 21.96875 7.515625 27.59375 7.515625 
L 36.8125 7.515625 
L 36.8125 0 
L 27.59375 0 
Q 17.1875 0 13.234375 3.875 
Q 9.28125 7.765625 9.28125 18.015625 
L 9.28125 47.703125 
L 2.6875 47.703125 
L 2.6875 54.6875 
L 9.28125 54.6875 
L 9.28125 70.21875 
z
" id="DejaVuSans-116"/>
      <path d="M 34.28125 27.484375 
Q 23.390625 27.484375 19.1875 25 
Q 14.984375 22.515625 14.984375 16.5 
Q 14.984375 11.71875 18.140625 8.90625 
Q 21.296875 6.109375 26.703125 6.109375 
Q 34.1875 6.109375 38.703125 11.40625 
Q 43.21875 16.703125 43.21875 25.484375 
L 43.21875 27.484375 
z
M 52.203125 31.203125 
L 52.203125 0 
L 43.21875 0 
L 43.21875 8.296875 
Q 40.140625 3.328125 35.546875 0.953125 
Q 30.953125 -1.421875 24.3125 -1.421875 
Q 15.921875 -1.421875 10.953125 3.296875 
Q 6 8.015625 6 15.921875 
Q 6 25.140625 12.171875 29.828125 
Q 18.359375 34.515625 30.609375 34.515625 
L 43.21875 34.515625 
L 43.21875 35.40625 
Q 43.21875 41.609375 39.140625 45 
Q 35.0625 48.390625 27.6875 48.390625 
Q 23 48.390625 18.546875 47.265625 
Q 14.109375 46.140625 10.015625 43.890625 
L 10.015625 52.203125 
Q 14.9375 54.109375 19.578125 55.046875 
Q 24.21875 56 28.609375 56 
Q 40.484375 56 46.34375 49.84375 
Q 52.203125 43.703125 52.203125 31.203125 
z
" id="DejaVuSans-97"/>
      <path d="M 18.109375 8.203125 
L 18.109375 -20.796875 
L 9.078125 -20.796875 
L 9.078125 54.6875 
L 18.109375 54.6875 
L 18.109375 46.390625 
Q 20.953125 51.265625 25.265625 53.625 
Q 29.59375 56 35.59375 56 
Q 45.5625 56 51.78125 48.09375 
Q 58.015625 40.1875 58.015625 27.296875 
Q 58.015625 14.40625 51.78125 6.484375 
Q 45.5625 -1.421875 35.59375 -1.421875 
Q 29.59375 -1.421875 25.265625 0.953125 
Q 20.953125 3.328125 18.109375 8.203125 
z
M 48.6875 27.296875 
Q 48.6875 37.203125 44.609375 42.84375 
Q 40.53125 48.484375 33.40625 48.484375 
Q 26.265625 48.484375 22.1875 42.84375 
Q 18.109375 37.203125 18.109375 27.296875 
Q 18.109375 17.390625 22.1875 11.75 
Q 26.265625 6.109375 33.40625 6.109375 
Q 40.53125 6.109375 44.609375 11.75 
Q 48.6875 17.390625 48.6875 27.296875 
z
" id="DejaVuSans-112"/>
     </defs>
     <g transform="translate(414.739062 412.756563)scale(0.1 -0.1)">
      <use xlink:href="#DejaVuSans-84"/>
      <use x="61.037109" xlink:href="#DejaVuSans-105"/>
      <use x="88.820312" xlink:href="#DejaVuSans-109"/>
      <use x="186.232422" xlink:href="#DejaVuSans-101"/>
      <use x="247.755859" xlink:href="#DejaVuSans-115"/>
      <use x="299.855469" xlink:href="#DejaVuSans-116"/>
      <use x="339.064453" xlink:href="#DejaVuSans-97"/>
      <use x="400.34375" xlink:href="#DejaVuSans-109"/>
      <use x="497.755859" xlink:href="#DejaVuSans-112"/>
     </g>
    </g>
   </g>
   <g id="matplotlib.axis_2">
    <g id="ytick_1">
     <g id="line2d_9">
      <defs>
       <path d="M 0 0 
L -3.5 0 
" id="m777e110944" style="stroke:#000000;stroke-width:0.8;"/>
      </defs>
      <g>
       <use style="stroke:#000000;stroke-width:0.8;" x="108" xlink:href="#m777e110944" y="359.589412"/>
      </g>
     </g>
     <g id="text_10">
      <!-- −4000 -->
      <defs>
       <path d="M 10.59375 35.5 
L 73.1875 35.5 
L 73.1875 27.203125 
L 10.59375 27.203125 
z
" id="DejaVuSans-8722"/>
       <path d="M 37.796875 64.3125 
L 12.890625 25.390625 
L 37.796875 25.390625 
z
M 35.203125 72.90625 
L 47.609375 72.90625 
L 47.609375 25.390625 
L 58.015625 25.390625 
L 58.015625 17.1875 
L 47.609375 17.1875 
L 47.609375 0 
L 37.796875 0 
L 37.796875 17.1875 
L 4.890625 17.1875 
L 4.890625 26.703125 
z
" id="DejaVuSans-52"/>
      </defs>
      <g transform="translate(67.170312 363.388631)scale(0.1 -0.1)">
       <use xlink:href="#DejaVuSans-8722"/>
       <use x="83.789062" xlink:href="#DejaVuSans-52"/>
       <use x="147.412109" xlink:href="#DejaVuSans-48"/>
       <use x="211.035156" xlink:href="#DejaVuSans-48"/>
       <use x="274.658203" xlink:href="#DejaVuSans-48"/>
      </g>
     </g>
    </g>
    <g id="ytick_2">
     <g id="line2d_10">
      <g>
       <use style="stroke:#000000;stroke-width:0.8;" x="108" xlink:href="#m777e110944" y="299.360375"/>
      </g>
     </g>
     <g id="text_11">
      <!-- −3000 -->
      <defs>
       <path d="M 40.578125 39.3125 
Q 47.65625 37.796875 51.625 33 
Q 55.609375 28.21875 55.609375 21.1875 
Q 55.609375 10.40625 48.1875 4.484375 
Q 40.765625 -1.421875 27.09375 -1.421875 
Q 22.515625 -1.421875 17.65625 -0.515625 
Q 12.796875 0.390625 7.625 2.203125 
L 7.625 11.71875 
Q 11.71875 9.328125 16.59375 8.109375 
Q 21.484375 6.890625 26.8125 6.890625 
Q 36.078125 6.890625 40.9375 10.546875 
Q 45.796875 14.203125 45.796875 21.1875 
Q 45.796875 27.640625 41.28125 31.265625 
Q 36.765625 34.90625 28.71875 34.90625 
L 20.21875 34.90625 
L 20.21875 43.015625 
L 29.109375 43.015625 
Q 36.375 43.015625 40.234375 45.921875 
Q 44.09375 48.828125 44.09375 54.296875 
Q 44.09375 59.90625 40.109375 62.90625 
Q 36.140625 65.921875 28.71875 65.921875 
Q 24.65625 65.921875 20.015625 65.03125 
Q 15.375 64.15625 9.8125 62.3125 
L 9.8125 71.09375 
Q 15.4375 72.65625 20.34375 73.4375 
Q 25.25 74.21875 29.59375 74.21875 
Q 40.828125 74.21875 47.359375 69.109375 
Q 53.90625 64.015625 53.90625 55.328125 
Q 53.90625 49.265625 50.4375 45.09375 
Q 46.96875 40.921875 40.578125 39.3125 
z
" id="DejaVuSans-51"/>
      </defs>
      <g transform="translate(67.170312 303.159594)scale(0.1 -0.1)">
       <use xlink:href="#DejaVuSans-8722"/>
       <use x="83.789062" xlink:href="#DejaVuSans-51"/>
       <use x="147.412109" xlink:href="#DejaVuSans-48"/>
       <use x="211.035156" xlink:href="#DejaVuSans-48"/>
       <use x="274.658203" xlink:href="#DejaVuSans-48"/>
      </g>
     </g>
    </g>
    <g id="ytick_3">
     <g id="line2d_11">
      <g>
       <use style="stroke:#000000;stroke-width:0.8;" x="108" xlink:href="#m777e110944" y="239.131338"/>
      </g>
     </g>
     <g id="text_12">
      <!-- −2000 -->
      <g transform="translate(67.170312 242.930557)scale(0.1 -0.1)">
       <use xlink:href="#DejaVuSans-8722"/>
       <use x="83.789062" xlink:href="#DejaVuSans-50"/>
       <use x="147.412109" xlink:href="#DejaVuSans-48"/>
       <use x="211.035156" xlink:href="#DejaVuSans-48"/>
       <use x="274.658203" xlink:href="#DejaVuSans-48"/>
      </g>
     </g>
    </g>
    <g id="ytick_4">
     <g id="line2d_12">
      <g>
       <use style="stroke:#000000;stroke-width:0.8;" x="108" xlink:href="#m777e110944" y="178.902301"/>
      </g>
     </g>
     <g id="text_13">
      <!-- −1000 -->
      <g transform="translate(67.170312 182.70152)scale(0.1 -0.1)">
       <use xlink:href="#DejaVuSans-8722"/>
       <use x="83.789062" xlink:href="#DejaVuSans-49"/>
       <use x="147.412109" xlink:href="#DejaVuSans-48"/>
       <use x="211.035156" xlink:href="#DejaVuSans-48"/>
       <use x="274.658203" xlink:href="#DejaVuSans-48"/>
      </g>
     </g>
    </g>
    <g id="ytick_5">
     <g id="line2d_13">
      <g>
       <use style="stroke:#000000;stroke-width:0.8;" x="108" xlink:href="#m777e110944" y="118.673264"/>
      </g>
     </g>
     <g id="text_14">
      <!-- 0 -->
      <g transform="translate(94.6375 122.472483)scale(0.1 -0.1)">
       <use xlink:href="#DejaVuSans-48"/>
      </g>
     </g>
    </g>
    <g id="ytick_6">
     <g id="line2d_14">
      <g>
       <use style="stroke:#000000;stroke-width:0.8;" x="108" xlink:href="#m777e110944" y="58.444227"/>
      </g>
     </g>
     <g id="text_15">
      <!-- 1000 -->
      <g transform="translate(75.55 62.243446)scale(0.1 -0.1)">
       <use xlink:href="#DejaVuSans-49"/>
       <use x="63.623047" xlink:href="#DejaVuSans-48"/>
       <use x="127.246094" xlink:href="#DejaVuSans-48"/>
       <use x="190.869141" xlink:href="#DejaVuSans-48"/>
      </g>
     </g>
    </g>
    <g id="text_16">
     <!-- Value -->
     <defs>
      <path d="M 28.609375 0 
L 0.78125 72.90625 
L 11.078125 72.90625 
L 34.1875 11.53125 
L 57.328125 72.90625 
L 67.578125 72.90625 
L 39.796875 0 
z
" id="DejaVuSans-86"/>
      <path d="M 9.421875 75.984375 
L 18.40625 75.984375 
L 18.40625 0 
L 9.421875 0 
z
" id="DejaVuSans-108"/>
      <path d="M 8.5 21.578125 
L 8.5 54.6875 
L 17.484375 54.6875 
L 17.484375 21.921875 
Q 17.484375 14.15625 20.5 10.265625 
Q 23.53125 6.390625 29.59375 6.390625 
Q 36.859375 6.390625 41.078125 11.03125 
Q 45.3125 15.671875 45.3125 23.6875 
L 45.3125 54.6875 
L 54.296875 54.6875 
L 54.296875 0 
L 45.3125 0 
L 45.3125 8.40625 
Q 42.046875 3.421875 37.71875 1 
Q 33.40625 -1.421875 27.6875 -1.421875 
Q 18.265625 -1.421875 13.375 4.4375 
Q 8.5 10.296875 8.5 21.578125 
z
M 31.109375 56 
z
" id="DejaVuSans-117"/>
     </defs>
     <g transform="translate(61.090625 232.273281)rotate(-90)scale(0.1 -0.1)">
      <use xlink:href="#DejaVuSans-86"/>
      <use x="68.298828" xlink:href="#DejaVuSans-97"/>
      <use x="129.578125" xlink:href="#DejaVuSans-108"/>
      <use x="157.361328" xlink:href="#DejaVuSans-117"/>
      <use x="220.740234" xlink:href="#DejaVuSans-101"/>
     </g>
    </g>
   </g>
   <g id="line2d_15">
    <path clip-path="url(#p681f05ee5a)" d="M 138.436364 114.118381 
L 138.798701 104.425347 
L 139.523377 82.637635 
L 139.885714 90.066699 
L 140.248052 87.994137 
L 140.61039 93.607084 
L 140.972727 102.890196 
L 141.335065 122.365579 
L 141.697403 121.573447 
L 142.05974 130.297148 
L 143.146753 105.552331 
L 143.509091 105.134377 
L 143.871429 110.907411 
L 144.233766 109.685295 
L 144.596104 115.701505 
L 144.958442 132.001034 
L 145.320779 137.61562 
L 145.683117 148.326194 
L 146.045455 151.89585 
L 146.407792 135.63748 
L 146.77013 128.169106 
L 147.132468 94.975556 
L 147.494805 83.113859 
L 147.857143 84.203534 
L 148.219481 68.432914 
L 148.581818 67.628366 
L 150.031169 115.744703 
L 150.393506 115.969412 
L 150.755844 117.895265 
L 151.118182 106.588271 
L 151.480519 107.915677 
L 151.842857 102.78269 
L 152.205195 100.80385 
L 152.567532 91.20074 
L 153.292208 106.370238 
L 154.016883 134.502941 
L 154.379221 138.208949 
L 154.741558 127.440132 
L 155.103896 137.234468 
L 155.466234 129.585672 
L 156.190909 92.874384 
L 156.553247 80.963444 
L 156.915584 76.667235 
L 157.277922 66.96 
L 157.64026 78.466936 
L 158.002597 85.613245 
L 158.364935 103.28587 
L 158.727273 103.293263 
L 159.08961 115.301414 
L 159.451948 114.39015 
L 159.814286 121.404657 
L 160.176623 112.39254 
L 160.538961 107.879389 
L 160.901299 97.788971 
L 161.263636 106.780472 
L 161.625974 105.302477 
L 161.988312 121.08556 
L 162.350649 124.182556 
L 162.712987 142.959057 
L 163.075325 155.681723 
L 163.437662 153.937152 
L 164.162338 138.269663 
L 164.524675 122.585268 
L 164.887013 124.235981 
L 165.611688 85.639711 
L 165.974026 81.379044 
L 166.336364 100.225026 
L 166.698701 103.460019 
L 167.061039 114.438038 
L 167.423377 133.210224 
L 167.785714 137.65854 
L 168.148052 136.240047 
L 169.235065 121.818917 
L 169.597403 124.807611 
L 169.95974 126.038552 
L 170.322078 134.458643 
L 170.684416 137.796366 
L 171.046753 154.990394 
L 171.409091 165.646327 
L 171.771429 166.572316 
L 172.133766 174.193598 
L 172.858442 154.088222 
L 173.220779 149.987091 
L 173.945455 110.361456 
L 174.307792 111.020498 
L 174.67013 110.97931 
L 175.032468 113.332357 
L 175.757143 133.523055 
L 176.119481 152.246477 
L 176.481818 155.099104 
L 176.844156 150.442471 
L 177.206494 162.003247 
L 177.568831 138.811874 
L 177.931169 140.721189 
L 178.293506 133.971556 
L 178.655844 134.319797 
L 179.018182 139.906928 
L 179.742857 163.255637 
L 180.105195 183.423885 
L 180.467532 188.026532 
L 180.82987 189.654932 
L 181.192208 185.730037 
L 181.916883 145.712009 
L 182.279221 132.07731 
L 182.641558 126.300351 
L 183.003896 115.270941 
L 183.366234 112.21389 
L 183.728571 116.811894 
L 184.815584 152.885223 
L 185.177922 161.788365 
L 185.54026 160.949689 
L 185.902597 155.220679 
L 186.264935 143.49696 
L 186.627273 148.38935 
L 186.98961 142.611847 
L 187.714286 150.678045 
L 188.076623 152.246496 
L 188.438961 177.513155 
L 188.801299 170.354915 
L 189.163636 183.510852 
L 189.525974 181.266006 
L 189.888312 179.737617 
L 190.250649 168.382129 
L 190.612987 148.105533 
L 190.975325 142.879702 
L 191.337662 127.090463 
L 191.7 128.491971 
L 192.062338 113.271545 
L 192.424675 125.215509 
L 192.787013 144.549509 
L 193.149351 149.519784 
L 193.511688 151.331502 
L 194.236364 148.976603 
L 194.598701 146.51171 
L 194.961039 146.767433 
L 195.323377 136.630603 
L 195.685714 131.823462 
L 196.048052 138.871003 
L 196.41039 136.982166 
L 197.135065 163.375524 
L 197.497403 163.982391 
L 197.85974 181.081271 
L 198.222078 170.35488 
L 198.584416 168.459493 
L 199.309091 138.530041 
L 199.671429 139.74014 
L 200.033766 102.845686 
L 200.396104 103.051359 
L 200.758442 102.844978 
L 201.120779 109.769413 
L 201.845455 131.076629 
L 202.207792 141.347853 
L 202.932468 151.009113 
L 203.294805 143.813001 
L 203.657143 132.162614 
L 204.019481 125.060081 
L 204.381818 115.630532 
L 204.744156 128.823684 
L 205.106494 124.176532 
L 205.468831 132.504731 
L 206.555844 174.594625 
L 206.918182 177.217328 
L 207.280519 156.036357 
L 207.642857 145.880821 
L 208.005195 127.086794 
L 208.72987 103.49344 
L 209.092208 95.114324 
L 209.454545 94.562501 
L 209.816883 97.975489 
L 210.179221 116.266587 
L 210.541558 119.23954 
L 211.266234 136.899376 
L 211.628571 143.240693 
L 211.990909 143.882473 
L 212.353247 133.927085 
L 212.715584 112.083663 
L 213.077922 125.497476 
L 213.44026 119.308925 
L 214.527273 143.806745 
L 214.88961 154.911736 
L 215.251948 154.948407 
L 215.614286 163.246563 
L 215.976623 160.302458 
L 216.338961 142.315634 
L 217.063636 117.560913 
L 217.425974 99.094675 
L 217.788312 92.046278 
L 218.150649 90.097949 
L 218.512987 98.920682 
L 218.875325 152.856557 
L 219.237662 127.686827 
L 219.6 133.77897 
L 219.962338 147.827152 
L 220.324675 136.080776 
L 220.687013 131.58523 
L 221.049351 135.441755 
L 221.411688 126.886131 
L 221.774026 125.958609 
L 222.136364 124.057254 
L 222.861039 142.213273 
L 223.223377 150.951407 
L 223.585714 166.56927 
L 223.948052 170.197553 
L 224.31039 178.292381 
L 224.672727 175.673083 
L 225.035065 152.100257 
L 225.397403 145.216532 
L 225.75974 124.425099 
L 226.122078 114.521868 
L 226.484416 116.594719 
L 226.846753 109.026656 
L 227.209091 111.713232 
L 227.571429 117.331531 
L 227.933766 135.069475 
L 228.658442 159.938998 
L 229.020779 156.87358 
L 229.383117 161.91 
L 229.745455 148.102877 
L 230.107792 191.927501 
L 230.47013 138.83119 
L 230.832468 139.845985 
L 231.194805 148.795725 
L 231.557143 151.080024 
L 232.281818 193.332906 
L 232.644156 193.114011 
L 233.006494 190.799995 
L 233.368831 177.197838 
L 233.731169 179.46244 
L 234.093506 156.632641 
L 234.818182 136.058879 
L 235.180519 120.011329 
L 235.542857 130.536052 
L 235.905195 130.801541 
L 236.62987 164.163513 
L 237.354545 171.232403 
L 237.716883 167.848839 
L 238.079221 171.774385 
L 238.441558 167.174175 
L 238.803896 160.70192 
L 239.166234 166.131299 
L 239.528571 165.530803 
L 239.890909 171.581663 
L 240.253247 169.66839 
L 240.615584 188.051928 
L 240.977922 237.575533 
L 241.34026 194.921381 
L 241.702597 202.230564 
L 242.064935 202.562628 
L 242.78961 168.1902 
L 243.514286 142.592577 
L 244.238961 140.420459 
L 244.601299 143.4491 
L 244.963636 161.019665 
L 245.325974 161.878102 
L 245.688312 178.407847 
L 246.050649 170.297818 
L 246.412987 181.57764 
L 246.775325 178.575302 
L 247.5 168.007325 
L 247.862338 152.219677 
L 248.224675 156.4381 
L 248.949351 173.196109 
L 249.674026 199.944512 
L 250.036364 196.206588 
L 250.398701 201.159959 
L 250.761039 188.286465 
L 251.123377 139.556035 
L 251.485714 182.406384 
L 252.21039 134.799285 
L 252.572727 128.504079 
L 252.935065 128.345982 
L 253.297403 138.700349 
L 253.65974 145.483978 
L 254.022078 161.729069 
L 254.746753 175.788139 
L 255.109091 177.320601 
L 255.471429 174.522322 
L 255.833766 169.968324 
L 256.196104 145.75492 
L 256.558442 150.579626 
L 256.920779 146.338424 
L 257.283117 164.744059 
L 258.007792 179.758649 
L 258.37013 192.608439 
L 258.732468 197.547774 
L 259.094805 180.805087 
L 259.457143 183.927656 
L 259.819481 179.079994 
L 260.181818 163.481959 
L 260.544156 142.720832 
L 261.268831 118.576058 
L 261.631169 131.236437 
L 261.993506 124.045455 
L 262.355844 142.804649 
L 262.718182 143.045357 
L 263.080519 160.838185 
L 263.442857 155.078085 
L 263.805195 161.336504 
L 264.167532 156.980276 
L 264.52987 155.265844 
L 264.892208 141.915674 
L 265.254545 148.022108 
L 265.616883 143.344645 
L 265.979221 153.432954 
L 266.341558 153.469654 
L 267.066234 184.710923 
L 267.428571 169.259768 
L 267.790909 184.496535 
L 268.153247 180.599023 
L 268.515584 168.391245 
L 268.877922 143.427343 
L 269.602597 111.528266 
L 269.964935 111.955589 
L 270.68961 117.593164 
L 271.051948 137.423175 
L 271.414286 142.773598 
L 271.776623 153.016356 
L 272.138961 149.493871 
L 272.501299 157.995179 
L 272.863636 139.226054 
L 273.225974 138.547338 
L 273.588312 140.051073 
L 273.950649 140.048289 
L 274.312987 130.340364 
L 274.675325 144.619683 
L 275.037662 150.681557 
L 275.4 175.467033 
L 275.762338 178.107295 
L 276.124675 182.923068 
L 276.487013 185.932084 
L 277.211688 165.838706 
L 277.574026 155.081019 
L 277.936364 129.886157 
L 278.298701 123.838726 
L 278.661039 109.219809 
L 279.023377 103.5387 
L 279.385714 122.99684 
L 280.11039 140.934188 
L 280.472727 148.670853 
L 280.835065 151.499866 
L 281.197403 162.555541 
L 281.55974 158.874119 
L 281.922078 143.414157 
L 282.284416 145.448669 
L 282.646753 140.142679 
L 283.009091 140.270957 
L 283.733766 164.837558 
L 284.096104 170.265158 
L 284.458442 191.593156 
L 285.183117 187.262313 
L 285.907792 176.609578 
L 286.27013 161.124616 
L 286.632468 137.443837 
L 286.994805 132.740216 
L 287.357143 130.354057 
L 287.719481 134.87145 
L 288.081818 136.92316 
L 288.806494 155.435588 
L 289.168831 170.68114 
L 289.531169 176.147837 
L 289.893506 174.037348 
L 290.255844 170.842666 
L 290.618182 171.212497 
L 290.980519 167.819002 
L 291.342857 156.502048 
L 291.705195 167.252272 
L 292.067532 164.181234 
L 292.792208 187.746859 
L 293.879221 223.142681 
L 294.241558 195.189184 
L 294.603896 195.707875 
L 294.966234 170.166602 
L 295.328571 164.736039 
L 295.690909 150.194754 
L 296.053247 143.917861 
L 296.415584 145.343522 
L 297.14026 166.24542 
L 298.227273 195.450938 
L 298.58961 198.122593 
L 298.951948 196.437801 
L 299.314286 192.085674 
L 299.676623 183.705852 
L 300.038961 171.49204 
L 300.401299 181.346802 
L 300.763636 179.64883 
L 302.212987 225.757621 
L 302.575325 219.775629 
L 302.937662 224.302457 
L 303.662338 189.186323 
L 304.024675 162.641913 
L 304.387013 167.068152 
L 304.749351 147.678299 
L 305.111688 147.974283 
L 305.474026 166.148569 
L 305.836364 176.363338 
L 306.198701 182.622766 
L 306.561039 193.909643 
L 306.923377 200.248676 
L 307.285714 209.194255 
L 307.648052 204.549689 
L 308.01039 189.299083 
L 308.372727 192.719051 
L 308.735065 193.518475 
L 309.097403 184.865868 
L 309.45974 186.533597 
L 309.822078 197.174723 
L 310.184416 196.27738 
L 310.546753 212.122156 
L 310.909091 233.903058 
L 311.271429 220.301469 
L 311.633766 221.799876 
L 311.996104 199.573209 
L 312.358442 194.723726 
L 312.720779 171.32149 
L 313.083117 169.372229 
L 313.445455 148.90046 
L 313.807792 148.031811 
L 314.17013 153.016462 
L 314.894805 191.015034 
L 315.257143 192.917636 
L 315.619481 199.683404 
L 315.981818 199.040613 
L 316.344156 191.413576 
L 316.706494 188.517615 
L 317.431169 174.90916 
L 317.793506 181.646898 
L 318.155844 179.184791 
L 318.518182 194.842118 
L 318.880519 198.418814 
L 319.605195 218.658635 
L 319.967532 210.438085 
L 320.692208 198.779583 
L 321.054545 174.0761 
L 322.141558 139.143005 
L 322.503896 143.493419 
L 322.866234 136.847173 
L 323.590909 180.349888 
L 323.953247 173.973762 
L 324.315584 193.743089 
L 324.677922 185.487887 
L 325.04026 174.246185 
L 325.402597 171.440225 
L 325.764935 161.549649 
L 326.127273 155.194155 
L 326.48961 161.526892 
L 326.851948 179.570762 
L 327.214286 176.769744 
L 327.576623 194.132466 
L 327.938961 203.793912 
L 328.301299 199.893237 
L 328.663636 213.857396 
L 329.388312 184.71476 
L 329.750649 173.157515 
L 330.112987 152.773727 
L 330.475325 150.096387 
L 330.837662 143.814586 
L 331.2 139.753541 
L 331.562338 149.810486 
L 331.924675 153.53764 
L 332.287013 168.677179 
L 332.649351 162.880134 
L 333.011688 179.42113 
L 333.736364 162.814066 
L 334.098701 177.14711 
L 334.461039 166.202938 
L 334.823377 149.592388 
L 335.185714 158.839179 
L 335.548052 160.872781 
L 336.272727 180.848084 
L 336.635065 185.624878 
L 336.997403 203.459253 
L 337.35974 202.771285 
L 337.722078 200.129968 
L 338.084416 189.683744 
L 338.446753 165.479916 
L 338.809091 148.884797 
L 339.533766 135.291575 
L 339.896104 145.399997 
L 340.258442 144.085545 
L 340.620779 159.965099 
L 340.983117 160.151449 
L 341.345455 171.295073 
L 341.707792 186.179182 
L 342.07013 174.917875 
L 342.432468 176.128594 
L 342.794805 176.751785 
L 343.519481 159.023663 
L 344.244156 176.384731 
L 344.606494 188.982217 
L 344.968831 180.875011 
L 345.331169 205.985756 
L 345.693506 214.369164 
L 346.055844 216.237781 
L 346.418182 207.03135 
L 346.780519 194.423927 
L 347.142857 187.076214 
L 348.22987 143.980046 
L 348.592208 155.830457 
L 348.954545 158.630925 
L 349.316883 155.900883 
L 349.679221 178.402457 
L 350.041558 190.907103 
L 350.403896 194.368464 
L 350.766234 195.401999 
L 351.128571 193.30205 
L 351.490909 190.533903 
L 351.853247 189.038051 
L 352.215584 186.585237 
L 352.577922 185.212282 
L 353.302597 204.039143 
L 353.664935 207.534186 
L 354.027273 225.010921 
L 354.38961 220.284657 
L 354.751948 229.796412 
L 355.114286 224.131565 
L 355.476623 216.499198 
L 356.201299 185.257611 
L 356.563636 179.357311 
L 357.288312 162.333366 
L 357.650649 177.664527 
L 358.012987 182.655415 
L 358.375325 206.869459 
L 358.737662 209.239785 
L 359.1 214.400668 
L 359.462338 216.794046 
L 359.824675 208.058678 
L 360.187013 203.189664 
L 360.549351 205.082748 
L 360.911688 198.450145 
L 361.274026 201.074767 
L 361.636364 198.059598 
L 361.998701 221.722682 
L 362.361039 224.631229 
L 362.723377 229.678104 
L 363.085714 246.146483 
L 363.448052 239.19195 
L 363.81039 241.430125 
L 364.172727 218.473931 
L 364.535065 212.300694 
L 364.897403 200.935113 
L 365.25974 195.962853 
L 365.984416 172.434865 
L 366.346753 180.624923 
L 367.071429 207.646118 
L 367.433766 212.715045 
L 367.796104 213.32408 
L 368.158442 218.286915 
L 368.520779 232.597792 
L 369.245455 198.247238 
L 369.607792 207.739688 
L 369.97013 200.836305 
L 370.332468 207.34122 
L 371.419481 240.981481 
L 371.781818 246.229857 
L 372.144156 240.542575 
L 373.231169 213.265682 
L 373.593506 196.61421 
L 373.955844 185.968648 
L 374.318182 171.515578 
L 375.042857 182.261522 
L 375.405195 186.545213 
L 376.12987 211.450202 
L 376.492208 210.103152 
L 376.854545 209.596157 
L 377.216883 213.058013 
L 377.579221 202.356254 
L 377.941558 199.801039 
L 378.666234 189.358316 
L 379.028571 200.266834 
L 379.390909 216.494514 
L 380.477922 241.099059 
L 380.84026 238.882651 
L 381.202597 230.941605 
L 381.927273 200.891706 
L 382.651948 163.80389 
L 383.014286 156.192775 
L 383.738961 169.055616 
L 384.101299 183.760081 
L 384.463636 180.899516 
L 385.188312 214.905005 
L 385.550649 201.608653 
L 385.912987 201.124971 
L 386.275325 192.768608 
L 386.637662 176.58478 
L 387 196.935695 
L 387.362338 173.386123 
L 387.724675 192.574453 
L 388.449351 214.574382 
L 388.811688 217.980418 
L 389.174026 228.265287 
L 389.536364 224.84094 
L 389.898701 219.650649 
L 390.261039 207.74781 
L 390.985714 172.721884 
L 391.348052 160.893962 
L 391.71039 160.572819 
L 392.072727 149.080311 
L 392.435065 154.290789 
L 392.797403 163.057097 
L 393.15974 189.288666 
L 393.522078 193.215303 
L 393.884416 189.978542 
L 394.246753 190.885496 
L 394.609091 195.269029 
L 394.971429 182.487665 
L 395.333766 176.205993 
L 395.696104 175.033067 
L 396.058442 179.598558 
L 396.420779 178.757404 
L 397.145455 214.537049 
L 397.507792 211.915646 
L 397.87013 227.150294 
L 398.232468 221.937626 
L 398.594805 220.864088 
L 398.957143 207.163686 
L 399.319481 199.209587 
L 399.681818 176.632321 
L 400.044156 166.265518 
L 400.406494 151.313543 
L 400.768831 150.842531 
L 401.131169 156.357171 
L 401.493506 169.419061 
L 401.855844 187.792376 
L 402.218182 188.176573 
L 402.580519 201.100279 
L 402.942857 196.638689 
L 403.305195 201.181491 
L 403.667532 189.992716 
L 404.02987 182.800253 
L 404.392208 179.982326 
L 404.754545 187.033511 
L 405.116883 191.265339 
L 405.841558 219.56048 
L 406.203896 225.473661 
L 406.566234 228.48497 
L 407.290909 230.489884 
L 407.653247 209.479247 
L 408.015584 201.55225 
L 408.74026 173.091113 
L 409.102597 179.665101 
L 409.464935 176.406984 
L 409.827273 176.877712 
L 410.18961 193.456103 
L 410.551948 201.245982 
L 410.914286 219.332836 
L 411.276623 210.198439 
L 411.638961 211.143773 
L 412.001299 220.752383 
L 412.363636 202.976776 
L 412.725974 208.795129 
L 413.088312 194.447612 
L 413.812987 211.36777 
L 414.175325 214.338643 
L 414.537662 245.133264 
L 414.9 230.728005 
L 415.262338 247.10638 
L 415.624675 250.573864 
L 415.987013 251.0069 
L 416.349351 225.431619 
L 416.711688 221.412828 
L 417.074026 197.568295 
L 417.436364 199.751395 
L 417.798701 186.065793 
L 418.161039 184.710722 
L 418.523377 200.156799 
L 418.885714 204.097465 
L 419.248052 203.906553 
L 419.972727 239.759523 
L 420.335065 231.088562 
L 420.697403 235.605762 
L 421.422078 222.533904 
L 421.784416 216.468811 
L 422.146753 214.48931 
L 422.509091 219.462881 
L 422.871429 245.165604 
L 423.233766 242.869538 
L 423.596104 264.675433 
L 423.958442 266.530217 
L 425.045455 253.435503 
L 425.77013 218.837432 
L 426.494805 189.299326 
L 426.857143 189.426681 
L 427.219481 211.960957 
L 427.944156 230.34919 
L 428.306494 228.207454 
L 428.668831 242.766342 
L 429.031169 244.917004 
L 429.393506 240.561063 
L 430.118182 227.082704 
L 430.480519 216.634926 
L 430.842857 217.224156 
L 431.205195 233.622499 
L 431.567532 235.563714 
L 431.92987 252.290828 
L 432.292208 258.938084 
L 432.654545 271.168886 
L 433.379221 256.88729 
L 433.741558 244.042897 
L 434.103896 224.670153 
L 434.466234 219.468384 
L 434.828571 199.472111 
L 435.190909 196.595617 
L 435.553247 192.415133 
L 435.915584 203.277343 
L 436.277922 206.986005 
L 436.64026 231.676645 
L 437.002597 237.837688 
L 437.364935 228.08076 
L 437.727273 239.683863 
L 438.08961 222.726702 
L 438.451948 225.844265 
L 438.814286 225.57188 
L 439.176623 219.382641 
L 439.538961 222.374998 
L 439.901299 216.621686 
L 440.263636 229.23829 
L 440.625974 237.014779 
L 440.988312 255.919987 
L 441.350649 262.746518 
L 441.712987 256.920554 
L 442.075325 244.022287 
L 442.437662 236.310396 
L 442.8 223.149842 
L 443.162338 200.277056 
L 443.524675 200.844364 
L 443.887013 190.094081 
L 444.249351 182.957496 
L 444.611688 185.37642 
L 444.974026 200.914765 
L 445.336364 204.929102 
L 445.698701 220.526764 
L 446.061039 213.736544 
L 446.423377 225.506751 
L 447.148052 210.963632 
L 447.51039 204.088452 
L 447.872727 201.152408 
L 448.235065 191.360075 
L 448.597403 209.80791 
L 448.95974 217.849356 
L 449.322078 231.313411 
L 449.684416 237.207117 
L 450.046753 254.730926 
L 450.409091 241.514397 
L 450.771429 233.588878 
L 451.496104 210.57564 
L 451.858442 195.832589 
L 452.220779 170.875916 
L 452.583117 161.596861 
L 452.945455 179.42255 
L 453.307792 183.025679 
L 453.67013 190.356237 
L 454.032468 201.829943 
L 454.394805 205.101215 
L 454.757143 211.736598 
L 455.119481 213.885086 
L 455.481818 216.898903 
L 456.206494 200.986938 
L 456.568831 200.818068 
L 456.931169 196.288188 
L 457.293506 202.789369 
L 457.655844 220.398677 
L 458.742857 235.274333 
L 459.105195 247.938939 
L 459.467532 236.011247 
L 459.82987 220.351746 
L 460.192208 215.620727 
L 460.554545 187.687174 
L 460.916883 183.168486 
L 461.279221 168.111871 
L 461.641558 181.35584 
L 462.003896 184.467719 
L 462.366234 195.08257 
L 462.728571 211.609077 
L 463.090909 206.769167 
L 463.453247 217.845926 
L 463.815584 218.141609 
L 464.177922 212.834438 
L 464.54026 215.270394 
L 464.902597 208.551046 
L 465.264935 209.116392 
L 465.627273 204.261816 
L 465.98961 202.956607 
L 466.714286 231.768322 
L 467.076623 236.388109 
L 467.438961 249.9258 
L 467.801299 251.331238 
L 468.163636 255.485979 
L 468.525974 237.924308 
L 468.888312 231.807341 
L 469.250649 202.605406 
L 469.612987 198.461427 
L 469.975325 185.40997 
L 470.337662 196.93968 
L 470.7 189.949871 
L 471.062338 198.27832 
L 471.424675 237.488383 
L 471.787013 225.925119 
L 472.149351 235.053669 
L 472.511688 238.428745 
L 472.874026 240.18875 
L 473.236364 231.589674 
L 473.598701 234.09227 
L 473.961039 219.461559 
L 474.685714 225.883904 
L 475.048052 236.78302 
L 475.41039 254.391187 
L 476.135065 267.382587 
L 476.497403 273.656062 
L 476.85974 266.125072 
L 477.222078 254.021623 
L 477.584416 246.702797 
L 477.946753 227.089915 
L 479.033766 201.512468 
L 479.758442 220.976 
L 480.120779 230.757454 
L 480.483117 251.700929 
L 480.845455 251.880588 
L 481.207792 250.013755 
L 481.57013 244.085751 
L 481.932468 252.616653 
L 482.294805 238.034957 
L 482.657143 229.552553 
L 483.019481 240.616574 
L 483.381818 244.50942 
L 483.744156 258.082543 
L 484.106494 262.095355 
L 484.468831 275.156384 
L 484.831169 283.048876 
L 485.555844 277.669612 
L 485.918182 273.526895 
L 486.280519 248.301767 
L 486.642857 230.889015 
L 487.005195 227.016422 
L 487.367532 209.984475 
L 487.72987 226.695783 
L 488.092208 214.076509 
L 488.454545 235.773538 
L 489.179221 261.756332 
L 489.541558 256.429169 
L 489.903896 254.779787 
L 490.266234 256.921876 
L 490.628571 250.036526 
L 490.990909 250.854029 
L 491.353247 246.167805 
L 491.715584 234.509818 
L 492.077922 240.926637 
L 492.44026 253.465856 
L 492.802597 277.275382 
L 493.527273 290.699453 
L 493.88961 282.051852 
L 494.251948 278.870716 
L 494.614286 267.889627 
L 494.976623 250.659042 
L 495.701299 225.97468 
L 496.063636 212.866057 
L 496.425974 219.737789 
L 496.788312 216.271218 
L 497.150649 228.547988 
L 497.512987 245.050368 
L 498.237662 261.474143 
L 498.6 251.813109 
L 498.962338 252.146506 
L 499.687013 246.478679 
L 500.049351 233.548825 
L 500.411688 230.798716 
L 500.774026 246.807326 
L 501.136364 248.496839 
L 501.498701 255.732309 
L 501.861039 268.872011 
L 502.223377 275.064576 
L 502.585714 271.522915 
L 503.672727 243.027876 
L 504.035065 230.963329 
L 504.397403 214.185536 
L 504.75974 205.762622 
L 505.122078 193.781149 
L 505.846753 224.334071 
L 506.209091 227.380379 
L 506.571429 232.16781 
L 507.296104 249.225518 
L 507.658442 237.953156 
L 508.745455 219.178527 
L 509.107792 222.887205 
L 509.47013 236.80866 
L 509.832468 237.997479 
L 510.194805 248.170397 
L 510.557143 267.109392 
L 510.919481 262.705902 
L 511.281818 266.789359 
L 512.006494 250.159181 
L 512.368831 220.207773 
L 512.731169 204.963262 
L 513.093506 200.861522 
L 513.455844 191.164534 
L 513.818182 193.56365 
L 514.542857 206.873446 
L 515.267532 241.052794 
L 515.62987 222.59545 
L 515.992208 237.630768 
L 516.354545 231.066329 
L 516.716883 230.270673 
L 517.079221 235.230249 
L 517.441558 215.856736 
L 517.803896 220.441193 
L 518.166234 217.562185 
L 518.528571 235.698827 
L 519.253247 261.29911 
L 519.615584 264.251764 
L 519.977922 258.07266 
L 520.34026 263.000831 
L 520.702597 248.979482 
L 521.427273 209.75476 
L 521.78961 205.603503 
L 522.151948 193.052537 
L 522.514286 200.481345 
L 522.876623 201.372208 
L 523.238961 214.200647 
L 523.601299 221.626477 
L 523.963636 243.396382 
L 524.325974 244.980932 
L 524.688312 239.495413 
L 525.050649 237.143122 
L 525.412987 233.856723 
L 525.775325 225.805833 
L 526.137662 223.372245 
L 526.5 220.132778 
L 526.862338 231.831157 
L 527.224675 238.592042 
L 527.587013 261.552914 
L 527.949351 270.353666 
L 528.674026 279.032284 
L 529.398701 254.435593 
L 529.761039 249.531541 
L 530.123377 219.677004 
L 530.485714 211.711181 
L 530.848052 210.688443 
L 531.21039 210.058743 
L 531.572727 217.433803 
L 531.935065 221.765778 
L 532.297403 246.271102 
L 532.65974 243.947829 
L 533.022078 261.626072 
L 533.746753 255.642737 
L 534.109091 249.932021 
L 534.471429 250.001404 
L 535.196104 239.504838 
L 535.558442 246.727159 
L 535.920779 269.726542 
L 536.283117 283.344393 
L 536.645455 282.509548 
L 537.007792 293.260862 
L 537.37013 291.188677 
L 537.732468 285.515151 
L 538.094805 275.966197 
L 538.457143 257.780102 
L 538.819481 245.896225 
L 539.181818 240.977732 
L 539.544156 223.93206 
L 539.906494 228.02819 
L 540.268831 240.133518 
L 540.631169 241.780505 
L 540.993506 263.54569 
L 541.355844 268.073001 
L 541.718182 275.551966 
L 542.080519 269.337819 
L 542.442857 275.68603 
L 542.805195 264.529556 
L 543.167532 264.530472 
L 543.892208 253.431748 
L 544.616883 274.907373 
L 544.979221 297.952296 
L 545.341558 295.829802 
L 545.703896 300.832846 
L 546.066234 303.676199 
L 546.428571 294.37845 
L 546.790909 293.794014 
L 547.877922 236.973207 
L 548.24026 235.802148 
L 548.602597 230.498498 
L 548.964935 244.442825 
L 549.327273 248.04644 
L 550.051948 281.378502 
L 550.414286 284.576842 
L 550.776623 275.529452 
L 551.138961 277.846157 
L 551.501299 271.013162 
L 551.863636 271.864032 
L 552.225974 264.511838 
L 552.588312 253.863893 
L 553.312987 281.388316 
L 553.675325 286.68734 
L 554.037662 304.592218 
L 554.4 314.091544 
L 554.762338 300.019565 
L 555.124675 302.426474 
L 555.487013 279.389783 
L 555.849351 267.752339 
L 556.211688 263.125383 
L 556.574026 240.311446 
L 556.936364 231.169842 
L 557.298701 233.558146 
L 557.661039 238.040917 
L 558.023377 247.548437 
L 558.385714 266.29632 
L 558.748052 269.440793 
L 559.11039 274.652113 
L 559.472727 276.876409 
L 559.835065 272.722522 
L 560.197403 265.377387 
L 560.922078 255.841826 
L 561.284416 259.90436 
L 561.646753 260.974332 
L 562.009091 267.139927 
L 562.371429 286.947924 
L 562.733766 294.10868 
L 563.096104 294.346645 
L 563.458442 290.02039 
L 563.820779 291.111742 
L 564.183117 277.213799 
L 564.545455 253.615655 
L 564.907792 247.484173 
L 565.27013 230.119665 
L 565.632468 229.812895 
L 565.994805 221.718451 
L 566.357143 233.216347 
L 566.719481 238.275246 
L 567.081818 258.082535 
L 567.444156 269.223081 
L 567.806494 261.247628 
L 568.168831 265.16357 
L 568.531169 264.649626 
L 568.893506 251.119938 
L 569.255844 258.070704 
L 569.618182 240.878778 
L 569.980519 246.001484 
L 570.342857 245.393131 
L 570.705195 256.35702 
L 571.067532 275.974164 
L 571.42987 277.443509 
L 571.792208 282.241831 
L 572.154545 280.081874 
L 572.516883 284.650534 
L 573.241558 252.402563 
L 573.603896 225.574445 
L 573.966234 223.659413 
L 574.328571 209.284894 
L 574.690909 212.332076 
L 575.053247 205.444793 
L 575.415584 230.025639 
L 575.777922 232.24261 
L 576.14026 255.100546 
L 576.502597 264.607427 
L 576.864935 248.156987 
L 577.227273 249.503435 
L 577.58961 252.029206 
L 577.951948 248.817887 
L 578.314286 234.839201 
L 578.676623 237.656915 
L 579.038961 233.481178 
L 579.763636 273.791543 
L 580.125974 272.147767 
L 580.488312 278.400036 
L 580.850649 292.318597 
L 581.212987 280.664312 
L 581.575325 261.849955 
L 581.937662 249.106283 
L 582.3 229.029354 
L 582.662338 228.631213 
L 583.024675 220.504936 
L 583.749351 223.819612 
L 584.111688 225.388039 
L 584.474026 248.429015 
L 584.836364 254.922576 
L 585.198701 258.825687 
L 585.561039 264.965549 
L 585.923377 263.531985 
L 586.285714 256.748348 
L 586.648052 257.675749 
L 587.01039 249.039203 
L 587.372727 244.362439 
L 588.097403 264.616177 
L 588.45974 261.597053 
L 589.184416 298.91164 
L 589.546753 300.699555 
L 589.909091 283.033399 
L 590.271429 276.633967 
L 590.633766 258.857412 
L 590.996104 251.978784 
L 591.358442 238.815967 
L 592.083117 226.88793 
L 592.445455 243.177493 
L 592.807792 240.481145 
L 593.894805 276.439553 
L 594.257143 280.474951 
L 594.619481 278.848872 
L 594.981818 265.646572 
L 595.344156 258.814896 
L 595.706494 264.466629 
L 596.068831 253.406915 
L 596.431169 267.760622 
L 596.793506 269.14444 
L 597.155844 296.86942 
L 597.518182 298.369434 
L 597.880519 302.597554 
L 598.242857 313.372138 
L 598.605195 312.775671 
L 598.967532 301.281519 
L 600.054545 246.919158 
L 600.416883 249.162423 
L 600.779221 258.824853 
L 601.141558 252.981208 
L 601.503896 270.712195 
L 601.866234 274.259085 
L 602.228571 291.678496 
L 602.590909 284.834876 
L 602.953247 300.668185 
L 603.315584 304.99364 
L 603.677922 295.305679 
L 604.04026 281.960375 
L 604.764935 285.696322 
L 605.127273 283.809923 
L 605.48961 292.605691 
L 606.214286 320.771069 
L 606.938961 324.944122 
L 607.301299 319.087991 
L 607.663636 307.735047 
L 608.025974 285.846382 
L 608.388312 288.440234 
L 608.750649 263.09899 
L 609.112987 256.130464 
L 609.475325 254.851847 
L 609.837662 260.909624 
L 611.287013 305.62243 
L 611.649351 309.247556 
L 612.011688 300.232129 
L 612.374026 295.906912 
L 612.736364 284.410566 
L 613.098701 277.433614 
L 613.461039 290.789084 
L 613.823377 292.244438 
L 614.185714 305.880276 
L 614.548052 312.15037 
L 614.91039 315.827776 
L 615.272727 321.561024 
L 615.635065 320.686255 
L 615.997403 321.572879 
L 616.722078 280.606874 
L 617.084416 277.60873 
L 617.446753 259.03426 
L 617.809091 251.335001 
L 618.171429 254.680045 
L 618.533766 264.84698 
L 618.896104 260.650952 
L 619.258442 289.6707 
L 619.620779 289.97371 
L 619.983117 289.677241 
L 620.345455 299.111754 
L 620.707792 288.752182 
L 621.07013 286.649662 
L 621.432468 280.252964 
L 621.794805 270.429026 
L 622.157143 279.412037 
L 622.519481 284.825566 
L 622.881818 286.934102 
L 623.244156 296.617653 
L 623.606494 312.952885 
L 623.968831 321.084259 
L 624.331169 317.277044 
L 625.055844 296.083842 
L 625.418182 282.051661 
L 626.142857 239.152973 
L 626.505195 243.178929 
L 626.867532 245.698711 
L 627.22987 257.252072 
L 627.592208 252.164485 
L 627.954545 274.368234 
L 628.316883 278.182 
L 628.679221 290.352719 
L 629.041558 291.034474 
L 629.403896 294.152677 
L 629.766234 268.648396 
L 630.128571 269.075664 
L 630.853247 256.119564 
L 631.215584 273.747087 
L 631.577922 277.297366 
L 631.94026 283.942458 
L 632.664935 308.526643 
L 633.027273 301.105537 
L 633.38961 296.421318 
L 633.751948 293.945296 
L 634.476623 246.55136 
L 634.838961 246.712956 
L 635.201299 231.069911 
L 636.288312 250.183809 
L 636.650649 265.491142 
L 637.012987 271.891015 
L 637.375325 282.136762 
L 637.737662 279.10811 
L 638.1 273.297172 
L 638.462338 260.314423 
L 638.824675 265.880119 
L 639.187013 253.579767 
L 639.549351 262.427708 
L 639.911688 265.15411 
L 640.274026 274.505369 
L 640.998701 299.074747 
L 641.361039 297.552664 
L 641.723377 309.710423 
L 642.085714 290.983361 
L 642.448052 278.62469 
L 642.81039 254.393181 
L 643.172727 255.670777 
L 643.535065 240.180624 
L 643.897403 240.68652 
L 644.25974 236.467754 
L 644.622078 247.337683 
L 644.984416 252.234068 
L 645.346753 265.494967 
L 645.709091 285.201247 
L 646.071429 274.178781 
L 646.433766 288.743511 
L 646.796104 258.12188 
L 647.158442 278.525902 
L 647.520779 261.06197 
L 647.883117 266.580473 
L 648.245455 276.005018 
L 648.607792 275.61991 
L 648.97013 277.054735 
L 649.332468 297.115763 
L 649.694805 308.388767 
L 650.057143 312.879201 
L 650.419481 319.496794 
L 650.781818 301.066943 
L 651.506494 287.87841 
L 651.868831 260.654384 
L 652.955844 253.629647 
L 653.318182 264.769486 
L 653.680519 266.935842 
L 654.042857 285.114268 
L 654.405195 295.046677 
L 654.767532 295.217557 
L 655.12987 291.449981 
L 655.492208 299.088498 
L 655.854545 289.265539 
L 656.216883 297.947597 
L 656.579221 280.960286 
L 656.941558 291.79775 
L 657.303896 286.489376 
L 657.666234 301.441595 
L 658.028571 306.559012 
L 658.390909 326.175852 
L 658.753247 334.249083 
L 659.115584 330.870291 
L 659.477922 328.536125 
L 660.927273 273.762283 
L 661.28961 271.052401 
L 661.651948 260.446446 
L 662.014286 276.37164 
L 662.376623 282.028828 
L 662.738961 296.446424 
L 663.101299 321.88922 
L 663.463636 313.929333 
L 663.825974 313.475432 
L 664.188312 314.571713 
L 664.550649 309.378896 
L 664.912987 301.71063 
L 665.637662 296.895009 
L 666 299.686913 
L 666.362338 318.429278 
L 666.724675 275.757697 
L 667.087013 337.625249 
L 667.811688 351.561255 
L 668.174026 325.665351 
L 668.536364 321.31427 
L 668.898701 313.509826 
L 669.261039 294.368862 
L 669.623377 292.834118 
L 669.985714 283.206828 
L 670.348052 278.431089 
L 670.71039 285.957943 
L 671.435065 293.186801 
L 671.797403 325.043695 
L 672.15974 331.00057 
L 672.522078 320.785312 
L 672.884416 321.323307 
L 673.246753 308.94916 
L 673.609091 309.452484 
L 673.971429 302.698691 
L 674.333766 299.560617 
L 674.696104 319.167427 
L 675.058442 324.729307 
L 675.420779 336.06697 
L 675.783117 339.190535 
L 676.145455 343.845716 
L 676.507792 346.759613 
L 676.87013 328.465194 
L 677.232468 320.867742 
L 677.594805 309.295639 
L 677.957143 285.495488 
L 678.319481 284.531411 
L 678.681818 277.336072 
L 679.044156 274.474075 
L 679.406494 272.84776 
L 680.131169 302.476262 
L 680.493506 312.490612 
L 680.855844 318.435441 
L 681.218182 315.073905 
L 681.580519 315.09704 
L 681.942857 304.084587 
L 682.305195 300.342192 
L 682.667532 299.247998 
L 683.02987 290.750503 
L 683.392208 301.290523 
L 683.754545 315.800382 
L 684.116883 315.910375 
L 684.479221 335.704835 
L 684.841558 334.853943 
L 685.203896 325.747908 
L 685.566234 324.638088 
L 686.290909 301.177961 
L 686.653247 280.767113 
L 687.015584 270.554794 
L 687.377922 266.475016 
L 687.74026 263.869553 
L 688.464935 277.805257 
L 689.551948 304.833551 
L 689.914286 311.252656 
L 690.276623 303.561394 
L 690.638961 288.355962 
L 691.001299 291.509838 
L 691.363636 275.927277 
L 691.725974 301.046657 
L 692.088312 280.825784 
L 692.450649 305.686511 
L 692.812987 305.425239 
L 693.175325 329.239766 
L 693.537662 326.904259 
L 693.9 322.95981 
L 694.262338 322.670971 
L 695.349351 275.188365 
L 695.711688 270.611184 
L 696.074026 254.449591 
L 696.436364 249.614802 
L 697.161039 273.153741 
L 697.523377 282.726707 
L 697.885714 304.999409 
L 698.248052 307.669538 
L 698.61039 290.733104 
L 698.972727 292.68615 
L 699.335065 291.353561 
L 699.697403 277.935701 
L 700.05974 284.451623 
L 700.422078 286.13476 
L 700.784416 282.168484 
L 701.509091 308.961531 
L 701.871429 320.976176 
L 702.233766 322.017952 
L 702.596104 329.755827 
L 702.958442 317.746436 
L 703.320779 312.015568 
L 704.045455 270.499988 
L 704.407792 271.946307 
L 704.77013 244.506717 
L 705.132468 256.587285 
L 705.494805 251.765037 
L 705.857143 275.484775 
L 706.219481 288.387463 
L 706.581818 297.047456 
L 706.944156 302.097244 
L 707.306494 313.028202 
L 707.668831 315.96166 
L 708.031169 292.847421 
L 708.393506 294.078563 
L 708.755844 287.867675 
L 709.118182 295.478926 
L 709.480519 299.140819 
L 709.842857 308.116891 
L 710.205195 321.942972 
L 710.567532 318.308826 
L 710.92987 331.717035 
L 711.292208 332.254255 
L 711.654545 331.346943 
L 712.379221 295.480352 
L 712.741558 294.941538 
L 713.103896 273.46958 
L 713.466234 260.962676 
L 713.828571 270.019615 
L 714.190909 274.070104 
L 714.553247 293.958627 
L 714.915584 299.38511 
L 715.277922 311.887555 
L 715.64026 309.80433 
L 716.364935 321.414782 
L 716.727273 309.714458 
L 717.451948 297.806277 
L 717.814286 301.649468 
L 718.176623 311.566481 
L 719.263636 347.477334 
L 719.625974 350.887724 
L 719.988312 347.869195 
L 720.350649 348.369061 
L 720.712987 339.109084 
L 721.075325 324.059835 
L 721.437662 304.144726 
L 721.8 297.095876 
L 722.162338 287.845674 
L 722.524675 288.136107 
L 722.887013 287.249451 
L 723.249351 308.793949 
L 723.611688 310.832069 
L 723.974026 322.751345 
L 724.336364 343.270017 
L 724.698701 339.045548 
L 725.061039 340.322341 
L 725.423377 327.986746 
L 725.785714 329.497571 
L 726.148052 309.31571 
L 726.51039 315.372536 
L 726.872727 324.208994 
L 727.235065 344.542462 
L 727.597403 350.716257 
L 727.95974 354.176553 
L 728.322078 358.716344 
L 728.684416 366.819179 
L 729.046753 352.128884 
L 729.771429 342.135947 
L 730.133766 316.248946 
L 730.496104 312.412168 
L 730.858442 298.923886 
L 731.220779 298.425824 
L 731.945455 310.051447 
L 732.307792 328.418661 
L 732.67013 335.566095 
L 733.032468 346.645121 
L 733.394805 344.743323 
L 733.757143 344.385194 
L 734.119481 335.586876 
L 734.844156 327.158109 
L 735.206494 322.083368 
L 736.655844 368.936655 
L 737.018182 363.815531 
L 737.380519 369.36 
L 738.105195 354.570443 
L 738.467532 329.825079 
L 739.554545 295.868292 
L 739.916883 294.233011 
L 740.279221 299.191441 
L 740.641558 312.122266 
L 741.003896 330.000595 
L 741.366234 329.252449 
L 741.728571 344.31943 
L 742.090909 337.048768 
L 742.453247 325.486952 
L 742.815584 327.535399 
L 743.177922 322.215006 
L 743.54026 313.951236 
L 743.902597 318.255895 
L 744.264935 318.350294 
L 744.627273 337.590959 
L 744.98961 338.776364 
L 745.351948 363.45921 
L 745.714286 354.974772 
L 746.076623 360.84685 
L 746.438961 341.763903 
L 746.801299 338.188624 
L 746.801299 338.188624 
" style="fill:none;stroke:#1f77b4;stroke-linecap:square;stroke-width:1.5;"/>
   </g>
   <g id="line2d_16">
    <path clip-path="url(#p681f05ee5a)" d="M 747.163636 384.48 
L 747.163636 51.84 
" style="fill:none;stroke:#808080;stroke-linecap:square;"/>
   </g>
   <g id="patch_71">
    <path d="M 108 384.48 
L 108 51.84 
" style="fill:none;stroke:#000000;stroke-linecap:square;stroke-linejoin:miter;stroke-width:0.8;"/>
   </g>
   <g id="patch_72">
    <path d="M 777.6 384.48 
L 777.6 51.84 
" style="fill:none;stroke:#000000;stroke-linecap:square;stroke-linejoin:miter;stroke-width:0.8;"/>
   </g>
   <g id="patch_73">
    <path d="M 108 384.48 
L 777.6 384.48 
" style="fill:none;stroke:#000000;stroke-linecap:square;stroke-linejoin:miter;stroke-width:0.8;"/>
   </g>
   <g id="patch_74">
    <path d="M 108 51.84 
L 777.6 51.84 
" style="fill:none;stroke:#000000;stroke-linecap:square;stroke-linejoin:miter;stroke-width:0.8;"/>
   </g>
   <g id="text_17">
    <!-- A3Benchmark-TS84.csv -->
    <defs>
     <path d="M 34.1875 63.1875 
L 20.796875 26.90625 
L 47.609375 26.90625 
z
M 28.609375 72.90625 
L 39.796875 72.90625 
L 67.578125 0 
L 57.328125 0 
L 50.6875 18.703125 
L 17.828125 18.703125 
L 11.1875 0 
L 0.78125 0 
z
" id="DejaVuSans-65"/>
     <path d="M 19.671875 34.8125 
L 19.671875 8.109375 
L 35.5 8.109375 
Q 43.453125 8.109375 47.28125 11.40625 
Q 51.125 14.703125 51.125 21.484375 
Q 51.125 28.328125 47.28125 31.5625 
Q 43.453125 34.8125 35.5 34.8125 
z
M 19.671875 64.796875 
L 19.671875 42.828125 
L 34.28125 42.828125 
Q 41.5 42.828125 45.03125 45.53125 
Q 48.578125 48.25 48.578125 53.8125 
Q 48.578125 59.328125 45.03125 62.0625 
Q 41.5 64.796875 34.28125 64.796875 
z
M 9.8125 72.90625 
L 35.015625 72.90625 
Q 46.296875 72.90625 52.390625 68.21875 
Q 58.5 63.53125 58.5 54.890625 
Q 58.5 48.1875 55.375 44.234375 
Q 52.25 40.28125 46.1875 39.3125 
Q 53.46875 37.75 57.5 32.78125 
Q 61.53125 27.828125 61.53125 20.40625 
Q 61.53125 10.640625 54.890625 5.3125 
Q 48.25 0 35.984375 0 
L 9.8125 0 
z
" id="DejaVuSans-66"/>
     <path d="M 54.890625 33.015625 
L 54.890625 0 
L 45.90625 0 
L 45.90625 32.71875 
Q 45.90625 40.484375 42.875 44.328125 
Q 39.84375 48.1875 33.796875 48.1875 
Q 26.515625 48.1875 22.3125 43.546875 
Q 18.109375 38.921875 18.109375 30.90625 
L 18.109375 0 
L 9.078125 0 
L 9.078125 54.6875 
L 18.109375 54.6875 
L 18.109375 46.1875 
Q 21.34375 51.125 25.703125 53.5625 
Q 30.078125 56 35.796875 56 
Q 45.21875 56 50.046875 50.171875 
Q 54.890625 44.34375 54.890625 33.015625 
z
" id="DejaVuSans-110"/>
     <path d="M 48.78125 52.59375 
L 48.78125 44.1875 
Q 44.96875 46.296875 41.140625 47.34375 
Q 37.3125 48.390625 33.40625 48.390625 
Q 24.65625 48.390625 19.8125 42.84375 
Q 14.984375 37.3125 14.984375 27.296875 
Q 14.984375 17.28125 19.8125 11.734375 
Q 24.65625 6.203125 33.40625 6.203125 
Q 37.3125 6.203125 41.140625 7.25 
Q 44.96875 8.296875 48.78125 10.40625 
L 48.78125 2.09375 
Q 45.015625 0.34375 40.984375 -0.53125 
Q 36.96875 -1.421875 32.421875 -1.421875 
Q 20.0625 -1.421875 12.78125 6.34375 
Q 5.515625 14.109375 5.515625 27.296875 
Q 5.515625 40.671875 12.859375 48.328125 
Q 20.21875 56 33.015625 56 
Q 37.15625 56 41.109375 55.140625 
Q 45.0625 54.296875 48.78125 52.59375 
z
" id="DejaVuSans-99"/>
     <path d="M 54.890625 33.015625 
L 54.890625 0 
L 45.90625 0 
L 45.90625 32.71875 
Q 45.90625 40.484375 42.875 44.328125 
Q 39.84375 48.1875 33.796875 48.1875 
Q 26.515625 48.1875 22.3125 43.546875 
Q 18.109375 38.921875 18.109375 30.90625 
L 18.109375 0 
L 9.078125 0 
L 9.078125 75.984375 
L 18.109375 75.984375 
L 18.109375 46.1875 
Q 21.34375 51.125 25.703125 53.5625 
Q 30.078125 56 35.796875 56 
Q 45.21875 56 50.046875 50.171875 
Q 54.890625 44.34375 54.890625 33.015625 
z
" id="DejaVuSans-104"/>
     <path d="M 41.109375 46.296875 
Q 39.59375 47.171875 37.8125 47.578125 
Q 36.03125 48 33.890625 48 
Q 26.265625 48 22.1875 43.046875 
Q 18.109375 38.09375 18.109375 28.8125 
L 18.109375 0 
L 9.078125 0 
L 9.078125 54.6875 
L 18.109375 54.6875 
L 18.109375 46.1875 
Q 20.953125 51.171875 25.484375 53.578125 
Q 30.03125 56 36.53125 56 
Q 37.453125 56 38.578125 55.875 
Q 39.703125 55.765625 41.0625 55.515625 
z
" id="DejaVuSans-114"/>
     <path d="M 9.078125 75.984375 
L 18.109375 75.984375 
L 18.109375 31.109375 
L 44.921875 54.6875 
L 56.390625 54.6875 
L 27.390625 29.109375 
L 57.625 0 
L 45.90625 0 
L 18.109375 26.703125 
L 18.109375 0 
L 9.078125 0 
z
" id="DejaVuSans-107"/>
     <path d="M 4.890625 31.390625 
L 31.203125 31.390625 
L 31.203125 23.390625 
L 4.890625 23.390625 
z
" id="DejaVuSans-45"/>
     <path d="M 53.515625 70.515625 
L 53.515625 60.890625 
Q 47.90625 63.578125 42.921875 64.890625 
Q 37.9375 66.21875 33.296875 66.21875 
Q 25.25 66.21875 20.875 63.09375 
Q 16.5 59.96875 16.5 54.203125 
Q 16.5 49.359375 19.40625 46.890625 
Q 22.3125 44.4375 30.421875 42.921875 
L 36.375 41.703125 
Q 47.40625 39.59375 52.65625 34.296875 
Q 57.90625 29 57.90625 20.125 
Q 57.90625 9.515625 50.796875 4.046875 
Q 43.703125 -1.421875 29.984375 -1.421875 
Q 24.8125 -1.421875 18.96875 -0.25 
Q 13.140625 0.921875 6.890625 3.21875 
L 6.890625 13.375 
Q 12.890625 10.015625 18.65625 8.296875 
Q 24.421875 6.59375 29.984375 6.59375 
Q 38.421875 6.59375 43.015625 9.90625 
Q 47.609375 13.234375 47.609375 19.390625 
Q 47.609375 24.75 44.3125 27.78125 
Q 41.015625 30.8125 33.5 32.328125 
L 27.484375 33.5 
Q 16.453125 35.6875 11.515625 40.375 
Q 6.59375 45.0625 6.59375 53.421875 
Q 6.59375 63.09375 13.40625 68.65625 
Q 20.21875 74.21875 32.171875 74.21875 
Q 37.3125 74.21875 42.625 73.28125 
Q 47.953125 72.359375 53.515625 70.515625 
z
" id="DejaVuSans-83"/>
     <path d="M 31.78125 34.625 
Q 24.75 34.625 20.71875 30.859375 
Q 16.703125 27.09375 16.703125 20.515625 
Q 16.703125 13.921875 20.71875 10.15625 
Q 24.75 6.390625 31.78125 6.390625 
Q 38.8125 6.390625 42.859375 10.171875 
Q 46.921875 13.96875 46.921875 20.515625 
Q 46.921875 27.09375 42.890625 30.859375 
Q 38.875 34.625 31.78125 34.625 
z
M 21.921875 38.8125 
Q 15.578125 40.375 12.03125 44.71875 
Q 8.5 49.078125 8.5 55.328125 
Q 8.5 64.0625 14.71875 69.140625 
Q 20.953125 74.21875 31.78125 74.21875 
Q 42.671875 74.21875 48.875 69.140625 
Q 55.078125 64.0625 55.078125 55.328125 
Q 55.078125 49.078125 51.53125 44.71875 
Q 48 40.375 41.703125 38.8125 
Q 48.828125 37.15625 52.796875 32.3125 
Q 56.78125 27.484375 56.78125 20.515625 
Q 56.78125 9.90625 50.3125 4.234375 
Q 43.84375 -1.421875 31.78125 -1.421875 
Q 19.734375 -1.421875 13.25 4.234375 
Q 6.78125 9.90625 6.78125 20.515625 
Q 6.78125 27.484375 10.78125 32.3125 
Q 14.796875 37.15625 21.921875 38.8125 
z
M 18.3125 54.390625 
Q 18.3125 48.734375 21.84375 45.5625 
Q 25.390625 42.390625 31.78125 42.390625 
Q 38.140625 42.390625 41.71875 45.5625 
Q 45.3125 48.734375 45.3125 54.390625 
Q 45.3125 60.0625 41.71875 63.234375 
Q 38.140625 66.40625 31.78125 66.40625 
Q 25.390625 66.40625 21.84375 63.234375 
Q 18.3125 60.0625 18.3125 54.390625 
z
" id="DejaVuSans-56"/>
     <path d="M 10.6875 12.40625 
L 21 12.40625 
L 21 0 
L 10.6875 0 
z
" id="DejaVuSans-46"/>
     <path d="M 2.984375 54.6875 
L 12.5 54.6875 
L 29.59375 8.796875 
L 46.6875 54.6875 
L 56.203125 54.6875 
L 35.6875 0 
L 23.484375 0 
z
" id="DejaVuSans-118"/>
    </defs>
    <g transform="translate(371.555625 45.84)scale(0.12 -0.12)">
     <use xlink:href="#DejaVuSans-65"/>
     <use x="68.408203" xlink:href="#DejaVuSans-51"/>
     <use x="132.03125" xlink:href="#DejaVuSans-66"/>
     <use x="200.634766" xlink:href="#DejaVuSans-101"/>
     <use x="262.158203" xlink:href="#DejaVuSans-110"/>
     <use x="325.537109" xlink:href="#DejaVuSans-99"/>
     <use x="380.517578" xlink:href="#DejaVuSans-104"/>
     <use x="443.896484" xlink:href="#DejaVuSans-109"/>
     <use x="541.308594" xlink:href="#DejaVuSans-97"/>
     <use x="602.587891" xlink:href="#DejaVuSans-114"/>
     <use x="643.701172" xlink:href="#DejaVuSans-107"/>
     <use x="701.611328" xlink:href="#DejaVuSans-45"/>
     <use x="737.554688" xlink:href="#DejaVuSans-84"/>
     <use x="798.638672" xlink:href="#DejaVuSans-83"/>
     <use x="862.115234" xlink:href="#DejaVuSans-56"/>
     <use x="925.738281" xlink:href="#DejaVuSans-52"/>
     <use x="989.361328" xlink:href="#DejaVuSans-46"/>
     <use x="1021.148438" xlink:href="#DejaVuSans-99"/>
     <use x="1076.128906" xlink:href="#DejaVuSans-115"/>
     <use x="1128.228516" xlink:href="#DejaVuSans-118"/>
    </g>
   </g>
   <g id="legend_1">
    <g id="patch_75">
     <path d="M 711.284375 74.518125 
L 770.6 74.518125 
Q 772.6 74.518125 772.6 72.518125 
L 772.6 58.84 
Q 772.6 56.84 770.6 56.84 
L 711.284375 56.84 
Q 709.284375 56.84 709.284375 58.84 
L 709.284375 72.518125 
Q 709.284375 74.518125 711.284375 74.518125 
z
" style="fill:#ffffff;opacity:0.8;stroke:#cccccc;stroke-linejoin:miter;"/>
    </g>
    <g id="line2d_17">
     <path d="M 713.284375 64.938438 
L 733.284375 64.938438 
" style="fill:none;stroke:#1f77b4;stroke-linecap:square;stroke-width:1.5;"/>
    </g>
    <g id="line2d_18"/>
    <g id="text_18">
     <!-- value -->
     <g transform="translate(741.284375 68.438438)scale(0.1 -0.1)">
      <use xlink:href="#DejaVuSans-118"/>
      <use x="59.179688" xlink:href="#DejaVuSans-97"/>
      <use x="120.458984" xlink:href="#DejaVuSans-108"/>
      <use x="148.242188" xlink:href="#DejaVuSans-117"/>
      <use x="211.621094" xlink:href="#DejaVuSans-101"/>
     </g>
    </g>
   </g>
  </g>
 </g>
 <defs>
  <clipPath id="p681f05ee5a">
   <rect height="332.64" width="669.6" x="108" y="51.84"/>
  </clipPath>
 </defs>
</svg>
