<?xml version="1.0" encoding="utf-8" standalone="no"?>
<!DOCTYPE svg PUBLIC "-//W3C//DTD SVG 1.1//EN"
  "http://www.w3.org/Graphics/SVG/1.1/DTD/svg11.dtd">
<!-- Created with matplotlib (https://matplotlib.org/) -->
<svg height="432pt" version="1.1" viewBox="0 0 864 432" width="864pt" xmlns="http://www.w3.org/2000/svg" xmlns:xlink="http://www.w3.org/1999/xlink">
 <defs>
  <style type="text/css">
*{stroke-linecap:butt;stroke-linejoin:round;}
  </style>
 </defs>
 <g id="figure_1">
  <g id="patch_1">
   <path d="M 0 432 
L 864 432 
L 864 0 
L 0 0 
z
" style="fill:#ffffff;"/>
  </g>
  <g id="axes_1">
   <g id="patch_2">
    <path d="M 108 384.48 
L 777.6 384.48 
L 777.6 51.84 
L 108 51.84 
z
" style="fill:#ffffff;"/>
   </g>
   <g id="patch_3">
    <path clip-path="url(#p6aba65ac46)" d="M 138.436364 384.48 
L 138.436364 51.84 
L 381.202597 51.84 
L 381.202597 384.48 
z
" style="fill:#0000ff;opacity:0.05;"/>
   </g>
   <g id="patch_4">
    <path clip-path="url(#p6aba65ac46)" d="M 381.202597 384.48 
L 381.202597 51.84 
L 747.163636 51.84 
L 747.163636 384.48 
z
" style="fill:#ff0000;opacity:0.08;"/>
   </g>
   <g id="patch_5">
    <path clip-path="url(#p6aba65ac46)" d="M 138.436364 384.48 
L 138.436364 51.84 
L 142.05974 51.84 
L 142.05974 384.48 
z
" style="fill:#008000;opacity:0.04;"/>
   </g>
   <g id="patch_6">
    <path clip-path="url(#p6aba65ac46)" d="M 145.683117 384.48 
L 145.683117 51.84 
L 149.306494 51.84 
L 149.306494 384.48 
z
" style="fill:#008000;opacity:0.04;"/>
   </g>
   <g id="patch_7">
    <path clip-path="url(#p6aba65ac46)" d="M 145.683117 371.1744 
L 145.683117 51.84 
L 149.306494 51.84 
L 149.306494 371.1744 
z
" style="fill:#008000;opacity:0.5;"/>
   </g>
   <g id="patch_8">
    <path clip-path="url(#p6aba65ac46)" d="M 145.683117 384.48 
L 145.683117 371.1744 
L 149.306494 371.1744 
L 149.306494 384.48 
z
" style="fill:#ffe500;"/>
   </g>
   <g id="patch_9">
    <path clip-path="url(#p6aba65ac46)" d="M 152.92987 384.48 
L 152.92987 51.84 
L 156.553247 51.84 
L 156.553247 384.48 
z
" style="fill:#008000;opacity:0.04;"/>
   </g>
   <g id="patch_10">
    <path clip-path="url(#p6aba65ac46)" d="M 152.92987 371.1744 
L 152.92987 51.84 
L 156.553247 51.84 
L 156.553247 371.1744 
z
" style="fill:#008000;opacity:0.5;"/>
   </g>
   <g id="patch_11">
    <path clip-path="url(#p6aba65ac46)" d="M 160.176623 384.48 
L 160.176623 51.84 
L 163.8 51.84 
L 163.8 384.48 
z
" style="fill:#008000;opacity:0.04;"/>
   </g>
   <g id="patch_12">
    <path clip-path="url(#p6aba65ac46)" d="M 402.942857 384.48 
L 402.942857 371.1744 
L 406.566234 371.1744 
L 406.566234 384.48 
z
" style="fill:#ff6600;"/>
   </g>
   <g id="patch_13">
    <path clip-path="url(#p6aba65ac46)" d="M 167.423377 384.48 
L 167.423377 51.84 
L 171.046753 51.84 
L 171.046753 384.48 
z
" style="fill:#008000;opacity:0.04;"/>
   </g>
   <g id="patch_14">
    <path clip-path="url(#p6aba65ac46)" d="M 174.67013 384.48 
L 174.67013 51.84 
L 178.293506 51.84 
L 178.293506 384.48 
z
" style="fill:#008000;opacity:0.04;"/>
   </g>
   <g id="patch_15">
    <path clip-path="url(#p6aba65ac46)" d="M 181.916883 384.48 
L 181.916883 51.84 
L 185.54026 51.84 
L 185.54026 384.48 
z
" style="fill:#008000;opacity:0.04;"/>
   </g>
   <g id="patch_16">
    <path clip-path="url(#p6aba65ac46)" d="M 189.163636 384.48 
L 189.163636 51.84 
L 192.787013 51.84 
L 192.787013 384.48 
z
" style="fill:#008000;opacity:0.04;"/>
   </g>
   <g id="patch_17">
    <path clip-path="url(#p6aba65ac46)" d="M 189.163636 371.1744 
L 189.163636 51.84 
L 192.787013 51.84 
L 192.787013 371.1744 
z
" style="fill:#008000;opacity:0.5;"/>
   </g>
   <g id="patch_18">
    <path clip-path="url(#p6aba65ac46)" d="M 189.163636 384.48 
L 189.163636 371.1744 
L 192.787013 371.1744 
L 192.787013 384.48 
z
" style="fill:#ffe500;"/>
   </g>
   <g id="patch_19">
    <path clip-path="url(#p6aba65ac46)" d="M 196.41039 384.48 
L 196.41039 51.84 
L 200.033766 51.84 
L 200.033766 384.48 
z
" style="fill:#008000;opacity:0.04;"/>
   </g>
   <g id="patch_20">
    <path clip-path="url(#p6aba65ac46)" d="M 203.657143 384.48 
L 203.657143 51.84 
L 207.280519 51.84 
L 207.280519 384.48 
z
" style="fill:#008000;opacity:0.04;"/>
   </g>
   <g id="patch_21">
    <path clip-path="url(#p6aba65ac46)" d="M 210.903896 384.48 
L 210.903896 51.84 
L 214.527273 51.84 
L 214.527273 384.48 
z
" style="fill:#008000;opacity:0.04;"/>
   </g>
   <g id="patch_22">
    <path clip-path="url(#p6aba65ac46)" d="M 218.150649 384.48 
L 218.150649 51.84 
L 221.774026 51.84 
L 221.774026 384.48 
z
" style="fill:#008000;opacity:0.04;"/>
   </g>
   <g id="patch_23">
    <path clip-path="url(#p6aba65ac46)" d="M 225.397403 384.48 
L 225.397403 51.84 
L 229.020779 51.84 
L 229.020779 384.48 
z
" style="fill:#008000;opacity:0.04;"/>
   </g>
   <g id="patch_24">
    <path clip-path="url(#p6aba65ac46)" d="M 232.644156 384.48 
L 232.644156 51.84 
L 236.267532 51.84 
L 236.267532 384.48 
z
" style="fill:#008000;opacity:0.04;"/>
   </g>
   <g id="patch_25">
    <path clip-path="url(#p6aba65ac46)" d="M 239.890909 384.48 
L 239.890909 51.84 
L 243.514286 51.84 
L 243.514286 384.48 
z
" style="fill:#008000;opacity:0.04;"/>
   </g>
   <g id="patch_26">
    <path clip-path="url(#p6aba65ac46)" d="M 247.137662 384.48 
L 247.137662 51.84 
L 250.761039 51.84 
L 250.761039 384.48 
z
" style="fill:#008000;opacity:0.04;"/>
   </g>
   <g id="patch_27">
    <path clip-path="url(#p6aba65ac46)" d="M 254.384416 384.48 
L 254.384416 51.84 
L 258.007792 51.84 
L 258.007792 384.48 
z
" style="fill:#008000;opacity:0.04;"/>
   </g>
   <g id="patch_28">
    <path clip-path="url(#p6aba65ac46)" d="M 500.774026 384.48 
L 500.774026 371.1744 
L 504.397403 371.1744 
L 504.397403 384.48 
z
" style="fill:#ff6600;"/>
   </g>
   <g id="patch_29">
    <path clip-path="url(#p6aba65ac46)" d="M 261.631169 384.48 
L 261.631169 51.84 
L 265.254545 51.84 
L 265.254545 384.48 
z
" style="fill:#008000;opacity:0.04;"/>
   </g>
   <g id="patch_30">
    <path clip-path="url(#p6aba65ac46)" d="M 268.877922 384.48 
L 268.877922 51.84 
L 272.501299 51.84 
L 272.501299 384.48 
z
" style="fill:#008000;opacity:0.04;"/>
   </g>
   <g id="patch_31">
    <path clip-path="url(#p6aba65ac46)" d="M 276.124675 384.48 
L 276.124675 51.84 
L 279.748052 51.84 
L 279.748052 384.48 
z
" style="fill:#008000;opacity:0.04;"/>
   </g>
   <g id="patch_32">
    <path clip-path="url(#p6aba65ac46)" d="M 518.890909 384.48 
L 518.890909 371.1744 
L 522.514286 371.1744 
L 522.514286 384.48 
z
" style="fill:#ff6600;"/>
   </g>
   <g id="patch_33">
    <path clip-path="url(#p6aba65ac46)" d="M 283.371429 384.48 
L 283.371429 51.84 
L 286.994805 51.84 
L 286.994805 384.48 
z
" style="fill:#008000;opacity:0.04;"/>
   </g>
   <g id="patch_34">
    <path clip-path="url(#p6aba65ac46)" d="M 290.618182 384.48 
L 290.618182 51.84 
L 294.241558 51.84 
L 294.241558 384.48 
z
" style="fill:#008000;opacity:0.04;"/>
   </g>
   <g id="patch_35">
    <path clip-path="url(#p6aba65ac46)" d="M 297.864935 384.48 
L 297.864935 51.84 
L 301.488312 51.84 
L 301.488312 384.48 
z
" style="fill:#008000;opacity:0.04;"/>
   </g>
   <g id="patch_36">
    <path clip-path="url(#p6aba65ac46)" d="M 305.111688 384.48 
L 305.111688 51.84 
L 308.735065 51.84 
L 308.735065 384.48 
z
" style="fill:#008000;opacity:0.04;"/>
   </g>
   <g id="patch_37">
    <path clip-path="url(#p6aba65ac46)" d="M 312.358442 384.48 
L 312.358442 51.84 
L 315.981818 51.84 
L 315.981818 384.48 
z
" style="fill:#008000;opacity:0.04;"/>
   </g>
   <g id="patch_38">
    <path clip-path="url(#p6aba65ac46)" d="M 319.605195 384.48 
L 319.605195 51.84 
L 323.228571 51.84 
L 323.228571 384.48 
z
" style="fill:#008000;opacity:0.04;"/>
   </g>
   <g id="patch_39">
    <path clip-path="url(#p6aba65ac46)" d="M 326.851948 384.48 
L 326.851948 51.84 
L 330.475325 51.84 
L 330.475325 384.48 
z
" style="fill:#008000;opacity:0.04;"/>
   </g>
   <g id="patch_40">
    <path clip-path="url(#p6aba65ac46)" d="M 330.475325 371.1744 
L 330.475325 51.84 
L 334.098701 51.84 
L 334.098701 371.1744 
z
" style="fill:#008000;opacity:0.5;"/>
   </g>
   <g id="patch_41">
    <path clip-path="url(#p6aba65ac46)" d="M 330.475325 384.48 
L 330.475325 371.1744 
L 334.098701 371.1744 
L 334.098701 384.48 
z
" style="fill:#ffe500;"/>
   </g>
   <g id="patch_42">
    <path clip-path="url(#p6aba65ac46)" d="M 334.098701 384.48 
L 334.098701 51.84 
L 337.722078 51.84 
L 337.722078 384.48 
z
" style="fill:#008000;opacity:0.04;"/>
   </g>
   <g id="patch_43">
    <path clip-path="url(#p6aba65ac46)" d="M 341.345455 384.48 
L 341.345455 51.84 
L 344.968831 51.84 
L 344.968831 384.48 
z
" style="fill:#008000;opacity:0.04;"/>
   </g>
   <g id="patch_44">
    <path clip-path="url(#p6aba65ac46)" d="M 348.592208 384.48 
L 348.592208 51.84 
L 352.215584 51.84 
L 352.215584 384.48 
z
" style="fill:#008000;opacity:0.04;"/>
   </g>
   <g id="patch_45">
    <path clip-path="url(#p6aba65ac46)" d="M 355.838961 384.48 
L 355.838961 51.84 
L 359.462338 51.84 
L 359.462338 384.48 
z
" style="fill:#008000;opacity:0.04;"/>
   </g>
   <g id="patch_46">
    <path clip-path="url(#p6aba65ac46)" d="M 363.085714 384.48 
L 363.085714 51.84 
L 366.709091 51.84 
L 366.709091 384.48 
z
" style="fill:#008000;opacity:0.04;"/>
   </g>
   <g id="patch_47">
    <path clip-path="url(#p6aba65ac46)" d="M 370.332468 384.48 
L 370.332468 51.84 
L 373.955844 51.84 
L 373.955844 384.48 
z
" style="fill:#008000;opacity:0.04;"/>
   </g>
   <g id="patch_48">
    <path clip-path="url(#p6aba65ac46)" d="M 377.579221 384.48 
L 377.579221 51.84 
L 381.202597 51.84 
L 381.202597 384.48 
z
" style="fill:#008000;opacity:0.04;"/>
   </g>
   <g id="patch_49">
    <path clip-path="url(#p6aba65ac46)" d="M 384.825974 384.48 
L 384.825974 51.84 
L 388.449351 51.84 
L 388.449351 384.48 
z
" style="fill:#008000;opacity:0.04;"/>
   </g>
   <g id="patch_50">
    <path clip-path="url(#p6aba65ac46)" d="M 392.072727 384.48 
L 392.072727 51.84 
L 395.696104 51.84 
L 395.696104 384.48 
z
" style="fill:#008000;opacity:0.04;"/>
   </g>
   <g id="patch_51">
    <path clip-path="url(#p6aba65ac46)" d="M 399.319481 384.48 
L 399.319481 51.84 
L 402.942857 51.84 
L 402.942857 384.48 
z
" style="fill:#008000;opacity:0.04;"/>
   </g>
   <g id="patch_52">
    <path clip-path="url(#p6aba65ac46)" d="M 402.942857 371.1744 
L 402.942857 51.84 
L 406.566234 51.84 
L 406.566234 371.1744 
z
" style="fill:#008000;opacity:0.5;"/>
   </g>
   <g id="patch_53">
    <path clip-path="url(#p6aba65ac46)" d="M 406.566234 384.48 
L 406.566234 51.84 
L 410.18961 51.84 
L 410.18961 384.48 
z
" style="fill:#008000;opacity:0.04;"/>
   </g>
   <g id="patch_54">
    <path clip-path="url(#p6aba65ac46)" d="M 413.812987 384.48 
L 413.812987 51.84 
L 417.436364 51.84 
L 417.436364 384.48 
z
" style="fill:#008000;opacity:0.04;"/>
   </g>
   <g id="patch_55">
    <path clip-path="url(#p6aba65ac46)" d="M 421.05974 384.48 
L 421.05974 51.84 
L 424.683117 51.84 
L 424.683117 384.48 
z
" style="fill:#008000;opacity:0.04;"/>
   </g>
   <g id="patch_56">
    <path clip-path="url(#p6aba65ac46)" d="M 428.306494 384.48 
L 428.306494 51.84 
L 431.92987 51.84 
L 431.92987 384.48 
z
" style="fill:#008000;opacity:0.04;"/>
   </g>
   <g id="patch_57">
    <path clip-path="url(#p6aba65ac46)" d="M 435.553247 384.48 
L 435.553247 51.84 
L 439.176623 51.84 
L 439.176623 384.48 
z
" style="fill:#008000;opacity:0.04;"/>
   </g>
   <g id="patch_58">
    <path clip-path="url(#p6aba65ac46)" d="M 442.8 384.48 
L 442.8 51.84 
L 446.423377 51.84 
L 446.423377 384.48 
z
" style="fill:#008000;opacity:0.04;"/>
   </g>
   <g id="patch_59">
    <path clip-path="url(#p6aba65ac46)" d="M 450.046753 384.48 
L 450.046753 51.84 
L 453.67013 51.84 
L 453.67013 384.48 
z
" style="fill:#008000;opacity:0.04;"/>
   </g>
   <g id="patch_60">
    <path clip-path="url(#p6aba65ac46)" d="M 457.293506 384.48 
L 457.293506 51.84 
L 460.916883 51.84 
L 460.916883 384.48 
z
" style="fill:#008000;opacity:0.04;"/>
   </g>
   <g id="patch_61">
    <path clip-path="url(#p6aba65ac46)" d="M 464.54026 384.48 
L 464.54026 51.84 
L 468.163636 51.84 
L 468.163636 384.48 
z
" style="fill:#008000;opacity:0.04;"/>
   </g>
   <g id="patch_62">
    <path clip-path="url(#p6aba65ac46)" d="M 471.787013 384.48 
L 471.787013 51.84 
L 475.41039 51.84 
L 475.41039 384.48 
z
" style="fill:#008000;opacity:0.04;"/>
   </g>
   <g id="patch_63">
    <path clip-path="url(#p6aba65ac46)" d="M 479.033766 384.48 
L 479.033766 51.84 
L 482.657143 51.84 
L 482.657143 384.48 
z
" style="fill:#008000;opacity:0.04;"/>
   </g>
   <g id="patch_64">
    <path clip-path="url(#p6aba65ac46)" d="M 486.280519 384.48 
L 486.280519 51.84 
L 489.903896 51.84 
L 489.903896 384.48 
z
" style="fill:#008000;opacity:0.04;"/>
   </g>
   <g id="patch_65">
    <path clip-path="url(#p6aba65ac46)" d="M 493.527273 384.48 
L 493.527273 51.84 
L 497.150649 51.84 
L 497.150649 384.48 
z
" style="fill:#008000;opacity:0.04;"/>
   </g>
   <g id="patch_66">
    <path clip-path="url(#p6aba65ac46)" d="M 500.774026 384.48 
L 500.774026 51.84 
L 504.397403 51.84 
L 504.397403 384.48 
z
" style="fill:#008000;opacity:0.04;"/>
   </g>
   <g id="patch_67">
    <path clip-path="url(#p6aba65ac46)" d="M 500.774026 371.1744 
L 500.774026 51.84 
L 504.397403 51.84 
L 504.397403 371.1744 
z
" style="fill:#008000;opacity:0.5;"/>
   </g>
   <g id="patch_68">
    <path clip-path="url(#p6aba65ac46)" d="M 508.020779 384.48 
L 508.020779 51.84 
L 511.644156 51.84 
L 511.644156 384.48 
z
" style="fill:#008000;opacity:0.04;"/>
   </g>
   <g id="patch_69">
    <path clip-path="url(#p6aba65ac46)" d="M 515.267532 384.48 
L 515.267532 51.84 
L 518.890909 51.84 
L 518.890909 384.48 
z
" style="fill:#008000;opacity:0.04;"/>
   </g>
   <g id="patch_70">
    <path clip-path="url(#p6aba65ac46)" d="M 518.890909 371.1744 
L 518.890909 51.84 
L 522.514286 51.84 
L 522.514286 371.1744 
z
" style="fill:#008000;opacity:0.5;"/>
   </g>
   <g id="patch_71">
    <path clip-path="url(#p6aba65ac46)" d="M 522.514286 384.48 
L 522.514286 51.84 
L 526.137662 51.84 
L 526.137662 384.48 
z
" style="fill:#008000;opacity:0.04;"/>
   </g>
   <g id="patch_72">
    <path clip-path="url(#p6aba65ac46)" d="M 529.761039 384.48 
L 529.761039 51.84 
L 533.384416 51.84 
L 533.384416 384.48 
z
" style="fill:#008000;opacity:0.04;"/>
   </g>
   <g id="patch_73">
    <path clip-path="url(#p6aba65ac46)" d="M 537.007792 384.48 
L 537.007792 51.84 
L 540.631169 51.84 
L 540.631169 384.48 
z
" style="fill:#008000;opacity:0.04;"/>
   </g>
   <g id="patch_74">
    <path clip-path="url(#p6aba65ac46)" d="M 544.254545 384.48 
L 544.254545 51.84 
L 547.877922 51.84 
L 547.877922 384.48 
z
" style="fill:#008000;opacity:0.04;"/>
   </g>
   <g id="patch_75">
    <path clip-path="url(#p6aba65ac46)" d="M 547.877922 371.1744 
L 547.877922 51.84 
L 551.501299 51.84 
L 551.501299 371.1744 
z
" style="fill:#008000;opacity:0.5;"/>
   </g>
   <g id="patch_76">
    <path clip-path="url(#p6aba65ac46)" d="M 551.501299 384.48 
L 551.501299 51.84 
L 555.124675 51.84 
L 555.124675 384.48 
z
" style="fill:#008000;opacity:0.04;"/>
   </g>
   <g id="patch_77">
    <path clip-path="url(#p6aba65ac46)" d="M 555.124675 371.1744 
L 555.124675 51.84 
L 558.748052 51.84 
L 558.748052 371.1744 
z
" style="fill:#008000;opacity:0.5;"/>
   </g>
   <g id="patch_78">
    <path clip-path="url(#p6aba65ac46)" d="M 558.748052 384.48 
L 558.748052 51.84 
L 562.371429 51.84 
L 562.371429 384.48 
z
" style="fill:#008000;opacity:0.04;"/>
   </g>
   <g id="patch_79">
    <path clip-path="url(#p6aba65ac46)" d="M 565.994805 384.48 
L 565.994805 51.84 
L 569.618182 51.84 
L 569.618182 384.48 
z
" style="fill:#008000;opacity:0.04;"/>
   </g>
   <g id="patch_80">
    <path clip-path="url(#p6aba65ac46)" d="M 573.241558 384.48 
L 573.241558 51.84 
L 576.864935 51.84 
L 576.864935 384.48 
z
" style="fill:#008000;opacity:0.04;"/>
   </g>
   <g id="patch_81">
    <path clip-path="url(#p6aba65ac46)" d="M 580.488312 384.48 
L 580.488312 51.84 
L 584.111688 51.84 
L 584.111688 384.48 
z
" style="fill:#008000;opacity:0.04;"/>
   </g>
   <g id="patch_82">
    <path clip-path="url(#p6aba65ac46)" d="M 580.488312 371.1744 
L 580.488312 51.84 
L 584.111688 51.84 
L 584.111688 371.1744 
z
" style="fill:#008000;opacity:0.5;"/>
   </g>
   <g id="patch_83">
    <path clip-path="url(#p6aba65ac46)" d="M 587.735065 384.48 
L 587.735065 51.84 
L 591.358442 51.84 
L 591.358442 384.48 
z
" style="fill:#008000;opacity:0.04;"/>
   </g>
   <g id="patch_84">
    <path clip-path="url(#p6aba65ac46)" d="M 587.735065 371.1744 
L 587.735065 51.84 
L 591.358442 51.84 
L 591.358442 371.1744 
z
" style="fill:#008000;opacity:0.5;"/>
   </g>
   <g id="patch_85">
    <path clip-path="url(#p6aba65ac46)" d="M 594.981818 384.48 
L 594.981818 51.84 
L 598.605195 51.84 
L 598.605195 384.48 
z
" style="fill:#008000;opacity:0.04;"/>
   </g>
   <g id="patch_86">
    <path clip-path="url(#p6aba65ac46)" d="M 602.228571 384.48 
L 602.228571 51.84 
L 605.851948 51.84 
L 605.851948 384.48 
z
" style="fill:#008000;opacity:0.04;"/>
   </g>
   <g id="patch_87">
    <path clip-path="url(#p6aba65ac46)" d="M 602.228571 371.1744 
L 602.228571 51.84 
L 605.851948 51.84 
L 605.851948 371.1744 
z
" style="fill:#008000;opacity:0.5;"/>
   </g>
   <g id="patch_88">
    <path clip-path="url(#p6aba65ac46)" d="M 609.475325 384.48 
L 609.475325 51.84 
L 613.098701 51.84 
L 613.098701 384.48 
z
" style="fill:#008000;opacity:0.04;"/>
   </g>
   <g id="patch_89">
    <path clip-path="url(#p6aba65ac46)" d="M 616.722078 384.48 
L 616.722078 51.84 
L 620.345455 51.84 
L 620.345455 384.48 
z
" style="fill:#008000;opacity:0.04;"/>
   </g>
   <g id="patch_90">
    <path clip-path="url(#p6aba65ac46)" d="M 623.968831 384.48 
L 623.968831 51.84 
L 627.592208 51.84 
L 627.592208 384.48 
z
" style="fill:#008000;opacity:0.04;"/>
   </g>
   <g id="patch_91">
    <path clip-path="url(#p6aba65ac46)" d="M 631.215584 384.48 
L 631.215584 51.84 
L 634.838961 51.84 
L 634.838961 384.48 
z
" style="fill:#008000;opacity:0.04;"/>
   </g>
   <g id="patch_92">
    <path clip-path="url(#p6aba65ac46)" d="M 638.462338 384.48 
L 638.462338 51.84 
L 642.085714 51.84 
L 642.085714 384.48 
z
" style="fill:#008000;opacity:0.04;"/>
   </g>
   <g id="patch_93">
    <path clip-path="url(#p6aba65ac46)" d="M 645.709091 384.48 
L 645.709091 51.84 
L 649.332468 51.84 
L 649.332468 384.48 
z
" style="fill:#008000;opacity:0.04;"/>
   </g>
   <g id="patch_94">
    <path clip-path="url(#p6aba65ac46)" d="M 652.955844 384.48 
L 652.955844 51.84 
L 656.579221 51.84 
L 656.579221 384.48 
z
" style="fill:#008000;opacity:0.04;"/>
   </g>
   <g id="patch_95">
    <path clip-path="url(#p6aba65ac46)" d="M 656.579221 371.1744 
L 656.579221 51.84 
L 660.202597 51.84 
L 660.202597 371.1744 
z
" style="fill:#008000;opacity:0.5;"/>
   </g>
   <g id="patch_96">
    <path clip-path="url(#p6aba65ac46)" d="M 660.202597 384.48 
L 660.202597 51.84 
L 663.825974 51.84 
L 663.825974 384.48 
z
" style="fill:#008000;opacity:0.04;"/>
   </g>
   <g id="patch_97">
    <path clip-path="url(#p6aba65ac46)" d="M 667.449351 384.48 
L 667.449351 51.84 
L 671.072727 51.84 
L 671.072727 384.48 
z
" style="fill:#008000;opacity:0.04;"/>
   </g>
   <g id="patch_98">
    <path clip-path="url(#p6aba65ac46)" d="M 674.696104 384.48 
L 674.696104 51.84 
L 678.319481 51.84 
L 678.319481 384.48 
z
" style="fill:#008000;opacity:0.04;"/>
   </g>
   <g id="patch_99">
    <path clip-path="url(#p6aba65ac46)" d="M 678.319481 371.1744 
L 678.319481 51.84 
L 681.942857 51.84 
L 681.942857 371.1744 
z
" style="fill:#008000;opacity:0.5;"/>
   </g>
   <g id="patch_100">
    <path clip-path="url(#p6aba65ac46)" d="M 681.942857 384.48 
L 681.942857 51.84 
L 685.566234 51.84 
L 685.566234 384.48 
z
" style="fill:#008000;opacity:0.04;"/>
   </g>
   <g id="patch_101">
    <path clip-path="url(#p6aba65ac46)" d="M 689.18961 384.48 
L 689.18961 51.84 
L 692.812987 51.84 
L 692.812987 384.48 
z
" style="fill:#008000;opacity:0.04;"/>
   </g>
   <g id="patch_102">
    <path clip-path="url(#p6aba65ac46)" d="M 692.812987 371.1744 
L 692.812987 51.84 
L 696.436364 51.84 
L 696.436364 371.1744 
z
" style="fill:#008000;opacity:0.5;"/>
   </g>
   <g id="patch_103">
    <path clip-path="url(#p6aba65ac46)" d="M 696.436364 384.48 
L 696.436364 51.84 
L 700.05974 51.84 
L 700.05974 384.48 
z
" style="fill:#008000;opacity:0.04;"/>
   </g>
   <g id="patch_104">
    <path clip-path="url(#p6aba65ac46)" d="M 703.683117 384.48 
L 703.683117 51.84 
L 707.306494 51.84 
L 707.306494 384.48 
z
" style="fill:#008000;opacity:0.04;"/>
   </g>
   <g id="patch_105">
    <path clip-path="url(#p6aba65ac46)" d="M 710.92987 384.48 
L 710.92987 51.84 
L 714.553247 51.84 
L 714.553247 384.48 
z
" style="fill:#008000;opacity:0.04;"/>
   </g>
   <g id="patch_106">
    <path clip-path="url(#p6aba65ac46)" d="M 718.176623 384.48 
L 718.176623 51.84 
L 721.8 51.84 
L 721.8 384.48 
z
" style="fill:#008000;opacity:0.04;"/>
   </g>
   <g id="patch_107">
    <path clip-path="url(#p6aba65ac46)" d="M 725.423377 384.48 
L 725.423377 51.84 
L 729.046753 51.84 
L 729.046753 384.48 
z
" style="fill:#008000;opacity:0.04;"/>
   </g>
   <g id="patch_108">
    <path clip-path="url(#p6aba65ac46)" d="M 732.67013 384.48 
L 732.67013 51.84 
L 736.293506 51.84 
L 736.293506 384.48 
z
" style="fill:#008000;opacity:0.04;"/>
   </g>
   <g id="patch_109">
    <path clip-path="url(#p6aba65ac46)" d="M 739.916883 384.48 
L 739.916883 51.84 
L 743.54026 51.84 
L 743.54026 384.48 
z
" style="fill:#008000;opacity:0.04;"/>
   </g>
   <g id="matplotlib.axis_1">
    <g id="xtick_1">
     <g id="line2d_1">
      <defs>
       <path d="M 0 0 
L 0 3.5 
" id="mdb1b50378e" style="stroke:#000000;stroke-width:0.8;"/>
      </defs>
      <g>
       <use style="stroke:#000000;stroke-width:0.8;" x="138.436364" xlink:href="#mdb1b50378e" y="384.48"/>
      </g>
     </g>
     <g id="text_1">
      <!-- 0 -->
      <defs>
       <path d="M 31.78125 66.40625 
Q 24.171875 66.40625 20.328125 58.90625 
Q 16.5 51.421875 16.5 36.375 
Q 16.5 21.390625 20.328125 13.890625 
Q 24.171875 6.390625 31.78125 6.390625 
Q 39.453125 6.390625 43.28125 13.890625 
Q 47.125 21.390625 47.125 36.375 
Q 47.125 51.421875 43.28125 58.90625 
Q 39.453125 66.40625 31.78125 66.40625 
z
M 31.78125 74.21875 
Q 44.046875 74.21875 50.515625 64.515625 
Q 56.984375 54.828125 56.984375 36.375 
Q 56.984375 17.96875 50.515625 8.265625 
Q 44.046875 -1.421875 31.78125 -1.421875 
Q 19.53125 -1.421875 13.0625 8.265625 
Q 6.59375 17.96875 6.59375 36.375 
Q 6.59375 54.828125 13.0625 64.515625 
Q 19.53125 74.21875 31.78125 74.21875 
z
" id="DejaVuSans-48"/>
      </defs>
      <g transform="translate(135.255114 399.078438)scale(0.1 -0.1)">
       <use xlink:href="#DejaVuSans-48"/>
      </g>
     </g>
    </g>
    <g id="xtick_2">
     <g id="line2d_2">
      <g>
       <use style="stroke:#000000;stroke-width:0.8;" x="229.020779" xlink:href="#mdb1b50378e" y="384.48"/>
      </g>
     </g>
     <g id="text_2">
      <!-- 250 -->
      <defs>
       <path d="M 19.1875 8.296875 
L 53.609375 8.296875 
L 53.609375 0 
L 7.328125 0 
L 7.328125 8.296875 
Q 12.9375 14.109375 22.625 23.890625 
Q 32.328125 33.6875 34.8125 36.53125 
Q 39.546875 41.84375 41.421875 45.53125 
Q 43.3125 49.21875 43.3125 52.78125 
Q 43.3125 58.59375 39.234375 62.25 
Q 35.15625 65.921875 28.609375 65.921875 
Q 23.96875 65.921875 18.8125 64.3125 
Q 13.671875 62.703125 7.8125 59.421875 
L 7.8125 69.390625 
Q 13.765625 71.78125 18.9375 73 
Q 24.125 74.21875 28.421875 74.21875 
Q 39.75 74.21875 46.484375 68.546875 
Q 53.21875 62.890625 53.21875 53.421875 
Q 53.21875 48.921875 51.53125 44.890625 
Q 49.859375 40.875 45.40625 35.40625 
Q 44.1875 33.984375 37.640625 27.21875 
Q 31.109375 20.453125 19.1875 8.296875 
z
" id="DejaVuSans-50"/>
       <path d="M 10.796875 72.90625 
L 49.515625 72.90625 
L 49.515625 64.59375 
L 19.828125 64.59375 
L 19.828125 46.734375 
Q 21.96875 47.46875 24.109375 47.828125 
Q 26.265625 48.1875 28.421875 48.1875 
Q 40.625 48.1875 47.75 41.5 
Q 54.890625 34.8125 54.890625 23.390625 
Q 54.890625 11.625 47.5625 5.09375 
Q 40.234375 -1.421875 26.90625 -1.421875 
Q 22.3125 -1.421875 17.546875 -0.640625 
Q 12.796875 0.140625 7.71875 1.703125 
L 7.71875 11.625 
Q 12.109375 9.234375 16.796875 8.0625 
Q 21.484375 6.890625 26.703125 6.890625 
Q 35.15625 6.890625 40.078125 11.328125 
Q 45.015625 15.765625 45.015625 23.390625 
Q 45.015625 31 40.078125 35.4375 
Q 35.15625 39.890625 26.703125 39.890625 
Q 22.75 39.890625 18.8125 39.015625 
Q 14.890625 38.140625 10.796875 36.28125 
z
" id="DejaVuSans-53"/>
      </defs>
      <g transform="translate(219.477029 399.078438)scale(0.1 -0.1)">
       <use xlink:href="#DejaVuSans-50"/>
       <use x="63.623047" xlink:href="#DejaVuSans-53"/>
       <use x="127.246094" xlink:href="#DejaVuSans-48"/>
      </g>
     </g>
    </g>
    <g id="xtick_3">
     <g id="line2d_3">
      <g>
       <use style="stroke:#000000;stroke-width:0.8;" x="319.605195" xlink:href="#mdb1b50378e" y="384.48"/>
      </g>
     </g>
     <g id="text_3">
      <!-- 500 -->
      <g transform="translate(310.061445 399.078438)scale(0.1 -0.1)">
       <use xlink:href="#DejaVuSans-53"/>
       <use x="63.623047" xlink:href="#DejaVuSans-48"/>
       <use x="127.246094" xlink:href="#DejaVuSans-48"/>
      </g>
     </g>
    </g>
    <g id="xtick_4">
     <g id="line2d_4">
      <g>
       <use style="stroke:#000000;stroke-width:0.8;" x="410.18961" xlink:href="#mdb1b50378e" y="384.48"/>
      </g>
     </g>
     <g id="text_4">
      <!-- 750 -->
      <defs>
       <path d="M 8.203125 72.90625 
L 55.078125 72.90625 
L 55.078125 68.703125 
L 28.609375 0 
L 18.3125 0 
L 43.21875 64.59375 
L 8.203125 64.59375 
z
" id="DejaVuSans-55"/>
      </defs>
      <g transform="translate(400.64586 399.078438)scale(0.1 -0.1)">
       <use xlink:href="#DejaVuSans-55"/>
       <use x="63.623047" xlink:href="#DejaVuSans-53"/>
       <use x="127.246094" xlink:href="#DejaVuSans-48"/>
      </g>
     </g>
    </g>
    <g id="xtick_5">
     <g id="line2d_5">
      <g>
       <use style="stroke:#000000;stroke-width:0.8;" x="500.774026" xlink:href="#mdb1b50378e" y="384.48"/>
      </g>
     </g>
     <g id="text_5">
      <!-- 1000 -->
      <defs>
       <path d="M 12.40625 8.296875 
L 28.515625 8.296875 
L 28.515625 63.921875 
L 10.984375 60.40625 
L 10.984375 69.390625 
L 28.421875 72.90625 
L 38.28125 72.90625 
L 38.28125 8.296875 
L 54.390625 8.296875 
L 54.390625 0 
L 12.40625 0 
z
" id="DejaVuSans-49"/>
      </defs>
      <g transform="translate(488.049026 399.078438)scale(0.1 -0.1)">
       <use xlink:href="#DejaVuSans-49"/>
       <use x="63.623047" xlink:href="#DejaVuSans-48"/>
       <use x="127.246094" xlink:href="#DejaVuSans-48"/>
       <use x="190.869141" xlink:href="#DejaVuSans-48"/>
      </g>
     </g>
    </g>
    <g id="xtick_6">
     <g id="line2d_6">
      <g>
       <use style="stroke:#000000;stroke-width:0.8;" x="591.358442" xlink:href="#mdb1b50378e" y="384.48"/>
      </g>
     </g>
     <g id="text_6">
      <!-- 1250 -->
      <g transform="translate(578.633442 399.078438)scale(0.1 -0.1)">
       <use xlink:href="#DejaVuSans-49"/>
       <use x="63.623047" xlink:href="#DejaVuSans-50"/>
       <use x="127.246094" xlink:href="#DejaVuSans-53"/>
       <use x="190.869141" xlink:href="#DejaVuSans-48"/>
      </g>
     </g>
    </g>
    <g id="xtick_7">
     <g id="line2d_7">
      <g>
       <use style="stroke:#000000;stroke-width:0.8;" x="681.942857" xlink:href="#mdb1b50378e" y="384.48"/>
      </g>
     </g>
     <g id="text_7">
      <!-- 1500 -->
      <g transform="translate(669.217857 399.078438)scale(0.1 -0.1)">
       <use xlink:href="#DejaVuSans-49"/>
       <use x="63.623047" xlink:href="#DejaVuSans-53"/>
       <use x="127.246094" xlink:href="#DejaVuSans-48"/>
       <use x="190.869141" xlink:href="#DejaVuSans-48"/>
      </g>
     </g>
    </g>
    <g id="xtick_8">
     <g id="line2d_8">
      <g>
       <use style="stroke:#000000;stroke-width:0.8;" x="772.527273" xlink:href="#mdb1b50378e" y="384.48"/>
      </g>
     </g>
     <g id="text_8">
      <!-- 1750 -->
      <g transform="translate(759.802273 399.078438)scale(0.1 -0.1)">
       <use xlink:href="#DejaVuSans-49"/>
       <use x="63.623047" xlink:href="#DejaVuSans-55"/>
       <use x="127.246094" xlink:href="#DejaVuSans-53"/>
       <use x="190.869141" xlink:href="#DejaVuSans-48"/>
      </g>
     </g>
    </g>
    <g id="text_9">
     <!-- Timestamp -->
     <defs>
      <path d="M -0.296875 72.90625 
L 61.375 72.90625 
L 61.375 64.59375 
L 35.5 64.59375 
L 35.5 0 
L 25.59375 0 
L 25.59375 64.59375 
L -0.296875 64.59375 
z
" id="DejaVuSans-84"/>
      <path d="M 9.421875 54.6875 
L 18.40625 54.6875 
L 18.40625 0 
L 9.421875 0 
z
M 9.421875 75.984375 
L 18.40625 75.984375 
L 18.40625 64.59375 
L 9.421875 64.59375 
z
" id="DejaVuSans-105"/>
      <path d="M 52 44.1875 
Q 55.375 50.25 60.0625 53.125 
Q 64.75 56 71.09375 56 
Q 79.640625 56 84.28125 50.015625 
Q 88.921875 44.046875 88.921875 33.015625 
L 88.921875 0 
L 79.890625 0 
L 79.890625 32.71875 
Q 79.890625 40.578125 77.09375 44.375 
Q 74.3125 48.1875 68.609375 48.1875 
Q 61.625 48.1875 57.5625 43.546875 
Q 53.515625 38.921875 53.515625 30.90625 
L 53.515625 0 
L 44.484375 0 
L 44.484375 32.71875 
Q 44.484375 40.625 41.703125 44.40625 
Q 38.921875 48.1875 33.109375 48.1875 
Q 26.21875 48.1875 22.15625 43.53125 
Q 18.109375 38.875 18.109375 30.90625 
L 18.109375 0 
L 9.078125 0 
L 9.078125 54.6875 
L 18.109375 54.6875 
L 18.109375 46.1875 
Q 21.1875 51.21875 25.484375 53.609375 
Q 29.78125 56 35.6875 56 
Q 41.65625 56 45.828125 52.96875 
Q 50 49.953125 52 44.1875 
z
" id="DejaVuSans-109"/>
      <path d="M 56.203125 29.59375 
L 56.203125 25.203125 
L 14.890625 25.203125 
Q 15.484375 15.921875 20.484375 11.0625 
Q 25.484375 6.203125 34.421875 6.203125 
Q 39.59375 6.203125 44.453125 7.46875 
Q 49.3125 8.734375 54.109375 11.28125 
L 54.109375 2.78125 
Q 49.265625 0.734375 44.1875 -0.34375 
Q 39.109375 -1.421875 33.890625 -1.421875 
Q 20.796875 -1.421875 13.15625 6.1875 
Q 5.515625 13.8125 5.515625 26.8125 
Q 5.515625 40.234375 12.765625 48.109375 
Q 20.015625 56 32.328125 56 
Q 43.359375 56 49.78125 48.890625 
Q 56.203125 41.796875 56.203125 29.59375 
z
M 47.21875 32.234375 
Q 47.125 39.59375 43.09375 43.984375 
Q 39.0625 48.390625 32.421875 48.390625 
Q 24.90625 48.390625 20.390625 44.140625 
Q 15.875 39.890625 15.1875 32.171875 
z
" id="DejaVuSans-101"/>
      <path d="M 44.28125 53.078125 
L 44.28125 44.578125 
Q 40.484375 46.53125 36.375 47.5 
Q 32.28125 48.484375 27.875 48.484375 
Q 21.1875 48.484375 17.84375 46.4375 
Q 14.5 44.390625 14.5 40.28125 
Q 14.5 37.15625 16.890625 35.375 
Q 19.28125 33.59375 26.515625 31.984375 
L 29.59375 31.296875 
Q 39.15625 29.25 43.1875 25.515625 
Q 47.21875 21.78125 47.21875 15.09375 
Q 47.21875 7.46875 41.1875 3.015625 
Q 35.15625 -1.421875 24.609375 -1.421875 
Q 20.21875 -1.421875 15.453125 -0.5625 
Q 10.6875 0.296875 5.421875 2 
L 5.421875 11.28125 
Q 10.40625 8.6875 15.234375 7.390625 
Q 20.0625 6.109375 24.8125 6.109375 
Q 31.15625 6.109375 34.5625 8.28125 
Q 37.984375 10.453125 37.984375 14.40625 
Q 37.984375 18.0625 35.515625 20.015625 
Q 33.0625 21.96875 24.703125 23.78125 
L 21.578125 24.515625 
Q 13.234375 26.265625 9.515625 29.90625 
Q 5.8125 33.546875 5.8125 39.890625 
Q 5.8125 47.609375 11.28125 51.796875 
Q 16.75 56 26.8125 56 
Q 31.78125 56 36.171875 55.265625 
Q 40.578125 54.546875 44.28125 53.078125 
z
" id="DejaVuSans-115"/>
      <path d="M 18.3125 70.21875 
L 18.3125 54.6875 
L 36.8125 54.6875 
L 36.8125 47.703125 
L 18.3125 47.703125 
L 18.3125 18.015625 
Q 18.3125 11.328125 20.140625 9.421875 
Q 21.96875 7.515625 27.59375 7.515625 
L 36.8125 7.515625 
L 36.8125 0 
L 27.59375 0 
Q 17.1875 0 13.234375 3.875 
Q 9.28125 7.765625 9.28125 18.015625 
L 9.28125 47.703125 
L 2.6875 47.703125 
L 2.6875 54.6875 
L 9.28125 54.6875 
L 9.28125 70.21875 
z
" id="DejaVuSans-116"/>
      <path d="M 34.28125 27.484375 
Q 23.390625 27.484375 19.1875 25 
Q 14.984375 22.515625 14.984375 16.5 
Q 14.984375 11.71875 18.140625 8.90625 
Q 21.296875 6.109375 26.703125 6.109375 
Q 34.1875 6.109375 38.703125 11.40625 
Q 43.21875 16.703125 43.21875 25.484375 
L 43.21875 27.484375 
z
M 52.203125 31.203125 
L 52.203125 0 
L 43.21875 0 
L 43.21875 8.296875 
Q 40.140625 3.328125 35.546875 0.953125 
Q 30.953125 -1.421875 24.3125 -1.421875 
Q 15.921875 -1.421875 10.953125 3.296875 
Q 6 8.015625 6 15.921875 
Q 6 25.140625 12.171875 29.828125 
Q 18.359375 34.515625 30.609375 34.515625 
L 43.21875 34.515625 
L 43.21875 35.40625 
Q 43.21875 41.609375 39.140625 45 
Q 35.0625 48.390625 27.6875 48.390625 
Q 23 48.390625 18.546875 47.265625 
Q 14.109375 46.140625 10.015625 43.890625 
L 10.015625 52.203125 
Q 14.9375 54.109375 19.578125 55.046875 
Q 24.21875 56 28.609375 56 
Q 40.484375 56 46.34375 49.84375 
Q 52.203125 43.703125 52.203125 31.203125 
z
" id="DejaVuSans-97"/>
      <path d="M 18.109375 8.203125 
L 18.109375 -20.796875 
L 9.078125 -20.796875 
L 9.078125 54.6875 
L 18.109375 54.6875 
L 18.109375 46.390625 
Q 20.953125 51.265625 25.265625 53.625 
Q 29.59375 56 35.59375 56 
Q 45.5625 56 51.78125 48.09375 
Q 58.015625 40.1875 58.015625 27.296875 
Q 58.015625 14.40625 51.78125 6.484375 
Q 45.5625 -1.421875 35.59375 -1.421875 
Q 29.59375 -1.421875 25.265625 0.953125 
Q 20.953125 3.328125 18.109375 8.203125 
z
M 48.6875 27.296875 
Q 48.6875 37.203125 44.609375 42.84375 
Q 40.53125 48.484375 33.40625 48.484375 
Q 26.265625 48.484375 22.1875 42.84375 
Q 18.109375 37.203125 18.109375 27.296875 
Q 18.109375 17.390625 22.1875 11.75 
Q 26.265625 6.109375 33.40625 6.109375 
Q 40.53125 6.109375 44.609375 11.75 
Q 48.6875 17.390625 48.6875 27.296875 
z
" id="DejaVuSans-112"/>
     </defs>
     <g transform="translate(414.739062 412.756563)scale(0.1 -0.1)">
      <use xlink:href="#DejaVuSans-84"/>
      <use x="61.037109" xlink:href="#DejaVuSans-105"/>
      <use x="88.820312" xlink:href="#DejaVuSans-109"/>
      <use x="186.232422" xlink:href="#DejaVuSans-101"/>
      <use x="247.755859" xlink:href="#DejaVuSans-115"/>
      <use x="299.855469" xlink:href="#DejaVuSans-116"/>
      <use x="339.064453" xlink:href="#DejaVuSans-97"/>
      <use x="400.34375" xlink:href="#DejaVuSans-109"/>
      <use x="497.755859" xlink:href="#DejaVuSans-112"/>
     </g>
    </g>
   </g>
   <g id="matplotlib.axis_2">
    <g id="ytick_1">
     <g id="line2d_9">
      <defs>
       <path d="M 0 0 
L -3.5 0 
" id="m3d810af5f0" style="stroke:#000000;stroke-width:0.8;"/>
      </defs>
      <g>
       <use style="stroke:#000000;stroke-width:0.8;" x="108" xlink:href="#m3d810af5f0" y="362.706843"/>
      </g>
     </g>
     <g id="text_10">
      <!-- −1000 -->
      <defs>
       <path d="M 10.59375 35.5 
L 73.1875 35.5 
L 73.1875 27.203125 
L 10.59375 27.203125 
z
" id="DejaVuSans-8722"/>
      </defs>
      <g transform="translate(67.170312 366.506062)scale(0.1 -0.1)">
       <use xlink:href="#DejaVuSans-8722"/>
       <use x="83.789062" xlink:href="#DejaVuSans-49"/>
       <use x="147.412109" xlink:href="#DejaVuSans-48"/>
       <use x="211.035156" xlink:href="#DejaVuSans-48"/>
       <use x="274.658203" xlink:href="#DejaVuSans-48"/>
      </g>
     </g>
    </g>
    <g id="ytick_2">
     <g id="line2d_10">
      <g>
       <use style="stroke:#000000;stroke-width:0.8;" x="108" xlink:href="#m3d810af5f0" y="317.51078"/>
      </g>
     </g>
     <g id="text_11">
      <!-- −500 -->
      <g transform="translate(73.532813 321.309999)scale(0.1 -0.1)">
       <use xlink:href="#DejaVuSans-8722"/>
       <use x="83.789062" xlink:href="#DejaVuSans-53"/>
       <use x="147.412109" xlink:href="#DejaVuSans-48"/>
       <use x="211.035156" xlink:href="#DejaVuSans-48"/>
      </g>
     </g>
    </g>
    <g id="ytick_3">
     <g id="line2d_11">
      <g>
       <use style="stroke:#000000;stroke-width:0.8;" x="108" xlink:href="#m3d810af5f0" y="272.314717"/>
      </g>
     </g>
     <g id="text_12">
      <!-- 0 -->
      <g transform="translate(94.6375 276.113936)scale(0.1 -0.1)">
       <use xlink:href="#DejaVuSans-48"/>
      </g>
     </g>
    </g>
    <g id="ytick_4">
     <g id="line2d_12">
      <g>
       <use style="stroke:#000000;stroke-width:0.8;" x="108" xlink:href="#m3d810af5f0" y="227.118655"/>
      </g>
     </g>
     <g id="text_13">
      <!-- 500 -->
      <g transform="translate(81.9125 230.917874)scale(0.1 -0.1)">
       <use xlink:href="#DejaVuSans-53"/>
       <use x="63.623047" xlink:href="#DejaVuSans-48"/>
       <use x="127.246094" xlink:href="#DejaVuSans-48"/>
      </g>
     </g>
    </g>
    <g id="ytick_5">
     <g id="line2d_13">
      <g>
       <use style="stroke:#000000;stroke-width:0.8;" x="108" xlink:href="#m3d810af5f0" y="181.922592"/>
      </g>
     </g>
     <g id="text_14">
      <!-- 1000 -->
      <g transform="translate(75.55 185.721811)scale(0.1 -0.1)">
       <use xlink:href="#DejaVuSans-49"/>
       <use x="63.623047" xlink:href="#DejaVuSans-48"/>
       <use x="127.246094" xlink:href="#DejaVuSans-48"/>
       <use x="190.869141" xlink:href="#DejaVuSans-48"/>
      </g>
     </g>
    </g>
    <g id="ytick_6">
     <g id="line2d_14">
      <g>
       <use style="stroke:#000000;stroke-width:0.8;" x="108" xlink:href="#m3d810af5f0" y="136.72653"/>
      </g>
     </g>
     <g id="text_15">
      <!-- 1500 -->
      <g transform="translate(75.55 140.525748)scale(0.1 -0.1)">
       <use xlink:href="#DejaVuSans-49"/>
       <use x="63.623047" xlink:href="#DejaVuSans-53"/>
       <use x="127.246094" xlink:href="#DejaVuSans-48"/>
       <use x="190.869141" xlink:href="#DejaVuSans-48"/>
      </g>
     </g>
    </g>
    <g id="ytick_7">
     <g id="line2d_15">
      <g>
       <use style="stroke:#000000;stroke-width:0.8;" x="108" xlink:href="#m3d810af5f0" y="91.530467"/>
      </g>
     </g>
     <g id="text_16">
      <!-- 2000 -->
      <g transform="translate(75.55 95.329686)scale(0.1 -0.1)">
       <use xlink:href="#DejaVuSans-50"/>
       <use x="63.623047" xlink:href="#DejaVuSans-48"/>
       <use x="127.246094" xlink:href="#DejaVuSans-48"/>
       <use x="190.869141" xlink:href="#DejaVuSans-48"/>
      </g>
     </g>
    </g>
    <g id="text_17">
     <!-- Value -->
     <defs>
      <path d="M 28.609375 0 
L 0.78125 72.90625 
L 11.078125 72.90625 
L 34.1875 11.53125 
L 57.328125 72.90625 
L 67.578125 72.90625 
L 39.796875 0 
z
" id="DejaVuSans-86"/>
      <path d="M 9.421875 75.984375 
L 18.40625 75.984375 
L 18.40625 0 
L 9.421875 0 
z
" id="DejaVuSans-108"/>
      <path d="M 8.5 21.578125 
L 8.5 54.6875 
L 17.484375 54.6875 
L 17.484375 21.921875 
Q 17.484375 14.15625 20.5 10.265625 
Q 23.53125 6.390625 29.59375 6.390625 
Q 36.859375 6.390625 41.078125 11.03125 
Q 45.3125 15.671875 45.3125 23.6875 
L 45.3125 54.6875 
L 54.296875 54.6875 
L 54.296875 0 
L 45.3125 0 
L 45.3125 8.40625 
Q 42.046875 3.421875 37.71875 1 
Q 33.40625 -1.421875 27.6875 -1.421875 
Q 18.265625 -1.421875 13.375 4.4375 
Q 8.5 10.296875 8.5 21.578125 
z
M 31.109375 56 
z
" id="DejaVuSans-117"/>
     </defs>
     <g transform="translate(61.090625 232.273281)rotate(-90)scale(0.1 -0.1)">
      <use xlink:href="#DejaVuSans-86"/>
      <use x="68.298828" xlink:href="#DejaVuSans-97"/>
      <use x="129.578125" xlink:href="#DejaVuSans-108"/>
      <use x="157.361328" xlink:href="#DejaVuSans-117"/>
      <use x="220.740234" xlink:href="#DejaVuSans-101"/>
     </g>
    </g>
   </g>
   <g id="line2d_16">
    <path clip-path="url(#p6aba65ac46)" d="M 138.436364 273.407795 
L 139.161039 235.002837 
L 139.523377 219.792293 
L 139.885714 223.95662 
L 140.61039 243.175654 
L 140.972727 263.089132 
L 141.335065 271.675878 
L 141.697403 285.664613 
L 142.05974 286.918455 
L 143.509091 244.228362 
L 143.871429 244.79061 
L 144.233766 254.683015 
L 145.683117 307.515431 
L 146.045455 311.306145 
L 146.407792 298.668298 
L 146.77013 280.360953 
L 147.494805 234.175356 
L 148.219481 205.781338 
L 148.581818 130.528124 
L 148.944156 219.178282 
L 149.306494 233.614165 
L 149.668831 253.80238 
L 150.031169 266.868809 
L 150.393506 269.17938 
L 150.755844 270.419262 
L 151.118182 265.048334 
L 151.842857 242.676403 
L 152.205195 238.721272 
L 152.567532 241.530686 
L 152.92987 240.880324 
L 153.654545 277.934288 
L 154.016883 369.36 
L 154.379221 301.766804 
L 154.741558 306.756036 
L 155.103896 294.066947 
L 156.553247 209.088156 
L 156.915584 206.654364 
L 157.277922 205.435915 
L 157.64026 213.441741 
L 158.364935 247.716905 
L 158.727273 262.279959 
L 159.08961 271.074716 
L 159.451948 272.288291 
L 160.538961 246.432973 
L 160.901299 241.116749 
L 161.263636 239.720557 
L 161.625974 248.037937 
L 162.350649 278.114657 
L 162.712987 297.136759 
L 163.075325 305.240804 
L 163.437662 307.3925 
L 163.8 298.723533 
L 164.162338 283.577408 
L 165.249351 219.587829 
L 165.611688 214.865817 
L 165.974026 212.236817 
L 166.336364 221.885643 
L 166.698701 236.067683 
L 167.061039 258.392421 
L 167.423377 271.02969 
L 168.148052 280.003784 
L 168.51039 276.235854 
L 168.872727 263.502849 
L 169.235065 258.355319 
L 169.597403 247.940762 
L 169.95974 249.198245 
L 170.322078 257.447653 
L 170.684416 270.463736 
L 171.409091 308.326671 
L 171.771429 321.588545 
L 172.133766 318.838877 
L 172.496104 309.402246 
L 174.307792 221.360016 
L 174.67013 224.559652 
L 175.032468 232.483423 
L 175.757143 261.624363 
L 176.119481 283.540541 
L 176.481818 290.158767 
L 176.844156 293.075764 
L 177.206494 280.225361 
L 177.568831 273.433482 
L 177.931169 260.430297 
L 178.293506 257.506815 
L 178.655844 258.807882 
L 179.018182 267.455703 
L 179.380519 279.643118 
L 180.105195 315.324716 
L 180.467532 323.227799 
L 180.82987 325.027009 
L 181.192208 316.31367 
L 181.916883 273.906663 
L 182.641558 233.311364 
L 183.003896 229.134129 
L 183.366234 231.110726 
L 184.090909 249.81778 
L 184.815584 283.500898 
L 185.177922 289.94937 
L 185.54026 293.154435 
L 186.264935 276.617442 
L 186.627273 263.700821 
L 186.98961 256.627606 
L 187.351948 258.370375 
L 188.076623 276.805665 
L 188.801299 311.240503 
L 189.525974 321.368892 
L 189.888312 316.272203 
L 190.975325 248.857626 
L 191.337662 229.165423 
L 191.7 224.457352 
L 192.062338 140.758085 
L 192.424675 228.697975 
L 192.787013 248.55781 
L 193.511688 272.025976 
L 193.874026 283.192895 
L 194.236364 285.065076 
L 195.323377 253.043167 
L 196.048052 245.385441 
L 196.41039 252.353854 
L 196.772727 264.262962 
L 197.497403 299.194281 
L 197.85974 306.988978 
L 198.222078 307.738287 
L 198.584416 297.892629 
L 198.946753 282.153118 
L 199.671429 236.051398 
L 200.033766 216.448999 
L 200.396104 204.223807 
L 200.758442 210.967372 
L 201.120779 215.091736 
L 201.483117 227.838185 
L 201.845455 247.909074 
L 202.207792 261.276587 
L 202.57013 270.344958 
L 202.932468 270.263593 
L 204.381818 229.77883 
L 204.744156 229.384423 
L 205.106494 236.692077 
L 206.193506 284.426109 
L 206.555844 292.641981 
L 206.918182 291.351974 
L 207.280519 284.555495 
L 208.005195 246.348935 
L 208.367532 218.001902 
L 208.72987 201.804252 
L 209.092208 193.527753 
L 209.454545 193.161812 
L 209.816883 199.551562 
L 210.541558 234.780049 
L 210.903896 250.596081 
L 211.266234 259.105698 
L 211.628571 258.184508 
L 212.353247 239.637851 
L 212.715584 227.881103 
L 213.077922 223.911696 
L 213.44026 223.449165 
L 213.802597 230.17084 
L 214.164935 247.23565 
L 214.527273 258.239336 
L 215.251948 287.101231 
L 215.614286 290.682475 
L 216.338961 262.092459 
L 217.425974 198.316375 
L 217.788312 194.22031 
L 218.150649 188.184074 
L 218.512987 197.064687 
L 219.6 250.154552 
L 219.962338 257.797834 
L 220.324675 258.480733 
L 220.687013 250.918544 
L 221.049351 237.173065 
L 221.774026 224.866443 
L 222.136364 228.661477 
L 222.498701 235.152398 
L 222.861039 246.455215 
L 223.585714 282.116761 
L 224.31039 294.422413 
L 224.672727 283.056573 
L 226.122078 204.730467 
L 226.484416 195.718319 
L 226.846753 195.464188 
L 227.571429 223.129539 
L 228.296104 255.033579 
L 228.658442 267.695113 
L 229.020779 263.093564 
L 229.383117 260.318881 
L 229.745455 247.60816 
L 230.832468 231.691396 
L 231.194805 241.683147 
L 232.644156 302.331401 
L 233.006494 302.375193 
L 233.368831 293.025967 
L 233.731169 278.010935 
L 234.818182 217.57796 
L 235.180519 209.758286 
L 235.542857 205.250272 
L 235.905195 216.785479 
L 237.354545 275.322148 
L 237.716883 273.30334 
L 238.079221 269.326844 
L 238.441558 260.825413 
L 238.803896 249.188989 
L 239.166234 243.215642 
L 239.528571 244.815516 
L 239.890909 250.427347 
L 240.253247 262.362009 
L 240.615584 285.328803 
L 241.34026 307.186721 
L 241.702597 306.195085 
L 242.427273 286.331953 
L 243.151948 237.996345 
L 243.514286 219.448985 
L 243.876623 213.684408 
L 244.238961 210.05176 
L 244.963636 237.178391 
L 245.688312 267.398601 
L 246.050649 277.737894 
L 246.412987 278.594233 
L 246.775325 267.783186 
L 247.137662 260.748276 
L 247.862338 242.062046 
L 248.224675 237.272278 
L 250.036364 303.016845 
L 250.398701 304.475631 
L 250.761039 296.075694 
L 251.485714 255.670233 
L 251.848052 230.692872 
L 252.21039 214.848398 
L 252.572727 205.10788 
L 252.935065 203.315408 
L 253.297403 214.948542 
L 254.384416 260.908075 
L 254.746753 267.916384 
L 255.109091 266.208566 
L 255.471429 260.791192 
L 255.833766 246.503883 
L 256.196104 240.937781 
L 256.558442 231.005276 
L 256.920779 231.136986 
L 257.283117 236.245982 
L 258.732468 294.186676 
L 259.094805 290.111718 
L 259.457143 280.510358 
L 259.819481 265.884009 
L 260.544156 216.744047 
L 261.268831 188.755682 
L 261.631169 185.060034 
L 263.442857 255.941937 
L 263.805195 257.90494 
L 264.892208 223.470493 
L 265.616883 213.719468 
L 266.703896 252.087604 
L 267.066234 269.223399 
L 267.428571 278.304892 
L 267.790909 281.699026 
L 268.515584 250.302824 
L 268.877922 225.514752 
L 269.24026 208.887064 
L 269.602597 186.574057 
L 269.964935 177.280455 
L 270.327273 176.784108 
L 270.68961 188.357766 
L 271.776623 234.466061 
L 272.138961 236.116252 
L 272.501299 240.865658 
L 272.863636 236.118867 
L 273.225974 221.13473 
L 273.588312 217.916379 
L 273.950649 205.899699 
L 274.312987 207.147157 
L 274.675325 212.445918 
L 275.762338 264.106927 
L 276.124675 271.102271 
L 276.487013 273.288446 
L 276.849351 262.465797 
L 277.211688 245.697975 
L 277.936364 204.076653 
L 278.298701 182.341444 
L 278.661039 172.778277 
L 279.023377 172.905345 
L 279.385714 183.137934 
L 279.748052 205.736194 
L 280.835065 243.112414 
L 281.197403 241.448554 
L 281.55974 237.617789 
L 282.646753 206.361198 
L 283.009091 210.308404 
L 283.371429 217.24323 
L 284.458442 264.190157 
L 284.820779 273.027456 
L 285.183117 277.816091 
L 285.907792 250.524539 
L 286.994805 189.714874 
L 287.357143 183.376136 
L 287.719481 183.422486 
L 288.444156 207.414001 
L 288.806494 231.789367 
L 289.531169 248.80811 
L 289.893506 250.783104 
L 290.255844 247.129694 
L 290.980519 220.985813 
L 291.342857 218.709744 
L 291.705195 221.093885 
L 292.067532 226.663175 
L 292.42987 242.378303 
L 292.792208 264.181913 
L 293.516883 288.782865 
L 293.879221 287.402976 
L 294.241558 278.842007 
L 295.690909 199.983086 
L 296.053247 190.439884 
L 296.415584 188.70195 
L 297.864935 250.832459 
L 298.227273 257.746939 
L 298.58961 259.918716 
L 298.951948 253.90783 
L 299.676623 232.631048 
L 300.038961 230.879233 
L 300.401299 227.11841 
L 300.763636 232.849841 
L 301.125974 247.868678 
L 301.850649 285.835341 
L 302.212987 292.433948 
L 302.575325 295.598059 
L 302.937662 283.584857 
L 303.662338 248.658417 
L 304.387013 204.525135 
L 304.749351 194.769402 
L 305.111688 194.368228 
L 305.836364 222.312387 
L 306.561039 254.635185 
L 306.923377 261.398394 
L 307.285714 262.141711 
L 308.01039 241.983735 
L 308.372727 231.657273 
L 308.735065 227.041108 
L 309.097403 226.372622 
L 309.45974 232.164526 
L 310.546753 280.561635 
L 310.909091 288.71302 
L 311.271429 290.840122 
L 311.633766 281.614092 
L 312.358442 241.191978 
L 313.083117 198.32616 
L 313.445455 189.893332 
L 313.807792 189.935391 
L 314.532468 212.828732 
L 314.894805 233.635906 
L 315.257143 245.828725 
L 315.619481 253.019041 
L 315.981818 253.841438 
L 316.344156 244.251199 
L 316.706494 231.580254 
L 317.431169 215.198137 
L 317.793506 216.08619 
L 318.155844 224.768305 
L 319.605195 276.583095 
L 319.967532 278.15105 
L 320.32987 266.602744 
L 320.692208 249.256249 
L 321.416883 203.71384 
L 321.779221 184.368077 
L 322.141558 176.231927 
L 322.503896 174.115726 
L 322.866234 182.584824 
L 323.590909 217.089392 
L 323.953247 234.096243 
L 324.315584 237.804729 
L 324.677922 238.751038 
L 325.04026 232.816075 
L 325.402597 217.585533 
L 325.764935 207.061043 
L 326.127273 200.506779 
L 326.48961 199.780708 
L 326.851948 206.432176 
L 327.938961 252.957605 
L 328.301299 265.044198 
L 328.663636 260.652875 
L 329.025974 253.415306 
L 330.475325 172.8094 
L 330.837662 165.729498 
L 331.2 161.742287 
L 331.562338 172.42273 
L 332.287013 206.298997 
L 332.649351 299.440222 
L 333.011688 226.870816 
L 333.374026 226.356163 
L 333.736364 222.932595 
L 334.098701 207.735531 
L 334.461039 197.63529 
L 334.823377 191.698535 
L 335.185714 194.026016 
L 335.548052 198.74876 
L 336.997403 255.113811 
L 337.35974 258.572585 
L 337.722078 249.125042 
L 338.084416 235.125196 
L 338.446753 205.578367 
L 339.533766 159.22906 
L 339.896104 158.584334 
L 340.258442 169.627565 
L 341.345455 217.920504 
L 341.707792 226.779789 
L 342.07013 225.624744 
L 342.432468 220.235946 
L 342.794805 211.430301 
L 343.157143 199.9081 
L 343.519481 196.062118 
L 343.881818 194.912534 
L 344.606494 214.28968 
L 344.968831 237.136254 
L 345.331169 246.022883 
L 345.693506 261.483933 
L 346.055844 262.525606 
L 346.418182 253.156951 
L 346.780519 238.367161 
L 347.505195 193.761878 
L 347.867532 176.601828 
L 348.22987 167.814789 
L 348.592208 165.309052 
L 348.954545 174.539284 
L 349.316883 197.263074 
L 349.679221 208.847172 
L 350.041558 227.391071 
L 350.403896 234.201718 
L 350.766234 233.190216 
L 351.128571 230.384731 
L 351.490909 217.502055 
L 352.215584 204.067251 
L 352.94026 211.182281 
L 354.027273 265.418207 
L 354.38961 273.931691 
L 355.114286 264.404404 
L 355.476623 248.347485 
L 356.563636 183.822131 
L 356.925974 176.587847 
L 357.288312 177.770845 
L 357.650649 187.403654 
L 358.737662 238.308398 
L 359.1 245.739147 
L 359.462338 244.362976 
L 359.824675 238.534834 
L 360.549351 218.7564 
L 360.911688 212.232882 
L 361.274026 209.990998 
L 361.998701 237.72937 
L 362.723377 267.701582 
L 363.085714 276.471231 
L 363.448052 276.829959 
L 363.81039 266.55376 
L 364.535065 233.062333 
L 364.897403 205.630645 
L 365.622078 176.393912 
L 365.984416 180.420053 
L 367.433766 240.543044 
L 367.796104 245.92937 
L 368.158442 248.943449 
L 369.245455 216.777219 
L 369.97013 206.910011 
L 370.332468 218.234653 
L 371.419481 269.093295 
L 371.781818 275.815702 
L 372.144156 276.234056 
L 372.506494 265.64705 
L 372.868831 250.32508 
L 373.955844 183.979226 
L 374.318182 171.243359 
L 374.680519 174.767233 
L 375.405195 202.281569 
L 375.767532 220.741344 
L 376.492208 238.535133 
L 376.854545 236.582106 
L 377.216883 229.87412 
L 377.579221 219.993568 
L 377.941558 205.488221 
L 378.303896 200.175885 
L 378.666234 200.155019 
L 379.028571 203.76475 
L 379.753247 236.967127 
L 380.115584 255.4032 
L 380.84026 268.472224 
L 381.564935 238.752259 
L 382.28961 189.393428 
L 382.651948 170.096355 
L 383.014286 159.85508 
L 383.738961 168.744406 
L 384.825974 215.628235 
L 385.188312 222.069542 
L 385.550649 222.83982 
L 385.912987 215.512169 
L 386.637662 191.363754 
L 387 183.971838 
L 387.362338 183.839998 
L 387.724675 194.602901 
L 389.174026 250.688932 
L 389.536364 247.975733 
L 389.898701 241.881399 
L 391.348052 158.141046 
L 391.71039 145.875746 
L 392.072727 147.582202 
L 392.435065 156.432999 
L 393.522078 204.942434 
L 393.884416 211.911472 
L 394.246753 213.983963 
L 394.971429 198.023057 
L 395.333766 180.333597 
L 395.696104 173.011952 
L 396.058442 177.869079 
L 396.420779 184.761403 
L 397.87013 238.805674 
L 398.232468 241.188813 
L 398.594805 231.581436 
L 398.957143 214.720086 
L 400.044156 152.749017 
L 400.406494 141.186558 
L 400.768831 145.598436 
L 401.131169 152.012911 
L 401.855844 188.762107 
L 402.580519 209.16069 
L 402.942857 209.351083 
L 403.667532 193.715081 
L 404.02987 184.887678 
L 404.392208 184.9272 
L 404.754545 263.576983 
L 405.116883 190.244404 
L 405.841558 217.930951 
L 406.203896 238.182057 
L 406.566234 244.16291 
L 406.928571 243.198534 
L 407.290909 236.490158 
L 407.653247 220.655235 
L 408.74026 159.705493 
L 409.102597 152.62368 
L 409.464935 152.727839 
L 409.827273 162.687599 
L 410.914286 210.605712 
L 411.276623 220.490853 
L 411.638961 218.336905 
L 412.001299 214.308738 
L 412.363636 207.470499 
L 412.725974 193.89118 
L 413.088312 185.599365 
L 413.450649 186.758203 
L 413.812987 196.864042 
L 415.262338 253.666008 
L 415.624675 257.031306 
L 415.987013 247.33365 
L 416.349351 230.182888 
L 417.074026 188.439696 
L 417.798701 159.797885 
L 418.161039 162.875857 
L 418.523377 173.218355 
L 418.885714 192.613103 
L 419.248052 203.219353 
L 419.61039 223.528645 
L 419.972727 229.034663 
L 420.335065 228.541449 
L 420.697403 224.88308 
L 421.422078 201.520022 
L 421.784416 195.10589 
L 422.146753 198.534687 
L 422.509091 205.199725 
L 422.871429 217.369552 
L 423.958442 267.012732 
L 424.320779 262.879254 
L 425.045455 238.542397 
L 426.132468 171.911649 
L 426.494805 165.690401 
L 426.857143 167.569208 
L 427.219481 176.83279 
L 428.306494 223.430262 
L 428.668831 229.695977 
L 429.031169 230.391853 
L 429.393506 223.935564 
L 429.755844 210.314559 
L 430.118182 203.966259 
L 430.480519 194.089597 
L 430.842857 196.155417 
L 431.205195 204.007825 
L 431.567532 217.707179 
L 431.92987 236.232149 
L 432.292208 247.226535 
L 432.654545 264.040088 
L 433.016883 259.15089 
L 433.379221 251.583775 
L 434.828571 166.122199 
L 435.190909 160.208027 
L 435.553247 163.052275 
L 435.915584 168.860054 
L 436.64026 201.506714 
L 437.002597 217.330965 
L 437.727273 220.558774 
L 438.451948 204.213837 
L 438.814286 190.995964 
L 439.176623 186.821051 
L 439.901299 190.721182 
L 440.625974 223.52773 
L 441.350649 248.700485 
L 441.712987 247.590118 
L 442.437662 219.081402 
L 443.524675 155.837156 
L 443.887013 146.566766 
L 444.249351 145.932305 
L 444.611688 149.724834 
L 445.698701 204.04597 
L 446.061039 209.553811 
L 446.785714 198.21497 
L 447.872727 169.849079 
L 448.235065 167.002212 
L 448.597403 179.206934 
L 448.95974 186.506238 
L 449.322078 208.157861 
L 450.046753 231.693119 
L 450.409091 233.275793 
L 450.771429 227.650787 
L 452.220779 143.540808 
L 452.583117 133.600636 
L 452.945455 133.587531 
L 453.307792 141.883817 
L 454.757143 194.203516 
L 455.119481 193.324439 
L 455.481818 188.310087 
L 456.568831 159.39357 
L 456.931169 158.718645 
L 458.380519 211.864439 
L 458.742857 224.477862 
L 459.105195 227.853263 
L 459.467532 219.892179 
L 460.916883 135.133091 
L 461.279221 128.40267 
L 461.641558 132.386731 
L 462.003896 140.431393 
L 462.728571 176.168149 
L 463.453247 195.356537 
L 463.815584 194.473237 
L 464.177922 189.874612 
L 464.54026 180.987221 
L 465.264935 160.135995 
L 465.627273 162.923919 
L 465.98961 171.311079 
L 467.076623 220.177164 
L 467.438961 228.472818 
L 467.801299 230.742728 
L 468.163636 225.035927 
L 468.525974 207.772031 
L 469.250649 157.930997 
L 469.612987 144.763642 
L 469.975325 135.761928 
L 470.337662 134.488488 
L 470.7 145.817112 
L 471.787013 197.720835 
L 472.149351 207.857245 
L 472.511688 203.794606 
L 473.236364 186.985017 
L 473.961039 174.390053 
L 474.323377 171.066446 
L 475.41039 215.471764 
L 475.772727 232.000867 
L 476.135065 243.153783 
L 476.497403 242.667869 
L 476.85974 234.391024 
L 478.309091 152.627666 
L 478.671429 146.733821 
L 479.033766 146.904772 
L 479.396104 156.284155 
L 480.120779 190.733372 
L 480.845455 215.921092 
L 481.207792 212.66488 
L 481.57013 204.825701 
L 481.932468 200.861472 
L 482.294805 187.81347 
L 482.657143 180.749815 
L 483.019481 182.454599 
L 483.381818 187.388061 
L 484.831169 249.606965 
L 485.193506 250.192745 
L 485.555844 240.19712 
L 487.005195 160.236739 
L 487.367532 147.330372 
L 487.72987 150.287151 
L 488.454545 173.022082 
L 489.179221 206.848132 
L 489.541558 214.550026 
L 489.903896 216.226746 
L 490.266234 211.110553 
L 490.628571 200.431793 
L 490.990909 186.127108 
L 491.715584 181.501089 
L 492.077922 189.078456 
L 492.802597 223.099706 
L 493.164935 234.763449 
L 493.527273 242.305755 
L 493.88961 247.041417 
L 494.251948 235.580774 
L 494.614286 212.071324 
L 494.976623 196.080744 
L 495.701299 155.960547 
L 496.063636 142.775668 
L 496.425974 142.515778 
L 496.788312 152.34187 
L 497.875325 198.965356 
L 498.237662 203.766678 
L 498.6 202.981661 
L 498.962338 200.196453 
L 500.049351 167.756943 
L 500.411688 170.457536 
L 500.774026 178.601425 
L 501.136364 190.384113 
L 501.861039 222.123189 
L 502.223377 228.61331 
L 502.585714 230.915783 
L 502.948052 221.52084 
L 503.31039 204.759782 
L 503.672727 179.540098 
L 504.035065 78.228603 
L 504.397403 138.230813 
L 504.75974 130.473139 
L 505.122078 128.160864 
L 505.484416 138.777308 
L 505.846753 153.447355 
L 506.209091 172.873174 
L 506.571429 180.05682 
L 506.933766 193.77935 
L 507.658442 184.266919 
L 508.745455 152.772918 
L 509.107792 153.248541 
L 509.47013 162.072296 
L 510.919481 220.775458 
L 511.281818 218.664804 
L 511.644156 209.24236 
L 513.093506 125.730773 
L 513.455844 116.67655 
L 513.818182 119.017008 
L 514.542857 143.791627 
L 515.267532 176.81374 
L 515.62987 183.524371 
L 515.992208 183.066182 
L 516.354545 171.5142 
L 516.716883 165.633498 
L 517.079221 152.145367 
L 517.441558 147.70941 
L 517.803896 147.707872 
L 518.166234 151.608339 
L 518.890909 183.265446 
L 519.253247 202.1102 
L 519.615584 208.964018 
L 519.977922 211.455711 
L 520.34026 202.404593 
L 520.702597 263.513872 
L 521.064935 161.455104 
L 521.427273 136.166013 
L 522.151948 112.57624 
L 522.514286 111.091509 
L 523.238961 139.206157 
L 523.963636 176.771393 
L 524.325974 184.638052 
L 525.050649 175.260305 
L 526.137662 146.110272 
L 526.5 147.970918 
L 527.224675 167.467744 
L 527.949351 210.538377 
L 528.311688 212.535528 
L 528.674026 213.881588 
L 529.036364 205.87215 
L 529.398701 193.549657 
L 530.123377 146.451338 
L 530.485714 128.88331 
L 530.848052 118.569683 
L 531.21039 123.585612 
L 531.935065 145.075999 
L 532.65974 181.646984 
L 533.022078 188.163641 
L 533.384416 186.835075 
L 533.746753 181.535117 
L 534.471429 161.044407 
L 534.833766 159.339304 
L 535.196104 156.78087 
L 535.558442 166.707936 
L 535.920779 180.765088 
L 536.283117 199.897085 
L 537.007792 226.315683 
L 537.37013 229.575983 
L 538.094805 204.308453 
L 539.181818 138.255473 
L 539.544156 130.158814 
L 539.906494 129.61546 
L 540.268831 139.535839 
L 540.631169 154.189019 
L 541.355844 189.988673 
L 541.718182 197.700113 
L 542.080519 199.651381 
L 542.442857 196.60099 
L 543.167532 170.734248 
L 543.52987 169.809851 
L 543.892208 162.713114 
L 544.979221 204.256498 
L 545.341558 224.911612 
L 545.703896 233.587441 
L 546.066234 232.799453 
L 546.428571 222.793656 
L 546.790909 206.367571 
L 547.877922 144.87936 
L 548.602597 135.383102 
L 548.964935 145.538241 
L 549.327273 159.070237 
L 550.051948 193.942482 
L 550.414286 198.900282 
L 550.776623 123.951819 
L 551.138961 195.816488 
L 551.501299 181.451003 
L 552.588312 159.806699 
L 553.312987 184.690142 
L 554.037662 219.270439 
L 554.4 229.112013 
L 554.762338 231.985728 
L 555.124675 220.686752 
L 555.487013 204.641842 
L 555.849351 100.428678 
L 556.211688 156.484987 
L 556.936364 129.340073 
L 557.298701 131.286568 
L 557.661039 137.346887 
L 558.385714 170.853387 
L 558.748052 183.32841 
L 559.11039 190.396621 
L 559.472727 191.946914 
L 559.835065 187.235338 
L 560.197403 172.552541 
L 560.55974 167.926006 
L 560.922078 152.539821 
L 561.284416 158.557592 
L 561.646753 161.201731 
L 562.733766 205.891576 
L 563.096104 216.506224 
L 563.458442 216.273444 
L 563.820779 207.375452 
L 565.632468 116.071378 
L 565.994805 115.145503 
L 566.719481 139.760892 
L 567.444156 169.120428 
L 567.806494 174.390137 
L 568.168831 172.690791 
L 568.531169 172.344989 
L 568.893506 165.180833 
L 569.255844 146.827704 
L 569.618182 141.154279 
L 569.980519 142.359581 
L 570.342857 145.116118 
L 571.792208 204.651221 
L 572.154545 203.957448 
L 572.879221 176.581063 
L 573.966234 110.775216 
L 574.328571 99.589847 
L 574.690909 102.136687 
L 575.415584 127.590885 
L 576.502597 165.006731 
L 576.864935 165.832483 
L 577.227273 160.229882 
L 577.58961 148.550256 
L 577.951948 141.819644 
L 578.314286 130.213819 
L 578.676623 134.142698 
L 579.038961 141.563331 
L 579.401299 152.358224 
L 580.125974 185.104675 
L 580.488312 111.710725 
L 580.850649 199.343185 
L 581.212987 188.302547 
L 582.662338 111.932168 
L 583.024675 94.974909 
L 583.387013 98.377631 
L 583.749351 107.838184 
L 584.111688 122.298789 
L 584.836364 157.545918 
L 585.198701 163.733175 
L 585.561039 167.422602 
L 585.923377 159.339864 
L 586.648052 138.219588 
L 587.01039 134.432647 
L 587.372727 134.262208 
L 587.735065 141.106373 
L 588.097403 155.990603 
L 588.45974 98.547416 
L 588.822078 192.173909 
L 589.184416 200.083183 
L 589.546753 204.050153 
L 589.909091 194.165706 
L 591.720779 104.014585 
L 592.083117 105.116607 
L 592.445455 116.447747 
L 592.807792 134.33283 
L 593.17013 146.041715 
L 593.532468 163.040088 
L 593.894805 174.364716 
L 594.257143 178.18462 
L 595.344156 144.376063 
L 595.706494 144.52237 
L 596.068831 143.936987 
L 596.431169 149.087716 
L 597.880519 212.009631 
L 598.242857 213.254721 
L 598.967532 192.854089 
L 599.32987 161.595505 
L 600.054545 121.078562 
L 600.416883 116.592828 
L 600.779221 113.673929 
L 601.503896 142.453819 
L 602.228571 174.584211 
L 602.590909 182.887764 
L 602.953247 183.03746 
L 603.315584 177.87684 
L 604.402597 150.01624 
L 604.764935 150.456307 
L 605.127273 80.15536 
L 605.48961 174.590389 
L 606.214286 208.887721 
L 606.576623 222.062312 
L 606.938961 221.135968 
L 607.301299 209.097106 
L 608.025974 169.894986 
L 608.750649 127.578896 
L 609.112987 118.404098 
L 609.475325 121.206678 
L 609.837662 130.462794 
L 610.924675 179.254838 
L 611.649351 185.944936 
L 612.011688 178.074814 
L 612.736364 154.907161 
L 613.461039 149.15604 
L 614.548052 189.868928 
L 614.91039 204.587375 
L 615.272727 213.172096 
L 615.635065 218.382306 
L 615.997403 207.137682 
L 616.35974 188.620231 
L 617.084416 141.009233 
L 617.446753 124.546372 
L 617.809091 116.905964 
L 618.171429 113.767763 
L 618.533766 123.579891 
L 619.620779 170.215689 
L 619.983117 176.389584 
L 620.345455 173.653221 
L 621.794805 137.57649 
L 622.157143 136.091539 
L 622.881818 159.358183 
L 623.606494 190.691689 
L 623.968831 199.545389 
L 624.331169 199.816595 
L 624.693506 189.099913 
L 625.055844 172.71483 
L 625.780519 127.391218 
L 626.142857 111.023551 
L 626.505195 102.216148 
L 626.867532 97.078365 
L 627.592208 125.628415 
L 627.954545 137.524367 
L 628.316883 153.081377 
L 628.679221 163.551895 
L 629.041558 161.494296 
L 629.766234 146.199785 
L 630.128571 132.648268 
L 630.490909 125.722482 
L 630.853247 125.486908 
L 631.215584 129.865637 
L 631.577922 150.680255 
L 632.664935 187.339405 
L 633.027273 186.731148 
L 633.751948 159.644955 
L 634.838961 93.964517 
L 635.563636 83.773754 
L 635.925974 93.048695 
L 637.012987 142.326983 
L 637.375325 150.81127 
L 637.737662 151.773332 
L 638.1 149.93758 
L 638.462338 130.725603 
L 638.824675 121.8836 
L 639.187013 116.913435 
L 639.549351 114.235944 
L 639.911688 123.492238 
L 640.274026 138.404337 
L 640.636364 160.164043 
L 640.998701 167.97947 
L 641.361039 182.356173 
L 641.723377 182.898594 
L 642.81039 135.230379 
L 643.535065 90.631518 
L 643.897403 82.088345 
L 644.25974 86.216515 
L 644.622078 94.905915 
L 644.984416 107.441953 
L 645.709091 143.206604 
L 646.071429 149.165361 
L 646.433766 150.241711 
L 646.796104 147.670465 
L 647.883117 114.882061 
L 648.245455 117.199054 
L 648.97013 142.171766 
L 649.332468 155.150493 
L 649.694805 176.631881 
L 650.057143 189.697514 
L 650.781818 177.219371 
L 651.506494 139.292951 
L 652.231169 94.898979 
L 652.593506 94.258783 
L 652.955844 91.707602 
L 653.680519 116.016366 
L 654.042857 137.259155 
L 654.767532 156.785118 
L 655.12987 157.284357 
L 655.492208 152.261658 
L 656.579221 128.411177 
L 656.941558 129.741555 
L 657.303896 136.62213 
L 658.028571 165.450151 
L 658.390909 187.109991 
L 658.753247 116.263227 
L 659.115584 195.222451 
L 659.477922 189.508434 
L 660.202597 148.249967 
L 660.927273 106.430293 
L 661.28961 100.707459 
L 661.651948 102.742092 
L 663.463636 166.071772 
L 663.825974 167.496056 
L 664.188312 166.830141 
L 664.550649 151.746986 
L 664.912987 146.996189 
L 665.275325 130.794697 
L 665.637662 134.090333 
L 666.362338 158.880877 
L 666.724675 181.480156 
L 667.449351 202.893459 
L 667.811688 202.799921 
L 668.536364 176.010804 
L 669.261039 129.416616 
L 669.623377 114.233264 
L 669.985714 105.174564 
L 670.348052 104.05936 
L 670.71039 114.499746 
L 671.797403 166.021179 
L 672.15974 168.36166 
L 672.522078 169.046193 
L 672.884416 165.773739 
L 673.246753 150.022859 
L 673.971429 133.648879 
L 674.333766 135.173252 
L 674.696104 143.039864 
L 675.783117 190.992839 
L 676.145455 196.014088 
L 676.507792 198.182652 
L 676.87013 190.162626 
L 677.957143 124.948467 
L 678.319481 189.790974 
L 678.681818 98.44573 
L 679.044156 95.804134 
L 679.768831 121.60274 
L 680.493506 154.965712 
L 680.855844 160.103044 
L 681.218182 162.19858 
L 681.580519 150.989992 
L 681.942857 143.252544 
L 682.305195 132.440172 
L 682.667532 125.454979 
L 683.02987 123.891914 
L 683.392208 131.333158 
L 684.479221 175.885454 
L 684.841558 184.488502 
L 685.203896 189.336466 
L 685.566234 176.636996 
L 686.290909 136.781642 
L 687.015584 89.652453 
L 687.377922 84.337527 
L 687.74026 86.869408 
L 688.102597 93.735264 
L 688.827273 126.253933 
L 689.551948 146.430752 
L 689.914286 149.481227 
L 690.638961 126.389732 
L 691.001299 114.241497 
L 691.363636 109.578853 
L 691.725974 108.307372 
L 692.450649 130.250584 
L 692.812987 150.100521 
L 693.175325 159.928975 
L 693.537662 174.732013 
L 693.9 174.518473 
L 694.624675 143.517338 
L 694.987013 122.169001 
L 695.349351 176.32092 
L 695.711688 82.820668 
L 696.074026 68.130969 
L 696.436364 75.747188 
L 696.798701 79.9271 
L 697.885714 129.865451 
L 698.248052 135.603193 
L 698.61039 134.201821 
L 698.972727 127.692569 
L 699.335065 116.781589 
L 699.697403 110.384782 
L 700.05974 95.682641 
L 700.422078 100.612828 
L 700.784416 108.808636 
L 701.146753 122.593573 
L 701.509091 145.202327 
L 702.233766 166.596256 
L 702.596104 167.10859 
L 702.958442 156.519005 
L 703.683117 119.393762 
L 704.407792 76.584837 
L 704.77013 66.96 
L 705.132468 69.914568 
L 705.494805 74.914972 
L 706.581818 126.268564 
L 706.944156 131.283424 
L 707.306494 133.366409 
L 707.668831 130.780516 
L 708.031169 116.307206 
L 708.393506 112.319981 
L 708.755844 102.637333 
L 709.118182 101.308604 
L 709.480519 109.930542 
L 710.92987 173.120928 
L 711.292208 170.070238 
L 712.016883 142.798546 
L 713.103896 81.526032 
L 713.466234 74.488782 
L 713.828571 73.553382 
L 714.190909 85.030612 
L 714.553247 106.781926 
L 715.277922 132.380777 
L 715.64026 141.922709 
L 716.002597 140.778816 
L 716.364935 141.441842 
L 717.08961 119.600683 
L 717.451948 112.030442 
L 717.814286 112.646603 
L 718.538961 134.7695 
L 719.263636 169.818635 
L 719.625974 179.005106 
L 719.988312 179.803343 
L 720.350649 173.05776 
L 720.712987 157.381235 
L 721.437662 107.994402 
L 721.8 93.267352 
L 722.162338 83.905758 
L 722.524675 83.010289 
L 722.887013 95.854553 
L 723.611688 133.69724 
L 724.336364 153.055932 
L 724.698701 155.120819 
L 725.061039 148.621842 
L 726.148052 121.46684 
L 726.51039 119.804347 
L 726.872727 132.192754 
L 727.235065 139.742048 
L 727.95974 179.620375 
L 728.322078 190.447251 
L 728.684416 188.475837 
L 729.046753 178.959491 
L 730.496104 97.072724 
L 730.858442 92.519742 
L 731.220779 89.878785 
L 731.583117 99.612558 
L 732.67013 150.660174 
L 733.394805 155.959123 
L 733.757143 149.803948 
L 734.119481 136.852015 
L 734.844156 118.662234 
L 735.206494 121.791695 
L 735.568831 126.099901 
L 737.018182 184.26099 
L 737.380519 186.155762 
L 738.105195 156.424509 
L 739.192208 93.870861 
L 739.554545 83.193782 
L 739.916883 80.90954 
L 740.641558 104.40264 
L 741.366234 137.433274 
L 741.728571 144.714716 
L 742.090909 145.139517 
L 742.815584 130.023995 
L 743.177922 115.30181 
L 743.54026 105.776233 
L 743.902597 108.314564 
L 744.627273 128.444486 
L 745.351948 163.098375 
L 745.714286 168.977279 
L 746.076623 171.084526 
L 746.438961 161.056774 
L 746.801299 139.773462 
L 746.801299 139.773462 
" style="fill:none;stroke:#1f77b4;stroke-linecap:square;stroke-width:1.5;"/>
   </g>
   <g id="line2d_17">
    <path clip-path="url(#p6aba65ac46)" d="M 747.163636 384.48 
L 747.163636 51.84 
" style="fill:none;stroke:#808080;stroke-linecap:square;"/>
   </g>
   <g id="patch_110">
    <path d="M 108 384.48 
L 108 51.84 
" style="fill:none;stroke:#000000;stroke-linecap:square;stroke-linejoin:miter;stroke-width:0.8;"/>
   </g>
   <g id="patch_111">
    <path d="M 777.6 384.48 
L 777.6 51.84 
" style="fill:none;stroke:#000000;stroke-linecap:square;stroke-linejoin:miter;stroke-width:0.8;"/>
   </g>
   <g id="patch_112">
    <path d="M 108 384.48 
L 777.6 384.48 
" style="fill:none;stroke:#000000;stroke-linecap:square;stroke-linejoin:miter;stroke-width:0.8;"/>
   </g>
   <g id="patch_113">
    <path d="M 108 51.84 
L 777.6 51.84 
" style="fill:none;stroke:#000000;stroke-linecap:square;stroke-linejoin:miter;stroke-width:0.8;"/>
   </g>
   <g id="text_18">
    <!-- A3Benchmark-TS53.csv -->
    <defs>
     <path d="M 34.1875 63.1875 
L 20.796875 26.90625 
L 47.609375 26.90625 
z
M 28.609375 72.90625 
L 39.796875 72.90625 
L 67.578125 0 
L 57.328125 0 
L 50.6875 18.703125 
L 17.828125 18.703125 
L 11.1875 0 
L 0.78125 0 
z
" id="DejaVuSans-65"/>
     <path d="M 40.578125 39.3125 
Q 47.65625 37.796875 51.625 33 
Q 55.609375 28.21875 55.609375 21.1875 
Q 55.609375 10.40625 48.1875 4.484375 
Q 40.765625 -1.421875 27.09375 -1.421875 
Q 22.515625 -1.421875 17.65625 -0.515625 
Q 12.796875 0.390625 7.625 2.203125 
L 7.625 11.71875 
Q 11.71875 9.328125 16.59375 8.109375 
Q 21.484375 6.890625 26.8125 6.890625 
Q 36.078125 6.890625 40.9375 10.546875 
Q 45.796875 14.203125 45.796875 21.1875 
Q 45.796875 27.640625 41.28125 31.265625 
Q 36.765625 34.90625 28.71875 34.90625 
L 20.21875 34.90625 
L 20.21875 43.015625 
L 29.109375 43.015625 
Q 36.375 43.015625 40.234375 45.921875 
Q 44.09375 48.828125 44.09375 54.296875 
Q 44.09375 59.90625 40.109375 62.90625 
Q 36.140625 65.921875 28.71875 65.921875 
Q 24.65625 65.921875 20.015625 65.03125 
Q 15.375 64.15625 9.8125 62.3125 
L 9.8125 71.09375 
Q 15.4375 72.65625 20.34375 73.4375 
Q 25.25 74.21875 29.59375 74.21875 
Q 40.828125 74.21875 47.359375 69.109375 
Q 53.90625 64.015625 53.90625 55.328125 
Q 53.90625 49.265625 50.4375 45.09375 
Q 46.96875 40.921875 40.578125 39.3125 
z
" id="DejaVuSans-51"/>
     <path d="M 19.671875 34.8125 
L 19.671875 8.109375 
L 35.5 8.109375 
Q 43.453125 8.109375 47.28125 11.40625 
Q 51.125 14.703125 51.125 21.484375 
Q 51.125 28.328125 47.28125 31.5625 
Q 43.453125 34.8125 35.5 34.8125 
z
M 19.671875 64.796875 
L 19.671875 42.828125 
L 34.28125 42.828125 
Q 41.5 42.828125 45.03125 45.53125 
Q 48.578125 48.25 48.578125 53.8125 
Q 48.578125 59.328125 45.03125 62.0625 
Q 41.5 64.796875 34.28125 64.796875 
z
M 9.8125 72.90625 
L 35.015625 72.90625 
Q 46.296875 72.90625 52.390625 68.21875 
Q 58.5 63.53125 58.5 54.890625 
Q 58.5 48.1875 55.375 44.234375 
Q 52.25 40.28125 46.1875 39.3125 
Q 53.46875 37.75 57.5 32.78125 
Q 61.53125 27.828125 61.53125 20.40625 
Q 61.53125 10.640625 54.890625 5.3125 
Q 48.25 0 35.984375 0 
L 9.8125 0 
z
" id="DejaVuSans-66"/>
     <path d="M 54.890625 33.015625 
L 54.890625 0 
L 45.90625 0 
L 45.90625 32.71875 
Q 45.90625 40.484375 42.875 44.328125 
Q 39.84375 48.1875 33.796875 48.1875 
Q 26.515625 48.1875 22.3125 43.546875 
Q 18.109375 38.921875 18.109375 30.90625 
L 18.109375 0 
L 9.078125 0 
L 9.078125 54.6875 
L 18.109375 54.6875 
L 18.109375 46.1875 
Q 21.34375 51.125 25.703125 53.5625 
Q 30.078125 56 35.796875 56 
Q 45.21875 56 50.046875 50.171875 
Q 54.890625 44.34375 54.890625 33.015625 
z
" id="DejaVuSans-110"/>
     <path d="M 48.78125 52.59375 
L 48.78125 44.1875 
Q 44.96875 46.296875 41.140625 47.34375 
Q 37.3125 48.390625 33.40625 48.390625 
Q 24.65625 48.390625 19.8125 42.84375 
Q 14.984375 37.3125 14.984375 27.296875 
Q 14.984375 17.28125 19.8125 11.734375 
Q 24.65625 6.203125 33.40625 6.203125 
Q 37.3125 6.203125 41.140625 7.25 
Q 44.96875 8.296875 48.78125 10.40625 
L 48.78125 2.09375 
Q 45.015625 0.34375 40.984375 -0.53125 
Q 36.96875 -1.421875 32.421875 -1.421875 
Q 20.0625 -1.421875 12.78125 6.34375 
Q 5.515625 14.109375 5.515625 27.296875 
Q 5.515625 40.671875 12.859375 48.328125 
Q 20.21875 56 33.015625 56 
Q 37.15625 56 41.109375 55.140625 
Q 45.0625 54.296875 48.78125 52.59375 
z
" id="DejaVuSans-99"/>
     <path d="M 54.890625 33.015625 
L 54.890625 0 
L 45.90625 0 
L 45.90625 32.71875 
Q 45.90625 40.484375 42.875 44.328125 
Q 39.84375 48.1875 33.796875 48.1875 
Q 26.515625 48.1875 22.3125 43.546875 
Q 18.109375 38.921875 18.109375 30.90625 
L 18.109375 0 
L 9.078125 0 
L 9.078125 75.984375 
L 18.109375 75.984375 
L 18.109375 46.1875 
Q 21.34375 51.125 25.703125 53.5625 
Q 30.078125 56 35.796875 56 
Q 45.21875 56 50.046875 50.171875 
Q 54.890625 44.34375 54.890625 33.015625 
z
" id="DejaVuSans-104"/>
     <path d="M 41.109375 46.296875 
Q 39.59375 47.171875 37.8125 47.578125 
Q 36.03125 48 33.890625 48 
Q 26.265625 48 22.1875 43.046875 
Q 18.109375 38.09375 18.109375 28.8125 
L 18.109375 0 
L 9.078125 0 
L 9.078125 54.6875 
L 18.109375 54.6875 
L 18.109375 46.1875 
Q 20.953125 51.171875 25.484375 53.578125 
Q 30.03125 56 36.53125 56 
Q 37.453125 56 38.578125 55.875 
Q 39.703125 55.765625 41.0625 55.515625 
z
" id="DejaVuSans-114"/>
     <path d="M 9.078125 75.984375 
L 18.109375 75.984375 
L 18.109375 31.109375 
L 44.921875 54.6875 
L 56.390625 54.6875 
L 27.390625 29.109375 
L 57.625 0 
L 45.90625 0 
L 18.109375 26.703125 
L 18.109375 0 
L 9.078125 0 
z
" id="DejaVuSans-107"/>
     <path d="M 4.890625 31.390625 
L 31.203125 31.390625 
L 31.203125 23.390625 
L 4.890625 23.390625 
z
" id="DejaVuSans-45"/>
     <path d="M 53.515625 70.515625 
L 53.515625 60.890625 
Q 47.90625 63.578125 42.921875 64.890625 
Q 37.9375 66.21875 33.296875 66.21875 
Q 25.25 66.21875 20.875 63.09375 
Q 16.5 59.96875 16.5 54.203125 
Q 16.5 49.359375 19.40625 46.890625 
Q 22.3125 44.4375 30.421875 42.921875 
L 36.375 41.703125 
Q 47.40625 39.59375 52.65625 34.296875 
Q 57.90625 29 57.90625 20.125 
Q 57.90625 9.515625 50.796875 4.046875 
Q 43.703125 -1.421875 29.984375 -1.421875 
Q 24.8125 -1.421875 18.96875 -0.25 
Q 13.140625 0.921875 6.890625 3.21875 
L 6.890625 13.375 
Q 12.890625 10.015625 18.65625 8.296875 
Q 24.421875 6.59375 29.984375 6.59375 
Q 38.421875 6.59375 43.015625 9.90625 
Q 47.609375 13.234375 47.609375 19.390625 
Q 47.609375 24.75 44.3125 27.78125 
Q 41.015625 30.8125 33.5 32.328125 
L 27.484375 33.5 
Q 16.453125 35.6875 11.515625 40.375 
Q 6.59375 45.0625 6.59375 53.421875 
Q 6.59375 63.09375 13.40625 68.65625 
Q 20.21875 74.21875 32.171875 74.21875 
Q 37.3125 74.21875 42.625 73.28125 
Q 47.953125 72.359375 53.515625 70.515625 
z
" id="DejaVuSans-83"/>
     <path d="M 10.6875 12.40625 
L 21 12.40625 
L 21 0 
L 10.6875 0 
z
" id="DejaVuSans-46"/>
     <path d="M 2.984375 54.6875 
L 12.5 54.6875 
L 29.59375 8.796875 
L 46.6875 54.6875 
L 56.203125 54.6875 
L 35.6875 0 
L 23.484375 0 
z
" id="DejaVuSans-118"/>
    </defs>
    <g transform="translate(371.555625 45.84)scale(0.12 -0.12)">
     <use xlink:href="#DejaVuSans-65"/>
     <use x="68.408203" xlink:href="#DejaVuSans-51"/>
     <use x="132.03125" xlink:href="#DejaVuSans-66"/>
     <use x="200.634766" xlink:href="#DejaVuSans-101"/>
     <use x="262.158203" xlink:href="#DejaVuSans-110"/>
     <use x="325.537109" xlink:href="#DejaVuSans-99"/>
     <use x="380.517578" xlink:href="#DejaVuSans-104"/>
     <use x="443.896484" xlink:href="#DejaVuSans-109"/>
     <use x="541.308594" xlink:href="#DejaVuSans-97"/>
     <use x="602.587891" xlink:href="#DejaVuSans-114"/>
     <use x="643.701172" xlink:href="#DejaVuSans-107"/>
     <use x="701.611328" xlink:href="#DejaVuSans-45"/>
     <use x="737.554688" xlink:href="#DejaVuSans-84"/>
     <use x="798.638672" xlink:href="#DejaVuSans-83"/>
     <use x="862.115234" xlink:href="#DejaVuSans-53"/>
     <use x="925.738281" xlink:href="#DejaVuSans-51"/>
     <use x="989.361328" xlink:href="#DejaVuSans-46"/>
     <use x="1021.148438" xlink:href="#DejaVuSans-99"/>
     <use x="1076.128906" xlink:href="#DejaVuSans-115"/>
     <use x="1128.228516" xlink:href="#DejaVuSans-118"/>
    </g>
   </g>
   <g id="legend_1">
    <g id="patch_114">
     <path d="M 711.284375 379.48 
L 770.6 379.48 
Q 772.6 379.48 772.6 377.48 
L 772.6 363.801875 
Q 772.6 361.801875 770.6 361.801875 
L 711.284375 361.801875 
Q 709.284375 361.801875 709.284375 363.801875 
L 709.284375 377.48 
Q 709.284375 379.48 711.284375 379.48 
z
" style="fill:#ffffff;opacity:0.8;stroke:#cccccc;stroke-linejoin:miter;"/>
    </g>
    <g id="line2d_18">
     <path d="M 713.284375 369.900312 
L 733.284375 369.900312 
" style="fill:none;stroke:#1f77b4;stroke-linecap:square;stroke-width:1.5;"/>
    </g>
    <g id="line2d_19"/>
    <g id="text_19">
     <!-- value -->
     <g transform="translate(741.284375 373.400312)scale(0.1 -0.1)">
      <use xlink:href="#DejaVuSans-118"/>
      <use x="59.179688" xlink:href="#DejaVuSans-97"/>
      <use x="120.458984" xlink:href="#DejaVuSans-108"/>
      <use x="148.242188" xlink:href="#DejaVuSans-117"/>
      <use x="211.621094" xlink:href="#DejaVuSans-101"/>
     </g>
    </g>
   </g>
  </g>
 </g>
 <defs>
  <clipPath id="p6aba65ac46">
   <rect height="332.64" width="669.6" x="108" y="51.84"/>
  </clipPath>
 </defs>
</svg>
