<?xml version="1.0" encoding="utf-8" standalone="no"?>
<!DOCTYPE svg PUBLIC "-//W3C//DTD SVG 1.1//EN"
  "http://www.w3.org/Graphics/SVG/1.1/DTD/svg11.dtd">
<!-- Created with matplotlib (https://matplotlib.org/) -->
<svg height="432pt" version="1.1" viewBox="0 0 864 432" width="864pt" xmlns="http://www.w3.org/2000/svg" xmlns:xlink="http://www.w3.org/1999/xlink">
 <defs>
  <style type="text/css">
*{stroke-linecap:butt;stroke-linejoin:round;}
  </style>
 </defs>
 <g id="figure_1">
  <g id="patch_1">
   <path d="M 0 432 
L 864 432 
L 864 0 
L 0 0 
z
" style="fill:#ffffff;"/>
  </g>
  <g id="axes_1">
   <g id="patch_2">
    <path d="M 108 384.48 
L 777.6 384.48 
L 777.6 51.84 
L 108 51.84 
z
" style="fill:#ffffff;"/>
   </g>
   <g id="patch_3">
    <path clip-path="url(#pdb034c2a89)" d="M 138.436364 384.48 
L 138.436364 51.84 
L 440.999032 51.84 
L 440.999032 384.48 
z
" style="fill:#0000ff;opacity:0.05;"/>
   </g>
   <g id="patch_4">
    <path clip-path="url(#pdb034c2a89)" d="M 440.999032 384.48 
L 440.999032 51.84 
L 747.163636 51.84 
L 747.163636 384.48 
z
" style="fill:#ff0000;opacity:0.08;"/>
   </g>
   <g id="patch_5">
    <path clip-path="url(#pdb034c2a89)" d="M 138.436364 384.48 
L 138.436364 51.84 
L 142.0383 51.84 
L 142.0383 384.48 
z
" style="fill:#008000;opacity:0.04;"/>
   </g>
   <g id="patch_6">
    <path clip-path="url(#pdb034c2a89)" d="M 145.640237 384.48 
L 145.640237 51.84 
L 149.242173 51.84 
L 149.242173 384.48 
z
" style="fill:#008000;opacity:0.04;"/>
   </g>
   <g id="patch_7">
    <path clip-path="url(#pdb034c2a89)" d="M 145.640237 384.48 
L 145.640237 371.1744 
L 149.242173 371.1744 
L 149.242173 384.48 
z
" style="fill:#ffe500;"/>
   </g>
   <g id="patch_8">
    <path clip-path="url(#pdb034c2a89)" d="M 152.84411 384.48 
L 152.84411 51.84 
L 156.446046 51.84 
L 156.446046 384.48 
z
" style="fill:#008000;opacity:0.04;"/>
   </g>
   <g id="patch_9">
    <path clip-path="url(#pdb034c2a89)" d="M 160.047983 384.48 
L 160.047983 51.84 
L 163.649919 51.84 
L 163.649919 384.48 
z
" style="fill:#008000;opacity:0.04;"/>
   </g>
   <g id="patch_10">
    <path clip-path="url(#pdb034c2a89)" d="M 462.610651 384.48 
L 462.610651 371.1744 
L 466.212587 371.1744 
L 466.212587 384.48 
z
" style="fill:#ff6600;"/>
   </g>
   <g id="patch_11">
    <path clip-path="url(#pdb034c2a89)" d="M 167.251856 384.48 
L 167.251856 51.84 
L 170.853792 51.84 
L 170.853792 384.48 
z
" style="fill:#008000;opacity:0.04;"/>
   </g>
   <g id="patch_12">
    <path clip-path="url(#pdb034c2a89)" d="M 167.251856 371.1744 
L 167.251856 51.84 
L 170.853792 51.84 
L 170.853792 371.1744 
z
" style="fill:#008000;opacity:0.5;"/>
   </g>
   <g id="patch_13">
    <path clip-path="url(#pdb034c2a89)" d="M 167.251856 384.48 
L 167.251856 371.1744 
L 170.853792 371.1744 
L 170.853792 384.48 
z
" style="fill:#ffe500;"/>
   </g>
   <g id="patch_14">
    <path clip-path="url(#pdb034c2a89)" d="M 174.455729 384.48 
L 174.455729 51.84 
L 178.057665 51.84 
L 178.057665 384.48 
z
" style="fill:#008000;opacity:0.04;"/>
   </g>
   <g id="patch_15">
    <path clip-path="url(#pdb034c2a89)" d="M 181.659602 384.48 
L 181.659602 51.84 
L 185.261538 51.84 
L 185.261538 384.48 
z
" style="fill:#008000;opacity:0.04;"/>
   </g>
   <g id="patch_16">
    <path clip-path="url(#pdb034c2a89)" d="M 188.863475 384.48 
L 188.863475 51.84 
L 192.465412 51.84 
L 192.465412 384.48 
z
" style="fill:#008000;opacity:0.04;"/>
   </g>
   <g id="patch_17">
    <path clip-path="url(#pdb034c2a89)" d="M 196.067348 384.48 
L 196.067348 51.84 
L 199.669285 51.84 
L 199.669285 384.48 
z
" style="fill:#008000;opacity:0.04;"/>
   </g>
   <g id="patch_18">
    <path clip-path="url(#pdb034c2a89)" d="M 196.067348 371.1744 
L 196.067348 51.84 
L 199.669285 51.84 
L 199.669285 371.1744 
z
" style="fill:#008000;opacity:0.5;"/>
   </g>
   <g id="patch_19">
    <path clip-path="url(#pdb034c2a89)" d="M 196.067348 384.48 
L 196.067348 371.1744 
L 199.669285 371.1744 
L 199.669285 384.48 
z
" style="fill:#ffe500;"/>
   </g>
   <g id="patch_20">
    <path clip-path="url(#pdb034c2a89)" d="M 498.630016 384.48 
L 498.630016 371.1744 
L 502.231953 371.1744 
L 502.231953 384.48 
z
" style="fill:#ff6600;"/>
   </g>
   <g id="patch_21">
    <path clip-path="url(#pdb034c2a89)" d="M 203.271221 384.48 
L 203.271221 51.84 
L 206.873158 51.84 
L 206.873158 384.48 
z
" style="fill:#008000;opacity:0.04;"/>
   </g>
   <g id="patch_22">
    <path clip-path="url(#pdb034c2a89)" d="M 509.435826 384.48 
L 509.435826 371.1744 
L 513.037762 371.1744 
L 513.037762 384.48 
z
" style="fill:#ff6600;"/>
   </g>
   <g id="patch_23">
    <path clip-path="url(#pdb034c2a89)" d="M 210.475094 384.48 
L 210.475094 51.84 
L 214.077031 51.84 
L 214.077031 384.48 
z
" style="fill:#008000;opacity:0.04;"/>
   </g>
   <g id="patch_24">
    <path clip-path="url(#pdb034c2a89)" d="M 217.678967 384.48 
L 217.678967 51.84 
L 221.280904 51.84 
L 221.280904 384.48 
z
" style="fill:#008000;opacity:0.04;"/>
   </g>
   <g id="patch_25">
    <path clip-path="url(#pdb034c2a89)" d="M 221.280904 371.1744 
L 221.280904 51.84 
L 224.88284 51.84 
L 224.88284 371.1744 
z
" style="fill:#008000;opacity:0.5;"/>
   </g>
   <g id="patch_26">
    <path clip-path="url(#pdb034c2a89)" d="M 221.280904 384.48 
L 221.280904 371.1744 
L 224.88284 371.1744 
L 224.88284 384.48 
z
" style="fill:#ffe500;"/>
   </g>
   <g id="patch_27">
    <path clip-path="url(#pdb034c2a89)" d="M 224.88284 384.48 
L 224.88284 51.84 
L 228.484777 51.84 
L 228.484777 384.48 
z
" style="fill:#008000;opacity:0.04;"/>
   </g>
   <g id="patch_28">
    <path clip-path="url(#pdb034c2a89)" d="M 527.445508 384.48 
L 527.445508 371.1744 
L 531.047445 371.1744 
L 531.047445 384.48 
z
" style="fill:#ff6600;"/>
   </g>
   <g id="patch_29">
    <path clip-path="url(#pdb034c2a89)" d="M 232.086713 384.48 
L 232.086713 51.84 
L 235.68865 51.84 
L 235.68865 384.48 
z
" style="fill:#008000;opacity:0.04;"/>
   </g>
   <g id="patch_30">
    <path clip-path="url(#pdb034c2a89)" d="M 239.290586 384.48 
L 239.290586 51.84 
L 242.892523 51.84 
L 242.892523 384.48 
z
" style="fill:#008000;opacity:0.04;"/>
   </g>
   <g id="patch_31">
    <path clip-path="url(#pdb034c2a89)" d="M 545.455191 384.48 
L 545.455191 371.1744 
L 549.057127 371.1744 
L 549.057127 384.48 
z
" style="fill:#ff6600;"/>
   </g>
   <g id="patch_32">
    <path clip-path="url(#pdb034c2a89)" d="M 246.494459 384.48 
L 246.494459 51.84 
L 250.096396 51.84 
L 250.096396 384.48 
z
" style="fill:#008000;opacity:0.04;"/>
   </g>
   <g id="patch_33">
    <path clip-path="url(#pdb034c2a89)" d="M 253.698332 384.48 
L 253.698332 51.84 
L 257.300269 51.84 
L 257.300269 384.48 
z
" style="fill:#008000;opacity:0.04;"/>
   </g>
   <g id="patch_34">
    <path clip-path="url(#pdb034c2a89)" d="M 253.698332 384.48 
L 253.698332 371.1744 
L 257.300269 371.1744 
L 257.300269 384.48 
z
" style="fill:#ffe500;"/>
   </g>
   <g id="patch_35">
    <path clip-path="url(#pdb034c2a89)" d="M 260.902205 384.48 
L 260.902205 51.84 
L 264.504142 51.84 
L 264.504142 384.48 
z
" style="fill:#008000;opacity:0.04;"/>
   </g>
   <g id="patch_36">
    <path clip-path="url(#pdb034c2a89)" d="M 268.106079 384.48 
L 268.106079 51.84 
L 271.708015 51.84 
L 271.708015 384.48 
z
" style="fill:#008000;opacity:0.04;"/>
   </g>
   <g id="patch_37">
    <path clip-path="url(#pdb034c2a89)" d="M 275.309952 384.48 
L 275.309952 51.84 
L 278.911888 51.84 
L 278.911888 384.48 
z
" style="fill:#008000;opacity:0.04;"/>
   </g>
   <g id="patch_38">
    <path clip-path="url(#pdb034c2a89)" d="M 282.513825 384.48 
L 282.513825 51.84 
L 286.115761 51.84 
L 286.115761 384.48 
z
" style="fill:#008000;opacity:0.04;"/>
   </g>
   <g id="patch_39">
    <path clip-path="url(#pdb034c2a89)" d="M 289.717698 384.48 
L 289.717698 51.84 
L 293.319634 51.84 
L 293.319634 384.48 
z
" style="fill:#008000;opacity:0.04;"/>
   </g>
   <g id="patch_40">
    <path clip-path="url(#pdb034c2a89)" d="M 296.921571 384.48 
L 296.921571 51.84 
L 300.523507 51.84 
L 300.523507 384.48 
z
" style="fill:#008000;opacity:0.04;"/>
   </g>
   <g id="patch_41">
    <path clip-path="url(#pdb034c2a89)" d="M 296.921571 384.48 
L 296.921571 371.1744 
L 300.523507 371.1744 
L 300.523507 384.48 
z
" style="fill:#ffe500;"/>
   </g>
   <g id="patch_42">
    <path clip-path="url(#pdb034c2a89)" d="M 304.125444 384.48 
L 304.125444 51.84 
L 307.72738 51.84 
L 307.72738 384.48 
z
" style="fill:#008000;opacity:0.04;"/>
   </g>
   <g id="patch_43">
    <path clip-path="url(#pdb034c2a89)" d="M 311.329317 384.48 
L 311.329317 51.84 
L 314.931253 51.84 
L 314.931253 384.48 
z
" style="fill:#008000;opacity:0.04;"/>
   </g>
   <g id="patch_44">
    <path clip-path="url(#pdb034c2a89)" d="M 318.53319 384.48 
L 318.53319 51.84 
L 322.135126 51.84 
L 322.135126 384.48 
z
" style="fill:#008000;opacity:0.04;"/>
   </g>
   <g id="patch_45">
    <path clip-path="url(#pdb034c2a89)" d="M 318.53319 384.48 
L 318.53319 371.1744 
L 322.135126 371.1744 
L 322.135126 384.48 
z
" style="fill:#ffe500;"/>
   </g>
   <g id="patch_46">
    <path clip-path="url(#pdb034c2a89)" d="M 325.737063 384.48 
L 325.737063 51.84 
L 329.338999 51.84 
L 329.338999 384.48 
z
" style="fill:#008000;opacity:0.04;"/>
   </g>
   <g id="patch_47">
    <path clip-path="url(#pdb034c2a89)" d="M 631.901668 384.48 
L 631.901668 371.1744 
L 635.503604 371.1744 
L 635.503604 384.48 
z
" style="fill:#ff6600;"/>
   </g>
   <g id="patch_48">
    <path clip-path="url(#pdb034c2a89)" d="M 332.940936 384.48 
L 332.940936 51.84 
L 336.542873 51.84 
L 336.542873 384.48 
z
" style="fill:#008000;opacity:0.04;"/>
   </g>
   <g id="patch_49">
    <path clip-path="url(#pdb034c2a89)" d="M 340.144809 384.48 
L 340.144809 51.84 
L 343.746746 51.84 
L 343.746746 384.48 
z
" style="fill:#008000;opacity:0.04;"/>
   </g>
   <g id="patch_50">
    <path clip-path="url(#pdb034c2a89)" d="M 347.348682 384.48 
L 347.348682 51.84 
L 350.950619 51.84 
L 350.950619 384.48 
z
" style="fill:#008000;opacity:0.04;"/>
   </g>
   <g id="patch_51">
    <path clip-path="url(#pdb034c2a89)" d="M 354.552555 384.48 
L 354.552555 51.84 
L 358.154492 51.84 
L 358.154492 384.48 
z
" style="fill:#008000;opacity:0.04;"/>
   </g>
   <g id="patch_52">
    <path clip-path="url(#pdb034c2a89)" d="M 361.756428 384.48 
L 361.756428 51.84 
L 365.358365 51.84 
L 365.358365 384.48 
z
" style="fill:#008000;opacity:0.04;"/>
   </g>
   <g id="patch_53">
    <path clip-path="url(#pdb034c2a89)" d="M 368.960301 384.48 
L 368.960301 51.84 
L 372.562238 51.84 
L 372.562238 384.48 
z
" style="fill:#008000;opacity:0.04;"/>
   </g>
   <g id="patch_54">
    <path clip-path="url(#pdb034c2a89)" d="M 376.164174 384.48 
L 376.164174 51.84 
L 379.766111 51.84 
L 379.766111 384.48 
z
" style="fill:#008000;opacity:0.04;"/>
   </g>
   <g id="patch_55">
    <path clip-path="url(#pdb034c2a89)" d="M 383.368047 384.48 
L 383.368047 51.84 
L 386.969984 51.84 
L 386.969984 384.48 
z
" style="fill:#008000;opacity:0.04;"/>
   </g>
   <g id="patch_56">
    <path clip-path="url(#pdb034c2a89)" d="M 390.57192 384.48 
L 390.57192 51.84 
L 394.173857 51.84 
L 394.173857 384.48 
z
" style="fill:#008000;opacity:0.04;"/>
   </g>
   <g id="patch_57">
    <path clip-path="url(#pdb034c2a89)" d="M 397.775793 384.48 
L 397.775793 51.84 
L 401.37773 51.84 
L 401.37773 384.48 
z
" style="fill:#008000;opacity:0.04;"/>
   </g>
   <g id="patch_58">
    <path clip-path="url(#pdb034c2a89)" d="M 404.979666 384.48 
L 404.979666 51.84 
L 408.581603 51.84 
L 408.581603 384.48 
z
" style="fill:#008000;opacity:0.04;"/>
   </g>
   <g id="patch_59">
    <path clip-path="url(#pdb034c2a89)" d="M 412.18354 384.48 
L 412.18354 51.84 
L 415.785476 51.84 
L 415.785476 384.48 
z
" style="fill:#008000;opacity:0.04;"/>
   </g>
   <g id="patch_60">
    <path clip-path="url(#pdb034c2a89)" d="M 419.387413 384.48 
L 419.387413 51.84 
L 422.989349 51.84 
L 422.989349 384.48 
z
" style="fill:#008000;opacity:0.04;"/>
   </g>
   <g id="patch_61">
    <path clip-path="url(#pdb034c2a89)" d="M 426.591286 384.48 
L 426.591286 51.84 
L 430.193222 51.84 
L 430.193222 384.48 
z
" style="fill:#008000;opacity:0.04;"/>
   </g>
   <g id="patch_62">
    <path clip-path="url(#pdb034c2a89)" d="M 426.591286 384.48 
L 426.591286 371.1744 
L 430.193222 371.1744 
L 430.193222 384.48 
z
" style="fill:#ffe500;"/>
   </g>
   <g id="patch_63">
    <path clip-path="url(#pdb034c2a89)" d="M 433.795159 384.48 
L 433.795159 51.84 
L 437.397095 51.84 
L 437.397095 384.48 
z
" style="fill:#008000;opacity:0.04;"/>
   </g>
   <g id="patch_64">
    <path clip-path="url(#pdb034c2a89)" d="M 440.999032 384.48 
L 440.999032 51.84 
L 444.600968 51.84 
L 444.600968 384.48 
z
" style="fill:#008000;opacity:0.04;"/>
   </g>
   <g id="patch_65">
    <path clip-path="url(#pdb034c2a89)" d="M 743.5617 384.48 
L 743.5617 371.1744 
L 747.163636 371.1744 
L 747.163636 384.48 
z
" style="fill:#ff6600;"/>
   </g>
   <g id="patch_66">
    <path clip-path="url(#pdb034c2a89)" d="M 448.202905 384.48 
L 448.202905 51.84 
L 451.804841 51.84 
L 451.804841 384.48 
z
" style="fill:#008000;opacity:0.04;"/>
   </g>
   <g id="patch_67">
    <path clip-path="url(#pdb034c2a89)" d="M 455.406778 384.48 
L 455.406778 51.84 
L 459.008714 51.84 
L 459.008714 384.48 
z
" style="fill:#008000;opacity:0.04;"/>
   </g>
   <g id="patch_68">
    <path clip-path="url(#pdb034c2a89)" d="M 462.610651 384.48 
L 462.610651 51.84 
L 466.212587 51.84 
L 466.212587 384.48 
z
" style="fill:#008000;opacity:0.04;"/>
   </g>
   <g id="patch_69">
    <path clip-path="url(#pdb034c2a89)" d="M 462.610651 371.1744 
L 462.610651 51.84 
L 466.212587 51.84 
L 466.212587 371.1744 
z
" style="fill:#008000;opacity:0.5;"/>
   </g>
   <g id="patch_70">
    <path clip-path="url(#pdb034c2a89)" d="M 469.814524 384.48 
L 469.814524 51.84 
L 473.41646 51.84 
L 473.41646 384.48 
z
" style="fill:#008000;opacity:0.04;"/>
   </g>
   <g id="patch_71">
    <path clip-path="url(#pdb034c2a89)" d="M 477.018397 384.48 
L 477.018397 51.84 
L 480.620334 51.84 
L 480.620334 384.48 
z
" style="fill:#008000;opacity:0.04;"/>
   </g>
   <g id="patch_72">
    <path clip-path="url(#pdb034c2a89)" d="M 484.22227 384.48 
L 484.22227 51.84 
L 487.824207 51.84 
L 487.824207 384.48 
z
" style="fill:#008000;opacity:0.04;"/>
   </g>
   <g id="patch_73">
    <path clip-path="url(#pdb034c2a89)" d="M 491.426143 384.48 
L 491.426143 51.84 
L 495.02808 51.84 
L 495.02808 384.48 
z
" style="fill:#008000;opacity:0.04;"/>
   </g>
   <g id="patch_74">
    <path clip-path="url(#pdb034c2a89)" d="M 498.630016 384.48 
L 498.630016 51.84 
L 502.231953 51.84 
L 502.231953 384.48 
z
" style="fill:#008000;opacity:0.04;"/>
   </g>
   <g id="patch_75">
    <path clip-path="url(#pdb034c2a89)" d="M 498.630016 371.1744 
L 498.630016 51.84 
L 502.231953 51.84 
L 502.231953 371.1744 
z
" style="fill:#008000;opacity:0.5;"/>
   </g>
   <g id="patch_76">
    <path clip-path="url(#pdb034c2a89)" d="M 498.630016 371.1744 
L 498.630016 357.8688 
L 502.231953 357.8688 
L 502.231953 371.1744 
z
" style="fill:#ff00ff;"/>
   </g>
   <g id="patch_77">
    <path clip-path="url(#pdb034c2a89)" d="M 505.833889 384.48 
L 505.833889 51.84 
L 509.435826 51.84 
L 509.435826 384.48 
z
" style="fill:#008000;opacity:0.04;"/>
   </g>
   <g id="patch_78">
    <path clip-path="url(#pdb034c2a89)" d="M 513.037762 384.48 
L 513.037762 51.84 
L 516.639699 51.84 
L 516.639699 384.48 
z
" style="fill:#008000;opacity:0.04;"/>
   </g>
   <g id="patch_79">
    <path clip-path="url(#pdb034c2a89)" d="M 520.241635 384.48 
L 520.241635 51.84 
L 523.843572 51.84 
L 523.843572 384.48 
z
" style="fill:#008000;opacity:0.04;"/>
   </g>
   <g id="patch_80">
    <path clip-path="url(#pdb034c2a89)" d="M 527.445508 384.48 
L 527.445508 51.84 
L 531.047445 51.84 
L 531.047445 384.48 
z
" style="fill:#008000;opacity:0.04;"/>
   </g>
   <g id="patch_81">
    <path clip-path="url(#pdb034c2a89)" d="M 534.649381 384.48 
L 534.649381 51.84 
L 538.251318 51.84 
L 538.251318 384.48 
z
" style="fill:#008000;opacity:0.04;"/>
   </g>
   <g id="patch_82">
    <path clip-path="url(#pdb034c2a89)" d="M 541.853254 384.48 
L 541.853254 51.84 
L 545.455191 51.84 
L 545.455191 384.48 
z
" style="fill:#008000;opacity:0.04;"/>
   </g>
   <g id="patch_83">
    <path clip-path="url(#pdb034c2a89)" d="M 545.455191 371.1744 
L 545.455191 51.84 
L 549.057127 51.84 
L 549.057127 371.1744 
z
" style="fill:#008000;opacity:0.5;"/>
   </g>
   <g id="patch_84">
    <path clip-path="url(#pdb034c2a89)" d="M 549.057127 384.48 
L 549.057127 51.84 
L 552.659064 51.84 
L 552.659064 384.48 
z
" style="fill:#008000;opacity:0.04;"/>
   </g>
   <g id="patch_85">
    <path clip-path="url(#pdb034c2a89)" d="M 556.261001 384.48 
L 556.261001 51.84 
L 559.862937 51.84 
L 559.862937 384.48 
z
" style="fill:#008000;opacity:0.04;"/>
   </g>
   <g id="patch_86">
    <path clip-path="url(#pdb034c2a89)" d="M 563.464874 384.48 
L 563.464874 51.84 
L 567.06681 51.84 
L 567.06681 384.48 
z
" style="fill:#008000;opacity:0.04;"/>
   </g>
   <g id="patch_87">
    <path clip-path="url(#pdb034c2a89)" d="M 570.668747 384.48 
L 570.668747 51.84 
L 574.270683 51.84 
L 574.270683 384.48 
z
" style="fill:#008000;opacity:0.04;"/>
   </g>
   <g id="patch_88">
    <path clip-path="url(#pdb034c2a89)" d="M 577.87262 384.48 
L 577.87262 51.84 
L 581.474556 51.84 
L 581.474556 384.48 
z
" style="fill:#008000;opacity:0.04;"/>
   </g>
   <g id="patch_89">
    <path clip-path="url(#pdb034c2a89)" d="M 585.076493 384.48 
L 585.076493 51.84 
L 588.678429 51.84 
L 588.678429 384.48 
z
" style="fill:#008000;opacity:0.04;"/>
   </g>
   <g id="patch_90">
    <path clip-path="url(#pdb034c2a89)" d="M 592.280366 384.48 
L 592.280366 51.84 
L 595.882302 51.84 
L 595.882302 384.48 
z
" style="fill:#008000;opacity:0.04;"/>
   </g>
   <g id="patch_91">
    <path clip-path="url(#pdb034c2a89)" d="M 599.484239 384.48 
L 599.484239 51.84 
L 603.086175 51.84 
L 603.086175 384.48 
z
" style="fill:#008000;opacity:0.04;"/>
   </g>
   <g id="patch_92">
    <path clip-path="url(#pdb034c2a89)" d="M 606.688112 384.48 
L 606.688112 51.84 
L 610.290048 51.84 
L 610.290048 384.48 
z
" style="fill:#008000;opacity:0.04;"/>
   </g>
   <g id="patch_93">
    <path clip-path="url(#pdb034c2a89)" d="M 613.891985 384.48 
L 613.891985 51.84 
L 617.493921 51.84 
L 617.493921 384.48 
z
" style="fill:#008000;opacity:0.04;"/>
   </g>
   <g id="patch_94">
    <path clip-path="url(#pdb034c2a89)" d="M 621.095858 384.48 
L 621.095858 51.84 
L 624.697795 51.84 
L 624.697795 384.48 
z
" style="fill:#008000;opacity:0.04;"/>
   </g>
   <g id="patch_95">
    <path clip-path="url(#pdb034c2a89)" d="M 628.299731 384.48 
L 628.299731 51.84 
L 631.901668 51.84 
L 631.901668 384.48 
z
" style="fill:#008000;opacity:0.04;"/>
   </g>
   <g id="patch_96">
    <path clip-path="url(#pdb034c2a89)" d="M 631.901668 371.1744 
L 631.901668 51.84 
L 635.503604 51.84 
L 635.503604 371.1744 
z
" style="fill:#008000;opacity:0.5;"/>
   </g>
   <g id="patch_97">
    <path clip-path="url(#pdb034c2a89)" d="M 635.503604 384.48 
L 635.503604 51.84 
L 639.105541 51.84 
L 639.105541 384.48 
z
" style="fill:#008000;opacity:0.04;"/>
   </g>
   <g id="patch_98">
    <path clip-path="url(#pdb034c2a89)" d="M 642.707477 384.48 
L 642.707477 51.84 
L 646.309414 51.84 
L 646.309414 384.48 
z
" style="fill:#008000;opacity:0.04;"/>
   </g>
   <g id="patch_99">
    <path clip-path="url(#pdb034c2a89)" d="M 649.91135 384.48 
L 649.91135 51.84 
L 653.513287 51.84 
L 653.513287 384.48 
z
" style="fill:#008000;opacity:0.04;"/>
   </g>
   <g id="patch_100">
    <path clip-path="url(#pdb034c2a89)" d="M 657.115223 384.48 
L 657.115223 51.84 
L 660.71716 51.84 
L 660.71716 384.48 
z
" style="fill:#008000;opacity:0.04;"/>
   </g>
   <g id="patch_101">
    <path clip-path="url(#pdb034c2a89)" d="M 664.319096 384.48 
L 664.319096 51.84 
L 667.921033 51.84 
L 667.921033 384.48 
z
" style="fill:#008000;opacity:0.04;"/>
   </g>
   <g id="patch_102">
    <path clip-path="url(#pdb034c2a89)" d="M 671.522969 384.48 
L 671.522969 51.84 
L 675.124906 51.84 
L 675.124906 384.48 
z
" style="fill:#008000;opacity:0.04;"/>
   </g>
   <g id="patch_103">
    <path clip-path="url(#pdb034c2a89)" d="M 678.726842 384.48 
L 678.726842 51.84 
L 682.328779 51.84 
L 682.328779 384.48 
z
" style="fill:#008000;opacity:0.04;"/>
   </g>
   <g id="patch_104">
    <path clip-path="url(#pdb034c2a89)" d="M 685.930715 384.48 
L 685.930715 51.84 
L 689.532652 51.84 
L 689.532652 384.48 
z
" style="fill:#008000;opacity:0.04;"/>
   </g>
   <g id="patch_105">
    <path clip-path="url(#pdb034c2a89)" d="M 693.134588 384.48 
L 693.134588 51.84 
L 696.736525 51.84 
L 696.736525 384.48 
z
" style="fill:#008000;opacity:0.04;"/>
   </g>
   <g id="patch_106">
    <path clip-path="url(#pdb034c2a89)" d="M 700.338462 384.48 
L 700.338462 51.84 
L 703.940398 51.84 
L 703.940398 384.48 
z
" style="fill:#008000;opacity:0.04;"/>
   </g>
   <g id="patch_107">
    <path clip-path="url(#pdb034c2a89)" d="M 707.542335 384.48 
L 707.542335 51.84 
L 711.144271 51.84 
L 711.144271 384.48 
z
" style="fill:#008000;opacity:0.04;"/>
   </g>
   <g id="patch_108">
    <path clip-path="url(#pdb034c2a89)" d="M 714.746208 384.48 
L 714.746208 51.84 
L 718.348144 51.84 
L 718.348144 384.48 
z
" style="fill:#008000;opacity:0.04;"/>
   </g>
   <g id="patch_109">
    <path clip-path="url(#pdb034c2a89)" d="M 721.950081 384.48 
L 721.950081 51.84 
L 725.552017 51.84 
L 725.552017 384.48 
z
" style="fill:#008000;opacity:0.04;"/>
   </g>
   <g id="patch_110">
    <path clip-path="url(#pdb034c2a89)" d="M 729.153954 384.48 
L 729.153954 51.84 
L 732.75589 51.84 
L 732.75589 384.48 
z
" style="fill:#008000;opacity:0.04;"/>
   </g>
   <g id="patch_111">
    <path clip-path="url(#pdb034c2a89)" d="M 736.357827 384.48 
L 736.357827 51.84 
L 739.959763 51.84 
L 739.959763 384.48 
z
" style="fill:#008000;opacity:0.04;"/>
   </g>
   <g id="patch_112">
    <path clip-path="url(#pdb034c2a89)" d="M 743.5617 384.48 
L 743.5617 51.84 
L 747.163636 51.84 
L 747.163636 384.48 
z
" style="fill:#008000;opacity:0.04;"/>
   </g>
   <g id="matplotlib.axis_1">
    <g id="xtick_1">
     <g id="line2d_1">
      <defs>
       <path d="M 0 0 
L 0 3.5 
" id="m688e284c9f" style="stroke:#000000;stroke-width:0.8;"/>
      </defs>
      <g>
       <use style="stroke:#000000;stroke-width:0.8;" x="138.436364" xlink:href="#m688e284c9f" y="384.48"/>
      </g>
     </g>
     <g id="text_1">
      <!-- 0 -->
      <defs>
       <path d="M 31.78125 66.40625 
Q 24.171875 66.40625 20.328125 58.90625 
Q 16.5 51.421875 16.5 36.375 
Q 16.5 21.390625 20.328125 13.890625 
Q 24.171875 6.390625 31.78125 6.390625 
Q 39.453125 6.390625 43.28125 13.890625 
Q 47.125 21.390625 47.125 36.375 
Q 47.125 51.421875 43.28125 58.90625 
Q 39.453125 66.40625 31.78125 66.40625 
z
M 31.78125 74.21875 
Q 44.046875 74.21875 50.515625 64.515625 
Q 56.984375 54.828125 56.984375 36.375 
Q 56.984375 17.96875 50.515625 8.265625 
Q 44.046875 -1.421875 31.78125 -1.421875 
Q 19.53125 -1.421875 13.0625 8.265625 
Q 6.59375 17.96875 6.59375 36.375 
Q 6.59375 54.828125 13.0625 64.515625 
Q 19.53125 74.21875 31.78125 74.21875 
z
" id="DejaVuSans-48"/>
      </defs>
      <g transform="translate(135.255114 399.078438)scale(0.1 -0.1)">
       <use xlink:href="#DejaVuSans-48"/>
      </g>
     </g>
    </g>
    <g id="xtick_2">
     <g id="line2d_2">
      <g>
       <use style="stroke:#000000;stroke-width:0.8;" x="228.484777" xlink:href="#m688e284c9f" y="384.48"/>
      </g>
     </g>
     <g id="text_2">
      <!-- 250 -->
      <defs>
       <path d="M 19.1875 8.296875 
L 53.609375 8.296875 
L 53.609375 0 
L 7.328125 0 
L 7.328125 8.296875 
Q 12.9375 14.109375 22.625 23.890625 
Q 32.328125 33.6875 34.8125 36.53125 
Q 39.546875 41.84375 41.421875 45.53125 
Q 43.3125 49.21875 43.3125 52.78125 
Q 43.3125 58.59375 39.234375 62.25 
Q 35.15625 65.921875 28.609375 65.921875 
Q 23.96875 65.921875 18.8125 64.3125 
Q 13.671875 62.703125 7.8125 59.421875 
L 7.8125 69.390625 
Q 13.765625 71.78125 18.9375 73 
Q 24.125 74.21875 28.421875 74.21875 
Q 39.75 74.21875 46.484375 68.546875 
Q 53.21875 62.890625 53.21875 53.421875 
Q 53.21875 48.921875 51.53125 44.890625 
Q 49.859375 40.875 45.40625 35.40625 
Q 44.1875 33.984375 37.640625 27.21875 
Q 31.109375 20.453125 19.1875 8.296875 
z
" id="DejaVuSans-50"/>
       <path d="M 10.796875 72.90625 
L 49.515625 72.90625 
L 49.515625 64.59375 
L 19.828125 64.59375 
L 19.828125 46.734375 
Q 21.96875 47.46875 24.109375 47.828125 
Q 26.265625 48.1875 28.421875 48.1875 
Q 40.625 48.1875 47.75 41.5 
Q 54.890625 34.8125 54.890625 23.390625 
Q 54.890625 11.625 47.5625 5.09375 
Q 40.234375 -1.421875 26.90625 -1.421875 
Q 22.3125 -1.421875 17.546875 -0.640625 
Q 12.796875 0.140625 7.71875 1.703125 
L 7.71875 11.625 
Q 12.109375 9.234375 16.796875 8.0625 
Q 21.484375 6.890625 26.703125 6.890625 
Q 35.15625 6.890625 40.078125 11.328125 
Q 45.015625 15.765625 45.015625 23.390625 
Q 45.015625 31 40.078125 35.4375 
Q 35.15625 39.890625 26.703125 39.890625 
Q 22.75 39.890625 18.8125 39.015625 
Q 14.890625 38.140625 10.796875 36.28125 
z
" id="DejaVuSans-53"/>
      </defs>
      <g transform="translate(218.941027 399.078438)scale(0.1 -0.1)">
       <use xlink:href="#DejaVuSans-50"/>
       <use x="63.623047" xlink:href="#DejaVuSans-53"/>
       <use x="127.246094" xlink:href="#DejaVuSans-48"/>
      </g>
     </g>
    </g>
    <g id="xtick_3">
     <g id="line2d_3">
      <g>
       <use style="stroke:#000000;stroke-width:0.8;" x="318.53319" xlink:href="#m688e284c9f" y="384.48"/>
      </g>
     </g>
     <g id="text_3">
      <!-- 500 -->
      <g transform="translate(308.98944 399.078438)scale(0.1 -0.1)">
       <use xlink:href="#DejaVuSans-53"/>
       <use x="63.623047" xlink:href="#DejaVuSans-48"/>
       <use x="127.246094" xlink:href="#DejaVuSans-48"/>
      </g>
     </g>
    </g>
    <g id="xtick_4">
     <g id="line2d_4">
      <g>
       <use style="stroke:#000000;stroke-width:0.8;" x="408.581603" xlink:href="#m688e284c9f" y="384.48"/>
      </g>
     </g>
     <g id="text_4">
      <!-- 750 -->
      <defs>
       <path d="M 8.203125 72.90625 
L 55.078125 72.90625 
L 55.078125 68.703125 
L 28.609375 0 
L 18.3125 0 
L 43.21875 64.59375 
L 8.203125 64.59375 
z
" id="DejaVuSans-55"/>
      </defs>
      <g transform="translate(399.037853 399.078438)scale(0.1 -0.1)">
       <use xlink:href="#DejaVuSans-55"/>
       <use x="63.623047" xlink:href="#DejaVuSans-53"/>
       <use x="127.246094" xlink:href="#DejaVuSans-48"/>
      </g>
     </g>
    </g>
    <g id="xtick_5">
     <g id="line2d_5">
      <g>
       <use style="stroke:#000000;stroke-width:0.8;" x="498.630016" xlink:href="#m688e284c9f" y="384.48"/>
      </g>
     </g>
     <g id="text_5">
      <!-- 1000 -->
      <defs>
       <path d="M 12.40625 8.296875 
L 28.515625 8.296875 
L 28.515625 63.921875 
L 10.984375 60.40625 
L 10.984375 69.390625 
L 28.421875 72.90625 
L 38.28125 72.90625 
L 38.28125 8.296875 
L 54.390625 8.296875 
L 54.390625 0 
L 12.40625 0 
z
" id="DejaVuSans-49"/>
      </defs>
      <g transform="translate(485.905016 399.078438)scale(0.1 -0.1)">
       <use xlink:href="#DejaVuSans-49"/>
       <use x="63.623047" xlink:href="#DejaVuSans-48"/>
       <use x="127.246094" xlink:href="#DejaVuSans-48"/>
       <use x="190.869141" xlink:href="#DejaVuSans-48"/>
      </g>
     </g>
    </g>
    <g id="xtick_6">
     <g id="line2d_6">
      <g>
       <use style="stroke:#000000;stroke-width:0.8;" x="588.678429" xlink:href="#m688e284c9f" y="384.48"/>
      </g>
     </g>
     <g id="text_6">
      <!-- 1250 -->
      <g transform="translate(575.953429 399.078438)scale(0.1 -0.1)">
       <use xlink:href="#DejaVuSans-49"/>
       <use x="63.623047" xlink:href="#DejaVuSans-50"/>
       <use x="127.246094" xlink:href="#DejaVuSans-53"/>
       <use x="190.869141" xlink:href="#DejaVuSans-48"/>
      </g>
     </g>
    </g>
    <g id="xtick_7">
     <g id="line2d_7">
      <g>
       <use style="stroke:#000000;stroke-width:0.8;" x="678.726842" xlink:href="#m688e284c9f" y="384.48"/>
      </g>
     </g>
     <g id="text_7">
      <!-- 1500 -->
      <g transform="translate(666.001842 399.078438)scale(0.1 -0.1)">
       <use xlink:href="#DejaVuSans-49"/>
       <use x="63.623047" xlink:href="#DejaVuSans-53"/>
       <use x="127.246094" xlink:href="#DejaVuSans-48"/>
       <use x="190.869141" xlink:href="#DejaVuSans-48"/>
      </g>
     </g>
    </g>
    <g id="xtick_8">
     <g id="line2d_8">
      <g>
       <use style="stroke:#000000;stroke-width:0.8;" x="768.775256" xlink:href="#m688e284c9f" y="384.48"/>
      </g>
     </g>
     <g id="text_8">
      <!-- 1750 -->
      <g transform="translate(756.050256 399.078438)scale(0.1 -0.1)">
       <use xlink:href="#DejaVuSans-49"/>
       <use x="63.623047" xlink:href="#DejaVuSans-55"/>
       <use x="127.246094" xlink:href="#DejaVuSans-53"/>
       <use x="190.869141" xlink:href="#DejaVuSans-48"/>
      </g>
     </g>
    </g>
    <g id="text_9">
     <!-- Timestamp -->
     <defs>
      <path d="M -0.296875 72.90625 
L 61.375 72.90625 
L 61.375 64.59375 
L 35.5 64.59375 
L 35.5 0 
L 25.59375 0 
L 25.59375 64.59375 
L -0.296875 64.59375 
z
" id="DejaVuSans-84"/>
      <path d="M 9.421875 54.6875 
L 18.40625 54.6875 
L 18.40625 0 
L 9.421875 0 
z
M 9.421875 75.984375 
L 18.40625 75.984375 
L 18.40625 64.59375 
L 9.421875 64.59375 
z
" id="DejaVuSans-105"/>
      <path d="M 52 44.1875 
Q 55.375 50.25 60.0625 53.125 
Q 64.75 56 71.09375 56 
Q 79.640625 56 84.28125 50.015625 
Q 88.921875 44.046875 88.921875 33.015625 
L 88.921875 0 
L 79.890625 0 
L 79.890625 32.71875 
Q 79.890625 40.578125 77.09375 44.375 
Q 74.3125 48.1875 68.609375 48.1875 
Q 61.625 48.1875 57.5625 43.546875 
Q 53.515625 38.921875 53.515625 30.90625 
L 53.515625 0 
L 44.484375 0 
L 44.484375 32.71875 
Q 44.484375 40.625 41.703125 44.40625 
Q 38.921875 48.1875 33.109375 48.1875 
Q 26.21875 48.1875 22.15625 43.53125 
Q 18.109375 38.875 18.109375 30.90625 
L 18.109375 0 
L 9.078125 0 
L 9.078125 54.6875 
L 18.109375 54.6875 
L 18.109375 46.1875 
Q 21.1875 51.21875 25.484375 53.609375 
Q 29.78125 56 35.6875 56 
Q 41.65625 56 45.828125 52.96875 
Q 50 49.953125 52 44.1875 
z
" id="DejaVuSans-109"/>
      <path d="M 56.203125 29.59375 
L 56.203125 25.203125 
L 14.890625 25.203125 
Q 15.484375 15.921875 20.484375 11.0625 
Q 25.484375 6.203125 34.421875 6.203125 
Q 39.59375 6.203125 44.453125 7.46875 
Q 49.3125 8.734375 54.109375 11.28125 
L 54.109375 2.78125 
Q 49.265625 0.734375 44.1875 -0.34375 
Q 39.109375 -1.421875 33.890625 -1.421875 
Q 20.796875 -1.421875 13.15625 6.1875 
Q 5.515625 13.8125 5.515625 26.8125 
Q 5.515625 40.234375 12.765625 48.109375 
Q 20.015625 56 32.328125 56 
Q 43.359375 56 49.78125 48.890625 
Q 56.203125 41.796875 56.203125 29.59375 
z
M 47.21875 32.234375 
Q 47.125 39.59375 43.09375 43.984375 
Q 39.0625 48.390625 32.421875 48.390625 
Q 24.90625 48.390625 20.390625 44.140625 
Q 15.875 39.890625 15.1875 32.171875 
z
" id="DejaVuSans-101"/>
      <path d="M 44.28125 53.078125 
L 44.28125 44.578125 
Q 40.484375 46.53125 36.375 47.5 
Q 32.28125 48.484375 27.875 48.484375 
Q 21.1875 48.484375 17.84375 46.4375 
Q 14.5 44.390625 14.5 40.28125 
Q 14.5 37.15625 16.890625 35.375 
Q 19.28125 33.59375 26.515625 31.984375 
L 29.59375 31.296875 
Q 39.15625 29.25 43.1875 25.515625 
Q 47.21875 21.78125 47.21875 15.09375 
Q 47.21875 7.46875 41.1875 3.015625 
Q 35.15625 -1.421875 24.609375 -1.421875 
Q 20.21875 -1.421875 15.453125 -0.5625 
Q 10.6875 0.296875 5.421875 2 
L 5.421875 11.28125 
Q 10.40625 8.6875 15.234375 7.390625 
Q 20.0625 6.109375 24.8125 6.109375 
Q 31.15625 6.109375 34.5625 8.28125 
Q 37.984375 10.453125 37.984375 14.40625 
Q 37.984375 18.0625 35.515625 20.015625 
Q 33.0625 21.96875 24.703125 23.78125 
L 21.578125 24.515625 
Q 13.234375 26.265625 9.515625 29.90625 
Q 5.8125 33.546875 5.8125 39.890625 
Q 5.8125 47.609375 11.28125 51.796875 
Q 16.75 56 26.8125 56 
Q 31.78125 56 36.171875 55.265625 
Q 40.578125 54.546875 44.28125 53.078125 
z
" id="DejaVuSans-115"/>
      <path d="M 18.3125 70.21875 
L 18.3125 54.6875 
L 36.8125 54.6875 
L 36.8125 47.703125 
L 18.3125 47.703125 
L 18.3125 18.015625 
Q 18.3125 11.328125 20.140625 9.421875 
Q 21.96875 7.515625 27.59375 7.515625 
L 36.8125 7.515625 
L 36.8125 0 
L 27.59375 0 
Q 17.1875 0 13.234375 3.875 
Q 9.28125 7.765625 9.28125 18.015625 
L 9.28125 47.703125 
L 2.6875 47.703125 
L 2.6875 54.6875 
L 9.28125 54.6875 
L 9.28125 70.21875 
z
" id="DejaVuSans-116"/>
      <path d="M 34.28125 27.484375 
Q 23.390625 27.484375 19.1875 25 
Q 14.984375 22.515625 14.984375 16.5 
Q 14.984375 11.71875 18.140625 8.90625 
Q 21.296875 6.109375 26.703125 6.109375 
Q 34.1875 6.109375 38.703125 11.40625 
Q 43.21875 16.703125 43.21875 25.484375 
L 43.21875 27.484375 
z
M 52.203125 31.203125 
L 52.203125 0 
L 43.21875 0 
L 43.21875 8.296875 
Q 40.140625 3.328125 35.546875 0.953125 
Q 30.953125 -1.421875 24.3125 -1.421875 
Q 15.921875 -1.421875 10.953125 3.296875 
Q 6 8.015625 6 15.921875 
Q 6 25.140625 12.171875 29.828125 
Q 18.359375 34.515625 30.609375 34.515625 
L 43.21875 34.515625 
L 43.21875 35.40625 
Q 43.21875 41.609375 39.140625 45 
Q 35.0625 48.390625 27.6875 48.390625 
Q 23 48.390625 18.546875 47.265625 
Q 14.109375 46.140625 10.015625 43.890625 
L 10.015625 52.203125 
Q 14.9375 54.109375 19.578125 55.046875 
Q 24.21875 56 28.609375 56 
Q 40.484375 56 46.34375 49.84375 
Q 52.203125 43.703125 52.203125 31.203125 
z
" id="DejaVuSans-97"/>
      <path d="M 18.109375 8.203125 
L 18.109375 -20.796875 
L 9.078125 -20.796875 
L 9.078125 54.6875 
L 18.109375 54.6875 
L 18.109375 46.390625 
Q 20.953125 51.265625 25.265625 53.625 
Q 29.59375 56 35.59375 56 
Q 45.5625 56 51.78125 48.09375 
Q 58.015625 40.1875 58.015625 27.296875 
Q 58.015625 14.40625 51.78125 6.484375 
Q 45.5625 -1.421875 35.59375 -1.421875 
Q 29.59375 -1.421875 25.265625 0.953125 
Q 20.953125 3.328125 18.109375 8.203125 
z
M 48.6875 27.296875 
Q 48.6875 37.203125 44.609375 42.84375 
Q 40.53125 48.484375 33.40625 48.484375 
Q 26.265625 48.484375 22.1875 42.84375 
Q 18.109375 37.203125 18.109375 27.296875 
Q 18.109375 17.390625 22.1875 11.75 
Q 26.265625 6.109375 33.40625 6.109375 
Q 40.53125 6.109375 44.609375 11.75 
Q 48.6875 17.390625 48.6875 27.296875 
z
" id="DejaVuSans-112"/>
     </defs>
     <g transform="translate(414.739062 412.756563)scale(0.1 -0.1)">
      <use xlink:href="#DejaVuSans-84"/>
      <use x="61.037109" xlink:href="#DejaVuSans-105"/>
      <use x="88.820312" xlink:href="#DejaVuSans-109"/>
      <use x="186.232422" xlink:href="#DejaVuSans-101"/>
      <use x="247.755859" xlink:href="#DejaVuSans-115"/>
      <use x="299.855469" xlink:href="#DejaVuSans-116"/>
      <use x="339.064453" xlink:href="#DejaVuSans-97"/>
      <use x="400.34375" xlink:href="#DejaVuSans-109"/>
      <use x="497.755859" xlink:href="#DejaVuSans-112"/>
     </g>
    </g>
   </g>
   <g id="matplotlib.axis_2">
    <g id="ytick_1">
     <g id="line2d_9">
      <defs>
       <path d="M 0 0 
L -3.5 0 
" id="mb2f5729630" style="stroke:#000000;stroke-width:0.8;"/>
      </defs>
      <g>
       <use style="stroke:#000000;stroke-width:0.8;" x="108" xlink:href="#mb2f5729630" y="381.820458"/>
      </g>
     </g>
     <g id="text_10">
      <!-- −2000 -->
      <defs>
       <path d="M 10.59375 35.5 
L 73.1875 35.5 
L 73.1875 27.203125 
L 10.59375 27.203125 
z
" id="DejaVuSans-8722"/>
      </defs>
      <g transform="translate(67.170312 385.619677)scale(0.1 -0.1)">
       <use xlink:href="#DejaVuSans-8722"/>
       <use x="83.789062" xlink:href="#DejaVuSans-50"/>
       <use x="147.412109" xlink:href="#DejaVuSans-48"/>
       <use x="211.035156" xlink:href="#DejaVuSans-48"/>
       <use x="274.658203" xlink:href="#DejaVuSans-48"/>
      </g>
     </g>
    </g>
    <g id="ytick_2">
     <g id="line2d_10">
      <g>
       <use style="stroke:#000000;stroke-width:0.8;" x="108" xlink:href="#mb2f5729630" y="320.422368"/>
      </g>
     </g>
     <g id="text_11">
      <!-- −1500 -->
      <g transform="translate(67.170312 324.221586)scale(0.1 -0.1)">
       <use xlink:href="#DejaVuSans-8722"/>
       <use x="83.789062" xlink:href="#DejaVuSans-49"/>
       <use x="147.412109" xlink:href="#DejaVuSans-53"/>
       <use x="211.035156" xlink:href="#DejaVuSans-48"/>
       <use x="274.658203" xlink:href="#DejaVuSans-48"/>
      </g>
     </g>
    </g>
    <g id="ytick_3">
     <g id="line2d_11">
      <g>
       <use style="stroke:#000000;stroke-width:0.8;" x="108" xlink:href="#mb2f5729630" y="259.024277"/>
      </g>
     </g>
     <g id="text_12">
      <!-- −1000 -->
      <g transform="translate(67.170312 262.823496)scale(0.1 -0.1)">
       <use xlink:href="#DejaVuSans-8722"/>
       <use x="83.789062" xlink:href="#DejaVuSans-49"/>
       <use x="147.412109" xlink:href="#DejaVuSans-48"/>
       <use x="211.035156" xlink:href="#DejaVuSans-48"/>
       <use x="274.658203" xlink:href="#DejaVuSans-48"/>
      </g>
     </g>
    </g>
    <g id="ytick_4">
     <g id="line2d_12">
      <g>
       <use style="stroke:#000000;stroke-width:0.8;" x="108" xlink:href="#mb2f5729630" y="197.626187"/>
      </g>
     </g>
     <g id="text_13">
      <!-- −500 -->
      <g transform="translate(73.532813 201.425406)scale(0.1 -0.1)">
       <use xlink:href="#DejaVuSans-8722"/>
       <use x="83.789062" xlink:href="#DejaVuSans-53"/>
       <use x="147.412109" xlink:href="#DejaVuSans-48"/>
       <use x="211.035156" xlink:href="#DejaVuSans-48"/>
      </g>
     </g>
    </g>
    <g id="ytick_5">
     <g id="line2d_13">
      <g>
       <use style="stroke:#000000;stroke-width:0.8;" x="108" xlink:href="#mb2f5729630" y="136.228097"/>
      </g>
     </g>
     <g id="text_14">
      <!-- 0 -->
      <g transform="translate(94.6375 140.027315)scale(0.1 -0.1)">
       <use xlink:href="#DejaVuSans-48"/>
      </g>
     </g>
    </g>
    <g id="ytick_6">
     <g id="line2d_14">
      <g>
       <use style="stroke:#000000;stroke-width:0.8;" x="108" xlink:href="#mb2f5729630" y="74.830006"/>
      </g>
     </g>
     <g id="text_15">
      <!-- 500 -->
      <g transform="translate(81.9125 78.629225)scale(0.1 -0.1)">
       <use xlink:href="#DejaVuSans-53"/>
       <use x="63.623047" xlink:href="#DejaVuSans-48"/>
       <use x="127.246094" xlink:href="#DejaVuSans-48"/>
      </g>
     </g>
    </g>
    <g id="text_16">
     <!-- Value -->
     <defs>
      <path d="M 28.609375 0 
L 0.78125 72.90625 
L 11.078125 72.90625 
L 34.1875 11.53125 
L 57.328125 72.90625 
L 67.578125 72.90625 
L 39.796875 0 
z
" id="DejaVuSans-86"/>
      <path d="M 9.421875 75.984375 
L 18.40625 75.984375 
L 18.40625 0 
L 9.421875 0 
z
" id="DejaVuSans-108"/>
      <path d="M 8.5 21.578125 
L 8.5 54.6875 
L 17.484375 54.6875 
L 17.484375 21.921875 
Q 17.484375 14.15625 20.5 10.265625 
Q 23.53125 6.390625 29.59375 6.390625 
Q 36.859375 6.390625 41.078125 11.03125 
Q 45.3125 15.671875 45.3125 23.6875 
L 45.3125 54.6875 
L 54.296875 54.6875 
L 54.296875 0 
L 45.3125 0 
L 45.3125 8.40625 
Q 42.046875 3.421875 37.71875 1 
Q 33.40625 -1.421875 27.6875 -1.421875 
Q 18.265625 -1.421875 13.375 4.4375 
Q 8.5 10.296875 8.5 21.578125 
z
M 31.109375 56 
z
" id="DejaVuSans-117"/>
     </defs>
     <g transform="translate(61.090625 232.273281)rotate(-90)scale(0.1 -0.1)">
      <use xlink:href="#DejaVuSans-86"/>
      <use x="68.298828" xlink:href="#DejaVuSans-97"/>
      <use x="129.578125" xlink:href="#DejaVuSans-108"/>
      <use x="157.361328" xlink:href="#DejaVuSans-117"/>
      <use x="220.740234" xlink:href="#DejaVuSans-101"/>
     </g>
    </g>
   </g>
   <g id="line2d_15">
    <path clip-path="url(#pdb034c2a89)" d="M 138.436364 137.487851 
L 139.156751 104.241744 
L 139.516945 96.994352 
L 139.877138 93.704451 
L 140.597526 108.677166 
L 140.957719 122.280993 
L 141.317913 131.067438 
L 141.678107 136.24614 
L 142.0383 137.753184 
L 142.398494 131.997645 
L 142.758687 128.05603 
L 143.118881 120.799763 
L 143.479075 116.125901 
L 143.839268 118.481374 
L 144.199462 124.31185 
L 145.280043 156.297543 
L 145.640237 164.978368 
L 146.00043 159.817919 
L 146.360624 151.847032 
L 147.081011 121.842721 
L 147.441205 101.03955 
L 148.161592 79.355167 
L 148.521786 79.613021 
L 148.88198 85.047222 
L 149.962561 118.437827 
L 150.322754 125.525586 
L 150.682948 125.488187 
L 151.043141 124.871325 
L 151.763529 110.741148 
L 152.123722 106.399762 
L 152.483916 109.862224 
L 152.84411 114.750996 
L 153.564497 136.593263 
L 154.284884 156.049633 
L 154.645078 154.864241 
L 155.005272 147.860751 
L 155.365465 135.659156 
L 156.085853 100.206031 
L 156.446046 87.033608 
L 156.80624 79.699947 
L 157.166434 76.419149 
L 157.526627 84.36197 
L 158.607208 121.145105 
L 158.967402 126.867667 
L 159.327595 129.26766 
L 159.687789 127.080765 
L 160.408176 116.088273 
L 160.76837 112.257262 
L 161.128564 114.783789 
L 161.488757 122.570478 
L 162.929532 164.977556 
L 163.289726 163.616005 
L 163.649919 157.092408 
L 165.090694 97.515525 
L 165.450888 90.585154 
L 165.811081 89.823537 
L 166.171275 97.329649 
L 167.251856 134.25987 
L 167.612049 139.521184 
L 167.972243 142.550674 
L 168.332437 141.483768 
L 168.69263 184.762754 
L 169.052824 130.397845 
L 169.413018 130.830987 
L 169.773211 130.789378 
L 170.133405 137.641945 
L 170.493599 148.554129 
L 171.213986 175.092008 
L 171.57418 181.328842 
L 171.934373 181.95938 
L 172.294567 175.230904 
L 174.095535 106.881842 
L 174.455729 108.229405 
L 174.815923 115.152409 
L 175.176116 125.990723 
L 175.53631 140.444391 
L 176.256697 158.202271 
L 176.616891 157.814712 
L 176.977084 157.959953 
L 177.697472 145.633827 
L 178.057665 144.277692 
L 178.417859 145.515618 
L 178.778053 151.042427 
L 179.858634 188.779568 
L 180.218827 192.590812 
L 180.579021 192.319732 
L 180.939215 185.590255 
L 181.659602 156.774965 
L 182.379989 124.508852 
L 182.740183 116.061763 
L 183.100377 116.379543 
L 183.46057 123.086339 
L 183.820764 132.143812 
L 184.180958 146.679487 
L 184.901345 162.423539 
L 185.261538 164.589824 
L 185.621732 162.193803 
L 186.342119 149.017733 
L 186.702313 146.282888 
L 187.062507 147.597209 
L 187.4227 152.834834 
L 188.503281 186.399649 
L 188.863475 192.80836 
L 189.223669 189.481347 
L 189.583862 182.705632 
L 189.944056 169.786443 
L 191.024637 120.53482 
L 191.384831 110.29272 
L 191.745024 112.002587 
L 192.105218 116.423265 
L 193.185799 150.24683 
L 193.545992 154.160444 
L 193.906186 155.796579 
L 194.26638 151.833956 
L 194.626573 143.358874 
L 195.346961 132.761064 
L 195.707154 135.521547 
L 196.067348 140.396464 
L 196.427542 148.975021 
L 197.147929 172.749729 
L 197.508123 176.41429 
L 197.868316 177.725407 
L 198.22851 169.150426 
L 198.588704 153.201735 
L 198.948897 87.720097 
L 199.309091 116.592001 
L 199.669285 102.81495 
L 200.029478 94.956529 
L 200.389672 96.256411 
L 200.749866 99.421627 
L 201.830446 130.125994 
L 202.19064 138.325342 
L 202.550834 139.91642 
L 202.911027 135.389977 
L 203.271221 126.208071 
L 203.991608 117.242043 
L 204.351802 118.622061 
L 204.711996 124.229369 
L 205.072189 134.161205 
L 205.432383 147.660452 
L 206.15277 161.822028 
L 206.512964 160.841689 
L 206.873158 153.071993 
L 207.593545 121.816139 
L 208.313932 88.750519 
L 208.674126 79.684927 
L 209.03432 79.304146 
L 209.754707 97.638999 
L 210.475094 119.979047 
L 210.835288 124.760771 
L 211.195481 125.834125 
L 211.555675 123.97099 
L 212.276062 109.100017 
L 212.636256 108.938636 
L 212.99645 106.993463 
L 213.716837 127.003541 
L 214.437224 148.15504 
L 214.797418 156.086054 
L 215.157612 155.690762 
L 215.517805 148.772703 
L 217.318774 77.334546 
L 217.678967 79.278476 
L 218.039161 84.793014 
L 219.119742 120.082468 
L 219.479935 128.336141 
L 219.840129 128.340573 
L 220.200323 124.574828 
L 220.560516 119.397283 
L 220.92071 116.356999 
L 221.280904 114.493818 
L 221.641097 115.762587 
L 222.001291 122.055325 
L 223.081872 156.609901 
L 223.442066 211.865141 
L 223.802259 164.74833 
L 224.522647 144.267482 
L 225.603228 96.58968 
L 226.323615 90.573954 
L 226.683808 98.799602 
L 227.404196 123.218444 
L 227.764389 135.292363 
L 228.124583 141.874382 
L 228.484777 144.304066 
L 228.84497 140.976914 
L 229.565358 130.596204 
L 229.925551 130.779467 
L 230.285745 131.951303 
L 230.645939 138.646352 
L 232.086713 180.879675 
L 232.446907 181.718156 
L 232.807101 174.152675 
L 233.167294 162.290704 
L 234.247875 115.959106 
L 234.608069 106.289705 
L 234.968263 109.286972 
L 235.328456 113.32247 
L 236.409037 149.01553 
L 236.769231 157.713948 
L 237.129424 159.287306 
L 237.489618 159.607374 
L 237.849812 150.485991 
L 238.210005 146.44001 
L 238.570199 144.702894 
L 238.930393 146.238858 
L 239.290586 151.006203 
L 240.371167 187.602671 
L 240.731361 195.346797 
L 241.451748 187.146767 
L 242.172136 153.382684 
L 242.892523 123.334577 
L 243.252717 115.773755 
L 243.61291 118.074098 
L 243.973104 122.909104 
L 245.413878 165.081232 
L 245.774072 162.760049 
L 246.134266 157.256351 
L 246.494459 154.445875 
L 247.214847 146.443798 
L 247.57504 145.458281 
L 248.295428 164.044986 
L 248.655621 176.309356 
L 249.376009 191.866672 
L 249.736202 191.574862 
L 250.096396 183.165782 
L 250.45659 169.645731 
L 251.537171 119.343266 
L 251.897364 113.359955 
L 252.257558 110.573268 
L 252.617751 116.759788 
L 252.977945 125.931435 
L 253.698332 148.079619 
L 254.058526 154.154101 
L 254.41872 154.590075 
L 255.859494 134.507789 
L 256.219688 135.77647 
L 256.579882 141.761301 
L 256.940075 149.69411 
L 257.660463 171.928536 
L 258.020656 177.453532 
L 258.38085 177.444784 
L 258.741044 170.08994 
L 259.461431 136.690539 
L 260.181818 104.891245 
L 260.542012 94.515488 
L 260.902205 94.656696 
L 261.262399 99.689694 
L 262.34298 132.775113 
L 263.063367 138.079096 
L 264.504142 117.64997 
L 264.864336 117.345563 
L 265.224529 124.157212 
L 266.665304 161.231677 
L 267.025498 161.267459 
L 267.745885 139.108893 
L 268.826466 88.26235 
L 269.186659 79.811819 
L 269.546853 80.86282 
L 269.907047 85.136237 
L 270.987628 118.28651 
L 271.347821 124.083709 
L 271.708015 125.60023 
L 272.428402 117.299726 
L 273.14879 107.533175 
L 273.508983 110.384704 
L 273.869177 116.12644 
L 275.309952 156.260189 
L 275.670145 155.343542 
L 276.030339 148.373487 
L 276.750726 117.599656 
L 277.471114 87.382959 
L 277.831307 79.404876 
L 278.191501 76.562255 
L 278.551694 84.47258 
L 279.632275 122.58986 
L 279.992469 126.970419 
L 280.352663 128.148787 
L 280.712856 125.655404 
L 281.07305 121.743056 
L 281.433244 115.902136 
L 281.793437 113.693201 
L 282.153631 113.911313 
L 282.874018 133.107193 
L 283.594406 156.919793 
L 283.954599 164.314571 
L 284.314793 164.13021 
L 285.03518 143.245854 
L 286.115761 98.474256 
L 286.475955 91.019661 
L 286.836148 91.832686 
L 287.196342 98.160538 
L 288.637117 143.738548 
L 288.99731 144.480043 
L 289.357504 141.675792 
L 289.717698 137.630812 
L 290.077891 129.806276 
L 290.438085 127.865599 
L 290.798279 129.919764 
L 291.158472 137.885797 
L 291.87886 162.189366 
L 292.239053 175.28026 
L 292.599247 182.025405 
L 292.959441 180.909522 
L 293.319634 172.73696 
L 293.679828 161.867893 
L 294.400215 128.423034 
L 294.760409 115.370616 
L 295.120602 109.239187 
L 295.480796 109.265802 
L 295.84099 116.114704 
L 296.201183 126.186847 
L 296.561377 140.457967 
L 297.281764 155.117714 
L 297.641958 159.049109 
L 298.002152 155.912315 
L 299.082733 141.630188 
L 299.442926 144.100786 
L 299.80312 151.255579 
L 300.523507 176.042955 
L 300.883701 188.55389 
L 301.243895 194.650512 
L 301.604088 193.625029 
L 301.964282 188.635973 
L 303.405056 125.677226 
L 303.76525 117.76811 
L 304.125444 117.083495 
L 304.845831 134.76079 
L 305.566218 157.046844 
L 305.926412 163.317371 
L 306.286606 163.334309 
L 306.646799 160.851924 
L 307.367187 149.026524 
L 307.72738 146.252933 
L 308.087574 149.114724 
L 308.447768 153.32613 
L 309.528349 186.220009 
L 309.888542 192.117721 
L 310.248736 191.178374 
L 310.60893 183.159732 
L 310.969123 170.035631 
L 312.049704 120.487689 
L 312.409898 112.618975 
L 312.770091 110.403142 
L 313.130285 115.847099 
L 314.210866 146.835507 
L 314.57106 154.257034 
L 314.931253 155.458963 
L 316.372028 134.414105 
L 316.732222 135.704941 
L 317.452609 152.247728 
L 318.172996 172.542657 
L 318.53319 179.761177 
L 318.893384 178.535836 
L 319.253577 168.482226 
L 319.973964 137.129737 
L 320.334158 116.975912 
L 320.694352 103.984097 
L 321.054545 95.154598 
L 321.414739 92.885288 
L 321.774933 99.890828 
L 323.215707 137.762246 
L 323.575901 136.993817 
L 323.936095 134.16777 
L 324.656482 120.285362 
L 325.016676 118.127995 
L 325.376869 118.224077 
L 325.737063 122.486757 
L 326.817644 156.318394 
L 327.177838 161.509294 
L 327.538031 159.202262 
L 327.898225 152.838233 
L 328.618612 121.174003 
L 329.338999 88.635596 
L 329.699193 80.12689 
L 330.059387 81.801116 
L 330.41958 85.872059 
L 331.500161 119.139612 
L 331.860355 126.640628 
L 332.220549 126.860512 
L 332.580742 122.96345 
L 333.30113 111.398277 
L 333.661323 109.497073 
L 334.021517 108.472646 
L 334.381711 114.050865 
L 335.462292 148.047605 
L 335.822485 157.001774 
L 336.182679 155.63767 
L 336.542873 148.612869 
L 337.26326 117.745113 
L 337.623453 98.996696 
L 337.983647 86.100382 
L 338.343841 80.69922 
L 338.704034 78.891018 
L 340.144809 120.223074 
L 340.505003 126.879732 
L 340.865196 129.939238 
L 341.22539 126.449041 
L 341.945777 114.944455 
L 342.305971 112.066719 
L 342.666165 114.492196 
L 343.026358 120.720984 
L 344.106939 157.62027 
L 344.467133 164.078495 
L 344.827327 164.132744 
L 345.18752 157.065711 
L 345.547714 145.21968 
L 346.268101 110.905473 
L 346.628295 98.437652 
L 346.988488 91.105139 
L 347.348682 90.01194 
L 347.708876 98.906575 
L 348.789457 134.063149 
L 349.14965 141.275088 
L 349.509844 144.020061 
L 349.870038 141.215538 
L 350.950619 128.900002 
L 351.310812 131.041527 
L 352.0312 149.582204 
L 352.751587 173.65414 
L 353.111781 181.048817 
L 353.471974 181.275554 
L 353.832168 174.918384 
L 354.552555 145.910856 
L 355.272942 115.320325 
L 355.633136 108.141036 
L 355.99333 108.710578 
L 356.713717 126.346489 
L 357.434104 151.993278 
L 357.794298 158.241645 
L 358.154492 159.868468 
L 359.235073 145.442511 
L 359.595266 144.107702 
L 359.95546 143.528633 
L 360.315654 149.077843 
L 361.036041 176.066699 
L 361.396235 186.155876 
L 361.756428 192.66501 
L 362.116622 193.478829 
L 362.476815 185.301656 
L 362.837009 173.261121 
L 363.557396 138.564709 
L 363.91759 125.644995 
L 364.277784 117.577652 
L 364.637977 116.727006 
L 365.358365 133.548102 
L 366.078752 156.901891 
L 366.438946 164.491196 
L 366.799139 162.773941 
L 367.159333 161.870658 
L 367.87972 148.491764 
L 368.239914 147.029394 
L 368.600108 146.960672 
L 368.960301 152.644465 
L 370.401076 193.045111 
L 370.761269 191.156107 
L 371.121463 183.182127 
L 371.84185 151.574604 
L 372.562238 119.547029 
L 372.922431 109.696653 
L 373.282625 110.141477 
L 373.642819 115.892867 
L 374.7234 149.455877 
L 375.083593 154.317955 
L 375.443787 155.455488 
L 375.803981 151.409366 
L 376.164174 145.628166 
L 376.524368 137.624397 
L 376.884562 132.20131 
L 377.244755 136.032634 
L 377.604949 141.160861 
L 379.045724 179.277268 
L 379.405917 178.318655 
L 379.766111 169.693289 
L 380.126304 155.692581 
L 380.846692 118.205958 
L 381.206885 103.224939 
L 381.567079 93.354733 
L 381.927273 95.303049 
L 382.287466 101.118645 
L 383.007854 120.329011 
L 383.368047 132.746942 
L 383.728241 137.707275 
L 384.088435 138.033117 
L 384.448628 134.82338 
L 385.169016 120.238229 
L 385.529209 118.805115 
L 385.889403 117.972297 
L 386.249597 122.953713 
L 387.330178 155.413716 
L 387.690371 160.236267 
L 388.050565 161.649357 
L 388.410758 152.386668 
L 389.131146 120.198216 
L 389.851533 90.083501 
L 390.211727 79.394594 
L 390.57192 80.699091 
L 390.932114 86.300291 
L 392.012695 120.811892 
L 392.372889 125.760041 
L 392.733082 126.597384 
L 393.093276 122.927823 
L 393.813663 111.713465 
L 394.173857 106.8543 
L 394.534051 109.100758 
L 394.894244 114.200935 
L 395.974825 150.526043 
L 396.335019 156.928476 
L 396.695212 156.407366 
L 397.055406 148.415969 
L 398.496181 87.28065 
L 398.856374 78.81481 
L 399.216568 78.404281 
L 399.936955 95.128948 
L 400.657343 120.911968 
L 401.017536 127.495297 
L 401.37773 129.011137 
L 401.737924 127.099663 
L 402.098117 122.424435 
L 402.458311 115.216143 
L 402.818505 112.765887 
L 403.178698 114.922719 
L 403.538892 121.435034 
L 404.619473 156.362445 
L 404.979666 163.505269 
L 405.33986 163.341414 
L 405.700054 158.582828 
L 407.140828 96.839026 
L 407.501022 91.85996 
L 407.861216 92.728339 
L 408.221409 97.352842 
L 409.30199 134.487035 
L 409.662184 141.847229 
L 410.022378 145.832103 
L 411.102959 132.365735 
L 411.463152 127.261098 
L 412.18354 137.139692 
L 413.26412 172.953825 
L 413.624314 179.80586 
L 413.984508 182.229623 
L 414.344701 174.454701 
L 414.704895 161.474614 
L 415.425282 127.50599 
L 415.785476 115.736719 
L 416.14567 108.399466 
L 416.505863 107.293926 
L 416.866057 114.46372 
L 418.306832 158.169127 
L 418.667025 160.580045 
L 419.027219 158.824514 
L 419.747606 144.635724 
L 420.1078 143.604989 
L 420.467994 145.54204 
L 420.828187 150.662809 
L 421.908768 187.457634 
L 422.268962 192.053256 
L 422.629155 192.211553 
L 422.989349 186.979966 
L 424.430124 124.002045 
L 424.790317 115.765428 
L 425.150511 117.276274 
L 425.510705 121.95646 
L 426.231092 145.983619 
L 426.591286 156.362315 
L 426.951479 163.420142 
L 427.311673 164.22659 
L 427.671867 161.979606 
L 428.03206 157.102488 
L 428.392254 149.777581 
L 428.752448 145.278978 
L 429.112641 149.34456 
L 429.472835 151.352328 
L 430.553416 186.78845 
L 430.913609 193.040265 
L 431.273803 192.306678 
L 431.633997 183.916494 
L 433.434965 111.83066 
L 433.795159 111.223792 
L 434.155352 115.382822 
L 434.87574 137.51595 
L 435.596127 156.22853 
L 435.956321 155.191716 
L 436.316514 152.676636 
L 437.036902 137.46698 
L 437.757289 134.590913 
L 438.117483 140.883165 
L 438.477676 150.39872 
L 438.83787 163.597353 
L 439.198063 172.633129 
L 439.558257 178.167559 
L 439.918451 176.687644 
L 440.278644 169.012806 
L 440.638838 156.073282 
L 441.359225 118.197212 
L 441.719419 104.281983 
L 442.079613 95.669789 
L 442.439806 94.866931 
L 442.8 98.859063 
L 443.160194 109.033701 
L 443.520387 123.178995 
L 443.880581 132.758205 
L 444.240775 136.450577 
L 444.600968 137.325759 
L 444.961162 135.394404 
L 445.681549 120.416108 
L 446.041743 117.539345 
L 446.401937 117.888598 
L 446.76213 123.453348 
L 447.842711 154.195023 
L 448.202905 160.766721 
L 448.563098 160.19576 
L 448.923292 154.043001 
L 449.643679 120.852861 
L 450.364067 87.503778 
L 450.72426 82.182254 
L 451.084454 81.817721 
L 451.444648 85.936386 
L 452.165035 107.78844 
L 452.525229 119.069779 
L 452.885422 125.340157 
L 453.245616 128.793524 
L 454.686391 106.112575 
L 455.046584 109.946321 
L 455.406778 116.198203 
L 456.487359 148.453719 
L 456.847552 154.463331 
L 457.207746 156.362808 
L 457.56794 147.891466 
L 458.288327 116.432231 
L 459.008714 85.678317 
L 459.368908 78.855723 
L 459.729102 79.841795 
L 460.089295 84.741409 
L 460.809683 108.931701 
L 461.169876 121.06742 
L 461.890264 129.115245 
L 462.250457 126.034797 
L 462.610651 73.544403 
L 462.970845 116.146811 
L 463.331038 112.520372 
L 463.691232 113.306494 
L 465.4922 163.559729 
L 465.852394 163.749598 
L 466.212587 156.122852 
L 466.572781 144.661346 
L 467.653362 98.438768 
L 468.013556 91.353097 
L 468.373749 91.354281 
L 468.733943 96.724275 
L 469.45433 122.744864 
L 470.174718 143.718517 
L 470.534911 144.194975 
L 470.895105 141.433362 
L 471.975686 128.817504 
L 472.33588 130.279881 
L 473.056267 148.86869 
L 473.776654 173.507182 
L 474.136848 181.089919 
L 474.497041 182.480714 
L 474.857235 174.367242 
L 475.577622 144.285389 
L 475.937816 126.500897 
L 476.29801 115.162907 
L 476.658203 107.958788 
L 477.018397 108.974647 
L 477.378591 113.850769 
L 478.459172 152.755018 
L 478.819365 156.708966 
L 479.179559 158.869792 
L 479.539753 158.26958 
L 480.26014 145.69876 
L 480.620334 144.496587 
L 480.980527 145.611808 
L 481.340721 152.224899 
L 482.421302 187.515784 
L 482.781495 194.983013 
L 483.141689 191.775272 
L 483.501883 186.360434 
L 483.862076 172.999393 
L 484.582464 137.088632 
L 484.942657 124.085523 
L 485.302851 116.885895 
L 485.663045 117.791691 
L 486.023238 123.522167 
L 487.464013 161.539817 
L 487.824207 165.740199 
L 488.1844 160.769623 
L 488.544594 157.586734 
L 488.904788 149.083469 
L 489.264981 145.845984 
L 489.625175 147.242441 
L 489.985368 152.539433 
L 491.065949 186.155229 
L 491.426143 191.469892 
L 491.786337 192.117577 
L 492.14653 183.734799 
L 492.506724 171.122236 
L 493.227111 134.67296 
L 493.947499 109.202212 
L 494.307692 112.1849 
L 494.667886 116.968421 
L 495.748467 147.731878 
L 496.108661 153.405273 
L 496.468854 154.937358 
L 497.189242 145.737728 
L 497.549435 138.090361 
L 497.909629 136.524639 
L 498.269822 133.645885 
L 498.99021 149.479879 
L 499.710597 171.792544 
L 500.070791 178.915806 
L 500.430984 131.243647 
L 500.791178 169.909263 
L 501.511565 137.029136 
L 502.231953 91.464546 
L 502.592146 82.800509 
L 502.95234 82.933564 
L 503.312534 89.4456 
L 504.393115 134.428354 
L 504.753308 140.693544 
L 505.113502 138.817108 
L 505.473696 135.973957 
L 506.194083 119.909016 
L 506.554276 114.729905 
L 506.91447 117.316099 
L 507.274664 123.738393 
L 508.355245 166.704806 
L 508.715438 174.566453 
L 509.075632 175.339367 
L 509.435826 165.113772 
L 509.796019 148.558512 
L 510.516407 98.343865 
L 511.236794 67.478134 
L 511.596988 66.96 
L 512.317375 91.04493 
L 513.037762 121.570077 
L 513.397956 130.704061 
L 513.75815 132.29609 
L 514.478537 119.497325 
L 514.838731 112.158204 
L 515.198924 110.051458 
L 515.559118 110.747181 
L 515.919311 119.334031 
L 516.999892 164.602831 
L 517.360086 172.110095 
L 517.72028 173.366959 
L 518.080473 162.050587 
L 518.800861 124.631015 
L 519.161054 100.013782 
L 519.881442 71.277589 
L 520.241635 74.72525 
L 520.601829 81.472484 
L 521.68241 126.753937 
L 522.042604 138.592159 
L 522.402797 142.191281 
L 523.123185 130.249756 
L 523.483378 123.960912 
L 523.843572 121.873465 
L 524.203765 123.393479 
L 524.563959 131.986185 
L 526.004734 192.477669 
L 526.364927 189.946163 
L 526.725121 179.964557 
L 527.085315 166.516461 
L 527.805702 118.280341 
L 528.526089 93.556456 
L 528.886283 97.393119 
L 529.246477 104.487236 
L 529.60667 119.393087 
L 530.327058 154.362054 
L 530.687251 163.985136 
L 531.047445 166.369724 
L 531.407639 164.645464 
L 531.767832 154.387084 
L 532.128026 151.100465 
L 532.488219 145.051635 
L 532.848413 150.628802 
L 533.208607 160.059114 
L 534.289188 208.842726 
L 534.649381 217.216255 
L 535.009575 218.330553 
L 535.369769 209.098061 
L 535.729962 193.558339 
L 536.810543 129.427728 
L 537.170737 121.271515 
L 537.530931 122.96458 
L 537.891124 133.745339 
L 538.971705 181.372917 
L 539.331899 190.356124 
L 539.692093 195.765163 
L 540.772673 173.407781 
L 541.132867 171.244007 
L 541.493061 177.193375 
L 541.853254 186.370574 
L 542.213448 198.820614 
L 542.573642 219.133708 
L 543.294029 241.602719 
L 543.654223 241.693958 
L 544.014416 231.50585 
L 544.734804 193.248706 
L 545.094997 170.156469 
L 545.455191 154.392024 
L 545.815385 202.603013 
L 546.175578 138.530613 
L 546.535772 148.378899 
L 547.256159 181.998657 
L 547.616353 195.221923 
L 547.976547 203.87237 
L 548.33674 207.108913 
L 548.696934 203.042408 
L 549.417321 186.865842 
L 549.777515 181.475786 
L 550.137708 181.555175 
L 550.497902 191.575845 
L 551.578483 236.847865 
L 551.938677 245.629313 
L 552.29887 243.439482 
L 552.659064 234.560098 
L 553.019258 217.141737 
L 553.739645 171.226972 
L 554.099839 152.762322 
L 554.460032 140.127396 
L 554.820226 138.13524 
L 555.18042 145.771997 
L 556.261001 189.392429 
L 556.621194 199.240003 
L 556.981388 199.329792 
L 557.341581 194.304292 
L 558.422162 170.85167 
L 558.782356 174.577146 
L 559.502743 194.24006 
L 560.223131 224.724256 
L 560.583324 233.054114 
L 560.943518 230.97166 
L 561.303712 219.333684 
L 563.10468 125.606415 
L 563.464874 121.090067 
L 563.825067 131.649279 
L 564.905648 174.770536 
L 565.265842 182.632359 
L 565.626036 183.151318 
L 565.986229 179.018172 
L 566.706616 162.39283 
L 567.06681 154.981946 
L 567.427004 158.158822 
L 568.147391 178.995596 
L 568.867778 209.539144 
L 569.227972 215.527556 
L 569.588166 217.101737 
L 570.308553 187.069383 
L 571.389134 120.256318 
L 571.749328 108.500265 
L 572.109521 108.409113 
L 572.469715 117.775549 
L 572.829909 130.737252 
L 573.550296 162.562124 
L 573.91049 174.056345 
L 574.270683 175.128041 
L 574.630877 169.422401 
L 575.711458 147.042449 
L 576.071651 152.509756 
L 576.431845 160.028114 
L 576.792039 172.569638 
L 577.512426 205.920733 
L 577.87262 212.764602 
L 578.232813 212.535805 
L 578.593007 202.297439 
L 578.953201 186.610798 
L 580.033782 123.726339 
L 580.393975 111.749342 
L 580.754169 114.862793 
L 581.114363 123.747344 
L 582.194944 171.421318 
L 582.555137 179.692699 
L 582.915331 182.22362 
L 583.635718 173.454357 
L 583.995912 165.206082 
L 584.356105 160.467221 
L 584.716299 165.22031 
L 585.076493 174.689641 
L 585.79688 205.979245 
L 586.157074 223.660637 
L 586.517267 233.057078 
L 586.877461 232.808772 
L 587.237655 221.9613 
L 587.597848 207.408919 
L 588.678429 145.517442 
L 589.038623 137.12861 
L 589.398817 136.64405 
L 589.75901 143.688765 
L 590.479398 180.437754 
L 590.839591 196.131454 
L 591.199785 204.8101 
L 591.559978 208.20692 
L 591.920172 204.814588 
L 592.280366 198.543702 
L 592.640559 189.911742 
L 593.000753 190.840398 
L 593.360947 191.36152 
L 593.72114 200.270892 
L 594.801721 252.242621 
L 595.161915 260.163792 
L 595.522109 260.460483 
L 595.882302 253.629139 
L 596.60269 213.653273 
L 596.962883 190.445278 
L 597.683271 161.617258 
L 598.043464 164.34227 
L 598.403658 174.431251 
L 599.484239 222.707595 
L 599.844432 230.318212 
L 600.204626 234.906601 
L 600.56482 232.225882 
L 601.285207 216.214391 
L 601.645401 213.832012 
L 602.005594 216.479902 
L 602.365788 226.439792 
L 603.086175 256.436925 
L 603.446369 274.374536 
L 603.806563 283.481657 
L 604.166756 281.322159 
L 604.52695 272.628281 
L 604.887144 257.321995 
L 605.967725 191.471182 
L 606.327918 182.598624 
L 606.688112 182.786137 
L 607.048306 191.515527 
L 607.768693 221.947393 
L 608.128886 238.282019 
L 608.849274 247.583666 
L 609.209467 242.0331 
L 609.929855 225.669345 
L 610.290048 222.009904 
L 610.650242 223.801962 
L 611.010436 232.025695 
L 612.091017 279.077083 
L 612.45121 287.053553 
L 612.811404 285.335108 
L 613.171598 273.980736 
L 613.531791 257.635358 
L 614.612372 188.962946 
L 614.972566 179.631633 
L 615.33276 179.723227 
L 615.692953 189.244359 
L 616.773534 229.468615 
L 617.133728 240.387237 
L 617.493921 242.383838 
L 617.854115 234.381523 
L 618.214309 229.323176 
L 618.574502 218.942187 
L 618.934696 213.475369 
L 619.29489 215.421538 
L 619.655083 223.220469 
L 620.735664 266.977733 
L 621.095858 275.541734 
L 621.456052 273.49872 
L 621.816245 261.797778 
L 622.536633 219.196133 
L 622.896826 193.346801 
L 623.617214 164.204638 
L 623.977407 164.899216 
L 624.337601 171.38228 
L 625.057988 200.101008 
L 625.418182 215.713725 
L 625.778375 222.960484 
L 626.138569 223.163359 
L 626.498763 219.230819 
L 627.579344 195.433313 
L 627.939537 198.528438 
L 628.299731 205.796045 
L 629.740506 256.439245 
L 630.100699 255.641544 
L 630.460893 247.030451 
L 632.261861 150.387109 
L 632.622055 152.651932 
L 632.982249 161.596562 
L 633.342442 174.637902 
L 633.702636 253.434696 
L 634.062829 204.952239 
L 634.423023 212.04485 
L 634.783217 214.973031 
L 635.503604 202.792529 
L 635.863798 192.636011 
L 636.223991 189.793598 
L 636.944379 197.878512 
L 638.02496 247.748849 
L 638.385153 255.672365 
L 638.745347 257.340722 
L 639.105541 246.019266 
L 639.825928 207.174862 
L 640.546315 166.479291 
L 640.906509 153.729254 
L 641.266703 154.490326 
L 641.626896 163.885637 
L 643.067671 221.176844 
L 643.427864 225.306354 
L 644.148252 214.122185 
L 644.508445 206.809667 
L 644.868639 203.310032 
L 645.228833 207.004986 
L 645.589026 216.338422 
L 645.94922 228.742552 
L 646.309414 251.223936 
L 647.029801 271.966219 
L 647.389995 275.691256 
L 647.750188 265.754511 
L 649.551157 176.578105 
L 649.91135 177.42663 
L 650.271544 187.717864 
L 651.712318 245.748398 
L 652.072512 248.104381 
L 652.432706 247.666532 
L 653.153093 235.320438 
L 653.513287 229.713704 
L 653.87348 232.023373 
L 654.233674 246.870483 
L 654.593868 256.479456 
L 655.314255 291.755386 
L 655.674449 301.139983 
L 656.034642 299.436228 
L 656.394836 294.074548 
L 657.835611 213.086781 
L 658.195804 206.660122 
L 658.555998 206.201968 
L 658.916192 215.220297 
L 659.276385 228.962325 
L 659.996772 262.766248 
L 660.356966 277.660688 
L 660.71716 273.864103 
L 661.077353 272.598111 
L 661.797741 258.733804 
L 662.157934 256.355716 
L 662.518128 257.344954 
L 662.878322 266.847772 
L 663.958903 315.581255 
L 664.319096 323.518721 
L 664.67929 323.124228 
L 665.039484 312.950708 
L 666.480258 231.151231 
L 666.840452 225.420672 
L 667.200646 222.15328 
L 667.560839 231.410796 
L 669.001614 287.322453 
L 669.361807 289.949698 
L 669.722001 283.793172 
L 670.442388 269.282209 
L 670.802582 262.824182 
L 671.162776 267.476177 
L 671.883163 287.620043 
L 672.243357 307.798703 
L 672.963744 327.832551 
L 673.323938 326.616138 
L 673.684131 314.591143 
L 674.404519 278.051635 
L 674.764712 248.564646 
L 675.124906 230.886728 
L 675.4851 221.619204 
L 675.845293 221.996401 
L 676.205487 229.621421 
L 677.286068 271.345398 
L 677.646261 278.735565 
L 678.006455 283.358173 
L 679.44723 254.386064 
L 679.807423 258.610263 
L 680.167617 265.318284 
L 681.248198 308.179743 
L 681.608392 314.116396 
L 681.968585 315.130005 
L 682.328779 303.29598 
L 683.049166 259.003352 
L 683.40936 234.126332 
L 684.129747 204.995647 
L 684.489941 204.534224 
L 684.850134 211.627138 
L 685.570522 240.538501 
L 685.930715 257.3311 
L 686.290909 263.435991 
L 686.651103 265.696559 
L 687.37149 253.20742 
L 687.731684 244.137615 
L 688.091877 238.125211 
L 688.452071 238.832744 
L 689.172458 261.317446 
L 689.532652 279.439604 
L 690.253039 299.461308 
L 690.613233 299.46485 
L 690.973427 288.713925 
L 691.693814 246.227845 
L 692.414201 203.543318 
L 692.774395 191.86707 
L 693.134588 190.146205 
L 693.494782 201.15136 
L 694.215169 230.282157 
L 694.575363 243.76188 
L 694.935557 252.98285 
L 695.29575 256.882925 
L 695.655944 253.304098 
L 696.016138 246.031076 
L 696.376331 233.71523 
L 696.736525 230.258164 
L 697.096719 234.35055 
L 697.456912 242.589947 
L 698.537493 289.791411 
L 698.897687 297.957091 
L 699.257881 295.360883 
L 699.618074 284.99179 
L 699.978268 271.016457 
L 701.058849 205.267149 
L 701.419042 197.083188 
L 701.779236 196.267517 
L 702.499623 220.396469 
L 703.580204 262.789184 
L 703.940398 266.794346 
L 704.300592 262.304358 
L 705.020979 246.021645 
L 705.381173 246.126461 
L 705.741366 245.659766 
L 706.10156 255.458884 
L 707.542335 314.999334 
L 707.902528 313.547778 
L 708.262722 308.991734 
L 708.622916 290.39451 
L 709.343303 242.711412 
L 709.703497 227.548902 
L 710.06369 218.026243 
L 710.423884 218.85999 
L 710.784077 228.292145 
L 711.864658 278.009677 
L 712.224852 289.07842 
L 712.585046 289.459182 
L 712.945239 286.920775 
L 713.305433 282.797347 
L 713.665627 275.426254 
L 714.02582 272.21344 
L 714.386014 276.328197 
L 714.746208 285.97084 
L 716.186982 342.272316 
L 716.547176 345.306675 
L 716.90737 333.842549 
L 717.627757 295.587545 
L 718.348144 256.079516 
L 718.708338 246.385869 
L 719.068531 247.354885 
L 719.428725 257.108753 
L 720.8695 315.291263 
L 721.229693 315.526098 
L 721.589887 315.506796 
L 722.310274 299.865098 
L 722.670468 296.739934 
L 723.030662 300.340979 
L 723.390855 308.839097 
L 723.751049 321.881551 
L 724.471436 354.813647 
L 724.83163 365.4135 
L 725.191824 363.775649 
L 725.552017 355.63202 
L 726.272405 316.336131 
L 726.992792 274.033277 
L 727.352985 263.428932 
L 727.713179 264.208515 
L 728.073373 273.287162 
L 729.153954 318.088668 
L 729.514147 328.313535 
L 729.874341 329.380681 
L 730.234535 326.121546 
L 730.594728 320.95649 
L 730.954922 309.258632 
L 731.315116 306.564806 
L 731.675309 308.451842 
L 732.035503 317.55293 
L 732.75589 346.462824 
L 733.116084 360.054768 
L 733.476278 369.36 
L 733.836471 367.078895 
L 734.196665 359.954818 
L 734.917052 316.890436 
L 735.637439 274.131115 
L 735.997633 262.049473 
L 736.357827 261.028546 
L 737.078214 284.440807 
L 737.798601 315.140726 
L 738.158795 320.931785 
L 738.518989 322.854107 
L 738.879182 319.001512 
L 739.59957 300.283568 
L 739.959763 297.511205 
L 740.319957 298.537797 
L 740.680151 306.589958 
L 742.120925 355.545741 
L 742.481119 355.066682 
L 742.841313 346.085386 
L 743.201506 325.576111 
L 743.201506 325.576111 
" style="fill:none;stroke:#1f77b4;stroke-linecap:square;stroke-width:1.5;"/>
   </g>
   <g id="line2d_16">
    <path clip-path="url(#pdb034c2a89)" d="M 747.163636 384.48 
L 747.163636 51.84 
" style="fill:none;stroke:#808080;stroke-linecap:square;"/>
   </g>
   <g id="patch_113">
    <path d="M 108 384.48 
L 108 51.84 
" style="fill:none;stroke:#000000;stroke-linecap:square;stroke-linejoin:miter;stroke-width:0.8;"/>
   </g>
   <g id="patch_114">
    <path d="M 777.6 384.48 
L 777.6 51.84 
" style="fill:none;stroke:#000000;stroke-linecap:square;stroke-linejoin:miter;stroke-width:0.8;"/>
   </g>
   <g id="patch_115">
    <path d="M 108 384.48 
L 777.6 384.48 
" style="fill:none;stroke:#000000;stroke-linecap:square;stroke-linejoin:miter;stroke-width:0.8;"/>
   </g>
   <g id="patch_116">
    <path d="M 108 51.84 
L 777.6 51.84 
" style="fill:none;stroke:#000000;stroke-linecap:square;stroke-linejoin:miter;stroke-width:0.8;"/>
   </g>
   <g id="text_17">
    <!-- A4Benchmark-TS100.csv -->
    <defs>
     <path d="M 34.1875 63.1875 
L 20.796875 26.90625 
L 47.609375 26.90625 
z
M 28.609375 72.90625 
L 39.796875 72.90625 
L 67.578125 0 
L 57.328125 0 
L 50.6875 18.703125 
L 17.828125 18.703125 
L 11.1875 0 
L 0.78125 0 
z
" id="DejaVuSans-65"/>
     <path d="M 37.796875 64.3125 
L 12.890625 25.390625 
L 37.796875 25.390625 
z
M 35.203125 72.90625 
L 47.609375 72.90625 
L 47.609375 25.390625 
L 58.015625 25.390625 
L 58.015625 17.1875 
L 47.609375 17.1875 
L 47.609375 0 
L 37.796875 0 
L 37.796875 17.1875 
L 4.890625 17.1875 
L 4.890625 26.703125 
z
" id="DejaVuSans-52"/>
     <path d="M 19.671875 34.8125 
L 19.671875 8.109375 
L 35.5 8.109375 
Q 43.453125 8.109375 47.28125 11.40625 
Q 51.125 14.703125 51.125 21.484375 
Q 51.125 28.328125 47.28125 31.5625 
Q 43.453125 34.8125 35.5 34.8125 
z
M 19.671875 64.796875 
L 19.671875 42.828125 
L 34.28125 42.828125 
Q 41.5 42.828125 45.03125 45.53125 
Q 48.578125 48.25 48.578125 53.8125 
Q 48.578125 59.328125 45.03125 62.0625 
Q 41.5 64.796875 34.28125 64.796875 
z
M 9.8125 72.90625 
L 35.015625 72.90625 
Q 46.296875 72.90625 52.390625 68.21875 
Q 58.5 63.53125 58.5 54.890625 
Q 58.5 48.1875 55.375 44.234375 
Q 52.25 40.28125 46.1875 39.3125 
Q 53.46875 37.75 57.5 32.78125 
Q 61.53125 27.828125 61.53125 20.40625 
Q 61.53125 10.640625 54.890625 5.3125 
Q 48.25 0 35.984375 0 
L 9.8125 0 
z
" id="DejaVuSans-66"/>
     <path d="M 54.890625 33.015625 
L 54.890625 0 
L 45.90625 0 
L 45.90625 32.71875 
Q 45.90625 40.484375 42.875 44.328125 
Q 39.84375 48.1875 33.796875 48.1875 
Q 26.515625 48.1875 22.3125 43.546875 
Q 18.109375 38.921875 18.109375 30.90625 
L 18.109375 0 
L 9.078125 0 
L 9.078125 54.6875 
L 18.109375 54.6875 
L 18.109375 46.1875 
Q 21.34375 51.125 25.703125 53.5625 
Q 30.078125 56 35.796875 56 
Q 45.21875 56 50.046875 50.171875 
Q 54.890625 44.34375 54.890625 33.015625 
z
" id="DejaVuSans-110"/>
     <path d="M 48.78125 52.59375 
L 48.78125 44.1875 
Q 44.96875 46.296875 41.140625 47.34375 
Q 37.3125 48.390625 33.40625 48.390625 
Q 24.65625 48.390625 19.8125 42.84375 
Q 14.984375 37.3125 14.984375 27.296875 
Q 14.984375 17.28125 19.8125 11.734375 
Q 24.65625 6.203125 33.40625 6.203125 
Q 37.3125 6.203125 41.140625 7.25 
Q 44.96875 8.296875 48.78125 10.40625 
L 48.78125 2.09375 
Q 45.015625 0.34375 40.984375 -0.53125 
Q 36.96875 -1.421875 32.421875 -1.421875 
Q 20.0625 -1.421875 12.78125 6.34375 
Q 5.515625 14.109375 5.515625 27.296875 
Q 5.515625 40.671875 12.859375 48.328125 
Q 20.21875 56 33.015625 56 
Q 37.15625 56 41.109375 55.140625 
Q 45.0625 54.296875 48.78125 52.59375 
z
" id="DejaVuSans-99"/>
     <path d="M 54.890625 33.015625 
L 54.890625 0 
L 45.90625 0 
L 45.90625 32.71875 
Q 45.90625 40.484375 42.875 44.328125 
Q 39.84375 48.1875 33.796875 48.1875 
Q 26.515625 48.1875 22.3125 43.546875 
Q 18.109375 38.921875 18.109375 30.90625 
L 18.109375 0 
L 9.078125 0 
L 9.078125 75.984375 
L 18.109375 75.984375 
L 18.109375 46.1875 
Q 21.34375 51.125 25.703125 53.5625 
Q 30.078125 56 35.796875 56 
Q 45.21875 56 50.046875 50.171875 
Q 54.890625 44.34375 54.890625 33.015625 
z
" id="DejaVuSans-104"/>
     <path d="M 41.109375 46.296875 
Q 39.59375 47.171875 37.8125 47.578125 
Q 36.03125 48 33.890625 48 
Q 26.265625 48 22.1875 43.046875 
Q 18.109375 38.09375 18.109375 28.8125 
L 18.109375 0 
L 9.078125 0 
L 9.078125 54.6875 
L 18.109375 54.6875 
L 18.109375 46.1875 
Q 20.953125 51.171875 25.484375 53.578125 
Q 30.03125 56 36.53125 56 
Q 37.453125 56 38.578125 55.875 
Q 39.703125 55.765625 41.0625 55.515625 
z
" id="DejaVuSans-114"/>
     <path d="M 9.078125 75.984375 
L 18.109375 75.984375 
L 18.109375 31.109375 
L 44.921875 54.6875 
L 56.390625 54.6875 
L 27.390625 29.109375 
L 57.625 0 
L 45.90625 0 
L 18.109375 26.703125 
L 18.109375 0 
L 9.078125 0 
z
" id="DejaVuSans-107"/>
     <path d="M 4.890625 31.390625 
L 31.203125 31.390625 
L 31.203125 23.390625 
L 4.890625 23.390625 
z
" id="DejaVuSans-45"/>
     <path d="M 53.515625 70.515625 
L 53.515625 60.890625 
Q 47.90625 63.578125 42.921875 64.890625 
Q 37.9375 66.21875 33.296875 66.21875 
Q 25.25 66.21875 20.875 63.09375 
Q 16.5 59.96875 16.5 54.203125 
Q 16.5 49.359375 19.40625 46.890625 
Q 22.3125 44.4375 30.421875 42.921875 
L 36.375 41.703125 
Q 47.40625 39.59375 52.65625 34.296875 
Q 57.90625 29 57.90625 20.125 
Q 57.90625 9.515625 50.796875 4.046875 
Q 43.703125 -1.421875 29.984375 -1.421875 
Q 24.8125 -1.421875 18.96875 -0.25 
Q 13.140625 0.921875 6.890625 3.21875 
L 6.890625 13.375 
Q 12.890625 10.015625 18.65625 8.296875 
Q 24.421875 6.59375 29.984375 6.59375 
Q 38.421875 6.59375 43.015625 9.90625 
Q 47.609375 13.234375 47.609375 19.390625 
Q 47.609375 24.75 44.3125 27.78125 
Q 41.015625 30.8125 33.5 32.328125 
L 27.484375 33.5 
Q 16.453125 35.6875 11.515625 40.375 
Q 6.59375 45.0625 6.59375 53.421875 
Q 6.59375 63.09375 13.40625 68.65625 
Q 20.21875 74.21875 32.171875 74.21875 
Q 37.3125 74.21875 42.625 73.28125 
Q 47.953125 72.359375 53.515625 70.515625 
z
" id="DejaVuSans-83"/>
     <path d="M 10.6875 12.40625 
L 21 12.40625 
L 21 0 
L 10.6875 0 
z
" id="DejaVuSans-46"/>
     <path d="M 2.984375 54.6875 
L 12.5 54.6875 
L 29.59375 8.796875 
L 46.6875 54.6875 
L 56.203125 54.6875 
L 35.6875 0 
L 23.484375 0 
z
" id="DejaVuSans-118"/>
    </defs>
    <g transform="translate(367.738125 45.84)scale(0.12 -0.12)">
     <use xlink:href="#DejaVuSans-65"/>
     <use x="68.408203" xlink:href="#DejaVuSans-52"/>
     <use x="132.03125" xlink:href="#DejaVuSans-66"/>
     <use x="200.634766" xlink:href="#DejaVuSans-101"/>
     <use x="262.158203" xlink:href="#DejaVuSans-110"/>
     <use x="325.537109" xlink:href="#DejaVuSans-99"/>
     <use x="380.517578" xlink:href="#DejaVuSans-104"/>
     <use x="443.896484" xlink:href="#DejaVuSans-109"/>
     <use x="541.308594" xlink:href="#DejaVuSans-97"/>
     <use x="602.587891" xlink:href="#DejaVuSans-114"/>
     <use x="643.701172" xlink:href="#DejaVuSans-107"/>
     <use x="701.611328" xlink:href="#DejaVuSans-45"/>
     <use x="737.554688" xlink:href="#DejaVuSans-84"/>
     <use x="798.638672" xlink:href="#DejaVuSans-83"/>
     <use x="862.115234" xlink:href="#DejaVuSans-49"/>
     <use x="925.738281" xlink:href="#DejaVuSans-48"/>
     <use x="989.361328" xlink:href="#DejaVuSans-48"/>
     <use x="1052.984375" xlink:href="#DejaVuSans-46"/>
     <use x="1084.771484" xlink:href="#DejaVuSans-99"/>
     <use x="1139.751953" xlink:href="#DejaVuSans-115"/>
     <use x="1191.851562" xlink:href="#DejaVuSans-118"/>
    </g>
   </g>
   <g id="legend_1">
    <g id="patch_117">
     <path d="M 711.284375 74.518125 
L 770.6 74.518125 
Q 772.6 74.518125 772.6 72.518125 
L 772.6 58.84 
Q 772.6 56.84 770.6 56.84 
L 711.284375 56.84 
Q 709.284375 56.84 709.284375 58.84 
L 709.284375 72.518125 
Q 709.284375 74.518125 711.284375 74.518125 
z
" style="fill:#ffffff;opacity:0.8;stroke:#cccccc;stroke-linejoin:miter;"/>
    </g>
    <g id="line2d_17">
     <path d="M 713.284375 64.938438 
L 733.284375 64.938438 
" style="fill:none;stroke:#1f77b4;stroke-linecap:square;stroke-width:1.5;"/>
    </g>
    <g id="line2d_18"/>
    <g id="text_18">
     <!-- value -->
     <g transform="translate(741.284375 68.438438)scale(0.1 -0.1)">
      <use xlink:href="#DejaVuSans-118"/>
      <use x="59.179688" xlink:href="#DejaVuSans-97"/>
      <use x="120.458984" xlink:href="#DejaVuSans-108"/>
      <use x="148.242188" xlink:href="#DejaVuSans-117"/>
      <use x="211.621094" xlink:href="#DejaVuSans-101"/>
     </g>
    </g>
   </g>
  </g>
 </g>
 <defs>
  <clipPath id="pdb034c2a89">
   <rect height="332.64" width="669.6" x="108" y="51.84"/>
  </clipPath>
 </defs>
</svg>
