<?xml version="1.0" encoding="utf-8" standalone="no"?>
<!DOCTYPE svg PUBLIC "-//W3C//DTD SVG 1.1//EN"
  "http://www.w3.org/Graphics/SVG/1.1/DTD/svg11.dtd">
<!-- Created with matplotlib (https://matplotlib.org/) -->
<svg height="432pt" version="1.1" viewBox="0 0 864 432" width="864pt" xmlns="http://www.w3.org/2000/svg" xmlns:xlink="http://www.w3.org/1999/xlink">
 <defs>
  <style type="text/css">
*{stroke-linecap:butt;stroke-linejoin:round;}
  </style>
 </defs>
 <g id="figure_1">
  <g id="patch_1">
   <path d="M 0 432 
L 864 432 
L 864 0 
L 0 0 
z
" style="fill:#ffffff;"/>
  </g>
  <g id="axes_1">
   <g id="patch_2">
    <path d="M 108 384.48 
L 777.6 384.48 
L 777.6 51.84 
L 108 51.84 
z
" style="fill:#ffffff;"/>
   </g>
   <g id="patch_3">
    <path clip-path="url(#p74f872f9e9)" d="M 138.436364 384.48 
L 138.436364 51.84 
L 440.999032 51.84 
L 440.999032 384.48 
z
" style="fill:#0000ff;opacity:0.05;"/>
   </g>
   <g id="patch_4">
    <path clip-path="url(#p74f872f9e9)" d="M 440.999032 384.48 
L 440.999032 51.84 
L 747.163636 51.84 
L 747.163636 384.48 
z
" style="fill:#ff0000;opacity:0.08;"/>
   </g>
   <g id="patch_5">
    <path clip-path="url(#p74f872f9e9)" d="M 138.436364 384.48 
L 138.436364 51.84 
L 142.0383 51.84 
L 142.0383 384.48 
z
" style="fill:#008000;opacity:0.04;"/>
   </g>
   <g id="patch_6">
    <path clip-path="url(#p74f872f9e9)" d="M 145.640237 384.48 
L 145.640237 51.84 
L 149.242173 51.84 
L 149.242173 384.48 
z
" style="fill:#008000;opacity:0.04;"/>
   </g>
   <g id="patch_7">
    <path clip-path="url(#p74f872f9e9)" d="M 152.84411 384.48 
L 152.84411 51.84 
L 156.446046 51.84 
L 156.446046 384.48 
z
" style="fill:#008000;opacity:0.04;"/>
   </g>
   <g id="patch_8">
    <path clip-path="url(#p74f872f9e9)" d="M 160.047983 384.48 
L 160.047983 51.84 
L 163.649919 51.84 
L 163.649919 384.48 
z
" style="fill:#008000;opacity:0.04;"/>
   </g>
   <g id="patch_9">
    <path clip-path="url(#p74f872f9e9)" d="M 167.251856 384.48 
L 167.251856 51.84 
L 170.853792 51.84 
L 170.853792 384.48 
z
" style="fill:#008000;opacity:0.04;"/>
   </g>
   <g id="patch_10">
    <path clip-path="url(#p74f872f9e9)" d="M 167.251856 384.48 
L 167.251856 371.1744 
L 170.853792 371.1744 
L 170.853792 384.48 
z
" style="fill:#ffe500;"/>
   </g>
   <g id="patch_11">
    <path clip-path="url(#p74f872f9e9)" d="M 174.455729 384.48 
L 174.455729 51.84 
L 178.057665 51.84 
L 178.057665 384.48 
z
" style="fill:#008000;opacity:0.04;"/>
   </g>
   <g id="patch_12">
    <path clip-path="url(#p74f872f9e9)" d="M 181.659602 384.48 
L 181.659602 51.84 
L 185.261538 51.84 
L 185.261538 384.48 
z
" style="fill:#008000;opacity:0.04;"/>
   </g>
   <g id="patch_13">
    <path clip-path="url(#p74f872f9e9)" d="M 188.863475 384.48 
L 188.863475 51.84 
L 192.465412 51.84 
L 192.465412 384.48 
z
" style="fill:#008000;opacity:0.04;"/>
   </g>
   <g id="patch_14">
    <path clip-path="url(#p74f872f9e9)" d="M 196.067348 384.48 
L 196.067348 51.84 
L 199.669285 51.84 
L 199.669285 384.48 
z
" style="fill:#008000;opacity:0.04;"/>
   </g>
   <g id="patch_15">
    <path clip-path="url(#p74f872f9e9)" d="M 203.271221 384.48 
L 203.271221 51.84 
L 206.873158 51.84 
L 206.873158 384.48 
z
" style="fill:#008000;opacity:0.04;"/>
   </g>
   <g id="patch_16">
    <path clip-path="url(#p74f872f9e9)" d="M 210.475094 384.48 
L 210.475094 51.84 
L 214.077031 51.84 
L 214.077031 384.48 
z
" style="fill:#008000;opacity:0.04;"/>
   </g>
   <g id="patch_17">
    <path clip-path="url(#p74f872f9e9)" d="M 210.475094 384.48 
L 210.475094 371.1744 
L 214.077031 371.1744 
L 214.077031 384.48 
z
" style="fill:#ffe500;"/>
   </g>
   <g id="patch_18">
    <path clip-path="url(#p74f872f9e9)" d="M 217.678967 384.48 
L 217.678967 51.84 
L 221.280904 51.84 
L 221.280904 384.48 
z
" style="fill:#008000;opacity:0.04;"/>
   </g>
   <g id="patch_19">
    <path clip-path="url(#p74f872f9e9)" d="M 224.88284 384.48 
L 224.88284 51.84 
L 228.484777 51.84 
L 228.484777 384.48 
z
" style="fill:#008000;opacity:0.04;"/>
   </g>
   <g id="patch_20">
    <path clip-path="url(#p74f872f9e9)" d="M 232.086713 384.48 
L 232.086713 51.84 
L 235.68865 51.84 
L 235.68865 384.48 
z
" style="fill:#008000;opacity:0.04;"/>
   </g>
   <g id="patch_21">
    <path clip-path="url(#p74f872f9e9)" d="M 239.290586 384.48 
L 239.290586 51.84 
L 242.892523 51.84 
L 242.892523 384.48 
z
" style="fill:#008000;opacity:0.04;"/>
   </g>
   <g id="patch_22">
    <path clip-path="url(#p74f872f9e9)" d="M 246.494459 384.48 
L 246.494459 51.84 
L 250.096396 51.84 
L 250.096396 384.48 
z
" style="fill:#008000;opacity:0.04;"/>
   </g>
   <g id="patch_23">
    <path clip-path="url(#p74f872f9e9)" d="M 253.698332 384.48 
L 253.698332 51.84 
L 257.300269 51.84 
L 257.300269 384.48 
z
" style="fill:#008000;opacity:0.04;"/>
   </g>
   <g id="patch_24">
    <path clip-path="url(#p74f872f9e9)" d="M 253.698332 384.48 
L 253.698332 371.1744 
L 257.300269 371.1744 
L 257.300269 384.48 
z
" style="fill:#ffe500;"/>
   </g>
   <g id="patch_25">
    <path clip-path="url(#p74f872f9e9)" d="M 260.902205 384.48 
L 260.902205 51.84 
L 264.504142 51.84 
L 264.504142 384.48 
z
" style="fill:#008000;opacity:0.04;"/>
   </g>
   <g id="patch_26">
    <path clip-path="url(#p74f872f9e9)" d="M 268.106079 384.48 
L 268.106079 51.84 
L 271.708015 51.84 
L 271.708015 384.48 
z
" style="fill:#008000;opacity:0.04;"/>
   </g>
   <g id="patch_27">
    <path clip-path="url(#p74f872f9e9)" d="M 275.309952 384.48 
L 275.309952 51.84 
L 278.911888 51.84 
L 278.911888 384.48 
z
" style="fill:#008000;opacity:0.04;"/>
   </g>
   <g id="patch_28">
    <path clip-path="url(#p74f872f9e9)" d="M 282.513825 384.48 
L 282.513825 51.84 
L 286.115761 51.84 
L 286.115761 384.48 
z
" style="fill:#008000;opacity:0.04;"/>
   </g>
   <g id="patch_29">
    <path clip-path="url(#p74f872f9e9)" d="M 289.717698 384.48 
L 289.717698 51.84 
L 293.319634 51.84 
L 293.319634 384.48 
z
" style="fill:#008000;opacity:0.04;"/>
   </g>
   <g id="patch_30">
    <path clip-path="url(#p74f872f9e9)" d="M 293.319634 384.48 
L 293.319634 371.1744 
L 296.921571 371.1744 
L 296.921571 384.48 
z
" style="fill:#ffe500;"/>
   </g>
   <g id="patch_31">
    <path clip-path="url(#p74f872f9e9)" d="M 296.921571 384.48 
L 296.921571 51.84 
L 300.523507 51.84 
L 300.523507 384.48 
z
" style="fill:#008000;opacity:0.04;"/>
   </g>
   <g id="patch_32">
    <path clip-path="url(#p74f872f9e9)" d="M 296.921571 384.48 
L 296.921571 371.1744 
L 300.523507 371.1744 
L 300.523507 384.48 
z
" style="fill:#ffe500;"/>
   </g>
   <g id="patch_33">
    <path clip-path="url(#p74f872f9e9)" d="M 304.125444 384.48 
L 304.125444 51.84 
L 307.72738 51.84 
L 307.72738 384.48 
z
" style="fill:#008000;opacity:0.04;"/>
   </g>
   <g id="patch_34">
    <path clip-path="url(#p74f872f9e9)" d="M 311.329317 384.48 
L 311.329317 51.84 
L 314.931253 51.84 
L 314.931253 384.48 
z
" style="fill:#008000;opacity:0.04;"/>
   </g>
   <g id="patch_35">
    <path clip-path="url(#p74f872f9e9)" d="M 318.53319 384.48 
L 318.53319 51.84 
L 322.135126 51.84 
L 322.135126 384.48 
z
" style="fill:#008000;opacity:0.04;"/>
   </g>
   <g id="patch_36">
    <path clip-path="url(#p74f872f9e9)" d="M 325.737063 384.48 
L 325.737063 51.84 
L 329.338999 51.84 
L 329.338999 384.48 
z
" style="fill:#008000;opacity:0.04;"/>
   </g>
   <g id="patch_37">
    <path clip-path="url(#p74f872f9e9)" d="M 332.940936 384.48 
L 332.940936 51.84 
L 336.542873 51.84 
L 336.542873 384.48 
z
" style="fill:#008000;opacity:0.04;"/>
   </g>
   <g id="patch_38">
    <path clip-path="url(#p74f872f9e9)" d="M 340.144809 384.48 
L 340.144809 51.84 
L 343.746746 51.84 
L 343.746746 384.48 
z
" style="fill:#008000;opacity:0.04;"/>
   </g>
   <g id="patch_39">
    <path clip-path="url(#p74f872f9e9)" d="M 340.144809 384.48 
L 340.144809 371.1744 
L 343.746746 371.1744 
L 343.746746 384.48 
z
" style="fill:#ffe500;"/>
   </g>
   <g id="patch_40">
    <path clip-path="url(#p74f872f9e9)" d="M 347.348682 384.48 
L 347.348682 51.84 
L 350.950619 51.84 
L 350.950619 384.48 
z
" style="fill:#008000;opacity:0.04;"/>
   </g>
   <g id="patch_41">
    <path clip-path="url(#p74f872f9e9)" d="M 354.552555 384.48 
L 354.552555 51.84 
L 358.154492 51.84 
L 358.154492 384.48 
z
" style="fill:#008000;opacity:0.04;"/>
   </g>
   <g id="patch_42">
    <path clip-path="url(#p74f872f9e9)" d="M 361.756428 384.48 
L 361.756428 51.84 
L 365.358365 51.84 
L 365.358365 384.48 
z
" style="fill:#008000;opacity:0.04;"/>
   </g>
   <g id="patch_43">
    <path clip-path="url(#p74f872f9e9)" d="M 368.960301 384.48 
L 368.960301 51.84 
L 372.562238 51.84 
L 372.562238 384.48 
z
" style="fill:#008000;opacity:0.04;"/>
   </g>
   <g id="patch_44">
    <path clip-path="url(#p74f872f9e9)" d="M 376.164174 384.48 
L 376.164174 51.84 
L 379.766111 51.84 
L 379.766111 384.48 
z
" style="fill:#008000;opacity:0.04;"/>
   </g>
   <g id="patch_45">
    <path clip-path="url(#p74f872f9e9)" d="M 379.766111 384.48 
L 379.766111 371.1744 
L 383.368047 371.1744 
L 383.368047 384.48 
z
" style="fill:#ffe500;"/>
   </g>
   <g id="patch_46">
    <path clip-path="url(#p74f872f9e9)" d="M 383.368047 384.48 
L 383.368047 51.84 
L 386.969984 51.84 
L 386.969984 384.48 
z
" style="fill:#008000;opacity:0.04;"/>
   </g>
   <g id="patch_47">
    <path clip-path="url(#p74f872f9e9)" d="M 383.368047 384.48 
L 383.368047 371.1744 
L 386.969984 371.1744 
L 386.969984 384.48 
z
" style="fill:#ffe500;"/>
   </g>
   <g id="patch_48">
    <path clip-path="url(#p74f872f9e9)" d="M 390.57192 384.48 
L 390.57192 51.84 
L 394.173857 51.84 
L 394.173857 384.48 
z
" style="fill:#008000;opacity:0.04;"/>
   </g>
   <g id="patch_49">
    <path clip-path="url(#p74f872f9e9)" d="M 397.775793 384.48 
L 397.775793 51.84 
L 401.37773 51.84 
L 401.37773 384.48 
z
" style="fill:#008000;opacity:0.04;"/>
   </g>
   <g id="patch_50">
    <path clip-path="url(#p74f872f9e9)" d="M 404.979666 384.48 
L 404.979666 51.84 
L 408.581603 51.84 
L 408.581603 384.48 
z
" style="fill:#008000;opacity:0.04;"/>
   </g>
   <g id="patch_51">
    <path clip-path="url(#p74f872f9e9)" d="M 412.18354 384.48 
L 412.18354 51.84 
L 415.785476 51.84 
L 415.785476 384.48 
z
" style="fill:#008000;opacity:0.04;"/>
   </g>
   <g id="patch_52">
    <path clip-path="url(#p74f872f9e9)" d="M 718.348144 384.48 
L 718.348144 371.1744 
L 721.950081 371.1744 
L 721.950081 384.48 
z
" style="fill:#ff6600;"/>
   </g>
   <g id="patch_53">
    <path clip-path="url(#p74f872f9e9)" d="M 419.387413 384.48 
L 419.387413 51.84 
L 422.989349 51.84 
L 422.989349 384.48 
z
" style="fill:#008000;opacity:0.04;"/>
   </g>
   <g id="patch_54">
    <path clip-path="url(#p74f872f9e9)" d="M 426.591286 384.48 
L 426.591286 51.84 
L 430.193222 51.84 
L 430.193222 384.48 
z
" style="fill:#008000;opacity:0.04;"/>
   </g>
   <g id="patch_55">
    <path clip-path="url(#p74f872f9e9)" d="M 433.795159 384.48 
L 433.795159 51.84 
L 437.397095 51.84 
L 437.397095 384.48 
z
" style="fill:#008000;opacity:0.04;"/>
   </g>
   <g id="patch_56">
    <path clip-path="url(#p74f872f9e9)" d="M 440.999032 384.48 
L 440.999032 51.84 
L 444.600968 51.84 
L 444.600968 384.48 
z
" style="fill:#008000;opacity:0.04;"/>
   </g>
   <g id="patch_57">
    <path clip-path="url(#p74f872f9e9)" d="M 743.5617 384.48 
L 743.5617 371.1744 
L 747.163636 371.1744 
L 747.163636 384.48 
z
" style="fill:#ff6600;"/>
   </g>
   <g id="patch_58">
    <path clip-path="url(#p74f872f9e9)" d="M 448.202905 384.48 
L 448.202905 51.84 
L 451.804841 51.84 
L 451.804841 384.48 
z
" style="fill:#008000;opacity:0.04;"/>
   </g>
   <g id="patch_59">
    <path clip-path="url(#p74f872f9e9)" d="M 455.406778 384.48 
L 455.406778 51.84 
L 459.008714 51.84 
L 459.008714 384.48 
z
" style="fill:#008000;opacity:0.04;"/>
   </g>
   <g id="patch_60">
    <path clip-path="url(#p74f872f9e9)" d="M 462.610651 384.48 
L 462.610651 51.84 
L 466.212587 51.84 
L 466.212587 384.48 
z
" style="fill:#008000;opacity:0.04;"/>
   </g>
   <g id="patch_61">
    <path clip-path="url(#p74f872f9e9)" d="M 469.814524 384.48 
L 469.814524 51.84 
L 473.41646 51.84 
L 473.41646 384.48 
z
" style="fill:#008000;opacity:0.04;"/>
   </g>
   <g id="patch_62">
    <path clip-path="url(#p74f872f9e9)" d="M 477.018397 384.48 
L 477.018397 51.84 
L 480.620334 51.84 
L 480.620334 384.48 
z
" style="fill:#008000;opacity:0.04;"/>
   </g>
   <g id="patch_63">
    <path clip-path="url(#p74f872f9e9)" d="M 484.22227 384.48 
L 484.22227 51.84 
L 487.824207 51.84 
L 487.824207 384.48 
z
" style="fill:#008000;opacity:0.04;"/>
   </g>
   <g id="patch_64">
    <path clip-path="url(#p74f872f9e9)" d="M 491.426143 384.48 
L 491.426143 51.84 
L 495.02808 51.84 
L 495.02808 384.48 
z
" style="fill:#008000;opacity:0.04;"/>
   </g>
   <g id="patch_65">
    <path clip-path="url(#p74f872f9e9)" d="M 498.630016 384.48 
L 498.630016 51.84 
L 502.231953 51.84 
L 502.231953 384.48 
z
" style="fill:#008000;opacity:0.04;"/>
   </g>
   <g id="patch_66">
    <path clip-path="url(#p74f872f9e9)" d="M 505.833889 384.48 
L 505.833889 51.84 
L 509.435826 51.84 
L 509.435826 384.48 
z
" style="fill:#008000;opacity:0.04;"/>
   </g>
   <g id="patch_67">
    <path clip-path="url(#p74f872f9e9)" d="M 513.037762 384.48 
L 513.037762 51.84 
L 516.639699 51.84 
L 516.639699 384.48 
z
" style="fill:#008000;opacity:0.04;"/>
   </g>
   <g id="patch_68">
    <path clip-path="url(#p74f872f9e9)" d="M 520.241635 384.48 
L 520.241635 51.84 
L 523.843572 51.84 
L 523.843572 384.48 
z
" style="fill:#008000;opacity:0.04;"/>
   </g>
   <g id="patch_69">
    <path clip-path="url(#p74f872f9e9)" d="M 527.445508 384.48 
L 527.445508 51.84 
L 531.047445 51.84 
L 531.047445 384.48 
z
" style="fill:#008000;opacity:0.04;"/>
   </g>
   <g id="patch_70">
    <path clip-path="url(#p74f872f9e9)" d="M 534.649381 384.48 
L 534.649381 51.84 
L 538.251318 51.84 
L 538.251318 384.48 
z
" style="fill:#008000;opacity:0.04;"/>
   </g>
   <g id="patch_71">
    <path clip-path="url(#p74f872f9e9)" d="M 541.853254 384.48 
L 541.853254 51.84 
L 545.455191 51.84 
L 545.455191 384.48 
z
" style="fill:#008000;opacity:0.04;"/>
   </g>
   <g id="patch_72">
    <path clip-path="url(#p74f872f9e9)" d="M 549.057127 384.48 
L 549.057127 51.84 
L 552.659064 51.84 
L 552.659064 384.48 
z
" style="fill:#008000;opacity:0.04;"/>
   </g>
   <g id="patch_73">
    <path clip-path="url(#p74f872f9e9)" d="M 556.261001 384.48 
L 556.261001 51.84 
L 559.862937 51.84 
L 559.862937 384.48 
z
" style="fill:#008000;opacity:0.04;"/>
   </g>
   <g id="patch_74">
    <path clip-path="url(#p74f872f9e9)" d="M 563.464874 384.48 
L 563.464874 51.84 
L 567.06681 51.84 
L 567.06681 384.48 
z
" style="fill:#008000;opacity:0.04;"/>
   </g>
   <g id="patch_75">
    <path clip-path="url(#p74f872f9e9)" d="M 570.668747 384.48 
L 570.668747 51.84 
L 574.270683 51.84 
L 574.270683 384.48 
z
" style="fill:#008000;opacity:0.04;"/>
   </g>
   <g id="patch_76">
    <path clip-path="url(#p74f872f9e9)" d="M 577.87262 384.48 
L 577.87262 51.84 
L 581.474556 51.84 
L 581.474556 384.48 
z
" style="fill:#008000;opacity:0.04;"/>
   </g>
   <g id="patch_77">
    <path clip-path="url(#p74f872f9e9)" d="M 585.076493 384.48 
L 585.076493 51.84 
L 588.678429 51.84 
L 588.678429 384.48 
z
" style="fill:#008000;opacity:0.04;"/>
   </g>
   <g id="patch_78">
    <path clip-path="url(#p74f872f9e9)" d="M 592.280366 384.48 
L 592.280366 51.84 
L 595.882302 51.84 
L 595.882302 384.48 
z
" style="fill:#008000;opacity:0.04;"/>
   </g>
   <g id="patch_79">
    <path clip-path="url(#p74f872f9e9)" d="M 599.484239 384.48 
L 599.484239 51.84 
L 603.086175 51.84 
L 603.086175 384.48 
z
" style="fill:#008000;opacity:0.04;"/>
   </g>
   <g id="patch_80">
    <path clip-path="url(#p74f872f9e9)" d="M 606.688112 384.48 
L 606.688112 51.84 
L 610.290048 51.84 
L 610.290048 384.48 
z
" style="fill:#008000;opacity:0.04;"/>
   </g>
   <g id="patch_81">
    <path clip-path="url(#p74f872f9e9)" d="M 613.891985 384.48 
L 613.891985 51.84 
L 617.493921 51.84 
L 617.493921 384.48 
z
" style="fill:#008000;opacity:0.04;"/>
   </g>
   <g id="patch_82">
    <path clip-path="url(#p74f872f9e9)" d="M 621.095858 384.48 
L 621.095858 51.84 
L 624.697795 51.84 
L 624.697795 384.48 
z
" style="fill:#008000;opacity:0.04;"/>
   </g>
   <g id="patch_83">
    <path clip-path="url(#p74f872f9e9)" d="M 628.299731 384.48 
L 628.299731 51.84 
L 631.901668 51.84 
L 631.901668 384.48 
z
" style="fill:#008000;opacity:0.04;"/>
   </g>
   <g id="patch_84">
    <path clip-path="url(#p74f872f9e9)" d="M 635.503604 384.48 
L 635.503604 51.84 
L 639.105541 51.84 
L 639.105541 384.48 
z
" style="fill:#008000;opacity:0.04;"/>
   </g>
   <g id="patch_85">
    <path clip-path="url(#p74f872f9e9)" d="M 642.707477 384.48 
L 642.707477 51.84 
L 646.309414 51.84 
L 646.309414 384.48 
z
" style="fill:#008000;opacity:0.04;"/>
   </g>
   <g id="patch_86">
    <path clip-path="url(#p74f872f9e9)" d="M 649.91135 384.48 
L 649.91135 51.84 
L 653.513287 51.84 
L 653.513287 384.48 
z
" style="fill:#008000;opacity:0.04;"/>
   </g>
   <g id="patch_87">
    <path clip-path="url(#p74f872f9e9)" d="M 657.115223 384.48 
L 657.115223 51.84 
L 660.71716 51.84 
L 660.71716 384.48 
z
" style="fill:#008000;opacity:0.04;"/>
   </g>
   <g id="patch_88">
    <path clip-path="url(#p74f872f9e9)" d="M 664.319096 384.48 
L 664.319096 51.84 
L 667.921033 51.84 
L 667.921033 384.48 
z
" style="fill:#008000;opacity:0.04;"/>
   </g>
   <g id="patch_89">
    <path clip-path="url(#p74f872f9e9)" d="M 671.522969 384.48 
L 671.522969 51.84 
L 675.124906 51.84 
L 675.124906 384.48 
z
" style="fill:#008000;opacity:0.04;"/>
   </g>
   <g id="patch_90">
    <path clip-path="url(#p74f872f9e9)" d="M 678.726842 384.48 
L 678.726842 51.84 
L 682.328779 51.84 
L 682.328779 384.48 
z
" style="fill:#008000;opacity:0.04;"/>
   </g>
   <g id="patch_91">
    <path clip-path="url(#p74f872f9e9)" d="M 685.930715 384.48 
L 685.930715 51.84 
L 689.532652 51.84 
L 689.532652 384.48 
z
" style="fill:#008000;opacity:0.04;"/>
   </g>
   <g id="patch_92">
    <path clip-path="url(#p74f872f9e9)" d="M 693.134588 384.48 
L 693.134588 51.84 
L 696.736525 51.84 
L 696.736525 384.48 
z
" style="fill:#008000;opacity:0.04;"/>
   </g>
   <g id="patch_93">
    <path clip-path="url(#p74f872f9e9)" d="M 700.338462 384.48 
L 700.338462 51.84 
L 703.940398 51.84 
L 703.940398 384.48 
z
" style="fill:#008000;opacity:0.04;"/>
   </g>
   <g id="patch_94">
    <path clip-path="url(#p74f872f9e9)" d="M 707.542335 384.48 
L 707.542335 51.84 
L 711.144271 51.84 
L 711.144271 384.48 
z
" style="fill:#008000;opacity:0.04;"/>
   </g>
   <g id="patch_95">
    <path clip-path="url(#p74f872f9e9)" d="M 714.746208 384.48 
L 714.746208 51.84 
L 718.348144 51.84 
L 718.348144 384.48 
z
" style="fill:#008000;opacity:0.04;"/>
   </g>
   <g id="patch_96">
    <path clip-path="url(#p74f872f9e9)" d="M 718.348144 371.1744 
L 718.348144 51.84 
L 721.950081 51.84 
L 721.950081 371.1744 
z
" style="fill:#008000;opacity:0.5;"/>
   </g>
   <g id="patch_97">
    <path clip-path="url(#p74f872f9e9)" d="M 721.950081 384.48 
L 721.950081 51.84 
L 725.552017 51.84 
L 725.552017 384.48 
z
" style="fill:#008000;opacity:0.04;"/>
   </g>
   <g id="patch_98">
    <path clip-path="url(#p74f872f9e9)" d="M 729.153954 384.48 
L 729.153954 51.84 
L 732.75589 51.84 
L 732.75589 384.48 
z
" style="fill:#008000;opacity:0.04;"/>
   </g>
   <g id="patch_99">
    <path clip-path="url(#p74f872f9e9)" d="M 736.357827 384.48 
L 736.357827 51.84 
L 739.959763 51.84 
L 739.959763 384.48 
z
" style="fill:#008000;opacity:0.04;"/>
   </g>
   <g id="patch_100">
    <path clip-path="url(#p74f872f9e9)" d="M 743.5617 384.48 
L 743.5617 51.84 
L 747.163636 51.84 
L 747.163636 384.48 
z
" style="fill:#008000;opacity:0.04;"/>
   </g>
   <g id="matplotlib.axis_1">
    <g id="xtick_1">
     <g id="line2d_1">
      <defs>
       <path d="M 0 0 
L 0 3.5 
" id="mfc915bc303" style="stroke:#000000;stroke-width:0.8;"/>
      </defs>
      <g>
       <use style="stroke:#000000;stroke-width:0.8;" x="138.436364" xlink:href="#mfc915bc303" y="384.48"/>
      </g>
     </g>
     <g id="text_1">
      <!-- 0 -->
      <defs>
       <path d="M 31.78125 66.40625 
Q 24.171875 66.40625 20.328125 58.90625 
Q 16.5 51.421875 16.5 36.375 
Q 16.5 21.390625 20.328125 13.890625 
Q 24.171875 6.390625 31.78125 6.390625 
Q 39.453125 6.390625 43.28125 13.890625 
Q 47.125 21.390625 47.125 36.375 
Q 47.125 51.421875 43.28125 58.90625 
Q 39.453125 66.40625 31.78125 66.40625 
z
M 31.78125 74.21875 
Q 44.046875 74.21875 50.515625 64.515625 
Q 56.984375 54.828125 56.984375 36.375 
Q 56.984375 17.96875 50.515625 8.265625 
Q 44.046875 -1.421875 31.78125 -1.421875 
Q 19.53125 -1.421875 13.0625 8.265625 
Q 6.59375 17.96875 6.59375 36.375 
Q 6.59375 54.828125 13.0625 64.515625 
Q 19.53125 74.21875 31.78125 74.21875 
z
" id="DejaVuSans-48"/>
      </defs>
      <g transform="translate(135.255114 399.078438)scale(0.1 -0.1)">
       <use xlink:href="#DejaVuSans-48"/>
      </g>
     </g>
    </g>
    <g id="xtick_2">
     <g id="line2d_2">
      <g>
       <use style="stroke:#000000;stroke-width:0.8;" x="228.484777" xlink:href="#mfc915bc303" y="384.48"/>
      </g>
     </g>
     <g id="text_2">
      <!-- 250 -->
      <defs>
       <path d="M 19.1875 8.296875 
L 53.609375 8.296875 
L 53.609375 0 
L 7.328125 0 
L 7.328125 8.296875 
Q 12.9375 14.109375 22.625 23.890625 
Q 32.328125 33.6875 34.8125 36.53125 
Q 39.546875 41.84375 41.421875 45.53125 
Q 43.3125 49.21875 43.3125 52.78125 
Q 43.3125 58.59375 39.234375 62.25 
Q 35.15625 65.921875 28.609375 65.921875 
Q 23.96875 65.921875 18.8125 64.3125 
Q 13.671875 62.703125 7.8125 59.421875 
L 7.8125 69.390625 
Q 13.765625 71.78125 18.9375 73 
Q 24.125 74.21875 28.421875 74.21875 
Q 39.75 74.21875 46.484375 68.546875 
Q 53.21875 62.890625 53.21875 53.421875 
Q 53.21875 48.921875 51.53125 44.890625 
Q 49.859375 40.875 45.40625 35.40625 
Q 44.1875 33.984375 37.640625 27.21875 
Q 31.109375 20.453125 19.1875 8.296875 
z
" id="DejaVuSans-50"/>
       <path d="M 10.796875 72.90625 
L 49.515625 72.90625 
L 49.515625 64.59375 
L 19.828125 64.59375 
L 19.828125 46.734375 
Q 21.96875 47.46875 24.109375 47.828125 
Q 26.265625 48.1875 28.421875 48.1875 
Q 40.625 48.1875 47.75 41.5 
Q 54.890625 34.8125 54.890625 23.390625 
Q 54.890625 11.625 47.5625 5.09375 
Q 40.234375 -1.421875 26.90625 -1.421875 
Q 22.3125 -1.421875 17.546875 -0.640625 
Q 12.796875 0.140625 7.71875 1.703125 
L 7.71875 11.625 
Q 12.109375 9.234375 16.796875 8.0625 
Q 21.484375 6.890625 26.703125 6.890625 
Q 35.15625 6.890625 40.078125 11.328125 
Q 45.015625 15.765625 45.015625 23.390625 
Q 45.015625 31 40.078125 35.4375 
Q 35.15625 39.890625 26.703125 39.890625 
Q 22.75 39.890625 18.8125 39.015625 
Q 14.890625 38.140625 10.796875 36.28125 
z
" id="DejaVuSans-53"/>
      </defs>
      <g transform="translate(218.941027 399.078438)scale(0.1 -0.1)">
       <use xlink:href="#DejaVuSans-50"/>
       <use x="63.623047" xlink:href="#DejaVuSans-53"/>
       <use x="127.246094" xlink:href="#DejaVuSans-48"/>
      </g>
     </g>
    </g>
    <g id="xtick_3">
     <g id="line2d_3">
      <g>
       <use style="stroke:#000000;stroke-width:0.8;" x="318.53319" xlink:href="#mfc915bc303" y="384.48"/>
      </g>
     </g>
     <g id="text_3">
      <!-- 500 -->
      <g transform="translate(308.98944 399.078438)scale(0.1 -0.1)">
       <use xlink:href="#DejaVuSans-53"/>
       <use x="63.623047" xlink:href="#DejaVuSans-48"/>
       <use x="127.246094" xlink:href="#DejaVuSans-48"/>
      </g>
     </g>
    </g>
    <g id="xtick_4">
     <g id="line2d_4">
      <g>
       <use style="stroke:#000000;stroke-width:0.8;" x="408.581603" xlink:href="#mfc915bc303" y="384.48"/>
      </g>
     </g>
     <g id="text_4">
      <!-- 750 -->
      <defs>
       <path d="M 8.203125 72.90625 
L 55.078125 72.90625 
L 55.078125 68.703125 
L 28.609375 0 
L 18.3125 0 
L 43.21875 64.59375 
L 8.203125 64.59375 
z
" id="DejaVuSans-55"/>
      </defs>
      <g transform="translate(399.037853 399.078438)scale(0.1 -0.1)">
       <use xlink:href="#DejaVuSans-55"/>
       <use x="63.623047" xlink:href="#DejaVuSans-53"/>
       <use x="127.246094" xlink:href="#DejaVuSans-48"/>
      </g>
     </g>
    </g>
    <g id="xtick_5">
     <g id="line2d_5">
      <g>
       <use style="stroke:#000000;stroke-width:0.8;" x="498.630016" xlink:href="#mfc915bc303" y="384.48"/>
      </g>
     </g>
     <g id="text_5">
      <!-- 1000 -->
      <defs>
       <path d="M 12.40625 8.296875 
L 28.515625 8.296875 
L 28.515625 63.921875 
L 10.984375 60.40625 
L 10.984375 69.390625 
L 28.421875 72.90625 
L 38.28125 72.90625 
L 38.28125 8.296875 
L 54.390625 8.296875 
L 54.390625 0 
L 12.40625 0 
z
" id="DejaVuSans-49"/>
      </defs>
      <g transform="translate(485.905016 399.078438)scale(0.1 -0.1)">
       <use xlink:href="#DejaVuSans-49"/>
       <use x="63.623047" xlink:href="#DejaVuSans-48"/>
       <use x="127.246094" xlink:href="#DejaVuSans-48"/>
       <use x="190.869141" xlink:href="#DejaVuSans-48"/>
      </g>
     </g>
    </g>
    <g id="xtick_6">
     <g id="line2d_6">
      <g>
       <use style="stroke:#000000;stroke-width:0.8;" x="588.678429" xlink:href="#mfc915bc303" y="384.48"/>
      </g>
     </g>
     <g id="text_6">
      <!-- 1250 -->
      <g transform="translate(575.953429 399.078438)scale(0.1 -0.1)">
       <use xlink:href="#DejaVuSans-49"/>
       <use x="63.623047" xlink:href="#DejaVuSans-50"/>
       <use x="127.246094" xlink:href="#DejaVuSans-53"/>
       <use x="190.869141" xlink:href="#DejaVuSans-48"/>
      </g>
     </g>
    </g>
    <g id="xtick_7">
     <g id="line2d_7">
      <g>
       <use style="stroke:#000000;stroke-width:0.8;" x="678.726842" xlink:href="#mfc915bc303" y="384.48"/>
      </g>
     </g>
     <g id="text_7">
      <!-- 1500 -->
      <g transform="translate(666.001842 399.078438)scale(0.1 -0.1)">
       <use xlink:href="#DejaVuSans-49"/>
       <use x="63.623047" xlink:href="#DejaVuSans-53"/>
       <use x="127.246094" xlink:href="#DejaVuSans-48"/>
       <use x="190.869141" xlink:href="#DejaVuSans-48"/>
      </g>
     </g>
    </g>
    <g id="xtick_8">
     <g id="line2d_8">
      <g>
       <use style="stroke:#000000;stroke-width:0.8;" x="768.775256" xlink:href="#mfc915bc303" y="384.48"/>
      </g>
     </g>
     <g id="text_8">
      <!-- 1750 -->
      <g transform="translate(756.050256 399.078438)scale(0.1 -0.1)">
       <use xlink:href="#DejaVuSans-49"/>
       <use x="63.623047" xlink:href="#DejaVuSans-55"/>
       <use x="127.246094" xlink:href="#DejaVuSans-53"/>
       <use x="190.869141" xlink:href="#DejaVuSans-48"/>
      </g>
     </g>
    </g>
    <g id="text_9">
     <!-- Timestamp -->
     <defs>
      <path d="M -0.296875 72.90625 
L 61.375 72.90625 
L 61.375 64.59375 
L 35.5 64.59375 
L 35.5 0 
L 25.59375 0 
L 25.59375 64.59375 
L -0.296875 64.59375 
z
" id="DejaVuSans-84"/>
      <path d="M 9.421875 54.6875 
L 18.40625 54.6875 
L 18.40625 0 
L 9.421875 0 
z
M 9.421875 75.984375 
L 18.40625 75.984375 
L 18.40625 64.59375 
L 9.421875 64.59375 
z
" id="DejaVuSans-105"/>
      <path d="M 52 44.1875 
Q 55.375 50.25 60.0625 53.125 
Q 64.75 56 71.09375 56 
Q 79.640625 56 84.28125 50.015625 
Q 88.921875 44.046875 88.921875 33.015625 
L 88.921875 0 
L 79.890625 0 
L 79.890625 32.71875 
Q 79.890625 40.578125 77.09375 44.375 
Q 74.3125 48.1875 68.609375 48.1875 
Q 61.625 48.1875 57.5625 43.546875 
Q 53.515625 38.921875 53.515625 30.90625 
L 53.515625 0 
L 44.484375 0 
L 44.484375 32.71875 
Q 44.484375 40.625 41.703125 44.40625 
Q 38.921875 48.1875 33.109375 48.1875 
Q 26.21875 48.1875 22.15625 43.53125 
Q 18.109375 38.875 18.109375 30.90625 
L 18.109375 0 
L 9.078125 0 
L 9.078125 54.6875 
L 18.109375 54.6875 
L 18.109375 46.1875 
Q 21.1875 51.21875 25.484375 53.609375 
Q 29.78125 56 35.6875 56 
Q 41.65625 56 45.828125 52.96875 
Q 50 49.953125 52 44.1875 
z
" id="DejaVuSans-109"/>
      <path d="M 56.203125 29.59375 
L 56.203125 25.203125 
L 14.890625 25.203125 
Q 15.484375 15.921875 20.484375 11.0625 
Q 25.484375 6.203125 34.421875 6.203125 
Q 39.59375 6.203125 44.453125 7.46875 
Q 49.3125 8.734375 54.109375 11.28125 
L 54.109375 2.78125 
Q 49.265625 0.734375 44.1875 -0.34375 
Q 39.109375 -1.421875 33.890625 -1.421875 
Q 20.796875 -1.421875 13.15625 6.1875 
Q 5.515625 13.8125 5.515625 26.8125 
Q 5.515625 40.234375 12.765625 48.109375 
Q 20.015625 56 32.328125 56 
Q 43.359375 56 49.78125 48.890625 
Q 56.203125 41.796875 56.203125 29.59375 
z
M 47.21875 32.234375 
Q 47.125 39.59375 43.09375 43.984375 
Q 39.0625 48.390625 32.421875 48.390625 
Q 24.90625 48.390625 20.390625 44.140625 
Q 15.875 39.890625 15.1875 32.171875 
z
" id="DejaVuSans-101"/>
      <path d="M 44.28125 53.078125 
L 44.28125 44.578125 
Q 40.484375 46.53125 36.375 47.5 
Q 32.28125 48.484375 27.875 48.484375 
Q 21.1875 48.484375 17.84375 46.4375 
Q 14.5 44.390625 14.5 40.28125 
Q 14.5 37.15625 16.890625 35.375 
Q 19.28125 33.59375 26.515625 31.984375 
L 29.59375 31.296875 
Q 39.15625 29.25 43.1875 25.515625 
Q 47.21875 21.78125 47.21875 15.09375 
Q 47.21875 7.46875 41.1875 3.015625 
Q 35.15625 -1.421875 24.609375 -1.421875 
Q 20.21875 -1.421875 15.453125 -0.5625 
Q 10.6875 0.296875 5.421875 2 
L 5.421875 11.28125 
Q 10.40625 8.6875 15.234375 7.390625 
Q 20.0625 6.109375 24.8125 6.109375 
Q 31.15625 6.109375 34.5625 8.28125 
Q 37.984375 10.453125 37.984375 14.40625 
Q 37.984375 18.0625 35.515625 20.015625 
Q 33.0625 21.96875 24.703125 23.78125 
L 21.578125 24.515625 
Q 13.234375 26.265625 9.515625 29.90625 
Q 5.8125 33.546875 5.8125 39.890625 
Q 5.8125 47.609375 11.28125 51.796875 
Q 16.75 56 26.8125 56 
Q 31.78125 56 36.171875 55.265625 
Q 40.578125 54.546875 44.28125 53.078125 
z
" id="DejaVuSans-115"/>
      <path d="M 18.3125 70.21875 
L 18.3125 54.6875 
L 36.8125 54.6875 
L 36.8125 47.703125 
L 18.3125 47.703125 
L 18.3125 18.015625 
Q 18.3125 11.328125 20.140625 9.421875 
Q 21.96875 7.515625 27.59375 7.515625 
L 36.8125 7.515625 
L 36.8125 0 
L 27.59375 0 
Q 17.1875 0 13.234375 3.875 
Q 9.28125 7.765625 9.28125 18.015625 
L 9.28125 47.703125 
L 2.6875 47.703125 
L 2.6875 54.6875 
L 9.28125 54.6875 
L 9.28125 70.21875 
z
" id="DejaVuSans-116"/>
      <path d="M 34.28125 27.484375 
Q 23.390625 27.484375 19.1875 25 
Q 14.984375 22.515625 14.984375 16.5 
Q 14.984375 11.71875 18.140625 8.90625 
Q 21.296875 6.109375 26.703125 6.109375 
Q 34.1875 6.109375 38.703125 11.40625 
Q 43.21875 16.703125 43.21875 25.484375 
L 43.21875 27.484375 
z
M 52.203125 31.203125 
L 52.203125 0 
L 43.21875 0 
L 43.21875 8.296875 
Q 40.140625 3.328125 35.546875 0.953125 
Q 30.953125 -1.421875 24.3125 -1.421875 
Q 15.921875 -1.421875 10.953125 3.296875 
Q 6 8.015625 6 15.921875 
Q 6 25.140625 12.171875 29.828125 
Q 18.359375 34.515625 30.609375 34.515625 
L 43.21875 34.515625 
L 43.21875 35.40625 
Q 43.21875 41.609375 39.140625 45 
Q 35.0625 48.390625 27.6875 48.390625 
Q 23 48.390625 18.546875 47.265625 
Q 14.109375 46.140625 10.015625 43.890625 
L 10.015625 52.203125 
Q 14.9375 54.109375 19.578125 55.046875 
Q 24.21875 56 28.609375 56 
Q 40.484375 56 46.34375 49.84375 
Q 52.203125 43.703125 52.203125 31.203125 
z
" id="DejaVuSans-97"/>
      <path d="M 18.109375 8.203125 
L 18.109375 -20.796875 
L 9.078125 -20.796875 
L 9.078125 54.6875 
L 18.109375 54.6875 
L 18.109375 46.390625 
Q 20.953125 51.265625 25.265625 53.625 
Q 29.59375 56 35.59375 56 
Q 45.5625 56 51.78125 48.09375 
Q 58.015625 40.1875 58.015625 27.296875 
Q 58.015625 14.40625 51.78125 6.484375 
Q 45.5625 -1.421875 35.59375 -1.421875 
Q 29.59375 -1.421875 25.265625 0.953125 
Q 20.953125 3.328125 18.109375 8.203125 
z
M 48.6875 27.296875 
Q 48.6875 37.203125 44.609375 42.84375 
Q 40.53125 48.484375 33.40625 48.484375 
Q 26.265625 48.484375 22.1875 42.84375 
Q 18.109375 37.203125 18.109375 27.296875 
Q 18.109375 17.390625 22.1875 11.75 
Q 26.265625 6.109375 33.40625 6.109375 
Q 40.53125 6.109375 44.609375 11.75 
Q 48.6875 17.390625 48.6875 27.296875 
z
" id="DejaVuSans-112"/>
     </defs>
     <g transform="translate(414.739062 412.756563)scale(0.1 -0.1)">
      <use xlink:href="#DejaVuSans-84"/>
      <use x="61.037109" xlink:href="#DejaVuSans-105"/>
      <use x="88.820312" xlink:href="#DejaVuSans-109"/>
      <use x="186.232422" xlink:href="#DejaVuSans-101"/>
      <use x="247.755859" xlink:href="#DejaVuSans-115"/>
      <use x="299.855469" xlink:href="#DejaVuSans-116"/>
      <use x="339.064453" xlink:href="#DejaVuSans-97"/>
      <use x="400.34375" xlink:href="#DejaVuSans-109"/>
      <use x="497.755859" xlink:href="#DejaVuSans-112"/>
     </g>
    </g>
   </g>
   <g id="matplotlib.axis_2">
    <g id="ytick_1">
     <g id="line2d_9">
      <defs>
       <path d="M 0 0 
L -3.5 0 
" id="m57ac9bd2cc" style="stroke:#000000;stroke-width:0.8;"/>
      </defs>
      <g>
       <use style="stroke:#000000;stroke-width:0.8;" x="108" xlink:href="#m57ac9bd2cc" y="360.898748"/>
      </g>
     </g>
     <g id="text_10">
      <!-- −1000 -->
      <defs>
       <path d="M 10.59375 35.5 
L 73.1875 35.5 
L 73.1875 27.203125 
L 10.59375 27.203125 
z
" id="DejaVuSans-8722"/>
      </defs>
      <g transform="translate(67.170312 364.697967)scale(0.1 -0.1)">
       <use xlink:href="#DejaVuSans-8722"/>
       <use x="83.789062" xlink:href="#DejaVuSans-49"/>
       <use x="147.412109" xlink:href="#DejaVuSans-48"/>
       <use x="211.035156" xlink:href="#DejaVuSans-48"/>
       <use x="274.658203" xlink:href="#DejaVuSans-48"/>
      </g>
     </g>
    </g>
    <g id="ytick_2">
     <g id="line2d_10">
      <g>
       <use style="stroke:#000000;stroke-width:0.8;" x="108" xlink:href="#m57ac9bd2cc" y="322.037582"/>
      </g>
     </g>
     <g id="text_11">
      <!-- −500 -->
      <g transform="translate(73.532813 325.836801)scale(0.1 -0.1)">
       <use xlink:href="#DejaVuSans-8722"/>
       <use x="83.789062" xlink:href="#DejaVuSans-53"/>
       <use x="147.412109" xlink:href="#DejaVuSans-48"/>
       <use x="211.035156" xlink:href="#DejaVuSans-48"/>
      </g>
     </g>
    </g>
    <g id="ytick_3">
     <g id="line2d_11">
      <g>
       <use style="stroke:#000000;stroke-width:0.8;" x="108" xlink:href="#m57ac9bd2cc" y="283.176415"/>
      </g>
     </g>
     <g id="text_12">
      <!-- 0 -->
      <g transform="translate(94.6375 286.975634)scale(0.1 -0.1)">
       <use xlink:href="#DejaVuSans-48"/>
      </g>
     </g>
    </g>
    <g id="ytick_4">
     <g id="line2d_12">
      <g>
       <use style="stroke:#000000;stroke-width:0.8;" x="108" xlink:href="#m57ac9bd2cc" y="244.315249"/>
      </g>
     </g>
     <g id="text_13">
      <!-- 500 -->
      <g transform="translate(81.9125 248.114468)scale(0.1 -0.1)">
       <use xlink:href="#DejaVuSans-53"/>
       <use x="63.623047" xlink:href="#DejaVuSans-48"/>
       <use x="127.246094" xlink:href="#DejaVuSans-48"/>
      </g>
     </g>
    </g>
    <g id="ytick_5">
     <g id="line2d_13">
      <g>
       <use style="stroke:#000000;stroke-width:0.8;" x="108" xlink:href="#m57ac9bd2cc" y="205.454082"/>
      </g>
     </g>
     <g id="text_14">
      <!-- 1000 -->
      <g transform="translate(75.55 209.253301)scale(0.1 -0.1)">
       <use xlink:href="#DejaVuSans-49"/>
       <use x="63.623047" xlink:href="#DejaVuSans-48"/>
       <use x="127.246094" xlink:href="#DejaVuSans-48"/>
       <use x="190.869141" xlink:href="#DejaVuSans-48"/>
      </g>
     </g>
    </g>
    <g id="ytick_6">
     <g id="line2d_14">
      <g>
       <use style="stroke:#000000;stroke-width:0.8;" x="108" xlink:href="#m57ac9bd2cc" y="166.592916"/>
      </g>
     </g>
     <g id="text_15">
      <!-- 1500 -->
      <g transform="translate(75.55 170.392135)scale(0.1 -0.1)">
       <use xlink:href="#DejaVuSans-49"/>
       <use x="63.623047" xlink:href="#DejaVuSans-53"/>
       <use x="127.246094" xlink:href="#DejaVuSans-48"/>
       <use x="190.869141" xlink:href="#DejaVuSans-48"/>
      </g>
     </g>
    </g>
    <g id="ytick_7">
     <g id="line2d_15">
      <g>
       <use style="stroke:#000000;stroke-width:0.8;" x="108" xlink:href="#m57ac9bd2cc" y="127.731749"/>
      </g>
     </g>
     <g id="text_16">
      <!-- 2000 -->
      <g transform="translate(75.55 131.530968)scale(0.1 -0.1)">
       <use xlink:href="#DejaVuSans-50"/>
       <use x="63.623047" xlink:href="#DejaVuSans-48"/>
       <use x="127.246094" xlink:href="#DejaVuSans-48"/>
       <use x="190.869141" xlink:href="#DejaVuSans-48"/>
      </g>
     </g>
    </g>
    <g id="ytick_8">
     <g id="line2d_16">
      <g>
       <use style="stroke:#000000;stroke-width:0.8;" x="108" xlink:href="#m57ac9bd2cc" y="88.870583"/>
      </g>
     </g>
     <g id="text_17">
      <!-- 2500 -->
      <g transform="translate(75.55 92.669802)scale(0.1 -0.1)">
       <use xlink:href="#DejaVuSans-50"/>
       <use x="63.623047" xlink:href="#DejaVuSans-53"/>
       <use x="127.246094" xlink:href="#DejaVuSans-48"/>
       <use x="190.869141" xlink:href="#DejaVuSans-48"/>
      </g>
     </g>
    </g>
    <g id="text_18">
     <!-- Value -->
     <defs>
      <path d="M 28.609375 0 
L 0.78125 72.90625 
L 11.078125 72.90625 
L 34.1875 11.53125 
L 57.328125 72.90625 
L 67.578125 72.90625 
L 39.796875 0 
z
" id="DejaVuSans-86"/>
      <path d="M 9.421875 75.984375 
L 18.40625 75.984375 
L 18.40625 0 
L 9.421875 0 
z
" id="DejaVuSans-108"/>
      <path d="M 8.5 21.578125 
L 8.5 54.6875 
L 17.484375 54.6875 
L 17.484375 21.921875 
Q 17.484375 14.15625 20.5 10.265625 
Q 23.53125 6.390625 29.59375 6.390625 
Q 36.859375 6.390625 41.078125 11.03125 
Q 45.3125 15.671875 45.3125 23.6875 
L 45.3125 54.6875 
L 54.296875 54.6875 
L 54.296875 0 
L 45.3125 0 
L 45.3125 8.40625 
Q 42.046875 3.421875 37.71875 1 
Q 33.40625 -1.421875 27.6875 -1.421875 
Q 18.265625 -1.421875 13.375 4.4375 
Q 8.5 10.296875 8.5 21.578125 
z
M 31.109375 56 
z
" id="DejaVuSans-117"/>
     </defs>
     <g transform="translate(61.090625 232.273281)rotate(-90)scale(0.1 -0.1)">
      <use xlink:href="#DejaVuSans-86"/>
      <use x="68.298828" xlink:href="#DejaVuSans-97"/>
      <use x="129.578125" xlink:href="#DejaVuSans-108"/>
      <use x="157.361328" xlink:href="#DejaVuSans-117"/>
      <use x="220.740234" xlink:href="#DejaVuSans-101"/>
     </g>
    </g>
   </g>
   <g id="line2d_17">
    <path clip-path="url(#p74f872f9e9)" d="M 138.436364 284.051367 
L 139.156751 228.260007 
L 139.516945 215.996013 
L 139.877138 213.94034 
L 140.237332 224.793014 
L 140.597526 240.109701 
L 141.317913 279.124525 
L 141.678107 287.827119 
L 142.0383 288.968487 
L 142.398494 280.442138 
L 143.479075 248.308454 
L 143.839268 249.650085 
L 144.199462 258.463767 
L 145.280043 318.922273 
L 145.640237 326.277237 
L 146.00043 325.152668 
L 146.360624 312.996653 
L 148.161592 189.484536 
L 148.521786 189.527303 
L 148.88198 202.170231 
L 150.322754 266.633466 
L 150.682948 269.415469 
L 151.043141 264.395967 
L 151.763529 240.676859 
L 152.123722 232.425144 
L 152.483916 235.183753 
L 152.84411 243.71715 
L 153.564497 284.254531 
L 153.924691 304.728583 
L 154.284884 315.017776 
L 154.645078 317.479754 
L 155.005272 303.442158 
L 156.446046 197.757361 
L 156.80624 187.241089 
L 157.166434 185.548488 
L 157.526627 198.458162 
L 158.607208 258.081501 
L 158.967402 269.730844 
L 159.327595 271.357439 
L 160.047983 255.761402 
L 160.76837 236.828309 
L 161.128564 240.841377 
L 161.488757 249.616803 
L 162.209145 293.011761 
L 162.569338 315.978757 
L 162.929532 328.404643 
L 163.289726 326.629545 
L 163.649919 315.166347 
L 164.010113 294.838747 
L 164.7305 235.302808 
L 165.090694 213.782396 
L 165.450888 202.778323 
L 165.811081 203.729739 
L 166.171275 216.902759 
L 167.251856 278.814663 
L 167.612049 291.108593 
L 167.972243 293.973501 
L 168.332437 287.820913 
L 168.69263 274.398087 
L 169.413018 261.86634 
L 169.773211 264.054839 
L 170.133405 274.79682 
L 171.213986 338.202179 
L 171.57418 349.339145 
L 171.934373 350.514244 
L 172.294567 338.533036 
L 172.654761 316.680782 
L 173.735342 238.83406 
L 174.095535 227.985747 
L 174.455729 225.396429 
L 175.176116 257.371287 
L 175.53631 283.199651 
L 176.256697 312.288785 
L 176.616891 316.132761 
L 176.977084 310.606834 
L 177.697472 285.706569 
L 178.057665 282.018556 
L 178.417859 282.768609 
L 178.778053 294.387497 
L 179.858634 356.537573 
L 180.218827 369.36 
L 180.579021 368.343348 
L 180.939215 356.391545 
L 181.659602 303.448579 
L 182.019796 271.486327 
L 182.379989 250.560449 
L 182.740183 237.859092 
L 183.100377 239.48179 
L 183.46057 248.455368 
L 184.541151 306.630535 
L 184.901345 318.838952 
L 185.261538 323.466164 
L 185.621732 317.670299 
L 186.342119 289.863857 
L 186.702313 284.524831 
L 187.062507 284.016919 
L 188.143088 332.714789 
L 188.503281 352.338199 
L 188.863475 361.716904 
L 189.223669 361.957196 
L 189.583862 348.410531 
L 189.944056 325.300357 
L 191.024637 241.529867 
L 191.384831 226.36377 
L 191.745024 224.737126 
L 192.105218 235.324418 
L 193.185799 294.9067 
L 193.545992 305.364336 
L 193.906186 305.596703 
L 194.26638 296.881923 
L 194.986767 271.640996 
L 195.346961 263.916328 
L 195.707154 266.56127 
L 196.067348 274.901463 
L 197.508123 341.302656 
L 197.868316 341.948187 
L 198.22851 323.755474 
L 198.948897 268.879073 
L 199.669285 214.452779 
L 200.029478 199.771987 
L 200.389672 201.149947 
L 200.749866 209.612947 
L 201.110059 225.465548 
L 201.830446 265.001734 
L 202.19064 272.893107 
L 202.550834 277.187904 
L 202.911027 270.50752 
L 203.631415 240.667068 
L 203.991608 237.675765 
L 204.351802 239.169468 
L 204.711996 246.294498 
L 205.072189 261.488683 
L 205.792577 303.320563 
L 206.15277 312.478927 
L 206.512964 311.418 
L 206.873158 298.970579 
L 207.233351 276.170109 
L 208.313932 191.785627 
L 208.674126 178.21192 
L 209.03432 174.950942 
L 209.394513 187.549442 
L 210.1149 224.783112 
L 210.835288 257.815568 
L 211.195481 257.337668 
L 211.915869 239.173372 
L 212.276062 228.140963 
L 212.636256 220.774928 
L 212.99645 217.982515 
L 213.716837 248.022832 
L 214.437224 292.610582 
L 214.797418 302.861437 
L 215.157612 301.9182 
L 215.517805 289.614006 
L 216.95858 185.204977 
L 217.318774 172.405914 
L 217.678967 172.93216 
L 218.039161 182.66399 
L 219.119742 247.532298 
L 219.479935 254.686549 
L 219.840129 259.268697 
L 220.200323 252.516886 
L 220.560516 239.585309 
L 220.92071 231.415079 
L 221.280904 226.856507 
L 221.641097 229.498895 
L 222.001291 238.923093 
L 222.361485 257.569403 
L 223.081872 300.813214 
L 223.442066 312.887363 
L 223.802259 314.328715 
L 224.162453 300.543727 
L 224.88284 249.314394 
L 225.603228 199.776899 
L 225.963421 187.469982 
L 226.323615 190.162194 
L 226.683808 201.805344 
L 227.764389 263.799631 
L 228.124583 276.775131 
L 228.484777 277.491802 
L 228.84497 277.539937 
L 229.565358 251.241877 
L 229.925551 245.523827 
L 230.285745 250.348197 
L 230.645939 260.339911 
L 231.72652 323.638755 
L 232.086713 336.196841 
L 232.446907 336.825042 
L 232.807101 324.709496 
L 233.527488 274.747612 
L 233.887682 244.362824 
L 234.247875 224.854202 
L 234.608069 212.656487 
L 234.968263 212.827869 
L 235.328456 225.010575 
L 236.409037 286.780049 
L 236.769231 300.87703 
L 237.129424 300.577142 
L 237.489618 294.861903 
L 238.210005 274.426504 
L 238.570199 267.71376 
L 238.930393 269.590489 
L 239.290586 283.366937 
L 240.371167 342.493385 
L 240.731361 353.30944 
L 241.091555 355.395258 
L 241.811942 319.852289 
L 242.532329 262.059229 
L 242.892523 239.84688 
L 243.252717 225.251434 
L 243.61291 226.61339 
L 243.973104 236.109018 
L 244.693491 276.503241 
L 245.053685 295.022509 
L 245.413878 304.251337 
L 245.774072 309.027014 
L 246.854653 277.324668 
L 247.214847 270.501091 
L 247.57504 269.821319 
L 247.935234 281.915022 
L 249.015815 340.613344 
L 249.376009 350.28486 
L 249.736202 349.13435 
L 250.096396 336.879511 
L 250.816783 282.384553 
L 251.176977 251.22521 
L 251.897364 213.832432 
L 252.257558 216.052365 
L 252.617751 223.528115 
L 254.058526 292.24113 
L 254.41872 289.422164 
L 254.778913 280.846956 
L 255.499301 258.165701 
L 255.859494 250.407082 
L 256.219688 253.345665 
L 256.579882 261.224924 
L 258.020656 330.743998 
L 258.38085 328.841851 
L 258.741044 312.422273 
L 259.461431 257.428666 
L 260.181818 202.596682 
L 260.542012 188.729502 
L 260.902205 187.111462 
L 261.622593 213.323985 
L 262.34298 253.664429 
L 262.703174 261.024555 
L 263.063367 261.674693 
L 263.423561 254.959553 
L 264.504142 222.840623 
L 264.864336 223.511194 
L 265.584723 249.991994 
L 266.30511 289.896089 
L 266.665304 299.844156 
L 267.025498 301.467902 
L 267.385691 286.974625 
L 268.106079 234.310282 
L 268.826466 176.752734 
L 269.186659 165.894463 
L 269.546853 163.87645 
L 269.907047 175.450457 
L 270.987628 230.542521 
L 271.347821 243.203576 
L 271.708015 242.756784 
L 272.068209 237.532556 
L 272.788596 214.440058 
L 273.14879 208.067171 
L 273.508983 210.376594 
L 273.869177 218.05169 
L 274.949758 277.512685 
L 275.309952 290.016587 
L 275.670145 288.266592 
L 276.030339 275.434416 
L 276.750726 222.226665 
L 277.471114 173.746684 
L 277.831307 156.874213 
L 278.191501 157.464341 
L 278.551694 169.01612 
L 279.632275 228.599538 
L 279.992469 242.77518 
L 280.352663 246.455975 
L 281.793437 212.568601 
L 282.153631 214.307724 
L 282.874018 244.277741 
L 283.594406 286.733017 
L 283.954599 300.789694 
L 284.314793 301.28282 
L 284.674987 289.369755 
L 285.395374 239.533033 
L 286.115761 186.316171 
L 286.475955 175.788859 
L 286.836148 177.377205 
L 287.196342 189.658048 
L 288.276923 249.380919 
L 288.637117 265.361102 
L 288.99731 266.505335 
L 289.357504 259.562683 
L 289.717698 248.530971 
L 290.077891 241.551924 
L 290.438085 232.188195 
L 290.798279 238.930857 
L 291.158472 249.767566 
L 291.87886 289.487269 
L 292.239053 311.610677 
L 292.599247 325.060123 
L 292.959441 325.310466 
L 293.319634 313.061827 
L 294.040022 263.758 
L 294.400215 232.116807 
L 294.760409 210.526201 
L 295.120602 199.411567 
L 295.480796 201.680473 
L 295.84099 211.957334 
L 296.561377 257.632425 
L 297.281764 286.738758 
L 297.641958 289.486575 
L 298.002152 282.902551 
L 298.722539 259.582202 
L 299.082733 258.119531 
L 299.442926 257.683215 
L 299.80312 269.439156 
L 300.163314 286.452634 
L 300.523507 311.113944 
L 301.243895 344.568188 
L 301.604088 341.830469 
L 301.964282 330.033095 
L 302.684669 276.728203 
L 303.405056 223.992117 
L 303.76525 213.41786 
L 304.125444 214.564029 
L 304.485637 224.329091 
L 304.845831 241.745595 
L 305.566218 283.24672 
L 305.926412 293.943337 
L 306.286606 295.96933 
L 306.646799 288.690083 
L 307.367187 266.063227 
L 307.72738 255.01059 
L 308.087574 256.956432 
L 308.807961 287.645427 
L 309.528349 326.269542 
L 309.888542 337.75253 
L 310.248736 336.38984 
L 310.60893 324.069822 
L 311.329317 268.761671 
L 311.68951 237.570725 
L 312.409898 200.497033 
L 312.770091 203.259798 
L 313.130285 212.317052 
L 314.57106 277.602551 
L 314.931253 275.758466 
L 315.291447 268.669894 
L 316.011834 245.377617 
L 316.372028 238.460459 
L 316.732222 236.914548 
L 317.092415 249.084846 
L 317.452609 265.405384 
L 318.172996 305.227204 
L 318.53319 313.639422 
L 318.893384 312.393984 
L 319.253577 300.484523 
L 320.694352 187.83281 
L 321.054545 175.457984 
L 321.414739 173.724147 
L 322.135126 200.947775 
L 322.855514 238.761773 
L 323.215707 248.01913 
L 323.575901 247.41183 
L 323.936095 244.016646 
L 324.656482 217.674055 
L 325.016676 210.506263 
L 325.376869 209.996215 
L 325.737063 219.8753 
L 326.817644 278.341074 
L 327.177838 286.43682 
L 327.538031 285.619682 
L 327.898225 272.289559 
L 328.618612 217.899823 
L 329.338999 162.437682 
L 329.699193 150.637793 
L 330.059387 151.397887 
L 330.41958 161.27227 
L 331.500161 218.815082 
L 331.860355 228.80754 
L 332.220549 228.749217 
L 332.580742 225.735076 
L 333.30113 198.490947 
L 333.661323 194.059523 
L 334.021517 195.296325 
L 334.381711 206.612467 
L 335.822485 276.189838 
L 336.182679 274.845763 
L 336.542873 262.898917 
L 337.26326 210.962684 
L 337.983647 159.540844 
L 338.343841 149.563266 
L 338.704034 146.519167 
L 339.064228 157.982195 
L 340.505003 231.995074 
L 340.865196 229.68299 
L 341.22539 226.551125 
L 341.945777 203.755094 
L 342.305971 198.79188 
L 342.666165 202.796355 
L 343.026358 213.342868 
L 344.106939 274.528515 
L 344.467133 286.439594 
L 344.827327 287.740363 
L 345.18752 277.072841 
L 346.628295 172.520484 
L 346.988488 164.884104 
L 347.348682 162.693159 
L 348.069069 195.782425 
L 348.789457 239.559854 
L 349.14965 249.486573 
L 349.509844 251.353664 
L 349.870038 248.461845 
L 350.590425 228.845992 
L 350.950619 221.107458 
L 351.310812 223.367023 
L 352.0312 253.637862 
L 352.751587 298.568808 
L 353.111781 309.727037 
L 353.471974 312.547391 
L 353.832168 304.983355 
L 355.272942 195.723386 
L 355.633136 187.758445 
L 355.99333 186.272168 
L 356.353523 200.090264 
L 356.713717 218.346676 
L 357.434104 262.422215 
L 357.794298 273.37354 
L 358.154492 273.609983 
L 358.514685 268.290836 
L 358.874879 259.73254 
L 359.235073 247.168055 
L 359.595266 240.703627 
L 359.95546 244.294106 
L 360.315654 254.27152 
L 361.396235 317.241835 
L 361.756428 331.748286 
L 362.116622 328.485654 
L 362.476815 314.674389 
L 362.837009 293.018559 
L 363.557396 233.59016 
L 363.91759 212.52162 
L 364.277784 198.321235 
L 364.637977 196.920205 
L 364.998171 210.205548 
L 366.078752 270.682125 
L 366.438946 282.327391 
L 366.799139 281.061907 
L 367.159333 273.978957 
L 368.239914 243.019519 
L 368.600108 247.537059 
L 368.960301 255.159997 
L 369.680689 295.92252 
L 370.040882 313.273329 
L 370.401076 321.13287 
L 370.761269 323.83466 
L 371.121463 309.13126 
L 371.481657 289.825671 
L 372.202044 225.066451 
L 372.562238 201.668169 
L 372.922431 187.560982 
L 373.282625 187.56148 
L 374.003012 215.4477 
L 374.7234 255.313365 
L 375.083593 264.473572 
L 375.443787 265.167136 
L 376.164174 245.739242 
L 376.524368 230.11931 
L 376.884562 225.696873 
L 377.244755 225.824641 
L 377.604949 233.799161 
L 378.68553 289.603767 
L 379.045724 299.851476 
L 379.405917 298.258461 
L 379.766111 285.353741 
L 380.486498 230.215914 
L 381.206885 176.142257 
L 381.567079 162.701163 
L 381.927273 159.854851 
L 382.287466 171.035194 
L 382.64766 188.018751 
L 383.007854 211.508173 
L 383.728241 238.909671 
L 384.088435 238.389975 
L 384.448628 230.493568 
L 385.169016 203.775154 
L 385.529209 198.68815 
L 385.889403 198.227557 
L 386.249597 207.432821 
L 386.60979 224.017067 
L 387.330178 263.450765 
L 387.690371 272.299357 
L 388.050565 273.557196 
L 388.410758 259.328048 
L 388.770952 236.15877 
L 389.491339 176.05061 
L 389.851533 154.233367 
L 390.211727 139.502482 
L 390.57192 137.8827 
L 390.932114 146.681784 
L 392.012695 206.971478 
L 392.372889 216.867102 
L 392.733082 216.76877 
L 393.093276 210.681141 
L 393.813663 186.196522 
L 394.173857 180.917389 
L 394.534051 182.846022 
L 394.894244 192.406805 
L 395.974825 252.99089 
L 396.335019 263.575443 
L 396.695212 262.997433 
L 397.055406 247.922428 
L 397.4156 227.030057 
L 398.496181 144.949093 
L 398.856374 133.932657 
L 399.216568 134.264026 
L 399.936955 162.938955 
L 400.657343 204.620255 
L 401.017536 215.602388 
L 401.37773 218.969763 
L 401.737924 212.913029 
L 402.818505 184.933333 
L 403.178698 187.878326 
L 403.538892 201.196281 
L 404.259279 240.91365 
L 404.619473 261.367749 
L 404.979666 272.387322 
L 405.33986 273.306923 
L 405.700054 263.2426 
L 406.420441 213.397012 
L 407.140828 161.43924 
L 407.501022 149.70941 
L 407.861216 151.032765 
L 408.221409 160.760259 
L 409.30199 226.332568 
L 409.662184 236.440996 
L 410.022378 240.58394 
L 410.382571 235.211755 
L 410.742765 221.840341 
L 411.102959 213.521128 
L 411.463152 208.81367 
L 411.823346 210.470061 
L 412.18354 224.064437 
L 413.624314 299.296378 
L 413.984508 296.862835 
L 414.344701 283.739884 
L 414.704895 265.117294 
L 415.785476 183.782193 
L 416.14567 173.617734 
L 416.505863 174.619114 
L 417.226251 207.489294 
L 417.946638 247.265657 
L 418.306832 261.779505 
L 418.667025 263.332114 
L 419.387413 246.181923 
L 419.747606 236.461518 
L 420.1078 230.994299 
L 420.467994 231.305214 
L 420.828187 242.581336 
L 422.268962 317.351487 
L 422.629155 314.394127 
L 422.989349 304.552975 
L 423.349543 280.756516 
L 424.06993 222.372536 
L 424.430124 197.327364 
L 424.790317 188.463056 
L 425.150511 184.499004 
L 425.510705 195.909467 
L 426.591286 254.946526 
L 426.951479 269.03234 
L 427.311673 268.476732 
L 427.671867 262.34579 
L 428.392254 236.914324 
L 428.752448 229.622897 
L 429.112641 234.743191 
L 429.472835 243.659881 
L 430.553416 299.71428 
L 430.913609 310.328257 
L 431.273803 313.036779 
L 431.633997 296.844279 
L 433.434965 175.416392 
L 433.795159 174.151636 
L 434.155352 181.799838 
L 435.235933 241.686206 
L 435.956321 252.293483 
L 436.676708 234.102243 
L 437.036902 219.069605 
L 437.397095 211.220443 
L 437.757289 212.096085 
L 438.117483 221.203698 
L 439.198063 278.247599 
L 439.558257 287.936831 
L 439.918451 285.495255 
L 440.278644 273.990216 
L 440.999032 218.664158 
L 441.719419 163.236737 
L 442.079613 150.425614 
L 442.439806 146.427974 
L 442.8 158.611948 
L 443.520387 195.34633 
L 443.880581 213.056211 
L 444.240775 224.680139 
L 444.600968 222.121997 
L 445.321356 204.429313 
L 445.681549 189.03348 
L 446.041743 183.885185 
L 446.401937 184.544973 
L 446.76213 193.99992 
L 447.842711 247.974164 
L 448.202905 260.677179 
L 448.563098 257.893701 
L 448.923292 249.055474 
L 449.643679 190.612973 
L 450.364067 137.534237 
L 450.72426 127.25009 
L 451.084454 125.926164 
L 451.444648 134.431368 
L 452.525229 193.983737 
L 452.885422 203.388392 
L 453.245616 204.268272 
L 453.60581 197.989725 
L 454.686391 166.843923 
L 455.046584 172.206359 
L 455.406778 180.316364 
L 455.766971 197.643673 
L 456.127165 222.505277 
L 456.487359 239.155347 
L 456.847552 250.085788 
L 457.207746 251.639847 
L 457.56794 237.041336 
L 459.008714 131.621046 
L 459.368908 121.518562 
L 459.729102 117.414011 
L 460.449489 150.981588 
L 461.169876 191.546816 
L 461.53007 203.744083 
L 461.890264 205.06846 
L 462.250457 199.33238 
L 462.970845 179.354319 
L 463.331038 173.372953 
L 463.691232 175.091533 
L 464.051425 185.477197 
L 465.4922 261.946178 
L 465.852394 260.976342 
L 466.212587 248.642022 
L 466.932975 199.945236 
L 467.653362 148.080673 
L 468.013556 138.370411 
L 468.373749 139.306627 
L 468.733943 150.256412 
L 469.814524 211.617543 
L 470.174718 223.44753 
L 470.534911 227.039327 
L 470.895105 222.765574 
L 471.615492 200.251313 
L 471.975686 197.161066 
L 472.33588 198.37055 
L 472.696073 210.749326 
L 473.776654 271.580828 
L 474.136848 285.422723 
L 474.497041 286.406552 
L 474.857235 273.533134 
L 475.577622 224.133655 
L 476.29801 173.895989 
L 476.658203 163.162916 
L 477.018397 162.858759 
L 477.738784 192.902746 
L 478.459172 234.918292 
L 478.819365 247.866148 
L 479.179559 249.392945 
L 479.539753 244.423974 
L 480.26014 223.041582 
L 480.620334 216.392374 
L 480.980527 218.288135 
L 481.700914 248.707951 
L 482.421302 290.884423 
L 482.781495 300.719889 
L 483.141689 304.28372 
L 483.501883 291.607636 
L 485.302851 169.635893 
L 485.663045 174.748394 
L 486.023238 186.168779 
L 487.103819 241.779925 
L 487.464013 254.967459 
L 487.824207 253.177694 
L 488.1844 249.42079 
L 488.904788 224.711449 
L 489.264981 219.82311 
L 489.625175 217.67157 
L 489.985368 229.309118 
L 491.065949 285.855204 
L 491.426143 298.001213 
L 491.786337 296.322777 
L 492.14653 286.341536 
L 493.947499 161.502848 
L 494.307692 161.901819 
L 494.667886 172.676852 
L 496.108661 237.438166 
L 496.468854 237.383793 
L 497.189242 221.584513 
L 497.909629 197.027654 
L 498.269822 200.063935 
L 498.99021 226.462893 
L 499.350403 250.285453 
L 500.070791 272.581959 
L 500.430984 273.955404 
L 501.151372 237.181096 
L 501.871759 172.318144 
L 502.231953 150.718785 
L 502.592146 140.101803 
L 502.95234 133.166046 
L 503.312534 145.007806 
L 504.393115 198.038632 
L 504.753308 210.315672 
L 505.113502 211.566615 
L 505.833889 191.232561 
L 506.194083 176.348588 
L 506.554276 173.193651 
L 506.91447 171.406402 
L 507.274664 179.452072 
L 508.355245 239.034191 
L 508.715438 247.056729 
L 509.075632 247.744089 
L 509.435826 233.351368 
L 509.796019 210.307227 
L 510.8766 123.896983 
L 511.236794 113.256137 
L 511.596988 110.190518 
L 512.317375 139.965463 
L 513.037762 178.370371 
L 513.397956 188.724765 
L 513.75815 189.396549 
L 514.118343 185.956899 
L 514.838731 160.836334 
L 515.198924 153.980192 
L 515.559118 155.283268 
L 515.919311 164.765241 
L 516.999892 225.639206 
L 517.360086 236.708478 
L 517.72028 237.399748 
L 518.080473 223.591659 
L 518.800861 173.338534 
L 519.521248 116.765212 
L 519.881442 107.004178 
L 520.241635 107.63197 
L 520.601829 117.629015 
L 521.68241 180.370015 
L 522.042604 189.680093 
L 522.402797 192.524442 
L 522.762991 189.056024 
L 523.483378 166.310379 
L 523.843572 160.470486 
L 524.203765 160.683692 
L 524.924153 192.98053 
L 525.64454 235.183782 
L 526.004734 251.521754 
L 526.364927 249.862452 
L 526.725121 238.474535 
L 527.445508 189.263252 
L 527.805702 156.07409 
L 528.526089 124.099204 
L 528.886283 125.291153 
L 529.246477 138.546749 
L 530.687251 211.785281 
L 531.047445 213.33249 
L 531.407639 207.680641 
L 531.767832 196.804078 
L 532.488219 181.271212 
L 532.848413 186.252538 
L 533.208607 195.473091 
L 534.289188 260.564819 
L 534.649381 271.949717 
L 535.009575 276.511086 
L 535.369769 262.740576 
L 535.729962 241.71208 
L 536.45035 182.144083 
L 536.810543 160.14338 
L 537.170737 149.620893 
L 537.530931 148.608279 
L 537.891124 158.691289 
L 538.971705 222.49474 
L 539.331899 232.939162 
L 539.692093 235.837969 
L 540.41248 221.531706 
L 541.132867 203.429578 
L 541.493061 206.967244 
L 541.853254 217.072938 
L 543.294029 289.846993 
L 543.654223 287.836995 
L 544.014416 280.366083 
L 544.734804 225.643086 
L 545.455191 170.466187 
L 545.815385 161.249732 
L 546.175578 158.009162 
L 546.535772 168.523366 
L 547.616353 231.22724 
L 547.976547 242.040178 
L 548.33674 242.923369 
L 549.057127 225.887966 
L 549.417321 211.789964 
L 549.777515 207.048777 
L 550.137708 204.338085 
L 550.497902 214.304396 
L 551.578483 274.659863 
L 551.938677 285.307528 
L 552.29887 286.095276 
L 552.659064 270.363849 
L 553.379451 217.621705 
L 553.739645 186.387313 
L 554.460032 148.389117 
L 554.820226 146.593785 
L 555.540613 178.079794 
L 556.261001 215.191824 
L 556.621194 226.468751 
L 556.981388 225.59831 
L 557.341581 217.830882 
L 558.061969 194.750924 
L 558.422162 186.630128 
L 558.782356 185.659458 
L 559.14255 194.751363 
L 560.583324 265.388162 
L 560.943518 259.613457 
L 561.303712 244.891501 
L 561.663905 221.898511 
L 562.744486 138.265923 
L 563.10468 121.863585 
L 563.464874 124.109635 
L 563.825067 132.208384 
L 564.905648 188.283364 
L 565.265842 196.282739 
L 565.626036 195.472027 
L 565.986229 189.841814 
L 566.706616 164.846294 
L 567.06681 159.401832 
L 567.427004 158.790365 
L 567.787197 168.828229 
L 569.227972 235.869227 
L 569.588166 233.286663 
L 569.948359 220.794146 
L 570.668747 166.696159 
L 571.389134 109.563378 
L 571.749328 99.001418 
L 572.109521 97.298004 
L 572.469715 107.684942 
L 572.829909 123.73397 
L 573.550296 166.274798 
L 573.91049 174.054115 
L 574.270683 178.541153 
L 574.630877 171.735959 
L 575.351264 146.069245 
L 575.711458 141.400423 
L 576.071651 141.493581 
L 576.431845 152.221867 
L 576.792039 169.457943 
L 577.512426 214.099732 
L 577.87262 224.764704 
L 578.232813 222.316007 
L 578.593007 208.547224 
L 579.313394 159.298076 
L 580.033782 108.353306 
L 580.393975 93.35411 
L 580.754169 95.369853 
L 581.114363 107.002516 
L 582.194944 167.354397 
L 582.555137 178.585806 
L 582.915331 179.306938 
L 583.275524 175.062472 
L 583.995912 152.820134 
L 584.356105 145.499061 
L 584.716299 147.240543 
L 585.076493 160.721397 
L 585.436686 178.554493 
L 586.157074 223.303625 
L 586.517267 235.101547 
L 586.877461 233.80628 
L 587.237655 225.538496 
L 588.678429 120.892199 
L 589.038623 113.405493 
L 589.398817 111.448273 
L 589.75901 124.572214 
L 590.839591 189.057641 
L 591.199785 197.75413 
L 591.559978 201.525937 
L 591.920172 192.029623 
L 592.280366 186.301839 
L 592.640559 173.520412 
L 593.000753 169.01307 
L 593.360947 170.561339 
L 593.72114 182.851723 
L 595.161915 258.809313 
L 595.522109 260.965036 
L 595.882302 247.573382 
L 596.60269 198.88851 
L 597.323077 146.512731 
L 597.683271 137.535766 
L 598.043464 135.206878 
L 598.403658 144.869327 
L 599.484239 209.274478 
L 599.844432 218.3899 
L 600.204626 224.663465 
L 600.56482 213.418254 
L 600.925013 206.401694 
L 601.285207 195.329159 
L 601.645401 191.546209 
L 602.005594 191.872597 
L 602.725982 221.643977 
L 603.446369 265.508678 
L 603.806563 275.538918 
L 604.166756 277.293184 
L 604.52695 264.781138 
L 605.247337 213.768356 
L 605.967725 159.786716 
L 606.327918 148.108337 
L 606.688112 146.996736 
L 607.048306 155.111013 
L 607.768693 198.119235 
L 608.48908 227.594882 
L 608.849274 230.633066 
L 609.569661 210.95303 
L 609.929855 197.687595 
L 610.290048 193.161874 
L 610.650242 194.364898 
L 611.370629 221.760619 
L 612.091017 261.203701 
L 612.45121 273.753776 
L 612.811404 271.028603 
L 613.171598 254.317475 
L 613.891985 204.661614 
L 614.612372 151.04277 
L 614.972566 136.670066 
L 615.33276 136.921683 
L 615.692953 146.768112 
L 617.133728 212.192083 
L 617.493921 211.368325 
L 617.854115 203.703494 
L 618.574502 178.239945 
L 618.934696 173.709429 
L 619.29489 173.837484 
L 619.655083 183.914897 
L 621.095858 251.133423 
L 621.456052 247.90558 
L 621.816245 234.595221 
L 623.25702 124.545303 
L 623.617214 110.266395 
L 623.977407 108.046406 
L 624.337601 117.93634 
L 625.418182 173.375873 
L 625.778375 184.804202 
L 626.138569 185.990432 
L 626.498763 177.542839 
L 626.858956 163.287473 
L 627.579344 144.267128 
L 627.939537 147.48848 
L 628.299731 154.171748 
L 629.380312 211.281108 
L 629.740506 221.927576 
L 630.100699 222.436649 
L 630.460893 207.179816 
L 631.18128 153.403556 
L 631.901668 98.521989 
L 632.261861 86.300588 
L 632.622055 86.03532 
L 632.982249 94.486126 
L 634.062829 154.762527 
L 634.423023 163.239883 
L 634.783217 165.543837 
L 635.14341 159.353524 
L 635.863798 132.7045 
L 636.584185 129.842439 
L 636.944379 140.327973 
L 638.385153 211.156554 
L 638.745347 211.944361 
L 639.105541 198.299119 
L 639.825928 145.248419 
L 640.546315 93.667887 
L 640.906509 79.826925 
L 641.266703 83.076073 
L 641.626896 92.957994 
L 642.707477 154.218415 
L 643.067671 164.921999 
L 643.427864 167.043842 
L 643.788058 162.293059 
L 644.508445 139.816142 
L 644.868639 132.96986 
L 645.228833 133.908275 
L 645.589026 146.470975 
L 646.669607 211.852651 
L 647.029801 223.957988 
L 647.389995 222.372742 
L 647.750188 210.406363 
L 648.110382 190.523988 
L 649.190963 109.743926 
L 649.551157 96.732174 
L 649.91135 99.448444 
L 650.271544 109.729953 
L 651.352125 174.709024 
L 651.712318 182.951762 
L 652.072512 188.098225 
L 652.792899 171.623625 
L 653.513287 154.975083 
L 653.87348 160.493571 
L 654.233674 171.06614 
L 654.954061 213.430855 
L 655.674449 244.493021 
L 656.034642 245.268859 
L 656.394836 233.695437 
L 656.75503 215.280299 
L 657.835611 131.786056 
L 658.195804 121.950166 
L 658.555998 122.626873 
L 658.916192 134.926742 
L 660.356966 206.311784 
L 660.71716 211.35005 
L 661.077353 206.625839 
L 661.797741 181.816027 
L 662.157934 178.099033 
L 662.518128 181.085814 
L 662.878322 190.950556 
L 664.319096 264.175027 
L 664.67929 263.33218 
L 665.039484 251.342776 
L 665.759871 199.929117 
L 666.120065 168.448758 
L 666.840452 131.729574 
L 667.200646 132.533608 
L 667.560839 144.027588 
L 668.64142 203.37074 
L 669.001614 212.766626 
L 669.361807 217.694976 
L 669.722001 211.624107 
L 670.082195 196.182194 
L 670.802582 180.21711 
L 671.162776 180.511994 
L 671.522969 189.996642 
L 672.60355 247.120091 
L 672.963744 260.084556 
L 673.323938 257.505403 
L 673.684131 243.130166 
L 674.044325 221.390262 
L 675.124906 136.721688 
L 675.4851 120.15908 
L 675.845293 123.737847 
L 676.205487 131.536876 
L 677.286068 189.843797 
L 677.646261 200.497052 
L 678.006455 200.469304 
L 679.087036 167.755236 
L 679.44723 155.352847 
L 679.807423 160.738016 
L 680.167617 168.830582 
L 681.248198 224.565662 
L 681.608392 233.445029 
L 681.968585 236.885525 
L 682.328779 221.414888 
L 682.688973 197.94682 
L 683.049166 161.564897 
L 683.769554 110.614033 
L 684.129747 97.529581 
L 684.489941 94.1633 
L 684.850134 103.052646 
L 685.930715 162.117762 
L 686.290909 169.299697 
L 686.651103 171.949984 
L 687.37149 153.721692 
L 687.731684 137.386938 
L 688.091877 129.807923 
L 688.452071 132.639994 
L 688.812265 141.856533 
L 689.172458 158.835124 
L 689.892846 199.399669 
L 690.253039 205.995222 
L 690.613233 209.543445 
L 690.973427 193.950926 
L 691.693814 141.587348 
L 692.414201 85.216115 
L 692.774395 72.140935 
L 693.134588 72.319049 
L 693.494782 82.025387 
L 694.575363 139.04901 
L 694.935557 149.685417 
L 695.29575 152.363953 
L 696.016138 134.24943 
L 696.736525 114.912896 
L 697.096719 118.067583 
L 697.456912 127.744246 
L 698.1773 167.117638 
L 698.537493 187.921222 
L 698.897687 198.44755 
L 699.257881 197.763455 
L 699.618074 185.341596 
L 701.058849 78.940313 
L 701.419042 66.96 
L 701.779236 68.093919 
L 702.13943 78.37847 
L 702.859817 119.411824 
L 703.220011 140.197845 
L 703.580204 150.235196 
L 703.940398 156.273696 
L 704.300592 148.287067 
L 705.020979 126.671382 
L 705.381173 121.19967 
L 705.741366 122.543592 
L 706.10156 134.238219 
L 707.542335 208.343714 
L 707.902528 211.066879 
L 708.262722 199.721854 
L 708.622916 177.584989 
L 709.343303 116.56535 
L 710.06369 83.573581 
L 710.423884 83.934238 
L 711.144271 115.153236 
L 711.504465 140.387447 
L 712.224852 171.915869 
L 712.585046 171.489136 
L 712.945239 167.94777 
L 713.305433 156.556439 
L 714.02582 142.153099 
L 714.386014 146.368186 
L 714.746208 157.676977 
L 716.186982 234.197158 
L 716.547176 233.569058 
L 716.90737 219.454607 
L 717.267563 200.698438 
L 717.987951 142.375479 
L 718.348144 121.214708 
L 718.708338 108.887203 
L 719.068531 110.61832 
L 719.428725 121.262419 
L 720.149112 163.697014 
L 720.509306 270.842144 
L 720.8695 195.581988 
L 721.229693 197.90006 
L 721.950081 184.151513 
L 722.310274 170.347944 
L 722.670468 164.752783 
L 723.030662 166.691939 
L 723.390855 179.078059 
L 724.111243 218.212797 
L 724.471436 238.752951 
L 724.83163 250.735171 
L 725.191824 251.87078 
L 725.552017 237.704707 
L 726.272405 186.8284 
L 726.992792 134.751508 
L 727.352985 120.880078 
L 727.713179 120.458036 
L 728.073373 131.086369 
L 729.153954 190.641529 
L 729.514147 201.06019 
L 729.874341 204.3736 
L 730.234535 196.481934 
L 731.315116 164.910503 
L 731.675309 166.346363 
L 732.395697 193.24369 
L 733.116084 235.615832 
L 733.476278 248.617249 
L 733.836471 247.620893 
L 734.196665 232.323121 
L 734.556859 210.119204 
L 735.277246 148.343045 
L 735.637439 123.151523 
L 735.997633 110.830417 
L 736.357827 108.932109 
L 736.71802 118.322518 
L 738.158795 187.9093 
L 738.518989 184.405385 
L 738.879182 177.382275 
L 739.239376 168.125119 
L 739.59957 154.438056 
L 739.959763 146.307445 
L 740.319957 146.827286 
L 740.680151 157.106743 
L 741.040344 174.435769 
L 741.400538 198.018996 
L 741.760732 211.952054 
L 742.120925 221.526283 
L 742.481119 221.144142 
L 742.841313 206.088854 
L 743.201506 182.437528 
L 743.201506 182.437528 
" style="fill:none;stroke:#1f77b4;stroke-linecap:square;stroke-width:1.5;"/>
   </g>
   <g id="line2d_18">
    <path clip-path="url(#p74f872f9e9)" d="M 747.163636 384.48 
L 747.163636 51.84 
" style="fill:none;stroke:#808080;stroke-linecap:square;"/>
   </g>
   <g id="patch_101">
    <path d="M 108 384.48 
L 108 51.84 
" style="fill:none;stroke:#000000;stroke-linecap:square;stroke-linejoin:miter;stroke-width:0.8;"/>
   </g>
   <g id="patch_102">
    <path d="M 777.6 384.48 
L 777.6 51.84 
" style="fill:none;stroke:#000000;stroke-linecap:square;stroke-linejoin:miter;stroke-width:0.8;"/>
   </g>
   <g id="patch_103">
    <path d="M 108 384.48 
L 777.6 384.48 
" style="fill:none;stroke:#000000;stroke-linecap:square;stroke-linejoin:miter;stroke-width:0.8;"/>
   </g>
   <g id="patch_104">
    <path d="M 108 51.84 
L 777.6 51.84 
" style="fill:none;stroke:#000000;stroke-linecap:square;stroke-linejoin:miter;stroke-width:0.8;"/>
   </g>
   <g id="text_19">
    <!-- A4Benchmark-TS87.csv -->
    <defs>
     <path d="M 34.1875 63.1875 
L 20.796875 26.90625 
L 47.609375 26.90625 
z
M 28.609375 72.90625 
L 39.796875 72.90625 
L 67.578125 0 
L 57.328125 0 
L 50.6875 18.703125 
L 17.828125 18.703125 
L 11.1875 0 
L 0.78125 0 
z
" id="DejaVuSans-65"/>
     <path d="M 37.796875 64.3125 
L 12.890625 25.390625 
L 37.796875 25.390625 
z
M 35.203125 72.90625 
L 47.609375 72.90625 
L 47.609375 25.390625 
L 58.015625 25.390625 
L 58.015625 17.1875 
L 47.609375 17.1875 
L 47.609375 0 
L 37.796875 0 
L 37.796875 17.1875 
L 4.890625 17.1875 
L 4.890625 26.703125 
z
" id="DejaVuSans-52"/>
     <path d="M 19.671875 34.8125 
L 19.671875 8.109375 
L 35.5 8.109375 
Q 43.453125 8.109375 47.28125 11.40625 
Q 51.125 14.703125 51.125 21.484375 
Q 51.125 28.328125 47.28125 31.5625 
Q 43.453125 34.8125 35.5 34.8125 
z
M 19.671875 64.796875 
L 19.671875 42.828125 
L 34.28125 42.828125 
Q 41.5 42.828125 45.03125 45.53125 
Q 48.578125 48.25 48.578125 53.8125 
Q 48.578125 59.328125 45.03125 62.0625 
Q 41.5 64.796875 34.28125 64.796875 
z
M 9.8125 72.90625 
L 35.015625 72.90625 
Q 46.296875 72.90625 52.390625 68.21875 
Q 58.5 63.53125 58.5 54.890625 
Q 58.5 48.1875 55.375 44.234375 
Q 52.25 40.28125 46.1875 39.3125 
Q 53.46875 37.75 57.5 32.78125 
Q 61.53125 27.828125 61.53125 20.40625 
Q 61.53125 10.640625 54.890625 5.3125 
Q 48.25 0 35.984375 0 
L 9.8125 0 
z
" id="DejaVuSans-66"/>
     <path d="M 54.890625 33.015625 
L 54.890625 0 
L 45.90625 0 
L 45.90625 32.71875 
Q 45.90625 40.484375 42.875 44.328125 
Q 39.84375 48.1875 33.796875 48.1875 
Q 26.515625 48.1875 22.3125 43.546875 
Q 18.109375 38.921875 18.109375 30.90625 
L 18.109375 0 
L 9.078125 0 
L 9.078125 54.6875 
L 18.109375 54.6875 
L 18.109375 46.1875 
Q 21.34375 51.125 25.703125 53.5625 
Q 30.078125 56 35.796875 56 
Q 45.21875 56 50.046875 50.171875 
Q 54.890625 44.34375 54.890625 33.015625 
z
" id="DejaVuSans-110"/>
     <path d="M 48.78125 52.59375 
L 48.78125 44.1875 
Q 44.96875 46.296875 41.140625 47.34375 
Q 37.3125 48.390625 33.40625 48.390625 
Q 24.65625 48.390625 19.8125 42.84375 
Q 14.984375 37.3125 14.984375 27.296875 
Q 14.984375 17.28125 19.8125 11.734375 
Q 24.65625 6.203125 33.40625 6.203125 
Q 37.3125 6.203125 41.140625 7.25 
Q 44.96875 8.296875 48.78125 10.40625 
L 48.78125 2.09375 
Q 45.015625 0.34375 40.984375 -0.53125 
Q 36.96875 -1.421875 32.421875 -1.421875 
Q 20.0625 -1.421875 12.78125 6.34375 
Q 5.515625 14.109375 5.515625 27.296875 
Q 5.515625 40.671875 12.859375 48.328125 
Q 20.21875 56 33.015625 56 
Q 37.15625 56 41.109375 55.140625 
Q 45.0625 54.296875 48.78125 52.59375 
z
" id="DejaVuSans-99"/>
     <path d="M 54.890625 33.015625 
L 54.890625 0 
L 45.90625 0 
L 45.90625 32.71875 
Q 45.90625 40.484375 42.875 44.328125 
Q 39.84375 48.1875 33.796875 48.1875 
Q 26.515625 48.1875 22.3125 43.546875 
Q 18.109375 38.921875 18.109375 30.90625 
L 18.109375 0 
L 9.078125 0 
L 9.078125 75.984375 
L 18.109375 75.984375 
L 18.109375 46.1875 
Q 21.34375 51.125 25.703125 53.5625 
Q 30.078125 56 35.796875 56 
Q 45.21875 56 50.046875 50.171875 
Q 54.890625 44.34375 54.890625 33.015625 
z
" id="DejaVuSans-104"/>
     <path d="M 41.109375 46.296875 
Q 39.59375 47.171875 37.8125 47.578125 
Q 36.03125 48 33.890625 48 
Q 26.265625 48 22.1875 43.046875 
Q 18.109375 38.09375 18.109375 28.8125 
L 18.109375 0 
L 9.078125 0 
L 9.078125 54.6875 
L 18.109375 54.6875 
L 18.109375 46.1875 
Q 20.953125 51.171875 25.484375 53.578125 
Q 30.03125 56 36.53125 56 
Q 37.453125 56 38.578125 55.875 
Q 39.703125 55.765625 41.0625 55.515625 
z
" id="DejaVuSans-114"/>
     <path d="M 9.078125 75.984375 
L 18.109375 75.984375 
L 18.109375 31.109375 
L 44.921875 54.6875 
L 56.390625 54.6875 
L 27.390625 29.109375 
L 57.625 0 
L 45.90625 0 
L 18.109375 26.703125 
L 18.109375 0 
L 9.078125 0 
z
" id="DejaVuSans-107"/>
     <path d="M 4.890625 31.390625 
L 31.203125 31.390625 
L 31.203125 23.390625 
L 4.890625 23.390625 
z
" id="DejaVuSans-45"/>
     <path d="M 53.515625 70.515625 
L 53.515625 60.890625 
Q 47.90625 63.578125 42.921875 64.890625 
Q 37.9375 66.21875 33.296875 66.21875 
Q 25.25 66.21875 20.875 63.09375 
Q 16.5 59.96875 16.5 54.203125 
Q 16.5 49.359375 19.40625 46.890625 
Q 22.3125 44.4375 30.421875 42.921875 
L 36.375 41.703125 
Q 47.40625 39.59375 52.65625 34.296875 
Q 57.90625 29 57.90625 20.125 
Q 57.90625 9.515625 50.796875 4.046875 
Q 43.703125 -1.421875 29.984375 -1.421875 
Q 24.8125 -1.421875 18.96875 -0.25 
Q 13.140625 0.921875 6.890625 3.21875 
L 6.890625 13.375 
Q 12.890625 10.015625 18.65625 8.296875 
Q 24.421875 6.59375 29.984375 6.59375 
Q 38.421875 6.59375 43.015625 9.90625 
Q 47.609375 13.234375 47.609375 19.390625 
Q 47.609375 24.75 44.3125 27.78125 
Q 41.015625 30.8125 33.5 32.328125 
L 27.484375 33.5 
Q 16.453125 35.6875 11.515625 40.375 
Q 6.59375 45.0625 6.59375 53.421875 
Q 6.59375 63.09375 13.40625 68.65625 
Q 20.21875 74.21875 32.171875 74.21875 
Q 37.3125 74.21875 42.625 73.28125 
Q 47.953125 72.359375 53.515625 70.515625 
z
" id="DejaVuSans-83"/>
     <path d="M 31.78125 34.625 
Q 24.75 34.625 20.71875 30.859375 
Q 16.703125 27.09375 16.703125 20.515625 
Q 16.703125 13.921875 20.71875 10.15625 
Q 24.75 6.390625 31.78125 6.390625 
Q 38.8125 6.390625 42.859375 10.171875 
Q 46.921875 13.96875 46.921875 20.515625 
Q 46.921875 27.09375 42.890625 30.859375 
Q 38.875 34.625 31.78125 34.625 
z
M 21.921875 38.8125 
Q 15.578125 40.375 12.03125 44.71875 
Q 8.5 49.078125 8.5 55.328125 
Q 8.5 64.0625 14.71875 69.140625 
Q 20.953125 74.21875 31.78125 74.21875 
Q 42.671875 74.21875 48.875 69.140625 
Q 55.078125 64.0625 55.078125 55.328125 
Q 55.078125 49.078125 51.53125 44.71875 
Q 48 40.375 41.703125 38.8125 
Q 48.828125 37.15625 52.796875 32.3125 
Q 56.78125 27.484375 56.78125 20.515625 
Q 56.78125 9.90625 50.3125 4.234375 
Q 43.84375 -1.421875 31.78125 -1.421875 
Q 19.734375 -1.421875 13.25 4.234375 
Q 6.78125 9.90625 6.78125 20.515625 
Q 6.78125 27.484375 10.78125 32.3125 
Q 14.796875 37.15625 21.921875 38.8125 
z
M 18.3125 54.390625 
Q 18.3125 48.734375 21.84375 45.5625 
Q 25.390625 42.390625 31.78125 42.390625 
Q 38.140625 42.390625 41.71875 45.5625 
Q 45.3125 48.734375 45.3125 54.390625 
Q 45.3125 60.0625 41.71875 63.234375 
Q 38.140625 66.40625 31.78125 66.40625 
Q 25.390625 66.40625 21.84375 63.234375 
Q 18.3125 60.0625 18.3125 54.390625 
z
" id="DejaVuSans-56"/>
     <path d="M 10.6875 12.40625 
L 21 12.40625 
L 21 0 
L 10.6875 0 
z
" id="DejaVuSans-46"/>
     <path d="M 2.984375 54.6875 
L 12.5 54.6875 
L 29.59375 8.796875 
L 46.6875 54.6875 
L 56.203125 54.6875 
L 35.6875 0 
L 23.484375 0 
z
" id="DejaVuSans-118"/>
    </defs>
    <g transform="translate(371.555625 45.84)scale(0.12 -0.12)">
     <use xlink:href="#DejaVuSans-65"/>
     <use x="68.408203" xlink:href="#DejaVuSans-52"/>
     <use x="132.03125" xlink:href="#DejaVuSans-66"/>
     <use x="200.634766" xlink:href="#DejaVuSans-101"/>
     <use x="262.158203" xlink:href="#DejaVuSans-110"/>
     <use x="325.537109" xlink:href="#DejaVuSans-99"/>
     <use x="380.517578" xlink:href="#DejaVuSans-104"/>
     <use x="443.896484" xlink:href="#DejaVuSans-109"/>
     <use x="541.308594" xlink:href="#DejaVuSans-97"/>
     <use x="602.587891" xlink:href="#DejaVuSans-114"/>
     <use x="643.701172" xlink:href="#DejaVuSans-107"/>
     <use x="701.611328" xlink:href="#DejaVuSans-45"/>
     <use x="737.554688" xlink:href="#DejaVuSans-84"/>
     <use x="798.638672" xlink:href="#DejaVuSans-83"/>
     <use x="862.115234" xlink:href="#DejaVuSans-56"/>
     <use x="925.738281" xlink:href="#DejaVuSans-55"/>
     <use x="989.361328" xlink:href="#DejaVuSans-46"/>
     <use x="1021.148438" xlink:href="#DejaVuSans-99"/>
     <use x="1076.128906" xlink:href="#DejaVuSans-115"/>
     <use x="1128.228516" xlink:href="#DejaVuSans-118"/>
    </g>
   </g>
   <g id="legend_1">
    <g id="patch_105">
     <path d="M 115 74.518125 
L 174.315625 74.518125 
Q 176.315625 74.518125 176.315625 72.518125 
L 176.315625 58.84 
Q 176.315625 56.84 174.315625 56.84 
L 115 56.84 
Q 113 56.84 113 58.84 
L 113 72.518125 
Q 113 74.518125 115 74.518125 
z
" style="fill:#ffffff;opacity:0.8;stroke:#cccccc;stroke-linejoin:miter;"/>
    </g>
    <g id="line2d_19">
     <path d="M 117 64.938438 
L 137 64.938438 
" style="fill:none;stroke:#1f77b4;stroke-linecap:square;stroke-width:1.5;"/>
    </g>
    <g id="line2d_20"/>
    <g id="text_20">
     <!-- value -->
     <g transform="translate(145 68.438438)scale(0.1 -0.1)">
      <use xlink:href="#DejaVuSans-118"/>
      <use x="59.179688" xlink:href="#DejaVuSans-97"/>
      <use x="120.458984" xlink:href="#DejaVuSans-108"/>
      <use x="148.242188" xlink:href="#DejaVuSans-117"/>
      <use x="211.621094" xlink:href="#DejaVuSans-101"/>
     </g>
    </g>
   </g>
  </g>
 </g>
 <defs>
  <clipPath id="p74f872f9e9">
   <rect height="332.64" width="669.6" x="108" y="51.84"/>
  </clipPath>
 </defs>
</svg>
