<?xml version="1.0" encoding="utf-8" standalone="no"?>
<!DOCTYPE svg PUBLIC "-//W3C//DTD SVG 1.1//EN"
  "http://www.w3.org/Graphics/SVG/1.1/DTD/svg11.dtd">
<!-- Created with matplotlib (https://matplotlib.org/) -->
<svg height="432pt" version="1.1" viewBox="0 0 864 432" width="864pt" xmlns="http://www.w3.org/2000/svg" xmlns:xlink="http://www.w3.org/1999/xlink">
 <defs>
  <style type="text/css">
*{stroke-linecap:butt;stroke-linejoin:round;}
  </style>
 </defs>
 <g id="figure_1">
  <g id="patch_1">
   <path d="M 0 432 
L 864 432 
L 864 0 
L 0 0 
z
" style="fill:#ffffff;"/>
  </g>
  <g id="axes_1">
   <g id="patch_2">
    <path d="M 108 384.48 
L 777.6 384.48 
L 777.6 51.84 
L 108 51.84 
z
" style="fill:#ffffff;"/>
   </g>
   <g id="patch_3">
    <path clip-path="url(#pb2aa366823)" d="M 138.436364 384.48 
L 138.436364 51.84 
L 440.999032 51.84 
L 440.999032 384.48 
z
" style="fill:#0000ff;opacity:0.05;"/>
   </g>
   <g id="patch_4">
    <path clip-path="url(#pb2aa366823)" d="M 440.999032 384.48 
L 440.999032 51.84 
L 747.163636 51.84 
L 747.163636 384.48 
z
" style="fill:#ff0000;opacity:0.08;"/>
   </g>
   <g id="patch_5">
    <path clip-path="url(#pb2aa366823)" d="M 138.436364 384.48 
L 138.436364 51.84 
L 142.0383 51.84 
L 142.0383 384.48 
z
" style="fill:#008000;opacity:0.04;"/>
   </g>
   <g id="patch_6">
    <path clip-path="url(#pb2aa366823)" d="M 145.640237 384.48 
L 145.640237 51.84 
L 149.242173 51.84 
L 149.242173 384.48 
z
" style="fill:#008000;opacity:0.04;"/>
   </g>
   <g id="patch_7">
    <path clip-path="url(#pb2aa366823)" d="M 145.640237 384.48 
L 145.640237 371.1744 
L 149.242173 371.1744 
L 149.242173 384.48 
z
" style="fill:#ffe500;"/>
   </g>
   <g id="patch_8">
    <path clip-path="url(#pb2aa366823)" d="M 152.84411 384.48 
L 152.84411 51.84 
L 156.446046 51.84 
L 156.446046 384.48 
z
" style="fill:#008000;opacity:0.04;"/>
   </g>
   <g id="patch_9">
    <path clip-path="url(#pb2aa366823)" d="M 160.047983 384.48 
L 160.047983 51.84 
L 163.649919 51.84 
L 163.649919 384.48 
z
" style="fill:#008000;opacity:0.04;"/>
   </g>
   <g id="patch_10">
    <path clip-path="url(#pb2aa366823)" d="M 167.251856 384.48 
L 167.251856 51.84 
L 170.853792 51.84 
L 170.853792 384.48 
z
" style="fill:#008000;opacity:0.04;"/>
   </g>
   <g id="patch_11">
    <path clip-path="url(#pb2aa366823)" d="M 167.251856 384.48 
L 167.251856 371.1744 
L 170.853792 371.1744 
L 170.853792 384.48 
z
" style="fill:#ffe500;"/>
   </g>
   <g id="patch_12">
    <path clip-path="url(#pb2aa366823)" d="M 174.455729 384.48 
L 174.455729 51.84 
L 178.057665 51.84 
L 178.057665 384.48 
z
" style="fill:#008000;opacity:0.04;"/>
   </g>
   <g id="patch_13">
    <path clip-path="url(#pb2aa366823)" d="M 181.659602 384.48 
L 181.659602 51.84 
L 185.261538 51.84 
L 185.261538 384.48 
z
" style="fill:#008000;opacity:0.04;"/>
   </g>
   <g id="patch_14">
    <path clip-path="url(#pb2aa366823)" d="M 188.863475 384.48 
L 188.863475 51.84 
L 192.465412 51.84 
L 192.465412 384.48 
z
" style="fill:#008000;opacity:0.04;"/>
   </g>
   <g id="patch_15">
    <path clip-path="url(#pb2aa366823)" d="M 188.863475 384.48 
L 188.863475 371.1744 
L 192.465412 371.1744 
L 192.465412 384.48 
z
" style="fill:#ffe500;"/>
   </g>
   <g id="patch_16">
    <path clip-path="url(#pb2aa366823)" d="M 196.067348 384.48 
L 196.067348 51.84 
L 199.669285 51.84 
L 199.669285 384.48 
z
" style="fill:#008000;opacity:0.04;"/>
   </g>
   <g id="patch_17">
    <path clip-path="url(#pb2aa366823)" d="M 199.669285 371.1744 
L 199.669285 51.84 
L 203.271221 51.84 
L 203.271221 371.1744 
z
" style="fill:#008000;opacity:0.5;"/>
   </g>
   <g id="patch_18">
    <path clip-path="url(#pb2aa366823)" d="M 199.669285 384.48 
L 199.669285 371.1744 
L 203.271221 371.1744 
L 203.271221 384.48 
z
" style="fill:#ffe500;"/>
   </g>
   <g id="patch_19">
    <path clip-path="url(#pb2aa366823)" d="M 203.271221 384.48 
L 203.271221 51.84 
L 206.873158 51.84 
L 206.873158 384.48 
z
" style="fill:#008000;opacity:0.04;"/>
   </g>
   <g id="patch_20">
    <path clip-path="url(#pb2aa366823)" d="M 210.475094 384.48 
L 210.475094 51.84 
L 214.077031 51.84 
L 214.077031 384.48 
z
" style="fill:#008000;opacity:0.04;"/>
   </g>
   <g id="patch_21">
    <path clip-path="url(#pb2aa366823)" d="M 217.678967 384.48 
L 217.678967 51.84 
L 221.280904 51.84 
L 221.280904 384.48 
z
" style="fill:#008000;opacity:0.04;"/>
   </g>
   <g id="patch_22">
    <path clip-path="url(#pb2aa366823)" d="M 224.88284 384.48 
L 224.88284 51.84 
L 228.484777 51.84 
L 228.484777 384.48 
z
" style="fill:#008000;opacity:0.04;"/>
   </g>
   <g id="patch_23">
    <path clip-path="url(#pb2aa366823)" d="M 232.086713 384.48 
L 232.086713 51.84 
L 235.68865 51.84 
L 235.68865 384.48 
z
" style="fill:#008000;opacity:0.04;"/>
   </g>
   <g id="patch_24">
    <path clip-path="url(#pb2aa366823)" d="M 239.290586 384.48 
L 239.290586 51.84 
L 242.892523 51.84 
L 242.892523 384.48 
z
" style="fill:#008000;opacity:0.04;"/>
   </g>
   <g id="patch_25">
    <path clip-path="url(#pb2aa366823)" d="M 246.494459 384.48 
L 246.494459 51.84 
L 250.096396 51.84 
L 250.096396 384.48 
z
" style="fill:#008000;opacity:0.04;"/>
   </g>
   <g id="patch_26">
    <path clip-path="url(#pb2aa366823)" d="M 253.698332 384.48 
L 253.698332 51.84 
L 257.300269 51.84 
L 257.300269 384.48 
z
" style="fill:#008000;opacity:0.04;"/>
   </g>
   <g id="patch_27">
    <path clip-path="url(#pb2aa366823)" d="M 260.902205 384.48 
L 260.902205 51.84 
L 264.504142 51.84 
L 264.504142 384.48 
z
" style="fill:#008000;opacity:0.04;"/>
   </g>
   <g id="patch_28">
    <path clip-path="url(#pb2aa366823)" d="M 268.106079 384.48 
L 268.106079 51.84 
L 271.708015 51.84 
L 271.708015 384.48 
z
" style="fill:#008000;opacity:0.04;"/>
   </g>
   <g id="patch_29">
    <path clip-path="url(#pb2aa366823)" d="M 275.309952 384.48 
L 275.309952 51.84 
L 278.911888 51.84 
L 278.911888 384.48 
z
" style="fill:#008000;opacity:0.04;"/>
   </g>
   <g id="patch_30">
    <path clip-path="url(#pb2aa366823)" d="M 282.513825 384.48 
L 282.513825 51.84 
L 286.115761 51.84 
L 286.115761 384.48 
z
" style="fill:#008000;opacity:0.04;"/>
   </g>
   <g id="patch_31">
    <path clip-path="url(#pb2aa366823)" d="M 289.717698 384.48 
L 289.717698 51.84 
L 293.319634 51.84 
L 293.319634 384.48 
z
" style="fill:#008000;opacity:0.04;"/>
   </g>
   <g id="patch_32">
    <path clip-path="url(#pb2aa366823)" d="M 296.921571 384.48 
L 296.921571 51.84 
L 300.523507 51.84 
L 300.523507 384.48 
z
" style="fill:#008000;opacity:0.04;"/>
   </g>
   <g id="patch_33">
    <path clip-path="url(#pb2aa366823)" d="M 304.125444 384.48 
L 304.125444 51.84 
L 307.72738 51.84 
L 307.72738 384.48 
z
" style="fill:#008000;opacity:0.04;"/>
   </g>
   <g id="patch_34">
    <path clip-path="url(#pb2aa366823)" d="M 606.688112 384.48 
L 606.688112 371.1744 
L 610.290048 371.1744 
L 610.290048 384.48 
z
" style="fill:#ff6600;"/>
   </g>
   <g id="patch_35">
    <path clip-path="url(#pb2aa366823)" d="M 311.329317 384.48 
L 311.329317 51.84 
L 314.931253 51.84 
L 314.931253 384.48 
z
" style="fill:#008000;opacity:0.04;"/>
   </g>
   <g id="patch_36">
    <path clip-path="url(#pb2aa366823)" d="M 318.53319 384.48 
L 318.53319 51.84 
L 322.135126 51.84 
L 322.135126 384.48 
z
" style="fill:#008000;opacity:0.04;"/>
   </g>
   <g id="patch_37">
    <path clip-path="url(#pb2aa366823)" d="M 318.53319 384.48 
L 318.53319 371.1744 
L 322.135126 371.1744 
L 322.135126 384.48 
z
" style="fill:#ffe500;"/>
   </g>
   <g id="patch_38">
    <path clip-path="url(#pb2aa366823)" d="M 325.737063 384.48 
L 325.737063 51.84 
L 329.338999 51.84 
L 329.338999 384.48 
z
" style="fill:#008000;opacity:0.04;"/>
   </g>
   <g id="patch_39">
    <path clip-path="url(#pb2aa366823)" d="M 332.940936 384.48 
L 332.940936 51.84 
L 336.542873 51.84 
L 336.542873 384.48 
z
" style="fill:#008000;opacity:0.04;"/>
   </g>
   <g id="patch_40">
    <path clip-path="url(#pb2aa366823)" d="M 340.144809 384.48 
L 340.144809 51.84 
L 343.746746 51.84 
L 343.746746 384.48 
z
" style="fill:#008000;opacity:0.04;"/>
   </g>
   <g id="patch_41">
    <path clip-path="url(#pb2aa366823)" d="M 347.348682 384.48 
L 347.348682 51.84 
L 350.950619 51.84 
L 350.950619 384.48 
z
" style="fill:#008000;opacity:0.04;"/>
   </g>
   <g id="patch_42">
    <path clip-path="url(#pb2aa366823)" d="M 354.552555 384.48 
L 354.552555 51.84 
L 358.154492 51.84 
L 358.154492 384.48 
z
" style="fill:#008000;opacity:0.04;"/>
   </g>
   <g id="patch_43">
    <path clip-path="url(#pb2aa366823)" d="M 361.756428 384.48 
L 361.756428 51.84 
L 365.358365 51.84 
L 365.358365 384.48 
z
" style="fill:#008000;opacity:0.04;"/>
   </g>
   <g id="patch_44">
    <path clip-path="url(#pb2aa366823)" d="M 368.960301 384.48 
L 368.960301 51.84 
L 372.562238 51.84 
L 372.562238 384.48 
z
" style="fill:#008000;opacity:0.04;"/>
   </g>
   <g id="patch_45">
    <path clip-path="url(#pb2aa366823)" d="M 376.164174 384.48 
L 376.164174 51.84 
L 379.766111 51.84 
L 379.766111 384.48 
z
" style="fill:#008000;opacity:0.04;"/>
   </g>
   <g id="patch_46">
    <path clip-path="url(#pb2aa366823)" d="M 383.368047 384.48 
L 383.368047 51.84 
L 386.969984 51.84 
L 386.969984 384.48 
z
" style="fill:#008000;opacity:0.04;"/>
   </g>
   <g id="patch_47">
    <path clip-path="url(#pb2aa366823)" d="M 386.969984 384.48 
L 386.969984 371.1744 
L 390.57192 371.1744 
L 390.57192 384.48 
z
" style="fill:#ffe500;"/>
   </g>
   <g id="patch_48">
    <path clip-path="url(#pb2aa366823)" d="M 390.57192 384.48 
L 390.57192 51.84 
L 394.173857 51.84 
L 394.173857 384.48 
z
" style="fill:#008000;opacity:0.04;"/>
   </g>
   <g id="patch_49">
    <path clip-path="url(#pb2aa366823)" d="M 394.173857 371.1744 
L 394.173857 357.8688 
L 397.775793 357.8688 
L 397.775793 371.1744 
z
" style="fill:#ff00ff;"/>
   </g>
   <g id="patch_50">
    <path clip-path="url(#pb2aa366823)" d="M 397.775793 384.48 
L 397.775793 51.84 
L 401.37773 51.84 
L 401.37773 384.48 
z
" style="fill:#008000;opacity:0.04;"/>
   </g>
   <g id="patch_51">
    <path clip-path="url(#pb2aa366823)" d="M 404.979666 384.48 
L 404.979666 51.84 
L 408.581603 51.84 
L 408.581603 384.48 
z
" style="fill:#008000;opacity:0.04;"/>
   </g>
   <g id="patch_52">
    <path clip-path="url(#pb2aa366823)" d="M 408.581603 384.48 
L 408.581603 371.1744 
L 412.18354 371.1744 
L 412.18354 384.48 
z
" style="fill:#ffe500;"/>
   </g>
   <g id="patch_53">
    <path clip-path="url(#pb2aa366823)" d="M 412.18354 384.48 
L 412.18354 51.84 
L 415.785476 51.84 
L 415.785476 384.48 
z
" style="fill:#008000;opacity:0.04;"/>
   </g>
   <g id="patch_54">
    <path clip-path="url(#pb2aa366823)" d="M 714.746208 384.48 
L 714.746208 371.1744 
L 718.348144 371.1744 
L 718.348144 384.48 
z
" style="fill:#ff6600;"/>
   </g>
   <g id="patch_55">
    <path clip-path="url(#pb2aa366823)" d="M 419.387413 384.48 
L 419.387413 51.84 
L 422.989349 51.84 
L 422.989349 384.48 
z
" style="fill:#008000;opacity:0.04;"/>
   </g>
   <g id="patch_56">
    <path clip-path="url(#pb2aa366823)" d="M 426.591286 384.48 
L 426.591286 51.84 
L 430.193222 51.84 
L 430.193222 384.48 
z
" style="fill:#008000;opacity:0.04;"/>
   </g>
   <g id="patch_57">
    <path clip-path="url(#pb2aa366823)" d="M 426.591286 384.48 
L 426.591286 371.1744 
L 430.193222 371.1744 
L 430.193222 384.48 
z
" style="fill:#ffe500;"/>
   </g>
   <g id="patch_58">
    <path clip-path="url(#pb2aa366823)" d="M 433.795159 384.48 
L 433.795159 51.84 
L 437.397095 51.84 
L 437.397095 384.48 
z
" style="fill:#008000;opacity:0.04;"/>
   </g>
   <g id="patch_59">
    <path clip-path="url(#pb2aa366823)" d="M 440.999032 384.48 
L 440.999032 51.84 
L 444.600968 51.84 
L 444.600968 384.48 
z
" style="fill:#008000;opacity:0.04;"/>
   </g>
   <g id="patch_60">
    <path clip-path="url(#pb2aa366823)" d="M 743.5617 384.48 
L 743.5617 371.1744 
L 747.163636 371.1744 
L 747.163636 384.48 
z
" style="fill:#ff6600;"/>
   </g>
   <g id="patch_61">
    <path clip-path="url(#pb2aa366823)" d="M 448.202905 384.48 
L 448.202905 51.84 
L 451.804841 51.84 
L 451.804841 384.48 
z
" style="fill:#008000;opacity:0.04;"/>
   </g>
   <g id="patch_62">
    <path clip-path="url(#pb2aa366823)" d="M 455.406778 384.48 
L 455.406778 51.84 
L 459.008714 51.84 
L 459.008714 384.48 
z
" style="fill:#008000;opacity:0.04;"/>
   </g>
   <g id="patch_63">
    <path clip-path="url(#pb2aa366823)" d="M 462.610651 384.48 
L 462.610651 51.84 
L 466.212587 51.84 
L 466.212587 384.48 
z
" style="fill:#008000;opacity:0.04;"/>
   </g>
   <g id="patch_64">
    <path clip-path="url(#pb2aa366823)" d="M 469.814524 384.48 
L 469.814524 51.84 
L 473.41646 51.84 
L 473.41646 384.48 
z
" style="fill:#008000;opacity:0.04;"/>
   </g>
   <g id="patch_65">
    <path clip-path="url(#pb2aa366823)" d="M 477.018397 384.48 
L 477.018397 51.84 
L 480.620334 51.84 
L 480.620334 384.48 
z
" style="fill:#008000;opacity:0.04;"/>
   </g>
   <g id="patch_66">
    <path clip-path="url(#pb2aa366823)" d="M 484.22227 384.48 
L 484.22227 51.84 
L 487.824207 51.84 
L 487.824207 384.48 
z
" style="fill:#008000;opacity:0.04;"/>
   </g>
   <g id="patch_67">
    <path clip-path="url(#pb2aa366823)" d="M 491.426143 384.48 
L 491.426143 51.84 
L 495.02808 51.84 
L 495.02808 384.48 
z
" style="fill:#008000;opacity:0.04;"/>
   </g>
   <g id="patch_68">
    <path clip-path="url(#pb2aa366823)" d="M 498.630016 384.48 
L 498.630016 51.84 
L 502.231953 51.84 
L 502.231953 384.48 
z
" style="fill:#008000;opacity:0.04;"/>
   </g>
   <g id="patch_69">
    <path clip-path="url(#pb2aa366823)" d="M 505.833889 384.48 
L 505.833889 51.84 
L 509.435826 51.84 
L 509.435826 384.48 
z
" style="fill:#008000;opacity:0.04;"/>
   </g>
   <g id="patch_70">
    <path clip-path="url(#pb2aa366823)" d="M 513.037762 384.48 
L 513.037762 51.84 
L 516.639699 51.84 
L 516.639699 384.48 
z
" style="fill:#008000;opacity:0.04;"/>
   </g>
   <g id="patch_71">
    <path clip-path="url(#pb2aa366823)" d="M 520.241635 384.48 
L 520.241635 51.84 
L 523.843572 51.84 
L 523.843572 384.48 
z
" style="fill:#008000;opacity:0.04;"/>
   </g>
   <g id="patch_72">
    <path clip-path="url(#pb2aa366823)" d="M 527.445508 384.48 
L 527.445508 51.84 
L 531.047445 51.84 
L 531.047445 384.48 
z
" style="fill:#008000;opacity:0.04;"/>
   </g>
   <g id="patch_73">
    <path clip-path="url(#pb2aa366823)" d="M 534.649381 384.48 
L 534.649381 51.84 
L 538.251318 51.84 
L 538.251318 384.48 
z
" style="fill:#008000;opacity:0.04;"/>
   </g>
   <g id="patch_74">
    <path clip-path="url(#pb2aa366823)" d="M 541.853254 384.48 
L 541.853254 51.84 
L 545.455191 51.84 
L 545.455191 384.48 
z
" style="fill:#008000;opacity:0.04;"/>
   </g>
   <g id="patch_75">
    <path clip-path="url(#pb2aa366823)" d="M 549.057127 384.48 
L 549.057127 51.84 
L 552.659064 51.84 
L 552.659064 384.48 
z
" style="fill:#008000;opacity:0.04;"/>
   </g>
   <g id="patch_76">
    <path clip-path="url(#pb2aa366823)" d="M 556.261001 384.48 
L 556.261001 51.84 
L 559.862937 51.84 
L 559.862937 384.48 
z
" style="fill:#008000;opacity:0.04;"/>
   </g>
   <g id="patch_77">
    <path clip-path="url(#pb2aa366823)" d="M 563.464874 384.48 
L 563.464874 51.84 
L 567.06681 51.84 
L 567.06681 384.48 
z
" style="fill:#008000;opacity:0.04;"/>
   </g>
   <g id="patch_78">
    <path clip-path="url(#pb2aa366823)" d="M 567.06681 371.1744 
L 567.06681 357.8688 
L 570.668747 357.8688 
L 570.668747 371.1744 
z
" style="fill:#ff00ff;"/>
   </g>
   <g id="patch_79">
    <path clip-path="url(#pb2aa366823)" d="M 570.668747 384.48 
L 570.668747 51.84 
L 574.270683 51.84 
L 574.270683 384.48 
z
" style="fill:#008000;opacity:0.04;"/>
   </g>
   <g id="patch_80">
    <path clip-path="url(#pb2aa366823)" d="M 577.87262 384.48 
L 577.87262 51.84 
L 581.474556 51.84 
L 581.474556 384.48 
z
" style="fill:#008000;opacity:0.04;"/>
   </g>
   <g id="patch_81">
    <path clip-path="url(#pb2aa366823)" d="M 585.076493 384.48 
L 585.076493 51.84 
L 588.678429 51.84 
L 588.678429 384.48 
z
" style="fill:#008000;opacity:0.04;"/>
   </g>
   <g id="patch_82">
    <path clip-path="url(#pb2aa366823)" d="M 592.280366 384.48 
L 592.280366 51.84 
L 595.882302 51.84 
L 595.882302 384.48 
z
" style="fill:#008000;opacity:0.04;"/>
   </g>
   <g id="patch_83">
    <path clip-path="url(#pb2aa366823)" d="M 599.484239 384.48 
L 599.484239 51.84 
L 603.086175 51.84 
L 603.086175 384.48 
z
" style="fill:#008000;opacity:0.04;"/>
   </g>
   <g id="patch_84">
    <path clip-path="url(#pb2aa366823)" d="M 606.688112 384.48 
L 606.688112 51.84 
L 610.290048 51.84 
L 610.290048 384.48 
z
" style="fill:#008000;opacity:0.04;"/>
   </g>
   <g id="patch_85">
    <path clip-path="url(#pb2aa366823)" d="M 606.688112 371.1744 
L 606.688112 51.84 
L 610.290048 51.84 
L 610.290048 371.1744 
z
" style="fill:#008000;opacity:0.5;"/>
   </g>
   <g id="patch_86">
    <path clip-path="url(#pb2aa366823)" d="M 613.891985 384.48 
L 613.891985 51.84 
L 617.493921 51.84 
L 617.493921 384.48 
z
" style="fill:#008000;opacity:0.04;"/>
   </g>
   <g id="patch_87">
    <path clip-path="url(#pb2aa366823)" d="M 621.095858 384.48 
L 621.095858 51.84 
L 624.697795 51.84 
L 624.697795 384.48 
z
" style="fill:#008000;opacity:0.04;"/>
   </g>
   <g id="patch_88">
    <path clip-path="url(#pb2aa366823)" d="M 628.299731 384.48 
L 628.299731 51.84 
L 631.901668 51.84 
L 631.901668 384.48 
z
" style="fill:#008000;opacity:0.04;"/>
   </g>
   <g id="patch_89">
    <path clip-path="url(#pb2aa366823)" d="M 635.503604 384.48 
L 635.503604 51.84 
L 639.105541 51.84 
L 639.105541 384.48 
z
" style="fill:#008000;opacity:0.04;"/>
   </g>
   <g id="patch_90">
    <path clip-path="url(#pb2aa366823)" d="M 642.707477 384.48 
L 642.707477 51.84 
L 646.309414 51.84 
L 646.309414 384.48 
z
" style="fill:#008000;opacity:0.04;"/>
   </g>
   <g id="patch_91">
    <path clip-path="url(#pb2aa366823)" d="M 649.91135 384.48 
L 649.91135 51.84 
L 653.513287 51.84 
L 653.513287 384.48 
z
" style="fill:#008000;opacity:0.04;"/>
   </g>
   <g id="patch_92">
    <path clip-path="url(#pb2aa366823)" d="M 657.115223 384.48 
L 657.115223 51.84 
L 660.71716 51.84 
L 660.71716 384.48 
z
" style="fill:#008000;opacity:0.04;"/>
   </g>
   <g id="patch_93">
    <path clip-path="url(#pb2aa366823)" d="M 664.319096 384.48 
L 664.319096 51.84 
L 667.921033 51.84 
L 667.921033 384.48 
z
" style="fill:#008000;opacity:0.04;"/>
   </g>
   <g id="patch_94">
    <path clip-path="url(#pb2aa366823)" d="M 671.522969 384.48 
L 671.522969 51.84 
L 675.124906 51.84 
L 675.124906 384.48 
z
" style="fill:#008000;opacity:0.04;"/>
   </g>
   <g id="patch_95">
    <path clip-path="url(#pb2aa366823)" d="M 678.726842 384.48 
L 678.726842 51.84 
L 682.328779 51.84 
L 682.328779 384.48 
z
" style="fill:#008000;opacity:0.04;"/>
   </g>
   <g id="patch_96">
    <path clip-path="url(#pb2aa366823)" d="M 685.930715 384.48 
L 685.930715 51.84 
L 689.532652 51.84 
L 689.532652 384.48 
z
" style="fill:#008000;opacity:0.04;"/>
   </g>
   <g id="patch_97">
    <path clip-path="url(#pb2aa366823)" d="M 693.134588 384.48 
L 693.134588 51.84 
L 696.736525 51.84 
L 696.736525 384.48 
z
" style="fill:#008000;opacity:0.04;"/>
   </g>
   <g id="patch_98">
    <path clip-path="url(#pb2aa366823)" d="M 700.338462 384.48 
L 700.338462 51.84 
L 703.940398 51.84 
L 703.940398 384.48 
z
" style="fill:#008000;opacity:0.04;"/>
   </g>
   <g id="patch_99">
    <path clip-path="url(#pb2aa366823)" d="M 707.542335 384.48 
L 707.542335 51.84 
L 711.144271 51.84 
L 711.144271 384.48 
z
" style="fill:#008000;opacity:0.04;"/>
   </g>
   <g id="patch_100">
    <path clip-path="url(#pb2aa366823)" d="M 714.746208 384.48 
L 714.746208 51.84 
L 718.348144 51.84 
L 718.348144 384.48 
z
" style="fill:#008000;opacity:0.04;"/>
   </g>
   <g id="patch_101">
    <path clip-path="url(#pb2aa366823)" d="M 714.746208 371.1744 
L 714.746208 51.84 
L 718.348144 51.84 
L 718.348144 371.1744 
z
" style="fill:#008000;opacity:0.5;"/>
   </g>
   <g id="patch_102">
    <path clip-path="url(#pb2aa366823)" d="M 721.950081 384.48 
L 721.950081 51.84 
L 725.552017 51.84 
L 725.552017 384.48 
z
" style="fill:#008000;opacity:0.04;"/>
   </g>
   <g id="patch_103">
    <path clip-path="url(#pb2aa366823)" d="M 729.153954 384.48 
L 729.153954 51.84 
L 732.75589 51.84 
L 732.75589 384.48 
z
" style="fill:#008000;opacity:0.04;"/>
   </g>
   <g id="patch_104">
    <path clip-path="url(#pb2aa366823)" d="M 736.357827 384.48 
L 736.357827 51.84 
L 739.959763 51.84 
L 739.959763 384.48 
z
" style="fill:#008000;opacity:0.04;"/>
   </g>
   <g id="patch_105">
    <path clip-path="url(#pb2aa366823)" d="M 743.5617 384.48 
L 743.5617 51.84 
L 747.163636 51.84 
L 747.163636 384.48 
z
" style="fill:#008000;opacity:0.04;"/>
   </g>
   <g id="matplotlib.axis_1">
    <g id="xtick_1">
     <g id="line2d_1">
      <defs>
       <path d="M 0 0 
L 0 3.5 
" id="mc7b951fc4d" style="stroke:#000000;stroke-width:0.8;"/>
      </defs>
      <g>
       <use style="stroke:#000000;stroke-width:0.8;" x="138.436364" xlink:href="#mc7b951fc4d" y="384.48"/>
      </g>
     </g>
     <g id="text_1">
      <!-- 0 -->
      <defs>
       <path d="M 31.78125 66.40625 
Q 24.171875 66.40625 20.328125 58.90625 
Q 16.5 51.421875 16.5 36.375 
Q 16.5 21.390625 20.328125 13.890625 
Q 24.171875 6.390625 31.78125 6.390625 
Q 39.453125 6.390625 43.28125 13.890625 
Q 47.125 21.390625 47.125 36.375 
Q 47.125 51.421875 43.28125 58.90625 
Q 39.453125 66.40625 31.78125 66.40625 
z
M 31.78125 74.21875 
Q 44.046875 74.21875 50.515625 64.515625 
Q 56.984375 54.828125 56.984375 36.375 
Q 56.984375 17.96875 50.515625 8.265625 
Q 44.046875 -1.421875 31.78125 -1.421875 
Q 19.53125 -1.421875 13.0625 8.265625 
Q 6.59375 17.96875 6.59375 36.375 
Q 6.59375 54.828125 13.0625 64.515625 
Q 19.53125 74.21875 31.78125 74.21875 
z
" id="DejaVuSans-48"/>
      </defs>
      <g transform="translate(135.255114 399.078438)scale(0.1 -0.1)">
       <use xlink:href="#DejaVuSans-48"/>
      </g>
     </g>
    </g>
    <g id="xtick_2">
     <g id="line2d_2">
      <g>
       <use style="stroke:#000000;stroke-width:0.8;" x="228.484777" xlink:href="#mc7b951fc4d" y="384.48"/>
      </g>
     </g>
     <g id="text_2">
      <!-- 250 -->
      <defs>
       <path d="M 19.1875 8.296875 
L 53.609375 8.296875 
L 53.609375 0 
L 7.328125 0 
L 7.328125 8.296875 
Q 12.9375 14.109375 22.625 23.890625 
Q 32.328125 33.6875 34.8125 36.53125 
Q 39.546875 41.84375 41.421875 45.53125 
Q 43.3125 49.21875 43.3125 52.78125 
Q 43.3125 58.59375 39.234375 62.25 
Q 35.15625 65.921875 28.609375 65.921875 
Q 23.96875 65.921875 18.8125 64.3125 
Q 13.671875 62.703125 7.8125 59.421875 
L 7.8125 69.390625 
Q 13.765625 71.78125 18.9375 73 
Q 24.125 74.21875 28.421875 74.21875 
Q 39.75 74.21875 46.484375 68.546875 
Q 53.21875 62.890625 53.21875 53.421875 
Q 53.21875 48.921875 51.53125 44.890625 
Q 49.859375 40.875 45.40625 35.40625 
Q 44.1875 33.984375 37.640625 27.21875 
Q 31.109375 20.453125 19.1875 8.296875 
z
" id="DejaVuSans-50"/>
       <path d="M 10.796875 72.90625 
L 49.515625 72.90625 
L 49.515625 64.59375 
L 19.828125 64.59375 
L 19.828125 46.734375 
Q 21.96875 47.46875 24.109375 47.828125 
Q 26.265625 48.1875 28.421875 48.1875 
Q 40.625 48.1875 47.75 41.5 
Q 54.890625 34.8125 54.890625 23.390625 
Q 54.890625 11.625 47.5625 5.09375 
Q 40.234375 -1.421875 26.90625 -1.421875 
Q 22.3125 -1.421875 17.546875 -0.640625 
Q 12.796875 0.140625 7.71875 1.703125 
L 7.71875 11.625 
Q 12.109375 9.234375 16.796875 8.0625 
Q 21.484375 6.890625 26.703125 6.890625 
Q 35.15625 6.890625 40.078125 11.328125 
Q 45.015625 15.765625 45.015625 23.390625 
Q 45.015625 31 40.078125 35.4375 
Q 35.15625 39.890625 26.703125 39.890625 
Q 22.75 39.890625 18.8125 39.015625 
Q 14.890625 38.140625 10.796875 36.28125 
z
" id="DejaVuSans-53"/>
      </defs>
      <g transform="translate(218.941027 399.078438)scale(0.1 -0.1)">
       <use xlink:href="#DejaVuSans-50"/>
       <use x="63.623047" xlink:href="#DejaVuSans-53"/>
       <use x="127.246094" xlink:href="#DejaVuSans-48"/>
      </g>
     </g>
    </g>
    <g id="xtick_3">
     <g id="line2d_3">
      <g>
       <use style="stroke:#000000;stroke-width:0.8;" x="318.53319" xlink:href="#mc7b951fc4d" y="384.48"/>
      </g>
     </g>
     <g id="text_3">
      <!-- 500 -->
      <g transform="translate(308.98944 399.078438)scale(0.1 -0.1)">
       <use xlink:href="#DejaVuSans-53"/>
       <use x="63.623047" xlink:href="#DejaVuSans-48"/>
       <use x="127.246094" xlink:href="#DejaVuSans-48"/>
      </g>
     </g>
    </g>
    <g id="xtick_4">
     <g id="line2d_4">
      <g>
       <use style="stroke:#000000;stroke-width:0.8;" x="408.581603" xlink:href="#mc7b951fc4d" y="384.48"/>
      </g>
     </g>
     <g id="text_4">
      <!-- 750 -->
      <defs>
       <path d="M 8.203125 72.90625 
L 55.078125 72.90625 
L 55.078125 68.703125 
L 28.609375 0 
L 18.3125 0 
L 43.21875 64.59375 
L 8.203125 64.59375 
z
" id="DejaVuSans-55"/>
      </defs>
      <g transform="translate(399.037853 399.078438)scale(0.1 -0.1)">
       <use xlink:href="#DejaVuSans-55"/>
       <use x="63.623047" xlink:href="#DejaVuSans-53"/>
       <use x="127.246094" xlink:href="#DejaVuSans-48"/>
      </g>
     </g>
    </g>
    <g id="xtick_5">
     <g id="line2d_5">
      <g>
       <use style="stroke:#000000;stroke-width:0.8;" x="498.630016" xlink:href="#mc7b951fc4d" y="384.48"/>
      </g>
     </g>
     <g id="text_5">
      <!-- 1000 -->
      <defs>
       <path d="M 12.40625 8.296875 
L 28.515625 8.296875 
L 28.515625 63.921875 
L 10.984375 60.40625 
L 10.984375 69.390625 
L 28.421875 72.90625 
L 38.28125 72.90625 
L 38.28125 8.296875 
L 54.390625 8.296875 
L 54.390625 0 
L 12.40625 0 
z
" id="DejaVuSans-49"/>
      </defs>
      <g transform="translate(485.905016 399.078438)scale(0.1 -0.1)">
       <use xlink:href="#DejaVuSans-49"/>
       <use x="63.623047" xlink:href="#DejaVuSans-48"/>
       <use x="127.246094" xlink:href="#DejaVuSans-48"/>
       <use x="190.869141" xlink:href="#DejaVuSans-48"/>
      </g>
     </g>
    </g>
    <g id="xtick_6">
     <g id="line2d_6">
      <g>
       <use style="stroke:#000000;stroke-width:0.8;" x="588.678429" xlink:href="#mc7b951fc4d" y="384.48"/>
      </g>
     </g>
     <g id="text_6">
      <!-- 1250 -->
      <g transform="translate(575.953429 399.078438)scale(0.1 -0.1)">
       <use xlink:href="#DejaVuSans-49"/>
       <use x="63.623047" xlink:href="#DejaVuSans-50"/>
       <use x="127.246094" xlink:href="#DejaVuSans-53"/>
       <use x="190.869141" xlink:href="#DejaVuSans-48"/>
      </g>
     </g>
    </g>
    <g id="xtick_7">
     <g id="line2d_7">
      <g>
       <use style="stroke:#000000;stroke-width:0.8;" x="678.726842" xlink:href="#mc7b951fc4d" y="384.48"/>
      </g>
     </g>
     <g id="text_7">
      <!-- 1500 -->
      <g transform="translate(666.001842 399.078438)scale(0.1 -0.1)">
       <use xlink:href="#DejaVuSans-49"/>
       <use x="63.623047" xlink:href="#DejaVuSans-53"/>
       <use x="127.246094" xlink:href="#DejaVuSans-48"/>
       <use x="190.869141" xlink:href="#DejaVuSans-48"/>
      </g>
     </g>
    </g>
    <g id="xtick_8">
     <g id="line2d_8">
      <g>
       <use style="stroke:#000000;stroke-width:0.8;" x="768.775256" xlink:href="#mc7b951fc4d" y="384.48"/>
      </g>
     </g>
     <g id="text_8">
      <!-- 1750 -->
      <g transform="translate(756.050256 399.078438)scale(0.1 -0.1)">
       <use xlink:href="#DejaVuSans-49"/>
       <use x="63.623047" xlink:href="#DejaVuSans-55"/>
       <use x="127.246094" xlink:href="#DejaVuSans-53"/>
       <use x="190.869141" xlink:href="#DejaVuSans-48"/>
      </g>
     </g>
    </g>
    <g id="text_9">
     <!-- Timestamp -->
     <defs>
      <path d="M -0.296875 72.90625 
L 61.375 72.90625 
L 61.375 64.59375 
L 35.5 64.59375 
L 35.5 0 
L 25.59375 0 
L 25.59375 64.59375 
L -0.296875 64.59375 
z
" id="DejaVuSans-84"/>
      <path d="M 9.421875 54.6875 
L 18.40625 54.6875 
L 18.40625 0 
L 9.421875 0 
z
M 9.421875 75.984375 
L 18.40625 75.984375 
L 18.40625 64.59375 
L 9.421875 64.59375 
z
" id="DejaVuSans-105"/>
      <path d="M 52 44.1875 
Q 55.375 50.25 60.0625 53.125 
Q 64.75 56 71.09375 56 
Q 79.640625 56 84.28125 50.015625 
Q 88.921875 44.046875 88.921875 33.015625 
L 88.921875 0 
L 79.890625 0 
L 79.890625 32.71875 
Q 79.890625 40.578125 77.09375 44.375 
Q 74.3125 48.1875 68.609375 48.1875 
Q 61.625 48.1875 57.5625 43.546875 
Q 53.515625 38.921875 53.515625 30.90625 
L 53.515625 0 
L 44.484375 0 
L 44.484375 32.71875 
Q 44.484375 40.625 41.703125 44.40625 
Q 38.921875 48.1875 33.109375 48.1875 
Q 26.21875 48.1875 22.15625 43.53125 
Q 18.109375 38.875 18.109375 30.90625 
L 18.109375 0 
L 9.078125 0 
L 9.078125 54.6875 
L 18.109375 54.6875 
L 18.109375 46.1875 
Q 21.1875 51.21875 25.484375 53.609375 
Q 29.78125 56 35.6875 56 
Q 41.65625 56 45.828125 52.96875 
Q 50 49.953125 52 44.1875 
z
" id="DejaVuSans-109"/>
      <path d="M 56.203125 29.59375 
L 56.203125 25.203125 
L 14.890625 25.203125 
Q 15.484375 15.921875 20.484375 11.0625 
Q 25.484375 6.203125 34.421875 6.203125 
Q 39.59375 6.203125 44.453125 7.46875 
Q 49.3125 8.734375 54.109375 11.28125 
L 54.109375 2.78125 
Q 49.265625 0.734375 44.1875 -0.34375 
Q 39.109375 -1.421875 33.890625 -1.421875 
Q 20.796875 -1.421875 13.15625 6.1875 
Q 5.515625 13.8125 5.515625 26.8125 
Q 5.515625 40.234375 12.765625 48.109375 
Q 20.015625 56 32.328125 56 
Q 43.359375 56 49.78125 48.890625 
Q 56.203125 41.796875 56.203125 29.59375 
z
M 47.21875 32.234375 
Q 47.125 39.59375 43.09375 43.984375 
Q 39.0625 48.390625 32.421875 48.390625 
Q 24.90625 48.390625 20.390625 44.140625 
Q 15.875 39.890625 15.1875 32.171875 
z
" id="DejaVuSans-101"/>
      <path d="M 44.28125 53.078125 
L 44.28125 44.578125 
Q 40.484375 46.53125 36.375 47.5 
Q 32.28125 48.484375 27.875 48.484375 
Q 21.1875 48.484375 17.84375 46.4375 
Q 14.5 44.390625 14.5 40.28125 
Q 14.5 37.15625 16.890625 35.375 
Q 19.28125 33.59375 26.515625 31.984375 
L 29.59375 31.296875 
Q 39.15625 29.25 43.1875 25.515625 
Q 47.21875 21.78125 47.21875 15.09375 
Q 47.21875 7.46875 41.1875 3.015625 
Q 35.15625 -1.421875 24.609375 -1.421875 
Q 20.21875 -1.421875 15.453125 -0.5625 
Q 10.6875 0.296875 5.421875 2 
L 5.421875 11.28125 
Q 10.40625 8.6875 15.234375 7.390625 
Q 20.0625 6.109375 24.8125 6.109375 
Q 31.15625 6.109375 34.5625 8.28125 
Q 37.984375 10.453125 37.984375 14.40625 
Q 37.984375 18.0625 35.515625 20.015625 
Q 33.0625 21.96875 24.703125 23.78125 
L 21.578125 24.515625 
Q 13.234375 26.265625 9.515625 29.90625 
Q 5.8125 33.546875 5.8125 39.890625 
Q 5.8125 47.609375 11.28125 51.796875 
Q 16.75 56 26.8125 56 
Q 31.78125 56 36.171875 55.265625 
Q 40.578125 54.546875 44.28125 53.078125 
z
" id="DejaVuSans-115"/>
      <path d="M 18.3125 70.21875 
L 18.3125 54.6875 
L 36.8125 54.6875 
L 36.8125 47.703125 
L 18.3125 47.703125 
L 18.3125 18.015625 
Q 18.3125 11.328125 20.140625 9.421875 
Q 21.96875 7.515625 27.59375 7.515625 
L 36.8125 7.515625 
L 36.8125 0 
L 27.59375 0 
Q 17.1875 0 13.234375 3.875 
Q 9.28125 7.765625 9.28125 18.015625 
L 9.28125 47.703125 
L 2.6875 47.703125 
L 2.6875 54.6875 
L 9.28125 54.6875 
L 9.28125 70.21875 
z
" id="DejaVuSans-116"/>
      <path d="M 34.28125 27.484375 
Q 23.390625 27.484375 19.1875 25 
Q 14.984375 22.515625 14.984375 16.5 
Q 14.984375 11.71875 18.140625 8.90625 
Q 21.296875 6.109375 26.703125 6.109375 
Q 34.1875 6.109375 38.703125 11.40625 
Q 43.21875 16.703125 43.21875 25.484375 
L 43.21875 27.484375 
z
M 52.203125 31.203125 
L 52.203125 0 
L 43.21875 0 
L 43.21875 8.296875 
Q 40.140625 3.328125 35.546875 0.953125 
Q 30.953125 -1.421875 24.3125 -1.421875 
Q 15.921875 -1.421875 10.953125 3.296875 
Q 6 8.015625 6 15.921875 
Q 6 25.140625 12.171875 29.828125 
Q 18.359375 34.515625 30.609375 34.515625 
L 43.21875 34.515625 
L 43.21875 35.40625 
Q 43.21875 41.609375 39.140625 45 
Q 35.0625 48.390625 27.6875 48.390625 
Q 23 48.390625 18.546875 47.265625 
Q 14.109375 46.140625 10.015625 43.890625 
L 10.015625 52.203125 
Q 14.9375 54.109375 19.578125 55.046875 
Q 24.21875 56 28.609375 56 
Q 40.484375 56 46.34375 49.84375 
Q 52.203125 43.703125 52.203125 31.203125 
z
" id="DejaVuSans-97"/>
      <path d="M 18.109375 8.203125 
L 18.109375 -20.796875 
L 9.078125 -20.796875 
L 9.078125 54.6875 
L 18.109375 54.6875 
L 18.109375 46.390625 
Q 20.953125 51.265625 25.265625 53.625 
Q 29.59375 56 35.59375 56 
Q 45.5625 56 51.78125 48.09375 
Q 58.015625 40.1875 58.015625 27.296875 
Q 58.015625 14.40625 51.78125 6.484375 
Q 45.5625 -1.421875 35.59375 -1.421875 
Q 29.59375 -1.421875 25.265625 0.953125 
Q 20.953125 3.328125 18.109375 8.203125 
z
M 48.6875 27.296875 
Q 48.6875 37.203125 44.609375 42.84375 
Q 40.53125 48.484375 33.40625 48.484375 
Q 26.265625 48.484375 22.1875 42.84375 
Q 18.109375 37.203125 18.109375 27.296875 
Q 18.109375 17.390625 22.1875 11.75 
Q 26.265625 6.109375 33.40625 6.109375 
Q 40.53125 6.109375 44.609375 11.75 
Q 48.6875 17.390625 48.6875 27.296875 
z
" id="DejaVuSans-112"/>
     </defs>
     <g transform="translate(414.739062 412.756563)scale(0.1 -0.1)">
      <use xlink:href="#DejaVuSans-84"/>
      <use x="61.037109" xlink:href="#DejaVuSans-105"/>
      <use x="88.820312" xlink:href="#DejaVuSans-109"/>
      <use x="186.232422" xlink:href="#DejaVuSans-101"/>
      <use x="247.755859" xlink:href="#DejaVuSans-115"/>
      <use x="299.855469" xlink:href="#DejaVuSans-116"/>
      <use x="339.064453" xlink:href="#DejaVuSans-97"/>
      <use x="400.34375" xlink:href="#DejaVuSans-109"/>
      <use x="497.755859" xlink:href="#DejaVuSans-112"/>
     </g>
    </g>
   </g>
   <g id="matplotlib.axis_2">
    <g id="ytick_1">
     <g id="line2d_9">
      <defs>
       <path d="M 0 0 
L -3.5 0 
" id="mb032f2d087" style="stroke:#000000;stroke-width:0.8;"/>
      </defs>
      <g>
       <use style="stroke:#000000;stroke-width:0.8;" x="108" xlink:href="#mb032f2d087" y="373.263758"/>
      </g>
     </g>
     <g id="text_10">
      <!-- −2000 -->
      <defs>
       <path d="M 10.59375 35.5 
L 73.1875 35.5 
L 73.1875 27.203125 
L 10.59375 27.203125 
z
" id="DejaVuSans-8722"/>
      </defs>
      <g transform="translate(67.170312 377.062977)scale(0.1 -0.1)">
       <use xlink:href="#DejaVuSans-8722"/>
       <use x="83.789062" xlink:href="#DejaVuSans-50"/>
       <use x="147.412109" xlink:href="#DejaVuSans-48"/>
       <use x="211.035156" xlink:href="#DejaVuSans-48"/>
       <use x="274.658203" xlink:href="#DejaVuSans-48"/>
      </g>
     </g>
    </g>
    <g id="ytick_2">
     <g id="line2d_10">
      <g>
       <use style="stroke:#000000;stroke-width:0.8;" x="108" xlink:href="#mb032f2d087" y="319.180308"/>
      </g>
     </g>
     <g id="text_11">
      <!-- −1500 -->
      <g transform="translate(67.170312 322.979527)scale(0.1 -0.1)">
       <use xlink:href="#DejaVuSans-8722"/>
       <use x="83.789062" xlink:href="#DejaVuSans-49"/>
       <use x="147.412109" xlink:href="#DejaVuSans-53"/>
       <use x="211.035156" xlink:href="#DejaVuSans-48"/>
       <use x="274.658203" xlink:href="#DejaVuSans-48"/>
      </g>
     </g>
    </g>
    <g id="ytick_3">
     <g id="line2d_11">
      <g>
       <use style="stroke:#000000;stroke-width:0.8;" x="108" xlink:href="#mb032f2d087" y="265.096858"/>
      </g>
     </g>
     <g id="text_12">
      <!-- −1000 -->
      <g transform="translate(67.170312 268.896076)scale(0.1 -0.1)">
       <use xlink:href="#DejaVuSans-8722"/>
       <use x="83.789062" xlink:href="#DejaVuSans-49"/>
       <use x="147.412109" xlink:href="#DejaVuSans-48"/>
       <use x="211.035156" xlink:href="#DejaVuSans-48"/>
       <use x="274.658203" xlink:href="#DejaVuSans-48"/>
      </g>
     </g>
    </g>
    <g id="ytick_4">
     <g id="line2d_12">
      <g>
       <use style="stroke:#000000;stroke-width:0.8;" x="108" xlink:href="#mb032f2d087" y="211.013408"/>
      </g>
     </g>
     <g id="text_13">
      <!-- −500 -->
      <g transform="translate(73.532813 214.812626)scale(0.1 -0.1)">
       <use xlink:href="#DejaVuSans-8722"/>
       <use x="83.789062" xlink:href="#DejaVuSans-53"/>
       <use x="147.412109" xlink:href="#DejaVuSans-48"/>
       <use x="211.035156" xlink:href="#DejaVuSans-48"/>
      </g>
     </g>
    </g>
    <g id="ytick_5">
     <g id="line2d_13">
      <g>
       <use style="stroke:#000000;stroke-width:0.8;" x="108" xlink:href="#mb032f2d087" y="156.929958"/>
      </g>
     </g>
     <g id="text_14">
      <!-- 0 -->
      <g transform="translate(94.6375 160.729176)scale(0.1 -0.1)">
       <use xlink:href="#DejaVuSans-48"/>
      </g>
     </g>
    </g>
    <g id="ytick_6">
     <g id="line2d_14">
      <g>
       <use style="stroke:#000000;stroke-width:0.8;" x="108" xlink:href="#mb032f2d087" y="102.846507"/>
      </g>
     </g>
     <g id="text_15">
      <!-- 500 -->
      <g transform="translate(81.9125 106.645726)scale(0.1 -0.1)">
       <use xlink:href="#DejaVuSans-53"/>
       <use x="63.623047" xlink:href="#DejaVuSans-48"/>
       <use x="127.246094" xlink:href="#DejaVuSans-48"/>
      </g>
     </g>
    </g>
    <g id="text_16">
     <!-- Value -->
     <defs>
      <path d="M 28.609375 0 
L 0.78125 72.90625 
L 11.078125 72.90625 
L 34.1875 11.53125 
L 57.328125 72.90625 
L 67.578125 72.90625 
L 39.796875 0 
z
" id="DejaVuSans-86"/>
      <path d="M 9.421875 75.984375 
L 18.40625 75.984375 
L 18.40625 0 
L 9.421875 0 
z
" id="DejaVuSans-108"/>
      <path d="M 8.5 21.578125 
L 8.5 54.6875 
L 17.484375 54.6875 
L 17.484375 21.921875 
Q 17.484375 14.15625 20.5 10.265625 
Q 23.53125 6.390625 29.59375 6.390625 
Q 36.859375 6.390625 41.078125 11.03125 
Q 45.3125 15.671875 45.3125 23.6875 
L 45.3125 54.6875 
L 54.296875 54.6875 
L 54.296875 0 
L 45.3125 0 
L 45.3125 8.40625 
Q 42.046875 3.421875 37.71875 1 
Q 33.40625 -1.421875 27.6875 -1.421875 
Q 18.265625 -1.421875 13.375 4.4375 
Q 8.5 10.296875 8.5 21.578125 
z
M 31.109375 56 
z
" id="DejaVuSans-117"/>
     </defs>
     <g transform="translate(61.090625 232.273281)rotate(-90)scale(0.1 -0.1)">
      <use xlink:href="#DejaVuSans-86"/>
      <use x="68.298828" xlink:href="#DejaVuSans-97"/>
      <use x="129.578125" xlink:href="#DejaVuSans-108"/>
      <use x="157.361328" xlink:href="#DejaVuSans-117"/>
      <use x="220.740234" xlink:href="#DejaVuSans-101"/>
     </g>
    </g>
   </g>
   <g id="line2d_15">
    <path clip-path="url(#pb2aa366823)" d="M 138.436364 159.558158 
L 139.156751 104.949207 
L 139.516945 91.718371 
L 139.877138 92.761925 
L 140.237332 100.413226 
L 140.597526 115.598114 
L 140.957719 140.561733 
L 141.317913 157.647029 
L 141.678107 168.298459 
L 142.0383 168.586865 
L 142.398494 162.78983 
L 143.118881 134.333567 
L 143.479075 125.723174 
L 143.839268 134.104601 
L 144.199462 137.686117 
L 144.919849 178.935099 
L 145.280043 196.492412 
L 145.640237 203.09856 
L 146.00043 190.344896 
L 146.360624 186.289126 
L 146.720818 164.818304 
L 147.081011 135.820068 
L 147.441205 116.377466 
L 147.801399 85.865101 
L 148.521786 66.96 
L 148.88198 87.275623 
L 149.602367 115.816156 
L 149.962561 140.723396 
L 150.322754 148.926509 
L 150.682948 153.39518 
L 151.043141 151.004646 
L 151.403335 130.918306 
L 151.763529 122.440319 
L 152.123722 118.842467 
L 152.483916 113.595053 
L 153.204303 145.990082 
L 153.564497 165.495555 
L 154.284884 195.19789 
L 154.645078 192.041713 
L 155.005272 182.493996 
L 156.446046 79.70968 
L 156.80624 71.083034 
L 157.166434 72.863908 
L 157.886821 90.907598 
L 158.247015 122.146099 
L 158.967402 155.981188 
L 159.327595 154.276976 
L 160.047983 138.222377 
L 160.408176 138.289955 
L 160.76837 119.938482 
L 161.128564 115.841666 
L 161.488757 143.14612 
L 161.848951 154.690207 
L 162.209145 179.874402 
L 162.929532 211.350378 
L 163.289726 199.44195 
L 163.649919 193.812752 
L 164.010113 160.889435 
L 164.7305 122.085069 
L 165.090694 94.338199 
L 165.450888 84.349537 
L 165.811081 85.260954 
L 166.171275 97.781322 
L 167.612049 166.355585 
L 167.972243 167.391021 
L 168.332437 155.457985 
L 168.69263 156.985288 
L 169.052824 150.235803 
L 169.413018 147.483189 
L 169.773211 142.205314 
L 170.133405 148.114433 
L 170.853792 200.080779 
L 171.213986 207.436703 
L 171.57418 232.060489 
L 171.934373 230.866441 
L 172.654761 195.32498 
L 173.735342 121.197906 
L 174.095535 109.471741 
L 174.455729 108.798481 
L 174.815923 117.243355 
L 175.176116 143.128329 
L 176.256697 196.775255 
L 176.616891 189.485881 
L 176.977084 189.587599 
L 177.697472 158.540445 
L 178.057665 161.036018 
L 178.417859 162.111697 
L 178.778053 166.329352 
L 180.218827 242.429323 
L 180.579021 240.755533 
L 180.939215 233.481849 
L 181.299408 209.543454 
L 181.659602 172.846895 
L 182.019796 158.204255 
L 182.379989 132.811025 
L 182.740183 121.778134 
L 183.100377 117.521896 
L 183.46057 128.37711 
L 183.820764 158.623196 
L 184.180958 176.549278 
L 184.541151 188.769103 
L 185.261538 204.491997 
L 185.621732 193.552068 
L 185.981926 174.463314 
L 186.342119 170.926227 
L 186.702313 161.194012 
L 187.4227 172.915247 
L 188.143088 211.21749 
L 188.503281 234.060907 
L 188.863475 236.271014 
L 189.223669 239.480453 
L 189.583862 227.693108 
L 190.30425 171.515506 
L 191.384831 112.765015 
L 191.745024 106.373558 
L 192.105218 118.204422 
L 192.825605 159.328434 
L 193.185799 178.271329 
L 193.545992 182.861374 
L 193.906186 190.7262 
L 194.26638 183.159978 
L 194.626573 162.901608 
L 194.986767 161.494839 
L 195.346961 143.533973 
L 195.707154 150.986568 
L 196.787735 192.854663 
L 197.147929 217.560005 
L 197.508123 225.786372 
L 197.868316 227.159709 
L 198.22851 213.869905 
L 198.588704 186.230829 
L 198.948897 147.548065 
L 199.309091 128.589642 
L 199.669285 191.934224 
L 200.029478 95.665783 
L 200.389672 88.697683 
L 200.749866 97.575015 
L 201.830446 158.717103 
L 202.19064 166.851123 
L 202.550834 168.542445 
L 203.271221 145.512788 
L 203.991608 129.514525 
L 204.351802 121.874471 
L 204.711996 130.222178 
L 205.072189 159.272879 
L 205.432383 170.128887 
L 205.792577 191.617669 
L 206.15277 195.78334 
L 206.512964 201.920823 
L 206.873158 189.856425 
L 208.313932 89.526903 
L 208.674126 78.559471 
L 209.03432 73.079048 
L 209.754707 101.672844 
L 210.1149 119.715436 
L 210.475094 146.082716 
L 210.835288 148.1785 
L 211.195481 154.733911 
L 211.555675 144.839442 
L 211.915869 128.811494 
L 212.276062 123.15183 
L 212.636256 115.250926 
L 212.99645 115.404171 
L 213.356643 121.689981 
L 214.437224 187.863821 
L 214.797418 191.307575 
L 215.157612 197.097268 
L 215.877999 164.48684 
L 216.238193 128.962625 
L 217.318774 68.011326 
L 217.678967 67.513836 
L 218.399354 102.660206 
L 219.119742 151.584576 
L 219.840129 154.602719 
L 220.560516 139.675421 
L 221.280904 121.453537 
L 221.641097 131.515353 
L 222.001291 132.555955 
L 222.721678 171.882494 
L 223.081872 183.835493 
L 223.442066 203.833282 
L 223.802259 199.4033 
L 224.162453 190.628446 
L 225.603228 100.534423 
L 225.963421 90.011079 
L 226.683808 97.864212 
L 227.764389 163.837246 
L 228.124583 168.842057 
L 228.484777 168.25652 
L 228.84497 163.849233 
L 229.205164 161.061705 
L 229.565358 145.992286 
L 229.925551 136.654317 
L 230.285745 144.749537 
L 230.645939 155.95551 
L 231.72652 212.214194 
L 232.086713 218.004874 
L 232.446907 227.628414 
L 232.807101 217.474536 
L 233.167294 194.761281 
L 233.527488 157.323612 
L 233.887682 134.870573 
L 234.247875 119.548575 
L 234.608069 110.097308 
L 234.968263 113.756667 
L 235.328456 114.118094 
L 235.68865 134.445103 
L 236.048843 166.247475 
L 236.409037 175.447715 
L 236.769231 193.097608 
L 237.129424 193.158801 
L 237.489618 182.919231 
L 237.849812 178.195508 
L 238.210005 157.605168 
L 238.570199 160.811409 
L 238.930393 157.570385 
L 240.731361 242.263751 
L 241.451748 234.183433 
L 241.811942 214.727933 
L 242.892523 130.521735 
L 243.252717 116.378841 
L 243.973104 131.797515 
L 244.333297 157.568381 
L 244.693491 169.928222 
L 245.053685 188.127933 
L 245.413878 196.716249 
L 245.774072 199.960865 
L 246.134266 194.193071 
L 246.854653 172.028911 
L 247.214847 167.155159 
L 247.57504 156.549386 
L 247.935234 180.019045 
L 248.295428 189.54526 
L 249.015815 225.264834 
L 249.376009 241.593358 
L 249.736202 245.24198 
L 250.096396 226.980865 
L 250.816783 174.275741 
L 251.176977 142.591643 
L 251.537171 122.118562 
L 251.897364 110.630244 
L 252.257558 111.598419 
L 252.617751 120.124448 
L 253.698332 177.309098 
L 254.058526 184.848971 
L 254.41872 189.027533 
L 254.778913 191.517297 
L 255.139107 159.827143 
L 255.499301 153.196736 
L 255.859494 151.880087 
L 256.219688 144.762159 
L 257.300269 193.609788 
L 257.660463 214.082455 
L 258.020656 226.76379 
L 259.101237 184.720773 
L 260.181818 105.571915 
L 260.542012 97.1928 
L 261.262399 94.267853 
L 261.982786 143.376732 
L 262.703174 166.732096 
L 263.063367 168.87136 
L 263.423561 157.865098 
L 263.783755 140.740271 
L 264.143948 142.47404 
L 264.504142 130.497448 
L 264.864336 128.29081 
L 265.584723 155.392262 
L 266.30511 195.115841 
L 266.665304 203.874472 
L 267.025498 207.295642 
L 267.385691 192.545113 
L 267.745885 171.047756 
L 268.826466 87.344897 
L 269.186659 70.117246 
L 269.546853 72.794785 
L 270.26724 99.805701 
L 270.987628 139.587379 
L 271.347821 151.413082 
L 271.708015 151.585609 
L 272.068209 141.900339 
L 272.428402 127.464655 
L 273.14879 111.934096 
L 273.508983 115.168309 
L 274.229371 147.039635 
L 275.309952 198.793843 
L 276.030339 184.950022 
L 276.750726 130.96015 
L 277.11092 97.706011 
L 277.471114 77.728847 
L 278.191501 77.297837 
L 278.551694 79.528571 
L 278.911888 98.271594 
L 279.632275 143.953794 
L 279.992469 161.290281 
L 280.712856 149.193887 
L 281.433244 120.549084 
L 281.793437 125.303856 
L 282.153631 128.25927 
L 282.513825 137.165596 
L 282.874018 158.248617 
L 283.234212 172.103379 
L 283.594406 192.911339 
L 283.954599 204.269019 
L 284.314793 209.871054 
L 284.674987 201.640596 
L 285.03518 178.000548 
L 285.395374 142.537337 
L 285.755568 126.861581 
L 286.115761 84.997416 
L 286.475955 86.94786 
L 286.836148 78.372799 
L 287.196342 102.821755 
L 287.556536 118.151019 
L 288.276923 164.603886 
L 288.637117 160.472143 
L 288.99731 177.082706 
L 289.357504 160.45356 
L 289.717698 150.770632 
L 290.077891 147.155489 
L 290.798279 143.128674 
L 291.158472 156.81839 
L 291.87886 197.972604 
L 292.239053 206.849714 
L 292.599247 232.133777 
L 292.959441 226.990297 
L 293.679828 200.002318 
L 294.400215 133.221336 
L 294.760409 117.16705 
L 295.120602 106.149322 
L 295.480796 107.777485 
L 296.561377 161.60493 
L 296.921571 184.596268 
L 297.281764 186.53262 
L 297.641958 195.542693 
L 298.002152 173.041215 
L 298.362345 175.849722 
L 298.722539 164.114078 
L 299.442926 160.720445 
L 299.80312 162.564044 
L 300.883701 228.690988 
L 301.243895 237.743382 
L 301.604088 241.322293 
L 302.324476 209.342806 
L 303.405056 126.392816 
L 303.76525 124.496484 
L 304.125444 120.760518 
L 304.485637 124.580708 
L 304.845831 153.99332 
L 305.206025 164.030664 
L 305.566218 191.546973 
L 305.926412 200.288713 
L 306.286606 198.249988 
L 306.646799 179.49761 
L 307.006993 181.576135 
L 307.367187 161.020852 
L 307.72738 168.575228 
L 308.087574 161.262819 
L 308.447768 182.506733 
L 308.807961 192.795799 
L 309.528349 226.229055 
L 309.888542 235.035517 
L 310.248736 238.662599 
L 310.60893 226.071784 
L 311.329317 186.167304 
L 311.68951 150.864436 
L 312.049704 127.096451 
L 312.409898 118.970361 
L 312.770091 116.277747 
L 313.130285 116.287809 
L 313.850672 161.464403 
L 314.57106 185.092694 
L 314.931253 189.236757 
L 315.291447 172.976112 
L 316.372028 154.655728 
L 316.732222 153.832585 
L 317.092415 151.179101 
L 317.452609 177.453211 
L 317.812803 192.946686 
L 318.172996 214.37164 
L 318.893384 227.094 
L 319.613771 186.447932 
L 321.054545 86.502633 
L 321.414739 86.042659 
L 321.774933 106.148388 
L 322.135126 117.879783 
L 322.49532 144.07453 
L 322.855514 159.481099 
L 323.215707 163.343097 
L 323.575901 165.127505 
L 324.296288 149.190444 
L 325.016676 128.229967 
L 325.376869 138.548985 
L 325.737063 137.744785 
L 326.097257 152.291007 
L 326.45745 180.861228 
L 326.817644 184.829094 
L 327.177838 208.424576 
L 327.538031 197.975018 
L 327.898225 193.374891 
L 329.338999 86.485188 
L 329.699193 76.2387 
L 330.059387 74.286012 
L 330.41958 82.515989 
L 330.779774 107.348343 
L 331.139968 119.735409 
L 331.860355 149.586379 
L 332.220549 152.840634 
L 332.580742 149.517657 
L 332.940936 132.395039 
L 333.30113 121.876397 
L 333.661323 116.241395 
L 334.021517 118.082554 
L 334.381711 130.201118 
L 335.462292 182.54899 
L 335.822485 191.893903 
L 336.182679 187.592167 
L 336.542873 187.137758 
L 337.26326 137.768703 
L 337.983647 87.605337 
L 338.343841 76.845822 
L 338.704034 78.653024 
L 339.064228 72.97561 
L 339.424422 109.526493 
L 339.784615 122.291823 
L 340.144809 143.485107 
L 340.505003 154.276397 
L 341.22539 149.803028 
L 342.305971 115.007426 
L 342.666165 128.442185 
L 343.026358 128.112713 
L 344.106939 196.50734 
L 344.467133 206.032109 
L 344.827327 208.832228 
L 345.547714 174.06744 
L 345.907907 149.84617 
L 346.268101 116.880331 
L 346.628295 105.447631 
L 346.988488 87.53308 
L 347.348682 86.969088 
L 347.708876 100.649796 
L 348.789457 157.580346 
L 349.14965 166.066165 
L 349.509844 165.062074 
L 349.870038 166.479228 
L 350.230231 153.138586 
L 350.590425 148.706205 
L 350.950619 138.013327 
L 351.310812 135.699409 
L 351.671006 159.545402 
L 352.0312 164.273929 
L 352.391393 201.58044 
L 352.751587 220.644749 
L 353.111781 222.951254 
L 353.471974 228.243322 
L 353.832168 213.343292 
L 354.192361 192.878831 
L 354.912749 140.839238 
L 355.272942 120.132291 
L 355.633136 116.214411 
L 355.99333 109.458839 
L 356.353523 121.566618 
L 357.794298 193.890195 
L 358.154492 194.208739 
L 358.514685 186.264811 
L 358.874879 174.17657 
L 359.235073 168.595771 
L 359.595266 158.372871 
L 359.95546 158.113336 
L 360.675847 188.166845 
L 361.036041 213.75158 
L 361.396235 227.079091 
L 361.756428 244.959492 
L 362.116622 242.35431 
L 362.476815 237.566312 
L 363.197203 181.563678 
L 363.557396 160.458677 
L 363.91759 130.201509 
L 364.277784 123.211769 
L 364.637977 119.80196 
L 364.998171 122.075949 
L 365.358365 155.970174 
L 365.718558 167.097607 
L 366.078752 193.142412 
L 366.438946 198.846058 
L 367.159333 192.574288 
L 367.87972 168.036529 
L 368.239914 163.929965 
L 368.960301 175.817655 
L 369.320495 187.054106 
L 370.040882 237.171452 
L 370.401076 241.193512 
L 370.761269 237.374381 
L 371.481657 207.497039 
L 371.84185 181.317524 
L 372.202044 146.491031 
L 372.922431 115.454776 
L 373.282625 112.034288 
L 373.642819 118.258401 
L 374.003012 135.151508 
L 374.7234 178.642765 
L 375.083593 179.621867 
L 375.443787 188.053372 
L 375.803981 184.51778 
L 376.164174 165.702161 
L 376.524368 157.612908 
L 376.884562 157.223683 
L 377.244755 143.8657 
L 377.604949 163.165384 
L 377.965143 172.853919 
L 378.325336 193.604039 
L 378.68553 205.768981 
L 379.045724 222.818794 
L 379.405917 223.012285 
L 379.766111 209.967057 
L 380.486498 157.402018 
L 381.206885 101.282883 
L 381.567079 96.37984 
L 381.927273 89.463562 
L 382.287466 98.873221 
L 383.368047 154.116987 
L 383.728241 163.160637 
L 384.088435 167.753984 
L 384.448628 163.75477 
L 384.808822 145.149082 
L 385.169016 133.627427 
L 385.529209 129.578466 
L 385.889403 131.338776 
L 386.249597 134.80896 
L 387.330178 194.219882 
L 387.690371 198.934883 
L 388.050565 211.771327 
L 388.410758 193.135411 
L 389.851533 87.453463 
L 390.211727 73.938609 
L 390.57192 72.199677 
L 391.652501 114.380253 
L 392.012695 139.890736 
L 392.372889 142.128233 
L 392.733082 149.957002 
L 393.813663 118.8803 
L 394.173857 119.310366 
L 394.534051 114.882159 
L 394.894244 126.049084 
L 395.254438 141.653734 
L 395.974825 179.836652 
L 396.335019 195.89424 
L 396.695212 191.928817 
L 397.055406 183.494862 
L 397.4156 157.251509 
L 398.496181 103.850869 
L 398.856374 92.749889 
L 399.216568 96.253262 
L 399.576762 102.916782 
L 400.297149 133.724206 
L 401.017536 152.932941 
L 401.37773 157.623467 
L 401.737924 153.039287 
L 402.818505 129.673178 
L 403.538892 141.88169 
L 404.619473 185.268834 
L 404.979666 186.778191 
L 405.33986 191.068232 
L 405.700054 183.261989 
L 406.420441 150.174588 
L 406.780635 125.056961 
L 407.501022 106.023402 
L 407.861216 103.419482 
L 408.221409 115.38227 
L 408.941797 148.689107 
L 409.30199 158.063551 
L 409.662184 162.818607 
L 410.022378 165.932566 
L 410.382571 165.338132 
L 411.102959 146.400705 
L 411.463152 145.072346 
L 411.823346 147.889112 
L 412.18354 156.817047 
L 413.624314 206.939184 
L 413.984508 211.716627 
L 414.704895 184.62947 
L 415.785476 126.633669 
L 416.505863 118.157268 
L 416.866057 133.180154 
L 417.226251 143.200668 
L 417.586444 165.942726 
L 417.946638 172.710311 
L 418.306832 185.451762 
L 418.667025 183.885462 
L 419.027219 180.700859 
L 419.387413 167.739909 
L 419.747606 161.964861 
L 420.1078 165.371176 
L 420.467994 160.177083 
L 421.188381 179.929279 
L 421.908768 205.864332 
L 422.268962 215.639786 
L 422.629155 219.156256 
L 422.989349 210.456739 
L 424.430124 138.95604 
L 424.790317 128.819791 
L 425.150511 134.353842 
L 425.510705 135.298703 
L 425.870898 156.54259 
L 426.231092 161.280531 
L 426.591286 178.358135 
L 426.951479 182.405585 
L 427.311673 190.497415 
L 427.671867 184.855248 
L 428.03206 170.394089 
L 428.392254 167.873461 
L 428.752448 160.30824 
L 429.112641 162.126893 
L 429.472835 169.88526 
L 430.193222 197.224187 
L 430.553416 204.859542 
L 430.913609 217.597816 
L 431.273803 212.463296 
L 431.633997 204.933091 
L 432.354384 173.31935 
L 433.074771 127.67699 
L 433.434965 121.751543 
L 433.795159 124.307936 
L 434.155352 131.204027 
L 434.87574 160.115168 
L 435.235933 167.409736 
L 435.596127 178.423721 
L 435.956321 177.074806 
L 436.316514 175.283815 
L 437.036902 151.805313 
L 437.757289 146.729628 
L 438.117483 156.892395 
L 439.198063 202.426574 
L 439.558257 204.806709 
L 439.918451 204.923313 
L 440.638838 178.759946 
L 441.719419 119.475128 
L 442.439806 108.745516 
L 442.8 116.046513 
L 443.880581 153.711765 
L 444.240775 160.710293 
L 444.600968 163.769277 
L 444.961162 160.701793 
L 445.321356 147.451941 
L 446.041743 134.222511 
L 446.401937 140.521722 
L 446.76213 141.26519 
L 447.482517 173.606374 
L 447.842711 178.671864 
L 448.202905 188.132797 
L 448.563098 187.207236 
L 448.923292 179.034335 
L 449.283486 175.606292 
L 449.643679 140.620143 
L 450.364067 105.259561 
L 450.72426 94.37693 
L 451.084454 96.676515 
L 451.444648 100.805108 
L 451.804841 120.841281 
L 452.165035 124.14803 
L 452.525229 143.830314 
L 452.885422 149.947787 
L 453.245616 152.080758 
L 453.966003 143.359079 
L 454.326197 129.288972 
L 454.686391 129.127751 
L 455.046584 135.607213 
L 455.406778 134.188476 
L 456.127165 167.981008 
L 456.487359 174.879336 
L 456.847552 183.958779 
L 457.56794 173.777361 
L 457.928133 161.210567 
L 458.288327 144.206064 
L 458.648521 117.852066 
L 459.008714 100.003057 
L 459.368908 96.67599 
L 459.729102 94.641047 
L 460.089295 104.09661 
L 461.169876 149.07084 
L 461.53007 147.32798 
L 461.890264 157.058094 
L 462.250457 150.806394 
L 462.610651 139.387128 
L 462.970845 137.737576 
L 463.331038 129.052585 
L 463.691232 130.785979 
L 464.051425 140.401643 
L 465.132006 182.895425 
L 465.4922 188.212944 
L 465.852394 191.153387 
L 466.212587 181.121422 
L 466.932975 151.445763 
L 467.293168 131.781655 
L 467.653362 119.581026 
L 468.013556 98.45085 
L 468.733943 121.67668 
L 469.094137 129.209825 
L 469.814524 159.498445 
L 470.174718 166.306362 
L 470.534911 168.129239 
L 470.895105 164.317741 
L 471.255299 154.621306 
L 471.615492 149.067058 
L 471.975686 150.694165 
L 472.33588 142.987155 
L 472.696073 154.305089 
L 473.056267 174.039037 
L 473.776654 191.788086 
L 474.136848 209.608182 
L 474.497041 208.772055 
L 474.857235 202.77711 
L 475.217429 178.400727 
L 475.577622 164.828243 
L 475.937816 141.72329 
L 476.658203 124.546848 
L 477.018397 123.714739 
L 477.378591 128.987368 
L 477.738784 139.443013 
L 478.459172 171.854703 
L 478.819365 183.627654 
L 479.539753 177.924761 
L 479.899946 171.253907 
L 480.26014 167.15442 
L 480.620334 166.082686 
L 480.980527 158.265609 
L 481.700914 175.587026 
L 482.061108 197.504584 
L 482.421302 212.405975 
L 482.781495 215.86374 
L 483.141689 213.59734 
L 483.501883 209.857789 
L 484.942657 136.906553 
L 485.302851 130.98748 
L 485.663045 129.103118 
L 486.023238 134.023714 
L 486.383432 148.108774 
L 487.103819 181.850933 
L 487.464013 191.115776 
L 487.824207 194.017354 
L 488.544594 172.223893 
L 488.904788 166.034163 
L 489.264981 157.565203 
L 489.625175 158.190154 
L 489.985368 163.659751 
L 491.065949 213.095218 
L 491.426143 215.875142 
L 491.786337 212.228207 
L 492.14653 211.49487 
L 492.866918 171.076734 
L 493.587305 131.09973 
L 493.947499 119.975669 
L 494.667886 132.436508 
L 495.02808 143.932341 
L 495.388273 162.16195 
L 495.748467 166.671856 
L 496.108661 175.341836 
L 496.468854 177.428802 
L 496.829048 176.323924 
L 497.549435 155.295753 
L 497.909629 149.113362 
L 498.269822 157.012827 
L 498.630016 158.66777 
L 498.99021 173.306799 
L 499.350403 179.818819 
L 499.710597 197.931027 
L 500.070791 201.842908 
L 500.430984 203.497604 
L 500.791178 193.256429 
L 501.151372 179.400685 
L 501.511565 149.258395 
L 501.871759 136.998788 
L 502.592146 105.63211 
L 503.312534 117.093793 
L 503.672727 125.455272 
L 504.393115 157.054741 
L 504.753308 163.760699 
L 505.113502 163.205013 
L 505.473696 158.364802 
L 505.833889 151.837305 
L 506.194083 139.540858 
L 506.554276 133.458664 
L 506.91447 139.787342 
L 507.274664 139.011059 
L 507.634857 161.077907 
L 507.995051 165.081095 
L 508.355245 182.581425 
L 508.715438 184.317468 
L 509.075632 184.114908 
L 509.435826 180.062069 
L 510.516407 123.217992 
L 511.236794 89.929217 
L 511.596988 95.792114 
L 511.957181 103.575742 
L 512.317375 114.499527 
L 513.037762 145.904924 
L 513.397956 152.489728 
L 513.75815 152.420714 
L 514.118343 149.657811 
L 514.478537 139.431803 
L 514.838731 136.738401 
L 515.198924 135.289302 
L 515.559118 128.840858 
L 515.919311 131.218466 
L 516.999892 176.036368 
L 517.360086 185.693852 
L 517.72028 189.202244 
L 518.440667 164.566718 
L 519.521248 108.387966 
L 519.881442 90.299273 
L 520.241635 93.335557 
L 520.601829 104.840829 
L 520.962023 121.238849 
L 521.322216 130.62501 
L 521.68241 147.256177 
L 522.042604 157.209121 
L 522.402797 155.318107 
L 522.762991 150.360771 
L 523.483378 132.412207 
L 523.843572 130.095473 
L 524.203765 130.183665 
L 524.563959 140.099046 
L 525.64454 178.510787 
L 526.004734 189.026099 
L 526.364927 188.526335 
L 527.085315 167.809175 
L 527.445508 143.32302 
L 528.165896 114.696483 
L 528.526089 107.187612 
L 528.886283 108.096025 
L 530.327058 160.500042 
L 530.687251 161.507092 
L 531.047445 165.311542 
L 531.407639 165.517958 
L 531.767832 154.732327 
L 532.128026 148.725665 
L 532.488219 144.862575 
L 533.208607 152.683534 
L 533.928994 185.500706 
L 534.649381 206.829765 
L 535.009575 209.388872 
L 535.369769 199.501099 
L 536.45035 143.559425 
L 537.170737 122.648235 
L 537.530931 118.442596 
L 537.891124 127.114287 
L 538.251318 145.240102 
L 538.611512 156.140607 
L 539.331899 180.621106 
L 539.692093 192.234476 
L 540.052286 174.736712 
L 540.41248 174.636617 
L 540.772673 161.291036 
L 541.132867 159.265854 
L 541.853254 167.620591 
L 542.573642 194.775652 
L 543.294029 219.276951 
L 543.654223 217.776842 
L 544.014416 207.25268 
L 545.094997 157.034326 
L 545.815385 127.809289 
L 546.175578 128.609244 
L 546.535772 135.850208 
L 546.895966 154.189198 
L 547.256159 161.404378 
L 547.616353 170.873333 
L 547.976547 188.58328 
L 548.33674 185.339588 
L 548.696934 185.149759 
L 549.057127 177.450305 
L 549.417321 163.062201 
L 549.777515 162.177928 
L 550.137708 166.714685 
L 550.497902 167.379161 
L 550.858096 177.752728 
L 551.578483 210.231867 
L 551.938677 218.533756 
L 552.29887 214.491104 
L 552.659064 208.871172 
L 554.099839 135.241829 
L 554.460032 125.724605 
L 554.820226 123.124179 
L 555.18042 135.494719 
L 555.540613 141.393786 
L 556.261001 173.747226 
L 556.621194 182.600012 
L 556.981388 177.728989 
L 557.341581 170.425123 
L 557.701775 171.420938 
L 558.061969 156.393262 
L 558.422162 150.19537 
L 558.782356 152.83495 
L 559.14255 158.58555 
L 560.583324 204.626043 
L 560.943518 202.339288 
L 561.303712 195.473454 
L 562.744486 116.234056 
L 563.10468 111.209631 
L 563.464874 108.683694 
L 564.185261 127.077522 
L 564.545455 148.404286 
L 564.905648 152.219654 
L 565.265842 164.277152 
L 565.626036 166.649234 
L 565.986229 158.91374 
L 566.346423 146.890618 
L 566.706616 144.06006 
L 567.06681 133.190662 
L 568.147391 153.459709 
L 568.867778 181.849654 
L 569.227972 190.317825 
L 569.588166 188.143892 
L 569.948359 176.111333 
L 570.308553 167.98636 
L 570.668747 145.69519 
L 571.02894 132.831257 
L 571.389134 113.003409 
L 571.749328 111.05688 
L 572.109521 110.621785 
L 572.829909 124.561879 
L 573.550296 149.933541 
L 574.270683 156.751219 
L 574.630877 150.77116 
L 574.99107 148.515875 
L 575.351264 144.540116 
L 576.071651 140.326329 
L 576.431845 142.279071 
L 576.792039 152.474102 
L 577.512426 183.738834 
L 577.87262 187.497777 
L 578.232813 189.095497 
L 579.313394 154.740024 
L 580.033782 121.76244 
L 580.393975 117.5166 
L 580.754169 122.868596 
L 581.114363 121.632215 
L 581.83475 147.446937 
L 582.194944 159.210894 
L 582.555137 162.926766 
L 582.915331 172.014098 
L 583.995912 150.922377 
L 584.356105 151.034664 
L 584.716299 149.507558 
L 585.076493 156.333795 
L 585.436686 166.89846 
L 586.157074 195.212935 
L 586.517267 197.799265 
L 586.877461 199.172334 
L 587.597848 182.313903 
L 588.678429 138.038078 
L 589.038623 131.04723 
L 589.75901 144.738151 
L 590.119204 150.355866 
L 591.199785 186.540536 
L 591.559978 185.653307 
L 591.920172 182.766994 
L 592.640559 171.414462 
L 593.000753 165.200059 
L 593.360947 175.052913 
L 593.72114 176.813801 
L 594.081334 184.202741 
L 594.441528 200.012926 
L 595.161915 217.684612 
L 595.522109 223.340816 
L 596.242496 202.291335 
L 596.60269 184.974636 
L 596.962883 173.671363 
L 597.323077 153.998092 
L 597.683271 155.565086 
L 598.043464 156.526985 
L 598.403658 161.458215 
L 598.763852 169.407617 
L 599.124045 186.721101 
L 599.484239 195.631078 
L 599.844432 200.080756 
L 600.204626 206.670576 
L 600.56482 199.905617 
L 600.925013 196.676113 
L 601.285207 185.460161 
L 601.645401 186.72135 
L 602.005594 185.400578 
L 603.446369 225.332729 
L 603.806563 229.047575 
L 604.166756 230.884033 
L 604.52695 229.565974 
L 604.887144 221.640838 
L 605.607531 187.442821 
L 605.967725 175.869086 
L 606.688112 165.687072 
L 607.048306 173.081585 
L 607.768693 201.616998 
L 608.128886 205.014592 
L 608.48908 163.739581 
L 608.849274 214.124286 
L 609.209467 208.848491 
L 609.929855 201.733769 
L 610.290048 201.054023 
L 610.650242 199.111061 
L 611.010436 202.726368 
L 611.370629 216.737606 
L 611.730823 223.360741 
L 612.45121 244.032211 
L 612.811404 242.70697 
L 613.171598 237.643484 
L 613.531791 227.698945 
L 614.252179 191.338953 
L 614.612372 174.638098 
L 614.972566 173.760701 
L 615.33276 170.71446 
L 615.692953 174.211007 
L 616.773534 214.112858 
L 617.493921 216.183075 
L 617.854115 213.167277 
L 618.214309 201.932996 
L 618.574502 196.065596 
L 618.934696 194.444642 
L 619.655083 204.600807 
L 620.015277 210.498692 
L 620.735664 234.844252 
L 621.095858 238.918016 
L 621.456052 241.257067 
L 621.816245 234.280153 
L 622.536633 205.066924 
L 623.25702 172.852108 
L 623.617214 170.441791 
L 623.977407 159.012974 
L 625.418182 207.072099 
L 625.778375 208.744403 
L 626.138569 209.877029 
L 626.498763 210.553027 
L 626.858956 203.990517 
L 627.21915 194.278722 
L 627.579344 192.878734 
L 627.939537 195.27461 
L 628.299731 196.485712 
L 628.659925 211.790979 
L 629.020118 219.973711 
L 629.380312 230.85244 
L 629.740506 234.604493 
L 630.100699 234.469423 
L 630.460893 230.438035 
L 631.901668 170.855113 
L 632.261861 165.344855 
L 632.622055 162.954607 
L 632.982249 173.996792 
L 633.342442 180.798494 
L 634.062829 206.071494 
L 634.423023 211.025759 
L 634.783217 210.591875 
L 635.14341 210.804153 
L 635.503604 199.781088 
L 635.863798 199.075278 
L 636.584185 187.205095 
L 636.944379 204.07339 
L 637.304572 208.97298 
L 638.02496 234.27699 
L 638.385153 242.284062 
L 638.745347 242.707027 
L 639.825928 206.218791 
L 640.186122 189.743862 
L 640.546315 178.469047 
L 640.906509 171.697081 
L 641.266703 171.930343 
L 641.626896 177.546448 
L 642.347283 202.697096 
L 643.067671 219.915321 
L 643.427864 223.373105 
L 643.788058 221.909302 
L 644.508445 205.060077 
L 644.868639 202.074331 
L 645.228833 202.30196 
L 645.589026 210.788702 
L 646.669607 246.89925 
L 647.389995 257.163289 
L 647.750188 249.562586 
L 649.190963 193.098659 
L 649.551157 189.763592 
L 649.91135 188.092197 
L 650.991931 215.35568 
L 651.352125 232.727852 
L 651.712318 239.562169 
L 652.072512 238.087549 
L 652.432706 240.782117 
L 653.153093 224.690792 
L 653.513287 223.052591 
L 653.87348 224.568674 
L 654.233674 229.532408 
L 655.314255 267.114503 
L 655.674449 273.176643 
L 656.034642 275.568044 
L 656.394836 268.407858 
L 657.115223 245.448884 
L 657.475417 233.461354 
L 657.835611 216.936897 
L 658.195804 210.753907 
L 658.555998 210.465701 
L 658.916192 218.061255 
L 659.636579 243.192417 
L 659.996772 249.497355 
L 660.356966 258.249586 
L 660.71716 257.519196 
L 661.077353 253.010219 
L 661.437547 254.64856 
L 661.797741 245.867207 
L 662.157934 241.632665 
L 662.518128 243.614924 
L 663.238515 262.041492 
L 663.598709 265.708707 
L 663.958903 282.767419 
L 664.319096 292.957791 
L 664.67929 293.153451 
L 665.039484 285.842078 
L 665.399677 273.90366 
L 666.480258 228.772179 
L 666.840452 221.57352 
L 667.560839 225.345072 
L 668.64142 265.154635 
L 669.001614 270.390858 
L 669.361807 269.376065 
L 669.722001 266.493105 
L 670.802582 246.897335 
L 671.162776 256.714912 
L 671.522969 255.479304 
L 671.883163 264.844457 
L 672.243357 281.070861 
L 672.60355 291.430602 
L 672.963744 297.77543 
L 673.684131 285.805321 
L 674.044325 277.805446 
L 674.764712 242.91355 
L 675.124906 236.63108 
L 675.4851 226.190901 
L 675.845293 230.547377 
L 676.205487 231.793525 
L 676.56568 241.256738 
L 676.925874 256.486377 
L 677.286068 265.390651 
L 677.646261 265.997761 
L 678.006455 273.805663 
L 678.366649 263.159214 
L 678.726842 258.866155 
L 679.087036 251.995117 
L 679.44723 252.457739 
L 679.807423 257.305186 
L 680.167617 252.88746 
L 680.888004 278.907336 
L 681.608392 293.963523 
L 681.968585 294.80423 
L 682.688973 274.622469 
L 683.40936 241.608498 
L 684.129747 219.096543 
L 684.850134 231.10931 
L 685.210328 235.960003 
L 686.290909 265.208434 
L 686.651103 265.365992 
L 687.011296 264.443878 
L 687.37149 260.164723 
L 687.731684 249.720564 
L 688.091877 246.32113 
L 688.452071 250.014508 
L 688.812265 250.932079 
L 689.532652 274.907195 
L 690.253039 291.277093 
L 690.613233 293.777638 
L 690.973427 285.389141 
L 691.693814 256.113821 
L 692.414201 225.972211 
L 692.774395 221.446964 
L 693.134588 219.127545 
L 693.494782 227.012347 
L 694.215169 248.969012 
L 694.575363 257.085275 
L 694.935557 268.151281 
L 696.376331 251.790947 
L 696.736525 241.35311 
L 697.096719 245.387916 
L 698.1773 276.090976 
L 698.537493 287.125943 
L 699.257881 296.260947 
L 699.618074 290.559355 
L 700.338462 260.86827 
L 701.058849 231.097242 
L 701.419042 226.685653 
L 701.779236 226.552285 
L 702.13943 229.28814 
L 703.220011 273.455088 
L 703.580204 269.76688 
L 703.940398 278.82864 
L 704.300592 269.997549 
L 704.660785 267.04771 
L 705.020979 260.661922 
L 705.381173 260.800857 
L 706.10156 265.092082 
L 706.461754 275.443311 
L 707.182141 302.739767 
L 707.542335 307.036915 
L 707.902528 309.599277 
L 708.262722 302.660031 
L 708.983109 274.914004 
L 709.703497 247.359012 
L 710.06369 245.878078 
L 710.423884 245.180118 
L 711.504465 274.554104 
L 711.864658 287.603496 
L 712.224852 296.495365 
L 712.585046 291.068261 
L 712.945239 290.605667 
L 714.02582 274.865323 
L 714.386014 277.714098 
L 714.746208 285.986309 
L 715.466595 313.93938 
L 715.826789 369.36 
L 716.186982 330.532829 
L 716.547176 329.485841 
L 716.90737 326.875605 
L 717.267563 315.986855 
L 717.627757 294.611938 
L 717.987951 284.464689 
L 718.348144 262.878516 
L 718.708338 261.325019 
L 719.068531 264.724603 
L 719.428725 273.037376 
L 720.149112 295.479587 
L 720.8695 310.266949 
L 721.229693 313.11058 
L 721.950081 301.004335 
L 722.310274 296.385534 
L 722.670468 295.226599 
L 723.030662 295.687713 
L 723.390855 297.877907 
L 724.111243 327.140286 
L 724.83163 344.765919 
L 725.191824 349.911136 
L 726.272405 313.1132 
L 726.992792 288.287298 
L 727.352985 275.497963 
L 727.713179 278.411389 
L 728.073373 282.601502 
L 729.514147 324.815691 
L 729.874341 328.266993 
L 730.234535 319.730651 
L 730.594728 317.888017 
L 730.954922 310.755811 
L 731.315116 308.690807 
L 731.675309 308.748433 
L 732.395697 319.146267 
L 732.75589 328.27648 
L 733.116084 348.273449 
L 733.476278 348.92681 
L 733.836471 351.949918 
L 734.196665 345.249581 
L 734.917052 318.339299 
L 735.637439 284.579984 
L 735.997633 280.641552 
L 736.357827 279.325988 
L 737.078214 294.662136 
L 737.438408 311.122352 
L 738.158795 326.608831 
L 738.518989 324.756686 
L 738.879182 315.404578 
L 739.239376 313.137727 
L 739.59957 305.655273 
L 739.959763 308.123344 
L 740.319957 304.048689 
L 741.760732 347.177777 
L 742.120925 350.070365 
L 742.481119 351.314653 
L 742.841313 342.558976 
L 743.201506 329.596052 
L 743.201506 329.596052 
" style="fill:none;stroke:#1f77b4;stroke-linecap:square;stroke-width:1.5;"/>
   </g>
   <g id="line2d_16">
    <path clip-path="url(#pb2aa366823)" d="M 747.163636 384.48 
L 747.163636 51.84 
" style="fill:none;stroke:#808080;stroke-linecap:square;"/>
   </g>
   <g id="patch_106">
    <path d="M 108 384.48 
L 108 51.84 
" style="fill:none;stroke:#000000;stroke-linecap:square;stroke-linejoin:miter;stroke-width:0.8;"/>
   </g>
   <g id="patch_107">
    <path d="M 777.6 384.48 
L 777.6 51.84 
" style="fill:none;stroke:#000000;stroke-linecap:square;stroke-linejoin:miter;stroke-width:0.8;"/>
   </g>
   <g id="patch_108">
    <path d="M 108 384.48 
L 777.6 384.48 
" style="fill:none;stroke:#000000;stroke-linecap:square;stroke-linejoin:miter;stroke-width:0.8;"/>
   </g>
   <g id="patch_109">
    <path d="M 108 51.84 
L 777.6 51.84 
" style="fill:none;stroke:#000000;stroke-linecap:square;stroke-linejoin:miter;stroke-width:0.8;"/>
   </g>
   <g id="text_17">
    <!-- A4Benchmark-TS60.csv -->
    <defs>
     <path d="M 34.1875 63.1875 
L 20.796875 26.90625 
L 47.609375 26.90625 
z
M 28.609375 72.90625 
L 39.796875 72.90625 
L 67.578125 0 
L 57.328125 0 
L 50.6875 18.703125 
L 17.828125 18.703125 
L 11.1875 0 
L 0.78125 0 
z
" id="DejaVuSans-65"/>
     <path d="M 37.796875 64.3125 
L 12.890625 25.390625 
L 37.796875 25.390625 
z
M 35.203125 72.90625 
L 47.609375 72.90625 
L 47.609375 25.390625 
L 58.015625 25.390625 
L 58.015625 17.1875 
L 47.609375 17.1875 
L 47.609375 0 
L 37.796875 0 
L 37.796875 17.1875 
L 4.890625 17.1875 
L 4.890625 26.703125 
z
" id="DejaVuSans-52"/>
     <path d="M 19.671875 34.8125 
L 19.671875 8.109375 
L 35.5 8.109375 
Q 43.453125 8.109375 47.28125 11.40625 
Q 51.125 14.703125 51.125 21.484375 
Q 51.125 28.328125 47.28125 31.5625 
Q 43.453125 34.8125 35.5 34.8125 
z
M 19.671875 64.796875 
L 19.671875 42.828125 
L 34.28125 42.828125 
Q 41.5 42.828125 45.03125 45.53125 
Q 48.578125 48.25 48.578125 53.8125 
Q 48.578125 59.328125 45.03125 62.0625 
Q 41.5 64.796875 34.28125 64.796875 
z
M 9.8125 72.90625 
L 35.015625 72.90625 
Q 46.296875 72.90625 52.390625 68.21875 
Q 58.5 63.53125 58.5 54.890625 
Q 58.5 48.1875 55.375 44.234375 
Q 52.25 40.28125 46.1875 39.3125 
Q 53.46875 37.75 57.5 32.78125 
Q 61.53125 27.828125 61.53125 20.40625 
Q 61.53125 10.640625 54.890625 5.3125 
Q 48.25 0 35.984375 0 
L 9.8125 0 
z
" id="DejaVuSans-66"/>
     <path d="M 54.890625 33.015625 
L 54.890625 0 
L 45.90625 0 
L 45.90625 32.71875 
Q 45.90625 40.484375 42.875 44.328125 
Q 39.84375 48.1875 33.796875 48.1875 
Q 26.515625 48.1875 22.3125 43.546875 
Q 18.109375 38.921875 18.109375 30.90625 
L 18.109375 0 
L 9.078125 0 
L 9.078125 54.6875 
L 18.109375 54.6875 
L 18.109375 46.1875 
Q 21.34375 51.125 25.703125 53.5625 
Q 30.078125 56 35.796875 56 
Q 45.21875 56 50.046875 50.171875 
Q 54.890625 44.34375 54.890625 33.015625 
z
" id="DejaVuSans-110"/>
     <path d="M 48.78125 52.59375 
L 48.78125 44.1875 
Q 44.96875 46.296875 41.140625 47.34375 
Q 37.3125 48.390625 33.40625 48.390625 
Q 24.65625 48.390625 19.8125 42.84375 
Q 14.984375 37.3125 14.984375 27.296875 
Q 14.984375 17.28125 19.8125 11.734375 
Q 24.65625 6.203125 33.40625 6.203125 
Q 37.3125 6.203125 41.140625 7.25 
Q 44.96875 8.296875 48.78125 10.40625 
L 48.78125 2.09375 
Q 45.015625 0.34375 40.984375 -0.53125 
Q 36.96875 -1.421875 32.421875 -1.421875 
Q 20.0625 -1.421875 12.78125 6.34375 
Q 5.515625 14.109375 5.515625 27.296875 
Q 5.515625 40.671875 12.859375 48.328125 
Q 20.21875 56 33.015625 56 
Q 37.15625 56 41.109375 55.140625 
Q 45.0625 54.296875 48.78125 52.59375 
z
" id="DejaVuSans-99"/>
     <path d="M 54.890625 33.015625 
L 54.890625 0 
L 45.90625 0 
L 45.90625 32.71875 
Q 45.90625 40.484375 42.875 44.328125 
Q 39.84375 48.1875 33.796875 48.1875 
Q 26.515625 48.1875 22.3125 43.546875 
Q 18.109375 38.921875 18.109375 30.90625 
L 18.109375 0 
L 9.078125 0 
L 9.078125 75.984375 
L 18.109375 75.984375 
L 18.109375 46.1875 
Q 21.34375 51.125 25.703125 53.5625 
Q 30.078125 56 35.796875 56 
Q 45.21875 56 50.046875 50.171875 
Q 54.890625 44.34375 54.890625 33.015625 
z
" id="DejaVuSans-104"/>
     <path d="M 41.109375 46.296875 
Q 39.59375 47.171875 37.8125 47.578125 
Q 36.03125 48 33.890625 48 
Q 26.265625 48 22.1875 43.046875 
Q 18.109375 38.09375 18.109375 28.8125 
L 18.109375 0 
L 9.078125 0 
L 9.078125 54.6875 
L 18.109375 54.6875 
L 18.109375 46.1875 
Q 20.953125 51.171875 25.484375 53.578125 
Q 30.03125 56 36.53125 56 
Q 37.453125 56 38.578125 55.875 
Q 39.703125 55.765625 41.0625 55.515625 
z
" id="DejaVuSans-114"/>
     <path d="M 9.078125 75.984375 
L 18.109375 75.984375 
L 18.109375 31.109375 
L 44.921875 54.6875 
L 56.390625 54.6875 
L 27.390625 29.109375 
L 57.625 0 
L 45.90625 0 
L 18.109375 26.703125 
L 18.109375 0 
L 9.078125 0 
z
" id="DejaVuSans-107"/>
     <path d="M 4.890625 31.390625 
L 31.203125 31.390625 
L 31.203125 23.390625 
L 4.890625 23.390625 
z
" id="DejaVuSans-45"/>
     <path d="M 53.515625 70.515625 
L 53.515625 60.890625 
Q 47.90625 63.578125 42.921875 64.890625 
Q 37.9375 66.21875 33.296875 66.21875 
Q 25.25 66.21875 20.875 63.09375 
Q 16.5 59.96875 16.5 54.203125 
Q 16.5 49.359375 19.40625 46.890625 
Q 22.3125 44.4375 30.421875 42.921875 
L 36.375 41.703125 
Q 47.40625 39.59375 52.65625 34.296875 
Q 57.90625 29 57.90625 20.125 
Q 57.90625 9.515625 50.796875 4.046875 
Q 43.703125 -1.421875 29.984375 -1.421875 
Q 24.8125 -1.421875 18.96875 -0.25 
Q 13.140625 0.921875 6.890625 3.21875 
L 6.890625 13.375 
Q 12.890625 10.015625 18.65625 8.296875 
Q 24.421875 6.59375 29.984375 6.59375 
Q 38.421875 6.59375 43.015625 9.90625 
Q 47.609375 13.234375 47.609375 19.390625 
Q 47.609375 24.75 44.3125 27.78125 
Q 41.015625 30.8125 33.5 32.328125 
L 27.484375 33.5 
Q 16.453125 35.6875 11.515625 40.375 
Q 6.59375 45.0625 6.59375 53.421875 
Q 6.59375 63.09375 13.40625 68.65625 
Q 20.21875 74.21875 32.171875 74.21875 
Q 37.3125 74.21875 42.625 73.28125 
Q 47.953125 72.359375 53.515625 70.515625 
z
" id="DejaVuSans-83"/>
     <path d="M 33.015625 40.375 
Q 26.375 40.375 22.484375 35.828125 
Q 18.609375 31.296875 18.609375 23.390625 
Q 18.609375 15.53125 22.484375 10.953125 
Q 26.375 6.390625 33.015625 6.390625 
Q 39.65625 6.390625 43.53125 10.953125 
Q 47.40625 15.53125 47.40625 23.390625 
Q 47.40625 31.296875 43.53125 35.828125 
Q 39.65625 40.375 33.015625 40.375 
z
M 52.59375 71.296875 
L 52.59375 62.3125 
Q 48.875 64.0625 45.09375 64.984375 
Q 41.3125 65.921875 37.59375 65.921875 
Q 27.828125 65.921875 22.671875 59.328125 
Q 17.53125 52.734375 16.796875 39.40625 
Q 19.671875 43.65625 24.015625 45.921875 
Q 28.375 48.1875 33.59375 48.1875 
Q 44.578125 48.1875 50.953125 41.515625 
Q 57.328125 34.859375 57.328125 23.390625 
Q 57.328125 12.15625 50.6875 5.359375 
Q 44.046875 -1.421875 33.015625 -1.421875 
Q 20.359375 -1.421875 13.671875 8.265625 
Q 6.984375 17.96875 6.984375 36.375 
Q 6.984375 53.65625 15.1875 63.9375 
Q 23.390625 74.21875 37.203125 74.21875 
Q 40.921875 74.21875 44.703125 73.484375 
Q 48.484375 72.75 52.59375 71.296875 
z
" id="DejaVuSans-54"/>
     <path d="M 10.6875 12.40625 
L 21 12.40625 
L 21 0 
L 10.6875 0 
z
" id="DejaVuSans-46"/>
     <path d="M 2.984375 54.6875 
L 12.5 54.6875 
L 29.59375 8.796875 
L 46.6875 54.6875 
L 56.203125 54.6875 
L 35.6875 0 
L 23.484375 0 
z
" id="DejaVuSans-118"/>
    </defs>
    <g transform="translate(371.555625 45.84)scale(0.12 -0.12)">
     <use xlink:href="#DejaVuSans-65"/>
     <use x="68.408203" xlink:href="#DejaVuSans-52"/>
     <use x="132.03125" xlink:href="#DejaVuSans-66"/>
     <use x="200.634766" xlink:href="#DejaVuSans-101"/>
     <use x="262.158203" xlink:href="#DejaVuSans-110"/>
     <use x="325.537109" xlink:href="#DejaVuSans-99"/>
     <use x="380.517578" xlink:href="#DejaVuSans-104"/>
     <use x="443.896484" xlink:href="#DejaVuSans-109"/>
     <use x="541.308594" xlink:href="#DejaVuSans-97"/>
     <use x="602.587891" xlink:href="#DejaVuSans-114"/>
     <use x="643.701172" xlink:href="#DejaVuSans-107"/>
     <use x="701.611328" xlink:href="#DejaVuSans-45"/>
     <use x="737.554688" xlink:href="#DejaVuSans-84"/>
     <use x="798.638672" xlink:href="#DejaVuSans-83"/>
     <use x="862.115234" xlink:href="#DejaVuSans-54"/>
     <use x="925.738281" xlink:href="#DejaVuSans-48"/>
     <use x="989.361328" xlink:href="#DejaVuSans-46"/>
     <use x="1021.148438" xlink:href="#DejaVuSans-99"/>
     <use x="1076.128906" xlink:href="#DejaVuSans-115"/>
     <use x="1128.228516" xlink:href="#DejaVuSans-118"/>
    </g>
   </g>
   <g id="legend_1">
    <g id="patch_110">
     <path d="M 711.284375 74.518125 
L 770.6 74.518125 
Q 772.6 74.518125 772.6 72.518125 
L 772.6 58.84 
Q 772.6 56.84 770.6 56.84 
L 711.284375 56.84 
Q 709.284375 56.84 709.284375 58.84 
L 709.284375 72.518125 
Q 709.284375 74.518125 711.284375 74.518125 
z
" style="fill:#ffffff;opacity:0.8;stroke:#cccccc;stroke-linejoin:miter;"/>
    </g>
    <g id="line2d_17">
     <path d="M 713.284375 64.938438 
L 733.284375 64.938438 
" style="fill:none;stroke:#1f77b4;stroke-linecap:square;stroke-width:1.5;"/>
    </g>
    <g id="line2d_18"/>
    <g id="text_18">
     <!-- value -->
     <g transform="translate(741.284375 68.438438)scale(0.1 -0.1)">
      <use xlink:href="#DejaVuSans-118"/>
      <use x="59.179688" xlink:href="#DejaVuSans-97"/>
      <use x="120.458984" xlink:href="#DejaVuSans-108"/>
      <use x="148.242188" xlink:href="#DejaVuSans-117"/>
      <use x="211.621094" xlink:href="#DejaVuSans-101"/>
     </g>
    </g>
   </g>
  </g>
 </g>
 <defs>
  <clipPath id="pb2aa366823">
   <rect height="332.64" width="669.6" x="108" y="51.84"/>
  </clipPath>
 </defs>
</svg>
