<?xml version="1.0" encoding="utf-8" standalone="no"?>
<!DOCTYPE svg PUBLIC "-//W3C//DTD SVG 1.1//EN"
  "http://www.w3.org/Graphics/SVG/1.1/DTD/svg11.dtd">
<!-- Created with matplotlib (https://matplotlib.org/) -->
<svg height="432pt" version="1.1" viewBox="0 0 864 432" width="864pt" xmlns="http://www.w3.org/2000/svg" xmlns:xlink="http://www.w3.org/1999/xlink">
 <defs>
  <style type="text/css">
*{stroke-linecap:butt;stroke-linejoin:round;}
  </style>
 </defs>
 <g id="figure_1">
  <g id="patch_1">
   <path d="M 0 432 
L 864 432 
L 864 0 
L 0 0 
z
" style="fill:#ffffff;"/>
  </g>
  <g id="axes_1">
   <g id="patch_2">
    <path d="M 108 384.48 
L 777.6 384.48 
L 777.6 51.84 
L 108 51.84 
z
" style="fill:#ffffff;"/>
   </g>
   <g id="patch_3">
    <path clip-path="url(#paa1932e849)" d="M 138.436364 384.48 
L 138.436364 51.84 
L 440.999032 51.84 
L 440.999032 384.48 
z
" style="fill:#0000ff;opacity:0.05;"/>
   </g>
   <g id="patch_4">
    <path clip-path="url(#paa1932e849)" d="M 440.999032 384.48 
L 440.999032 51.84 
L 747.163636 51.84 
L 747.163636 384.48 
z
" style="fill:#ff0000;opacity:0.08;"/>
   </g>
   <g id="patch_5">
    <path clip-path="url(#paa1932e849)" d="M 138.436364 384.48 
L 138.436364 51.84 
L 142.0383 51.84 
L 142.0383 384.48 
z
" style="fill:#008000;opacity:0.04;"/>
   </g>
   <g id="patch_6">
    <path clip-path="url(#paa1932e849)" d="M 145.640237 384.48 
L 145.640237 51.84 
L 149.242173 51.84 
L 149.242173 384.48 
z
" style="fill:#008000;opacity:0.04;"/>
   </g>
   <g id="patch_7">
    <path clip-path="url(#paa1932e849)" d="M 152.84411 384.48 
L 152.84411 51.84 
L 156.446046 51.84 
L 156.446046 384.48 
z
" style="fill:#008000;opacity:0.04;"/>
   </g>
   <g id="patch_8">
    <path clip-path="url(#paa1932e849)" d="M 160.047983 384.48 
L 160.047983 51.84 
L 163.649919 51.84 
L 163.649919 384.48 
z
" style="fill:#008000;opacity:0.04;"/>
   </g>
   <g id="patch_9">
    <path clip-path="url(#paa1932e849)" d="M 167.251856 384.48 
L 167.251856 51.84 
L 170.853792 51.84 
L 170.853792 384.48 
z
" style="fill:#008000;opacity:0.04;"/>
   </g>
   <g id="patch_10">
    <path clip-path="url(#paa1932e849)" d="M 174.455729 384.48 
L 174.455729 51.84 
L 178.057665 51.84 
L 178.057665 384.48 
z
" style="fill:#008000;opacity:0.04;"/>
   </g>
   <g id="patch_11">
    <path clip-path="url(#paa1932e849)" d="M 181.659602 384.48 
L 181.659602 51.84 
L 185.261538 51.84 
L 185.261538 384.48 
z
" style="fill:#008000;opacity:0.04;"/>
   </g>
   <g id="patch_12">
    <path clip-path="url(#paa1932e849)" d="M 185.261538 371.1744 
L 185.261538 51.84 
L 188.863475 51.84 
L 188.863475 371.1744 
z
" style="fill:#008000;opacity:0.5;"/>
   </g>
   <g id="patch_13">
    <path clip-path="url(#paa1932e849)" d="M 188.863475 384.48 
L 188.863475 51.84 
L 192.465412 51.84 
L 192.465412 384.48 
z
" style="fill:#008000;opacity:0.04;"/>
   </g>
   <g id="patch_14">
    <path clip-path="url(#paa1932e849)" d="M 196.067348 384.48 
L 196.067348 51.84 
L 199.669285 51.84 
L 199.669285 384.48 
z
" style="fill:#008000;opacity:0.04;"/>
   </g>
   <g id="patch_15">
    <path clip-path="url(#paa1932e849)" d="M 203.271221 384.48 
L 203.271221 51.84 
L 206.873158 51.84 
L 206.873158 384.48 
z
" style="fill:#008000;opacity:0.04;"/>
   </g>
   <g id="patch_16">
    <path clip-path="url(#paa1932e849)" d="M 509.435826 384.48 
L 509.435826 371.1744 
L 513.037762 371.1744 
L 513.037762 384.48 
z
" style="fill:#ff6600;"/>
   </g>
   <g id="patch_17">
    <path clip-path="url(#paa1932e849)" d="M 210.475094 384.48 
L 210.475094 51.84 
L 214.077031 51.84 
L 214.077031 384.48 
z
" style="fill:#008000;opacity:0.04;"/>
   </g>
   <g id="patch_18">
    <path clip-path="url(#paa1932e849)" d="M 217.678967 384.48 
L 217.678967 51.84 
L 221.280904 51.84 
L 221.280904 384.48 
z
" style="fill:#008000;opacity:0.04;"/>
   </g>
   <g id="patch_19">
    <path clip-path="url(#paa1932e849)" d="M 224.88284 384.48 
L 224.88284 51.84 
L 228.484777 51.84 
L 228.484777 384.48 
z
" style="fill:#008000;opacity:0.04;"/>
   </g>
   <g id="patch_20">
    <path clip-path="url(#paa1932e849)" d="M 228.484777 371.1744 
L 228.484777 51.84 
L 232.086713 51.84 
L 232.086713 371.1744 
z
" style="fill:#008000;opacity:0.5;"/>
   </g>
   <g id="patch_21">
    <path clip-path="url(#paa1932e849)" d="M 232.086713 384.48 
L 232.086713 51.84 
L 235.68865 51.84 
L 235.68865 384.48 
z
" style="fill:#008000;opacity:0.04;"/>
   </g>
   <g id="patch_22">
    <path clip-path="url(#paa1932e849)" d="M 235.68865 371.1744 
L 235.68865 357.8688 
L 239.290586 357.8688 
L 239.290586 371.1744 
z
" style="fill:#ff00ff;"/>
   </g>
   <g id="patch_23">
    <path clip-path="url(#paa1932e849)" d="M 538.251318 384.48 
L 538.251318 371.1744 
L 541.853254 371.1744 
L 541.853254 384.48 
z
" style="fill:#ff6600;"/>
   </g>
   <g id="patch_24">
    <path clip-path="url(#paa1932e849)" d="M 239.290586 384.48 
L 239.290586 51.84 
L 242.892523 51.84 
L 242.892523 384.48 
z
" style="fill:#008000;opacity:0.04;"/>
   </g>
   <g id="patch_25">
    <path clip-path="url(#paa1932e849)" d="M 246.494459 384.48 
L 246.494459 51.84 
L 250.096396 51.84 
L 250.096396 384.48 
z
" style="fill:#008000;opacity:0.04;"/>
   </g>
   <g id="patch_26">
    <path clip-path="url(#paa1932e849)" d="M 253.698332 384.48 
L 253.698332 51.84 
L 257.300269 51.84 
L 257.300269 384.48 
z
" style="fill:#008000;opacity:0.04;"/>
   </g>
   <g id="patch_27">
    <path clip-path="url(#paa1932e849)" d="M 257.300269 384.48 
L 257.300269 371.1744 
L 260.902205 371.1744 
L 260.902205 384.48 
z
" style="fill:#ffe500;"/>
   </g>
   <g id="patch_28">
    <path clip-path="url(#paa1932e849)" d="M 260.902205 384.48 
L 260.902205 51.84 
L 264.504142 51.84 
L 264.504142 384.48 
z
" style="fill:#008000;opacity:0.04;"/>
   </g>
   <g id="patch_29">
    <path clip-path="url(#paa1932e849)" d="M 268.106079 384.48 
L 268.106079 51.84 
L 271.708015 51.84 
L 271.708015 384.48 
z
" style="fill:#008000;opacity:0.04;"/>
   </g>
   <g id="patch_30">
    <path clip-path="url(#paa1932e849)" d="M 275.309952 384.48 
L 275.309952 51.84 
L 278.911888 51.84 
L 278.911888 384.48 
z
" style="fill:#008000;opacity:0.04;"/>
   </g>
   <g id="patch_31">
    <path clip-path="url(#paa1932e849)" d="M 275.309952 384.48 
L 275.309952 371.1744 
L 278.911888 371.1744 
L 278.911888 384.48 
z
" style="fill:#ffe500;"/>
   </g>
   <g id="patch_32">
    <path clip-path="url(#paa1932e849)" d="M 282.513825 384.48 
L 282.513825 51.84 
L 286.115761 51.84 
L 286.115761 384.48 
z
" style="fill:#008000;opacity:0.04;"/>
   </g>
   <g id="patch_33">
    <path clip-path="url(#paa1932e849)" d="M 289.717698 384.48 
L 289.717698 51.84 
L 293.319634 51.84 
L 293.319634 384.48 
z
" style="fill:#008000;opacity:0.04;"/>
   </g>
   <g id="patch_34">
    <path clip-path="url(#paa1932e849)" d="M 293.319634 371.1744 
L 293.319634 51.84 
L 296.921571 51.84 
L 296.921571 371.1744 
z
" style="fill:#008000;opacity:0.5;"/>
   </g>
   <g id="patch_35">
    <path clip-path="url(#paa1932e849)" d="M 293.319634 384.48 
L 293.319634 371.1744 
L 296.921571 371.1744 
L 296.921571 384.48 
z
" style="fill:#ffe500;"/>
   </g>
   <g id="patch_36">
    <path clip-path="url(#paa1932e849)" d="M 296.921571 384.48 
L 296.921571 51.84 
L 300.523507 51.84 
L 300.523507 384.48 
z
" style="fill:#008000;opacity:0.04;"/>
   </g>
   <g id="patch_37">
    <path clip-path="url(#paa1932e849)" d="M 304.125444 384.48 
L 304.125444 51.84 
L 307.72738 51.84 
L 307.72738 384.48 
z
" style="fill:#008000;opacity:0.04;"/>
   </g>
   <g id="patch_38">
    <path clip-path="url(#paa1932e849)" d="M 311.329317 384.48 
L 311.329317 51.84 
L 314.931253 51.84 
L 314.931253 384.48 
z
" style="fill:#008000;opacity:0.04;"/>
   </g>
   <g id="patch_39">
    <path clip-path="url(#paa1932e849)" d="M 318.53319 384.48 
L 318.53319 51.84 
L 322.135126 51.84 
L 322.135126 384.48 
z
" style="fill:#008000;opacity:0.04;"/>
   </g>
   <g id="patch_40">
    <path clip-path="url(#paa1932e849)" d="M 318.53319 384.48 
L 318.53319 371.1744 
L 322.135126 371.1744 
L 322.135126 384.48 
z
" style="fill:#ffe500;"/>
   </g>
   <g id="patch_41">
    <path clip-path="url(#paa1932e849)" d="M 325.737063 384.48 
L 325.737063 51.84 
L 329.338999 51.84 
L 329.338999 384.48 
z
" style="fill:#008000;opacity:0.04;"/>
   </g>
   <g id="patch_42">
    <path clip-path="url(#paa1932e849)" d="M 332.940936 384.48 
L 332.940936 51.84 
L 336.542873 51.84 
L 336.542873 384.48 
z
" style="fill:#008000;opacity:0.04;"/>
   </g>
   <g id="patch_43">
    <path clip-path="url(#paa1932e849)" d="M 340.144809 384.48 
L 340.144809 51.84 
L 343.746746 51.84 
L 343.746746 384.48 
z
" style="fill:#008000;opacity:0.04;"/>
   </g>
   <g id="patch_44">
    <path clip-path="url(#paa1932e849)" d="M 347.348682 384.48 
L 347.348682 51.84 
L 350.950619 51.84 
L 350.950619 384.48 
z
" style="fill:#008000;opacity:0.04;"/>
   </g>
   <g id="patch_45">
    <path clip-path="url(#paa1932e849)" d="M 354.552555 384.48 
L 354.552555 51.84 
L 358.154492 51.84 
L 358.154492 384.48 
z
" style="fill:#008000;opacity:0.04;"/>
   </g>
   <g id="patch_46">
    <path clip-path="url(#paa1932e849)" d="M 361.756428 384.48 
L 361.756428 51.84 
L 365.358365 51.84 
L 365.358365 384.48 
z
" style="fill:#008000;opacity:0.04;"/>
   </g>
   <g id="patch_47">
    <path clip-path="url(#paa1932e849)" d="M 361.756428 384.48 
L 361.756428 371.1744 
L 365.358365 371.1744 
L 365.358365 384.48 
z
" style="fill:#ffe500;"/>
   </g>
   <g id="patch_48">
    <path clip-path="url(#paa1932e849)" d="M 368.960301 384.48 
L 368.960301 51.84 
L 372.562238 51.84 
L 372.562238 384.48 
z
" style="fill:#008000;opacity:0.04;"/>
   </g>
   <g id="patch_49">
    <path clip-path="url(#paa1932e849)" d="M 376.164174 384.48 
L 376.164174 51.84 
L 379.766111 51.84 
L 379.766111 384.48 
z
" style="fill:#008000;opacity:0.04;"/>
   </g>
   <g id="patch_50">
    <path clip-path="url(#paa1932e849)" d="M 383.368047 384.48 
L 383.368047 51.84 
L 386.969984 51.84 
L 386.969984 384.48 
z
" style="fill:#008000;opacity:0.04;"/>
   </g>
   <g id="patch_51">
    <path clip-path="url(#paa1932e849)" d="M 386.969984 384.48 
L 386.969984 371.1744 
L 390.57192 371.1744 
L 390.57192 384.48 
z
" style="fill:#ffe500;"/>
   </g>
   <g id="patch_52">
    <path clip-path="url(#paa1932e849)" d="M 390.57192 384.48 
L 390.57192 51.84 
L 394.173857 51.84 
L 394.173857 384.48 
z
" style="fill:#008000;opacity:0.04;"/>
   </g>
   <g id="patch_53">
    <path clip-path="url(#paa1932e849)" d="M 397.775793 384.48 
L 397.775793 51.84 
L 401.37773 51.84 
L 401.37773 384.48 
z
" style="fill:#008000;opacity:0.04;"/>
   </g>
   <g id="patch_54">
    <path clip-path="url(#paa1932e849)" d="M 404.979666 384.48 
L 404.979666 51.84 
L 408.581603 51.84 
L 408.581603 384.48 
z
" style="fill:#008000;opacity:0.04;"/>
   </g>
   <g id="patch_55">
    <path clip-path="url(#paa1932e849)" d="M 404.979666 384.48 
L 404.979666 371.1744 
L 408.581603 371.1744 
L 408.581603 384.48 
z
" style="fill:#ffe500;"/>
   </g>
   <g id="patch_56">
    <path clip-path="url(#paa1932e849)" d="M 412.18354 384.48 
L 412.18354 51.84 
L 415.785476 51.84 
L 415.785476 384.48 
z
" style="fill:#008000;opacity:0.04;"/>
   </g>
   <g id="patch_57">
    <path clip-path="url(#paa1932e849)" d="M 419.387413 384.48 
L 419.387413 51.84 
L 422.989349 51.84 
L 422.989349 384.48 
z
" style="fill:#008000;opacity:0.04;"/>
   </g>
   <g id="patch_58">
    <path clip-path="url(#paa1932e849)" d="M 426.591286 384.48 
L 426.591286 51.84 
L 430.193222 51.84 
L 430.193222 384.48 
z
" style="fill:#008000;opacity:0.04;"/>
   </g>
   <g id="patch_59">
    <path clip-path="url(#paa1932e849)" d="M 430.193222 384.48 
L 430.193222 371.1744 
L 433.795159 371.1744 
L 433.795159 384.48 
z
" style="fill:#ffe500;"/>
   </g>
   <g id="patch_60">
    <path clip-path="url(#paa1932e849)" d="M 433.795159 384.48 
L 433.795159 51.84 
L 437.397095 51.84 
L 437.397095 384.48 
z
" style="fill:#008000;opacity:0.04;"/>
   </g>
   <g id="patch_61">
    <path clip-path="url(#paa1932e849)" d="M 440.999032 384.48 
L 440.999032 51.84 
L 444.600968 51.84 
L 444.600968 384.48 
z
" style="fill:#008000;opacity:0.04;"/>
   </g>
   <g id="patch_62">
    <path clip-path="url(#paa1932e849)" d="M 743.5617 384.48 
L 743.5617 371.1744 
L 747.163636 371.1744 
L 747.163636 384.48 
z
" style="fill:#ff6600;"/>
   </g>
   <g id="patch_63">
    <path clip-path="url(#paa1932e849)" d="M 448.202905 384.48 
L 448.202905 51.84 
L 451.804841 51.84 
L 451.804841 384.48 
z
" style="fill:#008000;opacity:0.04;"/>
   </g>
   <g id="patch_64">
    <path clip-path="url(#paa1932e849)" d="M 455.406778 384.48 
L 455.406778 51.84 
L 459.008714 51.84 
L 459.008714 384.48 
z
" style="fill:#008000;opacity:0.04;"/>
   </g>
   <g id="patch_65">
    <path clip-path="url(#paa1932e849)" d="M 462.610651 384.48 
L 462.610651 51.84 
L 466.212587 51.84 
L 466.212587 384.48 
z
" style="fill:#008000;opacity:0.04;"/>
   </g>
   <g id="patch_66">
    <path clip-path="url(#paa1932e849)" d="M 469.814524 384.48 
L 469.814524 51.84 
L 473.41646 51.84 
L 473.41646 384.48 
z
" style="fill:#008000;opacity:0.04;"/>
   </g>
   <g id="patch_67">
    <path clip-path="url(#paa1932e849)" d="M 477.018397 384.48 
L 477.018397 51.84 
L 480.620334 51.84 
L 480.620334 384.48 
z
" style="fill:#008000;opacity:0.04;"/>
   </g>
   <g id="patch_68">
    <path clip-path="url(#paa1932e849)" d="M 484.22227 384.48 
L 484.22227 51.84 
L 487.824207 51.84 
L 487.824207 384.48 
z
" style="fill:#008000;opacity:0.04;"/>
   </g>
   <g id="patch_69">
    <path clip-path="url(#paa1932e849)" d="M 491.426143 384.48 
L 491.426143 51.84 
L 495.02808 51.84 
L 495.02808 384.48 
z
" style="fill:#008000;opacity:0.04;"/>
   </g>
   <g id="patch_70">
    <path clip-path="url(#paa1932e849)" d="M 498.630016 384.48 
L 498.630016 51.84 
L 502.231953 51.84 
L 502.231953 384.48 
z
" style="fill:#008000;opacity:0.04;"/>
   </g>
   <g id="patch_71">
    <path clip-path="url(#paa1932e849)" d="M 505.833889 384.48 
L 505.833889 51.84 
L 509.435826 51.84 
L 509.435826 384.48 
z
" style="fill:#008000;opacity:0.04;"/>
   </g>
   <g id="patch_72">
    <path clip-path="url(#paa1932e849)" d="M 509.435826 371.1744 
L 509.435826 51.84 
L 513.037762 51.84 
L 513.037762 371.1744 
z
" style="fill:#008000;opacity:0.5;"/>
   </g>
   <g id="patch_73">
    <path clip-path="url(#paa1932e849)" d="M 513.037762 384.48 
L 513.037762 51.84 
L 516.639699 51.84 
L 516.639699 384.48 
z
" style="fill:#008000;opacity:0.04;"/>
   </g>
   <g id="patch_74">
    <path clip-path="url(#paa1932e849)" d="M 520.241635 384.48 
L 520.241635 51.84 
L 523.843572 51.84 
L 523.843572 384.48 
z
" style="fill:#008000;opacity:0.04;"/>
   </g>
   <g id="patch_75">
    <path clip-path="url(#paa1932e849)" d="M 527.445508 384.48 
L 527.445508 51.84 
L 531.047445 51.84 
L 531.047445 384.48 
z
" style="fill:#008000;opacity:0.04;"/>
   </g>
   <g id="patch_76">
    <path clip-path="url(#paa1932e849)" d="M 534.649381 384.48 
L 534.649381 51.84 
L 538.251318 51.84 
L 538.251318 384.48 
z
" style="fill:#008000;opacity:0.04;"/>
   </g>
   <g id="patch_77">
    <path clip-path="url(#paa1932e849)" d="M 538.251318 371.1744 
L 538.251318 51.84 
L 541.853254 51.84 
L 541.853254 371.1744 
z
" style="fill:#008000;opacity:0.5;"/>
   </g>
   <g id="patch_78">
    <path clip-path="url(#paa1932e849)" d="M 538.251318 371.1744 
L 538.251318 357.8688 
L 541.853254 357.8688 
L 541.853254 371.1744 
z
" style="fill:#ff00ff;"/>
   </g>
   <g id="patch_79">
    <path clip-path="url(#paa1932e849)" d="M 541.853254 384.48 
L 541.853254 51.84 
L 545.455191 51.84 
L 545.455191 384.48 
z
" style="fill:#008000;opacity:0.04;"/>
   </g>
   <g id="patch_80">
    <path clip-path="url(#paa1932e849)" d="M 549.057127 384.48 
L 549.057127 51.84 
L 552.659064 51.84 
L 552.659064 384.48 
z
" style="fill:#008000;opacity:0.04;"/>
   </g>
   <g id="patch_81">
    <path clip-path="url(#paa1932e849)" d="M 556.261001 384.48 
L 556.261001 51.84 
L 559.862937 51.84 
L 559.862937 384.48 
z
" style="fill:#008000;opacity:0.04;"/>
   </g>
   <g id="patch_82">
    <path clip-path="url(#paa1932e849)" d="M 563.464874 384.48 
L 563.464874 51.84 
L 567.06681 51.84 
L 567.06681 384.48 
z
" style="fill:#008000;opacity:0.04;"/>
   </g>
   <g id="patch_83">
    <path clip-path="url(#paa1932e849)" d="M 570.668747 384.48 
L 570.668747 51.84 
L 574.270683 51.84 
L 574.270683 384.48 
z
" style="fill:#008000;opacity:0.04;"/>
   </g>
   <g id="patch_84">
    <path clip-path="url(#paa1932e849)" d="M 577.87262 384.48 
L 577.87262 51.84 
L 581.474556 51.84 
L 581.474556 384.48 
z
" style="fill:#008000;opacity:0.04;"/>
   </g>
   <g id="patch_85">
    <path clip-path="url(#paa1932e849)" d="M 585.076493 384.48 
L 585.076493 51.84 
L 588.678429 51.84 
L 588.678429 384.48 
z
" style="fill:#008000;opacity:0.04;"/>
   </g>
   <g id="patch_86">
    <path clip-path="url(#paa1932e849)" d="M 592.280366 384.48 
L 592.280366 51.84 
L 595.882302 51.84 
L 595.882302 384.48 
z
" style="fill:#008000;opacity:0.04;"/>
   </g>
   <g id="patch_87">
    <path clip-path="url(#paa1932e849)" d="M 599.484239 384.48 
L 599.484239 51.84 
L 603.086175 51.84 
L 603.086175 384.48 
z
" style="fill:#008000;opacity:0.04;"/>
   </g>
   <g id="patch_88">
    <path clip-path="url(#paa1932e849)" d="M 606.688112 384.48 
L 606.688112 51.84 
L 610.290048 51.84 
L 610.290048 384.48 
z
" style="fill:#008000;opacity:0.04;"/>
   </g>
   <g id="patch_89">
    <path clip-path="url(#paa1932e849)" d="M 613.891985 384.48 
L 613.891985 51.84 
L 617.493921 51.84 
L 617.493921 384.48 
z
" style="fill:#008000;opacity:0.04;"/>
   </g>
   <g id="patch_90">
    <path clip-path="url(#paa1932e849)" d="M 621.095858 384.48 
L 621.095858 51.84 
L 624.697795 51.84 
L 624.697795 384.48 
z
" style="fill:#008000;opacity:0.04;"/>
   </g>
   <g id="patch_91">
    <path clip-path="url(#paa1932e849)" d="M 628.299731 384.48 
L 628.299731 51.84 
L 631.901668 51.84 
L 631.901668 384.48 
z
" style="fill:#008000;opacity:0.04;"/>
   </g>
   <g id="patch_92">
    <path clip-path="url(#paa1932e849)" d="M 635.503604 384.48 
L 635.503604 51.84 
L 639.105541 51.84 
L 639.105541 384.48 
z
" style="fill:#008000;opacity:0.04;"/>
   </g>
   <g id="patch_93">
    <path clip-path="url(#paa1932e849)" d="M 642.707477 384.48 
L 642.707477 51.84 
L 646.309414 51.84 
L 646.309414 384.48 
z
" style="fill:#008000;opacity:0.04;"/>
   </g>
   <g id="patch_94">
    <path clip-path="url(#paa1932e849)" d="M 649.91135 384.48 
L 649.91135 51.84 
L 653.513287 51.84 
L 653.513287 384.48 
z
" style="fill:#008000;opacity:0.04;"/>
   </g>
   <g id="patch_95">
    <path clip-path="url(#paa1932e849)" d="M 657.115223 384.48 
L 657.115223 51.84 
L 660.71716 51.84 
L 660.71716 384.48 
z
" style="fill:#008000;opacity:0.04;"/>
   </g>
   <g id="patch_96">
    <path clip-path="url(#paa1932e849)" d="M 664.319096 384.48 
L 664.319096 51.84 
L 667.921033 51.84 
L 667.921033 384.48 
z
" style="fill:#008000;opacity:0.04;"/>
   </g>
   <g id="patch_97">
    <path clip-path="url(#paa1932e849)" d="M 671.522969 384.48 
L 671.522969 51.84 
L 675.124906 51.84 
L 675.124906 384.48 
z
" style="fill:#008000;opacity:0.04;"/>
   </g>
   <g id="patch_98">
    <path clip-path="url(#paa1932e849)" d="M 678.726842 384.48 
L 678.726842 51.84 
L 682.328779 51.84 
L 682.328779 384.48 
z
" style="fill:#008000;opacity:0.04;"/>
   </g>
   <g id="patch_99">
    <path clip-path="url(#paa1932e849)" d="M 685.930715 384.48 
L 685.930715 51.84 
L 689.532652 51.84 
L 689.532652 384.48 
z
" style="fill:#008000;opacity:0.04;"/>
   </g>
   <g id="patch_100">
    <path clip-path="url(#paa1932e849)" d="M 693.134588 384.48 
L 693.134588 51.84 
L 696.736525 51.84 
L 696.736525 384.48 
z
" style="fill:#008000;opacity:0.04;"/>
   </g>
   <g id="patch_101">
    <path clip-path="url(#paa1932e849)" d="M 700.338462 384.48 
L 700.338462 51.84 
L 703.940398 51.84 
L 703.940398 384.48 
z
" style="fill:#008000;opacity:0.04;"/>
   </g>
   <g id="patch_102">
    <path clip-path="url(#paa1932e849)" d="M 707.542335 384.48 
L 707.542335 51.84 
L 711.144271 51.84 
L 711.144271 384.48 
z
" style="fill:#008000;opacity:0.04;"/>
   </g>
   <g id="patch_103">
    <path clip-path="url(#paa1932e849)" d="M 714.746208 384.48 
L 714.746208 51.84 
L 718.348144 51.84 
L 718.348144 384.48 
z
" style="fill:#008000;opacity:0.04;"/>
   </g>
   <g id="patch_104">
    <path clip-path="url(#paa1932e849)" d="M 721.950081 384.48 
L 721.950081 51.84 
L 725.552017 51.84 
L 725.552017 384.48 
z
" style="fill:#008000;opacity:0.04;"/>
   </g>
   <g id="patch_105">
    <path clip-path="url(#paa1932e849)" d="M 729.153954 384.48 
L 729.153954 51.84 
L 732.75589 51.84 
L 732.75589 384.48 
z
" style="fill:#008000;opacity:0.04;"/>
   </g>
   <g id="patch_106">
    <path clip-path="url(#paa1932e849)" d="M 736.357827 384.48 
L 736.357827 51.84 
L 739.959763 51.84 
L 739.959763 384.48 
z
" style="fill:#008000;opacity:0.04;"/>
   </g>
   <g id="patch_107">
    <path clip-path="url(#paa1932e849)" d="M 743.5617 384.48 
L 743.5617 51.84 
L 747.163636 51.84 
L 747.163636 384.48 
z
" style="fill:#008000;opacity:0.04;"/>
   </g>
   <g id="matplotlib.axis_1">
    <g id="xtick_1">
     <g id="line2d_1">
      <defs>
       <path d="M 0 0 
L 0 3.5 
" id="mbc8f9e3634" style="stroke:#000000;stroke-width:0.8;"/>
      </defs>
      <g>
       <use style="stroke:#000000;stroke-width:0.8;" x="138.436364" xlink:href="#mbc8f9e3634" y="384.48"/>
      </g>
     </g>
     <g id="text_1">
      <!-- 0 -->
      <defs>
       <path d="M 31.78125 66.40625 
Q 24.171875 66.40625 20.328125 58.90625 
Q 16.5 51.421875 16.5 36.375 
Q 16.5 21.390625 20.328125 13.890625 
Q 24.171875 6.390625 31.78125 6.390625 
Q 39.453125 6.390625 43.28125 13.890625 
Q 47.125 21.390625 47.125 36.375 
Q 47.125 51.421875 43.28125 58.90625 
Q 39.453125 66.40625 31.78125 66.40625 
z
M 31.78125 74.21875 
Q 44.046875 74.21875 50.515625 64.515625 
Q 56.984375 54.828125 56.984375 36.375 
Q 56.984375 17.96875 50.515625 8.265625 
Q 44.046875 -1.421875 31.78125 -1.421875 
Q 19.53125 -1.421875 13.0625 8.265625 
Q 6.59375 17.96875 6.59375 36.375 
Q 6.59375 54.828125 13.0625 64.515625 
Q 19.53125 74.21875 31.78125 74.21875 
z
" id="DejaVuSans-48"/>
      </defs>
      <g transform="translate(135.255114 399.078438)scale(0.1 -0.1)">
       <use xlink:href="#DejaVuSans-48"/>
      </g>
     </g>
    </g>
    <g id="xtick_2">
     <g id="line2d_2">
      <g>
       <use style="stroke:#000000;stroke-width:0.8;" x="228.484777" xlink:href="#mbc8f9e3634" y="384.48"/>
      </g>
     </g>
     <g id="text_2">
      <!-- 250 -->
      <defs>
       <path d="M 19.1875 8.296875 
L 53.609375 8.296875 
L 53.609375 0 
L 7.328125 0 
L 7.328125 8.296875 
Q 12.9375 14.109375 22.625 23.890625 
Q 32.328125 33.6875 34.8125 36.53125 
Q 39.546875 41.84375 41.421875 45.53125 
Q 43.3125 49.21875 43.3125 52.78125 
Q 43.3125 58.59375 39.234375 62.25 
Q 35.15625 65.921875 28.609375 65.921875 
Q 23.96875 65.921875 18.8125 64.3125 
Q 13.671875 62.703125 7.8125 59.421875 
L 7.8125 69.390625 
Q 13.765625 71.78125 18.9375 73 
Q 24.125 74.21875 28.421875 74.21875 
Q 39.75 74.21875 46.484375 68.546875 
Q 53.21875 62.890625 53.21875 53.421875 
Q 53.21875 48.921875 51.53125 44.890625 
Q 49.859375 40.875 45.40625 35.40625 
Q 44.1875 33.984375 37.640625 27.21875 
Q 31.109375 20.453125 19.1875 8.296875 
z
" id="DejaVuSans-50"/>
       <path d="M 10.796875 72.90625 
L 49.515625 72.90625 
L 49.515625 64.59375 
L 19.828125 64.59375 
L 19.828125 46.734375 
Q 21.96875 47.46875 24.109375 47.828125 
Q 26.265625 48.1875 28.421875 48.1875 
Q 40.625 48.1875 47.75 41.5 
Q 54.890625 34.8125 54.890625 23.390625 
Q 54.890625 11.625 47.5625 5.09375 
Q 40.234375 -1.421875 26.90625 -1.421875 
Q 22.3125 -1.421875 17.546875 -0.640625 
Q 12.796875 0.140625 7.71875 1.703125 
L 7.71875 11.625 
Q 12.109375 9.234375 16.796875 8.0625 
Q 21.484375 6.890625 26.703125 6.890625 
Q 35.15625 6.890625 40.078125 11.328125 
Q 45.015625 15.765625 45.015625 23.390625 
Q 45.015625 31 40.078125 35.4375 
Q 35.15625 39.890625 26.703125 39.890625 
Q 22.75 39.890625 18.8125 39.015625 
Q 14.890625 38.140625 10.796875 36.28125 
z
" id="DejaVuSans-53"/>
      </defs>
      <g transform="translate(218.941027 399.078438)scale(0.1 -0.1)">
       <use xlink:href="#DejaVuSans-50"/>
       <use x="63.623047" xlink:href="#DejaVuSans-53"/>
       <use x="127.246094" xlink:href="#DejaVuSans-48"/>
      </g>
     </g>
    </g>
    <g id="xtick_3">
     <g id="line2d_3">
      <g>
       <use style="stroke:#000000;stroke-width:0.8;" x="318.53319" xlink:href="#mbc8f9e3634" y="384.48"/>
      </g>
     </g>
     <g id="text_3">
      <!-- 500 -->
      <g transform="translate(308.98944 399.078438)scale(0.1 -0.1)">
       <use xlink:href="#DejaVuSans-53"/>
       <use x="63.623047" xlink:href="#DejaVuSans-48"/>
       <use x="127.246094" xlink:href="#DejaVuSans-48"/>
      </g>
     </g>
    </g>
    <g id="xtick_4">
     <g id="line2d_4">
      <g>
       <use style="stroke:#000000;stroke-width:0.8;" x="408.581603" xlink:href="#mbc8f9e3634" y="384.48"/>
      </g>
     </g>
     <g id="text_4">
      <!-- 750 -->
      <defs>
       <path d="M 8.203125 72.90625 
L 55.078125 72.90625 
L 55.078125 68.703125 
L 28.609375 0 
L 18.3125 0 
L 43.21875 64.59375 
L 8.203125 64.59375 
z
" id="DejaVuSans-55"/>
      </defs>
      <g transform="translate(399.037853 399.078438)scale(0.1 -0.1)">
       <use xlink:href="#DejaVuSans-55"/>
       <use x="63.623047" xlink:href="#DejaVuSans-53"/>
       <use x="127.246094" xlink:href="#DejaVuSans-48"/>
      </g>
     </g>
    </g>
    <g id="xtick_5">
     <g id="line2d_5">
      <g>
       <use style="stroke:#000000;stroke-width:0.8;" x="498.630016" xlink:href="#mbc8f9e3634" y="384.48"/>
      </g>
     </g>
     <g id="text_5">
      <!-- 1000 -->
      <defs>
       <path d="M 12.40625 8.296875 
L 28.515625 8.296875 
L 28.515625 63.921875 
L 10.984375 60.40625 
L 10.984375 69.390625 
L 28.421875 72.90625 
L 38.28125 72.90625 
L 38.28125 8.296875 
L 54.390625 8.296875 
L 54.390625 0 
L 12.40625 0 
z
" id="DejaVuSans-49"/>
      </defs>
      <g transform="translate(485.905016 399.078438)scale(0.1 -0.1)">
       <use xlink:href="#DejaVuSans-49"/>
       <use x="63.623047" xlink:href="#DejaVuSans-48"/>
       <use x="127.246094" xlink:href="#DejaVuSans-48"/>
       <use x="190.869141" xlink:href="#DejaVuSans-48"/>
      </g>
     </g>
    </g>
    <g id="xtick_6">
     <g id="line2d_6">
      <g>
       <use style="stroke:#000000;stroke-width:0.8;" x="588.678429" xlink:href="#mbc8f9e3634" y="384.48"/>
      </g>
     </g>
     <g id="text_6">
      <!-- 1250 -->
      <g transform="translate(575.953429 399.078438)scale(0.1 -0.1)">
       <use xlink:href="#DejaVuSans-49"/>
       <use x="63.623047" xlink:href="#DejaVuSans-50"/>
       <use x="127.246094" xlink:href="#DejaVuSans-53"/>
       <use x="190.869141" xlink:href="#DejaVuSans-48"/>
      </g>
     </g>
    </g>
    <g id="xtick_7">
     <g id="line2d_7">
      <g>
       <use style="stroke:#000000;stroke-width:0.8;" x="678.726842" xlink:href="#mbc8f9e3634" y="384.48"/>
      </g>
     </g>
     <g id="text_7">
      <!-- 1500 -->
      <g transform="translate(666.001842 399.078438)scale(0.1 -0.1)">
       <use xlink:href="#DejaVuSans-49"/>
       <use x="63.623047" xlink:href="#DejaVuSans-53"/>
       <use x="127.246094" xlink:href="#DejaVuSans-48"/>
       <use x="190.869141" xlink:href="#DejaVuSans-48"/>
      </g>
     </g>
    </g>
    <g id="xtick_8">
     <g id="line2d_8">
      <g>
       <use style="stroke:#000000;stroke-width:0.8;" x="768.775256" xlink:href="#mbc8f9e3634" y="384.48"/>
      </g>
     </g>
     <g id="text_8">
      <!-- 1750 -->
      <g transform="translate(756.050256 399.078438)scale(0.1 -0.1)">
       <use xlink:href="#DejaVuSans-49"/>
       <use x="63.623047" xlink:href="#DejaVuSans-55"/>
       <use x="127.246094" xlink:href="#DejaVuSans-53"/>
       <use x="190.869141" xlink:href="#DejaVuSans-48"/>
      </g>
     </g>
    </g>
    <g id="text_9">
     <!-- Timestamp -->
     <defs>
      <path d="M -0.296875 72.90625 
L 61.375 72.90625 
L 61.375 64.59375 
L 35.5 64.59375 
L 35.5 0 
L 25.59375 0 
L 25.59375 64.59375 
L -0.296875 64.59375 
z
" id="DejaVuSans-84"/>
      <path d="M 9.421875 54.6875 
L 18.40625 54.6875 
L 18.40625 0 
L 9.421875 0 
z
M 9.421875 75.984375 
L 18.40625 75.984375 
L 18.40625 64.59375 
L 9.421875 64.59375 
z
" id="DejaVuSans-105"/>
      <path d="M 52 44.1875 
Q 55.375 50.25 60.0625 53.125 
Q 64.75 56 71.09375 56 
Q 79.640625 56 84.28125 50.015625 
Q 88.921875 44.046875 88.921875 33.015625 
L 88.921875 0 
L 79.890625 0 
L 79.890625 32.71875 
Q 79.890625 40.578125 77.09375 44.375 
Q 74.3125 48.1875 68.609375 48.1875 
Q 61.625 48.1875 57.5625 43.546875 
Q 53.515625 38.921875 53.515625 30.90625 
L 53.515625 0 
L 44.484375 0 
L 44.484375 32.71875 
Q 44.484375 40.625 41.703125 44.40625 
Q 38.921875 48.1875 33.109375 48.1875 
Q 26.21875 48.1875 22.15625 43.53125 
Q 18.109375 38.875 18.109375 30.90625 
L 18.109375 0 
L 9.078125 0 
L 9.078125 54.6875 
L 18.109375 54.6875 
L 18.109375 46.1875 
Q 21.1875 51.21875 25.484375 53.609375 
Q 29.78125 56 35.6875 56 
Q 41.65625 56 45.828125 52.96875 
Q 50 49.953125 52 44.1875 
z
" id="DejaVuSans-109"/>
      <path d="M 56.203125 29.59375 
L 56.203125 25.203125 
L 14.890625 25.203125 
Q 15.484375 15.921875 20.484375 11.0625 
Q 25.484375 6.203125 34.421875 6.203125 
Q 39.59375 6.203125 44.453125 7.46875 
Q 49.3125 8.734375 54.109375 11.28125 
L 54.109375 2.78125 
Q 49.265625 0.734375 44.1875 -0.34375 
Q 39.109375 -1.421875 33.890625 -1.421875 
Q 20.796875 -1.421875 13.15625 6.1875 
Q 5.515625 13.8125 5.515625 26.8125 
Q 5.515625 40.234375 12.765625 48.109375 
Q 20.015625 56 32.328125 56 
Q 43.359375 56 49.78125 48.890625 
Q 56.203125 41.796875 56.203125 29.59375 
z
M 47.21875 32.234375 
Q 47.125 39.59375 43.09375 43.984375 
Q 39.0625 48.390625 32.421875 48.390625 
Q 24.90625 48.390625 20.390625 44.140625 
Q 15.875 39.890625 15.1875 32.171875 
z
" id="DejaVuSans-101"/>
      <path d="M 44.28125 53.078125 
L 44.28125 44.578125 
Q 40.484375 46.53125 36.375 47.5 
Q 32.28125 48.484375 27.875 48.484375 
Q 21.1875 48.484375 17.84375 46.4375 
Q 14.5 44.390625 14.5 40.28125 
Q 14.5 37.15625 16.890625 35.375 
Q 19.28125 33.59375 26.515625 31.984375 
L 29.59375 31.296875 
Q 39.15625 29.25 43.1875 25.515625 
Q 47.21875 21.78125 47.21875 15.09375 
Q 47.21875 7.46875 41.1875 3.015625 
Q 35.15625 -1.421875 24.609375 -1.421875 
Q 20.21875 -1.421875 15.453125 -0.5625 
Q 10.6875 0.296875 5.421875 2 
L 5.421875 11.28125 
Q 10.40625 8.6875 15.234375 7.390625 
Q 20.0625 6.109375 24.8125 6.109375 
Q 31.15625 6.109375 34.5625 8.28125 
Q 37.984375 10.453125 37.984375 14.40625 
Q 37.984375 18.0625 35.515625 20.015625 
Q 33.0625 21.96875 24.703125 23.78125 
L 21.578125 24.515625 
Q 13.234375 26.265625 9.515625 29.90625 
Q 5.8125 33.546875 5.8125 39.890625 
Q 5.8125 47.609375 11.28125 51.796875 
Q 16.75 56 26.8125 56 
Q 31.78125 56 36.171875 55.265625 
Q 40.578125 54.546875 44.28125 53.078125 
z
" id="DejaVuSans-115"/>
      <path d="M 18.3125 70.21875 
L 18.3125 54.6875 
L 36.8125 54.6875 
L 36.8125 47.703125 
L 18.3125 47.703125 
L 18.3125 18.015625 
Q 18.3125 11.328125 20.140625 9.421875 
Q 21.96875 7.515625 27.59375 7.515625 
L 36.8125 7.515625 
L 36.8125 0 
L 27.59375 0 
Q 17.1875 0 13.234375 3.875 
Q 9.28125 7.765625 9.28125 18.015625 
L 9.28125 47.703125 
L 2.6875 47.703125 
L 2.6875 54.6875 
L 9.28125 54.6875 
L 9.28125 70.21875 
z
" id="DejaVuSans-116"/>
      <path d="M 34.28125 27.484375 
Q 23.390625 27.484375 19.1875 25 
Q 14.984375 22.515625 14.984375 16.5 
Q 14.984375 11.71875 18.140625 8.90625 
Q 21.296875 6.109375 26.703125 6.109375 
Q 34.1875 6.109375 38.703125 11.40625 
Q 43.21875 16.703125 43.21875 25.484375 
L 43.21875 27.484375 
z
M 52.203125 31.203125 
L 52.203125 0 
L 43.21875 0 
L 43.21875 8.296875 
Q 40.140625 3.328125 35.546875 0.953125 
Q 30.953125 -1.421875 24.3125 -1.421875 
Q 15.921875 -1.421875 10.953125 3.296875 
Q 6 8.015625 6 15.921875 
Q 6 25.140625 12.171875 29.828125 
Q 18.359375 34.515625 30.609375 34.515625 
L 43.21875 34.515625 
L 43.21875 35.40625 
Q 43.21875 41.609375 39.140625 45 
Q 35.0625 48.390625 27.6875 48.390625 
Q 23 48.390625 18.546875 47.265625 
Q 14.109375 46.140625 10.015625 43.890625 
L 10.015625 52.203125 
Q 14.9375 54.109375 19.578125 55.046875 
Q 24.21875 56 28.609375 56 
Q 40.484375 56 46.34375 49.84375 
Q 52.203125 43.703125 52.203125 31.203125 
z
" id="DejaVuSans-97"/>
      <path d="M 18.109375 8.203125 
L 18.109375 -20.796875 
L 9.078125 -20.796875 
L 9.078125 54.6875 
L 18.109375 54.6875 
L 18.109375 46.390625 
Q 20.953125 51.265625 25.265625 53.625 
Q 29.59375 56 35.59375 56 
Q 45.5625 56 51.78125 48.09375 
Q 58.015625 40.1875 58.015625 27.296875 
Q 58.015625 14.40625 51.78125 6.484375 
Q 45.5625 -1.421875 35.59375 -1.421875 
Q 29.59375 -1.421875 25.265625 0.953125 
Q 20.953125 3.328125 18.109375 8.203125 
z
M 48.6875 27.296875 
Q 48.6875 37.203125 44.609375 42.84375 
Q 40.53125 48.484375 33.40625 48.484375 
Q 26.265625 48.484375 22.1875 42.84375 
Q 18.109375 37.203125 18.109375 27.296875 
Q 18.109375 17.390625 22.1875 11.75 
Q 26.265625 6.109375 33.40625 6.109375 
Q 40.53125 6.109375 44.609375 11.75 
Q 48.6875 17.390625 48.6875 27.296875 
z
" id="DejaVuSans-112"/>
     </defs>
     <g transform="translate(414.739062 412.756563)scale(0.1 -0.1)">
      <use xlink:href="#DejaVuSans-84"/>
      <use x="61.037109" xlink:href="#DejaVuSans-105"/>
      <use x="88.820312" xlink:href="#DejaVuSans-109"/>
      <use x="186.232422" xlink:href="#DejaVuSans-101"/>
      <use x="247.755859" xlink:href="#DejaVuSans-115"/>
      <use x="299.855469" xlink:href="#DejaVuSans-116"/>
      <use x="339.064453" xlink:href="#DejaVuSans-97"/>
      <use x="400.34375" xlink:href="#DejaVuSans-109"/>
      <use x="497.755859" xlink:href="#DejaVuSans-112"/>
     </g>
    </g>
   </g>
   <g id="matplotlib.axis_2">
    <g id="ytick_1">
     <g id="line2d_9">
      <defs>
       <path d="M 0 0 
L -3.5 0 
" id="mb5e04d49f1" style="stroke:#000000;stroke-width:0.8;"/>
      </defs>
      <g>
       <use style="stroke:#000000;stroke-width:0.8;" x="108" xlink:href="#mb5e04d49f1" y="381.874265"/>
      </g>
     </g>
     <g id="text_10">
      <!-- −2000 -->
      <defs>
       <path d="M 10.59375 35.5 
L 73.1875 35.5 
L 73.1875 27.203125 
L 10.59375 27.203125 
z
" id="DejaVuSans-8722"/>
      </defs>
      <g transform="translate(67.170312 385.673484)scale(0.1 -0.1)">
       <use xlink:href="#DejaVuSans-8722"/>
       <use x="83.789062" xlink:href="#DejaVuSans-50"/>
       <use x="147.412109" xlink:href="#DejaVuSans-48"/>
       <use x="211.035156" xlink:href="#DejaVuSans-48"/>
       <use x="274.658203" xlink:href="#DejaVuSans-48"/>
      </g>
     </g>
    </g>
    <g id="ytick_2">
     <g id="line2d_10">
      <g>
       <use style="stroke:#000000;stroke-width:0.8;" x="108" xlink:href="#mb5e04d49f1" y="324.336942"/>
      </g>
     </g>
     <g id="text_11">
      <!-- −1000 -->
      <g transform="translate(67.170312 328.136161)scale(0.1 -0.1)">
       <use xlink:href="#DejaVuSans-8722"/>
       <use x="83.789062" xlink:href="#DejaVuSans-49"/>
       <use x="147.412109" xlink:href="#DejaVuSans-48"/>
       <use x="211.035156" xlink:href="#DejaVuSans-48"/>
       <use x="274.658203" xlink:href="#DejaVuSans-48"/>
      </g>
     </g>
    </g>
    <g id="ytick_3">
     <g id="line2d_11">
      <g>
       <use style="stroke:#000000;stroke-width:0.8;" x="108" xlink:href="#mb5e04d49f1" y="266.799619"/>
      </g>
     </g>
     <g id="text_12">
      <!-- 0 -->
      <g transform="translate(94.6375 270.598838)scale(0.1 -0.1)">
       <use xlink:href="#DejaVuSans-48"/>
      </g>
     </g>
    </g>
    <g id="ytick_4">
     <g id="line2d_12">
      <g>
       <use style="stroke:#000000;stroke-width:0.8;" x="108" xlink:href="#mb5e04d49f1" y="209.262296"/>
      </g>
     </g>
     <g id="text_13">
      <!-- 1000 -->
      <g transform="translate(75.55 213.061515)scale(0.1 -0.1)">
       <use xlink:href="#DejaVuSans-49"/>
       <use x="63.623047" xlink:href="#DejaVuSans-48"/>
       <use x="127.246094" xlink:href="#DejaVuSans-48"/>
       <use x="190.869141" xlink:href="#DejaVuSans-48"/>
      </g>
     </g>
    </g>
    <g id="ytick_5">
     <g id="line2d_13">
      <g>
       <use style="stroke:#000000;stroke-width:0.8;" x="108" xlink:href="#mb5e04d49f1" y="151.724973"/>
      </g>
     </g>
     <g id="text_14">
      <!-- 2000 -->
      <g transform="translate(75.55 155.524191)scale(0.1 -0.1)">
       <use xlink:href="#DejaVuSans-50"/>
       <use x="63.623047" xlink:href="#DejaVuSans-48"/>
       <use x="127.246094" xlink:href="#DejaVuSans-48"/>
       <use x="190.869141" xlink:href="#DejaVuSans-48"/>
      </g>
     </g>
    </g>
    <g id="ytick_6">
     <g id="line2d_14">
      <g>
       <use style="stroke:#000000;stroke-width:0.8;" x="108" xlink:href="#mb5e04d49f1" y="94.18765"/>
      </g>
     </g>
     <g id="text_15">
      <!-- 3000 -->
      <defs>
       <path d="M 40.578125 39.3125 
Q 47.65625 37.796875 51.625 33 
Q 55.609375 28.21875 55.609375 21.1875 
Q 55.609375 10.40625 48.1875 4.484375 
Q 40.765625 -1.421875 27.09375 -1.421875 
Q 22.515625 -1.421875 17.65625 -0.515625 
Q 12.796875 0.390625 7.625 2.203125 
L 7.625 11.71875 
Q 11.71875 9.328125 16.59375 8.109375 
Q 21.484375 6.890625 26.8125 6.890625 
Q 36.078125 6.890625 40.9375 10.546875 
Q 45.796875 14.203125 45.796875 21.1875 
Q 45.796875 27.640625 41.28125 31.265625 
Q 36.765625 34.90625 28.71875 34.90625 
L 20.21875 34.90625 
L 20.21875 43.015625 
L 29.109375 43.015625 
Q 36.375 43.015625 40.234375 45.921875 
Q 44.09375 48.828125 44.09375 54.296875 
Q 44.09375 59.90625 40.109375 62.90625 
Q 36.140625 65.921875 28.71875 65.921875 
Q 24.65625 65.921875 20.015625 65.03125 
Q 15.375 64.15625 9.8125 62.3125 
L 9.8125 71.09375 
Q 15.4375 72.65625 20.34375 73.4375 
Q 25.25 74.21875 29.59375 74.21875 
Q 40.828125 74.21875 47.359375 69.109375 
Q 53.90625 64.015625 53.90625 55.328125 
Q 53.90625 49.265625 50.4375 45.09375 
Q 46.96875 40.921875 40.578125 39.3125 
z
" id="DejaVuSans-51"/>
      </defs>
      <g transform="translate(75.55 97.986868)scale(0.1 -0.1)">
       <use xlink:href="#DejaVuSans-51"/>
       <use x="63.623047" xlink:href="#DejaVuSans-48"/>
       <use x="127.246094" xlink:href="#DejaVuSans-48"/>
       <use x="190.869141" xlink:href="#DejaVuSans-48"/>
      </g>
     </g>
    </g>
    <g id="text_16">
     <!-- Value -->
     <defs>
      <path d="M 28.609375 0 
L 0.78125 72.90625 
L 11.078125 72.90625 
L 34.1875 11.53125 
L 57.328125 72.90625 
L 67.578125 72.90625 
L 39.796875 0 
z
" id="DejaVuSans-86"/>
      <path d="M 9.421875 75.984375 
L 18.40625 75.984375 
L 18.40625 0 
L 9.421875 0 
z
" id="DejaVuSans-108"/>
      <path d="M 8.5 21.578125 
L 8.5 54.6875 
L 17.484375 54.6875 
L 17.484375 21.921875 
Q 17.484375 14.15625 20.5 10.265625 
Q 23.53125 6.390625 29.59375 6.390625 
Q 36.859375 6.390625 41.078125 11.03125 
Q 45.3125 15.671875 45.3125 23.6875 
L 45.3125 54.6875 
L 54.296875 54.6875 
L 54.296875 0 
L 45.3125 0 
L 45.3125 8.40625 
Q 42.046875 3.421875 37.71875 1 
Q 33.40625 -1.421875 27.6875 -1.421875 
Q 18.265625 -1.421875 13.375 4.4375 
Q 8.5 10.296875 8.5 21.578125 
z
M 31.109375 56 
z
" id="DejaVuSans-117"/>
     </defs>
     <g transform="translate(61.090625 232.273281)rotate(-90)scale(0.1 -0.1)">
      <use xlink:href="#DejaVuSans-86"/>
      <use x="68.298828" xlink:href="#DejaVuSans-97"/>
      <use x="129.578125" xlink:href="#DejaVuSans-108"/>
      <use x="157.361328" xlink:href="#DejaVuSans-117"/>
      <use x="220.740234" xlink:href="#DejaVuSans-101"/>
     </g>
    </g>
   </g>
   <g id="line2d_15">
    <path clip-path="url(#paa1932e849)" d="M 138.436364 266.536356 
L 138.796557 257.196004 
L 139.156751 251.446747 
L 139.516945 248.864814 
L 139.877138 245.334666 
L 140.237332 249.017806 
L 140.957719 258.440963 
L 141.317913 261.868449 
L 141.678107 267.968427 
L 142.0383 268.131367 
L 142.398494 266.83015 
L 143.118881 260.654917 
L 143.479075 261.527054 
L 143.839268 260.355235 
L 144.199462 261.528955 
L 144.919849 273.218024 
L 145.280043 278.793667 
L 145.640237 282.565503 
L 146.00043 279.946975 
L 146.360624 276.246738 
L 147.441205 253.099 
L 147.801399 243.574715 
L 148.161592 243.661416 
L 148.521786 244.124156 
L 148.88198 246.043117 
L 149.242173 249.993494 
L 149.602367 252.507864 
L 149.962561 260.333209 
L 150.322754 261.360647 
L 150.682948 262.911699 
L 151.043141 261.202545 
L 151.403335 260.454496 
L 152.123722 254.40383 
L 152.483916 256.434144 
L 152.84411 257.729558 
L 153.924691 275.417654 
L 154.284884 278.221629 
L 154.645078 276.604135 
L 155.005272 273.120722 
L 155.365465 266.600401 
L 156.446046 243.297788 
L 156.80624 239.038337 
L 157.166434 239.028681 
L 157.526627 241.819185 
L 158.247015 254.443992 
L 158.607208 258.663597 
L 158.967402 260.907538 
L 159.327595 261.729563 
L 159.687789 261.790505 
L 160.047983 258.210265 
L 160.408176 258.097268 
L 160.76837 252.797054 
L 161.128564 255.512326 
L 161.488757 259.41126 
L 162.569338 275.585892 
L 162.929532 275.389878 
L 163.289726 279.641212 
L 164.010113 268.143428 
L 164.7305 251.792719 
L 165.450888 242.183043 
L 165.811081 242.756759 
L 166.171275 243.993794 
L 166.531469 249.57434 
L 167.251856 264.145296 
L 167.612049 263.12726 
L 167.972243 266.38056 
L 169.052824 258.568763 
L 169.413018 259.875387 
L 169.773211 258.469087 
L 170.493599 267.265093 
L 170.853792 275.42095 
L 171.57418 281.94897 
L 171.934373 278.191941 
L 172.294567 277.188208 
L 172.654761 271.375513 
L 173.735342 247.355684 
L 174.095535 245.601902 
L 174.455729 246.071371 
L 174.815923 248.920412 
L 176.256697 269.765248 
L 176.977084 264.660187 
L 177.337278 268.284676 
L 177.697472 261.999917 
L 178.057665 260.914873 
L 178.778053 263.253032 
L 179.858634 280.862588 
L 180.218827 285.499174 
L 180.579021 285.465617 
L 181.299408 273.851384 
L 181.659602 264.575786 
L 182.740183 246.026351 
L 183.100377 246.102002 
L 183.46057 247.737891 
L 184.541151 266.55074 
L 184.901345 268.196386 
L 185.261538 269.30109 
L 185.621732 268.673589 
L 185.981926 265.894829 
L 186.702313 258.007416 
L 187.062507 261.302453 
L 187.4227 262.683832 
L 187.782894 299.036162 
L 188.143088 273.076378 
L 188.503281 279.613786 
L 188.863475 283.706867 
L 189.944056 272.972092 
L 190.30425 261.526637 
L 190.664443 256.74741 
L 191.024637 245.757736 
L 191.745024 243.275476 
L 192.105218 249.235275 
L 192.465412 248.13472 
L 193.185799 262.476455 
L 193.545992 264.165821 
L 193.906186 263.112499 
L 194.26638 263.307345 
L 194.986767 257.143151 
L 195.346961 256.537966 
L 195.707154 254.439494 
L 196.427542 266.244859 
L 196.787735 267.590706 
L 197.147929 274.822635 
L 197.508123 276.026333 
L 197.868316 276.133554 
L 198.22851 274.353614 
L 199.669285 240.415467 
L 200.029478 237.912042 
L 200.389672 236.784874 
L 200.749866 240.267515 
L 201.830446 254.513586 
L 202.19064 257.331882 
L 202.550834 258.114635 
L 202.911027 257.808914 
L 203.271221 252.647836 
L 203.631415 251.777408 
L 203.991608 251.581535 
L 204.351802 250.647161 
L 204.711996 252.261924 
L 205.432383 263.897918 
L 206.15277 269.605763 
L 206.512964 269.645709 
L 206.873158 268.287316 
L 207.953739 242.542036 
L 208.313932 234.779074 
L 208.674126 231.143019 
L 209.03432 231.925353 
L 209.394513 234.616944 
L 210.475094 250.27786 
L 210.835288 253.968281 
L 211.195481 253.299258 
L 211.555675 254.686592 
L 211.915869 249.001899 
L 212.276062 245.244041 
L 212.636256 245.392595 
L 212.99645 245.906847 
L 213.356643 247.793737 
L 214.437224 264.74584 
L 214.797418 267.634281 
L 215.157612 268.434 
L 215.877999 257.934465 
L 216.598386 239.662815 
L 216.95858 232.753187 
L 217.318774 229.412649 
L 217.678967 229.561206 
L 218.039161 233.336924 
L 219.479935 252.60305 
L 219.840129 252.73385 
L 220.200323 252.215427 
L 220.560516 247.954836 
L 220.92071 245.82123 
L 221.280904 245.240872 
L 221.641097 245.127699 
L 222.001291 248.375493 
L 222.721678 258.475718 
L 223.081872 266.183751 
L 223.442066 269.95455 
L 223.802259 270.434717 
L 224.162453 266.609756 
L 224.88284 250.460003 
L 225.243034 244.840397 
L 225.963421 230.425345 
L 226.323615 234.486176 
L 226.683808 233.473673 
L 227.404196 248.49208 
L 228.124583 253.611134 
L 228.484777 254.327566 
L 228.84497 255.623274 
L 229.205164 252.02423 
L 229.565358 250.621446 
L 229.925551 247.230995 
L 230.285745 248.620454 
L 230.645939 251.56283 
L 231.006132 286.727708 
L 231.366326 264.317968 
L 231.72652 270.339978 
L 232.086713 272.95247 
L 232.446907 272.077181 
L 232.807101 269.190417 
L 233.527488 252.288388 
L 234.608069 235.545557 
L 234.968263 237.820789 
L 235.328456 236.955108 
L 235.68865 241.233852 
L 236.048843 250.518746 
L 236.409037 255.591523 
L 236.769231 256.441666 
L 237.129424 258.190795 
L 237.489618 258.18255 
L 237.849812 256.036444 
L 238.210005 252.906828 
L 238.570199 253.598976 
L 238.930393 247.679311 
L 239.290586 264.179265 
L 239.65078 293.682977 
L 240.010974 306.115783 
L 240.371167 327.537388 
L 240.731361 331.99726 
L 241.091555 331.641834 
L 241.451748 320.172727 
L 241.811942 291.742415 
L 242.172136 274.017664 
L 242.892523 218.236892 
L 243.61291 208.823695 
L 243.973104 214.609549 
L 244.693491 258.67544 
L 245.053685 263.21504 
L 245.413878 285.079151 
L 245.774072 292.322247 
L 246.134266 274.360292 
L 246.494459 274.360316 
L 246.854653 258.595697 
L 247.214847 251.217096 
L 247.57504 252.763283 
L 247.935234 265.982755 
L 249.015815 320.579613 
L 249.376009 336.075843 
L 250.096396 315.929919 
L 251.537171 215.466041 
L 251.897364 209.382209 
L 252.257558 201.343044 
L 252.617751 210.247289 
L 252.977945 224.82869 
L 253.338139 231.796493 
L 254.058526 277.322262 
L 254.41872 278.040411 
L 254.778913 273.372449 
L 255.139107 254.182586 
L 255.499301 248.704218 
L 255.859494 251.057867 
L 256.219688 243.27657 
L 256.579882 252.457417 
L 256.940075 279.923931 
L 257.300269 293.236161 
L 257.660463 315.636884 
L 258.020656 319.058307 
L 258.38085 312.797785 
L 258.741044 300.733604 
L 259.101237 283.02283 
L 259.821625 214.815759 
L 260.542012 177.014574 
L 260.902205 179.696376 
L 261.262399 186.723545 
L 261.982786 233.025957 
L 262.34298 246.21397 
L 262.703174 254.159273 
L 263.063367 259.220364 
L 263.423561 256.980797 
L 264.143948 238.150671 
L 264.504142 225.118106 
L 264.864336 221.231133 
L 265.224529 237.499808 
L 265.584723 263.803051 
L 266.665304 304.856746 
L 267.025498 298.753516 
L 267.385691 297.265075 
L 268.826466 183.9961 
L 269.186659 167.480802 
L 269.546853 170.868272 
L 269.907047 178.379342 
L 270.26724 192.755437 
L 270.627434 219.646458 
L 270.987628 232.230804 
L 271.347821 252.5339 
L 271.708015 245.297006 
L 272.068209 248.879695 
L 272.428402 234.931077 
L 273.14879 215.846651 
L 273.869177 220.373089 
L 274.949758 284.862739 
L 275.309952 292.135002 
L 275.670145 292.088526 
L 276.030339 282.124798 
L 276.390533 263.277937 
L 277.11092 200.888858 
L 277.471114 178.226547 
L 277.831307 164.59977 
L 278.191501 168.0351 
L 278.551694 174.058201 
L 278.911888 187.275821 
L 279.992469 251.210517 
L 280.352663 247.443522 
L 280.712856 254.160479 
L 281.07305 228.554407 
L 281.433244 227.015447 
L 281.793437 228.474108 
L 282.153631 226.420775 
L 282.513825 233.346124 
L 283.234212 271.357516 
L 283.954599 311.923095 
L 284.314793 307.337849 
L 284.674987 293.207905 
L 285.03518 273.778761 
L 286.115761 189.844949 
L 286.475955 181.642603 
L 286.836148 181.484591 
L 287.196342 191.221424 
L 287.556536 204.823238 
L 287.916729 225.931926 
L 288.276923 239.118148 
L 288.637117 263.283758 
L 288.99731 254.467644 
L 289.357504 250.425192 
L 289.717698 258.267732 
L 290.077891 237.616294 
L 290.438085 235.867297 
L 290.798279 236.858316 
L 291.158472 259.139821 
L 291.518666 274.458687 
L 292.239053 314.582944 
L 292.599247 316.128633 
L 292.959441 327.716653 
L 293.319634 310.72096 
L 294.400215 231.186087 
L 294.760409 313.967232 
L 295.120602 195.021725 
L 295.480796 199.235957 
L 295.84099 206.970567 
L 296.561377 248.596617 
L 296.921571 270.61151 
L 297.281764 279.001294 
L 297.641958 277.086473 
L 298.002152 278.702105 
L 298.362345 269.765942 
L 298.722539 255.620996 
L 299.082733 256.310097 
L 299.442926 257.365613 
L 299.80312 270.426727 
L 300.163314 291.381326 
L 300.523507 299.297728 
L 300.883701 322.626953 
L 301.243895 333.099153 
L 301.604088 330.298256 
L 301.964282 317.791246 
L 302.684669 264.017406 
L 303.405056 212.289529 
L 303.76525 203.18734 
L 304.485637 216.044119 
L 304.845831 236.709566 
L 305.206025 247.314508 
L 305.566218 269.391107 
L 305.926412 284.474942 
L 306.286606 271.258231 
L 306.646799 277.892654 
L 307.006993 263.658091 
L 307.367187 265.601706 
L 307.72738 259.534689 
L 308.087574 256.497348 
L 308.447768 265.586486 
L 308.807961 289.264318 
L 309.168155 303.352354 
L 309.528349 332.021678 
L 309.888542 320.751863 
L 310.248736 333.9252 
L 312.049704 209.490073 
L 312.409898 206.177659 
L 312.770091 193.240064 
L 313.850672 243.254966 
L 314.210866 268.042242 
L 314.57106 277.26999 
L 314.931253 277.082285 
L 315.291447 266.846766 
L 315.651641 263.872195 
L 316.011834 247.258994 
L 316.372028 250.330458 
L 316.732222 244.528178 
L 317.092415 261.602708 
L 317.452609 273.117388 
L 318.172996 304.883714 
L 318.53319 316.648209 
L 318.893384 315.725825 
L 319.253577 297.270587 
L 319.613771 284.740668 
L 319.973964 249.121193 
L 320.334158 227.045022 
L 320.694352 197.366811 
L 321.054545 184.428577 
L 321.414739 186.373474 
L 321.774933 189.314908 
L 322.135126 205.995067 
L 322.49532 236.905581 
L 322.855514 241.251839 
L 323.575901 261.309095 
L 323.936095 254.840451 
L 325.016676 223.733322 
L 325.376869 227.465185 
L 325.737063 239.003797 
L 326.097257 263.763925 
L 326.45745 275.26729 
L 326.817644 296.939506 
L 327.177838 298.090555 
L 327.538031 299.827412 
L 327.898225 295.099745 
L 328.978806 210.71258 
L 329.338999 177.712098 
L 329.699193 166.458672 
L 330.059387 163.00107 
L 330.41958 182.479396 
L 330.779774 194.893966 
L 331.139968 221.545727 
L 331.500161 230.211038 
L 332.220549 252.661144 
L 332.580742 237.958434 
L 332.940936 233.637694 
L 333.30113 212.434059 
L 333.661323 219.690656 
L 334.021517 220.404881 
L 334.381711 227.549916 
L 335.462292 287.167611 
L 335.822485 300.124655 
L 336.182679 296.509218 
L 336.542873 287.288824 
L 337.623453 198.03478 
L 337.983647 183.430022 
L 338.343841 164.238377 
L 338.704034 168.01012 
L 339.064228 176.323581 
L 340.144809 235.289136 
L 340.505003 247.243598 
L 340.865196 253.870069 
L 341.22539 224.306794 
L 341.585584 231.066926 
L 341.945777 231.553167 
L 342.305971 214.146747 
L 342.666165 225.989352 
L 343.026358 227.01056 
L 343.386552 255.856395 
L 343.746746 268.553548 
L 344.106939 293.536095 
L 344.467133 308.029505 
L 345.18752 289.78559 
L 345.547714 269.939176 
L 346.628295 191.939411 
L 347.348682 178.785448 
L 348.069069 203.278479 
L 348.429263 233.0139 
L 348.789457 249.636157 
L 349.509844 269.527049 
L 349.870038 267.818952 
L 350.590425 240.103867 
L 350.950619 229.107251 
L 351.671006 248.216073 
L 352.391393 292.732062 
L 353.111781 316.405344 
L 353.471974 320.592272 
L 353.832168 309.028497 
L 354.192361 290.340164 
L 354.912749 235.005137 
L 355.272942 199.514568 
L 355.633136 191.726646 
L 355.99333 195.332479 
L 356.353523 206.340504 
L 356.713717 226.534417 
L 357.073911 253.437669 
L 357.434104 260.921898 
L 357.794298 281.435137 
L 358.154492 285.996047 
L 358.514685 278.275828 
L 358.874879 263.871982 
L 359.235073 255.273453 
L 359.595266 252.963674 
L 359.95546 248.447308 
L 361.756428 341.061075 
L 362.116622 332.833957 
L 362.476815 317.103506 
L 362.837009 307.516036 
L 363.557396 235.381595 
L 363.91759 215.443076 
L 364.637977 197.333723 
L 366.078752 270.437719 
L 366.438946 278.652119 
L 366.799139 291.816339 
L 367.159333 277.616434 
L 368.239914 254.524109 
L 368.600108 255.287263 
L 368.960301 283.192492 
L 369.320495 284.451026 
L 370.401076 343.073798 
L 371.481657 298.115072 
L 372.202044 230.435355 
L 372.562238 214.041077 
L 372.922431 206.321934 
L 373.282625 202.156619 
L 374.363206 240.59602 
L 374.7234 265.372792 
L 375.083593 277.224943 
L 375.803981 258.526659 
L 376.164174 259.219354 
L 376.524368 247.661147 
L 376.884562 241.184831 
L 377.244755 240.29223 
L 377.604949 249.579584 
L 377.965143 271.396505 
L 378.325336 286.030245 
L 378.68553 314.615465 
L 379.045724 319.893346 
L 379.405917 322.898674 
L 380.126304 278.89832 
L 380.846692 219.018167 
L 381.206885 203.214366 
L 381.567079 178.570652 
L 381.927273 184.17018 
L 383.728241 262.429936 
L 384.088435 263.332307 
L 384.448628 256.661919 
L 385.529209 219.92755 
L 385.889403 222.667069 
L 386.249597 244.419715 
L 386.60979 255.202167 
L 387.690371 308.851589 
L 388.410758 287.728051 
L 389.131146 238.932945 
L 389.491339 206.494715 
L 390.211727 162.077218 
L 390.57192 165.738976 
L 390.932114 175.68346 
L 391.292308 190.863418 
L 392.012695 238.09685 
L 392.372889 246.856847 
L 392.733082 241.623957 
L 393.093276 233.720468 
L 393.45347 229.120684 
L 393.813663 222.823235 
L 394.173857 220.001342 
L 394.534051 222.088901 
L 395.254438 235.444198 
L 395.974825 288.218803 
L 396.335019 295.387756 
L 396.695212 293.862929 
L 397.055406 281.821094 
L 397.4156 256.622867 
L 397.775793 241.644902 
L 398.135987 202.419869 
L 398.856374 164.327093 
L 399.216568 170.177604 
L 399.576762 188.920378 
L 399.936955 190.529017 
L 400.297149 222.787659 
L 400.657343 227.04702 
L 401.017536 260.251918 
L 401.737924 241.726451 
L 402.098117 237.19397 
L 402.458311 225.929641 
L 402.818505 220.805627 
L 403.178698 232.001925 
L 403.538892 233.02113 
L 404.979666 312.074051 
L 405.33986 302.738986 
L 405.700054 301.679997 
L 406.420441 250.544426 
L 406.780635 212.660096 
L 407.140828 190.038609 
L 407.501022 181.668617 
L 407.861216 180.202643 
L 408.221409 186.653052 
L 408.941797 231.196091 
L 409.30199 241.287683 
L 409.662184 269.271565 
L 410.022378 266.597081 
L 410.382571 261.983652 
L 411.102959 239.668226 
L 411.463152 235.950502 
L 411.823346 233.545694 
L 412.543733 279.041393 
L 412.903927 285.967591 
L 413.26412 312.59413 
L 413.624314 324.865094 
L 413.984508 316.642154 
L 414.344701 316.814031 
L 414.704895 295.407446 
L 415.425282 233.08462 
L 416.14567 194.845458 
L 416.505863 192.527515 
L 416.866057 204.982982 
L 417.226251 229.869009 
L 417.946638 258.924038 
L 418.306832 276.885885 
L 418.667025 287.117656 
L 419.387413 261.624491 
L 419.747606 253.358388 
L 420.1078 256.102003 
L 420.467994 260.929999 
L 421.188381 281.788509 
L 421.908768 320.929047 
L 422.268962 332.274589 
L 422.629155 335.215584 
L 422.989349 320.081099 
L 423.349543 291.638104 
L 423.709736 272.529451 
L 424.430124 216.85861 
L 424.790317 202.882741 
L 425.150511 201.760383 
L 425.510705 209.081816 
L 426.591286 270.20488 
L 426.951479 275.51239 
L 427.311673 293.57386 
L 427.671867 275.032519 
L 428.03206 276.1858 
L 428.752448 247.536046 
L 429.112641 261.396983 
L 429.472835 269.16807 
L 429.833029 279.547847 
L 430.193222 311.441727 
L 430.913609 334.130169 
L 431.273803 333.35025 
L 432.354384 269.603363 
L 432.714578 227.253075 
L 433.074771 204.605087 
L 433.434965 205.816257 
L 433.795159 186.163706 
L 434.155352 204.59419 
L 434.515546 229.662387 
L 434.87574 242.596986 
L 435.235933 263.647442 
L 435.596127 270.045626 
L 435.956321 269.662058 
L 436.316514 261.681475 
L 436.676708 259.731552 
L 437.036902 252.767001 
L 437.397095 243.134321 
L 437.757289 242.574082 
L 438.117483 260.261394 
L 438.477676 270.404683 
L 438.83787 283.802627 
L 439.558257 325.047311 
L 439.918451 313.767379 
L 440.278644 309.280168 
L 440.999032 249.741993 
L 441.719419 195.457861 
L 442.079613 182.603433 
L 442.439806 181.273849 
L 442.8 188.028389 
L 443.520387 233.85646 
L 443.880581 249.732672 
L 444.240775 249.991639 
L 444.600968 258.737776 
L 444.961162 252.304344 
L 445.681549 229.780437 
L 446.041743 232.496715 
L 446.401937 226.88884 
L 446.76213 234.05539 
L 447.842711 295.963995 
L 448.202905 302.698934 
L 448.563098 305.946402 
L 448.923292 292.791732 
L 450.003873 206.06381 
L 450.72426 161.1282 
L 451.084454 160.519771 
L 451.444648 183.604302 
L 452.885422 240.159296 
L 453.245616 252.452724 
L 453.60581 247.706373 
L 453.966003 231.536233 
L 454.686391 211.519586 
L 455.766971 243.307645 
L 456.487359 287.136775 
L 457.207746 300.07741 
L 457.56794 271.183489 
L 457.928133 262.312251 
L 459.008714 176.524314 
L 459.368908 168.666133 
L 459.729102 176.577122 
L 460.089295 175.308789 
L 461.169876 237.968366 
L 461.53007 243.61728 
L 462.250457 248.350166 
L 462.610651 229.637555 
L 462.970845 224.100675 
L 463.331038 223.057916 
L 464.051425 231.060878 
L 464.411619 248.871981 
L 464.771813 280.599733 
L 465.4922 308.117123 
L 465.852394 303.099023 
L 466.212587 288.904396 
L 466.932975 247.443184 
L 467.653362 194.062404 
L 468.013556 182.228975 
L 468.373749 184.095864 
L 468.733943 187.404116 
L 469.814524 244.718528 
L 470.174718 255.004836 
L 470.534911 258.072764 
L 470.895105 251.737737 
L 471.255299 250.559138 
L 471.615492 239.629291 
L 471.975686 240.017469 
L 472.33588 243.896593 
L 472.696073 257.838143 
L 473.056267 265.655221 
L 473.41646 295.274346 
L 474.136848 318.729162 
L 474.497041 317.596171 
L 474.857235 312.180875 
L 475.217429 293.914119 
L 475.577622 255.30022 
L 476.658203 196.44475 
L 477.018397 203.227797 
L 477.378591 206.840141 
L 478.459172 258.521053 
L 478.819365 281.411759 
L 479.179559 286.002601 
L 479.539753 269.336925 
L 479.899946 269.192102 
L 480.26014 253.188943 
L 480.620334 257.009961 
L 480.980527 251.743971 
L 481.340721 264.754459 
L 482.061108 308.694074 
L 482.421302 315.734194 
L 482.781495 330.741761 
L 483.141689 340.289134 
L 483.501883 323.32116 
L 484.22227 272.912981 
L 484.942657 217.059356 
L 485.302851 208.15616 
L 485.663045 208.833298 
L 486.023238 216.592164 
L 486.383432 227.426062 
L 486.743626 258.190073 
L 487.464013 285.988064 
L 487.824207 285.08377 
L 489.264981 252.408805 
L 489.625175 249.572854 
L 489.985368 265.736356 
L 490.345562 288.99664 
L 491.426143 332.755166 
L 491.786337 326.981915 
L 492.866918 276.477707 
L 493.227111 234.226479 
L 493.587305 220.651793 
L 493.947499 200.975079 
L 494.307692 201.026761 
L 494.667886 209.026346 
L 495.02808 225.542497 
L 495.388273 249.143506 
L 495.748467 261.967095 
L 496.108661 279.460812 
L 496.468854 276.560644 
L 496.829048 274.973073 
L 497.549435 250.778247 
L 497.909629 242.688701 
L 498.269822 238.137948 
L 498.99021 275.773936 
L 499.350403 287.306732 
L 500.070791 320.511921 
L 500.430984 320.194543 
L 501.871759 230.121545 
L 502.592146 177.437263 
L 502.95234 188.303053 
L 503.312534 185.651072 
L 504.032921 229.223226 
L 504.393115 262.404 
L 504.753308 263.885692 
L 505.113502 254.217618 
L 505.473696 250.066195 
L 505.833889 238.427194 
L 506.194083 219.445534 
L 506.554276 226.743874 
L 506.91447 238.814867 
L 507.274664 238.95137 
L 507.995051 280.628338 
L 508.355245 285.749089 
L 508.715438 304.828209 
L 509.075632 309.626224 
L 509.796019 266.686054 
L 510.156213 226.662024 
L 510.516407 211.89926 
L 510.8766 182.246394 
L 511.236794 66.96 
L 511.596988 167.992024 
L 511.957181 186.827436 
L 512.317375 191.798727 
L 513.037762 238.024798 
L 513.75815 247.218504 
L 514.118343 244.794231 
L 514.838731 219.474325 
L 515.198924 223.840026 
L 515.559118 216.550403 
L 515.919311 224.160786 
L 516.279505 239.442374 
L 516.639699 273.697372 
L 516.999892 281.259654 
L 517.360086 298.776983 
L 517.72028 300.132879 
L 518.440667 259.658866 
L 519.161054 202.827594 
L 519.881442 164.410748 
L 520.241635 162.565683 
L 520.962023 185.980887 
L 521.322216 219.270407 
L 522.042604 247.304771 
L 522.402797 245.234488 
L 522.762991 249.401848 
L 523.123185 232.957704 
L 523.483378 228.323693 
L 523.843572 215.977093 
L 524.563959 237.112233 
L 524.924153 261.914084 
L 525.284346 275.878697 
L 525.64454 294.634704 
L 526.004734 303.510326 
L 526.364927 293.370833 
L 526.725121 296.856334 
L 528.165896 189.890643 
L 528.526089 185.262453 
L 528.886283 174.205897 
L 529.246477 186.668727 
L 529.60667 212.945308 
L 529.966864 230.045223 
L 530.327058 240.476129 
L 530.687251 263.642812 
L 531.047445 260.383461 
L 531.407639 256.10644 
L 531.767832 250.261875 
L 532.128026 231.460856 
L 532.488219 240.985786 
L 532.848413 240.431849 
L 533.208607 247.882234 
L 533.5688 268.227 
L 533.928994 295.082251 
L 534.649381 326.678333 
L 535.009575 319.259089 
L 535.369769 304.905424 
L 535.729962 284.280597 
L 536.810543 207.647459 
L 537.170737 203.329461 
L 537.530931 195.543199 
L 537.891124 203.277525 
L 538.251318 214.841751 
L 538.971705 269.794202 
L 539.331899 280.794154 
L 539.692093 278.038827 
L 540.052286 272.042103 
L 540.41248 369.36 
L 540.772673 254.704499 
L 541.132867 257.040508 
L 541.493061 262.362826 
L 541.853254 272.76233 
L 542.213448 290.772783 
L 542.573642 317.46771 
L 542.933835 327.973474 
L 543.294029 344.358617 
L 543.654223 342.949112 
L 544.014416 334.3864 
L 544.37461 311.269506 
L 544.734804 268.64244 
L 545.455191 216.189514 
L 545.815385 196.145713 
L 546.175578 191.089353 
L 547.976547 291.798161 
L 548.33674 297.5726 
L 548.696934 276.016403 
L 549.057127 277.669279 
L 549.417321 271.019316 
L 549.777515 251.460251 
L 550.137708 258.259916 
L 550.497902 259.858657 
L 550.858096 292.163291 
L 551.218289 307.630918 
L 551.578483 339.410416 
L 551.938677 345.686653 
L 552.29887 349.978671 
L 553.019258 303.813182 
L 553.379451 264.089293 
L 554.460032 186.464809 
L 554.820226 191.918085 
L 555.540613 216.19745 
L 555.900807 251.107523 
L 556.261001 269.46254 
L 556.981388 279.871992 
L 557.341581 264.894986 
L 557.701775 258.198524 
L 558.422162 235.729849 
L 558.782356 252.156583 
L 559.14255 254.300719 
L 559.502743 278.112533 
L 559.862937 292.276943 
L 560.223131 319.228457 
L 560.943518 340.540813 
L 561.303712 319.788063 
L 562.024099 252.579031 
L 562.744486 191.873316 
L 563.10468 175.418934 
L 563.464874 174.041491 
L 564.185261 202.391603 
L 564.545455 226.846537 
L 565.265842 251.326833 
L 565.626036 256.141286 
L 565.986229 259.342207 
L 566.346423 238.422135 
L 567.06681 221.59918 
L 567.427004 224.226202 
L 567.787197 243.578429 
L 568.147391 252.872508 
L 569.227972 314.76376 
L 569.588166 321.436283 
L 569.948359 296.373551 
L 571.02894 192.718567 
L 571.389134 174.646227 
L 571.749328 147.593752 
L 572.469715 167.028803 
L 573.190102 201.882761 
L 573.550296 235.142069 
L 573.91049 234.407971 
L 574.270683 250.31455 
L 574.99107 238.455907 
L 575.711458 203.994279 
L 576.071651 204.526134 
L 577.512426 290.216613 
L 577.87262 301.5777 
L 578.232813 297.805499 
L 578.593007 287.846677 
L 580.033782 177.147575 
L 580.393975 158.268687 
L 580.754169 150.509545 
L 581.114363 157.646309 
L 581.474556 192.057446 
L 582.555137 247.450761 
L 582.915331 247.650348 
L 583.275524 230.950825 
L 583.635718 237.053568 
L 583.995912 220.128367 
L 584.356105 223.321756 
L 585.076493 233.383289 
L 585.436686 262.016919 
L 586.157074 298.786695 
L 586.517267 310.587439 
L 586.877461 310.896098 
L 587.237655 299.030922 
L 587.597848 274.631645 
L 588.318236 206.878589 
L 588.678429 178.678119 
L 589.038623 173.45576 
L 589.398817 176.342992 
L 589.75901 181.946489 
L 591.199785 270.437086 
L 591.559978 261.588518 
L 591.920172 258.161427 
L 592.280366 251.855265 
L 592.640559 248.009968 
L 593.000753 238.751472 
L 593.360947 235.409254 
L 593.72114 261.937209 
L 594.081334 268.028549 
L 594.801721 324.198893 
L 595.161915 334.891386 
L 595.522109 335.226446 
L 595.882302 320.273858 
L 596.242496 293.74949 
L 596.962883 222.585987 
L 597.683271 189.492652 
L 598.043464 190.039656 
L 598.403658 194.640427 
L 598.763852 223.57931 
L 599.124045 238.489495 
L 599.484239 261.374007 
L 600.204626 287.858942 
L 600.925013 268.208821 
L 601.285207 250.995408 
L 601.645401 243.316658 
L 602.005594 259.819005 
L 602.365788 261.497118 
L 602.725982 293.831595 
L 603.086175 309.786318 
L 603.446369 330.667428 
L 603.806563 336.345558 
L 604.166756 348.004145 
L 605.247337 274.180313 
L 605.967725 211.755959 
L 606.327918 202.752636 
L 606.688112 189.110991 
L 607.408499 235.396586 
L 607.768693 239.607933 
L 608.128886 275.141841 
L 608.48908 278.375985 
L 608.849274 283.644774 
L 609.209467 286.996608 
L 609.569661 275.74254 
L 609.929855 259.310822 
L 610.290048 249.707056 
L 610.650242 266.108408 
L 611.010436 271.047927 
L 612.091017 331.174696 
L 612.45121 343.091958 
L 612.811404 347.960974 
L 613.171598 323.138525 
L 613.531791 309.694575 
L 614.612372 204.426908 
L 614.972566 192.80734 
L 615.33276 195.539541 
L 615.692953 201.125984 
L 616.053147 218.183587 
L 616.413341 248.018741 
L 616.773534 267.503753 
L 617.133728 267.034008 
L 617.493921 277.960974 
L 617.854115 272.415352 
L 618.574502 249.02297 
L 618.934696 241.015656 
L 619.29489 241.83751 
L 619.655083 254.494965 
L 620.015277 275.824524 
L 620.375471 308.285293 
L 621.095858 325.946858 
L 621.456052 334.536113 
L 621.816245 304.960863 
L 622.176439 288.226062 
L 623.25702 193.458906 
L 623.617214 167.310896 
L 624.337601 178.633794 
L 625.418182 250.222237 
L 625.778375 249.891316 
L 626.138569 259.793835 
L 626.498763 251.676926 
L 627.21915 225.503701 
L 627.579344 226.263367 
L 627.939537 223.935488 
L 628.299731 237.654875 
L 629.020118 278.193153 
L 629.740506 318.669321 
L 630.100699 308.303809 
L 630.460893 293.138107 
L 630.821087 265.394796 
L 631.18128 222.471847 
L 631.541474 203.640673 
L 631.901668 171.964276 
L 632.622055 157.316957 
L 632.982249 181.260611 
L 633.342442 188.214762 
L 633.702636 216.70904 
L 634.062829 229.36216 
L 634.423023 251.008499 
L 634.783217 242.777973 
L 635.14341 247.41584 
L 635.863798 206.081276 
L 636.223991 206.963769 
L 636.584185 210.605495 
L 636.944379 223.924149 
L 637.304572 258.062123 
L 637.664766 278.493509 
L 638.02496 292.354534 
L 638.385153 311.454583 
L 638.745347 301.378836 
L 639.105541 277.686498 
L 639.465734 264.800611 
L 640.186122 193.058445 
L 640.906509 157.500723 
L 641.266703 159.26745 
L 641.626896 175.840316 
L 641.98709 178.517143 
L 643.067671 250.964041 
L 643.427864 244.597335 
L 643.788058 250.566294 
L 644.148252 235.053928 
L 644.508445 233.033534 
L 644.868639 212.994569 
L 645.228833 220.286694 
L 645.589026 232.966051 
L 646.309414 281.060658 
L 646.669607 304.364637 
L 647.389995 318.836113 
L 648.830769 213.818941 
L 649.190963 178.271396 
L 649.551157 168.217389 
L 649.91135 162.53542 
L 650.271544 176.687145 
L 650.631737 198.299458 
L 650.991931 237.576474 
L 651.352125 252.476162 
L 651.712318 261.64961 
L 652.072512 260.65836 
L 652.432706 260.407624 
L 653.513287 239.485964 
L 653.87348 244.010222 
L 654.233674 253.297729 
L 654.593868 266.010932 
L 654.954061 299.189266 
L 655.314255 320.902126 
L 655.674449 334.503992 
L 656.034642 342.756352 
L 656.394836 318.137149 
L 656.75503 285.223942 
L 657.115223 267.202848 
L 657.475417 229.025317 
L 657.835611 203.516595 
L 658.195804 187.089798 
L 658.555998 187.024798 
L 659.276385 220.806188 
L 659.636579 252.863654 
L 659.996772 268.638898 
L 660.71716 286.158224 
L 661.797741 252.65267 
L 662.157934 255.365934 
L 662.518128 245.057796 
L 662.878322 261.038083 
L 663.238515 295.207077 
L 663.598709 314.890458 
L 663.958903 347.284195 
L 664.319096 359.920083 
L 665.039484 325.506002 
L 665.399677 310.485872 
L 666.120065 236.134826 
L 666.480258 207.577357 
L 666.840452 199.335376 
L 667.200646 199.41109 
L 667.560839 219.583198 
L 667.921033 229.278834 
L 668.281226 256.36919 
L 669.361807 294.675806 
L 669.722001 290.215845 
L 670.082195 272.508407 
L 670.442388 263.029045 
L 671.162776 256.758559 
L 671.522969 267.460137 
L 672.243357 318.737766 
L 672.60355 326.169442 
L 672.963744 339.963119 
L 673.323938 336.659538 
L 673.684131 335.369674 
L 674.404519 264.729882 
L 675.124906 203.03422 
L 675.4851 195.85148 
L 675.845293 200.096158 
L 676.205487 192.724181 
L 676.56568 231.061754 
L 676.925874 241.691924 
L 677.286068 266.020829 
L 677.646261 278.823856 
L 678.006455 279.076664 
L 678.366649 273.860757 
L 678.726842 260.319005 
L 679.087036 253.338268 
L 679.44723 238.973524 
L 679.807423 245.044479 
L 680.167617 256.389075 
L 681.248198 316.019558 
L 681.608392 332.723301 
L 681.968585 325.560971 
L 682.688973 286.203807 
L 683.049166 245.411483 
L 684.129747 175.157014 
L 684.489941 181.303723 
L 684.850134 178.7066 
L 685.210328 210.335628 
L 686.290909 251.811916 
L 686.651103 261.944257 
L 687.011296 242.619107 
L 687.37149 242.124804 
L 688.091877 222.508069 
L 688.812265 234.259418 
L 689.532652 285.911674 
L 689.892846 306.503698 
L 690.253039 317.638633 
L 690.613233 302.93463 
L 690.973427 298.103624 
L 692.774395 154.57963 
L 693.854976 180.565283 
L 694.575363 229.942597 
L 694.935557 243.12621 
L 695.29575 237.781527 
L 695.655944 246.769553 
L 696.016138 221.777425 
L 696.376331 220.449085 
L 696.736525 216.588228 
L 697.096719 218.762558 
L 697.456912 233.238519 
L 698.1773 272.071769 
L 698.537493 301.065729 
L 698.897687 306.104976 
L 699.257881 303.311985 
L 699.618074 296.533067 
L 699.978268 261.87546 
L 700.338462 215.906088 
L 700.698655 190.311265 
L 701.058849 172.977847 
L 701.419042 165.23991 
L 701.779236 153.482079 
L 702.13943 162.763982 
L 702.499623 176.365557 
L 703.220011 229.251387 
L 703.940398 249.727264 
L 704.300592 234.639181 
L 704.660785 231.397386 
L 705.020979 225.86084 
L 705.381173 215.848157 
L 705.741366 214.493789 
L 706.461754 257.679573 
L 707.182141 302.247652 
L 707.542335 314.915829 
L 707.902528 303.97643 
L 708.262722 297.330523 
L 708.622916 279.342761 
L 708.983109 236.004795 
L 709.703497 191.303962 
L 710.06369 181.111833 
L 710.423884 165.372749 
L 710.784077 180.769408 
L 711.144271 211.102342 
L 711.864658 246.857048 
L 712.224852 268.968329 
L 712.585046 273.088833 
L 712.945239 258.079744 
L 713.665627 245.973481 
L 714.02582 235.488394 
L 714.386014 231.899591 
L 716.186982 335.343054 
L 716.547176 325.63203 
L 717.267563 295.877082 
L 717.987951 227.698356 
L 718.348144 205.694297 
L 718.708338 202.910195 
L 719.068531 181.252062 
L 719.428725 197.09161 
L 719.788919 218.161199 
L 720.149112 249.014334 
L 720.509306 261.259159 
L 720.8695 289.94099 
L 721.229693 284.20709 
L 721.589887 270.183819 
L 722.310274 253.98121 
L 722.670468 252.57365 
L 723.390855 266.566216 
L 724.83163 345.976527 
L 725.191824 339.410859 
L 725.552017 337.15142 
L 726.272405 273.39995 
L 726.992792 211.226531 
L 727.352985 201.157109 
L 727.713179 198.701781 
L 728.433566 231.639206 
L 728.79376 246.653471 
L 729.153954 275.197354 
L 729.874341 288.944577 
L 730.234535 281.978211 
L 730.954922 262.137294 
L 731.675309 253.655357 
L 732.035503 274.392448 
L 732.395697 288.405004 
L 733.476278 346.264043 
L 733.836471 332.988005 
L 734.196665 327.94692 
L 734.556859 308.661895 
L 735.277246 226.693808 
L 735.997633 195.980129 
L 736.357827 187.043257 
L 736.71802 191.837079 
L 737.078214 223.513201 
L 737.438408 240.229639 
L 737.798601 248.643685 
L 738.158795 281.297752 
L 738.518989 277.087722 
L 738.879182 281.871626 
L 739.239376 259.515325 
L 739.59957 249.531062 
L 739.959763 250.715663 
L 740.319957 253.363178 
L 740.680151 267.0135 
L 741.040344 275.312682 
L 741.400538 293.67814 
L 741.760732 324.187709 
L 742.120925 314.804522 
L 742.481119 322.981679 
L 742.841313 308.51418 
L 743.201506 281.477417 
L 743.201506 281.477417 
" style="fill:none;stroke:#1f77b4;stroke-linecap:square;stroke-width:1.5;"/>
   </g>
   <g id="line2d_16">
    <path clip-path="url(#paa1932e849)" d="M 747.163636 384.48 
L 747.163636 51.84 
" style="fill:none;stroke:#808080;stroke-linecap:square;"/>
   </g>
   <g id="patch_108">
    <path d="M 108 384.48 
L 108 51.84 
" style="fill:none;stroke:#000000;stroke-linecap:square;stroke-linejoin:miter;stroke-width:0.8;"/>
   </g>
   <g id="patch_109">
    <path d="M 777.6 384.48 
L 777.6 51.84 
" style="fill:none;stroke:#000000;stroke-linecap:square;stroke-linejoin:miter;stroke-width:0.8;"/>
   </g>
   <g id="patch_110">
    <path d="M 108 384.48 
L 777.6 384.48 
" style="fill:none;stroke:#000000;stroke-linecap:square;stroke-linejoin:miter;stroke-width:0.8;"/>
   </g>
   <g id="patch_111">
    <path d="M 108 51.84 
L 777.6 51.84 
" style="fill:none;stroke:#000000;stroke-linecap:square;stroke-linejoin:miter;stroke-width:0.8;"/>
   </g>
   <g id="text_17">
    <!-- A4Benchmark-TS72.csv -->
    <defs>
     <path d="M 34.1875 63.1875 
L 20.796875 26.90625 
L 47.609375 26.90625 
z
M 28.609375 72.90625 
L 39.796875 72.90625 
L 67.578125 0 
L 57.328125 0 
L 50.6875 18.703125 
L 17.828125 18.703125 
L 11.1875 0 
L 0.78125 0 
z
" id="DejaVuSans-65"/>
     <path d="M 37.796875 64.3125 
L 12.890625 25.390625 
L 37.796875 25.390625 
z
M 35.203125 72.90625 
L 47.609375 72.90625 
L 47.609375 25.390625 
L 58.015625 25.390625 
L 58.015625 17.1875 
L 47.609375 17.1875 
L 47.609375 0 
L 37.796875 0 
L 37.796875 17.1875 
L 4.890625 17.1875 
L 4.890625 26.703125 
z
" id="DejaVuSans-52"/>
     <path d="M 19.671875 34.8125 
L 19.671875 8.109375 
L 35.5 8.109375 
Q 43.453125 8.109375 47.28125 11.40625 
Q 51.125 14.703125 51.125 21.484375 
Q 51.125 28.328125 47.28125 31.5625 
Q 43.453125 34.8125 35.5 34.8125 
z
M 19.671875 64.796875 
L 19.671875 42.828125 
L 34.28125 42.828125 
Q 41.5 42.828125 45.03125 45.53125 
Q 48.578125 48.25 48.578125 53.8125 
Q 48.578125 59.328125 45.03125 62.0625 
Q 41.5 64.796875 34.28125 64.796875 
z
M 9.8125 72.90625 
L 35.015625 72.90625 
Q 46.296875 72.90625 52.390625 68.21875 
Q 58.5 63.53125 58.5 54.890625 
Q 58.5 48.1875 55.375 44.234375 
Q 52.25 40.28125 46.1875 39.3125 
Q 53.46875 37.75 57.5 32.78125 
Q 61.53125 27.828125 61.53125 20.40625 
Q 61.53125 10.640625 54.890625 5.3125 
Q 48.25 0 35.984375 0 
L 9.8125 0 
z
" id="DejaVuSans-66"/>
     <path d="M 54.890625 33.015625 
L 54.890625 0 
L 45.90625 0 
L 45.90625 32.71875 
Q 45.90625 40.484375 42.875 44.328125 
Q 39.84375 48.1875 33.796875 48.1875 
Q 26.515625 48.1875 22.3125 43.546875 
Q 18.109375 38.921875 18.109375 30.90625 
L 18.109375 0 
L 9.078125 0 
L 9.078125 54.6875 
L 18.109375 54.6875 
L 18.109375 46.1875 
Q 21.34375 51.125 25.703125 53.5625 
Q 30.078125 56 35.796875 56 
Q 45.21875 56 50.046875 50.171875 
Q 54.890625 44.34375 54.890625 33.015625 
z
" id="DejaVuSans-110"/>
     <path d="M 48.78125 52.59375 
L 48.78125 44.1875 
Q 44.96875 46.296875 41.140625 47.34375 
Q 37.3125 48.390625 33.40625 48.390625 
Q 24.65625 48.390625 19.8125 42.84375 
Q 14.984375 37.3125 14.984375 27.296875 
Q 14.984375 17.28125 19.8125 11.734375 
Q 24.65625 6.203125 33.40625 6.203125 
Q 37.3125 6.203125 41.140625 7.25 
Q 44.96875 8.296875 48.78125 10.40625 
L 48.78125 2.09375 
Q 45.015625 0.34375 40.984375 -0.53125 
Q 36.96875 -1.421875 32.421875 -1.421875 
Q 20.0625 -1.421875 12.78125 6.34375 
Q 5.515625 14.109375 5.515625 27.296875 
Q 5.515625 40.671875 12.859375 48.328125 
Q 20.21875 56 33.015625 56 
Q 37.15625 56 41.109375 55.140625 
Q 45.0625 54.296875 48.78125 52.59375 
z
" id="DejaVuSans-99"/>
     <path d="M 54.890625 33.015625 
L 54.890625 0 
L 45.90625 0 
L 45.90625 32.71875 
Q 45.90625 40.484375 42.875 44.328125 
Q 39.84375 48.1875 33.796875 48.1875 
Q 26.515625 48.1875 22.3125 43.546875 
Q 18.109375 38.921875 18.109375 30.90625 
L 18.109375 0 
L 9.078125 0 
L 9.078125 75.984375 
L 18.109375 75.984375 
L 18.109375 46.1875 
Q 21.34375 51.125 25.703125 53.5625 
Q 30.078125 56 35.796875 56 
Q 45.21875 56 50.046875 50.171875 
Q 54.890625 44.34375 54.890625 33.015625 
z
" id="DejaVuSans-104"/>
     <path d="M 41.109375 46.296875 
Q 39.59375 47.171875 37.8125 47.578125 
Q 36.03125 48 33.890625 48 
Q 26.265625 48 22.1875 43.046875 
Q 18.109375 38.09375 18.109375 28.8125 
L 18.109375 0 
L 9.078125 0 
L 9.078125 54.6875 
L 18.109375 54.6875 
L 18.109375 46.1875 
Q 20.953125 51.171875 25.484375 53.578125 
Q 30.03125 56 36.53125 56 
Q 37.453125 56 38.578125 55.875 
Q 39.703125 55.765625 41.0625 55.515625 
z
" id="DejaVuSans-114"/>
     <path d="M 9.078125 75.984375 
L 18.109375 75.984375 
L 18.109375 31.109375 
L 44.921875 54.6875 
L 56.390625 54.6875 
L 27.390625 29.109375 
L 57.625 0 
L 45.90625 0 
L 18.109375 26.703125 
L 18.109375 0 
L 9.078125 0 
z
" id="DejaVuSans-107"/>
     <path d="M 4.890625 31.390625 
L 31.203125 31.390625 
L 31.203125 23.390625 
L 4.890625 23.390625 
z
" id="DejaVuSans-45"/>
     <path d="M 53.515625 70.515625 
L 53.515625 60.890625 
Q 47.90625 63.578125 42.921875 64.890625 
Q 37.9375 66.21875 33.296875 66.21875 
Q 25.25 66.21875 20.875 63.09375 
Q 16.5 59.96875 16.5 54.203125 
Q 16.5 49.359375 19.40625 46.890625 
Q 22.3125 44.4375 30.421875 42.921875 
L 36.375 41.703125 
Q 47.40625 39.59375 52.65625 34.296875 
Q 57.90625 29 57.90625 20.125 
Q 57.90625 9.515625 50.796875 4.046875 
Q 43.703125 -1.421875 29.984375 -1.421875 
Q 24.8125 -1.421875 18.96875 -0.25 
Q 13.140625 0.921875 6.890625 3.21875 
L 6.890625 13.375 
Q 12.890625 10.015625 18.65625 8.296875 
Q 24.421875 6.59375 29.984375 6.59375 
Q 38.421875 6.59375 43.015625 9.90625 
Q 47.609375 13.234375 47.609375 19.390625 
Q 47.609375 24.75 44.3125 27.78125 
Q 41.015625 30.8125 33.5 32.328125 
L 27.484375 33.5 
Q 16.453125 35.6875 11.515625 40.375 
Q 6.59375 45.0625 6.59375 53.421875 
Q 6.59375 63.09375 13.40625 68.65625 
Q 20.21875 74.21875 32.171875 74.21875 
Q 37.3125 74.21875 42.625 73.28125 
Q 47.953125 72.359375 53.515625 70.515625 
z
" id="DejaVuSans-83"/>
     <path d="M 10.6875 12.40625 
L 21 12.40625 
L 21 0 
L 10.6875 0 
z
" id="DejaVuSans-46"/>
     <path d="M 2.984375 54.6875 
L 12.5 54.6875 
L 29.59375 8.796875 
L 46.6875 54.6875 
L 56.203125 54.6875 
L 35.6875 0 
L 23.484375 0 
z
" id="DejaVuSans-118"/>
    </defs>
    <g transform="translate(371.555625 45.84)scale(0.12 -0.12)">
     <use xlink:href="#DejaVuSans-65"/>
     <use x="68.408203" xlink:href="#DejaVuSans-52"/>
     <use x="132.03125" xlink:href="#DejaVuSans-66"/>
     <use x="200.634766" xlink:href="#DejaVuSans-101"/>
     <use x="262.158203" xlink:href="#DejaVuSans-110"/>
     <use x="325.537109" xlink:href="#DejaVuSans-99"/>
     <use x="380.517578" xlink:href="#DejaVuSans-104"/>
     <use x="443.896484" xlink:href="#DejaVuSans-109"/>
     <use x="541.308594" xlink:href="#DejaVuSans-97"/>
     <use x="602.587891" xlink:href="#DejaVuSans-114"/>
     <use x="643.701172" xlink:href="#DejaVuSans-107"/>
     <use x="701.611328" xlink:href="#DejaVuSans-45"/>
     <use x="737.554688" xlink:href="#DejaVuSans-84"/>
     <use x="798.638672" xlink:href="#DejaVuSans-83"/>
     <use x="862.115234" xlink:href="#DejaVuSans-55"/>
     <use x="925.738281" xlink:href="#DejaVuSans-50"/>
     <use x="989.361328" xlink:href="#DejaVuSans-46"/>
     <use x="1021.148438" xlink:href="#DejaVuSans-99"/>
     <use x="1076.128906" xlink:href="#DejaVuSans-115"/>
     <use x="1128.228516" xlink:href="#DejaVuSans-118"/>
    </g>
   </g>
   <g id="legend_1">
    <g id="patch_112">
     <path d="M 115 74.518125 
L 174.315625 74.518125 
Q 176.315625 74.518125 176.315625 72.518125 
L 176.315625 58.84 
Q 176.315625 56.84 174.315625 56.84 
L 115 56.84 
Q 113 56.84 113 58.84 
L 113 72.518125 
Q 113 74.518125 115 74.518125 
z
" style="fill:#ffffff;opacity:0.8;stroke:#cccccc;stroke-linejoin:miter;"/>
    </g>
    <g id="line2d_17">
     <path d="M 117 64.938438 
L 137 64.938438 
" style="fill:none;stroke:#1f77b4;stroke-linecap:square;stroke-width:1.5;"/>
    </g>
    <g id="line2d_18"/>
    <g id="text_18">
     <!-- value -->
     <g transform="translate(145 68.438438)scale(0.1 -0.1)">
      <use xlink:href="#DejaVuSans-118"/>
      <use x="59.179688" xlink:href="#DejaVuSans-97"/>
      <use x="120.458984" xlink:href="#DejaVuSans-108"/>
      <use x="148.242188" xlink:href="#DejaVuSans-117"/>
      <use x="211.621094" xlink:href="#DejaVuSans-101"/>
     </g>
    </g>
   </g>
  </g>
 </g>
 <defs>
  <clipPath id="paa1932e849">
   <rect height="332.64" width="669.6" x="108" y="51.84"/>
  </clipPath>
 </defs>
</svg>
