<?xml version="1.0" encoding="utf-8" standalone="no"?>
<!DOCTYPE svg PUBLIC "-//W3C//DTD SVG 1.1//EN"
  "http://www.w3.org/Graphics/SVG/1.1/DTD/svg11.dtd">
<!-- Created with matplotlib (https://matplotlib.org/) -->
<svg height="432pt" version="1.1" viewBox="0 0 864 432" width="864pt" xmlns="http://www.w3.org/2000/svg" xmlns:xlink="http://www.w3.org/1999/xlink">
 <defs>
  <style type="text/css">
*{stroke-linecap:butt;stroke-linejoin:round;}
  </style>
 </defs>
 <g id="figure_1">
  <g id="patch_1">
   <path d="M 0 432 
L 864 432 
L 864 0 
L 0 0 
z
" style="fill:#ffffff;"/>
  </g>
  <g id="axes_1">
   <g id="patch_2">
    <path d="M 108 384.48 
L 777.6 384.48 
L 777.6 51.84 
L 108 51.84 
z
" style="fill:#ffffff;"/>
   </g>
   <g id="patch_3">
    <path clip-path="url(#p54e66d506c)" d="M 138.436364 384.48 
L 138.436364 51.84 
L 440.999032 51.84 
L 440.999032 384.48 
z
" style="fill:#0000ff;opacity:0.05;"/>
   </g>
   <g id="patch_4">
    <path clip-path="url(#p54e66d506c)" d="M 440.999032 384.48 
L 440.999032 51.84 
L 747.163636 51.84 
L 747.163636 384.48 
z
" style="fill:#ff0000;opacity:0.08;"/>
   </g>
   <g id="patch_5">
    <path clip-path="url(#p54e66d506c)" d="M 138.436364 384.48 
L 138.436364 51.84 
L 142.0383 51.84 
L 142.0383 384.48 
z
" style="fill:#008000;opacity:0.04;"/>
   </g>
   <g id="patch_6">
    <path clip-path="url(#p54e66d506c)" d="M 145.640237 384.48 
L 145.640237 51.84 
L 149.242173 51.84 
L 149.242173 384.48 
z
" style="fill:#008000;opacity:0.04;"/>
   </g>
   <g id="patch_7">
    <path clip-path="url(#p54e66d506c)" d="M 149.242173 384.48 
L 149.242173 371.1744 
L 152.84411 371.1744 
L 152.84411 384.48 
z
" style="fill:#ffe500;"/>
   </g>
   <g id="patch_8">
    <path clip-path="url(#p54e66d506c)" d="M 152.84411 384.48 
L 152.84411 51.84 
L 156.446046 51.84 
L 156.446046 384.48 
z
" style="fill:#008000;opacity:0.04;"/>
   </g>
   <g id="patch_9">
    <path clip-path="url(#p54e66d506c)" d="M 160.047983 384.48 
L 160.047983 51.84 
L 163.649919 51.84 
L 163.649919 384.48 
z
" style="fill:#008000;opacity:0.04;"/>
   </g>
   <g id="patch_10">
    <path clip-path="url(#p54e66d506c)" d="M 167.251856 384.48 
L 167.251856 51.84 
L 170.853792 51.84 
L 170.853792 384.48 
z
" style="fill:#008000;opacity:0.04;"/>
   </g>
   <g id="patch_11">
    <path clip-path="url(#p54e66d506c)" d="M 167.251856 384.48 
L 167.251856 371.1744 
L 170.853792 371.1744 
L 170.853792 384.48 
z
" style="fill:#ffe500;"/>
   </g>
   <g id="patch_12">
    <path clip-path="url(#p54e66d506c)" d="M 174.455729 384.48 
L 174.455729 51.84 
L 178.057665 51.84 
L 178.057665 384.48 
z
" style="fill:#008000;opacity:0.04;"/>
   </g>
   <g id="patch_13">
    <path clip-path="url(#p54e66d506c)" d="M 181.659602 384.48 
L 181.659602 51.84 
L 185.261538 51.84 
L 185.261538 384.48 
z
" style="fill:#008000;opacity:0.04;"/>
   </g>
   <g id="patch_14">
    <path clip-path="url(#p54e66d506c)" d="M 188.863475 384.48 
L 188.863475 51.84 
L 192.465412 51.84 
L 192.465412 384.48 
z
" style="fill:#008000;opacity:0.04;"/>
   </g>
   <g id="patch_15">
    <path clip-path="url(#p54e66d506c)" d="M 196.067348 384.48 
L 196.067348 51.84 
L 199.669285 51.84 
L 199.669285 384.48 
z
" style="fill:#008000;opacity:0.04;"/>
   </g>
   <g id="patch_16">
    <path clip-path="url(#p54e66d506c)" d="M 203.271221 384.48 
L 203.271221 51.84 
L 206.873158 51.84 
L 206.873158 384.48 
z
" style="fill:#008000;opacity:0.04;"/>
   </g>
   <g id="patch_17">
    <path clip-path="url(#p54e66d506c)" d="M 210.475094 384.48 
L 210.475094 51.84 
L 214.077031 51.84 
L 214.077031 384.48 
z
" style="fill:#008000;opacity:0.04;"/>
   </g>
   <g id="patch_18">
    <path clip-path="url(#p54e66d506c)" d="M 210.475094 371.1744 
L 210.475094 51.84 
L 214.077031 51.84 
L 214.077031 371.1744 
z
" style="fill:#008000;opacity:0.5;"/>
   </g>
   <g id="patch_19">
    <path clip-path="url(#p54e66d506c)" d="M 210.475094 384.48 
L 210.475094 371.1744 
L 214.077031 371.1744 
L 214.077031 384.48 
z
" style="fill:#ffe500;"/>
   </g>
   <g id="patch_20">
    <path clip-path="url(#p54e66d506c)" d="M 217.678967 384.48 
L 217.678967 51.84 
L 221.280904 51.84 
L 221.280904 384.48 
z
" style="fill:#008000;opacity:0.04;"/>
   </g>
   <g id="patch_21">
    <path clip-path="url(#p54e66d506c)" d="M 224.88284 384.48 
L 224.88284 51.84 
L 228.484777 51.84 
L 228.484777 384.48 
z
" style="fill:#008000;opacity:0.04;"/>
   </g>
   <g id="patch_22">
    <path clip-path="url(#p54e66d506c)" d="M 232.086713 384.48 
L 232.086713 51.84 
L 235.68865 51.84 
L 235.68865 384.48 
z
" style="fill:#008000;opacity:0.04;"/>
   </g>
   <g id="patch_23">
    <path clip-path="url(#p54e66d506c)" d="M 235.68865 371.1744 
L 235.68865 357.8688 
L 239.290586 357.8688 
L 239.290586 371.1744 
z
" style="fill:#ff00ff;"/>
   </g>
   <g id="patch_24">
    <path clip-path="url(#p54e66d506c)" d="M 235.68865 384.48 
L 235.68865 371.1744 
L 239.290586 371.1744 
L 239.290586 384.48 
z
" style="fill:#ffe500;"/>
   </g>
   <g id="patch_25">
    <path clip-path="url(#p54e66d506c)" d="M 239.290586 384.48 
L 239.290586 51.84 
L 242.892523 51.84 
L 242.892523 384.48 
z
" style="fill:#008000;opacity:0.04;"/>
   </g>
   <g id="patch_26">
    <path clip-path="url(#p54e66d506c)" d="M 541.853254 384.48 
L 541.853254 371.1744 
L 545.455191 371.1744 
L 545.455191 384.48 
z
" style="fill:#ff6600;"/>
   </g>
   <g id="patch_27">
    <path clip-path="url(#p54e66d506c)" d="M 246.494459 384.48 
L 246.494459 51.84 
L 250.096396 51.84 
L 250.096396 384.48 
z
" style="fill:#008000;opacity:0.04;"/>
   </g>
   <g id="patch_28">
    <path clip-path="url(#p54e66d506c)" d="M 552.659064 384.48 
L 552.659064 371.1744 
L 556.261001 371.1744 
L 556.261001 384.48 
z
" style="fill:#ff6600;"/>
   </g>
   <g id="patch_29">
    <path clip-path="url(#p54e66d506c)" d="M 253.698332 384.48 
L 253.698332 51.84 
L 257.300269 51.84 
L 257.300269 384.48 
z
" style="fill:#008000;opacity:0.04;"/>
   </g>
   <g id="patch_30">
    <path clip-path="url(#p54e66d506c)" d="M 257.300269 384.48 
L 257.300269 371.1744 
L 260.902205 371.1744 
L 260.902205 384.48 
z
" style="fill:#ffe500;"/>
   </g>
   <g id="patch_31">
    <path clip-path="url(#p54e66d506c)" d="M 559.862937 384.48 
L 559.862937 371.1744 
L 563.464874 371.1744 
L 563.464874 384.48 
z
" style="fill:#ff6600;"/>
   </g>
   <g id="patch_32">
    <path clip-path="url(#p54e66d506c)" d="M 260.902205 384.48 
L 260.902205 51.84 
L 264.504142 51.84 
L 264.504142 384.48 
z
" style="fill:#008000;opacity:0.04;"/>
   </g>
   <g id="patch_33">
    <path clip-path="url(#p54e66d506c)" d="M 268.106079 384.48 
L 268.106079 51.84 
L 271.708015 51.84 
L 271.708015 384.48 
z
" style="fill:#008000;opacity:0.04;"/>
   </g>
   <g id="patch_34">
    <path clip-path="url(#p54e66d506c)" d="M 275.309952 384.48 
L 275.309952 51.84 
L 278.911888 51.84 
L 278.911888 384.48 
z
" style="fill:#008000;opacity:0.04;"/>
   </g>
   <g id="patch_35">
    <path clip-path="url(#p54e66d506c)" d="M 577.87262 384.48 
L 577.87262 371.1744 
L 581.474556 371.1744 
L 581.474556 384.48 
z
" style="fill:#ff6600;"/>
   </g>
   <g id="patch_36">
    <path clip-path="url(#p54e66d506c)" d="M 282.513825 384.48 
L 282.513825 51.84 
L 286.115761 51.84 
L 286.115761 384.48 
z
" style="fill:#008000;opacity:0.04;"/>
   </g>
   <g id="patch_37">
    <path clip-path="url(#p54e66d506c)" d="M 585.076493 384.48 
L 585.076493 371.1744 
L 588.678429 371.1744 
L 588.678429 384.48 
z
" style="fill:#ff6600;"/>
   </g>
   <g id="patch_38">
    <path clip-path="url(#p54e66d506c)" d="M 289.717698 384.48 
L 289.717698 51.84 
L 293.319634 51.84 
L 293.319634 384.48 
z
" style="fill:#008000;opacity:0.04;"/>
   </g>
   <g id="patch_39">
    <path clip-path="url(#p54e66d506c)" d="M 595.882302 384.48 
L 595.882302 371.1744 
L 599.484239 371.1744 
L 599.484239 384.48 
z
" style="fill:#ff6600;"/>
   </g>
   <g id="patch_40">
    <path clip-path="url(#p54e66d506c)" d="M 296.921571 384.48 
L 296.921571 51.84 
L 300.523507 51.84 
L 300.523507 384.48 
z
" style="fill:#008000;opacity:0.04;"/>
   </g>
   <g id="patch_41">
    <path clip-path="url(#p54e66d506c)" d="M 603.086175 384.48 
L 603.086175 371.1744 
L 606.688112 371.1744 
L 606.688112 384.48 
z
" style="fill:#ff6600;"/>
   </g>
   <g id="patch_42">
    <path clip-path="url(#p54e66d506c)" d="M 304.125444 384.48 
L 304.125444 51.84 
L 307.72738 51.84 
L 307.72738 384.48 
z
" style="fill:#008000;opacity:0.04;"/>
   </g>
   <g id="patch_43">
    <path clip-path="url(#p54e66d506c)" d="M 311.329317 384.48 
L 311.329317 51.84 
L 314.931253 51.84 
L 314.931253 384.48 
z
" style="fill:#008000;opacity:0.04;"/>
   </g>
   <g id="patch_44">
    <path clip-path="url(#p54e66d506c)" d="M 318.53319 384.48 
L 318.53319 51.84 
L 322.135126 51.84 
L 322.135126 384.48 
z
" style="fill:#008000;opacity:0.04;"/>
   </g>
   <g id="patch_45">
    <path clip-path="url(#p54e66d506c)" d="M 318.53319 384.48 
L 318.53319 371.1744 
L 322.135126 371.1744 
L 322.135126 384.48 
z
" style="fill:#ffe500;"/>
   </g>
   <g id="patch_46">
    <path clip-path="url(#p54e66d506c)" d="M 621.095858 384.48 
L 621.095858 371.1744 
L 624.697795 371.1744 
L 624.697795 384.48 
z
" style="fill:#ff6600;"/>
   </g>
   <g id="patch_47">
    <path clip-path="url(#p54e66d506c)" d="M 325.737063 384.48 
L 325.737063 51.84 
L 329.338999 51.84 
L 329.338999 384.48 
z
" style="fill:#008000;opacity:0.04;"/>
   </g>
   <g id="patch_48">
    <path clip-path="url(#p54e66d506c)" d="M 332.940936 384.48 
L 332.940936 51.84 
L 336.542873 51.84 
L 336.542873 384.48 
z
" style="fill:#008000;opacity:0.04;"/>
   </g>
   <g id="patch_49">
    <path clip-path="url(#p54e66d506c)" d="M 340.144809 384.48 
L 340.144809 51.84 
L 343.746746 51.84 
L 343.746746 384.48 
z
" style="fill:#008000;opacity:0.04;"/>
   </g>
   <g id="patch_50">
    <path clip-path="url(#p54e66d506c)" d="M 347.348682 384.48 
L 347.348682 51.84 
L 350.950619 51.84 
L 350.950619 384.48 
z
" style="fill:#008000;opacity:0.04;"/>
   </g>
   <g id="patch_51">
    <path clip-path="url(#p54e66d506c)" d="M 354.552555 384.48 
L 354.552555 51.84 
L 358.154492 51.84 
L 358.154492 384.48 
z
" style="fill:#008000;opacity:0.04;"/>
   </g>
   <g id="patch_52">
    <path clip-path="url(#p54e66d506c)" d="M 361.756428 384.48 
L 361.756428 51.84 
L 365.358365 51.84 
L 365.358365 384.48 
z
" style="fill:#008000;opacity:0.04;"/>
   </g>
   <g id="patch_53">
    <path clip-path="url(#p54e66d506c)" d="M 361.756428 384.48 
L 361.756428 371.1744 
L 365.358365 371.1744 
L 365.358365 384.48 
z
" style="fill:#ffe500;"/>
   </g>
   <g id="patch_54">
    <path clip-path="url(#p54e66d506c)" d="M 368.960301 384.48 
L 368.960301 51.84 
L 372.562238 51.84 
L 372.562238 384.48 
z
" style="fill:#008000;opacity:0.04;"/>
   </g>
   <g id="patch_55">
    <path clip-path="url(#p54e66d506c)" d="M 376.164174 384.48 
L 376.164174 51.84 
L 379.766111 51.84 
L 379.766111 384.48 
z
" style="fill:#008000;opacity:0.04;"/>
   </g>
   <g id="patch_56">
    <path clip-path="url(#p54e66d506c)" d="M 383.368047 384.48 
L 383.368047 51.84 
L 386.969984 51.84 
L 386.969984 384.48 
z
" style="fill:#008000;opacity:0.04;"/>
   </g>
   <g id="patch_57">
    <path clip-path="url(#p54e66d506c)" d="M 386.969984 384.48 
L 386.969984 371.1744 
L 390.57192 371.1744 
L 390.57192 384.48 
z
" style="fill:#ffe500;"/>
   </g>
   <g id="patch_58">
    <path clip-path="url(#p54e66d506c)" d="M 390.57192 384.48 
L 390.57192 51.84 
L 394.173857 51.84 
L 394.173857 384.48 
z
" style="fill:#008000;opacity:0.04;"/>
   </g>
   <g id="patch_59">
    <path clip-path="url(#p54e66d506c)" d="M 397.775793 384.48 
L 397.775793 51.84 
L 401.37773 51.84 
L 401.37773 384.48 
z
" style="fill:#008000;opacity:0.04;"/>
   </g>
   <g id="patch_60">
    <path clip-path="url(#p54e66d506c)" d="M 404.979666 384.48 
L 404.979666 51.84 
L 408.581603 51.84 
L 408.581603 384.48 
z
" style="fill:#008000;opacity:0.04;"/>
   </g>
   <g id="patch_61">
    <path clip-path="url(#p54e66d506c)" d="M 412.18354 384.48 
L 412.18354 51.84 
L 415.785476 51.84 
L 415.785476 384.48 
z
" style="fill:#008000;opacity:0.04;"/>
   </g>
   <g id="patch_62">
    <path clip-path="url(#p54e66d506c)" d="M 419.387413 384.48 
L 419.387413 51.84 
L 422.989349 51.84 
L 422.989349 384.48 
z
" style="fill:#008000;opacity:0.04;"/>
   </g>
   <g id="patch_63">
    <path clip-path="url(#p54e66d506c)" d="M 426.591286 384.48 
L 426.591286 51.84 
L 430.193222 51.84 
L 430.193222 384.48 
z
" style="fill:#008000;opacity:0.04;"/>
   </g>
   <g id="patch_64">
    <path clip-path="url(#p54e66d506c)" d="M 433.795159 384.48 
L 433.795159 51.84 
L 437.397095 51.84 
L 437.397095 384.48 
z
" style="fill:#008000;opacity:0.04;"/>
   </g>
   <g id="patch_65">
    <path clip-path="url(#p54e66d506c)" d="M 440.999032 384.48 
L 440.999032 51.84 
L 444.600968 51.84 
L 444.600968 384.48 
z
" style="fill:#008000;opacity:0.04;"/>
   </g>
   <g id="patch_66">
    <path clip-path="url(#p54e66d506c)" d="M 743.5617 384.48 
L 743.5617 371.1744 
L 747.163636 371.1744 
L 747.163636 384.48 
z
" style="fill:#ff6600;"/>
   </g>
   <g id="patch_67">
    <path clip-path="url(#p54e66d506c)" d="M 448.202905 384.48 
L 448.202905 51.84 
L 451.804841 51.84 
L 451.804841 384.48 
z
" style="fill:#008000;opacity:0.04;"/>
   </g>
   <g id="patch_68">
    <path clip-path="url(#p54e66d506c)" d="M 455.406778 384.48 
L 455.406778 51.84 
L 459.008714 51.84 
L 459.008714 384.48 
z
" style="fill:#008000;opacity:0.04;"/>
   </g>
   <g id="patch_69">
    <path clip-path="url(#p54e66d506c)" d="M 462.610651 384.48 
L 462.610651 51.84 
L 466.212587 51.84 
L 466.212587 384.48 
z
" style="fill:#008000;opacity:0.04;"/>
   </g>
   <g id="patch_70">
    <path clip-path="url(#p54e66d506c)" d="M 469.814524 384.48 
L 469.814524 51.84 
L 473.41646 51.84 
L 473.41646 384.48 
z
" style="fill:#008000;opacity:0.04;"/>
   </g>
   <g id="patch_71">
    <path clip-path="url(#p54e66d506c)" d="M 477.018397 384.48 
L 477.018397 51.84 
L 480.620334 51.84 
L 480.620334 384.48 
z
" style="fill:#008000;opacity:0.04;"/>
   </g>
   <g id="patch_72">
    <path clip-path="url(#p54e66d506c)" d="M 484.22227 384.48 
L 484.22227 51.84 
L 487.824207 51.84 
L 487.824207 384.48 
z
" style="fill:#008000;opacity:0.04;"/>
   </g>
   <g id="patch_73">
    <path clip-path="url(#p54e66d506c)" d="M 491.426143 384.48 
L 491.426143 51.84 
L 495.02808 51.84 
L 495.02808 384.48 
z
" style="fill:#008000;opacity:0.04;"/>
   </g>
   <g id="patch_74">
    <path clip-path="url(#p54e66d506c)" d="M 498.630016 384.48 
L 498.630016 51.84 
L 502.231953 51.84 
L 502.231953 384.48 
z
" style="fill:#008000;opacity:0.04;"/>
   </g>
   <g id="patch_75">
    <path clip-path="url(#p54e66d506c)" d="M 505.833889 384.48 
L 505.833889 51.84 
L 509.435826 51.84 
L 509.435826 384.48 
z
" style="fill:#008000;opacity:0.04;"/>
   </g>
   <g id="patch_76">
    <path clip-path="url(#p54e66d506c)" d="M 513.037762 384.48 
L 513.037762 51.84 
L 516.639699 51.84 
L 516.639699 384.48 
z
" style="fill:#008000;opacity:0.04;"/>
   </g>
   <g id="patch_77">
    <path clip-path="url(#p54e66d506c)" d="M 520.241635 384.48 
L 520.241635 51.84 
L 523.843572 51.84 
L 523.843572 384.48 
z
" style="fill:#008000;opacity:0.04;"/>
   </g>
   <g id="patch_78">
    <path clip-path="url(#p54e66d506c)" d="M 527.445508 384.48 
L 527.445508 51.84 
L 531.047445 51.84 
L 531.047445 384.48 
z
" style="fill:#008000;opacity:0.04;"/>
   </g>
   <g id="patch_79">
    <path clip-path="url(#p54e66d506c)" d="M 534.649381 384.48 
L 534.649381 51.84 
L 538.251318 51.84 
L 538.251318 384.48 
z
" style="fill:#008000;opacity:0.04;"/>
   </g>
   <g id="patch_80">
    <path clip-path="url(#p54e66d506c)" d="M 538.251318 371.1744 
L 538.251318 357.8688 
L 541.853254 357.8688 
L 541.853254 371.1744 
z
" style="fill:#ff00ff;"/>
   </g>
   <g id="patch_81">
    <path clip-path="url(#p54e66d506c)" d="M 541.853254 384.48 
L 541.853254 51.84 
L 545.455191 51.84 
L 545.455191 384.48 
z
" style="fill:#008000;opacity:0.04;"/>
   </g>
   <g id="patch_82">
    <path clip-path="url(#p54e66d506c)" d="M 549.057127 384.48 
L 549.057127 51.84 
L 552.659064 51.84 
L 552.659064 384.48 
z
" style="fill:#008000;opacity:0.04;"/>
   </g>
   <g id="patch_83">
    <path clip-path="url(#p54e66d506c)" d="M 556.261001 384.48 
L 556.261001 51.84 
L 559.862937 51.84 
L 559.862937 384.48 
z
" style="fill:#008000;opacity:0.04;"/>
   </g>
   <g id="patch_84">
    <path clip-path="url(#p54e66d506c)" d="M 563.464874 384.48 
L 563.464874 51.84 
L 567.06681 51.84 
L 567.06681 384.48 
z
" style="fill:#008000;opacity:0.04;"/>
   </g>
   <g id="patch_85">
    <path clip-path="url(#p54e66d506c)" d="M 570.668747 384.48 
L 570.668747 51.84 
L 574.270683 51.84 
L 574.270683 384.48 
z
" style="fill:#008000;opacity:0.04;"/>
   </g>
   <g id="patch_86">
    <path clip-path="url(#p54e66d506c)" d="M 577.87262 384.48 
L 577.87262 51.84 
L 581.474556 51.84 
L 581.474556 384.48 
z
" style="fill:#008000;opacity:0.04;"/>
   </g>
   <g id="patch_87">
    <path clip-path="url(#p54e66d506c)" d="M 585.076493 384.48 
L 585.076493 51.84 
L 588.678429 51.84 
L 588.678429 384.48 
z
" style="fill:#008000;opacity:0.04;"/>
   </g>
   <g id="patch_88">
    <path clip-path="url(#p54e66d506c)" d="M 592.280366 384.48 
L 592.280366 51.84 
L 595.882302 51.84 
L 595.882302 384.48 
z
" style="fill:#008000;opacity:0.04;"/>
   </g>
   <g id="patch_89">
    <path clip-path="url(#p54e66d506c)" d="M 599.484239 384.48 
L 599.484239 51.84 
L 603.086175 51.84 
L 603.086175 384.48 
z
" style="fill:#008000;opacity:0.04;"/>
   </g>
   <g id="patch_90">
    <path clip-path="url(#p54e66d506c)" d="M 606.688112 384.48 
L 606.688112 51.84 
L 610.290048 51.84 
L 610.290048 384.48 
z
" style="fill:#008000;opacity:0.04;"/>
   </g>
   <g id="patch_91">
    <path clip-path="url(#p54e66d506c)" d="M 613.891985 384.48 
L 613.891985 51.84 
L 617.493921 51.84 
L 617.493921 384.48 
z
" style="fill:#008000;opacity:0.04;"/>
   </g>
   <g id="patch_92">
    <path clip-path="url(#p54e66d506c)" d="M 621.095858 384.48 
L 621.095858 51.84 
L 624.697795 51.84 
L 624.697795 384.48 
z
" style="fill:#008000;opacity:0.04;"/>
   </g>
   <g id="patch_93">
    <path clip-path="url(#p54e66d506c)" d="M 628.299731 384.48 
L 628.299731 51.84 
L 631.901668 51.84 
L 631.901668 384.48 
z
" style="fill:#008000;opacity:0.04;"/>
   </g>
   <g id="patch_94">
    <path clip-path="url(#p54e66d506c)" d="M 635.503604 384.48 
L 635.503604 51.84 
L 639.105541 51.84 
L 639.105541 384.48 
z
" style="fill:#008000;opacity:0.04;"/>
   </g>
   <g id="patch_95">
    <path clip-path="url(#p54e66d506c)" d="M 642.707477 384.48 
L 642.707477 51.84 
L 646.309414 51.84 
L 646.309414 384.48 
z
" style="fill:#008000;opacity:0.04;"/>
   </g>
   <g id="patch_96">
    <path clip-path="url(#p54e66d506c)" d="M 649.91135 384.48 
L 649.91135 51.84 
L 653.513287 51.84 
L 653.513287 384.48 
z
" style="fill:#008000;opacity:0.04;"/>
   </g>
   <g id="patch_97">
    <path clip-path="url(#p54e66d506c)" d="M 657.115223 384.48 
L 657.115223 51.84 
L 660.71716 51.84 
L 660.71716 384.48 
z
" style="fill:#008000;opacity:0.04;"/>
   </g>
   <g id="patch_98">
    <path clip-path="url(#p54e66d506c)" d="M 664.319096 384.48 
L 664.319096 51.84 
L 667.921033 51.84 
L 667.921033 384.48 
z
" style="fill:#008000;opacity:0.04;"/>
   </g>
   <g id="patch_99">
    <path clip-path="url(#p54e66d506c)" d="M 671.522969 384.48 
L 671.522969 51.84 
L 675.124906 51.84 
L 675.124906 384.48 
z
" style="fill:#008000;opacity:0.04;"/>
   </g>
   <g id="patch_100">
    <path clip-path="url(#p54e66d506c)" d="M 678.726842 384.48 
L 678.726842 51.84 
L 682.328779 51.84 
L 682.328779 384.48 
z
" style="fill:#008000;opacity:0.04;"/>
   </g>
   <g id="patch_101">
    <path clip-path="url(#p54e66d506c)" d="M 685.930715 384.48 
L 685.930715 51.84 
L 689.532652 51.84 
L 689.532652 384.48 
z
" style="fill:#008000;opacity:0.04;"/>
   </g>
   <g id="patch_102">
    <path clip-path="url(#p54e66d506c)" d="M 693.134588 384.48 
L 693.134588 51.84 
L 696.736525 51.84 
L 696.736525 384.48 
z
" style="fill:#008000;opacity:0.04;"/>
   </g>
   <g id="patch_103">
    <path clip-path="url(#p54e66d506c)" d="M 700.338462 384.48 
L 700.338462 51.84 
L 703.940398 51.84 
L 703.940398 384.48 
z
" style="fill:#008000;opacity:0.04;"/>
   </g>
   <g id="patch_104">
    <path clip-path="url(#p54e66d506c)" d="M 707.542335 384.48 
L 707.542335 51.84 
L 711.144271 51.84 
L 711.144271 384.48 
z
" style="fill:#008000;opacity:0.04;"/>
   </g>
   <g id="patch_105">
    <path clip-path="url(#p54e66d506c)" d="M 714.746208 384.48 
L 714.746208 51.84 
L 718.348144 51.84 
L 718.348144 384.48 
z
" style="fill:#008000;opacity:0.04;"/>
   </g>
   <g id="patch_106">
    <path clip-path="url(#p54e66d506c)" d="M 721.950081 384.48 
L 721.950081 51.84 
L 725.552017 51.84 
L 725.552017 384.48 
z
" style="fill:#008000;opacity:0.04;"/>
   </g>
   <g id="patch_107">
    <path clip-path="url(#p54e66d506c)" d="M 729.153954 384.48 
L 729.153954 51.84 
L 732.75589 51.84 
L 732.75589 384.48 
z
" style="fill:#008000;opacity:0.04;"/>
   </g>
   <g id="patch_108">
    <path clip-path="url(#p54e66d506c)" d="M 736.357827 384.48 
L 736.357827 51.84 
L 739.959763 51.84 
L 739.959763 384.48 
z
" style="fill:#008000;opacity:0.04;"/>
   </g>
   <g id="patch_109">
    <path clip-path="url(#p54e66d506c)" d="M 743.5617 384.48 
L 743.5617 51.84 
L 747.163636 51.84 
L 747.163636 384.48 
z
" style="fill:#008000;opacity:0.04;"/>
   </g>
   <g id="matplotlib.axis_1">
    <g id="xtick_1">
     <g id="line2d_1">
      <defs>
       <path d="M 0 0 
L 0 3.5 
" id="m94515d0420" style="stroke:#000000;stroke-width:0.8;"/>
      </defs>
      <g>
       <use style="stroke:#000000;stroke-width:0.8;" x="138.436364" xlink:href="#m94515d0420" y="384.48"/>
      </g>
     </g>
     <g id="text_1">
      <!-- 0 -->
      <defs>
       <path d="M 31.78125 66.40625 
Q 24.171875 66.40625 20.328125 58.90625 
Q 16.5 51.421875 16.5 36.375 
Q 16.5 21.390625 20.328125 13.890625 
Q 24.171875 6.390625 31.78125 6.390625 
Q 39.453125 6.390625 43.28125 13.890625 
Q 47.125 21.390625 47.125 36.375 
Q 47.125 51.421875 43.28125 58.90625 
Q 39.453125 66.40625 31.78125 66.40625 
z
M 31.78125 74.21875 
Q 44.046875 74.21875 50.515625 64.515625 
Q 56.984375 54.828125 56.984375 36.375 
Q 56.984375 17.96875 50.515625 8.265625 
Q 44.046875 -1.421875 31.78125 -1.421875 
Q 19.53125 -1.421875 13.0625 8.265625 
Q 6.59375 17.96875 6.59375 36.375 
Q 6.59375 54.828125 13.0625 64.515625 
Q 19.53125 74.21875 31.78125 74.21875 
z
" id="DejaVuSans-48"/>
      </defs>
      <g transform="translate(135.255114 399.078438)scale(0.1 -0.1)">
       <use xlink:href="#DejaVuSans-48"/>
      </g>
     </g>
    </g>
    <g id="xtick_2">
     <g id="line2d_2">
      <g>
       <use style="stroke:#000000;stroke-width:0.8;" x="228.484777" xlink:href="#m94515d0420" y="384.48"/>
      </g>
     </g>
     <g id="text_2">
      <!-- 250 -->
      <defs>
       <path d="M 19.1875 8.296875 
L 53.609375 8.296875 
L 53.609375 0 
L 7.328125 0 
L 7.328125 8.296875 
Q 12.9375 14.109375 22.625 23.890625 
Q 32.328125 33.6875 34.8125 36.53125 
Q 39.546875 41.84375 41.421875 45.53125 
Q 43.3125 49.21875 43.3125 52.78125 
Q 43.3125 58.59375 39.234375 62.25 
Q 35.15625 65.921875 28.609375 65.921875 
Q 23.96875 65.921875 18.8125 64.3125 
Q 13.671875 62.703125 7.8125 59.421875 
L 7.8125 69.390625 
Q 13.765625 71.78125 18.9375 73 
Q 24.125 74.21875 28.421875 74.21875 
Q 39.75 74.21875 46.484375 68.546875 
Q 53.21875 62.890625 53.21875 53.421875 
Q 53.21875 48.921875 51.53125 44.890625 
Q 49.859375 40.875 45.40625 35.40625 
Q 44.1875 33.984375 37.640625 27.21875 
Q 31.109375 20.453125 19.1875 8.296875 
z
" id="DejaVuSans-50"/>
       <path d="M 10.796875 72.90625 
L 49.515625 72.90625 
L 49.515625 64.59375 
L 19.828125 64.59375 
L 19.828125 46.734375 
Q 21.96875 47.46875 24.109375 47.828125 
Q 26.265625 48.1875 28.421875 48.1875 
Q 40.625 48.1875 47.75 41.5 
Q 54.890625 34.8125 54.890625 23.390625 
Q 54.890625 11.625 47.5625 5.09375 
Q 40.234375 -1.421875 26.90625 -1.421875 
Q 22.3125 -1.421875 17.546875 -0.640625 
Q 12.796875 0.140625 7.71875 1.703125 
L 7.71875 11.625 
Q 12.109375 9.234375 16.796875 8.0625 
Q 21.484375 6.890625 26.703125 6.890625 
Q 35.15625 6.890625 40.078125 11.328125 
Q 45.015625 15.765625 45.015625 23.390625 
Q 45.015625 31 40.078125 35.4375 
Q 35.15625 39.890625 26.703125 39.890625 
Q 22.75 39.890625 18.8125 39.015625 
Q 14.890625 38.140625 10.796875 36.28125 
z
" id="DejaVuSans-53"/>
      </defs>
      <g transform="translate(218.941027 399.078438)scale(0.1 -0.1)">
       <use xlink:href="#DejaVuSans-50"/>
       <use x="63.623047" xlink:href="#DejaVuSans-53"/>
       <use x="127.246094" xlink:href="#DejaVuSans-48"/>
      </g>
     </g>
    </g>
    <g id="xtick_3">
     <g id="line2d_3">
      <g>
       <use style="stroke:#000000;stroke-width:0.8;" x="318.53319" xlink:href="#m94515d0420" y="384.48"/>
      </g>
     </g>
     <g id="text_3">
      <!-- 500 -->
      <g transform="translate(308.98944 399.078438)scale(0.1 -0.1)">
       <use xlink:href="#DejaVuSans-53"/>
       <use x="63.623047" xlink:href="#DejaVuSans-48"/>
       <use x="127.246094" xlink:href="#DejaVuSans-48"/>
      </g>
     </g>
    </g>
    <g id="xtick_4">
     <g id="line2d_4">
      <g>
       <use style="stroke:#000000;stroke-width:0.8;" x="408.581603" xlink:href="#m94515d0420" y="384.48"/>
      </g>
     </g>
     <g id="text_4">
      <!-- 750 -->
      <defs>
       <path d="M 8.203125 72.90625 
L 55.078125 72.90625 
L 55.078125 68.703125 
L 28.609375 0 
L 18.3125 0 
L 43.21875 64.59375 
L 8.203125 64.59375 
z
" id="DejaVuSans-55"/>
      </defs>
      <g transform="translate(399.037853 399.078438)scale(0.1 -0.1)">
       <use xlink:href="#DejaVuSans-55"/>
       <use x="63.623047" xlink:href="#DejaVuSans-53"/>
       <use x="127.246094" xlink:href="#DejaVuSans-48"/>
      </g>
     </g>
    </g>
    <g id="xtick_5">
     <g id="line2d_5">
      <g>
       <use style="stroke:#000000;stroke-width:0.8;" x="498.630016" xlink:href="#m94515d0420" y="384.48"/>
      </g>
     </g>
     <g id="text_5">
      <!-- 1000 -->
      <defs>
       <path d="M 12.40625 8.296875 
L 28.515625 8.296875 
L 28.515625 63.921875 
L 10.984375 60.40625 
L 10.984375 69.390625 
L 28.421875 72.90625 
L 38.28125 72.90625 
L 38.28125 8.296875 
L 54.390625 8.296875 
L 54.390625 0 
L 12.40625 0 
z
" id="DejaVuSans-49"/>
      </defs>
      <g transform="translate(485.905016 399.078438)scale(0.1 -0.1)">
       <use xlink:href="#DejaVuSans-49"/>
       <use x="63.623047" xlink:href="#DejaVuSans-48"/>
       <use x="127.246094" xlink:href="#DejaVuSans-48"/>
       <use x="190.869141" xlink:href="#DejaVuSans-48"/>
      </g>
     </g>
    </g>
    <g id="xtick_6">
     <g id="line2d_6">
      <g>
       <use style="stroke:#000000;stroke-width:0.8;" x="588.678429" xlink:href="#m94515d0420" y="384.48"/>
      </g>
     </g>
     <g id="text_6">
      <!-- 1250 -->
      <g transform="translate(575.953429 399.078438)scale(0.1 -0.1)">
       <use xlink:href="#DejaVuSans-49"/>
       <use x="63.623047" xlink:href="#DejaVuSans-50"/>
       <use x="127.246094" xlink:href="#DejaVuSans-53"/>
       <use x="190.869141" xlink:href="#DejaVuSans-48"/>
      </g>
     </g>
    </g>
    <g id="xtick_7">
     <g id="line2d_7">
      <g>
       <use style="stroke:#000000;stroke-width:0.8;" x="678.726842" xlink:href="#m94515d0420" y="384.48"/>
      </g>
     </g>
     <g id="text_7">
      <!-- 1500 -->
      <g transform="translate(666.001842 399.078438)scale(0.1 -0.1)">
       <use xlink:href="#DejaVuSans-49"/>
       <use x="63.623047" xlink:href="#DejaVuSans-53"/>
       <use x="127.246094" xlink:href="#DejaVuSans-48"/>
       <use x="190.869141" xlink:href="#DejaVuSans-48"/>
      </g>
     </g>
    </g>
    <g id="xtick_8">
     <g id="line2d_8">
      <g>
       <use style="stroke:#000000;stroke-width:0.8;" x="768.775256" xlink:href="#m94515d0420" y="384.48"/>
      </g>
     </g>
     <g id="text_8">
      <!-- 1750 -->
      <g transform="translate(756.050256 399.078438)scale(0.1 -0.1)">
       <use xlink:href="#DejaVuSans-49"/>
       <use x="63.623047" xlink:href="#DejaVuSans-55"/>
       <use x="127.246094" xlink:href="#DejaVuSans-53"/>
       <use x="190.869141" xlink:href="#DejaVuSans-48"/>
      </g>
     </g>
    </g>
    <g id="text_9">
     <!-- Timestamp -->
     <defs>
      <path d="M -0.296875 72.90625 
L 61.375 72.90625 
L 61.375 64.59375 
L 35.5 64.59375 
L 35.5 0 
L 25.59375 0 
L 25.59375 64.59375 
L -0.296875 64.59375 
z
" id="DejaVuSans-84"/>
      <path d="M 9.421875 54.6875 
L 18.40625 54.6875 
L 18.40625 0 
L 9.421875 0 
z
M 9.421875 75.984375 
L 18.40625 75.984375 
L 18.40625 64.59375 
L 9.421875 64.59375 
z
" id="DejaVuSans-105"/>
      <path d="M 52 44.1875 
Q 55.375 50.25 60.0625 53.125 
Q 64.75 56 71.09375 56 
Q 79.640625 56 84.28125 50.015625 
Q 88.921875 44.046875 88.921875 33.015625 
L 88.921875 0 
L 79.890625 0 
L 79.890625 32.71875 
Q 79.890625 40.578125 77.09375 44.375 
Q 74.3125 48.1875 68.609375 48.1875 
Q 61.625 48.1875 57.5625 43.546875 
Q 53.515625 38.921875 53.515625 30.90625 
L 53.515625 0 
L 44.484375 0 
L 44.484375 32.71875 
Q 44.484375 40.625 41.703125 44.40625 
Q 38.921875 48.1875 33.109375 48.1875 
Q 26.21875 48.1875 22.15625 43.53125 
Q 18.109375 38.875 18.109375 30.90625 
L 18.109375 0 
L 9.078125 0 
L 9.078125 54.6875 
L 18.109375 54.6875 
L 18.109375 46.1875 
Q 21.1875 51.21875 25.484375 53.609375 
Q 29.78125 56 35.6875 56 
Q 41.65625 56 45.828125 52.96875 
Q 50 49.953125 52 44.1875 
z
" id="DejaVuSans-109"/>
      <path d="M 56.203125 29.59375 
L 56.203125 25.203125 
L 14.890625 25.203125 
Q 15.484375 15.921875 20.484375 11.0625 
Q 25.484375 6.203125 34.421875 6.203125 
Q 39.59375 6.203125 44.453125 7.46875 
Q 49.3125 8.734375 54.109375 11.28125 
L 54.109375 2.78125 
Q 49.265625 0.734375 44.1875 -0.34375 
Q 39.109375 -1.421875 33.890625 -1.421875 
Q 20.796875 -1.421875 13.15625 6.1875 
Q 5.515625 13.8125 5.515625 26.8125 
Q 5.515625 40.234375 12.765625 48.109375 
Q 20.015625 56 32.328125 56 
Q 43.359375 56 49.78125 48.890625 
Q 56.203125 41.796875 56.203125 29.59375 
z
M 47.21875 32.234375 
Q 47.125 39.59375 43.09375 43.984375 
Q 39.0625 48.390625 32.421875 48.390625 
Q 24.90625 48.390625 20.390625 44.140625 
Q 15.875 39.890625 15.1875 32.171875 
z
" id="DejaVuSans-101"/>
      <path d="M 44.28125 53.078125 
L 44.28125 44.578125 
Q 40.484375 46.53125 36.375 47.5 
Q 32.28125 48.484375 27.875 48.484375 
Q 21.1875 48.484375 17.84375 46.4375 
Q 14.5 44.390625 14.5 40.28125 
Q 14.5 37.15625 16.890625 35.375 
Q 19.28125 33.59375 26.515625 31.984375 
L 29.59375 31.296875 
Q 39.15625 29.25 43.1875 25.515625 
Q 47.21875 21.78125 47.21875 15.09375 
Q 47.21875 7.46875 41.1875 3.015625 
Q 35.15625 -1.421875 24.609375 -1.421875 
Q 20.21875 -1.421875 15.453125 -0.5625 
Q 10.6875 0.296875 5.421875 2 
L 5.421875 11.28125 
Q 10.40625 8.6875 15.234375 7.390625 
Q 20.0625 6.109375 24.8125 6.109375 
Q 31.15625 6.109375 34.5625 8.28125 
Q 37.984375 10.453125 37.984375 14.40625 
Q 37.984375 18.0625 35.515625 20.015625 
Q 33.0625 21.96875 24.703125 23.78125 
L 21.578125 24.515625 
Q 13.234375 26.265625 9.515625 29.90625 
Q 5.8125 33.546875 5.8125 39.890625 
Q 5.8125 47.609375 11.28125 51.796875 
Q 16.75 56 26.8125 56 
Q 31.78125 56 36.171875 55.265625 
Q 40.578125 54.546875 44.28125 53.078125 
z
" id="DejaVuSans-115"/>
      <path d="M 18.3125 70.21875 
L 18.3125 54.6875 
L 36.8125 54.6875 
L 36.8125 47.703125 
L 18.3125 47.703125 
L 18.3125 18.015625 
Q 18.3125 11.328125 20.140625 9.421875 
Q 21.96875 7.515625 27.59375 7.515625 
L 36.8125 7.515625 
L 36.8125 0 
L 27.59375 0 
Q 17.1875 0 13.234375 3.875 
Q 9.28125 7.765625 9.28125 18.015625 
L 9.28125 47.703125 
L 2.6875 47.703125 
L 2.6875 54.6875 
L 9.28125 54.6875 
L 9.28125 70.21875 
z
" id="DejaVuSans-116"/>
      <path d="M 34.28125 27.484375 
Q 23.390625 27.484375 19.1875 25 
Q 14.984375 22.515625 14.984375 16.5 
Q 14.984375 11.71875 18.140625 8.90625 
Q 21.296875 6.109375 26.703125 6.109375 
Q 34.1875 6.109375 38.703125 11.40625 
Q 43.21875 16.703125 43.21875 25.484375 
L 43.21875 27.484375 
z
M 52.203125 31.203125 
L 52.203125 0 
L 43.21875 0 
L 43.21875 8.296875 
Q 40.140625 3.328125 35.546875 0.953125 
Q 30.953125 -1.421875 24.3125 -1.421875 
Q 15.921875 -1.421875 10.953125 3.296875 
Q 6 8.015625 6 15.921875 
Q 6 25.140625 12.171875 29.828125 
Q 18.359375 34.515625 30.609375 34.515625 
L 43.21875 34.515625 
L 43.21875 35.40625 
Q 43.21875 41.609375 39.140625 45 
Q 35.0625 48.390625 27.6875 48.390625 
Q 23 48.390625 18.546875 47.265625 
Q 14.109375 46.140625 10.015625 43.890625 
L 10.015625 52.203125 
Q 14.9375 54.109375 19.578125 55.046875 
Q 24.21875 56 28.609375 56 
Q 40.484375 56 46.34375 49.84375 
Q 52.203125 43.703125 52.203125 31.203125 
z
" id="DejaVuSans-97"/>
      <path d="M 18.109375 8.203125 
L 18.109375 -20.796875 
L 9.078125 -20.796875 
L 9.078125 54.6875 
L 18.109375 54.6875 
L 18.109375 46.390625 
Q 20.953125 51.265625 25.265625 53.625 
Q 29.59375 56 35.59375 56 
Q 45.5625 56 51.78125 48.09375 
Q 58.015625 40.1875 58.015625 27.296875 
Q 58.015625 14.40625 51.78125 6.484375 
Q 45.5625 -1.421875 35.59375 -1.421875 
Q 29.59375 -1.421875 25.265625 0.953125 
Q 20.953125 3.328125 18.109375 8.203125 
z
M 48.6875 27.296875 
Q 48.6875 37.203125 44.609375 42.84375 
Q 40.53125 48.484375 33.40625 48.484375 
Q 26.265625 48.484375 22.1875 42.84375 
Q 18.109375 37.203125 18.109375 27.296875 
Q 18.109375 17.390625 22.1875 11.75 
Q 26.265625 6.109375 33.40625 6.109375 
Q 40.53125 6.109375 44.609375 11.75 
Q 48.6875 17.390625 48.6875 27.296875 
z
" id="DejaVuSans-112"/>
     </defs>
     <g transform="translate(414.739062 412.756563)scale(0.1 -0.1)">
      <use xlink:href="#DejaVuSans-84"/>
      <use x="61.037109" xlink:href="#DejaVuSans-105"/>
      <use x="88.820312" xlink:href="#DejaVuSans-109"/>
      <use x="186.232422" xlink:href="#DejaVuSans-101"/>
      <use x="247.755859" xlink:href="#DejaVuSans-115"/>
      <use x="299.855469" xlink:href="#DejaVuSans-116"/>
      <use x="339.064453" xlink:href="#DejaVuSans-97"/>
      <use x="400.34375" xlink:href="#DejaVuSans-109"/>
      <use x="497.755859" xlink:href="#DejaVuSans-112"/>
     </g>
    </g>
   </g>
   <g id="matplotlib.axis_2">
    <g id="ytick_1">
     <g id="line2d_9">
      <defs>
       <path d="M 0 0 
L -3.5 0 
" id="m11adf7acdd" style="stroke:#000000;stroke-width:0.8;"/>
      </defs>
      <g>
       <use style="stroke:#000000;stroke-width:0.8;" x="108" xlink:href="#m11adf7acdd" y="374.825308"/>
      </g>
     </g>
     <g id="text_10">
      <!-- −600 -->
      <defs>
       <path d="M 10.59375 35.5 
L 73.1875 35.5 
L 73.1875 27.203125 
L 10.59375 27.203125 
z
" id="DejaVuSans-8722"/>
       <path d="M 33.015625 40.375 
Q 26.375 40.375 22.484375 35.828125 
Q 18.609375 31.296875 18.609375 23.390625 
Q 18.609375 15.53125 22.484375 10.953125 
Q 26.375 6.390625 33.015625 6.390625 
Q 39.65625 6.390625 43.53125 10.953125 
Q 47.40625 15.53125 47.40625 23.390625 
Q 47.40625 31.296875 43.53125 35.828125 
Q 39.65625 40.375 33.015625 40.375 
z
M 52.59375 71.296875 
L 52.59375 62.3125 
Q 48.875 64.0625 45.09375 64.984375 
Q 41.3125 65.921875 37.59375 65.921875 
Q 27.828125 65.921875 22.671875 59.328125 
Q 17.53125 52.734375 16.796875 39.40625 
Q 19.671875 43.65625 24.015625 45.921875 
Q 28.375 48.1875 33.59375 48.1875 
Q 44.578125 48.1875 50.953125 41.515625 
Q 57.328125 34.859375 57.328125 23.390625 
Q 57.328125 12.15625 50.6875 5.359375 
Q 44.046875 -1.421875 33.015625 -1.421875 
Q 20.359375 -1.421875 13.671875 8.265625 
Q 6.984375 17.96875 6.984375 36.375 
Q 6.984375 53.65625 15.1875 63.9375 
Q 23.390625 74.21875 37.203125 74.21875 
Q 40.921875 74.21875 44.703125 73.484375 
Q 48.484375 72.75 52.59375 71.296875 
z
" id="DejaVuSans-54"/>
      </defs>
      <g transform="translate(73.532813 378.624526)scale(0.1 -0.1)">
       <use xlink:href="#DejaVuSans-8722"/>
       <use x="83.789062" xlink:href="#DejaVuSans-54"/>
       <use x="147.412109" xlink:href="#DejaVuSans-48"/>
       <use x="211.035156" xlink:href="#DejaVuSans-48"/>
      </g>
     </g>
    </g>
    <g id="ytick_2">
     <g id="line2d_10">
      <g>
       <use style="stroke:#000000;stroke-width:0.8;" x="108" xlink:href="#m11adf7acdd" y="336.474577"/>
      </g>
     </g>
     <g id="text_11">
      <!-- −400 -->
      <defs>
       <path d="M 37.796875 64.3125 
L 12.890625 25.390625 
L 37.796875 25.390625 
z
M 35.203125 72.90625 
L 47.609375 72.90625 
L 47.609375 25.390625 
L 58.015625 25.390625 
L 58.015625 17.1875 
L 47.609375 17.1875 
L 47.609375 0 
L 37.796875 0 
L 37.796875 17.1875 
L 4.890625 17.1875 
L 4.890625 26.703125 
z
" id="DejaVuSans-52"/>
      </defs>
      <g transform="translate(73.532813 340.273796)scale(0.1 -0.1)">
       <use xlink:href="#DejaVuSans-8722"/>
       <use x="83.789062" xlink:href="#DejaVuSans-52"/>
       <use x="147.412109" xlink:href="#DejaVuSans-48"/>
       <use x="211.035156" xlink:href="#DejaVuSans-48"/>
      </g>
     </g>
    </g>
    <g id="ytick_3">
     <g id="line2d_11">
      <g>
       <use style="stroke:#000000;stroke-width:0.8;" x="108" xlink:href="#m11adf7acdd" y="298.123847"/>
      </g>
     </g>
     <g id="text_12">
      <!-- −200 -->
      <g transform="translate(73.532813 301.923066)scale(0.1 -0.1)">
       <use xlink:href="#DejaVuSans-8722"/>
       <use x="83.789062" xlink:href="#DejaVuSans-50"/>
       <use x="147.412109" xlink:href="#DejaVuSans-48"/>
       <use x="211.035156" xlink:href="#DejaVuSans-48"/>
      </g>
     </g>
    </g>
    <g id="ytick_4">
     <g id="line2d_12">
      <g>
       <use style="stroke:#000000;stroke-width:0.8;" x="108" xlink:href="#m11adf7acdd" y="259.773117"/>
      </g>
     </g>
     <g id="text_13">
      <!-- 0 -->
      <g transform="translate(94.6375 263.572335)scale(0.1 -0.1)">
       <use xlink:href="#DejaVuSans-48"/>
      </g>
     </g>
    </g>
    <g id="ytick_5">
     <g id="line2d_13">
      <g>
       <use style="stroke:#000000;stroke-width:0.8;" x="108" xlink:href="#m11adf7acdd" y="221.422386"/>
      </g>
     </g>
     <g id="text_14">
      <!-- 200 -->
      <g transform="translate(81.9125 225.221605)scale(0.1 -0.1)">
       <use xlink:href="#DejaVuSans-50"/>
       <use x="63.623047" xlink:href="#DejaVuSans-48"/>
       <use x="127.246094" xlink:href="#DejaVuSans-48"/>
      </g>
     </g>
    </g>
    <g id="ytick_6">
     <g id="line2d_14">
      <g>
       <use style="stroke:#000000;stroke-width:0.8;" x="108" xlink:href="#m11adf7acdd" y="183.071656"/>
      </g>
     </g>
     <g id="text_15">
      <!-- 400 -->
      <g transform="translate(81.9125 186.870875)scale(0.1 -0.1)">
       <use xlink:href="#DejaVuSans-52"/>
       <use x="63.623047" xlink:href="#DejaVuSans-48"/>
       <use x="127.246094" xlink:href="#DejaVuSans-48"/>
      </g>
     </g>
    </g>
    <g id="ytick_7">
     <g id="line2d_15">
      <g>
       <use style="stroke:#000000;stroke-width:0.8;" x="108" xlink:href="#m11adf7acdd" y="144.720926"/>
      </g>
     </g>
     <g id="text_16">
      <!-- 600 -->
      <g transform="translate(81.9125 148.520144)scale(0.1 -0.1)">
       <use xlink:href="#DejaVuSans-54"/>
       <use x="63.623047" xlink:href="#DejaVuSans-48"/>
       <use x="127.246094" xlink:href="#DejaVuSans-48"/>
      </g>
     </g>
    </g>
    <g id="ytick_8">
     <g id="line2d_16">
      <g>
       <use style="stroke:#000000;stroke-width:0.8;" x="108" xlink:href="#m11adf7acdd" y="106.370195"/>
      </g>
     </g>
     <g id="text_17">
      <!-- 800 -->
      <defs>
       <path d="M 31.78125 34.625 
Q 24.75 34.625 20.71875 30.859375 
Q 16.703125 27.09375 16.703125 20.515625 
Q 16.703125 13.921875 20.71875 10.15625 
Q 24.75 6.390625 31.78125 6.390625 
Q 38.8125 6.390625 42.859375 10.171875 
Q 46.921875 13.96875 46.921875 20.515625 
Q 46.921875 27.09375 42.890625 30.859375 
Q 38.875 34.625 31.78125 34.625 
z
M 21.921875 38.8125 
Q 15.578125 40.375 12.03125 44.71875 
Q 8.5 49.078125 8.5 55.328125 
Q 8.5 64.0625 14.71875 69.140625 
Q 20.953125 74.21875 31.78125 74.21875 
Q 42.671875 74.21875 48.875 69.140625 
Q 55.078125 64.0625 55.078125 55.328125 
Q 55.078125 49.078125 51.53125 44.71875 
Q 48 40.375 41.703125 38.8125 
Q 48.828125 37.15625 52.796875 32.3125 
Q 56.78125 27.484375 56.78125 20.515625 
Q 56.78125 9.90625 50.3125 4.234375 
Q 43.84375 -1.421875 31.78125 -1.421875 
Q 19.734375 -1.421875 13.25 4.234375 
Q 6.78125 9.90625 6.78125 20.515625 
Q 6.78125 27.484375 10.78125 32.3125 
Q 14.796875 37.15625 21.921875 38.8125 
z
M 18.3125 54.390625 
Q 18.3125 48.734375 21.84375 45.5625 
Q 25.390625 42.390625 31.78125 42.390625 
Q 38.140625 42.390625 41.71875 45.5625 
Q 45.3125 48.734375 45.3125 54.390625 
Q 45.3125 60.0625 41.71875 63.234375 
Q 38.140625 66.40625 31.78125 66.40625 
Q 25.390625 66.40625 21.84375 63.234375 
Q 18.3125 60.0625 18.3125 54.390625 
z
" id="DejaVuSans-56"/>
      </defs>
      <g transform="translate(81.9125 110.169414)scale(0.1 -0.1)">
       <use xlink:href="#DejaVuSans-56"/>
       <use x="63.623047" xlink:href="#DejaVuSans-48"/>
       <use x="127.246094" xlink:href="#DejaVuSans-48"/>
      </g>
     </g>
    </g>
    <g id="ytick_9">
     <g id="line2d_17">
      <g>
       <use style="stroke:#000000;stroke-width:0.8;" x="108" xlink:href="#m11adf7acdd" y="68.019465"/>
      </g>
     </g>
     <g id="text_18">
      <!-- 1000 -->
      <g transform="translate(75.55 71.818684)scale(0.1 -0.1)">
       <use xlink:href="#DejaVuSans-49"/>
       <use x="63.623047" xlink:href="#DejaVuSans-48"/>
       <use x="127.246094" xlink:href="#DejaVuSans-48"/>
       <use x="190.869141" xlink:href="#DejaVuSans-48"/>
      </g>
     </g>
    </g>
    <g id="text_19">
     <!-- Value -->
     <defs>
      <path d="M 28.609375 0 
L 0.78125 72.90625 
L 11.078125 72.90625 
L 34.1875 11.53125 
L 57.328125 72.90625 
L 67.578125 72.90625 
L 39.796875 0 
z
" id="DejaVuSans-86"/>
      <path d="M 9.421875 75.984375 
L 18.40625 75.984375 
L 18.40625 0 
L 9.421875 0 
z
" id="DejaVuSans-108"/>
      <path d="M 8.5 21.578125 
L 8.5 54.6875 
L 17.484375 54.6875 
L 17.484375 21.921875 
Q 17.484375 14.15625 20.5 10.265625 
Q 23.53125 6.390625 29.59375 6.390625 
Q 36.859375 6.390625 41.078125 11.03125 
Q 45.3125 15.671875 45.3125 23.6875 
L 45.3125 54.6875 
L 54.296875 54.6875 
L 54.296875 0 
L 45.3125 0 
L 45.3125 8.40625 
Q 42.046875 3.421875 37.71875 1 
Q 33.40625 -1.421875 27.6875 -1.421875 
Q 18.265625 -1.421875 13.375 4.4375 
Q 8.5 10.296875 8.5 21.578125 
z
M 31.109375 56 
z
" id="DejaVuSans-117"/>
     </defs>
     <g transform="translate(67.453125 232.273281)rotate(-90)scale(0.1 -0.1)">
      <use xlink:href="#DejaVuSans-86"/>
      <use x="68.298828" xlink:href="#DejaVuSans-97"/>
      <use x="129.578125" xlink:href="#DejaVuSans-108"/>
      <use x="157.361328" xlink:href="#DejaVuSans-117"/>
      <use x="220.740234" xlink:href="#DejaVuSans-101"/>
     </g>
    </g>
   </g>
   <g id="line2d_18">
    <path clip-path="url(#p54e66d506c)" d="M 138.436364 259.110139 
L 139.156751 237.06571 
L 139.516945 232.648305 
L 139.877138 230.231852 
L 140.597526 242.121242 
L 140.957719 253.10603 
L 141.678107 264.105709 
L 142.0383 264.075052 
L 142.398494 260.103165 
L 143.118881 249.005922 
L 143.479075 245.389984 
L 143.839268 246.214304 
L 144.199462 250.902202 
L 145.640237 278.39738 
L 146.00043 277.670249 
L 146.360624 271.875641 
L 146.720818 263.144816 
L 147.441205 240.835342 
L 147.801399 229.654712 
L 148.161592 222.354391 
L 148.521786 223.730698 
L 148.88198 228.408299 
L 149.602367 244.3332 
L 149.962561 252.033192 
L 150.322754 256.510206 
L 150.682948 256.779368 
L 151.043141 254.238623 
L 152.123722 239.366199 
L 152.84411 244.435581 
L 153.564497 259.583124 
L 153.924691 269.250759 
L 154.284884 272.272382 
L 154.645078 273.847698 
L 155.005272 271.004563 
L 156.446046 226.203536 
L 156.80624 225.065364 
L 157.166434 222.338367 
L 157.886821 234.628742 
L 158.607208 251.629038 
L 158.967402 258.21098 
L 159.327595 258.111164 
L 160.047983 250.894283 
L 160.408176 243.976327 
L 160.76837 241.85947 
L 161.488757 247.20037 
L 162.569338 272.965959 
L 162.929532 278.104878 
L 163.289726 278.963286 
L 163.649919 274.370667 
L 165.450888 228.729004 
L 165.811081 229.232835 
L 166.531469 243.259604 
L 167.251856 262.690352 
L 167.612049 267.091199 
L 167.972243 267.147796 
L 168.332437 264.945551 
L 169.052824 255.982589 
L 169.773211 252.131072 
L 170.133405 257.191909 
L 170.493599 264.141155 
L 171.213986 285.036419 
L 171.57418 288.78293 
L 171.934373 289.199982 
L 172.294567 285.556727 
L 172.654761 276.789891 
L 173.375148 252.425001 
L 174.095535 238.856187 
L 174.455729 241.558413 
L 174.815923 245.293433 
L 175.176116 251.738077 
L 175.896503 272.735036 
L 176.616891 276.90703 
L 176.977084 273.79028 
L 177.697472 265.281475 
L 178.057665 261.709155 
L 178.417859 260.695544 
L 178.778053 266.398609 
L 179.858634 290.016917 
L 180.218827 296.556287 
L 180.939215 292.384558 
L 182.019796 259.597997 
L 182.379989 251.165962 
L 182.740183 245.485726 
L 183.100377 244.972585 
L 183.820764 258.696035 
L 184.180958 267.624275 
L 184.541151 273.565611 
L 184.901345 281.719526 
L 185.621732 275.765809 
L 186.342119 265.587742 
L 186.702313 262.058027 
L 187.062507 263.620885 
L 187.782894 274.211031 
L 188.503281 291.637958 
L 188.863475 296.043949 
L 189.223669 294.604334 
L 189.583862 289.398493 
L 189.944056 281.788864 
L 190.664443 257.232166 
L 191.384831 241.430432 
L 191.745024 243.196932 
L 192.105218 247.657447 
L 192.465412 254.185475 
L 192.825605 265.240852 
L 193.545992 273.462392 
L 193.906186 274.218703 
L 194.626573 265.654323 
L 194.986767 258.986642 
L 195.346961 256.493352 
L 195.707154 256.571266 
L 196.427542 265.092304 
L 197.147929 283.126745 
L 197.508123 287.726133 
L 197.868316 287.755118 
L 198.588704 270.792138 
L 198.948897 260.45815 
L 199.309091 245.344411 
L 199.669285 238.663696 
L 200.029478 234.131631 
L 200.389672 234.055243 
L 200.749866 237.006303 
L 202.19064 264.605019 
L 202.550834 264.855013 
L 203.631415 249.250892 
L 203.991608 245.489692 
L 204.351802 246.214721 
L 204.711996 248.991146 
L 205.072189 255.509929 
L 205.792577 272.232083 
L 206.15277 279.644562 
L 206.873158 271.983342 
L 207.593545 251.146985 
L 207.953739 238.215991 
L 208.313932 229.425321 
L 208.674126 227.544168 
L 209.03432 224.122791 
L 209.394513 228.650067 
L 210.475094 253.834285 
L 210.835288 257.492661 
L 211.195481 295.673231 
L 211.555675 254.225892 
L 211.915869 249.593642 
L 212.276062 242.317923 
L 212.636256 241.67332 
L 212.99645 242.463761 
L 213.356643 245.290851 
L 214.077031 260.683246 
L 214.437224 269.155415 
L 214.797418 274.253699 
L 215.157612 272.050718 
L 215.517805 270.805037 
L 216.238193 249.170361 
L 216.598386 235.970756 
L 216.95858 228.055955 
L 217.318774 224.155011 
L 217.678967 224.025947 
L 218.039161 227.731672 
L 219.119742 254.042458 
L 219.479935 258.272021 
L 219.840129 260.44378 
L 220.560516 251.881681 
L 220.92071 245.697242 
L 221.641097 242.20809 
L 222.001291 247.635661 
L 223.081872 274.736265 
L 223.442066 279.743808 
L 223.802259 278.933512 
L 224.162453 276.075555 
L 224.88284 255.222797 
L 225.603228 234.769262 
L 225.963421 229.428372 
L 226.323615 231.008053 
L 226.683808 236.060922 
L 227.044002 243.456462 
L 227.764389 262.91683 
L 228.124583 268.193758 
L 228.484777 265.846279 
L 228.84497 264.570639 
L 229.205164 259.317793 
L 229.565358 256.111667 
L 229.925551 251.845962 
L 230.285745 253.874503 
L 230.645939 258.30938 
L 231.006132 265.134921 
L 231.72652 284.985328 
L 232.086713 289.628079 
L 232.446907 287.448553 
L 232.807101 286.605014 
L 234.247875 245.417163 
L 234.608069 240.866394 
L 234.968263 240.141464 
L 235.328456 246.02793 
L 236.409037 271.050518 
L 236.769231 272.786764 
L 237.129424 275.819208 
L 237.849812 270.842382 
L 238.210005 262.266342 
L 238.570199 260.140888 
L 238.930393 262.601833 
L 239.290586 270.959524 
L 240.371167 323.777021 
L 240.731361 331.26011 
L 241.091555 336.033327 
L 241.451748 319.387126 
L 241.811942 308.184558 
L 242.892523 242.690584 
L 243.252717 228.056029 
L 243.61291 231.435647 
L 244.333297 257.511331 
L 244.693491 269.614111 
L 245.053685 287.572731 
L 245.413878 296.518601 
L 245.774072 299.68411 
L 246.854653 270.469135 
L 247.214847 266.501392 
L 247.57504 267.04905 
L 247.935234 275.275009 
L 249.015815 318.686628 
L 249.376009 332.752826 
L 249.736202 331.507858 
L 250.45659 306.137621 
L 251.176977 254.913384 
L 251.537171 234.121159 
L 251.897364 224.06013 
L 252.257558 223.5979 
L 252.617751 229.618073 
L 253.698332 279.85093 
L 254.058526 287.481891 
L 254.41872 288.152401 
L 254.778913 282.848298 
L 255.499301 260.278585 
L 255.859494 251.915798 
L 256.219688 252.33472 
L 256.579882 259.013777 
L 257.660463 305.378674 
L 258.020656 313.660146 
L 258.38085 312.455834 
L 258.741044 303.344503 
L 259.101237 286.792719 
L 259.821625 235.750695 
L 260.181818 215.516285 
L 260.542012 207.339685 
L 260.902205 205.94723 
L 261.262399 213.362217 
L 262.34298 258.42176 
L 262.703174 264.833423 
L 263.063367 267.704007 
L 263.423561 261.008711 
L 264.143948 241.336478 
L 264.504142 233.154898 
L 264.864336 230.601815 
L 265.224529 236.644722 
L 266.30511 287.877321 
L 266.665304 289.693972 
L 267.025498 296.877986 
L 267.385691 290.208771 
L 268.826466 200.845752 
L 269.186659 193.11374 
L 269.546853 188.012705 
L 269.907047 199.278472 
L 270.627434 230.425224 
L 271.347821 252.307292 
L 271.708015 251.415247 
L 272.068209 246.709516 
L 272.428402 234.401242 
L 272.788596 228.956464 
L 273.14879 220.681381 
L 273.508983 222.695256 
L 273.869177 229.283364 
L 274.949758 277.394079 
L 275.309952 285.662966 
L 275.670145 288.653316 
L 276.390533 264.610857 
L 277.11092 213.010256 
L 277.471114 196.789664 
L 277.831307 188.575639 
L 278.191501 188.002673 
L 278.911888 211.611602 
L 279.632275 249.034905 
L 279.992469 258.951651 
L 280.352663 256.839156 
L 280.712856 250.652187 
L 281.07305 239.401829 
L 281.433244 233.6405 
L 282.153631 227.722801 
L 282.513825 238.597825 
L 283.594406 287.141922 
L 283.954599 296.727224 
L 284.314793 297.355052 
L 284.674987 292.466974 
L 285.395374 252.7453 
L 286.115761 206.83827 
L 286.475955 198.986068 
L 286.836148 202.582822 
L 288.276923 261.206089 
L 288.637117 271.408319 
L 288.99731 275.559232 
L 289.357504 268.783379 
L 289.717698 259.342636 
L 290.077891 246.594156 
L 290.438085 241.940611 
L 290.798279 246.083709 
L 291.87886 289.174778 
L 292.239053 308.658874 
L 292.599247 318.139208 
L 292.959441 317.520331 
L 293.319634 313.124722 
L 293.679828 287.404564 
L 294.040022 272.66258 
L 294.400215 245.636265 
L 295.120602 221.394958 
L 295.480796 220.305787 
L 295.84099 230.247376 
L 296.201183 246.019327 
L 296.561377 267.362553 
L 297.281764 292.695254 
L 297.641958 292.858092 
L 298.722539 264.707695 
L 299.082733 264.726126 
L 299.442926 265.808791 
L 299.80312 271.318534 
L 300.523507 304.043003 
L 301.243895 330.357463 
L 301.604088 332.36785 
L 301.964282 323.09823 
L 302.324476 305.592759 
L 303.044863 258.825046 
L 303.76525 228.97918 
L 304.125444 233.202281 
L 304.485637 240.89024 
L 304.845831 255.633983 
L 305.206025 277.706119 
L 305.926412 297.008089 
L 306.286606 299.685661 
L 306.646799 296.041381 
L 307.367187 272.836575 
L 307.72738 263.727092 
L 308.087574 267.218783 
L 308.447768 274.69375 
L 309.528349 320.251472 
L 309.888542 330.042922 
L 310.248736 330.937946 
L 310.60893 321.99521 
L 311.329317 279.877605 
L 312.049704 231.852036 
L 312.409898 225.3894 
L 312.770091 222.283885 
L 313.490479 245.751244 
L 314.210866 279.85909 
L 314.57106 287.18253 
L 314.931253 287.992755 
L 315.651641 270.469692 
L 316.011834 256.83665 
L 316.372028 251.855744 
L 316.732222 252.72093 
L 317.092415 263.273206 
L 317.452609 268.846353 
L 318.172996 308.497352 
L 318.53319 316.993744 
L 318.893384 314.005814 
L 319.253577 302.847573 
L 319.613771 286.108711 
L 320.334158 237.810588 
L 320.694352 216.724996 
L 321.054545 203.209378 
L 321.774933 211.762671 
L 322.49532 246.012993 
L 323.215707 269.769614 
L 323.575901 270.501033 
L 325.016676 231.47593 
L 325.376869 231.675606 
L 325.737063 240.481447 
L 326.097257 252.048652 
L 327.177838 297.487183 
L 327.538031 292.416553 
L 327.898225 284.825738 
L 328.258419 268.291535 
L 328.618612 237.542751 
L 329.338999 203.481523 
L 329.699193 188.19119 
L 330.059387 186.628953 
L 330.779774 216.343574 
L 331.139968 228.523565 
L 331.500161 246.178333 
L 331.860355 255.537494 
L 332.220549 252.541588 
L 332.580742 251.483764 
L 332.940936 236.473563 
L 333.661323 219.596549 
L 334.021517 224.959032 
L 334.381711 226.308075 
L 334.741904 247.209259 
L 335.822485 286.947405 
L 336.182679 283.427327 
L 336.542873 277.386868 
L 336.903066 264.831147 
L 337.623453 213.959695 
L 337.983647 197.558683 
L 338.343841 188.200071 
L 338.704034 185.983102 
L 340.505003 255.037275 
L 340.865196 255.580832 
L 341.22539 252.051636 
L 341.945777 227.793907 
L 342.305971 232.014577 
L 342.666165 230.656416 
L 343.026358 238.099769 
L 343.386552 252.638967 
L 343.746746 275.3803 
L 344.106939 285.312879 
L 344.467133 299.097066 
L 344.827327 303.03683 
L 345.18752 291.63615 
L 345.547714 274.491985 
L 346.628295 209.052277 
L 346.988488 197.224725 
L 347.348682 199.238191 
L 347.708876 210.727206 
L 348.429263 248.804431 
L 348.789457 270.032256 
L 349.509844 278.113839 
L 350.230231 262.004502 
L 350.590425 249.97291 
L 350.950619 245.760784 
L 351.310812 248.886906 
L 351.671006 257.532804 
L 352.391393 288.524707 
L 352.751587 307.850723 
L 353.111781 317.941301 
L 353.471974 317.686737 
L 353.832168 310.250862 
L 354.552555 270.009134 
L 354.912749 242.308086 
L 355.272942 227.877153 
L 355.99333 220.051968 
L 356.713717 244.905007 
L 357.434104 283.698523 
L 357.794298 290.610516 
L 358.154492 292.65005 
L 358.514685 285.617901 
L 359.235073 267.982073 
L 359.595266 261.129642 
L 359.95546 266.389201 
L 360.315654 267.810301 
L 360.675847 293.518103 
L 361.396235 323.541319 
L 361.756428 328.228742 
L 362.116622 335.420169 
L 362.837009 307.266408 
L 363.91759 244.253814 
L 364.277784 232.43688 
L 364.637977 230.467242 
L 366.078752 288.25883 
L 366.438946 296.368032 
L 366.799139 297.392127 
L 367.159333 290.907434 
L 367.87972 272.741521 
L 368.239914 260.81067 
L 368.600108 266.096626 
L 369.320495 289.135169 
L 369.680689 302.162762 
L 370.040882 320.964606 
L 370.401076 329.282441 
L 370.761269 328.8931 
L 371.121463 321.497133 
L 372.562238 233.137203 
L 372.922431 223.514117 
L 373.282625 224.027826 
L 373.642819 232.005263 
L 374.363206 264.422206 
L 375.083593 288.156425 
L 375.443787 287.176161 
L 375.803981 280.813355 
L 376.164174 270.181653 
L 376.524368 255.246989 
L 376.884562 252.517133 
L 377.244755 251.378536 
L 377.604949 256.421352 
L 378.325336 290.940939 
L 379.045724 313.545003 
L 379.405917 313.069719 
L 379.766111 304.938249 
L 381.206885 213.360193 
L 381.567079 204.919398 
L 381.927273 203.441718 
L 383.007854 243.644446 
L 383.368047 262.151526 
L 383.728241 267.698674 
L 384.088435 269.085273 
L 384.448628 263.619493 
L 385.169016 237.325388 
L 385.529209 228.983896 
L 385.889403 231.991058 
L 386.249597 237.95151 
L 386.60979 253.110866 
L 387.330178 288.036087 
L 387.690371 294.28837 
L 388.050565 298.025645 
L 388.410758 290.559297 
L 389.851533 198.444012 
L 390.211727 189.631502 
L 390.57192 193.983929 
L 390.932114 195.39286 
L 391.652501 232.420358 
L 392.372889 250.707744 
L 392.733082 254.655268 
L 393.093276 247.114931 
L 393.813663 224.976135 
L 394.173857 228.199963 
L 394.534051 222.684204 
L 394.894244 230.012606 
L 395.254438 243.745506 
L 395.974825 279.547214 
L 396.335019 288.922648 
L 396.695212 285.643864 
L 397.055406 277.642655 
L 397.4156 262.609134 
L 398.135987 212.726625 
L 398.496181 194.505074 
L 398.856374 185.378425 
L 399.216568 187.337655 
L 399.576762 198.153168 
L 400.297149 232.569704 
L 401.017536 257.103536 
L 401.37773 258.198433 
L 401.737924 254.834328 
L 402.458311 231.958784 
L 402.818505 229.825591 
L 403.178698 232.39859 
L 403.899086 249.539318 
L 404.979666 301.887597 
L 405.700054 290.777568 
L 406.060247 272.987869 
L 406.780635 227.676653 
L 407.140828 211.941566 
L 407.501022 202.684168 
L 407.861216 201.448632 
L 408.221409 207.994024 
L 409.30199 261.903788 
L 409.662184 273.774755 
L 410.022378 272.845459 
L 410.382571 268.266799 
L 411.463152 247.642123 
L 411.823346 245.879103 
L 412.543733 269.599873 
L 413.26412 311.137796 
L 413.624314 317.150773 
L 413.984508 318.087522 
L 414.704895 294.397755 
L 415.425282 242.49475 
L 415.785476 227.711665 
L 416.14567 221.04142 
L 416.505863 225.908997 
L 416.866057 227.852443 
L 417.946638 283.215718 
L 418.306832 293.191983 
L 418.667025 292.268878 
L 419.027219 287.739645 
L 419.747606 266.716039 
L 420.1078 261.755474 
L 420.467994 266.954558 
L 420.828187 276.06917 
L 422.268962 330.59755 
L 422.629155 329.717861 
L 422.989349 324.150793 
L 423.349543 309.795473 
L 424.430124 240.74569 
L 424.790317 229.664636 
L 425.150511 229.563675 
L 425.510705 239.235237 
L 426.591286 293.495203 
L 426.951479 296.380686 
L 427.311673 298.294448 
L 427.671867 292.567473 
L 428.392254 270.110153 
L 428.752448 263.654394 
L 429.112641 262.18588 
L 429.472835 270.8951 
L 430.193222 305.748421 
L 430.553416 321.424515 
L 430.913609 329.962986 
L 431.273803 331.994692 
L 431.633997 322.182586 
L 432.714578 259.355155 
L 433.074771 236.406637 
L 433.434965 228.304998 
L 433.795159 224.471231 
L 434.155352 230.538967 
L 434.515546 244.027514 
L 434.87574 266.239814 
L 435.235933 279.521047 
L 435.596127 286.445969 
L 435.956321 290.705518 
L 436.316514 276.593122 
L 436.676708 272.402093 
L 437.036902 258.934736 
L 437.397095 254.301885 
L 437.757289 255.585299 
L 438.117483 261.208 
L 438.477676 273.843412 
L 438.83787 292.982364 
L 439.558257 317.95516 
L 440.278644 304.463581 
L 440.638838 288.933565 
L 441.359225 234.444825 
L 442.079613 203.996447 
L 442.439806 207.391236 
L 442.8 215.633327 
L 443.880581 257.25777 
L 444.240775 269.109133 
L 445.321356 251.787144 
L 446.041743 231.685883 
L 446.401937 230.899764 
L 448.202905 294.648883 
L 448.563098 296.174287 
L 448.923292 282.463649 
L 449.643679 244.452943 
L 450.003873 215.362412 
L 450.364067 197.17142 
L 450.72426 188.492136 
L 451.084454 186.517878 
L 451.444648 196.704361 
L 452.525229 247.341831 
L 453.245616 254.07822 
L 453.60581 248.341309 
L 454.326197 226.350527 
L 454.686391 221.89709 
L 455.046584 221.352936 
L 455.406778 229.876267 
L 456.847552 289.619944 
L 457.207746 288.81791 
L 457.56794 278.293597 
L 458.288327 242.252239 
L 458.648521 213.062481 
L 459.008714 194.676891 
L 459.368908 183.316663 
L 459.729102 184.69879 
L 460.089295 196.260695 
L 460.809683 234.025455 
L 461.53007 257.528248 
L 461.890264 257.66124 
L 462.610651 239.274719 
L 463.331038 228.797479 
L 463.691232 230.697574 
L 464.051425 233.879703 
L 465.132006 288.403582 
L 465.4922 292.912092 
L 465.852394 300.237845 
L 466.212587 289.240347 
L 466.932975 250.92519 
L 467.653362 209.296597 
L 468.013556 202.799374 
L 468.373749 204.171966 
L 468.733943 209.281909 
L 469.814524 261.69086 
L 470.174718 271.562019 
L 470.534911 276.790172 
L 470.895105 269.429468 
L 471.615492 250.206914 
L 471.975686 246.487221 
L 472.33588 247.125937 
L 473.056267 270.135342 
L 473.776654 303.782613 
L 474.136848 317.08684 
L 474.497041 318.116116 
L 475.217429 292.722928 
L 476.29801 224.784931 
L 476.658203 224.368173 
L 477.018397 225.373927 
L 477.378591 232.448147 
L 478.819365 295.417915 
L 479.179559 294.278886 
L 480.26014 270.744569 
L 480.620334 265.389581 
L 480.980527 261.925148 
L 481.340721 272.02487 
L 482.061108 305.473792 
L 482.421302 320.604165 
L 482.781495 330.654824 
L 483.141689 328.514684 
L 483.501883 324.225838 
L 483.862076 307.781705 
L 484.582464 254.577627 
L 484.942657 238.877045 
L 485.302851 228.821334 
L 485.663045 231.614971 
L 486.023238 241.548313 
L 486.383432 255.941968 
L 487.103819 289.492545 
L 487.464013 297.724917 
L 488.1844 292.010486 
L 488.544594 286.405985 
L 488.904788 271.986528 
L 489.264981 266.915759 
L 489.625175 267.720909 
L 489.985368 272.655288 
L 491.065949 321.697689 
L 491.426143 330.863566 
L 491.786337 331.591877 
L 492.14653 322.530214 
L 492.506724 305.339054 
L 493.227111 253.306956 
L 493.587305 234.654082 
L 493.947499 226.663984 
L 494.307692 222.087812 
L 496.108661 284.884055 
L 496.468854 288.485581 
L 497.189242 270.623371 
L 497.909629 246.223839 
L 498.269822 249.743835 
L 498.630016 262.955135 
L 498.99021 270.216487 
L 499.350403 293.994321 
L 500.070791 312.788332 
L 500.430984 314.160146 
L 500.791178 303.326672 
L 502.231953 217.604328 
L 502.592146 207.966793 
L 502.95234 205.36132 
L 503.672727 230.922138 
L 504.393115 262.400514 
L 504.753308 269.486233 
L 505.113502 263.78594 
L 505.473696 262.351257 
L 506.194083 240.684522 
L 506.554276 232.238619 
L 506.91447 230.780504 
L 507.634857 254.231292 
L 508.355245 286.889199 
L 508.715438 292.852122 
L 509.075632 294.624009 
L 509.435826 284.437244 
L 509.796019 267.439355 
L 510.516407 214.867888 
L 510.8766 196.686746 
L 511.236794 189.845134 
L 511.596988 190.425894 
L 511.957181 197.659318 
L 513.037762 245.998388 
L 513.75815 256.76184 
L 514.118343 247.851482 
L 514.478537 235.354138 
L 515.198924 217.857845 
L 515.559118 215.670132 
L 516.279505 243.634265 
L 516.999892 281.091812 
L 517.360086 287.017264 
L 517.72028 285.760144 
L 518.080473 277.411393 
L 518.800861 237.88545 
L 519.521248 194.639406 
L 519.881442 185.583457 
L 520.241635 183.096703 
L 522.042604 256.878266 
L 522.402797 257.073844 
L 522.762991 253.649069 
L 523.123185 240.229087 
L 523.483378 232.042032 
L 523.843572 226.799746 
L 524.203765 230.083135 
L 524.563959 235.440089 
L 524.924153 251.200461 
L 525.64454 287.752104 
L 526.004734 298.189894 
L 526.364927 297.784404 
L 526.725121 290.273088 
L 527.085315 275.31209 
L 527.805702 225.703247 
L 528.165896 208.017453 
L 528.526089 200.789539 
L 528.886283 201.22048 
L 529.246477 211.341244 
L 530.687251 271.391312 
L 531.047445 272.409604 
L 531.407639 271.948093 
L 532.128026 253.396037 
L 532.488219 245.009605 
L 532.848413 245.986583 
L 533.5688 271.540035 
L 534.289188 309.362938 
L 534.649381 318.720321 
L 535.009575 319.892715 
L 535.369769 309.526375 
L 536.090156 269.868479 
L 536.810543 225.877998 
L 537.170737 219.230534 
L 537.530931 219.943779 
L 537.891124 231.324827 
L 538.611512 266.96478 
L 539.331899 292.331749 
L 539.692093 293.939776 
L 540.41248 278.562974 
L 540.772673 265.91748 
L 541.132867 265.500995 
L 541.493061 265.329809 
L 541.853254 276.921186 
L 542.933835 351.067756 
L 543.294029 369.36 
L 543.654223 366.903218 
L 544.014416 354.491373 
L 545.455191 232.900052 
L 545.815385 213.58498 
L 546.175578 212.292186 
L 547.976547 311.001639 
L 548.33674 315.647346 
L 548.696934 297.538205 
L 549.777515 269.333494 
L 550.137708 265.506671 
L 550.497902 275.251824 
L 551.578483 341.880334 
L 551.938677 353.560663 
L 552.29887 353.145419 
L 552.659064 346.450877 
L 554.099839 220.887132 
L 554.460032 199.970674 
L 554.820226 198.23901 
L 555.540613 231.366266 
L 556.261001 280.221083 
L 556.621194 292.921653 
L 556.981388 292.519616 
L 557.341581 284.354611 
L 558.061969 248.043303 
L 558.422162 235.663428 
L 558.782356 241.022869 
L 559.14255 252.966159 
L 559.502743 269.165163 
L 559.862937 300.259803 
L 560.583324 338.538113 
L 560.943518 321.957461 
L 561.303712 315.60469 
L 561.663905 290.196569 
L 562.384293 215.081545 
L 562.744486 186.644116 
L 563.10468 169.039575 
L 563.464874 165.096591 
L 563.825067 178.199583 
L 564.185261 197.100052 
L 564.545455 227.37849 
L 565.265842 250.925271 
L 565.626036 257.476304 
L 565.986229 247.691824 
L 567.06681 203.121549 
L 567.427004 210.865581 
L 567.787197 216.135467 
L 568.147391 233.718805 
L 568.867778 281.816608 
L 569.227972 297.83201 
L 569.588166 293.669397 
L 569.948359 277.653299 
L 570.308553 251.862375 
L 571.02894 185.308108 
L 571.389134 155.393183 
L 571.749328 135.20308 
L 572.109521 135.961426 
L 573.550296 220.505165 
L 573.91049 233.445092 
L 574.270683 235.404585 
L 574.630877 224.739118 
L 574.99107 210.376524 
L 575.351264 189.888117 
L 575.711458 180.961434 
L 576.071651 185.29396 
L 576.431845 197.979495 
L 577.512426 269.084202 
L 577.87262 282.94752 
L 578.232813 286.187449 
L 578.593007 274.844688 
L 579.673588 172.170354 
L 580.393975 127.690182 
L 580.754169 130.492154 
L 581.114363 142.21631 
L 581.83475 196.296492 
L 582.555137 234.964553 
L 582.915331 232.164493 
L 583.275524 225.710356 
L 583.635718 206.579796 
L 584.356105 189.907263 
L 584.716299 192.576926 
L 585.076493 197.590758 
L 586.517267 297.011161 
L 586.877461 291.961009 
L 587.237655 284.359395 
L 588.318236 188.85971 
L 588.678429 161.127749 
L 589.038623 148.007016 
L 589.398817 146.408682 
L 590.119204 184.268238 
L 590.839591 239.227892 
L 591.199785 248.913159 
L 591.559978 252.448647 
L 591.920172 242.923968 
L 592.640559 218.856566 
L 593.000753 207.680192 
L 593.72114 224.58303 
L 594.441528 281.783717 
L 594.801721 302.5952 
L 595.161915 316.648198 
L 595.522109 322.28679 
L 595.882302 312.237472 
L 597.323077 187.361107 
L 597.683271 166.908771 
L 598.043464 172.952476 
L 598.403658 181.879836 
L 599.124045 236.143367 
L 599.484239 265.716328 
L 600.204626 284.05748 
L 600.925013 253.59147 
L 601.285207 244.512984 
L 601.645401 231.002465 
L 602.005594 232.706786 
L 602.365788 242.880522 
L 603.446369 322.845259 
L 603.806563 337.190535 
L 604.166756 334.237091 
L 604.52695 319.339858 
L 604.887144 293.02033 
L 605.607531 225.226841 
L 605.967725 199.71544 
L 606.327918 186.489827 
L 606.688112 182.639775 
L 607.048306 199.835215 
L 608.128886 268.760938 
L 608.48908 282.549177 
L 608.849274 285.690175 
L 609.929855 244.789099 
L 610.290048 224.678258 
L 610.650242 231.569747 
L 611.370629 262.134064 
L 611.730823 295.094544 
L 612.45121 330.037538 
L 612.811404 325.509893 
L 613.531791 282.772219 
L 614.252179 211.078453 
L 614.612372 182.73294 
L 614.972566 165.307005 
L 615.33276 167.29746 
L 616.053147 205.325089 
L 616.773534 248.324865 
L 617.493921 262.425192 
L 617.854115 245.811545 
L 618.214309 236.70253 
L 618.574502 216.377656 
L 619.29489 208.154527 
L 620.015277 233.63783 
L 620.375471 265.888511 
L 621.095858 298.649927 
L 621.456052 306.058322 
L 622.176439 249.109228 
L 623.25702 151.993318 
L 623.617214 130.13468 
L 623.977407 126.666513 
L 624.337601 145.479021 
L 624.697795 173.706056 
L 625.057988 188.044866 
L 625.418182 216.959812 
L 625.778375 228.538044 
L 626.138569 231.622073 
L 626.498763 220.940758 
L 626.858956 196.695993 
L 627.579344 169.217697 
L 627.939537 172.639319 
L 628.299731 180.872867 
L 629.020118 230.043338 
L 629.380312 254.11647 
L 629.740506 263.89794 
L 630.100699 262.244143 
L 630.460893 245.850608 
L 630.821087 221.782857 
L 631.541474 149.250181 
L 631.901668 119.557732 
L 632.261861 104.234735 
L 632.622055 108.382865 
L 633.342442 137.946813 
L 634.062829 188.650703 
L 634.423023 197.654733 
L 634.783217 203.863602 
L 635.503604 173.706044 
L 635.863798 157.015867 
L 636.223991 150.640453 
L 636.584185 150.47501 
L 636.944379 157.944668 
L 638.02496 238.105708 
L 638.385153 256.21113 
L 638.745347 252.702295 
L 639.105541 237.142062 
L 639.465734 210.990762 
L 640.546315 111.269887 
L 640.906509 103.187919 
L 641.266703 102.009962 
L 641.626896 116.945379 
L 643.067671 198.047777 
L 643.427864 204.926581 
L 643.788058 188.601322 
L 644.148252 181.055431 
L 644.508445 164.115331 
L 644.868639 161.052319 
L 645.228833 161.790613 
L 645.589026 173.768483 
L 645.94922 193.09707 
L 646.309414 222.647906 
L 647.029801 261.385484 
L 647.389995 266.65738 
L 648.110382 218.608479 
L 649.190963 120.964456 
L 649.551157 115.927236 
L 649.91135 113.234698 
L 650.271544 130.75292 
L 651.352125 211.006997 
L 652.072512 221.33548 
L 652.432706 209.004587 
L 652.792899 203.630041 
L 653.153093 187.365497 
L 653.513287 182.138652 
L 653.87348 182.994918 
L 654.233674 193.00741 
L 655.674449 287.156217 
L 656.034642 292.951493 
L 656.75503 246.074508 
L 657.835611 148.671527 
L 658.195804 139.249805 
L 658.555998 140.72406 
L 658.916192 151.009838 
L 659.636579 207.468224 
L 659.996772 233.769303 
L 660.356966 247.502795 
L 660.71716 248.507216 
L 661.077353 239.520254 
L 662.157934 195.188872 
L 662.518128 195.001351 
L 663.238515 238.265355 
L 663.958903 291.594116 
L 664.319096 303.518877 
L 664.67929 309.860153 
L 665.399677 263.804043 
L 666.120065 190.960783 
L 666.480258 162.24621 
L 666.840452 150.474397 
L 667.200646 151.073889 
L 667.560839 166.956147 
L 668.64142 238.16779 
L 669.001614 248.299326 
L 669.361807 252.701922 
L 669.722001 245.790885 
L 670.082195 224.514196 
L 670.442388 210.624562 
L 670.802582 201.416886 
L 671.162776 199.219007 
L 671.522969 212.62068 
L 672.963744 293.70235 
L 673.323938 298.85912 
L 673.684131 282.030238 
L 674.044325 254.099058 
L 674.764712 180.848326 
L 675.124906 149.421173 
L 675.4851 135.314215 
L 675.845293 136.910038 
L 676.205487 147.054333 
L 677.286068 212.369269 
L 677.646261 224.652778 
L 678.006455 226.707373 
L 678.366649 219.420862 
L 679.087036 184.565152 
L 679.44723 174.034704 
L 679.807423 178.394012 
L 680.167617 180.409237 
L 680.527811 215.041388 
L 680.888004 230.040865 
L 681.248198 255.172169 
L 681.608392 270.017263 
L 681.968585 268.231475 
L 682.688973 218.056841 
L 683.769554 118.8849 
L 684.489941 98.83852 
L 684.850134 113.431715 
L 685.930715 183.789829 
L 686.290909 193.579122 
L 686.651103 197.548484 
L 687.011296 188.805923 
L 687.37149 169.29636 
L 688.091877 144.088676 
L 688.452071 141.488888 
L 688.812265 151.217047 
L 689.892846 216.46601 
L 690.253039 234.576151 
L 690.613233 233.281804 
L 690.973427 216.465271 
L 692.774395 69.081962 
L 693.134588 67.494347 
L 693.494782 85.359954 
L 694.575363 154.329058 
L 694.935557 164.25809 
L 695.29575 168.066781 
L 695.655944 160.336473 
L 696.016138 144.992601 
L 696.376331 122.205561 
L 696.736525 124.260565 
L 697.096719 124.383805 
L 697.456912 135.982687 
L 698.897687 219.170897 
L 699.257881 220.545435 
L 699.618074 208.20152 
L 699.978268 180.171868 
L 701.058849 76.74393 
L 701.419042 69.618827 
L 701.779236 66.96 
L 702.13943 81.927018 
L 703.220011 152.235775 
L 703.580204 163.518206 
L 703.940398 168.431639 
L 704.660785 144.264739 
L 705.020979 124.467767 
L 705.381173 119.237615 
L 705.741366 128.548126 
L 706.461754 157.499911 
L 706.821947 192.940952 
L 707.182141 211.394317 
L 707.902528 234.165157 
L 708.262722 221.025812 
L 709.703497 93.610485 
L 710.06369 79.496288 
L 710.423884 79.628976 
L 711.144271 119.687114 
L 711.864658 172.567634 
L 712.224852 183.794194 
L 712.585046 187.035828 
L 712.945239 186.740837 
L 713.305433 162.693096 
L 713.665627 151.026863 
L 714.02582 150.662639 
L 714.386014 150.087523 
L 715.106401 182.23554 
L 715.826789 239.756374 
L 716.186982 256.359288 
L 716.547176 259.690484 
L 716.90737 240.423144 
L 718.348144 124.213745 
L 718.708338 105.528547 
L 719.068531 106.291003 
L 719.428725 125.266553 
L 719.788919 157.307523 
L 720.8695 215.753495 
L 721.589887 206.189542 
L 721.950081 189.943518 
L 722.310274 179.712758 
L 722.670468 163.014978 
L 723.030662 168.051601 
L 724.83163 273.513158 
L 725.191824 269.272312 
L 725.552017 254.187178 
L 725.912211 231.491738 
L 726.992792 136.003089 
L 727.352985 114.754264 
L 727.713179 118.435302 
L 728.073373 130.390233 
L 728.79376 181.107744 
L 729.514147 217.770461 
L 729.874341 217.756951 
L 730.234535 206.636165 
L 730.594728 186.523405 
L 731.675309 162.23061 
L 732.395697 201.074122 
L 733.116084 252.377578 
L 733.476278 259.514774 
L 733.836471 261.973554 
L 734.196665 246.55468 
L 734.917052 183.004369 
L 735.637439 114.499876 
L 735.997633 96.635748 
L 736.357827 103.714465 
L 736.71802 116.222575 
L 737.798601 184.91287 
L 738.158795 199.066364 
L 738.518989 194.911198 
L 738.879182 187.797298 
L 739.59957 155.160627 
L 739.959763 144.180345 
L 740.319957 142.826349 
L 740.680151 149.82556 
L 741.040344 177.164364 
L 741.400538 193.640764 
L 741.760732 225.698389 
L 742.481119 239.670334 
L 742.841313 217.139125 
L 743.201506 187.068503 
L 743.201506 187.068503 
" style="fill:none;stroke:#1f77b4;stroke-linecap:square;stroke-width:1.5;"/>
   </g>
   <g id="line2d_19">
    <path clip-path="url(#p54e66d506c)" d="M 747.163636 384.48 
L 747.163636 51.84 
" style="fill:none;stroke:#808080;stroke-linecap:square;"/>
   </g>
   <g id="patch_110">
    <path d="M 108 384.48 
L 108 51.84 
" style="fill:none;stroke:#000000;stroke-linecap:square;stroke-linejoin:miter;stroke-width:0.8;"/>
   </g>
   <g id="patch_111">
    <path d="M 777.6 384.48 
L 777.6 51.84 
" style="fill:none;stroke:#000000;stroke-linecap:square;stroke-linejoin:miter;stroke-width:0.8;"/>
   </g>
   <g id="patch_112">
    <path d="M 108 384.48 
L 777.6 384.48 
" style="fill:none;stroke:#000000;stroke-linecap:square;stroke-linejoin:miter;stroke-width:0.8;"/>
   </g>
   <g id="patch_113">
    <path d="M 108 51.84 
L 777.6 51.84 
" style="fill:none;stroke:#000000;stroke-linecap:square;stroke-linejoin:miter;stroke-width:0.8;"/>
   </g>
   <g id="text_20">
    <!-- A4Benchmark-TS66.csv -->
    <defs>
     <path d="M 34.1875 63.1875 
L 20.796875 26.90625 
L 47.609375 26.90625 
z
M 28.609375 72.90625 
L 39.796875 72.90625 
L 67.578125 0 
L 57.328125 0 
L 50.6875 18.703125 
L 17.828125 18.703125 
L 11.1875 0 
L 0.78125 0 
z
" id="DejaVuSans-65"/>
     <path d="M 19.671875 34.8125 
L 19.671875 8.109375 
L 35.5 8.109375 
Q 43.453125 8.109375 47.28125 11.40625 
Q 51.125 14.703125 51.125 21.484375 
Q 51.125 28.328125 47.28125 31.5625 
Q 43.453125 34.8125 35.5 34.8125 
z
M 19.671875 64.796875 
L 19.671875 42.828125 
L 34.28125 42.828125 
Q 41.5 42.828125 45.03125 45.53125 
Q 48.578125 48.25 48.578125 53.8125 
Q 48.578125 59.328125 45.03125 62.0625 
Q 41.5 64.796875 34.28125 64.796875 
z
M 9.8125 72.90625 
L 35.015625 72.90625 
Q 46.296875 72.90625 52.390625 68.21875 
Q 58.5 63.53125 58.5 54.890625 
Q 58.5 48.1875 55.375 44.234375 
Q 52.25 40.28125 46.1875 39.3125 
Q 53.46875 37.75 57.5 32.78125 
Q 61.53125 27.828125 61.53125 20.40625 
Q 61.53125 10.640625 54.890625 5.3125 
Q 48.25 0 35.984375 0 
L 9.8125 0 
z
" id="DejaVuSans-66"/>
     <path d="M 54.890625 33.015625 
L 54.890625 0 
L 45.90625 0 
L 45.90625 32.71875 
Q 45.90625 40.484375 42.875 44.328125 
Q 39.84375 48.1875 33.796875 48.1875 
Q 26.515625 48.1875 22.3125 43.546875 
Q 18.109375 38.921875 18.109375 30.90625 
L 18.109375 0 
L 9.078125 0 
L 9.078125 54.6875 
L 18.109375 54.6875 
L 18.109375 46.1875 
Q 21.34375 51.125 25.703125 53.5625 
Q 30.078125 56 35.796875 56 
Q 45.21875 56 50.046875 50.171875 
Q 54.890625 44.34375 54.890625 33.015625 
z
" id="DejaVuSans-110"/>
     <path d="M 48.78125 52.59375 
L 48.78125 44.1875 
Q 44.96875 46.296875 41.140625 47.34375 
Q 37.3125 48.390625 33.40625 48.390625 
Q 24.65625 48.390625 19.8125 42.84375 
Q 14.984375 37.3125 14.984375 27.296875 
Q 14.984375 17.28125 19.8125 11.734375 
Q 24.65625 6.203125 33.40625 6.203125 
Q 37.3125 6.203125 41.140625 7.25 
Q 44.96875 8.296875 48.78125 10.40625 
L 48.78125 2.09375 
Q 45.015625 0.34375 40.984375 -0.53125 
Q 36.96875 -1.421875 32.421875 -1.421875 
Q 20.0625 -1.421875 12.78125 6.34375 
Q 5.515625 14.109375 5.515625 27.296875 
Q 5.515625 40.671875 12.859375 48.328125 
Q 20.21875 56 33.015625 56 
Q 37.15625 56 41.109375 55.140625 
Q 45.0625 54.296875 48.78125 52.59375 
z
" id="DejaVuSans-99"/>
     <path d="M 54.890625 33.015625 
L 54.890625 0 
L 45.90625 0 
L 45.90625 32.71875 
Q 45.90625 40.484375 42.875 44.328125 
Q 39.84375 48.1875 33.796875 48.1875 
Q 26.515625 48.1875 22.3125 43.546875 
Q 18.109375 38.921875 18.109375 30.90625 
L 18.109375 0 
L 9.078125 0 
L 9.078125 75.984375 
L 18.109375 75.984375 
L 18.109375 46.1875 
Q 21.34375 51.125 25.703125 53.5625 
Q 30.078125 56 35.796875 56 
Q 45.21875 56 50.046875 50.171875 
Q 54.890625 44.34375 54.890625 33.015625 
z
" id="DejaVuSans-104"/>
     <path d="M 41.109375 46.296875 
Q 39.59375 47.171875 37.8125 47.578125 
Q 36.03125 48 33.890625 48 
Q 26.265625 48 22.1875 43.046875 
Q 18.109375 38.09375 18.109375 28.8125 
L 18.109375 0 
L 9.078125 0 
L 9.078125 54.6875 
L 18.109375 54.6875 
L 18.109375 46.1875 
Q 20.953125 51.171875 25.484375 53.578125 
Q 30.03125 56 36.53125 56 
Q 37.453125 56 38.578125 55.875 
Q 39.703125 55.765625 41.0625 55.515625 
z
" id="DejaVuSans-114"/>
     <path d="M 9.078125 75.984375 
L 18.109375 75.984375 
L 18.109375 31.109375 
L 44.921875 54.6875 
L 56.390625 54.6875 
L 27.390625 29.109375 
L 57.625 0 
L 45.90625 0 
L 18.109375 26.703125 
L 18.109375 0 
L 9.078125 0 
z
" id="DejaVuSans-107"/>
     <path d="M 4.890625 31.390625 
L 31.203125 31.390625 
L 31.203125 23.390625 
L 4.890625 23.390625 
z
" id="DejaVuSans-45"/>
     <path d="M 53.515625 70.515625 
L 53.515625 60.890625 
Q 47.90625 63.578125 42.921875 64.890625 
Q 37.9375 66.21875 33.296875 66.21875 
Q 25.25 66.21875 20.875 63.09375 
Q 16.5 59.96875 16.5 54.203125 
Q 16.5 49.359375 19.40625 46.890625 
Q 22.3125 44.4375 30.421875 42.921875 
L 36.375 41.703125 
Q 47.40625 39.59375 52.65625 34.296875 
Q 57.90625 29 57.90625 20.125 
Q 57.90625 9.515625 50.796875 4.046875 
Q 43.703125 -1.421875 29.984375 -1.421875 
Q 24.8125 -1.421875 18.96875 -0.25 
Q 13.140625 0.921875 6.890625 3.21875 
L 6.890625 13.375 
Q 12.890625 10.015625 18.65625 8.296875 
Q 24.421875 6.59375 29.984375 6.59375 
Q 38.421875 6.59375 43.015625 9.90625 
Q 47.609375 13.234375 47.609375 19.390625 
Q 47.609375 24.75 44.3125 27.78125 
Q 41.015625 30.8125 33.5 32.328125 
L 27.484375 33.5 
Q 16.453125 35.6875 11.515625 40.375 
Q 6.59375 45.0625 6.59375 53.421875 
Q 6.59375 63.09375 13.40625 68.65625 
Q 20.21875 74.21875 32.171875 74.21875 
Q 37.3125 74.21875 42.625 73.28125 
Q 47.953125 72.359375 53.515625 70.515625 
z
" id="DejaVuSans-83"/>
     <path d="M 10.6875 12.40625 
L 21 12.40625 
L 21 0 
L 10.6875 0 
z
" id="DejaVuSans-46"/>
     <path d="M 2.984375 54.6875 
L 12.5 54.6875 
L 29.59375 8.796875 
L 46.6875 54.6875 
L 56.203125 54.6875 
L 35.6875 0 
L 23.484375 0 
z
" id="DejaVuSans-118"/>
    </defs>
    <g transform="translate(371.555625 45.84)scale(0.12 -0.12)">
     <use xlink:href="#DejaVuSans-65"/>
     <use x="68.408203" xlink:href="#DejaVuSans-52"/>
     <use x="132.03125" xlink:href="#DejaVuSans-66"/>
     <use x="200.634766" xlink:href="#DejaVuSans-101"/>
     <use x="262.158203" xlink:href="#DejaVuSans-110"/>
     <use x="325.537109" xlink:href="#DejaVuSans-99"/>
     <use x="380.517578" xlink:href="#DejaVuSans-104"/>
     <use x="443.896484" xlink:href="#DejaVuSans-109"/>
     <use x="541.308594" xlink:href="#DejaVuSans-97"/>
     <use x="602.587891" xlink:href="#DejaVuSans-114"/>
     <use x="643.701172" xlink:href="#DejaVuSans-107"/>
     <use x="701.611328" xlink:href="#DejaVuSans-45"/>
     <use x="737.554688" xlink:href="#DejaVuSans-84"/>
     <use x="798.638672" xlink:href="#DejaVuSans-83"/>
     <use x="862.115234" xlink:href="#DejaVuSans-54"/>
     <use x="925.738281" xlink:href="#DejaVuSans-54"/>
     <use x="989.361328" xlink:href="#DejaVuSans-46"/>
     <use x="1021.148438" xlink:href="#DejaVuSans-99"/>
     <use x="1076.128906" xlink:href="#DejaVuSans-115"/>
     <use x="1128.228516" xlink:href="#DejaVuSans-118"/>
    </g>
   </g>
   <g id="legend_1">
    <g id="patch_114">
     <path d="M 115 74.518125 
L 174.315625 74.518125 
Q 176.315625 74.518125 176.315625 72.518125 
L 176.315625 58.84 
Q 176.315625 56.84 174.315625 56.84 
L 115 56.84 
Q 113 56.84 113 58.84 
L 113 72.518125 
Q 113 74.518125 115 74.518125 
z
" style="fill:#ffffff;opacity:0.8;stroke:#cccccc;stroke-linejoin:miter;"/>
    </g>
    <g id="line2d_20">
     <path d="M 117 64.938438 
L 137 64.938438 
" style="fill:none;stroke:#1f77b4;stroke-linecap:square;stroke-width:1.5;"/>
    </g>
    <g id="line2d_21"/>
    <g id="text_21">
     <!-- value -->
     <g transform="translate(145 68.438438)scale(0.1 -0.1)">
      <use xlink:href="#DejaVuSans-118"/>
      <use x="59.179688" xlink:href="#DejaVuSans-97"/>
      <use x="120.458984" xlink:href="#DejaVuSans-108"/>
      <use x="148.242188" xlink:href="#DejaVuSans-117"/>
      <use x="211.621094" xlink:href="#DejaVuSans-101"/>
     </g>
    </g>
   </g>
  </g>
 </g>
 <defs>
  <clipPath id="p54e66d506c">
   <rect height="332.64" width="669.6" x="108" y="51.84"/>
  </clipPath>
 </defs>
</svg>
