<?xml version="1.0" encoding="utf-8" standalone="no"?>
<!DOCTYPE svg PUBLIC "-//W3C//DTD SVG 1.1//EN"
  "http://www.w3.org/Graphics/SVG/1.1/DTD/svg11.dtd">
<!-- Created with matplotlib (https://matplotlib.org/) -->
<svg height="432pt" version="1.1" viewBox="0 0 864 432" width="864pt" xmlns="http://www.w3.org/2000/svg" xmlns:xlink="http://www.w3.org/1999/xlink">
 <defs>
  <style type="text/css">
*{stroke-linecap:butt;stroke-linejoin:round;}
  </style>
 </defs>
 <g id="figure_1">
  <g id="patch_1">
   <path d="M 0 432 
L 864 432 
L 864 0 
L 0 0 
z
" style="fill:#ffffff;"/>
  </g>
  <g id="axes_1">
   <g id="patch_2">
    <path d="M 108 384.48 
L 777.6 384.48 
L 777.6 51.84 
L 108 51.84 
z
" style="fill:#ffffff;"/>
   </g>
   <g id="patch_3">
    <path clip-path="url(#pb84e0982f7)" d="M 138.436364 384.48 
L 138.436364 51.84 
L 440.999032 51.84 
L 440.999032 384.48 
z
" style="fill:#0000ff;opacity:0.05;"/>
   </g>
   <g id="patch_4">
    <path clip-path="url(#pb84e0982f7)" d="M 440.999032 384.48 
L 440.999032 51.84 
L 747.163636 51.84 
L 747.163636 384.48 
z
" style="fill:#ff0000;opacity:0.08;"/>
   </g>
   <g id="patch_5">
    <path clip-path="url(#pb84e0982f7)" d="M 138.436364 384.48 
L 138.436364 51.84 
L 142.0383 51.84 
L 142.0383 384.48 
z
" style="fill:#008000;opacity:0.04;"/>
   </g>
   <g id="patch_6">
    <path clip-path="url(#pb84e0982f7)" d="M 145.640237 384.48 
L 145.640237 51.84 
L 149.242173 51.84 
L 149.242173 384.48 
z
" style="fill:#008000;opacity:0.04;"/>
   </g>
   <g id="patch_7">
    <path clip-path="url(#pb84e0982f7)" d="M 152.84411 384.48 
L 152.84411 51.84 
L 156.446046 51.84 
L 156.446046 384.48 
z
" style="fill:#008000;opacity:0.04;"/>
   </g>
   <g id="patch_8">
    <path clip-path="url(#pb84e0982f7)" d="M 160.047983 384.48 
L 160.047983 51.84 
L 163.649919 51.84 
L 163.649919 384.48 
z
" style="fill:#008000;opacity:0.04;"/>
   </g>
   <g id="patch_9">
    <path clip-path="url(#pb84e0982f7)" d="M 167.251856 384.48 
L 167.251856 51.84 
L 170.853792 51.84 
L 170.853792 384.48 
z
" style="fill:#008000;opacity:0.04;"/>
   </g>
   <g id="patch_10">
    <path clip-path="url(#pb84e0982f7)" d="M 469.814524 384.48 
L 469.814524 371.1744 
L 473.41646 371.1744 
L 473.41646 384.48 
z
" style="fill:#ff6600;"/>
   </g>
   <g id="patch_11">
    <path clip-path="url(#pb84e0982f7)" d="M 174.455729 384.48 
L 174.455729 51.84 
L 178.057665 51.84 
L 178.057665 384.48 
z
" style="fill:#008000;opacity:0.04;"/>
   </g>
   <g id="patch_12">
    <path clip-path="url(#pb84e0982f7)" d="M 181.659602 384.48 
L 181.659602 51.84 
L 185.261538 51.84 
L 185.261538 384.48 
z
" style="fill:#008000;opacity:0.04;"/>
   </g>
   <g id="patch_13">
    <path clip-path="url(#pb84e0982f7)" d="M 188.863475 384.48 
L 188.863475 51.84 
L 192.465412 51.84 
L 192.465412 384.48 
z
" style="fill:#008000;opacity:0.04;"/>
   </g>
   <g id="patch_14">
    <path clip-path="url(#pb84e0982f7)" d="M 196.067348 384.48 
L 196.067348 51.84 
L 199.669285 51.84 
L 199.669285 384.48 
z
" style="fill:#008000;opacity:0.04;"/>
   </g>
   <g id="patch_15">
    <path clip-path="url(#pb84e0982f7)" d="M 203.271221 384.48 
L 203.271221 51.84 
L 206.873158 51.84 
L 206.873158 384.48 
z
" style="fill:#008000;opacity:0.04;"/>
   </g>
   <g id="patch_16">
    <path clip-path="url(#pb84e0982f7)" d="M 509.435826 384.48 
L 509.435826 371.1744 
L 513.037762 371.1744 
L 513.037762 384.48 
z
" style="fill:#ff6600;"/>
   </g>
   <g id="patch_17">
    <path clip-path="url(#pb84e0982f7)" d="M 210.475094 384.48 
L 210.475094 51.84 
L 214.077031 51.84 
L 214.077031 384.48 
z
" style="fill:#008000;opacity:0.04;"/>
   </g>
   <g id="patch_18">
    <path clip-path="url(#pb84e0982f7)" d="M 217.678967 384.48 
L 217.678967 51.84 
L 221.280904 51.84 
L 221.280904 384.48 
z
" style="fill:#008000;opacity:0.04;"/>
   </g>
   <g id="patch_19">
    <path clip-path="url(#pb84e0982f7)" d="M 224.88284 384.48 
L 224.88284 51.84 
L 228.484777 51.84 
L 228.484777 384.48 
z
" style="fill:#008000;opacity:0.04;"/>
   </g>
   <g id="patch_20">
    <path clip-path="url(#pb84e0982f7)" d="M 232.086713 384.48 
L 232.086713 51.84 
L 235.68865 51.84 
L 235.68865 384.48 
z
" style="fill:#008000;opacity:0.04;"/>
   </g>
   <g id="patch_21">
    <path clip-path="url(#pb84e0982f7)" d="M 239.290586 384.48 
L 239.290586 51.84 
L 242.892523 51.84 
L 242.892523 384.48 
z
" style="fill:#008000;opacity:0.04;"/>
   </g>
   <g id="patch_22">
    <path clip-path="url(#pb84e0982f7)" d="M 246.494459 384.48 
L 246.494459 51.84 
L 250.096396 51.84 
L 250.096396 384.48 
z
" style="fill:#008000;opacity:0.04;"/>
   </g>
   <g id="patch_23">
    <path clip-path="url(#pb84e0982f7)" d="M 253.698332 384.48 
L 253.698332 51.84 
L 257.300269 51.84 
L 257.300269 384.48 
z
" style="fill:#008000;opacity:0.04;"/>
   </g>
   <g id="patch_24">
    <path clip-path="url(#pb84e0982f7)" d="M 260.902205 384.48 
L 260.902205 51.84 
L 264.504142 51.84 
L 264.504142 384.48 
z
" style="fill:#008000;opacity:0.04;"/>
   </g>
   <g id="patch_25">
    <path clip-path="url(#pb84e0982f7)" d="M 268.106079 384.48 
L 268.106079 51.84 
L 271.708015 51.84 
L 271.708015 384.48 
z
" style="fill:#008000;opacity:0.04;"/>
   </g>
   <g id="patch_26">
    <path clip-path="url(#pb84e0982f7)" d="M 275.309952 384.48 
L 275.309952 51.84 
L 278.911888 51.84 
L 278.911888 384.48 
z
" style="fill:#008000;opacity:0.04;"/>
   </g>
   <g id="patch_27">
    <path clip-path="url(#pb84e0982f7)" d="M 282.513825 384.48 
L 282.513825 51.84 
L 286.115761 51.84 
L 286.115761 384.48 
z
" style="fill:#008000;opacity:0.04;"/>
   </g>
   <g id="patch_28">
    <path clip-path="url(#pb84e0982f7)" d="M 286.115761 371.1744 
L 286.115761 357.8688 
L 289.717698 357.8688 
L 289.717698 371.1744 
z
" style="fill:#ff00ff;"/>
   </g>
   <g id="patch_29">
    <path clip-path="url(#pb84e0982f7)" d="M 289.717698 384.48 
L 289.717698 51.84 
L 293.319634 51.84 
L 293.319634 384.48 
z
" style="fill:#008000;opacity:0.04;"/>
   </g>
   <g id="patch_30">
    <path clip-path="url(#pb84e0982f7)" d="M 293.319634 384.48 
L 293.319634 371.1744 
L 296.921571 371.1744 
L 296.921571 384.48 
z
" style="fill:#ffe500;"/>
   </g>
   <g id="patch_31">
    <path clip-path="url(#pb84e0982f7)" d="M 296.921571 384.48 
L 296.921571 51.84 
L 300.523507 51.84 
L 300.523507 384.48 
z
" style="fill:#008000;opacity:0.04;"/>
   </g>
   <g id="patch_32">
    <path clip-path="url(#pb84e0982f7)" d="M 304.125444 384.48 
L 304.125444 51.84 
L 307.72738 51.84 
L 307.72738 384.48 
z
" style="fill:#008000;opacity:0.04;"/>
   </g>
   <g id="patch_33">
    <path clip-path="url(#pb84e0982f7)" d="M 311.329317 384.48 
L 311.329317 51.84 
L 314.931253 51.84 
L 314.931253 384.48 
z
" style="fill:#008000;opacity:0.04;"/>
   </g>
   <g id="patch_34">
    <path clip-path="url(#pb84e0982f7)" d="M 318.53319 384.48 
L 318.53319 51.84 
L 322.135126 51.84 
L 322.135126 384.48 
z
" style="fill:#008000;opacity:0.04;"/>
   </g>
   <g id="patch_35">
    <path clip-path="url(#pb84e0982f7)" d="M 318.53319 384.48 
L 318.53319 371.1744 
L 322.135126 371.1744 
L 322.135126 384.48 
z
" style="fill:#ffe500;"/>
   </g>
   <g id="patch_36">
    <path clip-path="url(#pb84e0982f7)" d="M 325.737063 384.48 
L 325.737063 51.84 
L 329.338999 51.84 
L 329.338999 384.48 
z
" style="fill:#008000;opacity:0.04;"/>
   </g>
   <g id="patch_37">
    <path clip-path="url(#pb84e0982f7)" d="M 332.940936 384.48 
L 332.940936 51.84 
L 336.542873 51.84 
L 336.542873 384.48 
z
" style="fill:#008000;opacity:0.04;"/>
   </g>
   <g id="patch_38">
    <path clip-path="url(#pb84e0982f7)" d="M 340.144809 384.48 
L 340.144809 51.84 
L 343.746746 51.84 
L 343.746746 384.48 
z
" style="fill:#008000;opacity:0.04;"/>
   </g>
   <g id="patch_39">
    <path clip-path="url(#pb84e0982f7)" d="M 343.746746 384.48 
L 343.746746 371.1744 
L 347.348682 371.1744 
L 347.348682 384.48 
z
" style="fill:#ffe500;"/>
   </g>
   <g id="patch_40">
    <path clip-path="url(#pb84e0982f7)" d="M 347.348682 384.48 
L 347.348682 51.84 
L 350.950619 51.84 
L 350.950619 384.48 
z
" style="fill:#008000;opacity:0.04;"/>
   </g>
   <g id="patch_41">
    <path clip-path="url(#pb84e0982f7)" d="M 350.950619 371.1744 
L 350.950619 51.84 
L 354.552555 51.84 
L 354.552555 371.1744 
z
" style="fill:#008000;opacity:0.5;"/>
   </g>
   <g id="patch_42">
    <path clip-path="url(#pb84e0982f7)" d="M 350.950619 384.48 
L 350.950619 371.1744 
L 354.552555 371.1744 
L 354.552555 384.48 
z
" style="fill:#ffe500;"/>
   </g>
   <g id="patch_43">
    <path clip-path="url(#pb84e0982f7)" d="M 354.552555 384.48 
L 354.552555 51.84 
L 358.154492 51.84 
L 358.154492 384.48 
z
" style="fill:#008000;opacity:0.04;"/>
   </g>
   <g id="patch_44">
    <path clip-path="url(#pb84e0982f7)" d="M 361.756428 384.48 
L 361.756428 51.84 
L 365.358365 51.84 
L 365.358365 384.48 
z
" style="fill:#008000;opacity:0.04;"/>
   </g>
   <g id="patch_45">
    <path clip-path="url(#pb84e0982f7)" d="M 361.756428 384.48 
L 361.756428 371.1744 
L 365.358365 371.1744 
L 365.358365 384.48 
z
" style="fill:#ffe500;"/>
   </g>
   <g id="patch_46">
    <path clip-path="url(#pb84e0982f7)" d="M 368.960301 384.48 
L 368.960301 51.84 
L 372.562238 51.84 
L 372.562238 384.48 
z
" style="fill:#008000;opacity:0.04;"/>
   </g>
   <g id="patch_47">
    <path clip-path="url(#pb84e0982f7)" d="M 376.164174 384.48 
L 376.164174 51.84 
L 379.766111 51.84 
L 379.766111 384.48 
z
" style="fill:#008000;opacity:0.04;"/>
   </g>
   <g id="patch_48">
    <path clip-path="url(#pb84e0982f7)" d="M 379.766111 384.48 
L 379.766111 371.1744 
L 383.368047 371.1744 
L 383.368047 384.48 
z
" style="fill:#ffe500;"/>
   </g>
   <g id="patch_49">
    <path clip-path="url(#pb84e0982f7)" d="M 383.368047 384.48 
L 383.368047 51.84 
L 386.969984 51.84 
L 386.969984 384.48 
z
" style="fill:#008000;opacity:0.04;"/>
   </g>
   <g id="patch_50">
    <path clip-path="url(#pb84e0982f7)" d="M 390.57192 384.48 
L 390.57192 51.84 
L 394.173857 51.84 
L 394.173857 384.48 
z
" style="fill:#008000;opacity:0.04;"/>
   </g>
   <g id="patch_51">
    <path clip-path="url(#pb84e0982f7)" d="M 397.775793 384.48 
L 397.775793 51.84 
L 401.37773 51.84 
L 401.37773 384.48 
z
" style="fill:#008000;opacity:0.04;"/>
   </g>
   <g id="patch_52">
    <path clip-path="url(#pb84e0982f7)" d="M 404.979666 384.48 
L 404.979666 51.84 
L 408.581603 51.84 
L 408.581603 384.48 
z
" style="fill:#008000;opacity:0.04;"/>
   </g>
   <g id="patch_53">
    <path clip-path="url(#pb84e0982f7)" d="M 412.18354 384.48 
L 412.18354 51.84 
L 415.785476 51.84 
L 415.785476 384.48 
z
" style="fill:#008000;opacity:0.04;"/>
   </g>
   <g id="patch_54">
    <path clip-path="url(#pb84e0982f7)" d="M 419.387413 384.48 
L 419.387413 51.84 
L 422.989349 51.84 
L 422.989349 384.48 
z
" style="fill:#008000;opacity:0.04;"/>
   </g>
   <g id="patch_55">
    <path clip-path="url(#pb84e0982f7)" d="M 422.989349 384.48 
L 422.989349 371.1744 
L 426.591286 371.1744 
L 426.591286 384.48 
z
" style="fill:#ffe500;"/>
   </g>
   <g id="patch_56">
    <path clip-path="url(#pb84e0982f7)" d="M 426.591286 384.48 
L 426.591286 51.84 
L 430.193222 51.84 
L 430.193222 384.48 
z
" style="fill:#008000;opacity:0.04;"/>
   </g>
   <g id="patch_57">
    <path clip-path="url(#pb84e0982f7)" d="M 430.193222 384.48 
L 430.193222 371.1744 
L 433.795159 371.1744 
L 433.795159 384.48 
z
" style="fill:#ffe500;"/>
   </g>
   <g id="patch_58">
    <path clip-path="url(#pb84e0982f7)" d="M 433.795159 384.48 
L 433.795159 51.84 
L 437.397095 51.84 
L 437.397095 384.48 
z
" style="fill:#008000;opacity:0.04;"/>
   </g>
   <g id="patch_59">
    <path clip-path="url(#pb84e0982f7)" d="M 440.999032 384.48 
L 440.999032 51.84 
L 444.600968 51.84 
L 444.600968 384.48 
z
" style="fill:#008000;opacity:0.04;"/>
   </g>
   <g id="patch_60">
    <path clip-path="url(#pb84e0982f7)" d="M 743.5617 384.48 
L 743.5617 371.1744 
L 747.163636 371.1744 
L 747.163636 384.48 
z
" style="fill:#ff6600;"/>
   </g>
   <g id="patch_61">
    <path clip-path="url(#pb84e0982f7)" d="M 444.600968 371.1744 
L 444.600968 51.84 
L 448.202905 51.84 
L 448.202905 371.1744 
z
" style="fill:#008000;opacity:0.5;"/>
   </g>
   <g id="patch_62">
    <path clip-path="url(#pb84e0982f7)" d="M 448.202905 384.48 
L 448.202905 51.84 
L 451.804841 51.84 
L 451.804841 384.48 
z
" style="fill:#008000;opacity:0.04;"/>
   </g>
   <g id="patch_63">
    <path clip-path="url(#pb84e0982f7)" d="M 455.406778 384.48 
L 455.406778 51.84 
L 459.008714 51.84 
L 459.008714 384.48 
z
" style="fill:#008000;opacity:0.04;"/>
   </g>
   <g id="patch_64">
    <path clip-path="url(#pb84e0982f7)" d="M 462.610651 384.48 
L 462.610651 51.84 
L 466.212587 51.84 
L 466.212587 384.48 
z
" style="fill:#008000;opacity:0.04;"/>
   </g>
   <g id="patch_65">
    <path clip-path="url(#pb84e0982f7)" d="M 469.814524 384.48 
L 469.814524 51.84 
L 473.41646 51.84 
L 473.41646 384.48 
z
" style="fill:#008000;opacity:0.04;"/>
   </g>
   <g id="patch_66">
    <path clip-path="url(#pb84e0982f7)" d="M 469.814524 371.1744 
L 469.814524 51.84 
L 473.41646 51.84 
L 473.41646 371.1744 
z
" style="fill:#008000;opacity:0.5;"/>
   </g>
   <g id="patch_67">
    <path clip-path="url(#pb84e0982f7)" d="M 477.018397 384.48 
L 477.018397 51.84 
L 480.620334 51.84 
L 480.620334 384.48 
z
" style="fill:#008000;opacity:0.04;"/>
   </g>
   <g id="patch_68">
    <path clip-path="url(#pb84e0982f7)" d="M 484.22227 384.48 
L 484.22227 51.84 
L 487.824207 51.84 
L 487.824207 384.48 
z
" style="fill:#008000;opacity:0.04;"/>
   </g>
   <g id="patch_69">
    <path clip-path="url(#pb84e0982f7)" d="M 491.426143 384.48 
L 491.426143 51.84 
L 495.02808 51.84 
L 495.02808 384.48 
z
" style="fill:#008000;opacity:0.04;"/>
   </g>
   <g id="patch_70">
    <path clip-path="url(#pb84e0982f7)" d="M 498.630016 384.48 
L 498.630016 51.84 
L 502.231953 51.84 
L 502.231953 384.48 
z
" style="fill:#008000;opacity:0.04;"/>
   </g>
   <g id="patch_71">
    <path clip-path="url(#pb84e0982f7)" d="M 505.833889 384.48 
L 505.833889 51.84 
L 509.435826 51.84 
L 509.435826 384.48 
z
" style="fill:#008000;opacity:0.04;"/>
   </g>
   <g id="patch_72">
    <path clip-path="url(#pb84e0982f7)" d="M 509.435826 371.1744 
L 509.435826 51.84 
L 513.037762 51.84 
L 513.037762 371.1744 
z
" style="fill:#008000;opacity:0.5;"/>
   </g>
   <g id="patch_73">
    <path clip-path="url(#pb84e0982f7)" d="M 513.037762 384.48 
L 513.037762 51.84 
L 516.639699 51.84 
L 516.639699 384.48 
z
" style="fill:#008000;opacity:0.04;"/>
   </g>
   <g id="patch_74">
    <path clip-path="url(#pb84e0982f7)" d="M 520.241635 384.48 
L 520.241635 51.84 
L 523.843572 51.84 
L 523.843572 384.48 
z
" style="fill:#008000;opacity:0.04;"/>
   </g>
   <g id="patch_75">
    <path clip-path="url(#pb84e0982f7)" d="M 527.445508 384.48 
L 527.445508 51.84 
L 531.047445 51.84 
L 531.047445 384.48 
z
" style="fill:#008000;opacity:0.04;"/>
   </g>
   <g id="patch_76">
    <path clip-path="url(#pb84e0982f7)" d="M 534.649381 384.48 
L 534.649381 51.84 
L 538.251318 51.84 
L 538.251318 384.48 
z
" style="fill:#008000;opacity:0.04;"/>
   </g>
   <g id="patch_77">
    <path clip-path="url(#pb84e0982f7)" d="M 541.853254 384.48 
L 541.853254 51.84 
L 545.455191 51.84 
L 545.455191 384.48 
z
" style="fill:#008000;opacity:0.04;"/>
   </g>
   <g id="patch_78">
    <path clip-path="url(#pb84e0982f7)" d="M 549.057127 384.48 
L 549.057127 51.84 
L 552.659064 51.84 
L 552.659064 384.48 
z
" style="fill:#008000;opacity:0.04;"/>
   </g>
   <g id="patch_79">
    <path clip-path="url(#pb84e0982f7)" d="M 556.261001 384.48 
L 556.261001 51.84 
L 559.862937 51.84 
L 559.862937 384.48 
z
" style="fill:#008000;opacity:0.04;"/>
   </g>
   <g id="patch_80">
    <path clip-path="url(#pb84e0982f7)" d="M 563.464874 384.48 
L 563.464874 51.84 
L 567.06681 51.84 
L 567.06681 384.48 
z
" style="fill:#008000;opacity:0.04;"/>
   </g>
   <g id="patch_81">
    <path clip-path="url(#pb84e0982f7)" d="M 570.668747 384.48 
L 570.668747 51.84 
L 574.270683 51.84 
L 574.270683 384.48 
z
" style="fill:#008000;opacity:0.04;"/>
   </g>
   <g id="patch_82">
    <path clip-path="url(#pb84e0982f7)" d="M 577.87262 384.48 
L 577.87262 51.84 
L 581.474556 51.84 
L 581.474556 384.48 
z
" style="fill:#008000;opacity:0.04;"/>
   </g>
   <g id="patch_83">
    <path clip-path="url(#pb84e0982f7)" d="M 585.076493 384.48 
L 585.076493 51.84 
L 588.678429 51.84 
L 588.678429 384.48 
z
" style="fill:#008000;opacity:0.04;"/>
   </g>
   <g id="patch_84">
    <path clip-path="url(#pb84e0982f7)" d="M 592.280366 384.48 
L 592.280366 51.84 
L 595.882302 51.84 
L 595.882302 384.48 
z
" style="fill:#008000;opacity:0.04;"/>
   </g>
   <g id="patch_85">
    <path clip-path="url(#pb84e0982f7)" d="M 599.484239 384.48 
L 599.484239 51.84 
L 603.086175 51.84 
L 603.086175 384.48 
z
" style="fill:#008000;opacity:0.04;"/>
   </g>
   <g id="patch_86">
    <path clip-path="url(#pb84e0982f7)" d="M 606.688112 384.48 
L 606.688112 51.84 
L 610.290048 51.84 
L 610.290048 384.48 
z
" style="fill:#008000;opacity:0.04;"/>
   </g>
   <g id="patch_87">
    <path clip-path="url(#pb84e0982f7)" d="M 613.891985 384.48 
L 613.891985 51.84 
L 617.493921 51.84 
L 617.493921 384.48 
z
" style="fill:#008000;opacity:0.04;"/>
   </g>
   <g id="patch_88">
    <path clip-path="url(#pb84e0982f7)" d="M 621.095858 384.48 
L 621.095858 51.84 
L 624.697795 51.84 
L 624.697795 384.48 
z
" style="fill:#008000;opacity:0.04;"/>
   </g>
   <g id="patch_89">
    <path clip-path="url(#pb84e0982f7)" d="M 628.299731 384.48 
L 628.299731 51.84 
L 631.901668 51.84 
L 631.901668 384.48 
z
" style="fill:#008000;opacity:0.04;"/>
   </g>
   <g id="patch_90">
    <path clip-path="url(#pb84e0982f7)" d="M 635.503604 384.48 
L 635.503604 51.84 
L 639.105541 51.84 
L 639.105541 384.48 
z
" style="fill:#008000;opacity:0.04;"/>
   </g>
   <g id="patch_91">
    <path clip-path="url(#pb84e0982f7)" d="M 642.707477 384.48 
L 642.707477 51.84 
L 646.309414 51.84 
L 646.309414 384.48 
z
" style="fill:#008000;opacity:0.04;"/>
   </g>
   <g id="patch_92">
    <path clip-path="url(#pb84e0982f7)" d="M 649.91135 384.48 
L 649.91135 51.84 
L 653.513287 51.84 
L 653.513287 384.48 
z
" style="fill:#008000;opacity:0.04;"/>
   </g>
   <g id="patch_93">
    <path clip-path="url(#pb84e0982f7)" d="M 657.115223 384.48 
L 657.115223 51.84 
L 660.71716 51.84 
L 660.71716 384.48 
z
" style="fill:#008000;opacity:0.04;"/>
   </g>
   <g id="patch_94">
    <path clip-path="url(#pb84e0982f7)" d="M 664.319096 384.48 
L 664.319096 51.84 
L 667.921033 51.84 
L 667.921033 384.48 
z
" style="fill:#008000;opacity:0.04;"/>
   </g>
   <g id="patch_95">
    <path clip-path="url(#pb84e0982f7)" d="M 671.522969 384.48 
L 671.522969 51.84 
L 675.124906 51.84 
L 675.124906 384.48 
z
" style="fill:#008000;opacity:0.04;"/>
   </g>
   <g id="patch_96">
    <path clip-path="url(#pb84e0982f7)" d="M 678.726842 384.48 
L 678.726842 51.84 
L 682.328779 51.84 
L 682.328779 384.48 
z
" style="fill:#008000;opacity:0.04;"/>
   </g>
   <g id="patch_97">
    <path clip-path="url(#pb84e0982f7)" d="M 685.930715 384.48 
L 685.930715 51.84 
L 689.532652 51.84 
L 689.532652 384.48 
z
" style="fill:#008000;opacity:0.04;"/>
   </g>
   <g id="patch_98">
    <path clip-path="url(#pb84e0982f7)" d="M 693.134588 384.48 
L 693.134588 51.84 
L 696.736525 51.84 
L 696.736525 384.48 
z
" style="fill:#008000;opacity:0.04;"/>
   </g>
   <g id="patch_99">
    <path clip-path="url(#pb84e0982f7)" d="M 700.338462 384.48 
L 700.338462 51.84 
L 703.940398 51.84 
L 703.940398 384.48 
z
" style="fill:#008000;opacity:0.04;"/>
   </g>
   <g id="patch_100">
    <path clip-path="url(#pb84e0982f7)" d="M 707.542335 384.48 
L 707.542335 51.84 
L 711.144271 51.84 
L 711.144271 384.48 
z
" style="fill:#008000;opacity:0.04;"/>
   </g>
   <g id="patch_101">
    <path clip-path="url(#pb84e0982f7)" d="M 714.746208 384.48 
L 714.746208 51.84 
L 718.348144 51.84 
L 718.348144 384.48 
z
" style="fill:#008000;opacity:0.04;"/>
   </g>
   <g id="patch_102">
    <path clip-path="url(#pb84e0982f7)" d="M 721.950081 384.48 
L 721.950081 51.84 
L 725.552017 51.84 
L 725.552017 384.48 
z
" style="fill:#008000;opacity:0.04;"/>
   </g>
   <g id="patch_103">
    <path clip-path="url(#pb84e0982f7)" d="M 729.153954 384.48 
L 729.153954 51.84 
L 732.75589 51.84 
L 732.75589 384.48 
z
" style="fill:#008000;opacity:0.04;"/>
   </g>
   <g id="patch_104">
    <path clip-path="url(#pb84e0982f7)" d="M 736.357827 384.48 
L 736.357827 51.84 
L 739.959763 51.84 
L 739.959763 384.48 
z
" style="fill:#008000;opacity:0.04;"/>
   </g>
   <g id="patch_105">
    <path clip-path="url(#pb84e0982f7)" d="M 743.5617 384.48 
L 743.5617 51.84 
L 747.163636 51.84 
L 747.163636 384.48 
z
" style="fill:#008000;opacity:0.04;"/>
   </g>
   <g id="matplotlib.axis_1">
    <g id="xtick_1">
     <g id="line2d_1">
      <defs>
       <path d="M 0 0 
L 0 3.5 
" id="m376fcad474" style="stroke:#000000;stroke-width:0.8;"/>
      </defs>
      <g>
       <use style="stroke:#000000;stroke-width:0.8;" x="138.436364" xlink:href="#m376fcad474" y="384.48"/>
      </g>
     </g>
     <g id="text_1">
      <!-- 0 -->
      <defs>
       <path d="M 31.78125 66.40625 
Q 24.171875 66.40625 20.328125 58.90625 
Q 16.5 51.421875 16.5 36.375 
Q 16.5 21.390625 20.328125 13.890625 
Q 24.171875 6.390625 31.78125 6.390625 
Q 39.453125 6.390625 43.28125 13.890625 
Q 47.125 21.390625 47.125 36.375 
Q 47.125 51.421875 43.28125 58.90625 
Q 39.453125 66.40625 31.78125 66.40625 
z
M 31.78125 74.21875 
Q 44.046875 74.21875 50.515625 64.515625 
Q 56.984375 54.828125 56.984375 36.375 
Q 56.984375 17.96875 50.515625 8.265625 
Q 44.046875 -1.421875 31.78125 -1.421875 
Q 19.53125 -1.421875 13.0625 8.265625 
Q 6.59375 17.96875 6.59375 36.375 
Q 6.59375 54.828125 13.0625 64.515625 
Q 19.53125 74.21875 31.78125 74.21875 
z
" id="DejaVuSans-48"/>
      </defs>
      <g transform="translate(135.255114 399.078438)scale(0.1 -0.1)">
       <use xlink:href="#DejaVuSans-48"/>
      </g>
     </g>
    </g>
    <g id="xtick_2">
     <g id="line2d_2">
      <g>
       <use style="stroke:#000000;stroke-width:0.8;" x="228.484777" xlink:href="#m376fcad474" y="384.48"/>
      </g>
     </g>
     <g id="text_2">
      <!-- 250 -->
      <defs>
       <path d="M 19.1875 8.296875 
L 53.609375 8.296875 
L 53.609375 0 
L 7.328125 0 
L 7.328125 8.296875 
Q 12.9375 14.109375 22.625 23.890625 
Q 32.328125 33.6875 34.8125 36.53125 
Q 39.546875 41.84375 41.421875 45.53125 
Q 43.3125 49.21875 43.3125 52.78125 
Q 43.3125 58.59375 39.234375 62.25 
Q 35.15625 65.921875 28.609375 65.921875 
Q 23.96875 65.921875 18.8125 64.3125 
Q 13.671875 62.703125 7.8125 59.421875 
L 7.8125 69.390625 
Q 13.765625 71.78125 18.9375 73 
Q 24.125 74.21875 28.421875 74.21875 
Q 39.75 74.21875 46.484375 68.546875 
Q 53.21875 62.890625 53.21875 53.421875 
Q 53.21875 48.921875 51.53125 44.890625 
Q 49.859375 40.875 45.40625 35.40625 
Q 44.1875 33.984375 37.640625 27.21875 
Q 31.109375 20.453125 19.1875 8.296875 
z
" id="DejaVuSans-50"/>
       <path d="M 10.796875 72.90625 
L 49.515625 72.90625 
L 49.515625 64.59375 
L 19.828125 64.59375 
L 19.828125 46.734375 
Q 21.96875 47.46875 24.109375 47.828125 
Q 26.265625 48.1875 28.421875 48.1875 
Q 40.625 48.1875 47.75 41.5 
Q 54.890625 34.8125 54.890625 23.390625 
Q 54.890625 11.625 47.5625 5.09375 
Q 40.234375 -1.421875 26.90625 -1.421875 
Q 22.3125 -1.421875 17.546875 -0.640625 
Q 12.796875 0.140625 7.71875 1.703125 
L 7.71875 11.625 
Q 12.109375 9.234375 16.796875 8.0625 
Q 21.484375 6.890625 26.703125 6.890625 
Q 35.15625 6.890625 40.078125 11.328125 
Q 45.015625 15.765625 45.015625 23.390625 
Q 45.015625 31 40.078125 35.4375 
Q 35.15625 39.890625 26.703125 39.890625 
Q 22.75 39.890625 18.8125 39.015625 
Q 14.890625 38.140625 10.796875 36.28125 
z
" id="DejaVuSans-53"/>
      </defs>
      <g transform="translate(218.941027 399.078438)scale(0.1 -0.1)">
       <use xlink:href="#DejaVuSans-50"/>
       <use x="63.623047" xlink:href="#DejaVuSans-53"/>
       <use x="127.246094" xlink:href="#DejaVuSans-48"/>
      </g>
     </g>
    </g>
    <g id="xtick_3">
     <g id="line2d_3">
      <g>
       <use style="stroke:#000000;stroke-width:0.8;" x="318.53319" xlink:href="#m376fcad474" y="384.48"/>
      </g>
     </g>
     <g id="text_3">
      <!-- 500 -->
      <g transform="translate(308.98944 399.078438)scale(0.1 -0.1)">
       <use xlink:href="#DejaVuSans-53"/>
       <use x="63.623047" xlink:href="#DejaVuSans-48"/>
       <use x="127.246094" xlink:href="#DejaVuSans-48"/>
      </g>
     </g>
    </g>
    <g id="xtick_4">
     <g id="line2d_4">
      <g>
       <use style="stroke:#000000;stroke-width:0.8;" x="408.581603" xlink:href="#m376fcad474" y="384.48"/>
      </g>
     </g>
     <g id="text_4">
      <!-- 750 -->
      <defs>
       <path d="M 8.203125 72.90625 
L 55.078125 72.90625 
L 55.078125 68.703125 
L 28.609375 0 
L 18.3125 0 
L 43.21875 64.59375 
L 8.203125 64.59375 
z
" id="DejaVuSans-55"/>
      </defs>
      <g transform="translate(399.037853 399.078438)scale(0.1 -0.1)">
       <use xlink:href="#DejaVuSans-55"/>
       <use x="63.623047" xlink:href="#DejaVuSans-53"/>
       <use x="127.246094" xlink:href="#DejaVuSans-48"/>
      </g>
     </g>
    </g>
    <g id="xtick_5">
     <g id="line2d_5">
      <g>
       <use style="stroke:#000000;stroke-width:0.8;" x="498.630016" xlink:href="#m376fcad474" y="384.48"/>
      </g>
     </g>
     <g id="text_5">
      <!-- 1000 -->
      <defs>
       <path d="M 12.40625 8.296875 
L 28.515625 8.296875 
L 28.515625 63.921875 
L 10.984375 60.40625 
L 10.984375 69.390625 
L 28.421875 72.90625 
L 38.28125 72.90625 
L 38.28125 8.296875 
L 54.390625 8.296875 
L 54.390625 0 
L 12.40625 0 
z
" id="DejaVuSans-49"/>
      </defs>
      <g transform="translate(485.905016 399.078438)scale(0.1 -0.1)">
       <use xlink:href="#DejaVuSans-49"/>
       <use x="63.623047" xlink:href="#DejaVuSans-48"/>
       <use x="127.246094" xlink:href="#DejaVuSans-48"/>
       <use x="190.869141" xlink:href="#DejaVuSans-48"/>
      </g>
     </g>
    </g>
    <g id="xtick_6">
     <g id="line2d_6">
      <g>
       <use style="stroke:#000000;stroke-width:0.8;" x="588.678429" xlink:href="#m376fcad474" y="384.48"/>
      </g>
     </g>
     <g id="text_6">
      <!-- 1250 -->
      <g transform="translate(575.953429 399.078438)scale(0.1 -0.1)">
       <use xlink:href="#DejaVuSans-49"/>
       <use x="63.623047" xlink:href="#DejaVuSans-50"/>
       <use x="127.246094" xlink:href="#DejaVuSans-53"/>
       <use x="190.869141" xlink:href="#DejaVuSans-48"/>
      </g>
     </g>
    </g>
    <g id="xtick_7">
     <g id="line2d_7">
      <g>
       <use style="stroke:#000000;stroke-width:0.8;" x="678.726842" xlink:href="#m376fcad474" y="384.48"/>
      </g>
     </g>
     <g id="text_7">
      <!-- 1500 -->
      <g transform="translate(666.001842 399.078438)scale(0.1 -0.1)">
       <use xlink:href="#DejaVuSans-49"/>
       <use x="63.623047" xlink:href="#DejaVuSans-53"/>
       <use x="127.246094" xlink:href="#DejaVuSans-48"/>
       <use x="190.869141" xlink:href="#DejaVuSans-48"/>
      </g>
     </g>
    </g>
    <g id="xtick_8">
     <g id="line2d_8">
      <g>
       <use style="stroke:#000000;stroke-width:0.8;" x="768.775256" xlink:href="#m376fcad474" y="384.48"/>
      </g>
     </g>
     <g id="text_8">
      <!-- 1750 -->
      <g transform="translate(756.050256 399.078438)scale(0.1 -0.1)">
       <use xlink:href="#DejaVuSans-49"/>
       <use x="63.623047" xlink:href="#DejaVuSans-55"/>
       <use x="127.246094" xlink:href="#DejaVuSans-53"/>
       <use x="190.869141" xlink:href="#DejaVuSans-48"/>
      </g>
     </g>
    </g>
    <g id="text_9">
     <!-- Timestamp -->
     <defs>
      <path d="M -0.296875 72.90625 
L 61.375 72.90625 
L 61.375 64.59375 
L 35.5 64.59375 
L 35.5 0 
L 25.59375 0 
L 25.59375 64.59375 
L -0.296875 64.59375 
z
" id="DejaVuSans-84"/>
      <path d="M 9.421875 54.6875 
L 18.40625 54.6875 
L 18.40625 0 
L 9.421875 0 
z
M 9.421875 75.984375 
L 18.40625 75.984375 
L 18.40625 64.59375 
L 9.421875 64.59375 
z
" id="DejaVuSans-105"/>
      <path d="M 52 44.1875 
Q 55.375 50.25 60.0625 53.125 
Q 64.75 56 71.09375 56 
Q 79.640625 56 84.28125 50.015625 
Q 88.921875 44.046875 88.921875 33.015625 
L 88.921875 0 
L 79.890625 0 
L 79.890625 32.71875 
Q 79.890625 40.578125 77.09375 44.375 
Q 74.3125 48.1875 68.609375 48.1875 
Q 61.625 48.1875 57.5625 43.546875 
Q 53.515625 38.921875 53.515625 30.90625 
L 53.515625 0 
L 44.484375 0 
L 44.484375 32.71875 
Q 44.484375 40.625 41.703125 44.40625 
Q 38.921875 48.1875 33.109375 48.1875 
Q 26.21875 48.1875 22.15625 43.53125 
Q 18.109375 38.875 18.109375 30.90625 
L 18.109375 0 
L 9.078125 0 
L 9.078125 54.6875 
L 18.109375 54.6875 
L 18.109375 46.1875 
Q 21.1875 51.21875 25.484375 53.609375 
Q 29.78125 56 35.6875 56 
Q 41.65625 56 45.828125 52.96875 
Q 50 49.953125 52 44.1875 
z
" id="DejaVuSans-109"/>
      <path d="M 56.203125 29.59375 
L 56.203125 25.203125 
L 14.890625 25.203125 
Q 15.484375 15.921875 20.484375 11.0625 
Q 25.484375 6.203125 34.421875 6.203125 
Q 39.59375 6.203125 44.453125 7.46875 
Q 49.3125 8.734375 54.109375 11.28125 
L 54.109375 2.78125 
Q 49.265625 0.734375 44.1875 -0.34375 
Q 39.109375 -1.421875 33.890625 -1.421875 
Q 20.796875 -1.421875 13.15625 6.1875 
Q 5.515625 13.8125 5.515625 26.8125 
Q 5.515625 40.234375 12.765625 48.109375 
Q 20.015625 56 32.328125 56 
Q 43.359375 56 49.78125 48.890625 
Q 56.203125 41.796875 56.203125 29.59375 
z
M 47.21875 32.234375 
Q 47.125 39.59375 43.09375 43.984375 
Q 39.0625 48.390625 32.421875 48.390625 
Q 24.90625 48.390625 20.390625 44.140625 
Q 15.875 39.890625 15.1875 32.171875 
z
" id="DejaVuSans-101"/>
      <path d="M 44.28125 53.078125 
L 44.28125 44.578125 
Q 40.484375 46.53125 36.375 47.5 
Q 32.28125 48.484375 27.875 48.484375 
Q 21.1875 48.484375 17.84375 46.4375 
Q 14.5 44.390625 14.5 40.28125 
Q 14.5 37.15625 16.890625 35.375 
Q 19.28125 33.59375 26.515625 31.984375 
L 29.59375 31.296875 
Q 39.15625 29.25 43.1875 25.515625 
Q 47.21875 21.78125 47.21875 15.09375 
Q 47.21875 7.46875 41.1875 3.015625 
Q 35.15625 -1.421875 24.609375 -1.421875 
Q 20.21875 -1.421875 15.453125 -0.5625 
Q 10.6875 0.296875 5.421875 2 
L 5.421875 11.28125 
Q 10.40625 8.6875 15.234375 7.390625 
Q 20.0625 6.109375 24.8125 6.109375 
Q 31.15625 6.109375 34.5625 8.28125 
Q 37.984375 10.453125 37.984375 14.40625 
Q 37.984375 18.0625 35.515625 20.015625 
Q 33.0625 21.96875 24.703125 23.78125 
L 21.578125 24.515625 
Q 13.234375 26.265625 9.515625 29.90625 
Q 5.8125 33.546875 5.8125 39.890625 
Q 5.8125 47.609375 11.28125 51.796875 
Q 16.75 56 26.8125 56 
Q 31.78125 56 36.171875 55.265625 
Q 40.578125 54.546875 44.28125 53.078125 
z
" id="DejaVuSans-115"/>
      <path d="M 18.3125 70.21875 
L 18.3125 54.6875 
L 36.8125 54.6875 
L 36.8125 47.703125 
L 18.3125 47.703125 
L 18.3125 18.015625 
Q 18.3125 11.328125 20.140625 9.421875 
Q 21.96875 7.515625 27.59375 7.515625 
L 36.8125 7.515625 
L 36.8125 0 
L 27.59375 0 
Q 17.1875 0 13.234375 3.875 
Q 9.28125 7.765625 9.28125 18.015625 
L 9.28125 47.703125 
L 2.6875 47.703125 
L 2.6875 54.6875 
L 9.28125 54.6875 
L 9.28125 70.21875 
z
" id="DejaVuSans-116"/>
      <path d="M 34.28125 27.484375 
Q 23.390625 27.484375 19.1875 25 
Q 14.984375 22.515625 14.984375 16.5 
Q 14.984375 11.71875 18.140625 8.90625 
Q 21.296875 6.109375 26.703125 6.109375 
Q 34.1875 6.109375 38.703125 11.40625 
Q 43.21875 16.703125 43.21875 25.484375 
L 43.21875 27.484375 
z
M 52.203125 31.203125 
L 52.203125 0 
L 43.21875 0 
L 43.21875 8.296875 
Q 40.140625 3.328125 35.546875 0.953125 
Q 30.953125 -1.421875 24.3125 -1.421875 
Q 15.921875 -1.421875 10.953125 3.296875 
Q 6 8.015625 6 15.921875 
Q 6 25.140625 12.171875 29.828125 
Q 18.359375 34.515625 30.609375 34.515625 
L 43.21875 34.515625 
L 43.21875 35.40625 
Q 43.21875 41.609375 39.140625 45 
Q 35.0625 48.390625 27.6875 48.390625 
Q 23 48.390625 18.546875 47.265625 
Q 14.109375 46.140625 10.015625 43.890625 
L 10.015625 52.203125 
Q 14.9375 54.109375 19.578125 55.046875 
Q 24.21875 56 28.609375 56 
Q 40.484375 56 46.34375 49.84375 
Q 52.203125 43.703125 52.203125 31.203125 
z
" id="DejaVuSans-97"/>
      <path d="M 18.109375 8.203125 
L 18.109375 -20.796875 
L 9.078125 -20.796875 
L 9.078125 54.6875 
L 18.109375 54.6875 
L 18.109375 46.390625 
Q 20.953125 51.265625 25.265625 53.625 
Q 29.59375 56 35.59375 56 
Q 45.5625 56 51.78125 48.09375 
Q 58.015625 40.1875 58.015625 27.296875 
Q 58.015625 14.40625 51.78125 6.484375 
Q 45.5625 -1.421875 35.59375 -1.421875 
Q 29.59375 -1.421875 25.265625 0.953125 
Q 20.953125 3.328125 18.109375 8.203125 
z
M 48.6875 27.296875 
Q 48.6875 37.203125 44.609375 42.84375 
Q 40.53125 48.484375 33.40625 48.484375 
Q 26.265625 48.484375 22.1875 42.84375 
Q 18.109375 37.203125 18.109375 27.296875 
Q 18.109375 17.390625 22.1875 11.75 
Q 26.265625 6.109375 33.40625 6.109375 
Q 40.53125 6.109375 44.609375 11.75 
Q 48.6875 17.390625 48.6875 27.296875 
z
" id="DejaVuSans-112"/>
     </defs>
     <g transform="translate(414.739062 412.756563)scale(0.1 -0.1)">
      <use xlink:href="#DejaVuSans-84"/>
      <use x="61.037109" xlink:href="#DejaVuSans-105"/>
      <use x="88.820312" xlink:href="#DejaVuSans-109"/>
      <use x="186.232422" xlink:href="#DejaVuSans-101"/>
      <use x="247.755859" xlink:href="#DejaVuSans-115"/>
      <use x="299.855469" xlink:href="#DejaVuSans-116"/>
      <use x="339.064453" xlink:href="#DejaVuSans-97"/>
      <use x="400.34375" xlink:href="#DejaVuSans-109"/>
      <use x="497.755859" xlink:href="#DejaVuSans-112"/>
     </g>
    </g>
   </g>
   <g id="matplotlib.axis_2">
    <g id="ytick_1">
     <g id="line2d_9">
      <defs>
       <path d="M 0 0 
L -3.5 0 
" id="m90f3dc24fc" style="stroke:#000000;stroke-width:0.8;"/>
      </defs>
      <g>
       <use style="stroke:#000000;stroke-width:0.8;" x="108" xlink:href="#m90f3dc24fc" y="344.34596"/>
      </g>
     </g>
     <g id="text_10">
      <!-- −3000 -->
      <defs>
       <path d="M 10.59375 35.5 
L 73.1875 35.5 
L 73.1875 27.203125 
L 10.59375 27.203125 
z
" id="DejaVuSans-8722"/>
       <path d="M 40.578125 39.3125 
Q 47.65625 37.796875 51.625 33 
Q 55.609375 28.21875 55.609375 21.1875 
Q 55.609375 10.40625 48.1875 4.484375 
Q 40.765625 -1.421875 27.09375 -1.421875 
Q 22.515625 -1.421875 17.65625 -0.515625 
Q 12.796875 0.390625 7.625 2.203125 
L 7.625 11.71875 
Q 11.71875 9.328125 16.59375 8.109375 
Q 21.484375 6.890625 26.8125 6.890625 
Q 36.078125 6.890625 40.9375 10.546875 
Q 45.796875 14.203125 45.796875 21.1875 
Q 45.796875 27.640625 41.28125 31.265625 
Q 36.765625 34.90625 28.71875 34.90625 
L 20.21875 34.90625 
L 20.21875 43.015625 
L 29.109375 43.015625 
Q 36.375 43.015625 40.234375 45.921875 
Q 44.09375 48.828125 44.09375 54.296875 
Q 44.09375 59.90625 40.109375 62.90625 
Q 36.140625 65.921875 28.71875 65.921875 
Q 24.65625 65.921875 20.015625 65.03125 
Q 15.375 64.15625 9.8125 62.3125 
L 9.8125 71.09375 
Q 15.4375 72.65625 20.34375 73.4375 
Q 25.25 74.21875 29.59375 74.21875 
Q 40.828125 74.21875 47.359375 69.109375 
Q 53.90625 64.015625 53.90625 55.328125 
Q 53.90625 49.265625 50.4375 45.09375 
Q 46.96875 40.921875 40.578125 39.3125 
z
" id="DejaVuSans-51"/>
      </defs>
      <g transform="translate(67.170312 348.145179)scale(0.1 -0.1)">
       <use xlink:href="#DejaVuSans-8722"/>
       <use x="83.789062" xlink:href="#DejaVuSans-51"/>
       <use x="147.412109" xlink:href="#DejaVuSans-48"/>
       <use x="211.035156" xlink:href="#DejaVuSans-48"/>
       <use x="274.658203" xlink:href="#DejaVuSans-48"/>
      </g>
     </g>
    </g>
    <g id="ytick_2">
     <g id="line2d_10">
      <g>
       <use style="stroke:#000000;stroke-width:0.8;" x="108" xlink:href="#m90f3dc24fc" y="273.977466"/>
      </g>
     </g>
     <g id="text_11">
      <!-- −2000 -->
      <g transform="translate(67.170312 277.776685)scale(0.1 -0.1)">
       <use xlink:href="#DejaVuSans-8722"/>
       <use x="83.789062" xlink:href="#DejaVuSans-50"/>
       <use x="147.412109" xlink:href="#DejaVuSans-48"/>
       <use x="211.035156" xlink:href="#DejaVuSans-48"/>
       <use x="274.658203" xlink:href="#DejaVuSans-48"/>
      </g>
     </g>
    </g>
    <g id="ytick_3">
     <g id="line2d_11">
      <g>
       <use style="stroke:#000000;stroke-width:0.8;" x="108" xlink:href="#m90f3dc24fc" y="203.608972"/>
      </g>
     </g>
     <g id="text_12">
      <!-- −1000 -->
      <g transform="translate(67.170312 207.408191)scale(0.1 -0.1)">
       <use xlink:href="#DejaVuSans-8722"/>
       <use x="83.789062" xlink:href="#DejaVuSans-49"/>
       <use x="147.412109" xlink:href="#DejaVuSans-48"/>
       <use x="211.035156" xlink:href="#DejaVuSans-48"/>
       <use x="274.658203" xlink:href="#DejaVuSans-48"/>
      </g>
     </g>
    </g>
    <g id="ytick_4">
     <g id="line2d_12">
      <g>
       <use style="stroke:#000000;stroke-width:0.8;" x="108" xlink:href="#m90f3dc24fc" y="133.240479"/>
      </g>
     </g>
     <g id="text_13">
      <!-- 0 -->
      <g transform="translate(94.6375 137.039697)scale(0.1 -0.1)">
       <use xlink:href="#DejaVuSans-48"/>
      </g>
     </g>
    </g>
    <g id="ytick_5">
     <g id="line2d_13">
      <g>
       <use style="stroke:#000000;stroke-width:0.8;" x="108" xlink:href="#m90f3dc24fc" y="62.871985"/>
      </g>
     </g>
     <g id="text_14">
      <!-- 1000 -->
      <g transform="translate(75.55 66.671204)scale(0.1 -0.1)">
       <use xlink:href="#DejaVuSans-49"/>
       <use x="63.623047" xlink:href="#DejaVuSans-48"/>
       <use x="127.246094" xlink:href="#DejaVuSans-48"/>
       <use x="190.869141" xlink:href="#DejaVuSans-48"/>
      </g>
     </g>
    </g>
    <g id="text_15">
     <!-- Value -->
     <defs>
      <path d="M 28.609375 0 
L 0.78125 72.90625 
L 11.078125 72.90625 
L 34.1875 11.53125 
L 57.328125 72.90625 
L 67.578125 72.90625 
L 39.796875 0 
z
" id="DejaVuSans-86"/>
      <path d="M 9.421875 75.984375 
L 18.40625 75.984375 
L 18.40625 0 
L 9.421875 0 
z
" id="DejaVuSans-108"/>
      <path d="M 8.5 21.578125 
L 8.5 54.6875 
L 17.484375 54.6875 
L 17.484375 21.921875 
Q 17.484375 14.15625 20.5 10.265625 
Q 23.53125 6.390625 29.59375 6.390625 
Q 36.859375 6.390625 41.078125 11.03125 
Q 45.3125 15.671875 45.3125 23.6875 
L 45.3125 54.6875 
L 54.296875 54.6875 
L 54.296875 0 
L 45.3125 0 
L 45.3125 8.40625 
Q 42.046875 3.421875 37.71875 1 
Q 33.40625 -1.421875 27.6875 -1.421875 
Q 18.265625 -1.421875 13.375 4.4375 
Q 8.5 10.296875 8.5 21.578125 
z
M 31.109375 56 
z
" id="DejaVuSans-117"/>
     </defs>
     <g transform="translate(61.090625 232.273281)rotate(-90)scale(0.1 -0.1)">
      <use xlink:href="#DejaVuSans-86"/>
      <use x="68.298828" xlink:href="#DejaVuSans-97"/>
      <use x="129.578125" xlink:href="#DejaVuSans-108"/>
      <use x="157.361328" xlink:href="#DejaVuSans-117"/>
      <use x="220.740234" xlink:href="#DejaVuSans-101"/>
     </g>
    </g>
   </g>
   <g id="line2d_14">
    <path clip-path="url(#pb84e0982f7)" d="M 138.436364 125.853995 
L 138.796557 120.882307 
L 139.156751 113.25644 
L 139.516945 97.11005 
L 139.877138 106.510371 
L 140.237332 106.008531 
L 140.597526 114.043357 
L 140.957719 128.484 
L 141.317913 136.44716 
L 141.678107 131.599934 
L 142.0383 137.696313 
L 142.398494 139.767595 
L 142.758687 131.275411 
L 143.118881 130.37399 
L 143.479075 132.189355 
L 143.839268 125.817281 
L 144.199462 125.839485 
L 144.559656 129.691395 
L 144.919849 142.475655 
L 145.280043 150.698881 
L 145.640237 155.035591 
L 146.00043 161.277759 
L 146.360624 142.982239 
L 146.720818 134.405428 
L 147.081011 131.702148 
L 147.441205 124.369516 
L 148.161592 98.849654 
L 148.521786 105.016874 
L 148.88198 104.160826 
L 149.242173 118.009135 
L 149.602367 117.157323 
L 149.962561 134.006402 
L 150.322754 141.171161 
L 150.682948 139.312018 
L 151.043141 140.335397 
L 151.403335 123.359848 
L 151.763529 125.761989 
L 152.123722 112.831314 
L 152.483916 128.686287 
L 152.84411 126.180195 
L 153.204303 135.765426 
L 153.564497 150.806079 
L 153.924691 151.845132 
L 154.284884 166.371596 
L 154.645078 163.241379 
L 155.005272 158.465901 
L 155.725659 132.009374 
L 156.085853 114.986069 
L 156.80624 100.314112 
L 157.166434 97.681492 
L 157.526627 110.270887 
L 157.886821 117.601461 
L 158.247015 122.339777 
L 158.607208 141.470523 
L 158.967402 138.484283 
L 159.327595 138.233851 
L 159.687789 135.928178 
L 160.047983 136.359507 
L 160.408176 135.26427 
L 160.76837 133.245524 
L 161.128564 128.806116 
L 161.848951 148.228384 
L 162.209145 152.204985 
L 162.569338 162.697047 
L 163.289726 171.511631 
L 163.649919 156.214505 
L 164.010113 152.817156 
L 164.370307 138.054079 
L 164.7305 134.009054 
L 165.090694 118.101122 
L 165.450888 112.685223 
L 165.811081 109.355691 
L 166.531469 122.211596 
L 166.891662 139.177947 
L 167.251856 138.876988 
L 167.612049 151.633744 
L 167.972243 148.520158 
L 168.332437 151.295149 
L 168.69263 145.946761 
L 169.052824 142.564978 
L 169.413018 140.929334 
L 169.773211 135.805668 
L 170.133405 137.050367 
L 170.493599 154.31218 
L 170.853792 156.070615 
L 171.213986 170.731744 
L 171.57418 180.00354 
L 171.934373 179.225147 
L 172.294567 171.189381 
L 172.654761 166.572635 
L 173.014954 145.195068 
L 173.375148 131.870424 
L 173.735342 128.385232 
L 174.095535 115.733163 
L 174.455729 130.003279 
L 174.815923 127.068768 
L 175.176116 135.577577 
L 175.53631 153.695517 
L 175.896503 154.183504 
L 176.256697 163.546318 
L 176.616891 162.268666 
L 176.977084 162.068341 
L 177.337278 153.614919 
L 177.697472 154.41734 
L 178.057665 150.310268 
L 178.417859 156.111919 
L 178.778053 151.238124 
L 179.138246 165.449728 
L 179.49844 169.868492 
L 179.858634 180.222247 
L 180.218827 175.936886 
L 180.579021 189.666682 
L 180.939215 177.688488 
L 181.299408 173.390805 
L 181.659602 162.417601 
L 182.379989 137.632871 
L 182.740183 128.928926 
L 183.100377 123.719906 
L 183.46057 140.432299 
L 183.820764 146.38001 
L 184.180958 154.288119 
L 184.541151 166.058552 
L 184.901345 165.29087 
L 185.261538 172.542006 
L 185.621732 165.083033 
L 185.981926 166.975228 
L 186.342119 155.528711 
L 186.702313 148.771011 
L 187.062507 157.923522 
L 187.4227 160.078744 
L 187.782894 163.736467 
L 188.143088 174.593098 
L 188.503281 175.151111 
L 188.863475 192.099116 
L 189.223669 190.790175 
L 189.583862 184.757969 
L 190.30425 164.063298 
L 190.664443 142.835093 
L 191.384831 126.779834 
L 191.745024 134.360584 
L 192.105218 134.696843 
L 192.465412 149.5607 
L 192.825605 159.111688 
L 193.185799 160.899611 
L 193.545992 172.424239 
L 193.906186 164.598311 
L 194.26638 162.793618 
L 194.626573 154.836904 
L 194.986767 158.157599 
L 195.346961 155.487032 
L 195.707154 157.635615 
L 196.067348 164.40333 
L 196.427542 164.450191 
L 196.787735 167.634864 
L 197.508123 183.907712 
L 197.868316 181.227762 
L 198.22851 182.470598 
L 198.588704 157.726721 
L 198.948897 150.197183 
L 199.309091 146.012543 
L 199.669285 137.554539 
L 200.029478 133.307105 
L 200.389672 136.627628 
L 200.749866 135.642758 
L 201.110059 147.038158 
L 202.19064 168.35526 
L 202.550834 161.027103 
L 202.911027 158.074421 
L 203.271221 153.905593 
L 203.631415 141.814996 
L 203.991608 148.340185 
L 204.711996 154.548935 
L 205.072189 157.173279 
L 205.432383 166.6652 
L 205.792577 180.883102 
L 206.15277 185.61123 
L 206.512964 183.726128 
L 206.873158 186.389862 
L 207.233351 165.641033 
L 208.313932 130.600292 
L 208.674126 131.43672 
L 209.03432 126.850007 
L 209.394513 133.086337 
L 209.754707 130.454622 
L 210.1149 153.008512 
L 210.475094 162.230285 
L 210.835288 160.331684 
L 211.195481 159.437222 
L 211.555675 146.380253 
L 211.915869 147.849972 
L 212.276062 150.501329 
L 212.636256 144.147791 
L 212.99645 150.218987 
L 213.356643 144.969255 
L 213.716837 165.254712 
L 214.077031 166.108752 
L 214.437224 172.271199 
L 214.797418 181.615223 
L 215.157612 182.349393 
L 215.517805 171.738915 
L 215.877999 173.439918 
L 216.238193 152.962798 
L 216.598386 143.815694 
L 216.95858 129.914508 
L 217.318774 132.645937 
L 217.678967 125.290763 
L 218.039161 137.494553 
L 218.399354 139.947519 
L 218.759548 148.621876 
L 219.119742 163.008382 
L 219.479935 161.811052 
L 219.840129 160.159656 
L 220.200323 162.004288 
L 220.560516 160.866052 
L 220.92071 151.431993 
L 221.280904 154.029425 
L 221.641097 149.593488 
L 222.001291 165.272371 
L 222.361485 158.918676 
L 222.721678 175.560179 
L 223.081872 183.740385 
L 223.442066 198.251129 
L 223.802259 188.590652 
L 224.162453 183.176086 
L 224.88284 163.346618 
L 225.243034 149.434982 
L 226.323615 136.482719 
L 226.683808 148.482009 
L 227.044002 156.253384 
L 227.404196 169.387033 
L 228.124583 174.02031 
L 228.484777 174.59418 
L 228.84497 164.803306 
L 229.205164 174.658243 
L 229.565358 160.790677 
L 229.925551 164.267797 
L 230.285745 165.461653 
L 230.645939 177.284166 
L 231.006132 173.78937 
L 231.366326 190.179869 
L 231.72652 190.623821 
L 232.086713 205.666094 
L 232.446907 189.279631 
L 232.807101 199.527096 
L 233.527488 170.940191 
L 234.247875 149.778386 
L 234.968263 153.478325 
L 235.328456 152.486689 
L 236.048843 167.794857 
L 236.409037 181.593526 
L 236.769231 184.003205 
L 237.129424 185.442265 
L 237.489618 177.158069 
L 237.849812 180.830846 
L 238.570199 167.223674 
L 238.930393 179.429933 
L 239.290586 185.969352 
L 239.65078 188.210761 
L 240.010974 199.811257 
L 241.091555 209.749627 
L 241.451748 205.341416 
L 241.811942 186.129339 
L 242.172136 190.517437 
L 242.892523 157.931506 
L 243.252717 163.742203 
L 243.61291 154.483375 
L 243.973104 156.038198 
L 244.333297 169.903423 
L 244.693491 178.795773 
L 245.053685 178.539744 
L 245.413878 198.675088 
L 245.774072 191.187752 
L 246.134266 196.005771 
L 246.494459 180.65021 
L 246.854653 172.852042 
L 247.214847 188.984968 
L 247.57504 177.109089 
L 249.376009 205.666603 
L 249.736202 207.282705 
L 250.096396 199.402499 
L 250.45659 198.189529 
L 250.816783 187.434404 
L 251.537171 162.657065 
L 251.897364 159.729348 
L 252.257558 159.965739 
L 252.617751 155.090962 
L 252.977945 178.510801 
L 253.338139 177.500666 
L 253.698332 186.436775 
L 254.058526 178.702415 
L 254.41872 189.547342 
L 254.778913 188.22558 
L 255.139107 180.705372 
L 255.499301 178.843164 
L 255.859494 169.343751 
L 256.579882 182.838604 
L 256.940075 186.443313 
L 257.660463 203.208714 
L 258.020656 204.687259 
L 258.38085 210.308939 
L 259.101237 187.194537 
L 259.461431 185.858626 
L 259.821625 164.879196 
L 260.181818 157.64699 
L 260.542012 157.320346 
L 260.902205 152.695233 
L 261.262399 152.208816 
L 261.622593 153.807983 
L 261.982786 175.924446 
L 262.34298 186.538347 
L 262.703174 187.185568 
L 263.063367 192.731476 
L 263.423561 178.040817 
L 263.783755 181.693639 
L 264.143948 171.778837 
L 264.504142 167.755161 
L 264.864336 165.379908 
L 265.224529 184.742544 
L 265.584723 190.176493 
L 265.944917 200.611699 
L 266.30511 195.351395 
L 266.665304 216.979079 
L 267.025498 202.049907 
L 267.385691 196.662545 
L 267.745885 189.344946 
L 268.106079 178.036888 
L 268.466272 160.851407 
L 268.826466 161.056032 
L 269.186659 148.180805 
L 269.546853 155.978844 
L 269.907047 158.238709 
L 270.26724 162.30494 
L 270.627434 175.771806 
L 270.987628 183.241441 
L 271.347821 184.574897 
L 271.708015 180.320684 
L 272.068209 186.470545 
L 272.428402 183.726375 
L 272.788596 173.942535 
L 273.14879 168.975613 
L 273.508983 171.693703 
L 273.869177 177.166914 
L 274.229371 185.60303 
L 274.589564 186.844602 
L 274.949758 205.552194 
L 275.309952 216.302078 
L 275.670145 202.601627 
L 276.030339 201.192823 
L 276.390533 193.205777 
L 276.750726 171.009563 
L 277.11092 174.44809 
L 277.471114 152.945156 
L 277.831307 153.303783 
L 278.191501 149.171097 
L 278.551694 162.775986 
L 278.911888 165.700294 
L 279.272082 182.613617 
L 279.632275 184.318957 
L 279.992469 181.090413 
L 280.352663 185.295809 
L 280.712856 191.646443 
L 281.07305 188.156302 
L 281.433244 172.077437 
L 281.793437 171.924742 
L 282.153631 166.920631 
L 282.513825 189.784927 
L 282.874018 191.878799 
L 283.234212 195.514034 
L 283.594406 200.704278 
L 283.954599 213.553016 
L 284.314793 218.511942 
L 284.674987 216.790182 
L 285.395374 174.458346 
L 285.755568 170.338842 
L 286.115761 162.316115 
L 286.475955 157.049772 
L 287.196342 168.018758 
L 287.556536 176.185651 
L 287.916729 188.779724 
L 288.276923 195.932688 
L 288.637117 196.618954 
L 288.99731 199.541576 
L 289.357504 207.504844 
L 289.717698 187.171348 
L 290.077891 194.506102 
L 290.438085 171.880578 
L 290.798279 164.270627 
L 291.158472 199.025219 
L 291.518666 181.828886 
L 291.87886 236.676587 
L 292.239053 248.66139 
L 292.599247 272.109316 
L 292.959441 265.39123 
L 293.319634 291.161623 
L 293.679828 233.070964 
L 294.400215 172.215244 
L 294.760409 143.769474 
L 295.480796 113.706715 
L 295.84099 153.636596 
L 296.201183 167.048574 
L 296.921571 216.056821 
L 297.281764 232.378552 
L 297.641958 237.405032 
L 298.002152 207.530134 
L 298.362345 204.594366 
L 298.722539 193.517426 
L 299.082733 188.436812 
L 299.442926 196.707637 
L 299.80312 197.342303 
L 300.163314 242.101858 
L 300.523507 233.917205 
L 300.883701 279.37668 
L 301.243895 281.892968 
L 301.604088 277.620861 
L 301.964282 277.062982 
L 303.405056 139.173511 
L 304.125444 160.011224 
L 304.485637 143.537548 
L 304.845831 163.158628 
L 305.206025 226.665133 
L 305.566218 242.857489 
L 305.926412 207.092708 
L 306.286606 237.352869 
L 306.646799 233.467988 
L 307.006993 212.891 
L 307.367187 216.26477 
L 308.087574 186.110297 
L 308.447768 224.275023 
L 308.807961 231.882515 
L 309.168155 255.013025 
L 309.528349 290.179431 
L 309.888542 281.119221 
L 310.248736 287.933163 
L 310.969123 253.461726 
L 311.68951 168.659 
L 312.049704 137.672544 
L 312.409898 153.051653 
L 312.770091 130.575319 
L 313.130285 134.060608 
L 313.490479 144.763154 
L 313.850672 170.33725 
L 314.210866 216.959524 
L 314.57106 230.850372 
L 314.931253 232.815197 
L 315.291447 204.593188 
L 315.651641 213.318059 
L 316.011834 149.466809 
L 316.372028 170.633285 
L 316.732222 175.441827 
L 317.092415 189.645111 
L 317.452609 182.570805 
L 317.812803 234.106494 
L 318.172996 244.543441 
L 318.53319 283.325455 
L 318.893384 267.370673 
L 319.253577 242.923859 
L 319.613771 230.404028 
L 319.973964 213.978189 
L 320.334158 142.564619 
L 320.694352 147.789362 
L 321.414739 115.855036 
L 321.774933 131.182947 
L 322.135126 133.901484 
L 322.49532 172.706854 
L 322.855514 193.098654 
L 323.215707 202.763502 
L 323.575901 202.274914 
L 324.296288 173.798876 
L 324.656482 195.015537 
L 325.376869 163.03304 
L 325.737063 142.555807 
L 326.45745 225.620781 
L 326.817644 233.746984 
L 327.177838 254.556253 
L 327.538031 232.815898 
L 327.898225 227.622141 
L 328.258419 226.223374 
L 328.618612 156.101006 
L 328.978806 162.200958 
L 329.338999 101.160292 
L 329.699193 85.280957 
L 330.059387 100.241092 
L 330.41958 96.262241 
L 331.139968 147.621795 
L 332.220549 198.042515 
L 332.580742 187.780403 
L 332.940936 169.796431 
L 333.30113 167.385338 
L 333.661323 127.503725 
L 334.021517 146.289405 
L 334.381711 177.940885 
L 334.741904 178.806239 
L 335.102098 216.963729 
L 335.822485 240.648368 
L 336.182679 245.152833 
L 336.542873 241.172207 
L 337.26326 172.108288 
L 337.623453 145.700426 
L 337.983647 97.714369 
L 338.343841 108.649453 
L 338.704034 86.972776 
L 339.064228 111.610446 
L 339.424422 125.758408 
L 339.784615 176.419495 
L 340.144809 174.98552 
L 340.505003 190.455733 
L 340.865196 178.295714 
L 341.22539 178.243234 
L 341.585584 161.524699 
L 341.945777 155.92195 
L 342.305971 136.093539 
L 342.666165 167.384315 
L 343.026358 186.061203 
L 343.746746 200.38394 
L 344.106939 222.781462 
L 344.467133 252.669327 
L 344.827327 270.843862 
L 345.18752 244.470741 
L 345.547714 196.965758 
L 345.907907 182.618049 
L 346.268101 162.743919 
L 346.628295 107.523577 
L 346.988488 81.071194 
L 347.348682 122.389525 
L 347.708876 118.139951 
L 348.789457 190.746808 
L 349.14965 199.8322 
L 349.509844 191.929173 
L 349.870038 228.78581 
L 350.230231 216.063302 
L 350.590425 181.073508 
L 350.950619 163.392727 
L 351.310812 200.201368 
L 351.671006 202.93808 
L 352.0312 202.036856 
L 352.391393 237.513103 
L 352.751587 369.36 
L 353.111781 282.064744 
L 353.471974 284.940514 
L 353.832168 260.440449 
L 354.192361 258.042401 
L 354.552555 204.98252 
L 354.912749 174.115235 
L 355.272942 153.545904 
L 355.633136 106.345886 
L 355.99333 155.424801 
L 356.353523 137.702841 
L 356.713717 149.896198 
L 357.073911 204.908135 
L 357.434104 228.407546 
L 357.794298 219.061482 
L 358.154492 248.72769 
L 358.514685 229.811839 
L 358.874879 223.64953 
L 359.595266 188.46003 
L 359.95546 187.67051 
L 360.315654 181.921594 
L 360.675847 260.119028 
L 361.036041 266.061518 
L 361.396235 265.698254 
L 361.756428 285.790644 
L 362.116622 279.062115 
L 362.476815 254.513942 
L 362.837009 259.820888 
L 363.197203 206.293417 
L 363.557396 186.92677 
L 364.277784 134.159734 
L 364.637977 111.199326 
L 365.358365 198.161277 
L 365.718558 198.277352 
L 366.078752 221.965147 
L 366.799139 246.318558 
L 367.159333 265.752623 
L 367.519527 205.981068 
L 367.87972 195.140369 
L 368.239914 199.134423 
L 368.600108 194.335097 
L 368.960301 204.729972 
L 369.320495 226.60721 
L 369.680689 224.219737 
L 370.040882 292.739156 
L 370.401076 298.158937 
L 370.761269 293.460497 
L 371.481657 246.729167 
L 372.202044 172.628262 
L 372.562238 150.523392 
L 372.922431 97.598184 
L 373.282625 119.123837 
L 373.642819 163.356696 
L 374.003012 168.92669 
L 374.363206 196.868874 
L 374.7234 203.327465 
L 375.083593 219.53271 
L 375.443787 228.670187 
L 375.803981 225.929916 
L 376.524368 175.625424 
L 376.884562 189.69159 
L 377.244755 181.250025 
L 377.604949 184.15953 
L 377.965143 210.072493 
L 378.68553 241.477387 
L 379.045724 283.651598 
L 379.405917 263.449769 
L 379.766111 267.19204 
L 380.126304 227.323806 
L 380.486498 212.178972 
L 380.846692 135.935373 
L 381.206885 110.422902 
L 381.567079 110.755332 
L 381.927273 106.139577 
L 382.287466 110.036304 
L 382.64766 142.761177 
L 383.007854 200.532138 
L 383.368047 209.629268 
L 383.728241 203.358626 
L 384.088435 208.992892 
L 384.448628 197.040384 
L 384.808822 191.362019 
L 385.169016 162.268512 
L 385.529209 157.93262 
L 385.889403 149.217331 
L 386.249597 163.095717 
L 386.969984 220.449562 
L 387.330178 208.253681 
L 387.690371 245.667862 
L 388.050565 251.386876 
L 388.410758 241.960171 
L 389.851533 105.009262 
L 390.211727 94.544341 
L 390.57192 104.968302 
L 390.932114 120.964477 
L 391.292308 126.780167 
L 392.012695 191.159328 
L 392.372889 177.479862 
L 392.733082 189.100307 
L 393.093276 180.294591 
L 393.45347 178.058072 
L 393.813663 174.629381 
L 394.173857 134.770113 
L 394.534051 132.771098 
L 394.894244 158.697285 
L 395.254438 194.201486 
L 395.614632 215.898443 
L 395.974825 226.685533 
L 396.335019 264.025442 
L 397.055406 229.094644 
L 397.775793 167.520345 
L 398.135987 172.496419 
L 398.496181 117.324604 
L 398.856374 82.619388 
L 399.216568 75.273802 
L 399.576762 133.816957 
L 399.936955 142.74712 
L 401.017536 186.832198 
L 401.37773 183.636838 
L 401.737924 194.367869 
L 402.098117 177.487964 
L 402.458311 174.390269 
L 402.818505 169.098206 
L 403.178698 176.155853 
L 403.538892 179.223972 
L 404.259279 215.105012 
L 404.619473 220.364134 
L 404.979666 243.225813 
L 405.33986 239.892443 
L 405.700054 251.191593 
L 406.060247 238.43239 
L 406.780635 143.458821 
L 407.140828 131.326121 
L 407.501022 113.315979 
L 407.861216 125.600804 
L 408.221409 143.190259 
L 408.581603 141.862286 
L 408.941797 187.71133 
L 409.30199 199.444737 
L 409.662184 192.547918 
L 410.022378 216.921799 
L 410.382571 199.366544 
L 410.742765 192.876106 
L 411.102959 189.208307 
L 411.463152 177.330672 
L 411.823346 192.801588 
L 412.18354 188.520195 
L 412.543733 207.940027 
L 412.903927 253.696538 
L 413.26412 260.468695 
L 413.624314 227.354739 
L 413.984508 276.291522 
L 414.704895 217.93351 
L 415.065089 220.688669 
L 415.785476 145.781591 
L 416.14567 136.857279 
L 416.505863 132.067256 
L 416.866057 147.246069 
L 417.226251 171.041167 
L 417.586444 206.674663 
L 417.946638 211.771294 
L 418.306832 221.693621 
L 418.667025 218.532384 
L 419.027219 217.082379 
L 419.387413 192.261281 
L 419.747606 204.365797 
L 420.1078 171.205016 
L 420.467994 199.073803 
L 420.828187 208.032803 
L 421.548575 254.679987 
L 421.908768 251.612408 
L 422.268962 246.617528 
L 422.629155 264.908576 
L 422.989349 262.474037 
L 423.349543 278.032026 
L 424.06993 192.384232 
L 424.430124 132.675556 
L 424.790317 123.768121 
L 425.150511 149.065036 
L 425.510705 154.619312 
L 425.870898 194.799048 
L 426.231092 179.884701 
L 426.591286 217.722353 
L 426.951479 242.003514 
L 427.311673 240.757725 
L 427.671867 238.333382 
L 428.392254 185.810594 
L 428.752448 180.09964 
L 429.112641 186.530347 
L 429.472835 206.581237 
L 430.553416 285.604075 
L 430.913609 280.456439 
L 431.273803 295.577464 
L 431.633997 273.967413 
L 431.99419 242.631092 
L 432.354384 194.796893 
L 432.714578 167.6917 
L 433.434965 138.056471 
L 433.795159 128.822569 
L 434.155352 163.374255 
L 434.515546 153.205653 
L 434.87574 162.013975 
L 435.235933 231.981841 
L 435.596127 245.965252 
L 435.956321 233.838171 
L 436.676708 201.135026 
L 437.036902 214.787763 
L 437.397095 182.652751 
L 437.757289 182.956179 
L 438.117483 221.079147 
L 438.477676 210.904303 
L 439.558257 272.648319 
L 439.918451 252.625348 
L 440.638838 232.302393 
L 441.719419 120.082156 
L 442.079613 126.12073 
L 442.439806 115.435975 
L 442.8 136.168785 
L 443.160194 145.853254 
L 443.520387 187.706673 
L 443.880581 161.32707 
L 444.600968 304.164763 
L 444.961162 218.506607 
L 445.321356 176.732852 
L 445.681549 188.346913 
L 446.041743 154.839022 
L 446.401937 176.302956 
L 446.76213 191.100554 
L 447.122324 187.345478 
L 447.482517 212.441811 
L 447.842711 257.671787 
L 448.202905 262.323698 
L 448.563098 237.620318 
L 448.923292 258.65288 
L 449.283486 173.626847 
L 449.643679 176.041642 
L 450.003873 130.502469 
L 450.364067 120.442116 
L 450.72426 87.021481 
L 451.084454 87.050116 
L 451.444648 96.895395 
L 451.804841 123.862137 
L 452.165035 170.995988 
L 452.525229 163.201422 
L 452.885422 191.782604 
L 453.245616 187.559536 
L 453.60581 184.831534 
L 453.966003 172.57399 
L 454.326197 175.142526 
L 454.686391 168.439636 
L 455.046584 149.574127 
L 455.406778 147.382451 
L 455.766971 161.564471 
L 456.487359 242.695785 
L 456.847552 246.439514 
L 457.207746 244.720195 
L 457.56794 225.085208 
L 457.928133 224.282719 
L 459.008714 105.475499 
L 459.368908 89.940885 
L 459.729102 87.428952 
L 460.089295 116.469184 
L 460.449489 127.158642 
L 460.809683 157.278204 
L 461.169876 168.220112 
L 461.53007 214.976164 
L 461.890264 201.262774 
L 462.250457 193.80953 
L 462.610651 153.827926 
L 462.970845 165.732755 
L 463.331038 162.133771 
L 463.691232 155.036993 
L 464.051425 162.754208 
L 464.411619 203.703884 
L 464.771813 202.568776 
L 465.4922 254.644567 
L 465.852394 253.591838 
L 466.212587 213.491147 
L 466.572781 208.74342 
L 467.293168 135.955313 
L 467.653362 122.232742 
L 468.013556 115.241359 
L 468.373749 97.154562 
L 468.733943 136.914822 
L 469.094137 152.655319 
L 469.45433 176.185308 
L 470.534911 223.51336 
L 470.895105 223.323991 
L 471.255299 181.832122 
L 471.615492 66.96 
L 471.975686 175.107738 
L 472.33588 166.790543 
L 472.696073 178.469277 
L 474.136848 276.490815 
L 474.497041 264.165547 
L 474.857235 256.842399 
L 475.217429 239.61897 
L 475.577622 184.544562 
L 475.937816 161.335564 
L 476.29801 119.20341 
L 476.658203 131.889314 
L 477.018397 155.541722 
L 477.378591 149.616218 
L 477.738784 178.142804 
L 478.098978 177.223273 
L 478.459172 217.377032 
L 478.819365 228.100641 
L 479.179559 223.900237 
L 479.539753 232.220345 
L 479.899946 211.413821 
L 480.26014 227.2822 
L 480.620334 205.34471 
L 480.980527 210.695626 
L 481.340721 195.779622 
L 481.700914 216.514371 
L 482.061108 268.516694 
L 482.421302 273.690367 
L 482.781495 265.768616 
L 483.141689 284.648267 
L 483.501883 286.491217 
L 483.862076 265.791224 
L 484.582464 184.453586 
L 485.302851 150.459785 
L 485.663045 148.527305 
L 486.023238 158.224828 
L 486.743626 197.977171 
L 487.103819 209.673632 
L 487.464013 243.886689 
L 487.824207 234.262846 
L 488.1844 217.26511 
L 488.544594 228.420059 
L 488.904788 209.906285 
L 489.264981 175.140196 
L 489.625175 188.76217 
L 491.065949 294.825761 
L 491.426143 262.258733 
L 491.786337 262.39486 
L 492.14653 276.911067 
L 492.866918 203.449439 
L 493.227111 183.625651 
L 493.587305 137.659798 
L 493.947499 132.989658 
L 494.307692 104.942671 
L 494.667886 153.206765 
L 495.388273 177.007563 
L 495.748467 229.977312 
L 496.108661 221.027429 
L 496.468854 242.317757 
L 496.829048 218.191899 
L 497.189242 218.414427 
L 497.549435 183.383949 
L 497.909629 205.995482 
L 498.269822 171.254107 
L 498.630016 174.453885 
L 498.99021 213.860811 
L 499.350403 221.261117 
L 499.710597 266.803452 
L 500.070791 281.45857 
L 500.430984 286.639739 
L 501.151372 210.61125 
L 501.511565 178.065382 
L 501.871759 132.295342 
L 502.231953 128.863661 
L 502.592146 91.422145 
L 503.672727 156.231586 
L 504.032921 165.486012 
L 504.753308 224.86914 
L 505.113502 208.231856 
L 505.473696 206.726024 
L 505.833889 193.90641 
L 506.194083 166.100152 
L 506.554276 156.414754 
L 506.91447 160.202939 
L 507.274664 165.398468 
L 507.995051 208.39341 
L 508.355245 242.544709 
L 508.715438 240.973455 
L 509.075632 256.691895 
L 509.435826 213.768163 
L 509.796019 203.368715 
L 510.156213 165.894325 
L 510.516407 146.386205 
L 510.8766 115.689013 
L 511.236794 98.188515 
L 511.596988 95.710238 
L 511.957181 222.14751 
L 512.317375 133.186115 
L 512.677569 173.027438 
L 513.037762 181.944737 
L 513.397956 182.557961 
L 513.75815 202.317287 
L 514.118343 178.501141 
L 514.478537 172.397346 
L 514.838731 152.171759 
L 515.198924 151.294704 
L 515.559118 146.560821 
L 515.919311 165.476784 
L 516.279505 157.681192 
L 516.999892 240.72716 
L 517.360086 245.129508 
L 517.72028 240.755853 
L 518.080473 228.260779 
L 518.800861 166.647237 
L 519.521248 102.105597 
L 519.881442 89.079749 
L 520.241635 110.238683 
L 520.601829 94.952215 
L 520.962023 143.467071 
L 521.322216 170.984114 
L 521.68241 173.690141 
L 522.042604 181.956658 
L 522.402797 184.10425 
L 522.762991 191.488285 
L 523.123185 168.975871 
L 523.483378 176.245451 
L 523.843572 167.486999 
L 524.203765 190.047784 
L 524.563959 177.632648 
L 524.924153 179.552711 
L 525.284346 206.40827 
L 525.64454 205.900488 
L 526.004734 222.14263 
L 526.364927 256.401069 
L 526.725121 237.773214 
L 527.085315 205.361273 
L 527.445508 186.963807 
L 527.805702 157.817332 
L 528.165896 90.760524 
L 528.526089 123.190474 
L 528.886283 109.665953 
L 529.60667 140.016226 
L 529.966864 174.512725 
L 530.687251 214.486388 
L 531.047445 185.410099 
L 531.407639 219.845541 
L 532.128026 184.657753 
L 532.488219 171.677182 
L 532.848413 177.859196 
L 533.208607 205.773953 
L 533.5688 216.55538 
L 533.928994 231.889826 
L 534.289188 261.131304 
L 534.649381 258.963358 
L 535.009575 296.310316 
L 536.090156 209.934701 
L 536.45035 151.540169 
L 536.810543 156.004209 
L 537.530931 123.134924 
L 537.891124 152.925712 
L 538.251318 160.981181 
L 538.611512 215.802447 
L 538.971705 229.557757 
L 539.331899 235.55631 
L 539.692093 230.205655 
L 540.052286 205.424743 
L 540.772673 191.69729 
L 541.132867 199.87458 
L 541.493061 197.916662 
L 541.853254 199.428087 
L 542.213448 216.367915 
L 542.573642 255.161317 
L 542.933835 267.719707 
L 543.654223 302.616786 
L 544.014416 258.06252 
L 544.37461 245.036075 
L 545.815385 143.834066 
L 546.175578 158.722725 
L 546.535772 121.639902 
L 547.256159 207.179181 
L 547.616353 245.267933 
L 547.976547 258.08597 
L 548.33674 246.954849 
L 548.696934 219.398167 
L 549.057127 201.032843 
L 549.417321 196.171885 
L 549.777515 197.357922 
L 550.497902 178.045119 
L 551.578483 280.427237 
L 551.938677 289.177489 
L 552.29887 294.945398 
L 552.659064 259.65273 
L 553.019258 250.736974 
L 553.379451 198.996346 
L 553.739645 174.315251 
L 554.099839 108.265637 
L 554.460032 159.956366 
L 555.18042 135.066861 
L 555.540613 163.585625 
L 555.900807 202.175793 
L 556.261001 199.461136 
L 556.621194 222.070433 
L 556.981388 226.68503 
L 557.341581 202.95702 
L 557.701775 207.908627 
L 558.422162 170.615819 
L 559.14255 184.108993 
L 559.502743 233.114687 
L 559.862937 245.254086 
L 560.583324 281.213042 
L 560.943518 271.778811 
L 561.303712 249.907016 
L 561.663905 252.95763 
L 562.384293 153.375864 
L 562.744486 124.778861 
L 563.10468 109.665104 
L 563.464874 120.431307 
L 563.825067 107.223164 
L 564.905648 198.360187 
L 565.265842 189.118634 
L 565.626036 199.573399 
L 565.986229 206.390998 
L 566.706616 137.323315 
L 567.06681 140.242691 
L 567.427004 182.622262 
L 567.787197 168.188805 
L 568.507585 234.354019 
L 568.867778 233.456676 
L 569.588166 261.203997 
L 569.948359 222.716931 
L 570.308553 218.530627 
L 570.668747 167.833759 
L 571.389134 124.808844 
L 571.749328 91.585773 
L 572.469715 120.932554 
L 572.829909 139.894578 
L 573.190102 167.575452 
L 573.91049 185.938625 
L 574.270683 186.914033 
L 574.630877 156.890934 
L 574.99107 179.709219 
L 575.351264 147.469214 
L 575.711458 155.095177 
L 576.071651 136.944452 
L 576.431845 179.214049 
L 576.792039 182.373045 
L 577.512426 228.137171 
L 577.87262 279.602176 
L 578.232813 252.009859 
L 578.593007 234.08604 
L 578.953201 209.534838 
L 579.673588 143.700992 
L 580.033782 129.056433 
L 580.393975 84.507543 
L 580.754169 73.699036 
L 581.83475 185.87168 
L 582.194944 208.067796 
L 582.555137 191.133718 
L 582.915331 183.669285 
L 583.275524 181.06199 
L 583.635718 191.988041 
L 583.995912 174.966153 
L 584.356105 182.093549 
L 584.716299 138.761265 
L 585.79688 206.953075 
L 586.517267 263.002908 
L 586.877461 255.579405 
L 587.237655 243.71913 
L 587.597848 223.125891 
L 587.958042 169.920738 
L 588.318236 164.070577 
L 589.038623 97.320636 
L 589.75901 127.530423 
L 590.119204 158.754912 
L 590.479398 163.924 
L 591.199785 223.564229 
L 591.559978 230.611763 
L 591.920172 201.194574 
L 592.280366 183.020096 
L 592.640559 199.92037 
L 593.000753 172.575126 
L 593.360947 169.980487 
L 593.72114 181.994417 
L 594.081334 200.499438 
L 594.441528 242.605624 
L 595.161915 279.169968 
L 595.522109 270.457061 
L 595.882302 280.376959 
L 596.242496 229.822873 
L 596.962883 173.71121 
L 597.323077 164.485344 
L 597.683271 130.777751 
L 598.043464 127.019419 
L 598.403658 142.91204 
L 598.763852 180.653219 
L 599.124045 190.381208 
L 599.484239 222.845349 
L 600.204626 214.716618 
L 600.56482 214.473225 
L 600.925013 210.450045 
L 601.285207 205.070406 
L 601.645401 196.243629 
L 602.005594 195.212132 
L 602.365788 189.202926 
L 602.725982 237.563579 
L 603.086175 240.408175 
L 603.446369 285.716151 
L 603.806563 301.063436 
L 604.166756 301.363093 
L 604.887144 263.367524 
L 605.247337 203.148158 
L 605.967725 154.40415 
L 606.327918 150.639934 
L 606.688112 122.00874 
L 607.048306 159.423023 
L 607.408499 168.934227 
L 607.768693 216.763237 
L 608.128886 211.137041 
L 608.48908 223.117918 
L 608.849274 214.72968 
L 609.209467 227.940647 
L 609.569661 224.736761 
L 609.929855 205.481902 
L 610.290048 192.554581 
L 610.650242 219.159799 
L 611.010436 205.02711 
L 611.370629 211.498249 
L 611.730823 259.181294 
L 612.091017 260.604401 
L 612.811404 295.061732 
L 613.171598 268.28586 
L 613.531791 226.279469 
L 613.891985 229.929261 
L 614.252179 163.951251 
L 614.972566 106.735594 
L 615.33276 140.792635 
L 615.692953 139.351692 
L 616.053147 170.062843 
L 616.413341 189.806087 
L 616.773534 224.233578 
L 617.133728 234.805777 
L 617.493921 236.941857 
L 617.854115 236.274883 
L 618.934696 165.564997 
L 619.29489 175.806154 
L 620.015277 201.87999 
L 620.375471 242.495974 
L 620.735664 249.96905 
L 621.095858 266.705787 
L 621.456052 266.347664 
L 621.816245 273.929193 
L 622.896826 172.115967 
L 623.25702 150.30953 
L 623.617214 107.37067 
L 623.977407 102.582445 
L 624.337601 153.381471 
L 624.697795 161.618088 
L 625.057988 146.573981 
L 625.418182 201.071769 
L 625.778375 194.6502 
L 626.138569 224.730709 
L 626.498763 206.060666 
L 626.858956 178.457391 
L 627.21915 163.841278 
L 627.579344 172.569551 
L 627.939537 159.695019 
L 628.299731 159.733095 
L 628.659925 212.706918 
L 629.020118 191.300388 
L 629.380312 243.158602 
L 629.740506 270.698349 
L 630.100699 235.591605 
L 630.460893 234.92312 
L 631.18128 174.07303 
L 631.541474 157.215014 
L 631.901668 103.589906 
L 632.261861 87.031016 
L 632.622055 107.837269 
L 632.982249 101.400801 
L 633.342442 146.207104 
L 633.702636 152.972348 
L 634.062829 201.162667 
L 634.423023 182.603329 
L 634.783217 198.090062 
L 635.14341 183.46624 
L 635.503604 162.79569 
L 635.863798 151.218796 
L 636.223991 147.872915 
L 636.584185 147.105551 
L 636.944379 165.77718 
L 637.304572 171.299436 
L 637.664766 193.436862 
L 638.385153 259.525003 
L 638.745347 246.279935 
L 639.105541 214.420696 
L 639.465734 206.417316 
L 639.825928 157.314126 
L 640.186122 139.346075 
L 640.546315 129.58128 
L 640.906509 91.118794 
L 641.266703 100.690867 
L 641.626896 101.883921 
L 642.707477 184.14223 
L 643.067671 180.474593 
L 643.427864 198.717347 
L 644.148252 158.287533 
L 644.508445 162.533223 
L 644.868639 159.60661 
L 645.228833 181.618367 
L 645.589026 155.028428 
L 646.309414 236.43773 
L 647.029801 262.336747 
L 647.389995 249.002144 
L 647.750188 225.848286 
L 648.110382 218.237213 
L 648.470576 163.71473 
L 648.830769 167.306362 
L 649.190963 111.666932 
L 649.551157 86.605088 
L 649.91135 99.127313 
L 650.271544 140.540246 
L 650.631737 147.536543 
L 650.991931 164.228834 
L 651.352125 192.825111 
L 651.712318 206.944723 
L 652.072512 207.438803 
L 652.432706 214.061077 
L 653.153093 164.07535 
L 653.513287 200.118645 
L 653.87348 168.362273 
L 654.233674 167.969762 
L 654.593868 196.465388 
L 655.314255 285.005421 
L 655.674449 306.710529 
L 656.034642 276.772457 
L 656.394836 279.063978 
L 656.75503 225.990146 
L 657.835611 143.099646 
L 658.195804 126.336934 
L 658.555998 119.122023 
L 658.916192 150.420742 
L 659.276385 156.212464 
L 659.636579 208.704767 
L 659.996772 196.560913 
L 660.356966 231.262446 
L 660.71716 235.51931 
L 661.077353 205.596422 
L 661.437547 227.499147 
L 661.797741 205.90258 
L 662.157934 196.650988 
L 662.518128 205.141501 
L 662.878322 208.285531 
L 663.238515 229.150827 
L 663.598709 233.527028 
L 663.958903 283.543826 
L 664.319096 286.884932 
L 664.67929 276.131863 
L 665.039484 281.06215 
L 665.399677 261.568343 
L 665.759871 198.277667 
L 666.480258 149.320095 
L 666.840452 145.174214 
L 667.200646 120.086285 
L 667.921033 213.705749 
L 668.281226 208.358448 
L 668.64142 207.119999 
L 669.001614 225.791129 
L 669.361807 251.599795 
L 669.722001 225.143618 
L 670.082195 217.12252 
L 670.442388 172.791926 
L 670.802582 196.52492 
L 671.162776 183.999296 
L 671.522969 240.015771 
L 671.883163 215.703542 
L 672.243357 236.292875 
L 672.60355 279.935287 
L 672.963744 275.548439 
L 673.323938 282.879302 
L 673.684131 262.440274 
L 674.044325 213.372983 
L 674.404519 210.74824 
L 675.124906 140.598793 
L 675.4851 126.620452 
L 675.845293 118.969449 
L 676.205487 135.267398 
L 676.56568 162.978087 
L 676.925874 200.232297 
L 677.286068 216.120152 
L 677.646261 214.031018 
L 678.366649 228.174909 
L 678.726842 204.728073 
L 679.087036 205.829669 
L 679.44723 171.726037 
L 679.807423 186.91244 
L 680.167617 189.340551 
L 680.527811 211.208357 
L 680.888004 212.065484 
L 681.248198 240.079775 
L 681.608392 256.531174 
L 681.968585 251.01578 
L 682.328779 255.49376 
L 682.688973 230.311124 
L 683.049166 171.676905 
L 683.40936 160.283401 
L 683.769554 136.081452 
L 684.129747 130.40773 
L 684.489941 120.835077 
L 684.850134 130.518727 
L 685.570522 171.316631 
L 685.930715 183.012679 
L 686.290909 187.946165 
L 686.651103 205.204647 
L 687.011296 192.423407 
L 687.37149 191.76447 
L 687.731684 173.5622 
L 688.091877 138.57234 
L 688.812265 183.047526 
L 689.172458 187.647242 
L 689.532652 198.355914 
L 690.613233 271.08325 
L 690.973427 240.987152 
L 691.693814 169.173425 
L 692.414201 112.928652 
L 692.774395 110.132557 
L 693.134588 86.036903 
L 693.494782 100.072582 
L 693.854976 105.008919 
L 694.215169 163.320913 
L 694.575363 189.744463 
L 694.935557 205.937632 
L 695.29575 211.77197 
L 695.655944 195.50599 
L 696.016138 158.374575 
L 696.376331 163.810314 
L 696.736525 148.67182 
L 697.096719 153.236782 
L 697.456912 175.903614 
L 697.817106 180.737917 
L 698.1773 224.997658 
L 698.537493 197.092443 
L 698.897687 239.139889 
L 699.257881 228.704946 
L 699.618074 245.383136 
L 699.978268 200.858261 
L 700.338462 189.893131 
L 701.058849 92.924852 
L 701.419042 91.440492 
L 701.779236 99.323924 
L 702.13943 120.746897 
L 702.499623 107.912079 
L 702.859817 167.451503 
L 703.220011 176.889768 
L 703.580204 215.049523 
L 704.300592 186.167192 
L 704.660785 193.150458 
L 705.020979 150.541841 
L 705.381173 144.863674 
L 706.10156 193.659313 
L 706.461754 195.211354 
L 706.821947 208.985075 
L 707.542335 255.545029 
L 707.902528 256.932302 
L 708.262722 240.406528 
L 708.622916 253.634684 
L 708.983109 177.881999 
L 709.343303 157.995863 
L 709.703497 109.733355 
L 710.06369 105.36653 
L 710.423884 149.302717 
L 710.784077 134.325403 
L 711.144271 110.327785 
L 711.504465 178.694315 
L 711.864658 211.691145 
L 712.224852 199.391659 
L 712.585046 204.444378 
L 712.945239 205.977179 
L 713.305433 197.479347 
L 713.665627 170.741082 
L 714.02582 164.47928 
L 714.746208 171.084905 
L 715.106401 191.366113 
L 715.466595 236.863676 
L 715.826789 266.250853 
L 716.186982 249.550826 
L 716.547176 284.549617 
L 716.90737 274.556489 
L 717.627757 197.082185 
L 717.987951 168.828774 
L 718.348144 160.103844 
L 718.708338 129.356256 
L 719.068531 129.019088 
L 720.8695 227.390624 
L 721.229693 224.649286 
L 721.589887 215.784429 
L 721.950081 210.905891 
L 722.310274 191.509847 
L 722.670468 200.972758 
L 723.390855 184.896284 
L 724.111243 238.466911 
L 724.471436 252.421737 
L 725.191824 295.840797 
L 725.552017 250.475342 
L 725.912211 246.548714 
L 726.272405 187.461985 
L 726.632598 181.788403 
L 726.992792 168.609884 
L 727.352985 134.611689 
L 727.713179 123.410989 
L 728.433566 195.849409 
L 729.153954 219.420222 
L 729.514147 240.627747 
L 730.234535 225.012875 
L 730.954922 179.50319 
L 731.315116 186.410942 
L 731.675309 204.697233 
L 732.035503 204.366589 
L 732.395697 218.660319 
L 732.75589 242.725588 
L 733.116084 282.902169 
L 733.476278 294.947602 
L 733.836471 273.493448 
L 734.196665 266.379697 
L 734.556859 242.911255 
L 734.917052 200.165998 
L 735.277246 144.098047 
L 735.637439 140.031456 
L 735.997633 134.488346 
L 736.357827 138.016466 
L 736.71802 119.872317 
L 737.078214 183.742636 
L 737.438408 179.080014 
L 738.158795 238.345912 
L 738.518989 233.122679 
L 738.879182 214.210168 
L 739.239376 205.208406 
L 739.59957 178.183177 
L 739.959763 160.741413 
L 740.319957 181.334841 
L 740.680151 169.180533 
L 741.040344 212.931559 
L 741.400538 218.917109 
L 742.120925 263.711189 
L 742.481119 260.054326 
L 742.841313 262.785943 
L 743.201506 228.703435 
L 743.201506 228.703435 
" style="fill:none;stroke:#1f77b4;stroke-linecap:square;stroke-width:1.5;"/>
   </g>
   <g id="line2d_15">
    <path clip-path="url(#pb84e0982f7)" d="M 747.163636 384.48 
L 747.163636 51.84 
" style="fill:none;stroke:#808080;stroke-linecap:square;"/>
   </g>
   <g id="patch_106">
    <path d="M 108 384.48 
L 108 51.84 
" style="fill:none;stroke:#000000;stroke-linecap:square;stroke-linejoin:miter;stroke-width:0.8;"/>
   </g>
   <g id="patch_107">
    <path d="M 777.6 384.48 
L 777.6 51.84 
" style="fill:none;stroke:#000000;stroke-linecap:square;stroke-linejoin:miter;stroke-width:0.8;"/>
   </g>
   <g id="patch_108">
    <path d="M 108 384.48 
L 777.6 384.48 
" style="fill:none;stroke:#000000;stroke-linecap:square;stroke-linejoin:miter;stroke-width:0.8;"/>
   </g>
   <g id="patch_109">
    <path d="M 108 51.84 
L 777.6 51.84 
" style="fill:none;stroke:#000000;stroke-linecap:square;stroke-linejoin:miter;stroke-width:0.8;"/>
   </g>
   <g id="text_16">
    <!-- A4Benchmark-TS10.csv -->
    <defs>
     <path d="M 34.1875 63.1875 
L 20.796875 26.90625 
L 47.609375 26.90625 
z
M 28.609375 72.90625 
L 39.796875 72.90625 
L 67.578125 0 
L 57.328125 0 
L 50.6875 18.703125 
L 17.828125 18.703125 
L 11.1875 0 
L 0.78125 0 
z
" id="DejaVuSans-65"/>
     <path d="M 37.796875 64.3125 
L 12.890625 25.390625 
L 37.796875 25.390625 
z
M 35.203125 72.90625 
L 47.609375 72.90625 
L 47.609375 25.390625 
L 58.015625 25.390625 
L 58.015625 17.1875 
L 47.609375 17.1875 
L 47.609375 0 
L 37.796875 0 
L 37.796875 17.1875 
L 4.890625 17.1875 
L 4.890625 26.703125 
z
" id="DejaVuSans-52"/>
     <path d="M 19.671875 34.8125 
L 19.671875 8.109375 
L 35.5 8.109375 
Q 43.453125 8.109375 47.28125 11.40625 
Q 51.125 14.703125 51.125 21.484375 
Q 51.125 28.328125 47.28125 31.5625 
Q 43.453125 34.8125 35.5 34.8125 
z
M 19.671875 64.796875 
L 19.671875 42.828125 
L 34.28125 42.828125 
Q 41.5 42.828125 45.03125 45.53125 
Q 48.578125 48.25 48.578125 53.8125 
Q 48.578125 59.328125 45.03125 62.0625 
Q 41.5 64.796875 34.28125 64.796875 
z
M 9.8125 72.90625 
L 35.015625 72.90625 
Q 46.296875 72.90625 52.390625 68.21875 
Q 58.5 63.53125 58.5 54.890625 
Q 58.5 48.1875 55.375 44.234375 
Q 52.25 40.28125 46.1875 39.3125 
Q 53.46875 37.75 57.5 32.78125 
Q 61.53125 27.828125 61.53125 20.40625 
Q 61.53125 10.640625 54.890625 5.3125 
Q 48.25 0 35.984375 0 
L 9.8125 0 
z
" id="DejaVuSans-66"/>
     <path d="M 54.890625 33.015625 
L 54.890625 0 
L 45.90625 0 
L 45.90625 32.71875 
Q 45.90625 40.484375 42.875 44.328125 
Q 39.84375 48.1875 33.796875 48.1875 
Q 26.515625 48.1875 22.3125 43.546875 
Q 18.109375 38.921875 18.109375 30.90625 
L 18.109375 0 
L 9.078125 0 
L 9.078125 54.6875 
L 18.109375 54.6875 
L 18.109375 46.1875 
Q 21.34375 51.125 25.703125 53.5625 
Q 30.078125 56 35.796875 56 
Q 45.21875 56 50.046875 50.171875 
Q 54.890625 44.34375 54.890625 33.015625 
z
" id="DejaVuSans-110"/>
     <path d="M 48.78125 52.59375 
L 48.78125 44.1875 
Q 44.96875 46.296875 41.140625 47.34375 
Q 37.3125 48.390625 33.40625 48.390625 
Q 24.65625 48.390625 19.8125 42.84375 
Q 14.984375 37.3125 14.984375 27.296875 
Q 14.984375 17.28125 19.8125 11.734375 
Q 24.65625 6.203125 33.40625 6.203125 
Q 37.3125 6.203125 41.140625 7.25 
Q 44.96875 8.296875 48.78125 10.40625 
L 48.78125 2.09375 
Q 45.015625 0.34375 40.984375 -0.53125 
Q 36.96875 -1.421875 32.421875 -1.421875 
Q 20.0625 -1.421875 12.78125 6.34375 
Q 5.515625 14.109375 5.515625 27.296875 
Q 5.515625 40.671875 12.859375 48.328125 
Q 20.21875 56 33.015625 56 
Q 37.15625 56 41.109375 55.140625 
Q 45.0625 54.296875 48.78125 52.59375 
z
" id="DejaVuSans-99"/>
     <path d="M 54.890625 33.015625 
L 54.890625 0 
L 45.90625 0 
L 45.90625 32.71875 
Q 45.90625 40.484375 42.875 44.328125 
Q 39.84375 48.1875 33.796875 48.1875 
Q 26.515625 48.1875 22.3125 43.546875 
Q 18.109375 38.921875 18.109375 30.90625 
L 18.109375 0 
L 9.078125 0 
L 9.078125 75.984375 
L 18.109375 75.984375 
L 18.109375 46.1875 
Q 21.34375 51.125 25.703125 53.5625 
Q 30.078125 56 35.796875 56 
Q 45.21875 56 50.046875 50.171875 
Q 54.890625 44.34375 54.890625 33.015625 
z
" id="DejaVuSans-104"/>
     <path d="M 41.109375 46.296875 
Q 39.59375 47.171875 37.8125 47.578125 
Q 36.03125 48 33.890625 48 
Q 26.265625 48 22.1875 43.046875 
Q 18.109375 38.09375 18.109375 28.8125 
L 18.109375 0 
L 9.078125 0 
L 9.078125 54.6875 
L 18.109375 54.6875 
L 18.109375 46.1875 
Q 20.953125 51.171875 25.484375 53.578125 
Q 30.03125 56 36.53125 56 
Q 37.453125 56 38.578125 55.875 
Q 39.703125 55.765625 41.0625 55.515625 
z
" id="DejaVuSans-114"/>
     <path d="M 9.078125 75.984375 
L 18.109375 75.984375 
L 18.109375 31.109375 
L 44.921875 54.6875 
L 56.390625 54.6875 
L 27.390625 29.109375 
L 57.625 0 
L 45.90625 0 
L 18.109375 26.703125 
L 18.109375 0 
L 9.078125 0 
z
" id="DejaVuSans-107"/>
     <path d="M 4.890625 31.390625 
L 31.203125 31.390625 
L 31.203125 23.390625 
L 4.890625 23.390625 
z
" id="DejaVuSans-45"/>
     <path d="M 53.515625 70.515625 
L 53.515625 60.890625 
Q 47.90625 63.578125 42.921875 64.890625 
Q 37.9375 66.21875 33.296875 66.21875 
Q 25.25 66.21875 20.875 63.09375 
Q 16.5 59.96875 16.5 54.203125 
Q 16.5 49.359375 19.40625 46.890625 
Q 22.3125 44.4375 30.421875 42.921875 
L 36.375 41.703125 
Q 47.40625 39.59375 52.65625 34.296875 
Q 57.90625 29 57.90625 20.125 
Q 57.90625 9.515625 50.796875 4.046875 
Q 43.703125 -1.421875 29.984375 -1.421875 
Q 24.8125 -1.421875 18.96875 -0.25 
Q 13.140625 0.921875 6.890625 3.21875 
L 6.890625 13.375 
Q 12.890625 10.015625 18.65625 8.296875 
Q 24.421875 6.59375 29.984375 6.59375 
Q 38.421875 6.59375 43.015625 9.90625 
Q 47.609375 13.234375 47.609375 19.390625 
Q 47.609375 24.75 44.3125 27.78125 
Q 41.015625 30.8125 33.5 32.328125 
L 27.484375 33.5 
Q 16.453125 35.6875 11.515625 40.375 
Q 6.59375 45.0625 6.59375 53.421875 
Q 6.59375 63.09375 13.40625 68.65625 
Q 20.21875 74.21875 32.171875 74.21875 
Q 37.3125 74.21875 42.625 73.28125 
Q 47.953125 72.359375 53.515625 70.515625 
z
" id="DejaVuSans-83"/>
     <path d="M 10.6875 12.40625 
L 21 12.40625 
L 21 0 
L 10.6875 0 
z
" id="DejaVuSans-46"/>
     <path d="M 2.984375 54.6875 
L 12.5 54.6875 
L 29.59375 8.796875 
L 46.6875 54.6875 
L 56.203125 54.6875 
L 35.6875 0 
L 23.484375 0 
z
" id="DejaVuSans-118"/>
    </defs>
    <g transform="translate(371.555625 45.84)scale(0.12 -0.12)">
     <use xlink:href="#DejaVuSans-65"/>
     <use x="68.408203" xlink:href="#DejaVuSans-52"/>
     <use x="132.03125" xlink:href="#DejaVuSans-66"/>
     <use x="200.634766" xlink:href="#DejaVuSans-101"/>
     <use x="262.158203" xlink:href="#DejaVuSans-110"/>
     <use x="325.537109" xlink:href="#DejaVuSans-99"/>
     <use x="380.517578" xlink:href="#DejaVuSans-104"/>
     <use x="443.896484" xlink:href="#DejaVuSans-109"/>
     <use x="541.308594" xlink:href="#DejaVuSans-97"/>
     <use x="602.587891" xlink:href="#DejaVuSans-114"/>
     <use x="643.701172" xlink:href="#DejaVuSans-107"/>
     <use x="701.611328" xlink:href="#DejaVuSans-45"/>
     <use x="737.554688" xlink:href="#DejaVuSans-84"/>
     <use x="798.638672" xlink:href="#DejaVuSans-83"/>
     <use x="862.115234" xlink:href="#DejaVuSans-49"/>
     <use x="925.738281" xlink:href="#DejaVuSans-48"/>
     <use x="989.361328" xlink:href="#DejaVuSans-46"/>
     <use x="1021.148438" xlink:href="#DejaVuSans-99"/>
     <use x="1076.128906" xlink:href="#DejaVuSans-115"/>
     <use x="1128.228516" xlink:href="#DejaVuSans-118"/>
    </g>
   </g>
   <g id="legend_1">
    <g id="patch_110">
     <path d="M 115 74.518125 
L 174.315625 74.518125 
Q 176.315625 74.518125 176.315625 72.518125 
L 176.315625 58.84 
Q 176.315625 56.84 174.315625 56.84 
L 115 56.84 
Q 113 56.84 113 58.84 
L 113 72.518125 
Q 113 74.518125 115 74.518125 
z
" style="fill:#ffffff;opacity:0.8;stroke:#cccccc;stroke-linejoin:miter;"/>
    </g>
    <g id="line2d_16">
     <path d="M 117 64.938438 
L 137 64.938438 
" style="fill:none;stroke:#1f77b4;stroke-linecap:square;stroke-width:1.5;"/>
    </g>
    <g id="line2d_17"/>
    <g id="text_17">
     <!-- value -->
     <g transform="translate(145 68.438438)scale(0.1 -0.1)">
      <use xlink:href="#DejaVuSans-118"/>
      <use x="59.179688" xlink:href="#DejaVuSans-97"/>
      <use x="120.458984" xlink:href="#DejaVuSans-108"/>
      <use x="148.242188" xlink:href="#DejaVuSans-117"/>
      <use x="211.621094" xlink:href="#DejaVuSans-101"/>
     </g>
    </g>
   </g>
  </g>
 </g>
 <defs>
  <clipPath id="pb84e0982f7">
   <rect height="332.64" width="669.6" x="108" y="51.84"/>
  </clipPath>
 </defs>
</svg>
