<?xml version="1.0" encoding="utf-8" standalone="no"?>
<!DOCTYPE svg PUBLIC "-//W3C//DTD SVG 1.1//EN"
  "http://www.w3.org/Graphics/SVG/1.1/DTD/svg11.dtd">
<!-- Created with matplotlib (https://matplotlib.org/) -->
<svg height="432pt" version="1.1" viewBox="0 0 864 432" width="864pt" xmlns="http://www.w3.org/2000/svg" xmlns:xlink="http://www.w3.org/1999/xlink">
 <defs>
  <style type="text/css">
*{stroke-linecap:butt;stroke-linejoin:round;}
  </style>
 </defs>
 <g id="figure_1">
  <g id="patch_1">
   <path d="M 0 432 
L 864 432 
L 864 0 
L 0 0 
z
" style="fill:#ffffff;"/>
  </g>
  <g id="axes_1">
   <g id="patch_2">
    <path d="M 108 384.48 
L 777.6 384.48 
L 777.6 51.84 
L 108 51.84 
z
" style="fill:#ffffff;"/>
   </g>
   <g id="patch_3">
    <path clip-path="url(#p9add088d0a)" d="M 138.436364 384.48 
L 138.436364 51.84 
L 440.999032 51.84 
L 440.999032 384.48 
z
" style="fill:#0000ff;opacity:0.05;"/>
   </g>
   <g id="patch_4">
    <path clip-path="url(#p9add088d0a)" d="M 440.999032 384.48 
L 440.999032 51.84 
L 747.163636 51.84 
L 747.163636 384.48 
z
" style="fill:#ff0000;opacity:0.08;"/>
   </g>
   <g id="patch_5">
    <path clip-path="url(#p9add088d0a)" d="M 138.436364 384.48 
L 138.436364 51.84 
L 142.0383 51.84 
L 142.0383 384.48 
z
" style="fill:#008000;opacity:0.04;"/>
   </g>
   <g id="patch_6">
    <path clip-path="url(#p9add088d0a)" d="M 145.640237 384.48 
L 145.640237 51.84 
L 149.242173 51.84 
L 149.242173 384.48 
z
" style="fill:#008000;opacity:0.04;"/>
   </g>
   <g id="patch_7">
    <path clip-path="url(#p9add088d0a)" d="M 145.640237 384.48 
L 145.640237 371.1744 
L 149.242173 371.1744 
L 149.242173 384.48 
z
" style="fill:#ffe500;"/>
   </g>
   <g id="patch_8">
    <path clip-path="url(#p9add088d0a)" d="M 152.84411 384.48 
L 152.84411 51.84 
L 156.446046 51.84 
L 156.446046 384.48 
z
" style="fill:#008000;opacity:0.04;"/>
   </g>
   <g id="patch_9">
    <path clip-path="url(#p9add088d0a)" d="M 160.047983 384.48 
L 160.047983 51.84 
L 163.649919 51.84 
L 163.649919 384.48 
z
" style="fill:#008000;opacity:0.04;"/>
   </g>
   <g id="patch_10">
    <path clip-path="url(#p9add088d0a)" d="M 167.251856 384.48 
L 167.251856 51.84 
L 170.853792 51.84 
L 170.853792 384.48 
z
" style="fill:#008000;opacity:0.04;"/>
   </g>
   <g id="patch_11">
    <path clip-path="url(#p9add088d0a)" d="M 174.455729 384.48 
L 174.455729 51.84 
L 178.057665 51.84 
L 178.057665 384.48 
z
" style="fill:#008000;opacity:0.04;"/>
   </g>
   <g id="patch_12">
    <path clip-path="url(#p9add088d0a)" d="M 181.659602 384.48 
L 181.659602 51.84 
L 185.261538 51.84 
L 185.261538 384.48 
z
" style="fill:#008000;opacity:0.04;"/>
   </g>
   <g id="patch_13">
    <path clip-path="url(#p9add088d0a)" d="M 188.863475 384.48 
L 188.863475 51.84 
L 192.465412 51.84 
L 192.465412 384.48 
z
" style="fill:#008000;opacity:0.04;"/>
   </g>
   <g id="patch_14">
    <path clip-path="url(#p9add088d0a)" d="M 188.863475 384.48 
L 188.863475 371.1744 
L 192.465412 371.1744 
L 192.465412 384.48 
z
" style="fill:#ffe500;"/>
   </g>
   <g id="patch_15">
    <path clip-path="url(#p9add088d0a)" d="M 196.067348 384.48 
L 196.067348 51.84 
L 199.669285 51.84 
L 199.669285 384.48 
z
" style="fill:#008000;opacity:0.04;"/>
   </g>
   <g id="patch_16">
    <path clip-path="url(#p9add088d0a)" d="M 203.271221 384.48 
L 203.271221 51.84 
L 206.873158 51.84 
L 206.873158 384.48 
z
" style="fill:#008000;opacity:0.04;"/>
   </g>
   <g id="patch_17">
    <path clip-path="url(#p9add088d0a)" d="M 206.873158 384.48 
L 206.873158 371.1744 
L 210.475094 371.1744 
L 210.475094 384.48 
z
" style="fill:#ffe500;"/>
   </g>
   <g id="patch_18">
    <path clip-path="url(#p9add088d0a)" d="M 210.475094 384.48 
L 210.475094 51.84 
L 214.077031 51.84 
L 214.077031 384.48 
z
" style="fill:#008000;opacity:0.04;"/>
   </g>
   <g id="patch_19">
    <path clip-path="url(#p9add088d0a)" d="M 214.077031 384.48 
L 214.077031 371.1744 
L 217.678967 371.1744 
L 217.678967 384.48 
z
" style="fill:#ffe500;"/>
   </g>
   <g id="patch_20">
    <path clip-path="url(#p9add088d0a)" d="M 217.678967 384.48 
L 217.678967 51.84 
L 221.280904 51.84 
L 221.280904 384.48 
z
" style="fill:#008000;opacity:0.04;"/>
   </g>
   <g id="patch_21">
    <path clip-path="url(#p9add088d0a)" d="M 224.88284 384.48 
L 224.88284 51.84 
L 228.484777 51.84 
L 228.484777 384.48 
z
" style="fill:#008000;opacity:0.04;"/>
   </g>
   <g id="patch_22">
    <path clip-path="url(#p9add088d0a)" d="M 232.086713 384.48 
L 232.086713 51.84 
L 235.68865 51.84 
L 235.68865 384.48 
z
" style="fill:#008000;opacity:0.04;"/>
   </g>
   <g id="patch_23">
    <path clip-path="url(#p9add088d0a)" d="M 239.290586 384.48 
L 239.290586 51.84 
L 242.892523 51.84 
L 242.892523 384.48 
z
" style="fill:#008000;opacity:0.04;"/>
   </g>
   <g id="patch_24">
    <path clip-path="url(#p9add088d0a)" d="M 239.290586 384.48 
L 239.290586 371.1744 
L 242.892523 371.1744 
L 242.892523 384.48 
z
" style="fill:#ffe500;"/>
   </g>
   <g id="patch_25">
    <path clip-path="url(#p9add088d0a)" d="M 246.494459 384.48 
L 246.494459 51.84 
L 250.096396 51.84 
L 250.096396 384.48 
z
" style="fill:#008000;opacity:0.04;"/>
   </g>
   <g id="patch_26">
    <path clip-path="url(#p9add088d0a)" d="M 250.096396 384.48 
L 250.096396 371.1744 
L 253.698332 371.1744 
L 253.698332 384.48 
z
" style="fill:#ffe500;"/>
   </g>
   <g id="patch_27">
    <path clip-path="url(#p9add088d0a)" d="M 253.698332 384.48 
L 253.698332 51.84 
L 257.300269 51.84 
L 257.300269 384.48 
z
" style="fill:#008000;opacity:0.04;"/>
   </g>
   <g id="patch_28">
    <path clip-path="url(#p9add088d0a)" d="M 260.902205 384.48 
L 260.902205 51.84 
L 264.504142 51.84 
L 264.504142 384.48 
z
" style="fill:#008000;opacity:0.04;"/>
   </g>
   <g id="patch_29">
    <path clip-path="url(#p9add088d0a)" d="M 268.106079 384.48 
L 268.106079 51.84 
L 271.708015 51.84 
L 271.708015 384.48 
z
" style="fill:#008000;opacity:0.04;"/>
   </g>
   <g id="patch_30">
    <path clip-path="url(#p9add088d0a)" d="M 275.309952 384.48 
L 275.309952 51.84 
L 278.911888 51.84 
L 278.911888 384.48 
z
" style="fill:#008000;opacity:0.04;"/>
   </g>
   <g id="patch_31">
    <path clip-path="url(#p9add088d0a)" d="M 275.309952 384.48 
L 275.309952 371.1744 
L 278.911888 371.1744 
L 278.911888 384.48 
z
" style="fill:#ffe500;"/>
   </g>
   <g id="patch_32">
    <path clip-path="url(#p9add088d0a)" d="M 282.513825 384.48 
L 282.513825 51.84 
L 286.115761 51.84 
L 286.115761 384.48 
z
" style="fill:#008000;opacity:0.04;"/>
   </g>
   <g id="patch_33">
    <path clip-path="url(#p9add088d0a)" d="M 286.115761 371.1744 
L 286.115761 357.8688 
L 289.717698 357.8688 
L 289.717698 371.1744 
z
" style="fill:#ff00ff;"/>
   </g>
   <g id="patch_34">
    <path clip-path="url(#p9add088d0a)" d="M 289.717698 384.48 
L 289.717698 51.84 
L 293.319634 51.84 
L 293.319634 384.48 
z
" style="fill:#008000;opacity:0.04;"/>
   </g>
   <g id="patch_35">
    <path clip-path="url(#p9add088d0a)" d="M 289.717698 371.1744 
L 289.717698 51.84 
L 293.319634 51.84 
L 293.319634 371.1744 
z
" style="fill:#008000;opacity:0.5;"/>
   </g>
   <g id="patch_36">
    <path clip-path="url(#p9add088d0a)" d="M 296.921571 384.48 
L 296.921571 51.84 
L 300.523507 51.84 
L 300.523507 384.48 
z
" style="fill:#008000;opacity:0.04;"/>
   </g>
   <g id="patch_37">
    <path clip-path="url(#p9add088d0a)" d="M 304.125444 384.48 
L 304.125444 51.84 
L 307.72738 51.84 
L 307.72738 384.48 
z
" style="fill:#008000;opacity:0.04;"/>
   </g>
   <g id="patch_38">
    <path clip-path="url(#p9add088d0a)" d="M 311.329317 384.48 
L 311.329317 51.84 
L 314.931253 51.84 
L 314.931253 384.48 
z
" style="fill:#008000;opacity:0.04;"/>
   </g>
   <g id="patch_39">
    <path clip-path="url(#p9add088d0a)" d="M 318.53319 384.48 
L 318.53319 51.84 
L 322.135126 51.84 
L 322.135126 384.48 
z
" style="fill:#008000;opacity:0.04;"/>
   </g>
   <g id="patch_40">
    <path clip-path="url(#p9add088d0a)" d="M 325.737063 384.48 
L 325.737063 51.84 
L 329.338999 51.84 
L 329.338999 384.48 
z
" style="fill:#008000;opacity:0.04;"/>
   </g>
   <g id="patch_41">
    <path clip-path="url(#p9add088d0a)" d="M 332.940936 384.48 
L 332.940936 51.84 
L 336.542873 51.84 
L 336.542873 384.48 
z
" style="fill:#008000;opacity:0.04;"/>
   </g>
   <g id="patch_42">
    <path clip-path="url(#p9add088d0a)" d="M 340.144809 384.48 
L 340.144809 51.84 
L 343.746746 51.84 
L 343.746746 384.48 
z
" style="fill:#008000;opacity:0.04;"/>
   </g>
   <g id="patch_43">
    <path clip-path="url(#p9add088d0a)" d="M 347.348682 384.48 
L 347.348682 51.84 
L 350.950619 51.84 
L 350.950619 384.48 
z
" style="fill:#008000;opacity:0.04;"/>
   </g>
   <g id="patch_44">
    <path clip-path="url(#p9add088d0a)" d="M 354.552555 384.48 
L 354.552555 51.84 
L 358.154492 51.84 
L 358.154492 384.48 
z
" style="fill:#008000;opacity:0.04;"/>
   </g>
   <g id="patch_45">
    <path clip-path="url(#p9add088d0a)" d="M 361.756428 384.48 
L 361.756428 51.84 
L 365.358365 51.84 
L 365.358365 384.48 
z
" style="fill:#008000;opacity:0.04;"/>
   </g>
   <g id="patch_46">
    <path clip-path="url(#p9add088d0a)" d="M 361.756428 371.1744 
L 361.756428 357.8688 
L 365.358365 357.8688 
L 365.358365 371.1744 
z
" style="fill:#ff00ff;"/>
   </g>
   <g id="patch_47">
    <path clip-path="url(#p9add088d0a)" d="M 365.358365 371.1744 
L 365.358365 51.84 
L 368.960301 51.84 
L 368.960301 371.1744 
z
" style="fill:#008000;opacity:0.5;"/>
   </g>
   <g id="patch_48">
    <path clip-path="url(#p9add088d0a)" d="M 365.358365 384.48 
L 365.358365 371.1744 
L 368.960301 371.1744 
L 368.960301 384.48 
z
" style="fill:#ffe500;"/>
   </g>
   <g id="patch_49">
    <path clip-path="url(#p9add088d0a)" d="M 368.960301 384.48 
L 368.960301 51.84 
L 372.562238 51.84 
L 372.562238 384.48 
z
" style="fill:#008000;opacity:0.04;"/>
   </g>
   <g id="patch_50">
    <path clip-path="url(#p9add088d0a)" d="M 376.164174 384.48 
L 376.164174 51.84 
L 379.766111 51.84 
L 379.766111 384.48 
z
" style="fill:#008000;opacity:0.04;"/>
   </g>
   <g id="patch_51">
    <path clip-path="url(#p9add088d0a)" d="M 383.368047 384.48 
L 383.368047 51.84 
L 386.969984 51.84 
L 386.969984 384.48 
z
" style="fill:#008000;opacity:0.04;"/>
   </g>
   <g id="patch_52">
    <path clip-path="url(#p9add088d0a)" d="M 390.57192 384.48 
L 390.57192 51.84 
L 394.173857 51.84 
L 394.173857 384.48 
z
" style="fill:#008000;opacity:0.04;"/>
   </g>
   <g id="patch_53">
    <path clip-path="url(#p9add088d0a)" d="M 397.775793 384.48 
L 397.775793 51.84 
L 401.37773 51.84 
L 401.37773 384.48 
z
" style="fill:#008000;opacity:0.04;"/>
   </g>
   <g id="patch_54">
    <path clip-path="url(#p9add088d0a)" d="M 404.979666 384.48 
L 404.979666 51.84 
L 408.581603 51.84 
L 408.581603 384.48 
z
" style="fill:#008000;opacity:0.04;"/>
   </g>
   <g id="patch_55">
    <path clip-path="url(#p9add088d0a)" d="M 412.18354 384.48 
L 412.18354 51.84 
L 415.785476 51.84 
L 415.785476 384.48 
z
" style="fill:#008000;opacity:0.04;"/>
   </g>
   <g id="patch_56">
    <path clip-path="url(#p9add088d0a)" d="M 419.387413 384.48 
L 419.387413 51.84 
L 422.989349 51.84 
L 422.989349 384.48 
z
" style="fill:#008000;opacity:0.04;"/>
   </g>
   <g id="patch_57">
    <path clip-path="url(#p9add088d0a)" d="M 426.591286 384.48 
L 426.591286 51.84 
L 430.193222 51.84 
L 430.193222 384.48 
z
" style="fill:#008000;opacity:0.04;"/>
   </g>
   <g id="patch_58">
    <path clip-path="url(#p9add088d0a)" d="M 433.795159 384.48 
L 433.795159 51.84 
L 437.397095 51.84 
L 437.397095 384.48 
z
" style="fill:#008000;opacity:0.04;"/>
   </g>
   <g id="patch_59">
    <path clip-path="url(#p9add088d0a)" d="M 437.397095 371.1744 
L 437.397095 357.8688 
L 440.999032 357.8688 
L 440.999032 371.1744 
z
" style="fill:#ff00ff;"/>
   </g>
   <g id="patch_60">
    <path clip-path="url(#p9add088d0a)" d="M 440.999032 384.48 
L 440.999032 51.84 
L 444.600968 51.84 
L 444.600968 384.48 
z
" style="fill:#008000;opacity:0.04;"/>
   </g>
   <g id="patch_61">
    <path clip-path="url(#p9add088d0a)" d="M 743.5617 384.48 
L 743.5617 371.1744 
L 747.163636 371.1744 
L 747.163636 384.48 
z
" style="fill:#ff6600;"/>
   </g>
   <g id="patch_62">
    <path clip-path="url(#p9add088d0a)" d="M 448.202905 384.48 
L 448.202905 51.84 
L 451.804841 51.84 
L 451.804841 384.48 
z
" style="fill:#008000;opacity:0.04;"/>
   </g>
   <g id="patch_63">
    <path clip-path="url(#p9add088d0a)" d="M 455.406778 384.48 
L 455.406778 51.84 
L 459.008714 51.84 
L 459.008714 384.48 
z
" style="fill:#008000;opacity:0.04;"/>
   </g>
   <g id="patch_64">
    <path clip-path="url(#p9add088d0a)" d="M 462.610651 384.48 
L 462.610651 51.84 
L 466.212587 51.84 
L 466.212587 384.48 
z
" style="fill:#008000;opacity:0.04;"/>
   </g>
   <g id="patch_65">
    <path clip-path="url(#p9add088d0a)" d="M 469.814524 384.48 
L 469.814524 51.84 
L 473.41646 51.84 
L 473.41646 384.48 
z
" style="fill:#008000;opacity:0.04;"/>
   </g>
   <g id="patch_66">
    <path clip-path="url(#p9add088d0a)" d="M 477.018397 384.48 
L 477.018397 51.84 
L 480.620334 51.84 
L 480.620334 384.48 
z
" style="fill:#008000;opacity:0.04;"/>
   </g>
   <g id="patch_67">
    <path clip-path="url(#p9add088d0a)" d="M 484.22227 384.48 
L 484.22227 51.84 
L 487.824207 51.84 
L 487.824207 384.48 
z
" style="fill:#008000;opacity:0.04;"/>
   </g>
   <g id="patch_68">
    <path clip-path="url(#p9add088d0a)" d="M 491.426143 384.48 
L 491.426143 51.84 
L 495.02808 51.84 
L 495.02808 384.48 
z
" style="fill:#008000;opacity:0.04;"/>
   </g>
   <g id="patch_69">
    <path clip-path="url(#p9add088d0a)" d="M 498.630016 384.48 
L 498.630016 51.84 
L 502.231953 51.84 
L 502.231953 384.48 
z
" style="fill:#008000;opacity:0.04;"/>
   </g>
   <g id="patch_70">
    <path clip-path="url(#p9add088d0a)" d="M 505.833889 384.48 
L 505.833889 51.84 
L 509.435826 51.84 
L 509.435826 384.48 
z
" style="fill:#008000;opacity:0.04;"/>
   </g>
   <g id="patch_71">
    <path clip-path="url(#p9add088d0a)" d="M 513.037762 384.48 
L 513.037762 51.84 
L 516.639699 51.84 
L 516.639699 384.48 
z
" style="fill:#008000;opacity:0.04;"/>
   </g>
   <g id="patch_72">
    <path clip-path="url(#p9add088d0a)" d="M 513.037762 371.1744 
L 513.037762 357.8688 
L 516.639699 357.8688 
L 516.639699 371.1744 
z
" style="fill:#ff00ff;"/>
   </g>
   <g id="patch_73">
    <path clip-path="url(#p9add088d0a)" d="M 520.241635 384.48 
L 520.241635 51.84 
L 523.843572 51.84 
L 523.843572 384.48 
z
" style="fill:#008000;opacity:0.04;"/>
   </g>
   <g id="patch_74">
    <path clip-path="url(#p9add088d0a)" d="M 527.445508 384.48 
L 527.445508 51.84 
L 531.047445 51.84 
L 531.047445 384.48 
z
" style="fill:#008000;opacity:0.04;"/>
   </g>
   <g id="patch_75">
    <path clip-path="url(#p9add088d0a)" d="M 534.649381 384.48 
L 534.649381 51.84 
L 538.251318 51.84 
L 538.251318 384.48 
z
" style="fill:#008000;opacity:0.04;"/>
   </g>
   <g id="patch_76">
    <path clip-path="url(#p9add088d0a)" d="M 541.853254 384.48 
L 541.853254 51.84 
L 545.455191 51.84 
L 545.455191 384.48 
z
" style="fill:#008000;opacity:0.04;"/>
   </g>
   <g id="patch_77">
    <path clip-path="url(#p9add088d0a)" d="M 549.057127 384.48 
L 549.057127 51.84 
L 552.659064 51.84 
L 552.659064 384.48 
z
" style="fill:#008000;opacity:0.04;"/>
   </g>
   <g id="patch_78">
    <path clip-path="url(#p9add088d0a)" d="M 549.057127 371.1744 
L 549.057127 51.84 
L 552.659064 51.84 
L 552.659064 371.1744 
z
" style="fill:#008000;opacity:0.5;"/>
   </g>
   <g id="patch_79">
    <path clip-path="url(#p9add088d0a)" d="M 556.261001 384.48 
L 556.261001 51.84 
L 559.862937 51.84 
L 559.862937 384.48 
z
" style="fill:#008000;opacity:0.04;"/>
   </g>
   <g id="patch_80">
    <path clip-path="url(#p9add088d0a)" d="M 563.464874 384.48 
L 563.464874 51.84 
L 567.06681 51.84 
L 567.06681 384.48 
z
" style="fill:#008000;opacity:0.04;"/>
   </g>
   <g id="patch_81">
    <path clip-path="url(#p9add088d0a)" d="M 570.668747 384.48 
L 570.668747 51.84 
L 574.270683 51.84 
L 574.270683 384.48 
z
" style="fill:#008000;opacity:0.04;"/>
   </g>
   <g id="patch_82">
    <path clip-path="url(#p9add088d0a)" d="M 577.87262 384.48 
L 577.87262 51.84 
L 581.474556 51.84 
L 581.474556 384.48 
z
" style="fill:#008000;opacity:0.04;"/>
   </g>
   <g id="patch_83">
    <path clip-path="url(#p9add088d0a)" d="M 585.076493 384.48 
L 585.076493 51.84 
L 588.678429 51.84 
L 588.678429 384.48 
z
" style="fill:#008000;opacity:0.04;"/>
   </g>
   <g id="patch_84">
    <path clip-path="url(#p9add088d0a)" d="M 592.280366 384.48 
L 592.280366 51.84 
L 595.882302 51.84 
L 595.882302 384.48 
z
" style="fill:#008000;opacity:0.04;"/>
   </g>
   <g id="patch_85">
    <path clip-path="url(#p9add088d0a)" d="M 599.484239 384.48 
L 599.484239 51.84 
L 603.086175 51.84 
L 603.086175 384.48 
z
" style="fill:#008000;opacity:0.04;"/>
   </g>
   <g id="patch_86">
    <path clip-path="url(#p9add088d0a)" d="M 606.688112 384.48 
L 606.688112 51.84 
L 610.290048 51.84 
L 610.290048 384.48 
z
" style="fill:#008000;opacity:0.04;"/>
   </g>
   <g id="patch_87">
    <path clip-path="url(#p9add088d0a)" d="M 613.891985 384.48 
L 613.891985 51.84 
L 617.493921 51.84 
L 617.493921 384.48 
z
" style="fill:#008000;opacity:0.04;"/>
   </g>
   <g id="patch_88">
    <path clip-path="url(#p9add088d0a)" d="M 621.095858 384.48 
L 621.095858 51.84 
L 624.697795 51.84 
L 624.697795 384.48 
z
" style="fill:#008000;opacity:0.04;"/>
   </g>
   <g id="patch_89">
    <path clip-path="url(#p9add088d0a)" d="M 628.299731 384.48 
L 628.299731 51.84 
L 631.901668 51.84 
L 631.901668 384.48 
z
" style="fill:#008000;opacity:0.04;"/>
   </g>
   <g id="patch_90">
    <path clip-path="url(#p9add088d0a)" d="M 635.503604 384.48 
L 635.503604 51.84 
L 639.105541 51.84 
L 639.105541 384.48 
z
" style="fill:#008000;opacity:0.04;"/>
   </g>
   <g id="patch_91">
    <path clip-path="url(#p9add088d0a)" d="M 642.707477 384.48 
L 642.707477 51.84 
L 646.309414 51.84 
L 646.309414 384.48 
z
" style="fill:#008000;opacity:0.04;"/>
   </g>
   <g id="patch_92">
    <path clip-path="url(#p9add088d0a)" d="M 649.91135 384.48 
L 649.91135 51.84 
L 653.513287 51.84 
L 653.513287 384.48 
z
" style="fill:#008000;opacity:0.04;"/>
   </g>
   <g id="patch_93">
    <path clip-path="url(#p9add088d0a)" d="M 657.115223 384.48 
L 657.115223 51.84 
L 660.71716 51.84 
L 660.71716 384.48 
z
" style="fill:#008000;opacity:0.04;"/>
   </g>
   <g id="patch_94">
    <path clip-path="url(#p9add088d0a)" d="M 664.319096 384.48 
L 664.319096 51.84 
L 667.921033 51.84 
L 667.921033 384.48 
z
" style="fill:#008000;opacity:0.04;"/>
   </g>
   <g id="patch_95">
    <path clip-path="url(#p9add088d0a)" d="M 671.522969 384.48 
L 671.522969 51.84 
L 675.124906 51.84 
L 675.124906 384.48 
z
" style="fill:#008000;opacity:0.04;"/>
   </g>
   <g id="patch_96">
    <path clip-path="url(#p9add088d0a)" d="M 678.726842 384.48 
L 678.726842 51.84 
L 682.328779 51.84 
L 682.328779 384.48 
z
" style="fill:#008000;opacity:0.04;"/>
   </g>
   <g id="patch_97">
    <path clip-path="url(#p9add088d0a)" d="M 685.930715 384.48 
L 685.930715 51.84 
L 689.532652 51.84 
L 689.532652 384.48 
z
" style="fill:#008000;opacity:0.04;"/>
   </g>
   <g id="patch_98">
    <path clip-path="url(#p9add088d0a)" d="M 693.134588 384.48 
L 693.134588 51.84 
L 696.736525 51.84 
L 696.736525 384.48 
z
" style="fill:#008000;opacity:0.04;"/>
   </g>
   <g id="patch_99">
    <path clip-path="url(#p9add088d0a)" d="M 700.338462 384.48 
L 700.338462 51.84 
L 703.940398 51.84 
L 703.940398 384.48 
z
" style="fill:#008000;opacity:0.04;"/>
   </g>
   <g id="patch_100">
    <path clip-path="url(#p9add088d0a)" d="M 707.542335 384.48 
L 707.542335 51.84 
L 711.144271 51.84 
L 711.144271 384.48 
z
" style="fill:#008000;opacity:0.04;"/>
   </g>
   <g id="patch_101">
    <path clip-path="url(#p9add088d0a)" d="M 714.746208 384.48 
L 714.746208 51.84 
L 718.348144 51.84 
L 718.348144 384.48 
z
" style="fill:#008000;opacity:0.04;"/>
   </g>
   <g id="patch_102">
    <path clip-path="url(#p9add088d0a)" d="M 721.950081 384.48 
L 721.950081 51.84 
L 725.552017 51.84 
L 725.552017 384.48 
z
" style="fill:#008000;opacity:0.04;"/>
   </g>
   <g id="patch_103">
    <path clip-path="url(#p9add088d0a)" d="M 729.153954 384.48 
L 729.153954 51.84 
L 732.75589 51.84 
L 732.75589 384.48 
z
" style="fill:#008000;opacity:0.04;"/>
   </g>
   <g id="patch_104">
    <path clip-path="url(#p9add088d0a)" d="M 736.357827 384.48 
L 736.357827 51.84 
L 739.959763 51.84 
L 739.959763 384.48 
z
" style="fill:#008000;opacity:0.04;"/>
   </g>
   <g id="patch_105">
    <path clip-path="url(#p9add088d0a)" d="M 743.5617 384.48 
L 743.5617 51.84 
L 747.163636 51.84 
L 747.163636 384.48 
z
" style="fill:#008000;opacity:0.04;"/>
   </g>
   <g id="matplotlib.axis_1">
    <g id="xtick_1">
     <g id="line2d_1">
      <defs>
       <path d="M 0 0 
L 0 3.5 
" id="m81a9238275" style="stroke:#000000;stroke-width:0.8;"/>
      </defs>
      <g>
       <use style="stroke:#000000;stroke-width:0.8;" x="138.436364" xlink:href="#m81a9238275" y="384.48"/>
      </g>
     </g>
     <g id="text_1">
      <!-- 0 -->
      <defs>
       <path d="M 31.78125 66.40625 
Q 24.171875 66.40625 20.328125 58.90625 
Q 16.5 51.421875 16.5 36.375 
Q 16.5 21.390625 20.328125 13.890625 
Q 24.171875 6.390625 31.78125 6.390625 
Q 39.453125 6.390625 43.28125 13.890625 
Q 47.125 21.390625 47.125 36.375 
Q 47.125 51.421875 43.28125 58.90625 
Q 39.453125 66.40625 31.78125 66.40625 
z
M 31.78125 74.21875 
Q 44.046875 74.21875 50.515625 64.515625 
Q 56.984375 54.828125 56.984375 36.375 
Q 56.984375 17.96875 50.515625 8.265625 
Q 44.046875 -1.421875 31.78125 -1.421875 
Q 19.53125 -1.421875 13.0625 8.265625 
Q 6.59375 17.96875 6.59375 36.375 
Q 6.59375 54.828125 13.0625 64.515625 
Q 19.53125 74.21875 31.78125 74.21875 
z
" id="DejaVuSans-48"/>
      </defs>
      <g transform="translate(135.255114 399.078438)scale(0.1 -0.1)">
       <use xlink:href="#DejaVuSans-48"/>
      </g>
     </g>
    </g>
    <g id="xtick_2">
     <g id="line2d_2">
      <g>
       <use style="stroke:#000000;stroke-width:0.8;" x="228.484777" xlink:href="#m81a9238275" y="384.48"/>
      </g>
     </g>
     <g id="text_2">
      <!-- 250 -->
      <defs>
       <path d="M 19.1875 8.296875 
L 53.609375 8.296875 
L 53.609375 0 
L 7.328125 0 
L 7.328125 8.296875 
Q 12.9375 14.109375 22.625 23.890625 
Q 32.328125 33.6875 34.8125 36.53125 
Q 39.546875 41.84375 41.421875 45.53125 
Q 43.3125 49.21875 43.3125 52.78125 
Q 43.3125 58.59375 39.234375 62.25 
Q 35.15625 65.921875 28.609375 65.921875 
Q 23.96875 65.921875 18.8125 64.3125 
Q 13.671875 62.703125 7.8125 59.421875 
L 7.8125 69.390625 
Q 13.765625 71.78125 18.9375 73 
Q 24.125 74.21875 28.421875 74.21875 
Q 39.75 74.21875 46.484375 68.546875 
Q 53.21875 62.890625 53.21875 53.421875 
Q 53.21875 48.921875 51.53125 44.890625 
Q 49.859375 40.875 45.40625 35.40625 
Q 44.1875 33.984375 37.640625 27.21875 
Q 31.109375 20.453125 19.1875 8.296875 
z
" id="DejaVuSans-50"/>
       <path d="M 10.796875 72.90625 
L 49.515625 72.90625 
L 49.515625 64.59375 
L 19.828125 64.59375 
L 19.828125 46.734375 
Q 21.96875 47.46875 24.109375 47.828125 
Q 26.265625 48.1875 28.421875 48.1875 
Q 40.625 48.1875 47.75 41.5 
Q 54.890625 34.8125 54.890625 23.390625 
Q 54.890625 11.625 47.5625 5.09375 
Q 40.234375 -1.421875 26.90625 -1.421875 
Q 22.3125 -1.421875 17.546875 -0.640625 
Q 12.796875 0.140625 7.71875 1.703125 
L 7.71875 11.625 
Q 12.109375 9.234375 16.796875 8.0625 
Q 21.484375 6.890625 26.703125 6.890625 
Q 35.15625 6.890625 40.078125 11.328125 
Q 45.015625 15.765625 45.015625 23.390625 
Q 45.015625 31 40.078125 35.4375 
Q 35.15625 39.890625 26.703125 39.890625 
Q 22.75 39.890625 18.8125 39.015625 
Q 14.890625 38.140625 10.796875 36.28125 
z
" id="DejaVuSans-53"/>
      </defs>
      <g transform="translate(218.941027 399.078438)scale(0.1 -0.1)">
       <use xlink:href="#DejaVuSans-50"/>
       <use x="63.623047" xlink:href="#DejaVuSans-53"/>
       <use x="127.246094" xlink:href="#DejaVuSans-48"/>
      </g>
     </g>
    </g>
    <g id="xtick_3">
     <g id="line2d_3">
      <g>
       <use style="stroke:#000000;stroke-width:0.8;" x="318.53319" xlink:href="#m81a9238275" y="384.48"/>
      </g>
     </g>
     <g id="text_3">
      <!-- 500 -->
      <g transform="translate(308.98944 399.078438)scale(0.1 -0.1)">
       <use xlink:href="#DejaVuSans-53"/>
       <use x="63.623047" xlink:href="#DejaVuSans-48"/>
       <use x="127.246094" xlink:href="#DejaVuSans-48"/>
      </g>
     </g>
    </g>
    <g id="xtick_4">
     <g id="line2d_4">
      <g>
       <use style="stroke:#000000;stroke-width:0.8;" x="408.581603" xlink:href="#m81a9238275" y="384.48"/>
      </g>
     </g>
     <g id="text_4">
      <!-- 750 -->
      <defs>
       <path d="M 8.203125 72.90625 
L 55.078125 72.90625 
L 55.078125 68.703125 
L 28.609375 0 
L 18.3125 0 
L 43.21875 64.59375 
L 8.203125 64.59375 
z
" id="DejaVuSans-55"/>
      </defs>
      <g transform="translate(399.037853 399.078438)scale(0.1 -0.1)">
       <use xlink:href="#DejaVuSans-55"/>
       <use x="63.623047" xlink:href="#DejaVuSans-53"/>
       <use x="127.246094" xlink:href="#DejaVuSans-48"/>
      </g>
     </g>
    </g>
    <g id="xtick_5">
     <g id="line2d_5">
      <g>
       <use style="stroke:#000000;stroke-width:0.8;" x="498.630016" xlink:href="#m81a9238275" y="384.48"/>
      </g>
     </g>
     <g id="text_5">
      <!-- 1000 -->
      <defs>
       <path d="M 12.40625 8.296875 
L 28.515625 8.296875 
L 28.515625 63.921875 
L 10.984375 60.40625 
L 10.984375 69.390625 
L 28.421875 72.90625 
L 38.28125 72.90625 
L 38.28125 8.296875 
L 54.390625 8.296875 
L 54.390625 0 
L 12.40625 0 
z
" id="DejaVuSans-49"/>
      </defs>
      <g transform="translate(485.905016 399.078438)scale(0.1 -0.1)">
       <use xlink:href="#DejaVuSans-49"/>
       <use x="63.623047" xlink:href="#DejaVuSans-48"/>
       <use x="127.246094" xlink:href="#DejaVuSans-48"/>
       <use x="190.869141" xlink:href="#DejaVuSans-48"/>
      </g>
     </g>
    </g>
    <g id="xtick_6">
     <g id="line2d_6">
      <g>
       <use style="stroke:#000000;stroke-width:0.8;" x="588.678429" xlink:href="#m81a9238275" y="384.48"/>
      </g>
     </g>
     <g id="text_6">
      <!-- 1250 -->
      <g transform="translate(575.953429 399.078438)scale(0.1 -0.1)">
       <use xlink:href="#DejaVuSans-49"/>
       <use x="63.623047" xlink:href="#DejaVuSans-50"/>
       <use x="127.246094" xlink:href="#DejaVuSans-53"/>
       <use x="190.869141" xlink:href="#DejaVuSans-48"/>
      </g>
     </g>
    </g>
    <g id="xtick_7">
     <g id="line2d_7">
      <g>
       <use style="stroke:#000000;stroke-width:0.8;" x="678.726842" xlink:href="#m81a9238275" y="384.48"/>
      </g>
     </g>
     <g id="text_7">
      <!-- 1500 -->
      <g transform="translate(666.001842 399.078438)scale(0.1 -0.1)">
       <use xlink:href="#DejaVuSans-49"/>
       <use x="63.623047" xlink:href="#DejaVuSans-53"/>
       <use x="127.246094" xlink:href="#DejaVuSans-48"/>
       <use x="190.869141" xlink:href="#DejaVuSans-48"/>
      </g>
     </g>
    </g>
    <g id="xtick_8">
     <g id="line2d_8">
      <g>
       <use style="stroke:#000000;stroke-width:0.8;" x="768.775256" xlink:href="#m81a9238275" y="384.48"/>
      </g>
     </g>
     <g id="text_8">
      <!-- 1750 -->
      <g transform="translate(756.050256 399.078438)scale(0.1 -0.1)">
       <use xlink:href="#DejaVuSans-49"/>
       <use x="63.623047" xlink:href="#DejaVuSans-55"/>
       <use x="127.246094" xlink:href="#DejaVuSans-53"/>
       <use x="190.869141" xlink:href="#DejaVuSans-48"/>
      </g>
     </g>
    </g>
    <g id="text_9">
     <!-- Timestamp -->
     <defs>
      <path d="M -0.296875 72.90625 
L 61.375 72.90625 
L 61.375 64.59375 
L 35.5 64.59375 
L 35.5 0 
L 25.59375 0 
L 25.59375 64.59375 
L -0.296875 64.59375 
z
" id="DejaVuSans-84"/>
      <path d="M 9.421875 54.6875 
L 18.40625 54.6875 
L 18.40625 0 
L 9.421875 0 
z
M 9.421875 75.984375 
L 18.40625 75.984375 
L 18.40625 64.59375 
L 9.421875 64.59375 
z
" id="DejaVuSans-105"/>
      <path d="M 52 44.1875 
Q 55.375 50.25 60.0625 53.125 
Q 64.75 56 71.09375 56 
Q 79.640625 56 84.28125 50.015625 
Q 88.921875 44.046875 88.921875 33.015625 
L 88.921875 0 
L 79.890625 0 
L 79.890625 32.71875 
Q 79.890625 40.578125 77.09375 44.375 
Q 74.3125 48.1875 68.609375 48.1875 
Q 61.625 48.1875 57.5625 43.546875 
Q 53.515625 38.921875 53.515625 30.90625 
L 53.515625 0 
L 44.484375 0 
L 44.484375 32.71875 
Q 44.484375 40.625 41.703125 44.40625 
Q 38.921875 48.1875 33.109375 48.1875 
Q 26.21875 48.1875 22.15625 43.53125 
Q 18.109375 38.875 18.109375 30.90625 
L 18.109375 0 
L 9.078125 0 
L 9.078125 54.6875 
L 18.109375 54.6875 
L 18.109375 46.1875 
Q 21.1875 51.21875 25.484375 53.609375 
Q 29.78125 56 35.6875 56 
Q 41.65625 56 45.828125 52.96875 
Q 50 49.953125 52 44.1875 
z
" id="DejaVuSans-109"/>
      <path d="M 56.203125 29.59375 
L 56.203125 25.203125 
L 14.890625 25.203125 
Q 15.484375 15.921875 20.484375 11.0625 
Q 25.484375 6.203125 34.421875 6.203125 
Q 39.59375 6.203125 44.453125 7.46875 
Q 49.3125 8.734375 54.109375 11.28125 
L 54.109375 2.78125 
Q 49.265625 0.734375 44.1875 -0.34375 
Q 39.109375 -1.421875 33.890625 -1.421875 
Q 20.796875 -1.421875 13.15625 6.1875 
Q 5.515625 13.8125 5.515625 26.8125 
Q 5.515625 40.234375 12.765625 48.109375 
Q 20.015625 56 32.328125 56 
Q 43.359375 56 49.78125 48.890625 
Q 56.203125 41.796875 56.203125 29.59375 
z
M 47.21875 32.234375 
Q 47.125 39.59375 43.09375 43.984375 
Q 39.0625 48.390625 32.421875 48.390625 
Q 24.90625 48.390625 20.390625 44.140625 
Q 15.875 39.890625 15.1875 32.171875 
z
" id="DejaVuSans-101"/>
      <path d="M 44.28125 53.078125 
L 44.28125 44.578125 
Q 40.484375 46.53125 36.375 47.5 
Q 32.28125 48.484375 27.875 48.484375 
Q 21.1875 48.484375 17.84375 46.4375 
Q 14.5 44.390625 14.5 40.28125 
Q 14.5 37.15625 16.890625 35.375 
Q 19.28125 33.59375 26.515625 31.984375 
L 29.59375 31.296875 
Q 39.15625 29.25 43.1875 25.515625 
Q 47.21875 21.78125 47.21875 15.09375 
Q 47.21875 7.46875 41.1875 3.015625 
Q 35.15625 -1.421875 24.609375 -1.421875 
Q 20.21875 -1.421875 15.453125 -0.5625 
Q 10.6875 0.296875 5.421875 2 
L 5.421875 11.28125 
Q 10.40625 8.6875 15.234375 7.390625 
Q 20.0625 6.109375 24.8125 6.109375 
Q 31.15625 6.109375 34.5625 8.28125 
Q 37.984375 10.453125 37.984375 14.40625 
Q 37.984375 18.0625 35.515625 20.015625 
Q 33.0625 21.96875 24.703125 23.78125 
L 21.578125 24.515625 
Q 13.234375 26.265625 9.515625 29.90625 
Q 5.8125 33.546875 5.8125 39.890625 
Q 5.8125 47.609375 11.28125 51.796875 
Q 16.75 56 26.8125 56 
Q 31.78125 56 36.171875 55.265625 
Q 40.578125 54.546875 44.28125 53.078125 
z
" id="DejaVuSans-115"/>
      <path d="M 18.3125 70.21875 
L 18.3125 54.6875 
L 36.8125 54.6875 
L 36.8125 47.703125 
L 18.3125 47.703125 
L 18.3125 18.015625 
Q 18.3125 11.328125 20.140625 9.421875 
Q 21.96875 7.515625 27.59375 7.515625 
L 36.8125 7.515625 
L 36.8125 0 
L 27.59375 0 
Q 17.1875 0 13.234375 3.875 
Q 9.28125 7.765625 9.28125 18.015625 
L 9.28125 47.703125 
L 2.6875 47.703125 
L 2.6875 54.6875 
L 9.28125 54.6875 
L 9.28125 70.21875 
z
" id="DejaVuSans-116"/>
      <path d="M 34.28125 27.484375 
Q 23.390625 27.484375 19.1875 25 
Q 14.984375 22.515625 14.984375 16.5 
Q 14.984375 11.71875 18.140625 8.90625 
Q 21.296875 6.109375 26.703125 6.109375 
Q 34.1875 6.109375 38.703125 11.40625 
Q 43.21875 16.703125 43.21875 25.484375 
L 43.21875 27.484375 
z
M 52.203125 31.203125 
L 52.203125 0 
L 43.21875 0 
L 43.21875 8.296875 
Q 40.140625 3.328125 35.546875 0.953125 
Q 30.953125 -1.421875 24.3125 -1.421875 
Q 15.921875 -1.421875 10.953125 3.296875 
Q 6 8.015625 6 15.921875 
Q 6 25.140625 12.171875 29.828125 
Q 18.359375 34.515625 30.609375 34.515625 
L 43.21875 34.515625 
L 43.21875 35.40625 
Q 43.21875 41.609375 39.140625 45 
Q 35.0625 48.390625 27.6875 48.390625 
Q 23 48.390625 18.546875 47.265625 
Q 14.109375 46.140625 10.015625 43.890625 
L 10.015625 52.203125 
Q 14.9375 54.109375 19.578125 55.046875 
Q 24.21875 56 28.609375 56 
Q 40.484375 56 46.34375 49.84375 
Q 52.203125 43.703125 52.203125 31.203125 
z
" id="DejaVuSans-97"/>
      <path d="M 18.109375 8.203125 
L 18.109375 -20.796875 
L 9.078125 -20.796875 
L 9.078125 54.6875 
L 18.109375 54.6875 
L 18.109375 46.390625 
Q 20.953125 51.265625 25.265625 53.625 
Q 29.59375 56 35.59375 56 
Q 45.5625 56 51.78125 48.09375 
Q 58.015625 40.1875 58.015625 27.296875 
Q 58.015625 14.40625 51.78125 6.484375 
Q 45.5625 -1.421875 35.59375 -1.421875 
Q 29.59375 -1.421875 25.265625 0.953125 
Q 20.953125 3.328125 18.109375 8.203125 
z
M 48.6875 27.296875 
Q 48.6875 37.203125 44.609375 42.84375 
Q 40.53125 48.484375 33.40625 48.484375 
Q 26.265625 48.484375 22.1875 42.84375 
Q 18.109375 37.203125 18.109375 27.296875 
Q 18.109375 17.390625 22.1875 11.75 
Q 26.265625 6.109375 33.40625 6.109375 
Q 40.53125 6.109375 44.609375 11.75 
Q 48.6875 17.390625 48.6875 27.296875 
z
" id="DejaVuSans-112"/>
     </defs>
     <g transform="translate(414.739062 412.756563)scale(0.1 -0.1)">
      <use xlink:href="#DejaVuSans-84"/>
      <use x="61.037109" xlink:href="#DejaVuSans-105"/>
      <use x="88.820312" xlink:href="#DejaVuSans-109"/>
      <use x="186.232422" xlink:href="#DejaVuSans-101"/>
      <use x="247.755859" xlink:href="#DejaVuSans-115"/>
      <use x="299.855469" xlink:href="#DejaVuSans-116"/>
      <use x="339.064453" xlink:href="#DejaVuSans-97"/>
      <use x="400.34375" xlink:href="#DejaVuSans-109"/>
      <use x="497.755859" xlink:href="#DejaVuSans-112"/>
     </g>
    </g>
   </g>
   <g id="matplotlib.axis_2">
    <g id="ytick_1">
     <g id="line2d_9">
      <defs>
       <path d="M 0 0 
L -3.5 0 
" id="m5d9b031e22" style="stroke:#000000;stroke-width:0.8;"/>
      </defs>
      <g>
       <use style="stroke:#000000;stroke-width:0.8;" x="108" xlink:href="#m5d9b031e22" y="349.814036"/>
      </g>
     </g>
     <g id="text_10">
      <!-- −1000 -->
      <defs>
       <path d="M 10.59375 35.5 
L 73.1875 35.5 
L 73.1875 27.203125 
L 10.59375 27.203125 
z
" id="DejaVuSans-8722"/>
      </defs>
      <g transform="translate(67.170312 353.613255)scale(0.1 -0.1)">
       <use xlink:href="#DejaVuSans-8722"/>
       <use x="83.789062" xlink:href="#DejaVuSans-49"/>
       <use x="147.412109" xlink:href="#DejaVuSans-48"/>
       <use x="211.035156" xlink:href="#DejaVuSans-48"/>
       <use x="274.658203" xlink:href="#DejaVuSans-48"/>
      </g>
     </g>
    </g>
    <g id="ytick_2">
     <g id="line2d_10">
      <g>
       <use style="stroke:#000000;stroke-width:0.8;" x="108" xlink:href="#m5d9b031e22" y="283.437431"/>
      </g>
     </g>
     <g id="text_11">
      <!-- 0 -->
      <g transform="translate(94.6375 287.23665)scale(0.1 -0.1)">
       <use xlink:href="#DejaVuSans-48"/>
      </g>
     </g>
    </g>
    <g id="ytick_3">
     <g id="line2d_11">
      <g>
       <use style="stroke:#000000;stroke-width:0.8;" x="108" xlink:href="#m5d9b031e22" y="217.060826"/>
      </g>
     </g>
     <g id="text_12">
      <!-- 1000 -->
      <g transform="translate(75.55 220.860044)scale(0.1 -0.1)">
       <use xlink:href="#DejaVuSans-49"/>
       <use x="63.623047" xlink:href="#DejaVuSans-48"/>
       <use x="127.246094" xlink:href="#DejaVuSans-48"/>
       <use x="190.869141" xlink:href="#DejaVuSans-48"/>
      </g>
     </g>
    </g>
    <g id="ytick_4">
     <g id="line2d_12">
      <g>
       <use style="stroke:#000000;stroke-width:0.8;" x="108" xlink:href="#m5d9b031e22" y="150.68422"/>
      </g>
     </g>
     <g id="text_13">
      <!-- 2000 -->
      <g transform="translate(75.55 154.483439)scale(0.1 -0.1)">
       <use xlink:href="#DejaVuSans-50"/>
       <use x="63.623047" xlink:href="#DejaVuSans-48"/>
       <use x="127.246094" xlink:href="#DejaVuSans-48"/>
       <use x="190.869141" xlink:href="#DejaVuSans-48"/>
      </g>
     </g>
    </g>
    <g id="ytick_5">
     <g id="line2d_13">
      <g>
       <use style="stroke:#000000;stroke-width:0.8;" x="108" xlink:href="#m5d9b031e22" y="84.307615"/>
      </g>
     </g>
     <g id="text_14">
      <!-- 3000 -->
      <defs>
       <path d="M 40.578125 39.3125 
Q 47.65625 37.796875 51.625 33 
Q 55.609375 28.21875 55.609375 21.1875 
Q 55.609375 10.40625 48.1875 4.484375 
Q 40.765625 -1.421875 27.09375 -1.421875 
Q 22.515625 -1.421875 17.65625 -0.515625 
Q 12.796875 0.390625 7.625 2.203125 
L 7.625 11.71875 
Q 11.71875 9.328125 16.59375 8.109375 
Q 21.484375 6.890625 26.8125 6.890625 
Q 36.078125 6.890625 40.9375 10.546875 
Q 45.796875 14.203125 45.796875 21.1875 
Q 45.796875 27.640625 41.28125 31.265625 
Q 36.765625 34.90625 28.71875 34.90625 
L 20.21875 34.90625 
L 20.21875 43.015625 
L 29.109375 43.015625 
Q 36.375 43.015625 40.234375 45.921875 
Q 44.09375 48.828125 44.09375 54.296875 
Q 44.09375 59.90625 40.109375 62.90625 
Q 36.140625 65.921875 28.71875 65.921875 
Q 24.65625 65.921875 20.015625 65.03125 
Q 15.375 64.15625 9.8125 62.3125 
L 9.8125 71.09375 
Q 15.4375 72.65625 20.34375 73.4375 
Q 25.25 74.21875 29.59375 74.21875 
Q 40.828125 74.21875 47.359375 69.109375 
Q 53.90625 64.015625 53.90625 55.328125 
Q 53.90625 49.265625 50.4375 45.09375 
Q 46.96875 40.921875 40.578125 39.3125 
z
" id="DejaVuSans-51"/>
      </defs>
      <g transform="translate(75.55 88.106833)scale(0.1 -0.1)">
       <use xlink:href="#DejaVuSans-51"/>
       <use x="63.623047" xlink:href="#DejaVuSans-48"/>
       <use x="127.246094" xlink:href="#DejaVuSans-48"/>
       <use x="190.869141" xlink:href="#DejaVuSans-48"/>
      </g>
     </g>
    </g>
    <g id="text_15">
     <!-- Value -->
     <defs>
      <path d="M 28.609375 0 
L 0.78125 72.90625 
L 11.078125 72.90625 
L 34.1875 11.53125 
L 57.328125 72.90625 
L 67.578125 72.90625 
L 39.796875 0 
z
" id="DejaVuSans-86"/>
      <path d="M 9.421875 75.984375 
L 18.40625 75.984375 
L 18.40625 0 
L 9.421875 0 
z
" id="DejaVuSans-108"/>
      <path d="M 8.5 21.578125 
L 8.5 54.6875 
L 17.484375 54.6875 
L 17.484375 21.921875 
Q 17.484375 14.15625 20.5 10.265625 
Q 23.53125 6.390625 29.59375 6.390625 
Q 36.859375 6.390625 41.078125 11.03125 
Q 45.3125 15.671875 45.3125 23.6875 
L 45.3125 54.6875 
L 54.296875 54.6875 
L 54.296875 0 
L 45.3125 0 
L 45.3125 8.40625 
Q 42.046875 3.421875 37.71875 1 
Q 33.40625 -1.421875 27.6875 -1.421875 
Q 18.265625 -1.421875 13.375 4.4375 
Q 8.5 10.296875 8.5 21.578125 
z
M 31.109375 56 
z
" id="DejaVuSans-117"/>
     </defs>
     <g transform="translate(61.090625 232.273281)rotate(-90)scale(0.1 -0.1)">
      <use xlink:href="#DejaVuSans-86"/>
      <use x="68.298828" xlink:href="#DejaVuSans-97"/>
      <use x="129.578125" xlink:href="#DejaVuSans-108"/>
      <use x="157.361328" xlink:href="#DejaVuSans-117"/>
      <use x="220.740234" xlink:href="#DejaVuSans-101"/>
     </g>
    </g>
   </g>
   <g id="line2d_14">
    <path clip-path="url(#p9add088d0a)" d="M 138.436364 272.237406 
L 138.796557 218.713777 
L 139.156751 232.040428 
L 139.516945 224.111097 
L 139.877138 219.441612 
L 140.237332 224.086109 
L 140.597526 238.260121 
L 140.957719 260.682083 
L 141.317913 301.419474 
L 141.678107 323.688286 
L 142.0383 309.339737 
L 142.398494 274.491981 
L 142.758687 288.843459 
L 143.118881 245.731623 
L 143.839268 232.650398 
L 144.199462 255.272213 
L 144.559656 264.347288 
L 144.919849 320.571894 
L 145.280043 322.616711 
L 145.640237 333.663448 
L 146.00043 355.98418 
L 146.360624 332.551214 
L 147.081011 266.753172 
L 147.441205 221.644147 
L 147.801399 190.65815 
L 148.161592 180.277876 
L 148.521786 195.554795 
L 148.88198 155.178485 
L 149.602367 260.72085 
L 149.962561 272.898451 
L 150.322754 268.091542 
L 150.682948 272.083805 
L 151.043141 273.269455 
L 151.403335 267.520467 
L 151.763529 249.925858 
L 152.123722 226.821761 
L 152.483916 233.099189 
L 152.84411 227.458754 
L 153.204303 266.584332 
L 153.564497 281.282189 
L 153.924691 318.619442 
L 154.284884 328.0224 
L 154.645078 319.152144 
L 155.005272 306.309346 
L 155.365465 287.39313 
L 155.725659 262.3188 
L 156.085853 191.268197 
L 156.446046 188.342376 
L 156.80624 179.175023 
L 157.166434 152.910856 
L 158.247015 255.143498 
L 158.607208 253.838873 
L 158.967402 270.416591 
L 159.327595 258.293494 
L 159.687789 261.548268 
L 160.047983 253.743591 
L 160.408176 226.575447 
L 160.76837 231.870616 
L 161.128564 218.717891 
L 161.488757 250.232765 
L 161.848951 256.955444 
L 162.209145 295.2795 
L 162.929532 349.684677 
L 163.649919 298.447614 
L 164.010113 259.231309 
L 164.7305 239.397751 
L 165.090694 209.699296 
L 165.450888 191.509739 
L 165.811081 190.067813 
L 166.171275 240.230443 
L 166.531469 247.527342 
L 166.891662 250.318094 
L 167.251856 289.504137 
L 167.612049 277.171169 
L 167.972243 304.568677 
L 168.69263 257.722541 
L 169.052824 242.532898 
L 169.413018 241.212181 
L 169.773211 251.212992 
L 170.133405 250.269621 
L 170.493599 296.422799 
L 170.853792 304.018075 
L 171.213986 335.079231 
L 171.57418 339.4325 
L 171.934373 339.51987 
L 172.294567 346.933468 
L 173.014954 282.340314 
L 173.375148 255.409836 
L 173.735342 210.799332 
L 174.095535 194.778367 
L 174.455729 188.68682 
L 174.815923 223.462336 
L 175.176116 234.560388 
L 175.53631 268.355538 
L 175.896503 289.214077 
L 176.616891 309.051692 
L 176.977084 290.856661 
L 177.337278 297.669354 
L 177.697472 269.818022 
L 178.057665 263.312719 
L 178.417859 237.154914 
L 179.138246 266.594521 
L 179.49844 288.673718 
L 179.858634 347.318194 
L 180.218827 359.150234 
L 180.579021 365.731341 
L 180.939215 353.029591 
L 181.659602 287.175416 
L 182.379989 209.806832 
L 182.740183 205.836715 
L 183.100377 215.142933 
L 183.46057 251.534685 
L 183.820764 271.23611 
L 184.180958 280.070917 
L 184.541151 311.38715 
L 184.901345 297.246743 
L 185.261538 324.73305 
L 186.342119 265.292439 
L 186.702313 272.907643 
L 187.4227 232.724589 
L 187.782894 281.357973 
L 188.863475 369.36 
L 189.223669 348.544436 
L 189.583862 355.95885 
L 190.664443 213.482913 
L 191.024637 232.119408 
L 191.384831 204.45141 
L 191.745024 193.170897 
L 192.105218 209.819876 
L 192.465412 231.971689 
L 192.825605 274.189875 
L 193.185799 290.170236 
L 193.545992 284.507354 
L 193.906186 316.438446 
L 194.26638 297.337181 
L 194.626573 252.576681 
L 194.986767 248.649515 
L 195.346961 224.828365 
L 195.707154 221.172697 
L 196.787735 278.611905 
L 197.147929 275.696621 
L 197.508123 329.660011 
L 197.868316 329.869148 
L 198.22851 297.360746 
L 198.588704 295.612889 
L 198.948897 258.680195 
L 199.309091 237.112729 
L 199.669285 175.940291 
L 200.029478 162.966952 
L 200.389672 177.051904 
L 200.749866 176.60978 
L 201.470253 233.772469 
L 201.830446 242.555306 
L 202.19064 244.678212 
L 202.550834 249.249849 
L 202.911027 218.379119 
L 203.271221 246.733053 
L 203.631415 207.403887 
L 203.991608 228.680966 
L 204.351802 181.964196 
L 204.711996 210.419175 
L 205.072189 272.637122 
L 205.432383 268.012571 
L 205.792577 276.625228 
L 206.15277 315.578739 
L 206.512964 301.019413 
L 206.873158 313.10242 
L 207.233351 258.923157 
L 207.593545 240.564407 
L 207.953739 207.590543 
L 208.313932 152.734957 
L 208.674126 149.88177 
L 209.03432 133.757657 
L 209.394513 183.576668 
L 209.754707 189.929069 
L 210.1149 212.997999 
L 210.475094 264.753487 
L 210.835288 247.906646 
L 211.195481 246.320693 
L 211.555675 235.425469 
L 211.915869 235.86017 
L 212.276062 208.440343 
L 212.636256 200.296302 
L 212.99645 198.812568 
L 213.356643 191.882128 
L 213.716837 246.06018 
L 214.077031 238.914801 
L 214.437224 301.934273 
L 214.797418 314.39333 
L 215.157612 284.288326 
L 215.517805 289.080654 
L 215.877999 215.036811 
L 216.238193 213.824544 
L 216.598386 189.116043 
L 216.95858 152.661604 
L 217.678967 131.224829 
L 218.039161 159.866891 
L 218.399354 179.491341 
L 218.759548 222.458781 
L 219.119742 208.743434 
L 219.479935 262.255843 
L 219.840129 255.532098 
L 220.560516 209.383802 
L 220.92071 215.218077 
L 221.280904 175.453052 
L 221.641097 199.156534 
L 222.001291 164.320473 
L 222.721678 294.195451 
L 223.081872 281.756654 
L 223.802259 297.788504 
L 224.162453 286.978241 
L 224.522647 288.947372 
L 224.88284 213.66504 
L 225.243034 202.689672 
L 225.603228 185.24497 
L 225.963421 154.094399 
L 226.323615 159.473916 
L 226.683808 170.682891 
L 227.404196 225.610222 
L 227.764389 246.377718 
L 228.124583 259.309109 
L 228.484777 284.792678 
L 228.84497 231.910765 
L 229.205164 234.976924 
L 229.925551 197.803553 
L 230.285745 215.42259 
L 230.645939 227.363177 
L 231.006132 233.268928 
L 232.086713 314.578198 
L 232.446907 317.483029 
L 232.807101 328.769325 
L 233.527488 226.475063 
L 233.887682 202.504637 
L 234.247875 198.613161 
L 234.968263 183.278131 
L 235.328456 173.977725 
L 236.409037 262.947409 
L 236.769231 265.146417 
L 237.129424 255.358228 
L 237.489618 259.361599 
L 237.849812 226.797363 
L 238.210005 240.854262 
L 238.570199 213.066317 
L 238.930393 214.442344 
L 239.290586 220.936819 
L 239.65078 266.74635 
L 240.010974 296.813319 
L 240.371167 272.861261 
L 240.731361 344.119084 
L 241.091555 300.867412 
L 241.451748 336.786008 
L 241.811942 290.593026 
L 242.172136 215.309629 
L 242.532329 198.339132 
L 242.892523 170.130854 
L 243.252717 175.180662 
L 243.61291 177.9103 
L 245.053685 263.548752 
L 245.413878 304.121936 
L 245.774072 299.103315 
L 246.134266 264.184706 
L 246.494459 260.116492 
L 246.854653 221.244325 
L 247.214847 224.968381 
L 247.57504 201.903345 
L 248.295428 251.819527 
L 248.655621 283.583165 
L 249.015815 286.171328 
L 249.736202 358.193697 
L 250.096396 298.232714 
L 250.45659 292.509596 
L 250.816783 263.436843 
L 251.537171 164.44945 
L 251.897364 169.410284 
L 252.257558 131.248933 
L 252.617751 164.266124 
L 252.977945 211.944627 
L 253.338139 233.477659 
L 253.698332 217.646529 
L 254.058526 264.397775 
L 254.41872 276.64263 
L 254.778913 255.244325 
L 255.139107 219.211628 
L 255.499301 228.167688 
L 255.859494 204.815199 
L 256.219688 199.167959 
L 256.579882 198.487789 
L 256.940075 223.488577 
L 257.300269 268.094134 
L 257.660463 280.760213 
L 258.38085 294.280221 
L 258.741044 276.714205 
L 259.101237 230.696928 
L 259.461431 232.14932 
L 259.821625 174.176358 
L 260.181818 138.808699 
L 260.542012 136.250425 
L 261.262399 152.282196 
L 261.622593 189.063282 
L 262.703174 254.399498 
L 263.063367 219.118479 
L 263.423561 217.029629 
L 263.783755 212.229348 
L 264.143948 197.498778 
L 264.504142 144.420485 
L 264.864336 188.918829 
L 265.224529 194.475366 
L 265.584723 186.513207 
L 265.944917 207.452695 
L 266.30511 265.125798 
L 266.665304 257.539351 
L 267.025498 252.498654 
L 267.385691 241.069321 
L 267.745885 214.343339 
L 268.106079 198.542289 
L 268.826466 122.988365 
L 269.186659 98.689664 
L 269.546853 114.909486 
L 269.907047 148.085909 
L 270.26724 135.005702 
L 270.627434 143.729457 
L 270.987628 200.331344 
L 271.347821 229.281223 
L 271.708015 234.39874 
L 272.788596 148.127829 
L 273.14879 139.257952 
L 273.508983 169.834362 
L 273.869177 168.247041 
L 274.229371 167.559109 
L 274.589564 219.854767 
L 274.949758 229.255259 
L 275.309952 268.258493 
L 275.670145 245.866983 
L 276.030339 208.185722 
L 276.390533 220.811409 
L 277.471114 110.610235 
L 277.831307 126.247295 
L 278.191501 88.080114 
L 278.551694 137.510336 
L 278.911888 132.036283 
L 279.632275 217.269996 
L 279.992469 231.431717 
L 280.352663 196.264008 
L 280.712856 207.249654 
L 281.07305 178.318774 
L 281.433244 163.318726 
L 281.793437 162.828562 
L 282.153631 130.927249 
L 282.874018 190.091458 
L 283.594406 223.728007 
L 283.954599 246.540126 
L 284.314793 223.584479 
L 284.674987 242.034724 
L 285.03518 219.888107 
L 285.395374 217.911846 
L 285.755568 143.94575 
L 286.115761 115.830572 
L 286.475955 137.475989 
L 286.836148 124.217319 
L 287.196342 161.572703 
L 288.637117 237.111941 
L 288.99731 239.592326 
L 289.357504 202.708687 
L 289.717698 200.917757 
L 290.438085 194.491915 
L 290.798279 194.427497 
L 291.158472 198.584105 
L 291.87886 202.011873 
L 292.239053 206.824426 
L 292.599247 190.305036 
L 292.959441 206.660793 
L 293.319634 204.12967 
L 293.679828 203.082801 
L 294.040022 195.837982 
L 294.400215 194.763465 
L 294.760409 189.000135 
L 295.120602 191.883713 
L 295.480796 191.721956 
L 295.84099 190.661744 
L 296.201183 195.202801 
L 296.561377 195.550591 
L 297.281764 200.990248 
L 298.002152 197.69273 
L 298.362345 197.431319 
L 298.722539 194.681015 
L 299.082733 195.876048 
L 299.442926 193.596489 
L 299.80312 193.790696 
L 300.163314 198.948581 
L 300.523507 199.953992 
L 300.883701 199.35868 
L 301.243895 204.566058 
L 301.964282 201.967192 
L 302.324476 199.084392 
L 303.044863 191.526645 
L 303.405056 189.56056 
L 303.76525 186.921676 
L 304.125444 185.226782 
L 304.845831 191.554276 
L 305.206025 193.361096 
L 305.566218 196.125947 
L 305.926412 197.439139 
L 306.286606 195.730147 
L 306.646799 196.816464 
L 307.367187 189.740064 
L 307.72738 189.986874 
L 308.087574 190.965545 
L 308.447768 188.423806 
L 308.807961 193.559202 
L 309.168155 194.31396 
L 309.528349 197.189428 
L 309.888542 197.947976 
L 310.248736 196.216252 
L 310.60893 193.813196 
L 310.969123 193.970282 
L 311.329317 191.432501 
L 311.68951 185.585948 
L 312.049704 182.722512 
L 312.409898 182.117439 
L 312.770091 182.40828 
L 313.130285 182.371146 
L 313.490479 182.801009 
L 313.850672 188.499444 
L 314.210866 189.91999 
L 314.57106 189.517129 
L 314.931253 188.666339 
L 315.291447 189.049075 
L 316.011834 183.019677 
L 316.372028 183.317001 
L 316.732222 181.588653 
L 317.812803 189.506611 
L 318.172996 189.485228 
L 318.53319 193.216362 
L 318.893384 189.53877 
L 319.253577 190.984978 
L 319.613771 186.893025 
L 319.973964 185.636587 
L 320.334158 182.57584 
L 320.694352 175.85944 
L 321.054545 175.810769 
L 321.414739 172.746161 
L 321.774933 176.843928 
L 323.575901 185.490388 
L 323.936095 179.71428 
L 324.296288 179.363581 
L 324.656482 175.773071 
L 325.016676 175.495085 
L 325.376869 174.38625 
L 325.737063 175.218861 
L 326.097257 178.147916 
L 326.45745 182.073651 
L 326.817644 183.694453 
L 327.177838 186.432558 
L 327.538031 185.070346 
L 327.898225 182.15859 
L 328.258419 180.745714 
L 329.338999 168.881412 
L 329.699193 171.260545 
L 330.059387 168.95061 
L 330.41958 170.152307 
L 331.139968 174.131984 
L 331.500161 175.967026 
L 331.860355 178.835903 
L 332.580742 176.544651 
L 333.30113 170.313631 
L 333.661323 170.18707 
L 334.021517 168.725776 
L 334.741904 172.415406 
L 335.462292 181.835907 
L 335.822485 176.914636 
L 336.182679 178.642418 
L 336.542873 176.369291 
L 336.903066 174.92707 
L 337.26326 172.820239 
L 337.623453 166.34916 
L 338.343841 162.453542 
L 338.704034 160.696922 
L 339.064228 163.824736 
L 339.784615 167.525431 
L 340.144809 171.800227 
L 340.505003 171.645307 
L 340.865196 171.073548 
L 341.22539 169.635793 
L 341.585584 168.872457 
L 341.945777 166.705185 
L 342.305971 166.986665 
L 342.666165 163.793876 
L 343.746746 173.112341 
L 344.106939 171.0768 
L 344.467133 176.709789 
L 344.827327 178.335121 
L 345.907907 165.986002 
L 346.268101 163.718138 
L 346.628295 160.329009 
L 346.988488 159.740965 
L 347.348682 158.288916 
L 348.429263 168.627804 
L 348.789457 166.695128 
L 349.14965 166.979319 
L 349.509844 169.062254 
L 349.870038 166.453625 
L 350.230231 168.128443 
L 350.950619 164.226554 
L 351.310812 164.02368 
L 351.671006 162.367963 
L 352.391393 169.605626 
L 352.751587 172.636204 
L 353.111781 171.682714 
L 353.471974 175.348063 
L 354.552555 163.234809 
L 354.912749 161.169715 
L 355.272942 157.52354 
L 355.633136 155.376406 
L 355.99333 158.858361 
L 356.353523 160.678965 
L 356.713717 159.904472 
L 357.434104 166.795623 
L 357.794298 166.784886 
L 358.154492 167.86944 
L 358.514685 164.835625 
L 359.235073 161.807541 
L 359.595266 159.973191 
L 359.95546 160.518099 
L 360.315654 159.542199 
L 360.675847 165.300985 
L 361.036041 164.272744 
L 361.396235 171.834285 
L 361.756428 167.525293 
L 362.116622 170.385148 
L 362.476815 168.598517 
L 362.837009 164.129002 
L 363.197203 162.920049 
L 363.557396 156.987483 
L 363.91759 154.592001 
L 364.637977 153.190932 
L 364.998171 156.858184 
L 365.358365 172.152719 
L 365.718558 178.298651 
L 366.078752 84.222833 
L 366.438946 185.824898 
L 366.799139 190.682793 
L 367.159333 186.632044 
L 367.519527 179.321056 
L 367.87972 159.965545 
L 368.239914 164.131656 
L 368.600108 160.894715 
L 368.960301 154.521065 
L 369.320495 180.025664 
L 369.680689 183.236197 
L 370.040882 204.435308 
L 370.401076 212.880447 
L 370.761269 208.474118 
L 371.121463 200.588959 
L 371.481657 197.758025 
L 371.84185 158.218788 
L 372.202044 157.156157 
L 372.922431 107.158759 
L 373.282625 123.383066 
L 373.642819 131.031483 
L 374.003012 124.610815 
L 374.363206 153.307732 
L 374.7234 197.572088 
L 375.083593 171.500013 
L 375.443787 177.560419 
L 375.803981 172.97962 
L 376.164174 161.017914 
L 376.524368 137.204116 
L 376.884562 133.278283 
L 377.244755 139.686607 
L 377.604949 158.400463 
L 377.965143 154.480999 
L 378.325336 170.869369 
L 378.68553 179.947552 
L 379.045724 206.674269 
L 379.405917 204.851332 
L 379.766111 183.845688 
L 380.486498 153.535331 
L 380.846692 135.851129 
L 381.206885 95.692044 
L 381.927273 115.015233 
L 382.287466 121.035706 
L 382.64766 122.058201 
L 383.007854 145.346789 
L 383.368047 142.393098 
L 383.728241 156.804519 
L 384.088435 161.895085 
L 384.448628 164.410739 
L 385.169016 117.968252 
L 385.889403 125.125392 
L 386.249597 133.668568 
L 386.969984 166.516597 
L 387.330178 181.707152 
L 387.690371 182.252271 
L 388.050565 176.138942 
L 388.410758 199.559858 
L 389.131146 127.708817 
L 389.851533 101.112472 
L 390.211727 99.324601 
L 390.57192 93.62816 
L 391.292308 116.826785 
L 391.652501 128.474433 
L 392.012695 162.042544 
L 392.372889 144.74706 
L 392.733082 156.620849 
L 393.093276 135.77813 
L 393.45347 124.571327 
L 393.813663 127.495741 
L 394.173857 119.997188 
L 394.534051 119.468592 
L 394.894244 125.841883 
L 395.254438 136.434929 
L 395.974825 176.779887 
L 396.335019 168.228891 
L 396.695212 184.314943 
L 397.4156 139.269962 
L 397.775793 145.812004 
L 398.135987 117.730505 
L 398.496181 66.96 
L 398.856374 85.910949 
L 399.216568 92.845271 
L 399.576762 81.922637 
L 400.297149 138.169357 
L 400.657343 125.594364 
L 401.017536 155.404287 
L 401.37773 147.110113 
L 401.737924 143.223567 
L 402.458311 131.541369 
L 402.818505 119.251366 
L 403.178698 121.135943 
L 403.538892 123.921479 
L 403.899086 130.825522 
L 404.259279 161.109942 
L 404.619473 161.220023 
L 404.979666 193.776715 
L 405.33986 196.056672 
L 405.700054 187.760125 
L 406.060247 155.360869 
L 406.420441 147.030094 
L 407.140828 87.781137 
L 407.501022 85.467693 
L 407.861216 88.767701 
L 408.221409 95.025865 
L 408.581603 135.446196 
L 408.941797 130.13116 
L 409.662184 157.076927 
L 410.022378 154.38822 
L 410.382571 146.367011 
L 410.742765 149.704592 
L 411.102959 125.141525 
L 411.463152 131.591624 
L 411.823346 134.042798 
L 412.18354 125.302518 
L 412.543733 160.469796 
L 412.903927 148.891041 
L 413.26412 188.202759 
L 413.624314 192.308102 
L 413.984508 182.10299 
L 414.344701 167.752632 
L 414.704895 167.492475 
L 415.065089 153.654776 
L 415.425282 117.968004 
L 415.785476 107.508047 
L 416.14567 103.089563 
L 416.505863 101.925291 
L 416.866057 117.483774 
L 417.226251 127.750826 
L 417.586444 142.476974 
L 417.946638 168.788226 
L 418.306832 168.913101 
L 418.667025 157.655946 
L 419.027219 151.05527 
L 419.387413 155.07167 
L 419.747606 143.87198 
L 420.1078 128.620664 
L 420.467994 135.596868 
L 420.828187 136.299595 
L 421.188381 144.076076 
L 421.908768 198.934476 
L 422.268962 188.331036 
L 422.629155 199.465713 
L 423.709736 156.795326 
L 424.06993 132.758348 
L 424.430124 116.696783 
L 424.790317 107.04131 
L 425.150511 101.342509 
L 425.510705 110.309418 
L 425.870898 149.059032 
L 426.231092 151.669693 
L 426.591286 168.8158 
L 426.951479 167.632861 
L 427.311673 151.288737 
L 427.671867 159.227245 
L 428.03206 141.102861 
L 428.392254 143.572708 
L 428.752448 132.747615 
L 429.112641 115.305175 
L 429.472835 135.390338 
L 429.833029 140.041848 
L 430.193222 168.222956 
L 430.553416 178.366301 
L 430.913609 195.369803 
L 431.273803 198.224915 
L 431.99419 161.750006 
L 432.354384 157.810957 
L 432.714578 114.989007 
L 433.074771 105.683031 
L 433.434965 103.889759 
L 433.795159 110.942959 
L 434.155352 100.965082 
L 434.515546 118.507363 
L 434.87574 143.090406 
L 435.235933 145.161237 
L 435.956321 155.457603 
L 436.676708 124.745262 
L 437.036902 122.845806 
L 437.397095 109.242926 
L 437.757289 128.378458 
L 438.117483 134.153364 
L 438.477676 138.088208 
L 438.83787 145.411304 
L 439.558257 189.580092 
L 439.918451 178.934028 
L 440.278644 176.991766 
L 440.999032 129.301595 
L 441.719419 114.700678 
L 442.079613 109.989518 
L 442.439806 109.06937 
L 442.8 117.435997 
L 443.160194 113.343051 
L 443.520387 122.371667 
L 443.880581 126.807797 
L 444.240775 132.761324 
L 444.600968 134.673057 
L 444.961162 134.954173 
L 445.321356 129.651464 
L 446.041743 110.546104 
L 446.401937 111.970767 
L 447.122324 131.154141 
L 447.482517 137.368279 
L 447.842711 132.249467 
L 448.202905 145.250093 
L 448.563098 142.427389 
L 448.923292 141.268137 
L 449.283486 134.836366 
L 449.643679 110.242897 
L 450.003873 112.965593 
L 450.364067 102.854276 
L 450.72426 99.109376 
L 451.084454 93.096674 
L 451.444648 100.602856 
L 451.804841 114.340769 
L 452.525229 126.431416 
L 452.885422 122.286058 
L 453.245616 126.567298 
L 453.60581 123.114382 
L 453.966003 109.620947 
L 454.326197 104.030186 
L 455.046584 112.819087 
L 455.406778 121.499087 
L 455.766971 120.42738 
L 456.127165 123.170028 
L 456.487359 131.771922 
L 456.847552 136.988856 
L 457.207746 134.597903 
L 457.56794 129.662574 
L 457.928133 122.367402 
L 458.288327 111.991882 
L 458.648521 109.188307 
L 459.008714 89.346207 
L 459.729102 100.987669 
L 460.089295 96.132982 
L 460.449489 104.412366 
L 460.809683 121.167509 
L 461.169876 116.846897 
L 461.53007 126.707954 
L 461.890264 126.193652 
L 462.250457 113.031651 
L 462.610651 116.324419 
L 462.970845 101.638949 
L 463.331038 110.245908 
L 463.691232 103.501706 
L 464.051425 110.578334 
L 464.411619 123.95359 
L 464.771813 127.689748 
L 465.132006 128.004058 
L 465.4922 140.186666 
L 465.852394 136.01491 
L 466.212587 134.299791 
L 466.572781 131.05507 
L 466.932975 115.207677 
L 468.013556 89.537032 
L 468.733943 95.424442 
L 469.45433 116.21989 
L 469.814524 120.515438 
L 470.174718 126.829793 
L 470.534911 129.570148 
L 470.895105 114.977878 
L 471.255299 120.648288 
L 471.975686 109.47302 
L 472.33588 112.255651 
L 472.696073 118.300327 
L 473.056267 116.363398 
L 473.41646 131.409435 
L 473.776654 139.998223 
L 474.136848 138.183788 
L 474.497041 135.786144 
L 474.857235 130.952294 
L 475.217429 130.557496 
L 475.577622 127.135401 
L 475.937816 108.948895 
L 476.29801 106.181483 
L 476.658203 105.597821 
L 477.018397 94.600813 
L 477.378591 102.495099 
L 477.738784 105.341227 
L 478.098978 122.179988 
L 478.459172 125.269117 
L 478.819365 133.585747 
L 479.179559 133.818773 
L 479.539753 121.964167 
L 479.899946 133.288365 
L 480.26014 114.315389 
L 480.620334 115.510936 
L 480.980527 104.144148 
L 481.340721 122.413531 
L 482.061108 135.792584 
L 482.421302 146.163732 
L 482.781495 137.83637 
L 483.141689 143.598387 
L 483.862076 132.245982 
L 484.22227 121.025171 
L 484.582464 114.146981 
L 485.302851 107.536539 
L 485.663045 96.14415 
L 486.383432 115.045908 
L 486.743626 125.601595 
L 487.103819 127.610588 
L 487.464013 138.073151 
L 487.824207 130.923611 
L 488.544594 122.145247 
L 488.904788 109.333734 
L 489.264981 112.879742 
L 489.625175 106.504889 
L 489.985368 115.753506 
L 490.345562 120.621219 
L 491.065949 134.026151 
L 491.426143 138.842928 
L 491.786337 136.407806 
L 492.14653 135.669485 
L 492.506724 123.46524 
L 492.866918 115.099431 
L 493.227111 99.669812 
L 493.587305 101.216749 
L 493.947499 81.728347 
L 494.307692 97.96762 
L 494.667886 90.21003 
L 495.02808 114.867174 
L 495.388273 116.774876 
L 495.748467 115.276034 
L 496.108661 115.095356 
L 496.468854 127.978976 
L 496.829048 109.203725 
L 497.189242 103.913979 
L 497.549435 110.615962 
L 498.269822 103.745749 
L 498.630016 107.929158 
L 498.99021 123.5518 
L 499.350403 122.425742 
L 499.710597 132.174252 
L 500.070791 129.739933 
L 500.430984 130.931931 
L 500.791178 132.918844 
L 501.151372 121.266845 
L 501.511565 103.032142 
L 502.231953 82.005242 
L 502.592146 85.104416 
L 502.95234 81.669247 
L 503.312534 81.252867 
L 503.672727 99.994617 
L 504.032921 97.38617 
L 504.393115 113.095165 
L 504.753308 111.647198 
L 505.113502 113.144102 
L 505.473696 104.061784 
L 505.833889 103.17687 
L 506.194083 93.838589 
L 506.554276 95.479203 
L 506.91447 86.980885 
L 507.274664 90.616215 
L 507.634857 104.642795 
L 507.995051 108.450064 
L 508.355245 121.150127 
L 508.715438 121.07236 
L 509.075632 120.222065 
L 509.435826 118.228208 
L 509.796019 111.467197 
L 510.516407 86.912537 
L 510.8766 79.10219 
L 511.236794 76.214386 
L 511.596988 81.769504 
L 511.957181 73.32409 
L 512.317375 87.024678 
L 512.677569 94.683396 
L 513.037762 98.508146 
L 513.397956 110.652172 
L 513.75815 101.68989 
L 514.118343 101.18556 
L 514.478537 91.384589 
L 514.838731 95.869224 
L 515.198924 87.87165 
L 515.559118 86.299802 
L 515.919311 96.317154 
L 516.279505 95.951874 
L 516.639699 101.46576 
L 516.999892 105.235308 
L 517.360086 107.385299 
L 517.72028 107.701522 
L 518.080473 103.279936 
L 518.440667 104.348112 
L 519.161054 95.084508 
L 519.521248 95.095866 
L 519.881442 92.44118 
L 520.241635 96.854483 
L 520.601829 95.701058 
L 520.962023 99.109665 
L 521.322216 101.29488 
L 521.68241 101.03424 
L 522.042604 103.573732 
L 522.402797 104.796044 
L 522.762991 103.856218 
L 523.123185 102.418319 
L 523.483378 99.55487 
L 523.843572 101.944798 
L 524.203765 99.229452 
L 524.563959 101.970788 
L 524.924153 101.577681 
L 525.64454 108.565479 
L 526.364927 111.267411 
L 526.725121 110.68371 
L 527.805702 101.467386 
L 528.165896 99.2738 
L 528.526089 96.202583 
L 528.886283 97.623349 
L 529.246477 96.446726 
L 530.327058 107.735574 
L 530.687251 109.173298 
L 531.047445 104.612824 
L 531.407639 106.862175 
L 531.767832 106.980189 
L 532.128026 103.143331 
L 532.488219 104.203412 
L 532.848413 101.463397 
L 533.5688 106.659863 
L 533.928994 110.7113 
L 534.289188 111.453666 
L 534.649381 112.861864 
L 535.009575 111.576913 
L 535.369769 113.157096 
L 537.170737 97.442537 
L 537.530931 101.469354 
L 537.891124 103.983651 
L 538.251318 103.245186 
L 538.611512 109.175544 
L 539.331899 112.949057 
L 540.052286 108.095316 
L 540.41248 107.960026 
L 540.772673 108.807312 
L 541.493061 107.46822 
L 541.853254 107.915062 
L 542.213448 109.174292 
L 542.573642 113.604716 
L 543.294029 117.876892 
L 543.654223 117.646481 
L 544.014416 117.039104 
L 544.734804 107.729733 
L 545.094997 106.075656 
L 545.455191 105.455006 
L 545.815385 100.350347 
L 546.175578 105.664159 
L 546.535772 103.151811 
L 546.895966 107.750506 
L 547.256159 108.236886 
L 547.616353 113.646 
L 547.976547 111.312939 
L 548.33674 112.480084 
L 548.696934 113.005703 
L 549.057127 125.038362 
L 549.417321 110.522293 
L 549.777515 107.813646 
L 550.137708 110.615642 
L 550.497902 111.021243 
L 550.858096 112.440351 
L 551.218289 113.059692 
L 551.578483 115.823428 
L 552.29887 117.369553 
L 553.019258 114.295285 
L 553.379451 112.88961 
L 553.739645 103.879289 
L 554.099839 105.19949 
L 554.460032 103.165454 
L 554.820226 103.723926 
L 555.18042 103.707117 
L 555.540613 106.772184 
L 556.261001 115.376584 
L 556.621194 115.98584 
L 556.981388 112.693402 
L 557.341581 113.564587 
L 557.701775 112.002925 
L 558.061969 107.195863 
L 558.422162 106.945921 
L 558.782356 105.624542 
L 559.14255 111.101244 
L 559.502743 110.761519 
L 559.862937 116.546451 
L 560.223131 115.639231 
L 560.943518 119.227488 
L 561.303712 117.780391 
L 562.024099 109.573361 
L 562.384293 108.473823 
L 563.10468 104.571596 
L 563.464874 103.300142 
L 563.825067 106.572969 
L 564.185261 106.974914 
L 564.545455 110.773632 
L 564.905648 112.361737 
L 565.265842 111.692445 
L 565.626036 116.143326 
L 565.986229 111.656546 
L 566.346423 109.545813 
L 566.706616 106.684098 
L 567.06681 109.571551 
L 567.427004 108.000081 
L 567.787197 104.548803 
L 568.147391 111.052025 
L 568.867778 116.62296 
L 569.227972 118.428726 
L 569.588166 114.769741 
L 569.948359 114.711601 
L 570.308553 114.173159 
L 570.668747 110.576439 
L 571.02894 104.96969 
L 571.389134 102.699705 
L 571.749328 103.959956 
L 572.109521 104.558865 
L 572.829909 106.340977 
L 573.190102 108.59474 
L 573.550296 114.65173 
L 573.91049 113.130532 
L 574.270683 113.969329 
L 575.351264 109.588723 
L 575.711458 107.136933 
L 576.071651 106.59756 
L 576.431845 106.956322 
L 576.792039 111.316904 
L 577.152232 113.083138 
L 577.512426 118.610064 
L 578.232813 120.014116 
L 578.953201 115.574049 
L 579.313394 109.991612 
L 579.673588 107.507708 
L 580.033782 107.302264 
L 580.393975 104.050182 
L 580.754169 102.320531 
L 581.114363 104.797671 
L 581.474556 110.681574 
L 581.83475 110.130263 
L 582.555137 117.128243 
L 582.915331 113.802307 
L 583.275524 114.871659 
L 583.635718 112.150276 
L 583.995912 113.527566 
L 584.356105 109.32246 
L 584.716299 109.109936 
L 585.076493 110.945495 
L 585.79688 117.518903 
L 586.157074 118.695143 
L 586.517267 121.336373 
L 586.877461 118.931593 
L 587.237655 119.52331 
L 587.597848 118.489417 
L 587.958042 115.078657 
L 588.318236 113.847449 
L 589.038623 106.335066 
L 589.398817 105.171725 
L 589.75901 108.698621 
L 590.119204 115.826779 
L 590.479398 113.780701 
L 590.839591 120.297758 
L 591.199785 117.725684 
L 591.559978 118.939326 
L 591.920172 120.584739 
L 592.280366 116.34801 
L 593.000753 111.031142 
L 593.360947 113.932409 
L 593.72114 115.89063 
L 594.081334 117.012415 
L 594.801721 123.114294 
L 595.161915 121.478649 
L 595.522109 125.625113 
L 596.242496 122.098104 
L 596.60269 118.238678 
L 596.962883 116.725922 
L 597.683271 108.685359 
L 598.403658 114.364876 
L 598.763852 116.028145 
L 599.124045 116.148621 
L 599.484239 121.184267 
L 599.844432 122.443399 
L 600.204626 122.41391 
L 600.56482 122.759268 
L 600.925013 119.486238 
L 601.285207 117.259766 
L 601.645401 117.886588 
L 602.005594 117.589759 
L 602.365788 121.01717 
L 602.725982 123.327413 
L 603.086175 126.919754 
L 603.446369 125.74267 
L 603.806563 127.854842 
L 604.166756 128.192767 
L 604.52695 125.336916 
L 604.887144 125.229249 
L 606.327918 112.333494 
L 606.688112 113.849006 
L 607.048306 119.190966 
L 607.408499 117.761091 
L 607.768693 120.305282 
L 608.48908 122.112272 
L 608.849274 125.541571 
L 609.209467 124.0937 
L 609.929855 119.919585 
L 610.650242 117.693619 
L 611.010436 121.583295 
L 611.370629 121.577103 
L 612.091017 129.393259 
L 612.45121 126.563534 
L 612.811404 130.441123 
L 613.171598 130.01838 
L 613.891985 118.930848 
L 614.252179 118.199042 
L 614.612372 113.36622 
L 614.972566 116.020127 
L 615.33276 115.005666 
L 615.692953 116.068021 
L 616.053147 117.62117 
L 616.773534 125.742229 
L 617.133728 124.476182 
L 617.493921 126.52739 
L 617.854115 124.215666 
L 618.214309 120.747895 
L 618.574502 119.248402 
L 618.934696 120.105154 
L 619.29489 119.404122 
L 619.655083 120.14197 
L 620.015277 121.332727 
L 620.375471 126.557329 
L 620.735664 127.504742 
L 621.095858 128.820066 
L 621.456052 129.042782 
L 621.816245 130.245482 
L 622.176439 123.314375 
L 622.896826 118.4848 
L 623.25702 114.806633 
L 623.617214 117.205185 
L 623.977407 116.799503 
L 624.337601 114.628186 
L 624.697795 117.201687 
L 625.057988 121.817036 
L 625.418182 124.132114 
L 625.778375 122.160024 
L 626.138569 123.447855 
L 626.858956 121.327998 
L 627.21915 120.606498 
L 627.579344 118.808247 
L 627.939537 115.808871 
L 628.659925 122.532389 
L 629.020118 124.873186 
L 629.380312 128.85756 
L 629.740506 130.581065 
L 630.100699 128.497483 
L 630.460893 129.058977 
L 631.901668 115.883494 
L 632.261861 115.986655 
L 632.622055 114.556196 
L 632.982249 116.211639 
L 633.342442 120.972644 
L 633.702636 121.880746 
L 634.062829 120.921081 
L 634.423023 124.048722 
L 634.783217 124.544584 
L 635.14341 123.365204 
L 635.503604 122.848047 
L 635.863798 118.180586 
L 636.223991 120.519815 
L 636.584185 118.343089 
L 637.304572 125.625669 
L 637.664766 124.75684 
L 638.02496 128.772425 
L 638.385153 127.631408 
L 638.745347 129.380205 
L 639.105541 129.306046 
L 640.546315 115.374865 
L 640.906509 116.039538 
L 641.266703 115.070956 
L 641.626896 116.424265 
L 642.707477 124.847505 
L 643.427864 127.858901 
L 643.788058 127.527225 
L 644.508445 120.165477 
L 645.228833 119.774587 
L 645.589026 120.42012 
L 645.94922 124.114524 
L 646.309414 124.433271 
L 646.669607 131.180442 
L 647.029801 134.115789 
L 647.389995 131.316018 
L 647.750188 130.388485 
L 648.110382 131.342364 
L 648.830769 120.660805 
L 649.190963 120.593339 
L 649.551157 118.131457 
L 649.91135 119.758852 
L 650.271544 122.103459 
L 650.631737 123.443024 
L 650.991931 126.54601 
L 651.352125 132.242127 
L 651.712318 129.581897 
L 652.072512 125.590977 
L 652.432706 129.896662 
L 652.792899 125.406149 
L 653.153093 125.072986 
L 653.513287 125.454221 
L 653.87348 122.470185 
L 654.233674 125.611476 
L 654.593868 127.544316 
L 654.954061 130.701686 
L 655.314255 136.090797 
L 655.674449 136.804765 
L 656.034642 136.767062 
L 656.394836 134.959071 
L 656.75503 132.308809 
L 657.115223 130.728407 
L 657.475417 126.962309 
L 658.555998 120.584504 
L 659.276385 124.457647 
L 659.636579 131.453261 
L 659.996772 133.99852 
L 660.356966 134.193719 
L 660.71716 133.048132 
L 661.077353 135.190504 
L 661.437547 130.394459 
L 661.797741 129.617715 
L 662.157934 126.15572 
L 662.878322 130.97671 
L 663.238515 131.98568 
L 663.598709 136.795979 
L 663.958903 139.021702 
L 664.319096 140.178071 
L 664.67929 140.367777 
L 665.039484 135.896668 
L 665.759871 130.953183 
L 666.120065 131.060889 
L 666.840452 123.257956 
L 667.200646 126.632224 
L 667.560839 125.985666 
L 668.281226 131.492792 
L 668.64142 136.866243 
L 669.001614 136.505387 
L 669.361807 136.30279 
L 669.722001 133.947464 
L 670.082195 133.433571 
L 671.162776 128.256575 
L 671.522969 130.798276 
L 672.243357 139.826475 
L 672.60355 140.872305 
L 672.963744 139.152821 
L 673.323938 139.370143 
L 673.684131 138.856857 
L 674.044325 133.729725 
L 674.404519 134.563183 
L 674.764712 126.179954 
L 675.124906 126.442928 
L 675.4851 123.93392 
L 675.845293 126.319882 
L 676.205487 126.010541 
L 676.56568 131.489534 
L 676.925874 130.702587 
L 678.006455 138.348527 
L 678.366649 136.259468 
L 678.726842 131.49524 
L 679.087036 131.491467 
L 679.44723 129.786744 
L 679.807423 131.199157 
L 680.167617 131.26765 
L 680.527811 134.225284 
L 680.888004 136.047212 
L 681.248198 139.847903 
L 681.608392 141.16366 
L 681.968585 141.877898 
L 682.328779 137.515138 
L 682.688973 135.776403 
L 683.049166 133.185743 
L 683.40936 129.292344 
L 683.769554 128.802943 
L 684.129747 124.762812 
L 684.489941 128.084322 
L 684.850134 127.923634 
L 685.210328 128.81578 
L 685.570522 132.191009 
L 685.930715 134.397675 
L 686.651103 137.040888 
L 687.011296 133.062629 
L 687.731684 133.169172 
L 688.091877 127.906097 
L 688.452071 131.996582 
L 688.812265 131.526868 
L 689.172458 135.777958 
L 689.532652 133.285372 
L 689.892846 139.537875 
L 690.253039 139.703793 
L 690.613233 139.628515 
L 690.973427 139.426039 
L 691.33362 135.610152 
L 691.693814 133.862519 
L 692.414201 126.648338 
L 692.774395 124.178563 
L 693.494782 125.663375 
L 693.854976 126.088748 
L 694.215169 132.288421 
L 694.575363 132.690689 
L 694.935557 132.760538 
L 695.29575 139.223624 
L 695.655944 134.426622 
L 696.016138 131.812805 
L 696.376331 132.369218 
L 696.736525 128.10763 
L 697.096719 131.394391 
L 697.456912 131.879462 
L 697.817106 133.934904 
L 698.1773 136.968425 
L 698.897687 140.971723 
L 699.257881 141.964322 
L 699.618074 137.646291 
L 699.978268 135.395348 
L 700.338462 133.981502 
L 700.698655 134.880009 
L 701.058849 127.283524 
L 701.419042 127.958319 
L 701.779236 126.478618 
L 702.13943 130.250129 
L 702.499623 129.620722 
L 702.859817 134.629134 
L 703.220011 135.122877 
L 703.580204 138.126001 
L 703.940398 137.577491 
L 704.300592 137.295598 
L 704.660785 136.852137 
L 705.381173 131.45165 
L 705.741366 132.986952 
L 706.10156 131.054592 
L 706.461754 133.053393 
L 707.542335 145.243267 
L 707.902528 145.009916 
L 708.262722 142.571873 
L 708.622916 143.449488 
L 708.983109 133.748915 
L 709.343303 130.797416 
L 709.703497 131.703144 
L 710.06369 127.991351 
L 710.423884 129.523312 
L 710.784077 131.814221 
L 711.144271 135.442241 
L 711.504465 136.334328 
L 711.864658 136.034925 
L 712.224852 136.189216 
L 712.585046 141.77674 
L 712.945239 140.965545 
L 713.305433 142.155643 
L 713.665627 140.147673 
L 714.02582 136.218154 
L 714.386014 135.627693 
L 714.746208 135.76048 
L 715.106401 140.596253 
L 715.826789 146.258321 
L 716.186982 147.792163 
L 716.547176 148.720714 
L 716.90737 144.643722 
L 717.267563 145.444286 
L 718.348144 132.296428 
L 718.708338 130.402 
L 719.068531 133.510086 
L 719.428725 133.687509 
L 719.788919 135.766713 
L 720.149112 138.497534 
L 720.509306 142.111015 
L 721.229693 146.575491 
L 721.950081 141.452374 
L 722.310274 140.586924 
L 722.670468 137.222305 
L 723.030662 141.306276 
L 723.390855 141.180022 
L 723.751049 143.166046 
L 724.111243 146.773544 
L 724.471436 148.46385 
L 724.83163 149.313945 
L 725.191824 150.469042 
L 725.912211 148.463425 
L 726.272405 142.654594 
L 726.632598 139.181059 
L 727.352985 137.51627 
L 727.713179 134.960862 
L 728.073373 135.96827 
L 729.153954 146.403184 
L 729.514147 146.466281 
L 729.874341 146.798063 
L 730.234535 145.280397 
L 730.594728 145.474703 
L 730.954922 144.71816 
L 731.315116 141.738643 
L 731.675309 143.814747 
L 732.035503 144.529084 
L 732.395697 143.417688 
L 732.75589 146.506703 
L 733.116084 151.621016 
L 733.476278 150.761083 
L 733.836471 152.870665 
L 734.556859 144.827337 
L 734.917052 146.859959 
L 735.277246 140.88098 
L 735.637439 137.064142 
L 735.997633 137.500153 
L 736.357827 133.5677 
L 736.71802 135.717403 
L 737.078214 140.116121 
L 737.798601 145.735689 
L 738.158795 144.249121 
L 738.518989 143.973927 
L 738.879182 147.764187 
L 739.59957 142.133514 
L 739.959763 141.603579 
L 740.319957 143.901412 
L 740.680151 143.396034 
L 741.400538 148.837859 
L 741.760732 148.326828 
L 742.120925 152.215204 
L 742.481119 151.756563 
L 742.841313 151.807967 
L 743.201506 145.974917 
L 743.201506 145.974917 
" style="fill:none;stroke:#1f77b4;stroke-linecap:square;stroke-width:1.5;"/>
   </g>
   <g id="line2d_15">
    <path clip-path="url(#p9add088d0a)" d="M 747.163636 384.48 
L 747.163636 51.84 
" style="fill:none;stroke:#808080;stroke-linecap:square;"/>
   </g>
   <g id="patch_106">
    <path d="M 108 384.48 
L 108 51.84 
" style="fill:none;stroke:#000000;stroke-linecap:square;stroke-linejoin:miter;stroke-width:0.8;"/>
   </g>
   <g id="patch_107">
    <path d="M 777.6 384.48 
L 777.6 51.84 
" style="fill:none;stroke:#000000;stroke-linecap:square;stroke-linejoin:miter;stroke-width:0.8;"/>
   </g>
   <g id="patch_108">
    <path d="M 108 384.48 
L 777.6 384.48 
" style="fill:none;stroke:#000000;stroke-linecap:square;stroke-linejoin:miter;stroke-width:0.8;"/>
   </g>
   <g id="patch_109">
    <path d="M 108 51.84 
L 777.6 51.84 
" style="fill:none;stroke:#000000;stroke-linecap:square;stroke-linejoin:miter;stroke-width:0.8;"/>
   </g>
   <g id="text_16">
    <!-- A4Benchmark-TS79.csv -->
    <defs>
     <path d="M 34.1875 63.1875 
L 20.796875 26.90625 
L 47.609375 26.90625 
z
M 28.609375 72.90625 
L 39.796875 72.90625 
L 67.578125 0 
L 57.328125 0 
L 50.6875 18.703125 
L 17.828125 18.703125 
L 11.1875 0 
L 0.78125 0 
z
" id="DejaVuSans-65"/>
     <path d="M 37.796875 64.3125 
L 12.890625 25.390625 
L 37.796875 25.390625 
z
M 35.203125 72.90625 
L 47.609375 72.90625 
L 47.609375 25.390625 
L 58.015625 25.390625 
L 58.015625 17.1875 
L 47.609375 17.1875 
L 47.609375 0 
L 37.796875 0 
L 37.796875 17.1875 
L 4.890625 17.1875 
L 4.890625 26.703125 
z
" id="DejaVuSans-52"/>
     <path d="M 19.671875 34.8125 
L 19.671875 8.109375 
L 35.5 8.109375 
Q 43.453125 8.109375 47.28125 11.40625 
Q 51.125 14.703125 51.125 21.484375 
Q 51.125 28.328125 47.28125 31.5625 
Q 43.453125 34.8125 35.5 34.8125 
z
M 19.671875 64.796875 
L 19.671875 42.828125 
L 34.28125 42.828125 
Q 41.5 42.828125 45.03125 45.53125 
Q 48.578125 48.25 48.578125 53.8125 
Q 48.578125 59.328125 45.03125 62.0625 
Q 41.5 64.796875 34.28125 64.796875 
z
M 9.8125 72.90625 
L 35.015625 72.90625 
Q 46.296875 72.90625 52.390625 68.21875 
Q 58.5 63.53125 58.5 54.890625 
Q 58.5 48.1875 55.375 44.234375 
Q 52.25 40.28125 46.1875 39.3125 
Q 53.46875 37.75 57.5 32.78125 
Q 61.53125 27.828125 61.53125 20.40625 
Q 61.53125 10.640625 54.890625 5.3125 
Q 48.25 0 35.984375 0 
L 9.8125 0 
z
" id="DejaVuSans-66"/>
     <path d="M 54.890625 33.015625 
L 54.890625 0 
L 45.90625 0 
L 45.90625 32.71875 
Q 45.90625 40.484375 42.875 44.328125 
Q 39.84375 48.1875 33.796875 48.1875 
Q 26.515625 48.1875 22.3125 43.546875 
Q 18.109375 38.921875 18.109375 30.90625 
L 18.109375 0 
L 9.078125 0 
L 9.078125 54.6875 
L 18.109375 54.6875 
L 18.109375 46.1875 
Q 21.34375 51.125 25.703125 53.5625 
Q 30.078125 56 35.796875 56 
Q 45.21875 56 50.046875 50.171875 
Q 54.890625 44.34375 54.890625 33.015625 
z
" id="DejaVuSans-110"/>
     <path d="M 48.78125 52.59375 
L 48.78125 44.1875 
Q 44.96875 46.296875 41.140625 47.34375 
Q 37.3125 48.390625 33.40625 48.390625 
Q 24.65625 48.390625 19.8125 42.84375 
Q 14.984375 37.3125 14.984375 27.296875 
Q 14.984375 17.28125 19.8125 11.734375 
Q 24.65625 6.203125 33.40625 6.203125 
Q 37.3125 6.203125 41.140625 7.25 
Q 44.96875 8.296875 48.78125 10.40625 
L 48.78125 2.09375 
Q 45.015625 0.34375 40.984375 -0.53125 
Q 36.96875 -1.421875 32.421875 -1.421875 
Q 20.0625 -1.421875 12.78125 6.34375 
Q 5.515625 14.109375 5.515625 27.296875 
Q 5.515625 40.671875 12.859375 48.328125 
Q 20.21875 56 33.015625 56 
Q 37.15625 56 41.109375 55.140625 
Q 45.0625 54.296875 48.78125 52.59375 
z
" id="DejaVuSans-99"/>
     <path d="M 54.890625 33.015625 
L 54.890625 0 
L 45.90625 0 
L 45.90625 32.71875 
Q 45.90625 40.484375 42.875 44.328125 
Q 39.84375 48.1875 33.796875 48.1875 
Q 26.515625 48.1875 22.3125 43.546875 
Q 18.109375 38.921875 18.109375 30.90625 
L 18.109375 0 
L 9.078125 0 
L 9.078125 75.984375 
L 18.109375 75.984375 
L 18.109375 46.1875 
Q 21.34375 51.125 25.703125 53.5625 
Q 30.078125 56 35.796875 56 
Q 45.21875 56 50.046875 50.171875 
Q 54.890625 44.34375 54.890625 33.015625 
z
" id="DejaVuSans-104"/>
     <path d="M 41.109375 46.296875 
Q 39.59375 47.171875 37.8125 47.578125 
Q 36.03125 48 33.890625 48 
Q 26.265625 48 22.1875 43.046875 
Q 18.109375 38.09375 18.109375 28.8125 
L 18.109375 0 
L 9.078125 0 
L 9.078125 54.6875 
L 18.109375 54.6875 
L 18.109375 46.1875 
Q 20.953125 51.171875 25.484375 53.578125 
Q 30.03125 56 36.53125 56 
Q 37.453125 56 38.578125 55.875 
Q 39.703125 55.765625 41.0625 55.515625 
z
" id="DejaVuSans-114"/>
     <path d="M 9.078125 75.984375 
L 18.109375 75.984375 
L 18.109375 31.109375 
L 44.921875 54.6875 
L 56.390625 54.6875 
L 27.390625 29.109375 
L 57.625 0 
L 45.90625 0 
L 18.109375 26.703125 
L 18.109375 0 
L 9.078125 0 
z
" id="DejaVuSans-107"/>
     <path d="M 4.890625 31.390625 
L 31.203125 31.390625 
L 31.203125 23.390625 
L 4.890625 23.390625 
z
" id="DejaVuSans-45"/>
     <path d="M 53.515625 70.515625 
L 53.515625 60.890625 
Q 47.90625 63.578125 42.921875 64.890625 
Q 37.9375 66.21875 33.296875 66.21875 
Q 25.25 66.21875 20.875 63.09375 
Q 16.5 59.96875 16.5 54.203125 
Q 16.5 49.359375 19.40625 46.890625 
Q 22.3125 44.4375 30.421875 42.921875 
L 36.375 41.703125 
Q 47.40625 39.59375 52.65625 34.296875 
Q 57.90625 29 57.90625 20.125 
Q 57.90625 9.515625 50.796875 4.046875 
Q 43.703125 -1.421875 29.984375 -1.421875 
Q 24.8125 -1.421875 18.96875 -0.25 
Q 13.140625 0.921875 6.890625 3.21875 
L 6.890625 13.375 
Q 12.890625 10.015625 18.65625 8.296875 
Q 24.421875 6.59375 29.984375 6.59375 
Q 38.421875 6.59375 43.015625 9.90625 
Q 47.609375 13.234375 47.609375 19.390625 
Q 47.609375 24.75 44.3125 27.78125 
Q 41.015625 30.8125 33.5 32.328125 
L 27.484375 33.5 
Q 16.453125 35.6875 11.515625 40.375 
Q 6.59375 45.0625 6.59375 53.421875 
Q 6.59375 63.09375 13.40625 68.65625 
Q 20.21875 74.21875 32.171875 74.21875 
Q 37.3125 74.21875 42.625 73.28125 
Q 47.953125 72.359375 53.515625 70.515625 
z
" id="DejaVuSans-83"/>
     <path d="M 10.984375 1.515625 
L 10.984375 10.5 
Q 14.703125 8.734375 18.5 7.8125 
Q 22.3125 6.890625 25.984375 6.890625 
Q 35.75 6.890625 40.890625 13.453125 
Q 46.046875 20.015625 46.78125 33.40625 
Q 43.953125 29.203125 39.59375 26.953125 
Q 35.25 24.703125 29.984375 24.703125 
Q 19.046875 24.703125 12.671875 31.3125 
Q 6.296875 37.9375 6.296875 49.421875 
Q 6.296875 60.640625 12.9375 67.421875 
Q 19.578125 74.21875 30.609375 74.21875 
Q 43.265625 74.21875 49.921875 64.515625 
Q 56.59375 54.828125 56.59375 36.375 
Q 56.59375 19.140625 48.40625 8.859375 
Q 40.234375 -1.421875 26.421875 -1.421875 
Q 22.703125 -1.421875 18.890625 -0.6875 
Q 15.09375 0.046875 10.984375 1.515625 
z
M 30.609375 32.421875 
Q 37.25 32.421875 41.125 36.953125 
Q 45.015625 41.5 45.015625 49.421875 
Q 45.015625 57.28125 41.125 61.84375 
Q 37.25 66.40625 30.609375 66.40625 
Q 23.96875 66.40625 20.09375 61.84375 
Q 16.21875 57.28125 16.21875 49.421875 
Q 16.21875 41.5 20.09375 36.953125 
Q 23.96875 32.421875 30.609375 32.421875 
z
" id="DejaVuSans-57"/>
     <path d="M 10.6875 12.40625 
L 21 12.40625 
L 21 0 
L 10.6875 0 
z
" id="DejaVuSans-46"/>
     <path d="M 2.984375 54.6875 
L 12.5 54.6875 
L 29.59375 8.796875 
L 46.6875 54.6875 
L 56.203125 54.6875 
L 35.6875 0 
L 23.484375 0 
z
" id="DejaVuSans-118"/>
    </defs>
    <g transform="translate(371.555625 45.84)scale(0.12 -0.12)">
     <use xlink:href="#DejaVuSans-65"/>
     <use x="68.408203" xlink:href="#DejaVuSans-52"/>
     <use x="132.03125" xlink:href="#DejaVuSans-66"/>
     <use x="200.634766" xlink:href="#DejaVuSans-101"/>
     <use x="262.158203" xlink:href="#DejaVuSans-110"/>
     <use x="325.537109" xlink:href="#DejaVuSans-99"/>
     <use x="380.517578" xlink:href="#DejaVuSans-104"/>
     <use x="443.896484" xlink:href="#DejaVuSans-109"/>
     <use x="541.308594" xlink:href="#DejaVuSans-97"/>
     <use x="602.587891" xlink:href="#DejaVuSans-114"/>
     <use x="643.701172" xlink:href="#DejaVuSans-107"/>
     <use x="701.611328" xlink:href="#DejaVuSans-45"/>
     <use x="737.554688" xlink:href="#DejaVuSans-84"/>
     <use x="798.638672" xlink:href="#DejaVuSans-83"/>
     <use x="862.115234" xlink:href="#DejaVuSans-55"/>
     <use x="925.738281" xlink:href="#DejaVuSans-57"/>
     <use x="989.361328" xlink:href="#DejaVuSans-46"/>
     <use x="1021.148438" xlink:href="#DejaVuSans-99"/>
     <use x="1076.128906" xlink:href="#DejaVuSans-115"/>
     <use x="1128.228516" xlink:href="#DejaVuSans-118"/>
    </g>
   </g>
   <g id="legend_1">
    <g id="patch_110">
     <path d="M 115 74.518125 
L 174.315625 74.518125 
Q 176.315625 74.518125 176.315625 72.518125 
L 176.315625 58.84 
Q 176.315625 56.84 174.315625 56.84 
L 115 56.84 
Q 113 56.84 113 58.84 
L 113 72.518125 
Q 113 74.518125 115 74.518125 
z
" style="fill:#ffffff;opacity:0.8;stroke:#cccccc;stroke-linejoin:miter;"/>
    </g>
    <g id="line2d_16">
     <path d="M 117 64.938438 
L 137 64.938438 
" style="fill:none;stroke:#1f77b4;stroke-linecap:square;stroke-width:1.5;"/>
    </g>
    <g id="line2d_17"/>
    <g id="text_17">
     <!-- value -->
     <g transform="translate(145 68.438438)scale(0.1 -0.1)">
      <use xlink:href="#DejaVuSans-118"/>
      <use x="59.179688" xlink:href="#DejaVuSans-97"/>
      <use x="120.458984" xlink:href="#DejaVuSans-108"/>
      <use x="148.242188" xlink:href="#DejaVuSans-117"/>
      <use x="211.621094" xlink:href="#DejaVuSans-101"/>
     </g>
    </g>
   </g>
  </g>
 </g>
 <defs>
  <clipPath id="p9add088d0a">
   <rect height="332.64" width="669.6" x="108" y="51.84"/>
  </clipPath>
 </defs>
</svg>
