<?xml version="1.0" encoding="utf-8" standalone="no"?>
<!DOCTYPE svg PUBLIC "-//W3C//DTD SVG 1.1//EN"
  "http://www.w3.org/Graphics/SVG/1.1/DTD/svg11.dtd">
<!-- Created with matplotlib (https://matplotlib.org/) -->
<svg height="432pt" version="1.1" viewBox="0 0 864 432" width="864pt" xmlns="http://www.w3.org/2000/svg" xmlns:xlink="http://www.w3.org/1999/xlink">
 <defs>
  <style type="text/css">
*{stroke-linecap:butt;stroke-linejoin:round;}
  </style>
 </defs>
 <g id="figure_1">
  <g id="patch_1">
   <path d="M 0 432 
L 864 432 
L 864 0 
L 0 0 
z
" style="fill:#ffffff;"/>
  </g>
  <g id="axes_1">
   <g id="patch_2">
    <path d="M 108 384.48 
L 777.6 384.48 
L 777.6 51.84 
L 108 51.84 
z
" style="fill:#ffffff;"/>
   </g>
   <g id="patch_3">
    <path clip-path="url(#p1868431d7d)" d="M 138.436364 384.48 
L 138.436364 51.84 
L 440.999032 51.84 
L 440.999032 384.48 
z
" style="fill:#0000ff;opacity:0.05;"/>
   </g>
   <g id="patch_4">
    <path clip-path="url(#p1868431d7d)" d="M 440.999032 384.48 
L 440.999032 51.84 
L 747.163636 51.84 
L 747.163636 384.48 
z
" style="fill:#ff0000;opacity:0.08;"/>
   </g>
   <g id="patch_5">
    <path clip-path="url(#p1868431d7d)" d="M 138.436364 384.48 
L 138.436364 51.84 
L 142.0383 51.84 
L 142.0383 384.48 
z
" style="fill:#008000;opacity:0.04;"/>
   </g>
   <g id="patch_6">
    <path clip-path="url(#p1868431d7d)" d="M 145.640237 384.48 
L 145.640237 51.84 
L 149.242173 51.84 
L 149.242173 384.48 
z
" style="fill:#008000;opacity:0.04;"/>
   </g>
   <g id="patch_7">
    <path clip-path="url(#p1868431d7d)" d="M 145.640237 384.48 
L 145.640237 371.1744 
L 149.242173 371.1744 
L 149.242173 384.48 
z
" style="fill:#ffe500;"/>
   </g>
   <g id="patch_8">
    <path clip-path="url(#p1868431d7d)" d="M 152.84411 384.48 
L 152.84411 51.84 
L 156.446046 51.84 
L 156.446046 384.48 
z
" style="fill:#008000;opacity:0.04;"/>
   </g>
   <g id="patch_9">
    <path clip-path="url(#p1868431d7d)" d="M 160.047983 384.48 
L 160.047983 51.84 
L 163.649919 51.84 
L 163.649919 384.48 
z
" style="fill:#008000;opacity:0.04;"/>
   </g>
   <g id="patch_10">
    <path clip-path="url(#p1868431d7d)" d="M 163.649919 371.1744 
L 163.649919 51.84 
L 167.251856 51.84 
L 167.251856 371.1744 
z
" style="fill:#008000;opacity:0.5;"/>
   </g>
   <g id="patch_11">
    <path clip-path="url(#p1868431d7d)" d="M 167.251856 384.48 
L 167.251856 51.84 
L 170.853792 51.84 
L 170.853792 384.48 
z
" style="fill:#008000;opacity:0.04;"/>
   </g>
   <g id="patch_12">
    <path clip-path="url(#p1868431d7d)" d="M 174.455729 384.48 
L 174.455729 51.84 
L 178.057665 51.84 
L 178.057665 384.48 
z
" style="fill:#008000;opacity:0.04;"/>
   </g>
   <g id="patch_13">
    <path clip-path="url(#p1868431d7d)" d="M 178.057665 371.1744 
L 178.057665 51.84 
L 181.659602 51.84 
L 181.659602 371.1744 
z
" style="fill:#008000;opacity:0.5;"/>
   </g>
   <g id="patch_14">
    <path clip-path="url(#p1868431d7d)" d="M 181.659602 384.48 
L 181.659602 51.84 
L 185.261538 51.84 
L 185.261538 384.48 
z
" style="fill:#008000;opacity:0.04;"/>
   </g>
   <g id="patch_15">
    <path clip-path="url(#p1868431d7d)" d="M 484.22227 384.48 
L 484.22227 371.1744 
L 487.824207 371.1744 
L 487.824207 384.48 
z
" style="fill:#ff6600;"/>
   </g>
   <g id="patch_16">
    <path clip-path="url(#p1868431d7d)" d="M 185.261538 371.1744 
L 185.261538 51.84 
L 188.863475 51.84 
L 188.863475 371.1744 
z
" style="fill:#008000;opacity:0.5;"/>
   </g>
   <g id="patch_17">
    <path clip-path="url(#p1868431d7d)" d="M 487.824207 384.48 
L 487.824207 371.1744 
L 491.426143 371.1744 
L 491.426143 384.48 
z
" style="fill:#ff6600;"/>
   </g>
   <g id="patch_18">
    <path clip-path="url(#p1868431d7d)" d="M 188.863475 384.48 
L 188.863475 51.84 
L 192.465412 51.84 
L 192.465412 384.48 
z
" style="fill:#008000;opacity:0.04;"/>
   </g>
   <g id="patch_19">
    <path clip-path="url(#p1868431d7d)" d="M 188.863475 384.48 
L 188.863475 371.1744 
L 192.465412 371.1744 
L 192.465412 384.48 
z
" style="fill:#ffe500;"/>
   </g>
   <g id="patch_20">
    <path clip-path="url(#p1868431d7d)" d="M 491.426143 384.48 
L 491.426143 371.1744 
L 495.02808 371.1744 
L 495.02808 384.48 
z
" style="fill:#ff6600;"/>
   </g>
   <g id="patch_21">
    <path clip-path="url(#p1868431d7d)" d="M 495.02808 384.48 
L 495.02808 371.1744 
L 498.630016 371.1744 
L 498.630016 384.48 
z
" style="fill:#ff6600;"/>
   </g>
   <g id="patch_22">
    <path clip-path="url(#p1868431d7d)" d="M 196.067348 384.48 
L 196.067348 51.84 
L 199.669285 51.84 
L 199.669285 384.48 
z
" style="fill:#008000;opacity:0.04;"/>
   </g>
   <g id="patch_23">
    <path clip-path="url(#p1868431d7d)" d="M 199.669285 371.1744 
L 199.669285 51.84 
L 203.271221 51.84 
L 203.271221 371.1744 
z
" style="fill:#008000;opacity:0.5;"/>
   </g>
   <g id="patch_24">
    <path clip-path="url(#p1868431d7d)" d="M 203.271221 384.48 
L 203.271221 51.84 
L 206.873158 51.84 
L 206.873158 384.48 
z
" style="fill:#008000;opacity:0.04;"/>
   </g>
   <g id="patch_25">
    <path clip-path="url(#p1868431d7d)" d="M 210.475094 384.48 
L 210.475094 51.84 
L 214.077031 51.84 
L 214.077031 384.48 
z
" style="fill:#008000;opacity:0.04;"/>
   </g>
   <g id="patch_26">
    <path clip-path="url(#p1868431d7d)" d="M 217.678967 384.48 
L 217.678967 51.84 
L 221.280904 51.84 
L 221.280904 384.48 
z
" style="fill:#008000;opacity:0.04;"/>
   </g>
   <g id="patch_27">
    <path clip-path="url(#p1868431d7d)" d="M 217.678967 371.1744 
L 217.678967 51.84 
L 221.280904 51.84 
L 221.280904 371.1744 
z
" style="fill:#008000;opacity:0.5;"/>
   </g>
   <g id="patch_28">
    <path clip-path="url(#p1868431d7d)" d="M 217.678967 384.48 
L 217.678967 371.1744 
L 221.280904 371.1744 
L 221.280904 384.48 
z
" style="fill:#ffe500;"/>
   </g>
   <g id="patch_29">
    <path clip-path="url(#p1868431d7d)" d="M 224.88284 384.48 
L 224.88284 51.84 
L 228.484777 51.84 
L 228.484777 384.48 
z
" style="fill:#008000;opacity:0.04;"/>
   </g>
   <g id="patch_30">
    <path clip-path="url(#p1868431d7d)" d="M 232.086713 384.48 
L 232.086713 51.84 
L 235.68865 51.84 
L 235.68865 384.48 
z
" style="fill:#008000;opacity:0.04;"/>
   </g>
   <g id="patch_31">
    <path clip-path="url(#p1868431d7d)" d="M 232.086713 384.48 
L 232.086713 371.1744 
L 235.68865 371.1744 
L 235.68865 384.48 
z
" style="fill:#ffe500;"/>
   </g>
   <g id="patch_32">
    <path clip-path="url(#p1868431d7d)" d="M 239.290586 384.48 
L 239.290586 51.84 
L 242.892523 51.84 
L 242.892523 384.48 
z
" style="fill:#008000;opacity:0.04;"/>
   </g>
   <g id="patch_33">
    <path clip-path="url(#p1868431d7d)" d="M 246.494459 384.48 
L 246.494459 51.84 
L 250.096396 51.84 
L 250.096396 384.48 
z
" style="fill:#008000;opacity:0.04;"/>
   </g>
   <g id="patch_34">
    <path clip-path="url(#p1868431d7d)" d="M 253.698332 384.48 
L 253.698332 51.84 
L 257.300269 51.84 
L 257.300269 384.48 
z
" style="fill:#008000;opacity:0.04;"/>
   </g>
   <g id="patch_35">
    <path clip-path="url(#p1868431d7d)" d="M 257.300269 384.48 
L 257.300269 371.1744 
L 260.902205 371.1744 
L 260.902205 384.48 
z
" style="fill:#ffe500;"/>
   </g>
   <g id="patch_36">
    <path clip-path="url(#p1868431d7d)" d="M 260.902205 384.48 
L 260.902205 51.84 
L 264.504142 51.84 
L 264.504142 384.48 
z
" style="fill:#008000;opacity:0.04;"/>
   </g>
   <g id="patch_37">
    <path clip-path="url(#p1868431d7d)" d="M 268.106079 384.48 
L 268.106079 51.84 
L 271.708015 51.84 
L 271.708015 384.48 
z
" style="fill:#008000;opacity:0.04;"/>
   </g>
   <g id="patch_38">
    <path clip-path="url(#p1868431d7d)" d="M 275.309952 384.48 
L 275.309952 51.84 
L 278.911888 51.84 
L 278.911888 384.48 
z
" style="fill:#008000;opacity:0.04;"/>
   </g>
   <g id="patch_39">
    <path clip-path="url(#p1868431d7d)" d="M 282.513825 384.48 
L 282.513825 51.84 
L 286.115761 51.84 
L 286.115761 384.48 
z
" style="fill:#008000;opacity:0.04;"/>
   </g>
   <g id="patch_40">
    <path clip-path="url(#p1868431d7d)" d="M 289.717698 384.48 
L 289.717698 51.84 
L 293.319634 51.84 
L 293.319634 384.48 
z
" style="fill:#008000;opacity:0.04;"/>
   </g>
   <g id="patch_41">
    <path clip-path="url(#p1868431d7d)" d="M 296.921571 384.48 
L 296.921571 51.84 
L 300.523507 51.84 
L 300.523507 384.48 
z
" style="fill:#008000;opacity:0.04;"/>
   </g>
   <g id="patch_42">
    <path clip-path="url(#p1868431d7d)" d="M 300.523507 371.1744 
L 300.523507 51.84 
L 304.125444 51.84 
L 304.125444 371.1744 
z
" style="fill:#008000;opacity:0.5;"/>
   </g>
   <g id="patch_43">
    <path clip-path="url(#p1868431d7d)" d="M 300.523507 384.48 
L 300.523507 371.1744 
L 304.125444 371.1744 
L 304.125444 384.48 
z
" style="fill:#ffe500;"/>
   </g>
   <g id="patch_44">
    <path clip-path="url(#p1868431d7d)" d="M 304.125444 384.48 
L 304.125444 51.84 
L 307.72738 51.84 
L 307.72738 384.48 
z
" style="fill:#008000;opacity:0.04;"/>
   </g>
   <g id="patch_45">
    <path clip-path="url(#p1868431d7d)" d="M 307.72738 371.1744 
L 307.72738 357.8688 
L 311.329317 357.8688 
L 311.329317 371.1744 
z
" style="fill:#ff00ff;"/>
   </g>
   <g id="patch_46">
    <path clip-path="url(#p1868431d7d)" d="M 311.329317 384.48 
L 311.329317 51.84 
L 314.931253 51.84 
L 314.931253 384.48 
z
" style="fill:#008000;opacity:0.04;"/>
   </g>
   <g id="patch_47">
    <path clip-path="url(#p1868431d7d)" d="M 318.53319 384.48 
L 318.53319 51.84 
L 322.135126 51.84 
L 322.135126 384.48 
z
" style="fill:#008000;opacity:0.04;"/>
   </g>
   <g id="patch_48">
    <path clip-path="url(#p1868431d7d)" d="M 325.737063 384.48 
L 325.737063 51.84 
L 329.338999 51.84 
L 329.338999 384.48 
z
" style="fill:#008000;opacity:0.04;"/>
   </g>
   <g id="patch_49">
    <path clip-path="url(#p1868431d7d)" d="M 325.737063 371.1744 
L 325.737063 51.84 
L 329.338999 51.84 
L 329.338999 371.1744 
z
" style="fill:#008000;opacity:0.5;"/>
   </g>
   <g id="patch_50">
    <path clip-path="url(#p1868431d7d)" d="M 325.737063 384.48 
L 325.737063 371.1744 
L 329.338999 371.1744 
L 329.338999 384.48 
z
" style="fill:#ffe500;"/>
   </g>
   <g id="patch_51">
    <path clip-path="url(#p1868431d7d)" d="M 332.940936 384.48 
L 332.940936 51.84 
L 336.542873 51.84 
L 336.542873 384.48 
z
" style="fill:#008000;opacity:0.04;"/>
   </g>
   <g id="patch_52">
    <path clip-path="url(#p1868431d7d)" d="M 340.144809 384.48 
L 340.144809 51.84 
L 343.746746 51.84 
L 343.746746 384.48 
z
" style="fill:#008000;opacity:0.04;"/>
   </g>
   <g id="patch_53">
    <path clip-path="url(#p1868431d7d)" d="M 340.144809 384.48 
L 340.144809 371.1744 
L 343.746746 371.1744 
L 343.746746 384.48 
z
" style="fill:#ffe500;"/>
   </g>
   <g id="patch_54">
    <path clip-path="url(#p1868431d7d)" d="M 347.348682 384.48 
L 347.348682 51.84 
L 350.950619 51.84 
L 350.950619 384.48 
z
" style="fill:#008000;opacity:0.04;"/>
   </g>
   <g id="patch_55">
    <path clip-path="url(#p1868431d7d)" d="M 354.552555 384.48 
L 354.552555 51.84 
L 358.154492 51.84 
L 358.154492 384.48 
z
" style="fill:#008000;opacity:0.04;"/>
   </g>
   <g id="patch_56">
    <path clip-path="url(#p1868431d7d)" d="M 361.756428 384.48 
L 361.756428 51.84 
L 365.358365 51.84 
L 365.358365 384.48 
z
" style="fill:#008000;opacity:0.04;"/>
   </g>
   <g id="patch_57">
    <path clip-path="url(#p1868431d7d)" d="M 368.960301 384.48 
L 368.960301 51.84 
L 372.562238 51.84 
L 372.562238 384.48 
z
" style="fill:#008000;opacity:0.04;"/>
   </g>
   <g id="patch_58">
    <path clip-path="url(#p1868431d7d)" d="M 376.164174 384.48 
L 376.164174 51.84 
L 379.766111 51.84 
L 379.766111 384.48 
z
" style="fill:#008000;opacity:0.04;"/>
   </g>
   <g id="patch_59">
    <path clip-path="url(#p1868431d7d)" d="M 383.368047 384.48 
L 383.368047 51.84 
L 386.969984 51.84 
L 386.969984 384.48 
z
" style="fill:#008000;opacity:0.04;"/>
   </g>
   <g id="patch_60">
    <path clip-path="url(#p1868431d7d)" d="M 390.57192 384.48 
L 390.57192 51.84 
L 394.173857 51.84 
L 394.173857 384.48 
z
" style="fill:#008000;opacity:0.04;"/>
   </g>
   <g id="patch_61">
    <path clip-path="url(#p1868431d7d)" d="M 397.775793 384.48 
L 397.775793 51.84 
L 401.37773 51.84 
L 401.37773 384.48 
z
" style="fill:#008000;opacity:0.04;"/>
   </g>
   <g id="patch_62">
    <path clip-path="url(#p1868431d7d)" d="M 404.979666 384.48 
L 404.979666 51.84 
L 408.581603 51.84 
L 408.581603 384.48 
z
" style="fill:#008000;opacity:0.04;"/>
   </g>
   <g id="patch_63">
    <path clip-path="url(#p1868431d7d)" d="M 408.581603 371.1744 
L 408.581603 51.84 
L 412.18354 51.84 
L 412.18354 371.1744 
z
" style="fill:#008000;opacity:0.5;"/>
   </g>
   <g id="patch_64">
    <path clip-path="url(#p1868431d7d)" d="M 412.18354 384.48 
L 412.18354 51.84 
L 415.785476 51.84 
L 415.785476 384.48 
z
" style="fill:#008000;opacity:0.04;"/>
   </g>
   <g id="patch_65">
    <path clip-path="url(#p1868431d7d)" d="M 419.387413 384.48 
L 419.387413 51.84 
L 422.989349 51.84 
L 422.989349 384.48 
z
" style="fill:#008000;opacity:0.04;"/>
   </g>
   <g id="patch_66">
    <path clip-path="url(#p1868431d7d)" d="M 426.591286 384.48 
L 426.591286 51.84 
L 430.193222 51.84 
L 430.193222 384.48 
z
" style="fill:#008000;opacity:0.04;"/>
   </g>
   <g id="patch_67">
    <path clip-path="url(#p1868431d7d)" d="M 433.795159 384.48 
L 433.795159 51.84 
L 437.397095 51.84 
L 437.397095 384.48 
z
" style="fill:#008000;opacity:0.04;"/>
   </g>
   <g id="patch_68">
    <path clip-path="url(#p1868431d7d)" d="M 440.999032 384.48 
L 440.999032 51.84 
L 444.600968 51.84 
L 444.600968 384.48 
z
" style="fill:#008000;opacity:0.04;"/>
   </g>
   <g id="patch_69">
    <path clip-path="url(#p1868431d7d)" d="M 743.5617 384.48 
L 743.5617 371.1744 
L 747.163636 371.1744 
L 747.163636 384.48 
z
" style="fill:#ff6600;"/>
   </g>
   <g id="patch_70">
    <path clip-path="url(#p1868431d7d)" d="M 448.202905 384.48 
L 448.202905 51.84 
L 451.804841 51.84 
L 451.804841 384.48 
z
" style="fill:#008000;opacity:0.04;"/>
   </g>
   <g id="patch_71">
    <path clip-path="url(#p1868431d7d)" d="M 455.406778 384.48 
L 455.406778 51.84 
L 459.008714 51.84 
L 459.008714 384.48 
z
" style="fill:#008000;opacity:0.04;"/>
   </g>
   <g id="patch_72">
    <path clip-path="url(#p1868431d7d)" d="M 462.610651 384.48 
L 462.610651 51.84 
L 466.212587 51.84 
L 466.212587 384.48 
z
" style="fill:#008000;opacity:0.04;"/>
   </g>
   <g id="patch_73">
    <path clip-path="url(#p1868431d7d)" d="M 469.814524 384.48 
L 469.814524 51.84 
L 473.41646 51.84 
L 473.41646 384.48 
z
" style="fill:#008000;opacity:0.04;"/>
   </g>
   <g id="patch_74">
    <path clip-path="url(#p1868431d7d)" d="M 477.018397 384.48 
L 477.018397 51.84 
L 480.620334 51.84 
L 480.620334 384.48 
z
" style="fill:#008000;opacity:0.04;"/>
   </g>
   <g id="patch_75">
    <path clip-path="url(#p1868431d7d)" d="M 480.620334 371.1744 
L 480.620334 357.8688 
L 484.22227 357.8688 
L 484.22227 371.1744 
z
" style="fill:#ff00ff;"/>
   </g>
   <g id="patch_76">
    <path clip-path="url(#p1868431d7d)" d="M 484.22227 384.48 
L 484.22227 51.84 
L 487.824207 51.84 
L 487.824207 384.48 
z
" style="fill:#008000;opacity:0.04;"/>
   </g>
   <g id="patch_77">
    <path clip-path="url(#p1868431d7d)" d="M 491.426143 384.48 
L 491.426143 51.84 
L 495.02808 51.84 
L 495.02808 384.48 
z
" style="fill:#008000;opacity:0.04;"/>
   </g>
   <g id="patch_78">
    <path clip-path="url(#p1868431d7d)" d="M 498.630016 384.48 
L 498.630016 51.84 
L 502.231953 51.84 
L 502.231953 384.48 
z
" style="fill:#008000;opacity:0.04;"/>
   </g>
   <g id="patch_79">
    <path clip-path="url(#p1868431d7d)" d="M 502.231953 371.1744 
L 502.231953 51.84 
L 505.833889 51.84 
L 505.833889 371.1744 
z
" style="fill:#008000;opacity:0.5;"/>
   </g>
   <g id="patch_80">
    <path clip-path="url(#p1868431d7d)" d="M 505.833889 384.48 
L 505.833889 51.84 
L 509.435826 51.84 
L 509.435826 384.48 
z
" style="fill:#008000;opacity:0.04;"/>
   </g>
   <g id="patch_81">
    <path clip-path="url(#p1868431d7d)" d="M 513.037762 384.48 
L 513.037762 51.84 
L 516.639699 51.84 
L 516.639699 384.48 
z
" style="fill:#008000;opacity:0.04;"/>
   </g>
   <g id="patch_82">
    <path clip-path="url(#p1868431d7d)" d="M 520.241635 384.48 
L 520.241635 51.84 
L 523.843572 51.84 
L 523.843572 384.48 
z
" style="fill:#008000;opacity:0.04;"/>
   </g>
   <g id="patch_83">
    <path clip-path="url(#p1868431d7d)" d="M 523.843572 371.1744 
L 523.843572 51.84 
L 527.445508 51.84 
L 527.445508 371.1744 
z
" style="fill:#008000;opacity:0.5;"/>
   </g>
   <g id="patch_84">
    <path clip-path="url(#p1868431d7d)" d="M 527.445508 384.48 
L 527.445508 51.84 
L 531.047445 51.84 
L 531.047445 384.48 
z
" style="fill:#008000;opacity:0.04;"/>
   </g>
   <g id="patch_85">
    <path clip-path="url(#p1868431d7d)" d="M 534.649381 384.48 
L 534.649381 51.84 
L 538.251318 51.84 
L 538.251318 384.48 
z
" style="fill:#008000;opacity:0.04;"/>
   </g>
   <g id="patch_86">
    <path clip-path="url(#p1868431d7d)" d="M 541.853254 384.48 
L 541.853254 51.84 
L 545.455191 51.84 
L 545.455191 384.48 
z
" style="fill:#008000;opacity:0.04;"/>
   </g>
   <g id="patch_87">
    <path clip-path="url(#p1868431d7d)" d="M 549.057127 384.48 
L 549.057127 51.84 
L 552.659064 51.84 
L 552.659064 384.48 
z
" style="fill:#008000;opacity:0.04;"/>
   </g>
   <g id="patch_88">
    <path clip-path="url(#p1868431d7d)" d="M 556.261001 384.48 
L 556.261001 51.84 
L 559.862937 51.84 
L 559.862937 384.48 
z
" style="fill:#008000;opacity:0.04;"/>
   </g>
   <g id="patch_89">
    <path clip-path="url(#p1868431d7d)" d="M 559.862937 371.1744 
L 559.862937 51.84 
L 563.464874 51.84 
L 563.464874 371.1744 
z
" style="fill:#008000;opacity:0.5;"/>
   </g>
   <g id="patch_90">
    <path clip-path="url(#p1868431d7d)" d="M 563.464874 384.48 
L 563.464874 51.84 
L 567.06681 51.84 
L 567.06681 384.48 
z
" style="fill:#008000;opacity:0.04;"/>
   </g>
   <g id="patch_91">
    <path clip-path="url(#p1868431d7d)" d="M 570.668747 384.48 
L 570.668747 51.84 
L 574.270683 51.84 
L 574.270683 384.48 
z
" style="fill:#008000;opacity:0.04;"/>
   </g>
   <g id="patch_92">
    <path clip-path="url(#p1868431d7d)" d="M 577.87262 384.48 
L 577.87262 51.84 
L 581.474556 51.84 
L 581.474556 384.48 
z
" style="fill:#008000;opacity:0.04;"/>
   </g>
   <g id="patch_93">
    <path clip-path="url(#p1868431d7d)" d="M 585.076493 384.48 
L 585.076493 51.84 
L 588.678429 51.84 
L 588.678429 384.48 
z
" style="fill:#008000;opacity:0.04;"/>
   </g>
   <g id="patch_94">
    <path clip-path="url(#p1868431d7d)" d="M 585.076493 371.1744 
L 585.076493 51.84 
L 588.678429 51.84 
L 588.678429 371.1744 
z
" style="fill:#008000;opacity:0.5;"/>
   </g>
   <g id="patch_95">
    <path clip-path="url(#p1868431d7d)" d="M 592.280366 384.48 
L 592.280366 51.84 
L 595.882302 51.84 
L 595.882302 384.48 
z
" style="fill:#008000;opacity:0.04;"/>
   </g>
   <g id="patch_96">
    <path clip-path="url(#p1868431d7d)" d="M 599.484239 384.48 
L 599.484239 51.84 
L 603.086175 51.84 
L 603.086175 384.48 
z
" style="fill:#008000;opacity:0.04;"/>
   </g>
   <g id="patch_97">
    <path clip-path="url(#p1868431d7d)" d="M 606.688112 384.48 
L 606.688112 51.84 
L 610.290048 51.84 
L 610.290048 384.48 
z
" style="fill:#008000;opacity:0.04;"/>
   </g>
   <g id="patch_98">
    <path clip-path="url(#p1868431d7d)" d="M 613.891985 384.48 
L 613.891985 51.84 
L 617.493921 51.84 
L 617.493921 384.48 
z
" style="fill:#008000;opacity:0.04;"/>
   </g>
   <g id="patch_99">
    <path clip-path="url(#p1868431d7d)" d="M 621.095858 384.48 
L 621.095858 51.84 
L 624.697795 51.84 
L 624.697795 384.48 
z
" style="fill:#008000;opacity:0.04;"/>
   </g>
   <g id="patch_100">
    <path clip-path="url(#p1868431d7d)" d="M 628.299731 384.48 
L 628.299731 51.84 
L 631.901668 51.84 
L 631.901668 384.48 
z
" style="fill:#008000;opacity:0.04;"/>
   </g>
   <g id="patch_101">
    <path clip-path="url(#p1868431d7d)" d="M 635.503604 384.48 
L 635.503604 51.84 
L 639.105541 51.84 
L 639.105541 384.48 
z
" style="fill:#008000;opacity:0.04;"/>
   </g>
   <g id="patch_102">
    <path clip-path="url(#p1868431d7d)" d="M 635.503604 371.1744 
L 635.503604 51.84 
L 639.105541 51.84 
L 639.105541 371.1744 
z
" style="fill:#008000;opacity:0.5;"/>
   </g>
   <g id="patch_103">
    <path clip-path="url(#p1868431d7d)" d="M 639.105541 371.1744 
L 639.105541 51.84 
L 642.707477 51.84 
L 642.707477 371.1744 
z
" style="fill:#008000;opacity:0.5;"/>
   </g>
   <g id="patch_104">
    <path clip-path="url(#p1868431d7d)" d="M 642.707477 384.48 
L 642.707477 51.84 
L 646.309414 51.84 
L 646.309414 384.48 
z
" style="fill:#008000;opacity:0.04;"/>
   </g>
   <g id="patch_105">
    <path clip-path="url(#p1868431d7d)" d="M 649.91135 384.48 
L 649.91135 51.84 
L 653.513287 51.84 
L 653.513287 384.48 
z
" style="fill:#008000;opacity:0.04;"/>
   </g>
   <g id="patch_106">
    <path clip-path="url(#p1868431d7d)" d="M 657.115223 384.48 
L 657.115223 51.84 
L 660.71716 51.84 
L 660.71716 384.48 
z
" style="fill:#008000;opacity:0.04;"/>
   </g>
   <g id="patch_107">
    <path clip-path="url(#p1868431d7d)" d="M 664.319096 384.48 
L 664.319096 51.84 
L 667.921033 51.84 
L 667.921033 384.48 
z
" style="fill:#008000;opacity:0.04;"/>
   </g>
   <g id="patch_108">
    <path clip-path="url(#p1868431d7d)" d="M 671.522969 384.48 
L 671.522969 51.84 
L 675.124906 51.84 
L 675.124906 384.48 
z
" style="fill:#008000;opacity:0.04;"/>
   </g>
   <g id="patch_109">
    <path clip-path="url(#p1868431d7d)" d="M 678.726842 384.48 
L 678.726842 51.84 
L 682.328779 51.84 
L 682.328779 384.48 
z
" style="fill:#008000;opacity:0.04;"/>
   </g>
   <g id="patch_110">
    <path clip-path="url(#p1868431d7d)" d="M 685.930715 384.48 
L 685.930715 51.84 
L 689.532652 51.84 
L 689.532652 384.48 
z
" style="fill:#008000;opacity:0.04;"/>
   </g>
   <g id="patch_111">
    <path clip-path="url(#p1868431d7d)" d="M 693.134588 384.48 
L 693.134588 51.84 
L 696.736525 51.84 
L 696.736525 384.48 
z
" style="fill:#008000;opacity:0.04;"/>
   </g>
   <g id="patch_112">
    <path clip-path="url(#p1868431d7d)" d="M 700.338462 384.48 
L 700.338462 51.84 
L 703.940398 51.84 
L 703.940398 384.48 
z
" style="fill:#008000;opacity:0.04;"/>
   </g>
   <g id="patch_113">
    <path clip-path="url(#p1868431d7d)" d="M 707.542335 384.48 
L 707.542335 51.84 
L 711.144271 51.84 
L 711.144271 384.48 
z
" style="fill:#008000;opacity:0.04;"/>
   </g>
   <g id="patch_114">
    <path clip-path="url(#p1868431d7d)" d="M 714.746208 384.48 
L 714.746208 51.84 
L 718.348144 51.84 
L 718.348144 384.48 
z
" style="fill:#008000;opacity:0.04;"/>
   </g>
   <g id="patch_115">
    <path clip-path="url(#p1868431d7d)" d="M 721.950081 384.48 
L 721.950081 51.84 
L 725.552017 51.84 
L 725.552017 384.48 
z
" style="fill:#008000;opacity:0.04;"/>
   </g>
   <g id="patch_116">
    <path clip-path="url(#p1868431d7d)" d="M 729.153954 384.48 
L 729.153954 51.84 
L 732.75589 51.84 
L 732.75589 384.48 
z
" style="fill:#008000;opacity:0.04;"/>
   </g>
   <g id="patch_117">
    <path clip-path="url(#p1868431d7d)" d="M 736.357827 384.48 
L 736.357827 51.84 
L 739.959763 51.84 
L 739.959763 384.48 
z
" style="fill:#008000;opacity:0.04;"/>
   </g>
   <g id="patch_118">
    <path clip-path="url(#p1868431d7d)" d="M 743.5617 384.48 
L 743.5617 51.84 
L 747.163636 51.84 
L 747.163636 384.48 
z
" style="fill:#008000;opacity:0.04;"/>
   </g>
   <g id="matplotlib.axis_1">
    <g id="xtick_1">
     <g id="line2d_1">
      <defs>
       <path d="M 0 0 
L 0 3.5 
" id="m8fb57bd197" style="stroke:#000000;stroke-width:0.8;"/>
      </defs>
      <g>
       <use style="stroke:#000000;stroke-width:0.8;" x="138.436364" xlink:href="#m8fb57bd197" y="384.48"/>
      </g>
     </g>
     <g id="text_1">
      <!-- 0 -->
      <defs>
       <path d="M 31.78125 66.40625 
Q 24.171875 66.40625 20.328125 58.90625 
Q 16.5 51.421875 16.5 36.375 
Q 16.5 21.390625 20.328125 13.890625 
Q 24.171875 6.390625 31.78125 6.390625 
Q 39.453125 6.390625 43.28125 13.890625 
Q 47.125 21.390625 47.125 36.375 
Q 47.125 51.421875 43.28125 58.90625 
Q 39.453125 66.40625 31.78125 66.40625 
z
M 31.78125 74.21875 
Q 44.046875 74.21875 50.515625 64.515625 
Q 56.984375 54.828125 56.984375 36.375 
Q 56.984375 17.96875 50.515625 8.265625 
Q 44.046875 -1.421875 31.78125 -1.421875 
Q 19.53125 -1.421875 13.0625 8.265625 
Q 6.59375 17.96875 6.59375 36.375 
Q 6.59375 54.828125 13.0625 64.515625 
Q 19.53125 74.21875 31.78125 74.21875 
z
" id="DejaVuSans-48"/>
      </defs>
      <g transform="translate(135.255114 399.078438)scale(0.1 -0.1)">
       <use xlink:href="#DejaVuSans-48"/>
      </g>
     </g>
    </g>
    <g id="xtick_2">
     <g id="line2d_2">
      <g>
       <use style="stroke:#000000;stroke-width:0.8;" x="228.484777" xlink:href="#m8fb57bd197" y="384.48"/>
      </g>
     </g>
     <g id="text_2">
      <!-- 250 -->
      <defs>
       <path d="M 19.1875 8.296875 
L 53.609375 8.296875 
L 53.609375 0 
L 7.328125 0 
L 7.328125 8.296875 
Q 12.9375 14.109375 22.625 23.890625 
Q 32.328125 33.6875 34.8125 36.53125 
Q 39.546875 41.84375 41.421875 45.53125 
Q 43.3125 49.21875 43.3125 52.78125 
Q 43.3125 58.59375 39.234375 62.25 
Q 35.15625 65.921875 28.609375 65.921875 
Q 23.96875 65.921875 18.8125 64.3125 
Q 13.671875 62.703125 7.8125 59.421875 
L 7.8125 69.390625 
Q 13.765625 71.78125 18.9375 73 
Q 24.125 74.21875 28.421875 74.21875 
Q 39.75 74.21875 46.484375 68.546875 
Q 53.21875 62.890625 53.21875 53.421875 
Q 53.21875 48.921875 51.53125 44.890625 
Q 49.859375 40.875 45.40625 35.40625 
Q 44.1875 33.984375 37.640625 27.21875 
Q 31.109375 20.453125 19.1875 8.296875 
z
" id="DejaVuSans-50"/>
       <path d="M 10.796875 72.90625 
L 49.515625 72.90625 
L 49.515625 64.59375 
L 19.828125 64.59375 
L 19.828125 46.734375 
Q 21.96875 47.46875 24.109375 47.828125 
Q 26.265625 48.1875 28.421875 48.1875 
Q 40.625 48.1875 47.75 41.5 
Q 54.890625 34.8125 54.890625 23.390625 
Q 54.890625 11.625 47.5625 5.09375 
Q 40.234375 -1.421875 26.90625 -1.421875 
Q 22.3125 -1.421875 17.546875 -0.640625 
Q 12.796875 0.140625 7.71875 1.703125 
L 7.71875 11.625 
Q 12.109375 9.234375 16.796875 8.0625 
Q 21.484375 6.890625 26.703125 6.890625 
Q 35.15625 6.890625 40.078125 11.328125 
Q 45.015625 15.765625 45.015625 23.390625 
Q 45.015625 31 40.078125 35.4375 
Q 35.15625 39.890625 26.703125 39.890625 
Q 22.75 39.890625 18.8125 39.015625 
Q 14.890625 38.140625 10.796875 36.28125 
z
" id="DejaVuSans-53"/>
      </defs>
      <g transform="translate(218.941027 399.078438)scale(0.1 -0.1)">
       <use xlink:href="#DejaVuSans-50"/>
       <use x="63.623047" xlink:href="#DejaVuSans-53"/>
       <use x="127.246094" xlink:href="#DejaVuSans-48"/>
      </g>
     </g>
    </g>
    <g id="xtick_3">
     <g id="line2d_3">
      <g>
       <use style="stroke:#000000;stroke-width:0.8;" x="318.53319" xlink:href="#m8fb57bd197" y="384.48"/>
      </g>
     </g>
     <g id="text_3">
      <!-- 500 -->
      <g transform="translate(308.98944 399.078438)scale(0.1 -0.1)">
       <use xlink:href="#DejaVuSans-53"/>
       <use x="63.623047" xlink:href="#DejaVuSans-48"/>
       <use x="127.246094" xlink:href="#DejaVuSans-48"/>
      </g>
     </g>
    </g>
    <g id="xtick_4">
     <g id="line2d_4">
      <g>
       <use style="stroke:#000000;stroke-width:0.8;" x="408.581603" xlink:href="#m8fb57bd197" y="384.48"/>
      </g>
     </g>
     <g id="text_4">
      <!-- 750 -->
      <defs>
       <path d="M 8.203125 72.90625 
L 55.078125 72.90625 
L 55.078125 68.703125 
L 28.609375 0 
L 18.3125 0 
L 43.21875 64.59375 
L 8.203125 64.59375 
z
" id="DejaVuSans-55"/>
      </defs>
      <g transform="translate(399.037853 399.078438)scale(0.1 -0.1)">
       <use xlink:href="#DejaVuSans-55"/>
       <use x="63.623047" xlink:href="#DejaVuSans-53"/>
       <use x="127.246094" xlink:href="#DejaVuSans-48"/>
      </g>
     </g>
    </g>
    <g id="xtick_5">
     <g id="line2d_5">
      <g>
       <use style="stroke:#000000;stroke-width:0.8;" x="498.630016" xlink:href="#m8fb57bd197" y="384.48"/>
      </g>
     </g>
     <g id="text_5">
      <!-- 1000 -->
      <defs>
       <path d="M 12.40625 8.296875 
L 28.515625 8.296875 
L 28.515625 63.921875 
L 10.984375 60.40625 
L 10.984375 69.390625 
L 28.421875 72.90625 
L 38.28125 72.90625 
L 38.28125 8.296875 
L 54.390625 8.296875 
L 54.390625 0 
L 12.40625 0 
z
" id="DejaVuSans-49"/>
      </defs>
      <g transform="translate(485.905016 399.078438)scale(0.1 -0.1)">
       <use xlink:href="#DejaVuSans-49"/>
       <use x="63.623047" xlink:href="#DejaVuSans-48"/>
       <use x="127.246094" xlink:href="#DejaVuSans-48"/>
       <use x="190.869141" xlink:href="#DejaVuSans-48"/>
      </g>
     </g>
    </g>
    <g id="xtick_6">
     <g id="line2d_6">
      <g>
       <use style="stroke:#000000;stroke-width:0.8;" x="588.678429" xlink:href="#m8fb57bd197" y="384.48"/>
      </g>
     </g>
     <g id="text_6">
      <!-- 1250 -->
      <g transform="translate(575.953429 399.078438)scale(0.1 -0.1)">
       <use xlink:href="#DejaVuSans-49"/>
       <use x="63.623047" xlink:href="#DejaVuSans-50"/>
       <use x="127.246094" xlink:href="#DejaVuSans-53"/>
       <use x="190.869141" xlink:href="#DejaVuSans-48"/>
      </g>
     </g>
    </g>
    <g id="xtick_7">
     <g id="line2d_7">
      <g>
       <use style="stroke:#000000;stroke-width:0.8;" x="678.726842" xlink:href="#m8fb57bd197" y="384.48"/>
      </g>
     </g>
     <g id="text_7">
      <!-- 1500 -->
      <g transform="translate(666.001842 399.078438)scale(0.1 -0.1)">
       <use xlink:href="#DejaVuSans-49"/>
       <use x="63.623047" xlink:href="#DejaVuSans-53"/>
       <use x="127.246094" xlink:href="#DejaVuSans-48"/>
       <use x="190.869141" xlink:href="#DejaVuSans-48"/>
      </g>
     </g>
    </g>
    <g id="xtick_8">
     <g id="line2d_8">
      <g>
       <use style="stroke:#000000;stroke-width:0.8;" x="768.775256" xlink:href="#m8fb57bd197" y="384.48"/>
      </g>
     </g>
     <g id="text_8">
      <!-- 1750 -->
      <g transform="translate(756.050256 399.078438)scale(0.1 -0.1)">
       <use xlink:href="#DejaVuSans-49"/>
       <use x="63.623047" xlink:href="#DejaVuSans-55"/>
       <use x="127.246094" xlink:href="#DejaVuSans-53"/>
       <use x="190.869141" xlink:href="#DejaVuSans-48"/>
      </g>
     </g>
    </g>
    <g id="text_9">
     <!-- Timestamp -->
     <defs>
      <path d="M -0.296875 72.90625 
L 61.375 72.90625 
L 61.375 64.59375 
L 35.5 64.59375 
L 35.5 0 
L 25.59375 0 
L 25.59375 64.59375 
L -0.296875 64.59375 
z
" id="DejaVuSans-84"/>
      <path d="M 9.421875 54.6875 
L 18.40625 54.6875 
L 18.40625 0 
L 9.421875 0 
z
M 9.421875 75.984375 
L 18.40625 75.984375 
L 18.40625 64.59375 
L 9.421875 64.59375 
z
" id="DejaVuSans-105"/>
      <path d="M 52 44.1875 
Q 55.375 50.25 60.0625 53.125 
Q 64.75 56 71.09375 56 
Q 79.640625 56 84.28125 50.015625 
Q 88.921875 44.046875 88.921875 33.015625 
L 88.921875 0 
L 79.890625 0 
L 79.890625 32.71875 
Q 79.890625 40.578125 77.09375 44.375 
Q 74.3125 48.1875 68.609375 48.1875 
Q 61.625 48.1875 57.5625 43.546875 
Q 53.515625 38.921875 53.515625 30.90625 
L 53.515625 0 
L 44.484375 0 
L 44.484375 32.71875 
Q 44.484375 40.625 41.703125 44.40625 
Q 38.921875 48.1875 33.109375 48.1875 
Q 26.21875 48.1875 22.15625 43.53125 
Q 18.109375 38.875 18.109375 30.90625 
L 18.109375 0 
L 9.078125 0 
L 9.078125 54.6875 
L 18.109375 54.6875 
L 18.109375 46.1875 
Q 21.1875 51.21875 25.484375 53.609375 
Q 29.78125 56 35.6875 56 
Q 41.65625 56 45.828125 52.96875 
Q 50 49.953125 52 44.1875 
z
" id="DejaVuSans-109"/>
      <path d="M 56.203125 29.59375 
L 56.203125 25.203125 
L 14.890625 25.203125 
Q 15.484375 15.921875 20.484375 11.0625 
Q 25.484375 6.203125 34.421875 6.203125 
Q 39.59375 6.203125 44.453125 7.46875 
Q 49.3125 8.734375 54.109375 11.28125 
L 54.109375 2.78125 
Q 49.265625 0.734375 44.1875 -0.34375 
Q 39.109375 -1.421875 33.890625 -1.421875 
Q 20.796875 -1.421875 13.15625 6.1875 
Q 5.515625 13.8125 5.515625 26.8125 
Q 5.515625 40.234375 12.765625 48.109375 
Q 20.015625 56 32.328125 56 
Q 43.359375 56 49.78125 48.890625 
Q 56.203125 41.796875 56.203125 29.59375 
z
M 47.21875 32.234375 
Q 47.125 39.59375 43.09375 43.984375 
Q 39.0625 48.390625 32.421875 48.390625 
Q 24.90625 48.390625 20.390625 44.140625 
Q 15.875 39.890625 15.1875 32.171875 
z
" id="DejaVuSans-101"/>
      <path d="M 44.28125 53.078125 
L 44.28125 44.578125 
Q 40.484375 46.53125 36.375 47.5 
Q 32.28125 48.484375 27.875 48.484375 
Q 21.1875 48.484375 17.84375 46.4375 
Q 14.5 44.390625 14.5 40.28125 
Q 14.5 37.15625 16.890625 35.375 
Q 19.28125 33.59375 26.515625 31.984375 
L 29.59375 31.296875 
Q 39.15625 29.25 43.1875 25.515625 
Q 47.21875 21.78125 47.21875 15.09375 
Q 47.21875 7.46875 41.1875 3.015625 
Q 35.15625 -1.421875 24.609375 -1.421875 
Q 20.21875 -1.421875 15.453125 -0.5625 
Q 10.6875 0.296875 5.421875 2 
L 5.421875 11.28125 
Q 10.40625 8.6875 15.234375 7.390625 
Q 20.0625 6.109375 24.8125 6.109375 
Q 31.15625 6.109375 34.5625 8.28125 
Q 37.984375 10.453125 37.984375 14.40625 
Q 37.984375 18.0625 35.515625 20.015625 
Q 33.0625 21.96875 24.703125 23.78125 
L 21.578125 24.515625 
Q 13.234375 26.265625 9.515625 29.90625 
Q 5.8125 33.546875 5.8125 39.890625 
Q 5.8125 47.609375 11.28125 51.796875 
Q 16.75 56 26.8125 56 
Q 31.78125 56 36.171875 55.265625 
Q 40.578125 54.546875 44.28125 53.078125 
z
" id="DejaVuSans-115"/>
      <path d="M 18.3125 70.21875 
L 18.3125 54.6875 
L 36.8125 54.6875 
L 36.8125 47.703125 
L 18.3125 47.703125 
L 18.3125 18.015625 
Q 18.3125 11.328125 20.140625 9.421875 
Q 21.96875 7.515625 27.59375 7.515625 
L 36.8125 7.515625 
L 36.8125 0 
L 27.59375 0 
Q 17.1875 0 13.234375 3.875 
Q 9.28125 7.765625 9.28125 18.015625 
L 9.28125 47.703125 
L 2.6875 47.703125 
L 2.6875 54.6875 
L 9.28125 54.6875 
L 9.28125 70.21875 
z
" id="DejaVuSans-116"/>
      <path d="M 34.28125 27.484375 
Q 23.390625 27.484375 19.1875 25 
Q 14.984375 22.515625 14.984375 16.5 
Q 14.984375 11.71875 18.140625 8.90625 
Q 21.296875 6.109375 26.703125 6.109375 
Q 34.1875 6.109375 38.703125 11.40625 
Q 43.21875 16.703125 43.21875 25.484375 
L 43.21875 27.484375 
z
M 52.203125 31.203125 
L 52.203125 0 
L 43.21875 0 
L 43.21875 8.296875 
Q 40.140625 3.328125 35.546875 0.953125 
Q 30.953125 -1.421875 24.3125 -1.421875 
Q 15.921875 -1.421875 10.953125 3.296875 
Q 6 8.015625 6 15.921875 
Q 6 25.140625 12.171875 29.828125 
Q 18.359375 34.515625 30.609375 34.515625 
L 43.21875 34.515625 
L 43.21875 35.40625 
Q 43.21875 41.609375 39.140625 45 
Q 35.0625 48.390625 27.6875 48.390625 
Q 23 48.390625 18.546875 47.265625 
Q 14.109375 46.140625 10.015625 43.890625 
L 10.015625 52.203125 
Q 14.9375 54.109375 19.578125 55.046875 
Q 24.21875 56 28.609375 56 
Q 40.484375 56 46.34375 49.84375 
Q 52.203125 43.703125 52.203125 31.203125 
z
" id="DejaVuSans-97"/>
      <path d="M 18.109375 8.203125 
L 18.109375 -20.796875 
L 9.078125 -20.796875 
L 9.078125 54.6875 
L 18.109375 54.6875 
L 18.109375 46.390625 
Q 20.953125 51.265625 25.265625 53.625 
Q 29.59375 56 35.59375 56 
Q 45.5625 56 51.78125 48.09375 
Q 58.015625 40.1875 58.015625 27.296875 
Q 58.015625 14.40625 51.78125 6.484375 
Q 45.5625 -1.421875 35.59375 -1.421875 
Q 29.59375 -1.421875 25.265625 0.953125 
Q 20.953125 3.328125 18.109375 8.203125 
z
M 48.6875 27.296875 
Q 48.6875 37.203125 44.609375 42.84375 
Q 40.53125 48.484375 33.40625 48.484375 
Q 26.265625 48.484375 22.1875 42.84375 
Q 18.109375 37.203125 18.109375 27.296875 
Q 18.109375 17.390625 22.1875 11.75 
Q 26.265625 6.109375 33.40625 6.109375 
Q 40.53125 6.109375 44.609375 11.75 
Q 48.6875 17.390625 48.6875 27.296875 
z
" id="DejaVuSans-112"/>
     </defs>
     <g transform="translate(414.739062 412.756563)scale(0.1 -0.1)">
      <use xlink:href="#DejaVuSans-84"/>
      <use x="61.037109" xlink:href="#DejaVuSans-105"/>
      <use x="88.820312" xlink:href="#DejaVuSans-109"/>
      <use x="186.232422" xlink:href="#DejaVuSans-101"/>
      <use x="247.755859" xlink:href="#DejaVuSans-115"/>
      <use x="299.855469" xlink:href="#DejaVuSans-116"/>
      <use x="339.064453" xlink:href="#DejaVuSans-97"/>
      <use x="400.34375" xlink:href="#DejaVuSans-109"/>
      <use x="497.755859" xlink:href="#DejaVuSans-112"/>
     </g>
    </g>
   </g>
   <g id="matplotlib.axis_2">
    <g id="ytick_1">
     <g id="line2d_9">
      <defs>
       <path d="M 0 0 
L -3.5 0 
" id="m0533bbc781" style="stroke:#000000;stroke-width:0.8;"/>
      </defs>
      <g>
       <use style="stroke:#000000;stroke-width:0.8;" x="108" xlink:href="#m0533bbc781" y="339.632957"/>
      </g>
     </g>
     <g id="text_10">
      <!-- −2000 -->
      <defs>
       <path d="M 10.59375 35.5 
L 73.1875 35.5 
L 73.1875 27.203125 
L 10.59375 27.203125 
z
" id="DejaVuSans-8722"/>
      </defs>
      <g transform="translate(67.170312 343.432175)scale(0.1 -0.1)">
       <use xlink:href="#DejaVuSans-8722"/>
       <use x="83.789062" xlink:href="#DejaVuSans-50"/>
       <use x="147.412109" xlink:href="#DejaVuSans-48"/>
       <use x="211.035156" xlink:href="#DejaVuSans-48"/>
       <use x="274.658203" xlink:href="#DejaVuSans-48"/>
      </g>
     </g>
    </g>
    <g id="ytick_2">
     <g id="line2d_10">
      <g>
       <use style="stroke:#000000;stroke-width:0.8;" x="108" xlink:href="#m0533bbc781" y="280.972368"/>
      </g>
     </g>
     <g id="text_11">
      <!-- −1000 -->
      <g transform="translate(67.170312 284.771587)scale(0.1 -0.1)">
       <use xlink:href="#DejaVuSans-8722"/>
       <use x="83.789062" xlink:href="#DejaVuSans-49"/>
       <use x="147.412109" xlink:href="#DejaVuSans-48"/>
       <use x="211.035156" xlink:href="#DejaVuSans-48"/>
       <use x="274.658203" xlink:href="#DejaVuSans-48"/>
      </g>
     </g>
    </g>
    <g id="ytick_3">
     <g id="line2d_11">
      <g>
       <use style="stroke:#000000;stroke-width:0.8;" x="108" xlink:href="#m0533bbc781" y="222.31178"/>
      </g>
     </g>
     <g id="text_12">
      <!-- 0 -->
      <g transform="translate(94.6375 226.110999)scale(0.1 -0.1)">
       <use xlink:href="#DejaVuSans-48"/>
      </g>
     </g>
    </g>
    <g id="ytick_4">
     <g id="line2d_12">
      <g>
       <use style="stroke:#000000;stroke-width:0.8;" x="108" xlink:href="#m0533bbc781" y="163.651192"/>
      </g>
     </g>
     <g id="text_13">
      <!-- 1000 -->
      <g transform="translate(75.55 167.450411)scale(0.1 -0.1)">
       <use xlink:href="#DejaVuSans-49"/>
       <use x="63.623047" xlink:href="#DejaVuSans-48"/>
       <use x="127.246094" xlink:href="#DejaVuSans-48"/>
       <use x="190.869141" xlink:href="#DejaVuSans-48"/>
      </g>
     </g>
    </g>
    <g id="ytick_5">
     <g id="line2d_13">
      <g>
       <use style="stroke:#000000;stroke-width:0.8;" x="108" xlink:href="#m0533bbc781" y="104.990604"/>
      </g>
     </g>
     <g id="text_14">
      <!-- 2000 -->
      <g transform="translate(75.55 108.789823)scale(0.1 -0.1)">
       <use xlink:href="#DejaVuSans-50"/>
       <use x="63.623047" xlink:href="#DejaVuSans-48"/>
       <use x="127.246094" xlink:href="#DejaVuSans-48"/>
       <use x="190.869141" xlink:href="#DejaVuSans-48"/>
      </g>
     </g>
    </g>
    <g id="text_15">
     <!-- Value -->
     <defs>
      <path d="M 28.609375 0 
L 0.78125 72.90625 
L 11.078125 72.90625 
L 34.1875 11.53125 
L 57.328125 72.90625 
L 67.578125 72.90625 
L 39.796875 0 
z
" id="DejaVuSans-86"/>
      <path d="M 9.421875 75.984375 
L 18.40625 75.984375 
L 18.40625 0 
L 9.421875 0 
z
" id="DejaVuSans-108"/>
      <path d="M 8.5 21.578125 
L 8.5 54.6875 
L 17.484375 54.6875 
L 17.484375 21.921875 
Q 17.484375 14.15625 20.5 10.265625 
Q 23.53125 6.390625 29.59375 6.390625 
Q 36.859375 6.390625 41.078125 11.03125 
Q 45.3125 15.671875 45.3125 23.6875 
L 45.3125 54.6875 
L 54.296875 54.6875 
L 54.296875 0 
L 45.3125 0 
L 45.3125 8.40625 
Q 42.046875 3.421875 37.71875 1 
Q 33.40625 -1.421875 27.6875 -1.421875 
Q 18.265625 -1.421875 13.375 4.4375 
Q 8.5 10.296875 8.5 21.578125 
z
M 31.109375 56 
z
" id="DejaVuSans-117"/>
     </defs>
     <g transform="translate(61.090625 232.273281)rotate(-90)scale(0.1 -0.1)">
      <use xlink:href="#DejaVuSans-86"/>
      <use x="68.298828" xlink:href="#DejaVuSans-97"/>
      <use x="129.578125" xlink:href="#DejaVuSans-108"/>
      <use x="157.361328" xlink:href="#DejaVuSans-117"/>
      <use x="220.740234" xlink:href="#DejaVuSans-101"/>
     </g>
    </g>
   </g>
   <g id="line2d_14">
    <path clip-path="url(#p1868431d7d)" d="M 138.436364 209.67465 
L 138.796557 184.57025 
L 139.156751 191.860316 
L 139.877138 152.990063 
L 140.237332 157.243019 
L 140.597526 176.305149 
L 140.957719 212.816556 
L 141.317913 210.660954 
L 142.0383 240.198377 
L 142.398494 216.106689 
L 142.758687 215.530153 
L 143.118881 201.611824 
L 143.479075 200.527702 
L 143.839268 199.042817 
L 144.199462 206.28377 
L 144.919849 256.250038 
L 145.280043 268.318572 
L 145.640237 258.538421 
L 146.00043 254.447296 
L 146.360624 245.272426 
L 147.081011 203.88326 
L 147.441205 170.573889 
L 148.161592 133.24103 
L 148.521786 140.611494 
L 149.242173 165.964684 
L 149.962561 204.54244 
L 150.682948 222.819909 
L 151.043141 200.05524 
L 151.403335 189.970778 
L 151.763529 196.365748 
L 152.123722 174.322483 
L 152.483916 186.172924 
L 152.84411 207.441077 
L 153.204303 209.261225 
L 153.564497 235.844832 
L 153.924691 230.028107 
L 154.645078 264.334305 
L 155.005272 237.45482 
L 155.365465 227.386231 
L 155.725659 205.265837 
L 156.085853 170.156173 
L 156.446046 152.479361 
L 156.80624 146.741729 
L 157.166434 138.72511 
L 157.526627 146.271737 
L 158.247015 195.593358 
L 158.607208 199.795265 
L 158.967402 215.489635 
L 159.327595 209.25928 
L 159.687789 224.976822 
L 160.047983 194.545449 
L 160.408176 206.072532 
L 160.76837 192.927522 
L 161.488757 204.777782 
L 161.848951 232.154844 
L 162.209145 231.949226 
L 162.929532 268.059247 
L 163.289726 273.420959 
L 164.010113 241.778355 
L 164.7305 174.627633 
L 165.090694 172.868435 
L 165.450888 162.148229 
L 165.811081 166.18021 
L 166.171275 167.993505 
L 166.531469 199.351062 
L 166.891662 135.043817 
L 167.251856 237.840281 
L 167.612049 253.757328 
L 167.972243 237.03379 
L 168.332437 249.573276 
L 168.69263 211.030917 
L 169.052824 229.168181 
L 169.413018 226.940485 
L 169.773211 231.444099 
L 170.133405 232.899754 
L 170.853792 275.911878 
L 171.213986 289.716431 
L 171.57418 284.983938 
L 171.934373 286.433281 
L 172.294567 302.429858 
L 173.014954 250.738622 
L 173.375148 213.240887 
L 173.735342 196.339445 
L 174.095535 193.011805 
L 174.455729 192.483171 
L 174.815923 190.977739 
L 175.53631 234.57108 
L 175.896503 258.924668 
L 176.256697 259.616795 
L 176.616891 269.416257 
L 176.977084 274.906153 
L 177.337278 242.834318 
L 177.697472 251.843113 
L 178.057665 254.169934 
L 178.417859 259.20773 
L 178.778053 269.659399 
L 179.138246 340.149907 
L 179.49844 294.400384 
L 180.579021 320.628806 
L 181.299408 283.262514 
L 181.659602 264.752807 
L 182.019796 223.786209 
L 182.379989 217.703176 
L 182.740183 197.729452 
L 183.100377 201.586145 
L 183.46057 222.825232 
L 183.820764 228.533485 
L 184.180958 265.464926 
L 184.541151 264.368441 
L 184.901345 277.301007 
L 185.261538 351.753975 
L 185.621732 272.963305 
L 185.981926 265.289877 
L 186.702313 257.723134 
L 187.062507 257.458132 
L 187.4227 250.560945 
L 188.143088 301.480642 
L 188.863475 323.810143 
L 189.223669 319.06034 
L 189.583862 300.270038 
L 189.944056 294.031565 
L 190.664443 226.213545 
L 191.024637 211.202932 
L 191.384831 206.242854 
L 191.745024 193.197999 
L 192.105218 217.456909 
L 192.465412 221.723092 
L 192.825605 240.783536 
L 193.185799 252.318268 
L 193.545992 282.389753 
L 193.906186 264.288241 
L 194.626573 245.425208 
L 194.986767 245.345574 
L 195.346961 242.283114 
L 195.707154 232.139371 
L 196.067348 252.208062 
L 196.427542 254.694321 
L 196.787735 280.725559 
L 197.508123 303.771755 
L 197.868316 301.772726 
L 198.22851 286.521483 
L 198.588704 283.070563 
L 198.948897 254.705014 
L 199.309091 205.970906 
L 199.669285 192.447098 
L 200.029478 185.933244 
L 200.389672 167.424795 
L 200.749866 189.538035 
L 201.110059 199.819479 
L 201.830446 238.217502 
L 202.19064 245.360033 
L 202.550834 244.369824 
L 202.911027 154.746237 
L 203.271221 225.502462 
L 203.631415 228.555705 
L 203.991608 221.088302 
L 204.351802 208.031911 
L 204.711996 231.830102 
L 205.432383 257.643477 
L 205.792577 271.580704 
L 206.15277 276.967939 
L 206.512964 297.22203 
L 207.593545 232.003351 
L 208.313932 170.786551 
L 208.674126 169.554517 
L 209.03432 154.921709 
L 209.394513 176.207824 
L 209.754707 185.791872 
L 210.1149 205.953448 
L 210.475094 242.149059 
L 210.835288 216.103962 
L 211.195481 235.931309 
L 211.555675 220.036791 
L 211.915869 228.208656 
L 212.276062 206.874466 
L 212.636256 211.643334 
L 212.99645 200.778063 
L 213.356643 232.544722 
L 213.716837 245.364181 
L 214.077031 244.90198 
L 214.437224 257.738261 
L 214.797418 275.793221 
L 215.157612 278.935727 
L 215.877999 251.220357 
L 216.598386 187.453192 
L 216.95858 162.924039 
L 217.318774 157.905993 
L 217.678967 160.568439 
L 218.039161 168.217919 
L 218.399354 186.068508 
L 218.759548 197.036205 
L 219.119742 234.538771 
L 219.479935 156.138216 
L 219.840129 246.00277 
L 220.200323 249.570154 
L 220.92071 214.0273 
L 221.280904 207.369164 
L 221.641097 235.192359 
L 222.001291 225.972415 
L 222.361485 248.435448 
L 222.721678 252.416916 
L 223.081872 295.420767 
L 223.442066 291.275744 
L 223.802259 304.49608 
L 224.522647 261.949308 
L 224.88284 257.121516 
L 225.243034 201.935845 
L 225.603228 192.696722 
L 225.963421 197.281769 
L 226.323615 185.207701 
L 226.683808 191.308748 
L 227.044002 224.070943 
L 227.404196 231.200442 
L 228.124583 261.244458 
L 228.484777 270.172897 
L 228.84497 269.032842 
L 229.565358 242.169463 
L 229.925551 235.779264 
L 230.285745 247.834672 
L 230.645939 268.946974 
L 231.006132 262.542914 
L 231.366326 285.496003 
L 231.72652 319.8083 
L 232.086713 318.154486 
L 232.446907 326.525633 
L 232.807101 315.146272 
L 233.527488 265.864592 
L 233.887682 249.109078 
L 234.247875 213.909913 
L 234.608069 205.70095 
L 234.968263 204.355086 
L 235.328456 211.11107 
L 235.68865 242.487471 
L 236.048843 251.336504 
L 236.409037 279.244075 
L 236.769231 290.768789 
L 237.129424 295.766797 
L 237.489618 281.482399 
L 237.849812 287.461955 
L 238.210005 270.973071 
L 238.570199 265.192657 
L 238.930393 263.28114 
L 239.290586 287.529201 
L 239.65078 295.61678 
L 240.010974 320.841437 
L 240.371167 332.249837 
L 240.731361 350.634888 
L 241.091555 344.929489 
L 241.811942 311.684739 
L 242.172136 277.688555 
L 242.532329 264.521205 
L 242.892523 234.494647 
L 243.252717 223.177144 
L 243.61291 227.044311 
L 243.973104 222.147338 
L 244.333297 258.505437 
L 244.693491 263.417947 
L 245.413878 311.357391 
L 245.774072 296.242908 
L 246.134266 299.141207 
L 246.494459 283.937267 
L 247.214847 266.358117 
L 247.57504 277.971325 
L 247.935234 262.685559 
L 249.015815 339.163816 
L 249.376009 331.129083 
L 249.736202 329.115913 
L 250.096396 332.87656 
L 250.45659 317.978138 
L 251.537171 220.810914 
L 251.897364 216.696051 
L 252.257558 227.809426 
L 252.617751 224.568732 
L 252.977945 235.843299 
L 254.058526 293.357666 
L 254.41872 293.455474 
L 254.778913 275.639414 
L 255.139107 267.31297 
L 255.499301 248.775918 
L 255.859494 260.169936 
L 256.219688 248.456026 
L 256.579882 276.61118 
L 257.300269 298.955336 
L 257.660463 322.208836 
L 258.020656 331.742012 
L 258.38085 325.362939 
L 258.741044 324.925248 
L 259.461431 256.747587 
L 260.542012 199.344237 
L 260.902205 194.754037 
L 261.262399 219.40525 
L 261.622593 218.915752 
L 261.982786 246.197886 
L 262.34298 246.446846 
L 262.703174 256.947597 
L 263.063367 256.683498 
L 263.423561 260.923014 
L 264.143948 242.412282 
L 264.504142 248.307002 
L 264.864336 228.939173 
L 265.224529 239.356861 
L 265.584723 264.824733 
L 266.30511 295.191785 
L 266.665304 302.352541 
L 267.025498 303.570104 
L 267.385691 300.080688 
L 268.106079 239.52377 
L 268.466272 224.42433 
L 269.186659 176.871114 
L 269.907047 189.237569 
L 270.987628 259.471678 
L 271.708015 242.416027 
L 272.068209 258.431742 
L 272.428402 260.050437 
L 273.14879 223.636681 
L 273.508983 235.927038 
L 273.869177 234.363154 
L 274.229371 244.707776 
L 274.949758 295.968317 
L 275.309952 289.978666 
L 275.670145 301.691225 
L 276.030339 288.75695 
L 276.390533 261.017218 
L 276.750726 244.682626 
L 277.11092 212.921911 
L 277.471114 204.295634 
L 277.831307 188.734086 
L 278.191501 185.13663 
L 278.551694 198.17319 
L 278.911888 202.513826 
L 279.632275 254.516337 
L 279.992469 273.994022 
L 280.712856 241.582918 
L 281.07305 244.327765 
L 281.433244 250.023687 
L 281.793437 221.394841 
L 282.513825 242.887989 
L 282.874018 275.62939 
L 283.234212 276.376558 
L 283.594406 305.323932 
L 283.954599 306.98187 
L 284.314793 316.680902 
L 284.674987 302.153171 
L 285.395374 254.130362 
L 285.755568 243.954423 
L 286.115761 217.68656 
L 286.475955 204.604323 
L 286.836148 199.815188 
L 287.196342 210.016919 
L 287.556536 232.840836 
L 287.916729 243.762058 
L 288.276923 286.596082 
L 288.637117 277.527499 
L 288.99731 280.848834 
L 289.357504 271.311131 
L 289.717698 269.314538 
L 290.077891 274.848225 
L 290.438085 276.81552 
L 290.798279 266.71856 
L 291.158472 281.637052 
L 291.87886 320.976839 
L 292.239053 324.151329 
L 292.599247 341.267738 
L 292.959441 335.077603 
L 293.319634 334.877944 
L 293.679828 301.78385 
L 294.040022 283.127035 
L 294.400215 253.384953 
L 294.760409 241.316108 
L 295.120602 236.41275 
L 295.480796 238.781836 
L 295.84099 254.28972 
L 296.201183 252.088633 
L 296.561377 279.687747 
L 296.921571 278.54972 
L 297.281764 307.484033 
L 297.641958 308.515503 
L 298.362345 294.648734 
L 298.722539 269.333873 
L 299.082733 281.890458 
L 299.442926 272.786119 
L 299.80312 282.166827 
L 300.163314 326.277638 
L 300.523507 343.583609 
L 300.883701 349.547767 
L 301.243895 359.663406 
L 301.604088 352.768009 
L 301.964282 351.859889 
L 302.324476 323.213274 
L 302.684669 234.790139 
L 303.044863 279.640145 
L 303.405056 259.926072 
L 304.125444 249.65701 
L 304.485637 255.443334 
L 304.845831 270.897831 
L 305.206025 295.561204 
L 305.566218 305.904027 
L 305.926412 309.234651 
L 306.286606 313.722649 
L 306.646799 316.509446 
L 307.367187 298.815395 
L 307.72738 299.683997 
L 308.087574 286.353878 
L 308.447768 310.999975 
L 308.807961 318.136468 
L 309.528349 360.192922 
L 309.888542 353.154533 
L 310.248736 366.295426 
L 311.329317 290.623442 
L 312.409898 243.642527 
L 312.770091 243.704119 
L 313.130285 255.604893 
L 313.490479 263.357021 
L 313.850672 288.506361 
L 314.57106 301.127739 
L 314.931253 302.815121 
L 315.291447 296.495455 
L 315.651641 295.627382 
L 316.011834 277.562937 
L 316.372028 277.576324 
L 316.732222 285.553315 
L 317.092415 276.394662 
L 317.452609 291.370559 
L 317.812803 319.432779 
L 318.172996 318.77684 
L 318.53319 327.402121 
L 318.893384 327.770239 
L 319.253577 308.622778 
L 319.613771 304.873668 
L 320.694352 223.889676 
L 321.054545 223.29469 
L 321.414739 231.34473 
L 321.774933 224.28996 
L 322.49532 242.277427 
L 322.855514 269.513348 
L 323.215707 269.955497 
L 323.575901 274.795137 
L 323.936095 267.670215 
L 324.296288 256.128299 
L 324.656482 262.222305 
L 325.016676 253.900706 
L 325.376869 254.878557 
L 325.737063 262.995301 
L 326.097257 260.820261 
L 326.45745 287.842128 
L 326.817644 369.36 
L 327.177838 299.702312 
L 327.538031 293.909532 
L 327.898225 292.322215 
L 328.258419 264.08186 
L 328.618612 253.246616 
L 328.978806 238.836503 
L 329.338999 230.92025 
L 329.699193 198.695673 
L 330.059387 208.074389 
L 330.41958 202.638808 
L 330.779774 227.027719 
L 331.139968 242.478293 
L 331.500161 239.525761 
L 331.860355 265.952395 
L 332.220549 259.819649 
L 332.580742 262.001144 
L 332.940936 237.427367 
L 333.30113 243.63854 
L 333.661323 238.117142 
L 334.021517 237.841283 
L 334.741904 250.65574 
L 335.102098 273.823969 
L 336.182679 302.759886 
L 337.623453 222.36205 
L 337.983647 219.768823 
L 338.343841 209.499786 
L 338.704034 195.335855 
L 339.424422 216.177877 
L 340.144809 250.052627 
L 340.505003 247.648096 
L 340.865196 256.362654 
L 341.22539 247.276654 
L 341.585584 250.65676 
L 341.945777 245.085897 
L 342.305971 235.65338 
L 342.666165 234.248186 
L 343.026358 254.053125 
L 343.386552 254.332861 
L 343.746746 284.894821 
L 344.467133 301.094085 
L 345.18752 285.057488 
L 345.907907 252.710169 
L 346.268101 227.401725 
L 346.628295 219.020296 
L 346.988488 204.028649 
L 347.348682 206.009861 
L 347.708876 210.656413 
L 348.429263 246.672278 
L 349.14965 273.016541 
L 349.509844 269.672598 
L 349.870038 271.549191 
L 350.230231 270.898281 
L 350.590425 246.649096 
L 350.950619 246.102143 
L 351.310812 244.138452 
L 352.0312 280.324293 
L 352.391393 287.783348 
L 352.751587 308.483223 
L 353.111781 319.418783 
L 353.471974 316.821852 
L 355.633136 215.930279 
L 355.99333 219.325835 
L 356.353523 240.07536 
L 356.713717 248.842269 
L 357.073911 251.076873 
L 357.434104 263.086608 
L 357.794298 282.406766 
L 358.154492 281.57558 
L 358.514685 267.481121 
L 358.874879 272.428066 
L 359.235073 269.951599 
L 359.595266 261.51704 
L 360.675847 284.034146 
L 361.396235 316.284666 
L 361.756428 325.039216 
L 362.116622 319.364174 
L 362.476815 309.24674 
L 362.837009 286.529622 
L 363.197203 272.598063 
L 363.557396 253.390156 
L 363.91759 223.362223 
L 364.277784 238.56044 
L 364.637977 229.699704 
L 364.998171 224.221739 
L 366.078752 284.527367 
L 366.438946 284.934142 
L 366.799139 290.168627 
L 367.159333 293.47062 
L 367.519527 258.5134 
L 368.239914 270.291008 
L 368.600108 254.35422 
L 368.960301 279.20491 
L 369.320495 289.124172 
L 369.680689 302.265523 
L 370.040882 303.772656 
L 370.401076 314.828256 
L 370.761269 309.400346 
L 371.481657 284.655233 
L 371.84185 263.494853 
L 372.202044 250.974272 
L 372.562238 228.455238 
L 372.922431 219.708209 
L 373.282625 218.768004 
L 374.7234 262.560707 
L 375.083593 258.824655 
L 375.443787 273.851669 
L 375.803981 260.52401 
L 376.164174 255.465807 
L 376.524368 258.208174 
L 377.244755 245.544088 
L 377.604949 244.099031 
L 377.965143 257.04156 
L 378.325336 278.399046 
L 378.68553 287.923489 
L 379.045724 300.723861 
L 379.405917 289.822117 
L 379.766111 285.537535 
L 380.126304 263.193206 
L 380.486498 255.066475 
L 380.846692 216.333049 
L 381.206885 208.111448 
L 381.567079 205.669394 
L 381.927273 195.993254 
L 382.287466 204.885139 
L 382.64766 201.614724 
L 383.007854 228.277367 
L 383.368047 228.254381 
L 383.728241 251.998521 
L 384.088435 252.636149 
L 384.448628 236.877038 
L 384.808822 244.838521 
L 385.169016 225.839673 
L 385.529209 220.976698 
L 385.889403 212.769324 
L 386.60979 240.573639 
L 386.969984 247.100359 
L 387.330178 259.545871 
L 387.690371 266.602096 
L 388.050565 281.035988 
L 388.410758 268.099097 
L 389.851533 181.616927 
L 390.211727 168.07542 
L 390.57192 179.343004 
L 390.932114 179.98789 
L 391.292308 186.911804 
L 391.652501 209.025458 
L 392.012695 214.562637 
L 392.372889 228.364373 
L 392.733082 235.444786 
L 393.093276 221.310481 
L 393.45347 224.81429 
L 393.813663 203.821593 
L 394.173857 207.54799 
L 394.534051 203.116482 
L 395.254438 223.67153 
L 395.614632 239.260683 
L 395.974825 261.60533 
L 396.335019 273.596507 
L 397.055406 250.334004 
L 397.4156 244.348505 
L 397.775793 213.830495 
L 398.496181 179.60284 
L 398.856374 168.201565 
L 399.216568 163.749827 
L 401.017536 227.151168 
L 401.37773 230.189985 
L 401.737924 229.049606 
L 402.098117 220.131969 
L 402.458311 205.204488 
L 402.818505 212.274609 
L 403.178698 208.851569 
L 403.538892 215.065925 
L 403.899086 226.662202 
L 404.259279 243.341305 
L 404.619473 266.274155 
L 404.979666 262.101268 
L 405.33986 268.951981 
L 405.700054 263.162381 
L 406.060247 241.876467 
L 406.420441 211.875914 
L 406.780635 213.734079 
L 407.501022 175.906971 
L 407.861216 173.278383 
L 408.221409 198.575568 
L 408.581603 200.63268 
L 408.941797 215.533728 
L 409.30199 223.097507 
L 409.662184 235.822588 
L 410.022378 231.481169 
L 410.382571 231.648183 
L 410.742765 230.265321 
L 411.102959 213.439821 
L 411.463152 154.314072 
L 411.823346 213.056136 
L 412.18354 225.327725 
L 412.543733 244.349079 
L 412.903927 271.043483 
L 413.26412 270.893288 
L 413.624314 301.364226 
L 413.984508 294.528137 
L 414.344701 281.932618 
L 414.704895 252.302842 
L 415.065089 236.985198 
L 415.785476 193.896419 
L 416.505863 186.123775 
L 416.866057 209.778209 
L 417.226251 213.300107 
L 417.586444 239.980767 
L 417.946638 242.04675 
L 418.306832 253.278846 
L 418.667025 258.489421 
L 419.027219 253.494832 
L 419.387413 252.260674 
L 419.747606 239.055052 
L 420.1078 234.062934 
L 420.467994 221.426754 
L 420.828187 238.21325 
L 421.188381 248.425671 
L 421.548575 270.382192 
L 422.629155 303.727228 
L 422.989349 287.326333 
L 423.349543 282.135822 
L 423.709736 235.416004 
L 424.06993 214.7039 
L 424.790317 198.946701 
L 425.150511 200.187141 
L 425.510705 202.022478 
L 426.231092 237.493783 
L 426.591286 256.752276 
L 426.951479 261.043592 
L 427.311673 257.545268 
L 427.671867 243.644382 
L 428.03206 238.829332 
L 428.392254 244.253165 
L 428.752448 229.560755 
L 429.112641 224.902682 
L 430.193222 266.266238 
L 430.553416 271.245283 
L 430.913609 290.052679 
L 431.273803 289.973968 
L 431.633997 277.078996 
L 432.714578 210.772453 
L 433.074771 214.704318 
L 433.795159 180.43149 
L 434.155352 190.687476 
L 434.515546 210.708972 
L 434.87574 208.287957 
L 435.235933 233.014711 
L 435.596127 242.193944 
L 435.956321 236.263836 
L 436.316514 236.847497 
L 436.676708 235.30281 
L 437.036902 214.069186 
L 437.397095 218.235415 
L 437.757289 212.774597 
L 438.83787 243.75466 
L 439.198063 266.136774 
L 439.558257 270.202489 
L 439.918451 269.423861 
L 440.278644 247.764635 
L 440.638838 242.534323 
L 441.359225 192.635001 
L 441.719419 180.968385 
L 442.079613 165.223986 
L 442.439806 157.240069 
L 442.8 170.97168 
L 443.160194 176.391357 
L 443.880581 222.318841 
L 444.240775 209.998019 
L 444.600968 207.906552 
L 444.961162 210.545147 
L 445.321356 205.893271 
L 445.681549 187.92113 
L 446.041743 196.217932 
L 446.401937 192.036042 
L 446.76213 196.319229 
L 447.122324 204.53358 
L 447.482517 227.946974 
L 447.842711 235.321999 
L 448.202905 247.904579 
L 448.563098 250.986789 
L 450.003873 177.914539 
L 450.364067 147.674122 
L 451.084454 135.824538 
L 451.444648 146.684697 
L 452.525229 192.834347 
L 452.885422 212.898866 
L 453.245616 196.979516 
L 453.60581 197.489922 
L 453.966003 195.590483 
L 454.326197 177.941836 
L 454.686391 172.491246 
L 455.046584 179.483085 
L 455.406778 200.310464 
L 455.766971 185.523767 
L 456.487359 235.102548 
L 456.847552 239.9222 
L 457.207746 227.791227 
L 457.56794 208.605297 
L 457.928133 224.441653 
L 458.288327 186.352445 
L 458.648521 162.007772 
L 459.008714 147.305267 
L 459.729102 132.459307 
L 460.089295 141.384167 
L 460.809683 183.422549 
L 461.53007 193.103973 
L 462.250457 197.565034 
L 462.610651 192.277028 
L 462.970845 181.747097 
L 463.331038 160.460005 
L 463.691232 184.874238 
L 464.051425 187.434098 
L 464.411619 193.879022 
L 464.771813 213.947775 
L 465.132006 222.724299 
L 465.4922 237.322879 
L 465.852394 238.033712 
L 466.572781 216.965732 
L 467.293168 179.916121 
L 467.653362 141.185937 
L 468.013556 152.508358 
L 468.373749 150.544417 
L 468.733943 155.448939 
L 469.094137 171.555113 
L 469.45433 176.431965 
L 469.814524 199.378444 
L 470.534911 209.702093 
L 470.895105 214.053377 
L 471.615492 193.286021 
L 471.975686 189.475453 
L 472.33588 193.263904 
L 472.696073 195.871862 
L 473.056267 202.52996 
L 473.41646 233.097808 
L 473.776654 240.879647 
L 474.136848 251.069924 
L 474.497041 249.228559 
L 474.857235 244.293248 
L 475.217429 226.423083 
L 475.577622 202.640919 
L 475.937816 193.68903 
L 476.29801 174.184173 
L 476.658203 145.770009 
L 477.018397 162.898706 
L 477.738784 184.160881 
L 478.459172 226.857471 
L 478.819365 217.300227 
L 479.179559 212.251321 
L 479.539753 210.636335 
L 479.899946 215.593175 
L 480.980527 197.879499 
L 481.340721 219.592426 
L 481.700914 227.970639 
L 482.421302 261.487168 
L 482.781495 267.687684 
L 483.141689 271.205042 
L 483.862076 232.636811 
L 484.22227 197.661405 
L 484.582464 192.70628 
L 484.942657 191.285113 
L 485.302851 190.562609 
L 486.023238 190.766324 
L 486.383432 192.553384 
L 486.743626 192.847799 
L 487.103819 195.667914 
L 487.464013 197.505736 
L 487.824207 197.501963 
L 488.1844 197.692999 
L 488.544594 193.820214 
L 488.904788 194.264198 
L 489.264981 192.790022 
L 489.625175 193.855139 
L 489.985368 193.790991 
L 490.705756 196.006275 
L 491.065949 198.476897 
L 491.426143 199.33708 
L 491.786337 198.338554 
L 492.14653 196.89419 
L 492.506724 194.832944 
L 493.227111 188.084274 
L 493.587305 186.937759 
L 493.947499 185.265107 
L 494.667886 184.871242 
L 495.02808 187.765764 
L 495.748467 190.435936 
L 496.108661 189.559022 
L 496.468854 191.594926 
L 496.829048 190.533475 
L 497.549435 187.215461 
L 497.909629 185.850696 
L 498.269822 186.92171 
L 498.630016 185.79737 
L 498.99021 189.800856 
L 499.350403 191.472641 
L 499.710597 191.779637 
L 500.070791 190.999028 
L 500.430984 191.654176 
L 500.791178 190.136963 
L 501.151372 189.490993 
L 501.511565 185.765772 
L 501.871759 183.239589 
L 502.231953 178.936473 
L 502.592146 177.500552 
L 502.95234 177.929696 
L 503.312534 185.824438 
L 503.672727 181.133761 
L 504.032921 182.52756 
L 504.753308 183.896797 
L 505.113502 182.526225 
L 505.473696 183.65412 
L 505.833889 182.993998 
L 506.554276 181.025658 
L 506.91447 180.209656 
L 507.634857 181.740678 
L 507.995051 184.47708 
L 508.355245 186.005514 
L 508.715438 184.983586 
L 509.075632 185.09183 
L 510.156213 180.334675 
L 510.516407 175.422234 
L 511.236794 172.208774 
L 511.596988 172.434356 
L 512.317375 174.115956 
L 512.677569 176.877551 
L 513.037762 177.657084 
L 513.397956 177.900027 
L 513.75815 179.310225 
L 514.118343 178.358933 
L 514.478537 176.252721 
L 514.838731 176.04411 
L 515.559118 173.54686 
L 515.919311 175.361204 
L 516.279505 176.085199 
L 516.999892 180.996481 
L 517.360086 181.531612 
L 517.72028 180.844449 
L 518.440667 178.616277 
L 518.800861 173.027382 
L 519.161054 171.884833 
L 519.521248 168.305683 
L 519.881442 169.076535 
L 520.241635 166.964282 
L 520.962023 170.519779 
L 521.322216 171.372654 
L 521.68241 173.446427 
L 522.042604 174.650926 
L 522.402797 174.056657 
L 522.762991 173.698831 
L 523.123185 172.914285 
L 523.483378 170.894816 
L 523.843572 170.798863 
L 524.203765 171.913455 
L 524.563959 171.819298 
L 524.924153 175.126638 
L 525.284346 175.335263 
L 525.64454 176.921805 
L 526.004734 177.961811 
L 526.364927 185.148469 
L 526.725121 176.616352 
L 527.085315 174.074933 
L 527.445508 170.388292 
L 527.805702 168.895522 
L 528.526089 163.901018 
L 529.60667 167.320158 
L 529.966864 169.959915 
L 530.327058 171.257521 
L 531.047445 172.269434 
L 531.407639 172.456311 
L 531.767832 169.685446 
L 532.128026 169.07256 
L 532.488219 168.698841 
L 532.848413 170.517848 
L 533.208607 170.413577 
L 533.5688 171.495654 
L 533.928994 173.224614 
L 534.289188 174.100008 
L 534.649381 175.776313 
L 535.009575 175.583863 
L 535.729962 172.491893 
L 536.090156 170.254986 
L 536.45035 166.93175 
L 537.170737 164.473563 
L 537.530931 163.234594 
L 537.891124 163.505906 
L 538.251318 166.608041 
L 538.971705 169.606564 
L 539.331899 170.640103 
L 539.692093 170.304628 
L 540.052286 168.852284 
L 540.41248 169.655265 
L 540.772673 166.880893 
L 541.132867 166.53643 
L 541.493061 166.694971 
L 541.853254 168.724235 
L 542.213448 169.742103 
L 542.573642 172.007021 
L 542.933835 172.297744 
L 543.294029 173.611016 
L 543.654223 172.868902 
L 544.014416 172.597337 
L 544.37461 169.296221 
L 544.734804 167.211943 
L 545.094997 163.677512 
L 545.455191 161.976131 
L 545.815385 162.409532 
L 546.175578 159.066692 
L 546.895966 161.211567 
L 547.256159 164.896105 
L 547.616353 165.372316 
L 547.976547 166.727804 
L 548.33674 166.208249 
L 548.696934 166.427605 
L 549.057127 165.614323 
L 549.417321 162.658238 
L 549.777515 165.08899 
L 550.137708 163.265844 
L 550.497902 164.311032 
L 550.858096 166.63372 
L 551.218289 167.273651 
L 551.578483 168.279398 
L 551.938677 168.557811 
L 552.29887 169.96816 
L 553.019258 164.207455 
L 553.379451 162.88027 
L 553.739645 159.676762 
L 554.099839 158.044882 
L 554.460032 155.341311 
L 555.18042 156.358533 
L 555.540613 158.297514 
L 555.900807 159.496226 
L 556.261001 159.27104 
L 556.621194 161.315165 
L 556.981388 160.783395 
L 557.341581 159.62028 
L 557.701775 159.518895 
L 558.061969 156.586862 
L 558.422162 156.258225 
L 558.782356 156.495258 
L 559.502743 158.347679 
L 559.862937 153.29806 
L 560.223131 163.452304 
L 560.583324 164.168588 
L 561.663905 160.343328 
L 562.744486 149.314957 
L 563.10468 148.688205 
L 563.464874 149.447842 
L 563.825067 148.814043 
L 564.185261 150.119917 
L 564.545455 152.064853 
L 565.265842 153.937688 
L 565.626036 154.236808 
L 565.986229 153.568133 
L 566.346423 151.764564 
L 567.06681 151.187222 
L 567.427004 150.744282 
L 567.787197 151.273626 
L 568.147391 150.963393 
L 568.507585 155.698517 
L 569.227972 157.579818 
L 569.588166 156.380487 
L 569.948359 155.685717 
L 570.308553 151.768652 
L 570.668747 150.321122 
L 571.02894 145.860559 
L 571.749328 141.530841 
L 572.109521 143.129002 
L 572.469715 144.036637 
L 572.829909 143.829408 
L 573.550296 148.996804 
L 573.91049 149.782526 
L 574.270683 149.639773 
L 574.99107 147.635458 
L 575.711458 144.279273 
L 576.071651 144.37995 
L 576.792039 147.54751 
L 577.152232 151.064793 
L 577.512426 150.344846 
L 577.87262 151.443066 
L 578.232813 151.018137 
L 578.593007 150.082362 
L 578.953201 147.505013 
L 579.313394 146.514158 
L 579.673588 142.062712 
L 580.033782 139.024864 
L 580.393975 138.013276 
L 581.114363 139.427642 
L 581.474556 139.725944 
L 581.83475 142.601249 
L 582.194944 143.903588 
L 582.555137 143.900231 
L 582.915331 144.984675 
L 583.995912 142.573935 
L 584.356105 143.114045 
L 584.716299 142.251525 
L 585.076493 142.584728 
L 585.436686 144.459234 
L 585.79688 147.6636 
L 586.157074 145.974822 
L 586.877461 148.998321 
L 587.237655 141.987085 
L 587.597848 144.380039 
L 587.958042 142.172675 
L 588.318236 138.855795 
L 588.678429 136.61153 
L 589.038623 136.333348 
L 589.398817 136.447033 
L 589.75901 136.956567 
L 590.119204 138.961838 
L 590.479398 139.847151 
L 590.839591 142.457379 
L 591.199785 140.949436 
L 591.559978 142.402892 
L 591.920172 142.47222 
L 592.280366 140.528814 
L 592.640559 140.539397 
L 593.000753 138.742165 
L 593.360947 138.93911 
L 593.72114 139.584348 
L 594.081334 140.737067 
L 594.441528 144.956575 
L 594.801721 145.774243 
L 595.522109 146.439517 
L 595.882302 145.382841 
L 596.242496 143.663116 
L 596.962883 137.649688 
L 597.323077 134.77245 
L 597.683271 135.501547 
L 598.043464 135.359272 
L 598.403658 134.753069 
L 598.763852 136.134623 
L 599.484239 140.469927 
L 599.844432 140.325969 
L 600.204626 140.495739 
L 600.56482 140.278265 
L 601.285207 137.591463 
L 601.645401 137.361634 
L 602.005594 136.705242 
L 602.365788 137.615704 
L 602.725982 140.763279 
L 603.086175 141.30686 
L 603.446369 143.765137 
L 603.806563 145.303888 
L 604.166756 143.807046 
L 604.52695 141.694116 
L 604.887144 141.650865 
L 605.247337 137.037768 
L 605.967725 132.199019 
L 606.327918 131.126991 
L 606.688112 131.029214 
L 607.048306 131.692818 
L 607.408499 133.405702 
L 607.768693 134.461575 
L 608.128886 134.575023 
L 608.48908 137.460398 
L 609.209467 136.424752 
L 609.569661 134.941593 
L 609.929855 134.521875 
L 610.290048 134.3192 
L 610.650242 135.463484 
L 611.010436 134.040533 
L 611.370629 135.785558 
L 611.730823 138.46679 
L 612.091017 139.592009 
L 612.45121 140.166583 
L 612.811404 139.657934 
L 613.171598 138.366967 
L 614.252179 129.904416 
L 614.612372 125.937738 
L 614.972566 126.667305 
L 615.33276 125.384091 
L 615.692953 126.383875 
L 616.053147 128.635026 
L 616.413341 129.60751 
L 616.773534 132.623148 
L 617.133728 131.550097 
L 617.493921 131.804613 
L 617.854115 131.519463 
L 618.214309 128.421053 
L 618.574502 129.191475 
L 618.934696 127.470063 
L 619.29489 127.734512 
L 619.655083 129.954474 
L 620.015277 129.655115 
L 620.735664 132.873185 
L 621.095858 133.067134 
L 621.456052 133.042801 
L 622.536633 125.151952 
L 623.25702 122.046759 
L 623.617214 117.875001 
L 623.977407 119.638586 
L 624.337601 120.135253 
L 624.697795 122.670439 
L 625.057988 122.92949 
L 625.418182 125.089484 
L 625.778375 124.974857 
L 626.138569 123.88494 
L 626.498763 124.846894 
L 626.858956 123.350496 
L 627.21915 122.428509 
L 627.579344 119.994048 
L 628.299731 122.580459 
L 628.659925 123.223882 
L 629.020118 125.714628 
L 629.380312 126.587402 
L 629.740506 127.859308 
L 630.100699 127.471162 
L 630.821087 123.325317 
L 631.18128 119.20547 
L 631.901668 114.314087 
L 632.261861 113.748409 
L 632.622055 112.404257 
L 632.982249 112.194197 
L 633.342442 115.275628 
L 633.702636 116.96047 
L 634.062829 118.019122 
L 634.423023 118.046436 
L 634.783217 118.301605 
L 635.14341 118.795362 
L 635.863798 115.748277 
L 636.223991 116.306297 
L 636.584185 116.012885 
L 636.944379 115.146962 
L 637.664766 119.75906 
L 638.385153 122.101994 
L 638.745347 130.863657 
L 639.105541 120.707993 
L 639.465734 118.146066 
L 639.825928 114.618485 
L 640.186122 112.989852 
L 640.546315 102.76849 
L 640.906509 109.586688 
L 641.266703 107.814791 
L 641.626896 108.294708 
L 642.347283 113.832084 
L 642.707477 114.043825 
L 643.067671 115.15964 
L 643.427864 115.240361 
L 643.788058 115.15202 
L 644.148252 114.694007 
L 644.508445 113.902212 
L 644.868639 111.7185 
L 645.228833 113.354305 
L 645.589026 113.633312 
L 645.94922 115.714075 
L 646.309414 115.834726 
L 646.669607 119.095337 
L 647.389995 118.65309 
L 647.750188 115.690308 
L 648.110382 115.788852 
L 648.470576 111.295019 
L 648.830769 110.574729 
L 649.551157 106.396404 
L 649.91135 105.331294 
L 650.271544 106.234663 
L 650.631737 109.408558 
L 650.991931 109.670811 
L 651.712318 114.054581 
L 652.072512 114.813183 
L 652.792899 111.599643 
L 653.153093 111.69998 
L 653.513287 109.694581 
L 653.87348 110.123179 
L 654.233674 112.338688 
L 654.593868 112.214493 
L 654.954061 114.193678 
L 655.314255 115.32632 
L 655.674449 115.901978 
L 656.034642 117.160575 
L 656.394836 117.363633 
L 657.475417 107.574493 
L 657.835611 106.265742 
L 658.195804 104.451294 
L 658.555998 103.213537 
L 658.916192 106.056408 
L 659.636579 109.157723 
L 659.996772 109.550838 
L 660.356966 110.872049 
L 660.71716 110.203245 
L 661.077353 111.401423 
L 661.437547 109.286076 
L 661.797741 108.31028 
L 662.157934 106.877942 
L 662.518128 109.490168 
L 662.878322 110.279463 
L 663.238515 110.525894 
L 663.598709 112.9874 
L 663.958903 112.226392 
L 664.319096 115.121584 
L 665.039484 112.834233 
L 665.399677 110.344345 
L 665.759871 106.571791 
L 666.120065 104.192541 
L 666.480258 102.907588 
L 666.840452 102.658294 
L 667.200646 101.474913 
L 667.921033 104.340936 
L 668.281226 104.463899 
L 668.64142 105.793001 
L 669.001614 107.667844 
L 669.361807 106.419007 
L 669.722001 105.9632 
L 670.082195 106.288673 
L 670.442388 103.926089 
L 670.802582 104.492763 
L 671.162776 103.020148 
L 671.522969 105.615146 
L 672.60355 108.7143 
L 672.963744 110.577262 
L 673.323938 110.014157 
L 673.684131 107.629217 
L 674.044325 106.344829 
L 674.404519 102.069693 
L 674.764712 101.250628 
L 675.124906 97.038368 
L 675.4851 96.7052 
L 675.845293 96.074837 
L 676.56568 97.939095 
L 676.925874 99.695339 
L 677.286068 103.154798 
L 677.646261 102.771145 
L 678.366649 100.914372 
L 678.726842 100.499093 
L 679.087036 100.514137 
L 679.44723 97.80537 
L 679.807423 98.115803 
L 680.167617 98.823622 
L 680.527811 100.297196 
L 680.888004 103.308354 
L 681.248198 101.591341 
L 681.608392 103.977507 
L 681.968585 102.697513 
L 682.328779 102.251087 
L 683.049166 96.235858 
L 683.769554 91.167279 
L 684.129747 91.04417 
L 684.489941 88.350412 
L 685.210328 90.713387 
L 685.570522 93.389635 
L 685.930715 94.047733 
L 686.290909 96.252258 
L 686.651103 94.465352 
L 687.011296 95.215346 
L 687.731684 90.355708 
L 688.091877 91.348683 
L 688.452071 91.620915 
L 688.812265 92.258082 
L 689.172458 93.127468 
L 689.532652 94.544309 
L 689.892846 97.408746 
L 690.253039 98.213588 
L 690.613233 97.782907 
L 690.973427 95.999497 
L 692.054008 86.037663 
L 692.414201 84.809905 
L 692.774395 84.450897 
L 693.134588 82.082367 
L 693.854976 86.063986 
L 694.215169 86.387706 
L 694.575363 88.573063 
L 694.935557 89.785453 
L 695.29575 88.41227 
L 695.655944 88.592431 
L 696.016138 89.126464 
L 696.376331 85.867972 
L 696.736525 84.96074 
L 697.096719 84.830057 
L 697.456912 86.497246 
L 697.817106 87.637089 
L 698.1773 90.561306 
L 698.537493 92.33875 
L 698.897687 92.74709 
L 699.257881 90.506664 
L 699.618074 90.384907 
L 699.978268 88.664077 
L 700.698655 82.143231 
L 701.058849 81.115722 
L 701.419042 79.173289 
L 701.779236 78.371669 
L 702.13943 80.648585 
L 702.859817 82.387673 
L 703.220011 84.561297 
L 703.940398 86.360664 
L 704.660785 84.620875 
L 705.020979 82.767838 
L 705.381173 82.54145 
L 705.741366 83.960933 
L 706.10156 84.432103 
L 706.461754 84.68726 
L 707.542335 89.730271 
L 708.262722 87.860561 
L 708.983109 83.220292 
L 709.343303 81.169382 
L 709.703497 77.891438 
L 710.06369 77.811127 
L 710.423884 76.980648 
L 710.784077 78.296555 
L 711.144271 78.491861 
L 711.504465 79.742477 
L 711.864658 81.613169 
L 712.224852 84.293414 
L 712.585046 82.747373 
L 712.945239 83.658553 
L 713.305433 81.490216 
L 713.665627 81.172477 
L 714.02582 79.72347 
L 714.386014 79.367611 
L 714.746208 81.814831 
L 715.106401 81.662184 
L 715.466595 82.62325 
L 715.826789 87.489839 
L 716.186982 87.293713 
L 716.90737 86.165521 
L 717.267563 84.916074 
L 717.627757 80.311724 
L 718.348144 76.126491 
L 718.708338 75.376028 
L 719.068531 74.976966 
L 719.428725 75.48005 
L 720.149112 79.09736 
L 720.8695 82.392098 
L 721.229693 82.938232 
L 721.589887 80.640595 
L 722.310274 78.297597 
L 722.670468 78.137579 
L 723.030662 77.42257 
L 723.390855 79.809597 
L 723.751049 81.090852 
L 724.111243 83.839758 
L 724.471436 84.393138 
L 724.83163 85.205229 
L 725.191824 86.708266 
L 725.552017 82.888303 
L 725.912211 82.233493 
L 726.632598 75.530788 
L 726.992792 72.355084 
L 727.352985 72.152405 
L 727.713179 71.017855 
L 728.073373 72.626001 
L 728.433566 72.938946 
L 728.79376 76.219599 
L 729.514147 77.920062 
L 729.874341 77.562707 
L 730.234535 76.050418 
L 730.594728 76.629451 
L 730.954922 75.206119 
L 731.315116 74.642232 
L 731.675309 73.71804 
L 732.035503 74.527044 
L 732.395697 77.544079 
L 732.75589 78.179926 
L 733.476278 80.223865 
L 733.836471 79.315308 
L 734.196665 78.886876 
L 734.917052 72.97072 
L 735.637439 69.96966 
L 735.997633 67.07261 
L 736.357827 68.001523 
L 736.71802 66.96 
L 737.438408 70.93917 
L 737.798601 73.389019 
L 738.158795 72.96077 
L 738.518989 72.100689 
L 738.879182 72.287703 
L 739.239376 70.15758 
L 739.59957 70.483802 
L 739.959763 68.818176 
L 740.319957 69.677705 
L 740.680151 69.154382 
L 741.040344 72.495058 
L 741.400538 73.069099 
L 741.760732 73.331252 
L 742.481119 74.786132 
L 742.841313 73.927998 
L 743.201506 71.586672 
L 743.201506 71.586672 
" style="fill:none;stroke:#1f77b4;stroke-linecap:square;stroke-width:1.5;"/>
   </g>
   <g id="line2d_15">
    <path clip-path="url(#p1868431d7d)" d="M 747.163636 384.48 
L 747.163636 51.84 
" style="fill:none;stroke:#808080;stroke-linecap:square;"/>
   </g>
   <g id="patch_119">
    <path d="M 108 384.48 
L 108 51.84 
" style="fill:none;stroke:#000000;stroke-linecap:square;stroke-linejoin:miter;stroke-width:0.8;"/>
   </g>
   <g id="patch_120">
    <path d="M 777.6 384.48 
L 777.6 51.84 
" style="fill:none;stroke:#000000;stroke-linecap:square;stroke-linejoin:miter;stroke-width:0.8;"/>
   </g>
   <g id="patch_121">
    <path d="M 108 384.48 
L 777.6 384.48 
" style="fill:none;stroke:#000000;stroke-linecap:square;stroke-linejoin:miter;stroke-width:0.8;"/>
   </g>
   <g id="patch_122">
    <path d="M 108 51.84 
L 777.6 51.84 
" style="fill:none;stroke:#000000;stroke-linecap:square;stroke-linejoin:miter;stroke-width:0.8;"/>
   </g>
   <g id="text_16">
    <!-- A4Benchmark-TS62.csv -->
    <defs>
     <path d="M 34.1875 63.1875 
L 20.796875 26.90625 
L 47.609375 26.90625 
z
M 28.609375 72.90625 
L 39.796875 72.90625 
L 67.578125 0 
L 57.328125 0 
L 50.6875 18.703125 
L 17.828125 18.703125 
L 11.1875 0 
L 0.78125 0 
z
" id="DejaVuSans-65"/>
     <path d="M 37.796875 64.3125 
L 12.890625 25.390625 
L 37.796875 25.390625 
z
M 35.203125 72.90625 
L 47.609375 72.90625 
L 47.609375 25.390625 
L 58.015625 25.390625 
L 58.015625 17.1875 
L 47.609375 17.1875 
L 47.609375 0 
L 37.796875 0 
L 37.796875 17.1875 
L 4.890625 17.1875 
L 4.890625 26.703125 
z
" id="DejaVuSans-52"/>
     <path d="M 19.671875 34.8125 
L 19.671875 8.109375 
L 35.5 8.109375 
Q 43.453125 8.109375 47.28125 11.40625 
Q 51.125 14.703125 51.125 21.484375 
Q 51.125 28.328125 47.28125 31.5625 
Q 43.453125 34.8125 35.5 34.8125 
z
M 19.671875 64.796875 
L 19.671875 42.828125 
L 34.28125 42.828125 
Q 41.5 42.828125 45.03125 45.53125 
Q 48.578125 48.25 48.578125 53.8125 
Q 48.578125 59.328125 45.03125 62.0625 
Q 41.5 64.796875 34.28125 64.796875 
z
M 9.8125 72.90625 
L 35.015625 72.90625 
Q 46.296875 72.90625 52.390625 68.21875 
Q 58.5 63.53125 58.5 54.890625 
Q 58.5 48.1875 55.375 44.234375 
Q 52.25 40.28125 46.1875 39.3125 
Q 53.46875 37.75 57.5 32.78125 
Q 61.53125 27.828125 61.53125 20.40625 
Q 61.53125 10.640625 54.890625 5.3125 
Q 48.25 0 35.984375 0 
L 9.8125 0 
z
" id="DejaVuSans-66"/>
     <path d="M 54.890625 33.015625 
L 54.890625 0 
L 45.90625 0 
L 45.90625 32.71875 
Q 45.90625 40.484375 42.875 44.328125 
Q 39.84375 48.1875 33.796875 48.1875 
Q 26.515625 48.1875 22.3125 43.546875 
Q 18.109375 38.921875 18.109375 30.90625 
L 18.109375 0 
L 9.078125 0 
L 9.078125 54.6875 
L 18.109375 54.6875 
L 18.109375 46.1875 
Q 21.34375 51.125 25.703125 53.5625 
Q 30.078125 56 35.796875 56 
Q 45.21875 56 50.046875 50.171875 
Q 54.890625 44.34375 54.890625 33.015625 
z
" id="DejaVuSans-110"/>
     <path d="M 48.78125 52.59375 
L 48.78125 44.1875 
Q 44.96875 46.296875 41.140625 47.34375 
Q 37.3125 48.390625 33.40625 48.390625 
Q 24.65625 48.390625 19.8125 42.84375 
Q 14.984375 37.3125 14.984375 27.296875 
Q 14.984375 17.28125 19.8125 11.734375 
Q 24.65625 6.203125 33.40625 6.203125 
Q 37.3125 6.203125 41.140625 7.25 
Q 44.96875 8.296875 48.78125 10.40625 
L 48.78125 2.09375 
Q 45.015625 0.34375 40.984375 -0.53125 
Q 36.96875 -1.421875 32.421875 -1.421875 
Q 20.0625 -1.421875 12.78125 6.34375 
Q 5.515625 14.109375 5.515625 27.296875 
Q 5.515625 40.671875 12.859375 48.328125 
Q 20.21875 56 33.015625 56 
Q 37.15625 56 41.109375 55.140625 
Q 45.0625 54.296875 48.78125 52.59375 
z
" id="DejaVuSans-99"/>
     <path d="M 54.890625 33.015625 
L 54.890625 0 
L 45.90625 0 
L 45.90625 32.71875 
Q 45.90625 40.484375 42.875 44.328125 
Q 39.84375 48.1875 33.796875 48.1875 
Q 26.515625 48.1875 22.3125 43.546875 
Q 18.109375 38.921875 18.109375 30.90625 
L 18.109375 0 
L 9.078125 0 
L 9.078125 75.984375 
L 18.109375 75.984375 
L 18.109375 46.1875 
Q 21.34375 51.125 25.703125 53.5625 
Q 30.078125 56 35.796875 56 
Q 45.21875 56 50.046875 50.171875 
Q 54.890625 44.34375 54.890625 33.015625 
z
" id="DejaVuSans-104"/>
     <path d="M 41.109375 46.296875 
Q 39.59375 47.171875 37.8125 47.578125 
Q 36.03125 48 33.890625 48 
Q 26.265625 48 22.1875 43.046875 
Q 18.109375 38.09375 18.109375 28.8125 
L 18.109375 0 
L 9.078125 0 
L 9.078125 54.6875 
L 18.109375 54.6875 
L 18.109375 46.1875 
Q 20.953125 51.171875 25.484375 53.578125 
Q 30.03125 56 36.53125 56 
Q 37.453125 56 38.578125 55.875 
Q 39.703125 55.765625 41.0625 55.515625 
z
" id="DejaVuSans-114"/>
     <path d="M 9.078125 75.984375 
L 18.109375 75.984375 
L 18.109375 31.109375 
L 44.921875 54.6875 
L 56.390625 54.6875 
L 27.390625 29.109375 
L 57.625 0 
L 45.90625 0 
L 18.109375 26.703125 
L 18.109375 0 
L 9.078125 0 
z
" id="DejaVuSans-107"/>
     <path d="M 4.890625 31.390625 
L 31.203125 31.390625 
L 31.203125 23.390625 
L 4.890625 23.390625 
z
" id="DejaVuSans-45"/>
     <path d="M 53.515625 70.515625 
L 53.515625 60.890625 
Q 47.90625 63.578125 42.921875 64.890625 
Q 37.9375 66.21875 33.296875 66.21875 
Q 25.25 66.21875 20.875 63.09375 
Q 16.5 59.96875 16.5 54.203125 
Q 16.5 49.359375 19.40625 46.890625 
Q 22.3125 44.4375 30.421875 42.921875 
L 36.375 41.703125 
Q 47.40625 39.59375 52.65625 34.296875 
Q 57.90625 29 57.90625 20.125 
Q 57.90625 9.515625 50.796875 4.046875 
Q 43.703125 -1.421875 29.984375 -1.421875 
Q 24.8125 -1.421875 18.96875 -0.25 
Q 13.140625 0.921875 6.890625 3.21875 
L 6.890625 13.375 
Q 12.890625 10.015625 18.65625 8.296875 
Q 24.421875 6.59375 29.984375 6.59375 
Q 38.421875 6.59375 43.015625 9.90625 
Q 47.609375 13.234375 47.609375 19.390625 
Q 47.609375 24.75 44.3125 27.78125 
Q 41.015625 30.8125 33.5 32.328125 
L 27.484375 33.5 
Q 16.453125 35.6875 11.515625 40.375 
Q 6.59375 45.0625 6.59375 53.421875 
Q 6.59375 63.09375 13.40625 68.65625 
Q 20.21875 74.21875 32.171875 74.21875 
Q 37.3125 74.21875 42.625 73.28125 
Q 47.953125 72.359375 53.515625 70.515625 
z
" id="DejaVuSans-83"/>
     <path d="M 33.015625 40.375 
Q 26.375 40.375 22.484375 35.828125 
Q 18.609375 31.296875 18.609375 23.390625 
Q 18.609375 15.53125 22.484375 10.953125 
Q 26.375 6.390625 33.015625 6.390625 
Q 39.65625 6.390625 43.53125 10.953125 
Q 47.40625 15.53125 47.40625 23.390625 
Q 47.40625 31.296875 43.53125 35.828125 
Q 39.65625 40.375 33.015625 40.375 
z
M 52.59375 71.296875 
L 52.59375 62.3125 
Q 48.875 64.0625 45.09375 64.984375 
Q 41.3125 65.921875 37.59375 65.921875 
Q 27.828125 65.921875 22.671875 59.328125 
Q 17.53125 52.734375 16.796875 39.40625 
Q 19.671875 43.65625 24.015625 45.921875 
Q 28.375 48.1875 33.59375 48.1875 
Q 44.578125 48.1875 50.953125 41.515625 
Q 57.328125 34.859375 57.328125 23.390625 
Q 57.328125 12.15625 50.6875 5.359375 
Q 44.046875 -1.421875 33.015625 -1.421875 
Q 20.359375 -1.421875 13.671875 8.265625 
Q 6.984375 17.96875 6.984375 36.375 
Q 6.984375 53.65625 15.1875 63.9375 
Q 23.390625 74.21875 37.203125 74.21875 
Q 40.921875 74.21875 44.703125 73.484375 
Q 48.484375 72.75 52.59375 71.296875 
z
" id="DejaVuSans-54"/>
     <path d="M 10.6875 12.40625 
L 21 12.40625 
L 21 0 
L 10.6875 0 
z
" id="DejaVuSans-46"/>
     <path d="M 2.984375 54.6875 
L 12.5 54.6875 
L 29.59375 8.796875 
L 46.6875 54.6875 
L 56.203125 54.6875 
L 35.6875 0 
L 23.484375 0 
z
" id="DejaVuSans-118"/>
    </defs>
    <g transform="translate(371.555625 45.84)scale(0.12 -0.12)">
     <use xlink:href="#DejaVuSans-65"/>
     <use x="68.408203" xlink:href="#DejaVuSans-52"/>
     <use x="132.03125" xlink:href="#DejaVuSans-66"/>
     <use x="200.634766" xlink:href="#DejaVuSans-101"/>
     <use x="262.158203" xlink:href="#DejaVuSans-110"/>
     <use x="325.537109" xlink:href="#DejaVuSans-99"/>
     <use x="380.517578" xlink:href="#DejaVuSans-104"/>
     <use x="443.896484" xlink:href="#DejaVuSans-109"/>
     <use x="541.308594" xlink:href="#DejaVuSans-97"/>
     <use x="602.587891" xlink:href="#DejaVuSans-114"/>
     <use x="643.701172" xlink:href="#DejaVuSans-107"/>
     <use x="701.611328" xlink:href="#DejaVuSans-45"/>
     <use x="737.554688" xlink:href="#DejaVuSans-84"/>
     <use x="798.638672" xlink:href="#DejaVuSans-83"/>
     <use x="862.115234" xlink:href="#DejaVuSans-54"/>
     <use x="925.738281" xlink:href="#DejaVuSans-50"/>
     <use x="989.361328" xlink:href="#DejaVuSans-46"/>
     <use x="1021.148438" xlink:href="#DejaVuSans-99"/>
     <use x="1076.128906" xlink:href="#DejaVuSans-115"/>
     <use x="1128.228516" xlink:href="#DejaVuSans-118"/>
    </g>
   </g>
   <g id="legend_1">
    <g id="patch_123">
     <path d="M 115 74.518125 
L 174.315625 74.518125 
Q 176.315625 74.518125 176.315625 72.518125 
L 176.315625 58.84 
Q 176.315625 56.84 174.315625 56.84 
L 115 56.84 
Q 113 56.84 113 58.84 
L 113 72.518125 
Q 113 74.518125 115 74.518125 
z
" style="fill:#ffffff;opacity:0.8;stroke:#cccccc;stroke-linejoin:miter;"/>
    </g>
    <g id="line2d_16">
     <path d="M 117 64.938438 
L 137 64.938438 
" style="fill:none;stroke:#1f77b4;stroke-linecap:square;stroke-width:1.5;"/>
    </g>
    <g id="line2d_17"/>
    <g id="text_17">
     <!-- value -->
     <g transform="translate(145 68.438438)scale(0.1 -0.1)">
      <use xlink:href="#DejaVuSans-118"/>
      <use x="59.179688" xlink:href="#DejaVuSans-97"/>
      <use x="120.458984" xlink:href="#DejaVuSans-108"/>
      <use x="148.242188" xlink:href="#DejaVuSans-117"/>
      <use x="211.621094" xlink:href="#DejaVuSans-101"/>
     </g>
    </g>
   </g>
  </g>
 </g>
 <defs>
  <clipPath id="p1868431d7d">
   <rect height="332.64" width="669.6" x="108" y="51.84"/>
  </clipPath>
 </defs>
</svg>
