<?xml version="1.0" encoding="utf-8" standalone="no"?>
<!DOCTYPE svg PUBLIC "-//W3C//DTD SVG 1.1//EN"
  "http://www.w3.org/Graphics/SVG/1.1/DTD/svg11.dtd">
<!-- Created with matplotlib (https://matplotlib.org/) -->
<svg height="432pt" version="1.1" viewBox="0 0 864 432" width="864pt" xmlns="http://www.w3.org/2000/svg" xmlns:xlink="http://www.w3.org/1999/xlink">
 <defs>
  <style type="text/css">
*{stroke-linecap:butt;stroke-linejoin:round;}
  </style>
 </defs>
 <g id="figure_1">
  <g id="patch_1">
   <path d="M 0 432 
L 864 432 
L 864 0 
L 0 0 
z
" style="fill:#ffffff;"/>
  </g>
  <g id="axes_1">
   <g id="patch_2">
    <path d="M 108 384.48 
L 777.6 384.48 
L 777.6 51.84 
L 108 51.84 
z
" style="fill:#ffffff;"/>
   </g>
   <g id="patch_3">
    <path clip-path="url(#pc6f05f73c4)" d="M 138.436364 384.48 
L 138.436364 51.84 
L 440.999032 51.84 
L 440.999032 384.48 
z
" style="fill:#0000ff;opacity:0.05;"/>
   </g>
   <g id="patch_4">
    <path clip-path="url(#pc6f05f73c4)" d="M 440.999032 384.48 
L 440.999032 51.84 
L 747.163636 51.84 
L 747.163636 384.48 
z
" style="fill:#ff0000;opacity:0.08;"/>
   </g>
   <g id="patch_5">
    <path clip-path="url(#pc6f05f73c4)" d="M 138.436364 384.48 
L 138.436364 51.84 
L 142.0383 51.84 
L 142.0383 384.48 
z
" style="fill:#008000;opacity:0.04;"/>
   </g>
   <g id="patch_6">
    <path clip-path="url(#pc6f05f73c4)" d="M 145.640237 384.48 
L 145.640237 51.84 
L 149.242173 51.84 
L 149.242173 384.48 
z
" style="fill:#008000;opacity:0.04;"/>
   </g>
   <g id="patch_7">
    <path clip-path="url(#pc6f05f73c4)" d="M 451.804841 384.48 
L 451.804841 371.1744 
L 455.406778 371.1744 
L 455.406778 384.48 
z
" style="fill:#ff6600;"/>
   </g>
   <g id="patch_8">
    <path clip-path="url(#pc6f05f73c4)" d="M 152.84411 384.48 
L 152.84411 51.84 
L 156.446046 51.84 
L 156.446046 384.48 
z
" style="fill:#008000;opacity:0.04;"/>
   </g>
   <g id="patch_9">
    <path clip-path="url(#pc6f05f73c4)" d="M 160.047983 384.48 
L 160.047983 51.84 
L 163.649919 51.84 
L 163.649919 384.48 
z
" style="fill:#008000;opacity:0.04;"/>
   </g>
   <g id="patch_10">
    <path clip-path="url(#pc6f05f73c4)" d="M 167.251856 384.48 
L 167.251856 51.84 
L 170.853792 51.84 
L 170.853792 384.48 
z
" style="fill:#008000;opacity:0.04;"/>
   </g>
   <g id="patch_11">
    <path clip-path="url(#pc6f05f73c4)" d="M 174.455729 384.48 
L 174.455729 51.84 
L 178.057665 51.84 
L 178.057665 384.48 
z
" style="fill:#008000;opacity:0.04;"/>
   </g>
   <g id="patch_12">
    <path clip-path="url(#pc6f05f73c4)" d="M 181.659602 384.48 
L 181.659602 51.84 
L 185.261538 51.84 
L 185.261538 384.48 
z
" style="fill:#008000;opacity:0.04;"/>
   </g>
   <g id="patch_13">
    <path clip-path="url(#pc6f05f73c4)" d="M 188.863475 384.48 
L 188.863475 51.84 
L 192.465412 51.84 
L 192.465412 384.48 
z
" style="fill:#008000;opacity:0.04;"/>
   </g>
   <g id="patch_14">
    <path clip-path="url(#pc6f05f73c4)" d="M 188.863475 371.1744 
L 188.863475 51.84 
L 192.465412 51.84 
L 192.465412 371.1744 
z
" style="fill:#008000;opacity:0.5;"/>
   </g>
   <g id="patch_15">
    <path clip-path="url(#pc6f05f73c4)" d="M 188.863475 384.48 
L 188.863475 371.1744 
L 192.465412 371.1744 
L 192.465412 384.48 
z
" style="fill:#ffe500;"/>
   </g>
   <g id="patch_16">
    <path clip-path="url(#pc6f05f73c4)" d="M 196.067348 384.48 
L 196.067348 51.84 
L 199.669285 51.84 
L 199.669285 384.48 
z
" style="fill:#008000;opacity:0.04;"/>
   </g>
   <g id="patch_17">
    <path clip-path="url(#pc6f05f73c4)" d="M 203.271221 384.48 
L 203.271221 51.84 
L 206.873158 51.84 
L 206.873158 384.48 
z
" style="fill:#008000;opacity:0.04;"/>
   </g>
   <g id="patch_18">
    <path clip-path="url(#pc6f05f73c4)" d="M 210.475094 384.48 
L 210.475094 51.84 
L 214.077031 51.84 
L 214.077031 384.48 
z
" style="fill:#008000;opacity:0.04;"/>
   </g>
   <g id="patch_19">
    <path clip-path="url(#pc6f05f73c4)" d="M 217.678967 384.48 
L 217.678967 51.84 
L 221.280904 51.84 
L 221.280904 384.48 
z
" style="fill:#008000;opacity:0.04;"/>
   </g>
   <g id="patch_20">
    <path clip-path="url(#pc6f05f73c4)" d="M 224.88284 384.48 
L 224.88284 51.84 
L 228.484777 51.84 
L 228.484777 384.48 
z
" style="fill:#008000;opacity:0.04;"/>
   </g>
   <g id="patch_21">
    <path clip-path="url(#pc6f05f73c4)" d="M 232.086713 384.48 
L 232.086713 51.84 
L 235.68865 51.84 
L 235.68865 384.48 
z
" style="fill:#008000;opacity:0.04;"/>
   </g>
   <g id="patch_22">
    <path clip-path="url(#pc6f05f73c4)" d="M 239.290586 384.48 
L 239.290586 51.84 
L 242.892523 51.84 
L 242.892523 384.48 
z
" style="fill:#008000;opacity:0.04;"/>
   </g>
   <g id="patch_23">
    <path clip-path="url(#pc6f05f73c4)" d="M 246.494459 384.48 
L 246.494459 51.84 
L 250.096396 51.84 
L 250.096396 384.48 
z
" style="fill:#008000;opacity:0.04;"/>
   </g>
   <g id="patch_24">
    <path clip-path="url(#pc6f05f73c4)" d="M 253.698332 384.48 
L 253.698332 51.84 
L 257.300269 51.84 
L 257.300269 384.48 
z
" style="fill:#008000;opacity:0.04;"/>
   </g>
   <g id="patch_25">
    <path clip-path="url(#pc6f05f73c4)" d="M 260.902205 384.48 
L 260.902205 51.84 
L 264.504142 51.84 
L 264.504142 384.48 
z
" style="fill:#008000;opacity:0.04;"/>
   </g>
   <g id="patch_26">
    <path clip-path="url(#pc6f05f73c4)" d="M 260.902205 371.1744 
L 260.902205 51.84 
L 264.504142 51.84 
L 264.504142 371.1744 
z
" style="fill:#008000;opacity:0.5;"/>
   </g>
   <g id="patch_27">
    <path clip-path="url(#pc6f05f73c4)" d="M 260.902205 384.48 
L 260.902205 371.1744 
L 264.504142 371.1744 
L 264.504142 384.48 
z
" style="fill:#ffe500;"/>
   </g>
   <g id="patch_28">
    <path clip-path="url(#pc6f05f73c4)" d="M 268.106079 384.48 
L 268.106079 51.84 
L 271.708015 51.84 
L 271.708015 384.48 
z
" style="fill:#008000;opacity:0.04;"/>
   </g>
   <g id="patch_29">
    <path clip-path="url(#pc6f05f73c4)" d="M 574.270683 384.48 
L 574.270683 371.1744 
L 577.87262 371.1744 
L 577.87262 384.48 
z
" style="fill:#ff6600;"/>
   </g>
   <g id="patch_30">
    <path clip-path="url(#pc6f05f73c4)" d="M 275.309952 384.48 
L 275.309952 51.84 
L 278.911888 51.84 
L 278.911888 384.48 
z
" style="fill:#008000;opacity:0.04;"/>
   </g>
   <g id="patch_31">
    <path clip-path="url(#pc6f05f73c4)" d="M 275.309952 384.48 
L 275.309952 371.1744 
L 278.911888 371.1744 
L 278.911888 384.48 
z
" style="fill:#ffe500;"/>
   </g>
   <g id="patch_32">
    <path clip-path="url(#pc6f05f73c4)" d="M 282.513825 384.48 
L 282.513825 51.84 
L 286.115761 51.84 
L 286.115761 384.48 
z
" style="fill:#008000;opacity:0.04;"/>
   </g>
   <g id="patch_33">
    <path clip-path="url(#pc6f05f73c4)" d="M 289.717698 384.48 
L 289.717698 51.84 
L 293.319634 51.84 
L 293.319634 384.48 
z
" style="fill:#008000;opacity:0.04;"/>
   </g>
   <g id="patch_34">
    <path clip-path="url(#pc6f05f73c4)" d="M 296.921571 384.48 
L 296.921571 51.84 
L 300.523507 51.84 
L 300.523507 384.48 
z
" style="fill:#008000;opacity:0.04;"/>
   </g>
   <g id="patch_35">
    <path clip-path="url(#pc6f05f73c4)" d="M 296.921571 384.48 
L 296.921571 371.1744 
L 300.523507 371.1744 
L 300.523507 384.48 
z
" style="fill:#ffe500;"/>
   </g>
   <g id="patch_36">
    <path clip-path="url(#pc6f05f73c4)" d="M 304.125444 384.48 
L 304.125444 51.84 
L 307.72738 51.84 
L 307.72738 384.48 
z
" style="fill:#008000;opacity:0.04;"/>
   </g>
   <g id="patch_37">
    <path clip-path="url(#pc6f05f73c4)" d="M 311.329317 384.48 
L 311.329317 51.84 
L 314.931253 51.84 
L 314.931253 384.48 
z
" style="fill:#008000;opacity:0.04;"/>
   </g>
   <g id="patch_38">
    <path clip-path="url(#pc6f05f73c4)" d="M 318.53319 384.48 
L 318.53319 51.84 
L 322.135126 51.84 
L 322.135126 384.48 
z
" style="fill:#008000;opacity:0.04;"/>
   </g>
   <g id="patch_39">
    <path clip-path="url(#pc6f05f73c4)" d="M 325.737063 384.48 
L 325.737063 51.84 
L 329.338999 51.84 
L 329.338999 384.48 
z
" style="fill:#008000;opacity:0.04;"/>
   </g>
   <g id="patch_40">
    <path clip-path="url(#pc6f05f73c4)" d="M 332.940936 384.48 
L 332.940936 51.84 
L 336.542873 51.84 
L 336.542873 384.48 
z
" style="fill:#008000;opacity:0.04;"/>
   </g>
   <g id="patch_41">
    <path clip-path="url(#pc6f05f73c4)" d="M 635.503604 384.48 
L 635.503604 371.1744 
L 639.105541 371.1744 
L 639.105541 384.48 
z
" style="fill:#ff6600;"/>
   </g>
   <g id="patch_42">
    <path clip-path="url(#pc6f05f73c4)" d="M 340.144809 384.48 
L 340.144809 51.84 
L 343.746746 51.84 
L 343.746746 384.48 
z
" style="fill:#008000;opacity:0.04;"/>
   </g>
   <g id="patch_43">
    <path clip-path="url(#pc6f05f73c4)" d="M 340.144809 384.48 
L 340.144809 371.1744 
L 343.746746 371.1744 
L 343.746746 384.48 
z
" style="fill:#ffe500;"/>
   </g>
   <g id="patch_44">
    <path clip-path="url(#pc6f05f73c4)" d="M 347.348682 384.48 
L 347.348682 51.84 
L 350.950619 51.84 
L 350.950619 384.48 
z
" style="fill:#008000;opacity:0.04;"/>
   </g>
   <g id="patch_45">
    <path clip-path="url(#pc6f05f73c4)" d="M 354.552555 384.48 
L 354.552555 51.84 
L 358.154492 51.84 
L 358.154492 384.48 
z
" style="fill:#008000;opacity:0.04;"/>
   </g>
   <g id="patch_46">
    <path clip-path="url(#pc6f05f73c4)" d="M 361.756428 384.48 
L 361.756428 51.84 
L 365.358365 51.84 
L 365.358365 384.48 
z
" style="fill:#008000;opacity:0.04;"/>
   </g>
   <g id="patch_47">
    <path clip-path="url(#pc6f05f73c4)" d="M 368.960301 384.48 
L 368.960301 51.84 
L 372.562238 51.84 
L 372.562238 384.48 
z
" style="fill:#008000;opacity:0.04;"/>
   </g>
   <g id="patch_48">
    <path clip-path="url(#pc6f05f73c4)" d="M 376.164174 384.48 
L 376.164174 51.84 
L 379.766111 51.84 
L 379.766111 384.48 
z
" style="fill:#008000;opacity:0.04;"/>
   </g>
   <g id="patch_49">
    <path clip-path="url(#pc6f05f73c4)" d="M 379.766111 371.1744 
L 379.766111 51.84 
L 383.368047 51.84 
L 383.368047 371.1744 
z
" style="fill:#008000;opacity:0.5;"/>
   </g>
   <g id="patch_50">
    <path clip-path="url(#pc6f05f73c4)" d="M 379.766111 384.48 
L 379.766111 371.1744 
L 383.368047 371.1744 
L 383.368047 384.48 
z
" style="fill:#ffe500;"/>
   </g>
   <g id="patch_51">
    <path clip-path="url(#pc6f05f73c4)" d="M 383.368047 384.48 
L 383.368047 51.84 
L 386.969984 51.84 
L 386.969984 384.48 
z
" style="fill:#008000;opacity:0.04;"/>
   </g>
   <g id="patch_52">
    <path clip-path="url(#pc6f05f73c4)" d="M 390.57192 384.48 
L 390.57192 51.84 
L 394.173857 51.84 
L 394.173857 384.48 
z
" style="fill:#008000;opacity:0.04;"/>
   </g>
   <g id="patch_53">
    <path clip-path="url(#pc6f05f73c4)" d="M 696.736525 384.48 
L 696.736525 371.1744 
L 700.338462 371.1744 
L 700.338462 384.48 
z
" style="fill:#ff6600;"/>
   </g>
   <g id="patch_54">
    <path clip-path="url(#pc6f05f73c4)" d="M 397.775793 384.48 
L 397.775793 51.84 
L 401.37773 51.84 
L 401.37773 384.48 
z
" style="fill:#008000;opacity:0.04;"/>
   </g>
   <g id="patch_55">
    <path clip-path="url(#pc6f05f73c4)" d="M 397.775793 371.1744 
L 397.775793 51.84 
L 401.37773 51.84 
L 401.37773 371.1744 
z
" style="fill:#008000;opacity:0.5;"/>
   </g>
   <g id="patch_56">
    <path clip-path="url(#pc6f05f73c4)" d="M 397.775793 384.48 
L 397.775793 371.1744 
L 401.37773 371.1744 
L 401.37773 384.48 
z
" style="fill:#ffe500;"/>
   </g>
   <g id="patch_57">
    <path clip-path="url(#pc6f05f73c4)" d="M 404.979666 384.48 
L 404.979666 51.84 
L 408.581603 51.84 
L 408.581603 384.48 
z
" style="fill:#008000;opacity:0.04;"/>
   </g>
   <g id="patch_58">
    <path clip-path="url(#pc6f05f73c4)" d="M 412.18354 384.48 
L 412.18354 51.84 
L 415.785476 51.84 
L 415.785476 384.48 
z
" style="fill:#008000;opacity:0.04;"/>
   </g>
   <g id="patch_59">
    <path clip-path="url(#pc6f05f73c4)" d="M 419.387413 384.48 
L 419.387413 51.84 
L 422.989349 51.84 
L 422.989349 384.48 
z
" style="fill:#008000;opacity:0.04;"/>
   </g>
   <g id="patch_60">
    <path clip-path="url(#pc6f05f73c4)" d="M 422.989349 371.1744 
L 422.989349 51.84 
L 426.591286 51.84 
L 426.591286 371.1744 
z
" style="fill:#008000;opacity:0.5;"/>
   </g>
   <g id="patch_61">
    <path clip-path="url(#pc6f05f73c4)" d="M 422.989349 384.48 
L 422.989349 371.1744 
L 426.591286 371.1744 
L 426.591286 384.48 
z
" style="fill:#ffe500;"/>
   </g>
   <g id="patch_62">
    <path clip-path="url(#pc6f05f73c4)" d="M 426.591286 384.48 
L 426.591286 51.84 
L 430.193222 51.84 
L 430.193222 384.48 
z
" style="fill:#008000;opacity:0.04;"/>
   </g>
   <g id="patch_63">
    <path clip-path="url(#pc6f05f73c4)" d="M 433.795159 384.48 
L 433.795159 51.84 
L 437.397095 51.84 
L 437.397095 384.48 
z
" style="fill:#008000;opacity:0.04;"/>
   </g>
   <g id="patch_64">
    <path clip-path="url(#pc6f05f73c4)" d="M 440.999032 384.48 
L 440.999032 51.84 
L 444.600968 51.84 
L 444.600968 384.48 
z
" style="fill:#008000;opacity:0.04;"/>
   </g>
   <g id="patch_65">
    <path clip-path="url(#pc6f05f73c4)" d="M 743.5617 384.48 
L 743.5617 371.1744 
L 747.163636 371.1744 
L 747.163636 384.48 
z
" style="fill:#ff6600;"/>
   </g>
   <g id="patch_66">
    <path clip-path="url(#pc6f05f73c4)" d="M 448.202905 384.48 
L 448.202905 51.84 
L 451.804841 51.84 
L 451.804841 384.48 
z
" style="fill:#008000;opacity:0.04;"/>
   </g>
   <g id="patch_67">
    <path clip-path="url(#pc6f05f73c4)" d="M 451.804841 371.1744 
L 451.804841 51.84 
L 455.406778 51.84 
L 455.406778 371.1744 
z
" style="fill:#008000;opacity:0.5;"/>
   </g>
   <g id="patch_68">
    <path clip-path="url(#pc6f05f73c4)" d="M 455.406778 384.48 
L 455.406778 51.84 
L 459.008714 51.84 
L 459.008714 384.48 
z
" style="fill:#008000;opacity:0.04;"/>
   </g>
   <g id="patch_69">
    <path clip-path="url(#pc6f05f73c4)" d="M 462.610651 384.48 
L 462.610651 51.84 
L 466.212587 51.84 
L 466.212587 384.48 
z
" style="fill:#008000;opacity:0.04;"/>
   </g>
   <g id="patch_70">
    <path clip-path="url(#pc6f05f73c4)" d="M 469.814524 384.48 
L 469.814524 51.84 
L 473.41646 51.84 
L 473.41646 384.48 
z
" style="fill:#008000;opacity:0.04;"/>
   </g>
   <g id="patch_71">
    <path clip-path="url(#pc6f05f73c4)" d="M 477.018397 384.48 
L 477.018397 51.84 
L 480.620334 51.84 
L 480.620334 384.48 
z
" style="fill:#008000;opacity:0.04;"/>
   </g>
   <g id="patch_72">
    <path clip-path="url(#pc6f05f73c4)" d="M 484.22227 384.48 
L 484.22227 51.84 
L 487.824207 51.84 
L 487.824207 384.48 
z
" style="fill:#008000;opacity:0.04;"/>
   </g>
   <g id="patch_73">
    <path clip-path="url(#pc6f05f73c4)" d="M 491.426143 384.48 
L 491.426143 51.84 
L 495.02808 51.84 
L 495.02808 384.48 
z
" style="fill:#008000;opacity:0.04;"/>
   </g>
   <g id="patch_74">
    <path clip-path="url(#pc6f05f73c4)" d="M 498.630016 384.48 
L 498.630016 51.84 
L 502.231953 51.84 
L 502.231953 384.48 
z
" style="fill:#008000;opacity:0.04;"/>
   </g>
   <g id="patch_75">
    <path clip-path="url(#pc6f05f73c4)" d="M 498.630016 371.1744 
L 498.630016 51.84 
L 502.231953 51.84 
L 502.231953 371.1744 
z
" style="fill:#008000;opacity:0.5;"/>
   </g>
   <g id="patch_76">
    <path clip-path="url(#pc6f05f73c4)" d="M 505.833889 384.48 
L 505.833889 51.84 
L 509.435826 51.84 
L 509.435826 384.48 
z
" style="fill:#008000;opacity:0.04;"/>
   </g>
   <g id="patch_77">
    <path clip-path="url(#pc6f05f73c4)" d="M 513.037762 384.48 
L 513.037762 51.84 
L 516.639699 51.84 
L 516.639699 384.48 
z
" style="fill:#008000;opacity:0.04;"/>
   </g>
   <g id="patch_78">
    <path clip-path="url(#pc6f05f73c4)" d="M 520.241635 384.48 
L 520.241635 51.84 
L 523.843572 51.84 
L 523.843572 384.48 
z
" style="fill:#008000;opacity:0.04;"/>
   </g>
   <g id="patch_79">
    <path clip-path="url(#pc6f05f73c4)" d="M 527.445508 384.48 
L 527.445508 51.84 
L 531.047445 51.84 
L 531.047445 384.48 
z
" style="fill:#008000;opacity:0.04;"/>
   </g>
   <g id="patch_80">
    <path clip-path="url(#pc6f05f73c4)" d="M 534.649381 384.48 
L 534.649381 51.84 
L 538.251318 51.84 
L 538.251318 384.48 
z
" style="fill:#008000;opacity:0.04;"/>
   </g>
   <g id="patch_81">
    <path clip-path="url(#pc6f05f73c4)" d="M 534.649381 371.1744 
L 534.649381 51.84 
L 538.251318 51.84 
L 538.251318 371.1744 
z
" style="fill:#008000;opacity:0.5;"/>
   </g>
   <g id="patch_82">
    <path clip-path="url(#pc6f05f73c4)" d="M 541.853254 384.48 
L 541.853254 51.84 
L 545.455191 51.84 
L 545.455191 384.48 
z
" style="fill:#008000;opacity:0.04;"/>
   </g>
   <g id="patch_83">
    <path clip-path="url(#pc6f05f73c4)" d="M 549.057127 384.48 
L 549.057127 51.84 
L 552.659064 51.84 
L 552.659064 384.48 
z
" style="fill:#008000;opacity:0.04;"/>
   </g>
   <g id="patch_84">
    <path clip-path="url(#pc6f05f73c4)" d="M 556.261001 384.48 
L 556.261001 51.84 
L 559.862937 51.84 
L 559.862937 384.48 
z
" style="fill:#008000;opacity:0.04;"/>
   </g>
   <g id="patch_85">
    <path clip-path="url(#pc6f05f73c4)" d="M 563.464874 384.48 
L 563.464874 51.84 
L 567.06681 51.84 
L 567.06681 384.48 
z
" style="fill:#008000;opacity:0.04;"/>
   </g>
   <g id="patch_86">
    <path clip-path="url(#pc6f05f73c4)" d="M 570.668747 384.48 
L 570.668747 51.84 
L 574.270683 51.84 
L 574.270683 384.48 
z
" style="fill:#008000;opacity:0.04;"/>
   </g>
   <g id="patch_87">
    <path clip-path="url(#pc6f05f73c4)" d="M 574.270683 371.1744 
L 574.270683 51.84 
L 577.87262 51.84 
L 577.87262 371.1744 
z
" style="fill:#008000;opacity:0.5;"/>
   </g>
   <g id="patch_88">
    <path clip-path="url(#pc6f05f73c4)" d="M 577.87262 384.48 
L 577.87262 51.84 
L 581.474556 51.84 
L 581.474556 384.48 
z
" style="fill:#008000;opacity:0.04;"/>
   </g>
   <g id="patch_89">
    <path clip-path="url(#pc6f05f73c4)" d="M 585.076493 384.48 
L 585.076493 51.84 
L 588.678429 51.84 
L 588.678429 384.48 
z
" style="fill:#008000;opacity:0.04;"/>
   </g>
   <g id="patch_90">
    <path clip-path="url(#pc6f05f73c4)" d="M 592.280366 384.48 
L 592.280366 51.84 
L 595.882302 51.84 
L 595.882302 384.48 
z
" style="fill:#008000;opacity:0.04;"/>
   </g>
   <g id="patch_91">
    <path clip-path="url(#pc6f05f73c4)" d="M 599.484239 384.48 
L 599.484239 51.84 
L 603.086175 51.84 
L 603.086175 384.48 
z
" style="fill:#008000;opacity:0.04;"/>
   </g>
   <g id="patch_92">
    <path clip-path="url(#pc6f05f73c4)" d="M 606.688112 384.48 
L 606.688112 51.84 
L 610.290048 51.84 
L 610.290048 384.48 
z
" style="fill:#008000;opacity:0.04;"/>
   </g>
   <g id="patch_93">
    <path clip-path="url(#pc6f05f73c4)" d="M 613.891985 384.48 
L 613.891985 51.84 
L 617.493921 51.84 
L 617.493921 384.48 
z
" style="fill:#008000;opacity:0.04;"/>
   </g>
   <g id="patch_94">
    <path clip-path="url(#pc6f05f73c4)" d="M 621.095858 384.48 
L 621.095858 51.84 
L 624.697795 51.84 
L 624.697795 384.48 
z
" style="fill:#008000;opacity:0.04;"/>
   </g>
   <g id="patch_95">
    <path clip-path="url(#pc6f05f73c4)" d="M 628.299731 384.48 
L 628.299731 51.84 
L 631.901668 51.84 
L 631.901668 384.48 
z
" style="fill:#008000;opacity:0.04;"/>
   </g>
   <g id="patch_96">
    <path clip-path="url(#pc6f05f73c4)" d="M 635.503604 384.48 
L 635.503604 51.84 
L 639.105541 51.84 
L 639.105541 384.48 
z
" style="fill:#008000;opacity:0.04;"/>
   </g>
   <g id="patch_97">
    <path clip-path="url(#pc6f05f73c4)" d="M 635.503604 371.1744 
L 635.503604 51.84 
L 639.105541 51.84 
L 639.105541 371.1744 
z
" style="fill:#008000;opacity:0.5;"/>
   </g>
   <g id="patch_98">
    <path clip-path="url(#pc6f05f73c4)" d="M 642.707477 384.48 
L 642.707477 51.84 
L 646.309414 51.84 
L 646.309414 384.48 
z
" style="fill:#008000;opacity:0.04;"/>
   </g>
   <g id="patch_99">
    <path clip-path="url(#pc6f05f73c4)" d="M 649.91135 384.48 
L 649.91135 51.84 
L 653.513287 51.84 
L 653.513287 384.48 
z
" style="fill:#008000;opacity:0.04;"/>
   </g>
   <g id="patch_100">
    <path clip-path="url(#pc6f05f73c4)" d="M 657.115223 384.48 
L 657.115223 51.84 
L 660.71716 51.84 
L 660.71716 384.48 
z
" style="fill:#008000;opacity:0.04;"/>
   </g>
   <g id="patch_101">
    <path clip-path="url(#pc6f05f73c4)" d="M 664.319096 384.48 
L 664.319096 51.84 
L 667.921033 51.84 
L 667.921033 384.48 
z
" style="fill:#008000;opacity:0.04;"/>
   </g>
   <g id="patch_102">
    <path clip-path="url(#pc6f05f73c4)" d="M 671.522969 384.48 
L 671.522969 51.84 
L 675.124906 51.84 
L 675.124906 384.48 
z
" style="fill:#008000;opacity:0.04;"/>
   </g>
   <g id="patch_103">
    <path clip-path="url(#pc6f05f73c4)" d="M 678.726842 384.48 
L 678.726842 51.84 
L 682.328779 51.84 
L 682.328779 384.48 
z
" style="fill:#008000;opacity:0.04;"/>
   </g>
   <g id="patch_104">
    <path clip-path="url(#pc6f05f73c4)" d="M 685.930715 384.48 
L 685.930715 51.84 
L 689.532652 51.84 
L 689.532652 384.48 
z
" style="fill:#008000;opacity:0.04;"/>
   </g>
   <g id="patch_105">
    <path clip-path="url(#pc6f05f73c4)" d="M 693.134588 384.48 
L 693.134588 51.84 
L 696.736525 51.84 
L 696.736525 384.48 
z
" style="fill:#008000;opacity:0.04;"/>
   </g>
   <g id="patch_106">
    <path clip-path="url(#pc6f05f73c4)" d="M 696.736525 371.1744 
L 696.736525 51.84 
L 700.338462 51.84 
L 700.338462 371.1744 
z
" style="fill:#008000;opacity:0.5;"/>
   </g>
   <g id="patch_107">
    <path clip-path="url(#pc6f05f73c4)" d="M 700.338462 384.48 
L 700.338462 51.84 
L 703.940398 51.84 
L 703.940398 384.48 
z
" style="fill:#008000;opacity:0.04;"/>
   </g>
   <g id="patch_108">
    <path clip-path="url(#pc6f05f73c4)" d="M 707.542335 384.48 
L 707.542335 51.84 
L 711.144271 51.84 
L 711.144271 384.48 
z
" style="fill:#008000;opacity:0.04;"/>
   </g>
   <g id="patch_109">
    <path clip-path="url(#pc6f05f73c4)" d="M 714.746208 384.48 
L 714.746208 51.84 
L 718.348144 51.84 
L 718.348144 384.48 
z
" style="fill:#008000;opacity:0.04;"/>
   </g>
   <g id="patch_110">
    <path clip-path="url(#pc6f05f73c4)" d="M 721.950081 384.48 
L 721.950081 51.84 
L 725.552017 51.84 
L 725.552017 384.48 
z
" style="fill:#008000;opacity:0.04;"/>
   </g>
   <g id="patch_111">
    <path clip-path="url(#pc6f05f73c4)" d="M 729.153954 384.48 
L 729.153954 51.84 
L 732.75589 51.84 
L 732.75589 384.48 
z
" style="fill:#008000;opacity:0.04;"/>
   </g>
   <g id="patch_112">
    <path clip-path="url(#pc6f05f73c4)" d="M 736.357827 384.48 
L 736.357827 51.84 
L 739.959763 51.84 
L 739.959763 384.48 
z
" style="fill:#008000;opacity:0.04;"/>
   </g>
   <g id="patch_113">
    <path clip-path="url(#pc6f05f73c4)" d="M 743.5617 384.48 
L 743.5617 51.84 
L 747.163636 51.84 
L 747.163636 384.48 
z
" style="fill:#008000;opacity:0.04;"/>
   </g>
   <g id="matplotlib.axis_1">
    <g id="xtick_1">
     <g id="line2d_1">
      <defs>
       <path d="M 0 0 
L 0 3.5 
" id="mb03111d085" style="stroke:#000000;stroke-width:0.8;"/>
      </defs>
      <g>
       <use style="stroke:#000000;stroke-width:0.8;" x="138.436364" xlink:href="#mb03111d085" y="384.48"/>
      </g>
     </g>
     <g id="text_1">
      <!-- 0 -->
      <defs>
       <path d="M 31.78125 66.40625 
Q 24.171875 66.40625 20.328125 58.90625 
Q 16.5 51.421875 16.5 36.375 
Q 16.5 21.390625 20.328125 13.890625 
Q 24.171875 6.390625 31.78125 6.390625 
Q 39.453125 6.390625 43.28125 13.890625 
Q 47.125 21.390625 47.125 36.375 
Q 47.125 51.421875 43.28125 58.90625 
Q 39.453125 66.40625 31.78125 66.40625 
z
M 31.78125 74.21875 
Q 44.046875 74.21875 50.515625 64.515625 
Q 56.984375 54.828125 56.984375 36.375 
Q 56.984375 17.96875 50.515625 8.265625 
Q 44.046875 -1.421875 31.78125 -1.421875 
Q 19.53125 -1.421875 13.0625 8.265625 
Q 6.59375 17.96875 6.59375 36.375 
Q 6.59375 54.828125 13.0625 64.515625 
Q 19.53125 74.21875 31.78125 74.21875 
z
" id="DejaVuSans-48"/>
      </defs>
      <g transform="translate(135.255114 399.078438)scale(0.1 -0.1)">
       <use xlink:href="#DejaVuSans-48"/>
      </g>
     </g>
    </g>
    <g id="xtick_2">
     <g id="line2d_2">
      <g>
       <use style="stroke:#000000;stroke-width:0.8;" x="228.484777" xlink:href="#mb03111d085" y="384.48"/>
      </g>
     </g>
     <g id="text_2">
      <!-- 250 -->
      <defs>
       <path d="M 19.1875 8.296875 
L 53.609375 8.296875 
L 53.609375 0 
L 7.328125 0 
L 7.328125 8.296875 
Q 12.9375 14.109375 22.625 23.890625 
Q 32.328125 33.6875 34.8125 36.53125 
Q 39.546875 41.84375 41.421875 45.53125 
Q 43.3125 49.21875 43.3125 52.78125 
Q 43.3125 58.59375 39.234375 62.25 
Q 35.15625 65.921875 28.609375 65.921875 
Q 23.96875 65.921875 18.8125 64.3125 
Q 13.671875 62.703125 7.8125 59.421875 
L 7.8125 69.390625 
Q 13.765625 71.78125 18.9375 73 
Q 24.125 74.21875 28.421875 74.21875 
Q 39.75 74.21875 46.484375 68.546875 
Q 53.21875 62.890625 53.21875 53.421875 
Q 53.21875 48.921875 51.53125 44.890625 
Q 49.859375 40.875 45.40625 35.40625 
Q 44.1875 33.984375 37.640625 27.21875 
Q 31.109375 20.453125 19.1875 8.296875 
z
" id="DejaVuSans-50"/>
       <path d="M 10.796875 72.90625 
L 49.515625 72.90625 
L 49.515625 64.59375 
L 19.828125 64.59375 
L 19.828125 46.734375 
Q 21.96875 47.46875 24.109375 47.828125 
Q 26.265625 48.1875 28.421875 48.1875 
Q 40.625 48.1875 47.75 41.5 
Q 54.890625 34.8125 54.890625 23.390625 
Q 54.890625 11.625 47.5625 5.09375 
Q 40.234375 -1.421875 26.90625 -1.421875 
Q 22.3125 -1.421875 17.546875 -0.640625 
Q 12.796875 0.140625 7.71875 1.703125 
L 7.71875 11.625 
Q 12.109375 9.234375 16.796875 8.0625 
Q 21.484375 6.890625 26.703125 6.890625 
Q 35.15625 6.890625 40.078125 11.328125 
Q 45.015625 15.765625 45.015625 23.390625 
Q 45.015625 31 40.078125 35.4375 
Q 35.15625 39.890625 26.703125 39.890625 
Q 22.75 39.890625 18.8125 39.015625 
Q 14.890625 38.140625 10.796875 36.28125 
z
" id="DejaVuSans-53"/>
      </defs>
      <g transform="translate(218.941027 399.078438)scale(0.1 -0.1)">
       <use xlink:href="#DejaVuSans-50"/>
       <use x="63.623047" xlink:href="#DejaVuSans-53"/>
       <use x="127.246094" xlink:href="#DejaVuSans-48"/>
      </g>
     </g>
    </g>
    <g id="xtick_3">
     <g id="line2d_3">
      <g>
       <use style="stroke:#000000;stroke-width:0.8;" x="318.53319" xlink:href="#mb03111d085" y="384.48"/>
      </g>
     </g>
     <g id="text_3">
      <!-- 500 -->
      <g transform="translate(308.98944 399.078438)scale(0.1 -0.1)">
       <use xlink:href="#DejaVuSans-53"/>
       <use x="63.623047" xlink:href="#DejaVuSans-48"/>
       <use x="127.246094" xlink:href="#DejaVuSans-48"/>
      </g>
     </g>
    </g>
    <g id="xtick_4">
     <g id="line2d_4">
      <g>
       <use style="stroke:#000000;stroke-width:0.8;" x="408.581603" xlink:href="#mb03111d085" y="384.48"/>
      </g>
     </g>
     <g id="text_4">
      <!-- 750 -->
      <defs>
       <path d="M 8.203125 72.90625 
L 55.078125 72.90625 
L 55.078125 68.703125 
L 28.609375 0 
L 18.3125 0 
L 43.21875 64.59375 
L 8.203125 64.59375 
z
" id="DejaVuSans-55"/>
      </defs>
      <g transform="translate(399.037853 399.078438)scale(0.1 -0.1)">
       <use xlink:href="#DejaVuSans-55"/>
       <use x="63.623047" xlink:href="#DejaVuSans-53"/>
       <use x="127.246094" xlink:href="#DejaVuSans-48"/>
      </g>
     </g>
    </g>
    <g id="xtick_5">
     <g id="line2d_5">
      <g>
       <use style="stroke:#000000;stroke-width:0.8;" x="498.630016" xlink:href="#mb03111d085" y="384.48"/>
      </g>
     </g>
     <g id="text_5">
      <!-- 1000 -->
      <defs>
       <path d="M 12.40625 8.296875 
L 28.515625 8.296875 
L 28.515625 63.921875 
L 10.984375 60.40625 
L 10.984375 69.390625 
L 28.421875 72.90625 
L 38.28125 72.90625 
L 38.28125 8.296875 
L 54.390625 8.296875 
L 54.390625 0 
L 12.40625 0 
z
" id="DejaVuSans-49"/>
      </defs>
      <g transform="translate(485.905016 399.078438)scale(0.1 -0.1)">
       <use xlink:href="#DejaVuSans-49"/>
       <use x="63.623047" xlink:href="#DejaVuSans-48"/>
       <use x="127.246094" xlink:href="#DejaVuSans-48"/>
       <use x="190.869141" xlink:href="#DejaVuSans-48"/>
      </g>
     </g>
    </g>
    <g id="xtick_6">
     <g id="line2d_6">
      <g>
       <use style="stroke:#000000;stroke-width:0.8;" x="588.678429" xlink:href="#mb03111d085" y="384.48"/>
      </g>
     </g>
     <g id="text_6">
      <!-- 1250 -->
      <g transform="translate(575.953429 399.078438)scale(0.1 -0.1)">
       <use xlink:href="#DejaVuSans-49"/>
       <use x="63.623047" xlink:href="#DejaVuSans-50"/>
       <use x="127.246094" xlink:href="#DejaVuSans-53"/>
       <use x="190.869141" xlink:href="#DejaVuSans-48"/>
      </g>
     </g>
    </g>
    <g id="xtick_7">
     <g id="line2d_7">
      <g>
       <use style="stroke:#000000;stroke-width:0.8;" x="678.726842" xlink:href="#mb03111d085" y="384.48"/>
      </g>
     </g>
     <g id="text_7">
      <!-- 1500 -->
      <g transform="translate(666.001842 399.078438)scale(0.1 -0.1)">
       <use xlink:href="#DejaVuSans-49"/>
       <use x="63.623047" xlink:href="#DejaVuSans-53"/>
       <use x="127.246094" xlink:href="#DejaVuSans-48"/>
       <use x="190.869141" xlink:href="#DejaVuSans-48"/>
      </g>
     </g>
    </g>
    <g id="xtick_8">
     <g id="line2d_8">
      <g>
       <use style="stroke:#000000;stroke-width:0.8;" x="768.775256" xlink:href="#mb03111d085" y="384.48"/>
      </g>
     </g>
     <g id="text_8">
      <!-- 1750 -->
      <g transform="translate(756.050256 399.078438)scale(0.1 -0.1)">
       <use xlink:href="#DejaVuSans-49"/>
       <use x="63.623047" xlink:href="#DejaVuSans-55"/>
       <use x="127.246094" xlink:href="#DejaVuSans-53"/>
       <use x="190.869141" xlink:href="#DejaVuSans-48"/>
      </g>
     </g>
    </g>
    <g id="text_9">
     <!-- Timestamp -->
     <defs>
      <path d="M -0.296875 72.90625 
L 61.375 72.90625 
L 61.375 64.59375 
L 35.5 64.59375 
L 35.5 0 
L 25.59375 0 
L 25.59375 64.59375 
L -0.296875 64.59375 
z
" id="DejaVuSans-84"/>
      <path d="M 9.421875 54.6875 
L 18.40625 54.6875 
L 18.40625 0 
L 9.421875 0 
z
M 9.421875 75.984375 
L 18.40625 75.984375 
L 18.40625 64.59375 
L 9.421875 64.59375 
z
" id="DejaVuSans-105"/>
      <path d="M 52 44.1875 
Q 55.375 50.25 60.0625 53.125 
Q 64.75 56 71.09375 56 
Q 79.640625 56 84.28125 50.015625 
Q 88.921875 44.046875 88.921875 33.015625 
L 88.921875 0 
L 79.890625 0 
L 79.890625 32.71875 
Q 79.890625 40.578125 77.09375 44.375 
Q 74.3125 48.1875 68.609375 48.1875 
Q 61.625 48.1875 57.5625 43.546875 
Q 53.515625 38.921875 53.515625 30.90625 
L 53.515625 0 
L 44.484375 0 
L 44.484375 32.71875 
Q 44.484375 40.625 41.703125 44.40625 
Q 38.921875 48.1875 33.109375 48.1875 
Q 26.21875 48.1875 22.15625 43.53125 
Q 18.109375 38.875 18.109375 30.90625 
L 18.109375 0 
L 9.078125 0 
L 9.078125 54.6875 
L 18.109375 54.6875 
L 18.109375 46.1875 
Q 21.1875 51.21875 25.484375 53.609375 
Q 29.78125 56 35.6875 56 
Q 41.65625 56 45.828125 52.96875 
Q 50 49.953125 52 44.1875 
z
" id="DejaVuSans-109"/>
      <path d="M 56.203125 29.59375 
L 56.203125 25.203125 
L 14.890625 25.203125 
Q 15.484375 15.921875 20.484375 11.0625 
Q 25.484375 6.203125 34.421875 6.203125 
Q 39.59375 6.203125 44.453125 7.46875 
Q 49.3125 8.734375 54.109375 11.28125 
L 54.109375 2.78125 
Q 49.265625 0.734375 44.1875 -0.34375 
Q 39.109375 -1.421875 33.890625 -1.421875 
Q 20.796875 -1.421875 13.15625 6.1875 
Q 5.515625 13.8125 5.515625 26.8125 
Q 5.515625 40.234375 12.765625 48.109375 
Q 20.015625 56 32.328125 56 
Q 43.359375 56 49.78125 48.890625 
Q 56.203125 41.796875 56.203125 29.59375 
z
M 47.21875 32.234375 
Q 47.125 39.59375 43.09375 43.984375 
Q 39.0625 48.390625 32.421875 48.390625 
Q 24.90625 48.390625 20.390625 44.140625 
Q 15.875 39.890625 15.1875 32.171875 
z
" id="DejaVuSans-101"/>
      <path d="M 44.28125 53.078125 
L 44.28125 44.578125 
Q 40.484375 46.53125 36.375 47.5 
Q 32.28125 48.484375 27.875 48.484375 
Q 21.1875 48.484375 17.84375 46.4375 
Q 14.5 44.390625 14.5 40.28125 
Q 14.5 37.15625 16.890625 35.375 
Q 19.28125 33.59375 26.515625 31.984375 
L 29.59375 31.296875 
Q 39.15625 29.25 43.1875 25.515625 
Q 47.21875 21.78125 47.21875 15.09375 
Q 47.21875 7.46875 41.1875 3.015625 
Q 35.15625 -1.421875 24.609375 -1.421875 
Q 20.21875 -1.421875 15.453125 -0.5625 
Q 10.6875 0.296875 5.421875 2 
L 5.421875 11.28125 
Q 10.40625 8.6875 15.234375 7.390625 
Q 20.0625 6.109375 24.8125 6.109375 
Q 31.15625 6.109375 34.5625 8.28125 
Q 37.984375 10.453125 37.984375 14.40625 
Q 37.984375 18.0625 35.515625 20.015625 
Q 33.0625 21.96875 24.703125 23.78125 
L 21.578125 24.515625 
Q 13.234375 26.265625 9.515625 29.90625 
Q 5.8125 33.546875 5.8125 39.890625 
Q 5.8125 47.609375 11.28125 51.796875 
Q 16.75 56 26.8125 56 
Q 31.78125 56 36.171875 55.265625 
Q 40.578125 54.546875 44.28125 53.078125 
z
" id="DejaVuSans-115"/>
      <path d="M 18.3125 70.21875 
L 18.3125 54.6875 
L 36.8125 54.6875 
L 36.8125 47.703125 
L 18.3125 47.703125 
L 18.3125 18.015625 
Q 18.3125 11.328125 20.140625 9.421875 
Q 21.96875 7.515625 27.59375 7.515625 
L 36.8125 7.515625 
L 36.8125 0 
L 27.59375 0 
Q 17.1875 0 13.234375 3.875 
Q 9.28125 7.765625 9.28125 18.015625 
L 9.28125 47.703125 
L 2.6875 47.703125 
L 2.6875 54.6875 
L 9.28125 54.6875 
L 9.28125 70.21875 
z
" id="DejaVuSans-116"/>
      <path d="M 34.28125 27.484375 
Q 23.390625 27.484375 19.1875 25 
Q 14.984375 22.515625 14.984375 16.5 
Q 14.984375 11.71875 18.140625 8.90625 
Q 21.296875 6.109375 26.703125 6.109375 
Q 34.1875 6.109375 38.703125 11.40625 
Q 43.21875 16.703125 43.21875 25.484375 
L 43.21875 27.484375 
z
M 52.203125 31.203125 
L 52.203125 0 
L 43.21875 0 
L 43.21875 8.296875 
Q 40.140625 3.328125 35.546875 0.953125 
Q 30.953125 -1.421875 24.3125 -1.421875 
Q 15.921875 -1.421875 10.953125 3.296875 
Q 6 8.015625 6 15.921875 
Q 6 25.140625 12.171875 29.828125 
Q 18.359375 34.515625 30.609375 34.515625 
L 43.21875 34.515625 
L 43.21875 35.40625 
Q 43.21875 41.609375 39.140625 45 
Q 35.0625 48.390625 27.6875 48.390625 
Q 23 48.390625 18.546875 47.265625 
Q 14.109375 46.140625 10.015625 43.890625 
L 10.015625 52.203125 
Q 14.9375 54.109375 19.578125 55.046875 
Q 24.21875 56 28.609375 56 
Q 40.484375 56 46.34375 49.84375 
Q 52.203125 43.703125 52.203125 31.203125 
z
" id="DejaVuSans-97"/>
      <path d="M 18.109375 8.203125 
L 18.109375 -20.796875 
L 9.078125 -20.796875 
L 9.078125 54.6875 
L 18.109375 54.6875 
L 18.109375 46.390625 
Q 20.953125 51.265625 25.265625 53.625 
Q 29.59375 56 35.59375 56 
Q 45.5625 56 51.78125 48.09375 
Q 58.015625 40.1875 58.015625 27.296875 
Q 58.015625 14.40625 51.78125 6.484375 
Q 45.5625 -1.421875 35.59375 -1.421875 
Q 29.59375 -1.421875 25.265625 0.953125 
Q 20.953125 3.328125 18.109375 8.203125 
z
M 48.6875 27.296875 
Q 48.6875 37.203125 44.609375 42.84375 
Q 40.53125 48.484375 33.40625 48.484375 
Q 26.265625 48.484375 22.1875 42.84375 
Q 18.109375 37.203125 18.109375 27.296875 
Q 18.109375 17.390625 22.1875 11.75 
Q 26.265625 6.109375 33.40625 6.109375 
Q 40.53125 6.109375 44.609375 11.75 
Q 48.6875 17.390625 48.6875 27.296875 
z
" id="DejaVuSans-112"/>
     </defs>
     <g transform="translate(414.739062 412.756563)scale(0.1 -0.1)">
      <use xlink:href="#DejaVuSans-84"/>
      <use x="61.037109" xlink:href="#DejaVuSans-105"/>
      <use x="88.820312" xlink:href="#DejaVuSans-109"/>
      <use x="186.232422" xlink:href="#DejaVuSans-101"/>
      <use x="247.755859" xlink:href="#DejaVuSans-115"/>
      <use x="299.855469" xlink:href="#DejaVuSans-116"/>
      <use x="339.064453" xlink:href="#DejaVuSans-97"/>
      <use x="400.34375" xlink:href="#DejaVuSans-109"/>
      <use x="497.755859" xlink:href="#DejaVuSans-112"/>
     </g>
    </g>
   </g>
   <g id="matplotlib.axis_2">
    <g id="ytick_1">
     <g id="line2d_9">
      <defs>
       <path d="M 0 0 
L -3.5 0 
" id="m303d8f9e26" style="stroke:#000000;stroke-width:0.8;"/>
      </defs>
      <g>
       <use style="stroke:#000000;stroke-width:0.8;" x="108" xlink:href="#m303d8f9e26" y="346.634863"/>
      </g>
     </g>
     <g id="text_10">
      <!-- −1000 -->
      <defs>
       <path d="M 10.59375 35.5 
L 73.1875 35.5 
L 73.1875 27.203125 
L 10.59375 27.203125 
z
" id="DejaVuSans-8722"/>
      </defs>
      <g transform="translate(67.170312 350.434082)scale(0.1 -0.1)">
       <use xlink:href="#DejaVuSans-8722"/>
       <use x="83.789062" xlink:href="#DejaVuSans-49"/>
       <use x="147.412109" xlink:href="#DejaVuSans-48"/>
       <use x="211.035156" xlink:href="#DejaVuSans-48"/>
       <use x="274.658203" xlink:href="#DejaVuSans-48"/>
      </g>
     </g>
    </g>
    <g id="ytick_2">
     <g id="line2d_10">
      <g>
       <use style="stroke:#000000;stroke-width:0.8;" x="108" xlink:href="#m303d8f9e26" y="299.644602"/>
      </g>
     </g>
     <g id="text_11">
      <!-- −500 -->
      <g transform="translate(73.532813 303.44382)scale(0.1 -0.1)">
       <use xlink:href="#DejaVuSans-8722"/>
       <use x="83.789062" xlink:href="#DejaVuSans-53"/>
       <use x="147.412109" xlink:href="#DejaVuSans-48"/>
       <use x="211.035156" xlink:href="#DejaVuSans-48"/>
      </g>
     </g>
    </g>
    <g id="ytick_3">
     <g id="line2d_11">
      <g>
       <use style="stroke:#000000;stroke-width:0.8;" x="108" xlink:href="#m303d8f9e26" y="252.65434"/>
      </g>
     </g>
     <g id="text_12">
      <!-- 0 -->
      <g transform="translate(94.6375 256.453559)scale(0.1 -0.1)">
       <use xlink:href="#DejaVuSans-48"/>
      </g>
     </g>
    </g>
    <g id="ytick_4">
     <g id="line2d_12">
      <g>
       <use style="stroke:#000000;stroke-width:0.8;" x="108" xlink:href="#m303d8f9e26" y="205.664078"/>
      </g>
     </g>
     <g id="text_13">
      <!-- 500 -->
      <g transform="translate(81.9125 209.463297)scale(0.1 -0.1)">
       <use xlink:href="#DejaVuSans-53"/>
       <use x="63.623047" xlink:href="#DejaVuSans-48"/>
       <use x="127.246094" xlink:href="#DejaVuSans-48"/>
      </g>
     </g>
    </g>
    <g id="ytick_5">
     <g id="line2d_13">
      <g>
       <use style="stroke:#000000;stroke-width:0.8;" x="108" xlink:href="#m303d8f9e26" y="158.673817"/>
      </g>
     </g>
     <g id="text_14">
      <!-- 1000 -->
      <g transform="translate(75.55 162.473035)scale(0.1 -0.1)">
       <use xlink:href="#DejaVuSans-49"/>
       <use x="63.623047" xlink:href="#DejaVuSans-48"/>
       <use x="127.246094" xlink:href="#DejaVuSans-48"/>
       <use x="190.869141" xlink:href="#DejaVuSans-48"/>
      </g>
     </g>
    </g>
    <g id="ytick_6">
     <g id="line2d_14">
      <g>
       <use style="stroke:#000000;stroke-width:0.8;" x="108" xlink:href="#m303d8f9e26" y="111.683555"/>
      </g>
     </g>
     <g id="text_15">
      <!-- 1500 -->
      <g transform="translate(75.55 115.482774)scale(0.1 -0.1)">
       <use xlink:href="#DejaVuSans-49"/>
       <use x="63.623047" xlink:href="#DejaVuSans-53"/>
       <use x="127.246094" xlink:href="#DejaVuSans-48"/>
       <use x="190.869141" xlink:href="#DejaVuSans-48"/>
      </g>
     </g>
    </g>
    <g id="ytick_7">
     <g id="line2d_15">
      <g>
       <use style="stroke:#000000;stroke-width:0.8;" x="108" xlink:href="#m303d8f9e26" y="64.693293"/>
      </g>
     </g>
     <g id="text_16">
      <!-- 2000 -->
      <g transform="translate(75.55 68.492512)scale(0.1 -0.1)">
       <use xlink:href="#DejaVuSans-50"/>
       <use x="63.623047" xlink:href="#DejaVuSans-48"/>
       <use x="127.246094" xlink:href="#DejaVuSans-48"/>
       <use x="190.869141" xlink:href="#DejaVuSans-48"/>
      </g>
     </g>
    </g>
    <g id="text_17">
     <!-- Value -->
     <defs>
      <path d="M 28.609375 0 
L 0.78125 72.90625 
L 11.078125 72.90625 
L 34.1875 11.53125 
L 57.328125 72.90625 
L 67.578125 72.90625 
L 39.796875 0 
z
" id="DejaVuSans-86"/>
      <path d="M 9.421875 75.984375 
L 18.40625 75.984375 
L 18.40625 0 
L 9.421875 0 
z
" id="DejaVuSans-108"/>
      <path d="M 8.5 21.578125 
L 8.5 54.6875 
L 17.484375 54.6875 
L 17.484375 21.921875 
Q 17.484375 14.15625 20.5 10.265625 
Q 23.53125 6.390625 29.59375 6.390625 
Q 36.859375 6.390625 41.078125 11.03125 
Q 45.3125 15.671875 45.3125 23.6875 
L 45.3125 54.6875 
L 54.296875 54.6875 
L 54.296875 0 
L 45.3125 0 
L 45.3125 8.40625 
Q 42.046875 3.421875 37.71875 1 
Q 33.40625 -1.421875 27.6875 -1.421875 
Q 18.265625 -1.421875 13.375 4.4375 
Q 8.5 10.296875 8.5 21.578125 
z
M 31.109375 56 
z
" id="DejaVuSans-117"/>
     </defs>
     <g transform="translate(61.090625 232.273281)rotate(-90)scale(0.1 -0.1)">
      <use xlink:href="#DejaVuSans-86"/>
      <use x="68.298828" xlink:href="#DejaVuSans-97"/>
      <use x="129.578125" xlink:href="#DejaVuSans-108"/>
      <use x="157.361328" xlink:href="#DejaVuSans-117"/>
      <use x="220.740234" xlink:href="#DejaVuSans-101"/>
     </g>
    </g>
   </g>
   <g id="line2d_16">
    <path clip-path="url(#pc6f05f73c4)" d="M 138.436364 254.101976 
L 139.156751 193.707425 
L 139.516945 191.617574 
L 139.877138 186.860789 
L 140.237332 195.531239 
L 140.597526 215.79618 
L 140.957719 228.590049 
L 141.317913 249.470463 
L 141.678107 248.940372 
L 142.0383 262.896546 
L 142.758687 242.030619 
L 143.118881 237.3943 
L 143.479075 218.544789 
L 143.839268 216.872769 
L 144.559656 249.246447 
L 144.919849 260.315029 
L 145.640237 295.881596 
L 146.00043 281.993332 
L 146.360624 273.899394 
L 147.081011 241.500858 
L 147.441205 199.852221 
L 147.801399 176.324921 
L 148.161592 167.116821 
L 148.521786 154.43378 
L 149.602367 210.103437 
L 149.962561 231.900709 
L 150.322754 231.923483 
L 150.682948 240.103904 
L 151.403335 227.872845 
L 151.763529 214.881951 
L 152.123722 205.954232 
L 152.84411 221.977058 
L 153.564497 251.131286 
L 153.924691 280.105685 
L 154.284884 286.176697 
L 154.645078 284.561224 
L 155.005272 275.025577 
L 155.365465 241.852987 
L 155.725659 219.053325 
L 156.085853 184.512215 
L 156.446046 177.817942 
L 156.80624 167.956841 
L 157.166434 166.322286 
L 157.526627 175.446984 
L 157.886821 203.417677 
L 158.247015 212.040631 
L 158.607208 235.984673 
L 158.967402 232.191028 
L 159.327595 241.378492 
L 159.687789 245.189074 
L 160.047983 220.402318 
L 160.408176 208.010615 
L 160.76837 223.244444 
L 161.128564 218.971464 
L 162.209145 267.725421 
L 162.569338 277.626626 
L 162.929532 296.286307 
L 163.289726 302.599075 
L 163.649919 297.637492 
L 164.010113 263.176384 
L 164.370307 240.138822 
L 164.7305 206.453632 
L 165.811081 165.855984 
L 166.171275 196.308357 
L 166.891662 234.507953 
L 167.251856 245.155774 
L 167.612049 252.453421 
L 167.972243 264.276888 
L 168.332437 254.347159 
L 168.69263 254.446431 
L 169.052824 233.987042 
L 169.413018 241.045986 
L 169.773211 259.200969 
L 170.133405 245.536326 
L 170.853792 305.17795 
L 171.213986 317.94478 
L 171.57418 315.985944 
L 171.934373 331.787906 
L 172.294567 309.72622 
L 172.654761 299.025371 
L 173.014954 260.0626 
L 174.095535 196.835334 
L 174.455729 191.243933 
L 174.815923 218.537088 
L 175.176116 231.795486 
L 175.53631 266.404107 
L 175.896503 279.773029 
L 176.256697 276.256486 
L 176.616891 282.0423 
L 176.977084 279.692762 
L 177.337278 272.202089 
L 178.057665 263.880128 
L 178.417859 267.76219 
L 178.778053 277.975889 
L 180.218827 339.652591 
L 180.579021 339.577911 
L 181.299408 313.699433 
L 181.659602 277.490018 
L 182.379989 239.437636 
L 182.740183 227.203537 
L 183.100377 210.074822 
L 183.820764 253.100846 
L 184.180958 260.012398 
L 184.541151 285.750365 
L 184.901345 289.45103 
L 185.261538 304.29641 
L 185.981926 284.400757 
L 186.342119 283.783801 
L 186.702313 261.787355 
L 187.4227 284.189539 
L 187.782894 289.946818 
L 188.143088 322.03136 
L 188.503281 332.086612 
L 188.863475 327.698507 
L 189.223669 241.747775 
L 189.583862 331.164391 
L 190.664443 239.31677 
L 191.024637 233.870824 
L 191.745024 216.075943 
L 192.105218 235.657241 
L 192.465412 236.202658 
L 193.185799 277.384283 
L 193.545992 276.873138 
L 193.906186 284.962748 
L 194.26638 279.019835 
L 194.626573 266.688965 
L 194.986767 246.6147 
L 195.346961 257.37247 
L 195.707154 250.289257 
L 196.427542 271.232439 
L 196.787735 293.300475 
L 197.147929 301.994489 
L 197.508123 321.14483 
L 197.868316 314.556071 
L 198.22851 313.028779 
L 198.588704 270.718216 
L 198.948897 252.347202 
L 199.669285 193.904693 
L 200.029478 199.83608 
L 200.749866 185.06911 
L 201.830446 245.059098 
L 202.19064 242.378957 
L 202.550834 259.184019 
L 202.911027 248.842676 
L 203.271221 228.701423 
L 203.631415 231.390154 
L 203.991608 222.906466 
L 204.351802 222.96279 
L 204.711996 223.13982 
L 205.792577 291.656075 
L 206.15277 293.858901 
L 206.512964 289.477845 
L 206.873158 280.834257 
L 207.953739 209.210926 
L 208.313932 174.046677 
L 208.674126 169.713806 
L 209.03432 160.332269 
L 209.394513 171.012932 
L 210.835288 240.73185 
L 211.195481 236.965142 
L 211.555675 241.209643 
L 211.915869 214.236674 
L 212.276062 202.738822 
L 212.636256 214.409928 
L 212.99645 201.34365 
L 213.356643 209.784979 
L 213.716837 230.256116 
L 214.437224 285.407284 
L 214.797418 278.920061 
L 215.157612 289.151036 
L 215.877999 252.867214 
L 216.238193 218.064184 
L 216.598386 211.398529 
L 216.95858 177.185327 
L 217.318774 168.749606 
L 217.678967 153.348777 
L 218.039161 166.289759 
L 218.399354 200.330151 
L 218.759548 208.876187 
L 219.479935 240.128375 
L 219.840129 220.277097 
L 220.200323 228.858138 
L 220.92071 223.01345 
L 221.280904 210.940372 
L 221.641097 216.538264 
L 222.001291 225.047184 
L 222.721678 273.361481 
L 223.081872 279.845799 
L 223.442066 294.964545 
L 223.802259 297.547988 
L 224.522647 257.531828 
L 224.88284 246.294387 
L 225.603228 188.314646 
L 225.963421 181.086932 
L 226.323615 186.316793 
L 226.683808 184.143851 
L 227.044002 218.800735 
L 227.764389 251.183153 
L 228.124583 268.307632 
L 228.484777 269.417054 
L 228.84497 258.758154 
L 229.205164 251.557725 
L 229.565358 247.179805 
L 229.925551 245.844154 
L 230.285745 235.74743 
L 230.645939 257.607695 
L 231.006132 266.388006 
L 232.086713 327.848661 
L 232.446907 329.470213 
L 232.807101 309.149397 
L 233.167294 297.463822 
L 233.527488 277.227954 
L 234.247875 212.734564 
L 234.608069 226.375777 
L 234.968263 214.324821 
L 235.328456 216.645071 
L 235.68865 244.05424 
L 236.048843 250.601644 
L 236.769231 294.791134 
L 237.129424 289.396722 
L 237.849812 271.419374 
L 238.210005 272.502825 
L 238.570199 278.179978 
L 238.930393 263.935877 
L 239.290586 289.793127 
L 239.65078 284.399738 
L 240.010974 315.22189 
L 240.731361 346.019226 
L 241.091555 343.66974 
L 241.451748 335.066764 
L 241.811942 302.630793 
L 242.172136 288.172006 
L 242.532329 252.471403 
L 242.892523 232.431694 
L 243.252717 228.453959 
L 243.61291 218.483946 
L 243.973104 224.5709 
L 244.693491 271.116391 
L 245.053685 288.643582 
L 245.413878 294.465837 
L 245.774072 293.056043 
L 246.134266 279.081224 
L 246.494459 289.150003 
L 246.854653 272.953368 
L 247.214847 282.078841 
L 247.57504 275.554654 
L 247.935234 279.063545 
L 248.295428 301.502979 
L 248.655621 312.191492 
L 249.376009 345.686453 
L 249.736202 339.390864 
L 250.45659 293.580857 
L 250.816783 279.740433 
L 251.176977 242.08673 
L 251.897364 214.092184 
L 252.257558 210.393407 
L 252.617751 224.855669 
L 252.977945 232.723675 
L 253.698332 269.522805 
L 254.058526 271.950115 
L 254.41872 288.733869 
L 255.859494 242.505296 
L 256.219688 252.304398 
L 256.579882 268.106659 
L 256.940075 267.988974 
L 257.300269 301.824791 
L 257.660463 317.520374 
L 258.020656 310.130728 
L 258.38085 308.086544 
L 258.741044 309.077275 
L 259.101237 285.355243 
L 259.821625 218.191057 
L 260.542012 188.004934 
L 260.902205 188.235608 
L 261.262399 192.357803 
L 261.622593 200.679165 
L 261.982786 239.407882 
L 262.34298 246.50934 
L 262.703174 349.745301 
L 263.063367 255.741666 
L 263.423561 251.159048 
L 263.783755 239.201991 
L 264.143948 236.498302 
L 264.504142 226.940165 
L 264.864336 239.798443 
L 265.224529 237.090801 
L 265.584723 243.053451 
L 266.30511 284.909611 
L 266.665304 289.725901 
L 267.025498 302.377898 
L 268.106079 229.190345 
L 268.466272 199.157936 
L 268.826466 193.888378 
L 269.186659 160.009474 
L 269.546853 174.566742 
L 269.907047 174.122456 
L 270.26724 184.092232 
L 270.627434 213.857506 
L 270.987628 222.165148 
L 271.347821 241.252395 
L 271.708015 225.11268 
L 272.068209 227.20053 
L 272.428402 228.276949 
L 272.788596 204.797594 
L 273.14879 198.441514 
L 273.508983 217.160829 
L 273.869177 217.921462 
L 274.589564 275.150232 
L 274.949758 272.128619 
L 275.309952 282.421855 
L 275.670145 285.595714 
L 276.030339 275.861219 
L 276.390533 257.185576 
L 276.750726 217.111451 
L 277.11092 195.955547 
L 277.471114 162.018826 
L 277.831307 147.042621 
L 278.191501 157.107215 
L 278.551694 170.466519 
L 279.272082 217.438626 
L 279.632275 233.367274 
L 279.992469 233.64219 
L 280.352663 238.830539 
L 280.712856 237.843488 
L 281.07305 230.306639 
L 281.433244 219.924858 
L 281.793437 227.171949 
L 282.153631 230.490927 
L 282.513825 225.846652 
L 282.874018 236.561606 
L 283.234212 287.98561 
L 283.594406 277.83956 
L 283.954599 303.218107 
L 284.314793 289.883462 
L 284.674987 286.330716 
L 285.03518 267.442297 
L 285.755568 212.870766 
L 286.115761 196.07039 
L 286.475955 173.56662 
L 286.836148 177.069912 
L 287.196342 203.469378 
L 287.556536 206.979519 
L 287.916729 220.0636 
L 288.276923 248.206394 
L 288.637117 265.512196 
L 288.99731 277.365737 
L 289.357504 254.820982 
L 289.717698 241.439574 
L 290.077891 251.607246 
L 290.438085 244.133627 
L 290.798279 250.669281 
L 291.158472 264.272873 
L 291.518666 270.012711 
L 291.87886 289.327297 
L 292.239053 320.558464 
L 292.599247 319.057616 
L 292.959441 324.25646 
L 293.319634 314.211919 
L 293.679828 290.938036 
L 294.040022 258.576175 
L 294.400215 243.566249 
L 294.760409 221.181022 
L 295.120602 220.729269 
L 295.480796 214.4084 
L 295.84099 219.186114 
L 296.201183 232.280351 
L 296.561377 266.635318 
L 296.921571 266.259793 
L 297.281764 284.183383 
L 297.641958 286.899798 
L 298.002152 275.057205 
L 298.362345 275.266646 
L 298.722539 264.615847 
L 299.082733 267.795844 
L 299.442926 264.336506 
L 299.80312 273.736079 
L 300.523507 304.960263 
L 300.883701 340.912107 
L 301.243895 347.909224 
L 301.604088 338.954886 
L 301.964282 333.29845 
L 302.684669 277.647198 
L 303.044863 244.543884 
L 303.405056 239.476419 
L 304.125444 212.652555 
L 304.845831 247.485657 
L 305.206025 257.192478 
L 305.566218 280.228272 
L 305.926412 292.845031 
L 306.286606 293.472704 
L 306.646799 284.039761 
L 307.006993 285.947968 
L 307.367187 270.463111 
L 307.72738 278.164177 
L 308.087574 263.750433 
L 308.807961 294.085568 
L 309.528349 331.359164 
L 309.888542 342.428804 
L 310.248736 347.076405 
L 310.60893 331.182146 
L 311.68951 249.482517 
L 312.049704 227.851843 
L 312.409898 215.851495 
L 312.770091 211.533239 
L 313.130285 219.539116 
L 313.490479 238.366363 
L 313.850672 267.766896 
L 314.210866 268.8898 
L 314.57106 277.034488 
L 314.931253 273.222492 
L 315.291447 276.752766 
L 315.651641 278.397267 
L 316.011834 269.966235 
L 316.372028 247.413385 
L 316.732222 239.652731 
L 317.452609 274.745825 
L 317.812803 297.113929 
L 318.53319 312.405214 
L 318.893384 313.023823 
L 319.253577 306.910935 
L 319.973964 250.860039 
L 321.054545 192.058523 
L 321.414739 194.620285 
L 321.774933 191.98825 
L 322.49532 231.614588 
L 322.855514 247.336502 
L 323.215707 255.457397 
L 323.575901 254.419167 
L 323.936095 257.324487 
L 324.296288 232.870969 
L 324.656482 218.65778 
L 325.016676 227.274317 
L 325.376869 228.401961 
L 325.737063 239.790733 
L 326.817644 287.472294 
L 327.177838 291.389994 
L 327.538031 291.761309 
L 327.898225 280.293174 
L 328.258419 260.471106 
L 328.618612 225.67167 
L 328.978806 205.158909 
L 329.699193 148.948288 
L 330.059387 161.896732 
L 330.41958 170.290893 
L 330.779774 187.500602 
L 331.139968 198.653114 
L 331.500161 225.147881 
L 331.860355 233.782982 
L 332.220549 247.202471 
L 332.940936 220.974526 
L 333.30113 223.862944 
L 333.661323 203.952123 
L 335.462292 273.149724 
L 335.822485 271.207491 
L 336.182679 284.837084 
L 336.903066 238.277949 
L 338.343841 165.668496 
L 338.704034 154.910617 
L 339.064228 179.471086 
L 339.424422 182.646573 
L 340.144809 230.835608 
L 340.505003 240.527726 
L 341.22539 227.937756 
L 341.585584 226.915805 
L 342.305971 212.588787 
L 342.666165 210.793404 
L 343.026358 233.707624 
L 343.386552 238.658152 
L 344.106939 287.966123 
L 344.467133 294.756113 
L 344.827327 296.362435 
L 345.18752 311.355131 
L 345.547714 262.70824 
L 346.268101 212.321879 
L 346.628295 188.57756 
L 346.988488 189.782404 
L 347.348682 186.907509 
L 347.708876 187.297512 
L 348.069069 205.004883 
L 348.429263 235.336072 
L 348.789457 246.426877 
L 349.14965 249.983098 
L 349.509844 273.558678 
L 350.230231 254.824953 
L 350.590425 230.410452 
L 351.310812 253.562046 
L 351.671006 251.446432 
L 352.0312 268.117163 
L 352.391393 294.810258 
L 352.751587 312.523097 
L 353.111781 323.607482 
L 353.832168 319.034441 
L 354.552555 274.137354 
L 354.912749 234.912604 
L 355.272942 220.223331 
L 355.633136 200.498914 
L 355.99333 202.160704 
L 356.353523 213.690369 
L 356.713717 228.865674 
L 357.073911 255.516611 
L 357.794298 280.41662 
L 358.154492 295.931746 
L 358.874879 280.53488 
L 359.235073 259.32684 
L 359.595266 263.210337 
L 359.95546 258.709175 
L 360.315654 278.723469 
L 360.675847 308.006867 
L 361.036041 311.782615 
L 361.396235 335.273958 
L 361.756428 344.177829 
L 362.116622 342.055528 
L 362.476815 318.55942 
L 362.837009 310.031994 
L 363.557396 241.902626 
L 364.277784 225.269021 
L 364.637977 223.008149 
L 364.998171 244.573599 
L 365.358365 246.918384 
L 366.078752 292.904384 
L 366.438946 294.768456 
L 366.799139 313.390536 
L 367.159333 289.471733 
L 367.519527 279.361134 
L 367.87972 272.835343 
L 368.239914 263.537112 
L 368.600108 273.332995 
L 368.960301 276.083487 
L 369.320495 306.280682 
L 369.680689 309.213024 
L 370.040882 325.770017 
L 370.401076 349.663757 
L 370.761269 336.336126 
L 371.121463 339.118063 
L 371.481657 293.765086 
L 371.84185 286.129611 
L 372.202044 244.27801 
L 372.562238 249.405809 
L 372.922431 213.354713 
L 373.282625 220.760904 
L 373.642819 236.221261 
L 374.003012 240.801995 
L 374.363206 259.983392 
L 374.7234 258.864361 
L 375.083593 285.903791 
L 375.443787 281.867871 
L 375.803981 275.889493 
L 376.164174 259.071453 
L 376.524368 261.888965 
L 376.884562 242.230131 
L 377.244755 251.990404 
L 377.604949 258.088809 
L 377.965143 275.757985 
L 378.325336 308.376246 
L 378.68553 322.217764 
L 379.045724 323.261431 
L 379.405917 311.913769 
L 379.766111 294.312328 
L 380.126304 283.584262 
L 380.846692 216.458964 
L 381.206885 195.994044 
L 381.567079 286.00025 
L 381.927273 176.366377 
L 382.287466 185.672314 
L 382.64766 221.649002 
L 383.007854 228.15263 
L 383.368047 254.922371 
L 383.728241 246.134655 
L 384.088435 259.340532 
L 384.448628 248.314941 
L 385.169016 218.560422 
L 385.529209 234.711764 
L 385.889403 231.318483 
L 386.60979 248.018374 
L 387.330178 287.203156 
L 387.690371 288.945238 
L 388.410758 280.810414 
L 389.131146 229.854211 
L 389.851533 180.434011 
L 390.211727 169.127209 
L 390.57192 163.704083 
L 390.932114 167.041062 
L 391.292308 194.044415 
L 391.652501 199.124849 
L 392.012695 226.212721 
L 392.372889 238.179661 
L 392.733082 241.700106 
L 393.093276 226.599472 
L 393.45347 216.255798 
L 393.813663 215.824555 
L 394.173857 201.720206 
L 394.534051 205.813071 
L 394.894244 219.248631 
L 395.614632 261.167535 
L 396.335019 294.997196 
L 397.055406 268.341566 
L 397.775793 223.02928 
L 398.135987 206.400266 
L 398.496181 180.535561 
L 398.856374 66.96 
L 399.216568 155.665535 
L 399.576762 168.069713 
L 399.936955 175.197082 
L 401.017536 244.985079 
L 401.37773 250.071078 
L 401.737924 241.742054 
L 402.098117 221.543414 
L 402.458311 224.151591 
L 402.818505 224.517389 
L 403.538892 228.586263 
L 403.899086 251.299115 
L 404.259279 266.995661 
L 404.619473 275.358156 
L 404.979666 298.860981 
L 405.33986 304.752758 
L 405.700054 297.050558 
L 406.060247 255.631307 
L 406.780635 216.3902 
L 407.140828 186.049309 
L 407.501022 175.846651 
L 407.861216 175.235724 
L 408.581603 208.123406 
L 408.941797 234.413801 
L 409.30199 251.469237 
L 409.662184 257.981765 
L 410.022378 270.756082 
L 410.382571 272.010452 
L 410.742765 255.497975 
L 411.102959 233.082122 
L 411.463152 253.704338 
L 411.823346 238.748775 
L 412.18354 261.755259 
L 412.543733 270.035575 
L 412.903927 299.901036 
L 413.26412 309.51197 
L 413.624314 326.702033 
L 413.984508 303.787687 
L 414.344701 314.612738 
L 415.065089 265.935553 
L 415.785476 213.674122 
L 416.14567 210.359692 
L 416.505863 205.955671 
L 417.586444 250.471428 
L 417.946638 276.169394 
L 418.306832 283.674117 
L 418.667025 298.652917 
L 419.027219 275.590668 
L 419.387413 277.884585 
L 419.747606 281.141807 
L 420.1078 272.716925 
L 420.467994 270.755294 
L 421.188381 287.079709 
L 421.548575 308.681954 
L 421.908768 340.568917 
L 422.268962 345.749539 
L 422.629155 336.104698 
L 422.989349 340.962612 
L 423.349543 318.626202 
L 423.709736 275.744218 
L 424.06993 262.658217 
L 424.430124 238.393653 
L 425.150511 223.795508 
L 425.510705 325.700718 
L 425.870898 261.579605 
L 426.231092 266.877964 
L 426.951479 301.288164 
L 427.311673 290.625178 
L 427.671867 287.270391 
L 428.03206 282.016264 
L 428.392254 269.475262 
L 428.752448 268.928038 
L 429.112641 278.598182 
L 429.472835 281.943244 
L 429.833029 294.262179 
L 430.193222 324.239685 
L 430.553416 327.170004 
L 430.913609 343.132312 
L 431.273803 345.323478 
L 431.633997 320.748162 
L 431.99419 309.833183 
L 432.354384 269.930032 
L 432.714578 245.548215 
L 433.074771 233.317781 
L 433.434965 211.266599 
L 433.795159 211.029253 
L 434.155352 236.848668 
L 434.515546 234.469067 
L 434.87574 243.208183 
L 435.235933 267.596795 
L 436.316514 293.49753 
L 437.036902 264.646135 
L 437.397095 261.323928 
L 437.757289 244.503136 
L 438.117483 254.219186 
L 438.83787 296.217624 
L 439.558257 321.577602 
L 439.918451 309.209857 
L 440.278644 304.35015 
L 440.999032 264.711459 
L 441.719419 200.113684 
L 442.439806 183.08128 
L 442.8 192.924861 
L 443.520387 233.185135 
L 443.880581 238.732665 
L 444.240775 252.488501 
L 444.600968 257.83062 
L 444.961162 254.278941 
L 445.321356 233.944235 
L 446.041743 222.601157 
L 446.401937 228.317621 
L 447.122324 248.956838 
L 447.482517 274.716731 
L 447.842711 282.419638 
L 448.202905 295.966475 
L 448.563098 299.929005 
L 449.643679 236.785663 
L 450.003873 198.450054 
L 450.72426 152.564548 
L 451.084454 170.756168 
L 451.444648 177.977251 
L 452.165035 205.699623 
L 452.525229 232.548849 
L 452.885422 243.240076 
L 453.245616 233.858572 
L 453.60581 228.969577 
L 453.966003 236.387792 
L 454.326197 291.350481 
L 454.686391 210.077081 
L 455.046584 206.483327 
L 455.406778 223.22697 
L 455.766971 234.662141 
L 456.127165 270.30874 
L 456.487359 263.864833 
L 456.847552 281.985403 
L 457.207746 281.308842 
L 457.56794 278.666364 
L 459.008714 172.805127 
L 459.368908 176.326572 
L 459.729102 170.88178 
L 460.089295 171.527963 
L 460.449489 180.213306 
L 460.809683 214.430456 
L 461.169876 236.141623 
L 461.53007 230.394228 
L 461.890264 248.195163 
L 462.250457 232.533797 
L 462.610651 225.504657 
L 462.970845 221.917403 
L 463.331038 224.956971 
L 463.691232 218.966518 
L 464.051425 231.824645 
L 464.411619 255.900445 
L 464.771813 263.767504 
L 465.132006 286.562712 
L 465.4922 301.559996 
L 466.212587 286.059136 
L 466.932975 248.439126 
L 467.293168 202.629646 
L 468.013556 189.92661 
L 468.373749 179.72084 
L 468.733943 192.547533 
L 469.45433 239.559174 
L 469.814524 246.672111 
L 470.174718 260.474537 
L 470.534911 257.109581 
L 470.895105 261.735891 
L 471.255299 252.420887 
L 471.615492 240.029972 
L 471.975686 246.531026 
L 472.33588 243.594162 
L 472.696073 248.097375 
L 473.056267 277.946124 
L 473.41646 280.746 
L 473.776654 311.340889 
L 474.136848 315.837779 
L 474.497041 326.932629 
L 474.857235 317.698786 
L 475.217429 301.749973 
L 475.937816 246.638902 
L 476.29801 223.507059 
L 477.018397 202.138517 
L 477.738784 250.528047 
L 478.098978 258.426942 
L 478.459172 278.156861 
L 478.819365 289.107991 
L 479.179559 295.639234 
L 479.539753 273.446126 
L 479.899946 279.565839 
L 480.26014 269.037601 
L 480.620334 263.64274 
L 481.340721 273.822439 
L 481.700914 292.042146 
L 482.061108 332.471127 
L 482.421302 327.897146 
L 483.141689 339.78836 
L 483.501883 328.602791 
L 483.862076 311.766147 
L 484.582464 257.19628 
L 484.942657 229.169454 
L 485.302851 215.394442 
L 485.663045 211.671717 
L 486.383432 252.402301 
L 486.743626 260.487695 
L 487.103819 294.286614 
L 487.464013 283.988212 
L 487.824207 288.756889 
L 488.1844 296.034473 
L 488.544594 291.345106 
L 488.904788 278.598518 
L 489.264981 261.066799 
L 489.625175 269.001423 
L 489.985368 270.698499 
L 490.345562 302.526343 
L 490.705756 305.373078 
L 491.426143 354.738113 
L 491.786337 342.537971 
L 492.14653 325.014006 
L 492.506724 294.28172 
L 492.866918 286.861959 
L 493.587305 230.984197 
L 494.307692 200.297523 
L 494.667886 231.080017 
L 495.02808 239.414102 
L 495.748467 267.061805 
L 496.108661 275.311863 
L 496.468854 288.274377 
L 497.549435 247.354611 
L 497.909629 240.345937 
L 498.269822 248.288115 
L 498.99021 276.993926 
L 499.350403 301.754331 
L 499.710597 302.503843 
L 500.070791 319.194213 
L 500.430984 229.288742 
L 500.791178 303.188579 
L 501.151372 269.309251 
L 501.511565 267.559974 
L 501.871759 216.425753 
L 502.231953 210.654159 
L 502.592146 180.933991 
L 502.95234 181.888066 
L 503.672727 218.238128 
L 504.032921 222.295021 
L 504.393115 249.2561 
L 504.753308 251.368796 
L 505.113502 256.396576 
L 505.833889 242.420214 
L 506.194083 214.22373 
L 506.554276 229.022073 
L 506.91447 223.904231 
L 507.274664 235.943242 
L 507.634857 251.88013 
L 507.995051 258.928469 
L 508.355245 292.968654 
L 508.715438 297.222739 
L 509.075632 295.751831 
L 509.435826 274.207676 
L 509.796019 265.244455 
L 510.516407 204.100097 
L 510.8766 189.291474 
L 511.236794 164.412469 
L 511.957181 169.023583 
L 512.317375 201.054392 
L 513.037762 225.854772 
L 513.397956 230.763745 
L 513.75815 250.539545 
L 514.118343 226.820214 
L 514.478537 227.620035 
L 514.838731 208.395227 
L 515.198924 203.629928 
L 515.559118 200.997047 
L 516.279505 248.474973 
L 516.639699 263.939058 
L 516.999892 268.758737 
L 517.360086 304.078554 
L 517.72028 280.231709 
L 518.080473 277.493751 
L 518.440667 263.324328 
L 518.800861 219.841149 
L 519.881442 155.596622 
L 520.241635 152.574672 
L 520.601829 172.78735 
L 520.962023 185.924429 
L 521.322216 215.326115 
L 521.68241 230.651327 
L 522.042604 239.31366 
L 522.402797 245.146688 
L 522.762991 236.405361 
L 523.123185 231.52843 
L 523.483378 231.546579 
L 523.843572 201.069064 
L 524.203765 209.269531 
L 524.563959 239.656986 
L 524.924153 243.193629 
L 525.284346 255.83968 
L 525.64454 286.184339 
L 526.004734 283.280026 
L 526.364927 296.498573 
L 526.725121 279.23733 
L 527.085315 271.551573 
L 527.445508 255.717671 
L 528.165896 203.299479 
L 528.526089 179.701473 
L 528.886283 180.569135 
L 529.246477 192.76471 
L 529.60667 212.131343 
L 529.966864 222.827365 
L 530.327058 250.08582 
L 530.687251 267.917897 
L 531.047445 269.155687 
L 531.767832 250.586369 
L 532.128026 249.504693 
L 532.488219 249.353852 
L 532.848413 259.912451 
L 533.5688 270.772522 
L 534.289188 320.204225 
L 534.649381 330.158496 
L 535.009575 323.508367 
L 535.369769 221.165182 
L 535.729962 293.682503 
L 536.090156 273.745047 
L 536.45035 236.448225 
L 537.170737 206.398964 
L 537.530931 204.446114 
L 537.891124 226.197298 
L 538.251318 237.790108 
L 538.611512 257.842607 
L 538.971705 269.744675 
L 539.331899 286.406576 
L 539.692093 291.437238 
L 540.052286 290.021814 
L 540.41248 280.092204 
L 540.772673 261.924564 
L 541.132867 276.341771 
L 541.493061 262.52306 
L 543.294029 348.167968 
L 544.014416 331.875371 
L 544.37461 293.602404 
L 545.094997 258.248611 
L 545.455191 231.802003 
L 545.815385 220.501228 
L 546.175578 223.727516 
L 546.535772 235.383737 
L 546.895966 260.657581 
L 547.256159 268.650839 
L 547.616353 291.80363 
L 547.976547 281.608687 
L 548.33674 294.254589 
L 548.696934 290.24048 
L 549.057127 281.427949 
L 549.417321 287.286625 
L 549.777515 272.521462 
L 550.137708 274.032937 
L 550.497902 273.064973 
L 550.858096 299.09129 
L 551.218289 315.864169 
L 551.578483 341.960793 
L 551.938677 351.008136 
L 552.29887 346.515354 
L 552.659064 320.718346 
L 553.019258 304.384115 
L 553.739645 254.835446 
L 554.099839 214.563367 
L 554.460032 215.104681 
L 554.820226 211.479103 
L 555.18042 218.541731 
L 555.900807 259.109218 
L 556.261001 269.368478 
L 556.621194 284.666249 
L 556.981388 283.376586 
L 557.341581 275.624465 
L 557.701775 259.303966 
L 558.061969 259.172967 
L 558.422162 247.699899 
L 558.782356 254.636351 
L 559.14255 259.000882 
L 559.502743 281.368267 
L 559.862937 287.812995 
L 560.583324 320.523676 
L 561.303712 300.162262 
L 561.663905 286.433087 
L 562.024099 242.102976 
L 563.10468 185.600092 
L 563.464874 175.438962 
L 563.825067 207.96607 
L 564.185261 221.61414 
L 564.545455 222.841657 
L 564.905648 247.911764 
L 565.265842 261.972562 
L 565.626036 266.51003 
L 565.986229 239.589942 
L 566.346423 244.17906 
L 567.06681 216.361863 
L 567.427004 225.090368 
L 567.787197 242.366122 
L 568.147391 239.554398 
L 568.867778 292.686522 
L 569.227972 301.20402 
L 569.588166 293.739422 
L 569.948359 282.403401 
L 570.308553 264.240403 
L 570.668747 236.766152 
L 571.02894 182.57531 
L 571.389134 181.225051 
L 571.749328 163.751747 
L 572.109521 155.720219 
L 572.829909 186.617043 
L 573.190102 193.087334 
L 573.550296 229.252607 
L 574.270683 236.251476 
L 574.630877 225.705139 
L 574.99107 220.682184 
L 575.351264 206.72162 
L 575.711458 203.457162 
L 576.071651 216.426441 
L 576.431845 219.368696 
L 576.792039 329.66299 
L 577.152232 258.60725 
L 577.512426 268.478414 
L 578.232813 280.018947 
L 578.593007 276.105501 
L 578.953201 234.191934 
L 579.313394 235.511204 
L 579.673588 194.577082 
L 580.033782 171.386504 
L 580.393975 159.436466 
L 580.754169 171.065212 
L 581.114363 178.395246 
L 581.474556 191.986253 
L 581.83475 200.667844 
L 582.194944 234.016958 
L 582.915331 252.936931 
L 583.275524 238.996553 
L 583.635718 236.428169 
L 583.995912 212.644667 
L 584.356105 215.830018 
L 584.716299 230.64606 
L 585.076493 228.045806 
L 585.436686 253.963074 
L 586.157074 276.705087 
L 586.517267 283.535484 
L 586.877461 299.112931 
L 587.237655 277.998182 
L 587.597848 267.090321 
L 587.958042 250.000963 
L 588.318236 203.377153 
L 589.038623 186.88976 
L 589.398817 171.523622 
L 589.75901 202.65218 
L 590.119204 214.141574 
L 590.479398 233.2791 
L 591.559978 264.684015 
L 591.920172 256.739984 
L 592.280366 254.57005 
L 592.640559 242.584866 
L 593.000753 243.110359 
L 593.360947 236.974348 
L 593.72114 248.493083 
L 594.441528 299.560948 
L 594.801721 301.902946 
L 595.161915 322.135137 
L 595.522109 323.684848 
L 596.242496 289.843377 
L 597.323077 213.472261 
L 597.683271 212.020534 
L 598.043464 205.327897 
L 598.763852 229.20606 
L 599.124045 259.410191 
L 599.484239 270.620215 
L 599.844432 286.732443 
L 600.204626 293.952744 
L 600.56482 275.61881 
L 600.925013 277.057171 
L 601.285207 272.3324 
L 601.645401 279.807517 
L 602.005594 274.930087 
L 602.365788 277.04772 
L 602.725982 302.277049 
L 603.086175 309.666533 
L 603.446369 343.34376 
L 603.806563 341.301144 
L 604.166756 355.440545 
L 604.52695 338.569989 
L 604.887144 313.305487 
L 605.607531 249.169032 
L 605.967725 224.36095 
L 606.327918 225.053855 
L 606.688112 218.089627 
L 607.408499 255.975659 
L 607.768693 264.530632 
L 608.128886 283.209438 
L 608.48908 319.830707 
L 608.849274 297.67641 
L 609.209467 285.41841 
L 609.569661 281.426257 
L 609.929855 268.255461 
L 610.290048 284.274561 
L 610.650242 278.174502 
L 611.010436 296.182706 
L 611.370629 300.152509 
L 611.730823 306.479675 
L 612.091017 321.992534 
L 612.45121 345.544175 
L 612.811404 346.956092 
L 613.171598 326.06978 
L 613.531791 298.625815 
L 613.891985 282.526698 
L 614.252179 242.30241 
L 614.972566 206.563926 
L 615.33276 207.973129 
L 615.692953 215.320455 
L 616.053147 240.668327 
L 616.413341 252.750093 
L 616.773534 269.869411 
L 617.133728 278.294154 
L 617.493921 289.333682 
L 617.854115 265.804504 
L 618.214309 255.37878 
L 618.574502 250.413504 
L 618.934696 239.515023 
L 619.29489 249.410786 
L 619.655083 266.639808 
L 620.015277 289.928595 
L 620.375471 296.448425 
L 620.735664 314.212596 
L 621.095858 306.984042 
L 621.456052 310.148189 
L 621.816245 307.158798 
L 622.176439 281.628608 
L 622.536633 242.339796 
L 623.25702 212.545551 
L 623.617214 178.294146 
L 623.977407 181.333795 
L 624.337601 174.597833 
L 624.697795 212.983579 
L 625.418182 241.129419 
L 625.778375 252.522842 
L 626.138569 269.392189 
L 626.498763 242.853149 
L 627.21915 218.304029 
L 627.579344 228.040025 
L 627.939537 225.295943 
L 628.299731 221.564737 
L 628.659925 267.860133 
L 629.740506 287.496576 
L 630.460893 278.26319 
L 632.622055 153.335744 
L 632.982249 165.105809 
L 633.342442 183.853668 
L 634.062829 234.235769 
L 634.423023 232.668156 
L 634.783217 239.173488 
L 635.14341 224.391396 
L 635.503604 202.160025 
L 635.863798 208.493728 
L 636.223991 217.678209 
L 636.584185 219.173398 
L 636.944379 218.362311 
L 637.664766 257.675173 
L 638.02496 369.36 
L 638.385153 274.570152 
L 638.745347 284.067499 
L 639.465734 253.436851 
L 639.825928 219.416001 
L 640.186122 201.317762 
L 640.546315 174.162647 
L 641.266703 161.48708 
L 641.626896 184.326317 
L 641.98709 182.220693 
L 642.347283 210.820829 
L 643.067671 234.740023 
L 643.427864 239.077491 
L 643.788058 235.734059 
L 644.868639 200.876379 
L 645.228833 221.428021 
L 645.589026 227.792348 
L 645.94922 258.314759 
L 646.309414 270.192821 
L 646.669607 290.852656 
L 647.029801 287.867405 
L 647.389995 296.926645 
L 647.750188 281.29443 
L 648.110382 259.956084 
L 648.470576 252.29332 
L 648.830769 214.038793 
L 649.551157 181.544954 
L 649.91135 182.744635 
L 650.271544 187.133853 
L 650.991931 234.758056 
L 651.712318 267.73175 
L 652.072512 270.654644 
L 653.153093 239.968182 
L 653.513287 241.919521 
L 654.233674 247.724969 
L 654.593868 281.325004 
L 655.314255 304.326462 
L 655.674449 329.487209 
L 656.034642 330.533468 
L 656.394836 305.426978 
L 656.75503 301.554119 
L 657.115223 258.287963 
L 657.475417 240.913346 
L 657.835611 215.258682 
L 658.195804 213.659546 
L 658.555998 204.840654 
L 658.916192 222.34152 
L 659.276385 224.57559 
L 659.996772 286.117661 
L 660.356966 290.547268 
L 660.71716 281.965126 
L 661.077353 279.61458 
L 661.437547 272.665399 
L 661.797741 269.720061 
L 662.157934 258.480572 
L 663.238515 294.578813 
L 663.958903 340.329125 
L 664.319096 346.659131 
L 664.67929 339.924367 
L 665.399677 316.812226 
L 666.480258 230.047179 
L 666.840452 222.433813 
L 667.200646 221.596824 
L 667.560839 242.281273 
L 667.921033 244.501539 
L 669.001614 309.164143 
L 669.361807 299.401791 
L 669.722001 300.023915 
L 670.082195 286.185453 
L 670.442388 292.397783 
L 670.802582 270.518215 
L 671.162776 269.644772 
L 671.522969 271.984788 
L 671.883163 301.901079 
L 672.243357 316.892268 
L 672.60355 320.97195 
L 672.963744 365.765429 
L 673.323938 338.488469 
L 674.044325 306.619371 
L 674.764712 248.862697 
L 675.124906 217.694561 
L 675.4851 203.334263 
L 675.845293 219.136052 
L 676.205487 217.029807 
L 676.56568 229.505616 
L 676.925874 260.152206 
L 677.286068 270.222877 
L 677.646261 288.006735 
L 678.006455 274.846809 
L 678.366649 281.696248 
L 678.726842 262.262769 
L 679.087036 267.623056 
L 679.44723 253.45993 
L 679.807423 247.928652 
L 680.167617 250.799959 
L 681.248198 311.673552 
L 681.608392 309.214815 
L 681.968585 311.25689 
L 682.688973 274.984664 
L 684.129747 189.198862 
L 684.489941 195.330956 
L 684.850134 210.035487 
L 685.210328 206.754588 
L 685.570522 223.300388 
L 685.930715 245.831037 
L 686.290909 244.988784 
L 686.651103 257.477566 
L 687.37149 235.02581 
L 687.731684 223.893706 
L 688.091877 234.442849 
L 688.452071 228.026856 
L 688.812265 228.97782 
L 689.172458 255.792714 
L 689.892846 285.119121 
L 690.253039 282.495079 
L 690.613233 278.010543 
L 690.973427 288.853008 
L 692.414201 178.710598 
L 692.774395 172.090287 
L 693.134588 179.957835 
L 693.494782 169.58738 
L 693.854976 197.32293 
L 694.215169 200.374512 
L 694.575363 224.894318 
L 694.935557 232.569579 
L 695.29575 244.432274 
L 695.655944 222.524043 
L 696.016138 228.677939 
L 696.376331 211.856401 
L 696.736525 206.642926 
L 697.096719 117.54916 
L 697.456912 223.789574 
L 697.817106 240.870801 
L 698.1773 264.164078 
L 698.537493 265.5913 
L 698.897687 277.441874 
L 699.257881 279.836394 
L 699.618074 279.811563 
L 699.978268 257.178289 
L 700.338462 241.864027 
L 700.698655 185.256107 
L 701.058849 175.654489 
L 701.419042 159.168169 
L 701.779236 159.030518 
L 702.13943 166.241122 
L 702.859817 208.524861 
L 703.220011 215.291929 
L 703.580204 227.120384 
L 703.940398 246.595673 
L 704.300592 240.405596 
L 704.660785 223.686951 
L 705.020979 227.859121 
L 705.381173 220.308312 
L 706.10156 230.842003 
L 706.461754 245.057984 
L 706.821947 273.482487 
L 707.182141 283.020405 
L 707.542335 307.670754 
L 707.902528 310.122603 
L 708.622916 268.619164 
L 708.983109 235.612836 
L 710.06369 174.893131 
L 710.423884 182.812321 
L 710.784077 187.103305 
L 711.144271 212.853565 
L 712.224852 263.610166 
L 712.585046 257.417315 
L 712.945239 260.362227 
L 713.305433 245.773962 
L 713.665627 244.419431 
L 714.02582 242.257585 
L 714.386014 245.869931 
L 714.746208 256.693056 
L 715.826789 313.598193 
L 716.186982 316.677999 
L 716.547176 327.715885 
L 716.90737 304.710957 
L 717.267563 294.622348 
L 717.627757 255.400097 
L 717.987951 229.050451 
L 718.708338 213.780615 
L 719.068531 197.147099 
L 719.788919 237.238014 
L 720.149112 269.013768 
L 720.509306 288.461218 
L 720.8695 276.154842 
L 721.229693 294.465535 
L 721.589887 278.346334 
L 721.950081 275.761573 
L 722.310274 270.154577 
L 722.670468 268.837756 
L 723.030662 270.187452 
L 723.390855 264.056889 
L 723.751049 291.78476 
L 724.111243 303.055993 
L 725.191824 354.68909 
L 725.912211 308.737765 
L 726.272405 290.912329 
L 726.632598 258.48768 
L 726.992792 243.300594 
L 727.352985 209.72316 
L 727.713179 222.837334 
L 728.073373 230.178643 
L 728.433566 261.480129 
L 728.79376 260.764229 
L 729.514147 302.151412 
L 729.874341 298.254999 
L 730.234535 302.7529 
L 730.594728 286.67765 
L 730.954922 281.297947 
L 731.675309 266.150334 
L 732.035503 275.05677 
L 732.395697 288.719959 
L 732.75589 313.814459 
L 733.476278 346.622811 
L 734.196665 328.599346 
L 734.556859 307.491286 
L 735.637439 228.27284 
L 735.997633 218.154816 
L 736.357827 212.772796 
L 736.71802 219.586818 
L 737.078214 233.156273 
L 737.438408 259.230082 
L 737.798601 253.546125 
L 738.158795 278.793259 
L 738.518989 286.833213 
L 739.59957 257.692528 
L 739.959763 255.758851 
L 740.319957 250.53549 
L 740.680151 259.968326 
L 741.040344 276.098799 
L 741.760732 320.291166 
L 742.120925 326.887064 
L 742.481119 314.564634 
L 742.841313 310.38508 
L 743.201506 274.348322 
L 743.201506 274.348322 
" style="fill:none;stroke:#1f77b4;stroke-linecap:square;stroke-width:1.5;"/>
   </g>
   <g id="line2d_17">
    <path clip-path="url(#pc6f05f73c4)" d="M 747.163636 384.48 
L 747.163636 51.84 
" style="fill:none;stroke:#808080;stroke-linecap:square;"/>
   </g>
   <g id="patch_114">
    <path d="M 108 384.48 
L 108 51.84 
" style="fill:none;stroke:#000000;stroke-linecap:square;stroke-linejoin:miter;stroke-width:0.8;"/>
   </g>
   <g id="patch_115">
    <path d="M 777.6 384.48 
L 777.6 51.84 
" style="fill:none;stroke:#000000;stroke-linecap:square;stroke-linejoin:miter;stroke-width:0.8;"/>
   </g>
   <g id="patch_116">
    <path d="M 108 384.48 
L 777.6 384.48 
" style="fill:none;stroke:#000000;stroke-linecap:square;stroke-linejoin:miter;stroke-width:0.8;"/>
   </g>
   <g id="patch_117">
    <path d="M 108 51.84 
L 777.6 51.84 
" style="fill:none;stroke:#000000;stroke-linecap:square;stroke-linejoin:miter;stroke-width:0.8;"/>
   </g>
   <g id="text_18">
    <!-- A4Benchmark-TS52.csv -->
    <defs>
     <path d="M 34.1875 63.1875 
L 20.796875 26.90625 
L 47.609375 26.90625 
z
M 28.609375 72.90625 
L 39.796875 72.90625 
L 67.578125 0 
L 57.328125 0 
L 50.6875 18.703125 
L 17.828125 18.703125 
L 11.1875 0 
L 0.78125 0 
z
" id="DejaVuSans-65"/>
     <path d="M 37.796875 64.3125 
L 12.890625 25.390625 
L 37.796875 25.390625 
z
M 35.203125 72.90625 
L 47.609375 72.90625 
L 47.609375 25.390625 
L 58.015625 25.390625 
L 58.015625 17.1875 
L 47.609375 17.1875 
L 47.609375 0 
L 37.796875 0 
L 37.796875 17.1875 
L 4.890625 17.1875 
L 4.890625 26.703125 
z
" id="DejaVuSans-52"/>
     <path d="M 19.671875 34.8125 
L 19.671875 8.109375 
L 35.5 8.109375 
Q 43.453125 8.109375 47.28125 11.40625 
Q 51.125 14.703125 51.125 21.484375 
Q 51.125 28.328125 47.28125 31.5625 
Q 43.453125 34.8125 35.5 34.8125 
z
M 19.671875 64.796875 
L 19.671875 42.828125 
L 34.28125 42.828125 
Q 41.5 42.828125 45.03125 45.53125 
Q 48.578125 48.25 48.578125 53.8125 
Q 48.578125 59.328125 45.03125 62.0625 
Q 41.5 64.796875 34.28125 64.796875 
z
M 9.8125 72.90625 
L 35.015625 72.90625 
Q 46.296875 72.90625 52.390625 68.21875 
Q 58.5 63.53125 58.5 54.890625 
Q 58.5 48.1875 55.375 44.234375 
Q 52.25 40.28125 46.1875 39.3125 
Q 53.46875 37.75 57.5 32.78125 
Q 61.53125 27.828125 61.53125 20.40625 
Q 61.53125 10.640625 54.890625 5.3125 
Q 48.25 0 35.984375 0 
L 9.8125 0 
z
" id="DejaVuSans-66"/>
     <path d="M 54.890625 33.015625 
L 54.890625 0 
L 45.90625 0 
L 45.90625 32.71875 
Q 45.90625 40.484375 42.875 44.328125 
Q 39.84375 48.1875 33.796875 48.1875 
Q 26.515625 48.1875 22.3125 43.546875 
Q 18.109375 38.921875 18.109375 30.90625 
L 18.109375 0 
L 9.078125 0 
L 9.078125 54.6875 
L 18.109375 54.6875 
L 18.109375 46.1875 
Q 21.34375 51.125 25.703125 53.5625 
Q 30.078125 56 35.796875 56 
Q 45.21875 56 50.046875 50.171875 
Q 54.890625 44.34375 54.890625 33.015625 
z
" id="DejaVuSans-110"/>
     <path d="M 48.78125 52.59375 
L 48.78125 44.1875 
Q 44.96875 46.296875 41.140625 47.34375 
Q 37.3125 48.390625 33.40625 48.390625 
Q 24.65625 48.390625 19.8125 42.84375 
Q 14.984375 37.3125 14.984375 27.296875 
Q 14.984375 17.28125 19.8125 11.734375 
Q 24.65625 6.203125 33.40625 6.203125 
Q 37.3125 6.203125 41.140625 7.25 
Q 44.96875 8.296875 48.78125 10.40625 
L 48.78125 2.09375 
Q 45.015625 0.34375 40.984375 -0.53125 
Q 36.96875 -1.421875 32.421875 -1.421875 
Q 20.0625 -1.421875 12.78125 6.34375 
Q 5.515625 14.109375 5.515625 27.296875 
Q 5.515625 40.671875 12.859375 48.328125 
Q 20.21875 56 33.015625 56 
Q 37.15625 56 41.109375 55.140625 
Q 45.0625 54.296875 48.78125 52.59375 
z
" id="DejaVuSans-99"/>
     <path d="M 54.890625 33.015625 
L 54.890625 0 
L 45.90625 0 
L 45.90625 32.71875 
Q 45.90625 40.484375 42.875 44.328125 
Q 39.84375 48.1875 33.796875 48.1875 
Q 26.515625 48.1875 22.3125 43.546875 
Q 18.109375 38.921875 18.109375 30.90625 
L 18.109375 0 
L 9.078125 0 
L 9.078125 75.984375 
L 18.109375 75.984375 
L 18.109375 46.1875 
Q 21.34375 51.125 25.703125 53.5625 
Q 30.078125 56 35.796875 56 
Q 45.21875 56 50.046875 50.171875 
Q 54.890625 44.34375 54.890625 33.015625 
z
" id="DejaVuSans-104"/>
     <path d="M 41.109375 46.296875 
Q 39.59375 47.171875 37.8125 47.578125 
Q 36.03125 48 33.890625 48 
Q 26.265625 48 22.1875 43.046875 
Q 18.109375 38.09375 18.109375 28.8125 
L 18.109375 0 
L 9.078125 0 
L 9.078125 54.6875 
L 18.109375 54.6875 
L 18.109375 46.1875 
Q 20.953125 51.171875 25.484375 53.578125 
Q 30.03125 56 36.53125 56 
Q 37.453125 56 38.578125 55.875 
Q 39.703125 55.765625 41.0625 55.515625 
z
" id="DejaVuSans-114"/>
     <path d="M 9.078125 75.984375 
L 18.109375 75.984375 
L 18.109375 31.109375 
L 44.921875 54.6875 
L 56.390625 54.6875 
L 27.390625 29.109375 
L 57.625 0 
L 45.90625 0 
L 18.109375 26.703125 
L 18.109375 0 
L 9.078125 0 
z
" id="DejaVuSans-107"/>
     <path d="M 4.890625 31.390625 
L 31.203125 31.390625 
L 31.203125 23.390625 
L 4.890625 23.390625 
z
" id="DejaVuSans-45"/>
     <path d="M 53.515625 70.515625 
L 53.515625 60.890625 
Q 47.90625 63.578125 42.921875 64.890625 
Q 37.9375 66.21875 33.296875 66.21875 
Q 25.25 66.21875 20.875 63.09375 
Q 16.5 59.96875 16.5 54.203125 
Q 16.5 49.359375 19.40625 46.890625 
Q 22.3125 44.4375 30.421875 42.921875 
L 36.375 41.703125 
Q 47.40625 39.59375 52.65625 34.296875 
Q 57.90625 29 57.90625 20.125 
Q 57.90625 9.515625 50.796875 4.046875 
Q 43.703125 -1.421875 29.984375 -1.421875 
Q 24.8125 -1.421875 18.96875 -0.25 
Q 13.140625 0.921875 6.890625 3.21875 
L 6.890625 13.375 
Q 12.890625 10.015625 18.65625 8.296875 
Q 24.421875 6.59375 29.984375 6.59375 
Q 38.421875 6.59375 43.015625 9.90625 
Q 47.609375 13.234375 47.609375 19.390625 
Q 47.609375 24.75 44.3125 27.78125 
Q 41.015625 30.8125 33.5 32.328125 
L 27.484375 33.5 
Q 16.453125 35.6875 11.515625 40.375 
Q 6.59375 45.0625 6.59375 53.421875 
Q 6.59375 63.09375 13.40625 68.65625 
Q 20.21875 74.21875 32.171875 74.21875 
Q 37.3125 74.21875 42.625 73.28125 
Q 47.953125 72.359375 53.515625 70.515625 
z
" id="DejaVuSans-83"/>
     <path d="M 10.6875 12.40625 
L 21 12.40625 
L 21 0 
L 10.6875 0 
z
" id="DejaVuSans-46"/>
     <path d="M 2.984375 54.6875 
L 12.5 54.6875 
L 29.59375 8.796875 
L 46.6875 54.6875 
L 56.203125 54.6875 
L 35.6875 0 
L 23.484375 0 
z
" id="DejaVuSans-118"/>
    </defs>
    <g transform="translate(371.555625 45.84)scale(0.12 -0.12)">
     <use xlink:href="#DejaVuSans-65"/>
     <use x="68.408203" xlink:href="#DejaVuSans-52"/>
     <use x="132.03125" xlink:href="#DejaVuSans-66"/>
     <use x="200.634766" xlink:href="#DejaVuSans-101"/>
     <use x="262.158203" xlink:href="#DejaVuSans-110"/>
     <use x="325.537109" xlink:href="#DejaVuSans-99"/>
     <use x="380.517578" xlink:href="#DejaVuSans-104"/>
     <use x="443.896484" xlink:href="#DejaVuSans-109"/>
     <use x="541.308594" xlink:href="#DejaVuSans-97"/>
     <use x="602.587891" xlink:href="#DejaVuSans-114"/>
     <use x="643.701172" xlink:href="#DejaVuSans-107"/>
     <use x="701.611328" xlink:href="#DejaVuSans-45"/>
     <use x="737.554688" xlink:href="#DejaVuSans-84"/>
     <use x="798.638672" xlink:href="#DejaVuSans-83"/>
     <use x="862.115234" xlink:href="#DejaVuSans-53"/>
     <use x="925.738281" xlink:href="#DejaVuSans-50"/>
     <use x="989.361328" xlink:href="#DejaVuSans-46"/>
     <use x="1021.148438" xlink:href="#DejaVuSans-99"/>
     <use x="1076.128906" xlink:href="#DejaVuSans-115"/>
     <use x="1128.228516" xlink:href="#DejaVuSans-118"/>
    </g>
   </g>
   <g id="legend_1">
    <g id="patch_118">
     <path d="M 115 74.518125 
L 174.315625 74.518125 
Q 176.315625 74.518125 176.315625 72.518125 
L 176.315625 58.84 
Q 176.315625 56.84 174.315625 56.84 
L 115 56.84 
Q 113 56.84 113 58.84 
L 113 72.518125 
Q 113 74.518125 115 74.518125 
z
" style="fill:#ffffff;opacity:0.8;stroke:#cccccc;stroke-linejoin:miter;"/>
    </g>
    <g id="line2d_18">
     <path d="M 117 64.938438 
L 137 64.938438 
" style="fill:none;stroke:#1f77b4;stroke-linecap:square;stroke-width:1.5;"/>
    </g>
    <g id="line2d_19"/>
    <g id="text_19">
     <!-- value -->
     <g transform="translate(145 68.438438)scale(0.1 -0.1)">
      <use xlink:href="#DejaVuSans-118"/>
      <use x="59.179688" xlink:href="#DejaVuSans-97"/>
      <use x="120.458984" xlink:href="#DejaVuSans-108"/>
      <use x="148.242188" xlink:href="#DejaVuSans-117"/>
      <use x="211.621094" xlink:href="#DejaVuSans-101"/>
     </g>
    </g>
   </g>
  </g>
 </g>
 <defs>
  <clipPath id="pc6f05f73c4">
   <rect height="332.64" width="669.6" x="108" y="51.84"/>
  </clipPath>
 </defs>
</svg>
