<?xml version="1.0" encoding="utf-8" standalone="no"?>
<!DOCTYPE svg PUBLIC "-//W3C//DTD SVG 1.1//EN"
  "http://www.w3.org/Graphics/SVG/1.1/DTD/svg11.dtd">
<!-- Created with matplotlib (https://matplotlib.org/) -->
<svg height="432pt" version="1.1" viewBox="0 0 864 432" width="864pt" xmlns="http://www.w3.org/2000/svg" xmlns:xlink="http://www.w3.org/1999/xlink">
 <defs>
  <style type="text/css">
*{stroke-linecap:butt;stroke-linejoin:round;}
  </style>
 </defs>
 <g id="figure_1">
  <g id="patch_1">
   <path d="M 0 432 
L 864 432 
L 864 0 
L 0 0 
z
" style="fill:#ffffff;"/>
  </g>
  <g id="axes_1">
   <g id="patch_2">
    <path d="M 108 384.48 
L 777.6 384.48 
L 777.6 51.84 
L 108 51.84 
z
" style="fill:#ffffff;"/>
   </g>
   <g id="patch_3">
    <path clip-path="url(#pa67214c75e)" d="M 138.436364 384.48 
L 138.436364 51.84 
L 440.999032 51.84 
L 440.999032 384.48 
z
" style="fill:#0000ff;opacity:0.05;"/>
   </g>
   <g id="patch_4">
    <path clip-path="url(#pa67214c75e)" d="M 440.999032 384.48 
L 440.999032 51.84 
L 747.163636 51.84 
L 747.163636 384.48 
z
" style="fill:#ff0000;opacity:0.08;"/>
   </g>
   <g id="patch_5">
    <path clip-path="url(#pa67214c75e)" d="M 138.436364 384.48 
L 138.436364 51.84 
L 142.0383 51.84 
L 142.0383 384.48 
z
" style="fill:#008000;opacity:0.04;"/>
   </g>
   <g id="patch_6">
    <path clip-path="url(#pa67214c75e)" d="M 145.640237 384.48 
L 145.640237 51.84 
L 149.242173 51.84 
L 149.242173 384.48 
z
" style="fill:#008000;opacity:0.04;"/>
   </g>
   <g id="patch_7">
    <path clip-path="url(#pa67214c75e)" d="M 145.640237 384.48 
L 145.640237 371.1744 
L 149.242173 371.1744 
L 149.242173 384.48 
z
" style="fill:#ffe500;"/>
   </g>
   <g id="patch_8">
    <path clip-path="url(#pa67214c75e)" d="M 152.84411 384.48 
L 152.84411 51.84 
L 156.446046 51.84 
L 156.446046 384.48 
z
" style="fill:#008000;opacity:0.04;"/>
   </g>
   <g id="patch_9">
    <path clip-path="url(#pa67214c75e)" d="M 160.047983 384.48 
L 160.047983 51.84 
L 163.649919 51.84 
L 163.649919 384.48 
z
" style="fill:#008000;opacity:0.04;"/>
   </g>
   <g id="patch_10">
    <path clip-path="url(#pa67214c75e)" d="M 163.649919 384.48 
L 163.649919 371.1744 
L 167.251856 371.1744 
L 167.251856 384.48 
z
" style="fill:#ffe500;"/>
   </g>
   <g id="patch_11">
    <path clip-path="url(#pa67214c75e)" d="M 167.251856 384.48 
L 167.251856 51.84 
L 170.853792 51.84 
L 170.853792 384.48 
z
" style="fill:#008000;opacity:0.04;"/>
   </g>
   <g id="patch_12">
    <path clip-path="url(#pa67214c75e)" d="M 167.251856 371.1744 
L 167.251856 51.84 
L 170.853792 51.84 
L 170.853792 371.1744 
z
" style="fill:#008000;opacity:0.5;"/>
   </g>
   <g id="patch_13">
    <path clip-path="url(#pa67214c75e)" d="M 167.251856 384.48 
L 167.251856 371.1744 
L 170.853792 371.1744 
L 170.853792 384.48 
z
" style="fill:#ffe500;"/>
   </g>
   <g id="patch_14">
    <path clip-path="url(#pa67214c75e)" d="M 170.853792 384.48 
L 170.853792 371.1744 
L 174.455729 371.1744 
L 174.455729 384.48 
z
" style="fill:#ffe500;"/>
   </g>
   <g id="patch_15">
    <path clip-path="url(#pa67214c75e)" d="M 174.455729 384.48 
L 174.455729 51.84 
L 178.057665 51.84 
L 178.057665 384.48 
z
" style="fill:#008000;opacity:0.04;"/>
   </g>
   <g id="patch_16">
    <path clip-path="url(#pa67214c75e)" d="M 181.659602 384.48 
L 181.659602 51.84 
L 185.261538 51.84 
L 185.261538 384.48 
z
" style="fill:#008000;opacity:0.04;"/>
   </g>
   <g id="patch_17">
    <path clip-path="url(#pa67214c75e)" d="M 484.22227 384.48 
L 484.22227 371.1744 
L 487.824207 371.1744 
L 487.824207 384.48 
z
" style="fill:#ff6600;"/>
   </g>
   <g id="patch_18">
    <path clip-path="url(#pa67214c75e)" d="M 487.824207 384.48 
L 487.824207 371.1744 
L 491.426143 371.1744 
L 491.426143 384.48 
z
" style="fill:#ff6600;"/>
   </g>
   <g id="patch_19">
    <path clip-path="url(#pa67214c75e)" d="M 188.863475 384.48 
L 188.863475 51.84 
L 192.465412 51.84 
L 192.465412 384.48 
z
" style="fill:#008000;opacity:0.04;"/>
   </g>
   <g id="patch_20">
    <path clip-path="url(#pa67214c75e)" d="M 188.863475 384.48 
L 188.863475 371.1744 
L 192.465412 371.1744 
L 192.465412 384.48 
z
" style="fill:#ffe500;"/>
   </g>
   <g id="patch_21">
    <path clip-path="url(#pa67214c75e)" d="M 491.426143 384.48 
L 491.426143 371.1744 
L 495.02808 371.1744 
L 495.02808 384.48 
z
" style="fill:#ff6600;"/>
   </g>
   <g id="patch_22">
    <path clip-path="url(#pa67214c75e)" d="M 495.02808 384.48 
L 495.02808 371.1744 
L 498.630016 371.1744 
L 498.630016 384.48 
z
" style="fill:#ff6600;"/>
   </g>
   <g id="patch_23">
    <path clip-path="url(#pa67214c75e)" d="M 196.067348 384.48 
L 196.067348 51.84 
L 199.669285 51.84 
L 199.669285 384.48 
z
" style="fill:#008000;opacity:0.04;"/>
   </g>
   <g id="patch_24">
    <path clip-path="url(#pa67214c75e)" d="M 196.067348 384.48 
L 196.067348 371.1744 
L 199.669285 371.1744 
L 199.669285 384.48 
z
" style="fill:#ffe500;"/>
   </g>
   <g id="patch_25">
    <path clip-path="url(#pa67214c75e)" d="M 498.630016 384.48 
L 498.630016 371.1744 
L 502.231953 371.1744 
L 502.231953 384.48 
z
" style="fill:#ff6600;"/>
   </g>
   <g id="patch_26">
    <path clip-path="url(#pa67214c75e)" d="M 502.231953 384.48 
L 502.231953 371.1744 
L 505.833889 371.1744 
L 505.833889 384.48 
z
" style="fill:#ff6600;"/>
   </g>
   <g id="patch_27">
    <path clip-path="url(#pa67214c75e)" d="M 203.271221 384.48 
L 203.271221 51.84 
L 206.873158 51.84 
L 206.873158 384.48 
z
" style="fill:#008000;opacity:0.04;"/>
   </g>
   <g id="patch_28">
    <path clip-path="url(#pa67214c75e)" d="M 505.833889 384.48 
L 505.833889 371.1744 
L 509.435826 371.1744 
L 509.435826 384.48 
z
" style="fill:#ff6600;"/>
   </g>
   <g id="patch_29">
    <path clip-path="url(#pa67214c75e)" d="M 206.873158 384.48 
L 206.873158 371.1744 
L 210.475094 371.1744 
L 210.475094 384.48 
z
" style="fill:#ffe500;"/>
   </g>
   <g id="patch_30">
    <path clip-path="url(#pa67214c75e)" d="M 509.435826 384.48 
L 509.435826 371.1744 
L 513.037762 371.1744 
L 513.037762 384.48 
z
" style="fill:#ff6600;"/>
   </g>
   <g id="patch_31">
    <path clip-path="url(#pa67214c75e)" d="M 210.475094 384.48 
L 210.475094 51.84 
L 214.077031 51.84 
L 214.077031 384.48 
z
" style="fill:#008000;opacity:0.04;"/>
   </g>
   <g id="patch_32">
    <path clip-path="url(#pa67214c75e)" d="M 214.077031 384.48 
L 214.077031 371.1744 
L 217.678967 371.1744 
L 217.678967 384.48 
z
" style="fill:#ffe500;"/>
   </g>
   <g id="patch_33">
    <path clip-path="url(#pa67214c75e)" d="M 516.639699 384.48 
L 516.639699 371.1744 
L 520.241635 371.1744 
L 520.241635 384.48 
z
" style="fill:#ff6600;"/>
   </g>
   <g id="patch_34">
    <path clip-path="url(#pa67214c75e)" d="M 217.678967 384.48 
L 217.678967 51.84 
L 221.280904 51.84 
L 221.280904 384.48 
z
" style="fill:#008000;opacity:0.04;"/>
   </g>
   <g id="patch_35">
    <path clip-path="url(#pa67214c75e)" d="M 520.241635 384.48 
L 520.241635 371.1744 
L 523.843572 371.1744 
L 523.843572 384.48 
z
" style="fill:#ff6600;"/>
   </g>
   <g id="patch_36">
    <path clip-path="url(#pa67214c75e)" d="M 221.280904 371.1744 
L 221.280904 357.8688 
L 224.88284 357.8688 
L 224.88284 371.1744 
z
" style="fill:#ff00ff;"/>
   </g>
   <g id="patch_37">
    <path clip-path="url(#pa67214c75e)" d="M 523.843572 384.48 
L 523.843572 371.1744 
L 527.445508 371.1744 
L 527.445508 384.48 
z
" style="fill:#ff6600;"/>
   </g>
   <g id="patch_38">
    <path clip-path="url(#pa67214c75e)" d="M 224.88284 384.48 
L 224.88284 51.84 
L 228.484777 51.84 
L 228.484777 384.48 
z
" style="fill:#008000;opacity:0.04;"/>
   </g>
   <g id="patch_39">
    <path clip-path="url(#pa67214c75e)" d="M 232.086713 384.48 
L 232.086713 51.84 
L 235.68865 51.84 
L 235.68865 384.48 
z
" style="fill:#008000;opacity:0.04;"/>
   </g>
   <g id="patch_40">
    <path clip-path="url(#pa67214c75e)" d="M 534.649381 384.48 
L 534.649381 371.1744 
L 538.251318 371.1744 
L 538.251318 384.48 
z
" style="fill:#ff6600;"/>
   </g>
   <g id="patch_41">
    <path clip-path="url(#pa67214c75e)" d="M 239.290586 384.48 
L 239.290586 51.84 
L 242.892523 51.84 
L 242.892523 384.48 
z
" style="fill:#008000;opacity:0.04;"/>
   </g>
   <g id="patch_42">
    <path clip-path="url(#pa67214c75e)" d="M 239.290586 371.1744 
L 239.290586 51.84 
L 242.892523 51.84 
L 242.892523 371.1744 
z
" style="fill:#008000;opacity:0.5;"/>
   </g>
   <g id="patch_43">
    <path clip-path="url(#pa67214c75e)" d="M 541.853254 384.48 
L 541.853254 371.1744 
L 545.455191 371.1744 
L 545.455191 384.48 
z
" style="fill:#ff6600;"/>
   </g>
   <g id="patch_44">
    <path clip-path="url(#pa67214c75e)" d="M 246.494459 384.48 
L 246.494459 51.84 
L 250.096396 51.84 
L 250.096396 384.48 
z
" style="fill:#008000;opacity:0.04;"/>
   </g>
   <g id="patch_45">
    <path clip-path="url(#pa67214c75e)" d="M 552.659064 384.48 
L 552.659064 371.1744 
L 556.261001 371.1744 
L 556.261001 384.48 
z
" style="fill:#ff6600;"/>
   </g>
   <g id="patch_46">
    <path clip-path="url(#pa67214c75e)" d="M 253.698332 384.48 
L 253.698332 51.84 
L 257.300269 51.84 
L 257.300269 384.48 
z
" style="fill:#008000;opacity:0.04;"/>
   </g>
   <g id="patch_47">
    <path clip-path="url(#pa67214c75e)" d="M 559.862937 384.48 
L 559.862937 371.1744 
L 563.464874 371.1744 
L 563.464874 384.48 
z
" style="fill:#ff6600;"/>
   </g>
   <g id="patch_48">
    <path clip-path="url(#pa67214c75e)" d="M 260.902205 384.48 
L 260.902205 51.84 
L 264.504142 51.84 
L 264.504142 384.48 
z
" style="fill:#008000;opacity:0.04;"/>
   </g>
   <g id="patch_49">
    <path clip-path="url(#pa67214c75e)" d="M 268.106079 384.48 
L 268.106079 51.84 
L 271.708015 51.84 
L 271.708015 384.48 
z
" style="fill:#008000;opacity:0.04;"/>
   </g>
   <g id="patch_50">
    <path clip-path="url(#pa67214c75e)" d="M 275.309952 384.48 
L 275.309952 51.84 
L 278.911888 51.84 
L 278.911888 384.48 
z
" style="fill:#008000;opacity:0.04;"/>
   </g>
   <g id="patch_51">
    <path clip-path="url(#pa67214c75e)" d="M 577.87262 384.48 
L 577.87262 371.1744 
L 581.474556 371.1744 
L 581.474556 384.48 
z
" style="fill:#ff6600;"/>
   </g>
   <g id="patch_52">
    <path clip-path="url(#pa67214c75e)" d="M 282.513825 384.48 
L 282.513825 51.84 
L 286.115761 51.84 
L 286.115761 384.48 
z
" style="fill:#008000;opacity:0.04;"/>
   </g>
   <g id="patch_53">
    <path clip-path="url(#pa67214c75e)" d="M 282.513825 371.1744 
L 282.513825 51.84 
L 286.115761 51.84 
L 286.115761 371.1744 
z
" style="fill:#008000;opacity:0.5;"/>
   </g>
   <g id="patch_54">
    <path clip-path="url(#pa67214c75e)" d="M 286.115761 371.1744 
L 286.115761 51.84 
L 289.717698 51.84 
L 289.717698 371.1744 
z
" style="fill:#008000;opacity:0.5;"/>
   </g>
   <g id="patch_55">
    <path clip-path="url(#pa67214c75e)" d="M 289.717698 384.48 
L 289.717698 51.84 
L 293.319634 51.84 
L 293.319634 384.48 
z
" style="fill:#008000;opacity:0.04;"/>
   </g>
   <g id="patch_56">
    <path clip-path="url(#pa67214c75e)" d="M 296.921571 384.48 
L 296.921571 51.84 
L 300.523507 51.84 
L 300.523507 384.48 
z
" style="fill:#008000;opacity:0.04;"/>
   </g>
   <g id="patch_57">
    <path clip-path="url(#pa67214c75e)" d="M 304.125444 384.48 
L 304.125444 51.84 
L 307.72738 51.84 
L 307.72738 384.48 
z
" style="fill:#008000;opacity:0.04;"/>
   </g>
   <g id="patch_58">
    <path clip-path="url(#pa67214c75e)" d="M 311.329317 384.48 
L 311.329317 51.84 
L 314.931253 51.84 
L 314.931253 384.48 
z
" style="fill:#008000;opacity:0.04;"/>
   </g>
   <g id="patch_59">
    <path clip-path="url(#pa67214c75e)" d="M 318.53319 384.48 
L 318.53319 51.84 
L 322.135126 51.84 
L 322.135126 384.48 
z
" style="fill:#008000;opacity:0.04;"/>
   </g>
   <g id="patch_60">
    <path clip-path="url(#pa67214c75e)" d="M 325.737063 384.48 
L 325.737063 51.84 
L 329.338999 51.84 
L 329.338999 384.48 
z
" style="fill:#008000;opacity:0.04;"/>
   </g>
   <g id="patch_61">
    <path clip-path="url(#pa67214c75e)" d="M 332.940936 384.48 
L 332.940936 51.84 
L 336.542873 51.84 
L 336.542873 384.48 
z
" style="fill:#008000;opacity:0.04;"/>
   </g>
   <g id="patch_62">
    <path clip-path="url(#pa67214c75e)" d="M 340.144809 384.48 
L 340.144809 51.84 
L 343.746746 51.84 
L 343.746746 384.48 
z
" style="fill:#008000;opacity:0.04;"/>
   </g>
   <g id="patch_63">
    <path clip-path="url(#pa67214c75e)" d="M 343.746746 371.1744 
L 343.746746 51.84 
L 347.348682 51.84 
L 347.348682 371.1744 
z
" style="fill:#008000;opacity:0.5;"/>
   </g>
   <g id="patch_64">
    <path clip-path="url(#pa67214c75e)" d="M 347.348682 384.48 
L 347.348682 51.84 
L 350.950619 51.84 
L 350.950619 384.48 
z
" style="fill:#008000;opacity:0.04;"/>
   </g>
   <g id="patch_65">
    <path clip-path="url(#pa67214c75e)" d="M 354.552555 384.48 
L 354.552555 51.84 
L 358.154492 51.84 
L 358.154492 384.48 
z
" style="fill:#008000;opacity:0.04;"/>
   </g>
   <g id="patch_66">
    <path clip-path="url(#pa67214c75e)" d="M 660.71716 384.48 
L 660.71716 371.1744 
L 664.319096 371.1744 
L 664.319096 384.48 
z
" style="fill:#ff6600;"/>
   </g>
   <g id="patch_67">
    <path clip-path="url(#pa67214c75e)" d="M 361.756428 384.48 
L 361.756428 51.84 
L 365.358365 51.84 
L 365.358365 384.48 
z
" style="fill:#008000;opacity:0.04;"/>
   </g>
   <g id="patch_68">
    <path clip-path="url(#pa67214c75e)" d="M 361.756428 371.1744 
L 361.756428 51.84 
L 365.358365 51.84 
L 365.358365 371.1744 
z
" style="fill:#008000;opacity:0.5;"/>
   </g>
   <g id="patch_69">
    <path clip-path="url(#pa67214c75e)" d="M 368.960301 384.48 
L 368.960301 51.84 
L 372.562238 51.84 
L 372.562238 384.48 
z
" style="fill:#008000;opacity:0.04;"/>
   </g>
   <g id="patch_70">
    <path clip-path="url(#pa67214c75e)" d="M 368.960301 371.1744 
L 368.960301 51.84 
L 372.562238 51.84 
L 372.562238 371.1744 
z
" style="fill:#008000;opacity:0.5;"/>
   </g>
   <g id="patch_71">
    <path clip-path="url(#pa67214c75e)" d="M 376.164174 384.48 
L 376.164174 51.84 
L 379.766111 51.84 
L 379.766111 384.48 
z
" style="fill:#008000;opacity:0.04;"/>
   </g>
   <g id="patch_72">
    <path clip-path="url(#pa67214c75e)" d="M 383.368047 384.48 
L 383.368047 51.84 
L 386.969984 51.84 
L 386.969984 384.48 
z
" style="fill:#008000;opacity:0.04;"/>
   </g>
   <g id="patch_73">
    <path clip-path="url(#pa67214c75e)" d="M 689.532652 384.48 
L 689.532652 371.1744 
L 693.134588 371.1744 
L 693.134588 384.48 
z
" style="fill:#ff6600;"/>
   </g>
   <g id="patch_74">
    <path clip-path="url(#pa67214c75e)" d="M 390.57192 384.48 
L 390.57192 51.84 
L 394.173857 51.84 
L 394.173857 384.48 
z
" style="fill:#008000;opacity:0.04;"/>
   </g>
   <g id="patch_75">
    <path clip-path="url(#pa67214c75e)" d="M 397.775793 384.48 
L 397.775793 51.84 
L 401.37773 51.84 
L 401.37773 384.48 
z
" style="fill:#008000;opacity:0.04;"/>
   </g>
   <g id="patch_76">
    <path clip-path="url(#pa67214c75e)" d="M 404.979666 384.48 
L 404.979666 51.84 
L 408.581603 51.84 
L 408.581603 384.48 
z
" style="fill:#008000;opacity:0.04;"/>
   </g>
   <g id="patch_77">
    <path clip-path="url(#pa67214c75e)" d="M 412.18354 384.48 
L 412.18354 51.84 
L 415.785476 51.84 
L 415.785476 384.48 
z
" style="fill:#008000;opacity:0.04;"/>
   </g>
   <g id="patch_78">
    <path clip-path="url(#pa67214c75e)" d="M 419.387413 384.48 
L 419.387413 51.84 
L 422.989349 51.84 
L 422.989349 384.48 
z
" style="fill:#008000;opacity:0.04;"/>
   </g>
   <g id="patch_79">
    <path clip-path="url(#pa67214c75e)" d="M 422.989349 371.1744 
L 422.989349 51.84 
L 426.591286 51.84 
L 426.591286 371.1744 
z
" style="fill:#008000;opacity:0.5;"/>
   </g>
   <g id="patch_80">
    <path clip-path="url(#pa67214c75e)" d="M 426.591286 384.48 
L 426.591286 51.84 
L 430.193222 51.84 
L 430.193222 384.48 
z
" style="fill:#008000;opacity:0.04;"/>
   </g>
   <g id="patch_81">
    <path clip-path="url(#pa67214c75e)" d="M 433.795159 384.48 
L 433.795159 51.84 
L 437.397095 51.84 
L 437.397095 384.48 
z
" style="fill:#008000;opacity:0.04;"/>
   </g>
   <g id="patch_82">
    <path clip-path="url(#pa67214c75e)" d="M 440.999032 384.48 
L 440.999032 51.84 
L 444.600968 51.84 
L 444.600968 384.48 
z
" style="fill:#008000;opacity:0.04;"/>
   </g>
   <g id="patch_83">
    <path clip-path="url(#pa67214c75e)" d="M 743.5617 384.48 
L 743.5617 371.1744 
L 747.163636 371.1744 
L 747.163636 384.48 
z
" style="fill:#ff6600;"/>
   </g>
   <g id="patch_84">
    <path clip-path="url(#pa67214c75e)" d="M 448.202905 384.48 
L 448.202905 51.84 
L 451.804841 51.84 
L 451.804841 384.48 
z
" style="fill:#008000;opacity:0.04;"/>
   </g>
   <g id="patch_85">
    <path clip-path="url(#pa67214c75e)" d="M 455.406778 384.48 
L 455.406778 51.84 
L 459.008714 51.84 
L 459.008714 384.48 
z
" style="fill:#008000;opacity:0.04;"/>
   </g>
   <g id="patch_86">
    <path clip-path="url(#pa67214c75e)" d="M 462.610651 384.48 
L 462.610651 51.84 
L 466.212587 51.84 
L 466.212587 384.48 
z
" style="fill:#008000;opacity:0.04;"/>
   </g>
   <g id="patch_87">
    <path clip-path="url(#pa67214c75e)" d="M 469.814524 384.48 
L 469.814524 51.84 
L 473.41646 51.84 
L 473.41646 384.48 
z
" style="fill:#008000;opacity:0.04;"/>
   </g>
   <g id="patch_88">
    <path clip-path="url(#pa67214c75e)" d="M 477.018397 384.48 
L 477.018397 51.84 
L 480.620334 51.84 
L 480.620334 384.48 
z
" style="fill:#008000;opacity:0.04;"/>
   </g>
   <g id="patch_89">
    <path clip-path="url(#pa67214c75e)" d="M 480.620334 371.1744 
L 480.620334 357.8688 
L 484.22227 357.8688 
L 484.22227 371.1744 
z
" style="fill:#ff00ff;"/>
   </g>
   <g id="patch_90">
    <path clip-path="url(#pa67214c75e)" d="M 484.22227 384.48 
L 484.22227 51.84 
L 487.824207 51.84 
L 487.824207 384.48 
z
" style="fill:#008000;opacity:0.04;"/>
   </g>
   <g id="patch_91">
    <path clip-path="url(#pa67214c75e)" d="M 491.426143 384.48 
L 491.426143 51.84 
L 495.02808 51.84 
L 495.02808 384.48 
z
" style="fill:#008000;opacity:0.04;"/>
   </g>
   <g id="patch_92">
    <path clip-path="url(#pa67214c75e)" d="M 498.630016 384.48 
L 498.630016 51.84 
L 502.231953 51.84 
L 502.231953 384.48 
z
" style="fill:#008000;opacity:0.04;"/>
   </g>
   <g id="patch_93">
    <path clip-path="url(#pa67214c75e)" d="M 505.833889 384.48 
L 505.833889 51.84 
L 509.435826 51.84 
L 509.435826 384.48 
z
" style="fill:#008000;opacity:0.04;"/>
   </g>
   <g id="patch_94">
    <path clip-path="url(#pa67214c75e)" d="M 513.037762 384.48 
L 513.037762 51.84 
L 516.639699 51.84 
L 516.639699 384.48 
z
" style="fill:#008000;opacity:0.04;"/>
   </g>
   <g id="patch_95">
    <path clip-path="url(#pa67214c75e)" d="M 520.241635 384.48 
L 520.241635 51.84 
L 523.843572 51.84 
L 523.843572 384.48 
z
" style="fill:#008000;opacity:0.04;"/>
   </g>
   <g id="patch_96">
    <path clip-path="url(#pa67214c75e)" d="M 527.445508 384.48 
L 527.445508 51.84 
L 531.047445 51.84 
L 531.047445 384.48 
z
" style="fill:#008000;opacity:0.04;"/>
   </g>
   <g id="patch_97">
    <path clip-path="url(#pa67214c75e)" d="M 534.649381 384.48 
L 534.649381 51.84 
L 538.251318 51.84 
L 538.251318 384.48 
z
" style="fill:#008000;opacity:0.04;"/>
   </g>
   <g id="patch_98">
    <path clip-path="url(#pa67214c75e)" d="M 541.853254 384.48 
L 541.853254 51.84 
L 545.455191 51.84 
L 545.455191 384.48 
z
" style="fill:#008000;opacity:0.04;"/>
   </g>
   <g id="patch_99">
    <path clip-path="url(#pa67214c75e)" d="M 549.057127 384.48 
L 549.057127 51.84 
L 552.659064 51.84 
L 552.659064 384.48 
z
" style="fill:#008000;opacity:0.04;"/>
   </g>
   <g id="patch_100">
    <path clip-path="url(#pa67214c75e)" d="M 556.261001 384.48 
L 556.261001 51.84 
L 559.862937 51.84 
L 559.862937 384.48 
z
" style="fill:#008000;opacity:0.04;"/>
   </g>
   <g id="patch_101">
    <path clip-path="url(#pa67214c75e)" d="M 563.464874 384.48 
L 563.464874 51.84 
L 567.06681 51.84 
L 567.06681 384.48 
z
" style="fill:#008000;opacity:0.04;"/>
   </g>
   <g id="patch_102">
    <path clip-path="url(#pa67214c75e)" d="M 570.668747 384.48 
L 570.668747 51.84 
L 574.270683 51.84 
L 574.270683 384.48 
z
" style="fill:#008000;opacity:0.04;"/>
   </g>
   <g id="patch_103">
    <path clip-path="url(#pa67214c75e)" d="M 577.87262 384.48 
L 577.87262 51.84 
L 581.474556 51.84 
L 581.474556 384.48 
z
" style="fill:#008000;opacity:0.04;"/>
   </g>
   <g id="patch_104">
    <path clip-path="url(#pa67214c75e)" d="M 585.076493 384.48 
L 585.076493 51.84 
L 588.678429 51.84 
L 588.678429 384.48 
z
" style="fill:#008000;opacity:0.04;"/>
   </g>
   <g id="patch_105">
    <path clip-path="url(#pa67214c75e)" d="M 592.280366 384.48 
L 592.280366 51.84 
L 595.882302 51.84 
L 595.882302 384.48 
z
" style="fill:#008000;opacity:0.04;"/>
   </g>
   <g id="patch_106">
    <path clip-path="url(#pa67214c75e)" d="M 599.484239 384.48 
L 599.484239 51.84 
L 603.086175 51.84 
L 603.086175 384.48 
z
" style="fill:#008000;opacity:0.04;"/>
   </g>
   <g id="patch_107">
    <path clip-path="url(#pa67214c75e)" d="M 606.688112 384.48 
L 606.688112 51.84 
L 610.290048 51.84 
L 610.290048 384.48 
z
" style="fill:#008000;opacity:0.04;"/>
   </g>
   <g id="patch_108">
    <path clip-path="url(#pa67214c75e)" d="M 613.891985 384.48 
L 613.891985 51.84 
L 617.493921 51.84 
L 617.493921 384.48 
z
" style="fill:#008000;opacity:0.04;"/>
   </g>
   <g id="patch_109">
    <path clip-path="url(#pa67214c75e)" d="M 621.095858 384.48 
L 621.095858 51.84 
L 624.697795 51.84 
L 624.697795 384.48 
z
" style="fill:#008000;opacity:0.04;"/>
   </g>
   <g id="patch_110">
    <path clip-path="url(#pa67214c75e)" d="M 628.299731 384.48 
L 628.299731 51.84 
L 631.901668 51.84 
L 631.901668 384.48 
z
" style="fill:#008000;opacity:0.04;"/>
   </g>
   <g id="patch_111">
    <path clip-path="url(#pa67214c75e)" d="M 635.503604 384.48 
L 635.503604 51.84 
L 639.105541 51.84 
L 639.105541 384.48 
z
" style="fill:#008000;opacity:0.04;"/>
   </g>
   <g id="patch_112">
    <path clip-path="url(#pa67214c75e)" d="M 642.707477 384.48 
L 642.707477 51.84 
L 646.309414 51.84 
L 646.309414 384.48 
z
" style="fill:#008000;opacity:0.04;"/>
   </g>
   <g id="patch_113">
    <path clip-path="url(#pa67214c75e)" d="M 649.91135 384.48 
L 649.91135 51.84 
L 653.513287 51.84 
L 653.513287 384.48 
z
" style="fill:#008000;opacity:0.04;"/>
   </g>
   <g id="patch_114">
    <path clip-path="url(#pa67214c75e)" d="M 657.115223 384.48 
L 657.115223 51.84 
L 660.71716 51.84 
L 660.71716 384.48 
z
" style="fill:#008000;opacity:0.04;"/>
   </g>
   <g id="patch_115">
    <path clip-path="url(#pa67214c75e)" d="M 660.71716 371.1744 
L 660.71716 51.84 
L 664.319096 51.84 
L 664.319096 371.1744 
z
" style="fill:#008000;opacity:0.5;"/>
   </g>
   <g id="patch_116">
    <path clip-path="url(#pa67214c75e)" d="M 664.319096 384.48 
L 664.319096 51.84 
L 667.921033 51.84 
L 667.921033 384.48 
z
" style="fill:#008000;opacity:0.04;"/>
   </g>
   <g id="patch_117">
    <path clip-path="url(#pa67214c75e)" d="M 671.522969 384.48 
L 671.522969 51.84 
L 675.124906 51.84 
L 675.124906 384.48 
z
" style="fill:#008000;opacity:0.04;"/>
   </g>
   <g id="patch_118">
    <path clip-path="url(#pa67214c75e)" d="M 678.726842 384.48 
L 678.726842 51.84 
L 682.328779 51.84 
L 682.328779 384.48 
z
" style="fill:#008000;opacity:0.04;"/>
   </g>
   <g id="patch_119">
    <path clip-path="url(#pa67214c75e)" d="M 685.930715 384.48 
L 685.930715 51.84 
L 689.532652 51.84 
L 689.532652 384.48 
z
" style="fill:#008000;opacity:0.04;"/>
   </g>
   <g id="patch_120">
    <path clip-path="url(#pa67214c75e)" d="M 689.532652 371.1744 
L 689.532652 51.84 
L 693.134588 51.84 
L 693.134588 371.1744 
z
" style="fill:#008000;opacity:0.5;"/>
   </g>
   <g id="patch_121">
    <path clip-path="url(#pa67214c75e)" d="M 693.134588 384.48 
L 693.134588 51.84 
L 696.736525 51.84 
L 696.736525 384.48 
z
" style="fill:#008000;opacity:0.04;"/>
   </g>
   <g id="patch_122">
    <path clip-path="url(#pa67214c75e)" d="M 700.338462 384.48 
L 700.338462 51.84 
L 703.940398 51.84 
L 703.940398 384.48 
z
" style="fill:#008000;opacity:0.04;"/>
   </g>
   <g id="patch_123">
    <path clip-path="url(#pa67214c75e)" d="M 707.542335 384.48 
L 707.542335 51.84 
L 711.144271 51.84 
L 711.144271 384.48 
z
" style="fill:#008000;opacity:0.04;"/>
   </g>
   <g id="patch_124">
    <path clip-path="url(#pa67214c75e)" d="M 714.746208 384.48 
L 714.746208 51.84 
L 718.348144 51.84 
L 718.348144 384.48 
z
" style="fill:#008000;opacity:0.04;"/>
   </g>
   <g id="patch_125">
    <path clip-path="url(#pa67214c75e)" d="M 721.950081 384.48 
L 721.950081 51.84 
L 725.552017 51.84 
L 725.552017 384.48 
z
" style="fill:#008000;opacity:0.04;"/>
   </g>
   <g id="patch_126">
    <path clip-path="url(#pa67214c75e)" d="M 729.153954 384.48 
L 729.153954 51.84 
L 732.75589 51.84 
L 732.75589 384.48 
z
" style="fill:#008000;opacity:0.04;"/>
   </g>
   <g id="patch_127">
    <path clip-path="url(#pa67214c75e)" d="M 736.357827 384.48 
L 736.357827 51.84 
L 739.959763 51.84 
L 739.959763 384.48 
z
" style="fill:#008000;opacity:0.04;"/>
   </g>
   <g id="patch_128">
    <path clip-path="url(#pa67214c75e)" d="M 743.5617 384.48 
L 743.5617 51.84 
L 747.163636 51.84 
L 747.163636 384.48 
z
" style="fill:#008000;opacity:0.04;"/>
   </g>
   <g id="matplotlib.axis_1">
    <g id="xtick_1">
     <g id="line2d_1">
      <defs>
       <path d="M 0 0 
L 0 3.5 
" id="m94b84b97c3" style="stroke:#000000;stroke-width:0.8;"/>
      </defs>
      <g>
       <use style="stroke:#000000;stroke-width:0.8;" x="138.436364" xlink:href="#m94b84b97c3" y="384.48"/>
      </g>
     </g>
     <g id="text_1">
      <!-- 0 -->
      <defs>
       <path d="M 31.78125 66.40625 
Q 24.171875 66.40625 20.328125 58.90625 
Q 16.5 51.421875 16.5 36.375 
Q 16.5 21.390625 20.328125 13.890625 
Q 24.171875 6.390625 31.78125 6.390625 
Q 39.453125 6.390625 43.28125 13.890625 
Q 47.125 21.390625 47.125 36.375 
Q 47.125 51.421875 43.28125 58.90625 
Q 39.453125 66.40625 31.78125 66.40625 
z
M 31.78125 74.21875 
Q 44.046875 74.21875 50.515625 64.515625 
Q 56.984375 54.828125 56.984375 36.375 
Q 56.984375 17.96875 50.515625 8.265625 
Q 44.046875 -1.421875 31.78125 -1.421875 
Q 19.53125 -1.421875 13.0625 8.265625 
Q 6.59375 17.96875 6.59375 36.375 
Q 6.59375 54.828125 13.0625 64.515625 
Q 19.53125 74.21875 31.78125 74.21875 
z
" id="DejaVuSans-48"/>
      </defs>
      <g transform="translate(135.255114 399.078438)scale(0.1 -0.1)">
       <use xlink:href="#DejaVuSans-48"/>
      </g>
     </g>
    </g>
    <g id="xtick_2">
     <g id="line2d_2">
      <g>
       <use style="stroke:#000000;stroke-width:0.8;" x="228.484777" xlink:href="#m94b84b97c3" y="384.48"/>
      </g>
     </g>
     <g id="text_2">
      <!-- 250 -->
      <defs>
       <path d="M 19.1875 8.296875 
L 53.609375 8.296875 
L 53.609375 0 
L 7.328125 0 
L 7.328125 8.296875 
Q 12.9375 14.109375 22.625 23.890625 
Q 32.328125 33.6875 34.8125 36.53125 
Q 39.546875 41.84375 41.421875 45.53125 
Q 43.3125 49.21875 43.3125 52.78125 
Q 43.3125 58.59375 39.234375 62.25 
Q 35.15625 65.921875 28.609375 65.921875 
Q 23.96875 65.921875 18.8125 64.3125 
Q 13.671875 62.703125 7.8125 59.421875 
L 7.8125 69.390625 
Q 13.765625 71.78125 18.9375 73 
Q 24.125 74.21875 28.421875 74.21875 
Q 39.75 74.21875 46.484375 68.546875 
Q 53.21875 62.890625 53.21875 53.421875 
Q 53.21875 48.921875 51.53125 44.890625 
Q 49.859375 40.875 45.40625 35.40625 
Q 44.1875 33.984375 37.640625 27.21875 
Q 31.109375 20.453125 19.1875 8.296875 
z
" id="DejaVuSans-50"/>
       <path d="M 10.796875 72.90625 
L 49.515625 72.90625 
L 49.515625 64.59375 
L 19.828125 64.59375 
L 19.828125 46.734375 
Q 21.96875 47.46875 24.109375 47.828125 
Q 26.265625 48.1875 28.421875 48.1875 
Q 40.625 48.1875 47.75 41.5 
Q 54.890625 34.8125 54.890625 23.390625 
Q 54.890625 11.625 47.5625 5.09375 
Q 40.234375 -1.421875 26.90625 -1.421875 
Q 22.3125 -1.421875 17.546875 -0.640625 
Q 12.796875 0.140625 7.71875 1.703125 
L 7.71875 11.625 
Q 12.109375 9.234375 16.796875 8.0625 
Q 21.484375 6.890625 26.703125 6.890625 
Q 35.15625 6.890625 40.078125 11.328125 
Q 45.015625 15.765625 45.015625 23.390625 
Q 45.015625 31 40.078125 35.4375 
Q 35.15625 39.890625 26.703125 39.890625 
Q 22.75 39.890625 18.8125 39.015625 
Q 14.890625 38.140625 10.796875 36.28125 
z
" id="DejaVuSans-53"/>
      </defs>
      <g transform="translate(218.941027 399.078438)scale(0.1 -0.1)">
       <use xlink:href="#DejaVuSans-50"/>
       <use x="63.623047" xlink:href="#DejaVuSans-53"/>
       <use x="127.246094" xlink:href="#DejaVuSans-48"/>
      </g>
     </g>
    </g>
    <g id="xtick_3">
     <g id="line2d_3">
      <g>
       <use style="stroke:#000000;stroke-width:0.8;" x="318.53319" xlink:href="#m94b84b97c3" y="384.48"/>
      </g>
     </g>
     <g id="text_3">
      <!-- 500 -->
      <g transform="translate(308.98944 399.078438)scale(0.1 -0.1)">
       <use xlink:href="#DejaVuSans-53"/>
       <use x="63.623047" xlink:href="#DejaVuSans-48"/>
       <use x="127.246094" xlink:href="#DejaVuSans-48"/>
      </g>
     </g>
    </g>
    <g id="xtick_4">
     <g id="line2d_4">
      <g>
       <use style="stroke:#000000;stroke-width:0.8;" x="408.581603" xlink:href="#m94b84b97c3" y="384.48"/>
      </g>
     </g>
     <g id="text_4">
      <!-- 750 -->
      <defs>
       <path d="M 8.203125 72.90625 
L 55.078125 72.90625 
L 55.078125 68.703125 
L 28.609375 0 
L 18.3125 0 
L 43.21875 64.59375 
L 8.203125 64.59375 
z
" id="DejaVuSans-55"/>
      </defs>
      <g transform="translate(399.037853 399.078438)scale(0.1 -0.1)">
       <use xlink:href="#DejaVuSans-55"/>
       <use x="63.623047" xlink:href="#DejaVuSans-53"/>
       <use x="127.246094" xlink:href="#DejaVuSans-48"/>
      </g>
     </g>
    </g>
    <g id="xtick_5">
     <g id="line2d_5">
      <g>
       <use style="stroke:#000000;stroke-width:0.8;" x="498.630016" xlink:href="#m94b84b97c3" y="384.48"/>
      </g>
     </g>
     <g id="text_5">
      <!-- 1000 -->
      <defs>
       <path d="M 12.40625 8.296875 
L 28.515625 8.296875 
L 28.515625 63.921875 
L 10.984375 60.40625 
L 10.984375 69.390625 
L 28.421875 72.90625 
L 38.28125 72.90625 
L 38.28125 8.296875 
L 54.390625 8.296875 
L 54.390625 0 
L 12.40625 0 
z
" id="DejaVuSans-49"/>
      </defs>
      <g transform="translate(485.905016 399.078438)scale(0.1 -0.1)">
       <use xlink:href="#DejaVuSans-49"/>
       <use x="63.623047" xlink:href="#DejaVuSans-48"/>
       <use x="127.246094" xlink:href="#DejaVuSans-48"/>
       <use x="190.869141" xlink:href="#DejaVuSans-48"/>
      </g>
     </g>
    </g>
    <g id="xtick_6">
     <g id="line2d_6">
      <g>
       <use style="stroke:#000000;stroke-width:0.8;" x="588.678429" xlink:href="#m94b84b97c3" y="384.48"/>
      </g>
     </g>
     <g id="text_6">
      <!-- 1250 -->
      <g transform="translate(575.953429 399.078438)scale(0.1 -0.1)">
       <use xlink:href="#DejaVuSans-49"/>
       <use x="63.623047" xlink:href="#DejaVuSans-50"/>
       <use x="127.246094" xlink:href="#DejaVuSans-53"/>
       <use x="190.869141" xlink:href="#DejaVuSans-48"/>
      </g>
     </g>
    </g>
    <g id="xtick_7">
     <g id="line2d_7">
      <g>
       <use style="stroke:#000000;stroke-width:0.8;" x="678.726842" xlink:href="#m94b84b97c3" y="384.48"/>
      </g>
     </g>
     <g id="text_7">
      <!-- 1500 -->
      <g transform="translate(666.001842 399.078438)scale(0.1 -0.1)">
       <use xlink:href="#DejaVuSans-49"/>
       <use x="63.623047" xlink:href="#DejaVuSans-53"/>
       <use x="127.246094" xlink:href="#DejaVuSans-48"/>
       <use x="190.869141" xlink:href="#DejaVuSans-48"/>
      </g>
     </g>
    </g>
    <g id="xtick_8">
     <g id="line2d_8">
      <g>
       <use style="stroke:#000000;stroke-width:0.8;" x="768.775256" xlink:href="#m94b84b97c3" y="384.48"/>
      </g>
     </g>
     <g id="text_8">
      <!-- 1750 -->
      <g transform="translate(756.050256 399.078438)scale(0.1 -0.1)">
       <use xlink:href="#DejaVuSans-49"/>
       <use x="63.623047" xlink:href="#DejaVuSans-55"/>
       <use x="127.246094" xlink:href="#DejaVuSans-53"/>
       <use x="190.869141" xlink:href="#DejaVuSans-48"/>
      </g>
     </g>
    </g>
    <g id="text_9">
     <!-- Timestamp -->
     <defs>
      <path d="M -0.296875 72.90625 
L 61.375 72.90625 
L 61.375 64.59375 
L 35.5 64.59375 
L 35.5 0 
L 25.59375 0 
L 25.59375 64.59375 
L -0.296875 64.59375 
z
" id="DejaVuSans-84"/>
      <path d="M 9.421875 54.6875 
L 18.40625 54.6875 
L 18.40625 0 
L 9.421875 0 
z
M 9.421875 75.984375 
L 18.40625 75.984375 
L 18.40625 64.59375 
L 9.421875 64.59375 
z
" id="DejaVuSans-105"/>
      <path d="M 52 44.1875 
Q 55.375 50.25 60.0625 53.125 
Q 64.75 56 71.09375 56 
Q 79.640625 56 84.28125 50.015625 
Q 88.921875 44.046875 88.921875 33.015625 
L 88.921875 0 
L 79.890625 0 
L 79.890625 32.71875 
Q 79.890625 40.578125 77.09375 44.375 
Q 74.3125 48.1875 68.609375 48.1875 
Q 61.625 48.1875 57.5625 43.546875 
Q 53.515625 38.921875 53.515625 30.90625 
L 53.515625 0 
L 44.484375 0 
L 44.484375 32.71875 
Q 44.484375 40.625 41.703125 44.40625 
Q 38.921875 48.1875 33.109375 48.1875 
Q 26.21875 48.1875 22.15625 43.53125 
Q 18.109375 38.875 18.109375 30.90625 
L 18.109375 0 
L 9.078125 0 
L 9.078125 54.6875 
L 18.109375 54.6875 
L 18.109375 46.1875 
Q 21.1875 51.21875 25.484375 53.609375 
Q 29.78125 56 35.6875 56 
Q 41.65625 56 45.828125 52.96875 
Q 50 49.953125 52 44.1875 
z
" id="DejaVuSans-109"/>
      <path d="M 56.203125 29.59375 
L 56.203125 25.203125 
L 14.890625 25.203125 
Q 15.484375 15.921875 20.484375 11.0625 
Q 25.484375 6.203125 34.421875 6.203125 
Q 39.59375 6.203125 44.453125 7.46875 
Q 49.3125 8.734375 54.109375 11.28125 
L 54.109375 2.78125 
Q 49.265625 0.734375 44.1875 -0.34375 
Q 39.109375 -1.421875 33.890625 -1.421875 
Q 20.796875 -1.421875 13.15625 6.1875 
Q 5.515625 13.8125 5.515625 26.8125 
Q 5.515625 40.234375 12.765625 48.109375 
Q 20.015625 56 32.328125 56 
Q 43.359375 56 49.78125 48.890625 
Q 56.203125 41.796875 56.203125 29.59375 
z
M 47.21875 32.234375 
Q 47.125 39.59375 43.09375 43.984375 
Q 39.0625 48.390625 32.421875 48.390625 
Q 24.90625 48.390625 20.390625 44.140625 
Q 15.875 39.890625 15.1875 32.171875 
z
" id="DejaVuSans-101"/>
      <path d="M 44.28125 53.078125 
L 44.28125 44.578125 
Q 40.484375 46.53125 36.375 47.5 
Q 32.28125 48.484375 27.875 48.484375 
Q 21.1875 48.484375 17.84375 46.4375 
Q 14.5 44.390625 14.5 40.28125 
Q 14.5 37.15625 16.890625 35.375 
Q 19.28125 33.59375 26.515625 31.984375 
L 29.59375 31.296875 
Q 39.15625 29.25 43.1875 25.515625 
Q 47.21875 21.78125 47.21875 15.09375 
Q 47.21875 7.46875 41.1875 3.015625 
Q 35.15625 -1.421875 24.609375 -1.421875 
Q 20.21875 -1.421875 15.453125 -0.5625 
Q 10.6875 0.296875 5.421875 2 
L 5.421875 11.28125 
Q 10.40625 8.6875 15.234375 7.390625 
Q 20.0625 6.109375 24.8125 6.109375 
Q 31.15625 6.109375 34.5625 8.28125 
Q 37.984375 10.453125 37.984375 14.40625 
Q 37.984375 18.0625 35.515625 20.015625 
Q 33.0625 21.96875 24.703125 23.78125 
L 21.578125 24.515625 
Q 13.234375 26.265625 9.515625 29.90625 
Q 5.8125 33.546875 5.8125 39.890625 
Q 5.8125 47.609375 11.28125 51.796875 
Q 16.75 56 26.8125 56 
Q 31.78125 56 36.171875 55.265625 
Q 40.578125 54.546875 44.28125 53.078125 
z
" id="DejaVuSans-115"/>
      <path d="M 18.3125 70.21875 
L 18.3125 54.6875 
L 36.8125 54.6875 
L 36.8125 47.703125 
L 18.3125 47.703125 
L 18.3125 18.015625 
Q 18.3125 11.328125 20.140625 9.421875 
Q 21.96875 7.515625 27.59375 7.515625 
L 36.8125 7.515625 
L 36.8125 0 
L 27.59375 0 
Q 17.1875 0 13.234375 3.875 
Q 9.28125 7.765625 9.28125 18.015625 
L 9.28125 47.703125 
L 2.6875 47.703125 
L 2.6875 54.6875 
L 9.28125 54.6875 
L 9.28125 70.21875 
z
" id="DejaVuSans-116"/>
      <path d="M 34.28125 27.484375 
Q 23.390625 27.484375 19.1875 25 
Q 14.984375 22.515625 14.984375 16.5 
Q 14.984375 11.71875 18.140625 8.90625 
Q 21.296875 6.109375 26.703125 6.109375 
Q 34.1875 6.109375 38.703125 11.40625 
Q 43.21875 16.703125 43.21875 25.484375 
L 43.21875 27.484375 
z
M 52.203125 31.203125 
L 52.203125 0 
L 43.21875 0 
L 43.21875 8.296875 
Q 40.140625 3.328125 35.546875 0.953125 
Q 30.953125 -1.421875 24.3125 -1.421875 
Q 15.921875 -1.421875 10.953125 3.296875 
Q 6 8.015625 6 15.921875 
Q 6 25.140625 12.171875 29.828125 
Q 18.359375 34.515625 30.609375 34.515625 
L 43.21875 34.515625 
L 43.21875 35.40625 
Q 43.21875 41.609375 39.140625 45 
Q 35.0625 48.390625 27.6875 48.390625 
Q 23 48.390625 18.546875 47.265625 
Q 14.109375 46.140625 10.015625 43.890625 
L 10.015625 52.203125 
Q 14.9375 54.109375 19.578125 55.046875 
Q 24.21875 56 28.609375 56 
Q 40.484375 56 46.34375 49.84375 
Q 52.203125 43.703125 52.203125 31.203125 
z
" id="DejaVuSans-97"/>
      <path d="M 18.109375 8.203125 
L 18.109375 -20.796875 
L 9.078125 -20.796875 
L 9.078125 54.6875 
L 18.109375 54.6875 
L 18.109375 46.390625 
Q 20.953125 51.265625 25.265625 53.625 
Q 29.59375 56 35.59375 56 
Q 45.5625 56 51.78125 48.09375 
Q 58.015625 40.1875 58.015625 27.296875 
Q 58.015625 14.40625 51.78125 6.484375 
Q 45.5625 -1.421875 35.59375 -1.421875 
Q 29.59375 -1.421875 25.265625 0.953125 
Q 20.953125 3.328125 18.109375 8.203125 
z
M 48.6875 27.296875 
Q 48.6875 37.203125 44.609375 42.84375 
Q 40.53125 48.484375 33.40625 48.484375 
Q 26.265625 48.484375 22.1875 42.84375 
Q 18.109375 37.203125 18.109375 27.296875 
Q 18.109375 17.390625 22.1875 11.75 
Q 26.265625 6.109375 33.40625 6.109375 
Q 40.53125 6.109375 44.609375 11.75 
Q 48.6875 17.390625 48.6875 27.296875 
z
" id="DejaVuSans-112"/>
     </defs>
     <g transform="translate(414.739062 412.756563)scale(0.1 -0.1)">
      <use xlink:href="#DejaVuSans-84"/>
      <use x="61.037109" xlink:href="#DejaVuSans-105"/>
      <use x="88.820312" xlink:href="#DejaVuSans-109"/>
      <use x="186.232422" xlink:href="#DejaVuSans-101"/>
      <use x="247.755859" xlink:href="#DejaVuSans-115"/>
      <use x="299.855469" xlink:href="#DejaVuSans-116"/>
      <use x="339.064453" xlink:href="#DejaVuSans-97"/>
      <use x="400.34375" xlink:href="#DejaVuSans-109"/>
      <use x="497.755859" xlink:href="#DejaVuSans-112"/>
     </g>
    </g>
   </g>
   <g id="matplotlib.axis_2">
    <g id="ytick_1">
     <g id="line2d_9">
      <defs>
       <path d="M 0 0 
L -3.5 0 
" id="m54095d757a" style="stroke:#000000;stroke-width:0.8;"/>
      </defs>
      <g>
       <use style="stroke:#000000;stroke-width:0.8;" x="108" xlink:href="#m54095d757a" y="371.189692"/>
      </g>
     </g>
     <g id="text_10">
      <!-- −3000 -->
      <defs>
       <path d="M 10.59375 35.5 
L 73.1875 35.5 
L 73.1875 27.203125 
L 10.59375 27.203125 
z
" id="DejaVuSans-8722"/>
       <path d="M 40.578125 39.3125 
Q 47.65625 37.796875 51.625 33 
Q 55.609375 28.21875 55.609375 21.1875 
Q 55.609375 10.40625 48.1875 4.484375 
Q 40.765625 -1.421875 27.09375 -1.421875 
Q 22.515625 -1.421875 17.65625 -0.515625 
Q 12.796875 0.390625 7.625 2.203125 
L 7.625 11.71875 
Q 11.71875 9.328125 16.59375 8.109375 
Q 21.484375 6.890625 26.8125 6.890625 
Q 36.078125 6.890625 40.9375 10.546875 
Q 45.796875 14.203125 45.796875 21.1875 
Q 45.796875 27.640625 41.28125 31.265625 
Q 36.765625 34.90625 28.71875 34.90625 
L 20.21875 34.90625 
L 20.21875 43.015625 
L 29.109375 43.015625 
Q 36.375 43.015625 40.234375 45.921875 
Q 44.09375 48.828125 44.09375 54.296875 
Q 44.09375 59.90625 40.109375 62.90625 
Q 36.140625 65.921875 28.71875 65.921875 
Q 24.65625 65.921875 20.015625 65.03125 
Q 15.375 64.15625 9.8125 62.3125 
L 9.8125 71.09375 
Q 15.4375 72.65625 20.34375 73.4375 
Q 25.25 74.21875 29.59375 74.21875 
Q 40.828125 74.21875 47.359375 69.109375 
Q 53.90625 64.015625 53.90625 55.328125 
Q 53.90625 49.265625 50.4375 45.09375 
Q 46.96875 40.921875 40.578125 39.3125 
z
" id="DejaVuSans-51"/>
      </defs>
      <g transform="translate(67.170312 374.988911)scale(0.1 -0.1)">
       <use xlink:href="#DejaVuSans-8722"/>
       <use x="83.789062" xlink:href="#DejaVuSans-51"/>
       <use x="147.412109" xlink:href="#DejaVuSans-48"/>
       <use x="211.035156" xlink:href="#DejaVuSans-48"/>
       <use x="274.658203" xlink:href="#DejaVuSans-48"/>
      </g>
     </g>
    </g>
    <g id="ytick_2">
     <g id="line2d_10">
      <g>
       <use style="stroke:#000000;stroke-width:0.8;" x="108" xlink:href="#m54095d757a" y="305.027813"/>
      </g>
     </g>
     <g id="text_11">
      <!-- −2000 -->
      <g transform="translate(67.170312 308.827032)scale(0.1 -0.1)">
       <use xlink:href="#DejaVuSans-8722"/>
       <use x="83.789062" xlink:href="#DejaVuSans-50"/>
       <use x="147.412109" xlink:href="#DejaVuSans-48"/>
       <use x="211.035156" xlink:href="#DejaVuSans-48"/>
       <use x="274.658203" xlink:href="#DejaVuSans-48"/>
      </g>
     </g>
    </g>
    <g id="ytick_3">
     <g id="line2d_11">
      <g>
       <use style="stroke:#000000;stroke-width:0.8;" x="108" xlink:href="#m54095d757a" y="238.865934"/>
      </g>
     </g>
     <g id="text_12">
      <!-- −1000 -->
      <g transform="translate(67.170312 242.665153)scale(0.1 -0.1)">
       <use xlink:href="#DejaVuSans-8722"/>
       <use x="83.789062" xlink:href="#DejaVuSans-49"/>
       <use x="147.412109" xlink:href="#DejaVuSans-48"/>
       <use x="211.035156" xlink:href="#DejaVuSans-48"/>
       <use x="274.658203" xlink:href="#DejaVuSans-48"/>
      </g>
     </g>
    </g>
    <g id="ytick_4">
     <g id="line2d_12">
      <g>
       <use style="stroke:#000000;stroke-width:0.8;" x="108" xlink:href="#m54095d757a" y="172.704055"/>
      </g>
     </g>
     <g id="text_13">
      <!-- 0 -->
      <g transform="translate(94.6375 176.503274)scale(0.1 -0.1)">
       <use xlink:href="#DejaVuSans-48"/>
      </g>
     </g>
    </g>
    <g id="ytick_5">
     <g id="line2d_13">
      <g>
       <use style="stroke:#000000;stroke-width:0.8;" x="108" xlink:href="#m54095d757a" y="106.542176"/>
      </g>
     </g>
     <g id="text_14">
      <!-- 1000 -->
      <g transform="translate(75.55 110.341395)scale(0.1 -0.1)">
       <use xlink:href="#DejaVuSans-49"/>
       <use x="63.623047" xlink:href="#DejaVuSans-48"/>
       <use x="127.246094" xlink:href="#DejaVuSans-48"/>
       <use x="190.869141" xlink:href="#DejaVuSans-48"/>
      </g>
     </g>
    </g>
    <g id="text_15">
     <!-- Value -->
     <defs>
      <path d="M 28.609375 0 
L 0.78125 72.90625 
L 11.078125 72.90625 
L 34.1875 11.53125 
L 57.328125 72.90625 
L 67.578125 72.90625 
L 39.796875 0 
z
" id="DejaVuSans-86"/>
      <path d="M 9.421875 75.984375 
L 18.40625 75.984375 
L 18.40625 0 
L 9.421875 0 
z
" id="DejaVuSans-108"/>
      <path d="M 8.5 21.578125 
L 8.5 54.6875 
L 17.484375 54.6875 
L 17.484375 21.921875 
Q 17.484375 14.15625 20.5 10.265625 
Q 23.53125 6.390625 29.59375 6.390625 
Q 36.859375 6.390625 41.078125 11.03125 
Q 45.3125 15.671875 45.3125 23.6875 
L 45.3125 54.6875 
L 54.296875 54.6875 
L 54.296875 0 
L 45.3125 0 
L 45.3125 8.40625 
Q 42.046875 3.421875 37.71875 1 
Q 33.40625 -1.421875 27.6875 -1.421875 
Q 18.265625 -1.421875 13.375 4.4375 
Q 8.5 10.296875 8.5 21.578125 
z
M 31.109375 56 
z
" id="DejaVuSans-117"/>
     </defs>
     <g transform="translate(61.090625 232.273281)rotate(-90)scale(0.1 -0.1)">
      <use xlink:href="#DejaVuSans-86"/>
      <use x="68.298828" xlink:href="#DejaVuSans-97"/>
      <use x="129.578125" xlink:href="#DejaVuSans-108"/>
      <use x="157.361328" xlink:href="#DejaVuSans-117"/>
      <use x="220.740234" xlink:href="#DejaVuSans-101"/>
     </g>
    </g>
   </g>
   <g id="line2d_14">
    <path clip-path="url(#pa67214c75e)" d="M 138.436364 173.18209 
L 139.156751 128.297281 
L 139.516945 118.236543 
L 139.877138 119.014362 
L 140.237332 130.070206 
L 141.317913 179.812487 
L 141.678107 186.787035 
L 142.0383 187.087439 
L 142.398494 178.062999 
L 143.479075 144.022109 
L 143.839268 143.682246 
L 144.199462 150.887217 
L 144.919849 184.163614 
L 145.280043 200.957342 
L 145.640237 211.214501 
L 146.00043 212.182586 
L 146.360624 202.811068 
L 147.081011 159.927949 
L 147.801399 115.189425 
L 148.161592 104.786854 
L 148.521786 106.779414 
L 148.88198 116.720933 
L 149.962561 167.975036 
L 150.322754 175.635416 
L 150.682948 176.052366 
L 151.043141 167.334679 
L 151.763529 142.458373 
L 152.123722 133.993953 
L 152.483916 134.097676 
L 152.84411 142.65533 
L 153.564497 175.962616 
L 153.924691 193.475489 
L 154.284884 203.490327 
L 154.645078 205.359862 
L 155.005272 195.344349 
L 155.725659 152.908974 
L 156.446046 109.238503 
L 156.80624 99.2641 
L 157.166434 101.405694 
L 157.526627 111.638222 
L 158.607208 163.468894 
L 158.967402 172.330494 
L 159.327595 171.281706 
L 159.687789 164.645861 
L 160.408176 140.016831 
L 160.76837 131.880921 
L 161.128564 131.781328 
L 161.488757 140.812784 
L 162.209145 175.999074 
L 162.569338 193.173795 
L 162.929532 203.601749 
L 163.289726 205.005726 
L 163.649919 196.027334 
L 164.370307 152.614683 
L 165.090694 110.938618 
L 165.450888 101.348766 
L 165.811081 101.869377 
L 166.171275 113.888229 
L 167.251856 166.572406 
L 167.612049 175.249636 
L 167.972243 176.112392 
L 168.332437 167.812082 
L 169.052824 143.740601 
L 169.413018 136.768406 
L 169.773211 136.928774 
L 170.133405 144.970924 
L 170.493599 73.729857 
L 170.853792 180.066705 
L 171.213986 197.492104 
L 171.57418 208.796767 
L 171.934373 209.633447 
L 172.294567 200.414943 
L 173.014954 158.290223 
L 173.735342 114.608168 
L 174.095535 106.409533 
L 174.455729 107.657433 
L 174.815923 118.939277 
L 175.896503 170.838431 
L 176.256697 179.688709 
L 176.616891 178.880595 
L 176.977084 172.2285 
L 177.697472 146.731785 
L 178.057665 140.251999 
L 178.417859 139.65321 
L 178.778053 148.02451 
L 179.138246 162.658459 
L 179.858634 198.948216 
L 180.218827 211.235019 
L 180.579021 211.043828 
L 180.939215 201.904102 
L 181.659602 159.033814 
L 182.379989 116.117015 
L 182.740183 106.533179 
L 183.100377 107.407126 
L 183.46057 118.162732 
L 184.541151 170.06559 
L 184.901345 177.90676 
L 185.261538 177.732137 
L 185.621732 168.710648 
L 186.702313 135.304238 
L 187.062507 135.207976 
L 187.4227 144.332325 
L 187.782894 158.613464 
L 188.503281 194.462796 
L 188.863475 204.836917 
L 189.223669 206.511843 
L 189.583862 195.643122 
L 189.944056 177.118855 
L 191.024637 108.27891 
L 191.384831 99.63123 
L 191.745024 99.091377 
L 192.105218 109.98213 
L 193.185799 159.847733 
L 193.545992 168.124886 
L 193.906186 167.841492 
L 194.26638 158.765676 
L 194.986767 133.51673 
L 195.346961 125.291914 
L 195.707154 124.735531 
L 196.067348 131.452217 
L 197.508123 193.61691 
L 197.868316 193.29333 
L 198.22851 182.332806 
L 198.588704 164.666473 
L 199.669285 95.292073 
L 200.029478 84.229039 
L 200.389672 85.403213 
L 200.749866 95.872064 
L 201.830446 146.015147 
L 202.19064 155.12821 
L 202.550834 153.543809 
L 203.271221 132.370111 
L 203.631415 119.100666 
L 203.991608 110.014027 
L 204.351802 109.599114 
L 204.711996 118.386418 
L 206.15277 178.274825 
L 206.512964 179.385847 
L 206.873158 169.587327 
L 207.593545 126.746424 
L 208.313932 82.214894 
L 208.674126 72.100317 
L 209.03432 73.410456 
L 209.394513 83.43498 
L 210.475094 134.278285 
L 210.835288 142.468755 
L 211.195481 142.264553 
L 211.555675 135.126017 
L 212.276062 109.350045 
L 212.636256 100.100326 
L 212.99645 100.858543 
L 213.356643 108.545665 
L 214.077031 143.114896 
L 214.797418 171.140718 
L 215.157612 171.690392 
L 215.517805 162.332786 
L 216.238193 118.569796 
L 216.95858 77.140068 
L 217.318774 66.96 
L 217.678967 68.364079 
L 218.039161 78.210207 
L 219.119742 130.824731 
L 219.479935 138.752865 
L 219.840129 138.904487 
L 220.200323 130.589867 
L 221.280904 99.634608 
L 221.641097 98.386644 
L 222.001291 107.491772 
L 222.721678 142.181572 
L 223.081872 159.501279 
L 223.442066 170.619077 
L 223.802259 171.826363 
L 224.162453 162.85954 
L 224.88284 124.408509 
L 225.603228 117.709486 
L 225.963421 116.334705 
L 226.323615 116.749282 
L 226.683808 118.695555 
L 227.764389 127.984612 
L 228.124583 129.529484 
L 228.484777 129.901115 
L 228.84497 128.699051 
L 229.565358 124.912287 
L 229.925551 123.846706 
L 230.285745 124.000736 
L 230.645939 125.597722 
L 231.366326 131.673018 
L 231.72652 134.828976 
L 232.086713 137.001453 
L 232.446907 137.23438 
L 232.807101 135.945231 
L 233.167294 133.132693 
L 233.887682 125.349344 
L 234.247875 122.39315 
L 234.608069 121.212131 
L 234.968263 121.418863 
L 235.328456 123.430369 
L 236.409037 132.473115 
L 236.769231 134.171831 
L 237.129424 134.380501 
L 237.489618 133.251274 
L 238.210005 129.5319 
L 238.570199 128.222106 
L 238.930393 128.600807 
L 239.290586 130.113225 
L 239.65078 118.383751 
L 240.010974 136.160778 
L 240.371167 139.216201 
L 240.731361 141.242139 
L 241.091555 141.566134 
L 241.451748 140.275387 
L 242.172136 133.396164 
L 242.892523 126.63553 
L 243.252717 125.021789 
L 243.61291 125.429538 
L 243.973104 127.273769 
L 245.053685 136.425 
L 245.413878 137.948527 
L 245.774072 137.961162 
L 246.134266 136.785483 
L 247.214847 131.839049 
L 247.57504 131.687741 
L 247.935234 133.427968 
L 248.655621 139.366681 
L 249.015815 142.429061 
L 249.376009 144.194847 
L 249.736202 144.553797 
L 250.096396 143.104718 
L 250.816783 136.045345 
L 251.537171 129.215963 
L 251.897364 127.657365 
L 252.257558 127.950863 
L 252.617751 129.826403 
L 253.698332 138.733233 
L 254.058526 140.238517 
L 254.41872 140.343632 
L 254.778913 138.939793 
L 255.499301 135.23771 
L 255.859494 133.912128 
L 256.219688 133.807607 
L 256.579882 135.461087 
L 257.300269 141.255662 
L 257.660463 144.16479 
L 258.020656 145.951932 
L 258.38085 146.565404 
L 258.741044 144.975092 
L 259.461431 138.025212 
L 260.181818 130.93968 
L 260.542012 129.494457 
L 260.902205 129.764768 
L 261.262399 131.595052 
L 262.34298 140.41838 
L 262.703174 141.765235 
L 263.063367 141.957617 
L 263.423561 140.685693 
L 264.143948 136.844937 
L 264.504142 135.650414 
L 264.864336 135.581754 
L 265.224529 137.071216 
L 265.944917 142.985447 
L 266.30511 146.058383 
L 266.665304 147.872982 
L 267.025498 148.089086 
L 267.385691 146.689634 
L 268.106079 139.569107 
L 268.826466 132.628655 
L 269.186659 131.163074 
L 269.546853 131.43478 
L 269.907047 133.444213 
L 270.987628 142.460339 
L 271.347821 143.929339 
L 271.708015 143.983851 
L 272.068209 143.170549 
L 272.788596 138.855783 
L 273.14879 137.865943 
L 273.508983 137.963701 
L 273.869177 139.442815 
L 274.589564 145.497013 
L 274.949758 148.536756 
L 275.309952 150.349288 
L 275.670145 150.754316 
L 276.030339 149.397459 
L 276.750726 142.514074 
L 277.471114 135.815385 
L 277.831307 134.141289 
L 278.191501 134.519117 
L 278.551694 136.604068 
L 279.632275 145.67085 
L 279.992469 147.207115 
L 280.352663 147.482848 
L 280.712856 146.311969 
L 281.433244 142.693304 
L 281.793437 141.402968 
L 282.153631 141.654663 
L 282.513825 157.540592 
L 282.874018 146.052162 
L 283.594406 152.410745 
L 283.954599 154.344081 
L 284.314793 154.778747 
L 284.674987 153.354619 
L 285.395374 146.503067 
L 286.115761 139.914248 
L 286.475955 138.609359 
L 286.836148 138.955141 
L 287.196342 141.040841 
L 287.916729 147.496847 
L 288.276923 135.64691 
L 288.637117 151.986231 
L 288.99731 151.969735 
L 289.357504 150.823697 
L 290.438085 146.153648 
L 290.798279 146.202531 
L 291.158472 147.911432 
L 292.599247 159.076919 
L 292.959441 159.627913 
L 293.319634 158.189144 
L 294.040022 151.330061 
L 294.760409 144.710881 
L 295.120602 143.140176 
L 295.480796 143.71639 
L 295.84099 145.569206 
L 296.921571 154.775917 
L 297.281764 156.412263 
L 297.641958 156.564216 
L 298.002152 155.585668 
L 298.722539 151.703331 
L 299.082733 150.522424 
L 299.442926 150.854968 
L 299.80312 152.305828 
L 301.243895 163.40227 
L 301.604088 163.874279 
L 301.964282 162.327731 
L 302.684669 155.574993 
L 303.405056 148.71978 
L 303.76525 147.269606 
L 304.125444 147.573623 
L 304.485637 149.608697 
L 305.566218 158.698025 
L 305.926412 160.10093 
L 306.286606 160.267857 
L 306.646799 159.226881 
L 307.367187 155.224892 
L 307.72738 153.957389 
L 308.087574 154.261372 
L 308.447768 155.782349 
L 309.168155 161.547861 
L 309.528349 164.506686 
L 309.888542 166.493398 
L 310.248736 166.714434 
L 310.60893 165.371062 
L 310.969123 162.358149 
L 311.68951 154.436354 
L 312.049704 151.301944 
L 312.409898 149.902682 
L 312.770091 150.129661 
L 313.130285 152.157095 
L 314.210866 161.004671 
L 314.57106 162.449835 
L 314.931253 162.517193 
L 315.291447 161.512211 
L 316.011834 157.53334 
L 316.372028 156.118571 
L 316.732222 156.035376 
L 317.092415 157.817196 
L 317.812803 163.452292 
L 318.172996 166.539191 
L 318.53319 168.464859 
L 318.893384 168.760594 
L 319.253577 167.097006 
L 319.973964 160.160021 
L 320.694352 153.182255 
L 321.054545 151.519351 
L 321.414739 151.82955 
L 321.774933 153.739312 
L 322.855514 162.461437 
L 323.215707 163.96954 
L 323.575901 164.141222 
L 323.936095 162.97425 
L 325.016676 157.652841 
L 325.376869 157.853959 
L 325.737063 159.073878 
L 327.177838 170.086445 
L 327.538031 170.278314 
L 327.898225 168.834319 
L 328.618612 161.843892 
L 329.338999 154.870742 
L 329.699193 153.534333 
L 330.059387 153.768037 
L 330.41958 155.588368 
L 331.500161 164.586406 
L 331.860355 166.113207 
L 332.220549 166.153477 
L 332.580742 165.053923 
L 333.661323 159.950194 
L 334.021517 160.131072 
L 334.381711 161.623059 
L 335.822485 172.757304 
L 336.182679 172.96628 
L 336.542873 171.466778 
L 336.903066 168.57327 
L 337.983647 158.08596 
L 338.343841 156.478594 
L 338.704034 156.774908 
L 339.064228 158.929145 
L 340.144809 167.854011 
L 340.505003 169.455754 
L 340.865196 169.612927 
L 341.22539 168.535383 
L 341.945777 164.777645 
L 342.305971 163.845592 
L 342.666165 163.939929 
L 343.026358 165.498356 
L 343.386552 168.01264 
L 344.106939 174.638173 
L 344.467133 176.630684 
L 344.827327 176.999513 
L 345.18752 175.528514 
L 345.547714 158.225347 
L 345.907907 168.851245 
L 346.628295 162.009335 
L 346.988488 160.828879 
L 347.348682 161.164198 
L 347.708876 163.074017 
L 348.789457 172.285601 
L 349.14965 173.95676 
L 349.509844 174.099242 
L 349.870038 172.955741 
L 350.950619 168.324633 
L 351.310812 168.541995 
L 351.671006 170.091971 
L 353.111781 181.381513 
L 353.471974 181.848858 
L 353.832168 180.477609 
L 354.192361 177.545374 
L 355.272942 166.856775 
L 355.633136 165.464224 
L 355.99333 165.714173 
L 356.353523 167.914506 
L 357.434104 176.979108 
L 357.794298 178.753276 
L 358.154492 178.754088 
L 358.514685 177.731271 
L 359.235073 173.863669 
L 359.595266 172.944264 
L 359.95546 173.050033 
L 360.315654 174.642704 
L 361.756428 185.572976 
L 362.116622 185.929347 
L 362.476815 199.046422 
L 362.837009 181.570709 
L 363.91759 170.820146 
L 364.277784 169.242461 
L 364.637977 169.953793 
L 364.998171 171.920409 
L 366.078752 180.838019 
L 366.438946 182.372482 
L 366.799139 182.472846 
L 367.159333 181.179033 
L 368.239914 176.203892 
L 368.600108 176.419075 
L 368.960301 178.066839 
L 369.320495 180.475408 
L 370.040882 186.855826 
L 370.401076 188.711271 
L 370.761269 189.085714 
L 371.121463 201.895262 
L 371.481657 184.443498 
L 372.562238 173.798927 
L 372.922431 172.227584 
L 373.282625 172.537977 
L 373.642819 174.432687 
L 375.083593 184.631123 
L 375.443787 184.822723 
L 375.803981 183.612523 
L 376.524368 179.533196 
L 376.884562 178.348053 
L 377.244755 178.324727 
L 377.604949 179.937806 
L 377.965143 182.445569 
L 378.68553 188.576025 
L 379.045724 190.642784 
L 379.405917 190.803274 
L 379.766111 189.314147 
L 380.486498 182.307774 
L 381.206885 175.453231 
L 381.567079 173.683185 
L 381.927273 174.114103 
L 382.287466 176.020148 
L 383.368047 184.7503 
L 383.728241 186.124522 
L 384.088435 186.226534 
L 384.448628 185.213131 
L 385.169016 181.157384 
L 385.529209 180.016628 
L 385.889403 180.166155 
L 386.249597 181.53252 
L 386.969984 187.283667 
L 387.330178 190.51764 
L 387.690371 192.346365 
L 388.050565 192.599197 
L 388.410758 191.175257 
L 389.851533 177.176032 
L 390.211727 175.688086 
L 390.57192 175.945212 
L 390.932114 177.941052 
L 392.012695 186.874782 
L 392.372889 188.401741 
L 392.733082 188.57816 
L 393.093276 187.384534 
L 393.813663 183.460578 
L 394.173857 182.170391 
L 394.534051 182.370283 
L 394.894244 183.990627 
L 395.614632 189.83667 
L 395.974825 192.988236 
L 396.335019 194.801285 
L 396.695212 195.201688 
L 397.055406 193.676389 
L 397.4156 190.74646 
L 398.135987 183.300284 
L 398.496181 180.216961 
L 398.856374 178.66244 
L 399.216568 178.986436 
L 399.936955 183.876063 
L 400.657343 190.252738 
L 401.017536 191.715013 
L 401.37773 191.819477 
L 401.737924 190.720574 
L 402.818505 185.855789 
L 403.178698 186.221472 
L 403.538892 187.632251 
L 404.979666 198.807623 
L 405.33986 199.321919 
L 405.700054 197.707138 
L 406.060247 194.88014 
L 407.140828 184.401306 
L 407.501022 182.922527 
L 407.861216 183.428435 
L 408.221409 185.519806 
L 409.30199 194.586526 
L 409.662184 196.141558 
L 410.022378 196.18513 
L 410.382571 195.12869 
L 411.463152 190.442219 
L 411.823346 190.698124 
L 412.18354 192.366925 
L 412.903927 198.469253 
L 413.26412 201.56671 
L 413.624314 203.524701 
L 413.984508 203.895214 
L 414.344701 202.610548 
L 415.065089 196.04634 
L 415.785476 189.127902 
L 416.14567 187.858024 
L 416.505863 188.16339 
L 416.866057 189.794455 
L 417.946638 199.142375 
L 418.306832 200.801666 
L 418.667025 201.214399 
L 419.027219 199.93011 
L 419.747606 196.124134 
L 420.1078 195.078872 
L 420.467994 195.264491 
L 420.828187 196.756658 
L 422.268962 207.908046 
L 422.629155 208.3506 
L 422.989349 206.778838 
L 423.349543 203.904058 
L 424.430124 193.195685 
L 424.790317 191.751741 
L 425.150511 191.99019 
L 425.510705 194.267189 
L 425.870898 211.453242 
L 426.231092 200.423107 
L 426.591286 203.101549 
L 426.951479 204.613754 
L 427.311673 204.77967 
L 427.671867 203.539744 
L 428.392254 199.743907 
L 428.752448 198.520301 
L 429.112641 198.607273 
L 429.472835 199.995528 
L 430.193222 206.168897 
L 430.553416 209.099976 
L 430.913609 210.968417 
L 431.273803 211.159995 
L 431.633997 209.674188 
L 432.354384 202.951469 
L 433.074771 195.762887 
L 433.434965 194.567236 
L 433.795159 194.599064 
L 434.155352 196.492975 
L 435.235933 205.436225 
L 435.596127 206.986849 
L 435.956321 207.148555 
L 436.316514 205.791604 
L 437.036902 201.786574 
L 437.397095 200.622402 
L 437.757289 200.670537 
L 438.117483 202.056759 
L 438.477676 204.691876 
L 439.198063 211.021392 
L 439.558257 212.849426 
L 439.918451 213.282983 
L 440.278644 211.702523 
L 440.999032 204.538614 
L 441.719419 197.519396 
L 442.079613 196.02272 
L 442.439806 196.451348 
L 442.8 198.252838 
L 443.880581 206.852896 
L 444.240775 208.597116 
L 444.600968 208.599638 
L 444.961162 207.484686 
L 445.681549 203.48282 
L 446.041743 202.272263 
L 446.401937 202.2084 
L 446.76213 203.586697 
L 448.202905 214.583877 
L 448.563098 214.565224 
L 448.923292 213.200826 
L 449.643679 206.324774 
L 450.364067 199.392359 
L 450.72426 197.843644 
L 451.084454 198.218895 
L 451.444648 200.22559 
L 452.525229 209.041523 
L 452.885422 210.511054 
L 453.245616 210.75081 
L 453.60581 209.580337 
L 454.326197 205.634974 
L 454.686391 204.740734 
L 455.046584 204.583977 
L 455.406778 206.030304 
L 456.127165 211.999997 
L 456.487359 215.082851 
L 456.847552 217.127129 
L 457.207746 217.497296 
L 457.56794 216.109015 
L 458.288327 209.116999 
L 458.648521 205.137645 
L 459.008714 202.409177 
L 459.368908 200.939903 
L 459.729102 201.243151 
L 460.089295 203.351398 
L 461.53007 213.929094 
L 461.890264 214.227688 
L 462.610651 211.044239 
L 463.331038 208.063 
L 463.691232 208.115395 
L 464.051425 209.94471 
L 464.771813 216.12745 
L 465.132006 219.229887 
L 465.4922 220.992105 
L 465.852394 221.493714 
L 466.212587 220.155831 
L 467.653362 206.500404 
L 468.013556 205.191512 
L 468.373749 205.643557 
L 468.733943 207.663514 
L 469.814524 216.808029 
L 470.174718 218.398196 
L 470.534911 218.775982 
L 470.895105 217.663277 
L 471.615492 213.672013 
L 471.975686 212.893858 
L 472.33588 212.884574 
L 472.696073 214.42549 
L 473.41646 220.703712 
L 473.776654 223.841984 
L 474.136848 225.886395 
L 474.497041 226.220534 
L 474.857235 224.847337 
L 475.577622 218.149126 
L 476.29801 211.424893 
L 476.658203 209.969127 
L 477.018397 210.276945 
L 477.378591 212.278402 
L 478.459172 221.639751 
L 478.819365 222.908377 
L 479.179559 223.276127 
L 479.539753 222.141876 
L 480.620334 217.261427 
L 480.980527 217.387256 
L 481.340721 219.130531 
L 482.781495 230.023316 
L 483.141689 230.61108 
L 483.501883 229.196733 
L 483.862076 226.115531 
L 484.22227 238.327111 
L 484.942657 166.502819 
L 485.302851 153.195622 
L 485.663045 154.887323 
L 486.023238 171.950074 
L 487.103819 258.585272 
L 487.464013 273.541515 
L 487.824207 271.492636 
L 488.1844 259.565959 
L 488.904788 217.813249 
L 489.264981 206.687161 
L 489.625175 206.997876 
L 489.985368 217.726809 
L 490.705756 275.702189 
L 491.065949 305.169947 
L 491.426143 322.767189 
L 491.786337 324.459991 
L 492.14653 307.747815 
L 492.506724 277.363672 
L 493.587305 163.723913 
L 493.947499 147.812556 
L 494.307692 149.237875 
L 494.667886 167.303171 
L 495.748467 251.135199 
L 496.108661 266.536109 
L 496.468854 266.164685 
L 496.829048 252.069842 
L 497.549435 210.095836 
L 497.909629 197.278707 
L 498.269822 195.270866 
L 498.630016 208.390598 
L 498.99021 232.575907 
L 499.710597 294.175983 
L 500.070791 310.238017 
L 500.430984 312.170762 
L 500.791178 296.357612 
L 501.151372 265.189764 
L 502.231953 151.785729 
L 502.592146 136.173758 
L 502.95234 137.880662 
L 503.312534 152.051746 
L 504.393115 238.107315 
L 504.753308 251.439617 
L 505.113502 249.76324 
L 505.473696 237.555108 
L 506.554276 181.760892 
L 506.91447 180.641265 
L 507.274664 195.047633 
L 508.715438 296.984659 
L 509.075632 298.89491 
L 509.435826 282.645083 
L 510.156213 209.184575 
L 510.8766 138.142583 
L 511.236794 123.59185 
L 511.596988 124.791711 
L 511.957181 143.451373 
L 513.037762 228.278149 
L 513.397956 241.64298 
L 513.75815 242.17362 
L 514.118343 228.521303 
L 514.838731 187.075991 
L 515.198924 174.3875 
L 515.559118 174.592194 
L 515.919311 187.705438 
L 516.639699 246.15286 
L 517.360086 294.240544 
L 517.72028 296.241462 
L 518.080473 280.246073 
L 518.440667 250.532487 
L 519.521248 138.270181 
L 519.881442 123.139416 
L 520.241635 125.855481 
L 520.601829 143.845112 
L 521.68241 232.812744 
L 522.042604 246.825567 
L 522.402797 246.684909 
L 523.123185 216.723361 
L 523.483378 194.342231 
L 523.843572 180.640523 
L 524.203765 181.528656 
L 524.563959 195.764756 
L 525.284346 254.780889 
L 525.64454 284.448639 
L 526.004734 302.583026 
L 526.364927 305.337793 
L 526.725121 289.540257 
L 527.085315 261.378191 
L 528.165896 150.718249 
L 528.526089 133.746466 
L 528.886283 140.005688 
L 529.246477 157.010217 
L 530.327058 245.619395 
L 530.687251 258.897657 
L 531.047445 260.636872 
L 531.407639 250.285766 
L 532.128026 211.715829 
L 532.488219 196.982612 
L 532.848413 198.648388 
L 533.208607 212.240246 
L 533.928994 270.876451 
L 534.289188 302.058914 
L 534.649381 321.234167 
L 535.009575 323.388403 
L 535.369769 308.035196 
L 535.729962 276.476023 
L 536.45035 198.732833 
L 536.810543 168.857041 
L 537.170737 153.488695 
L 537.530931 155.912198 
L 537.891124 174.759807 
L 538.971705 261.853731 
L 539.331899 276.069671 
L 539.692093 279.019556 
L 540.052286 264.814113 
L 540.772673 224.40753 
L 541.132867 211.90444 
L 541.493061 212.490817 
L 541.853254 226.118273 
L 543.294029 334.414552 
L 543.654223 335.19551 
L 544.014416 318.182048 
L 544.37461 289.128036 
L 545.455191 178.80267 
L 545.815385 163.422173 
L 546.175578 163.096328 
L 546.535772 182.978357 
L 547.616353 271.220012 
L 547.976547 283.510162 
L 548.33674 283.519271 
L 548.696934 270.714185 
L 549.417321 229.86266 
L 549.777515 217.972104 
L 550.137708 215.536417 
L 550.497902 231.756095 
L 551.218289 286.270235 
L 551.578483 314.924368 
L 551.938677 333.274625 
L 552.29887 334.452084 
L 552.659064 320.120027 
L 553.379451 246.400412 
L 554.099839 175.896108 
L 554.460032 158.882753 
L 554.820226 161.174465 
L 555.18042 178.361157 
L 556.261001 264.257746 
L 556.621194 278.625941 
L 556.981388 274.709344 
L 557.341581 263.098079 
L 558.061969 221.547149 
L 558.422162 208.006476 
L 558.782356 206.19549 
L 559.14255 219.672444 
L 560.583324 321.295468 
L 560.943518 322.217076 
L 561.303712 307.802773 
L 562.024099 235.86074 
L 562.744486 162.469754 
L 563.10468 146.358867 
L 563.464874 147.748501 
L 563.825067 165.566327 
L 564.905648 249.189671 
L 565.265842 263.723179 
L 565.626036 262.145226 
L 565.986229 248.536181 
L 566.706616 206.452529 
L 567.06681 193.618004 
L 567.427004 192.522076 
L 567.787197 205.889681 
L 569.227972 309.191176 
L 569.588166 311.120728 
L 569.948359 293.717095 
L 570.308553 264.437848 
L 571.02894 181.132819 
L 571.389134 150.41021 
L 571.749328 133.225329 
L 572.109521 136.600611 
L 572.469715 154.71742 
L 573.550296 237.703775 
L 573.91049 253.204298 
L 574.270683 253.287017 
L 574.630877 241.204751 
L 575.351264 199.895404 
L 575.711458 187.794764 
L 576.071651 186.009981 
L 576.431845 199.810628 
L 577.87262 304.430475 
L 578.232813 305.854292 
L 578.593007 289.449066 
L 578.953201 260.976579 
L 580.033782 149.314218 
L 580.393975 134.15583 
L 580.754169 137.577256 
L 581.114363 154.46452 
L 582.194944 241.797346 
L 582.555137 256.100236 
L 582.915331 258.922985 
L 583.275524 244.779054 
L 584.356105 191.000613 
L 584.716299 192.449495 
L 585.076493 207.824748 
L 586.157074 294.483046 
L 586.517267 313.256423 
L 586.877461 317.270506 
L 587.237655 302.703419 
L 587.958042 230.713059 
L 588.678429 162.050301 
L 589.038623 146.644514 
L 589.398817 147.989771 
L 589.75901 168.846543 
L 590.839591 255.790322 
L 591.199785 271.820235 
L 591.559978 271.130492 
L 591.920172 258.918084 
L 592.640559 220.848758 
L 593.000753 209.277657 
L 593.360947 208.766578 
L 593.72114 222.914548 
L 595.161915 331.820137 
L 595.522109 335.697178 
L 595.882302 319.684613 
L 596.60269 249.181568 
L 597.323077 180.509731 
L 597.683271 163.786758 
L 598.043464 166.805532 
L 598.403658 186.531283 
L 599.484239 273.019241 
L 599.844432 286.43091 
L 600.204626 288.247367 
L 600.56482 274.878596 
L 601.645401 221.257469 
L 602.005594 224.334056 
L 602.365788 238.703293 
L 603.806563 344.893796 
L 604.166756 347.210184 
L 604.52695 330.450157 
L 604.887144 300.402368 
L 605.967725 188.364516 
L 606.327918 174.876997 
L 606.688112 176.381556 
L 607.048306 194.949183 
L 608.128886 280.474476 
L 608.48908 294.441127 
L 608.849274 296.140618 
L 609.569661 261.172604 
L 610.290048 227.277823 
L 610.650242 226.901619 
L 611.010436 240.622958 
L 612.45121 344.829208 
L 612.811404 345.03364 
L 613.171598 328.844798 
L 613.531791 298.976229 
L 614.612372 186.588052 
L 614.972566 170.027074 
L 615.33276 170.578501 
L 615.692953 189.745247 
L 616.773534 272.027915 
L 617.133728 287.004041 
L 617.493921 287.221882 
L 617.854115 273.342547 
L 618.574502 233.335011 
L 618.934696 218.033027 
L 619.29489 217.934632 
L 619.655083 231.233116 
L 620.015277 255.405591 
L 620.735664 316.930951 
L 621.095858 331.93978 
L 621.456052 337.167411 
L 621.816245 317.296675 
L 622.176439 286.5001 
L 623.25702 173.332702 
L 623.617214 155.821873 
L 623.977407 158.814965 
L 624.337601 176.986283 
L 625.418182 260.673714 
L 625.778375 272.583992 
L 626.138569 273.369498 
L 626.498763 259.956067 
L 627.579344 205.254949 
L 627.939537 204.289473 
L 628.299731 217.117968 
L 628.659925 241.924948 
L 629.380312 300.85999 
L 629.740506 319.365223 
L 630.100699 321.6059 
L 630.460893 304.16985 
L 631.18128 233.304215 
L 631.901668 162.146256 
L 632.261861 145.28494 
L 632.622055 144.704907 
L 632.982249 164.142622 
L 634.062829 250.102672 
L 634.423023 263.185292 
L 634.783217 264.001601 
L 635.14341 251.472217 
L 636.223991 195.543756 
L 636.584185 197.385834 
L 636.944379 210.702792 
L 637.664766 268.091289 
L 638.02496 297.054508 
L 638.385153 315.111897 
L 638.745347 319.034241 
L 639.105541 300.984484 
L 639.465734 270.78113 
L 640.546315 161.697655 
L 640.906509 145.055831 
L 641.266703 145.829071 
L 641.626896 165.442099 
L 642.707477 252.754392 
L 643.067671 267.879766 
L 643.427864 267.570235 
L 643.788058 254.452049 
L 644.508445 216.394161 
L 644.868639 203.725122 
L 645.228833 202.928991 
L 645.589026 219.138335 
L 645.94922 244.372899 
L 646.669607 306.093625 
L 647.029801 324.594236 
L 647.389995 328.465566 
L 647.750188 313.441321 
L 648.470576 241.285997 
L 649.190963 171.818461 
L 649.551157 158.272326 
L 649.91135 159.193039 
L 650.271544 179.636818 
L 651.352125 268.520985 
L 651.712318 283.896685 
L 652.072512 283.030709 
L 652.432706 271.240137 
L 653.153093 233.114617 
L 653.513287 219.993387 
L 653.87348 219.98239 
L 654.233674 235.498763 
L 654.593868 260.452821 
L 655.314255 323.362857 
L 655.674449 343.057432 
L 656.034642 344.239319 
L 656.394836 328.029511 
L 656.75503 300.018677 
L 657.475417 220.660847 
L 657.835611 191.462761 
L 658.195804 175.405649 
L 658.555998 178.640337 
L 658.916192 196.297278 
L 659.996772 283.978416 
L 660.356966 300.238777 
L 660.71716 300.090695 
L 661.077353 289.0878 
L 661.797741 247.388526 
L 662.157934 234.464374 
L 662.518128 234.95908 
L 662.878322 105.302769 
L 663.238515 276.34798 
L 663.958903 337.620426 
L 664.319096 352.935787 
L 664.67929 357.633588 
L 665.039484 341.824966 
L 665.399677 311.504829 
L 666.120065 231.700806 
L 666.480258 200.278418 
L 666.840452 186.012851 
L 667.200646 187.715328 
L 667.560839 204.846982 
L 668.64142 291.963011 
L 669.001614 306.6249 
L 669.361807 306.150627 
L 669.722001 292.04164 
L 670.442388 253.61887 
L 670.802582 238.938388 
L 671.162776 238.132409 
L 671.522969 252.808773 
L 672.243357 308.438259 
L 672.60355 338.655694 
L 672.963744 356.440803 
L 673.323938 356.799278 
L 673.684131 342.263958 
L 674.404519 269.012718 
L 675.124906 197.893891 
L 675.4851 180.887503 
L 675.845293 182.590731 
L 676.205487 201.48714 
L 677.286068 285.425113 
L 677.646261 298.791227 
L 678.006455 297.964875 
L 678.366649 285.603654 
L 679.44723 230.383455 
L 679.807423 228.451015 
L 680.167617 242.766035 
L 680.888004 296.791502 
L 681.248198 328.068904 
L 681.608392 345.056676 
L 681.968585 345.241785 
L 682.328779 329.15906 
L 683.049166 257.221218 
L 683.769554 184.201228 
L 684.129747 168.142933 
L 684.489941 171.379186 
L 684.850134 187.658085 
L 685.930715 271.182313 
L 686.290909 284.06892 
L 686.651103 283.60884 
L 687.011296 271.634353 
L 687.731684 228.934069 
L 688.091877 215.393738 
L 688.452071 213.880019 
L 688.812265 228.15151 
L 689.532652 284.37994 
L 689.892846 168.891799 
L 690.253039 331.357927 
L 690.613233 331.129952 
L 690.973427 315.414499 
L 691.33362 285.4322 
L 692.414201 171.781589 
L 692.774395 157.591747 
L 693.134588 159.523997 
L 693.494782 176.460461 
L 694.575363 260.855605 
L 694.935557 275.685585 
L 695.29575 274.984924 
L 695.655944 261.453397 
L 696.376331 222.413604 
L 696.736525 207.851677 
L 697.096719 207.654048 
L 697.456912 221.811731 
L 698.897687 328.90932 
L 699.257881 327.552962 
L 699.618074 314.48206 
L 699.978268 283.658524 
L 701.058849 174.064496 
L 701.419042 156.444663 
L 701.779236 159.103907 
L 702.13943 177.459944 
L 703.220011 264.233285 
L 703.580204 280.276953 
L 703.940398 278.83262 
L 704.300592 266.040699 
L 705.020979 226.948275 
L 705.381173 215.746015 
L 705.741366 215.569764 
L 706.10156 228.633838 
L 707.542335 335.020552 
L 707.902528 338.85301 
L 708.262722 322.117885 
L 708.622916 292.779538 
L 709.703497 184.900029 
L 710.06369 168.650372 
L 710.423884 172.00207 
L 710.784077 192.197015 
L 712.224852 294.424132 
L 712.585046 294.701672 
L 712.945239 282.414081 
L 713.665627 244.63969 
L 714.02582 231.858174 
L 714.386014 231.139914 
L 714.746208 247.904446 
L 715.106401 271.757882 
L 715.826789 334.182144 
L 716.186982 351.829649 
L 716.547176 355.423515 
L 716.90737 341.117184 
L 717.267563 311.683169 
L 717.987951 231.435636 
L 718.348144 202.46569 
L 718.708338 186.156472 
L 719.068531 188.440321 
L 719.428725 208.784886 
L 720.509306 296.294517 
L 720.8695 310.802111 
L 721.229693 310.568035 
L 721.589887 298.247858 
L 722.310274 257.484156 
L 722.670468 246.319732 
L 723.030662 245.38951 
L 723.390855 259.75628 
L 724.83163 365.584981 
L 725.191824 368.566484 
L 725.552017 354.389453 
L 726.272405 282.286767 
L 726.992792 211.040231 
L 727.352985 196.004867 
L 727.713179 199.88396 
L 728.073373 215.858143 
L 729.153954 302.412078 
L 729.514147 315.827275 
L 729.874341 317.203167 
L 730.234535 303.545763 
L 730.954922 262.858986 
L 731.315116 250.285715 
L 731.675309 249.159857 
L 732.035503 263.964525 
L 732.75589 319.578156 
L 733.116084 347.824103 
L 733.476278 366.762119 
L 733.836471 369.36 
L 734.196665 352.656249 
L 734.917052 281.099018 
L 735.637439 207.621273 
L 735.997633 192.176757 
L 736.357827 193.972977 
L 736.71802 211.341559 
L 737.798601 295.462965 
L 738.158795 311.17152 
L 738.518989 309.00845 
L 738.879182 297.038473 
L 739.59957 254.336348 
L 739.959763 241.496843 
L 740.319957 241.192295 
L 740.680151 253.217999 
L 742.120925 354.668992 
L 742.481119 357.039992 
L 742.841313 340.235593 
L 743.201506 308.806603 
L 743.201506 308.806603 
" style="fill:none;stroke:#1f77b4;stroke-linecap:square;stroke-width:1.5;"/>
   </g>
   <g id="line2d_15">
    <path clip-path="url(#pa67214c75e)" d="M 747.163636 384.48 
L 747.163636 51.84 
" style="fill:none;stroke:#808080;stroke-linecap:square;"/>
   </g>
   <g id="patch_129">
    <path d="M 108 384.48 
L 108 51.84 
" style="fill:none;stroke:#000000;stroke-linecap:square;stroke-linejoin:miter;stroke-width:0.8;"/>
   </g>
   <g id="patch_130">
    <path d="M 777.6 384.48 
L 777.6 51.84 
" style="fill:none;stroke:#000000;stroke-linecap:square;stroke-linejoin:miter;stroke-width:0.8;"/>
   </g>
   <g id="patch_131">
    <path d="M 108 384.48 
L 777.6 384.48 
" style="fill:none;stroke:#000000;stroke-linecap:square;stroke-linejoin:miter;stroke-width:0.8;"/>
   </g>
   <g id="patch_132">
    <path d="M 108 51.84 
L 777.6 51.84 
" style="fill:none;stroke:#000000;stroke-linecap:square;stroke-linejoin:miter;stroke-width:0.8;"/>
   </g>
   <g id="text_16">
    <!-- A4Benchmark-TS22.csv -->
    <defs>
     <path d="M 34.1875 63.1875 
L 20.796875 26.90625 
L 47.609375 26.90625 
z
M 28.609375 72.90625 
L 39.796875 72.90625 
L 67.578125 0 
L 57.328125 0 
L 50.6875 18.703125 
L 17.828125 18.703125 
L 11.1875 0 
L 0.78125 0 
z
" id="DejaVuSans-65"/>
     <path d="M 37.796875 64.3125 
L 12.890625 25.390625 
L 37.796875 25.390625 
z
M 35.203125 72.90625 
L 47.609375 72.90625 
L 47.609375 25.390625 
L 58.015625 25.390625 
L 58.015625 17.1875 
L 47.609375 17.1875 
L 47.609375 0 
L 37.796875 0 
L 37.796875 17.1875 
L 4.890625 17.1875 
L 4.890625 26.703125 
z
" id="DejaVuSans-52"/>
     <path d="M 19.671875 34.8125 
L 19.671875 8.109375 
L 35.5 8.109375 
Q 43.453125 8.109375 47.28125 11.40625 
Q 51.125 14.703125 51.125 21.484375 
Q 51.125 28.328125 47.28125 31.5625 
Q 43.453125 34.8125 35.5 34.8125 
z
M 19.671875 64.796875 
L 19.671875 42.828125 
L 34.28125 42.828125 
Q 41.5 42.828125 45.03125 45.53125 
Q 48.578125 48.25 48.578125 53.8125 
Q 48.578125 59.328125 45.03125 62.0625 
Q 41.5 64.796875 34.28125 64.796875 
z
M 9.8125 72.90625 
L 35.015625 72.90625 
Q 46.296875 72.90625 52.390625 68.21875 
Q 58.5 63.53125 58.5 54.890625 
Q 58.5 48.1875 55.375 44.234375 
Q 52.25 40.28125 46.1875 39.3125 
Q 53.46875 37.75 57.5 32.78125 
Q 61.53125 27.828125 61.53125 20.40625 
Q 61.53125 10.640625 54.890625 5.3125 
Q 48.25 0 35.984375 0 
L 9.8125 0 
z
" id="DejaVuSans-66"/>
     <path d="M 54.890625 33.015625 
L 54.890625 0 
L 45.90625 0 
L 45.90625 32.71875 
Q 45.90625 40.484375 42.875 44.328125 
Q 39.84375 48.1875 33.796875 48.1875 
Q 26.515625 48.1875 22.3125 43.546875 
Q 18.109375 38.921875 18.109375 30.90625 
L 18.109375 0 
L 9.078125 0 
L 9.078125 54.6875 
L 18.109375 54.6875 
L 18.109375 46.1875 
Q 21.34375 51.125 25.703125 53.5625 
Q 30.078125 56 35.796875 56 
Q 45.21875 56 50.046875 50.171875 
Q 54.890625 44.34375 54.890625 33.015625 
z
" id="DejaVuSans-110"/>
     <path d="M 48.78125 52.59375 
L 48.78125 44.1875 
Q 44.96875 46.296875 41.140625 47.34375 
Q 37.3125 48.390625 33.40625 48.390625 
Q 24.65625 48.390625 19.8125 42.84375 
Q 14.984375 37.3125 14.984375 27.296875 
Q 14.984375 17.28125 19.8125 11.734375 
Q 24.65625 6.203125 33.40625 6.203125 
Q 37.3125 6.203125 41.140625 7.25 
Q 44.96875 8.296875 48.78125 10.40625 
L 48.78125 2.09375 
Q 45.015625 0.34375 40.984375 -0.53125 
Q 36.96875 -1.421875 32.421875 -1.421875 
Q 20.0625 -1.421875 12.78125 6.34375 
Q 5.515625 14.109375 5.515625 27.296875 
Q 5.515625 40.671875 12.859375 48.328125 
Q 20.21875 56 33.015625 56 
Q 37.15625 56 41.109375 55.140625 
Q 45.0625 54.296875 48.78125 52.59375 
z
" id="DejaVuSans-99"/>
     <path d="M 54.890625 33.015625 
L 54.890625 0 
L 45.90625 0 
L 45.90625 32.71875 
Q 45.90625 40.484375 42.875 44.328125 
Q 39.84375 48.1875 33.796875 48.1875 
Q 26.515625 48.1875 22.3125 43.546875 
Q 18.109375 38.921875 18.109375 30.90625 
L 18.109375 0 
L 9.078125 0 
L 9.078125 75.984375 
L 18.109375 75.984375 
L 18.109375 46.1875 
Q 21.34375 51.125 25.703125 53.5625 
Q 30.078125 56 35.796875 56 
Q 45.21875 56 50.046875 50.171875 
Q 54.890625 44.34375 54.890625 33.015625 
z
" id="DejaVuSans-104"/>
     <path d="M 41.109375 46.296875 
Q 39.59375 47.171875 37.8125 47.578125 
Q 36.03125 48 33.890625 48 
Q 26.265625 48 22.1875 43.046875 
Q 18.109375 38.09375 18.109375 28.8125 
L 18.109375 0 
L 9.078125 0 
L 9.078125 54.6875 
L 18.109375 54.6875 
L 18.109375 46.1875 
Q 20.953125 51.171875 25.484375 53.578125 
Q 30.03125 56 36.53125 56 
Q 37.453125 56 38.578125 55.875 
Q 39.703125 55.765625 41.0625 55.515625 
z
" id="DejaVuSans-114"/>
     <path d="M 9.078125 75.984375 
L 18.109375 75.984375 
L 18.109375 31.109375 
L 44.921875 54.6875 
L 56.390625 54.6875 
L 27.390625 29.109375 
L 57.625 0 
L 45.90625 0 
L 18.109375 26.703125 
L 18.109375 0 
L 9.078125 0 
z
" id="DejaVuSans-107"/>
     <path d="M 4.890625 31.390625 
L 31.203125 31.390625 
L 31.203125 23.390625 
L 4.890625 23.390625 
z
" id="DejaVuSans-45"/>
     <path d="M 53.515625 70.515625 
L 53.515625 60.890625 
Q 47.90625 63.578125 42.921875 64.890625 
Q 37.9375 66.21875 33.296875 66.21875 
Q 25.25 66.21875 20.875 63.09375 
Q 16.5 59.96875 16.5 54.203125 
Q 16.5 49.359375 19.40625 46.890625 
Q 22.3125 44.4375 30.421875 42.921875 
L 36.375 41.703125 
Q 47.40625 39.59375 52.65625 34.296875 
Q 57.90625 29 57.90625 20.125 
Q 57.90625 9.515625 50.796875 4.046875 
Q 43.703125 -1.421875 29.984375 -1.421875 
Q 24.8125 -1.421875 18.96875 -0.25 
Q 13.140625 0.921875 6.890625 3.21875 
L 6.890625 13.375 
Q 12.890625 10.015625 18.65625 8.296875 
Q 24.421875 6.59375 29.984375 6.59375 
Q 38.421875 6.59375 43.015625 9.90625 
Q 47.609375 13.234375 47.609375 19.390625 
Q 47.609375 24.75 44.3125 27.78125 
Q 41.015625 30.8125 33.5 32.328125 
L 27.484375 33.5 
Q 16.453125 35.6875 11.515625 40.375 
Q 6.59375 45.0625 6.59375 53.421875 
Q 6.59375 63.09375 13.40625 68.65625 
Q 20.21875 74.21875 32.171875 74.21875 
Q 37.3125 74.21875 42.625 73.28125 
Q 47.953125 72.359375 53.515625 70.515625 
z
" id="DejaVuSans-83"/>
     <path d="M 10.6875 12.40625 
L 21 12.40625 
L 21 0 
L 10.6875 0 
z
" id="DejaVuSans-46"/>
     <path d="M 2.984375 54.6875 
L 12.5 54.6875 
L 29.59375 8.796875 
L 46.6875 54.6875 
L 56.203125 54.6875 
L 35.6875 0 
L 23.484375 0 
z
" id="DejaVuSans-118"/>
    </defs>
    <g transform="translate(371.555625 45.84)scale(0.12 -0.12)">
     <use xlink:href="#DejaVuSans-65"/>
     <use x="68.408203" xlink:href="#DejaVuSans-52"/>
     <use x="132.03125" xlink:href="#DejaVuSans-66"/>
     <use x="200.634766" xlink:href="#DejaVuSans-101"/>
     <use x="262.158203" xlink:href="#DejaVuSans-110"/>
     <use x="325.537109" xlink:href="#DejaVuSans-99"/>
     <use x="380.517578" xlink:href="#DejaVuSans-104"/>
     <use x="443.896484" xlink:href="#DejaVuSans-109"/>
     <use x="541.308594" xlink:href="#DejaVuSans-97"/>
     <use x="602.587891" xlink:href="#DejaVuSans-114"/>
     <use x="643.701172" xlink:href="#DejaVuSans-107"/>
     <use x="701.611328" xlink:href="#DejaVuSans-45"/>
     <use x="737.554688" xlink:href="#DejaVuSans-84"/>
     <use x="798.638672" xlink:href="#DejaVuSans-83"/>
     <use x="862.115234" xlink:href="#DejaVuSans-50"/>
     <use x="925.738281" xlink:href="#DejaVuSans-50"/>
     <use x="989.361328" xlink:href="#DejaVuSans-46"/>
     <use x="1021.148438" xlink:href="#DejaVuSans-99"/>
     <use x="1076.128906" xlink:href="#DejaVuSans-115"/>
     <use x="1128.228516" xlink:href="#DejaVuSans-118"/>
    </g>
   </g>
   <g id="legend_1">
    <g id="patch_133">
     <path d="M 711.284375 74.518125 
L 770.6 74.518125 
Q 772.6 74.518125 772.6 72.518125 
L 772.6 58.84 
Q 772.6 56.84 770.6 56.84 
L 711.284375 56.84 
Q 709.284375 56.84 709.284375 58.84 
L 709.284375 72.518125 
Q 709.284375 74.518125 711.284375 74.518125 
z
" style="fill:#ffffff;opacity:0.8;stroke:#cccccc;stroke-linejoin:miter;"/>
    </g>
    <g id="line2d_16">
     <path d="M 713.284375 64.938438 
L 733.284375 64.938438 
" style="fill:none;stroke:#1f77b4;stroke-linecap:square;stroke-width:1.5;"/>
    </g>
    <g id="line2d_17"/>
    <g id="text_17">
     <!-- value -->
     <g transform="translate(741.284375 68.438438)scale(0.1 -0.1)">
      <use xlink:href="#DejaVuSans-118"/>
      <use x="59.179688" xlink:href="#DejaVuSans-97"/>
      <use x="120.458984" xlink:href="#DejaVuSans-108"/>
      <use x="148.242188" xlink:href="#DejaVuSans-117"/>
      <use x="211.621094" xlink:href="#DejaVuSans-101"/>
     </g>
    </g>
   </g>
  </g>
 </g>
 <defs>
  <clipPath id="pa67214c75e">
   <rect height="332.64" width="669.6" x="108" y="51.84"/>
  </clipPath>
 </defs>
</svg>
