<?xml version="1.0" encoding="utf-8" standalone="no"?>
<!DOCTYPE svg PUBLIC "-//W3C//DTD SVG 1.1//EN"
  "http://www.w3.org/Graphics/SVG/1.1/DTD/svg11.dtd">
<!-- Created with matplotlib (https://matplotlib.org/) -->
<svg height="432pt" version="1.1" viewBox="0 0 864 432" width="864pt" xmlns="http://www.w3.org/2000/svg" xmlns:xlink="http://www.w3.org/1999/xlink">
 <defs>
  <style type="text/css">
*{stroke-linecap:butt;stroke-linejoin:round;}
  </style>
 </defs>
 <g id="figure_1">
  <g id="patch_1">
   <path d="M 0 432 
L 864 432 
L 864 0 
L 0 0 
z
" style="fill:#ffffff;"/>
  </g>
  <g id="axes_1">
   <g id="patch_2">
    <path d="M 108 384.48 
L 777.6 384.48 
L 777.6 51.84 
L 108 51.84 
z
" style="fill:#ffffff;"/>
   </g>
   <g id="patch_3">
    <path clip-path="url(#p2b288c1110)" d="M 138.436364 384.48 
L 138.436364 51.84 
L 378.497823 51.84 
L 378.497823 384.48 
z
" style="fill:#0000ff;opacity:0.05;"/>
   </g>
   <g id="patch_4">
    <path clip-path="url(#p2b288c1110)" d="M 378.497823 384.48 
L 378.497823 51.84 
L 747.163636 51.84 
L 747.163636 384.48 
z
" style="fill:#ff0000;opacity:0.08;"/>
   </g>
   <g id="patch_5">
    <path clip-path="url(#p2b288c1110)" d="M 138.436364 384.48 
L 138.436364 51.84 
L 142.723175 51.84 
L 142.723175 384.48 
z
" style="fill:#008000;opacity:0.04;"/>
   </g>
   <g id="patch_6">
    <path clip-path="url(#p2b288c1110)" d="M 147.009987 384.48 
L 147.009987 51.84 
L 151.296799 51.84 
L 151.296799 384.48 
z
" style="fill:#008000;opacity:0.04;"/>
   </g>
   <g id="patch_7">
    <path clip-path="url(#p2b288c1110)" d="M 155.583611 384.48 
L 155.583611 51.84 
L 159.870423 51.84 
L 159.870423 384.48 
z
" style="fill:#008000;opacity:0.04;"/>
   </g>
   <g id="patch_8">
    <path clip-path="url(#p2b288c1110)" d="M 164.157234 384.48 
L 164.157234 51.84 
L 168.444046 51.84 
L 168.444046 384.48 
z
" style="fill:#008000;opacity:0.04;"/>
   </g>
   <g id="patch_9">
    <path clip-path="url(#p2b288c1110)" d="M 164.157234 384.48 
L 164.157234 371.1744 
L 168.444046 371.1744 
L 168.444046 384.48 
z
" style="fill:#ffe500;"/>
   </g>
   <g id="patch_10">
    <path clip-path="url(#p2b288c1110)" d="M 168.444046 384.48 
L 168.444046 371.1744 
L 172.730858 371.1744 
L 172.730858 384.48 
z
" style="fill:#ffe500;"/>
   </g>
   <g id="patch_11">
    <path clip-path="url(#p2b288c1110)" d="M 172.730858 384.48 
L 172.730858 51.84 
L 177.01767 51.84 
L 177.01767 384.48 
z
" style="fill:#008000;opacity:0.04;"/>
   </g>
   <g id="patch_12">
    <path clip-path="url(#p2b288c1110)" d="M 417.079129 384.48 
L 417.079129 371.1744 
L 421.365941 371.1744 
L 421.365941 384.48 
z
" style="fill:#ff6600;"/>
   </g>
   <g id="patch_13">
    <path clip-path="url(#p2b288c1110)" d="M 181.304481 384.48 
L 181.304481 51.84 
L 185.591293 51.84 
L 185.591293 384.48 
z
" style="fill:#008000;opacity:0.04;"/>
   </g>
   <g id="patch_14">
    <path clip-path="url(#p2b288c1110)" d="M 189.878105 384.48 
L 189.878105 51.84 
L 194.164917 51.84 
L 194.164917 384.48 
z
" style="fill:#008000;opacity:0.04;"/>
   </g>
   <g id="patch_15">
    <path clip-path="url(#p2b288c1110)" d="M 198.451729 384.48 
L 198.451729 51.84 
L 202.73854 51.84 
L 202.73854 384.48 
z
" style="fill:#008000;opacity:0.04;"/>
   </g>
   <g id="patch_16">
    <path clip-path="url(#p2b288c1110)" d="M 207.025352 384.48 
L 207.025352 51.84 
L 211.312164 51.84 
L 211.312164 384.48 
z
" style="fill:#008000;opacity:0.04;"/>
   </g>
   <g id="patch_17">
    <path clip-path="url(#p2b288c1110)" d="M 215.598976 384.48 
L 215.598976 51.84 
L 219.885787 51.84 
L 219.885787 384.48 
z
" style="fill:#008000;opacity:0.04;"/>
   </g>
   <g id="patch_18">
    <path clip-path="url(#p2b288c1110)" d="M 215.598976 384.48 
L 215.598976 371.1744 
L 219.885787 371.1744 
L 219.885787 384.48 
z
" style="fill:#ffe500;"/>
   </g>
   <g id="patch_19">
    <path clip-path="url(#p2b288c1110)" d="M 224.172599 384.48 
L 224.172599 51.84 
L 228.459411 51.84 
L 228.459411 384.48 
z
" style="fill:#008000;opacity:0.04;"/>
   </g>
   <g id="patch_20">
    <path clip-path="url(#p2b288c1110)" d="M 232.746223 384.48 
L 232.746223 51.84 
L 237.033035 51.84 
L 237.033035 384.48 
z
" style="fill:#008000;opacity:0.04;"/>
   </g>
   <g id="patch_21">
    <path clip-path="url(#p2b288c1110)" d="M 241.319846 384.48 
L 241.319846 51.84 
L 245.606658 51.84 
L 245.606658 384.48 
z
" style="fill:#008000;opacity:0.04;"/>
   </g>
   <g id="patch_22">
    <path clip-path="url(#p2b288c1110)" d="M 249.89347 384.48 
L 249.89347 51.84 
L 254.180282 51.84 
L 254.180282 384.48 
z
" style="fill:#008000;opacity:0.04;"/>
   </g>
   <g id="patch_23">
    <path clip-path="url(#p2b288c1110)" d="M 249.89347 384.48 
L 249.89347 371.1744 
L 254.180282 371.1744 
L 254.180282 384.48 
z
" style="fill:#ffe500;"/>
   </g>
   <g id="patch_24">
    <path clip-path="url(#p2b288c1110)" d="M 258.467093 384.48 
L 258.467093 51.84 
L 262.753905 51.84 
L 262.753905 384.48 
z
" style="fill:#008000;opacity:0.04;"/>
   </g>
   <g id="patch_25">
    <path clip-path="url(#p2b288c1110)" d="M 267.040717 384.48 
L 267.040717 51.84 
L 271.327529 51.84 
L 271.327529 384.48 
z
" style="fill:#008000;opacity:0.04;"/>
   </g>
   <g id="patch_26">
    <path clip-path="url(#p2b288c1110)" d="M 275.614341 384.48 
L 275.614341 51.84 
L 279.901152 51.84 
L 279.901152 384.48 
z
" style="fill:#008000;opacity:0.04;"/>
   </g>
   <g id="patch_27">
    <path clip-path="url(#p2b288c1110)" d="M 515.6758 384.48 
L 515.6758 371.1744 
L 519.962612 371.1744 
L 519.962612 384.48 
z
" style="fill:#ff6600;"/>
   </g>
   <g id="patch_28">
    <path clip-path="url(#p2b288c1110)" d="M 279.901152 384.48 
L 279.901152 371.1744 
L 284.187964 371.1744 
L 284.187964 384.48 
z
" style="fill:#ffe500;"/>
   </g>
   <g id="patch_29">
    <path clip-path="url(#p2b288c1110)" d="M 519.962612 384.48 
L 519.962612 371.1744 
L 524.249424 371.1744 
L 524.249424 384.48 
z
" style="fill:#ff6600;"/>
   </g>
   <g id="patch_30">
    <path clip-path="url(#p2b288c1110)" d="M 284.187964 384.48 
L 284.187964 51.84 
L 288.474776 51.84 
L 288.474776 384.48 
z
" style="fill:#008000;opacity:0.04;"/>
   </g>
   <g id="patch_31">
    <path clip-path="url(#p2b288c1110)" d="M 292.761588 384.48 
L 292.761588 51.84 
L 297.048399 51.84 
L 297.048399 384.48 
z
" style="fill:#008000;opacity:0.04;"/>
   </g>
   <g id="patch_32">
    <path clip-path="url(#p2b288c1110)" d="M 301.335211 384.48 
L 301.335211 51.84 
L 305.622023 51.84 
L 305.622023 384.48 
z
" style="fill:#008000;opacity:0.04;"/>
   </g>
   <g id="patch_33">
    <path clip-path="url(#p2b288c1110)" d="M 309.908835 384.48 
L 309.908835 51.84 
L 314.195647 51.84 
L 314.195647 384.48 
z
" style="fill:#008000;opacity:0.04;"/>
   </g>
   <g id="patch_34">
    <path clip-path="url(#p2b288c1110)" d="M 318.482458 384.48 
L 318.482458 51.84 
L 322.76927 51.84 
L 322.76927 384.48 
z
" style="fill:#008000;opacity:0.04;"/>
   </g>
   <g id="patch_35">
    <path clip-path="url(#p2b288c1110)" d="M 327.056082 384.48 
L 327.056082 51.84 
L 331.342894 51.84 
L 331.342894 384.48 
z
" style="fill:#008000;opacity:0.04;"/>
   </g>
   <g id="patch_36">
    <path clip-path="url(#p2b288c1110)" d="M 327.056082 384.48 
L 327.056082 371.1744 
L 331.342894 371.1744 
L 331.342894 384.48 
z
" style="fill:#ffe500;"/>
   </g>
   <g id="patch_37">
    <path clip-path="url(#p2b288c1110)" d="M 335.629706 384.48 
L 335.629706 51.84 
L 339.916517 51.84 
L 339.916517 384.48 
z
" style="fill:#008000;opacity:0.04;"/>
   </g>
   <g id="patch_38">
    <path clip-path="url(#p2b288c1110)" d="M 344.203329 384.48 
L 344.203329 51.84 
L 348.490141 51.84 
L 348.490141 384.48 
z
" style="fill:#008000;opacity:0.04;"/>
   </g>
   <g id="patch_39">
    <path clip-path="url(#p2b288c1110)" d="M 344.203329 384.48 
L 344.203329 371.1744 
L 348.490141 371.1744 
L 348.490141 384.48 
z
" style="fill:#ffe500;"/>
   </g>
   <g id="patch_40">
    <path clip-path="url(#p2b288c1110)" d="M 352.776953 384.48 
L 352.776953 51.84 
L 357.063764 51.84 
L 357.063764 384.48 
z
" style="fill:#008000;opacity:0.04;"/>
   </g>
   <g id="patch_41">
    <path clip-path="url(#p2b288c1110)" d="M 361.350576 384.48 
L 361.350576 51.84 
L 365.637388 51.84 
L 365.637388 384.48 
z
" style="fill:#008000;opacity:0.04;"/>
   </g>
   <g id="patch_42">
    <path clip-path="url(#p2b288c1110)" d="M 365.637388 384.48 
L 365.637388 371.1744 
L 369.9242 371.1744 
L 369.9242 384.48 
z
" style="fill:#ffe500;"/>
   </g>
   <g id="patch_43">
    <path clip-path="url(#p2b288c1110)" d="M 369.9242 384.48 
L 369.9242 51.84 
L 374.211012 51.84 
L 374.211012 384.48 
z
" style="fill:#008000;opacity:0.04;"/>
   </g>
   <g id="patch_44">
    <path clip-path="url(#p2b288c1110)" d="M 378.497823 384.48 
L 378.497823 51.84 
L 382.784635 51.84 
L 382.784635 384.48 
z
" style="fill:#008000;opacity:0.04;"/>
   </g>
   <g id="patch_45">
    <path clip-path="url(#p2b288c1110)" d="M 387.071447 384.48 
L 387.071447 51.84 
L 391.358259 51.84 
L 391.358259 384.48 
z
" style="fill:#008000;opacity:0.04;"/>
   </g>
   <g id="patch_46">
    <path clip-path="url(#p2b288c1110)" d="M 395.64507 384.48 
L 395.64507 51.84 
L 399.931882 51.84 
L 399.931882 384.48 
z
" style="fill:#008000;opacity:0.04;"/>
   </g>
   <g id="patch_47">
    <path clip-path="url(#p2b288c1110)" d="M 404.218694 384.48 
L 404.218694 51.84 
L 408.505506 51.84 
L 408.505506 384.48 
z
" style="fill:#008000;opacity:0.04;"/>
   </g>
   <g id="patch_48">
    <path clip-path="url(#p2b288c1110)" d="M 412.792318 384.48 
L 412.792318 51.84 
L 417.079129 51.84 
L 417.079129 384.48 
z
" style="fill:#008000;opacity:0.04;"/>
   </g>
   <g id="patch_49">
    <path clip-path="url(#p2b288c1110)" d="M 417.079129 371.1744 
L 417.079129 51.84 
L 421.365941 51.84 
L 421.365941 371.1744 
z
" style="fill:#008000;opacity:0.5;"/>
   </g>
   <g id="patch_50">
    <path clip-path="url(#p2b288c1110)" d="M 421.365941 384.48 
L 421.365941 51.84 
L 425.652753 51.84 
L 425.652753 384.48 
z
" style="fill:#008000;opacity:0.04;"/>
   </g>
   <g id="patch_51">
    <path clip-path="url(#p2b288c1110)" d="M 429.939565 384.48 
L 429.939565 51.84 
L 434.226376 51.84 
L 434.226376 384.48 
z
" style="fill:#008000;opacity:0.04;"/>
   </g>
   <g id="patch_52">
    <path clip-path="url(#p2b288c1110)" d="M 438.513188 384.48 
L 438.513188 51.84 
L 442.8 51.84 
L 442.8 384.48 
z
" style="fill:#008000;opacity:0.04;"/>
   </g>
   <g id="patch_53">
    <path clip-path="url(#p2b288c1110)" d="M 447.086812 384.48 
L 447.086812 51.84 
L 451.373624 51.84 
L 451.373624 384.48 
z
" style="fill:#008000;opacity:0.04;"/>
   </g>
   <g id="patch_54">
    <path clip-path="url(#p2b288c1110)" d="M 455.660435 384.48 
L 455.660435 51.84 
L 459.947247 51.84 
L 459.947247 384.48 
z
" style="fill:#008000;opacity:0.04;"/>
   </g>
   <g id="patch_55">
    <path clip-path="url(#p2b288c1110)" d="M 464.234059 384.48 
L 464.234059 51.84 
L 468.520871 51.84 
L 468.520871 384.48 
z
" style="fill:#008000;opacity:0.04;"/>
   </g>
   <g id="patch_56">
    <path clip-path="url(#p2b288c1110)" d="M 472.807682 384.48 
L 472.807682 51.84 
L 477.094494 51.84 
L 477.094494 384.48 
z
" style="fill:#008000;opacity:0.04;"/>
   </g>
   <g id="patch_57">
    <path clip-path="url(#p2b288c1110)" d="M 481.381306 384.48 
L 481.381306 51.84 
L 485.668118 51.84 
L 485.668118 384.48 
z
" style="fill:#008000;opacity:0.04;"/>
   </g>
   <g id="patch_58">
    <path clip-path="url(#p2b288c1110)" d="M 489.95493 384.48 
L 489.95493 51.84 
L 494.241741 51.84 
L 494.241741 384.48 
z
" style="fill:#008000;opacity:0.04;"/>
   </g>
   <g id="patch_59">
    <path clip-path="url(#p2b288c1110)" d="M 498.528553 384.48 
L 498.528553 51.84 
L 502.815365 51.84 
L 502.815365 384.48 
z
" style="fill:#008000;opacity:0.04;"/>
   </g>
   <g id="patch_60">
    <path clip-path="url(#p2b288c1110)" d="M 507.102177 384.48 
L 507.102177 51.84 
L 511.388988 51.84 
L 511.388988 384.48 
z
" style="fill:#008000;opacity:0.04;"/>
   </g>
   <g id="patch_61">
    <path clip-path="url(#p2b288c1110)" d="M 515.6758 384.48 
L 515.6758 51.84 
L 519.962612 51.84 
L 519.962612 384.48 
z
" style="fill:#008000;opacity:0.04;"/>
   </g>
   <g id="patch_62">
    <path clip-path="url(#p2b288c1110)" d="M 519.962612 371.1744 
L 519.962612 51.84 
L 524.249424 51.84 
L 524.249424 371.1744 
z
" style="fill:#008000;opacity:0.5;"/>
   </g>
   <g id="patch_63">
    <path clip-path="url(#p2b288c1110)" d="M 524.249424 384.48 
L 524.249424 51.84 
L 528.536236 51.84 
L 528.536236 384.48 
z
" style="fill:#008000;opacity:0.04;"/>
   </g>
   <g id="patch_64">
    <path clip-path="url(#p2b288c1110)" d="M 532.823047 384.48 
L 532.823047 51.84 
L 537.109859 51.84 
L 537.109859 384.48 
z
" style="fill:#008000;opacity:0.04;"/>
   </g>
   <g id="patch_65">
    <path clip-path="url(#p2b288c1110)" d="M 541.396671 384.48 
L 541.396671 51.84 
L 545.683483 51.84 
L 545.683483 384.48 
z
" style="fill:#008000;opacity:0.04;"/>
   </g>
   <g id="patch_66">
    <path clip-path="url(#p2b288c1110)" d="M 549.970294 384.48 
L 549.970294 51.84 
L 554.257106 51.84 
L 554.257106 384.48 
z
" style="fill:#008000;opacity:0.04;"/>
   </g>
   <g id="patch_67">
    <path clip-path="url(#p2b288c1110)" d="M 558.543918 384.48 
L 558.543918 51.84 
L 562.83073 51.84 
L 562.83073 384.48 
z
" style="fill:#008000;opacity:0.04;"/>
   </g>
   <g id="patch_68">
    <path clip-path="url(#p2b288c1110)" d="M 567.117542 384.48 
L 567.117542 51.84 
L 571.404353 51.84 
L 571.404353 384.48 
z
" style="fill:#008000;opacity:0.04;"/>
   </g>
   <g id="patch_69">
    <path clip-path="url(#p2b288c1110)" d="M 575.691165 384.48 
L 575.691165 51.84 
L 579.977977 51.84 
L 579.977977 384.48 
z
" style="fill:#008000;opacity:0.04;"/>
   </g>
   <g id="patch_70">
    <path clip-path="url(#p2b288c1110)" d="M 584.264789 384.48 
L 584.264789 51.84 
L 588.551601 51.84 
L 588.551601 384.48 
z
" style="fill:#008000;opacity:0.04;"/>
   </g>
   <g id="patch_71">
    <path clip-path="url(#p2b288c1110)" d="M 592.838412 384.48 
L 592.838412 51.84 
L 597.125224 51.84 
L 597.125224 384.48 
z
" style="fill:#008000;opacity:0.04;"/>
   </g>
   <g id="patch_72">
    <path clip-path="url(#p2b288c1110)" d="M 601.412036 384.48 
L 601.412036 51.84 
L 605.698848 51.84 
L 605.698848 384.48 
z
" style="fill:#008000;opacity:0.04;"/>
   </g>
   <g id="patch_73">
    <path clip-path="url(#p2b288c1110)" d="M 609.985659 384.48 
L 609.985659 51.84 
L 614.272471 51.84 
L 614.272471 384.48 
z
" style="fill:#008000;opacity:0.04;"/>
   </g>
   <g id="patch_74">
    <path clip-path="url(#p2b288c1110)" d="M 618.559283 384.48 
L 618.559283 51.84 
L 622.846095 51.84 
L 622.846095 384.48 
z
" style="fill:#008000;opacity:0.04;"/>
   </g>
   <g id="patch_75">
    <path clip-path="url(#p2b288c1110)" d="M 627.132907 384.48 
L 627.132907 51.84 
L 631.419718 51.84 
L 631.419718 384.48 
z
" style="fill:#008000;opacity:0.04;"/>
   </g>
   <g id="patch_76">
    <path clip-path="url(#p2b288c1110)" d="M 635.70653 384.48 
L 635.70653 51.84 
L 639.993342 51.84 
L 639.993342 384.48 
z
" style="fill:#008000;opacity:0.04;"/>
   </g>
   <g id="patch_77">
    <path clip-path="url(#p2b288c1110)" d="M 644.280154 384.48 
L 644.280154 51.84 
L 648.566965 51.84 
L 648.566965 384.48 
z
" style="fill:#008000;opacity:0.04;"/>
   </g>
   <g id="patch_78">
    <path clip-path="url(#p2b288c1110)" d="M 652.853777 384.48 
L 652.853777 51.84 
L 657.140589 51.84 
L 657.140589 384.48 
z
" style="fill:#008000;opacity:0.04;"/>
   </g>
   <g id="patch_79">
    <path clip-path="url(#p2b288c1110)" d="M 661.427401 384.48 
L 661.427401 51.84 
L 665.714213 51.84 
L 665.714213 384.48 
z
" style="fill:#008000;opacity:0.04;"/>
   </g>
   <g id="patch_80">
    <path clip-path="url(#p2b288c1110)" d="M 670.001024 384.48 
L 670.001024 51.84 
L 674.287836 51.84 
L 674.287836 384.48 
z
" style="fill:#008000;opacity:0.04;"/>
   </g>
   <g id="patch_81">
    <path clip-path="url(#p2b288c1110)" d="M 678.574648 384.48 
L 678.574648 51.84 
L 682.86146 51.84 
L 682.86146 384.48 
z
" style="fill:#008000;opacity:0.04;"/>
   </g>
   <g id="patch_82">
    <path clip-path="url(#p2b288c1110)" d="M 687.148271 384.48 
L 687.148271 51.84 
L 691.435083 51.84 
L 691.435083 384.48 
z
" style="fill:#008000;opacity:0.04;"/>
   </g>
   <g id="patch_83">
    <path clip-path="url(#p2b288c1110)" d="M 695.721895 384.48 
L 695.721895 51.84 
L 700.008707 51.84 
L 700.008707 384.48 
z
" style="fill:#008000;opacity:0.04;"/>
   </g>
   <g id="patch_84">
    <path clip-path="url(#p2b288c1110)" d="M 704.295519 384.48 
L 704.295519 51.84 
L 708.58233 51.84 
L 708.58233 384.48 
z
" style="fill:#008000;opacity:0.04;"/>
   </g>
   <g id="patch_85">
    <path clip-path="url(#p2b288c1110)" d="M 712.869142 384.48 
L 712.869142 51.84 
L 717.155954 51.84 
L 717.155954 384.48 
z
" style="fill:#008000;opacity:0.04;"/>
   </g>
   <g id="patch_86">
    <path clip-path="url(#p2b288c1110)" d="M 721.442766 384.48 
L 721.442766 51.84 
L 725.729577 51.84 
L 725.729577 384.48 
z
" style="fill:#008000;opacity:0.04;"/>
   </g>
   <g id="patch_87">
    <path clip-path="url(#p2b288c1110)" d="M 730.016389 384.48 
L 730.016389 51.84 
L 734.303201 51.84 
L 734.303201 384.48 
z
" style="fill:#008000;opacity:0.04;"/>
   </g>
   <g id="patch_88">
    <path clip-path="url(#p2b288c1110)" d="M 738.590013 384.48 
L 738.590013 51.84 
L 742.876825 51.84 
L 742.876825 384.48 
z
" style="fill:#008000;opacity:0.04;"/>
   </g>
   <g id="matplotlib.axis_1">
    <g id="xtick_1">
     <g id="line2d_1">
      <defs>
       <path d="M 0 0 
L 0 3.5 
" id="macca00fbd7" style="stroke:#000000;stroke-width:0.8;"/>
      </defs>
      <g>
       <use style="stroke:#000000;stroke-width:0.8;" x="138.436364" xlink:href="#macca00fbd7" y="384.48"/>
      </g>
     </g>
     <g id="text_1">
      <!-- 0 -->
      <defs>
       <path d="M 31.78125 66.40625 
Q 24.171875 66.40625 20.328125 58.90625 
Q 16.5 51.421875 16.5 36.375 
Q 16.5 21.390625 20.328125 13.890625 
Q 24.171875 6.390625 31.78125 6.390625 
Q 39.453125 6.390625 43.28125 13.890625 
Q 47.125 21.390625 47.125 36.375 
Q 47.125 51.421875 43.28125 58.90625 
Q 39.453125 66.40625 31.78125 66.40625 
z
M 31.78125 74.21875 
Q 44.046875 74.21875 50.515625 64.515625 
Q 56.984375 54.828125 56.984375 36.375 
Q 56.984375 17.96875 50.515625 8.265625 
Q 44.046875 -1.421875 31.78125 -1.421875 
Q 19.53125 -1.421875 13.0625 8.265625 
Q 6.59375 17.96875 6.59375 36.375 
Q 6.59375 54.828125 13.0625 64.515625 
Q 19.53125 74.21875 31.78125 74.21875 
z
" id="DejaVuSans-48"/>
      </defs>
      <g transform="translate(135.255114 399.078438)scale(0.1 -0.1)">
       <use xlink:href="#DejaVuSans-48"/>
      </g>
     </g>
    </g>
    <g id="xtick_2">
     <g id="line2d_2">
      <g>
       <use style="stroke:#000000;stroke-width:0.8;" x="224.172599" xlink:href="#macca00fbd7" y="384.48"/>
      </g>
     </g>
     <g id="text_2">
      <!-- 200 -->
      <defs>
       <path d="M 19.1875 8.296875 
L 53.609375 8.296875 
L 53.609375 0 
L 7.328125 0 
L 7.328125 8.296875 
Q 12.9375 14.109375 22.625 23.890625 
Q 32.328125 33.6875 34.8125 36.53125 
Q 39.546875 41.84375 41.421875 45.53125 
Q 43.3125 49.21875 43.3125 52.78125 
Q 43.3125 58.59375 39.234375 62.25 
Q 35.15625 65.921875 28.609375 65.921875 
Q 23.96875 65.921875 18.8125 64.3125 
Q 13.671875 62.703125 7.8125 59.421875 
L 7.8125 69.390625 
Q 13.765625 71.78125 18.9375 73 
Q 24.125 74.21875 28.421875 74.21875 
Q 39.75 74.21875 46.484375 68.546875 
Q 53.21875 62.890625 53.21875 53.421875 
Q 53.21875 48.921875 51.53125 44.890625 
Q 49.859375 40.875 45.40625 35.40625 
Q 44.1875 33.984375 37.640625 27.21875 
Q 31.109375 20.453125 19.1875 8.296875 
z
" id="DejaVuSans-50"/>
      </defs>
      <g transform="translate(214.628849 399.078438)scale(0.1 -0.1)">
       <use xlink:href="#DejaVuSans-50"/>
       <use x="63.623047" xlink:href="#DejaVuSans-48"/>
       <use x="127.246094" xlink:href="#DejaVuSans-48"/>
      </g>
     </g>
    </g>
    <g id="xtick_3">
     <g id="line2d_3">
      <g>
       <use style="stroke:#000000;stroke-width:0.8;" x="309.908835" xlink:href="#macca00fbd7" y="384.48"/>
      </g>
     </g>
     <g id="text_3">
      <!-- 400 -->
      <defs>
       <path d="M 37.796875 64.3125 
L 12.890625 25.390625 
L 37.796875 25.390625 
z
M 35.203125 72.90625 
L 47.609375 72.90625 
L 47.609375 25.390625 
L 58.015625 25.390625 
L 58.015625 17.1875 
L 47.609375 17.1875 
L 47.609375 0 
L 37.796875 0 
L 37.796875 17.1875 
L 4.890625 17.1875 
L 4.890625 26.703125 
z
" id="DejaVuSans-52"/>
      </defs>
      <g transform="translate(300.365085 399.078438)scale(0.1 -0.1)">
       <use xlink:href="#DejaVuSans-52"/>
       <use x="63.623047" xlink:href="#DejaVuSans-48"/>
       <use x="127.246094" xlink:href="#DejaVuSans-48"/>
      </g>
     </g>
    </g>
    <g id="xtick_4">
     <g id="line2d_4">
      <g>
       <use style="stroke:#000000;stroke-width:0.8;" x="395.64507" xlink:href="#macca00fbd7" y="384.48"/>
      </g>
     </g>
     <g id="text_4">
      <!-- 600 -->
      <defs>
       <path d="M 33.015625 40.375 
Q 26.375 40.375 22.484375 35.828125 
Q 18.609375 31.296875 18.609375 23.390625 
Q 18.609375 15.53125 22.484375 10.953125 
Q 26.375 6.390625 33.015625 6.390625 
Q 39.65625 6.390625 43.53125 10.953125 
Q 47.40625 15.53125 47.40625 23.390625 
Q 47.40625 31.296875 43.53125 35.828125 
Q 39.65625 40.375 33.015625 40.375 
z
M 52.59375 71.296875 
L 52.59375 62.3125 
Q 48.875 64.0625 45.09375 64.984375 
Q 41.3125 65.921875 37.59375 65.921875 
Q 27.828125 65.921875 22.671875 59.328125 
Q 17.53125 52.734375 16.796875 39.40625 
Q 19.671875 43.65625 24.015625 45.921875 
Q 28.375 48.1875 33.59375 48.1875 
Q 44.578125 48.1875 50.953125 41.515625 
Q 57.328125 34.859375 57.328125 23.390625 
Q 57.328125 12.15625 50.6875 5.359375 
Q 44.046875 -1.421875 33.015625 -1.421875 
Q 20.359375 -1.421875 13.671875 8.265625 
Q 6.984375 17.96875 6.984375 36.375 
Q 6.984375 53.65625 15.1875 63.9375 
Q 23.390625 74.21875 37.203125 74.21875 
Q 40.921875 74.21875 44.703125 73.484375 
Q 48.484375 72.75 52.59375 71.296875 
z
" id="DejaVuSans-54"/>
      </defs>
      <g transform="translate(386.10132 399.078438)scale(0.1 -0.1)">
       <use xlink:href="#DejaVuSans-54"/>
       <use x="63.623047" xlink:href="#DejaVuSans-48"/>
       <use x="127.246094" xlink:href="#DejaVuSans-48"/>
      </g>
     </g>
    </g>
    <g id="xtick_5">
     <g id="line2d_5">
      <g>
       <use style="stroke:#000000;stroke-width:0.8;" x="481.381306" xlink:href="#macca00fbd7" y="384.48"/>
      </g>
     </g>
     <g id="text_5">
      <!-- 800 -->
      <defs>
       <path d="M 31.78125 34.625 
Q 24.75 34.625 20.71875 30.859375 
Q 16.703125 27.09375 16.703125 20.515625 
Q 16.703125 13.921875 20.71875 10.15625 
Q 24.75 6.390625 31.78125 6.390625 
Q 38.8125 6.390625 42.859375 10.171875 
Q 46.921875 13.96875 46.921875 20.515625 
Q 46.921875 27.09375 42.890625 30.859375 
Q 38.875 34.625 31.78125 34.625 
z
M 21.921875 38.8125 
Q 15.578125 40.375 12.03125 44.71875 
Q 8.5 49.078125 8.5 55.328125 
Q 8.5 64.0625 14.71875 69.140625 
Q 20.953125 74.21875 31.78125 74.21875 
Q 42.671875 74.21875 48.875 69.140625 
Q 55.078125 64.0625 55.078125 55.328125 
Q 55.078125 49.078125 51.53125 44.71875 
Q 48 40.375 41.703125 38.8125 
Q 48.828125 37.15625 52.796875 32.3125 
Q 56.78125 27.484375 56.78125 20.515625 
Q 56.78125 9.90625 50.3125 4.234375 
Q 43.84375 -1.421875 31.78125 -1.421875 
Q 19.734375 -1.421875 13.25 4.234375 
Q 6.78125 9.90625 6.78125 20.515625 
Q 6.78125 27.484375 10.78125 32.3125 
Q 14.796875 37.15625 21.921875 38.8125 
z
M 18.3125 54.390625 
Q 18.3125 48.734375 21.84375 45.5625 
Q 25.390625 42.390625 31.78125 42.390625 
Q 38.140625 42.390625 41.71875 45.5625 
Q 45.3125 48.734375 45.3125 54.390625 
Q 45.3125 60.0625 41.71875 63.234375 
Q 38.140625 66.40625 31.78125 66.40625 
Q 25.390625 66.40625 21.84375 63.234375 
Q 18.3125 60.0625 18.3125 54.390625 
z
" id="DejaVuSans-56"/>
      </defs>
      <g transform="translate(471.837556 399.078438)scale(0.1 -0.1)">
       <use xlink:href="#DejaVuSans-56"/>
       <use x="63.623047" xlink:href="#DejaVuSans-48"/>
       <use x="127.246094" xlink:href="#DejaVuSans-48"/>
      </g>
     </g>
    </g>
    <g id="xtick_6">
     <g id="line2d_6">
      <g>
       <use style="stroke:#000000;stroke-width:0.8;" x="567.117542" xlink:href="#macca00fbd7" y="384.48"/>
      </g>
     </g>
     <g id="text_6">
      <!-- 1000 -->
      <defs>
       <path d="M 12.40625 8.296875 
L 28.515625 8.296875 
L 28.515625 63.921875 
L 10.984375 60.40625 
L 10.984375 69.390625 
L 28.421875 72.90625 
L 38.28125 72.90625 
L 38.28125 8.296875 
L 54.390625 8.296875 
L 54.390625 0 
L 12.40625 0 
z
" id="DejaVuSans-49"/>
      </defs>
      <g transform="translate(554.392542 399.078438)scale(0.1 -0.1)">
       <use xlink:href="#DejaVuSans-49"/>
       <use x="63.623047" xlink:href="#DejaVuSans-48"/>
       <use x="127.246094" xlink:href="#DejaVuSans-48"/>
       <use x="190.869141" xlink:href="#DejaVuSans-48"/>
      </g>
     </g>
    </g>
    <g id="xtick_7">
     <g id="line2d_7">
      <g>
       <use style="stroke:#000000;stroke-width:0.8;" x="652.853777" xlink:href="#macca00fbd7" y="384.48"/>
      </g>
     </g>
     <g id="text_7">
      <!-- 1200 -->
      <g transform="translate(640.128777 399.078438)scale(0.1 -0.1)">
       <use xlink:href="#DejaVuSans-49"/>
       <use x="63.623047" xlink:href="#DejaVuSans-50"/>
       <use x="127.246094" xlink:href="#DejaVuSans-48"/>
       <use x="190.869141" xlink:href="#DejaVuSans-48"/>
      </g>
     </g>
    </g>
    <g id="xtick_8">
     <g id="line2d_8">
      <g>
       <use style="stroke:#000000;stroke-width:0.8;" x="738.590013" xlink:href="#macca00fbd7" y="384.48"/>
      </g>
     </g>
     <g id="text_8">
      <!-- 1400 -->
      <g transform="translate(725.865013 399.078438)scale(0.1 -0.1)">
       <use xlink:href="#DejaVuSans-49"/>
       <use x="63.623047" xlink:href="#DejaVuSans-52"/>
       <use x="127.246094" xlink:href="#DejaVuSans-48"/>
       <use x="190.869141" xlink:href="#DejaVuSans-48"/>
      </g>
     </g>
    </g>
    <g id="text_9">
     <!-- Timestamp -->
     <defs>
      <path d="M -0.296875 72.90625 
L 61.375 72.90625 
L 61.375 64.59375 
L 35.5 64.59375 
L 35.5 0 
L 25.59375 0 
L 25.59375 64.59375 
L -0.296875 64.59375 
z
" id="DejaVuSans-84"/>
      <path d="M 9.421875 54.6875 
L 18.40625 54.6875 
L 18.40625 0 
L 9.421875 0 
z
M 9.421875 75.984375 
L 18.40625 75.984375 
L 18.40625 64.59375 
L 9.421875 64.59375 
z
" id="DejaVuSans-105"/>
      <path d="M 52 44.1875 
Q 55.375 50.25 60.0625 53.125 
Q 64.75 56 71.09375 56 
Q 79.640625 56 84.28125 50.015625 
Q 88.921875 44.046875 88.921875 33.015625 
L 88.921875 0 
L 79.890625 0 
L 79.890625 32.71875 
Q 79.890625 40.578125 77.09375 44.375 
Q 74.3125 48.1875 68.609375 48.1875 
Q 61.625 48.1875 57.5625 43.546875 
Q 53.515625 38.921875 53.515625 30.90625 
L 53.515625 0 
L 44.484375 0 
L 44.484375 32.71875 
Q 44.484375 40.625 41.703125 44.40625 
Q 38.921875 48.1875 33.109375 48.1875 
Q 26.21875 48.1875 22.15625 43.53125 
Q 18.109375 38.875 18.109375 30.90625 
L 18.109375 0 
L 9.078125 0 
L 9.078125 54.6875 
L 18.109375 54.6875 
L 18.109375 46.1875 
Q 21.1875 51.21875 25.484375 53.609375 
Q 29.78125 56 35.6875 56 
Q 41.65625 56 45.828125 52.96875 
Q 50 49.953125 52 44.1875 
z
" id="DejaVuSans-109"/>
      <path d="M 56.203125 29.59375 
L 56.203125 25.203125 
L 14.890625 25.203125 
Q 15.484375 15.921875 20.484375 11.0625 
Q 25.484375 6.203125 34.421875 6.203125 
Q 39.59375 6.203125 44.453125 7.46875 
Q 49.3125 8.734375 54.109375 11.28125 
L 54.109375 2.78125 
Q 49.265625 0.734375 44.1875 -0.34375 
Q 39.109375 -1.421875 33.890625 -1.421875 
Q 20.796875 -1.421875 13.15625 6.1875 
Q 5.515625 13.8125 5.515625 26.8125 
Q 5.515625 40.234375 12.765625 48.109375 
Q 20.015625 56 32.328125 56 
Q 43.359375 56 49.78125 48.890625 
Q 56.203125 41.796875 56.203125 29.59375 
z
M 47.21875 32.234375 
Q 47.125 39.59375 43.09375 43.984375 
Q 39.0625 48.390625 32.421875 48.390625 
Q 24.90625 48.390625 20.390625 44.140625 
Q 15.875 39.890625 15.1875 32.171875 
z
" id="DejaVuSans-101"/>
      <path d="M 44.28125 53.078125 
L 44.28125 44.578125 
Q 40.484375 46.53125 36.375 47.5 
Q 32.28125 48.484375 27.875 48.484375 
Q 21.1875 48.484375 17.84375 46.4375 
Q 14.5 44.390625 14.5 40.28125 
Q 14.5 37.15625 16.890625 35.375 
Q 19.28125 33.59375 26.515625 31.984375 
L 29.59375 31.296875 
Q 39.15625 29.25 43.1875 25.515625 
Q 47.21875 21.78125 47.21875 15.09375 
Q 47.21875 7.46875 41.1875 3.015625 
Q 35.15625 -1.421875 24.609375 -1.421875 
Q 20.21875 -1.421875 15.453125 -0.5625 
Q 10.6875 0.296875 5.421875 2 
L 5.421875 11.28125 
Q 10.40625 8.6875 15.234375 7.390625 
Q 20.0625 6.109375 24.8125 6.109375 
Q 31.15625 6.109375 34.5625 8.28125 
Q 37.984375 10.453125 37.984375 14.40625 
Q 37.984375 18.0625 35.515625 20.015625 
Q 33.0625 21.96875 24.703125 23.78125 
L 21.578125 24.515625 
Q 13.234375 26.265625 9.515625 29.90625 
Q 5.8125 33.546875 5.8125 39.890625 
Q 5.8125 47.609375 11.28125 51.796875 
Q 16.75 56 26.8125 56 
Q 31.78125 56 36.171875 55.265625 
Q 40.578125 54.546875 44.28125 53.078125 
z
" id="DejaVuSans-115"/>
      <path d="M 18.3125 70.21875 
L 18.3125 54.6875 
L 36.8125 54.6875 
L 36.8125 47.703125 
L 18.3125 47.703125 
L 18.3125 18.015625 
Q 18.3125 11.328125 20.140625 9.421875 
Q 21.96875 7.515625 27.59375 7.515625 
L 36.8125 7.515625 
L 36.8125 0 
L 27.59375 0 
Q 17.1875 0 13.234375 3.875 
Q 9.28125 7.765625 9.28125 18.015625 
L 9.28125 47.703125 
L 2.6875 47.703125 
L 2.6875 54.6875 
L 9.28125 54.6875 
L 9.28125 70.21875 
z
" id="DejaVuSans-116"/>
      <path d="M 34.28125 27.484375 
Q 23.390625 27.484375 19.1875 25 
Q 14.984375 22.515625 14.984375 16.5 
Q 14.984375 11.71875 18.140625 8.90625 
Q 21.296875 6.109375 26.703125 6.109375 
Q 34.1875 6.109375 38.703125 11.40625 
Q 43.21875 16.703125 43.21875 25.484375 
L 43.21875 27.484375 
z
M 52.203125 31.203125 
L 52.203125 0 
L 43.21875 0 
L 43.21875 8.296875 
Q 40.140625 3.328125 35.546875 0.953125 
Q 30.953125 -1.421875 24.3125 -1.421875 
Q 15.921875 -1.421875 10.953125 3.296875 
Q 6 8.015625 6 15.921875 
Q 6 25.140625 12.171875 29.828125 
Q 18.359375 34.515625 30.609375 34.515625 
L 43.21875 34.515625 
L 43.21875 35.40625 
Q 43.21875 41.609375 39.140625 45 
Q 35.0625 48.390625 27.6875 48.390625 
Q 23 48.390625 18.546875 47.265625 
Q 14.109375 46.140625 10.015625 43.890625 
L 10.015625 52.203125 
Q 14.9375 54.109375 19.578125 55.046875 
Q 24.21875 56 28.609375 56 
Q 40.484375 56 46.34375 49.84375 
Q 52.203125 43.703125 52.203125 31.203125 
z
" id="DejaVuSans-97"/>
      <path d="M 18.109375 8.203125 
L 18.109375 -20.796875 
L 9.078125 -20.796875 
L 9.078125 54.6875 
L 18.109375 54.6875 
L 18.109375 46.390625 
Q 20.953125 51.265625 25.265625 53.625 
Q 29.59375 56 35.59375 56 
Q 45.5625 56 51.78125 48.09375 
Q 58.015625 40.1875 58.015625 27.296875 
Q 58.015625 14.40625 51.78125 6.484375 
Q 45.5625 -1.421875 35.59375 -1.421875 
Q 29.59375 -1.421875 25.265625 0.953125 
Q 20.953125 3.328125 18.109375 8.203125 
z
M 48.6875 27.296875 
Q 48.6875 37.203125 44.609375 42.84375 
Q 40.53125 48.484375 33.40625 48.484375 
Q 26.265625 48.484375 22.1875 42.84375 
Q 18.109375 37.203125 18.109375 27.296875 
Q 18.109375 17.390625 22.1875 11.75 
Q 26.265625 6.109375 33.40625 6.109375 
Q 40.53125 6.109375 44.609375 11.75 
Q 48.6875 17.390625 48.6875 27.296875 
z
" id="DejaVuSans-112"/>
     </defs>
     <g transform="translate(414.739062 412.756563)scale(0.1 -0.1)">
      <use xlink:href="#DejaVuSans-84"/>
      <use x="61.037109" xlink:href="#DejaVuSans-105"/>
      <use x="88.820312" xlink:href="#DejaVuSans-109"/>
      <use x="186.232422" xlink:href="#DejaVuSans-101"/>
      <use x="247.755859" xlink:href="#DejaVuSans-115"/>
      <use x="299.855469" xlink:href="#DejaVuSans-116"/>
      <use x="339.064453" xlink:href="#DejaVuSans-97"/>
      <use x="400.34375" xlink:href="#DejaVuSans-109"/>
      <use x="497.755859" xlink:href="#DejaVuSans-112"/>
     </g>
    </g>
   </g>
   <g id="matplotlib.axis_2">
    <g id="ytick_1">
     <g id="line2d_9">
      <defs>
       <path d="M 0 0 
L -3.5 0 
" id="m6ee457f665" style="stroke:#000000;stroke-width:0.8;"/>
      </defs>
      <g>
       <use style="stroke:#000000;stroke-width:0.8;" x="108" xlink:href="#m6ee457f665" y="378.784473"/>
      </g>
     </g>
     <g id="text_10">
      <!-- −1500 -->
      <defs>
       <path d="M 10.59375 35.5 
L 73.1875 35.5 
L 73.1875 27.203125 
L 10.59375 27.203125 
z
" id="DejaVuSans-8722"/>
       <path d="M 10.796875 72.90625 
L 49.515625 72.90625 
L 49.515625 64.59375 
L 19.828125 64.59375 
L 19.828125 46.734375 
Q 21.96875 47.46875 24.109375 47.828125 
Q 26.265625 48.1875 28.421875 48.1875 
Q 40.625 48.1875 47.75 41.5 
Q 54.890625 34.8125 54.890625 23.390625 
Q 54.890625 11.625 47.5625 5.09375 
Q 40.234375 -1.421875 26.90625 -1.421875 
Q 22.3125 -1.421875 17.546875 -0.640625 
Q 12.796875 0.140625 7.71875 1.703125 
L 7.71875 11.625 
Q 12.109375 9.234375 16.796875 8.0625 
Q 21.484375 6.890625 26.703125 6.890625 
Q 35.15625 6.890625 40.078125 11.328125 
Q 45.015625 15.765625 45.015625 23.390625 
Q 45.015625 31 40.078125 35.4375 
Q 35.15625 39.890625 26.703125 39.890625 
Q 22.75 39.890625 18.8125 39.015625 
Q 14.890625 38.140625 10.796875 36.28125 
z
" id="DejaVuSans-53"/>
      </defs>
      <g transform="translate(67.170312 382.583692)scale(0.1 -0.1)">
       <use xlink:href="#DejaVuSans-8722"/>
       <use x="83.789062" xlink:href="#DejaVuSans-49"/>
       <use x="147.412109" xlink:href="#DejaVuSans-53"/>
       <use x="211.035156" xlink:href="#DejaVuSans-48"/>
       <use x="274.658203" xlink:href="#DejaVuSans-48"/>
      </g>
     </g>
    </g>
    <g id="ytick_2">
     <g id="line2d_10">
      <g>
       <use style="stroke:#000000;stroke-width:0.8;" x="108" xlink:href="#m6ee457f665" y="333.217769"/>
      </g>
     </g>
     <g id="text_11">
      <!-- −1000 -->
      <g transform="translate(67.170312 337.016988)scale(0.1 -0.1)">
       <use xlink:href="#DejaVuSans-8722"/>
       <use x="83.789062" xlink:href="#DejaVuSans-49"/>
       <use x="147.412109" xlink:href="#DejaVuSans-48"/>
       <use x="211.035156" xlink:href="#DejaVuSans-48"/>
       <use x="274.658203" xlink:href="#DejaVuSans-48"/>
      </g>
     </g>
    </g>
    <g id="ytick_3">
     <g id="line2d_11">
      <g>
       <use style="stroke:#000000;stroke-width:0.8;" x="108" xlink:href="#m6ee457f665" y="287.651065"/>
      </g>
     </g>
     <g id="text_12">
      <!-- −500 -->
      <g transform="translate(73.532813 291.450284)scale(0.1 -0.1)">
       <use xlink:href="#DejaVuSans-8722"/>
       <use x="83.789062" xlink:href="#DejaVuSans-53"/>
       <use x="147.412109" xlink:href="#DejaVuSans-48"/>
       <use x="211.035156" xlink:href="#DejaVuSans-48"/>
      </g>
     </g>
    </g>
    <g id="ytick_4">
     <g id="line2d_12">
      <g>
       <use style="stroke:#000000;stroke-width:0.8;" x="108" xlink:href="#m6ee457f665" y="242.084361"/>
      </g>
     </g>
     <g id="text_13">
      <!-- 0 -->
      <g transform="translate(94.6375 245.88358)scale(0.1 -0.1)">
       <use xlink:href="#DejaVuSans-48"/>
      </g>
     </g>
    </g>
    <g id="ytick_5">
     <g id="line2d_13">
      <g>
       <use style="stroke:#000000;stroke-width:0.8;" x="108" xlink:href="#m6ee457f665" y="196.517657"/>
      </g>
     </g>
     <g id="text_14">
      <!-- 500 -->
      <g transform="translate(81.9125 200.316876)scale(0.1 -0.1)">
       <use xlink:href="#DejaVuSans-53"/>
       <use x="63.623047" xlink:href="#DejaVuSans-48"/>
       <use x="127.246094" xlink:href="#DejaVuSans-48"/>
      </g>
     </g>
    </g>
    <g id="ytick_6">
     <g id="line2d_14">
      <g>
       <use style="stroke:#000000;stroke-width:0.8;" x="108" xlink:href="#m6ee457f665" y="150.950953"/>
      </g>
     </g>
     <g id="text_15">
      <!-- 1000 -->
      <g transform="translate(75.55 154.750172)scale(0.1 -0.1)">
       <use xlink:href="#DejaVuSans-49"/>
       <use x="63.623047" xlink:href="#DejaVuSans-48"/>
       <use x="127.246094" xlink:href="#DejaVuSans-48"/>
       <use x="190.869141" xlink:href="#DejaVuSans-48"/>
      </g>
     </g>
    </g>
    <g id="ytick_7">
     <g id="line2d_15">
      <g>
       <use style="stroke:#000000;stroke-width:0.8;" x="108" xlink:href="#m6ee457f665" y="105.384249"/>
      </g>
     </g>
     <g id="text_16">
      <!-- 1500 -->
      <g transform="translate(75.55 109.183468)scale(0.1 -0.1)">
       <use xlink:href="#DejaVuSans-49"/>
       <use x="63.623047" xlink:href="#DejaVuSans-53"/>
       <use x="127.246094" xlink:href="#DejaVuSans-48"/>
       <use x="190.869141" xlink:href="#DejaVuSans-48"/>
      </g>
     </g>
    </g>
    <g id="ytick_8">
     <g id="line2d_16">
      <g>
       <use style="stroke:#000000;stroke-width:0.8;" x="108" xlink:href="#m6ee457f665" y="59.817546"/>
      </g>
     </g>
     <g id="text_17">
      <!-- 2000 -->
      <g transform="translate(75.55 63.616764)scale(0.1 -0.1)">
       <use xlink:href="#DejaVuSans-50"/>
       <use x="63.623047" xlink:href="#DejaVuSans-48"/>
       <use x="127.246094" xlink:href="#DejaVuSans-48"/>
       <use x="190.869141" xlink:href="#DejaVuSans-48"/>
      </g>
     </g>
    </g>
    <g id="text_18">
     <!-- Value -->
     <defs>
      <path d="M 28.609375 0 
L 0.78125 72.90625 
L 11.078125 72.90625 
L 34.1875 11.53125 
L 57.328125 72.90625 
L 67.578125 72.90625 
L 39.796875 0 
z
" id="DejaVuSans-86"/>
      <path d="M 9.421875 75.984375 
L 18.40625 75.984375 
L 18.40625 0 
L 9.421875 0 
z
" id="DejaVuSans-108"/>
      <path d="M 8.5 21.578125 
L 8.5 54.6875 
L 17.484375 54.6875 
L 17.484375 21.921875 
Q 17.484375 14.15625 20.5 10.265625 
Q 23.53125 6.390625 29.59375 6.390625 
Q 36.859375 6.390625 41.078125 11.03125 
Q 45.3125 15.671875 45.3125 23.6875 
L 45.3125 54.6875 
L 54.296875 54.6875 
L 54.296875 0 
L 45.3125 0 
L 45.3125 8.40625 
Q 42.046875 3.421875 37.71875 1 
Q 33.40625 -1.421875 27.6875 -1.421875 
Q 18.265625 -1.421875 13.375 4.4375 
Q 8.5 10.296875 8.5 21.578125 
z
M 31.109375 56 
z
" id="DejaVuSans-117"/>
     </defs>
     <g transform="translate(61.090625 232.273281)rotate(-90)scale(0.1 -0.1)">
      <use xlink:href="#DejaVuSans-86"/>
      <use x="68.298828" xlink:href="#DejaVuSans-97"/>
      <use x="129.578125" xlink:href="#DejaVuSans-108"/>
      <use x="157.361328" xlink:href="#DejaVuSans-117"/>
      <use x="220.740234" xlink:href="#DejaVuSans-101"/>
     </g>
    </g>
   </g>
   <g id="line2d_17">
    <path clip-path="url(#p2b288c1110)" d="M 138.436364 237.332021 
L 138.865045 239.849762 
L 139.293726 230.244222 
L 139.722407 227.045531 
L 140.151088 226.844732 
L 140.57977 230.751638 
L 141.865813 214.910959 
L 142.294494 202.569865 
L 143.151857 207.937149 
L 143.580538 205.975994 
L 144.009219 199.533672 
L 144.866581 193.611806 
L 145.295262 187.994033 
L 145.723944 189.168404 
L 146.152625 181.146379 
L 146.581306 184.378205 
L 147.438668 172.436274 
L 147.86735 170.464648 
L 148.296031 165.124064 
L 148.724712 165.559869 
L 149.582074 155.887133 
L 150.010755 159.909553 
L 150.439437 159.570517 
L 150.868118 152.099741 
L 151.72548 149.499648 
L 152.154161 146.786701 
L 152.582843 145.3584 
L 153.011524 138.049287 
L 153.440205 134.364373 
L 153.868886 132.937007 
L 154.297567 136.298219 
L 154.726248 128.190436 
L 155.15493 132.061151 
L 155.583611 122.726429 
L 156.440973 127.778115 
L 157.298335 127.559595 
L 157.727017 125.863119 
L 158.155698 126.489065 
L 158.584379 115.173628 
L 159.01306 115.320299 
L 159.441741 118.298848 
L 159.870423 115.561917 
L 160.299104 117.158032 
L 160.727785 105.910387 
L 161.156466 117.374511 
L 161.585147 114.066796 
L 162.44251 110.737223 
L 162.871191 113.419324 
L 163.299872 120.900682 
L 163.728553 117.219307 
L 164.157234 111.154095 
L 164.585915 112.62227 
L 165.014597 116.272046 
L 165.443278 113.456125 
L 165.871959 116.423917 
L 166.30064 112.918248 
L 166.729321 119.681788 
L 167.158003 113.611562 
L 167.586684 114.760627 
L 168.015365 116.24225 
L 168.444046 117.298879 
L 168.872727 117.379407 
L 169.301408 121.821959 
L 169.73009 120.982984 
L 170.158771 119.280878 
L 170.587452 118.956389 
L 171.016133 123.922748 
L 171.444814 126.370839 
L 172.302177 134.48315 
L 172.730858 133.79755 
L 173.159539 127.917516 
L 173.58822 131.577619 
L 174.016901 137.216163 
L 174.874264 142.04405 
L 175.302945 138.899757 
L 175.731626 145.869883 
L 176.160307 142.427317 
L 176.588988 147.049898 
L 177.01767 147.020282 
L 177.446351 157.608426 
L 177.875032 156.844291 
L 178.303713 162.754848 
L 178.732394 159.879543 
L 179.589757 168.610157 
L 180.018438 164.916106 
L 180.447119 172.349428 
L 180.8758 172.376604 
L 181.304481 176.11793 
L 181.733163 184.922947 
L 182.161844 187.34333 
L 182.590525 187.926595 
L 183.019206 195.418835 
L 183.447887 192.168231 
L 183.876569 202.267715 
L 184.30525 194.596829 
L 184.733931 205.755782 
L 185.162612 200.853078 
L 185.591293 211.926448 
L 186.019974 217.298827 
L 186.448656 216.869289 
L 186.877337 220.174743 
L 187.306018 229.881317 
L 187.734699 223.002342 
L 188.16338 234.46723 
L 188.592061 232.379656 
L 189.020743 235.137871 
L 189.878105 244.136486 
L 190.306786 246.302189 
L 190.735467 254.375815 
L 191.164149 256.716966 
L 191.59283 261.199329 
L 192.021511 254.442332 
L 192.450192 258.042428 
L 193.307554 274.77419 
L 193.736236 273.412581 
L 194.164917 270.956401 
L 194.593598 281.560792 
L 195.022279 279.950939 
L 195.45096 289.688714 
L 195.879641 286.556481 
L 196.308323 295.750351 
L 196.737004 299.789206 
L 197.165685 301.729805 
L 198.023047 307.361643 
L 198.451729 304.022086 
L 199.737772 319.048896 
L 200.166453 321.410682 
L 200.595134 323.052361 
L 201.023816 326.877704 
L 201.452497 326.818593 
L 201.881178 325.769455 
L 202.309859 334.267308 
L 202.73854 326.621839 
L 203.167222 339.20746 
L 203.595903 336.791436 
L 204.024584 329.629692 
L 204.881946 343.316861 
L 205.310627 347.443899 
L 205.739309 343.79093 
L 206.596671 350.653873 
L 207.025352 349.589854 
L 207.454033 354.048027 
L 207.882714 343.650188 
L 208.740077 353.148247 
L 209.168758 354.508737 
L 209.597439 360.229784 
L 210.02612 355.833458 
L 210.454802 361.301025 
L 210.883483 364.53337 
L 211.312164 354.411 
L 211.740845 365.511032 
L 212.169526 363.643135 
L 213.026889 366.823225 
L 213.45557 361.282592 
L 213.884251 369.36 
L 214.312932 364.494042 
L 214.741613 365.836111 
L 215.170294 368.761323 
L 215.598976 363.617008 
L 216.027657 364.661025 
L 216.456338 364.871516 
L 216.885019 358.51112 
L 217.3137 359.617081 
L 217.742382 361.285194 
L 218.171063 359.615135 
L 218.599744 362.119808 
L 219.028425 359.195101 
L 219.457106 353.316027 
L 219.885787 356.402572 
L 220.314469 354.556175 
L 220.74315 346.331727 
L 221.171831 355.179671 
L 221.600512 347.531104 
L 222.029193 342.920288 
L 222.457875 351.995517 
L 222.886556 346.28302 
L 223.315237 346.057284 
L 223.743918 344.608939 
L 224.172599 344.781137 
L 224.60128 342.247048 
L 225.029962 332.106911 
L 225.458643 332.511063 
L 225.887324 329.641702 
L 226.316005 324.462102 
L 226.744686 329.320813 
L 227.173367 322.513406 
L 227.602049 323.336224 
L 228.03073 322.46625 
L 228.459411 314.555593 
L 228.888092 315.242239 
L 229.316773 316.671897 
L 229.745455 310.832107 
L 230.174136 301.554459 
L 230.602817 299.910871 
L 231.031498 306.837655 
L 231.460179 298.089272 
L 231.88886 292.285797 
L 232.317542 298.488324 
L 232.746223 284.081098 
L 233.174904 288.255138 
L 233.603585 282.040027 
L 234.032266 280.622269 
L 234.460948 270.792559 
L 234.889629 278.949824 
L 235.31831 270.704059 
L 235.746991 270.882603 
L 236.604353 251.87438 
L 237.033035 262.503438 
L 237.461716 253.699916 
L 237.890397 250.630927 
L 238.319078 240.920731 
L 238.747759 246.940974 
L 239.605122 230.097914 
L 240.033803 233.992265 
L 240.462484 232.236032 
L 241.319846 220.897748 
L 241.748528 223.154998 
L 242.177209 209.941803 
L 242.60589 212.574223 
L 243.034571 220.084448 
L 243.463252 210.019742 
L 243.891933 196.772622 
L 244.320615 202.899216 
L 244.749296 196.347203 
L 245.177977 192.553847 
L 245.606658 195.453487 
L 246.035339 184.458274 
L 246.46402 181.556209 
L 246.892702 173.004094 
L 247.321383 173.052591 
L 247.750064 173.564419 
L 248.178745 171.172586 
L 248.607426 165.637956 
L 249.036108 168.30286 
L 249.464789 161.725898 
L 250.322151 154.481499 
L 250.750832 158.065771 
L 251.179513 145.708717 
L 251.608195 145.952551 
L 252.036876 136.671159 
L 252.465557 150.625288 
L 252.894238 143.354592 
L 253.322919 145.209314 
L 253.751601 138.094997 
L 254.180282 133.149993 
L 254.608963 125.803688 
L 255.037644 131.749527 
L 255.466325 132.571411 
L 256.323688 121.995483 
L 256.752369 121.862065 
L 257.18105 115.919018 
L 258.038412 123.848463 
L 258.467093 112.678168 
L 258.895775 119.018138 
L 259.324456 111.262324 
L 260.181818 109.856959 
L 260.610499 103.758967 
L 261.039181 110.019539 
L 261.467862 113.295653 
L 261.896543 107.37141 
L 262.325224 107.786717 
L 263.182586 99.700603 
L 263.611268 112.142999 
L 264.039949 105.852709 
L 264.46863 104.54757 
L 264.897311 102.6033 
L 265.325992 107.197602 
L 265.754673 103.161201 
L 266.183355 103.311883 
L 266.612036 104.989494 
L 267.040717 105.704064 
L 267.469398 100.143895 
L 267.898079 103.580531 
L 268.326761 99.351543 
L 268.755442 108.318252 
L 269.184123 112.702356 
L 269.612804 110.357069 
L 270.041485 109.427694 
L 270.898848 113.41382 
L 271.327529 118.937096 
L 271.75621 117.275335 
L 272.184891 119.727591 
L 272.613572 115.896513 
L 273.042254 117.257891 
L 273.470935 114.370731 
L 273.899616 123.010701 
L 274.328297 119.969094 
L 275.185659 132.866514 
L 275.614341 127.540124 
L 276.043022 133.134604 
L 276.471703 136.411875 
L 276.900384 138.290043 
L 277.329065 133.628768 
L 277.757746 134.12706 
L 278.186428 138.605448 
L 279.04379 152.183106 
L 279.472471 149.00744 
L 279.901152 148.285581 
L 280.329834 151.979198 
L 280.758515 156.648616 
L 281.187196 159.760749 
L 281.615877 166.56005 
L 282.044558 164.614065 
L 282.473239 168.973802 
L 282.901921 171.881727 
L 283.330602 175.885098 
L 283.759283 182.491355 
L 284.187964 183.450284 
L 284.616645 181.479057 
L 285.045327 187.334562 
L 285.902689 194.542352 
L 286.33137 191.835975 
L 286.760051 200.246818 
L 287.188732 202.652707 
L 287.617414 206.313148 
L 288.046095 213.7733 
L 288.474776 213.740324 
L 288.903457 212.013094 
L 289.332138 218.449066 
L 289.760819 228.932649 
L 290.189501 226.569326 
L 290.618182 228.119793 
L 291.046863 233.845372 
L 291.475544 233.991934 
L 292.332907 247.530137 
L 292.761588 244.206104 
L 293.190269 249.268001 
L 293.61895 251.521582 
L 294.047631 252.949939 
L 294.476312 259.369784 
L 294.904994 269.443279 
L 295.333675 266.125202 
L 295.762356 275.89281 
L 296.191037 274.92786 
L 296.619718 272.518817 
L 297.048399 285.617292 
L 297.477081 281.861919 
L 297.905762 287.567446 
L 298.334443 289.413359 
L 298.763124 287.593811 
L 299.191805 292.447457 
L 299.620487 292.179226 
L 300.049168 304.066765 
L 300.477849 305.848563 
L 300.90653 308.136477 
L 301.335211 308.462137 
L 301.763892 314.327769 
L 302.192574 316.197534 
L 302.621255 319.265982 
L 303.049936 315.796231 
L 303.478617 318.370713 
L 303.907298 319.299762 
L 304.33598 315.015935 
L 304.764661 327.803604 
L 305.193342 326.670742 
L 305.622023 319.055033 
L 306.050704 331.122798 
L 306.908067 340.544431 
L 307.336748 340.686472 
L 307.765429 346.609817 
L 308.19411 347.752565 
L 308.622791 344.888372 
L 309.051472 343.59911 
L 309.908835 348.837039 
L 310.337516 355.34608 
L 310.766197 347.16995 
L 311.194878 348.914673 
L 311.62356 345.504637 
L 312.052241 359.307122 
L 312.480922 354.182369 
L 312.909603 347.221957 
L 313.338284 353.890029 
L 313.766965 349.627087 
L 314.195647 353.038974 
L 314.624328 354.970392 
L 315.053009 352.270694 
L 315.48169 362.531843 
L 315.910371 357.099661 
L 316.767734 350.602066 
L 317.625096 354.313562 
L 318.053777 350.353555 
L 318.91114 357.633651 
L 319.339821 352.909089 
L 319.768502 352.650007 
L 320.197183 349.791646 
L 320.625864 351.646344 
L 321.054545 346.74648 
L 321.483227 340.361368 
L 321.911908 353.569158 
L 322.340589 343.382275 
L 322.76927 346.890781 
L 323.197951 345.084572 
L 323.626633 347.982306 
L 324.055314 340.547292 
L 324.483995 336.631569 
L 324.912676 341.440184 
L 325.341357 327.013179 
L 325.770038 335.168722 
L 326.19872 338.845394 
L 327.056082 317.327181 
L 327.484763 317.937094 
L 327.913444 316.847384 
L 328.342125 316.324909 
L 328.770807 315.136139 
L 329.199488 316.021577 
L 329.628169 317.481535 
L 330.05685 317.556871 
L 330.485531 311.000346 
L 330.914213 310.546852 
L 331.342894 304.812169 
L 331.771575 295.581871 
L 332.200256 298.742206 
L 332.628937 298.269458 
L 333.057618 293.192107 
L 333.4863 292.973313 
L 333.914981 280.502411 
L 334.343662 286.029153 
L 334.772343 277.835785 
L 336.058387 260.6339 
L 336.487068 271.032743 
L 336.915749 257.719789 
L 337.34443 259.948093 
L 337.773111 255.215543 
L 338.201793 245.784952 
L 338.630474 250.096873 
L 339.059155 241.909956 
L 339.487836 241.405287 
L 339.916517 239.48392 
L 340.345198 228.97091 
L 340.77388 231.664411 
L 341.202561 228.1996 
L 341.631242 221.383144 
L 342.059923 217.146704 
L 342.488604 220.601509 
L 342.917286 209.457545 
L 343.345967 212.718886 
L 343.774648 210.26647 
L 344.203329 212.296778 
L 344.63201 200.76332 
L 345.060691 195.694164 
L 345.489373 196.20123 
L 345.918054 185.618637 
L 346.346735 184.669984 
L 346.775416 183.368538 
L 347.204097 173.771724 
L 347.632778 182.956184 
L 348.06146 173.125496 
L 348.490141 167.919539 
L 348.918822 171.723782 
L 349.347503 165.930305 
L 349.776184 162.187907 
L 350.204866 160.695422 
L 350.633547 155.87263 
L 351.062228 153.860259 
L 351.490909 153.588518 
L 351.91959 144.890089 
L 352.348271 147.197494 
L 352.776953 144.748257 
L 353.634315 130.979656 
L 354.062996 141.439973 
L 354.491677 131.728279 
L 354.920359 128.657797 
L 355.34904 127.774613 
L 355.777721 116.127333 
L 356.206402 118.876492 
L 356.635083 123.522551 
L 357.063764 121.885948 
L 357.492446 114.234124 
L 357.921127 112.059876 
L 358.349808 111.387119 
L 358.778489 114.66384 
L 359.20717 108.799108 
L 359.635851 109.58965 
L 360.064533 100.961142 
L 360.493214 109.720799 
L 360.921895 105.141007 
L 361.350576 107.91376 
L 361.779257 106.659517 
L 362.207939 101.965526 
L 362.63662 101.930978 
L 363.065301 102.087873 
L 363.493982 93.685986 
L 363.922663 98.490307 
L 364.351344 93.319332 
L 364.780026 101.431279 
L 365.208707 98.290354 
L 365.637388 102.31551 
L 366.066069 91.472786 
L 366.49475 100.400198 
L 366.923431 91.191554 
L 367.352113 100.460169 
L 367.780794 97.256091 
L 368.209475 107.882024 
L 368.638156 98.387224 
L 369.066837 97.824678 
L 369.495519 105.554302 
L 369.9242 100.051602 
L 370.352881 100.952045 
L 370.781562 107.298704 
L 371.210243 97.922957 
L 371.638924 106.754123 
L 372.067606 104.068064 
L 372.496287 102.254139 
L 372.924968 107.522587 
L 373.353649 104.058134 
L 373.78233 107.720093 
L 374.211012 104.085133 
L 374.639693 113.646501 
L 375.068374 117.11084 
L 375.497055 113.115355 
L 375.925736 116.942688 
L 376.354417 119.152375 
L 376.783099 118.102144 
L 377.21178 120.127708 
L 377.640461 123.922688 
L 378.069142 123.744457 
L 379.783867 130.445103 
L 380.212548 138.239964 
L 380.641229 141.884678 
L 381.06991 147.394664 
L 381.498592 146.322422 
L 381.927273 151.577867 
L 382.355954 149.311227 
L 383.213316 158.547631 
L 383.641997 162.995685 
L 384.070679 162.042307 
L 384.928041 172.948786 
L 385.356722 176.559947 
L 385.785403 170.259277 
L 386.214085 180.021814 
L 386.642766 183.488127 
L 387.071447 184.909041 
L 387.500128 189.174156 
L 388.35749 194.678068 
L 389.214853 204.164806 
L 389.643534 200.715392 
L 390.072215 207.114439 
L 390.500896 215.435679 
L 390.929577 210.370764 
L 391.358259 223.231868 
L 391.78694 221.582733 
L 392.215621 224.511532 
L 392.644302 230.2963 
L 393.072983 229.064908 
L 393.501665 239.108885 
L 393.930346 231.143477 
L 394.359027 238.773432 
L 394.787708 237.108034 
L 395.216389 244.35072 
L 395.64507 256.344987 
L 396.073752 250.879755 
L 396.502433 254.861799 
L 396.931114 255.918639 
L 397.359795 258.924792 
L 397.788476 264.388066 
L 398.217157 266.868561 
L 398.645839 274.491903 
L 399.07452 269.462661 
L 399.503201 284.994211 
L 399.931882 288.411213 
L 400.360563 289.149958 
L 400.789245 283.819541 
L 401.217926 294.206382 
L 401.646607 294.303093 
L 402.075288 295.308982 
L 402.503969 300.124214 
L 402.93265 308.749724 
L 403.361332 299.185427 
L 403.790013 306.365198 
L 404.218694 306.566623 
L 405.076056 315.28445 
L 405.504738 315.202327 
L 405.933419 314.751741 
L 406.3621 325.574179 
L 406.790781 326.34571 
L 407.219462 319.164479 
L 407.648143 329.344844 
L 408.076825 327.762137 
L 408.505506 334.940099 
L 408.934187 328.741382 
L 409.362868 330.721655 
L 409.791549 335.502817 
L 410.22023 330.156945 
L 410.648912 339.261896 
L 411.077593 339.75171 
L 411.506274 335.770445 
L 411.934955 339.312908 
L 412.363636 338.899577 
L 412.792318 337.574781 
L 413.220999 343.026264 
L 413.64968 342.30829 
L 414.078361 347.840278 
L 414.507042 344.331258 
L 414.935723 347.755509 
L 415.364405 342.277025 
L 415.793086 347.5782 
L 416.221767 347.553838 
L 416.650448 347.856028 
L 417.079129 355.531294 
L 417.50781 351.635441 
L 417.936492 340.494607 
L 418.365173 345.009404 
L 418.793854 347.228135 
L 419.222535 347.606126 
L 419.651216 347.168172 
L 420.079898 344.381254 
L 420.508579 229.303434 
L 420.93726 229.303434 
L 421.365941 344.396349 
L 421.794622 347.668144 
L 422.651985 339.027629 
L 423.080666 345.183868 
L 423.509347 334.732699 
L 423.938028 332.819305 
L 424.366709 335.859343 
L 424.795391 333.333639 
L 425.224072 327.75849 
L 425.652753 333.309496 
L 426.081434 332.907343 
L 426.510115 331.911327 
L 427.367478 326.43764 
L 427.796159 320.365553 
L 428.22484 323.184293 
L 429.082202 314.678832 
L 429.510883 317.7675 
L 429.939565 305.280611 
L 430.368246 303.262659 
L 430.796927 312.397237 
L 431.225608 304.904536 
L 431.654289 301.874067 
L 432.082971 297.174279 
L 432.511652 299.459975 
L 433.797695 282.873767 
L 434.226376 282.789411 
L 434.655058 279.410835 
L 435.083739 280.067715 
L 435.51242 276.24391 
L 435.941101 267.14634 
L 436.369782 268.10638 
L 436.798464 267.72684 
L 437.227145 255.864874 
L 437.655826 260.921112 
L 438.084507 251.250003 
L 438.513188 250.010579 
L 438.941869 247.451653 
L 439.370551 246.695313 
L 439.799232 238.868684 
L 440.227913 244.94523 
L 441.513956 228.040622 
L 441.942638 224.829359 
L 442.371319 222.866928 
L 442.8 219.468152 
L 443.228681 213.19824 
L 443.657362 214.010345 
L 444.086044 216.305812 
L 444.514725 204.701251 
L 444.943406 198.094928 
L 445.372087 194.272248 
L 445.800768 195.654643 
L 446.229449 191.439011 
L 446.658131 182.227355 
L 447.086812 186.967882 
L 447.944174 176.196457 
L 448.372855 177.184438 
L 448.801536 173.302013 
L 449.230218 166.276323 
L 449.658899 167.961076 
L 450.08758 160.453995 
L 450.516261 163.571969 
L 450.944942 163.616677 
L 451.373624 150.783572 
L 451.802305 150.664445 
L 452.230986 148.909699 
L 452.659667 146.400039 
L 453.088348 137.960462 
L 453.517029 142.99486 
L 453.945711 132.679318 
L 454.374392 137.531682 
L 454.803073 131.607319 
L 455.231754 129.398209 
L 455.660435 124.018549 
L 456.089117 130.430438 
L 456.517798 122.447279 
L 456.946479 119.770985 
L 457.803841 110.79647 
L 458.232522 116.635574 
L 458.661204 109.793509 
L 459.089885 107.465658 
L 459.518566 102.916059 
L 459.947247 105.947521 
L 460.375928 99.686612 
L 460.804609 102.083555 
L 461.233291 102.026541 
L 461.661972 97.608049 
L 462.090653 97.144605 
L 462.519334 95.530831 
L 462.948015 92.062199 
L 463.376697 95.819347 
L 464.234059 93.638981 
L 464.66274 88.064861 
L 465.091421 84.066945 
L 465.520102 87.120723 
L 465.948784 86.303407 
L 466.377465 83.122106 
L 466.806146 91.50485 
L 467.234827 94.589615 
L 467.663508 93.061623 
L 468.09219 87.868906 
L 468.520871 88.728874 
L 468.949552 99.050598 
L 469.378233 84.650168 
L 469.806914 90.166082 
L 470.235595 89.912194 
L 470.664277 88.625969 
L 471.092958 95.571223 
L 471.521639 93.941047 
L 471.95032 88.147335 
L 472.379001 85.436662 
L 472.807682 91.123166 
L 473.236364 91.904149 
L 473.665045 102.101479 
L 474.093726 92.926258 
L 474.522407 93.887078 
L 474.951088 100.716675 
L 475.37977 100.078224 
L 475.808451 98.800732 
L 476.237132 95.759922 
L 476.665813 109.579786 
L 477.094494 103.294149 
L 477.523175 103.779289 
L 478.809219 115.290301 
L 479.2379 116.184058 
L 479.666581 115.701181 
L 480.095262 125.189116 
L 480.523944 128.009226 
L 480.952625 128.446095 
L 481.381306 133.5176 
L 481.809987 136.904589 
L 482.238668 128.043721 
L 482.66735 139.22146 
L 483.096031 140.314085 
L 483.524712 145.367048 
L 483.953393 141.961488 
L 484.382074 144.705175 
L 484.810755 145.086928 
L 485.239437 154.148171 
L 485.668118 150.723731 
L 486.52548 166.219413 
L 486.954161 160.120063 
L 487.382843 161.861858 
L 487.811524 167.647585 
L 488.668886 182.016324 
L 489.097567 180.066669 
L 489.526248 188.47386 
L 489.95493 193.484678 
L 490.383611 187.356933 
L 490.812292 194.403035 
L 491.669654 202.328727 
L 492.098335 198.345558 
L 492.527017 212.527692 
L 492.955698 211.616154 
L 493.384379 211.192761 
L 493.81306 215.577271 
L 494.241741 222.314212 
L 494.670423 223.594147 
L 495.099104 227.423986 
L 495.527785 223.748357 
L 495.956466 232.976141 
L 496.385147 239.114696 
L 496.813828 235.527006 
L 497.24251 247.989288 
L 497.671191 244.478656 
L 498.099872 245.121259 
L 498.528553 257.281973 
L 498.957234 254.893588 
L 499.385915 255.701068 
L 499.814597 258.195752 
L 500.671959 261.333783 
L 501.10064 270.76064 
L 501.529321 277.641535 
L 501.958003 280.228721 
L 502.386684 277.683301 
L 502.815365 288.990629 
L 503.244046 284.028371 
L 503.672727 292.945904 
L 504.101408 294.767823 
L 504.53009 292.658804 
L 504.958771 298.70829 
L 505.387452 302.110965 
L 505.816133 303.945637 
L 506.244814 298.561222 
L 506.673496 311.302643 
L 507.102177 308.030281 
L 507.530858 312.37327 
L 507.959539 301.685935 
L 508.38822 315.395422 
L 508.816901 309.989222 
L 509.245583 315.468865 
L 509.674264 326.383593 
L 510.102945 320.363386 
L 510.531626 321.369785 
L 510.960307 325.47988 
L 511.388988 334.39203 
L 511.81767 320.153531 
L 512.246351 330.607284 
L 512.675032 336.42169 
L 513.103713 327.718311 
L 513.532394 334.418565 
L 513.961076 333.605422 
L 514.818438 343.01173 
L 515.247119 337.714378 
L 515.6758 334.963067 
L 516.104481 338.425194 
L 516.533163 338.762457 
L 517.390525 338.116656 
L 517.819206 340.819426 
L 518.247887 341.121499 
L 518.676569 342.786218 
L 519.10525 345.175158 
L 519.533931 345.275457 
L 519.962612 342.613545 
L 520.391293 342.146945 
L 520.819974 340.441196 
L 521.248656 229.83326 
L 521.677337 229.83326 
L 522.106018 331.670583 
L 522.534699 335.132118 
L 522.96338 334.710876 
L 523.392061 334.85613 
L 523.820743 337.18482 
L 525.106786 329.890287 
L 525.535467 329.001719 
L 525.964149 320.693239 
L 526.39283 327.203289 
L 526.821511 327.1394 
L 527.250192 328.79513 
L 527.678873 324.662936 
L 528.107554 309.39756 
L 528.536236 316.062578 
L 528.964917 311.824501 
L 529.393598 312.394939 
L 529.822279 310.386414 
L 530.25096 309.480838 
L 531.108323 298.880415 
L 531.537004 298.518177 
L 531.965685 300.260917 
L 532.394366 296.517711 
L 532.823047 299.752394 
L 533.251729 287.447718 
L 533.68041 282.232398 
L 534.109091 291.908698 
L 534.537772 283.530523 
L 534.966453 283.901028 
L 535.395134 282.186939 
L 535.823816 270.772687 
L 536.252497 267.415221 
L 536.681178 261.155683 
L 537.109859 263.796898 
L 537.53854 269.363142 
L 537.967222 257.57514 
L 538.395903 258.811818 
L 539.253265 248.854057 
L 539.681946 246.222491 
L 540.110627 240.220183 
L 540.539309 242.315588 
L 540.96799 239.056905 
L 541.825352 226.511444 
L 542.254033 227.867839 
L 543.111396 223.368259 
L 543.968758 213.819622 
L 544.397439 213.695646 
L 544.82612 203.337236 
L 545.254802 210.18767 
L 545.683483 199.668617 
L 546.112164 201.088368 
L 546.540845 187.752791 
L 546.969526 190.826906 
L 547.398207 181.335256 
L 547.826889 183.772464 
L 548.25557 179.671581 
L 548.684251 179.384613 
L 549.112932 183.806723 
L 549.541613 162.88407 
L 549.970294 171.081983 
L 550.398976 153.029826 
L 550.827657 158.236573 
L 551.256338 158.44062 
L 551.685019 150.628235 
L 552.1137 146.900961 
L 552.542382 148.036864 
L 552.971063 143.714873 
L 553.399744 134.420829 
L 553.828425 143.692632 
L 554.685787 129.892319 
L 555.114469 135.43246 
L 555.54315 134.182385 
L 555.971831 119.836951 
L 556.400512 125.154538 
L 556.829193 123.761295 
L 557.257875 117.607557 
L 557.686556 117.196069 
L 558.115237 114.931766 
L 558.543918 115.935767 
L 558.972599 111.879482 
L 559.40128 103.247304 
L 559.829962 102.548286 
L 560.258643 104.871686 
L 560.687324 91.612198 
L 561.116005 93.329995 
L 561.544686 99.927992 
L 561.973367 95.914465 
L 562.402049 106.104216 
L 562.83073 88.979 
L 563.259411 89.090678 
L 563.688092 91.748871 
L 564.545455 87.23647 
L 564.974136 82.719985 
L 565.402817 89.194982 
L 565.831498 80.722435 
L 566.260179 81.107269 
L 566.68886 85.869248 
L 567.117542 83.713187 
L 567.546223 75.250788 
L 567.974904 82.293609 
L 568.403585 86.568112 
L 568.832266 86.636325 
L 569.260948 81.238648 
L 569.689629 80.02165 
L 570.11831 80.006479 
L 570.546991 82.046653 
L 570.975672 88.645912 
L 571.833035 78.484257 
L 572.261716 91.088773 
L 572.690397 80.689349 
L 573.119078 89.138958 
L 573.547759 85.192224 
L 573.97644 90.443986 
L 574.405122 83.046987 
L 574.833803 89.32702 
L 575.262484 86.61999 
L 575.691165 92.355239 
L 576.548528 97.593577 
L 576.977209 97.689272 
L 577.40589 96.193739 
L 577.834571 91.268509 
L 578.263252 95.972591 
L 578.691933 102.220065 
L 579.120615 100.74766 
L 579.549296 107.267174 
L 579.977977 107.784384 
L 580.406658 106.925643 
L 580.835339 99.586284 
L 581.26402 110.92708 
L 581.692702 113.646692 
L 582.121383 124.927302 
L 582.550064 114.297365 
L 582.978745 116.456184 
L 583.407426 129.676364 
L 583.836108 126.170632 
L 584.264789 131.895929 
L 584.69347 130.985631 
L 585.122151 136.017424 
L 585.550832 133.081517 
L 585.979513 138.915699 
L 586.408195 142.274194 
L 586.836876 144.055026 
L 587.265557 155.248948 
L 587.694238 155.840772 
L 588.122919 149.379808 
L 588.551601 156.845014 
L 588.980282 159.141785 
L 589.408963 169.053546 
L 589.837644 158.854119 
L 590.266325 172.183796 
L 590.695006 171.571624 
L 591.123688 177.614722 
L 591.552369 176.455513 
L 591.98105 186.595928 
L 592.409731 182.819792 
L 592.838412 186.065659 
L 593.267093 196.097917 
L 593.695775 202.677655 
L 594.124456 198.33051 
L 594.553137 211.953189 
L 594.981818 203.804043 
L 595.839181 210.291632 
L 596.267862 217.862548 
L 596.696543 213.10888 
L 597.125224 223.806825 
L 597.553905 230.201294 
L 597.982586 231.328575 
L 598.411268 237.883068 
L 598.839949 241.205587 
L 599.26863 238.91235 
L 599.697311 242.725092 
L 600.125992 248.109351 
L 600.554673 250.082363 
L 600.983355 252.984095 
L 601.412036 256.654077 
L 601.840717 251.969913 
L 602.269398 263.830684 
L 602.698079 262.033533 
L 603.555442 274.439245 
L 603.984123 276.846561 
L 604.412804 275.567916 
L 604.841485 281.05798 
L 605.270166 281.046071 
L 605.698848 283.026404 
L 606.127529 284.158528 
L 606.55621 293.284986 
L 606.984891 286.852061 
L 607.413572 301.531856 
L 607.842254 303.931214 
L 608.270935 294.802039 
L 608.699616 296.644629 
L 609.128297 307.776687 
L 609.556978 303.696292 
L 609.985659 312.558152 
L 610.414341 303.588282 
L 610.843022 311.191715 
L 611.700384 316.250153 
L 612.129065 321.281712 
L 612.557746 315.047976 
L 612.986428 319.704739 
L 613.415109 319.275842 
L 613.84379 325.49055 
L 614.272471 325.309904 
L 614.701152 323.986359 
L 615.129834 332.509197 
L 615.558515 330.513709 
L 615.987196 330.216433 
L 616.415877 326.590342 
L 616.844558 332.994168 
L 617.273239 334.173389 
L 617.701921 329.109009 
L 618.130602 333.983752 
L 618.559283 327.744546 
L 618.987964 338.149899 
L 619.416645 333.443138 
L 619.845327 335.146693 
L 620.274008 334.112567 
L 620.702689 329.416855 
L 621.13137 329.311674 
L 621.560051 334.56397 
L 621.988732 338.372855 
L 622.417414 333.815908 
L 622.846095 325.441202 
L 623.274776 329.901161 
L 623.703457 332.432177 
L 624.989501 319.640599 
L 625.846863 328.085689 
L 626.275544 314.669445 
L 626.704225 321.557145 
L 627.132907 315.202205 
L 627.561588 314.191214 
L 627.990269 325.132345 
L 628.41895 309.769062 
L 628.847631 314.614274 
L 629.276312 315.560252 
L 629.704994 310.299425 
L 630.562356 306.556448 
L 630.991037 305.13261 
L 631.419718 296.821119 
L 631.848399 296.366942 
L 632.277081 296.681631 
L 632.705762 297.767012 
L 633.134443 288.530131 
L 633.563124 288.125767 
L 633.991805 289.7277 
L 634.420487 287.402709 
L 635.70653 275.983766 
L 636.135211 271.299339 
L 636.563892 270.917198 
L 636.992574 275.117367 
L 637.421255 264.535275 
L 637.849936 258.729638 
L 638.278617 264.707886 
L 638.707298 263.793939 
L 639.13598 250.64811 
L 639.564661 251.889705 
L 639.993342 245.334095 
L 640.422023 244.919049 
L 640.850704 234.270235 
L 641.708067 231.739186 
L 642.99411 219.90609 
L 643.422791 224.229085 
L 643.851472 211.422835 
L 644.280154 219.265071 
L 644.708835 218.591115 
L 645.137516 207.838059 
L 645.566197 201.358496 
L 645.994878 198.803428 
L 646.42356 194.687289 
L 646.852241 193.066416 
L 647.280922 192.2975 
L 647.709603 186.108253 
L 648.138284 176.507384 
L 648.566965 180.913532 
L 648.995647 174.671748 
L 649.424328 171.342283 
L 649.853009 165.288596 
L 650.28169 170.651803 
L 651.139052 158.973181 
L 651.567734 158.409813 
L 651.996415 152.973622 
L 652.425096 151.451722 
L 653.282458 150.380604 
L 653.71114 138.218908 
L 654.139821 137.894627 
L 654.568502 132.510866 
L 654.997183 141.071927 
L 655.425864 125.628187 
L 655.854545 125.521601 
L 656.283227 125.756157 
L 656.711908 119.355404 
L 657.140589 117.68448 
L 657.56927 113.792727 
L 657.997951 111.656674 
L 658.426633 110.561358 
L 658.855314 108.254828 
L 659.283995 108.728708 
L 659.712676 102.499628 
L 660.141357 104.010736 
L 660.570038 94.990658 
L 660.99872 97.447605 
L 661.427401 90.473161 
L 661.856082 95.277427 
L 662.284763 92.903292 
L 662.713444 87.245303 
L 663.142125 84.48774 
L 663.570807 91.372597 
L 663.999488 82.486064 
L 664.428169 80.090623 
L 664.85685 84.494477 
L 665.285531 78.951003 
L 665.714213 82.837017 
L 666.142894 81.292432 
L 666.571575 78.963965 
L 667.000256 79.98765 
L 667.428937 71.033413 
L 667.857618 75.963326 
L 668.2863 76.728095 
L 668.714981 80.692062 
L 669.143662 73.842749 
L 669.572343 76.603808 
L 670.001024 74.946785 
L 670.429706 74.516642 
L 670.858387 79.336906 
L 671.287068 71.311977 
L 671.715749 72.320274 
L 672.14443 71.723168 
L 673.001793 80.783725 
L 673.430474 66.96 
L 673.859155 69.461086 
L 674.287836 77.038397 
L 674.716517 81.401552 
L 675.145198 77.471924 
L 675.57388 77.800089 
L 676.002561 86.336859 
L 676.431242 80.670763 
L 676.859923 80.41894 
L 677.288604 75.602323 
L 677.717286 87.334378 
L 678.145967 75.545058 
L 679.003329 87.752823 
L 679.43201 90.518771 
L 680.289373 87.807563 
L 680.718054 89.023508 
L 681.575416 101.212193 
L 682.004097 96.218661 
L 682.432778 98.550113 
L 682.86146 106.868295 
L 683.290141 110.861283 
L 683.718822 109.71931 
L 684.147503 110.308489 
L 685.004866 120.483732 
L 685.433547 122.31949 
L 685.862228 118.709835 
L 686.290909 121.89584 
L 686.71959 125.929941 
L 687.148271 132.426752 
L 687.576953 133.39499 
L 688.005634 139.88987 
L 688.434315 135.252728 
L 688.862996 148.264666 
L 689.291677 145.496403 
L 689.720359 148.527481 
L 690.14904 153.096843 
L 690.577721 144.614633 
L 691.006402 148.695613 
L 691.435083 162.074375 
L 691.863764 161.68988 
L 692.721127 168.164386 
L 693.149808 171.27748 
L 694.00717 187.806066 
L 694.435851 184.707764 
L 694.864533 183.860685 
L 695.293214 191.879331 
L 695.721895 191.842644 
L 696.150576 199.341094 
L 696.579257 198.944443 
L 697.007939 201.330572 
L 697.43662 206.200011 
L 697.865301 213.695151 
L 698.293982 208.783639 
L 699.151344 224.582797 
L 699.580026 225.653032 
L 700.008707 226.019981 
L 700.866069 239.731008 
L 701.29475 239.93314 
L 701.723431 239.690341 
L 702.152113 242.176521 
L 702.580794 240.06633 
L 703.009475 251.226776 
L 703.438156 255.086105 
L 703.866837 257.373916 
L 704.295519 254.102826 
L 704.7242 263.954263 
L 705.152881 264.096747 
L 705.581562 258.663722 
L 706.010243 274.034136 
L 706.867606 276.398313 
L 707.296287 283.353285 
L 707.724968 279.189194 
L 708.153649 290.227103 
L 708.58233 286.401346 
L 709.011012 290.610111 
L 709.439693 292.36281 
L 709.868374 287.746726 
L 710.297055 291.569978 
L 710.725736 289.720861 
L 712.01178 304.693565 
L 712.440461 303.345279 
L 712.869142 304.896572 
L 713.297823 308.747598 
L 713.726504 314.85093 
L 714.155186 308.118023 
L 714.583867 315.376541 
L 715.012548 318.417975 
L 715.441229 314.857055 
L 715.86991 317.769316 
L 716.298592 313.80223 
L 716.727273 319.983774 
L 717.155954 315.19999 
L 717.584635 319.177541 
L 718.013316 320.307381 
L 718.441997 322.611666 
L 718.870679 317.930053 
L 719.29936 324.626138 
L 719.728041 325.840439 
L 720.156722 322.939172 
L 720.585403 323.235935 
L 721.014085 316.695706 
L 721.442766 324.464065 
L 721.871447 321.245022 
L 722.300128 324.318987 
L 722.728809 318.237246 
L 723.15749 321.580132 
L 723.586172 320.910169 
L 724.014853 321.815177 
L 724.443534 325.760008 
L 724.872215 323.989227 
L 725.300896 318.91114 
L 725.729577 324.054052 
L 726.158259 314.700637 
L 726.58694 323.144536 
L 727.444302 320.374792 
L 728.301665 309.456297 
L 728.730346 317.980613 
L 729.159027 312.174858 
L 729.587708 308.819987 
L 730.016389 313.374687 
L 730.44507 306.693037 
L 730.873752 304.666819 
L 731.302433 298.170777 
L 731.731114 297.607714 
L 732.159795 302.970115 
L 732.588476 300.240101 
L 733.017157 296.610819 
L 733.445839 299.476668 
L 733.87452 293.645051 
L 734.303201 283.902278 
L 734.731882 285.995853 
L 735.160563 279.159485 
L 735.589245 276.440809 
L 736.017926 279.637434 
L 736.446607 275.850778 
L 736.875288 264.283138 
L 737.303969 269.919034 
L 737.73265 264.964765 
L 738.161332 258.620786 
L 738.590013 260.429376 
L 739.018694 256.440366 
L 739.447375 258.607811 
L 739.876056 243.420713 
L 740.304738 250.693295 
L 740.733419 249.07595 
L 741.1621 243.627038 
L 741.590781 231.736333 
L 742.019462 241.691081 
L 742.448143 232.577388 
L 742.876825 233.114814 
L 743.305506 229.040853 
L 743.734187 221.755408 
L 744.162868 216.723563 
L 744.591549 208.892999 
L 745.02023 213.224815 
L 745.448912 206.720879 
L 745.877593 215.287416 
L 746.306274 200.997693 
L 746.734955 191.956689 
L 747.163636 192.79962 
L 747.163636 192.79962 
" style="fill:none;stroke:#1f77b4;stroke-linecap:square;stroke-width:1.5;"/>
   </g>
   <g id="line2d_18">
    <path clip-path="url(#p2b288c1110)" d="M 747.163636 384.48 
L 747.163636 51.84 
" style="fill:none;stroke:#808080;stroke-linecap:square;"/>
   </g>
   <g id="patch_89">
    <path d="M 108 384.48 
L 108 51.84 
" style="fill:none;stroke:#000000;stroke-linecap:square;stroke-linejoin:miter;stroke-width:0.8;"/>
   </g>
   <g id="patch_90">
    <path d="M 777.6 384.48 
L 777.6 51.84 
" style="fill:none;stroke:#000000;stroke-linecap:square;stroke-linejoin:miter;stroke-width:0.8;"/>
   </g>
   <g id="patch_91">
    <path d="M 108 384.48 
L 777.6 384.48 
" style="fill:none;stroke:#000000;stroke-linecap:square;stroke-linejoin:miter;stroke-width:0.8;"/>
   </g>
   <g id="patch_92">
    <path d="M 108 51.84 
L 777.6 51.84 
" style="fill:none;stroke:#000000;stroke-linecap:square;stroke-linejoin:miter;stroke-width:0.8;"/>
   </g>
   <g id="text_19">
    <!-- synthetic_64.csv -->
    <defs>
     <path d="M 32.171875 -5.078125 
Q 28.375 -14.84375 24.75 -17.8125 
Q 21.140625 -20.796875 15.09375 -20.796875 
L 7.90625 -20.796875 
L 7.90625 -13.28125 
L 13.1875 -13.28125 
Q 16.890625 -13.28125 18.9375 -11.515625 
Q 21 -9.765625 23.484375 -3.21875 
L 25.09375 0.875 
L 2.984375 54.6875 
L 12.5 54.6875 
L 29.59375 11.921875 
L 46.6875 54.6875 
L 56.203125 54.6875 
z
" id="DejaVuSans-121"/>
     <path d="M 54.890625 33.015625 
L 54.890625 0 
L 45.90625 0 
L 45.90625 32.71875 
Q 45.90625 40.484375 42.875 44.328125 
Q 39.84375 48.1875 33.796875 48.1875 
Q 26.515625 48.1875 22.3125 43.546875 
Q 18.109375 38.921875 18.109375 30.90625 
L 18.109375 0 
L 9.078125 0 
L 9.078125 54.6875 
L 18.109375 54.6875 
L 18.109375 46.1875 
Q 21.34375 51.125 25.703125 53.5625 
Q 30.078125 56 35.796875 56 
Q 45.21875 56 50.046875 50.171875 
Q 54.890625 44.34375 54.890625 33.015625 
z
" id="DejaVuSans-110"/>
     <path d="M 54.890625 33.015625 
L 54.890625 0 
L 45.90625 0 
L 45.90625 32.71875 
Q 45.90625 40.484375 42.875 44.328125 
Q 39.84375 48.1875 33.796875 48.1875 
Q 26.515625 48.1875 22.3125 43.546875 
Q 18.109375 38.921875 18.109375 30.90625 
L 18.109375 0 
L 9.078125 0 
L 9.078125 75.984375 
L 18.109375 75.984375 
L 18.109375 46.1875 
Q 21.34375 51.125 25.703125 53.5625 
Q 30.078125 56 35.796875 56 
Q 45.21875 56 50.046875 50.171875 
Q 54.890625 44.34375 54.890625 33.015625 
z
" id="DejaVuSans-104"/>
     <path d="M 48.78125 52.59375 
L 48.78125 44.1875 
Q 44.96875 46.296875 41.140625 47.34375 
Q 37.3125 48.390625 33.40625 48.390625 
Q 24.65625 48.390625 19.8125 42.84375 
Q 14.984375 37.3125 14.984375 27.296875 
Q 14.984375 17.28125 19.8125 11.734375 
Q 24.65625 6.203125 33.40625 6.203125 
Q 37.3125 6.203125 41.140625 7.25 
Q 44.96875 8.296875 48.78125 10.40625 
L 48.78125 2.09375 
Q 45.015625 0.34375 40.984375 -0.53125 
Q 36.96875 -1.421875 32.421875 -1.421875 
Q 20.0625 -1.421875 12.78125 6.34375 
Q 5.515625 14.109375 5.515625 27.296875 
Q 5.515625 40.671875 12.859375 48.328125 
Q 20.21875 56 33.015625 56 
Q 37.15625 56 41.109375 55.140625 
Q 45.0625 54.296875 48.78125 52.59375 
z
" id="DejaVuSans-99"/>
     <path d="M 50.984375 -16.609375 
L 50.984375 -23.578125 
L -0.984375 -23.578125 
L -0.984375 -16.609375 
z
" id="DejaVuSans-95"/>
     <path d="M 10.6875 12.40625 
L 21 12.40625 
L 21 0 
L 10.6875 0 
z
" id="DejaVuSans-46"/>
     <path d="M 2.984375 54.6875 
L 12.5 54.6875 
L 29.59375 8.796875 
L 46.6875 54.6875 
L 56.203125 54.6875 
L 35.6875 0 
L 23.484375 0 
z
" id="DejaVuSans-118"/>
    </defs>
    <g transform="translate(392.638125 45.84)scale(0.12 -0.12)">
     <use xlink:href="#DejaVuSans-115"/>
     <use x="52.099609" xlink:href="#DejaVuSans-121"/>
     <use x="111.279297" xlink:href="#DejaVuSans-110"/>
     <use x="174.658203" xlink:href="#DejaVuSans-116"/>
     <use x="213.867188" xlink:href="#DejaVuSans-104"/>
     <use x="277.246094" xlink:href="#DejaVuSans-101"/>
     <use x="338.769531" xlink:href="#DejaVuSans-116"/>
     <use x="377.978516" xlink:href="#DejaVuSans-105"/>
     <use x="405.761719" xlink:href="#DejaVuSans-99"/>
     <use x="460.742188" xlink:href="#DejaVuSans-95"/>
     <use x="510.742188" xlink:href="#DejaVuSans-54"/>
     <use x="574.365234" xlink:href="#DejaVuSans-52"/>
     <use x="637.988281" xlink:href="#DejaVuSans-46"/>
     <use x="669.775391" xlink:href="#DejaVuSans-99"/>
     <use x="724.755859" xlink:href="#DejaVuSans-115"/>
     <use x="776.855469" xlink:href="#DejaVuSans-118"/>
    </g>
   </g>
   <g id="legend_1">
    <g id="patch_93">
     <path d="M 711.284375 74.518125 
L 770.6 74.518125 
Q 772.6 74.518125 772.6 72.518125 
L 772.6 58.84 
Q 772.6 56.84 770.6 56.84 
L 711.284375 56.84 
Q 709.284375 56.84 709.284375 58.84 
L 709.284375 72.518125 
Q 709.284375 74.518125 711.284375 74.518125 
z
" style="fill:#ffffff;opacity:0.8;stroke:#cccccc;stroke-linejoin:miter;"/>
    </g>
    <g id="line2d_19">
     <path d="M 713.284375 64.938438 
L 733.284375 64.938438 
" style="fill:none;stroke:#1f77b4;stroke-linecap:square;stroke-width:1.5;"/>
    </g>
    <g id="line2d_20"/>
    <g id="text_20">
     <!-- value -->
     <g transform="translate(741.284375 68.438438)scale(0.1 -0.1)">
      <use xlink:href="#DejaVuSans-118"/>
      <use x="59.179688" xlink:href="#DejaVuSans-97"/>
      <use x="120.458984" xlink:href="#DejaVuSans-108"/>
      <use x="148.242188" xlink:href="#DejaVuSans-117"/>
      <use x="211.621094" xlink:href="#DejaVuSans-101"/>
     </g>
    </g>
   </g>
  </g>
 </g>
 <defs>
  <clipPath id="p2b288c1110">
   <rect height="332.64" width="669.6" x="108" y="51.84"/>
  </clipPath>
 </defs>
</svg>
