<?xml version="1.0" encoding="utf-8" standalone="no"?>
<!DOCTYPE svg PUBLIC "-//W3C//DTD SVG 1.1//EN"
  "http://www.w3.org/Graphics/SVG/1.1/DTD/svg11.dtd">
<!-- Created with matplotlib (https://matplotlib.org/) -->
<svg height="432pt" version="1.1" viewBox="0 0 864 432" width="864pt" xmlns="http://www.w3.org/2000/svg" xmlns:xlink="http://www.w3.org/1999/xlink">
 <defs>
  <style type="text/css">
*{stroke-linecap:butt;stroke-linejoin:round;}
  </style>
 </defs>
 <g id="figure_1">
  <g id="patch_1">
   <path d="M 0 432 
L 864 432 
L 864 0 
L 0 0 
z
" style="fill:#ffffff;"/>
  </g>
  <g id="axes_1">
   <g id="patch_2">
    <path d="M 108 384.48 
L 777.6 384.48 
L 777.6 51.84 
L 108 51.84 
z
" style="fill:#ffffff;"/>
   </g>
   <g id="patch_3">
    <path clip-path="url(#paa9ba89a27)" d="M 138.436364 384.48 
L 138.436364 51.84 
L 378.497823 51.84 
L 378.497823 384.48 
z
" style="fill:#0000ff;opacity:0.05;"/>
   </g>
   <g id="patch_4">
    <path clip-path="url(#paa9ba89a27)" d="M 378.497823 384.48 
L 378.497823 51.84 
L 747.163636 51.84 
L 747.163636 384.48 
z
" style="fill:#ff0000;opacity:0.08;"/>
   </g>
   <g id="patch_5">
    <path clip-path="url(#paa9ba89a27)" d="M 138.436364 384.48 
L 138.436364 51.84 
L 142.723175 51.84 
L 142.723175 384.48 
z
" style="fill:#008000;opacity:0.04;"/>
   </g>
   <g id="patch_6">
    <path clip-path="url(#paa9ba89a27)" d="M 147.009987 384.48 
L 147.009987 51.84 
L 151.296799 51.84 
L 151.296799 384.48 
z
" style="fill:#008000;opacity:0.04;"/>
   </g>
   <g id="patch_7">
    <path clip-path="url(#paa9ba89a27)" d="M 155.583611 384.48 
L 155.583611 51.84 
L 159.870423 51.84 
L 159.870423 384.48 
z
" style="fill:#008000;opacity:0.04;"/>
   </g>
   <g id="patch_8">
    <path clip-path="url(#paa9ba89a27)" d="M 159.870423 384.48 
L 159.870423 371.1744 
L 164.157234 371.1744 
L 164.157234 384.48 
z
" style="fill:#ffe500;"/>
   </g>
   <g id="patch_9">
    <path clip-path="url(#paa9ba89a27)" d="M 164.157234 384.48 
L 164.157234 51.84 
L 168.444046 51.84 
L 168.444046 384.48 
z
" style="fill:#008000;opacity:0.04;"/>
   </g>
   <g id="patch_10">
    <path clip-path="url(#paa9ba89a27)" d="M 172.730858 384.48 
L 172.730858 51.84 
L 177.01767 51.84 
L 177.01767 384.48 
z
" style="fill:#008000;opacity:0.04;"/>
   </g>
   <g id="patch_11">
    <path clip-path="url(#paa9ba89a27)" d="M 417.079129 384.48 
L 417.079129 371.1744 
L 421.365941 371.1744 
L 421.365941 384.48 
z
" style="fill:#ff6600;"/>
   </g>
   <g id="patch_12">
    <path clip-path="url(#paa9ba89a27)" d="M 181.304481 384.48 
L 181.304481 51.84 
L 185.591293 51.84 
L 185.591293 384.48 
z
" style="fill:#008000;opacity:0.04;"/>
   </g>
   <g id="patch_13">
    <path clip-path="url(#paa9ba89a27)" d="M 189.878105 384.48 
L 189.878105 51.84 
L 194.164917 51.84 
L 194.164917 384.48 
z
" style="fill:#008000;opacity:0.04;"/>
   </g>
   <g id="patch_14">
    <path clip-path="url(#paa9ba89a27)" d="M 198.451729 384.48 
L 198.451729 51.84 
L 202.73854 51.84 
L 202.73854 384.48 
z
" style="fill:#008000;opacity:0.04;"/>
   </g>
   <g id="patch_15">
    <path clip-path="url(#paa9ba89a27)" d="M 198.451729 384.48 
L 198.451729 371.1744 
L 202.73854 371.1744 
L 202.73854 384.48 
z
" style="fill:#ffe500;"/>
   </g>
   <g id="patch_16">
    <path clip-path="url(#paa9ba89a27)" d="M 207.025352 384.48 
L 207.025352 51.84 
L 211.312164 51.84 
L 211.312164 384.48 
z
" style="fill:#008000;opacity:0.04;"/>
   </g>
   <g id="patch_17">
    <path clip-path="url(#paa9ba89a27)" d="M 215.598976 384.48 
L 215.598976 51.84 
L 219.885787 51.84 
L 219.885787 384.48 
z
" style="fill:#008000;opacity:0.04;"/>
   </g>
   <g id="patch_18">
    <path clip-path="url(#paa9ba89a27)" d="M 224.172599 384.48 
L 224.172599 51.84 
L 228.459411 51.84 
L 228.459411 384.48 
z
" style="fill:#008000;opacity:0.04;"/>
   </g>
   <g id="patch_19">
    <path clip-path="url(#paa9ba89a27)" d="M 232.746223 384.48 
L 232.746223 51.84 
L 237.033035 51.84 
L 237.033035 384.48 
z
" style="fill:#008000;opacity:0.04;"/>
   </g>
   <g id="patch_20">
    <path clip-path="url(#paa9ba89a27)" d="M 241.319846 384.48 
L 241.319846 51.84 
L 245.606658 51.84 
L 245.606658 384.48 
z
" style="fill:#008000;opacity:0.04;"/>
   </g>
   <g id="patch_21">
    <path clip-path="url(#paa9ba89a27)" d="M 241.319846 384.48 
L 241.319846 371.1744 
L 245.606658 371.1744 
L 245.606658 384.48 
z
" style="fill:#ffe500;"/>
   </g>
   <g id="patch_22">
    <path clip-path="url(#paa9ba89a27)" d="M 249.89347 384.48 
L 249.89347 51.84 
L 254.180282 51.84 
L 254.180282 384.48 
z
" style="fill:#008000;opacity:0.04;"/>
   </g>
   <g id="patch_23">
    <path clip-path="url(#paa9ba89a27)" d="M 249.89347 384.48 
L 249.89347 371.1744 
L 254.180282 371.1744 
L 254.180282 384.48 
z
" style="fill:#ffe500;"/>
   </g>
   <g id="patch_24">
    <path clip-path="url(#paa9ba89a27)" d="M 258.467093 384.48 
L 258.467093 51.84 
L 262.753905 51.84 
L 262.753905 384.48 
z
" style="fill:#008000;opacity:0.04;"/>
   </g>
   <g id="patch_25">
    <path clip-path="url(#paa9ba89a27)" d="M 267.040717 384.48 
L 267.040717 51.84 
L 271.327529 51.84 
L 271.327529 384.48 
z
" style="fill:#008000;opacity:0.04;"/>
   </g>
   <g id="patch_26">
    <path clip-path="url(#paa9ba89a27)" d="M 275.614341 384.48 
L 275.614341 51.84 
L 279.901152 51.84 
L 279.901152 384.48 
z
" style="fill:#008000;opacity:0.04;"/>
   </g>
   <g id="patch_27">
    <path clip-path="url(#paa9ba89a27)" d="M 515.6758 384.48 
L 515.6758 371.1744 
L 519.962612 371.1744 
L 519.962612 384.48 
z
" style="fill:#ff6600;"/>
   </g>
   <g id="patch_28">
    <path clip-path="url(#paa9ba89a27)" d="M 279.901152 384.48 
L 279.901152 371.1744 
L 284.187964 371.1744 
L 284.187964 384.48 
z
" style="fill:#ffe500;"/>
   </g>
   <g id="patch_29">
    <path clip-path="url(#paa9ba89a27)" d="M 519.962612 384.48 
L 519.962612 371.1744 
L 524.249424 371.1744 
L 524.249424 384.48 
z
" style="fill:#ff6600;"/>
   </g>
   <g id="patch_30">
    <path clip-path="url(#paa9ba89a27)" d="M 284.187964 384.48 
L 284.187964 51.84 
L 288.474776 51.84 
L 288.474776 384.48 
z
" style="fill:#008000;opacity:0.04;"/>
   </g>
   <g id="patch_31">
    <path clip-path="url(#paa9ba89a27)" d="M 292.761588 384.48 
L 292.761588 51.84 
L 297.048399 51.84 
L 297.048399 384.48 
z
" style="fill:#008000;opacity:0.04;"/>
   </g>
   <g id="patch_32">
    <path clip-path="url(#paa9ba89a27)" d="M 301.335211 384.48 
L 301.335211 51.84 
L 305.622023 51.84 
L 305.622023 384.48 
z
" style="fill:#008000;opacity:0.04;"/>
   </g>
   <g id="patch_33">
    <path clip-path="url(#paa9ba89a27)" d="M 309.908835 384.48 
L 309.908835 51.84 
L 314.195647 51.84 
L 314.195647 384.48 
z
" style="fill:#008000;opacity:0.04;"/>
   </g>
   <g id="patch_34">
    <path clip-path="url(#paa9ba89a27)" d="M 318.482458 384.48 
L 318.482458 51.84 
L 322.76927 51.84 
L 322.76927 384.48 
z
" style="fill:#008000;opacity:0.04;"/>
   </g>
   <g id="patch_35">
    <path clip-path="url(#paa9ba89a27)" d="M 327.056082 384.48 
L 327.056082 51.84 
L 331.342894 51.84 
L 331.342894 384.48 
z
" style="fill:#008000;opacity:0.04;"/>
   </g>
   <g id="patch_36">
    <path clip-path="url(#paa9ba89a27)" d="M 327.056082 384.48 
L 327.056082 371.1744 
L 331.342894 371.1744 
L 331.342894 384.48 
z
" style="fill:#ffe500;"/>
   </g>
   <g id="patch_37">
    <path clip-path="url(#paa9ba89a27)" d="M 335.629706 384.48 
L 335.629706 51.84 
L 339.916517 51.84 
L 339.916517 384.48 
z
" style="fill:#008000;opacity:0.04;"/>
   </g>
   <g id="patch_38">
    <path clip-path="url(#paa9ba89a27)" d="M 344.203329 384.48 
L 344.203329 51.84 
L 348.490141 51.84 
L 348.490141 384.48 
z
" style="fill:#008000;opacity:0.04;"/>
   </g>
   <g id="patch_39">
    <path clip-path="url(#paa9ba89a27)" d="M 344.203329 384.48 
L 344.203329 371.1744 
L 348.490141 371.1744 
L 348.490141 384.48 
z
" style="fill:#ffe500;"/>
   </g>
   <g id="patch_40">
    <path clip-path="url(#paa9ba89a27)" d="M 352.776953 384.48 
L 352.776953 51.84 
L 357.063764 51.84 
L 357.063764 384.48 
z
" style="fill:#008000;opacity:0.04;"/>
   </g>
   <g id="patch_41">
    <path clip-path="url(#paa9ba89a27)" d="M 361.350576 384.48 
L 361.350576 51.84 
L 365.637388 51.84 
L 365.637388 384.48 
z
" style="fill:#008000;opacity:0.04;"/>
   </g>
   <g id="patch_42">
    <path clip-path="url(#paa9ba89a27)" d="M 365.637388 384.48 
L 365.637388 371.1744 
L 369.9242 371.1744 
L 369.9242 384.48 
z
" style="fill:#ffe500;"/>
   </g>
   <g id="patch_43">
    <path clip-path="url(#paa9ba89a27)" d="M 369.9242 384.48 
L 369.9242 51.84 
L 374.211012 51.84 
L 374.211012 384.48 
z
" style="fill:#008000;opacity:0.04;"/>
   </g>
   <g id="patch_44">
    <path clip-path="url(#paa9ba89a27)" d="M 378.497823 384.48 
L 378.497823 51.84 
L 382.784635 51.84 
L 382.784635 384.48 
z
" style="fill:#008000;opacity:0.04;"/>
   </g>
   <g id="patch_45">
    <path clip-path="url(#paa9ba89a27)" d="M 387.071447 384.48 
L 387.071447 51.84 
L 391.358259 51.84 
L 391.358259 384.48 
z
" style="fill:#008000;opacity:0.04;"/>
   </g>
   <g id="patch_46">
    <path clip-path="url(#paa9ba89a27)" d="M 395.64507 384.48 
L 395.64507 51.84 
L 399.931882 51.84 
L 399.931882 384.48 
z
" style="fill:#008000;opacity:0.04;"/>
   </g>
   <g id="patch_47">
    <path clip-path="url(#paa9ba89a27)" d="M 404.218694 384.48 
L 404.218694 51.84 
L 408.505506 51.84 
L 408.505506 384.48 
z
" style="fill:#008000;opacity:0.04;"/>
   </g>
   <g id="patch_48">
    <path clip-path="url(#paa9ba89a27)" d="M 412.792318 384.48 
L 412.792318 51.84 
L 417.079129 51.84 
L 417.079129 384.48 
z
" style="fill:#008000;opacity:0.04;"/>
   </g>
   <g id="patch_49">
    <path clip-path="url(#paa9ba89a27)" d="M 417.079129 371.1744 
L 417.079129 51.84 
L 421.365941 51.84 
L 421.365941 371.1744 
z
" style="fill:#008000;opacity:0.5;"/>
   </g>
   <g id="patch_50">
    <path clip-path="url(#paa9ba89a27)" d="M 421.365941 384.48 
L 421.365941 51.84 
L 425.652753 51.84 
L 425.652753 384.48 
z
" style="fill:#008000;opacity:0.04;"/>
   </g>
   <g id="patch_51">
    <path clip-path="url(#paa9ba89a27)" d="M 429.939565 384.48 
L 429.939565 51.84 
L 434.226376 51.84 
L 434.226376 384.48 
z
" style="fill:#008000;opacity:0.04;"/>
   </g>
   <g id="patch_52">
    <path clip-path="url(#paa9ba89a27)" d="M 438.513188 384.48 
L 438.513188 51.84 
L 442.8 51.84 
L 442.8 384.48 
z
" style="fill:#008000;opacity:0.04;"/>
   </g>
   <g id="patch_53">
    <path clip-path="url(#paa9ba89a27)" d="M 447.086812 384.48 
L 447.086812 51.84 
L 451.373624 51.84 
L 451.373624 384.48 
z
" style="fill:#008000;opacity:0.04;"/>
   </g>
   <g id="patch_54">
    <path clip-path="url(#paa9ba89a27)" d="M 455.660435 384.48 
L 455.660435 51.84 
L 459.947247 51.84 
L 459.947247 384.48 
z
" style="fill:#008000;opacity:0.04;"/>
   </g>
   <g id="patch_55">
    <path clip-path="url(#paa9ba89a27)" d="M 464.234059 384.48 
L 464.234059 51.84 
L 468.520871 51.84 
L 468.520871 384.48 
z
" style="fill:#008000;opacity:0.04;"/>
   </g>
   <g id="patch_56">
    <path clip-path="url(#paa9ba89a27)" d="M 472.807682 384.48 
L 472.807682 51.84 
L 477.094494 51.84 
L 477.094494 384.48 
z
" style="fill:#008000;opacity:0.04;"/>
   </g>
   <g id="patch_57">
    <path clip-path="url(#paa9ba89a27)" d="M 481.381306 384.48 
L 481.381306 51.84 
L 485.668118 51.84 
L 485.668118 384.48 
z
" style="fill:#008000;opacity:0.04;"/>
   </g>
   <g id="patch_58">
    <path clip-path="url(#paa9ba89a27)" d="M 489.95493 384.48 
L 489.95493 51.84 
L 494.241741 51.84 
L 494.241741 384.48 
z
" style="fill:#008000;opacity:0.04;"/>
   </g>
   <g id="patch_59">
    <path clip-path="url(#paa9ba89a27)" d="M 498.528553 384.48 
L 498.528553 51.84 
L 502.815365 51.84 
L 502.815365 384.48 
z
" style="fill:#008000;opacity:0.04;"/>
   </g>
   <g id="patch_60">
    <path clip-path="url(#paa9ba89a27)" d="M 507.102177 384.48 
L 507.102177 51.84 
L 511.388988 51.84 
L 511.388988 384.48 
z
" style="fill:#008000;opacity:0.04;"/>
   </g>
   <g id="patch_61">
    <path clip-path="url(#paa9ba89a27)" d="M 515.6758 384.48 
L 515.6758 51.84 
L 519.962612 51.84 
L 519.962612 384.48 
z
" style="fill:#008000;opacity:0.04;"/>
   </g>
   <g id="patch_62">
    <path clip-path="url(#paa9ba89a27)" d="M 519.962612 371.1744 
L 519.962612 51.84 
L 524.249424 51.84 
L 524.249424 371.1744 
z
" style="fill:#008000;opacity:0.5;"/>
   </g>
   <g id="patch_63">
    <path clip-path="url(#paa9ba89a27)" d="M 524.249424 384.48 
L 524.249424 51.84 
L 528.536236 51.84 
L 528.536236 384.48 
z
" style="fill:#008000;opacity:0.04;"/>
   </g>
   <g id="patch_64">
    <path clip-path="url(#paa9ba89a27)" d="M 532.823047 384.48 
L 532.823047 51.84 
L 537.109859 51.84 
L 537.109859 384.48 
z
" style="fill:#008000;opacity:0.04;"/>
   </g>
   <g id="patch_65">
    <path clip-path="url(#paa9ba89a27)" d="M 541.396671 384.48 
L 541.396671 51.84 
L 545.683483 51.84 
L 545.683483 384.48 
z
" style="fill:#008000;opacity:0.04;"/>
   </g>
   <g id="patch_66">
    <path clip-path="url(#paa9ba89a27)" d="M 549.970294 384.48 
L 549.970294 51.84 
L 554.257106 51.84 
L 554.257106 384.48 
z
" style="fill:#008000;opacity:0.04;"/>
   </g>
   <g id="patch_67">
    <path clip-path="url(#paa9ba89a27)" d="M 558.543918 384.48 
L 558.543918 51.84 
L 562.83073 51.84 
L 562.83073 384.48 
z
" style="fill:#008000;opacity:0.04;"/>
   </g>
   <g id="patch_68">
    <path clip-path="url(#paa9ba89a27)" d="M 567.117542 384.48 
L 567.117542 51.84 
L 571.404353 51.84 
L 571.404353 384.48 
z
" style="fill:#008000;opacity:0.04;"/>
   </g>
   <g id="patch_69">
    <path clip-path="url(#paa9ba89a27)" d="M 575.691165 384.48 
L 575.691165 51.84 
L 579.977977 51.84 
L 579.977977 384.48 
z
" style="fill:#008000;opacity:0.04;"/>
   </g>
   <g id="patch_70">
    <path clip-path="url(#paa9ba89a27)" d="M 584.264789 384.48 
L 584.264789 51.84 
L 588.551601 51.84 
L 588.551601 384.48 
z
" style="fill:#008000;opacity:0.04;"/>
   </g>
   <g id="patch_71">
    <path clip-path="url(#paa9ba89a27)" d="M 592.838412 384.48 
L 592.838412 51.84 
L 597.125224 51.84 
L 597.125224 384.48 
z
" style="fill:#008000;opacity:0.04;"/>
   </g>
   <g id="patch_72">
    <path clip-path="url(#paa9ba89a27)" d="M 601.412036 384.48 
L 601.412036 51.84 
L 605.698848 51.84 
L 605.698848 384.48 
z
" style="fill:#008000;opacity:0.04;"/>
   </g>
   <g id="patch_73">
    <path clip-path="url(#paa9ba89a27)" d="M 609.985659 384.48 
L 609.985659 51.84 
L 614.272471 51.84 
L 614.272471 384.48 
z
" style="fill:#008000;opacity:0.04;"/>
   </g>
   <g id="patch_74">
    <path clip-path="url(#paa9ba89a27)" d="M 618.559283 384.48 
L 618.559283 51.84 
L 622.846095 51.84 
L 622.846095 384.48 
z
" style="fill:#008000;opacity:0.04;"/>
   </g>
   <g id="patch_75">
    <path clip-path="url(#paa9ba89a27)" d="M 627.132907 384.48 
L 627.132907 51.84 
L 631.419718 51.84 
L 631.419718 384.48 
z
" style="fill:#008000;opacity:0.04;"/>
   </g>
   <g id="patch_76">
    <path clip-path="url(#paa9ba89a27)" d="M 635.70653 384.48 
L 635.70653 51.84 
L 639.993342 51.84 
L 639.993342 384.48 
z
" style="fill:#008000;opacity:0.04;"/>
   </g>
   <g id="patch_77">
    <path clip-path="url(#paa9ba89a27)" d="M 644.280154 384.48 
L 644.280154 51.84 
L 648.566965 51.84 
L 648.566965 384.48 
z
" style="fill:#008000;opacity:0.04;"/>
   </g>
   <g id="patch_78">
    <path clip-path="url(#paa9ba89a27)" d="M 652.853777 384.48 
L 652.853777 51.84 
L 657.140589 51.84 
L 657.140589 384.48 
z
" style="fill:#008000;opacity:0.04;"/>
   </g>
   <g id="patch_79">
    <path clip-path="url(#paa9ba89a27)" d="M 661.427401 384.48 
L 661.427401 51.84 
L 665.714213 51.84 
L 665.714213 384.48 
z
" style="fill:#008000;opacity:0.04;"/>
   </g>
   <g id="patch_80">
    <path clip-path="url(#paa9ba89a27)" d="M 670.001024 384.48 
L 670.001024 51.84 
L 674.287836 51.84 
L 674.287836 384.48 
z
" style="fill:#008000;opacity:0.04;"/>
   </g>
   <g id="patch_81">
    <path clip-path="url(#paa9ba89a27)" d="M 678.574648 384.48 
L 678.574648 51.84 
L 682.86146 51.84 
L 682.86146 384.48 
z
" style="fill:#008000;opacity:0.04;"/>
   </g>
   <g id="patch_82">
    <path clip-path="url(#paa9ba89a27)" d="M 687.148271 384.48 
L 687.148271 51.84 
L 691.435083 51.84 
L 691.435083 384.48 
z
" style="fill:#008000;opacity:0.04;"/>
   </g>
   <g id="patch_83">
    <path clip-path="url(#paa9ba89a27)" d="M 695.721895 384.48 
L 695.721895 51.84 
L 700.008707 51.84 
L 700.008707 384.48 
z
" style="fill:#008000;opacity:0.04;"/>
   </g>
   <g id="patch_84">
    <path clip-path="url(#paa9ba89a27)" d="M 704.295519 384.48 
L 704.295519 51.84 
L 708.58233 51.84 
L 708.58233 384.48 
z
" style="fill:#008000;opacity:0.04;"/>
   </g>
   <g id="patch_85">
    <path clip-path="url(#paa9ba89a27)" d="M 712.869142 384.48 
L 712.869142 51.84 
L 717.155954 51.84 
L 717.155954 384.48 
z
" style="fill:#008000;opacity:0.04;"/>
   </g>
   <g id="patch_86">
    <path clip-path="url(#paa9ba89a27)" d="M 721.442766 384.48 
L 721.442766 51.84 
L 725.729577 51.84 
L 725.729577 384.48 
z
" style="fill:#008000;opacity:0.04;"/>
   </g>
   <g id="patch_87">
    <path clip-path="url(#paa9ba89a27)" d="M 730.016389 384.48 
L 730.016389 51.84 
L 734.303201 51.84 
L 734.303201 384.48 
z
" style="fill:#008000;opacity:0.04;"/>
   </g>
   <g id="patch_88">
    <path clip-path="url(#paa9ba89a27)" d="M 738.590013 384.48 
L 738.590013 51.84 
L 742.876825 51.84 
L 742.876825 384.48 
z
" style="fill:#008000;opacity:0.04;"/>
   </g>
   <g id="matplotlib.axis_1">
    <g id="xtick_1">
     <g id="line2d_1">
      <defs>
       <path d="M 0 0 
L 0 3.5 
" id="m1774ed42ee" style="stroke:#000000;stroke-width:0.8;"/>
      </defs>
      <g>
       <use style="stroke:#000000;stroke-width:0.8;" x="138.436364" xlink:href="#m1774ed42ee" y="384.48"/>
      </g>
     </g>
     <g id="text_1">
      <!-- 0 -->
      <defs>
       <path d="M 31.78125 66.40625 
Q 24.171875 66.40625 20.328125 58.90625 
Q 16.5 51.421875 16.5 36.375 
Q 16.5 21.390625 20.328125 13.890625 
Q 24.171875 6.390625 31.78125 6.390625 
Q 39.453125 6.390625 43.28125 13.890625 
Q 47.125 21.390625 47.125 36.375 
Q 47.125 51.421875 43.28125 58.90625 
Q 39.453125 66.40625 31.78125 66.40625 
z
M 31.78125 74.21875 
Q 44.046875 74.21875 50.515625 64.515625 
Q 56.984375 54.828125 56.984375 36.375 
Q 56.984375 17.96875 50.515625 8.265625 
Q 44.046875 -1.421875 31.78125 -1.421875 
Q 19.53125 -1.421875 13.0625 8.265625 
Q 6.59375 17.96875 6.59375 36.375 
Q 6.59375 54.828125 13.0625 64.515625 
Q 19.53125 74.21875 31.78125 74.21875 
z
" id="DejaVuSans-48"/>
      </defs>
      <g transform="translate(135.255114 399.078438)scale(0.1 -0.1)">
       <use xlink:href="#DejaVuSans-48"/>
      </g>
     </g>
    </g>
    <g id="xtick_2">
     <g id="line2d_2">
      <g>
       <use style="stroke:#000000;stroke-width:0.8;" x="224.172599" xlink:href="#m1774ed42ee" y="384.48"/>
      </g>
     </g>
     <g id="text_2">
      <!-- 200 -->
      <defs>
       <path d="M 19.1875 8.296875 
L 53.609375 8.296875 
L 53.609375 0 
L 7.328125 0 
L 7.328125 8.296875 
Q 12.9375 14.109375 22.625 23.890625 
Q 32.328125 33.6875 34.8125 36.53125 
Q 39.546875 41.84375 41.421875 45.53125 
Q 43.3125 49.21875 43.3125 52.78125 
Q 43.3125 58.59375 39.234375 62.25 
Q 35.15625 65.921875 28.609375 65.921875 
Q 23.96875 65.921875 18.8125 64.3125 
Q 13.671875 62.703125 7.8125 59.421875 
L 7.8125 69.390625 
Q 13.765625 71.78125 18.9375 73 
Q 24.125 74.21875 28.421875 74.21875 
Q 39.75 74.21875 46.484375 68.546875 
Q 53.21875 62.890625 53.21875 53.421875 
Q 53.21875 48.921875 51.53125 44.890625 
Q 49.859375 40.875 45.40625 35.40625 
Q 44.1875 33.984375 37.640625 27.21875 
Q 31.109375 20.453125 19.1875 8.296875 
z
" id="DejaVuSans-50"/>
      </defs>
      <g transform="translate(214.628849 399.078438)scale(0.1 -0.1)">
       <use xlink:href="#DejaVuSans-50"/>
       <use x="63.623047" xlink:href="#DejaVuSans-48"/>
       <use x="127.246094" xlink:href="#DejaVuSans-48"/>
      </g>
     </g>
    </g>
    <g id="xtick_3">
     <g id="line2d_3">
      <g>
       <use style="stroke:#000000;stroke-width:0.8;" x="309.908835" xlink:href="#m1774ed42ee" y="384.48"/>
      </g>
     </g>
     <g id="text_3">
      <!-- 400 -->
      <defs>
       <path d="M 37.796875 64.3125 
L 12.890625 25.390625 
L 37.796875 25.390625 
z
M 35.203125 72.90625 
L 47.609375 72.90625 
L 47.609375 25.390625 
L 58.015625 25.390625 
L 58.015625 17.1875 
L 47.609375 17.1875 
L 47.609375 0 
L 37.796875 0 
L 37.796875 17.1875 
L 4.890625 17.1875 
L 4.890625 26.703125 
z
" id="DejaVuSans-52"/>
      </defs>
      <g transform="translate(300.365085 399.078438)scale(0.1 -0.1)">
       <use xlink:href="#DejaVuSans-52"/>
       <use x="63.623047" xlink:href="#DejaVuSans-48"/>
       <use x="127.246094" xlink:href="#DejaVuSans-48"/>
      </g>
     </g>
    </g>
    <g id="xtick_4">
     <g id="line2d_4">
      <g>
       <use style="stroke:#000000;stroke-width:0.8;" x="395.64507" xlink:href="#m1774ed42ee" y="384.48"/>
      </g>
     </g>
     <g id="text_4">
      <!-- 600 -->
      <defs>
       <path d="M 33.015625 40.375 
Q 26.375 40.375 22.484375 35.828125 
Q 18.609375 31.296875 18.609375 23.390625 
Q 18.609375 15.53125 22.484375 10.953125 
Q 26.375 6.390625 33.015625 6.390625 
Q 39.65625 6.390625 43.53125 10.953125 
Q 47.40625 15.53125 47.40625 23.390625 
Q 47.40625 31.296875 43.53125 35.828125 
Q 39.65625 40.375 33.015625 40.375 
z
M 52.59375 71.296875 
L 52.59375 62.3125 
Q 48.875 64.0625 45.09375 64.984375 
Q 41.3125 65.921875 37.59375 65.921875 
Q 27.828125 65.921875 22.671875 59.328125 
Q 17.53125 52.734375 16.796875 39.40625 
Q 19.671875 43.65625 24.015625 45.921875 
Q 28.375 48.1875 33.59375 48.1875 
Q 44.578125 48.1875 50.953125 41.515625 
Q 57.328125 34.859375 57.328125 23.390625 
Q 57.328125 12.15625 50.6875 5.359375 
Q 44.046875 -1.421875 33.015625 -1.421875 
Q 20.359375 -1.421875 13.671875 8.265625 
Q 6.984375 17.96875 6.984375 36.375 
Q 6.984375 53.65625 15.1875 63.9375 
Q 23.390625 74.21875 37.203125 74.21875 
Q 40.921875 74.21875 44.703125 73.484375 
Q 48.484375 72.75 52.59375 71.296875 
z
" id="DejaVuSans-54"/>
      </defs>
      <g transform="translate(386.10132 399.078438)scale(0.1 -0.1)">
       <use xlink:href="#DejaVuSans-54"/>
       <use x="63.623047" xlink:href="#DejaVuSans-48"/>
       <use x="127.246094" xlink:href="#DejaVuSans-48"/>
      </g>
     </g>
    </g>
    <g id="xtick_5">
     <g id="line2d_5">
      <g>
       <use style="stroke:#000000;stroke-width:0.8;" x="481.381306" xlink:href="#m1774ed42ee" y="384.48"/>
      </g>
     </g>
     <g id="text_5">
      <!-- 800 -->
      <defs>
       <path d="M 31.78125 34.625 
Q 24.75 34.625 20.71875 30.859375 
Q 16.703125 27.09375 16.703125 20.515625 
Q 16.703125 13.921875 20.71875 10.15625 
Q 24.75 6.390625 31.78125 6.390625 
Q 38.8125 6.390625 42.859375 10.171875 
Q 46.921875 13.96875 46.921875 20.515625 
Q 46.921875 27.09375 42.890625 30.859375 
Q 38.875 34.625 31.78125 34.625 
z
M 21.921875 38.8125 
Q 15.578125 40.375 12.03125 44.71875 
Q 8.5 49.078125 8.5 55.328125 
Q 8.5 64.0625 14.71875 69.140625 
Q 20.953125 74.21875 31.78125 74.21875 
Q 42.671875 74.21875 48.875 69.140625 
Q 55.078125 64.0625 55.078125 55.328125 
Q 55.078125 49.078125 51.53125 44.71875 
Q 48 40.375 41.703125 38.8125 
Q 48.828125 37.15625 52.796875 32.3125 
Q 56.78125 27.484375 56.78125 20.515625 
Q 56.78125 9.90625 50.3125 4.234375 
Q 43.84375 -1.421875 31.78125 -1.421875 
Q 19.734375 -1.421875 13.25 4.234375 
Q 6.78125 9.90625 6.78125 20.515625 
Q 6.78125 27.484375 10.78125 32.3125 
Q 14.796875 37.15625 21.921875 38.8125 
z
M 18.3125 54.390625 
Q 18.3125 48.734375 21.84375 45.5625 
Q 25.390625 42.390625 31.78125 42.390625 
Q 38.140625 42.390625 41.71875 45.5625 
Q 45.3125 48.734375 45.3125 54.390625 
Q 45.3125 60.0625 41.71875 63.234375 
Q 38.140625 66.40625 31.78125 66.40625 
Q 25.390625 66.40625 21.84375 63.234375 
Q 18.3125 60.0625 18.3125 54.390625 
z
" id="DejaVuSans-56"/>
      </defs>
      <g transform="translate(471.837556 399.078438)scale(0.1 -0.1)">
       <use xlink:href="#DejaVuSans-56"/>
       <use x="63.623047" xlink:href="#DejaVuSans-48"/>
       <use x="127.246094" xlink:href="#DejaVuSans-48"/>
      </g>
     </g>
    </g>
    <g id="xtick_6">
     <g id="line2d_6">
      <g>
       <use style="stroke:#000000;stroke-width:0.8;" x="567.117542" xlink:href="#m1774ed42ee" y="384.48"/>
      </g>
     </g>
     <g id="text_6">
      <!-- 1000 -->
      <defs>
       <path d="M 12.40625 8.296875 
L 28.515625 8.296875 
L 28.515625 63.921875 
L 10.984375 60.40625 
L 10.984375 69.390625 
L 28.421875 72.90625 
L 38.28125 72.90625 
L 38.28125 8.296875 
L 54.390625 8.296875 
L 54.390625 0 
L 12.40625 0 
z
" id="DejaVuSans-49"/>
      </defs>
      <g transform="translate(554.392542 399.078438)scale(0.1 -0.1)">
       <use xlink:href="#DejaVuSans-49"/>
       <use x="63.623047" xlink:href="#DejaVuSans-48"/>
       <use x="127.246094" xlink:href="#DejaVuSans-48"/>
       <use x="190.869141" xlink:href="#DejaVuSans-48"/>
      </g>
     </g>
    </g>
    <g id="xtick_7">
     <g id="line2d_7">
      <g>
       <use style="stroke:#000000;stroke-width:0.8;" x="652.853777" xlink:href="#m1774ed42ee" y="384.48"/>
      </g>
     </g>
     <g id="text_7">
      <!-- 1200 -->
      <g transform="translate(640.128777 399.078438)scale(0.1 -0.1)">
       <use xlink:href="#DejaVuSans-49"/>
       <use x="63.623047" xlink:href="#DejaVuSans-50"/>
       <use x="127.246094" xlink:href="#DejaVuSans-48"/>
       <use x="190.869141" xlink:href="#DejaVuSans-48"/>
      </g>
     </g>
    </g>
    <g id="xtick_8">
     <g id="line2d_8">
      <g>
       <use style="stroke:#000000;stroke-width:0.8;" x="738.590013" xlink:href="#m1774ed42ee" y="384.48"/>
      </g>
     </g>
     <g id="text_8">
      <!-- 1400 -->
      <g transform="translate(725.865013 399.078438)scale(0.1 -0.1)">
       <use xlink:href="#DejaVuSans-49"/>
       <use x="63.623047" xlink:href="#DejaVuSans-52"/>
       <use x="127.246094" xlink:href="#DejaVuSans-48"/>
       <use x="190.869141" xlink:href="#DejaVuSans-48"/>
      </g>
     </g>
    </g>
    <g id="text_9">
     <!-- Timestamp -->
     <defs>
      <path d="M -0.296875 72.90625 
L 61.375 72.90625 
L 61.375 64.59375 
L 35.5 64.59375 
L 35.5 0 
L 25.59375 0 
L 25.59375 64.59375 
L -0.296875 64.59375 
z
" id="DejaVuSans-84"/>
      <path d="M 9.421875 54.6875 
L 18.40625 54.6875 
L 18.40625 0 
L 9.421875 0 
z
M 9.421875 75.984375 
L 18.40625 75.984375 
L 18.40625 64.59375 
L 9.421875 64.59375 
z
" id="DejaVuSans-105"/>
      <path d="M 52 44.1875 
Q 55.375 50.25 60.0625 53.125 
Q 64.75 56 71.09375 56 
Q 79.640625 56 84.28125 50.015625 
Q 88.921875 44.046875 88.921875 33.015625 
L 88.921875 0 
L 79.890625 0 
L 79.890625 32.71875 
Q 79.890625 40.578125 77.09375 44.375 
Q 74.3125 48.1875 68.609375 48.1875 
Q 61.625 48.1875 57.5625 43.546875 
Q 53.515625 38.921875 53.515625 30.90625 
L 53.515625 0 
L 44.484375 0 
L 44.484375 32.71875 
Q 44.484375 40.625 41.703125 44.40625 
Q 38.921875 48.1875 33.109375 48.1875 
Q 26.21875 48.1875 22.15625 43.53125 
Q 18.109375 38.875 18.109375 30.90625 
L 18.109375 0 
L 9.078125 0 
L 9.078125 54.6875 
L 18.109375 54.6875 
L 18.109375 46.1875 
Q 21.1875 51.21875 25.484375 53.609375 
Q 29.78125 56 35.6875 56 
Q 41.65625 56 45.828125 52.96875 
Q 50 49.953125 52 44.1875 
z
" id="DejaVuSans-109"/>
      <path d="M 56.203125 29.59375 
L 56.203125 25.203125 
L 14.890625 25.203125 
Q 15.484375 15.921875 20.484375 11.0625 
Q 25.484375 6.203125 34.421875 6.203125 
Q 39.59375 6.203125 44.453125 7.46875 
Q 49.3125 8.734375 54.109375 11.28125 
L 54.109375 2.78125 
Q 49.265625 0.734375 44.1875 -0.34375 
Q 39.109375 -1.421875 33.890625 -1.421875 
Q 20.796875 -1.421875 13.15625 6.1875 
Q 5.515625 13.8125 5.515625 26.8125 
Q 5.515625 40.234375 12.765625 48.109375 
Q 20.015625 56 32.328125 56 
Q 43.359375 56 49.78125 48.890625 
Q 56.203125 41.796875 56.203125 29.59375 
z
M 47.21875 32.234375 
Q 47.125 39.59375 43.09375 43.984375 
Q 39.0625 48.390625 32.421875 48.390625 
Q 24.90625 48.390625 20.390625 44.140625 
Q 15.875 39.890625 15.1875 32.171875 
z
" id="DejaVuSans-101"/>
      <path d="M 44.28125 53.078125 
L 44.28125 44.578125 
Q 40.484375 46.53125 36.375 47.5 
Q 32.28125 48.484375 27.875 48.484375 
Q 21.1875 48.484375 17.84375 46.4375 
Q 14.5 44.390625 14.5 40.28125 
Q 14.5 37.15625 16.890625 35.375 
Q 19.28125 33.59375 26.515625 31.984375 
L 29.59375 31.296875 
Q 39.15625 29.25 43.1875 25.515625 
Q 47.21875 21.78125 47.21875 15.09375 
Q 47.21875 7.46875 41.1875 3.015625 
Q 35.15625 -1.421875 24.609375 -1.421875 
Q 20.21875 -1.421875 15.453125 -0.5625 
Q 10.6875 0.296875 5.421875 2 
L 5.421875 11.28125 
Q 10.40625 8.6875 15.234375 7.390625 
Q 20.0625 6.109375 24.8125 6.109375 
Q 31.15625 6.109375 34.5625 8.28125 
Q 37.984375 10.453125 37.984375 14.40625 
Q 37.984375 18.0625 35.515625 20.015625 
Q 33.0625 21.96875 24.703125 23.78125 
L 21.578125 24.515625 
Q 13.234375 26.265625 9.515625 29.90625 
Q 5.8125 33.546875 5.8125 39.890625 
Q 5.8125 47.609375 11.28125 51.796875 
Q 16.75 56 26.8125 56 
Q 31.78125 56 36.171875 55.265625 
Q 40.578125 54.546875 44.28125 53.078125 
z
" id="DejaVuSans-115"/>
      <path d="M 18.3125 70.21875 
L 18.3125 54.6875 
L 36.8125 54.6875 
L 36.8125 47.703125 
L 18.3125 47.703125 
L 18.3125 18.015625 
Q 18.3125 11.328125 20.140625 9.421875 
Q 21.96875 7.515625 27.59375 7.515625 
L 36.8125 7.515625 
L 36.8125 0 
L 27.59375 0 
Q 17.1875 0 13.234375 3.875 
Q 9.28125 7.765625 9.28125 18.015625 
L 9.28125 47.703125 
L 2.6875 47.703125 
L 2.6875 54.6875 
L 9.28125 54.6875 
L 9.28125 70.21875 
z
" id="DejaVuSans-116"/>
      <path d="M 34.28125 27.484375 
Q 23.390625 27.484375 19.1875 25 
Q 14.984375 22.515625 14.984375 16.5 
Q 14.984375 11.71875 18.140625 8.90625 
Q 21.296875 6.109375 26.703125 6.109375 
Q 34.1875 6.109375 38.703125 11.40625 
Q 43.21875 16.703125 43.21875 25.484375 
L 43.21875 27.484375 
z
M 52.203125 31.203125 
L 52.203125 0 
L 43.21875 0 
L 43.21875 8.296875 
Q 40.140625 3.328125 35.546875 0.953125 
Q 30.953125 -1.421875 24.3125 -1.421875 
Q 15.921875 -1.421875 10.953125 3.296875 
Q 6 8.015625 6 15.921875 
Q 6 25.140625 12.171875 29.828125 
Q 18.359375 34.515625 30.609375 34.515625 
L 43.21875 34.515625 
L 43.21875 35.40625 
Q 43.21875 41.609375 39.140625 45 
Q 35.0625 48.390625 27.6875 48.390625 
Q 23 48.390625 18.546875 47.265625 
Q 14.109375 46.140625 10.015625 43.890625 
L 10.015625 52.203125 
Q 14.9375 54.109375 19.578125 55.046875 
Q 24.21875 56 28.609375 56 
Q 40.484375 56 46.34375 49.84375 
Q 52.203125 43.703125 52.203125 31.203125 
z
" id="DejaVuSans-97"/>
      <path d="M 18.109375 8.203125 
L 18.109375 -20.796875 
L 9.078125 -20.796875 
L 9.078125 54.6875 
L 18.109375 54.6875 
L 18.109375 46.390625 
Q 20.953125 51.265625 25.265625 53.625 
Q 29.59375 56 35.59375 56 
Q 45.5625 56 51.78125 48.09375 
Q 58.015625 40.1875 58.015625 27.296875 
Q 58.015625 14.40625 51.78125 6.484375 
Q 45.5625 -1.421875 35.59375 -1.421875 
Q 29.59375 -1.421875 25.265625 0.953125 
Q 20.953125 3.328125 18.109375 8.203125 
z
M 48.6875 27.296875 
Q 48.6875 37.203125 44.609375 42.84375 
Q 40.53125 48.484375 33.40625 48.484375 
Q 26.265625 48.484375 22.1875 42.84375 
Q 18.109375 37.203125 18.109375 27.296875 
Q 18.109375 17.390625 22.1875 11.75 
Q 26.265625 6.109375 33.40625 6.109375 
Q 40.53125 6.109375 44.609375 11.75 
Q 48.6875 17.390625 48.6875 27.296875 
z
" id="DejaVuSans-112"/>
     </defs>
     <g transform="translate(414.739062 412.756563)scale(0.1 -0.1)">
      <use xlink:href="#DejaVuSans-84"/>
      <use x="61.037109" xlink:href="#DejaVuSans-105"/>
      <use x="88.820312" xlink:href="#DejaVuSans-109"/>
      <use x="186.232422" xlink:href="#DejaVuSans-101"/>
      <use x="247.755859" xlink:href="#DejaVuSans-115"/>
      <use x="299.855469" xlink:href="#DejaVuSans-116"/>
      <use x="339.064453" xlink:href="#DejaVuSans-97"/>
      <use x="400.34375" xlink:href="#DejaVuSans-109"/>
      <use x="497.755859" xlink:href="#DejaVuSans-112"/>
     </g>
    </g>
   </g>
   <g id="matplotlib.axis_2">
    <g id="ytick_1">
     <g id="line2d_9">
      <defs>
       <path d="M 0 0 
L -3.5 0 
" id="mfa50607d4f" style="stroke:#000000;stroke-width:0.8;"/>
      </defs>
      <g>
       <use style="stroke:#000000;stroke-width:0.8;" x="108" xlink:href="#mfa50607d4f" y="341.551299"/>
      </g>
     </g>
     <g id="text_10">
      <!-- −1000 -->
      <defs>
       <path d="M 10.59375 35.5 
L 73.1875 35.5 
L 73.1875 27.203125 
L 10.59375 27.203125 
z
" id="DejaVuSans-8722"/>
      </defs>
      <g transform="translate(67.170312 345.350518)scale(0.1 -0.1)">
       <use xlink:href="#DejaVuSans-8722"/>
       <use x="83.789062" xlink:href="#DejaVuSans-49"/>
       <use x="147.412109" xlink:href="#DejaVuSans-48"/>
       <use x="211.035156" xlink:href="#DejaVuSans-48"/>
       <use x="274.658203" xlink:href="#DejaVuSans-48"/>
      </g>
     </g>
    </g>
    <g id="ytick_2">
     <g id="line2d_10">
      <g>
       <use style="stroke:#000000;stroke-width:0.8;" x="108" xlink:href="#mfa50607d4f" y="296.264699"/>
      </g>
     </g>
     <g id="text_11">
      <!-- 0 -->
      <g transform="translate(94.6375 300.063918)scale(0.1 -0.1)">
       <use xlink:href="#DejaVuSans-48"/>
      </g>
     </g>
    </g>
    <g id="ytick_3">
     <g id="line2d_11">
      <g>
       <use style="stroke:#000000;stroke-width:0.8;" x="108" xlink:href="#mfa50607d4f" y="250.978099"/>
      </g>
     </g>
     <g id="text_12">
      <!-- 1000 -->
      <g transform="translate(75.55 254.777318)scale(0.1 -0.1)">
       <use xlink:href="#DejaVuSans-49"/>
       <use x="63.623047" xlink:href="#DejaVuSans-48"/>
       <use x="127.246094" xlink:href="#DejaVuSans-48"/>
       <use x="190.869141" xlink:href="#DejaVuSans-48"/>
      </g>
     </g>
    </g>
    <g id="ytick_4">
     <g id="line2d_12">
      <g>
       <use style="stroke:#000000;stroke-width:0.8;" x="108" xlink:href="#mfa50607d4f" y="205.691499"/>
      </g>
     </g>
     <g id="text_13">
      <!-- 2000 -->
      <g transform="translate(75.55 209.490718)scale(0.1 -0.1)">
       <use xlink:href="#DejaVuSans-50"/>
       <use x="63.623047" xlink:href="#DejaVuSans-48"/>
       <use x="127.246094" xlink:href="#DejaVuSans-48"/>
       <use x="190.869141" xlink:href="#DejaVuSans-48"/>
      </g>
     </g>
    </g>
    <g id="ytick_5">
     <g id="line2d_13">
      <g>
       <use style="stroke:#000000;stroke-width:0.8;" x="108" xlink:href="#mfa50607d4f" y="160.404899"/>
      </g>
     </g>
     <g id="text_14">
      <!-- 3000 -->
      <defs>
       <path d="M 40.578125 39.3125 
Q 47.65625 37.796875 51.625 33 
Q 55.609375 28.21875 55.609375 21.1875 
Q 55.609375 10.40625 48.1875 4.484375 
Q 40.765625 -1.421875 27.09375 -1.421875 
Q 22.515625 -1.421875 17.65625 -0.515625 
Q 12.796875 0.390625 7.625 2.203125 
L 7.625 11.71875 
Q 11.71875 9.328125 16.59375 8.109375 
Q 21.484375 6.890625 26.8125 6.890625 
Q 36.078125 6.890625 40.9375 10.546875 
Q 45.796875 14.203125 45.796875 21.1875 
Q 45.796875 27.640625 41.28125 31.265625 
Q 36.765625 34.90625 28.71875 34.90625 
L 20.21875 34.90625 
L 20.21875 43.015625 
L 29.109375 43.015625 
Q 36.375 43.015625 40.234375 45.921875 
Q 44.09375 48.828125 44.09375 54.296875 
Q 44.09375 59.90625 40.109375 62.90625 
Q 36.140625 65.921875 28.71875 65.921875 
Q 24.65625 65.921875 20.015625 65.03125 
Q 15.375 64.15625 9.8125 62.3125 
L 9.8125 71.09375 
Q 15.4375 72.65625 20.34375 73.4375 
Q 25.25 74.21875 29.59375 74.21875 
Q 40.828125 74.21875 47.359375 69.109375 
Q 53.90625 64.015625 53.90625 55.328125 
Q 53.90625 49.265625 50.4375 45.09375 
Q 46.96875 40.921875 40.578125 39.3125 
z
" id="DejaVuSans-51"/>
      </defs>
      <g transform="translate(75.55 164.204118)scale(0.1 -0.1)">
       <use xlink:href="#DejaVuSans-51"/>
       <use x="63.623047" xlink:href="#DejaVuSans-48"/>
       <use x="127.246094" xlink:href="#DejaVuSans-48"/>
       <use x="190.869141" xlink:href="#DejaVuSans-48"/>
      </g>
     </g>
    </g>
    <g id="ytick_6">
     <g id="line2d_14">
      <g>
       <use style="stroke:#000000;stroke-width:0.8;" x="108" xlink:href="#mfa50607d4f" y="115.118299"/>
      </g>
     </g>
     <g id="text_15">
      <!-- 4000 -->
      <g transform="translate(75.55 118.917518)scale(0.1 -0.1)">
       <use xlink:href="#DejaVuSans-52"/>
       <use x="63.623047" xlink:href="#DejaVuSans-48"/>
       <use x="127.246094" xlink:href="#DejaVuSans-48"/>
       <use x="190.869141" xlink:href="#DejaVuSans-48"/>
      </g>
     </g>
    </g>
    <g id="ytick_7">
     <g id="line2d_15">
      <g>
       <use style="stroke:#000000;stroke-width:0.8;" x="108" xlink:href="#mfa50607d4f" y="69.831699"/>
      </g>
     </g>
     <g id="text_16">
      <!-- 5000 -->
      <defs>
       <path d="M 10.796875 72.90625 
L 49.515625 72.90625 
L 49.515625 64.59375 
L 19.828125 64.59375 
L 19.828125 46.734375 
Q 21.96875 47.46875 24.109375 47.828125 
Q 26.265625 48.1875 28.421875 48.1875 
Q 40.625 48.1875 47.75 41.5 
Q 54.890625 34.8125 54.890625 23.390625 
Q 54.890625 11.625 47.5625 5.09375 
Q 40.234375 -1.421875 26.90625 -1.421875 
Q 22.3125 -1.421875 17.546875 -0.640625 
Q 12.796875 0.140625 7.71875 1.703125 
L 7.71875 11.625 
Q 12.109375 9.234375 16.796875 8.0625 
Q 21.484375 6.890625 26.703125 6.890625 
Q 35.15625 6.890625 40.078125 11.328125 
Q 45.015625 15.765625 45.015625 23.390625 
Q 45.015625 31 40.078125 35.4375 
Q 35.15625 39.890625 26.703125 39.890625 
Q 22.75 39.890625 18.8125 39.015625 
Q 14.890625 38.140625 10.796875 36.28125 
z
" id="DejaVuSans-53"/>
      </defs>
      <g transform="translate(75.55 73.630918)scale(0.1 -0.1)">
       <use xlink:href="#DejaVuSans-53"/>
       <use x="63.623047" xlink:href="#DejaVuSans-48"/>
       <use x="127.246094" xlink:href="#DejaVuSans-48"/>
       <use x="190.869141" xlink:href="#DejaVuSans-48"/>
      </g>
     </g>
    </g>
    <g id="text_17">
     <!-- Value -->
     <defs>
      <path d="M 28.609375 0 
L 0.78125 72.90625 
L 11.078125 72.90625 
L 34.1875 11.53125 
L 57.328125 72.90625 
L 67.578125 72.90625 
L 39.796875 0 
z
" id="DejaVuSans-86"/>
      <path d="M 9.421875 75.984375 
L 18.40625 75.984375 
L 18.40625 0 
L 9.421875 0 
z
" id="DejaVuSans-108"/>
      <path d="M 8.5 21.578125 
L 8.5 54.6875 
L 17.484375 54.6875 
L 17.484375 21.921875 
Q 17.484375 14.15625 20.5 10.265625 
Q 23.53125 6.390625 29.59375 6.390625 
Q 36.859375 6.390625 41.078125 11.03125 
Q 45.3125 15.671875 45.3125 23.6875 
L 45.3125 54.6875 
L 54.296875 54.6875 
L 54.296875 0 
L 45.3125 0 
L 45.3125 8.40625 
Q 42.046875 3.421875 37.71875 1 
Q 33.40625 -1.421875 27.6875 -1.421875 
Q 18.265625 -1.421875 13.375 4.4375 
Q 8.5 10.296875 8.5 21.578125 
z
M 31.109375 56 
z
" id="DejaVuSans-117"/>
     </defs>
     <g transform="translate(61.090625 232.273281)rotate(-90)scale(0.1 -0.1)">
      <use xlink:href="#DejaVuSans-86"/>
      <use x="68.298828" xlink:href="#DejaVuSans-97"/>
      <use x="129.578125" xlink:href="#DejaVuSans-108"/>
      <use x="157.361328" xlink:href="#DejaVuSans-117"/>
      <use x="220.740234" xlink:href="#DejaVuSans-101"/>
     </g>
    </g>
   </g>
   <g id="line2d_16">
    <path clip-path="url(#paa9ba89a27)" d="M 138.436364 273.228238 
L 138.865045 298.62161 
L 139.293726 265.091504 
L 139.722407 262.695605 
L 140.151088 274.863583 
L 140.57977 306.987105 
L 141.437132 277.780148 
L 141.865813 269.328828 
L 142.294494 222.425468 
L 143.151857 274.59801 
L 143.580538 278.070349 
L 144.009219 259.732821 
L 144.4379 257.270973 
L 144.866581 256.792227 
L 145.295262 242.348587 
L 145.723944 260.870101 
L 146.152625 234.645116 
L 146.581306 263.060871 
L 147.009987 242.84135 
L 147.438668 230.252647 
L 147.86735 233.182674 
L 148.296031 219.662374 
L 148.724712 234.133694 
L 149.582074 211.554897 
L 150.010755 243.170137 
L 150.439437 253.477801 
L 150.868118 229.006208 
L 151.72548 239.65983 
L 152.154161 237.91057 
L 152.582843 242.253948 
L 153.011524 217.855529 
L 153.440205 210.90213 
L 153.868886 214.742064 
L 154.297567 241.666845 
L 154.726248 212.651729 
L 155.15493 241.645627 
L 155.583611 206.239637 
L 156.440973 250.017158 
L 157.298335 267.175697 
L 157.727017 267.6365 
L 158.155698 279.100315 
L 158.584379 232.23122 
L 159.01306 240.763216 
L 159.441741 262.740545 
L 159.870423 256.610232 
L 160.299104 271.198742 
L 160.727785 223.012515 
L 161.156466 284.84686 
L 161.585147 274.513648 
L 162.013828 272.136459 
L 162.44251 268.6529 
L 162.871191 286.246035 
L 163.299872 326.748636 
L 163.728553 312.572544 
L 164.157234 286.37512 
L 164.585915 296.346501 
L 165.014597 316.466973 
L 165.443278 304.700386 
L 165.871959 320.572809 
L 166.30064 304.504218 
L 166.729321 337.859586 
L 167.158003 308.34721 
L 168.444046 323.215812 
L 168.872727 321.563886 
L 169.301408 340.591509 
L 169.73009 333.425464 
L 170.158771 321.536773 
L 170.587452 315.813327 
L 171.016133 335.272224 
L 171.444814 341.958465 
L 171.873496 358.175087 
L 172.302177 369.36 
L 172.730858 359.214885 
L 173.159539 323.292234 
L 173.58822 333.206952 
L 174.016901 352.210739 
L 174.445583 356.763787 
L 174.874264 357.309771 
L 175.302945 332.072598 
L 175.731626 355.485793 
L 176.160307 327.790416 
L 176.588988 338.799443 
L 177.01767 326.712272 
L 177.446351 365.752436 
L 177.875032 349.150983 
L 178.303713 364.532452 
L 178.732394 336.766577 
L 179.589757 350.323702 
L 180.018438 317.31112 
L 180.447119 337.983269 
L 180.8758 322.277985 
L 181.304481 324.25666 
L 181.733163 350.493627 
L 182.161844 345.36379 
L 182.590525 330.985327 
L 183.019206 349.882761 
L 183.447887 316.282432 
L 183.876569 347.298272 
L 184.30525 291.697463 
L 184.733931 327.382425 
L 185.162612 284.793197 
L 185.591293 319.658439 
L 186.019974 326.643405 
L 186.448656 305.277595 
L 186.877337 301.932425 
L 187.306018 329.586265 
L 187.734699 276.540371 
L 188.16338 312.578921 
L 188.592061 282.70089 
L 189.020743 276.346167 
L 189.449424 279.357381 
L 189.878105 280.560774 
L 190.306786 271.368492 
L 190.735467 290.945929 
L 191.164149 282.739538 
L 191.59283 285.037665 
L 192.021511 232.828912 
L 192.450192 231.096418 
L 193.307554 274.453838 
L 194.164917 218.731088 
L 194.593598 252.032545 
L 195.022279 226.226082 
L 195.45096 255.844884 
L 195.879641 223.204518 
L 196.308323 250.779947 
L 196.737004 253.626491 
L 197.165685 246.616781 
L 197.594366 243.165317 
L 198.023047 242.192948 
L 198.451729 210.637509 
L 198.88041 221.461996 
L 199.309091 227.359369 
L 199.737772 240.154773 
L 200.166453 237.989683 
L 200.595134 232.774888 
L 201.023816 238.633864 
L 201.452497 226.084378 
L 201.881178 209.203101 
L 202.309859 239.21036 
L 202.73854 191.254326 
L 203.167222 242.12835 
L 203.595903 220.601214 
L 204.024584 176.524192 
L 204.881946 226.071305 
L 205.310627 238.431604 
L 205.739309 213.509898 
L 206.16799 225.855689 
L 206.596671 234.127732 
L 207.025352 223.388499 
L 207.454033 240.022009 
L 207.882714 184.985646 
L 208.740077 223.738631 
L 209.168758 227.437597 
L 209.597439 252.852955 
L 210.02612 229.61532 
L 210.454802 254.832727 
L 210.883483 269.696123 
L 211.312164 220.157067 
L 211.740845 274.260468 
L 212.169526 265.828366 
L 213.026889 284.020518 
L 213.45557 259.16647 
L 213.884251 300.958325 
L 214.312932 280.293961 
L 214.741613 290.243485 
L 215.170294 308.319629 
L 215.598976 287.598866 
L 216.027657 297.366956 
L 216.456338 303.486087 
L 216.885019 278.061129 
L 217.3137 289.30497 
L 217.742382 303.651059 
L 218.171063 302.132124 
L 218.599744 321.251159 
L 219.028425 314.319257 
L 219.457106 293.354202 
L 219.885787 316.278061 
L 220.314469 315.530017 
L 220.74315 284.075335 
L 221.171831 335.876262 
L 221.600512 307.770652 
L 222.029193 294.687548 
L 222.457875 348.368671 
L 222.886556 330.415471 
L 223.315237 339.355002 
L 223.743918 342.567995 
L 224.172599 353.862385 
L 224.60128 352.198865 
L 225.029962 313.753797 
L 225.458643 326.73147 
L 225.887324 323.965396 
L 226.316005 310.12809 
L 226.744686 345.22684 
L 227.173367 323.765502 
L 227.602049 339.519463 
L 228.03073 347.16907 
L 228.459411 320.7148 
L 229.316773 355.302065 
L 229.745455 339.214177 
L 230.174136 306.504598 
L 230.602817 310.978561 
L 231.031498 357.180709 
L 231.460179 327.267569 
L 231.88886 311.730679 
L 232.317542 354.603466 
L 232.746223 297.36252 
L 233.174904 330.478759 
L 233.603585 313.146306 
L 234.032266 319.170251 
L 234.460948 284.34709 
L 234.889629 336.976798 
L 235.31831 309.914231 
L 235.746991 323.82157 
L 236.604353 257.583972 
L 237.033035 322.3438 
L 237.461716 292.672737 
L 237.890397 290.885088 
L 238.319078 256.830141 
L 238.747759 299.235909 
L 239.605122 243.683049 
L 240.033803 275.767236 
L 240.462484 280.387844 
L 241.319846 251.58353 
L 241.748528 275.695442 
L 242.177209 224.608749 
L 242.60589 250.522902 
L 243.034571 300.129913 
L 243.463252 264.30283 
L 243.891933 212.989253 
L 244.320615 255.813262 
L 244.749296 236.991734 
L 245.177977 231.549425 
L 245.606658 258.604586 
L 246.035339 218.092936 
L 246.46402 216.876399 
L 246.892702 188.156491 
L 247.750064 216.423071 
L 248.178745 217.487382 
L 248.607426 203.21541 
L 249.036108 228.727628 
L 249.464789 209.250016 
L 250.322151 198.774207 
L 250.750832 228.427387 
L 251.179513 180.50471 
L 251.608195 193.719458 
L 252.036876 160.527264 
L 252.465557 240.143658 
L 252.894238 216.475238 
L 253.322919 237.021458 
L 253.751601 213.831391 
L 254.180282 201.030639 
L 254.608963 176.396086 
L 255.037644 216.19139 
L 255.466325 230.901344 
L 256.323688 200.34581 
L 256.752369 209.807036 
L 257.18105 190.80985 
L 258.038412 248.412388 
L 258.467093 203.277919 
L 258.895775 242.980709 
L 259.324456 213.898473 
L 260.181818 223.417424 
L 260.610499 201.494425 
L 261.039181 239.314449 
L 261.467862 262.296353 
L 261.896543 240.218547 
L 262.325224 248.596696 
L 263.182586 220.905849 
L 263.611268 286.605996 
L 264.039949 260.863206 
L 264.46863 258.940146 
L 264.897311 253.491645 
L 265.325992 279.392771 
L 265.754673 262.908487 
L 266.183355 266.326301 
L 266.612036 276.708442 
L 267.040717 281.94463 
L 267.469398 256.210855 
L 267.898079 273.721851 
L 268.326761 253.48785 
L 268.755442 296.891823 
L 269.184123 317.521604 
L 269.612804 304.93757 
L 270.041485 298.72206 
L 270.470166 307.459148 
L 270.898848 313.140524 
L 271.327529 336.720617 
L 271.75621 324.85152 
L 272.184891 332.446361 
L 272.613572 308.970407 
L 273.042254 310.197053 
L 273.470935 290.240982 
L 273.899616 325.775141 
L 274.328297 304.001985 
L 274.756978 331.200235 
L 275.185659 351.114516 
L 275.614341 316.651989 
L 276.043022 334.745385 
L 276.471703 341.059846 
L 276.900384 340.062885 
L 277.329065 306.777583 
L 277.757746 298.070086 
L 278.186428 308.215491 
L 279.04379 349.525125 
L 279.472471 321.049593 
L 279.901152 304.046248 
L 280.329834 308.060246 
L 280.758515 316.385908 
L 281.187196 316.72439 
L 281.615877 334.577776 
L 282.044558 309.535773 
L 282.473239 314.763371 
L 282.901921 312.57244 
L 283.330602 315.358637 
L 283.759283 330.464432 
L 284.187964 317.808861 
L 284.616645 290.614966 
L 285.045327 301.180754 
L 285.474008 298.868939 
L 285.902689 299.659348 
L 286.33137 267.883597 
L 286.760051 289.934413 
L 287.188732 282.614428 
L 287.617414 281.226023 
L 288.046095 298.159252 
L 288.474776 278.549213 
L 288.903457 250.600056 
L 289.332138 262.241558 
L 289.760819 293.492073 
L 290.189501 262.26214 
L 290.618182 250.032854 
L 291.046863 258.095376 
L 291.475544 239.063944 
L 292.332907 265.521974 
L 292.761588 229.812059 
L 293.190269 234.964032 
L 293.61895 226.592375 
L 294.047631 214.355634 
L 294.476312 226.544215 
L 294.904994 256.67582 
L 295.333675 221.927095 
L 295.762356 251.00156 
L 296.191037 228.15704 
L 296.619718 198.555609 
L 297.048399 244.603225 
L 297.477081 209.035287 
L 297.905762 219.76337 
L 298.334443 212.063923 
L 298.763124 186.896614 
L 299.191805 194.524693 
L 299.620487 177.636884 
L 300.049168 220.220037 
L 300.477849 214.092848 
L 300.90653 210.84396 
L 301.335211 198.489078 
L 301.763892 213.502143 
L 302.192574 209.548329 
L 302.621255 211.884488 
L 303.049936 182.917653 
L 303.478617 183.809727 
L 303.907298 177.195785 
L 304.33598 145.744952 
L 304.764661 197.770161 
L 305.193342 182.650567 
L 305.622023 136.540031 
L 306.050704 186.616276 
L 306.479385 199.157383 
L 306.908067 216.835849 
L 307.336748 210.535807 
L 307.765429 232.866672 
L 308.19411 232.496687 
L 308.622791 213.186287 
L 309.051472 202.064023 
L 309.480154 209.293813 
L 309.908835 219.405114 
L 310.337516 247.776206 
L 310.766197 205.30029 
L 311.194878 211.56355 
L 311.62356 193.291573 
L 312.052241 259.188666 
L 312.480922 233.603665 
L 312.909603 199.598916 
L 313.338284 232.326613 
L 313.766965 212.416257 
L 314.195647 230.288313 
L 314.624328 241.438605 
L 315.053009 230.546225 
L 315.48169 283.10276 
L 315.910371 259.834723 
L 316.339052 245.917006 
L 316.767734 235.828204 
L 317.625096 263.116078 
L 318.053777 249.097545 
L 318.91114 296.089293 
L 319.339821 279.486742 
L 319.768502 284.942652 
L 320.197183 278.109886 
L 320.625864 294.516551 
L 321.054545 278.416681 
L 321.483227 255.408833 
L 321.911908 327.925424 
L 322.340589 287.027746 
L 322.76927 312.969104 
L 323.197951 313.345804 
L 323.626633 336.839353 
L 324.055314 310.357779 
L 324.483995 301.213758 
L 324.912676 334.694172 
L 325.341357 274.898061 
L 325.770038 325.059126 
L 326.19872 353.643875 
L 327.056082 271.028694 
L 327.484763 285.225853 
L 327.913444 291.316483 
L 328.342125 300.309088 
L 328.770807 306.199941 
L 330.05685 353.708654 
L 330.485531 333.977607 
L 330.914213 344.006507 
L 331.342894 328.459154 
L 331.771575 296.00726 
L 332.200256 323.854692 
L 332.628937 334.117346 
L 333.057618 322.067833 
L 333.4863 333.693509 
L 333.914981 285.828359 
L 334.343662 325.486919 
L 334.772343 298.51059 
L 336.058387 253.683791 
L 336.487068 317.218164 
L 336.915749 265.537225 
L 337.34443 289.414831 
L 337.773111 279.483619 
L 338.201793 246.738453 
L 338.630474 280.801124 
L 339.059155 254.131319 
L 339.487836 264.810386 
L 339.916517 268.613456 
L 340.345198 230.666728 
L 340.77388 256.911033 
L 341.202561 253.22764 
L 341.631242 233.255342 
L 342.059923 225.820988 
L 342.488604 255.763949 
L 342.917286 214.748529 
L 343.345967 243.737623 
L 343.774648 244.946633 
L 344.203329 267.929968 
L 344.63201 224.975914 
L 345.060691 213.421959 
L 345.489373 228.949162 
L 345.918054 190.555411 
L 346.775416 205.616782 
L 347.204097 171.925539 
L 347.632778 229.478203 
L 348.06146 194.573381 
L 348.490141 182.101118 
L 348.918822 213.371246 
L 349.347503 197.941262 
L 349.776184 192.421581 
L 350.204866 197.773432 
L 350.633547 186.87049 
L 351.062228 189.552103 
L 351.490909 200.612878 
L 351.91959 170.631484 
L 352.348271 194.046927 
L 352.776953 194.243792 
L 353.634315 151.196684 
L 354.062996 213.790655 
L 354.491677 178.21395 
L 354.920359 174.77537 
L 355.34904 181.819431 
L 355.777721 136.391067 
L 356.206402 160.765901 
L 356.635083 194.184453 
L 357.063764 196.882877 
L 357.492446 170.151089 
L 357.921127 169.836063 
L 358.349808 176.602986 
L 358.778489 202.339032 
L 359.20717 183.409208 
L 359.635851 196.577694 
L 360.064533 163.709393 
L 360.493214 215.081228 
L 360.921895 201.340244 
L 361.350576 223.042113 
L 361.779257 224.868945 
L 362.207939 209.663615 
L 363.065301 224.486815 
L 363.493982 190.249966 
L 363.922663 219.8386 
L 364.351344 200.57538 
L 364.780026 245.488662 
L 365.208707 235.319295 
L 365.637388 259.576266 
L 366.066069 211.160192 
L 366.49475 258.408125 
L 366.923431 217.079258 
L 367.352113 265.111501 
L 367.780794 252.073272 
L 368.209475 305.791693 
L 368.638156 261.251504 
L 369.066837 259.647483 
L 369.495519 297.861092 
L 369.9242 271.272175 
L 370.352881 275.306006 
L 370.781562 305.305542 
L 371.210243 258.381722 
L 371.638924 299.432121 
L 372.496287 272.258134 
L 372.924968 294.423818 
L 373.353649 273.61656 
L 373.78233 286.913388 
L 374.211012 264.21279 
L 374.639693 305.114881 
L 375.068374 315.850275 
L 375.497055 289.796092 
L 375.925736 301.23002 
L 376.354417 304.271644 
L 376.783099 290.941896 
L 377.21178 292.036909 
L 377.640461 301.211568 
L 378.069142 290.560514 
L 378.497823 288.746288 
L 378.926504 287.49037 
L 379.355186 285.093069 
L 379.783867 278.95869 
L 380.212548 304.580949 
L 380.641229 309.562033 
L 381.06991 323.14792 
L 381.498592 304.292826 
L 381.927273 315.752619 
L 382.355954 290.226857 
L 382.784635 299.913356 
L 383.641997 310.776 
L 384.070679 290.05838 
L 384.928041 309.841459 
L 385.356722 310.2839 
L 385.785403 262.244352 
L 386.214085 291.983501 
L 386.642766 290.848138 
L 387.071447 279.51621 
L 387.500128 281.770654 
L 388.35749 270.936391 
L 388.786172 273.054842 
L 389.214853 278.743535 
L 389.643534 242.610238 
L 390.072215 254.2238 
L 390.500896 275.081739 
L 390.929577 230.803459 
L 391.358259 273.59278 
L 391.78694 245.824561 
L 392.215621 240.291877 
L 392.644302 248.646758 
L 393.072983 222.929925 
L 393.501665 252.062587 
L 393.930346 193.73643 
L 394.359027 211.29752 
L 394.787708 183.7931 
L 395.216389 199.715705 
L 395.64507 238.884256 
L 396.073752 193.368867 
L 396.502433 193.96114 
L 396.931114 180.547983 
L 397.359795 176.83954 
L 397.788476 185.32255 
L 398.217157 179.576414 
L 398.645839 199.111028 
L 399.07452 157.454751 
L 399.503201 216.047583 
L 399.931882 216.097813 
L 400.360563 203.483395 
L 400.789245 161.739226 
L 401.217926 196.766021 
L 401.646607 182.177238 
L 402.075288 172.417064 
L 402.503969 181.593695 
L 402.93265 209.723882 
L 403.361332 149.894729 
L 403.790013 171.902112 
L 404.218694 160.46092 
L 405.076056 179.43036 
L 405.933419 155.414529 
L 406.3621 198.058226 
L 406.790781 192.366065 
L 407.219462 148.540528 
L 407.648143 189.618395 
L 408.076825 174.052099 
L 408.505506 201.593694 
L 408.934187 164.653822 
L 409.362868 167.998465 
L 409.791549 185.489859 
L 410.22023 154.29601 
L 410.648912 193.869223 
L 411.077593 192.103436 
L 411.506274 169.137618 
L 411.934955 183.266162 
L 412.363636 178.693302 
L 412.792318 170.211249 
L 413.220999 195.179455 
L 413.64968 190.674327 
L 414.078361 217.051006 
L 414.507042 199.986563 
L 414.935723 217.112374 
L 415.364405 191.455543 
L 415.793086 218.668632 
L 416.221767 220.469534 
L 416.650448 224.320123 
L 417.079129 264.459101 
L 417.50781 248.80516 
L 417.936492 198.374733 
L 418.365173 224.459307 
L 418.793854 239.800375 
L 419.222535 246.600701 
L 419.651216 249.83053 
L 420.079898 242.028489 
L 420.508579 105.816123 
L 420.93726 105.816123 
L 421.365941 261.528941 
L 421.794622 284.602138 
L 422.651985 257.927835 
L 423.080666 295.974286 
L 423.509347 253.601291 
L 423.938028 253.007834 
L 424.366709 276.762195 
L 424.795391 273.728179 
L 425.224072 256.124477 
L 425.652753 292.836244 
L 426.081434 300.84417 
L 426.510115 306.184869 
L 426.938796 304.243363 
L 427.367478 300.560617 
L 427.796159 281.826356 
L 428.22484 306.481905 
L 428.653521 294.923922 
L 429.082202 287.554199 
L 429.510883 314.00185 
L 429.939565 264.891674 
L 430.368246 266.796214 
L 430.796927 323.029679 
L 431.225608 298.569223 
L 431.654289 295.906132 
L 432.082971 285.232641 
L 432.511652 308.605679 
L 432.940333 292.966331 
L 433.369014 270.575429 
L 433.797695 265.2953 
L 434.226376 277.468572 
L 434.655058 273.696569 
L 435.083739 289.597615 
L 435.51242 283.776744 
L 435.941101 252.374749 
L 436.369782 269.90048 
L 436.798464 280.957334 
L 437.227145 236.245277 
L 437.655826 273.792859 
L 438.084507 239.793406 
L 438.513188 246.800771 
L 438.941869 247.419291 
L 439.370551 256.819956 
L 439.799232 231.876199 
L 440.227913 274.520267 
L 441.513956 231.764212 
L 441.942638 229.307205 
L 442.371319 232.924005 
L 442.8 229.562024 
L 443.228681 212.245798 
L 443.657362 229.347351 
L 444.086044 253.654066 
L 444.514725 210.397672 
L 444.943406 191.424978 
L 445.372087 185.970345 
L 445.800768 205.799978 
L 446.229449 198.406329 
L 446.658131 166.712609 
L 447.086812 202.807807 
L 447.944174 176.491809 
L 448.372855 194.266917 
L 448.801536 188.336891 
L 449.230218 167.092239 
L 449.658899 188.140211 
L 450.08758 164.468281 
L 450.516261 192.385729 
L 450.944942 205.311506 
L 451.373624 155.588761 
L 451.802305 167.593037 
L 452.230986 171.577139 
L 452.659667 171.815645 
L 453.088348 143.150986 
L 453.517029 179.883216 
L 453.945711 141.916134 
L 454.374392 177.565052 
L 454.803073 160.727002 
L 455.231754 161.828072 
L 455.660435 147.394098 
L 456.089117 190.13544 
L 456.517798 162.771983 
L 456.946479 161.049891 
L 457.803841 139.513268 
L 458.232522 178.669576 
L 458.661204 156.004568 
L 459.089885 155.080974 
L 459.518566 143.150607 
L 459.947247 167.846536 
L 460.375928 147.150233 
L 460.804609 168.292356 
L 461.233291 177.256626 
L 461.661972 164.761164 
L 462.090653 171.21473 
L 462.519334 171.793093 
L 462.948015 163.060906 
L 463.376697 189.14048 
L 464.234059 193.21621 
L 464.66274 172.956067 
L 465.091421 160.004847 
L 465.520102 180.963376 
L 465.948784 182.733957 
L 466.377465 172.630623 
L 466.806146 218.335508 
L 467.234827 237.885665 
L 467.663508 234.601175 
L 468.09219 213.079684 
L 468.520871 220.539904 
L 468.949552 273.541152 
L 469.378233 205.934319 
L 469.806914 234.661976 
L 470.235595 234.876441 
L 470.664277 229.594755 
L 471.092958 263.833287 
L 471.521639 255.900368 
L 471.95032 227.232075 
L 472.379001 213.042065 
L 472.807682 239.152517 
L 473.236364 240.904933 
L 473.665045 287.901827 
L 474.093726 240.220101 
L 474.522407 241.27372 
L 474.951088 270.320441 
L 475.37977 262.538932 
L 475.808451 251.118159 
L 476.237132 230.593334 
L 476.665813 291.480556 
L 477.094494 254.118235 
L 477.523175 249.131494 
L 477.951857 258.690327 
L 478.380538 270.966403 
L 478.809219 279.879058 
L 479.2379 274.780938 
L 479.666581 262.478735 
L 480.095262 298.128942 
L 480.523944 300.871316 
L 480.952625 291.537017 
L 481.381306 304.24223 
L 481.809987 308.283464 
L 482.238668 252.330404 
L 482.66735 293.31134 
L 483.096031 284.83033 
L 483.524712 295.162377 
L 483.953393 263.961755 
L 484.382074 262.237757 
L 484.810755 248.637995 
L 485.239437 276.839928 
L 485.668118 243.99167 
L 486.096799 261.973351 
L 486.52548 285.853152 
L 486.954161 238.995951 
L 487.382843 229.945175 
L 487.811524 240.263069 
L 488.240205 259.932706 
L 488.668886 273.709369 
L 489.097567 245.684098 
L 489.526248 267.783391 
L 489.95493 273.183525 
L 490.383611 224.275781 
L 490.812292 239.242952 
L 491.240973 237.749443 
L 491.669654 238.831097 
L 492.098335 199.859349 
L 492.527017 249.104215 
L 493.384379 203.124011 
L 493.81306 204.666347 
L 494.241741 217.65599 
L 494.670423 204.158713 
L 495.099104 203.110567 
L 495.527785 165.661524 
L 495.956466 191.02327 
L 496.385147 201.489254 
L 496.813828 164.822809 
L 497.24251 206.321258 
L 497.671191 170.367461 
L 498.099872 154.797828 
L 498.528553 195.42633 
L 498.957234 165.580511 
L 499.385915 151.522736 
L 499.814597 145.938788 
L 500.671959 126.664592 
L 501.10064 155.697807 
L 501.529321 172.698843 
L 501.958003 169.189014 
L 502.386684 141.106236 
L 502.815365 180.737337 
L 503.244046 141.696183 
L 503.672727 170.527549 
L 504.101408 165.299776 
L 504.53009 141.405758 
L 504.958771 157.613707 
L 505.387452 161.418441 
L 505.816133 158.07309 
L 506.244814 120.121568 
L 506.673496 170.753349 
L 507.102177 144.051413 
L 507.530858 154.864737 
L 507.959539 93.137518 
L 508.38822 150.498493 
L 508.816901 115.473774 
L 509.245583 133.880407 
L 509.674264 179.230123 
L 510.102945 142.803205 
L 510.531626 141.059093 
L 510.960307 154.932983 
L 511.388988 192.679754 
L 511.81767 118.444016 
L 512.246351 164.750205 
L 512.675032 189.039904 
L 513.103713 143.299952 
L 513.532394 172.951147 
L 513.961076 166.609147 
L 514.818438 209.098866 
L 515.247119 182.506378 
L 515.6758 168.792014 
L 516.104481 185.773797 
L 516.533163 188.059179 
L 516.961844 187.672662 
L 517.390525 187.656798 
L 517.819206 202.867201 
L 518.247887 206.869505 
L 518.676569 217.945425 
L 519.10525 232.982934 
L 519.533931 237.329484 
L 519.962612 228.673658 
L 520.391293 231.099869 
L 520.819974 227.905722 
L 521.248656 112.612174 
L 521.677337 112.612174 
L 522.106018 202.874093 
L 522.534699 226.295641 
L 522.96338 231.194197 
L 523.392061 239.182862 
L 523.820743 258.109048 
L 524.249424 254.796719 
L 524.678105 253.279525 
L 525.106786 247.322386 
L 525.535467 251.802085 
L 525.964149 220.489179 
L 526.39283 261.455519 
L 526.821511 270.718859 
L 527.250192 288.576586 
L 527.678873 278.530016 
L 528.107554 214.589713 
L 528.536236 257.440392 
L 528.964917 247.49518 
L 529.393598 261.105466 
L 529.822279 262.357088 
L 530.25096 269.13537 
L 531.108323 240.436395 
L 531.537004 250.299761 
L 531.965685 270.524711 
L 532.394366 264.209882 
L 532.823047 291.924007 
L 533.251729 244.221634 
L 533.68041 231.075256 
L 534.109091 290.398411 
L 534.537772 262.060433 
L 534.966453 276.323257 
L 535.395134 280.52918 
L 535.823816 237.65943 
L 536.252497 234.010588 
L 536.681178 216.315459 
L 537.109859 241.933059 
L 537.53854 281.815665 
L 537.967222 237.39794 
L 538.395903 256.322932 
L 539.253265 233.861324 
L 539.681946 234.084792 
L 540.110627 217.95206 
L 540.539309 241.198879 
L 540.96799 238.444158 
L 541.825352 203.687248 
L 542.254033 223.407777 
L 542.682714 225.047642 
L 543.111396 227.823659 
L 543.540077 219.669647 
L 543.968758 207.723031 
L 544.397439 220.277412 
L 544.82612 183.089869 
L 545.254802 229.537627 
L 545.683483 191.561526 
L 546.112164 211.603042 
L 546.540845 159.921552 
L 546.969526 187.982422 
L 547.398207 154.95721 
L 547.826889 179.89172 
L 548.25557 173.030525 
L 548.684251 184.683451 
L 549.112932 219.198168 
L 549.541613 130.504339 
L 549.970294 183.310078 
L 550.398976 108.500388 
L 550.827657 146.694158 
L 551.256338 160.530805 
L 551.685019 135.358768 
L 552.1137 129.98925 
L 552.542382 148.199001 
L 552.971063 139.820679 
L 553.399744 107.210216 
L 553.828425 164.760503 
L 554.257106 138.847983 
L 554.685787 122.421753 
L 555.114469 161.580815 
L 555.54315 167.640088 
L 555.971831 109.948321 
L 556.400512 147.709838 
L 556.829193 152.735196 
L 557.257875 134.495395 
L 557.686556 144.02742 
L 558.115237 144.409311 
L 558.543918 160.521811 
L 558.972599 151.877358 
L 559.40128 120.820831 
L 559.829962 128.138927 
L 560.258643 149.954711 
L 560.687324 95.832944 
L 561.116005 114.291415 
L 561.544686 156.246 
L 561.973367 146.393477 
L 562.402049 205.327561 
L 562.83073 131.251087 
L 563.259411 140.683242 
L 563.688092 162.214978 
L 564.545455 156.633169 
L 564.974136 142.396585 
L 565.402817 181.25875 
L 565.831498 147.140016 
L 566.260179 155.725472 
L 566.68886 185.229244 
L 567.117542 180.743635 
L 567.546223 145.230735 
L 567.974904 184.687959 
L 568.403585 210.291998 
L 568.832266 215.043682 
L 569.260948 192.810986 
L 569.689629 190.468131 
L 570.11831 193.52776 
L 570.546991 206.128853 
L 570.975672 240.431103 
L 571.833035 194.096513 
L 572.261716 256.165083 
L 572.690397 205.941632 
L 573.119078 246.832406 
L 573.547759 226.972788 
L 573.97644 251.311802 
L 574.405122 213.662455 
L 574.833803 241.968156 
L 575.262484 226.073068 
L 575.691165 250.683388 
L 576.548528 268.026462 
L 576.977209 263.635345 
L 577.40589 250.976882 
L 577.834571 221.115418 
L 578.263252 237.520437 
L 578.691933 260.893921 
L 579.120615 246.216388 
L 579.549296 269.852504 
L 579.977977 263.790935 
L 580.406658 250.5205 
L 580.835339 205.2362 
L 581.26402 250.229339 
L 581.692702 252.816501 
L 582.121383 296.513042 
L 582.550064 233.229221 
L 582.978745 231.618266 
L 583.407426 283.293699 
L 583.836108 253.213984 
L 584.264789 267.545002 
L 584.69347 249.183132 
L 585.122151 259.269997 
L 585.550832 230.2139 
L 585.979513 243.376633 
L 586.408195 244.115374 
L 586.836876 236.809016 
L 587.265557 274.889556 
L 587.694238 261.095003 
L 588.122919 212.691717 
L 588.551601 231.657842 
L 588.980282 225.207199 
L 589.408963 255.48713 
L 589.837644 187.761361 
L 590.266325 234.148134 
L 590.695006 212.550609 
L 591.123688 223.093743 
L 591.552369 198.446734 
L 591.98105 228.552186 
L 592.409731 190.875004 
L 592.838412 187.200736 
L 593.267093 216.404847 
L 593.695775 228.745078 
L 594.124456 187.915542 
L 594.553137 234.380498 
L 594.981818 175.009323 
L 595.839181 167.0316 
L 596.267862 184.126022 
L 596.696543 141.383826 
L 597.125224 173.823292 
L 597.553905 185.45181 
L 597.982586 171.606128 
L 598.411268 184.283347 
L 598.839949 181.418351 
L 599.26863 151.445377 
L 599.697311 151.353741 
L 600.125992 159.124327 
L 600.554673 150.558839 
L 600.983355 146.768749 
L 601.412036 146.99216 
L 601.840717 106.910128 
L 602.269398 147.553825 
L 602.698079 122.148419 
L 603.126761 138.874442 
L 603.555442 150.156951 
L 603.984123 146.272787 
L 604.412804 124.865879 
L 604.841485 136.761539 
L 605.270166 122.335095 
L 605.698848 118.02222 
L 606.127529 110.029572 
L 606.55621 141.344616 
L 606.984891 97.502362 
L 607.413572 156.74564 
L 607.842254 156.786581 
L 608.270935 101.28783 
L 608.699616 99.612503 
L 609.128297 143.591141 
L 609.556978 114.145997 
L 609.985659 148.119464 
L 610.414341 95.948951 
L 610.843022 124.853111 
L 611.700384 134.926283 
L 612.129065 152.922909 
L 612.557746 116.701863 
L 612.986428 133.944683 
L 613.415109 127.003952 
L 613.84379 152.884997 
L 614.272471 148.214395 
L 614.701152 138.517684 
L 615.129834 177.201807 
L 615.558515 165.286962 
L 615.987196 162.143565 
L 616.415877 143.334591 
L 616.844558 173.780589 
L 617.273239 179.335946 
L 617.701921 155.041786 
L 618.130602 179.542243 
L 618.559283 150.508229 
L 618.987964 202.843389 
L 619.416645 182.196316 
L 619.845327 193.161378 
L 620.274008 191.268699 
L 620.702689 172.018658 
L 621.13137 175.508463 
L 621.988732 228.79679 
L 622.417414 211.877017 
L 622.846095 176.790318 
L 623.274776 204.45978 
L 623.703457 223.120664 
L 624.989501 182.118239 
L 625.846863 238.902247 
L 626.275544 182.021163 
L 626.704225 224.109079 
L 627.132907 202.112286 
L 627.561588 206.353891 
L 627.990269 268.939822 
L 628.41895 203.925406 
L 628.847631 237.361136 
L 629.276312 252.068426 
L 629.704994 236.821617 
L 630.133675 237.863608 
L 630.562356 239.869149 
L 630.991037 243.846478 
L 631.419718 214.520939 
L 631.848399 223.546429 
L 632.277081 236.462694 
L 632.705762 253.269776 
L 633.134443 220.045334 
L 633.563124 229.876825 
L 633.991805 249.579581 
L 634.420487 250.309369 
L 634.849168 245.047045 
L 635.277849 242.485845 
L 636.135211 221.145172 
L 636.563892 231.775521 
L 636.992574 264.749407 
L 637.421255 225.945845 
L 637.849936 210.418442 
L 638.278617 252.219535 
L 638.707298 260.57517 
L 639.13598 209.528977 
L 639.564661 228.451386 
L 639.993342 209.517021 
L 640.422023 220.462197 
L 640.850704 181.701111 
L 641.708067 195.46984 
L 642.99411 177.223856 
L 643.422791 211.354513 
L 643.851472 162.245645 
L 644.280154 213.501611 
L 644.708835 223.374489 
L 645.137516 184.266064 
L 645.566197 165.930422 
L 645.994878 166.669252 
L 646.42356 159.819582 
L 646.852241 165.093821 
L 647.280922 174.503033 
L 647.709603 157.56054 
L 648.138284 124.026759 
L 648.566965 158.557112 
L 648.995647 141.32156 
L 649.424328 138.222826 
L 649.853009 121.863563 
L 650.28169 160.969319 
L 651.139052 130.206347 
L 651.567734 140.419298 
L 651.996415 126.912925 
L 652.425096 132.390336 
L 653.282458 152.79496 
L 653.71114 106.41426 
L 654.139821 117.507257 
L 654.568502 103.946791 
L 654.997183 158.091829 
L 655.425864 95.494526 
L 656.283227 120.792532 
L 656.711908 101.884738 
L 657.140589 105.864345 
L 657.56927 98.942685 
L 657.997951 100.438918 
L 658.426633 106.870395 
L 658.855314 107.284142 
L 659.283995 121.071811 
L 659.712676 102.133838 
L 660.141357 120.657651 
L 660.570038 87.831837 
L 660.99872 110.610906 
L 661.427401 87.366448 
L 661.856082 121.173532 
L 662.284763 119.887021 
L 662.713444 102.424804 
L 663.142125 98.833121 
L 663.570807 141.868637 
L 663.999488 108.004768 
L 664.428169 105.43031 
L 664.85685 135.63215 
L 665.285531 117.207491 
L 665.714213 144.320013 
L 666.142894 144.735729 
L 666.571575 141.027279 
L 667.000256 153.285284 
L 667.428937 116.711919 
L 667.857618 147.270055 
L 668.2863 157.225727 
L 668.714981 182.360002 
L 669.143662 154.558816 
L 669.572343 173.074177 
L 670.001024 169.714712 
L 670.429706 171.905691 
L 670.858387 199.192135 
L 671.287068 163.616336 
L 671.715749 171.501926 
L 672.14443 171.134052 
L 673.001793 218.850737 
L 673.430474 152.794961 
L 673.859155 165.596917 
L 674.287836 202.579249 
L 674.716517 223.442491 
L 675.145198 203.497394 
L 675.57388 203.736366 
L 676.002561 243.35594 
L 676.431242 213.427698 
L 676.859923 209.29053 
L 677.288604 182.440952 
L 677.717286 235.491505 
L 678.145967 173.692291 
L 679.003329 222.422327 
L 679.43201 229.763415 
L 680.289373 202.783446 
L 680.718054 200.995299 
L 681.575416 243.259506 
L 682.004097 209.720388 
L 682.432778 211.266854 
L 682.86146 241.400344 
L 683.290141 250.009339 
L 683.718822 233.165284 
L 684.147503 224.246525 
L 684.576184 234.449321 
L 685.004866 248.704983 
L 685.433547 244.433447 
L 685.862228 213.24606 
L 686.290909 214.647997 
L 686.71959 219.744987 
L 687.148271 236.397003 
L 687.576953 225.778239 
L 688.005634 241.632973 
L 688.434315 203.011586 
L 688.862996 249.810614 
L 689.291677 219.573318 
L 689.720359 217.196449 
L 690.14904 221.987243 
L 690.577721 163.053581 
L 691.006402 164.905615 
L 691.435083 211.691019 
L 691.863764 191.347504 
L 692.292446 190.452445 
L 693.149808 181.290192 
L 693.578489 199.170045 
L 694.00717 223.024015 
L 694.435851 188.47872 
L 694.864533 164.776949 
L 695.293214 184.087174 
L 695.721895 164.190872 
L 696.150576 180.881587 
L 696.579257 159.186608 
L 697.007939 151.023479 
L 697.43662 154.957802 
L 697.865301 171.702649 
L 698.293982 128.218991 
L 699.151344 166.07362 
L 700.008707 134.654639 
L 700.866069 163.578185 
L 701.723431 126.512047 
L 702.152113 120.525838 
L 702.580794 92.468125 
L 703.009475 129.193714 
L 703.438156 130.737519 
L 703.866837 124.963359 
L 704.295519 92.508233 
L 704.7242 124.183169 
L 705.152881 109.0383 
L 705.581562 67.177652 
L 706.010243 126.821856 
L 706.867606 109.436933 
L 707.296287 129.448003 
L 707.724968 95.864836 
L 708.153649 136.623476 
L 708.58233 105.609446 
L 709.011012 114.121584 
L 709.439693 111.182459 
L 709.868374 77.783565 
L 710.297055 85.902383 
L 710.725736 66.96 
L 711.583099 97.706796 
L 712.01178 112.964129 
L 712.440461 98.537162 
L 712.869142 98.732116 
L 713.297823 110.635834 
L 713.726504 134.019301 
L 714.155186 95.550207 
L 714.583867 125.616002 
L 715.012548 135.719412 
L 715.441229 114.266317 
L 715.86991 124.8043 
L 716.298592 102.435058 
L 716.727273 129.914501 
L 717.155954 104.62113 
L 717.584635 122.425759 
L 718.013316 126.901345 
L 718.441997 137.590799 
L 718.870679 114.827335 
L 719.29936 147.854861 
L 719.728041 154.726188 
L 720.156722 142.073906 
L 720.585403 145.435535 
L 721.014085 116.030719 
L 721.442766 156.622145 
L 721.871447 144.257623 
L 722.300128 162.913722 
L 722.728809 137.497177 
L 723.15749 158.301849 
L 723.586172 160.008922 
L 724.014853 169.765797 
L 724.443534 194.681288 
L 724.872215 192.191575 
L 725.300896 173.990525 
L 725.729577 205.817117 
L 726.158259 167.529483 
L 726.58694 216.069411 
L 727.015621 216.75398 
L 727.444302 218.553097 
L 728.301665 182.614805 
L 728.730346 233.023754 
L 729.159027 214.048092 
L 729.587708 207.235348 
L 730.016389 239.104885 
L 730.44507 216.593306 
L 730.873752 216.927034 
L 731.302433 195.745274 
L 731.731114 203.597364 
L 732.159795 240.436808 
L 732.588476 238.124396 
L 733.017157 231.610628 
L 733.445839 256.824362 
L 733.87452 239.917792 
L 734.303201 204.144522 
L 734.731882 226.03184 
L 735.160563 204.643587 
L 735.589245 203.385766 
L 736.017926 230.987487 
L 736.446607 224.751987 
L 736.875288 180.795275 
L 737.303969 220.539988 
L 737.73265 208.897247 
L 738.161332 190.576839 
L 738.590013 211.950173 
L 739.018694 205.211344 
L 739.447375 228.454016 
L 739.876056 167.40546 
L 740.304738 215.565399 
L 740.733419 220.564572 
L 741.1621 206.983349 
L 741.590781 162.131615 
L 742.019462 223.486847 
L 742.448143 192.196544 
L 742.876825 207.839721 
L 743.305506 201.094894 
L 743.734187 178.762915 
L 744.162868 167.40232 
L 744.591549 142.45529 
L 745.02023 176.632995 
L 745.448912 158.157923 
L 745.877593 212.936756 
L 746.306274 156.636408 
L 746.734955 125.85005 
L 747.163636 143.10354 
L 747.163636 143.10354 
" style="fill:none;stroke:#1f77b4;stroke-linecap:square;stroke-width:1.5;"/>
   </g>
   <g id="line2d_17">
    <path clip-path="url(#paa9ba89a27)" d="M 747.163636 384.48 
L 747.163636 51.84 
" style="fill:none;stroke:#808080;stroke-linecap:square;"/>
   </g>
   <g id="patch_89">
    <path d="M 108 384.48 
L 108 51.84 
" style="fill:none;stroke:#000000;stroke-linecap:square;stroke-linejoin:miter;stroke-width:0.8;"/>
   </g>
   <g id="patch_90">
    <path d="M 777.6 384.48 
L 777.6 51.84 
" style="fill:none;stroke:#000000;stroke-linecap:square;stroke-linejoin:miter;stroke-width:0.8;"/>
   </g>
   <g id="patch_91">
    <path d="M 108 384.48 
L 777.6 384.48 
" style="fill:none;stroke:#000000;stroke-linecap:square;stroke-linejoin:miter;stroke-width:0.8;"/>
   </g>
   <g id="patch_92">
    <path d="M 108 51.84 
L 777.6 51.84 
" style="fill:none;stroke:#000000;stroke-linecap:square;stroke-linejoin:miter;stroke-width:0.8;"/>
   </g>
   <g id="text_18">
    <!-- synthetic_40.csv -->
    <defs>
     <path d="M 32.171875 -5.078125 
Q 28.375 -14.84375 24.75 -17.8125 
Q 21.140625 -20.796875 15.09375 -20.796875 
L 7.90625 -20.796875 
L 7.90625 -13.28125 
L 13.1875 -13.28125 
Q 16.890625 -13.28125 18.9375 -11.515625 
Q 21 -9.765625 23.484375 -3.21875 
L 25.09375 0.875 
L 2.984375 54.6875 
L 12.5 54.6875 
L 29.59375 11.921875 
L 46.6875 54.6875 
L 56.203125 54.6875 
z
" id="DejaVuSans-121"/>
     <path d="M 54.890625 33.015625 
L 54.890625 0 
L 45.90625 0 
L 45.90625 32.71875 
Q 45.90625 40.484375 42.875 44.328125 
Q 39.84375 48.1875 33.796875 48.1875 
Q 26.515625 48.1875 22.3125 43.546875 
Q 18.109375 38.921875 18.109375 30.90625 
L 18.109375 0 
L 9.078125 0 
L 9.078125 54.6875 
L 18.109375 54.6875 
L 18.109375 46.1875 
Q 21.34375 51.125 25.703125 53.5625 
Q 30.078125 56 35.796875 56 
Q 45.21875 56 50.046875 50.171875 
Q 54.890625 44.34375 54.890625 33.015625 
z
" id="DejaVuSans-110"/>
     <path d="M 54.890625 33.015625 
L 54.890625 0 
L 45.90625 0 
L 45.90625 32.71875 
Q 45.90625 40.484375 42.875 44.328125 
Q 39.84375 48.1875 33.796875 48.1875 
Q 26.515625 48.1875 22.3125 43.546875 
Q 18.109375 38.921875 18.109375 30.90625 
L 18.109375 0 
L 9.078125 0 
L 9.078125 75.984375 
L 18.109375 75.984375 
L 18.109375 46.1875 
Q 21.34375 51.125 25.703125 53.5625 
Q 30.078125 56 35.796875 56 
Q 45.21875 56 50.046875 50.171875 
Q 54.890625 44.34375 54.890625 33.015625 
z
" id="DejaVuSans-104"/>
     <path d="M 48.78125 52.59375 
L 48.78125 44.1875 
Q 44.96875 46.296875 41.140625 47.34375 
Q 37.3125 48.390625 33.40625 48.390625 
Q 24.65625 48.390625 19.8125 42.84375 
Q 14.984375 37.3125 14.984375 27.296875 
Q 14.984375 17.28125 19.8125 11.734375 
Q 24.65625 6.203125 33.40625 6.203125 
Q 37.3125 6.203125 41.140625 7.25 
Q 44.96875 8.296875 48.78125 10.40625 
L 48.78125 2.09375 
Q 45.015625 0.34375 40.984375 -0.53125 
Q 36.96875 -1.421875 32.421875 -1.421875 
Q 20.0625 -1.421875 12.78125 6.34375 
Q 5.515625 14.109375 5.515625 27.296875 
Q 5.515625 40.671875 12.859375 48.328125 
Q 20.21875 56 33.015625 56 
Q 37.15625 56 41.109375 55.140625 
Q 45.0625 54.296875 48.78125 52.59375 
z
" id="DejaVuSans-99"/>
     <path d="M 50.984375 -16.609375 
L 50.984375 -23.578125 
L -0.984375 -23.578125 
L -0.984375 -16.609375 
z
" id="DejaVuSans-95"/>
     <path d="M 10.6875 12.40625 
L 21 12.40625 
L 21 0 
L 10.6875 0 
z
" id="DejaVuSans-46"/>
     <path d="M 2.984375 54.6875 
L 12.5 54.6875 
L 29.59375 8.796875 
L 46.6875 54.6875 
L 56.203125 54.6875 
L 35.6875 0 
L 23.484375 0 
z
" id="DejaVuSans-118"/>
    </defs>
    <g transform="translate(392.638125 45.84)scale(0.12 -0.12)">
     <use xlink:href="#DejaVuSans-115"/>
     <use x="52.099609" xlink:href="#DejaVuSans-121"/>
     <use x="111.279297" xlink:href="#DejaVuSans-110"/>
     <use x="174.658203" xlink:href="#DejaVuSans-116"/>
     <use x="213.867188" xlink:href="#DejaVuSans-104"/>
     <use x="277.246094" xlink:href="#DejaVuSans-101"/>
     <use x="338.769531" xlink:href="#DejaVuSans-116"/>
     <use x="377.978516" xlink:href="#DejaVuSans-105"/>
     <use x="405.761719" xlink:href="#DejaVuSans-99"/>
     <use x="460.742188" xlink:href="#DejaVuSans-95"/>
     <use x="510.742188" xlink:href="#DejaVuSans-52"/>
     <use x="574.365234" xlink:href="#DejaVuSans-48"/>
     <use x="637.988281" xlink:href="#DejaVuSans-46"/>
     <use x="669.775391" xlink:href="#DejaVuSans-99"/>
     <use x="724.755859" xlink:href="#DejaVuSans-115"/>
     <use x="776.855469" xlink:href="#DejaVuSans-118"/>
    </g>
   </g>
   <g id="legend_1">
    <g id="patch_93">
     <path d="M 115 74.518125 
L 174.315625 74.518125 
Q 176.315625 74.518125 176.315625 72.518125 
L 176.315625 58.84 
Q 176.315625 56.84 174.315625 56.84 
L 115 56.84 
Q 113 56.84 113 58.84 
L 113 72.518125 
Q 113 74.518125 115 74.518125 
z
" style="fill:#ffffff;opacity:0.8;stroke:#cccccc;stroke-linejoin:miter;"/>
    </g>
    <g id="line2d_18">
     <path d="M 117 64.938438 
L 137 64.938438 
" style="fill:none;stroke:#1f77b4;stroke-linecap:square;stroke-width:1.5;"/>
    </g>
    <g id="line2d_19"/>
    <g id="text_19">
     <!-- value -->
     <g transform="translate(145 68.438438)scale(0.1 -0.1)">
      <use xlink:href="#DejaVuSans-118"/>
      <use x="59.179688" xlink:href="#DejaVuSans-97"/>
      <use x="120.458984" xlink:href="#DejaVuSans-108"/>
      <use x="148.242188" xlink:href="#DejaVuSans-117"/>
      <use x="211.621094" xlink:href="#DejaVuSans-101"/>
     </g>
    </g>
   </g>
  </g>
 </g>
 <defs>
  <clipPath id="paa9ba89a27">
   <rect height="332.64" width="669.6" x="108" y="51.84"/>
  </clipPath>
 </defs>
</svg>
