<?xml version="1.0" encoding="utf-8" standalone="no"?>
<!DOCTYPE svg PUBLIC "-//W3C//DTD SVG 1.1//EN"
  "http://www.w3.org/Graphics/SVG/1.1/DTD/svg11.dtd">
<!-- Created with matplotlib (https://matplotlib.org/) -->
<svg height="432pt" version="1.1" viewBox="0 0 864 432" width="864pt" xmlns="http://www.w3.org/2000/svg" xmlns:xlink="http://www.w3.org/1999/xlink">
 <defs>
  <style type="text/css">
*{stroke-linecap:butt;stroke-linejoin:round;}
  </style>
 </defs>
 <g id="figure_1">
  <g id="patch_1">
   <path d="M 0 432 
L 864 432 
L 864 0 
L 0 0 
z
" style="fill:#ffffff;"/>
  </g>
  <g id="axes_1">
   <g id="patch_2">
    <path d="M 108 384.48 
L 777.6 384.48 
L 777.6 51.84 
L 108 51.84 
z
" style="fill:#ffffff;"/>
   </g>
   <g id="patch_3">
    <path clip-path="url(#p5f259abbc9)" d="M 138.436364 384.48 
L 138.436364 51.84 
L 377.579221 51.84 
L 377.579221 384.48 
z
" style="fill:#0000ff;opacity:0.05;"/>
   </g>
   <g id="patch_4">
    <path clip-path="url(#p5f259abbc9)" d="M 377.579221 384.48 
L 377.579221 51.84 
L 747.163636 51.84 
L 747.163636 384.48 
z
" style="fill:#ff0000;opacity:0.08;"/>
   </g>
   <g id="patch_5">
    <path clip-path="url(#p5f259abbc9)" d="M 138.436364 384.48 
L 138.436364 51.84 
L 145.683117 51.84 
L 145.683117 384.48 
z
" style="fill:#008000;opacity:0.04;"/>
   </g>
   <g id="patch_6">
    <path clip-path="url(#p5f259abbc9)" d="M 138.436364 384.48 
L 138.436364 371.1744 
L 145.683117 371.1744 
L 145.683117 384.48 
z
" style="fill:#ffe500;"/>
   </g>
   <g id="patch_7">
    <path clip-path="url(#p5f259abbc9)" d="M 152.92987 384.48 
L 152.92987 51.84 
L 160.176623 51.84 
L 160.176623 384.48 
z
" style="fill:#008000;opacity:0.04;"/>
   </g>
   <g id="patch_8">
    <path clip-path="url(#p5f259abbc9)" d="M 167.423377 384.48 
L 167.423377 51.84 
L 174.67013 51.84 
L 174.67013 384.48 
z
" style="fill:#008000;opacity:0.04;"/>
   </g>
   <g id="patch_9">
    <path clip-path="url(#p5f259abbc9)" d="M 181.916883 384.48 
L 181.916883 51.84 
L 189.163636 51.84 
L 189.163636 384.48 
z
" style="fill:#008000;opacity:0.04;"/>
   </g>
   <g id="patch_10">
    <path clip-path="url(#p5f259abbc9)" d="M 196.41039 384.48 
L 196.41039 51.84 
L 203.657143 51.84 
L 203.657143 384.48 
z
" style="fill:#008000;opacity:0.04;"/>
   </g>
   <g id="patch_11">
    <path clip-path="url(#p5f259abbc9)" d="M 210.903896 384.48 
L 210.903896 51.84 
L 218.150649 51.84 
L 218.150649 384.48 
z
" style="fill:#008000;opacity:0.04;"/>
   </g>
   <g id="patch_12">
    <path clip-path="url(#p5f259abbc9)" d="M 225.397403 384.48 
L 225.397403 51.84 
L 232.644156 51.84 
L 232.644156 384.48 
z
" style="fill:#008000;opacity:0.04;"/>
   </g>
   <g id="patch_13">
    <path clip-path="url(#p5f259abbc9)" d="M 239.890909 384.48 
L 239.890909 51.84 
L 247.137662 51.84 
L 247.137662 384.48 
z
" style="fill:#008000;opacity:0.04;"/>
   </g>
   <g id="patch_14">
    <path clip-path="url(#p5f259abbc9)" d="M 254.384416 384.48 
L 254.384416 51.84 
L 261.631169 51.84 
L 261.631169 384.48 
z
" style="fill:#008000;opacity:0.04;"/>
   </g>
   <g id="patch_15">
    <path clip-path="url(#p5f259abbc9)" d="M 261.631169 384.48 
L 261.631169 371.1744 
L 268.877922 371.1744 
L 268.877922 384.48 
z
" style="fill:#ffe500;"/>
   </g>
   <g id="patch_16">
    <path clip-path="url(#p5f259abbc9)" d="M 268.877922 384.48 
L 268.877922 51.84 
L 276.124675 51.84 
L 276.124675 384.48 
z
" style="fill:#008000;opacity:0.04;"/>
   </g>
   <g id="patch_17">
    <path clip-path="url(#p5f259abbc9)" d="M 283.371429 384.48 
L 283.371429 51.84 
L 290.618182 51.84 
L 290.618182 384.48 
z
" style="fill:#008000;opacity:0.04;"/>
   </g>
   <g id="patch_18">
    <path clip-path="url(#p5f259abbc9)" d="M 297.864935 384.48 
L 297.864935 51.84 
L 305.111688 51.84 
L 305.111688 384.48 
z
" style="fill:#008000;opacity:0.04;"/>
   </g>
   <g id="patch_19">
    <path clip-path="url(#p5f259abbc9)" d="M 312.358442 384.48 
L 312.358442 51.84 
L 319.605195 51.84 
L 319.605195 384.48 
z
" style="fill:#008000;opacity:0.04;"/>
   </g>
   <g id="patch_20">
    <path clip-path="url(#p5f259abbc9)" d="M 312.358442 384.48 
L 312.358442 371.1744 
L 319.605195 371.1744 
L 319.605195 384.48 
z
" style="fill:#ffe500;"/>
   </g>
   <g id="patch_21">
    <path clip-path="url(#p5f259abbc9)" d="M 326.851948 384.48 
L 326.851948 51.84 
L 334.098701 51.84 
L 334.098701 384.48 
z
" style="fill:#008000;opacity:0.04;"/>
   </g>
   <g id="patch_22">
    <path clip-path="url(#p5f259abbc9)" d="M 341.345455 384.48 
L 341.345455 51.84 
L 348.592208 51.84 
L 348.592208 384.48 
z
" style="fill:#008000;opacity:0.04;"/>
   </g>
   <g id="patch_23">
    <path clip-path="url(#p5f259abbc9)" d="M 355.838961 384.48 
L 355.838961 51.84 
L 363.085714 51.84 
L 363.085714 384.48 
z
" style="fill:#008000;opacity:0.04;"/>
   </g>
   <g id="patch_24">
    <path clip-path="url(#p5f259abbc9)" d="M 370.332468 384.48 
L 370.332468 51.84 
L 377.579221 51.84 
L 377.579221 384.48 
z
" style="fill:#008000;opacity:0.04;"/>
   </g>
   <g id="patch_25">
    <path clip-path="url(#p5f259abbc9)" d="M 384.825974 384.48 
L 384.825974 51.84 
L 392.072727 51.84 
L 392.072727 384.48 
z
" style="fill:#008000;opacity:0.04;"/>
   </g>
   <g id="patch_26">
    <path clip-path="url(#p5f259abbc9)" d="M 623.968831 384.48 
L 623.968831 371.1744 
L 631.215584 371.1744 
L 631.215584 384.48 
z
" style="fill:#ff6600;"/>
   </g>
   <g id="patch_27">
    <path clip-path="url(#p5f259abbc9)" d="M 399.319481 384.48 
L 399.319481 51.84 
L 406.566234 51.84 
L 406.566234 384.48 
z
" style="fill:#008000;opacity:0.04;"/>
   </g>
   <g id="patch_28">
    <path clip-path="url(#p5f259abbc9)" d="M 413.812987 384.48 
L 413.812987 51.84 
L 421.05974 51.84 
L 421.05974 384.48 
z
" style="fill:#008000;opacity:0.04;"/>
   </g>
   <g id="patch_29">
    <path clip-path="url(#p5f259abbc9)" d="M 428.306494 384.48 
L 428.306494 51.84 
L 435.553247 51.84 
L 435.553247 384.48 
z
" style="fill:#008000;opacity:0.04;"/>
   </g>
   <g id="patch_30">
    <path clip-path="url(#p5f259abbc9)" d="M 442.8 384.48 
L 442.8 51.84 
L 450.046753 51.84 
L 450.046753 384.48 
z
" style="fill:#008000;opacity:0.04;"/>
   </g>
   <g id="patch_31">
    <path clip-path="url(#p5f259abbc9)" d="M 457.293506 384.48 
L 457.293506 51.84 
L 464.54026 51.84 
L 464.54026 384.48 
z
" style="fill:#008000;opacity:0.04;"/>
   </g>
   <g id="patch_32">
    <path clip-path="url(#p5f259abbc9)" d="M 471.787013 384.48 
L 471.787013 51.84 
L 479.033766 51.84 
L 479.033766 384.48 
z
" style="fill:#008000;opacity:0.04;"/>
   </g>
   <g id="patch_33">
    <path clip-path="url(#p5f259abbc9)" d="M 486.280519 384.48 
L 486.280519 51.84 
L 493.527273 51.84 
L 493.527273 384.48 
z
" style="fill:#008000;opacity:0.04;"/>
   </g>
   <g id="patch_34">
    <path clip-path="url(#p5f259abbc9)" d="M 500.774026 384.48 
L 500.774026 51.84 
L 508.020779 51.84 
L 508.020779 384.48 
z
" style="fill:#008000;opacity:0.04;"/>
   </g>
   <g id="patch_35">
    <path clip-path="url(#p5f259abbc9)" d="M 515.267532 384.48 
L 515.267532 51.84 
L 522.514286 51.84 
L 522.514286 384.48 
z
" style="fill:#008000;opacity:0.04;"/>
   </g>
   <g id="patch_36">
    <path clip-path="url(#p5f259abbc9)" d="M 529.761039 384.48 
L 529.761039 51.84 
L 537.007792 51.84 
L 537.007792 384.48 
z
" style="fill:#008000;opacity:0.04;"/>
   </g>
   <g id="patch_37">
    <path clip-path="url(#p5f259abbc9)" d="M 544.254545 384.48 
L 544.254545 51.84 
L 551.501299 51.84 
L 551.501299 384.48 
z
" style="fill:#008000;opacity:0.04;"/>
   </g>
   <g id="patch_38">
    <path clip-path="url(#p5f259abbc9)" d="M 558.748052 384.48 
L 558.748052 51.84 
L 565.994805 51.84 
L 565.994805 384.48 
z
" style="fill:#008000;opacity:0.04;"/>
   </g>
   <g id="patch_39">
    <path clip-path="url(#p5f259abbc9)" d="M 573.241558 384.48 
L 573.241558 51.84 
L 580.488312 51.84 
L 580.488312 384.48 
z
" style="fill:#008000;opacity:0.04;"/>
   </g>
   <g id="patch_40">
    <path clip-path="url(#p5f259abbc9)" d="M 587.735065 384.48 
L 587.735065 51.84 
L 594.981818 51.84 
L 594.981818 384.48 
z
" style="fill:#008000;opacity:0.04;"/>
   </g>
   <g id="patch_41">
    <path clip-path="url(#p5f259abbc9)" d="M 602.228571 384.48 
L 602.228571 51.84 
L 609.475325 51.84 
L 609.475325 384.48 
z
" style="fill:#008000;opacity:0.04;"/>
   </g>
   <g id="patch_42">
    <path clip-path="url(#p5f259abbc9)" d="M 616.722078 384.48 
L 616.722078 51.84 
L 623.968831 51.84 
L 623.968831 384.48 
z
" style="fill:#008000;opacity:0.04;"/>
   </g>
   <g id="patch_43">
    <path clip-path="url(#p5f259abbc9)" d="M 623.968831 371.1744 
L 623.968831 51.84 
L 631.215584 51.84 
L 631.215584 371.1744 
z
" style="fill:#008000;opacity:0.5;"/>
   </g>
   <g id="patch_44">
    <path clip-path="url(#p5f259abbc9)" d="M 631.215584 384.48 
L 631.215584 51.84 
L 638.462338 51.84 
L 638.462338 384.48 
z
" style="fill:#008000;opacity:0.04;"/>
   </g>
   <g id="patch_45">
    <path clip-path="url(#p5f259abbc9)" d="M 645.709091 384.48 
L 645.709091 51.84 
L 652.955844 51.84 
L 652.955844 384.48 
z
" style="fill:#008000;opacity:0.04;"/>
   </g>
   <g id="patch_46">
    <path clip-path="url(#p5f259abbc9)" d="M 660.202597 384.48 
L 660.202597 51.84 
L 667.449351 51.84 
L 667.449351 384.48 
z
" style="fill:#008000;opacity:0.04;"/>
   </g>
   <g id="patch_47">
    <path clip-path="url(#p5f259abbc9)" d="M 674.696104 384.48 
L 674.696104 51.84 
L 681.942857 51.84 
L 681.942857 384.48 
z
" style="fill:#008000;opacity:0.04;"/>
   </g>
   <g id="patch_48">
    <path clip-path="url(#p5f259abbc9)" d="M 689.18961 384.48 
L 689.18961 51.84 
L 696.436364 51.84 
L 696.436364 384.48 
z
" style="fill:#008000;opacity:0.04;"/>
   </g>
   <g id="patch_49">
    <path clip-path="url(#p5f259abbc9)" d="M 703.683117 384.48 
L 703.683117 51.84 
L 710.92987 51.84 
L 710.92987 384.48 
z
" style="fill:#008000;opacity:0.04;"/>
   </g>
   <g id="patch_50">
    <path clip-path="url(#p5f259abbc9)" d="M 718.176623 384.48 
L 718.176623 51.84 
L 725.423377 51.84 
L 725.423377 384.48 
z
" style="fill:#008000;opacity:0.04;"/>
   </g>
   <g id="patch_51">
    <path clip-path="url(#p5f259abbc9)" d="M 732.67013 384.48 
L 732.67013 51.84 
L 739.916883 51.84 
L 739.916883 384.48 
z
" style="fill:#008000;opacity:0.04;"/>
   </g>
   <g id="matplotlib.axis_1">
    <g id="xtick_1">
     <g id="line2d_1">
      <defs>
       <path d="M 0 0 
L 0 3.5 
" id="mb1982d6829" style="stroke:#000000;stroke-width:0.8;"/>
      </defs>
      <g>
       <use style="stroke:#000000;stroke-width:0.8;" x="138.436364" xlink:href="#mb1982d6829" y="384.48"/>
      </g>
     </g>
     <g id="text_1">
      <!-- 0 -->
      <defs>
       <path d="M 31.78125 66.40625 
Q 24.171875 66.40625 20.328125 58.90625 
Q 16.5 51.421875 16.5 36.375 
Q 16.5 21.390625 20.328125 13.890625 
Q 24.171875 6.390625 31.78125 6.390625 
Q 39.453125 6.390625 43.28125 13.890625 
Q 47.125 21.390625 47.125 36.375 
Q 47.125 51.421875 43.28125 58.90625 
Q 39.453125 66.40625 31.78125 66.40625 
z
M 31.78125 74.21875 
Q 44.046875 74.21875 50.515625 64.515625 
Q 56.984375 54.828125 56.984375 36.375 
Q 56.984375 17.96875 50.515625 8.265625 
Q 44.046875 -1.421875 31.78125 -1.421875 
Q 19.53125 -1.421875 13.0625 8.265625 
Q 6.59375 17.96875 6.59375 36.375 
Q 6.59375 54.828125 13.0625 64.515625 
Q 19.53125 74.21875 31.78125 74.21875 
z
" id="DejaVuSans-48"/>
      </defs>
      <g transform="translate(135.255114 399.078438)scale(0.1 -0.1)">
       <use xlink:href="#DejaVuSans-48"/>
      </g>
     </g>
    </g>
    <g id="xtick_2">
     <g id="line2d_2">
      <g>
       <use style="stroke:#000000;stroke-width:0.8;" x="229.020779" xlink:href="#mb1982d6829" y="384.48"/>
      </g>
     </g>
     <g id="text_2">
      <!-- 250 -->
      <defs>
       <path d="M 19.1875 8.296875 
L 53.609375 8.296875 
L 53.609375 0 
L 7.328125 0 
L 7.328125 8.296875 
Q 12.9375 14.109375 22.625 23.890625 
Q 32.328125 33.6875 34.8125 36.53125 
Q 39.546875 41.84375 41.421875 45.53125 
Q 43.3125 49.21875 43.3125 52.78125 
Q 43.3125 58.59375 39.234375 62.25 
Q 35.15625 65.921875 28.609375 65.921875 
Q 23.96875 65.921875 18.8125 64.3125 
Q 13.671875 62.703125 7.8125 59.421875 
L 7.8125 69.390625 
Q 13.765625 71.78125 18.9375 73 
Q 24.125 74.21875 28.421875 74.21875 
Q 39.75 74.21875 46.484375 68.546875 
Q 53.21875 62.890625 53.21875 53.421875 
Q 53.21875 48.921875 51.53125 44.890625 
Q 49.859375 40.875 45.40625 35.40625 
Q 44.1875 33.984375 37.640625 27.21875 
Q 31.109375 20.453125 19.1875 8.296875 
z
" id="DejaVuSans-50"/>
       <path d="M 10.796875 72.90625 
L 49.515625 72.90625 
L 49.515625 64.59375 
L 19.828125 64.59375 
L 19.828125 46.734375 
Q 21.96875 47.46875 24.109375 47.828125 
Q 26.265625 48.1875 28.421875 48.1875 
Q 40.625 48.1875 47.75 41.5 
Q 54.890625 34.8125 54.890625 23.390625 
Q 54.890625 11.625 47.5625 5.09375 
Q 40.234375 -1.421875 26.90625 -1.421875 
Q 22.3125 -1.421875 17.546875 -0.640625 
Q 12.796875 0.140625 7.71875 1.703125 
L 7.71875 11.625 
Q 12.109375 9.234375 16.796875 8.0625 
Q 21.484375 6.890625 26.703125 6.890625 
Q 35.15625 6.890625 40.078125 11.328125 
Q 45.015625 15.765625 45.015625 23.390625 
Q 45.015625 31 40.078125 35.4375 
Q 35.15625 39.890625 26.703125 39.890625 
Q 22.75 39.890625 18.8125 39.015625 
Q 14.890625 38.140625 10.796875 36.28125 
z
" id="DejaVuSans-53"/>
      </defs>
      <g transform="translate(219.477029 399.078438)scale(0.1 -0.1)">
       <use xlink:href="#DejaVuSans-50"/>
       <use x="63.623047" xlink:href="#DejaVuSans-53"/>
       <use x="127.246094" xlink:href="#DejaVuSans-48"/>
      </g>
     </g>
    </g>
    <g id="xtick_3">
     <g id="line2d_3">
      <g>
       <use style="stroke:#000000;stroke-width:0.8;" x="319.605195" xlink:href="#mb1982d6829" y="384.48"/>
      </g>
     </g>
     <g id="text_3">
      <!-- 500 -->
      <g transform="translate(310.061445 399.078438)scale(0.1 -0.1)">
       <use xlink:href="#DejaVuSans-53"/>
       <use x="63.623047" xlink:href="#DejaVuSans-48"/>
       <use x="127.246094" xlink:href="#DejaVuSans-48"/>
      </g>
     </g>
    </g>
    <g id="xtick_4">
     <g id="line2d_4">
      <g>
       <use style="stroke:#000000;stroke-width:0.8;" x="410.18961" xlink:href="#mb1982d6829" y="384.48"/>
      </g>
     </g>
     <g id="text_4">
      <!-- 750 -->
      <defs>
       <path d="M 8.203125 72.90625 
L 55.078125 72.90625 
L 55.078125 68.703125 
L 28.609375 0 
L 18.3125 0 
L 43.21875 64.59375 
L 8.203125 64.59375 
z
" id="DejaVuSans-55"/>
      </defs>
      <g transform="translate(400.64586 399.078438)scale(0.1 -0.1)">
       <use xlink:href="#DejaVuSans-55"/>
       <use x="63.623047" xlink:href="#DejaVuSans-53"/>
       <use x="127.246094" xlink:href="#DejaVuSans-48"/>
      </g>
     </g>
    </g>
    <g id="xtick_5">
     <g id="line2d_5">
      <g>
       <use style="stroke:#000000;stroke-width:0.8;" x="500.774026" xlink:href="#mb1982d6829" y="384.48"/>
      </g>
     </g>
     <g id="text_5">
      <!-- 1000 -->
      <defs>
       <path d="M 12.40625 8.296875 
L 28.515625 8.296875 
L 28.515625 63.921875 
L 10.984375 60.40625 
L 10.984375 69.390625 
L 28.421875 72.90625 
L 38.28125 72.90625 
L 38.28125 8.296875 
L 54.390625 8.296875 
L 54.390625 0 
L 12.40625 0 
z
" id="DejaVuSans-49"/>
      </defs>
      <g transform="translate(488.049026 399.078438)scale(0.1 -0.1)">
       <use xlink:href="#DejaVuSans-49"/>
       <use x="63.623047" xlink:href="#DejaVuSans-48"/>
       <use x="127.246094" xlink:href="#DejaVuSans-48"/>
       <use x="190.869141" xlink:href="#DejaVuSans-48"/>
      </g>
     </g>
    </g>
    <g id="xtick_6">
     <g id="line2d_6">
      <g>
       <use style="stroke:#000000;stroke-width:0.8;" x="591.358442" xlink:href="#mb1982d6829" y="384.48"/>
      </g>
     </g>
     <g id="text_6">
      <!-- 1250 -->
      <g transform="translate(578.633442 399.078438)scale(0.1 -0.1)">
       <use xlink:href="#DejaVuSans-49"/>
       <use x="63.623047" xlink:href="#DejaVuSans-50"/>
       <use x="127.246094" xlink:href="#DejaVuSans-53"/>
       <use x="190.869141" xlink:href="#DejaVuSans-48"/>
      </g>
     </g>
    </g>
    <g id="xtick_7">
     <g id="line2d_7">
      <g>
       <use style="stroke:#000000;stroke-width:0.8;" x="681.942857" xlink:href="#mb1982d6829" y="384.48"/>
      </g>
     </g>
     <g id="text_7">
      <!-- 1500 -->
      <g transform="translate(669.217857 399.078438)scale(0.1 -0.1)">
       <use xlink:href="#DejaVuSans-49"/>
       <use x="63.623047" xlink:href="#DejaVuSans-53"/>
       <use x="127.246094" xlink:href="#DejaVuSans-48"/>
       <use x="190.869141" xlink:href="#DejaVuSans-48"/>
      </g>
     </g>
    </g>
    <g id="xtick_8">
     <g id="line2d_8">
      <g>
       <use style="stroke:#000000;stroke-width:0.8;" x="772.527273" xlink:href="#mb1982d6829" y="384.48"/>
      </g>
     </g>
     <g id="text_8">
      <!-- 1750 -->
      <g transform="translate(759.802273 399.078438)scale(0.1 -0.1)">
       <use xlink:href="#DejaVuSans-49"/>
       <use x="63.623047" xlink:href="#DejaVuSans-55"/>
       <use x="127.246094" xlink:href="#DejaVuSans-53"/>
       <use x="190.869141" xlink:href="#DejaVuSans-48"/>
      </g>
     </g>
    </g>
    <g id="text_9">
     <!-- Timestamp -->
     <defs>
      <path d="M -0.296875 72.90625 
L 61.375 72.90625 
L 61.375 64.59375 
L 35.5 64.59375 
L 35.5 0 
L 25.59375 0 
L 25.59375 64.59375 
L -0.296875 64.59375 
z
" id="DejaVuSans-84"/>
      <path d="M 9.421875 54.6875 
L 18.40625 54.6875 
L 18.40625 0 
L 9.421875 0 
z
M 9.421875 75.984375 
L 18.40625 75.984375 
L 18.40625 64.59375 
L 9.421875 64.59375 
z
" id="DejaVuSans-105"/>
      <path d="M 52 44.1875 
Q 55.375 50.25 60.0625 53.125 
Q 64.75 56 71.09375 56 
Q 79.640625 56 84.28125 50.015625 
Q 88.921875 44.046875 88.921875 33.015625 
L 88.921875 0 
L 79.890625 0 
L 79.890625 32.71875 
Q 79.890625 40.578125 77.09375 44.375 
Q 74.3125 48.1875 68.609375 48.1875 
Q 61.625 48.1875 57.5625 43.546875 
Q 53.515625 38.921875 53.515625 30.90625 
L 53.515625 0 
L 44.484375 0 
L 44.484375 32.71875 
Q 44.484375 40.625 41.703125 44.40625 
Q 38.921875 48.1875 33.109375 48.1875 
Q 26.21875 48.1875 22.15625 43.53125 
Q 18.109375 38.875 18.109375 30.90625 
L 18.109375 0 
L 9.078125 0 
L 9.078125 54.6875 
L 18.109375 54.6875 
L 18.109375 46.1875 
Q 21.1875 51.21875 25.484375 53.609375 
Q 29.78125 56 35.6875 56 
Q 41.65625 56 45.828125 52.96875 
Q 50 49.953125 52 44.1875 
z
" id="DejaVuSans-109"/>
      <path d="M 56.203125 29.59375 
L 56.203125 25.203125 
L 14.890625 25.203125 
Q 15.484375 15.921875 20.484375 11.0625 
Q 25.484375 6.203125 34.421875 6.203125 
Q 39.59375 6.203125 44.453125 7.46875 
Q 49.3125 8.734375 54.109375 11.28125 
L 54.109375 2.78125 
Q 49.265625 0.734375 44.1875 -0.34375 
Q 39.109375 -1.421875 33.890625 -1.421875 
Q 20.796875 -1.421875 13.15625 6.1875 
Q 5.515625 13.8125 5.515625 26.8125 
Q 5.515625 40.234375 12.765625 48.109375 
Q 20.015625 56 32.328125 56 
Q 43.359375 56 49.78125 48.890625 
Q 56.203125 41.796875 56.203125 29.59375 
z
M 47.21875 32.234375 
Q 47.125 39.59375 43.09375 43.984375 
Q 39.0625 48.390625 32.421875 48.390625 
Q 24.90625 48.390625 20.390625 44.140625 
Q 15.875 39.890625 15.1875 32.171875 
z
" id="DejaVuSans-101"/>
      <path d="M 44.28125 53.078125 
L 44.28125 44.578125 
Q 40.484375 46.53125 36.375 47.5 
Q 32.28125 48.484375 27.875 48.484375 
Q 21.1875 48.484375 17.84375 46.4375 
Q 14.5 44.390625 14.5 40.28125 
Q 14.5 37.15625 16.890625 35.375 
Q 19.28125 33.59375 26.515625 31.984375 
L 29.59375 31.296875 
Q 39.15625 29.25 43.1875 25.515625 
Q 47.21875 21.78125 47.21875 15.09375 
Q 47.21875 7.46875 41.1875 3.015625 
Q 35.15625 -1.421875 24.609375 -1.421875 
Q 20.21875 -1.421875 15.453125 -0.5625 
Q 10.6875 0.296875 5.421875 2 
L 5.421875 11.28125 
Q 10.40625 8.6875 15.234375 7.390625 
Q 20.0625 6.109375 24.8125 6.109375 
Q 31.15625 6.109375 34.5625 8.28125 
Q 37.984375 10.453125 37.984375 14.40625 
Q 37.984375 18.0625 35.515625 20.015625 
Q 33.0625 21.96875 24.703125 23.78125 
L 21.578125 24.515625 
Q 13.234375 26.265625 9.515625 29.90625 
Q 5.8125 33.546875 5.8125 39.890625 
Q 5.8125 47.609375 11.28125 51.796875 
Q 16.75 56 26.8125 56 
Q 31.78125 56 36.171875 55.265625 
Q 40.578125 54.546875 44.28125 53.078125 
z
" id="DejaVuSans-115"/>
      <path d="M 18.3125 70.21875 
L 18.3125 54.6875 
L 36.8125 54.6875 
L 36.8125 47.703125 
L 18.3125 47.703125 
L 18.3125 18.015625 
Q 18.3125 11.328125 20.140625 9.421875 
Q 21.96875 7.515625 27.59375 7.515625 
L 36.8125 7.515625 
L 36.8125 0 
L 27.59375 0 
Q 17.1875 0 13.234375 3.875 
Q 9.28125 7.765625 9.28125 18.015625 
L 9.28125 47.703125 
L 2.6875 47.703125 
L 2.6875 54.6875 
L 9.28125 54.6875 
L 9.28125 70.21875 
z
" id="DejaVuSans-116"/>
      <path d="M 34.28125 27.484375 
Q 23.390625 27.484375 19.1875 25 
Q 14.984375 22.515625 14.984375 16.5 
Q 14.984375 11.71875 18.140625 8.90625 
Q 21.296875 6.109375 26.703125 6.109375 
Q 34.1875 6.109375 38.703125 11.40625 
Q 43.21875 16.703125 43.21875 25.484375 
L 43.21875 27.484375 
z
M 52.203125 31.203125 
L 52.203125 0 
L 43.21875 0 
L 43.21875 8.296875 
Q 40.140625 3.328125 35.546875 0.953125 
Q 30.953125 -1.421875 24.3125 -1.421875 
Q 15.921875 -1.421875 10.953125 3.296875 
Q 6 8.015625 6 15.921875 
Q 6 25.140625 12.171875 29.828125 
Q 18.359375 34.515625 30.609375 34.515625 
L 43.21875 34.515625 
L 43.21875 35.40625 
Q 43.21875 41.609375 39.140625 45 
Q 35.0625 48.390625 27.6875 48.390625 
Q 23 48.390625 18.546875 47.265625 
Q 14.109375 46.140625 10.015625 43.890625 
L 10.015625 52.203125 
Q 14.9375 54.109375 19.578125 55.046875 
Q 24.21875 56 28.609375 56 
Q 40.484375 56 46.34375 49.84375 
Q 52.203125 43.703125 52.203125 31.203125 
z
" id="DejaVuSans-97"/>
      <path d="M 18.109375 8.203125 
L 18.109375 -20.796875 
L 9.078125 -20.796875 
L 9.078125 54.6875 
L 18.109375 54.6875 
L 18.109375 46.390625 
Q 20.953125 51.265625 25.265625 53.625 
Q 29.59375 56 35.59375 56 
Q 45.5625 56 51.78125 48.09375 
Q 58.015625 40.1875 58.015625 27.296875 
Q 58.015625 14.40625 51.78125 6.484375 
Q 45.5625 -1.421875 35.59375 -1.421875 
Q 29.59375 -1.421875 25.265625 0.953125 
Q 20.953125 3.328125 18.109375 8.203125 
z
M 48.6875 27.296875 
Q 48.6875 37.203125 44.609375 42.84375 
Q 40.53125 48.484375 33.40625 48.484375 
Q 26.265625 48.484375 22.1875 42.84375 
Q 18.109375 37.203125 18.109375 27.296875 
Q 18.109375 17.390625 22.1875 11.75 
Q 26.265625 6.109375 33.40625 6.109375 
Q 40.53125 6.109375 44.609375 11.75 
Q 48.6875 17.390625 48.6875 27.296875 
z
" id="DejaVuSans-112"/>
     </defs>
     <g transform="translate(414.739062 412.756563)scale(0.1 -0.1)">
      <use xlink:href="#DejaVuSans-84"/>
      <use x="61.037109" xlink:href="#DejaVuSans-105"/>
      <use x="88.820312" xlink:href="#DejaVuSans-109"/>
      <use x="186.232422" xlink:href="#DejaVuSans-101"/>
      <use x="247.755859" xlink:href="#DejaVuSans-115"/>
      <use x="299.855469" xlink:href="#DejaVuSans-116"/>
      <use x="339.064453" xlink:href="#DejaVuSans-97"/>
      <use x="400.34375" xlink:href="#DejaVuSans-109"/>
      <use x="497.755859" xlink:href="#DejaVuSans-112"/>
     </g>
    </g>
   </g>
   <g id="matplotlib.axis_2">
    <g id="ytick_1">
     <g id="line2d_9">
      <defs>
       <path d="M 0 0 
L -3.5 0 
" id="mb8bfd86064" style="stroke:#000000;stroke-width:0.8;"/>
      </defs>
      <g>
       <use style="stroke:#000000;stroke-width:0.8;" x="108" xlink:href="#mb8bfd86064" y="343.238879"/>
      </g>
     </g>
     <g id="text_10">
      <!-- −500 -->
      <defs>
       <path d="M 10.59375 35.5 
L 73.1875 35.5 
L 73.1875 27.203125 
L 10.59375 27.203125 
z
" id="DejaVuSans-8722"/>
      </defs>
      <g transform="translate(73.532813 347.038097)scale(0.1 -0.1)">
       <use xlink:href="#DejaVuSans-8722"/>
       <use x="83.789062" xlink:href="#DejaVuSans-53"/>
       <use x="147.412109" xlink:href="#DejaVuSans-48"/>
       <use x="211.035156" xlink:href="#DejaVuSans-48"/>
      </g>
     </g>
    </g>
    <g id="ytick_2">
     <g id="line2d_10">
      <g>
       <use style="stroke:#000000;stroke-width:0.8;" x="108" xlink:href="#mb8bfd86064" y="297.141842"/>
      </g>
     </g>
     <g id="text_11">
      <!-- 0 -->
      <g transform="translate(94.6375 300.941061)scale(0.1 -0.1)">
       <use xlink:href="#DejaVuSans-48"/>
      </g>
     </g>
    </g>
    <g id="ytick_3">
     <g id="line2d_11">
      <g>
       <use style="stroke:#000000;stroke-width:0.8;" x="108" xlink:href="#mb8bfd86064" y="251.044806"/>
      </g>
     </g>
     <g id="text_12">
      <!-- 500 -->
      <g transform="translate(81.9125 254.844024)scale(0.1 -0.1)">
       <use xlink:href="#DejaVuSans-53"/>
       <use x="63.623047" xlink:href="#DejaVuSans-48"/>
       <use x="127.246094" xlink:href="#DejaVuSans-48"/>
      </g>
     </g>
    </g>
    <g id="ytick_4">
     <g id="line2d_12">
      <g>
       <use style="stroke:#000000;stroke-width:0.8;" x="108" xlink:href="#mb8bfd86064" y="204.947769"/>
      </g>
     </g>
     <g id="text_13">
      <!-- 1000 -->
      <g transform="translate(75.55 208.746988)scale(0.1 -0.1)">
       <use xlink:href="#DejaVuSans-49"/>
       <use x="63.623047" xlink:href="#DejaVuSans-48"/>
       <use x="127.246094" xlink:href="#DejaVuSans-48"/>
       <use x="190.869141" xlink:href="#DejaVuSans-48"/>
      </g>
     </g>
    </g>
    <g id="ytick_5">
     <g id="line2d_13">
      <g>
       <use style="stroke:#000000;stroke-width:0.8;" x="108" xlink:href="#mb8bfd86064" y="158.850732"/>
      </g>
     </g>
     <g id="text_14">
      <!-- 1500 -->
      <g transform="translate(75.55 162.649951)scale(0.1 -0.1)">
       <use xlink:href="#DejaVuSans-49"/>
       <use x="63.623047" xlink:href="#DejaVuSans-53"/>
       <use x="127.246094" xlink:href="#DejaVuSans-48"/>
       <use x="190.869141" xlink:href="#DejaVuSans-48"/>
      </g>
     </g>
    </g>
    <g id="ytick_6">
     <g id="line2d_14">
      <g>
       <use style="stroke:#000000;stroke-width:0.8;" x="108" xlink:href="#mb8bfd86064" y="112.753696"/>
      </g>
     </g>
     <g id="text_15">
      <!-- 2000 -->
      <g transform="translate(75.55 116.552915)scale(0.1 -0.1)">
       <use xlink:href="#DejaVuSans-50"/>
       <use x="63.623047" xlink:href="#DejaVuSans-48"/>
       <use x="127.246094" xlink:href="#DejaVuSans-48"/>
       <use x="190.869141" xlink:href="#DejaVuSans-48"/>
      </g>
     </g>
    </g>
    <g id="ytick_7">
     <g id="line2d_15">
      <g>
       <use style="stroke:#000000;stroke-width:0.8;" x="108" xlink:href="#mb8bfd86064" y="66.656659"/>
      </g>
     </g>
     <g id="text_16">
      <!-- 2500 -->
      <g transform="translate(75.55 70.455878)scale(0.1 -0.1)">
       <use xlink:href="#DejaVuSans-50"/>
       <use x="63.623047" xlink:href="#DejaVuSans-53"/>
       <use x="127.246094" xlink:href="#DejaVuSans-48"/>
       <use x="190.869141" xlink:href="#DejaVuSans-48"/>
      </g>
     </g>
    </g>
    <g id="text_17">
     <!-- Value -->
     <defs>
      <path d="M 28.609375 0 
L 0.78125 72.90625 
L 11.078125 72.90625 
L 34.1875 11.53125 
L 57.328125 72.90625 
L 67.578125 72.90625 
L 39.796875 0 
z
" id="DejaVuSans-86"/>
      <path d="M 9.421875 75.984375 
L 18.40625 75.984375 
L 18.40625 0 
L 9.421875 0 
z
" id="DejaVuSans-108"/>
      <path d="M 8.5 21.578125 
L 8.5 54.6875 
L 17.484375 54.6875 
L 17.484375 21.921875 
Q 17.484375 14.15625 20.5 10.265625 
Q 23.53125 6.390625 29.59375 6.390625 
Q 36.859375 6.390625 41.078125 11.03125 
Q 45.3125 15.671875 45.3125 23.6875 
L 45.3125 54.6875 
L 54.296875 54.6875 
L 54.296875 0 
L 45.3125 0 
L 45.3125 8.40625 
Q 42.046875 3.421875 37.71875 1 
Q 33.40625 -1.421875 27.6875 -1.421875 
Q 18.265625 -1.421875 13.375 4.4375 
Q 8.5 10.296875 8.5 21.578125 
z
M 31.109375 56 
z
" id="DejaVuSans-117"/>
     </defs>
     <g transform="translate(67.453125 232.273281)rotate(-90)scale(0.1 -0.1)">
      <use xlink:href="#DejaVuSans-86"/>
      <use x="68.298828" xlink:href="#DejaVuSans-97"/>
      <use x="129.578125" xlink:href="#DejaVuSans-108"/>
      <use x="157.361328" xlink:href="#DejaVuSans-117"/>
      <use x="220.740234" xlink:href="#DejaVuSans-101"/>
     </g>
    </g>
   </g>
   <g id="line2d_16">
    <path clip-path="url(#p5f259abbc9)" d="M 138.436364 296.492028 
L 138.798701 265.06303 
L 139.161039 247.473677 
L 139.523377 236.580872 
L 139.885714 232.162853 
L 140.248052 245.633748 
L 140.61039 253.448196 
L 141.335065 289.235337 
L 141.697403 298.548967 
L 142.05974 311.032681 
L 142.422078 290.21141 
L 142.784416 287.485122 
L 143.146753 276.372409 
L 143.509091 269.748652 
L 143.871429 266.448755 
L 145.320779 330.212483 
L 145.683117 336.354268 
L 146.407792 320.63769 
L 146.77013 304.360747 
L 147.857143 223.35875 
L 148.219481 215.149858 
L 148.581818 216.255451 
L 148.944156 218.649615 
L 149.306494 244.127494 
L 149.668831 255.94094 
L 150.031169 278.486701 
L 150.393506 285.025901 
L 150.755844 282.684178 
L 151.118182 276.650408 
L 151.480519 277.011369 
L 151.842857 255.278295 
L 152.205195 258.845264 
L 152.567532 257.391086 
L 152.92987 267.817479 
L 154.016883 321.101057 
L 154.379221 322.565786 
L 154.741558 327.287753 
L 155.103896 320.002669 
L 155.466234 289.129808 
L 155.828571 273.982711 
L 156.553247 218.153819 
L 157.277922 204.034677 
L 157.64026 216.095165 
L 158.364935 256.163965 
L 158.727273 279.719416 
L 159.08961 294.332523 
L 159.451948 289.807387 
L 159.814286 276.522759 
L 160.176623 268.288251 
L 160.538961 265.112464 
L 160.901299 258.480812 
L 161.263636 267.855391 
L 161.625974 267.381192 
L 161.988312 289.480197 
L 162.350649 295.575109 
L 163.075325 339.873516 
L 163.437662 338.307644 
L 164.524675 284.99905 
L 165.249351 232.644004 
L 165.611688 223.764445 
L 165.974026 222.906235 
L 166.698701 250.631051 
L 167.061039 278.379572 
L 167.423377 293.799008 
L 167.785714 302.978446 
L 168.148052 300.343073 
L 168.51039 299.741573 
L 168.872727 295.052522 
L 169.235065 275.967853 
L 169.597403 268.536175 
L 170.322078 283.4717 
L 171.409091 345.378281 
L 171.771429 355.455778 
L 172.496104 344.174815 
L 172.858442 318.303395 
L 173.583117 283.227482 
L 173.945455 249.575094 
L 174.67013 233.410562 
L 175.032468 255.786928 
L 175.394805 269.428523 
L 175.757143 287.282191 
L 176.119481 311.574712 
L 176.481818 321.00376 
L 176.844156 314.881875 
L 177.568831 310.888231 
L 177.931169 298.272643 
L 178.293506 291.320778 
L 178.655844 302.147517 
L 179.018182 299.174231 
L 179.380519 309.222861 
L 179.742857 345.062796 
L 180.467532 366.330624 
L 180.82987 364.846978 
L 181.192208 360.724347 
L 181.554545 340.784791 
L 182.641558 252.138962 
L 183.003896 256.424274 
L 183.366234 247.912331 
L 183.728571 265.160454 
L 184.090909 272.386447 
L 184.453247 302.392348 
L 184.815584 302.633812 
L 185.177922 326.055301 
L 185.54026 326.299224 
L 185.902597 327.349284 
L 186.627273 303.593271 
L 186.98961 294.732309 
L 187.351948 295.380745 
L 188.076623 317.655753 
L 188.438961 340.922312 
L 188.801299 355.810695 
L 189.163636 358.229841 
L 189.525974 369.36 
L 190.250649 328.73682 
L 190.975325 273.679116 
L 191.337662 252.225321 
L 191.7 238.919758 
L 192.062338 248.867201 
L 192.424675 252.251641 
L 192.787013 260.401594 
L 193.511688 298.31468 
L 193.874026 299.779277 
L 194.236364 305.55756 
L 194.961039 293.075981 
L 195.323377 280.894069 
L 195.685714 274.035865 
L 196.048052 285.892152 
L 196.41039 284.606251 
L 197.85974 343.78504 
L 198.222078 346.913136 
L 198.584416 330.1654 
L 199.309091 279.241829 
L 200.396104 217.26769 
L 200.758442 216.400755 
L 201.120779 235.711264 
L 201.483117 241.181422 
L 201.845455 262.928616 
L 202.57013 289.301983 
L 202.932468 285.382993 
L 203.294805 282.925601 
L 204.019481 257.18411 
L 204.381818 250.800637 
L 205.106494 267.08301 
L 205.468831 276.299161 
L 206.193506 320.192767 
L 206.555844 323.424015 
L 206.918182 329.914752 
L 207.642857 286.211113 
L 208.367532 243.06352 
L 208.72987 214.206758 
L 209.092208 201.491799 
L 209.454545 200.04653 
L 210.179221 223.798197 
L 210.541558 247.400554 
L 210.903896 257.347755 
L 211.266234 271.101361 
L 212.353247 257.96541 
L 212.715584 237.432736 
L 213.077922 233.372726 
L 213.802597 246.309931 
L 214.164935 264.277171 
L 214.527273 274.668705 
L 214.88961 305.537711 
L 215.251948 319.591396 
L 215.614286 306.124993 
L 215.976623 300.505529 
L 216.338961 281.027931 
L 217.063636 218.95021 
L 217.425974 203.267399 
L 217.788312 195.750425 
L 218.150649 194.22617 
L 218.512987 204.190738 
L 218.875325 217.51876 
L 219.237662 251.403515 
L 219.6 258.224209 
L 219.962338 268.377798 
L 220.324675 266.912553 
L 220.687013 264.889351 
L 221.049351 261.181963 
L 221.411688 259.019617 
L 221.774026 244.218384 
L 222.136364 244.911742 
L 222.498701 255.865251 
L 223.223377 289.490102 
L 223.585714 313.611852 
L 223.948052 321.064733 
L 224.31039 323.800275 
L 224.672727 311.01093 
L 225.035065 281.962086 
L 225.397403 263.413082 
L 226.122078 212.428552 
L 226.484416 201.200169 
L 226.846753 217.324517 
L 227.209091 218.478736 
L 227.571429 246.899233 
L 227.933766 253.753918 
L 228.296104 269.42369 
L 229.020779 288.698282 
L 229.383117 281.612858 
L 229.745455 277.28875 
L 230.107792 269.416976 
L 230.47013 250.662484 
L 230.832468 258.740571 
L 231.194805 273.240987 
L 231.557143 294.511106 
L 231.919481 306.254686 
L 232.644156 344.736027 
L 233.006494 342.11182 
L 233.731169 312.545327 
L 234.818182 234.692798 
L 235.180519 220.47579 
L 235.542857 227.903113 
L 235.905195 237.764894 
L 236.62987 275.368027 
L 236.992208 294.999805 
L 237.354545 307.492492 
L 237.716883 301.60925 
L 238.079221 298.361762 
L 238.441558 283.827199 
L 238.803896 276.084405 
L 239.166234 281.346368 
L 239.528571 277.071081 
L 239.890909 288.594679 
L 240.615584 327.979796 
L 240.977922 342.852565 
L 241.34026 353.116257 
L 241.702597 352.896614 
L 242.427273 321.741893 
L 243.514286 247.960737 
L 243.876623 241.109809 
L 244.238961 224.46113 
L 245.325974 283.625388 
L 246.050649 303.213569 
L 246.412987 311.495283 
L 246.775325 295.705931 
L 247.137662 292.340398 
L 247.862338 275.926101 
L 248.224675 273.390286 
L 248.587013 286.797856 
L 249.674026 342.063648 
L 250.036364 347.498843 
L 250.398701 346.037174 
L 250.761039 342.312837 
L 251.848052 258.272172 
L 252.21039 239.888581 
L 252.572727 229.512278 
L 252.935065 230.995871 
L 253.297403 230.511902 
L 253.65974 247.433537 
L 254.022078 272.091464 
L 254.384416 288.452067 
L 254.746753 293.556801 
L 255.109091 295.485137 
L 256.196104 265.027454 
L 256.558442 257.986518 
L 256.920779 257.078986 
L 257.283117 273.543102 
L 257.645455 295.402205 
L 258.007792 297.022553 
L 258.732468 336.052282 
L 259.094805 328.881359 
L 259.457143 316.140404 
L 259.819481 297.182051 
L 260.544156 240.98875 
L 260.906494 215.570902 
L 261.631169 201.543202 
L 262.355844 223.935336 
L 263.080519 258.308154 
L 263.442857 268.870789 
L 263.805195 276.161347 
L 264.167532 258.628835 
L 264.52987 252.187869 
L 264.892208 237.239852 
L 265.254545 240.297175 
L 265.616883 240.44102 
L 265.979221 243.655198 
L 266.703896 291.863198 
L 267.066234 300.520576 
L 267.428571 312.081075 
L 267.790909 310.11952 
L 268.515584 278.556832 
L 269.24026 213.956495 
L 269.602597 190.437743 
L 269.964935 180.370432 
L 270.327273 182.822926 
L 270.68961 189.499137 
L 271.414286 226.495055 
L 271.776623 238.793036 
L 272.138961 246.741657 
L 272.501299 264.342397 
L 272.863636 241.672707 
L 273.225974 242.050725 
L 273.950649 222.185796 
L 274.312987 220.979554 
L 274.675325 233.142907 
L 276.124675 301.781655 
L 276.487013 298.58823 
L 277.574026 236.421419 
L 278.298701 186.608693 
L 279.023377 176.974242 
L 279.385714 184.319367 
L 280.11039 229.91271 
L 280.472727 247.866272 
L 280.835065 254.222588 
L 281.197403 267.335386 
L 281.55974 257.520278 
L 281.922078 238.228325 
L 282.284416 234.864299 
L 282.646753 228.624553 
L 283.009091 236.962085 
L 283.371429 240.004885 
L 283.733766 254.5918 
L 284.458442 301.315927 
L 284.820779 301.007791 
L 285.183117 310.307248 
L 286.27013 250.958649 
L 286.994805 197.169796 
L 287.357143 186.146341 
L 287.719481 199.131018 
L 288.081818 199.717374 
L 288.806494 246.413901 
L 289.168831 254.71474 
L 289.531169 268.97946 
L 289.893506 269.817506 
L 290.618182 254.366257 
L 290.980519 252.862222 
L 291.342857 242.65298 
L 291.705195 240.671598 
L 292.067532 253.219435 
L 292.792208 296.060385 
L 293.154545 315.391119 
L 293.516883 321.316126 
L 293.879221 317.808978 
L 294.241558 317.649009 
L 295.690909 227.047299 
L 296.415584 203.979147 
L 297.14026 238.598408 
L 297.502597 259.640532 
L 297.864935 268.718987 
L 298.227273 286.349075 
L 298.58961 289.295412 
L 300.038961 257.292303 
L 300.401299 258.839176 
L 300.763636 278.68278 
L 301.125974 290.166405 
L 301.850649 327.955566 
L 302.212987 328.239377 
L 302.575325 337.889045 
L 302.937662 326.478677 
L 303.662338 282.745519 
L 304.024675 246.952603 
L 304.387013 233.054314 
L 304.749351 224.614587 
L 305.111688 222.270085 
L 305.474026 226.272962 
L 305.836364 241.677834 
L 306.198701 273.032654 
L 306.561039 272.660622 
L 306.923377 287.598639 
L 307.285714 292.626282 
L 307.648052 288.188109 
L 308.01039 270.613557 
L 308.372727 269.557724 
L 308.735065 251.783491 
L 309.097403 256.869311 
L 309.45974 269.482104 
L 310.184416 312.007746 
L 310.546753 320.302265 
L 310.909091 335.859146 
L 311.271429 338.481623 
L 311.633766 326.412835 
L 312.358442 270.508734 
L 313.445455 204.327055 
L 313.807792 213.273518 
L 314.17013 217.117434 
L 314.894805 252.984679 
L 315.619481 282.48466 
L 315.981818 278.127824 
L 316.344156 262.879871 
L 316.706494 272.153478 
L 317.068831 246.327038 
L 317.431169 238.952446 
L 317.793506 236.923837 
L 318.155844 258.048743 
L 319.605195 308.319824 
L 319.967532 319.405694 
L 320.32987 290.67185 
L 320.692208 278.385487 
L 321.054545 255.851596 
L 321.779221 203.350008 
L 322.141558 186.569642 
L 322.503896 195.363261 
L 322.866234 196.634382 
L 323.228571 206.050018 
L 323.590909 220.725872 
L 324.315584 257.646221 
L 324.677922 256.584079 
L 325.04026 250.436293 
L 325.402597 250.366075 
L 325.764935 223.111868 
L 326.127273 220.278588 
L 326.48961 221.104077 
L 327.576623 261.523728 
L 327.938961 288.716669 
L 328.301299 294.845054 
L 328.663636 285.360538 
L 329.025974 279.939786 
L 330.112987 197.820741 
L 330.837662 168.578084 
L 331.2 169.971499 
L 331.562338 171.890374 
L 332.649351 231.815679 
L 333.011688 231.696008 
L 333.374026 240.435339 
L 333.736364 230.405883 
L 334.098701 229.711175 
L 334.461039 215.025233 
L 334.823377 211.478908 
L 335.548052 219.343817 
L 336.635065 278.739292 
L 336.997403 277.021847 
L 337.35974 277.246084 
L 337.722078 275.791853 
L 338.084416 256.013343 
L 339.171429 171.154767 
L 339.533766 164.668192 
L 339.896104 166.122129 
L 340.258442 177.018444 
L 341.707792 243.377735 
L 342.07013 242.20818 
L 342.432468 238.012092 
L 343.157143 215.192441 
L 343.519481 211.771549 
L 343.881818 214.267694 
L 344.606494 241.145087 
L 345.331169 281.266103 
L 345.693506 295.366107 
L 346.055844 282.285987 
L 346.418182 279.503868 
L 346.780519 254.657849 
L 347.142857 240.237596 
L 347.505195 202.058199 
L 348.22987 174.883013 
L 348.592208 176.257743 
L 348.954545 183.180664 
L 350.403896 257.128501 
L 350.766234 255.358399 
L 351.128571 254.842037 
L 351.490909 240.03069 
L 351.853247 237.443527 
L 352.215584 222.38734 
L 352.577922 229.613034 
L 353.664935 280.113379 
L 354.027273 307.856148 
L 354.751948 315.133878 
L 355.114286 303.227038 
L 355.838961 261.516543 
L 356.201299 222.122417 
L 356.563636 215.368571 
L 356.925974 195.191764 
L 357.288312 189.449423 
L 358.012987 221.448485 
L 359.1 283.228459 
L 359.462338 276.24304 
L 359.824675 278.324608 
L 360.187013 252.810956 
L 360.549351 255.03386 
L 360.911688 250.915814 
L 361.274026 248.600253 
L 361.998701 272.270434 
L 362.361039 300.059501 
L 362.723377 308.028719 
L 363.085714 335.752091 
L 363.448052 325.510234 
L 364.172727 289.700118 
L 365.25974 215.25402 
L 365.622078 200.059907 
L 365.984416 200.408795 
L 366.346753 211.553471 
L 366.709091 226.134672 
L 367.071429 251.476001 
L 367.433766 269.036355 
L 367.796104 276.700737 
L 368.158442 274.468556 
L 368.520779 272.945403 
L 368.883117 256.866739 
L 369.607792 252.66257 
L 369.97013 243.386534 
L 370.332468 256.058492 
L 371.057143 305.795818 
L 371.419481 310.941652 
L 371.781818 324.774223 
L 372.144156 321.472443 
L 372.868831 285.82373 
L 373.593506 229.675337 
L 373.955844 206.523767 
L 374.318182 192.066499 
L 374.680519 187.548653 
L 376.12987 250.238922 
L 376.492208 259.253524 
L 376.854545 257.658215 
L 377.216883 250.391235 
L 377.579221 255.024888 
L 377.941558 223.937125 
L 378.666234 235.322222 
L 379.028571 238.574249 
L 379.390909 259.368847 
L 379.753247 271.652489 
L 380.477922 307.57245 
L 380.84026 297.878371 
L 381.202597 292.779629 
L 382.28961 200.631706 
L 383.014286 169.434194 
L 383.376623 164.621796 
L 383.738961 183.507367 
L 384.101299 190.043419 
L 384.463636 217.016256 
L 384.825974 235.514528 
L 385.188312 236.055506 
L 385.550649 244.054242 
L 385.912987 229.535594 
L 386.275325 225.787258 
L 386.637662 207.412148 
L 387 204.907896 
L 387.362338 206.252771 
L 387.724675 213.468725 
L 388.087013 227.743473 
L 388.449351 257.09189 
L 389.174026 273.749479 
L 389.536364 275.390019 
L 389.898701 268.994314 
L 390.985714 180.835823 
L 391.348052 163.491253 
L 392.072727 148.91591 
L 392.435065 164.835007 
L 392.797403 172.911965 
L 393.15974 202.073625 
L 393.522078 211.929912 
L 393.884416 228.628705 
L 394.246753 227.776913 
L 395.333766 196.551832 
L 395.696104 196.871284 
L 396.058442 185.919656 
L 396.420779 210.915559 
L 396.783117 220.6651 
L 397.145455 235.157367 
L 397.507792 256.829933 
L 397.87013 263.823973 
L 398.232468 267.33118 
L 399.681818 177.702308 
L 400.406494 142.43494 
L 400.768831 143.663477 
L 401.131169 162.704637 
L 401.493506 172.155739 
L 402.580519 223.354299 
L 402.942857 229.798242 
L 403.305195 216.202896 
L 403.667532 212.244933 
L 404.02987 204.670436 
L 404.392208 194.572245 
L 404.754545 196.533435 
L 405.116883 203.285728 
L 406.203896 259.368396 
L 406.566234 271.330596 
L 406.928571 274.230989 
L 407.290909 263.406075 
L 408.015584 216.992677 
L 408.377922 189.198099 
L 408.74026 181.214291 
L 409.102597 165.225468 
L 409.464935 159.985252 
L 410.551948 210.466648 
L 410.914286 220.53261 
L 411.276623 236.420967 
L 411.638961 241.269268 
L 412.001299 244.490721 
L 412.725974 219.101834 
L 413.088312 213.531564 
L 413.450649 212.249777 
L 413.812987 219.076367 
L 414.175325 241.807294 
L 414.537662 256.578339 
L 414.9 283.591998 
L 415.262338 287.246869 
L 415.624675 299.286571 
L 415.987013 285.091999 
L 416.349351 266.236649 
L 416.711688 231.943837 
L 417.436364 192.432553 
L 417.798701 176.418054 
L 418.161039 178.858386 
L 418.523377 188.302934 
L 418.885714 211.969805 
L 419.248052 225.81306 
L 419.61039 248.935734 
L 419.972727 254.838098 
L 420.335065 264.055609 
L 421.422078 234.795608 
L 421.784416 234.415776 
L 422.146753 227.628055 
L 423.233766 273.252634 
L 423.596104 307.749456 
L 423.958442 308.443421 
L 424.320779 310.276286 
L 424.683117 296.406243 
L 425.407792 245.522205 
L 426.132468 195.474527 
L 426.494805 194.257893 
L 426.857143 191.749234 
L 427.581818 211.569941 
L 427.944156 234.36327 
L 428.668831 256.636822 
L 429.031169 263.713202 
L 429.393506 257.32462 
L 429.755844 243.870567 
L 430.480519 234.605651 
L 430.842857 236.798311 
L 431.205195 251.35636 
L 431.567532 256.527152 
L 431.92987 272.04388 
L 432.292208 300.923346 
L 432.654545 300.423206 
L 433.016883 301.50733 
L 433.379221 295.768371 
L 433.741558 262.536265 
L 434.103896 241.084378 
L 434.466234 206.723556 
L 434.828571 194.760622 
L 435.190909 175.249399 
L 435.553247 180.854133 
L 435.915584 190.241047 
L 437.002597 239.391986 
L 437.364935 243.31637 
L 437.727273 243.813682 
L 438.08961 244.062351 
L 438.814286 222.617546 
L 439.176623 216.890019 
L 439.538961 213.86779 
L 440.263636 234.920426 
L 440.625974 259.890828 
L 441.350649 284.155941 
L 441.712987 287.130833 
L 442.437662 254.025458 
L 443.162338 181.887711 
L 443.887013 158.739269 
L 444.249351 151.31199 
L 444.611688 161.974945 
L 444.974026 184.638142 
L 445.336364 193.249998 
L 446.061039 228.495947 
L 446.423377 231.337593 
L 446.785714 209.256739 
L 447.148052 213.18124 
L 447.872727 178.989573 
L 448.235065 196.183148 
L 448.597403 198.027284 
L 448.95974 223.852488 
L 449.322078 232.979247 
L 450.046753 257.282551 
L 450.409091 264.301267 
L 451.133766 230.566065 
L 451.496104 194.305433 
L 451.858442 178.109599 
L 452.220779 149.338348 
L 452.583117 133.553913 
L 453.307792 141.624708 
L 453.67013 159.15557 
L 454.032468 183.036953 
L 454.757143 209.074153 
L 455.119481 205.178538 
L 455.481818 195.510045 
L 456.206494 184.317897 
L 456.568831 176.329893 
L 457.293506 189.019245 
L 458.380519 240.449428 
L 458.742857 252.400484 
L 459.105195 252.031813 
L 459.467532 240.004848 
L 460.192208 195.243717 
L 460.554545 160.405461 
L 460.916883 146.397875 
L 461.279221 127.655064 
L 461.641558 131.022167 
L 462.366234 157.527327 
L 462.728571 184.081986 
L 463.090909 196.42819 
L 463.453247 202.883143 
L 463.815584 211.629489 
L 464.177922 207.323189 
L 464.54026 197.539039 
L 464.902597 180.395177 
L 465.264935 175.419874 
L 465.627273 179.399951 
L 466.351948 206.124491 
L 467.076623 249.246453 
L 467.438961 258.091818 
L 467.801299 256.516519 
L 468.163636 249.364875 
L 468.888312 204.624836 
L 469.250649 186.402347 
L 469.612987 148.634567 
L 469.975325 147.030745 
L 470.337662 147.415391 
L 470.7 157.08708 
L 471.424675 185.485354 
L 471.787013 219.232326 
L 472.149351 222.412738 
L 472.511688 220.494614 
L 472.874026 224.186526 
L 473.236364 214.583795 
L 473.598701 201.391019 
L 474.323377 202.878242 
L 475.048052 237.045088 
L 475.41039 243.14845 
L 475.772727 265.179358 
L 476.135065 280.417208 
L 476.497403 278.64918 
L 476.85974 261.299997 
L 477.222078 250.285012 
L 477.584416 217.411047 
L 478.309091 175.075931 
L 478.671429 166.563998 
L 479.033766 172.511594 
L 480.845455 236.612951 
L 481.207792 244.835104 
L 481.57013 237.868548 
L 481.932468 226.609946 
L 482.294805 219.645176 
L 482.657143 216.638086 
L 483.019481 217.453806 
L 483.381818 227.822519 
L 483.744156 243.660298 
L 484.106494 265.956785 
L 484.831169 294.259438 
L 485.193506 294.694266 
L 485.555844 284.45289 
L 486.642857 204.260892 
L 487.367532 174.387443 
L 487.72987 174.356001 
L 488.092208 181.75934 
L 488.454545 193.834609 
L 488.816883 218.077146 
L 489.541558 249.59572 
L 489.903896 252.141112 
L 490.266234 236.278798 
L 490.990909 219.898321 
L 491.353247 217.645635 
L 491.715584 220.352654 
L 492.077922 221.746197 
L 493.164935 273.87477 
L 493.527273 287.328799 
L 493.88961 288.295977 
L 494.251948 277.943762 
L 494.976623 222.46898 
L 495.701299 180.040367 
L 496.063636 156.719142 
L 496.425974 160.621765 
L 497.512987 208.01693 
L 497.875325 227.219519 
L 498.237662 234.189871 
L 499.324675 218.243831 
L 499.687013 205.158104 
L 500.049351 202.131762 
L 500.411688 195.320007 
L 500.774026 213.290171 
L 501.136364 225.349344 
L 501.498701 241.695249 
L 501.861039 266.598697 
L 502.223377 263.742607 
L 502.585714 275.988908 
L 503.31039 229.463773 
L 504.035065 171.296595 
L 504.397403 160.549004 
L 504.75974 139.125772 
L 505.122078 136.742546 
L 505.484416 152.113117 
L 505.846753 162.768588 
L 506.209091 183.722649 
L 506.571429 193.755983 
L 506.933766 210.771123 
L 507.296104 203.43038 
L 507.658442 204.32541 
L 508.383117 186.12184 
L 508.745455 174.661323 
L 509.47013 181.46121 
L 510.194805 219.914865 
L 510.557143 242.432643 
L 510.919481 254.169457 
L 511.281818 241.208442 
L 511.644156 236.424153 
L 512.731169 158.214722 
L 513.093506 136.549792 
L 513.455844 123.159569 
L 513.818182 123.107532 
L 514.180519 137.077254 
L 514.542857 146.41078 
L 515.267532 175.120397 
L 515.62987 192.065949 
L 515.992208 188.618465 
L 516.354545 187.440011 
L 516.716883 180.081604 
L 517.441558 161.821934 
L 518.166234 173.61327 
L 518.528571 187.356406 
L 519.253247 226.595399 
L 519.615584 238.282539 
L 520.34026 221.626901 
L 520.702597 200.525094 
L 521.064935 170.006685 
L 522.151948 112.593222 
L 522.514286 112.842035 
L 523.238961 141.42483 
L 523.601299 160.622432 
L 523.963636 186.814298 
L 524.325974 191.90881 
L 524.688312 192.888117 
L 525.050649 185.500052 
L 525.412987 174.356844 
L 525.775325 174.439592 
L 526.137662 162.312076 
L 526.5 167.184891 
L 526.862338 174.929564 
L 527.224675 203.548583 
L 528.311688 244.677494 
L 528.674026 246.701642 
L 529.398701 210.923542 
L 529.761039 179.36572 
L 530.848052 127.981536 
L 531.21039 127.265312 
L 531.572727 137.0405 
L 531.935065 161.516136 
L 532.297403 170.451972 
L 532.65974 199.410706 
L 533.022078 213.860068 
L 533.384416 208.585649 
L 533.746753 200.823685 
L 534.109091 195.992963 
L 534.471429 184.638131 
L 534.833766 180.913011 
L 535.558442 198.689697 
L 535.920779 212.818959 
L 536.645455 254.371813 
L 537.007792 261.074939 
L 537.37013 260.90249 
L 537.732468 250.208597 
L 539.181818 157.078483 
L 539.906494 143.84051 
L 540.631169 172.420448 
L 541.355844 213.889029 
L 541.718182 227.14665 
L 542.080519 225.151588 
L 542.442857 218.015441 
L 542.805195 214.276115 
L 543.167532 200.652353 
L 543.52987 198.180101 
L 543.892208 199.159312 
L 544.616883 218.98868 
L 545.341558 271.02667 
L 545.703896 287.334352 
L 546.066234 280.739295 
L 546.428571 265.956491 
L 548.24026 149.370633 
L 548.602597 154.498414 
L 549.327273 193.783458 
L 549.68961 203.002577 
L 550.414286 231.447936 
L 550.776623 233.244433 
L 551.138961 221.761425 
L 551.501299 216.419434 
L 551.863636 202.947313 
L 552.225974 209.373695 
L 552.588312 201.743641 
L 553.675325 246.853704 
L 554.037662 268.802276 
L 554.4 276.610517 
L 554.762338 270.822397 
L 555.124675 256.756796 
L 555.487013 238.087683 
L 555.849351 209.36259 
L 556.211688 190.597419 
L 556.574026 158.28979 
L 556.936364 142.092503 
L 557.298701 145.925604 
L 558.023377 169.927761 
L 558.748052 214.696741 
L 559.11039 214.719829 
L 559.472727 216.09324 
L 560.197403 200.443135 
L 560.55974 186.534349 
L 560.922078 182.479274 
L 561.284416 184.043181 
L 561.646753 191.416032 
L 562.009091 213.127355 
L 562.733766 245.015963 
L 563.096104 245.964697 
L 563.458442 251.117737 
L 564.183117 217.547654 
L 564.545455 193.443462 
L 564.907792 158.44092 
L 565.632468 123.789822 
L 565.994805 129.996547 
L 566.357143 134.176399 
L 567.081818 168.418066 
L 567.444156 187.443342 
L 567.806494 198.019345 
L 568.168831 200.235777 
L 568.531169 190.633368 
L 568.893506 174.94454 
L 569.618182 162.685657 
L 569.980519 162.296548 
L 570.342857 171.443984 
L 571.067532 208.504358 
L 571.42987 215.996421 
L 571.792208 228.591526 
L 572.154545 234.361738 
L 572.516883 222.332533 
L 573.966234 118.709598 
L 574.328571 100.245543 
L 574.690909 111.208384 
L 575.053247 111.774474 
L 576.14026 171.995407 
L 576.502597 172.197118 
L 576.864935 179.665139 
L 577.227273 166.983807 
L 577.58961 160.591338 
L 577.951948 149.603443 
L 578.314286 144.295188 
L 578.676623 155.096135 
L 579.038961 158.138158 
L 579.401299 172.925817 
L 580.125974 213.885583 
L 580.488312 221.354074 
L 580.850649 221.395263 
L 581.212987 209.016983 
L 581.575325 175.076016 
L 581.937662 161.056961 
L 582.662338 112.683598 
L 583.024675 96.257005 
L 584.111688 125.042681 
L 584.474026 149.566209 
L 585.198701 173.793154 
L 585.561039 178.631535 
L 585.923377 169.389732 
L 586.285714 154.067591 
L 586.648052 156.803682 
L 587.01039 145.971654 
L 587.372727 159.529017 
L 587.735065 156.320779 
L 588.45974 199.340931 
L 589.184416 228.151204 
L 589.546753 231.468222 
L 589.909091 223.501413 
L 590.271429 202.451547 
L 590.633766 162.858246 
L 591.358442 128.377285 
L 591.720779 114.297611 
L 592.083117 113.757963 
L 592.445455 115.614124 
L 592.807792 141.64944 
L 593.894805 193.907471 
L 594.257143 194.709758 
L 594.619481 192.962972 
L 594.981818 183.957463 
L 595.344156 163.894956 
L 595.706494 169.589487 
L 596.068831 166.785541 
L 596.431169 180.761077 
L 596.793506 206.498983 
L 597.155844 217.291414 
L 597.518182 240.194646 
L 597.880519 242.074074 
L 598.242857 252.534726 
L 598.605195 240.344993 
L 599.32987 191.750759 
L 600.054545 136.457041 
L 600.416883 139.819847 
L 600.779221 131.785529 
L 601.141558 146.253788 
L 601.503896 165.380874 
L 602.228571 192.914895 
L 602.590909 200.647337 
L 602.953247 213.868053 
L 603.315584 200.933656 
L 603.677922 196.905259 
L 604.04026 191.093575 
L 604.402597 173.152781 
L 604.764935 184.75208 
L 605.48961 221.461644 
L 605.851948 227.95325 
L 606.576623 266.986892 
L 606.938961 265.144469 
L 607.301299 248.435612 
L 608.750649 160.121456 
L 609.112987 145.78782 
L 609.475325 146.897042 
L 609.837662 152.321282 
L 610.562338 182.558972 
L 611.287013 216.6014 
L 611.649351 221.854433 
L 612.011688 207.864998 
L 612.374026 201.820888 
L 612.736364 189.032634 
L 613.098701 184.10727 
L 613.461039 186.017494 
L 614.185714 213.195995 
L 614.548052 224.981977 
L 614.91039 245.644227 
L 615.272727 248.923796 
L 615.635065 257.908499 
L 616.35974 229.949617 
L 616.722078 186.560866 
L 617.084416 175.16689 
L 617.446753 143.15954 
L 618.171429 134.864133 
L 618.896104 154.010416 
L 619.620779 186.964306 
L 619.983117 197.453678 
L 620.345455 200.250201 
L 620.707792 195.702137 
L 621.07013 182.819746 
L 621.794805 168.097853 
L 622.157143 167.321898 
L 622.519481 175.339999 
L 623.606494 227.188513 
L 623.968831 244.162479 
L 624.331169 232.991993 
L 624.693506 297.745389 
L 625.055844 196.74422 
L 626.142857 119.966256 
L 626.505195 110.151996 
L 626.867532 103.718154 
L 627.22987 115.158443 
L 628.316883 166.879736 
L 628.679221 180.504112 
L 629.041558 179.805429 
L 629.403896 169.37306 
L 629.766234 169.172834 
L 630.128571 150.195324 
L 630.853247 143.328769 
L 631.577922 165.545846 
L 631.94026 189.650962 
L 632.664935 216.223336 
L 633.027273 215.53196 
L 633.38961 205.712261 
L 633.751948 175.490063 
L 634.114286 158.611273 
L 634.476623 122.714353 
L 635.201299 84.959861 
L 635.563636 90.928708 
L 635.925974 89.937592 
L 636.288312 118.310066 
L 636.650649 128.841189 
L 637.375325 166.005374 
L 638.1 155.647817 
L 638.462338 140.636771 
L 638.824675 137.760204 
L 639.187013 129.055693 
L 639.549351 132.832713 
L 639.911688 141.829314 
L 640.998701 200.583841 
L 641.361039 205.811023 
L 641.723377 201.013806 
L 642.085714 194.103065 
L 642.81039 142.4019 
L 643.172727 111.449798 
L 643.535065 98.61902 
L 643.897403 80.765899 
L 644.25974 87.219505 
L 644.984416 114.014755 
L 645.709091 151.850271 
L 646.071429 156.17568 
L 646.433766 168.477442 
L 646.796104 165.49999 
L 647.158442 147.423302 
L 647.520779 148.659882 
L 647.883117 138.967792 
L 648.245455 134.41919 
L 648.607792 145.093889 
L 649.694805 208.279174 
L 650.057143 207.913686 
L 650.419481 211.579847 
L 650.781818 201.333249 
L 652.231169 103.212715 
L 652.593506 96.264962 
L 652.955844 99.956851 
L 653.318182 108.892466 
L 654.042857 143.941067 
L 654.405195 162.010733 
L 654.767532 169.769834 
L 655.12987 180.814965 
L 655.492208 178.820306 
L 655.854545 163.554022 
L 656.216883 161.120999 
L 656.579221 151.48916 
L 657.303896 164.208671 
L 657.666234 178.629517 
L 658.028571 210.257584 
L 658.753247 231.155857 
L 659.115584 224.736717 
L 659.477922 224.275343 
L 659.84026 199.922883 
L 660.202597 167.617157 
L 661.28961 115.87124 
L 661.651948 120.177912 
L 662.014286 127.485041 
L 662.738961 166.504094 
L 663.463636 196.306278 
L 663.825974 192.226513 
L 664.188312 195.797924 
L 664.550649 185.454378 
L 664.912987 168.491592 
L 665.275325 167.954829 
L 665.637662 174.208248 
L 666 184.464104 
L 666.724675 217.654951 
L 667.087013 230.452813 
L 667.449351 237.094906 
L 667.811688 250.23738 
L 668.174026 227.656779 
L 668.536364 216.725594 
L 669.623377 134.1116 
L 669.985714 118.962215 
L 670.348052 118.025941 
L 671.072727 154.235466 
L 671.797403 196.056965 
L 672.15974 202.151504 
L 672.522078 199.258939 
L 672.884416 186.245701 
L 673.246753 186.26506 
L 673.609091 173.703593 
L 673.971429 167.832087 
L 674.333766 166.89055 
L 674.696104 176.071786 
L 675.058442 195.100154 
L 675.420779 222.953361 
L 675.783117 235.435095 
L 676.145455 243.013618 
L 676.507792 242.490418 
L 676.87013 230.655439 
L 677.594805 180.190605 
L 678.681818 111.825922 
L 679.044156 113.533762 
L 679.768831 135.514183 
L 680.131169 159.870537 
L 680.855844 189.189532 
L 681.218182 185.870913 
L 681.580519 184.894373 
L 681.942857 172.915264 
L 682.305195 156.170483 
L 682.667532 152.869622 
L 683.02987 151.867544 
L 683.392208 161.479229 
L 683.754545 182.283754 
L 684.116883 190.424306 
L 684.479221 210.848507 
L 684.841558 221.795359 
L 685.203896 226.487381 
L 685.566234 199.792479 
L 685.928571 185.908408 
L 687.015584 112.895709 
L 687.377922 100.638818 
L 687.74026 92.507092 
L 688.102597 109.657599 
L 688.464935 117.358469 
L 688.827273 134.076202 
L 689.18961 144.950621 
L 689.551948 164.305915 
L 689.914286 165.526498 
L 690.638961 142.742038 
L 691.001299 142.961077 
L 691.363636 125.59711 
L 691.725974 130.163698 
L 692.450649 155.073377 
L 693.537662 200.162054 
L 693.9 197.252125 
L 694.624675 165.342517 
L 695.711688 76.63579 
L 696.074026 75.203262 
L 696.436364 71.611915 
L 696.798701 74.750095 
L 697.161039 91.489186 
L 697.523377 119.23973 
L 697.885714 135.601021 
L 698.61039 158.161942 
L 698.972727 149.760737 
L 699.335065 130.822374 
L 699.697403 123.707055 
L 700.05974 120.986568 
L 700.422078 116.508253 
L 700.784416 123.380779 
L 701.509091 162.535153 
L 701.871429 179.01709 
L 702.233766 187.791074 
L 702.596104 189.870753 
L 702.958442 177.495782 
L 703.320779 158.588633 
L 704.045455 96.031221 
L 704.407792 85.056905 
L 704.77013 67.745726 
L 705.132468 66.96 
L 705.494805 85.113987 
L 705.857143 96.497502 
L 706.581818 129.58093 
L 706.944156 142.018125 
L 707.306494 148.216274 
L 707.668831 141.780549 
L 708.031169 132.990663 
L 708.393506 116.393966 
L 708.755844 124.472094 
L 709.480519 129.68906 
L 710.205195 167.42273 
L 710.567532 188.43562 
L 710.92987 193.743666 
L 711.292208 195.003849 
L 711.654545 191.251596 
L 713.103896 89.428417 
L 713.466234 81.91132 
L 713.828571 86.095843 
L 714.190909 93.375057 
L 714.915584 131.242137 
L 715.277922 141.778039 
L 715.64026 166.871084 
L 716.002597 161.738272 
L 716.364935 148.383169 
L 716.727273 149.162667 
L 717.08961 140.736185 
L 717.451948 138.959119 
L 717.814286 134.091207 
L 718.176623 135.197435 
L 718.538961 153.802606 
L 718.901299 183.983531 
L 719.263636 201.941852 
L 719.988312 217.265972 
L 720.712987 191.104239 
L 721.8 106.846452 
L 722.162338 104.233725 
L 722.524675 104.837362 
L 722.887013 114.738428 
L 723.974026 168.709763 
L 724.698701 185.36648 
L 725.785714 155.098781 
L 726.148052 150.885777 
L 726.51039 155.513938 
L 726.872727 164.653827 
L 727.597403 197.120087 
L 727.95974 221.420314 
L 728.322078 234.518142 
L 728.684416 228.638877 
L 729.046753 220.839637 
L 729.771429 172.24692 
L 730.858442 101.870482 
L 731.583117 122.323674 
L 732.307792 166.356617 
L 732.67013 167.851631 
L 733.394805 191.283851 
L 733.757143 175.715627 
L 734.119481 165.98594 
L 734.844156 156.705203 
L 735.206494 156.732503 
L 735.931169 176.547408 
L 736.655844 215.994666 
L 737.018182 225.932919 
L 737.380519 223.290435 
L 737.742857 217.785912 
L 739.192208 110.343185 
L 739.554545 97.675315 
L 739.916883 102.037879 
L 740.279221 111.657583 
L 740.641558 132.471523 
L 741.003896 141.939436 
L 741.366234 160.983498 
L 741.728571 169.702722 
L 742.090909 169.483992 
L 742.453247 164.626961 
L 742.815584 154.982469 
L 743.177922 150.349028 
L 743.54026 138.806501 
L 743.902597 145.170237 
L 744.264935 143.675643 
L 744.98961 182.081873 
L 745.714286 208.675406 
L 746.076623 203.054397 
L 746.438961 192.23054 
L 746.801299 164.285501 
L 746.801299 164.285501 
" style="fill:none;stroke:#1f77b4;stroke-linecap:square;stroke-width:1.5;"/>
   </g>
   <g id="line2d_17">
    <path clip-path="url(#p5f259abbc9)" d="M 747.163636 384.48 
L 747.163636 51.84 
" style="fill:none;stroke:#808080;stroke-linecap:square;"/>
   </g>
   <g id="patch_52">
    <path d="M 108 384.48 
L 108 51.84 
" style="fill:none;stroke:#000000;stroke-linecap:square;stroke-linejoin:miter;stroke-width:0.8;"/>
   </g>
   <g id="patch_53">
    <path d="M 777.6 384.48 
L 777.6 51.84 
" style="fill:none;stroke:#000000;stroke-linecap:square;stroke-linejoin:miter;stroke-width:0.8;"/>
   </g>
   <g id="patch_54">
    <path d="M 108 384.48 
L 777.6 384.48 
" style="fill:none;stroke:#000000;stroke-linecap:square;stroke-linejoin:miter;stroke-width:0.8;"/>
   </g>
   <g id="patch_55">
    <path d="M 108 51.84 
L 777.6 51.84 
" style="fill:none;stroke:#000000;stroke-linecap:square;stroke-linejoin:miter;stroke-width:0.8;"/>
   </g>
   <g id="text_18">
    <!-- A4Benchmark-TS68.csv -->
    <defs>
     <path d="M 34.1875 63.1875 
L 20.796875 26.90625 
L 47.609375 26.90625 
z
M 28.609375 72.90625 
L 39.796875 72.90625 
L 67.578125 0 
L 57.328125 0 
L 50.6875 18.703125 
L 17.828125 18.703125 
L 11.1875 0 
L 0.78125 0 
z
" id="DejaVuSans-65"/>
     <path d="M 37.796875 64.3125 
L 12.890625 25.390625 
L 37.796875 25.390625 
z
M 35.203125 72.90625 
L 47.609375 72.90625 
L 47.609375 25.390625 
L 58.015625 25.390625 
L 58.015625 17.1875 
L 47.609375 17.1875 
L 47.609375 0 
L 37.796875 0 
L 37.796875 17.1875 
L 4.890625 17.1875 
L 4.890625 26.703125 
z
" id="DejaVuSans-52"/>
     <path d="M 19.671875 34.8125 
L 19.671875 8.109375 
L 35.5 8.109375 
Q 43.453125 8.109375 47.28125 11.40625 
Q 51.125 14.703125 51.125 21.484375 
Q 51.125 28.328125 47.28125 31.5625 
Q 43.453125 34.8125 35.5 34.8125 
z
M 19.671875 64.796875 
L 19.671875 42.828125 
L 34.28125 42.828125 
Q 41.5 42.828125 45.03125 45.53125 
Q 48.578125 48.25 48.578125 53.8125 
Q 48.578125 59.328125 45.03125 62.0625 
Q 41.5 64.796875 34.28125 64.796875 
z
M 9.8125 72.90625 
L 35.015625 72.90625 
Q 46.296875 72.90625 52.390625 68.21875 
Q 58.5 63.53125 58.5 54.890625 
Q 58.5 48.1875 55.375 44.234375 
Q 52.25 40.28125 46.1875 39.3125 
Q 53.46875 37.75 57.5 32.78125 
Q 61.53125 27.828125 61.53125 20.40625 
Q 61.53125 10.640625 54.890625 5.3125 
Q 48.25 0 35.984375 0 
L 9.8125 0 
z
" id="DejaVuSans-66"/>
     <path d="M 54.890625 33.015625 
L 54.890625 0 
L 45.90625 0 
L 45.90625 32.71875 
Q 45.90625 40.484375 42.875 44.328125 
Q 39.84375 48.1875 33.796875 48.1875 
Q 26.515625 48.1875 22.3125 43.546875 
Q 18.109375 38.921875 18.109375 30.90625 
L 18.109375 0 
L 9.078125 0 
L 9.078125 54.6875 
L 18.109375 54.6875 
L 18.109375 46.1875 
Q 21.34375 51.125 25.703125 53.5625 
Q 30.078125 56 35.796875 56 
Q 45.21875 56 50.046875 50.171875 
Q 54.890625 44.34375 54.890625 33.015625 
z
" id="DejaVuSans-110"/>
     <path d="M 48.78125 52.59375 
L 48.78125 44.1875 
Q 44.96875 46.296875 41.140625 47.34375 
Q 37.3125 48.390625 33.40625 48.390625 
Q 24.65625 48.390625 19.8125 42.84375 
Q 14.984375 37.3125 14.984375 27.296875 
Q 14.984375 17.28125 19.8125 11.734375 
Q 24.65625 6.203125 33.40625 6.203125 
Q 37.3125 6.203125 41.140625 7.25 
Q 44.96875 8.296875 48.78125 10.40625 
L 48.78125 2.09375 
Q 45.015625 0.34375 40.984375 -0.53125 
Q 36.96875 -1.421875 32.421875 -1.421875 
Q 20.0625 -1.421875 12.78125 6.34375 
Q 5.515625 14.109375 5.515625 27.296875 
Q 5.515625 40.671875 12.859375 48.328125 
Q 20.21875 56 33.015625 56 
Q 37.15625 56 41.109375 55.140625 
Q 45.0625 54.296875 48.78125 52.59375 
z
" id="DejaVuSans-99"/>
     <path d="M 54.890625 33.015625 
L 54.890625 0 
L 45.90625 0 
L 45.90625 32.71875 
Q 45.90625 40.484375 42.875 44.328125 
Q 39.84375 48.1875 33.796875 48.1875 
Q 26.515625 48.1875 22.3125 43.546875 
Q 18.109375 38.921875 18.109375 30.90625 
L 18.109375 0 
L 9.078125 0 
L 9.078125 75.984375 
L 18.109375 75.984375 
L 18.109375 46.1875 
Q 21.34375 51.125 25.703125 53.5625 
Q 30.078125 56 35.796875 56 
Q 45.21875 56 50.046875 50.171875 
Q 54.890625 44.34375 54.890625 33.015625 
z
" id="DejaVuSans-104"/>
     <path d="M 41.109375 46.296875 
Q 39.59375 47.171875 37.8125 47.578125 
Q 36.03125 48 33.890625 48 
Q 26.265625 48 22.1875 43.046875 
Q 18.109375 38.09375 18.109375 28.8125 
L 18.109375 0 
L 9.078125 0 
L 9.078125 54.6875 
L 18.109375 54.6875 
L 18.109375 46.1875 
Q 20.953125 51.171875 25.484375 53.578125 
Q 30.03125 56 36.53125 56 
Q 37.453125 56 38.578125 55.875 
Q 39.703125 55.765625 41.0625 55.515625 
z
" id="DejaVuSans-114"/>
     <path d="M 9.078125 75.984375 
L 18.109375 75.984375 
L 18.109375 31.109375 
L 44.921875 54.6875 
L 56.390625 54.6875 
L 27.390625 29.109375 
L 57.625 0 
L 45.90625 0 
L 18.109375 26.703125 
L 18.109375 0 
L 9.078125 0 
z
" id="DejaVuSans-107"/>
     <path d="M 4.890625 31.390625 
L 31.203125 31.390625 
L 31.203125 23.390625 
L 4.890625 23.390625 
z
" id="DejaVuSans-45"/>
     <path d="M 53.515625 70.515625 
L 53.515625 60.890625 
Q 47.90625 63.578125 42.921875 64.890625 
Q 37.9375 66.21875 33.296875 66.21875 
Q 25.25 66.21875 20.875 63.09375 
Q 16.5 59.96875 16.5 54.203125 
Q 16.5 49.359375 19.40625 46.890625 
Q 22.3125 44.4375 30.421875 42.921875 
L 36.375 41.703125 
Q 47.40625 39.59375 52.65625 34.296875 
Q 57.90625 29 57.90625 20.125 
Q 57.90625 9.515625 50.796875 4.046875 
Q 43.703125 -1.421875 29.984375 -1.421875 
Q 24.8125 -1.421875 18.96875 -0.25 
Q 13.140625 0.921875 6.890625 3.21875 
L 6.890625 13.375 
Q 12.890625 10.015625 18.65625 8.296875 
Q 24.421875 6.59375 29.984375 6.59375 
Q 38.421875 6.59375 43.015625 9.90625 
Q 47.609375 13.234375 47.609375 19.390625 
Q 47.609375 24.75 44.3125 27.78125 
Q 41.015625 30.8125 33.5 32.328125 
L 27.484375 33.5 
Q 16.453125 35.6875 11.515625 40.375 
Q 6.59375 45.0625 6.59375 53.421875 
Q 6.59375 63.09375 13.40625 68.65625 
Q 20.21875 74.21875 32.171875 74.21875 
Q 37.3125 74.21875 42.625 73.28125 
Q 47.953125 72.359375 53.515625 70.515625 
z
" id="DejaVuSans-83"/>
     <path d="M 33.015625 40.375 
Q 26.375 40.375 22.484375 35.828125 
Q 18.609375 31.296875 18.609375 23.390625 
Q 18.609375 15.53125 22.484375 10.953125 
Q 26.375 6.390625 33.015625 6.390625 
Q 39.65625 6.390625 43.53125 10.953125 
Q 47.40625 15.53125 47.40625 23.390625 
Q 47.40625 31.296875 43.53125 35.828125 
Q 39.65625 40.375 33.015625 40.375 
z
M 52.59375 71.296875 
L 52.59375 62.3125 
Q 48.875 64.0625 45.09375 64.984375 
Q 41.3125 65.921875 37.59375 65.921875 
Q 27.828125 65.921875 22.671875 59.328125 
Q 17.53125 52.734375 16.796875 39.40625 
Q 19.671875 43.65625 24.015625 45.921875 
Q 28.375 48.1875 33.59375 48.1875 
Q 44.578125 48.1875 50.953125 41.515625 
Q 57.328125 34.859375 57.328125 23.390625 
Q 57.328125 12.15625 50.6875 5.359375 
Q 44.046875 -1.421875 33.015625 -1.421875 
Q 20.359375 -1.421875 13.671875 8.265625 
Q 6.984375 17.96875 6.984375 36.375 
Q 6.984375 53.65625 15.1875 63.9375 
Q 23.390625 74.21875 37.203125 74.21875 
Q 40.921875 74.21875 44.703125 73.484375 
Q 48.484375 72.75 52.59375 71.296875 
z
" id="DejaVuSans-54"/>
     <path d="M 31.78125 34.625 
Q 24.75 34.625 20.71875 30.859375 
Q 16.703125 27.09375 16.703125 20.515625 
Q 16.703125 13.921875 20.71875 10.15625 
Q 24.75 6.390625 31.78125 6.390625 
Q 38.8125 6.390625 42.859375 10.171875 
Q 46.921875 13.96875 46.921875 20.515625 
Q 46.921875 27.09375 42.890625 30.859375 
Q 38.875 34.625 31.78125 34.625 
z
M 21.921875 38.8125 
Q 15.578125 40.375 12.03125 44.71875 
Q 8.5 49.078125 8.5 55.328125 
Q 8.5 64.0625 14.71875 69.140625 
Q 20.953125 74.21875 31.78125 74.21875 
Q 42.671875 74.21875 48.875 69.140625 
Q 55.078125 64.0625 55.078125 55.328125 
Q 55.078125 49.078125 51.53125 44.71875 
Q 48 40.375 41.703125 38.8125 
Q 48.828125 37.15625 52.796875 32.3125 
Q 56.78125 27.484375 56.78125 20.515625 
Q 56.78125 9.90625 50.3125 4.234375 
Q 43.84375 -1.421875 31.78125 -1.421875 
Q 19.734375 -1.421875 13.25 4.234375 
Q 6.78125 9.90625 6.78125 20.515625 
Q 6.78125 27.484375 10.78125 32.3125 
Q 14.796875 37.15625 21.921875 38.8125 
z
M 18.3125 54.390625 
Q 18.3125 48.734375 21.84375 45.5625 
Q 25.390625 42.390625 31.78125 42.390625 
Q 38.140625 42.390625 41.71875 45.5625 
Q 45.3125 48.734375 45.3125 54.390625 
Q 45.3125 60.0625 41.71875 63.234375 
Q 38.140625 66.40625 31.78125 66.40625 
Q 25.390625 66.40625 21.84375 63.234375 
Q 18.3125 60.0625 18.3125 54.390625 
z
" id="DejaVuSans-56"/>
     <path d="M 10.6875 12.40625 
L 21 12.40625 
L 21 0 
L 10.6875 0 
z
" id="DejaVuSans-46"/>
     <path d="M 2.984375 54.6875 
L 12.5 54.6875 
L 29.59375 8.796875 
L 46.6875 54.6875 
L 56.203125 54.6875 
L 35.6875 0 
L 23.484375 0 
z
" id="DejaVuSans-118"/>
    </defs>
    <g transform="translate(371.555625 45.84)scale(0.12 -0.12)">
     <use xlink:href="#DejaVuSans-65"/>
     <use x="68.408203" xlink:href="#DejaVuSans-52"/>
     <use x="132.03125" xlink:href="#DejaVuSans-66"/>
     <use x="200.634766" xlink:href="#DejaVuSans-101"/>
     <use x="262.158203" xlink:href="#DejaVuSans-110"/>
     <use x="325.537109" xlink:href="#DejaVuSans-99"/>
     <use x="380.517578" xlink:href="#DejaVuSans-104"/>
     <use x="443.896484" xlink:href="#DejaVuSans-109"/>
     <use x="541.308594" xlink:href="#DejaVuSans-97"/>
     <use x="602.587891" xlink:href="#DejaVuSans-114"/>
     <use x="643.701172" xlink:href="#DejaVuSans-107"/>
     <use x="701.611328" xlink:href="#DejaVuSans-45"/>
     <use x="737.554688" xlink:href="#DejaVuSans-84"/>
     <use x="798.638672" xlink:href="#DejaVuSans-83"/>
     <use x="862.115234" xlink:href="#DejaVuSans-54"/>
     <use x="925.738281" xlink:href="#DejaVuSans-56"/>
     <use x="989.361328" xlink:href="#DejaVuSans-46"/>
     <use x="1021.148438" xlink:href="#DejaVuSans-99"/>
     <use x="1076.128906" xlink:href="#DejaVuSans-115"/>
     <use x="1128.228516" xlink:href="#DejaVuSans-118"/>
    </g>
   </g>
   <g id="legend_1">
    <g id="patch_56">
     <path d="M 115 74.518125 
L 174.315625 74.518125 
Q 176.315625 74.518125 176.315625 72.518125 
L 176.315625 58.84 
Q 176.315625 56.84 174.315625 56.84 
L 115 56.84 
Q 113 56.84 113 58.84 
L 113 72.518125 
Q 113 74.518125 115 74.518125 
z
" style="fill:#ffffff;opacity:0.8;stroke:#cccccc;stroke-linejoin:miter;"/>
    </g>
    <g id="line2d_18">
     <path d="M 117 64.938438 
L 137 64.938438 
" style="fill:none;stroke:#1f77b4;stroke-linecap:square;stroke-width:1.5;"/>
    </g>
    <g id="line2d_19"/>
    <g id="text_19">
     <!-- value -->
     <g transform="translate(145 68.438438)scale(0.1 -0.1)">
      <use xlink:href="#DejaVuSans-118"/>
      <use x="59.179688" xlink:href="#DejaVuSans-97"/>
      <use x="120.458984" xlink:href="#DejaVuSans-108"/>
      <use x="148.242188" xlink:href="#DejaVuSans-117"/>
      <use x="211.621094" xlink:href="#DejaVuSans-101"/>
     </g>
    </g>
   </g>
  </g>
 </g>
 <defs>
  <clipPath id="p5f259abbc9">
   <rect height="332.64" width="669.6" x="108" y="51.84"/>
  </clipPath>
 </defs>
</svg>
