<?xml version="1.0" encoding="utf-8" standalone="no"?>
<!DOCTYPE svg PUBLIC "-//W3C//DTD SVG 1.1//EN"
  "http://www.w3.org/Graphics/SVG/1.1/DTD/svg11.dtd">
<!-- Created with matplotlib (https://matplotlib.org/) -->
<svg height="432pt" version="1.1" viewBox="0 0 864 432" width="864pt" xmlns="http://www.w3.org/2000/svg" xmlns:xlink="http://www.w3.org/1999/xlink">
 <defs>
  <style type="text/css">
*{stroke-linecap:butt;stroke-linejoin:round;}
  </style>
 </defs>
 <g id="figure_1">
  <g id="patch_1">
   <path d="M 0 432 
L 864 432 
L 864 0 
L 0 0 
z
" style="fill:#ffffff;"/>
  </g>
  <g id="axes_1">
   <g id="patch_2">
    <path d="M 108 384.48 
L 777.6 384.48 
L 777.6 51.84 
L 108 51.84 
z
" style="fill:#ffffff;"/>
   </g>
   <g id="patch_3">
    <path clip-path="url(#p43984f90fd)" d="M 138.436364 384.48 
L 138.436364 51.84 
L 381.075906 51.84 
L 381.075906 384.48 
z
" style="fill:#0000ff;opacity:0.05;"/>
   </g>
   <g id="patch_4">
    <path clip-path="url(#p43984f90fd)" d="M 381.075906 384.48 
L 381.075906 51.84 
L 747.163636 51.84 
L 747.163636 384.48 
z
" style="fill:#ff0000;opacity:0.08;"/>
   </g>
   <g id="patch_5">
    <path clip-path="url(#p43984f90fd)" d="M 138.436364 384.48 
L 138.436364 51.84 
L 142.693198 51.84 
L 142.693198 384.48 
z
" style="fill:#008000;opacity:0.04;"/>
   </g>
   <g id="patch_6">
    <path clip-path="url(#p43984f90fd)" d="M 146.950032 384.48 
L 146.950032 51.84 
L 151.206866 51.84 
L 151.206866 384.48 
z
" style="fill:#008000;opacity:0.04;"/>
   </g>
   <g id="patch_7">
    <path clip-path="url(#p43984f90fd)" d="M 155.4637 384.48 
L 155.4637 51.84 
L 159.720534 51.84 
L 159.720534 384.48 
z
" style="fill:#008000;opacity:0.04;"/>
   </g>
   <g id="patch_8">
    <path clip-path="url(#p43984f90fd)" d="M 163.977368 384.48 
L 163.977368 51.84 
L 168.234202 51.84 
L 168.234202 384.48 
z
" style="fill:#008000;opacity:0.04;"/>
   </g>
   <g id="patch_9">
    <path clip-path="url(#p43984f90fd)" d="M 172.491036 384.48 
L 172.491036 51.84 
L 176.74787 51.84 
L 176.74787 384.48 
z
" style="fill:#008000;opacity:0.04;"/>
   </g>
   <g id="patch_10">
    <path clip-path="url(#p43984f90fd)" d="M 181.004704 384.48 
L 181.004704 51.84 
L 185.261538 51.84 
L 185.261538 384.48 
z
" style="fill:#008000;opacity:0.04;"/>
   </g>
   <g id="patch_11">
    <path clip-path="url(#p43984f90fd)" d="M 189.518373 384.48 
L 189.518373 51.84 
L 193.775207 51.84 
L 193.775207 384.48 
z
" style="fill:#008000;opacity:0.04;"/>
   </g>
   <g id="patch_12">
    <path clip-path="url(#p43984f90fd)" d="M 198.032041 384.48 
L 198.032041 51.84 
L 202.288875 51.84 
L 202.288875 384.48 
z
" style="fill:#008000;opacity:0.04;"/>
   </g>
   <g id="patch_13">
    <path clip-path="url(#p43984f90fd)" d="M 206.545709 384.48 
L 206.545709 51.84 
L 210.802543 51.84 
L 210.802543 384.48 
z
" style="fill:#008000;opacity:0.04;"/>
   </g>
   <g id="patch_14">
    <path clip-path="url(#p43984f90fd)" d="M 215.059377 384.48 
L 215.059377 51.84 
L 219.316211 51.84 
L 219.316211 384.48 
z
" style="fill:#008000;opacity:0.04;"/>
   </g>
   <g id="patch_15">
    <path clip-path="url(#p43984f90fd)" d="M 223.573045 384.48 
L 223.573045 51.84 
L 227.829879 51.84 
L 227.829879 384.48 
z
" style="fill:#008000;opacity:0.04;"/>
   </g>
   <g id="patch_16">
    <path clip-path="url(#p43984f90fd)" d="M 232.086713 384.48 
L 232.086713 51.84 
L 236.343547 51.84 
L 236.343547 384.48 
z
" style="fill:#008000;opacity:0.04;"/>
   </g>
   <g id="patch_17">
    <path clip-path="url(#p43984f90fd)" d="M 240.600381 384.48 
L 240.600381 51.84 
L 244.857216 51.84 
L 244.857216 384.48 
z
" style="fill:#008000;opacity:0.04;"/>
   </g>
   <g id="patch_18">
    <path clip-path="url(#p43984f90fd)" d="M 249.11405 384.48 
L 249.11405 51.84 
L 253.370884 51.84 
L 253.370884 384.48 
z
" style="fill:#008000;opacity:0.04;"/>
   </g>
   <g id="patch_19">
    <path clip-path="url(#p43984f90fd)" d="M 257.627718 384.48 
L 257.627718 51.84 
L 261.884552 51.84 
L 261.884552 384.48 
z
" style="fill:#008000;opacity:0.04;"/>
   </g>
   <g id="patch_20">
    <path clip-path="url(#p43984f90fd)" d="M 266.141386 384.48 
L 266.141386 51.84 
L 270.39822 51.84 
L 270.39822 384.48 
z
" style="fill:#008000;opacity:0.04;"/>
   </g>
   <g id="patch_21">
    <path clip-path="url(#p43984f90fd)" d="M 274.655054 384.48 
L 274.655054 51.84 
L 278.911888 51.84 
L 278.911888 384.48 
z
" style="fill:#008000;opacity:0.04;"/>
   </g>
   <g id="patch_22">
    <path clip-path="url(#p43984f90fd)" d="M 283.168722 384.48 
L 283.168722 51.84 
L 287.425556 51.84 
L 287.425556 384.48 
z
" style="fill:#008000;opacity:0.04;"/>
   </g>
   <g id="patch_23">
    <path clip-path="url(#p43984f90fd)" d="M 291.68239 384.48 
L 291.68239 51.84 
L 295.939224 51.84 
L 295.939224 384.48 
z
" style="fill:#008000;opacity:0.04;"/>
   </g>
   <g id="patch_24">
    <path clip-path="url(#p43984f90fd)" d="M 300.196058 384.48 
L 300.196058 51.84 
L 304.452893 51.84 
L 304.452893 384.48 
z
" style="fill:#008000;opacity:0.04;"/>
   </g>
   <g id="patch_25">
    <path clip-path="url(#p43984f90fd)" d="M 308.709727 384.48 
L 308.709727 51.84 
L 312.966561 51.84 
L 312.966561 384.48 
z
" style="fill:#008000;opacity:0.04;"/>
   </g>
   <g id="patch_26">
    <path clip-path="url(#p43984f90fd)" d="M 317.223395 384.48 
L 317.223395 51.84 
L 321.480229 51.84 
L 321.480229 384.48 
z
" style="fill:#008000;opacity:0.04;"/>
   </g>
   <g id="patch_27">
    <path clip-path="url(#p43984f90fd)" d="M 325.737063 384.48 
L 325.737063 51.84 
L 329.993897 51.84 
L 329.993897 384.48 
z
" style="fill:#008000;opacity:0.04;"/>
   </g>
   <g id="patch_28">
    <path clip-path="url(#p43984f90fd)" d="M 334.250731 384.48 
L 334.250731 51.84 
L 338.507565 51.84 
L 338.507565 384.48 
z
" style="fill:#008000;opacity:0.04;"/>
   </g>
   <g id="patch_29">
    <path clip-path="url(#p43984f90fd)" d="M 342.764399 384.48 
L 342.764399 51.84 
L 347.021233 51.84 
L 347.021233 384.48 
z
" style="fill:#008000;opacity:0.04;"/>
   </g>
   <g id="patch_30">
    <path clip-path="url(#p43984f90fd)" d="M 351.278067 384.48 
L 351.278067 51.84 
L 355.534901 51.84 
L 355.534901 384.48 
z
" style="fill:#008000;opacity:0.04;"/>
   </g>
   <g id="patch_31">
    <path clip-path="url(#p43984f90fd)" d="M 359.791736 384.48 
L 359.791736 51.84 
L 364.04857 51.84 
L 364.04857 384.48 
z
" style="fill:#008000;opacity:0.04;"/>
   </g>
   <g id="patch_32">
    <path clip-path="url(#p43984f90fd)" d="M 368.305404 384.48 
L 368.305404 51.84 
L 372.562238 51.84 
L 372.562238 384.48 
z
" style="fill:#008000;opacity:0.04;"/>
   </g>
   <g id="patch_33">
    <path clip-path="url(#p43984f90fd)" d="M 376.819072 384.48 
L 376.819072 51.84 
L 381.075906 51.84 
L 381.075906 384.48 
z
" style="fill:#008000;opacity:0.04;"/>
   </g>
   <g id="patch_34">
    <path clip-path="url(#p43984f90fd)" d="M 385.33274 384.48 
L 385.33274 51.84 
L 389.589574 51.84 
L 389.589574 384.48 
z
" style="fill:#008000;opacity:0.04;"/>
   </g>
   <g id="patch_35">
    <path clip-path="url(#p43984f90fd)" d="M 393.846408 384.48 
L 393.846408 51.84 
L 398.103242 51.84 
L 398.103242 384.48 
z
" style="fill:#008000;opacity:0.04;"/>
   </g>
   <g id="patch_36">
    <path clip-path="url(#p43984f90fd)" d="M 402.360076 384.48 
L 402.360076 51.84 
L 406.61691 51.84 
L 406.61691 384.48 
z
" style="fill:#008000;opacity:0.04;"/>
   </g>
   <g id="patch_37">
    <path clip-path="url(#p43984f90fd)" d="M 410.873744 384.48 
L 410.873744 51.84 
L 415.130579 51.84 
L 415.130579 384.48 
z
" style="fill:#008000;opacity:0.04;"/>
   </g>
   <g id="patch_38">
    <path clip-path="url(#p43984f90fd)" d="M 657.770121 384.48 
L 657.770121 371.1744 
L 662.026955 371.1744 
L 662.026955 384.48 
z
" style="fill:#ff6600;"/>
   </g>
   <g id="patch_39">
    <path clip-path="url(#p43984f90fd)" d="M 419.387413 384.48 
L 419.387413 51.84 
L 423.644247 51.84 
L 423.644247 384.48 
z
" style="fill:#008000;opacity:0.04;"/>
   </g>
   <g id="patch_40">
    <path clip-path="url(#p43984f90fd)" d="M 427.901081 384.48 
L 427.901081 51.84 
L 432.157915 51.84 
L 432.157915 384.48 
z
" style="fill:#008000;opacity:0.04;"/>
   </g>
   <g id="patch_41">
    <path clip-path="url(#p43984f90fd)" d="M 436.414749 384.48 
L 436.414749 51.84 
L 440.671583 51.84 
L 440.671583 384.48 
z
" style="fill:#008000;opacity:0.04;"/>
   </g>
   <g id="patch_42">
    <path clip-path="url(#p43984f90fd)" d="M 444.928417 384.48 
L 444.928417 51.84 
L 449.185251 51.84 
L 449.185251 384.48 
z
" style="fill:#008000;opacity:0.04;"/>
   </g>
   <g id="patch_43">
    <path clip-path="url(#p43984f90fd)" d="M 691.824793 384.48 
L 691.824793 371.1744 
L 696.081627 371.1744 
L 696.081627 384.48 
z
" style="fill:#ff6600;"/>
   </g>
   <g id="patch_44">
    <path clip-path="url(#p43984f90fd)" d="M 453.442085 384.48 
L 453.442085 51.84 
L 457.698919 51.84 
L 457.698919 384.48 
z
" style="fill:#008000;opacity:0.04;"/>
   </g>
   <g id="patch_45">
    <path clip-path="url(#p43984f90fd)" d="M 461.955753 384.48 
L 461.955753 51.84 
L 466.212587 51.84 
L 466.212587 384.48 
z
" style="fill:#008000;opacity:0.04;"/>
   </g>
   <g id="patch_46">
    <path clip-path="url(#p43984f90fd)" d="M 470.469421 384.48 
L 470.469421 51.84 
L 474.726256 51.84 
L 474.726256 384.48 
z
" style="fill:#008000;opacity:0.04;"/>
   </g>
   <g id="patch_47">
    <path clip-path="url(#p43984f90fd)" d="M 478.98309 384.48 
L 478.98309 51.84 
L 483.239924 51.84 
L 483.239924 384.48 
z
" style="fill:#008000;opacity:0.04;"/>
   </g>
   <g id="patch_48">
    <path clip-path="url(#p43984f90fd)" d="M 487.496758 384.48 
L 487.496758 51.84 
L 491.753592 51.84 
L 491.753592 384.48 
z
" style="fill:#008000;opacity:0.04;"/>
   </g>
   <g id="patch_49">
    <path clip-path="url(#p43984f90fd)" d="M 496.010426 384.48 
L 496.010426 51.84 
L 500.26726 51.84 
L 500.26726 384.48 
z
" style="fill:#008000;opacity:0.04;"/>
   </g>
   <g id="patch_50">
    <path clip-path="url(#p43984f90fd)" d="M 504.524094 384.48 
L 504.524094 51.84 
L 508.780928 51.84 
L 508.780928 384.48 
z
" style="fill:#008000;opacity:0.04;"/>
   </g>
   <g id="patch_51">
    <path clip-path="url(#p43984f90fd)" d="M 513.037762 384.48 
L 513.037762 51.84 
L 517.294596 51.84 
L 517.294596 384.48 
z
" style="fill:#008000;opacity:0.04;"/>
   </g>
   <g id="patch_52">
    <path clip-path="url(#p43984f90fd)" d="M 521.55143 384.48 
L 521.55143 51.84 
L 525.808264 51.84 
L 525.808264 384.48 
z
" style="fill:#008000;opacity:0.04;"/>
   </g>
   <g id="patch_53">
    <path clip-path="url(#p43984f90fd)" d="M 530.065099 384.48 
L 530.065099 51.84 
L 534.321933 51.84 
L 534.321933 384.48 
z
" style="fill:#008000;opacity:0.04;"/>
   </g>
   <g id="patch_54">
    <path clip-path="url(#p43984f90fd)" d="M 538.578767 384.48 
L 538.578767 51.84 
L 542.835601 51.84 
L 542.835601 384.48 
z
" style="fill:#008000;opacity:0.04;"/>
   </g>
   <g id="patch_55">
    <path clip-path="url(#p43984f90fd)" d="M 547.092435 384.48 
L 547.092435 51.84 
L 551.349269 51.84 
L 551.349269 384.48 
z
" style="fill:#008000;opacity:0.04;"/>
   </g>
   <g id="patch_56">
    <path clip-path="url(#p43984f90fd)" d="M 555.606103 384.48 
L 555.606103 51.84 
L 559.862937 51.84 
L 559.862937 384.48 
z
" style="fill:#008000;opacity:0.04;"/>
   </g>
   <g id="patch_57">
    <path clip-path="url(#p43984f90fd)" d="M 564.119771 384.48 
L 564.119771 51.84 
L 568.376605 51.84 
L 568.376605 384.48 
z
" style="fill:#008000;opacity:0.04;"/>
   </g>
   <g id="patch_58">
    <path clip-path="url(#p43984f90fd)" d="M 572.633439 384.48 
L 572.633439 51.84 
L 576.890273 51.84 
L 576.890273 384.48 
z
" style="fill:#008000;opacity:0.04;"/>
   </g>
   <g id="patch_59">
    <path clip-path="url(#p43984f90fd)" d="M 581.147107 384.48 
L 581.147107 51.84 
L 585.403942 51.84 
L 585.403942 384.48 
z
" style="fill:#008000;opacity:0.04;"/>
   </g>
   <g id="patch_60">
    <path clip-path="url(#p43984f90fd)" d="M 589.660776 384.48 
L 589.660776 51.84 
L 593.91761 51.84 
L 593.91761 384.48 
z
" style="fill:#008000;opacity:0.04;"/>
   </g>
   <g id="patch_61">
    <path clip-path="url(#p43984f90fd)" d="M 598.174444 384.48 
L 598.174444 51.84 
L 602.431278 51.84 
L 602.431278 384.48 
z
" style="fill:#008000;opacity:0.04;"/>
   </g>
   <g id="patch_62">
    <path clip-path="url(#p43984f90fd)" d="M 606.688112 384.48 
L 606.688112 51.84 
L 610.944946 51.84 
L 610.944946 384.48 
z
" style="fill:#008000;opacity:0.04;"/>
   </g>
   <g id="patch_63">
    <path clip-path="url(#p43984f90fd)" d="M 615.20178 384.48 
L 615.20178 51.84 
L 619.458614 51.84 
L 619.458614 384.48 
z
" style="fill:#008000;opacity:0.04;"/>
   </g>
   <g id="patch_64">
    <path clip-path="url(#p43984f90fd)" d="M 623.715448 384.48 
L 623.715448 51.84 
L 627.972282 51.84 
L 627.972282 384.48 
z
" style="fill:#008000;opacity:0.04;"/>
   </g>
   <g id="patch_65">
    <path clip-path="url(#p43984f90fd)" d="M 632.229116 384.48 
L 632.229116 51.84 
L 636.48595 51.84 
L 636.48595 384.48 
z
" style="fill:#008000;opacity:0.04;"/>
   </g>
   <g id="patch_66">
    <path clip-path="url(#p43984f90fd)" d="M 640.742784 384.48 
L 640.742784 51.84 
L 644.999619 51.84 
L 644.999619 384.48 
z
" style="fill:#008000;opacity:0.04;"/>
   </g>
   <g id="patch_67">
    <path clip-path="url(#p43984f90fd)" d="M 649.256453 384.48 
L 649.256453 51.84 
L 653.513287 51.84 
L 653.513287 384.48 
z
" style="fill:#008000;opacity:0.04;"/>
   </g>
   <g id="patch_68">
    <path clip-path="url(#p43984f90fd)" d="M 657.770121 384.48 
L 657.770121 51.84 
L 662.026955 51.84 
L 662.026955 384.48 
z
" style="fill:#008000;opacity:0.04;"/>
   </g>
   <g id="patch_69">
    <path clip-path="url(#p43984f90fd)" d="M 657.770121 371.1744 
L 657.770121 51.84 
L 662.026955 51.84 
L 662.026955 371.1744 
z
" style="fill:#008000;opacity:0.5;"/>
   </g>
   <g id="patch_70">
    <path clip-path="url(#p43984f90fd)" d="M 662.026955 371.1744 
L 662.026955 51.84 
L 666.283789 51.84 
L 666.283789 371.1744 
z
" style="fill:#008000;opacity:0.5;"/>
   </g>
   <g id="patch_71">
    <path clip-path="url(#p43984f90fd)" d="M 666.283789 384.48 
L 666.283789 51.84 
L 670.540623 51.84 
L 670.540623 384.48 
z
" style="fill:#008000;opacity:0.04;"/>
   </g>
   <g id="patch_72">
    <path clip-path="url(#p43984f90fd)" d="M 666.283789 371.1744 
L 666.283789 51.84 
L 670.540623 51.84 
L 670.540623 371.1744 
z
" style="fill:#008000;opacity:0.5;"/>
   </g>
   <g id="patch_73">
    <path clip-path="url(#p43984f90fd)" d="M 674.797457 384.48 
L 674.797457 51.84 
L 679.054291 51.84 
L 679.054291 384.48 
z
" style="fill:#008000;opacity:0.04;"/>
   </g>
   <g id="patch_74">
    <path clip-path="url(#p43984f90fd)" d="M 683.311125 384.48 
L 683.311125 51.84 
L 687.567959 51.84 
L 687.567959 384.48 
z
" style="fill:#008000;opacity:0.04;"/>
   </g>
   <g id="patch_75">
    <path clip-path="url(#p43984f90fd)" d="M 691.824793 384.48 
L 691.824793 51.84 
L 696.081627 51.84 
L 696.081627 384.48 
z
" style="fill:#008000;opacity:0.04;"/>
   </g>
   <g id="patch_76">
    <path clip-path="url(#p43984f90fd)" d="M 691.824793 371.1744 
L 691.824793 51.84 
L 696.081627 51.84 
L 696.081627 371.1744 
z
" style="fill:#008000;opacity:0.5;"/>
   </g>
   <g id="patch_77">
    <path clip-path="url(#p43984f90fd)" d="M 700.338462 384.48 
L 700.338462 51.84 
L 704.595296 51.84 
L 704.595296 384.48 
z
" style="fill:#008000;opacity:0.04;"/>
   </g>
   <g id="patch_78">
    <path clip-path="url(#p43984f90fd)" d="M 708.85213 384.48 
L 708.85213 51.84 
L 713.108964 51.84 
L 713.108964 384.48 
z
" style="fill:#008000;opacity:0.04;"/>
   </g>
   <g id="patch_79">
    <path clip-path="url(#p43984f90fd)" d="M 717.365798 384.48 
L 717.365798 51.84 
L 721.622632 51.84 
L 721.622632 384.48 
z
" style="fill:#008000;opacity:0.04;"/>
   </g>
   <g id="patch_80">
    <path clip-path="url(#p43984f90fd)" d="M 725.879466 384.48 
L 725.879466 51.84 
L 730.1363 51.84 
L 730.1363 384.48 
z
" style="fill:#008000;opacity:0.04;"/>
   </g>
   <g id="patch_81">
    <path clip-path="url(#p43984f90fd)" d="M 734.393134 384.48 
L 734.393134 51.84 
L 738.649968 51.84 
L 738.649968 384.48 
z
" style="fill:#008000;opacity:0.04;"/>
   </g>
   <g id="patch_82">
    <path clip-path="url(#p43984f90fd)" d="M 742.906802 384.48 
L 742.906802 51.84 
L 747.163636 51.84 
L 747.163636 384.48 
z
" style="fill:#008000;opacity:0.04;"/>
   </g>
   <g id="matplotlib.axis_1">
    <g id="xtick_1">
     <g id="line2d_1">
      <defs>
       <path d="M 0 0 
L 0 3.5 
" id="maea3020ff3" style="stroke:#000000;stroke-width:0.8;"/>
      </defs>
      <g>
       <use style="stroke:#000000;stroke-width:0.8;" x="138.436364" xlink:href="#maea3020ff3" y="384.48"/>
      </g>
     </g>
     <g id="text_1">
      <!-- 0 -->
      <defs>
       <path d="M 31.78125 66.40625 
Q 24.171875 66.40625 20.328125 58.90625 
Q 16.5 51.421875 16.5 36.375 
Q 16.5 21.390625 20.328125 13.890625 
Q 24.171875 6.390625 31.78125 6.390625 
Q 39.453125 6.390625 43.28125 13.890625 
Q 47.125 21.390625 47.125 36.375 
Q 47.125 51.421875 43.28125 58.90625 
Q 39.453125 66.40625 31.78125 66.40625 
z
M 31.78125 74.21875 
Q 44.046875 74.21875 50.515625 64.515625 
Q 56.984375 54.828125 56.984375 36.375 
Q 56.984375 17.96875 50.515625 8.265625 
Q 44.046875 -1.421875 31.78125 -1.421875 
Q 19.53125 -1.421875 13.0625 8.265625 
Q 6.59375 17.96875 6.59375 36.375 
Q 6.59375 54.828125 13.0625 64.515625 
Q 19.53125 74.21875 31.78125 74.21875 
z
" id="DejaVuSans-48"/>
      </defs>
      <g transform="translate(135.255114 399.078438)scale(0.1 -0.1)">
       <use xlink:href="#DejaVuSans-48"/>
      </g>
     </g>
    </g>
    <g id="xtick_2">
     <g id="line2d_2">
      <g>
       <use style="stroke:#000000;stroke-width:0.8;" x="223.573045" xlink:href="#maea3020ff3" y="384.48"/>
      </g>
     </g>
     <g id="text_2">
      <!-- 200 -->
      <defs>
       <path d="M 19.1875 8.296875 
L 53.609375 8.296875 
L 53.609375 0 
L 7.328125 0 
L 7.328125 8.296875 
Q 12.9375 14.109375 22.625 23.890625 
Q 32.328125 33.6875 34.8125 36.53125 
Q 39.546875 41.84375 41.421875 45.53125 
Q 43.3125 49.21875 43.3125 52.78125 
Q 43.3125 58.59375 39.234375 62.25 
Q 35.15625 65.921875 28.609375 65.921875 
Q 23.96875 65.921875 18.8125 64.3125 
Q 13.671875 62.703125 7.8125 59.421875 
L 7.8125 69.390625 
Q 13.765625 71.78125 18.9375 73 
Q 24.125 74.21875 28.421875 74.21875 
Q 39.75 74.21875 46.484375 68.546875 
Q 53.21875 62.890625 53.21875 53.421875 
Q 53.21875 48.921875 51.53125 44.890625 
Q 49.859375 40.875 45.40625 35.40625 
Q 44.1875 33.984375 37.640625 27.21875 
Q 31.109375 20.453125 19.1875 8.296875 
z
" id="DejaVuSans-50"/>
      </defs>
      <g transform="translate(214.029295 399.078438)scale(0.1 -0.1)">
       <use xlink:href="#DejaVuSans-50"/>
       <use x="63.623047" xlink:href="#DejaVuSans-48"/>
       <use x="127.246094" xlink:href="#DejaVuSans-48"/>
      </g>
     </g>
    </g>
    <g id="xtick_3">
     <g id="line2d_3">
      <g>
       <use style="stroke:#000000;stroke-width:0.8;" x="308.709727" xlink:href="#maea3020ff3" y="384.48"/>
      </g>
     </g>
     <g id="text_3">
      <!-- 400 -->
      <defs>
       <path d="M 37.796875 64.3125 
L 12.890625 25.390625 
L 37.796875 25.390625 
z
M 35.203125 72.90625 
L 47.609375 72.90625 
L 47.609375 25.390625 
L 58.015625 25.390625 
L 58.015625 17.1875 
L 47.609375 17.1875 
L 47.609375 0 
L 37.796875 0 
L 37.796875 17.1875 
L 4.890625 17.1875 
L 4.890625 26.703125 
z
" id="DejaVuSans-52"/>
      </defs>
      <g transform="translate(299.165977 399.078438)scale(0.1 -0.1)">
       <use xlink:href="#DejaVuSans-52"/>
       <use x="63.623047" xlink:href="#DejaVuSans-48"/>
       <use x="127.246094" xlink:href="#DejaVuSans-48"/>
      </g>
     </g>
    </g>
    <g id="xtick_4">
     <g id="line2d_4">
      <g>
       <use style="stroke:#000000;stroke-width:0.8;" x="393.846408" xlink:href="#maea3020ff3" y="384.48"/>
      </g>
     </g>
     <g id="text_4">
      <!-- 600 -->
      <defs>
       <path d="M 33.015625 40.375 
Q 26.375 40.375 22.484375 35.828125 
Q 18.609375 31.296875 18.609375 23.390625 
Q 18.609375 15.53125 22.484375 10.953125 
Q 26.375 6.390625 33.015625 6.390625 
Q 39.65625 6.390625 43.53125 10.953125 
Q 47.40625 15.53125 47.40625 23.390625 
Q 47.40625 31.296875 43.53125 35.828125 
Q 39.65625 40.375 33.015625 40.375 
z
M 52.59375 71.296875 
L 52.59375 62.3125 
Q 48.875 64.0625 45.09375 64.984375 
Q 41.3125 65.921875 37.59375 65.921875 
Q 27.828125 65.921875 22.671875 59.328125 
Q 17.53125 52.734375 16.796875 39.40625 
Q 19.671875 43.65625 24.015625 45.921875 
Q 28.375 48.1875 33.59375 48.1875 
Q 44.578125 48.1875 50.953125 41.515625 
Q 57.328125 34.859375 57.328125 23.390625 
Q 57.328125 12.15625 50.6875 5.359375 
Q 44.046875 -1.421875 33.015625 -1.421875 
Q 20.359375 -1.421875 13.671875 8.265625 
Q 6.984375 17.96875 6.984375 36.375 
Q 6.984375 53.65625 15.1875 63.9375 
Q 23.390625 74.21875 37.203125 74.21875 
Q 40.921875 74.21875 44.703125 73.484375 
Q 48.484375 72.75 52.59375 71.296875 
z
" id="DejaVuSans-54"/>
      </defs>
      <g transform="translate(384.302658 399.078438)scale(0.1 -0.1)">
       <use xlink:href="#DejaVuSans-54"/>
       <use x="63.623047" xlink:href="#DejaVuSans-48"/>
       <use x="127.246094" xlink:href="#DejaVuSans-48"/>
      </g>
     </g>
    </g>
    <g id="xtick_5">
     <g id="line2d_5">
      <g>
       <use style="stroke:#000000;stroke-width:0.8;" x="478.98309" xlink:href="#maea3020ff3" y="384.48"/>
      </g>
     </g>
     <g id="text_5">
      <!-- 800 -->
      <defs>
       <path d="M 31.78125 34.625 
Q 24.75 34.625 20.71875 30.859375 
Q 16.703125 27.09375 16.703125 20.515625 
Q 16.703125 13.921875 20.71875 10.15625 
Q 24.75 6.390625 31.78125 6.390625 
Q 38.8125 6.390625 42.859375 10.171875 
Q 46.921875 13.96875 46.921875 20.515625 
Q 46.921875 27.09375 42.890625 30.859375 
Q 38.875 34.625 31.78125 34.625 
z
M 21.921875 38.8125 
Q 15.578125 40.375 12.03125 44.71875 
Q 8.5 49.078125 8.5 55.328125 
Q 8.5 64.0625 14.71875 69.140625 
Q 20.953125 74.21875 31.78125 74.21875 
Q 42.671875 74.21875 48.875 69.140625 
Q 55.078125 64.0625 55.078125 55.328125 
Q 55.078125 49.078125 51.53125 44.71875 
Q 48 40.375 41.703125 38.8125 
Q 48.828125 37.15625 52.796875 32.3125 
Q 56.78125 27.484375 56.78125 20.515625 
Q 56.78125 9.90625 50.3125 4.234375 
Q 43.84375 -1.421875 31.78125 -1.421875 
Q 19.734375 -1.421875 13.25 4.234375 
Q 6.78125 9.90625 6.78125 20.515625 
Q 6.78125 27.484375 10.78125 32.3125 
Q 14.796875 37.15625 21.921875 38.8125 
z
M 18.3125 54.390625 
Q 18.3125 48.734375 21.84375 45.5625 
Q 25.390625 42.390625 31.78125 42.390625 
Q 38.140625 42.390625 41.71875 45.5625 
Q 45.3125 48.734375 45.3125 54.390625 
Q 45.3125 60.0625 41.71875 63.234375 
Q 38.140625 66.40625 31.78125 66.40625 
Q 25.390625 66.40625 21.84375 63.234375 
Q 18.3125 60.0625 18.3125 54.390625 
z
" id="DejaVuSans-56"/>
      </defs>
      <g transform="translate(469.43934 399.078438)scale(0.1 -0.1)">
       <use xlink:href="#DejaVuSans-56"/>
       <use x="63.623047" xlink:href="#DejaVuSans-48"/>
       <use x="127.246094" xlink:href="#DejaVuSans-48"/>
      </g>
     </g>
    </g>
    <g id="xtick_6">
     <g id="line2d_6">
      <g>
       <use style="stroke:#000000;stroke-width:0.8;" x="564.119771" xlink:href="#maea3020ff3" y="384.48"/>
      </g>
     </g>
     <g id="text_6">
      <!-- 1000 -->
      <defs>
       <path d="M 12.40625 8.296875 
L 28.515625 8.296875 
L 28.515625 63.921875 
L 10.984375 60.40625 
L 10.984375 69.390625 
L 28.421875 72.90625 
L 38.28125 72.90625 
L 38.28125 8.296875 
L 54.390625 8.296875 
L 54.390625 0 
L 12.40625 0 
z
" id="DejaVuSans-49"/>
      </defs>
      <g transform="translate(551.394771 399.078438)scale(0.1 -0.1)">
       <use xlink:href="#DejaVuSans-49"/>
       <use x="63.623047" xlink:href="#DejaVuSans-48"/>
       <use x="127.246094" xlink:href="#DejaVuSans-48"/>
       <use x="190.869141" xlink:href="#DejaVuSans-48"/>
      </g>
     </g>
    </g>
    <g id="xtick_7">
     <g id="line2d_7">
      <g>
       <use style="stroke:#000000;stroke-width:0.8;" x="649.256453" xlink:href="#maea3020ff3" y="384.48"/>
      </g>
     </g>
     <g id="text_7">
      <!-- 1200 -->
      <g transform="translate(636.531453 399.078438)scale(0.1 -0.1)">
       <use xlink:href="#DejaVuSans-49"/>
       <use x="63.623047" xlink:href="#DejaVuSans-50"/>
       <use x="127.246094" xlink:href="#DejaVuSans-48"/>
       <use x="190.869141" xlink:href="#DejaVuSans-48"/>
      </g>
     </g>
    </g>
    <g id="xtick_8">
     <g id="line2d_8">
      <g>
       <use style="stroke:#000000;stroke-width:0.8;" x="734.393134" xlink:href="#maea3020ff3" y="384.48"/>
      </g>
     </g>
     <g id="text_8">
      <!-- 1400 -->
      <g transform="translate(721.668134 399.078438)scale(0.1 -0.1)">
       <use xlink:href="#DejaVuSans-49"/>
       <use x="63.623047" xlink:href="#DejaVuSans-52"/>
       <use x="127.246094" xlink:href="#DejaVuSans-48"/>
       <use x="190.869141" xlink:href="#DejaVuSans-48"/>
      </g>
     </g>
    </g>
    <g id="text_9">
     <!-- Timestamp -->
     <defs>
      <path d="M -0.296875 72.90625 
L 61.375 72.90625 
L 61.375 64.59375 
L 35.5 64.59375 
L 35.5 0 
L 25.59375 0 
L 25.59375 64.59375 
L -0.296875 64.59375 
z
" id="DejaVuSans-84"/>
      <path d="M 9.421875 54.6875 
L 18.40625 54.6875 
L 18.40625 0 
L 9.421875 0 
z
M 9.421875 75.984375 
L 18.40625 75.984375 
L 18.40625 64.59375 
L 9.421875 64.59375 
z
" id="DejaVuSans-105"/>
      <path d="M 52 44.1875 
Q 55.375 50.25 60.0625 53.125 
Q 64.75 56 71.09375 56 
Q 79.640625 56 84.28125 50.015625 
Q 88.921875 44.046875 88.921875 33.015625 
L 88.921875 0 
L 79.890625 0 
L 79.890625 32.71875 
Q 79.890625 40.578125 77.09375 44.375 
Q 74.3125 48.1875 68.609375 48.1875 
Q 61.625 48.1875 57.5625 43.546875 
Q 53.515625 38.921875 53.515625 30.90625 
L 53.515625 0 
L 44.484375 0 
L 44.484375 32.71875 
Q 44.484375 40.625 41.703125 44.40625 
Q 38.921875 48.1875 33.109375 48.1875 
Q 26.21875 48.1875 22.15625 43.53125 
Q 18.109375 38.875 18.109375 30.90625 
L 18.109375 0 
L 9.078125 0 
L 9.078125 54.6875 
L 18.109375 54.6875 
L 18.109375 46.1875 
Q 21.1875 51.21875 25.484375 53.609375 
Q 29.78125 56 35.6875 56 
Q 41.65625 56 45.828125 52.96875 
Q 50 49.953125 52 44.1875 
z
" id="DejaVuSans-109"/>
      <path d="M 56.203125 29.59375 
L 56.203125 25.203125 
L 14.890625 25.203125 
Q 15.484375 15.921875 20.484375 11.0625 
Q 25.484375 6.203125 34.421875 6.203125 
Q 39.59375 6.203125 44.453125 7.46875 
Q 49.3125 8.734375 54.109375 11.28125 
L 54.109375 2.78125 
Q 49.265625 0.734375 44.1875 -0.34375 
Q 39.109375 -1.421875 33.890625 -1.421875 
Q 20.796875 -1.421875 13.15625 6.1875 
Q 5.515625 13.8125 5.515625 26.8125 
Q 5.515625 40.234375 12.765625 48.109375 
Q 20.015625 56 32.328125 56 
Q 43.359375 56 49.78125 48.890625 
Q 56.203125 41.796875 56.203125 29.59375 
z
M 47.21875 32.234375 
Q 47.125 39.59375 43.09375 43.984375 
Q 39.0625 48.390625 32.421875 48.390625 
Q 24.90625 48.390625 20.390625 44.140625 
Q 15.875 39.890625 15.1875 32.171875 
z
" id="DejaVuSans-101"/>
      <path d="M 44.28125 53.078125 
L 44.28125 44.578125 
Q 40.484375 46.53125 36.375 47.5 
Q 32.28125 48.484375 27.875 48.484375 
Q 21.1875 48.484375 17.84375 46.4375 
Q 14.5 44.390625 14.5 40.28125 
Q 14.5 37.15625 16.890625 35.375 
Q 19.28125 33.59375 26.515625 31.984375 
L 29.59375 31.296875 
Q 39.15625 29.25 43.1875 25.515625 
Q 47.21875 21.78125 47.21875 15.09375 
Q 47.21875 7.46875 41.1875 3.015625 
Q 35.15625 -1.421875 24.609375 -1.421875 
Q 20.21875 -1.421875 15.453125 -0.5625 
Q 10.6875 0.296875 5.421875 2 
L 5.421875 11.28125 
Q 10.40625 8.6875 15.234375 7.390625 
Q 20.0625 6.109375 24.8125 6.109375 
Q 31.15625 6.109375 34.5625 8.28125 
Q 37.984375 10.453125 37.984375 14.40625 
Q 37.984375 18.0625 35.515625 20.015625 
Q 33.0625 21.96875 24.703125 23.78125 
L 21.578125 24.515625 
Q 13.234375 26.265625 9.515625 29.90625 
Q 5.8125 33.546875 5.8125 39.890625 
Q 5.8125 47.609375 11.28125 51.796875 
Q 16.75 56 26.8125 56 
Q 31.78125 56 36.171875 55.265625 
Q 40.578125 54.546875 44.28125 53.078125 
z
" id="DejaVuSans-115"/>
      <path d="M 18.3125 70.21875 
L 18.3125 54.6875 
L 36.8125 54.6875 
L 36.8125 47.703125 
L 18.3125 47.703125 
L 18.3125 18.015625 
Q 18.3125 11.328125 20.140625 9.421875 
Q 21.96875 7.515625 27.59375 7.515625 
L 36.8125 7.515625 
L 36.8125 0 
L 27.59375 0 
Q 17.1875 0 13.234375 3.875 
Q 9.28125 7.765625 9.28125 18.015625 
L 9.28125 47.703125 
L 2.6875 47.703125 
L 2.6875 54.6875 
L 9.28125 54.6875 
L 9.28125 70.21875 
z
" id="DejaVuSans-116"/>
      <path d="M 34.28125 27.484375 
Q 23.390625 27.484375 19.1875 25 
Q 14.984375 22.515625 14.984375 16.5 
Q 14.984375 11.71875 18.140625 8.90625 
Q 21.296875 6.109375 26.703125 6.109375 
Q 34.1875 6.109375 38.703125 11.40625 
Q 43.21875 16.703125 43.21875 25.484375 
L 43.21875 27.484375 
z
M 52.203125 31.203125 
L 52.203125 0 
L 43.21875 0 
L 43.21875 8.296875 
Q 40.140625 3.328125 35.546875 0.953125 
Q 30.953125 -1.421875 24.3125 -1.421875 
Q 15.921875 -1.421875 10.953125 3.296875 
Q 6 8.015625 6 15.921875 
Q 6 25.140625 12.171875 29.828125 
Q 18.359375 34.515625 30.609375 34.515625 
L 43.21875 34.515625 
L 43.21875 35.40625 
Q 43.21875 41.609375 39.140625 45 
Q 35.0625 48.390625 27.6875 48.390625 
Q 23 48.390625 18.546875 47.265625 
Q 14.109375 46.140625 10.015625 43.890625 
L 10.015625 52.203125 
Q 14.9375 54.109375 19.578125 55.046875 
Q 24.21875 56 28.609375 56 
Q 40.484375 56 46.34375 49.84375 
Q 52.203125 43.703125 52.203125 31.203125 
z
" id="DejaVuSans-97"/>
      <path d="M 18.109375 8.203125 
L 18.109375 -20.796875 
L 9.078125 -20.796875 
L 9.078125 54.6875 
L 18.109375 54.6875 
L 18.109375 46.390625 
Q 20.953125 51.265625 25.265625 53.625 
Q 29.59375 56 35.59375 56 
Q 45.5625 56 51.78125 48.09375 
Q 58.015625 40.1875 58.015625 27.296875 
Q 58.015625 14.40625 51.78125 6.484375 
Q 45.5625 -1.421875 35.59375 -1.421875 
Q 29.59375 -1.421875 25.265625 0.953125 
Q 20.953125 3.328125 18.109375 8.203125 
z
M 48.6875 27.296875 
Q 48.6875 37.203125 44.609375 42.84375 
Q 40.53125 48.484375 33.40625 48.484375 
Q 26.265625 48.484375 22.1875 42.84375 
Q 18.109375 37.203125 18.109375 27.296875 
Q 18.109375 17.390625 22.1875 11.75 
Q 26.265625 6.109375 33.40625 6.109375 
Q 40.53125 6.109375 44.609375 11.75 
Q 48.6875 17.390625 48.6875 27.296875 
z
" id="DejaVuSans-112"/>
     </defs>
     <g transform="translate(414.739062 412.756563)scale(0.1 -0.1)">
      <use xlink:href="#DejaVuSans-84"/>
      <use x="61.037109" xlink:href="#DejaVuSans-105"/>
      <use x="88.820312" xlink:href="#DejaVuSans-109"/>
      <use x="186.232422" xlink:href="#DejaVuSans-101"/>
      <use x="247.755859" xlink:href="#DejaVuSans-115"/>
      <use x="299.855469" xlink:href="#DejaVuSans-116"/>
      <use x="339.064453" xlink:href="#DejaVuSans-97"/>
      <use x="400.34375" xlink:href="#DejaVuSans-109"/>
      <use x="497.755859" xlink:href="#DejaVuSans-112"/>
     </g>
    </g>
   </g>
   <g id="matplotlib.axis_2">
    <g id="ytick_1">
     <g id="line2d_9">
      <defs>
       <path d="M 0 0 
L -3.5 0 
" id="ma84ae0ffbd" style="stroke:#000000;stroke-width:0.8;"/>
      </defs>
      <g>
       <use style="stroke:#000000;stroke-width:0.8;" x="108" xlink:href="#ma84ae0ffbd" y="369.36"/>
      </g>
     </g>
     <g id="text_10">
      <!-- 0 -->
      <g transform="translate(94.6375 373.159219)scale(0.1 -0.1)">
       <use xlink:href="#DejaVuSans-48"/>
      </g>
     </g>
    </g>
    <g id="ytick_2">
     <g id="line2d_10">
      <g>
       <use style="stroke:#000000;stroke-width:0.8;" x="108" xlink:href="#ma84ae0ffbd" y="311.539732"/>
      </g>
     </g>
     <g id="text_11">
      <!-- 500 -->
      <defs>
       <path d="M 10.796875 72.90625 
L 49.515625 72.90625 
L 49.515625 64.59375 
L 19.828125 64.59375 
L 19.828125 46.734375 
Q 21.96875 47.46875 24.109375 47.828125 
Q 26.265625 48.1875 28.421875 48.1875 
Q 40.625 48.1875 47.75 41.5 
Q 54.890625 34.8125 54.890625 23.390625 
Q 54.890625 11.625 47.5625 5.09375 
Q 40.234375 -1.421875 26.90625 -1.421875 
Q 22.3125 -1.421875 17.546875 -0.640625 
Q 12.796875 0.140625 7.71875 1.703125 
L 7.71875 11.625 
Q 12.109375 9.234375 16.796875 8.0625 
Q 21.484375 6.890625 26.703125 6.890625 
Q 35.15625 6.890625 40.078125 11.328125 
Q 45.015625 15.765625 45.015625 23.390625 
Q 45.015625 31 40.078125 35.4375 
Q 35.15625 39.890625 26.703125 39.890625 
Q 22.75 39.890625 18.8125 39.015625 
Q 14.890625 38.140625 10.796875 36.28125 
z
" id="DejaVuSans-53"/>
      </defs>
      <g transform="translate(81.9125 315.338951)scale(0.1 -0.1)">
       <use xlink:href="#DejaVuSans-53"/>
       <use x="63.623047" xlink:href="#DejaVuSans-48"/>
       <use x="127.246094" xlink:href="#DejaVuSans-48"/>
      </g>
     </g>
    </g>
    <g id="ytick_3">
     <g id="line2d_11">
      <g>
       <use style="stroke:#000000;stroke-width:0.8;" x="108" xlink:href="#ma84ae0ffbd" y="253.719465"/>
      </g>
     </g>
     <g id="text_12">
      <!-- 1000 -->
      <g transform="translate(75.55 257.518683)scale(0.1 -0.1)">
       <use xlink:href="#DejaVuSans-49"/>
       <use x="63.623047" xlink:href="#DejaVuSans-48"/>
       <use x="127.246094" xlink:href="#DejaVuSans-48"/>
       <use x="190.869141" xlink:href="#DejaVuSans-48"/>
      </g>
     </g>
    </g>
    <g id="ytick_4">
     <g id="line2d_12">
      <g>
       <use style="stroke:#000000;stroke-width:0.8;" x="108" xlink:href="#ma84ae0ffbd" y="195.899197"/>
      </g>
     </g>
     <g id="text_13">
      <!-- 1500 -->
      <g transform="translate(75.55 199.698416)scale(0.1 -0.1)">
       <use xlink:href="#DejaVuSans-49"/>
       <use x="63.623047" xlink:href="#DejaVuSans-53"/>
       <use x="127.246094" xlink:href="#DejaVuSans-48"/>
       <use x="190.869141" xlink:href="#DejaVuSans-48"/>
      </g>
     </g>
    </g>
    <g id="ytick_5">
     <g id="line2d_13">
      <g>
       <use style="stroke:#000000;stroke-width:0.8;" x="108" xlink:href="#ma84ae0ffbd" y="138.078929"/>
      </g>
     </g>
     <g id="text_14">
      <!-- 2000 -->
      <g transform="translate(75.55 141.878148)scale(0.1 -0.1)">
       <use xlink:href="#DejaVuSans-50"/>
       <use x="63.623047" xlink:href="#DejaVuSans-48"/>
       <use x="127.246094" xlink:href="#DejaVuSans-48"/>
       <use x="190.869141" xlink:href="#DejaVuSans-48"/>
      </g>
     </g>
    </g>
    <g id="ytick_6">
     <g id="line2d_14">
      <g>
       <use style="stroke:#000000;stroke-width:0.8;" x="108" xlink:href="#ma84ae0ffbd" y="80.258662"/>
      </g>
     </g>
     <g id="text_15">
      <!-- 2500 -->
      <g transform="translate(75.55 84.05788)scale(0.1 -0.1)">
       <use xlink:href="#DejaVuSans-50"/>
       <use x="63.623047" xlink:href="#DejaVuSans-53"/>
       <use x="127.246094" xlink:href="#DejaVuSans-48"/>
       <use x="190.869141" xlink:href="#DejaVuSans-48"/>
      </g>
     </g>
    </g>
    <g id="text_16">
     <!-- Value -->
     <defs>
      <path d="M 28.609375 0 
L 0.78125 72.90625 
L 11.078125 72.90625 
L 34.1875 11.53125 
L 57.328125 72.90625 
L 67.578125 72.90625 
L 39.796875 0 
z
" id="DejaVuSans-86"/>
      <path d="M 9.421875 75.984375 
L 18.40625 75.984375 
L 18.40625 0 
L 9.421875 0 
z
" id="DejaVuSans-108"/>
      <path d="M 8.5 21.578125 
L 8.5 54.6875 
L 17.484375 54.6875 
L 17.484375 21.921875 
Q 17.484375 14.15625 20.5 10.265625 
Q 23.53125 6.390625 29.59375 6.390625 
Q 36.859375 6.390625 41.078125 11.03125 
Q 45.3125 15.671875 45.3125 23.6875 
L 45.3125 54.6875 
L 54.296875 54.6875 
L 54.296875 0 
L 45.3125 0 
L 45.3125 8.40625 
Q 42.046875 3.421875 37.71875 1 
Q 33.40625 -1.421875 27.6875 -1.421875 
Q 18.265625 -1.421875 13.375 4.4375 
Q 8.5 10.296875 8.5 21.578125 
z
M 31.109375 56 
z
" id="DejaVuSans-117"/>
     </defs>
     <g transform="translate(69.470312 232.273281)rotate(-90)scale(0.1 -0.1)">
      <use xlink:href="#DejaVuSans-86"/>
      <use x="68.298828" xlink:href="#DejaVuSans-97"/>
      <use x="129.578125" xlink:href="#DejaVuSans-108"/>
      <use x="157.361328" xlink:href="#DejaVuSans-117"/>
      <use x="220.740234" xlink:href="#DejaVuSans-101"/>
     </g>
    </g>
   </g>
   <g id="line2d_15">
    <path clip-path="url(#p43984f90fd)" d="M 138.436364 369.36 
L 138.862047 368.897438 
L 139.28773 352.592122 
L 139.713414 348.660344 
L 140.139097 350.510593 
L 140.990464 348.429063 
L 141.416147 344.612925 
L 141.841831 344.844207 
L 142.267514 344.381644 
L 142.693198 347.85086 
L 143.118881 349.701109 
L 143.544565 343.687801 
L 143.970248 348.891625 
L 144.395931 348.429063 
L 144.821615 345.306769 
L 145.247298 347.157017 
L 145.672982 344.728566 
L 146.098665 345.884971 
L 146.524348 349.238547 
L 146.950032 349.238547 
L 147.801399 348.775985 
L 148.227082 350.279312 
L 148.652765 348.660344 
L 149.078449 351.551358 
L 149.504132 350.857514 
L 149.929816 349.93239 
L 150.355499 347.619579 
L 150.781182 347.041377 
L 151.206866 346.116252 
L 151.632549 347.157017 
L 152.058233 349.469828 
L 152.483916 348.660344 
L 152.909599 350.394952 
L 153.335283 349.701109 
L 153.760966 348.313423 
L 154.18665 344.959847 
L 154.612333 339.987304 
L 155.4637 350.626233 
L 155.889383 352.245201 
L 156.315067 351.898279 
L 156.74075 350.741874 
L 157.166434 348.660344 
L 157.592117 352.476482 
L 158.0178 352.592122 
L 158.443484 345.769331 
L 158.869167 348.544704 
L 159.294851 345.306769 
L 159.720534 349.81675 
L 160.146217 349.007266 
L 160.571901 351.088795 
L 160.997584 349.354187 
L 161.423268 351.666998 
L 161.848951 350.510593 
L 162.274634 352.245201 
L 162.700318 345.075488 
L 163.126001 348.197782 
L 163.551685 346.116252 
L 163.977368 347.157017 
L 164.403051 347.157017 
L 164.828735 347.041377 
L 165.254418 349.469828 
L 165.680102 350.973155 
L 166.105785 351.782639 
L 166.531469 348.197782 
L 166.957152 342.762677 
L 167.382835 342.762677 
L 167.808519 346.000612 
L 168.234202 342.184474 
L 168.659886 347.388298 
L 169.085569 341.721912 
L 169.511252 341.143709 
L 169.936936 346.116252 
L 170.362619 343.109598 
L 170.788303 343.34088 
L 171.213986 341.837553 
L 171.639669 339.409101 
L 172.065353 339.987304 
L 172.91672 342.647036 
L 173.342403 346.578815 
L 173.768086 340.449866 
L 174.19377 347.503939 
L 174.619453 351.320076 
L 175.045137 347.157017 
L 175.47082 359.067992 
L 176.322187 361.149522 
L 176.74787 363.693614 
L 177.173554 365.0813 
L 177.599237 363.693614 
L 178.024921 365.775143 
L 178.450604 365.890784 
L 178.876287 363.231052 
L 179.727654 362.190287 
L 180.153338 361.149522 
L 180.579021 360.918241 
L 181.004704 358.952352 
L 181.430388 358.952352 
L 181.856071 359.761836 
L 182.281755 364.503098 
L 182.707438 362.537208 
L 183.133121 363.577973 
L 183.558805 363.577973 
L 184.410172 362.305927 
L 184.835855 362.190287 
L 185.261538 361.265163 
L 185.687222 361.149522 
L 186.538589 361.380803 
L 186.964272 361.843365 
L 187.389955 361.843365 
L 188.241322 362.421568 
L 188.667006 362.537208 
L 189.092689 361.265163 
L 189.518373 357.795946 
L 189.944056 356.870822 
L 190.369739 356.29262 
L 190.795423 355.136214 
L 191.221106 357.449025 
L 191.64679 354.442371 
L 192.072473 354.673652 
L 192.498156 356.870822 
L 192.92384 356.986463 
L 193.349523 355.830057 
L 193.775207 358.374149 
L 194.20089 359.414914 
L 194.626573 359.183633 
L 195.052257 361.033881 
L 195.903624 359.067992 
L 196.329307 358.374149 
L 196.75499 361.149522 
L 197.180674 359.646195 
L 197.606357 360.224398 
L 198.032041 363.346692 
L 198.457724 364.040535 
L 198.883408 364.96566 
L 199.309091 364.040535 
L 199.734774 362.074646 
L 200.160458 361.843365 
L 200.586141 362.652849 
L 201.011825 359.646195 
L 201.437508 359.414914 
L 201.863191 360.340038 
L 202.288875 359.414914 
L 202.714558 361.149522 
L 203.140242 360.340038 
L 203.565925 361.265163 
L 203.991608 360.68696 
L 204.417292 361.727725 
L 204.842975 359.877476 
L 205.268659 360.68696 
L 205.694342 360.455679 
L 206.120025 360.571319 
L 206.545709 362.768489 
L 206.971392 361.033881 
L 207.397076 360.8026 
L 207.822759 363.346692 
L 208.248442 363.577973 
L 208.674126 364.850019 
L 209.099809 363.924895 
L 209.525493 361.843365 
L 209.951176 362.074646 
L 210.802543 360.340038 
L 211.228226 362.999771 
L 211.65391 359.530554 
L 212.079593 358.721071 
L 212.505277 358.836711 
L 212.93096 359.646195 
L 213.356643 362.537208 
L 213.782327 361.380803 
L 214.20801 363.462333 
L 214.633694 364.271816 
L 215.059377 363.231052 
L 215.48506 363.231052 
L 215.910744 361.843365 
L 216.336427 362.074646 
L 216.762111 361.843365 
L 217.187794 361.149522 
L 218.039161 361.727725 
L 218.890528 362.768489 
L 219.316211 362.190287 
L 219.741894 360.340038 
L 220.167578 361.496444 
L 220.593261 361.265163 
L 221.018945 362.999771 
L 221.444628 358.374149 
L 221.870312 360.455679 
L 222.295995 359.993117 
L 223.147362 360.8026 
L 223.573045 361.033881 
L 223.998729 361.843365 
L 224.424412 359.646195 
L 224.850095 360.571319 
L 225.275779 359.530554 
L 225.701462 361.149522 
L 226.127146 360.918241 
L 226.978512 361.612084 
L 227.404196 360.571319 
L 227.829879 360.108757 
L 228.255563 361.959006 
L 228.681246 362.074646 
L 229.106929 360.8026 
L 229.532613 362.305927 
L 229.958296 361.380803 
L 230.38398 359.993117 
L 230.809663 356.986463 
L 231.235346 358.258509 
L 231.66103 358.027228 
L 232.086713 360.918241 
L 232.512397 361.496444 
L 232.93808 360.68696 
L 233.363764 361.496444 
L 233.789447 360.68696 
L 234.21513 360.918241 
L 234.640814 360.918241 
L 235.066497 361.380803 
L 235.492181 360.455679 
L 235.917864 362.190287 
L 236.343547 359.646195 
L 236.769231 360.455679 
L 237.194914 360.918241 
L 237.620598 359.183633 
L 238.046281 360.918241 
L 238.471964 363.924895 
L 238.897648 363.924895 
L 239.749015 365.196941 
L 240.174698 364.156176 
L 240.600381 362.074646 
L 241.026065 362.768489 
L 241.877432 357.911587 
L 242.303115 359.067992 
L 242.728798 361.380803 
L 243.154482 359.067992 
L 243.580165 357.795946 
L 244.005849 359.530554 
L 244.431532 363.462333 
L 244.857216 360.8026 
L 245.282899 360.571319 
L 245.708582 359.761836 
L 246.134266 357.680306 
L 246.559949 358.374149 
L 246.985633 359.877476 
L 247.411316 360.571319 
L 247.836999 360.8026 
L 248.262683 359.646195 
L 248.688366 361.380803 
L 249.539733 362.421568 
L 249.965416 361.033881 
L 250.3911 361.727725 
L 250.816783 357.564665 
L 251.242467 356.176979 
L 252.093833 358.258509 
L 252.519517 352.360841 
L 252.9452 355.598776 
L 253.370884 351.320076 
L 253.796567 352.592122 
L 254.22225 354.673652 
L 254.647934 351.435717 
L 255.073617 354.904933 
L 255.499301 352.939044 
L 255.924984 355.598776 
L 256.350668 348.660344 
L 257.202034 343.919082 
L 257.627718 343.109598 
L 258.053401 349.469828 
L 258.479085 350.163671 
L 258.904768 350.510593 
L 259.330451 350.048031 
L 259.756135 350.048031 
L 260.181818 350.973155 
L 260.607502 349.93239 
L 261.033185 348.313423 
L 261.458868 344.034723 
L 261.884552 344.497285 
L 262.310235 343.687801 
L 262.735919 351.320076 
L 263.161602 352.707763 
L 263.587285 351.320076 
L 264.012969 351.435717 
L 264.438652 359.646195 
L 264.864336 357.217744 
L 265.290019 357.795946 
L 265.715702 359.646195 
L 266.141386 354.904933 
L 266.567069 358.60543 
L 266.992753 358.48979 
L 267.418436 361.033881 
L 267.84412 361.612084 
L 268.269803 360.68696 
L 268.695486 361.033881 
L 269.12117 362.652849 
L 269.546853 362.88413 
L 269.972537 362.768489 
L 270.39822 363.231052 
L 270.823903 360.918241 
L 271.249587 360.455679 
L 271.67527 362.537208 
L 272.100954 358.48979 
L 272.526637 361.380803 
L 272.95232 358.60543 
L 273.378004 356.639541 
L 273.803687 358.721071 
L 274.229371 336.86501 
L 274.655054 350.048031 
L 275.080737 356.176979 
L 275.506421 354.21109 
L 275.932104 357.680306 
L 276.357788 353.517247 
L 276.783471 355.945698 
L 277.634838 362.074646 
L 278.486205 363.462333 
L 278.911888 363.462333 
L 279.337572 364.271816 
L 279.763255 363.462333 
L 280.188938 364.040535 
L 280.614622 363.577973 
L 281.040305 362.305927 
L 281.465989 361.496444 
L 281.891672 360.340038 
L 282.317355 361.612084 
L 282.743039 359.414914 
L 283.168722 359.183633 
L 284.020089 361.149522 
L 284.871456 356.176979 
L 285.297139 360.455679 
L 285.722823 362.074646 
L 286.148506 360.224398 
L 286.574189 360.108757 
L 286.999873 358.721071 
L 287.85124 361.843365 
L 288.276923 361.959006 
L 288.702606 364.618738 
L 289.12829 364.850019 
L 289.553973 363.693614 
L 289.979657 364.618738 
L 290.831024 363.462333 
L 291.256707 363.924895 
L 291.68239 358.027228 
L 292.108074 355.945698 
L 292.533757 359.530554 
L 292.959441 355.251855 
L 293.385124 361.959006 
L 294.236491 359.067992 
L 294.662174 359.530554 
L 295.087858 361.033881 
L 295.513541 358.48979 
L 295.939224 359.299273 
L 296.364908 355.367495 
L 296.790591 355.136214 
L 297.216275 357.102103 
L 297.641958 360.108757 
L 298.067641 360.224398 
L 298.493325 361.265163 
L 298.919008 361.496444 
L 299.344692 362.768489 
L 299.770375 362.88413 
L 300.196058 362.88413 
L 300.621742 362.652849 
L 301.047425 362.768489 
L 301.473109 360.68696 
L 301.898792 357.102103 
L 302.324476 356.755182 
L 302.750159 359.993117 
L 303.175842 360.108757 
L 303.601526 360.68696 
L 304.027209 359.299273 
L 304.452893 357.449025 
L 304.878576 360.68696 
L 305.304259 358.142868 
L 305.729943 361.612084 
L 306.155626 359.761836 
L 306.58131 361.843365 
L 307.432676 363.577973 
L 307.85836 359.414914 
L 308.284043 359.067992 
L 308.709727 359.183633 
L 309.561093 362.652849 
L 309.986777 364.96566 
L 310.41246 363.577973 
L 310.838144 363.809254 
L 311.263827 363.462333 
L 311.68951 363.577973 
L 312.115194 362.768489 
L 312.540877 361.033881 
L 312.966561 361.496444 
L 313.392244 360.340038 
L 313.817928 361.380803 
L 314.243611 360.8026 
L 315.094978 362.652849 
L 315.520661 361.612084 
L 315.946345 361.265163 
L 316.372028 362.074646 
L 316.797711 358.258509 
L 317.223395 357.449025 
L 317.649078 353.401606 
L 318.074762 355.830057 
L 318.500445 355.945698 
L 318.926128 355.945698 
L 319.351812 356.40826 
L 319.777495 361.149522 
L 320.203179 364.156176 
L 320.628862 363.462333 
L 321.054545 363.809254 
L 321.480229 361.496444 
L 321.905912 362.537208 
L 322.331596 361.033881 
L 322.757279 360.224398 
L 323.182962 360.571319 
L 323.608646 358.721071 
L 324.460013 360.918241 
L 324.885696 362.421568 
L 325.737063 358.142868 
L 326.162746 359.183633 
L 326.58843 361.612084 
L 327.014113 361.380803 
L 327.439797 359.877476 
L 327.86548 361.612084 
L 328.291163 358.836711 
L 328.716847 363.693614 
L 329.14253 364.387457 
L 329.568214 364.387457 
L 329.993897 363.924895 
L 330.41958 364.618738 
L 330.845264 364.850019 
L 331.270947 364.503098 
L 331.696631 363.462333 
L 332.122314 363.924895 
L 332.547997 361.612084 
L 332.973681 362.88413 
L 333.399364 361.496444 
L 333.825048 363.462333 
L 334.250731 362.768489 
L 334.676414 361.380803 
L 335.102098 359.530554 
L 335.527781 356.523901 
L 335.953465 360.918241 
L 336.379148 361.727725 
L 336.804832 361.959006 
L 337.230515 363.231052 
L 337.656198 362.537208 
L 338.081882 362.421568 
L 338.507565 355.945698 
L 338.933249 360.8026 
L 339.358932 361.380803 
L 339.784615 362.421568 
L 340.210299 360.8026 
L 340.635982 362.88413 
L 341.061666 361.033881 
L 341.487349 363.231052 
L 341.913032 363.809254 
L 342.338716 361.843365 
L 342.764399 361.843365 
L 343.190083 361.612084 
L 343.615766 360.571319 
L 344.041449 361.265163 
L 344.467133 362.190287 
L 344.892816 361.843365 
L 345.3185 361.959006 
L 345.744183 363.115411 
L 346.169866 360.571319 
L 346.59555 359.299273 
L 347.021233 360.68696 
L 347.446917 363.231052 
L 348.298284 359.067992 
L 348.723967 356.755182 
L 349.14965 360.224398 
L 349.575334 361.727725 
L 350.001017 364.040535 
L 350.426701 363.809254 
L 350.852384 362.537208 
L 351.278067 363.693614 
L 351.703751 362.88413 
L 352.129434 362.421568 
L 352.555118 363.115411 
L 352.980801 362.190287 
L 353.406484 363.115411 
L 353.832168 362.074646 
L 354.257851 362.074646 
L 355.109218 359.761836 
L 355.534901 358.836711 
L 355.960585 357.564665 
L 356.386268 355.483136 
L 356.811952 357.795946 
L 357.237635 361.727725 
L 357.663318 363.577973 
L 358.089002 359.761836 
L 358.514685 361.496444 
L 358.940369 360.224398 
L 359.366052 362.999771 
L 359.791736 361.843365 
L 360.643102 364.850019 
L 361.068786 364.040535 
L 361.494469 363.577973 
L 361.920153 363.693614 
L 362.345836 363.924895 
L 363.197203 361.496444 
L 363.622886 362.537208 
L 364.04857 360.340038 
L 364.474253 361.265163 
L 364.899936 360.918241 
L 365.32562 362.074646 
L 365.751303 362.537208 
L 366.176987 360.571319 
L 366.60267 362.88413 
L 367.87972 359.299273 
L 368.305404 359.530554 
L 368.731087 358.258509 
L 369.156771 359.183633 
L 369.582454 362.074646 
L 370.008137 362.421568 
L 370.433821 362.537208 
L 370.859504 363.231052 
L 371.285188 362.652849 
L 371.710871 362.88413 
L 372.136554 362.768489 
L 372.562238 362.305927 
L 372.987921 363.346692 
L 373.413605 360.8026 
L 373.839288 361.959006 
L 374.264971 360.68696 
L 374.690655 359.877476 
L 375.116338 362.190287 
L 375.542022 360.455679 
L 375.967705 360.571319 
L 376.393388 360.340038 
L 376.819072 356.639541 
L 377.244755 355.251855 
L 377.670439 353.054685 
L 378.096122 363.346692 
L 378.521805 362.190287 
L 378.947489 351.782639 
L 379.373172 349.585468 
L 380.224539 362.074646 
L 380.650223 363.924895 
L 381.075906 364.387457 
L 381.501589 363.924895 
L 382.77864 363.346692 
L 383.204323 361.265163 
L 383.630006 362.768489 
L 384.05569 360.455679 
L 384.481373 363.115411 
L 384.907057 359.993117 
L 385.33274 363.115411 
L 386.184107 364.96566 
L 386.60979 362.999771 
L 387.035474 362.190287 
L 387.88684 363.346692 
L 388.312524 363.346692 
L 388.738207 361.265163 
L 389.163891 361.265163 
L 389.589574 360.224398 
L 390.015257 364.96566 
L 390.440941 364.96566 
L 390.866624 365.890784 
L 391.292308 361.496444 
L 391.717991 364.96566 
L 392.143675 365.312581 
L 392.569358 359.299273 
L 392.995041 365.543862 
L 393.420725 369.36 
L 393.846408 363.693614 
L 394.272092 363.115411 
L 394.697775 362.88413 
L 395.123458 362.88413 
L 395.549142 359.646195 
L 395.974825 361.727725 
L 396.400509 360.224398 
L 396.826192 362.652849 
L 397.251875 363.693614 
L 397.677559 361.612084 
L 398.103242 362.537208 
L 398.528926 364.271816 
L 399.380292 362.305927 
L 399.805976 362.305927 
L 401.083026 366.237706 
L 401.508709 365.890784 
L 401.934393 365.775143 
L 402.360076 366.006424 
L 402.78576 365.428222 
L 403.211443 365.775143 
L 403.637127 365.196941 
L 404.488493 362.88413 
L 404.914177 363.809254 
L 405.33986 362.190287 
L 405.765544 361.149522 
L 406.191227 361.612084 
L 406.61691 361.727725 
L 407.042594 362.421568 
L 407.468277 361.727725 
L 407.893961 363.577973 
L 408.319644 361.496444 
L 408.745327 363.693614 
L 409.171011 363.346692 
L 409.596694 363.462333 
L 410.022378 362.421568 
L 410.448061 364.503098 
L 411.299428 366.353346 
L 411.725111 364.618738 
L 412.150795 364.96566 
L 412.576478 365.0813 
L 413.002161 365.659503 
L 413.427845 363.924895 
L 413.853528 363.115411 
L 414.279212 363.577973 
L 414.704895 362.88413 
L 415.130579 362.88413 
L 415.556262 362.421568 
L 415.981945 361.727725 
L 416.407629 363.115411 
L 416.833312 361.727725 
L 417.684679 364.271816 
L 418.110362 364.271816 
L 418.536046 363.693614 
L 418.961729 364.156176 
L 419.387413 362.074646 
L 419.813096 361.149522 
L 420.238779 361.149522 
L 420.664463 363.115411 
L 421.090146 363.809254 
L 421.51583 365.312581 
L 421.941513 364.156176 
L 422.367196 365.196941 
L 422.79288 363.924895 
L 423.218563 363.231052 
L 423.644247 365.543862 
L 424.06993 364.734379 
L 424.495613 363.115411 
L 424.921297 364.734379 
L 425.34698 364.734379 
L 425.772664 364.040535 
L 426.198347 362.88413 
L 426.624031 362.537208 
L 427.049714 361.149522 
L 427.475397 360.8026 
L 427.901081 361.959006 
L 428.326764 362.074646 
L 428.752448 362.305927 
L 429.603814 360.571319 
L 430.029498 362.421568 
L 430.455181 362.88413 
L 430.880865 364.040535 
L 431.306548 363.693614 
L 432.157915 364.850019 
L 432.583598 364.96566 
L 433.009282 365.312581 
L 433.434965 363.577973 
L 433.860648 365.196941 
L 434.286332 363.346692 
L 434.712015 363.346692 
L 435.137699 362.88413 
L 435.563382 363.115411 
L 435.989065 364.040535 
L 436.414749 364.387457 
L 436.840432 364.156176 
L 437.266116 364.156176 
L 438.117483 364.387457 
L 438.543166 365.196941 
L 438.968849 363.809254 
L 439.394533 363.577973 
L 439.820216 362.537208 
L 440.2459 361.843365 
L 440.671583 362.190287 
L 441.097266 364.156176 
L 441.52295 363.577973 
L 441.948633 364.734379 
L 442.374317 364.040535 
L 442.8 362.88413 
L 443.225683 364.387457 
L 444.07705 364.387457 
L 444.502734 365.0813 
L 445.3541 364.503098 
L 445.779784 363.231052 
L 446.205467 356.29262 
L 446.631151 360.918241 
L 447.056834 360.224398 
L 447.482517 361.612084 
L 447.908201 360.571319 
L 448.333884 361.612084 
L 448.759568 361.843365 
L 449.185251 362.768489 
L 449.610935 362.999771 
L 450.462301 361.265163 
L 450.887985 358.027228 
L 451.313668 361.612084 
L 452.165035 363.693614 
L 453.016402 364.96566 
L 453.442085 364.156176 
L 453.867769 366.353346 
L 454.293452 366.353346 
L 454.719135 363.693614 
L 455.144819 364.156176 
L 455.570502 362.999771 
L 455.996186 357.102103 
L 456.421869 360.918241 
L 456.847552 361.727725 
L 457.273236 361.149522 
L 457.698919 359.646195 
L 458.124603 360.918241 
L 458.550286 359.067992 
L 458.975969 362.88413 
L 459.401653 361.727725 
L 459.827336 361.033881 
L 460.25302 362.421568 
L 460.678703 362.421568 
L 461.104387 363.693614 
L 461.53007 362.074646 
L 461.955753 364.96566 
L 462.381437 364.271816 
L 462.80712 365.312581 
L 463.232804 365.196941 
L 463.658487 365.890784 
L 464.08417 365.196941 
L 464.509854 365.775143 
L 465.786904 363.809254 
L 466.212587 363.577973 
L 467.063954 361.265163 
L 467.489638 361.265163 
L 467.915321 361.727725 
L 468.341004 361.265163 
L 468.766688 361.612084 
L 469.192371 360.8026 
L 469.618055 361.149522 
L 470.043738 361.959006 
L 470.469421 361.612084 
L 470.895105 361.496444 
L 471.320788 359.761836 
L 471.746472 364.271816 
L 472.172155 365.428222 
L 472.597839 364.850019 
L 473.023522 365.312581 
L 473.449205 363.924895 
L 473.874889 365.0813 
L 474.300572 364.734379 
L 474.726256 363.462333 
L 475.151939 363.924895 
L 475.577622 364.850019 
L 476.003306 362.652849 
L 476.428989 363.231052 
L 476.854673 363.346692 
L 477.280356 365.196941 
L 477.706039 364.618738 
L 478.131723 362.190287 
L 478.557406 362.537208 
L 478.98309 366.237706 
L 479.408773 363.462333 
L 479.834456 362.421568 
L 480.26014 359.530554 
L 480.685823 361.843365 
L 481.53719 362.537208 
L 482.388557 365.659503 
L 482.81424 365.659503 
L 483.239924 366.006424 
L 483.665607 365.890784 
L 484.091291 365.196941 
L 484.516974 366.353346 
L 484.942657 365.659503 
L 485.794024 362.652849 
L 486.219708 364.503098 
L 486.645391 362.88413 
L 487.071074 363.577973 
L 487.496758 363.577973 
L 487.922441 363.346692 
L 488.348125 364.618738 
L 488.773808 363.924895 
L 489.199491 360.8026 
L 489.625175 365.0813 
L 490.050858 363.346692 
L 490.476542 362.768489 
L 490.902225 364.618738 
L 491.327908 363.577973 
L 491.753592 363.115411 
L 492.179275 362.421568 
L 492.604959 363.346692 
L 493.030642 366.006424 
L 493.456325 366.700268 
L 493.882009 366.584627 
L 494.733376 367.047189 
L 495.584743 362.768489 
L 496.010426 363.231052 
L 496.436109 361.843365 
L 496.861793 362.652849 
L 497.287476 357.680306 
L 497.71316 361.149522 
L 498.138843 361.033881 
L 498.564526 361.380803 
L 498.99021 361.033881 
L 499.415893 361.843365 
L 499.841577 362.074646 
L 500.26726 362.768489 
L 500.692943 360.571319 
L 501.118627 362.074646 
L 501.54431 362.999771 
L 501.969994 363.577973 
L 502.395677 356.40826 
L 502.82136 358.60543 
L 503.247044 364.387457 
L 503.672727 365.775143 
L 504.098411 365.543862 
L 504.524094 364.503098 
L 504.949777 364.96566 
L 505.375461 363.924895 
L 505.801144 364.734379 
L 506.652511 352.592122 
L 507.078195 355.830057 
L 507.503878 356.176979 
L 507.929561 355.714417 
L 508.355245 360.108757 
L 508.780928 360.68696 
L 509.632295 362.999771 
L 510.057978 362.074646 
L 510.483662 360.455679 
L 510.909345 362.88413 
L 511.335029 361.612084 
L 511.760712 361.380803 
L 512.186395 360.8026 
L 512.612079 361.149522 
L 513.463446 363.346692 
L 513.889129 361.959006 
L 514.314812 362.88413 
L 514.740496 364.271816 
L 515.166179 363.693614 
L 515.591863 362.537208 
L 516.443229 361.959006 
L 516.868913 361.959006 
L 517.294596 360.8026 
L 517.72028 362.305927 
L 518.145963 360.8026 
L 518.571647 361.727725 
L 518.99733 361.033881 
L 519.423013 360.918241 
L 519.848697 361.380803 
L 520.27438 360.918241 
L 520.700064 359.993117 
L 521.125747 359.414914 
L 521.55143 359.993117 
L 521.977114 358.721071 
L 522.828481 358.374149 
L 523.254164 359.530554 
L 523.679847 359.530554 
L 524.105531 360.68696 
L 524.531214 362.88413 
L 524.956898 362.305927 
L 525.382581 362.768489 
L 525.808264 361.959006 
L 526.233948 362.999771 
L 526.659631 362.88413 
L 527.085315 362.999771 
L 527.510998 361.380803 
L 527.936682 360.918241 
L 528.362365 362.999771 
L 528.788048 357.217744 
L 529.213732 356.40826 
L 529.639415 357.795946 
L 530.065099 356.870822 
L 530.490782 358.258509 
L 530.916465 363.577973 
L 531.342149 361.727725 
L 531.767832 359.067992 
L 532.193516 361.727725 
L 532.619199 362.768489 
L 533.470566 365.428222 
L 533.896249 364.850019 
L 534.321933 365.428222 
L 534.747616 366.353346 
L 535.173299 365.890784 
L 535.598983 367.625392 
L 536.024666 368.203595 
L 536.45035 367.509751 
L 536.876033 367.509751 
L 537.301716 367.625392 
L 537.7274 368.087954 
L 538.153083 368.087954 
L 538.578767 368.319235 
L 539.430134 367.856673 
L 540.2815 368.319235 
L 540.707184 367.972314 
L 541.132867 368.434876 
L 541.558551 367.856673 
L 541.984234 367.972314 
L 542.409917 367.972314 
L 542.835601 368.087954 
L 543.261284 367.625392 
L 543.686968 368.203595 
L 544.112651 368.087954 
L 544.538334 368.203595 
L 544.964018 367.972314 
L 545.389701 368.087954 
L 545.815385 368.087954 
L 546.241068 367.972314 
L 546.666751 367.972314 
L 547.092435 367.856673 
L 547.518118 368.203595 
L 547.943802 367.509751 
L 548.369485 367.625392 
L 548.795168 367.972314 
L 549.220852 368.087954 
L 549.646535 368.319235 
L 550.072219 368.203595 
L 550.923586 368.434876 
L 551.349269 368.203595 
L 551.774952 365.890784 
L 552.200636 365.775143 
L 552.626319 364.387457 
L 553.052003 367.972314 
L 555.606103 367.972314 
L 556.031786 367.509751 
L 556.45747 367.972314 
L 556.883153 367.972314 
L 557.308837 368.203595 
L 557.73452 368.087954 
L 558.160203 368.087954 
L 558.585887 367.972314 
L 559.01157 367.972314 
L 559.437254 367.856673 
L 559.862937 367.856673 
L 560.28862 368.319235 
L 560.714304 367.856673 
L 561.139987 368.087954 
L 561.565671 367.509751 
L 561.991354 368.319235 
L 562.417038 368.434876 
L 562.842721 367.625392 
L 563.268404 368.087954 
L 563.694088 367.625392 
L 564.119771 368.203595 
L 564.545455 368.203595 
L 564.971138 368.434876 
L 565.396821 368.319235 
L 565.822505 368.666157 
L 566.248188 367.625392 
L 566.673872 368.550516 
L 567.099555 368.434876 
L 567.525238 368.434876 
L 567.950922 368.550516 
L 568.376605 368.087954 
L 568.802289 368.087954 
L 569.227972 368.434876 
L 569.653655 368.434876 
L 570.079339 367.972314 
L 570.505022 368.781797 
L 570.930706 368.666157 
L 571.356389 368.666157 
L 571.782072 369.244359 
L 572.207756 369.244359 
L 572.633439 368.434876 
L 573.484806 368.203595 
L 573.91049 367.856673 
L 574.336173 368.087954 
L 575.18754 368.897438 
L 575.613223 368.897438 
L 576.038907 369.013078 
L 576.46459 368.897438 
L 576.890273 368.897438 
L 577.315957 368.203595 
L 577.74164 368.087954 
L 578.167324 368.781797 
L 579.01869 369.013078 
L 579.444374 369.013078 
L 579.870057 368.897438 
L 580.295741 368.666157 
L 580.721424 368.666157 
L 581.147107 368.897438 
L 581.572791 368.666157 
L 581.998474 367.972314 
L 582.424158 368.434876 
L 582.849841 367.741033 
L 583.275524 367.856673 
L 583.701208 367.509751 
L 584.126891 367.856673 
L 584.552575 367.972314 
L 584.978258 367.972314 
L 585.403942 368.203595 
L 585.829625 367.972314 
L 588.383725 367.972314 
L 588.809409 367.625392 
L 589.235092 367.856673 
L 589.660776 367.509751 
L 590.086459 367.972314 
L 590.512142 367.741033 
L 590.937826 368.203595 
L 591.363509 367.972314 
L 591.789193 368.087954 
L 592.214876 367.972314 
L 592.640559 367.972314 
L 593.066243 367.741033 
L 593.491926 368.087954 
L 593.91761 367.856673 
L 594.343293 367.972314 
L 595.19466 368.550516 
L 595.620343 368.434876 
L 596.897394 368.434876 
L 597.74876 368.087954 
L 598.174444 367.972314 
L 598.600127 367.972314 
L 599.025811 368.087954 
L 599.451494 367.394111 
L 600.302861 367.972314 
L 600.728544 367.741033 
L 601.154228 368.319235 
L 601.579911 368.087954 
L 602.005594 368.203595 
L 602.431278 367.972314 
L 602.856961 368.087954 
L 603.282645 367.741033 
L 603.708328 367.047189 
L 604.134011 368.203595 
L 604.559695 368.434876 
L 605.411062 368.434876 
L 605.836745 368.203595 
L 606.688112 368.203595 
L 607.539479 368.550516 
L 607.965162 368.087954 
L 608.390846 368.087954 
L 608.816529 367.047189 
L 609.242212 368.087954 
L 609.667896 368.550516 
L 610.093579 368.781797 
L 610.519263 368.666157 
L 610.944946 368.434876 
L 611.370629 367.972314 
L 611.796313 368.319235 
L 612.221996 368.319235 
L 612.64768 368.666157 
L 613.073363 367.972314 
L 613.499046 368.434876 
L 613.92473 368.434876 
L 614.350413 368.087954 
L 615.20178 368.434876 
L 615.627463 368.434876 
L 616.053147 367.856673 
L 616.904514 368.434876 
L 617.330197 368.550516 
L 617.75588 368.434876 
L 618.607247 367.856673 
L 619.032931 368.087954 
L 619.458614 368.087954 
L 619.884298 367.972314 
L 620.309981 368.203595 
L 620.735664 367.625392 
L 621.161348 368.319235 
L 621.587031 368.087954 
L 622.012715 368.203595 
L 622.438398 367.856673 
L 622.864081 367.972314 
L 623.289765 367.972314 
L 623.715448 368.203595 
L 624.141132 367.972314 
L 624.566815 368.087954 
L 624.992498 367.972314 
L 625.843865 367.972314 
L 626.269549 367.856673 
L 626.695232 368.434876 
L 627.120915 368.550516 
L 627.546599 368.434876 
L 627.972282 367.741033 
L 628.397966 367.741033 
L 628.823649 368.319235 
L 629.249332 368.666157 
L 629.675016 368.203595 
L 630.100699 368.434876 
L 630.526383 368.434876 
L 630.952066 368.666157 
L 631.37775 368.550516 
L 631.803433 368.550516 
L 632.229116 368.434876 
L 632.6548 368.550516 
L 633.080483 368.781797 
L 634.357533 368.434876 
L 634.783217 368.897438 
L 635.2089 368.434876 
L 635.634584 368.550516 
L 636.060267 368.550516 
L 636.48595 368.897438 
L 638.614367 368.897438 
L 639.040051 368.550516 
L 639.465734 369.013078 
L 639.891418 368.666157 
L 640.317101 368.781797 
L 640.742784 368.666157 
L 641.168468 368.666157 
L 641.594151 368.319235 
L 642.019835 368.319235 
L 642.445518 368.434876 
L 642.871202 368.434876 
L 643.722568 368.203595 
L 644.148252 368.781797 
L 644.573935 368.550516 
L 644.999619 368.087954 
L 645.425302 367.972314 
L 645.850985 368.434876 
L 647.979402 368.434876 
L 648.405086 368.550516 
L 648.830769 368.203595 
L 649.256453 365.659503 
L 650.107819 367.856673 
L 650.533503 367.509751 
L 650.959186 367.856673 
L 651.38487 367.625392 
L 651.810553 367.16283 
L 652.236236 364.040535 
L 652.66192 362.074646 
L 653.513287 363.577973 
L 653.93897 358.258509 
L 654.364654 362.190287 
L 654.790337 362.421568 
L 655.21602 362.074646 
L 656.067387 366.122065 
L 656.493071 366.122065 
L 656.918754 365.428222 
L 657.344437 365.428222 
L 657.770121 364.156176 
L 658.621488 66.96 
L 659.047171 101.652161 
L 659.472854 98.645507 
L 659.898538 120.385927 
L 660.324221 123.623862 
L 660.749905 110.09392 
L 661.175588 127.786922 
L 661.601271 121.542333 
L 662.026955 100.842677 
L 662.878322 129.290249 
L 663.304005 122.467457 
L 664.155372 79.102256 
L 664.581055 92.86348 
L 665.006739 99.917553 
L 666.283789 179.593881 
L 666.709472 191.967419 
L 667.135156 190.00153 
L 667.986523 200.293537 
L 668.412206 192.892543 
L 668.837889 175.083901 
L 669.263573 146.636329 
L 669.689256 141.432505 
L 670.11494 131.024857 
L 670.540623 137.269446 
L 670.966306 121.542333 
L 671.39199 111.828528 
L 671.817673 119.923365 
L 672.243357 138.657132 
L 672.66904 132.065621 
L 673.094723 138.19457 
L 673.520407 151.377591 
L 673.94609 136.228681 
L 674.371774 130.215373 
L 674.797457 127.208719 
L 675.22314 117.726195 
L 675.648824 124.548987 
L 676.074507 150.915029 
L 676.500191 160.513193 
L 676.925874 185.028987 
L 677.777241 203.415832 
L 678.202924 194.627151 
L 679.054291 159.241147 
L 679.479975 149.874264 
L 679.905658 149.296061 
L 680.757025 140.969943 
L 681.182708 132.412543 
L 681.608392 161.322677 
L 682.034075 149.758623 
L 682.459758 152.533996 
L 682.885442 168.839312 
L 683.311125 165.948298 
L 683.736809 147.214532 
L 684.162492 138.888413 
L 684.588175 155.078088 
L 685.013859 122.814379 
L 685.439542 126.167954 
L 685.865226 142.58891 
L 687.142276 206.653767 
L 687.567959 207.231969 
L 687.993643 245.855908 
L 688.419326 239.033117 
L 688.84501 239.033117 
L 689.270693 200.87174 
L 689.696376 201.449943 
L 690.547743 171.499044 
L 690.973427 172.192887 
L 691.39911 208.388375 
L 691.824793 180.403365 
L 692.250477 172.308528 
L 692.67616 160.744474 
L 693.101844 164.444971 
L 693.95321 136.575602 
L 694.378894 368.897438 
L 694.804577 152.418356 
L 695.230261 148.833499 
L 695.655944 143.398394 
L 696.081627 162.594723 
L 696.507311 199.599694 
L 696.932994 210.122983 
L 697.784361 242.386692 
L 698.210045 237.182868 
L 698.635728 220.29935 
L 699.061411 214.401683 
L 699.487095 199.599694 
L 699.912778 192.083059 
L 700.338462 179.709522 
L 700.764145 173.002371 
L 701.189828 181.906692 
L 701.615512 171.267763 
L 702.041195 157.275258 
L 702.466879 207.231969 
L 702.892562 155.887572 
L 703.318245 169.186233 
L 703.743929 171.730325 
L 704.169612 168.954952 
L 704.595296 155.078088 
L 705.020979 151.377591 
L 705.446662 142.241989 
L 707.149396 221.455755 
L 708.000763 237.761071 
L 708.426446 236.489025 
L 708.85213 229.203671 
L 709.277813 230.013155 
L 709.703497 195.899197 
L 710.12918 193.586386 
L 710.980547 172.424168 
L 711.40623 171.961606 
L 711.831914 199.252772 
L 712.257597 170.68956 
L 712.68328 179.3626 
L 713.108964 180.172084 
L 713.534647 194.974073 
L 713.960331 178.553117 
L 714.386014 182.600535 
L 714.811697 170.226998 
L 715.237381 140.969943 
L 715.663064 155.193728 
L 716.514431 174.043136 
L 716.940114 196.708681 
L 717.365798 204.572237 
L 717.791481 218.680382 
L 718.217165 220.761912 
L 718.642848 202.837629 
L 719.068531 201.912505 
L 719.494215 181.906692 
L 719.919898 193.123824 
L 720.345582 180.287725 
L 720.771265 174.736979 
L 721.196949 165.254455 
L 721.622632 173.580574 
L 722.048315 165.832658 
L 722.473999 171.614685 
L 722.899682 169.648795 
L 723.325366 197.402524 
L 723.751049 177.16543 
L 724.176732 186.879235 
L 724.602416 162.941644 
L 725.028099 162.826004 
L 725.453783 173.464933 
L 725.879466 159.93499 
L 726.305149 160.860115 
L 726.730833 181.791052 
L 727.156516 193.933308 
L 727.5822 220.993193 
L 728.007883 233.598011 
L 728.433566 227.237782 
L 728.85925 231.05392 
L 729.284933 240.999006 
L 729.710617 220.530631 
L 730.1363 209.082218 
L 730.561983 180.634646 
L 730.987667 180.865927 
L 731.41335 185.375908 
L 731.839034 184.913346 
L 732.264717 181.212849 
L 732.690401 171.267763 
L 733.116084 179.478241 
L 733.541767 132.065621 
L 733.967451 171.267763 
L 734.393134 171.383403 
L 734.818818 108.128031 
L 735.670184 159.241147 
L 736.095868 145.711205 
L 736.521551 157.853461 
L 737.798601 219.258585 
L 738.224285 229.666233 
L 738.649968 234.291855 
L 739.075652 228.047266 
L 739.501335 224.924971 
L 739.927018 199.715335 
L 740.352702 202.028145 
L 740.778385 197.286883 
L 741.204069 208.388375 
L 741.629752 196.824321 
L 742.055435 170.68956 
L 742.906802 164.329331 
L 743.332486 173.580574 
L 743.758169 154.615526 
L 744.183853 170.920841 
L 744.609536 173.811855 
L 745.035219 160.744474 
L 745.460903 135.187916 
L 745.460903 135.187916 
" style="fill:none;stroke:#1f77b4;stroke-linecap:square;stroke-width:1.5;"/>
   </g>
   <g id="line2d_16">
    <path clip-path="url(#p43984f90fd)" d="M 747.163636 384.48 
L 747.163636 51.84 
" style="fill:none;stroke:#808080;stroke-linecap:square;"/>
   </g>
   <g id="patch_83">
    <path d="M 108 384.48 
L 108 51.84 
" style="fill:none;stroke:#000000;stroke-linecap:square;stroke-linejoin:miter;stroke-width:0.8;"/>
   </g>
   <g id="patch_84">
    <path d="M 777.6 384.48 
L 777.6 51.84 
" style="fill:none;stroke:#000000;stroke-linecap:square;stroke-linejoin:miter;stroke-width:0.8;"/>
   </g>
   <g id="patch_85">
    <path d="M 108 384.48 
L 777.6 384.48 
" style="fill:none;stroke:#000000;stroke-linecap:square;stroke-linejoin:miter;stroke-width:0.8;"/>
   </g>
   <g id="patch_86">
    <path d="M 108 51.84 
L 777.6 51.84 
" style="fill:none;stroke:#000000;stroke-linecap:square;stroke-linejoin:miter;stroke-width:0.8;"/>
   </g>
   <g id="text_17">
    <!-- real_31.csv -->
    <defs>
     <path d="M 41.109375 46.296875 
Q 39.59375 47.171875 37.8125 47.578125 
Q 36.03125 48 33.890625 48 
Q 26.265625 48 22.1875 43.046875 
Q 18.109375 38.09375 18.109375 28.8125 
L 18.109375 0 
L 9.078125 0 
L 9.078125 54.6875 
L 18.109375 54.6875 
L 18.109375 46.1875 
Q 20.953125 51.171875 25.484375 53.578125 
Q 30.03125 56 36.53125 56 
Q 37.453125 56 38.578125 55.875 
Q 39.703125 55.765625 41.0625 55.515625 
z
" id="DejaVuSans-114"/>
     <path d="M 50.984375 -16.609375 
L 50.984375 -23.578125 
L -0.984375 -23.578125 
L -0.984375 -16.609375 
z
" id="DejaVuSans-95"/>
     <path d="M 40.578125 39.3125 
Q 47.65625 37.796875 51.625 33 
Q 55.609375 28.21875 55.609375 21.1875 
Q 55.609375 10.40625 48.1875 4.484375 
Q 40.765625 -1.421875 27.09375 -1.421875 
Q 22.515625 -1.421875 17.65625 -0.515625 
Q 12.796875 0.390625 7.625 2.203125 
L 7.625 11.71875 
Q 11.71875 9.328125 16.59375 8.109375 
Q 21.484375 6.890625 26.8125 6.890625 
Q 36.078125 6.890625 40.9375 10.546875 
Q 45.796875 14.203125 45.796875 21.1875 
Q 45.796875 27.640625 41.28125 31.265625 
Q 36.765625 34.90625 28.71875 34.90625 
L 20.21875 34.90625 
L 20.21875 43.015625 
L 29.109375 43.015625 
Q 36.375 43.015625 40.234375 45.921875 
Q 44.09375 48.828125 44.09375 54.296875 
Q 44.09375 59.90625 40.109375 62.90625 
Q 36.140625 65.921875 28.71875 65.921875 
Q 24.65625 65.921875 20.015625 65.03125 
Q 15.375 64.15625 9.8125 62.3125 
L 9.8125 71.09375 
Q 15.4375 72.65625 20.34375 73.4375 
Q 25.25 74.21875 29.59375 74.21875 
Q 40.828125 74.21875 47.359375 69.109375 
Q 53.90625 64.015625 53.90625 55.328125 
Q 53.90625 49.265625 50.4375 45.09375 
Q 46.96875 40.921875 40.578125 39.3125 
z
" id="DejaVuSans-51"/>
     <path d="M 10.6875 12.40625 
L 21 12.40625 
L 21 0 
L 10.6875 0 
z
" id="DejaVuSans-46"/>
     <path d="M 48.78125 52.59375 
L 48.78125 44.1875 
Q 44.96875 46.296875 41.140625 47.34375 
Q 37.3125 48.390625 33.40625 48.390625 
Q 24.65625 48.390625 19.8125 42.84375 
Q 14.984375 37.3125 14.984375 27.296875 
Q 14.984375 17.28125 19.8125 11.734375 
Q 24.65625 6.203125 33.40625 6.203125 
Q 37.3125 6.203125 41.140625 7.25 
Q 44.96875 8.296875 48.78125 10.40625 
L 48.78125 2.09375 
Q 45.015625 0.34375 40.984375 -0.53125 
Q 36.96875 -1.421875 32.421875 -1.421875 
Q 20.0625 -1.421875 12.78125 6.34375 
Q 5.515625 14.109375 5.515625 27.296875 
Q 5.515625 40.671875 12.859375 48.328125 
Q 20.21875 56 33.015625 56 
Q 37.15625 56 41.109375 55.140625 
Q 45.0625 54.296875 48.78125 52.59375 
z
" id="DejaVuSans-99"/>
     <path d="M 2.984375 54.6875 
L 12.5 54.6875 
L 29.59375 8.796875 
L 46.6875 54.6875 
L 56.203125 54.6875 
L 35.6875 0 
L 23.484375 0 
z
" id="DejaVuSans-118"/>
    </defs>
    <g transform="translate(408.781875 45.84)scale(0.12 -0.12)">
     <use xlink:href="#DejaVuSans-114"/>
     <use x="41.082031" xlink:href="#DejaVuSans-101"/>
     <use x="102.605469" xlink:href="#DejaVuSans-97"/>
     <use x="163.884766" xlink:href="#DejaVuSans-108"/>
     <use x="191.667969" xlink:href="#DejaVuSans-95"/>
     <use x="241.667969" xlink:href="#DejaVuSans-51"/>
     <use x="305.291016" xlink:href="#DejaVuSans-49"/>
     <use x="368.914062" xlink:href="#DejaVuSans-46"/>
     <use x="400.701172" xlink:href="#DejaVuSans-99"/>
     <use x="455.681641" xlink:href="#DejaVuSans-115"/>
     <use x="507.78125" xlink:href="#DejaVuSans-118"/>
    </g>
   </g>
   <g id="legend_1">
    <g id="patch_87">
     <path d="M 115 74.518125 
L 174.315625 74.518125 
Q 176.315625 74.518125 176.315625 72.518125 
L 176.315625 58.84 
Q 176.315625 56.84 174.315625 56.84 
L 115 56.84 
Q 113 56.84 113 58.84 
L 113 72.518125 
Q 113 74.518125 115 74.518125 
z
" style="fill:#ffffff;opacity:0.8;stroke:#cccccc;stroke-linejoin:miter;"/>
    </g>
    <g id="line2d_17">
     <path d="M 117 64.938438 
L 137 64.938438 
" style="fill:none;stroke:#1f77b4;stroke-linecap:square;stroke-width:1.5;"/>
    </g>
    <g id="line2d_18"/>
    <g id="text_18">
     <!-- value -->
     <g transform="translate(145 68.438438)scale(0.1 -0.1)">
      <use xlink:href="#DejaVuSans-118"/>
      <use x="59.179688" xlink:href="#DejaVuSans-97"/>
      <use x="120.458984" xlink:href="#DejaVuSans-108"/>
      <use x="148.242188" xlink:href="#DejaVuSans-117"/>
      <use x="211.621094" xlink:href="#DejaVuSans-101"/>
     </g>
    </g>
   </g>
  </g>
 </g>
 <defs>
  <clipPath id="p43984f90fd">
   <rect height="332.64" width="669.6" x="108" y="51.84"/>
  </clipPath>
 </defs>
</svg>
