<?xml version="1.0" encoding="utf-8" standalone="no"?>
<!DOCTYPE svg PUBLIC "-//W3C//DTD SVG 1.1//EN"
  "http://www.w3.org/Graphics/SVG/1.1/DTD/svg11.dtd">
<!-- Created with matplotlib (https://matplotlib.org/) -->
<svg height="432pt" version="1.1" viewBox="0 0 864 432" width="864pt" xmlns="http://www.w3.org/2000/svg" xmlns:xlink="http://www.w3.org/1999/xlink">
 <defs>
  <style type="text/css">
*{stroke-linecap:butt;stroke-linejoin:round;}
  </style>
 </defs>
 <g id="figure_1">
  <g id="patch_1">
   <path d="M 0 432 
L 864 432 
L 864 0 
L 0 0 
z
" style="fill:#ffffff;"/>
  </g>
  <g id="axes_1">
   <g id="patch_2">
    <path d="M 108 384.48 
L 777.6 384.48 
L 777.6 51.84 
L 108 51.84 
z
" style="fill:#ffffff;"/>
   </g>
   <g id="patch_3">
    <path clip-path="url(#pd407b20711)" d="M 138.436364 384.48 
L 138.436364 51.84 
L 257.295245 51.84 
L 257.295245 384.48 
z
" style="fill:#0000ff;opacity:0.05;"/>
   </g>
   <g id="patch_4">
    <path clip-path="url(#pd407b20711)" d="M 257.295245 384.48 
L 257.295245 51.84 
L 745.465652 51.84 
L 745.465652 384.48 
z
" style="fill:#ff0000;opacity:0.08;"/>
   </g>
   <g id="patch_5">
    <path clip-path="url(#pd407b20711)" d="M 138.436364 384.48 
L 138.436364 51.84 
L 142.681324 51.84 
L 142.681324 384.48 
z
" style="fill:#008000;opacity:0.04;"/>
   </g>
   <g id="patch_6">
    <path clip-path="url(#pd407b20711)" d="M 146.926284 384.48 
L 146.926284 51.84 
L 151.171244 51.84 
L 151.171244 384.48 
z
" style="fill:#008000;opacity:0.04;"/>
   </g>
   <g id="patch_7">
    <path clip-path="url(#pd407b20711)" d="M 155.416204 384.48 
L 155.416204 51.84 
L 159.661164 51.84 
L 159.661164 384.48 
z
" style="fill:#008000;opacity:0.04;"/>
   </g>
   <g id="patch_8">
    <path clip-path="url(#pd407b20711)" d="M 278.520046 384.48 
L 278.520046 371.1744 
L 282.765006 371.1744 
L 282.765006 384.48 
z
" style="fill:#ff6600;"/>
   </g>
   <g id="patch_9">
    <path clip-path="url(#pd407b20711)" d="M 163.906124 384.48 
L 163.906124 51.84 
L 168.151084 51.84 
L 168.151084 384.48 
z
" style="fill:#008000;opacity:0.04;"/>
   </g>
   <g id="patch_10">
    <path clip-path="url(#pd407b20711)" d="M 172.396044 384.48 
L 172.396044 51.84 
L 176.641004 51.84 
L 176.641004 384.48 
z
" style="fill:#008000;opacity:0.04;"/>
   </g>
   <g id="patch_11">
    <path clip-path="url(#pd407b20711)" d="M 180.885964 384.48 
L 180.885964 51.84 
L 185.130924 51.84 
L 185.130924 384.48 
z
" style="fill:#008000;opacity:0.04;"/>
   </g>
   <g id="patch_12">
    <path clip-path="url(#pd407b20711)" d="M 189.375884 384.48 
L 189.375884 51.84 
L 193.620844 51.84 
L 193.620844 384.48 
z
" style="fill:#008000;opacity:0.04;"/>
   </g>
   <g id="patch_13">
    <path clip-path="url(#pd407b20711)" d="M 308.234766 384.48 
L 308.234766 371.1744 
L 312.479726 371.1744 
L 312.479726 384.48 
z
" style="fill:#ff6600;"/>
   </g>
   <g id="patch_14">
    <path clip-path="url(#pd407b20711)" d="M 197.865804 384.48 
L 197.865804 51.84 
L 202.110765 51.84 
L 202.110765 384.48 
z
" style="fill:#008000;opacity:0.04;"/>
   </g>
   <g id="patch_15">
    <path clip-path="url(#pd407b20711)" d="M 206.355725 384.48 
L 206.355725 51.84 
L 210.600685 51.84 
L 210.600685 384.48 
z
" style="fill:#008000;opacity:0.04;"/>
   </g>
   <g id="patch_16">
    <path clip-path="url(#pd407b20711)" d="M 214.845645 384.48 
L 214.845645 51.84 
L 219.090605 51.84 
L 219.090605 384.48 
z
" style="fill:#008000;opacity:0.04;"/>
   </g>
   <g id="patch_17">
    <path clip-path="url(#pd407b20711)" d="M 223.335565 384.48 
L 223.335565 51.84 
L 227.580525 51.84 
L 227.580525 384.48 
z
" style="fill:#008000;opacity:0.04;"/>
   </g>
   <g id="patch_18">
    <path clip-path="url(#pd407b20711)" d="M 223.335565 384.48 
L 223.335565 371.1744 
L 227.580525 371.1744 
L 227.580525 384.48 
z
" style="fill:#ffe500;"/>
   </g>
   <g id="patch_19">
    <path clip-path="url(#pd407b20711)" d="M 231.825485 384.48 
L 231.825485 51.84 
L 236.070445 51.84 
L 236.070445 384.48 
z
" style="fill:#008000;opacity:0.04;"/>
   </g>
   <g id="patch_20">
    <path clip-path="url(#pd407b20711)" d="M 240.315405 384.48 
L 240.315405 51.84 
L 244.560365 51.84 
L 244.560365 384.48 
z
" style="fill:#008000;opacity:0.04;"/>
   </g>
   <g id="patch_21">
    <path clip-path="url(#pd407b20711)" d="M 248.805325 384.48 
L 248.805325 51.84 
L 253.050285 51.84 
L 253.050285 384.48 
z
" style="fill:#008000;opacity:0.04;"/>
   </g>
   <g id="patch_22">
    <path clip-path="url(#pd407b20711)" d="M 248.805325 384.48 
L 248.805325 371.1744 
L 253.050285 371.1744 
L 253.050285 384.48 
z
" style="fill:#ffe500;"/>
   </g>
   <g id="patch_23">
    <path clip-path="url(#pd407b20711)" d="M 257.295245 384.48 
L 257.295245 51.84 
L 261.540205 51.84 
L 261.540205 384.48 
z
" style="fill:#008000;opacity:0.04;"/>
   </g>
   <g id="patch_24">
    <path clip-path="url(#pd407b20711)" d="M 265.785165 384.48 
L 265.785165 51.84 
L 270.030126 51.84 
L 270.030126 384.48 
z
" style="fill:#008000;opacity:0.04;"/>
   </g>
   <g id="patch_25">
    <path clip-path="url(#pd407b20711)" d="M 274.275086 384.48 
L 274.275086 51.84 
L 278.520046 51.84 
L 278.520046 384.48 
z
" style="fill:#008000;opacity:0.04;"/>
   </g>
   <g id="patch_26">
    <path clip-path="url(#pd407b20711)" d="M 282.765006 384.48 
L 282.765006 51.84 
L 287.009966 51.84 
L 287.009966 384.48 
z
" style="fill:#008000;opacity:0.04;"/>
   </g>
   <g id="patch_27">
    <path clip-path="url(#pd407b20711)" d="M 291.254926 384.48 
L 291.254926 51.84 
L 295.499886 51.84 
L 295.499886 384.48 
z
" style="fill:#008000;opacity:0.04;"/>
   </g>
   <g id="patch_28">
    <path clip-path="url(#pd407b20711)" d="M 299.744846 384.48 
L 299.744846 51.84 
L 303.989806 51.84 
L 303.989806 384.48 
z
" style="fill:#008000;opacity:0.04;"/>
   </g>
   <g id="patch_29">
    <path clip-path="url(#pd407b20711)" d="M 308.234766 384.48 
L 308.234766 51.84 
L 312.479726 51.84 
L 312.479726 384.48 
z
" style="fill:#008000;opacity:0.04;"/>
   </g>
   <g id="patch_30">
    <path clip-path="url(#pd407b20711)" d="M 316.724686 384.48 
L 316.724686 51.84 
L 320.969646 51.84 
L 320.969646 384.48 
z
" style="fill:#008000;opacity:0.04;"/>
   </g>
   <g id="patch_31">
    <path clip-path="url(#pd407b20711)" d="M 325.214606 384.48 
L 325.214606 51.84 
L 329.459566 51.84 
L 329.459566 384.48 
z
" style="fill:#008000;opacity:0.04;"/>
   </g>
   <g id="patch_32">
    <path clip-path="url(#pd407b20711)" d="M 333.704526 384.48 
L 333.704526 51.84 
L 337.949486 51.84 
L 337.949486 384.48 
z
" style="fill:#008000;opacity:0.04;"/>
   </g>
   <g id="patch_33">
    <path clip-path="url(#pd407b20711)" d="M 452.563408 384.48 
L 452.563408 371.1744 
L 456.808368 371.1744 
L 456.808368 384.48 
z
" style="fill:#ff6600;"/>
   </g>
   <g id="patch_34">
    <path clip-path="url(#pd407b20711)" d="M 342.194447 384.48 
L 342.194447 51.84 
L 346.439407 51.84 
L 346.439407 384.48 
z
" style="fill:#008000;opacity:0.04;"/>
   </g>
   <g id="patch_35">
    <path clip-path="url(#pd407b20711)" d="M 350.684367 384.48 
L 350.684367 51.84 
L 354.929327 51.84 
L 354.929327 384.48 
z
" style="fill:#008000;opacity:0.04;"/>
   </g>
   <g id="patch_36">
    <path clip-path="url(#pd407b20711)" d="M 359.174287 384.48 
L 359.174287 51.84 
L 363.419247 51.84 
L 363.419247 384.48 
z
" style="fill:#008000;opacity:0.04;"/>
   </g>
   <g id="patch_37">
    <path clip-path="url(#pd407b20711)" d="M 367.664207 384.48 
L 367.664207 51.84 
L 371.909167 51.84 
L 371.909167 384.48 
z
" style="fill:#008000;opacity:0.04;"/>
   </g>
   <g id="patch_38">
    <path clip-path="url(#pd407b20711)" d="M 376.154127 384.48 
L 376.154127 51.84 
L 380.399087 51.84 
L 380.399087 384.48 
z
" style="fill:#008000;opacity:0.04;"/>
   </g>
   <g id="patch_39">
    <path clip-path="url(#pd407b20711)" d="M 384.644047 384.48 
L 384.644047 51.84 
L 388.889007 51.84 
L 388.889007 384.48 
z
" style="fill:#008000;opacity:0.04;"/>
   </g>
   <g id="patch_40">
    <path clip-path="url(#pd407b20711)" d="M 393.133967 384.48 
L 393.133967 51.84 
L 397.378927 51.84 
L 397.378927 384.48 
z
" style="fill:#008000;opacity:0.04;"/>
   </g>
   <g id="patch_41">
    <path clip-path="url(#pd407b20711)" d="M 401.623887 384.48 
L 401.623887 51.84 
L 405.868847 51.84 
L 405.868847 384.48 
z
" style="fill:#008000;opacity:0.04;"/>
   </g>
   <g id="patch_42">
    <path clip-path="url(#pd407b20711)" d="M 410.113808 384.48 
L 410.113808 51.84 
L 414.358768 51.84 
L 414.358768 384.48 
z
" style="fill:#008000;opacity:0.04;"/>
   </g>
   <g id="patch_43">
    <path clip-path="url(#pd407b20711)" d="M 418.603728 384.48 
L 418.603728 51.84 
L 422.848688 51.84 
L 422.848688 384.48 
z
" style="fill:#008000;opacity:0.04;"/>
   </g>
   <g id="patch_44">
    <path clip-path="url(#pd407b20711)" d="M 427.093648 384.48 
L 427.093648 51.84 
L 431.338608 51.84 
L 431.338608 384.48 
z
" style="fill:#008000;opacity:0.04;"/>
   </g>
   <g id="patch_45">
    <path clip-path="url(#pd407b20711)" d="M 435.583568 384.48 
L 435.583568 51.84 
L 439.828528 51.84 
L 439.828528 384.48 
z
" style="fill:#008000;opacity:0.04;"/>
   </g>
   <g id="patch_46">
    <path clip-path="url(#pd407b20711)" d="M 444.073488 384.48 
L 444.073488 51.84 
L 448.318448 51.84 
L 448.318448 384.48 
z
" style="fill:#008000;opacity:0.04;"/>
   </g>
   <g id="patch_47">
    <path clip-path="url(#pd407b20711)" d="M 452.563408 384.48 
L 452.563408 51.84 
L 456.808368 51.84 
L 456.808368 384.48 
z
" style="fill:#008000;opacity:0.04;"/>
   </g>
   <g id="patch_48">
    <path clip-path="url(#pd407b20711)" d="M 461.053328 384.48 
L 461.053328 51.84 
L 465.298288 51.84 
L 465.298288 384.48 
z
" style="fill:#008000;opacity:0.04;"/>
   </g>
   <g id="patch_49">
    <path clip-path="url(#pd407b20711)" d="M 469.543248 384.48 
L 469.543248 51.84 
L 473.788208 51.84 
L 473.788208 384.48 
z
" style="fill:#008000;opacity:0.04;"/>
   </g>
   <g id="patch_50">
    <path clip-path="url(#pd407b20711)" d="M 478.033169 384.48 
L 478.033169 51.84 
L 482.278129 51.84 
L 482.278129 384.48 
z
" style="fill:#008000;opacity:0.04;"/>
   </g>
   <g id="patch_51">
    <path clip-path="url(#pd407b20711)" d="M 486.523089 384.48 
L 486.523089 51.84 
L 490.768049 51.84 
L 490.768049 384.48 
z
" style="fill:#008000;opacity:0.04;"/>
   </g>
   <g id="patch_52">
    <path clip-path="url(#pd407b20711)" d="M 495.013009 384.48 
L 495.013009 51.84 
L 499.257969 51.84 
L 499.257969 384.48 
z
" style="fill:#008000;opacity:0.04;"/>
   </g>
   <g id="patch_53">
    <path clip-path="url(#pd407b20711)" d="M 503.502929 384.48 
L 503.502929 51.84 
L 507.747889 51.84 
L 507.747889 384.48 
z
" style="fill:#008000;opacity:0.04;"/>
   </g>
   <g id="patch_54">
    <path clip-path="url(#pd407b20711)" d="M 511.992849 384.48 
L 511.992849 51.84 
L 516.237809 51.84 
L 516.237809 384.48 
z
" style="fill:#008000;opacity:0.04;"/>
   </g>
   <g id="patch_55">
    <path clip-path="url(#pd407b20711)" d="M 635.096691 384.48 
L 635.096691 371.1744 
L 639.341651 371.1744 
L 639.341651 384.48 
z
" style="fill:#ff6600;"/>
   </g>
   <g id="patch_56">
    <path clip-path="url(#pd407b20711)" d="M 520.482769 384.48 
L 520.482769 51.84 
L 524.727729 51.84 
L 524.727729 384.48 
z
" style="fill:#008000;opacity:0.04;"/>
   </g>
   <g id="patch_57">
    <path clip-path="url(#pd407b20711)" d="M 528.972689 384.48 
L 528.972689 51.84 
L 533.217649 51.84 
L 533.217649 384.48 
z
" style="fill:#008000;opacity:0.04;"/>
   </g>
   <g id="patch_58">
    <path clip-path="url(#pd407b20711)" d="M 652.076531 384.48 
L 652.076531 371.1744 
L 656.321491 371.1744 
L 656.321491 384.48 
z
" style="fill:#ff6600;"/>
   </g>
   <g id="patch_59">
    <path clip-path="url(#pd407b20711)" d="M 537.462609 384.48 
L 537.462609 51.84 
L 541.707569 51.84 
L 541.707569 384.48 
z
" style="fill:#008000;opacity:0.04;"/>
   </g>
   <g id="patch_60">
    <path clip-path="url(#pd407b20711)" d="M 545.952529 384.48 
L 545.952529 51.84 
L 550.19749 51.84 
L 550.19749 384.48 
z
" style="fill:#008000;opacity:0.04;"/>
   </g>
   <g id="patch_61">
    <path clip-path="url(#pd407b20711)" d="M 554.44245 384.48 
L 554.44245 51.84 
L 558.68741 51.84 
L 558.68741 384.48 
z
" style="fill:#008000;opacity:0.04;"/>
   </g>
   <g id="patch_62">
    <path clip-path="url(#pd407b20711)" d="M 677.546291 384.48 
L 677.546291 371.1744 
L 681.791251 371.1744 
L 681.791251 384.48 
z
" style="fill:#ff6600;"/>
   </g>
   <g id="patch_63">
    <path clip-path="url(#pd407b20711)" d="M 562.93237 384.48 
L 562.93237 51.84 
L 567.17733 51.84 
L 567.17733 384.48 
z
" style="fill:#008000;opacity:0.04;"/>
   </g>
   <g id="patch_64">
    <path clip-path="url(#pd407b20711)" d="M 686.036211 384.48 
L 686.036211 371.1744 
L 690.281172 371.1744 
L 690.281172 384.48 
z
" style="fill:#ff6600;"/>
   </g>
   <g id="patch_65">
    <path clip-path="url(#pd407b20711)" d="M 571.42229 384.48 
L 571.42229 51.84 
L 575.66725 51.84 
L 575.66725 384.48 
z
" style="fill:#008000;opacity:0.04;"/>
   </g>
   <g id="patch_66">
    <path clip-path="url(#pd407b20711)" d="M 579.91221 384.48 
L 579.91221 51.84 
L 584.15717 51.84 
L 584.15717 384.48 
z
" style="fill:#008000;opacity:0.04;"/>
   </g>
   <g id="patch_67">
    <path clip-path="url(#pd407b20711)" d="M 588.40213 384.48 
L 588.40213 51.84 
L 592.64709 51.84 
L 592.64709 384.48 
z
" style="fill:#008000;opacity:0.04;"/>
   </g>
   <g id="patch_68">
    <path clip-path="url(#pd407b20711)" d="M 596.89205 384.48 
L 596.89205 51.84 
L 601.13701 51.84 
L 601.13701 384.48 
z
" style="fill:#008000;opacity:0.04;"/>
   </g>
   <g id="patch_69">
    <path clip-path="url(#pd407b20711)" d="M 605.38197 384.48 
L 605.38197 51.84 
L 609.62693 51.84 
L 609.62693 384.48 
z
" style="fill:#008000;opacity:0.04;"/>
   </g>
   <g id="patch_70">
    <path clip-path="url(#pd407b20711)" d="M 728.485812 384.48 
L 728.485812 371.1744 
L 732.730772 371.1744 
L 732.730772 384.48 
z
" style="fill:#ff6600;"/>
   </g>
   <g id="patch_71">
    <path clip-path="url(#pd407b20711)" d="M 613.87189 384.48 
L 613.87189 51.84 
L 618.116851 51.84 
L 618.116851 384.48 
z
" style="fill:#008000;opacity:0.04;"/>
   </g>
   <g id="patch_72">
    <path clip-path="url(#pd407b20711)" d="M 732.730772 384.48 
L 732.730772 371.1744 
L 736.975732 371.1744 
L 736.975732 384.48 
z
" style="fill:#ff6600;"/>
   </g>
   <g id="patch_73">
    <path clip-path="url(#pd407b20711)" d="M 736.975732 384.48 
L 736.975732 371.1744 
L 741.220692 371.1744 
L 741.220692 384.48 
z
" style="fill:#ff6600;"/>
   </g>
   <g id="patch_74">
    <path clip-path="url(#pd407b20711)" d="M 622.361811 384.48 
L 622.361811 51.84 
L 626.606771 51.84 
L 626.606771 384.48 
z
" style="fill:#008000;opacity:0.04;"/>
   </g>
   <g id="patch_75">
    <path clip-path="url(#pd407b20711)" d="M 741.220692 384.48 
L 741.220692 371.1744 
L 745.465652 371.1744 
L 745.465652 384.48 
z
" style="fill:#ff6600;"/>
   </g>
   <g id="patch_76">
    <path clip-path="url(#pd407b20711)" d="M 630.851731 384.48 
L 630.851731 51.84 
L 635.096691 51.84 
L 635.096691 384.48 
z
" style="fill:#008000;opacity:0.04;"/>
   </g>
   <g id="patch_77">
    <path clip-path="url(#pd407b20711)" d="M 639.341651 384.48 
L 639.341651 51.84 
L 643.586611 51.84 
L 643.586611 384.48 
z
" style="fill:#008000;opacity:0.04;"/>
   </g>
   <g id="patch_78">
    <path clip-path="url(#pd407b20711)" d="M 647.831571 384.48 
L 647.831571 51.84 
L 652.076531 51.84 
L 652.076531 384.48 
z
" style="fill:#008000;opacity:0.04;"/>
   </g>
   <g id="patch_79">
    <path clip-path="url(#pd407b20711)" d="M 656.321491 384.48 
L 656.321491 51.84 
L 660.566451 51.84 
L 660.566451 384.48 
z
" style="fill:#008000;opacity:0.04;"/>
   </g>
   <g id="patch_80">
    <path clip-path="url(#pd407b20711)" d="M 664.811411 384.48 
L 664.811411 51.84 
L 669.056371 51.84 
L 669.056371 384.48 
z
" style="fill:#008000;opacity:0.04;"/>
   </g>
   <g id="patch_81">
    <path clip-path="url(#pd407b20711)" d="M 673.301331 384.48 
L 673.301331 51.84 
L 677.546291 51.84 
L 677.546291 384.48 
z
" style="fill:#008000;opacity:0.04;"/>
   </g>
   <g id="patch_82">
    <path clip-path="url(#pd407b20711)" d="M 681.791251 384.48 
L 681.791251 51.84 
L 686.036211 51.84 
L 686.036211 384.48 
z
" style="fill:#008000;opacity:0.04;"/>
   </g>
   <g id="patch_83">
    <path clip-path="url(#pd407b20711)" d="M 690.281172 384.48 
L 690.281172 51.84 
L 694.526132 51.84 
L 694.526132 384.48 
z
" style="fill:#008000;opacity:0.04;"/>
   </g>
   <g id="patch_84">
    <path clip-path="url(#pd407b20711)" d="M 698.771092 384.48 
L 698.771092 51.84 
L 703.016052 51.84 
L 703.016052 384.48 
z
" style="fill:#008000;opacity:0.04;"/>
   </g>
   <g id="patch_85">
    <path clip-path="url(#pd407b20711)" d="M 707.261012 384.48 
L 707.261012 51.84 
L 711.505972 51.84 
L 711.505972 384.48 
z
" style="fill:#008000;opacity:0.04;"/>
   </g>
   <g id="patch_86">
    <path clip-path="url(#pd407b20711)" d="M 715.750932 384.48 
L 715.750932 51.84 
L 719.995892 51.84 
L 719.995892 384.48 
z
" style="fill:#008000;opacity:0.04;"/>
   </g>
   <g id="patch_87">
    <path clip-path="url(#pd407b20711)" d="M 724.240852 384.48 
L 724.240852 51.84 
L 728.485812 51.84 
L 728.485812 384.48 
z
" style="fill:#008000;opacity:0.04;"/>
   </g>
   <g id="patch_88">
    <path clip-path="url(#pd407b20711)" d="M 728.485812 371.1744 
L 728.485812 51.84 
L 732.730772 51.84 
L 732.730772 371.1744 
z
" style="fill:#008000;opacity:0.5;"/>
   </g>
   <g id="patch_89">
    <path clip-path="url(#pd407b20711)" d="M 732.730772 384.48 
L 732.730772 51.84 
L 736.975732 51.84 
L 736.975732 384.48 
z
" style="fill:#008000;opacity:0.04;"/>
   </g>
   <g id="patch_90">
    <path clip-path="url(#pd407b20711)" d="M 732.730772 371.1744 
L 732.730772 51.84 
L 736.975732 51.84 
L 736.975732 371.1744 
z
" style="fill:#008000;opacity:0.5;"/>
   </g>
   <g id="patch_91">
    <path clip-path="url(#pd407b20711)" d="M 736.975732 371.1744 
L 736.975732 51.84 
L 741.220692 51.84 
L 741.220692 371.1744 
z
" style="fill:#008000;opacity:0.5;"/>
   </g>
   <g id="patch_92">
    <path clip-path="url(#pd407b20711)" d="M 741.220692 384.48 
L 741.220692 51.84 
L 745.465652 51.84 
L 745.465652 384.48 
z
" style="fill:#008000;opacity:0.04;"/>
   </g>
   <g id="patch_93">
    <path clip-path="url(#pd407b20711)" d="M 741.220692 371.1744 
L 741.220692 51.84 
L 745.465652 51.84 
L 745.465652 371.1744 
z
" style="fill:#008000;opacity:0.5;"/>
   </g>
   <g id="matplotlib.axis_1">
    <g id="xtick_1">
     <g id="line2d_1">
      <defs>
       <path d="M 0 0 
L 0 3.5 
" id="mfe14f231d6" style="stroke:#000000;stroke-width:0.8;"/>
      </defs>
      <g>
       <use style="stroke:#000000;stroke-width:0.8;" x="138.436364" xlink:href="#mfe14f231d6" y="384.48"/>
      </g>
     </g>
     <g id="text_1">
      <!-- 0 -->
      <defs>
       <path d="M 31.78125 66.40625 
Q 24.171875 66.40625 20.328125 58.90625 
Q 16.5 51.421875 16.5 36.375 
Q 16.5 21.390625 20.328125 13.890625 
Q 24.171875 6.390625 31.78125 6.390625 
Q 39.453125 6.390625 43.28125 13.890625 
Q 47.125 21.390625 47.125 36.375 
Q 47.125 51.421875 43.28125 58.90625 
Q 39.453125 66.40625 31.78125 66.40625 
z
M 31.78125 74.21875 
Q 44.046875 74.21875 50.515625 64.515625 
Q 56.984375 54.828125 56.984375 36.375 
Q 56.984375 17.96875 50.515625 8.265625 
Q 44.046875 -1.421875 31.78125 -1.421875 
Q 19.53125 -1.421875 13.0625 8.265625 
Q 6.59375 17.96875 6.59375 36.375 
Q 6.59375 54.828125 13.0625 64.515625 
Q 19.53125 74.21875 31.78125 74.21875 
z
" id="DejaVuSans-48"/>
      </defs>
      <g transform="translate(135.255114 399.078438)scale(0.1 -0.1)">
       <use xlink:href="#DejaVuSans-48"/>
      </g>
     </g>
    </g>
    <g id="xtick_2">
     <g id="line2d_2">
      <g>
       <use style="stroke:#000000;stroke-width:0.8;" x="223.335565" xlink:href="#mfe14f231d6" y="384.48"/>
      </g>
     </g>
     <g id="text_2">
      <!-- 200 -->
      <defs>
       <path d="M 19.1875 8.296875 
L 53.609375 8.296875 
L 53.609375 0 
L 7.328125 0 
L 7.328125 8.296875 
Q 12.9375 14.109375 22.625 23.890625 
Q 32.328125 33.6875 34.8125 36.53125 
Q 39.546875 41.84375 41.421875 45.53125 
Q 43.3125 49.21875 43.3125 52.78125 
Q 43.3125 58.59375 39.234375 62.25 
Q 35.15625 65.921875 28.609375 65.921875 
Q 23.96875 65.921875 18.8125 64.3125 
Q 13.671875 62.703125 7.8125 59.421875 
L 7.8125 69.390625 
Q 13.765625 71.78125 18.9375 73 
Q 24.125 74.21875 28.421875 74.21875 
Q 39.75 74.21875 46.484375 68.546875 
Q 53.21875 62.890625 53.21875 53.421875 
Q 53.21875 48.921875 51.53125 44.890625 
Q 49.859375 40.875 45.40625 35.40625 
Q 44.1875 33.984375 37.640625 27.21875 
Q 31.109375 20.453125 19.1875 8.296875 
z
" id="DejaVuSans-50"/>
      </defs>
      <g transform="translate(213.791815 399.078438)scale(0.1 -0.1)">
       <use xlink:href="#DejaVuSans-50"/>
       <use x="63.623047" xlink:href="#DejaVuSans-48"/>
       <use x="127.246094" xlink:href="#DejaVuSans-48"/>
      </g>
     </g>
    </g>
    <g id="xtick_3">
     <g id="line2d_3">
      <g>
       <use style="stroke:#000000;stroke-width:0.8;" x="308.234766" xlink:href="#mfe14f231d6" y="384.48"/>
      </g>
     </g>
     <g id="text_3">
      <!-- 400 -->
      <defs>
       <path d="M 37.796875 64.3125 
L 12.890625 25.390625 
L 37.796875 25.390625 
z
M 35.203125 72.90625 
L 47.609375 72.90625 
L 47.609375 25.390625 
L 58.015625 25.390625 
L 58.015625 17.1875 
L 47.609375 17.1875 
L 47.609375 0 
L 37.796875 0 
L 37.796875 17.1875 
L 4.890625 17.1875 
L 4.890625 26.703125 
z
" id="DejaVuSans-52"/>
      </defs>
      <g transform="translate(298.691016 399.078438)scale(0.1 -0.1)">
       <use xlink:href="#DejaVuSans-52"/>
       <use x="63.623047" xlink:href="#DejaVuSans-48"/>
       <use x="127.246094" xlink:href="#DejaVuSans-48"/>
      </g>
     </g>
    </g>
    <g id="xtick_4">
     <g id="line2d_4">
      <g>
       <use style="stroke:#000000;stroke-width:0.8;" x="393.133967" xlink:href="#mfe14f231d6" y="384.48"/>
      </g>
     </g>
     <g id="text_4">
      <!-- 600 -->
      <defs>
       <path d="M 33.015625 40.375 
Q 26.375 40.375 22.484375 35.828125 
Q 18.609375 31.296875 18.609375 23.390625 
Q 18.609375 15.53125 22.484375 10.953125 
Q 26.375 6.390625 33.015625 6.390625 
Q 39.65625 6.390625 43.53125 10.953125 
Q 47.40625 15.53125 47.40625 23.390625 
Q 47.40625 31.296875 43.53125 35.828125 
Q 39.65625 40.375 33.015625 40.375 
z
M 52.59375 71.296875 
L 52.59375 62.3125 
Q 48.875 64.0625 45.09375 64.984375 
Q 41.3125 65.921875 37.59375 65.921875 
Q 27.828125 65.921875 22.671875 59.328125 
Q 17.53125 52.734375 16.796875 39.40625 
Q 19.671875 43.65625 24.015625 45.921875 
Q 28.375 48.1875 33.59375 48.1875 
Q 44.578125 48.1875 50.953125 41.515625 
Q 57.328125 34.859375 57.328125 23.390625 
Q 57.328125 12.15625 50.6875 5.359375 
Q 44.046875 -1.421875 33.015625 -1.421875 
Q 20.359375 -1.421875 13.671875 8.265625 
Q 6.984375 17.96875 6.984375 36.375 
Q 6.984375 53.65625 15.1875 63.9375 
Q 23.390625 74.21875 37.203125 74.21875 
Q 40.921875 74.21875 44.703125 73.484375 
Q 48.484375 72.75 52.59375 71.296875 
z
" id="DejaVuSans-54"/>
      </defs>
      <g transform="translate(383.590217 399.078438)scale(0.1 -0.1)">
       <use xlink:href="#DejaVuSans-54"/>
       <use x="63.623047" xlink:href="#DejaVuSans-48"/>
       <use x="127.246094" xlink:href="#DejaVuSans-48"/>
      </g>
     </g>
    </g>
    <g id="xtick_5">
     <g id="line2d_5">
      <g>
       <use style="stroke:#000000;stroke-width:0.8;" x="478.033169" xlink:href="#mfe14f231d6" y="384.48"/>
      </g>
     </g>
     <g id="text_5">
      <!-- 800 -->
      <defs>
       <path d="M 31.78125 34.625 
Q 24.75 34.625 20.71875 30.859375 
Q 16.703125 27.09375 16.703125 20.515625 
Q 16.703125 13.921875 20.71875 10.15625 
Q 24.75 6.390625 31.78125 6.390625 
Q 38.8125 6.390625 42.859375 10.171875 
Q 46.921875 13.96875 46.921875 20.515625 
Q 46.921875 27.09375 42.890625 30.859375 
Q 38.875 34.625 31.78125 34.625 
z
M 21.921875 38.8125 
Q 15.578125 40.375 12.03125 44.71875 
Q 8.5 49.078125 8.5 55.328125 
Q 8.5 64.0625 14.71875 69.140625 
Q 20.953125 74.21875 31.78125 74.21875 
Q 42.671875 74.21875 48.875 69.140625 
Q 55.078125 64.0625 55.078125 55.328125 
Q 55.078125 49.078125 51.53125 44.71875 
Q 48 40.375 41.703125 38.8125 
Q 48.828125 37.15625 52.796875 32.3125 
Q 56.78125 27.484375 56.78125 20.515625 
Q 56.78125 9.90625 50.3125 4.234375 
Q 43.84375 -1.421875 31.78125 -1.421875 
Q 19.734375 -1.421875 13.25 4.234375 
Q 6.78125 9.90625 6.78125 20.515625 
Q 6.78125 27.484375 10.78125 32.3125 
Q 14.796875 37.15625 21.921875 38.8125 
z
M 18.3125 54.390625 
Q 18.3125 48.734375 21.84375 45.5625 
Q 25.390625 42.390625 31.78125 42.390625 
Q 38.140625 42.390625 41.71875 45.5625 
Q 45.3125 48.734375 45.3125 54.390625 
Q 45.3125 60.0625 41.71875 63.234375 
Q 38.140625 66.40625 31.78125 66.40625 
Q 25.390625 66.40625 21.84375 63.234375 
Q 18.3125 60.0625 18.3125 54.390625 
z
" id="DejaVuSans-56"/>
      </defs>
      <g transform="translate(468.489419 399.078438)scale(0.1 -0.1)">
       <use xlink:href="#DejaVuSans-56"/>
       <use x="63.623047" xlink:href="#DejaVuSans-48"/>
       <use x="127.246094" xlink:href="#DejaVuSans-48"/>
      </g>
     </g>
    </g>
    <g id="xtick_6">
     <g id="line2d_6">
      <g>
       <use style="stroke:#000000;stroke-width:0.8;" x="562.93237" xlink:href="#mfe14f231d6" y="384.48"/>
      </g>
     </g>
     <g id="text_6">
      <!-- 1000 -->
      <defs>
       <path d="M 12.40625 8.296875 
L 28.515625 8.296875 
L 28.515625 63.921875 
L 10.984375 60.40625 
L 10.984375 69.390625 
L 28.421875 72.90625 
L 38.28125 72.90625 
L 38.28125 8.296875 
L 54.390625 8.296875 
L 54.390625 0 
L 12.40625 0 
z
" id="DejaVuSans-49"/>
      </defs>
      <g transform="translate(550.20737 399.078438)scale(0.1 -0.1)">
       <use xlink:href="#DejaVuSans-49"/>
       <use x="63.623047" xlink:href="#DejaVuSans-48"/>
       <use x="127.246094" xlink:href="#DejaVuSans-48"/>
       <use x="190.869141" xlink:href="#DejaVuSans-48"/>
      </g>
     </g>
    </g>
    <g id="xtick_7">
     <g id="line2d_7">
      <g>
       <use style="stroke:#000000;stroke-width:0.8;" x="647.831571" xlink:href="#mfe14f231d6" y="384.48"/>
      </g>
     </g>
     <g id="text_7">
      <!-- 1200 -->
      <g transform="translate(635.106571 399.078438)scale(0.1 -0.1)">
       <use xlink:href="#DejaVuSans-49"/>
       <use x="63.623047" xlink:href="#DejaVuSans-50"/>
       <use x="127.246094" xlink:href="#DejaVuSans-48"/>
       <use x="190.869141" xlink:href="#DejaVuSans-48"/>
      </g>
     </g>
    </g>
    <g id="xtick_8">
     <g id="line2d_8">
      <g>
       <use style="stroke:#000000;stroke-width:0.8;" x="732.730772" xlink:href="#mfe14f231d6" y="384.48"/>
      </g>
     </g>
     <g id="text_8">
      <!-- 1400 -->
      <g transform="translate(720.005772 399.078438)scale(0.1 -0.1)">
       <use xlink:href="#DejaVuSans-49"/>
       <use x="63.623047" xlink:href="#DejaVuSans-52"/>
       <use x="127.246094" xlink:href="#DejaVuSans-48"/>
       <use x="190.869141" xlink:href="#DejaVuSans-48"/>
      </g>
     </g>
    </g>
    <g id="text_9">
     <!-- Timestamp -->
     <defs>
      <path d="M -0.296875 72.90625 
L 61.375 72.90625 
L 61.375 64.59375 
L 35.5 64.59375 
L 35.5 0 
L 25.59375 0 
L 25.59375 64.59375 
L -0.296875 64.59375 
z
" id="DejaVuSans-84"/>
      <path d="M 9.421875 54.6875 
L 18.40625 54.6875 
L 18.40625 0 
L 9.421875 0 
z
M 9.421875 75.984375 
L 18.40625 75.984375 
L 18.40625 64.59375 
L 9.421875 64.59375 
z
" id="DejaVuSans-105"/>
      <path d="M 52 44.1875 
Q 55.375 50.25 60.0625 53.125 
Q 64.75 56 71.09375 56 
Q 79.640625 56 84.28125 50.015625 
Q 88.921875 44.046875 88.921875 33.015625 
L 88.921875 0 
L 79.890625 0 
L 79.890625 32.71875 
Q 79.890625 40.578125 77.09375 44.375 
Q 74.3125 48.1875 68.609375 48.1875 
Q 61.625 48.1875 57.5625 43.546875 
Q 53.515625 38.921875 53.515625 30.90625 
L 53.515625 0 
L 44.484375 0 
L 44.484375 32.71875 
Q 44.484375 40.625 41.703125 44.40625 
Q 38.921875 48.1875 33.109375 48.1875 
Q 26.21875 48.1875 22.15625 43.53125 
Q 18.109375 38.875 18.109375 30.90625 
L 18.109375 0 
L 9.078125 0 
L 9.078125 54.6875 
L 18.109375 54.6875 
L 18.109375 46.1875 
Q 21.1875 51.21875 25.484375 53.609375 
Q 29.78125 56 35.6875 56 
Q 41.65625 56 45.828125 52.96875 
Q 50 49.953125 52 44.1875 
z
" id="DejaVuSans-109"/>
      <path d="M 56.203125 29.59375 
L 56.203125 25.203125 
L 14.890625 25.203125 
Q 15.484375 15.921875 20.484375 11.0625 
Q 25.484375 6.203125 34.421875 6.203125 
Q 39.59375 6.203125 44.453125 7.46875 
Q 49.3125 8.734375 54.109375 11.28125 
L 54.109375 2.78125 
Q 49.265625 0.734375 44.1875 -0.34375 
Q 39.109375 -1.421875 33.890625 -1.421875 
Q 20.796875 -1.421875 13.15625 6.1875 
Q 5.515625 13.8125 5.515625 26.8125 
Q 5.515625 40.234375 12.765625 48.109375 
Q 20.015625 56 32.328125 56 
Q 43.359375 56 49.78125 48.890625 
Q 56.203125 41.796875 56.203125 29.59375 
z
M 47.21875 32.234375 
Q 47.125 39.59375 43.09375 43.984375 
Q 39.0625 48.390625 32.421875 48.390625 
Q 24.90625 48.390625 20.390625 44.140625 
Q 15.875 39.890625 15.1875 32.171875 
z
" id="DejaVuSans-101"/>
      <path d="M 44.28125 53.078125 
L 44.28125 44.578125 
Q 40.484375 46.53125 36.375 47.5 
Q 32.28125 48.484375 27.875 48.484375 
Q 21.1875 48.484375 17.84375 46.4375 
Q 14.5 44.390625 14.5 40.28125 
Q 14.5 37.15625 16.890625 35.375 
Q 19.28125 33.59375 26.515625 31.984375 
L 29.59375 31.296875 
Q 39.15625 29.25 43.1875 25.515625 
Q 47.21875 21.78125 47.21875 15.09375 
Q 47.21875 7.46875 41.1875 3.015625 
Q 35.15625 -1.421875 24.609375 -1.421875 
Q 20.21875 -1.421875 15.453125 -0.5625 
Q 10.6875 0.296875 5.421875 2 
L 5.421875 11.28125 
Q 10.40625 8.6875 15.234375 7.390625 
Q 20.0625 6.109375 24.8125 6.109375 
Q 31.15625 6.109375 34.5625 8.28125 
Q 37.984375 10.453125 37.984375 14.40625 
Q 37.984375 18.0625 35.515625 20.015625 
Q 33.0625 21.96875 24.703125 23.78125 
L 21.578125 24.515625 
Q 13.234375 26.265625 9.515625 29.90625 
Q 5.8125 33.546875 5.8125 39.890625 
Q 5.8125 47.609375 11.28125 51.796875 
Q 16.75 56 26.8125 56 
Q 31.78125 56 36.171875 55.265625 
Q 40.578125 54.546875 44.28125 53.078125 
z
" id="DejaVuSans-115"/>
      <path d="M 18.3125 70.21875 
L 18.3125 54.6875 
L 36.8125 54.6875 
L 36.8125 47.703125 
L 18.3125 47.703125 
L 18.3125 18.015625 
Q 18.3125 11.328125 20.140625 9.421875 
Q 21.96875 7.515625 27.59375 7.515625 
L 36.8125 7.515625 
L 36.8125 0 
L 27.59375 0 
Q 17.1875 0 13.234375 3.875 
Q 9.28125 7.765625 9.28125 18.015625 
L 9.28125 47.703125 
L 2.6875 47.703125 
L 2.6875 54.6875 
L 9.28125 54.6875 
L 9.28125 70.21875 
z
" id="DejaVuSans-116"/>
      <path d="M 34.28125 27.484375 
Q 23.390625 27.484375 19.1875 25 
Q 14.984375 22.515625 14.984375 16.5 
Q 14.984375 11.71875 18.140625 8.90625 
Q 21.296875 6.109375 26.703125 6.109375 
Q 34.1875 6.109375 38.703125 11.40625 
Q 43.21875 16.703125 43.21875 25.484375 
L 43.21875 27.484375 
z
M 52.203125 31.203125 
L 52.203125 0 
L 43.21875 0 
L 43.21875 8.296875 
Q 40.140625 3.328125 35.546875 0.953125 
Q 30.953125 -1.421875 24.3125 -1.421875 
Q 15.921875 -1.421875 10.953125 3.296875 
Q 6 8.015625 6 15.921875 
Q 6 25.140625 12.171875 29.828125 
Q 18.359375 34.515625 30.609375 34.515625 
L 43.21875 34.515625 
L 43.21875 35.40625 
Q 43.21875 41.609375 39.140625 45 
Q 35.0625 48.390625 27.6875 48.390625 
Q 23 48.390625 18.546875 47.265625 
Q 14.109375 46.140625 10.015625 43.890625 
L 10.015625 52.203125 
Q 14.9375 54.109375 19.578125 55.046875 
Q 24.21875 56 28.609375 56 
Q 40.484375 56 46.34375 49.84375 
Q 52.203125 43.703125 52.203125 31.203125 
z
" id="DejaVuSans-97"/>
      <path d="M 18.109375 8.203125 
L 18.109375 -20.796875 
L 9.078125 -20.796875 
L 9.078125 54.6875 
L 18.109375 54.6875 
L 18.109375 46.390625 
Q 20.953125 51.265625 25.265625 53.625 
Q 29.59375 56 35.59375 56 
Q 45.5625 56 51.78125 48.09375 
Q 58.015625 40.1875 58.015625 27.296875 
Q 58.015625 14.40625 51.78125 6.484375 
Q 45.5625 -1.421875 35.59375 -1.421875 
Q 29.59375 -1.421875 25.265625 0.953125 
Q 20.953125 3.328125 18.109375 8.203125 
z
M 48.6875 27.296875 
Q 48.6875 37.203125 44.609375 42.84375 
Q 40.53125 48.484375 33.40625 48.484375 
Q 26.265625 48.484375 22.1875 42.84375 
Q 18.109375 37.203125 18.109375 27.296875 
Q 18.109375 17.390625 22.1875 11.75 
Q 26.265625 6.109375 33.40625 6.109375 
Q 40.53125 6.109375 44.609375 11.75 
Q 48.6875 17.390625 48.6875 27.296875 
z
" id="DejaVuSans-112"/>
     </defs>
     <g transform="translate(414.739062 412.756563)scale(0.1 -0.1)">
      <use xlink:href="#DejaVuSans-84"/>
      <use x="61.037109" xlink:href="#DejaVuSans-105"/>
      <use x="88.820312" xlink:href="#DejaVuSans-109"/>
      <use x="186.232422" xlink:href="#DejaVuSans-101"/>
      <use x="247.755859" xlink:href="#DejaVuSans-115"/>
      <use x="299.855469" xlink:href="#DejaVuSans-116"/>
      <use x="339.064453" xlink:href="#DejaVuSans-97"/>
      <use x="400.34375" xlink:href="#DejaVuSans-109"/>
      <use x="497.755859" xlink:href="#DejaVuSans-112"/>
     </g>
    </g>
   </g>
   <g id="matplotlib.axis_2">
    <g id="ytick_1">
     <g id="line2d_9">
      <defs>
       <path d="M 0 0 
L -3.5 0 
" id="m765b1a4ca6" style="stroke:#000000;stroke-width:0.8;"/>
      </defs>
      <g>
       <use style="stroke:#000000;stroke-width:0.8;" x="108" xlink:href="#m765b1a4ca6" y="369.36"/>
      </g>
     </g>
     <g id="text_10">
      <!-- 0 -->
      <g transform="translate(94.6375 373.159219)scale(0.1 -0.1)">
       <use xlink:href="#DejaVuSans-48"/>
      </g>
     </g>
    </g>
    <g id="ytick_2">
     <g id="line2d_10">
      <g>
       <use style="stroke:#000000;stroke-width:0.8;" x="108" xlink:href="#m765b1a4ca6" y="301.404944"/>
      </g>
     </g>
     <g id="text_11">
      <!-- 100 -->
      <g transform="translate(81.9125 305.204163)scale(0.1 -0.1)">
       <use xlink:href="#DejaVuSans-49"/>
       <use x="63.623047" xlink:href="#DejaVuSans-48"/>
       <use x="127.246094" xlink:href="#DejaVuSans-48"/>
      </g>
     </g>
    </g>
    <g id="ytick_3">
     <g id="line2d_11">
      <g>
       <use style="stroke:#000000;stroke-width:0.8;" x="108" xlink:href="#m765b1a4ca6" y="233.449888"/>
      </g>
     </g>
     <g id="text_12">
      <!-- 200 -->
      <g transform="translate(81.9125 237.249106)scale(0.1 -0.1)">
       <use xlink:href="#DejaVuSans-50"/>
       <use x="63.623047" xlink:href="#DejaVuSans-48"/>
       <use x="127.246094" xlink:href="#DejaVuSans-48"/>
      </g>
     </g>
    </g>
    <g id="ytick_4">
     <g id="line2d_12">
      <g>
       <use style="stroke:#000000;stroke-width:0.8;" x="108" xlink:href="#m765b1a4ca6" y="165.494831"/>
      </g>
     </g>
     <g id="text_13">
      <!-- 300 -->
      <defs>
       <path d="M 40.578125 39.3125 
Q 47.65625 37.796875 51.625 33 
Q 55.609375 28.21875 55.609375 21.1875 
Q 55.609375 10.40625 48.1875 4.484375 
Q 40.765625 -1.421875 27.09375 -1.421875 
Q 22.515625 -1.421875 17.65625 -0.515625 
Q 12.796875 0.390625 7.625 2.203125 
L 7.625 11.71875 
Q 11.71875 9.328125 16.59375 8.109375 
Q 21.484375 6.890625 26.8125 6.890625 
Q 36.078125 6.890625 40.9375 10.546875 
Q 45.796875 14.203125 45.796875 21.1875 
Q 45.796875 27.640625 41.28125 31.265625 
Q 36.765625 34.90625 28.71875 34.90625 
L 20.21875 34.90625 
L 20.21875 43.015625 
L 29.109375 43.015625 
Q 36.375 43.015625 40.234375 45.921875 
Q 44.09375 48.828125 44.09375 54.296875 
Q 44.09375 59.90625 40.109375 62.90625 
Q 36.140625 65.921875 28.71875 65.921875 
Q 24.65625 65.921875 20.015625 65.03125 
Q 15.375 64.15625 9.8125 62.3125 
L 9.8125 71.09375 
Q 15.4375 72.65625 20.34375 73.4375 
Q 25.25 74.21875 29.59375 74.21875 
Q 40.828125 74.21875 47.359375 69.109375 
Q 53.90625 64.015625 53.90625 55.328125 
Q 53.90625 49.265625 50.4375 45.09375 
Q 46.96875 40.921875 40.578125 39.3125 
z
" id="DejaVuSans-51"/>
      </defs>
      <g transform="translate(81.9125 169.29405)scale(0.1 -0.1)">
       <use xlink:href="#DejaVuSans-51"/>
       <use x="63.623047" xlink:href="#DejaVuSans-48"/>
       <use x="127.246094" xlink:href="#DejaVuSans-48"/>
      </g>
     </g>
    </g>
    <g id="ytick_5">
     <g id="line2d_13">
      <g>
       <use style="stroke:#000000;stroke-width:0.8;" x="108" xlink:href="#m765b1a4ca6" y="97.539775"/>
      </g>
     </g>
     <g id="text_14">
      <!-- 400 -->
      <g transform="translate(81.9125 101.338994)scale(0.1 -0.1)">
       <use xlink:href="#DejaVuSans-52"/>
       <use x="63.623047" xlink:href="#DejaVuSans-48"/>
       <use x="127.246094" xlink:href="#DejaVuSans-48"/>
      </g>
     </g>
    </g>
    <g id="text_15">
     <!-- Value -->
     <defs>
      <path d="M 28.609375 0 
L 0.78125 72.90625 
L 11.078125 72.90625 
L 34.1875 11.53125 
L 57.328125 72.90625 
L 67.578125 72.90625 
L 39.796875 0 
z
" id="DejaVuSans-86"/>
      <path d="M 9.421875 75.984375 
L 18.40625 75.984375 
L 18.40625 0 
L 9.421875 0 
z
" id="DejaVuSans-108"/>
      <path d="M 8.5 21.578125 
L 8.5 54.6875 
L 17.484375 54.6875 
L 17.484375 21.921875 
Q 17.484375 14.15625 20.5 10.265625 
Q 23.53125 6.390625 29.59375 6.390625 
Q 36.859375 6.390625 41.078125 11.03125 
Q 45.3125 15.671875 45.3125 23.6875 
L 45.3125 54.6875 
L 54.296875 54.6875 
L 54.296875 0 
L 45.3125 0 
L 45.3125 8.40625 
Q 42.046875 3.421875 37.71875 1 
Q 33.40625 -1.421875 27.6875 -1.421875 
Q 18.265625 -1.421875 13.375 4.4375 
Q 8.5 10.296875 8.5 21.578125 
z
M 31.109375 56 
z
" id="DejaVuSans-117"/>
     </defs>
     <g transform="translate(75.832812 232.273281)rotate(-90)scale(0.1 -0.1)">
      <use xlink:href="#DejaVuSans-86"/>
      <use x="68.298828" xlink:href="#DejaVuSans-97"/>
      <use x="129.578125" xlink:href="#DejaVuSans-108"/>
      <use x="157.361328" xlink:href="#DejaVuSans-117"/>
      <use x="220.740234" xlink:href="#DejaVuSans-101"/>
     </g>
    </g>
   </g>
   <g id="line2d_14">
    <path clip-path="url(#pd407b20711)" d="M 138.436364 369.36 
L 139.285356 369.36 
L 139.709852 367.321348 
L 140.134348 369.36 
L 140.558844 368.680449 
L 140.98334 369.36 
L 141.407836 368.000899 
L 141.832332 367.321348 
L 142.256828 365.962247 
L 142.681324 367.321348 
L 143.10582 369.36 
L 143.530316 368.680449 
L 143.954812 367.321348 
L 144.379308 366.641798 
L 144.803804 368.000899 
L 145.2283 368.000899 
L 145.652796 366.641798 
L 146.077292 367.321348 
L 146.501788 368.680449 
L 146.926284 367.321348 
L 147.35078 368.000899 
L 147.775276 369.36 
L 149.897756 369.36 
L 150.322252 368.000899 
L 150.746748 369.36 
L 151.171244 366.641798 
L 151.59574 365.962247 
L 152.020236 364.603146 
L 152.444732 365.282697 
L 152.869228 368.000899 
L 153.293724 367.321348 
L 153.71822 368.680449 
L 154.142716 365.962247 
L 154.567212 368.000899 
L 154.991708 368.000899 
L 155.416204 367.321348 
L 155.8407 365.282697 
L 156.265196 367.321348 
L 156.689692 364.603146 
L 157.114188 368.000899 
L 157.96318 368.000899 
L 158.387676 369.36 
L 158.812172 368.000899 
L 159.236668 369.36 
L 159.661164 369.36 
L 160.08566 367.321348 
L 160.510156 367.321348 
L 160.934652 365.282697 
L 161.359148 368.680449 
L 161.783644 365.282697 
L 162.20814 368.000899 
L 162.632636 368.000899 
L 163.057132 367.321348 
L 163.481628 367.321348 
L 163.906124 368.680449 
L 164.33062 366.641798 
L 164.755116 367.321348 
L 165.179612 365.962247 
L 165.604108 366.641798 
L 166.028604 366.641798 
L 166.4531 368.000899 
L 166.877596 367.321348 
L 167.302092 365.962247 
L 167.726588 365.282697 
L 168.151084 365.962247 
L 168.57558 368.680449 
L 169.000076 368.680449 
L 169.424572 369.36 
L 169.849068 368.000899 
L 170.273564 369.36 
L 170.69806 369.36 
L 171.122556 368.000899 
L 171.547052 369.36 
L 171.971548 368.000899 
L 172.396044 368.680449 
L 172.82054 367.321348 
L 173.245036 365.282697 
L 173.669532 368.000899 
L 174.094028 365.282697 
L 174.94302 366.641798 
L 175.367516 363.923596 
L 175.792012 368.000899 
L 176.216508 367.321348 
L 176.641004 368.000899 
L 177.0655 365.962247 
L 177.489996 364.603146 
L 177.914492 365.962247 
L 178.338988 369.36 
L 178.763484 368.000899 
L 179.18798 369.36 
L 179.612476 368.680449 
L 180.036972 369.36 
L 180.461468 368.680449 
L 180.885964 369.36 
L 181.31046 369.36 
L 181.734956 368.000899 
L 182.159452 368.000899 
L 182.583948 366.641798 
L 183.008444 368.000899 
L 183.43294 367.321348 
L 184.706428 367.321348 
L 185.130924 366.641798 
L 185.55542 367.321348 
L 185.979916 363.923596 
L 186.404412 366.641798 
L 186.828908 365.962247 
L 187.253404 367.321348 
L 187.6779 363.923596 
L 188.102396 367.321348 
L 188.526892 364.603146 
L 188.951388 368.000899 
L 189.375884 369.36 
L 190.224876 369.36 
L 190.649372 368.680449 
L 191.073868 368.680449 
L 191.498364 369.36 
L 191.92286 367.321348 
L 192.347356 367.321348 
L 192.771852 366.641798 
L 193.620844 368.000899 
L 194.04534 365.962247 
L 194.469836 367.321348 
L 194.894332 368.000899 
L 195.318828 365.282697 
L 195.743324 366.641798 
L 196.16782 365.962247 
L 196.592316 368.000899 
L 197.016812 369.36 
L 197.441308 365.282697 
L 197.865804 365.962247 
L 198.2903 369.36 
L 198.714797 365.962247 
L 199.139293 368.000899 
L 199.563789 369.36 
L 199.988285 369.36 
L 200.412781 367.321348 
L 200.837277 369.36 
L 201.686269 369.36 
L 202.110765 368.680449 
L 202.535261 367.321348 
L 202.959757 368.000899 
L 203.384253 366.641798 
L 203.808749 368.000899 
L 204.657741 366.641798 
L 205.082237 367.321348 
L 205.506733 369.36 
L 205.931229 368.680449 
L 206.355725 366.641798 
L 206.780221 368.680449 
L 207.629213 367.321348 
L 208.053709 364.603146 
L 208.478205 368.000899 
L 208.902701 365.962247 
L 209.327197 369.36 
L 209.751693 369.36 
L 210.176189 368.680449 
L 210.600685 369.36 
L 211.449677 369.36 
L 211.874173 368.680449 
L 212.298669 369.36 
L 212.723165 368.000899 
L 213.147661 367.321348 
L 213.572157 369.36 
L 213.996653 365.282697 
L 214.421149 365.282697 
L 214.845645 368.680449 
L 215.270141 368.000899 
L 215.694637 363.923596 
L 216.119133 366.641798 
L 216.968125 368.000899 
L 217.392621 365.282697 
L 217.817117 368.000899 
L 218.241613 368.000899 
L 218.666109 365.962247 
L 219.090605 369.36 
L 219.515101 368.680449 
L 219.939597 365.282697 
L 220.364093 369.36 
L 220.788589 355.089438 
L 221.213085 367.321348 
L 221.637581 365.962247 
L 222.062077 368.680449 
L 222.486573 368.680449 
L 222.911069 366.641798 
L 223.335565 368.000899 
L 223.760061 368.000899 
L 224.184557 368.680449 
L 224.609053 365.962247 
L 225.033549 367.321348 
L 225.458045 365.282697 
L 225.882541 368.000899 
L 226.307037 350.332584 
L 226.731533 368.680449 
L 227.156029 361.884944 
L 228.005021 368.680449 
L 228.429517 366.641798 
L 228.854013 368.000899 
L 229.278509 352.371236 
L 229.703005 368.680449 
L 230.127501 368.000899 
L 230.551997 369.36 
L 230.976493 369.36 
L 231.400989 368.680449 
L 231.825485 369.36 
L 232.249981 368.000899 
L 232.674477 368.680449 
L 233.098973 366.641798 
L 234.796957 366.641798 
L 235.221453 368.000899 
L 236.070445 366.641798 
L 236.494941 351.012135 
L 236.919437 366.641798 
L 237.343933 368.680449 
L 237.768429 366.641798 
L 238.192925 366.641798 
L 238.617421 362.564494 
L 239.041917 368.680449 
L 239.466413 368.000899 
L 239.890909 366.641798 
L 240.315405 357.12809 
L 240.739901 365.282697 
L 241.164397 368.000899 
L 241.588893 369.36 
L 242.437885 369.36 
L 243.286877 368.000899 
L 243.711373 365.962247 
L 244.135869 368.680449 
L 244.560365 367.321348 
L 244.984861 366.641798 
L 245.409357 358.487191 
L 245.833853 358.487191 
L 246.258349 365.282697 
L 246.682845 366.641798 
L 247.107341 365.282697 
L 247.956333 366.641798 
L 248.380829 350.332584 
L 248.805325 366.641798 
L 249.229821 368.000899 
L 249.654317 368.680449 
L 250.078813 353.730337 
L 250.503309 365.962247 
L 250.927805 355.089438 
L 251.352301 368.680449 
L 251.776797 369.36 
L 252.201293 369.36 
L 252.625789 368.680449 
L 253.050285 368.680449 
L 253.474781 366.641798 
L 253.899277 366.641798 
L 254.323773 365.962247 
L 254.748269 365.962247 
L 255.172765 362.564494 
L 255.597261 357.80764 
L 256.021757 365.962247 
L 256.446253 361.884944 
L 256.870749 362.564494 
L 257.295245 365.962247 
L 257.719741 365.282697 
L 258.144237 366.641798 
L 258.568733 369.36 
L 258.993229 365.282697 
L 259.417725 368.000899 
L 259.842221 367.321348 
L 260.266717 369.36 
L 260.691213 367.321348 
L 261.540205 368.680449 
L 261.964701 368.680449 
L 262.389197 369.36 
L 262.813693 369.36 
L 263.238189 368.000899 
L 264.087181 369.36 
L 264.511677 363.244045 
L 264.936173 368.000899 
L 265.785165 368.000899 
L 266.209661 351.691685 
L 266.634157 365.962247 
L 267.058653 368.000899 
L 267.483149 368.000899 
L 267.907645 364.603146 
L 268.332141 364.603146 
L 268.756638 366.641798 
L 269.60563 368.000899 
L 270.030126 367.321348 
L 270.454622 357.12809 
L 270.879118 366.641798 
L 271.303614 368.000899 
L 271.72811 368.000899 
L 272.152606 369.36 
L 272.577102 369.36 
L 273.001598 367.321348 
L 273.426094 368.680449 
L 273.85059 366.641798 
L 274.275086 367.321348 
L 274.699582 368.680449 
L 275.548574 365.962247 
L 275.97307 352.371236 
L 276.397566 366.641798 
L 276.822062 368.680449 
L 277.671054 368.680449 
L 278.09555 368.000899 
L 278.520046 368.000899 
L 278.944542 368.680449 
L 279.369038 368.000899 
L 279.793534 368.680449 
L 280.21803 366.641798 
L 280.642526 353.050787 
L 281.067022 369.36 
L 281.491518 349.653034 
L 281.916014 364.603146 
L 282.34051 366.641798 
L 282.765006 365.962247 
L 283.189502 369.36 
L 283.613998 368.000899 
L 284.038494 361.884944 
L 284.46299 369.36 
L 284.887486 368.000899 
L 285.311982 365.962247 
L 285.736478 368.000899 
L 286.160974 365.282697 
L 286.58547 353.050787 
L 287.009966 357.80764 
L 287.434462 365.282697 
L 287.858958 363.244045 
L 288.283454 363.244045 
L 288.70795 365.962247 
L 289.132446 363.244045 
L 289.556942 358.487191 
L 289.981438 360.525843 
L 290.405934 365.282697 
L 290.83043 362.564494 
L 291.254926 357.12809 
L 291.679422 368.680449 
L 292.103918 369.36 
L 292.528414 368.680449 
L 292.95291 369.36 
L 293.377406 368.000899 
L 294.226398 369.36 
L 294.650894 368.680449 
L 295.07539 366.641798 
L 295.499886 361.884944 
L 295.924382 363.923596 
L 296.348878 367.321348 
L 296.773374 366.641798 
L 297.19787 366.641798 
L 297.622366 364.603146 
L 298.046862 363.244045 
L 298.471358 368.680449 
L 298.895854 368.000899 
L 299.32035 365.282697 
L 299.744846 351.012135 
L 300.169342 365.962247 
L 300.593838 369.36 
L 301.018334 355.089438 
L 301.44283 363.923596 
L 301.867326 369.36 
L 303.140814 369.36 
L 303.56531 368.000899 
L 303.989806 368.680449 
L 304.414302 368.680449 
L 304.838798 366.641798 
L 305.263294 368.000899 
L 305.68779 368.000899 
L 306.112286 368.680449 
L 306.536782 351.012135 
L 306.961278 366.641798 
L 307.385774 355.768989 
L 307.81027 361.884944 
L 308.234766 364.603146 
L 308.659262 363.923596 
L 309.083758 366.641798 
L 309.508254 367.321348 
L 309.93275 362.564494 
L 310.357246 343.537079 
L 310.781742 365.282697 
L 311.206238 369.36 
L 311.630734 365.282697 
L 312.05523 369.36 
L 313.753214 369.36 
L 314.17771 366.641798 
L 314.602206 368.000899 
L 315.026702 368.680449 
L 315.451198 365.962247 
L 315.875694 367.321348 
L 316.30019 368.000899 
L 316.724686 367.321348 
L 317.149182 354.409888 
L 317.573678 364.603146 
L 317.998174 365.962247 
L 318.42267 360.525843 
L 318.847166 360.525843 
L 319.696158 366.641798 
L 320.120654 353.050787 
L 320.54515 366.641798 
L 320.969646 368.680449 
L 321.394142 369.36 
L 321.818638 368.680449 
L 322.243134 353.730337 
L 322.66763 368.000899 
L 323.092126 369.36 
L 323.941118 368.000899 
L 324.365614 368.000899 
L 324.79011 365.962247 
L 325.214606 368.000899 
L 325.639102 365.282697 
L 326.063598 365.962247 
L 326.488094 368.680449 
L 326.91259 356.448539 
L 327.337086 363.923596 
L 327.761582 361.884944 
L 328.186078 355.768989 
L 328.610574 368.000899 
L 329.459566 366.641798 
L 329.884062 360.525843 
L 330.308558 359.846292 
L 330.733054 356.448539 
L 331.15755 368.000899 
L 331.582046 368.680449 
L 332.431038 368.680449 
L 332.855534 369.36 
L 334.129022 369.36 
L 334.553518 368.000899 
L 334.978014 368.000899 
L 335.40251 367.321348 
L 335.827006 355.768989 
L 336.251502 365.962247 
L 336.675998 369.36 
L 337.100494 366.641798 
L 337.52499 366.641798 
L 337.949486 368.000899 
L 338.373983 366.641798 
L 338.798479 354.409888 
L 339.222975 365.962247 
L 339.647471 368.000899 
L 340.071967 355.768989 
L 340.496463 368.000899 
L 341.769951 368.000899 
L 342.618943 369.36 
L 343.892431 369.36 
L 344.316927 368.000899 
L 345.165919 369.36 
L 345.590415 369.36 
L 346.439407 366.641798 
L 346.863903 368.000899 
L 347.288399 368.680449 
L 347.712895 361.205393 
L 348.561887 365.282697 
L 348.986383 353.730337 
L 349.410879 362.564494 
L 349.835375 362.564494 
L 350.259871 363.923596 
L 350.684367 365.962247 
L 351.108863 363.923596 
L 351.533359 366.641798 
L 351.957855 365.962247 
L 352.382351 369.36 
L 353.231343 368.000899 
L 353.655839 369.36 
L 354.080335 368.680449 
L 354.504831 369.36 
L 354.929327 368.680449 
L 355.353823 368.680449 
L 355.778319 365.962247 
L 356.202815 367.321348 
L 356.627311 368.000899 
L 357.051807 369.36 
L 357.476303 368.680449 
L 357.900799 367.321348 
L 358.325295 369.36 
L 359.174287 366.641798 
L 359.598783 368.680449 
L 360.023279 368.000899 
L 360.447775 368.000899 
L 360.872271 363.923596 
L 361.296767 368.680449 
L 361.721263 367.321348 
L 362.145759 367.321348 
L 362.570255 369.36 
L 363.843743 369.36 
L 364.268239 368.680449 
L 364.692735 368.680449 
L 365.117231 368.000899 
L 365.541727 368.000899 
L 365.966223 366.641798 
L 366.390719 368.680449 
L 366.815215 368.680449 
L 367.239711 366.641798 
L 368.088703 365.282697 
L 368.513199 361.884944 
L 368.937695 368.000899 
L 369.362191 368.000899 
L 369.786687 367.321348 
L 370.211183 369.36 
L 370.635679 368.680449 
L 371.060175 365.962247 
L 371.484671 368.000899 
L 371.909167 369.36 
L 374.880639 369.36 
L 375.305135 365.962247 
L 375.729631 365.962247 
L 376.154127 365.282697 
L 376.578623 365.962247 
L 377.003119 368.000899 
L 377.427615 366.641798 
L 377.852111 368.000899 
L 378.276607 365.962247 
L 378.701103 367.321348 
L 379.125599 368.000899 
L 379.550095 366.641798 
L 379.974591 363.923596 
L 380.399087 367.321348 
L 380.823583 365.962247 
L 381.248079 367.321348 
L 381.672575 369.36 
L 382.521567 368.000899 
L 382.946063 369.36 
L 384.644047 369.36 
L 385.068543 368.000899 
L 385.493039 368.680449 
L 386.342031 368.680449 
L 386.766527 367.321348 
L 387.191023 366.641798 
L 387.615519 368.680449 
L 388.040015 368.000899 
L 388.464511 368.680449 
L 389.737999 368.680449 
L 390.162495 365.282697 
L 390.586991 366.641798 
L 391.011487 365.962247 
L 391.435983 368.000899 
L 391.860479 366.641798 
L 392.709471 369.36 
L 393.133967 368.000899 
L 393.558463 369.36 
L 395.256447 369.36 
L 396.105439 368.000899 
L 396.529935 366.641798 
L 396.954431 366.641798 
L 397.378927 367.321348 
L 397.803423 366.641798 
L 398.227919 368.000899 
L 398.652415 368.000899 
L 399.076911 367.321348 
L 399.501407 368.000899 
L 399.925903 361.205393 
L 400.350399 361.884944 
L 400.774895 366.641798 
L 401.199391 368.000899 
L 401.623887 367.321348 
L 402.048383 367.321348 
L 402.472879 368.000899 
L 402.897375 357.12809 
L 403.321871 369.36 
L 403.746367 368.680449 
L 404.170863 368.680449 
L 404.595359 369.36 
L 405.444351 369.36 
L 405.868847 368.000899 
L 406.293343 365.962247 
L 407.142335 368.680449 
L 407.566831 369.36 
L 407.991328 366.641798 
L 408.415824 355.768989 
L 408.84032 363.923596 
L 409.264816 361.205393 
L 409.689312 363.923596 
L 410.113808 358.487191 
L 410.538304 364.603146 
L 410.9628 360.525843 
L 411.387296 363.244045 
L 411.811792 353.730337 
L 412.236288 367.321348 
L 412.660784 369.36 
L 413.08528 358.487191 
L 413.509776 369.36 
L 414.783264 369.36 
L 415.632256 368.000899 
L 416.056752 368.680449 
L 416.481248 365.282697 
L 416.905744 366.641798 
L 417.33024 366.641798 
L 417.754736 368.000899 
L 418.179232 365.962247 
L 418.603728 357.12809 
L 419.028224 364.603146 
L 419.45272 368.680449 
L 420.301712 367.321348 
L 420.726208 368.680449 
L 421.150704 368.000899 
L 421.5752 368.680449 
L 421.999696 367.321348 
L 422.424192 368.680449 
L 422.848688 368.000899 
L 423.273184 368.000899 
L 423.69768 369.36 
L 424.122176 368.680449 
L 424.546672 360.525843 
L 424.971168 369.36 
L 425.395664 369.36 
L 425.82016 368.680449 
L 426.244656 369.36 
L 426.669152 368.680449 
L 427.093648 369.36 
L 427.518144 363.923596 
L 427.94264 368.680449 
L 428.367136 365.962247 
L 428.791632 369.36 
L 429.216128 365.282697 
L 429.640624 369.36 
L 430.06512 368.680449 
L 430.489616 357.80764 
L 430.914112 367.321348 
L 431.338608 368.680449 
L 431.763104 364.603146 
L 432.612096 355.089438 
L 433.036592 368.000899 
L 433.461088 367.321348 
L 433.885584 369.36 
L 435.583568 369.36 
L 436.008064 368.000899 
L 436.43256 368.000899 
L 436.857056 368.680449 
L 437.706048 368.680449 
L 438.130544 367.321348 
L 438.55504 368.000899 
L 438.979536 368.000899 
L 439.404032 358.487191 
L 439.828528 361.884944 
L 440.253024 358.487191 
L 440.67752 364.603146 
L 441.102016 368.680449 
L 441.526512 367.321348 
L 441.951008 355.768989 
L 442.375504 365.282697 
L 442.8 368.000899 
L 443.224496 360.525843 
L 443.648992 368.680449 
L 444.073488 368.680449 
L 444.497984 369.36 
L 444.92248 369.36 
L 445.346976 368.680449 
L 445.771472 369.36 
L 446.195968 369.36 
L 446.620464 366.641798 
L 447.04496 365.962247 
L 447.469456 367.321348 
L 447.893952 366.641798 
L 448.318448 365.282697 
L 448.742944 367.321348 
L 449.16744 366.641798 
L 449.591936 364.603146 
L 450.016432 357.12809 
L 450.440928 367.321348 
L 450.865424 366.641798 
L 451.28992 367.321348 
L 451.714416 367.321348 
L 452.138912 365.282697 
L 452.987904 368.000899 
L 453.4124 351.012135 
L 453.836896 369.36 
L 455.53488 369.36 
L 455.959376 368.000899 
L 456.383872 369.36 
L 456.808368 369.36 
L 457.232864 365.962247 
L 457.65736 367.321348 
L 458.081856 365.962247 
L 458.506352 368.000899 
L 458.930848 364.603146 
L 459.355344 368.000899 
L 459.77984 369.36 
L 460.204336 368.680449 
L 460.628832 366.641798 
L 461.053328 369.36 
L 461.477824 367.321348 
L 462.326816 367.321348 
L 462.751312 366.641798 
L 463.175808 369.36 
L 464.0248 368.000899 
L 464.449296 369.36 
L 464.873792 368.000899 
L 465.298288 369.36 
L 466.14728 369.36 
L 466.571776 368.680449 
L 466.996272 368.680449 
L 467.420768 368.000899 
L 467.845264 365.962247 
L 468.26976 366.641798 
L 468.694256 368.000899 
L 469.118752 368.680449 
L 469.543248 368.680449 
L 469.967744 367.321348 
L 470.39224 368.680449 
L 470.816736 367.321348 
L 471.241232 365.282697 
L 471.665728 368.000899 
L 472.090224 367.321348 
L 472.51472 368.000899 
L 473.363712 368.000899 
L 473.788208 368.680449 
L 474.212704 368.000899 
L 474.6372 369.36 
L 476.75968 369.36 
L 477.184176 368.680449 
L 477.608672 367.321348 
L 478.033169 369.36 
L 478.457665 367.321348 
L 478.882161 367.321348 
L 479.306657 365.962247 
L 479.731153 359.846292 
L 480.155649 369.36 
L 480.580145 367.321348 
L 481.004641 359.846292 
L 481.429137 361.205393 
L 481.853633 368.000899 
L 482.278129 365.962247 
L 482.702625 366.641798 
L 483.127121 368.680449 
L 483.551617 361.884944 
L 483.976113 368.680449 
L 484.400609 358.487191 
L 484.825105 368.680449 
L 485.249601 368.680449 
L 486.098593 361.884944 
L 486.523089 369.36 
L 486.947585 368.680449 
L 488.221073 368.680449 
L 488.645569 359.846292 
L 489.070065 366.641798 
L 489.494561 367.321348 
L 489.919057 363.244045 
L 490.343553 363.244045 
L 491.192545 367.321348 
L 491.617041 368.680449 
L 492.041537 368.680449 
L 492.466033 368.000899 
L 492.890529 368.000899 
L 493.315025 368.680449 
L 494.164017 367.321348 
L 494.588513 368.680449 
L 495.013009 368.680449 
L 495.437505 369.36 
L 495.862001 369.36 
L 496.286497 368.680449 
L 496.710993 369.36 
L 497.135489 369.36 
L 497.559985 368.680449 
L 497.984481 368.680449 
L 498.408977 368.000899 
L 498.833473 365.282697 
L 499.257969 369.36 
L 499.682465 366.641798 
L 500.106961 365.962247 
L 500.955953 367.321348 
L 501.380449 365.962247 
L 501.804945 368.000899 
L 502.229441 366.641798 
L 502.653937 368.680449 
L 503.078433 365.282697 
L 504.351921 369.36 
L 506.474401 369.36 
L 506.898897 368.680449 
L 507.323393 369.36 
L 507.747889 367.321348 
L 508.172385 366.641798 
L 508.596881 367.321348 
L 509.021377 364.603146 
L 509.445873 368.000899 
L 509.870369 365.282697 
L 510.294865 368.000899 
L 510.719361 366.641798 
L 511.143857 367.321348 
L 511.568353 357.12809 
L 511.992849 365.282697 
L 512.417345 363.244045 
L 512.841841 369.36 
L 513.266337 365.962247 
L 513.690833 368.000899 
L 514.115329 368.000899 
L 514.539825 359.846292 
L 514.964321 368.000899 
L 515.388817 368.000899 
L 515.813313 369.36 
L 516.662305 369.36 
L 517.086801 368.680449 
L 517.511297 369.36 
L 517.935793 368.000899 
L 518.360289 369.36 
L 518.784785 368.000899 
L 519.209281 365.962247 
L 519.633777 368.000899 
L 520.058273 368.680449 
L 520.482769 359.166742 
L 520.907265 368.680449 
L 521.331761 368.680449 
L 521.756257 366.641798 
L 522.180753 368.000899 
L 522.605249 366.641798 
L 523.454241 365.282697 
L 523.878737 366.641798 
L 524.303233 365.962247 
L 524.727729 364.603146 
L 525.152225 365.962247 
L 525.576721 369.36 
L 527.274705 369.36 
L 527.699201 368.680449 
L 528.123697 365.962247 
L 528.548193 365.282697 
L 528.972689 367.321348 
L 529.397185 367.321348 
L 529.821681 368.000899 
L 530.246177 366.641798 
L 530.670673 366.641798 
L 531.095169 368.680449 
L 531.519665 365.282697 
L 531.944161 363.244045 
L 532.368657 368.680449 
L 533.217649 367.321348 
L 533.642145 368.000899 
L 534.066641 367.321348 
L 534.491137 354.409888 
L 534.915633 355.089438 
L 535.340129 369.36 
L 535.764625 368.000899 
L 536.189121 369.36 
L 537.038113 369.36 
L 537.462609 368.680449 
L 537.887105 368.680449 
L 538.311601 365.282697 
L 538.736097 367.321348 
L 539.585089 368.680449 
L 540.009585 368.000899 
L 540.858577 368.000899 
L 541.283073 369.36 
L 541.707569 369.36 
L 542.132065 368.000899 
L 542.556561 365.962247 
L 542.981057 367.321348 
L 543.405553 367.321348 
L 543.830049 368.000899 
L 544.254545 366.641798 
L 544.679041 369.36 
L 545.103537 368.000899 
L 545.528033 368.000899 
L 546.377025 369.36 
L 548.07501 369.36 
L 548.499506 368.680449 
L 548.924002 369.36 
L 549.348498 368.680449 
L 549.772994 368.680449 
L 550.19749 369.36 
L 550.621986 368.680449 
L 551.046482 367.321348 
L 551.470978 368.680449 
L 551.895474 369.36 
L 552.31997 368.000899 
L 552.744466 367.321348 
L 553.168962 368.680449 
L 553.593458 367.321348 
L 554.017954 367.321348 
L 554.44245 366.641798 
L 554.866946 369.36 
L 555.291442 368.680449 
L 555.715938 368.680449 
L 556.140434 368.000899 
L 556.56493 369.36 
L 558.262914 369.36 
L 558.68741 368.000899 
L 559.111906 369.36 
L 559.536402 366.641798 
L 559.960898 369.36 
L 560.385394 368.000899 
L 560.80989 367.321348 
L 561.234386 368.680449 
L 561.658882 367.321348 
L 562.083378 368.680449 
L 562.507874 368.680449 
L 562.93237 368.000899 
L 563.356866 368.000899 
L 563.781362 367.321348 
L 564.205858 367.321348 
L 564.630354 368.000899 
L 565.05485 368.000899 
L 565.903842 369.36 
L 567.601826 369.36 
L 568.026322 368.680449 
L 568.450818 369.36 
L 568.875314 368.680449 
L 569.724306 368.680449 
L 570.148802 369.36 
L 570.997794 369.36 
L 571.42229 367.321348 
L 571.846786 369.36 
L 572.271282 368.680449 
L 572.695778 369.36 
L 573.120274 368.680449 
L 573.54477 368.680449 
L 573.969266 368.000899 
L 574.393762 368.680449 
L 574.818258 365.962247 
L 575.242754 368.680449 
L 575.66725 368.680449 
L 576.091746 369.36 
L 576.940738 369.36 
L 577.365234 368.680449 
L 577.78973 368.680449 
L 578.214226 369.36 
L 578.638722 369.36 
L 579.063218 368.680449 
L 579.487714 369.36 
L 579.91221 368.000899 
L 580.336706 368.000899 
L 581.185698 369.36 
L 581.610194 368.000899 
L 582.03469 368.680449 
L 582.459186 368.000899 
L 582.883682 368.000899 
L 583.308178 368.680449 
L 583.732674 365.962247 
L 584.15717 369.36 
L 584.581666 369.36 
L 585.006162 367.321348 
L 585.430658 368.000899 
L 585.855154 368.000899 
L 586.27965 369.36 
L 588.826626 369.36 
L 589.251122 368.680449 
L 590.100114 368.680449 
L 590.52461 369.36 
L 590.949106 369.36 
L 591.373602 368.680449 
L 591.798098 367.321348 
L 592.222594 369.36 
L 593.071586 369.36 
L 593.496082 368.000899 
L 593.920578 368.680449 
L 594.345074 366.641798 
L 594.76957 368.680449 
L 595.194066 368.680449 
L 595.618562 369.36 
L 596.467554 369.36 
L 596.89205 368.680449 
L 597.316546 369.36 
L 624.484291 369.36 
L 624.908787 368.680449 
L 625.333283 369.36 
L 628.729251 369.36 
L 629.153747 368.680449 
L 629.578243 369.36 
L 630.002739 369.36 
L 630.427235 367.321348 
L 630.851731 365.962247 
L 631.276227 368.000899 
L 631.700723 367.321348 
L 632.125219 368.000899 
L 632.549715 367.321348 
L 632.974211 369.36 
L 633.823203 369.36 
L 634.247699 367.321348 
L 634.672195 367.321348 
L 635.096691 365.962247 
L 635.521187 368.000899 
L 635.945683 368.680449 
L 636.370179 368.000899 
L 637.219171 369.36 
L 638.068163 369.36 
L 638.492659 356.448539 
L 638.917155 368.680449 
L 639.341651 369.36 
L 639.766147 368.680449 
L 640.190643 368.680449 
L 640.615139 369.36 
L 641.039635 369.36 
L 641.464131 365.282697 
L 641.888627 369.36 
L 642.313123 368.000899 
L 642.737619 369.36 
L 643.586611 366.641798 
L 644.011107 368.680449 
L 644.435603 369.36 
L 644.860099 368.000899 
L 645.284595 367.321348 
L 645.709091 368.000899 
L 646.133587 368.000899 
L 646.558083 366.641798 
L 646.982579 367.321348 
L 647.407075 367.321348 
L 647.831571 369.36 
L 649.529555 369.36 
L 649.954051 367.321348 
L 650.378547 368.680449 
L 650.803043 365.962247 
L 651.227539 368.000899 
L 651.652035 368.680449 
L 652.076531 368.000899 
L 652.501027 369.36 
L 652.925523 369.36 
L 653.774515 368.000899 
L 654.199011 364.603146 
L 654.623507 359.166742 
L 655.048003 369.36 
L 655.896995 366.641798 
L 656.321491 366.641798 
L 656.745987 369.36 
L 657.170483 365.962247 
L 657.594979 369.36 
L 658.019475 368.680449 
L 658.443971 369.36 
L 658.868467 369.36 
L 659.292963 367.321348 
L 659.717459 369.36 
L 660.141955 369.36 
L 660.566451 368.000899 
L 660.990947 368.000899 
L 661.415443 366.641798 
L 661.839939 365.962247 
L 662.264435 369.36 
L 663.113427 366.641798 
L 663.537923 367.321348 
L 663.962419 365.962247 
L 664.386915 367.321348 
L 664.811411 366.641798 
L 665.235907 369.36 
L 665.660403 367.321348 
L 666.084899 364.603146 
L 666.509395 366.641798 
L 666.933891 366.641798 
L 667.358387 368.680449 
L 667.782883 369.36 
L 668.207379 368.680449 
L 668.631875 368.680449 
L 669.056371 369.36 
L 669.480867 369.36 
L 669.905363 368.000899 
L 670.329859 368.000899 
L 670.754355 366.641798 
L 671.178851 369.36 
L 671.603347 368.000899 
L 672.027843 368.680449 
L 672.452339 365.962247 
L 672.876835 368.680449 
L 673.301331 367.321348 
L 673.725827 367.321348 
L 674.150323 368.680449 
L 674.574819 368.680449 
L 674.999315 366.641798 
L 675.423811 367.321348 
L 675.848307 366.641798 
L 676.272803 366.641798 
L 676.697299 368.000899 
L 677.121795 365.962247 
L 677.546291 367.321348 
L 677.970787 369.36 
L 678.395283 368.000899 
L 678.819779 369.36 
L 680.942259 369.36 
L 681.366755 361.884944 
L 681.791251 359.846292 
L 682.215747 368.680449 
L 683.913731 368.680449 
L 684.762723 367.321348 
L 685.187219 365.282697 
L 685.611715 367.321348 
L 686.036211 365.282697 
L 686.460707 353.730337 
L 686.885203 368.680449 
L 687.3097 367.321348 
L 687.734196 359.846292 
L 688.158692 368.680449 
L 688.583188 368.000899 
L 689.007684 369.36 
L 690.705668 369.36 
L 691.130164 368.680449 
L 691.55466 368.680449 
L 691.979156 365.962247 
L 692.403652 368.000899 
L 693.252644 368.000899 
L 693.67714 366.641798 
L 694.101636 362.564494 
L 694.526132 360.525843 
L 694.950628 368.680449 
L 695.375124 366.641798 
L 695.79962 368.680449 
L 696.224116 365.962247 
L 696.648612 368.680449 
L 697.073108 368.000899 
L 697.497604 368.000899 
L 697.9221 368.680449 
L 698.346596 368.000899 
L 699.195588 369.36 
L 699.620084 368.680449 
L 700.04458 368.680449 
L 700.469076 369.36 
L 700.893572 369.36 
L 701.318068 359.846292 
L 701.742564 368.680449 
L 702.16706 369.36 
L 702.591556 369.36 
L 703.016052 368.000899 
L 703.440548 369.36 
L 703.865044 368.680449 
L 704.28954 368.680449 
L 704.714036 369.36 
L 705.138532 368.680449 
L 705.563028 369.36 
L 705.987524 363.244045 
L 706.41202 359.846292 
L 706.836516 364.603146 
L 707.261012 358.487191 
L 707.685508 359.846292 
L 708.110004 368.680449 
L 708.5345 368.680449 
L 708.958996 369.36 
L 710.65698 369.36 
L 711.081476 368.680449 
L 711.505972 368.680449 
L 711.930468 358.487191 
L 712.354964 358.487191 
L 712.77946 362.564494 
L 713.203956 368.000899 
L 713.628452 368.000899 
L 714.052948 369.36 
L 714.477444 365.962247 
L 714.90194 368.680449 
L 715.750932 368.680449 
L 716.175428 366.641798 
L 716.599924 368.000899 
L 717.02442 366.641798 
L 717.448916 366.641798 
L 717.873412 369.36 
L 718.297908 368.680449 
L 718.722404 369.36 
L 720.420388 369.36 
L 720.844884 368.680449 
L 721.26938 369.36 
L 722.542868 367.321348 
L 722.967364 368.000899 
L 723.39186 368.000899 
L 723.816356 369.36 
L 724.240852 369.36 
L 724.665348 366.641798 
L 725.51434 368.000899 
L 725.938836 366.641798 
L 726.363332 367.321348 
L 726.787828 363.923596 
L 727.212324 367.321348 
L 727.63682 368.000899 
L 728.485812 368.000899 
L 728.910308 369.36 
L 729.7593 144.428764 
L 730.183796 166.853933 
L 730.608292 147.146966 
L 731.032788 177.726742 
L 731.457284 166.853933 
L 731.88178 127.44 
L 732.306276 173.649438 
L 732.730772 187.92 
L 733.155268 183.842697 
L 733.579764 156.660674 
L 734.00426 194.035955 
L 734.428756 185.201798 
L 734.853252 164.13573 
L 735.277748 170.251685 
L 735.702244 166.174382 
L 736.12674 193.356404 
L 736.551236 196.074607 
L 737.400228 120.644494 
L 737.824724 149.185618 
L 738.24922 109.092135 
L 738.673716 151.90382 
L 739.098212 139.67191 
L 739.522708 137.633258 
L 739.947204 95.501124 
L 740.3717 66.96 
L 741.220692 120.644494 
L 741.645188 166.174382 
L 742.069684 137.633258 
L 742.49418 168.892584 
L 742.918676 126.760449 
L 743.343172 165.494831 
L 743.767668 168.892584 
L 744.192164 122.683146 
L 744.61666 115.20809 
L 745.041156 134.915056 
L 745.465652 91.42382 
L 745.890148 162.097079 
L 746.73914 194.035955 
L 747.163636 135.594607 
L 747.163636 135.594607 
" style="fill:none;stroke:#1f77b4;stroke-linecap:square;stroke-width:1.5;"/>
   </g>
   <g id="line2d_15">
    <path clip-path="url(#pd407b20711)" d="M 745.465652 384.48 
L 745.465652 51.84 
" style="fill:none;stroke:#808080;stroke-linecap:square;"/>
   </g>
   <g id="patch_94">
    <path d="M 108 384.48 
L 108 51.84 
" style="fill:none;stroke:#000000;stroke-linecap:square;stroke-linejoin:miter;stroke-width:0.8;"/>
   </g>
   <g id="patch_95">
    <path d="M 777.6 384.48 
L 777.6 51.84 
" style="fill:none;stroke:#000000;stroke-linecap:square;stroke-linejoin:miter;stroke-width:0.8;"/>
   </g>
   <g id="patch_96">
    <path d="M 108 384.48 
L 777.6 384.48 
" style="fill:none;stroke:#000000;stroke-linecap:square;stroke-linejoin:miter;stroke-width:0.8;"/>
   </g>
   <g id="patch_97">
    <path d="M 108 51.84 
L 777.6 51.84 
" style="fill:none;stroke:#000000;stroke-linecap:square;stroke-linejoin:miter;stroke-width:0.8;"/>
   </g>
   <g id="text_16">
    <!-- real_25.csv -->
    <defs>
     <path d="M 41.109375 46.296875 
Q 39.59375 47.171875 37.8125 47.578125 
Q 36.03125 48 33.890625 48 
Q 26.265625 48 22.1875 43.046875 
Q 18.109375 38.09375 18.109375 28.8125 
L 18.109375 0 
L 9.078125 0 
L 9.078125 54.6875 
L 18.109375 54.6875 
L 18.109375 46.1875 
Q 20.953125 51.171875 25.484375 53.578125 
Q 30.03125 56 36.53125 56 
Q 37.453125 56 38.578125 55.875 
Q 39.703125 55.765625 41.0625 55.515625 
z
" id="DejaVuSans-114"/>
     <path d="M 50.984375 -16.609375 
L 50.984375 -23.578125 
L -0.984375 -23.578125 
L -0.984375 -16.609375 
z
" id="DejaVuSans-95"/>
     <path d="M 10.796875 72.90625 
L 49.515625 72.90625 
L 49.515625 64.59375 
L 19.828125 64.59375 
L 19.828125 46.734375 
Q 21.96875 47.46875 24.109375 47.828125 
Q 26.265625 48.1875 28.421875 48.1875 
Q 40.625 48.1875 47.75 41.5 
Q 54.890625 34.8125 54.890625 23.390625 
Q 54.890625 11.625 47.5625 5.09375 
Q 40.234375 -1.421875 26.90625 -1.421875 
Q 22.3125 -1.421875 17.546875 -0.640625 
Q 12.796875 0.140625 7.71875 1.703125 
L 7.71875 11.625 
Q 12.109375 9.234375 16.796875 8.0625 
Q 21.484375 6.890625 26.703125 6.890625 
Q 35.15625 6.890625 40.078125 11.328125 
Q 45.015625 15.765625 45.015625 23.390625 
Q 45.015625 31 40.078125 35.4375 
Q 35.15625 39.890625 26.703125 39.890625 
Q 22.75 39.890625 18.8125 39.015625 
Q 14.890625 38.140625 10.796875 36.28125 
z
" id="DejaVuSans-53"/>
     <path d="M 10.6875 12.40625 
L 21 12.40625 
L 21 0 
L 10.6875 0 
z
" id="DejaVuSans-46"/>
     <path d="M 48.78125 52.59375 
L 48.78125 44.1875 
Q 44.96875 46.296875 41.140625 47.34375 
Q 37.3125 48.390625 33.40625 48.390625 
Q 24.65625 48.390625 19.8125 42.84375 
Q 14.984375 37.3125 14.984375 27.296875 
Q 14.984375 17.28125 19.8125 11.734375 
Q 24.65625 6.203125 33.40625 6.203125 
Q 37.3125 6.203125 41.140625 7.25 
Q 44.96875 8.296875 48.78125 10.40625 
L 48.78125 2.09375 
Q 45.015625 0.34375 40.984375 -0.53125 
Q 36.96875 -1.421875 32.421875 -1.421875 
Q 20.0625 -1.421875 12.78125 6.34375 
Q 5.515625 14.109375 5.515625 27.296875 
Q 5.515625 40.671875 12.859375 48.328125 
Q 20.21875 56 33.015625 56 
Q 37.15625 56 41.109375 55.140625 
Q 45.0625 54.296875 48.78125 52.59375 
z
" id="DejaVuSans-99"/>
     <path d="M 2.984375 54.6875 
L 12.5 54.6875 
L 29.59375 8.796875 
L 46.6875 54.6875 
L 56.203125 54.6875 
L 35.6875 0 
L 23.484375 0 
z
" id="DejaVuSans-118"/>
    </defs>
    <g transform="translate(408.781875 45.84)scale(0.12 -0.12)">
     <use xlink:href="#DejaVuSans-114"/>
     <use x="41.082031" xlink:href="#DejaVuSans-101"/>
     <use x="102.605469" xlink:href="#DejaVuSans-97"/>
     <use x="163.884766" xlink:href="#DejaVuSans-108"/>
     <use x="191.667969" xlink:href="#DejaVuSans-95"/>
     <use x="241.667969" xlink:href="#DejaVuSans-50"/>
     <use x="305.291016" xlink:href="#DejaVuSans-53"/>
     <use x="368.914062" xlink:href="#DejaVuSans-46"/>
     <use x="400.701172" xlink:href="#DejaVuSans-99"/>
     <use x="455.681641" xlink:href="#DejaVuSans-115"/>
     <use x="507.78125" xlink:href="#DejaVuSans-118"/>
    </g>
   </g>
   <g id="legend_1">
    <g id="patch_98">
     <path d="M 115 74.518125 
L 174.315625 74.518125 
Q 176.315625 74.518125 176.315625 72.518125 
L 176.315625 58.84 
Q 176.315625 56.84 174.315625 56.84 
L 115 56.84 
Q 113 56.84 113 58.84 
L 113 72.518125 
Q 113 74.518125 115 74.518125 
z
" style="fill:#ffffff;opacity:0.8;stroke:#cccccc;stroke-linejoin:miter;"/>
    </g>
    <g id="line2d_16">
     <path d="M 117 64.938438 
L 137 64.938438 
" style="fill:none;stroke:#1f77b4;stroke-linecap:square;stroke-width:1.5;"/>
    </g>
    <g id="line2d_17"/>
    <g id="text_17">
     <!-- value -->
     <g transform="translate(145 68.438438)scale(0.1 -0.1)">
      <use xlink:href="#DejaVuSans-118"/>
      <use x="59.179688" xlink:href="#DejaVuSans-97"/>
      <use x="120.458984" xlink:href="#DejaVuSans-108"/>
      <use x="148.242188" xlink:href="#DejaVuSans-117"/>
      <use x="211.621094" xlink:href="#DejaVuSans-101"/>
     </g>
    </g>
   </g>
  </g>
 </g>
 <defs>
  <clipPath id="pd407b20711">
   <rect height="332.64" width="669.6" x="108" y="51.84"/>
  </clipPath>
 </defs>
</svg>
