<?xml version="1.0" encoding="utf-8" standalone="no"?>
<!DOCTYPE svg PUBLIC "-//W3C//DTD SVG 1.1//EN"
  "http://www.w3.org/Graphics/SVG/1.1/DTD/svg11.dtd">
<!-- Created with matplotlib (https://matplotlib.org/) -->
<svg height="432pt" version="1.1" viewBox="0 0 864 432" width="864pt" xmlns="http://www.w3.org/2000/svg" xmlns:xlink="http://www.w3.org/1999/xlink">
 <defs>
  <style type="text/css">
*{stroke-linecap:butt;stroke-linejoin:round;}
  </style>
 </defs>
 <g id="figure_1">
  <g id="patch_1">
   <path d="M 0 432 
L 864 432 
L 864 0 
L 0 0 
z
" style="fill:#ffffff;"/>
  </g>
  <g id="axes_1">
   <g id="patch_2">
    <path d="M 108 384.48 
L 777.6 384.48 
L 777.6 51.84 
L 108 51.84 
z
" style="fill:#ffffff;"/>
   </g>
   <g id="patch_3">
    <path clip-path="url(#pd09fa076bc)" d="M 138.436364 384.48 
L 138.436364 51.84 
L 378.497823 51.84 
L 378.497823 384.48 
z
" style="fill:#0000ff;opacity:0.05;"/>
   </g>
   <g id="patch_4">
    <path clip-path="url(#pd09fa076bc)" d="M 378.497823 384.48 
L 378.497823 51.84 
L 747.163636 51.84 
L 747.163636 384.48 
z
" style="fill:#ff0000;opacity:0.08;"/>
   </g>
   <g id="patch_5">
    <path clip-path="url(#pd09fa076bc)" d="M 138.436364 384.48 
L 138.436364 51.84 
L 142.723175 51.84 
L 142.723175 384.48 
z
" style="fill:#008000;opacity:0.04;"/>
   </g>
   <g id="patch_6">
    <path clip-path="url(#pd09fa076bc)" d="M 147.009987 384.48 
L 147.009987 51.84 
L 151.296799 51.84 
L 151.296799 384.48 
z
" style="fill:#008000;opacity:0.04;"/>
   </g>
   <g id="patch_7">
    <path clip-path="url(#pd09fa076bc)" d="M 151.296799 384.48 
L 151.296799 371.1744 
L 155.583611 371.1744 
L 155.583611 384.48 
z
" style="fill:#ffe500;"/>
   </g>
   <g id="patch_8">
    <path clip-path="url(#pd09fa076bc)" d="M 155.583611 384.48 
L 155.583611 51.84 
L 159.870423 51.84 
L 159.870423 384.48 
z
" style="fill:#008000;opacity:0.04;"/>
   </g>
   <g id="patch_9">
    <path clip-path="url(#pd09fa076bc)" d="M 164.157234 384.48 
L 164.157234 51.84 
L 168.444046 51.84 
L 168.444046 384.48 
z
" style="fill:#008000;opacity:0.04;"/>
   </g>
   <g id="patch_10">
    <path clip-path="url(#pd09fa076bc)" d="M 172.730858 384.48 
L 172.730858 51.84 
L 177.01767 51.84 
L 177.01767 384.48 
z
" style="fill:#008000;opacity:0.04;"/>
   </g>
   <g id="patch_11">
    <path clip-path="url(#pd09fa076bc)" d="M 181.304481 384.48 
L 181.304481 51.84 
L 185.591293 51.84 
L 185.591293 384.48 
z
" style="fill:#008000;opacity:0.04;"/>
   </g>
   <g id="patch_12">
    <path clip-path="url(#pd09fa076bc)" d="M 189.878105 384.48 
L 189.878105 51.84 
L 194.164917 51.84 
L 194.164917 384.48 
z
" style="fill:#008000;opacity:0.04;"/>
   </g>
   <g id="patch_13">
    <path clip-path="url(#pd09fa076bc)" d="M 198.451729 384.48 
L 198.451729 51.84 
L 202.73854 51.84 
L 202.73854 384.48 
z
" style="fill:#008000;opacity:0.04;"/>
   </g>
   <g id="patch_14">
    <path clip-path="url(#pd09fa076bc)" d="M 207.025352 384.48 
L 207.025352 51.84 
L 211.312164 51.84 
L 211.312164 384.48 
z
" style="fill:#008000;opacity:0.04;"/>
   </g>
   <g id="patch_15">
    <path clip-path="url(#pd09fa076bc)" d="M 215.598976 384.48 
L 215.598976 51.84 
L 219.885787 51.84 
L 219.885787 384.48 
z
" style="fill:#008000;opacity:0.04;"/>
   </g>
   <g id="patch_16">
    <path clip-path="url(#pd09fa076bc)" d="M 224.172599 384.48 
L 224.172599 51.84 
L 228.459411 51.84 
L 228.459411 384.48 
z
" style="fill:#008000;opacity:0.04;"/>
   </g>
   <g id="patch_17">
    <path clip-path="url(#pd09fa076bc)" d="M 232.746223 384.48 
L 232.746223 51.84 
L 237.033035 51.84 
L 237.033035 384.48 
z
" style="fill:#008000;opacity:0.04;"/>
   </g>
   <g id="patch_18">
    <path clip-path="url(#pd09fa076bc)" d="M 237.033035 384.48 
L 237.033035 371.1744 
L 241.319846 371.1744 
L 241.319846 384.48 
z
" style="fill:#ffe500;"/>
   </g>
   <g id="patch_19">
    <path clip-path="url(#pd09fa076bc)" d="M 241.319846 384.48 
L 241.319846 51.84 
L 245.606658 51.84 
L 245.606658 384.48 
z
" style="fill:#008000;opacity:0.04;"/>
   </g>
   <g id="patch_20">
    <path clip-path="url(#pd09fa076bc)" d="M 249.89347 384.48 
L 249.89347 51.84 
L 254.180282 51.84 
L 254.180282 384.48 
z
" style="fill:#008000;opacity:0.04;"/>
   </g>
   <g id="patch_21">
    <path clip-path="url(#pd09fa076bc)" d="M 254.180282 384.48 
L 254.180282 371.1744 
L 258.467093 371.1744 
L 258.467093 384.48 
z
" style="fill:#ffe500;"/>
   </g>
   <g id="patch_22">
    <path clip-path="url(#pd09fa076bc)" d="M 258.467093 384.48 
L 258.467093 51.84 
L 262.753905 51.84 
L 262.753905 384.48 
z
" style="fill:#008000;opacity:0.04;"/>
   </g>
   <g id="patch_23">
    <path clip-path="url(#pd09fa076bc)" d="M 498.528553 384.48 
L 498.528553 371.1744 
L 502.815365 371.1744 
L 502.815365 384.48 
z
" style="fill:#ff6600;"/>
   </g>
   <g id="patch_24">
    <path clip-path="url(#pd09fa076bc)" d="M 267.040717 384.48 
L 267.040717 51.84 
L 271.327529 51.84 
L 271.327529 384.48 
z
" style="fill:#008000;opacity:0.04;"/>
   </g>
   <g id="patch_25">
    <path clip-path="url(#pd09fa076bc)" d="M 275.614341 384.48 
L 275.614341 51.84 
L 279.901152 51.84 
L 279.901152 384.48 
z
" style="fill:#008000;opacity:0.04;"/>
   </g>
   <g id="patch_26">
    <path clip-path="url(#pd09fa076bc)" d="M 519.962612 384.48 
L 519.962612 371.1744 
L 524.249424 371.1744 
L 524.249424 384.48 
z
" style="fill:#ff6600;"/>
   </g>
   <g id="patch_27">
    <path clip-path="url(#pd09fa076bc)" d="M 284.187964 384.48 
L 284.187964 51.84 
L 288.474776 51.84 
L 288.474776 384.48 
z
" style="fill:#008000;opacity:0.04;"/>
   </g>
   <g id="patch_28">
    <path clip-path="url(#pd09fa076bc)" d="M 292.761588 384.48 
L 292.761588 51.84 
L 297.048399 51.84 
L 297.048399 384.48 
z
" style="fill:#008000;opacity:0.04;"/>
   </g>
   <g id="patch_29">
    <path clip-path="url(#pd09fa076bc)" d="M 301.335211 384.48 
L 301.335211 51.84 
L 305.622023 51.84 
L 305.622023 384.48 
z
" style="fill:#008000;opacity:0.04;"/>
   </g>
   <g id="patch_30">
    <path clip-path="url(#pd09fa076bc)" d="M 309.908835 384.48 
L 309.908835 51.84 
L 314.195647 51.84 
L 314.195647 384.48 
z
" style="fill:#008000;opacity:0.04;"/>
   </g>
   <g id="patch_31">
    <path clip-path="url(#pd09fa076bc)" d="M 318.482458 384.48 
L 318.482458 51.84 
L 322.76927 51.84 
L 322.76927 384.48 
z
" style="fill:#008000;opacity:0.04;"/>
   </g>
   <g id="patch_32">
    <path clip-path="url(#pd09fa076bc)" d="M 327.056082 384.48 
L 327.056082 51.84 
L 331.342894 51.84 
L 331.342894 384.48 
z
" style="fill:#008000;opacity:0.04;"/>
   </g>
   <g id="patch_33">
    <path clip-path="url(#pd09fa076bc)" d="M 335.629706 384.48 
L 335.629706 51.84 
L 339.916517 51.84 
L 339.916517 384.48 
z
" style="fill:#008000;opacity:0.04;"/>
   </g>
   <g id="patch_34">
    <path clip-path="url(#pd09fa076bc)" d="M 344.203329 384.48 
L 344.203329 51.84 
L 348.490141 51.84 
L 348.490141 384.48 
z
" style="fill:#008000;opacity:0.04;"/>
   </g>
   <g id="patch_35">
    <path clip-path="url(#pd09fa076bc)" d="M 348.490141 384.48 
L 348.490141 371.1744 
L 352.776953 371.1744 
L 352.776953 384.48 
z
" style="fill:#ffe500;"/>
   </g>
   <g id="patch_36">
    <path clip-path="url(#pd09fa076bc)" d="M 352.776953 384.48 
L 352.776953 51.84 
L 357.063764 51.84 
L 357.063764 384.48 
z
" style="fill:#008000;opacity:0.04;"/>
   </g>
   <g id="patch_37">
    <path clip-path="url(#pd09fa076bc)" d="M 357.063764 384.48 
L 357.063764 371.1744 
L 361.350576 371.1744 
L 361.350576 384.48 
z
" style="fill:#ffe500;"/>
   </g>
   <g id="patch_38">
    <path clip-path="url(#pd09fa076bc)" d="M 361.350576 384.48 
L 361.350576 51.84 
L 365.637388 51.84 
L 365.637388 384.48 
z
" style="fill:#008000;opacity:0.04;"/>
   </g>
   <g id="patch_39">
    <path clip-path="url(#pd09fa076bc)" d="M 369.9242 384.48 
L 369.9242 51.84 
L 374.211012 51.84 
L 374.211012 384.48 
z
" style="fill:#008000;opacity:0.04;"/>
   </g>
   <g id="patch_40">
    <path clip-path="url(#pd09fa076bc)" d="M 378.497823 384.48 
L 378.497823 51.84 
L 382.784635 51.84 
L 382.784635 384.48 
z
" style="fill:#008000;opacity:0.04;"/>
   </g>
   <g id="patch_41">
    <path clip-path="url(#pd09fa076bc)" d="M 387.071447 384.48 
L 387.071447 51.84 
L 391.358259 51.84 
L 391.358259 384.48 
z
" style="fill:#008000;opacity:0.04;"/>
   </g>
   <g id="patch_42">
    <path clip-path="url(#pd09fa076bc)" d="M 395.64507 384.48 
L 395.64507 51.84 
L 399.931882 51.84 
L 399.931882 384.48 
z
" style="fill:#008000;opacity:0.04;"/>
   </g>
   <g id="patch_43">
    <path clip-path="url(#pd09fa076bc)" d="M 404.218694 384.48 
L 404.218694 51.84 
L 408.505506 51.84 
L 408.505506 384.48 
z
" style="fill:#008000;opacity:0.04;"/>
   </g>
   <g id="patch_44">
    <path clip-path="url(#pd09fa076bc)" d="M 412.792318 384.48 
L 412.792318 51.84 
L 417.079129 51.84 
L 417.079129 384.48 
z
" style="fill:#008000;opacity:0.04;"/>
   </g>
   <g id="patch_45">
    <path clip-path="url(#pd09fa076bc)" d="M 421.365941 384.48 
L 421.365941 51.84 
L 425.652753 51.84 
L 425.652753 384.48 
z
" style="fill:#008000;opacity:0.04;"/>
   </g>
   <g id="patch_46">
    <path clip-path="url(#pd09fa076bc)" d="M 429.939565 384.48 
L 429.939565 51.84 
L 434.226376 51.84 
L 434.226376 384.48 
z
" style="fill:#008000;opacity:0.04;"/>
   </g>
   <g id="patch_47">
    <path clip-path="url(#pd09fa076bc)" d="M 438.513188 384.48 
L 438.513188 51.84 
L 442.8 51.84 
L 442.8 384.48 
z
" style="fill:#008000;opacity:0.04;"/>
   </g>
   <g id="patch_48">
    <path clip-path="url(#pd09fa076bc)" d="M 447.086812 384.48 
L 447.086812 51.84 
L 451.373624 51.84 
L 451.373624 384.48 
z
" style="fill:#008000;opacity:0.04;"/>
   </g>
   <g id="patch_49">
    <path clip-path="url(#pd09fa076bc)" d="M 455.660435 384.48 
L 455.660435 51.84 
L 459.947247 51.84 
L 459.947247 384.48 
z
" style="fill:#008000;opacity:0.04;"/>
   </g>
   <g id="patch_50">
    <path clip-path="url(#pd09fa076bc)" d="M 464.234059 384.48 
L 464.234059 51.84 
L 468.520871 51.84 
L 468.520871 384.48 
z
" style="fill:#008000;opacity:0.04;"/>
   </g>
   <g id="patch_51">
    <path clip-path="url(#pd09fa076bc)" d="M 472.807682 384.48 
L 472.807682 51.84 
L 477.094494 51.84 
L 477.094494 384.48 
z
" style="fill:#008000;opacity:0.04;"/>
   </g>
   <g id="patch_52">
    <path clip-path="url(#pd09fa076bc)" d="M 481.381306 384.48 
L 481.381306 51.84 
L 485.668118 51.84 
L 485.668118 384.48 
z
" style="fill:#008000;opacity:0.04;"/>
   </g>
   <g id="patch_53">
    <path clip-path="url(#pd09fa076bc)" d="M 489.95493 384.48 
L 489.95493 51.84 
L 494.241741 51.84 
L 494.241741 384.48 
z
" style="fill:#008000;opacity:0.04;"/>
   </g>
   <g id="patch_54">
    <path clip-path="url(#pd09fa076bc)" d="M 498.528553 384.48 
L 498.528553 51.84 
L 502.815365 51.84 
L 502.815365 384.48 
z
" style="fill:#008000;opacity:0.04;"/>
   </g>
   <g id="patch_55">
    <path clip-path="url(#pd09fa076bc)" d="M 507.102177 384.48 
L 507.102177 51.84 
L 511.388988 51.84 
L 511.388988 384.48 
z
" style="fill:#008000;opacity:0.04;"/>
   </g>
   <g id="patch_56">
    <path clip-path="url(#pd09fa076bc)" d="M 515.6758 384.48 
L 515.6758 51.84 
L 519.962612 51.84 
L 519.962612 384.48 
z
" style="fill:#008000;opacity:0.04;"/>
   </g>
   <g id="patch_57">
    <path clip-path="url(#pd09fa076bc)" d="M 519.962612 371.1744 
L 519.962612 51.84 
L 524.249424 51.84 
L 524.249424 371.1744 
z
" style="fill:#008000;opacity:0.5;"/>
   </g>
   <g id="patch_58">
    <path clip-path="url(#pd09fa076bc)" d="M 524.249424 384.48 
L 524.249424 51.84 
L 528.536236 51.84 
L 528.536236 384.48 
z
" style="fill:#008000;opacity:0.04;"/>
   </g>
   <g id="patch_59">
    <path clip-path="url(#pd09fa076bc)" d="M 532.823047 384.48 
L 532.823047 51.84 
L 537.109859 51.84 
L 537.109859 384.48 
z
" style="fill:#008000;opacity:0.04;"/>
   </g>
   <g id="patch_60">
    <path clip-path="url(#pd09fa076bc)" d="M 541.396671 384.48 
L 541.396671 51.84 
L 545.683483 51.84 
L 545.683483 384.48 
z
" style="fill:#008000;opacity:0.04;"/>
   </g>
   <g id="patch_61">
    <path clip-path="url(#pd09fa076bc)" d="M 549.970294 384.48 
L 549.970294 51.84 
L 554.257106 51.84 
L 554.257106 384.48 
z
" style="fill:#008000;opacity:0.04;"/>
   </g>
   <g id="patch_62">
    <path clip-path="url(#pd09fa076bc)" d="M 558.543918 384.48 
L 558.543918 51.84 
L 562.83073 51.84 
L 562.83073 384.48 
z
" style="fill:#008000;opacity:0.04;"/>
   </g>
   <g id="patch_63">
    <path clip-path="url(#pd09fa076bc)" d="M 567.117542 384.48 
L 567.117542 51.84 
L 571.404353 51.84 
L 571.404353 384.48 
z
" style="fill:#008000;opacity:0.04;"/>
   </g>
   <g id="patch_64">
    <path clip-path="url(#pd09fa076bc)" d="M 575.691165 384.48 
L 575.691165 51.84 
L 579.977977 51.84 
L 579.977977 384.48 
z
" style="fill:#008000;opacity:0.04;"/>
   </g>
   <g id="patch_65">
    <path clip-path="url(#pd09fa076bc)" d="M 584.264789 384.48 
L 584.264789 51.84 
L 588.551601 51.84 
L 588.551601 384.48 
z
" style="fill:#008000;opacity:0.04;"/>
   </g>
   <g id="patch_66">
    <path clip-path="url(#pd09fa076bc)" d="M 592.838412 384.48 
L 592.838412 51.84 
L 597.125224 51.84 
L 597.125224 384.48 
z
" style="fill:#008000;opacity:0.04;"/>
   </g>
   <g id="patch_67">
    <path clip-path="url(#pd09fa076bc)" d="M 601.412036 384.48 
L 601.412036 51.84 
L 605.698848 51.84 
L 605.698848 384.48 
z
" style="fill:#008000;opacity:0.04;"/>
   </g>
   <g id="patch_68">
    <path clip-path="url(#pd09fa076bc)" d="M 609.985659 384.48 
L 609.985659 51.84 
L 614.272471 51.84 
L 614.272471 384.48 
z
" style="fill:#008000;opacity:0.04;"/>
   </g>
   <g id="patch_69">
    <path clip-path="url(#pd09fa076bc)" d="M 618.559283 384.48 
L 618.559283 51.84 
L 622.846095 51.84 
L 622.846095 384.48 
z
" style="fill:#008000;opacity:0.04;"/>
   </g>
   <g id="patch_70">
    <path clip-path="url(#pd09fa076bc)" d="M 627.132907 384.48 
L 627.132907 51.84 
L 631.419718 51.84 
L 631.419718 384.48 
z
" style="fill:#008000;opacity:0.04;"/>
   </g>
   <g id="patch_71">
    <path clip-path="url(#pd09fa076bc)" d="M 635.70653 384.48 
L 635.70653 51.84 
L 639.993342 51.84 
L 639.993342 384.48 
z
" style="fill:#008000;opacity:0.04;"/>
   </g>
   <g id="patch_72">
    <path clip-path="url(#pd09fa076bc)" d="M 644.280154 384.48 
L 644.280154 51.84 
L 648.566965 51.84 
L 648.566965 384.48 
z
" style="fill:#008000;opacity:0.04;"/>
   </g>
   <g id="patch_73">
    <path clip-path="url(#pd09fa076bc)" d="M 652.853777 384.48 
L 652.853777 51.84 
L 657.140589 51.84 
L 657.140589 384.48 
z
" style="fill:#008000;opacity:0.04;"/>
   </g>
   <g id="patch_74">
    <path clip-path="url(#pd09fa076bc)" d="M 661.427401 384.48 
L 661.427401 51.84 
L 665.714213 51.84 
L 665.714213 384.48 
z
" style="fill:#008000;opacity:0.04;"/>
   </g>
   <g id="patch_75">
    <path clip-path="url(#pd09fa076bc)" d="M 670.001024 384.48 
L 670.001024 51.84 
L 674.287836 51.84 
L 674.287836 384.48 
z
" style="fill:#008000;opacity:0.04;"/>
   </g>
   <g id="patch_76">
    <path clip-path="url(#pd09fa076bc)" d="M 678.574648 384.48 
L 678.574648 51.84 
L 682.86146 51.84 
L 682.86146 384.48 
z
" style="fill:#008000;opacity:0.04;"/>
   </g>
   <g id="patch_77">
    <path clip-path="url(#pd09fa076bc)" d="M 687.148271 384.48 
L 687.148271 51.84 
L 691.435083 51.84 
L 691.435083 384.48 
z
" style="fill:#008000;opacity:0.04;"/>
   </g>
   <g id="patch_78">
    <path clip-path="url(#pd09fa076bc)" d="M 695.721895 384.48 
L 695.721895 51.84 
L 700.008707 51.84 
L 700.008707 384.48 
z
" style="fill:#008000;opacity:0.04;"/>
   </g>
   <g id="patch_79">
    <path clip-path="url(#pd09fa076bc)" d="M 704.295519 384.48 
L 704.295519 51.84 
L 708.58233 51.84 
L 708.58233 384.48 
z
" style="fill:#008000;opacity:0.04;"/>
   </g>
   <g id="patch_80">
    <path clip-path="url(#pd09fa076bc)" d="M 712.869142 384.48 
L 712.869142 51.84 
L 717.155954 51.84 
L 717.155954 384.48 
z
" style="fill:#008000;opacity:0.04;"/>
   </g>
   <g id="patch_81">
    <path clip-path="url(#pd09fa076bc)" d="M 721.442766 384.48 
L 721.442766 51.84 
L 725.729577 51.84 
L 725.729577 384.48 
z
" style="fill:#008000;opacity:0.04;"/>
   </g>
   <g id="patch_82">
    <path clip-path="url(#pd09fa076bc)" d="M 730.016389 384.48 
L 730.016389 51.84 
L 734.303201 51.84 
L 734.303201 384.48 
z
" style="fill:#008000;opacity:0.04;"/>
   </g>
   <g id="patch_83">
    <path clip-path="url(#pd09fa076bc)" d="M 738.590013 384.48 
L 738.590013 51.84 
L 742.876825 51.84 
L 742.876825 384.48 
z
" style="fill:#008000;opacity:0.04;"/>
   </g>
   <g id="matplotlib.axis_1">
    <g id="xtick_1">
     <g id="line2d_1">
      <defs>
       <path d="M 0 0 
L 0 3.5 
" id="m8730ba6ac0" style="stroke:#000000;stroke-width:0.8;"/>
      </defs>
      <g>
       <use style="stroke:#000000;stroke-width:0.8;" x="138.436364" xlink:href="#m8730ba6ac0" y="384.48"/>
      </g>
     </g>
     <g id="text_1">
      <!-- 0 -->
      <defs>
       <path d="M 31.78125 66.40625 
Q 24.171875 66.40625 20.328125 58.90625 
Q 16.5 51.421875 16.5 36.375 
Q 16.5 21.390625 20.328125 13.890625 
Q 24.171875 6.390625 31.78125 6.390625 
Q 39.453125 6.390625 43.28125 13.890625 
Q 47.125 21.390625 47.125 36.375 
Q 47.125 51.421875 43.28125 58.90625 
Q 39.453125 66.40625 31.78125 66.40625 
z
M 31.78125 74.21875 
Q 44.046875 74.21875 50.515625 64.515625 
Q 56.984375 54.828125 56.984375 36.375 
Q 56.984375 17.96875 50.515625 8.265625 
Q 44.046875 -1.421875 31.78125 -1.421875 
Q 19.53125 -1.421875 13.0625 8.265625 
Q 6.59375 17.96875 6.59375 36.375 
Q 6.59375 54.828125 13.0625 64.515625 
Q 19.53125 74.21875 31.78125 74.21875 
z
" id="DejaVuSans-48"/>
      </defs>
      <g transform="translate(135.255114 399.078438)scale(0.1 -0.1)">
       <use xlink:href="#DejaVuSans-48"/>
      </g>
     </g>
    </g>
    <g id="xtick_2">
     <g id="line2d_2">
      <g>
       <use style="stroke:#000000;stroke-width:0.8;" x="224.172599" xlink:href="#m8730ba6ac0" y="384.48"/>
      </g>
     </g>
     <g id="text_2">
      <!-- 200 -->
      <defs>
       <path d="M 19.1875 8.296875 
L 53.609375 8.296875 
L 53.609375 0 
L 7.328125 0 
L 7.328125 8.296875 
Q 12.9375 14.109375 22.625 23.890625 
Q 32.328125 33.6875 34.8125 36.53125 
Q 39.546875 41.84375 41.421875 45.53125 
Q 43.3125 49.21875 43.3125 52.78125 
Q 43.3125 58.59375 39.234375 62.25 
Q 35.15625 65.921875 28.609375 65.921875 
Q 23.96875 65.921875 18.8125 64.3125 
Q 13.671875 62.703125 7.8125 59.421875 
L 7.8125 69.390625 
Q 13.765625 71.78125 18.9375 73 
Q 24.125 74.21875 28.421875 74.21875 
Q 39.75 74.21875 46.484375 68.546875 
Q 53.21875 62.890625 53.21875 53.421875 
Q 53.21875 48.921875 51.53125 44.890625 
Q 49.859375 40.875 45.40625 35.40625 
Q 44.1875 33.984375 37.640625 27.21875 
Q 31.109375 20.453125 19.1875 8.296875 
z
" id="DejaVuSans-50"/>
      </defs>
      <g transform="translate(214.628849 399.078438)scale(0.1 -0.1)">
       <use xlink:href="#DejaVuSans-50"/>
       <use x="63.623047" xlink:href="#DejaVuSans-48"/>
       <use x="127.246094" xlink:href="#DejaVuSans-48"/>
      </g>
     </g>
    </g>
    <g id="xtick_3">
     <g id="line2d_3">
      <g>
       <use style="stroke:#000000;stroke-width:0.8;" x="309.908835" xlink:href="#m8730ba6ac0" y="384.48"/>
      </g>
     </g>
     <g id="text_3">
      <!-- 400 -->
      <defs>
       <path d="M 37.796875 64.3125 
L 12.890625 25.390625 
L 37.796875 25.390625 
z
M 35.203125 72.90625 
L 47.609375 72.90625 
L 47.609375 25.390625 
L 58.015625 25.390625 
L 58.015625 17.1875 
L 47.609375 17.1875 
L 47.609375 0 
L 37.796875 0 
L 37.796875 17.1875 
L 4.890625 17.1875 
L 4.890625 26.703125 
z
" id="DejaVuSans-52"/>
      </defs>
      <g transform="translate(300.365085 399.078438)scale(0.1 -0.1)">
       <use xlink:href="#DejaVuSans-52"/>
       <use x="63.623047" xlink:href="#DejaVuSans-48"/>
       <use x="127.246094" xlink:href="#DejaVuSans-48"/>
      </g>
     </g>
    </g>
    <g id="xtick_4">
     <g id="line2d_4">
      <g>
       <use style="stroke:#000000;stroke-width:0.8;" x="395.64507" xlink:href="#m8730ba6ac0" y="384.48"/>
      </g>
     </g>
     <g id="text_4">
      <!-- 600 -->
      <defs>
       <path d="M 33.015625 40.375 
Q 26.375 40.375 22.484375 35.828125 
Q 18.609375 31.296875 18.609375 23.390625 
Q 18.609375 15.53125 22.484375 10.953125 
Q 26.375 6.390625 33.015625 6.390625 
Q 39.65625 6.390625 43.53125 10.953125 
Q 47.40625 15.53125 47.40625 23.390625 
Q 47.40625 31.296875 43.53125 35.828125 
Q 39.65625 40.375 33.015625 40.375 
z
M 52.59375 71.296875 
L 52.59375 62.3125 
Q 48.875 64.0625 45.09375 64.984375 
Q 41.3125 65.921875 37.59375 65.921875 
Q 27.828125 65.921875 22.671875 59.328125 
Q 17.53125 52.734375 16.796875 39.40625 
Q 19.671875 43.65625 24.015625 45.921875 
Q 28.375 48.1875 33.59375 48.1875 
Q 44.578125 48.1875 50.953125 41.515625 
Q 57.328125 34.859375 57.328125 23.390625 
Q 57.328125 12.15625 50.6875 5.359375 
Q 44.046875 -1.421875 33.015625 -1.421875 
Q 20.359375 -1.421875 13.671875 8.265625 
Q 6.984375 17.96875 6.984375 36.375 
Q 6.984375 53.65625 15.1875 63.9375 
Q 23.390625 74.21875 37.203125 74.21875 
Q 40.921875 74.21875 44.703125 73.484375 
Q 48.484375 72.75 52.59375 71.296875 
z
" id="DejaVuSans-54"/>
      </defs>
      <g transform="translate(386.10132 399.078438)scale(0.1 -0.1)">
       <use xlink:href="#DejaVuSans-54"/>
       <use x="63.623047" xlink:href="#DejaVuSans-48"/>
       <use x="127.246094" xlink:href="#DejaVuSans-48"/>
      </g>
     </g>
    </g>
    <g id="xtick_5">
     <g id="line2d_5">
      <g>
       <use style="stroke:#000000;stroke-width:0.8;" x="481.381306" xlink:href="#m8730ba6ac0" y="384.48"/>
      </g>
     </g>
     <g id="text_5">
      <!-- 800 -->
      <defs>
       <path d="M 31.78125 34.625 
Q 24.75 34.625 20.71875 30.859375 
Q 16.703125 27.09375 16.703125 20.515625 
Q 16.703125 13.921875 20.71875 10.15625 
Q 24.75 6.390625 31.78125 6.390625 
Q 38.8125 6.390625 42.859375 10.171875 
Q 46.921875 13.96875 46.921875 20.515625 
Q 46.921875 27.09375 42.890625 30.859375 
Q 38.875 34.625 31.78125 34.625 
z
M 21.921875 38.8125 
Q 15.578125 40.375 12.03125 44.71875 
Q 8.5 49.078125 8.5 55.328125 
Q 8.5 64.0625 14.71875 69.140625 
Q 20.953125 74.21875 31.78125 74.21875 
Q 42.671875 74.21875 48.875 69.140625 
Q 55.078125 64.0625 55.078125 55.328125 
Q 55.078125 49.078125 51.53125 44.71875 
Q 48 40.375 41.703125 38.8125 
Q 48.828125 37.15625 52.796875 32.3125 
Q 56.78125 27.484375 56.78125 20.515625 
Q 56.78125 9.90625 50.3125 4.234375 
Q 43.84375 -1.421875 31.78125 -1.421875 
Q 19.734375 -1.421875 13.25 4.234375 
Q 6.78125 9.90625 6.78125 20.515625 
Q 6.78125 27.484375 10.78125 32.3125 
Q 14.796875 37.15625 21.921875 38.8125 
z
M 18.3125 54.390625 
Q 18.3125 48.734375 21.84375 45.5625 
Q 25.390625 42.390625 31.78125 42.390625 
Q 38.140625 42.390625 41.71875 45.5625 
Q 45.3125 48.734375 45.3125 54.390625 
Q 45.3125 60.0625 41.71875 63.234375 
Q 38.140625 66.40625 31.78125 66.40625 
Q 25.390625 66.40625 21.84375 63.234375 
Q 18.3125 60.0625 18.3125 54.390625 
z
" id="DejaVuSans-56"/>
      </defs>
      <g transform="translate(471.837556 399.078438)scale(0.1 -0.1)">
       <use xlink:href="#DejaVuSans-56"/>
       <use x="63.623047" xlink:href="#DejaVuSans-48"/>
       <use x="127.246094" xlink:href="#DejaVuSans-48"/>
      </g>
     </g>
    </g>
    <g id="xtick_6">
     <g id="line2d_6">
      <g>
       <use style="stroke:#000000;stroke-width:0.8;" x="567.117542" xlink:href="#m8730ba6ac0" y="384.48"/>
      </g>
     </g>
     <g id="text_6">
      <!-- 1000 -->
      <defs>
       <path d="M 12.40625 8.296875 
L 28.515625 8.296875 
L 28.515625 63.921875 
L 10.984375 60.40625 
L 10.984375 69.390625 
L 28.421875 72.90625 
L 38.28125 72.90625 
L 38.28125 8.296875 
L 54.390625 8.296875 
L 54.390625 0 
L 12.40625 0 
z
" id="DejaVuSans-49"/>
      </defs>
      <g transform="translate(554.392542 399.078438)scale(0.1 -0.1)">
       <use xlink:href="#DejaVuSans-49"/>
       <use x="63.623047" xlink:href="#DejaVuSans-48"/>
       <use x="127.246094" xlink:href="#DejaVuSans-48"/>
       <use x="190.869141" xlink:href="#DejaVuSans-48"/>
      </g>
     </g>
    </g>
    <g id="xtick_7">
     <g id="line2d_7">
      <g>
       <use style="stroke:#000000;stroke-width:0.8;" x="652.853777" xlink:href="#m8730ba6ac0" y="384.48"/>
      </g>
     </g>
     <g id="text_7">
      <!-- 1200 -->
      <g transform="translate(640.128777 399.078438)scale(0.1 -0.1)">
       <use xlink:href="#DejaVuSans-49"/>
       <use x="63.623047" xlink:href="#DejaVuSans-50"/>
       <use x="127.246094" xlink:href="#DejaVuSans-48"/>
       <use x="190.869141" xlink:href="#DejaVuSans-48"/>
      </g>
     </g>
    </g>
    <g id="xtick_8">
     <g id="line2d_8">
      <g>
       <use style="stroke:#000000;stroke-width:0.8;" x="738.590013" xlink:href="#m8730ba6ac0" y="384.48"/>
      </g>
     </g>
     <g id="text_8">
      <!-- 1400 -->
      <g transform="translate(725.865013 399.078438)scale(0.1 -0.1)">
       <use xlink:href="#DejaVuSans-49"/>
       <use x="63.623047" xlink:href="#DejaVuSans-52"/>
       <use x="127.246094" xlink:href="#DejaVuSans-48"/>
       <use x="190.869141" xlink:href="#DejaVuSans-48"/>
      </g>
     </g>
    </g>
    <g id="text_9">
     <!-- Timestamp -->
     <defs>
      <path d="M -0.296875 72.90625 
L 61.375 72.90625 
L 61.375 64.59375 
L 35.5 64.59375 
L 35.5 0 
L 25.59375 0 
L 25.59375 64.59375 
L -0.296875 64.59375 
z
" id="DejaVuSans-84"/>
      <path d="M 9.421875 54.6875 
L 18.40625 54.6875 
L 18.40625 0 
L 9.421875 0 
z
M 9.421875 75.984375 
L 18.40625 75.984375 
L 18.40625 64.59375 
L 9.421875 64.59375 
z
" id="DejaVuSans-105"/>
      <path d="M 52 44.1875 
Q 55.375 50.25 60.0625 53.125 
Q 64.75 56 71.09375 56 
Q 79.640625 56 84.28125 50.015625 
Q 88.921875 44.046875 88.921875 33.015625 
L 88.921875 0 
L 79.890625 0 
L 79.890625 32.71875 
Q 79.890625 40.578125 77.09375 44.375 
Q 74.3125 48.1875 68.609375 48.1875 
Q 61.625 48.1875 57.5625 43.546875 
Q 53.515625 38.921875 53.515625 30.90625 
L 53.515625 0 
L 44.484375 0 
L 44.484375 32.71875 
Q 44.484375 40.625 41.703125 44.40625 
Q 38.921875 48.1875 33.109375 48.1875 
Q 26.21875 48.1875 22.15625 43.53125 
Q 18.109375 38.875 18.109375 30.90625 
L 18.109375 0 
L 9.078125 0 
L 9.078125 54.6875 
L 18.109375 54.6875 
L 18.109375 46.1875 
Q 21.1875 51.21875 25.484375 53.609375 
Q 29.78125 56 35.6875 56 
Q 41.65625 56 45.828125 52.96875 
Q 50 49.953125 52 44.1875 
z
" id="DejaVuSans-109"/>
      <path d="M 56.203125 29.59375 
L 56.203125 25.203125 
L 14.890625 25.203125 
Q 15.484375 15.921875 20.484375 11.0625 
Q 25.484375 6.203125 34.421875 6.203125 
Q 39.59375 6.203125 44.453125 7.46875 
Q 49.3125 8.734375 54.109375 11.28125 
L 54.109375 2.78125 
Q 49.265625 0.734375 44.1875 -0.34375 
Q 39.109375 -1.421875 33.890625 -1.421875 
Q 20.796875 -1.421875 13.15625 6.1875 
Q 5.515625 13.8125 5.515625 26.8125 
Q 5.515625 40.234375 12.765625 48.109375 
Q 20.015625 56 32.328125 56 
Q 43.359375 56 49.78125 48.890625 
Q 56.203125 41.796875 56.203125 29.59375 
z
M 47.21875 32.234375 
Q 47.125 39.59375 43.09375 43.984375 
Q 39.0625 48.390625 32.421875 48.390625 
Q 24.90625 48.390625 20.390625 44.140625 
Q 15.875 39.890625 15.1875 32.171875 
z
" id="DejaVuSans-101"/>
      <path d="M 44.28125 53.078125 
L 44.28125 44.578125 
Q 40.484375 46.53125 36.375 47.5 
Q 32.28125 48.484375 27.875 48.484375 
Q 21.1875 48.484375 17.84375 46.4375 
Q 14.5 44.390625 14.5 40.28125 
Q 14.5 37.15625 16.890625 35.375 
Q 19.28125 33.59375 26.515625 31.984375 
L 29.59375 31.296875 
Q 39.15625 29.25 43.1875 25.515625 
Q 47.21875 21.78125 47.21875 15.09375 
Q 47.21875 7.46875 41.1875 3.015625 
Q 35.15625 -1.421875 24.609375 -1.421875 
Q 20.21875 -1.421875 15.453125 -0.5625 
Q 10.6875 0.296875 5.421875 2 
L 5.421875 11.28125 
Q 10.40625 8.6875 15.234375 7.390625 
Q 20.0625 6.109375 24.8125 6.109375 
Q 31.15625 6.109375 34.5625 8.28125 
Q 37.984375 10.453125 37.984375 14.40625 
Q 37.984375 18.0625 35.515625 20.015625 
Q 33.0625 21.96875 24.703125 23.78125 
L 21.578125 24.515625 
Q 13.234375 26.265625 9.515625 29.90625 
Q 5.8125 33.546875 5.8125 39.890625 
Q 5.8125 47.609375 11.28125 51.796875 
Q 16.75 56 26.8125 56 
Q 31.78125 56 36.171875 55.265625 
Q 40.578125 54.546875 44.28125 53.078125 
z
" id="DejaVuSans-115"/>
      <path d="M 18.3125 70.21875 
L 18.3125 54.6875 
L 36.8125 54.6875 
L 36.8125 47.703125 
L 18.3125 47.703125 
L 18.3125 18.015625 
Q 18.3125 11.328125 20.140625 9.421875 
Q 21.96875 7.515625 27.59375 7.515625 
L 36.8125 7.515625 
L 36.8125 0 
L 27.59375 0 
Q 17.1875 0 13.234375 3.875 
Q 9.28125 7.765625 9.28125 18.015625 
L 9.28125 47.703125 
L 2.6875 47.703125 
L 2.6875 54.6875 
L 9.28125 54.6875 
L 9.28125 70.21875 
z
" id="DejaVuSans-116"/>
      <path d="M 34.28125 27.484375 
Q 23.390625 27.484375 19.1875 25 
Q 14.984375 22.515625 14.984375 16.5 
Q 14.984375 11.71875 18.140625 8.90625 
Q 21.296875 6.109375 26.703125 6.109375 
Q 34.1875 6.109375 38.703125 11.40625 
Q 43.21875 16.703125 43.21875 25.484375 
L 43.21875 27.484375 
z
M 52.203125 31.203125 
L 52.203125 0 
L 43.21875 0 
L 43.21875 8.296875 
Q 40.140625 3.328125 35.546875 0.953125 
Q 30.953125 -1.421875 24.3125 -1.421875 
Q 15.921875 -1.421875 10.953125 3.296875 
Q 6 8.015625 6 15.921875 
Q 6 25.140625 12.171875 29.828125 
Q 18.359375 34.515625 30.609375 34.515625 
L 43.21875 34.515625 
L 43.21875 35.40625 
Q 43.21875 41.609375 39.140625 45 
Q 35.0625 48.390625 27.6875 48.390625 
Q 23 48.390625 18.546875 47.265625 
Q 14.109375 46.140625 10.015625 43.890625 
L 10.015625 52.203125 
Q 14.9375 54.109375 19.578125 55.046875 
Q 24.21875 56 28.609375 56 
Q 40.484375 56 46.34375 49.84375 
Q 52.203125 43.703125 52.203125 31.203125 
z
" id="DejaVuSans-97"/>
      <path d="M 18.109375 8.203125 
L 18.109375 -20.796875 
L 9.078125 -20.796875 
L 9.078125 54.6875 
L 18.109375 54.6875 
L 18.109375 46.390625 
Q 20.953125 51.265625 25.265625 53.625 
Q 29.59375 56 35.59375 56 
Q 45.5625 56 51.78125 48.09375 
Q 58.015625 40.1875 58.015625 27.296875 
Q 58.015625 14.40625 51.78125 6.484375 
Q 45.5625 -1.421875 35.59375 -1.421875 
Q 29.59375 -1.421875 25.265625 0.953125 
Q 20.953125 3.328125 18.109375 8.203125 
z
M 48.6875 27.296875 
Q 48.6875 37.203125 44.609375 42.84375 
Q 40.53125 48.484375 33.40625 48.484375 
Q 26.265625 48.484375 22.1875 42.84375 
Q 18.109375 37.203125 18.109375 27.296875 
Q 18.109375 17.390625 22.1875 11.75 
Q 26.265625 6.109375 33.40625 6.109375 
Q 40.53125 6.109375 44.609375 11.75 
Q 48.6875 17.390625 48.6875 27.296875 
z
" id="DejaVuSans-112"/>
     </defs>
     <g transform="translate(414.739062 412.756563)scale(0.1 -0.1)">
      <use xlink:href="#DejaVuSans-84"/>
      <use x="61.037109" xlink:href="#DejaVuSans-105"/>
      <use x="88.820312" xlink:href="#DejaVuSans-109"/>
      <use x="186.232422" xlink:href="#DejaVuSans-101"/>
      <use x="247.755859" xlink:href="#DejaVuSans-115"/>
      <use x="299.855469" xlink:href="#DejaVuSans-116"/>
      <use x="339.064453" xlink:href="#DejaVuSans-97"/>
      <use x="400.34375" xlink:href="#DejaVuSans-109"/>
      <use x="497.755859" xlink:href="#DejaVuSans-112"/>
     </g>
    </g>
   </g>
   <g id="matplotlib.axis_2">
    <g id="ytick_1">
     <g id="line2d_9">
      <defs>
       <path d="M 0 0 
L -3.5 0 
" id="m08328caca6" style="stroke:#000000;stroke-width:0.8;"/>
      </defs>
      <g>
       <use style="stroke:#000000;stroke-width:0.8;" x="108" xlink:href="#m08328caca6" y="334.643129"/>
      </g>
     </g>
     <g id="text_10">
      <!-- −1000 -->
      <defs>
       <path d="M 10.59375 35.5 
L 73.1875 35.5 
L 73.1875 27.203125 
L 10.59375 27.203125 
z
" id="DejaVuSans-8722"/>
      </defs>
      <g transform="translate(67.170312 338.442348)scale(0.1 -0.1)">
       <use xlink:href="#DejaVuSans-8722"/>
       <use x="83.789062" xlink:href="#DejaVuSans-49"/>
       <use x="147.412109" xlink:href="#DejaVuSans-48"/>
       <use x="211.035156" xlink:href="#DejaVuSans-48"/>
       <use x="274.658203" xlink:href="#DejaVuSans-48"/>
      </g>
     </g>
    </g>
    <g id="ytick_2">
     <g id="line2d_10">
      <g>
       <use style="stroke:#000000;stroke-width:0.8;" x="108" xlink:href="#m08328caca6" y="273.309556"/>
      </g>
     </g>
     <g id="text_11">
      <!-- 0 -->
      <g transform="translate(94.6375 277.108775)scale(0.1 -0.1)">
       <use xlink:href="#DejaVuSans-48"/>
      </g>
     </g>
    </g>
    <g id="ytick_3">
     <g id="line2d_11">
      <g>
       <use style="stroke:#000000;stroke-width:0.8;" x="108" xlink:href="#m08328caca6" y="211.975983"/>
      </g>
     </g>
     <g id="text_12">
      <!-- 1000 -->
      <g transform="translate(75.55 215.775202)scale(0.1 -0.1)">
       <use xlink:href="#DejaVuSans-49"/>
       <use x="63.623047" xlink:href="#DejaVuSans-48"/>
       <use x="127.246094" xlink:href="#DejaVuSans-48"/>
       <use x="190.869141" xlink:href="#DejaVuSans-48"/>
      </g>
     </g>
    </g>
    <g id="ytick_4">
     <g id="line2d_12">
      <g>
       <use style="stroke:#000000;stroke-width:0.8;" x="108" xlink:href="#m08328caca6" y="150.64241"/>
      </g>
     </g>
     <g id="text_13">
      <!-- 2000 -->
      <g transform="translate(75.55 154.441629)scale(0.1 -0.1)">
       <use xlink:href="#DejaVuSans-50"/>
       <use x="63.623047" xlink:href="#DejaVuSans-48"/>
       <use x="127.246094" xlink:href="#DejaVuSans-48"/>
       <use x="190.869141" xlink:href="#DejaVuSans-48"/>
      </g>
     </g>
    </g>
    <g id="ytick_5">
     <g id="line2d_13">
      <g>
       <use style="stroke:#000000;stroke-width:0.8;" x="108" xlink:href="#m08328caca6" y="89.308837"/>
      </g>
     </g>
     <g id="text_14">
      <!-- 3000 -->
      <defs>
       <path d="M 40.578125 39.3125 
Q 47.65625 37.796875 51.625 33 
Q 55.609375 28.21875 55.609375 21.1875 
Q 55.609375 10.40625 48.1875 4.484375 
Q 40.765625 -1.421875 27.09375 -1.421875 
Q 22.515625 -1.421875 17.65625 -0.515625 
Q 12.796875 0.390625 7.625 2.203125 
L 7.625 11.71875 
Q 11.71875 9.328125 16.59375 8.109375 
Q 21.484375 6.890625 26.8125 6.890625 
Q 36.078125 6.890625 40.9375 10.546875 
Q 45.796875 14.203125 45.796875 21.1875 
Q 45.796875 27.640625 41.28125 31.265625 
Q 36.765625 34.90625 28.71875 34.90625 
L 20.21875 34.90625 
L 20.21875 43.015625 
L 29.109375 43.015625 
Q 36.375 43.015625 40.234375 45.921875 
Q 44.09375 48.828125 44.09375 54.296875 
Q 44.09375 59.90625 40.109375 62.90625 
Q 36.140625 65.921875 28.71875 65.921875 
Q 24.65625 65.921875 20.015625 65.03125 
Q 15.375 64.15625 9.8125 62.3125 
L 9.8125 71.09375 
Q 15.4375 72.65625 20.34375 73.4375 
Q 25.25 74.21875 29.59375 74.21875 
Q 40.828125 74.21875 47.359375 69.109375 
Q 53.90625 64.015625 53.90625 55.328125 
Q 53.90625 49.265625 50.4375 45.09375 
Q 46.96875 40.921875 40.578125 39.3125 
z
" id="DejaVuSans-51"/>
      </defs>
      <g transform="translate(75.55 93.108056)scale(0.1 -0.1)">
       <use xlink:href="#DejaVuSans-51"/>
       <use x="63.623047" xlink:href="#DejaVuSans-48"/>
       <use x="127.246094" xlink:href="#DejaVuSans-48"/>
       <use x="190.869141" xlink:href="#DejaVuSans-48"/>
      </g>
     </g>
    </g>
    <g id="text_15">
     <!-- Value -->
     <defs>
      <path d="M 28.609375 0 
L 0.78125 72.90625 
L 11.078125 72.90625 
L 34.1875 11.53125 
L 57.328125 72.90625 
L 67.578125 72.90625 
L 39.796875 0 
z
" id="DejaVuSans-86"/>
      <path d="M 9.421875 75.984375 
L 18.40625 75.984375 
L 18.40625 0 
L 9.421875 0 
z
" id="DejaVuSans-108"/>
      <path d="M 8.5 21.578125 
L 8.5 54.6875 
L 17.484375 54.6875 
L 17.484375 21.921875 
Q 17.484375 14.15625 20.5 10.265625 
Q 23.53125 6.390625 29.59375 6.390625 
Q 36.859375 6.390625 41.078125 11.03125 
Q 45.3125 15.671875 45.3125 23.6875 
L 45.3125 54.6875 
L 54.296875 54.6875 
L 54.296875 0 
L 45.3125 0 
L 45.3125 8.40625 
Q 42.046875 3.421875 37.71875 1 
Q 33.40625 -1.421875 27.6875 -1.421875 
Q 18.265625 -1.421875 13.375 4.4375 
Q 8.5 10.296875 8.5 21.578125 
z
M 31.109375 56 
z
" id="DejaVuSans-117"/>
     </defs>
     <g transform="translate(61.090625 232.273281)rotate(-90)scale(0.1 -0.1)">
      <use xlink:href="#DejaVuSans-86"/>
      <use x="68.298828" xlink:href="#DejaVuSans-97"/>
      <use x="129.578125" xlink:href="#DejaVuSans-108"/>
      <use x="157.361328" xlink:href="#DejaVuSans-117"/>
      <use x="220.740234" xlink:href="#DejaVuSans-101"/>
     </g>
    </g>
   </g>
   <g id="line2d_14">
    <path clip-path="url(#pd09fa076bc)" d="M 138.436364 279.063411 
L 138.865045 266.95567 
L 139.293726 271.803237 
L 139.722407 244.723054 
L 140.57977 258.090734 
L 141.008451 241.564093 
L 141.437132 234.902545 
L 141.865813 232.15791 
L 142.294494 236.168485 
L 142.723175 215.300051 
L 143.580538 227.355419 
L 144.009219 238.474087 
L 144.4379 204.059696 
L 144.866581 211.573205 
L 145.295262 208.158988 
L 145.723944 196.301576 
L 146.152625 194.660894 
L 146.581306 194.187601 
L 147.009987 188.803175 
L 147.438668 187.908101 
L 147.86735 192.516097 
L 148.296031 209.908382 
L 148.724712 184.24881 
L 149.153393 189.24553 
L 149.582074 189.139935 
L 150.010755 200.527253 
L 151.296799 173.393426 
L 151.72548 187.102449 
L 152.154161 182.975305 
L 152.582843 187.719204 
L 153.011524 200.867633 
L 153.440205 193.086279 
L 153.868886 194.255299 
L 154.297567 192.741849 
L 154.726248 183.817181 
L 155.15493 188.967526 
L 155.583611 199.802351 
L 156.012292 203.074116 
L 156.440973 196.920712 
L 156.869654 201.059299 
L 157.298335 215.615968 
L 157.727017 218.98642 
L 158.155698 212.419786 
L 158.584379 212.196671 
L 159.01306 224.018547 
L 159.441741 218.616775 
L 159.870423 227.013406 
L 160.299104 240.405192 
L 160.727785 235.716024 
L 161.156466 253.562873 
L 161.585147 234.137666 
L 162.013828 233.439785 
L 162.44251 259.606657 
L 162.871191 270.340987 
L 163.299872 259.887456 
L 163.728553 270.922584 
L 164.157234 251.939619 
L 164.585915 279.044694 
L 165.014597 276.769213 
L 165.871959 298.871131 
L 166.30064 294.568162 
L 166.729321 317.288488 
L 167.158003 291.168613 
L 167.586684 307.394092 
L 168.015365 292.654436 
L 168.872727 326.902525 
L 169.301408 318.239016 
L 169.73009 335.961479 
L 170.158771 342.17388 
L 170.587452 330.945868 
L 171.016133 340.651751 
L 171.444814 339.248573 
L 171.873496 341.086422 
L 172.302177 349.547149 
L 172.730858 351.456167 
L 173.159539 349.327217 
L 173.58822 338.828517 
L 174.016901 365.286817 
L 174.445583 346.882196 
L 174.874264 350.27145 
L 175.302945 344.244094 
L 175.731626 357.402387 
L 176.160307 351.412733 
L 176.588988 352.378461 
L 177.01767 359.647179 
L 177.446351 342.965233 
L 177.875032 342.693562 
L 178.303713 346.005843 
L 178.732394 336.608936 
L 179.161076 344.714558 
L 179.589757 360.062794 
L 180.018438 351.677603 
L 180.447119 355.61937 
L 180.8758 346.358098 
L 181.304481 345.208124 
L 181.733163 336.361428 
L 182.161844 342.28405 
L 182.590525 329.295732 
L 183.019206 333.55728 
L 183.447887 307.696138 
L 183.876569 313.837265 
L 184.30525 308.309408 
L 184.733931 309.307681 
L 185.162612 293.287173 
L 185.591293 310.639786 
L 186.019974 304.809395 
L 186.448656 282.959095 
L 186.877337 297.860522 
L 187.306018 289.297378 
L 187.734699 286.502055 
L 188.592061 276.308685 
L 189.020743 264.544576 
L 189.449424 266.157199 
L 189.878105 264.602741 
L 190.306786 242.901899 
L 190.735467 252.785129 
L 191.59283 242.793844 
L 192.021511 230.90114 
L 192.450192 233.902074 
L 192.878873 229.384499 
L 193.307554 231.271741 
L 194.164917 216.614371 
L 194.593598 218.93742 
L 195.022279 205.023762 
L 195.45096 220.631868 
L 195.879641 200.523629 
L 196.308323 214.564625 
L 196.737004 200.281971 
L 197.165685 199.741815 
L 197.594366 198.445707 
L 198.023047 190.699801 
L 198.451729 205.884298 
L 198.88041 175.460746 
L 199.309091 200.206144 
L 199.737772 187.738031 
L 200.166453 192.672768 
L 200.595134 188.420962 
L 201.023816 161.505993 
L 201.452497 180.284348 
L 201.881178 192.209545 
L 202.309859 195.584108 
L 202.73854 176.555349 
L 203.167222 181.471982 
L 203.595903 185.06003 
L 204.453265 198.224573 
L 204.881946 195.919741 
L 205.310627 178.438798 
L 205.739309 195.412738 
L 206.16799 204.653593 
L 206.596671 176.900821 
L 207.025352 192.858424 
L 207.454033 201.781958 
L 207.882714 192.731021 
L 208.311396 197.464256 
L 208.740077 214.716973 
L 209.168758 192.017605 
L 209.597439 218.427339 
L 210.02612 233.013288 
L 210.454802 225.040987 
L 210.883483 225.781667 
L 211.312164 210.434386 
L 211.740845 235.029079 
L 212.169526 236.05793 
L 212.598207 245.355998 
L 213.026889 252.143135 
L 213.45557 253.824535 
L 213.884251 250.693431 
L 214.312932 243.272826 
L 214.741613 257.488185 
L 215.170294 260.320744 
L 215.598976 287.396499 
L 216.027657 271.333631 
L 216.456338 282.817421 
L 216.885019 302.794062 
L 217.3137 288.661344 
L 217.742382 299.156541 
L 218.171063 288.227842 
L 218.599744 312.887001 
L 219.028425 313.659515 
L 219.457106 322.007285 
L 219.885787 318.686772 
L 220.314469 316.790568 
L 220.74315 330.598928 
L 221.171831 319.271265 
L 221.600512 341.112424 
L 222.029193 342.406018 
L 222.457875 321.935576 
L 222.886556 347.071917 
L 223.315237 336.021274 
L 223.743918 345.324534 
L 224.172599 339.742073 
L 224.60128 329.405749 
L 225.029962 331.636866 
L 225.887324 369.36 
L 226.316005 325.639217 
L 226.744686 342.927881 
L 227.173367 344.185609 
L 227.602049 349.174325 
L 228.03073 343.935366 
L 228.459411 349.550678 
L 228.888092 343.261654 
L 229.745455 357.399464 
L 230.174136 333.989428 
L 230.602817 327.266053 
L 231.031498 342.182184 
L 231.460179 348.696446 
L 231.88886 328.698428 
L 232.317542 332.41523 
L 232.746223 345.212663 
L 233.174904 326.113164 
L 233.603585 328.763667 
L 234.032266 322.707373 
L 234.460948 326.723676 
L 234.889629 295.624579 
L 235.31831 311.562267 
L 235.746991 319.406304 
L 236.175672 298.633445 
L 236.604353 293.837548 
L 237.033035 301.124382 
L 237.461716 314.385103 
L 237.890397 289.125215 
L 238.319078 273.41417 
L 238.747759 274.708523 
L 239.17644 270.48807 
L 239.605122 259.786838 
L 240.033803 271.362477 
L 240.462484 245.614311 
L 240.891165 251.236306 
L 241.319846 240.080901 
L 241.748528 232.541679 
L 242.177209 235.591764 
L 242.60589 241.409728 
L 243.034571 218.191105 
L 243.463252 243.267953 
L 243.891933 225.674764 
L 244.320615 218.99778 
L 244.749296 214.295323 
L 245.177977 199.569831 
L 245.606658 204.170442 
L 246.035339 198.229823 
L 246.46402 199.381486 
L 246.892702 197.941725 
L 247.321383 186.30245 
L 247.750064 179.417359 
L 248.178745 209.777884 
L 248.607426 179.913549 
L 249.036108 179.656841 
L 249.464789 185.194441 
L 249.89347 170.801094 
L 250.322151 181.795364 
L 250.750832 179.638193 
L 251.608195 159.417836 
L 252.036876 172.371903 
L 252.894238 185.668886 
L 253.322919 177.976274 
L 253.751601 184.109934 
L 254.608963 173.46024 
L 255.037644 186.208543 
L 255.466325 155.221553 
L 255.895006 179.975522 
L 256.323688 172.8389 
L 256.752369 206.608728 
L 257.18105 180.858072 
L 257.609731 202.427105 
L 258.038412 184.430779 
L 258.467093 192.163392 
L 258.895775 202.706437 
L 259.324456 189.920778 
L 259.753137 212.094869 
L 260.181818 214.545517 
L 260.610499 222.149525 
L 261.039181 222.908136 
L 261.467862 211.928547 
L 261.896543 220.737348 
L 262.325224 219.614432 
L 262.753905 236.792078 
L 263.182586 234.022574 
L 263.611268 239.637645 
L 264.039949 259.547634 
L 264.46863 234.343713 
L 264.897311 254.068624 
L 265.325992 252.733393 
L 265.754673 255.485968 
L 266.183355 269.293119 
L 266.612036 276.122268 
L 267.040717 269.438039 
L 267.469398 291.785669 
L 267.898079 268.134974 
L 268.326761 294.173381 
L 268.755442 279.439042 
L 269.184123 284.79011 
L 269.612804 301.950266 
L 270.041485 301.264372 
L 270.470166 319.670066 
L 270.898848 310.707885 
L 271.327529 307.396355 
L 271.75621 319.340932 
L 272.184891 327.486849 
L 272.613572 332.193572 
L 273.042254 329.100733 
L 273.470935 321.315145 
L 273.899616 337.942374 
L 274.328297 336.611479 
L 274.756978 349.288665 
L 275.185659 334.314034 
L 275.614341 328.139862 
L 276.043022 327.516857 
L 276.471703 334.729523 
L 276.900384 360.246812 
L 277.329065 338.880935 
L 277.757746 339.294583 
L 278.186428 346.723857 
L 278.615109 341.56187 
L 279.04379 350.591766 
L 279.472471 335.50802 
L 280.329834 354.038287 
L 280.758515 341.414518 
L 281.187196 323.652475 
L 281.615877 337.439831 
L 282.044558 325.395249 
L 282.473239 321.041062 
L 282.901921 327.188417 
L 283.330602 327.715877 
L 283.759283 326.392343 
L 284.187964 311.489014 
L 284.616645 324.866657 
L 285.045327 309.252499 
L 285.474008 310.574962 
L 285.902689 325.086842 
L 286.33137 313.242352 
L 286.760051 287.671918 
L 287.188732 293.776753 
L 288.046095 265.93673 
L 288.474776 265.35345 
L 288.903457 268.253952 
L 289.332138 266.479168 
L 289.760819 267.217088 
L 290.189501 246.225784 
L 290.618182 250.712146 
L 291.046863 262.497888 
L 291.475544 248.478135 
L 291.904225 260.241771 
L 292.332907 239.750161 
L 292.761588 257.473077 
L 293.190269 216.881394 
L 293.61895 230.598942 
L 294.476312 217.88079 
L 294.904994 206.603736 
L 295.333675 202.074958 
L 295.762356 199.314367 
L 296.191037 206.237962 
L 296.619718 210.076541 
L 297.477081 188.407679 
L 297.905762 195.63815 
L 298.334443 185.876588 
L 298.763124 193.474592 
L 299.191805 180.363617 
L 299.620487 176.930877 
L 300.049168 177.530179 
L 300.477849 175.974801 
L 300.90653 156.628838 
L 301.335211 164.635605 
L 301.763892 160.376181 
L 302.192574 178.428732 
L 303.049936 158.322032 
L 303.478617 169.472625 
L 303.907298 188.843789 
L 304.33598 166.34443 
L 304.764661 187.835892 
L 305.193342 178.599222 
L 305.622023 159.953267 
L 306.050704 167.874494 
L 306.479385 165.054676 
L 306.908067 174.137841 
L 307.336748 180.0283 
L 307.765429 189.811539 
L 308.19411 168.947576 
L 308.622791 185.931188 
L 309.051472 195.810331 
L 309.480154 184.196496 
L 309.908835 185.455751 
L 310.337516 181.212455 
L 310.766197 207.871419 
L 311.194878 209.570538 
L 312.480922 221.104993 
L 312.909603 224.586138 
L 313.338284 212.722692 
L 313.766965 236.842088 
L 314.195647 238.348463 
L 314.624328 233.134802 
L 315.053009 233.226437 
L 315.48169 255.287143 
L 315.910371 257.349867 
L 316.339052 252.304945 
L 316.767734 252.22798 
L 317.625096 283.812933 
L 318.053777 259.131102 
L 318.482458 265.998428 
L 318.91114 290.123608 
L 319.339821 288.316773 
L 319.768502 308.081018 
L 320.197183 290.47188 
L 320.625864 284.657417 
L 321.054545 318.463409 
L 321.483227 314.08755 
L 321.911908 316.221132 
L 322.340589 319.844227 
L 322.76927 335.448569 
L 323.197951 314.879153 
L 323.626633 336.417858 
L 324.055314 324.978936 
L 324.483995 321.568026 
L 324.912676 330.997576 
L 325.341357 322.786559 
L 325.770038 332.949872 
L 326.19872 340.147224 
L 326.627401 329.369277 
L 327.056082 340.345412 
L 327.484763 320.645547 
L 327.913444 337.726837 
L 328.342125 329.913879 
L 328.770807 335.924572 
L 329.199488 365.45385 
L 329.628169 349.77631 
L 330.485531 333.270154 
L 330.914213 355.974511 
L 331.342894 323.952779 
L 331.771575 336.810112 
L 332.200256 336.313554 
L 332.628937 341.657373 
L 333.057618 338.411307 
L 333.4863 321.913468 
L 333.914981 315.006521 
L 334.343662 336.249437 
L 334.772343 323.033562 
L 335.201024 305.50545 
L 335.629706 311.231882 
L 336.058387 283.39318 
L 336.487068 288.174047 
L 336.915749 290.323136 
L 337.34443 291.79369 
L 337.773111 285.137232 
L 338.201793 290.044089 
L 338.630474 273.380191 
L 339.059155 261.097874 
L 339.487836 260.315204 
L 339.916517 273.368371 
L 340.345198 276.274386 
L 340.77388 257.711775 
L 341.202561 248.010697 
L 341.631242 234.975322 
L 342.059923 255.101511 
L 342.488604 234.938077 
L 342.917286 231.607801 
L 343.345967 218.217044 
L 343.774648 225.096925 
L 344.203329 223.782982 
L 344.63201 226.814336 
L 345.060691 216.800478 
L 345.489373 211.284893 
L 345.918054 182.203299 
L 346.346735 177.485808 
L 346.775416 197.999851 
L 347.632778 207.814038 
L 348.06146 181.56871 
L 348.490141 193.4077 
L 348.918822 159.307945 
L 349.347503 186.023751 
L 349.776184 174.349918 
L 350.204866 137.856978 
L 350.633547 181.397233 
L 351.062228 166.48153 
L 351.490909 178.010078 
L 351.91959 163.197855 
L 352.348271 173.397945 
L 352.776953 163.723916 
L 353.205634 166.557923 
L 353.634315 174.376399 
L 354.491677 154.178771 
L 354.920359 148.934876 
L 355.34904 176.985779 
L 356.206402 155.399475 
L 356.635083 177.740378 
L 357.063764 192.351866 
L 357.492446 179.340673 
L 357.921127 181.58942 
L 358.349808 174.364594 
L 358.778489 180.924667 
L 359.20717 177.623964 
L 359.635851 186.456006 
L 360.064533 182.041675 
L 360.493214 192.035958 
L 360.921895 180.932465 
L 361.350576 202.250298 
L 361.779257 196.345968 
L 362.207939 210.987935 
L 362.63662 204.749724 
L 363.065301 211.118302 
L 363.493982 230.382894 
L 364.351344 212.332469 
L 365.208707 230.695661 
L 365.637388 247.517907 
L 366.066069 230.131893 
L 366.49475 244.73142 
L 366.923431 254.159789 
L 367.352113 239.272699 
L 367.780794 266.092736 
L 368.638156 255.956081 
L 369.495519 279.302675 
L 369.9242 284.53388 
L 370.352881 281.475385 
L 370.781562 284.008994 
L 371.210243 292.475335 
L 371.638924 284.192099 
L 372.067606 300.628741 
L 372.496287 309.971948 
L 372.924968 301.818062 
L 373.353649 330.325677 
L 373.78233 309.266209 
L 374.211012 311.070207 
L 375.068374 330.982553 
L 375.497055 326.467415 
L 375.925736 310.414196 
L 376.354417 333.392157 
L 376.783099 349.614375 
L 377.21178 321.780843 
L 377.640461 334.996724 
L 378.069142 335.899598 
L 378.497823 342.999419 
L 378.926504 332.287251 
L 379.355186 325.677105 
L 379.783867 337.463615 
L 380.212548 337.2513 
L 380.641229 320.844442 
L 381.06991 332.422641 
L 381.498592 330.503986 
L 381.927273 333.477526 
L 382.355954 317.771405 
L 382.784635 333.521068 
L 383.213316 314.430101 
L 383.641997 312.599859 
L 384.070679 321.949587 
L 384.49936 307.116128 
L 384.928041 302.994346 
L 385.356722 303.774375 
L 385.785403 287.145912 
L 386.214085 320.696115 
L 386.642766 309.773495 
L 387.071447 308.045096 
L 387.928809 272.833715 
L 388.35749 267.892677 
L 388.786172 274.725118 
L 389.214853 266.829058 
L 389.643534 271.943981 
L 390.072215 261.822656 
L 390.500896 258.185896 
L 390.929577 264.176179 
L 391.358259 255.267613 
L 391.78694 249.20212 
L 392.215621 230.437824 
L 392.644302 248.348404 
L 393.072983 253.740952 
L 393.501665 222.488757 
L 393.930346 232.650198 
L 394.359027 224.672946 
L 394.787708 207.865384 
L 395.216389 219.001473 
L 395.64507 210.874933 
L 396.073752 189.687246 
L 396.502433 194.709566 
L 396.931114 190.70788 
L 397.359795 193.259006 
L 397.788476 198.932255 
L 398.217157 198.834069 
L 398.645839 183.777744 
L 399.07452 160.081852 
L 399.503201 173.663422 
L 399.931882 171.483185 
L 400.360563 167.413872 
L 400.789245 171.757955 
L 401.217926 179.05418 
L 401.646607 139.447355 
L 402.075288 166.505188 
L 402.503969 163.928453 
L 402.93265 176.576941 
L 403.361332 161.324598 
L 403.790013 160.606812 
L 404.218694 160.211857 
L 404.647375 174.165514 
L 405.076056 141.100146 
L 405.504738 141.54973 
L 405.933419 151.991685 
L 406.3621 169.307521 
L 406.790781 153.467896 
L 407.219462 163.574332 
L 407.648143 165.690624 
L 408.076825 151.772951 
L 408.505506 177.650541 
L 408.934187 173.115395 
L 409.362868 177.465124 
L 409.791549 173.026441 
L 410.22023 190.488794 
L 410.648912 185.336951 
L 411.077593 175.274153 
L 411.506274 180.849199 
L 411.934955 197.592672 
L 412.363636 186.961611 
L 412.792318 218.380301 
L 413.220999 202.845743 
L 413.64968 197.05109 
L 414.078361 213.830112 
L 414.507042 212.233221 
L 414.935723 230.907557 
L 415.364405 212.629056 
L 415.793086 242.008581 
L 416.221767 232.308486 
L 416.650448 236.150851 
L 417.079129 237.722079 
L 417.50781 250.423048 
L 417.936492 230.358531 
L 418.365173 265.040294 
L 418.793854 253.90884 
L 419.222535 287.913512 
L 419.651216 265.03638 
L 420.079898 264.644557 
L 420.508579 283.638915 
L 420.93726 271.203474 
L 421.365941 278.702476 
L 421.794622 276.649013 
L 422.223303 297.300597 
L 422.651985 302.142743 
L 423.080666 313.078674 
L 423.509347 303.020652 
L 423.938028 315.630163 
L 424.366709 299.880152 
L 424.795391 308.432478 
L 425.224072 291.460436 
L 425.652753 324.911502 
L 426.081434 305.488553 
L 426.510115 323.347413 
L 426.938796 333.766026 
L 427.367478 316.558085 
L 427.796159 336.500362 
L 428.653521 332.036906 
L 429.082202 323.949217 
L 429.510883 335.569062 
L 429.939565 316.509152 
L 430.368246 337.527531 
L 430.796927 324.10698 
L 431.225608 324.236928 
L 431.654289 334.641432 
L 432.082971 327.712121 
L 432.511652 328.556057 
L 432.940333 312.098615 
L 433.369014 304.850332 
L 433.797695 326.955628 
L 434.226376 306.535643 
L 434.655058 313.478974 
L 435.083739 328.420577 
L 435.941101 300.188264 
L 436.369782 299.967237 
L 436.798464 320.609232 
L 437.227145 289.130702 
L 437.655826 284.799622 
L 438.084507 289.903533 
L 438.513188 289.720018 
L 438.941869 260.868554 
L 439.370551 275.811258 
L 439.799232 270.857557 
L 440.227913 276.794578 
L 441.085275 271.605394 
L 441.513956 256.878646 
L 441.942638 235.799985 
L 442.371319 227.569181 
L 442.8 224.681385 
L 443.228681 222.591726 
L 443.657362 232.209638 
L 444.086044 236.779845 
L 444.514725 223.95029 
L 444.943406 238.779666 
L 445.800768 192.312693 
L 446.229449 202.222629 
L 446.658131 189.13574 
L 447.086812 190.714247 
L 447.515493 198.543593 
L 447.944174 171.399133 
L 448.372855 184.633906 
L 448.801536 189.45806 
L 449.230218 176.447651 
L 449.658899 188.018355 
L 450.08758 162.988015 
L 450.516261 163.566317 
L 450.944942 168.918701 
L 451.373624 167.782684 
L 451.802305 152.42539 
L 452.230986 168.991027 
L 452.659667 166.540789 
L 453.088348 152.005128 
L 453.517029 158.850481 
L 453.945711 145.074502 
L 454.374392 154.690572 
L 454.803073 141.233889 
L 455.231754 147.400372 
L 455.660435 172.714846 
L 456.089117 164.462861 
L 456.517798 140.630419 
L 456.946479 146.768179 
L 457.37516 163.0155 
L 457.803841 167.651753 
L 458.232522 146.975477 
L 458.661204 165.655687 
L 459.089885 143.263476 
L 459.518566 145.573674 
L 459.947247 177.696071 
L 460.375928 174.504556 
L 460.804609 180.901701 
L 461.233291 165.979761 
L 461.661972 187.136442 
L 462.090653 197.225965 
L 462.519334 163.020872 
L 462.948015 175.942645 
L 463.376697 181.355383 
L 463.805378 198.87148 
L 464.66274 194.942928 
L 465.091421 216.686285 
L 465.520102 210.199253 
L 465.948784 211.726819 
L 466.377465 202.048596 
L 466.806146 216.203655 
L 467.234827 214.740636 
L 468.09219 245.920091 
L 468.520871 243.272762 
L 468.949552 260.044278 
L 469.378233 240.499704 
L 469.806914 240.419978 
L 470.235595 258.513283 
L 470.664277 271.346136 
L 471.092958 256.448598 
L 471.521639 269.396299 
L 471.95032 278.335836 
L 472.379001 268.314855 
L 472.807682 289.599667 
L 473.236364 275.631513 
L 473.665045 297.642662 
L 474.093726 289.630431 
L 474.522407 288.253143 
L 474.951088 311.956383 
L 475.37977 298.804092 
L 475.808451 306.237256 
L 476.237132 301.46161 
L 476.665813 317.335873 
L 477.094494 312.940127 
L 477.523175 301.218435 
L 477.951857 314.123765 
L 478.380538 309.497626 
L 479.2379 328.833603 
L 479.666581 320.136041 
L 480.523944 344.82816 
L 480.952625 309.969485 
L 481.381306 330.633964 
L 481.809987 337.008771 
L 482.238668 310.167806 
L 482.66735 318.545636 
L 483.096031 322.803567 
L 483.524712 317.479949 
L 483.953393 318.129972 
L 484.382074 303.082954 
L 484.810755 303.483645 
L 485.239437 323.909723 
L 485.668118 302.134724 
L 486.096799 295.965189 
L 486.52548 293.603656 
L 486.954161 319.156793 
L 487.811524 271.674522 
L 488.240205 279.040549 
L 488.668886 298.514105 
L 489.097567 294.218613 
L 489.526248 270.263079 
L 489.95493 272.308987 
L 490.383611 257.576065 
L 490.812292 259.447752 
L 491.240973 257.029017 
L 492.098335 247.269366 
L 492.527017 256.012095 
L 492.955698 217.909187 
L 493.384379 248.14354 
L 493.81306 230.616962 
L 494.241741 230.903024 
L 494.670423 204.613772 
L 495.099104 207.375508 
L 495.527785 217.467992 
L 496.385147 192.652631 
L 496.813828 178.454354 
L 497.24251 192.181566 
L 497.671191 200.558669 
L 498.099872 196.0541 
L 498.528553 164.540838 
L 498.957234 198.604777 
L 499.385915 147.590785 
L 499.814597 174.934923 
L 500.243278 173.516078 
L 501.10064 154.795061 
L 501.529321 157.989615 
L 501.958003 176.468045 
L 502.386684 152.843624 
L 502.815365 149.92816 
L 503.244046 146.194174 
L 504.101408 171.349023 
L 504.53009 151.28884 
L 504.958771 156.157848 
L 505.387452 153.874203 
L 505.816133 155.223757 
L 506.244814 149.927707 
L 506.673496 149.21715 
L 507.102177 139.296789 
L 507.530858 138.109415 
L 507.959539 155.417732 
L 508.38822 151.969911 
L 508.816901 147.04618 
L 509.245583 138.952266 
L 510.102945 171.337853 
L 510.531626 155.629631 
L 510.960307 161.260954 
L 511.388988 146.324723 
L 512.246351 174.249318 
L 512.675032 175.689322 
L 513.103713 179.606674 
L 513.532394 176.671195 
L 513.961076 180.376568 
L 514.389757 177.283508 
L 515.6758 206.465775 
L 516.104481 196.075734 
L 516.533163 206.814093 
L 516.961844 208.893127 
L 517.390525 204.773602 
L 517.819206 203.221674 
L 518.247887 232.766698 
L 518.676569 213.210999 
L 519.10525 240.975384 
L 519.533931 234.985843 
L 519.962612 239.878302 
L 520.391293 248.955403 
L 520.819974 237.886532 
L 521.248656 66.96 
L 521.677337 253.314304 
L 522.534699 276.363709 
L 522.96338 260.487347 
L 523.392061 294.961056 
L 523.820743 284.248135 
L 524.249424 297.267045 
L 524.678105 284.659068 
L 525.106786 287.318022 
L 525.535467 303.267677 
L 525.964149 289.840206 
L 526.39283 308.211317 
L 526.821511 295.122561 
L 527.250192 301.406151 
L 527.678873 299.157289 
L 528.107554 316.431886 
L 528.536236 308.595585 
L 528.964917 315.278369 
L 529.393598 325.879708 
L 530.25096 297.713118 
L 530.679641 320.718008 
L 531.108323 316.90141 
L 531.537004 308.7607 
L 531.965685 314.660469 
L 532.394366 296.60486 
L 532.823047 307.145723 
L 533.251729 291.604131 
L 533.68041 308.764198 
L 534.109091 321.156083 
L 534.537772 305.181021 
L 534.966453 315.84863 
L 535.395134 314.594599 
L 535.823816 304.789057 
L 536.252497 291.942114 
L 536.681178 294.761084 
L 537.109859 287.566744 
L 537.53854 283.600596 
L 537.967222 290.462809 
L 538.395903 307.742486 
L 538.824584 274.586044 
L 539.253265 258.180159 
L 539.681946 273.899819 
L 540.110627 283.030414 
L 540.539309 269.808749 
L 540.96799 270.874827 
L 541.825352 247.313018 
L 542.254033 241.114091 
L 542.682714 242.464809 
L 543.111396 248.750246 
L 543.540077 227.991971 
L 543.968758 218.438529 
L 544.397439 205.463726 
L 544.82612 226.288866 
L 545.683483 201.521346 
L 546.112164 209.141914 
L 546.540845 198.745589 
L 546.969526 197.230854 
L 547.398207 196.151936 
L 547.826889 189.12806 
L 548.25557 177.639508 
L 548.684251 178.789066 
L 549.112932 183.021671 
L 549.541613 195.709181 
L 549.970294 178.740417 
L 550.398976 168.130563 
L 550.827657 187.968407 
L 551.256338 141.11657 
L 551.685019 172.477179 
L 552.1137 166.728155 
L 552.542382 139.966269 
L 552.971063 171.444152 
L 553.399744 142.227569 
L 553.828425 150.386872 
L 554.257106 141.331731 
L 554.685787 136.002991 
L 555.114469 151.82659 
L 555.54315 148.537292 
L 555.971831 169.044794 
L 556.400512 149.718641 
L 556.829193 137.067456 
L 557.257875 135.92345 
L 557.686556 122.08214 
L 558.115237 140.752292 
L 558.543918 137.791541 
L 558.972599 142.365181 
L 559.40128 148.77295 
L 559.829962 138.765526 
L 560.687324 148.052555 
L 561.116005 158.905587 
L 561.973367 148.94488 
L 562.402049 152.629541 
L 562.83073 166.265645 
L 563.259411 171.074071 
L 563.688092 163.380983 
L 564.116773 161.83116 
L 564.545455 173.992068 
L 565.402817 190.821103 
L 565.831498 190.510424 
L 566.260179 204.431334 
L 566.68886 201.326704 
L 567.117542 188.612713 
L 567.546223 193.155266 
L 567.974904 215.908539 
L 568.403585 210.331874 
L 568.832266 216.116705 
L 569.260948 236.657198 
L 569.689629 218.259399 
L 570.11831 247.987782 
L 570.546991 246.316455 
L 570.975672 229.990721 
L 571.404353 248.668903 
L 571.833035 250.035189 
L 572.261716 267.358618 
L 572.690397 270.003335 
L 573.119078 257.453788 
L 574.405122 284.817533 
L 574.833803 286.28883 
L 575.262484 260.787259 
L 575.691165 286.030376 
L 576.119846 279.035186 
L 576.977209 284.99643 
L 577.40589 291.982709 
L 577.834571 308.760575 
L 578.263252 308.75449 
L 578.691933 294.476848 
L 579.120615 315.365301 
L 579.549296 299.951303 
L 579.977977 311.139128 
L 580.406658 311.016013 
L 580.835339 315.53228 
L 581.26402 311.006429 
L 581.692702 301.166255 
L 582.121383 305.261832 
L 582.550064 311.548822 
L 583.407426 293.197747 
L 583.836108 307.802611 
L 584.264789 302.357604 
L 584.69347 302.874751 
L 585.122151 313.013141 
L 585.550832 310.815467 
L 585.979513 282.509223 
L 586.408195 289.964678 
L 586.836876 288.880048 
L 587.265557 291.807422 
L 587.694238 285.902526 
L 588.122919 286.025242 
L 588.551601 283.894657 
L 588.980282 278.893388 
L 589.408963 286.836038 
L 589.837644 251.600195 
L 590.266325 262.6286 
L 590.695006 268.465996 
L 591.123688 250.867494 
L 591.552369 263.759516 
L 591.98105 237.852567 
L 592.838412 266.448793 
L 593.267093 227.837773 
L 593.695775 225.45715 
L 594.124456 238.547739 
L 594.553137 239.846226 
L 594.981818 239.169328 
L 595.410499 220.065392 
L 595.839181 229.966361 
L 597.125224 191.486293 
L 597.553905 202.589834 
L 597.982586 191.802673 
L 598.411268 184.046764 
L 598.839949 166.338058 
L 599.26863 187.09614 
L 599.697311 189.160426 
L 600.125992 187.612251 
L 600.554673 161.733545 
L 600.983355 163.952382 
L 601.412036 152.923981 
L 601.840717 158.230909 
L 602.269398 150.319703 
L 602.698079 149.107455 
L 603.126761 148.387408 
L 603.555442 152.001151 
L 603.984123 132.381318 
L 604.412804 145.882193 
L 604.841485 134.226615 
L 605.270166 137.38196 
L 605.698848 121.143843 
L 606.55621 138.951054 
L 606.984891 135.357077 
L 607.413572 136.122829 
L 607.842254 154.258256 
L 608.270935 119.347801 
L 608.699616 125.630177 
L 609.128297 143.238315 
L 609.556978 133.493761 
L 609.985659 135.920072 
L 610.414341 150.012037 
L 610.843022 127.311442 
L 611.271703 145.22153 
L 611.700384 143.252842 
L 612.129065 143.446476 
L 612.557746 158.852093 
L 612.986428 162.345609 
L 613.415109 155.581832 
L 613.84379 152.819305 
L 614.272471 160.667774 
L 614.701152 158.17579 
L 615.129834 165.129463 
L 615.558515 166.844528 
L 615.987196 188.687369 
L 616.415877 173.347464 
L 616.844558 190.969122 
L 617.701921 192.991997 
L 618.130602 211.588285 
L 618.559283 201.620348 
L 619.416645 216.24277 
L 619.845327 219.217673 
L 620.274008 207.054357 
L 620.702689 234.758724 
L 621.13137 229.593532 
L 621.560051 254.968394 
L 621.988732 242.757966 
L 622.417414 245.547601 
L 622.846095 230.950087 
L 623.274776 258.399203 
L 623.703457 261.736734 
L 624.132138 270.674891 
L 624.560819 260.028052 
L 624.989501 254.846483 
L 625.418182 280.34501 
L 625.846863 276.755469 
L 626.275544 263.574066 
L 626.704225 285.818547 
L 627.132907 276.213777 
L 627.561588 281.856424 
L 627.990269 300.266063 
L 628.41895 279.422374 
L 628.847631 285.640476 
L 629.276312 299.628438 
L 629.704994 305.364995 
L 630.133675 302.272524 
L 630.562356 292.554659 
L 631.419718 319.630234 
L 631.848399 304.330847 
L 632.277081 296.353838 
L 632.705762 314.492132 
L 633.134443 305.973084 
L 633.563124 314.859384 
L 633.991805 301.987456 
L 634.420487 303.585106 
L 634.849168 301.720246 
L 635.277849 305.986281 
L 635.70653 305.374083 
L 636.135211 289.086523 
L 636.563892 294.312157 
L 636.992574 294.926556 
L 637.421255 320.649785 
L 638.278617 278.603421 
L 638.707298 286.532832 
L 639.13598 290.867471 
L 639.564661 280.481158 
L 639.993342 276.45953 
L 640.422023 274.0365 
L 641.279385 247.697822 
L 641.708067 248.632842 
L 642.136748 242.128694 
L 642.565429 252.506455 
L 642.99411 237.321701 
L 643.422791 249.837787 
L 643.851472 237.583629 
L 644.280154 211.541467 
L 644.708835 227.345173 
L 645.566197 223.449552 
L 646.42356 189.328183 
L 646.852241 200.440638 
L 647.280922 202.134999 
L 647.709603 176.013627 
L 648.138284 197.996474 
L 648.566965 175.939364 
L 648.995647 186.040499 
L 649.424328 187.416235 
L 649.853009 162.592954 
L 650.28169 186.585899 
L 650.710371 168.943855 
L 651.139052 162.257257 
L 651.567734 162.960112 
L 651.996415 170.657153 
L 652.425096 158.220527 
L 652.853777 163.672778 
L 653.282458 128.60089 
L 653.71114 160.963504 
L 654.139821 160.829456 
L 654.568502 132.629177 
L 654.997183 128.66803 
L 655.425864 137.090137 
L 655.854545 135.619159 
L 656.283227 125.647711 
L 656.711908 118.301265 
L 657.140589 145.115567 
L 657.56927 117.672083 
L 657.997951 127.547617 
L 658.426633 132.356925 
L 658.855314 117.590386 
L 659.283995 120.938606 
L 659.712676 118.382002 
L 660.141357 133.728322 
L 660.570038 124.893913 
L 660.99872 130.627328 
L 661.427401 139.669463 
L 661.856082 120.343549 
L 662.284763 137.078645 
L 662.713444 141.255855 
L 663.142125 138.23151 
L 663.570807 142.103459 
L 663.999488 155.025668 
L 664.428169 151.944029 
L 664.85685 130.451998 
L 665.285531 158.571745 
L 665.714213 164.110518 
L 666.142894 158.182034 
L 666.571575 165.019754 
L 667.000256 177.606553 
L 667.428937 186.648751 
L 667.857618 172.875123 
L 668.2863 183.825785 
L 668.714981 184.741594 
L 669.143662 196.257022 
L 669.572343 213.268133 
L 670.001024 201.780513 
L 670.429706 184.765537 
L 670.858387 224.947943 
L 671.287068 225.0414 
L 671.715749 232.798816 
L 672.14443 228.291876 
L 672.573111 216.569193 
L 673.001793 235.191652 
L 673.430474 240.48976 
L 673.859155 254.338679 
L 674.287836 245.999298 
L 674.716517 241.120885 
L 675.145198 233.776838 
L 675.57388 246.416776 
L 676.002561 270.40535 
L 676.431242 270.623719 
L 676.859923 263.805376 
L 677.288604 272.832434 
L 677.717286 273.329221 
L 678.145967 290.995106 
L 678.574648 285.567997 
L 679.003329 292.779941 
L 679.43201 295.180995 
L 679.860691 295.412227 
L 680.289373 294.554276 
L 680.718054 292.503686 
L 681.146735 288.097923 
L 681.575416 299.964059 
L 682.004097 304.235973 
L 682.432778 282.145163 
L 682.86146 288.483919 
L 683.290141 291.56958 
L 683.718822 282.372484 
L 684.147503 307.022955 
L 684.576184 278.602311 
L 685.433547 293.231908 
L 685.862228 289.185898 
L 686.290909 293.058856 
L 686.71959 293.082061 
L 687.148271 304.856554 
L 687.576953 281.362923 
L 688.005634 266.165917 
L 688.434315 264.209802 
L 688.862996 279.346133 
L 689.291677 279.077282 
L 689.720359 273.364888 
L 690.14904 261.230858 
L 690.577721 254.785226 
L 691.006402 261.151609 
L 691.435083 250.921895 
L 691.863764 257.663789 
L 692.721127 238.396575 
L 693.149808 211.484978 
L 693.578489 241.411913 
L 694.00717 242.7352 
L 694.435851 227.982184 
L 694.864533 231.373849 
L 695.293214 217.189311 
L 695.721895 215.335872 
L 696.150576 201.708794 
L 696.579257 218.180589 
L 697.007939 215.854745 
L 697.43662 185.586439 
L 698.293982 199.579218 
L 698.722663 196.523601 
L 699.151344 187.304785 
L 699.580026 172.410768 
L 700.008707 178.544478 
L 700.437388 157.119421 
L 700.866069 163.289083 
L 701.29475 159.860189 
L 701.723431 158.081957 
L 702.152113 157.105516 
L 702.580794 152.47119 
L 703.009475 136.943311 
L 703.438156 156.964301 
L 703.866837 131.596735 
L 704.295519 142.198318 
L 704.7242 129.634878 
L 705.152881 134.676399 
L 705.581562 144.508872 
L 706.010243 126.960561 
L 706.438924 134.438775 
L 706.867606 116.694581 
L 707.296287 133.588342 
L 707.724968 141.529994 
L 708.153649 132.170741 
L 708.58233 129.088194 
L 709.011012 131.210268 
L 709.439693 125.773922 
L 709.868374 129.341493 
L 710.297055 128.127362 
L 710.725736 122.020504 
L 711.154417 136.807191 
L 711.583099 120.196393 
L 712.01178 128.697636 
L 712.440461 130.691944 
L 712.869142 151.082013 
L 713.297823 137.115598 
L 713.726504 141.784301 
L 714.155186 131.307255 
L 714.583867 128.986017 
L 715.012548 133.365095 
L 715.441229 158.160693 
L 715.86991 158.475275 
L 716.298592 155.347079 
L 716.727273 167.899607 
L 717.155954 176.653853 
L 717.584635 158.308395 
L 718.013316 168.968531 
L 718.441997 167.981374 
L 718.870679 188.983137 
L 719.29936 185.249622 
L 719.728041 197.273144 
L 720.156722 198.497962 
L 720.585403 193.13322 
L 721.014085 207.279854 
L 722.300128 226.532199 
L 722.728809 225.733464 
L 723.15749 206.427984 
L 723.586172 232.704236 
L 724.443534 248.326663 
L 724.872215 240.933088 
L 725.300896 247.325236 
L 725.729577 245.378263 
L 726.158259 254.25439 
L 726.58694 247.399323 
L 727.015621 252.429813 
L 727.444302 252.836216 
L 727.872983 263.723972 
L 728.301665 258.85551 
L 728.730346 272.907401 
L 729.159027 266.39747 
L 729.587708 279.148669 
L 730.44507 293.677409 
L 730.873752 290.973764 
L 731.302433 293.154453 
L 731.731114 282.47428 
L 732.588476 296.136791 
L 733.017157 299.512107 
L 733.445839 277.837964 
L 733.87452 294.45531 
L 734.303201 304.002152 
L 734.731882 296.350861 
L 735.160563 291.194255 
L 735.589245 283.792008 
L 736.017926 291.502717 
L 736.446607 288.651568 
L 736.875288 298.050537 
L 737.303969 279.552954 
L 737.73265 284.281268 
L 738.590013 266.772777 
L 739.018694 277.068188 
L 739.876056 280.476627 
L 740.304738 275.742429 
L 740.733419 275.72894 
L 741.1621 260.509202 
L 741.590781 274.043015 
L 742.019462 272.975743 
L 742.448143 259.209233 
L 742.876825 239.070058 
L 743.305506 243.935421 
L 743.734187 245.500173 
L 744.162868 230.471434 
L 744.591549 235.590003 
L 745.448912 222.767925 
L 745.877593 208.832098 
L 746.306274 202.378052 
L 746.734955 197.878911 
L 747.163636 196.084189 
L 747.163636 196.084189 
" style="fill:none;stroke:#1f77b4;stroke-linecap:square;stroke-width:1.5;"/>
   </g>
   <g id="line2d_15">
    <path clip-path="url(#pd09fa076bc)" d="M 747.163636 384.48 
L 747.163636 51.84 
" style="fill:none;stroke:#808080;stroke-linecap:square;"/>
   </g>
   <g id="patch_84">
    <path d="M 108 384.48 
L 108 51.84 
" style="fill:none;stroke:#000000;stroke-linecap:square;stroke-linejoin:miter;stroke-width:0.8;"/>
   </g>
   <g id="patch_85">
    <path d="M 777.6 384.48 
L 777.6 51.84 
" style="fill:none;stroke:#000000;stroke-linecap:square;stroke-linejoin:miter;stroke-width:0.8;"/>
   </g>
   <g id="patch_86">
    <path d="M 108 384.48 
L 777.6 384.48 
" style="fill:none;stroke:#000000;stroke-linecap:square;stroke-linejoin:miter;stroke-width:0.8;"/>
   </g>
   <g id="patch_87">
    <path d="M 108 51.84 
L 777.6 51.84 
" style="fill:none;stroke:#000000;stroke-linecap:square;stroke-linejoin:miter;stroke-width:0.8;"/>
   </g>
   <g id="text_16">
    <!-- synthetic_75.csv -->
    <defs>
     <path d="M 32.171875 -5.078125 
Q 28.375 -14.84375 24.75 -17.8125 
Q 21.140625 -20.796875 15.09375 -20.796875 
L 7.90625 -20.796875 
L 7.90625 -13.28125 
L 13.1875 -13.28125 
Q 16.890625 -13.28125 18.9375 -11.515625 
Q 21 -9.765625 23.484375 -3.21875 
L 25.09375 0.875 
L 2.984375 54.6875 
L 12.5 54.6875 
L 29.59375 11.921875 
L 46.6875 54.6875 
L 56.203125 54.6875 
z
" id="DejaVuSans-121"/>
     <path d="M 54.890625 33.015625 
L 54.890625 0 
L 45.90625 0 
L 45.90625 32.71875 
Q 45.90625 40.484375 42.875 44.328125 
Q 39.84375 48.1875 33.796875 48.1875 
Q 26.515625 48.1875 22.3125 43.546875 
Q 18.109375 38.921875 18.109375 30.90625 
L 18.109375 0 
L 9.078125 0 
L 9.078125 54.6875 
L 18.109375 54.6875 
L 18.109375 46.1875 
Q 21.34375 51.125 25.703125 53.5625 
Q 30.078125 56 35.796875 56 
Q 45.21875 56 50.046875 50.171875 
Q 54.890625 44.34375 54.890625 33.015625 
z
" id="DejaVuSans-110"/>
     <path d="M 54.890625 33.015625 
L 54.890625 0 
L 45.90625 0 
L 45.90625 32.71875 
Q 45.90625 40.484375 42.875 44.328125 
Q 39.84375 48.1875 33.796875 48.1875 
Q 26.515625 48.1875 22.3125 43.546875 
Q 18.109375 38.921875 18.109375 30.90625 
L 18.109375 0 
L 9.078125 0 
L 9.078125 75.984375 
L 18.109375 75.984375 
L 18.109375 46.1875 
Q 21.34375 51.125 25.703125 53.5625 
Q 30.078125 56 35.796875 56 
Q 45.21875 56 50.046875 50.171875 
Q 54.890625 44.34375 54.890625 33.015625 
z
" id="DejaVuSans-104"/>
     <path d="M 48.78125 52.59375 
L 48.78125 44.1875 
Q 44.96875 46.296875 41.140625 47.34375 
Q 37.3125 48.390625 33.40625 48.390625 
Q 24.65625 48.390625 19.8125 42.84375 
Q 14.984375 37.3125 14.984375 27.296875 
Q 14.984375 17.28125 19.8125 11.734375 
Q 24.65625 6.203125 33.40625 6.203125 
Q 37.3125 6.203125 41.140625 7.25 
Q 44.96875 8.296875 48.78125 10.40625 
L 48.78125 2.09375 
Q 45.015625 0.34375 40.984375 -0.53125 
Q 36.96875 -1.421875 32.421875 -1.421875 
Q 20.0625 -1.421875 12.78125 6.34375 
Q 5.515625 14.109375 5.515625 27.296875 
Q 5.515625 40.671875 12.859375 48.328125 
Q 20.21875 56 33.015625 56 
Q 37.15625 56 41.109375 55.140625 
Q 45.0625 54.296875 48.78125 52.59375 
z
" id="DejaVuSans-99"/>
     <path d="M 50.984375 -16.609375 
L 50.984375 -23.578125 
L -0.984375 -23.578125 
L -0.984375 -16.609375 
z
" id="DejaVuSans-95"/>
     <path d="M 8.203125 72.90625 
L 55.078125 72.90625 
L 55.078125 68.703125 
L 28.609375 0 
L 18.3125 0 
L 43.21875 64.59375 
L 8.203125 64.59375 
z
" id="DejaVuSans-55"/>
     <path d="M 10.796875 72.90625 
L 49.515625 72.90625 
L 49.515625 64.59375 
L 19.828125 64.59375 
L 19.828125 46.734375 
Q 21.96875 47.46875 24.109375 47.828125 
Q 26.265625 48.1875 28.421875 48.1875 
Q 40.625 48.1875 47.75 41.5 
Q 54.890625 34.8125 54.890625 23.390625 
Q 54.890625 11.625 47.5625 5.09375 
Q 40.234375 -1.421875 26.90625 -1.421875 
Q 22.3125 -1.421875 17.546875 -0.640625 
Q 12.796875 0.140625 7.71875 1.703125 
L 7.71875 11.625 
Q 12.109375 9.234375 16.796875 8.0625 
Q 21.484375 6.890625 26.703125 6.890625 
Q 35.15625 6.890625 40.078125 11.328125 
Q 45.015625 15.765625 45.015625 23.390625 
Q 45.015625 31 40.078125 35.4375 
Q 35.15625 39.890625 26.703125 39.890625 
Q 22.75 39.890625 18.8125 39.015625 
Q 14.890625 38.140625 10.796875 36.28125 
z
" id="DejaVuSans-53"/>
     <path d="M 10.6875 12.40625 
L 21 12.40625 
L 21 0 
L 10.6875 0 
z
" id="DejaVuSans-46"/>
     <path d="M 2.984375 54.6875 
L 12.5 54.6875 
L 29.59375 8.796875 
L 46.6875 54.6875 
L 56.203125 54.6875 
L 35.6875 0 
L 23.484375 0 
z
" id="DejaVuSans-118"/>
    </defs>
    <g transform="translate(392.638125 45.84)scale(0.12 -0.12)">
     <use xlink:href="#DejaVuSans-115"/>
     <use x="52.099609" xlink:href="#DejaVuSans-121"/>
     <use x="111.279297" xlink:href="#DejaVuSans-110"/>
     <use x="174.658203" xlink:href="#DejaVuSans-116"/>
     <use x="213.867188" xlink:href="#DejaVuSans-104"/>
     <use x="277.246094" xlink:href="#DejaVuSans-101"/>
     <use x="338.769531" xlink:href="#DejaVuSans-116"/>
     <use x="377.978516" xlink:href="#DejaVuSans-105"/>
     <use x="405.761719" xlink:href="#DejaVuSans-99"/>
     <use x="460.742188" xlink:href="#DejaVuSans-95"/>
     <use x="510.742188" xlink:href="#DejaVuSans-55"/>
     <use x="574.365234" xlink:href="#DejaVuSans-53"/>
     <use x="637.988281" xlink:href="#DejaVuSans-46"/>
     <use x="669.775391" xlink:href="#DejaVuSans-99"/>
     <use x="724.755859" xlink:href="#DejaVuSans-115"/>
     <use x="776.855469" xlink:href="#DejaVuSans-118"/>
    </g>
   </g>
   <g id="legend_1">
    <g id="patch_88">
     <path d="M 711.284375 74.518125 
L 770.6 74.518125 
Q 772.6 74.518125 772.6 72.518125 
L 772.6 58.84 
Q 772.6 56.84 770.6 56.84 
L 711.284375 56.84 
Q 709.284375 56.84 709.284375 58.84 
L 709.284375 72.518125 
Q 709.284375 74.518125 711.284375 74.518125 
z
" style="fill:#ffffff;opacity:0.8;stroke:#cccccc;stroke-linejoin:miter;"/>
    </g>
    <g id="line2d_16">
     <path d="M 713.284375 64.938438 
L 733.284375 64.938438 
" style="fill:none;stroke:#1f77b4;stroke-linecap:square;stroke-width:1.5;"/>
    </g>
    <g id="line2d_17"/>
    <g id="text_17">
     <!-- value -->
     <g transform="translate(741.284375 68.438438)scale(0.1 -0.1)">
      <use xlink:href="#DejaVuSans-118"/>
      <use x="59.179688" xlink:href="#DejaVuSans-97"/>
      <use x="120.458984" xlink:href="#DejaVuSans-108"/>
      <use x="148.242188" xlink:href="#DejaVuSans-117"/>
      <use x="211.621094" xlink:href="#DejaVuSans-101"/>
     </g>
    </g>
   </g>
  </g>
 </g>
 <defs>
  <clipPath id="pd09fa076bc">
   <rect height="332.64" width="669.6" x="108" y="51.84"/>
  </clipPath>
 </defs>
</svg>
