<?xml version="1.0" encoding="utf-8" standalone="no"?>
<!DOCTYPE svg PUBLIC "-//W3C//DTD SVG 1.1//EN"
  "http://www.w3.org/Graphics/SVG/1.1/DTD/svg11.dtd">
<!-- Created with matplotlib (https://matplotlib.org/) -->
<svg height="432pt" version="1.1" viewBox="0 0 864 432" width="864pt" xmlns="http://www.w3.org/2000/svg" xmlns:xlink="http://www.w3.org/1999/xlink">
 <defs>
  <style type="text/css">
*{stroke-linecap:butt;stroke-linejoin:round;}
  </style>
 </defs>
 <g id="figure_1">
  <g id="patch_1">
   <path d="M 0 432 
L 864 432 
L 864 0 
L 0 0 
z
" style="fill:#ffffff;"/>
  </g>
  <g id="axes_1">
   <g id="patch_2">
    <path d="M 108 384.48 
L 777.6 384.48 
L 777.6 51.84 
L 108 51.84 
z
" style="fill:#ffffff;"/>
   </g>
   <g id="patch_3">
    <path clip-path="url(#p63f4dc46da)" d="M 138.436364 384.48 
L 138.436364 51.84 
L 381.075906 51.84 
L 381.075906 384.48 
z
" style="fill:#0000ff;opacity:0.05;"/>
   </g>
   <g id="patch_4">
    <path clip-path="url(#p63f4dc46da)" d="M 381.075906 384.48 
L 381.075906 51.84 
L 747.163636 51.84 
L 747.163636 384.48 
z
" style="fill:#ff0000;opacity:0.08;"/>
   </g>
   <g id="patch_5">
    <path clip-path="url(#p63f4dc46da)" d="M 138.436364 384.48 
L 138.436364 51.84 
L 142.693198 51.84 
L 142.693198 384.48 
z
" style="fill:#008000;opacity:0.04;"/>
   </g>
   <g id="patch_6">
    <path clip-path="url(#p63f4dc46da)" d="M 138.436364 384.48 
L 138.436364 371.1744 
L 142.693198 371.1744 
L 142.693198 384.48 
z
" style="fill:#ffe500;"/>
   </g>
   <g id="patch_7">
    <path clip-path="url(#p63f4dc46da)" d="M 146.950032 384.48 
L 146.950032 51.84 
L 151.206866 51.84 
L 151.206866 384.48 
z
" style="fill:#008000;opacity:0.04;"/>
   </g>
   <g id="patch_8">
    <path clip-path="url(#p63f4dc46da)" d="M 146.950032 384.48 
L 146.950032 371.1744 
L 151.206866 371.1744 
L 151.206866 384.48 
z
" style="fill:#ffe500;"/>
   </g>
   <g id="patch_9">
    <path clip-path="url(#p63f4dc46da)" d="M 389.589574 384.48 
L 389.589574 371.1744 
L 393.846408 371.1744 
L 393.846408 384.48 
z
" style="fill:#ff6600;"/>
   </g>
   <g id="patch_10">
    <path clip-path="url(#p63f4dc46da)" d="M 155.4637 384.48 
L 155.4637 51.84 
L 159.720534 51.84 
L 159.720534 384.48 
z
" style="fill:#008000;opacity:0.04;"/>
   </g>
   <g id="patch_11">
    <path clip-path="url(#p63f4dc46da)" d="M 163.977368 384.48 
L 163.977368 51.84 
L 168.234202 51.84 
L 168.234202 384.48 
z
" style="fill:#008000;opacity:0.04;"/>
   </g>
   <g id="patch_12">
    <path clip-path="url(#p63f4dc46da)" d="M 163.977368 384.48 
L 163.977368 371.1744 
L 168.234202 371.1744 
L 168.234202 384.48 
z
" style="fill:#ffe500;"/>
   </g>
   <g id="patch_13">
    <path clip-path="url(#p63f4dc46da)" d="M 410.873744 384.48 
L 410.873744 371.1744 
L 415.130579 371.1744 
L 415.130579 384.48 
z
" style="fill:#ff6600;"/>
   </g>
   <g id="patch_14">
    <path clip-path="url(#p63f4dc46da)" d="M 172.491036 384.48 
L 172.491036 51.84 
L 176.74787 51.84 
L 176.74787 384.48 
z
" style="fill:#008000;opacity:0.04;"/>
   </g>
   <g id="patch_15">
    <path clip-path="url(#p63f4dc46da)" d="M 176.74787 384.48 
L 176.74787 371.1744 
L 181.004704 371.1744 
L 181.004704 384.48 
z
" style="fill:#ffe500;"/>
   </g>
   <g id="patch_16">
    <path clip-path="url(#p63f4dc46da)" d="M 181.004704 384.48 
L 181.004704 51.84 
L 185.261538 51.84 
L 185.261538 384.48 
z
" style="fill:#008000;opacity:0.04;"/>
   </g>
   <g id="patch_17">
    <path clip-path="url(#p63f4dc46da)" d="M 189.518373 384.48 
L 189.518373 51.84 
L 193.775207 51.84 
L 193.775207 384.48 
z
" style="fill:#008000;opacity:0.04;"/>
   </g>
   <g id="patch_18">
    <path clip-path="url(#p63f4dc46da)" d="M 198.032041 384.48 
L 198.032041 51.84 
L 202.288875 51.84 
L 202.288875 384.48 
z
" style="fill:#008000;opacity:0.04;"/>
   </g>
   <g id="patch_19">
    <path clip-path="url(#p63f4dc46da)" d="M 206.545709 384.48 
L 206.545709 51.84 
L 210.802543 51.84 
L 210.802543 384.48 
z
" style="fill:#008000;opacity:0.04;"/>
   </g>
   <g id="patch_20">
    <path clip-path="url(#p63f4dc46da)" d="M 215.059377 384.48 
L 215.059377 51.84 
L 219.316211 51.84 
L 219.316211 384.48 
z
" style="fill:#008000;opacity:0.04;"/>
   </g>
   <g id="patch_21">
    <path clip-path="url(#p63f4dc46da)" d="M 223.573045 384.48 
L 223.573045 51.84 
L 227.829879 51.84 
L 227.829879 384.48 
z
" style="fill:#008000;opacity:0.04;"/>
   </g>
   <g id="patch_22">
    <path clip-path="url(#p63f4dc46da)" d="M 227.829879 384.48 
L 227.829879 371.1744 
L 232.086713 371.1744 
L 232.086713 384.48 
z
" style="fill:#ffe500;"/>
   </g>
   <g id="patch_23">
    <path clip-path="url(#p63f4dc46da)" d="M 232.086713 384.48 
L 232.086713 51.84 
L 236.343547 51.84 
L 236.343547 384.48 
z
" style="fill:#008000;opacity:0.04;"/>
   </g>
   <g id="patch_24">
    <path clip-path="url(#p63f4dc46da)" d="M 240.600381 384.48 
L 240.600381 51.84 
L 244.857216 51.84 
L 244.857216 384.48 
z
" style="fill:#008000;opacity:0.04;"/>
   </g>
   <g id="patch_25">
    <path clip-path="url(#p63f4dc46da)" d="M 249.11405 384.48 
L 249.11405 51.84 
L 253.370884 51.84 
L 253.370884 384.48 
z
" style="fill:#008000;opacity:0.04;"/>
   </g>
   <g id="patch_26">
    <path clip-path="url(#p63f4dc46da)" d="M 257.627718 384.48 
L 257.627718 51.84 
L 261.884552 51.84 
L 261.884552 384.48 
z
" style="fill:#008000;opacity:0.04;"/>
   </g>
   <g id="patch_27">
    <path clip-path="url(#p63f4dc46da)" d="M 266.141386 384.48 
L 266.141386 51.84 
L 270.39822 51.84 
L 270.39822 384.48 
z
" style="fill:#008000;opacity:0.04;"/>
   </g>
   <g id="patch_28">
    <path clip-path="url(#p63f4dc46da)" d="M 274.655054 384.48 
L 274.655054 51.84 
L 278.911888 51.84 
L 278.911888 384.48 
z
" style="fill:#008000;opacity:0.04;"/>
   </g>
   <g id="patch_29">
    <path clip-path="url(#p63f4dc46da)" d="M 283.168722 384.48 
L 283.168722 51.84 
L 287.425556 51.84 
L 287.425556 384.48 
z
" style="fill:#008000;opacity:0.04;"/>
   </g>
   <g id="patch_30">
    <path clip-path="url(#p63f4dc46da)" d="M 291.68239 384.48 
L 291.68239 51.84 
L 295.939224 51.84 
L 295.939224 384.48 
z
" style="fill:#008000;opacity:0.04;"/>
   </g>
   <g id="patch_31">
    <path clip-path="url(#p63f4dc46da)" d="M 300.196058 384.48 
L 300.196058 51.84 
L 304.452893 51.84 
L 304.452893 384.48 
z
" style="fill:#008000;opacity:0.04;"/>
   </g>
   <g id="patch_32">
    <path clip-path="url(#p63f4dc46da)" d="M 300.196058 384.48 
L 300.196058 371.1744 
L 304.452893 371.1744 
L 304.452893 384.48 
z
" style="fill:#ffe500;"/>
   </g>
   <g id="patch_33">
    <path clip-path="url(#p63f4dc46da)" d="M 308.709727 384.48 
L 308.709727 51.84 
L 312.966561 51.84 
L 312.966561 384.48 
z
" style="fill:#008000;opacity:0.04;"/>
   </g>
   <g id="patch_34">
    <path clip-path="url(#p63f4dc46da)" d="M 317.223395 384.48 
L 317.223395 51.84 
L 321.480229 51.84 
L 321.480229 384.48 
z
" style="fill:#008000;opacity:0.04;"/>
   </g>
   <g id="patch_35">
    <path clip-path="url(#p63f4dc46da)" d="M 325.737063 384.48 
L 325.737063 51.84 
L 329.993897 51.84 
L 329.993897 384.48 
z
" style="fill:#008000;opacity:0.04;"/>
   </g>
   <g id="patch_36">
    <path clip-path="url(#p63f4dc46da)" d="M 329.993897 384.48 
L 329.993897 371.1744 
L 334.250731 371.1744 
L 334.250731 384.48 
z
" style="fill:#ffe500;"/>
   </g>
   <g id="patch_37">
    <path clip-path="url(#p63f4dc46da)" d="M 334.250731 384.48 
L 334.250731 51.84 
L 338.507565 51.84 
L 338.507565 384.48 
z
" style="fill:#008000;opacity:0.04;"/>
   </g>
   <g id="patch_38">
    <path clip-path="url(#p63f4dc46da)" d="M 342.764399 384.48 
L 342.764399 51.84 
L 347.021233 51.84 
L 347.021233 384.48 
z
" style="fill:#008000;opacity:0.04;"/>
   </g>
   <g id="patch_39">
    <path clip-path="url(#p63f4dc46da)" d="M 351.278067 384.48 
L 351.278067 51.84 
L 355.534901 51.84 
L 355.534901 384.48 
z
" style="fill:#008000;opacity:0.04;"/>
   </g>
   <g id="patch_40">
    <path clip-path="url(#p63f4dc46da)" d="M 359.791736 384.48 
L 359.791736 51.84 
L 364.04857 51.84 
L 364.04857 384.48 
z
" style="fill:#008000;opacity:0.04;"/>
   </g>
   <g id="patch_41">
    <path clip-path="url(#p63f4dc46da)" d="M 359.791736 384.48 
L 359.791736 371.1744 
L 364.04857 371.1744 
L 364.04857 384.48 
z
" style="fill:#ffe500;"/>
   </g>
   <g id="patch_42">
    <path clip-path="url(#p63f4dc46da)" d="M 368.305404 384.48 
L 368.305404 51.84 
L 372.562238 51.84 
L 372.562238 384.48 
z
" style="fill:#008000;opacity:0.04;"/>
   </g>
   <g id="patch_43">
    <path clip-path="url(#p63f4dc46da)" d="M 376.819072 384.48 
L 376.819072 51.84 
L 381.075906 51.84 
L 381.075906 384.48 
z
" style="fill:#008000;opacity:0.04;"/>
   </g>
   <g id="patch_44">
    <path clip-path="url(#p63f4dc46da)" d="M 385.33274 384.48 
L 385.33274 51.84 
L 389.589574 51.84 
L 389.589574 384.48 
z
" style="fill:#008000;opacity:0.04;"/>
   </g>
   <g id="patch_45">
    <path clip-path="url(#p63f4dc46da)" d="M 389.589574 371.1744 
L 389.589574 51.84 
L 393.846408 51.84 
L 393.846408 371.1744 
z
" style="fill:#008000;opacity:0.5;"/>
   </g>
   <g id="patch_46">
    <path clip-path="url(#p63f4dc46da)" d="M 393.846408 384.48 
L 393.846408 51.84 
L 398.103242 51.84 
L 398.103242 384.48 
z
" style="fill:#008000;opacity:0.04;"/>
   </g>
   <g id="patch_47">
    <path clip-path="url(#p63f4dc46da)" d="M 402.360076 384.48 
L 402.360076 51.84 
L 406.61691 51.84 
L 406.61691 384.48 
z
" style="fill:#008000;opacity:0.04;"/>
   </g>
   <g id="patch_48">
    <path clip-path="url(#p63f4dc46da)" d="M 410.873744 384.48 
L 410.873744 51.84 
L 415.130579 51.84 
L 415.130579 384.48 
z
" style="fill:#008000;opacity:0.04;"/>
   </g>
   <g id="patch_49">
    <path clip-path="url(#p63f4dc46da)" d="M 419.387413 384.48 
L 419.387413 51.84 
L 423.644247 51.84 
L 423.644247 384.48 
z
" style="fill:#008000;opacity:0.04;"/>
   </g>
   <g id="patch_50">
    <path clip-path="url(#p63f4dc46da)" d="M 427.901081 384.48 
L 427.901081 51.84 
L 432.157915 51.84 
L 432.157915 384.48 
z
" style="fill:#008000;opacity:0.04;"/>
   </g>
   <g id="patch_51">
    <path clip-path="url(#p63f4dc46da)" d="M 436.414749 384.48 
L 436.414749 51.84 
L 440.671583 51.84 
L 440.671583 384.48 
z
" style="fill:#008000;opacity:0.04;"/>
   </g>
   <g id="patch_52">
    <path clip-path="url(#p63f4dc46da)" d="M 444.928417 384.48 
L 444.928417 51.84 
L 449.185251 51.84 
L 449.185251 384.48 
z
" style="fill:#008000;opacity:0.04;"/>
   </g>
   <g id="patch_53">
    <path clip-path="url(#p63f4dc46da)" d="M 691.824793 384.48 
L 691.824793 371.1744 
L 696.081627 371.1744 
L 696.081627 384.48 
z
" style="fill:#ff6600;"/>
   </g>
   <g id="patch_54">
    <path clip-path="url(#p63f4dc46da)" d="M 453.442085 384.48 
L 453.442085 51.84 
L 457.698919 51.84 
L 457.698919 384.48 
z
" style="fill:#008000;opacity:0.04;"/>
   </g>
   <g id="patch_55">
    <path clip-path="url(#p63f4dc46da)" d="M 461.955753 384.48 
L 461.955753 51.84 
L 466.212587 51.84 
L 466.212587 384.48 
z
" style="fill:#008000;opacity:0.04;"/>
   </g>
   <g id="patch_56">
    <path clip-path="url(#p63f4dc46da)" d="M 470.469421 384.48 
L 470.469421 51.84 
L 474.726256 51.84 
L 474.726256 384.48 
z
" style="fill:#008000;opacity:0.04;"/>
   </g>
   <g id="patch_57">
    <path clip-path="url(#p63f4dc46da)" d="M 478.98309 384.48 
L 478.98309 51.84 
L 483.239924 51.84 
L 483.239924 384.48 
z
" style="fill:#008000;opacity:0.04;"/>
   </g>
   <g id="patch_58">
    <path clip-path="url(#p63f4dc46da)" d="M 487.496758 384.48 
L 487.496758 51.84 
L 491.753592 51.84 
L 491.753592 384.48 
z
" style="fill:#008000;opacity:0.04;"/>
   </g>
   <g id="patch_59">
    <path clip-path="url(#p63f4dc46da)" d="M 496.010426 384.48 
L 496.010426 51.84 
L 500.26726 51.84 
L 500.26726 384.48 
z
" style="fill:#008000;opacity:0.04;"/>
   </g>
   <g id="patch_60">
    <path clip-path="url(#p63f4dc46da)" d="M 504.524094 384.48 
L 504.524094 51.84 
L 508.780928 51.84 
L 508.780928 384.48 
z
" style="fill:#008000;opacity:0.04;"/>
   </g>
   <g id="patch_61">
    <path clip-path="url(#p63f4dc46da)" d="M 513.037762 384.48 
L 513.037762 51.84 
L 517.294596 51.84 
L 517.294596 384.48 
z
" style="fill:#008000;opacity:0.04;"/>
   </g>
   <g id="patch_62">
    <path clip-path="url(#p63f4dc46da)" d="M 521.55143 384.48 
L 521.55143 51.84 
L 525.808264 51.84 
L 525.808264 384.48 
z
" style="fill:#008000;opacity:0.04;"/>
   </g>
   <g id="patch_63">
    <path clip-path="url(#p63f4dc46da)" d="M 530.065099 384.48 
L 530.065099 51.84 
L 534.321933 51.84 
L 534.321933 384.48 
z
" style="fill:#008000;opacity:0.04;"/>
   </g>
   <g id="patch_64">
    <path clip-path="url(#p63f4dc46da)" d="M 538.578767 384.48 
L 538.578767 51.84 
L 542.835601 51.84 
L 542.835601 384.48 
z
" style="fill:#008000;opacity:0.04;"/>
   </g>
   <g id="patch_65">
    <path clip-path="url(#p63f4dc46da)" d="M 547.092435 384.48 
L 547.092435 51.84 
L 551.349269 51.84 
L 551.349269 384.48 
z
" style="fill:#008000;opacity:0.04;"/>
   </g>
   <g id="patch_66">
    <path clip-path="url(#p63f4dc46da)" d="M 555.606103 384.48 
L 555.606103 51.84 
L 559.862937 51.84 
L 559.862937 384.48 
z
" style="fill:#008000;opacity:0.04;"/>
   </g>
   <g id="patch_67">
    <path clip-path="url(#p63f4dc46da)" d="M 564.119771 384.48 
L 564.119771 51.84 
L 568.376605 51.84 
L 568.376605 384.48 
z
" style="fill:#008000;opacity:0.04;"/>
   </g>
   <g id="patch_68">
    <path clip-path="url(#p63f4dc46da)" d="M 568.376605 371.1744 
L 568.376605 51.84 
L 572.633439 51.84 
L 572.633439 371.1744 
z
" style="fill:#008000;opacity:0.5;"/>
   </g>
   <g id="patch_69">
    <path clip-path="url(#p63f4dc46da)" d="M 572.633439 384.48 
L 572.633439 51.84 
L 576.890273 51.84 
L 576.890273 384.48 
z
" style="fill:#008000;opacity:0.04;"/>
   </g>
   <g id="patch_70">
    <path clip-path="url(#p63f4dc46da)" d="M 581.147107 384.48 
L 581.147107 51.84 
L 585.403942 51.84 
L 585.403942 384.48 
z
" style="fill:#008000;opacity:0.04;"/>
   </g>
   <g id="patch_71">
    <path clip-path="url(#p63f4dc46da)" d="M 589.660776 384.48 
L 589.660776 51.84 
L 593.91761 51.84 
L 593.91761 384.48 
z
" style="fill:#008000;opacity:0.04;"/>
   </g>
   <g id="patch_72">
    <path clip-path="url(#p63f4dc46da)" d="M 598.174444 384.48 
L 598.174444 51.84 
L 602.431278 51.84 
L 602.431278 384.48 
z
" style="fill:#008000;opacity:0.04;"/>
   </g>
   <g id="patch_73">
    <path clip-path="url(#p63f4dc46da)" d="M 606.688112 384.48 
L 606.688112 51.84 
L 610.944946 51.84 
L 610.944946 384.48 
z
" style="fill:#008000;opacity:0.04;"/>
   </g>
   <g id="patch_74">
    <path clip-path="url(#p63f4dc46da)" d="M 615.20178 384.48 
L 615.20178 51.84 
L 619.458614 51.84 
L 619.458614 384.48 
z
" style="fill:#008000;opacity:0.04;"/>
   </g>
   <g id="patch_75">
    <path clip-path="url(#p63f4dc46da)" d="M 623.715448 384.48 
L 623.715448 51.84 
L 627.972282 51.84 
L 627.972282 384.48 
z
" style="fill:#008000;opacity:0.04;"/>
   </g>
   <g id="patch_76">
    <path clip-path="url(#p63f4dc46da)" d="M 632.229116 384.48 
L 632.229116 51.84 
L 636.48595 51.84 
L 636.48595 384.48 
z
" style="fill:#008000;opacity:0.04;"/>
   </g>
   <g id="patch_77">
    <path clip-path="url(#p63f4dc46da)" d="M 640.742784 384.48 
L 640.742784 51.84 
L 644.999619 51.84 
L 644.999619 384.48 
z
" style="fill:#008000;opacity:0.04;"/>
   </g>
   <g id="patch_78">
    <path clip-path="url(#p63f4dc46da)" d="M 649.256453 384.48 
L 649.256453 51.84 
L 653.513287 51.84 
L 653.513287 384.48 
z
" style="fill:#008000;opacity:0.04;"/>
   </g>
   <g id="patch_79">
    <path clip-path="url(#p63f4dc46da)" d="M 657.770121 384.48 
L 657.770121 51.84 
L 662.026955 51.84 
L 662.026955 384.48 
z
" style="fill:#008000;opacity:0.04;"/>
   </g>
   <g id="patch_80">
    <path clip-path="url(#p63f4dc46da)" d="M 666.283789 384.48 
L 666.283789 51.84 
L 670.540623 51.84 
L 670.540623 384.48 
z
" style="fill:#008000;opacity:0.04;"/>
   </g>
   <g id="patch_81">
    <path clip-path="url(#p63f4dc46da)" d="M 674.797457 384.48 
L 674.797457 51.84 
L 679.054291 51.84 
L 679.054291 384.48 
z
" style="fill:#008000;opacity:0.04;"/>
   </g>
   <g id="patch_82">
    <path clip-path="url(#p63f4dc46da)" d="M 683.311125 384.48 
L 683.311125 51.84 
L 687.567959 51.84 
L 687.567959 384.48 
z
" style="fill:#008000;opacity:0.04;"/>
   </g>
   <g id="patch_83">
    <path clip-path="url(#p63f4dc46da)" d="M 691.824793 384.48 
L 691.824793 51.84 
L 696.081627 51.84 
L 696.081627 384.48 
z
" style="fill:#008000;opacity:0.04;"/>
   </g>
   <g id="patch_84">
    <path clip-path="url(#p63f4dc46da)" d="M 691.824793 371.1744 
L 691.824793 51.84 
L 696.081627 51.84 
L 696.081627 371.1744 
z
" style="fill:#008000;opacity:0.5;"/>
   </g>
   <g id="patch_85">
    <path clip-path="url(#p63f4dc46da)" d="M 696.081627 371.1744 
L 696.081627 51.84 
L 700.338462 51.84 
L 700.338462 371.1744 
z
" style="fill:#008000;opacity:0.5;"/>
   </g>
   <g id="patch_86">
    <path clip-path="url(#p63f4dc46da)" d="M 700.338462 384.48 
L 700.338462 51.84 
L 704.595296 51.84 
L 704.595296 384.48 
z
" style="fill:#008000;opacity:0.04;"/>
   </g>
   <g id="patch_87">
    <path clip-path="url(#p63f4dc46da)" d="M 708.85213 384.48 
L 708.85213 51.84 
L 713.108964 51.84 
L 713.108964 384.48 
z
" style="fill:#008000;opacity:0.04;"/>
   </g>
   <g id="patch_88">
    <path clip-path="url(#p63f4dc46da)" d="M 717.365798 384.48 
L 717.365798 51.84 
L 721.622632 51.84 
L 721.622632 384.48 
z
" style="fill:#008000;opacity:0.04;"/>
   </g>
   <g id="patch_89">
    <path clip-path="url(#p63f4dc46da)" d="M 725.879466 384.48 
L 725.879466 51.84 
L 730.1363 51.84 
L 730.1363 384.48 
z
" style="fill:#008000;opacity:0.04;"/>
   </g>
   <g id="patch_90">
    <path clip-path="url(#p63f4dc46da)" d="M 734.393134 384.48 
L 734.393134 51.84 
L 738.649968 51.84 
L 738.649968 384.48 
z
" style="fill:#008000;opacity:0.04;"/>
   </g>
   <g id="patch_91">
    <path clip-path="url(#p63f4dc46da)" d="M 742.906802 384.48 
L 742.906802 51.84 
L 747.163636 51.84 
L 747.163636 384.48 
z
" style="fill:#008000;opacity:0.04;"/>
   </g>
   <g id="matplotlib.axis_1">
    <g id="xtick_1">
     <g id="line2d_1">
      <defs>
       <path d="M 0 0 
L 0 3.5 
" id="m873d4b0cea" style="stroke:#000000;stroke-width:0.8;"/>
      </defs>
      <g>
       <use style="stroke:#000000;stroke-width:0.8;" x="138.436364" xlink:href="#m873d4b0cea" y="384.48"/>
      </g>
     </g>
     <g id="text_1">
      <!-- 0 -->
      <defs>
       <path d="M 31.78125 66.40625 
Q 24.171875 66.40625 20.328125 58.90625 
Q 16.5 51.421875 16.5 36.375 
Q 16.5 21.390625 20.328125 13.890625 
Q 24.171875 6.390625 31.78125 6.390625 
Q 39.453125 6.390625 43.28125 13.890625 
Q 47.125 21.390625 47.125 36.375 
Q 47.125 51.421875 43.28125 58.90625 
Q 39.453125 66.40625 31.78125 66.40625 
z
M 31.78125 74.21875 
Q 44.046875 74.21875 50.515625 64.515625 
Q 56.984375 54.828125 56.984375 36.375 
Q 56.984375 17.96875 50.515625 8.265625 
Q 44.046875 -1.421875 31.78125 -1.421875 
Q 19.53125 -1.421875 13.0625 8.265625 
Q 6.59375 17.96875 6.59375 36.375 
Q 6.59375 54.828125 13.0625 64.515625 
Q 19.53125 74.21875 31.78125 74.21875 
z
" id="DejaVuSans-48"/>
      </defs>
      <g transform="translate(135.255114 399.078438)scale(0.1 -0.1)">
       <use xlink:href="#DejaVuSans-48"/>
      </g>
     </g>
    </g>
    <g id="xtick_2">
     <g id="line2d_2">
      <g>
       <use style="stroke:#000000;stroke-width:0.8;" x="223.573045" xlink:href="#m873d4b0cea" y="384.48"/>
      </g>
     </g>
     <g id="text_2">
      <!-- 200 -->
      <defs>
       <path d="M 19.1875 8.296875 
L 53.609375 8.296875 
L 53.609375 0 
L 7.328125 0 
L 7.328125 8.296875 
Q 12.9375 14.109375 22.625 23.890625 
Q 32.328125 33.6875 34.8125 36.53125 
Q 39.546875 41.84375 41.421875 45.53125 
Q 43.3125 49.21875 43.3125 52.78125 
Q 43.3125 58.59375 39.234375 62.25 
Q 35.15625 65.921875 28.609375 65.921875 
Q 23.96875 65.921875 18.8125 64.3125 
Q 13.671875 62.703125 7.8125 59.421875 
L 7.8125 69.390625 
Q 13.765625 71.78125 18.9375 73 
Q 24.125 74.21875 28.421875 74.21875 
Q 39.75 74.21875 46.484375 68.546875 
Q 53.21875 62.890625 53.21875 53.421875 
Q 53.21875 48.921875 51.53125 44.890625 
Q 49.859375 40.875 45.40625 35.40625 
Q 44.1875 33.984375 37.640625 27.21875 
Q 31.109375 20.453125 19.1875 8.296875 
z
" id="DejaVuSans-50"/>
      </defs>
      <g transform="translate(214.029295 399.078438)scale(0.1 -0.1)">
       <use xlink:href="#DejaVuSans-50"/>
       <use x="63.623047" xlink:href="#DejaVuSans-48"/>
       <use x="127.246094" xlink:href="#DejaVuSans-48"/>
      </g>
     </g>
    </g>
    <g id="xtick_3">
     <g id="line2d_3">
      <g>
       <use style="stroke:#000000;stroke-width:0.8;" x="308.709727" xlink:href="#m873d4b0cea" y="384.48"/>
      </g>
     </g>
     <g id="text_3">
      <!-- 400 -->
      <defs>
       <path d="M 37.796875 64.3125 
L 12.890625 25.390625 
L 37.796875 25.390625 
z
M 35.203125 72.90625 
L 47.609375 72.90625 
L 47.609375 25.390625 
L 58.015625 25.390625 
L 58.015625 17.1875 
L 47.609375 17.1875 
L 47.609375 0 
L 37.796875 0 
L 37.796875 17.1875 
L 4.890625 17.1875 
L 4.890625 26.703125 
z
" id="DejaVuSans-52"/>
      </defs>
      <g transform="translate(299.165977 399.078438)scale(0.1 -0.1)">
       <use xlink:href="#DejaVuSans-52"/>
       <use x="63.623047" xlink:href="#DejaVuSans-48"/>
       <use x="127.246094" xlink:href="#DejaVuSans-48"/>
      </g>
     </g>
    </g>
    <g id="xtick_4">
     <g id="line2d_4">
      <g>
       <use style="stroke:#000000;stroke-width:0.8;" x="393.846408" xlink:href="#m873d4b0cea" y="384.48"/>
      </g>
     </g>
     <g id="text_4">
      <!-- 600 -->
      <defs>
       <path d="M 33.015625 40.375 
Q 26.375 40.375 22.484375 35.828125 
Q 18.609375 31.296875 18.609375 23.390625 
Q 18.609375 15.53125 22.484375 10.953125 
Q 26.375 6.390625 33.015625 6.390625 
Q 39.65625 6.390625 43.53125 10.953125 
Q 47.40625 15.53125 47.40625 23.390625 
Q 47.40625 31.296875 43.53125 35.828125 
Q 39.65625 40.375 33.015625 40.375 
z
M 52.59375 71.296875 
L 52.59375 62.3125 
Q 48.875 64.0625 45.09375 64.984375 
Q 41.3125 65.921875 37.59375 65.921875 
Q 27.828125 65.921875 22.671875 59.328125 
Q 17.53125 52.734375 16.796875 39.40625 
Q 19.671875 43.65625 24.015625 45.921875 
Q 28.375 48.1875 33.59375 48.1875 
Q 44.578125 48.1875 50.953125 41.515625 
Q 57.328125 34.859375 57.328125 23.390625 
Q 57.328125 12.15625 50.6875 5.359375 
Q 44.046875 -1.421875 33.015625 -1.421875 
Q 20.359375 -1.421875 13.671875 8.265625 
Q 6.984375 17.96875 6.984375 36.375 
Q 6.984375 53.65625 15.1875 63.9375 
Q 23.390625 74.21875 37.203125 74.21875 
Q 40.921875 74.21875 44.703125 73.484375 
Q 48.484375 72.75 52.59375 71.296875 
z
" id="DejaVuSans-54"/>
      </defs>
      <g transform="translate(384.302658 399.078438)scale(0.1 -0.1)">
       <use xlink:href="#DejaVuSans-54"/>
       <use x="63.623047" xlink:href="#DejaVuSans-48"/>
       <use x="127.246094" xlink:href="#DejaVuSans-48"/>
      </g>
     </g>
    </g>
    <g id="xtick_5">
     <g id="line2d_5">
      <g>
       <use style="stroke:#000000;stroke-width:0.8;" x="478.98309" xlink:href="#m873d4b0cea" y="384.48"/>
      </g>
     </g>
     <g id="text_5">
      <!-- 800 -->
      <defs>
       <path d="M 31.78125 34.625 
Q 24.75 34.625 20.71875 30.859375 
Q 16.703125 27.09375 16.703125 20.515625 
Q 16.703125 13.921875 20.71875 10.15625 
Q 24.75 6.390625 31.78125 6.390625 
Q 38.8125 6.390625 42.859375 10.171875 
Q 46.921875 13.96875 46.921875 20.515625 
Q 46.921875 27.09375 42.890625 30.859375 
Q 38.875 34.625 31.78125 34.625 
z
M 21.921875 38.8125 
Q 15.578125 40.375 12.03125 44.71875 
Q 8.5 49.078125 8.5 55.328125 
Q 8.5 64.0625 14.71875 69.140625 
Q 20.953125 74.21875 31.78125 74.21875 
Q 42.671875 74.21875 48.875 69.140625 
Q 55.078125 64.0625 55.078125 55.328125 
Q 55.078125 49.078125 51.53125 44.71875 
Q 48 40.375 41.703125 38.8125 
Q 48.828125 37.15625 52.796875 32.3125 
Q 56.78125 27.484375 56.78125 20.515625 
Q 56.78125 9.90625 50.3125 4.234375 
Q 43.84375 -1.421875 31.78125 -1.421875 
Q 19.734375 -1.421875 13.25 4.234375 
Q 6.78125 9.90625 6.78125 20.515625 
Q 6.78125 27.484375 10.78125 32.3125 
Q 14.796875 37.15625 21.921875 38.8125 
z
M 18.3125 54.390625 
Q 18.3125 48.734375 21.84375 45.5625 
Q 25.390625 42.390625 31.78125 42.390625 
Q 38.140625 42.390625 41.71875 45.5625 
Q 45.3125 48.734375 45.3125 54.390625 
Q 45.3125 60.0625 41.71875 63.234375 
Q 38.140625 66.40625 31.78125 66.40625 
Q 25.390625 66.40625 21.84375 63.234375 
Q 18.3125 60.0625 18.3125 54.390625 
z
" id="DejaVuSans-56"/>
      </defs>
      <g transform="translate(469.43934 399.078438)scale(0.1 -0.1)">
       <use xlink:href="#DejaVuSans-56"/>
       <use x="63.623047" xlink:href="#DejaVuSans-48"/>
       <use x="127.246094" xlink:href="#DejaVuSans-48"/>
      </g>
     </g>
    </g>
    <g id="xtick_6">
     <g id="line2d_6">
      <g>
       <use style="stroke:#000000;stroke-width:0.8;" x="564.119771" xlink:href="#m873d4b0cea" y="384.48"/>
      </g>
     </g>
     <g id="text_6">
      <!-- 1000 -->
      <defs>
       <path d="M 12.40625 8.296875 
L 28.515625 8.296875 
L 28.515625 63.921875 
L 10.984375 60.40625 
L 10.984375 69.390625 
L 28.421875 72.90625 
L 38.28125 72.90625 
L 38.28125 8.296875 
L 54.390625 8.296875 
L 54.390625 0 
L 12.40625 0 
z
" id="DejaVuSans-49"/>
      </defs>
      <g transform="translate(551.394771 399.078438)scale(0.1 -0.1)">
       <use xlink:href="#DejaVuSans-49"/>
       <use x="63.623047" xlink:href="#DejaVuSans-48"/>
       <use x="127.246094" xlink:href="#DejaVuSans-48"/>
       <use x="190.869141" xlink:href="#DejaVuSans-48"/>
      </g>
     </g>
    </g>
    <g id="xtick_7">
     <g id="line2d_7">
      <g>
       <use style="stroke:#000000;stroke-width:0.8;" x="649.256453" xlink:href="#m873d4b0cea" y="384.48"/>
      </g>
     </g>
     <g id="text_7">
      <!-- 1200 -->
      <g transform="translate(636.531453 399.078438)scale(0.1 -0.1)">
       <use xlink:href="#DejaVuSans-49"/>
       <use x="63.623047" xlink:href="#DejaVuSans-50"/>
       <use x="127.246094" xlink:href="#DejaVuSans-48"/>
       <use x="190.869141" xlink:href="#DejaVuSans-48"/>
      </g>
     </g>
    </g>
    <g id="xtick_8">
     <g id="line2d_8">
      <g>
       <use style="stroke:#000000;stroke-width:0.8;" x="734.393134" xlink:href="#m873d4b0cea" y="384.48"/>
      </g>
     </g>
     <g id="text_8">
      <!-- 1400 -->
      <g transform="translate(721.668134 399.078438)scale(0.1 -0.1)">
       <use xlink:href="#DejaVuSans-49"/>
       <use x="63.623047" xlink:href="#DejaVuSans-52"/>
       <use x="127.246094" xlink:href="#DejaVuSans-48"/>
       <use x="190.869141" xlink:href="#DejaVuSans-48"/>
      </g>
     </g>
    </g>
    <g id="text_9">
     <!-- Timestamp -->
     <defs>
      <path d="M -0.296875 72.90625 
L 61.375 72.90625 
L 61.375 64.59375 
L 35.5 64.59375 
L 35.5 0 
L 25.59375 0 
L 25.59375 64.59375 
L -0.296875 64.59375 
z
" id="DejaVuSans-84"/>
      <path d="M 9.421875 54.6875 
L 18.40625 54.6875 
L 18.40625 0 
L 9.421875 0 
z
M 9.421875 75.984375 
L 18.40625 75.984375 
L 18.40625 64.59375 
L 9.421875 64.59375 
z
" id="DejaVuSans-105"/>
      <path d="M 52 44.1875 
Q 55.375 50.25 60.0625 53.125 
Q 64.75 56 71.09375 56 
Q 79.640625 56 84.28125 50.015625 
Q 88.921875 44.046875 88.921875 33.015625 
L 88.921875 0 
L 79.890625 0 
L 79.890625 32.71875 
Q 79.890625 40.578125 77.09375 44.375 
Q 74.3125 48.1875 68.609375 48.1875 
Q 61.625 48.1875 57.5625 43.546875 
Q 53.515625 38.921875 53.515625 30.90625 
L 53.515625 0 
L 44.484375 0 
L 44.484375 32.71875 
Q 44.484375 40.625 41.703125 44.40625 
Q 38.921875 48.1875 33.109375 48.1875 
Q 26.21875 48.1875 22.15625 43.53125 
Q 18.109375 38.875 18.109375 30.90625 
L 18.109375 0 
L 9.078125 0 
L 9.078125 54.6875 
L 18.109375 54.6875 
L 18.109375 46.1875 
Q 21.1875 51.21875 25.484375 53.609375 
Q 29.78125 56 35.6875 56 
Q 41.65625 56 45.828125 52.96875 
Q 50 49.953125 52 44.1875 
z
" id="DejaVuSans-109"/>
      <path d="M 56.203125 29.59375 
L 56.203125 25.203125 
L 14.890625 25.203125 
Q 15.484375 15.921875 20.484375 11.0625 
Q 25.484375 6.203125 34.421875 6.203125 
Q 39.59375 6.203125 44.453125 7.46875 
Q 49.3125 8.734375 54.109375 11.28125 
L 54.109375 2.78125 
Q 49.265625 0.734375 44.1875 -0.34375 
Q 39.109375 -1.421875 33.890625 -1.421875 
Q 20.796875 -1.421875 13.15625 6.1875 
Q 5.515625 13.8125 5.515625 26.8125 
Q 5.515625 40.234375 12.765625 48.109375 
Q 20.015625 56 32.328125 56 
Q 43.359375 56 49.78125 48.890625 
Q 56.203125 41.796875 56.203125 29.59375 
z
M 47.21875 32.234375 
Q 47.125 39.59375 43.09375 43.984375 
Q 39.0625 48.390625 32.421875 48.390625 
Q 24.90625 48.390625 20.390625 44.140625 
Q 15.875 39.890625 15.1875 32.171875 
z
" id="DejaVuSans-101"/>
      <path d="M 44.28125 53.078125 
L 44.28125 44.578125 
Q 40.484375 46.53125 36.375 47.5 
Q 32.28125 48.484375 27.875 48.484375 
Q 21.1875 48.484375 17.84375 46.4375 
Q 14.5 44.390625 14.5 40.28125 
Q 14.5 37.15625 16.890625 35.375 
Q 19.28125 33.59375 26.515625 31.984375 
L 29.59375 31.296875 
Q 39.15625 29.25 43.1875 25.515625 
Q 47.21875 21.78125 47.21875 15.09375 
Q 47.21875 7.46875 41.1875 3.015625 
Q 35.15625 -1.421875 24.609375 -1.421875 
Q 20.21875 -1.421875 15.453125 -0.5625 
Q 10.6875 0.296875 5.421875 2 
L 5.421875 11.28125 
Q 10.40625 8.6875 15.234375 7.390625 
Q 20.0625 6.109375 24.8125 6.109375 
Q 31.15625 6.109375 34.5625 8.28125 
Q 37.984375 10.453125 37.984375 14.40625 
Q 37.984375 18.0625 35.515625 20.015625 
Q 33.0625 21.96875 24.703125 23.78125 
L 21.578125 24.515625 
Q 13.234375 26.265625 9.515625 29.90625 
Q 5.8125 33.546875 5.8125 39.890625 
Q 5.8125 47.609375 11.28125 51.796875 
Q 16.75 56 26.8125 56 
Q 31.78125 56 36.171875 55.265625 
Q 40.578125 54.546875 44.28125 53.078125 
z
" id="DejaVuSans-115"/>
      <path d="M 18.3125 70.21875 
L 18.3125 54.6875 
L 36.8125 54.6875 
L 36.8125 47.703125 
L 18.3125 47.703125 
L 18.3125 18.015625 
Q 18.3125 11.328125 20.140625 9.421875 
Q 21.96875 7.515625 27.59375 7.515625 
L 36.8125 7.515625 
L 36.8125 0 
L 27.59375 0 
Q 17.1875 0 13.234375 3.875 
Q 9.28125 7.765625 9.28125 18.015625 
L 9.28125 47.703125 
L 2.6875 47.703125 
L 2.6875 54.6875 
L 9.28125 54.6875 
L 9.28125 70.21875 
z
" id="DejaVuSans-116"/>
      <path d="M 34.28125 27.484375 
Q 23.390625 27.484375 19.1875 25 
Q 14.984375 22.515625 14.984375 16.5 
Q 14.984375 11.71875 18.140625 8.90625 
Q 21.296875 6.109375 26.703125 6.109375 
Q 34.1875 6.109375 38.703125 11.40625 
Q 43.21875 16.703125 43.21875 25.484375 
L 43.21875 27.484375 
z
M 52.203125 31.203125 
L 52.203125 0 
L 43.21875 0 
L 43.21875 8.296875 
Q 40.140625 3.328125 35.546875 0.953125 
Q 30.953125 -1.421875 24.3125 -1.421875 
Q 15.921875 -1.421875 10.953125 3.296875 
Q 6 8.015625 6 15.921875 
Q 6 25.140625 12.171875 29.828125 
Q 18.359375 34.515625 30.609375 34.515625 
L 43.21875 34.515625 
L 43.21875 35.40625 
Q 43.21875 41.609375 39.140625 45 
Q 35.0625 48.390625 27.6875 48.390625 
Q 23 48.390625 18.546875 47.265625 
Q 14.109375 46.140625 10.015625 43.890625 
L 10.015625 52.203125 
Q 14.9375 54.109375 19.578125 55.046875 
Q 24.21875 56 28.609375 56 
Q 40.484375 56 46.34375 49.84375 
Q 52.203125 43.703125 52.203125 31.203125 
z
" id="DejaVuSans-97"/>
      <path d="M 18.109375 8.203125 
L 18.109375 -20.796875 
L 9.078125 -20.796875 
L 9.078125 54.6875 
L 18.109375 54.6875 
L 18.109375 46.390625 
Q 20.953125 51.265625 25.265625 53.625 
Q 29.59375 56 35.59375 56 
Q 45.5625 56 51.78125 48.09375 
Q 58.015625 40.1875 58.015625 27.296875 
Q 58.015625 14.40625 51.78125 6.484375 
Q 45.5625 -1.421875 35.59375 -1.421875 
Q 29.59375 -1.421875 25.265625 0.953125 
Q 20.953125 3.328125 18.109375 8.203125 
z
M 48.6875 27.296875 
Q 48.6875 37.203125 44.609375 42.84375 
Q 40.53125 48.484375 33.40625 48.484375 
Q 26.265625 48.484375 22.1875 42.84375 
Q 18.109375 37.203125 18.109375 27.296875 
Q 18.109375 17.390625 22.1875 11.75 
Q 26.265625 6.109375 33.40625 6.109375 
Q 40.53125 6.109375 44.609375 11.75 
Q 48.6875 17.390625 48.6875 27.296875 
z
" id="DejaVuSans-112"/>
     </defs>
     <g transform="translate(414.739062 412.756563)scale(0.1 -0.1)">
      <use xlink:href="#DejaVuSans-84"/>
      <use x="61.037109" xlink:href="#DejaVuSans-105"/>
      <use x="88.820312" xlink:href="#DejaVuSans-109"/>
      <use x="186.232422" xlink:href="#DejaVuSans-101"/>
      <use x="247.755859" xlink:href="#DejaVuSans-115"/>
      <use x="299.855469" xlink:href="#DejaVuSans-116"/>
      <use x="339.064453" xlink:href="#DejaVuSans-97"/>
      <use x="400.34375" xlink:href="#DejaVuSans-109"/>
      <use x="497.755859" xlink:href="#DejaVuSans-112"/>
     </g>
    </g>
   </g>
   <g id="matplotlib.axis_2">
    <g id="ytick_1">
     <g id="line2d_9">
      <defs>
       <path d="M 0 0 
L -3.5 0 
" id="m0207fbc0a5" style="stroke:#000000;stroke-width:0.8;"/>
      </defs>
      <g>
       <use style="stroke:#000000;stroke-width:0.8;" x="108" xlink:href="#m0207fbc0a5" y="369.364759"/>
      </g>
     </g>
     <g id="text_10">
      <!-- 0 -->
      <g transform="translate(94.6375 373.163977)scale(0.1 -0.1)">
       <use xlink:href="#DejaVuSans-48"/>
      </g>
     </g>
    </g>
    <g id="ytick_2">
     <g id="line2d_10">
      <g>
       <use style="stroke:#000000;stroke-width:0.8;" x="108" xlink:href="#m0207fbc0a5" y="301.385948"/>
      </g>
     </g>
     <g id="text_11">
      <!-- 200000 -->
      <g transform="translate(62.825 305.185167)scale(0.1 -0.1)">
       <use xlink:href="#DejaVuSans-50"/>
       <use x="63.623047" xlink:href="#DejaVuSans-48"/>
       <use x="127.246094" xlink:href="#DejaVuSans-48"/>
       <use x="190.869141" xlink:href="#DejaVuSans-48"/>
       <use x="254.492188" xlink:href="#DejaVuSans-48"/>
       <use x="318.115234" xlink:href="#DejaVuSans-48"/>
      </g>
     </g>
    </g>
    <g id="ytick_3">
     <g id="line2d_11">
      <g>
       <use style="stroke:#000000;stroke-width:0.8;" x="108" xlink:href="#m0207fbc0a5" y="233.407137"/>
      </g>
     </g>
     <g id="text_12">
      <!-- 400000 -->
      <g transform="translate(62.825 237.206356)scale(0.1 -0.1)">
       <use xlink:href="#DejaVuSans-52"/>
       <use x="63.623047" xlink:href="#DejaVuSans-48"/>
       <use x="127.246094" xlink:href="#DejaVuSans-48"/>
       <use x="190.869141" xlink:href="#DejaVuSans-48"/>
       <use x="254.492188" xlink:href="#DejaVuSans-48"/>
       <use x="318.115234" xlink:href="#DejaVuSans-48"/>
      </g>
     </g>
    </g>
    <g id="ytick_4">
     <g id="line2d_12">
      <g>
       <use style="stroke:#000000;stroke-width:0.8;" x="108" xlink:href="#m0207fbc0a5" y="165.428327"/>
      </g>
     </g>
     <g id="text_13">
      <!-- 600000 -->
      <g transform="translate(62.825 169.227546)scale(0.1 -0.1)">
       <use xlink:href="#DejaVuSans-54"/>
       <use x="63.623047" xlink:href="#DejaVuSans-48"/>
       <use x="127.246094" xlink:href="#DejaVuSans-48"/>
       <use x="190.869141" xlink:href="#DejaVuSans-48"/>
       <use x="254.492188" xlink:href="#DejaVuSans-48"/>
       <use x="318.115234" xlink:href="#DejaVuSans-48"/>
      </g>
     </g>
    </g>
    <g id="ytick_5">
     <g id="line2d_13">
      <g>
       <use style="stroke:#000000;stroke-width:0.8;" x="108" xlink:href="#m0207fbc0a5" y="97.449516"/>
      </g>
     </g>
     <g id="text_14">
      <!-- 800000 -->
      <g transform="translate(62.825 101.248735)scale(0.1 -0.1)">
       <use xlink:href="#DejaVuSans-56"/>
       <use x="63.623047" xlink:href="#DejaVuSans-48"/>
       <use x="127.246094" xlink:href="#DejaVuSans-48"/>
       <use x="190.869141" xlink:href="#DejaVuSans-48"/>
       <use x="254.492188" xlink:href="#DejaVuSans-48"/>
       <use x="318.115234" xlink:href="#DejaVuSans-48"/>
      </g>
     </g>
    </g>
    <g id="text_15">
     <!-- Value -->
     <defs>
      <path d="M 28.609375 0 
L 0.78125 72.90625 
L 11.078125 72.90625 
L 34.1875 11.53125 
L 57.328125 72.90625 
L 67.578125 72.90625 
L 39.796875 0 
z
" id="DejaVuSans-86"/>
      <path d="M 9.421875 75.984375 
L 18.40625 75.984375 
L 18.40625 0 
L 9.421875 0 
z
" id="DejaVuSans-108"/>
      <path d="M 8.5 21.578125 
L 8.5 54.6875 
L 17.484375 54.6875 
L 17.484375 21.921875 
Q 17.484375 14.15625 20.5 10.265625 
Q 23.53125 6.390625 29.59375 6.390625 
Q 36.859375 6.390625 41.078125 11.03125 
Q 45.3125 15.671875 45.3125 23.6875 
L 45.3125 54.6875 
L 54.296875 54.6875 
L 54.296875 0 
L 45.3125 0 
L 45.3125 8.40625 
Q 42.046875 3.421875 37.71875 1 
Q 33.40625 -1.421875 27.6875 -1.421875 
Q 18.265625 -1.421875 13.375 4.4375 
Q 8.5 10.296875 8.5 21.578125 
z
M 31.109375 56 
z
" id="DejaVuSans-117"/>
     </defs>
     <g transform="translate(56.745312 232.273281)rotate(-90)scale(0.1 -0.1)">
      <use xlink:href="#DejaVuSans-86"/>
      <use x="68.298828" xlink:href="#DejaVuSans-97"/>
      <use x="129.578125" xlink:href="#DejaVuSans-108"/>
      <use x="157.361328" xlink:href="#DejaVuSans-117"/>
      <use x="220.740234" xlink:href="#DejaVuSans-101"/>
     </g>
    </g>
   </g>
   <g id="line2d_14">
    <path clip-path="url(#p63f4dc46da)" d="M 138.436364 369.36 
L 138.862047 360.303863 
L 139.28773 179.733448 
L 139.713414 180.048869 
L 140.139097 186.450774 
L 140.564781 199.854156 
L 141.841831 271.0623 
L 142.267514 278.389736 
L 142.693198 282.060592 
L 143.118881 283.489506 
L 143.544565 284.040815 
L 143.970248 282.909987 
L 144.395931 276.412232 
L 144.821615 255.98256 
L 145.247298 224.965869 
L 145.672982 202.253468 
L 146.098665 193.61744 
L 146.524348 199.259341 
L 146.950032 192.140261 
L 147.375715 190.484637 
L 147.801399 189.749106 
L 148.227082 187.014318 
L 148.652765 180.044791 
L 149.078449 191.726609 
L 149.504132 197.801196 
L 150.355499 203.349966 
L 150.781182 213.029469 
L 152.058233 273.300162 
L 152.483916 281.165991 
L 152.909599 284.510888 
L 153.335283 286.486012 
L 153.760966 287.106999 
L 154.18665 286.046529 
L 154.612333 281.531377 
L 155.038017 265.052293 
L 155.4637 237.47193 
L 156.315067 201.656274 
L 156.74075 194.251003 
L 157.166434 192.261603 
L 157.592117 191.536269 
L 158.0178 188.736222 
L 158.443484 183.162299 
L 158.869167 173.82269 
L 159.294851 171.286741 
L 159.720534 177.404494 
L 160.146217 174.30432 
L 160.571901 176.462647 
L 160.997584 196.635699 
L 161.848951 261.819561 
L 162.274634 275.094123 
L 162.700318 280.754719 
L 163.126001 283.570401 
L 163.551685 284.206683 
L 163.977368 284.242712 
L 164.403051 280.524271 
L 164.828735 264.735512 
L 166.105785 160.868988 
L 166.531469 171.633773 
L 166.957152 141.028013 
L 168.234202 134.006141 
L 168.659886 133.873923 
L 169.085569 125.158359 
L 169.511252 137.736818 
L 169.936936 153.831822 
L 170.362619 147.967629 
L 170.788303 148.216432 
L 171.213986 172.724153 
L 172.065353 251.098963 
L 172.491036 269.239788 
L 172.91672 276.909837 
L 173.342403 279.718382 
L 173.768086 280.331211 
L 174.19377 280.675524 
L 174.619453 276.893522 
L 175.045137 259.081035 
L 176.322187 154.79882 
L 176.74787 145.173021 
L 177.173554 142.077945 
L 177.599237 147.752476 
L 178.024921 137.980183 
L 178.450604 138.176981 
L 178.876287 136.161409 
L 179.301971 125.665481 
L 180.153338 152.325411 
L 180.579021 150.946121 
L 181.004704 155.923869 
L 181.430388 173.698629 
L 182.281755 251.632936 
L 182.707438 268.862506 
L 183.133121 275.913268 
L 183.558805 278.764299 
L 183.984488 279.580045 
L 184.410172 279.776844 
L 184.835855 275.509134 
L 185.261538 258.534825 
L 186.538589 155.225047 
L 187.389955 142.399145 
L 187.815639 156.478237 
L 188.241322 142.89573 
L 188.667006 143.278451 
L 189.518373 133.324654 
L 189.944056 144.273321 
L 190.369739 165.598274 
L 190.795423 154.160839 
L 191.221106 156.157037 
L 191.64679 175.36479 
L 192.498156 251.957875 
L 192.92384 269.355352 
L 193.349523 276.531535 
L 193.775207 279.539258 
L 194.20089 280.258813 
L 194.626573 280.213268 
L 195.052257 276.204217 
L 195.47794 259.185042 
L 196.75499 164.236318 
L 197.180674 169.453012 
L 197.606357 154.430375 
L 198.032041 150.699698 
L 199.309091 146.495548 
L 199.734774 140.377795 
L 200.586141 166.603001 
L 201.011825 166.38207 
L 201.437508 166.300835 
L 201.863191 183.605861 
L 202.288875 220.293685 
L 202.714558 288.779617 
L 203.140242 275.453051 
L 203.565925 283.239344 
L 203.991608 285.597529 
L 204.417292 284.499332 
L 204.842975 285.364702 
L 205.268659 280.793807 
L 205.694342 264.072039 
L 206.545709 187.433068 
L 206.971392 161.096717 
L 207.397076 152.452871 
L 207.822759 149.210962 
L 208.248442 152.241117 
L 208.674126 153.134019 
L 209.099809 154.500733 
L 209.525493 152.929403 
L 209.951176 144.585684 
L 210.802543 177.423528 
L 211.228226 181.834333 
L 211.65391 187.626807 
L 212.079593 201.258598 
L 213.356643 271.76656 
L 213.782327 278.828879 
L 214.20801 282.732902 
L 214.633694 284.002067 
L 215.059377 284.394304 
L 215.48506 282.936839 
L 215.910744 275.848008 
L 216.336427 252.864033 
L 216.762111 221.998254 
L 217.187794 203.266352 
L 217.613477 197.245809 
L 218.039161 195.505212 
L 218.890528 195.097679 
L 219.316211 195.291418 
L 219.741894 193.448173 
L 220.167578 184.662931 
L 220.593261 184.706778 
L 221.018945 206.369245 
L 221.444628 199.670953 
L 221.870312 203.473348 
L 222.295995 212.273545 
L 223.573045 268.999483 
L 223.998729 277.656245 
L 224.424412 281.102091 
L 224.850095 282.225101 
L 225.275779 282.528286 
L 225.701462 281.9695 
L 226.127146 276.899301 
L 226.552829 259.479051 
L 227.404196 211.77424 
L 227.829879 203.05052 
L 228.255563 199.964282 
L 228.681246 198.823257 
L 229.106929 195.972566 
L 229.532613 196.078273 
L 229.958296 188.978226 
L 230.38398 178.970726 
L 230.809663 175.077919 
L 231.235346 180.36905 
L 231.66103 176.734902 
L 232.086713 174.502138 
L 232.512397 194.374044 
L 233.363764 260.590504 
L 233.789447 272.640428 
L 234.21513 278.988289 
L 234.640814 281.390321 
L 235.066497 281.991593 
L 235.492181 281.766923 
L 235.917864 278.76158 
L 236.343547 263.280086 
L 237.620598 159.045116 
L 238.046281 147.333387 
L 238.471964 142.390648 
L 238.897648 141.03719 
L 239.323331 140.500157 
L 239.749015 142.025262 
L 240.174698 142.509271 
L 240.600381 132.30905 
L 241.026065 144.209421 
L 241.451748 162.266292 
L 241.877432 157.040421 
L 242.303115 153.909317 
L 242.728798 174.125196 
L 243.580165 254.516258 
L 244.005849 271.130959 
L 244.431532 278.266015 
L 244.857216 280.531069 
L 245.282899 280.732286 
L 245.708582 280.382535 
L 246.134266 276.225291 
L 246.559949 258.820676 
L 247.411316 183.922302 
L 247.836999 156.187967 
L 248.262683 146.091414 
L 248.688366 144.840264 
L 249.11405 145.71923 
L 249.539733 145.360642 
L 249.965416 132.141822 
L 250.3911 148.815665 
L 250.816783 134.285534 
L 251.242467 148.459456 
L 251.66815 157.627418 
L 252.093833 154.868838 
L 252.519517 153.93311 
L 252.9452 174.604107 
L 253.796567 253.221261 
L 254.22225 270.589847 
L 254.647934 276.883326 
L 255.073617 279.391064 
L 255.499301 280.074931 
L 255.924984 280.135772 
L 256.350668 275.634555 
L 256.776351 257.829545 
L 257.627718 183.631353 
L 258.053401 155.044903 
L 258.479085 144.666578 
L 258.904768 140.994023 
L 259.330451 146.101611 
L 259.756135 147.942137 
L 260.181818 136.831341 
L 260.607502 146.758626 
L 261.033185 137.89113 
L 261.458868 145.575795 
L 261.884552 159.234777 
L 262.310235 159.526746 
L 262.735919 159.520968 
L 263.161602 177.277033 
L 264.012969 252.594836 
L 264.438652 270.512012 
L 264.864336 278.427124 
L 265.290019 281.053486 
L 265.715702 280.959675 
L 266.141386 281.284614 
L 266.567069 276.655936 
L 266.992753 257.965162 
L 268.269803 155.895658 
L 268.695486 147.102939 
L 269.12117 144.655022 
L 269.546853 146.007121 
L 269.972537 144.807634 
L 270.39822 175.416114 
L 270.823903 147.70761 
L 271.249587 140.737403 
L 272.100954 160.107965 
L 272.526637 143.885162 
L 272.95232 166.79674 
L 273.378004 183.188471 
L 274.229371 255.680395 
L 274.655054 272.464703 
L 275.080737 279.252387 
L 275.506421 281.977998 
L 275.932104 286.901023 
L 276.357788 283.664552 
L 276.783471 279.17761 
L 277.209154 261.27845 
L 278.060521 184.367223 
L 278.486205 156.451725 
L 278.911888 148.034249 
L 279.763255 141.346833 
L 280.188938 160.391777 
L 280.614622 155.867107 
L 281.040305 141.750287 
L 281.465989 176.216904 
L 281.891672 164.573833 
L 282.317355 165.241045 
L 282.743039 187.401458 
L 283.168722 190.418697 
L 283.594406 201.290888 
L 284.871456 272.89127 
L 285.297139 280.677563 
L 285.722823 284.208722 
L 286.148506 285.445597 
L 286.574189 285.441518 
L 286.999873 283.819204 
L 287.425556 281.683649 
L 288.276923 218.959601 
L 288.702606 199.543153 
L 289.12829 193.281285 
L 289.553973 191.123298 
L 289.979657 190.812294 
L 290.40534 188.800122 
L 290.831024 188.13189 
L 291.256707 185.170733 
L 291.68239 178.903087 
L 292.108074 181.820737 
L 292.533757 191.652513 
L 293.385124 199.839541 
L 293.810807 210.707993 
L 295.513541 279.250688 
L 295.939224 283.751565 
L 296.364908 285.592431 
L 296.790591 286.067603 
L 297.216275 284.768868 
L 297.641958 279.314928 
L 298.067641 260.245512 
L 298.919008 208.749863 
L 299.344692 195.211203 
L 299.770375 186.712832 
L 300.196058 184.996367 
L 300.621742 185.862417 
L 301.047425 184.625883 
L 301.473109 180.69025 
L 301.898792 172.906336 
L 302.324476 170.650119 
L 302.750159 176.752917 
L 303.175842 172.660253 
L 303.601526 174.388954 
L 304.027209 194.179965 
L 304.878576 258.083446 
L 305.304259 272.766869 
L 305.729943 279.573927 
L 306.155626 282.51571 
L 306.58131 283.717235 
L 307.006993 283.536412 
L 307.432676 279.800636 
L 307.85836 263.933022 
L 309.13541 160.367304 
L 309.561093 148.092371 
L 309.986777 142.023902 
L 310.41246 140.497778 
L 311.263827 138.603208 
L 311.68951 135.186933 
L 312.115194 139.65654 
L 312.540877 138.992727 
L 312.966561 150.446477 
L 313.392244 147.090703 
L 313.817928 148.732391 
L 314.243611 170.085555 
L 315.094978 253.474142 
L 315.520661 270.362118 
L 315.946345 276.824524 
L 316.372028 279.506968 
L 316.797711 280.33257 
L 317.223395 280.247937 
L 317.649078 275.880298 
L 318.074762 257.743552 
L 318.926128 181.196352 
L 319.351812 155.970095 
L 319.777495 148.03017 
L 320.203179 143.214211 
L 320.628862 142.077945 
L 321.054545 143.478309 
L 321.480229 142.786964 
L 321.905912 139.071582 
L 322.331596 166.374932 
L 322.757279 137.50807 
L 323.182962 146.830004 
L 323.608646 145.948319 
L 324.034329 147.682458 
L 324.460013 169.583532 
L 325.31138 248.832209 
L 325.737063 265.311293 
L 326.162746 271.692464 
L 326.58843 274.064244 
L 327.014113 274.586661 
L 327.439797 274.703245 
L 327.86548 269.529378 
L 328.291163 251.067353 
L 329.14253 175.135021 
L 329.568214 148.522337 
L 329.993897 139.341118 
L 330.41958 136.621286 
L 330.845264 137.24941 
L 331.270947 136.856493 
L 331.696631 136.886064 
L 332.122314 134.582941 
L 332.547997 125.905446 
L 332.973681 142.51267 
L 333.399364 153.971518 
L 333.825048 151.562689 
L 334.250731 154.246492 
L 334.676414 172.162648 
L 335.527781 251.455851 
L 335.953465 267.836026 
L 336.379148 274.469398 
L 336.804832 276.642681 
L 337.230515 277.133827 
L 337.656198 277.038657 
L 338.081882 272.276741 
L 338.507565 253.937758 
L 339.358932 178.02514 
L 339.784615 151.482134 
L 340.210299 143.73051 
L 340.635982 142.441972 
L 341.061666 146.709002 
L 341.487349 142.923262 
L 341.913032 144.727419 
L 342.764399 132.551055 
L 343.190083 148.614788 
L 343.615766 157.264412 
L 344.041449 154.643488 
L 344.467133 155.333473 
L 344.892816 174.571137 
L 345.744183 250.299872 
L 346.169866 266.98731 
L 346.59555 272.977603 
L 347.021233 275.362979 
L 347.446917 275.968671 
L 347.8726 276.144396 
L 348.298284 271.488187 
L 348.723967 252.108788 
L 349.575334 176.018406 
L 350.001017 149.884972 
L 350.426701 141.144596 
L 350.852384 139.321744 
L 351.278067 144.924218 
L 351.703751 145.547244 
L 352.129434 141.712219 
L 352.555118 142.041237 
L 352.980801 145.799105 
L 353.406484 150.898876 
L 353.832168 166.751534 
L 354.257851 170.119884 
L 354.683535 175.516722 
L 355.109218 191.352726 
L 355.960585 256.470308 
L 356.386268 271.86445 
L 356.811952 277.911505 
L 357.237635 281.474275 
L 357.663318 281.983096 
L 358.089002 281.868552 
L 358.514685 279.933195 
L 358.940369 271.194859 
L 359.366052 246.2949 
L 359.791736 213.86051 
L 360.217419 196.596951 
L 360.643102 202.980162 
L 361.068786 191.587933 
L 361.494469 192.567167 
L 361.920153 192.966543 
L 362.345836 192.298311 
L 362.771519 190.245011 
L 363.197203 180.955027 
L 363.622886 180.476796 
L 364.04857 189.86569 
L 364.899936 196.956899 
L 365.32562 208.250899 
L 365.751303 229.921524 
L 366.176987 261.832817 
L 366.60267 276.379263 
L 367.028353 282.923923 
L 367.454037 285.297743 
L 367.87972 286.422452 
L 368.305404 286.436388 
L 368.731087 285.475507 
L 369.156771 279.539598 
L 369.582454 258.501175 
L 370.008137 230.25496 
L 370.433821 210.528529 
L 370.859504 202.886011 
L 371.285188 198.451413 
L 371.710871 197.696169 
L 372.136554 196.015733 
L 372.562238 192.843501 
L 372.987921 187.182226 
L 373.413605 177.246443 
L 373.839288 182.61337 
L 374.264971 171.536903 
L 374.690655 182.510722 
L 375.116338 179.108723 
L 375.542022 198.921827 
L 376.393388 260.970166 
L 376.819072 274.005443 
L 377.244755 279.520903 
L 377.670439 281.830144 
L 378.096122 282.123812 
L 378.521805 281.834562 
L 378.947489 277.321789 
L 379.373172 260.69927 
L 380.650223 150.236082 
L 381.075906 141.184024 
L 381.501589 136.245023 
L 381.927273 140.145308 
L 382.352956 137.421397 
L 382.77864 136.614148 
L 383.204323 131.813825 
L 383.630006 123.097921 
L 384.481373 147.062831 
L 384.907057 142.880435 
L 385.33274 144.458563 
L 385.758423 169.453692 
L 386.60979 249.876704 
L 387.035474 266.286109 
L 387.461157 272.719623 
L 387.88684 275.447953 
L 388.312524 275.877579 
L 388.738207 274.966323 
L 389.163891 271.063999 
L 389.589574 251.723008 
L 390.015257 225.157909 
L 390.440941 174.46475 
L 390.866624 147.35514 
L 391.292308 139.122906 
L 391.717991 135.787526 
L 392.143675 141.608891 
L 392.569358 138.996466 
L 392.995041 160.799989 
L 393.420725 259.648998 
L 393.846408 124.732472 
L 394.697775 148.625324 
L 395.123458 146.614851 
L 395.549142 147.724265 
L 395.974825 168.747392 
L 396.826192 248.37947 
L 397.251875 265.071667 
L 397.677559 274.008502 
L 398.103242 276.494147 
L 398.528926 276.432286 
L 398.954609 275.500637 
L 399.380292 270.207806 
L 399.805976 251.81274 
L 400.657343 175.569406 
L 401.083026 149.27996 
L 401.508709 140.949837 
L 401.934393 139.895825 
L 402.360076 145.325293 
L 402.78576 143.526234 
L 403.211443 140.977708 
L 403.637127 134.819848 
L 404.06281 126.677686 
L 404.914177 151.441687 
L 405.33986 150.401271 
L 405.765544 152.204069 
L 406.191227 169.134192 
L 407.042594 248.212922 
L 407.468277 264.478552 
L 407.893961 271.143195 
L 408.319644 273.401111 
L 408.745327 273.40519 
L 409.171011 278.254458 
L 409.596694 274.116588 
L 410.022378 255.393524 
L 410.448061 215.450195 
L 411.299428 159.548839 
L 411.725111 145.39803 
L 412.150795 145.550983 
L 412.576478 135.504734 
L 413.002161 122.483053 
L 413.427845 66.96 
L 413.853528 76.436246 
L 414.279212 158.901681 
L 414.704895 161.297254 
L 415.130579 172.37916 
L 415.556262 173.646625 
L 415.981945 176.629535 
L 416.407629 196.476969 
L 417.258996 264.563866 
L 417.684679 279.888669 
L 418.110362 285.713093 
L 418.536046 287.863943 
L 418.961729 287.721867 
L 419.387413 290.367942 
L 419.813096 286.669555 
L 420.238779 268.829876 
L 421.090146 197.59488 
L 421.51583 173.205103 
L 421.941513 163.006582 
L 422.367196 161.897507 
L 422.79288 162.584433 
L 423.218563 163.920217 
L 423.644247 164.012328 
L 424.06993 163.948768 
L 424.495613 157.575075 
L 424.921297 174.349186 
L 425.34698 184.491965 
L 425.772664 190.47512 
L 426.198347 193.850947 
L 426.624031 206.048725 
L 427.475397 260.583706 
L 427.901081 275.860244 
L 428.326764 282.237677 
L 428.752448 284.393625 
L 429.178131 284.732839 
L 429.603814 285.804185 
L 430.029498 287.684819 
L 430.455181 281.505545 
L 431.306548 219.727761 
L 431.732231 201.133177 
L 432.157915 200.819795 
L 432.583598 203.813922 
L 433.009282 200.231099 
L 433.434965 198.601986 
L 433.860648 228.770982 
L 434.286332 194.047066 
L 434.712015 185.936174 
L 435.137699 186.051398 
L 435.563382 194.481451 
L 436.414749 201.609709 
L 436.840432 211.203898 
L 437.691799 249.522874 
L 438.543166 277.087942 
L 438.968849 281.107869 
L 439.394533 282.244474 
L 439.820216 283.817844 
L 440.2459 281.939589 
L 440.671583 276.877887 
L 441.948633 211.737532 
L 442.374317 205.029723 
L 442.8 201.111764 
L 443.225683 200.823194 
L 443.651367 199.940149 
L 444.07705 197.382446 
L 444.502734 192.987956 
L 444.928417 181.42612 
L 445.3541 176.396708 
L 445.779784 177.73589 
L 446.205467 174.845431 
L 446.631151 176.23016 
L 447.056834 196.843375 
L 447.908201 258.186094 
L 448.333884 272.76347 
L 448.759568 278.391096 
L 449.185251 280.839013 
L 449.610935 281.024255 
L 450.036618 280.950838 
L 450.462301 277.206565 
L 450.887985 259.807388 
L 451.739352 185.160876 
L 452.165035 158.052286 
L 452.590718 148.821103 
L 453.016402 144.636668 
L 453.442085 142.563314 
L 453.867769 142.812456 
L 454.293452 142.430415 
L 454.719135 138.685123 
L 455.144819 130.333246 
L 455.996186 148.023372 
L 456.421869 147.190292 
L 456.847552 148.664072 
L 457.273236 174.907292 
L 458.124603 260.31621 
L 458.550286 268.821718 
L 458.975969 274.829346 
L 459.401653 277.211323 
L 459.827336 277.389088 
L 460.25302 277.086922 
L 460.678703 272.619015 
L 461.104387 253.76951 
L 461.53007 219.9871 
L 461.955753 236.289099 
L 462.80712 204.4604 
L 463.232804 164.621418 
L 463.658487 205.450172 
L 464.509854 158.562127 
L 464.935537 152.369597 
L 465.361221 138.123278 
L 465.786904 147.264729 
L 466.212587 162.665668 
L 466.638271 161.751693 
L 467.063954 163.085777 
L 467.489638 182.183064 
L 468.341004 259.411752 
L 468.766688 275.420082 
L 469.192371 281.990234 
L 469.618055 284.483696 
L 470.043738 285.750142 
L 470.469421 285.840214 
L 470.895105 281.105829 
L 471.320788 261.748523 
L 472.172155 183.978385 
L 472.597839 159.213704 
L 473.023522 151.067463 
L 473.449205 148.154571 
L 473.874889 149.164056 
L 474.300572 148.636541 
L 474.726256 147.894892 
L 475.151939 144.260745 
L 475.577622 135.590727 
L 476.428989 159.460807 
L 476.854673 158.314344 
L 477.280356 160.498503 
L 477.706039 178.850063 
L 478.557406 256.348626 
L 478.98309 274.355873 
L 479.408773 280.65581 
L 479.834456 283.490186 
L 480.685823 285.065935 
L 481.111507 280.801624 
L 481.53719 260.095958 
L 482.388557 183.742158 
L 482.81424 159.414241 
L 483.239924 153.03511 
L 484.091291 151.246927 
L 484.942657 150.699698 
L 485.368341 148.266056 
L 485.794024 140.661267 
L 486.645391 165.233228 
L 487.071074 165.045946 
L 487.496758 166.097918 
L 487.922441 184.630301 
L 488.773808 258.786686 
L 489.199491 275.604644 
L 489.625175 299.664724 
L 490.050858 284.940174 
L 490.476542 285.591411 
L 490.902225 285.49862 
L 491.327908 281.188424 
L 491.753592 263.252894 
L 492.604959 188.650908 
L 493.030642 165.966039 
L 493.456325 162.276829 
L 493.882009 159.844207 
L 494.307692 161.731979 
L 494.733376 161.390046 
L 495.159059 162.629639 
L 495.584743 163.151716 
L 496.010426 155.939165 
L 496.861793 183.805379 
L 497.287476 186.808343 
L 497.71316 192.265342 
L 498.138843 206.993631 
L 498.99021 261.796788 
L 499.841577 290.194936 
L 500.26726 287.997861 
L 500.692943 288.978116 
L 501.118627 289.570211 
L 501.54431 288.310904 
L 501.969994 278.477429 
L 502.82136 222.933302 
L 503.247044 211.097511 
L 503.672727 204.425731 
L 504.098411 204.437627 
L 504.524094 203.7558 
L 504.949777 202.648765 
L 505.375461 203.65825 
L 505.801144 202.821431 
L 506.226828 195.288699 
L 506.652511 194.955603 
L 507.503878 212.665783 
L 507.929561 214.59808 
L 508.355245 223.043428 
L 508.780928 239.146928 
L 509.206612 276.539013 
L 509.632295 286.627748 
L 510.057978 293.511962 
L 510.483662 296.785482 
L 510.909345 297.11144 
L 511.335029 295.985371 
L 512.186395 292.466788 
L 513.037762 237.08683 
L 513.463446 220.234203 
L 513.889129 213.420687 
L 514.314812 210.726687 
L 515.166179 209.331082 
L 515.591863 207.788983 
L 516.017546 204.544014 
L 516.443229 193.535186 
L 516.868913 188.290281 
L 517.294596 189.945905 
L 517.72028 183.587846 
L 518.145963 186.584692 
L 518.571647 208.859309 
L 519.423013 267.056649 
L 519.848697 283.426286 
L 520.27438 288.720476 
L 520.700064 290.293166 
L 521.125747 290.682344 
L 521.55143 291.49911 
L 521.977114 287.453011 
L 522.402797 269.272418 
L 523.254164 194.441003 
L 523.679847 167.067976 
L 524.531214 153.439584 
L 524.956898 151.702045 
L 525.382581 152.060973 
L 525.808264 151.861796 
L 526.233948 151.364531 
L 526.659631 148.086932 
L 527.085315 152.180276 
L 527.510998 164.497697 
L 527.936682 164.635014 
L 528.362365 168.259304 
L 528.788048 183.232657 
L 529.213732 237.161947 
L 529.639415 269.028374 
L 530.065099 284.588044 
L 530.490782 290.390035 
L 530.916465 292.380115 
L 531.342149 293.1996 
L 531.767832 292.594588 
L 532.193516 286.605655 
L 532.619199 265.712368 
L 533.470566 187.028254 
L 533.896249 165.683927 
L 534.321933 159.725244 
L 534.747616 157.617901 
L 535.173299 157.641354 
L 535.598983 160.588575 
L 536.024666 160.321759 
L 536.45035 155.592473 
L 536.876033 146.711381 
L 537.7274 167.123718 
L 538.578767 180.898265 
L 539.00445 202.679695 
L 539.855817 264.863652 
L 540.2815 280.244538 
L 540.707184 285.570338 
L 541.132867 288.219472 
L 541.558551 288.599474 
L 541.984234 288.436324 
L 542.409917 285.184898 
L 542.835601 266.078434 
L 543.686968 190.69843 
L 544.112651 173.232634 
L 544.538334 163.74993 
L 544.964018 166.045914 
L 545.389701 163.266261 
L 545.815385 164.372956 
L 546.241068 163.606835 
L 546.666751 157.408867 
L 547.092435 147.135909 
L 547.518118 194.213614 
L 547.943802 165.615608 
L 548.369485 171.573611 
L 548.795168 172.244562 
L 549.220852 188.534664 
L 550.072219 262.568348 
L 550.497902 278.612707 
L 550.923586 285.655991 
L 552.200636 288.441423 
L 552.626319 282.379752 
L 553.052003 263.848729 
L 553.477686 221.375908 
L 553.903369 191.222886 
L 554.329053 169.553281 
L 554.754736 166.570371 
L 555.18042 162.012052 
L 555.606103 161.995737 
L 556.031786 159.452989 
L 556.45747 157.593429 
L 556.883153 164.802922 
L 557.308837 152.84205 
L 557.73452 170.337417 
L 558.160203 172.133417 
L 558.585887 175.082338 
L 559.01157 174.766916 
L 559.437254 187.294391 
L 560.28862 258.130011 
L 561.139987 287.553959 
L 561.565671 282.948395 
L 562.417038 289.336704 
L 562.842721 284.975523 
L 563.268404 268.94442 
L 564.119771 194.184043 
L 564.545455 167.190677 
L 564.971138 165.677129 
L 565.396821 172.503901 
L 565.822505 168.413276 
L 566.248188 166.12273 
L 566.673872 162.762538 
L 567.099555 163.319964 
L 567.525238 156.719901 
L 567.950922 168.253186 
L 568.376605 214.616435 
L 568.802289 186.427321 
L 569.227972 190.464243 
L 569.653655 205.530047 
L 570.930706 282.235977 
L 571.356389 284.001047 
L 571.782072 339.787858 
L 572.207756 369.116636 
L 572.633439 289.410121 
L 573.059123 287.137249 
L 573.484806 276.181104 
L 574.336173 217.595946 
L 574.761856 202.333003 
L 575.18754 197.17885 
L 575.613223 195.706429 
L 576.038907 198.701235 
L 576.46459 196.530672 
L 576.890273 197.982699 
L 577.315957 198.216207 
L 577.74164 189.757263 
L 578.167324 190.463563 
L 578.593007 200.050275 
L 579.01869 203.419645 
L 579.870057 218.381101 
L 581.147107 282.00145 
L 581.572791 290.509678 
L 581.998474 293.169349 
L 582.424158 292.422602 
L 582.849841 293.419171 
L 583.275524 293.002461 
L 583.701208 284.357596 
L 584.978258 216.65138 
L 585.403942 231.628472 
L 585.829625 207.346101 
L 586.255308 206.935169 
L 586.680992 204.440686 
L 587.106675 204.006302 
L 587.532359 199.430988 
L 587.958042 191.770116 
L 588.383725 189.032269 
L 588.809409 189.940806 
L 589.235092 183.058631 
L 589.660776 184.53989 
L 590.086459 205.249634 
L 590.937826 266.841496 
L 591.363509 280.890676 
L 591.789193 285.882361 
L 592.214876 287.731384 
L 592.640559 287.708611 
L 593.066243 288.104248 
L 593.491926 283.759382 
L 593.91761 265.615498 
L 595.19466 163.696567 
L 595.620343 156.280078 
L 596.47171 148.566183 
L 596.897394 151.360112 
L 597.323077 143.502781 
L 597.74876 143.464713 
L 598.174444 132.464382 
L 599.025811 157.755898 
L 599.451494 156.796377 
L 599.877177 161.297934 
L 600.302861 181.078409 
L 601.154228 258.720407 
L 602.005594 284.431013 
L 602.431278 286.475476 
L 602.856961 287.557698 
L 603.282645 285.783791 
L 603.708328 280.642554 
L 604.134011 260.979343 
L 604.985378 184.884202 
L 605.411062 161.833607 
L 605.836745 155.690702 
L 607.113795 148.441782 
L 607.539479 147.80414 
L 607.965162 151.72074 
L 608.390846 143.463693 
L 608.816529 155.628162 
L 609.242212 162.229924 
L 610.093579 170.892803 
L 610.519263 189.917014 
L 611.370629 260.880434 
L 611.796313 278.493064 
L 612.221996 281.946047 
L 612.64768 284.030958 
L 613.073363 283.330436 
L 613.499046 283.084693 
L 613.92473 279.494052 
L 614.350413 259.570822 
L 614.776097 214.750693 
L 615.20178 183.830871 
L 615.627463 163.209498 
L 616.053147 158.00572 
L 616.47883 155.79505 
L 616.904514 156.073083 
L 617.330197 154.364435 
L 617.75588 156.753891 
L 618.181564 152.812479 
L 618.607247 147.22802 
L 619.032931 161.917901 
L 619.458614 160.877145 
L 619.884298 163.804993 
L 620.309981 167.736547 
L 620.735664 186.966393 
L 621.161348 233.276618 
L 621.587031 265.70625 
L 622.012715 280.177919 
L 622.438398 285.007133 
L 622.864081 286.838482 
L 623.715448 288.444822 
L 624.141132 283.164568 
L 624.566815 262.963644 
L 624.992498 217.542582 
L 625.418182 186.107481 
L 625.843865 167.120319 
L 626.269549 160.114083 
L 626.695232 156.588702 
L 627.120915 155.916732 
L 627.546599 156.182869 
L 627.972282 153.435165 
L 628.397966 152.310796 
L 628.823649 143.598291 
L 629.675016 164.203689 
L 630.100699 163.30093 
L 630.526383 167.141733 
L 630.952066 185.561611 
L 631.803433 258.208867 
L 632.229116 274.46192 
L 632.6548 280.502857 
L 633.080483 283.234926 
L 633.506167 283.172045 
L 633.93185 281.751968 
L 634.357533 276.774899 
L 634.783217 257.36321 
L 635.634584 184.903576 
L 636.060267 162.085809 
L 636.48595 158.980197 
L 636.911634 157.787169 
L 637.337317 158.016937 
L 637.763001 159.41866 
L 638.614367 155.874585 
L 639.040051 150.025008 
L 639.465734 165.728793 
L 639.891418 190.299394 
L 640.317101 193.222143 
L 642.445518 281.285293 
L 642.871202 290.911773 
L 643.296885 294.076866 
L 643.722568 294.77093 
L 644.148252 294.32159 
L 644.573935 292.279506 
L 644.999619 282.794763 
L 645.850985 238.703027 
L 647.128036 207.019123 
L 647.553719 217.373655 
L 647.979402 210.823217 
L 648.405086 214.492373 
L 649.256453 204.634766 
L 649.682136 204.329881 
L 650.107819 213.335374 
L 650.533503 213.012475 
L 650.959186 227.057577 
L 651.38487 236.185091 
L 652.236236 268.473327 
L 652.66192 273.557462 
L 653.087603 282.324689 
L 653.513287 283.226088 
L 653.93897 286.048569 
L 654.364654 283.011275 
L 654.790337 281.662916 
L 655.21602 272.559533 
L 656.067387 220.01973 
L 656.493071 208.518395 
L 656.918754 205.836631 
L 657.344437 204.989955 
L 657.770121 205.340726 
L 658.195804 207.073846 
L 658.621488 201.866669 
L 659.047171 199.29571 
L 659.472854 187.106769 
L 659.898538 180.733756 
L 660.324221 182.624927 
L 660.749905 176.713829 
L 661.175588 175.901142 
L 661.601271 195.247912 
L 662.452638 259.347512 
L 662.878322 273.455154 
L 663.304005 279.112691 
L 663.729688 280.84853 
L 664.155372 281.35905 
L 664.581055 281.058584 
L 665.006739 276.80345 
L 665.432422 256.990006 
L 666.283789 182.179665 
L 666.709472 155.351148 
L 667.135156 146.028194 
L 667.986523 138.840115 
L 668.412206 138.447537 
L 668.837889 137.778625 
L 669.263573 135.965291 
L 669.689256 127.97778 
L 670.540623 149.298994 
L 670.966306 148.270135 
L 671.39199 170.119545 
L 671.817673 184.337653 
L 672.66904 259.951163 
L 673.094723 275.658347 
L 673.520407 281.476314 
L 673.94609 283.526215 
L 674.371774 283.89398 
L 674.797457 283.453818 
L 675.22314 277.902328 
L 675.648824 254.725292 
L 676.500191 176.251573 
L 676.925874 154.967747 
L 677.351558 148.820424 
L 677.777241 146.808251 
L 678.202924 142.880435 
L 678.628608 142.356318 
L 679.054291 140.732305 
L 679.479975 138.131096 
L 679.905658 128.967552 
L 680.757025 148.870728 
L 681.182708 146.707642 
L 681.608392 150.396852 
L 682.034075 172.474331 
L 682.885442 251.147568 
L 683.311125 267.798977 
L 683.736809 273.865406 
L 684.162492 276.230049 
L 684.588175 276.54887 
L 685.013859 276.00198 
L 685.439542 269.982117 
L 685.865226 247.394797 
L 686.716592 172.468212 
L 687.142276 178.682155 
L 687.567959 162.674505 
L 687.993643 163.723758 
L 688.84501 151.935892 
L 689.270693 148.969637 
L 689.696376 144.809334 
L 690.12206 135.444913 
L 690.973427 153.883825 
L 691.39911 152.983446 
L 691.824793 155.218589 
L 692.250477 175.002462 
L 693.101844 250.730178 
L 693.527527 267.070924 
L 693.95321 273.355565 
L 694.378894 368.473216 
L 694.804577 276.726974 
L 695.230261 285.496921 
L 695.655944 305.403836 
L 696.081627 286.75011 
L 696.507311 225.766659 
L 696.932994 186.262813 
L 697.358678 183.03008 
L 697.784361 177.06256 
L 698.210045 182.827503 
L 698.635728 181.776551 
L 699.061411 184.677547 
L 699.487095 183.700351 
L 699.912778 183.554877 
L 700.338462 178.284819 
L 701.189828 198.679822 
L 701.615512 197.228814 
L 702.041195 203.142291 
L 702.466879 229.011627 
L 702.892562 238.304671 
L 703.743929 281.784598 
L 704.169612 289.354718 
L 704.595296 291.010342 
L 705.020979 289.601821 
L 705.446662 291.111631 
L 705.872346 285.662449 
L 706.298029 260.987161 
L 707.149396 181.377175 
L 707.575079 164.292061 
L 708.000763 176.028943 
L 708.426446 180.582163 
L 708.85213 183.595664 
L 709.277813 192.041011 
L 709.703497 186.190075 
L 710.12918 182.051525 
L 710.554863 183.937257 
L 711.40623 206.468834 
L 712.257597 211.963561 
L 712.68328 219.051712 
L 713.960331 278.330934 
L 714.386014 284.748134 
L 714.811697 287.691617 
L 715.237381 288.388059 
L 715.663064 288.718097 
L 716.088748 287.635194 
L 716.514431 273.046941 
L 717.365798 213.114103 
L 717.791481 196.12042 
L 718.217165 191.768077 
L 718.642848 190.049232 
L 719.068531 199.413993 
L 720.345582 190.026799 
L 720.771265 190.612097 
L 721.196949 193.224862 
L 722.048315 206.999409 
L 722.473999 209.459562 
L 722.899682 216.333579 
L 724.176732 276.815687 
L 724.602416 283.09319 
L 725.028099 286.610414 
L 725.879466 287.960813 
L 726.305149 286.074401 
L 726.730833 275.988724 
L 727.5822 225.113043 
L 728.007883 207.717945 
L 728.433566 197.922878 
L 728.85925 195.224799 
L 729.284933 197.013322 
L 729.710617 195.104816 
L 730.1363 194.055224 
L 730.987667 184.37912 
L 731.41335 188.303536 
L 731.839034 197.364432 
L 732.264717 198.664187 
L 732.690401 204.424371 
L 733.116084 217.640132 
L 733.967451 268.066814 
L 734.393134 281.271358 
L 734.818818 286.553991 
L 735.244501 288.661334 
L 735.670184 288.681048 
L 736.095868 288.551888 
L 736.521551 283.645858 
L 736.947235 261.360364 
L 737.798601 183.188471 
L 738.224285 161.588544 
L 738.649968 173.713584 
L 739.075652 180.20794 
L 739.501335 184.802288 
L 739.927018 184.946743 
L 740.352702 184.159208 
L 740.778385 182.511402 
L 741.204069 179.119259 
L 741.629752 186.312777 
L 742.055435 196.980692 
L 742.481119 199.689307 
L 742.906802 199.601275 
L 743.332486 214.730299 
L 744.183853 265.104637 
L 744.609536 279.480796 
L 745.035219 285.358584 
L 745.460903 287.698075 
L 745.460903 287.698075 
" style="fill:none;stroke:#1f77b4;stroke-linecap:square;stroke-width:1.5;"/>
   </g>
   <g id="line2d_15">
    <path clip-path="url(#p63f4dc46da)" d="M 747.163636 384.48 
L 747.163636 51.84 
" style="fill:none;stroke:#808080;stroke-linecap:square;"/>
   </g>
   <g id="patch_92">
    <path d="M 108 384.48 
L 108 51.84 
" style="fill:none;stroke:#000000;stroke-linecap:square;stroke-linejoin:miter;stroke-width:0.8;"/>
   </g>
   <g id="patch_93">
    <path d="M 777.6 384.48 
L 777.6 51.84 
" style="fill:none;stroke:#000000;stroke-linecap:square;stroke-linejoin:miter;stroke-width:0.8;"/>
   </g>
   <g id="patch_94">
    <path d="M 108 384.48 
L 777.6 384.48 
" style="fill:none;stroke:#000000;stroke-linecap:square;stroke-linejoin:miter;stroke-width:0.8;"/>
   </g>
   <g id="patch_95">
    <path d="M 108 51.84 
L 777.6 51.84 
" style="fill:none;stroke:#000000;stroke-linecap:square;stroke-linejoin:miter;stroke-width:0.8;"/>
   </g>
   <g id="text_16">
    <!-- real_38.csv -->
    <defs>
     <path d="M 41.109375 46.296875 
Q 39.59375 47.171875 37.8125 47.578125 
Q 36.03125 48 33.890625 48 
Q 26.265625 48 22.1875 43.046875 
Q 18.109375 38.09375 18.109375 28.8125 
L 18.109375 0 
L 9.078125 0 
L 9.078125 54.6875 
L 18.109375 54.6875 
L 18.109375 46.1875 
Q 20.953125 51.171875 25.484375 53.578125 
Q 30.03125 56 36.53125 56 
Q 37.453125 56 38.578125 55.875 
Q 39.703125 55.765625 41.0625 55.515625 
z
" id="DejaVuSans-114"/>
     <path d="M 50.984375 -16.609375 
L 50.984375 -23.578125 
L -0.984375 -23.578125 
L -0.984375 -16.609375 
z
" id="DejaVuSans-95"/>
     <path d="M 40.578125 39.3125 
Q 47.65625 37.796875 51.625 33 
Q 55.609375 28.21875 55.609375 21.1875 
Q 55.609375 10.40625 48.1875 4.484375 
Q 40.765625 -1.421875 27.09375 -1.421875 
Q 22.515625 -1.421875 17.65625 -0.515625 
Q 12.796875 0.390625 7.625 2.203125 
L 7.625 11.71875 
Q 11.71875 9.328125 16.59375 8.109375 
Q 21.484375 6.890625 26.8125 6.890625 
Q 36.078125 6.890625 40.9375 10.546875 
Q 45.796875 14.203125 45.796875 21.1875 
Q 45.796875 27.640625 41.28125 31.265625 
Q 36.765625 34.90625 28.71875 34.90625 
L 20.21875 34.90625 
L 20.21875 43.015625 
L 29.109375 43.015625 
Q 36.375 43.015625 40.234375 45.921875 
Q 44.09375 48.828125 44.09375 54.296875 
Q 44.09375 59.90625 40.109375 62.90625 
Q 36.140625 65.921875 28.71875 65.921875 
Q 24.65625 65.921875 20.015625 65.03125 
Q 15.375 64.15625 9.8125 62.3125 
L 9.8125 71.09375 
Q 15.4375 72.65625 20.34375 73.4375 
Q 25.25 74.21875 29.59375 74.21875 
Q 40.828125 74.21875 47.359375 69.109375 
Q 53.90625 64.015625 53.90625 55.328125 
Q 53.90625 49.265625 50.4375 45.09375 
Q 46.96875 40.921875 40.578125 39.3125 
z
" id="DejaVuSans-51"/>
     <path d="M 10.6875 12.40625 
L 21 12.40625 
L 21 0 
L 10.6875 0 
z
" id="DejaVuSans-46"/>
     <path d="M 48.78125 52.59375 
L 48.78125 44.1875 
Q 44.96875 46.296875 41.140625 47.34375 
Q 37.3125 48.390625 33.40625 48.390625 
Q 24.65625 48.390625 19.8125 42.84375 
Q 14.984375 37.3125 14.984375 27.296875 
Q 14.984375 17.28125 19.8125 11.734375 
Q 24.65625 6.203125 33.40625 6.203125 
Q 37.3125 6.203125 41.140625 7.25 
Q 44.96875 8.296875 48.78125 10.40625 
L 48.78125 2.09375 
Q 45.015625 0.34375 40.984375 -0.53125 
Q 36.96875 -1.421875 32.421875 -1.421875 
Q 20.0625 -1.421875 12.78125 6.34375 
Q 5.515625 14.109375 5.515625 27.296875 
Q 5.515625 40.671875 12.859375 48.328125 
Q 20.21875 56 33.015625 56 
Q 37.15625 56 41.109375 55.140625 
Q 45.0625 54.296875 48.78125 52.59375 
z
" id="DejaVuSans-99"/>
     <path d="M 2.984375 54.6875 
L 12.5 54.6875 
L 29.59375 8.796875 
L 46.6875 54.6875 
L 56.203125 54.6875 
L 35.6875 0 
L 23.484375 0 
z
" id="DejaVuSans-118"/>
    </defs>
    <g transform="translate(408.781875 45.84)scale(0.12 -0.12)">
     <use xlink:href="#DejaVuSans-114"/>
     <use x="41.082031" xlink:href="#DejaVuSans-101"/>
     <use x="102.605469" xlink:href="#DejaVuSans-97"/>
     <use x="163.884766" xlink:href="#DejaVuSans-108"/>
     <use x="191.667969" xlink:href="#DejaVuSans-95"/>
     <use x="241.667969" xlink:href="#DejaVuSans-51"/>
     <use x="305.291016" xlink:href="#DejaVuSans-56"/>
     <use x="368.914062" xlink:href="#DejaVuSans-46"/>
     <use x="400.701172" xlink:href="#DejaVuSans-99"/>
     <use x="455.681641" xlink:href="#DejaVuSans-115"/>
     <use x="507.78125" xlink:href="#DejaVuSans-118"/>
    </g>
   </g>
   <g id="legend_1">
    <g id="patch_96">
     <path d="M 115 74.518125 
L 174.315625 74.518125 
Q 176.315625 74.518125 176.315625 72.518125 
L 176.315625 58.84 
Q 176.315625 56.84 174.315625 56.84 
L 115 56.84 
Q 113 56.84 113 58.84 
L 113 72.518125 
Q 113 74.518125 115 74.518125 
z
" style="fill:#ffffff;opacity:0.8;stroke:#cccccc;stroke-linejoin:miter;"/>
    </g>
    <g id="line2d_16">
     <path d="M 117 64.938438 
L 137 64.938438 
" style="fill:none;stroke:#1f77b4;stroke-linecap:square;stroke-width:1.5;"/>
    </g>
    <g id="line2d_17"/>
    <g id="text_17">
     <!-- value -->
     <g transform="translate(145 68.438438)scale(0.1 -0.1)">
      <use xlink:href="#DejaVuSans-118"/>
      <use x="59.179688" xlink:href="#DejaVuSans-97"/>
      <use x="120.458984" xlink:href="#DejaVuSans-108"/>
      <use x="148.242188" xlink:href="#DejaVuSans-117"/>
      <use x="211.621094" xlink:href="#DejaVuSans-101"/>
     </g>
    </g>
   </g>
  </g>
 </g>
 <defs>
  <clipPath id="p63f4dc46da">
   <rect height="332.64" width="669.6" x="108" y="51.84"/>
  </clipPath>
 </defs>
</svg>
