<?xml version="1.0" encoding="utf-8" standalone="no"?>
<!DOCTYPE svg PUBLIC "-//W3C//DTD SVG 1.1//EN"
  "http://www.w3.org/Graphics/SVG/1.1/DTD/svg11.dtd">
<!-- Created with matplotlib (https://matplotlib.org/) -->
<svg height="432pt" version="1.1" viewBox="0 0 864 432" width="864pt" xmlns="http://www.w3.org/2000/svg" xmlns:xlink="http://www.w3.org/1999/xlink">
 <defs>
  <style type="text/css">
*{stroke-linecap:butt;stroke-linejoin:round;}
  </style>
 </defs>
 <g id="figure_1">
  <g id="patch_1">
   <path d="M 0 432 
L 864 432 
L 864 0 
L 0 0 
z
" style="fill:#ffffff;"/>
  </g>
  <g id="axes_1">
   <g id="patch_2">
    <path d="M 108 384.48 
L 777.6 384.48 
L 777.6 51.84 
L 108 51.84 
z
" style="fill:#ffffff;"/>
   </g>
   <g id="patch_3">
    <path clip-path="url(#p3788e92a93)" d="M 138.436364 384.48 
L 138.436364 51.84 
L 381.075906 51.84 
L 381.075906 384.48 
z
" style="fill:#0000ff;opacity:0.05;"/>
   </g>
   <g id="patch_4">
    <path clip-path="url(#p3788e92a93)" d="M 381.075906 384.48 
L 381.075906 51.84 
L 747.163636 51.84 
L 747.163636 384.48 
z
" style="fill:#ff0000;opacity:0.08;"/>
   </g>
   <g id="patch_5">
    <path clip-path="url(#p3788e92a93)" d="M 138.436364 384.48 
L 138.436364 51.84 
L 142.693198 51.84 
L 142.693198 384.48 
z
" style="fill:#008000;opacity:0.04;"/>
   </g>
   <g id="patch_6">
    <path clip-path="url(#p3788e92a93)" d="M 138.436364 384.48 
L 138.436364 371.1744 
L 142.693198 371.1744 
L 142.693198 384.48 
z
" style="fill:#ffe500;"/>
   </g>
   <g id="patch_7">
    <path clip-path="url(#p3788e92a93)" d="M 381.075906 384.48 
L 381.075906 371.1744 
L 385.33274 371.1744 
L 385.33274 384.48 
z
" style="fill:#ff6600;"/>
   </g>
   <g id="patch_8">
    <path clip-path="url(#p3788e92a93)" d="M 146.950032 384.48 
L 146.950032 51.84 
L 151.206866 51.84 
L 151.206866 384.48 
z
" style="fill:#008000;opacity:0.04;"/>
   </g>
   <g id="patch_9">
    <path clip-path="url(#p3788e92a93)" d="M 146.950032 384.48 
L 146.950032 371.1744 
L 151.206866 371.1744 
L 151.206866 384.48 
z
" style="fill:#ffe500;"/>
   </g>
   <g id="patch_10">
    <path clip-path="url(#p3788e92a93)" d="M 389.589574 384.48 
L 389.589574 371.1744 
L 393.846408 371.1744 
L 393.846408 384.48 
z
" style="fill:#ff6600;"/>
   </g>
   <g id="patch_11">
    <path clip-path="url(#p3788e92a93)" d="M 151.206866 384.48 
L 151.206866 371.1744 
L 155.4637 371.1744 
L 155.4637 384.48 
z
" style="fill:#ffe500;"/>
   </g>
   <g id="patch_12">
    <path clip-path="url(#p3788e92a93)" d="M 155.4637 384.48 
L 155.4637 51.84 
L 159.720534 51.84 
L 159.720534 384.48 
z
" style="fill:#008000;opacity:0.04;"/>
   </g>
   <g id="patch_13">
    <path clip-path="url(#p3788e92a93)" d="M 155.4637 384.48 
L 155.4637 371.1744 
L 159.720534 371.1744 
L 159.720534 384.48 
z
" style="fill:#ffe500;"/>
   </g>
   <g id="patch_14">
    <path clip-path="url(#p3788e92a93)" d="M 163.977368 384.48 
L 163.977368 51.84 
L 168.234202 51.84 
L 168.234202 384.48 
z
" style="fill:#008000;opacity:0.04;"/>
   </g>
   <g id="patch_15">
    <path clip-path="url(#p3788e92a93)" d="M 410.873744 384.48 
L 410.873744 371.1744 
L 415.130579 371.1744 
L 415.130579 384.48 
z
" style="fill:#ff6600;"/>
   </g>
   <g id="patch_16">
    <path clip-path="url(#p3788e92a93)" d="M 172.491036 384.48 
L 172.491036 51.84 
L 176.74787 51.84 
L 176.74787 384.48 
z
" style="fill:#008000;opacity:0.04;"/>
   </g>
   <g id="patch_17">
    <path clip-path="url(#p3788e92a93)" d="M 181.004704 384.48 
L 181.004704 51.84 
L 185.261538 51.84 
L 185.261538 384.48 
z
" style="fill:#008000;opacity:0.04;"/>
   </g>
   <g id="patch_18">
    <path clip-path="url(#p3788e92a93)" d="M 189.518373 384.48 
L 189.518373 51.84 
L 193.775207 51.84 
L 193.775207 384.48 
z
" style="fill:#008000;opacity:0.04;"/>
   </g>
   <g id="patch_19">
    <path clip-path="url(#p3788e92a93)" d="M 198.032041 384.48 
L 198.032041 51.84 
L 202.288875 51.84 
L 202.288875 384.48 
z
" style="fill:#008000;opacity:0.04;"/>
   </g>
   <g id="patch_20">
    <path clip-path="url(#p3788e92a93)" d="M 206.545709 384.48 
L 206.545709 51.84 
L 210.802543 51.84 
L 210.802543 384.48 
z
" style="fill:#008000;opacity:0.04;"/>
   </g>
   <g id="patch_21">
    <path clip-path="url(#p3788e92a93)" d="M 206.545709 384.48 
L 206.545709 371.1744 
L 210.802543 371.1744 
L 210.802543 384.48 
z
" style="fill:#ffe500;"/>
   </g>
   <g id="patch_22">
    <path clip-path="url(#p3788e92a93)" d="M 449.185251 384.48 
L 449.185251 371.1744 
L 453.442085 371.1744 
L 453.442085 384.48 
z
" style="fill:#ff6600;"/>
   </g>
   <g id="patch_23">
    <path clip-path="url(#p3788e92a93)" d="M 215.059377 384.48 
L 215.059377 51.84 
L 219.316211 51.84 
L 219.316211 384.48 
z
" style="fill:#008000;opacity:0.04;"/>
   </g>
   <g id="patch_24">
    <path clip-path="url(#p3788e92a93)" d="M 219.316211 384.48 
L 219.316211 371.1744 
L 223.573045 371.1744 
L 223.573045 384.48 
z
" style="fill:#ffe500;"/>
   </g>
   <g id="patch_25">
    <path clip-path="url(#p3788e92a93)" d="M 223.573045 384.48 
L 223.573045 51.84 
L 227.829879 51.84 
L 227.829879 384.48 
z
" style="fill:#008000;opacity:0.04;"/>
   </g>
   <g id="patch_26">
    <path clip-path="url(#p3788e92a93)" d="M 227.829879 384.48 
L 227.829879 371.1744 
L 232.086713 371.1744 
L 232.086713 384.48 
z
" style="fill:#ffe500;"/>
   </g>
   <g id="patch_27">
    <path clip-path="url(#p3788e92a93)" d="M 232.086713 384.48 
L 232.086713 51.84 
L 236.343547 51.84 
L 236.343547 384.48 
z
" style="fill:#008000;opacity:0.04;"/>
   </g>
   <g id="patch_28">
    <path clip-path="url(#p3788e92a93)" d="M 240.600381 384.48 
L 240.600381 51.84 
L 244.857216 51.84 
L 244.857216 384.48 
z
" style="fill:#008000;opacity:0.04;"/>
   </g>
   <g id="patch_29">
    <path clip-path="url(#p3788e92a93)" d="M 249.11405 384.48 
L 249.11405 51.84 
L 253.370884 51.84 
L 253.370884 384.48 
z
" style="fill:#008000;opacity:0.04;"/>
   </g>
   <g id="patch_30">
    <path clip-path="url(#p3788e92a93)" d="M 257.627718 384.48 
L 257.627718 51.84 
L 261.884552 51.84 
L 261.884552 384.48 
z
" style="fill:#008000;opacity:0.04;"/>
   </g>
   <g id="patch_31">
    <path clip-path="url(#p3788e92a93)" d="M 266.141386 384.48 
L 266.141386 51.84 
L 270.39822 51.84 
L 270.39822 384.48 
z
" style="fill:#008000;opacity:0.04;"/>
   </g>
   <g id="patch_32">
    <path clip-path="url(#p3788e92a93)" d="M 274.655054 384.48 
L 274.655054 51.84 
L 278.911888 51.84 
L 278.911888 384.48 
z
" style="fill:#008000;opacity:0.04;"/>
   </g>
   <g id="patch_33">
    <path clip-path="url(#p3788e92a93)" d="M 278.911888 384.48 
L 278.911888 371.1744 
L 283.168722 371.1744 
L 283.168722 384.48 
z
" style="fill:#ffe500;"/>
   </g>
   <g id="patch_34">
    <path clip-path="url(#p3788e92a93)" d="M 283.168722 384.48 
L 283.168722 51.84 
L 287.425556 51.84 
L 287.425556 384.48 
z
" style="fill:#008000;opacity:0.04;"/>
   </g>
   <g id="patch_35">
    <path clip-path="url(#p3788e92a93)" d="M 525.808264 384.48 
L 525.808264 371.1744 
L 530.065099 371.1744 
L 530.065099 384.48 
z
" style="fill:#ff6600;"/>
   </g>
   <g id="patch_36">
    <path clip-path="url(#p3788e92a93)" d="M 291.68239 384.48 
L 291.68239 51.84 
L 295.939224 51.84 
L 295.939224 384.48 
z
" style="fill:#008000;opacity:0.04;"/>
   </g>
   <g id="patch_37">
    <path clip-path="url(#p3788e92a93)" d="M 300.196058 384.48 
L 300.196058 51.84 
L 304.452893 51.84 
L 304.452893 384.48 
z
" style="fill:#008000;opacity:0.04;"/>
   </g>
   <g id="patch_38">
    <path clip-path="url(#p3788e92a93)" d="M 300.196058 384.48 
L 300.196058 371.1744 
L 304.452893 371.1744 
L 304.452893 384.48 
z
" style="fill:#ffe500;"/>
   </g>
   <g id="patch_39">
    <path clip-path="url(#p3788e92a93)" d="M 308.709727 384.48 
L 308.709727 51.84 
L 312.966561 51.84 
L 312.966561 384.48 
z
" style="fill:#008000;opacity:0.04;"/>
   </g>
   <g id="patch_40">
    <path clip-path="url(#p3788e92a93)" d="M 317.223395 384.48 
L 317.223395 51.84 
L 321.480229 51.84 
L 321.480229 384.48 
z
" style="fill:#008000;opacity:0.04;"/>
   </g>
   <g id="patch_41">
    <path clip-path="url(#p3788e92a93)" d="M 325.737063 384.48 
L 325.737063 51.84 
L 329.993897 51.84 
L 329.993897 384.48 
z
" style="fill:#008000;opacity:0.04;"/>
   </g>
   <g id="patch_42">
    <path clip-path="url(#p3788e92a93)" d="M 334.250731 384.48 
L 334.250731 51.84 
L 338.507565 51.84 
L 338.507565 384.48 
z
" style="fill:#008000;opacity:0.04;"/>
   </g>
   <g id="patch_43">
    <path clip-path="url(#p3788e92a93)" d="M 342.764399 384.48 
L 342.764399 51.84 
L 347.021233 51.84 
L 347.021233 384.48 
z
" style="fill:#008000;opacity:0.04;"/>
   </g>
   <g id="patch_44">
    <path clip-path="url(#p3788e92a93)" d="M 351.278067 384.48 
L 351.278067 51.84 
L 355.534901 51.84 
L 355.534901 384.48 
z
" style="fill:#008000;opacity:0.04;"/>
   </g>
   <g id="patch_45">
    <path clip-path="url(#p3788e92a93)" d="M 359.791736 384.48 
L 359.791736 51.84 
L 364.04857 51.84 
L 364.04857 384.48 
z
" style="fill:#008000;opacity:0.04;"/>
   </g>
   <g id="patch_46">
    <path clip-path="url(#p3788e92a93)" d="M 359.791736 384.48 
L 359.791736 371.1744 
L 364.04857 371.1744 
L 364.04857 384.48 
z
" style="fill:#ffe500;"/>
   </g>
   <g id="patch_47">
    <path clip-path="url(#p3788e92a93)" d="M 368.305404 384.48 
L 368.305404 51.84 
L 372.562238 51.84 
L 372.562238 384.48 
z
" style="fill:#008000;opacity:0.04;"/>
   </g>
   <g id="patch_48">
    <path clip-path="url(#p3788e92a93)" d="M 376.819072 384.48 
L 376.819072 51.84 
L 381.075906 51.84 
L 381.075906 384.48 
z
" style="fill:#008000;opacity:0.04;"/>
   </g>
   <g id="patch_49">
    <path clip-path="url(#p3788e92a93)" d="M 376.819072 371.1744 
L 376.819072 51.84 
L 381.075906 51.84 
L 381.075906 371.1744 
z
" style="fill:#008000;opacity:0.5;"/>
   </g>
   <g id="patch_50">
    <path clip-path="url(#p3788e92a93)" d="M 376.819072 384.48 
L 376.819072 371.1744 
L 381.075906 371.1744 
L 381.075906 384.48 
z
" style="fill:#ffe500;"/>
   </g>
   <g id="patch_51">
    <path clip-path="url(#p3788e92a93)" d="M 381.075906 371.1744 
L 381.075906 51.84 
L 385.33274 51.84 
L 385.33274 371.1744 
z
" style="fill:#008000;opacity:0.5;"/>
   </g>
   <g id="patch_52">
    <path clip-path="url(#p3788e92a93)" d="M 385.33274 384.48 
L 385.33274 51.84 
L 389.589574 51.84 
L 389.589574 384.48 
z
" style="fill:#008000;opacity:0.04;"/>
   </g>
   <g id="patch_53">
    <path clip-path="url(#p3788e92a93)" d="M 393.846408 384.48 
L 393.846408 51.84 
L 398.103242 51.84 
L 398.103242 384.48 
z
" style="fill:#008000;opacity:0.04;"/>
   </g>
   <g id="patch_54">
    <path clip-path="url(#p3788e92a93)" d="M 402.360076 384.48 
L 402.360076 51.84 
L 406.61691 51.84 
L 406.61691 384.48 
z
" style="fill:#008000;opacity:0.04;"/>
   </g>
   <g id="patch_55">
    <path clip-path="url(#p3788e92a93)" d="M 410.873744 384.48 
L 410.873744 51.84 
L 415.130579 51.84 
L 415.130579 384.48 
z
" style="fill:#008000;opacity:0.04;"/>
   </g>
   <g id="patch_56">
    <path clip-path="url(#p3788e92a93)" d="M 410.873744 371.1744 
L 410.873744 51.84 
L 415.130579 51.84 
L 415.130579 371.1744 
z
" style="fill:#008000;opacity:0.5;"/>
   </g>
   <g id="patch_57">
    <path clip-path="url(#p3788e92a93)" d="M 419.387413 384.48 
L 419.387413 51.84 
L 423.644247 51.84 
L 423.644247 384.48 
z
" style="fill:#008000;opacity:0.04;"/>
   </g>
   <g id="patch_58">
    <path clip-path="url(#p3788e92a93)" d="M 427.901081 384.48 
L 427.901081 51.84 
L 432.157915 51.84 
L 432.157915 384.48 
z
" style="fill:#008000;opacity:0.04;"/>
   </g>
   <g id="patch_59">
    <path clip-path="url(#p3788e92a93)" d="M 436.414749 384.48 
L 436.414749 51.84 
L 440.671583 51.84 
L 440.671583 384.48 
z
" style="fill:#008000;opacity:0.04;"/>
   </g>
   <g id="patch_60">
    <path clip-path="url(#p3788e92a93)" d="M 444.928417 384.48 
L 444.928417 51.84 
L 449.185251 51.84 
L 449.185251 384.48 
z
" style="fill:#008000;opacity:0.04;"/>
   </g>
   <g id="patch_61">
    <path clip-path="url(#p3788e92a93)" d="M 453.442085 384.48 
L 453.442085 51.84 
L 457.698919 51.84 
L 457.698919 384.48 
z
" style="fill:#008000;opacity:0.04;"/>
   </g>
   <g id="patch_62">
    <path clip-path="url(#p3788e92a93)" d="M 461.955753 384.48 
L 461.955753 51.84 
L 466.212587 51.84 
L 466.212587 384.48 
z
" style="fill:#008000;opacity:0.04;"/>
   </g>
   <g id="patch_63">
    <path clip-path="url(#p3788e92a93)" d="M 470.469421 384.48 
L 470.469421 51.84 
L 474.726256 51.84 
L 474.726256 384.48 
z
" style="fill:#008000;opacity:0.04;"/>
   </g>
   <g id="patch_64">
    <path clip-path="url(#p3788e92a93)" d="M 478.98309 384.48 
L 478.98309 51.84 
L 483.239924 51.84 
L 483.239924 384.48 
z
" style="fill:#008000;opacity:0.04;"/>
   </g>
   <g id="patch_65">
    <path clip-path="url(#p3788e92a93)" d="M 487.496758 384.48 
L 487.496758 51.84 
L 491.753592 51.84 
L 491.753592 384.48 
z
" style="fill:#008000;opacity:0.04;"/>
   </g>
   <g id="patch_66">
    <path clip-path="url(#p3788e92a93)" d="M 496.010426 384.48 
L 496.010426 51.84 
L 500.26726 51.84 
L 500.26726 384.48 
z
" style="fill:#008000;opacity:0.04;"/>
   </g>
   <g id="patch_67">
    <path clip-path="url(#p3788e92a93)" d="M 504.524094 384.48 
L 504.524094 51.84 
L 508.780928 51.84 
L 508.780928 384.48 
z
" style="fill:#008000;opacity:0.04;"/>
   </g>
   <g id="patch_68">
    <path clip-path="url(#p3788e92a93)" d="M 513.037762 384.48 
L 513.037762 51.84 
L 517.294596 51.84 
L 517.294596 384.48 
z
" style="fill:#008000;opacity:0.04;"/>
   </g>
   <g id="patch_69">
    <path clip-path="url(#p3788e92a93)" d="M 521.55143 384.48 
L 521.55143 51.84 
L 525.808264 51.84 
L 525.808264 384.48 
z
" style="fill:#008000;opacity:0.04;"/>
   </g>
   <g id="patch_70">
    <path clip-path="url(#p3788e92a93)" d="M 530.065099 384.48 
L 530.065099 51.84 
L 534.321933 51.84 
L 534.321933 384.48 
z
" style="fill:#008000;opacity:0.04;"/>
   </g>
   <g id="patch_71">
    <path clip-path="url(#p3788e92a93)" d="M 538.578767 384.48 
L 538.578767 51.84 
L 542.835601 51.84 
L 542.835601 384.48 
z
" style="fill:#008000;opacity:0.04;"/>
   </g>
   <g id="patch_72">
    <path clip-path="url(#p3788e92a93)" d="M 547.092435 384.48 
L 547.092435 51.84 
L 551.349269 51.84 
L 551.349269 384.48 
z
" style="fill:#008000;opacity:0.04;"/>
   </g>
   <g id="patch_73">
    <path clip-path="url(#p3788e92a93)" d="M 555.606103 384.48 
L 555.606103 51.84 
L 559.862937 51.84 
L 559.862937 384.48 
z
" style="fill:#008000;opacity:0.04;"/>
   </g>
   <g id="patch_74">
    <path clip-path="url(#p3788e92a93)" d="M 564.119771 384.48 
L 564.119771 51.84 
L 568.376605 51.84 
L 568.376605 384.48 
z
" style="fill:#008000;opacity:0.04;"/>
   </g>
   <g id="patch_75">
    <path clip-path="url(#p3788e92a93)" d="M 568.376605 371.1744 
L 568.376605 51.84 
L 572.633439 51.84 
L 572.633439 371.1744 
z
" style="fill:#008000;opacity:0.5;"/>
   </g>
   <g id="patch_76">
    <path clip-path="url(#p3788e92a93)" d="M 572.633439 384.48 
L 572.633439 51.84 
L 576.890273 51.84 
L 576.890273 384.48 
z
" style="fill:#008000;opacity:0.04;"/>
   </g>
   <g id="patch_77">
    <path clip-path="url(#p3788e92a93)" d="M 581.147107 384.48 
L 581.147107 51.84 
L 585.403942 51.84 
L 585.403942 384.48 
z
" style="fill:#008000;opacity:0.04;"/>
   </g>
   <g id="patch_78">
    <path clip-path="url(#p3788e92a93)" d="M 589.660776 384.48 
L 589.660776 51.84 
L 593.91761 51.84 
L 593.91761 384.48 
z
" style="fill:#008000;opacity:0.04;"/>
   </g>
   <g id="patch_79">
    <path clip-path="url(#p3788e92a93)" d="M 598.174444 384.48 
L 598.174444 51.84 
L 602.431278 51.84 
L 602.431278 384.48 
z
" style="fill:#008000;opacity:0.04;"/>
   </g>
   <g id="patch_80">
    <path clip-path="url(#p3788e92a93)" d="M 606.688112 384.48 
L 606.688112 51.84 
L 610.944946 51.84 
L 610.944946 384.48 
z
" style="fill:#008000;opacity:0.04;"/>
   </g>
   <g id="patch_81">
    <path clip-path="url(#p3788e92a93)" d="M 615.20178 384.48 
L 615.20178 51.84 
L 619.458614 51.84 
L 619.458614 384.48 
z
" style="fill:#008000;opacity:0.04;"/>
   </g>
   <g id="patch_82">
    <path clip-path="url(#p3788e92a93)" d="M 623.715448 384.48 
L 623.715448 51.84 
L 627.972282 51.84 
L 627.972282 384.48 
z
" style="fill:#008000;opacity:0.04;"/>
   </g>
   <g id="patch_83">
    <path clip-path="url(#p3788e92a93)" d="M 632.229116 384.48 
L 632.229116 51.84 
L 636.48595 51.84 
L 636.48595 384.48 
z
" style="fill:#008000;opacity:0.04;"/>
   </g>
   <g id="patch_84">
    <path clip-path="url(#p3788e92a93)" d="M 640.742784 384.48 
L 640.742784 51.84 
L 644.999619 51.84 
L 644.999619 384.48 
z
" style="fill:#008000;opacity:0.04;"/>
   </g>
   <g id="patch_85">
    <path clip-path="url(#p3788e92a93)" d="M 649.256453 384.48 
L 649.256453 51.84 
L 653.513287 51.84 
L 653.513287 384.48 
z
" style="fill:#008000;opacity:0.04;"/>
   </g>
   <g id="patch_86">
    <path clip-path="url(#p3788e92a93)" d="M 657.770121 384.48 
L 657.770121 51.84 
L 662.026955 51.84 
L 662.026955 384.48 
z
" style="fill:#008000;opacity:0.04;"/>
   </g>
   <g id="patch_87">
    <path clip-path="url(#p3788e92a93)" d="M 666.283789 384.48 
L 666.283789 51.84 
L 670.540623 51.84 
L 670.540623 384.48 
z
" style="fill:#008000;opacity:0.04;"/>
   </g>
   <g id="patch_88">
    <path clip-path="url(#p3788e92a93)" d="M 674.797457 384.48 
L 674.797457 51.84 
L 679.054291 51.84 
L 679.054291 384.48 
z
" style="fill:#008000;opacity:0.04;"/>
   </g>
   <g id="patch_89">
    <path clip-path="url(#p3788e92a93)" d="M 683.311125 384.48 
L 683.311125 51.84 
L 687.567959 51.84 
L 687.567959 384.48 
z
" style="fill:#008000;opacity:0.04;"/>
   </g>
   <g id="patch_90">
    <path clip-path="url(#p3788e92a93)" d="M 691.824793 384.48 
L 691.824793 51.84 
L 696.081627 51.84 
L 696.081627 384.48 
z
" style="fill:#008000;opacity:0.04;"/>
   </g>
   <g id="patch_91">
    <path clip-path="url(#p3788e92a93)" d="M 691.824793 371.1744 
L 691.824793 51.84 
L 696.081627 51.84 
L 696.081627 371.1744 
z
" style="fill:#008000;opacity:0.5;"/>
   </g>
   <g id="patch_92">
    <path clip-path="url(#p3788e92a93)" d="M 700.338462 384.48 
L 700.338462 51.84 
L 704.595296 51.84 
L 704.595296 384.48 
z
" style="fill:#008000;opacity:0.04;"/>
   </g>
   <g id="patch_93">
    <path clip-path="url(#p3788e92a93)" d="M 708.85213 384.48 
L 708.85213 51.84 
L 713.108964 51.84 
L 713.108964 384.48 
z
" style="fill:#008000;opacity:0.04;"/>
   </g>
   <g id="patch_94">
    <path clip-path="url(#p3788e92a93)" d="M 717.365798 384.48 
L 717.365798 51.84 
L 721.622632 51.84 
L 721.622632 384.48 
z
" style="fill:#008000;opacity:0.04;"/>
   </g>
   <g id="patch_95">
    <path clip-path="url(#p3788e92a93)" d="M 725.879466 384.48 
L 725.879466 51.84 
L 730.1363 51.84 
L 730.1363 384.48 
z
" style="fill:#008000;opacity:0.04;"/>
   </g>
   <g id="patch_96">
    <path clip-path="url(#p3788e92a93)" d="M 734.393134 384.48 
L 734.393134 51.84 
L 738.649968 51.84 
L 738.649968 384.48 
z
" style="fill:#008000;opacity:0.04;"/>
   </g>
   <g id="patch_97">
    <path clip-path="url(#p3788e92a93)" d="M 742.906802 384.48 
L 742.906802 51.84 
L 747.163636 51.84 
L 747.163636 384.48 
z
" style="fill:#008000;opacity:0.04;"/>
   </g>
   <g id="matplotlib.axis_1">
    <g id="xtick_1">
     <g id="line2d_1">
      <defs>
       <path d="M 0 0 
L 0 3.5 
" id="m188bda7a95" style="stroke:#000000;stroke-width:0.8;"/>
      </defs>
      <g>
       <use style="stroke:#000000;stroke-width:0.8;" x="138.436364" xlink:href="#m188bda7a95" y="384.48"/>
      </g>
     </g>
     <g id="text_1">
      <!-- 0 -->
      <defs>
       <path d="M 31.78125 66.40625 
Q 24.171875 66.40625 20.328125 58.90625 
Q 16.5 51.421875 16.5 36.375 
Q 16.5 21.390625 20.328125 13.890625 
Q 24.171875 6.390625 31.78125 6.390625 
Q 39.453125 6.390625 43.28125 13.890625 
Q 47.125 21.390625 47.125 36.375 
Q 47.125 51.421875 43.28125 58.90625 
Q 39.453125 66.40625 31.78125 66.40625 
z
M 31.78125 74.21875 
Q 44.046875 74.21875 50.515625 64.515625 
Q 56.984375 54.828125 56.984375 36.375 
Q 56.984375 17.96875 50.515625 8.265625 
Q 44.046875 -1.421875 31.78125 -1.421875 
Q 19.53125 -1.421875 13.0625 8.265625 
Q 6.59375 17.96875 6.59375 36.375 
Q 6.59375 54.828125 13.0625 64.515625 
Q 19.53125 74.21875 31.78125 74.21875 
z
" id="DejaVuSans-48"/>
      </defs>
      <g transform="translate(135.255114 399.078438)scale(0.1 -0.1)">
       <use xlink:href="#DejaVuSans-48"/>
      </g>
     </g>
    </g>
    <g id="xtick_2">
     <g id="line2d_2">
      <g>
       <use style="stroke:#000000;stroke-width:0.8;" x="223.573045" xlink:href="#m188bda7a95" y="384.48"/>
      </g>
     </g>
     <g id="text_2">
      <!-- 200 -->
      <defs>
       <path d="M 19.1875 8.296875 
L 53.609375 8.296875 
L 53.609375 0 
L 7.328125 0 
L 7.328125 8.296875 
Q 12.9375 14.109375 22.625 23.890625 
Q 32.328125 33.6875 34.8125 36.53125 
Q 39.546875 41.84375 41.421875 45.53125 
Q 43.3125 49.21875 43.3125 52.78125 
Q 43.3125 58.59375 39.234375 62.25 
Q 35.15625 65.921875 28.609375 65.921875 
Q 23.96875 65.921875 18.8125 64.3125 
Q 13.671875 62.703125 7.8125 59.421875 
L 7.8125 69.390625 
Q 13.765625 71.78125 18.9375 73 
Q 24.125 74.21875 28.421875 74.21875 
Q 39.75 74.21875 46.484375 68.546875 
Q 53.21875 62.890625 53.21875 53.421875 
Q 53.21875 48.921875 51.53125 44.890625 
Q 49.859375 40.875 45.40625 35.40625 
Q 44.1875 33.984375 37.640625 27.21875 
Q 31.109375 20.453125 19.1875 8.296875 
z
" id="DejaVuSans-50"/>
      </defs>
      <g transform="translate(214.029295 399.078438)scale(0.1 -0.1)">
       <use xlink:href="#DejaVuSans-50"/>
       <use x="63.623047" xlink:href="#DejaVuSans-48"/>
       <use x="127.246094" xlink:href="#DejaVuSans-48"/>
      </g>
     </g>
    </g>
    <g id="xtick_3">
     <g id="line2d_3">
      <g>
       <use style="stroke:#000000;stroke-width:0.8;" x="308.709727" xlink:href="#m188bda7a95" y="384.48"/>
      </g>
     </g>
     <g id="text_3">
      <!-- 400 -->
      <defs>
       <path d="M 37.796875 64.3125 
L 12.890625 25.390625 
L 37.796875 25.390625 
z
M 35.203125 72.90625 
L 47.609375 72.90625 
L 47.609375 25.390625 
L 58.015625 25.390625 
L 58.015625 17.1875 
L 47.609375 17.1875 
L 47.609375 0 
L 37.796875 0 
L 37.796875 17.1875 
L 4.890625 17.1875 
L 4.890625 26.703125 
z
" id="DejaVuSans-52"/>
      </defs>
      <g transform="translate(299.165977 399.078438)scale(0.1 -0.1)">
       <use xlink:href="#DejaVuSans-52"/>
       <use x="63.623047" xlink:href="#DejaVuSans-48"/>
       <use x="127.246094" xlink:href="#DejaVuSans-48"/>
      </g>
     </g>
    </g>
    <g id="xtick_4">
     <g id="line2d_4">
      <g>
       <use style="stroke:#000000;stroke-width:0.8;" x="393.846408" xlink:href="#m188bda7a95" y="384.48"/>
      </g>
     </g>
     <g id="text_4">
      <!-- 600 -->
      <defs>
       <path d="M 33.015625 40.375 
Q 26.375 40.375 22.484375 35.828125 
Q 18.609375 31.296875 18.609375 23.390625 
Q 18.609375 15.53125 22.484375 10.953125 
Q 26.375 6.390625 33.015625 6.390625 
Q 39.65625 6.390625 43.53125 10.953125 
Q 47.40625 15.53125 47.40625 23.390625 
Q 47.40625 31.296875 43.53125 35.828125 
Q 39.65625 40.375 33.015625 40.375 
z
M 52.59375 71.296875 
L 52.59375 62.3125 
Q 48.875 64.0625 45.09375 64.984375 
Q 41.3125 65.921875 37.59375 65.921875 
Q 27.828125 65.921875 22.671875 59.328125 
Q 17.53125 52.734375 16.796875 39.40625 
Q 19.671875 43.65625 24.015625 45.921875 
Q 28.375 48.1875 33.59375 48.1875 
Q 44.578125 48.1875 50.953125 41.515625 
Q 57.328125 34.859375 57.328125 23.390625 
Q 57.328125 12.15625 50.6875 5.359375 
Q 44.046875 -1.421875 33.015625 -1.421875 
Q 20.359375 -1.421875 13.671875 8.265625 
Q 6.984375 17.96875 6.984375 36.375 
Q 6.984375 53.65625 15.1875 63.9375 
Q 23.390625 74.21875 37.203125 74.21875 
Q 40.921875 74.21875 44.703125 73.484375 
Q 48.484375 72.75 52.59375 71.296875 
z
" id="DejaVuSans-54"/>
      </defs>
      <g transform="translate(384.302658 399.078438)scale(0.1 -0.1)">
       <use xlink:href="#DejaVuSans-54"/>
       <use x="63.623047" xlink:href="#DejaVuSans-48"/>
       <use x="127.246094" xlink:href="#DejaVuSans-48"/>
      </g>
     </g>
    </g>
    <g id="xtick_5">
     <g id="line2d_5">
      <g>
       <use style="stroke:#000000;stroke-width:0.8;" x="478.98309" xlink:href="#m188bda7a95" y="384.48"/>
      </g>
     </g>
     <g id="text_5">
      <!-- 800 -->
      <defs>
       <path d="M 31.78125 34.625 
Q 24.75 34.625 20.71875 30.859375 
Q 16.703125 27.09375 16.703125 20.515625 
Q 16.703125 13.921875 20.71875 10.15625 
Q 24.75 6.390625 31.78125 6.390625 
Q 38.8125 6.390625 42.859375 10.171875 
Q 46.921875 13.96875 46.921875 20.515625 
Q 46.921875 27.09375 42.890625 30.859375 
Q 38.875 34.625 31.78125 34.625 
z
M 21.921875 38.8125 
Q 15.578125 40.375 12.03125 44.71875 
Q 8.5 49.078125 8.5 55.328125 
Q 8.5 64.0625 14.71875 69.140625 
Q 20.953125 74.21875 31.78125 74.21875 
Q 42.671875 74.21875 48.875 69.140625 
Q 55.078125 64.0625 55.078125 55.328125 
Q 55.078125 49.078125 51.53125 44.71875 
Q 48 40.375 41.703125 38.8125 
Q 48.828125 37.15625 52.796875 32.3125 
Q 56.78125 27.484375 56.78125 20.515625 
Q 56.78125 9.90625 50.3125 4.234375 
Q 43.84375 -1.421875 31.78125 -1.421875 
Q 19.734375 -1.421875 13.25 4.234375 
Q 6.78125 9.90625 6.78125 20.515625 
Q 6.78125 27.484375 10.78125 32.3125 
Q 14.796875 37.15625 21.921875 38.8125 
z
M 18.3125 54.390625 
Q 18.3125 48.734375 21.84375 45.5625 
Q 25.390625 42.390625 31.78125 42.390625 
Q 38.140625 42.390625 41.71875 45.5625 
Q 45.3125 48.734375 45.3125 54.390625 
Q 45.3125 60.0625 41.71875 63.234375 
Q 38.140625 66.40625 31.78125 66.40625 
Q 25.390625 66.40625 21.84375 63.234375 
Q 18.3125 60.0625 18.3125 54.390625 
z
" id="DejaVuSans-56"/>
      </defs>
      <g transform="translate(469.43934 399.078438)scale(0.1 -0.1)">
       <use xlink:href="#DejaVuSans-56"/>
       <use x="63.623047" xlink:href="#DejaVuSans-48"/>
       <use x="127.246094" xlink:href="#DejaVuSans-48"/>
      </g>
     </g>
    </g>
    <g id="xtick_6">
     <g id="line2d_6">
      <g>
       <use style="stroke:#000000;stroke-width:0.8;" x="564.119771" xlink:href="#m188bda7a95" y="384.48"/>
      </g>
     </g>
     <g id="text_6">
      <!-- 1000 -->
      <defs>
       <path d="M 12.40625 8.296875 
L 28.515625 8.296875 
L 28.515625 63.921875 
L 10.984375 60.40625 
L 10.984375 69.390625 
L 28.421875 72.90625 
L 38.28125 72.90625 
L 38.28125 8.296875 
L 54.390625 8.296875 
L 54.390625 0 
L 12.40625 0 
z
" id="DejaVuSans-49"/>
      </defs>
      <g transform="translate(551.394771 399.078438)scale(0.1 -0.1)">
       <use xlink:href="#DejaVuSans-49"/>
       <use x="63.623047" xlink:href="#DejaVuSans-48"/>
       <use x="127.246094" xlink:href="#DejaVuSans-48"/>
       <use x="190.869141" xlink:href="#DejaVuSans-48"/>
      </g>
     </g>
    </g>
    <g id="xtick_7">
     <g id="line2d_7">
      <g>
       <use style="stroke:#000000;stroke-width:0.8;" x="649.256453" xlink:href="#m188bda7a95" y="384.48"/>
      </g>
     </g>
     <g id="text_7">
      <!-- 1200 -->
      <g transform="translate(636.531453 399.078438)scale(0.1 -0.1)">
       <use xlink:href="#DejaVuSans-49"/>
       <use x="63.623047" xlink:href="#DejaVuSans-50"/>
       <use x="127.246094" xlink:href="#DejaVuSans-48"/>
       <use x="190.869141" xlink:href="#DejaVuSans-48"/>
      </g>
     </g>
    </g>
    <g id="xtick_8">
     <g id="line2d_8">
      <g>
       <use style="stroke:#000000;stroke-width:0.8;" x="734.393134" xlink:href="#m188bda7a95" y="384.48"/>
      </g>
     </g>
     <g id="text_8">
      <!-- 1400 -->
      <g transform="translate(721.668134 399.078438)scale(0.1 -0.1)">
       <use xlink:href="#DejaVuSans-49"/>
       <use x="63.623047" xlink:href="#DejaVuSans-52"/>
       <use x="127.246094" xlink:href="#DejaVuSans-48"/>
       <use x="190.869141" xlink:href="#DejaVuSans-48"/>
      </g>
     </g>
    </g>
    <g id="text_9">
     <!-- Timestamp -->
     <defs>
      <path d="M -0.296875 72.90625 
L 61.375 72.90625 
L 61.375 64.59375 
L 35.5 64.59375 
L 35.5 0 
L 25.59375 0 
L 25.59375 64.59375 
L -0.296875 64.59375 
z
" id="DejaVuSans-84"/>
      <path d="M 9.421875 54.6875 
L 18.40625 54.6875 
L 18.40625 0 
L 9.421875 0 
z
M 9.421875 75.984375 
L 18.40625 75.984375 
L 18.40625 64.59375 
L 9.421875 64.59375 
z
" id="DejaVuSans-105"/>
      <path d="M 52 44.1875 
Q 55.375 50.25 60.0625 53.125 
Q 64.75 56 71.09375 56 
Q 79.640625 56 84.28125 50.015625 
Q 88.921875 44.046875 88.921875 33.015625 
L 88.921875 0 
L 79.890625 0 
L 79.890625 32.71875 
Q 79.890625 40.578125 77.09375 44.375 
Q 74.3125 48.1875 68.609375 48.1875 
Q 61.625 48.1875 57.5625 43.546875 
Q 53.515625 38.921875 53.515625 30.90625 
L 53.515625 0 
L 44.484375 0 
L 44.484375 32.71875 
Q 44.484375 40.625 41.703125 44.40625 
Q 38.921875 48.1875 33.109375 48.1875 
Q 26.21875 48.1875 22.15625 43.53125 
Q 18.109375 38.875 18.109375 30.90625 
L 18.109375 0 
L 9.078125 0 
L 9.078125 54.6875 
L 18.109375 54.6875 
L 18.109375 46.1875 
Q 21.1875 51.21875 25.484375 53.609375 
Q 29.78125 56 35.6875 56 
Q 41.65625 56 45.828125 52.96875 
Q 50 49.953125 52 44.1875 
z
" id="DejaVuSans-109"/>
      <path d="M 56.203125 29.59375 
L 56.203125 25.203125 
L 14.890625 25.203125 
Q 15.484375 15.921875 20.484375 11.0625 
Q 25.484375 6.203125 34.421875 6.203125 
Q 39.59375 6.203125 44.453125 7.46875 
Q 49.3125 8.734375 54.109375 11.28125 
L 54.109375 2.78125 
Q 49.265625 0.734375 44.1875 -0.34375 
Q 39.109375 -1.421875 33.890625 -1.421875 
Q 20.796875 -1.421875 13.15625 6.1875 
Q 5.515625 13.8125 5.515625 26.8125 
Q 5.515625 40.234375 12.765625 48.109375 
Q 20.015625 56 32.328125 56 
Q 43.359375 56 49.78125 48.890625 
Q 56.203125 41.796875 56.203125 29.59375 
z
M 47.21875 32.234375 
Q 47.125 39.59375 43.09375 43.984375 
Q 39.0625 48.390625 32.421875 48.390625 
Q 24.90625 48.390625 20.390625 44.140625 
Q 15.875 39.890625 15.1875 32.171875 
z
" id="DejaVuSans-101"/>
      <path d="M 44.28125 53.078125 
L 44.28125 44.578125 
Q 40.484375 46.53125 36.375 47.5 
Q 32.28125 48.484375 27.875 48.484375 
Q 21.1875 48.484375 17.84375 46.4375 
Q 14.5 44.390625 14.5 40.28125 
Q 14.5 37.15625 16.890625 35.375 
Q 19.28125 33.59375 26.515625 31.984375 
L 29.59375 31.296875 
Q 39.15625 29.25 43.1875 25.515625 
Q 47.21875 21.78125 47.21875 15.09375 
Q 47.21875 7.46875 41.1875 3.015625 
Q 35.15625 -1.421875 24.609375 -1.421875 
Q 20.21875 -1.421875 15.453125 -0.5625 
Q 10.6875 0.296875 5.421875 2 
L 5.421875 11.28125 
Q 10.40625 8.6875 15.234375 7.390625 
Q 20.0625 6.109375 24.8125 6.109375 
Q 31.15625 6.109375 34.5625 8.28125 
Q 37.984375 10.453125 37.984375 14.40625 
Q 37.984375 18.0625 35.515625 20.015625 
Q 33.0625 21.96875 24.703125 23.78125 
L 21.578125 24.515625 
Q 13.234375 26.265625 9.515625 29.90625 
Q 5.8125 33.546875 5.8125 39.890625 
Q 5.8125 47.609375 11.28125 51.796875 
Q 16.75 56 26.8125 56 
Q 31.78125 56 36.171875 55.265625 
Q 40.578125 54.546875 44.28125 53.078125 
z
" id="DejaVuSans-115"/>
      <path d="M 18.3125 70.21875 
L 18.3125 54.6875 
L 36.8125 54.6875 
L 36.8125 47.703125 
L 18.3125 47.703125 
L 18.3125 18.015625 
Q 18.3125 11.328125 20.140625 9.421875 
Q 21.96875 7.515625 27.59375 7.515625 
L 36.8125 7.515625 
L 36.8125 0 
L 27.59375 0 
Q 17.1875 0 13.234375 3.875 
Q 9.28125 7.765625 9.28125 18.015625 
L 9.28125 47.703125 
L 2.6875 47.703125 
L 2.6875 54.6875 
L 9.28125 54.6875 
L 9.28125 70.21875 
z
" id="DejaVuSans-116"/>
      <path d="M 34.28125 27.484375 
Q 23.390625 27.484375 19.1875 25 
Q 14.984375 22.515625 14.984375 16.5 
Q 14.984375 11.71875 18.140625 8.90625 
Q 21.296875 6.109375 26.703125 6.109375 
Q 34.1875 6.109375 38.703125 11.40625 
Q 43.21875 16.703125 43.21875 25.484375 
L 43.21875 27.484375 
z
M 52.203125 31.203125 
L 52.203125 0 
L 43.21875 0 
L 43.21875 8.296875 
Q 40.140625 3.328125 35.546875 0.953125 
Q 30.953125 -1.421875 24.3125 -1.421875 
Q 15.921875 -1.421875 10.953125 3.296875 
Q 6 8.015625 6 15.921875 
Q 6 25.140625 12.171875 29.828125 
Q 18.359375 34.515625 30.609375 34.515625 
L 43.21875 34.515625 
L 43.21875 35.40625 
Q 43.21875 41.609375 39.140625 45 
Q 35.0625 48.390625 27.6875 48.390625 
Q 23 48.390625 18.546875 47.265625 
Q 14.109375 46.140625 10.015625 43.890625 
L 10.015625 52.203125 
Q 14.9375 54.109375 19.578125 55.046875 
Q 24.21875 56 28.609375 56 
Q 40.484375 56 46.34375 49.84375 
Q 52.203125 43.703125 52.203125 31.203125 
z
" id="DejaVuSans-97"/>
      <path d="M 18.109375 8.203125 
L 18.109375 -20.796875 
L 9.078125 -20.796875 
L 9.078125 54.6875 
L 18.109375 54.6875 
L 18.109375 46.390625 
Q 20.953125 51.265625 25.265625 53.625 
Q 29.59375 56 35.59375 56 
Q 45.5625 56 51.78125 48.09375 
Q 58.015625 40.1875 58.015625 27.296875 
Q 58.015625 14.40625 51.78125 6.484375 
Q 45.5625 -1.421875 35.59375 -1.421875 
Q 29.59375 -1.421875 25.265625 0.953125 
Q 20.953125 3.328125 18.109375 8.203125 
z
M 48.6875 27.296875 
Q 48.6875 37.203125 44.609375 42.84375 
Q 40.53125 48.484375 33.40625 48.484375 
Q 26.265625 48.484375 22.1875 42.84375 
Q 18.109375 37.203125 18.109375 27.296875 
Q 18.109375 17.390625 22.1875 11.75 
Q 26.265625 6.109375 33.40625 6.109375 
Q 40.53125 6.109375 44.609375 11.75 
Q 48.6875 17.390625 48.6875 27.296875 
z
" id="DejaVuSans-112"/>
     </defs>
     <g transform="translate(414.739062 412.756563)scale(0.1 -0.1)">
      <use xlink:href="#DejaVuSans-84"/>
      <use x="61.037109" xlink:href="#DejaVuSans-105"/>
      <use x="88.820312" xlink:href="#DejaVuSans-109"/>
      <use x="186.232422" xlink:href="#DejaVuSans-101"/>
      <use x="247.755859" xlink:href="#DejaVuSans-115"/>
      <use x="299.855469" xlink:href="#DejaVuSans-116"/>
      <use x="339.064453" xlink:href="#DejaVuSans-97"/>
      <use x="400.34375" xlink:href="#DejaVuSans-109"/>
      <use x="497.755859" xlink:href="#DejaVuSans-112"/>
     </g>
    </g>
   </g>
   <g id="matplotlib.axis_2">
    <g id="ytick_1">
     <g id="line2d_9">
      <defs>
       <path d="M 0 0 
L -3.5 0 
" id="mccf475f17e" style="stroke:#000000;stroke-width:0.8;"/>
      </defs>
      <g>
       <use style="stroke:#000000;stroke-width:0.8;" x="108" xlink:href="#mccf475f17e" y="369.367915"/>
      </g>
     </g>
     <g id="text_10">
      <!-- 0 -->
      <g transform="translate(94.6375 373.167133)scale(0.1 -0.1)">
       <use xlink:href="#DejaVuSans-48"/>
      </g>
     </g>
    </g>
    <g id="ytick_2">
     <g id="line2d_10">
      <g>
       <use style="stroke:#000000;stroke-width:0.8;" x="108" xlink:href="#mccf475f17e" y="329.79505"/>
      </g>
     </g>
     <g id="text_11">
      <!-- 25000 -->
      <defs>
       <path d="M 10.796875 72.90625 
L 49.515625 72.90625 
L 49.515625 64.59375 
L 19.828125 64.59375 
L 19.828125 46.734375 
Q 21.96875 47.46875 24.109375 47.828125 
Q 26.265625 48.1875 28.421875 48.1875 
Q 40.625 48.1875 47.75 41.5 
Q 54.890625 34.8125 54.890625 23.390625 
Q 54.890625 11.625 47.5625 5.09375 
Q 40.234375 -1.421875 26.90625 -1.421875 
Q 22.3125 -1.421875 17.546875 -0.640625 
Q 12.796875 0.140625 7.71875 1.703125 
L 7.71875 11.625 
Q 12.109375 9.234375 16.796875 8.0625 
Q 21.484375 6.890625 26.703125 6.890625 
Q 35.15625 6.890625 40.078125 11.328125 
Q 45.015625 15.765625 45.015625 23.390625 
Q 45.015625 31 40.078125 35.4375 
Q 35.15625 39.890625 26.703125 39.890625 
Q 22.75 39.890625 18.8125 39.015625 
Q 14.890625 38.140625 10.796875 36.28125 
z
" id="DejaVuSans-53"/>
      </defs>
      <g transform="translate(69.1875 333.594269)scale(0.1 -0.1)">
       <use xlink:href="#DejaVuSans-50"/>
       <use x="63.623047" xlink:href="#DejaVuSans-53"/>
       <use x="127.246094" xlink:href="#DejaVuSans-48"/>
       <use x="190.869141" xlink:href="#DejaVuSans-48"/>
       <use x="254.492188" xlink:href="#DejaVuSans-48"/>
      </g>
     </g>
    </g>
    <g id="ytick_3">
     <g id="line2d_11">
      <g>
       <use style="stroke:#000000;stroke-width:0.8;" x="108" xlink:href="#mccf475f17e" y="290.222186"/>
      </g>
     </g>
     <g id="text_12">
      <!-- 50000 -->
      <g transform="translate(69.1875 294.021405)scale(0.1 -0.1)">
       <use xlink:href="#DejaVuSans-53"/>
       <use x="63.623047" xlink:href="#DejaVuSans-48"/>
       <use x="127.246094" xlink:href="#DejaVuSans-48"/>
       <use x="190.869141" xlink:href="#DejaVuSans-48"/>
       <use x="254.492188" xlink:href="#DejaVuSans-48"/>
      </g>
     </g>
    </g>
    <g id="ytick_4">
     <g id="line2d_12">
      <g>
       <use style="stroke:#000000;stroke-width:0.8;" x="108" xlink:href="#mccf475f17e" y="250.649322"/>
      </g>
     </g>
     <g id="text_13">
      <!-- 75000 -->
      <defs>
       <path d="M 8.203125 72.90625 
L 55.078125 72.90625 
L 55.078125 68.703125 
L 28.609375 0 
L 18.3125 0 
L 43.21875 64.59375 
L 8.203125 64.59375 
z
" id="DejaVuSans-55"/>
      </defs>
      <g transform="translate(69.1875 254.44854)scale(0.1 -0.1)">
       <use xlink:href="#DejaVuSans-55"/>
       <use x="63.623047" xlink:href="#DejaVuSans-53"/>
       <use x="127.246094" xlink:href="#DejaVuSans-48"/>
       <use x="190.869141" xlink:href="#DejaVuSans-48"/>
       <use x="254.492188" xlink:href="#DejaVuSans-48"/>
      </g>
     </g>
    </g>
    <g id="ytick_5">
     <g id="line2d_13">
      <g>
       <use style="stroke:#000000;stroke-width:0.8;" x="108" xlink:href="#mccf475f17e" y="211.076457"/>
      </g>
     </g>
     <g id="text_14">
      <!-- 100000 -->
      <g transform="translate(62.825 214.875676)scale(0.1 -0.1)">
       <use xlink:href="#DejaVuSans-49"/>
       <use x="63.623047" xlink:href="#DejaVuSans-48"/>
       <use x="127.246094" xlink:href="#DejaVuSans-48"/>
       <use x="190.869141" xlink:href="#DejaVuSans-48"/>
       <use x="254.492188" xlink:href="#DejaVuSans-48"/>
       <use x="318.115234" xlink:href="#DejaVuSans-48"/>
      </g>
     </g>
    </g>
    <g id="ytick_6">
     <g id="line2d_14">
      <g>
       <use style="stroke:#000000;stroke-width:0.8;" x="108" xlink:href="#mccf475f17e" y="171.503593"/>
      </g>
     </g>
     <g id="text_15">
      <!-- 125000 -->
      <g transform="translate(62.825 175.302812)scale(0.1 -0.1)">
       <use xlink:href="#DejaVuSans-49"/>
       <use x="63.623047" xlink:href="#DejaVuSans-50"/>
       <use x="127.246094" xlink:href="#DejaVuSans-53"/>
       <use x="190.869141" xlink:href="#DejaVuSans-48"/>
       <use x="254.492188" xlink:href="#DejaVuSans-48"/>
       <use x="318.115234" xlink:href="#DejaVuSans-48"/>
      </g>
     </g>
    </g>
    <g id="ytick_7">
     <g id="line2d_15">
      <g>
       <use style="stroke:#000000;stroke-width:0.8;" x="108" xlink:href="#mccf475f17e" y="131.930729"/>
      </g>
     </g>
     <g id="text_16">
      <!-- 150000 -->
      <g transform="translate(62.825 135.729947)scale(0.1 -0.1)">
       <use xlink:href="#DejaVuSans-49"/>
       <use x="63.623047" xlink:href="#DejaVuSans-53"/>
       <use x="127.246094" xlink:href="#DejaVuSans-48"/>
       <use x="190.869141" xlink:href="#DejaVuSans-48"/>
       <use x="254.492188" xlink:href="#DejaVuSans-48"/>
       <use x="318.115234" xlink:href="#DejaVuSans-48"/>
      </g>
     </g>
    </g>
    <g id="ytick_8">
     <g id="line2d_16">
      <g>
       <use style="stroke:#000000;stroke-width:0.8;" x="108" xlink:href="#mccf475f17e" y="92.357864"/>
      </g>
     </g>
     <g id="text_17">
      <!-- 175000 -->
      <g transform="translate(62.825 96.157083)scale(0.1 -0.1)">
       <use xlink:href="#DejaVuSans-49"/>
       <use x="63.623047" xlink:href="#DejaVuSans-55"/>
       <use x="127.246094" xlink:href="#DejaVuSans-53"/>
       <use x="190.869141" xlink:href="#DejaVuSans-48"/>
       <use x="254.492188" xlink:href="#DejaVuSans-48"/>
       <use x="318.115234" xlink:href="#DejaVuSans-48"/>
      </g>
     </g>
    </g>
    <g id="ytick_9">
     <g id="line2d_17">
      <g>
       <use style="stroke:#000000;stroke-width:0.8;" x="108" xlink:href="#mccf475f17e" y="52.785"/>
      </g>
     </g>
     <g id="text_18">
      <!-- 200000 -->
      <g transform="translate(62.825 56.584219)scale(0.1 -0.1)">
       <use xlink:href="#DejaVuSans-50"/>
       <use x="63.623047" xlink:href="#DejaVuSans-48"/>
       <use x="127.246094" xlink:href="#DejaVuSans-48"/>
       <use x="190.869141" xlink:href="#DejaVuSans-48"/>
       <use x="254.492188" xlink:href="#DejaVuSans-48"/>
       <use x="318.115234" xlink:href="#DejaVuSans-48"/>
      </g>
     </g>
    </g>
    <g id="text_19">
     <!-- Value -->
     <defs>
      <path d="M 28.609375 0 
L 0.78125 72.90625 
L 11.078125 72.90625 
L 34.1875 11.53125 
L 57.328125 72.90625 
L 67.578125 72.90625 
L 39.796875 0 
z
" id="DejaVuSans-86"/>
      <path d="M 9.421875 75.984375 
L 18.40625 75.984375 
L 18.40625 0 
L 9.421875 0 
z
" id="DejaVuSans-108"/>
      <path d="M 8.5 21.578125 
L 8.5 54.6875 
L 17.484375 54.6875 
L 17.484375 21.921875 
Q 17.484375 14.15625 20.5 10.265625 
Q 23.53125 6.390625 29.59375 6.390625 
Q 36.859375 6.390625 41.078125 11.03125 
Q 45.3125 15.671875 45.3125 23.6875 
L 45.3125 54.6875 
L 54.296875 54.6875 
L 54.296875 0 
L 45.3125 0 
L 45.3125 8.40625 
Q 42.046875 3.421875 37.71875 1 
Q 33.40625 -1.421875 27.6875 -1.421875 
Q 18.265625 -1.421875 13.375 4.4375 
Q 8.5 10.296875 8.5 21.578125 
z
M 31.109375 56 
z
" id="DejaVuSans-117"/>
     </defs>
     <g transform="translate(56.745312 232.273281)rotate(-90)scale(0.1 -0.1)">
      <use xlink:href="#DejaVuSans-86"/>
      <use x="68.298828" xlink:href="#DejaVuSans-97"/>
      <use x="129.578125" xlink:href="#DejaVuSans-108"/>
      <use x="157.361328" xlink:href="#DejaVuSans-117"/>
      <use x="220.740234" xlink:href="#DejaVuSans-101"/>
     </g>
    </g>
   </g>
   <g id="line2d_18">
    <path clip-path="url(#p3788e92a93)" d="M 138.436364 369.36 
L 138.862047 365.898166 
L 139.28773 312.509623 
L 139.713414 312.868945 
L 140.139097 315.995201 
L 140.564781 322.432915 
L 141.416147 338.787588 
L 141.841831 344.511407 
L 142.267514 346.371332 
L 142.693198 346.497965 
L 143.118881 345.171482 
L 143.544565 345.13191 
L 143.970248 346.865201 
L 144.395931 342.852513 
L 145.672982 314.899824 
L 146.098665 317.541709 
L 146.524348 317.555955 
L 146.950032 316.800905 
L 147.375715 318.345829 
L 147.801399 316.967111 
L 148.652765 313.218769 
L 149.078449 318.371156 
L 149.504132 321.343869 
L 149.929816 322.72892 
L 150.355499 322.418668 
L 150.781182 323.990503 
L 151.206866 331.688216 
L 152.058233 343.273568 
L 152.483916 345.334523 
L 152.909599 345.934447 
L 153.335283 347.264095 
L 153.760966 346.434648 
L 154.612333 343.881407 
L 155.038017 339.984271 
L 155.4637 329.114397 
L 156.315067 316.849975 
L 156.74075 313.889925 
L 157.166434 315.711859 
L 157.592117 313.790201 
L 158.443484 310.982111 
L 158.869167 305.201307 
L 159.294851 303.012136 
L 159.720534 310.22706 
L 160.146217 307.135628 
L 160.571901 302.45495 
L 160.997584 311.078668 
L 161.848951 336.321407 
L 162.274634 343.229246 
L 162.700318 344.449673 
L 163.551685 345.207889 
L 163.977368 345.008442 
L 164.403051 343.006055 
L 164.828735 337.258492 
L 165.680102 303.664296 
L 166.105785 283.442563 
L 166.531469 290.603668 
L 166.957152 277.623769 
L 167.382835 283.950678 
L 167.808519 282.244296 
L 168.234202 279.882588 
L 168.659886 280.039296 
L 169.085569 276.634447 
L 169.511252 285.351558 
L 169.936936 299.610452 
L 170.362619 296.303744 
L 170.788303 290.162035 
L 171.213986 297.307312 
L 172.065353 332.258065 
L 172.491036 339.609121 
L 172.91672 342.505854 
L 173.342403 343.963719 
L 173.768086 343.202337 
L 174.19377 343.786432 
L 174.619453 341.622588 
L 175.045137 333.46108 
L 176.322187 280.672462 
L 177.173554 278.364573 
L 177.599237 288.663015 
L 178.024921 282.552965 
L 178.450604 281.422764 
L 178.876287 280.897236 
L 179.301971 276.580628 
L 179.727654 283.304849 
L 180.153338 294.636935 
L 180.579021 290.573593 
L 181.004704 290.388392 
L 181.430388 296.51902 
L 182.281755 330.173367 
L 182.707438 337.763442 
L 183.133121 340.590528 
L 183.558805 341.665327 
L 183.984488 342.023065 
L 184.410172 342.157613 
L 184.835855 339.629698 
L 185.261538 331.491935 
L 185.687222 315.992035 
L 186.538589 280.661382 
L 186.964272 281.178995 
L 187.389955 279.504271 
L 187.815639 293.027111 
L 188.241322 285.921407 
L 188.667006 285.677638 
L 189.092689 282.597286 
L 189.518373 278.242688 
L 189.944056 287.124422 
L 190.369739 299.159322 
L 190.795423 295.339749 
L 191.221106 292.886231 
L 191.64679 296.680477 
L 192.498156 330.285754 
L 192.92384 338.369698 
L 193.775207 341.810955 
L 194.20089 341.484874 
L 194.626573 341.36299 
L 195.052257 338.865151 
L 195.47794 331.943065 
L 195.903624 319.099296 
L 196.329307 299.186231 
L 196.75499 287.667362 
L 197.180674 288.015603 
L 197.606357 282.003693 
L 198.032041 287.048442 
L 198.457724 286.697035 
L 198.883408 284.784874 
L 199.309091 284.71206 
L 199.734774 278.958166 
L 200.160458 287.200402 
L 200.586141 298.573643 
L 201.011825 298.149422 
L 201.437508 292.572814 
L 201.863191 301.631834 
L 202.288875 315.984121 
L 202.714558 340.815302 
L 203.140242 338.391859 
L 203.565925 341.606759 
L 203.991608 342.505854 
L 204.417292 342.991809 
L 204.842975 342.909497 
L 205.268659 341.268015 
L 205.694342 333.581382 
L 206.120025 318.456633 
L 206.971392 284.454045 
L 207.397076 284.832362 
L 207.822759 285.378467 
L 208.248442 288.808643 
L 208.674126 291.092789 
L 209.099809 286.624221 
L 209.525493 286.589397 
L 209.951176 289.381658 
L 210.37686 298.807915 
L 210.802543 310.853894 
L 211.228226 310.917211 
L 212.505277 326.174925 
L 212.93096 335.17696 
L 213.356643 341.111307 
L 213.782327 342.767035 
L 214.20801 345.65902 
L 214.633694 346.203543 
L 215.059377 346.173467 
L 215.910744 341.910678 
L 216.336427 333.744422 
L 216.762111 321.620879 
L 217.187794 316.704347 
L 217.613477 315.689698 
L 218.039161 317.733241 
L 218.890528 318.876106 
L 219.316211 318.586432 
L 219.741894 318.510452 
L 220.167578 316.512814 
L 220.593261 315.992035 
L 221.018945 324.745553 
L 221.870312 325.454698 
L 222.295995 326.054623 
L 223.147362 338.205075 
L 223.573045 344.275553 
L 223.998729 345.249045 
L 224.424412 345.040101 
L 224.850095 345.909121 
L 225.701462 345.049598 
L 226.127146 343.539497 
L 226.552829 338.162337 
L 227.404196 320.831005 
L 227.829879 317.163392 
L 228.255563 317.350176 
L 229.106929 318.282513 
L 229.958296 316.170905 
L 230.38398 309.806005 
L 230.809663 305.975352 
L 231.235346 310.860226 
L 231.66103 308.707462 
L 232.086713 303.570905 
L 232.512397 310.524648 
L 233.363764 337.486432 
L 233.789447 342.482111 
L 234.21513 344.362613 
L 234.640814 345.733417 
L 235.066497 345.712839 
L 235.917864 344.302462 
L 236.343547 337.45794 
L 236.769231 322.670352 
L 237.620598 284.781709 
L 238.046281 281.155251 
L 238.471964 279.714799 
L 238.897648 286.975628 
L 239.323331 285.701382 
L 239.749015 283.331759 
L 240.174698 282.351935 
L 240.600381 280.762688 
L 241.026065 284.845025 
L 241.451748 298.165251 
L 241.877432 296.012487 
L 242.303115 289.897688 
L 242.728798 296.610829 
L 243.580165 334.472563 
L 244.005849 341.032161 
L 244.857216 344.878643 
L 245.282899 344.972035 
L 245.708582 344.487663 
L 246.134266 341.532362 
L 246.559949 332.679121 
L 247.836999 281.60005 
L 248.262683 280.170678 
L 248.688366 280.650302 
L 249.11405 283.765477 
L 249.539733 285.842261 
L 249.965416 262.676307 
L 250.3911 280.990628 
L 250.816783 272.251357 
L 251.66815 296.856181 
L 252.093833 296.259422 
L 252.519517 291.691131 
L 252.9452 298.47392 
L 253.370884 319.276583 
L 253.796567 334.002437 
L 254.22225 340.432236 
L 254.647934 343.525251 
L 255.499301 344.373693 
L 255.924984 344.178995 
L 256.350668 341.332915 
L 256.776351 333.619372 
L 258.053401 281.539899 
L 258.479085 281.221734 
L 258.904768 281.853317 
L 259.330451 284.86402 
L 259.756135 285.079296 
L 260.181818 258.635126 
L 260.607502 277.736156 
L 261.033185 275.637211 
L 261.458868 282.68593 
L 261.884552 298.348869 
L 262.310235 296.526935 
L 262.735919 291.145025 
L 263.161602 298.328291 
L 264.012969 332.120352 
L 264.438652 340.392663 
L 264.864336 343.761106 
L 265.290019 343.447688 
L 265.715702 343.620226 
L 266.141386 344.071357 
L 266.567069 342.344397 
L 266.992753 333.149246 
L 267.418436 319.28608 
L 268.269803 280.569573 
L 268.695486 281.968869 
L 269.12117 282.510226 
L 269.546853 286.193668 
L 269.972537 285.715628 
L 270.39822 290.109799 
L 270.823903 280.495176 
L 271.249587 279.114874 
L 272.100954 298.394774 
L 272.526637 280.10103 
L 272.95232 295.184623 
L 273.378004 303.892236 
L 274.229371 337.196759 
L 274.655054 343.506256 
L 275.506421 348.161608 
L 275.932104 348.522513 
L 276.357788 348.508266 
L 276.783471 346.567613 
L 277.209154 336.90392 
L 278.486205 285.547839 
L 278.911888 284.805452 
L 279.337572 280.412864 
L 279.763255 259.233467 
L 280.188938 287.225729 
L 280.614622 277.843794 
L 281.040305 243.367915 
L 281.465989 248.544045 
L 281.891672 291.265327 
L 282.317355 299.409422 
L 282.743039 310.928291 
L 283.594406 318.394899 
L 284.020089 327.403266 
L 284.445772 339.140578 
L 284.871456 345.011608 
L 285.297139 348.311985 
L 285.722823 349.484925 
L 286.148506 349.043291 
L 286.574189 349.244322 
L 286.999873 347.582261 
L 287.425556 346.733819 
L 288.276923 323.246533 
L 288.702606 317.766482 
L 289.12829 314.638643 
L 289.979657 316.335528 
L 290.40534 317.779146 
L 290.831024 317.062085 
L 291.256707 316.015779 
L 291.68239 313.863015 
L 292.108074 314.600653 
L 292.533757 322.409171 
L 292.959441 321.929548 
L 293.385124 323.33201 
L 293.810807 327.341533 
L 295.087858 345.158819 
L 295.513541 347.930503 
L 295.939224 349.440603 
L 296.364908 349.918643 
L 296.790591 351.16598 
L 297.216275 349.646382 
L 297.641958 347.116884 
L 298.067641 341.962915 
L 298.919008 320.732864 
L 299.770375 312.204121 
L 300.196058 313.825025 
L 300.621742 315.988869 
L 301.047425 315.096106 
L 301.898792 307.192613 
L 302.324476 305.470402 
L 302.750159 312.761307 
L 303.601526 303.556658 
L 304.027209 311.037513 
L 304.878576 337.791935 
L 305.304259 344.475 
L 305.729943 346.949095 
L 306.155626 347.802286 
L 306.58131 348.22809 
L 307.006993 348.337312 
L 307.432676 346.258945 
L 307.85836 340.452814 
L 308.709727 301.891432 
L 309.13541 283.638844 
L 309.561093 281.215402 
L 309.986777 276.126332 
L 310.41246 282.780905 
L 310.838144 283.227286 
L 311.263827 280.542663 
L 311.68951 281.634874 
L 312.115194 283.399824 
L 312.540877 287.30804 
L 312.966561 301.174372 
L 313.817928 288.674095 
L 314.243611 297.823342 
L 315.094978 337.674799 
L 315.520661 344.772588 
L 315.946345 347.765879 
L 316.372028 348.220176 
L 316.797711 348.354724 
L 317.223395 347.897261 
L 317.649078 345.93603 
L 318.074762 336.063392 
L 319.351812 282.514975 
L 319.777495 282.253794 
L 320.203179 284.253015 
L 320.628862 288.118492 
L 321.054545 287.779749 
L 321.480229 285.796357 
L 321.905912 284.70098 
L 322.331596 292.115352 
L 322.757279 289.669749 
L 323.182962 299.350854 
L 324.034329 292.094774 
L 324.460013 300.22304 
L 325.31138 336.277085 
L 325.737063 343.770603 
L 326.162746 346.437814 
L 326.58843 346.63093 
L 327.014113 347.378065 
L 327.439797 347.879849 
L 327.86548 345.372513 
L 328.291163 336.185276 
L 329.568214 281.259724 
L 329.993897 281.106181 
L 330.41958 279.939573 
L 330.845264 285.433869 
L 331.270947 286.397864 
L 331.696631 284.183367 
L 332.122314 284.973241 
L 332.547997 281.188492 
L 332.973681 285.441784 
L 333.399364 302.033894 
L 334.250731 296.490528 
L 334.676414 300.900528 
L 335.527781 332.169422 
L 335.953465 340.077663 
L 336.379148 345.022688 
L 336.804832 346.37608 
L 337.230515 348.492437 
L 337.656198 344.585804 
L 338.081882 343.330553 
L 338.507565 334.206633 
L 338.933249 318.032412 
L 339.358932 296.446206 
L 339.784615 284.215025 
L 340.210299 282.475402 
L 340.635982 283.586608 
L 341.061666 289.79005 
L 341.487349 288.946357 
L 341.913032 286.619472 
L 342.338716 289.050829 
L 342.764399 281.539899 
L 343.190083 289.210704 
L 343.615766 301.924673 
L 344.041449 298.921884 
L 344.467133 295.005754 
L 344.892816 302.97098 
L 345.744183 333.367688 
L 346.169866 341.288593 
L 347.446917 345.456407 
L 347.8726 347.53794 
L 348.298284 341.82995 
L 348.723967 334.505804 
L 350.001017 283.053166 
L 350.426701 284.42397 
L 350.852384 283.585025 
L 351.278067 287.599296 
L 351.703751 289.945176 
L 352.129434 288.164397 
L 352.555118 288.172312 
L 352.980801 291.460025 
L 353.406484 296.552261 
L 353.832168 310.046608 
L 354.257851 310.339447 
L 354.683535 315.430101 
L 355.109218 317.836131 
L 355.960585 335.626508 
L 356.386268 343.41603 
L 356.811952 347.039322 
L 357.663318 348.573166 
L 358.089002 348.427538 
L 358.514685 347.659824 
L 358.940369 344.137839 
L 359.366052 336.581005 
L 359.791736 324.120302 
L 360.217419 319.259171 
L 360.643102 321.864648 
L 361.068786 318.315754 
L 361.494469 320.968719 
L 361.920153 321.788668 
L 362.345836 320.797764 
L 362.771519 319.262337 
L 363.622886 318.143216 
L 364.04857 323.428568 
L 364.474253 323.892362 
L 364.899936 322.811231 
L 365.751303 332.51608 
L 366.176987 341.266432 
L 367.028353 348.698216 
L 367.454037 348.090377 
L 367.87972 349.043291 
L 368.305404 348.432286 
L 368.731087 348.546256 
L 369.156771 345.905955 
L 369.582454 339.216558 
L 370.433821 322.212889 
L 370.859504 320.267487 
L 371.285188 319.452286 
L 371.710871 319.415879 
L 372.136554 321.426181 
L 372.987921 316.360854 
L 373.413605 312.349749 
L 373.839288 312.807211 
L 374.264971 305.714171 
L 374.690655 308.992387 
L 375.116338 305.326357 
L 375.542022 313.938995 
L 376.393388 339.702513 
L 376.819072 345.249045 
L 377.670439 350.678442 
L 378.096122 349.337714 
L 378.521805 349.831583 
L 378.947489 347.927337 
L 379.373172 339.457161 
L 379.798856 322.645025 
L 380.224539 281.81691 
L 380.650223 66.96 
L 381.075906 113.917161 
L 381.501589 138.370025 
L 382.352956 277.930854 
L 382.77864 273.506608 
L 383.204323 276.132663 
L 383.630006 272.159548 
L 384.05569 282.282286 
L 384.481373 297.802764 
L 385.33274 286.951884 
L 385.758423 298.655955 
L 386.60979 336.470201 
L 387.035474 342.649899 
L 387.461157 346.748065 
L 388.312524 348.625402 
L 388.738207 347.378065 
L 389.163891 344.750427 
L 389.589574 335.104146 
L 390.015257 320.750276 
L 390.866624 270.609874 
L 391.292308 279.127538 
L 391.717991 280.010804 
L 392.143675 283.659422 
L 392.569358 284.925754 
L 392.995041 291.50593 
L 393.420725 328.603116 
L 393.846408 276.968442 
L 394.272092 285.245503 
L 394.697775 299.661106 
L 395.123458 295.41098 
L 395.549142 289.970503 
L 395.974825 299.719673 
L 396.826192 336.492362 
L 397.251875 344.106181 
L 398.103242 348.73304 
L 398.528926 347.981156 
L 398.954609 347.930503 
L 399.380292 344.772588 
L 399.805976 336.584171 
L 401.083026 282.405754 
L 401.508709 282.42 
L 401.934393 284.617085 
L 402.360076 289.228116 
L 402.78576 287.741759 
L 403.211443 283.608769 
L 403.637127 284.139045 
L 404.06281 281.459171 
L 404.488493 289.896106 
L 404.914177 302.127286 
L 405.33986 302.024397 
L 405.765544 298.439095 
L 406.191227 300.504799 
L 407.042594 337.122362 
L 407.468277 343.056709 
L 407.893961 346.197211 
L 408.319644 347.403392 
L 408.745327 347.227688 
L 409.171011 347.514196 
L 409.596694 345.312362 
L 410.022378 336.835854 
L 411.299428 287.146583 
L 411.725111 282.863216 
L 412.150795 282.059095 
L 413.002161 240.659548 
L 413.427845 147.245427 
L 413.853528 155.90397 
L 414.279212 260.759397 
L 414.704895 287.754422 
L 415.130579 303.436357 
L 415.556262 300.037839 
L 415.981945 299.26696 
L 416.407629 308.117035 
L 417.258996 338.434598 
L 417.684679 345.738166 
L 418.110362 349.203166 
L 418.536046 349.043291 
L 418.961729 349.147764 
L 419.387413 348.975226 
L 419.813096 346.70691 
L 420.238779 338.69103 
L 421.51583 279.095879 
L 421.941513 275.361784 
L 422.367196 279.947487 
L 422.79288 286.230075 
L 423.218563 286.533995 
L 423.644247 284.66299 
L 424.06993 286.915477 
L 424.495613 287.683191 
L 424.921297 297.202839 
L 425.34698 311.689673 
L 425.772664 314.280905 
L 426.198347 314.967889 
L 426.624031 320.52392 
L 427.475397 340.664925 
L 427.901081 346.55495 
L 428.326764 347.860854 
L 428.752448 349.788844 
L 429.178131 349.746106 
L 429.603814 350.447337 
L 430.029498 349.885402 
L 430.455181 346.474221 
L 431.306548 321.776005 
L 431.732231 313.538518 
L 432.157915 310.352111 
L 432.583598 310.469246 
L 433.009282 312.918015 
L 433.434965 312.558693 
L 433.860648 321.408769 
L 434.286332 312.614095 
L 434.712015 310.450251 
L 435.137699 308.922739 
L 435.563382 318.033995 
L 435.989065 318.114724 
L 436.414749 319.067638 
L 436.840432 322.926784 
L 437.691799 338.999698 
L 438.117483 343.716784 
L 438.543166 347.059899 
L 438.968849 349.255402 
L 439.394533 349.032211 
L 439.820216 349.359874 
L 440.2459 348.729874 
L 440.671583 345.788819 
L 441.097266 338.540653 
L 441.948633 315.553568 
L 442.374317 310.880804 
L 442.8 312.237362 
L 443.225683 311.11191 
L 443.651367 314.711457 
L 444.07705 312.501709 
L 444.502734 309.685704 
L 445.3541 298.687613 
L 445.779784 303.377789 
L 446.631151 292.460427 
L 447.056834 303.211583 
L 447.908201 337.614648 
L 448.333884 344.774171 
L 448.759568 347.876683 
L 449.185251 348.728291 
L 449.610935 349.302889 
L 450.036618 349.136683 
L 450.462301 346.463141 
L 450.887985 336.617412 
L 451.313668 314.075126 
L 452.165035 263.463015 
L 452.590718 261.15196 
L 453.016402 253.166156 
L 453.442085 257.066457 
L 453.867769 259.879296 
L 454.293452 257.522337 
L 454.719135 256.056558 
L 455.144819 251.375879 
L 455.570502 278.983492 
L 455.996186 298.241231 
L 456.421869 293.316784 
L 456.847552 286.660628 
L 457.273236 298.996281 
L 458.124603 339.268794 
L 458.550286 344.340452 
L 459.401653 348.215427 
L 459.827336 346.817714 
L 460.25302 347.00608 
L 460.678703 343.879824 
L 461.104387 335.309925 
L 461.955753 298.188995 
L 462.381437 281.690276 
L 462.80712 281.826407 
L 463.232804 281.48608 
L 463.658487 287.57397 
L 464.08417 286.902814 
L 464.509854 282.77299 
L 464.935537 282.002111 
L 465.361221 278.434221 
L 466.212587 298.264975 
L 466.638271 294.991508 
L 467.063954 293.057186 
L 467.489638 298.269724 
L 468.341004 337.958141 
L 468.766688 344.791583 
L 469.192371 348.699799 
L 469.618055 349.18892 
L 470.043738 349.122437 
L 470.469421 348.786859 
L 470.895105 344.329372 
L 471.320788 335.36691 
L 472.597839 281.060276 
L 473.023522 279.632487 
L 473.449205 282.301281 
L 473.874889 290.027487 
L 474.300572 290.591005 
L 474.726256 288.219799 
L 475.151939 288.373342 
L 475.577622 283.078492 
L 476.003306 289.23603 
L 476.428989 301.479874 
L 477.280356 295.034246 
L 477.706039 301.193367 
L 478.557406 336.432211 
L 478.98309 342.684724 
L 479.408773 343.169095 
L 479.834456 347.276759 
L 480.26014 348.764698 
L 480.685823 347.724724 
L 481.111507 345.429497 
L 481.53719 336.831106 
L 482.388557 298.894975 
L 482.81424 286.143015 
L 483.239924 286.472261 
L 483.665607 286.462764 
L 484.091291 292.898894 
L 484.516974 291.835176 
L 484.942657 289.733065 
L 485.368341 288.507889 
L 485.794024 285.748869 
L 486.645391 305.343769 
L 487.071074 303.88907 
L 487.496758 301.15696 
L 487.922441 306.345754 
L 488.773808 337.969221 
L 489.199491 345.74608 
L 489.625175 351.444573 
L 490.050858 349.336131 
L 490.476542 349.098693 
L 490.902225 349.095528 
L 491.327908 347.102638 
L 491.753592 339.406508 
L 492.604959 300.572864 
L 493.030642 292.215075 
L 493.456325 297.168015 
L 493.882009 295.404648 
L 494.733376 300.894196 
L 495.159059 299.31603 
L 495.584743 298.82691 
L 496.010426 297.970553 
L 496.861793 317.916859 
L 497.71316 320.004724 
L 498.138843 324.39098 
L 498.564526 331.172186 
L 498.99021 341.706482 
L 499.415893 347.153291 
L 499.841577 350.797161 
L 500.26726 350.507487 
L 500.692943 350.730678 
L 501.118627 349.685955 
L 501.54431 349.089196 
L 501.969994 346.615101 
L 502.82136 325.095377 
L 503.247044 321.445176 
L 503.672727 320.707538 
L 504.949777 326.04196 
L 505.375461 326.287312 
L 505.801144 323.903442 
L 506.226828 320.707538 
L 506.652511 321.639874 
L 507.503878 330.046734 
L 507.929561 330.722638 
L 508.780928 335.268769 
L 509.206612 344.954623 
L 510.057978 350.458417 
L 510.483662 351.06309 
L 510.909345 352.345251 
L 511.335029 351.588618 
L 511.760712 351.281533 
L 512.186395 350.163995 
L 512.612079 343.039296 
L 513.037762 333.320201 
L 513.463446 327.336784 
L 513.889129 325.115955 
L 514.314812 324.577764 
L 514.740496 325.437286 
L 515.166179 325.810854 
L 515.591863 325.552839 
L 516.017546 323.341508 
L 516.868913 314.618065 
L 517.294596 318.141633 
L 517.72028 311.938191 
L 518.145963 311.127739 
L 518.571647 319.338317 
L 519.423013 343.419196 
L 519.848697 348.261332 
L 520.27438 350.445754 
L 521.125747 351.659849 
L 521.55143 350.869975 
L 521.977114 349.190503 
L 522.402797 341.223693 
L 523.679847 289.098317 
L 524.105531 287.787663 
L 524.531214 287.62304 
L 524.956898 291.312814 
L 525.382581 293.061935 
L 526.233948 290.986734 
L 526.659631 288.216633 
L 527.085315 293.411759 
L 527.510998 304.218317 
L 527.936682 288.202387 
L 528.362365 339.704095 
L 528.788048 314.898241 
L 529.213732 315.749849 
L 529.639415 339.248216 
L 530.065099 347.780126 
L 530.490782 351.297362 
L 530.916465 351.658266 
L 531.342149 350.97603 
L 532.193516 346.903191 
L 532.619199 335.547362 
L 533.470566 292.572814 
L 533.896249 281.242312 
L 534.321933 284.113719 
L 534.747616 285.383216 
L 535.173299 292.481005 
L 535.598983 292.13593 
L 536.024666 288.118492 
L 536.45035 289.508291 
L 536.876033 285.120452 
L 537.301716 290.225352 
L 537.7274 302.733543 
L 538.153083 299.486985 
L 538.578767 292.954296 
L 539.00445 302.698719 
L 539.855817 338.053116 
L 540.2815 345.958191 
L 540.707184 348.437035 
L 541.132867 349.496005 
L 541.558551 349.218995 
L 541.984234 348.495603 
L 542.409917 346.689497 
L 542.835601 337.625729 
L 543.686968 298.337789 
L 544.112651 286.166759 
L 544.538334 286.806256 
L 544.964018 288.419246 
L 545.389701 297.275653 
L 546.241068 289.981583 
L 546.666751 291.699045 
L 547.092435 288.151734 
L 547.518118 306.220704 
L 547.943802 304.270553 
L 548.369485 304.221482 
L 548.795168 300.860955 
L 549.220852 308.196181 
L 550.072219 339.685101 
L 550.497902 346.561281 
L 550.923586 348.658643 
L 551.349269 349.021131 
L 551.774952 348.866005 
L 552.626319 345.526055 
L 553.052003 338.067362 
L 553.903369 299.697513 
L 554.329053 287.102261 
L 554.754736 290.815779 
L 555.18042 292.531658 
L 555.606103 297.299397 
L 556.031786 297.855 
L 556.45747 298.200075 
L 556.883153 298.234899 
L 557.308837 293.291457 
L 557.73452 299.547136 
L 558.160203 310.60696 
L 558.585887 311.669095 
L 559.01157 306.431231 
L 559.437254 312.139221 
L 560.28862 342.621407 
L 560.714304 348.144196 
L 561.139987 350.254221 
L 561.565671 351.357513 
L 561.991354 351.621859 
L 562.417038 350.898467 
L 562.842721 348.626985 
L 563.268404 340.384749 
L 564.119771 306.727236 
L 564.545455 294.133568 
L 564.971138 293.745754 
L 565.396821 295.974497 
L 565.822505 302.472362 
L 566.248188 302.589497 
L 566.673872 301.023995 
L 567.099555 298.784171 
L 567.525238 297.26299 
L 567.950922 308.694799 
L 568.376605 327.308291 
L 568.802289 320.829422 
L 569.227972 322.931533 
L 569.653655 327.316206 
L 570.505022 344.804246 
L 570.930706 349.60206 
L 571.356389 350.980779 
L 571.782072 363.154975 
L 572.207756 368.438744 
L 572.633439 351.699422 
L 573.059123 350.325452 
L 573.484806 346.90794 
L 574.336173 327.996859 
L 574.761856 321.253643 
L 575.18754 320.082286 
L 575.613223 321.413518 
L 576.038907 324.739221 
L 576.46459 326.654548 
L 576.890273 326.325302 
L 577.74164 323.167387 
L 578.167324 322.925201 
L 578.593007 329.055829 
L 579.01869 329.378744 
L 579.444374 330.936332 
L 579.870057 333.785578 
L 580.295741 338.187663 
L 581.147107 349.928141 
L 581.572791 351.126407 
L 581.998474 351.83397 
L 582.424158 352.285101 
L 583.275524 351.373342 
L 583.701208 349.041709 
L 584.552575 330.258844 
L 584.978258 325.084296 
L 585.403942 329.703241 
L 585.829625 321.136508 
L 586.255308 323.881281 
L 586.680992 322.800151 
L 587.106675 323.080327 
L 587.532359 320.539749 
L 587.958042 316.688518 
L 588.383725 313.991231 
L 588.809409 318.295176 
L 589.235092 312.862613 
L 589.660776 309.633467 
L 590.086459 317.106407 
L 590.937826 342.814523 
L 591.363509 347.708894 
L 591.789193 349.174673 
L 592.214876 351.64402 
L 592.640559 351.435075 
L 593.066243 350.627789 
L 593.491926 348.02706 
L 593.91761 340.566784 
L 595.19466 284.485704 
L 595.620343 283.008844 
L 596.046027 281.960955 
L 596.47171 288.170729 
L 596.897394 288.010854 
L 597.323077 285.038141 
L 597.74876 284.332161 
L 598.174444 280.89407 
L 599.025811 305.617613 
L 599.451494 301.606508 
L 599.877177 296.085302 
L 600.302861 303.001055 
L 601.154228 340.337261 
L 601.579911 346.84304 
L 602.005594 350.732261 
L 602.431278 351.56804 
L 602.856961 351.137487 
L 603.282645 350.528065 
L 603.708328 346.624598 
L 604.134011 335.354246 
L 604.985378 299.816231 
L 605.411062 285.805854 
L 605.836745 288.890955 
L 606.262428 288.403417 
L 606.688112 294.092412 
L 607.113795 293.867638 
L 607.539479 291.040553 
L 607.965162 290.62108 
L 608.390846 288.68201 
L 608.816529 295.18304 
L 609.242212 306.345754 
L 609.667896 304.246809 
L 610.093579 301.012915 
L 610.519263 309.411859 
L 611.370629 341.730226 
L 611.796313 348.801106 
L 612.221996 349.416859 
L 612.64768 350.681608 
L 613.499046 349.774598 
L 613.92473 347.450879 
L 614.350413 338.323794 
L 615.20178 302.972563 
L 615.627463 289.454472 
L 616.053147 294.543543 
L 616.47883 293.424422 
L 616.904514 298.363116 
L 617.330197 301.003417 
L 617.75588 298.024372 
L 618.181564 298.040201 
L 618.607247 294.174724 
L 619.032931 300.254698 
L 619.458614 311.798894 
L 619.884298 311.374673 
L 620.309981 306.538869 
L 620.735664 310.083015 
L 621.161348 330.231935 
L 621.587031 344.554146 
L 622.012715 351.354347 
L 622.438398 353.160452 
L 622.864081 353.122462 
L 623.289765 353.766709 
L 623.715448 352.983166 
L 624.141132 350.393518 
L 624.566815 341.603593 
L 625.418182 306.100402 
L 625.843865 293.68402 
L 626.269549 296.591834 
L 626.695232 295.849447 
L 627.120915 303.893819 
L 627.546599 303.042211 
L 627.972282 300.416156 
L 628.397966 300.302186 
L 628.823649 295.87794 
L 629.249332 303.646884 
L 629.675016 313.707889 
L 630.526383 308.786608 
L 630.952066 315.146759 
L 631.803433 343.601231 
L 632.229116 349.467513 
L 632.6548 351.473065 
L 633.080483 351.558543 
L 633.506167 352.524121 
L 633.93185 351.514221 
L 634.357533 349.36304 
L 634.783217 340.737739 
L 635.634584 307.605754 
L 636.060267 295.399899 
L 636.48595 297.522588 
L 636.911634 296.162864 
L 637.337317 302.619573 
L 637.763001 302.912412 
L 638.188684 300.560201 
L 638.614367 302.668643 
L 639.040051 301.972161 
L 639.891418 324.177286 
L 640.317101 325.375553 
L 640.742784 328.911784 
L 641.594151 340.272362 
L 642.019835 348.104623 
L 642.445518 352.617513 
L 642.871202 355.708945 
L 643.296885 356.35794 
L 643.722568 356.601709 
L 644.148252 356.128417 
L 644.573935 354.768693 
L 644.999619 351.425578 
L 645.850985 336.117211 
L 646.276669 330.361734 
L 646.702352 329.684246 
L 647.128036 329.90902 
L 647.553719 334.814472 
L 647.979402 332.653794 
L 648.405086 332.448015 
L 648.830769 332.425854 
L 649.256453 328.474899 
L 649.682136 328.786734 
L 650.107819 333.277462 
L 650.533503 335.161131 
L 650.959186 338.681533 
L 651.38487 338.874648 
L 651.810553 339.580628 
L 652.236236 345.073342 
L 653.087603 349.559322 
L 653.513287 350.026281 
L 653.93897 350.911131 
L 654.364654 349.87907 
L 654.790337 349.40103 
L 655.21602 344.922965 
L 656.067387 327.688191 
L 656.493071 323.336759 
L 656.918754 322.279372 
L 657.344437 321.856734 
L 658.195804 325.332814 
L 658.621488 323.192714 
L 659.047171 322.578543 
L 659.472854 316.740754 
L 659.898538 312.661583 
L 660.324221 316.365603 
L 660.749905 309.487839 
L 661.175588 305.46407 
L 661.601271 313.277337 
L 662.452638 340.376834 
L 662.878322 345.955025 
L 663.729688 349.223744 
L 664.155372 348.367387 
L 664.581055 348.068216 
L 665.006739 346.132312 
L 665.432422 337.187261 
L 666.709472 284.73897 
L 667.135156 284.384397 
L 667.560839 283.284271 
L 667.986523 287.702186 
L 668.412206 286.928141 
L 669.263573 284.431884 
L 669.689256 280.435025 
L 670.11494 287.961784 
L 670.540623 300.346508 
L 671.39199 277.332513 
L 672.66904 337.374045 
L 673.094723 344.71402 
L 673.520407 346.35392 
L 674.371774 347.466709 
L 674.797457 346.616683 
L 675.22314 344.454422 
L 675.648824 332.758266 
L 676.500191 293.035025 
L 676.925874 282.299698 
L 677.777241 285.24392 
L 678.202924 288.045678 
L 678.628608 285.475025 
L 679.479975 284.694648 
L 679.905658 279.444121 
L 680.331341 286.598894 
L 680.757025 297.047714 
L 681.608392 290.925 
L 682.034075 297.821759 
L 682.459758 319.14995 
L 682.885442 334.165477 
L 683.311125 342.741709 
L 683.736809 346.578693 
L 684.162492 347.580678 
L 684.588175 347.564849 
L 685.013859 347.034573 
L 685.439542 344.335704 
L 685.865226 333.475327 
L 686.716592 293.639698 
L 687.142276 294.192136 
L 687.567959 292.463593 
L 687.993643 295.035829 
L 688.419326 290.342487 
L 688.84501 293.04294 
L 689.270693 290.869598 
L 689.696376 290.883844 
L 690.12206 287.490075 
L 690.547743 293.603291 
L 690.973427 302.872839 
L 691.39911 300.675754 
L 691.824793 296.808693 
L 692.250477 294.698668 
L 692.67616 319.745126 
L 693.101844 329.731734 
L 693.527527 345.518141 
L 693.95321 345.817312 
L 694.378894 369.052915 
L 694.804577 348.449698 
L 695.230261 349.532412 
L 695.655944 351.588618 
L 696.081627 343.289397 
L 696.932994 303.860578 
L 697.358678 296.287915 
L 697.784361 297.392789 
L 698.635728 304.550729 
L 699.487095 298.796834 
L 699.912778 300.128065 
L 700.338462 294.874372 
L 700.764145 302.559422 
L 701.189828 313.83294 
L 701.615512 312.104397 
L 702.041195 309.821834 
L 702.466879 318.673492 
L 702.892562 323.067663 
L 703.743929 348.099874 
L 704.169612 335.235528 
L 704.595296 334.48206 
L 705.446662 351.876709 
L 705.872346 350.303291 
L 706.298029 338.922136 
L 707.149396 302.804774 
L 707.575079 290.671734 
L 708.000763 294.757236 
L 708.426446 296.29108 
L 708.85213 302.079799 
L 709.277813 302.170025 
L 709.703497 296.435126 
L 710.12918 297.671382 
L 710.554863 300.129648 
L 711.40623 319.479196 
L 712.257597 323.438065 
L 712.68328 324.345075 
L 713.534647 332.848492 
L 713.960331 343.615477 
L 714.386014 348.302487 
L 714.811697 349.571985 
L 715.663064 346.477387 
L 716.088748 345.326608 
L 716.940114 335.287764 
L 717.791481 316.588794 
L 718.217165 317.636683 
L 718.642848 316.039523 
L 719.068531 320.64897 
L 719.494215 321.074774 
L 719.919898 319.620075 
L 720.345582 320.037965 
L 720.771265 319.574171 
L 721.196949 318.401231 
L 721.622632 325.29799 
L 722.048315 328.315025 
L 722.473999 328.886457 
L 723.325366 333.12392 
L 723.751049 341.47696 
L 724.176732 346.339673 
L 724.602416 345.081256 
L 725.028099 348.83593 
L 725.453783 349.195251 
L 725.879466 350.336533 
L 726.305149 349.752437 
L 726.730833 346.600854 
L 727.5822 331.11995 
L 728.007883 322.896709 
L 728.433566 312.289598 
L 728.85925 317.470477 
L 729.284933 308.577663 
L 729.710617 319.28608 
L 730.1363 319.792613 
L 730.561983 317.96593 
L 730.987667 315.542487 
L 731.41335 311.715 
L 731.839034 318.626005 
L 732.264717 313.731633 
L 732.690401 312.702739 
L 733.116084 318.060905 
L 733.967451 342.103794 
L 734.393134 348.313568 
L 734.818818 349.890151 
L 735.670184 351.422412 
L 736.095868 349.625804 
L 736.521551 348.311985 
L 736.947235 339.829146 
L 738.224285 286.263317 
L 738.649968 285.816935 
L 739.075652 287.233643 
L 739.501335 295.80196 
L 739.927018 292.900477 
L 740.352702 291.026307 
L 740.778385 291.453693 
L 741.204069 287.735427 
L 741.629752 295.051658 
L 742.055435 306.07191 
L 742.481119 303.792513 
L 742.906802 299.626281 
L 743.332486 304.474749 
L 744.183853 338.504246 
L 744.609536 345.975603 
L 745.035219 348.476608 
L 745.460903 349.985126 
L 745.460903 349.985126 
" style="fill:none;stroke:#1f77b4;stroke-linecap:square;stroke-width:1.5;"/>
   </g>
   <g id="line2d_19">
    <path clip-path="url(#p3788e92a93)" d="M 747.163636 384.48 
L 747.163636 51.84 
" style="fill:none;stroke:#808080;stroke-linecap:square;"/>
   </g>
   <g id="patch_98">
    <path d="M 108 384.48 
L 108 51.84 
" style="fill:none;stroke:#000000;stroke-linecap:square;stroke-linejoin:miter;stroke-width:0.8;"/>
   </g>
   <g id="patch_99">
    <path d="M 777.6 384.48 
L 777.6 51.84 
" style="fill:none;stroke:#000000;stroke-linecap:square;stroke-linejoin:miter;stroke-width:0.8;"/>
   </g>
   <g id="patch_100">
    <path d="M 108 384.48 
L 777.6 384.48 
" style="fill:none;stroke:#000000;stroke-linecap:square;stroke-linejoin:miter;stroke-width:0.8;"/>
   </g>
   <g id="patch_101">
    <path d="M 108 51.84 
L 777.6 51.84 
" style="fill:none;stroke:#000000;stroke-linecap:square;stroke-linejoin:miter;stroke-width:0.8;"/>
   </g>
   <g id="text_20">
    <!-- real_39.csv -->
    <defs>
     <path d="M 41.109375 46.296875 
Q 39.59375 47.171875 37.8125 47.578125 
Q 36.03125 48 33.890625 48 
Q 26.265625 48 22.1875 43.046875 
Q 18.109375 38.09375 18.109375 28.8125 
L 18.109375 0 
L 9.078125 0 
L 9.078125 54.6875 
L 18.109375 54.6875 
L 18.109375 46.1875 
Q 20.953125 51.171875 25.484375 53.578125 
Q 30.03125 56 36.53125 56 
Q 37.453125 56 38.578125 55.875 
Q 39.703125 55.765625 41.0625 55.515625 
z
" id="DejaVuSans-114"/>
     <path d="M 50.984375 -16.609375 
L 50.984375 -23.578125 
L -0.984375 -23.578125 
L -0.984375 -16.609375 
z
" id="DejaVuSans-95"/>
     <path d="M 40.578125 39.3125 
Q 47.65625 37.796875 51.625 33 
Q 55.609375 28.21875 55.609375 21.1875 
Q 55.609375 10.40625 48.1875 4.484375 
Q 40.765625 -1.421875 27.09375 -1.421875 
Q 22.515625 -1.421875 17.65625 -0.515625 
Q 12.796875 0.390625 7.625 2.203125 
L 7.625 11.71875 
Q 11.71875 9.328125 16.59375 8.109375 
Q 21.484375 6.890625 26.8125 6.890625 
Q 36.078125 6.890625 40.9375 10.546875 
Q 45.796875 14.203125 45.796875 21.1875 
Q 45.796875 27.640625 41.28125 31.265625 
Q 36.765625 34.90625 28.71875 34.90625 
L 20.21875 34.90625 
L 20.21875 43.015625 
L 29.109375 43.015625 
Q 36.375 43.015625 40.234375 45.921875 
Q 44.09375 48.828125 44.09375 54.296875 
Q 44.09375 59.90625 40.109375 62.90625 
Q 36.140625 65.921875 28.71875 65.921875 
Q 24.65625 65.921875 20.015625 65.03125 
Q 15.375 64.15625 9.8125 62.3125 
L 9.8125 71.09375 
Q 15.4375 72.65625 20.34375 73.4375 
Q 25.25 74.21875 29.59375 74.21875 
Q 40.828125 74.21875 47.359375 69.109375 
Q 53.90625 64.015625 53.90625 55.328125 
Q 53.90625 49.265625 50.4375 45.09375 
Q 46.96875 40.921875 40.578125 39.3125 
z
" id="DejaVuSans-51"/>
     <path d="M 10.984375 1.515625 
L 10.984375 10.5 
Q 14.703125 8.734375 18.5 7.8125 
Q 22.3125 6.890625 25.984375 6.890625 
Q 35.75 6.890625 40.890625 13.453125 
Q 46.046875 20.015625 46.78125 33.40625 
Q 43.953125 29.203125 39.59375 26.953125 
Q 35.25 24.703125 29.984375 24.703125 
Q 19.046875 24.703125 12.671875 31.3125 
Q 6.296875 37.9375 6.296875 49.421875 
Q 6.296875 60.640625 12.9375 67.421875 
Q 19.578125 74.21875 30.609375 74.21875 
Q 43.265625 74.21875 49.921875 64.515625 
Q 56.59375 54.828125 56.59375 36.375 
Q 56.59375 19.140625 48.40625 8.859375 
Q 40.234375 -1.421875 26.421875 -1.421875 
Q 22.703125 -1.421875 18.890625 -0.6875 
Q 15.09375 0.046875 10.984375 1.515625 
z
M 30.609375 32.421875 
Q 37.25 32.421875 41.125 36.953125 
Q 45.015625 41.5 45.015625 49.421875 
Q 45.015625 57.28125 41.125 61.84375 
Q 37.25 66.40625 30.609375 66.40625 
Q 23.96875 66.40625 20.09375 61.84375 
Q 16.21875 57.28125 16.21875 49.421875 
Q 16.21875 41.5 20.09375 36.953125 
Q 23.96875 32.421875 30.609375 32.421875 
z
" id="DejaVuSans-57"/>
     <path d="M 10.6875 12.40625 
L 21 12.40625 
L 21 0 
L 10.6875 0 
z
" id="DejaVuSans-46"/>
     <path d="M 48.78125 52.59375 
L 48.78125 44.1875 
Q 44.96875 46.296875 41.140625 47.34375 
Q 37.3125 48.390625 33.40625 48.390625 
Q 24.65625 48.390625 19.8125 42.84375 
Q 14.984375 37.3125 14.984375 27.296875 
Q 14.984375 17.28125 19.8125 11.734375 
Q 24.65625 6.203125 33.40625 6.203125 
Q 37.3125 6.203125 41.140625 7.25 
Q 44.96875 8.296875 48.78125 10.40625 
L 48.78125 2.09375 
Q 45.015625 0.34375 40.984375 -0.53125 
Q 36.96875 -1.421875 32.421875 -1.421875 
Q 20.0625 -1.421875 12.78125 6.34375 
Q 5.515625 14.109375 5.515625 27.296875 
Q 5.515625 40.671875 12.859375 48.328125 
Q 20.21875 56 33.015625 56 
Q 37.15625 56 41.109375 55.140625 
Q 45.0625 54.296875 48.78125 52.59375 
z
" id="DejaVuSans-99"/>
     <path d="M 2.984375 54.6875 
L 12.5 54.6875 
L 29.59375 8.796875 
L 46.6875 54.6875 
L 56.203125 54.6875 
L 35.6875 0 
L 23.484375 0 
z
" id="DejaVuSans-118"/>
    </defs>
    <g transform="translate(408.781875 45.84)scale(0.12 -0.12)">
     <use xlink:href="#DejaVuSans-114"/>
     <use x="41.082031" xlink:href="#DejaVuSans-101"/>
     <use x="102.605469" xlink:href="#DejaVuSans-97"/>
     <use x="163.884766" xlink:href="#DejaVuSans-108"/>
     <use x="191.667969" xlink:href="#DejaVuSans-95"/>
     <use x="241.667969" xlink:href="#DejaVuSans-51"/>
     <use x="305.291016" xlink:href="#DejaVuSans-57"/>
     <use x="368.914062" xlink:href="#DejaVuSans-46"/>
     <use x="400.701172" xlink:href="#DejaVuSans-99"/>
     <use x="455.681641" xlink:href="#DejaVuSans-115"/>
     <use x="507.78125" xlink:href="#DejaVuSans-118"/>
    </g>
   </g>
   <g id="legend_1">
    <g id="patch_102">
     <path d="M 115 74.518125 
L 174.315625 74.518125 
Q 176.315625 74.518125 176.315625 72.518125 
L 176.315625 58.84 
Q 176.315625 56.84 174.315625 56.84 
L 115 56.84 
Q 113 56.84 113 58.84 
L 113 72.518125 
Q 113 74.518125 115 74.518125 
z
" style="fill:#ffffff;opacity:0.8;stroke:#cccccc;stroke-linejoin:miter;"/>
    </g>
    <g id="line2d_20">
     <path d="M 117 64.938438 
L 137 64.938438 
" style="fill:none;stroke:#1f77b4;stroke-linecap:square;stroke-width:1.5;"/>
    </g>
    <g id="line2d_21"/>
    <g id="text_21">
     <!-- value -->
     <g transform="translate(145 68.438438)scale(0.1 -0.1)">
      <use xlink:href="#DejaVuSans-118"/>
      <use x="59.179688" xlink:href="#DejaVuSans-97"/>
      <use x="120.458984" xlink:href="#DejaVuSans-108"/>
      <use x="148.242188" xlink:href="#DejaVuSans-117"/>
      <use x="211.621094" xlink:href="#DejaVuSans-101"/>
     </g>
    </g>
   </g>
  </g>
 </g>
 <defs>
  <clipPath id="p3788e92a93">
   <rect height="332.64" width="669.6" x="108" y="51.84"/>
  </clipPath>
 </defs>
</svg>
