<?xml version="1.0" encoding="utf-8" standalone="no"?>
<!DOCTYPE svg PUBLIC "-//W3C//DTD SVG 1.1//EN"
  "http://www.w3.org/Graphics/SVG/1.1/DTD/svg11.dtd">
<!-- Created with matplotlib (https://matplotlib.org/) -->
<svg height="432pt" version="1.1" viewBox="0 0 864 432" width="864pt" xmlns="http://www.w3.org/2000/svg" xmlns:xlink="http://www.w3.org/1999/xlink">
 <defs>
  <style type="text/css">
*{stroke-linecap:butt;stroke-linejoin:round;}
  </style>
 </defs>
 <g id="figure_1">
  <g id="patch_1">
   <path d="M 0 432 
L 864 432 
L 864 0 
L 0 0 
z
" style="fill:#ffffff;"/>
  </g>
  <g id="axes_1">
   <g id="patch_2">
    <path d="M 108 384.48 
L 777.6 384.48 
L 777.6 51.84 
L 108 51.84 
z
" style="fill:#ffffff;"/>
   </g>
   <g id="patch_3">
    <path clip-path="url(#pff63cc074f)" d="M 138.436364 384.48 
L 138.436364 51.84 
L 379.390909 51.84 
L 379.390909 384.48 
z
" style="fill:#0000ff;opacity:0.05;"/>
   </g>
   <g id="patch_4">
    <path clip-path="url(#pff63cc074f)" d="M 379.390909 384.48 
L 379.390909 51.84 
L 747.163636 51.84 
L 747.163636 384.48 
z
" style="fill:#ff0000;opacity:0.08;"/>
   </g>
   <g id="patch_5">
    <path clip-path="url(#pff63cc074f)" d="M 138.436364 384.48 
L 138.436364 51.84 
L 144.777273 51.84 
L 144.777273 384.48 
z
" style="fill:#008000;opacity:0.04;"/>
   </g>
   <g id="patch_6">
    <path clip-path="url(#pff63cc074f)" d="M 144.777273 384.48 
L 144.777273 371.1744 
L 151.118182 371.1744 
L 151.118182 384.48 
z
" style="fill:#ffe500;"/>
   </g>
   <g id="patch_7">
    <path clip-path="url(#pff63cc074f)" d="M 151.118182 384.48 
L 151.118182 51.84 
L 157.459091 51.84 
L 157.459091 384.48 
z
" style="fill:#008000;opacity:0.04;"/>
   </g>
   <g id="patch_8">
    <path clip-path="url(#pff63cc074f)" d="M 163.8 384.48 
L 163.8 51.84 
L 170.140909 51.84 
L 170.140909 384.48 
z
" style="fill:#008000;opacity:0.04;"/>
   </g>
   <g id="patch_9">
    <path clip-path="url(#pff63cc074f)" d="M 176.481818 384.48 
L 176.481818 51.84 
L 182.822727 51.84 
L 182.822727 384.48 
z
" style="fill:#008000;opacity:0.04;"/>
   </g>
   <g id="patch_10">
    <path clip-path="url(#pff63cc074f)" d="M 189.163636 384.48 
L 189.163636 51.84 
L 195.504545 51.84 
L 195.504545 384.48 
z
" style="fill:#008000;opacity:0.04;"/>
   </g>
   <g id="patch_11">
    <path clip-path="url(#pff63cc074f)" d="M 201.845455 384.48 
L 201.845455 51.84 
L 208.186364 51.84 
L 208.186364 384.48 
z
" style="fill:#008000;opacity:0.04;"/>
   </g>
   <g id="patch_12">
    <path clip-path="url(#pff63cc074f)" d="M 201.845455 384.48 
L 201.845455 371.1744 
L 208.186364 371.1744 
L 208.186364 384.48 
z
" style="fill:#ffe500;"/>
   </g>
   <g id="patch_13">
    <path clip-path="url(#pff63cc074f)" d="M 214.527273 384.48 
L 214.527273 51.84 
L 220.868182 51.84 
L 220.868182 384.48 
z
" style="fill:#008000;opacity:0.04;"/>
   </g>
   <g id="patch_14">
    <path clip-path="url(#pff63cc074f)" d="M 227.209091 384.48 
L 227.209091 51.84 
L 233.55 51.84 
L 233.55 384.48 
z
" style="fill:#008000;opacity:0.04;"/>
   </g>
   <g id="patch_15">
    <path clip-path="url(#pff63cc074f)" d="M 239.890909 384.48 
L 239.890909 51.84 
L 246.231818 51.84 
L 246.231818 384.48 
z
" style="fill:#008000;opacity:0.04;"/>
   </g>
   <g id="patch_16">
    <path clip-path="url(#pff63cc074f)" d="M 252.572727 384.48 
L 252.572727 51.84 
L 258.913636 51.84 
L 258.913636 384.48 
z
" style="fill:#008000;opacity:0.04;"/>
   </g>
   <g id="patch_17">
    <path clip-path="url(#pff63cc074f)" d="M 265.254545 384.48 
L 265.254545 51.84 
L 271.595455 51.84 
L 271.595455 384.48 
z
" style="fill:#008000;opacity:0.04;"/>
   </g>
   <g id="patch_18">
    <path clip-path="url(#pff63cc074f)" d="M 277.936364 384.48 
L 277.936364 51.84 
L 284.277273 51.84 
L 284.277273 384.48 
z
" style="fill:#008000;opacity:0.04;"/>
   </g>
   <g id="patch_19">
    <path clip-path="url(#pff63cc074f)" d="M 284.277273 371.1744 
L 284.277273 51.84 
L 290.618182 51.84 
L 290.618182 371.1744 
z
" style="fill:#008000;opacity:0.5;"/>
   </g>
   <g id="patch_20">
    <path clip-path="url(#pff63cc074f)" d="M 284.277273 384.48 
L 284.277273 371.1744 
L 290.618182 371.1744 
L 290.618182 384.48 
z
" style="fill:#ffe500;"/>
   </g>
   <g id="patch_21">
    <path clip-path="url(#pff63cc074f)" d="M 290.618182 384.48 
L 290.618182 51.84 
L 296.959091 51.84 
L 296.959091 384.48 
z
" style="fill:#008000;opacity:0.04;"/>
   </g>
   <g id="patch_22">
    <path clip-path="url(#pff63cc074f)" d="M 290.618182 371.1744 
L 290.618182 51.84 
L 296.959091 51.84 
L 296.959091 371.1744 
z
" style="fill:#008000;opacity:0.5;"/>
   </g>
   <g id="patch_23">
    <path clip-path="url(#pff63cc074f)" d="M 296.959091 371.1744 
L 296.959091 51.84 
L 303.3 51.84 
L 303.3 371.1744 
z
" style="fill:#008000;opacity:0.5;"/>
   </g>
   <g id="patch_24">
    <path clip-path="url(#pff63cc074f)" d="M 303.3 384.48 
L 303.3 51.84 
L 309.640909 51.84 
L 309.640909 384.48 
z
" style="fill:#008000;opacity:0.04;"/>
   </g>
   <g id="patch_25">
    <path clip-path="url(#pff63cc074f)" d="M 315.981818 384.48 
L 315.981818 51.84 
L 322.322727 51.84 
L 322.322727 384.48 
z
" style="fill:#008000;opacity:0.04;"/>
   </g>
   <g id="patch_26">
    <path clip-path="url(#pff63cc074f)" d="M 328.663636 384.48 
L 328.663636 51.84 
L 335.004545 51.84 
L 335.004545 384.48 
z
" style="fill:#008000;opacity:0.04;"/>
   </g>
   <g id="patch_27">
    <path clip-path="url(#pff63cc074f)" d="M 575.959091 384.48 
L 575.959091 371.1744 
L 582.3 371.1744 
L 582.3 384.48 
z
" style="fill:#ff6600;"/>
   </g>
   <g id="patch_28">
    <path clip-path="url(#pff63cc074f)" d="M 341.345455 384.48 
L 341.345455 51.84 
L 347.686364 51.84 
L 347.686364 384.48 
z
" style="fill:#008000;opacity:0.04;"/>
   </g>
   <g id="patch_29">
    <path clip-path="url(#pff63cc074f)" d="M 582.3 384.48 
L 582.3 371.1744 
L 588.640909 371.1744 
L 588.640909 384.48 
z
" style="fill:#ff6600;"/>
   </g>
   <g id="patch_30">
    <path clip-path="url(#pff63cc074f)" d="M 354.027273 384.48 
L 354.027273 51.84 
L 360.368182 51.84 
L 360.368182 384.48 
z
" style="fill:#008000;opacity:0.04;"/>
   </g>
   <g id="patch_31">
    <path clip-path="url(#pff63cc074f)" d="M 594.981818 384.48 
L 594.981818 371.1744 
L 601.322727 371.1744 
L 601.322727 384.48 
z
" style="fill:#ff6600;"/>
   </g>
   <g id="patch_32">
    <path clip-path="url(#pff63cc074f)" d="M 601.322727 384.48 
L 601.322727 371.1744 
L 607.663636 371.1744 
L 607.663636 384.48 
z
" style="fill:#ff6600;"/>
   </g>
   <g id="patch_33">
    <path clip-path="url(#pff63cc074f)" d="M 366.709091 384.48 
L 366.709091 51.84 
L 373.05 51.84 
L 373.05 384.48 
z
" style="fill:#008000;opacity:0.04;"/>
   </g>
   <g id="patch_34">
    <path clip-path="url(#pff63cc074f)" d="M 379.390909 384.48 
L 379.390909 51.84 
L 385.731818 51.84 
L 385.731818 384.48 
z
" style="fill:#008000;opacity:0.04;"/>
   </g>
   <g id="patch_35">
    <path clip-path="url(#pff63cc074f)" d="M 392.072727 384.48 
L 392.072727 51.84 
L 398.413636 51.84 
L 398.413636 384.48 
z
" style="fill:#008000;opacity:0.04;"/>
   </g>
   <g id="patch_36">
    <path clip-path="url(#pff63cc074f)" d="M 404.754545 384.48 
L 404.754545 51.84 
L 411.095455 51.84 
L 411.095455 384.48 
z
" style="fill:#008000;opacity:0.04;"/>
   </g>
   <g id="patch_37">
    <path clip-path="url(#pff63cc074f)" d="M 417.436364 384.48 
L 417.436364 51.84 
L 423.777273 51.84 
L 423.777273 384.48 
z
" style="fill:#008000;opacity:0.04;"/>
   </g>
   <g id="patch_38">
    <path clip-path="url(#pff63cc074f)" d="M 430.118182 384.48 
L 430.118182 51.84 
L 436.459091 51.84 
L 436.459091 384.48 
z
" style="fill:#008000;opacity:0.04;"/>
   </g>
   <g id="patch_39">
    <path clip-path="url(#pff63cc074f)" d="M 677.413636 384.48 
L 677.413636 371.1744 
L 683.754545 371.1744 
L 683.754545 384.48 
z
" style="fill:#ff6600;"/>
   </g>
   <g id="patch_40">
    <path clip-path="url(#pff63cc074f)" d="M 442.8 384.48 
L 442.8 51.84 
L 449.140909 51.84 
L 449.140909 384.48 
z
" style="fill:#008000;opacity:0.04;"/>
   </g>
   <g id="patch_41">
    <path clip-path="url(#pff63cc074f)" d="M 690.095455 384.48 
L 690.095455 371.1744 
L 696.436364 371.1744 
L 696.436364 384.48 
z
" style="fill:#ff6600;"/>
   </g>
   <g id="patch_42">
    <path clip-path="url(#pff63cc074f)" d="M 455.481818 384.48 
L 455.481818 51.84 
L 461.822727 51.84 
L 461.822727 384.48 
z
" style="fill:#008000;opacity:0.04;"/>
   </g>
   <g id="patch_43">
    <path clip-path="url(#pff63cc074f)" d="M 468.163636 384.48 
L 468.163636 51.84 
L 474.504545 51.84 
L 474.504545 384.48 
z
" style="fill:#008000;opacity:0.04;"/>
   </g>
   <g id="patch_44">
    <path clip-path="url(#pff63cc074f)" d="M 480.845455 384.48 
L 480.845455 51.84 
L 487.186364 51.84 
L 487.186364 384.48 
z
" style="fill:#008000;opacity:0.04;"/>
   </g>
   <g id="patch_45">
    <path clip-path="url(#pff63cc074f)" d="M 493.527273 384.48 
L 493.527273 51.84 
L 499.868182 51.84 
L 499.868182 384.48 
z
" style="fill:#008000;opacity:0.04;"/>
   </g>
   <g id="patch_46">
    <path clip-path="url(#pff63cc074f)" d="M 506.209091 384.48 
L 506.209091 51.84 
L 512.55 51.84 
L 512.55 384.48 
z
" style="fill:#008000;opacity:0.04;"/>
   </g>
   <g id="patch_47">
    <path clip-path="url(#pff63cc074f)" d="M 518.890909 384.48 
L 518.890909 51.84 
L 525.231818 51.84 
L 525.231818 384.48 
z
" style="fill:#008000;opacity:0.04;"/>
   </g>
   <g id="patch_48">
    <path clip-path="url(#pff63cc074f)" d="M 531.572727 384.48 
L 531.572727 51.84 
L 537.913636 51.84 
L 537.913636 384.48 
z
" style="fill:#008000;opacity:0.04;"/>
   </g>
   <g id="patch_49">
    <path clip-path="url(#pff63cc074f)" d="M 544.254545 384.48 
L 544.254545 51.84 
L 550.595455 51.84 
L 550.595455 384.48 
z
" style="fill:#008000;opacity:0.04;"/>
   </g>
   <g id="patch_50">
    <path clip-path="url(#pff63cc074f)" d="M 556.936364 384.48 
L 556.936364 51.84 
L 563.277273 51.84 
L 563.277273 384.48 
z
" style="fill:#008000;opacity:0.04;"/>
   </g>
   <g id="patch_51">
    <path clip-path="url(#pff63cc074f)" d="M 569.618182 384.48 
L 569.618182 51.84 
L 575.959091 51.84 
L 575.959091 384.48 
z
" style="fill:#008000;opacity:0.04;"/>
   </g>
   <g id="patch_52">
    <path clip-path="url(#pff63cc074f)" d="M 582.3 384.48 
L 582.3 51.84 
L 588.640909 51.84 
L 588.640909 384.48 
z
" style="fill:#008000;opacity:0.04;"/>
   </g>
   <g id="patch_53">
    <path clip-path="url(#pff63cc074f)" d="M 594.981818 384.48 
L 594.981818 51.84 
L 601.322727 51.84 
L 601.322727 384.48 
z
" style="fill:#008000;opacity:0.04;"/>
   </g>
   <g id="patch_54">
    <path clip-path="url(#pff63cc074f)" d="M 607.663636 384.48 
L 607.663636 51.84 
L 614.004545 51.84 
L 614.004545 384.48 
z
" style="fill:#008000;opacity:0.04;"/>
   </g>
   <g id="patch_55">
    <path clip-path="url(#pff63cc074f)" d="M 620.345455 384.48 
L 620.345455 51.84 
L 626.686364 51.84 
L 626.686364 384.48 
z
" style="fill:#008000;opacity:0.04;"/>
   </g>
   <g id="patch_56">
    <path clip-path="url(#pff63cc074f)" d="M 633.027273 384.48 
L 633.027273 51.84 
L 639.368182 51.84 
L 639.368182 384.48 
z
" style="fill:#008000;opacity:0.04;"/>
   </g>
   <g id="patch_57">
    <path clip-path="url(#pff63cc074f)" d="M 645.709091 384.48 
L 645.709091 51.84 
L 652.05 51.84 
L 652.05 384.48 
z
" style="fill:#008000;opacity:0.04;"/>
   </g>
   <g id="patch_58">
    <path clip-path="url(#pff63cc074f)" d="M 658.390909 384.48 
L 658.390909 51.84 
L 664.731818 51.84 
L 664.731818 384.48 
z
" style="fill:#008000;opacity:0.04;"/>
   </g>
   <g id="patch_59">
    <path clip-path="url(#pff63cc074f)" d="M 671.072727 384.48 
L 671.072727 51.84 
L 677.413636 51.84 
L 677.413636 384.48 
z
" style="fill:#008000;opacity:0.04;"/>
   </g>
   <g id="patch_60">
    <path clip-path="url(#pff63cc074f)" d="M 683.754545 384.48 
L 683.754545 51.84 
L 690.095455 51.84 
L 690.095455 384.48 
z
" style="fill:#008000;opacity:0.04;"/>
   </g>
   <g id="patch_61">
    <path clip-path="url(#pff63cc074f)" d="M 696.436364 384.48 
L 696.436364 51.84 
L 702.777273 51.84 
L 702.777273 384.48 
z
" style="fill:#008000;opacity:0.04;"/>
   </g>
   <g id="patch_62">
    <path clip-path="url(#pff63cc074f)" d="M 709.118182 384.48 
L 709.118182 51.84 
L 715.459091 51.84 
L 715.459091 384.48 
z
" style="fill:#008000;opacity:0.04;"/>
   </g>
   <g id="patch_63">
    <path clip-path="url(#pff63cc074f)" d="M 721.8 384.48 
L 721.8 51.84 
L 728.140909 51.84 
L 728.140909 384.48 
z
" style="fill:#008000;opacity:0.04;"/>
   </g>
   <g id="patch_64">
    <path clip-path="url(#pff63cc074f)" d="M 734.481818 384.48 
L 734.481818 51.84 
L 740.822727 51.84 
L 740.822727 384.48 
z
" style="fill:#008000;opacity:0.04;"/>
   </g>
   <g id="matplotlib.axis_1">
    <g id="xtick_1">
     <g id="line2d_1">
      <defs>
       <path d="M 0 0 
L 0 3.5 
" id="m2705c8b458" style="stroke:#000000;stroke-width:0.8;"/>
      </defs>
      <g>
       <use style="stroke:#000000;stroke-width:0.8;" x="138.436364" xlink:href="#m2705c8b458" y="384.48"/>
      </g>
     </g>
     <g id="text_1">
      <!-- 0 -->
      <defs>
       <path d="M 31.78125 66.40625 
Q 24.171875 66.40625 20.328125 58.90625 
Q 16.5 51.421875 16.5 36.375 
Q 16.5 21.390625 20.328125 13.890625 
Q 24.171875 6.390625 31.78125 6.390625 
Q 39.453125 6.390625 43.28125 13.890625 
Q 47.125 21.390625 47.125 36.375 
Q 47.125 51.421875 43.28125 58.90625 
Q 39.453125 66.40625 31.78125 66.40625 
z
M 31.78125 74.21875 
Q 44.046875 74.21875 50.515625 64.515625 
Q 56.984375 54.828125 56.984375 36.375 
Q 56.984375 17.96875 50.515625 8.265625 
Q 44.046875 -1.421875 31.78125 -1.421875 
Q 19.53125 -1.421875 13.0625 8.265625 
Q 6.59375 17.96875 6.59375 36.375 
Q 6.59375 54.828125 13.0625 64.515625 
Q 19.53125 74.21875 31.78125 74.21875 
z
" id="DejaVuSans-48"/>
      </defs>
      <g transform="translate(135.255114 399.078438)scale(0.1 -0.1)">
       <use xlink:href="#DejaVuSans-48"/>
      </g>
     </g>
    </g>
    <g id="xtick_2">
     <g id="line2d_2">
      <g>
       <use style="stroke:#000000;stroke-width:0.8;" x="222.981818" xlink:href="#m2705c8b458" y="384.48"/>
      </g>
     </g>
     <g id="text_2">
      <!-- 200 -->
      <defs>
       <path d="M 19.1875 8.296875 
L 53.609375 8.296875 
L 53.609375 0 
L 7.328125 0 
L 7.328125 8.296875 
Q 12.9375 14.109375 22.625 23.890625 
Q 32.328125 33.6875 34.8125 36.53125 
Q 39.546875 41.84375 41.421875 45.53125 
Q 43.3125 49.21875 43.3125 52.78125 
Q 43.3125 58.59375 39.234375 62.25 
Q 35.15625 65.921875 28.609375 65.921875 
Q 23.96875 65.921875 18.8125 64.3125 
Q 13.671875 62.703125 7.8125 59.421875 
L 7.8125 69.390625 
Q 13.765625 71.78125 18.9375 73 
Q 24.125 74.21875 28.421875 74.21875 
Q 39.75 74.21875 46.484375 68.546875 
Q 53.21875 62.890625 53.21875 53.421875 
Q 53.21875 48.921875 51.53125 44.890625 
Q 49.859375 40.875 45.40625 35.40625 
Q 44.1875 33.984375 37.640625 27.21875 
Q 31.109375 20.453125 19.1875 8.296875 
z
" id="DejaVuSans-50"/>
      </defs>
      <g transform="translate(213.438068 399.078438)scale(0.1 -0.1)">
       <use xlink:href="#DejaVuSans-50"/>
       <use x="63.623047" xlink:href="#DejaVuSans-48"/>
       <use x="127.246094" xlink:href="#DejaVuSans-48"/>
      </g>
     </g>
    </g>
    <g id="xtick_3">
     <g id="line2d_3">
      <g>
       <use style="stroke:#000000;stroke-width:0.8;" x="307.527273" xlink:href="#m2705c8b458" y="384.48"/>
      </g>
     </g>
     <g id="text_3">
      <!-- 400 -->
      <defs>
       <path d="M 37.796875 64.3125 
L 12.890625 25.390625 
L 37.796875 25.390625 
z
M 35.203125 72.90625 
L 47.609375 72.90625 
L 47.609375 25.390625 
L 58.015625 25.390625 
L 58.015625 17.1875 
L 47.609375 17.1875 
L 47.609375 0 
L 37.796875 0 
L 37.796875 17.1875 
L 4.890625 17.1875 
L 4.890625 26.703125 
z
" id="DejaVuSans-52"/>
      </defs>
      <g transform="translate(297.983523 399.078438)scale(0.1 -0.1)">
       <use xlink:href="#DejaVuSans-52"/>
       <use x="63.623047" xlink:href="#DejaVuSans-48"/>
       <use x="127.246094" xlink:href="#DejaVuSans-48"/>
      </g>
     </g>
    </g>
    <g id="xtick_4">
     <g id="line2d_4">
      <g>
       <use style="stroke:#000000;stroke-width:0.8;" x="392.072727" xlink:href="#m2705c8b458" y="384.48"/>
      </g>
     </g>
     <g id="text_4">
      <!-- 600 -->
      <defs>
       <path d="M 33.015625 40.375 
Q 26.375 40.375 22.484375 35.828125 
Q 18.609375 31.296875 18.609375 23.390625 
Q 18.609375 15.53125 22.484375 10.953125 
Q 26.375 6.390625 33.015625 6.390625 
Q 39.65625 6.390625 43.53125 10.953125 
Q 47.40625 15.53125 47.40625 23.390625 
Q 47.40625 31.296875 43.53125 35.828125 
Q 39.65625 40.375 33.015625 40.375 
z
M 52.59375 71.296875 
L 52.59375 62.3125 
Q 48.875 64.0625 45.09375 64.984375 
Q 41.3125 65.921875 37.59375 65.921875 
Q 27.828125 65.921875 22.671875 59.328125 
Q 17.53125 52.734375 16.796875 39.40625 
Q 19.671875 43.65625 24.015625 45.921875 
Q 28.375 48.1875 33.59375 48.1875 
Q 44.578125 48.1875 50.953125 41.515625 
Q 57.328125 34.859375 57.328125 23.390625 
Q 57.328125 12.15625 50.6875 5.359375 
Q 44.046875 -1.421875 33.015625 -1.421875 
Q 20.359375 -1.421875 13.671875 8.265625 
Q 6.984375 17.96875 6.984375 36.375 
Q 6.984375 53.65625 15.1875 63.9375 
Q 23.390625 74.21875 37.203125 74.21875 
Q 40.921875 74.21875 44.703125 73.484375 
Q 48.484375 72.75 52.59375 71.296875 
z
" id="DejaVuSans-54"/>
      </defs>
      <g transform="translate(382.528977 399.078438)scale(0.1 -0.1)">
       <use xlink:href="#DejaVuSans-54"/>
       <use x="63.623047" xlink:href="#DejaVuSans-48"/>
       <use x="127.246094" xlink:href="#DejaVuSans-48"/>
      </g>
     </g>
    </g>
    <g id="xtick_5">
     <g id="line2d_5">
      <g>
       <use style="stroke:#000000;stroke-width:0.8;" x="476.618182" xlink:href="#m2705c8b458" y="384.48"/>
      </g>
     </g>
     <g id="text_5">
      <!-- 800 -->
      <defs>
       <path d="M 31.78125 34.625 
Q 24.75 34.625 20.71875 30.859375 
Q 16.703125 27.09375 16.703125 20.515625 
Q 16.703125 13.921875 20.71875 10.15625 
Q 24.75 6.390625 31.78125 6.390625 
Q 38.8125 6.390625 42.859375 10.171875 
Q 46.921875 13.96875 46.921875 20.515625 
Q 46.921875 27.09375 42.890625 30.859375 
Q 38.875 34.625 31.78125 34.625 
z
M 21.921875 38.8125 
Q 15.578125 40.375 12.03125 44.71875 
Q 8.5 49.078125 8.5 55.328125 
Q 8.5 64.0625 14.71875 69.140625 
Q 20.953125 74.21875 31.78125 74.21875 
Q 42.671875 74.21875 48.875 69.140625 
Q 55.078125 64.0625 55.078125 55.328125 
Q 55.078125 49.078125 51.53125 44.71875 
Q 48 40.375 41.703125 38.8125 
Q 48.828125 37.15625 52.796875 32.3125 
Q 56.78125 27.484375 56.78125 20.515625 
Q 56.78125 9.90625 50.3125 4.234375 
Q 43.84375 -1.421875 31.78125 -1.421875 
Q 19.734375 -1.421875 13.25 4.234375 
Q 6.78125 9.90625 6.78125 20.515625 
Q 6.78125 27.484375 10.78125 32.3125 
Q 14.796875 37.15625 21.921875 38.8125 
z
M 18.3125 54.390625 
Q 18.3125 48.734375 21.84375 45.5625 
Q 25.390625 42.390625 31.78125 42.390625 
Q 38.140625 42.390625 41.71875 45.5625 
Q 45.3125 48.734375 45.3125 54.390625 
Q 45.3125 60.0625 41.71875 63.234375 
Q 38.140625 66.40625 31.78125 66.40625 
Q 25.390625 66.40625 21.84375 63.234375 
Q 18.3125 60.0625 18.3125 54.390625 
z
" id="DejaVuSans-56"/>
      </defs>
      <g transform="translate(467.074432 399.078438)scale(0.1 -0.1)">
       <use xlink:href="#DejaVuSans-56"/>
       <use x="63.623047" xlink:href="#DejaVuSans-48"/>
       <use x="127.246094" xlink:href="#DejaVuSans-48"/>
      </g>
     </g>
    </g>
    <g id="xtick_6">
     <g id="line2d_6">
      <g>
       <use style="stroke:#000000;stroke-width:0.8;" x="561.163636" xlink:href="#m2705c8b458" y="384.48"/>
      </g>
     </g>
     <g id="text_6">
      <!-- 1000 -->
      <defs>
       <path d="M 12.40625 8.296875 
L 28.515625 8.296875 
L 28.515625 63.921875 
L 10.984375 60.40625 
L 10.984375 69.390625 
L 28.421875 72.90625 
L 38.28125 72.90625 
L 38.28125 8.296875 
L 54.390625 8.296875 
L 54.390625 0 
L 12.40625 0 
z
" id="DejaVuSans-49"/>
      </defs>
      <g transform="translate(548.438636 399.078438)scale(0.1 -0.1)">
       <use xlink:href="#DejaVuSans-49"/>
       <use x="63.623047" xlink:href="#DejaVuSans-48"/>
       <use x="127.246094" xlink:href="#DejaVuSans-48"/>
       <use x="190.869141" xlink:href="#DejaVuSans-48"/>
      </g>
     </g>
    </g>
    <g id="xtick_7">
     <g id="line2d_7">
      <g>
       <use style="stroke:#000000;stroke-width:0.8;" x="645.709091" xlink:href="#m2705c8b458" y="384.48"/>
      </g>
     </g>
     <g id="text_7">
      <!-- 1200 -->
      <g transform="translate(632.984091 399.078438)scale(0.1 -0.1)">
       <use xlink:href="#DejaVuSans-49"/>
       <use x="63.623047" xlink:href="#DejaVuSans-50"/>
       <use x="127.246094" xlink:href="#DejaVuSans-48"/>
       <use x="190.869141" xlink:href="#DejaVuSans-48"/>
      </g>
     </g>
    </g>
    <g id="xtick_8">
     <g id="line2d_8">
      <g>
       <use style="stroke:#000000;stroke-width:0.8;" x="730.254545" xlink:href="#m2705c8b458" y="384.48"/>
      </g>
     </g>
     <g id="text_8">
      <!-- 1400 -->
      <g transform="translate(717.529545 399.078438)scale(0.1 -0.1)">
       <use xlink:href="#DejaVuSans-49"/>
       <use x="63.623047" xlink:href="#DejaVuSans-52"/>
       <use x="127.246094" xlink:href="#DejaVuSans-48"/>
       <use x="190.869141" xlink:href="#DejaVuSans-48"/>
      </g>
     </g>
    </g>
    <g id="text_9">
     <!-- Timestamp -->
     <defs>
      <path d="M -0.296875 72.90625 
L 61.375 72.90625 
L 61.375 64.59375 
L 35.5 64.59375 
L 35.5 0 
L 25.59375 0 
L 25.59375 64.59375 
L -0.296875 64.59375 
z
" id="DejaVuSans-84"/>
      <path d="M 9.421875 54.6875 
L 18.40625 54.6875 
L 18.40625 0 
L 9.421875 0 
z
M 9.421875 75.984375 
L 18.40625 75.984375 
L 18.40625 64.59375 
L 9.421875 64.59375 
z
" id="DejaVuSans-105"/>
      <path d="M 52 44.1875 
Q 55.375 50.25 60.0625 53.125 
Q 64.75 56 71.09375 56 
Q 79.640625 56 84.28125 50.015625 
Q 88.921875 44.046875 88.921875 33.015625 
L 88.921875 0 
L 79.890625 0 
L 79.890625 32.71875 
Q 79.890625 40.578125 77.09375 44.375 
Q 74.3125 48.1875 68.609375 48.1875 
Q 61.625 48.1875 57.5625 43.546875 
Q 53.515625 38.921875 53.515625 30.90625 
L 53.515625 0 
L 44.484375 0 
L 44.484375 32.71875 
Q 44.484375 40.625 41.703125 44.40625 
Q 38.921875 48.1875 33.109375 48.1875 
Q 26.21875 48.1875 22.15625 43.53125 
Q 18.109375 38.875 18.109375 30.90625 
L 18.109375 0 
L 9.078125 0 
L 9.078125 54.6875 
L 18.109375 54.6875 
L 18.109375 46.1875 
Q 21.1875 51.21875 25.484375 53.609375 
Q 29.78125 56 35.6875 56 
Q 41.65625 56 45.828125 52.96875 
Q 50 49.953125 52 44.1875 
z
" id="DejaVuSans-109"/>
      <path d="M 56.203125 29.59375 
L 56.203125 25.203125 
L 14.890625 25.203125 
Q 15.484375 15.921875 20.484375 11.0625 
Q 25.484375 6.203125 34.421875 6.203125 
Q 39.59375 6.203125 44.453125 7.46875 
Q 49.3125 8.734375 54.109375 11.28125 
L 54.109375 2.78125 
Q 49.265625 0.734375 44.1875 -0.34375 
Q 39.109375 -1.421875 33.890625 -1.421875 
Q 20.796875 -1.421875 13.15625 6.1875 
Q 5.515625 13.8125 5.515625 26.8125 
Q 5.515625 40.234375 12.765625 48.109375 
Q 20.015625 56 32.328125 56 
Q 43.359375 56 49.78125 48.890625 
Q 56.203125 41.796875 56.203125 29.59375 
z
M 47.21875 32.234375 
Q 47.125 39.59375 43.09375 43.984375 
Q 39.0625 48.390625 32.421875 48.390625 
Q 24.90625 48.390625 20.390625 44.140625 
Q 15.875 39.890625 15.1875 32.171875 
z
" id="DejaVuSans-101"/>
      <path d="M 44.28125 53.078125 
L 44.28125 44.578125 
Q 40.484375 46.53125 36.375 47.5 
Q 32.28125 48.484375 27.875 48.484375 
Q 21.1875 48.484375 17.84375 46.4375 
Q 14.5 44.390625 14.5 40.28125 
Q 14.5 37.15625 16.890625 35.375 
Q 19.28125 33.59375 26.515625 31.984375 
L 29.59375 31.296875 
Q 39.15625 29.25 43.1875 25.515625 
Q 47.21875 21.78125 47.21875 15.09375 
Q 47.21875 7.46875 41.1875 3.015625 
Q 35.15625 -1.421875 24.609375 -1.421875 
Q 20.21875 -1.421875 15.453125 -0.5625 
Q 10.6875 0.296875 5.421875 2 
L 5.421875 11.28125 
Q 10.40625 8.6875 15.234375 7.390625 
Q 20.0625 6.109375 24.8125 6.109375 
Q 31.15625 6.109375 34.5625 8.28125 
Q 37.984375 10.453125 37.984375 14.40625 
Q 37.984375 18.0625 35.515625 20.015625 
Q 33.0625 21.96875 24.703125 23.78125 
L 21.578125 24.515625 
Q 13.234375 26.265625 9.515625 29.90625 
Q 5.8125 33.546875 5.8125 39.890625 
Q 5.8125 47.609375 11.28125 51.796875 
Q 16.75 56 26.8125 56 
Q 31.78125 56 36.171875 55.265625 
Q 40.578125 54.546875 44.28125 53.078125 
z
" id="DejaVuSans-115"/>
      <path d="M 18.3125 70.21875 
L 18.3125 54.6875 
L 36.8125 54.6875 
L 36.8125 47.703125 
L 18.3125 47.703125 
L 18.3125 18.015625 
Q 18.3125 11.328125 20.140625 9.421875 
Q 21.96875 7.515625 27.59375 7.515625 
L 36.8125 7.515625 
L 36.8125 0 
L 27.59375 0 
Q 17.1875 0 13.234375 3.875 
Q 9.28125 7.765625 9.28125 18.015625 
L 9.28125 47.703125 
L 2.6875 47.703125 
L 2.6875 54.6875 
L 9.28125 54.6875 
L 9.28125 70.21875 
z
" id="DejaVuSans-116"/>
      <path d="M 34.28125 27.484375 
Q 23.390625 27.484375 19.1875 25 
Q 14.984375 22.515625 14.984375 16.5 
Q 14.984375 11.71875 18.140625 8.90625 
Q 21.296875 6.109375 26.703125 6.109375 
Q 34.1875 6.109375 38.703125 11.40625 
Q 43.21875 16.703125 43.21875 25.484375 
L 43.21875 27.484375 
z
M 52.203125 31.203125 
L 52.203125 0 
L 43.21875 0 
L 43.21875 8.296875 
Q 40.140625 3.328125 35.546875 0.953125 
Q 30.953125 -1.421875 24.3125 -1.421875 
Q 15.921875 -1.421875 10.953125 3.296875 
Q 6 8.015625 6 15.921875 
Q 6 25.140625 12.171875 29.828125 
Q 18.359375 34.515625 30.609375 34.515625 
L 43.21875 34.515625 
L 43.21875 35.40625 
Q 43.21875 41.609375 39.140625 45 
Q 35.0625 48.390625 27.6875 48.390625 
Q 23 48.390625 18.546875 47.265625 
Q 14.109375 46.140625 10.015625 43.890625 
L 10.015625 52.203125 
Q 14.9375 54.109375 19.578125 55.046875 
Q 24.21875 56 28.609375 56 
Q 40.484375 56 46.34375 49.84375 
Q 52.203125 43.703125 52.203125 31.203125 
z
" id="DejaVuSans-97"/>
      <path d="M 18.109375 8.203125 
L 18.109375 -20.796875 
L 9.078125 -20.796875 
L 9.078125 54.6875 
L 18.109375 54.6875 
L 18.109375 46.390625 
Q 20.953125 51.265625 25.265625 53.625 
Q 29.59375 56 35.59375 56 
Q 45.5625 56 51.78125 48.09375 
Q 58.015625 40.1875 58.015625 27.296875 
Q 58.015625 14.40625 51.78125 6.484375 
Q 45.5625 -1.421875 35.59375 -1.421875 
Q 29.59375 -1.421875 25.265625 0.953125 
Q 20.953125 3.328125 18.109375 8.203125 
z
M 48.6875 27.296875 
Q 48.6875 37.203125 44.609375 42.84375 
Q 40.53125 48.484375 33.40625 48.484375 
Q 26.265625 48.484375 22.1875 42.84375 
Q 18.109375 37.203125 18.109375 27.296875 
Q 18.109375 17.390625 22.1875 11.75 
Q 26.265625 6.109375 33.40625 6.109375 
Q 40.53125 6.109375 44.609375 11.75 
Q 48.6875 17.390625 48.6875 27.296875 
z
" id="DejaVuSans-112"/>
     </defs>
     <g transform="translate(414.739062 412.756563)scale(0.1 -0.1)">
      <use xlink:href="#DejaVuSans-84"/>
      <use x="61.037109" xlink:href="#DejaVuSans-105"/>
      <use x="88.820312" xlink:href="#DejaVuSans-109"/>
      <use x="186.232422" xlink:href="#DejaVuSans-101"/>
      <use x="247.755859" xlink:href="#DejaVuSans-115"/>
      <use x="299.855469" xlink:href="#DejaVuSans-116"/>
      <use x="339.064453" xlink:href="#DejaVuSans-97"/>
      <use x="400.34375" xlink:href="#DejaVuSans-109"/>
      <use x="497.755859" xlink:href="#DejaVuSans-112"/>
     </g>
    </g>
   </g>
   <g id="matplotlib.axis_2">
    <g id="ytick_1">
     <g id="line2d_9">
      <defs>
       <path d="M 0 0 
L -3.5 0 
" id="mb24bece950" style="stroke:#000000;stroke-width:0.8;"/>
      </defs>
      <g>
       <use style="stroke:#000000;stroke-width:0.8;" x="108" xlink:href="#mb24bece950" y="370.250814"/>
      </g>
     </g>
     <g id="text_10">
      <!-- 0 -->
      <g transform="translate(94.6375 374.050033)scale(0.1 -0.1)">
       <use xlink:href="#DejaVuSans-48"/>
      </g>
     </g>
    </g>
    <g id="ytick_2">
     <g id="line2d_10">
      <g>
       <use style="stroke:#000000;stroke-width:0.8;" x="108" xlink:href="#mb24bece950" y="307.517431"/>
      </g>
     </g>
     <g id="text_11">
      <!-- 5000 -->
      <defs>
       <path d="M 10.796875 72.90625 
L 49.515625 72.90625 
L 49.515625 64.59375 
L 19.828125 64.59375 
L 19.828125 46.734375 
Q 21.96875 47.46875 24.109375 47.828125 
Q 26.265625 48.1875 28.421875 48.1875 
Q 40.625 48.1875 47.75 41.5 
Q 54.890625 34.8125 54.890625 23.390625 
Q 54.890625 11.625 47.5625 5.09375 
Q 40.234375 -1.421875 26.90625 -1.421875 
Q 22.3125 -1.421875 17.546875 -0.640625 
Q 12.796875 0.140625 7.71875 1.703125 
L 7.71875 11.625 
Q 12.109375 9.234375 16.796875 8.0625 
Q 21.484375 6.890625 26.703125 6.890625 
Q 35.15625 6.890625 40.078125 11.328125 
Q 45.015625 15.765625 45.015625 23.390625 
Q 45.015625 31 40.078125 35.4375 
Q 35.15625 39.890625 26.703125 39.890625 
Q 22.75 39.890625 18.8125 39.015625 
Q 14.890625 38.140625 10.796875 36.28125 
z
" id="DejaVuSans-53"/>
      </defs>
      <g transform="translate(75.55 311.31665)scale(0.1 -0.1)">
       <use xlink:href="#DejaVuSans-53"/>
       <use x="63.623047" xlink:href="#DejaVuSans-48"/>
       <use x="127.246094" xlink:href="#DejaVuSans-48"/>
       <use x="190.869141" xlink:href="#DejaVuSans-48"/>
      </g>
     </g>
    </g>
    <g id="ytick_3">
     <g id="line2d_11">
      <g>
       <use style="stroke:#000000;stroke-width:0.8;" x="108" xlink:href="#mb24bece950" y="244.784048"/>
      </g>
     </g>
     <g id="text_12">
      <!-- 10000 -->
      <g transform="translate(69.1875 248.583267)scale(0.1 -0.1)">
       <use xlink:href="#DejaVuSans-49"/>
       <use x="63.623047" xlink:href="#DejaVuSans-48"/>
       <use x="127.246094" xlink:href="#DejaVuSans-48"/>
       <use x="190.869141" xlink:href="#DejaVuSans-48"/>
       <use x="254.492188" xlink:href="#DejaVuSans-48"/>
      </g>
     </g>
    </g>
    <g id="ytick_4">
     <g id="line2d_12">
      <g>
       <use style="stroke:#000000;stroke-width:0.8;" x="108" xlink:href="#mb24bece950" y="182.050665"/>
      </g>
     </g>
     <g id="text_13">
      <!-- 15000 -->
      <g transform="translate(69.1875 185.849883)scale(0.1 -0.1)">
       <use xlink:href="#DejaVuSans-49"/>
       <use x="63.623047" xlink:href="#DejaVuSans-53"/>
       <use x="127.246094" xlink:href="#DejaVuSans-48"/>
       <use x="190.869141" xlink:href="#DejaVuSans-48"/>
       <use x="254.492188" xlink:href="#DejaVuSans-48"/>
      </g>
     </g>
    </g>
    <g id="ytick_5">
     <g id="line2d_13">
      <g>
       <use style="stroke:#000000;stroke-width:0.8;" x="108" xlink:href="#mb24bece950" y="119.317282"/>
      </g>
     </g>
     <g id="text_14">
      <!-- 20000 -->
      <g transform="translate(69.1875 123.1165)scale(0.1 -0.1)">
       <use xlink:href="#DejaVuSans-50"/>
       <use x="63.623047" xlink:href="#DejaVuSans-48"/>
       <use x="127.246094" xlink:href="#DejaVuSans-48"/>
       <use x="190.869141" xlink:href="#DejaVuSans-48"/>
       <use x="254.492188" xlink:href="#DejaVuSans-48"/>
      </g>
     </g>
    </g>
    <g id="ytick_6">
     <g id="line2d_14">
      <g>
       <use style="stroke:#000000;stroke-width:0.8;" x="108" xlink:href="#mb24bece950" y="56.583898"/>
      </g>
     </g>
     <g id="text_15">
      <!-- 25000 -->
      <g transform="translate(69.1875 60.383117)scale(0.1 -0.1)">
       <use xlink:href="#DejaVuSans-50"/>
       <use x="63.623047" xlink:href="#DejaVuSans-53"/>
       <use x="127.246094" xlink:href="#DejaVuSans-48"/>
       <use x="190.869141" xlink:href="#DejaVuSans-48"/>
       <use x="254.492188" xlink:href="#DejaVuSans-48"/>
      </g>
     </g>
    </g>
    <g id="text_16">
     <!-- Value -->
     <defs>
      <path d="M 28.609375 0 
L 0.78125 72.90625 
L 11.078125 72.90625 
L 34.1875 11.53125 
L 57.328125 72.90625 
L 67.578125 72.90625 
L 39.796875 0 
z
" id="DejaVuSans-86"/>
      <path d="M 9.421875 75.984375 
L 18.40625 75.984375 
L 18.40625 0 
L 9.421875 0 
z
" id="DejaVuSans-108"/>
      <path d="M 8.5 21.578125 
L 8.5 54.6875 
L 17.484375 54.6875 
L 17.484375 21.921875 
Q 17.484375 14.15625 20.5 10.265625 
Q 23.53125 6.390625 29.59375 6.390625 
Q 36.859375 6.390625 41.078125 11.03125 
Q 45.3125 15.671875 45.3125 23.6875 
L 45.3125 54.6875 
L 54.296875 54.6875 
L 54.296875 0 
L 45.3125 0 
L 45.3125 8.40625 
Q 42.046875 3.421875 37.71875 1 
Q 33.40625 -1.421875 27.6875 -1.421875 
Q 18.265625 -1.421875 13.375 4.4375 
Q 8.5 10.296875 8.5 21.578125 
z
M 31.109375 56 
z
" id="DejaVuSans-117"/>
     </defs>
     <g transform="translate(63.107813 232.273281)rotate(-90)scale(0.1 -0.1)">
      <use xlink:href="#DejaVuSans-86"/>
      <use x="68.298828" xlink:href="#DejaVuSans-97"/>
      <use x="129.578125" xlink:href="#DejaVuSans-108"/>
      <use x="157.361328" xlink:href="#DejaVuSans-117"/>
      <use x="220.740234" xlink:href="#DejaVuSans-101"/>
     </g>
    </g>
   </g>
   <g id="line2d_15">
    <path clip-path="url(#pff63cc074f)" d="M 138.436364 220.594055 
L 138.859091 286.978521 
L 139.281818 324.781658 
L 139.704545 280.98121 
L 140.127273 340.25171 
L 140.55 329.348648 
L 140.972727 338.056042 
L 141.395455 331.45649 
L 141.818182 333.827812 
L 142.240909 337.077401 
L 142.663636 335.433786 
L 143.086364 332.573144 
L 143.509091 341.857685 
L 143.931818 335.822733 
L 144.354545 327.052606 
L 144.777273 336.562987 
L 145.622727 247.556863 
L 146.045455 205.826617 
L 146.468182 143.206154 
L 146.890909 226.227513 
L 147.313636 229.452009 
L 147.736364 99.982853 
L 148.159091 275.523406 
L 148.581818 280.429156 
L 149.004545 309.286512 
L 149.85 331.218103 
L 150.272727 324.066497 
L 150.695455 269.099507 
L 151.118182 334.630799 
L 151.540909 329.009888 
L 151.963636 319.888454 
L 152.386364 327.692487 
L 152.809091 323.401524 
L 153.231818 320.591068 
L 153.654545 331.469037 
L 154.077273 345.220194 
L 154.5 333.213025 
L 154.922727 331.56941 
L 155.345455 338.808842 
L 155.768182 326.600926 
L 156.190909 337.466348 
L 156.613636 336.788827 
L 157.459091 325.898312 
L 157.881818 322.937296 
L 158.304545 302.862614 
L 158.727273 272.75059 
L 159.15 300.666945 
L 159.572727 305.647976 
L 159.995455 285.146706 
L 160.418182 321.268588 
L 160.840909 251.923107 
L 161.263636 237.193308 
L 161.686364 299.675758 
L 162.109091 222.12475 
L 162.531818 329.135355 
L 162.954545 230.016609 
L 163.8 329.034981 
L 164.222727 328.169261 
L 164.645455 308.659178 
L 165.068182 343.463659 
L 165.490909 306.01183 
L 165.913636 294.945661 
L 166.336364 343.551486 
L 166.759091 260.730874 
L 167.181818 341.945512 
L 167.604545 352.723107 
L 168.027273 294.2305 
L 168.45 334.781359 
L 168.872727 348.51997 
L 169.295455 351.054399 
L 169.718182 301.206453 
L 170.140909 345.897715 
L 170.563636 349.072024 
L 170.986364 338.219149 
L 171.409091 338.482629 
L 171.831818 347.553876 
L 172.254545 343.676953 
L 172.677273 324.856938 
L 173.1 341.694578 
L 173.522727 343.200179 
L 174.368182 347.792263 
L 174.790909 343.011979 
L 175.213636 349.598984 
L 175.636364 336.036027 
L 176.059091 342.070978 
L 176.904545 332.535504 
L 177.75 338.859029 
L 178.172727 344.981807 
L 178.595455 347.152382 
L 179.018182 342.936699 
L 179.440909 325.973592 
L 179.863636 332.573144 
L 180.286364 342.485019 
L 180.709091 331.469037 
L 181.131818 330.201822 
L 181.554545 335.42124 
L 181.977273 338.394802 
L 182.4 331.23065 
L 182.822727 306.852457 
L 183.245455 343.80242 
L 183.668182 331.56941 
L 184.090909 337.905482 
L 184.513636 326.550739 
L 184.936364 322.73655 
L 185.359091 329.499208 
L 185.781818 302.04708 
L 186.204545 296.049768 
L 186.627273 209.13894 
L 187.05 210.857834 
L 187.472727 298.910411 
L 187.895455 348.871277 
L 188.318182 348.36941 
L 188.740909 345.546408 
L 189.163636 337.177774 
L 189.586364 344.70578 
L 190.009091 329.423928 
L 190.431818 325.421538 
L 190.854545 345.533861 
L 191.7 335.471426 
L 192.122727 335.145213 
L 192.545455 336.901748 
L 193.390909 330.590769 
L 193.813636 346.663062 
L 194.236364 302.285467 
L 194.659091 352.723107 
L 195.081818 346.575235 
L 195.504545 330.465302 
L 195.927273 343.225273 
L 196.35 330.277102 
L 196.772727 322.109216 
L 197.195455 349.925198 
L 197.618182 298.885317 
L 198.040909 352.10832 
L 198.463636 351.731919 
L 198.886364 347.666796 
L 199.309091 316.300105 
L 199.731818 351.581359 
L 200.154545 352.3718 
L 200.577273 354.667842 
L 201 350.226318 
L 201.845455 66.96 
L 202.268182 254.219149 
L 202.690909 257.330724 
L 203.113636 229.426916 
L 203.536364 229.941329 
L 203.959091 242.462913 
L 204.381818 219.251561 
L 204.804545 248.911904 
L 205.65 344.29174 
L 206.072727 348.74581 
L 206.495455 350.903839 
L 206.918182 351.857386 
L 207.763636 345.069634 
L 208.186364 339.197789 
L 208.609091 340.841404 
L 209.031818 336.299507 
L 209.454545 329.587035 
L 209.877273 333.087558 
L 210.3 334.680986 
L 210.722727 333.614518 
L 211.145455 330.013622 
L 211.568182 335.621987 
L 211.990909 325.509365 
L 212.836364 334.555519 
L 213.259091 331.60705 
L 213.681818 336.02348 
L 214.104545 333.576878 
L 214.527273 329.787782 
L 214.95 344.944167 
L 215.372727 340.916684 
L 216.218182 347.779716 
L 216.640909 340.628111 
L 217.063636 258.949246 
L 217.486364 328.733861 
L 217.909091 328.508021 
L 218.331818 349.536251 
L 218.754545 342.585392 
L 219.177273 347.403316 
L 219.6 346.763435 
L 220.022727 349.423331 
L 220.445455 349.611531 
L 220.868182 342.986886 
L 221.713636 339.109963 
L 222.136364 338.695922 
L 222.559091 336.638267 
L 222.981818 340.239164 
L 223.404545 341.280538 
L 223.827273 339.737296 
L 224.25 270.416908 
L 224.672727 253.052308 
L 225.095455 339.473816 
L 225.518182 335.258133 
L 225.940909 338.143869 
L 226.363636 276.062913 
L 226.786364 328.181807 
L 227.209091 326.048872 
L 227.631818 327.918327 
L 228.054545 318.257386 
L 228.477273 320.578521 
L 228.9 326.425273 
L 229.322727 328.846781 
L 229.745455 324.028857 
L 230.168182 325.923406 
L 230.590909 318.345213 
L 231.013636 320.315041 
L 231.436364 242.462913 
L 231.859091 207.532965 
L 232.281818 334.781359 
L 232.704545 329.311008 
L 233.127273 329.975982 
L 233.55 336.09876 
L 233.972727 338.997043 
L 234.395455 338.721016 
L 234.818182 341.518925 
L 235.240909 341.167618 
L 235.663636 342.259178 
L 236.086364 341.129978 
L 236.509091 345.006901 
L 236.931818 343.814966 
L 237.354545 345.282928 
L 237.777273 345.257834 
L 238.2 345.069634 
L 238.622727 344.128633 
L 239.045455 344.2541 
L 239.468182 344.931621 
L 239.890909 340.966871 
L 240.313636 340.10115 
L 240.736364 337.830202 
L 241.159091 331.619597 
L 241.581818 206.692338 
L 242.004545 336.839014 
L 242.427273 336.901748 
L 242.85 333.614518 
L 243.272727 339.009589 
L 243.695455 342.171352 
L 244.118182 344.279193 
L 244.540909 341.907872 
L 244.963636 346.161195 
L 245.386364 298.960597 
L 245.809091 349.122211 
L 246.231818 347.403316 
L 246.654545 343.350739 
L 247.077273 343.187633 
L 247.5 344.906527 
L 247.922727 338.306975 
L 248.345455 339.963137 
L 248.768182 337.704735 
L 249.613636 353.262614 
L 250.036364 353.036774 
L 250.459091 346.010635 
L 250.881818 349.925198 
L 251.304545 341.556565 
L 251.727273 347.792263 
L 252.15 350.866199 
L 252.572727 352.622733 
L 252.995455 351.041852 
L 253.418182 351.368066 
L 253.840909 350.000478 
L 254.263636 350.376878 
L 254.686364 349.661718 
L 255.109091 348.231397 
L 255.531818 350.703092 
L 255.954545 345.044541 
L 256.377273 281.043943 
L 256.8 334.869186 
L 257.222727 343.53894 
L 257.645455 300.165078 
L 258.068182 333.275758 
L 258.490909 348.657984 
L 258.913636 348.432143 
L 259.336364 350.615265 
L 259.759091 197.28233 
L 260.181818 342.171352 
L 260.604545 346.387035 
L 261.027273 341.920418 
L 261.45 342.861419 
L 261.872727 341.004511 
L 262.295455 331.782704 
L 262.718182 331.732517 
L 263.140909 335.095026 
L 263.563636 333.514145 
L 263.986364 337.165228 
L 264.409091 346.223928 
L 264.831818 343.676953 
L 265.254545 342.334459 
L 265.677273 342.296819 
L 266.1 332.13401 
L 266.522727 344.944167 
L 266.945455 343.501299 
L 267.368182 332.773891 
L 267.790909 285.84932 
L 268.213636 118.439014 
L 269.059091 334.179119 
L 269.481818 318.219746 
L 269.904545 334.066199 
L 270.327273 210.707274 
L 271.172727 349.699358 
L 271.595455 343.777326 
L 272.018182 345.107274 
L 272.440909 335.64708 
L 272.863636 336.713547 
L 273.709091 337.503988 
L 274.131818 339.160149 
L 274.554545 343.011979 
L 274.977273 340.06351 
L 275.4 340.17643 
L 275.822727 344.10354 
L 276.245455 340.966871 
L 276.668182 344.166273 
L 277.090909 341.832591 
L 277.513636 338.444989 
L 277.936364 346.474862 
L 278.359091 234.169559 
L 278.781818 341.970605 
L 279.204545 349.473518 
L 279.627273 347.064556 
L 280.05 343.551486 
L 280.895455 339.160149 
L 281.318182 341.318178 
L 281.740909 334.756266 
L 282.163636 339.963137 
L 282.586364 338.043495 
L 283.009091 337.202868 
L 283.431818 336.036027 
L 283.854545 331.04245 
L 284.277273 333.313398 
L 284.7 340.339537 
L 285.122727 339.335803 
L 285.545455 336.801374 
L 285.968182 341.079791 
L 286.390909 336.876654 
L 286.813636 338.319522 
L 287.236364 105.641404 
L 287.659091 337.077401 
L 288.081818 338.156415 
L 288.504545 178.939089 
L 288.927273 199.365078 
L 289.35 176.417207 
L 289.772727 299.562838 
L 290.195455 347.453503 
L 290.618182 351.644093 
L 291.040909 354.027961 
L 291.886364 354.830948 
L 292.309091 346.901449 
L 292.731818 351.430799 
L 293.154545 350.238865 
L 294 353.927588 
L 294.422727 358.331471 
L 294.845455 359.096819 
L 295.268182 361.0541 
L 295.690909 360.313846 
L 296.113636 362.509515 
L 296.536364 363.023928 
L 296.959091 361.995101 
L 297.381818 361.46814 
L 297.804545 363.601075 
L 298.227273 363.663809 
L 298.65 364.86829 
L 299.495455 365.370157 
L 299.918182 366.424078 
L 300.340909 365.483077 
L 300.763636 365.257237 
L 301.186364 366.700105 
L 301.609091 367.114145 
L 302.031818 366.248424 
L 302.454545 366.260971 
L 302.877273 367.816759 
L 303.3 367.653652 
L 303.722727 367.829305 
L 304.145455 367.377625 
L 304.568182 365.947304 
L 304.990909 367.540732 
L 305.413636 367.101598 
L 305.836364 367.339985 
L 306.259091 366.787931 
L 306.681818 368.218252 
L 307.104545 368.293532 
L 307.527273 366.863211 
L 307.95 368.94596 
L 308.795455 368.042599 
L 309.218182 368.83304 
L 309.640909 368.883226 
L 310.063636 368.306079 
L 310.486364 368.594653 
L 310.909091 369.234533 
L 311.331818 369.234533 
L 311.754545 369.36 
L 313.022727 367.917132 
L 313.445455 368.883226 
L 313.868182 369.121613 
L 314.290909 368.368813 
L 315.136364 368.004959 
L 315.559091 368.343719 
L 315.981818 368.067692 
L 316.404545 368.205706 
L 316.827273 367.314892 
L 317.25 367.917132 
L 317.672727 367.214518 
L 318.095455 368.017506 
L 318.518182 367.465452 
L 318.940909 367.302345 
L 319.363636 367.013771 
L 319.786364 368.243346 
L 320.209091 365.50817 
L 320.631818 368.306079 
L 321.054545 368.017506 
L 321.9 369.071426 
L 322.322727 368.644839 
L 322.745455 368.695026 
L 323.168182 368.971053 
L 323.590909 368.858133 
L 324.013636 367.816759 
L 324.436364 366.361344 
L 324.859091 367.565825 
L 325.281818 367.879492 
L 325.704545 365.897117 
L 326.127273 367.201972 
L 326.55 367.176878 
L 326.972727 364.178223 
L 327.395455 364.767916 
L 327.818182 367.465452 
L 328.240909 366.700105 
L 328.663636 366.813025 
L 329.086364 368.117879 
L 329.509091 368.280986 
L 329.931818 368.255892 
L 330.354545 368.393906 
L 330.777273 368.205706 
L 331.2 367.854399 
L 331.622727 366.010037 
L 332.468182 367.528185 
L 332.890909 366.486811 
L 333.313636 367.829305 
L 334.159091 366.072771 
L 334.581818 366.976131 
L 335.004545 365.922211 
L 335.427273 366.436624 
L 335.85 365.73401 
L 336.272727 367.214518 
L 336.695455 365.495624 
L 337.118182 365.457984 
L 337.540909 364.454249 
L 337.963636 364.554623 
L 338.386364 367.804212 
L 338.809091 366.825571 
L 339.231818 368.155519 
L 339.654545 367.917132 
L 340.5 368.920866 
L 340.922727 368.418999 
L 341.345455 368.75776 
L 341.768182 368.331173 
L 342.190909 368.971053 
L 343.459091 368.644839 
L 343.881818 367.101598 
L 344.304545 367.691292 
L 344.727273 367.954772 
L 345.15 366.913398 
L 345.572727 367.666199 
L 345.995455 367.503092 
L 346.418182 366.160597 
L 346.840909 367.327438 
L 347.686364 366.712651 
L 348.109091 367.866945 
L 348.531818 368.080239 
L 348.954545 367.214518 
L 349.377273 367.477999 
L 349.8 368.544466 
L 350.222727 366.649918 
L 351.068182 368.644839 
L 351.490909 368.431546 
L 351.913636 368.494279 
L 352.336364 368.243346 
L 352.759091 367.603465 
L 353.181818 367.252158 
L 353.604545 366.637371 
L 354.027273 367.666199 
L 354.45 368.004959 
L 354.872727 367.026318 
L 355.295455 366.787931 
L 355.718182 367.565825 
L 356.140909 366.348798 
L 356.563636 367.239612 
L 356.986364 366.813025 
L 357.409091 360.539686 
L 357.831818 366.173144 
L 358.254545 364.065302 
L 358.677273 363.488155 
L 359.1 366.035131 
L 359.522727 364.266049 
L 359.945455 365.997491 
L 360.368182 363.601075 
L 360.790909 362.195848 
L 361.213636 362.409141 
L 361.636364 366.085317 
L 362.059091 367.829305 
L 362.481818 366.951038 
L 362.904545 367.540732 
L 363.327273 367.666199 
L 363.75 368.356266 
L 364.595455 367.703839 
L 365.018182 367.829305 
L 365.440909 367.440358 
L 365.863636 367.578372 
L 366.286364 367.992412 
L 366.709091 367.452905 
L 367.131818 367.565825 
L 367.554545 365.759104 
L 367.977273 367.051412 
L 368.4 366.800478 
L 368.822727 368.306079 
L 369.245455 368.381359 
L 369.668182 368.142972 
L 370.090909 368.644839 
L 370.513636 367.866945 
L 370.936364 365.708917 
L 371.359091 367.904586 
L 371.781818 367.553279 
L 372.204545 368.331173 
L 372.627273 367.528185 
L 373.05 368.707573 
L 374.318182 367.553279 
L 374.740909 367.565825 
L 375.163636 366.662465 
L 375.586364 367.264705 
L 376.009091 368.280986 
L 376.431818 367.063958 
L 376.854545 366.248424 
L 377.277273 366.148051 
L 377.7 365.28233 
L 378.122727 366.649918 
L 378.545455 364.86829 
L 378.968182 366.800478 
L 379.390909 364.893383 
L 379.813636 365.834384 
L 380.236364 362.835728 
L 380.659091 365.20705 
L 381.081818 365.420344 
L 381.504545 365.997491 
L 381.927273 366.273518 
L 382.35 367.314892 
L 382.772727 367.452905 
L 383.195455 367.967319 
L 383.618182 368.90832 
L 384.040909 367.264705 
L 384.463636 367.728932 
L 385.309091 367.314892 
L 385.731818 366.398984 
L 386.577273 368.431546 
L 387 367.942226 
L 387.422727 367.929679 
L 387.845455 368.067692 
L 388.268182 366.712651 
L 388.690909 367.239612 
L 389.113636 366.436624 
L 389.536364 366.110411 
L 389.959091 367.114145 
L 390.381818 366.336251 
L 390.804545 367.641105 
L 391.227273 367.164332 
L 391.65 368.142972 
L 392.072727 367.465452 
L 392.495455 368.406453 
L 392.918182 367.666199 
L 393.340909 368.94596 
L 393.763636 368.845586 
L 394.186364 368.607199 
L 394.609091 368.90832 
L 395.031818 366.461718 
L 395.454545 366.913398 
L 395.877273 366.938491 
L 396.3 366.612278 
L 396.722727 367.377625 
L 397.145455 365.495624 
L 397.568182 367.339985 
L 397.990909 367.264705 
L 398.413636 367.540732 
L 398.836364 368.105332 
L 399.259091 367.979866 
L 399.681818 367.992412 
L 400.527273 367.666199 
L 400.95 367.515639 
L 401.372727 367.666199 
L 401.795455 367.653652 
L 402.218182 367.942226 
L 402.640909 368.895773 
L 403.063636 368.632293 
L 403.486364 368.669933 
L 404.331818 368.004959 
L 405.177273 367.013771 
L 405.6 367.352532 
L 406.022727 366.173144 
L 406.445455 365.972397 
L 406.868182 366.536998 
L 407.290909 366.549544 
L 407.713636 367.277252 
L 408.136364 366.474264 
L 408.559091 367.528185 
L 408.981818 367.139238 
L 409.404545 366.160597 
L 409.827273 365.959851 
L 410.672727 367.540732 
L 411.095455 367.063958 
L 411.518182 367.603465 
L 411.940909 368.506826 
L 412.363636 368.845586 
L 412.786364 367.302345 
L 413.209091 368.268439 
L 413.631818 368.883226 
L 414.054545 368.456639 
L 414.477273 367.339985 
L 414.9 368.531919 
L 415.322727 367.917132 
L 415.745455 366.913398 
L 416.168182 365.47053 
L 416.590909 365.884571 
L 417.013636 364.90593 
L 417.436364 366.612278 
L 418.281818 367.377625 
L 418.704545 367.804212 
L 419.127273 367.917132 
L 419.55 367.741479 
L 419.972727 366.787931 
L 420.395455 366.662465 
L 420.818182 365.897117 
L 421.240909 363.663809 
L 421.663636 366.486811 
L 422.086364 367.741479 
L 422.509091 364.065302 
L 422.931818 366.060224 
L 423.354545 364.303689 
L 423.777273 367.176878 
L 424.2 366.700105 
L 424.622727 367.477999 
L 425.045455 367.565825 
L 425.468182 367.139238 
L 425.890909 367.227065 
L 426.313636 363.224675 
L 426.736364 365.370157 
L 427.159091 366.511904 
L 427.581818 364.278596 
L 428.004545 365.570904 
L 428.427273 365.65873 
L 429.272727 366.298611 
L 429.695455 367.239612 
L 430.540909 365.307423 
L 430.963636 367.967319 
L 431.386364 368.205706 
L 431.809091 368.293532 
L 432.231818 367.678745 
L 432.654545 368.494279 
L 433.077273 365.897117 
L 433.5 368.306079 
L 433.922727 367.716385 
L 434.345455 366.348798 
L 434.768182 367.339985 
L 435.190909 367.390172 
L 435.613636 365.608544 
L 436.036364 366.449171 
L 436.459091 366.925945 
L 436.881818 366.787931 
L 437.304545 365.909664 
L 437.727273 366.976131 
L 438.15 366.612278 
L 438.572727 367.277252 
L 438.995455 367.076505 
L 439.418182 367.942226 
L 439.840909 368.469186 
L 440.263636 367.365078 
L 440.686364 367.101598 
L 441.109091 367.089052 
L 441.531818 363.726542 
L 441.954545 367.477999 
L 442.377273 367.352532 
L 442.8 367.365078 
L 443.222727 367.089052 
L 443.645455 367.628559 
L 444.068182 367.026318 
L 444.490909 362.271128 
L 444.913636 364.391516 
L 445.336364 363.814369 
L 445.759091 361.292487 
L 446.181818 366.110411 
L 446.604545 366.637371 
L 447.027273 365.759104 
L 447.45 367.063958 
L 447.872727 367.427812 
L 448.295455 365.759104 
L 448.718182 366.173144 
L 449.140909 366.386438 
L 449.563636 364.291143 
L 449.986364 365.09413 
L 450.409091 363.864556 
L 450.831818 365.972397 
L 451.254545 366.185691 
L 451.677273 365.58345 
L 452.1 364.253503 
L 452.522727 366.373891 
L 452.945455 366.863211 
L 453.368182 365.972397 
L 453.790909 366.235878 
L 454.213636 366.863211 
L 454.636364 366.386438 
L 455.059091 366.135504 
L 455.481818 361.54342 
L 455.904545 364.542076 
L 456.327273 365.984944 
L 456.75 364.253503 
L 457.172727 364.441703 
L 457.595455 364.931023 
L 458.018182 362.032741 
L 458.440909 362.258581 
L 459.286364 364.065302 
L 459.709091 362.346408 
L 460.131818 363.099208 
L 460.554545 361.719074 
L 460.977273 362.321314 
L 461.4 362.258581 
L 461.822727 362.459328 
L 462.245455 361.443047 
L 462.668182 362.823181 
L 463.090909 363.588529 
L 463.936364 365.959851 
L 464.359091 366.386438 
L 464.781818 365.420344 
L 465.204545 365.69637 
L 465.627273 366.373891 
L 466.05 365.62109 
L 466.472727 364.027662 
L 466.895455 365.28233 
L 467.318182 365.13177 
L 467.740909 363.588529 
L 468.163636 361.104287 
L 468.586364 359.774339 
L 469.009091 364.178223 
L 469.431818 363.538342 
L 469.854545 362.672621 
L 470.277273 363.237222 
L 470.7 364.79301 
L 471.122727 364.56717 
L 471.545455 366.060224 
L 471.968182 366.047677 
L 472.390909 364.993757 
L 472.813636 364.956117 
L 473.236364 365.834384 
L 473.659091 365.520717 
L 474.081818 364.742823 
L 474.504545 365.483077 
L 474.927273 364.931023 
L 475.35 359.987633 
L 475.772727 364.190769 
L 476.195455 365.671277 
L 476.618182 363.036475 
L 477.463636 365.646184 
L 477.886364 365.533264 
L 478.309091 364.454249 
L 478.731818 359.673966 
L 479.577273 363.726542 
L 480 363.425422 
L 480.422727 360.263659 
L 480.845455 365.194503 
L 481.268182 363.814369 
L 481.690909 364.629903 
L 482.113636 364.516983 
L 482.536364 362.986288 
L 482.959091 364.529529 
L 483.381818 363.337595 
L 483.804545 365.784197 
L 484.227273 367.440358 
L 484.65 366.298611 
L 485.072727 367.352532 
L 485.495455 366.373891 
L 486.763636 365.181957 
L 487.186364 365.483077 
L 487.609091 365.959851 
L 488.031818 366.976131 
L 488.454545 365.884571 
L 488.877273 362.898462 
L 489.3 363.864556 
L 489.722727 366.235878 
L 490.145455 365.156863 
L 490.568182 364.56717 
L 490.990909 365.382704 
L 491.413636 366.787931 
L 491.836364 366.787931 
L 492.259091 365.997491 
L 492.681818 365.50817 
L 493.104545 366.411531 
L 493.527273 366.248424 
L 494.372727 367.992412 
L 494.795455 366.486811 
L 495.218182 367.590919 
L 495.640909 367.189425 
L 496.063636 364.140583 
L 496.486364 365.43289 
L 496.909091 361.50578 
L 497.331818 362.509515 
L 498.177273 366.361344 
L 498.6 364.316236 
L 499.022727 363.952382 
L 499.445455 364.002569 
L 499.868182 366.010037 
L 500.290909 366.649918 
L 500.713636 366.411531 
L 501.136364 366.649918 
L 501.559091 367.804212 
L 501.981818 365.633637 
L 502.404545 366.649918 
L 502.827273 366.825571 
L 504.095455 365.633637 
L 504.518182 363.475609 
L 504.940909 362.158208 
L 505.363636 362.145661 
L 505.786364 363.111755 
L 506.209091 361.342674 
L 506.631818 362.622435 
L 507.054545 363.086662 
L 507.477273 361.907274 
L 507.9 362.597341 
L 508.322727 364.228409 
L 508.745455 364.931023 
L 509.168182 364.931023 
L 509.590909 363.764182 
L 510.859091 366.436624 
L 511.704545 367.038865 
L 512.127273 367.440358 
L 512.55 367.289798 
L 512.972727 365.558357 
L 513.395455 366.499358 
L 513.818182 365.119223 
L 514.240909 366.323704 
L 514.663636 365.872024 
L 515.086364 366.160597 
L 515.509091 365.54581 
L 515.931818 364.705183 
L 516.354545 363.187035 
L 516.777273 364.68009 
L 517.2 364.040209 
L 517.622727 362.572248 
L 518.045455 365.043943 
L 519.313636 365.194503 
L 519.736364 365.671277 
L 520.159091 364.479343 
L 520.581818 365.759104 
L 521.004545 365.345063 
L 521.427273 365.558357 
L 521.85 366.461718 
L 522.272727 365.457984 
L 522.695455 366.298611 
L 523.118182 366.198237 
L 523.540909 366.311158 
L 523.963636 367.089052 
L 524.386364 366.511904 
L 524.809091 366.725198 
L 525.231818 366.185691 
L 525.654545 366.373891 
L 526.077273 365.984944 
L 526.5 364.968663 
L 526.922727 365.50817 
L 527.345455 365.181957 
L 527.768182 364.165676 
L 528.190909 365.28233 
L 529.036364 364.68009 
L 529.459091 364.90593 
L 529.881818 364.040209 
L 530.304545 363.789276 
L 530.727273 364.893383 
L 531.15 364.993757 
L 531.995455 363.249768 
L 532.418182 362.772995 
L 533.263636 364.278596 
L 533.686364 366.035131 
L 534.109091 364.705183 
L 534.531818 365.520717 
L 534.954545 364.592263 
L 535.377273 365.219597 
L 535.8 365.307423 
L 536.222727 366.173144 
L 536.645455 365.834384 
L 537.068182 366.122957 
L 537.490909 365.846931 
L 537.913636 360.815713 
L 538.336364 362.823181 
L 538.759091 363.387782 
L 539.181818 363.350142 
L 539.604545 366.223331 
L 540.027273 366.624824 
L 540.45 365.194503 
L 540.872727 366.273518 
L 541.295455 366.775385 
L 541.718182 365.495624 
L 542.140909 366.474264 
L 542.563636 365.54581 
L 542.986364 365.947304 
L 543.831818 367.201972 
L 544.254545 366.386438 
L 544.677273 365.922211 
L 545.1 364.266049 
L 545.522727 364.780463 
L 545.945455 362.785541 
L 546.368182 361.631247 
L 546.790909 361.39286 
L 547.213636 361.681434 
L 547.636364 364.429156 
L 548.059091 362.409141 
L 548.481818 363.764182 
L 548.904545 363.550889 
L 549.327273 361.31758 
L 549.75 364.341329 
L 550.172727 363.312502 
L 550.595455 364.115489 
L 551.018182 362.446781 
L 551.440909 364.780463 
L 551.863636 366.072771 
L 552.286364 365.257237 
L 552.709091 366.286064 
L 553.131818 365.181957 
L 553.554545 365.006303 
L 553.977273 365.934757 
L 554.4 365.232143 
L 554.822727 366.085317 
L 555.245455 364.968663 
L 555.668182 365.232143 
L 556.090909 361.769261 
L 556.513636 363.626169 
L 556.936364 364.278596 
L 557.359091 364.341329 
L 557.781818 360.966273 
L 558.204545 362.597341 
L 558.627273 365.307423 
L 559.05 362.421688 
L 559.472727 360.953727 
L 559.895455 363.776729 
L 560.318182 364.077849 
L 560.740909 364.592263 
L 561.163636 364.893383 
L 561.586364 361.656341 
L 562.009091 365.608544 
L 562.431818 365.746557 
L 562.854545 366.549544 
L 563.7 365.219597 
L 564.122727 364.818103 
L 564.545455 363.701449 
L 564.968182 362.120568 
L 565.390909 363.877102 
L 565.813636 361.819447 
L 566.236364 362.007647 
L 566.659091 362.409141 
L 567.081818 364.228409 
L 567.504545 362.772995 
L 567.927273 363.111755 
L 568.35 363.852009 
L 568.772727 362.371501 
L 569.195455 362.045288 
L 569.618182 362.973742 
L 570.040909 363.400329 
L 570.463636 362.371501 
L 570.886364 363.061568 
L 571.309091 364.542076 
L 571.731818 362.697715 
L 572.154545 361.50578 
L 573 363.350142 
L 573.422727 363.814369 
L 573.845455 364.83065 
L 574.268182 365.16941 
L 574.690909 363.036475 
L 575.113636 362.609888 
L 575.536364 360.476953 
L 575.959091 361.342674 
L 576.381818 361.58106 
L 576.804545 361.27994 
L 577.227273 363.864556 
L 577.65 362.409141 
L 578.072727 362.246034 
L 578.495455 360.276206 
L 578.918182 354.818402 
L 579.340909 356.687857 
L 579.763636 359.937446 
L 580.186364 364.592263 
L 580.609091 364.86829 
L 581.031818 365.006303 
L 581.454545 363.613622 
L 581.877273 366.411531 
L 582.3 365.533264 
L 582.722727 362.283674 
L 583.145455 364.692636 
L 583.568182 364.328783 
L 583.990909 364.592263 
L 584.413636 364.027662 
L 584.836364 362.308768 
L 585.259091 343.664406 
L 585.681818 348.457237 
L 586.104545 359.623779 
L 586.527273 362.396594 
L 586.95 364.240956 
L 587.372727 363.626169 
L 587.795455 364.692636 
L 588.640909 362.622435 
L 589.063636 363.575982 
L 589.486364 363.927289 
L 589.909091 363.588529 
L 590.331818 355.960149 
L 590.754545 359.473219 
L 591.177273 358.858432 
L 591.6 364.253503 
L 592.022727 364.79301 
L 592.445455 364.730276 
L 592.868182 362.409141 
L 593.290909 364.128036 
L 593.713636 364.240956 
L 594.136364 365.24469 
L 594.559091 364.140583 
L 595.404545 363.111755 
L 595.827273 355.495922 
L 596.25 351.895026 
L 596.672727 354.856042 
L 597.095455 362.936102 
L 597.518182 364.429156 
L 597.940909 363.601075 
L 598.363636 351.945213 
L 598.786364 351.568813 
L 599.209091 354.655295 
L 599.631818 361.819447 
L 600.054545 364.353876 
L 600.477273 363.463062 
L 600.9 365.16941 
L 601.745455 363.136848 
L 602.168182 365.54581 
L 602.590909 365.633637 
L 603.013636 366.449171 
L 603.436364 365.382704 
L 603.859091 365.959851 
L 604.281818 364.441703 
L 604.704545 360.727886 
L 605.127273 352.585093 
L 605.55 350.878745 
L 605.972727 356.035429 
L 606.818182 362.697715 
L 607.240909 363.174488 
L 607.663636 359.774339 
L 608.086364 363.525795 
L 608.509091 363.425422 
L 608.931818 355.132069 
L 609.354545 352.961494 
L 609.777273 353.112054 
L 610.2 357.528484 
L 610.622727 358.845885 
L 611.045455 361.844541 
L 611.468182 362.660075 
L 612.313636 365.16941 
L 612.736364 364.629903 
L 613.581818 364.98121 
L 614.004545 364.027662 
L 614.427273 361.267394 
L 614.85 361.141927 
L 615.272727 361.970007 
L 615.695455 363.463062 
L 616.118182 362.258581 
L 616.540909 363.550889 
L 616.963636 362.597341 
L 617.386364 361.0541 
L 617.809091 361.970007 
L 618.231818 363.337595 
L 618.654545 362.484421 
L 619.077273 360.301299 
L 619.5 360.953727 
L 619.922727 361.380314 
L 620.345455 360.90354 
L 620.768182 361.31758 
L 621.190909 363.199582 
L 621.613636 363.814369 
L 622.036364 365.181957 
L 622.881818 363.538342 
L 623.304545 364.454249 
L 623.727273 364.165676 
L 624.15 363.739089 
L 624.572727 364.002569 
L 624.995455 364.065302 
L 625.418182 361.39286 
L 625.840909 362.710261 
L 626.263636 362.007647 
L 626.686364 361.530874 
L 627.109091 354.830948 
L 627.531818 351.970306 
L 627.954545 352.14596 
L 628.377273 357.252457 
L 628.8 356.56239 
L 629.222727 359.573592 
L 629.645455 359.498312 
L 630.068182 357.039164 
L 630.490909 361.756714 
L 630.913636 362.597341 
L 631.336364 363.061568 
L 631.759091 364.165676 
L 632.604545 363.713996 
L 633.027273 363.049022 
L 633.45 363.575982 
L 633.872727 362.484421 
L 634.295455 362.484421 
L 634.718182 362.735355 
L 635.140909 362.747901 
L 635.563636 359.535952 
L 635.986364 358.469485 
L 636.409091 350.991665 
L 636.831818 353.174787 
L 637.254545 359.310112 
L 638.1 360.4895 
L 638.522727 360.050366 
L 638.945455 357.842151 
L 639.368182 357.35283 
L 639.790909 357.992711 
L 640.213636 355.947603 
L 640.636364 358.469485 
L 641.059091 359.172099 
L 641.481818 358.707872 
L 641.904545 358.431845 
L 642.327273 363.563435 
L 642.75 363.538342 
L 643.172727 363.977476 
L 643.595455 364.918476 
L 644.018182 363.839462 
L 644.440909 363.136848 
L 644.863636 362.898462 
L 645.286364 362.082928 
L 645.709091 362.597341 
L 646.131818 361.693981 
L 646.554545 362.045288 
L 646.977273 363.274862 
L 647.4 360.238566 
L 647.822727 364.027662 
L 648.245455 362.108021 
L 649.090909 361.744167 
L 649.513636 362.622435 
L 649.936364 361.405407 
L 650.359091 356.462016 
L 650.781818 361.217207 
L 651.204545 361.46814 
L 651.627273 361.957461 
L 652.05 359.598686 
L 652.472727 361.4305 
L 652.895455 358.670232 
L 653.318182 358.983898 
L 653.740909 359.485765 
L 654.163636 358.808245 
L 654.586364 359.272472 
L 655.009091 358.193458 
L 655.431818 358.896072 
L 655.854545 357.415564 
L 656.277273 359.673966 
L 656.7 358.494578 
L 657.122727 359.661419 
L 657.545455 360.351486 
L 658.390909 357.980164 
L 658.813636 358.695325 
L 659.236364 359.975086 
L 659.659091 354.881135 
L 660.081818 354.968962 
L 660.504545 359.598686 
L 660.927273 361.844541 
L 661.35 360.33894 
L 661.772727 355.897416 
L 662.195455 359.699059 
L 662.618182 352.798387 
L 663.463636 357.628857 
L 663.886364 357.955071 
L 664.731818 360.94118 
L 665.154545 359.962539 
L 665.577273 361.003913 
L 666 362.697715 
L 666.422727 363.927289 
L 666.845455 362.358954 
L 667.268182 362.070381 
L 667.690909 357.440657 
L 668.113636 357.16463 
L 668.959091 355.659029 
L 669.381818 357.478297 
L 669.804545 354.943869 
L 670.227273 356.211083 
L 670.65 355.508469 
L 671.072727 360.100553 
L 671.495455 358.143271 
L 671.918182 361.003913 
L 672.763636 363.023928 
L 673.186364 359.899806 
L 673.609091 363.036475 
L 674.031818 362.158208 
L 674.454545 361.631247 
L 675.3 359.423032 
L 675.722727 359.711606 
L 676.568182 361.116833 
L 676.990909 360.138193 
L 677.413636 354.994055 
L 677.836364 346.098462 
L 678.259091 347.039462 
L 678.681818 347.516236 
L 679.104545 357.35283 
L 679.527273 359.021538 
L 679.95 359.423032 
L 680.795455 355.709216 
L 681.218182 343.91534 
L 681.640909 342.723406 
L 682.063636 356.850963 
L 682.486364 361.907274 
L 683.754545 363.538342 
L 684.177273 363.525795 
L 684.6 361.995101 
L 685.022727 358.808245 
L 685.445455 360.41422 
L 685.868182 357.879791 
L 686.290909 360.991367 
L 686.713636 361.104287 
L 687.136364 352.760747 
L 687.559091 352.472173 
L 687.981818 349.084571 
L 688.404545 353.488454 
L 688.827273 353.877401 
L 689.25 357.23991 
L 689.672727 354.981509 
L 690.095455 353.551187 
L 690.518182 332.610784 
L 690.940909 348.607797 
L 691.363636 356.512203 
L 691.786364 354.592562 
L 692.209091 356.763137 
L 692.631818 357.628857 
L 693.054545 357.290097 
L 693.477273 354.479642 
L 693.9 354.241255 
L 694.322727 358.268738 
L 694.745455 360.56478 
L 695.168182 360.012726 
L 695.590909 359.147005 
L 696.013636 360.552233 
L 696.436364 360.8659 
L 696.859091 361.693981 
L 697.281818 359.661419 
L 697.704545 361.079193 
L 698.127273 357.955071 
L 698.55 350.803465 
L 698.972727 345.972995 
L 699.395455 351.167319 
L 699.818182 348.29413 
L 700.240909 349.849918 
L 700.663636 350.427065 
L 701.086364 357.403017 
L 701.509091 354.366721 
L 701.931818 355.721763 
L 702.354545 358.306378 
L 702.777273 358.281285 
L 703.2 358.657685 
L 704.045455 361.58106 
L 704.468182 362.848275 
L 704.890909 361.2423 
L 705.313636 357.641404 
L 705.736364 359.498312 
L 706.159091 357.152084 
L 706.581818 356.22363 
L 707.004545 355.947603 
L 707.427273 356.800777 
L 707.85 356.286363 
L 708.272727 353.262614 
L 708.695455 344.467394 
L 709.118182 345.383301 
L 709.540909 345.747155 
L 709.963636 351.920119 
L 710.386364 355.659029 
L 710.809091 357.227364 
L 711.231818 356.41183 
L 711.654545 359.372845 
L 712.077273 356.71295 
L 712.922727 360.991367 
L 713.345455 359.385392 
L 713.768182 360.627513 
L 714.190909 360.97882 
L 714.613636 359.460672 
L 715.036364 360.175833 
L 715.459091 360.64006 
L 715.881818 361.593607 
L 716.727273 360.313846 
L 717.15 356.173443 
L 717.572727 355.847229 
L 717.995455 356.44947 
L 718.418182 358.758058 
L 718.840909 359.648872 
L 719.263636 358.482031 
L 719.686364 353.425721 
L 720.109091 340.490097 
L 720.531818 344.2541 
L 720.954545 355.345362 
L 721.377273 358.783152 
L 721.8 359.962539 
L 722.222727 358.770605 
L 722.645455 361.12938 
L 723.068182 361.693981 
L 723.490909 360.288753 
L 723.913636 362.195848 
L 724.336364 361.179567 
L 724.759091 362.384048 
L 725.181818 362.572248 
L 725.604545 362.220941 
L 726.027273 362.384048 
L 726.45 360.000179 
L 726.872727 359.924899 
L 727.295455 362.158208 
L 727.718182 360.050366 
L 728.140909 356.286363 
L 728.563636 362.195848 
L 728.986364 360.702793 
L 729.409091 360.025273 
L 729.831818 358.406751 
L 730.254545 359.887259 
L 730.677273 359.134459 
L 731.1 361.417954 
L 731.522727 357.829604 
L 731.945455 357.741777 
L 732.368182 359.862166 
L 732.790909 359.523406 
L 733.213636 360.45186 
L 733.636364 360.665153 
L 734.059091 358.632591 
L 734.481818 358.419298 
L 734.904545 359.548499 
L 735.327273 361.568514 
L 735.75 360.025273 
L 736.172727 360.589873 
L 736.595455 360.71534 
L 737.018182 361.706527 
L 737.440909 360.878447 
L 738.286364 356.41183 
L 738.709091 358.067991 
L 739.131818 360.200926 
L 739.554545 361.16702 
L 739.977273 358.293831 
L 740.4 360.062913 
L 740.822727 360.439313 
L 741.245455 357.528484 
L 741.668182 361.029007 
L 742.090909 359.749246 
L 742.513636 360.100553 
L 742.936364 359.435579 
L 743.359091 360.552233 
L 743.781818 360.539686 
L 744.204545 361.104287 
L 744.627273 360.890993 
L 745.05 361.869634 
L 745.472727 361.957461 
L 745.895455 360.439313 
L 746.318182 360.37658 
L 746.318182 360.37658 
" style="fill:none;stroke:#1f77b4;stroke-linecap:square;stroke-width:1.5;"/>
   </g>
   <g id="line2d_16">
    <path clip-path="url(#pff63cc074f)" d="M 747.163636 384.48 
L 747.163636 51.84 
" style="fill:none;stroke:#808080;stroke-linecap:square;"/>
   </g>
   <g id="patch_65">
    <path d="M 108 384.48 
L 108 51.84 
" style="fill:none;stroke:#000000;stroke-linecap:square;stroke-linejoin:miter;stroke-width:0.8;"/>
   </g>
   <g id="patch_66">
    <path d="M 777.6 384.48 
L 777.6 51.84 
" style="fill:none;stroke:#000000;stroke-linecap:square;stroke-linejoin:miter;stroke-width:0.8;"/>
   </g>
   <g id="patch_67">
    <path d="M 108 384.48 
L 777.6 384.48 
" style="fill:none;stroke:#000000;stroke-linecap:square;stroke-linejoin:miter;stroke-width:0.8;"/>
   </g>
   <g id="patch_68">
    <path d="M 108 51.84 
L 777.6 51.84 
" style="fill:none;stroke:#000000;stroke-linecap:square;stroke-linejoin:miter;stroke-width:0.8;"/>
   </g>
   <g id="text_17">
    <!-- real_48.csv -->
    <defs>
     <path d="M 41.109375 46.296875 
Q 39.59375 47.171875 37.8125 47.578125 
Q 36.03125 48 33.890625 48 
Q 26.265625 48 22.1875 43.046875 
Q 18.109375 38.09375 18.109375 28.8125 
L 18.109375 0 
L 9.078125 0 
L 9.078125 54.6875 
L 18.109375 54.6875 
L 18.109375 46.1875 
Q 20.953125 51.171875 25.484375 53.578125 
Q 30.03125 56 36.53125 56 
Q 37.453125 56 38.578125 55.875 
Q 39.703125 55.765625 41.0625 55.515625 
z
" id="DejaVuSans-114"/>
     <path d="M 50.984375 -16.609375 
L 50.984375 -23.578125 
L -0.984375 -23.578125 
L -0.984375 -16.609375 
z
" id="DejaVuSans-95"/>
     <path d="M 10.6875 12.40625 
L 21 12.40625 
L 21 0 
L 10.6875 0 
z
" id="DejaVuSans-46"/>
     <path d="M 48.78125 52.59375 
L 48.78125 44.1875 
Q 44.96875 46.296875 41.140625 47.34375 
Q 37.3125 48.390625 33.40625 48.390625 
Q 24.65625 48.390625 19.8125 42.84375 
Q 14.984375 37.3125 14.984375 27.296875 
Q 14.984375 17.28125 19.8125 11.734375 
Q 24.65625 6.203125 33.40625 6.203125 
Q 37.3125 6.203125 41.140625 7.25 
Q 44.96875 8.296875 48.78125 10.40625 
L 48.78125 2.09375 
Q 45.015625 0.34375 40.984375 -0.53125 
Q 36.96875 -1.421875 32.421875 -1.421875 
Q 20.0625 -1.421875 12.78125 6.34375 
Q 5.515625 14.109375 5.515625 27.296875 
Q 5.515625 40.671875 12.859375 48.328125 
Q 20.21875 56 33.015625 56 
Q 37.15625 56 41.109375 55.140625 
Q 45.0625 54.296875 48.78125 52.59375 
z
" id="DejaVuSans-99"/>
     <path d="M 2.984375 54.6875 
L 12.5 54.6875 
L 29.59375 8.796875 
L 46.6875 54.6875 
L 56.203125 54.6875 
L 35.6875 0 
L 23.484375 0 
z
" id="DejaVuSans-118"/>
    </defs>
    <g transform="translate(408.781875 45.84)scale(0.12 -0.12)">
     <use xlink:href="#DejaVuSans-114"/>
     <use x="41.082031" xlink:href="#DejaVuSans-101"/>
     <use x="102.605469" xlink:href="#DejaVuSans-97"/>
     <use x="163.884766" xlink:href="#DejaVuSans-108"/>
     <use x="191.667969" xlink:href="#DejaVuSans-95"/>
     <use x="241.667969" xlink:href="#DejaVuSans-52"/>
     <use x="305.291016" xlink:href="#DejaVuSans-56"/>
     <use x="368.914062" xlink:href="#DejaVuSans-46"/>
     <use x="400.701172" xlink:href="#DejaVuSans-99"/>
     <use x="455.681641" xlink:href="#DejaVuSans-115"/>
     <use x="507.78125" xlink:href="#DejaVuSans-118"/>
    </g>
   </g>
   <g id="legend_1">
    <g id="patch_69">
     <path d="M 115 74.518125 
L 174.315625 74.518125 
Q 176.315625 74.518125 176.315625 72.518125 
L 176.315625 58.84 
Q 176.315625 56.84 174.315625 56.84 
L 115 56.84 
Q 113 56.84 113 58.84 
L 113 72.518125 
Q 113 74.518125 115 74.518125 
z
" style="fill:#ffffff;opacity:0.8;stroke:#cccccc;stroke-linejoin:miter;"/>
    </g>
    <g id="line2d_17">
     <path d="M 117 64.938438 
L 137 64.938438 
" style="fill:none;stroke:#1f77b4;stroke-linecap:square;stroke-width:1.5;"/>
    </g>
    <g id="line2d_18"/>
    <g id="text_18">
     <!-- value -->
     <g transform="translate(145 68.438438)scale(0.1 -0.1)">
      <use xlink:href="#DejaVuSans-118"/>
      <use x="59.179688" xlink:href="#DejaVuSans-97"/>
      <use x="120.458984" xlink:href="#DejaVuSans-108"/>
      <use x="148.242188" xlink:href="#DejaVuSans-117"/>
      <use x="211.621094" xlink:href="#DejaVuSans-101"/>
     </g>
    </g>
   </g>
  </g>
 </g>
 <defs>
  <clipPath id="pff63cc074f">
   <rect height="332.64" width="669.6" x="108" y="51.84"/>
  </clipPath>
 </defs>
</svg>
