<?xml version="1.0" encoding="utf-8" standalone="no"?>
<!DOCTYPE svg PUBLIC "-//W3C//DTD SVG 1.1//EN"
  "http://www.w3.org/Graphics/SVG/1.1/DTD/svg11.dtd">
<!-- Created with matplotlib (https://matplotlib.org/) -->
<svg height="432pt" version="1.1" viewBox="0 0 864 432" width="864pt" xmlns="http://www.w3.org/2000/svg" xmlns:xlink="http://www.w3.org/1999/xlink">
 <defs>
  <style type="text/css">
*{stroke-linecap:butt;stroke-linejoin:round;}
  </style>
 </defs>
 <g id="figure_1">
  <g id="patch_1">
   <path d="M 0 432 
L 864 432 
L 864 0 
L 0 0 
z
" style="fill:#ffffff;"/>
  </g>
  <g id="axes_1">
   <g id="patch_2">
    <path d="M 108 384.48 
L 777.6 384.48 
L 777.6 51.84 
L 108 51.84 
z
" style="fill:#ffffff;"/>
   </g>
   <g id="patch_3">
    <path clip-path="url(#pbb2fdc0788)" d="M 138.436364 384.48 
L 138.436364 51.84 
L 374.096118 51.84 
L 374.096118 384.48 
z
" style="fill:#0000ff;opacity:0.05;"/>
   </g>
   <g id="patch_4">
    <path clip-path="url(#pbb2fdc0788)" d="M 374.096118 384.48 
L 374.096118 51.84 
L 745.713422 51.84 
L 745.713422 384.48 
z
" style="fill:#ff0000;opacity:0.08;"/>
   </g>
   <g id="patch_5">
    <path clip-path="url(#pbb2fdc0788)" d="M 138.436364 384.48 
L 138.436364 51.84 
L 147.5002 51.84 
L 147.5002 384.48 
z
" style="fill:#008000;opacity:0.04;"/>
   </g>
   <g id="patch_6">
    <path clip-path="url(#pbb2fdc0788)" d="M 138.436364 384.48 
L 138.436364 371.1744 
L 147.5002 371.1744 
L 147.5002 384.48 
z
" style="fill:#ffe500;"/>
   </g>
   <g id="patch_7">
    <path clip-path="url(#pbb2fdc0788)" d="M 156.564037 384.48 
L 156.564037 51.84 
L 165.627874 51.84 
L 165.627874 384.48 
z
" style="fill:#008000;opacity:0.04;"/>
   </g>
   <g id="patch_8">
    <path clip-path="url(#pbb2fdc0788)" d="M 174.69171 384.48 
L 174.69171 51.84 
L 183.755547 51.84 
L 183.755547 384.48 
z
" style="fill:#008000;opacity:0.04;"/>
   </g>
   <g id="patch_9">
    <path clip-path="url(#pbb2fdc0788)" d="M 192.819384 384.48 
L 192.819384 51.84 
L 201.883221 51.84 
L 201.883221 384.48 
z
" style="fill:#008000;opacity:0.04;"/>
   </g>
   <g id="patch_10">
    <path clip-path="url(#pbb2fdc0788)" d="M 210.947057 384.48 
L 210.947057 51.84 
L 220.010894 51.84 
L 220.010894 384.48 
z
" style="fill:#008000;opacity:0.04;"/>
   </g>
   <g id="patch_11">
    <path clip-path="url(#pbb2fdc0788)" d="M 446.606811 384.48 
L 446.606811 371.1744 
L 455.670648 371.1744 
L 455.670648 384.48 
z
" style="fill:#ff6600;"/>
   </g>
   <g id="patch_12">
    <path clip-path="url(#pbb2fdc0788)" d="M 229.074731 384.48 
L 229.074731 51.84 
L 238.138567 51.84 
L 238.138567 384.48 
z
" style="fill:#008000;opacity:0.04;"/>
   </g>
   <g id="patch_13">
    <path clip-path="url(#pbb2fdc0788)" d="M 247.202404 384.48 
L 247.202404 51.84 
L 256.266241 51.84 
L 256.266241 384.48 
z
" style="fill:#008000;opacity:0.04;"/>
   </g>
   <g id="patch_14">
    <path clip-path="url(#pbb2fdc0788)" d="M 265.330077 384.48 
L 265.330077 51.84 
L 274.393914 51.84 
L 274.393914 384.48 
z
" style="fill:#008000;opacity:0.04;"/>
   </g>
   <g id="patch_15">
    <path clip-path="url(#pbb2fdc0788)" d="M 283.457751 384.48 
L 283.457751 51.84 
L 292.521588 51.84 
L 292.521588 384.48 
z
" style="fill:#008000;opacity:0.04;"/>
   </g>
   <g id="patch_16">
    <path clip-path="url(#pbb2fdc0788)" d="M 301.585424 384.48 
L 301.585424 51.84 
L 310.649261 51.84 
L 310.649261 384.48 
z
" style="fill:#008000;opacity:0.04;"/>
   </g>
   <g id="patch_17">
    <path clip-path="url(#pbb2fdc0788)" d="M 319.713098 384.48 
L 319.713098 51.84 
L 328.776934 51.84 
L 328.776934 384.48 
z
" style="fill:#008000;opacity:0.04;"/>
   </g>
   <g id="patch_18">
    <path clip-path="url(#pbb2fdc0788)" d="M 564.436689 384.48 
L 564.436689 371.1744 
L 573.500525 371.1744 
L 573.500525 384.48 
z
" style="fill:#ff6600;"/>
   </g>
   <g id="patch_19">
    <path clip-path="url(#pbb2fdc0788)" d="M 337.840771 384.48 
L 337.840771 51.84 
L 346.904608 51.84 
L 346.904608 384.48 
z
" style="fill:#008000;opacity:0.04;"/>
   </g>
   <g id="patch_20">
    <path clip-path="url(#pbb2fdc0788)" d="M 355.968444 384.48 
L 355.968444 51.84 
L 365.032281 51.84 
L 365.032281 384.48 
z
" style="fill:#008000;opacity:0.04;"/>
   </g>
   <g id="patch_21">
    <path clip-path="url(#pbb2fdc0788)" d="M 355.968444 384.48 
L 355.968444 371.1744 
L 365.032281 371.1744 
L 365.032281 384.48 
z
" style="fill:#ffe500;"/>
   </g>
   <g id="patch_22">
    <path clip-path="url(#pbb2fdc0788)" d="M 591.628199 384.48 
L 591.628199 371.1744 
L 600.692035 371.1744 
L 600.692035 384.48 
z
" style="fill:#ff6600;"/>
   </g>
   <g id="patch_23">
    <path clip-path="url(#pbb2fdc0788)" d="M 374.096118 384.48 
L 374.096118 51.84 
L 383.159955 51.84 
L 383.159955 384.48 
z
" style="fill:#008000;opacity:0.04;"/>
   </g>
   <g id="patch_24">
    <path clip-path="url(#pbb2fdc0788)" d="M 392.223791 384.48 
L 392.223791 51.84 
L 401.287628 51.84 
L 401.287628 384.48 
z
" style="fill:#008000;opacity:0.04;"/>
   </g>
   <g id="patch_25">
    <path clip-path="url(#pbb2fdc0788)" d="M 410.351465 384.48 
L 410.351465 51.84 
L 419.415301 51.84 
L 419.415301 384.48 
z
" style="fill:#008000;opacity:0.04;"/>
   </g>
   <g id="patch_26">
    <path clip-path="url(#pbb2fdc0788)" d="M 428.479138 384.48 
L 428.479138 51.84 
L 437.542975 51.84 
L 437.542975 384.48 
z
" style="fill:#008000;opacity:0.04;"/>
   </g>
   <g id="patch_27">
    <path clip-path="url(#pbb2fdc0788)" d="M 446.606811 384.48 
L 446.606811 51.84 
L 455.670648 51.84 
L 455.670648 384.48 
z
" style="fill:#008000;opacity:0.04;"/>
   </g>
   <g id="patch_28">
    <path clip-path="url(#pbb2fdc0788)" d="M 446.606811 371.1744 
L 446.606811 51.84 
L 455.670648 51.84 
L 455.670648 371.1744 
z
" style="fill:#008000;opacity:0.5;"/>
   </g>
   <g id="patch_29">
    <path clip-path="url(#pbb2fdc0788)" d="M 464.734485 384.48 
L 464.734485 51.84 
L 473.798322 51.84 
L 473.798322 384.48 
z
" style="fill:#008000;opacity:0.04;"/>
   </g>
   <g id="patch_30">
    <path clip-path="url(#pbb2fdc0788)" d="M 482.862158 384.48 
L 482.862158 51.84 
L 491.925995 51.84 
L 491.925995 384.48 
z
" style="fill:#008000;opacity:0.04;"/>
   </g>
   <g id="patch_31">
    <path clip-path="url(#pbb2fdc0788)" d="M 500.989832 384.48 
L 500.989832 51.84 
L 510.053668 51.84 
L 510.053668 384.48 
z
" style="fill:#008000;opacity:0.04;"/>
   </g>
   <g id="patch_32">
    <path clip-path="url(#pbb2fdc0788)" d="M 519.117505 384.48 
L 519.117505 51.84 
L 528.181342 51.84 
L 528.181342 384.48 
z
" style="fill:#008000;opacity:0.04;"/>
   </g>
   <g id="patch_33">
    <path clip-path="url(#pbb2fdc0788)" d="M 537.245178 384.48 
L 537.245178 51.84 
L 546.309015 51.84 
L 546.309015 384.48 
z
" style="fill:#008000;opacity:0.04;"/>
   </g>
   <g id="patch_34">
    <path clip-path="url(#pbb2fdc0788)" d="M 555.372852 384.48 
L 555.372852 51.84 
L 564.436689 51.84 
L 564.436689 384.48 
z
" style="fill:#008000;opacity:0.04;"/>
   </g>
   <g id="patch_35">
    <path clip-path="url(#pbb2fdc0788)" d="M 564.436689 371.1744 
L 564.436689 51.84 
L 573.500525 51.84 
L 573.500525 371.1744 
z
" style="fill:#008000;opacity:0.5;"/>
   </g>
   <g id="patch_36">
    <path clip-path="url(#pbb2fdc0788)" d="M 573.500525 384.48 
L 573.500525 51.84 
L 582.564362 51.84 
L 582.564362 384.48 
z
" style="fill:#008000;opacity:0.04;"/>
   </g>
   <g id="patch_37">
    <path clip-path="url(#pbb2fdc0788)" d="M 591.628199 384.48 
L 591.628199 51.84 
L 600.692035 51.84 
L 600.692035 384.48 
z
" style="fill:#008000;opacity:0.04;"/>
   </g>
   <g id="patch_38">
    <path clip-path="url(#pbb2fdc0788)" d="M 591.628199 371.1744 
L 591.628199 51.84 
L 600.692035 51.84 
L 600.692035 371.1744 
z
" style="fill:#008000;opacity:0.5;"/>
   </g>
   <g id="patch_39">
    <path clip-path="url(#pbb2fdc0788)" d="M 609.755872 384.48 
L 609.755872 51.84 
L 618.819709 51.84 
L 618.819709 384.48 
z
" style="fill:#008000;opacity:0.04;"/>
   </g>
   <g id="patch_40">
    <path clip-path="url(#pbb2fdc0788)" d="M 627.883545 384.48 
L 627.883545 51.84 
L 636.947382 51.84 
L 636.947382 384.48 
z
" style="fill:#008000;opacity:0.04;"/>
   </g>
   <g id="patch_41">
    <path clip-path="url(#pbb2fdc0788)" d="M 646.011219 384.48 
L 646.011219 51.84 
L 655.075055 51.84 
L 655.075055 384.48 
z
" style="fill:#008000;opacity:0.04;"/>
   </g>
   <g id="patch_42">
    <path clip-path="url(#pbb2fdc0788)" d="M 646.011219 371.1744 
L 646.011219 51.84 
L 655.075055 51.84 
L 655.075055 371.1744 
z
" style="fill:#008000;opacity:0.5;"/>
   </g>
   <g id="patch_43">
    <path clip-path="url(#pbb2fdc0788)" d="M 664.138892 384.48 
L 664.138892 51.84 
L 673.202729 51.84 
L 673.202729 384.48 
z
" style="fill:#008000;opacity:0.04;"/>
   </g>
   <g id="patch_44">
    <path clip-path="url(#pbb2fdc0788)" d="M 682.266566 384.48 
L 682.266566 51.84 
L 691.330402 51.84 
L 691.330402 384.48 
z
" style="fill:#008000;opacity:0.04;"/>
   </g>
   <g id="patch_45">
    <path clip-path="url(#pbb2fdc0788)" d="M 682.266566 371.1744 
L 682.266566 51.84 
L 691.330402 51.84 
L 691.330402 371.1744 
z
" style="fill:#008000;opacity:0.5;"/>
   </g>
   <g id="patch_46">
    <path clip-path="url(#pbb2fdc0788)" d="M 700.394239 384.48 
L 700.394239 51.84 
L 709.458076 51.84 
L 709.458076 384.48 
z
" style="fill:#008000;opacity:0.04;"/>
   </g>
   <g id="patch_47">
    <path clip-path="url(#pbb2fdc0788)" d="M 709.458076 371.1744 
L 709.458076 51.84 
L 718.521912 51.84 
L 718.521912 371.1744 
z
" style="fill:#008000;opacity:0.5;"/>
   </g>
   <g id="patch_48">
    <path clip-path="url(#pbb2fdc0788)" d="M 718.521912 384.48 
L 718.521912 51.84 
L 727.585749 51.84 
L 727.585749 384.48 
z
" style="fill:#008000;opacity:0.04;"/>
   </g>
   <g id="patch_49">
    <path clip-path="url(#pbb2fdc0788)" d="M 736.649586 384.48 
L 736.649586 51.84 
L 745.713422 51.84 
L 745.713422 384.48 
z
" style="fill:#008000;opacity:0.04;"/>
   </g>
   <g id="matplotlib.axis_1">
    <g id="xtick_1">
     <g id="line2d_1">
      <defs>
       <path d="M 0 0 
L 0 3.5 
" id="mdbca4e2836" style="stroke:#000000;stroke-width:0.8;"/>
      </defs>
      <g>
       <use style="stroke:#000000;stroke-width:0.8;" x="138.436364" xlink:href="#mdbca4e2836" y="384.48"/>
      </g>
     </g>
     <g id="text_1">
      <!-- 0 -->
      <defs>
       <path d="M 31.78125 66.40625 
Q 24.171875 66.40625 20.328125 58.90625 
Q 16.5 51.421875 16.5 36.375 
Q 16.5 21.390625 20.328125 13.890625 
Q 24.171875 6.390625 31.78125 6.390625 
Q 39.453125 6.390625 43.28125 13.890625 
Q 47.125 21.390625 47.125 36.375 
Q 47.125 51.421875 43.28125 58.90625 
Q 39.453125 66.40625 31.78125 66.40625 
z
M 31.78125 74.21875 
Q 44.046875 74.21875 50.515625 64.515625 
Q 56.984375 54.828125 56.984375 36.375 
Q 56.984375 17.96875 50.515625 8.265625 
Q 44.046875 -1.421875 31.78125 -1.421875 
Q 19.53125 -1.421875 13.0625 8.265625 
Q 6.59375 17.96875 6.59375 36.375 
Q 6.59375 54.828125 13.0625 64.515625 
Q 19.53125 74.21875 31.78125 74.21875 
z
" id="DejaVuSans-48"/>
      </defs>
      <g transform="translate(135.255114 399.078438)scale(0.1 -0.1)">
       <use xlink:href="#DejaVuSans-48"/>
      </g>
     </g>
    </g>
    <g id="xtick_2">
     <g id="line2d_2">
      <g>
       <use style="stroke:#000000;stroke-width:0.8;" x="229.074731" xlink:href="#mdbca4e2836" y="384.48"/>
      </g>
     </g>
     <g id="text_2">
      <!-- 250 -->
      <defs>
       <path d="M 19.1875 8.296875 
L 53.609375 8.296875 
L 53.609375 0 
L 7.328125 0 
L 7.328125 8.296875 
Q 12.9375 14.109375 22.625 23.890625 
Q 32.328125 33.6875 34.8125 36.53125 
Q 39.546875 41.84375 41.421875 45.53125 
Q 43.3125 49.21875 43.3125 52.78125 
Q 43.3125 58.59375 39.234375 62.25 
Q 35.15625 65.921875 28.609375 65.921875 
Q 23.96875 65.921875 18.8125 64.3125 
Q 13.671875 62.703125 7.8125 59.421875 
L 7.8125 69.390625 
Q 13.765625 71.78125 18.9375 73 
Q 24.125 74.21875 28.421875 74.21875 
Q 39.75 74.21875 46.484375 68.546875 
Q 53.21875 62.890625 53.21875 53.421875 
Q 53.21875 48.921875 51.53125 44.890625 
Q 49.859375 40.875 45.40625 35.40625 
Q 44.1875 33.984375 37.640625 27.21875 
Q 31.109375 20.453125 19.1875 8.296875 
z
" id="DejaVuSans-50"/>
       <path d="M 10.796875 72.90625 
L 49.515625 72.90625 
L 49.515625 64.59375 
L 19.828125 64.59375 
L 19.828125 46.734375 
Q 21.96875 47.46875 24.109375 47.828125 
Q 26.265625 48.1875 28.421875 48.1875 
Q 40.625 48.1875 47.75 41.5 
Q 54.890625 34.8125 54.890625 23.390625 
Q 54.890625 11.625 47.5625 5.09375 
Q 40.234375 -1.421875 26.90625 -1.421875 
Q 22.3125 -1.421875 17.546875 -0.640625 
Q 12.796875 0.140625 7.71875 1.703125 
L 7.71875 11.625 
Q 12.109375 9.234375 16.796875 8.0625 
Q 21.484375 6.890625 26.703125 6.890625 
Q 35.15625 6.890625 40.078125 11.328125 
Q 45.015625 15.765625 45.015625 23.390625 
Q 45.015625 31 40.078125 35.4375 
Q 35.15625 39.890625 26.703125 39.890625 
Q 22.75 39.890625 18.8125 39.015625 
Q 14.890625 38.140625 10.796875 36.28125 
z
" id="DejaVuSans-53"/>
      </defs>
      <g transform="translate(219.530981 399.078438)scale(0.1 -0.1)">
       <use xlink:href="#DejaVuSans-50"/>
       <use x="63.623047" xlink:href="#DejaVuSans-53"/>
       <use x="127.246094" xlink:href="#DejaVuSans-48"/>
      </g>
     </g>
    </g>
    <g id="xtick_3">
     <g id="line2d_3">
      <g>
       <use style="stroke:#000000;stroke-width:0.8;" x="319.713098" xlink:href="#mdbca4e2836" y="384.48"/>
      </g>
     </g>
     <g id="text_3">
      <!-- 500 -->
      <g transform="translate(310.169348 399.078438)scale(0.1 -0.1)">
       <use xlink:href="#DejaVuSans-53"/>
       <use x="63.623047" xlink:href="#DejaVuSans-48"/>
       <use x="127.246094" xlink:href="#DejaVuSans-48"/>
      </g>
     </g>
    </g>
    <g id="xtick_4">
     <g id="line2d_4">
      <g>
       <use style="stroke:#000000;stroke-width:0.8;" x="410.351465" xlink:href="#mdbca4e2836" y="384.48"/>
      </g>
     </g>
     <g id="text_4">
      <!-- 750 -->
      <defs>
       <path d="M 8.203125 72.90625 
L 55.078125 72.90625 
L 55.078125 68.703125 
L 28.609375 0 
L 18.3125 0 
L 43.21875 64.59375 
L 8.203125 64.59375 
z
" id="DejaVuSans-55"/>
      </defs>
      <g transform="translate(400.807715 399.078438)scale(0.1 -0.1)">
       <use xlink:href="#DejaVuSans-55"/>
       <use x="63.623047" xlink:href="#DejaVuSans-53"/>
       <use x="127.246094" xlink:href="#DejaVuSans-48"/>
      </g>
     </g>
    </g>
    <g id="xtick_5">
     <g id="line2d_5">
      <g>
       <use style="stroke:#000000;stroke-width:0.8;" x="500.989832" xlink:href="#mdbca4e2836" y="384.48"/>
      </g>
     </g>
     <g id="text_5">
      <!-- 1000 -->
      <defs>
       <path d="M 12.40625 8.296875 
L 28.515625 8.296875 
L 28.515625 63.921875 
L 10.984375 60.40625 
L 10.984375 69.390625 
L 28.421875 72.90625 
L 38.28125 72.90625 
L 38.28125 8.296875 
L 54.390625 8.296875 
L 54.390625 0 
L 12.40625 0 
z
" id="DejaVuSans-49"/>
      </defs>
      <g transform="translate(488.264832 399.078438)scale(0.1 -0.1)">
       <use xlink:href="#DejaVuSans-49"/>
       <use x="63.623047" xlink:href="#DejaVuSans-48"/>
       <use x="127.246094" xlink:href="#DejaVuSans-48"/>
       <use x="190.869141" xlink:href="#DejaVuSans-48"/>
      </g>
     </g>
    </g>
    <g id="xtick_6">
     <g id="line2d_6">
      <g>
       <use style="stroke:#000000;stroke-width:0.8;" x="591.628199" xlink:href="#mdbca4e2836" y="384.48"/>
      </g>
     </g>
     <g id="text_6">
      <!-- 1250 -->
      <g transform="translate(578.903199 399.078438)scale(0.1 -0.1)">
       <use xlink:href="#DejaVuSans-49"/>
       <use x="63.623047" xlink:href="#DejaVuSans-50"/>
       <use x="127.246094" xlink:href="#DejaVuSans-53"/>
       <use x="190.869141" xlink:href="#DejaVuSans-48"/>
      </g>
     </g>
    </g>
    <g id="xtick_7">
     <g id="line2d_7">
      <g>
       <use style="stroke:#000000;stroke-width:0.8;" x="682.266566" xlink:href="#mdbca4e2836" y="384.48"/>
      </g>
     </g>
     <g id="text_7">
      <!-- 1500 -->
      <g transform="translate(669.541566 399.078438)scale(0.1 -0.1)">
       <use xlink:href="#DejaVuSans-49"/>
       <use x="63.623047" xlink:href="#DejaVuSans-53"/>
       <use x="127.246094" xlink:href="#DejaVuSans-48"/>
       <use x="190.869141" xlink:href="#DejaVuSans-48"/>
      </g>
     </g>
    </g>
    <g id="xtick_8">
     <g id="line2d_8">
      <g>
       <use style="stroke:#000000;stroke-width:0.8;" x="772.904933" xlink:href="#mdbca4e2836" y="384.48"/>
      </g>
     </g>
     <g id="text_8">
      <!-- 1750 -->
      <g transform="translate(760.179933 399.078438)scale(0.1 -0.1)">
       <use xlink:href="#DejaVuSans-49"/>
       <use x="63.623047" xlink:href="#DejaVuSans-55"/>
       <use x="127.246094" xlink:href="#DejaVuSans-53"/>
       <use x="190.869141" xlink:href="#DejaVuSans-48"/>
      </g>
     </g>
    </g>
    <g id="text_9">
     <!-- Timestamp -->
     <defs>
      <path d="M -0.296875 72.90625 
L 61.375 72.90625 
L 61.375 64.59375 
L 35.5 64.59375 
L 35.5 0 
L 25.59375 0 
L 25.59375 64.59375 
L -0.296875 64.59375 
z
" id="DejaVuSans-84"/>
      <path d="M 9.421875 54.6875 
L 18.40625 54.6875 
L 18.40625 0 
L 9.421875 0 
z
M 9.421875 75.984375 
L 18.40625 75.984375 
L 18.40625 64.59375 
L 9.421875 64.59375 
z
" id="DejaVuSans-105"/>
      <path d="M 52 44.1875 
Q 55.375 50.25 60.0625 53.125 
Q 64.75 56 71.09375 56 
Q 79.640625 56 84.28125 50.015625 
Q 88.921875 44.046875 88.921875 33.015625 
L 88.921875 0 
L 79.890625 0 
L 79.890625 32.71875 
Q 79.890625 40.578125 77.09375 44.375 
Q 74.3125 48.1875 68.609375 48.1875 
Q 61.625 48.1875 57.5625 43.546875 
Q 53.515625 38.921875 53.515625 30.90625 
L 53.515625 0 
L 44.484375 0 
L 44.484375 32.71875 
Q 44.484375 40.625 41.703125 44.40625 
Q 38.921875 48.1875 33.109375 48.1875 
Q 26.21875 48.1875 22.15625 43.53125 
Q 18.109375 38.875 18.109375 30.90625 
L 18.109375 0 
L 9.078125 0 
L 9.078125 54.6875 
L 18.109375 54.6875 
L 18.109375 46.1875 
Q 21.1875 51.21875 25.484375 53.609375 
Q 29.78125 56 35.6875 56 
Q 41.65625 56 45.828125 52.96875 
Q 50 49.953125 52 44.1875 
z
" id="DejaVuSans-109"/>
      <path d="M 56.203125 29.59375 
L 56.203125 25.203125 
L 14.890625 25.203125 
Q 15.484375 15.921875 20.484375 11.0625 
Q 25.484375 6.203125 34.421875 6.203125 
Q 39.59375 6.203125 44.453125 7.46875 
Q 49.3125 8.734375 54.109375 11.28125 
L 54.109375 2.78125 
Q 49.265625 0.734375 44.1875 -0.34375 
Q 39.109375 -1.421875 33.890625 -1.421875 
Q 20.796875 -1.421875 13.15625 6.1875 
Q 5.515625 13.8125 5.515625 26.8125 
Q 5.515625 40.234375 12.765625 48.109375 
Q 20.015625 56 32.328125 56 
Q 43.359375 56 49.78125 48.890625 
Q 56.203125 41.796875 56.203125 29.59375 
z
M 47.21875 32.234375 
Q 47.125 39.59375 43.09375 43.984375 
Q 39.0625 48.390625 32.421875 48.390625 
Q 24.90625 48.390625 20.390625 44.140625 
Q 15.875 39.890625 15.1875 32.171875 
z
" id="DejaVuSans-101"/>
      <path d="M 44.28125 53.078125 
L 44.28125 44.578125 
Q 40.484375 46.53125 36.375 47.5 
Q 32.28125 48.484375 27.875 48.484375 
Q 21.1875 48.484375 17.84375 46.4375 
Q 14.5 44.390625 14.5 40.28125 
Q 14.5 37.15625 16.890625 35.375 
Q 19.28125 33.59375 26.515625 31.984375 
L 29.59375 31.296875 
Q 39.15625 29.25 43.1875 25.515625 
Q 47.21875 21.78125 47.21875 15.09375 
Q 47.21875 7.46875 41.1875 3.015625 
Q 35.15625 -1.421875 24.609375 -1.421875 
Q 20.21875 -1.421875 15.453125 -0.5625 
Q 10.6875 0.296875 5.421875 2 
L 5.421875 11.28125 
Q 10.40625 8.6875 15.234375 7.390625 
Q 20.0625 6.109375 24.8125 6.109375 
Q 31.15625 6.109375 34.5625 8.28125 
Q 37.984375 10.453125 37.984375 14.40625 
Q 37.984375 18.0625 35.515625 20.015625 
Q 33.0625 21.96875 24.703125 23.78125 
L 21.578125 24.515625 
Q 13.234375 26.265625 9.515625 29.90625 
Q 5.8125 33.546875 5.8125 39.890625 
Q 5.8125 47.609375 11.28125 51.796875 
Q 16.75 56 26.8125 56 
Q 31.78125 56 36.171875 55.265625 
Q 40.578125 54.546875 44.28125 53.078125 
z
" id="DejaVuSans-115"/>
      <path d="M 18.3125 70.21875 
L 18.3125 54.6875 
L 36.8125 54.6875 
L 36.8125 47.703125 
L 18.3125 47.703125 
L 18.3125 18.015625 
Q 18.3125 11.328125 20.140625 9.421875 
Q 21.96875 7.515625 27.59375 7.515625 
L 36.8125 7.515625 
L 36.8125 0 
L 27.59375 0 
Q 17.1875 0 13.234375 3.875 
Q 9.28125 7.765625 9.28125 18.015625 
L 9.28125 47.703125 
L 2.6875 47.703125 
L 2.6875 54.6875 
L 9.28125 54.6875 
L 9.28125 70.21875 
z
" id="DejaVuSans-116"/>
      <path d="M 34.28125 27.484375 
Q 23.390625 27.484375 19.1875 25 
Q 14.984375 22.515625 14.984375 16.5 
Q 14.984375 11.71875 18.140625 8.90625 
Q 21.296875 6.109375 26.703125 6.109375 
Q 34.1875 6.109375 38.703125 11.40625 
Q 43.21875 16.703125 43.21875 25.484375 
L 43.21875 27.484375 
z
M 52.203125 31.203125 
L 52.203125 0 
L 43.21875 0 
L 43.21875 8.296875 
Q 40.140625 3.328125 35.546875 0.953125 
Q 30.953125 -1.421875 24.3125 -1.421875 
Q 15.921875 -1.421875 10.953125 3.296875 
Q 6 8.015625 6 15.921875 
Q 6 25.140625 12.171875 29.828125 
Q 18.359375 34.515625 30.609375 34.515625 
L 43.21875 34.515625 
L 43.21875 35.40625 
Q 43.21875 41.609375 39.140625 45 
Q 35.0625 48.390625 27.6875 48.390625 
Q 23 48.390625 18.546875 47.265625 
Q 14.109375 46.140625 10.015625 43.890625 
L 10.015625 52.203125 
Q 14.9375 54.109375 19.578125 55.046875 
Q 24.21875 56 28.609375 56 
Q 40.484375 56 46.34375 49.84375 
Q 52.203125 43.703125 52.203125 31.203125 
z
" id="DejaVuSans-97"/>
      <path d="M 18.109375 8.203125 
L 18.109375 -20.796875 
L 9.078125 -20.796875 
L 9.078125 54.6875 
L 18.109375 54.6875 
L 18.109375 46.390625 
Q 20.953125 51.265625 25.265625 53.625 
Q 29.59375 56 35.59375 56 
Q 45.5625 56 51.78125 48.09375 
Q 58.015625 40.1875 58.015625 27.296875 
Q 58.015625 14.40625 51.78125 6.484375 
Q 45.5625 -1.421875 35.59375 -1.421875 
Q 29.59375 -1.421875 25.265625 0.953125 
Q 20.953125 3.328125 18.109375 8.203125 
z
M 48.6875 27.296875 
Q 48.6875 37.203125 44.609375 42.84375 
Q 40.53125 48.484375 33.40625 48.484375 
Q 26.265625 48.484375 22.1875 42.84375 
Q 18.109375 37.203125 18.109375 27.296875 
Q 18.109375 17.390625 22.1875 11.75 
Q 26.265625 6.109375 33.40625 6.109375 
Q 40.53125 6.109375 44.609375 11.75 
Q 48.6875 17.390625 48.6875 27.296875 
z
" id="DejaVuSans-112"/>
     </defs>
     <g transform="translate(414.739062 412.756563)scale(0.1 -0.1)">
      <use xlink:href="#DejaVuSans-84"/>
      <use x="61.037109" xlink:href="#DejaVuSans-105"/>
      <use x="88.820312" xlink:href="#DejaVuSans-109"/>
      <use x="186.232422" xlink:href="#DejaVuSans-101"/>
      <use x="247.755859" xlink:href="#DejaVuSans-115"/>
      <use x="299.855469" xlink:href="#DejaVuSans-116"/>
      <use x="339.064453" xlink:href="#DejaVuSans-97"/>
      <use x="400.34375" xlink:href="#DejaVuSans-109"/>
      <use x="497.755859" xlink:href="#DejaVuSans-112"/>
     </g>
    </g>
   </g>
   <g id="matplotlib.axis_2">
    <g id="ytick_1">
     <g id="line2d_9">
      <defs>
       <path d="M 0 0 
L -3.5 0 
" id="m883a1b67a1" style="stroke:#000000;stroke-width:0.8;"/>
      </defs>
      <g>
       <use style="stroke:#000000;stroke-width:0.8;" x="108" xlink:href="#m883a1b67a1" y="376.545167"/>
      </g>
     </g>
     <g id="text_10">
      <!-- −1000 -->
      <defs>
       <path d="M 10.59375 35.5 
L 73.1875 35.5 
L 73.1875 27.203125 
L 10.59375 27.203125 
z
" id="DejaVuSans-8722"/>
      </defs>
      <g transform="translate(67.170312 380.344385)scale(0.1 -0.1)">
       <use xlink:href="#DejaVuSans-8722"/>
       <use x="83.789062" xlink:href="#DejaVuSans-49"/>
       <use x="147.412109" xlink:href="#DejaVuSans-48"/>
       <use x="211.035156" xlink:href="#DejaVuSans-48"/>
       <use x="274.658203" xlink:href="#DejaVuSans-48"/>
      </g>
     </g>
    </g>
    <g id="ytick_2">
     <g id="line2d_10">
      <g>
       <use style="stroke:#000000;stroke-width:0.8;" x="108" xlink:href="#m883a1b67a1" y="318.703993"/>
      </g>
     </g>
     <g id="text_11">
      <!-- 0 -->
      <g transform="translate(94.6375 322.503211)scale(0.1 -0.1)">
       <use xlink:href="#DejaVuSans-48"/>
      </g>
     </g>
    </g>
    <g id="ytick_3">
     <g id="line2d_11">
      <g>
       <use style="stroke:#000000;stroke-width:0.8;" x="108" xlink:href="#m883a1b67a1" y="260.862819"/>
      </g>
     </g>
     <g id="text_12">
      <!-- 1000 -->
      <g transform="translate(75.55 264.662038)scale(0.1 -0.1)">
       <use xlink:href="#DejaVuSans-49"/>
       <use x="63.623047" xlink:href="#DejaVuSans-48"/>
       <use x="127.246094" xlink:href="#DejaVuSans-48"/>
       <use x="190.869141" xlink:href="#DejaVuSans-48"/>
      </g>
     </g>
    </g>
    <g id="ytick_4">
     <g id="line2d_12">
      <g>
       <use style="stroke:#000000;stroke-width:0.8;" x="108" xlink:href="#m883a1b67a1" y="203.021645"/>
      </g>
     </g>
     <g id="text_13">
      <!-- 2000 -->
      <g transform="translate(75.55 206.820864)scale(0.1 -0.1)">
       <use xlink:href="#DejaVuSans-50"/>
       <use x="63.623047" xlink:href="#DejaVuSans-48"/>
       <use x="127.246094" xlink:href="#DejaVuSans-48"/>
       <use x="190.869141" xlink:href="#DejaVuSans-48"/>
      </g>
     </g>
    </g>
    <g id="ytick_5">
     <g id="line2d_13">
      <g>
       <use style="stroke:#000000;stroke-width:0.8;" x="108" xlink:href="#m883a1b67a1" y="145.180471"/>
      </g>
     </g>
     <g id="text_14">
      <!-- 3000 -->
      <defs>
       <path d="M 40.578125 39.3125 
Q 47.65625 37.796875 51.625 33 
Q 55.609375 28.21875 55.609375 21.1875 
Q 55.609375 10.40625 48.1875 4.484375 
Q 40.765625 -1.421875 27.09375 -1.421875 
Q 22.515625 -1.421875 17.65625 -0.515625 
Q 12.796875 0.390625 7.625 2.203125 
L 7.625 11.71875 
Q 11.71875 9.328125 16.59375 8.109375 
Q 21.484375 6.890625 26.8125 6.890625 
Q 36.078125 6.890625 40.9375 10.546875 
Q 45.796875 14.203125 45.796875 21.1875 
Q 45.796875 27.640625 41.28125 31.265625 
Q 36.765625 34.90625 28.71875 34.90625 
L 20.21875 34.90625 
L 20.21875 43.015625 
L 29.109375 43.015625 
Q 36.375 43.015625 40.234375 45.921875 
Q 44.09375 48.828125 44.09375 54.296875 
Q 44.09375 59.90625 40.109375 62.90625 
Q 36.140625 65.921875 28.71875 65.921875 
Q 24.65625 65.921875 20.015625 65.03125 
Q 15.375 64.15625 9.8125 62.3125 
L 9.8125 71.09375 
Q 15.4375 72.65625 20.34375 73.4375 
Q 25.25 74.21875 29.59375 74.21875 
Q 40.828125 74.21875 47.359375 69.109375 
Q 53.90625 64.015625 53.90625 55.328125 
Q 53.90625 49.265625 50.4375 45.09375 
Q 46.96875 40.921875 40.578125 39.3125 
z
" id="DejaVuSans-51"/>
      </defs>
      <g transform="translate(75.55 148.97969)scale(0.1 -0.1)">
       <use xlink:href="#DejaVuSans-51"/>
       <use x="63.623047" xlink:href="#DejaVuSans-48"/>
       <use x="127.246094" xlink:href="#DejaVuSans-48"/>
       <use x="190.869141" xlink:href="#DejaVuSans-48"/>
      </g>
     </g>
    </g>
    <g id="ytick_6">
     <g id="line2d_14">
      <g>
       <use style="stroke:#000000;stroke-width:0.8;" x="108" xlink:href="#m883a1b67a1" y="87.339298"/>
      </g>
     </g>
     <g id="text_15">
      <!-- 4000 -->
      <defs>
       <path d="M 37.796875 64.3125 
L 12.890625 25.390625 
L 37.796875 25.390625 
z
M 35.203125 72.90625 
L 47.609375 72.90625 
L 47.609375 25.390625 
L 58.015625 25.390625 
L 58.015625 17.1875 
L 47.609375 17.1875 
L 47.609375 0 
L 37.796875 0 
L 37.796875 17.1875 
L 4.890625 17.1875 
L 4.890625 26.703125 
z
" id="DejaVuSans-52"/>
      </defs>
      <g transform="translate(75.55 91.138516)scale(0.1 -0.1)">
       <use xlink:href="#DejaVuSans-52"/>
       <use x="63.623047" xlink:href="#DejaVuSans-48"/>
       <use x="127.246094" xlink:href="#DejaVuSans-48"/>
       <use x="190.869141" xlink:href="#DejaVuSans-48"/>
      </g>
     </g>
    </g>
    <g id="text_16">
     <!-- Value -->
     <defs>
      <path d="M 28.609375 0 
L 0.78125 72.90625 
L 11.078125 72.90625 
L 34.1875 11.53125 
L 57.328125 72.90625 
L 67.578125 72.90625 
L 39.796875 0 
z
" id="DejaVuSans-86"/>
      <path d="M 9.421875 75.984375 
L 18.40625 75.984375 
L 18.40625 0 
L 9.421875 0 
z
" id="DejaVuSans-108"/>
      <path d="M 8.5 21.578125 
L 8.5 54.6875 
L 17.484375 54.6875 
L 17.484375 21.921875 
Q 17.484375 14.15625 20.5 10.265625 
Q 23.53125 6.390625 29.59375 6.390625 
Q 36.859375 6.390625 41.078125 11.03125 
Q 45.3125 15.671875 45.3125 23.6875 
L 45.3125 54.6875 
L 54.296875 54.6875 
L 54.296875 0 
L 45.3125 0 
L 45.3125 8.40625 
Q 42.046875 3.421875 37.71875 1 
Q 33.40625 -1.421875 27.6875 -1.421875 
Q 18.265625 -1.421875 13.375 4.4375 
Q 8.5 10.296875 8.5 21.578125 
z
M 31.109375 56 
z
" id="DejaVuSans-117"/>
     </defs>
     <g transform="translate(61.090625 232.273281)rotate(-90)scale(0.1 -0.1)">
      <use xlink:href="#DejaVuSans-86"/>
      <use x="68.298828" xlink:href="#DejaVuSans-97"/>
      <use x="129.578125" xlink:href="#DejaVuSans-108"/>
      <use x="157.361328" xlink:href="#DejaVuSans-117"/>
      <use x="220.740234" xlink:href="#DejaVuSans-101"/>
     </g>
    </g>
   </g>
   <g id="line2d_15">
    <path clip-path="url(#pbb2fdc0788)" d="M 138.436364 319.058527 
L 138.798917 304.157595 
L 139.161471 281.34638 
L 139.524024 270.412262 
L 139.886578 267.165924 
L 140.249131 281.120133 
L 140.611684 284.737874 
L 141.336791 311.106497 
L 141.699345 318.827714 
L 142.061898 321.959686 
L 142.424452 321.699289 
L 142.787005 304.063326 
L 143.512112 289.391797 
L 144.237219 299.359338 
L 144.599773 319.772726 
L 144.962326 327.157083 
L 145.32488 343.984984 
L 145.687433 342.485682 
L 146.049986 342.441394 
L 146.41254 337.007183 
L 147.862754 257.334167 
L 148.225307 252.237943 
L 148.587861 250.934796 
L 148.950414 258.392424 
L 149.312968 268.698945 
L 149.675521 287.659578 
L 150.400628 309.72392 
L 150.763182 304.043356 
L 151.125735 302.185396 
L 151.488288 293.44181 
L 151.850842 289.816729 
L 152.213395 278.13846 
L 152.575949 287.617201 
L 152.938502 287.868458 
L 153.301056 297.235805 
L 153.663609 321.245388 
L 154.026163 331.777069 
L 154.75127 339.959915 
L 155.113823 322.584877 
L 155.476377 315.247242 
L 155.83893 287.718318 
L 156.926591 245.44441 
L 157.289144 244.282856 
L 157.651697 260.857814 
L 158.014251 271.021025 
L 158.376804 284.994874 
L 158.739358 292.889956 
L 159.101911 304.983758 
L 159.464465 299.583745 
L 159.827018 301.399388 
L 160.189572 295.886854 
L 160.552125 281.599238 
L 161.277232 284.843034 
L 161.639786 292.738493 
L 162.002339 311.115109 
L 163.089999 345.592314 
L 163.815106 339.669067 
L 164.17766 322.736328 
L 164.540213 298.965156 
L 165.627874 258.392721 
L 165.990427 257.714108 
L 166.352981 267.985694 
L 166.715534 285.245578 
L 167.440641 305.200936 
L 167.803195 326.510565 
L 168.165748 317.202822 
L 169.253408 302.128901 
L 169.615962 294.415224 
L 169.978515 300.498039 
L 170.341069 317.267966 
L 170.703622 320.100982 
L 171.791283 358.324158 
L 172.153836 358.926301 
L 172.51639 351.045145 
L 172.878943 335.082504 
L 173.60405 297.690813 
L 173.966603 282.067275 
L 174.329157 272.523191 
L 174.69171 271.706524 
L 175.779371 319.149639 
L 176.141924 323.671342 
L 176.504478 333.459013 
L 176.867031 336.366483 
L 177.229585 330.99036 
L 177.592138 319.874225 
L 177.954692 312.262369 
L 178.317245 313.573163 
L 178.679799 317.729201 
L 179.404906 332.451856 
L 179.767459 353.160771 
L 180.130012 362.274484 
L 180.492566 367.92046 
L 180.855119 369.36 
L 181.217673 363.125275 
L 181.580226 346.385595 
L 182.305333 305.343035 
L 182.667887 294.587304 
L 183.03044 275.39321 
L 183.392994 282.103651 
L 183.755547 291.21008 
L 184.480654 314.550227 
L 184.843208 322.902717 
L 185.205761 335.090813 
L 185.568314 335.273578 
L 185.930868 338.562855 
L 186.655975 316.456396 
L 187.018528 307.231545 
L 188.106189 330.802926 
L 188.468742 346.935445 
L 189.193849 365.932201 
L 189.918956 359.989495 
L 191.006616 295.92689 
L 191.731723 269.233446 
L 192.094277 268.136648 
L 193.181937 297.607512 
L 193.544491 313.540528 
L 193.907044 322.410046 
L 194.269598 322.742756 
L 194.632151 321.087736 
L 194.994705 309.836247 
L 195.719812 295.359981 
L 196.082365 293.048162 
L 196.444919 302.307844 
L 196.807472 319.685215 
L 197.532579 335.812771 
L 197.895132 347.16534 
L 198.257686 342.477826 
L 198.620239 339.556864 
L 199.345346 298.716549 
L 199.7079 274.880864 
L 200.070453 260.47517 
L 200.433007 253.898545 
L 200.79556 254.879731 
L 201.158114 256.762589 
L 201.520667 264.858133 
L 202.245774 291.386276 
L 202.608327 298.248573 
L 202.970881 300.132592 
L 203.333434 297.814325 
L 203.695988 287.862534 
L 204.058541 280.973749 
L 204.421095 271.734306 
L 204.783648 275.499781 
L 205.146202 281.834695 
L 205.871309 305.847627 
L 206.596416 333.059998 
L 206.958969 326.331004 
L 207.321523 315.567705 
L 208.046629 285.19949 
L 208.409183 256.065108 
L 208.771736 237.102327 
L 209.13429 231.065662 
L 209.496843 228.54048 
L 209.859397 237.927529 
L 211.309611 288.763444 
L 211.672164 282.671074 
L 212.034718 283.314998 
L 212.759825 264.128753 
L 213.122378 258.881912 
L 213.484932 265.684609 
L 213.847485 264.547883 
L 214.210038 285.30076 
L 214.935145 317.470948 
L 215.297699 315.497635 
L 215.660252 319.172519 
L 216.022806 308.862962 
L 216.385359 294.423749 
L 217.110466 247.88784 
L 217.835573 226.151785 
L 218.198127 229.284329 
L 218.923234 245.871059 
L 219.285787 258.490627 
L 219.64834 276.421648 
L 220.010894 283.110537 
L 220.373447 285.649765 
L 220.736001 276.050535 
L 221.098554 275.667842 
L 221.461108 266.207569 
L 221.823661 260.75109 
L 222.548768 273.642302 
L 223.998982 325.858905 
L 224.361536 323.278432 
L 224.724089 313.839255 
L 225.086642 300.077935 
L 225.811749 261.628677 
L 226.174303 250.189793 
L 226.536856 234.673763 
L 226.89941 238.293041 
L 227.261963 246.77415 
L 227.624517 267.369168 
L 228.712177 300.812126 
L 229.074731 301.871202 
L 229.437284 298.371003 
L 229.799838 293.752332 
L 230.162391 281.576799 
L 230.524945 276.649126 
L 230.887498 279.561111 
L 231.250051 289.715083 
L 232.337712 335.636332 
L 232.700265 339.793968 
L 233.062819 341.172293 
L 233.425372 331.682365 
L 233.787926 317.6941 
L 234.513033 279.866856 
L 234.875586 270.328498 
L 235.23814 255.217348 
L 235.600693 253.461115 
L 236.3258 276.061297 
L 237.41346 318.080635 
L 238.138567 310.055354 
L 238.501121 306.292906 
L 238.863674 299.072815 
L 239.226228 294.248307 
L 239.588781 292.255629 
L 239.951335 306.878349 
L 240.676442 328.518565 
L 241.401549 352.725496 
L 241.764102 350.644538 
L 242.126655 342.172852 
L 242.489209 320.419745 
L 242.851762 307.954308 
L 243.214316 284.296679 
L 243.576869 268.285695 
L 243.939423 261.926872 
L 244.301976 265.445583 
L 244.66453 263.84928 
L 245.389637 298.161723 
L 245.75219 310.225677 
L 246.114744 315.384679 
L 246.477297 318.570516 
L 246.839851 306.624581 
L 247.202404 307.035199 
L 247.564957 296.801629 
L 247.927511 291.274484 
L 248.290064 299.927829 
L 248.652618 301.25833 
L 249.377725 333.177931 
L 249.740278 338.080645 
L 250.102832 345.151966 
L 250.465385 345.519129 
L 251.190492 321.787506 
L 252.278153 259.375862 
L 252.640706 258.170946 
L 253.00326 249.46257 
L 253.365813 256.080344 
L 254.09092 286.604407 
L 254.453473 292.865333 
L 254.816027 303.319678 
L 255.17858 300.657868 
L 255.541134 301.264087 
L 255.903687 287.049595 
L 256.628794 278.112778 
L 256.991348 274.884812 
L 257.353901 282.009424 
L 258.441562 327.008758 
L 258.804115 325.667746 
L 259.166668 326.780189 
L 259.529222 316.229632 
L 260.254329 282.310591 
L 260.616882 257.016728 
L 260.979436 247.829594 
L 261.341989 230.803733 
L 261.704543 238.826843 
L 262.067096 240.530644 
L 262.42965 246.380802 
L 263.154757 272.384236 
L 263.51731 278.948991 
L 263.879864 282.660061 
L 264.242417 278.103891 
L 264.60497 272.128358 
L 265.330077 251.651141 
L 265.692631 256.797379 
L 266.055184 257.166636 
L 266.417738 279.541032 
L 267.142845 299.489359 
L 267.505398 304.677285 
L 267.867952 304.695448 
L 268.230505 296.920498 
L 268.955612 257.989788 
L 269.318166 233.6605 
L 269.680719 225.388958 
L 270.043273 209.846085 
L 270.405826 210.842154 
L 270.768379 214.456974 
L 271.130933 233.709771 
L 271.85604 257.433495 
L 272.218593 261.204978 
L 272.581147 269.120345 
L 273.306254 252.542405 
L 274.031361 242.519778 
L 274.393914 243.67048 
L 274.756468 249.928582 
L 275.119021 260.525444 
L 275.481575 280.501968 
L 275.844128 292.558157 
L 276.206681 297.168593 
L 276.569235 296.226623 
L 276.931788 288.998463 
L 277.294342 278.248777 
L 278.019449 231.107291 
L 278.382002 216.447202 
L 278.744556 207.874032 
L 279.107109 208.58242 
L 279.469663 221.001158 
L 280.19477 238.10975 
L 280.557323 258.645405 
L 281.28243 265.997287 
L 282.37009 246.37508 
L 282.732644 249.925057 
L 283.095197 241.255414 
L 284.545411 294.20273 
L 284.907965 298.83141 
L 285.270518 310.646744 
L 286.358179 263.044192 
L 287.083286 222.311981 
L 287.445839 216.761051 
L 287.808392 219.486568 
L 288.170946 226.989383 
L 288.533499 239.53241 
L 288.896053 264.448926 
L 289.258606 272.369596 
L 289.62116 276.757001 
L 289.983713 277.867902 
L 290.346267 277.126075 
L 290.70882 269.213015 
L 291.071374 267.265557 
L 291.433927 258.078505 
L 292.159034 272.829202 
L 293.246694 312.841154 
L 293.609248 318.972883 
L 293.971801 322.294079 
L 294.334355 316.698001 
L 295.784569 244.042792 
L 296.147122 238.123109 
L 296.509676 235.058717 
L 296.872229 243.942145 
L 297.597336 274.041064 
L 297.95989 292.930078 
L 298.322443 293.848224 
L 298.684996 299.984828 
L 299.04755 295.750284 
L 299.410103 281.156479 
L 299.772657 275.26593 
L 300.13521 277.95881 
L 300.497764 278.78118 
L 300.860317 285.164587 
L 301.222871 298.215459 
L 301.585424 316.709013 
L 301.947978 325.703318 
L 302.310531 330.335006 
L 302.673085 331.974564 
L 303.035638 324.646365 
L 303.398192 308.636733 
L 304.123299 265.739699 
L 304.485852 251.918929 
L 304.848405 244.740287 
L 305.210959 243.113069 
L 305.573512 251.403111 
L 305.936066 262.667198 
L 306.298619 280.916681 
L 306.661173 283.385036 
L 307.023726 296.503453 
L 307.38628 300.954976 
L 307.748833 300.115838 
L 308.111387 283.566567 
L 308.836494 273.729773 
L 309.199047 275.677197 
L 309.561601 280.614596 
L 309.924154 289.386748 
L 310.286707 309.390642 
L 311.011814 328.221814 
L 311.374368 325.125784 
L 311.736921 309.733106 
L 312.462028 286.033861 
L 313.187135 239.627194 
L 313.912242 234.902105 
L 314.274796 240.920101 
L 315.362456 281.386835 
L 315.725009 282.586009 
L 316.450116 279.743678 
L 316.81267 275.731134 
L 317.175223 263.568419 
L 317.537777 262.265481 
L 317.90033 257.675674 
L 318.987991 282.334162 
L 319.350544 305.674902 
L 319.713098 313.713003 
L 320.075651 311.433465 
L 320.438205 300.068522 
L 321.163311 263.731124 
L 321.525865 233.985798 
L 321.888418 220.392486 
L 322.613525 207.590306 
L 322.976079 216.817891 
L 323.701186 245.705897 
L 324.063739 251.045447 
L 324.426293 264.821944 
L 325.1514 261.309711 
L 325.513953 254.346458 
L 325.876507 243.285529 
L 326.23906 236.173013 
L 326.601614 234.686216 
L 327.689274 271.37083 
L 328.051827 288.053944 
L 328.414381 285.603161 
L 328.776934 289.367637 
L 329.502041 267.869083 
L 329.864595 234.543659 
L 330.952255 192.109554 
L 331.314809 193.518715 
L 331.677362 203.427357 
L 332.402469 230.348213 
L 333.127576 243.833508 
L 333.490129 245.296635 
L 333.852683 243.374132 
L 334.940343 223.024219 
L 335.66545 230.098889 
L 336.028004 235.204024 
L 336.390557 258.267383 
L 337.115664 280.993817 
L 337.478218 281.589464 
L 337.840771 270.399203 
L 338.203324 245.323304 
L 338.565878 231.45808 
L 338.928431 209.040183 
L 339.290985 195.500095 
L 339.653538 188.106156 
L 340.016092 188.563761 
L 341.103752 220.382149 
L 341.466306 237.115571 
L 341.828859 244.460059 
L 342.191413 247.691459 
L 342.553966 243.161849 
L 342.91652 233.473273 
L 343.641627 221.582416 
L 344.00418 223.850038 
L 344.366733 232.427098 
L 345.816947 288.424215 
L 346.179501 286.898413 
L 346.542054 277.462771 
L 346.904608 255.87118 
L 347.267161 244.209977 
L 347.629715 221.337875 
L 347.992268 207.250455 
L 348.354822 199.786513 
L 348.717375 195.751385 
L 349.079929 208.252978 
L 349.442482 229.639748 
L 349.805035 238.405795 
L 350.167589 255.354631 
L 350.530142 258.533177 
L 350.892696 263.131664 
L 351.255249 258.357505 
L 351.617803 244.858069 
L 351.980356 243.91109 
L 352.34291 234.035013 
L 353.068017 249.000453 
L 353.793124 281.363459 
L 354.518231 297.699333 
L 354.880784 305.951167 
L 355.243337 297.446169 
L 355.605891 276.334915 
L 355.968444 261.944447 
L 356.330998 235.216958 
L 357.056105 211.193065 
L 357.418658 206.983586 
L 357.781212 220.761621 
L 358.506319 254.765986 
L 358.868872 268.186512 
L 359.231426 270.313937 
L 359.593979 276.99511 
L 360.68164 254.817818 
L 361.044193 257.898772 
L 361.406746 251.092157 
L 363.219514 315.244852 
L 363.582067 314.203916 
L 363.944621 303.030282 
L 365.032281 253.553179 
L 365.394835 227.460706 
L 365.757388 224.032097 
L 366.119942 226.801984 
L 366.482495 232.734951 
L 367.932709 283.300927 
L 368.657816 275.181884 
L 369.382923 258.257535 
L 369.745476 252.422685 
L 370.10803 255.781957 
L 370.833137 271.359038 
L 371.19569 290.753705 
L 371.558244 297.017067 
L 371.920797 308.789425 
L 372.28335 308.248707 
L 372.645904 296.859876 
L 373.371011 257.095051 
L 373.733564 236.226996 
L 374.096118 226.132144 
L 374.458671 211.460435 
L 374.821225 207.344967 
L 375.183778 222.381245 
L 375.546332 231.930027 
L 376.271439 256.029273 
L 376.633992 262.964363 
L 376.996546 264.074311 
L 377.359099 264.467641 
L 377.721652 250.809597 
L 378.084206 246.934517 
L 378.446759 239.494019 
L 378.809313 240.902099 
L 379.171866 247.663332 
L 380.62208 291.110085 
L 381.347187 280.670596 
L 382.072294 243.989693 
L 382.434848 218.527557 
L 382.797401 201.87871 
L 383.159955 193.444703 
L 383.522508 191.696098 
L 383.885061 202.206529 
L 384.247615 207.373499 
L 384.610168 228.315071 
L 384.972722 232.140751 
L 385.335275 244.064587 
L 385.697829 243.90293 
L 386.060382 231.217041 
L 386.422936 229.708258 
L 386.785489 223.698213 
L 387.148043 214.229359 
L 387.510596 213.555278 
L 387.87315 223.711235 
L 388.598257 252.224801 
L 388.96081 261.402257 
L 389.323363 265.958032 
L 389.685917 263.962814 
L 390.04847 254.856136 
L 390.411024 239.904103 
L 391.136131 201.246365 
L 391.498684 183.43737 
L 391.861238 172.371748 
L 392.223791 173.266769 
L 392.586345 178.83653 
L 393.674005 221.373655 
L 394.036559 224.769977 
L 394.399112 224.996537 
L 394.761665 222.80596 
L 395.849326 205.201406 
L 396.211879 202.94693 
L 396.936986 224.088156 
L 397.29954 243.227876 
L 398.024647 257.6609 
L 398.3872 256.369598 
L 398.749754 248.695476 
L 399.112307 232.127416 
L 399.474861 221.926462 
L 399.837414 191.121513 
L 400.562521 167.092858 
L 400.925074 168.7136 
L 401.287628 172.388352 
L 401.650181 186.898883 
L 402.012735 207.349476 
L 402.375288 220.547953 
L 403.100395 227.852918 
L 403.462949 229.304687 
L 403.825502 219.541045 
L 404.188056 214.428401 
L 404.550609 203.902267 
L 404.913163 210.430219 
L 405.275716 212.354405 
L 405.63827 232.768069 
L 406.363376 261.131659 
L 406.72593 262.110259 
L 407.088483 266.435252 
L 407.451037 257.368208 
L 407.81359 244.417938 
L 408.901251 186.581559 
L 409.263804 180.945108 
L 409.626358 178.675023 
L 409.988911 195.362298 
L 410.351465 199.772183 
L 410.714018 219.589995 
L 411.439125 242.616056 
L 411.801678 240.1156 
L 412.889339 227.707623 
L 413.251892 219.816608 
L 413.614446 225.09148 
L 413.976999 236.762411 
L 414.339553 244.052284 
L 415.06466 272.952702 
L 415.427213 281.829452 
L 415.789767 282.600726 
L 416.15232 277.161655 
L 416.514874 261.638071 
L 417.239981 217.292987 
L 417.965087 188.759295 
L 418.327641 194.771843 
L 419.052748 210.442545 
L 419.415301 233.814226 
L 420.140408 257.611702 
L 420.502962 258.203646 
L 420.865515 249.29047 
L 421.228069 249.305418 
L 421.953176 232.738157 
L 422.315729 233.317673 
L 424.128496 291.023321 
L 424.49105 296.375333 
L 424.853603 282.24267 
L 425.216157 274.02706 
L 425.941264 227.602858 
L 426.666371 203.792704 
L 427.028924 205.767869 
L 427.391478 211.555861 
L 427.754031 221.642396 
L 428.479138 249.572111 
L 428.841691 259.863183 
L 429.204245 260.613215 
L 429.929352 246.077486 
L 430.654459 230.355695 
L 431.017012 233.134272 
L 431.379566 238.554147 
L 431.742119 251.043144 
L 432.104673 269.362382 
L 432.467226 278.266708 
L 432.82978 291.111876 
L 433.192333 288.471999 
L 433.554887 278.614324 
L 433.91744 257.695841 
L 434.279994 245.78203 
L 434.642547 219.759181 
L 435.367654 195.722078 
L 435.730207 195.155105 
L 436.092761 198.563191 
L 436.455314 204.622806 
L 436.817868 225.278887 
L 437.542975 244.032308 
L 437.905528 242.803362 
L 438.268082 236.201867 
L 438.630635 231.907907 
L 438.993189 224.341539 
L 439.355742 220.147214 
L 439.718296 220.380891 
L 440.443402 237.186239 
L 440.805956 253.734506 
L 441.531063 268.243192 
L 441.893616 272.450815 
L 442.25617 262.81007 
L 442.618723 245.089014 
L 442.981277 219.942139 
L 443.34383 203.629197 
L 443.706384 180.362072 
L 444.068937 173.44166 
L 444.431491 170.487601 
L 444.794044 174.900453 
L 445.156598 185.727387 
L 445.881704 214.745196 
L 446.244258 224.212995 
L 446.606811 222.139079 
L 446.969365 213.550733 
L 447.331918 279.527774 
L 447.694472 200.6906 
L 448.057025 195.596418 
L 448.419579 196.572099 
L 448.782132 202.595049 
L 449.144686 213.477355 
L 450.232346 256.131481 
L 450.957453 238.848663 
L 451.320006 224.818176 
L 451.68256 199.823308 
L 452.77022 156.110839 
L 453.132774 150.406623 
L 453.857881 166.437337 
L 454.582988 195.896342 
L 454.945541 200.637986 
L 455.670648 206.628911 
L 456.033202 191.575905 
L 456.395755 188.898566 
L 456.758309 182.319865 
L 457.120862 186.414547 
L 457.483415 194.200949 
L 458.208522 215.959186 
L 458.571076 233.708345 
L 458.933629 242.325124 
L 459.296183 235.324904 
L 459.658736 231.466216 
L 460.383843 198.162036 
L 460.746397 173.329566 
L 461.10895 166.083124 
L 461.471504 148.972164 
L 461.834057 146.736191 
L 462.196611 156.747109 
L 463.284271 195.240789 
L 463.646824 204.397898 
L 464.009378 208.865177 
L 464.371931 207.608527 
L 464.734485 194.650871 
L 465.097038 191.792371 
L 465.459592 181.077955 
L 465.822145 194.313944 
L 466.184699 192.900662 
L 466.547252 212.441161 
L 467.634913 250.087408 
L 468.360019 236.924142 
L 469.44768 182.870024 
L 469.810233 174.06306 
L 470.172787 156.263288 
L 470.53534 158.600965 
L 470.897894 165.07205 
L 471.623001 194.668109 
L 472.348108 216.21539 
L 472.710661 219.305326 
L 473.073215 214.974698 
L 473.435768 213.08387 
L 473.798322 207.278369 
L 474.160875 204.1622 
L 474.523428 203.044685 
L 475.973642 254.009764 
L 476.336196 262.866398 
L 476.698749 265.153911 
L 477.061303 258.205888 
L 477.423856 236.287164 
L 477.78641 223.399284 
L 478.148963 199.007675 
L 478.511517 183.486409 
L 478.87407 176.941838 
L 479.236624 178.442871 
L 479.599177 183.683841 
L 480.686837 227.468605 
L 481.049391 237.183994 
L 481.411944 238.116123 
L 481.774498 229.921959 
L 482.137051 226.741729 
L 482.499605 221.801667 
L 482.862158 214.373911 
L 483.224712 214.922619 
L 483.587265 223.674352 
L 484.674926 267.283909 
L 485.037479 274.220141 
L 485.400032 275.31682 
L 485.762586 267.023417 
L 486.850246 207.237049 
L 487.575353 178.420201 
L 487.937907 179.139352 
L 488.663014 201.617535 
L 489.750674 245.099391 
L 490.113228 241.329916 
L 490.475781 239.509032 
L 491.200888 219.270474 
L 491.563441 211.618845 
L 491.925995 209.467038 
L 492.288548 221.618856 
L 492.651102 237.498339 
L 493.376209 257.108023 
L 493.738762 274.29519 
L 494.101316 269.96484 
L 494.463869 260.519372 
L 494.826423 245.398956 
L 495.188976 218.467556 
L 495.914083 186.470999 
L 496.276637 178.469534 
L 496.63919 173.153704 
L 497.364297 197.094256 
L 497.72685 204.204267 
L 498.089404 220.225975 
L 498.451957 222.777897 
L 498.814511 228.765134 
L 500.264725 196.300198 
L 500.989832 207.043423 
L 502.077492 241.072942 
L 502.440045 252.720839 
L 502.802599 248.524325 
L 503.165152 242.970251 
L 503.527706 226.339328 
L 504.615366 158.959594 
L 504.97792 153.664861 
L 505.340473 156.817914 
L 505.703027 162.685785 
L 506.06558 173.367018 
L 506.790687 200.359245 
L 507.515794 210.57593 
L 507.878348 194.58509 
L 508.240901 195.219221 
L 508.603454 181.802113 
L 508.966008 180.377241 
L 509.328561 177.164031 
L 510.053668 197.198792 
L 510.778775 223.873426 
L 511.141329 231.73229 
L 511.503882 229.254099 
L 511.866436 223.827809 
L 512.591543 184.764528 
L 512.954096 158.103217 
L 513.31665 140.970037 
L 513.679203 134.438093 
L 514.041756 134.743692 
L 514.40431 141.447455 
L 514.766863 151.703315 
L 515.49197 184.689199 
L 515.854524 188.732362 
L 516.217077 189.419788 
L 516.579631 184.427286 
L 516.942184 174.999625 
L 517.304738 159.682205 
L 518.029845 172.404327 
L 518.392398 171.689865 
L 519.480058 213.161962 
L 519.842612 217.052581 
L 520.205165 219.47801 
L 520.567719 211.072068 
L 521.292826 177.865306 
L 521.655379 152.898169 
L 522.017933 136.994074 
L 522.380486 135.682657 
L 522.74304 132.060448 
L 523.105593 142.443368 
L 523.468147 149.278633 
L 524.555807 190.50527 
L 524.91836 188.002148 
L 525.280914 181.985994 
L 525.643467 178.203054 
L 526.006021 172.443466 
L 526.368574 163.890611 
L 526.731128 168.239588 
L 527.093681 174.307994 
L 527.818788 210.983879 
L 528.181342 217.453057 
L 528.543895 231.555132 
L 528.906449 231.968564 
L 529.269002 223.313717 
L 530.356663 163.179759 
L 531.081769 137.325482 
L 531.444323 141.790826 
L 531.806876 148.579241 
L 532.16943 160.246849 
L 532.531983 179.773553 
L 533.25709 202.889299 
L 533.619644 200.642677 
L 533.982197 196.935621 
L 534.344751 190.013249 
L 534.707304 185.295275 
L 535.069858 182.341572 
L 535.432411 186.808468 
L 535.794965 194.355358 
L 536.157518 209.274019 
L 536.520071 214.386965 
L 536.882625 237.059082 
L 537.245178 241.983575 
L 537.607732 243.919299 
L 538.332839 217.907821 
L 539.420499 167.822817 
L 539.783053 157.110876 
L 540.145606 157.211743 
L 540.50816 162.212931 
L 540.870713 181.704728 
L 541.233267 189.29879 
L 541.59582 205.410511 
L 541.958373 215.48203 
L 542.320927 215.218132 
L 542.68348 217.427207 
L 543.408587 199.54345 
L 543.771141 196.404505 
L 544.496248 206.39033 
L 544.858801 218.623735 
L 545.221355 238.73113 
L 545.946462 253.878735 
L 546.309015 250.773307 
L 546.671569 250.016997 
L 547.034122 233.323148 
L 547.396676 207.451388 
L 547.759229 194.068729 
L 548.121782 173.570383 
L 548.484336 161.959207 
L 549.209443 176.072812 
L 549.571996 183.15657 
L 549.93455 201.584428 
L 550.297103 207.633282 
L 550.659657 221.972964 
L 551.02221 217.970269 
L 551.384764 215.351838 
L 552.109871 198.419937 
L 552.472424 199.736937 
L 552.834978 194.405296 
L 553.197531 201.627172 
L 553.560084 213.928765 
L 553.922638 236.019562 
L 554.285191 241.300252 
L 554.647745 253.484608 
L 555.010298 247.927415 
L 555.735405 223.132377 
L 556.460512 180.321723 
L 556.823066 163.218666 
L 557.185619 158.778753 
L 557.548173 152.746262 
L 557.910726 157.455183 
L 558.635833 189.294352 
L 559.36094 207.389866 
L 559.723493 212.895344 
L 560.4486 189.381627 
L 561.173707 176.698155 
L 561.898814 186.720976 
L 562.261368 198.552058 
L 562.623921 214.808611 
L 562.986475 224.987124 
L 563.711582 229.833893 
L 564.074135 222.378304 
L 564.436689 206.794282 
L 565.161795 158.229757 
L 565.886902 134.398942 
L 566.249456 130.309048 
L 566.612009 139.634529 
L 566.974563 156.959411 
L 567.337116 168.581934 
L 567.69967 172.227011 
L 568.062223 185.67682 
L 568.424777 185.170024 
L 569.149884 169.628461 
L 569.512437 155.526469 
L 569.874991 159.732245 
L 570.237544 161.219727 
L 570.600097 164.410032 
L 570.962651 177.568645 
L 571.325204 184.512398 
L 571.687758 205.860203 
L 572.050311 144.98514 
L 572.412865 207.709908 
L 572.775418 202.754258 
L 573.500525 161.580345 
L 574.225632 127.118562 
L 574.588186 113.697496 
L 574.950739 109.428265 
L 575.313293 120.147375 
L 575.675846 138.75218 
L 576.038399 144.754906 
L 576.400953 161.2253 
L 576.763506 167.101987 
L 577.12606 170.616792 
L 577.488613 158.079143 
L 577.851167 153.539612 
L 578.21372 151.346129 
L 578.576274 142.317016 
L 578.938827 143.174797 
L 579.301381 152.197925 
L 579.663934 167.36321 
L 580.026488 173.459166 
L 580.389041 198.09909 
L 580.751595 196.258782 
L 581.114148 199.581117 
L 581.839255 179.217419 
L 582.926915 119.705318 
L 583.289469 111.661179 
L 583.652022 109.699027 
L 584.014576 112.830855 
L 584.377129 134.550476 
L 584.739683 145.735768 
L 585.102236 160.821976 
L 585.46479 166.93425 
L 585.827343 171.024903 
L 586.189897 160.282068 
L 586.55245 157.047377 
L 587.277557 144.471582 
L 587.64011 149.128306 
L 588.002664 156.820486 
L 588.727771 183.273155 
L 589.090324 200.44803 
L 589.815431 209.695348 
L 590.177985 201.056373 
L 590.540538 186.304809 
L 591.628199 124.645007 
L 591.990752 123.155025 
L 592.353306 123.90642 
L 592.715859 129.862753 
L 593.803519 171.815603 
L 594.166073 180.830734 
L 594.528626 182.896373 
L 594.89118 182.818929 
L 595.253733 177.280012 
L 595.616287 165.662138 
L 595.97884 159.4732 
L 596.341394 163.917186 
L 597.066501 184.714684 
L 597.791608 215.846874 
L 598.154161 225.271635 
L 598.516714 296.974098 
L 598.879268 219.291696 
L 599.241821 202.266369 
L 599.966928 159.112888 
L 600.329482 141.875322 
L 600.692035 139.0849 
L 601.054589 139.218365 
L 601.417142 145.3977 
L 602.142249 173.527151 
L 602.504803 189.580435 
L 602.867356 196.780991 
L 603.592463 191.071667 
L 603.955017 192.462534 
L 604.31757 178.994813 
L 604.680123 177.696283 
L 605.042677 181.968958 
L 605.40523 181.244231 
L 605.767784 203.599792 
L 606.130337 213.356447 
L 606.492891 235.197846 
L 606.855444 234.936123 
L 607.217998 235.789292 
L 607.943105 210.051351 
L 608.305658 187.323939 
L 609.030765 154.666072 
L 609.393319 148.476062 
L 609.755872 146.815637 
L 610.118425 153.220417 
L 611.206086 194.026529 
L 611.568639 197.984235 
L 611.931193 197.885171 
L 612.293746 199.432761 
L 612.6563 187.665761 
L 613.018853 185.16138 
L 613.381407 176.09863 
L 613.74396 175.973406 
L 614.106514 184.038085 
L 614.469067 200.058397 
L 614.831621 208.303444 
L 615.194174 223.229999 
L 615.556727 230.42914 
L 615.919281 226.251503 
L 616.281834 225.036597 
L 617.369495 165.305045 
L 617.732048 144.888523 
L 618.094602 137.179853 
L 618.457155 133.697219 
L 618.819709 143.382895 
L 619.907369 180.844854 
L 620.269923 189.962474 
L 620.632476 189.465746 
L 620.99503 184.521345 
L 621.720136 161.787369 
L 622.08269 161.145093 
L 622.445243 159.191053 
L 622.807797 168.393857 
L 623.17035 183.864729 
L 623.532904 194.227049 
L 623.895457 201.377962 
L 624.258011 212.973337 
L 624.620564 205.549061 
L 624.983118 204.573422 
L 625.345671 191.048729 
L 626.070778 141.840389 
L 626.795885 112.752633 
L 627.158438 109.662863 
L 627.520992 118.595218 
L 627.883545 135.447271 
L 628.246099 137.779128 
L 628.608652 155.49521 
L 628.971206 163.989313 
L 629.333759 161.251029 
L 629.696313 154.13572 
L 630.058866 153.920548 
L 630.42142 142.822204 
L 630.783973 138.503936 
L 631.146527 144.272604 
L 631.50908 145.464743 
L 631.871634 154.602591 
L 632.234187 173.221248 
L 632.59674 183.755796 
L 632.959294 190.653388 
L 633.321847 184.368787 
L 633.684401 180.767277 
L 634.046954 164.162896 
L 634.409508 140.21591 
L 634.772061 127.4703 
L 635.134615 108.982702 
L 635.497168 96.94855 
L 635.859722 94.95437 
L 636.222275 101.547464 
L 637.672489 154.952387 
L 638.035043 153.297149 
L 639.122703 125.736581 
L 639.485256 121.443308 
L 639.84781 123.183982 
L 640.210363 137.220998 
L 640.572917 143.135251 
L 641.298024 179.346635 
L 641.660577 183.19466 
L 642.023131 184.102857 
L 642.385684 175.523352 
L 642.748238 160.063351 
L 643.473345 118.664257 
L 644.198451 90.56951 
L 644.561005 94.907261 
L 644.923558 97.58431 
L 645.286112 115.042222 
L 645.648665 123.669019 
L 646.011219 142.085112 
L 646.373772 150.585406 
L 646.736326 147.976069 
L 647.098879 148.728874 
L 647.461433 142.811487 
L 647.823986 131.531719 
L 648.18654 201.260753 
L 648.549093 126.577289 
L 648.911647 133.603943 
L 649.2742 151.116979 
L 650.36186 187.031472 
L 650.724414 186.803646 
L 651.086967 178.798715 
L 651.812074 149.240208 
L 652.174628 125.22016 
L 652.537181 110.683612 
L 652.899735 101.314261 
L 653.262288 101.766999 
L 653.624842 109.160609 
L 653.987395 120.028526 
L 654.349949 141.898796 
L 655.075055 163.305324 
L 655.437609 160.870201 
L 655.800162 156.912506 
L 656.162716 150.079495 
L 656.525269 149.581077 
L 656.887823 143.411005 
L 657.250376 142.992342 
L 657.61293 152.538183 
L 658.70059 194.681427 
L 659.063144 198.960212 
L 659.425697 200.982728 
L 659.788251 192.375907 
L 660.150804 186.720395 
L 660.513358 157.74737 
L 661.238464 129.700617 
L 661.601018 121.142285 
L 661.963571 116.676563 
L 663.413785 170.512891 
L 663.776339 179.576951 
L 664.138892 175.409523 
L 664.501446 176.159589 
L 665.226553 159.755708 
L 665.589106 158.487234 
L 666.314213 169.824095 
L 666.676766 179.463752 
L 667.03932 199.076649 
L 667.764427 220.034848 
L 668.12698 219.215304 
L 668.489534 211.604476 
L 669.577194 146.75753 
L 670.302301 126.29765 
L 670.664855 127.969312 
L 671.027408 132.01385 
L 671.752515 161.459061 
L 672.477622 178.889353 
L 672.840175 182.460752 
L 673.202729 171.71549 
L 673.565282 170.130423 
L 673.927836 161.083606 
L 674.290389 155.194018 
L 674.652943 153.930445 
L 675.740603 195.179195 
L 676.103157 204.263812 
L 676.46571 206.600828 
L 676.828264 210.007623 
L 677.190817 199.907023 
L 678.278477 141.391434 
L 678.641031 119.909035 
L 679.003584 117.396396 
L 679.366138 116.78963 
L 679.728691 129.097721 
L 680.091245 135.081705 
L 680.453798 144.826215 
L 680.816352 164.718771 
L 681.178905 166.804895 
L 681.541459 168.205487 
L 681.904012 161.716015 
L 682.266566 151.443777 
L 682.629119 74.414001 
L 682.991673 140.311781 
L 683.354226 143.445693 
L 684.079333 155.978426 
L 684.441886 175.03345 
L 684.80444 186.458815 
L 685.166993 191.490009 
L 685.529547 190.784828 
L 685.8921 184.177507 
L 686.254654 161.34193 
L 686.617207 145.971803 
L 686.979761 117.204663 
L 687.704868 94.208716 
L 688.067421 94.509349 
L 688.429975 99.891252 
L 688.792528 107.117897 
L 689.155081 124.915618 
L 689.517635 134.883852 
L 689.880188 135.136341 
L 690.605295 149.867839 
L 691.330402 126.408698 
L 691.692956 120.848984 
L 692.055509 111.966348 
L 692.418063 130.684701 
L 692.780616 137.321566 
L 693.868277 175.355845 
L 694.23083 170.381299 
L 694.593384 162.645058 
L 694.955937 146.458893 
L 696.043597 85.584127 
L 696.768704 72.164764 
L 697.131258 79.500507 
L 697.856365 112.236728 
L 698.218918 117.977174 
L 698.944025 137.255385 
L 699.306579 126.055077 
L 700.394239 102.643569 
L 700.756792 106.641399 
L 701.119346 112.979997 
L 701.844453 135.768336 
L 702.207006 156.207926 
L 702.56956 161.567704 
L 702.932113 158.915009 
L 703.294667 153.227328 
L 703.65722 137.32919 
L 704.744881 79.310545 
L 705.107434 74.433409 
L 705.469988 66.96 
L 705.832541 77.246165 
L 706.557648 108.019906 
L 706.920201 119.154087 
L 707.282755 126.061887 
L 707.645308 129.380852 
L 708.007862 127.765831 
L 708.732969 109.779301 
L 709.095522 112.262463 
L 709.458076 109.418227 
L 709.820629 115.027597 
L 710.183183 139.003024 
L 710.545736 145.054847 
L 710.90829 159.609371 
L 711.270843 164.634072 
L 711.633397 165.91865 
L 711.99595 159.90457 
L 712.358503 144.001775 
L 712.721057 122.517578 
L 713.446164 91.337361 
L 713.808717 83.507623 
L 714.171271 85.431045 
L 714.533824 90.314013 
L 715.258931 117.251156 
L 715.621485 138.976422 
L 715.984038 144.389428 
L 716.346592 73.205962 
L 716.709145 134.832355 
L 717.071699 132.669739 
L 717.434252 127.991396 
L 717.796805 127.425724 
L 718.159359 126.273387 
L 718.521912 130.022165 
L 719.247019 164.088752 
L 719.609573 170.67001 
L 719.972126 182.359938 
L 720.33468 185.34595 
L 720.697233 175.165032 
L 722.147447 105.805051 
L 722.510001 96.290454 
L 723.235107 109.370546 
L 723.960214 133.904136 
L 724.322768 153.419046 
L 724.685321 154.415276 
L 725.047875 162.12341 
L 725.410428 152.398691 
L 725.772982 150.597873 
L 726.498089 136.190011 
L 727.223196 147.051366 
L 727.585749 160.300572 
L 727.948303 180.482413 
L 728.310856 192.030636 
L 729.035963 199.110315 
L 729.398516 189.758816 
L 730.123623 154.028339 
L 730.486177 127.571016 
L 730.84873 121.361301 
L 731.211284 103.279458 
L 731.573837 103.092759 
L 731.936391 117.409898 
L 732.298944 123.385209 
L 732.661498 147.326825 
L 733.024051 157.139777 
L 733.386605 162.457201 
L 733.749158 158.802858 
L 734.111712 159.847747 
L 734.474265 153.352887 
L 735.199372 133.685178 
L 735.561925 135.761604 
L 736.287032 161.765831 
L 737.012139 185.83354 
L 737.374693 191.764324 
L 737.737246 193.439246 
L 738.0998 182.030403 
L 738.824907 144.830745 
L 739.550014 107.528455 
L 739.912567 98.148887 
L 740.637674 107.701738 
L 741.000227 116.168678 
L 741.362781 133.453783 
L 741.725334 144.385817 
L 742.087888 147.622605 
L 742.450441 153.535473 
L 742.812995 144.02089 
L 743.175548 139.517305 
L 743.538102 132.067833 
L 743.900655 120.848354 
L 744.263209 120.675559 
L 744.625762 127.180857 
L 745.713422 168.620652 
L 746.075976 171.636325 
L 746.438529 177.50928 
L 747.163636 143.077739 
L 747.163636 143.077739 
" style="fill:none;stroke:#1f77b4;stroke-linecap:square;stroke-width:1.5;"/>
   </g>
   <g id="line2d_16">
    <path clip-path="url(#pbb2fdc0788)" d="M 745.713422 384.48 
L 745.713422 51.84 
" style="fill:none;stroke:#808080;stroke-linecap:square;"/>
   </g>
   <g id="patch_50">
    <path d="M 108 384.48 
L 108 51.84 
" style="fill:none;stroke:#000000;stroke-linecap:square;stroke-linejoin:miter;stroke-width:0.8;"/>
   </g>
   <g id="patch_51">
    <path d="M 777.6 384.48 
L 777.6 51.84 
" style="fill:none;stroke:#000000;stroke-linecap:square;stroke-linejoin:miter;stroke-width:0.8;"/>
   </g>
   <g id="patch_52">
    <path d="M 108 384.48 
L 777.6 384.48 
" style="fill:none;stroke:#000000;stroke-linecap:square;stroke-linejoin:miter;stroke-width:0.8;"/>
   </g>
   <g id="patch_53">
    <path d="M 108 51.84 
L 777.6 51.84 
" style="fill:none;stroke:#000000;stroke-linecap:square;stroke-linejoin:miter;stroke-width:0.8;"/>
   </g>
   <g id="text_17">
    <!-- A3Benchmark-TS4.csv -->
    <defs>
     <path d="M 34.1875 63.1875 
L 20.796875 26.90625 
L 47.609375 26.90625 
z
M 28.609375 72.90625 
L 39.796875 72.90625 
L 67.578125 0 
L 57.328125 0 
L 50.6875 18.703125 
L 17.828125 18.703125 
L 11.1875 0 
L 0.78125 0 
z
" id="DejaVuSans-65"/>
     <path d="M 19.671875 34.8125 
L 19.671875 8.109375 
L 35.5 8.109375 
Q 43.453125 8.109375 47.28125 11.40625 
Q 51.125 14.703125 51.125 21.484375 
Q 51.125 28.328125 47.28125 31.5625 
Q 43.453125 34.8125 35.5 34.8125 
z
M 19.671875 64.796875 
L 19.671875 42.828125 
L 34.28125 42.828125 
Q 41.5 42.828125 45.03125 45.53125 
Q 48.578125 48.25 48.578125 53.8125 
Q 48.578125 59.328125 45.03125 62.0625 
Q 41.5 64.796875 34.28125 64.796875 
z
M 9.8125 72.90625 
L 35.015625 72.90625 
Q 46.296875 72.90625 52.390625 68.21875 
Q 58.5 63.53125 58.5 54.890625 
Q 58.5 48.1875 55.375 44.234375 
Q 52.25 40.28125 46.1875 39.3125 
Q 53.46875 37.75 57.5 32.78125 
Q 61.53125 27.828125 61.53125 20.40625 
Q 61.53125 10.640625 54.890625 5.3125 
Q 48.25 0 35.984375 0 
L 9.8125 0 
z
" id="DejaVuSans-66"/>
     <path d="M 54.890625 33.015625 
L 54.890625 0 
L 45.90625 0 
L 45.90625 32.71875 
Q 45.90625 40.484375 42.875 44.328125 
Q 39.84375 48.1875 33.796875 48.1875 
Q 26.515625 48.1875 22.3125 43.546875 
Q 18.109375 38.921875 18.109375 30.90625 
L 18.109375 0 
L 9.078125 0 
L 9.078125 54.6875 
L 18.109375 54.6875 
L 18.109375 46.1875 
Q 21.34375 51.125 25.703125 53.5625 
Q 30.078125 56 35.796875 56 
Q 45.21875 56 50.046875 50.171875 
Q 54.890625 44.34375 54.890625 33.015625 
z
" id="DejaVuSans-110"/>
     <path d="M 48.78125 52.59375 
L 48.78125 44.1875 
Q 44.96875 46.296875 41.140625 47.34375 
Q 37.3125 48.390625 33.40625 48.390625 
Q 24.65625 48.390625 19.8125 42.84375 
Q 14.984375 37.3125 14.984375 27.296875 
Q 14.984375 17.28125 19.8125 11.734375 
Q 24.65625 6.203125 33.40625 6.203125 
Q 37.3125 6.203125 41.140625 7.25 
Q 44.96875 8.296875 48.78125 10.40625 
L 48.78125 2.09375 
Q 45.015625 0.34375 40.984375 -0.53125 
Q 36.96875 -1.421875 32.421875 -1.421875 
Q 20.0625 -1.421875 12.78125 6.34375 
Q 5.515625 14.109375 5.515625 27.296875 
Q 5.515625 40.671875 12.859375 48.328125 
Q 20.21875 56 33.015625 56 
Q 37.15625 56 41.109375 55.140625 
Q 45.0625 54.296875 48.78125 52.59375 
z
" id="DejaVuSans-99"/>
     <path d="M 54.890625 33.015625 
L 54.890625 0 
L 45.90625 0 
L 45.90625 32.71875 
Q 45.90625 40.484375 42.875 44.328125 
Q 39.84375 48.1875 33.796875 48.1875 
Q 26.515625 48.1875 22.3125 43.546875 
Q 18.109375 38.921875 18.109375 30.90625 
L 18.109375 0 
L 9.078125 0 
L 9.078125 75.984375 
L 18.109375 75.984375 
L 18.109375 46.1875 
Q 21.34375 51.125 25.703125 53.5625 
Q 30.078125 56 35.796875 56 
Q 45.21875 56 50.046875 50.171875 
Q 54.890625 44.34375 54.890625 33.015625 
z
" id="DejaVuSans-104"/>
     <path d="M 41.109375 46.296875 
Q 39.59375 47.171875 37.8125 47.578125 
Q 36.03125 48 33.890625 48 
Q 26.265625 48 22.1875 43.046875 
Q 18.109375 38.09375 18.109375 28.8125 
L 18.109375 0 
L 9.078125 0 
L 9.078125 54.6875 
L 18.109375 54.6875 
L 18.109375 46.1875 
Q 20.953125 51.171875 25.484375 53.578125 
Q 30.03125 56 36.53125 56 
Q 37.453125 56 38.578125 55.875 
Q 39.703125 55.765625 41.0625 55.515625 
z
" id="DejaVuSans-114"/>
     <path d="M 9.078125 75.984375 
L 18.109375 75.984375 
L 18.109375 31.109375 
L 44.921875 54.6875 
L 56.390625 54.6875 
L 27.390625 29.109375 
L 57.625 0 
L 45.90625 0 
L 18.109375 26.703125 
L 18.109375 0 
L 9.078125 0 
z
" id="DejaVuSans-107"/>
     <path d="M 4.890625 31.390625 
L 31.203125 31.390625 
L 31.203125 23.390625 
L 4.890625 23.390625 
z
" id="DejaVuSans-45"/>
     <path d="M 53.515625 70.515625 
L 53.515625 60.890625 
Q 47.90625 63.578125 42.921875 64.890625 
Q 37.9375 66.21875 33.296875 66.21875 
Q 25.25 66.21875 20.875 63.09375 
Q 16.5 59.96875 16.5 54.203125 
Q 16.5 49.359375 19.40625 46.890625 
Q 22.3125 44.4375 30.421875 42.921875 
L 36.375 41.703125 
Q 47.40625 39.59375 52.65625 34.296875 
Q 57.90625 29 57.90625 20.125 
Q 57.90625 9.515625 50.796875 4.046875 
Q 43.703125 -1.421875 29.984375 -1.421875 
Q 24.8125 -1.421875 18.96875 -0.25 
Q 13.140625 0.921875 6.890625 3.21875 
L 6.890625 13.375 
Q 12.890625 10.015625 18.65625 8.296875 
Q 24.421875 6.59375 29.984375 6.59375 
Q 38.421875 6.59375 43.015625 9.90625 
Q 47.609375 13.234375 47.609375 19.390625 
Q 47.609375 24.75 44.3125 27.78125 
Q 41.015625 30.8125 33.5 32.328125 
L 27.484375 33.5 
Q 16.453125 35.6875 11.515625 40.375 
Q 6.59375 45.0625 6.59375 53.421875 
Q 6.59375 63.09375 13.40625 68.65625 
Q 20.21875 74.21875 32.171875 74.21875 
Q 37.3125 74.21875 42.625 73.28125 
Q 47.953125 72.359375 53.515625 70.515625 
z
" id="DejaVuSans-83"/>
     <path d="M 10.6875 12.40625 
L 21 12.40625 
L 21 0 
L 10.6875 0 
z
" id="DejaVuSans-46"/>
     <path d="M 2.984375 54.6875 
L 12.5 54.6875 
L 29.59375 8.796875 
L 46.6875 54.6875 
L 56.203125 54.6875 
L 35.6875 0 
L 23.484375 0 
z
" id="DejaVuSans-118"/>
    </defs>
    <g transform="translate(375.373125 45.84)scale(0.12 -0.12)">
     <use xlink:href="#DejaVuSans-65"/>
     <use x="68.408203" xlink:href="#DejaVuSans-51"/>
     <use x="132.03125" xlink:href="#DejaVuSans-66"/>
     <use x="200.634766" xlink:href="#DejaVuSans-101"/>
     <use x="262.158203" xlink:href="#DejaVuSans-110"/>
     <use x="325.537109" xlink:href="#DejaVuSans-99"/>
     <use x="380.517578" xlink:href="#DejaVuSans-104"/>
     <use x="443.896484" xlink:href="#DejaVuSans-109"/>
     <use x="541.308594" xlink:href="#DejaVuSans-97"/>
     <use x="602.587891" xlink:href="#DejaVuSans-114"/>
     <use x="643.701172" xlink:href="#DejaVuSans-107"/>
     <use x="701.611328" xlink:href="#DejaVuSans-45"/>
     <use x="737.554688" xlink:href="#DejaVuSans-84"/>
     <use x="798.638672" xlink:href="#DejaVuSans-83"/>
     <use x="862.115234" xlink:href="#DejaVuSans-52"/>
     <use x="925.738281" xlink:href="#DejaVuSans-46"/>
     <use x="957.525391" xlink:href="#DejaVuSans-99"/>
     <use x="1012.505859" xlink:href="#DejaVuSans-115"/>
     <use x="1064.605469" xlink:href="#DejaVuSans-118"/>
    </g>
   </g>
   <g id="legend_1">
    <g id="patch_54">
     <path d="M 115 74.518125 
L 174.315625 74.518125 
Q 176.315625 74.518125 176.315625 72.518125 
L 176.315625 58.84 
Q 176.315625 56.84 174.315625 56.84 
L 115 56.84 
Q 113 56.84 113 58.84 
L 113 72.518125 
Q 113 74.518125 115 74.518125 
z
" style="fill:#ffffff;opacity:0.8;stroke:#cccccc;stroke-linejoin:miter;"/>
    </g>
    <g id="line2d_17">
     <path d="M 117 64.938438 
L 137 64.938438 
" style="fill:none;stroke:#1f77b4;stroke-linecap:square;stroke-width:1.5;"/>
    </g>
    <g id="line2d_18"/>
    <g id="text_18">
     <!-- value -->
     <g transform="translate(145 68.438438)scale(0.1 -0.1)">
      <use xlink:href="#DejaVuSans-118"/>
      <use x="59.179688" xlink:href="#DejaVuSans-97"/>
      <use x="120.458984" xlink:href="#DejaVuSans-108"/>
      <use x="148.242188" xlink:href="#DejaVuSans-117"/>
      <use x="211.621094" xlink:href="#DejaVuSans-101"/>
     </g>
    </g>
   </g>
  </g>
 </g>
 <defs>
  <clipPath id="pbb2fdc0788">
   <rect height="332.64" width="669.6" x="108" y="51.84"/>
  </clipPath>
 </defs>
</svg>
