<?xml version="1.0" encoding="utf-8" standalone="no"?>
<!DOCTYPE svg PUBLIC "-//W3C//DTD SVG 1.1//EN"
  "http://www.w3.org/Graphics/SVG/1.1/DTD/svg11.dtd">
<!-- Created with matplotlib (https://matplotlib.org/) -->
<svg height="432pt" version="1.1" viewBox="0 0 864 432" width="864pt" xmlns="http://www.w3.org/2000/svg" xmlns:xlink="http://www.w3.org/1999/xlink">
 <defs>
  <style type="text/css">
*{stroke-linecap:butt;stroke-linejoin:round;}
  </style>
 </defs>
 <g id="figure_1">
  <g id="patch_1">
   <path d="M 0 432 
L 864 432 
L 864 0 
L 0 0 
z
" style="fill:#ffffff;"/>
  </g>
  <g id="axes_1">
   <g id="patch_2">
    <path d="M 108 384.48 
L 777.6 384.48 
L 777.6 51.84 
L 108 51.84 
z
" style="fill:#ffffff;"/>
   </g>
   <g id="patch_3">
    <path clip-path="url(#pa7a011b397)" d="M 138.436364 384.48 
L 138.436364 51.84 
L 374.096118 51.84 
L 374.096118 384.48 
z
" style="fill:#0000ff;opacity:0.05;"/>
   </g>
   <g id="patch_4">
    <path clip-path="url(#pa7a011b397)" d="M 374.096118 384.48 
L 374.096118 51.84 
L 745.713422 51.84 
L 745.713422 384.48 
z
" style="fill:#ff0000;opacity:0.08;"/>
   </g>
   <g id="patch_5">
    <path clip-path="url(#pa7a011b397)" d="M 138.436364 384.48 
L 138.436364 51.84 
L 147.5002 51.84 
L 147.5002 384.48 
z
" style="fill:#008000;opacity:0.04;"/>
   </g>
   <g id="patch_6">
    <path clip-path="url(#pa7a011b397)" d="M 156.564037 384.48 
L 156.564037 51.84 
L 165.627874 51.84 
L 165.627874 384.48 
z
" style="fill:#008000;opacity:0.04;"/>
   </g>
   <g id="patch_7">
    <path clip-path="url(#pa7a011b397)" d="M 392.223791 384.48 
L 392.223791 371.1744 
L 401.287628 371.1744 
L 401.287628 384.48 
z
" style="fill:#ff6600;"/>
   </g>
   <g id="patch_8">
    <path clip-path="url(#pa7a011b397)" d="M 174.69171 384.48 
L 174.69171 51.84 
L 183.755547 51.84 
L 183.755547 384.48 
z
" style="fill:#008000;opacity:0.04;"/>
   </g>
   <g id="patch_9">
    <path clip-path="url(#pa7a011b397)" d="M 174.69171 371.1744 
L 174.69171 51.84 
L 183.755547 51.84 
L 183.755547 371.1744 
z
" style="fill:#008000;opacity:0.5;"/>
   </g>
   <g id="patch_10">
    <path clip-path="url(#pa7a011b397)" d="M 174.69171 384.48 
L 174.69171 371.1744 
L 183.755547 371.1744 
L 183.755547 384.48 
z
" style="fill:#ffe500;"/>
   </g>
   <g id="patch_11">
    <path clip-path="url(#pa7a011b397)" d="M 192.819384 384.48 
L 192.819384 51.84 
L 201.883221 51.84 
L 201.883221 384.48 
z
" style="fill:#008000;opacity:0.04;"/>
   </g>
   <g id="patch_12">
    <path clip-path="url(#pa7a011b397)" d="M 210.947057 384.48 
L 210.947057 51.84 
L 220.010894 51.84 
L 220.010894 384.48 
z
" style="fill:#008000;opacity:0.04;"/>
   </g>
   <g id="patch_13">
    <path clip-path="url(#pa7a011b397)" d="M 229.074731 384.48 
L 229.074731 51.84 
L 238.138567 51.84 
L 238.138567 384.48 
z
" style="fill:#008000;opacity:0.04;"/>
   </g>
   <g id="patch_14">
    <path clip-path="url(#pa7a011b397)" d="M 247.202404 384.48 
L 247.202404 51.84 
L 256.266241 51.84 
L 256.266241 384.48 
z
" style="fill:#008000;opacity:0.04;"/>
   </g>
   <g id="patch_15">
    <path clip-path="url(#pa7a011b397)" d="M 265.330077 384.48 
L 265.330077 51.84 
L 274.393914 51.84 
L 274.393914 384.48 
z
" style="fill:#008000;opacity:0.04;"/>
   </g>
   <g id="patch_16">
    <path clip-path="url(#pa7a011b397)" d="M 283.457751 384.48 
L 283.457751 51.84 
L 292.521588 51.84 
L 292.521588 384.48 
z
" style="fill:#008000;opacity:0.04;"/>
   </g>
   <g id="patch_17">
    <path clip-path="url(#pa7a011b397)" d="M 519.117505 384.48 
L 519.117505 371.1744 
L 528.181342 371.1744 
L 528.181342 384.48 
z
" style="fill:#ff6600;"/>
   </g>
   <g id="patch_18">
    <path clip-path="url(#pa7a011b397)" d="M 301.585424 384.48 
L 301.585424 51.84 
L 310.649261 51.84 
L 310.649261 384.48 
z
" style="fill:#008000;opacity:0.04;"/>
   </g>
   <g id="patch_19">
    <path clip-path="url(#pa7a011b397)" d="M 310.649261 371.1744 
L 310.649261 51.84 
L 319.713098 51.84 
L 319.713098 371.1744 
z
" style="fill:#008000;opacity:0.5;"/>
   </g>
   <g id="patch_20">
    <path clip-path="url(#pa7a011b397)" d="M 310.649261 384.48 
L 310.649261 371.1744 
L 319.713098 371.1744 
L 319.713098 384.48 
z
" style="fill:#ffe500;"/>
   </g>
   <g id="patch_21">
    <path clip-path="url(#pa7a011b397)" d="M 319.713098 384.48 
L 319.713098 51.84 
L 328.776934 51.84 
L 328.776934 384.48 
z
" style="fill:#008000;opacity:0.04;"/>
   </g>
   <g id="patch_22">
    <path clip-path="url(#pa7a011b397)" d="M 337.840771 384.48 
L 337.840771 51.84 
L 346.904608 51.84 
L 346.904608 384.48 
z
" style="fill:#008000;opacity:0.04;"/>
   </g>
   <g id="patch_23">
    <path clip-path="url(#pa7a011b397)" d="M 582.564362 384.48 
L 582.564362 371.1744 
L 591.628199 371.1744 
L 591.628199 384.48 
z
" style="fill:#ff6600;"/>
   </g>
   <g id="patch_24">
    <path clip-path="url(#pa7a011b397)" d="M 355.968444 384.48 
L 355.968444 51.84 
L 365.032281 51.84 
L 365.032281 384.48 
z
" style="fill:#008000;opacity:0.04;"/>
   </g>
   <g id="patch_25">
    <path clip-path="url(#pa7a011b397)" d="M 374.096118 384.48 
L 374.096118 51.84 
L 383.159955 51.84 
L 383.159955 384.48 
z
" style="fill:#008000;opacity:0.04;"/>
   </g>
   <g id="patch_26">
    <path clip-path="url(#pa7a011b397)" d="M 392.223791 384.48 
L 392.223791 51.84 
L 401.287628 51.84 
L 401.287628 384.48 
z
" style="fill:#008000;opacity:0.04;"/>
   </g>
   <g id="patch_27">
    <path clip-path="url(#pa7a011b397)" d="M 392.223791 371.1744 
L 392.223791 51.84 
L 401.287628 51.84 
L 401.287628 371.1744 
z
" style="fill:#008000;opacity:0.5;"/>
   </g>
   <g id="patch_28">
    <path clip-path="url(#pa7a011b397)" d="M 410.351465 384.48 
L 410.351465 51.84 
L 419.415301 51.84 
L 419.415301 384.48 
z
" style="fill:#008000;opacity:0.04;"/>
   </g>
   <g id="patch_29">
    <path clip-path="url(#pa7a011b397)" d="M 428.479138 384.48 
L 428.479138 51.84 
L 437.542975 51.84 
L 437.542975 384.48 
z
" style="fill:#008000;opacity:0.04;"/>
   </g>
   <g id="patch_30">
    <path clip-path="url(#pa7a011b397)" d="M 446.606811 384.48 
L 446.606811 51.84 
L 455.670648 51.84 
L 455.670648 384.48 
z
" style="fill:#008000;opacity:0.04;"/>
   </g>
   <g id="patch_31">
    <path clip-path="url(#pa7a011b397)" d="M 464.734485 384.48 
L 464.734485 51.84 
L 473.798322 51.84 
L 473.798322 384.48 
z
" style="fill:#008000;opacity:0.04;"/>
   </g>
   <g id="patch_32">
    <path clip-path="url(#pa7a011b397)" d="M 482.862158 384.48 
L 482.862158 51.84 
L 491.925995 51.84 
L 491.925995 384.48 
z
" style="fill:#008000;opacity:0.04;"/>
   </g>
   <g id="patch_33">
    <path clip-path="url(#pa7a011b397)" d="M 500.989832 384.48 
L 500.989832 51.84 
L 510.053668 51.84 
L 510.053668 384.48 
z
" style="fill:#008000;opacity:0.04;"/>
   </g>
   <g id="patch_34">
    <path clip-path="url(#pa7a011b397)" d="M 519.117505 384.48 
L 519.117505 51.84 
L 528.181342 51.84 
L 528.181342 384.48 
z
" style="fill:#008000;opacity:0.04;"/>
   </g>
   <g id="patch_35">
    <path clip-path="url(#pa7a011b397)" d="M 519.117505 371.1744 
L 519.117505 51.84 
L 528.181342 51.84 
L 528.181342 371.1744 
z
" style="fill:#008000;opacity:0.5;"/>
   </g>
   <g id="patch_36">
    <path clip-path="url(#pa7a011b397)" d="M 537.245178 384.48 
L 537.245178 51.84 
L 546.309015 51.84 
L 546.309015 384.48 
z
" style="fill:#008000;opacity:0.04;"/>
   </g>
   <g id="patch_37">
    <path clip-path="url(#pa7a011b397)" d="M 555.372852 384.48 
L 555.372852 51.84 
L 564.436689 51.84 
L 564.436689 384.48 
z
" style="fill:#008000;opacity:0.04;"/>
   </g>
   <g id="patch_38">
    <path clip-path="url(#pa7a011b397)" d="M 573.500525 384.48 
L 573.500525 51.84 
L 582.564362 51.84 
L 582.564362 384.48 
z
" style="fill:#008000;opacity:0.04;"/>
   </g>
   <g id="patch_39">
    <path clip-path="url(#pa7a011b397)" d="M 582.564362 371.1744 
L 582.564362 51.84 
L 591.628199 51.84 
L 591.628199 371.1744 
z
" style="fill:#008000;opacity:0.5;"/>
   </g>
   <g id="patch_40">
    <path clip-path="url(#pa7a011b397)" d="M 591.628199 384.48 
L 591.628199 51.84 
L 600.692035 51.84 
L 600.692035 384.48 
z
" style="fill:#008000;opacity:0.04;"/>
   </g>
   <g id="patch_41">
    <path clip-path="url(#pa7a011b397)" d="M 609.755872 384.48 
L 609.755872 51.84 
L 618.819709 51.84 
L 618.819709 384.48 
z
" style="fill:#008000;opacity:0.04;"/>
   </g>
   <g id="patch_42">
    <path clip-path="url(#pa7a011b397)" d="M 609.755872 371.1744 
L 609.755872 51.84 
L 618.819709 51.84 
L 618.819709 371.1744 
z
" style="fill:#008000;opacity:0.5;"/>
   </g>
   <g id="patch_43">
    <path clip-path="url(#pa7a011b397)" d="M 618.819709 371.1744 
L 618.819709 51.84 
L 627.883545 51.84 
L 627.883545 371.1744 
z
" style="fill:#008000;opacity:0.5;"/>
   </g>
   <g id="patch_44">
    <path clip-path="url(#pa7a011b397)" d="M 627.883545 384.48 
L 627.883545 51.84 
L 636.947382 51.84 
L 636.947382 384.48 
z
" style="fill:#008000;opacity:0.04;"/>
   </g>
   <g id="patch_45">
    <path clip-path="url(#pa7a011b397)" d="M 627.883545 371.1744 
L 627.883545 51.84 
L 636.947382 51.84 
L 636.947382 371.1744 
z
" style="fill:#008000;opacity:0.5;"/>
   </g>
   <g id="patch_46">
    <path clip-path="url(#pa7a011b397)" d="M 646.011219 384.48 
L 646.011219 51.84 
L 655.075055 51.84 
L 655.075055 384.48 
z
" style="fill:#008000;opacity:0.04;"/>
   </g>
   <g id="patch_47">
    <path clip-path="url(#pa7a011b397)" d="M 664.138892 384.48 
L 664.138892 51.84 
L 673.202729 51.84 
L 673.202729 384.48 
z
" style="fill:#008000;opacity:0.04;"/>
   </g>
   <g id="patch_48">
    <path clip-path="url(#pa7a011b397)" d="M 682.266566 384.48 
L 682.266566 51.84 
L 691.330402 51.84 
L 691.330402 384.48 
z
" style="fill:#008000;opacity:0.04;"/>
   </g>
   <g id="patch_49">
    <path clip-path="url(#pa7a011b397)" d="M 700.394239 384.48 
L 700.394239 51.84 
L 709.458076 51.84 
L 709.458076 384.48 
z
" style="fill:#008000;opacity:0.04;"/>
   </g>
   <g id="patch_50">
    <path clip-path="url(#pa7a011b397)" d="M 718.521912 384.48 
L 718.521912 51.84 
L 727.585749 51.84 
L 727.585749 384.48 
z
" style="fill:#008000;opacity:0.04;"/>
   </g>
   <g id="patch_51">
    <path clip-path="url(#pa7a011b397)" d="M 736.649586 384.48 
L 736.649586 51.84 
L 745.713422 51.84 
L 745.713422 384.48 
z
" style="fill:#008000;opacity:0.04;"/>
   </g>
   <g id="matplotlib.axis_1">
    <g id="xtick_1">
     <g id="line2d_1">
      <defs>
       <path d="M 0 0 
L 0 3.5 
" id="mac80c1bf5a" style="stroke:#000000;stroke-width:0.8;"/>
      </defs>
      <g>
       <use style="stroke:#000000;stroke-width:0.8;" x="138.436364" xlink:href="#mac80c1bf5a" y="384.48"/>
      </g>
     </g>
     <g id="text_1">
      <!-- 0 -->
      <defs>
       <path d="M 31.78125 66.40625 
Q 24.171875 66.40625 20.328125 58.90625 
Q 16.5 51.421875 16.5 36.375 
Q 16.5 21.390625 20.328125 13.890625 
Q 24.171875 6.390625 31.78125 6.390625 
Q 39.453125 6.390625 43.28125 13.890625 
Q 47.125 21.390625 47.125 36.375 
Q 47.125 51.421875 43.28125 58.90625 
Q 39.453125 66.40625 31.78125 66.40625 
z
M 31.78125 74.21875 
Q 44.046875 74.21875 50.515625 64.515625 
Q 56.984375 54.828125 56.984375 36.375 
Q 56.984375 17.96875 50.515625 8.265625 
Q 44.046875 -1.421875 31.78125 -1.421875 
Q 19.53125 -1.421875 13.0625 8.265625 
Q 6.59375 17.96875 6.59375 36.375 
Q 6.59375 54.828125 13.0625 64.515625 
Q 19.53125 74.21875 31.78125 74.21875 
z
" id="DejaVuSans-48"/>
      </defs>
      <g transform="translate(135.255114 399.078438)scale(0.1 -0.1)">
       <use xlink:href="#DejaVuSans-48"/>
      </g>
     </g>
    </g>
    <g id="xtick_2">
     <g id="line2d_2">
      <g>
       <use style="stroke:#000000;stroke-width:0.8;" x="229.074731" xlink:href="#mac80c1bf5a" y="384.48"/>
      </g>
     </g>
     <g id="text_2">
      <!-- 250 -->
      <defs>
       <path d="M 19.1875 8.296875 
L 53.609375 8.296875 
L 53.609375 0 
L 7.328125 0 
L 7.328125 8.296875 
Q 12.9375 14.109375 22.625 23.890625 
Q 32.328125 33.6875 34.8125 36.53125 
Q 39.546875 41.84375 41.421875 45.53125 
Q 43.3125 49.21875 43.3125 52.78125 
Q 43.3125 58.59375 39.234375 62.25 
Q 35.15625 65.921875 28.609375 65.921875 
Q 23.96875 65.921875 18.8125 64.3125 
Q 13.671875 62.703125 7.8125 59.421875 
L 7.8125 69.390625 
Q 13.765625 71.78125 18.9375 73 
Q 24.125 74.21875 28.421875 74.21875 
Q 39.75 74.21875 46.484375 68.546875 
Q 53.21875 62.890625 53.21875 53.421875 
Q 53.21875 48.921875 51.53125 44.890625 
Q 49.859375 40.875 45.40625 35.40625 
Q 44.1875 33.984375 37.640625 27.21875 
Q 31.109375 20.453125 19.1875 8.296875 
z
" id="DejaVuSans-50"/>
       <path d="M 10.796875 72.90625 
L 49.515625 72.90625 
L 49.515625 64.59375 
L 19.828125 64.59375 
L 19.828125 46.734375 
Q 21.96875 47.46875 24.109375 47.828125 
Q 26.265625 48.1875 28.421875 48.1875 
Q 40.625 48.1875 47.75 41.5 
Q 54.890625 34.8125 54.890625 23.390625 
Q 54.890625 11.625 47.5625 5.09375 
Q 40.234375 -1.421875 26.90625 -1.421875 
Q 22.3125 -1.421875 17.546875 -0.640625 
Q 12.796875 0.140625 7.71875 1.703125 
L 7.71875 11.625 
Q 12.109375 9.234375 16.796875 8.0625 
Q 21.484375 6.890625 26.703125 6.890625 
Q 35.15625 6.890625 40.078125 11.328125 
Q 45.015625 15.765625 45.015625 23.390625 
Q 45.015625 31 40.078125 35.4375 
Q 35.15625 39.890625 26.703125 39.890625 
Q 22.75 39.890625 18.8125 39.015625 
Q 14.890625 38.140625 10.796875 36.28125 
z
" id="DejaVuSans-53"/>
      </defs>
      <g transform="translate(219.530981 399.078438)scale(0.1 -0.1)">
       <use xlink:href="#DejaVuSans-50"/>
       <use x="63.623047" xlink:href="#DejaVuSans-53"/>
       <use x="127.246094" xlink:href="#DejaVuSans-48"/>
      </g>
     </g>
    </g>
    <g id="xtick_3">
     <g id="line2d_3">
      <g>
       <use style="stroke:#000000;stroke-width:0.8;" x="319.713098" xlink:href="#mac80c1bf5a" y="384.48"/>
      </g>
     </g>
     <g id="text_3">
      <!-- 500 -->
      <g transform="translate(310.169348 399.078438)scale(0.1 -0.1)">
       <use xlink:href="#DejaVuSans-53"/>
       <use x="63.623047" xlink:href="#DejaVuSans-48"/>
       <use x="127.246094" xlink:href="#DejaVuSans-48"/>
      </g>
     </g>
    </g>
    <g id="xtick_4">
     <g id="line2d_4">
      <g>
       <use style="stroke:#000000;stroke-width:0.8;" x="410.351465" xlink:href="#mac80c1bf5a" y="384.48"/>
      </g>
     </g>
     <g id="text_4">
      <!-- 750 -->
      <defs>
       <path d="M 8.203125 72.90625 
L 55.078125 72.90625 
L 55.078125 68.703125 
L 28.609375 0 
L 18.3125 0 
L 43.21875 64.59375 
L 8.203125 64.59375 
z
" id="DejaVuSans-55"/>
      </defs>
      <g transform="translate(400.807715 399.078438)scale(0.1 -0.1)">
       <use xlink:href="#DejaVuSans-55"/>
       <use x="63.623047" xlink:href="#DejaVuSans-53"/>
       <use x="127.246094" xlink:href="#DejaVuSans-48"/>
      </g>
     </g>
    </g>
    <g id="xtick_5">
     <g id="line2d_5">
      <g>
       <use style="stroke:#000000;stroke-width:0.8;" x="500.989832" xlink:href="#mac80c1bf5a" y="384.48"/>
      </g>
     </g>
     <g id="text_5">
      <!-- 1000 -->
      <defs>
       <path d="M 12.40625 8.296875 
L 28.515625 8.296875 
L 28.515625 63.921875 
L 10.984375 60.40625 
L 10.984375 69.390625 
L 28.421875 72.90625 
L 38.28125 72.90625 
L 38.28125 8.296875 
L 54.390625 8.296875 
L 54.390625 0 
L 12.40625 0 
z
" id="DejaVuSans-49"/>
      </defs>
      <g transform="translate(488.264832 399.078438)scale(0.1 -0.1)">
       <use xlink:href="#DejaVuSans-49"/>
       <use x="63.623047" xlink:href="#DejaVuSans-48"/>
       <use x="127.246094" xlink:href="#DejaVuSans-48"/>
       <use x="190.869141" xlink:href="#DejaVuSans-48"/>
      </g>
     </g>
    </g>
    <g id="xtick_6">
     <g id="line2d_6">
      <g>
       <use style="stroke:#000000;stroke-width:0.8;" x="591.628199" xlink:href="#mac80c1bf5a" y="384.48"/>
      </g>
     </g>
     <g id="text_6">
      <!-- 1250 -->
      <g transform="translate(578.903199 399.078438)scale(0.1 -0.1)">
       <use xlink:href="#DejaVuSans-49"/>
       <use x="63.623047" xlink:href="#DejaVuSans-50"/>
       <use x="127.246094" xlink:href="#DejaVuSans-53"/>
       <use x="190.869141" xlink:href="#DejaVuSans-48"/>
      </g>
     </g>
    </g>
    <g id="xtick_7">
     <g id="line2d_7">
      <g>
       <use style="stroke:#000000;stroke-width:0.8;" x="682.266566" xlink:href="#mac80c1bf5a" y="384.48"/>
      </g>
     </g>
     <g id="text_7">
      <!-- 1500 -->
      <g transform="translate(669.541566 399.078438)scale(0.1 -0.1)">
       <use xlink:href="#DejaVuSans-49"/>
       <use x="63.623047" xlink:href="#DejaVuSans-53"/>
       <use x="127.246094" xlink:href="#DejaVuSans-48"/>
       <use x="190.869141" xlink:href="#DejaVuSans-48"/>
      </g>
     </g>
    </g>
    <g id="xtick_8">
     <g id="line2d_8">
      <g>
       <use style="stroke:#000000;stroke-width:0.8;" x="772.904933" xlink:href="#mac80c1bf5a" y="384.48"/>
      </g>
     </g>
     <g id="text_8">
      <!-- 1750 -->
      <g transform="translate(760.179933 399.078438)scale(0.1 -0.1)">
       <use xlink:href="#DejaVuSans-49"/>
       <use x="63.623047" xlink:href="#DejaVuSans-55"/>
       <use x="127.246094" xlink:href="#DejaVuSans-53"/>
       <use x="190.869141" xlink:href="#DejaVuSans-48"/>
      </g>
     </g>
    </g>
    <g id="text_9">
     <!-- Timestamp -->
     <defs>
      <path d="M -0.296875 72.90625 
L 61.375 72.90625 
L 61.375 64.59375 
L 35.5 64.59375 
L 35.5 0 
L 25.59375 0 
L 25.59375 64.59375 
L -0.296875 64.59375 
z
" id="DejaVuSans-84"/>
      <path d="M 9.421875 54.6875 
L 18.40625 54.6875 
L 18.40625 0 
L 9.421875 0 
z
M 9.421875 75.984375 
L 18.40625 75.984375 
L 18.40625 64.59375 
L 9.421875 64.59375 
z
" id="DejaVuSans-105"/>
      <path d="M 52 44.1875 
Q 55.375 50.25 60.0625 53.125 
Q 64.75 56 71.09375 56 
Q 79.640625 56 84.28125 50.015625 
Q 88.921875 44.046875 88.921875 33.015625 
L 88.921875 0 
L 79.890625 0 
L 79.890625 32.71875 
Q 79.890625 40.578125 77.09375 44.375 
Q 74.3125 48.1875 68.609375 48.1875 
Q 61.625 48.1875 57.5625 43.546875 
Q 53.515625 38.921875 53.515625 30.90625 
L 53.515625 0 
L 44.484375 0 
L 44.484375 32.71875 
Q 44.484375 40.625 41.703125 44.40625 
Q 38.921875 48.1875 33.109375 48.1875 
Q 26.21875 48.1875 22.15625 43.53125 
Q 18.109375 38.875 18.109375 30.90625 
L 18.109375 0 
L 9.078125 0 
L 9.078125 54.6875 
L 18.109375 54.6875 
L 18.109375 46.1875 
Q 21.1875 51.21875 25.484375 53.609375 
Q 29.78125 56 35.6875 56 
Q 41.65625 56 45.828125 52.96875 
Q 50 49.953125 52 44.1875 
z
" id="DejaVuSans-109"/>
      <path d="M 56.203125 29.59375 
L 56.203125 25.203125 
L 14.890625 25.203125 
Q 15.484375 15.921875 20.484375 11.0625 
Q 25.484375 6.203125 34.421875 6.203125 
Q 39.59375 6.203125 44.453125 7.46875 
Q 49.3125 8.734375 54.109375 11.28125 
L 54.109375 2.78125 
Q 49.265625 0.734375 44.1875 -0.34375 
Q 39.109375 -1.421875 33.890625 -1.421875 
Q 20.796875 -1.421875 13.15625 6.1875 
Q 5.515625 13.8125 5.515625 26.8125 
Q 5.515625 40.234375 12.765625 48.109375 
Q 20.015625 56 32.328125 56 
Q 43.359375 56 49.78125 48.890625 
Q 56.203125 41.796875 56.203125 29.59375 
z
M 47.21875 32.234375 
Q 47.125 39.59375 43.09375 43.984375 
Q 39.0625 48.390625 32.421875 48.390625 
Q 24.90625 48.390625 20.390625 44.140625 
Q 15.875 39.890625 15.1875 32.171875 
z
" id="DejaVuSans-101"/>
      <path d="M 44.28125 53.078125 
L 44.28125 44.578125 
Q 40.484375 46.53125 36.375 47.5 
Q 32.28125 48.484375 27.875 48.484375 
Q 21.1875 48.484375 17.84375 46.4375 
Q 14.5 44.390625 14.5 40.28125 
Q 14.5 37.15625 16.890625 35.375 
Q 19.28125 33.59375 26.515625 31.984375 
L 29.59375 31.296875 
Q 39.15625 29.25 43.1875 25.515625 
Q 47.21875 21.78125 47.21875 15.09375 
Q 47.21875 7.46875 41.1875 3.015625 
Q 35.15625 -1.421875 24.609375 -1.421875 
Q 20.21875 -1.421875 15.453125 -0.5625 
Q 10.6875 0.296875 5.421875 2 
L 5.421875 11.28125 
Q 10.40625 8.6875 15.234375 7.390625 
Q 20.0625 6.109375 24.8125 6.109375 
Q 31.15625 6.109375 34.5625 8.28125 
Q 37.984375 10.453125 37.984375 14.40625 
Q 37.984375 18.0625 35.515625 20.015625 
Q 33.0625 21.96875 24.703125 23.78125 
L 21.578125 24.515625 
Q 13.234375 26.265625 9.515625 29.90625 
Q 5.8125 33.546875 5.8125 39.890625 
Q 5.8125 47.609375 11.28125 51.796875 
Q 16.75 56 26.8125 56 
Q 31.78125 56 36.171875 55.265625 
Q 40.578125 54.546875 44.28125 53.078125 
z
" id="DejaVuSans-115"/>
      <path d="M 18.3125 70.21875 
L 18.3125 54.6875 
L 36.8125 54.6875 
L 36.8125 47.703125 
L 18.3125 47.703125 
L 18.3125 18.015625 
Q 18.3125 11.328125 20.140625 9.421875 
Q 21.96875 7.515625 27.59375 7.515625 
L 36.8125 7.515625 
L 36.8125 0 
L 27.59375 0 
Q 17.1875 0 13.234375 3.875 
Q 9.28125 7.765625 9.28125 18.015625 
L 9.28125 47.703125 
L 2.6875 47.703125 
L 2.6875 54.6875 
L 9.28125 54.6875 
L 9.28125 70.21875 
z
" id="DejaVuSans-116"/>
      <path d="M 34.28125 27.484375 
Q 23.390625 27.484375 19.1875 25 
Q 14.984375 22.515625 14.984375 16.5 
Q 14.984375 11.71875 18.140625 8.90625 
Q 21.296875 6.109375 26.703125 6.109375 
Q 34.1875 6.109375 38.703125 11.40625 
Q 43.21875 16.703125 43.21875 25.484375 
L 43.21875 27.484375 
z
M 52.203125 31.203125 
L 52.203125 0 
L 43.21875 0 
L 43.21875 8.296875 
Q 40.140625 3.328125 35.546875 0.953125 
Q 30.953125 -1.421875 24.3125 -1.421875 
Q 15.921875 -1.421875 10.953125 3.296875 
Q 6 8.015625 6 15.921875 
Q 6 25.140625 12.171875 29.828125 
Q 18.359375 34.515625 30.609375 34.515625 
L 43.21875 34.515625 
L 43.21875 35.40625 
Q 43.21875 41.609375 39.140625 45 
Q 35.0625 48.390625 27.6875 48.390625 
Q 23 48.390625 18.546875 47.265625 
Q 14.109375 46.140625 10.015625 43.890625 
L 10.015625 52.203125 
Q 14.9375 54.109375 19.578125 55.046875 
Q 24.21875 56 28.609375 56 
Q 40.484375 56 46.34375 49.84375 
Q 52.203125 43.703125 52.203125 31.203125 
z
" id="DejaVuSans-97"/>
      <path d="M 18.109375 8.203125 
L 18.109375 -20.796875 
L 9.078125 -20.796875 
L 9.078125 54.6875 
L 18.109375 54.6875 
L 18.109375 46.390625 
Q 20.953125 51.265625 25.265625 53.625 
Q 29.59375 56 35.59375 56 
Q 45.5625 56 51.78125 48.09375 
Q 58.015625 40.1875 58.015625 27.296875 
Q 58.015625 14.40625 51.78125 6.484375 
Q 45.5625 -1.421875 35.59375 -1.421875 
Q 29.59375 -1.421875 25.265625 0.953125 
Q 20.953125 3.328125 18.109375 8.203125 
z
M 48.6875 27.296875 
Q 48.6875 37.203125 44.609375 42.84375 
Q 40.53125 48.484375 33.40625 48.484375 
Q 26.265625 48.484375 22.1875 42.84375 
Q 18.109375 37.203125 18.109375 27.296875 
Q 18.109375 17.390625 22.1875 11.75 
Q 26.265625 6.109375 33.40625 6.109375 
Q 40.53125 6.109375 44.609375 11.75 
Q 48.6875 17.390625 48.6875 27.296875 
z
" id="DejaVuSans-112"/>
     </defs>
     <g transform="translate(414.739062 412.756563)scale(0.1 -0.1)">
      <use xlink:href="#DejaVuSans-84"/>
      <use x="61.037109" xlink:href="#DejaVuSans-105"/>
      <use x="88.820312" xlink:href="#DejaVuSans-109"/>
      <use x="186.232422" xlink:href="#DejaVuSans-101"/>
      <use x="247.755859" xlink:href="#DejaVuSans-115"/>
      <use x="299.855469" xlink:href="#DejaVuSans-116"/>
      <use x="339.064453" xlink:href="#DejaVuSans-97"/>
      <use x="400.34375" xlink:href="#DejaVuSans-109"/>
      <use x="497.755859" xlink:href="#DejaVuSans-112"/>
     </g>
    </g>
   </g>
   <g id="matplotlib.axis_2">
    <g id="ytick_1">
     <g id="line2d_9">
      <defs>
       <path d="M 0 0 
L -3.5 0 
" id="md7a0dacceb" style="stroke:#000000;stroke-width:0.8;"/>
      </defs>
      <g>
       <use style="stroke:#000000;stroke-width:0.8;" x="108" xlink:href="#md7a0dacceb" y="351.761382"/>
      </g>
     </g>
     <g id="text_10">
      <!-- −3500 -->
      <defs>
       <path d="M 10.59375 35.5 
L 73.1875 35.5 
L 73.1875 27.203125 
L 10.59375 27.203125 
z
" id="DejaVuSans-8722"/>
       <path d="M 40.578125 39.3125 
Q 47.65625 37.796875 51.625 33 
Q 55.609375 28.21875 55.609375 21.1875 
Q 55.609375 10.40625 48.1875 4.484375 
Q 40.765625 -1.421875 27.09375 -1.421875 
Q 22.515625 -1.421875 17.65625 -0.515625 
Q 12.796875 0.390625 7.625 2.203125 
L 7.625 11.71875 
Q 11.71875 9.328125 16.59375 8.109375 
Q 21.484375 6.890625 26.8125 6.890625 
Q 36.078125 6.890625 40.9375 10.546875 
Q 45.796875 14.203125 45.796875 21.1875 
Q 45.796875 27.640625 41.28125 31.265625 
Q 36.765625 34.90625 28.71875 34.90625 
L 20.21875 34.90625 
L 20.21875 43.015625 
L 29.109375 43.015625 
Q 36.375 43.015625 40.234375 45.921875 
Q 44.09375 48.828125 44.09375 54.296875 
Q 44.09375 59.90625 40.109375 62.90625 
Q 36.140625 65.921875 28.71875 65.921875 
Q 24.65625 65.921875 20.015625 65.03125 
Q 15.375 64.15625 9.8125 62.3125 
L 9.8125 71.09375 
Q 15.4375 72.65625 20.34375 73.4375 
Q 25.25 74.21875 29.59375 74.21875 
Q 40.828125 74.21875 47.359375 69.109375 
Q 53.90625 64.015625 53.90625 55.328125 
Q 53.90625 49.265625 50.4375 45.09375 
Q 46.96875 40.921875 40.578125 39.3125 
z
" id="DejaVuSans-51"/>
      </defs>
      <g transform="translate(67.170312 355.560601)scale(0.1 -0.1)">
       <use xlink:href="#DejaVuSans-8722"/>
       <use x="83.789062" xlink:href="#DejaVuSans-51"/>
       <use x="147.412109" xlink:href="#DejaVuSans-53"/>
       <use x="211.035156" xlink:href="#DejaVuSans-48"/>
       <use x="274.658203" xlink:href="#DejaVuSans-48"/>
      </g>
     </g>
    </g>
    <g id="ytick_2">
     <g id="line2d_10">
      <g>
       <use style="stroke:#000000;stroke-width:0.8;" x="108" xlink:href="#md7a0dacceb" y="314.702934"/>
      </g>
     </g>
     <g id="text_11">
      <!-- −3000 -->
      <g transform="translate(67.170312 318.502153)scale(0.1 -0.1)">
       <use xlink:href="#DejaVuSans-8722"/>
       <use x="83.789062" xlink:href="#DejaVuSans-51"/>
       <use x="147.412109" xlink:href="#DejaVuSans-48"/>
       <use x="211.035156" xlink:href="#DejaVuSans-48"/>
       <use x="274.658203" xlink:href="#DejaVuSans-48"/>
      </g>
     </g>
    </g>
    <g id="ytick_3">
     <g id="line2d_11">
      <g>
       <use style="stroke:#000000;stroke-width:0.8;" x="108" xlink:href="#md7a0dacceb" y="277.644485"/>
      </g>
     </g>
     <g id="text_12">
      <!-- −2500 -->
      <g transform="translate(67.170312 281.443704)scale(0.1 -0.1)">
       <use xlink:href="#DejaVuSans-8722"/>
       <use x="83.789062" xlink:href="#DejaVuSans-50"/>
       <use x="147.412109" xlink:href="#DejaVuSans-53"/>
       <use x="211.035156" xlink:href="#DejaVuSans-48"/>
       <use x="274.658203" xlink:href="#DejaVuSans-48"/>
      </g>
     </g>
    </g>
    <g id="ytick_4">
     <g id="line2d_12">
      <g>
       <use style="stroke:#000000;stroke-width:0.8;" x="108" xlink:href="#md7a0dacceb" y="240.586037"/>
      </g>
     </g>
     <g id="text_13">
      <!-- −2000 -->
      <g transform="translate(67.170312 244.385256)scale(0.1 -0.1)">
       <use xlink:href="#DejaVuSans-8722"/>
       <use x="83.789062" xlink:href="#DejaVuSans-50"/>
       <use x="147.412109" xlink:href="#DejaVuSans-48"/>
       <use x="211.035156" xlink:href="#DejaVuSans-48"/>
       <use x="274.658203" xlink:href="#DejaVuSans-48"/>
      </g>
     </g>
    </g>
    <g id="ytick_5">
     <g id="line2d_13">
      <g>
       <use style="stroke:#000000;stroke-width:0.8;" x="108" xlink:href="#md7a0dacceb" y="203.527589"/>
      </g>
     </g>
     <g id="text_14">
      <!-- −1500 -->
      <g transform="translate(67.170312 207.326807)scale(0.1 -0.1)">
       <use xlink:href="#DejaVuSans-8722"/>
       <use x="83.789062" xlink:href="#DejaVuSans-49"/>
       <use x="147.412109" xlink:href="#DejaVuSans-53"/>
       <use x="211.035156" xlink:href="#DejaVuSans-48"/>
       <use x="274.658203" xlink:href="#DejaVuSans-48"/>
      </g>
     </g>
    </g>
    <g id="ytick_6">
     <g id="line2d_14">
      <g>
       <use style="stroke:#000000;stroke-width:0.8;" x="108" xlink:href="#md7a0dacceb" y="166.46914"/>
      </g>
     </g>
     <g id="text_15">
      <!-- −1000 -->
      <g transform="translate(67.170312 170.268359)scale(0.1 -0.1)">
       <use xlink:href="#DejaVuSans-8722"/>
       <use x="83.789062" xlink:href="#DejaVuSans-49"/>
       <use x="147.412109" xlink:href="#DejaVuSans-48"/>
       <use x="211.035156" xlink:href="#DejaVuSans-48"/>
       <use x="274.658203" xlink:href="#DejaVuSans-48"/>
      </g>
     </g>
    </g>
    <g id="ytick_7">
     <g id="line2d_15">
      <g>
       <use style="stroke:#000000;stroke-width:0.8;" x="108" xlink:href="#md7a0dacceb" y="129.410692"/>
      </g>
     </g>
     <g id="text_16">
      <!-- −500 -->
      <g transform="translate(73.532813 133.209911)scale(0.1 -0.1)">
       <use xlink:href="#DejaVuSans-8722"/>
       <use x="83.789062" xlink:href="#DejaVuSans-53"/>
       <use x="147.412109" xlink:href="#DejaVuSans-48"/>
       <use x="211.035156" xlink:href="#DejaVuSans-48"/>
      </g>
     </g>
    </g>
    <g id="ytick_8">
     <g id="line2d_16">
      <g>
       <use style="stroke:#000000;stroke-width:0.8;" x="108" xlink:href="#md7a0dacceb" y="92.352243"/>
      </g>
     </g>
     <g id="text_17">
      <!-- 0 -->
      <g transform="translate(94.6375 96.151462)scale(0.1 -0.1)">
       <use xlink:href="#DejaVuSans-48"/>
      </g>
     </g>
    </g>
    <g id="ytick_9">
     <g id="line2d_17">
      <g>
       <use style="stroke:#000000;stroke-width:0.8;" x="108" xlink:href="#md7a0dacceb" y="55.293795"/>
      </g>
     </g>
     <g id="text_18">
      <!-- 500 -->
      <g transform="translate(81.9125 59.093014)scale(0.1 -0.1)">
       <use xlink:href="#DejaVuSans-53"/>
       <use x="63.623047" xlink:href="#DejaVuSans-48"/>
       <use x="127.246094" xlink:href="#DejaVuSans-48"/>
      </g>
     </g>
    </g>
    <g id="text_19">
     <!-- Value -->
     <defs>
      <path d="M 28.609375 0 
L 0.78125 72.90625 
L 11.078125 72.90625 
L 34.1875 11.53125 
L 57.328125 72.90625 
L 67.578125 72.90625 
L 39.796875 0 
z
" id="DejaVuSans-86"/>
      <path d="M 9.421875 75.984375 
L 18.40625 75.984375 
L 18.40625 0 
L 9.421875 0 
z
" id="DejaVuSans-108"/>
      <path d="M 8.5 21.578125 
L 8.5 54.6875 
L 17.484375 54.6875 
L 17.484375 21.921875 
Q 17.484375 14.15625 20.5 10.265625 
Q 23.53125 6.390625 29.59375 6.390625 
Q 36.859375 6.390625 41.078125 11.03125 
Q 45.3125 15.671875 45.3125 23.6875 
L 45.3125 54.6875 
L 54.296875 54.6875 
L 54.296875 0 
L 45.3125 0 
L 45.3125 8.40625 
Q 42.046875 3.421875 37.71875 1 
Q 33.40625 -1.421875 27.6875 -1.421875 
Q 18.265625 -1.421875 13.375 4.4375 
Q 8.5 10.296875 8.5 21.578125 
z
M 31.109375 56 
z
" id="DejaVuSans-117"/>
     </defs>
     <g transform="translate(61.090625 232.273281)rotate(-90)scale(0.1 -0.1)">
      <use xlink:href="#DejaVuSans-86"/>
      <use x="68.298828" xlink:href="#DejaVuSans-97"/>
      <use x="129.578125" xlink:href="#DejaVuSans-108"/>
      <use x="157.361328" xlink:href="#DejaVuSans-117"/>
      <use x="220.740234" xlink:href="#DejaVuSans-101"/>
     </g>
    </g>
   </g>
   <g id="line2d_18">
    <path clip-path="url(#pa7a011b397)" d="M 138.436364 92.621949 
L 139.524024 66.96 
L 139.886578 72.053867 
L 140.249131 72.865379 
L 140.611684 77.37397 
L 140.974238 87.001759 
L 141.699345 98.791138 
L 142.061898 103.234241 
L 142.424452 96.12012 
L 142.787005 92.831944 
L 143.149559 84.382296 
L 143.512112 92.08606 
L 144.237219 86.397431 
L 144.962326 105.56924 
L 145.32488 112.548943 
L 145.687433 116.637606 
L 146.049986 115.565255 
L 146.41254 110.4227 
L 146.775093 109.953759 
L 147.137647 87.451355 
L 147.5002 80.356227 
L 147.862754 76.713536 
L 148.225307 68.410087 
L 148.587861 69.867473 
L 148.950414 72.80284 
L 150.038075 97.533639 
L 150.400628 97.113682 
L 150.763182 100.93662 
L 151.125735 98.710336 
L 151.488288 93.73128 
L 151.850842 93.52731 
L 152.213395 84.941107 
L 152.575949 92.119189 
L 152.938502 92.963281 
L 154.026163 116.788228 
L 154.388716 123.237667 
L 155.476377 109.358433 
L 155.83893 92.552634 
L 156.201484 88.826082 
L 156.564037 81.44558 
L 156.926591 69.448607 
L 157.289144 74.002558 
L 157.651697 75.933731 
L 158.014251 91.578418 
L 158.739358 98.140256 
L 159.101911 103.118658 
L 159.464465 104.641906 
L 160.189572 97.935728 
L 160.914679 95.200774 
L 161.277232 93.081281 
L 162.364893 113.139637 
L 162.727446 113.751471 
L 163.089999 127.667795 
L 163.452553 116.072113 
L 163.815106 121.600174 
L 164.17766 112.910995 
L 164.540213 94.596617 
L 164.902767 87.515569 
L 165.627874 77.199236 
L 165.990427 77.838792 
L 166.715534 88.345927 
L 167.078088 101.694016 
L 167.440641 105.533229 
L 167.803195 106.206273 
L 168.165748 109.084271 
L 168.528301 105.562488 
L 168.890855 103.267708 
L 169.253408 105.662244 
L 169.615962 98.703159 
L 169.978515 96.610133 
L 170.341069 102.992169 
L 170.703622 113.660006 
L 171.066176 117.612072 
L 171.428729 126.486317 
L 171.791283 129.164925 
L 172.153836 127.800395 
L 172.51639 129.159847 
L 172.878943 119.043412 
L 173.241497 103.1002 
L 173.60405 99.426141 
L 173.966603 88.216702 
L 174.329157 89.93187 
L 174.69171 87.52851 
L 175.054264 83.630285 
L 175.416817 94.956752 
L 175.779371 98.952863 
L 176.141924 113.212838 
L 176.867031 116.113557 
L 177.229585 116.603659 
L 177.592138 111.802626 
L 178.317245 106.671128 
L 178.679799 111.692334 
L 179.042352 108.739347 
L 179.767459 127.928244 
L 180.130012 129.428447 
L 180.492566 175.615169 
L 180.855119 136.336188 
L 181.217673 174.881958 
L 181.580226 123.195441 
L 181.94278 115.265371 
L 182.305333 99.845768 
L 182.667887 91.970243 
L 183.03044 93.961764 
L 183.392994 91.835715 
L 183.755547 97.544039 
L 184.118101 100.860164 
L 184.480654 117.558296 
L 184.843208 112.568406 
L 185.205761 120.804522 
L 185.568314 122.423179 
L 185.930868 121.798237 
L 186.293421 108.82074 
L 187.018528 108.451941 
L 187.381082 107.624169 
L 188.831296 135.371461 
L 189.556403 144.083535 
L 190.28151 123.448693 
L 190.644063 119.942718 
L 191.006616 108.388815 
L 191.36917 102.834206 
L 191.731723 92.064843 
L 192.094277 87.737178 
L 192.45683 101.855103 
L 192.819384 103.816803 
L 193.181937 110.22923 
L 193.544491 120.726395 
L 193.907044 126.68888 
L 194.269598 120.190069 
L 194.632151 119.456796 
L 195.357258 110.126749 
L 195.719812 114.193318 
L 196.082365 113.995578 
L 196.444919 113.053945 
L 197.170025 137.211088 
L 197.532579 139.571519 
L 197.895132 145.485917 
L 198.257686 142.023803 
L 198.620239 135.592875 
L 198.982793 124.03731 
L 199.345346 116.575424 
L 199.7079 104.785644 
L 200.433007 93.022432 
L 200.79556 93.306584 
L 201.158114 97.8678 
L 202.608327 123.639764 
L 202.970881 124.646031 
L 203.695988 115.150933 
L 204.058541 114.222977 
L 204.421095 110.862557 
L 204.783648 112.385515 
L 205.146202 115.876539 
L 206.233862 139.11964 
L 206.596416 142.124782 
L 206.958969 142.353106 
L 207.321523 141.005585 
L 207.684076 123.954368 
L 208.046629 119.464897 
L 208.409183 109.085572 
L 208.771736 95.09076 
L 209.13429 99.889688 
L 209.496843 95.902059 
L 209.859397 99.515282 
L 210.22195 106.445316 
L 210.947057 123.081441 
L 211.672164 125.82197 
L 212.034718 122.765106 
L 212.397271 118.021885 
L 212.759825 111.495033 
L 213.122378 113.753127 
L 213.484932 112.50545 
L 213.847485 116.489519 
L 214.210038 122.795184 
L 214.572592 126.957612 
L 214.935145 138.727818 
L 215.297699 140.638287 
L 215.660252 143.469061 
L 216.022806 140.618323 
L 216.385359 126.783486 
L 216.747913 124.172189 
L 217.110466 109.950525 
L 217.835573 94.935289 
L 218.198127 99.794778 
L 218.56068 101.745222 
L 220.010894 130.882007 
L 220.373447 127.828705 
L 220.736001 121.064624 
L 221.098554 122.537304 
L 221.461108 112.375158 
L 221.823661 117.601016 
L 222.186215 116.167158 
L 222.548768 118.074593 
L 223.273875 141.162093 
L 223.636429 143.311938 
L 223.998982 144.738703 
L 224.361536 150.538142 
L 225.086642 132.719456 
L 225.449196 130.989179 
L 225.811749 113.501264 
L 226.174303 110.050753 
L 226.536856 98.01403 
L 226.89941 104.009773 
L 227.261963 114.680093 
L 227.624517 114.205988 
L 227.98707 120.590983 
L 228.349624 129.121261 
L 228.712177 131.767495 
L 229.074731 137.465793 
L 229.437284 133.064418 
L 229.799838 132.803305 
L 230.162391 122.022952 
L 230.524945 125.518269 
L 230.887498 124.183469 
L 231.250051 126.722127 
L 231.612605 132.650493 
L 231.975158 145.685733 
L 232.337712 151.494803 
L 232.700265 159.932974 
L 233.062819 161.720646 
L 233.425372 150.965673 
L 233.787926 144.322186 
L 234.150479 126.39034 
L 234.513033 121.875346 
L 234.875586 120.084074 
L 235.23814 110.512095 
L 235.600693 109.164442 
L 235.963247 113.349213 
L 236.3258 126.993098 
L 236.688353 122.993566 
L 237.41346 139.515659 
L 237.776014 142.961082 
L 238.501121 136.876313 
L 239.226228 133.100506 
L 239.588781 127.132038 
L 239.951335 137.81719 
L 241.401549 163.077421 
L 242.126655 155.228184 
L 242.489209 147.594093 
L 242.851762 130.126622 
L 243.576869 118.553187 
L 243.939423 112.837756 
L 244.301976 117.815547 
L 244.66453 117.50476 
L 245.389637 142.774709 
L 245.75219 139.080214 
L 246.477297 146.71165 
L 247.202404 138.258327 
L 247.564957 138.781974 
L 247.927511 134.699021 
L 248.290064 135.78018 
L 248.652618 137.395243 
L 249.015171 146.955241 
L 249.377725 152.340535 
L 249.740278 162.401341 
L 250.102832 163.832047 
L 250.465385 166.819089 
L 251.190492 148.226361 
L 251.553046 141.622283 
L 252.278153 123.689681 
L 252.640706 122.728346 
L 253.00326 115.353226 
L 253.365813 122.58955 
L 253.728366 133.257529 
L 254.09092 137.498594 
L 254.453473 145.744175 
L 254.816027 144.349735 
L 255.17858 140.794707 
L 255.541134 145.775817 
L 255.903687 144.261734 
L 256.266241 135.816259 
L 256.628794 133.17411 
L 256.991348 138.610658 
L 257.353901 139.635368 
L 257.716455 149.164871 
L 258.804115 166.362985 
L 259.166668 169.681236 
L 259.891775 156.372292 
L 260.254329 135.946666 
L 260.616882 132.941907 
L 261.341989 118.842855 
L 261.704543 120.153805 
L 262.42965 128.479742 
L 263.154757 147.142767 
L 263.51731 147.908206 
L 263.879864 150.472396 
L 264.242417 145.475482 
L 264.60497 138.338416 
L 264.967524 142.361842 
L 265.330077 139.451109 
L 265.692631 137.890999 
L 266.055184 137.105705 
L 267.142845 163.401442 
L 267.505398 162.677245 
L 267.867952 168.182136 
L 268.230505 158.964321 
L 268.593059 155.690979 
L 269.318166 132.097099 
L 269.680719 133.868235 
L 270.043273 117.794207 
L 270.405826 116.382238 
L 270.768379 118.595218 
L 271.130933 129.925757 
L 271.85604 143.472615 
L 272.218593 154.778812 
L 272.581147 151.22898 
L 272.9437 144.863201 
L 273.668807 141.095177 
L 274.031361 135.931313 
L 274.393914 137.413033 
L 274.756468 143.852692 
L 275.119021 153.639298 
L 275.481575 155.174633 
L 275.844128 165.879902 
L 276.206681 170.136977 
L 276.569235 168.676638 
L 276.931788 163.342532 
L 278.382002 122.495829 
L 278.744556 120.151564 
L 279.107109 120.124545 
L 279.469663 128.209106 
L 279.832216 132.058298 
L 280.557323 147.280012 
L 280.919877 155.094998 
L 281.28243 151.230183 
L 281.644983 150.830777 
L 282.007537 149.6334 
L 282.37009 145.831962 
L 282.732644 144.26217 
L 283.095197 143.94276 
L 284.545411 171.67509 
L 284.907965 170.961312 
L 285.270518 172.592005 
L 285.633072 172.533526 
L 286.358179 147.394762 
L 286.720732 141.026713 
L 287.083286 130.859203 
L 287.445839 128.766826 
L 287.808392 130.577026 
L 288.170946 138.057679 
L 288.533499 142.353038 
L 288.896053 148.101273 
L 289.258606 150.480635 
L 289.62116 158.259628 
L 289.983713 155.339122 
L 290.346267 158.263883 
L 290.70882 154.433291 
L 291.071374 148.262864 
L 291.433927 144.464115 
L 291.796481 150.880708 
L 292.159034 159.277459 
L 292.884141 171.171215 
L 293.246694 180.650733 
L 293.609248 178.837645 
L 293.971801 183.11514 
L 295.422015 149.974801 
L 296.147122 134.55981 
L 296.509676 132.775854 
L 296.872229 137.099495 
L 297.234783 146.743495 
L 297.597336 160.23937 
L 297.95989 165.297887 
L 298.322443 167.915357 
L 298.684996 163.106702 
L 299.04755 166.947636 
L 299.410103 160.556498 
L 299.772657 159.43075 
L 300.13521 157.259612 
L 300.497764 153.369164 
L 301.947978 178.432802 
L 302.310531 187.890766 
L 302.673085 187.282472 
L 303.760745 169.095639 
L 304.123299 149.769603 
L 304.485852 144.483312 
L 304.848405 145.809435 
L 305.210959 141.580289 
L 305.573512 152.172871 
L 305.936066 152.505072 
L 306.661173 162.960456 
L 307.023726 176.71505 
L 307.38628 168.477802 
L 307.748833 172.025778 
L 308.111387 162.998758 
L 308.47394 160.484191 
L 308.836494 156.970563 
L 309.199047 163.588434 
L 309.561601 161.492615 
L 309.924154 170.729742 
L 310.286707 172.277681 
L 311.011814 190.780874 
L 311.374368 184.548355 
L 311.736921 183.27513 
L 312.099475 179.540325 
L 312.462028 164.998593 
L 312.824582 156.686979 
L 313.549689 146.843499 
L 313.912242 147.395688 
L 314.274796 147.727258 
L 314.637349 156.811952 
L 314.999903 158.602065 
L 315.362456 175.213937 
L 315.725009 169.919995 
L 316.087563 174.306078 
L 316.81267 163.962395 
L 317.175223 156.271838 
L 317.537777 158.361588 
L 317.90033 162.883352 
L 318.262884 163.145224 
L 318.625437 214.095102 
L 318.987991 221.316756 
L 319.350544 184.567953 
L 319.713098 194.108787 
L 320.075651 190.389756 
L 320.438205 188.67834 
L 320.800758 172.651086 
L 321.163311 169.380295 
L 321.525865 155.67107 
L 321.888418 152.785407 
L 322.250972 146.622842 
L 322.613525 144.783356 
L 322.976079 148.027915 
L 323.338632 155.374573 
L 323.701186 156.302255 
L 324.063739 169.354881 
L 324.426293 169.777525 
L 324.788846 171.095731 
L 325.1514 175.222564 
L 325.513953 165.393836 
L 325.876507 163.198788 
L 326.23906 156.742309 
L 326.601614 161.195282 
L 326.964167 162.189874 
L 327.689274 176.343195 
L 328.051827 188.2245 
L 328.414381 190.622471 
L 328.776934 191.194179 
L 329.139488 188.534451 
L 329.502041 180.116997 
L 330.589702 147.389896 
L 330.952255 142.525328 
L 331.314809 143.522649 
L 331.677362 150.405037 
L 332.039916 153.826653 
L 332.402469 167.087069 
L 332.765022 174.477974 
L 333.127576 173.774758 
L 333.490129 173.749024 
L 333.852683 170.288893 
L 334.215236 168.48545 
L 334.57779 163.474945 
L 334.940343 161.185812 
L 335.66545 168.161597 
L 336.028004 181.878635 
L 336.390557 180.515396 
L 336.753111 194.021076 
L 337.115664 197.771449 
L 337.478218 194.881669 
L 337.840771 186.931448 
L 338.203324 189.584081 
L 338.565878 168.269809 
L 338.928431 158.52607 
L 339.653538 147.346996 
L 340.378645 152.33037 
L 340.741199 157.825519 
L 341.466306 175.868138 
L 341.828859 181.580671 
L 342.191413 175.357231 
L 342.553966 179.912846 
L 342.91652 170.572318 
L 343.279073 165.601189 
L 343.641627 165.730362 
L 344.00418 168.83309 
L 344.366733 174.479586 
L 344.729287 176.340613 
L 345.09184 183.920169 
L 345.454394 195.183061 
L 345.816947 202.025032 
L 346.179501 201.434197 
L 346.542054 191.358712 
L 346.904608 190.702579 
L 347.992268 156.935146 
L 348.354822 153.199083 
L 348.717375 152.25545 
L 349.442482 167.315282 
L 349.805035 170.2719 
L 350.167589 182.060984 
L 350.530142 178.255294 
L 350.892696 184.521741 
L 351.255249 180.422756 
L 351.617803 177.682244 
L 351.980356 170.019002 
L 352.34291 179.460969 
L 352.705463 173.479721 
L 353.068017 174.631375 
L 353.793124 195.176409 
L 354.155677 195.502169 
L 354.880784 207.995668 
L 355.243337 205.636314 
L 355.605891 188.841487 
L 355.968444 177.48548 
L 356.330998 173.652868 
L 356.693551 162.545483 
L 357.056105 159.456032 
L 357.418658 157.71672 
L 358.506319 177.952767 
L 358.868872 190.482554 
L 359.231426 192.763673 
L 359.593979 190.128275 
L 359.956533 194.42596 
L 360.319086 191.827733 
L 360.68164 180.686043 
L 361.044193 184.162356 
L 361.406746 181.505634 
L 361.7693 186.593764 
L 362.131853 185.396097 
L 362.85696 208.943373 
L 363.219514 210.537879 
L 363.582067 213.095321 
L 363.944621 203.91392 
L 364.307174 198.510858 
L 364.669728 183.780705 
L 365.032281 184.159125 
L 365.757388 162.089145 
L 366.119942 164.125146 
L 366.482495 168.577344 
L 367.207602 186.58791 
L 367.932709 190.087656 
L 368.295262 190.331896 
L 368.657816 193.40554 
L 369.020369 189.449741 
L 369.382923 187.169644 
L 369.745476 190.232302 
L 370.10803 188.203694 
L 370.470583 187.751231 
L 370.833137 199.092496 
L 371.19569 201.474114 
L 371.558244 211.223074 
L 371.920797 214.816151 
L 372.28335 209.964375 
L 372.645904 209.910903 
L 373.371011 190.234229 
L 373.733564 183.473509 
L 374.096118 172.326662 
L 374.458671 164.733343 
L 374.821225 166.633183 
L 375.183778 169.499994 
L 375.546332 175.195277 
L 375.908885 190.363287 
L 376.271439 188.991856 
L 376.633992 195.644395 
L 376.996546 199.466254 
L 377.721652 189.776159 
L 378.446759 182.89019 
L 378.809313 184.334326 
L 379.171866 190.377289 
L 379.53442 194.16011 
L 379.896973 203.722554 
L 380.259527 205.994 
L 380.984634 215.541266 
L 381.709741 203.222335 
L 382.072294 193.504571 
L 382.434848 179.111871 
L 382.797401 173.180126 
L 383.159955 172.011745 
L 383.522508 165.745256 
L 384.610168 183.574587 
L 384.972722 191.201607 
L 385.697829 196.965001 
L 386.060382 194.053268 
L 386.422936 193.448347 
L 386.785489 192.050295 
L 387.148043 189.180085 
L 387.510596 185.089318 
L 388.235703 195.896593 
L 388.598257 207.758202 
L 388.96081 214.980482 
L 389.323363 212.345117 
L 389.685917 217.251272 
L 390.04847 209.928233 
L 390.411024 206.257801 
L 391.136131 183.745194 
L 391.498684 178.959462 
L 391.861238 170.475555 
L 392.223791 169.642998 
L 393.674005 191.593384 
L 394.036559 202.894184 
L 394.399112 196.920823 
L 394.761665 199.412933 
L 395.124219 191.195524 
L 396.211879 185.380248 
L 396.574433 196.782202 
L 396.936986 198.098871 
L 397.29954 212.889472 
L 397.662093 210.800496 
L 398.024647 261.397535 
L 398.3872 219.216593 
L 399.112307 208.303363 
L 399.837414 180.472455 
L 400.199968 176.711697 
L 400.562521 174.43504 
L 400.925074 173.266914 
L 401.287628 176.828172 
L 402.737842 202.697308 
L 403.100395 202.665651 
L 403.462949 206.096864 
L 404.188056 192.775951 
L 404.550609 197.951033 
L 404.913163 190.74878 
L 405.63827 200.313334 
L 406.000823 213.257156 
L 406.363376 216.123404 
L 406.72593 220.17371 
L 407.088483 226.467704 
L 407.451037 217.428794 
L 407.81359 216.426529 
L 408.538697 192.072456 
L 408.901251 184.760517 
L 409.263804 174.57976 
L 409.626358 181.882533 
L 409.988911 179.600589 
L 410.351465 194.522915 
L 410.714018 197.471284 
L 411.076572 201.974933 
L 411.439125 213.286619 
L 411.801678 209.163611 
L 412.526785 203.616599 
L 412.889339 202.974555 
L 413.251892 197.588614 
L 413.614446 198.627997 
L 414.702106 218.716153 
L 415.06466 220.587087 
L 415.427213 228.578401 
L 415.789767 229.589468 
L 416.15232 227.898695 
L 416.514874 219.967532 
L 416.877427 205.778787 
L 417.239981 199.04407 
L 417.602534 186.800261 
L 417.965087 183.709637 
L 418.327641 188.68257 
L 418.690194 188.130081 
L 419.052748 193.958336 
L 419.415301 204.630516 
L 420.140408 217.62625 
L 420.502962 214.958781 
L 420.865515 214.485513 
L 421.590622 208.339629 
L 421.953176 210.655919 
L 422.315729 206.671838 
L 422.678283 207.321045 
L 423.040836 223.598029 
L 423.403389 228.707136 
L 423.765943 227.793366 
L 424.128496 238.924457 
L 424.49105 237.181386 
L 424.853603 233.591832 
L 425.57871 213.414482 
L 425.941264 202.561169 
L 426.666371 187.916608 
L 427.028924 194.822338 
L 427.391478 198.586055 
L 427.754031 200.195046 
L 428.116585 205.186743 
L 428.479138 221.194774 
L 428.841691 226.076007 
L 429.204245 229.39683 
L 429.566798 217.540097 
L 429.929352 219.66479 
L 430.291905 209.6283 
L 430.654459 206.79236 
L 431.379566 210.423426 
L 431.742119 223.338651 
L 432.104673 231.465631 
L 432.82978 239.580941 
L 433.192333 239.265301 
L 433.554887 235.953764 
L 434.642547 212.565099 
L 435.0051 197.298813 
L 435.367654 189.779565 
L 435.730207 195.728926 
L 436.092761 194.246422 
L 436.455314 204.296685 
L 437.542975 222.112141 
L 437.905528 224.013714 
L 438.268082 215.851918 
L 438.630635 218.452217 
L 438.993189 214.202435 
L 439.355742 204.569279 
L 439.718296 208.00784 
L 441.168509 237.960012 
L 441.531063 235.786728 
L 441.893616 236.051997 
L 442.25617 229.939329 
L 442.618723 230.159167 
L 442.981277 221.356975 
L 443.706384 196.244267 
L 444.068937 191.534199 
L 444.431491 198.131401 
L 444.794044 199.161592 
L 445.156598 202.501545 
L 445.519151 214.902577 
L 445.881704 212.703883 
L 446.244258 223.075545 
L 446.606811 219.662881 
L 447.331918 216.90635 
L 447.694472 214.396277 
L 448.057025 216.93125 
L 448.419579 208.428401 
L 448.782132 214.46951 
L 449.144686 224.321281 
L 449.507239 240.173814 
L 449.869793 239.674943 
L 450.232346 239.685332 
L 450.5949 238.991676 
L 450.957453 238.570687 
L 451.68256 213.414186 
L 452.77022 191.583459 
L 453.132774 192.960378 
L 453.495327 197.17087 
L 454.582988 219.978538 
L 454.945541 223.638595 
L 455.308095 217.708358 
L 455.670648 222.769836 
L 456.395755 211.551786 
L 456.758309 212.700516 
L 457.120862 214.259485 
L 457.483415 216.427876 
L 458.571076 239.454047 
L 458.933629 245.185389 
L 459.296183 234.387137 
L 459.658736 241.94 
L 460.02129 234.300729 
L 460.383843 219.256557 
L 460.746397 213.893737 
L 461.10895 199.510947 
L 461.834057 193.210615 
L 462.196611 202.85996 
L 462.559164 204.569207 
L 462.921717 215.80371 
L 463.646824 225.701512 
L 464.009378 229.541984 
L 464.371931 229.093285 
L 464.734485 220.237855 
L 465.097038 215.920381 
L 465.459592 209.764809 
L 466.184699 221.715596 
L 466.547252 230.036051 
L 466.909806 230.053825 
L 467.272359 244.833651 
L 467.634913 249.571477 
L 467.997466 248.437557 
L 468.360019 238.928614 
L 468.722573 235.956027 
L 469.085126 226.919674 
L 469.44768 210.936266 
L 470.172787 202.64241 
L 470.897894 209.070374 
L 471.623001 225.244033 
L 471.985554 227.728489 
L 472.348108 231.574782 
L 472.710661 233.502547 
L 473.073215 229.962163 
L 473.435768 228.600645 
L 473.798322 222.309282 
L 474.160875 220.182312 
L 474.523428 222.547841 
L 475.973642 247.45122 
L 476.698749 256.249971 
L 477.423856 247.922571 
L 477.78641 232.439079 
L 478.148963 223.760519 
L 478.511517 218.264105 
L 478.87407 216.099875 
L 479.236624 212.126822 
L 479.599177 211.050164 
L 479.96173 222.676189 
L 480.686837 238.821655 
L 481.049391 240.796645 
L 481.411944 240.801997 
L 481.774498 239.551207 
L 482.499605 230.529241 
L 482.862158 231.346057 
L 483.224712 228.284446 
L 483.949819 245.584217 
L 484.312372 247.693135 
L 484.674926 257.325542 
L 485.037479 262.224092 
L 485.400032 259.251473 
L 485.762586 258.418416 
L 486.850246 227.956401 
L 487.2128 222.475871 
L 487.575353 213.66943 
L 487.937907 211.951048 
L 488.30046 222.80499 
L 488.663014 223.598013 
L 489.025567 233.59656 
L 490.113228 248.128527 
L 490.475781 242.212449 
L 490.838335 244.109604 
L 491.200888 234.861957 
L 491.563441 231.456602 
L 492.288548 239.623845 
L 492.651102 248.319904 
L 493.738762 265.156202 
L 494.101316 265.402121 
L 494.463869 259.390496 
L 494.826423 256.447824 
L 495.188976 238.744044 
L 495.55153 237.248056 
L 496.276637 216.393243 
L 496.63919 217.965405 
L 497.001743 220.827509 
L 497.364297 233.219629 
L 497.72685 235.996873 
L 498.089404 251.84475 
L 498.451957 245.48736 
L 498.814511 254.82764 
L 499.177064 245.637394 
L 499.539618 242.774559 
L 499.902171 234.537368 
L 500.264725 231.799517 
L 500.627278 239.490628 
L 500.989832 238.132937 
L 501.352385 249.341235 
L 502.077492 262.63146 
L 502.440045 265.882645 
L 502.802599 264.873131 
L 503.165152 261.541194 
L 503.527706 253.783681 
L 503.890259 243.553671 
L 504.615366 218.586736 
L 504.97792 221.533741 
L 505.340473 221.473066 
L 505.703027 221.133825 
L 506.428134 232.421007 
L 507.153241 248.410703 
L 507.515794 253.042457 
L 507.878348 252.247849 
L 508.240901 245.634497 
L 508.603454 233.431412 
L 508.966008 232.787992 
L 509.328561 232.506608 
L 509.691115 244.771531 
L 510.053668 247.769831 
L 510.416222 256.526357 
L 510.778775 258.201625 
L 511.141329 267.001232 
L 511.503882 268.090898 
L 511.866436 262.739154 
L 512.591543 236.696379 
L 512.954096 232.455102 
L 513.31665 216.780045 
L 513.679203 218.564973 
L 514.041756 219.40857 
L 514.40431 218.957738 
L 514.766863 235.119315 
L 515.129417 237.458676 
L 515.854524 247.807776 
L 516.217077 248.137471 
L 516.579631 251.474489 
L 516.942184 241.68988 
L 517.304738 238.841797 
L 517.667291 233.083133 
L 518.029845 239.449908 
L 518.392398 237.834782 
L 519.480058 267.012653 
L 519.842612 267.411257 
L 520.205165 270.865933 
L 520.567719 265.408563 
L 522.017933 228.094865 
L 522.380486 222.346981 
L 523.105593 228.728102 
L 523.468147 233.594597 
L 523.8307 245.377831 
L 524.193254 251.743083 
L 524.555807 250.076074 
L 524.91836 253.301305 
L 525.280914 255.402578 
L 525.643467 245.938535 
L 526.006021 283.82214 
L 526.368574 243.298359 
L 526.731128 238.111211 
L 527.456235 257.321668 
L 528.181342 270.863489 
L 528.543895 273.764822 
L 528.906449 277.996889 
L 529.269002 267.627735 
L 529.631556 263.472625 
L 530.356663 236.723847 
L 530.719216 227.084317 
L 531.081769 232.893368 
L 531.444323 234.801224 
L 531.806876 231.932903 
L 532.16943 236.479327 
L 532.531983 247.393907 
L 533.25709 261.013998 
L 533.619644 260.769481 
L 533.982197 258.449837 
L 534.344751 249.482102 
L 534.707304 250.123716 
L 535.069858 247.468127 
L 535.432411 250.476912 
L 535.794965 251.144969 
L 536.157518 264.774405 
L 536.520071 264.978249 
L 536.882625 276.190036 
L 537.245178 278.249432 
L 537.607732 282.698814 
L 537.970285 273.781261 
L 538.332839 269.789069 
L 538.695392 255.424757 
L 539.057946 245.648886 
L 539.420499 242.559795 
L 539.783053 235.925396 
L 540.145606 236.80501 
L 540.50816 239.579422 
L 541.233267 250.180628 
L 541.59582 262.349103 
L 541.958373 266.041416 
L 542.320927 265.511085 
L 542.68348 257.054501 
L 543.046034 264.895964 
L 543.771141 251.39384 
L 544.133694 258.609622 
L 544.496248 259.450194 
L 544.858801 270.174208 
L 545.946462 287.02819 
L 546.309015 288.801815 
L 546.671569 282.231882 
L 547.034122 270.313587 
L 547.396676 265.617059 
L 548.121782 241.933815 
L 548.484336 234.989331 
L 549.209443 246.719962 
L 549.93455 263.891165 
L 550.297103 266.339793 
L 550.659657 270.147146 
L 551.02221 267.985037 
L 551.384764 273.324402 
L 552.109871 259.930431 
L 552.472424 256.789663 
L 552.834978 259.129026 
L 553.560084 267.134711 
L 553.922638 278.833168 
L 554.285191 285.812126 
L 554.647745 288.952076 
L 555.010298 289.321388 
L 556.097959 270.714215 
L 556.460512 250.318056 
L 556.823066 245.01793 
L 557.185619 243.078225 
L 557.548173 244.70356 
L 558.27328 251.424803 
L 558.635833 264.253945 
L 558.998386 264.527627 
L 559.36094 270.952252 
L 559.723493 267.827983 
L 560.086047 268.189928 
L 561.173707 260.512357 
L 561.536261 265.82555 
L 561.898814 263.061861 
L 562.261368 268.269348 
L 562.623921 279.017217 
L 562.986475 283.307462 
L 563.349028 290.469597 
L 564.436689 277.047017 
L 565.524349 247.103602 
L 565.886902 242.46471 
L 566.249456 239.56909 
L 566.612009 245.720341 
L 566.974563 256.029249 
L 567.337116 257.399422 
L 568.062223 272.340005 
L 568.424777 279.934617 
L 568.78733 268.564067 
L 569.149884 270.737431 
L 569.512437 264.819801 
L 569.874991 256.578835 
L 570.237544 263.536609 
L 570.600097 266.987643 
L 570.962651 268.171697 
L 571.325204 276.237886 
L 571.687758 289.223573 
L 572.050311 285.454016 
L 572.412865 290.24874 
L 572.775418 285.822276 
L 573.137972 274.58462 
L 573.500525 272.774861 
L 573.863079 251.697075 
L 574.588186 242.256044 
L 574.950739 242.510573 
L 575.675846 259.996703 
L 576.038399 261.797175 
L 576.400953 272.411876 
L 576.763506 275.388992 
L 577.12606 275.485603 
L 577.488613 274.206866 
L 578.21372 262.300707 
L 578.576274 264.113898 
L 578.938827 265.3123 
L 579.663934 275.459688 
L 580.026488 277.98327 
L 580.389041 289.79204 
L 580.751595 294.116954 
L 581.114148 289.427616 
L 581.476701 293.448171 
L 582.564362 259.855028 
L 582.926915 246.134388 
L 583.289469 201.955855 
L 583.652022 247.260591 
L 584.014576 247.773354 
L 584.377129 255.546124 
L 584.739683 268.897311 
L 585.102236 272.098439 
L 585.827343 280.952702 
L 586.189897 277.50603 
L 586.55245 269.720666 
L 586.915004 273.595821 
L 587.277557 268.160652 
L 587.64011 266.713543 
L 589.452878 298.739647 
L 589.815431 299.588137 
L 590.177985 290.976285 
L 590.540538 290.783386 
L 590.903092 274.580391 
L 591.265645 267.195478 
L 591.628199 252.433704 
L 591.990752 249.87281 
L 592.715859 253.517334 
L 593.078412 266.665671 
L 594.166073 281.773224 
L 594.528626 284.635585 
L 594.89118 281.123416 
L 595.616287 270.759566 
L 595.97884 276.930838 
L 596.341394 274.731586 
L 596.703947 275.021553 
L 597.066501 282.734769 
L 597.429054 296.536555 
L 597.791608 305.309944 
L 598.154161 302.232482 
L 598.516714 306.163848 
L 599.604375 283.390666 
L 599.966928 270.998691 
L 600.329482 268.986903 
L 600.692035 257.631773 
L 601.054589 260.993252 
L 601.779696 270.081398 
L 602.142249 280.56928 
L 602.504803 283.616216 
L 602.867356 289.663168 
L 603.22991 289.130038 
L 603.592463 288.378107 
L 604.31757 279.607935 
L 604.680123 278.35637 
L 605.042677 281.949465 
L 605.40523 279.255088 
L 605.767784 289.874978 
L 606.492891 303.645368 
L 606.855444 314.632446 
L 607.217998 317.491816 
L 607.580551 311.177294 
L 608.305658 288.459568 
L 608.668212 276.330932 
L 609.030765 269.630386 
L 609.393319 266.88036 
L 609.755872 266.231331 
L 610.118425 267.631323 
L 610.480979 275.209984 
L 610.843532 286.126781 
L 611.206086 290.249773 
L 611.568639 297.286866 
L 611.931193 294.007036 
L 612.293746 298.046672 
L 612.6563 288.202101 
L 613.018853 284.359848 
L 613.381407 286.03423 
L 613.74396 284.656379 
L 614.106514 287.210541 
L 614.831621 311.847295 
L 615.194174 305.470712 
L 615.556727 314.194471 
L 615.919281 314.169751 
L 616.644388 304.154595 
L 617.006941 294.611559 
L 617.369495 279.87086 
L 617.732048 270.301676 
L 618.094602 266.62143 
L 618.457155 314.607192 
L 618.819709 272.525199 
L 619.182262 278.11439 
L 619.544816 287.332595 
L 619.907369 290.496483 
L 620.269923 300.387519 
L 620.632476 295.28115 
L 620.99503 294.865375 
L 621.720136 288.783124 
L 622.08269 282.515126 
L 622.445243 285.375144 
L 622.807797 289.284151 
L 623.17035 301.804724 
L 623.532904 265.314156 
L 623.895457 315.295171 
L 624.258011 313.749929 
L 624.620564 311.217853 
L 624.983118 310.718453 
L 625.345671 303.024461 
L 625.708225 297.692143 
L 626.433332 271.787521 
L 626.795885 270.042892 
L 627.158438 270.799115 
L 627.520992 270.970039 
L 628.246099 284.187795 
L 628.608652 294.814098 
L 628.971206 295.860434 
L 629.333759 298.509865 
L 629.696313 297.69855 
L 630.058866 294.781494 
L 630.42142 286.504032 
L 630.783973 285.750633 
L 631.146527 288.817321 
L 631.50908 293.36958 
L 631.871634 294.815978 
L 632.234187 304.268192 
L 632.59674 307.633616 
L 632.959294 317.688611 
L 633.321847 316.372004 
L 634.409508 294.487768 
L 634.772061 244.26885 
L 635.134615 268.513982 
L 635.497168 268.802723 
L 635.859722 271.408012 
L 636.222275 269.836319 
L 636.584829 282.622264 
L 636.947382 290.860847 
L 637.309936 292.437696 
L 637.672489 298.142978 
L 638.035043 302.071275 
L 638.397596 291.40955 
L 638.760149 295.775147 
L 639.122703 289.880923 
L 639.485256 286.424149 
L 639.84781 289.581896 
L 640.210363 286.984957 
L 640.93547 310.112757 
L 641.298024 316.520962 
L 641.660577 316.155391 
L 642.023131 319.32549 
L 642.385684 313.691755 
L 643.110791 291.07807 
L 643.473345 285.960939 
L 644.561005 266.433875 
L 645.648665 291.573033 
L 646.011219 293.173891 
L 646.373772 303.240366 
L 646.736326 302.950151 
L 647.098879 305.846341 
L 648.18654 287.644191 
L 648.549093 291.660933 
L 648.911647 292.962832 
L 649.2742 307.705685 
L 649.636753 314.341236 
L 649.999307 317.949187 
L 650.36186 315.075115 
L 650.724414 325.108708 
L 651.086967 313.324365 
L 651.449521 311.582277 
L 651.812074 307.811322 
L 652.174628 288.502612 
L 652.537181 279.853235 
L 652.899735 274.371157 
L 653.262288 279.288669 
L 653.624842 281.073773 
L 653.987395 292.108646 
L 654.349949 293.609664 
L 655.075055 308.854784 
L 655.437609 314.41731 
L 655.800162 309.277105 
L 656.162716 301.387409 
L 656.887823 299.078768 
L 657.250376 300.490161 
L 658.70059 323.99779 
L 659.063144 326.821266 
L 659.425697 328.029675 
L 659.788251 329.691824 
L 660.150804 319.333061 
L 660.513358 305.294954 
L 660.875911 298.417932 
L 661.238464 286.70407 
L 661.963571 285.014754 
L 662.326125 288.818428 
L 662.688678 294.096662 
L 663.051232 301.265458 
L 663.413785 315.037144 
L 664.138892 317.617592 
L 664.501446 315.232621 
L 664.863999 306.810621 
L 665.226553 311.640433 
L 665.589106 305.845232 
L 665.95166 308.094317 
L 666.314213 309.317173 
L 666.676766 315.545273 
L 667.401873 335.341376 
L 667.764427 335.119959 
L 668.12698 334.658628 
L 668.489534 333.245566 
L 668.852087 325.008557 
L 669.214641 310.449344 
L 669.577194 304.083299 
L 669.939748 292.919001 
L 670.302301 290.555382 
L 670.664855 292.392956 
L 671.027408 293.52823 
L 671.389962 297.370811 
L 671.752515 312.295874 
L 672.115068 318.204671 
L 672.477622 317.88095 
L 672.840175 323.18568 
L 673.565282 315.046661 
L 673.927836 312.172592 
L 674.290389 310.573973 
L 674.652943 310.005223 
L 675.015496 316.643934 
L 675.37805 320.682524 
L 676.103157 335.364291 
L 676.46571 338.360301 
L 676.828264 339.961449 
L 677.553371 328.001365 
L 677.915924 311.227604 
L 678.641031 299.063964 
L 679.003584 295.349089 
L 679.366138 293.654813 
L 680.091245 300.529777 
L 680.816352 319.894659 
L 681.178905 326.414299 
L 681.541459 325.398809 
L 683.354226 303.229529 
L 683.716779 312.283808 
L 684.079333 324.667109 
L 684.441886 328.271818 
L 684.80444 333.957305 
L 685.529547 340.520343 
L 685.8921 335.083905 
L 686.617207 313.511625 
L 686.979761 305.923504 
L 687.342314 295.698491 
L 687.704868 290.579171 
L 688.067421 298.072355 
L 688.429975 299.591743 
L 688.792528 302.307955 
L 689.155081 311.788731 
L 689.517635 313.214098 
L 689.880188 321.702158 
L 690.242742 318.964548 
L 690.605295 322.389847 
L 691.330402 311.334417 
L 691.692956 310.733634 
L 692.055509 313.913628 
L 692.418063 312.319908 
L 693.14317 331.827237 
L 693.505723 330.859373 
L 693.868277 343.359549 
L 694.593384 335.299374 
L 695.681044 306.079754 
L 696.043597 293.369456 
L 696.406151 292.926069 
L 696.768704 290.904447 
L 697.493811 301.701342 
L 698.218918 321.083586 
L 699.306579 327.998864 
L 699.669132 316.259958 
L 700.031686 311.903981 
L 700.394239 317.633551 
L 700.756792 309.888273 
L 701.481899 318.979765 
L 701.844453 334.292198 
L 702.207006 340.425558 
L 702.56956 344.338939 
L 702.932113 340.326264 
L 703.294667 339.726592 
L 703.65722 327.192905 
L 704.019774 328.974901 
L 704.382327 310.447742 
L 704.744881 307.475326 
L 705.107434 295.448249 
L 705.469988 290.822605 
L 705.832541 302.763477 
L 706.557648 312.599216 
L 706.920201 328.567573 
L 707.282755 326.81358 
L 707.645308 329.8462 
L 708.007862 324.080019 
L 708.370415 326.643163 
L 708.732969 323.990833 
L 709.095522 318.659621 
L 709.458076 320.694145 
L 709.820629 321.344969 
L 710.183183 327.489045 
L 710.545736 339.249366 
L 710.90829 345.334483 
L 711.270843 341.580755 
L 711.633397 348.780335 
L 711.99595 347.149225 
L 712.358503 333.61864 
L 713.08361 317.461933 
L 714.171271 297.750938 
L 715.621485 332.362825 
L 715.984038 334.836177 
L 716.346592 331.576904 
L 716.709145 325.069553 
L 717.434252 331.138983 
L 717.796805 326.053615 
L 718.159359 329.798197 
L 718.884466 332.632832 
L 719.609573 352.299446 
L 719.972126 352.327715 
L 720.33468 354.062938 
L 720.697233 352.924055 
L 721.059787 338.975292 
L 721.42234 339.780834 
L 721.784894 317.679879 
L 722.147447 314.444073 
L 722.510001 309.848407 
L 722.872554 308.749472 
L 724.685321 342.841034 
L 725.047875 344.955238 
L 725.410428 341.806649 
L 725.772982 333.374643 
L 726.135535 332.316162 
L 726.498089 333.356778 
L 726.860642 330.892034 
L 727.223196 334.979104 
L 727.948303 351.031968 
L 728.310856 354.706623 
L 728.673409 360.335639 
L 729.035963 355.929199 
L 729.398516 358.410847 
L 729.76107 343.083498 
L 730.123623 346.429199 
L 730.486177 328.035519 
L 731.211284 311.135693 
L 731.573837 321.901005 
L 731.936391 320.459871 
L 732.298944 326.074154 
L 732.661498 338.873363 
L 733.024051 340.716885 
L 733.386605 348.442818 
L 733.749158 342.465959 
L 734.111712 346.496991 
L 734.474265 339.721418 
L 734.836818 338.487704 
L 735.199372 338.94338 
L 735.561925 333.232943 
L 735.924479 333.915239 
L 736.649586 355.559986 
L 737.012139 356.188214 
L 737.374693 362.654717 
L 738.0998 357.93308 
L 739.18746 331.431032 
L 739.550014 327.787543 
L 739.912567 319.167511 
L 740.27512 315.226992 
L 740.637674 316.099585 
L 741.000227 326.273109 
L 741.362781 330.154029 
L 741.725334 347.961921 
L 742.087888 345.038174 
L 742.450441 344.807535 
L 742.812995 342.547603 
L 743.175548 338.689305 
L 743.538102 336.247473 
L 743.900655 335.93231 
L 744.263209 337.190913 
L 744.625762 340.970726 
L 744.988316 345.986113 
L 745.350869 353.528861 
L 745.713422 357.912908 
L 746.075976 369.36 
L 747.163636 349.617255 
L 747.163636 349.617255 
" style="fill:none;stroke:#1f77b4;stroke-linecap:square;stroke-width:1.5;"/>
   </g>
   <g id="line2d_19">
    <path clip-path="url(#pa7a011b397)" d="M 745.713422 384.48 
L 745.713422 51.84 
" style="fill:none;stroke:#808080;stroke-linecap:square;"/>
   </g>
   <g id="patch_52">
    <path d="M 108 384.48 
L 108 51.84 
" style="fill:none;stroke:#000000;stroke-linecap:square;stroke-linejoin:miter;stroke-width:0.8;"/>
   </g>
   <g id="patch_53">
    <path d="M 777.6 384.48 
L 777.6 51.84 
" style="fill:none;stroke:#000000;stroke-linecap:square;stroke-linejoin:miter;stroke-width:0.8;"/>
   </g>
   <g id="patch_54">
    <path d="M 108 384.48 
L 777.6 384.48 
" style="fill:none;stroke:#000000;stroke-linecap:square;stroke-linejoin:miter;stroke-width:0.8;"/>
   </g>
   <g id="patch_55">
    <path d="M 108 51.84 
L 777.6 51.84 
" style="fill:none;stroke:#000000;stroke-linecap:square;stroke-linejoin:miter;stroke-width:0.8;"/>
   </g>
   <g id="text_20">
    <!-- A3Benchmark-TS40.csv -->
    <defs>
     <path d="M 34.1875 63.1875 
L 20.796875 26.90625 
L 47.609375 26.90625 
z
M 28.609375 72.90625 
L 39.796875 72.90625 
L 67.578125 0 
L 57.328125 0 
L 50.6875 18.703125 
L 17.828125 18.703125 
L 11.1875 0 
L 0.78125 0 
z
" id="DejaVuSans-65"/>
     <path d="M 19.671875 34.8125 
L 19.671875 8.109375 
L 35.5 8.109375 
Q 43.453125 8.109375 47.28125 11.40625 
Q 51.125 14.703125 51.125 21.484375 
Q 51.125 28.328125 47.28125 31.5625 
Q 43.453125 34.8125 35.5 34.8125 
z
M 19.671875 64.796875 
L 19.671875 42.828125 
L 34.28125 42.828125 
Q 41.5 42.828125 45.03125 45.53125 
Q 48.578125 48.25 48.578125 53.8125 
Q 48.578125 59.328125 45.03125 62.0625 
Q 41.5 64.796875 34.28125 64.796875 
z
M 9.8125 72.90625 
L 35.015625 72.90625 
Q 46.296875 72.90625 52.390625 68.21875 
Q 58.5 63.53125 58.5 54.890625 
Q 58.5 48.1875 55.375 44.234375 
Q 52.25 40.28125 46.1875 39.3125 
Q 53.46875 37.75 57.5 32.78125 
Q 61.53125 27.828125 61.53125 20.40625 
Q 61.53125 10.640625 54.890625 5.3125 
Q 48.25 0 35.984375 0 
L 9.8125 0 
z
" id="DejaVuSans-66"/>
     <path d="M 54.890625 33.015625 
L 54.890625 0 
L 45.90625 0 
L 45.90625 32.71875 
Q 45.90625 40.484375 42.875 44.328125 
Q 39.84375 48.1875 33.796875 48.1875 
Q 26.515625 48.1875 22.3125 43.546875 
Q 18.109375 38.921875 18.109375 30.90625 
L 18.109375 0 
L 9.078125 0 
L 9.078125 54.6875 
L 18.109375 54.6875 
L 18.109375 46.1875 
Q 21.34375 51.125 25.703125 53.5625 
Q 30.078125 56 35.796875 56 
Q 45.21875 56 50.046875 50.171875 
Q 54.890625 44.34375 54.890625 33.015625 
z
" id="DejaVuSans-110"/>
     <path d="M 48.78125 52.59375 
L 48.78125 44.1875 
Q 44.96875 46.296875 41.140625 47.34375 
Q 37.3125 48.390625 33.40625 48.390625 
Q 24.65625 48.390625 19.8125 42.84375 
Q 14.984375 37.3125 14.984375 27.296875 
Q 14.984375 17.28125 19.8125 11.734375 
Q 24.65625 6.203125 33.40625 6.203125 
Q 37.3125 6.203125 41.140625 7.25 
Q 44.96875 8.296875 48.78125 10.40625 
L 48.78125 2.09375 
Q 45.015625 0.34375 40.984375 -0.53125 
Q 36.96875 -1.421875 32.421875 -1.421875 
Q 20.0625 -1.421875 12.78125 6.34375 
Q 5.515625 14.109375 5.515625 27.296875 
Q 5.515625 40.671875 12.859375 48.328125 
Q 20.21875 56 33.015625 56 
Q 37.15625 56 41.109375 55.140625 
Q 45.0625 54.296875 48.78125 52.59375 
z
" id="DejaVuSans-99"/>
     <path d="M 54.890625 33.015625 
L 54.890625 0 
L 45.90625 0 
L 45.90625 32.71875 
Q 45.90625 40.484375 42.875 44.328125 
Q 39.84375 48.1875 33.796875 48.1875 
Q 26.515625 48.1875 22.3125 43.546875 
Q 18.109375 38.921875 18.109375 30.90625 
L 18.109375 0 
L 9.078125 0 
L 9.078125 75.984375 
L 18.109375 75.984375 
L 18.109375 46.1875 
Q 21.34375 51.125 25.703125 53.5625 
Q 30.078125 56 35.796875 56 
Q 45.21875 56 50.046875 50.171875 
Q 54.890625 44.34375 54.890625 33.015625 
z
" id="DejaVuSans-104"/>
     <path d="M 41.109375 46.296875 
Q 39.59375 47.171875 37.8125 47.578125 
Q 36.03125 48 33.890625 48 
Q 26.265625 48 22.1875 43.046875 
Q 18.109375 38.09375 18.109375 28.8125 
L 18.109375 0 
L 9.078125 0 
L 9.078125 54.6875 
L 18.109375 54.6875 
L 18.109375 46.1875 
Q 20.953125 51.171875 25.484375 53.578125 
Q 30.03125 56 36.53125 56 
Q 37.453125 56 38.578125 55.875 
Q 39.703125 55.765625 41.0625 55.515625 
z
" id="DejaVuSans-114"/>
     <path d="M 9.078125 75.984375 
L 18.109375 75.984375 
L 18.109375 31.109375 
L 44.921875 54.6875 
L 56.390625 54.6875 
L 27.390625 29.109375 
L 57.625 0 
L 45.90625 0 
L 18.109375 26.703125 
L 18.109375 0 
L 9.078125 0 
z
" id="DejaVuSans-107"/>
     <path d="M 4.890625 31.390625 
L 31.203125 31.390625 
L 31.203125 23.390625 
L 4.890625 23.390625 
z
" id="DejaVuSans-45"/>
     <path d="M 53.515625 70.515625 
L 53.515625 60.890625 
Q 47.90625 63.578125 42.921875 64.890625 
Q 37.9375 66.21875 33.296875 66.21875 
Q 25.25 66.21875 20.875 63.09375 
Q 16.5 59.96875 16.5 54.203125 
Q 16.5 49.359375 19.40625 46.890625 
Q 22.3125 44.4375 30.421875 42.921875 
L 36.375 41.703125 
Q 47.40625 39.59375 52.65625 34.296875 
Q 57.90625 29 57.90625 20.125 
Q 57.90625 9.515625 50.796875 4.046875 
Q 43.703125 -1.421875 29.984375 -1.421875 
Q 24.8125 -1.421875 18.96875 -0.25 
Q 13.140625 0.921875 6.890625 3.21875 
L 6.890625 13.375 
Q 12.890625 10.015625 18.65625 8.296875 
Q 24.421875 6.59375 29.984375 6.59375 
Q 38.421875 6.59375 43.015625 9.90625 
Q 47.609375 13.234375 47.609375 19.390625 
Q 47.609375 24.75 44.3125 27.78125 
Q 41.015625 30.8125 33.5 32.328125 
L 27.484375 33.5 
Q 16.453125 35.6875 11.515625 40.375 
Q 6.59375 45.0625 6.59375 53.421875 
Q 6.59375 63.09375 13.40625 68.65625 
Q 20.21875 74.21875 32.171875 74.21875 
Q 37.3125 74.21875 42.625 73.28125 
Q 47.953125 72.359375 53.515625 70.515625 
z
" id="DejaVuSans-83"/>
     <path d="M 37.796875 64.3125 
L 12.890625 25.390625 
L 37.796875 25.390625 
z
M 35.203125 72.90625 
L 47.609375 72.90625 
L 47.609375 25.390625 
L 58.015625 25.390625 
L 58.015625 17.1875 
L 47.609375 17.1875 
L 47.609375 0 
L 37.796875 0 
L 37.796875 17.1875 
L 4.890625 17.1875 
L 4.890625 26.703125 
z
" id="DejaVuSans-52"/>
     <path d="M 10.6875 12.40625 
L 21 12.40625 
L 21 0 
L 10.6875 0 
z
" id="DejaVuSans-46"/>
     <path d="M 2.984375 54.6875 
L 12.5 54.6875 
L 29.59375 8.796875 
L 46.6875 54.6875 
L 56.203125 54.6875 
L 35.6875 0 
L 23.484375 0 
z
" id="DejaVuSans-118"/>
    </defs>
    <g transform="translate(371.555625 45.84)scale(0.12 -0.12)">
     <use xlink:href="#DejaVuSans-65"/>
     <use x="68.408203" xlink:href="#DejaVuSans-51"/>
     <use x="132.03125" xlink:href="#DejaVuSans-66"/>
     <use x="200.634766" xlink:href="#DejaVuSans-101"/>
     <use x="262.158203" xlink:href="#DejaVuSans-110"/>
     <use x="325.537109" xlink:href="#DejaVuSans-99"/>
     <use x="380.517578" xlink:href="#DejaVuSans-104"/>
     <use x="443.896484" xlink:href="#DejaVuSans-109"/>
     <use x="541.308594" xlink:href="#DejaVuSans-97"/>
     <use x="602.587891" xlink:href="#DejaVuSans-114"/>
     <use x="643.701172" xlink:href="#DejaVuSans-107"/>
     <use x="701.611328" xlink:href="#DejaVuSans-45"/>
     <use x="737.554688" xlink:href="#DejaVuSans-84"/>
     <use x="798.638672" xlink:href="#DejaVuSans-83"/>
     <use x="862.115234" xlink:href="#DejaVuSans-52"/>
     <use x="925.738281" xlink:href="#DejaVuSans-48"/>
     <use x="989.361328" xlink:href="#DejaVuSans-46"/>
     <use x="1021.148438" xlink:href="#DejaVuSans-99"/>
     <use x="1076.128906" xlink:href="#DejaVuSans-115"/>
     <use x="1128.228516" xlink:href="#DejaVuSans-118"/>
    </g>
   </g>
   <g id="legend_1">
    <g id="patch_56">
     <path d="M 711.284375 74.518125 
L 770.6 74.518125 
Q 772.6 74.518125 772.6 72.518125 
L 772.6 58.84 
Q 772.6 56.84 770.6 56.84 
L 711.284375 56.84 
Q 709.284375 56.84 709.284375 58.84 
L 709.284375 72.518125 
Q 709.284375 74.518125 711.284375 74.518125 
z
" style="fill:#ffffff;opacity:0.8;stroke:#cccccc;stroke-linejoin:miter;"/>
    </g>
    <g id="line2d_20">
     <path d="M 713.284375 64.938438 
L 733.284375 64.938438 
" style="fill:none;stroke:#1f77b4;stroke-linecap:square;stroke-width:1.5;"/>
    </g>
    <g id="line2d_21"/>
    <g id="text_21">
     <!-- value -->
     <g transform="translate(741.284375 68.438438)scale(0.1 -0.1)">
      <use xlink:href="#DejaVuSans-118"/>
      <use x="59.179688" xlink:href="#DejaVuSans-97"/>
      <use x="120.458984" xlink:href="#DejaVuSans-108"/>
      <use x="148.242188" xlink:href="#DejaVuSans-117"/>
      <use x="211.621094" xlink:href="#DejaVuSans-101"/>
     </g>
    </g>
   </g>
  </g>
 </g>
 <defs>
  <clipPath id="pa7a011b397">
   <rect height="332.64" width="669.6" x="108" y="51.84"/>
  </clipPath>
 </defs>
</svg>
