<?xml version="1.0" encoding="utf-8" standalone="no"?>
<!DOCTYPE svg PUBLIC "-//W3C//DTD SVG 1.1//EN"
  "http://www.w3.org/Graphics/SVG/1.1/DTD/svg11.dtd">
<!-- Created with matplotlib (https://matplotlib.org/) -->
<svg height="432pt" version="1.1" viewBox="0 0 864 432" width="864pt" xmlns="http://www.w3.org/2000/svg" xmlns:xlink="http://www.w3.org/1999/xlink">
 <defs>
  <style type="text/css">
*{stroke-linecap:butt;stroke-linejoin:round;}
  </style>
 </defs>
 <g id="figure_1">
  <g id="patch_1">
   <path d="M 0 432 
L 864 432 
L 864 0 
L 0 0 
z
" style="fill:#ffffff;"/>
  </g>
  <g id="axes_1">
   <g id="patch_2">
    <path d="M 108 384.48 
L 777.6 384.48 
L 777.6 51.84 
L 108 51.84 
z
" style="fill:#ffffff;"/>
   </g>
   <g id="patch_3">
    <path clip-path="url(#p858a54db02)" d="M 138.436364 384.48 
L 138.436364 51.84 
L 374.096118 51.84 
L 374.096118 384.48 
z
" style="fill:#0000ff;opacity:0.05;"/>
   </g>
   <g id="patch_4">
    <path clip-path="url(#p858a54db02)" d="M 374.096118 384.48 
L 374.096118 51.84 
L 745.713422 51.84 
L 745.713422 384.48 
z
" style="fill:#ff0000;opacity:0.08;"/>
   </g>
   <g id="patch_5">
    <path clip-path="url(#p858a54db02)" d="M 138.436364 384.48 
L 138.436364 51.84 
L 147.5002 51.84 
L 147.5002 384.48 
z
" style="fill:#008000;opacity:0.04;"/>
   </g>
   <g id="patch_6">
    <path clip-path="url(#p858a54db02)" d="M 138.436364 384.48 
L 138.436364 371.1744 
L 147.5002 371.1744 
L 147.5002 384.48 
z
" style="fill:#ffe500;"/>
   </g>
   <g id="patch_7">
    <path clip-path="url(#p858a54db02)" d="M 156.564037 384.48 
L 156.564037 51.84 
L 165.627874 51.84 
L 165.627874 384.48 
z
" style="fill:#008000;opacity:0.04;"/>
   </g>
   <g id="patch_8">
    <path clip-path="url(#p858a54db02)" d="M 174.69171 384.48 
L 174.69171 51.84 
L 183.755547 51.84 
L 183.755547 384.48 
z
" style="fill:#008000;opacity:0.04;"/>
   </g>
   <g id="patch_9">
    <path clip-path="url(#p858a54db02)" d="M 192.819384 384.48 
L 192.819384 51.84 
L 201.883221 51.84 
L 201.883221 384.48 
z
" style="fill:#008000;opacity:0.04;"/>
   </g>
   <g id="patch_10">
    <path clip-path="url(#p858a54db02)" d="M 210.947057 384.48 
L 210.947057 51.84 
L 220.010894 51.84 
L 220.010894 384.48 
z
" style="fill:#008000;opacity:0.04;"/>
   </g>
   <g id="patch_11">
    <path clip-path="url(#p858a54db02)" d="M 229.074731 384.48 
L 229.074731 51.84 
L 238.138567 51.84 
L 238.138567 384.48 
z
" style="fill:#008000;opacity:0.04;"/>
   </g>
   <g id="patch_12">
    <path clip-path="url(#p858a54db02)" d="M 247.202404 384.48 
L 247.202404 51.84 
L 256.266241 51.84 
L 256.266241 384.48 
z
" style="fill:#008000;opacity:0.04;"/>
   </g>
   <g id="patch_13">
    <path clip-path="url(#p858a54db02)" d="M 265.330077 384.48 
L 265.330077 51.84 
L 274.393914 51.84 
L 274.393914 384.48 
z
" style="fill:#008000;opacity:0.04;"/>
   </g>
   <g id="patch_14">
    <path clip-path="url(#p858a54db02)" d="M 510.053668 384.48 
L 510.053668 371.1744 
L 519.117505 371.1744 
L 519.117505 384.48 
z
" style="fill:#ff6600;"/>
   </g>
   <g id="patch_15">
    <path clip-path="url(#p858a54db02)" d="M 283.457751 384.48 
L 283.457751 51.84 
L 292.521588 51.84 
L 292.521588 384.48 
z
" style="fill:#008000;opacity:0.04;"/>
   </g>
   <g id="patch_16">
    <path clip-path="url(#p858a54db02)" d="M 301.585424 384.48 
L 301.585424 51.84 
L 310.649261 51.84 
L 310.649261 384.48 
z
" style="fill:#008000;opacity:0.04;"/>
   </g>
   <g id="patch_17">
    <path clip-path="url(#p858a54db02)" d="M 319.713098 384.48 
L 319.713098 51.84 
L 328.776934 51.84 
L 328.776934 384.48 
z
" style="fill:#008000;opacity:0.04;"/>
   </g>
   <g id="patch_18">
    <path clip-path="url(#p858a54db02)" d="M 337.840771 384.48 
L 337.840771 51.84 
L 346.904608 51.84 
L 346.904608 384.48 
z
" style="fill:#008000;opacity:0.04;"/>
   </g>
   <g id="patch_19">
    <path clip-path="url(#p858a54db02)" d="M 337.840771 384.48 
L 337.840771 371.1744 
L 346.904608 371.1744 
L 346.904608 384.48 
z
" style="fill:#ffe500;"/>
   </g>
   <g id="patch_20">
    <path clip-path="url(#p858a54db02)" d="M 355.968444 384.48 
L 355.968444 51.84 
L 365.032281 51.84 
L 365.032281 384.48 
z
" style="fill:#008000;opacity:0.04;"/>
   </g>
   <g id="patch_21">
    <path clip-path="url(#p858a54db02)" d="M 374.096118 384.48 
L 374.096118 51.84 
L 383.159955 51.84 
L 383.159955 384.48 
z
" style="fill:#008000;opacity:0.04;"/>
   </g>
   <g id="patch_22">
    <path clip-path="url(#p858a54db02)" d="M 392.223791 384.48 
L 392.223791 51.84 
L 401.287628 51.84 
L 401.287628 384.48 
z
" style="fill:#008000;opacity:0.04;"/>
   </g>
   <g id="patch_23">
    <path clip-path="url(#p858a54db02)" d="M 410.351465 384.48 
L 410.351465 51.84 
L 419.415301 51.84 
L 419.415301 384.48 
z
" style="fill:#008000;opacity:0.04;"/>
   </g>
   <g id="patch_24">
    <path clip-path="url(#p858a54db02)" d="M 428.479138 384.48 
L 428.479138 51.84 
L 437.542975 51.84 
L 437.542975 384.48 
z
" style="fill:#008000;opacity:0.04;"/>
   </g>
   <g id="patch_25">
    <path clip-path="url(#p858a54db02)" d="M 446.606811 384.48 
L 446.606811 51.84 
L 455.670648 51.84 
L 455.670648 384.48 
z
" style="fill:#008000;opacity:0.04;"/>
   </g>
   <g id="patch_26">
    <path clip-path="url(#p858a54db02)" d="M 464.734485 384.48 
L 464.734485 51.84 
L 473.798322 51.84 
L 473.798322 384.48 
z
" style="fill:#008000;opacity:0.04;"/>
   </g>
   <g id="patch_27">
    <path clip-path="url(#p858a54db02)" d="M 482.862158 384.48 
L 482.862158 51.84 
L 491.925995 51.84 
L 491.925995 384.48 
z
" style="fill:#008000;opacity:0.04;"/>
   </g>
   <g id="patch_28">
    <path clip-path="url(#p858a54db02)" d="M 500.989832 384.48 
L 500.989832 51.84 
L 510.053668 51.84 
L 510.053668 384.48 
z
" style="fill:#008000;opacity:0.04;"/>
   </g>
   <g id="patch_29">
    <path clip-path="url(#p858a54db02)" d="M 510.053668 371.1744 
L 510.053668 51.84 
L 519.117505 51.84 
L 519.117505 371.1744 
z
" style="fill:#008000;opacity:0.5;"/>
   </g>
   <g id="patch_30">
    <path clip-path="url(#p858a54db02)" d="M 519.117505 384.48 
L 519.117505 51.84 
L 528.181342 51.84 
L 528.181342 384.48 
z
" style="fill:#008000;opacity:0.04;"/>
   </g>
   <g id="patch_31">
    <path clip-path="url(#p858a54db02)" d="M 537.245178 384.48 
L 537.245178 51.84 
L 546.309015 51.84 
L 546.309015 384.48 
z
" style="fill:#008000;opacity:0.04;"/>
   </g>
   <g id="patch_32">
    <path clip-path="url(#p858a54db02)" d="M 555.372852 384.48 
L 555.372852 51.84 
L 564.436689 51.84 
L 564.436689 384.48 
z
" style="fill:#008000;opacity:0.04;"/>
   </g>
   <g id="patch_33">
    <path clip-path="url(#p858a54db02)" d="M 573.500525 384.48 
L 573.500525 51.84 
L 582.564362 51.84 
L 582.564362 384.48 
z
" style="fill:#008000;opacity:0.04;"/>
   </g>
   <g id="patch_34">
    <path clip-path="url(#p858a54db02)" d="M 591.628199 384.48 
L 591.628199 51.84 
L 600.692035 51.84 
L 600.692035 384.48 
z
" style="fill:#008000;opacity:0.04;"/>
   </g>
   <g id="patch_35">
    <path clip-path="url(#p858a54db02)" d="M 609.755872 384.48 
L 609.755872 51.84 
L 618.819709 51.84 
L 618.819709 384.48 
z
" style="fill:#008000;opacity:0.04;"/>
   </g>
   <g id="patch_36">
    <path clip-path="url(#p858a54db02)" d="M 627.883545 384.48 
L 627.883545 51.84 
L 636.947382 51.84 
L 636.947382 384.48 
z
" style="fill:#008000;opacity:0.04;"/>
   </g>
   <g id="patch_37">
    <path clip-path="url(#p858a54db02)" d="M 646.011219 384.48 
L 646.011219 51.84 
L 655.075055 51.84 
L 655.075055 384.48 
z
" style="fill:#008000;opacity:0.04;"/>
   </g>
   <g id="patch_38">
    <path clip-path="url(#p858a54db02)" d="M 664.138892 384.48 
L 664.138892 51.84 
L 673.202729 51.84 
L 673.202729 384.48 
z
" style="fill:#008000;opacity:0.04;"/>
   </g>
   <g id="patch_39">
    <path clip-path="url(#p858a54db02)" d="M 682.266566 384.48 
L 682.266566 51.84 
L 691.330402 51.84 
L 691.330402 384.48 
z
" style="fill:#008000;opacity:0.04;"/>
   </g>
   <g id="patch_40">
    <path clip-path="url(#p858a54db02)" d="M 700.394239 384.48 
L 700.394239 51.84 
L 709.458076 51.84 
L 709.458076 384.48 
z
" style="fill:#008000;opacity:0.04;"/>
   </g>
   <g id="patch_41">
    <path clip-path="url(#p858a54db02)" d="M 718.521912 384.48 
L 718.521912 51.84 
L 727.585749 51.84 
L 727.585749 384.48 
z
" style="fill:#008000;opacity:0.04;"/>
   </g>
   <g id="patch_42">
    <path clip-path="url(#p858a54db02)" d="M 736.649586 384.48 
L 736.649586 51.84 
L 745.713422 51.84 
L 745.713422 384.48 
z
" style="fill:#008000;opacity:0.04;"/>
   </g>
   <g id="matplotlib.axis_1">
    <g id="xtick_1">
     <g id="line2d_1">
      <defs>
       <path d="M 0 0 
L 0 3.5 
" id="m87af084eab" style="stroke:#000000;stroke-width:0.8;"/>
      </defs>
      <g>
       <use style="stroke:#000000;stroke-width:0.8;" x="138.436364" xlink:href="#m87af084eab" y="384.48"/>
      </g>
     </g>
     <g id="text_1">
      <!-- 0 -->
      <defs>
       <path d="M 31.78125 66.40625 
Q 24.171875 66.40625 20.328125 58.90625 
Q 16.5 51.421875 16.5 36.375 
Q 16.5 21.390625 20.328125 13.890625 
Q 24.171875 6.390625 31.78125 6.390625 
Q 39.453125 6.390625 43.28125 13.890625 
Q 47.125 21.390625 47.125 36.375 
Q 47.125 51.421875 43.28125 58.90625 
Q 39.453125 66.40625 31.78125 66.40625 
z
M 31.78125 74.21875 
Q 44.046875 74.21875 50.515625 64.515625 
Q 56.984375 54.828125 56.984375 36.375 
Q 56.984375 17.96875 50.515625 8.265625 
Q 44.046875 -1.421875 31.78125 -1.421875 
Q 19.53125 -1.421875 13.0625 8.265625 
Q 6.59375 17.96875 6.59375 36.375 
Q 6.59375 54.828125 13.0625 64.515625 
Q 19.53125 74.21875 31.78125 74.21875 
z
" id="DejaVuSans-48"/>
      </defs>
      <g transform="translate(135.255114 399.078438)scale(0.1 -0.1)">
       <use xlink:href="#DejaVuSans-48"/>
      </g>
     </g>
    </g>
    <g id="xtick_2">
     <g id="line2d_2">
      <g>
       <use style="stroke:#000000;stroke-width:0.8;" x="229.074731" xlink:href="#m87af084eab" y="384.48"/>
      </g>
     </g>
     <g id="text_2">
      <!-- 250 -->
      <defs>
       <path d="M 19.1875 8.296875 
L 53.609375 8.296875 
L 53.609375 0 
L 7.328125 0 
L 7.328125 8.296875 
Q 12.9375 14.109375 22.625 23.890625 
Q 32.328125 33.6875 34.8125 36.53125 
Q 39.546875 41.84375 41.421875 45.53125 
Q 43.3125 49.21875 43.3125 52.78125 
Q 43.3125 58.59375 39.234375 62.25 
Q 35.15625 65.921875 28.609375 65.921875 
Q 23.96875 65.921875 18.8125 64.3125 
Q 13.671875 62.703125 7.8125 59.421875 
L 7.8125 69.390625 
Q 13.765625 71.78125 18.9375 73 
Q 24.125 74.21875 28.421875 74.21875 
Q 39.75 74.21875 46.484375 68.546875 
Q 53.21875 62.890625 53.21875 53.421875 
Q 53.21875 48.921875 51.53125 44.890625 
Q 49.859375 40.875 45.40625 35.40625 
Q 44.1875 33.984375 37.640625 27.21875 
Q 31.109375 20.453125 19.1875 8.296875 
z
" id="DejaVuSans-50"/>
       <path d="M 10.796875 72.90625 
L 49.515625 72.90625 
L 49.515625 64.59375 
L 19.828125 64.59375 
L 19.828125 46.734375 
Q 21.96875 47.46875 24.109375 47.828125 
Q 26.265625 48.1875 28.421875 48.1875 
Q 40.625 48.1875 47.75 41.5 
Q 54.890625 34.8125 54.890625 23.390625 
Q 54.890625 11.625 47.5625 5.09375 
Q 40.234375 -1.421875 26.90625 -1.421875 
Q 22.3125 -1.421875 17.546875 -0.640625 
Q 12.796875 0.140625 7.71875 1.703125 
L 7.71875 11.625 
Q 12.109375 9.234375 16.796875 8.0625 
Q 21.484375 6.890625 26.703125 6.890625 
Q 35.15625 6.890625 40.078125 11.328125 
Q 45.015625 15.765625 45.015625 23.390625 
Q 45.015625 31 40.078125 35.4375 
Q 35.15625 39.890625 26.703125 39.890625 
Q 22.75 39.890625 18.8125 39.015625 
Q 14.890625 38.140625 10.796875 36.28125 
z
" id="DejaVuSans-53"/>
      </defs>
      <g transform="translate(219.530981 399.078438)scale(0.1 -0.1)">
       <use xlink:href="#DejaVuSans-50"/>
       <use x="63.623047" xlink:href="#DejaVuSans-53"/>
       <use x="127.246094" xlink:href="#DejaVuSans-48"/>
      </g>
     </g>
    </g>
    <g id="xtick_3">
     <g id="line2d_3">
      <g>
       <use style="stroke:#000000;stroke-width:0.8;" x="319.713098" xlink:href="#m87af084eab" y="384.48"/>
      </g>
     </g>
     <g id="text_3">
      <!-- 500 -->
      <g transform="translate(310.169348 399.078438)scale(0.1 -0.1)">
       <use xlink:href="#DejaVuSans-53"/>
       <use x="63.623047" xlink:href="#DejaVuSans-48"/>
       <use x="127.246094" xlink:href="#DejaVuSans-48"/>
      </g>
     </g>
    </g>
    <g id="xtick_4">
     <g id="line2d_4">
      <g>
       <use style="stroke:#000000;stroke-width:0.8;" x="410.351465" xlink:href="#m87af084eab" y="384.48"/>
      </g>
     </g>
     <g id="text_4">
      <!-- 750 -->
      <defs>
       <path d="M 8.203125 72.90625 
L 55.078125 72.90625 
L 55.078125 68.703125 
L 28.609375 0 
L 18.3125 0 
L 43.21875 64.59375 
L 8.203125 64.59375 
z
" id="DejaVuSans-55"/>
      </defs>
      <g transform="translate(400.807715 399.078438)scale(0.1 -0.1)">
       <use xlink:href="#DejaVuSans-55"/>
       <use x="63.623047" xlink:href="#DejaVuSans-53"/>
       <use x="127.246094" xlink:href="#DejaVuSans-48"/>
      </g>
     </g>
    </g>
    <g id="xtick_5">
     <g id="line2d_5">
      <g>
       <use style="stroke:#000000;stroke-width:0.8;" x="500.989832" xlink:href="#m87af084eab" y="384.48"/>
      </g>
     </g>
     <g id="text_5">
      <!-- 1000 -->
      <defs>
       <path d="M 12.40625 8.296875 
L 28.515625 8.296875 
L 28.515625 63.921875 
L 10.984375 60.40625 
L 10.984375 69.390625 
L 28.421875 72.90625 
L 38.28125 72.90625 
L 38.28125 8.296875 
L 54.390625 8.296875 
L 54.390625 0 
L 12.40625 0 
z
" id="DejaVuSans-49"/>
      </defs>
      <g transform="translate(488.264832 399.078438)scale(0.1 -0.1)">
       <use xlink:href="#DejaVuSans-49"/>
       <use x="63.623047" xlink:href="#DejaVuSans-48"/>
       <use x="127.246094" xlink:href="#DejaVuSans-48"/>
       <use x="190.869141" xlink:href="#DejaVuSans-48"/>
      </g>
     </g>
    </g>
    <g id="xtick_6">
     <g id="line2d_6">
      <g>
       <use style="stroke:#000000;stroke-width:0.8;" x="591.628199" xlink:href="#m87af084eab" y="384.48"/>
      </g>
     </g>
     <g id="text_6">
      <!-- 1250 -->
      <g transform="translate(578.903199 399.078438)scale(0.1 -0.1)">
       <use xlink:href="#DejaVuSans-49"/>
       <use x="63.623047" xlink:href="#DejaVuSans-50"/>
       <use x="127.246094" xlink:href="#DejaVuSans-53"/>
       <use x="190.869141" xlink:href="#DejaVuSans-48"/>
      </g>
     </g>
    </g>
    <g id="xtick_7">
     <g id="line2d_7">
      <g>
       <use style="stroke:#000000;stroke-width:0.8;" x="682.266566" xlink:href="#m87af084eab" y="384.48"/>
      </g>
     </g>
     <g id="text_7">
      <!-- 1500 -->
      <g transform="translate(669.541566 399.078438)scale(0.1 -0.1)">
       <use xlink:href="#DejaVuSans-49"/>
       <use x="63.623047" xlink:href="#DejaVuSans-53"/>
       <use x="127.246094" xlink:href="#DejaVuSans-48"/>
       <use x="190.869141" xlink:href="#DejaVuSans-48"/>
      </g>
     </g>
    </g>
    <g id="xtick_8">
     <g id="line2d_8">
      <g>
       <use style="stroke:#000000;stroke-width:0.8;" x="772.904933" xlink:href="#m87af084eab" y="384.48"/>
      </g>
     </g>
     <g id="text_8">
      <!-- 1750 -->
      <g transform="translate(760.179933 399.078438)scale(0.1 -0.1)">
       <use xlink:href="#DejaVuSans-49"/>
       <use x="63.623047" xlink:href="#DejaVuSans-55"/>
       <use x="127.246094" xlink:href="#DejaVuSans-53"/>
       <use x="190.869141" xlink:href="#DejaVuSans-48"/>
      </g>
     </g>
    </g>
    <g id="text_9">
     <!-- Timestamp -->
     <defs>
      <path d="M -0.296875 72.90625 
L 61.375 72.90625 
L 61.375 64.59375 
L 35.5 64.59375 
L 35.5 0 
L 25.59375 0 
L 25.59375 64.59375 
L -0.296875 64.59375 
z
" id="DejaVuSans-84"/>
      <path d="M 9.421875 54.6875 
L 18.40625 54.6875 
L 18.40625 0 
L 9.421875 0 
z
M 9.421875 75.984375 
L 18.40625 75.984375 
L 18.40625 64.59375 
L 9.421875 64.59375 
z
" id="DejaVuSans-105"/>
      <path d="M 52 44.1875 
Q 55.375 50.25 60.0625 53.125 
Q 64.75 56 71.09375 56 
Q 79.640625 56 84.28125 50.015625 
Q 88.921875 44.046875 88.921875 33.015625 
L 88.921875 0 
L 79.890625 0 
L 79.890625 32.71875 
Q 79.890625 40.578125 77.09375 44.375 
Q 74.3125 48.1875 68.609375 48.1875 
Q 61.625 48.1875 57.5625 43.546875 
Q 53.515625 38.921875 53.515625 30.90625 
L 53.515625 0 
L 44.484375 0 
L 44.484375 32.71875 
Q 44.484375 40.625 41.703125 44.40625 
Q 38.921875 48.1875 33.109375 48.1875 
Q 26.21875 48.1875 22.15625 43.53125 
Q 18.109375 38.875 18.109375 30.90625 
L 18.109375 0 
L 9.078125 0 
L 9.078125 54.6875 
L 18.109375 54.6875 
L 18.109375 46.1875 
Q 21.1875 51.21875 25.484375 53.609375 
Q 29.78125 56 35.6875 56 
Q 41.65625 56 45.828125 52.96875 
Q 50 49.953125 52 44.1875 
z
" id="DejaVuSans-109"/>
      <path d="M 56.203125 29.59375 
L 56.203125 25.203125 
L 14.890625 25.203125 
Q 15.484375 15.921875 20.484375 11.0625 
Q 25.484375 6.203125 34.421875 6.203125 
Q 39.59375 6.203125 44.453125 7.46875 
Q 49.3125 8.734375 54.109375 11.28125 
L 54.109375 2.78125 
Q 49.265625 0.734375 44.1875 -0.34375 
Q 39.109375 -1.421875 33.890625 -1.421875 
Q 20.796875 -1.421875 13.15625 6.1875 
Q 5.515625 13.8125 5.515625 26.8125 
Q 5.515625 40.234375 12.765625 48.109375 
Q 20.015625 56 32.328125 56 
Q 43.359375 56 49.78125 48.890625 
Q 56.203125 41.796875 56.203125 29.59375 
z
M 47.21875 32.234375 
Q 47.125 39.59375 43.09375 43.984375 
Q 39.0625 48.390625 32.421875 48.390625 
Q 24.90625 48.390625 20.390625 44.140625 
Q 15.875 39.890625 15.1875 32.171875 
z
" id="DejaVuSans-101"/>
      <path d="M 44.28125 53.078125 
L 44.28125 44.578125 
Q 40.484375 46.53125 36.375 47.5 
Q 32.28125 48.484375 27.875 48.484375 
Q 21.1875 48.484375 17.84375 46.4375 
Q 14.5 44.390625 14.5 40.28125 
Q 14.5 37.15625 16.890625 35.375 
Q 19.28125 33.59375 26.515625 31.984375 
L 29.59375 31.296875 
Q 39.15625 29.25 43.1875 25.515625 
Q 47.21875 21.78125 47.21875 15.09375 
Q 47.21875 7.46875 41.1875 3.015625 
Q 35.15625 -1.421875 24.609375 -1.421875 
Q 20.21875 -1.421875 15.453125 -0.5625 
Q 10.6875 0.296875 5.421875 2 
L 5.421875 11.28125 
Q 10.40625 8.6875 15.234375 7.390625 
Q 20.0625 6.109375 24.8125 6.109375 
Q 31.15625 6.109375 34.5625 8.28125 
Q 37.984375 10.453125 37.984375 14.40625 
Q 37.984375 18.0625 35.515625 20.015625 
Q 33.0625 21.96875 24.703125 23.78125 
L 21.578125 24.515625 
Q 13.234375 26.265625 9.515625 29.90625 
Q 5.8125 33.546875 5.8125 39.890625 
Q 5.8125 47.609375 11.28125 51.796875 
Q 16.75 56 26.8125 56 
Q 31.78125 56 36.171875 55.265625 
Q 40.578125 54.546875 44.28125 53.078125 
z
" id="DejaVuSans-115"/>
      <path d="M 18.3125 70.21875 
L 18.3125 54.6875 
L 36.8125 54.6875 
L 36.8125 47.703125 
L 18.3125 47.703125 
L 18.3125 18.015625 
Q 18.3125 11.328125 20.140625 9.421875 
Q 21.96875 7.515625 27.59375 7.515625 
L 36.8125 7.515625 
L 36.8125 0 
L 27.59375 0 
Q 17.1875 0 13.234375 3.875 
Q 9.28125 7.765625 9.28125 18.015625 
L 9.28125 47.703125 
L 2.6875 47.703125 
L 2.6875 54.6875 
L 9.28125 54.6875 
L 9.28125 70.21875 
z
" id="DejaVuSans-116"/>
      <path d="M 34.28125 27.484375 
Q 23.390625 27.484375 19.1875 25 
Q 14.984375 22.515625 14.984375 16.5 
Q 14.984375 11.71875 18.140625 8.90625 
Q 21.296875 6.109375 26.703125 6.109375 
Q 34.1875 6.109375 38.703125 11.40625 
Q 43.21875 16.703125 43.21875 25.484375 
L 43.21875 27.484375 
z
M 52.203125 31.203125 
L 52.203125 0 
L 43.21875 0 
L 43.21875 8.296875 
Q 40.140625 3.328125 35.546875 0.953125 
Q 30.953125 -1.421875 24.3125 -1.421875 
Q 15.921875 -1.421875 10.953125 3.296875 
Q 6 8.015625 6 15.921875 
Q 6 25.140625 12.171875 29.828125 
Q 18.359375 34.515625 30.609375 34.515625 
L 43.21875 34.515625 
L 43.21875 35.40625 
Q 43.21875 41.609375 39.140625 45 
Q 35.0625 48.390625 27.6875 48.390625 
Q 23 48.390625 18.546875 47.265625 
Q 14.109375 46.140625 10.015625 43.890625 
L 10.015625 52.203125 
Q 14.9375 54.109375 19.578125 55.046875 
Q 24.21875 56 28.609375 56 
Q 40.484375 56 46.34375 49.84375 
Q 52.203125 43.703125 52.203125 31.203125 
z
" id="DejaVuSans-97"/>
      <path d="M 18.109375 8.203125 
L 18.109375 -20.796875 
L 9.078125 -20.796875 
L 9.078125 54.6875 
L 18.109375 54.6875 
L 18.109375 46.390625 
Q 20.953125 51.265625 25.265625 53.625 
Q 29.59375 56 35.59375 56 
Q 45.5625 56 51.78125 48.09375 
Q 58.015625 40.1875 58.015625 27.296875 
Q 58.015625 14.40625 51.78125 6.484375 
Q 45.5625 -1.421875 35.59375 -1.421875 
Q 29.59375 -1.421875 25.265625 0.953125 
Q 20.953125 3.328125 18.109375 8.203125 
z
M 48.6875 27.296875 
Q 48.6875 37.203125 44.609375 42.84375 
Q 40.53125 48.484375 33.40625 48.484375 
Q 26.265625 48.484375 22.1875 42.84375 
Q 18.109375 37.203125 18.109375 27.296875 
Q 18.109375 17.390625 22.1875 11.75 
Q 26.265625 6.109375 33.40625 6.109375 
Q 40.53125 6.109375 44.609375 11.75 
Q 48.6875 17.390625 48.6875 27.296875 
z
" id="DejaVuSans-112"/>
     </defs>
     <g transform="translate(414.739062 412.756563)scale(0.1 -0.1)">
      <use xlink:href="#DejaVuSans-84"/>
      <use x="61.037109" xlink:href="#DejaVuSans-105"/>
      <use x="88.820312" xlink:href="#DejaVuSans-109"/>
      <use x="186.232422" xlink:href="#DejaVuSans-101"/>
      <use x="247.755859" xlink:href="#DejaVuSans-115"/>
      <use x="299.855469" xlink:href="#DejaVuSans-116"/>
      <use x="339.064453" xlink:href="#DejaVuSans-97"/>
      <use x="400.34375" xlink:href="#DejaVuSans-109"/>
      <use x="497.755859" xlink:href="#DejaVuSans-112"/>
     </g>
    </g>
   </g>
   <g id="matplotlib.axis_2">
    <g id="ytick_1">
     <g id="line2d_9">
      <defs>
       <path d="M 0 0 
L -3.5 0 
" id="ma83fa3256a" style="stroke:#000000;stroke-width:0.8;"/>
      </defs>
      <g>
       <use style="stroke:#000000;stroke-width:0.8;" x="108" xlink:href="#ma83fa3256a" y="335.562484"/>
      </g>
     </g>
     <g id="text_10">
      <!-- 0 -->
      <g transform="translate(94.6375 339.361703)scale(0.1 -0.1)">
       <use xlink:href="#DejaVuSans-48"/>
      </g>
     </g>
    </g>
    <g id="ytick_2">
     <g id="line2d_10">
      <g>
       <use style="stroke:#000000;stroke-width:0.8;" x="108" xlink:href="#ma83fa3256a" y="266.135806"/>
      </g>
     </g>
     <g id="text_11">
      <!-- 1000 -->
      <g transform="translate(75.55 269.935025)scale(0.1 -0.1)">
       <use xlink:href="#DejaVuSans-49"/>
       <use x="63.623047" xlink:href="#DejaVuSans-48"/>
       <use x="127.246094" xlink:href="#DejaVuSans-48"/>
       <use x="190.869141" xlink:href="#DejaVuSans-48"/>
      </g>
     </g>
    </g>
    <g id="ytick_3">
     <g id="line2d_11">
      <g>
       <use style="stroke:#000000;stroke-width:0.8;" x="108" xlink:href="#ma83fa3256a" y="196.709129"/>
      </g>
     </g>
     <g id="text_12">
      <!-- 2000 -->
      <g transform="translate(75.55 200.508348)scale(0.1 -0.1)">
       <use xlink:href="#DejaVuSans-50"/>
       <use x="63.623047" xlink:href="#DejaVuSans-48"/>
       <use x="127.246094" xlink:href="#DejaVuSans-48"/>
       <use x="190.869141" xlink:href="#DejaVuSans-48"/>
      </g>
     </g>
    </g>
    <g id="ytick_4">
     <g id="line2d_12">
      <g>
       <use style="stroke:#000000;stroke-width:0.8;" x="108" xlink:href="#ma83fa3256a" y="127.282451"/>
      </g>
     </g>
     <g id="text_13">
      <!-- 3000 -->
      <defs>
       <path d="M 40.578125 39.3125 
Q 47.65625 37.796875 51.625 33 
Q 55.609375 28.21875 55.609375 21.1875 
Q 55.609375 10.40625 48.1875 4.484375 
Q 40.765625 -1.421875 27.09375 -1.421875 
Q 22.515625 -1.421875 17.65625 -0.515625 
Q 12.796875 0.390625 7.625 2.203125 
L 7.625 11.71875 
Q 11.71875 9.328125 16.59375 8.109375 
Q 21.484375 6.890625 26.8125 6.890625 
Q 36.078125 6.890625 40.9375 10.546875 
Q 45.796875 14.203125 45.796875 21.1875 
Q 45.796875 27.640625 41.28125 31.265625 
Q 36.765625 34.90625 28.71875 34.90625 
L 20.21875 34.90625 
L 20.21875 43.015625 
L 29.109375 43.015625 
Q 36.375 43.015625 40.234375 45.921875 
Q 44.09375 48.828125 44.09375 54.296875 
Q 44.09375 59.90625 40.109375 62.90625 
Q 36.140625 65.921875 28.71875 65.921875 
Q 24.65625 65.921875 20.015625 65.03125 
Q 15.375 64.15625 9.8125 62.3125 
L 9.8125 71.09375 
Q 15.4375 72.65625 20.34375 73.4375 
Q 25.25 74.21875 29.59375 74.21875 
Q 40.828125 74.21875 47.359375 69.109375 
Q 53.90625 64.015625 53.90625 55.328125 
Q 53.90625 49.265625 50.4375 45.09375 
Q 46.96875 40.921875 40.578125 39.3125 
z
" id="DejaVuSans-51"/>
      </defs>
      <g transform="translate(75.55 131.08167)scale(0.1 -0.1)">
       <use xlink:href="#DejaVuSans-51"/>
       <use x="63.623047" xlink:href="#DejaVuSans-48"/>
       <use x="127.246094" xlink:href="#DejaVuSans-48"/>
       <use x="190.869141" xlink:href="#DejaVuSans-48"/>
      </g>
     </g>
    </g>
    <g id="ytick_5">
     <g id="line2d_13">
      <g>
       <use style="stroke:#000000;stroke-width:0.8;" x="108" xlink:href="#ma83fa3256a" y="57.855774"/>
      </g>
     </g>
     <g id="text_14">
      <!-- 4000 -->
      <defs>
       <path d="M 37.796875 64.3125 
L 12.890625 25.390625 
L 37.796875 25.390625 
z
M 35.203125 72.90625 
L 47.609375 72.90625 
L 47.609375 25.390625 
L 58.015625 25.390625 
L 58.015625 17.1875 
L 47.609375 17.1875 
L 47.609375 0 
L 37.796875 0 
L 37.796875 17.1875 
L 4.890625 17.1875 
L 4.890625 26.703125 
z
" id="DejaVuSans-52"/>
      </defs>
      <g transform="translate(75.55 61.654992)scale(0.1 -0.1)">
       <use xlink:href="#DejaVuSans-52"/>
       <use x="63.623047" xlink:href="#DejaVuSans-48"/>
       <use x="127.246094" xlink:href="#DejaVuSans-48"/>
       <use x="190.869141" xlink:href="#DejaVuSans-48"/>
      </g>
     </g>
    </g>
    <g id="text_15">
     <!-- Value -->
     <defs>
      <path d="M 28.609375 0 
L 0.78125 72.90625 
L 11.078125 72.90625 
L 34.1875 11.53125 
L 57.328125 72.90625 
L 67.578125 72.90625 
L 39.796875 0 
z
" id="DejaVuSans-86"/>
      <path d="M 9.421875 75.984375 
L 18.40625 75.984375 
L 18.40625 0 
L 9.421875 0 
z
" id="DejaVuSans-108"/>
      <path d="M 8.5 21.578125 
L 8.5 54.6875 
L 17.484375 54.6875 
L 17.484375 21.921875 
Q 17.484375 14.15625 20.5 10.265625 
Q 23.53125 6.390625 29.59375 6.390625 
Q 36.859375 6.390625 41.078125 11.03125 
Q 45.3125 15.671875 45.3125 23.6875 
L 45.3125 54.6875 
L 54.296875 54.6875 
L 54.296875 0 
L 45.3125 0 
L 45.3125 8.40625 
Q 42.046875 3.421875 37.71875 1 
Q 33.40625 -1.421875 27.6875 -1.421875 
Q 18.265625 -1.421875 13.375 4.4375 
Q 8.5 10.296875 8.5 21.578125 
z
M 31.109375 56 
z
" id="DejaVuSans-117"/>
     </defs>
     <g transform="translate(69.470312 232.273281)rotate(-90)scale(0.1 -0.1)">
      <use xlink:href="#DejaVuSans-86"/>
      <use x="68.298828" xlink:href="#DejaVuSans-97"/>
      <use x="129.578125" xlink:href="#DejaVuSans-108"/>
      <use x="157.361328" xlink:href="#DejaVuSans-117"/>
      <use x="220.740234" xlink:href="#DejaVuSans-101"/>
     </g>
    </g>
   </g>
   <g id="line2d_14">
    <path clip-path="url(#p858a54db02)" d="M 138.436364 340.833819 
L 138.798917 321.075686 
L 139.524024 295.626404 
L 139.886578 295.098622 
L 140.249131 302.019854 
L 140.611684 315.734591 
L 140.974238 324.62609 
L 141.336791 338.939306 
L 141.699345 337.05382 
L 142.061898 332.765083 
L 142.424452 330.060006 
L 142.787005 328.661792 
L 143.512112 318.349394 
L 143.874666 318.606136 
L 144.599773 330.634457 
L 144.962326 353.25206 
L 145.32488 356.662601 
L 145.687433 366.269773 
L 146.049986 367.21059 
L 146.775093 351.494833 
L 147.137647 323.981333 
L 147.5002 310.621096 
L 147.862754 282.201664 
L 148.225307 285.887867 
L 148.587861 279.260078 
L 148.950414 283.477655 
L 149.312968 302.245647 
L 150.038075 329.79262 
L 150.400628 327.759074 
L 150.763182 327.209743 
L 151.125735 320.428178 
L 151.488288 323.369842 
L 152.213395 310.859066 
L 152.575949 308.096062 
L 152.938502 317.266404 
L 153.663609 343.080142 
L 154.026163 346.890522 
L 154.388716 361.954621 
L 154.75127 361.367521 
L 155.476377 336.657997 
L 156.201484 296.421661 
L 156.564037 291.443492 
L 156.926591 278.886272 
L 157.289144 280.468729 
L 158.376804 302.743943 
L 158.739358 319.212751 
L 159.101911 328.556953 
L 159.464465 328.712751 
L 159.827018 326.545509 
L 160.552125 313.877403 
L 160.914679 302.880331 
L 161.277232 315.368198 
L 161.639786 320.596257 
L 162.002339 320.473532 
L 162.364893 339.636974 
L 162.727446 349.521379 
L 163.089999 364.916539 
L 163.452553 362.491141 
L 163.815106 357.566825 
L 165.26532 293.144272 
L 165.990427 276.820617 
L 166.352981 283.45222 
L 167.440641 326.737476 
L 167.803195 331.047794 
L 168.165748 336.917323 
L 168.890855 324.156278 
L 169.253408 316.260256 
L 169.615962 317.031282 
L 169.978515 315.56349 
L 170.341069 317.497744 
L 170.703622 336.826749 
L 171.066176 345.215131 
L 171.428729 361.458222 
L 171.791283 366.876266 
L 172.51639 360.494316 
L 173.241497 331.581055 
L 173.60405 304.48553 
L 173.966603 291.451954 
L 174.329157 286.969095 
L 174.69171 284.651728 
L 175.054264 289.678548 
L 175.416817 306.060471 
L 175.779371 317.343219 
L 176.141924 335.639022 
L 176.504478 336.103741 
L 176.867031 336.113067 
L 177.229585 335.425363 
L 177.592138 331.463471 
L 177.954692 316.089921 
L 178.317245 315.120916 
L 178.679799 315.317848 
L 179.404906 338.351434 
L 179.767459 351.628743 
L 180.492566 369.36 
L 181.217673 360.112916 
L 181.580226 343.460206 
L 181.94278 320.273863 
L 182.667887 296.904969 
L 183.03044 288.694314 
L 183.392994 287.743609 
L 184.118101 311.132862 
L 184.480654 316.157962 
L 184.843208 330.504313 
L 185.205761 334.879352 
L 185.568314 342.102004 
L 185.930868 337.023199 
L 186.655975 318.987771 
L 187.018528 317.767322 
L 187.743635 324.319707 
L 188.106189 337.81573 
L 188.468742 342.309756 
L 189.193849 367.244033 
L 189.918956 358.949438 
L 190.28151 349.057852 
L 190.644063 328.916217 
L 191.006616 302.057946 
L 191.36917 285.943713 
L 191.731723 284.584591 
L 192.094277 280.80158 
L 192.45683 288.490694 
L 192.819384 291.505716 
L 193.181937 316.248398 
L 193.907044 328.757466 
L 194.269598 326.84436 
L 194.632151 326.669273 
L 194.994705 316.473443 
L 195.357258 318.474938 
L 195.719812 312.198935 
L 196.082365 303.188431 
L 196.444919 315.641731 
L 196.807472 319.114686 
L 197.170025 338.112096 
L 197.532579 349.380354 
L 197.895132 357.036888 
L 198.257686 357.773689 
L 198.982793 334.456378 
L 199.345346 314.559356 
L 199.7079 285.619383 
L 200.433007 269.400791 
L 200.79556 268.962765 
L 201.158114 274.589036 
L 201.520667 292.547814 
L 202.245774 310.242604 
L 202.608327 312.934383 
L 202.970881 318.219244 
L 203.333434 315.070258 
L 203.695988 301.319912 
L 204.058541 300.249345 
L 204.421095 296.831277 
L 204.783648 298.537385 
L 205.146202 299.189212 
L 205.508755 316.776373 
L 205.871309 322.004837 
L 206.233862 338.134894 
L 206.596416 345.118626 
L 206.958969 342.53419 
L 207.684076 321.54596 
L 208.771736 265.178343 
L 209.13429 268.874625 
L 209.496843 258.956437 
L 209.859397 264.333876 
L 210.947057 296.213789 
L 211.309611 307.344101 
L 211.672164 311.542472 
L 212.034718 300.287765 
L 212.397271 293.787892 
L 212.759825 294.452255 
L 213.122378 291.521294 
L 213.484932 286.808337 
L 214.572592 317.380724 
L 215.297699 338.576418 
L 215.660252 331.458093 
L 216.022806 329.941489 
L 216.385359 319.843671 
L 216.747913 291.320702 
L 217.110466 275.014948 
L 218.198127 254.172265 
L 219.64834 292.499448 
L 220.010894 305.273776 
L 220.373447 305.079684 
L 220.736001 307.865202 
L 221.098554 289.873978 
L 221.461108 290.831378 
L 221.823661 287.334239 
L 222.186215 288.205002 
L 222.548768 293.98772 
L 222.911322 304.406551 
L 223.273875 320.854178 
L 223.636429 328.448508 
L 223.998982 340.593192 
L 224.361536 338.667525 
L 224.724089 332.246804 
L 225.086642 318.001888 
L 226.174303 262.55816 
L 226.536856 260.620116 
L 226.89941 255.379674 
L 227.261963 258.292785 
L 227.624517 282.426329 
L 227.98707 285.890231 
L 228.349624 301.266368 
L 229.074731 305.677051 
L 229.437284 298.707917 
L 229.799838 303.880479 
L 230.162391 294.219003 
L 230.887498 287.668516 
L 231.612605 311.647055 
L 231.975158 314.534289 
L 232.337712 336.640984 
L 232.700265 344.628352 
L 233.062819 348.867668 
L 233.787926 325.277435 
L 234.513033 284.236756 
L 234.875586 269.589886 
L 235.23814 261.294773 
L 235.600693 261.045166 
L 235.963247 268.245993 
L 237.050907 310.814107 
L 237.41346 310.130435 
L 237.776014 317.666176 
L 238.138567 310.620546 
L 238.501121 307.517832 
L 238.863674 295.112104 
L 239.226228 292.826311 
L 239.951335 300.039492 
L 240.313888 316.549349 
L 240.676442 324.608092 
L 241.038995 341.381837 
L 241.401549 352.365012 
L 241.764102 353.66559 
L 242.126655 331.01278 
L 242.851762 307.361571 
L 243.214316 285.277954 
L 243.576869 277.225762 
L 243.939423 273.502776 
L 244.301976 267.15861 
L 244.66453 267.713118 
L 245.027083 276.822519 
L 245.389637 294.378285 
L 245.75219 300.654045 
L 246.114744 302.722915 
L 246.477297 311.944662 
L 246.839851 312.687887 
L 247.202404 300.13915 
L 247.564957 298.467192 
L 247.927511 293.473421 
L 248.290064 300.693054 
L 248.652618 300.575599 
L 249.015171 308.73661 
L 250.102832 346.494776 
L 250.465385 340.732965 
L 250.827939 332.175354 
L 251.190492 319.149931 
L 251.553046 301.11791 
L 251.915599 289.096823 
L 252.640706 252.568776 
L 253.00326 256.739761 
L 253.365813 263.019027 
L 253.728366 278.225276 
L 254.09092 288.666156 
L 254.453473 294.004211 
L 254.816027 311.335734 
L 255.17858 302.768142 
L 255.541134 305.529426 
L 255.903687 292.631752 
L 256.266241 287.990624 
L 256.628794 286.98864 
L 256.991348 285.038966 
L 257.353901 294.729243 
L 257.716455 299.61299 
L 258.441562 321.684364 
L 258.804115 327.814287 
L 259.166668 329.317031 
L 259.529222 328.46713 
L 259.891775 306.840882 
L 260.254329 292.433492 
L 260.616882 269.190421 
L 261.341989 250.851828 
L 261.704543 241.573243 
L 262.067096 255.319793 
L 262.42965 259.448897 
L 263.51731 296.51369 
L 263.879864 295.600037 
L 264.242417 285.424935 
L 264.60497 290.195248 
L 264.967524 276.136462 
L 265.330077 277.115963 
L 265.692631 270.884558 
L 266.055184 276.215578 
L 266.780291 305.181909 
L 267.142845 308.873026 
L 267.505398 324.22973 
L 268.230505 311.677237 
L 268.955612 281.524325 
L 269.680719 243.527813 
L 270.043273 235.588356 
L 270.405826 234.780448 
L 270.768379 239.994674 
L 271.130933 258.768913 
L 271.493486 264.02195 
L 271.85604 284.976359 
L 272.218593 285.441951 
L 272.9437 277.324242 
L 273.306254 279.428998 
L 273.668807 261.934516 
L 274.031361 261.085001 
L 274.756468 268.739869 
L 275.481575 295.59189 
L 275.844128 306.806294 
L 276.206681 313.019009 
L 276.569235 309.614451 
L 276.931788 302.884435 
L 278.382002 240.930829 
L 279.107109 222.754127 
L 280.19477 254.933907 
L 280.557323 275.500086 
L 280.919877 280.64746 
L 281.28243 278.324952 
L 281.644983 281.676333 
L 282.007537 266.997799 
L 282.37009 263.572869 
L 282.732644 263.459311 
L 283.095197 269.679237 
L 283.457751 270.884454 
L 283.820304 279.425158 
L 284.182858 299.830264 
L 284.907965 319.0991 
L 285.270518 314.934812 
L 285.633072 307.426082 
L 285.995625 295.62523 
L 287.083286 245.241232 
L 287.445839 233.396375 
L 287.808392 232.163134 
L 288.533499 253.285559 
L 288.896053 270.065721 
L 289.258606 276.205611 
L 289.62116 279.68171 
L 289.983713 286.553836 
L 290.346267 278.151823 
L 290.70882 275.265959 
L 291.071374 271.075399 
L 291.433927 268.765769 
L 292.159034 278.146958 
L 292.521588 287.419216 
L 293.246694 315.640985 
L 293.609248 325.321737 
L 293.971801 318.37631 
L 294.334355 315.646816 
L 295.422015 255.441602 
L 295.784569 254.394015 
L 296.147122 238.833551 
L 296.509676 236.034158 
L 297.234783 257.121592 
L 297.597336 276.771075 
L 298.322443 292.135264 
L 298.684996 290.178322 
L 299.04755 285.608169 
L 299.410103 283.754949 
L 299.772657 274.612372 
L 300.13521 275.105596 
L 300.497764 269.779011 
L 300.860317 283.957772 
L 301.222871 289.722978 
L 301.585424 305.66504 
L 301.947978 316.534175 
L 302.310531 322.879955 
L 302.673085 324.966292 
L 303.760745 281.633482 
L 304.123299 262.624298 
L 304.848405 247.118304 
L 305.210959 249.245822 
L 305.573512 252.290072 
L 305.936066 259.949955 
L 306.661173 287.218154 
L 307.023726 288.208892 
L 307.38628 294.244821 
L 307.748833 287.451201 
L 308.111387 282.982883 
L 308.47394 270.399727 
L 308.836494 275.412907 
L 309.199047 266.995811 
L 309.924154 282.962178 
L 310.286707 301.104786 
L 310.649261 309.582007 
L 311.011814 313.722557 
L 311.736921 311.561704 
L 313.187135 243.893882 
L 313.549689 237.758779 
L 313.912242 241.392439 
L 314.274796 239.750339 
L 314.637349 256.315416 
L 314.999903 262.459978 
L 315.725009 281.636017 
L 316.087563 285.80185 
L 316.81267 267.954311 
L 317.175223 267.897522 
L 317.537777 260.436467 
L 317.90033 270.413685 
L 318.262884 265.575008 
L 319.713098 316.286895 
L 320.075651 295.014838 
L 320.438205 293.761674 
L 320.800758 283.756148 
L 321.163311 268.589674 
L 321.525865 247.073843 
L 321.888418 241.456474 
L 322.250972 222.700132 
L 322.613525 218.832971 
L 323.701186 251.702684 
L 324.063739 259.408557 
L 324.426293 276.983607 
L 324.788846 274.55491 
L 325.1514 265.139878 
L 325.513953 260.698495 
L 325.876507 251.764189 
L 326.23906 247.938467 
L 326.601614 248.613147 
L 326.964167 259.973304 
L 327.32672 261.908245 
L 327.689274 279.418976 
L 328.414381 299.776419 
L 328.776934 302.262492 
L 329.864595 261.710677 
L 330.227148 231.14341 
L 330.589702 223.085891 
L 330.952255 220.043779 
L 331.314809 208.039872 
L 331.677362 211.530696 
L 332.039916 218.787007 
L 332.765022 255.353112 
L 333.127576 262.228301 
L 333.490129 263.395463 
L 333.852683 258.048686 
L 334.215236 254.713422 
L 334.57779 239.592797 
L 334.940343 242.87356 
L 335.302897 239.589434 
L 335.66545 250.541074 
L 336.028004 255.968575 
L 336.390557 273.715286 
L 336.753111 278.902939 
L 337.115664 287.740601 
L 337.478218 288.449874 
L 337.840771 288.653027 
L 338.928431 228.982219 
L 339.290985 216.291051 
L 339.653538 199.122286 
L 340.016092 205.685407 
L 340.741199 228.679184 
L 341.103752 241.689794 
L 341.828859 256.017344 
L 342.191413 257.287379 
L 342.553966 250.92594 
L 342.91652 253.821942 
L 343.279073 236.941483 
L 343.641627 235.270563 
L 344.00418 232.487842 
L 344.366733 248.253564 
L 344.729287 254.44207 
L 345.09184 266.477646 
L 345.454394 293.509167 
L 345.816947 287.998096 
L 346.179501 302.931784 
L 346.542054 280.748851 
L 346.904608 276.442948 
L 347.629715 237.948353 
L 348.354822 211.885318 
L 348.717375 213.506149 
L 349.079929 214.579707 
L 349.442482 236.142235 
L 350.167589 253.727176 
L 350.530142 267.599099 
L 350.892696 259.008013 
L 351.255249 263.219379 
L 351.980356 247.785648 
L 352.34291 248.090713 
L 352.705463 240.172758 
L 353.068017 252.897938 
L 353.43057 260.048695 
L 353.793124 282.304082 
L 354.155677 285.09394 
L 354.518231 300.389598 
L 354.880784 293.028331 
L 355.243337 290.907998 
L 355.968444 256.515175 
L 356.330998 241.894102 
L 356.693551 218.396425 
L 357.056105 213.591449 
L 357.418658 216.399789 
L 358.143765 235.590379 
L 358.868872 258.181767 
L 359.593979 270.805732 
L 359.956533 261.049944 
L 360.319086 258.078589 
L 360.68164 247.577808 
L 361.044193 245.540423 
L 361.406746 251.009454 
L 361.7693 250.679025 
L 362.131853 271.711563 
L 362.494407 271.562691 
L 362.85696 291.639791 
L 363.219514 297.310836 
L 363.944621 291.486372 
L 364.307174 273.19793 
L 364.669728 260.95913 
L 365.394835 228.203537 
L 365.757388 217.160694 
L 366.119942 220.998391 
L 366.482495 221.804181 
L 367.207602 248.414764 
L 367.932709 268.782051 
L 368.295262 271.249306 
L 368.657816 263.283924 
L 369.382923 255.181257 
L 370.10803 246.623931 
L 370.470583 256.350253 
L 371.19569 284.54783 
L 371.558244 292.43406 
L 371.920797 295.161946 
L 372.28335 295.861432 
L 372.645904 290.494672 
L 373.371011 252.611674 
L 373.733564 241.878956 
L 374.458671 211.0113 
L 374.821225 215.141392 
L 375.183778 216.944689 
L 376.633992 261.770805 
L 376.996546 259.018934 
L 377.359099 260.787319 
L 377.721652 247.224747 
L 378.084206 246.994581 
L 378.809313 226.875861 
L 379.171866 246.556492 
L 379.53442 253.829104 
L 379.896973 258.435458 
L 380.259527 278.65545 
L 380.62208 280.431677 
L 380.984634 292.175353 
L 382.797401 207.387325 
L 383.159955 198.326447 
L 383.522508 198.232701 
L 383.885061 205.947661 
L 384.610168 231.167582 
L 384.972722 243.510852 
L 385.335275 247.358887 
L 385.697829 245.873794 
L 386.060382 241.663476 
L 386.422936 240.189058 
L 386.785489 226.91436 
L 387.148043 222.239349 
L 388.235703 241.597727 
L 389.323363 271.060294 
L 389.685917 271.260235 
L 390.773577 232.107029 
L 391.136131 206.54732 
L 391.498684 200.529527 
L 391.861238 187.148536 
L 392.223791 186.114827 
L 392.948898 206.587781 
L 393.311452 221.883523 
L 393.674005 227.204185 
L 394.036559 237.439075 
L 394.399112 238.517672 
L 394.761665 236.214064 
L 395.124219 230.221969 
L 395.486772 220.019164 
L 395.849326 217.999309 
L 396.211879 225.173846 
L 396.574433 222.269456 
L 396.936986 238.348894 
L 397.29954 244.659603 
L 398.024647 268.161631 
L 398.3872 265.968911 
L 398.749754 258.158234 
L 400.562521 183.374454 
L 400.925074 184.764682 
L 401.287628 197.443074 
L 401.650181 194.689865 
L 402.375288 232.747736 
L 403.462949 239.894228 
L 403.825502 225.762659 
L 404.188056 216.582026 
L 404.550609 217.519922 
L 404.913163 214.192026 
L 405.275716 224.577208 
L 405.63827 227.387729 
L 406.363376 259.275319 
L 406.72593 270.232545 
L 407.088483 265.780174 
L 407.451037 264.15219 
L 407.81359 250.994619 
L 409.263804 185.629474 
L 409.626358 196.053292 
L 409.988911 198.820896 
L 410.351465 209.18808 
L 410.714018 216.23032 
L 411.076572 231.864576 
L 411.439125 239.413454 
L 411.801678 242.606249 
L 412.164232 237.482768 
L 412.889339 220.440444 
L 413.251892 219.713574 
L 413.614446 228.453365 
L 413.976999 228.35169 
L 414.339553 243.250785 
L 414.702106 252.892719 
L 415.06466 266.003365 
L 415.427213 274.433612 
L 415.789767 272.820665 
L 416.514874 247.821769 
L 416.877427 234.339657 
L 417.602534 198.705005 
L 417.965087 193.883966 
L 418.327641 191.254984 
L 418.690194 202.180402 
L 419.052748 208.662359 
L 419.415301 233.45499 
L 419.777855 236.074561 
L 420.502962 248.192017 
L 420.865515 240.154884 
L 421.590622 232.649964 
L 421.953176 225.731523 
L 422.315729 226.921851 
L 422.678283 231.580391 
L 423.040836 239.035978 
L 423.403389 260.910602 
L 423.765943 262.881738 
L 424.128496 286.178019 
L 424.853603 269.581199 
L 425.216157 257.746364 
L 425.941264 212.155998 
L 426.303817 205.80672 
L 426.666371 196.624206 
L 427.028924 191.976866 
L 427.391478 195.737339 
L 427.754031 219.181603 
L 428.116585 218.926448 
L 428.841691 242.487637 
L 429.204245 243.287803 
L 429.566798 241.705787 
L 429.929352 230.620831 
L 430.291905 234.437509 
L 430.654459 219.224471 
L 431.017012 224.585621 
L 431.379566 235.737975 
L 431.742119 240.560809 
L 432.467226 264.536428 
L 432.82978 269.606618 
L 433.192333 268.906513 
L 433.554887 261.305145 
L 433.91744 251.165277 
L 434.279994 225.828765 
L 434.642547 214.59559 
L 435.0051 198.16096 
L 435.730207 187.589846 
L 436.092761 191.14388 
L 436.817868 220.293812 
L 437.180421 227.809827 
L 437.542975 232.71939 
L 437.905528 234.406705 
L 438.268082 229.658573 
L 438.630635 220.485901 
L 438.993189 222.311187 
L 439.355742 212.541613 
L 439.718296 217.896866 
L 440.080849 218.770894 
L 440.805956 239.547176 
L 441.168509 250.827488 
L 441.531063 257.307569 
L 441.893616 253.754227 
L 442.25617 258.117615 
L 442.618723 238.689898 
L 442.981277 212.334213 
L 443.34383 200.905778 
L 443.706384 184.428507 
L 444.068937 173.178084 
L 444.431491 175.073601 
L 445.156598 193.269144 
L 446.244258 226.610832 
L 446.606811 220.629746 
L 446.969365 220.072149 
L 447.694472 201.172858 
L 448.057025 201.434833 
L 448.419579 202.555657 
L 448.782132 212.066011 
L 449.144686 214.790926 
L 449.507239 237.942613 
L 449.869793 241.912402 
L 450.232346 249.066208 
L 450.5949 249.265248 
L 451.320006 228.527614 
L 451.68256 207.494014 
L 452.77022 165.472313 
L 453.495327 177.060492 
L 453.857881 182.90323 
L 454.220434 199.065104 
L 454.582988 203.412903 
L 454.945541 217.892949 
L 455.308095 217.941689 
L 455.670648 212.543086 
L 456.033202 198.179148 
L 456.395755 196.756559 
L 456.758309 194.819911 
L 457.120862 197.685098 
L 457.483415 192.249342 
L 458.571076 232.165944 
L 458.933629 237.728607 
L 459.296183 237.94001 
L 459.658736 237.790536 
L 460.383843 203.184146 
L 461.10895 164.823913 
L 461.471504 163.208279 
L 461.834057 162.742679 
L 462.196611 164.215139 
L 462.559164 191.169204 
L 462.921717 196.366045 
L 463.284271 206.072462 
L 463.646824 210.33162 
L 464.009378 211.572069 
L 464.371931 211.424733 
L 464.734485 200.916523 
L 465.097038 194.679797 
L 465.459592 190.404637 
L 465.822145 194.973566 
L 466.184699 205.620208 
L 466.547252 211.819178 
L 467.272359 233.472865 
L 467.997466 245.768205 
L 468.360019 232.717675 
L 468.722573 223.753581 
L 469.085126 204.044911 
L 469.44768 194.740653 
L 469.810233 171.586569 
L 470.172787 162.737633 
L 470.897894 169.590885 
L 471.260447 178.821868 
L 471.985554 207.324313 
L 472.348108 211.076551 
L 472.710661 223.110757 
L 473.073215 213.886088 
L 473.435768 210.284546 
L 474.160875 197.771102 
L 474.523428 198.980224 
L 474.885982 204.931969 
L 475.611089 230.318623 
L 475.973642 246.373201 
L 476.336196 254.66537 
L 476.698749 252.038798 
L 477.423856 229.169097 
L 478.148963 188.796056 
L 478.511517 177.919863 
L 478.87407 172.437864 
L 479.236624 169.80286 
L 479.599177 175.511042 
L 479.96173 184.579501 
L 480.324284 203.086979 
L 481.049391 219.48327 
L 481.411944 222.020502 
L 481.774498 227.08959 
L 482.499605 205.263375 
L 482.862158 201.70367 
L 483.949819 216.722452 
L 484.312372 234.578235 
L 484.674926 245.508045 
L 485.400032 255.768865 
L 485.762586 246.609031 
L 486.125139 226.548774 
L 486.487693 213.225274 
L 486.850246 191.28848 
L 487.575353 164.24836 
L 487.937907 164.953144 
L 488.30046 181.346997 
L 488.663014 186.918795 
L 489.025567 200.856144 
L 489.388121 209.79345 
L 489.750674 210.071097 
L 490.113228 222.290583 
L 490.475781 219.895791 
L 491.200888 199.030268 
L 491.563441 192.260934 
L 492.288548 207.874319 
L 492.651102 211.893431 
L 493.013655 232.73426 
L 493.738762 249.452073 
L 494.101316 243.465386 
L 494.826423 227.215792 
L 495.55153 191.128189 
L 495.914083 181.923163 
L 496.276637 162.798066 
L 496.63919 160.655681 
L 497.364297 177.798499 
L 497.72685 192.549096 
L 498.089404 202.46552 
L 498.451957 216.818615 
L 498.814511 209.762851 
L 499.177064 208.643717 
L 499.539618 197.526561 
L 499.902171 198.303518 
L 500.627278 186.225644 
L 501.352385 213.274322 
L 501.714939 215.308893 
L 502.077492 232.18785 
L 502.440045 236.407211 
L 502.802599 233.053703 
L 503.165152 231.706505 
L 503.890259 194.520454 
L 504.252813 180.217797 
L 504.615366 160.844693 
L 504.97792 151.259763 
L 505.340473 154.593563 
L 505.703027 152.801667 
L 506.428134 184.288638 
L 506.790687 195.960942 
L 507.153241 193.712671 
L 507.515794 198.115246 
L 507.878348 198.37265 
L 508.240901 187.896175 
L 508.603454 189.059816 
L 508.966008 178.623111 
L 509.328561 174.589241 
L 510.778775 222.27657 
L 511.141329 228.046496 
L 511.503882 221.218641 
L 511.866436 217.802491 
L 512.591543 182.289934 
L 512.954096 160.22222 
L 513.31665 156.276798 
L 513.679203 145.900038 
L 514.041756 141.986803 
L 514.40431 147.180306 
L 514.766863 165.977843 
L 515.129417 171.873068 
L 515.49197 184.90488 
L 515.854524 191.00234 
L 516.217077 188.356344 
L 516.579631 189.651873 
L 516.942184 178.445691 
L 517.304738 174.988895 
L 517.667291 165.421227 
L 518.029845 101.624625 
L 518.392398 180.215287 
L 518.754952 197.308594 
L 519.117505 204.734907 
L 519.480058 207.57215 
L 519.842612 221.111763 
L 520.205165 221.161951 
L 520.567719 209.352411 
L 520.930272 205.791558 
L 521.655379 159.39374 
L 522.380486 140.304098 
L 522.74304 139.516208 
L 523.105593 145.870266 
L 523.468147 154.229898 
L 523.8307 174.048492 
L 524.555807 184.70983 
L 524.91836 190.535554 
L 525.280914 187.366963 
L 525.643467 182.194416 
L 526.006021 171.613184 
L 526.368574 171.972274 
L 526.731128 166.076749 
L 527.093681 180.299879 
L 527.456235 186.142135 
L 528.181342 219.9219 
L 528.543895 220.353024 
L 528.906449 223.361242 
L 529.631556 196.901029 
L 529.994109 179.533724 
L 530.356663 168.8811 
L 531.081769 138.019523 
L 531.444323 144.115658 
L 531.806876 147.535453 
L 532.531983 178.962692 
L 532.894537 181.737225 
L 533.25709 187.700469 
L 533.619644 189.22405 
L 533.982197 194.209655 
L 534.344751 183.355014 
L 534.707304 183.756318 
L 535.069858 170.698718 
L 535.794965 188.017989 
L 536.882625 221.807326 
L 537.245178 225.312905 
L 537.607732 226.402837 
L 537.970285 219.590183 
L 538.332839 206.173816 
L 538.695392 179.132172 
L 539.420499 149.968676 
L 539.783053 143.652719 
L 540.145606 142.023057 
L 540.50816 148.730495 
L 540.870713 169.496352 
L 541.233267 173.742707 
L 541.59582 189.293297 
L 541.958373 191.516113 
L 542.320927 199.422607 
L 542.68348 195.391699 
L 543.046034 188.529657 
L 543.408587 184.435526 
L 543.771141 176.958328 
L 544.133694 174.431193 
L 544.496248 192.18868 
L 545.583908 221.940416 
L 545.946462 229.663969 
L 546.671569 226.188352 
L 548.121782 151.607904 
L 548.484336 146.465226 
L 548.846889 143.186987 
L 549.209443 147.179474 
L 549.571996 167.698216 
L 549.93455 176.64552 
L 550.297103 192.109627 
L 551.02221 196.337259 
L 551.384764 195.614227 
L 551.747317 183.94289 
L 552.109871 182.173241 
L 552.472424 170.219593 
L 552.834978 176.657369 
L 553.197531 180.801769 
L 553.560084 199.012214 
L 553.922638 205.964958 
L 554.285191 222.087652 
L 554.647745 223.146381 
L 555.010298 226.538146 
L 555.735405 205.362399 
L 556.460512 161.506478 
L 557.185619 144.629132 
L 557.548173 134.968215 
L 558.635833 173.350665 
L 559.36094 184.439154 
L 559.723493 185.720811 
L 560.086047 184.564143 
L 560.4486 176.112435 
L 560.811154 174.857193 
L 561.173707 172.674314 
L 561.536261 173.640977 
L 561.898814 171.413112 
L 562.261368 183.026077 
L 562.623921 199.911774 
L 563.349028 215.934461 
L 563.711582 208.665648 
L 564.074135 208.245056 
L 564.436689 194.842798 
L 565.161795 147.210754 
L 565.886902 128.38681 
L 566.249456 125.114831 
L 566.974563 154.033182 
L 567.69967 173.17255 
L 568.062223 172.780883 
L 568.424777 174.331885 
L 568.78733 170.083789 
L 569.149884 168.777918 
L 569.512437 154.947851 
L 569.874991 152.513165 
L 570.237544 164.630762 
L 570.600097 161.206439 
L 570.962651 177.075163 
L 571.325204 183.540191 
L 571.687758 197.433362 
L 572.050311 198.186805 
L 572.412865 198.652442 
L 572.775418 191.672669 
L 573.137972 181.985468 
L 573.500525 159.070883 
L 574.588186 114.534991 
L 574.950739 119.472664 
L 575.313293 120.000151 
L 576.400953 161.108967 
L 576.763506 169.813897 
L 577.12606 168.05204 
L 577.851167 161.232541 
L 578.21372 151.437264 
L 578.576274 148.63408 
L 578.938827 148.437883 
L 579.301381 154.083681 
L 579.663934 164.922507 
L 580.026488 180.637943 
L 580.389041 190.490215 
L 581.114148 198.934453 
L 581.476701 192.71483 
L 581.839255 178.646878 
L 582.564362 132.532063 
L 583.289469 119.717992 
L 583.652022 108.48261 
L 584.014576 123.316725 
L 584.377129 131.88308 
L 585.102236 159.060033 
L 585.46479 157.609575 
L 585.827343 165.847863 
L 586.55245 154.645136 
L 586.915004 142.143511 
L 587.277557 145.389768 
L 587.64011 145.592833 
L 588.727771 177.018274 
L 589.090324 189.706002 
L 589.452878 192.198287 
L 589.815431 196.014446 
L 590.177985 188.602789 
L 590.903092 161.198255 
L 591.265645 139.634245 
L 591.628199 131.911334 
L 591.990752 120.493645 
L 592.353306 115.704149 
L 592.715859 119.483801 
L 593.440966 151.007635 
L 593.803519 170.426287 
L 594.166073 165.166192 
L 594.528626 174.466526 
L 594.89118 166.906261 
L 595.253733 162.682802 
L 595.616287 150.692532 
L 595.97884 153.386717 
L 596.341394 154.685277 
L 596.703947 160.860211 
L 597.066501 172.538287 
L 597.429054 190.371808 
L 598.154161 201.3827 
L 598.516714 203.148141 
L 598.879268 202.884524 
L 599.241821 185.267597 
L 599.604375 160.045145 
L 600.329482 130.07062 
L 601.054589 119.799943 
L 601.417142 128.339969 
L 602.504803 165.507945 
L 602.867356 173.263962 
L 603.22991 168.946511 
L 603.592463 169.355164 
L 604.31757 157.650247 
L 604.680123 157.068823 
L 605.042677 158.355499 
L 605.40523 162.175574 
L 605.767784 167.890391 
L 606.130337 182.264715 
L 606.492891 202.03072 
L 606.855444 212.710158 
L 607.217998 196.77471 
L 607.580551 204.53605 
L 607.943105 180.419041 
L 608.305658 164.667586 
L 609.030765 128.976018 
L 609.393319 123.549263 
L 609.755872 125.653317 
L 610.118425 125.567773 
L 610.843532 154.503841 
L 611.568639 174.048498 
L 611.931193 175.364463 
L 612.293746 172.511296 
L 612.6563 162.688038 
L 613.018853 157.577927 
L 613.381407 148.056686 
L 614.106514 161.064381 
L 614.469067 177.536396 
L 614.831621 183.599049 
L 615.556727 206.867725 
L 616.281834 194.963327 
L 616.644388 179.042164 
L 617.006941 156.640591 
L 617.732048 127.205187 
L 618.094602 123.575052 
L 618.457155 115.13083 
L 620.269923 170.130497 
L 620.632476 161.965498 
L 620.99503 161.331329 
L 621.357583 158.606902 
L 621.720136 147.725501 
L 622.08269 140.887675 
L 622.445243 144.256674 
L 622.807797 146.380884 
L 623.17035 164.912942 
L 623.532904 168.338715 
L 623.895457 180.853931 
L 624.258011 187.320638 
L 624.620564 190.261419 
L 625.345671 165.01179 
L 626.070778 128.879666 
L 626.433332 116.106156 
L 626.795885 110.012718 
L 627.158438 111.465061 
L 627.520992 107.827121 
L 628.608652 153.314516 
L 628.971206 150.004787 
L 629.333759 156.477498 
L 629.696313 154.28092 
L 630.058866 137.108896 
L 630.42142 132.263278 
L 630.783973 131.023168 
L 631.146527 135.099785 
L 631.50908 135.714876 
L 631.871634 146.860765 
L 632.59674 179.882457 
L 632.959294 176.46346 
L 633.321847 175.224736 
L 633.684401 168.125456 
L 635.134615 107.275882 
L 635.859722 91.999608 
L 636.222275 98.885171 
L 636.584829 116.894091 
L 637.309936 138.824682 
L 637.672489 137.363397 
L 638.035043 144.406947 
L 638.397596 138.656609 
L 638.760149 137.395045 
L 639.122703 120.783547 
L 639.84781 130.173555 
L 640.210363 133.023143 
L 640.572917 138.271988 
L 640.93547 149.152922 
L 641.298024 167.616767 
L 641.660577 177.30656 
L 642.748238 156.777591 
L 643.110791 133.045471 
L 643.473345 119.057214 
L 643.835898 96.184421 
L 644.198451 91.3574 
L 644.561005 89.402166 
L 645.286112 105.163742 
L 645.648665 123.266999 
L 646.011219 135.086243 
L 646.373772 139.745618 
L 646.736326 139.302609 
L 647.098879 146.605175 
L 647.461433 127.547028 
L 647.823986 131.805502 
L 648.18654 121.879 
L 648.549093 128.165218 
L 648.911647 131.228642 
L 649.2742 142.108146 
L 649.999307 168.313946 
L 650.36186 178.133386 
L 650.724414 174.999912 
L 651.086967 169.967044 
L 651.812074 140.510584 
L 652.537181 99.180797 
L 652.899735 93.406731 
L 653.262288 94.917637 
L 653.624842 102.484684 
L 653.987395 113.226333 
L 654.349949 131.368691 
L 654.712502 127.691288 
L 655.075055 146.058792 
L 655.437609 151.072837 
L 655.800162 142.23048 
L 656.162716 142.275912 
L 656.525269 134.223836 
L 656.887823 122.623877 
L 657.250376 128.541552 
L 657.61293 144.455598 
L 657.975483 148.820084 
L 658.338037 162.936918 
L 658.70059 168.560829 
L 659.063144 184.518947 
L 659.425697 179.701325 
L 659.788251 170.82256 
L 660.150804 158.31748 
L 660.875911 122.131503 
L 661.601018 99.877852 
L 661.963571 101.767599 
L 662.326125 104.360935 
L 662.688678 122.224124 
L 663.776339 147.616611 
L 664.138892 145.547912 
L 664.501446 145.833532 
L 664.863999 141.177381 
L 665.226553 129.394659 
L 665.589106 128.655127 
L 665.95166 130.44507 
L 666.314213 138.609705 
L 666.676766 153.133896 
L 667.03932 159.886468 
L 667.401873 178.847112 
L 667.764427 182.872779 
L 668.12698 181.483633 
L 668.489534 176.301965 
L 669.939748 110.227524 
L 670.302301 97.494274 
L 670.664855 98.993224 
L 671.752515 130.826273 
L 672.115068 136.593729 
L 672.477622 152.959811 
L 672.840175 156.886124 
L 673.202729 149.863572 
L 673.565282 134.652594 
L 673.927836 132.895454 
L 674.290389 126.806603 
L 675.37805 148.34732 
L 675.740603 165.093026 
L 676.103157 175.445646 
L 676.46571 177.569767 
L 676.828264 186.794002 
L 679.003584 88.823004 
L 679.366138 94.180495 
L 679.728691 102.073782 
L 680.816352 137.872488 
L 681.178905 141.067914 
L 681.541459 143.005667 
L 681.904012 141.207803 
L 682.991673 116.100043 
L 683.354226 121.761784 
L 683.716779 129.660673 
L 684.079333 142.791164 
L 684.441886 151.136538 
L 684.80444 163.911499 
L 685.166993 171.125916 
L 685.529547 164.264047 
L 685.8921 161.66617 
L 686.254654 147.562107 
L 686.617207 122.630868 
L 686.979761 105.934828 
L 687.704868 86.338236 
L 688.067421 82.252317 
L 688.429975 84.047837 
L 689.155081 112.871673 
L 689.880188 128.421131 
L 690.242742 132.460164 
L 690.605295 120.873063 
L 690.967849 116.902301 
L 691.330402 117.085061 
L 691.692956 105.826818 
L 692.055509 107.902656 
L 692.780616 126.256453 
L 693.505723 154.755472 
L 693.868277 158.742717 
L 694.23083 156.483115 
L 694.955937 135.73625 
L 695.31849 114.603214 
L 696.406151 69.70236 
L 696.768704 68.052604 
L 697.131258 85.739693 
L 697.493811 91.076184 
L 697.856365 99.497344 
L 698.218918 117.457368 
L 698.581472 124.456441 
L 698.944025 119.692194 
L 699.306579 113.359695 
L 700.031686 105.478101 
L 700.394239 104.526692 
L 700.756792 111.290264 
L 701.119346 103.613112 
L 701.481899 124.075866 
L 702.207006 139.630369 
L 702.56956 153.738115 
L 703.294667 138.249928 
L 703.65722 128.073379 
L 704.019774 104.61256 
L 704.382327 97.788164 
L 704.744881 76.047778 
L 705.107434 66.96 
L 705.469988 67.276829 
L 705.832541 79.319528 
L 706.195094 86.985739 
L 706.920201 110.964204 
L 707.282755 120.895161 
L 707.645308 120.242107 
L 708.370415 110.171333 
L 709.095522 93.929692 
L 709.820629 103.418119 
L 710.90829 153.921619 
L 711.270843 146.299888 
L 711.633397 146.128368 
L 712.358503 130.102787 
L 713.08361 97.0017 
L 713.446164 77.512897 
L 713.808717 75.565131 
L 714.171271 72.302938 
L 714.533824 76.553702 
L 714.896378 90.057406 
L 715.258931 96.58219 
L 715.621485 106.147361 
L 715.984038 121.082401 
L 716.346592 125.355237 
L 716.709145 121.755235 
L 717.071699 106.760884 
L 717.434252 110.063679 
L 717.796805 99.668946 
L 718.884466 119.594223 
L 719.247019 140.96534 
L 719.972126 157.956197 
L 720.33468 161.890482 
L 720.697233 150.139578 
L 721.784894 100.429937 
L 722.510001 72.354407 
L 722.872554 75.491887 
L 723.960214 111.173931 
L 724.322768 116.185111 
L 724.685321 127.789141 
L 725.047875 130.21239 
L 725.410428 121.095398 
L 725.772982 119.471723 
L 726.135535 114.920539 
L 726.498089 106.401592 
L 726.860642 110.928549 
L 727.585749 127.037402 
L 727.948303 136.943539 
L 728.310856 154.866961 
L 729.035963 158.150574 
L 729.76107 138.57313 
L 730.123623 117.6633 
L 731.211284 75.88218 
L 731.573837 71.471673 
L 731.936391 88.277358 
L 733.024051 120.014242 
L 733.749158 131.127585 
L 734.111712 118.578032 
L 734.474265 118.293976 
L 734.836818 105.355411 
L 735.199372 102.736025 
L 735.561925 110.367403 
L 735.924479 103.767648 
L 736.649586 141.259154 
L 737.012139 144.068153 
L 737.374693 153.009611 
L 737.737246 156.453065 
L 738.824907 110.424941 
L 739.18746 83.199804 
L 739.550014 75.596057 
L 739.912567 76.134328 
L 740.27512 69.8923 
L 740.637674 70.786814 
L 741.000227 82.861544 
L 741.362781 104.25977 
L 741.725334 116.990255 
L 742.087888 117.822761 
L 742.812995 115.528523 
L 743.175548 103.643369 
L 743.538102 102.914589 
L 743.900655 96.877371 
L 744.263209 98.013411 
L 744.625762 108.747908 
L 744.988316 112.446909 
L 745.350869 128.609805 
L 745.713422 134.140946 
L 746.438529 150.158637 
L 746.801083 131.067047 
L 747.163636 122.081793 
L 747.163636 122.081793 
" style="fill:none;stroke:#1f77b4;stroke-linecap:square;stroke-width:1.5;"/>
   </g>
   <g id="line2d_15">
    <path clip-path="url(#p858a54db02)" d="M 745.713422 384.48 
L 745.713422 51.84 
" style="fill:none;stroke:#808080;stroke-linecap:square;"/>
   </g>
   <g id="patch_43">
    <path d="M 108 384.48 
L 108 51.84 
" style="fill:none;stroke:#000000;stroke-linecap:square;stroke-linejoin:miter;stroke-width:0.8;"/>
   </g>
   <g id="patch_44">
    <path d="M 777.6 384.48 
L 777.6 51.84 
" style="fill:none;stroke:#000000;stroke-linecap:square;stroke-linejoin:miter;stroke-width:0.8;"/>
   </g>
   <g id="patch_45">
    <path d="M 108 384.48 
L 777.6 384.48 
" style="fill:none;stroke:#000000;stroke-linecap:square;stroke-linejoin:miter;stroke-width:0.8;"/>
   </g>
   <g id="patch_46">
    <path d="M 108 51.84 
L 777.6 51.84 
" style="fill:none;stroke:#000000;stroke-linecap:square;stroke-linejoin:miter;stroke-width:0.8;"/>
   </g>
   <g id="text_16">
    <!-- A3Benchmark-TS56.csv -->
    <defs>
     <path d="M 34.1875 63.1875 
L 20.796875 26.90625 
L 47.609375 26.90625 
z
M 28.609375 72.90625 
L 39.796875 72.90625 
L 67.578125 0 
L 57.328125 0 
L 50.6875 18.703125 
L 17.828125 18.703125 
L 11.1875 0 
L 0.78125 0 
z
" id="DejaVuSans-65"/>
     <path d="M 19.671875 34.8125 
L 19.671875 8.109375 
L 35.5 8.109375 
Q 43.453125 8.109375 47.28125 11.40625 
Q 51.125 14.703125 51.125 21.484375 
Q 51.125 28.328125 47.28125 31.5625 
Q 43.453125 34.8125 35.5 34.8125 
z
M 19.671875 64.796875 
L 19.671875 42.828125 
L 34.28125 42.828125 
Q 41.5 42.828125 45.03125 45.53125 
Q 48.578125 48.25 48.578125 53.8125 
Q 48.578125 59.328125 45.03125 62.0625 
Q 41.5 64.796875 34.28125 64.796875 
z
M 9.8125 72.90625 
L 35.015625 72.90625 
Q 46.296875 72.90625 52.390625 68.21875 
Q 58.5 63.53125 58.5 54.890625 
Q 58.5 48.1875 55.375 44.234375 
Q 52.25 40.28125 46.1875 39.3125 
Q 53.46875 37.75 57.5 32.78125 
Q 61.53125 27.828125 61.53125 20.40625 
Q 61.53125 10.640625 54.890625 5.3125 
Q 48.25 0 35.984375 0 
L 9.8125 0 
z
" id="DejaVuSans-66"/>
     <path d="M 54.890625 33.015625 
L 54.890625 0 
L 45.90625 0 
L 45.90625 32.71875 
Q 45.90625 40.484375 42.875 44.328125 
Q 39.84375 48.1875 33.796875 48.1875 
Q 26.515625 48.1875 22.3125 43.546875 
Q 18.109375 38.921875 18.109375 30.90625 
L 18.109375 0 
L 9.078125 0 
L 9.078125 54.6875 
L 18.109375 54.6875 
L 18.109375 46.1875 
Q 21.34375 51.125 25.703125 53.5625 
Q 30.078125 56 35.796875 56 
Q 45.21875 56 50.046875 50.171875 
Q 54.890625 44.34375 54.890625 33.015625 
z
" id="DejaVuSans-110"/>
     <path d="M 48.78125 52.59375 
L 48.78125 44.1875 
Q 44.96875 46.296875 41.140625 47.34375 
Q 37.3125 48.390625 33.40625 48.390625 
Q 24.65625 48.390625 19.8125 42.84375 
Q 14.984375 37.3125 14.984375 27.296875 
Q 14.984375 17.28125 19.8125 11.734375 
Q 24.65625 6.203125 33.40625 6.203125 
Q 37.3125 6.203125 41.140625 7.25 
Q 44.96875 8.296875 48.78125 10.40625 
L 48.78125 2.09375 
Q 45.015625 0.34375 40.984375 -0.53125 
Q 36.96875 -1.421875 32.421875 -1.421875 
Q 20.0625 -1.421875 12.78125 6.34375 
Q 5.515625 14.109375 5.515625 27.296875 
Q 5.515625 40.671875 12.859375 48.328125 
Q 20.21875 56 33.015625 56 
Q 37.15625 56 41.109375 55.140625 
Q 45.0625 54.296875 48.78125 52.59375 
z
" id="DejaVuSans-99"/>
     <path d="M 54.890625 33.015625 
L 54.890625 0 
L 45.90625 0 
L 45.90625 32.71875 
Q 45.90625 40.484375 42.875 44.328125 
Q 39.84375 48.1875 33.796875 48.1875 
Q 26.515625 48.1875 22.3125 43.546875 
Q 18.109375 38.921875 18.109375 30.90625 
L 18.109375 0 
L 9.078125 0 
L 9.078125 75.984375 
L 18.109375 75.984375 
L 18.109375 46.1875 
Q 21.34375 51.125 25.703125 53.5625 
Q 30.078125 56 35.796875 56 
Q 45.21875 56 50.046875 50.171875 
Q 54.890625 44.34375 54.890625 33.015625 
z
" id="DejaVuSans-104"/>
     <path d="M 41.109375 46.296875 
Q 39.59375 47.171875 37.8125 47.578125 
Q 36.03125 48 33.890625 48 
Q 26.265625 48 22.1875 43.046875 
Q 18.109375 38.09375 18.109375 28.8125 
L 18.109375 0 
L 9.078125 0 
L 9.078125 54.6875 
L 18.109375 54.6875 
L 18.109375 46.1875 
Q 20.953125 51.171875 25.484375 53.578125 
Q 30.03125 56 36.53125 56 
Q 37.453125 56 38.578125 55.875 
Q 39.703125 55.765625 41.0625 55.515625 
z
" id="DejaVuSans-114"/>
     <path d="M 9.078125 75.984375 
L 18.109375 75.984375 
L 18.109375 31.109375 
L 44.921875 54.6875 
L 56.390625 54.6875 
L 27.390625 29.109375 
L 57.625 0 
L 45.90625 0 
L 18.109375 26.703125 
L 18.109375 0 
L 9.078125 0 
z
" id="DejaVuSans-107"/>
     <path d="M 4.890625 31.390625 
L 31.203125 31.390625 
L 31.203125 23.390625 
L 4.890625 23.390625 
z
" id="DejaVuSans-45"/>
     <path d="M 53.515625 70.515625 
L 53.515625 60.890625 
Q 47.90625 63.578125 42.921875 64.890625 
Q 37.9375 66.21875 33.296875 66.21875 
Q 25.25 66.21875 20.875 63.09375 
Q 16.5 59.96875 16.5 54.203125 
Q 16.5 49.359375 19.40625 46.890625 
Q 22.3125 44.4375 30.421875 42.921875 
L 36.375 41.703125 
Q 47.40625 39.59375 52.65625 34.296875 
Q 57.90625 29 57.90625 20.125 
Q 57.90625 9.515625 50.796875 4.046875 
Q 43.703125 -1.421875 29.984375 -1.421875 
Q 24.8125 -1.421875 18.96875 -0.25 
Q 13.140625 0.921875 6.890625 3.21875 
L 6.890625 13.375 
Q 12.890625 10.015625 18.65625 8.296875 
Q 24.421875 6.59375 29.984375 6.59375 
Q 38.421875 6.59375 43.015625 9.90625 
Q 47.609375 13.234375 47.609375 19.390625 
Q 47.609375 24.75 44.3125 27.78125 
Q 41.015625 30.8125 33.5 32.328125 
L 27.484375 33.5 
Q 16.453125 35.6875 11.515625 40.375 
Q 6.59375 45.0625 6.59375 53.421875 
Q 6.59375 63.09375 13.40625 68.65625 
Q 20.21875 74.21875 32.171875 74.21875 
Q 37.3125 74.21875 42.625 73.28125 
Q 47.953125 72.359375 53.515625 70.515625 
z
" id="DejaVuSans-83"/>
     <path d="M 33.015625 40.375 
Q 26.375 40.375 22.484375 35.828125 
Q 18.609375 31.296875 18.609375 23.390625 
Q 18.609375 15.53125 22.484375 10.953125 
Q 26.375 6.390625 33.015625 6.390625 
Q 39.65625 6.390625 43.53125 10.953125 
Q 47.40625 15.53125 47.40625 23.390625 
Q 47.40625 31.296875 43.53125 35.828125 
Q 39.65625 40.375 33.015625 40.375 
z
M 52.59375 71.296875 
L 52.59375 62.3125 
Q 48.875 64.0625 45.09375 64.984375 
Q 41.3125 65.921875 37.59375 65.921875 
Q 27.828125 65.921875 22.671875 59.328125 
Q 17.53125 52.734375 16.796875 39.40625 
Q 19.671875 43.65625 24.015625 45.921875 
Q 28.375 48.1875 33.59375 48.1875 
Q 44.578125 48.1875 50.953125 41.515625 
Q 57.328125 34.859375 57.328125 23.390625 
Q 57.328125 12.15625 50.6875 5.359375 
Q 44.046875 -1.421875 33.015625 -1.421875 
Q 20.359375 -1.421875 13.671875 8.265625 
Q 6.984375 17.96875 6.984375 36.375 
Q 6.984375 53.65625 15.1875 63.9375 
Q 23.390625 74.21875 37.203125 74.21875 
Q 40.921875 74.21875 44.703125 73.484375 
Q 48.484375 72.75 52.59375 71.296875 
z
" id="DejaVuSans-54"/>
     <path d="M 10.6875 12.40625 
L 21 12.40625 
L 21 0 
L 10.6875 0 
z
" id="DejaVuSans-46"/>
     <path d="M 2.984375 54.6875 
L 12.5 54.6875 
L 29.59375 8.796875 
L 46.6875 54.6875 
L 56.203125 54.6875 
L 35.6875 0 
L 23.484375 0 
z
" id="DejaVuSans-118"/>
    </defs>
    <g transform="translate(371.555625 45.84)scale(0.12 -0.12)">
     <use xlink:href="#DejaVuSans-65"/>
     <use x="68.408203" xlink:href="#DejaVuSans-51"/>
     <use x="132.03125" xlink:href="#DejaVuSans-66"/>
     <use x="200.634766" xlink:href="#DejaVuSans-101"/>
     <use x="262.158203" xlink:href="#DejaVuSans-110"/>
     <use x="325.537109" xlink:href="#DejaVuSans-99"/>
     <use x="380.517578" xlink:href="#DejaVuSans-104"/>
     <use x="443.896484" xlink:href="#DejaVuSans-109"/>
     <use x="541.308594" xlink:href="#DejaVuSans-97"/>
     <use x="602.587891" xlink:href="#DejaVuSans-114"/>
     <use x="643.701172" xlink:href="#DejaVuSans-107"/>
     <use x="701.611328" xlink:href="#DejaVuSans-45"/>
     <use x="737.554688" xlink:href="#DejaVuSans-84"/>
     <use x="798.638672" xlink:href="#DejaVuSans-83"/>
     <use x="862.115234" xlink:href="#DejaVuSans-53"/>
     <use x="925.738281" xlink:href="#DejaVuSans-54"/>
     <use x="989.361328" xlink:href="#DejaVuSans-46"/>
     <use x="1021.148438" xlink:href="#DejaVuSans-99"/>
     <use x="1076.128906" xlink:href="#DejaVuSans-115"/>
     <use x="1128.228516" xlink:href="#DejaVuSans-118"/>
    </g>
   </g>
   <g id="legend_1">
    <g id="patch_47">
     <path d="M 115 74.518125 
L 174.315625 74.518125 
Q 176.315625 74.518125 176.315625 72.518125 
L 176.315625 58.84 
Q 176.315625 56.84 174.315625 56.84 
L 115 56.84 
Q 113 56.84 113 58.84 
L 113 72.518125 
Q 113 74.518125 115 74.518125 
z
" style="fill:#ffffff;opacity:0.8;stroke:#cccccc;stroke-linejoin:miter;"/>
    </g>
    <g id="line2d_16">
     <path d="M 117 64.938438 
L 137 64.938438 
" style="fill:none;stroke:#1f77b4;stroke-linecap:square;stroke-width:1.5;"/>
    </g>
    <g id="line2d_17"/>
    <g id="text_17">
     <!-- value -->
     <g transform="translate(145 68.438438)scale(0.1 -0.1)">
      <use xlink:href="#DejaVuSans-118"/>
      <use x="59.179688" xlink:href="#DejaVuSans-97"/>
      <use x="120.458984" xlink:href="#DejaVuSans-108"/>
      <use x="148.242188" xlink:href="#DejaVuSans-117"/>
      <use x="211.621094" xlink:href="#DejaVuSans-101"/>
     </g>
    </g>
   </g>
  </g>
 </g>
 <defs>
  <clipPath id="p858a54db02">
   <rect height="332.64" width="669.6" x="108" y="51.84"/>
  </clipPath>
 </defs>
</svg>
