<?xml version="1.0" encoding="utf-8" standalone="no"?>
<!DOCTYPE svg PUBLIC "-//W3C//DTD SVG 1.1//EN"
  "http://www.w3.org/Graphics/SVG/1.1/DTD/svg11.dtd">
<!-- Created with matplotlib (https://matplotlib.org/) -->
<svg height="432pt" version="1.1" viewBox="0 0 864 432" width="864pt" xmlns="http://www.w3.org/2000/svg" xmlns:xlink="http://www.w3.org/1999/xlink">
 <defs>
  <style type="text/css">
*{stroke-linecap:butt;stroke-linejoin:round;}
  </style>
 </defs>
 <g id="figure_1">
  <g id="patch_1">
   <path d="M 0 432 
L 864 432 
L 864 0 
L 0 0 
z
" style="fill:#ffffff;"/>
  </g>
  <g id="axes_1">
   <g id="patch_2">
    <path d="M 108 384.48 
L 777.6 384.48 
L 777.6 51.84 
L 108 51.84 
z
" style="fill:#ffffff;"/>
   </g>
   <g id="patch_3">
    <path clip-path="url(#p9c6f28beb6)" d="M 138.436364 384.48 
L 138.436364 51.84 
L 374.096118 51.84 
L 374.096118 384.48 
z
" style="fill:#0000ff;opacity:0.05;"/>
   </g>
   <g id="patch_4">
    <path clip-path="url(#p9c6f28beb6)" d="M 374.096118 384.48 
L 374.096118 51.84 
L 745.713422 51.84 
L 745.713422 384.48 
z
" style="fill:#ff0000;opacity:0.08;"/>
   </g>
   <g id="patch_5">
    <path clip-path="url(#p9c6f28beb6)" d="M 138.436364 384.48 
L 138.436364 51.84 
L 147.5002 51.84 
L 147.5002 384.48 
z
" style="fill:#008000;opacity:0.04;"/>
   </g>
   <g id="patch_6">
    <path clip-path="url(#p9c6f28beb6)" d="M 156.564037 384.48 
L 156.564037 51.84 
L 165.627874 51.84 
L 165.627874 384.48 
z
" style="fill:#008000;opacity:0.04;"/>
   </g>
   <g id="patch_7">
    <path clip-path="url(#p9c6f28beb6)" d="M 174.69171 384.48 
L 174.69171 51.84 
L 183.755547 51.84 
L 183.755547 384.48 
z
" style="fill:#008000;opacity:0.04;"/>
   </g>
   <g id="patch_8">
    <path clip-path="url(#p9c6f28beb6)" d="M 192.819384 384.48 
L 192.819384 51.84 
L 201.883221 51.84 
L 201.883221 384.48 
z
" style="fill:#008000;opacity:0.04;"/>
   </g>
   <g id="patch_9">
    <path clip-path="url(#p9c6f28beb6)" d="M 210.947057 384.48 
L 210.947057 51.84 
L 220.010894 51.84 
L 220.010894 384.48 
z
" style="fill:#008000;opacity:0.04;"/>
   </g>
   <g id="patch_10">
    <path clip-path="url(#p9c6f28beb6)" d="M 210.947057 371.1744 
L 210.947057 51.84 
L 220.010894 51.84 
L 220.010894 371.1744 
z
" style="fill:#008000;opacity:0.5;"/>
   </g>
   <g id="patch_11">
    <path clip-path="url(#p9c6f28beb6)" d="M 229.074731 384.48 
L 229.074731 51.84 
L 238.138567 51.84 
L 238.138567 384.48 
z
" style="fill:#008000;opacity:0.04;"/>
   </g>
   <g id="patch_12">
    <path clip-path="url(#p9c6f28beb6)" d="M 229.074731 371.1744 
L 229.074731 51.84 
L 238.138567 51.84 
L 238.138567 371.1744 
z
" style="fill:#008000;opacity:0.5;"/>
   </g>
   <g id="patch_13">
    <path clip-path="url(#p9c6f28beb6)" d="M 229.074731 384.48 
L 229.074731 371.1744 
L 238.138567 371.1744 
L 238.138567 384.48 
z
" style="fill:#ffe500;"/>
   </g>
   <g id="patch_14">
    <path clip-path="url(#p9c6f28beb6)" d="M 238.138567 371.1744 
L 238.138567 51.84 
L 247.202404 51.84 
L 247.202404 371.1744 
z
" style="fill:#008000;opacity:0.5;"/>
   </g>
   <g id="patch_15">
    <path clip-path="url(#p9c6f28beb6)" d="M 238.138567 384.48 
L 238.138567 371.1744 
L 247.202404 371.1744 
L 247.202404 384.48 
z
" style="fill:#ffe500;"/>
   </g>
   <g id="patch_16">
    <path clip-path="url(#p9c6f28beb6)" d="M 247.202404 384.48 
L 247.202404 51.84 
L 256.266241 51.84 
L 256.266241 384.48 
z
" style="fill:#008000;opacity:0.04;"/>
   </g>
   <g id="patch_17">
    <path clip-path="url(#p9c6f28beb6)" d="M 247.202404 371.1744 
L 247.202404 51.84 
L 256.266241 51.84 
L 256.266241 371.1744 
z
" style="fill:#008000;opacity:0.5;"/>
   </g>
   <g id="patch_18">
    <path clip-path="url(#p9c6f28beb6)" d="M 265.330077 384.48 
L 265.330077 51.84 
L 274.393914 51.84 
L 274.393914 384.48 
z
" style="fill:#008000;opacity:0.04;"/>
   </g>
   <g id="patch_19">
    <path clip-path="url(#p9c6f28beb6)" d="M 283.457751 384.48 
L 283.457751 51.84 
L 292.521588 51.84 
L 292.521588 384.48 
z
" style="fill:#008000;opacity:0.04;"/>
   </g>
   <g id="patch_20">
    <path clip-path="url(#p9c6f28beb6)" d="M 301.585424 384.48 
L 301.585424 51.84 
L 310.649261 51.84 
L 310.649261 384.48 
z
" style="fill:#008000;opacity:0.04;"/>
   </g>
   <g id="patch_21">
    <path clip-path="url(#p9c6f28beb6)" d="M 319.713098 384.48 
L 319.713098 51.84 
L 328.776934 51.84 
L 328.776934 384.48 
z
" style="fill:#008000;opacity:0.04;"/>
   </g>
   <g id="patch_22">
    <path clip-path="url(#p9c6f28beb6)" d="M 337.840771 384.48 
L 337.840771 51.84 
L 346.904608 51.84 
L 346.904608 384.48 
z
" style="fill:#008000;opacity:0.04;"/>
   </g>
   <g id="patch_23">
    <path clip-path="url(#p9c6f28beb6)" d="M 355.968444 384.48 
L 355.968444 51.84 
L 365.032281 51.84 
L 365.032281 384.48 
z
" style="fill:#008000;opacity:0.04;"/>
   </g>
   <g id="patch_24">
    <path clip-path="url(#p9c6f28beb6)" d="M 374.096118 384.48 
L 374.096118 51.84 
L 383.159955 51.84 
L 383.159955 384.48 
z
" style="fill:#008000;opacity:0.04;"/>
   </g>
   <g id="patch_25">
    <path clip-path="url(#p9c6f28beb6)" d="M 392.223791 384.48 
L 392.223791 51.84 
L 401.287628 51.84 
L 401.287628 384.48 
z
" style="fill:#008000;opacity:0.04;"/>
   </g>
   <g id="patch_26">
    <path clip-path="url(#p9c6f28beb6)" d="M 410.351465 384.48 
L 410.351465 51.84 
L 419.415301 51.84 
L 419.415301 384.48 
z
" style="fill:#008000;opacity:0.04;"/>
   </g>
   <g id="patch_27">
    <path clip-path="url(#p9c6f28beb6)" d="M 428.479138 384.48 
L 428.479138 51.84 
L 437.542975 51.84 
L 437.542975 384.48 
z
" style="fill:#008000;opacity:0.04;"/>
   </g>
   <g id="patch_28">
    <path clip-path="url(#p9c6f28beb6)" d="M 664.138892 384.48 
L 664.138892 371.1744 
L 673.202729 371.1744 
L 673.202729 384.48 
z
" style="fill:#ff6600;"/>
   </g>
   <g id="patch_29">
    <path clip-path="url(#p9c6f28beb6)" d="M 446.606811 384.48 
L 446.606811 51.84 
L 455.670648 51.84 
L 455.670648 384.48 
z
" style="fill:#008000;opacity:0.04;"/>
   </g>
   <g id="patch_30">
    <path clip-path="url(#p9c6f28beb6)" d="M 464.734485 384.48 
L 464.734485 51.84 
L 473.798322 51.84 
L 473.798322 384.48 
z
" style="fill:#008000;opacity:0.04;"/>
   </g>
   <g id="patch_31">
    <path clip-path="url(#p9c6f28beb6)" d="M 482.862158 384.48 
L 482.862158 51.84 
L 491.925995 51.84 
L 491.925995 384.48 
z
" style="fill:#008000;opacity:0.04;"/>
   </g>
   <g id="patch_32">
    <path clip-path="url(#p9c6f28beb6)" d="M 500.989832 384.48 
L 500.989832 51.84 
L 510.053668 51.84 
L 510.053668 384.48 
z
" style="fill:#008000;opacity:0.04;"/>
   </g>
   <g id="patch_33">
    <path clip-path="url(#p9c6f28beb6)" d="M 519.117505 384.48 
L 519.117505 51.84 
L 528.181342 51.84 
L 528.181342 384.48 
z
" style="fill:#008000;opacity:0.04;"/>
   </g>
   <g id="patch_34">
    <path clip-path="url(#p9c6f28beb6)" d="M 537.245178 384.48 
L 537.245178 51.84 
L 546.309015 51.84 
L 546.309015 384.48 
z
" style="fill:#008000;opacity:0.04;"/>
   </g>
   <g id="patch_35">
    <path clip-path="url(#p9c6f28beb6)" d="M 555.372852 384.48 
L 555.372852 51.84 
L 564.436689 51.84 
L 564.436689 384.48 
z
" style="fill:#008000;opacity:0.04;"/>
   </g>
   <g id="patch_36">
    <path clip-path="url(#p9c6f28beb6)" d="M 573.500525 384.48 
L 573.500525 51.84 
L 582.564362 51.84 
L 582.564362 384.48 
z
" style="fill:#008000;opacity:0.04;"/>
   </g>
   <g id="patch_37">
    <path clip-path="url(#p9c6f28beb6)" d="M 591.628199 384.48 
L 591.628199 51.84 
L 600.692035 51.84 
L 600.692035 384.48 
z
" style="fill:#008000;opacity:0.04;"/>
   </g>
   <g id="patch_38">
    <path clip-path="url(#p9c6f28beb6)" d="M 609.755872 384.48 
L 609.755872 51.84 
L 618.819709 51.84 
L 618.819709 384.48 
z
" style="fill:#008000;opacity:0.04;"/>
   </g>
   <g id="patch_39">
    <path clip-path="url(#p9c6f28beb6)" d="M 627.883545 384.48 
L 627.883545 51.84 
L 636.947382 51.84 
L 636.947382 384.48 
z
" style="fill:#008000;opacity:0.04;"/>
   </g>
   <g id="patch_40">
    <path clip-path="url(#p9c6f28beb6)" d="M 646.011219 384.48 
L 646.011219 51.84 
L 655.075055 51.84 
L 655.075055 384.48 
z
" style="fill:#008000;opacity:0.04;"/>
   </g>
   <g id="patch_41">
    <path clip-path="url(#p9c6f28beb6)" d="M 664.138892 384.48 
L 664.138892 51.84 
L 673.202729 51.84 
L 673.202729 384.48 
z
" style="fill:#008000;opacity:0.04;"/>
   </g>
   <g id="patch_42">
    <path clip-path="url(#p9c6f28beb6)" d="M 664.138892 371.1744 
L 664.138892 51.84 
L 673.202729 51.84 
L 673.202729 371.1744 
z
" style="fill:#008000;opacity:0.5;"/>
   </g>
   <g id="patch_43">
    <path clip-path="url(#p9c6f28beb6)" d="M 682.266566 384.48 
L 682.266566 51.84 
L 691.330402 51.84 
L 691.330402 384.48 
z
" style="fill:#008000;opacity:0.04;"/>
   </g>
   <g id="patch_44">
    <path clip-path="url(#p9c6f28beb6)" d="M 700.394239 384.48 
L 700.394239 51.84 
L 709.458076 51.84 
L 709.458076 384.48 
z
" style="fill:#008000;opacity:0.04;"/>
   </g>
   <g id="patch_45">
    <path clip-path="url(#p9c6f28beb6)" d="M 718.521912 384.48 
L 718.521912 51.84 
L 727.585749 51.84 
L 727.585749 384.48 
z
" style="fill:#008000;opacity:0.04;"/>
   </g>
   <g id="patch_46">
    <path clip-path="url(#p9c6f28beb6)" d="M 736.649586 384.48 
L 736.649586 51.84 
L 745.713422 51.84 
L 745.713422 384.48 
z
" style="fill:#008000;opacity:0.04;"/>
   </g>
   <g id="matplotlib.axis_1">
    <g id="xtick_1">
     <g id="line2d_1">
      <defs>
       <path d="M 0 0 
L 0 3.5 
" id="md21dea16b7" style="stroke:#000000;stroke-width:0.8;"/>
      </defs>
      <g>
       <use style="stroke:#000000;stroke-width:0.8;" x="138.436364" xlink:href="#md21dea16b7" y="384.48"/>
      </g>
     </g>
     <g id="text_1">
      <!-- 0 -->
      <defs>
       <path d="M 31.78125 66.40625 
Q 24.171875 66.40625 20.328125 58.90625 
Q 16.5 51.421875 16.5 36.375 
Q 16.5 21.390625 20.328125 13.890625 
Q 24.171875 6.390625 31.78125 6.390625 
Q 39.453125 6.390625 43.28125 13.890625 
Q 47.125 21.390625 47.125 36.375 
Q 47.125 51.421875 43.28125 58.90625 
Q 39.453125 66.40625 31.78125 66.40625 
z
M 31.78125 74.21875 
Q 44.046875 74.21875 50.515625 64.515625 
Q 56.984375 54.828125 56.984375 36.375 
Q 56.984375 17.96875 50.515625 8.265625 
Q 44.046875 -1.421875 31.78125 -1.421875 
Q 19.53125 -1.421875 13.0625 8.265625 
Q 6.59375 17.96875 6.59375 36.375 
Q 6.59375 54.828125 13.0625 64.515625 
Q 19.53125 74.21875 31.78125 74.21875 
z
" id="DejaVuSans-48"/>
      </defs>
      <g transform="translate(135.255114 399.078438)scale(0.1 -0.1)">
       <use xlink:href="#DejaVuSans-48"/>
      </g>
     </g>
    </g>
    <g id="xtick_2">
     <g id="line2d_2">
      <g>
       <use style="stroke:#000000;stroke-width:0.8;" x="229.074731" xlink:href="#md21dea16b7" y="384.48"/>
      </g>
     </g>
     <g id="text_2">
      <!-- 250 -->
      <defs>
       <path d="M 19.1875 8.296875 
L 53.609375 8.296875 
L 53.609375 0 
L 7.328125 0 
L 7.328125 8.296875 
Q 12.9375 14.109375 22.625 23.890625 
Q 32.328125 33.6875 34.8125 36.53125 
Q 39.546875 41.84375 41.421875 45.53125 
Q 43.3125 49.21875 43.3125 52.78125 
Q 43.3125 58.59375 39.234375 62.25 
Q 35.15625 65.921875 28.609375 65.921875 
Q 23.96875 65.921875 18.8125 64.3125 
Q 13.671875 62.703125 7.8125 59.421875 
L 7.8125 69.390625 
Q 13.765625 71.78125 18.9375 73 
Q 24.125 74.21875 28.421875 74.21875 
Q 39.75 74.21875 46.484375 68.546875 
Q 53.21875 62.890625 53.21875 53.421875 
Q 53.21875 48.921875 51.53125 44.890625 
Q 49.859375 40.875 45.40625 35.40625 
Q 44.1875 33.984375 37.640625 27.21875 
Q 31.109375 20.453125 19.1875 8.296875 
z
" id="DejaVuSans-50"/>
       <path d="M 10.796875 72.90625 
L 49.515625 72.90625 
L 49.515625 64.59375 
L 19.828125 64.59375 
L 19.828125 46.734375 
Q 21.96875 47.46875 24.109375 47.828125 
Q 26.265625 48.1875 28.421875 48.1875 
Q 40.625 48.1875 47.75 41.5 
Q 54.890625 34.8125 54.890625 23.390625 
Q 54.890625 11.625 47.5625 5.09375 
Q 40.234375 -1.421875 26.90625 -1.421875 
Q 22.3125 -1.421875 17.546875 -0.640625 
Q 12.796875 0.140625 7.71875 1.703125 
L 7.71875 11.625 
Q 12.109375 9.234375 16.796875 8.0625 
Q 21.484375 6.890625 26.703125 6.890625 
Q 35.15625 6.890625 40.078125 11.328125 
Q 45.015625 15.765625 45.015625 23.390625 
Q 45.015625 31 40.078125 35.4375 
Q 35.15625 39.890625 26.703125 39.890625 
Q 22.75 39.890625 18.8125 39.015625 
Q 14.890625 38.140625 10.796875 36.28125 
z
" id="DejaVuSans-53"/>
      </defs>
      <g transform="translate(219.530981 399.078438)scale(0.1 -0.1)">
       <use xlink:href="#DejaVuSans-50"/>
       <use x="63.623047" xlink:href="#DejaVuSans-53"/>
       <use x="127.246094" xlink:href="#DejaVuSans-48"/>
      </g>
     </g>
    </g>
    <g id="xtick_3">
     <g id="line2d_3">
      <g>
       <use style="stroke:#000000;stroke-width:0.8;" x="319.713098" xlink:href="#md21dea16b7" y="384.48"/>
      </g>
     </g>
     <g id="text_3">
      <!-- 500 -->
      <g transform="translate(310.169348 399.078438)scale(0.1 -0.1)">
       <use xlink:href="#DejaVuSans-53"/>
       <use x="63.623047" xlink:href="#DejaVuSans-48"/>
       <use x="127.246094" xlink:href="#DejaVuSans-48"/>
      </g>
     </g>
    </g>
    <g id="xtick_4">
     <g id="line2d_4">
      <g>
       <use style="stroke:#000000;stroke-width:0.8;" x="410.351465" xlink:href="#md21dea16b7" y="384.48"/>
      </g>
     </g>
     <g id="text_4">
      <!-- 750 -->
      <defs>
       <path d="M 8.203125 72.90625 
L 55.078125 72.90625 
L 55.078125 68.703125 
L 28.609375 0 
L 18.3125 0 
L 43.21875 64.59375 
L 8.203125 64.59375 
z
" id="DejaVuSans-55"/>
      </defs>
      <g transform="translate(400.807715 399.078438)scale(0.1 -0.1)">
       <use xlink:href="#DejaVuSans-55"/>
       <use x="63.623047" xlink:href="#DejaVuSans-53"/>
       <use x="127.246094" xlink:href="#DejaVuSans-48"/>
      </g>
     </g>
    </g>
    <g id="xtick_5">
     <g id="line2d_5">
      <g>
       <use style="stroke:#000000;stroke-width:0.8;" x="500.989832" xlink:href="#md21dea16b7" y="384.48"/>
      </g>
     </g>
     <g id="text_5">
      <!-- 1000 -->
      <defs>
       <path d="M 12.40625 8.296875 
L 28.515625 8.296875 
L 28.515625 63.921875 
L 10.984375 60.40625 
L 10.984375 69.390625 
L 28.421875 72.90625 
L 38.28125 72.90625 
L 38.28125 8.296875 
L 54.390625 8.296875 
L 54.390625 0 
L 12.40625 0 
z
" id="DejaVuSans-49"/>
      </defs>
      <g transform="translate(488.264832 399.078438)scale(0.1 -0.1)">
       <use xlink:href="#DejaVuSans-49"/>
       <use x="63.623047" xlink:href="#DejaVuSans-48"/>
       <use x="127.246094" xlink:href="#DejaVuSans-48"/>
       <use x="190.869141" xlink:href="#DejaVuSans-48"/>
      </g>
     </g>
    </g>
    <g id="xtick_6">
     <g id="line2d_6">
      <g>
       <use style="stroke:#000000;stroke-width:0.8;" x="591.628199" xlink:href="#md21dea16b7" y="384.48"/>
      </g>
     </g>
     <g id="text_6">
      <!-- 1250 -->
      <g transform="translate(578.903199 399.078438)scale(0.1 -0.1)">
       <use xlink:href="#DejaVuSans-49"/>
       <use x="63.623047" xlink:href="#DejaVuSans-50"/>
       <use x="127.246094" xlink:href="#DejaVuSans-53"/>
       <use x="190.869141" xlink:href="#DejaVuSans-48"/>
      </g>
     </g>
    </g>
    <g id="xtick_7">
     <g id="line2d_7">
      <g>
       <use style="stroke:#000000;stroke-width:0.8;" x="682.266566" xlink:href="#md21dea16b7" y="384.48"/>
      </g>
     </g>
     <g id="text_7">
      <!-- 1500 -->
      <g transform="translate(669.541566 399.078438)scale(0.1 -0.1)">
       <use xlink:href="#DejaVuSans-49"/>
       <use x="63.623047" xlink:href="#DejaVuSans-53"/>
       <use x="127.246094" xlink:href="#DejaVuSans-48"/>
       <use x="190.869141" xlink:href="#DejaVuSans-48"/>
      </g>
     </g>
    </g>
    <g id="xtick_8">
     <g id="line2d_8">
      <g>
       <use style="stroke:#000000;stroke-width:0.8;" x="772.904933" xlink:href="#md21dea16b7" y="384.48"/>
      </g>
     </g>
     <g id="text_8">
      <!-- 1750 -->
      <g transform="translate(760.179933 399.078438)scale(0.1 -0.1)">
       <use xlink:href="#DejaVuSans-49"/>
       <use x="63.623047" xlink:href="#DejaVuSans-55"/>
       <use x="127.246094" xlink:href="#DejaVuSans-53"/>
       <use x="190.869141" xlink:href="#DejaVuSans-48"/>
      </g>
     </g>
    </g>
    <g id="text_9">
     <!-- Timestamp -->
     <defs>
      <path d="M -0.296875 72.90625 
L 61.375 72.90625 
L 61.375 64.59375 
L 35.5 64.59375 
L 35.5 0 
L 25.59375 0 
L 25.59375 64.59375 
L -0.296875 64.59375 
z
" id="DejaVuSans-84"/>
      <path d="M 9.421875 54.6875 
L 18.40625 54.6875 
L 18.40625 0 
L 9.421875 0 
z
M 9.421875 75.984375 
L 18.40625 75.984375 
L 18.40625 64.59375 
L 9.421875 64.59375 
z
" id="DejaVuSans-105"/>
      <path d="M 52 44.1875 
Q 55.375 50.25 60.0625 53.125 
Q 64.75 56 71.09375 56 
Q 79.640625 56 84.28125 50.015625 
Q 88.921875 44.046875 88.921875 33.015625 
L 88.921875 0 
L 79.890625 0 
L 79.890625 32.71875 
Q 79.890625 40.578125 77.09375 44.375 
Q 74.3125 48.1875 68.609375 48.1875 
Q 61.625 48.1875 57.5625 43.546875 
Q 53.515625 38.921875 53.515625 30.90625 
L 53.515625 0 
L 44.484375 0 
L 44.484375 32.71875 
Q 44.484375 40.625 41.703125 44.40625 
Q 38.921875 48.1875 33.109375 48.1875 
Q 26.21875 48.1875 22.15625 43.53125 
Q 18.109375 38.875 18.109375 30.90625 
L 18.109375 0 
L 9.078125 0 
L 9.078125 54.6875 
L 18.109375 54.6875 
L 18.109375 46.1875 
Q 21.1875 51.21875 25.484375 53.609375 
Q 29.78125 56 35.6875 56 
Q 41.65625 56 45.828125 52.96875 
Q 50 49.953125 52 44.1875 
z
" id="DejaVuSans-109"/>
      <path d="M 56.203125 29.59375 
L 56.203125 25.203125 
L 14.890625 25.203125 
Q 15.484375 15.921875 20.484375 11.0625 
Q 25.484375 6.203125 34.421875 6.203125 
Q 39.59375 6.203125 44.453125 7.46875 
Q 49.3125 8.734375 54.109375 11.28125 
L 54.109375 2.78125 
Q 49.265625 0.734375 44.1875 -0.34375 
Q 39.109375 -1.421875 33.890625 -1.421875 
Q 20.796875 -1.421875 13.15625 6.1875 
Q 5.515625 13.8125 5.515625 26.8125 
Q 5.515625 40.234375 12.765625 48.109375 
Q 20.015625 56 32.328125 56 
Q 43.359375 56 49.78125 48.890625 
Q 56.203125 41.796875 56.203125 29.59375 
z
M 47.21875 32.234375 
Q 47.125 39.59375 43.09375 43.984375 
Q 39.0625 48.390625 32.421875 48.390625 
Q 24.90625 48.390625 20.390625 44.140625 
Q 15.875 39.890625 15.1875 32.171875 
z
" id="DejaVuSans-101"/>
      <path d="M 44.28125 53.078125 
L 44.28125 44.578125 
Q 40.484375 46.53125 36.375 47.5 
Q 32.28125 48.484375 27.875 48.484375 
Q 21.1875 48.484375 17.84375 46.4375 
Q 14.5 44.390625 14.5 40.28125 
Q 14.5 37.15625 16.890625 35.375 
Q 19.28125 33.59375 26.515625 31.984375 
L 29.59375 31.296875 
Q 39.15625 29.25 43.1875 25.515625 
Q 47.21875 21.78125 47.21875 15.09375 
Q 47.21875 7.46875 41.1875 3.015625 
Q 35.15625 -1.421875 24.609375 -1.421875 
Q 20.21875 -1.421875 15.453125 -0.5625 
Q 10.6875 0.296875 5.421875 2 
L 5.421875 11.28125 
Q 10.40625 8.6875 15.234375 7.390625 
Q 20.0625 6.109375 24.8125 6.109375 
Q 31.15625 6.109375 34.5625 8.28125 
Q 37.984375 10.453125 37.984375 14.40625 
Q 37.984375 18.0625 35.515625 20.015625 
Q 33.0625 21.96875 24.703125 23.78125 
L 21.578125 24.515625 
Q 13.234375 26.265625 9.515625 29.90625 
Q 5.8125 33.546875 5.8125 39.890625 
Q 5.8125 47.609375 11.28125 51.796875 
Q 16.75 56 26.8125 56 
Q 31.78125 56 36.171875 55.265625 
Q 40.578125 54.546875 44.28125 53.078125 
z
" id="DejaVuSans-115"/>
      <path d="M 18.3125 70.21875 
L 18.3125 54.6875 
L 36.8125 54.6875 
L 36.8125 47.703125 
L 18.3125 47.703125 
L 18.3125 18.015625 
Q 18.3125 11.328125 20.140625 9.421875 
Q 21.96875 7.515625 27.59375 7.515625 
L 36.8125 7.515625 
L 36.8125 0 
L 27.59375 0 
Q 17.1875 0 13.234375 3.875 
Q 9.28125 7.765625 9.28125 18.015625 
L 9.28125 47.703125 
L 2.6875 47.703125 
L 2.6875 54.6875 
L 9.28125 54.6875 
L 9.28125 70.21875 
z
" id="DejaVuSans-116"/>
      <path d="M 34.28125 27.484375 
Q 23.390625 27.484375 19.1875 25 
Q 14.984375 22.515625 14.984375 16.5 
Q 14.984375 11.71875 18.140625 8.90625 
Q 21.296875 6.109375 26.703125 6.109375 
Q 34.1875 6.109375 38.703125 11.40625 
Q 43.21875 16.703125 43.21875 25.484375 
L 43.21875 27.484375 
z
M 52.203125 31.203125 
L 52.203125 0 
L 43.21875 0 
L 43.21875 8.296875 
Q 40.140625 3.328125 35.546875 0.953125 
Q 30.953125 -1.421875 24.3125 -1.421875 
Q 15.921875 -1.421875 10.953125 3.296875 
Q 6 8.015625 6 15.921875 
Q 6 25.140625 12.171875 29.828125 
Q 18.359375 34.515625 30.609375 34.515625 
L 43.21875 34.515625 
L 43.21875 35.40625 
Q 43.21875 41.609375 39.140625 45 
Q 35.0625 48.390625 27.6875 48.390625 
Q 23 48.390625 18.546875 47.265625 
Q 14.109375 46.140625 10.015625 43.890625 
L 10.015625 52.203125 
Q 14.9375 54.109375 19.578125 55.046875 
Q 24.21875 56 28.609375 56 
Q 40.484375 56 46.34375 49.84375 
Q 52.203125 43.703125 52.203125 31.203125 
z
" id="DejaVuSans-97"/>
      <path d="M 18.109375 8.203125 
L 18.109375 -20.796875 
L 9.078125 -20.796875 
L 9.078125 54.6875 
L 18.109375 54.6875 
L 18.109375 46.390625 
Q 20.953125 51.265625 25.265625 53.625 
Q 29.59375 56 35.59375 56 
Q 45.5625 56 51.78125 48.09375 
Q 58.015625 40.1875 58.015625 27.296875 
Q 58.015625 14.40625 51.78125 6.484375 
Q 45.5625 -1.421875 35.59375 -1.421875 
Q 29.59375 -1.421875 25.265625 0.953125 
Q 20.953125 3.328125 18.109375 8.203125 
z
M 48.6875 27.296875 
Q 48.6875 37.203125 44.609375 42.84375 
Q 40.53125 48.484375 33.40625 48.484375 
Q 26.265625 48.484375 22.1875 42.84375 
Q 18.109375 37.203125 18.109375 27.296875 
Q 18.109375 17.390625 22.1875 11.75 
Q 26.265625 6.109375 33.40625 6.109375 
Q 40.53125 6.109375 44.609375 11.75 
Q 48.6875 17.390625 48.6875 27.296875 
z
" id="DejaVuSans-112"/>
     </defs>
     <g transform="translate(414.739062 412.756563)scale(0.1 -0.1)">
      <use xlink:href="#DejaVuSans-84"/>
      <use x="61.037109" xlink:href="#DejaVuSans-105"/>
      <use x="88.820312" xlink:href="#DejaVuSans-109"/>
      <use x="186.232422" xlink:href="#DejaVuSans-101"/>
      <use x="247.755859" xlink:href="#DejaVuSans-115"/>
      <use x="299.855469" xlink:href="#DejaVuSans-116"/>
      <use x="339.064453" xlink:href="#DejaVuSans-97"/>
      <use x="400.34375" xlink:href="#DejaVuSans-109"/>
      <use x="497.755859" xlink:href="#DejaVuSans-112"/>
     </g>
    </g>
   </g>
   <g id="matplotlib.axis_2">
    <g id="ytick_1">
     <g id="line2d_9">
      <defs>
       <path d="M 0 0 
L -3.5 0 
" id="mdcc54d77bd" style="stroke:#000000;stroke-width:0.8;"/>
      </defs>
      <g>
       <use style="stroke:#000000;stroke-width:0.8;" x="108" xlink:href="#mdcc54d77bd" y="359.589412"/>
      </g>
     </g>
     <g id="text_10">
      <!-- −4000 -->
      <defs>
       <path d="M 10.59375 35.5 
L 73.1875 35.5 
L 73.1875 27.203125 
L 10.59375 27.203125 
z
" id="DejaVuSans-8722"/>
       <path d="M 37.796875 64.3125 
L 12.890625 25.390625 
L 37.796875 25.390625 
z
M 35.203125 72.90625 
L 47.609375 72.90625 
L 47.609375 25.390625 
L 58.015625 25.390625 
L 58.015625 17.1875 
L 47.609375 17.1875 
L 47.609375 0 
L 37.796875 0 
L 37.796875 17.1875 
L 4.890625 17.1875 
L 4.890625 26.703125 
z
" id="DejaVuSans-52"/>
      </defs>
      <g transform="translate(67.170312 363.388631)scale(0.1 -0.1)">
       <use xlink:href="#DejaVuSans-8722"/>
       <use x="83.789062" xlink:href="#DejaVuSans-52"/>
       <use x="147.412109" xlink:href="#DejaVuSans-48"/>
       <use x="211.035156" xlink:href="#DejaVuSans-48"/>
       <use x="274.658203" xlink:href="#DejaVuSans-48"/>
      </g>
     </g>
    </g>
    <g id="ytick_2">
     <g id="line2d_10">
      <g>
       <use style="stroke:#000000;stroke-width:0.8;" x="108" xlink:href="#mdcc54d77bd" y="299.360375"/>
      </g>
     </g>
     <g id="text_11">
      <!-- −3000 -->
      <defs>
       <path d="M 40.578125 39.3125 
Q 47.65625 37.796875 51.625 33 
Q 55.609375 28.21875 55.609375 21.1875 
Q 55.609375 10.40625 48.1875 4.484375 
Q 40.765625 -1.421875 27.09375 -1.421875 
Q 22.515625 -1.421875 17.65625 -0.515625 
Q 12.796875 0.390625 7.625 2.203125 
L 7.625 11.71875 
Q 11.71875 9.328125 16.59375 8.109375 
Q 21.484375 6.890625 26.8125 6.890625 
Q 36.078125 6.890625 40.9375 10.546875 
Q 45.796875 14.203125 45.796875 21.1875 
Q 45.796875 27.640625 41.28125 31.265625 
Q 36.765625 34.90625 28.71875 34.90625 
L 20.21875 34.90625 
L 20.21875 43.015625 
L 29.109375 43.015625 
Q 36.375 43.015625 40.234375 45.921875 
Q 44.09375 48.828125 44.09375 54.296875 
Q 44.09375 59.90625 40.109375 62.90625 
Q 36.140625 65.921875 28.71875 65.921875 
Q 24.65625 65.921875 20.015625 65.03125 
Q 15.375 64.15625 9.8125 62.3125 
L 9.8125 71.09375 
Q 15.4375 72.65625 20.34375 73.4375 
Q 25.25 74.21875 29.59375 74.21875 
Q 40.828125 74.21875 47.359375 69.109375 
Q 53.90625 64.015625 53.90625 55.328125 
Q 53.90625 49.265625 50.4375 45.09375 
Q 46.96875 40.921875 40.578125 39.3125 
z
" id="DejaVuSans-51"/>
      </defs>
      <g transform="translate(67.170312 303.159594)scale(0.1 -0.1)">
       <use xlink:href="#DejaVuSans-8722"/>
       <use x="83.789062" xlink:href="#DejaVuSans-51"/>
       <use x="147.412109" xlink:href="#DejaVuSans-48"/>
       <use x="211.035156" xlink:href="#DejaVuSans-48"/>
       <use x="274.658203" xlink:href="#DejaVuSans-48"/>
      </g>
     </g>
    </g>
    <g id="ytick_3">
     <g id="line2d_11">
      <g>
       <use style="stroke:#000000;stroke-width:0.8;" x="108" xlink:href="#mdcc54d77bd" y="239.131338"/>
      </g>
     </g>
     <g id="text_12">
      <!-- −2000 -->
      <g transform="translate(67.170312 242.930557)scale(0.1 -0.1)">
       <use xlink:href="#DejaVuSans-8722"/>
       <use x="83.789062" xlink:href="#DejaVuSans-50"/>
       <use x="147.412109" xlink:href="#DejaVuSans-48"/>
       <use x="211.035156" xlink:href="#DejaVuSans-48"/>
       <use x="274.658203" xlink:href="#DejaVuSans-48"/>
      </g>
     </g>
    </g>
    <g id="ytick_4">
     <g id="line2d_12">
      <g>
       <use style="stroke:#000000;stroke-width:0.8;" x="108" xlink:href="#mdcc54d77bd" y="178.902301"/>
      </g>
     </g>
     <g id="text_13">
      <!-- −1000 -->
      <g transform="translate(67.170312 182.70152)scale(0.1 -0.1)">
       <use xlink:href="#DejaVuSans-8722"/>
       <use x="83.789062" xlink:href="#DejaVuSans-49"/>
       <use x="147.412109" xlink:href="#DejaVuSans-48"/>
       <use x="211.035156" xlink:href="#DejaVuSans-48"/>
       <use x="274.658203" xlink:href="#DejaVuSans-48"/>
      </g>
     </g>
    </g>
    <g id="ytick_5">
     <g id="line2d_13">
      <g>
       <use style="stroke:#000000;stroke-width:0.8;" x="108" xlink:href="#mdcc54d77bd" y="118.673264"/>
      </g>
     </g>
     <g id="text_14">
      <!-- 0 -->
      <g transform="translate(94.6375 122.472483)scale(0.1 -0.1)">
       <use xlink:href="#DejaVuSans-48"/>
      </g>
     </g>
    </g>
    <g id="ytick_6">
     <g id="line2d_14">
      <g>
       <use style="stroke:#000000;stroke-width:0.8;" x="108" xlink:href="#mdcc54d77bd" y="58.444227"/>
      </g>
     </g>
     <g id="text_15">
      <!-- 1000 -->
      <g transform="translate(75.55 62.243446)scale(0.1 -0.1)">
       <use xlink:href="#DejaVuSans-49"/>
       <use x="63.623047" xlink:href="#DejaVuSans-48"/>
       <use x="127.246094" xlink:href="#DejaVuSans-48"/>
       <use x="190.869141" xlink:href="#DejaVuSans-48"/>
      </g>
     </g>
    </g>
    <g id="text_16">
     <!-- Value -->
     <defs>
      <path d="M 28.609375 0 
L 0.78125 72.90625 
L 11.078125 72.90625 
L 34.1875 11.53125 
L 57.328125 72.90625 
L 67.578125 72.90625 
L 39.796875 0 
z
" id="DejaVuSans-86"/>
      <path d="M 9.421875 75.984375 
L 18.40625 75.984375 
L 18.40625 0 
L 9.421875 0 
z
" id="DejaVuSans-108"/>
      <path d="M 8.5 21.578125 
L 8.5 54.6875 
L 17.484375 54.6875 
L 17.484375 21.921875 
Q 17.484375 14.15625 20.5 10.265625 
Q 23.53125 6.390625 29.59375 6.390625 
Q 36.859375 6.390625 41.078125 11.03125 
Q 45.3125 15.671875 45.3125 23.6875 
L 45.3125 54.6875 
L 54.296875 54.6875 
L 54.296875 0 
L 45.3125 0 
L 45.3125 8.40625 
Q 42.046875 3.421875 37.71875 1 
Q 33.40625 -1.421875 27.6875 -1.421875 
Q 18.265625 -1.421875 13.375 4.4375 
Q 8.5 10.296875 8.5 21.578125 
z
M 31.109375 56 
z
" id="DejaVuSans-117"/>
     </defs>
     <g transform="translate(61.090625 232.273281)rotate(-90)scale(0.1 -0.1)">
      <use xlink:href="#DejaVuSans-86"/>
      <use x="68.298828" xlink:href="#DejaVuSans-97"/>
      <use x="129.578125" xlink:href="#DejaVuSans-108"/>
      <use x="157.361328" xlink:href="#DejaVuSans-117"/>
      <use x="220.740234" xlink:href="#DejaVuSans-101"/>
     </g>
    </g>
   </g>
   <g id="line2d_15">
    <path clip-path="url(#p9c6f28beb6)" d="M 138.436364 114.118381 
L 138.798917 104.425347 
L 139.524024 82.637635 
L 139.886578 90.066699 
L 140.249131 87.994137 
L 140.611684 93.607084 
L 140.974238 102.890196 
L 141.336791 122.365579 
L 141.699345 121.573447 
L 142.061898 130.297148 
L 143.149559 105.552331 
L 143.512112 105.134377 
L 143.874666 110.907411 
L 144.237219 109.685295 
L 144.599773 115.701505 
L 144.962326 132.001034 
L 145.32488 137.61562 
L 145.687433 148.326194 
L 146.049986 151.89585 
L 146.41254 135.63748 
L 146.775093 128.169106 
L 147.137647 94.975556 
L 147.5002 83.113859 
L 147.862754 84.203534 
L 148.225307 68.432914 
L 148.587861 67.628366 
L 150.038075 115.744703 
L 150.400628 115.969412 
L 150.763182 117.895265 
L 151.125735 106.588271 
L 151.488288 107.915677 
L 151.850842 102.78269 
L 152.213395 100.80385 
L 152.575949 91.20074 
L 153.301056 106.370238 
L 154.026163 134.502941 
L 154.388716 138.208949 
L 154.75127 127.440132 
L 155.113823 137.234468 
L 155.476377 129.585672 
L 156.201484 92.874384 
L 156.564037 80.963444 
L 156.926591 76.667235 
L 157.289144 66.96 
L 157.651697 78.466936 
L 158.014251 85.613245 
L 158.376804 103.28587 
L 158.739358 103.293263 
L 159.101911 115.301414 
L 159.464465 114.39015 
L 159.827018 121.404657 
L 160.189572 112.39254 
L 160.552125 107.879389 
L 160.914679 97.788971 
L 161.277232 106.780472 
L 161.639786 105.302477 
L 162.002339 121.08556 
L 162.364893 124.182556 
L 162.727446 142.959057 
L 163.089999 155.681723 
L 163.452553 153.937152 
L 164.17766 138.269663 
L 164.540213 122.585268 
L 164.902767 124.235981 
L 165.627874 85.639711 
L 165.990427 81.379044 
L 166.352981 100.225026 
L 166.715534 103.460019 
L 167.078088 114.438038 
L 167.440641 133.210224 
L 167.803195 137.65854 
L 168.165748 136.240047 
L 169.253408 121.818917 
L 169.615962 124.807611 
L 169.978515 126.038552 
L 170.341069 134.458643 
L 170.703622 137.796366 
L 171.066176 154.990394 
L 171.428729 165.646327 
L 171.791283 166.572316 
L 172.153836 174.193598 
L 172.878943 154.088222 
L 173.241497 149.987091 
L 173.966603 110.361456 
L 174.329157 111.020498 
L 174.69171 110.97931 
L 175.054264 113.332357 
L 175.779371 133.523055 
L 176.141924 152.246477 
L 176.504478 155.099104 
L 176.867031 150.442471 
L 177.229585 162.003247 
L 177.592138 138.811874 
L 177.954692 140.721189 
L 178.317245 133.971556 
L 178.679799 134.319797 
L 179.042352 139.906928 
L 179.767459 163.255637 
L 180.130012 183.423885 
L 180.492566 188.026532 
L 180.855119 189.654932 
L 181.217673 185.730037 
L 181.94278 145.712009 
L 182.305333 132.07731 
L 182.667887 126.300351 
L 183.03044 115.270941 
L 183.392994 112.21389 
L 183.755547 116.811894 
L 184.843208 152.885223 
L 185.205761 161.788365 
L 185.568314 160.949689 
L 185.930868 155.220679 
L 186.293421 143.49696 
L 186.655975 148.38935 
L 187.018528 142.611847 
L 187.743635 150.678045 
L 188.106189 152.246496 
L 188.468742 177.513155 
L 188.831296 170.354915 
L 189.193849 183.510852 
L 189.556403 181.266006 
L 189.918956 179.737617 
L 190.28151 168.382129 
L 190.644063 148.105533 
L 191.006616 142.879702 
L 191.36917 127.090463 
L 191.731723 128.491971 
L 192.094277 113.271545 
L 192.45683 125.215509 
L 192.819384 144.549509 
L 193.181937 149.519784 
L 193.544491 151.331502 
L 194.269598 148.976603 
L 194.632151 146.51171 
L 194.994705 146.767433 
L 195.357258 136.630603 
L 195.719812 131.823462 
L 196.082365 138.871003 
L 196.444919 136.982166 
L 197.170025 163.375524 
L 197.532579 163.982391 
L 197.895132 181.081271 
L 198.257686 170.35488 
L 198.620239 168.459493 
L 199.345346 138.530041 
L 199.7079 139.74014 
L 200.070453 102.845686 
L 200.433007 103.051359 
L 200.79556 102.844978 
L 201.158114 109.769413 
L 201.883221 131.076629 
L 202.245774 141.347853 
L 202.970881 151.009113 
L 203.333434 143.813001 
L 203.695988 132.162614 
L 204.058541 125.060081 
L 204.421095 115.630532 
L 204.783648 128.823684 
L 205.146202 124.176532 
L 205.508755 132.504731 
L 206.596416 174.594625 
L 206.958969 177.217328 
L 207.321523 156.036357 
L 207.684076 145.880821 
L 208.046629 127.086794 
L 208.771736 103.49344 
L 209.13429 95.114324 
L 209.496843 94.562501 
L 209.859397 97.975489 
L 210.22195 116.266587 
L 210.584504 119.23954 
L 211.309611 136.899376 
L 211.672164 143.240693 
L 212.034718 143.882473 
L 212.397271 133.927085 
L 212.759825 112.083663 
L 213.122378 125.497476 
L 213.484932 119.308925 
L 214.572592 143.806745 
L 214.935145 154.911736 
L 215.297699 154.948407 
L 215.660252 163.246563 
L 216.022806 160.302458 
L 216.385359 142.315634 
L 217.110466 117.560913 
L 217.47302 99.094675 
L 217.835573 92.046278 
L 218.198127 90.097949 
L 218.56068 98.920682 
L 218.923234 152.856557 
L 219.285787 127.686827 
L 219.64834 133.77897 
L 220.010894 147.827152 
L 220.373447 136.080776 
L 220.736001 131.58523 
L 221.098554 135.441755 
L 221.461108 126.886131 
L 221.823661 125.958609 
L 222.186215 124.057254 
L 222.911322 142.213273 
L 223.273875 150.951407 
L 223.636429 166.56927 
L 223.998982 170.197553 
L 224.361536 178.292381 
L 224.724089 175.673083 
L 225.086642 152.100257 
L 225.449196 145.216532 
L 225.811749 124.425099 
L 226.174303 114.521868 
L 226.536856 116.594719 
L 226.89941 109.026656 
L 227.261963 111.713232 
L 227.624517 117.331531 
L 227.98707 135.069475 
L 228.712177 159.938998 
L 229.074731 156.87358 
L 229.437284 161.91 
L 229.799838 148.102877 
L 230.162391 191.927501 
L 230.524945 138.83119 
L 230.887498 139.845985 
L 231.250051 148.795725 
L 231.612605 151.080024 
L 232.337712 193.332906 
L 232.700265 193.114011 
L 233.062819 190.799995 
L 233.425372 177.197838 
L 233.787926 179.46244 
L 234.150479 156.632641 
L 234.875586 136.058879 
L 235.23814 120.011329 
L 235.600693 130.536052 
L 235.963247 130.801541 
L 236.688353 164.163513 
L 237.41346 171.232403 
L 237.776014 167.848839 
L 238.138567 171.774385 
L 238.501121 167.174175 
L 238.863674 160.70192 
L 239.226228 166.131299 
L 239.588781 165.530803 
L 239.951335 171.581663 
L 240.313888 169.66839 
L 240.676442 188.051928 
L 241.038995 237.575533 
L 241.401549 194.921381 
L 241.764102 202.230564 
L 242.126655 202.562628 
L 242.851762 168.1902 
L 243.576869 142.592577 
L 244.301976 140.420459 
L 244.66453 143.4491 
L 245.027083 161.019665 
L 245.389637 161.878102 
L 245.75219 178.407847 
L 246.114744 170.297818 
L 246.477297 181.57764 
L 246.839851 178.575302 
L 247.564957 168.007325 
L 247.927511 152.219677 
L 248.290064 156.4381 
L 249.015171 173.196109 
L 249.740278 199.944512 
L 250.102832 196.206588 
L 250.465385 201.159959 
L 250.827939 188.286465 
L 251.190492 139.556035 
L 251.553046 182.406384 
L 252.278153 134.799285 
L 252.640706 128.504079 
L 253.00326 128.345982 
L 253.365813 138.700349 
L 253.728366 145.483978 
L 254.09092 161.729069 
L 254.816027 175.788139 
L 255.17858 177.320601 
L 255.541134 174.522322 
L 255.903687 169.968324 
L 256.266241 145.75492 
L 256.628794 150.579626 
L 256.991348 146.338424 
L 257.353901 164.744059 
L 258.079008 179.758649 
L 258.441562 192.608439 
L 258.804115 197.547774 
L 259.166668 180.805087 
L 259.529222 183.927656 
L 259.891775 179.079994 
L 260.254329 163.481959 
L 260.616882 142.720832 
L 261.341989 118.576058 
L 261.704543 131.236437 
L 262.067096 124.045455 
L 262.42965 142.804649 
L 262.792203 143.045357 
L 263.154757 160.838185 
L 263.51731 155.078085 
L 263.879864 161.336504 
L 264.242417 156.980276 
L 264.60497 155.265844 
L 264.967524 141.915674 
L 265.330077 148.022108 
L 265.692631 143.344645 
L 266.055184 153.432954 
L 266.417738 153.469654 
L 267.142845 184.710923 
L 267.505398 169.259768 
L 267.867952 184.496535 
L 268.230505 180.599023 
L 268.593059 168.391245 
L 268.955612 143.427343 
L 269.680719 111.528266 
L 270.043273 111.955589 
L 270.768379 117.593164 
L 271.130933 137.423175 
L 271.493486 142.773598 
L 271.85604 153.016356 
L 272.218593 149.493871 
L 272.581147 157.995179 
L 272.9437 139.226054 
L 273.306254 138.547338 
L 273.668807 140.051073 
L 274.031361 140.048289 
L 274.393914 130.340364 
L 274.756468 144.619683 
L 275.119021 150.681557 
L 275.481575 175.467033 
L 275.844128 178.107295 
L 276.206681 182.923068 
L 276.569235 185.932084 
L 277.294342 165.838706 
L 277.656895 155.081019 
L 278.019449 129.886157 
L 278.382002 123.838726 
L 278.744556 109.219809 
L 279.107109 103.5387 
L 279.469663 122.99684 
L 280.19477 140.934188 
L 280.557323 148.670853 
L 280.919877 151.499866 
L 281.28243 162.555541 
L 281.644983 158.874119 
L 282.007537 143.414157 
L 282.37009 145.448669 
L 282.732644 140.142679 
L 283.095197 140.270957 
L 283.820304 164.837558 
L 284.182858 170.265158 
L 284.545411 191.593156 
L 285.270518 187.262313 
L 285.995625 176.609578 
L 286.358179 161.124616 
L 286.720732 137.443837 
L 287.083286 132.740216 
L 287.445839 130.354057 
L 287.808392 134.87145 
L 288.170946 136.92316 
L 288.896053 155.435588 
L 289.258606 170.68114 
L 289.62116 176.147837 
L 289.983713 174.037348 
L 290.346267 170.842666 
L 290.70882 171.212497 
L 291.071374 167.819002 
L 291.433927 156.502048 
L 291.796481 167.252272 
L 292.159034 164.181234 
L 292.884141 187.746859 
L 293.971801 223.142681 
L 294.334355 195.189184 
L 294.696908 195.707875 
L 295.059462 170.166602 
L 295.422015 164.736039 
L 295.784569 150.194754 
L 296.147122 143.917861 
L 296.509676 145.343522 
L 297.234783 166.24542 
L 298.322443 195.450938 
L 298.684996 198.122593 
L 299.04755 196.437801 
L 299.410103 192.085674 
L 299.772657 183.705852 
L 300.13521 171.49204 
L 300.497764 181.346802 
L 300.860317 179.64883 
L 302.310531 225.757621 
L 302.673085 219.775629 
L 303.035638 224.302457 
L 303.760745 189.186323 
L 304.123299 162.641913 
L 304.485852 167.068152 
L 304.848405 147.678299 
L 305.210959 147.974283 
L 305.573512 166.148569 
L 305.936066 176.363338 
L 306.298619 182.622766 
L 306.661173 193.909643 
L 307.023726 200.248676 
L 307.38628 209.194255 
L 307.748833 204.549689 
L 308.111387 189.299083 
L 308.47394 192.719051 
L 308.836494 193.518475 
L 309.199047 184.865868 
L 309.561601 186.533597 
L 309.924154 197.174723 
L 310.286707 196.27738 
L 310.649261 212.122156 
L 311.011814 233.903058 
L 311.374368 220.301469 
L 311.736921 221.799876 
L 312.099475 199.573209 
L 312.462028 194.723726 
L 312.824582 171.32149 
L 313.187135 169.372229 
L 313.549689 148.90046 
L 313.912242 148.031811 
L 314.274796 153.016462 
L 314.999903 191.015034 
L 315.362456 192.917636 
L 315.725009 199.683404 
L 316.087563 199.040613 
L 316.450116 191.413576 
L 316.81267 188.517615 
L 317.537777 174.90916 
L 317.90033 181.646898 
L 318.262884 179.184791 
L 318.625437 194.842118 
L 318.987991 198.418814 
L 319.713098 218.658635 
L 320.075651 210.438085 
L 320.800758 198.779583 
L 321.163311 174.0761 
L 322.250972 139.143005 
L 322.613525 143.493419 
L 322.976079 136.847173 
L 323.701186 180.349888 
L 324.063739 173.973762 
L 324.426293 193.743089 
L 324.788846 185.487887 
L 325.1514 174.246185 
L 325.513953 171.440225 
L 325.876507 161.549649 
L 326.23906 155.194155 
L 326.601614 161.526892 
L 326.964167 179.570762 
L 327.32672 176.769744 
L 327.689274 194.132466 
L 328.051827 203.793912 
L 328.414381 199.893237 
L 328.776934 213.857396 
L 329.502041 184.71476 
L 329.864595 173.157515 
L 330.227148 152.773727 
L 330.589702 150.096387 
L 330.952255 143.814586 
L 331.314809 139.753541 
L 331.677362 149.810486 
L 332.039916 153.53764 
L 332.402469 168.677179 
L 332.765022 162.880134 
L 333.127576 179.42113 
L 333.852683 162.814066 
L 334.215236 177.14711 
L 334.57779 166.202938 
L 334.940343 149.592388 
L 335.302897 158.839179 
L 335.66545 160.872781 
L 336.390557 180.848084 
L 336.753111 185.624878 
L 337.115664 203.459253 
L 337.478218 202.771285 
L 337.840771 200.129968 
L 338.203324 189.683744 
L 338.565878 165.479916 
L 338.928431 148.884797 
L 339.653538 135.291575 
L 340.016092 145.399997 
L 340.378645 144.085545 
L 340.741199 159.965099 
L 341.103752 160.151449 
L 341.466306 171.295073 
L 341.828859 186.179182 
L 342.191413 174.917875 
L 342.553966 176.128594 
L 342.91652 176.751785 
L 343.641627 159.023663 
L 344.366733 176.384731 
L 344.729287 188.982217 
L 345.09184 180.875011 
L 345.454394 205.985756 
L 345.816947 214.369164 
L 346.179501 216.237781 
L 346.542054 207.03135 
L 346.904608 194.423927 
L 347.267161 187.076214 
L 348.354822 143.980046 
L 348.717375 155.830457 
L 349.079929 158.630925 
L 349.442482 155.900883 
L 349.805035 178.402457 
L 350.167589 190.907103 
L 350.530142 194.368464 
L 350.892696 195.401999 
L 351.255249 193.30205 
L 351.617803 190.533903 
L 351.980356 189.038051 
L 352.34291 186.585237 
L 352.705463 185.212282 
L 353.43057 204.039143 
L 353.793124 207.534186 
L 354.155677 225.010921 
L 354.518231 220.284657 
L 354.880784 229.796412 
L 355.243337 224.131565 
L 355.605891 216.499198 
L 356.330998 185.257611 
L 356.693551 179.357311 
L 357.418658 162.333366 
L 357.781212 177.664527 
L 358.143765 182.655415 
L 358.506319 206.869459 
L 358.868872 209.239785 
L 359.231426 214.400668 
L 359.593979 216.794046 
L 359.956533 208.058678 
L 360.319086 203.189664 
L 360.68164 205.082748 
L 361.044193 198.450145 
L 361.406746 201.074767 
L 361.7693 198.059598 
L 362.131853 221.722682 
L 362.494407 224.631229 
L 362.85696 229.678104 
L 363.219514 246.146483 
L 363.582067 239.19195 
L 363.944621 241.430125 
L 364.307174 218.473931 
L 364.669728 212.300694 
L 365.032281 200.935113 
L 365.394835 195.962853 
L 366.119942 172.434865 
L 366.482495 180.624923 
L 367.207602 207.646118 
L 367.570155 212.715045 
L 367.932709 213.32408 
L 368.295262 218.286915 
L 368.657816 232.597792 
L 369.382923 198.247238 
L 369.745476 207.739688 
L 370.10803 200.836305 
L 370.470583 207.34122 
L 371.558244 240.981481 
L 371.920797 246.229857 
L 372.28335 240.542575 
L 373.371011 213.265682 
L 373.733564 196.61421 
L 374.096118 185.968648 
L 374.458671 171.515578 
L 375.183778 182.261522 
L 375.546332 186.545213 
L 376.271439 211.450202 
L 376.633992 210.103152 
L 376.996546 209.596157 
L 377.359099 213.058013 
L 377.721652 202.356254 
L 378.084206 199.801039 
L 378.809313 189.358316 
L 379.171866 200.266834 
L 379.53442 216.494514 
L 380.62208 241.099059 
L 380.984634 238.882651 
L 381.347187 230.941605 
L 382.072294 200.891706 
L 382.797401 163.80389 
L 383.159955 156.192775 
L 383.885061 169.055616 
L 384.247615 183.760081 
L 384.610168 180.899516 
L 385.335275 214.905005 
L 385.697829 201.608653 
L 386.060382 201.124971 
L 386.422936 192.768608 
L 386.785489 176.58478 
L 387.148043 196.935695 
L 387.510596 173.386123 
L 387.87315 192.574453 
L 388.598257 214.574382 
L 388.96081 217.980418 
L 389.323363 228.265287 
L 389.685917 224.84094 
L 390.04847 219.650649 
L 390.411024 207.74781 
L 391.136131 172.721884 
L 391.498684 160.893962 
L 391.861238 160.572819 
L 392.223791 149.080311 
L 392.586345 154.290789 
L 392.948898 163.057097 
L 393.311452 189.288666 
L 393.674005 193.215303 
L 394.036559 189.978542 
L 394.399112 190.885496 
L 394.761665 195.269029 
L 395.124219 182.487665 
L 395.486772 176.205993 
L 395.849326 175.033067 
L 396.211879 179.598558 
L 396.574433 178.757404 
L 397.29954 214.537049 
L 397.662093 211.915646 
L 398.024647 227.150294 
L 398.3872 221.937626 
L 398.749754 220.864088 
L 399.112307 207.163686 
L 399.474861 199.209587 
L 399.837414 176.632321 
L 400.199968 166.265518 
L 400.562521 151.313543 
L 400.925074 150.842531 
L 401.287628 156.357171 
L 401.650181 169.419061 
L 402.012735 187.792376 
L 402.375288 188.176573 
L 402.737842 201.100279 
L 403.100395 196.638689 
L 403.462949 201.181491 
L 403.825502 189.992716 
L 404.188056 182.800253 
L 404.550609 179.982326 
L 404.913163 187.033511 
L 405.275716 191.265339 
L 406.000823 219.56048 
L 406.363376 225.473661 
L 406.72593 228.48497 
L 407.451037 230.489884 
L 407.81359 209.479247 
L 408.176144 201.55225 
L 408.901251 173.091113 
L 409.263804 179.665101 
L 409.626358 176.406984 
L 409.988911 176.877712 
L 410.351465 193.456103 
L 410.714018 201.245982 
L 411.076572 219.332836 
L 411.439125 210.198439 
L 411.801678 211.143773 
L 412.164232 220.752383 
L 412.526785 202.976776 
L 412.889339 208.795129 
L 413.251892 194.447612 
L 413.976999 211.36777 
L 414.339553 214.338643 
L 414.702106 245.133264 
L 415.06466 230.728005 
L 415.427213 247.10638 
L 415.789767 250.573864 
L 416.15232 251.0069 
L 416.514874 225.431619 
L 416.877427 221.412828 
L 417.239981 197.568295 
L 417.602534 199.751395 
L 417.965087 186.065793 
L 418.327641 184.710722 
L 418.690194 200.156799 
L 419.052748 204.097465 
L 419.415301 203.906553 
L 420.140408 239.759523 
L 420.502962 231.088562 
L 420.865515 235.605762 
L 421.590622 222.533904 
L 421.953176 216.468811 
L 422.315729 214.48931 
L 422.678283 219.462881 
L 423.040836 245.165604 
L 423.403389 242.869538 
L 423.765943 264.675433 
L 424.128496 266.530217 
L 425.216157 253.435503 
L 425.941264 218.837432 
L 426.666371 189.299326 
L 427.028924 189.426681 
L 427.391478 211.960957 
L 428.116585 230.34919 
L 428.479138 228.207454 
L 428.841691 242.766342 
L 429.204245 244.917004 
L 429.566798 240.561063 
L 430.291905 227.082704 
L 430.654459 216.634926 
L 431.017012 217.224156 
L 431.379566 233.622499 
L 431.742119 235.563714 
L 432.104673 252.290828 
L 432.467226 258.938084 
L 432.82978 271.168886 
L 433.554887 256.88729 
L 433.91744 244.042897 
L 434.279994 224.670153 
L 434.642547 219.468384 
L 435.0051 199.472111 
L 435.367654 196.595617 
L 435.730207 192.415133 
L 436.092761 203.277343 
L 436.455314 206.986005 
L 436.817868 231.676645 
L 437.180421 237.837688 
L 437.542975 228.08076 
L 437.905528 239.683863 
L 438.268082 222.726702 
L 438.630635 225.844265 
L 438.993189 225.57188 
L 439.355742 219.382641 
L 439.718296 222.374998 
L 440.080849 216.621686 
L 440.443402 229.23829 
L 440.805956 237.014779 
L 441.168509 255.919987 
L 441.531063 262.746518 
L 441.893616 256.920554 
L 442.25617 244.022287 
L 442.618723 236.310396 
L 442.981277 223.149842 
L 443.34383 200.277056 
L 443.706384 200.844364 
L 444.068937 190.094081 
L 444.431491 182.957496 
L 444.794044 185.37642 
L 445.156598 200.914765 
L 445.519151 204.929102 
L 445.881704 220.526764 
L 446.244258 213.736544 
L 446.606811 225.506751 
L 447.331918 210.963632 
L 447.694472 204.088452 
L 448.057025 201.152408 
L 448.419579 191.360075 
L 448.782132 209.80791 
L 449.144686 217.849356 
L 449.507239 231.313411 
L 449.869793 237.207117 
L 450.232346 254.730926 
L 450.5949 241.514397 
L 450.957453 233.588878 
L 451.68256 210.57564 
L 452.045113 195.832589 
L 452.407667 170.875916 
L 452.77022 161.596861 
L 453.132774 179.42255 
L 453.495327 183.025679 
L 453.857881 190.356237 
L 454.220434 201.829943 
L 454.582988 205.101215 
L 454.945541 211.736598 
L 455.308095 213.885086 
L 455.670648 216.898903 
L 456.395755 200.986938 
L 456.758309 200.818068 
L 457.120862 196.288188 
L 457.483415 202.789369 
L 457.845969 220.398677 
L 458.933629 235.274333 
L 459.296183 247.938939 
L 459.658736 236.011247 
L 460.02129 220.351746 
L 460.383843 215.620727 
L 460.746397 187.687174 
L 461.10895 183.168486 
L 461.471504 168.111871 
L 461.834057 181.35584 
L 462.196611 184.467719 
L 462.559164 195.08257 
L 462.921717 211.609077 
L 463.284271 206.769167 
L 463.646824 217.845926 
L 464.009378 218.141609 
L 464.371931 212.834438 
L 464.734485 215.270394 
L 465.097038 208.551046 
L 465.459592 209.116392 
L 465.822145 204.261816 
L 466.184699 202.956607 
L 466.909806 231.768322 
L 467.272359 236.388109 
L 467.634913 249.9258 
L 467.997466 251.331238 
L 468.360019 255.485979 
L 468.722573 237.924308 
L 469.085126 231.807341 
L 469.44768 202.605406 
L 469.810233 198.461427 
L 470.172787 185.40997 
L 470.53534 196.93968 
L 470.897894 189.949871 
L 471.260447 198.27832 
L 471.623001 237.488383 
L 471.985554 225.925119 
L 472.348108 235.053669 
L 472.710661 238.428745 
L 473.073215 240.18875 
L 473.435768 231.589674 
L 473.798322 234.09227 
L 474.160875 219.461559 
L 474.885982 225.883904 
L 475.248535 236.78302 
L 475.611089 254.391187 
L 476.336196 267.382587 
L 476.698749 273.656062 
L 477.061303 266.125072 
L 477.423856 254.021623 
L 477.78641 246.702797 
L 478.148963 227.089915 
L 479.236624 201.512468 
L 479.96173 220.976 
L 480.324284 230.757454 
L 480.686837 251.700929 
L 481.049391 251.880588 
L 481.411944 250.013755 
L 481.774498 244.085751 
L 482.137051 252.616653 
L 482.499605 238.034957 
L 482.862158 229.552553 
L 483.224712 240.616574 
L 483.587265 244.50942 
L 483.949819 258.082543 
L 484.312372 262.095355 
L 484.674926 275.156384 
L 485.037479 283.048876 
L 485.762586 277.669612 
L 486.125139 273.526895 
L 486.487693 248.301767 
L 486.850246 230.889015 
L 487.2128 227.016422 
L 487.575353 209.984475 
L 487.937907 226.695783 
L 488.30046 214.076509 
L 488.663014 235.773538 
L 489.388121 261.756332 
L 489.750674 256.429169 
L 490.113228 254.779787 
L 490.475781 256.921876 
L 490.838335 250.036526 
L 491.200888 250.854029 
L 491.563441 246.167805 
L 491.925995 234.509818 
L 492.288548 240.926637 
L 492.651102 253.465856 
L 493.013655 277.275382 
L 493.738762 290.699453 
L 494.101316 282.051852 
L 494.463869 278.870716 
L 494.826423 267.889627 
L 495.188976 250.659042 
L 495.914083 225.97468 
L 496.276637 212.866057 
L 496.63919 219.737789 
L 497.001743 216.271218 
L 497.364297 228.547988 
L 497.72685 245.050368 
L 498.451957 261.474143 
L 498.814511 251.813109 
L 499.177064 252.146506 
L 499.902171 246.478679 
L 500.264725 233.548825 
L 500.627278 230.798716 
L 500.989832 246.807326 
L 501.352385 248.496839 
L 501.714939 255.732309 
L 502.077492 268.872011 
L 502.440045 275.064576 
L 502.802599 271.522915 
L 503.890259 243.027876 
L 504.252813 230.963329 
L 504.615366 214.185536 
L 504.97792 205.762622 
L 505.340473 193.781149 
L 506.06558 224.334071 
L 506.428134 227.380379 
L 506.790687 232.16781 
L 507.515794 249.225518 
L 507.878348 237.953156 
L 508.966008 219.178527 
L 509.328561 222.887205 
L 509.691115 236.80866 
L 510.053668 237.997479 
L 510.416222 248.170397 
L 510.778775 267.109392 
L 511.141329 262.705902 
L 511.503882 266.789359 
L 512.228989 250.159181 
L 512.591543 220.207773 
L 512.954096 204.963262 
L 513.31665 200.861522 
L 513.679203 191.164534 
L 514.041756 193.56365 
L 514.766863 206.873446 
L 515.49197 241.052794 
L 515.854524 222.59545 
L 516.217077 237.630768 
L 516.579631 231.066329 
L 516.942184 230.270673 
L 517.304738 235.230249 
L 517.667291 215.856736 
L 518.029845 220.441193 
L 518.392398 217.562185 
L 518.754952 235.698827 
L 519.480058 261.29911 
L 519.842612 264.251764 
L 520.205165 258.07266 
L 520.567719 263.000831 
L 520.930272 248.979482 
L 521.655379 209.75476 
L 522.017933 205.603503 
L 522.380486 193.052537 
L 522.74304 200.481345 
L 523.105593 201.372208 
L 523.468147 214.200647 
L 523.8307 221.626477 
L 524.193254 243.396382 
L 524.555807 244.980932 
L 524.91836 239.495413 
L 525.280914 237.143122 
L 525.643467 233.856723 
L 526.006021 225.805833 
L 526.368574 223.372245 
L 526.731128 220.132778 
L 527.093681 231.831157 
L 527.456235 238.592042 
L 527.818788 261.552914 
L 528.181342 270.353666 
L 528.906449 279.032284 
L 529.631556 254.435593 
L 529.994109 249.531541 
L 530.356663 219.677004 
L 530.719216 211.711181 
L 531.081769 210.688443 
L 531.444323 210.058743 
L 531.806876 217.433803 
L 532.16943 221.765778 
L 532.531983 246.271102 
L 532.894537 243.947829 
L 533.25709 261.626072 
L 533.982197 255.642737 
L 534.344751 249.932021 
L 534.707304 250.001404 
L 535.432411 239.504838 
L 535.794965 246.727159 
L 536.157518 269.726542 
L 536.520071 283.344393 
L 536.882625 282.509548 
L 537.245178 293.260862 
L 537.607732 291.188677 
L 537.970285 285.515151 
L 538.332839 275.966197 
L 538.695392 257.780102 
L 539.057946 245.896225 
L 539.420499 240.977732 
L 539.783053 223.93206 
L 540.145606 228.02819 
L 540.50816 240.133518 
L 540.870713 241.780505 
L 541.233267 263.54569 
L 541.59582 268.073001 
L 541.958373 275.551966 
L 542.320927 269.337819 
L 542.68348 275.68603 
L 543.046034 264.529556 
L 543.408587 264.530472 
L 544.133694 253.431748 
L 544.858801 274.907373 
L 545.221355 297.952296 
L 545.583908 295.829802 
L 545.946462 300.832846 
L 546.309015 303.676199 
L 546.671569 294.37845 
L 547.034122 293.794014 
L 548.121782 236.973207 
L 548.484336 235.802148 
L 548.846889 230.498498 
L 549.209443 244.442825 
L 549.571996 248.04644 
L 550.297103 281.378502 
L 550.659657 284.576842 
L 551.02221 275.529452 
L 551.384764 277.846157 
L 551.747317 271.013162 
L 552.109871 271.864032 
L 552.472424 264.511838 
L 552.834978 253.863893 
L 553.560084 281.388316 
L 553.922638 286.68734 
L 554.285191 304.592218 
L 554.647745 314.091544 
L 555.010298 300.019565 
L 555.372852 302.426474 
L 555.735405 279.389783 
L 556.097959 267.752339 
L 556.460512 263.125383 
L 556.823066 240.311446 
L 557.185619 231.169842 
L 557.548173 233.558146 
L 557.910726 238.040917 
L 558.27328 247.548437 
L 558.635833 266.29632 
L 558.998386 269.440793 
L 559.36094 274.652113 
L 559.723493 276.876409 
L 560.086047 272.722522 
L 560.4486 265.377387 
L 561.173707 255.841826 
L 561.536261 259.90436 
L 561.898814 260.974332 
L 562.261368 267.139927 
L 562.623921 286.947924 
L 562.986475 294.10868 
L 563.349028 294.346645 
L 563.711582 290.02039 
L 564.074135 291.111742 
L 564.436689 277.213799 
L 564.799242 253.615655 
L 565.161795 247.484173 
L 565.524349 230.119665 
L 565.886902 229.812895 
L 566.249456 221.718451 
L 566.612009 233.216347 
L 566.974563 238.275246 
L 567.337116 258.082535 
L 567.69967 269.223081 
L 568.062223 261.247628 
L 568.424777 265.16357 
L 568.78733 264.649626 
L 569.149884 251.119938 
L 569.512437 258.070704 
L 569.874991 240.878778 
L 570.237544 246.001484 
L 570.600097 245.393131 
L 570.962651 256.35702 
L 571.325204 275.974164 
L 571.687758 277.443509 
L 572.050311 282.241831 
L 572.412865 280.081874 
L 572.775418 284.650534 
L 573.500525 252.402563 
L 573.863079 225.574445 
L 574.225632 223.659413 
L 574.588186 209.284894 
L 574.950739 212.332076 
L 575.313293 205.444793 
L 575.675846 230.025639 
L 576.038399 232.24261 
L 576.400953 255.100546 
L 576.763506 264.607427 
L 577.12606 248.156987 
L 577.488613 249.503435 
L 577.851167 252.029206 
L 578.21372 248.817887 
L 578.576274 234.839201 
L 578.938827 237.656915 
L 579.301381 233.481178 
L 580.026488 273.791543 
L 580.389041 272.147767 
L 580.751595 278.400036 
L 581.114148 292.318597 
L 581.476701 280.664312 
L 581.839255 261.849955 
L 582.201808 249.106283 
L 582.564362 229.029354 
L 582.926915 228.631213 
L 583.289469 220.504936 
L 584.014576 223.819612 
L 584.377129 225.388039 
L 584.739683 248.429015 
L 585.102236 254.922576 
L 585.46479 258.825687 
L 585.827343 264.965549 
L 586.189897 263.531985 
L 586.55245 256.748348 
L 586.915004 257.675749 
L 587.277557 249.039203 
L 587.64011 244.362439 
L 588.365217 264.616177 
L 588.727771 261.597053 
L 589.452878 298.91164 
L 589.815431 300.699555 
L 590.177985 283.033399 
L 590.540538 276.633967 
L 590.903092 258.857412 
L 591.265645 251.978784 
L 591.628199 238.815967 
L 592.353306 226.88793 
L 592.715859 243.177493 
L 593.078412 240.481145 
L 594.166073 276.439553 
L 594.528626 280.474951 
L 594.89118 278.848872 
L 595.253733 265.646572 
L 595.616287 258.814896 
L 595.97884 264.466629 
L 596.341394 253.406915 
L 596.703947 267.760622 
L 597.066501 269.14444 
L 597.429054 296.86942 
L 597.791608 298.369434 
L 598.154161 302.597554 
L 598.516714 313.372138 
L 598.879268 312.775671 
L 599.241821 301.281519 
L 600.329482 246.919158 
L 600.692035 249.162423 
L 601.054589 258.824853 
L 601.417142 252.981208 
L 601.779696 270.712195 
L 602.142249 274.259085 
L 602.504803 291.678496 
L 602.867356 284.834876 
L 603.22991 300.668185 
L 603.592463 304.99364 
L 603.955017 295.305679 
L 604.31757 281.960375 
L 605.042677 285.696322 
L 605.40523 283.809923 
L 605.767784 292.605691 
L 606.492891 320.771069 
L 607.217998 324.944122 
L 607.580551 319.087991 
L 607.943105 307.735047 
L 608.305658 285.846382 
L 608.668212 288.440234 
L 609.030765 263.09899 
L 609.393319 256.130464 
L 609.755872 254.851847 
L 610.118425 260.909624 
L 611.568639 305.62243 
L 611.931193 309.247556 
L 612.293746 300.232129 
L 612.6563 295.906912 
L 613.018853 284.410566 
L 613.381407 277.433614 
L 613.74396 290.789084 
L 614.106514 292.244438 
L 614.469067 305.880276 
L 614.831621 312.15037 
L 615.194174 315.827776 
L 615.556727 321.561024 
L 615.919281 320.686255 
L 616.281834 321.572879 
L 617.006941 280.606874 
L 617.369495 277.60873 
L 617.732048 259.03426 
L 618.094602 251.335001 
L 618.457155 254.680045 
L 618.819709 264.84698 
L 619.182262 260.650952 
L 619.544816 289.6707 
L 619.907369 289.97371 
L 620.269923 289.677241 
L 620.632476 299.111754 
L 620.99503 288.752182 
L 621.357583 286.649662 
L 621.720136 280.252964 
L 622.08269 270.429026 
L 622.445243 279.412037 
L 622.807797 284.825566 
L 623.17035 286.934102 
L 623.532904 296.617653 
L 623.895457 312.952885 
L 624.258011 321.084259 
L 624.620564 317.277044 
L 625.345671 296.083842 
L 625.708225 282.051661 
L 626.433332 239.152973 
L 626.795885 243.178929 
L 627.158438 245.698711 
L 627.520992 257.252072 
L 627.883545 252.164485 
L 628.246099 274.368234 
L 628.608652 278.182 
L 628.971206 290.352719 
L 629.333759 291.034474 
L 629.696313 294.152677 
L 630.058866 268.648396 
L 630.42142 269.075664 
L 631.146527 256.119564 
L 631.50908 273.747087 
L 631.871634 277.297366 
L 632.234187 283.942458 
L 632.959294 308.526643 
L 633.321847 301.105537 
L 633.684401 296.421318 
L 634.046954 293.945296 
L 634.772061 246.55136 
L 635.134615 246.712956 
L 635.497168 231.069911 
L 636.584829 250.183809 
L 636.947382 265.491142 
L 637.309936 271.891015 
L 637.672489 282.136762 
L 638.035043 279.10811 
L 638.397596 273.297172 
L 638.760149 260.314423 
L 639.122703 265.880119 
L 639.485256 253.579767 
L 639.84781 262.427708 
L 640.210363 265.15411 
L 640.572917 274.505369 
L 641.298024 299.074747 
L 641.660577 297.552664 
L 642.023131 309.710423 
L 642.385684 290.983361 
L 642.748238 278.62469 
L 643.110791 254.393181 
L 643.473345 255.670777 
L 643.835898 240.180624 
L 644.198451 240.68652 
L 644.561005 236.467754 
L 644.923558 247.337683 
L 645.286112 252.234068 
L 645.648665 265.494967 
L 646.011219 285.201247 
L 646.373772 274.178781 
L 646.736326 288.743511 
L 647.098879 258.12188 
L 647.461433 278.525902 
L 647.823986 261.06197 
L 648.18654 266.580473 
L 648.549093 276.005018 
L 648.911647 275.61991 
L 649.2742 277.054735 
L 649.636753 297.115763 
L 649.999307 308.388767 
L 650.36186 312.879201 
L 650.724414 319.496794 
L 651.086967 301.066943 
L 651.812074 287.87841 
L 652.174628 260.654384 
L 653.262288 253.629647 
L 653.624842 264.769486 
L 653.987395 266.935842 
L 654.349949 285.114268 
L 654.712502 295.046677 
L 655.075055 295.217557 
L 655.437609 291.449981 
L 655.800162 299.088498 
L 656.162716 289.265539 
L 656.525269 297.947597 
L 656.887823 280.960286 
L 657.250376 291.79775 
L 657.61293 286.489376 
L 657.975483 301.441595 
L 658.338037 306.559012 
L 658.70059 326.175852 
L 659.063144 334.249083 
L 659.425697 330.870291 
L 659.788251 328.536125 
L 661.238464 273.762283 
L 661.601018 271.052401 
L 661.963571 260.446446 
L 662.326125 276.37164 
L 662.688678 282.028828 
L 663.051232 296.446424 
L 663.413785 321.88922 
L 663.776339 313.929333 
L 664.138892 313.475432 
L 664.501446 314.571713 
L 664.863999 309.378896 
L 665.226553 301.71063 
L 665.95166 296.895009 
L 666.314213 299.686913 
L 666.676766 318.429278 
L 667.03932 275.757697 
L 667.401873 337.625249 
L 668.12698 351.561255 
L 668.489534 325.665351 
L 668.852087 321.31427 
L 669.214641 313.509826 
L 669.577194 294.368862 
L 669.939748 292.834118 
L 670.302301 283.206828 
L 670.664855 278.431089 
L 671.027408 285.957943 
L 671.752515 293.186801 
L 672.115068 325.043695 
L 672.477622 331.00057 
L 672.840175 320.785312 
L 673.202729 321.323307 
L 673.565282 308.94916 
L 673.927836 309.452484 
L 674.290389 302.698691 
L 674.652943 299.560617 
L 675.015496 319.167427 
L 675.37805 324.729307 
L 675.740603 336.06697 
L 676.103157 339.190535 
L 676.46571 343.845716 
L 676.828264 346.759613 
L 677.190817 328.465194 
L 677.553371 320.867742 
L 677.915924 309.295639 
L 678.278477 285.495488 
L 678.641031 284.531411 
L 679.003584 277.336072 
L 679.366138 274.474075 
L 679.728691 272.84776 
L 680.453798 302.476262 
L 680.816352 312.490612 
L 681.178905 318.435441 
L 681.541459 315.073905 
L 681.904012 315.09704 
L 682.266566 304.084587 
L 682.629119 300.342192 
L 682.991673 299.247998 
L 683.354226 290.750503 
L 683.716779 301.290523 
L 684.079333 315.800382 
L 684.441886 315.910375 
L 684.80444 335.704835 
L 685.166993 334.853943 
L 685.529547 325.747908 
L 685.8921 324.638088 
L 686.617207 301.177961 
L 686.979761 280.767113 
L 687.342314 270.554794 
L 687.704868 266.475016 
L 688.067421 263.869553 
L 688.792528 277.805257 
L 689.880188 304.833551 
L 690.242742 311.252656 
L 690.605295 303.561394 
L 690.967849 288.355962 
L 691.330402 291.509838 
L 691.692956 275.927277 
L 692.055509 301.046657 
L 692.418063 280.825784 
L 692.780616 305.686511 
L 693.14317 305.425239 
L 693.505723 329.239766 
L 693.868277 326.904259 
L 694.23083 322.95981 
L 694.593384 322.670971 
L 695.681044 275.188365 
L 696.043597 270.611184 
L 696.406151 254.449591 
L 696.768704 249.614802 
L 697.493811 273.153741 
L 697.856365 282.726707 
L 698.218918 304.999409 
L 698.581472 307.669538 
L 698.944025 290.733104 
L 699.306579 292.68615 
L 699.669132 291.353561 
L 700.031686 277.935701 
L 700.394239 284.451623 
L 700.756792 286.13476 
L 701.119346 282.168484 
L 701.844453 308.961531 
L 702.207006 320.976176 
L 702.56956 322.017952 
L 702.932113 329.755827 
L 703.294667 317.746436 
L 703.65722 312.015568 
L 704.382327 270.499988 
L 704.744881 271.946307 
L 705.107434 244.506717 
L 705.469988 256.587285 
L 705.832541 251.765037 
L 706.195094 275.484775 
L 706.557648 288.387463 
L 706.920201 297.047456 
L 707.282755 302.097244 
L 707.645308 313.028202 
L 708.007862 315.96166 
L 708.370415 292.847421 
L 708.732969 294.078563 
L 709.095522 287.867675 
L 709.458076 295.478926 
L 709.820629 299.140819 
L 710.183183 308.116891 
L 710.545736 321.942972 
L 710.90829 318.308826 
L 711.270843 331.717035 
L 711.633397 332.254255 
L 711.99595 331.346943 
L 712.721057 295.480352 
L 713.08361 294.941538 
L 713.446164 273.46958 
L 713.808717 260.962676 
L 714.171271 270.019615 
L 714.533824 274.070104 
L 714.896378 293.958627 
L 715.258931 299.38511 
L 715.621485 311.887555 
L 715.984038 309.80433 
L 716.709145 321.414782 
L 717.071699 309.714458 
L 717.796805 297.806277 
L 718.159359 301.649468 
L 718.521912 311.566481 
L 719.609573 347.477334 
L 719.972126 350.887724 
L 720.33468 347.869195 
L 720.697233 348.369061 
L 721.059787 339.109084 
L 721.42234 324.059835 
L 721.784894 304.144726 
L 722.147447 297.095876 
L 722.510001 287.845674 
L 722.872554 288.136107 
L 723.235107 287.249451 
L 723.597661 308.793949 
L 723.960214 310.832069 
L 724.322768 322.751345 
L 724.685321 343.270017 
L 725.047875 339.045548 
L 725.410428 340.322341 
L 725.772982 327.986746 
L 726.135535 329.497571 
L 726.498089 309.31571 
L 726.860642 315.372536 
L 727.223196 324.208994 
L 727.585749 344.542462 
L 727.948303 350.716257 
L 728.310856 354.176553 
L 728.673409 358.716344 
L 729.035963 366.819179 
L 729.398516 352.128884 
L 730.123623 342.135947 
L 730.486177 316.248946 
L 730.84873 312.412168 
L 731.211284 298.923886 
L 731.573837 298.425824 
L 732.298944 310.051447 
L 732.661498 328.418661 
L 733.024051 335.566095 
L 733.386605 346.645121 
L 733.749158 344.743323 
L 734.111712 344.385194 
L 734.474265 335.586876 
L 735.199372 327.158109 
L 735.561925 322.083368 
L 737.012139 368.936655 
L 737.374693 363.815531 
L 737.737246 369.36 
L 738.462353 354.570443 
L 738.824907 329.825079 
L 739.912567 295.868292 
L 740.27512 294.233011 
L 740.637674 299.191441 
L 741.000227 312.122266 
L 741.362781 330.000595 
L 741.725334 329.252449 
L 742.087888 344.31943 
L 742.450441 337.048768 
L 742.812995 325.486952 
L 743.175548 327.535399 
L 743.538102 322.215006 
L 743.900655 313.951236 
L 744.263209 318.255895 
L 744.625762 318.350294 
L 744.988316 337.590959 
L 745.350869 338.776364 
L 745.713422 363.45921 
L 746.075976 354.974772 
L 746.438529 360.84685 
L 746.801083 341.763903 
L 747.163636 338.188624 
L 747.163636 338.188624 
" style="fill:none;stroke:#1f77b4;stroke-linecap:square;stroke-width:1.5;"/>
   </g>
   <g id="line2d_16">
    <path clip-path="url(#p9c6f28beb6)" d="M 745.713422 384.48 
L 745.713422 51.84 
" style="fill:none;stroke:#808080;stroke-linecap:square;"/>
   </g>
   <g id="patch_47">
    <path d="M 108 384.48 
L 108 51.84 
" style="fill:none;stroke:#000000;stroke-linecap:square;stroke-linejoin:miter;stroke-width:0.8;"/>
   </g>
   <g id="patch_48">
    <path d="M 777.6 384.48 
L 777.6 51.84 
" style="fill:none;stroke:#000000;stroke-linecap:square;stroke-linejoin:miter;stroke-width:0.8;"/>
   </g>
   <g id="patch_49">
    <path d="M 108 384.48 
L 777.6 384.48 
" style="fill:none;stroke:#000000;stroke-linecap:square;stroke-linejoin:miter;stroke-width:0.8;"/>
   </g>
   <g id="patch_50">
    <path d="M 108 51.84 
L 777.6 51.84 
" style="fill:none;stroke:#000000;stroke-linecap:square;stroke-linejoin:miter;stroke-width:0.8;"/>
   </g>
   <g id="text_17">
    <!-- A3Benchmark-TS84.csv -->
    <defs>
     <path d="M 34.1875 63.1875 
L 20.796875 26.90625 
L 47.609375 26.90625 
z
M 28.609375 72.90625 
L 39.796875 72.90625 
L 67.578125 0 
L 57.328125 0 
L 50.6875 18.703125 
L 17.828125 18.703125 
L 11.1875 0 
L 0.78125 0 
z
" id="DejaVuSans-65"/>
     <path d="M 19.671875 34.8125 
L 19.671875 8.109375 
L 35.5 8.109375 
Q 43.453125 8.109375 47.28125 11.40625 
Q 51.125 14.703125 51.125 21.484375 
Q 51.125 28.328125 47.28125 31.5625 
Q 43.453125 34.8125 35.5 34.8125 
z
M 19.671875 64.796875 
L 19.671875 42.828125 
L 34.28125 42.828125 
Q 41.5 42.828125 45.03125 45.53125 
Q 48.578125 48.25 48.578125 53.8125 
Q 48.578125 59.328125 45.03125 62.0625 
Q 41.5 64.796875 34.28125 64.796875 
z
M 9.8125 72.90625 
L 35.015625 72.90625 
Q 46.296875 72.90625 52.390625 68.21875 
Q 58.5 63.53125 58.5 54.890625 
Q 58.5 48.1875 55.375 44.234375 
Q 52.25 40.28125 46.1875 39.3125 
Q 53.46875 37.75 57.5 32.78125 
Q 61.53125 27.828125 61.53125 20.40625 
Q 61.53125 10.640625 54.890625 5.3125 
Q 48.25 0 35.984375 0 
L 9.8125 0 
z
" id="DejaVuSans-66"/>
     <path d="M 54.890625 33.015625 
L 54.890625 0 
L 45.90625 0 
L 45.90625 32.71875 
Q 45.90625 40.484375 42.875 44.328125 
Q 39.84375 48.1875 33.796875 48.1875 
Q 26.515625 48.1875 22.3125 43.546875 
Q 18.109375 38.921875 18.109375 30.90625 
L 18.109375 0 
L 9.078125 0 
L 9.078125 54.6875 
L 18.109375 54.6875 
L 18.109375 46.1875 
Q 21.34375 51.125 25.703125 53.5625 
Q 30.078125 56 35.796875 56 
Q 45.21875 56 50.046875 50.171875 
Q 54.890625 44.34375 54.890625 33.015625 
z
" id="DejaVuSans-110"/>
     <path d="M 48.78125 52.59375 
L 48.78125 44.1875 
Q 44.96875 46.296875 41.140625 47.34375 
Q 37.3125 48.390625 33.40625 48.390625 
Q 24.65625 48.390625 19.8125 42.84375 
Q 14.984375 37.3125 14.984375 27.296875 
Q 14.984375 17.28125 19.8125 11.734375 
Q 24.65625 6.203125 33.40625 6.203125 
Q 37.3125 6.203125 41.140625 7.25 
Q 44.96875 8.296875 48.78125 10.40625 
L 48.78125 2.09375 
Q 45.015625 0.34375 40.984375 -0.53125 
Q 36.96875 -1.421875 32.421875 -1.421875 
Q 20.0625 -1.421875 12.78125 6.34375 
Q 5.515625 14.109375 5.515625 27.296875 
Q 5.515625 40.671875 12.859375 48.328125 
Q 20.21875 56 33.015625 56 
Q 37.15625 56 41.109375 55.140625 
Q 45.0625 54.296875 48.78125 52.59375 
z
" id="DejaVuSans-99"/>
     <path d="M 54.890625 33.015625 
L 54.890625 0 
L 45.90625 0 
L 45.90625 32.71875 
Q 45.90625 40.484375 42.875 44.328125 
Q 39.84375 48.1875 33.796875 48.1875 
Q 26.515625 48.1875 22.3125 43.546875 
Q 18.109375 38.921875 18.109375 30.90625 
L 18.109375 0 
L 9.078125 0 
L 9.078125 75.984375 
L 18.109375 75.984375 
L 18.109375 46.1875 
Q 21.34375 51.125 25.703125 53.5625 
Q 30.078125 56 35.796875 56 
Q 45.21875 56 50.046875 50.171875 
Q 54.890625 44.34375 54.890625 33.015625 
z
" id="DejaVuSans-104"/>
     <path d="M 41.109375 46.296875 
Q 39.59375 47.171875 37.8125 47.578125 
Q 36.03125 48 33.890625 48 
Q 26.265625 48 22.1875 43.046875 
Q 18.109375 38.09375 18.109375 28.8125 
L 18.109375 0 
L 9.078125 0 
L 9.078125 54.6875 
L 18.109375 54.6875 
L 18.109375 46.1875 
Q 20.953125 51.171875 25.484375 53.578125 
Q 30.03125 56 36.53125 56 
Q 37.453125 56 38.578125 55.875 
Q 39.703125 55.765625 41.0625 55.515625 
z
" id="DejaVuSans-114"/>
     <path d="M 9.078125 75.984375 
L 18.109375 75.984375 
L 18.109375 31.109375 
L 44.921875 54.6875 
L 56.390625 54.6875 
L 27.390625 29.109375 
L 57.625 0 
L 45.90625 0 
L 18.109375 26.703125 
L 18.109375 0 
L 9.078125 0 
z
" id="DejaVuSans-107"/>
     <path d="M 4.890625 31.390625 
L 31.203125 31.390625 
L 31.203125 23.390625 
L 4.890625 23.390625 
z
" id="DejaVuSans-45"/>
     <path d="M 53.515625 70.515625 
L 53.515625 60.890625 
Q 47.90625 63.578125 42.921875 64.890625 
Q 37.9375 66.21875 33.296875 66.21875 
Q 25.25 66.21875 20.875 63.09375 
Q 16.5 59.96875 16.5 54.203125 
Q 16.5 49.359375 19.40625 46.890625 
Q 22.3125 44.4375 30.421875 42.921875 
L 36.375 41.703125 
Q 47.40625 39.59375 52.65625 34.296875 
Q 57.90625 29 57.90625 20.125 
Q 57.90625 9.515625 50.796875 4.046875 
Q 43.703125 -1.421875 29.984375 -1.421875 
Q 24.8125 -1.421875 18.96875 -0.25 
Q 13.140625 0.921875 6.890625 3.21875 
L 6.890625 13.375 
Q 12.890625 10.015625 18.65625 8.296875 
Q 24.421875 6.59375 29.984375 6.59375 
Q 38.421875 6.59375 43.015625 9.90625 
Q 47.609375 13.234375 47.609375 19.390625 
Q 47.609375 24.75 44.3125 27.78125 
Q 41.015625 30.8125 33.5 32.328125 
L 27.484375 33.5 
Q 16.453125 35.6875 11.515625 40.375 
Q 6.59375 45.0625 6.59375 53.421875 
Q 6.59375 63.09375 13.40625 68.65625 
Q 20.21875 74.21875 32.171875 74.21875 
Q 37.3125 74.21875 42.625 73.28125 
Q 47.953125 72.359375 53.515625 70.515625 
z
" id="DejaVuSans-83"/>
     <path d="M 31.78125 34.625 
Q 24.75 34.625 20.71875 30.859375 
Q 16.703125 27.09375 16.703125 20.515625 
Q 16.703125 13.921875 20.71875 10.15625 
Q 24.75 6.390625 31.78125 6.390625 
Q 38.8125 6.390625 42.859375 10.171875 
Q 46.921875 13.96875 46.921875 20.515625 
Q 46.921875 27.09375 42.890625 30.859375 
Q 38.875 34.625 31.78125 34.625 
z
M 21.921875 38.8125 
Q 15.578125 40.375 12.03125 44.71875 
Q 8.5 49.078125 8.5 55.328125 
Q 8.5 64.0625 14.71875 69.140625 
Q 20.953125 74.21875 31.78125 74.21875 
Q 42.671875 74.21875 48.875 69.140625 
Q 55.078125 64.0625 55.078125 55.328125 
Q 55.078125 49.078125 51.53125 44.71875 
Q 48 40.375 41.703125 38.8125 
Q 48.828125 37.15625 52.796875 32.3125 
Q 56.78125 27.484375 56.78125 20.515625 
Q 56.78125 9.90625 50.3125 4.234375 
Q 43.84375 -1.421875 31.78125 -1.421875 
Q 19.734375 -1.421875 13.25 4.234375 
Q 6.78125 9.90625 6.78125 20.515625 
Q 6.78125 27.484375 10.78125 32.3125 
Q 14.796875 37.15625 21.921875 38.8125 
z
M 18.3125 54.390625 
Q 18.3125 48.734375 21.84375 45.5625 
Q 25.390625 42.390625 31.78125 42.390625 
Q 38.140625 42.390625 41.71875 45.5625 
Q 45.3125 48.734375 45.3125 54.390625 
Q 45.3125 60.0625 41.71875 63.234375 
Q 38.140625 66.40625 31.78125 66.40625 
Q 25.390625 66.40625 21.84375 63.234375 
Q 18.3125 60.0625 18.3125 54.390625 
z
" id="DejaVuSans-56"/>
     <path d="M 10.6875 12.40625 
L 21 12.40625 
L 21 0 
L 10.6875 0 
z
" id="DejaVuSans-46"/>
     <path d="M 2.984375 54.6875 
L 12.5 54.6875 
L 29.59375 8.796875 
L 46.6875 54.6875 
L 56.203125 54.6875 
L 35.6875 0 
L 23.484375 0 
z
" id="DejaVuSans-118"/>
    </defs>
    <g transform="translate(371.555625 45.84)scale(0.12 -0.12)">
     <use xlink:href="#DejaVuSans-65"/>
     <use x="68.408203" xlink:href="#DejaVuSans-51"/>
     <use x="132.03125" xlink:href="#DejaVuSans-66"/>
     <use x="200.634766" xlink:href="#DejaVuSans-101"/>
     <use x="262.158203" xlink:href="#DejaVuSans-110"/>
     <use x="325.537109" xlink:href="#DejaVuSans-99"/>
     <use x="380.517578" xlink:href="#DejaVuSans-104"/>
     <use x="443.896484" xlink:href="#DejaVuSans-109"/>
     <use x="541.308594" xlink:href="#DejaVuSans-97"/>
     <use x="602.587891" xlink:href="#DejaVuSans-114"/>
     <use x="643.701172" xlink:href="#DejaVuSans-107"/>
     <use x="701.611328" xlink:href="#DejaVuSans-45"/>
     <use x="737.554688" xlink:href="#DejaVuSans-84"/>
     <use x="798.638672" xlink:href="#DejaVuSans-83"/>
     <use x="862.115234" xlink:href="#DejaVuSans-56"/>
     <use x="925.738281" xlink:href="#DejaVuSans-52"/>
     <use x="989.361328" xlink:href="#DejaVuSans-46"/>
     <use x="1021.148438" xlink:href="#DejaVuSans-99"/>
     <use x="1076.128906" xlink:href="#DejaVuSans-115"/>
     <use x="1128.228516" xlink:href="#DejaVuSans-118"/>
    </g>
   </g>
   <g id="legend_1">
    <g id="patch_51">
     <path d="M 115 379.48 
L 174.315625 379.48 
Q 176.315625 379.48 176.315625 377.48 
L 176.315625 363.801875 
Q 176.315625 361.801875 174.315625 361.801875 
L 115 361.801875 
Q 113 361.801875 113 363.801875 
L 113 377.48 
Q 113 379.48 115 379.48 
z
" style="fill:#ffffff;opacity:0.8;stroke:#cccccc;stroke-linejoin:miter;"/>
    </g>
    <g id="line2d_17">
     <path d="M 117 369.900312 
L 137 369.900312 
" style="fill:none;stroke:#1f77b4;stroke-linecap:square;stroke-width:1.5;"/>
    </g>
    <g id="line2d_18"/>
    <g id="text_18">
     <!-- value -->
     <g transform="translate(145 373.400312)scale(0.1 -0.1)">
      <use xlink:href="#DejaVuSans-118"/>
      <use x="59.179688" xlink:href="#DejaVuSans-97"/>
      <use x="120.458984" xlink:href="#DejaVuSans-108"/>
      <use x="148.242188" xlink:href="#DejaVuSans-117"/>
      <use x="211.621094" xlink:href="#DejaVuSans-101"/>
     </g>
    </g>
   </g>
  </g>
 </g>
 <defs>
  <clipPath id="p9c6f28beb6">
   <rect height="332.64" width="669.6" x="108" y="51.84"/>
  </clipPath>
 </defs>
</svg>
