<?xml version="1.0" encoding="utf-8" standalone="no"?>
<!DOCTYPE svg PUBLIC "-//W3C//DTD SVG 1.1//EN"
  "http://www.w3.org/Graphics/SVG/1.1/DTD/svg11.dtd">
<!-- Created with matplotlib (https://matplotlib.org/) -->
<svg height="432pt" version="1.1" viewBox="0 0 864 432" width="864pt" xmlns="http://www.w3.org/2000/svg" xmlns:xlink="http://www.w3.org/1999/xlink">
 <defs>
  <style type="text/css">
*{stroke-linecap:butt;stroke-linejoin:round;}
  </style>
 </defs>
 <g id="figure_1">
  <g id="patch_1">
   <path d="M 0 432 
L 864 432 
L 864 0 
L 0 0 
z
" style="fill:#ffffff;"/>
  </g>
  <g id="axes_1">
   <g id="patch_2">
    <path d="M 108 384.48 
L 777.6 384.48 
L 777.6 51.84 
L 108 51.84 
z
" style="fill:#ffffff;"/>
   </g>
   <g id="patch_3">
    <path clip-path="url(#p610f45391b)" d="M 138.436364 384.48 
L 138.436364 51.84 
L 374.096118 51.84 
L 374.096118 384.48 
z
" style="fill:#0000ff;opacity:0.05;"/>
   </g>
   <g id="patch_4">
    <path clip-path="url(#p610f45391b)" d="M 374.096118 384.48 
L 374.096118 51.84 
L 745.713422 51.84 
L 745.713422 384.48 
z
" style="fill:#ff0000;opacity:0.08;"/>
   </g>
   <g id="patch_5">
    <path clip-path="url(#p610f45391b)" d="M 138.436364 384.48 
L 138.436364 51.84 
L 147.5002 51.84 
L 147.5002 384.48 
z
" style="fill:#008000;opacity:0.04;"/>
   </g>
   <g id="patch_6">
    <path clip-path="url(#p610f45391b)" d="M 374.096118 384.48 
L 374.096118 371.1744 
L 383.159955 371.1744 
L 383.159955 384.48 
z
" style="fill:#ff6600;"/>
   </g>
   <g id="patch_7">
    <path clip-path="url(#p610f45391b)" d="M 156.564037 384.48 
L 156.564037 51.84 
L 165.627874 51.84 
L 165.627874 384.48 
z
" style="fill:#008000;opacity:0.04;"/>
   </g>
   <g id="patch_8">
    <path clip-path="url(#p610f45391b)" d="M 165.627874 384.48 
L 165.627874 371.1744 
L 174.69171 371.1744 
L 174.69171 384.48 
z
" style="fill:#ffe500;"/>
   </g>
   <g id="patch_9">
    <path clip-path="url(#p610f45391b)" d="M 174.69171 384.48 
L 174.69171 51.84 
L 183.755547 51.84 
L 183.755547 384.48 
z
" style="fill:#008000;opacity:0.04;"/>
   </g>
   <g id="patch_10">
    <path clip-path="url(#p610f45391b)" d="M 192.819384 384.48 
L 192.819384 51.84 
L 201.883221 51.84 
L 201.883221 384.48 
z
" style="fill:#008000;opacity:0.04;"/>
   </g>
   <g id="patch_11">
    <path clip-path="url(#p610f45391b)" d="M 210.947057 384.48 
L 210.947057 51.84 
L 220.010894 51.84 
L 220.010894 384.48 
z
" style="fill:#008000;opacity:0.04;"/>
   </g>
   <g id="patch_12">
    <path clip-path="url(#p610f45391b)" d="M 229.074731 384.48 
L 229.074731 51.84 
L 238.138567 51.84 
L 238.138567 384.48 
z
" style="fill:#008000;opacity:0.04;"/>
   </g>
   <g id="patch_13">
    <path clip-path="url(#p610f45391b)" d="M 247.202404 384.48 
L 247.202404 51.84 
L 256.266241 51.84 
L 256.266241 384.48 
z
" style="fill:#008000;opacity:0.04;"/>
   </g>
   <g id="patch_14">
    <path clip-path="url(#p610f45391b)" d="M 265.330077 384.48 
L 265.330077 51.84 
L 274.393914 51.84 
L 274.393914 384.48 
z
" style="fill:#008000;opacity:0.04;"/>
   </g>
   <g id="patch_15">
    <path clip-path="url(#p610f45391b)" d="M 283.457751 384.48 
L 283.457751 51.84 
L 292.521588 51.84 
L 292.521588 384.48 
z
" style="fill:#008000;opacity:0.04;"/>
   </g>
   <g id="patch_16">
    <path clip-path="url(#p610f45391b)" d="M 528.181342 384.48 
L 528.181342 371.1744 
L 537.245178 371.1744 
L 537.245178 384.48 
z
" style="fill:#ff6600;"/>
   </g>
   <g id="patch_17">
    <path clip-path="url(#p610f45391b)" d="M 301.585424 384.48 
L 301.585424 51.84 
L 310.649261 51.84 
L 310.649261 384.48 
z
" style="fill:#008000;opacity:0.04;"/>
   </g>
   <g id="patch_18">
    <path clip-path="url(#p610f45391b)" d="M 319.713098 384.48 
L 319.713098 51.84 
L 328.776934 51.84 
L 328.776934 384.48 
z
" style="fill:#008000;opacity:0.04;"/>
   </g>
   <g id="patch_19">
    <path clip-path="url(#p610f45391b)" d="M 337.840771 384.48 
L 337.840771 51.84 
L 346.904608 51.84 
L 346.904608 384.48 
z
" style="fill:#008000;opacity:0.04;"/>
   </g>
   <g id="patch_20">
    <path clip-path="url(#p610f45391b)" d="M 346.904608 384.48 
L 346.904608 371.1744 
L 355.968444 371.1744 
L 355.968444 384.48 
z
" style="fill:#ffe500;"/>
   </g>
   <g id="patch_21">
    <path clip-path="url(#p610f45391b)" d="M 355.968444 384.48 
L 355.968444 51.84 
L 365.032281 51.84 
L 365.032281 384.48 
z
" style="fill:#008000;opacity:0.04;"/>
   </g>
   <g id="patch_22">
    <path clip-path="url(#p610f45391b)" d="M 600.692035 384.48 
L 600.692035 371.1744 
L 609.755872 371.1744 
L 609.755872 384.48 
z
" style="fill:#ff6600;"/>
   </g>
   <g id="patch_23">
    <path clip-path="url(#p610f45391b)" d="M 374.096118 384.48 
L 374.096118 51.84 
L 383.159955 51.84 
L 383.159955 384.48 
z
" style="fill:#008000;opacity:0.04;"/>
   </g>
   <g id="patch_24">
    <path clip-path="url(#p610f45391b)" d="M 374.096118 371.1744 
L 374.096118 51.84 
L 383.159955 51.84 
L 383.159955 371.1744 
z
" style="fill:#008000;opacity:0.5;"/>
   </g>
   <g id="patch_25">
    <path clip-path="url(#p610f45391b)" d="M 392.223791 384.48 
L 392.223791 51.84 
L 401.287628 51.84 
L 401.287628 384.48 
z
" style="fill:#008000;opacity:0.04;"/>
   </g>
   <g id="patch_26">
    <path clip-path="url(#p610f45391b)" d="M 410.351465 384.48 
L 410.351465 51.84 
L 419.415301 51.84 
L 419.415301 384.48 
z
" style="fill:#008000;opacity:0.04;"/>
   </g>
   <g id="patch_27">
    <path clip-path="url(#p610f45391b)" d="M 428.479138 384.48 
L 428.479138 51.84 
L 437.542975 51.84 
L 437.542975 384.48 
z
" style="fill:#008000;opacity:0.04;"/>
   </g>
   <g id="patch_28">
    <path clip-path="url(#p610f45391b)" d="M 446.606811 384.48 
L 446.606811 51.84 
L 455.670648 51.84 
L 455.670648 384.48 
z
" style="fill:#008000;opacity:0.04;"/>
   </g>
   <g id="patch_29">
    <path clip-path="url(#p610f45391b)" d="M 464.734485 384.48 
L 464.734485 51.84 
L 473.798322 51.84 
L 473.798322 384.48 
z
" style="fill:#008000;opacity:0.04;"/>
   </g>
   <g id="patch_30">
    <path clip-path="url(#p610f45391b)" d="M 700.394239 384.48 
L 700.394239 371.1744 
L 709.458076 371.1744 
L 709.458076 384.48 
z
" style="fill:#ff6600;"/>
   </g>
   <g id="patch_31">
    <path clip-path="url(#p610f45391b)" d="M 482.862158 384.48 
L 482.862158 51.84 
L 491.925995 51.84 
L 491.925995 384.48 
z
" style="fill:#008000;opacity:0.04;"/>
   </g>
   <g id="patch_32">
    <path clip-path="url(#p610f45391b)" d="M 500.989832 384.48 
L 500.989832 51.84 
L 510.053668 51.84 
L 510.053668 384.48 
z
" style="fill:#008000;opacity:0.04;"/>
   </g>
   <g id="patch_33">
    <path clip-path="url(#p610f45391b)" d="M 519.117505 384.48 
L 519.117505 51.84 
L 528.181342 51.84 
L 528.181342 384.48 
z
" style="fill:#008000;opacity:0.04;"/>
   </g>
   <g id="patch_34">
    <path clip-path="url(#p610f45391b)" d="M 528.181342 371.1744 
L 528.181342 51.84 
L 537.245178 51.84 
L 537.245178 371.1744 
z
" style="fill:#008000;opacity:0.5;"/>
   </g>
   <g id="patch_35">
    <path clip-path="url(#p610f45391b)" d="M 537.245178 384.48 
L 537.245178 51.84 
L 546.309015 51.84 
L 546.309015 384.48 
z
" style="fill:#008000;opacity:0.04;"/>
   </g>
   <g id="patch_36">
    <path clip-path="url(#p610f45391b)" d="M 555.372852 384.48 
L 555.372852 51.84 
L 564.436689 51.84 
L 564.436689 384.48 
z
" style="fill:#008000;opacity:0.04;"/>
   </g>
   <g id="patch_37">
    <path clip-path="url(#p610f45391b)" d="M 573.500525 384.48 
L 573.500525 51.84 
L 582.564362 51.84 
L 582.564362 384.48 
z
" style="fill:#008000;opacity:0.04;"/>
   </g>
   <g id="patch_38">
    <path clip-path="url(#p610f45391b)" d="M 591.628199 384.48 
L 591.628199 51.84 
L 600.692035 51.84 
L 600.692035 384.48 
z
" style="fill:#008000;opacity:0.04;"/>
   </g>
   <g id="patch_39">
    <path clip-path="url(#p610f45391b)" d="M 600.692035 371.1744 
L 600.692035 51.84 
L 609.755872 51.84 
L 609.755872 371.1744 
z
" style="fill:#008000;opacity:0.5;"/>
   </g>
   <g id="patch_40">
    <path clip-path="url(#p610f45391b)" d="M 609.755872 384.48 
L 609.755872 51.84 
L 618.819709 51.84 
L 618.819709 384.48 
z
" style="fill:#008000;opacity:0.04;"/>
   </g>
   <g id="patch_41">
    <path clip-path="url(#p610f45391b)" d="M 627.883545 384.48 
L 627.883545 51.84 
L 636.947382 51.84 
L 636.947382 384.48 
z
" style="fill:#008000;opacity:0.04;"/>
   </g>
   <g id="patch_42">
    <path clip-path="url(#p610f45391b)" d="M 646.011219 384.48 
L 646.011219 51.84 
L 655.075055 51.84 
L 655.075055 384.48 
z
" style="fill:#008000;opacity:0.04;"/>
   </g>
   <g id="patch_43">
    <path clip-path="url(#p610f45391b)" d="M 664.138892 384.48 
L 664.138892 51.84 
L 673.202729 51.84 
L 673.202729 384.48 
z
" style="fill:#008000;opacity:0.04;"/>
   </g>
   <g id="patch_44">
    <path clip-path="url(#p610f45391b)" d="M 682.266566 384.48 
L 682.266566 51.84 
L 691.330402 51.84 
L 691.330402 384.48 
z
" style="fill:#008000;opacity:0.04;"/>
   </g>
   <g id="patch_45">
    <path clip-path="url(#p610f45391b)" d="M 700.394239 384.48 
L 700.394239 51.84 
L 709.458076 51.84 
L 709.458076 384.48 
z
" style="fill:#008000;opacity:0.04;"/>
   </g>
   <g id="patch_46">
    <path clip-path="url(#p610f45391b)" d="M 700.394239 371.1744 
L 700.394239 51.84 
L 709.458076 51.84 
L 709.458076 371.1744 
z
" style="fill:#008000;opacity:0.5;"/>
   </g>
   <g id="patch_47">
    <path clip-path="url(#p610f45391b)" d="M 718.521912 384.48 
L 718.521912 51.84 
L 727.585749 51.84 
L 727.585749 384.48 
z
" style="fill:#008000;opacity:0.04;"/>
   </g>
   <g id="patch_48">
    <path clip-path="url(#p610f45391b)" d="M 736.649586 384.48 
L 736.649586 51.84 
L 745.713422 51.84 
L 745.713422 384.48 
z
" style="fill:#008000;opacity:0.04;"/>
   </g>
   <g id="matplotlib.axis_1">
    <g id="xtick_1">
     <g id="line2d_1">
      <defs>
       <path d="M 0 0 
L 0 3.5 
" id="m317d693b43" style="stroke:#000000;stroke-width:0.8;"/>
      </defs>
      <g>
       <use style="stroke:#000000;stroke-width:0.8;" x="138.436364" xlink:href="#m317d693b43" y="384.48"/>
      </g>
     </g>
     <g id="text_1">
      <!-- 0 -->
      <defs>
       <path d="M 31.78125 66.40625 
Q 24.171875 66.40625 20.328125 58.90625 
Q 16.5 51.421875 16.5 36.375 
Q 16.5 21.390625 20.328125 13.890625 
Q 24.171875 6.390625 31.78125 6.390625 
Q 39.453125 6.390625 43.28125 13.890625 
Q 47.125 21.390625 47.125 36.375 
Q 47.125 51.421875 43.28125 58.90625 
Q 39.453125 66.40625 31.78125 66.40625 
z
M 31.78125 74.21875 
Q 44.046875 74.21875 50.515625 64.515625 
Q 56.984375 54.828125 56.984375 36.375 
Q 56.984375 17.96875 50.515625 8.265625 
Q 44.046875 -1.421875 31.78125 -1.421875 
Q 19.53125 -1.421875 13.0625 8.265625 
Q 6.59375 17.96875 6.59375 36.375 
Q 6.59375 54.828125 13.0625 64.515625 
Q 19.53125 74.21875 31.78125 74.21875 
z
" id="DejaVuSans-48"/>
      </defs>
      <g transform="translate(135.255114 399.078438)scale(0.1 -0.1)">
       <use xlink:href="#DejaVuSans-48"/>
      </g>
     </g>
    </g>
    <g id="xtick_2">
     <g id="line2d_2">
      <g>
       <use style="stroke:#000000;stroke-width:0.8;" x="229.074731" xlink:href="#m317d693b43" y="384.48"/>
      </g>
     </g>
     <g id="text_2">
      <!-- 250 -->
      <defs>
       <path d="M 19.1875 8.296875 
L 53.609375 8.296875 
L 53.609375 0 
L 7.328125 0 
L 7.328125 8.296875 
Q 12.9375 14.109375 22.625 23.890625 
Q 32.328125 33.6875 34.8125 36.53125 
Q 39.546875 41.84375 41.421875 45.53125 
Q 43.3125 49.21875 43.3125 52.78125 
Q 43.3125 58.59375 39.234375 62.25 
Q 35.15625 65.921875 28.609375 65.921875 
Q 23.96875 65.921875 18.8125 64.3125 
Q 13.671875 62.703125 7.8125 59.421875 
L 7.8125 69.390625 
Q 13.765625 71.78125 18.9375 73 
Q 24.125 74.21875 28.421875 74.21875 
Q 39.75 74.21875 46.484375 68.546875 
Q 53.21875 62.890625 53.21875 53.421875 
Q 53.21875 48.921875 51.53125 44.890625 
Q 49.859375 40.875 45.40625 35.40625 
Q 44.1875 33.984375 37.640625 27.21875 
Q 31.109375 20.453125 19.1875 8.296875 
z
" id="DejaVuSans-50"/>
       <path d="M 10.796875 72.90625 
L 49.515625 72.90625 
L 49.515625 64.59375 
L 19.828125 64.59375 
L 19.828125 46.734375 
Q 21.96875 47.46875 24.109375 47.828125 
Q 26.265625 48.1875 28.421875 48.1875 
Q 40.625 48.1875 47.75 41.5 
Q 54.890625 34.8125 54.890625 23.390625 
Q 54.890625 11.625 47.5625 5.09375 
Q 40.234375 -1.421875 26.90625 -1.421875 
Q 22.3125 -1.421875 17.546875 -0.640625 
Q 12.796875 0.140625 7.71875 1.703125 
L 7.71875 11.625 
Q 12.109375 9.234375 16.796875 8.0625 
Q 21.484375 6.890625 26.703125 6.890625 
Q 35.15625 6.890625 40.078125 11.328125 
Q 45.015625 15.765625 45.015625 23.390625 
Q 45.015625 31 40.078125 35.4375 
Q 35.15625 39.890625 26.703125 39.890625 
Q 22.75 39.890625 18.8125 39.015625 
Q 14.890625 38.140625 10.796875 36.28125 
z
" id="DejaVuSans-53"/>
      </defs>
      <g transform="translate(219.530981 399.078438)scale(0.1 -0.1)">
       <use xlink:href="#DejaVuSans-50"/>
       <use x="63.623047" xlink:href="#DejaVuSans-53"/>
       <use x="127.246094" xlink:href="#DejaVuSans-48"/>
      </g>
     </g>
    </g>
    <g id="xtick_3">
     <g id="line2d_3">
      <g>
       <use style="stroke:#000000;stroke-width:0.8;" x="319.713098" xlink:href="#m317d693b43" y="384.48"/>
      </g>
     </g>
     <g id="text_3">
      <!-- 500 -->
      <g transform="translate(310.169348 399.078438)scale(0.1 -0.1)">
       <use xlink:href="#DejaVuSans-53"/>
       <use x="63.623047" xlink:href="#DejaVuSans-48"/>
       <use x="127.246094" xlink:href="#DejaVuSans-48"/>
      </g>
     </g>
    </g>
    <g id="xtick_4">
     <g id="line2d_4">
      <g>
       <use style="stroke:#000000;stroke-width:0.8;" x="410.351465" xlink:href="#m317d693b43" y="384.48"/>
      </g>
     </g>
     <g id="text_4">
      <!-- 750 -->
      <defs>
       <path d="M 8.203125 72.90625 
L 55.078125 72.90625 
L 55.078125 68.703125 
L 28.609375 0 
L 18.3125 0 
L 43.21875 64.59375 
L 8.203125 64.59375 
z
" id="DejaVuSans-55"/>
      </defs>
      <g transform="translate(400.807715 399.078438)scale(0.1 -0.1)">
       <use xlink:href="#DejaVuSans-55"/>
       <use x="63.623047" xlink:href="#DejaVuSans-53"/>
       <use x="127.246094" xlink:href="#DejaVuSans-48"/>
      </g>
     </g>
    </g>
    <g id="xtick_5">
     <g id="line2d_5">
      <g>
       <use style="stroke:#000000;stroke-width:0.8;" x="500.989832" xlink:href="#m317d693b43" y="384.48"/>
      </g>
     </g>
     <g id="text_5">
      <!-- 1000 -->
      <defs>
       <path d="M 12.40625 8.296875 
L 28.515625 8.296875 
L 28.515625 63.921875 
L 10.984375 60.40625 
L 10.984375 69.390625 
L 28.421875 72.90625 
L 38.28125 72.90625 
L 38.28125 8.296875 
L 54.390625 8.296875 
L 54.390625 0 
L 12.40625 0 
z
" id="DejaVuSans-49"/>
      </defs>
      <g transform="translate(488.264832 399.078438)scale(0.1 -0.1)">
       <use xlink:href="#DejaVuSans-49"/>
       <use x="63.623047" xlink:href="#DejaVuSans-48"/>
       <use x="127.246094" xlink:href="#DejaVuSans-48"/>
       <use x="190.869141" xlink:href="#DejaVuSans-48"/>
      </g>
     </g>
    </g>
    <g id="xtick_6">
     <g id="line2d_6">
      <g>
       <use style="stroke:#000000;stroke-width:0.8;" x="591.628199" xlink:href="#m317d693b43" y="384.48"/>
      </g>
     </g>
     <g id="text_6">
      <!-- 1250 -->
      <g transform="translate(578.903199 399.078438)scale(0.1 -0.1)">
       <use xlink:href="#DejaVuSans-49"/>
       <use x="63.623047" xlink:href="#DejaVuSans-50"/>
       <use x="127.246094" xlink:href="#DejaVuSans-53"/>
       <use x="190.869141" xlink:href="#DejaVuSans-48"/>
      </g>
     </g>
    </g>
    <g id="xtick_7">
     <g id="line2d_7">
      <g>
       <use style="stroke:#000000;stroke-width:0.8;" x="682.266566" xlink:href="#m317d693b43" y="384.48"/>
      </g>
     </g>
     <g id="text_7">
      <!-- 1500 -->
      <g transform="translate(669.541566 399.078438)scale(0.1 -0.1)">
       <use xlink:href="#DejaVuSans-49"/>
       <use x="63.623047" xlink:href="#DejaVuSans-53"/>
       <use x="127.246094" xlink:href="#DejaVuSans-48"/>
       <use x="190.869141" xlink:href="#DejaVuSans-48"/>
      </g>
     </g>
    </g>
    <g id="xtick_8">
     <g id="line2d_8">
      <g>
       <use style="stroke:#000000;stroke-width:0.8;" x="772.904933" xlink:href="#m317d693b43" y="384.48"/>
      </g>
     </g>
     <g id="text_8">
      <!-- 1750 -->
      <g transform="translate(760.179933 399.078438)scale(0.1 -0.1)">
       <use xlink:href="#DejaVuSans-49"/>
       <use x="63.623047" xlink:href="#DejaVuSans-55"/>
       <use x="127.246094" xlink:href="#DejaVuSans-53"/>
       <use x="190.869141" xlink:href="#DejaVuSans-48"/>
      </g>
     </g>
    </g>
    <g id="text_9">
     <!-- Timestamp -->
     <defs>
      <path d="M -0.296875 72.90625 
L 61.375 72.90625 
L 61.375 64.59375 
L 35.5 64.59375 
L 35.5 0 
L 25.59375 0 
L 25.59375 64.59375 
L -0.296875 64.59375 
z
" id="DejaVuSans-84"/>
      <path d="M 9.421875 54.6875 
L 18.40625 54.6875 
L 18.40625 0 
L 9.421875 0 
z
M 9.421875 75.984375 
L 18.40625 75.984375 
L 18.40625 64.59375 
L 9.421875 64.59375 
z
" id="DejaVuSans-105"/>
      <path d="M 52 44.1875 
Q 55.375 50.25 60.0625 53.125 
Q 64.75 56 71.09375 56 
Q 79.640625 56 84.28125 50.015625 
Q 88.921875 44.046875 88.921875 33.015625 
L 88.921875 0 
L 79.890625 0 
L 79.890625 32.71875 
Q 79.890625 40.578125 77.09375 44.375 
Q 74.3125 48.1875 68.609375 48.1875 
Q 61.625 48.1875 57.5625 43.546875 
Q 53.515625 38.921875 53.515625 30.90625 
L 53.515625 0 
L 44.484375 0 
L 44.484375 32.71875 
Q 44.484375 40.625 41.703125 44.40625 
Q 38.921875 48.1875 33.109375 48.1875 
Q 26.21875 48.1875 22.15625 43.53125 
Q 18.109375 38.875 18.109375 30.90625 
L 18.109375 0 
L 9.078125 0 
L 9.078125 54.6875 
L 18.109375 54.6875 
L 18.109375 46.1875 
Q 21.1875 51.21875 25.484375 53.609375 
Q 29.78125 56 35.6875 56 
Q 41.65625 56 45.828125 52.96875 
Q 50 49.953125 52 44.1875 
z
" id="DejaVuSans-109"/>
      <path d="M 56.203125 29.59375 
L 56.203125 25.203125 
L 14.890625 25.203125 
Q 15.484375 15.921875 20.484375 11.0625 
Q 25.484375 6.203125 34.421875 6.203125 
Q 39.59375 6.203125 44.453125 7.46875 
Q 49.3125 8.734375 54.109375 11.28125 
L 54.109375 2.78125 
Q 49.265625 0.734375 44.1875 -0.34375 
Q 39.109375 -1.421875 33.890625 -1.421875 
Q 20.796875 -1.421875 13.15625 6.1875 
Q 5.515625 13.8125 5.515625 26.8125 
Q 5.515625 40.234375 12.765625 48.109375 
Q 20.015625 56 32.328125 56 
Q 43.359375 56 49.78125 48.890625 
Q 56.203125 41.796875 56.203125 29.59375 
z
M 47.21875 32.234375 
Q 47.125 39.59375 43.09375 43.984375 
Q 39.0625 48.390625 32.421875 48.390625 
Q 24.90625 48.390625 20.390625 44.140625 
Q 15.875 39.890625 15.1875 32.171875 
z
" id="DejaVuSans-101"/>
      <path d="M 44.28125 53.078125 
L 44.28125 44.578125 
Q 40.484375 46.53125 36.375 47.5 
Q 32.28125 48.484375 27.875 48.484375 
Q 21.1875 48.484375 17.84375 46.4375 
Q 14.5 44.390625 14.5 40.28125 
Q 14.5 37.15625 16.890625 35.375 
Q 19.28125 33.59375 26.515625 31.984375 
L 29.59375 31.296875 
Q 39.15625 29.25 43.1875 25.515625 
Q 47.21875 21.78125 47.21875 15.09375 
Q 47.21875 7.46875 41.1875 3.015625 
Q 35.15625 -1.421875 24.609375 -1.421875 
Q 20.21875 -1.421875 15.453125 -0.5625 
Q 10.6875 0.296875 5.421875 2 
L 5.421875 11.28125 
Q 10.40625 8.6875 15.234375 7.390625 
Q 20.0625 6.109375 24.8125 6.109375 
Q 31.15625 6.109375 34.5625 8.28125 
Q 37.984375 10.453125 37.984375 14.40625 
Q 37.984375 18.0625 35.515625 20.015625 
Q 33.0625 21.96875 24.703125 23.78125 
L 21.578125 24.515625 
Q 13.234375 26.265625 9.515625 29.90625 
Q 5.8125 33.546875 5.8125 39.890625 
Q 5.8125 47.609375 11.28125 51.796875 
Q 16.75 56 26.8125 56 
Q 31.78125 56 36.171875 55.265625 
Q 40.578125 54.546875 44.28125 53.078125 
z
" id="DejaVuSans-115"/>
      <path d="M 18.3125 70.21875 
L 18.3125 54.6875 
L 36.8125 54.6875 
L 36.8125 47.703125 
L 18.3125 47.703125 
L 18.3125 18.015625 
Q 18.3125 11.328125 20.140625 9.421875 
Q 21.96875 7.515625 27.59375 7.515625 
L 36.8125 7.515625 
L 36.8125 0 
L 27.59375 0 
Q 17.1875 0 13.234375 3.875 
Q 9.28125 7.765625 9.28125 18.015625 
L 9.28125 47.703125 
L 2.6875 47.703125 
L 2.6875 54.6875 
L 9.28125 54.6875 
L 9.28125 70.21875 
z
" id="DejaVuSans-116"/>
      <path d="M 34.28125 27.484375 
Q 23.390625 27.484375 19.1875 25 
Q 14.984375 22.515625 14.984375 16.5 
Q 14.984375 11.71875 18.140625 8.90625 
Q 21.296875 6.109375 26.703125 6.109375 
Q 34.1875 6.109375 38.703125 11.40625 
Q 43.21875 16.703125 43.21875 25.484375 
L 43.21875 27.484375 
z
M 52.203125 31.203125 
L 52.203125 0 
L 43.21875 0 
L 43.21875 8.296875 
Q 40.140625 3.328125 35.546875 0.953125 
Q 30.953125 -1.421875 24.3125 -1.421875 
Q 15.921875 -1.421875 10.953125 3.296875 
Q 6 8.015625 6 15.921875 
Q 6 25.140625 12.171875 29.828125 
Q 18.359375 34.515625 30.609375 34.515625 
L 43.21875 34.515625 
L 43.21875 35.40625 
Q 43.21875 41.609375 39.140625 45 
Q 35.0625 48.390625 27.6875 48.390625 
Q 23 48.390625 18.546875 47.265625 
Q 14.109375 46.140625 10.015625 43.890625 
L 10.015625 52.203125 
Q 14.9375 54.109375 19.578125 55.046875 
Q 24.21875 56 28.609375 56 
Q 40.484375 56 46.34375 49.84375 
Q 52.203125 43.703125 52.203125 31.203125 
z
" id="DejaVuSans-97"/>
      <path d="M 18.109375 8.203125 
L 18.109375 -20.796875 
L 9.078125 -20.796875 
L 9.078125 54.6875 
L 18.109375 54.6875 
L 18.109375 46.390625 
Q 20.953125 51.265625 25.265625 53.625 
Q 29.59375 56 35.59375 56 
Q 45.5625 56 51.78125 48.09375 
Q 58.015625 40.1875 58.015625 27.296875 
Q 58.015625 14.40625 51.78125 6.484375 
Q 45.5625 -1.421875 35.59375 -1.421875 
Q 29.59375 -1.421875 25.265625 0.953125 
Q 20.953125 3.328125 18.109375 8.203125 
z
M 48.6875 27.296875 
Q 48.6875 37.203125 44.609375 42.84375 
Q 40.53125 48.484375 33.40625 48.484375 
Q 26.265625 48.484375 22.1875 42.84375 
Q 18.109375 37.203125 18.109375 27.296875 
Q 18.109375 17.390625 22.1875 11.75 
Q 26.265625 6.109375 33.40625 6.109375 
Q 40.53125 6.109375 44.609375 11.75 
Q 48.6875 17.390625 48.6875 27.296875 
z
" id="DejaVuSans-112"/>
     </defs>
     <g transform="translate(414.739062 412.756563)scale(0.1 -0.1)">
      <use xlink:href="#DejaVuSans-84"/>
      <use x="61.037109" xlink:href="#DejaVuSans-105"/>
      <use x="88.820312" xlink:href="#DejaVuSans-109"/>
      <use x="186.232422" xlink:href="#DejaVuSans-101"/>
      <use x="247.755859" xlink:href="#DejaVuSans-115"/>
      <use x="299.855469" xlink:href="#DejaVuSans-116"/>
      <use x="339.064453" xlink:href="#DejaVuSans-97"/>
      <use x="400.34375" xlink:href="#DejaVuSans-109"/>
      <use x="497.755859" xlink:href="#DejaVuSans-112"/>
     </g>
    </g>
   </g>
   <g id="matplotlib.axis_2">
    <g id="ytick_1">
     <g id="line2d_9">
      <defs>
       <path d="M 0 0 
L -3.5 0 
" id="m53f85f834f" style="stroke:#000000;stroke-width:0.8;"/>
      </defs>
      <g>
       <use style="stroke:#000000;stroke-width:0.8;" x="108" xlink:href="#m53f85f834f" y="382.448153"/>
      </g>
     </g>
     <g id="text_10">
      <!-- −6000 -->
      <defs>
       <path d="M 10.59375 35.5 
L 73.1875 35.5 
L 73.1875 27.203125 
L 10.59375 27.203125 
z
" id="DejaVuSans-8722"/>
       <path d="M 33.015625 40.375 
Q 26.375 40.375 22.484375 35.828125 
Q 18.609375 31.296875 18.609375 23.390625 
Q 18.609375 15.53125 22.484375 10.953125 
Q 26.375 6.390625 33.015625 6.390625 
Q 39.65625 6.390625 43.53125 10.953125 
Q 47.40625 15.53125 47.40625 23.390625 
Q 47.40625 31.296875 43.53125 35.828125 
Q 39.65625 40.375 33.015625 40.375 
z
M 52.59375 71.296875 
L 52.59375 62.3125 
Q 48.875 64.0625 45.09375 64.984375 
Q 41.3125 65.921875 37.59375 65.921875 
Q 27.828125 65.921875 22.671875 59.328125 
Q 17.53125 52.734375 16.796875 39.40625 
Q 19.671875 43.65625 24.015625 45.921875 
Q 28.375 48.1875 33.59375 48.1875 
Q 44.578125 48.1875 50.953125 41.515625 
Q 57.328125 34.859375 57.328125 23.390625 
Q 57.328125 12.15625 50.6875 5.359375 
Q 44.046875 -1.421875 33.015625 -1.421875 
Q 20.359375 -1.421875 13.671875 8.265625 
Q 6.984375 17.96875 6.984375 36.375 
Q 6.984375 53.65625 15.1875 63.9375 
Q 23.390625 74.21875 37.203125 74.21875 
Q 40.921875 74.21875 44.703125 73.484375 
Q 48.484375 72.75 52.59375 71.296875 
z
" id="DejaVuSans-54"/>
      </defs>
      <g transform="translate(67.170312 386.247372)scale(0.1 -0.1)">
       <use xlink:href="#DejaVuSans-8722"/>
       <use x="83.789062" xlink:href="#DejaVuSans-54"/>
       <use x="147.412109" xlink:href="#DejaVuSans-48"/>
       <use x="211.035156" xlink:href="#DejaVuSans-48"/>
       <use x="274.658203" xlink:href="#DejaVuSans-48"/>
      </g>
     </g>
    </g>
    <g id="ytick_2">
     <g id="line2d_10">
      <g>
       <use style="stroke:#000000;stroke-width:0.8;" x="108" xlink:href="#m53f85f834f" y="334.355748"/>
      </g>
     </g>
     <g id="text_11">
      <!-- −5000 -->
      <g transform="translate(67.170312 338.154967)scale(0.1 -0.1)">
       <use xlink:href="#DejaVuSans-8722"/>
       <use x="83.789062" xlink:href="#DejaVuSans-53"/>
       <use x="147.412109" xlink:href="#DejaVuSans-48"/>
       <use x="211.035156" xlink:href="#DejaVuSans-48"/>
       <use x="274.658203" xlink:href="#DejaVuSans-48"/>
      </g>
     </g>
    </g>
    <g id="ytick_3">
     <g id="line2d_11">
      <g>
       <use style="stroke:#000000;stroke-width:0.8;" x="108" xlink:href="#m53f85f834f" y="286.263343"/>
      </g>
     </g>
     <g id="text_12">
      <!-- −4000 -->
      <defs>
       <path d="M 37.796875 64.3125 
L 12.890625 25.390625 
L 37.796875 25.390625 
z
M 35.203125 72.90625 
L 47.609375 72.90625 
L 47.609375 25.390625 
L 58.015625 25.390625 
L 58.015625 17.1875 
L 47.609375 17.1875 
L 47.609375 0 
L 37.796875 0 
L 37.796875 17.1875 
L 4.890625 17.1875 
L 4.890625 26.703125 
z
" id="DejaVuSans-52"/>
      </defs>
      <g transform="translate(67.170312 290.062562)scale(0.1 -0.1)">
       <use xlink:href="#DejaVuSans-8722"/>
       <use x="83.789062" xlink:href="#DejaVuSans-52"/>
       <use x="147.412109" xlink:href="#DejaVuSans-48"/>
       <use x="211.035156" xlink:href="#DejaVuSans-48"/>
       <use x="274.658203" xlink:href="#DejaVuSans-48"/>
      </g>
     </g>
    </g>
    <g id="ytick_4">
     <g id="line2d_12">
      <g>
       <use style="stroke:#000000;stroke-width:0.8;" x="108" xlink:href="#m53f85f834f" y="238.170938"/>
      </g>
     </g>
     <g id="text_13">
      <!-- −3000 -->
      <defs>
       <path d="M 40.578125 39.3125 
Q 47.65625 37.796875 51.625 33 
Q 55.609375 28.21875 55.609375 21.1875 
Q 55.609375 10.40625 48.1875 4.484375 
Q 40.765625 -1.421875 27.09375 -1.421875 
Q 22.515625 -1.421875 17.65625 -0.515625 
Q 12.796875 0.390625 7.625 2.203125 
L 7.625 11.71875 
Q 11.71875 9.328125 16.59375 8.109375 
Q 21.484375 6.890625 26.8125 6.890625 
Q 36.078125 6.890625 40.9375 10.546875 
Q 45.796875 14.203125 45.796875 21.1875 
Q 45.796875 27.640625 41.28125 31.265625 
Q 36.765625 34.90625 28.71875 34.90625 
L 20.21875 34.90625 
L 20.21875 43.015625 
L 29.109375 43.015625 
Q 36.375 43.015625 40.234375 45.921875 
Q 44.09375 48.828125 44.09375 54.296875 
Q 44.09375 59.90625 40.109375 62.90625 
Q 36.140625 65.921875 28.71875 65.921875 
Q 24.65625 65.921875 20.015625 65.03125 
Q 15.375 64.15625 9.8125 62.3125 
L 9.8125 71.09375 
Q 15.4375 72.65625 20.34375 73.4375 
Q 25.25 74.21875 29.59375 74.21875 
Q 40.828125 74.21875 47.359375 69.109375 
Q 53.90625 64.015625 53.90625 55.328125 
Q 53.90625 49.265625 50.4375 45.09375 
Q 46.96875 40.921875 40.578125 39.3125 
z
" id="DejaVuSans-51"/>
      </defs>
      <g transform="translate(67.170312 241.970157)scale(0.1 -0.1)">
       <use xlink:href="#DejaVuSans-8722"/>
       <use x="83.789062" xlink:href="#DejaVuSans-51"/>
       <use x="147.412109" xlink:href="#DejaVuSans-48"/>
       <use x="211.035156" xlink:href="#DejaVuSans-48"/>
       <use x="274.658203" xlink:href="#DejaVuSans-48"/>
      </g>
     </g>
    </g>
    <g id="ytick_5">
     <g id="line2d_13">
      <g>
       <use style="stroke:#000000;stroke-width:0.8;" x="108" xlink:href="#m53f85f834f" y="190.078533"/>
      </g>
     </g>
     <g id="text_14">
      <!-- −2000 -->
      <g transform="translate(67.170312 193.877752)scale(0.1 -0.1)">
       <use xlink:href="#DejaVuSans-8722"/>
       <use x="83.789062" xlink:href="#DejaVuSans-50"/>
       <use x="147.412109" xlink:href="#DejaVuSans-48"/>
       <use x="211.035156" xlink:href="#DejaVuSans-48"/>
       <use x="274.658203" xlink:href="#DejaVuSans-48"/>
      </g>
     </g>
    </g>
    <g id="ytick_6">
     <g id="line2d_14">
      <g>
       <use style="stroke:#000000;stroke-width:0.8;" x="108" xlink:href="#m53f85f834f" y="141.986129"/>
      </g>
     </g>
     <g id="text_15">
      <!-- −1000 -->
      <g transform="translate(67.170312 145.785347)scale(0.1 -0.1)">
       <use xlink:href="#DejaVuSans-8722"/>
       <use x="83.789062" xlink:href="#DejaVuSans-49"/>
       <use x="147.412109" xlink:href="#DejaVuSans-48"/>
       <use x="211.035156" xlink:href="#DejaVuSans-48"/>
       <use x="274.658203" xlink:href="#DejaVuSans-48"/>
      </g>
     </g>
    </g>
    <g id="ytick_7">
     <g id="line2d_15">
      <g>
       <use style="stroke:#000000;stroke-width:0.8;" x="108" xlink:href="#m53f85f834f" y="93.893724"/>
      </g>
     </g>
     <g id="text_16">
      <!-- 0 -->
      <g transform="translate(94.6375 97.692942)scale(0.1 -0.1)">
       <use xlink:href="#DejaVuSans-48"/>
      </g>
     </g>
    </g>
    <g id="text_17">
     <!-- Value -->
     <defs>
      <path d="M 28.609375 0 
L 0.78125 72.90625 
L 11.078125 72.90625 
L 34.1875 11.53125 
L 57.328125 72.90625 
L 67.578125 72.90625 
L 39.796875 0 
z
" id="DejaVuSans-86"/>
      <path d="M 9.421875 75.984375 
L 18.40625 75.984375 
L 18.40625 0 
L 9.421875 0 
z
" id="DejaVuSans-108"/>
      <path d="M 8.5 21.578125 
L 8.5 54.6875 
L 17.484375 54.6875 
L 17.484375 21.921875 
Q 17.484375 14.15625 20.5 10.265625 
Q 23.53125 6.390625 29.59375 6.390625 
Q 36.859375 6.390625 41.078125 11.03125 
Q 45.3125 15.671875 45.3125 23.6875 
L 45.3125 54.6875 
L 54.296875 54.6875 
L 54.296875 0 
L 45.3125 0 
L 45.3125 8.40625 
Q 42.046875 3.421875 37.71875 1 
Q 33.40625 -1.421875 27.6875 -1.421875 
Q 18.265625 -1.421875 13.375 4.4375 
Q 8.5 10.296875 8.5 21.578125 
z
M 31.109375 56 
z
" id="DejaVuSans-117"/>
     </defs>
     <g transform="translate(61.090625 232.273281)rotate(-90)scale(0.1 -0.1)">
      <use xlink:href="#DejaVuSans-86"/>
      <use x="68.298828" xlink:href="#DejaVuSans-97"/>
      <use x="129.578125" xlink:href="#DejaVuSans-108"/>
      <use x="157.361328" xlink:href="#DejaVuSans-117"/>
      <use x="220.740234" xlink:href="#DejaVuSans-101"/>
     </g>
    </g>
   </g>
   <g id="line2d_16">
    <path clip-path="url(#p610f45391b)" d="M 138.436364 93.808972 
L 139.161471 71.621538 
L 139.524024 66.96 
L 139.886578 69.548357 
L 140.611684 83.334461 
L 140.974238 94.392221 
L 141.699345 105.99983 
L 142.061898 102.654435 
L 142.424452 100.634404 
L 142.787005 94.851984 
L 143.149559 86.702558 
L 143.512112 82.870007 
L 143.874666 80.35623 
L 144.599773 93.011036 
L 144.962326 102.568461 
L 145.687433 115.970137 
L 146.049986 117.990932 
L 146.41254 113.469183 
L 146.775093 105.425562 
L 147.5002 78.190781 
L 147.862754 70.786057 
L 148.225307 68.330148 
L 148.587861 68.050134 
L 148.950414 73.719236 
L 149.675521 92.533584 
L 150.038075 101.017182 
L 150.400628 103.887941 
L 150.763182 105.132399 
L 151.488288 94.069741 
L 151.850842 86.806111 
L 152.213395 83.718632 
L 152.575949 79.411557 
L 153.663609 101.572877 
L 154.388716 118.715326 
L 154.75127 119.417942 
L 155.113823 113.910314 
L 155.476377 106.17189 
L 156.564037 71.538383 
L 156.926591 69.277617 
L 157.289144 71.013206 
L 158.014251 84.556844 
L 158.376804 94.775999 
L 159.101911 107.782532 
L 159.464465 105.915443 
L 159.827018 103.191747 
L 160.189572 98.191659 
L 160.914679 85.979462 
L 161.277232 86.034702 
L 161.639786 91.838913 
L 162.002339 99.950983 
L 162.364893 112.160484 
L 163.089999 124.860482 
L 163.452553 125.39155 
L 164.17766 115.36257 
L 165.26532 80.242109 
L 165.627874 75.764935 
L 165.990427 78.353295 
L 166.352981 84.155572 
L 167.440641 111.635228 
L 167.803195 116.118086 
L 168.165748 115.103315 
L 168.528301 111.735231 
L 169.615962 96.171078 
L 169.978515 95.573404 
L 170.341069 98.849204 
L 171.066176 117.175152 
L 171.791283 134.866457 
L 172.153836 136.579539 
L 172.51639 131.745513 
L 172.878943 123.401336 
L 173.241497 109.248742 
L 173.966603 91.174504 
L 174.329157 87.813167 
L 174.69171 85.498549 
L 175.416817 101.621276 
L 176.141924 121.794726 
L 176.504478 125.323228 
L 176.867031 126.272994 
L 177.592138 115.322858 
L 178.317245 103.078933 
L 178.679799 105.254202 
L 179.042352 110.160472 
L 180.492566 141.654864 
L 180.855119 143.314732 
L 181.217673 139.999214 
L 182.667887 95.882007 
L 183.03044 91.443565 
L 183.392994 93.408974 
L 183.755547 99.81723 
L 184.843208 126.528567 
L 185.205761 132.014197 
L 185.568314 130.608197 
L 185.930868 124.975317 
L 186.293421 121.117624 
L 186.655975 114.996019 
L 187.018528 106.243325 
L 187.381082 107.682887 
L 187.743635 112.044374 
L 188.106189 119.957781 
L 188.831296 138.730893 
L 189.193849 145.328489 
L 189.556403 147.103865 
L 189.918956 140.04204 
L 191.006616 110.819237 
L 191.36917 98.146871 
L 191.731723 92.962173 
L 192.094277 95.324407 
L 192.45683 100.662289 
L 193.544491 128.042943 
L 193.907044 130.336974 
L 194.269598 129.061971 
L 194.632151 126.225469 
L 195.357258 112.411631 
L 195.719812 106.109093 
L 196.082365 108.497711 
L 196.807472 120.279615 
L 197.532579 137.418509 
L 197.895132 144.149044 
L 198.257686 143.849614 
L 198.620239 140.294023 
L 199.345346 119.13976 
L 199.7079 104.880218 
L 200.070453 97.57269 
L 200.433007 93.738243 
L 200.79556 93.22607 
L 201.158114 98.082173 
L 201.883221 117.920338 
L 202.608327 129.799637 
L 202.970881 128.207903 
L 203.695988 117.207434 
L 204.058541 109.054671 
L 204.421095 105.25097 
L 204.783648 106.72493 
L 205.146202 110.542759 
L 205.508755 116.145583 
L 205.871309 128.305291 
L 206.596416 141.453935 
L 206.958969 140.81229 
L 207.321523 137.610232 
L 207.684076 128.682756 
L 208.409183 105.419871 
L 208.771736 94.44892 
L 209.13429 93.986669 
L 209.496843 91.589509 
L 209.859397 97.551894 
L 210.22195 105.907156 
L 210.584504 118.497266 
L 211.309611 128.465486 
L 211.672164 127.534507 
L 212.034718 123.276907 
L 212.759825 110.02434 
L 213.122378 105.03847 
L 213.484932 106.247378 
L 214.210038 116.119284 
L 214.572592 129.560073 
L 215.297699 142.737802 
L 215.660252 143.061273 
L 216.022806 140.514268 
L 216.747913 118.843736 
L 217.47302 99.121477 
L 217.835573 91.037802 
L 218.56068 99.732011 
L 219.64834 128.562487 
L 220.010894 132.723921 
L 220.373447 133.353343 
L 221.823661 111.704147 
L 222.186215 112.311868 
L 222.548768 115.81019 
L 223.273875 132.5917 
L 223.636429 143.771424 
L 223.998982 150.138634 
L 224.361536 150.677185 
L 224.724089 147.426921 
L 225.449196 125.531932 
L 226.174303 106.386784 
L 226.536856 101.125911 
L 226.89941 103.444315 
L 227.624517 115.69071 
L 228.349624 137.223963 
L 228.712177 141.413997 
L 229.074731 142.807413 
L 230.162391 123.642516 
L 230.524945 118.276502 
L 230.887498 119.311009 
L 231.250051 124.360674 
L 231.612605 131.997273 
L 232.337712 152.398215 
L 232.700265 157.021211 
L 233.062819 158.844769 
L 233.425372 156.503907 
L 233.787926 147.703575 
L 234.513033 124.165592 
L 234.875586 115.887015 
L 235.23814 111.930967 
L 235.600693 112.397005 
L 235.963247 116.311753 
L 236.3258 125.029263 
L 236.688353 137.154747 
L 237.41346 148.868055 
L 237.776014 148.611026 
L 238.138567 145.277363 
L 238.501121 138.776356 
L 238.863674 134.710333 
L 239.226228 127.760549 
L 239.588781 128.438885 
L 240.313888 139.481464 
L 241.038995 159.273565 
L 241.401549 166.208828 
L 241.764102 166.549233 
L 242.489209 156.436324 
L 243.214316 128.208153 
L 243.576869 119.817772 
L 243.939423 118.703824 
L 244.301976 119.489442 
L 244.66453 123.501888 
L 245.389637 144.193516 
L 245.75219 151.714473 
L 246.114744 154.541785 
L 246.477297 153.272029 
L 247.927511 132.966082 
L 248.290064 131.603293 
L 248.652618 136.986541 
L 249.377725 153.907829 
L 249.740278 164.770952 
L 250.102832 169.020709 
L 250.465385 169.803303 
L 250.827939 166.315071 
L 252.278153 124.335657 
L 252.640706 116.689997 
L 253.00326 119.63204 
L 253.365813 125.268999 
L 254.09092 143.62276 
L 254.453473 151.99558 
L 254.816027 154.943003 
L 255.17858 155.134084 
L 255.541134 148.416054 
L 255.903687 144.807113 
L 256.266241 137.092116 
L 256.628794 133.909665 
L 256.991348 131.895072 
L 257.353901 135.695345 
L 258.441562 161.974482 
L 258.804115 167.819031 
L 259.166668 167.741888 
L 259.529222 165.293104 
L 259.891775 155.658507 
L 260.616882 131.662047 
L 261.341989 116.148858 
L 261.704543 117.776354 
L 262.067096 123.798584 
L 263.154757 150.300823 
L 263.51731 152.027227 
L 263.879864 153.212763 
L 264.242417 148.747693 
L 264.967524 133.896201 
L 265.330077 131.175235 
L 265.692631 130.33057 
L 266.055184 134.665049 
L 267.505398 165.331212 
L 267.867952 167.554175 
L 268.593059 153.139138 
L 269.318166 127.168301 
L 269.680719 119.161836 
L 270.043273 116.248652 
L 270.405826 114.675851 
L 271.130933 130.181153 
L 271.493486 140.392108 
L 272.218593 153.194572 
L 272.581147 151.50624 
L 273.306254 139.778262 
L 273.668807 135.523293 
L 274.031361 129.370608 
L 274.393914 128.124518 
L 274.756468 133.367932 
L 275.481575 149.90761 
L 275.844128 163.60093 
L 276.206681 166.83791 
L 276.569235 168.193728 
L 276.931788 164.017875 
L 278.382002 121.57865 
L 278.744556 117.673606 
L 279.107109 120.053351 
L 279.469663 125.230675 
L 280.919877 156.416341 
L 281.28243 154.93828 
L 281.644983 152.839597 
L 282.007537 145.701853 
L 282.732644 136.318106 
L 283.095197 136.124685 
L 283.457751 138.891603 
L 284.545411 167.63997 
L 284.907965 172.683488 
L 285.270518 174.360788 
L 285.633072 171.402339 
L 286.720732 138.263573 
L 287.083286 130.309363 
L 287.445839 127.202644 
L 287.808392 126.12968 
L 288.170946 131.545015 
L 289.258606 160.522321 
L 289.62116 166.140434 
L 289.983713 165.237476 
L 291.433927 145.451187 
L 291.796481 144.123803 
L 292.159034 148.703895 
L 292.521588 155.760692 
L 292.884141 168.307531 
L 293.609248 182.456344 
L 293.971801 183.743229 
L 294.334355 179.602884 
L 295.784569 138.411361 
L 296.147122 135.652946 
L 296.509676 136.436485 
L 296.872229 141.716647 
L 297.95989 169.919814 
L 298.322443 175.410978 
L 298.684996 173.694234 
L 299.04755 169.241522 
L 299.772657 157.056819 
L 300.497764 153.141678 
L 300.860317 157.977703 
L 301.585424 173.978815 
L 301.947978 185.203445 
L 302.310531 190.010419 
L 302.673085 190.585844 
L 303.035638 187.94008 
L 304.123299 155.482885 
L 304.485852 144.90539 
L 304.848405 141.669534 
L 305.210959 143.297289 
L 305.936066 156.353124 
L 306.298619 168.385852 
L 307.023726 180.304942 
L 307.38628 178.840519 
L 308.111387 169.529539 
L 308.836494 156.205264 
L 309.199047 156.844954 
L 309.561601 161.814668 
L 309.924154 168.883056 
L 310.649261 188.853069 
L 311.011814 193.287819 
L 311.374368 192.040857 
L 311.736921 188.108466 
L 312.099475 180.258111 
L 313.187135 146.403902 
L 313.549689 142.59948 
L 313.912242 143.677264 
L 314.274796 149.292261 
L 315.362456 174.239213 
L 315.725009 180.32809 
L 316.450116 174.97945 
L 317.537777 155.117947 
L 317.90033 155.922575 
L 318.262884 159.668209 
L 319.350544 186.230297 
L 319.713098 191.219392 
L 320.075651 191.447616 
L 320.438205 186.913366 
L 321.163311 165.382263 
L 321.525865 153.068406 
L 322.250972 141.210538 
L 322.613525 141.724382 
L 323.338632 155.774963 
L 324.063739 172.626137 
L 324.788846 176.40469 
L 325.1514 172.730319 
L 325.513953 164.63453 
L 326.23906 155.312934 
L 326.601614 154.922759 
L 326.964167 157.613745 
L 327.32672 164.830125 
L 328.051827 184.316678 
L 328.414381 189.626042 
L 328.776934 190.346114 
L 329.139488 188.275211 
L 330.227148 152.744624 
L 330.589702 144.292658 
L 330.952255 138.851375 
L 331.314809 141.443586 
L 331.677362 146.496807 
L 332.765022 173.338445 
L 333.490129 177.074304 
L 333.852683 172.178737 
L 334.940343 154.53941 
L 335.302897 154.391527 
L 336.028004 166.521675 
L 337.115664 189.887388 
L 337.478218 191.28674 
L 338.203324 179.602936 
L 338.928431 156.050476 
L 339.290985 144.764166 
L 339.653538 143.034992 
L 340.016092 143.526093 
L 340.378645 149.032988 
L 340.741199 156.23404 
L 341.103752 168.680533 
L 341.828859 178.662393 
L 342.191413 181.032877 
L 342.553966 177.536996 
L 342.91652 167.714369 
L 343.279073 164.594538 
L 343.641627 159.636644 
L 344.00418 160.616541 
L 344.366733 163.121137 
L 345.454394 191.208803 
L 345.816947 197.317383 
L 346.179501 199.423346 
L 346.542054 194.919666 
L 346.904608 186.235912 
L 347.629715 162.067683 
L 347.992268 154.226643 
L 348.354822 149.642162 
L 348.717375 149.452524 
L 349.079929 156.259139 
L 349.805035 177.421755 
L 350.167589 182.143679 
L 350.530142 190.198031 
L 350.892696 189.439459 
L 351.617803 178.092345 
L 351.980356 170.561537 
L 352.34291 167.886586 
L 352.705463 167.054761 
L 353.068017 171.391988 
L 354.155677 200.619826 
L 354.880784 209.655332 
L 355.243337 204.999159 
L 355.605891 195.078734 
L 356.330998 171.894367 
L 356.693551 162.49348 
L 357.056105 159.558371 
L 357.418658 160.734802 
L 357.781212 165.91289 
L 358.868872 195.334931 
L 359.231426 198.524233 
L 359.593979 199.876593 
L 360.68164 180.413431 
L 361.044193 178.111682 
L 361.406746 178.141941 
L 361.7693 182.428652 
L 363.219514 213.184905 
L 363.582067 216.87482 
L 363.944621 211.178082 
L 364.307174 203.112196 
L 365.032281 177.418961 
L 365.757388 165.194191 
L 366.119942 166.13991 
L 366.845048 179.8091 
L 367.207602 192.203142 
L 367.570155 199.557304 
L 367.932709 204.39149 
L 368.657816 199.574718 
L 369.382923 184.296346 
L 369.745476 182.497888 
L 370.10803 181.944379 
L 370.470583 184.91751 
L 371.558244 212.782492 
L 371.920797 218.227831 
L 372.28335 217.65444 
L 372.645904 213.648382 
L 374.096118 170.754762 
L 374.458671 167.079726 
L 374.821225 167.844267 
L 375.183778 172.962011 
L 376.271439 201.234904 
L 376.633992 204.888978 
L 376.996546 204.123524 
L 378.446759 180.592275 
L 378.809313 180.844258 
L 379.171866 185.296084 
L 379.53442 191.453574 
L 379.896973 146.01232 
L 380.259527 210.360066 
L 380.62208 216.029101 
L 380.984634 216.913054 
L 381.347187 212.750927 
L 382.797401 168.946468 
L 383.159955 165.187219 
L 383.522508 164.03741 
L 385.335275 201.169739 
L 385.697829 200.853881 
L 386.422936 192.611213 
L 386.785489 182.951738 
L 387.148043 178.017621 
L 387.87315 182.577071 
L 388.235703 188.93041 
L 388.598257 200.830082 
L 388.96081 207.570985 
L 389.323363 216.515385 
L 389.685917 215.611832 
L 390.04847 209.15715 
L 390.773577 189.877944 
L 391.498684 168.269247 
L 391.861238 162.64585 
L 392.223791 164.808761 
L 392.586345 169.965328 
L 393.674005 196.128047 
L 394.036559 203.686087 
L 394.399112 199.710906 
L 394.761665 193.876431 
L 395.124219 190.727198 
L 395.486772 182.155511 
L 396.211879 176.965661 
L 396.936986 191.158069 
L 398.024647 215.919471 
L 398.3872 216.096076 
L 398.749754 212.698599 
L 400.199968 170.085248 
L 400.562521 165.549766 
L 400.925074 166.938893 
L 401.650181 182.962909 
L 402.375288 201.262137 
L 402.737842 205.816371 
L 403.100395 205.029665 
L 403.825502 192.597296 
L 404.188056 189.948695 
L 404.550609 185.207904 
L 404.913163 184.513529 
L 405.275716 187.657566 
L 405.63827 195.697924 
L 406.363376 215.62199 
L 406.72593 222.213687 
L 407.088483 224.20468 
L 407.451037 218.256999 
L 408.176144 200.691478 
L 408.901251 177.881495 
L 409.263804 175.043971 
L 409.626358 176.366875 
L 409.988911 180.940824 
L 411.076572 208.483478 
L 411.439125 214.006725 
L 411.801678 214.558913 
L 412.526785 203.309386 
L 413.251892 192.791785 
L 413.614446 191.830868 
L 413.976999 196.511194 
L 415.06466 224.599016 
L 415.427213 230.766874 
L 415.789767 231.75593 
L 416.15232 227.301704 
L 416.877427 209.065441 
L 417.239981 194.565103 
L 417.965087 182.826084 
L 418.327641 184.480529 
L 418.690194 189.313749 
L 419.777855 220.44311 
L 420.140408 221.738395 
L 420.502962 221.934678 
L 420.865515 217.751898 
L 421.590622 205.437941 
L 421.953176 203.731708 
L 422.315729 201.08256 
L 423.040836 214.107215 
L 423.403389 221.282214 
L 424.128496 239.621369 
L 424.49105 240.023407 
L 425.216157 227.927551 
L 425.57871 214.249378 
L 425.941264 206.127419 
L 426.303817 194.519096 
L 426.666371 189.518283 
L 427.028924 190.257756 
L 427.391478 195.404726 
L 428.479138 223.628952 
L 428.841691 227.043146 
L 429.204245 227.286538 
L 429.566798 222.7338 
L 429.929352 215.099584 
L 430.291905 210.023424 
L 430.654459 206.779595 
L 431.017012 205.405298 
L 431.379566 208.638219 
L 431.742119 216.578035 
L 432.467226 237.323259 
L 432.82978 240.829199 
L 433.192333 241.871868 
L 433.554887 239.178228 
L 433.91744 229.684739 
L 434.279994 215.990157 
L 434.642547 207.670406 
L 435.0051 196.772066 
L 435.367654 192.479947 
L 435.730207 190.906215 
L 436.092761 196.053169 
L 437.180421 223.302144 
L 437.542975 228.056432 
L 437.905528 228.504752 
L 438.630635 217.136459 
L 438.993189 210.031993 
L 439.355742 207.670868 
L 439.718296 206.042832 
L 440.080849 207.487618 
L 440.443402 215.299706 
L 441.168509 237.585473 
L 441.893616 241.737285 
L 442.25617 236.245576 
L 443.706384 194.584828 
L 444.068937 190.972361 
L 444.431491 191.441477 
L 445.156598 203.221069 
L 445.881704 221.962229 
L 446.244258 225.871486 
L 446.606811 226.035879 
L 446.969365 222.054133 
L 447.331918 213.718542 
L 447.694472 208.857921 
L 448.057025 201.687507 
L 448.419579 201.553212 
L 449.144686 211.168225 
L 449.507239 224.513472 
L 450.232346 238.248817 
L 450.5949 238.578747 
L 450.957453 234.775618 
L 451.68256 213.31167 
L 452.045113 200.589457 
L 452.407667 193.096677 
L 452.77022 189.078364 
L 453.132774 189.075759 
L 453.495327 194.159047 
L 454.582988 221.914898 
L 454.945541 225.285566 
L 455.308095 223.560354 
L 456.033202 213.242553 
L 456.395755 206.510047 
L 456.758309 203.571789 
L 457.120862 202.376633 
L 457.483415 206.792409 
L 458.933629 238.924818 
L 459.296183 239.674849 
L 459.658736 235.598985 
L 460.02129 227.885538 
L 461.10895 196.188173 
L 461.471504 190.949802 
L 461.834057 192.40823 
L 463.284271 224.92123 
L 463.646824 227.903928 
L 464.009378 229.304557 
L 465.459592 208.389369 
L 465.822145 207.787628 
L 466.547252 221.403563 
L 466.909806 233.866281 
L 467.634913 245.158349 
L 467.997466 247.242296 
L 468.360019 243.150253 
L 469.085126 222.204985 
L 469.810233 201.927005 
L 470.172787 199.349475 
L 470.53534 199.292431 
L 470.897894 203.803613 
L 471.623001 226.621798 
L 472.348108 237.858769 
L 472.710661 238.315003 
L 473.435768 227.28898 
L 473.798322 220.706112 
L 474.160875 218.344684 
L 474.523428 217.634727 
L 474.885982 222.270395 
L 475.611089 237.809316 
L 476.336196 257.117212 
L 476.698749 256.352783 
L 477.061303 252.623288 
L 478.148963 222.287982 
L 478.511517 212.293558 
L 478.87407 207.790039 
L 479.236624 208.051026 
L 479.599177 214.889651 
L 480.324284 235.812027 
L 480.686837 242.597781 
L 481.049391 245.635588 
L 481.411944 247.409307 
L 481.774498 243.953628 
L 482.137051 235.172236 
L 482.499605 229.890919 
L 483.224712 225.874754 
L 483.949819 237.635991 
L 484.674926 256.582693 
L 485.037479 262.560496 
L 485.400032 263.787793 
L 485.762586 260.698978 
L 486.487693 238.024862 
L 486.850246 225.321637 
L 487.575353 214.385807 
L 487.937907 213.926497 
L 488.663014 229.074361 
L 489.025567 239.758099 
L 489.388121 247.062172 
L 490.113228 253.271035 
L 490.475781 248.595688 
L 491.200888 234.112778 
L 491.925995 226.625745 
L 492.288548 230.573489 
L 493.013655 252.053528 
L 493.738762 265.988311 
L 494.101316 266.177803 
L 494.463869 261.437519 
L 494.826423 253.262237 
L 495.55153 229.739936 
L 495.914083 220.623548 
L 496.276637 215.792167 
L 496.63919 217.151585 
L 497.001743 222.020152 
L 497.72685 240.931309 
L 498.089404 247.918527 
L 498.451957 251.889791 
L 498.814511 252.458901 
L 499.177064 248.452245 
L 499.902171 234.407424 
L 500.264725 229.501128 
L 500.627278 227.806009 
L 501.714939 249.246028 
L 502.077492 259.408036 
L 502.440045 265.864437 
L 502.802599 265.553555 
L 503.165152 261.261044 
L 503.527706 251.979051 
L 504.615366 218.213001 
L 504.97792 212.42389 
L 505.703027 218.783407 
L 506.790687 245.839962 
L 507.153241 249.720887 
L 507.515794 248.690534 
L 508.240901 239.264479 
L 508.966008 226.533217 
L 509.328561 226.770503 
L 509.691115 230.846186 
L 511.141329 262.333487 
L 511.503882 265.125424 
L 512.228989 250.239447 
L 513.31665 216.048691 
L 513.679203 211.447594 
L 514.041756 213.179175 
L 514.40431 217.732226 
L 514.766863 229.227445 
L 515.49197 244.392479 
L 515.854524 249.518227 
L 516.217077 248.19946 
L 516.942184 239.697803 
L 517.304738 231.095036 
L 518.029845 227.146043 
L 518.392398 229.384476 
L 519.842612 264.224176 
L 520.205165 265.199557 
L 520.567719 260.052594 
L 520.930272 252.35894 
L 521.655379 227.686906 
L 522.380486 213.561656 
L 522.74304 214.735479 
L 523.105593 221.279302 
L 523.8307 242.92818 
L 524.555807 253.317962 
L 524.91836 252.404314 
L 525.280914 249.512297 
L 526.006021 236.410751 
L 526.368574 233.82048 
L 526.731128 234.495517 
L 527.093681 236.410813 
L 528.543895 270.775617 
L 528.906449 272.321123 
L 529.269002 267.80553 
L 529.631556 259.720261 
L 530.356663 237.120404 
L 530.719216 227.612775 
L 531.081769 223.208102 
L 531.444323 222.711506 
L 531.806876 230.262096 
L 532.894537 258.374891 
L 533.25709 263.142088 
L 533.619644 264.092316 
L 534.344751 252.36428 
L 534.707304 300.16293 
L 535.069858 240.993667 
L 535.432411 241.189267 
L 535.794965 245.491976 
L 536.882625 274.434935 
L 537.245178 278.855364 
L 537.607732 280.563048 
L 537.970285 276.650745 
L 538.332839 268.66335 
L 539.420499 234.687011 
L 539.783053 232.581768 
L 540.145606 231.77312 
L 540.870713 246.470599 
L 541.233267 258.051577 
L 541.958373 271.017387 
L 542.320927 272.271225 
L 543.408587 253.491147 
L 543.771141 249.177874 
L 544.133694 249.793135 
L 544.496248 253.267998 
L 545.583908 282.475017 
L 545.946462 288.618631 
L 546.671569 283.935414 
L 547.034122 274.679255 
L 547.396676 260.187494 
L 548.121782 242.544065 
L 548.484336 237.250132 
L 548.846889 240.463668 
L 549.209443 245.034097 
L 550.659657 278.759886 
L 551.02221 276.707821 
L 551.384764 269.684911 
L 551.747317 265.136045 
L 552.109871 257.309245 
L 552.472424 254.708002 
L 552.834978 253.820398 
L 553.197531 256.101341 
L 554.285191 284.551411 
L 554.647745 289.73776 
L 555.010298 292.635377 
L 555.372852 286.062921 
L 555.735405 277.40389 
L 556.460512 252.408018 
L 557.185619 240.60808 
L 557.548173 240.495002 
L 557.910726 245.776048 
L 558.27328 256.006719 
L 559.36094 277.235123 
L 559.723493 277.80445 
L 560.086047 272.993202 
L 560.811154 258.285277 
L 561.173707 254.193158 
L 561.536261 253.480435 
L 561.898814 255.07017 
L 562.986475 283.046343 
L 563.349028 288.222587 
L 563.711582 289.853667 
L 564.436689 277.680371 
L 565.161795 249.46649 
L 565.524349 239.998963 
L 565.886902 235.870224 
L 566.612009 243.28417 
L 567.69967 269.752985 
L 568.062223 275.071411 
L 568.78733 270.132062 
L 569.874991 250.553999 
L 570.237544 249.786239 
L 570.600097 255.505889 
L 571.325204 272.567956 
L 571.687758 282.389408 
L 572.050311 286.889424 
L 572.412865 288.938151 
L 572.775418 282.857674 
L 574.588186 235.496612 
L 575.313293 240.888824 
L 576.400953 268.967164 
L 576.763506 272.440079 
L 577.12606 272.145687 
L 577.488613 268.95876 
L 578.21372 254.116701 
L 578.938827 249.630771 
L 579.301381 255.24753 
L 580.026488 272.328623 
L 580.751595 290.38814 
L 581.114148 288.497172 
L 581.839255 276.649059 
L 582.564362 253.415061 
L 582.926915 243.373267 
L 583.289469 239.704096 
L 583.652022 239.575338 
L 584.014576 245.365063 
L 585.102236 273.383369 
L 585.46479 276.888311 
L 585.827343 278.411755 
L 586.189897 275.023316 
L 586.915004 261.247404 
L 587.277557 257.201376 
L 587.64011 257.868647 
L 588.002664 261.984092 
L 588.365217 268.774405 
L 589.090324 288.021315 
L 589.452878 294.95421 
L 589.815431 295.652688 
L 590.177985 291.333488 
L 590.903092 271.821304 
L 591.265645 260.122104 
L 591.628199 254.071779 
L 591.990752 246.141177 
L 592.353306 248.716403 
L 592.715859 253.933967 
L 594.166073 285.100566 
L 594.528626 286.684935 
L 594.89118 282.001767 
L 595.616287 269.314308 
L 595.97884 264.608557 
L 596.341394 264.556475 
L 596.703947 270.56823 
L 597.429054 288.457689 
L 597.791608 299.065038 
L 598.154161 304.452634 
L 598.516714 306.291257 
L 598.879268 301.238327 
L 599.241821 292.393414 
L 599.966928 268.892416 
L 600.329482 260.358596 
L 600.692035 256.548932 
L 601.054589 257.662003 
L 601.417142 261.918656 
L 602.142249 282.628374 
L 602.867356 295.62543 
L 603.22991 294.229322 
L 603.955017 284.597637 
L 604.31757 275.267047 
L 604.680123 273.182648 
L 605.042677 273.340294 
L 605.40523 223.595288 
L 605.767784 285.298026 
L 606.855444 312.189397 
L 607.217998 312.708557 
L 607.943105 300.555275 
L 608.668212 274.908459 
L 609.393319 261.989915 
L 609.755872 262.392369 
L 610.118425 268.372464 
L 610.843532 287.603267 
L 611.568639 301.309064 
L 611.931193 300.751663 
L 612.293746 296.251429 
L 612.6563 287.68045 
L 613.381407 278.990561 
L 613.74396 277.836722 
L 614.469067 288.19804 
L 615.194174 309.901044 
L 615.556727 315.287475 
L 615.919281 315.389707 
L 616.644388 301.338489 
L 617.006941 290.77147 
L 617.369495 276.39292 
L 617.732048 268.534462 
L 618.094602 264.474103 
L 618.457155 264.341092 
L 618.819709 269.910716 
L 619.182262 278.440704 
L 619.544816 290.099935 
L 619.907369 297.222846 
L 620.269923 299.64089 
L 620.632476 300.745949 
L 620.99503 298.763902 
L 621.720136 280.999048 
L 622.08269 278.580098 
L 622.445243 277.453007 
L 622.807797 281.776156 
L 623.532904 298.639689 
L 623.895457 307.570877 
L 624.258011 312.769006 
L 624.620564 315.31612 
L 624.983118 309.705688 
L 626.433332 265.396797 
L 626.795885 262.894867 
L 627.158438 262.468845 
L 627.883545 274.081571 
L 628.246099 288.096161 
L 628.608652 294.824226 
L 628.971206 299.2879 
L 629.333759 297.908399 
L 629.696313 294.085645 
L 630.783973 275.474318 
L 631.146527 273.095517 
L 631.871634 287.371863 
L 632.59674 304.931701 
L 632.959294 309.659943 
L 633.321847 311.544583 
L 633.684401 307.00497 
L 635.497168 259.793259 
L 635.859722 261.368382 
L 636.222275 267.138434 
L 636.947382 286.292307 
L 637.672489 298.511994 
L 638.035043 298.00694 
L 639.122703 281.593773 
L 639.485256 276.809888 
L 639.84781 276.046071 
L 640.572917 287.847609 
L 641.660577 313.497207 
L 642.023131 312.091574 
L 642.385684 308.766215 
L 642.748238 300.330374 
L 643.473345 276.795229 
L 643.835898 267.814552 
L 644.198451 264.273086 
L 644.561005 265.672317 
L 644.923558 268.508776 
L 646.011219 298.367115 
L 646.373772 302.516813 
L 646.736326 302.703235 
L 647.098879 295.898004 
L 647.461433 292.014036 
L 647.823986 284.426561 
L 648.18654 281.713644 
L 648.549093 280.175173 
L 649.2742 293.570916 
L 649.999307 312.953336 
L 650.36186 319.159238 
L 650.724414 319.783826 
L 651.086967 315.592876 
L 651.812074 295.854349 
L 652.537181 274.70786 
L 652.899735 269.349867 
L 653.624842 278.251421 
L 654.712502 305.141414 
L 655.075055 309.769104 
L 655.437609 310.087336 
L 656.162716 301.668844 
L 656.525269 293.516104 
L 656.887823 288.446085 
L 657.250376 290.652191 
L 657.61293 295.186227 
L 657.975483 301.325152 
L 658.70059 321.91306 
L 659.425697 331.826737 
L 659.788251 326.480396 
L 660.150804 316.798976 
L 660.875911 290.118477 
L 661.238464 284.187416 
L 661.601018 280.391903 
L 662.326125 288.163909 
L 663.413785 314.681781 
L 663.776339 318.276093 
L 664.138892 320.005765 
L 664.501446 316.83146 
L 665.226553 302.739381 
L 665.95166 296.694055 
L 666.314213 303.528465 
L 666.676766 308.209812 
L 667.401873 329.830806 
L 667.764427 337.001589 
L 668.12698 335.841778 
L 668.489534 331.808595 
L 668.852087 325.269832 
L 669.214641 308.974268 
L 669.577194 298.732247 
L 670.302301 287.630124 
L 670.664855 288.393176 
L 671.389962 301.94123 
L 671.752515 314.088286 
L 672.115068 321.89919 
L 672.477622 323.766199 
L 672.840175 324.569176 
L 674.290389 303.422478 
L 674.652943 300.895179 
L 675.015496 306.441203 
L 675.37805 313.927366 
L 675.740603 325.715891 
L 676.103157 333.48198 
L 676.46571 338.67686 
L 676.828264 340.38709 
L 677.190817 333.991178 
L 677.553371 325.158183 
L 678.641031 291.208451 
L 679.003584 288.313894 
L 679.366138 289.060346 
L 679.728691 293.850333 
L 680.816352 318.905815 
L 681.178905 324.349558 
L 681.541459 323.965878 
L 681.904012 319.666805 
L 682.629119 306.511607 
L 682.991673 302.477509 
L 683.354226 301.401359 
L 683.716779 305.080313 
L 684.079333 311.51006 
L 684.441886 324.0686 
L 685.529547 340.909045 
L 685.8921 335.421901 
L 687.342314 291.667838 
L 687.704868 287.473358 
L 688.067421 287.219369 
L 688.429975 293.087248 
L 689.517635 318.478304 
L 689.880188 322.668696 
L 690.242742 321.745937 
L 690.605295 318.229726 
L 691.330402 302.979616 
L 691.692956 299.828305 
L 692.055509 299.26999 
L 692.418063 303.67001 
L 693.14317 320.039495 
L 693.505723 329.661464 
L 693.868277 336.059184 
L 694.23083 336.064513 
L 694.593384 331.803906 
L 696.043597 289.233244 
L 696.406151 284.662512 
L 696.768704 283.850251 
L 697.131258 294.084355 
L 697.493811 300.434679 
L 698.218918 317.605864 
L 698.581472 320.994353 
L 698.944025 321.923142 
L 699.306579 318.647936 
L 699.669132 309.249673 
L 700.394239 301.370759 
L 700.756792 300.288068 
L 701.119346 304.04404 
L 701.481899 311.177499 
L 701.844453 323.053162 
L 702.56956 336.927546 
L 702.932113 338.899969 
L 703.65722 325.996486 
L 704.382327 301.530945 
L 705.107434 286.770003 
L 705.469988 287.297681 
L 706.195094 304.043578 
L 706.557648 369.36 
L 706.920201 323.102835 
L 707.282755 325.975664 
L 707.645308 325.185138 
L 708.007862 322.337066 
L 708.732969 310.329588 
L 709.095522 306.047724 
L 709.458076 306.303181 
L 709.820629 308.672266 
L 710.545736 325.72855 
L 711.270843 342.7304 
L 711.633397 344.574913 
L 711.99595 340.602869 
L 712.358503 332.211093 
L 713.08361 308.558239 
L 713.446164 298.874054 
L 713.808717 294.299847 
L 714.171271 295.120781 
L 714.533824 302.581307 
L 715.258931 321.163531 
L 715.621485 330.568932 
L 715.984038 335.116911 
L 716.346592 334.023822 
L 716.709145 331.487908 
L 717.434252 316.715315 
L 717.796805 313.980851 
L 718.159359 313.65322 
L 718.521912 317.800395 
L 719.972126 354.226704 
L 720.33468 353.003284 
L 720.697233 348.535606 
L 721.059787 341.64048 
L 722.147447 308.50496 
L 722.510001 302.361986 
L 722.872554 304.720494 
L 723.235107 311.144391 
L 724.322768 340.620232 
L 724.685321 343.644173 
L 725.047875 342.025847 
L 725.410428 338.569498 
L 726.498089 320.839353 
L 726.860642 321.964263 
L 727.223196 325.440429 
L 727.585749 337.051465 
L 728.673409 360.432319 
L 729.035963 361.726065 
L 729.76107 346.8045 
L 730.84873 316.069335 
L 731.211284 311.006655 
L 731.573837 310.628261 
L 731.936391 317.815983 
L 732.661498 337.704396 
L 733.386605 348.137874 
L 733.749158 348.006157 
L 734.111712 344.010499 
L 734.474265 338.768836 
L 734.836818 330.365867 
L 735.199372 325.881496 
L 735.561925 325.693181 
L 736.287032 339.114165 
L 736.649586 349.389764 
L 737.012139 354.90897 
L 737.374693 363.103309 
L 737.737246 362.685695 
L 738.0998 359.258513 
L 738.462353 352.348837 
L 739.18746 325.495741 
L 739.550014 315.947762 
L 739.912567 310.962323 
L 740.27512 311.182945 
L 740.637674 318.914095 
L 741.362781 338.143096 
L 742.087888 349.21152 
L 742.450441 346.630293 
L 742.812995 345.124133 
L 743.175548 336.798573 
L 743.538102 331.893567 
L 743.900655 324.766344 
L 744.263209 326.260036 
L 744.625762 329.181785 
L 745.713422 357.385193 
L 746.075976 360.948793 
L 746.438529 362.629616 
L 746.801083 357.401535 
L 747.163636 349.109898 
L 747.163636 349.109898 
" style="fill:none;stroke:#1f77b4;stroke-linecap:square;stroke-width:1.5;"/>
   </g>
   <g id="line2d_17">
    <path clip-path="url(#p610f45391b)" d="M 745.713422 384.48 
L 745.713422 51.84 
" style="fill:none;stroke:#808080;stroke-linecap:square;"/>
   </g>
   <g id="patch_49">
    <path d="M 108 384.48 
L 108 51.84 
" style="fill:none;stroke:#000000;stroke-linecap:square;stroke-linejoin:miter;stroke-width:0.8;"/>
   </g>
   <g id="patch_50">
    <path d="M 777.6 384.48 
L 777.6 51.84 
" style="fill:none;stroke:#000000;stroke-linecap:square;stroke-linejoin:miter;stroke-width:0.8;"/>
   </g>
   <g id="patch_51">
    <path d="M 108 384.48 
L 777.6 384.48 
" style="fill:none;stroke:#000000;stroke-linecap:square;stroke-linejoin:miter;stroke-width:0.8;"/>
   </g>
   <g id="patch_52">
    <path d="M 108 51.84 
L 777.6 51.84 
" style="fill:none;stroke:#000000;stroke-linecap:square;stroke-linejoin:miter;stroke-width:0.8;"/>
   </g>
   <g id="text_18">
    <!-- A3Benchmark-TS8.csv -->
    <defs>
     <path d="M 34.1875 63.1875 
L 20.796875 26.90625 
L 47.609375 26.90625 
z
M 28.609375 72.90625 
L 39.796875 72.90625 
L 67.578125 0 
L 57.328125 0 
L 50.6875 18.703125 
L 17.828125 18.703125 
L 11.1875 0 
L 0.78125 0 
z
" id="DejaVuSans-65"/>
     <path d="M 19.671875 34.8125 
L 19.671875 8.109375 
L 35.5 8.109375 
Q 43.453125 8.109375 47.28125 11.40625 
Q 51.125 14.703125 51.125 21.484375 
Q 51.125 28.328125 47.28125 31.5625 
Q 43.453125 34.8125 35.5 34.8125 
z
M 19.671875 64.796875 
L 19.671875 42.828125 
L 34.28125 42.828125 
Q 41.5 42.828125 45.03125 45.53125 
Q 48.578125 48.25 48.578125 53.8125 
Q 48.578125 59.328125 45.03125 62.0625 
Q 41.5 64.796875 34.28125 64.796875 
z
M 9.8125 72.90625 
L 35.015625 72.90625 
Q 46.296875 72.90625 52.390625 68.21875 
Q 58.5 63.53125 58.5 54.890625 
Q 58.5 48.1875 55.375 44.234375 
Q 52.25 40.28125 46.1875 39.3125 
Q 53.46875 37.75 57.5 32.78125 
Q 61.53125 27.828125 61.53125 20.40625 
Q 61.53125 10.640625 54.890625 5.3125 
Q 48.25 0 35.984375 0 
L 9.8125 0 
z
" id="DejaVuSans-66"/>
     <path d="M 54.890625 33.015625 
L 54.890625 0 
L 45.90625 0 
L 45.90625 32.71875 
Q 45.90625 40.484375 42.875 44.328125 
Q 39.84375 48.1875 33.796875 48.1875 
Q 26.515625 48.1875 22.3125 43.546875 
Q 18.109375 38.921875 18.109375 30.90625 
L 18.109375 0 
L 9.078125 0 
L 9.078125 54.6875 
L 18.109375 54.6875 
L 18.109375 46.1875 
Q 21.34375 51.125 25.703125 53.5625 
Q 30.078125 56 35.796875 56 
Q 45.21875 56 50.046875 50.171875 
Q 54.890625 44.34375 54.890625 33.015625 
z
" id="DejaVuSans-110"/>
     <path d="M 48.78125 52.59375 
L 48.78125 44.1875 
Q 44.96875 46.296875 41.140625 47.34375 
Q 37.3125 48.390625 33.40625 48.390625 
Q 24.65625 48.390625 19.8125 42.84375 
Q 14.984375 37.3125 14.984375 27.296875 
Q 14.984375 17.28125 19.8125 11.734375 
Q 24.65625 6.203125 33.40625 6.203125 
Q 37.3125 6.203125 41.140625 7.25 
Q 44.96875 8.296875 48.78125 10.40625 
L 48.78125 2.09375 
Q 45.015625 0.34375 40.984375 -0.53125 
Q 36.96875 -1.421875 32.421875 -1.421875 
Q 20.0625 -1.421875 12.78125 6.34375 
Q 5.515625 14.109375 5.515625 27.296875 
Q 5.515625 40.671875 12.859375 48.328125 
Q 20.21875 56 33.015625 56 
Q 37.15625 56 41.109375 55.140625 
Q 45.0625 54.296875 48.78125 52.59375 
z
" id="DejaVuSans-99"/>
     <path d="M 54.890625 33.015625 
L 54.890625 0 
L 45.90625 0 
L 45.90625 32.71875 
Q 45.90625 40.484375 42.875 44.328125 
Q 39.84375 48.1875 33.796875 48.1875 
Q 26.515625 48.1875 22.3125 43.546875 
Q 18.109375 38.921875 18.109375 30.90625 
L 18.109375 0 
L 9.078125 0 
L 9.078125 75.984375 
L 18.109375 75.984375 
L 18.109375 46.1875 
Q 21.34375 51.125 25.703125 53.5625 
Q 30.078125 56 35.796875 56 
Q 45.21875 56 50.046875 50.171875 
Q 54.890625 44.34375 54.890625 33.015625 
z
" id="DejaVuSans-104"/>
     <path d="M 41.109375 46.296875 
Q 39.59375 47.171875 37.8125 47.578125 
Q 36.03125 48 33.890625 48 
Q 26.265625 48 22.1875 43.046875 
Q 18.109375 38.09375 18.109375 28.8125 
L 18.109375 0 
L 9.078125 0 
L 9.078125 54.6875 
L 18.109375 54.6875 
L 18.109375 46.1875 
Q 20.953125 51.171875 25.484375 53.578125 
Q 30.03125 56 36.53125 56 
Q 37.453125 56 38.578125 55.875 
Q 39.703125 55.765625 41.0625 55.515625 
z
" id="DejaVuSans-114"/>
     <path d="M 9.078125 75.984375 
L 18.109375 75.984375 
L 18.109375 31.109375 
L 44.921875 54.6875 
L 56.390625 54.6875 
L 27.390625 29.109375 
L 57.625 0 
L 45.90625 0 
L 18.109375 26.703125 
L 18.109375 0 
L 9.078125 0 
z
" id="DejaVuSans-107"/>
     <path d="M 4.890625 31.390625 
L 31.203125 31.390625 
L 31.203125 23.390625 
L 4.890625 23.390625 
z
" id="DejaVuSans-45"/>
     <path d="M 53.515625 70.515625 
L 53.515625 60.890625 
Q 47.90625 63.578125 42.921875 64.890625 
Q 37.9375 66.21875 33.296875 66.21875 
Q 25.25 66.21875 20.875 63.09375 
Q 16.5 59.96875 16.5 54.203125 
Q 16.5 49.359375 19.40625 46.890625 
Q 22.3125 44.4375 30.421875 42.921875 
L 36.375 41.703125 
Q 47.40625 39.59375 52.65625 34.296875 
Q 57.90625 29 57.90625 20.125 
Q 57.90625 9.515625 50.796875 4.046875 
Q 43.703125 -1.421875 29.984375 -1.421875 
Q 24.8125 -1.421875 18.96875 -0.25 
Q 13.140625 0.921875 6.890625 3.21875 
L 6.890625 13.375 
Q 12.890625 10.015625 18.65625 8.296875 
Q 24.421875 6.59375 29.984375 6.59375 
Q 38.421875 6.59375 43.015625 9.90625 
Q 47.609375 13.234375 47.609375 19.390625 
Q 47.609375 24.75 44.3125 27.78125 
Q 41.015625 30.8125 33.5 32.328125 
L 27.484375 33.5 
Q 16.453125 35.6875 11.515625 40.375 
Q 6.59375 45.0625 6.59375 53.421875 
Q 6.59375 63.09375 13.40625 68.65625 
Q 20.21875 74.21875 32.171875 74.21875 
Q 37.3125 74.21875 42.625 73.28125 
Q 47.953125 72.359375 53.515625 70.515625 
z
" id="DejaVuSans-83"/>
     <path d="M 31.78125 34.625 
Q 24.75 34.625 20.71875 30.859375 
Q 16.703125 27.09375 16.703125 20.515625 
Q 16.703125 13.921875 20.71875 10.15625 
Q 24.75 6.390625 31.78125 6.390625 
Q 38.8125 6.390625 42.859375 10.171875 
Q 46.921875 13.96875 46.921875 20.515625 
Q 46.921875 27.09375 42.890625 30.859375 
Q 38.875 34.625 31.78125 34.625 
z
M 21.921875 38.8125 
Q 15.578125 40.375 12.03125 44.71875 
Q 8.5 49.078125 8.5 55.328125 
Q 8.5 64.0625 14.71875 69.140625 
Q 20.953125 74.21875 31.78125 74.21875 
Q 42.671875 74.21875 48.875 69.140625 
Q 55.078125 64.0625 55.078125 55.328125 
Q 55.078125 49.078125 51.53125 44.71875 
Q 48 40.375 41.703125 38.8125 
Q 48.828125 37.15625 52.796875 32.3125 
Q 56.78125 27.484375 56.78125 20.515625 
Q 56.78125 9.90625 50.3125 4.234375 
Q 43.84375 -1.421875 31.78125 -1.421875 
Q 19.734375 -1.421875 13.25 4.234375 
Q 6.78125 9.90625 6.78125 20.515625 
Q 6.78125 27.484375 10.78125 32.3125 
Q 14.796875 37.15625 21.921875 38.8125 
z
M 18.3125 54.390625 
Q 18.3125 48.734375 21.84375 45.5625 
Q 25.390625 42.390625 31.78125 42.390625 
Q 38.140625 42.390625 41.71875 45.5625 
Q 45.3125 48.734375 45.3125 54.390625 
Q 45.3125 60.0625 41.71875 63.234375 
Q 38.140625 66.40625 31.78125 66.40625 
Q 25.390625 66.40625 21.84375 63.234375 
Q 18.3125 60.0625 18.3125 54.390625 
z
" id="DejaVuSans-56"/>
     <path d="M 10.6875 12.40625 
L 21 12.40625 
L 21 0 
L 10.6875 0 
z
" id="DejaVuSans-46"/>
     <path d="M 2.984375 54.6875 
L 12.5 54.6875 
L 29.59375 8.796875 
L 46.6875 54.6875 
L 56.203125 54.6875 
L 35.6875 0 
L 23.484375 0 
z
" id="DejaVuSans-118"/>
    </defs>
    <g transform="translate(375.373125 45.84)scale(0.12 -0.12)">
     <use xlink:href="#DejaVuSans-65"/>
     <use x="68.408203" xlink:href="#DejaVuSans-51"/>
     <use x="132.03125" xlink:href="#DejaVuSans-66"/>
     <use x="200.634766" xlink:href="#DejaVuSans-101"/>
     <use x="262.158203" xlink:href="#DejaVuSans-110"/>
     <use x="325.537109" xlink:href="#DejaVuSans-99"/>
     <use x="380.517578" xlink:href="#DejaVuSans-104"/>
     <use x="443.896484" xlink:href="#DejaVuSans-109"/>
     <use x="541.308594" xlink:href="#DejaVuSans-97"/>
     <use x="602.587891" xlink:href="#DejaVuSans-114"/>
     <use x="643.701172" xlink:href="#DejaVuSans-107"/>
     <use x="701.611328" xlink:href="#DejaVuSans-45"/>
     <use x="737.554688" xlink:href="#DejaVuSans-84"/>
     <use x="798.638672" xlink:href="#DejaVuSans-83"/>
     <use x="862.115234" xlink:href="#DejaVuSans-56"/>
     <use x="925.738281" xlink:href="#DejaVuSans-46"/>
     <use x="957.525391" xlink:href="#DejaVuSans-99"/>
     <use x="1012.505859" xlink:href="#DejaVuSans-115"/>
     <use x="1064.605469" xlink:href="#DejaVuSans-118"/>
    </g>
   </g>
   <g id="legend_1">
    <g id="patch_53">
     <path d="M 115 226.999062 
L 174.315625 226.999062 
Q 176.315625 226.999062 176.315625 224.999062 
L 176.315625 211.320937 
Q 176.315625 209.320937 174.315625 209.320937 
L 115 209.320937 
Q 113 209.320937 113 211.320937 
L 113 224.999062 
Q 113 226.999062 115 226.999062 
z
" style="fill:#ffffff;opacity:0.8;stroke:#cccccc;stroke-linejoin:miter;"/>
    </g>
    <g id="line2d_18">
     <path d="M 117 217.419375 
L 137 217.419375 
" style="fill:none;stroke:#1f77b4;stroke-linecap:square;stroke-width:1.5;"/>
    </g>
    <g id="line2d_19"/>
    <g id="text_19">
     <!-- value -->
     <g transform="translate(145 220.919375)scale(0.1 -0.1)">
      <use xlink:href="#DejaVuSans-118"/>
      <use x="59.179688" xlink:href="#DejaVuSans-97"/>
      <use x="120.458984" xlink:href="#DejaVuSans-108"/>
      <use x="148.242188" xlink:href="#DejaVuSans-117"/>
      <use x="211.621094" xlink:href="#DejaVuSans-101"/>
     </g>
    </g>
   </g>
  </g>
 </g>
 <defs>
  <clipPath id="p610f45391b">
   <rect height="332.64" width="669.6" x="108" y="51.84"/>
  </clipPath>
 </defs>
</svg>
