<?xml version="1.0" encoding="utf-8" standalone="no"?>
<!DOCTYPE svg PUBLIC "-//W3C//DTD SVG 1.1//EN"
  "http://www.w3.org/Graphics/SVG/1.1/DTD/svg11.dtd">
<!-- Created with matplotlib (https://matplotlib.org/) -->
<svg height="432pt" version="1.1" viewBox="0 0 864 432" width="864pt" xmlns="http://www.w3.org/2000/svg" xmlns:xlink="http://www.w3.org/1999/xlink">
 <defs>
  <style type="text/css">
*{stroke-linecap:butt;stroke-linejoin:round;}
  </style>
 </defs>
 <g id="figure_1">
  <g id="patch_1">
   <path d="M 0 432 
L 864 432 
L 864 0 
L 0 0 
z
" style="fill:#ffffff;"/>
  </g>
  <g id="axes_1">
   <g id="patch_2">
    <path d="M 108 384.48 
L 777.6 384.48 
L 777.6 51.84 
L 108 51.84 
z
" style="fill:#ffffff;"/>
   </g>
   <g id="patch_3">
    <path clip-path="url(#p3ad7d51443)" d="M 138.436364 384.48 
L 138.436364 51.84 
L 374.096118 51.84 
L 374.096118 384.48 
z
" style="fill:#0000ff;opacity:0.05;"/>
   </g>
   <g id="patch_4">
    <path clip-path="url(#p3ad7d51443)" d="M 374.096118 384.48 
L 374.096118 51.84 
L 745.713422 51.84 
L 745.713422 384.48 
z
" style="fill:#ff0000;opacity:0.08;"/>
   </g>
   <g id="patch_5">
    <path clip-path="url(#p3ad7d51443)" d="M 138.436364 384.48 
L 138.436364 51.84 
L 147.5002 51.84 
L 147.5002 384.48 
z
" style="fill:#008000;opacity:0.04;"/>
   </g>
   <g id="patch_6">
    <path clip-path="url(#p3ad7d51443)" d="M 138.436364 384.48 
L 138.436364 371.1744 
L 147.5002 371.1744 
L 147.5002 384.48 
z
" style="fill:#ffe500;"/>
   </g>
   <g id="patch_7">
    <path clip-path="url(#p3ad7d51443)" d="M 374.096118 384.48 
L 374.096118 371.1744 
L 383.159955 371.1744 
L 383.159955 384.48 
z
" style="fill:#ff6600;"/>
   </g>
   <g id="patch_8">
    <path clip-path="url(#p3ad7d51443)" d="M 156.564037 384.48 
L 156.564037 51.84 
L 165.627874 51.84 
L 165.627874 384.48 
z
" style="fill:#008000;opacity:0.04;"/>
   </g>
   <g id="patch_9">
    <path clip-path="url(#p3ad7d51443)" d="M 174.69171 384.48 
L 174.69171 51.84 
L 183.755547 51.84 
L 183.755547 384.48 
z
" style="fill:#008000;opacity:0.04;"/>
   </g>
   <g id="patch_10">
    <path clip-path="url(#p3ad7d51443)" d="M 192.819384 384.48 
L 192.819384 51.84 
L 201.883221 51.84 
L 201.883221 384.48 
z
" style="fill:#008000;opacity:0.04;"/>
   </g>
   <g id="patch_11">
    <path clip-path="url(#p3ad7d51443)" d="M 210.947057 384.48 
L 210.947057 51.84 
L 220.010894 51.84 
L 220.010894 384.48 
z
" style="fill:#008000;opacity:0.04;"/>
   </g>
   <g id="patch_12">
    <path clip-path="url(#p3ad7d51443)" d="M 229.074731 384.48 
L 229.074731 51.84 
L 238.138567 51.84 
L 238.138567 384.48 
z
" style="fill:#008000;opacity:0.04;"/>
   </g>
   <g id="patch_13">
    <path clip-path="url(#p3ad7d51443)" d="M 247.202404 384.48 
L 247.202404 51.84 
L 256.266241 51.84 
L 256.266241 384.48 
z
" style="fill:#008000;opacity:0.04;"/>
   </g>
   <g id="patch_14">
    <path clip-path="url(#p3ad7d51443)" d="M 265.330077 384.48 
L 265.330077 51.84 
L 274.393914 51.84 
L 274.393914 384.48 
z
" style="fill:#008000;opacity:0.04;"/>
   </g>
   <g id="patch_15">
    <path clip-path="url(#p3ad7d51443)" d="M 283.457751 384.48 
L 283.457751 51.84 
L 292.521588 51.84 
L 292.521588 384.48 
z
" style="fill:#008000;opacity:0.04;"/>
   </g>
   <g id="patch_16">
    <path clip-path="url(#p3ad7d51443)" d="M 301.585424 384.48 
L 301.585424 51.84 
L 310.649261 51.84 
L 310.649261 384.48 
z
" style="fill:#008000;opacity:0.04;"/>
   </g>
   <g id="patch_17">
    <path clip-path="url(#p3ad7d51443)" d="M 319.713098 384.48 
L 319.713098 51.84 
L 328.776934 51.84 
L 328.776934 384.48 
z
" style="fill:#008000;opacity:0.04;"/>
   </g>
   <g id="patch_18">
    <path clip-path="url(#p3ad7d51443)" d="M 328.776934 371.1744 
L 328.776934 51.84 
L 337.840771 51.84 
L 337.840771 371.1744 
z
" style="fill:#008000;opacity:0.5;"/>
   </g>
   <g id="patch_19">
    <path clip-path="url(#p3ad7d51443)" d="M 328.776934 384.48 
L 328.776934 371.1744 
L 337.840771 371.1744 
L 337.840771 384.48 
z
" style="fill:#ffe500;"/>
   </g>
   <g id="patch_20">
    <path clip-path="url(#p3ad7d51443)" d="M 337.840771 384.48 
L 337.840771 51.84 
L 346.904608 51.84 
L 346.904608 384.48 
z
" style="fill:#008000;opacity:0.04;"/>
   </g>
   <g id="patch_21">
    <path clip-path="url(#p3ad7d51443)" d="M 355.968444 384.48 
L 355.968444 51.84 
L 365.032281 51.84 
L 365.032281 384.48 
z
" style="fill:#008000;opacity:0.04;"/>
   </g>
   <g id="patch_22">
    <path clip-path="url(#p3ad7d51443)" d="M 374.096118 384.48 
L 374.096118 51.84 
L 383.159955 51.84 
L 383.159955 384.48 
z
" style="fill:#008000;opacity:0.04;"/>
   </g>
   <g id="patch_23">
    <path clip-path="url(#p3ad7d51443)" d="M 374.096118 371.1744 
L 374.096118 51.84 
L 383.159955 51.84 
L 383.159955 371.1744 
z
" style="fill:#008000;opacity:0.5;"/>
   </g>
   <g id="patch_24">
    <path clip-path="url(#p3ad7d51443)" d="M 609.755872 384.48 
L 609.755872 371.1744 
L 618.819709 371.1744 
L 618.819709 384.48 
z
" style="fill:#ff6600;"/>
   </g>
   <g id="patch_25">
    <path clip-path="url(#p3ad7d51443)" d="M 618.819709 384.48 
L 618.819709 371.1744 
L 627.883545 371.1744 
L 627.883545 384.48 
z
" style="fill:#ff6600;"/>
   </g>
   <g id="patch_26">
    <path clip-path="url(#p3ad7d51443)" d="M 392.223791 384.48 
L 392.223791 51.84 
L 401.287628 51.84 
L 401.287628 384.48 
z
" style="fill:#008000;opacity:0.04;"/>
   </g>
   <g id="patch_27">
    <path clip-path="url(#p3ad7d51443)" d="M 410.351465 384.48 
L 410.351465 51.84 
L 419.415301 51.84 
L 419.415301 384.48 
z
" style="fill:#008000;opacity:0.04;"/>
   </g>
   <g id="patch_28">
    <path clip-path="url(#p3ad7d51443)" d="M 428.479138 384.48 
L 428.479138 51.84 
L 437.542975 51.84 
L 437.542975 384.48 
z
" style="fill:#008000;opacity:0.04;"/>
   </g>
   <g id="patch_29">
    <path clip-path="url(#p3ad7d51443)" d="M 446.606811 384.48 
L 446.606811 51.84 
L 455.670648 51.84 
L 455.670648 384.48 
z
" style="fill:#008000;opacity:0.04;"/>
   </g>
   <g id="patch_30">
    <path clip-path="url(#p3ad7d51443)" d="M 464.734485 384.48 
L 464.734485 51.84 
L 473.798322 51.84 
L 473.798322 384.48 
z
" style="fill:#008000;opacity:0.04;"/>
   </g>
   <g id="patch_31">
    <path clip-path="url(#p3ad7d51443)" d="M 482.862158 384.48 
L 482.862158 51.84 
L 491.925995 51.84 
L 491.925995 384.48 
z
" style="fill:#008000;opacity:0.04;"/>
   </g>
   <g id="patch_32">
    <path clip-path="url(#p3ad7d51443)" d="M 500.989832 384.48 
L 500.989832 51.84 
L 510.053668 51.84 
L 510.053668 384.48 
z
" style="fill:#008000;opacity:0.04;"/>
   </g>
   <g id="patch_33">
    <path clip-path="url(#p3ad7d51443)" d="M 519.117505 384.48 
L 519.117505 51.84 
L 528.181342 51.84 
L 528.181342 384.48 
z
" style="fill:#008000;opacity:0.04;"/>
   </g>
   <g id="patch_34">
    <path clip-path="url(#p3ad7d51443)" d="M 537.245178 384.48 
L 537.245178 51.84 
L 546.309015 51.84 
L 546.309015 384.48 
z
" style="fill:#008000;opacity:0.04;"/>
   </g>
   <g id="patch_35">
    <path clip-path="url(#p3ad7d51443)" d="M 555.372852 384.48 
L 555.372852 51.84 
L 564.436689 51.84 
L 564.436689 384.48 
z
" style="fill:#008000;opacity:0.04;"/>
   </g>
   <g id="patch_36">
    <path clip-path="url(#p3ad7d51443)" d="M 573.500525 384.48 
L 573.500525 51.84 
L 582.564362 51.84 
L 582.564362 384.48 
z
" style="fill:#008000;opacity:0.04;"/>
   </g>
   <g id="patch_37">
    <path clip-path="url(#p3ad7d51443)" d="M 591.628199 384.48 
L 591.628199 51.84 
L 600.692035 51.84 
L 600.692035 384.48 
z
" style="fill:#008000;opacity:0.04;"/>
   </g>
   <g id="patch_38">
    <path clip-path="url(#p3ad7d51443)" d="M 609.755872 384.48 
L 609.755872 51.84 
L 618.819709 51.84 
L 618.819709 384.48 
z
" style="fill:#008000;opacity:0.04;"/>
   </g>
   <g id="patch_39">
    <path clip-path="url(#p3ad7d51443)" d="M 609.755872 371.1744 
L 609.755872 51.84 
L 618.819709 51.84 
L 618.819709 371.1744 
z
" style="fill:#008000;opacity:0.5;"/>
   </g>
   <g id="patch_40">
    <path clip-path="url(#p3ad7d51443)" d="M 618.819709 371.1744 
L 618.819709 51.84 
L 627.883545 51.84 
L 627.883545 371.1744 
z
" style="fill:#008000;opacity:0.5;"/>
   </g>
   <g id="patch_41">
    <path clip-path="url(#p3ad7d51443)" d="M 627.883545 384.48 
L 627.883545 51.84 
L 636.947382 51.84 
L 636.947382 384.48 
z
" style="fill:#008000;opacity:0.04;"/>
   </g>
   <g id="patch_42">
    <path clip-path="url(#p3ad7d51443)" d="M 646.011219 384.48 
L 646.011219 51.84 
L 655.075055 51.84 
L 655.075055 384.48 
z
" style="fill:#008000;opacity:0.04;"/>
   </g>
   <g id="patch_43">
    <path clip-path="url(#p3ad7d51443)" d="M 664.138892 384.48 
L 664.138892 51.84 
L 673.202729 51.84 
L 673.202729 384.48 
z
" style="fill:#008000;opacity:0.04;"/>
   </g>
   <g id="patch_44">
    <path clip-path="url(#p3ad7d51443)" d="M 682.266566 384.48 
L 682.266566 51.84 
L 691.330402 51.84 
L 691.330402 384.48 
z
" style="fill:#008000;opacity:0.04;"/>
   </g>
   <g id="patch_45">
    <path clip-path="url(#p3ad7d51443)" d="M 700.394239 384.48 
L 700.394239 51.84 
L 709.458076 51.84 
L 709.458076 384.48 
z
" style="fill:#008000;opacity:0.04;"/>
   </g>
   <g id="patch_46">
    <path clip-path="url(#p3ad7d51443)" d="M 718.521912 384.48 
L 718.521912 51.84 
L 727.585749 51.84 
L 727.585749 384.48 
z
" style="fill:#008000;opacity:0.04;"/>
   </g>
   <g id="patch_47">
    <path clip-path="url(#p3ad7d51443)" d="M 736.649586 384.48 
L 736.649586 51.84 
L 745.713422 51.84 
L 745.713422 384.48 
z
" style="fill:#008000;opacity:0.04;"/>
   </g>
   <g id="matplotlib.axis_1">
    <g id="xtick_1">
     <g id="line2d_1">
      <defs>
       <path d="M 0 0 
L 0 3.5 
" id="m8f6c795b11" style="stroke:#000000;stroke-width:0.8;"/>
      </defs>
      <g>
       <use style="stroke:#000000;stroke-width:0.8;" x="138.436364" xlink:href="#m8f6c795b11" y="384.48"/>
      </g>
     </g>
     <g id="text_1">
      <!-- 0 -->
      <defs>
       <path d="M 31.78125 66.40625 
Q 24.171875 66.40625 20.328125 58.90625 
Q 16.5 51.421875 16.5 36.375 
Q 16.5 21.390625 20.328125 13.890625 
Q 24.171875 6.390625 31.78125 6.390625 
Q 39.453125 6.390625 43.28125 13.890625 
Q 47.125 21.390625 47.125 36.375 
Q 47.125 51.421875 43.28125 58.90625 
Q 39.453125 66.40625 31.78125 66.40625 
z
M 31.78125 74.21875 
Q 44.046875 74.21875 50.515625 64.515625 
Q 56.984375 54.828125 56.984375 36.375 
Q 56.984375 17.96875 50.515625 8.265625 
Q 44.046875 -1.421875 31.78125 -1.421875 
Q 19.53125 -1.421875 13.0625 8.265625 
Q 6.59375 17.96875 6.59375 36.375 
Q 6.59375 54.828125 13.0625 64.515625 
Q 19.53125 74.21875 31.78125 74.21875 
z
" id="DejaVuSans-48"/>
      </defs>
      <g transform="translate(135.255114 399.078438)scale(0.1 -0.1)">
       <use xlink:href="#DejaVuSans-48"/>
      </g>
     </g>
    </g>
    <g id="xtick_2">
     <g id="line2d_2">
      <g>
       <use style="stroke:#000000;stroke-width:0.8;" x="229.074731" xlink:href="#m8f6c795b11" y="384.48"/>
      </g>
     </g>
     <g id="text_2">
      <!-- 250 -->
      <defs>
       <path d="M 19.1875 8.296875 
L 53.609375 8.296875 
L 53.609375 0 
L 7.328125 0 
L 7.328125 8.296875 
Q 12.9375 14.109375 22.625 23.890625 
Q 32.328125 33.6875 34.8125 36.53125 
Q 39.546875 41.84375 41.421875 45.53125 
Q 43.3125 49.21875 43.3125 52.78125 
Q 43.3125 58.59375 39.234375 62.25 
Q 35.15625 65.921875 28.609375 65.921875 
Q 23.96875 65.921875 18.8125 64.3125 
Q 13.671875 62.703125 7.8125 59.421875 
L 7.8125 69.390625 
Q 13.765625 71.78125 18.9375 73 
Q 24.125 74.21875 28.421875 74.21875 
Q 39.75 74.21875 46.484375 68.546875 
Q 53.21875 62.890625 53.21875 53.421875 
Q 53.21875 48.921875 51.53125 44.890625 
Q 49.859375 40.875 45.40625 35.40625 
Q 44.1875 33.984375 37.640625 27.21875 
Q 31.109375 20.453125 19.1875 8.296875 
z
" id="DejaVuSans-50"/>
       <path d="M 10.796875 72.90625 
L 49.515625 72.90625 
L 49.515625 64.59375 
L 19.828125 64.59375 
L 19.828125 46.734375 
Q 21.96875 47.46875 24.109375 47.828125 
Q 26.265625 48.1875 28.421875 48.1875 
Q 40.625 48.1875 47.75 41.5 
Q 54.890625 34.8125 54.890625 23.390625 
Q 54.890625 11.625 47.5625 5.09375 
Q 40.234375 -1.421875 26.90625 -1.421875 
Q 22.3125 -1.421875 17.546875 -0.640625 
Q 12.796875 0.140625 7.71875 1.703125 
L 7.71875 11.625 
Q 12.109375 9.234375 16.796875 8.0625 
Q 21.484375 6.890625 26.703125 6.890625 
Q 35.15625 6.890625 40.078125 11.328125 
Q 45.015625 15.765625 45.015625 23.390625 
Q 45.015625 31 40.078125 35.4375 
Q 35.15625 39.890625 26.703125 39.890625 
Q 22.75 39.890625 18.8125 39.015625 
Q 14.890625 38.140625 10.796875 36.28125 
z
" id="DejaVuSans-53"/>
      </defs>
      <g transform="translate(219.530981 399.078438)scale(0.1 -0.1)">
       <use xlink:href="#DejaVuSans-50"/>
       <use x="63.623047" xlink:href="#DejaVuSans-53"/>
       <use x="127.246094" xlink:href="#DejaVuSans-48"/>
      </g>
     </g>
    </g>
    <g id="xtick_3">
     <g id="line2d_3">
      <g>
       <use style="stroke:#000000;stroke-width:0.8;" x="319.713098" xlink:href="#m8f6c795b11" y="384.48"/>
      </g>
     </g>
     <g id="text_3">
      <!-- 500 -->
      <g transform="translate(310.169348 399.078438)scale(0.1 -0.1)">
       <use xlink:href="#DejaVuSans-53"/>
       <use x="63.623047" xlink:href="#DejaVuSans-48"/>
       <use x="127.246094" xlink:href="#DejaVuSans-48"/>
      </g>
     </g>
    </g>
    <g id="xtick_4">
     <g id="line2d_4">
      <g>
       <use style="stroke:#000000;stroke-width:0.8;" x="410.351465" xlink:href="#m8f6c795b11" y="384.48"/>
      </g>
     </g>
     <g id="text_4">
      <!-- 750 -->
      <defs>
       <path d="M 8.203125 72.90625 
L 55.078125 72.90625 
L 55.078125 68.703125 
L 28.609375 0 
L 18.3125 0 
L 43.21875 64.59375 
L 8.203125 64.59375 
z
" id="DejaVuSans-55"/>
      </defs>
      <g transform="translate(400.807715 399.078438)scale(0.1 -0.1)">
       <use xlink:href="#DejaVuSans-55"/>
       <use x="63.623047" xlink:href="#DejaVuSans-53"/>
       <use x="127.246094" xlink:href="#DejaVuSans-48"/>
      </g>
     </g>
    </g>
    <g id="xtick_5">
     <g id="line2d_5">
      <g>
       <use style="stroke:#000000;stroke-width:0.8;" x="500.989832" xlink:href="#m8f6c795b11" y="384.48"/>
      </g>
     </g>
     <g id="text_5">
      <!-- 1000 -->
      <defs>
       <path d="M 12.40625 8.296875 
L 28.515625 8.296875 
L 28.515625 63.921875 
L 10.984375 60.40625 
L 10.984375 69.390625 
L 28.421875 72.90625 
L 38.28125 72.90625 
L 38.28125 8.296875 
L 54.390625 8.296875 
L 54.390625 0 
L 12.40625 0 
z
" id="DejaVuSans-49"/>
      </defs>
      <g transform="translate(488.264832 399.078438)scale(0.1 -0.1)">
       <use xlink:href="#DejaVuSans-49"/>
       <use x="63.623047" xlink:href="#DejaVuSans-48"/>
       <use x="127.246094" xlink:href="#DejaVuSans-48"/>
       <use x="190.869141" xlink:href="#DejaVuSans-48"/>
      </g>
     </g>
    </g>
    <g id="xtick_6">
     <g id="line2d_6">
      <g>
       <use style="stroke:#000000;stroke-width:0.8;" x="591.628199" xlink:href="#m8f6c795b11" y="384.48"/>
      </g>
     </g>
     <g id="text_6">
      <!-- 1250 -->
      <g transform="translate(578.903199 399.078438)scale(0.1 -0.1)">
       <use xlink:href="#DejaVuSans-49"/>
       <use x="63.623047" xlink:href="#DejaVuSans-50"/>
       <use x="127.246094" xlink:href="#DejaVuSans-53"/>
       <use x="190.869141" xlink:href="#DejaVuSans-48"/>
      </g>
     </g>
    </g>
    <g id="xtick_7">
     <g id="line2d_7">
      <g>
       <use style="stroke:#000000;stroke-width:0.8;" x="682.266566" xlink:href="#m8f6c795b11" y="384.48"/>
      </g>
     </g>
     <g id="text_7">
      <!-- 1500 -->
      <g transform="translate(669.541566 399.078438)scale(0.1 -0.1)">
       <use xlink:href="#DejaVuSans-49"/>
       <use x="63.623047" xlink:href="#DejaVuSans-53"/>
       <use x="127.246094" xlink:href="#DejaVuSans-48"/>
       <use x="190.869141" xlink:href="#DejaVuSans-48"/>
      </g>
     </g>
    </g>
    <g id="xtick_8">
     <g id="line2d_8">
      <g>
       <use style="stroke:#000000;stroke-width:0.8;" x="772.904933" xlink:href="#m8f6c795b11" y="384.48"/>
      </g>
     </g>
     <g id="text_8">
      <!-- 1750 -->
      <g transform="translate(760.179933 399.078438)scale(0.1 -0.1)">
       <use xlink:href="#DejaVuSans-49"/>
       <use x="63.623047" xlink:href="#DejaVuSans-55"/>
       <use x="127.246094" xlink:href="#DejaVuSans-53"/>
       <use x="190.869141" xlink:href="#DejaVuSans-48"/>
      </g>
     </g>
    </g>
    <g id="text_9">
     <!-- Timestamp -->
     <defs>
      <path d="M -0.296875 72.90625 
L 61.375 72.90625 
L 61.375 64.59375 
L 35.5 64.59375 
L 35.5 0 
L 25.59375 0 
L 25.59375 64.59375 
L -0.296875 64.59375 
z
" id="DejaVuSans-84"/>
      <path d="M 9.421875 54.6875 
L 18.40625 54.6875 
L 18.40625 0 
L 9.421875 0 
z
M 9.421875 75.984375 
L 18.40625 75.984375 
L 18.40625 64.59375 
L 9.421875 64.59375 
z
" id="DejaVuSans-105"/>
      <path d="M 52 44.1875 
Q 55.375 50.25 60.0625 53.125 
Q 64.75 56 71.09375 56 
Q 79.640625 56 84.28125 50.015625 
Q 88.921875 44.046875 88.921875 33.015625 
L 88.921875 0 
L 79.890625 0 
L 79.890625 32.71875 
Q 79.890625 40.578125 77.09375 44.375 
Q 74.3125 48.1875 68.609375 48.1875 
Q 61.625 48.1875 57.5625 43.546875 
Q 53.515625 38.921875 53.515625 30.90625 
L 53.515625 0 
L 44.484375 0 
L 44.484375 32.71875 
Q 44.484375 40.625 41.703125 44.40625 
Q 38.921875 48.1875 33.109375 48.1875 
Q 26.21875 48.1875 22.15625 43.53125 
Q 18.109375 38.875 18.109375 30.90625 
L 18.109375 0 
L 9.078125 0 
L 9.078125 54.6875 
L 18.109375 54.6875 
L 18.109375 46.1875 
Q 21.1875 51.21875 25.484375 53.609375 
Q 29.78125 56 35.6875 56 
Q 41.65625 56 45.828125 52.96875 
Q 50 49.953125 52 44.1875 
z
" id="DejaVuSans-109"/>
      <path d="M 56.203125 29.59375 
L 56.203125 25.203125 
L 14.890625 25.203125 
Q 15.484375 15.921875 20.484375 11.0625 
Q 25.484375 6.203125 34.421875 6.203125 
Q 39.59375 6.203125 44.453125 7.46875 
Q 49.3125 8.734375 54.109375 11.28125 
L 54.109375 2.78125 
Q 49.265625 0.734375 44.1875 -0.34375 
Q 39.109375 -1.421875 33.890625 -1.421875 
Q 20.796875 -1.421875 13.15625 6.1875 
Q 5.515625 13.8125 5.515625 26.8125 
Q 5.515625 40.234375 12.765625 48.109375 
Q 20.015625 56 32.328125 56 
Q 43.359375 56 49.78125 48.890625 
Q 56.203125 41.796875 56.203125 29.59375 
z
M 47.21875 32.234375 
Q 47.125 39.59375 43.09375 43.984375 
Q 39.0625 48.390625 32.421875 48.390625 
Q 24.90625 48.390625 20.390625 44.140625 
Q 15.875 39.890625 15.1875 32.171875 
z
" id="DejaVuSans-101"/>
      <path d="M 44.28125 53.078125 
L 44.28125 44.578125 
Q 40.484375 46.53125 36.375 47.5 
Q 32.28125 48.484375 27.875 48.484375 
Q 21.1875 48.484375 17.84375 46.4375 
Q 14.5 44.390625 14.5 40.28125 
Q 14.5 37.15625 16.890625 35.375 
Q 19.28125 33.59375 26.515625 31.984375 
L 29.59375 31.296875 
Q 39.15625 29.25 43.1875 25.515625 
Q 47.21875 21.78125 47.21875 15.09375 
Q 47.21875 7.46875 41.1875 3.015625 
Q 35.15625 -1.421875 24.609375 -1.421875 
Q 20.21875 -1.421875 15.453125 -0.5625 
Q 10.6875 0.296875 5.421875 2 
L 5.421875 11.28125 
Q 10.40625 8.6875 15.234375 7.390625 
Q 20.0625 6.109375 24.8125 6.109375 
Q 31.15625 6.109375 34.5625 8.28125 
Q 37.984375 10.453125 37.984375 14.40625 
Q 37.984375 18.0625 35.515625 20.015625 
Q 33.0625 21.96875 24.703125 23.78125 
L 21.578125 24.515625 
Q 13.234375 26.265625 9.515625 29.90625 
Q 5.8125 33.546875 5.8125 39.890625 
Q 5.8125 47.609375 11.28125 51.796875 
Q 16.75 56 26.8125 56 
Q 31.78125 56 36.171875 55.265625 
Q 40.578125 54.546875 44.28125 53.078125 
z
" id="DejaVuSans-115"/>
      <path d="M 18.3125 70.21875 
L 18.3125 54.6875 
L 36.8125 54.6875 
L 36.8125 47.703125 
L 18.3125 47.703125 
L 18.3125 18.015625 
Q 18.3125 11.328125 20.140625 9.421875 
Q 21.96875 7.515625 27.59375 7.515625 
L 36.8125 7.515625 
L 36.8125 0 
L 27.59375 0 
Q 17.1875 0 13.234375 3.875 
Q 9.28125 7.765625 9.28125 18.015625 
L 9.28125 47.703125 
L 2.6875 47.703125 
L 2.6875 54.6875 
L 9.28125 54.6875 
L 9.28125 70.21875 
z
" id="DejaVuSans-116"/>
      <path d="M 34.28125 27.484375 
Q 23.390625 27.484375 19.1875 25 
Q 14.984375 22.515625 14.984375 16.5 
Q 14.984375 11.71875 18.140625 8.90625 
Q 21.296875 6.109375 26.703125 6.109375 
Q 34.1875 6.109375 38.703125 11.40625 
Q 43.21875 16.703125 43.21875 25.484375 
L 43.21875 27.484375 
z
M 52.203125 31.203125 
L 52.203125 0 
L 43.21875 0 
L 43.21875 8.296875 
Q 40.140625 3.328125 35.546875 0.953125 
Q 30.953125 -1.421875 24.3125 -1.421875 
Q 15.921875 -1.421875 10.953125 3.296875 
Q 6 8.015625 6 15.921875 
Q 6 25.140625 12.171875 29.828125 
Q 18.359375 34.515625 30.609375 34.515625 
L 43.21875 34.515625 
L 43.21875 35.40625 
Q 43.21875 41.609375 39.140625 45 
Q 35.0625 48.390625 27.6875 48.390625 
Q 23 48.390625 18.546875 47.265625 
Q 14.109375 46.140625 10.015625 43.890625 
L 10.015625 52.203125 
Q 14.9375 54.109375 19.578125 55.046875 
Q 24.21875 56 28.609375 56 
Q 40.484375 56 46.34375 49.84375 
Q 52.203125 43.703125 52.203125 31.203125 
z
" id="DejaVuSans-97"/>
      <path d="M 18.109375 8.203125 
L 18.109375 -20.796875 
L 9.078125 -20.796875 
L 9.078125 54.6875 
L 18.109375 54.6875 
L 18.109375 46.390625 
Q 20.953125 51.265625 25.265625 53.625 
Q 29.59375 56 35.59375 56 
Q 45.5625 56 51.78125 48.09375 
Q 58.015625 40.1875 58.015625 27.296875 
Q 58.015625 14.40625 51.78125 6.484375 
Q 45.5625 -1.421875 35.59375 -1.421875 
Q 29.59375 -1.421875 25.265625 0.953125 
Q 20.953125 3.328125 18.109375 8.203125 
z
M 48.6875 27.296875 
Q 48.6875 37.203125 44.609375 42.84375 
Q 40.53125 48.484375 33.40625 48.484375 
Q 26.265625 48.484375 22.1875 42.84375 
Q 18.109375 37.203125 18.109375 27.296875 
Q 18.109375 17.390625 22.1875 11.75 
Q 26.265625 6.109375 33.40625 6.109375 
Q 40.53125 6.109375 44.609375 11.75 
Q 48.6875 17.390625 48.6875 27.296875 
z
" id="DejaVuSans-112"/>
     </defs>
     <g transform="translate(414.739062 412.756563)scale(0.1 -0.1)">
      <use xlink:href="#DejaVuSans-84"/>
      <use x="61.037109" xlink:href="#DejaVuSans-105"/>
      <use x="88.820312" xlink:href="#DejaVuSans-109"/>
      <use x="186.232422" xlink:href="#DejaVuSans-101"/>
      <use x="247.755859" xlink:href="#DejaVuSans-115"/>
      <use x="299.855469" xlink:href="#DejaVuSans-116"/>
      <use x="339.064453" xlink:href="#DejaVuSans-97"/>
      <use x="400.34375" xlink:href="#DejaVuSans-109"/>
      <use x="497.755859" xlink:href="#DejaVuSans-112"/>
     </g>
    </g>
   </g>
   <g id="matplotlib.axis_2">
    <g id="ytick_1">
     <g id="line2d_9">
      <defs>
       <path d="M 0 0 
L -3.5 0 
" id="m4b16f19dbf" style="stroke:#000000;stroke-width:0.8;"/>
      </defs>
      <g>
       <use style="stroke:#000000;stroke-width:0.8;" x="108" xlink:href="#m4b16f19dbf" y="366.703102"/>
      </g>
     </g>
     <g id="text_10">
      <!-- −1000 -->
      <defs>
       <path d="M 10.59375 35.5 
L 73.1875 35.5 
L 73.1875 27.203125 
L 10.59375 27.203125 
z
" id="DejaVuSans-8722"/>
      </defs>
      <g transform="translate(67.170312 370.502321)scale(0.1 -0.1)">
       <use xlink:href="#DejaVuSans-8722"/>
       <use x="83.789062" xlink:href="#DejaVuSans-49"/>
       <use x="147.412109" xlink:href="#DejaVuSans-48"/>
       <use x="211.035156" xlink:href="#DejaVuSans-48"/>
       <use x="274.658203" xlink:href="#DejaVuSans-48"/>
      </g>
     </g>
    </g>
    <g id="ytick_2">
     <g id="line2d_10">
      <g>
       <use style="stroke:#000000;stroke-width:0.8;" x="108" xlink:href="#m4b16f19dbf" y="311.740268"/>
      </g>
     </g>
     <g id="text_11">
      <!-- 0 -->
      <g transform="translate(94.6375 315.539487)scale(0.1 -0.1)">
       <use xlink:href="#DejaVuSans-48"/>
      </g>
     </g>
    </g>
    <g id="ytick_3">
     <g id="line2d_11">
      <g>
       <use style="stroke:#000000;stroke-width:0.8;" x="108" xlink:href="#m4b16f19dbf" y="256.777434"/>
      </g>
     </g>
     <g id="text_12">
      <!-- 1000 -->
      <g transform="translate(75.55 260.576653)scale(0.1 -0.1)">
       <use xlink:href="#DejaVuSans-49"/>
       <use x="63.623047" xlink:href="#DejaVuSans-48"/>
       <use x="127.246094" xlink:href="#DejaVuSans-48"/>
       <use x="190.869141" xlink:href="#DejaVuSans-48"/>
      </g>
     </g>
    </g>
    <g id="ytick_4">
     <g id="line2d_12">
      <g>
       <use style="stroke:#000000;stroke-width:0.8;" x="108" xlink:href="#m4b16f19dbf" y="201.814601"/>
      </g>
     </g>
     <g id="text_13">
      <!-- 2000 -->
      <g transform="translate(75.55 205.613819)scale(0.1 -0.1)">
       <use xlink:href="#DejaVuSans-50"/>
       <use x="63.623047" xlink:href="#DejaVuSans-48"/>
       <use x="127.246094" xlink:href="#DejaVuSans-48"/>
       <use x="190.869141" xlink:href="#DejaVuSans-48"/>
      </g>
     </g>
    </g>
    <g id="ytick_5">
     <g id="line2d_13">
      <g>
       <use style="stroke:#000000;stroke-width:0.8;" x="108" xlink:href="#m4b16f19dbf" y="146.851767"/>
      </g>
     </g>
     <g id="text_14">
      <!-- 3000 -->
      <defs>
       <path d="M 40.578125 39.3125 
Q 47.65625 37.796875 51.625 33 
Q 55.609375 28.21875 55.609375 21.1875 
Q 55.609375 10.40625 48.1875 4.484375 
Q 40.765625 -1.421875 27.09375 -1.421875 
Q 22.515625 -1.421875 17.65625 -0.515625 
Q 12.796875 0.390625 7.625 2.203125 
L 7.625 11.71875 
Q 11.71875 9.328125 16.59375 8.109375 
Q 21.484375 6.890625 26.8125 6.890625 
Q 36.078125 6.890625 40.9375 10.546875 
Q 45.796875 14.203125 45.796875 21.1875 
Q 45.796875 27.640625 41.28125 31.265625 
Q 36.765625 34.90625 28.71875 34.90625 
L 20.21875 34.90625 
L 20.21875 43.015625 
L 29.109375 43.015625 
Q 36.375 43.015625 40.234375 45.921875 
Q 44.09375 48.828125 44.09375 54.296875 
Q 44.09375 59.90625 40.109375 62.90625 
Q 36.140625 65.921875 28.71875 65.921875 
Q 24.65625 65.921875 20.015625 65.03125 
Q 15.375 64.15625 9.8125 62.3125 
L 9.8125 71.09375 
Q 15.4375 72.65625 20.34375 73.4375 
Q 25.25 74.21875 29.59375 74.21875 
Q 40.828125 74.21875 47.359375 69.109375 
Q 53.90625 64.015625 53.90625 55.328125 
Q 53.90625 49.265625 50.4375 45.09375 
Q 46.96875 40.921875 40.578125 39.3125 
z
" id="DejaVuSans-51"/>
      </defs>
      <g transform="translate(75.55 150.650986)scale(0.1 -0.1)">
       <use xlink:href="#DejaVuSans-51"/>
       <use x="63.623047" xlink:href="#DejaVuSans-48"/>
       <use x="127.246094" xlink:href="#DejaVuSans-48"/>
       <use x="190.869141" xlink:href="#DejaVuSans-48"/>
      </g>
     </g>
    </g>
    <g id="ytick_6">
     <g id="line2d_14">
      <g>
       <use style="stroke:#000000;stroke-width:0.8;" x="108" xlink:href="#m4b16f19dbf" y="91.888933"/>
      </g>
     </g>
     <g id="text_15">
      <!-- 4000 -->
      <defs>
       <path d="M 37.796875 64.3125 
L 12.890625 25.390625 
L 37.796875 25.390625 
z
M 35.203125 72.90625 
L 47.609375 72.90625 
L 47.609375 25.390625 
L 58.015625 25.390625 
L 58.015625 17.1875 
L 47.609375 17.1875 
L 47.609375 0 
L 37.796875 0 
L 37.796875 17.1875 
L 4.890625 17.1875 
L 4.890625 26.703125 
z
" id="DejaVuSans-52"/>
      </defs>
      <g transform="translate(75.55 95.688152)scale(0.1 -0.1)">
       <use xlink:href="#DejaVuSans-52"/>
       <use x="63.623047" xlink:href="#DejaVuSans-48"/>
       <use x="127.246094" xlink:href="#DejaVuSans-48"/>
       <use x="190.869141" xlink:href="#DejaVuSans-48"/>
      </g>
     </g>
    </g>
    <g id="text_16">
     <!-- Value -->
     <defs>
      <path d="M 28.609375 0 
L 0.78125 72.90625 
L 11.078125 72.90625 
L 34.1875 11.53125 
L 57.328125 72.90625 
L 67.578125 72.90625 
L 39.796875 0 
z
" id="DejaVuSans-86"/>
      <path d="M 9.421875 75.984375 
L 18.40625 75.984375 
L 18.40625 0 
L 9.421875 0 
z
" id="DejaVuSans-108"/>
      <path d="M 8.5 21.578125 
L 8.5 54.6875 
L 17.484375 54.6875 
L 17.484375 21.921875 
Q 17.484375 14.15625 20.5 10.265625 
Q 23.53125 6.390625 29.59375 6.390625 
Q 36.859375 6.390625 41.078125 11.03125 
Q 45.3125 15.671875 45.3125 23.6875 
L 45.3125 54.6875 
L 54.296875 54.6875 
L 54.296875 0 
L 45.3125 0 
L 45.3125 8.40625 
Q 42.046875 3.421875 37.71875 1 
Q 33.40625 -1.421875 27.6875 -1.421875 
Q 18.265625 -1.421875 13.375 4.4375 
Q 8.5 10.296875 8.5 21.578125 
z
M 31.109375 56 
z
" id="DejaVuSans-117"/>
     </defs>
     <g transform="translate(61.090625 232.273281)rotate(-90)scale(0.1 -0.1)">
      <use xlink:href="#DejaVuSans-86"/>
      <use x="68.298828" xlink:href="#DejaVuSans-97"/>
      <use x="129.578125" xlink:href="#DejaVuSans-108"/>
      <use x="157.361328" xlink:href="#DejaVuSans-117"/>
      <use x="220.740234" xlink:href="#DejaVuSans-101"/>
     </g>
    </g>
   </g>
   <g id="line2d_15">
    <path clip-path="url(#p3ad7d51443)" d="M 138.436364 314.088528 
L 139.161471 268.115406 
L 139.524024 258.190498 
L 139.886578 259.698345 
L 140.611684 282.703384 
L 140.974238 304.698367 
L 141.336791 314.49286 
L 141.699345 319.975221 
L 142.061898 319.866059 
L 142.424452 311.559594 
L 142.787005 296.098017 
L 143.512112 280.712379 
L 144.237219 291.156519 
L 144.599773 299.284583 
L 145.32488 338.11709 
L 145.687433 347.052067 
L 146.049986 346.345684 
L 146.41254 339.518776 
L 148.225307 240.426857 
L 148.587861 240.643405 
L 150.400628 304.965551 
L 150.763182 307.388651 
L 151.125735 292.999756 
L 151.850842 282.178144 
L 152.213395 269.34506 
L 152.575949 272.288287 
L 152.938502 279.641062 
L 154.026163 326.043726 
L 154.388716 336.727072 
L 154.75127 337.117189 
L 155.113823 328.969078 
L 156.201484 263.481094 
L 156.926591 234.79214 
L 157.289144 240.540025 
L 158.014251 262.493218 
L 158.376804 282.493011 
L 159.101911 305.739471 
L 159.464465 305.320403 
L 159.827018 302.770861 
L 160.189572 295.838778 
L 160.914679 270.978036 
L 161.277232 274.940835 
L 161.639786 284.093372 
L 162.727446 332.135477 
L 163.452553 345.561203 
L 163.815106 337.272635 
L 164.17766 319.504614 
L 164.902767 269.995433 
L 165.26532 253.171014 
L 165.627874 247.150738 
L 165.990427 250.72709 
L 166.352981 262.802975 
L 166.715534 266.110305 
L 167.440641 313.619663 
L 167.803195 318.400865 
L 168.165748 320.57594 
L 168.528301 308.075923 
L 169.615962 289.383943 
L 169.978515 284.573216 
L 171.428729 346.134206 
L 171.791283 359.363946 
L 172.153836 359.466665 
L 172.51639 348.518134 
L 172.878943 332.42266 
L 173.60405 289.484007 
L 173.966603 271.945389 
L 174.329157 264.226446 
L 174.69171 261.328309 
L 175.054264 270.471087 
L 175.779371 307.417795 
L 176.141924 325.322503 
L 176.504478 327.143296 
L 176.867031 336.835061 
L 177.229585 330.939832 
L 177.954692 308.980589 
L 178.679799 300.317202 
L 179.042352 304.700223 
L 179.767459 340.312266 
L 180.130012 360.79499 
L 180.492566 369.36 
L 181.217673 360.214762 
L 183.03044 260.841248 
L 183.392994 264.163614 
L 184.843208 324.609884 
L 185.205761 334.985467 
L 185.568314 333.358433 
L 185.930868 327.851748 
L 186.293421 318.618955 
L 186.655975 306.357504 
L 187.018528 298.696338 
L 187.381082 297.903189 
L 187.743635 307.873491 
L 188.106189 322.026768 
L 188.468742 343.874374 
L 189.193849 365.424373 
L 189.556403 368.697938 
L 191.36917 270.499766 
L 191.731723 261.608072 
L 192.094277 260.062694 
L 192.45683 267.907086 
L 193.181937 295.027361 
L 193.544491 311.555053 
L 193.907044 318.500328 
L 194.269598 319.091157 
L 194.632151 318.80467 
L 194.994705 295.66547 
L 195.719812 282.398025 
L 196.082365 289.706803 
L 196.444919 294.063056 
L 197.170025 319.213371 
L 197.532579 340.9376 
L 197.895132 351.128987 
L 198.257686 348.431213 
L 198.982793 315.708708 
L 200.070453 245.893353 
L 200.433007 245.816833 
L 200.79556 243.036583 
L 201.158114 256.18806 
L 201.520667 264.552847 
L 202.245774 298.968217 
L 202.608327 305.852262 
L 203.333434 296.336769 
L 203.695988 284.446679 
L 204.058541 268.667367 
L 204.421095 269.276664 
L 204.783648 262.486793 
L 205.146202 272.300209 
L 205.508755 286.834153 
L 206.233862 320.684502 
L 206.596416 327.475482 
L 207.321523 320.071053 
L 209.13429 221.558427 
L 209.496843 222.801028 
L 209.859397 232.644501 
L 210.22195 249.888081 
L 210.584504 259.273003 
L 210.947057 279.340557 
L 211.672164 290.896142 
L 212.034718 276.956632 
L 213.122378 252.02161 
L 213.484932 250.602234 
L 214.210038 275.671912 
L 214.935145 308.930388 
L 215.297699 320.888444 
L 215.660252 312.701641 
L 216.022806 308.652863 
L 216.747913 266.504703 
L 217.110466 244.181873 
L 217.47302 229.770825 
L 217.835573 220.403386 
L 218.198127 219.04074 
L 218.56068 226.229441 
L 219.64834 272.979501 
L 220.373447 291.001304 
L 220.736001 282.762572 
L 221.098554 268.855796 
L 221.461108 264.824256 
L 221.823661 259.245555 
L 222.186215 257.18203 
L 222.548768 265.565393 
L 223.998982 324.799816 
L 224.361536 326.609684 
L 224.724089 313.672978 
L 225.086642 296.496226 
L 225.449196 272.767184 
L 226.536856 225.559179 
L 226.89941 233.065025 
L 227.624517 260.536297 
L 228.349624 287.812697 
L 228.712177 296.269111 
L 229.074731 299.801858 
L 229.437284 289.681237 
L 229.799838 286.155855 
L 230.162391 274.350346 
L 230.524945 267.942098 
L 230.887498 266.34148 
L 231.250051 274.967277 
L 231.975158 313.231375 
L 232.700265 334.808626 
L 233.062819 339.93075 
L 233.425372 329.815702 
L 234.513033 269.653299 
L 234.875586 247.559415 
L 235.23814 243.649381 
L 235.600693 243.974592 
L 235.963247 252.31677 
L 237.050907 301.002534 
L 237.41346 306.277082 
L 237.776014 313.976217 
L 238.138567 314.142574 
L 238.501121 295.71035 
L 239.226228 277.390758 
L 239.588781 276.355527 
L 239.951335 292.406426 
L 240.313888 301.735982 
L 240.676442 324.730783 
L 241.401549 350.466507 
L 241.764102 346.43256 
L 242.126655 337.134013 
L 243.576869 259.384185 
L 243.939423 251.188569 
L 244.301976 246.499404 
L 244.66453 256.979842 
L 246.114744 315.722299 
L 246.477297 319.954783 
L 246.839851 302.746529 
L 247.202404 295.390944 
L 247.564957 284.490278 
L 247.927511 281.926154 
L 248.290064 281.287589 
L 248.652618 288.567525 
L 249.015171 298.547621 
L 249.377725 323.027731 
L 250.102832 339.227961 
L 250.465385 340.434819 
L 250.827939 334.848229 
L 251.553046 299.799816 
L 252.278153 253.604889 
L 252.640706 238.78892 
L 253.00326 240.540369 
L 253.728366 265.617425 
L 254.453473 295.881769 
L 254.816027 303.47107 
L 255.17858 302.387015 
L 255.541134 297.115571 
L 255.903687 281.4897 
L 256.266241 272.46939 
L 256.628794 259.434968 
L 256.991348 261.270602 
L 257.716455 286.109117 
L 258.079008 308.905059 
L 258.804115 328.846363 
L 259.529222 317.314555 
L 260.254329 274.16929 
L 261.341989 215.383301 
L 261.704543 222.763569 
L 262.42965 244.158132 
L 262.792203 261.073194 
L 263.51731 281.514997 
L 263.879864 289.084138 
L 264.242417 278.070936 
L 264.60497 259.27794 
L 264.967524 252.558155 
L 265.330077 243.349341 
L 265.692631 245.729737 
L 266.417738 264.617706 
L 266.780291 288.002583 
L 267.142845 298.118808 
L 267.505398 312.265688 
L 267.867952 306.354909 
L 268.230505 296.498028 
L 268.593059 280.921065 
L 269.680719 210.15424 
L 270.043273 204.729892 
L 270.405826 206.068003 
L 271.130933 225.569202 
L 271.85604 260.57857 
L 272.218593 269.493869 
L 272.581147 267.876437 
L 272.9437 263.214319 
L 273.306254 250.338609 
L 273.668807 248.822021 
L 274.031361 238.075394 
L 274.393914 231.989916 
L 274.756468 242.841035 
L 275.119021 259.711501 
L 275.844128 284.256142 
L 276.206681 297.361291 
L 276.569235 297.319352 
L 276.931788 290.325978 
L 278.019449 231.329476 
L 278.744556 192.334202 
L 279.107109 205.632568 
L 279.469663 210.279573 
L 279.832216 224.489883 
L 280.19477 247.904054 
L 280.919877 271.122259 
L 281.28243 264.614231 
L 281.644983 266.769126 
L 282.007537 248.644841 
L 282.37009 241.247543 
L 282.732644 237.566796 
L 283.095197 237.241448 
L 283.820304 256.054558 
L 284.182858 280.557475 
L 284.907965 309.846472 
L 285.270518 309.363908 
L 285.995625 275.593695 
L 287.445839 207.560436 
L 287.808392 211.900769 
L 288.170946 220.996276 
L 288.896053 255.798551 
L 289.62116 277.033428 
L 289.983713 283.352926 
L 290.346267 277.489778 
L 291.071374 258.375343 
L 291.433927 251.37456 
L 291.796481 250.311763 
L 292.159034 261.966075 
L 293.609248 327.319634 
L 293.971801 323.952054 
L 294.696908 296.118426 
L 295.784569 226.377558 
L 296.147122 224.508714 
L 296.509676 226.300418 
L 296.872229 234.548918 
L 297.95989 285.058968 
L 298.322443 297.767986 
L 298.684996 296.675481 
L 299.04755 288.478595 
L 299.772657 262.809095 
L 300.13521 256.832263 
L 300.860317 268.215224 
L 301.947978 322.392191 
L 302.310531 325.629917 
L 302.673085 330.722778 
L 303.035638 322.403107 
L 304.485852 239.653923 
L 304.848405 227.464803 
L 305.210959 230.335623 
L 305.573512 244.240379 
L 305.936066 253.64652 
L 306.661173 287.16594 
L 307.38628 302.563529 
L 308.111387 277.629904 
L 308.47394 267.144247 
L 308.836494 265.183024 
L 309.199047 264.304932 
L 309.561601 270.124231 
L 309.924154 280.144266 
L 310.286707 307.919375 
L 311.011814 322.645529 
L 311.374368 326.070696 
L 311.736921 315.818065 
L 312.099475 299.529622 
L 312.462028 270.479171 
L 312.824582 254.344674 
L 313.187135 229.522135 
L 313.549689 219.991061 
L 313.912242 219.633043 
L 314.637349 244.722621 
L 315.362456 282.344239 
L 315.725009 282.498855 
L 316.087563 283.851432 
L 316.450116 277.788399 
L 316.81267 260.501771 
L 317.175223 254.44435 
L 317.537777 253.223876 
L 317.90033 249.984089 
L 318.262884 253.975972 
L 319.713098 314.475729 
L 320.075651 310.371694 
L 320.438205 299.204534 
L 320.800758 282.472058 
L 321.163311 251.507481 
L 321.888418 215.951492 
L 322.250972 202.919092 
L 322.613525 203.295667 
L 322.976079 209.516811 
L 323.338632 230.86439 
L 324.063739 259.589057 
L 324.426293 260.35633 
L 324.788846 262.727699 
L 325.1514 262.060104 
L 325.513953 243.11286 
L 325.876507 235.101262 
L 326.23906 230.948897 
L 326.601614 228.510867 
L 326.964167 235.304252 
L 327.32672 247.058655 
L 328.051827 280.812275 
L 328.414381 294.770547 
L 328.776934 292.424481 
L 329.139488 280.492128 
L 329.502041 254.546296 
L 329.864595 238.415908 
L 330.589702 196.225576 
L 330.952255 187.159293 
L 331.314809 189.01683 
L 331.677362 195.170089 
L 332.039916 214.851261 
L 333.127576 243.346013 
L 333.490129 250.764864 
L 333.852683 241.440918 
L 334.215236 323.061494 
L 334.57779 221.374418 
L 334.940343 212.992001 
L 335.302897 215.295198 
L 336.390557 255.047437 
L 336.753111 276.731224 
L 337.115664 282.288156 
L 337.478218 278.467609 
L 337.840771 271.895047 
L 338.565878 230.031382 
L 338.928431 207.472594 
L 339.653538 184.701398 
L 340.016092 184.119535 
L 340.741199 208.355021 
L 341.466306 242.898762 
L 341.828859 252.083478 
L 342.191413 252.151478 
L 343.641627 216.733902 
L 344.00418 218.317614 
L 344.729287 243.419964 
L 345.09184 264.039672 
L 345.816947 286.039331 
L 346.179501 292.848707 
L 346.904608 263.610457 
L 347.992268 203.326225 
L 348.354822 190.79711 
L 348.717375 191.90675 
L 349.079929 199.233087 
L 349.805035 241.025041 
L 350.530142 260.61265 
L 350.892696 261.909225 
L 351.255249 254.130666 
L 351.617803 251.670731 
L 351.980356 235.39179 
L 352.34291 231.038323 
L 352.705463 230.971934 
L 353.068017 241.737364 
L 354.155677 293.947155 
L 354.880784 298.869986 
L 355.243337 294.252059 
L 356.693551 211.151747 
L 357.056105 208.455824 
L 357.418658 200.885637 
L 358.143765 229.982125 
L 358.506319 246.368415 
L 358.868872 268.83025 
L 359.231426 275.237648 
L 359.593979 271.521898 
L 359.956533 273.613589 
L 360.68164 248.448013 
L 361.044193 244.373094 
L 361.406746 247.265234 
L 361.7693 249.10395 
L 362.131853 261.069099 
L 362.85696 301.233587 
L 363.219514 312.930852 
L 363.582067 310.666084 
L 363.944621 305.176893 
L 364.307174 287.61598 
L 364.669728 259.084153 
L 365.032281 245.467202 
L 365.394835 217.219026 
L 365.757388 213.386631 
L 366.119942 207.89095 
L 366.845048 236.127509 
L 367.207602 256.488511 
L 367.932709 282.913341 
L 368.657816 273.037637 
L 369.020369 259.564646 
L 369.745476 243.314024 
L 370.10803 244.716929 
L 370.470583 249.097357 
L 371.558244 293.787835 
L 371.920797 302.660598 
L 372.28335 308.022727 
L 372.645904 298.885571 
L 373.008457 283.01265 
L 373.733564 233.298421 
L 374.096118 215.400212 
L 374.458671 211.362577 
L 374.821225 205.228295 
L 375.183778 212.772069 
L 376.271439 260.288797 
L 376.633992 266.117313 
L 376.996546 268.959325 
L 377.359099 260.252009 
L 378.084206 234.365325 
L 378.446759 235.766891 
L 378.809313 234.753777 
L 379.171866 235.707053 
L 379.53442 248.803757 
L 380.259527 281.719023 
L 380.62208 291.003682 
L 380.984634 291.00754 
L 381.347187 277.022294 
L 381.709741 258.167935 
L 382.072294 149.003657 
L 382.434848 210.95558 
L 382.797401 191.811908 
L 383.159955 187.113521 
L 383.522508 187.425394 
L 383.885061 193.762792 
L 384.247615 205.345706 
L 384.610168 227.613732 
L 384.972722 240.216774 
L 385.335275 246.674839 
L 385.697829 241.330802 
L 386.060382 242.960177 
L 386.785489 215.165404 
L 387.510596 211.990508 
L 387.87315 217.157853 
L 389.323363 274.351537 
L 389.685917 271.758079 
L 390.411024 240.43095 
L 390.773577 220.132253 
L 391.136131 193.224331 
L 391.861238 168.753987 
L 392.586345 176.094927 
L 392.948898 191.062624 
L 393.311452 212.866725 
L 393.674005 219.832467 
L 394.036559 224.068984 
L 394.399112 232.162499 
L 394.761665 225.361732 
L 396.211879 189.902449 
L 396.574433 212.627085 
L 396.936986 216.987689 
L 397.29954 237.478991 
L 398.024647 262.671942 
L 398.3872 260.900741 
L 398.749754 256.515241 
L 399.474861 212.942924 
L 400.199968 170.140056 
L 400.562521 165.909215 
L 400.925074 163.671948 
L 401.287628 172.258407 
L 402.012735 208.554475 
L 402.375288 218.762867 
L 402.737842 234.224853 
L 403.100395 236.114842 
L 403.462949 231.324631 
L 404.188056 203.689201 
L 404.550609 200.992805 
L 404.913163 205.03065 
L 405.275716 203.869738 
L 406.000823 246.7144 
L 406.363376 253.641787 
L 407.088483 272.814679 
L 407.81359 243.487132 
L 408.176144 223.247608 
L 408.538697 196.432225 
L 409.263804 173.525967 
L 409.626358 172.213807 
L 409.988911 190.595166 
L 410.714018 215.472396 
L 411.076572 232.95406 
L 411.439125 242.004353 
L 411.801678 242.923784 
L 413.251892 214.119982 
L 413.614446 216.653153 
L 413.976999 225.23189 
L 414.702106 257.240079 
L 415.06466 274.829963 
L 415.427213 282.540344 
L 415.789767 280.010845 
L 416.15232 273.277738 
L 416.877427 236.126294 
L 417.602534 197.527196 
L 417.965087 188.041061 
L 418.327641 189.047341 
L 418.690194 197.404894 
L 419.415301 234.037197 
L 419.777855 249.706686 
L 420.502962 258.254029 
L 420.865515 252.519489 
L 421.590622 230.083772 
L 421.953176 227.496666 
L 422.315729 227.788205 
L 422.678283 232.704547 
L 423.040836 246.450379 
L 423.403389 268.33499 
L 424.128496 288.543623 
L 424.49105 299.054394 
L 424.853603 284.24757 
L 426.303817 204.021824 
L 426.666371 190.707314 
L 427.028924 198.217455 
L 427.391478 202.122799 
L 427.754031 216.651442 
L 428.479138 253.916622 
L 428.841691 260.25064 
L 429.204245 259.057156 
L 429.566798 252.30194 
L 429.929352 242.732848 
L 430.291905 223.518617 
L 430.654459 230.484669 
L 431.017012 227.160007 
L 431.379566 230.066333 
L 431.742119 252.500939 
L 432.467226 273.830498 
L 432.82978 293.555402 
L 433.192333 290.724537 
L 433.91744 260.772073 
L 434.642547 212.746894 
L 435.0051 195.523825 
L 435.367654 188.40999 
L 435.730207 186.452615 
L 436.092761 195.608972 
L 436.817868 227.98876 
L 437.180421 240.991366 
L 437.542975 246.903756 
L 437.905528 249.692309 
L 438.268082 241.943454 
L 438.993189 217.281735 
L 439.355742 213.647244 
L 439.718296 208.737933 
L 440.805956 243.251048 
L 441.168509 259.562354 
L 441.531063 268.870955 
L 441.893616 271.925458 
L 442.618723 249.40457 
L 443.34383 195.354122 
L 444.068937 166.000616 
L 444.431491 167.42687 
L 444.794044 175.567924 
L 445.156598 186.583254 
L 445.519151 205.24914 
L 445.881704 215.40301 
L 446.244258 232.300454 
L 446.969365 219.959878 
L 447.694472 195.650494 
L 448.419579 185.616875 
L 449.869793 244.838768 
L 450.232346 249.65799 
L 450.5949 252.595925 
L 450.957453 242.637434 
L 451.68256 203.974241 
L 452.407667 159.335955 
L 452.77022 150.944123 
L 453.132774 150.433898 
L 453.495327 158.050967 
L 453.857881 173.525257 
L 454.220434 195.498931 
L 454.582988 201.916287 
L 454.945541 211.962694 
L 455.308095 214.83976 
L 456.395755 183.140554 
L 456.758309 181.543854 
L 457.120862 175.634308 
L 457.483415 185.356333 
L 457.845969 205.292438 
L 458.933629 247.091439 
L 459.296183 248.441706 
L 460.02129 213.742933 
L 460.383843 189.48489 
L 460.746397 174.566516 
L 461.10895 154.173818 
L 461.471504 147.815466 
L 461.834057 147.2003 
L 462.196611 156.863796 
L 463.284271 207.081922 
L 463.646824 213.714757 
L 464.009378 213.241035 
L 464.734485 197.203536 
L 465.097038 181.875914 
L 465.459592 181.503508 
L 465.822145 187.318685 
L 466.184699 188.985994 
L 466.547252 201.752283 
L 467.272359 245.34712 
L 467.634913 252.624203 
L 467.997466 255.729536 
L 468.360019 241.289273 
L 469.810233 159.165243 
L 470.172787 156.440556 
L 470.53534 157.680615 
L 470.897894 172.062532 
L 471.260447 175.523785 
L 471.623001 202.053776 
L 471.985554 209.808491 
L 472.348108 224.397304 
L 472.710661 227.503742 
L 473.073215 213.825611 
L 473.435768 211.802969 
L 473.798322 199.275536 
L 474.160875 193.052711 
L 474.885982 201.950876 
L 475.248535 222.404727 
L 475.611089 234.456689 
L 475.973642 255.143344 
L 476.336196 267.80271 
L 476.698749 273.956807 
L 477.78641 220.002043 
L 478.148963 194.148866 
L 478.87407 166.78545 
L 479.236624 172.256766 
L 479.599177 181.838802 
L 479.96173 195.493975 
L 480.686837 231.153323 
L 481.049391 238.611894 
L 481.774498 231.008429 
L 482.137051 224.377576 
L 482.499605 214.187249 
L 482.862158 208.322485 
L 483.224712 210.943971 
L 483.949819 222.76835 
L 484.312372 252.46379 
L 484.674926 261.53113 
L 485.037479 275.148381 
L 485.400032 278.420627 
L 487.2128 184.087405 
L 487.575353 174.213615 
L 487.937907 174.020493 
L 488.30046 179.614732 
L 488.663014 204.467777 
L 489.750674 246.813561 
L 490.113228 241.963061 
L 490.475781 238.608418 
L 491.563441 205.485469 
L 491.925995 209.9536 
L 492.288548 215.848236 
L 492.651102 226.815816 
L 493.376209 263.897883 
L 493.738762 271.559974 
L 494.463869 258.277775 
L 494.826423 243.253008 
L 495.914083 174.274948 
L 496.276637 167.044278 
L 496.63919 170.525526 
L 497.001743 172.602069 
L 497.72685 207.684264 
L 498.089404 216.192356 
L 498.451957 229.435918 
L 498.814511 232.700137 
L 499.177064 223.89301 
L 499.539618 207.25156 
L 499.902171 198.026048 
L 500.264725 193.924235 
L 500.627278 192.262421 
L 501.714939 229.376889 
L 502.077492 246.130494 
L 502.440045 250.349713 
L 502.802599 253.267865 
L 503.165152 242.458159 
L 503.527706 227.166 
L 503.890259 204.166857 
L 504.252813 172.633395 
L 504.615366 158.769723 
L 504.97792 150.609791 
L 505.340473 146.303206 
L 505.703027 162.921408 
L 506.06558 172.388244 
L 506.790687 202.987338 
L 507.153241 209.154375 
L 507.515794 208.168871 
L 507.878348 199.004342 
L 508.240901 186.002978 
L 508.966008 171.1931 
L 509.328561 170.07754 
L 510.053668 192.434002 
L 510.778775 224.492089 
L 511.141329 233.283552 
L 511.503882 234.696476 
L 512.228989 205.954716 
L 513.31665 138.415247 
L 514.041756 131.439482 
L 514.766863 151.964867 
L 515.129417 173.295877 
L 515.49197 183.900587 
L 515.854524 190.197145 
L 516.217077 190.572128 
L 516.579631 188.267379 
L 516.942184 175.968084 
L 517.667291 162.613811 
L 518.029845 159.485597 
L 519.117505 198.094407 
L 519.480058 219.672838 
L 519.842612 226.146482 
L 520.205165 223.855722 
L 520.567719 215.03613 
L 520.930272 196.946341 
L 521.292826 171.411928 
L 522.380486 126.03763 
L 522.74304 125.218913 
L 523.105593 132.615225 
L 523.8307 167.369317 
L 524.193254 182.124209 
L 524.555807 189.309704 
L 524.91836 191.979811 
L 525.280914 190.506789 
L 526.006021 168.92309 
L 526.368574 165.812368 
L 526.731128 166.903874 
L 527.456235 184.505049 
L 527.818788 200.691986 
L 528.181342 223.694072 
L 528.543895 230.64873 
L 528.906449 230.498436 
L 529.269002 225.406267 
L 529.994109 184.868776 
L 530.719216 142.884629 
L 531.081769 141.239842 
L 531.444323 133.764716 
L 532.16943 164.036853 
L 532.894537 198.353576 
L 533.25709 207.405859 
L 533.619644 201.076871 
L 533.982197 197.762003 
L 534.344751 192.31955 
L 535.069858 173.181541 
L 535.432411 177.947822 
L 535.794965 188.566156 
L 537.245178 246.932823 
L 537.607732 241.163237 
L 537.970285 239.571542 
L 538.332839 223.833375 
L 539.057946 173.178402 
L 539.783053 146.104417 
L 540.145606 148.816781 
L 540.50816 160.717439 
L 541.958373 225.714336 
L 542.68348 214.037855 
L 543.046034 202.266363 
L 543.771141 189.638896 
L 544.133694 188.071255 
L 544.496248 196.635197 
L 544.858801 218.20295 
L 545.583908 242.63902 
L 545.946462 256.475834 
L 546.309015 256.620958 
L 546.671569 244.626607 
L 547.034122 236.357834 
L 547.396676 205.071011 
L 547.759229 184.023969 
L 548.484336 160.524065 
L 548.846889 159.352491 
L 549.209443 167.775986 
L 550.297103 219.811114 
L 550.659657 220.222668 
L 551.02221 223.315343 
L 551.384764 217.6728 
L 552.472424 185.411087 
L 552.834978 187.834725 
L 553.197531 194.310875 
L 554.285191 241.45201 
L 554.647745 250.303146 
L 555.010298 256.209978 
L 556.460512 180.659641 
L 556.823066 157.9079 
L 557.185619 148.074067 
L 557.548173 150.064226 
L 557.910726 156.743907 
L 558.27328 169.809306 
L 558.998386 201.073874 
L 559.36094 213.172692 
L 560.086047 202.642237 
L 560.811154 180.592187 
L 561.173707 174.913749 
L 561.536261 173.888332 
L 562.261368 197.755905 
L 562.986475 225.962881 
L 563.349028 235.275767 
L 564.074135 225.884826 
L 564.436689 213.247673 
L 565.161795 155.334613 
L 565.524349 134.26557 
L 565.886902 130.079172 
L 566.249456 133.798775 
L 566.612009 135.312744 
L 567.337116 170.011929 
L 568.062223 192.348793 
L 568.424777 192.079461 
L 568.78733 183.46261 
L 569.149884 168.675435 
L 569.512437 166.43226 
L 569.874991 154.841956 
L 570.237544 159.735921 
L 570.600097 159.497731 
L 571.325204 189.820155 
L 571.687758 211.637191 
L 572.050311 219.987776 
L 572.412865 213.885312 
L 572.775418 213.848948 
L 573.137972 184.863983 
L 573.863079 143.075885 
L 574.225632 120.699531 
L 574.588186 112.971897 
L 574.950739 114.400558 
L 575.675846 140.395764 
L 576.038399 160.923595 
L 576.400953 171.773368 
L 577.12606 179.769118 
L 578.21372 150.67705 
L 578.938827 145.051383 
L 579.301381 149.400382 
L 580.389041 199.048114 
L 580.751595 207.433687 
L 581.114148 205.239914 
L 581.476701 196.71404 
L 582.201808 159.502463 
L 582.926915 121.951882 
L 583.289469 108.249421 
L 583.652022 113.685403 
L 584.377129 132.13381 
L 584.739683 151.085252 
L 585.102236 156.975193 
L 585.46479 174.441098 
L 585.827343 176.753236 
L 586.189897 172.829024 
L 586.915004 149.009126 
L 587.277557 149.066919 
L 587.64011 145.004436 
L 588.002664 148.838334 
L 588.727771 184.938638 
L 589.452878 213.225746 
L 589.815431 221.198428 
L 590.177985 199.388436 
L 590.540538 192.698523 
L 590.903092 163.872918 
L 591.265645 146.142777 
L 591.628199 120.985305 
L 591.990752 119.089295 
L 592.353306 122.592402 
L 593.078412 144.26083 
L 593.803519 177.566623 
L 594.528626 193.850688 
L 595.253733 173.1102 
L 595.616287 168.438979 
L 595.97884 159.930386 
L 596.341394 157.691761 
L 597.066501 181.834375 
L 597.429054 203.109975 
L 598.154161 229.419515 
L 598.516714 226.804923 
L 598.879268 217.901379 
L 599.241821 205.798299 
L 600.329482 138.939298 
L 600.692035 132.695187 
L 601.054589 131.633022 
L 601.417142 140.437446 
L 602.504803 190.877016 
L 602.867356 196.27534 
L 603.22991 199.535232 
L 603.592463 195.6491 
L 604.31757 175.318634 
L 604.680123 169.221177 
L 605.767784 192.77176 
L 606.492891 229.428672 
L 606.855444 239.678369 
L 607.580551 231.653577 
L 608.305658 188.847675 
L 608.668212 164.109103 
L 609.393319 138.754116 
L 610.118425 145.842407 
L 610.480979 159.925325 
L 610.843532 84.316717 
L 611.206086 196.371163 
L 611.568639 203.959409 
L 611.931193 208.256835 
L 612.6563 191.154841 
L 613.018853 172.917106 
L 613.381407 165.039147 
L 613.74396 176.144406 
L 614.106514 175.307738 
L 614.469067 194.919886 
L 614.831621 204.528079 
L 615.194174 224.918126 
L 615.556727 228.488259 
L 615.919281 237.69913 
L 616.281834 219.112959 
L 616.644388 207.423225 
L 617.369495 154.548033 
L 617.732048 139.270507 
L 618.094602 135.257231 
L 618.457155 134.990516 
L 618.819709 141.958785 
L 619.907369 186.37155 
L 620.269923 192.626381 
L 620.632476 191.036777 
L 620.99503 176.922791 
L 621.357583 178.969467 
L 621.720136 164.110764 
L 622.08269 157.377397 
L 622.445243 157.816107 
L 622.807797 164.758135 
L 623.532904 193.787102 
L 623.895457 201.964583 
L 624.258011 221.237557 
L 624.620564 122.385098 
L 624.983118 205.743638 
L 625.708225 170.13225 
L 626.433332 115.893857 
L 626.795885 114.078182 
L 627.158438 108.491467 
L 628.608652 164.31717 
L 628.971206 171.581785 
L 629.333759 173.585233 
L 630.058866 150.464943 
L 630.42142 146.302925 
L 630.783973 132.143313 
L 631.146527 131.362456 
L 631.50908 138.986432 
L 632.234187 175.251999 
L 632.59674 185.675102 
L 632.959294 200.590463 
L 633.321847 198.017453 
L 633.684401 187.865132 
L 634.046954 173.347671 
L 635.134615 102.947527 
L 635.497168 95.062286 
L 635.859722 95.281901 
L 636.222275 99.213101 
L 636.947382 138.299289 
L 637.309936 146.578302 
L 637.672489 158.62359 
L 638.760149 144.065087 
L 639.122703 127.222383 
L 639.485256 120.904776 
L 639.84781 123.253807 
L 640.572917 148.885863 
L 640.93547 164.132123 
L 641.298024 173.163661 
L 641.660577 185.637868 
L 642.023131 193.102231 
L 643.110791 140.723384 
L 643.473345 112.405353 
L 644.198451 94.276637 
L 644.561005 92.323847 
L 646.373772 157.492941 
L 646.736326 155.402795 
L 647.098879 154.122065 
L 647.461433 139.845307 
L 648.18654 126.232538 
L 648.549093 128.332748 
L 648.911647 134.266362 
L 650.36186 195.793744 
L 650.724414 200.785875 
L 651.086967 189.08467 
L 651.812074 152.573592 
L 652.174628 124.815368 
L 652.537181 108.16729 
L 652.899735 101.027405 
L 653.262288 103.150156 
L 653.624842 112.162184 
L 653.987395 124.553098 
L 654.349949 147.458529 
L 654.712502 162.090097 
L 655.075055 164.407789 
L 655.437609 171.312526 
L 656.162716 159.701945 
L 656.525269 139.541702 
L 656.887823 139.998917 
L 657.250376 142.14008 
L 657.61293 146.770447 
L 658.70059 197.669833 
L 659.425697 209.789035 
L 660.150804 182.963705 
L 660.875911 140.528863 
L 661.601018 114.66893 
L 661.963571 111.940952 
L 662.326125 121.502587 
L 662.688678 145.500013 
L 663.051232 155.438805 
L 663.413785 176.004868 
L 663.776339 176.742852 
L 664.138892 184.220573 
L 664.501446 172.956191 
L 664.863999 166.311022 
L 665.226553 157.235403 
L 665.589106 151.61843 
L 665.95166 149.089083 
L 666.676766 175.281769 
L 667.764427 222.105419 
L 668.12698 217.9324 
L 668.852087 194.098449 
L 669.577194 149.072868 
L 669.939748 128.081018 
L 670.302301 120.738715 
L 670.664855 118.60224 
L 671.752515 158.475094 
L 672.477622 187.191449 
L 672.840175 186.973807 
L 673.927836 156.498788 
L 674.290389 153.885016 
L 674.652943 146.853507 
L 676.103157 203.813105 
L 676.828264 220.45256 
L 678.641031 124.556539 
L 679.003584 116.459044 
L 679.366138 114.35252 
L 679.728691 128.50418 
L 680.091245 135.912891 
L 680.453798 156.870284 
L 680.816352 164.26258 
L 681.178905 177.357642 
L 681.541459 174.343256 
L 681.904012 166.089872 
L 682.266566 151.952205 
L 682.629119 150.900291 
L 682.991673 136.883683 
L 683.354226 137.426984 
L 683.716779 141.900489 
L 684.079333 154.364167 
L 684.441886 177.099873 
L 684.80444 191.046883 
L 685.166993 200.291943 
L 685.529547 200.602214 
L 685.8921 188.370336 
L 687.342314 101.427978 
L 687.704868 94.847669 
L 688.067421 91.928824 
L 688.429975 100.969666 
L 689.517635 144.89057 
L 689.880188 155.51616 
L 690.242742 154.953435 
L 690.605295 148.20526 
L 691.330402 121.480072 
L 691.692956 122.711877 
L 692.055509 118.840625 
L 692.418063 124.056361 
L 693.505723 174.01774 
L 693.868277 177.973958 
L 694.23083 177.624906 
L 694.593384 172.323963 
L 695.31849 124.32079 
L 695.681044 110.208662 
L 696.043597 83.874657 
L 696.406151 78.809895 
L 696.768704 78.819321 
L 697.131258 86.578762 
L 697.493811 99.073564 
L 698.218918 130.608615 
L 698.581472 144.470235 
L 699.306579 135.081802 
L 700.031686 113.116417 
L 700.394239 105.809456 
L 700.756792 102.742176 
L 701.119346 113.42763 
L 702.207006 157.501178 
L 702.56956 169.007922 
L 702.932113 169.615575 
L 703.294667 163.074555 
L 703.65722 145.617348 
L 704.382327 95.670653 
L 705.107434 66.96 
L 705.469988 75.521881 
L 705.832541 78.176397 
L 707.282755 143.744451 
L 707.645308 132.860811 
L 708.370415 120.990642 
L 708.732969 116.832652 
L 709.095522 100.429602 
L 709.458076 106.547059 
L 709.820629 116.353523 
L 711.270843 172.780417 
L 711.633397 180.326517 
L 712.358503 157.392575 
L 713.08361 99.463814 
L 713.446164 91.933318 
L 713.808717 81.869709 
L 714.171271 78.892676 
L 714.896378 107.980961 
L 715.258931 124.971321 
L 715.621485 134.805212 
L 715.984038 152.761897 
L 716.346592 152.461004 
L 717.434252 127.054601 
L 717.796805 125.678578 
L 718.159359 117.668152 
L 718.884466 144.395675 
L 719.247019 167.735267 
L 719.972126 191.613531 
L 720.33468 188.348888 
L 720.697233 187.466203 
L 721.784894 124.901241 
L 722.147447 102.703715 
L 722.510001 96.498211 
L 722.872554 93.926114 
L 723.235107 102.84902 
L 724.322768 158.472383 
L 724.685321 158.206471 
L 725.047875 166.342625 
L 725.772982 149.987414 
L 726.135535 146.914913 
L 726.498089 135.900288 
L 726.860642 130.753185 
L 727.585749 151.498311 
L 728.310856 192.456588 
L 728.673409 201.344159 
L 729.035963 203.330219 
L 729.398516 193.78397 
L 729.76107 180.701365 
L 730.486177 128.275801 
L 730.84873 113.724188 
L 731.573837 100.972747 
L 731.936391 109.296171 
L 733.386605 169.216572 
L 734.111712 160.333613 
L 734.474265 151.118096 
L 734.836818 135.843259 
L 735.199372 131.29095 
L 735.561925 132.956367 
L 735.924479 139.358497 
L 736.287032 150.679902 
L 736.649586 173.347186 
L 737.012139 184.606475 
L 737.374693 199.485082 
L 737.737246 192.113787 
L 738.462353 166.168404 
L 739.18746 120.15418 
L 739.550014 109.798619 
L 739.912567 94.652638 
L 740.27512 96.954509 
L 740.637674 101.343993 
L 741.000227 122.738723 
L 741.725334 146.116288 
L 742.087888 151.806581 
L 742.450441 152.698529 
L 743.538102 124.132809 
L 743.900655 119.43013 
L 744.263209 117.567537 
L 744.988316 140.044024 
L 745.713422 173.116552 
L 746.075976 175.640285 
L 746.438529 173.430305 
L 746.801083 168.812626 
L 747.163636 153.836791 
L 747.163636 153.836791 
" style="fill:none;stroke:#1f77b4;stroke-linecap:square;stroke-width:1.5;"/>
   </g>
   <g id="line2d_16">
    <path clip-path="url(#p3ad7d51443)" d="M 745.713422 384.48 
L 745.713422 51.84 
" style="fill:none;stroke:#808080;stroke-linecap:square;"/>
   </g>
   <g id="patch_48">
    <path d="M 108 384.48 
L 108 51.84 
" style="fill:none;stroke:#000000;stroke-linecap:square;stroke-linejoin:miter;stroke-width:0.8;"/>
   </g>
   <g id="patch_49">
    <path d="M 777.6 384.48 
L 777.6 51.84 
" style="fill:none;stroke:#000000;stroke-linecap:square;stroke-linejoin:miter;stroke-width:0.8;"/>
   </g>
   <g id="patch_50">
    <path d="M 108 384.48 
L 777.6 384.48 
" style="fill:none;stroke:#000000;stroke-linecap:square;stroke-linejoin:miter;stroke-width:0.8;"/>
   </g>
   <g id="patch_51">
    <path d="M 108 51.84 
L 777.6 51.84 
" style="fill:none;stroke:#000000;stroke-linecap:square;stroke-linejoin:miter;stroke-width:0.8;"/>
   </g>
   <g id="text_17">
    <!-- A3Benchmark-TS36.csv -->
    <defs>
     <path d="M 34.1875 63.1875 
L 20.796875 26.90625 
L 47.609375 26.90625 
z
M 28.609375 72.90625 
L 39.796875 72.90625 
L 67.578125 0 
L 57.328125 0 
L 50.6875 18.703125 
L 17.828125 18.703125 
L 11.1875 0 
L 0.78125 0 
z
" id="DejaVuSans-65"/>
     <path d="M 19.671875 34.8125 
L 19.671875 8.109375 
L 35.5 8.109375 
Q 43.453125 8.109375 47.28125 11.40625 
Q 51.125 14.703125 51.125 21.484375 
Q 51.125 28.328125 47.28125 31.5625 
Q 43.453125 34.8125 35.5 34.8125 
z
M 19.671875 64.796875 
L 19.671875 42.828125 
L 34.28125 42.828125 
Q 41.5 42.828125 45.03125 45.53125 
Q 48.578125 48.25 48.578125 53.8125 
Q 48.578125 59.328125 45.03125 62.0625 
Q 41.5 64.796875 34.28125 64.796875 
z
M 9.8125 72.90625 
L 35.015625 72.90625 
Q 46.296875 72.90625 52.390625 68.21875 
Q 58.5 63.53125 58.5 54.890625 
Q 58.5 48.1875 55.375 44.234375 
Q 52.25 40.28125 46.1875 39.3125 
Q 53.46875 37.75 57.5 32.78125 
Q 61.53125 27.828125 61.53125 20.40625 
Q 61.53125 10.640625 54.890625 5.3125 
Q 48.25 0 35.984375 0 
L 9.8125 0 
z
" id="DejaVuSans-66"/>
     <path d="M 54.890625 33.015625 
L 54.890625 0 
L 45.90625 0 
L 45.90625 32.71875 
Q 45.90625 40.484375 42.875 44.328125 
Q 39.84375 48.1875 33.796875 48.1875 
Q 26.515625 48.1875 22.3125 43.546875 
Q 18.109375 38.921875 18.109375 30.90625 
L 18.109375 0 
L 9.078125 0 
L 9.078125 54.6875 
L 18.109375 54.6875 
L 18.109375 46.1875 
Q 21.34375 51.125 25.703125 53.5625 
Q 30.078125 56 35.796875 56 
Q 45.21875 56 50.046875 50.171875 
Q 54.890625 44.34375 54.890625 33.015625 
z
" id="DejaVuSans-110"/>
     <path d="M 48.78125 52.59375 
L 48.78125 44.1875 
Q 44.96875 46.296875 41.140625 47.34375 
Q 37.3125 48.390625 33.40625 48.390625 
Q 24.65625 48.390625 19.8125 42.84375 
Q 14.984375 37.3125 14.984375 27.296875 
Q 14.984375 17.28125 19.8125 11.734375 
Q 24.65625 6.203125 33.40625 6.203125 
Q 37.3125 6.203125 41.140625 7.25 
Q 44.96875 8.296875 48.78125 10.40625 
L 48.78125 2.09375 
Q 45.015625 0.34375 40.984375 -0.53125 
Q 36.96875 -1.421875 32.421875 -1.421875 
Q 20.0625 -1.421875 12.78125 6.34375 
Q 5.515625 14.109375 5.515625 27.296875 
Q 5.515625 40.671875 12.859375 48.328125 
Q 20.21875 56 33.015625 56 
Q 37.15625 56 41.109375 55.140625 
Q 45.0625 54.296875 48.78125 52.59375 
z
" id="DejaVuSans-99"/>
     <path d="M 54.890625 33.015625 
L 54.890625 0 
L 45.90625 0 
L 45.90625 32.71875 
Q 45.90625 40.484375 42.875 44.328125 
Q 39.84375 48.1875 33.796875 48.1875 
Q 26.515625 48.1875 22.3125 43.546875 
Q 18.109375 38.921875 18.109375 30.90625 
L 18.109375 0 
L 9.078125 0 
L 9.078125 75.984375 
L 18.109375 75.984375 
L 18.109375 46.1875 
Q 21.34375 51.125 25.703125 53.5625 
Q 30.078125 56 35.796875 56 
Q 45.21875 56 50.046875 50.171875 
Q 54.890625 44.34375 54.890625 33.015625 
z
" id="DejaVuSans-104"/>
     <path d="M 41.109375 46.296875 
Q 39.59375 47.171875 37.8125 47.578125 
Q 36.03125 48 33.890625 48 
Q 26.265625 48 22.1875 43.046875 
Q 18.109375 38.09375 18.109375 28.8125 
L 18.109375 0 
L 9.078125 0 
L 9.078125 54.6875 
L 18.109375 54.6875 
L 18.109375 46.1875 
Q 20.953125 51.171875 25.484375 53.578125 
Q 30.03125 56 36.53125 56 
Q 37.453125 56 38.578125 55.875 
Q 39.703125 55.765625 41.0625 55.515625 
z
" id="DejaVuSans-114"/>
     <path d="M 9.078125 75.984375 
L 18.109375 75.984375 
L 18.109375 31.109375 
L 44.921875 54.6875 
L 56.390625 54.6875 
L 27.390625 29.109375 
L 57.625 0 
L 45.90625 0 
L 18.109375 26.703125 
L 18.109375 0 
L 9.078125 0 
z
" id="DejaVuSans-107"/>
     <path d="M 4.890625 31.390625 
L 31.203125 31.390625 
L 31.203125 23.390625 
L 4.890625 23.390625 
z
" id="DejaVuSans-45"/>
     <path d="M 53.515625 70.515625 
L 53.515625 60.890625 
Q 47.90625 63.578125 42.921875 64.890625 
Q 37.9375 66.21875 33.296875 66.21875 
Q 25.25 66.21875 20.875 63.09375 
Q 16.5 59.96875 16.5 54.203125 
Q 16.5 49.359375 19.40625 46.890625 
Q 22.3125 44.4375 30.421875 42.921875 
L 36.375 41.703125 
Q 47.40625 39.59375 52.65625 34.296875 
Q 57.90625 29 57.90625 20.125 
Q 57.90625 9.515625 50.796875 4.046875 
Q 43.703125 -1.421875 29.984375 -1.421875 
Q 24.8125 -1.421875 18.96875 -0.25 
Q 13.140625 0.921875 6.890625 3.21875 
L 6.890625 13.375 
Q 12.890625 10.015625 18.65625 8.296875 
Q 24.421875 6.59375 29.984375 6.59375 
Q 38.421875 6.59375 43.015625 9.90625 
Q 47.609375 13.234375 47.609375 19.390625 
Q 47.609375 24.75 44.3125 27.78125 
Q 41.015625 30.8125 33.5 32.328125 
L 27.484375 33.5 
Q 16.453125 35.6875 11.515625 40.375 
Q 6.59375 45.0625 6.59375 53.421875 
Q 6.59375 63.09375 13.40625 68.65625 
Q 20.21875 74.21875 32.171875 74.21875 
Q 37.3125 74.21875 42.625 73.28125 
Q 47.953125 72.359375 53.515625 70.515625 
z
" id="DejaVuSans-83"/>
     <path d="M 33.015625 40.375 
Q 26.375 40.375 22.484375 35.828125 
Q 18.609375 31.296875 18.609375 23.390625 
Q 18.609375 15.53125 22.484375 10.953125 
Q 26.375 6.390625 33.015625 6.390625 
Q 39.65625 6.390625 43.53125 10.953125 
Q 47.40625 15.53125 47.40625 23.390625 
Q 47.40625 31.296875 43.53125 35.828125 
Q 39.65625 40.375 33.015625 40.375 
z
M 52.59375 71.296875 
L 52.59375 62.3125 
Q 48.875 64.0625 45.09375 64.984375 
Q 41.3125 65.921875 37.59375 65.921875 
Q 27.828125 65.921875 22.671875 59.328125 
Q 17.53125 52.734375 16.796875 39.40625 
Q 19.671875 43.65625 24.015625 45.921875 
Q 28.375 48.1875 33.59375 48.1875 
Q 44.578125 48.1875 50.953125 41.515625 
Q 57.328125 34.859375 57.328125 23.390625 
Q 57.328125 12.15625 50.6875 5.359375 
Q 44.046875 -1.421875 33.015625 -1.421875 
Q 20.359375 -1.421875 13.671875 8.265625 
Q 6.984375 17.96875 6.984375 36.375 
Q 6.984375 53.65625 15.1875 63.9375 
Q 23.390625 74.21875 37.203125 74.21875 
Q 40.921875 74.21875 44.703125 73.484375 
Q 48.484375 72.75 52.59375 71.296875 
z
" id="DejaVuSans-54"/>
     <path d="M 10.6875 12.40625 
L 21 12.40625 
L 21 0 
L 10.6875 0 
z
" id="DejaVuSans-46"/>
     <path d="M 2.984375 54.6875 
L 12.5 54.6875 
L 29.59375 8.796875 
L 46.6875 54.6875 
L 56.203125 54.6875 
L 35.6875 0 
L 23.484375 0 
z
" id="DejaVuSans-118"/>
    </defs>
    <g transform="translate(371.555625 45.84)scale(0.12 -0.12)">
     <use xlink:href="#DejaVuSans-65"/>
     <use x="68.408203" xlink:href="#DejaVuSans-51"/>
     <use x="132.03125" xlink:href="#DejaVuSans-66"/>
     <use x="200.634766" xlink:href="#DejaVuSans-101"/>
     <use x="262.158203" xlink:href="#DejaVuSans-110"/>
     <use x="325.537109" xlink:href="#DejaVuSans-99"/>
     <use x="380.517578" xlink:href="#DejaVuSans-104"/>
     <use x="443.896484" xlink:href="#DejaVuSans-109"/>
     <use x="541.308594" xlink:href="#DejaVuSans-97"/>
     <use x="602.587891" xlink:href="#DejaVuSans-114"/>
     <use x="643.701172" xlink:href="#DejaVuSans-107"/>
     <use x="701.611328" xlink:href="#DejaVuSans-45"/>
     <use x="737.554688" xlink:href="#DejaVuSans-84"/>
     <use x="798.638672" xlink:href="#DejaVuSans-83"/>
     <use x="862.115234" xlink:href="#DejaVuSans-51"/>
     <use x="925.738281" xlink:href="#DejaVuSans-54"/>
     <use x="989.361328" xlink:href="#DejaVuSans-46"/>
     <use x="1021.148438" xlink:href="#DejaVuSans-99"/>
     <use x="1076.128906" xlink:href="#DejaVuSans-115"/>
     <use x="1128.228516" xlink:href="#DejaVuSans-118"/>
    </g>
   </g>
   <g id="legend_1">
    <g id="patch_52">
     <path d="M 115 74.518125 
L 174.315625 74.518125 
Q 176.315625 74.518125 176.315625 72.518125 
L 176.315625 58.84 
Q 176.315625 56.84 174.315625 56.84 
L 115 56.84 
Q 113 56.84 113 58.84 
L 113 72.518125 
Q 113 74.518125 115 74.518125 
z
" style="fill:#ffffff;opacity:0.8;stroke:#cccccc;stroke-linejoin:miter;"/>
    </g>
    <g id="line2d_17">
     <path d="M 117 64.938438 
L 137 64.938438 
" style="fill:none;stroke:#1f77b4;stroke-linecap:square;stroke-width:1.5;"/>
    </g>
    <g id="line2d_18"/>
    <g id="text_18">
     <!-- value -->
     <g transform="translate(145 68.438438)scale(0.1 -0.1)">
      <use xlink:href="#DejaVuSans-118"/>
      <use x="59.179688" xlink:href="#DejaVuSans-97"/>
      <use x="120.458984" xlink:href="#DejaVuSans-108"/>
      <use x="148.242188" xlink:href="#DejaVuSans-117"/>
      <use x="211.621094" xlink:href="#DejaVuSans-101"/>
     </g>
    </g>
   </g>
  </g>
 </g>
 <defs>
  <clipPath id="p3ad7d51443">
   <rect height="332.64" width="669.6" x="108" y="51.84"/>
  </clipPath>
 </defs>
</svg>
