<?xml version="1.0" encoding="utf-8" standalone="no"?>
<!DOCTYPE svg PUBLIC "-//W3C//DTD SVG 1.1//EN"
  "http://www.w3.org/Graphics/SVG/1.1/DTD/svg11.dtd">
<!-- Created with matplotlib (https://matplotlib.org/) -->
<svg height="432pt" version="1.1" viewBox="0 0 864 432" width="864pt" xmlns="http://www.w3.org/2000/svg" xmlns:xlink="http://www.w3.org/1999/xlink">
 <defs>
  <style type="text/css">
*{stroke-linecap:butt;stroke-linejoin:round;}
  </style>
 </defs>
 <g id="figure_1">
  <g id="patch_1">
   <path d="M 0 432 
L 864 432 
L 864 0 
L 0 0 
z
" style="fill:#ffffff;"/>
  </g>
  <g id="axes_1">
   <g id="patch_2">
    <path d="M 108 384.48 
L 777.6 384.48 
L 777.6 51.84 
L 108 51.84 
z
" style="fill:#ffffff;"/>
   </g>
   <g id="patch_3">
    <path clip-path="url(#pea25889623)" d="M 138.436364 384.48 
L 138.436364 51.84 
L 374.096118 51.84 
L 374.096118 384.48 
z
" style="fill:#0000ff;opacity:0.05;"/>
   </g>
   <g id="patch_4">
    <path clip-path="url(#pea25889623)" d="M 374.096118 384.48 
L 374.096118 51.84 
L 745.713422 51.84 
L 745.713422 384.48 
z
" style="fill:#ff0000;opacity:0.08;"/>
   </g>
   <g id="patch_5">
    <path clip-path="url(#pea25889623)" d="M 138.436364 384.48 
L 138.436364 51.84 
L 147.5002 51.84 
L 147.5002 384.48 
z
" style="fill:#008000;opacity:0.04;"/>
   </g>
   <g id="patch_6">
    <path clip-path="url(#pea25889623)" d="M 156.564037 384.48 
L 156.564037 51.84 
L 165.627874 51.84 
L 165.627874 384.48 
z
" style="fill:#008000;opacity:0.04;"/>
   </g>
   <g id="patch_7">
    <path clip-path="url(#pea25889623)" d="M 174.69171 384.48 
L 174.69171 51.84 
L 183.755547 51.84 
L 183.755547 384.48 
z
" style="fill:#008000;opacity:0.04;"/>
   </g>
   <g id="patch_8">
    <path clip-path="url(#pea25889623)" d="M 192.819384 384.48 
L 192.819384 51.84 
L 201.883221 51.84 
L 201.883221 384.48 
z
" style="fill:#008000;opacity:0.04;"/>
   </g>
   <g id="patch_9">
    <path clip-path="url(#pea25889623)" d="M 210.947057 384.48 
L 210.947057 51.84 
L 220.010894 51.84 
L 220.010894 384.48 
z
" style="fill:#008000;opacity:0.04;"/>
   </g>
   <g id="patch_10">
    <path clip-path="url(#pea25889623)" d="M 446.606811 384.48 
L 446.606811 371.1744 
L 455.670648 371.1744 
L 455.670648 384.48 
z
" style="fill:#ff6600;"/>
   </g>
   <g id="patch_11">
    <path clip-path="url(#pea25889623)" d="M 229.074731 384.48 
L 229.074731 51.84 
L 238.138567 51.84 
L 238.138567 384.48 
z
" style="fill:#008000;opacity:0.04;"/>
   </g>
   <g id="patch_12">
    <path clip-path="url(#pea25889623)" d="M 229.074731 371.1744 
L 229.074731 51.84 
L 238.138567 51.84 
L 238.138567 371.1744 
z
" style="fill:#008000;opacity:0.5;"/>
   </g>
   <g id="patch_13">
    <path clip-path="url(#pea25889623)" d="M 229.074731 384.48 
L 229.074731 371.1744 
L 238.138567 371.1744 
L 238.138567 384.48 
z
" style="fill:#ffe500;"/>
   </g>
   <g id="patch_14">
    <path clip-path="url(#pea25889623)" d="M 247.202404 384.48 
L 247.202404 51.84 
L 256.266241 51.84 
L 256.266241 384.48 
z
" style="fill:#008000;opacity:0.04;"/>
   </g>
   <g id="patch_15">
    <path clip-path="url(#pea25889623)" d="M 265.330077 384.48 
L 265.330077 51.84 
L 274.393914 51.84 
L 274.393914 384.48 
z
" style="fill:#008000;opacity:0.04;"/>
   </g>
   <g id="patch_16">
    <path clip-path="url(#pea25889623)" d="M 283.457751 384.48 
L 283.457751 51.84 
L 292.521588 51.84 
L 292.521588 384.48 
z
" style="fill:#008000;opacity:0.04;"/>
   </g>
   <g id="patch_17">
    <path clip-path="url(#pea25889623)" d="M 292.521588 371.1744 
L 292.521588 51.84 
L 301.585424 51.84 
L 301.585424 371.1744 
z
" style="fill:#008000;opacity:0.5;"/>
   </g>
   <g id="patch_18">
    <path clip-path="url(#pea25889623)" d="M 292.521588 384.48 
L 292.521588 371.1744 
L 301.585424 371.1744 
L 301.585424 384.48 
z
" style="fill:#ffe500;"/>
   </g>
   <g id="patch_19">
    <path clip-path="url(#pea25889623)" d="M 301.585424 384.48 
L 301.585424 51.84 
L 310.649261 51.84 
L 310.649261 384.48 
z
" style="fill:#008000;opacity:0.04;"/>
   </g>
   <g id="patch_20">
    <path clip-path="url(#pea25889623)" d="M 319.713098 384.48 
L 319.713098 51.84 
L 328.776934 51.84 
L 328.776934 384.48 
z
" style="fill:#008000;opacity:0.04;"/>
   </g>
   <g id="patch_21">
    <path clip-path="url(#pea25889623)" d="M 337.840771 384.48 
L 337.840771 51.84 
L 346.904608 51.84 
L 346.904608 384.48 
z
" style="fill:#008000;opacity:0.04;"/>
   </g>
   <g id="patch_22">
    <path clip-path="url(#pea25889623)" d="M 355.968444 384.48 
L 355.968444 51.84 
L 365.032281 51.84 
L 365.032281 384.48 
z
" style="fill:#008000;opacity:0.04;"/>
   </g>
   <g id="patch_23">
    <path clip-path="url(#pea25889623)" d="M 374.096118 384.48 
L 374.096118 51.84 
L 383.159955 51.84 
L 383.159955 384.48 
z
" style="fill:#008000;opacity:0.04;"/>
   </g>
   <g id="patch_24">
    <path clip-path="url(#pea25889623)" d="M 609.755872 384.48 
L 609.755872 371.1744 
L 618.819709 371.1744 
L 618.819709 384.48 
z
" style="fill:#ff6600;"/>
   </g>
   <g id="patch_25">
    <path clip-path="url(#pea25889623)" d="M 392.223791 384.48 
L 392.223791 51.84 
L 401.287628 51.84 
L 401.287628 384.48 
z
" style="fill:#008000;opacity:0.04;"/>
   </g>
   <g id="patch_26">
    <path clip-path="url(#pea25889623)" d="M 410.351465 384.48 
L 410.351465 51.84 
L 419.415301 51.84 
L 419.415301 384.48 
z
" style="fill:#008000;opacity:0.04;"/>
   </g>
   <g id="patch_27">
    <path clip-path="url(#pea25889623)" d="M 655.075055 384.48 
L 655.075055 371.1744 
L 664.138892 371.1744 
L 664.138892 384.48 
z
" style="fill:#ff6600;"/>
   </g>
   <g id="patch_28">
    <path clip-path="url(#pea25889623)" d="M 428.479138 384.48 
L 428.479138 51.84 
L 437.542975 51.84 
L 437.542975 384.48 
z
" style="fill:#008000;opacity:0.04;"/>
   </g>
   <g id="patch_29">
    <path clip-path="url(#pea25889623)" d="M 446.606811 384.48 
L 446.606811 51.84 
L 455.670648 51.84 
L 455.670648 384.48 
z
" style="fill:#008000;opacity:0.04;"/>
   </g>
   <g id="patch_30">
    <path clip-path="url(#pea25889623)" d="M 446.606811 371.1744 
L 446.606811 51.84 
L 455.670648 51.84 
L 455.670648 371.1744 
z
" style="fill:#008000;opacity:0.5;"/>
   </g>
   <g id="patch_31">
    <path clip-path="url(#pea25889623)" d="M 691.330402 384.48 
L 691.330402 371.1744 
L 700.394239 371.1744 
L 700.394239 384.48 
z
" style="fill:#ff6600;"/>
   </g>
   <g id="patch_32">
    <path clip-path="url(#pea25889623)" d="M 464.734485 384.48 
L 464.734485 51.84 
L 473.798322 51.84 
L 473.798322 384.48 
z
" style="fill:#008000;opacity:0.04;"/>
   </g>
   <g id="patch_33">
    <path clip-path="url(#pea25889623)" d="M 482.862158 384.48 
L 482.862158 51.84 
L 491.925995 51.84 
L 491.925995 384.48 
z
" style="fill:#008000;opacity:0.04;"/>
   </g>
   <g id="patch_34">
    <path clip-path="url(#pea25889623)" d="M 500.989832 384.48 
L 500.989832 51.84 
L 510.053668 51.84 
L 510.053668 384.48 
z
" style="fill:#008000;opacity:0.04;"/>
   </g>
   <g id="patch_35">
    <path clip-path="url(#pea25889623)" d="M 519.117505 384.48 
L 519.117505 51.84 
L 528.181342 51.84 
L 528.181342 384.48 
z
" style="fill:#008000;opacity:0.04;"/>
   </g>
   <g id="patch_36">
    <path clip-path="url(#pea25889623)" d="M 537.245178 384.48 
L 537.245178 51.84 
L 546.309015 51.84 
L 546.309015 384.48 
z
" style="fill:#008000;opacity:0.04;"/>
   </g>
   <g id="patch_37">
    <path clip-path="url(#pea25889623)" d="M 555.372852 384.48 
L 555.372852 51.84 
L 564.436689 51.84 
L 564.436689 384.48 
z
" style="fill:#008000;opacity:0.04;"/>
   </g>
   <g id="patch_38">
    <path clip-path="url(#pea25889623)" d="M 573.500525 384.48 
L 573.500525 51.84 
L 582.564362 51.84 
L 582.564362 384.48 
z
" style="fill:#008000;opacity:0.04;"/>
   </g>
   <g id="patch_39">
    <path clip-path="url(#pea25889623)" d="M 591.628199 384.48 
L 591.628199 51.84 
L 600.692035 51.84 
L 600.692035 384.48 
z
" style="fill:#008000;opacity:0.04;"/>
   </g>
   <g id="patch_40">
    <path clip-path="url(#pea25889623)" d="M 609.755872 384.48 
L 609.755872 51.84 
L 618.819709 51.84 
L 618.819709 384.48 
z
" style="fill:#008000;opacity:0.04;"/>
   </g>
   <g id="patch_41">
    <path clip-path="url(#pea25889623)" d="M 609.755872 371.1744 
L 609.755872 51.84 
L 618.819709 51.84 
L 618.819709 371.1744 
z
" style="fill:#008000;opacity:0.5;"/>
   </g>
   <g id="patch_42">
    <path clip-path="url(#pea25889623)" d="M 627.883545 384.48 
L 627.883545 51.84 
L 636.947382 51.84 
L 636.947382 384.48 
z
" style="fill:#008000;opacity:0.04;"/>
   </g>
   <g id="patch_43">
    <path clip-path="url(#pea25889623)" d="M 646.011219 384.48 
L 646.011219 51.84 
L 655.075055 51.84 
L 655.075055 384.48 
z
" style="fill:#008000;opacity:0.04;"/>
   </g>
   <g id="patch_44">
    <path clip-path="url(#pea25889623)" d="M 655.075055 371.1744 
L 655.075055 51.84 
L 664.138892 51.84 
L 664.138892 371.1744 
z
" style="fill:#008000;opacity:0.5;"/>
   </g>
   <g id="patch_45">
    <path clip-path="url(#pea25889623)" d="M 664.138892 384.48 
L 664.138892 51.84 
L 673.202729 51.84 
L 673.202729 384.48 
z
" style="fill:#008000;opacity:0.04;"/>
   </g>
   <g id="patch_46">
    <path clip-path="url(#pea25889623)" d="M 682.266566 384.48 
L 682.266566 51.84 
L 691.330402 51.84 
L 691.330402 384.48 
z
" style="fill:#008000;opacity:0.04;"/>
   </g>
   <g id="patch_47">
    <path clip-path="url(#pea25889623)" d="M 691.330402 371.1744 
L 691.330402 51.84 
L 700.394239 51.84 
L 700.394239 371.1744 
z
" style="fill:#008000;opacity:0.5;"/>
   </g>
   <g id="patch_48">
    <path clip-path="url(#pea25889623)" d="M 700.394239 384.48 
L 700.394239 51.84 
L 709.458076 51.84 
L 709.458076 384.48 
z
" style="fill:#008000;opacity:0.04;"/>
   </g>
   <g id="patch_49">
    <path clip-path="url(#pea25889623)" d="M 718.521912 384.48 
L 718.521912 51.84 
L 727.585749 51.84 
L 727.585749 384.48 
z
" style="fill:#008000;opacity:0.04;"/>
   </g>
   <g id="patch_50">
    <path clip-path="url(#pea25889623)" d="M 736.649586 384.48 
L 736.649586 51.84 
L 745.713422 51.84 
L 745.713422 384.48 
z
" style="fill:#008000;opacity:0.04;"/>
   </g>
   <g id="matplotlib.axis_1">
    <g id="xtick_1">
     <g id="line2d_1">
      <defs>
       <path d="M 0 0 
L 0 3.5 
" id="m18765d2342" style="stroke:#000000;stroke-width:0.8;"/>
      </defs>
      <g>
       <use style="stroke:#000000;stroke-width:0.8;" x="138.436364" xlink:href="#m18765d2342" y="384.48"/>
      </g>
     </g>
     <g id="text_1">
      <!-- 0 -->
      <defs>
       <path d="M 31.78125 66.40625 
Q 24.171875 66.40625 20.328125 58.90625 
Q 16.5 51.421875 16.5 36.375 
Q 16.5 21.390625 20.328125 13.890625 
Q 24.171875 6.390625 31.78125 6.390625 
Q 39.453125 6.390625 43.28125 13.890625 
Q 47.125 21.390625 47.125 36.375 
Q 47.125 51.421875 43.28125 58.90625 
Q 39.453125 66.40625 31.78125 66.40625 
z
M 31.78125 74.21875 
Q 44.046875 74.21875 50.515625 64.515625 
Q 56.984375 54.828125 56.984375 36.375 
Q 56.984375 17.96875 50.515625 8.265625 
Q 44.046875 -1.421875 31.78125 -1.421875 
Q 19.53125 -1.421875 13.0625 8.265625 
Q 6.59375 17.96875 6.59375 36.375 
Q 6.59375 54.828125 13.0625 64.515625 
Q 19.53125 74.21875 31.78125 74.21875 
z
" id="DejaVuSans-48"/>
      </defs>
      <g transform="translate(135.255114 399.078438)scale(0.1 -0.1)">
       <use xlink:href="#DejaVuSans-48"/>
      </g>
     </g>
    </g>
    <g id="xtick_2">
     <g id="line2d_2">
      <g>
       <use style="stroke:#000000;stroke-width:0.8;" x="229.074731" xlink:href="#m18765d2342" y="384.48"/>
      </g>
     </g>
     <g id="text_2">
      <!-- 250 -->
      <defs>
       <path d="M 19.1875 8.296875 
L 53.609375 8.296875 
L 53.609375 0 
L 7.328125 0 
L 7.328125 8.296875 
Q 12.9375 14.109375 22.625 23.890625 
Q 32.328125 33.6875 34.8125 36.53125 
Q 39.546875 41.84375 41.421875 45.53125 
Q 43.3125 49.21875 43.3125 52.78125 
Q 43.3125 58.59375 39.234375 62.25 
Q 35.15625 65.921875 28.609375 65.921875 
Q 23.96875 65.921875 18.8125 64.3125 
Q 13.671875 62.703125 7.8125 59.421875 
L 7.8125 69.390625 
Q 13.765625 71.78125 18.9375 73 
Q 24.125 74.21875 28.421875 74.21875 
Q 39.75 74.21875 46.484375 68.546875 
Q 53.21875 62.890625 53.21875 53.421875 
Q 53.21875 48.921875 51.53125 44.890625 
Q 49.859375 40.875 45.40625 35.40625 
Q 44.1875 33.984375 37.640625 27.21875 
Q 31.109375 20.453125 19.1875 8.296875 
z
" id="DejaVuSans-50"/>
       <path d="M 10.796875 72.90625 
L 49.515625 72.90625 
L 49.515625 64.59375 
L 19.828125 64.59375 
L 19.828125 46.734375 
Q 21.96875 47.46875 24.109375 47.828125 
Q 26.265625 48.1875 28.421875 48.1875 
Q 40.625 48.1875 47.75 41.5 
Q 54.890625 34.8125 54.890625 23.390625 
Q 54.890625 11.625 47.5625 5.09375 
Q 40.234375 -1.421875 26.90625 -1.421875 
Q 22.3125 -1.421875 17.546875 -0.640625 
Q 12.796875 0.140625 7.71875 1.703125 
L 7.71875 11.625 
Q 12.109375 9.234375 16.796875 8.0625 
Q 21.484375 6.890625 26.703125 6.890625 
Q 35.15625 6.890625 40.078125 11.328125 
Q 45.015625 15.765625 45.015625 23.390625 
Q 45.015625 31 40.078125 35.4375 
Q 35.15625 39.890625 26.703125 39.890625 
Q 22.75 39.890625 18.8125 39.015625 
Q 14.890625 38.140625 10.796875 36.28125 
z
" id="DejaVuSans-53"/>
      </defs>
      <g transform="translate(219.530981 399.078438)scale(0.1 -0.1)">
       <use xlink:href="#DejaVuSans-50"/>
       <use x="63.623047" xlink:href="#DejaVuSans-53"/>
       <use x="127.246094" xlink:href="#DejaVuSans-48"/>
      </g>
     </g>
    </g>
    <g id="xtick_3">
     <g id="line2d_3">
      <g>
       <use style="stroke:#000000;stroke-width:0.8;" x="319.713098" xlink:href="#m18765d2342" y="384.48"/>
      </g>
     </g>
     <g id="text_3">
      <!-- 500 -->
      <g transform="translate(310.169348 399.078438)scale(0.1 -0.1)">
       <use xlink:href="#DejaVuSans-53"/>
       <use x="63.623047" xlink:href="#DejaVuSans-48"/>
       <use x="127.246094" xlink:href="#DejaVuSans-48"/>
      </g>
     </g>
    </g>
    <g id="xtick_4">
     <g id="line2d_4">
      <g>
       <use style="stroke:#000000;stroke-width:0.8;" x="410.351465" xlink:href="#m18765d2342" y="384.48"/>
      </g>
     </g>
     <g id="text_4">
      <!-- 750 -->
      <defs>
       <path d="M 8.203125 72.90625 
L 55.078125 72.90625 
L 55.078125 68.703125 
L 28.609375 0 
L 18.3125 0 
L 43.21875 64.59375 
L 8.203125 64.59375 
z
" id="DejaVuSans-55"/>
      </defs>
      <g transform="translate(400.807715 399.078438)scale(0.1 -0.1)">
       <use xlink:href="#DejaVuSans-55"/>
       <use x="63.623047" xlink:href="#DejaVuSans-53"/>
       <use x="127.246094" xlink:href="#DejaVuSans-48"/>
      </g>
     </g>
    </g>
    <g id="xtick_5">
     <g id="line2d_5">
      <g>
       <use style="stroke:#000000;stroke-width:0.8;" x="500.989832" xlink:href="#m18765d2342" y="384.48"/>
      </g>
     </g>
     <g id="text_5">
      <!-- 1000 -->
      <defs>
       <path d="M 12.40625 8.296875 
L 28.515625 8.296875 
L 28.515625 63.921875 
L 10.984375 60.40625 
L 10.984375 69.390625 
L 28.421875 72.90625 
L 38.28125 72.90625 
L 38.28125 8.296875 
L 54.390625 8.296875 
L 54.390625 0 
L 12.40625 0 
z
" id="DejaVuSans-49"/>
      </defs>
      <g transform="translate(488.264832 399.078438)scale(0.1 -0.1)">
       <use xlink:href="#DejaVuSans-49"/>
       <use x="63.623047" xlink:href="#DejaVuSans-48"/>
       <use x="127.246094" xlink:href="#DejaVuSans-48"/>
       <use x="190.869141" xlink:href="#DejaVuSans-48"/>
      </g>
     </g>
    </g>
    <g id="xtick_6">
     <g id="line2d_6">
      <g>
       <use style="stroke:#000000;stroke-width:0.8;" x="591.628199" xlink:href="#m18765d2342" y="384.48"/>
      </g>
     </g>
     <g id="text_6">
      <!-- 1250 -->
      <g transform="translate(578.903199 399.078438)scale(0.1 -0.1)">
       <use xlink:href="#DejaVuSans-49"/>
       <use x="63.623047" xlink:href="#DejaVuSans-50"/>
       <use x="127.246094" xlink:href="#DejaVuSans-53"/>
       <use x="190.869141" xlink:href="#DejaVuSans-48"/>
      </g>
     </g>
    </g>
    <g id="xtick_7">
     <g id="line2d_7">
      <g>
       <use style="stroke:#000000;stroke-width:0.8;" x="682.266566" xlink:href="#m18765d2342" y="384.48"/>
      </g>
     </g>
     <g id="text_7">
      <!-- 1500 -->
      <g transform="translate(669.541566 399.078438)scale(0.1 -0.1)">
       <use xlink:href="#DejaVuSans-49"/>
       <use x="63.623047" xlink:href="#DejaVuSans-53"/>
       <use x="127.246094" xlink:href="#DejaVuSans-48"/>
       <use x="190.869141" xlink:href="#DejaVuSans-48"/>
      </g>
     </g>
    </g>
    <g id="xtick_8">
     <g id="line2d_8">
      <g>
       <use style="stroke:#000000;stroke-width:0.8;" x="772.904933" xlink:href="#m18765d2342" y="384.48"/>
      </g>
     </g>
     <g id="text_8">
      <!-- 1750 -->
      <g transform="translate(760.179933 399.078438)scale(0.1 -0.1)">
       <use xlink:href="#DejaVuSans-49"/>
       <use x="63.623047" xlink:href="#DejaVuSans-55"/>
       <use x="127.246094" xlink:href="#DejaVuSans-53"/>
       <use x="190.869141" xlink:href="#DejaVuSans-48"/>
      </g>
     </g>
    </g>
    <g id="text_9">
     <!-- Timestamp -->
     <defs>
      <path d="M -0.296875 72.90625 
L 61.375 72.90625 
L 61.375 64.59375 
L 35.5 64.59375 
L 35.5 0 
L 25.59375 0 
L 25.59375 64.59375 
L -0.296875 64.59375 
z
" id="DejaVuSans-84"/>
      <path d="M 9.421875 54.6875 
L 18.40625 54.6875 
L 18.40625 0 
L 9.421875 0 
z
M 9.421875 75.984375 
L 18.40625 75.984375 
L 18.40625 64.59375 
L 9.421875 64.59375 
z
" id="DejaVuSans-105"/>
      <path d="M 52 44.1875 
Q 55.375 50.25 60.0625 53.125 
Q 64.75 56 71.09375 56 
Q 79.640625 56 84.28125 50.015625 
Q 88.921875 44.046875 88.921875 33.015625 
L 88.921875 0 
L 79.890625 0 
L 79.890625 32.71875 
Q 79.890625 40.578125 77.09375 44.375 
Q 74.3125 48.1875 68.609375 48.1875 
Q 61.625 48.1875 57.5625 43.546875 
Q 53.515625 38.921875 53.515625 30.90625 
L 53.515625 0 
L 44.484375 0 
L 44.484375 32.71875 
Q 44.484375 40.625 41.703125 44.40625 
Q 38.921875 48.1875 33.109375 48.1875 
Q 26.21875 48.1875 22.15625 43.53125 
Q 18.109375 38.875 18.109375 30.90625 
L 18.109375 0 
L 9.078125 0 
L 9.078125 54.6875 
L 18.109375 54.6875 
L 18.109375 46.1875 
Q 21.1875 51.21875 25.484375 53.609375 
Q 29.78125 56 35.6875 56 
Q 41.65625 56 45.828125 52.96875 
Q 50 49.953125 52 44.1875 
z
" id="DejaVuSans-109"/>
      <path d="M 56.203125 29.59375 
L 56.203125 25.203125 
L 14.890625 25.203125 
Q 15.484375 15.921875 20.484375 11.0625 
Q 25.484375 6.203125 34.421875 6.203125 
Q 39.59375 6.203125 44.453125 7.46875 
Q 49.3125 8.734375 54.109375 11.28125 
L 54.109375 2.78125 
Q 49.265625 0.734375 44.1875 -0.34375 
Q 39.109375 -1.421875 33.890625 -1.421875 
Q 20.796875 -1.421875 13.15625 6.1875 
Q 5.515625 13.8125 5.515625 26.8125 
Q 5.515625 40.234375 12.765625 48.109375 
Q 20.015625 56 32.328125 56 
Q 43.359375 56 49.78125 48.890625 
Q 56.203125 41.796875 56.203125 29.59375 
z
M 47.21875 32.234375 
Q 47.125 39.59375 43.09375 43.984375 
Q 39.0625 48.390625 32.421875 48.390625 
Q 24.90625 48.390625 20.390625 44.140625 
Q 15.875 39.890625 15.1875 32.171875 
z
" id="DejaVuSans-101"/>
      <path d="M 44.28125 53.078125 
L 44.28125 44.578125 
Q 40.484375 46.53125 36.375 47.5 
Q 32.28125 48.484375 27.875 48.484375 
Q 21.1875 48.484375 17.84375 46.4375 
Q 14.5 44.390625 14.5 40.28125 
Q 14.5 37.15625 16.890625 35.375 
Q 19.28125 33.59375 26.515625 31.984375 
L 29.59375 31.296875 
Q 39.15625 29.25 43.1875 25.515625 
Q 47.21875 21.78125 47.21875 15.09375 
Q 47.21875 7.46875 41.1875 3.015625 
Q 35.15625 -1.421875 24.609375 -1.421875 
Q 20.21875 -1.421875 15.453125 -0.5625 
Q 10.6875 0.296875 5.421875 2 
L 5.421875 11.28125 
Q 10.40625 8.6875 15.234375 7.390625 
Q 20.0625 6.109375 24.8125 6.109375 
Q 31.15625 6.109375 34.5625 8.28125 
Q 37.984375 10.453125 37.984375 14.40625 
Q 37.984375 18.0625 35.515625 20.015625 
Q 33.0625 21.96875 24.703125 23.78125 
L 21.578125 24.515625 
Q 13.234375 26.265625 9.515625 29.90625 
Q 5.8125 33.546875 5.8125 39.890625 
Q 5.8125 47.609375 11.28125 51.796875 
Q 16.75 56 26.8125 56 
Q 31.78125 56 36.171875 55.265625 
Q 40.578125 54.546875 44.28125 53.078125 
z
" id="DejaVuSans-115"/>
      <path d="M 18.3125 70.21875 
L 18.3125 54.6875 
L 36.8125 54.6875 
L 36.8125 47.703125 
L 18.3125 47.703125 
L 18.3125 18.015625 
Q 18.3125 11.328125 20.140625 9.421875 
Q 21.96875 7.515625 27.59375 7.515625 
L 36.8125 7.515625 
L 36.8125 0 
L 27.59375 0 
Q 17.1875 0 13.234375 3.875 
Q 9.28125 7.765625 9.28125 18.015625 
L 9.28125 47.703125 
L 2.6875 47.703125 
L 2.6875 54.6875 
L 9.28125 54.6875 
L 9.28125 70.21875 
z
" id="DejaVuSans-116"/>
      <path d="M 34.28125 27.484375 
Q 23.390625 27.484375 19.1875 25 
Q 14.984375 22.515625 14.984375 16.5 
Q 14.984375 11.71875 18.140625 8.90625 
Q 21.296875 6.109375 26.703125 6.109375 
Q 34.1875 6.109375 38.703125 11.40625 
Q 43.21875 16.703125 43.21875 25.484375 
L 43.21875 27.484375 
z
M 52.203125 31.203125 
L 52.203125 0 
L 43.21875 0 
L 43.21875 8.296875 
Q 40.140625 3.328125 35.546875 0.953125 
Q 30.953125 -1.421875 24.3125 -1.421875 
Q 15.921875 -1.421875 10.953125 3.296875 
Q 6 8.015625 6 15.921875 
Q 6 25.140625 12.171875 29.828125 
Q 18.359375 34.515625 30.609375 34.515625 
L 43.21875 34.515625 
L 43.21875 35.40625 
Q 43.21875 41.609375 39.140625 45 
Q 35.0625 48.390625 27.6875 48.390625 
Q 23 48.390625 18.546875 47.265625 
Q 14.109375 46.140625 10.015625 43.890625 
L 10.015625 52.203125 
Q 14.9375 54.109375 19.578125 55.046875 
Q 24.21875 56 28.609375 56 
Q 40.484375 56 46.34375 49.84375 
Q 52.203125 43.703125 52.203125 31.203125 
z
" id="DejaVuSans-97"/>
      <path d="M 18.109375 8.203125 
L 18.109375 -20.796875 
L 9.078125 -20.796875 
L 9.078125 54.6875 
L 18.109375 54.6875 
L 18.109375 46.390625 
Q 20.953125 51.265625 25.265625 53.625 
Q 29.59375 56 35.59375 56 
Q 45.5625 56 51.78125 48.09375 
Q 58.015625 40.1875 58.015625 27.296875 
Q 58.015625 14.40625 51.78125 6.484375 
Q 45.5625 -1.421875 35.59375 -1.421875 
Q 29.59375 -1.421875 25.265625 0.953125 
Q 20.953125 3.328125 18.109375 8.203125 
z
M 48.6875 27.296875 
Q 48.6875 37.203125 44.609375 42.84375 
Q 40.53125 48.484375 33.40625 48.484375 
Q 26.265625 48.484375 22.1875 42.84375 
Q 18.109375 37.203125 18.109375 27.296875 
Q 18.109375 17.390625 22.1875 11.75 
Q 26.265625 6.109375 33.40625 6.109375 
Q 40.53125 6.109375 44.609375 11.75 
Q 48.6875 17.390625 48.6875 27.296875 
z
" id="DejaVuSans-112"/>
     </defs>
     <g transform="translate(414.739062 412.756563)scale(0.1 -0.1)">
      <use xlink:href="#DejaVuSans-84"/>
      <use x="61.037109" xlink:href="#DejaVuSans-105"/>
      <use x="88.820312" xlink:href="#DejaVuSans-109"/>
      <use x="186.232422" xlink:href="#DejaVuSans-101"/>
      <use x="247.755859" xlink:href="#DejaVuSans-115"/>
      <use x="299.855469" xlink:href="#DejaVuSans-116"/>
      <use x="339.064453" xlink:href="#DejaVuSans-97"/>
      <use x="400.34375" xlink:href="#DejaVuSans-109"/>
      <use x="497.755859" xlink:href="#DejaVuSans-112"/>
     </g>
    </g>
   </g>
   <g id="matplotlib.axis_2">
    <g id="ytick_1">
     <g id="line2d_9">
      <defs>
       <path d="M 0 0 
L -3.5 0 
" id="ma27693b05b" style="stroke:#000000;stroke-width:0.8;"/>
      </defs>
      <g>
       <use style="stroke:#000000;stroke-width:0.8;" x="108" xlink:href="#ma27693b05b" y="336.965009"/>
      </g>
     </g>
     <g id="text_10">
      <!-- 0 -->
      <g transform="translate(94.6375 340.764228)scale(0.1 -0.1)">
       <use xlink:href="#DejaVuSans-48"/>
      </g>
     </g>
    </g>
    <g id="ytick_2">
     <g id="line2d_10">
      <g>
       <use style="stroke:#000000;stroke-width:0.8;" x="108" xlink:href="#ma27693b05b" y="265.786631"/>
      </g>
     </g>
     <g id="text_11">
      <!-- 1000 -->
      <g transform="translate(75.55 269.585849)scale(0.1 -0.1)">
       <use xlink:href="#DejaVuSans-49"/>
       <use x="63.623047" xlink:href="#DejaVuSans-48"/>
       <use x="127.246094" xlink:href="#DejaVuSans-48"/>
       <use x="190.869141" xlink:href="#DejaVuSans-48"/>
      </g>
     </g>
    </g>
    <g id="ytick_3">
     <g id="line2d_11">
      <g>
       <use style="stroke:#000000;stroke-width:0.8;" x="108" xlink:href="#ma27693b05b" y="194.608252"/>
      </g>
     </g>
     <g id="text_12">
      <!-- 2000 -->
      <g transform="translate(75.55 198.407471)scale(0.1 -0.1)">
       <use xlink:href="#DejaVuSans-50"/>
       <use x="63.623047" xlink:href="#DejaVuSans-48"/>
       <use x="127.246094" xlink:href="#DejaVuSans-48"/>
       <use x="190.869141" xlink:href="#DejaVuSans-48"/>
      </g>
     </g>
    </g>
    <g id="ytick_4">
     <g id="line2d_12">
      <g>
       <use style="stroke:#000000;stroke-width:0.8;" x="108" xlink:href="#ma27693b05b" y="123.429873"/>
      </g>
     </g>
     <g id="text_13">
      <!-- 3000 -->
      <defs>
       <path d="M 40.578125 39.3125 
Q 47.65625 37.796875 51.625 33 
Q 55.609375 28.21875 55.609375 21.1875 
Q 55.609375 10.40625 48.1875 4.484375 
Q 40.765625 -1.421875 27.09375 -1.421875 
Q 22.515625 -1.421875 17.65625 -0.515625 
Q 12.796875 0.390625 7.625 2.203125 
L 7.625 11.71875 
Q 11.71875 9.328125 16.59375 8.109375 
Q 21.484375 6.890625 26.8125 6.890625 
Q 36.078125 6.890625 40.9375 10.546875 
Q 45.796875 14.203125 45.796875 21.1875 
Q 45.796875 27.640625 41.28125 31.265625 
Q 36.765625 34.90625 28.71875 34.90625 
L 20.21875 34.90625 
L 20.21875 43.015625 
L 29.109375 43.015625 
Q 36.375 43.015625 40.234375 45.921875 
Q 44.09375 48.828125 44.09375 54.296875 
Q 44.09375 59.90625 40.109375 62.90625 
Q 36.140625 65.921875 28.71875 65.921875 
Q 24.65625 65.921875 20.015625 65.03125 
Q 15.375 64.15625 9.8125 62.3125 
L 9.8125 71.09375 
Q 15.4375 72.65625 20.34375 73.4375 
Q 25.25 74.21875 29.59375 74.21875 
Q 40.828125 74.21875 47.359375 69.109375 
Q 53.90625 64.015625 53.90625 55.328125 
Q 53.90625 49.265625 50.4375 45.09375 
Q 46.96875 40.921875 40.578125 39.3125 
z
" id="DejaVuSans-51"/>
      </defs>
      <g transform="translate(75.55 127.229092)scale(0.1 -0.1)">
       <use xlink:href="#DejaVuSans-51"/>
       <use x="63.623047" xlink:href="#DejaVuSans-48"/>
       <use x="127.246094" xlink:href="#DejaVuSans-48"/>
       <use x="190.869141" xlink:href="#DejaVuSans-48"/>
      </g>
     </g>
    </g>
    <g id="ytick_5">
     <g id="line2d_13">
      <g>
       <use style="stroke:#000000;stroke-width:0.8;" x="108" xlink:href="#ma27693b05b" y="52.251495"/>
      </g>
     </g>
     <g id="text_14">
      <!-- 4000 -->
      <defs>
       <path d="M 37.796875 64.3125 
L 12.890625 25.390625 
L 37.796875 25.390625 
z
M 35.203125 72.90625 
L 47.609375 72.90625 
L 47.609375 25.390625 
L 58.015625 25.390625 
L 58.015625 17.1875 
L 47.609375 17.1875 
L 47.609375 0 
L 37.796875 0 
L 37.796875 17.1875 
L 4.890625 17.1875 
L 4.890625 26.703125 
z
" id="DejaVuSans-52"/>
      </defs>
      <g transform="translate(75.55 56.050713)scale(0.1 -0.1)">
       <use xlink:href="#DejaVuSans-52"/>
       <use x="63.623047" xlink:href="#DejaVuSans-48"/>
       <use x="127.246094" xlink:href="#DejaVuSans-48"/>
       <use x="190.869141" xlink:href="#DejaVuSans-48"/>
      </g>
     </g>
    </g>
    <g id="text_15">
     <!-- Value -->
     <defs>
      <path d="M 28.609375 0 
L 0.78125 72.90625 
L 11.078125 72.90625 
L 34.1875 11.53125 
L 57.328125 72.90625 
L 67.578125 72.90625 
L 39.796875 0 
z
" id="DejaVuSans-86"/>
      <path d="M 9.421875 75.984375 
L 18.40625 75.984375 
L 18.40625 0 
L 9.421875 0 
z
" id="DejaVuSans-108"/>
      <path d="M 8.5 21.578125 
L 8.5 54.6875 
L 17.484375 54.6875 
L 17.484375 21.921875 
Q 17.484375 14.15625 20.5 10.265625 
Q 23.53125 6.390625 29.59375 6.390625 
Q 36.859375 6.390625 41.078125 11.03125 
Q 45.3125 15.671875 45.3125 23.6875 
L 45.3125 54.6875 
L 54.296875 54.6875 
L 54.296875 0 
L 45.3125 0 
L 45.3125 8.40625 
Q 42.046875 3.421875 37.71875 1 
Q 33.40625 -1.421875 27.6875 -1.421875 
Q 18.265625 -1.421875 13.375 4.4375 
Q 8.5 10.296875 8.5 21.578125 
z
M 31.109375 56 
z
" id="DejaVuSans-117"/>
     </defs>
     <g transform="translate(69.470312 232.273281)rotate(-90)scale(0.1 -0.1)">
      <use xlink:href="#DejaVuSans-86"/>
      <use x="68.298828" xlink:href="#DejaVuSans-97"/>
      <use x="129.578125" xlink:href="#DejaVuSans-108"/>
      <use x="157.361328" xlink:href="#DejaVuSans-117"/>
      <use x="220.740234" xlink:href="#DejaVuSans-101"/>
     </g>
    </g>
   </g>
   <g id="line2d_14">
    <path clip-path="url(#pea25889623)" d="M 138.436364 335.927508 
L 138.798917 318.032508 
L 139.524024 298.020911 
L 139.886578 299.337352 
L 140.249131 305.924676 
L 141.336791 342.175479 
L 141.699345 345.78964 
L 142.061898 344.621659 
L 142.424452 340.303769 
L 143.512112 312.069349 
L 143.874666 312.517777 
L 144.237219 315.50497 
L 144.962326 338.083519 
L 145.687433 362.067918 
L 146.049986 359.788583 
L 146.41254 351.864469 
L 146.775093 341.092545 
L 147.862754 293.066452 
L 148.225307 285.48039 
L 148.587861 287.156646 
L 149.312968 304.171045 
L 149.675521 319.205172 
L 150.038075 329.20944 
L 150.400628 333.900401 
L 150.763182 333.849577 
L 151.488288 320.615924 
L 151.850842 308.23616 
L 152.213395 299.859645 
L 152.575949 301.730028 
L 153.301056 317.210383 
L 154.388716 351.389115 
L 154.75127 353.471898 
L 155.113823 346.178704 
L 155.476377 334.504251 
L 156.201484 299.574674 
L 156.564037 285.808992 
L 156.926591 279.26775 
L 157.289144 282.373448 
L 157.651697 289.492113 
L 158.739358 330.792223 
L 159.101911 334.177484 
L 159.464465 332.899713 
L 160.914679 301.432892 
L 161.277232 301.289055 
L 161.639786 307.939405 
L 163.089999 354.35708 
L 163.452553 354.784159 
L 163.815106 350.953187 
L 165.26532 293.287991 
L 165.627874 284.546324 
L 165.990427 288.3722 
L 166.352981 293.921032 
L 167.078088 323.110238 
L 167.440641 331.857854 
L 168.165748 339.966873 
L 168.890855 325.783239 
L 169.253408 316.004724 
L 169.615962 310.116195 
L 169.978515 307.649689 
L 170.341069 314.056093 
L 170.703622 324.956455 
L 171.428729 355.152081 
L 171.791283 363.819803 
L 172.153836 364.322733 
L 172.878943 346.345228 
L 173.241497 326.40563 
L 173.966603 300.513898 
L 174.329157 294.033668 
L 174.69171 294.993577 
L 175.054264 301.757265 
L 176.141924 340.094518 
L 176.504478 346.969582 
L 176.867031 348.647956 
L 178.317245 317.352691 
L 178.679799 315.232352 
L 179.404906 330.199639 
L 180.130012 360.477818 
L 180.855119 369.36 
L 181.217673 363.482034 
L 181.580226 350.766999 
L 182.305333 315.505899 
L 182.667887 304.62932 
L 183.03044 298.131757 
L 183.392994 296.612691 
L 184.118101 319.12823 
L 184.843208 344.965964 
L 185.205761 349.735103 
L 185.930868 342.938954 
L 186.655975 321.972476 
L 187.018528 313.214895 
L 187.381082 315.25803 
L 187.743635 320.461175 
L 188.468742 343.074521 
L 188.831296 356.745155 
L 189.193849 362.04519 
L 189.556403 363.711361 
L 189.918956 357.181466 
L 191.36917 297.178255 
L 191.731723 290.884336 
L 192.094277 289.399916 
L 192.45683 297.467282 
L 193.181937 322.868639 
L 193.907044 338.927502 
L 194.269598 337.782742 
L 194.632151 331.958717 
L 195.357258 309.34462 
L 196.082365 302.010985 
L 196.807472 316.537556 
L 197.532579 342.438961 
L 197.895132 349.721896 
L 198.257686 352.272964 
L 198.982793 330.811063 
L 199.345346 316.449457 
L 199.7079 293.205897 
L 200.070453 280.570838 
L 200.433007 273.745893 
L 200.79556 274.901293 
L 201.520667 294.361506 
L 202.245774 319.888334 
L 202.608327 324.713913 
L 202.970881 323.574571 
L 203.333434 317.563223 
L 203.695988 302.660351 
L 204.058541 294.539518 
L 204.783648 286.29654 
L 205.146202 291.881592 
L 206.233862 328.739807 
L 206.596416 333.643213 
L 206.958969 336.075436 
L 207.321523 330.436606 
L 208.771736 269.449209 
L 209.13429 263.540321 
L 209.496843 262.639809 
L 209.859397 271.082178 
L 210.947057 304.73282 
L 211.309611 308.949393 
L 211.672164 308.077931 
L 212.034718 303.287751 
L 212.397271 295.931649 
L 212.759825 285.197859 
L 213.122378 279.579014 
L 213.484932 278.994944 
L 213.847485 284.118607 
L 214.210038 291.948216 
L 214.572592 307.398304 
L 215.297699 327.897353 
L 215.660252 329.316038 
L 216.022806 325.286415 
L 217.47302 262.724889 
L 217.835573 253.534312 
L 218.56068 267.023157 
L 219.64834 304.380846 
L 220.010894 310.952628 
L 220.373447 308.126692 
L 220.736001 303.806854 
L 221.461108 284.829261 
L 221.823661 280.043687 
L 222.186215 278.359963 
L 222.548768 283.001001 
L 222.911322 297.836396 
L 223.273875 306.511117 
L 223.636429 324.425776 
L 223.998982 330.994888 
L 224.361536 331.760111 
L 224.724089 325.787731 
L 225.086642 315.554027 
L 226.174303 267.387622 
L 226.536856 262.468942 
L 226.89941 261.87828 
L 227.261963 270.856449 
L 227.98707 299.724924 
L 228.712177 315.615252 
L 229.074731 315.415634 
L 229.437284 310.063665 
L 229.799838 298.95107 
L 230.162391 233.256374 
L 230.524945 283.73539 
L 230.887498 285.419216 
L 231.250051 291.716263 
L 231.975158 317.669193 
L 232.337712 326.640926 
L 232.700265 339.14624 
L 233.062819 340.341265 
L 233.425372 335.948197 
L 234.150479 306.896772 
L 234.513033 287.273653 
L 234.875586 274.329632 
L 235.23814 269.588236 
L 235.600693 271.419608 
L 236.3258 290.114721 
L 237.050907 318.436214 
L 237.41346 322.656891 
L 237.776014 320.552411 
L 238.138567 316.811659 
L 238.501121 309.329606 
L 239.226228 290.165193 
L 239.588781 295.009166 
L 239.951335 297.984161 
L 240.313888 308.441549 
L 241.038995 337.12426 
L 241.401549 342.869062 
L 241.764102 343.377587 
L 242.126655 338.625063 
L 242.489209 325.356078 
L 243.214316 289.833112 
L 243.939423 271.262873 
L 244.301976 275.12964 
L 244.66453 281.578167 
L 245.75219 316.371875 
L 246.114744 323.316078 
L 246.477297 320.588323 
L 246.839851 316.246882 
L 247.564957 297.030844 
L 247.927511 289.542107 
L 248.290064 286.518805 
L 248.652618 294.391404 
L 249.740278 330.965527 
L 250.102832 339.822642 
L 250.465385 342.213819 
L 250.827939 333.812269 
L 251.553046 302.7434 
L 251.915599 284.600334 
L 252.278153 272.180534 
L 252.640706 266.179403 
L 253.00326 264.650225 
L 253.365813 276.351645 
L 253.728366 282.883239 
L 254.09092 299.658022 
L 254.453473 309.483258 
L 255.17858 317.375792 
L 256.628794 279.410518 
L 256.991348 279.803585 
L 257.353901 283.547662 
L 258.441562 318.419449 
L 258.804115 325.902299 
L 259.166668 328.058773 
L 259.891775 307.512435 
L 260.979436 258.67513 
L 261.341989 250.613551 
L 261.704543 252.487252 
L 262.067096 257.801335 
L 262.792203 284.931543 
L 263.154757 293.765688 
L 263.51731 298.913942 
L 263.879864 297.383216 
L 264.242417 291.482208 
L 265.330077 265.336844 
L 265.692631 262.826692 
L 266.417738 279.996439 
L 266.780291 294.95727 
L 267.142845 305.112146 
L 267.505398 311.918714 
L 267.867952 312.926863 
L 268.230505 306.019245 
L 268.955612 275.76678 
L 269.680719 243.842326 
L 270.043273 238.841716 
L 270.405826 236.620716 
L 270.768379 245.079809 
L 271.130933 256.229964 
L 271.85604 281.412562 
L 272.218593 288.124259 
L 272.581147 286.578151 
L 274.031361 254.28719 
L 274.393914 254.609042 
L 274.756468 261.251651 
L 275.119021 270.603535 
L 275.844128 297.07911 
L 276.206681 307.011108 
L 276.569235 302.899302 
L 276.931788 296.706141 
L 277.294342 286.359564 
L 278.382002 239.74664 
L 278.744556 233.424454 
L 279.107109 233.540943 
L 279.469663 240.587502 
L 280.19477 268.665452 
L 280.919877 288.172455 
L 281.28243 285.535074 
L 281.644983 280.907789 
L 282.37009 261.220498 
L 282.732644 255.058009 
L 283.095197 254.147067 
L 283.457751 260.355484 
L 284.907965 305.353061 
L 285.270518 308.10844 
L 285.633072 301.741284 
L 285.995625 288.772406 
L 286.720732 256.785359 
L 287.083286 242.63205 
L 287.445839 238.885884 
L 287.808392 237.659947 
L 289.62116 293.287363 
L 289.983713 291.337592 
L 290.346267 286.61959 
L 290.70882 278.079225 
L 291.071374 266.340321 
L 291.433927 261.75763 
L 291.796481 261.106105 
L 292.521588 277.726182 
L 293.609248 316.410312 
L 293.971801 316.86783 
L 294.334355 309.899975 
L 294.696908 298.719988 
L 295.059462 281.198657 
L 295.422015 322.223269 
L 295.784569 252.751155 
L 296.147122 247.51654 
L 296.509676 247.065235 
L 296.872229 256.170899 
L 297.95989 293.400641 
L 298.322443 299.369686 
L 298.684996 298.608489 
L 299.04755 294.667445 
L 299.772657 274.363383 
L 300.13521 267.849957 
L 300.497764 270.439477 
L 300.860317 271.717547 
L 301.585424 299.093416 
L 301.947978 312.64072 
L 302.310531 319.230863 
L 302.673085 319.552329 
L 303.035638 317.505792 
L 303.760745 287.881633 
L 304.123299 267.704742 
L 304.485852 254.715153 
L 304.848405 247.537714 
L 305.210959 250.494013 
L 305.573512 255.413079 
L 306.661173 294.289413 
L 307.023726 300.101753 
L 307.38628 299.543043 
L 308.47394 274.70992 
L 308.836494 268.832416 
L 309.199047 267.976662 
L 309.561601 273.585368 
L 309.924154 287.481612 
L 310.286707 295.851238 
L 310.649261 308.599347 
L 311.011814 316.086503 
L 311.374368 314.200152 
L 311.736921 307.66497 
L 312.099475 297.603413 
L 312.824582 262.607089 
L 313.549689 241.722059 
L 313.912242 242.404876 
L 314.274796 249.942059 
L 315.362456 284.702378 
L 315.725009 289.248962 
L 316.087563 286.087462 
L 316.450116 280.689064 
L 316.81267 273.54651 
L 317.175223 261.697142 
L 317.90033 253.710104 
L 318.262884 261.377301 
L 319.713098 303.997093 
L 320.075651 302.514052 
L 320.438205 294.938167 
L 320.800758 282.829324 
L 321.888418 231.900417 
L 322.250972 229.171067 
L 322.613525 228.128362 
L 323.338632 247.454893 
L 323.701186 260.98472 
L 324.426293 276.412725 
L 324.788846 275.270397 
L 325.1514 269.480839 
L 325.513953 256.854125 
L 325.876507 249.697454 
L 326.23906 238.38002 
L 326.601614 239.520227 
L 326.964167 244.693268 
L 328.414381 287.426864 
L 328.776934 291.412402 
L 329.139488 283.751251 
L 329.864595 250.984144 
L 330.589702 221.851535 
L 330.952255 216.075982 
L 331.314809 214.294395 
L 331.677362 223.088011 
L 332.402469 248.471862 
L 332.765022 258.534225 
L 333.127576 265.037819 
L 333.490129 265.13063 
L 334.215236 246.989034 
L 334.57779 237.629553 
L 334.940343 231.220399 
L 335.302897 229.774795 
L 335.66545 234.291752 
L 336.028004 245.112702 
L 336.390557 260.327228 
L 337.115664 280.497325 
L 337.478218 281.090784 
L 337.840771 273.556526 
L 338.565878 247.242872 
L 339.290985 213.649471 
L 339.653538 209.743815 
L 340.016092 210.57734 
L 340.378645 218.722112 
L 341.466306 257.591594 
L 341.828859 260.551326 
L 342.191413 262.274655 
L 343.641627 230.916701 
L 344.00418 230.479188 
L 344.366733 235.92336 
L 344.729287 247.20965 
L 345.454394 273.841162 
L 345.816947 282.595821 
L 346.179501 283.821222 
L 346.542054 279.875002 
L 347.992268 220.497221 
L 348.354822 212.846244 
L 348.717375 213.530775 
L 349.805035 249.559055 
L 350.167589 262.624356 
L 350.530142 267.682904 
L 350.892696 267.67691 
L 351.255249 262.255752 
L 351.617803 252.476093 
L 351.980356 246.109348 
L 352.34291 237.670013 
L 352.705463 239.380019 
L 353.068017 245.983616 
L 353.43057 254.666027 
L 354.155677 281.458121 
L 354.518231 290.480081 
L 354.880784 290.095727 
L 355.243337 285.060346 
L 355.605891 275.106544 
L 356.330998 242.272172 
L 356.693551 229.378888 
L 357.056105 221.799517 
L 357.418658 223.508079 
L 358.143765 245.164849 
L 358.868872 268.339935 
L 359.231426 277.327908 
L 359.593979 275.496989 
L 359.956533 269.041911 
L 360.68164 249.358349 
L 361.044193 247.283893 
L 361.406746 243.027523 
L 362.131853 258.613132 
L 362.494407 277.433191 
L 363.219514 296.193941 
L 363.582067 295.374547 
L 363.944621 291.022653 
L 364.307174 278.623125 
L 365.032281 242.726565 
L 365.394835 231.897179 
L 365.757388 226.223993 
L 366.119942 226.829321 
L 366.482495 233.473249 
L 367.570155 270.257777 
L 367.932709 275.976776 
L 368.295262 273.407586 
L 369.020369 259.5612 
L 369.382923 249.578356 
L 369.745476 243.228311 
L 370.10803 243.310222 
L 370.470583 248.788343 
L 371.19569 270.981255 
L 371.558244 286.953079 
L 372.28335 292.338286 
L 372.645904 284.789476 
L 373.008457 272.367593 
L 374.096118 223.47132 
L 374.458671 218.420816 
L 374.821225 219.782505 
L 375.183778 225.889858 
L 375.546332 236.373893 
L 375.908885 254.841091 
L 376.633992 265.891219 
L 377.359099 260.248006 
L 377.721652 250.913738 
L 378.084206 238.427572 
L 378.446759 231.337469 
L 378.809313 230.267116 
L 379.53442 245.836395 
L 379.896973 262.264071 
L 380.259527 272.080966 
L 380.62208 278.782631 
L 380.984634 277.580639 
L 381.347187 275.462674 
L 382.797401 208.976635 
L 383.159955 201.794074 
L 383.522508 203.432773 
L 383.885061 208.715299 
L 384.972722 246.245336 
L 385.335275 249.128864 
L 385.697829 250.974726 
L 386.060382 245.241834 
L 386.785489 221.70036 
L 387.148043 217.735807 
L 387.510596 215.751022 
L 388.235703 230.018046 
L 388.598257 245.949006 
L 389.323363 264.567236 
L 389.685917 265.951177 
L 390.04847 257.223983 
L 390.411024 245.215065 
L 391.498684 197.394366 
L 392.223791 188.727786 
L 392.586345 196.930086 
L 393.674005 233.360426 
L 394.036559 237.582349 
L 394.399112 237.261488 
L 394.761665 235.430993 
L 395.486772 213.418602 
L 396.211879 204.374722 
L 396.574433 210.604022 
L 397.662093 247.093299 
L 398.024647 254.722371 
L 398.3872 257.426073 
L 398.749754 250.954534 
L 399.474861 222.815872 
L 399.837414 204.796283 
L 400.199968 192.54989 
L 400.562521 184.663335 
L 400.925074 186.207376 
L 401.650181 206.953475 
L 402.375288 232.405016 
L 402.737842 237.917346 
L 403.100395 236.502163 
L 403.825502 222.739474 
L 404.188056 210.951548 
L 404.550609 208.011538 
L 404.913163 209.039884 
L 405.275716 214.041631 
L 406.363376 248.583067 
L 406.72593 256.65755 
L 407.088483 260.789262 
L 407.451037 255.208427 
L 407.81359 242.330758 
L 408.538697 207.931598 
L 409.263804 190.025304 
L 409.626358 193.660186 
L 409.988911 199.358166 
L 411.076572 237.719955 
L 411.439125 244.394399 
L 411.801678 244.599591 
L 412.526785 231.438618 
L 412.889339 217.145417 
L 413.251892 212.743084 
L 413.976999 219.68096 
L 414.339553 231.612637 
L 415.06466 258.757822 
L 415.427213 267.667717 
L 415.789767 267.372605 
L 416.15232 264.302796 
L 417.602534 204.388361 
L 417.965087 201.186258 
L 418.327641 202.078216 
L 418.690194 208.630095 
L 419.777855 245.987796 
L 420.140408 251.886802 
L 420.502962 250.467044 
L 420.865515 245.372539 
L 421.590622 226.26812 
L 421.953176 220.080031 
L 422.315729 219.032355 
L 423.403389 250.747812 
L 423.765943 266.568495 
L 424.128496 273.116221 
L 424.49105 274.019869 
L 424.853603 266.695128 
L 425.216157 254.23361 
L 425.57871 234.643011 
L 426.303817 209.840985 
L 426.666371 201.083194 
L 427.028924 201.554295 
L 427.754031 221.225477 
L 428.116585 236.078163 
L 428.479138 244.963203 
L 428.841691 250.33172 
L 429.204245 250.050802 
L 429.566798 245.074712 
L 429.929352 238.171028 
L 430.291905 223.839917 
L 431.017012 218.301729 
L 431.742119 232.200409 
L 432.104673 249.666731 
L 432.82978 266.616005 
L 433.192333 269.225123 
L 433.91744 248.894001 
L 434.642547 213.457542 
L 435.367654 192.684363 
L 435.730207 195.449986 
L 436.092761 203.404858 
L 436.817868 225.838354 
L 437.180421 234.548766 
L 437.542975 238.94225 
L 437.905528 241.362739 
L 438.268082 237.049456 
L 438.993189 210.824753 
L 439.355742 206.229824 
L 439.718296 206.541097 
L 440.080849 211.762687 
L 440.443402 221.866182 
L 441.168509 246.350915 
L 441.531063 254.726705 
L 441.893616 256.043972 
L 442.25617 249.127844 
L 442.981277 218.172392 
L 443.706384 185.695907 
L 444.068937 177.773792 
L 444.431491 180.91913 
L 444.794044 188.375192 
L 445.519151 212.536919 
L 445.881704 222.882066 
L 446.244258 228.404842 
L 446.606811 227.056975 
L 447.331918 209.030322 
L 448.057025 193.309089 
L 448.419579 190.638651 
L 448.782132 198.248482 
L 449.869793 233.779312 
L 450.232346 179.921305 
L 450.5949 238.941312 
L 450.957453 233.366623 
L 451.320006 221.485655 
L 452.407667 172.593395 
L 452.77022 166.853663 
L 453.132774 164.27181 
L 454.945541 218.621086 
L 455.308095 216.658386 
L 455.670648 210.535124 
L 456.033202 197.652559 
L 456.758309 182.412296 
L 457.120862 182.743952 
L 457.483415 187.780683 
L 458.571076 224.662874 
L 458.933629 231.324068 
L 459.296183 234.488075 
L 459.658736 229.964187 
L 460.02129 215.064591 
L 460.746397 180.916208 
L 461.10895 166.794708 
L 461.471504 163.066051 
L 461.834057 161.594357 
L 462.559164 181.08334 
L 463.284271 208.433487 
L 463.646824 211.201241 
L 464.009378 210.095681 
L 464.371931 207.535915 
L 464.734485 196.683951 
L 465.459592 183.393555 
L 465.822145 184.792145 
L 466.184699 188.017221 
L 466.547252 199.418012 
L 467.272359 228.626223 
L 467.634913 235.230745 
L 467.997466 236.264653 
L 468.360019 231.294419 
L 469.44768 182.463639 
L 470.172787 164.911987 
L 470.53534 165.943427 
L 471.260447 189.361149 
L 471.985554 212.980585 
L 472.348108 220.993461 
L 472.710661 220.901397 
L 473.435768 204.358515 
L 473.798322 193.475196 
L 474.160875 189.416543 
L 474.523428 189.795638 
L 475.248535 207.59639 
L 476.336196 244.836863 
L 476.698749 244.349405 
L 477.061303 236.882142 
L 477.78641 207.852012 
L 478.511517 179.547634 
L 478.87407 174.30194 
L 479.236624 175.432767 
L 479.96173 196.933778 
L 480.686837 222.263948 
L 481.049391 228.667676 
L 481.411944 228.661446 
L 482.862158 195.751254 
L 483.224712 197.176143 
L 483.587265 202.344315 
L 485.037479 245.859889 
L 485.400032 248.161139 
L 485.762586 240.885405 
L 486.125139 229.829742 
L 487.2128 183.723129 
L 487.575353 176.88552 
L 487.937907 175.918712 
L 488.30046 184.413068 
L 489.025567 210.389899 
L 489.388121 223.342038 
L 489.750674 229.07713 
L 490.113228 228.557081 
L 490.838335 212.326615 
L 491.200888 199.050279 
L 491.563441 198.384652 
L 491.925995 195.343928 
L 492.288548 201.55097 
L 492.651102 210.565385 
L 493.376209 236.762474 
L 493.738762 244.014464 
L 494.101316 244.785749 
L 494.463869 236.747618 
L 495.188976 209.119133 
L 495.55153 189.11558 
L 495.914083 176.98551 
L 496.276637 172.05386 
L 496.63919 169.969051 
L 497.364297 191.459017 
L 498.451957 219.763885 
L 498.814511 220.074628 
L 500.264725 183.40502 
L 500.627278 182.540591 
L 500.989832 186.994684 
L 502.440045 232.85236 
L 502.802599 230.049796 
L 503.165152 222.483152 
L 504.252813 176.200816 
L 504.615366 161.432846 
L 504.97792 154.227363 
L 505.340473 155.169404 
L 505.703027 161.267316 
L 506.428134 189.990616 
L 507.153241 203.340441 
L 507.515794 202.475978 
L 507.878348 196.3476 
L 508.603454 176.481286 
L 508.966008 170.628672 
L 509.328561 168.206801 
L 509.691115 173.657241 
L 510.053668 183.734776 
L 510.778775 209.469035 
L 511.141329 216.279901 
L 511.503882 217.494185 
L 511.866436 210.22672 
L 512.591543 179.062702 
L 512.954096 161.387112 
L 513.31665 149.536563 
L 513.679203 142.026814 
L 514.041756 144.097218 
L 514.40431 150.9274 
L 515.49197 187.42694 
L 516.217077 191.92745 
L 516.942184 176.448924 
L 517.304738 164.624879 
L 517.667291 158.571255 
L 518.029845 156.557092 
L 518.754952 175.660436 
L 519.842612 208.785512 
L 520.205165 211.06438 
L 520.567719 202.880516 
L 520.930272 190.968574 
L 522.017933 144.11241 
L 522.380486 138.041351 
L 522.74304 137.737239 
L 523.105593 145.657495 
L 524.193254 182.841017 
L 524.555807 192.46198 
L 525.280914 183.663917 
L 526.006021 166.071352 
L 526.368574 157.901584 
L 526.731128 158.894117 
L 527.456235 172.988564 
L 528.181342 201.413512 
L 528.543895 207.790027 
L 528.906449 210.365931 
L 529.269002 204.608909 
L 529.631556 193.601884 
L 530.719216 149.772488 
L 531.081769 142.26422 
L 531.444323 143.271565 
L 531.806876 150.814962 
L 532.894537 190.553836 
L 533.25709 195.805753 
L 533.619644 197.864429 
L 533.982197 192.675205 
L 535.069858 165.937383 
L 535.432411 165.244304 
L 535.794965 171.001198 
L 537.245178 220.377687 
L 537.607732 219.62725 
L 537.970285 213.602145 
L 538.332839 203.090608 
L 539.057946 168.317841 
L 539.420499 157.256648 
L 539.783053 150.420315 
L 540.145606 153.376136 
L 540.50816 160.365791 
L 540.870713 171.666612 
L 541.233267 187.999476 
L 541.59582 198.09665 
L 541.958373 202.748005 
L 542.320927 202.303915 
L 542.68348 197.150356 
L 543.408587 176.90945 
L 543.771141 173.158955 
L 544.133694 170.839263 
L 544.496248 178.918846 
L 545.221355 203.282646 
L 545.583908 216.103994 
L 545.946462 223.832194 
L 546.309015 227.900486 
L 546.671569 220.211889 
L 547.396676 192.662459 
L 548.121782 157.007827 
L 548.484336 152.619527 
L 548.846889 154.606136 
L 549.209443 161.455408 
L 549.93455 186.913429 
L 550.297103 201.249892 
L 550.659657 205.837807 
L 551.02221 203.277342 
L 551.747317 188.951268 
L 552.109871 176.177459 
L 552.472424 171.6469 
L 552.834978 170.878048 
L 553.197531 175.136693 
L 553.922638 198.660209 
L 554.285191 213.808597 
L 554.647745 222.314696 
L 555.010298 221.014712 
L 555.372852 213.31549 
L 556.097959 182.567992 
L 556.823066 152.472987 
L 557.185619 144.542242 
L 557.548173 145.509165 
L 557.910726 153.753092 
L 558.998386 190.238729 
L 559.36094 194.801499 
L 559.723493 191.031374 
L 560.086047 186.03107 
L 560.811154 166.816289 
L 561.173707 161.07729 
L 561.536261 157.728164 
L 561.898814 163.594312 
L 562.986475 197.782288 
L 563.349028 206.153141 
L 563.711582 206.553233 
L 564.074135 198.789517 
L 564.436689 188.531155 
L 565.161795 151.802005 
L 565.886902 131.668732 
L 566.249456 132.828018 
L 566.612009 137.563635 
L 567.337116 163.994741 
L 568.062223 180.083292 
L 568.78733 172.661109 
L 569.149884 164.055136 
L 569.512437 151.051518 
L 570.237544 144.790833 
L 570.600097 145.677721 
L 571.325204 170.883998 
L 571.687758 183.561149 
L 572.050311 191.733779 
L 572.412865 191.606186 
L 572.775418 186.640944 
L 573.500525 157.05245 
L 573.863079 135.906496 
L 574.588186 118.466732 
L 574.950739 118.916964 
L 575.313293 125.180886 
L 575.675846 141.016545 
L 576.400953 164.111542 
L 576.763506 167.324827 
L 577.12606 165.928633 
L 577.488613 161.464631 
L 577.851167 153.41119 
L 578.21372 139.872515 
L 578.576274 133.997172 
L 578.938827 134.299861 
L 579.301381 140.893722 
L 580.751595 185.090215 
L 581.114148 183.477736 
L 581.476701 179.150629 
L 582.201808 150.926491 
L 582.926915 117.111646 
L 583.289469 115.613803 
L 583.652022 117.000538 
L 584.014576 124.287228 
L 584.377129 134.64207 
L 584.739683 149.324406 
L 585.102236 158.688042 
L 585.46479 163.975951 
L 585.827343 165.177226 
L 586.189897 159.107163 
L 586.55245 147.777618 
L 586.915004 140.306439 
L 587.277557 136.112916 
L 587.64011 134.781526 
L 588.002664 140.170773 
L 589.452878 186.184504 
L 589.815431 190.052452 
L 590.177985 184.72361 
L 590.903092 152.493316 
L 591.628199 124.149783 
L 591.990752 119.777084 
L 592.353306 120.473871 
L 593.078412 142.463251 
L 593.803519 164.178537 
L 594.166073 172.133987 
L 594.528626 171.868442 
L 595.253733 159.614979 
L 595.616287 148.540187 
L 595.97884 143.536931 
L 596.341394 140.680994 
L 598.154161 195.641219 
L 598.516714 195.114251 
L 598.879268 191.299092 
L 600.329482 131.609066 
L 600.692035 127.537333 
L 601.054589 128.723599 
L 601.417142 134.561809 
L 602.504803 175.080217 
L 602.867356 180.453538 
L 603.22991 179.729399 
L 603.955017 163.736203 
L 604.31757 153.598832 
L 604.680123 149.482786 
L 605.042677 149.509874 
L 605.40523 155.67016 
L 606.130337 178.723874 
L 606.855444 200.993229 
L 607.217998 200.276331 
L 607.580551 191.871056 
L 607.943105 180.395339 
L 608.668212 149.58428 
L 609.393319 126.405711 
L 609.755872 130.009238 
L 611.206086 173.797927 
L 611.568639 178.097054 
L 611.931193 177.616404 
L 612.293746 173.017593 
L 612.6563 164.536854 
L 613.018853 152.294202 
L 613.74396 144.74821 
L 614.106514 151.850698 
L 615.194174 187.662281 
L 615.556727 251.424212 
L 615.919281 196.094353 
L 616.281834 188.560288 
L 616.644388 178.369641 
L 617.369495 143.98698 
L 617.732048 128.54655 
L 618.094602 124.248658 
L 618.457155 121.832471 
L 618.819709 130.757815 
L 619.907369 168.837899 
L 620.269923 169.551447 
L 620.632476 169.68801 
L 621.357583 154.295205 
L 621.720136 143.012123 
L 622.08269 135.193001 
L 622.445243 135.983019 
L 622.807797 139.185829 
L 624.258011 181.186141 
L 624.620564 185.186811 
L 624.983118 179.559033 
L 625.708225 147.315664 
L 626.433332 112.405401 
L 626.795885 107.156344 
L 627.158438 107.849769 
L 627.520992 112.201152 
L 628.246099 141.548858 
L 628.971206 156.766788 
L 629.333759 154.349046 
L 629.696313 148.956972 
L 630.42142 128.695329 
L 630.783973 122.478384 
L 631.146527 120.586111 
L 631.50908 127.577693 
L 632.234187 149.080528 
L 632.959294 171.073143 
L 633.321847 169.693064 
L 633.684401 163.764456 
L 634.772061 118.277857 
L 635.134615 101.066408 
L 635.497168 95.234665 
L 635.859722 97.073944 
L 636.222275 104.764129 
L 637.309936 137.682072 
L 637.672489 143.345202 
L 638.035043 144.685603 
L 638.397596 138.288641 
L 639.122703 120.004046 
L 639.485256 112.379828 
L 639.84781 109.530586 
L 640.210363 115.884044 
L 641.298024 149.76606 
L 641.660577 161.869342 
L 642.023131 162.746783 
L 642.385684 155.557063 
L 643.110791 125.85289 
L 643.473345 108.868334 
L 644.198451 87.155106 
L 644.561005 89.982768 
L 644.923558 98.40497 
L 645.648665 124.483368 
L 646.373772 144.355804 
L 646.736326 141.963314 
L 647.098879 136.287202 
L 647.461433 128.316689 
L 647.823986 117.636188 
L 648.18654 111.893935 
L 648.549093 112.018832 
L 648.911647 117.488532 
L 649.2742 131.291173 
L 649.636753 140.345935 
L 649.999307 155.386112 
L 650.36186 162.435949 
L 650.724414 164.312965 
L 651.086967 158.331471 
L 652.537181 98.381429 
L 652.899735 93.685924 
L 653.262288 96.329995 
L 653.987395 115.44526 
L 654.349949 130.755168 
L 655.075055 147.526733 
L 655.437609 147.709935 
L 655.800162 143.371135 
L 656.525269 123.406602 
L 656.887823 118.236622 
L 657.250376 119.391501 
L 657.61293 122.451808 
L 659.063144 172.379052 
L 659.425697 172.796329 
L 659.788251 223.626074 
L 660.150804 154.904414 
L 661.238464 107.744178 
L 661.601018 104.121183 
L 661.963571 106.087422 
L 662.326125 113.690542 
L 663.413785 150.670814 
L 663.776339 155.726071 
L 664.138892 153.241044 
L 664.501446 153.668135 
L 665.226553 131.634718 
L 665.589106 124.480879 
L 665.95166 125.13475 
L 666.314213 130.364097 
L 667.764427 176.183469 
L 668.12698 177.277781 
L 668.489534 169.643797 
L 669.214641 141.850696 
L 669.939748 110.127004 
L 670.302301 105.870786 
L 670.664855 107.739305 
L 671.027408 114.976407 
L 672.115068 151.447433 
L 672.477622 157.371285 
L 672.840175 154.912632 
L 673.202729 151.660015 
L 673.565282 138.39194 
L 674.290389 122.946896 
L 674.652943 123.364503 
L 675.015496 129.928376 
L 675.740603 150.728231 
L 676.103157 164.918992 
L 676.46571 171.093083 
L 676.828264 172.0384 
L 677.190817 164.844477 
L 677.915924 135.304615 
L 678.641031 103.155212 
L 679.003584 97.00662 
L 679.366138 99.482213 
L 680.091245 117.931723 
L 680.816352 141.634598 
L 681.178905 145.609445 
L 681.541459 144.573853 
L 681.904012 138.848008 
L 682.991673 110.591317 
L 683.354226 110.391392 
L 683.716779 115.768109 
L 684.80444 153.187027 
L 685.166993 158.709948 
L 685.529547 158.741892 
L 685.8921 153.336941 
L 686.254654 142.646996 
L 686.617207 118.255838 
L 686.979761 106.348019 
L 687.342314 89.426189 
L 687.704868 83.777559 
L 688.067421 84.857926 
L 688.792528 101.483454 
L 689.155081 118.046961 
L 689.517635 126.534152 
L 689.880188 131.52399 
L 690.242742 132.107222 
L 690.605295 123.587338 
L 691.330402 101.877817 
L 691.692956 97.261155 
L 692.055509 96.891245 
L 692.418063 100.929477 
L 692.780616 111.394558 
L 693.505723 136.936149 
L 693.868277 147.003173 
L 694.23083 145.043066 
L 694.593384 137.223113 
L 694.955937 126.123377 
L 696.043597 74.876505 
L 696.768704 68.576743 
L 697.131258 78.46865 
L 697.493811 92.902927 
L 697.856365 101.78194 
L 698.218918 115.9789 
L 698.581472 122.09382 
L 698.944025 119.769167 
L 699.306579 173.394736 
L 699.669132 104.974524 
L 700.031686 94.63917 
L 700.394239 88.328835 
L 700.756792 85.591471 
L 701.119346 92.650032 
L 701.481899 103.176596 
L 702.207006 129.865773 
L 702.56956 135.805657 
L 702.932113 136.25655 
L 703.294667 131.119681 
L 703.65722 119.41868 
L 704.744881 72.558069 
L 705.107434 66.96 
L 705.469988 67.860673 
L 705.832541 76.393004 
L 706.920201 113.252035 
L 707.282755 117.409659 
L 707.645308 118.809108 
L 708.007862 112.767172 
L 709.095522 87.455048 
L 709.458076 85.671499 
L 709.820629 92.861655 
L 711.270843 139.069903 
L 711.633397 140.394155 
L 711.99595 133.255018 
L 712.721057 107.234979 
L 713.446164 77.910539 
L 713.808717 72.176657 
L 714.171271 71.386735 
L 714.533824 78.147303 
L 715.621485 119.276452 
L 715.984038 121.987817 
L 716.346592 121.379782 
L 716.709145 116.986122 
L 717.796805 94.364003 
L 718.159359 94.075462 
L 718.521912 102.453018 
L 719.247019 124.513424 
L 719.609573 141.236177 
L 719.972126 146.992467 
L 720.33468 147.921738 
L 720.697233 141.548356 
L 721.42234 116.206224 
L 722.147447 83.745688 
L 722.510001 77.969242 
L 722.872554 79.010545 
L 723.597661 99.375285 
L 724.322768 125.890186 
L 724.685321 132.883674 
L 725.047875 129.346074 
L 725.410428 127.730099 
L 725.772982 114.980298 
L 726.135535 106.703826 
L 726.498089 101.351313 
L 726.860642 99.6154 
L 727.585749 116.996702 
L 728.310856 147.568233 
L 728.673409 153.907619 
L 729.035963 154.154174 
L 729.76107 135.170625 
L 730.84873 90.460098 
L 731.211284 81.122415 
L 731.573837 81.811703 
L 731.936391 90.510764 
L 733.024051 125.564173 
L 733.386605 131.021982 
L 733.749158 129.754764 
L 734.111712 125.830955 
L 735.199372 102.456229 
L 735.561925 100.702538 
L 735.924479 103.709295 
L 736.287032 114.432177 
L 736.649586 131.622018 
L 737.012139 141.028237 
L 737.374693 147.282799 
L 737.737246 146.475517 
L 738.0998 140.133976 
L 738.462353 129.261329 
L 738.824907 109.182389 
L 739.18746 97.148235 
L 739.550014 78.991484 
L 739.912567 72.956504 
L 740.27512 75.26623 
L 740.637674 79.577217 
L 741.362781 107.114729 
L 742.087888 125.280022 
L 742.450441 122.991752 
L 742.812995 115.118806 
L 743.538102 95.931831 
L 743.900655 89.493301 
L 744.263209 87.75514 
L 744.625762 92.366799 
L 744.988316 101.069019 
L 745.713422 126.452403 
L 746.075976 134.426131 
L 746.438529 136.308728 
L 746.801083 129.15251 
L 747.163636 116.468869 
L 747.163636 116.468869 
" style="fill:none;stroke:#1f77b4;stroke-linecap:square;stroke-width:1.5;"/>
   </g>
   <g id="line2d_15">
    <path clip-path="url(#pea25889623)" d="M 745.713422 384.48 
L 745.713422 51.84 
" style="fill:none;stroke:#808080;stroke-linecap:square;"/>
   </g>
   <g id="patch_51">
    <path d="M 108 384.48 
L 108 51.84 
" style="fill:none;stroke:#000000;stroke-linecap:square;stroke-linejoin:miter;stroke-width:0.8;"/>
   </g>
   <g id="patch_52">
    <path d="M 777.6 384.48 
L 777.6 51.84 
" style="fill:none;stroke:#000000;stroke-linecap:square;stroke-linejoin:miter;stroke-width:0.8;"/>
   </g>
   <g id="patch_53">
    <path d="M 108 384.48 
L 777.6 384.48 
" style="fill:none;stroke:#000000;stroke-linecap:square;stroke-linejoin:miter;stroke-width:0.8;"/>
   </g>
   <g id="patch_54">
    <path d="M 108 51.84 
L 777.6 51.84 
" style="fill:none;stroke:#000000;stroke-linecap:square;stroke-linejoin:miter;stroke-width:0.8;"/>
   </g>
   <g id="text_16">
    <!-- A3Benchmark-TS3.csv -->
    <defs>
     <path d="M 34.1875 63.1875 
L 20.796875 26.90625 
L 47.609375 26.90625 
z
M 28.609375 72.90625 
L 39.796875 72.90625 
L 67.578125 0 
L 57.328125 0 
L 50.6875 18.703125 
L 17.828125 18.703125 
L 11.1875 0 
L 0.78125 0 
z
" id="DejaVuSans-65"/>
     <path d="M 19.671875 34.8125 
L 19.671875 8.109375 
L 35.5 8.109375 
Q 43.453125 8.109375 47.28125 11.40625 
Q 51.125 14.703125 51.125 21.484375 
Q 51.125 28.328125 47.28125 31.5625 
Q 43.453125 34.8125 35.5 34.8125 
z
M 19.671875 64.796875 
L 19.671875 42.828125 
L 34.28125 42.828125 
Q 41.5 42.828125 45.03125 45.53125 
Q 48.578125 48.25 48.578125 53.8125 
Q 48.578125 59.328125 45.03125 62.0625 
Q 41.5 64.796875 34.28125 64.796875 
z
M 9.8125 72.90625 
L 35.015625 72.90625 
Q 46.296875 72.90625 52.390625 68.21875 
Q 58.5 63.53125 58.5 54.890625 
Q 58.5 48.1875 55.375 44.234375 
Q 52.25 40.28125 46.1875 39.3125 
Q 53.46875 37.75 57.5 32.78125 
Q 61.53125 27.828125 61.53125 20.40625 
Q 61.53125 10.640625 54.890625 5.3125 
Q 48.25 0 35.984375 0 
L 9.8125 0 
z
" id="DejaVuSans-66"/>
     <path d="M 54.890625 33.015625 
L 54.890625 0 
L 45.90625 0 
L 45.90625 32.71875 
Q 45.90625 40.484375 42.875 44.328125 
Q 39.84375 48.1875 33.796875 48.1875 
Q 26.515625 48.1875 22.3125 43.546875 
Q 18.109375 38.921875 18.109375 30.90625 
L 18.109375 0 
L 9.078125 0 
L 9.078125 54.6875 
L 18.109375 54.6875 
L 18.109375 46.1875 
Q 21.34375 51.125 25.703125 53.5625 
Q 30.078125 56 35.796875 56 
Q 45.21875 56 50.046875 50.171875 
Q 54.890625 44.34375 54.890625 33.015625 
z
" id="DejaVuSans-110"/>
     <path d="M 48.78125 52.59375 
L 48.78125 44.1875 
Q 44.96875 46.296875 41.140625 47.34375 
Q 37.3125 48.390625 33.40625 48.390625 
Q 24.65625 48.390625 19.8125 42.84375 
Q 14.984375 37.3125 14.984375 27.296875 
Q 14.984375 17.28125 19.8125 11.734375 
Q 24.65625 6.203125 33.40625 6.203125 
Q 37.3125 6.203125 41.140625 7.25 
Q 44.96875 8.296875 48.78125 10.40625 
L 48.78125 2.09375 
Q 45.015625 0.34375 40.984375 -0.53125 
Q 36.96875 -1.421875 32.421875 -1.421875 
Q 20.0625 -1.421875 12.78125 6.34375 
Q 5.515625 14.109375 5.515625 27.296875 
Q 5.515625 40.671875 12.859375 48.328125 
Q 20.21875 56 33.015625 56 
Q 37.15625 56 41.109375 55.140625 
Q 45.0625 54.296875 48.78125 52.59375 
z
" id="DejaVuSans-99"/>
     <path d="M 54.890625 33.015625 
L 54.890625 0 
L 45.90625 0 
L 45.90625 32.71875 
Q 45.90625 40.484375 42.875 44.328125 
Q 39.84375 48.1875 33.796875 48.1875 
Q 26.515625 48.1875 22.3125 43.546875 
Q 18.109375 38.921875 18.109375 30.90625 
L 18.109375 0 
L 9.078125 0 
L 9.078125 75.984375 
L 18.109375 75.984375 
L 18.109375 46.1875 
Q 21.34375 51.125 25.703125 53.5625 
Q 30.078125 56 35.796875 56 
Q 45.21875 56 50.046875 50.171875 
Q 54.890625 44.34375 54.890625 33.015625 
z
" id="DejaVuSans-104"/>
     <path d="M 41.109375 46.296875 
Q 39.59375 47.171875 37.8125 47.578125 
Q 36.03125 48 33.890625 48 
Q 26.265625 48 22.1875 43.046875 
Q 18.109375 38.09375 18.109375 28.8125 
L 18.109375 0 
L 9.078125 0 
L 9.078125 54.6875 
L 18.109375 54.6875 
L 18.109375 46.1875 
Q 20.953125 51.171875 25.484375 53.578125 
Q 30.03125 56 36.53125 56 
Q 37.453125 56 38.578125 55.875 
Q 39.703125 55.765625 41.0625 55.515625 
z
" id="DejaVuSans-114"/>
     <path d="M 9.078125 75.984375 
L 18.109375 75.984375 
L 18.109375 31.109375 
L 44.921875 54.6875 
L 56.390625 54.6875 
L 27.390625 29.109375 
L 57.625 0 
L 45.90625 0 
L 18.109375 26.703125 
L 18.109375 0 
L 9.078125 0 
z
" id="DejaVuSans-107"/>
     <path d="M 4.890625 31.390625 
L 31.203125 31.390625 
L 31.203125 23.390625 
L 4.890625 23.390625 
z
" id="DejaVuSans-45"/>
     <path d="M 53.515625 70.515625 
L 53.515625 60.890625 
Q 47.90625 63.578125 42.921875 64.890625 
Q 37.9375 66.21875 33.296875 66.21875 
Q 25.25 66.21875 20.875 63.09375 
Q 16.5 59.96875 16.5 54.203125 
Q 16.5 49.359375 19.40625 46.890625 
Q 22.3125 44.4375 30.421875 42.921875 
L 36.375 41.703125 
Q 47.40625 39.59375 52.65625 34.296875 
Q 57.90625 29 57.90625 20.125 
Q 57.90625 9.515625 50.796875 4.046875 
Q 43.703125 -1.421875 29.984375 -1.421875 
Q 24.8125 -1.421875 18.96875 -0.25 
Q 13.140625 0.921875 6.890625 3.21875 
L 6.890625 13.375 
Q 12.890625 10.015625 18.65625 8.296875 
Q 24.421875 6.59375 29.984375 6.59375 
Q 38.421875 6.59375 43.015625 9.90625 
Q 47.609375 13.234375 47.609375 19.390625 
Q 47.609375 24.75 44.3125 27.78125 
Q 41.015625 30.8125 33.5 32.328125 
L 27.484375 33.5 
Q 16.453125 35.6875 11.515625 40.375 
Q 6.59375 45.0625 6.59375 53.421875 
Q 6.59375 63.09375 13.40625 68.65625 
Q 20.21875 74.21875 32.171875 74.21875 
Q 37.3125 74.21875 42.625 73.28125 
Q 47.953125 72.359375 53.515625 70.515625 
z
" id="DejaVuSans-83"/>
     <path d="M 10.6875 12.40625 
L 21 12.40625 
L 21 0 
L 10.6875 0 
z
" id="DejaVuSans-46"/>
     <path d="M 2.984375 54.6875 
L 12.5 54.6875 
L 29.59375 8.796875 
L 46.6875 54.6875 
L 56.203125 54.6875 
L 35.6875 0 
L 23.484375 0 
z
" id="DejaVuSans-118"/>
    </defs>
    <g transform="translate(375.373125 45.84)scale(0.12 -0.12)">
     <use xlink:href="#DejaVuSans-65"/>
     <use x="68.408203" xlink:href="#DejaVuSans-51"/>
     <use x="132.03125" xlink:href="#DejaVuSans-66"/>
     <use x="200.634766" xlink:href="#DejaVuSans-101"/>
     <use x="262.158203" xlink:href="#DejaVuSans-110"/>
     <use x="325.537109" xlink:href="#DejaVuSans-99"/>
     <use x="380.517578" xlink:href="#DejaVuSans-104"/>
     <use x="443.896484" xlink:href="#DejaVuSans-109"/>
     <use x="541.308594" xlink:href="#DejaVuSans-97"/>
     <use x="602.587891" xlink:href="#DejaVuSans-114"/>
     <use x="643.701172" xlink:href="#DejaVuSans-107"/>
     <use x="701.611328" xlink:href="#DejaVuSans-45"/>
     <use x="737.554688" xlink:href="#DejaVuSans-84"/>
     <use x="798.638672" xlink:href="#DejaVuSans-83"/>
     <use x="862.115234" xlink:href="#DejaVuSans-51"/>
     <use x="925.738281" xlink:href="#DejaVuSans-46"/>
     <use x="957.525391" xlink:href="#DejaVuSans-99"/>
     <use x="1012.505859" xlink:href="#DejaVuSans-115"/>
     <use x="1064.605469" xlink:href="#DejaVuSans-118"/>
    </g>
   </g>
   <g id="legend_1">
    <g id="patch_55">
     <path d="M 115 74.518125 
L 174.315625 74.518125 
Q 176.315625 74.518125 176.315625 72.518125 
L 176.315625 58.84 
Q 176.315625 56.84 174.315625 56.84 
L 115 56.84 
Q 113 56.84 113 58.84 
L 113 72.518125 
Q 113 74.518125 115 74.518125 
z
" style="fill:#ffffff;opacity:0.8;stroke:#cccccc;stroke-linejoin:miter;"/>
    </g>
    <g id="line2d_16">
     <path d="M 117 64.938438 
L 137 64.938438 
" style="fill:none;stroke:#1f77b4;stroke-linecap:square;stroke-width:1.5;"/>
    </g>
    <g id="line2d_17"/>
    <g id="text_17">
     <!-- value -->
     <g transform="translate(145 68.438438)scale(0.1 -0.1)">
      <use xlink:href="#DejaVuSans-118"/>
      <use x="59.179688" xlink:href="#DejaVuSans-97"/>
      <use x="120.458984" xlink:href="#DejaVuSans-108"/>
      <use x="148.242188" xlink:href="#DejaVuSans-117"/>
      <use x="211.621094" xlink:href="#DejaVuSans-101"/>
     </g>
    </g>
   </g>
  </g>
 </g>
 <defs>
  <clipPath id="pea25889623">
   <rect height="332.64" width="669.6" x="108" y="51.84"/>
  </clipPath>
 </defs>
</svg>
