<?xml version="1.0" encoding="utf-8" standalone="no"?>
<!DOCTYPE svg PUBLIC "-//W3C//DTD SVG 1.1//EN"
  "http://www.w3.org/Graphics/SVG/1.1/DTD/svg11.dtd">
<!-- Created with matplotlib (https://matplotlib.org/) -->
<svg height="432pt" version="1.1" viewBox="0 0 864 432" width="864pt" xmlns="http://www.w3.org/2000/svg" xmlns:xlink="http://www.w3.org/1999/xlink">
 <defs>
  <style type="text/css">
*{stroke-linecap:butt;stroke-linejoin:round;}
  </style>
 </defs>
 <g id="figure_1">
  <g id="patch_1">
   <path d="M 0 432 
L 864 432 
L 864 0 
L 0 0 
z
" style="fill:#ffffff;"/>
  </g>
  <g id="axes_1">
   <g id="patch_2">
    <path d="M 108 384.48 
L 777.6 384.48 
L 777.6 51.84 
L 108 51.84 
z
" style="fill:#ffffff;"/>
   </g>
   <g id="patch_3">
    <path clip-path="url(#pde0faecb6b)" d="M 138.436364 384.48 
L 138.436364 51.84 
L 374.096118 51.84 
L 374.096118 384.48 
z
" style="fill:#0000ff;opacity:0.05;"/>
   </g>
   <g id="patch_4">
    <path clip-path="url(#pde0faecb6b)" d="M 374.096118 384.48 
L 374.096118 51.84 
L 745.713422 51.84 
L 745.713422 384.48 
z
" style="fill:#ff0000;opacity:0.08;"/>
   </g>
   <g id="patch_5">
    <path clip-path="url(#pde0faecb6b)" d="M 138.436364 384.48 
L 138.436364 51.84 
L 147.5002 51.84 
L 147.5002 384.48 
z
" style="fill:#008000;opacity:0.04;"/>
   </g>
   <g id="patch_6">
    <path clip-path="url(#pde0faecb6b)" d="M 138.436364 384.48 
L 138.436364 371.1744 
L 147.5002 371.1744 
L 147.5002 384.48 
z
" style="fill:#ffe500;"/>
   </g>
   <g id="patch_7">
    <path clip-path="url(#pde0faecb6b)" d="M 383.159955 384.48 
L 383.159955 371.1744 
L 392.223791 371.1744 
L 392.223791 384.48 
z
" style="fill:#ff6600;"/>
   </g>
   <g id="patch_8">
    <path clip-path="url(#pde0faecb6b)" d="M 156.564037 384.48 
L 156.564037 51.84 
L 165.627874 51.84 
L 165.627874 384.48 
z
" style="fill:#008000;opacity:0.04;"/>
   </g>
   <g id="patch_9">
    <path clip-path="url(#pde0faecb6b)" d="M 165.627874 384.48 
L 165.627874 371.1744 
L 174.69171 371.1744 
L 174.69171 384.48 
z
" style="fill:#ffe500;"/>
   </g>
   <g id="patch_10">
    <path clip-path="url(#pde0faecb6b)" d="M 174.69171 384.48 
L 174.69171 51.84 
L 183.755547 51.84 
L 183.755547 384.48 
z
" style="fill:#008000;opacity:0.04;"/>
   </g>
   <g id="patch_11">
    <path clip-path="url(#pde0faecb6b)" d="M 192.819384 384.48 
L 192.819384 51.84 
L 201.883221 51.84 
L 201.883221 384.48 
z
" style="fill:#008000;opacity:0.04;"/>
   </g>
   <g id="patch_12">
    <path clip-path="url(#pde0faecb6b)" d="M 210.947057 384.48 
L 210.947057 51.84 
L 220.010894 51.84 
L 220.010894 384.48 
z
" style="fill:#008000;opacity:0.04;"/>
   </g>
   <g id="patch_13">
    <path clip-path="url(#pde0faecb6b)" d="M 229.074731 384.48 
L 229.074731 51.84 
L 238.138567 51.84 
L 238.138567 384.48 
z
" style="fill:#008000;opacity:0.04;"/>
   </g>
   <g id="patch_14">
    <path clip-path="url(#pde0faecb6b)" d="M 247.202404 384.48 
L 247.202404 51.84 
L 256.266241 51.84 
L 256.266241 384.48 
z
" style="fill:#008000;opacity:0.04;"/>
   </g>
   <g id="patch_15">
    <path clip-path="url(#pde0faecb6b)" d="M 265.330077 384.48 
L 265.330077 51.84 
L 274.393914 51.84 
L 274.393914 384.48 
z
" style="fill:#008000;opacity:0.04;"/>
   </g>
   <g id="patch_16">
    <path clip-path="url(#pde0faecb6b)" d="M 510.053668 384.48 
L 510.053668 371.1744 
L 519.117505 371.1744 
L 519.117505 384.48 
z
" style="fill:#ff6600;"/>
   </g>
   <g id="patch_17">
    <path clip-path="url(#pde0faecb6b)" d="M 283.457751 384.48 
L 283.457751 51.84 
L 292.521588 51.84 
L 292.521588 384.48 
z
" style="fill:#008000;opacity:0.04;"/>
   </g>
   <g id="patch_18">
    <path clip-path="url(#pde0faecb6b)" d="M 301.585424 384.48 
L 301.585424 51.84 
L 310.649261 51.84 
L 310.649261 384.48 
z
" style="fill:#008000;opacity:0.04;"/>
   </g>
   <g id="patch_19">
    <path clip-path="url(#pde0faecb6b)" d="M 319.713098 384.48 
L 319.713098 51.84 
L 328.776934 51.84 
L 328.776934 384.48 
z
" style="fill:#008000;opacity:0.04;"/>
   </g>
   <g id="patch_20">
    <path clip-path="url(#pde0faecb6b)" d="M 337.840771 384.48 
L 337.840771 51.84 
L 346.904608 51.84 
L 346.904608 384.48 
z
" style="fill:#008000;opacity:0.04;"/>
   </g>
   <g id="patch_21">
    <path clip-path="url(#pde0faecb6b)" d="M 355.968444 384.48 
L 355.968444 51.84 
L 365.032281 51.84 
L 365.032281 384.48 
z
" style="fill:#008000;opacity:0.04;"/>
   </g>
   <g id="patch_22">
    <path clip-path="url(#pde0faecb6b)" d="M 374.096118 384.48 
L 374.096118 51.84 
L 383.159955 51.84 
L 383.159955 384.48 
z
" style="fill:#008000;opacity:0.04;"/>
   </g>
   <g id="patch_23">
    <path clip-path="url(#pde0faecb6b)" d="M 383.159955 371.1744 
L 383.159955 51.84 
L 392.223791 51.84 
L 392.223791 371.1744 
z
" style="fill:#008000;opacity:0.5;"/>
   </g>
   <g id="patch_24">
    <path clip-path="url(#pde0faecb6b)" d="M 392.223791 384.48 
L 392.223791 51.84 
L 401.287628 51.84 
L 401.287628 384.48 
z
" style="fill:#008000;opacity:0.04;"/>
   </g>
   <g id="patch_25">
    <path clip-path="url(#pde0faecb6b)" d="M 627.883545 384.48 
L 627.883545 371.1744 
L 636.947382 371.1744 
L 636.947382 384.48 
z
" style="fill:#ff6600;"/>
   </g>
   <g id="patch_26">
    <path clip-path="url(#pde0faecb6b)" d="M 410.351465 384.48 
L 410.351465 51.84 
L 419.415301 51.84 
L 419.415301 384.48 
z
" style="fill:#008000;opacity:0.04;"/>
   </g>
   <g id="patch_27">
    <path clip-path="url(#pde0faecb6b)" d="M 428.479138 384.48 
L 428.479138 51.84 
L 437.542975 51.84 
L 437.542975 384.48 
z
" style="fill:#008000;opacity:0.04;"/>
   </g>
   <g id="patch_28">
    <path clip-path="url(#pde0faecb6b)" d="M 446.606811 384.48 
L 446.606811 51.84 
L 455.670648 51.84 
L 455.670648 384.48 
z
" style="fill:#008000;opacity:0.04;"/>
   </g>
   <g id="patch_29">
    <path clip-path="url(#pde0faecb6b)" d="M 464.734485 384.48 
L 464.734485 51.84 
L 473.798322 51.84 
L 473.798322 384.48 
z
" style="fill:#008000;opacity:0.04;"/>
   </g>
   <g id="patch_30">
    <path clip-path="url(#pde0faecb6b)" d="M 709.458076 384.48 
L 709.458076 371.1744 
L 718.521912 371.1744 
L 718.521912 384.48 
z
" style="fill:#ff6600;"/>
   </g>
   <g id="patch_31">
    <path clip-path="url(#pde0faecb6b)" d="M 482.862158 384.48 
L 482.862158 51.84 
L 491.925995 51.84 
L 491.925995 384.48 
z
" style="fill:#008000;opacity:0.04;"/>
   </g>
   <g id="patch_32">
    <path clip-path="url(#pde0faecb6b)" d="M 491.925995 371.1744 
L 491.925995 51.84 
L 500.989832 51.84 
L 500.989832 371.1744 
z
" style="fill:#008000;opacity:0.5;"/>
   </g>
   <g id="patch_33">
    <path clip-path="url(#pde0faecb6b)" d="M 500.989832 384.48 
L 500.989832 51.84 
L 510.053668 51.84 
L 510.053668 384.48 
z
" style="fill:#008000;opacity:0.04;"/>
   </g>
   <g id="patch_34">
    <path clip-path="url(#pde0faecb6b)" d="M 510.053668 371.1744 
L 510.053668 51.84 
L 519.117505 51.84 
L 519.117505 371.1744 
z
" style="fill:#008000;opacity:0.5;"/>
   </g>
   <g id="patch_35">
    <path clip-path="url(#pde0faecb6b)" d="M 519.117505 384.48 
L 519.117505 51.84 
L 528.181342 51.84 
L 528.181342 384.48 
z
" style="fill:#008000;opacity:0.04;"/>
   </g>
   <g id="patch_36">
    <path clip-path="url(#pde0faecb6b)" d="M 537.245178 384.48 
L 537.245178 51.84 
L 546.309015 51.84 
L 546.309015 384.48 
z
" style="fill:#008000;opacity:0.04;"/>
   </g>
   <g id="patch_37">
    <path clip-path="url(#pde0faecb6b)" d="M 555.372852 384.48 
L 555.372852 51.84 
L 564.436689 51.84 
L 564.436689 384.48 
z
" style="fill:#008000;opacity:0.04;"/>
   </g>
   <g id="patch_38">
    <path clip-path="url(#pde0faecb6b)" d="M 573.500525 384.48 
L 573.500525 51.84 
L 582.564362 51.84 
L 582.564362 384.48 
z
" style="fill:#008000;opacity:0.04;"/>
   </g>
   <g id="patch_39">
    <path clip-path="url(#pde0faecb6b)" d="M 591.628199 384.48 
L 591.628199 51.84 
L 600.692035 51.84 
L 600.692035 384.48 
z
" style="fill:#008000;opacity:0.04;"/>
   </g>
   <g id="patch_40">
    <path clip-path="url(#pde0faecb6b)" d="M 609.755872 384.48 
L 609.755872 51.84 
L 618.819709 51.84 
L 618.819709 384.48 
z
" style="fill:#008000;opacity:0.04;"/>
   </g>
   <g id="patch_41">
    <path clip-path="url(#pde0faecb6b)" d="M 627.883545 384.48 
L 627.883545 51.84 
L 636.947382 51.84 
L 636.947382 384.48 
z
" style="fill:#008000;opacity:0.04;"/>
   </g>
   <g id="patch_42">
    <path clip-path="url(#pde0faecb6b)" d="M 627.883545 371.1744 
L 627.883545 51.84 
L 636.947382 51.84 
L 636.947382 371.1744 
z
" style="fill:#008000;opacity:0.5;"/>
   </g>
   <g id="patch_43">
    <path clip-path="url(#pde0faecb6b)" d="M 646.011219 384.48 
L 646.011219 51.84 
L 655.075055 51.84 
L 655.075055 384.48 
z
" style="fill:#008000;opacity:0.04;"/>
   </g>
   <g id="patch_44">
    <path clip-path="url(#pde0faecb6b)" d="M 664.138892 384.48 
L 664.138892 51.84 
L 673.202729 51.84 
L 673.202729 384.48 
z
" style="fill:#008000;opacity:0.04;"/>
   </g>
   <g id="patch_45">
    <path clip-path="url(#pde0faecb6b)" d="M 682.266566 384.48 
L 682.266566 51.84 
L 691.330402 51.84 
L 691.330402 384.48 
z
" style="fill:#008000;opacity:0.04;"/>
   </g>
   <g id="patch_46">
    <path clip-path="url(#pde0faecb6b)" d="M 700.394239 384.48 
L 700.394239 51.84 
L 709.458076 51.84 
L 709.458076 384.48 
z
" style="fill:#008000;opacity:0.04;"/>
   </g>
   <g id="patch_47">
    <path clip-path="url(#pde0faecb6b)" d="M 709.458076 371.1744 
L 709.458076 51.84 
L 718.521912 51.84 
L 718.521912 371.1744 
z
" style="fill:#008000;opacity:0.5;"/>
   </g>
   <g id="patch_48">
    <path clip-path="url(#pde0faecb6b)" d="M 718.521912 384.48 
L 718.521912 51.84 
L 727.585749 51.84 
L 727.585749 384.48 
z
" style="fill:#008000;opacity:0.04;"/>
   </g>
   <g id="patch_49">
    <path clip-path="url(#pde0faecb6b)" d="M 718.521912 371.1744 
L 718.521912 51.84 
L 727.585749 51.84 
L 727.585749 371.1744 
z
" style="fill:#008000;opacity:0.5;"/>
   </g>
   <g id="patch_50">
    <path clip-path="url(#pde0faecb6b)" d="M 736.649586 384.48 
L 736.649586 51.84 
L 745.713422 51.84 
L 745.713422 384.48 
z
" style="fill:#008000;opacity:0.04;"/>
   </g>
   <g id="matplotlib.axis_1">
    <g id="xtick_1">
     <g id="line2d_1">
      <defs>
       <path d="M 0 0 
L 0 3.5 
" id="m6d4e5c765a" style="stroke:#000000;stroke-width:0.8;"/>
      </defs>
      <g>
       <use style="stroke:#000000;stroke-width:0.8;" x="138.436364" xlink:href="#m6d4e5c765a" y="384.48"/>
      </g>
     </g>
     <g id="text_1">
      <!-- 0 -->
      <defs>
       <path d="M 31.78125 66.40625 
Q 24.171875 66.40625 20.328125 58.90625 
Q 16.5 51.421875 16.5 36.375 
Q 16.5 21.390625 20.328125 13.890625 
Q 24.171875 6.390625 31.78125 6.390625 
Q 39.453125 6.390625 43.28125 13.890625 
Q 47.125 21.390625 47.125 36.375 
Q 47.125 51.421875 43.28125 58.90625 
Q 39.453125 66.40625 31.78125 66.40625 
z
M 31.78125 74.21875 
Q 44.046875 74.21875 50.515625 64.515625 
Q 56.984375 54.828125 56.984375 36.375 
Q 56.984375 17.96875 50.515625 8.265625 
Q 44.046875 -1.421875 31.78125 -1.421875 
Q 19.53125 -1.421875 13.0625 8.265625 
Q 6.59375 17.96875 6.59375 36.375 
Q 6.59375 54.828125 13.0625 64.515625 
Q 19.53125 74.21875 31.78125 74.21875 
z
" id="DejaVuSans-48"/>
      </defs>
      <g transform="translate(135.255114 399.078438)scale(0.1 -0.1)">
       <use xlink:href="#DejaVuSans-48"/>
      </g>
     </g>
    </g>
    <g id="xtick_2">
     <g id="line2d_2">
      <g>
       <use style="stroke:#000000;stroke-width:0.8;" x="229.074731" xlink:href="#m6d4e5c765a" y="384.48"/>
      </g>
     </g>
     <g id="text_2">
      <!-- 250 -->
      <defs>
       <path d="M 19.1875 8.296875 
L 53.609375 8.296875 
L 53.609375 0 
L 7.328125 0 
L 7.328125 8.296875 
Q 12.9375 14.109375 22.625 23.890625 
Q 32.328125 33.6875 34.8125 36.53125 
Q 39.546875 41.84375 41.421875 45.53125 
Q 43.3125 49.21875 43.3125 52.78125 
Q 43.3125 58.59375 39.234375 62.25 
Q 35.15625 65.921875 28.609375 65.921875 
Q 23.96875 65.921875 18.8125 64.3125 
Q 13.671875 62.703125 7.8125 59.421875 
L 7.8125 69.390625 
Q 13.765625 71.78125 18.9375 73 
Q 24.125 74.21875 28.421875 74.21875 
Q 39.75 74.21875 46.484375 68.546875 
Q 53.21875 62.890625 53.21875 53.421875 
Q 53.21875 48.921875 51.53125 44.890625 
Q 49.859375 40.875 45.40625 35.40625 
Q 44.1875 33.984375 37.640625 27.21875 
Q 31.109375 20.453125 19.1875 8.296875 
z
" id="DejaVuSans-50"/>
       <path d="M 10.796875 72.90625 
L 49.515625 72.90625 
L 49.515625 64.59375 
L 19.828125 64.59375 
L 19.828125 46.734375 
Q 21.96875 47.46875 24.109375 47.828125 
Q 26.265625 48.1875 28.421875 48.1875 
Q 40.625 48.1875 47.75 41.5 
Q 54.890625 34.8125 54.890625 23.390625 
Q 54.890625 11.625 47.5625 5.09375 
Q 40.234375 -1.421875 26.90625 -1.421875 
Q 22.3125 -1.421875 17.546875 -0.640625 
Q 12.796875 0.140625 7.71875 1.703125 
L 7.71875 11.625 
Q 12.109375 9.234375 16.796875 8.0625 
Q 21.484375 6.890625 26.703125 6.890625 
Q 35.15625 6.890625 40.078125 11.328125 
Q 45.015625 15.765625 45.015625 23.390625 
Q 45.015625 31 40.078125 35.4375 
Q 35.15625 39.890625 26.703125 39.890625 
Q 22.75 39.890625 18.8125 39.015625 
Q 14.890625 38.140625 10.796875 36.28125 
z
" id="DejaVuSans-53"/>
      </defs>
      <g transform="translate(219.530981 399.078438)scale(0.1 -0.1)">
       <use xlink:href="#DejaVuSans-50"/>
       <use x="63.623047" xlink:href="#DejaVuSans-53"/>
       <use x="127.246094" xlink:href="#DejaVuSans-48"/>
      </g>
     </g>
    </g>
    <g id="xtick_3">
     <g id="line2d_3">
      <g>
       <use style="stroke:#000000;stroke-width:0.8;" x="319.713098" xlink:href="#m6d4e5c765a" y="384.48"/>
      </g>
     </g>
     <g id="text_3">
      <!-- 500 -->
      <g transform="translate(310.169348 399.078438)scale(0.1 -0.1)">
       <use xlink:href="#DejaVuSans-53"/>
       <use x="63.623047" xlink:href="#DejaVuSans-48"/>
       <use x="127.246094" xlink:href="#DejaVuSans-48"/>
      </g>
     </g>
    </g>
    <g id="xtick_4">
     <g id="line2d_4">
      <g>
       <use style="stroke:#000000;stroke-width:0.8;" x="410.351465" xlink:href="#m6d4e5c765a" y="384.48"/>
      </g>
     </g>
     <g id="text_4">
      <!-- 750 -->
      <defs>
       <path d="M 8.203125 72.90625 
L 55.078125 72.90625 
L 55.078125 68.703125 
L 28.609375 0 
L 18.3125 0 
L 43.21875 64.59375 
L 8.203125 64.59375 
z
" id="DejaVuSans-55"/>
      </defs>
      <g transform="translate(400.807715 399.078438)scale(0.1 -0.1)">
       <use xlink:href="#DejaVuSans-55"/>
       <use x="63.623047" xlink:href="#DejaVuSans-53"/>
       <use x="127.246094" xlink:href="#DejaVuSans-48"/>
      </g>
     </g>
    </g>
    <g id="xtick_5">
     <g id="line2d_5">
      <g>
       <use style="stroke:#000000;stroke-width:0.8;" x="500.989832" xlink:href="#m6d4e5c765a" y="384.48"/>
      </g>
     </g>
     <g id="text_5">
      <!-- 1000 -->
      <defs>
       <path d="M 12.40625 8.296875 
L 28.515625 8.296875 
L 28.515625 63.921875 
L 10.984375 60.40625 
L 10.984375 69.390625 
L 28.421875 72.90625 
L 38.28125 72.90625 
L 38.28125 8.296875 
L 54.390625 8.296875 
L 54.390625 0 
L 12.40625 0 
z
" id="DejaVuSans-49"/>
      </defs>
      <g transform="translate(488.264832 399.078438)scale(0.1 -0.1)">
       <use xlink:href="#DejaVuSans-49"/>
       <use x="63.623047" xlink:href="#DejaVuSans-48"/>
       <use x="127.246094" xlink:href="#DejaVuSans-48"/>
       <use x="190.869141" xlink:href="#DejaVuSans-48"/>
      </g>
     </g>
    </g>
    <g id="xtick_6">
     <g id="line2d_6">
      <g>
       <use style="stroke:#000000;stroke-width:0.8;" x="591.628199" xlink:href="#m6d4e5c765a" y="384.48"/>
      </g>
     </g>
     <g id="text_6">
      <!-- 1250 -->
      <g transform="translate(578.903199 399.078438)scale(0.1 -0.1)">
       <use xlink:href="#DejaVuSans-49"/>
       <use x="63.623047" xlink:href="#DejaVuSans-50"/>
       <use x="127.246094" xlink:href="#DejaVuSans-53"/>
       <use x="190.869141" xlink:href="#DejaVuSans-48"/>
      </g>
     </g>
    </g>
    <g id="xtick_7">
     <g id="line2d_7">
      <g>
       <use style="stroke:#000000;stroke-width:0.8;" x="682.266566" xlink:href="#m6d4e5c765a" y="384.48"/>
      </g>
     </g>
     <g id="text_7">
      <!-- 1500 -->
      <g transform="translate(669.541566 399.078438)scale(0.1 -0.1)">
       <use xlink:href="#DejaVuSans-49"/>
       <use x="63.623047" xlink:href="#DejaVuSans-53"/>
       <use x="127.246094" xlink:href="#DejaVuSans-48"/>
       <use x="190.869141" xlink:href="#DejaVuSans-48"/>
      </g>
     </g>
    </g>
    <g id="xtick_8">
     <g id="line2d_8">
      <g>
       <use style="stroke:#000000;stroke-width:0.8;" x="772.904933" xlink:href="#m6d4e5c765a" y="384.48"/>
      </g>
     </g>
     <g id="text_8">
      <!-- 1750 -->
      <g transform="translate(760.179933 399.078438)scale(0.1 -0.1)">
       <use xlink:href="#DejaVuSans-49"/>
       <use x="63.623047" xlink:href="#DejaVuSans-55"/>
       <use x="127.246094" xlink:href="#DejaVuSans-53"/>
       <use x="190.869141" xlink:href="#DejaVuSans-48"/>
      </g>
     </g>
    </g>
    <g id="text_9">
     <!-- Timestamp -->
     <defs>
      <path d="M -0.296875 72.90625 
L 61.375 72.90625 
L 61.375 64.59375 
L 35.5 64.59375 
L 35.5 0 
L 25.59375 0 
L 25.59375 64.59375 
L -0.296875 64.59375 
z
" id="DejaVuSans-84"/>
      <path d="M 9.421875 54.6875 
L 18.40625 54.6875 
L 18.40625 0 
L 9.421875 0 
z
M 9.421875 75.984375 
L 18.40625 75.984375 
L 18.40625 64.59375 
L 9.421875 64.59375 
z
" id="DejaVuSans-105"/>
      <path d="M 52 44.1875 
Q 55.375 50.25 60.0625 53.125 
Q 64.75 56 71.09375 56 
Q 79.640625 56 84.28125 50.015625 
Q 88.921875 44.046875 88.921875 33.015625 
L 88.921875 0 
L 79.890625 0 
L 79.890625 32.71875 
Q 79.890625 40.578125 77.09375 44.375 
Q 74.3125 48.1875 68.609375 48.1875 
Q 61.625 48.1875 57.5625 43.546875 
Q 53.515625 38.921875 53.515625 30.90625 
L 53.515625 0 
L 44.484375 0 
L 44.484375 32.71875 
Q 44.484375 40.625 41.703125 44.40625 
Q 38.921875 48.1875 33.109375 48.1875 
Q 26.21875 48.1875 22.15625 43.53125 
Q 18.109375 38.875 18.109375 30.90625 
L 18.109375 0 
L 9.078125 0 
L 9.078125 54.6875 
L 18.109375 54.6875 
L 18.109375 46.1875 
Q 21.1875 51.21875 25.484375 53.609375 
Q 29.78125 56 35.6875 56 
Q 41.65625 56 45.828125 52.96875 
Q 50 49.953125 52 44.1875 
z
" id="DejaVuSans-109"/>
      <path d="M 56.203125 29.59375 
L 56.203125 25.203125 
L 14.890625 25.203125 
Q 15.484375 15.921875 20.484375 11.0625 
Q 25.484375 6.203125 34.421875 6.203125 
Q 39.59375 6.203125 44.453125 7.46875 
Q 49.3125 8.734375 54.109375 11.28125 
L 54.109375 2.78125 
Q 49.265625 0.734375 44.1875 -0.34375 
Q 39.109375 -1.421875 33.890625 -1.421875 
Q 20.796875 -1.421875 13.15625 6.1875 
Q 5.515625 13.8125 5.515625 26.8125 
Q 5.515625 40.234375 12.765625 48.109375 
Q 20.015625 56 32.328125 56 
Q 43.359375 56 49.78125 48.890625 
Q 56.203125 41.796875 56.203125 29.59375 
z
M 47.21875 32.234375 
Q 47.125 39.59375 43.09375 43.984375 
Q 39.0625 48.390625 32.421875 48.390625 
Q 24.90625 48.390625 20.390625 44.140625 
Q 15.875 39.890625 15.1875 32.171875 
z
" id="DejaVuSans-101"/>
      <path d="M 44.28125 53.078125 
L 44.28125 44.578125 
Q 40.484375 46.53125 36.375 47.5 
Q 32.28125 48.484375 27.875 48.484375 
Q 21.1875 48.484375 17.84375 46.4375 
Q 14.5 44.390625 14.5 40.28125 
Q 14.5 37.15625 16.890625 35.375 
Q 19.28125 33.59375 26.515625 31.984375 
L 29.59375 31.296875 
Q 39.15625 29.25 43.1875 25.515625 
Q 47.21875 21.78125 47.21875 15.09375 
Q 47.21875 7.46875 41.1875 3.015625 
Q 35.15625 -1.421875 24.609375 -1.421875 
Q 20.21875 -1.421875 15.453125 -0.5625 
Q 10.6875 0.296875 5.421875 2 
L 5.421875 11.28125 
Q 10.40625 8.6875 15.234375 7.390625 
Q 20.0625 6.109375 24.8125 6.109375 
Q 31.15625 6.109375 34.5625 8.28125 
Q 37.984375 10.453125 37.984375 14.40625 
Q 37.984375 18.0625 35.515625 20.015625 
Q 33.0625 21.96875 24.703125 23.78125 
L 21.578125 24.515625 
Q 13.234375 26.265625 9.515625 29.90625 
Q 5.8125 33.546875 5.8125 39.890625 
Q 5.8125 47.609375 11.28125 51.796875 
Q 16.75 56 26.8125 56 
Q 31.78125 56 36.171875 55.265625 
Q 40.578125 54.546875 44.28125 53.078125 
z
" id="DejaVuSans-115"/>
      <path d="M 18.3125 70.21875 
L 18.3125 54.6875 
L 36.8125 54.6875 
L 36.8125 47.703125 
L 18.3125 47.703125 
L 18.3125 18.015625 
Q 18.3125 11.328125 20.140625 9.421875 
Q 21.96875 7.515625 27.59375 7.515625 
L 36.8125 7.515625 
L 36.8125 0 
L 27.59375 0 
Q 17.1875 0 13.234375 3.875 
Q 9.28125 7.765625 9.28125 18.015625 
L 9.28125 47.703125 
L 2.6875 47.703125 
L 2.6875 54.6875 
L 9.28125 54.6875 
L 9.28125 70.21875 
z
" id="DejaVuSans-116"/>
      <path d="M 34.28125 27.484375 
Q 23.390625 27.484375 19.1875 25 
Q 14.984375 22.515625 14.984375 16.5 
Q 14.984375 11.71875 18.140625 8.90625 
Q 21.296875 6.109375 26.703125 6.109375 
Q 34.1875 6.109375 38.703125 11.40625 
Q 43.21875 16.703125 43.21875 25.484375 
L 43.21875 27.484375 
z
M 52.203125 31.203125 
L 52.203125 0 
L 43.21875 0 
L 43.21875 8.296875 
Q 40.140625 3.328125 35.546875 0.953125 
Q 30.953125 -1.421875 24.3125 -1.421875 
Q 15.921875 -1.421875 10.953125 3.296875 
Q 6 8.015625 6 15.921875 
Q 6 25.140625 12.171875 29.828125 
Q 18.359375 34.515625 30.609375 34.515625 
L 43.21875 34.515625 
L 43.21875 35.40625 
Q 43.21875 41.609375 39.140625 45 
Q 35.0625 48.390625 27.6875 48.390625 
Q 23 48.390625 18.546875 47.265625 
Q 14.109375 46.140625 10.015625 43.890625 
L 10.015625 52.203125 
Q 14.9375 54.109375 19.578125 55.046875 
Q 24.21875 56 28.609375 56 
Q 40.484375 56 46.34375 49.84375 
Q 52.203125 43.703125 52.203125 31.203125 
z
" id="DejaVuSans-97"/>
      <path d="M 18.109375 8.203125 
L 18.109375 -20.796875 
L 9.078125 -20.796875 
L 9.078125 54.6875 
L 18.109375 54.6875 
L 18.109375 46.390625 
Q 20.953125 51.265625 25.265625 53.625 
Q 29.59375 56 35.59375 56 
Q 45.5625 56 51.78125 48.09375 
Q 58.015625 40.1875 58.015625 27.296875 
Q 58.015625 14.40625 51.78125 6.484375 
Q 45.5625 -1.421875 35.59375 -1.421875 
Q 29.59375 -1.421875 25.265625 0.953125 
Q 20.953125 3.328125 18.109375 8.203125 
z
M 48.6875 27.296875 
Q 48.6875 37.203125 44.609375 42.84375 
Q 40.53125 48.484375 33.40625 48.484375 
Q 26.265625 48.484375 22.1875 42.84375 
Q 18.109375 37.203125 18.109375 27.296875 
Q 18.109375 17.390625 22.1875 11.75 
Q 26.265625 6.109375 33.40625 6.109375 
Q 40.53125 6.109375 44.609375 11.75 
Q 48.6875 17.390625 48.6875 27.296875 
z
" id="DejaVuSans-112"/>
     </defs>
     <g transform="translate(414.739062 412.756563)scale(0.1 -0.1)">
      <use xlink:href="#DejaVuSans-84"/>
      <use x="61.037109" xlink:href="#DejaVuSans-105"/>
      <use x="88.820312" xlink:href="#DejaVuSans-109"/>
      <use x="186.232422" xlink:href="#DejaVuSans-101"/>
      <use x="247.755859" xlink:href="#DejaVuSans-115"/>
      <use x="299.855469" xlink:href="#DejaVuSans-116"/>
      <use x="339.064453" xlink:href="#DejaVuSans-97"/>
      <use x="400.34375" xlink:href="#DejaVuSans-109"/>
      <use x="497.755859" xlink:href="#DejaVuSans-112"/>
     </g>
    </g>
   </g>
   <g id="matplotlib.axis_2">
    <g id="ytick_1">
     <g id="line2d_9">
      <defs>
       <path d="M 0 0 
L -3.5 0 
" id="mc56d4d22ea" style="stroke:#000000;stroke-width:0.8;"/>
      </defs>
      <g>
       <use style="stroke:#000000;stroke-width:0.8;" x="108" xlink:href="#mc56d4d22ea" y="348.056556"/>
      </g>
     </g>
     <g id="text_10">
      <!-- −6000 -->
      <defs>
       <path d="M 10.59375 35.5 
L 73.1875 35.5 
L 73.1875 27.203125 
L 10.59375 27.203125 
z
" id="DejaVuSans-8722"/>
       <path d="M 33.015625 40.375 
Q 26.375 40.375 22.484375 35.828125 
Q 18.609375 31.296875 18.609375 23.390625 
Q 18.609375 15.53125 22.484375 10.953125 
Q 26.375 6.390625 33.015625 6.390625 
Q 39.65625 6.390625 43.53125 10.953125 
Q 47.40625 15.53125 47.40625 23.390625 
Q 47.40625 31.296875 43.53125 35.828125 
Q 39.65625 40.375 33.015625 40.375 
z
M 52.59375 71.296875 
L 52.59375 62.3125 
Q 48.875 64.0625 45.09375 64.984375 
Q 41.3125 65.921875 37.59375 65.921875 
Q 27.828125 65.921875 22.671875 59.328125 
Q 17.53125 52.734375 16.796875 39.40625 
Q 19.671875 43.65625 24.015625 45.921875 
Q 28.375 48.1875 33.59375 48.1875 
Q 44.578125 48.1875 50.953125 41.515625 
Q 57.328125 34.859375 57.328125 23.390625 
Q 57.328125 12.15625 50.6875 5.359375 
Q 44.046875 -1.421875 33.015625 -1.421875 
Q 20.359375 -1.421875 13.671875 8.265625 
Q 6.984375 17.96875 6.984375 36.375 
Q 6.984375 53.65625 15.1875 63.9375 
Q 23.390625 74.21875 37.203125 74.21875 
Q 40.921875 74.21875 44.703125 73.484375 
Q 48.484375 72.75 52.59375 71.296875 
z
" id="DejaVuSans-54"/>
      </defs>
      <g transform="translate(67.170312 351.855774)scale(0.1 -0.1)">
       <use xlink:href="#DejaVuSans-8722"/>
       <use x="83.789062" xlink:href="#DejaVuSans-54"/>
       <use x="147.412109" xlink:href="#DejaVuSans-48"/>
       <use x="211.035156" xlink:href="#DejaVuSans-48"/>
       <use x="274.658203" xlink:href="#DejaVuSans-48"/>
      </g>
     </g>
    </g>
    <g id="ytick_2">
     <g id="line2d_10">
      <g>
       <use style="stroke:#000000;stroke-width:0.8;" x="108" xlink:href="#mc56d4d22ea" y="308.910154"/>
      </g>
     </g>
     <g id="text_11">
      <!-- −5000 -->
      <g transform="translate(67.170312 312.709373)scale(0.1 -0.1)">
       <use xlink:href="#DejaVuSans-8722"/>
       <use x="83.789062" xlink:href="#DejaVuSans-53"/>
       <use x="147.412109" xlink:href="#DejaVuSans-48"/>
       <use x="211.035156" xlink:href="#DejaVuSans-48"/>
       <use x="274.658203" xlink:href="#DejaVuSans-48"/>
      </g>
     </g>
    </g>
    <g id="ytick_3">
     <g id="line2d_11">
      <g>
       <use style="stroke:#000000;stroke-width:0.8;" x="108" xlink:href="#mc56d4d22ea" y="269.763753"/>
      </g>
     </g>
     <g id="text_12">
      <!-- −4000 -->
      <defs>
       <path d="M 37.796875 64.3125 
L 12.890625 25.390625 
L 37.796875 25.390625 
z
M 35.203125 72.90625 
L 47.609375 72.90625 
L 47.609375 25.390625 
L 58.015625 25.390625 
L 58.015625 17.1875 
L 47.609375 17.1875 
L 47.609375 0 
L 37.796875 0 
L 37.796875 17.1875 
L 4.890625 17.1875 
L 4.890625 26.703125 
z
" id="DejaVuSans-52"/>
      </defs>
      <g transform="translate(67.170312 273.562972)scale(0.1 -0.1)">
       <use xlink:href="#DejaVuSans-8722"/>
       <use x="83.789062" xlink:href="#DejaVuSans-52"/>
       <use x="147.412109" xlink:href="#DejaVuSans-48"/>
       <use x="211.035156" xlink:href="#DejaVuSans-48"/>
       <use x="274.658203" xlink:href="#DejaVuSans-48"/>
      </g>
     </g>
    </g>
    <g id="ytick_4">
     <g id="line2d_12">
      <g>
       <use style="stroke:#000000;stroke-width:0.8;" x="108" xlink:href="#mc56d4d22ea" y="230.617352"/>
      </g>
     </g>
     <g id="text_13">
      <!-- −3000 -->
      <defs>
       <path d="M 40.578125 39.3125 
Q 47.65625 37.796875 51.625 33 
Q 55.609375 28.21875 55.609375 21.1875 
Q 55.609375 10.40625 48.1875 4.484375 
Q 40.765625 -1.421875 27.09375 -1.421875 
Q 22.515625 -1.421875 17.65625 -0.515625 
Q 12.796875 0.390625 7.625 2.203125 
L 7.625 11.71875 
Q 11.71875 9.328125 16.59375 8.109375 
Q 21.484375 6.890625 26.8125 6.890625 
Q 36.078125 6.890625 40.9375 10.546875 
Q 45.796875 14.203125 45.796875 21.1875 
Q 45.796875 27.640625 41.28125 31.265625 
Q 36.765625 34.90625 28.71875 34.90625 
L 20.21875 34.90625 
L 20.21875 43.015625 
L 29.109375 43.015625 
Q 36.375 43.015625 40.234375 45.921875 
Q 44.09375 48.828125 44.09375 54.296875 
Q 44.09375 59.90625 40.109375 62.90625 
Q 36.140625 65.921875 28.71875 65.921875 
Q 24.65625 65.921875 20.015625 65.03125 
Q 15.375 64.15625 9.8125 62.3125 
L 9.8125 71.09375 
Q 15.4375 72.65625 20.34375 73.4375 
Q 25.25 74.21875 29.59375 74.21875 
Q 40.828125 74.21875 47.359375 69.109375 
Q 53.90625 64.015625 53.90625 55.328125 
Q 53.90625 49.265625 50.4375 45.09375 
Q 46.96875 40.921875 40.578125 39.3125 
z
" id="DejaVuSans-51"/>
      </defs>
      <g transform="translate(67.170312 234.416571)scale(0.1 -0.1)">
       <use xlink:href="#DejaVuSans-8722"/>
       <use x="83.789062" xlink:href="#DejaVuSans-51"/>
       <use x="147.412109" xlink:href="#DejaVuSans-48"/>
       <use x="211.035156" xlink:href="#DejaVuSans-48"/>
       <use x="274.658203" xlink:href="#DejaVuSans-48"/>
      </g>
     </g>
    </g>
    <g id="ytick_5">
     <g id="line2d_13">
      <g>
       <use style="stroke:#000000;stroke-width:0.8;" x="108" xlink:href="#mc56d4d22ea" y="191.470951"/>
      </g>
     </g>
     <g id="text_14">
      <!-- −2000 -->
      <g transform="translate(67.170312 195.270169)scale(0.1 -0.1)">
       <use xlink:href="#DejaVuSans-8722"/>
       <use x="83.789062" xlink:href="#DejaVuSans-50"/>
       <use x="147.412109" xlink:href="#DejaVuSans-48"/>
       <use x="211.035156" xlink:href="#DejaVuSans-48"/>
       <use x="274.658203" xlink:href="#DejaVuSans-48"/>
      </g>
     </g>
    </g>
    <g id="ytick_6">
     <g id="line2d_14">
      <g>
       <use style="stroke:#000000;stroke-width:0.8;" x="108" xlink:href="#mc56d4d22ea" y="152.324549"/>
      </g>
     </g>
     <g id="text_15">
      <!-- −1000 -->
      <g transform="translate(67.170312 156.123768)scale(0.1 -0.1)">
       <use xlink:href="#DejaVuSans-8722"/>
       <use x="83.789062" xlink:href="#DejaVuSans-49"/>
       <use x="147.412109" xlink:href="#DejaVuSans-48"/>
       <use x="211.035156" xlink:href="#DejaVuSans-48"/>
       <use x="274.658203" xlink:href="#DejaVuSans-48"/>
      </g>
     </g>
    </g>
    <g id="ytick_7">
     <g id="line2d_15">
      <g>
       <use style="stroke:#000000;stroke-width:0.8;" x="108" xlink:href="#mc56d4d22ea" y="113.178148"/>
      </g>
     </g>
     <g id="text_16">
      <!-- 0 -->
      <g transform="translate(94.6375 116.977367)scale(0.1 -0.1)">
       <use xlink:href="#DejaVuSans-48"/>
      </g>
     </g>
    </g>
    <g id="ytick_8">
     <g id="line2d_16">
      <g>
       <use style="stroke:#000000;stroke-width:0.8;" x="108" xlink:href="#mc56d4d22ea" y="74.031747"/>
      </g>
     </g>
     <g id="text_17">
      <!-- 1000 -->
      <g transform="translate(75.55 77.830966)scale(0.1 -0.1)">
       <use xlink:href="#DejaVuSans-49"/>
       <use x="63.623047" xlink:href="#DejaVuSans-48"/>
       <use x="127.246094" xlink:href="#DejaVuSans-48"/>
       <use x="190.869141" xlink:href="#DejaVuSans-48"/>
      </g>
     </g>
    </g>
    <g id="text_18">
     <!-- Value -->
     <defs>
      <path d="M 28.609375 0 
L 0.78125 72.90625 
L 11.078125 72.90625 
L 34.1875 11.53125 
L 57.328125 72.90625 
L 67.578125 72.90625 
L 39.796875 0 
z
" id="DejaVuSans-86"/>
      <path d="M 9.421875 75.984375 
L 18.40625 75.984375 
L 18.40625 0 
L 9.421875 0 
z
" id="DejaVuSans-108"/>
      <path d="M 8.5 21.578125 
L 8.5 54.6875 
L 17.484375 54.6875 
L 17.484375 21.921875 
Q 17.484375 14.15625 20.5 10.265625 
Q 23.53125 6.390625 29.59375 6.390625 
Q 36.859375 6.390625 41.078125 11.03125 
Q 45.3125 15.671875 45.3125 23.6875 
L 45.3125 54.6875 
L 54.296875 54.6875 
L 54.296875 0 
L 45.3125 0 
L 45.3125 8.40625 
Q 42.046875 3.421875 37.71875 1 
Q 33.40625 -1.421875 27.6875 -1.421875 
Q 18.265625 -1.421875 13.375 4.4375 
Q 8.5 10.296875 8.5 21.578125 
z
M 31.109375 56 
z
" id="DejaVuSans-117"/>
     </defs>
     <g transform="translate(61.090625 232.273281)rotate(-90)scale(0.1 -0.1)">
      <use xlink:href="#DejaVuSans-86"/>
      <use x="68.298828" xlink:href="#DejaVuSans-97"/>
      <use x="129.578125" xlink:href="#DejaVuSans-108"/>
      <use x="157.361328" xlink:href="#DejaVuSans-117"/>
      <use x="220.740234" xlink:href="#DejaVuSans-101"/>
     </g>
    </g>
   </g>
   <g id="line2d_17">
    <path clip-path="url(#pde0faecb6b)" d="M 138.436364 110.828845 
L 138.798917 89.588079 
L 139.161471 82.730018 
L 139.524024 70.013294 
L 139.886578 80.476034 
L 140.249131 66.96 
L 140.611684 101.324245 
L 140.974238 102.889506 
L 141.699345 125.199379 
L 142.061898 115.724738 
L 142.424452 110.610297 
L 142.787005 112.032581 
L 143.149559 110.844561 
L 143.874666 105.068366 
L 144.962326 125.298679 
L 145.32488 139.153186 
L 145.687433 143.918334 
L 146.049986 151.417682 
L 146.41254 155.075599 
L 146.775093 126.116646 
L 147.5002 87.55062 
L 147.862754 83.499596 
L 148.225307 71.567658 
L 148.587861 80.164704 
L 148.950414 83.536532 
L 149.312968 99.414456 
L 149.675521 104.201182 
L 150.038075 106.429239 
L 150.400628 110.666847 
L 150.763182 110.045574 
L 151.125735 114.79144 
L 151.488288 113.971293 
L 151.850842 108.298704 
L 152.575949 102.847571 
L 152.938502 102.763418 
L 153.301056 126.584511 
L 154.026163 132.536456 
L 154.388716 151.280228 
L 154.75127 150.518967 
L 155.113823 139.435512 
L 155.476377 117.785391 
L 155.83893 119.579555 
L 156.201484 98.380335 
L 156.564037 90.406068 
L 157.289144 81.547355 
L 157.651697 80.11746 
L 158.014251 87.742896 
L 159.101911 123.405638 
L 159.827018 116.457163 
L 160.189572 124.4093 
L 160.552125 99.855506 
L 160.914679 107.140057 
L 161.277232 104.113378 
L 161.639786 113.960411 
L 162.364893 145.213616 
L 162.727446 148.871799 
L 163.089999 147.888897 
L 163.452553 156.864935 
L 164.540213 112.604479 
L 164.902767 94.337441 
L 165.26532 90.565055 
L 165.627874 82.636934 
L 165.990427 80.212336 
L 166.352981 83.710032 
L 166.715534 107.888923 
L 167.078088 116.08089 
L 167.440641 127.830787 
L 167.803195 120.675505 
L 168.165748 135.824198 
L 168.528301 122.730847 
L 168.890855 123.655191 
L 169.253408 121.381464 
L 169.615962 115.575472 
L 169.978515 117.334767 
L 170.341069 123.930007 
L 171.428729 163.273698 
L 172.153836 158.264969 
L 172.51639 162.890227 
L 172.878943 128.829156 
L 173.241497 133.221374 
L 173.966603 93.202161 
L 174.329157 90.922955 
L 174.69171 92.81736 
L 175.054264 97.319526 
L 175.779371 123.900469 
L 176.141924 135.037643 
L 176.504478 136.651287 
L 176.867031 143.837069 
L 177.592138 126.041939 
L 177.954692 131.693214 
L 178.317245 123.855394 
L 178.679799 123.953402 
L 179.042352 144.599861 
L 179.404906 151.51499 
L 179.767459 153.654404 
L 180.130012 163.697213 
L 180.492566 168.211056 
L 180.855119 168.172142 
L 181.217673 169.516633 
L 181.94278 139.521421 
L 182.667887 103.002031 
L 183.03044 116.719517 
L 183.392994 102.420946 
L 183.755547 109.462362 
L 184.118101 107.188401 
L 184.480654 120.048309 
L 184.843208 144.406942 
L 185.205761 143.117559 
L 185.568314 147.611474 
L 185.930868 134.156176 
L 186.293421 136.779209 
L 187.018528 124.269294 
L 187.743635 142.806095 
L 188.106189 143.884485 
L 188.468742 151.087906 
L 188.831296 171.755727 
L 189.193849 185.755455 
L 189.556403 182.001637 
L 191.36917 104.212299 
L 191.731723 97.654297 
L 192.094277 97.089258 
L 192.45683 110.16234 
L 192.819384 109.133529 
L 193.181937 132.756048 
L 193.544491 143.395773 
L 193.907044 141.413799 
L 194.269598 143.216395 
L 194.632151 140.652055 
L 194.994705 130.854358 
L 195.357258 134.027524 
L 195.719812 142.188152 
L 196.082365 129.389431 
L 196.444919 129.162289 
L 196.807472 148.585359 
L 197.170025 144.336132 
L 197.895132 171.274807 
L 198.257686 171.464723 
L 198.620239 166.920247 
L 198.982793 141.485481 
L 199.345346 130.766184 
L 199.7079 108.849796 
L 200.070453 109.570472 
L 200.433007 93.949785 
L 200.79556 90.93099 
L 201.883221 130.1499 
L 202.245774 122.448966 
L 202.608327 139.494533 
L 202.970881 132.002756 
L 203.333434 139.579589 
L 204.058541 120.949227 
L 204.421095 129.391045 
L 204.783648 125.844237 
L 205.146202 132.08766 
L 205.508755 133.442985 
L 206.233862 171.949208 
L 206.596416 170.155634 
L 206.958969 170.235978 
L 207.684076 144.105988 
L 208.046629 134.074167 
L 208.409183 118.444316 
L 208.771736 96.185971 
L 209.13429 94.027972 
L 209.496843 84.622602 
L 209.859397 99.514645 
L 210.22195 105.168309 
L 210.947057 137.245872 
L 211.309611 137.921802 
L 211.672164 134.830529 
L 212.034718 133.940656 
L 212.397271 126.340823 
L 212.759825 139.882403 
L 213.122378 122.736504 
L 213.484932 129.450312 
L 213.847485 121.499149 
L 214.210038 136.096134 
L 214.572592 144.484284 
L 214.935145 159.521791 
L 215.297699 169.325659 
L 215.660252 171.435027 
L 216.022806 161.883064 
L 217.835573 90.554018 
L 218.198127 90.111931 
L 218.56068 97.386337 
L 219.285787 116.089923 
L 219.64834 138.657656 
L 220.010894 146.612746 
L 220.373447 135.722553 
L 220.736001 128.404058 
L 221.098554 141.160651 
L 221.461108 135.645688 
L 221.823661 132.662393 
L 222.186215 126.078134 
L 222.548768 143.237981 
L 222.911322 143.099545 
L 223.273875 159.433373 
L 223.636429 165.994324 
L 223.998982 176.418412 
L 224.361536 169.372174 
L 224.724089 170.553164 
L 225.811749 117.853125 
L 226.174303 103.977861 
L 226.536856 102.078988 
L 226.89941 102.233654 
L 227.624517 114.419249 
L 227.98707 126.237629 
L 228.349624 147.336975 
L 228.712177 147.446272 
L 229.074731 154.754142 
L 229.437284 152.659934 
L 229.799838 151.644532 
L 230.524945 137.085911 
L 230.887498 141.994902 
L 231.250051 150.823322 
L 231.612605 140.873186 
L 232.337712 176.834992 
L 232.700265 185.480958 
L 233.062819 188.57636 
L 233.425372 169.502578 
L 233.787926 161.393412 
L 234.150479 144.126599 
L 234.513033 139.808514 
L 234.875586 115.388885 
L 235.23814 106.339008 
L 235.600693 107.154448 
L 235.963247 123.468489 
L 236.3258 128.307812 
L 237.050907 159.566963 
L 237.41346 158.827093 
L 237.776014 162.55121 
L 238.138567 162.146771 
L 238.863674 141.457684 
L 239.226228 149.602439 
L 239.588781 143.929952 
L 239.951335 155.492948 
L 240.313888 163.349015 
L 240.676442 184.272438 
L 241.038995 174.602773 
L 241.401549 191.964222 
L 242.126655 183.634173 
L 242.489209 175.191068 
L 243.214316 128.945 
L 243.576869 125.355908 
L 243.939423 117.259579 
L 244.301976 120.590315 
L 245.027083 130.189115 
L 245.75219 162.838848 
L 246.114744 160.608276 
L 246.477297 166.350557 
L 246.839851 161.633326 
L 247.202404 159.432042 
L 247.564957 147.208202 
L 247.927511 154.394246 
L 248.290064 150.077919 
L 248.652618 151.388774 
L 249.015171 170.400939 
L 249.740278 190.724019 
L 250.102832 189.058881 
L 250.465385 191.094749 
L 250.827939 197.099825 
L 251.190492 164.744638 
L 251.553046 158.579127 
L 252.278153 121.391108 
L 252.640706 117.829596 
L 253.00326 122.143166 
L 253.365813 124.301709 
L 253.728366 130.62528 
L 254.09092 147.023148 
L 254.453473 154.904942 
L 254.816027 159.152997 
L 255.17858 157.114939 
L 255.541134 160.40041 
L 255.903687 152.679342 
L 256.266241 157.064242 
L 256.628794 149.553397 
L 256.991348 149.027952 
L 257.353901 150.965987 
L 258.079008 189.162953 
L 258.441562 188.154735 
L 258.804115 188.120702 
L 259.166668 185.745116 
L 259.529222 186.467998 
L 260.616882 138.195979 
L 260.979436 131.888378 
L 261.341989 112.908527 
L 261.704543 116.771071 
L 262.067096 123.363999 
L 262.42965 124.154851 
L 263.154757 149.497804 
L 263.879864 166.716453 
L 264.242417 151.778954 
L 264.60497 150.875308 
L 264.967524 140.075308 
L 265.330077 144.463594 
L 265.692631 139.656167 
L 266.055184 151.903707 
L 266.417738 158.186735 
L 266.780291 170.704376 
L 267.505398 184.045536 
L 267.867952 193.864187 
L 268.230505 182.229982 
L 269.680719 117.4248 
L 270.043273 110.094898 
L 270.405826 112.257914 
L 270.768379 115.524906 
L 271.130933 134.539265 
L 271.85604 146.824395 
L 272.218593 156.031463 
L 272.581147 159.244297 
L 273.306254 153.496998 
L 273.668807 136.410936 
L 274.031361 134.463047 
L 274.393914 140.242518 
L 274.756468 163.607771 
L 275.119021 157.130142 
L 275.481575 174.242666 
L 275.844128 185.988824 
L 276.206681 190.807126 
L 276.569235 186.783405 
L 276.931788 172.856143 
L 277.294342 165.069745 
L 277.656895 146.641521 
L 278.019449 144.520728 
L 278.382002 123.147434 
L 278.744556 114.429928 
L 279.107109 114.13379 
L 279.469663 114.54874 
L 279.832216 133.075435 
L 280.19477 138.409043 
L 280.919877 160.197157 
L 281.28243 158.124741 
L 281.644983 153.032552 
L 282.007537 156.628049 
L 282.37009 151.08749 
L 283.095197 145.985599 
L 283.457751 158.655237 
L 284.182858 173.158434 
L 284.545411 191.958827 
L 284.907965 190.41606 
L 285.270518 200.939802 
L 285.633072 197.60629 
L 285.995625 172.440184 
L 286.358179 157.309077 
L 286.720732 133.1104 
L 287.083286 133.586794 
L 287.445839 115.09009 
L 287.808392 125.813072 
L 288.170946 125.722636 
L 288.533499 143.437941 
L 288.896053 143.343965 
L 289.62116 170.986853 
L 289.983713 175.636672 
L 290.346267 169.892297 
L 291.071374 152.922581 
L 291.433927 151.081812 
L 291.796481 159.244711 
L 292.159034 159.283843 
L 292.521588 177.754113 
L 293.246694 200.267287 
L 293.609248 203.798401 
L 293.971801 202.360018 
L 294.334355 197.869798 
L 294.696908 188.491529 
L 295.059462 158.952913 
L 295.422015 144.057755 
L 295.784569 138.517084 
L 296.147122 140.545042 
L 296.509676 131.385875 
L 296.872229 148.220399 
L 297.234783 145.040942 
L 297.597336 164.875245 
L 298.322443 177.399758 
L 298.684996 172.479986 
L 299.04755 185.609659 
L 299.410103 168.17513 
L 299.772657 170.81015 
L 300.13521 165.785728 
L 300.497764 177.115567 
L 300.860317 168.239159 
L 301.585424 204.713322 
L 301.947978 202.870695 
L 302.310531 206.418441 
L 302.673085 212.365843 
L 303.035638 206.737236 
L 303.398192 186.832521 
L 303.760745 185.074353 
L 304.485852 136.880063 
L 304.848405 140.254326 
L 305.210959 131.878019 
L 305.573512 146.58557 
L 305.936066 143.732527 
L 306.298619 167.684072 
L 307.38628 187.131568 
L 307.748833 180.866829 
L 308.111387 172.442856 
L 308.836494 162.209111 
L 309.199047 168.994874 
L 309.561601 180.503537 
L 311.011814 210.651567 
L 311.736921 203.858479 
L 312.099475 187.01649 
L 312.462028 183.833232 
L 312.824582 158.273519 
L 313.549689 139.388537 
L 313.912242 126.916697 
L 314.274796 131.548103 
L 314.999903 167.118474 
L 315.362456 179.89392 
L 316.087563 186.380244 
L 316.450116 179.822469 
L 316.81267 179.653648 
L 317.175223 158.423091 
L 317.537777 165.31476 
L 317.90033 163.451551 
L 318.262884 166.265581 
L 319.350544 206.474895 
L 319.713098 213.291882 
L 320.075651 198.955632 
L 320.438205 211.124549 
L 320.800758 184.381634 
L 321.163311 171.647684 
L 321.525865 144.644678 
L 321.888418 144.348495 
L 322.250972 136.000811 
L 322.613525 144.641852 
L 322.976079 143.4177 
L 323.338632 154.312296 
L 323.701186 169.838147 
L 324.063739 177.905731 
L 324.426293 180.398326 
L 324.788846 171.673724 
L 325.1514 178.64474 
L 325.513953 163.282241 
L 325.876507 154.844024 
L 326.601614 171.576647 
L 326.964167 166.261951 
L 327.32672 194.144149 
L 327.689274 196.283183 
L 328.051827 206.230546 
L 328.414381 212.061092 
L 328.776934 211.265347 
L 329.139488 187.468697 
L 329.502041 187.08675 
L 329.864595 172.367289 
L 330.227148 151.50014 
L 330.589702 137.341172 
L 330.952255 133.44122 
L 331.314809 125.046096 
L 331.677362 131.54614 
L 332.039916 146.043542 
L 332.402469 153.239124 
L 332.765022 171.644981 
L 333.127576 183.214985 
L 333.490129 175.443134 
L 333.852683 179.037071 
L 334.215236 163.343837 
L 334.57779 159.251252 
L 334.940343 162.490856 
L 335.302897 161.27207 
L 335.66545 174.203013 
L 336.028004 192.976655 
L 336.390557 191.57711 
L 337.115664 212.667188 
L 337.478218 201.871675 
L 337.840771 204.416941 
L 338.203324 184.033473 
L 338.565878 174.810965 
L 339.290985 136.970479 
L 340.016092 139.432415 
L 340.378645 135.139623 
L 341.103752 163.918954 
L 341.466306 171.032169 
L 341.828859 187.836967 
L 342.191413 188.229759 
L 342.91652 170.186149 
L 343.279073 169.522475 
L 343.641627 179.32097 
L 344.00418 164.796685 
L 344.729287 190.874994 
L 345.09184 201.580012 
L 345.816947 210.743151 
L 346.179501 216.025712 
L 346.542054 207.765148 
L 346.904608 187.561755 
L 347.267161 178.130035 
L 347.992268 148.214204 
L 348.354822 139.080892 
L 348.717375 142.221513 
L 349.442482 164.035317 
L 349.805035 161.565954 
L 350.530142 186.564782 
L 350.892696 198.316435 
L 351.617803 184.784464 
L 352.34291 182.754218 
L 352.705463 185.319403 
L 353.068017 171.463756 
L 353.793124 211.939104 
L 354.155677 217.601269 
L 354.518231 218.846464 
L 354.880784 225.195939 
L 355.243337 213.497186 
L 355.605891 207.788925 
L 356.693551 157.16146 
L 357.056105 157.180538 
L 357.418658 148.385771 
L 357.781212 147.614453 
L 358.143765 174.852444 
L 358.506319 175.574324 
L 358.868872 183.761588 
L 359.231426 201.065974 
L 359.593979 200.968399 
L 359.956533 188.580425 
L 360.319086 197.106485 
L 360.68164 186.382638 
L 361.044193 187.395469 
L 361.406746 194.908765 
L 361.7693 198.816244 
L 362.131853 199.661426 
L 362.494407 210.608669 
L 362.85696 228.104892 
L 363.219514 238.494246 
L 363.582067 231.546327 
L 363.944621 233.599198 
L 364.307174 208.927577 
L 365.394835 160.091261 
L 365.757388 149.256516 
L 366.119942 157.408716 
L 366.482495 169.275533 
L 366.845048 176.390823 
L 367.570155 197.941175 
L 367.932709 199.863661 
L 368.295262 204.15967 
L 368.657816 203.190632 
L 369.020369 204.992344 
L 369.382923 190.290299 
L 369.745476 190.133896 
L 370.10803 185.994147 
L 370.470583 200.81772 
L 370.833137 206.93274 
L 371.558244 228.071512 
L 371.920797 229.671035 
L 372.28335 244.799285 
L 373.008457 194.665317 
L 373.371011 203.583911 
L 373.733564 180.072952 
L 374.458671 163.141065 
L 374.821225 165.309618 
L 375.183778 151.497636 
L 375.546332 171.40367 
L 375.908885 176.820214 
L 376.271439 199.370254 
L 376.633992 199.058054 
L 377.359099 205.410779 
L 377.721652 182.553337 
L 378.084206 192.062302 
L 378.446759 188.158035 
L 378.809313 193.562807 
L 379.171866 201.014555 
L 379.53442 200.631985 
L 379.896973 219.553454 
L 380.259527 226.074226 
L 380.62208 229.552851 
L 380.984634 239.058701 
L 381.709741 206.372901 
L 382.434848 166.815832 
L 382.797401 166.339425 
L 383.159955 153.294305 
L 383.522508 147.744264 
L 383.885061 158.973967 
L 384.247615 181.522653 
L 384.610168 183.052062 
L 384.972722 192.234903 
L 385.335275 196.544457 
L 385.697829 205.531091 
L 386.060382 191.350888 
L 386.422936 190.599382 
L 386.785489 175.611219 
L 387.148043 189.617827 
L 387.510596 177.30503 
L 387.87315 184.723852 
L 388.235703 203.501875 
L 388.598257 208.41258 
L 388.96081 217.359456 
L 389.323363 235.181755 
L 389.685917 221.773589 
L 390.04847 221.159993 
L 390.411024 202.658764 
L 390.773577 250.016087 
L 391.136131 175.785591 
L 391.498684 164.280288 
L 391.861238 148.841182 
L 392.223791 157.294451 
L 392.586345 159.488622 
L 392.948898 172.31915 
L 393.311452 178.749806 
L 393.674005 189.176458 
L 394.036559 204.278714 
L 394.399112 195.086897 
L 394.761665 190.670033 
L 395.124219 193.326204 
L 395.486772 175.423296 
L 395.849326 188.536585 
L 396.211879 185.872338 
L 396.574433 178.855438 
L 396.936986 186.139335 
L 397.29954 200.921478 
L 397.662093 227.933588 
L 398.024647 236.930232 
L 399.112307 209.029685 
L 399.474861 199.189172 
L 399.837414 167.535523 
L 400.199968 156.756683 
L 400.562521 158.027269 
L 400.925074 149.78818 
L 401.287628 155.693035 
L 401.650181 167.232609 
L 402.012735 187.477547 
L 402.375288 185.426331 
L 402.737842 194.699188 
L 403.100395 195.087316 
L 403.462949 206.233907 
L 403.825502 188.935268 
L 404.188056 184.095445 
L 404.550609 187.66805 
L 404.913163 186.34547 
L 406.72593 231.272503 
L 407.088483 233.917428 
L 407.451037 223.903361 
L 408.176144 189.71278 
L 408.538697 186.772748 
L 408.901251 175.814824 
L 409.263804 170.509145 
L 409.626358 157.08998 
L 409.988911 165.642359 
L 410.351465 167.82132 
L 410.714018 182.784192 
L 411.076572 206.481264 
L 411.439125 214.828562 
L 411.801678 204.944837 
L 412.164232 205.426858 
L 412.526785 205.575676 
L 412.889339 202.05106 
L 413.251892 193.75579 
L 413.614446 205.03289 
L 413.976999 209.360143 
L 414.339553 210.930832 
L 414.702106 219.645848 
L 415.06466 238.713839 
L 415.427213 246.173764 
L 415.789767 244.964812 
L 416.15232 233.011295 
L 416.514874 215.251909 
L 416.877427 207.459549 
L 417.239981 190.045952 
L 417.602534 184.656784 
L 417.965087 164.71524 
L 418.327641 166.189773 
L 418.690194 169.841511 
L 419.052748 182.884371 
L 419.415301 199.943222 
L 419.777855 200.906342 
L 420.140408 222.59774 
L 420.502962 213.466608 
L 420.865515 222.14643 
L 421.228069 212.77784 
L 421.590622 212.340555 
L 421.953176 215.404696 
L 422.315729 205.620736 
L 422.678283 212.526026 
L 423.403389 242.709955 
L 423.765943 244.594337 
L 424.128496 251.494802 
L 424.49105 245.079978 
L 424.853603 224.467234 
L 425.216157 229.084629 
L 425.941264 200.605275 
L 426.303817 180.481762 
L 426.666371 185.139537 
L 427.028924 176.652199 
L 427.391478 182.158271 
L 427.754031 196.684281 
L 428.116585 192.838606 
L 428.841691 220.628868 
L 429.204245 221.870569 
L 429.566798 225.573102 
L 429.929352 207.181346 
L 430.291905 209.25638 
L 430.654459 203.887687 
L 431.017012 208.630692 
L 431.379566 217.825745 
L 431.742119 223.219156 
L 432.104673 233.610968 
L 432.467226 252.19544 
L 432.82978 255.749538 
L 433.192333 253.358923 
L 433.554887 244.77565 
L 433.91744 223.502778 
L 434.279994 210.890315 
L 434.642547 207.470896 
L 435.0051 172.417965 
L 435.367654 172.915434 
L 435.730207 176.605119 
L 436.092761 184.053587 
L 436.455314 184.022348 
L 436.817868 203.675788 
L 437.542975 221.191399 
L 438.268082 229.086333 
L 438.630635 213.059747 
L 438.993189 203.731347 
L 439.355742 208.298825 
L 439.718296 205.30928 
L 440.080849 200.525156 
L 440.443402 213.826768 
L 440.805956 244.250806 
L 441.168509 245.328585 
L 441.531063 252.998099 
L 441.893616 238.793124 
L 442.25617 256.296762 
L 443.34383 188.726441 
L 443.706384 178.85065 
L 444.068937 173.67325 
L 444.431491 182.513635 
L 444.794044 176.863291 
L 445.156598 180.936228 
L 445.519151 207.915119 
L 445.881704 207.272989 
L 446.244258 219.565771 
L 446.606811 221.194744 
L 447.331918 207.699675 
L 447.694472 198.189606 
L 448.057025 203.273423 
L 448.419579 191.832048 
L 448.782132 210.525367 
L 449.507239 236.264204 
L 449.869793 232.530549 
L 450.232346 254.912167 
L 450.5949 246.987795 
L 450.957453 231.61679 
L 451.320006 227.349244 
L 452.045113 181.289893 
L 452.407667 181.398756 
L 452.77022 175.111504 
L 453.132774 162.462867 
L 453.495327 177.857624 
L 453.857881 178.132317 
L 454.220434 204.304379 
L 454.582988 205.011111 
L 454.945541 219.390757 
L 455.308095 216.179051 
L 455.670648 216.905525 
L 456.033202 206.775772 
L 456.395755 207.702002 
L 456.758309 195.775911 
L 457.120862 202.132228 
L 457.483415 211.102379 
L 457.845969 214.602895 
L 458.208522 231.867568 
L 458.571076 237.621609 
L 458.933629 245.691739 
L 459.296183 248.602704 
L 459.658736 239.93385 
L 460.746397 195.639235 
L 461.471504 180.624068 
L 461.834057 172.262436 
L 462.921717 200.876714 
L 463.284271 216.124046 
L 463.646824 223.60197 
L 464.009378 212.383588 
L 464.371931 213.355164 
L 464.734485 215.298299 
L 465.097038 202.090257 
L 465.459592 200.105174 
L 465.822145 211.855068 
L 466.184699 213.631205 
L 466.547252 220.270477 
L 467.272359 253.220544 
L 467.634913 258.799121 
L 467.997466 253.228145 
L 468.360019 244.308196 
L 468.722573 228.80053 
L 469.085126 222.35762 
L 469.44768 191.226062 
L 469.810233 192.920229 
L 470.172787 184.563463 
L 470.53534 188.494551 
L 470.897894 198.420129 
L 471.260447 188.268399 
L 471.985554 227.262595 
L 472.348108 221.121975 
L 472.710661 228.846479 
L 473.073215 229.746461 
L 473.435768 216.43733 
L 473.798322 212.658599 
L 474.160875 214.15105 
L 474.523428 223.198327 
L 474.885982 219.745823 
L 475.248535 230.347141 
L 475.611089 249.51106 
L 475.973642 248.600606 
L 476.336196 251.22855 
L 476.698749 269.090353 
L 477.061303 253.758744 
L 477.78641 235.170433 
L 478.148963 202.06463 
L 478.511517 199.002533 
L 478.87407 194.531834 
L 479.236624 183.984161 
L 479.599177 185.96259 
L 479.96173 205.599596 
L 480.324284 209.906418 
L 480.686837 222.407598 
L 481.049391 251.906187 
L 481.411944 237.764515 
L 481.774498 239.099053 
L 482.137051 232.930229 
L 482.499605 237.474622 
L 482.862158 215.834585 
L 483.224712 219.245825 
L 484.312372 248.390546 
L 484.674926 266.884132 
L 485.037479 269.748161 
L 485.400032 271.408244 
L 485.762586 256.639102 
L 486.125139 253.066822 
L 486.487693 221.855058 
L 486.850246 222.521767 
L 487.575353 197.027994 
L 487.937907 190.850987 
L 488.30046 203.822142 
L 489.025567 217.036704 
L 489.388121 232.332409 
L 489.750674 240.05038 
L 490.113228 234.804586 
L 490.475781 247.276965 
L 490.838335 228.008178 
L 491.200888 232.079186 
L 491.563441 225.258286 
L 491.925995 231.606785 
L 492.288548 233.281818 
L 493.376209 266.749071 
L 493.738762 262.60469 
L 494.101316 269.276926 
L 494.463869 266.540288 
L 495.914083 203.157882 
L 496.276637 196.981843 
L 496.63919 185.630254 
L 497.001743 193.799719 
L 498.089404 240.720002 
L 498.451957 237.68151 
L 498.814511 242.690595 
L 499.177064 235.061983 
L 499.539618 239.551743 
L 499.902171 228.757427 
L 500.264725 229.623029 
L 500.627278 180.101866 
L 500.989832 229.212157 
L 501.714939 254.131345 
L 502.440045 279.452766 
L 502.802599 272.467415 
L 503.165152 253.028222 
L 503.527706 251.882557 
L 504.252813 204.243356 
L 504.615366 200.895424 
L 504.97792 189.958876 
L 505.703027 195.096186 
L 506.06558 202.215274 
L 506.428134 228.884721 
L 507.153241 239.352397 
L 507.515794 233.357781 
L 507.878348 231.355967 
L 508.240901 230.267499 
L 508.603454 230.745045 
L 508.966008 219.283936 
L 509.328561 221.488957 
L 509.691115 237.686748 
L 510.053668 236.906622 
L 511.141329 269.749716 
L 511.503882 267.615568 
L 511.866436 258.883716 
L 512.591543 226.449438 
L 512.954096 216.126432 
L 513.31665 189.12779 
L 513.679203 193.674325 
L 514.041756 193.637299 
L 514.40431 194.518053 
L 514.766863 205.454375 
L 515.129417 259.600369 
L 515.49197 225.124374 
L 515.854524 236.65618 
L 516.217077 227.809869 
L 516.579631 238.536264 
L 516.942184 228.898284 
L 517.304738 230.78861 
L 517.667291 205.925305 
L 518.029845 225.531018 
L 518.392398 226.801306 
L 519.117505 255.742917 
L 519.480058 257.149446 
L 519.842612 257.474505 
L 520.205165 269.827732 
L 520.930272 244.616056 
L 521.292826 223.778064 
L 522.017933 201.485817 
L 522.380486 183.613761 
L 522.74304 197.09003 
L 523.105593 193.022792 
L 523.468147 213.332136 
L 523.8307 210.822434 
L 524.193254 233.015794 
L 524.555807 234.251841 
L 524.91836 233.070156 
L 525.280914 237.780605 
L 525.643467 225.426408 
L 526.006021 229.349491 
L 526.368574 225.91674 
L 526.731128 231.367302 
L 527.093681 229.503827 
L 527.456235 255.125217 
L 527.818788 249.545481 
L 528.181342 260.270603 
L 528.543895 276.262961 
L 528.906449 277.460175 
L 529.269002 253.490263 
L 529.631556 254.656714 
L 529.994109 240.500499 
L 530.356663 216.561843 
L 530.719216 201.102542 
L 531.081769 196.08589 
L 531.444323 204.196775 
L 531.806876 202.302238 
L 532.16943 215.177388 
L 532.531983 211.461988 
L 532.894537 235.147034 
L 533.25709 250.774801 
L 533.619644 253.547011 
L 534.344751 242.47636 
L 534.707304 241.61397 
L 535.069858 230.229975 
L 535.432411 245.743172 
L 535.794965 240.565464 
L 536.157518 248.612536 
L 536.520071 267.658541 
L 536.882625 274.319636 
L 537.607732 280.422054 
L 537.970285 288.639579 
L 538.332839 258.813816 
L 538.695392 247.21192 
L 539.057946 227.62117 
L 539.783053 207.436334 
L 540.145606 210.579739 
L 540.50816 220.097569 
L 540.870713 223.067805 
L 541.233267 244.57357 
L 541.59582 242.955067 
L 541.958373 258.778513 
L 542.320927 260.12423 
L 542.68348 254.023985 
L 543.046034 254.25675 
L 543.408587 249.6333 
L 543.771141 246.580835 
L 544.133694 249.532683 
L 544.496248 249.424609 
L 544.858801 264.522875 
L 545.221355 286.843729 
L 545.583908 272.234825 
L 546.309015 292.470971 
L 546.671569 279.416777 
L 547.034122 270.662533 
L 547.396676 254.522305 
L 547.759229 231.498724 
L 548.484336 209.412764 
L 549.571996 235.899951 
L 549.93455 249.169685 
L 550.297103 256.786439 
L 550.659657 257.121802 
L 551.02221 256.32362 
L 551.384764 268.940049 
L 551.747317 246.191247 
L 552.472424 255.829338 
L 552.834978 250.891759 
L 553.197531 251.137779 
L 553.922638 282.176019 
L 554.285191 286.347316 
L 554.647745 299.54278 
L 555.010298 283.627715 
L 555.372852 292.3621 
L 555.735405 263.384826 
L 556.097959 246.057112 
L 556.460512 243.790634 
L 556.823066 227.792935 
L 557.185619 218.719039 
L 557.548173 220.321486 
L 557.910726 215.391629 
L 558.27328 221.950138 
L 558.635833 239.815861 
L 558.998386 250.650096 
L 559.723493 261.327305 
L 560.086047 253.694531 
L 560.4486 254.326329 
L 560.811154 240.445651 
L 561.173707 251.262667 
L 561.536261 245.075054 
L 561.898814 255.357386 
L 562.261368 259.876128 
L 562.623921 274.955451 
L 562.986475 268.410912 
L 563.349028 291.801202 
L 563.711582 286.422123 
L 564.074135 282.949537 
L 564.436689 273.873551 
L 565.524349 209.699462 
L 565.886902 210.788407 
L 566.249456 233.157141 
L 566.612009 217.985471 
L 566.974563 236.052979 
L 567.337116 236.934824 
L 567.69967 247.467711 
L 568.062223 249.792782 
L 568.424777 261.423431 
L 568.78733 257.673675 
L 569.149884 260.115294 
L 569.512437 244.000703 
L 569.874991 244.275438 
L 570.237544 246.446497 
L 570.600097 247.043477 
L 570.962651 254.947693 
L 571.687758 281.71336 
L 572.050311 297.152801 
L 572.412865 281.285169 
L 572.775418 279.439633 
L 573.137972 258.525144 
L 573.500525 246.664298 
L 573.863079 227.55852 
L 574.225632 221.301039 
L 574.588186 217.599059 
L 574.950739 215.730708 
L 575.313293 231.397426 
L 575.675846 222.708954 
L 576.400953 241.439248 
L 576.763506 260.227703 
L 577.12606 253.829104 
L 577.488613 258.687914 
L 577.851167 247.128445 
L 578.21372 247.173068 
L 578.576274 251.04446 
L 578.938827 249.072034 
L 579.301381 243.830527 
L 579.663934 260.535864 
L 580.026488 254.577839 
L 580.389041 284.23947 
L 580.751595 290.68814 
L 581.476701 264.134046 
L 581.839255 270.380846 
L 582.564362 231.44649 
L 582.926915 215.842757 
L 583.289469 214.45096 
L 583.652022 220.988851 
L 584.014576 216.367424 
L 584.377129 239.610804 
L 584.739683 246.059382 
L 585.102236 256.041075 
L 585.46479 256.469832 
L 585.827343 274.222673 
L 586.189897 255.578204 
L 586.55245 246.144972 
L 586.915004 246.415146 
L 587.277557 244.234113 
L 587.64011 238.74718 
L 588.002664 250.744331 
L 588.365217 267.758843 
L 589.090324 288.653109 
L 589.452878 286.422298 
L 589.815431 294.339247 
L 590.903092 253.301827 
L 591.265645 231.193567 
L 591.628199 228.301221 
L 591.990752 210.566612 
L 592.353306 221.281239 
L 592.715859 220.077349 
L 593.078412 243.455773 
L 593.440966 246.233374 
L 594.166073 275.2797 
L 594.528626 261.841537 
L 594.89118 259.26242 
L 595.253733 257.643352 
L 595.616287 260.1639 
L 595.97884 250.965195 
L 596.341394 249.348204 
L 596.703947 263.5345 
L 597.066501 267.99782 
L 597.429054 285.554449 
L 598.516714 299.36035 
L 598.879268 302.113536 
L 599.241821 281.13652 
L 599.604375 273.731048 
L 600.329482 235.362048 
L 600.692035 229.720257 
L 601.054589 231.593522 
L 601.417142 237.247288 
L 601.779696 238.31395 
L 602.142249 263.759047 
L 602.504803 265.809957 
L 603.22991 277.314921 
L 603.592463 275.507934 
L 603.955017 262.437727 
L 604.31757 277.018559 
L 604.680123 262.527507 
L 605.042677 268.241981 
L 605.40523 263.560198 
L 606.130337 303.719304 
L 606.492891 301.472889 
L 606.855444 311.592817 
L 607.217998 309.025869 
L 607.580551 305.34623 
L 608.668212 249.48255 
L 609.030765 237.205224 
L 609.393319 240.452534 
L 609.755872 236.427007 
L 610.118425 242.689128 
L 610.480979 260.621944 
L 610.843532 258.797836 
L 611.206086 274.472785 
L 611.931193 282.895323 
L 612.293746 292.855426 
L 612.6563 280.033553 
L 613.018853 271.630485 
L 613.381407 273.79008 
L 613.74396 276.833608 
L 614.106514 277.30017 
L 614.469067 287.585849 
L 614.831621 303.955902 
L 615.194174 312.319336 
L 615.556727 302.361141 
L 615.919281 317.280393 
L 616.281834 295.533324 
L 616.644388 288.494027 
L 617.006941 285.853571 
L 617.732048 247.278888 
L 618.094602 235.862482 
L 618.457155 240.9941 
L 618.819709 232.900097 
L 619.182262 265.409466 
L 619.907369 272.264407 
L 620.269923 277.45641 
L 620.632476 294.090935 
L 620.99503 273.48709 
L 621.357583 282.548267 
L 621.720136 268.476276 
L 622.445243 261.539116 
L 622.807797 274.880701 
L 623.17035 275.699143 
L 623.532904 299.362215 
L 623.895457 307.107861 
L 624.258011 302.978349 
L 624.620564 310.28588 
L 624.983118 298.603429 
L 625.345671 294.567239 
L 625.708225 267.897011 
L 626.433332 232.514783 
L 626.795885 235.774721 
L 627.158438 229.171033 
L 627.520992 233.330209 
L 627.883545 249.429532 
L 628.246099 254.646278 
L 628.608652 273.127784 
L 629.333759 282.910311 
L 629.696313 274.552296 
L 630.058866 307.310811 
L 630.42142 256.866381 
L 630.783973 254.405389 
L 631.146527 266.3226 
L 631.50908 271.691139 
L 631.871634 282.390843 
L 632.234187 298.140745 
L 632.59674 300.111127 
L 632.959294 310.616721 
L 633.321847 301.317406 
L 633.684401 340.519083 
L 634.046954 288.733852 
L 634.772061 242.458915 
L 635.134615 238.820268 
L 635.497168 232.879497 
L 635.859722 235.624583 
L 636.222275 226.59241 
L 636.947382 263.317498 
L 637.309936 267.55019 
L 637.672489 268.919935 
L 638.035043 280.341091 
L 638.397596 273.085375 
L 638.760149 262.012988 
L 639.122703 260.091291 
L 639.485256 262.548003 
L 639.84781 263.601291 
L 640.210363 269.903574 
L 640.572917 270.216916 
L 640.93547 295.922983 
L 641.298024 300.961477 
L 641.660577 310.618813 
L 642.023131 304.227871 
L 642.385684 300.325738 
L 642.748238 290.313909 
L 643.110791 271.668008 
L 643.473345 263.824927 
L 643.835898 247.628993 
L 644.198451 225.55034 
L 644.561005 232.853088 
L 644.923558 242.631827 
L 645.286112 249.223283 
L 645.648665 262.645352 
L 646.011219 262.127262 
L 646.373772 275.478296 
L 646.736326 282.818245 
L 647.098879 273.339712 
L 647.461433 277.577208 
L 647.823986 260.150611 
L 648.18654 255.385622 
L 648.549093 264.771786 
L 648.911647 277.26505 
L 649.2742 280.311805 
L 649.636753 299.096742 
L 649.999307 302.250337 
L 650.36186 306.479518 
L 650.724414 306.589778 
L 651.086967 310.859636 
L 651.449521 281.805978 
L 651.812074 263.859463 
L 652.174628 264.504204 
L 652.537181 244.759156 
L 652.899735 239.563688 
L 653.262288 246.328824 
L 653.624842 239.839728 
L 653.987395 250.8343 
L 654.712502 287.248233 
L 655.075055 280.050996 
L 655.437609 289.660281 
L 655.800162 281.643878 
L 656.162716 287.041095 
L 656.525269 272.643054 
L 656.887823 275.67978 
L 657.250376 281.64439 
L 657.61293 275.084671 
L 657.975483 289.369848 
L 658.338037 310.77233 
L 658.70059 314.25033 
L 659.063144 307.062191 
L 659.425697 326.427815 
L 659.788251 312.051325 
L 660.150804 306.6269 
L 660.875911 254.933657 
L 661.238464 255.278308 
L 661.601018 249.276572 
L 661.963571 250.910799 
L 662.326125 254.063029 
L 662.688678 270.10836 
L 663.051232 273.327128 
L 663.413785 296.388684 
L 663.776339 297.5582 
L 664.138892 297.766841 
L 664.501446 285.633011 
L 664.863999 288.768253 
L 665.226553 285.9976 
L 665.589106 278.872567 
L 665.95166 286.225384 
L 666.314213 301.707982 
L 666.676766 300.144018 
L 667.03932 318.853075 
L 668.12698 336.49247 
L 668.852087 303.582718 
L 669.939748 264.086653 
L 670.664855 258.35283 
L 671.027408 261.748547 
L 672.115068 299.109029 
L 672.477622 296.833692 
L 672.840175 304.500813 
L 673.202729 282.349114 
L 673.565282 300.948016 
L 673.927836 276.912237 
L 674.290389 283.513181 
L 674.652943 278.729829 
L 675.37805 308.972508 
L 675.740603 320.001043 
L 676.103157 321.089517 
L 676.46571 326.266963 
L 676.828264 323.979994 
L 677.190817 329.051958 
L 677.915924 299.933379 
L 678.278477 273.381633 
L 679.003584 248.881624 
L 679.366138 262.565195 
L 679.728691 267.028303 
L 680.453798 284.523944 
L 681.178905 300.423174 
L 681.541459 296.21823 
L 681.904012 294.372681 
L 682.266566 294.335839 
L 682.629119 287.537491 
L 683.354226 280.790677 
L 683.716779 296.440688 
L 684.079333 302.53393 
L 684.441886 314.2835 
L 684.80444 332.838324 
L 685.166993 327.385059 
L 685.529547 330.383764 
L 685.8921 321.310355 
L 686.979761 269.894779 
L 687.342314 263.19962 
L 687.704868 253.085636 
L 688.067421 263.494896 
L 688.429975 255.240174 
L 689.155081 284.144488 
L 689.517635 280.316605 
L 689.880188 301.656745 
L 690.242742 291.535014 
L 690.605295 285.442694 
L 690.967849 282.600395 
L 691.330402 280.731201 
L 691.692956 270.611974 
L 692.055509 275.273405 
L 692.418063 285.088425 
L 692.780616 302.754912 
L 693.14317 305.222876 
L 693.868277 315.653757 
L 694.23083 316.65303 
L 694.593384 322.009861 
L 695.31849 288.829533 
L 696.043597 257.637825 
L 696.406151 243.774164 
L 696.768704 245.890396 
L 697.131258 259.410703 
L 697.493811 252.646805 
L 697.856365 278.310944 
L 698.218918 288.489079 
L 698.581472 289.170639 
L 698.944025 296.479706 
L 699.306579 282.639232 
L 699.669132 290.733443 
L 700.031686 277.68399 
L 700.394239 277.041065 
L 700.756792 282.811738 
L 701.119346 286.459221 
L 702.207006 326.443944 
L 702.56956 326.743709 
L 702.932113 324.33495 
L 703.294667 320.024384 
L 703.65722 294.623495 
L 704.019774 292.18397 
L 704.382327 266.461871 
L 704.744881 265.18977 
L 705.107434 242.436743 
L 705.469988 247.911627 
L 705.832541 272.702702 
L 706.195094 264.962054 
L 706.557648 273.965429 
L 706.920201 298.406987 
L 707.282755 296.232796 
L 707.645308 308.068987 
L 708.007862 306.105845 
L 708.370415 290.397059 
L 708.732969 285.098795 
L 709.095522 285.943527 
L 709.820629 290.208565 
L 710.183183 312.668427 
L 710.545736 309.048081 
L 710.90829 335.543012 
L 711.270843 319.68202 
L 711.633397 336.876901 
L 712.358503 313.784254 
L 712.721057 292.423051 
L 713.446164 267.494752 
L 713.808717 263.240697 
L 714.533824 267.695014 
L 714.896378 277.998751 
L 715.258931 296.925553 
L 715.621485 257.047601 
L 715.984038 306.511625 
L 716.346592 308.311243 
L 716.709145 316.203625 
L 717.071699 305.252618 
L 717.434252 287.620754 
L 717.796805 291.244048 
L 718.159359 290.239914 
L 718.884466 309.540678 
L 719.247019 332.56055 
L 719.609573 335.952029 
L 719.972126 337.26903 
L 720.33468 339.306103 
L 720.697233 328.503185 
L 721.42234 317.86488 
L 721.784894 288.274019 
L 722.147447 275.220548 
L 722.510001 267.088745 
L 722.872554 264.024163 
L 723.597661 288.793035 
L 723.960214 256.375426 
L 724.322768 306.218998 
L 724.685321 307.124341 
L 725.047875 320.893609 
L 725.410428 321.993837 
L 725.772982 308.738977 
L 726.498089 298.695088 
L 726.860642 302.41127 
L 727.223196 316.963342 
L 727.585749 318.427776 
L 727.948303 332.417616 
L 728.310856 351.68581 
L 728.673409 347.553628 
L 729.035963 349.694778 
L 729.398516 336.403219 
L 729.76107 330.531571 
L 730.123623 312.680543 
L 730.486177 302.80496 
L 730.84873 276.503964 
L 731.211284 269.17932 
L 731.936391 289.098693 
L 732.298944 285.985703 
L 732.661498 304.540123 
L 733.024051 304.625914 
L 733.386605 320.356703 
L 733.749158 323.623344 
L 734.111712 316.238572 
L 734.474265 313.315094 
L 734.836818 303.895535 
L 735.199372 301.920552 
L 735.561925 302.77923 
L 735.924479 317.550947 
L 736.287032 325.410982 
L 736.649586 339.720508 
L 737.012139 348.141707 
L 737.374693 369.36 
L 737.737246 351.911427 
L 738.0998 345.655731 
L 738.824907 308.780445 
L 739.912567 269.320418 
L 740.27512 268.562205 
L 740.637674 285.963382 
L 741.000227 293.868929 
L 741.725334 314.679966 
L 742.450441 319.902601 
L 742.812995 316.57212 
L 743.175548 309.277322 
L 743.538102 307.822302 
L 743.900655 311.900036 
L 744.263209 302.678196 
L 744.625762 305.940418 
L 744.988316 330.644512 
L 745.350869 337.763527 
L 745.713422 338.428851 
L 746.075976 347.454139 
L 746.438529 347.737381 
L 746.801083 342.032838 
L 747.163636 330.893595 
L 747.163636 330.893595 
" style="fill:none;stroke:#1f77b4;stroke-linecap:square;stroke-width:1.5;"/>
   </g>
   <g id="line2d_18">
    <path clip-path="url(#pde0faecb6b)" d="M 745.713422 384.48 
L 745.713422 51.84 
" style="fill:none;stroke:#808080;stroke-linecap:square;"/>
   </g>
   <g id="patch_51">
    <path d="M 108 384.48 
L 108 51.84 
" style="fill:none;stroke:#000000;stroke-linecap:square;stroke-linejoin:miter;stroke-width:0.8;"/>
   </g>
   <g id="patch_52">
    <path d="M 777.6 384.48 
L 777.6 51.84 
" style="fill:none;stroke:#000000;stroke-linecap:square;stroke-linejoin:miter;stroke-width:0.8;"/>
   </g>
   <g id="patch_53">
    <path d="M 108 384.48 
L 777.6 384.48 
" style="fill:none;stroke:#000000;stroke-linecap:square;stroke-linejoin:miter;stroke-width:0.8;"/>
   </g>
   <g id="patch_54">
    <path d="M 108 51.84 
L 777.6 51.84 
" style="fill:none;stroke:#000000;stroke-linecap:square;stroke-linejoin:miter;stroke-width:0.8;"/>
   </g>
   <g id="text_19">
    <!-- A3Benchmark-TS82.csv -->
    <defs>
     <path d="M 34.1875 63.1875 
L 20.796875 26.90625 
L 47.609375 26.90625 
z
M 28.609375 72.90625 
L 39.796875 72.90625 
L 67.578125 0 
L 57.328125 0 
L 50.6875 18.703125 
L 17.828125 18.703125 
L 11.1875 0 
L 0.78125 0 
z
" id="DejaVuSans-65"/>
     <path d="M 19.671875 34.8125 
L 19.671875 8.109375 
L 35.5 8.109375 
Q 43.453125 8.109375 47.28125 11.40625 
Q 51.125 14.703125 51.125 21.484375 
Q 51.125 28.328125 47.28125 31.5625 
Q 43.453125 34.8125 35.5 34.8125 
z
M 19.671875 64.796875 
L 19.671875 42.828125 
L 34.28125 42.828125 
Q 41.5 42.828125 45.03125 45.53125 
Q 48.578125 48.25 48.578125 53.8125 
Q 48.578125 59.328125 45.03125 62.0625 
Q 41.5 64.796875 34.28125 64.796875 
z
M 9.8125 72.90625 
L 35.015625 72.90625 
Q 46.296875 72.90625 52.390625 68.21875 
Q 58.5 63.53125 58.5 54.890625 
Q 58.5 48.1875 55.375 44.234375 
Q 52.25 40.28125 46.1875 39.3125 
Q 53.46875 37.75 57.5 32.78125 
Q 61.53125 27.828125 61.53125 20.40625 
Q 61.53125 10.640625 54.890625 5.3125 
Q 48.25 0 35.984375 0 
L 9.8125 0 
z
" id="DejaVuSans-66"/>
     <path d="M 54.890625 33.015625 
L 54.890625 0 
L 45.90625 0 
L 45.90625 32.71875 
Q 45.90625 40.484375 42.875 44.328125 
Q 39.84375 48.1875 33.796875 48.1875 
Q 26.515625 48.1875 22.3125 43.546875 
Q 18.109375 38.921875 18.109375 30.90625 
L 18.109375 0 
L 9.078125 0 
L 9.078125 54.6875 
L 18.109375 54.6875 
L 18.109375 46.1875 
Q 21.34375 51.125 25.703125 53.5625 
Q 30.078125 56 35.796875 56 
Q 45.21875 56 50.046875 50.171875 
Q 54.890625 44.34375 54.890625 33.015625 
z
" id="DejaVuSans-110"/>
     <path d="M 48.78125 52.59375 
L 48.78125 44.1875 
Q 44.96875 46.296875 41.140625 47.34375 
Q 37.3125 48.390625 33.40625 48.390625 
Q 24.65625 48.390625 19.8125 42.84375 
Q 14.984375 37.3125 14.984375 27.296875 
Q 14.984375 17.28125 19.8125 11.734375 
Q 24.65625 6.203125 33.40625 6.203125 
Q 37.3125 6.203125 41.140625 7.25 
Q 44.96875 8.296875 48.78125 10.40625 
L 48.78125 2.09375 
Q 45.015625 0.34375 40.984375 -0.53125 
Q 36.96875 -1.421875 32.421875 -1.421875 
Q 20.0625 -1.421875 12.78125 6.34375 
Q 5.515625 14.109375 5.515625 27.296875 
Q 5.515625 40.671875 12.859375 48.328125 
Q 20.21875 56 33.015625 56 
Q 37.15625 56 41.109375 55.140625 
Q 45.0625 54.296875 48.78125 52.59375 
z
" id="DejaVuSans-99"/>
     <path d="M 54.890625 33.015625 
L 54.890625 0 
L 45.90625 0 
L 45.90625 32.71875 
Q 45.90625 40.484375 42.875 44.328125 
Q 39.84375 48.1875 33.796875 48.1875 
Q 26.515625 48.1875 22.3125 43.546875 
Q 18.109375 38.921875 18.109375 30.90625 
L 18.109375 0 
L 9.078125 0 
L 9.078125 75.984375 
L 18.109375 75.984375 
L 18.109375 46.1875 
Q 21.34375 51.125 25.703125 53.5625 
Q 30.078125 56 35.796875 56 
Q 45.21875 56 50.046875 50.171875 
Q 54.890625 44.34375 54.890625 33.015625 
z
" id="DejaVuSans-104"/>
     <path d="M 41.109375 46.296875 
Q 39.59375 47.171875 37.8125 47.578125 
Q 36.03125 48 33.890625 48 
Q 26.265625 48 22.1875 43.046875 
Q 18.109375 38.09375 18.109375 28.8125 
L 18.109375 0 
L 9.078125 0 
L 9.078125 54.6875 
L 18.109375 54.6875 
L 18.109375 46.1875 
Q 20.953125 51.171875 25.484375 53.578125 
Q 30.03125 56 36.53125 56 
Q 37.453125 56 38.578125 55.875 
Q 39.703125 55.765625 41.0625 55.515625 
z
" id="DejaVuSans-114"/>
     <path d="M 9.078125 75.984375 
L 18.109375 75.984375 
L 18.109375 31.109375 
L 44.921875 54.6875 
L 56.390625 54.6875 
L 27.390625 29.109375 
L 57.625 0 
L 45.90625 0 
L 18.109375 26.703125 
L 18.109375 0 
L 9.078125 0 
z
" id="DejaVuSans-107"/>
     <path d="M 4.890625 31.390625 
L 31.203125 31.390625 
L 31.203125 23.390625 
L 4.890625 23.390625 
z
" id="DejaVuSans-45"/>
     <path d="M 53.515625 70.515625 
L 53.515625 60.890625 
Q 47.90625 63.578125 42.921875 64.890625 
Q 37.9375 66.21875 33.296875 66.21875 
Q 25.25 66.21875 20.875 63.09375 
Q 16.5 59.96875 16.5 54.203125 
Q 16.5 49.359375 19.40625 46.890625 
Q 22.3125 44.4375 30.421875 42.921875 
L 36.375 41.703125 
Q 47.40625 39.59375 52.65625 34.296875 
Q 57.90625 29 57.90625 20.125 
Q 57.90625 9.515625 50.796875 4.046875 
Q 43.703125 -1.421875 29.984375 -1.421875 
Q 24.8125 -1.421875 18.96875 -0.25 
Q 13.140625 0.921875 6.890625 3.21875 
L 6.890625 13.375 
Q 12.890625 10.015625 18.65625 8.296875 
Q 24.421875 6.59375 29.984375 6.59375 
Q 38.421875 6.59375 43.015625 9.90625 
Q 47.609375 13.234375 47.609375 19.390625 
Q 47.609375 24.75 44.3125 27.78125 
Q 41.015625 30.8125 33.5 32.328125 
L 27.484375 33.5 
Q 16.453125 35.6875 11.515625 40.375 
Q 6.59375 45.0625 6.59375 53.421875 
Q 6.59375 63.09375 13.40625 68.65625 
Q 20.21875 74.21875 32.171875 74.21875 
Q 37.3125 74.21875 42.625 73.28125 
Q 47.953125 72.359375 53.515625 70.515625 
z
" id="DejaVuSans-83"/>
     <path d="M 31.78125 34.625 
Q 24.75 34.625 20.71875 30.859375 
Q 16.703125 27.09375 16.703125 20.515625 
Q 16.703125 13.921875 20.71875 10.15625 
Q 24.75 6.390625 31.78125 6.390625 
Q 38.8125 6.390625 42.859375 10.171875 
Q 46.921875 13.96875 46.921875 20.515625 
Q 46.921875 27.09375 42.890625 30.859375 
Q 38.875 34.625 31.78125 34.625 
z
M 21.921875 38.8125 
Q 15.578125 40.375 12.03125 44.71875 
Q 8.5 49.078125 8.5 55.328125 
Q 8.5 64.0625 14.71875 69.140625 
Q 20.953125 74.21875 31.78125 74.21875 
Q 42.671875 74.21875 48.875 69.140625 
Q 55.078125 64.0625 55.078125 55.328125 
Q 55.078125 49.078125 51.53125 44.71875 
Q 48 40.375 41.703125 38.8125 
Q 48.828125 37.15625 52.796875 32.3125 
Q 56.78125 27.484375 56.78125 20.515625 
Q 56.78125 9.90625 50.3125 4.234375 
Q 43.84375 -1.421875 31.78125 -1.421875 
Q 19.734375 -1.421875 13.25 4.234375 
Q 6.78125 9.90625 6.78125 20.515625 
Q 6.78125 27.484375 10.78125 32.3125 
Q 14.796875 37.15625 21.921875 38.8125 
z
M 18.3125 54.390625 
Q 18.3125 48.734375 21.84375 45.5625 
Q 25.390625 42.390625 31.78125 42.390625 
Q 38.140625 42.390625 41.71875 45.5625 
Q 45.3125 48.734375 45.3125 54.390625 
Q 45.3125 60.0625 41.71875 63.234375 
Q 38.140625 66.40625 31.78125 66.40625 
Q 25.390625 66.40625 21.84375 63.234375 
Q 18.3125 60.0625 18.3125 54.390625 
z
" id="DejaVuSans-56"/>
     <path d="M 10.6875 12.40625 
L 21 12.40625 
L 21 0 
L 10.6875 0 
z
" id="DejaVuSans-46"/>
     <path d="M 2.984375 54.6875 
L 12.5 54.6875 
L 29.59375 8.796875 
L 46.6875 54.6875 
L 56.203125 54.6875 
L 35.6875 0 
L 23.484375 0 
z
" id="DejaVuSans-118"/>
    </defs>
    <g transform="translate(371.555625 45.84)scale(0.12 -0.12)">
     <use xlink:href="#DejaVuSans-65"/>
     <use x="68.408203" xlink:href="#DejaVuSans-51"/>
     <use x="132.03125" xlink:href="#DejaVuSans-66"/>
     <use x="200.634766" xlink:href="#DejaVuSans-101"/>
     <use x="262.158203" xlink:href="#DejaVuSans-110"/>
     <use x="325.537109" xlink:href="#DejaVuSans-99"/>
     <use x="380.517578" xlink:href="#DejaVuSans-104"/>
     <use x="443.896484" xlink:href="#DejaVuSans-109"/>
     <use x="541.308594" xlink:href="#DejaVuSans-97"/>
     <use x="602.587891" xlink:href="#DejaVuSans-114"/>
     <use x="643.701172" xlink:href="#DejaVuSans-107"/>
     <use x="701.611328" xlink:href="#DejaVuSans-45"/>
     <use x="737.554688" xlink:href="#DejaVuSans-84"/>
     <use x="798.638672" xlink:href="#DejaVuSans-83"/>
     <use x="862.115234" xlink:href="#DejaVuSans-56"/>
     <use x="925.738281" xlink:href="#DejaVuSans-50"/>
     <use x="989.361328" xlink:href="#DejaVuSans-46"/>
     <use x="1021.148438" xlink:href="#DejaVuSans-99"/>
     <use x="1076.128906" xlink:href="#DejaVuSans-115"/>
     <use x="1128.228516" xlink:href="#DejaVuSans-118"/>
    </g>
   </g>
   <g id="legend_1">
    <g id="patch_55">
     <path d="M 115 226.999062 
L 174.315625 226.999062 
Q 176.315625 226.999062 176.315625 224.999062 
L 176.315625 211.320937 
Q 176.315625 209.320937 174.315625 209.320937 
L 115 209.320937 
Q 113 209.320937 113 211.320937 
L 113 224.999062 
Q 113 226.999062 115 226.999062 
z
" style="fill:#ffffff;opacity:0.8;stroke:#cccccc;stroke-linejoin:miter;"/>
    </g>
    <g id="line2d_19">
     <path d="M 117 217.419375 
L 137 217.419375 
" style="fill:none;stroke:#1f77b4;stroke-linecap:square;stroke-width:1.5;"/>
    </g>
    <g id="line2d_20"/>
    <g id="text_20">
     <!-- value -->
     <g transform="translate(145 220.919375)scale(0.1 -0.1)">
      <use xlink:href="#DejaVuSans-118"/>
      <use x="59.179688" xlink:href="#DejaVuSans-97"/>
      <use x="120.458984" xlink:href="#DejaVuSans-108"/>
      <use x="148.242188" xlink:href="#DejaVuSans-117"/>
      <use x="211.621094" xlink:href="#DejaVuSans-101"/>
     </g>
    </g>
   </g>
  </g>
 </g>
 <defs>
  <clipPath id="pde0faecb6b">
   <rect height="332.64" width="669.6" x="108" y="51.84"/>
  </clipPath>
 </defs>
</svg>
