<?xml version="1.0" encoding="utf-8" standalone="no"?>
<!DOCTYPE svg PUBLIC "-//W3C//DTD SVG 1.1//EN"
  "http://www.w3.org/Graphics/SVG/1.1/DTD/svg11.dtd">
<!-- Created with matplotlib (https://matplotlib.org/) -->
<svg height="432pt" version="1.1" viewBox="0 0 864 432" width="864pt" xmlns="http://www.w3.org/2000/svg" xmlns:xlink="http://www.w3.org/1999/xlink">
 <defs>
  <style type="text/css">
*{stroke-linecap:butt;stroke-linejoin:round;}
  </style>
 </defs>
 <g id="figure_1">
  <g id="patch_1">
   <path d="M 0 432 
L 864 432 
L 864 0 
L 0 0 
z
" style="fill:#ffffff;"/>
  </g>
  <g id="axes_1">
   <g id="patch_2">
    <path d="M 108 384.48 
L 777.6 384.48 
L 777.6 51.84 
L 108 51.84 
z
" style="fill:#ffffff;"/>
   </g>
   <g id="patch_3">
    <path clip-path="url(#p5a3aa73a7b)" d="M 138.436364 384.48 
L 138.436364 51.84 
L 374.096118 51.84 
L 374.096118 384.48 
z
" style="fill:#0000ff;opacity:0.05;"/>
   </g>
   <g id="patch_4">
    <path clip-path="url(#p5a3aa73a7b)" d="M 374.096118 384.48 
L 374.096118 51.84 
L 745.713422 51.84 
L 745.713422 384.48 
z
" style="fill:#ff0000;opacity:0.08;"/>
   </g>
   <g id="patch_5">
    <path clip-path="url(#p5a3aa73a7b)" d="M 138.436364 384.48 
L 138.436364 51.84 
L 147.5002 51.84 
L 147.5002 384.48 
z
" style="fill:#008000;opacity:0.04;"/>
   </g>
   <g id="patch_6">
    <path clip-path="url(#p5a3aa73a7b)" d="M 156.564037 384.48 
L 156.564037 51.84 
L 165.627874 51.84 
L 165.627874 384.48 
z
" style="fill:#008000;opacity:0.04;"/>
   </g>
   <g id="patch_7">
    <path clip-path="url(#p5a3aa73a7b)" d="M 174.69171 384.48 
L 174.69171 51.84 
L 183.755547 51.84 
L 183.755547 384.48 
z
" style="fill:#008000;opacity:0.04;"/>
   </g>
   <g id="patch_8">
    <path clip-path="url(#p5a3aa73a7b)" d="M 183.755547 371.1744 
L 183.755547 51.84 
L 192.819384 51.84 
L 192.819384 371.1744 
z
" style="fill:#008000;opacity:0.5;"/>
   </g>
   <g id="patch_9">
    <path clip-path="url(#p5a3aa73a7b)" d="M 192.819384 384.48 
L 192.819384 51.84 
L 201.883221 51.84 
L 201.883221 384.48 
z
" style="fill:#008000;opacity:0.04;"/>
   </g>
   <g id="patch_10">
    <path clip-path="url(#p5a3aa73a7b)" d="M 210.947057 384.48 
L 210.947057 51.84 
L 220.010894 51.84 
L 220.010894 384.48 
z
" style="fill:#008000;opacity:0.04;"/>
   </g>
   <g id="patch_11">
    <path clip-path="url(#p5a3aa73a7b)" d="M 229.074731 384.48 
L 229.074731 51.84 
L 238.138567 51.84 
L 238.138567 384.48 
z
" style="fill:#008000;opacity:0.04;"/>
   </g>
   <g id="patch_12">
    <path clip-path="url(#p5a3aa73a7b)" d="M 247.202404 384.48 
L 247.202404 51.84 
L 256.266241 51.84 
L 256.266241 384.48 
z
" style="fill:#008000;opacity:0.04;"/>
   </g>
   <g id="patch_13">
    <path clip-path="url(#p5a3aa73a7b)" d="M 256.266241 371.1744 
L 256.266241 51.84 
L 265.330077 51.84 
L 265.330077 371.1744 
z
" style="fill:#008000;opacity:0.5;"/>
   </g>
   <g id="patch_14">
    <path clip-path="url(#p5a3aa73a7b)" d="M 256.266241 384.48 
L 256.266241 371.1744 
L 265.330077 371.1744 
L 265.330077 384.48 
z
" style="fill:#ffe500;"/>
   </g>
   <g id="patch_15">
    <path clip-path="url(#p5a3aa73a7b)" d="M 265.330077 384.48 
L 265.330077 51.84 
L 274.393914 51.84 
L 274.393914 384.48 
z
" style="fill:#008000;opacity:0.04;"/>
   </g>
   <g id="patch_16">
    <path clip-path="url(#p5a3aa73a7b)" d="M 274.393914 371.1744 
L 274.393914 51.84 
L 283.457751 51.84 
L 283.457751 371.1744 
z
" style="fill:#008000;opacity:0.5;"/>
   </g>
   <g id="patch_17">
    <path clip-path="url(#p5a3aa73a7b)" d="M 274.393914 384.48 
L 274.393914 371.1744 
L 283.457751 371.1744 
L 283.457751 384.48 
z
" style="fill:#ffe500;"/>
   </g>
   <g id="patch_18">
    <path clip-path="url(#p5a3aa73a7b)" d="M 283.457751 384.48 
L 283.457751 51.84 
L 292.521588 51.84 
L 292.521588 384.48 
z
" style="fill:#008000;opacity:0.04;"/>
   </g>
   <g id="patch_19">
    <path clip-path="url(#p5a3aa73a7b)" d="M 283.457751 371.1744 
L 283.457751 51.84 
L 292.521588 51.84 
L 292.521588 371.1744 
z
" style="fill:#008000;opacity:0.5;"/>
   </g>
   <g id="patch_20">
    <path clip-path="url(#p5a3aa73a7b)" d="M 301.585424 384.48 
L 301.585424 51.84 
L 310.649261 51.84 
L 310.649261 384.48 
z
" style="fill:#008000;opacity:0.04;"/>
   </g>
   <g id="patch_21">
    <path clip-path="url(#p5a3aa73a7b)" d="M 319.713098 384.48 
L 319.713098 51.84 
L 328.776934 51.84 
L 328.776934 384.48 
z
" style="fill:#008000;opacity:0.04;"/>
   </g>
   <g id="patch_22">
    <path clip-path="url(#p5a3aa73a7b)" d="M 337.840771 384.48 
L 337.840771 51.84 
L 346.904608 51.84 
L 346.904608 384.48 
z
" style="fill:#008000;opacity:0.04;"/>
   </g>
   <g id="patch_23">
    <path clip-path="url(#p5a3aa73a7b)" d="M 355.968444 384.48 
L 355.968444 51.84 
L 365.032281 51.84 
L 365.032281 384.48 
z
" style="fill:#008000;opacity:0.04;"/>
   </g>
   <g id="patch_24">
    <path clip-path="url(#p5a3aa73a7b)" d="M 355.968444 371.1744 
L 355.968444 51.84 
L 365.032281 51.84 
L 365.032281 371.1744 
z
" style="fill:#008000;opacity:0.5;"/>
   </g>
   <g id="patch_25">
    <path clip-path="url(#p5a3aa73a7b)" d="M 591.628199 384.48 
L 591.628199 371.1744 
L 600.692035 371.1744 
L 600.692035 384.48 
z
" style="fill:#ff6600;"/>
   </g>
   <g id="patch_26">
    <path clip-path="url(#p5a3aa73a7b)" d="M 374.096118 384.48 
L 374.096118 51.84 
L 383.159955 51.84 
L 383.159955 384.48 
z
" style="fill:#008000;opacity:0.04;"/>
   </g>
   <g id="patch_27">
    <path clip-path="url(#p5a3aa73a7b)" d="M 374.096118 371.1744 
L 374.096118 51.84 
L 383.159955 51.84 
L 383.159955 371.1744 
z
" style="fill:#008000;opacity:0.5;"/>
   </g>
   <g id="patch_28">
    <path clip-path="url(#p5a3aa73a7b)" d="M 392.223791 384.48 
L 392.223791 51.84 
L 401.287628 51.84 
L 401.287628 384.48 
z
" style="fill:#008000;opacity:0.04;"/>
   </g>
   <g id="patch_29">
    <path clip-path="url(#p5a3aa73a7b)" d="M 410.351465 384.48 
L 410.351465 51.84 
L 419.415301 51.84 
L 419.415301 384.48 
z
" style="fill:#008000;opacity:0.04;"/>
   </g>
   <g id="patch_30">
    <path clip-path="url(#p5a3aa73a7b)" d="M 428.479138 384.48 
L 428.479138 51.84 
L 437.542975 51.84 
L 437.542975 384.48 
z
" style="fill:#008000;opacity:0.04;"/>
   </g>
   <g id="patch_31">
    <path clip-path="url(#p5a3aa73a7b)" d="M 446.606811 384.48 
L 446.606811 51.84 
L 455.670648 51.84 
L 455.670648 384.48 
z
" style="fill:#008000;opacity:0.04;"/>
   </g>
   <g id="patch_32">
    <path clip-path="url(#p5a3aa73a7b)" d="M 464.734485 384.48 
L 464.734485 51.84 
L 473.798322 51.84 
L 473.798322 384.48 
z
" style="fill:#008000;opacity:0.04;"/>
   </g>
   <g id="patch_33">
    <path clip-path="url(#p5a3aa73a7b)" d="M 482.862158 384.48 
L 482.862158 51.84 
L 491.925995 51.84 
L 491.925995 384.48 
z
" style="fill:#008000;opacity:0.04;"/>
   </g>
   <g id="patch_34">
    <path clip-path="url(#p5a3aa73a7b)" d="M 491.925995 371.1744 
L 491.925995 51.84 
L 500.989832 51.84 
L 500.989832 371.1744 
z
" style="fill:#008000;opacity:0.5;"/>
   </g>
   <g id="patch_35">
    <path clip-path="url(#p5a3aa73a7b)" d="M 500.989832 384.48 
L 500.989832 51.84 
L 510.053668 51.84 
L 510.053668 384.48 
z
" style="fill:#008000;opacity:0.04;"/>
   </g>
   <g id="patch_36">
    <path clip-path="url(#p5a3aa73a7b)" d="M 519.117505 384.48 
L 519.117505 51.84 
L 528.181342 51.84 
L 528.181342 384.48 
z
" style="fill:#008000;opacity:0.04;"/>
   </g>
   <g id="patch_37">
    <path clip-path="url(#p5a3aa73a7b)" d="M 537.245178 384.48 
L 537.245178 51.84 
L 546.309015 51.84 
L 546.309015 384.48 
z
" style="fill:#008000;opacity:0.04;"/>
   </g>
   <g id="patch_38">
    <path clip-path="url(#p5a3aa73a7b)" d="M 555.372852 384.48 
L 555.372852 51.84 
L 564.436689 51.84 
L 564.436689 384.48 
z
" style="fill:#008000;opacity:0.04;"/>
   </g>
   <g id="patch_39">
    <path clip-path="url(#p5a3aa73a7b)" d="M 564.436689 371.1744 
L 564.436689 51.84 
L 573.500525 51.84 
L 573.500525 371.1744 
z
" style="fill:#008000;opacity:0.5;"/>
   </g>
   <g id="patch_40">
    <path clip-path="url(#p5a3aa73a7b)" d="M 573.500525 384.48 
L 573.500525 51.84 
L 582.564362 51.84 
L 582.564362 384.48 
z
" style="fill:#008000;opacity:0.04;"/>
   </g>
   <g id="patch_41">
    <path clip-path="url(#p5a3aa73a7b)" d="M 591.628199 384.48 
L 591.628199 51.84 
L 600.692035 51.84 
L 600.692035 384.48 
z
" style="fill:#008000;opacity:0.04;"/>
   </g>
   <g id="patch_42">
    <path clip-path="url(#p5a3aa73a7b)" d="M 591.628199 371.1744 
L 591.628199 51.84 
L 600.692035 51.84 
L 600.692035 371.1744 
z
" style="fill:#008000;opacity:0.5;"/>
   </g>
   <g id="patch_43">
    <path clip-path="url(#p5a3aa73a7b)" d="M 609.755872 384.48 
L 609.755872 51.84 
L 618.819709 51.84 
L 618.819709 384.48 
z
" style="fill:#008000;opacity:0.04;"/>
   </g>
   <g id="patch_44">
    <path clip-path="url(#p5a3aa73a7b)" d="M 627.883545 384.48 
L 627.883545 51.84 
L 636.947382 51.84 
L 636.947382 384.48 
z
" style="fill:#008000;opacity:0.04;"/>
   </g>
   <g id="patch_45">
    <path clip-path="url(#p5a3aa73a7b)" d="M 636.947382 371.1744 
L 636.947382 51.84 
L 646.011219 51.84 
L 646.011219 371.1744 
z
" style="fill:#008000;opacity:0.5;"/>
   </g>
   <g id="patch_46">
    <path clip-path="url(#p5a3aa73a7b)" d="M 646.011219 384.48 
L 646.011219 51.84 
L 655.075055 51.84 
L 655.075055 384.48 
z
" style="fill:#008000;opacity:0.04;"/>
   </g>
   <g id="patch_47">
    <path clip-path="url(#p5a3aa73a7b)" d="M 664.138892 384.48 
L 664.138892 51.84 
L 673.202729 51.84 
L 673.202729 384.48 
z
" style="fill:#008000;opacity:0.04;"/>
   </g>
   <g id="patch_48">
    <path clip-path="url(#p5a3aa73a7b)" d="M 682.266566 384.48 
L 682.266566 51.84 
L 691.330402 51.84 
L 691.330402 384.48 
z
" style="fill:#008000;opacity:0.04;"/>
   </g>
   <g id="patch_49">
    <path clip-path="url(#p5a3aa73a7b)" d="M 700.394239 384.48 
L 700.394239 51.84 
L 709.458076 51.84 
L 709.458076 384.48 
z
" style="fill:#008000;opacity:0.04;"/>
   </g>
   <g id="patch_50">
    <path clip-path="url(#p5a3aa73a7b)" d="M 718.521912 384.48 
L 718.521912 51.84 
L 727.585749 51.84 
L 727.585749 384.48 
z
" style="fill:#008000;opacity:0.04;"/>
   </g>
   <g id="patch_51">
    <path clip-path="url(#p5a3aa73a7b)" d="M 736.649586 384.48 
L 736.649586 51.84 
L 745.713422 51.84 
L 745.713422 384.48 
z
" style="fill:#008000;opacity:0.04;"/>
   </g>
   <g id="matplotlib.axis_1">
    <g id="xtick_1">
     <g id="line2d_1">
      <defs>
       <path d="M 0 0 
L 0 3.5 
" id="m7b61ca36e1" style="stroke:#000000;stroke-width:0.8;"/>
      </defs>
      <g>
       <use style="stroke:#000000;stroke-width:0.8;" x="138.436364" xlink:href="#m7b61ca36e1" y="384.48"/>
      </g>
     </g>
     <g id="text_1">
      <!-- 0 -->
      <defs>
       <path d="M 31.78125 66.40625 
Q 24.171875 66.40625 20.328125 58.90625 
Q 16.5 51.421875 16.5 36.375 
Q 16.5 21.390625 20.328125 13.890625 
Q 24.171875 6.390625 31.78125 6.390625 
Q 39.453125 6.390625 43.28125 13.890625 
Q 47.125 21.390625 47.125 36.375 
Q 47.125 51.421875 43.28125 58.90625 
Q 39.453125 66.40625 31.78125 66.40625 
z
M 31.78125 74.21875 
Q 44.046875 74.21875 50.515625 64.515625 
Q 56.984375 54.828125 56.984375 36.375 
Q 56.984375 17.96875 50.515625 8.265625 
Q 44.046875 -1.421875 31.78125 -1.421875 
Q 19.53125 -1.421875 13.0625 8.265625 
Q 6.59375 17.96875 6.59375 36.375 
Q 6.59375 54.828125 13.0625 64.515625 
Q 19.53125 74.21875 31.78125 74.21875 
z
" id="DejaVuSans-48"/>
      </defs>
      <g transform="translate(135.255114 399.078438)scale(0.1 -0.1)">
       <use xlink:href="#DejaVuSans-48"/>
      </g>
     </g>
    </g>
    <g id="xtick_2">
     <g id="line2d_2">
      <g>
       <use style="stroke:#000000;stroke-width:0.8;" x="229.074731" xlink:href="#m7b61ca36e1" y="384.48"/>
      </g>
     </g>
     <g id="text_2">
      <!-- 250 -->
      <defs>
       <path d="M 19.1875 8.296875 
L 53.609375 8.296875 
L 53.609375 0 
L 7.328125 0 
L 7.328125 8.296875 
Q 12.9375 14.109375 22.625 23.890625 
Q 32.328125 33.6875 34.8125 36.53125 
Q 39.546875 41.84375 41.421875 45.53125 
Q 43.3125 49.21875 43.3125 52.78125 
Q 43.3125 58.59375 39.234375 62.25 
Q 35.15625 65.921875 28.609375 65.921875 
Q 23.96875 65.921875 18.8125 64.3125 
Q 13.671875 62.703125 7.8125 59.421875 
L 7.8125 69.390625 
Q 13.765625 71.78125 18.9375 73 
Q 24.125 74.21875 28.421875 74.21875 
Q 39.75 74.21875 46.484375 68.546875 
Q 53.21875 62.890625 53.21875 53.421875 
Q 53.21875 48.921875 51.53125 44.890625 
Q 49.859375 40.875 45.40625 35.40625 
Q 44.1875 33.984375 37.640625 27.21875 
Q 31.109375 20.453125 19.1875 8.296875 
z
" id="DejaVuSans-50"/>
       <path d="M 10.796875 72.90625 
L 49.515625 72.90625 
L 49.515625 64.59375 
L 19.828125 64.59375 
L 19.828125 46.734375 
Q 21.96875 47.46875 24.109375 47.828125 
Q 26.265625 48.1875 28.421875 48.1875 
Q 40.625 48.1875 47.75 41.5 
Q 54.890625 34.8125 54.890625 23.390625 
Q 54.890625 11.625 47.5625 5.09375 
Q 40.234375 -1.421875 26.90625 -1.421875 
Q 22.3125 -1.421875 17.546875 -0.640625 
Q 12.796875 0.140625 7.71875 1.703125 
L 7.71875 11.625 
Q 12.109375 9.234375 16.796875 8.0625 
Q 21.484375 6.890625 26.703125 6.890625 
Q 35.15625 6.890625 40.078125 11.328125 
Q 45.015625 15.765625 45.015625 23.390625 
Q 45.015625 31 40.078125 35.4375 
Q 35.15625 39.890625 26.703125 39.890625 
Q 22.75 39.890625 18.8125 39.015625 
Q 14.890625 38.140625 10.796875 36.28125 
z
" id="DejaVuSans-53"/>
      </defs>
      <g transform="translate(219.530981 399.078438)scale(0.1 -0.1)">
       <use xlink:href="#DejaVuSans-50"/>
       <use x="63.623047" xlink:href="#DejaVuSans-53"/>
       <use x="127.246094" xlink:href="#DejaVuSans-48"/>
      </g>
     </g>
    </g>
    <g id="xtick_3">
     <g id="line2d_3">
      <g>
       <use style="stroke:#000000;stroke-width:0.8;" x="319.713098" xlink:href="#m7b61ca36e1" y="384.48"/>
      </g>
     </g>
     <g id="text_3">
      <!-- 500 -->
      <g transform="translate(310.169348 399.078438)scale(0.1 -0.1)">
       <use xlink:href="#DejaVuSans-53"/>
       <use x="63.623047" xlink:href="#DejaVuSans-48"/>
       <use x="127.246094" xlink:href="#DejaVuSans-48"/>
      </g>
     </g>
    </g>
    <g id="xtick_4">
     <g id="line2d_4">
      <g>
       <use style="stroke:#000000;stroke-width:0.8;" x="410.351465" xlink:href="#m7b61ca36e1" y="384.48"/>
      </g>
     </g>
     <g id="text_4">
      <!-- 750 -->
      <defs>
       <path d="M 8.203125 72.90625 
L 55.078125 72.90625 
L 55.078125 68.703125 
L 28.609375 0 
L 18.3125 0 
L 43.21875 64.59375 
L 8.203125 64.59375 
z
" id="DejaVuSans-55"/>
      </defs>
      <g transform="translate(400.807715 399.078438)scale(0.1 -0.1)">
       <use xlink:href="#DejaVuSans-55"/>
       <use x="63.623047" xlink:href="#DejaVuSans-53"/>
       <use x="127.246094" xlink:href="#DejaVuSans-48"/>
      </g>
     </g>
    </g>
    <g id="xtick_5">
     <g id="line2d_5">
      <g>
       <use style="stroke:#000000;stroke-width:0.8;" x="500.989832" xlink:href="#m7b61ca36e1" y="384.48"/>
      </g>
     </g>
     <g id="text_5">
      <!-- 1000 -->
      <defs>
       <path d="M 12.40625 8.296875 
L 28.515625 8.296875 
L 28.515625 63.921875 
L 10.984375 60.40625 
L 10.984375 69.390625 
L 28.421875 72.90625 
L 38.28125 72.90625 
L 38.28125 8.296875 
L 54.390625 8.296875 
L 54.390625 0 
L 12.40625 0 
z
" id="DejaVuSans-49"/>
      </defs>
      <g transform="translate(488.264832 399.078438)scale(0.1 -0.1)">
       <use xlink:href="#DejaVuSans-49"/>
       <use x="63.623047" xlink:href="#DejaVuSans-48"/>
       <use x="127.246094" xlink:href="#DejaVuSans-48"/>
       <use x="190.869141" xlink:href="#DejaVuSans-48"/>
      </g>
     </g>
    </g>
    <g id="xtick_6">
     <g id="line2d_6">
      <g>
       <use style="stroke:#000000;stroke-width:0.8;" x="591.628199" xlink:href="#m7b61ca36e1" y="384.48"/>
      </g>
     </g>
     <g id="text_6">
      <!-- 1250 -->
      <g transform="translate(578.903199 399.078438)scale(0.1 -0.1)">
       <use xlink:href="#DejaVuSans-49"/>
       <use x="63.623047" xlink:href="#DejaVuSans-50"/>
       <use x="127.246094" xlink:href="#DejaVuSans-53"/>
       <use x="190.869141" xlink:href="#DejaVuSans-48"/>
      </g>
     </g>
    </g>
    <g id="xtick_7">
     <g id="line2d_7">
      <g>
       <use style="stroke:#000000;stroke-width:0.8;" x="682.266566" xlink:href="#m7b61ca36e1" y="384.48"/>
      </g>
     </g>
     <g id="text_7">
      <!-- 1500 -->
      <g transform="translate(669.541566 399.078438)scale(0.1 -0.1)">
       <use xlink:href="#DejaVuSans-49"/>
       <use x="63.623047" xlink:href="#DejaVuSans-53"/>
       <use x="127.246094" xlink:href="#DejaVuSans-48"/>
       <use x="190.869141" xlink:href="#DejaVuSans-48"/>
      </g>
     </g>
    </g>
    <g id="xtick_8">
     <g id="line2d_8">
      <g>
       <use style="stroke:#000000;stroke-width:0.8;" x="772.904933" xlink:href="#m7b61ca36e1" y="384.48"/>
      </g>
     </g>
     <g id="text_8">
      <!-- 1750 -->
      <g transform="translate(760.179933 399.078438)scale(0.1 -0.1)">
       <use xlink:href="#DejaVuSans-49"/>
       <use x="63.623047" xlink:href="#DejaVuSans-55"/>
       <use x="127.246094" xlink:href="#DejaVuSans-53"/>
       <use x="190.869141" xlink:href="#DejaVuSans-48"/>
      </g>
     </g>
    </g>
    <g id="text_9">
     <!-- Timestamp -->
     <defs>
      <path d="M -0.296875 72.90625 
L 61.375 72.90625 
L 61.375 64.59375 
L 35.5 64.59375 
L 35.5 0 
L 25.59375 0 
L 25.59375 64.59375 
L -0.296875 64.59375 
z
" id="DejaVuSans-84"/>
      <path d="M 9.421875 54.6875 
L 18.40625 54.6875 
L 18.40625 0 
L 9.421875 0 
z
M 9.421875 75.984375 
L 18.40625 75.984375 
L 18.40625 64.59375 
L 9.421875 64.59375 
z
" id="DejaVuSans-105"/>
      <path d="M 52 44.1875 
Q 55.375 50.25 60.0625 53.125 
Q 64.75 56 71.09375 56 
Q 79.640625 56 84.28125 50.015625 
Q 88.921875 44.046875 88.921875 33.015625 
L 88.921875 0 
L 79.890625 0 
L 79.890625 32.71875 
Q 79.890625 40.578125 77.09375 44.375 
Q 74.3125 48.1875 68.609375 48.1875 
Q 61.625 48.1875 57.5625 43.546875 
Q 53.515625 38.921875 53.515625 30.90625 
L 53.515625 0 
L 44.484375 0 
L 44.484375 32.71875 
Q 44.484375 40.625 41.703125 44.40625 
Q 38.921875 48.1875 33.109375 48.1875 
Q 26.21875 48.1875 22.15625 43.53125 
Q 18.109375 38.875 18.109375 30.90625 
L 18.109375 0 
L 9.078125 0 
L 9.078125 54.6875 
L 18.109375 54.6875 
L 18.109375 46.1875 
Q 21.1875 51.21875 25.484375 53.609375 
Q 29.78125 56 35.6875 56 
Q 41.65625 56 45.828125 52.96875 
Q 50 49.953125 52 44.1875 
z
" id="DejaVuSans-109"/>
      <path d="M 56.203125 29.59375 
L 56.203125 25.203125 
L 14.890625 25.203125 
Q 15.484375 15.921875 20.484375 11.0625 
Q 25.484375 6.203125 34.421875 6.203125 
Q 39.59375 6.203125 44.453125 7.46875 
Q 49.3125 8.734375 54.109375 11.28125 
L 54.109375 2.78125 
Q 49.265625 0.734375 44.1875 -0.34375 
Q 39.109375 -1.421875 33.890625 -1.421875 
Q 20.796875 -1.421875 13.15625 6.1875 
Q 5.515625 13.8125 5.515625 26.8125 
Q 5.515625 40.234375 12.765625 48.109375 
Q 20.015625 56 32.328125 56 
Q 43.359375 56 49.78125 48.890625 
Q 56.203125 41.796875 56.203125 29.59375 
z
M 47.21875 32.234375 
Q 47.125 39.59375 43.09375 43.984375 
Q 39.0625 48.390625 32.421875 48.390625 
Q 24.90625 48.390625 20.390625 44.140625 
Q 15.875 39.890625 15.1875 32.171875 
z
" id="DejaVuSans-101"/>
      <path d="M 44.28125 53.078125 
L 44.28125 44.578125 
Q 40.484375 46.53125 36.375 47.5 
Q 32.28125 48.484375 27.875 48.484375 
Q 21.1875 48.484375 17.84375 46.4375 
Q 14.5 44.390625 14.5 40.28125 
Q 14.5 37.15625 16.890625 35.375 
Q 19.28125 33.59375 26.515625 31.984375 
L 29.59375 31.296875 
Q 39.15625 29.25 43.1875 25.515625 
Q 47.21875 21.78125 47.21875 15.09375 
Q 47.21875 7.46875 41.1875 3.015625 
Q 35.15625 -1.421875 24.609375 -1.421875 
Q 20.21875 -1.421875 15.453125 -0.5625 
Q 10.6875 0.296875 5.421875 2 
L 5.421875 11.28125 
Q 10.40625 8.6875 15.234375 7.390625 
Q 20.0625 6.109375 24.8125 6.109375 
Q 31.15625 6.109375 34.5625 8.28125 
Q 37.984375 10.453125 37.984375 14.40625 
Q 37.984375 18.0625 35.515625 20.015625 
Q 33.0625 21.96875 24.703125 23.78125 
L 21.578125 24.515625 
Q 13.234375 26.265625 9.515625 29.90625 
Q 5.8125 33.546875 5.8125 39.890625 
Q 5.8125 47.609375 11.28125 51.796875 
Q 16.75 56 26.8125 56 
Q 31.78125 56 36.171875 55.265625 
Q 40.578125 54.546875 44.28125 53.078125 
z
" id="DejaVuSans-115"/>
      <path d="M 18.3125 70.21875 
L 18.3125 54.6875 
L 36.8125 54.6875 
L 36.8125 47.703125 
L 18.3125 47.703125 
L 18.3125 18.015625 
Q 18.3125 11.328125 20.140625 9.421875 
Q 21.96875 7.515625 27.59375 7.515625 
L 36.8125 7.515625 
L 36.8125 0 
L 27.59375 0 
Q 17.1875 0 13.234375 3.875 
Q 9.28125 7.765625 9.28125 18.015625 
L 9.28125 47.703125 
L 2.6875 47.703125 
L 2.6875 54.6875 
L 9.28125 54.6875 
L 9.28125 70.21875 
z
" id="DejaVuSans-116"/>
      <path d="M 34.28125 27.484375 
Q 23.390625 27.484375 19.1875 25 
Q 14.984375 22.515625 14.984375 16.5 
Q 14.984375 11.71875 18.140625 8.90625 
Q 21.296875 6.109375 26.703125 6.109375 
Q 34.1875 6.109375 38.703125 11.40625 
Q 43.21875 16.703125 43.21875 25.484375 
L 43.21875 27.484375 
z
M 52.203125 31.203125 
L 52.203125 0 
L 43.21875 0 
L 43.21875 8.296875 
Q 40.140625 3.328125 35.546875 0.953125 
Q 30.953125 -1.421875 24.3125 -1.421875 
Q 15.921875 -1.421875 10.953125 3.296875 
Q 6 8.015625 6 15.921875 
Q 6 25.140625 12.171875 29.828125 
Q 18.359375 34.515625 30.609375 34.515625 
L 43.21875 34.515625 
L 43.21875 35.40625 
Q 43.21875 41.609375 39.140625 45 
Q 35.0625 48.390625 27.6875 48.390625 
Q 23 48.390625 18.546875 47.265625 
Q 14.109375 46.140625 10.015625 43.890625 
L 10.015625 52.203125 
Q 14.9375 54.109375 19.578125 55.046875 
Q 24.21875 56 28.609375 56 
Q 40.484375 56 46.34375 49.84375 
Q 52.203125 43.703125 52.203125 31.203125 
z
" id="DejaVuSans-97"/>
      <path d="M 18.109375 8.203125 
L 18.109375 -20.796875 
L 9.078125 -20.796875 
L 9.078125 54.6875 
L 18.109375 54.6875 
L 18.109375 46.390625 
Q 20.953125 51.265625 25.265625 53.625 
Q 29.59375 56 35.59375 56 
Q 45.5625 56 51.78125 48.09375 
Q 58.015625 40.1875 58.015625 27.296875 
Q 58.015625 14.40625 51.78125 6.484375 
Q 45.5625 -1.421875 35.59375 -1.421875 
Q 29.59375 -1.421875 25.265625 0.953125 
Q 20.953125 3.328125 18.109375 8.203125 
z
M 48.6875 27.296875 
Q 48.6875 37.203125 44.609375 42.84375 
Q 40.53125 48.484375 33.40625 48.484375 
Q 26.265625 48.484375 22.1875 42.84375 
Q 18.109375 37.203125 18.109375 27.296875 
Q 18.109375 17.390625 22.1875 11.75 
Q 26.265625 6.109375 33.40625 6.109375 
Q 40.53125 6.109375 44.609375 11.75 
Q 48.6875 17.390625 48.6875 27.296875 
z
" id="DejaVuSans-112"/>
     </defs>
     <g transform="translate(414.739062 412.756563)scale(0.1 -0.1)">
      <use xlink:href="#DejaVuSans-84"/>
      <use x="61.037109" xlink:href="#DejaVuSans-105"/>
      <use x="88.820312" xlink:href="#DejaVuSans-109"/>
      <use x="186.232422" xlink:href="#DejaVuSans-101"/>
      <use x="247.755859" xlink:href="#DejaVuSans-115"/>
      <use x="299.855469" xlink:href="#DejaVuSans-116"/>
      <use x="339.064453" xlink:href="#DejaVuSans-97"/>
      <use x="400.34375" xlink:href="#DejaVuSans-109"/>
      <use x="497.755859" xlink:href="#DejaVuSans-112"/>
     </g>
    </g>
   </g>
   <g id="matplotlib.axis_2">
    <g id="ytick_1">
     <g id="line2d_9">
      <defs>
       <path d="M 0 0 
L -3.5 0 
" id="me3ff51df8d" style="stroke:#000000;stroke-width:0.8;"/>
      </defs>
      <g>
       <use style="stroke:#000000;stroke-width:0.8;" x="108" xlink:href="#me3ff51df8d" y="383.919583"/>
      </g>
     </g>
     <g id="text_10">
      <!-- −300 -->
      <defs>
       <path d="M 10.59375 35.5 
L 73.1875 35.5 
L 73.1875 27.203125 
L 10.59375 27.203125 
z
" id="DejaVuSans-8722"/>
       <path d="M 40.578125 39.3125 
Q 47.65625 37.796875 51.625 33 
Q 55.609375 28.21875 55.609375 21.1875 
Q 55.609375 10.40625 48.1875 4.484375 
Q 40.765625 -1.421875 27.09375 -1.421875 
Q 22.515625 -1.421875 17.65625 -0.515625 
Q 12.796875 0.390625 7.625 2.203125 
L 7.625 11.71875 
Q 11.71875 9.328125 16.59375 8.109375 
Q 21.484375 6.890625 26.8125 6.890625 
Q 36.078125 6.890625 40.9375 10.546875 
Q 45.796875 14.203125 45.796875 21.1875 
Q 45.796875 27.640625 41.28125 31.265625 
Q 36.765625 34.90625 28.71875 34.90625 
L 20.21875 34.90625 
L 20.21875 43.015625 
L 29.109375 43.015625 
Q 36.375 43.015625 40.234375 45.921875 
Q 44.09375 48.828125 44.09375 54.296875 
Q 44.09375 59.90625 40.109375 62.90625 
Q 36.140625 65.921875 28.71875 65.921875 
Q 24.65625 65.921875 20.015625 65.03125 
Q 15.375 64.15625 9.8125 62.3125 
L 9.8125 71.09375 
Q 15.4375 72.65625 20.34375 73.4375 
Q 25.25 74.21875 29.59375 74.21875 
Q 40.828125 74.21875 47.359375 69.109375 
Q 53.90625 64.015625 53.90625 55.328125 
Q 53.90625 49.265625 50.4375 45.09375 
Q 46.96875 40.921875 40.578125 39.3125 
z
" id="DejaVuSans-51"/>
      </defs>
      <g transform="translate(73.532813 387.718802)scale(0.1 -0.1)">
       <use xlink:href="#DejaVuSans-8722"/>
       <use x="83.789062" xlink:href="#DejaVuSans-51"/>
       <use x="147.412109" xlink:href="#DejaVuSans-48"/>
       <use x="211.035156" xlink:href="#DejaVuSans-48"/>
      </g>
     </g>
    </g>
    <g id="ytick_2">
     <g id="line2d_10">
      <g>
       <use style="stroke:#000000;stroke-width:0.8;" x="108" xlink:href="#me3ff51df8d" y="338.300611"/>
      </g>
     </g>
     <g id="text_11">
      <!-- −200 -->
      <g transform="translate(73.532813 342.09983)scale(0.1 -0.1)">
       <use xlink:href="#DejaVuSans-8722"/>
       <use x="83.789062" xlink:href="#DejaVuSans-50"/>
       <use x="147.412109" xlink:href="#DejaVuSans-48"/>
       <use x="211.035156" xlink:href="#DejaVuSans-48"/>
      </g>
     </g>
    </g>
    <g id="ytick_3">
     <g id="line2d_11">
      <g>
       <use style="stroke:#000000;stroke-width:0.8;" x="108" xlink:href="#me3ff51df8d" y="292.68164"/>
      </g>
     </g>
     <g id="text_12">
      <!-- −100 -->
      <g transform="translate(73.532813 296.480859)scale(0.1 -0.1)">
       <use xlink:href="#DejaVuSans-8722"/>
       <use x="83.789062" xlink:href="#DejaVuSans-49"/>
       <use x="147.412109" xlink:href="#DejaVuSans-48"/>
       <use x="211.035156" xlink:href="#DejaVuSans-48"/>
      </g>
     </g>
    </g>
    <g id="ytick_4">
     <g id="line2d_12">
      <g>
       <use style="stroke:#000000;stroke-width:0.8;" x="108" xlink:href="#me3ff51df8d" y="247.062668"/>
      </g>
     </g>
     <g id="text_13">
      <!-- 0 -->
      <g transform="translate(94.6375 250.861887)scale(0.1 -0.1)">
       <use xlink:href="#DejaVuSans-48"/>
      </g>
     </g>
    </g>
    <g id="ytick_5">
     <g id="line2d_13">
      <g>
       <use style="stroke:#000000;stroke-width:0.8;" x="108" xlink:href="#me3ff51df8d" y="201.443697"/>
      </g>
     </g>
     <g id="text_14">
      <!-- 100 -->
      <g transform="translate(81.9125 205.242916)scale(0.1 -0.1)">
       <use xlink:href="#DejaVuSans-49"/>
       <use x="63.623047" xlink:href="#DejaVuSans-48"/>
       <use x="127.246094" xlink:href="#DejaVuSans-48"/>
      </g>
     </g>
    </g>
    <g id="ytick_6">
     <g id="line2d_14">
      <g>
       <use style="stroke:#000000;stroke-width:0.8;" x="108" xlink:href="#me3ff51df8d" y="155.824725"/>
      </g>
     </g>
     <g id="text_15">
      <!-- 200 -->
      <g transform="translate(81.9125 159.623944)scale(0.1 -0.1)">
       <use xlink:href="#DejaVuSans-50"/>
       <use x="63.623047" xlink:href="#DejaVuSans-48"/>
       <use x="127.246094" xlink:href="#DejaVuSans-48"/>
      </g>
     </g>
    </g>
    <g id="ytick_7">
     <g id="line2d_15">
      <g>
       <use style="stroke:#000000;stroke-width:0.8;" x="108" xlink:href="#me3ff51df8d" y="110.205754"/>
      </g>
     </g>
     <g id="text_16">
      <!-- 300 -->
      <g transform="translate(81.9125 114.004973)scale(0.1 -0.1)">
       <use xlink:href="#DejaVuSans-51"/>
       <use x="63.623047" xlink:href="#DejaVuSans-48"/>
       <use x="127.246094" xlink:href="#DejaVuSans-48"/>
      </g>
     </g>
    </g>
    <g id="ytick_8">
     <g id="line2d_16">
      <g>
       <use style="stroke:#000000;stroke-width:0.8;" x="108" xlink:href="#me3ff51df8d" y="64.586782"/>
      </g>
     </g>
     <g id="text_17">
      <!-- 400 -->
      <defs>
       <path d="M 37.796875 64.3125 
L 12.890625 25.390625 
L 37.796875 25.390625 
z
M 35.203125 72.90625 
L 47.609375 72.90625 
L 47.609375 25.390625 
L 58.015625 25.390625 
L 58.015625 17.1875 
L 47.609375 17.1875 
L 47.609375 0 
L 37.796875 0 
L 37.796875 17.1875 
L 4.890625 17.1875 
L 4.890625 26.703125 
z
" id="DejaVuSans-52"/>
      </defs>
      <g transform="translate(81.9125 68.386001)scale(0.1 -0.1)">
       <use xlink:href="#DejaVuSans-52"/>
       <use x="63.623047" xlink:href="#DejaVuSans-48"/>
       <use x="127.246094" xlink:href="#DejaVuSans-48"/>
      </g>
     </g>
    </g>
    <g id="text_18">
     <!-- Value -->
     <defs>
      <path d="M 28.609375 0 
L 0.78125 72.90625 
L 11.078125 72.90625 
L 34.1875 11.53125 
L 57.328125 72.90625 
L 67.578125 72.90625 
L 39.796875 0 
z
" id="DejaVuSans-86"/>
      <path d="M 9.421875 75.984375 
L 18.40625 75.984375 
L 18.40625 0 
L 9.421875 0 
z
" id="DejaVuSans-108"/>
      <path d="M 8.5 21.578125 
L 8.5 54.6875 
L 17.484375 54.6875 
L 17.484375 21.921875 
Q 17.484375 14.15625 20.5 10.265625 
Q 23.53125 6.390625 29.59375 6.390625 
Q 36.859375 6.390625 41.078125 11.03125 
Q 45.3125 15.671875 45.3125 23.6875 
L 45.3125 54.6875 
L 54.296875 54.6875 
L 54.296875 0 
L 45.3125 0 
L 45.3125 8.40625 
Q 42.046875 3.421875 37.71875 1 
Q 33.40625 -1.421875 27.6875 -1.421875 
Q 18.265625 -1.421875 13.375 4.4375 
Q 8.5 10.296875 8.5 21.578125 
z
M 31.109375 56 
z
" id="DejaVuSans-117"/>
     </defs>
     <g transform="translate(67.453125 232.273281)rotate(-90)scale(0.1 -0.1)">
      <use xlink:href="#DejaVuSans-86"/>
      <use x="68.298828" xlink:href="#DejaVuSans-97"/>
      <use x="129.578125" xlink:href="#DejaVuSans-108"/>
      <use x="157.361328" xlink:href="#DejaVuSans-117"/>
      <use x="220.740234" xlink:href="#DejaVuSans-101"/>
     </g>
    </g>
   </g>
   <g id="line2d_17">
    <path clip-path="url(#p5a3aa73a7b)" d="M 138.436364 244.111093 
L 139.524024 149.10879 
L 139.886578 155.051103 
L 140.249131 168.595372 
L 141.336791 272.084052 
L 141.699345 273.107486 
L 142.061898 259.05619 
L 142.424452 262.113049 
L 142.787005 233.974793 
L 143.512112 194.376322 
L 143.874666 195.987327 
L 144.237219 204.890974 
L 144.962326 269.582749 
L 145.687433 319.973776 
L 146.049986 310.753682 
L 146.41254 295.775203 
L 147.137647 229.689729 
L 147.862754 149.623213 
L 148.225307 139.709698 
L 148.587861 136.022175 
L 148.950414 151.861299 
L 149.312968 180.564903 
L 149.675521 221.781142 
L 150.038075 244.282335 
L 150.400628 254.797424 
L 150.763182 257.214283 
L 151.488288 213.683272 
L 151.850842 211.812096 
L 152.213395 178.858048 
L 152.938502 197.299886 
L 153.663609 256.328885 
L 154.388716 315.061974 
L 154.75127 307.455173 
L 155.113823 296.618322 
L 155.476377 264.181168 
L 156.201484 180.322688 
L 156.564037 147.096087 
L 156.926591 138.339362 
L 157.289144 136.080861 
L 158.014251 182.502806 
L 158.739358 242.569472 
L 159.101911 257.136647 
L 159.464465 254.825751 
L 160.914679 200.672591 
L 161.277232 191.08576 
L 162.002339 239.165306 
L 162.727446 303.374098 
L 163.089999 321.158852 
L 163.452553 330.33165 
L 163.815106 307.201221 
L 165.26532 151.641852 
L 165.627874 157.041551 
L 165.990427 146.006646 
L 166.352981 182.482979 
L 166.715534 199.228348 
L 167.078088 234.960608 
L 167.440641 259.227055 
L 168.165748 279.198797 
L 168.528301 266.987281 
L 168.890855 246.455748 
L 169.615962 223.104795 
L 169.978515 216.914642 
L 170.341069 228.093851 
L 171.791283 336.802506 
L 172.153836 346.255778 
L 172.51639 326.880489 
L 173.966603 182.10805 
L 174.329157 174.962705 
L 174.69171 180.145165 
L 175.416817 217.608543 
L 175.779371 268.926834 
L 176.141924 275.826634 
L 176.504478 299.367876 
L 176.867031 299.419144 
L 177.592138 271.918296 
L 177.954692 246.09875 
L 178.317245 237.07051 
L 178.679799 236.848207 
L 179.042352 251.009319 
L 180.130012 340.555843 
L 180.492566 355.123481 
L 180.855119 357.844203 
L 181.217673 346.60219 
L 181.580226 317.06392 
L 182.305333 223.988607 
L 182.667887 200.900353 
L 183.03044 190.685969 
L 183.392994 184.031138 
L 183.755547 191.610082 
L 184.118101 234.244015 
L 184.480654 258.485949 
L 184.843208 301.149948 
L 185.205761 302.258922 
L 185.568314 304.095514 
L 186.293421 276.422508 
L 187.018528 236.854003 
L 187.381082 240.643293 
L 188.468742 310.591619 
L 188.831296 347.054422 
L 189.193849 357.839871 
L 189.556403 361.631514 
L 190.28151 314.232503 
L 191.006616 225.146592 
L 191.36917 191.167981 
L 191.731723 183.505255 
L 192.094277 181.988857 
L 192.45683 330.283956 
L 192.819384 230.460144 
L 193.181937 259.438001 
L 193.544491 273.73782 
L 193.907044 306.92344 
L 194.269598 296.359964 
L 194.632151 290.488015 
L 194.994705 255.223528 
L 195.719812 223.989599 
L 196.082365 221.402452 
L 196.444919 236.212216 
L 197.170025 299.112599 
L 197.532579 315.434376 
L 197.895132 339.107919 
L 198.257686 343.158012 
L 198.620239 322.69546 
L 198.982793 290.798154 
L 199.7079 197.151925 
L 200.433007 155.880703 
L 200.79556 161.791801 
L 201.158114 175.807067 
L 201.883221 229.694376 
L 202.608327 266.962682 
L 202.970881 273.691696 
L 203.333434 265.155565 
L 204.058541 213.829042 
L 204.421095 202.639441 
L 204.783648 199.785519 
L 205.146202 209.865395 
L 205.508755 237.189731 
L 205.871309 275.527712 
L 206.233862 296.122913 
L 206.958969 321.284401 
L 207.684076 267.321209 
L 208.771736 152.594365 
L 209.13429 130.227885 
L 209.496843 135.622953 
L 209.859397 150.577907 
L 210.22195 177.536361 
L 210.584504 218.578939 
L 210.947057 246.147807 
L 211.309611 252.886012 
L 211.672164 256.038108 
L 212.034718 246.232213 
L 212.759825 199.679538 
L 213.484932 182.169068 
L 214.572592 261.836103 
L 215.297699 314.519065 
L 215.660252 306.291536 
L 216.022806 302.017814 
L 216.385359 254.93437 
L 216.747913 223.672327 
L 217.47302 142.369379 
L 217.835573 129.93312 
L 218.198127 123.375697 
L 219.64834 244.496672 
L 220.010894 258.875961 
L 220.373447 265.714697 
L 220.736001 239.718424 
L 221.098554 226.370106 
L 221.461108 220.287545 
L 221.823661 187.652083 
L 222.186215 189.007342 
L 222.548768 206.087869 
L 222.911322 240.623254 
L 223.273875 258.754635 
L 223.636429 306.786863 
L 223.998982 311.029459 
L 224.361536 318.739554 
L 224.724089 300.90749 
L 225.086642 274.935106 
L 225.811749 192.152691 
L 226.536856 143.419708 
L 226.89941 159.605203 
L 227.261963 168.746782 
L 228.349624 266.156451 
L 229.074731 283.447664 
L 229.437284 257.644784 
L 230.162391 229.176349 
L 230.524945 212.908651 
L 230.887498 216.296066 
L 231.612605 258.038845 
L 232.337712 325.209858 
L 232.700265 345.184402 
L 233.425372 324.358971 
L 233.787926 302.160273 
L 234.875586 185.734788 
L 235.23814 172.927068 
L 235.600693 178.574438 
L 235.963247 197.309735 
L 237.050907 285.554419 
L 237.41346 304.009511 
L 237.776014 301.287838 
L 238.501121 268.315663 
L 239.226228 232.0726 
L 239.588781 234.753892 
L 239.951335 243.782833 
L 240.676442 310.014652 
L 241.038995 338.063421 
L 241.401549 357.186258 
L 241.764102 354.463002 
L 242.126655 340.879933 
L 242.489209 316.484735 
L 243.576869 190.829888 
L 243.939423 178.708038 
L 244.301976 187.448061 
L 245.027083 232.165907 
L 245.389637 278.036227 
L 246.114744 306.258105 
L 246.477297 303.764939 
L 246.839851 297.293245 
L 247.202404 278.906305 
L 247.564957 254.397358 
L 247.927511 242.4605 
L 248.290064 243.007548 
L 248.652618 250.048981 
L 249.015171 272.817879 
L 249.740278 340.922179 
L 250.102832 352.550256 
L 250.465385 359.341718 
L 250.827939 342.617266 
L 251.553046 273.214938 
L 251.915599 218.596286 
L 252.640706 168.173142 
L 253.365813 200.439568 
L 253.728366 222.809325 
L 254.09092 260.858315 
L 254.453473 283.68153 
L 254.816027 290.532434 
L 255.17858 295.190865 
L 255.903687 267.877575 
L 256.266241 233.188774 
L 256.628794 218.405697 
L 256.991348 220.481157 
L 257.353901 233.490877 
L 258.079008 297.914831 
L 258.441562 320.217666 
L 258.804115 333.550601 
L 259.166668 337.554702 
L 259.529222 321.986776 
L 260.979436 167.567748 
L 261.341989 154.113777 
L 261.704543 159.492163 
L 262.067096 175.28468 
L 262.42965 66.96 
L 262.792203 235.008481 
L 263.154757 261.036545 
L 263.879864 276.476128 
L 264.242417 260.301399 
L 265.330077 190.288394 
L 265.692631 195.218691 
L 266.417738 240.28097 
L 267.142845 302.202717 
L 267.505398 310.132455 
L 267.867952 323.846455 
L 268.230505 300.530286 
L 268.593059 269.604557 
L 269.318166 193.055007 
L 269.680719 150.721894 
L 270.043273 137.735646 
L 270.405826 138.629711 
L 270.768379 147.706241 
L 271.85604 243.387534 
L 272.218593 252.743364 
L 272.581147 245.762434 
L 272.9437 241.640122 
L 273.306254 221.203074 
L 273.668807 191.297967 
L 274.393914 188.146526 
L 274.756468 195.554466 
L 275.844128 283.744876 
L 276.206681 304.852258 
L 276.569235 318.397249 
L 277.294342 263.965658 
L 278.019449 172.965854 
L 278.382002 152.232476 
L 278.744556 140.194848 
L 279.107109 139.467881 
L 279.469663 146.134744 
L 279.832216 187.584843 
L 280.557323 245.164048 
L 280.919877 258.484698 
L 281.28243 258.298607 
L 281.644983 254.141164 
L 282.007537 220.525502 
L 282.37009 71.568157 
L 282.732644 192.508535 
L 283.095197 194.81818 
L 283.457751 209.431486 
L 284.545411 297.992491 
L 284.907965 312.59374 
L 285.270518 317.274347 
L 285.633072 314.572757 
L 286.720732 199.46377 
L 287.083286 161.087449 
L 287.445839 145.060729 
L 287.808392 155.33429 
L 288.170946 169.45287 
L 288.533499 192.497066 
L 288.896053 240.622056 
L 289.258606 252.547929 
L 289.62116 281.134539 
L 289.983713 282.611461 
L 290.346267 269.607763 
L 290.70882 241.405575 
L 291.071374 229.349118 
L 291.433927 350.576089 
L 291.796481 220.622087 
L 292.159034 228.773107 
L 293.246694 324.503637 
L 293.609248 333.963666 
L 293.971801 346.784058 
L 294.696908 302.090777 
L 295.059462 270.492341 
L 295.422015 217.660919 
L 296.147122 168.52925 
L 296.509676 166.687039 
L 296.872229 187.515781 
L 297.597336 266.137501 
L 297.95989 290.197537 
L 298.322443 301.565784 
L 298.684996 307.923504 
L 299.04755 291.190811 
L 299.772657 245.86733 
L 300.13521 237.444005 
L 300.497764 226.11409 
L 300.860317 251.089576 
L 301.222871 287.937767 
L 302.310531 369.36 
L 303.035638 347.852935 
L 304.485852 201.992738 
L 304.848405 187.025594 
L 305.210959 185.0437 
L 305.573512 204.602821 
L 305.936066 233.10686 
L 306.298619 277.791836 
L 306.661173 299.521851 
L 307.023726 311.022703 
L 307.38628 309.366613 
L 307.748833 298.831864 
L 308.836494 241.316206 
L 309.199047 237.892763 
L 309.924154 281.775399 
L 310.286707 319.778768 
L 310.649261 344.216811 
L 311.011814 349.741341 
L 311.374368 364.358494 
L 312.462028 276.610745 
L 312.824582 219.120205 
L 313.549689 175.158677 
L 313.912242 190.799867 
L 314.274796 191.220501 
L 315.362456 287.112355 
L 315.725009 290.360602 
L 316.087563 299.292258 
L 316.81267 262.294736 
L 317.175223 246.262323 
L 317.537777 214.97321 
L 317.90033 227.864775 
L 318.262884 235.295201 
L 318.625437 251.854678 
L 319.350544 314.647267 
L 320.075651 345.593153 
L 320.800758 290.68314 
L 321.525865 205.790723 
L 321.888418 180.175031 
L 322.250972 145.433888 
L 322.613525 136.070405 
L 323.701186 235.771789 
L 324.063739 250.890125 
L 324.426293 276.73648 
L 324.788846 272.255992 
L 325.1514 259.39398 
L 325.513953 227.367567 
L 326.23906 200.21939 
L 326.601614 197.401503 
L 326.964167 214.109935 
L 327.32672 236.458682 
L 328.051827 296.55035 
L 328.414381 324.682481 
L 328.776934 317.066201 
L 329.139488 302.126646 
L 330.589702 150.691807 
L 330.952255 132.012361 
L 331.314809 125.893233 
L 331.677362 145.951718 
L 332.402469 216.020461 
L 332.765022 244.596812 
L 333.127576 259.217729 
L 333.490129 249.173571 
L 334.215236 217.307588 
L 334.57779 196.227809 
L 334.940343 188.119934 
L 335.302897 192.603296 
L 335.66545 206.912889 
L 336.390557 257.347508 
L 336.753111 293.594185 
L 337.478218 310.808691 
L 337.840771 292.076171 
L 338.203324 263.724571 
L 338.565878 213.929908 
L 338.928431 185.532466 
L 339.290985 138.996287 
L 339.653538 131.479145 
L 340.016092 126.851656 
L 340.378645 151.272373 
L 341.103752 217.389438 
L 341.828859 258.142407 
L 342.191413 257.822953 
L 342.553966 230.046648 
L 342.91652 225.159476 
L 343.279073 202.514389 
L 344.00418 187.342669 
L 344.366733 211.32337 
L 345.09184 274.454991 
L 345.816947 313.195673 
L 346.179501 324.668221 
L 346.904608 277.454047 
L 347.992268 157.875671 
L 348.354822 143.951207 
L 348.717375 144.291572 
L 349.805035 233.954981 
L 350.167589 268.634934 
L 350.530142 280.49566 
L 350.892696 281.427 
L 351.255249 268.284601 
L 351.980356 230.175158 
L 352.34291 215.182305 
L 352.705463 218.728327 
L 353.068017 231.944102 
L 354.518231 343.784677 
L 355.243337 324.883669 
L 355.605891 304.694014 
L 355.968444 256.054787 
L 356.330998 363.301894 
L 356.693551 186.222213 
L 357.056105 167.619477 
L 357.418658 171.812963 
L 358.143765 227.040553 
L 358.506319 262.339615 
L 359.231426 302.961272 
L 359.593979 301.414228 
L 359.956533 290.674661 
L 360.68164 249.044798 
L 361.406746 224.368301 
L 361.7693 246.243287 
L 362.85696 342.611347 
L 363.219514 359.247426 
L 363.582067 363.993791 
L 363.944621 344.821414 
L 364.307174 315.513854 
L 365.032281 228.77766 
L 365.757388 187.860374 
L 366.119942 188.358967 
L 367.932709 307.414864 
L 368.295262 303.301651 
L 368.657816 293.326948 
L 369.020369 279.799319 
L 369.745476 237.480292 
L 370.10803 231.177041 
L 370.470583 255.737167 
L 370.833137 271.535236 
L 371.558244 341.425195 
L 371.920797 363.732777 
L 372.28335 364.258069 
L 372.645904 347.182098 
L 374.096118 181.666452 
L 374.458671 174.028744 
L 374.821225 173.271638 
L 375.183778 195.25078 
L 375.546332 228.192789 
L 375.908885 248.299365 
L 376.271439 276.969998 
L 376.633992 291.543562 
L 376.996546 289.346993 
L 377.359099 281.865642 
L 377.721652 266.807027 
L 378.446759 224.597626 
L 378.809313 234.929111 
L 379.171866 232.7573 
L 379.896973 288.801167 
L 380.259527 325.760074 
L 380.62208 341.644991 
L 380.984634 340.894036 
L 381.347187 330.363831 
L 382.072294 244.087154 
L 382.434848 339.720985 
L 382.797401 171.807814 
L 383.159955 148.158 
L 383.522508 153.126701 
L 383.885061 170.096083 
L 384.972722 268.235172 
L 385.335275 271.734143 
L 385.697829 273.647952 
L 386.422936 235.000339 
L 386.785489 213.23802 
L 387.148043 198.338573 
L 387.510596 197.372805 
L 387.87315 215.959502 
L 388.598257 269.817963 
L 388.96081 301.979142 
L 389.323363 321.167496 
L 389.685917 316.259179 
L 390.04847 297.797129 
L 390.773577 235.402037 
L 391.136131 176.872737 
L 391.498684 151.180087 
L 391.861238 136.134101 
L 392.223791 129.076593 
L 394.036559 264.54687 
L 394.399112 261.287152 
L 394.761665 244.377986 
L 395.124219 220.220788 
L 396.211879 184.976792 
L 396.574433 198.296958 
L 396.936986 230.956482 
L 397.29954 252.720438 
L 397.662093 289.290952 
L 398.024647 305.791836 
L 398.3872 302.405677 
L 398.749754 293.030289 
L 399.474861 226.553491 
L 399.837414 180.318145 
L 400.562521 126.330913 
L 400.925074 133.670107 
L 401.650181 179.080551 
L 402.012735 219.657039 
L 402.375288 243.276133 
L 403.100395 258.472926 
L 403.462949 247.728995 
L 404.550609 184.731593 
L 404.913163 193.709296 
L 405.275716 208.152071 
L 406.363376 297.447328 
L 407.088483 329.119207 
L 407.81359 277.968039 
L 408.538697 195.481746 
L 409.263804 149.929598 
L 409.626358 150.554829 
L 410.351465 203.399306 
L 410.714018 243.271113 
L 411.076572 259.564718 
L 411.439125 270.649769 
L 411.801678 276.748602 
L 412.164232 269.630581 
L 412.526785 240.895935 
L 412.889339 233.693013 
L 413.251892 216.577558 
L 413.614446 219.863885 
L 413.976999 233.364639 
L 415.427213 349.924647 
L 415.789767 344.946076 
L 416.15232 346.94755 
L 416.877427 258.025832 
L 417.602534 185.792022 
L 417.965087 176.112828 
L 418.327641 175.577733 
L 418.690194 191.827928 
L 419.777855 284.171193 
L 420.140408 295.23608 
L 420.502962 299.256249 
L 421.228069 270.008744 
L 421.590622 247.924929 
L 421.953176 234.523855 
L 422.315729 234.627246 
L 423.040836 272.959717 
L 423.765943 342.437707 
L 424.128496 359.652904 
L 424.49105 355.356728 
L 424.853603 348.360385 
L 425.216157 318.928051 
L 426.303817 199.149871 
L 426.666371 185.678358 
L 427.028924 186.175663 
L 427.391478 209.081782 
L 428.116585 268.87623 
L 428.841691 316.44791 
L 429.204245 308.641813 
L 429.566798 295.303788 
L 430.291905 253.069007 
L 430.654459 239.216635 
L 431.017012 241.525048 
L 431.379566 255.708621 
L 432.467226 341.18663 
L 432.82978 358.523488 
L 433.192333 361.624258 
L 433.554887 351.122765 
L 434.642547 233.245729 
L 435.0051 196.485425 
L 435.367654 177.91553 
L 435.730207 171.179229 
L 436.817868 260.051932 
L 437.180421 274.255879 
L 437.542975 281.213049 
L 437.905528 295.665905 
L 438.268082 281.978273 
L 438.993189 233.540743 
L 439.355742 223.904095 
L 439.718296 219.112134 
L 440.443402 255.186527 
L 441.168509 325.607182 
L 441.531063 340.741517 
L 441.893616 339.202959 
L 442.25617 333.788051 
L 443.34383 205.286697 
L 444.068937 145.499786 
L 444.794044 167.24306 
L 445.881704 258.017006 
L 446.244258 268.500532 
L 446.606811 268.081655 
L 446.969365 252.747819 
L 448.057025 198.232943 
L 448.419579 197.479042 
L 448.782132 210.190771 
L 449.869793 297.516937 
L 450.5949 315.017917 
L 450.957453 298.014239 
L 451.320006 272.23422 
L 451.68256 221.175386 
L 452.407667 151.46908 
L 452.77022 136.117616 
L 453.132774 136.615587 
L 454.220434 205.079231 
L 454.582988 245.811978 
L 454.945541 256.369428 
L 455.308095 255.389674 
L 455.670648 243.12907 
L 456.033202 217.374397 
L 456.758309 192.265311 
L 457.120862 190.721704 
L 457.845969 220.442438 
L 458.571076 285.68974 
L 458.933629 297.25383 
L 459.296183 313.874792 
L 459.658736 298.85468 
L 461.10895 149.300556 
L 461.471504 131.261034 
L 461.834057 136.780121 
L 462.196611 147.221783 
L 462.559164 178.856966 
L 462.921717 222.869093 
L 463.284271 242.081764 
L 463.646824 252.433377 
L 464.009378 255.755284 
L 464.371931 250.802845 
L 465.097038 197.792469 
L 465.459592 196.339862 
L 465.822145 191.567212 
L 466.184699 205.930771 
L 466.547252 232.822229 
L 467.272359 304.315747 
L 467.634913 311.216488 
L 467.997466 323.891541 
L 468.360019 306.851667 
L 468.722573 280.151643 
L 469.44768 203.414529 
L 469.810233 165.827676 
L 470.172787 148.6814 
L 470.53534 150.385824 
L 470.897894 167.811267 
L 471.623001 230.734604 
L 471.985554 262.544292 
L 472.348108 271.361655 
L 472.710661 284.759597 
L 474.160875 220.228763 
L 474.523428 218.929852 
L 474.885982 227.503353 
L 475.248535 252.435662 
L 475.973642 326.381748 
L 476.336196 340.985585 
L 476.698749 342.637146 
L 477.061303 330.933151 
L 478.148963 221.59581 
L 478.511517 188.712074 
L 478.87407 171.710202 
L 479.236624 178.664085 
L 479.96173 223.786411 
L 480.686837 286.213464 
L 481.049391 298.623314 
L 481.411944 303.462785 
L 481.774498 291.274703 
L 482.137051 264.042008 
L 482.862158 230.770027 
L 483.224712 241.823988 
L 483.587265 245.422793 
L 485.037479 363.233543 
L 485.400032 368.242495 
L 486.125139 316.406327 
L 486.850246 233.439563 
L 487.2128 201.863936 
L 487.937907 188.503996 
L 488.30046 206.131248 
L 488.663014 241.500976 
L 489.025567 261.101769 
L 489.388121 299.284408 
L 489.750674 303.875571 
L 490.113228 306.30625 
L 490.475781 294.693705 
L 491.200888 247.1728 
L 491.925995 239.325481 
L 492.288548 253.871573 
L 492.651102 274.659464 
L 493.376209 343.161876 
L 493.738762 359.749401 
L 494.101316 354.904095 
L 494.463869 339.350335 
L 494.826423 307.30631 
L 495.55153 217.974167 
L 495.914083 196.141424 
L 496.276637 181.291037 
L 496.63919 187.086219 
L 497.001743 195.362009 
L 497.364297 218.074629 
L 497.72685 257.667215 
L 498.089404 283.806864 
L 498.814511 293.879742 
L 499.177064 274.631169 
L 499.539618 261.606724 
L 499.902171 364.385447 
L 500.264725 217.892529 
L 500.627278 227.073521 
L 500.989832 230.876156 
L 502.077492 317.813529 
L 502.440045 332.14488 
L 502.802599 341.808519 
L 503.527706 294.847745 
L 504.252813 202.727111 
L 504.615366 172.295331 
L 504.97792 152.390709 
L 505.340473 158.476081 
L 506.428134 230.246241 
L 506.790687 269.325443 
L 507.153241 262.371027 
L 507.515794 270.684164 
L 508.240901 237.696852 
L 508.603454 217.614286 
L 508.966008 203.690899 
L 509.328561 200.962649 
L 509.691115 209.258429 
L 510.053668 230.688299 
L 510.416222 278.090358 
L 510.778775 301.567914 
L 511.141329 317.42797 
L 511.503882 320.15209 
L 512.228989 273.090672 
L 512.954096 180.011514 
L 513.31665 160.53226 
L 513.679203 134.866359 
L 514.041756 142.627129 
L 514.40431 155.555449 
L 514.766863 179.966524 
L 515.129417 222.854585 
L 515.854524 255.052121 
L 516.217077 252.516026 
L 516.579631 246.67308 
L 517.304738 199.614936 
L 517.667291 184.528294 
L 518.029845 187.493699 
L 518.392398 209.176207 
L 518.754952 223.338752 
L 519.480058 290.704034 
L 519.842612 308.235747 
L 520.205165 311.805985 
L 520.567719 288.135913 
L 521.655379 185.452256 
L 522.017933 143.339167 
L 522.380486 127.905545 
L 523.105593 154.499769 
L 523.468147 179.700771 
L 523.8307 216.864664 
L 524.193254 241.684724 
L 524.555807 254.803494 
L 524.91836 258.782404 
L 525.643467 216.396397 
L 526.006021 200.308781 
L 526.368574 189.444445 
L 526.731128 199.424348 
L 527.093681 213.408765 
L 527.456235 235.927664 
L 527.818788 276.977394 
L 528.181342 292.078332 
L 528.543895 324.440291 
L 528.906449 329.19798 
L 529.269002 305.125413 
L 530.719216 163.835878 
L 531.081769 159.099213 
L 531.444323 150.650975 
L 532.894537 266.555383 
L 533.25709 280.836082 
L 533.619644 281.922637 
L 534.707304 221.651415 
L 535.069858 220.01739 
L 535.432411 216.441769 
L 535.794965 229.957702 
L 536.520071 286.171098 
L 536.882625 318.78077 
L 537.245178 341.17966 
L 537.607732 349.456271 
L 537.970285 326.158913 
L 539.057946 222.33323 
L 539.420499 179.42589 
L 539.783053 172.204056 
L 540.145606 173.612689 
L 540.870713 228.201213 
L 541.958373 310.714964 
L 542.320927 302.907829 
L 542.68348 292.050368 
L 543.408587 245.464058 
L 543.771141 232.706326 
L 544.133694 230.154614 
L 544.858801 280.786556 
L 545.583908 342.443001 
L 545.946462 360.829143 
L 546.309015 361.724382 
L 547.034122 320.667323 
L 547.759229 233.582734 
L 548.484336 186.508097 
L 548.846889 187.208951 
L 549.209443 209.54661 
L 550.297103 291.593137 
L 550.659657 312.405352 
L 551.02221 305.257121 
L 551.384764 294.160919 
L 552.109871 253.263979 
L 552.834978 238.910602 
L 553.197531 250.554438 
L 553.922638 303.01889 
L 554.285191 340.439887 
L 554.647745 357.658957 
L 555.010298 362.876922 
L 555.735405 312.315208 
L 556.097959 266.65518 
L 556.460512 236.859188 
L 556.823066 189.214867 
L 557.185619 173.17812 
L 557.910726 196.528066 
L 558.27328 223.117346 
L 558.635833 261.896687 
L 558.998386 284.137824 
L 559.36094 296.141721 
L 559.723493 302.99103 
L 560.4486 261.882572 
L 560.811154 244.536642 
L 561.173707 215.822946 
L 561.536261 224.134651 
L 562.261368 253.989986 
L 562.986475 318.209523 
L 563.349028 337.46003 
L 563.711582 344.253497 
L 564.074135 324.054211 
L 564.799242 247.86718 
L 565.524349 163.375644 
L 565.886902 159.570806 
L 566.249456 152.736292 
L 566.612009 184.009757 
L 566.974563 201.01851 
L 567.69967 259.353632 
L 568.062223 134.255617 
L 568.424777 269.796185 
L 569.149884 234.693044 
L 569.512437 210.164919 
L 569.874991 202.79386 
L 570.237544 200.100745 
L 570.600097 221.114025 
L 570.962651 235.595081 
L 571.325204 273.031967 
L 571.687758 298.116132 
L 572.050311 304.959423 
L 572.412865 324.711292 
L 572.775418 303.116336 
L 573.500525 233.942591 
L 573.863079 181.124844 
L 574.225632 147.139597 
L 574.588186 133.659767 
L 574.950739 132.611414 
L 575.675846 182.923653 
L 576.038399 225.587777 
L 576.400953 234.489969 
L 576.763506 255.139386 
L 577.12606 248.157325 
L 577.488613 235.524534 
L 578.21372 203.16439 
L 578.938827 191.746218 
L 579.301381 205.992499 
L 580.389041 280.366895 
L 580.751595 307.053806 
L 581.114148 314.032173 
L 581.476701 293.71922 
L 581.839255 266.185557 
L 582.926915 149.433211 
L 583.289469 122.298305 
L 583.652022 132.054361 
L 584.014576 152.21277 
L 585.102236 247.416967 
L 585.46479 256.113551 
L 585.827343 259.132057 
L 586.189897 243.963075 
L 586.915004 201.955141 
L 587.277557 195.675359 
L 587.64011 197.587987 
L 588.002664 220.556273 
L 588.365217 232.650236 
L 589.090324 305.822265 
L 589.452878 311.755328 
L 589.815431 315.525084 
L 590.177985 310.35389 
L 591.628199 166.123795 
L 591.990752 149.795731 
L 592.353306 146.736501 
L 592.715859 170.116508 
L 593.803519 265.622381 
L 594.166073 279.92235 
L 594.528626 281.237123 
L 594.89118 271.543887 
L 595.616287 223.489702 
L 595.97884 216.443016 
L 596.341394 211.918029 
L 596.703947 231.855059 
L 597.791608 329.039669 
L 598.154161 336.822063 
L 598.516714 351.813271 
L 599.241821 298.986237 
L 599.604375 255.381514 
L 599.966928 76.992888 
L 600.329482 187.870441 
L 600.692035 175.608974 
L 601.054589 171.432417 
L 601.417142 192.787008 
L 602.504803 285.696311 
L 602.867356 296.910847 
L 603.22991 301.462002 
L 603.592463 280.687771 
L 603.955017 272.316029 
L 604.31757 255.644703 
L 604.680123 232.106011 
L 605.042677 229.34722 
L 605.767784 278.049138 
L 606.130337 301.267781 
L 606.492891 342.17591 
L 607.217998 369.146477 
L 607.580551 344.322188 
L 609.030765 202.313243 
L 609.393319 183.430473 
L 610.118425 196.10491 
L 610.480979 237.591843 
L 610.843532 259.013361 
L 611.206086 294.153069 
L 611.568639 306.571778 
L 611.931193 308.743298 
L 612.293746 293.179711 
L 613.381407 235.493424 
L 613.74396 234.237457 
L 614.106514 254.196584 
L 614.831621 310.978093 
L 615.556727 351.171698 
L 615.919281 356.72051 
L 616.281834 344.637147 
L 617.006941 271.838859 
L 617.732048 192.016295 
L 618.094602 184.099607 
L 618.457155 173.218856 
L 618.819709 197.823183 
L 619.182262 214.354467 
L 619.907369 287.508165 
L 620.269923 299.918188 
L 620.632476 290.084317 
L 620.99503 287.472731 
L 621.357583 256.687853 
L 622.08269 224.443644 
L 622.445243 221.320976 
L 622.807797 235.830945 
L 623.895457 332.960629 
L 624.258011 328.271018 
L 624.620564 330.681833 
L 624.983118 317.463103 
L 625.345671 297.226739 
L 626.433332 170.378425 
L 626.795885 157.289376 
L 627.158438 158.6923 
L 627.520992 174.020538 
L 628.246099 230.334755 
L 628.971206 267.835599 
L 629.333759 273.438815 
L 629.696313 247.045346 
L 630.058866 233.509476 
L 630.783973 195.030675 
L 631.146527 199.638323 
L 631.871634 232.1864 
L 632.234187 277.357884 
L 632.59674 307.028892 
L 632.959294 317.718094 
L 633.321847 315.359611 
L 633.684401 297.369166 
L 634.409508 233.515254 
L 634.772061 182.015446 
L 635.497168 133.97711 
L 635.859722 134.915308 
L 636.222275 153.924672 
L 636.584829 182.408139 
L 636.947382 74.689086 
L 637.309936 243.374507 
L 637.672489 266.516674 
L 638.035043 250.138853 
L 638.397596 242.458213 
L 639.122703 200.9811 
L 639.485256 184.632069 
L 639.84781 181.725548 
L 640.210363 193.973359 
L 640.572917 233.957652 
L 641.660577 312.555504 
L 642.023131 302.992366 
L 642.385684 297.078333 
L 642.748238 269.339868 
L 643.110791 214.712879 
L 643.835898 151.849998 
L 644.198451 133.237359 
L 644.561005 138.403907 
L 644.923558 153.198634 
L 645.286112 188.771573 
L 645.648665 212.341968 
L 646.011219 245.93411 
L 646.373772 265.572931 
L 647.098879 248.730507 
L 647.823986 200.893453 
L 648.18654 197.464397 
L 648.549093 188.560204 
L 649.2742 238.742595 
L 649.999307 296.004221 
L 650.36186 310.910763 
L 650.724414 316.199623 
L 651.086967 305.03924 
L 652.174628 194.608699 
L 652.899735 155.390092 
L 653.262288 153.328674 
L 653.624842 173.216726 
L 654.349949 227.681314 
L 654.712502 267.412148 
L 655.075055 277.910665 
L 655.800162 267.081836 
L 656.162716 247.540826 
L 656.525269 221.337218 
L 656.887823 209.004888 
L 657.250376 208.315201 
L 657.975483 256.586857 
L 658.70059 322.741358 
L 659.425697 347.821547 
L 659.788251 332.017351 
L 660.150804 308.596176 
L 660.875911 222.86396 
L 661.238464 187.304836 
L 661.601018 171.242961 
L 661.963571 171.430712 
L 663.413785 287.714683 
L 663.776339 302.048052 
L 664.138892 298.139562 
L 664.863999 273.388075 
L 665.589106 237.809442 
L 665.95166 231.970105 
L 666.676766 281.369773 
L 667.401873 342.429387 
L 667.764427 363.708481 
L 668.12698 362.000391 
L 668.489534 337.000339 
L 668.852087 322.438283 
L 669.577194 237.254468 
L 669.939748 200.767203 
L 670.302301 185.485723 
L 670.664855 186.343924 
L 671.389962 228.88157 
L 671.752515 275.127381 
L 672.115068 292.278839 
L 672.477622 302.844165 
L 672.840175 309.917467 
L 673.565282 280.122928 
L 673.927836 253.336295 
L 674.290389 238.590155 
L 675.015496 255.151034 
L 676.103157 344.607751 
L 676.46571 347.920702 
L 676.828264 357.140942 
L 677.190817 342.596396 
L 677.553371 310.979117 
L 678.641031 187.40034 
L 679.003584 176.563972 
L 679.366138 180.27571 
L 680.091245 219.858669 
L 680.816352 280.488723 
L 681.178905 295.683379 
L 681.541459 291.998885 
L 681.904012 273.397125 
L 682.266566 261.934605 
L 682.991673 218.639796 
L 683.354226 220.833257 
L 684.441886 293.82805 
L 685.166993 339.050926 
L 685.529547 341.34094 
L 685.8921 324.141432 
L 687.342314 165.092585 
L 687.704868 154.497368 
L 688.067421 150.620342 
L 688.429975 167.317904 
L 689.517635 253.049246 
L 689.880188 264.954989 
L 690.242742 267.349312 
L 690.605295 259.729835 
L 691.692956 197.293806 
L 692.055509 193.096013 
L 692.780616 238.760751 
L 693.868277 311.473212 
L 694.23083 316.528234 
L 694.593384 305.24196 
L 694.955937 275.508359 
L 695.681044 177.805427 
L 696.043597 154.879518 
L 696.406151 140.361632 
L 696.768704 130.709011 
L 697.856365 213.289211 
L 698.218918 241.897589 
L 698.581472 255.001345 
L 698.944025 259.144332 
L 699.306579 236.091019 
L 699.669132 223.04409 
L 700.394239 189.141696 
L 700.756792 186.011157 
L 701.119346 199.253979 
L 701.844453 251.930851 
L 702.207006 294.193102 
L 702.932113 312.063372 
L 703.65722 271.07993 
L 704.019774 216.504404 
L 704.744881 148.53632 
L 705.107434 128.799125 
L 705.469988 134.679386 
L 705.832541 154.55057 
L 706.920201 242.768047 
L 707.282755 254.472061 
L 707.645308 253.145519 
L 708.370415 221.810503 
L 708.732969 199.655964 
L 709.095522 187.788294 
L 709.458076 195.444949 
L 709.820629 205.890423 
L 710.90829 296.982865 
L 711.633397 326.81353 
L 711.99595 314.152455 
L 712.358503 278.78894 
L 713.08361 198.63111 
L 713.446164 161.931875 
L 713.808717 150.357532 
L 714.171271 149.338036 
L 714.896378 195.084078 
L 715.621485 266.163843 
L 715.984038 265.781807 
L 716.346592 275.924611 
L 717.071699 249.56377 
L 717.434252 227.201298 
L 718.159359 217.075534 
L 718.521912 232.560198 
L 719.609573 328.054658 
L 719.972126 336.582382 
L 720.33468 342.015324 
L 720.697233 328.028294 
L 721.42234 266.714343 
L 722.147447 188.104015 
L 722.510001 177.729547 
L 722.872554 175.424826 
L 723.235107 197.60208 
L 724.322768 289.58308 
L 724.685321 303.432965 
L 725.047875 294.112018 
L 725.410428 299.682273 
L 725.772982 259.262525 
L 726.135535 244.862937 
L 726.498089 243.583587 
L 726.860642 240.984406 
L 727.223196 250.005134 
L 727.585749 272.825955 
L 727.948303 316.108864 
L 728.310856 343.042429 
L 728.673409 357.268841 
L 729.035963 360.303559 
L 729.398516 346.853878 
L 729.76107 314.81923 
L 730.486177 227.702192 
L 730.84873 199.62438 
L 731.211284 180.639844 
L 731.573837 192.009416 
L 731.936391 210.566467 
L 732.661498 266.637792 
L 733.024051 290.152491 
L 733.386605 321.842922 
L 733.749158 300.898458 
L 734.111712 295.793483 
L 735.199372 230.465018 
L 735.561925 242.980511 
L 735.924479 246.915455 
L 737.374693 361.380981 
L 737.737246 359.27625 
L 738.0998 340.922569 
L 739.18746 223.325521 
L 739.550014 209.042113 
L 739.912567 168.373932 
L 740.27512 177.118946 
L 740.637674 194.077822 
L 741.725334 279.085308 
L 742.087888 292.653808 
L 742.450441 295.384451 
L 742.812995 289.289432 
L 743.538102 236.344507 
L 743.900655 220.570073 
L 744.263209 217.499304 
L 744.625762 226.149308 
L 744.988316 268.718946 
L 745.713422 312.468489 
L 746.075976 344.610053 
L 746.438529 334.60831 
L 746.801083 319.287753 
L 747.163636 287.798667 
L 747.163636 287.798667 
" style="fill:none;stroke:#1f77b4;stroke-linecap:square;stroke-width:1.5;"/>
   </g>
   <g id="line2d_18">
    <path clip-path="url(#p5a3aa73a7b)" d="M 745.713422 384.48 
L 745.713422 51.84 
" style="fill:none;stroke:#808080;stroke-linecap:square;"/>
   </g>
   <g id="patch_52">
    <path d="M 108 384.48 
L 108 51.84 
" style="fill:none;stroke:#000000;stroke-linecap:square;stroke-linejoin:miter;stroke-width:0.8;"/>
   </g>
   <g id="patch_53">
    <path d="M 777.6 384.48 
L 777.6 51.84 
" style="fill:none;stroke:#000000;stroke-linecap:square;stroke-linejoin:miter;stroke-width:0.8;"/>
   </g>
   <g id="patch_54">
    <path d="M 108 384.48 
L 777.6 384.48 
" style="fill:none;stroke:#000000;stroke-linecap:square;stroke-linejoin:miter;stroke-width:0.8;"/>
   </g>
   <g id="patch_55">
    <path d="M 108 51.84 
L 777.6 51.84 
" style="fill:none;stroke:#000000;stroke-linecap:square;stroke-linejoin:miter;stroke-width:0.8;"/>
   </g>
   <g id="text_19">
    <!-- A3Benchmark-TS100.csv -->
    <defs>
     <path d="M 34.1875 63.1875 
L 20.796875 26.90625 
L 47.609375 26.90625 
z
M 28.609375 72.90625 
L 39.796875 72.90625 
L 67.578125 0 
L 57.328125 0 
L 50.6875 18.703125 
L 17.828125 18.703125 
L 11.1875 0 
L 0.78125 0 
z
" id="DejaVuSans-65"/>
     <path d="M 19.671875 34.8125 
L 19.671875 8.109375 
L 35.5 8.109375 
Q 43.453125 8.109375 47.28125 11.40625 
Q 51.125 14.703125 51.125 21.484375 
Q 51.125 28.328125 47.28125 31.5625 
Q 43.453125 34.8125 35.5 34.8125 
z
M 19.671875 64.796875 
L 19.671875 42.828125 
L 34.28125 42.828125 
Q 41.5 42.828125 45.03125 45.53125 
Q 48.578125 48.25 48.578125 53.8125 
Q 48.578125 59.328125 45.03125 62.0625 
Q 41.5 64.796875 34.28125 64.796875 
z
M 9.8125 72.90625 
L 35.015625 72.90625 
Q 46.296875 72.90625 52.390625 68.21875 
Q 58.5 63.53125 58.5 54.890625 
Q 58.5 48.1875 55.375 44.234375 
Q 52.25 40.28125 46.1875 39.3125 
Q 53.46875 37.75 57.5 32.78125 
Q 61.53125 27.828125 61.53125 20.40625 
Q 61.53125 10.640625 54.890625 5.3125 
Q 48.25 0 35.984375 0 
L 9.8125 0 
z
" id="DejaVuSans-66"/>
     <path d="M 54.890625 33.015625 
L 54.890625 0 
L 45.90625 0 
L 45.90625 32.71875 
Q 45.90625 40.484375 42.875 44.328125 
Q 39.84375 48.1875 33.796875 48.1875 
Q 26.515625 48.1875 22.3125 43.546875 
Q 18.109375 38.921875 18.109375 30.90625 
L 18.109375 0 
L 9.078125 0 
L 9.078125 54.6875 
L 18.109375 54.6875 
L 18.109375 46.1875 
Q 21.34375 51.125 25.703125 53.5625 
Q 30.078125 56 35.796875 56 
Q 45.21875 56 50.046875 50.171875 
Q 54.890625 44.34375 54.890625 33.015625 
z
" id="DejaVuSans-110"/>
     <path d="M 48.78125 52.59375 
L 48.78125 44.1875 
Q 44.96875 46.296875 41.140625 47.34375 
Q 37.3125 48.390625 33.40625 48.390625 
Q 24.65625 48.390625 19.8125 42.84375 
Q 14.984375 37.3125 14.984375 27.296875 
Q 14.984375 17.28125 19.8125 11.734375 
Q 24.65625 6.203125 33.40625 6.203125 
Q 37.3125 6.203125 41.140625 7.25 
Q 44.96875 8.296875 48.78125 10.40625 
L 48.78125 2.09375 
Q 45.015625 0.34375 40.984375 -0.53125 
Q 36.96875 -1.421875 32.421875 -1.421875 
Q 20.0625 -1.421875 12.78125 6.34375 
Q 5.515625 14.109375 5.515625 27.296875 
Q 5.515625 40.671875 12.859375 48.328125 
Q 20.21875 56 33.015625 56 
Q 37.15625 56 41.109375 55.140625 
Q 45.0625 54.296875 48.78125 52.59375 
z
" id="DejaVuSans-99"/>
     <path d="M 54.890625 33.015625 
L 54.890625 0 
L 45.90625 0 
L 45.90625 32.71875 
Q 45.90625 40.484375 42.875 44.328125 
Q 39.84375 48.1875 33.796875 48.1875 
Q 26.515625 48.1875 22.3125 43.546875 
Q 18.109375 38.921875 18.109375 30.90625 
L 18.109375 0 
L 9.078125 0 
L 9.078125 75.984375 
L 18.109375 75.984375 
L 18.109375 46.1875 
Q 21.34375 51.125 25.703125 53.5625 
Q 30.078125 56 35.796875 56 
Q 45.21875 56 50.046875 50.171875 
Q 54.890625 44.34375 54.890625 33.015625 
z
" id="DejaVuSans-104"/>
     <path d="M 41.109375 46.296875 
Q 39.59375 47.171875 37.8125 47.578125 
Q 36.03125 48 33.890625 48 
Q 26.265625 48 22.1875 43.046875 
Q 18.109375 38.09375 18.109375 28.8125 
L 18.109375 0 
L 9.078125 0 
L 9.078125 54.6875 
L 18.109375 54.6875 
L 18.109375 46.1875 
Q 20.953125 51.171875 25.484375 53.578125 
Q 30.03125 56 36.53125 56 
Q 37.453125 56 38.578125 55.875 
Q 39.703125 55.765625 41.0625 55.515625 
z
" id="DejaVuSans-114"/>
     <path d="M 9.078125 75.984375 
L 18.109375 75.984375 
L 18.109375 31.109375 
L 44.921875 54.6875 
L 56.390625 54.6875 
L 27.390625 29.109375 
L 57.625 0 
L 45.90625 0 
L 18.109375 26.703125 
L 18.109375 0 
L 9.078125 0 
z
" id="DejaVuSans-107"/>
     <path d="M 4.890625 31.390625 
L 31.203125 31.390625 
L 31.203125 23.390625 
L 4.890625 23.390625 
z
" id="DejaVuSans-45"/>
     <path d="M 53.515625 70.515625 
L 53.515625 60.890625 
Q 47.90625 63.578125 42.921875 64.890625 
Q 37.9375 66.21875 33.296875 66.21875 
Q 25.25 66.21875 20.875 63.09375 
Q 16.5 59.96875 16.5 54.203125 
Q 16.5 49.359375 19.40625 46.890625 
Q 22.3125 44.4375 30.421875 42.921875 
L 36.375 41.703125 
Q 47.40625 39.59375 52.65625 34.296875 
Q 57.90625 29 57.90625 20.125 
Q 57.90625 9.515625 50.796875 4.046875 
Q 43.703125 -1.421875 29.984375 -1.421875 
Q 24.8125 -1.421875 18.96875 -0.25 
Q 13.140625 0.921875 6.890625 3.21875 
L 6.890625 13.375 
Q 12.890625 10.015625 18.65625 8.296875 
Q 24.421875 6.59375 29.984375 6.59375 
Q 38.421875 6.59375 43.015625 9.90625 
Q 47.609375 13.234375 47.609375 19.390625 
Q 47.609375 24.75 44.3125 27.78125 
Q 41.015625 30.8125 33.5 32.328125 
L 27.484375 33.5 
Q 16.453125 35.6875 11.515625 40.375 
Q 6.59375 45.0625 6.59375 53.421875 
Q 6.59375 63.09375 13.40625 68.65625 
Q 20.21875 74.21875 32.171875 74.21875 
Q 37.3125 74.21875 42.625 73.28125 
Q 47.953125 72.359375 53.515625 70.515625 
z
" id="DejaVuSans-83"/>
     <path d="M 10.6875 12.40625 
L 21 12.40625 
L 21 0 
L 10.6875 0 
z
" id="DejaVuSans-46"/>
     <path d="M 2.984375 54.6875 
L 12.5 54.6875 
L 29.59375 8.796875 
L 46.6875 54.6875 
L 56.203125 54.6875 
L 35.6875 0 
L 23.484375 0 
z
" id="DejaVuSans-118"/>
    </defs>
    <g transform="translate(367.738125 45.84)scale(0.12 -0.12)">
     <use xlink:href="#DejaVuSans-65"/>
     <use x="68.408203" xlink:href="#DejaVuSans-51"/>
     <use x="132.03125" xlink:href="#DejaVuSans-66"/>
     <use x="200.634766" xlink:href="#DejaVuSans-101"/>
     <use x="262.158203" xlink:href="#DejaVuSans-110"/>
     <use x="325.537109" xlink:href="#DejaVuSans-99"/>
     <use x="380.517578" xlink:href="#DejaVuSans-104"/>
     <use x="443.896484" xlink:href="#DejaVuSans-109"/>
     <use x="541.308594" xlink:href="#DejaVuSans-97"/>
     <use x="602.587891" xlink:href="#DejaVuSans-114"/>
     <use x="643.701172" xlink:href="#DejaVuSans-107"/>
     <use x="701.611328" xlink:href="#DejaVuSans-45"/>
     <use x="737.554688" xlink:href="#DejaVuSans-84"/>
     <use x="798.638672" xlink:href="#DejaVuSans-83"/>
     <use x="862.115234" xlink:href="#DejaVuSans-49"/>
     <use x="925.738281" xlink:href="#DejaVuSans-48"/>
     <use x="989.361328" xlink:href="#DejaVuSans-48"/>
     <use x="1052.984375" xlink:href="#DejaVuSans-46"/>
     <use x="1084.771484" xlink:href="#DejaVuSans-99"/>
     <use x="1139.751953" xlink:href="#DejaVuSans-115"/>
     <use x="1191.851562" xlink:href="#DejaVuSans-118"/>
    </g>
   </g>
   <g id="legend_1">
    <g id="patch_56">
     <path d="M 115 74.518125 
L 174.315625 74.518125 
Q 176.315625 74.518125 176.315625 72.518125 
L 176.315625 58.84 
Q 176.315625 56.84 174.315625 56.84 
L 115 56.84 
Q 113 56.84 113 58.84 
L 113 72.518125 
Q 113 74.518125 115 74.518125 
z
" style="fill:#ffffff;opacity:0.8;stroke:#cccccc;stroke-linejoin:miter;"/>
    </g>
    <g id="line2d_19">
     <path d="M 117 64.938438 
L 137 64.938438 
" style="fill:none;stroke:#1f77b4;stroke-linecap:square;stroke-width:1.5;"/>
    </g>
    <g id="line2d_20"/>
    <g id="text_20">
     <!-- value -->
     <g transform="translate(145 68.438438)scale(0.1 -0.1)">
      <use xlink:href="#DejaVuSans-118"/>
      <use x="59.179688" xlink:href="#DejaVuSans-97"/>
      <use x="120.458984" xlink:href="#DejaVuSans-108"/>
      <use x="148.242188" xlink:href="#DejaVuSans-117"/>
      <use x="211.621094" xlink:href="#DejaVuSans-101"/>
     </g>
    </g>
   </g>
  </g>
 </g>
 <defs>
  <clipPath id="p5a3aa73a7b">
   <rect height="332.64" width="669.6" x="108" y="51.84"/>
  </clipPath>
 </defs>
</svg>
