<?xml version="1.0" encoding="utf-8" standalone="no"?>
<!DOCTYPE svg PUBLIC "-//W3C//DTD SVG 1.1//EN"
  "http://www.w3.org/Graphics/SVG/1.1/DTD/svg11.dtd">
<!-- Created with matplotlib (https://matplotlib.org/) -->
<svg height="432pt" version="1.1" viewBox="0 0 864 432" width="864pt" xmlns="http://www.w3.org/2000/svg" xmlns:xlink="http://www.w3.org/1999/xlink">
 <defs>
  <style type="text/css">
*{stroke-linecap:butt;stroke-linejoin:round;}
  </style>
 </defs>
 <g id="figure_1">
  <g id="patch_1">
   <path d="M 0 432 
L 864 432 
L 864 0 
L 0 0 
z
" style="fill:#ffffff;"/>
  </g>
  <g id="axes_1">
   <g id="patch_2">
    <path d="M 108 384.48 
L 777.6 384.48 
L 777.6 51.84 
L 108 51.84 
z
" style="fill:#ffffff;"/>
   </g>
   <g id="patch_3">
    <path clip-path="url(#pc9d8e25a6d)" d="M 138.436364 384.48 
L 138.436364 51.84 
L 374.096118 51.84 
L 374.096118 384.48 
z
" style="fill:#0000ff;opacity:0.05;"/>
   </g>
   <g id="patch_4">
    <path clip-path="url(#pc9d8e25a6d)" d="M 374.096118 384.48 
L 374.096118 51.84 
L 745.713422 51.84 
L 745.713422 384.48 
z
" style="fill:#ff0000;opacity:0.08;"/>
   </g>
   <g id="patch_5">
    <path clip-path="url(#pc9d8e25a6d)" d="M 138.436364 384.48 
L 138.436364 51.84 
L 147.5002 51.84 
L 147.5002 384.48 
z
" style="fill:#008000;opacity:0.04;"/>
   </g>
   <g id="patch_6">
    <path clip-path="url(#pc9d8e25a6d)" d="M 138.436364 371.1744 
L 138.436364 51.84 
L 147.5002 51.84 
L 147.5002 371.1744 
z
" style="fill:#008000;opacity:0.5;"/>
   </g>
   <g id="patch_7">
    <path clip-path="url(#pc9d8e25a6d)" d="M 138.436364 384.48 
L 138.436364 371.1744 
L 147.5002 371.1744 
L 147.5002 384.48 
z
" style="fill:#ffe500;"/>
   </g>
   <g id="patch_8">
    <path clip-path="url(#pc9d8e25a6d)" d="M 156.564037 384.48 
L 156.564037 51.84 
L 165.627874 51.84 
L 165.627874 384.48 
z
" style="fill:#008000;opacity:0.04;"/>
   </g>
   <g id="patch_9">
    <path clip-path="url(#pc9d8e25a6d)" d="M 174.69171 384.48 
L 174.69171 51.84 
L 183.755547 51.84 
L 183.755547 384.48 
z
" style="fill:#008000;opacity:0.04;"/>
   </g>
   <g id="patch_10">
    <path clip-path="url(#pc9d8e25a6d)" d="M 419.415301 384.48 
L 419.415301 371.1744 
L 428.479138 371.1744 
L 428.479138 384.48 
z
" style="fill:#ff6600;"/>
   </g>
   <g id="patch_11">
    <path clip-path="url(#pc9d8e25a6d)" d="M 192.819384 384.48 
L 192.819384 51.84 
L 201.883221 51.84 
L 201.883221 384.48 
z
" style="fill:#008000;opacity:0.04;"/>
   </g>
   <g id="patch_12">
    <path clip-path="url(#pc9d8e25a6d)" d="M 210.947057 384.48 
L 210.947057 51.84 
L 220.010894 51.84 
L 220.010894 384.48 
z
" style="fill:#008000;opacity:0.04;"/>
   </g>
   <g id="patch_13">
    <path clip-path="url(#pc9d8e25a6d)" d="M 229.074731 384.48 
L 229.074731 51.84 
L 238.138567 51.84 
L 238.138567 384.48 
z
" style="fill:#008000;opacity:0.04;"/>
   </g>
   <g id="patch_14">
    <path clip-path="url(#pc9d8e25a6d)" d="M 247.202404 384.48 
L 247.202404 51.84 
L 256.266241 51.84 
L 256.266241 384.48 
z
" style="fill:#008000;opacity:0.04;"/>
   </g>
   <g id="patch_15">
    <path clip-path="url(#pc9d8e25a6d)" d="M 482.862158 384.48 
L 482.862158 371.1744 
L 491.925995 371.1744 
L 491.925995 384.48 
z
" style="fill:#ff6600;"/>
   </g>
   <g id="patch_16">
    <path clip-path="url(#pc9d8e25a6d)" d="M 265.330077 384.48 
L 265.330077 51.84 
L 274.393914 51.84 
L 274.393914 384.48 
z
" style="fill:#008000;opacity:0.04;"/>
   </g>
   <g id="patch_17">
    <path clip-path="url(#pc9d8e25a6d)" d="M 283.457751 384.48 
L 283.457751 51.84 
L 292.521588 51.84 
L 292.521588 384.48 
z
" style="fill:#008000;opacity:0.04;"/>
   </g>
   <g id="patch_18">
    <path clip-path="url(#pc9d8e25a6d)" d="M 301.585424 384.48 
L 301.585424 51.84 
L 310.649261 51.84 
L 310.649261 384.48 
z
" style="fill:#008000;opacity:0.04;"/>
   </g>
   <g id="patch_19">
    <path clip-path="url(#pc9d8e25a6d)" d="M 301.585424 371.1744 
L 301.585424 51.84 
L 310.649261 51.84 
L 310.649261 371.1744 
z
" style="fill:#008000;opacity:0.5;"/>
   </g>
   <g id="patch_20">
    <path clip-path="url(#pc9d8e25a6d)" d="M 319.713098 384.48 
L 319.713098 51.84 
L 328.776934 51.84 
L 328.776934 384.48 
z
" style="fill:#008000;opacity:0.04;"/>
   </g>
   <g id="patch_21">
    <path clip-path="url(#pc9d8e25a6d)" d="M 328.776934 371.1744 
L 328.776934 51.84 
L 337.840771 51.84 
L 337.840771 371.1744 
z
" style="fill:#008000;opacity:0.5;"/>
   </g>
   <g id="patch_22">
    <path clip-path="url(#pc9d8e25a6d)" d="M 328.776934 384.48 
L 328.776934 371.1744 
L 337.840771 371.1744 
L 337.840771 384.48 
z
" style="fill:#ffe500;"/>
   </g>
   <g id="patch_23">
    <path clip-path="url(#pc9d8e25a6d)" d="M 337.840771 384.48 
L 337.840771 51.84 
L 346.904608 51.84 
L 346.904608 384.48 
z
" style="fill:#008000;opacity:0.04;"/>
   </g>
   <g id="patch_24">
    <path clip-path="url(#pc9d8e25a6d)" d="M 355.968444 384.48 
L 355.968444 51.84 
L 365.032281 51.84 
L 365.032281 384.48 
z
" style="fill:#008000;opacity:0.04;"/>
   </g>
   <g id="patch_25">
    <path clip-path="url(#pc9d8e25a6d)" d="M 374.096118 384.48 
L 374.096118 51.84 
L 383.159955 51.84 
L 383.159955 384.48 
z
" style="fill:#008000;opacity:0.04;"/>
   </g>
   <g id="patch_26">
    <path clip-path="url(#pc9d8e25a6d)" d="M 392.223791 384.48 
L 392.223791 51.84 
L 401.287628 51.84 
L 401.287628 384.48 
z
" style="fill:#008000;opacity:0.04;"/>
   </g>
   <g id="patch_27">
    <path clip-path="url(#pc9d8e25a6d)" d="M 410.351465 384.48 
L 410.351465 51.84 
L 419.415301 51.84 
L 419.415301 384.48 
z
" style="fill:#008000;opacity:0.04;"/>
   </g>
   <g id="patch_28">
    <path clip-path="url(#pc9d8e25a6d)" d="M 419.415301 371.1744 
L 419.415301 51.84 
L 428.479138 51.84 
L 428.479138 371.1744 
z
" style="fill:#008000;opacity:0.5;"/>
   </g>
   <g id="patch_29">
    <path clip-path="url(#pc9d8e25a6d)" d="M 428.479138 384.48 
L 428.479138 51.84 
L 437.542975 51.84 
L 437.542975 384.48 
z
" style="fill:#008000;opacity:0.04;"/>
   </g>
   <g id="patch_30">
    <path clip-path="url(#pc9d8e25a6d)" d="M 446.606811 384.48 
L 446.606811 51.84 
L 455.670648 51.84 
L 455.670648 384.48 
z
" style="fill:#008000;opacity:0.04;"/>
   </g>
   <g id="patch_31">
    <path clip-path="url(#pc9d8e25a6d)" d="M 464.734485 384.48 
L 464.734485 51.84 
L 473.798322 51.84 
L 473.798322 384.48 
z
" style="fill:#008000;opacity:0.04;"/>
   </g>
   <g id="patch_32">
    <path clip-path="url(#pc9d8e25a6d)" d="M 464.734485 371.1744 
L 464.734485 51.84 
L 473.798322 51.84 
L 473.798322 371.1744 
z
" style="fill:#008000;opacity:0.5;"/>
   </g>
   <g id="patch_33">
    <path clip-path="url(#pc9d8e25a6d)" d="M 700.394239 384.48 
L 700.394239 371.1744 
L 709.458076 371.1744 
L 709.458076 384.48 
z
" style="fill:#ff6600;"/>
   </g>
   <g id="patch_34">
    <path clip-path="url(#pc9d8e25a6d)" d="M 482.862158 384.48 
L 482.862158 51.84 
L 491.925995 51.84 
L 491.925995 384.48 
z
" style="fill:#008000;opacity:0.04;"/>
   </g>
   <g id="patch_35">
    <path clip-path="url(#pc9d8e25a6d)" d="M 482.862158 371.1744 
L 482.862158 51.84 
L 491.925995 51.84 
L 491.925995 371.1744 
z
" style="fill:#008000;opacity:0.5;"/>
   </g>
   <g id="patch_36">
    <path clip-path="url(#pc9d8e25a6d)" d="M 500.989832 384.48 
L 500.989832 51.84 
L 510.053668 51.84 
L 510.053668 384.48 
z
" style="fill:#008000;opacity:0.04;"/>
   </g>
   <g id="patch_37">
    <path clip-path="url(#pc9d8e25a6d)" d="M 519.117505 384.48 
L 519.117505 51.84 
L 528.181342 51.84 
L 528.181342 384.48 
z
" style="fill:#008000;opacity:0.04;"/>
   </g>
   <g id="patch_38">
    <path clip-path="url(#pc9d8e25a6d)" d="M 519.117505 371.1744 
L 519.117505 51.84 
L 528.181342 51.84 
L 528.181342 371.1744 
z
" style="fill:#008000;opacity:0.5;"/>
   </g>
   <g id="patch_39">
    <path clip-path="url(#pc9d8e25a6d)" d="M 537.245178 384.48 
L 537.245178 51.84 
L 546.309015 51.84 
L 546.309015 384.48 
z
" style="fill:#008000;opacity:0.04;"/>
   </g>
   <g id="patch_40">
    <path clip-path="url(#pc9d8e25a6d)" d="M 555.372852 384.48 
L 555.372852 51.84 
L 564.436689 51.84 
L 564.436689 384.48 
z
" style="fill:#008000;opacity:0.04;"/>
   </g>
   <g id="patch_41">
    <path clip-path="url(#pc9d8e25a6d)" d="M 564.436689 371.1744 
L 564.436689 51.84 
L 573.500525 51.84 
L 573.500525 371.1744 
z
" style="fill:#008000;opacity:0.5;"/>
   </g>
   <g id="patch_42">
    <path clip-path="url(#pc9d8e25a6d)" d="M 573.500525 384.48 
L 573.500525 51.84 
L 582.564362 51.84 
L 582.564362 384.48 
z
" style="fill:#008000;opacity:0.04;"/>
   </g>
   <g id="patch_43">
    <path clip-path="url(#pc9d8e25a6d)" d="M 591.628199 384.48 
L 591.628199 51.84 
L 600.692035 51.84 
L 600.692035 384.48 
z
" style="fill:#008000;opacity:0.04;"/>
   </g>
   <g id="patch_44">
    <path clip-path="url(#pc9d8e25a6d)" d="M 609.755872 384.48 
L 609.755872 51.84 
L 618.819709 51.84 
L 618.819709 384.48 
z
" style="fill:#008000;opacity:0.04;"/>
   </g>
   <g id="patch_45">
    <path clip-path="url(#pc9d8e25a6d)" d="M 627.883545 384.48 
L 627.883545 51.84 
L 636.947382 51.84 
L 636.947382 384.48 
z
" style="fill:#008000;opacity:0.04;"/>
   </g>
   <g id="patch_46">
    <path clip-path="url(#pc9d8e25a6d)" d="M 646.011219 384.48 
L 646.011219 51.84 
L 655.075055 51.84 
L 655.075055 384.48 
z
" style="fill:#008000;opacity:0.04;"/>
   </g>
   <g id="patch_47">
    <path clip-path="url(#pc9d8e25a6d)" d="M 646.011219 371.1744 
L 646.011219 51.84 
L 655.075055 51.84 
L 655.075055 371.1744 
z
" style="fill:#008000;opacity:0.5;"/>
   </g>
   <g id="patch_48">
    <path clip-path="url(#pc9d8e25a6d)" d="M 664.138892 384.48 
L 664.138892 51.84 
L 673.202729 51.84 
L 673.202729 384.48 
z
" style="fill:#008000;opacity:0.04;"/>
   </g>
   <g id="patch_49">
    <path clip-path="url(#pc9d8e25a6d)" d="M 682.266566 384.48 
L 682.266566 51.84 
L 691.330402 51.84 
L 691.330402 384.48 
z
" style="fill:#008000;opacity:0.04;"/>
   </g>
   <g id="patch_50">
    <path clip-path="url(#pc9d8e25a6d)" d="M 682.266566 371.1744 
L 682.266566 51.84 
L 691.330402 51.84 
L 691.330402 371.1744 
z
" style="fill:#008000;opacity:0.5;"/>
   </g>
   <g id="patch_51">
    <path clip-path="url(#pc9d8e25a6d)" d="M 700.394239 384.48 
L 700.394239 51.84 
L 709.458076 51.84 
L 709.458076 384.48 
z
" style="fill:#008000;opacity:0.04;"/>
   </g>
   <g id="patch_52">
    <path clip-path="url(#pc9d8e25a6d)" d="M 700.394239 371.1744 
L 700.394239 51.84 
L 709.458076 51.84 
L 709.458076 371.1744 
z
" style="fill:#008000;opacity:0.5;"/>
   </g>
   <g id="patch_53">
    <path clip-path="url(#pc9d8e25a6d)" d="M 718.521912 384.48 
L 718.521912 51.84 
L 727.585749 51.84 
L 727.585749 384.48 
z
" style="fill:#008000;opacity:0.04;"/>
   </g>
   <g id="patch_54">
    <path clip-path="url(#pc9d8e25a6d)" d="M 736.649586 384.48 
L 736.649586 51.84 
L 745.713422 51.84 
L 745.713422 384.48 
z
" style="fill:#008000;opacity:0.04;"/>
   </g>
   <g id="matplotlib.axis_1">
    <g id="xtick_1">
     <g id="line2d_1">
      <defs>
       <path d="M 0 0 
L 0 3.5 
" id="m2073585900" style="stroke:#000000;stroke-width:0.8;"/>
      </defs>
      <g>
       <use style="stroke:#000000;stroke-width:0.8;" x="138.436364" xlink:href="#m2073585900" y="384.48"/>
      </g>
     </g>
     <g id="text_1">
      <!-- 0 -->
      <defs>
       <path d="M 31.78125 66.40625 
Q 24.171875 66.40625 20.328125 58.90625 
Q 16.5 51.421875 16.5 36.375 
Q 16.5 21.390625 20.328125 13.890625 
Q 24.171875 6.390625 31.78125 6.390625 
Q 39.453125 6.390625 43.28125 13.890625 
Q 47.125 21.390625 47.125 36.375 
Q 47.125 51.421875 43.28125 58.90625 
Q 39.453125 66.40625 31.78125 66.40625 
z
M 31.78125 74.21875 
Q 44.046875 74.21875 50.515625 64.515625 
Q 56.984375 54.828125 56.984375 36.375 
Q 56.984375 17.96875 50.515625 8.265625 
Q 44.046875 -1.421875 31.78125 -1.421875 
Q 19.53125 -1.421875 13.0625 8.265625 
Q 6.59375 17.96875 6.59375 36.375 
Q 6.59375 54.828125 13.0625 64.515625 
Q 19.53125 74.21875 31.78125 74.21875 
z
" id="DejaVuSans-48"/>
      </defs>
      <g transform="translate(135.255114 399.078438)scale(0.1 -0.1)">
       <use xlink:href="#DejaVuSans-48"/>
      </g>
     </g>
    </g>
    <g id="xtick_2">
     <g id="line2d_2">
      <g>
       <use style="stroke:#000000;stroke-width:0.8;" x="229.074731" xlink:href="#m2073585900" y="384.48"/>
      </g>
     </g>
     <g id="text_2">
      <!-- 250 -->
      <defs>
       <path d="M 19.1875 8.296875 
L 53.609375 8.296875 
L 53.609375 0 
L 7.328125 0 
L 7.328125 8.296875 
Q 12.9375 14.109375 22.625 23.890625 
Q 32.328125 33.6875 34.8125 36.53125 
Q 39.546875 41.84375 41.421875 45.53125 
Q 43.3125 49.21875 43.3125 52.78125 
Q 43.3125 58.59375 39.234375 62.25 
Q 35.15625 65.921875 28.609375 65.921875 
Q 23.96875 65.921875 18.8125 64.3125 
Q 13.671875 62.703125 7.8125 59.421875 
L 7.8125 69.390625 
Q 13.765625 71.78125 18.9375 73 
Q 24.125 74.21875 28.421875 74.21875 
Q 39.75 74.21875 46.484375 68.546875 
Q 53.21875 62.890625 53.21875 53.421875 
Q 53.21875 48.921875 51.53125 44.890625 
Q 49.859375 40.875 45.40625 35.40625 
Q 44.1875 33.984375 37.640625 27.21875 
Q 31.109375 20.453125 19.1875 8.296875 
z
" id="DejaVuSans-50"/>
       <path d="M 10.796875 72.90625 
L 49.515625 72.90625 
L 49.515625 64.59375 
L 19.828125 64.59375 
L 19.828125 46.734375 
Q 21.96875 47.46875 24.109375 47.828125 
Q 26.265625 48.1875 28.421875 48.1875 
Q 40.625 48.1875 47.75 41.5 
Q 54.890625 34.8125 54.890625 23.390625 
Q 54.890625 11.625 47.5625 5.09375 
Q 40.234375 -1.421875 26.90625 -1.421875 
Q 22.3125 -1.421875 17.546875 -0.640625 
Q 12.796875 0.140625 7.71875 1.703125 
L 7.71875 11.625 
Q 12.109375 9.234375 16.796875 8.0625 
Q 21.484375 6.890625 26.703125 6.890625 
Q 35.15625 6.890625 40.078125 11.328125 
Q 45.015625 15.765625 45.015625 23.390625 
Q 45.015625 31 40.078125 35.4375 
Q 35.15625 39.890625 26.703125 39.890625 
Q 22.75 39.890625 18.8125 39.015625 
Q 14.890625 38.140625 10.796875 36.28125 
z
" id="DejaVuSans-53"/>
      </defs>
      <g transform="translate(219.530981 399.078438)scale(0.1 -0.1)">
       <use xlink:href="#DejaVuSans-50"/>
       <use x="63.623047" xlink:href="#DejaVuSans-53"/>
       <use x="127.246094" xlink:href="#DejaVuSans-48"/>
      </g>
     </g>
    </g>
    <g id="xtick_3">
     <g id="line2d_3">
      <g>
       <use style="stroke:#000000;stroke-width:0.8;" x="319.713098" xlink:href="#m2073585900" y="384.48"/>
      </g>
     </g>
     <g id="text_3">
      <!-- 500 -->
      <g transform="translate(310.169348 399.078438)scale(0.1 -0.1)">
       <use xlink:href="#DejaVuSans-53"/>
       <use x="63.623047" xlink:href="#DejaVuSans-48"/>
       <use x="127.246094" xlink:href="#DejaVuSans-48"/>
      </g>
     </g>
    </g>
    <g id="xtick_4">
     <g id="line2d_4">
      <g>
       <use style="stroke:#000000;stroke-width:0.8;" x="410.351465" xlink:href="#m2073585900" y="384.48"/>
      </g>
     </g>
     <g id="text_4">
      <!-- 750 -->
      <defs>
       <path d="M 8.203125 72.90625 
L 55.078125 72.90625 
L 55.078125 68.703125 
L 28.609375 0 
L 18.3125 0 
L 43.21875 64.59375 
L 8.203125 64.59375 
z
" id="DejaVuSans-55"/>
      </defs>
      <g transform="translate(400.807715 399.078438)scale(0.1 -0.1)">
       <use xlink:href="#DejaVuSans-55"/>
       <use x="63.623047" xlink:href="#DejaVuSans-53"/>
       <use x="127.246094" xlink:href="#DejaVuSans-48"/>
      </g>
     </g>
    </g>
    <g id="xtick_5">
     <g id="line2d_5">
      <g>
       <use style="stroke:#000000;stroke-width:0.8;" x="500.989832" xlink:href="#m2073585900" y="384.48"/>
      </g>
     </g>
     <g id="text_5">
      <!-- 1000 -->
      <defs>
       <path d="M 12.40625 8.296875 
L 28.515625 8.296875 
L 28.515625 63.921875 
L 10.984375 60.40625 
L 10.984375 69.390625 
L 28.421875 72.90625 
L 38.28125 72.90625 
L 38.28125 8.296875 
L 54.390625 8.296875 
L 54.390625 0 
L 12.40625 0 
z
" id="DejaVuSans-49"/>
      </defs>
      <g transform="translate(488.264832 399.078438)scale(0.1 -0.1)">
       <use xlink:href="#DejaVuSans-49"/>
       <use x="63.623047" xlink:href="#DejaVuSans-48"/>
       <use x="127.246094" xlink:href="#DejaVuSans-48"/>
       <use x="190.869141" xlink:href="#DejaVuSans-48"/>
      </g>
     </g>
    </g>
    <g id="xtick_6">
     <g id="line2d_6">
      <g>
       <use style="stroke:#000000;stroke-width:0.8;" x="591.628199" xlink:href="#m2073585900" y="384.48"/>
      </g>
     </g>
     <g id="text_6">
      <!-- 1250 -->
      <g transform="translate(578.903199 399.078438)scale(0.1 -0.1)">
       <use xlink:href="#DejaVuSans-49"/>
       <use x="63.623047" xlink:href="#DejaVuSans-50"/>
       <use x="127.246094" xlink:href="#DejaVuSans-53"/>
       <use x="190.869141" xlink:href="#DejaVuSans-48"/>
      </g>
     </g>
    </g>
    <g id="xtick_7">
     <g id="line2d_7">
      <g>
       <use style="stroke:#000000;stroke-width:0.8;" x="682.266566" xlink:href="#m2073585900" y="384.48"/>
      </g>
     </g>
     <g id="text_7">
      <!-- 1500 -->
      <g transform="translate(669.541566 399.078438)scale(0.1 -0.1)">
       <use xlink:href="#DejaVuSans-49"/>
       <use x="63.623047" xlink:href="#DejaVuSans-53"/>
       <use x="127.246094" xlink:href="#DejaVuSans-48"/>
       <use x="190.869141" xlink:href="#DejaVuSans-48"/>
      </g>
     </g>
    </g>
    <g id="xtick_8">
     <g id="line2d_8">
      <g>
       <use style="stroke:#000000;stroke-width:0.8;" x="772.904933" xlink:href="#m2073585900" y="384.48"/>
      </g>
     </g>
     <g id="text_8">
      <!-- 1750 -->
      <g transform="translate(760.179933 399.078438)scale(0.1 -0.1)">
       <use xlink:href="#DejaVuSans-49"/>
       <use x="63.623047" xlink:href="#DejaVuSans-55"/>
       <use x="127.246094" xlink:href="#DejaVuSans-53"/>
       <use x="190.869141" xlink:href="#DejaVuSans-48"/>
      </g>
     </g>
    </g>
    <g id="text_9">
     <!-- Timestamp -->
     <defs>
      <path d="M -0.296875 72.90625 
L 61.375 72.90625 
L 61.375 64.59375 
L 35.5 64.59375 
L 35.5 0 
L 25.59375 0 
L 25.59375 64.59375 
L -0.296875 64.59375 
z
" id="DejaVuSans-84"/>
      <path d="M 9.421875 54.6875 
L 18.40625 54.6875 
L 18.40625 0 
L 9.421875 0 
z
M 9.421875 75.984375 
L 18.40625 75.984375 
L 18.40625 64.59375 
L 9.421875 64.59375 
z
" id="DejaVuSans-105"/>
      <path d="M 52 44.1875 
Q 55.375 50.25 60.0625 53.125 
Q 64.75 56 71.09375 56 
Q 79.640625 56 84.28125 50.015625 
Q 88.921875 44.046875 88.921875 33.015625 
L 88.921875 0 
L 79.890625 0 
L 79.890625 32.71875 
Q 79.890625 40.578125 77.09375 44.375 
Q 74.3125 48.1875 68.609375 48.1875 
Q 61.625 48.1875 57.5625 43.546875 
Q 53.515625 38.921875 53.515625 30.90625 
L 53.515625 0 
L 44.484375 0 
L 44.484375 32.71875 
Q 44.484375 40.625 41.703125 44.40625 
Q 38.921875 48.1875 33.109375 48.1875 
Q 26.21875 48.1875 22.15625 43.53125 
Q 18.109375 38.875 18.109375 30.90625 
L 18.109375 0 
L 9.078125 0 
L 9.078125 54.6875 
L 18.109375 54.6875 
L 18.109375 46.1875 
Q 21.1875 51.21875 25.484375 53.609375 
Q 29.78125 56 35.6875 56 
Q 41.65625 56 45.828125 52.96875 
Q 50 49.953125 52 44.1875 
z
" id="DejaVuSans-109"/>
      <path d="M 56.203125 29.59375 
L 56.203125 25.203125 
L 14.890625 25.203125 
Q 15.484375 15.921875 20.484375 11.0625 
Q 25.484375 6.203125 34.421875 6.203125 
Q 39.59375 6.203125 44.453125 7.46875 
Q 49.3125 8.734375 54.109375 11.28125 
L 54.109375 2.78125 
Q 49.265625 0.734375 44.1875 -0.34375 
Q 39.109375 -1.421875 33.890625 -1.421875 
Q 20.796875 -1.421875 13.15625 6.1875 
Q 5.515625 13.8125 5.515625 26.8125 
Q 5.515625 40.234375 12.765625 48.109375 
Q 20.015625 56 32.328125 56 
Q 43.359375 56 49.78125 48.890625 
Q 56.203125 41.796875 56.203125 29.59375 
z
M 47.21875 32.234375 
Q 47.125 39.59375 43.09375 43.984375 
Q 39.0625 48.390625 32.421875 48.390625 
Q 24.90625 48.390625 20.390625 44.140625 
Q 15.875 39.890625 15.1875 32.171875 
z
" id="DejaVuSans-101"/>
      <path d="M 44.28125 53.078125 
L 44.28125 44.578125 
Q 40.484375 46.53125 36.375 47.5 
Q 32.28125 48.484375 27.875 48.484375 
Q 21.1875 48.484375 17.84375 46.4375 
Q 14.5 44.390625 14.5 40.28125 
Q 14.5 37.15625 16.890625 35.375 
Q 19.28125 33.59375 26.515625 31.984375 
L 29.59375 31.296875 
Q 39.15625 29.25 43.1875 25.515625 
Q 47.21875 21.78125 47.21875 15.09375 
Q 47.21875 7.46875 41.1875 3.015625 
Q 35.15625 -1.421875 24.609375 -1.421875 
Q 20.21875 -1.421875 15.453125 -0.5625 
Q 10.6875 0.296875 5.421875 2 
L 5.421875 11.28125 
Q 10.40625 8.6875 15.234375 7.390625 
Q 20.0625 6.109375 24.8125 6.109375 
Q 31.15625 6.109375 34.5625 8.28125 
Q 37.984375 10.453125 37.984375 14.40625 
Q 37.984375 18.0625 35.515625 20.015625 
Q 33.0625 21.96875 24.703125 23.78125 
L 21.578125 24.515625 
Q 13.234375 26.265625 9.515625 29.90625 
Q 5.8125 33.546875 5.8125 39.890625 
Q 5.8125 47.609375 11.28125 51.796875 
Q 16.75 56 26.8125 56 
Q 31.78125 56 36.171875 55.265625 
Q 40.578125 54.546875 44.28125 53.078125 
z
" id="DejaVuSans-115"/>
      <path d="M 18.3125 70.21875 
L 18.3125 54.6875 
L 36.8125 54.6875 
L 36.8125 47.703125 
L 18.3125 47.703125 
L 18.3125 18.015625 
Q 18.3125 11.328125 20.140625 9.421875 
Q 21.96875 7.515625 27.59375 7.515625 
L 36.8125 7.515625 
L 36.8125 0 
L 27.59375 0 
Q 17.1875 0 13.234375 3.875 
Q 9.28125 7.765625 9.28125 18.015625 
L 9.28125 47.703125 
L 2.6875 47.703125 
L 2.6875 54.6875 
L 9.28125 54.6875 
L 9.28125 70.21875 
z
" id="DejaVuSans-116"/>
      <path d="M 34.28125 27.484375 
Q 23.390625 27.484375 19.1875 25 
Q 14.984375 22.515625 14.984375 16.5 
Q 14.984375 11.71875 18.140625 8.90625 
Q 21.296875 6.109375 26.703125 6.109375 
Q 34.1875 6.109375 38.703125 11.40625 
Q 43.21875 16.703125 43.21875 25.484375 
L 43.21875 27.484375 
z
M 52.203125 31.203125 
L 52.203125 0 
L 43.21875 0 
L 43.21875 8.296875 
Q 40.140625 3.328125 35.546875 0.953125 
Q 30.953125 -1.421875 24.3125 -1.421875 
Q 15.921875 -1.421875 10.953125 3.296875 
Q 6 8.015625 6 15.921875 
Q 6 25.140625 12.171875 29.828125 
Q 18.359375 34.515625 30.609375 34.515625 
L 43.21875 34.515625 
L 43.21875 35.40625 
Q 43.21875 41.609375 39.140625 45 
Q 35.0625 48.390625 27.6875 48.390625 
Q 23 48.390625 18.546875 47.265625 
Q 14.109375 46.140625 10.015625 43.890625 
L 10.015625 52.203125 
Q 14.9375 54.109375 19.578125 55.046875 
Q 24.21875 56 28.609375 56 
Q 40.484375 56 46.34375 49.84375 
Q 52.203125 43.703125 52.203125 31.203125 
z
" id="DejaVuSans-97"/>
      <path d="M 18.109375 8.203125 
L 18.109375 -20.796875 
L 9.078125 -20.796875 
L 9.078125 54.6875 
L 18.109375 54.6875 
L 18.109375 46.390625 
Q 20.953125 51.265625 25.265625 53.625 
Q 29.59375 56 35.59375 56 
Q 45.5625 56 51.78125 48.09375 
Q 58.015625 40.1875 58.015625 27.296875 
Q 58.015625 14.40625 51.78125 6.484375 
Q 45.5625 -1.421875 35.59375 -1.421875 
Q 29.59375 -1.421875 25.265625 0.953125 
Q 20.953125 3.328125 18.109375 8.203125 
z
M 48.6875 27.296875 
Q 48.6875 37.203125 44.609375 42.84375 
Q 40.53125 48.484375 33.40625 48.484375 
Q 26.265625 48.484375 22.1875 42.84375 
Q 18.109375 37.203125 18.109375 27.296875 
Q 18.109375 17.390625 22.1875 11.75 
Q 26.265625 6.109375 33.40625 6.109375 
Q 40.53125 6.109375 44.609375 11.75 
Q 48.6875 17.390625 48.6875 27.296875 
z
" id="DejaVuSans-112"/>
     </defs>
     <g transform="translate(414.739062 412.756563)scale(0.1 -0.1)">
      <use xlink:href="#DejaVuSans-84"/>
      <use x="61.037109" xlink:href="#DejaVuSans-105"/>
      <use x="88.820312" xlink:href="#DejaVuSans-109"/>
      <use x="186.232422" xlink:href="#DejaVuSans-101"/>
      <use x="247.755859" xlink:href="#DejaVuSans-115"/>
      <use x="299.855469" xlink:href="#DejaVuSans-116"/>
      <use x="339.064453" xlink:href="#DejaVuSans-97"/>
      <use x="400.34375" xlink:href="#DejaVuSans-109"/>
      <use x="497.755859" xlink:href="#DejaVuSans-112"/>
     </g>
    </g>
   </g>
   <g id="matplotlib.axis_2">
    <g id="ytick_1">
     <g id="line2d_9">
      <defs>
       <path d="M 0 0 
L -3.5 0 
" id="me90a6337ec" style="stroke:#000000;stroke-width:0.8;"/>
      </defs>
      <g>
       <use style="stroke:#000000;stroke-width:0.8;" x="108" xlink:href="#me90a6337ec" y="364.785454"/>
      </g>
     </g>
     <g id="text_10">
      <!-- −1500 -->
      <defs>
       <path d="M 10.59375 35.5 
L 73.1875 35.5 
L 73.1875 27.203125 
L 10.59375 27.203125 
z
" id="DejaVuSans-8722"/>
      </defs>
      <g transform="translate(67.170312 368.584673)scale(0.1 -0.1)">
       <use xlink:href="#DejaVuSans-8722"/>
       <use x="83.789062" xlink:href="#DejaVuSans-49"/>
       <use x="147.412109" xlink:href="#DejaVuSans-53"/>
       <use x="211.035156" xlink:href="#DejaVuSans-48"/>
       <use x="274.658203" xlink:href="#DejaVuSans-48"/>
      </g>
     </g>
    </g>
    <g id="ytick_2">
     <g id="line2d_10">
      <g>
       <use style="stroke:#000000;stroke-width:0.8;" x="108" xlink:href="#me90a6337ec" y="325.126924"/>
      </g>
     </g>
     <g id="text_11">
      <!-- −1000 -->
      <g transform="translate(67.170312 328.926142)scale(0.1 -0.1)">
       <use xlink:href="#DejaVuSans-8722"/>
       <use x="83.789062" xlink:href="#DejaVuSans-49"/>
       <use x="147.412109" xlink:href="#DejaVuSans-48"/>
       <use x="211.035156" xlink:href="#DejaVuSans-48"/>
       <use x="274.658203" xlink:href="#DejaVuSans-48"/>
      </g>
     </g>
    </g>
    <g id="ytick_3">
     <g id="line2d_11">
      <g>
       <use style="stroke:#000000;stroke-width:0.8;" x="108" xlink:href="#me90a6337ec" y="285.468393"/>
      </g>
     </g>
     <g id="text_12">
      <!-- −500 -->
      <g transform="translate(73.532813 289.267612)scale(0.1 -0.1)">
       <use xlink:href="#DejaVuSans-8722"/>
       <use x="83.789062" xlink:href="#DejaVuSans-53"/>
       <use x="147.412109" xlink:href="#DejaVuSans-48"/>
       <use x="211.035156" xlink:href="#DejaVuSans-48"/>
      </g>
     </g>
    </g>
    <g id="ytick_4">
     <g id="line2d_12">
      <g>
       <use style="stroke:#000000;stroke-width:0.8;" x="108" xlink:href="#me90a6337ec" y="245.809862"/>
      </g>
     </g>
     <g id="text_13">
      <!-- 0 -->
      <g transform="translate(94.6375 249.609081)scale(0.1 -0.1)">
       <use xlink:href="#DejaVuSans-48"/>
      </g>
     </g>
    </g>
    <g id="ytick_5">
     <g id="line2d_13">
      <g>
       <use style="stroke:#000000;stroke-width:0.8;" x="108" xlink:href="#me90a6337ec" y="206.151331"/>
      </g>
     </g>
     <g id="text_14">
      <!-- 500 -->
      <g transform="translate(81.9125 209.95055)scale(0.1 -0.1)">
       <use xlink:href="#DejaVuSans-53"/>
       <use x="63.623047" xlink:href="#DejaVuSans-48"/>
       <use x="127.246094" xlink:href="#DejaVuSans-48"/>
      </g>
     </g>
    </g>
    <g id="ytick_6">
     <g id="line2d_14">
      <g>
       <use style="stroke:#000000;stroke-width:0.8;" x="108" xlink:href="#me90a6337ec" y="166.492801"/>
      </g>
     </g>
     <g id="text_15">
      <!-- 1000 -->
      <g transform="translate(75.55 170.29202)scale(0.1 -0.1)">
       <use xlink:href="#DejaVuSans-49"/>
       <use x="63.623047" xlink:href="#DejaVuSans-48"/>
       <use x="127.246094" xlink:href="#DejaVuSans-48"/>
       <use x="190.869141" xlink:href="#DejaVuSans-48"/>
      </g>
     </g>
    </g>
    <g id="ytick_7">
     <g id="line2d_15">
      <g>
       <use style="stroke:#000000;stroke-width:0.8;" x="108" xlink:href="#me90a6337ec" y="126.83427"/>
      </g>
     </g>
     <g id="text_16">
      <!-- 1500 -->
      <g transform="translate(75.55 130.633489)scale(0.1 -0.1)">
       <use xlink:href="#DejaVuSans-49"/>
       <use x="63.623047" xlink:href="#DejaVuSans-53"/>
       <use x="127.246094" xlink:href="#DejaVuSans-48"/>
       <use x="190.869141" xlink:href="#DejaVuSans-48"/>
      </g>
     </g>
    </g>
    <g id="ytick_8">
     <g id="line2d_16">
      <g>
       <use style="stroke:#000000;stroke-width:0.8;" x="108" xlink:href="#me90a6337ec" y="87.175739"/>
      </g>
     </g>
     <g id="text_17">
      <!-- 2000 -->
      <g transform="translate(75.55 90.974958)scale(0.1 -0.1)">
       <use xlink:href="#DejaVuSans-50"/>
       <use x="63.623047" xlink:href="#DejaVuSans-48"/>
       <use x="127.246094" xlink:href="#DejaVuSans-48"/>
       <use x="190.869141" xlink:href="#DejaVuSans-48"/>
      </g>
     </g>
    </g>
    <g id="text_18">
     <!-- Value -->
     <defs>
      <path d="M 28.609375 0 
L 0.78125 72.90625 
L 11.078125 72.90625 
L 34.1875 11.53125 
L 57.328125 72.90625 
L 67.578125 72.90625 
L 39.796875 0 
z
" id="DejaVuSans-86"/>
      <path d="M 9.421875 75.984375 
L 18.40625 75.984375 
L 18.40625 0 
L 9.421875 0 
z
" id="DejaVuSans-108"/>
      <path d="M 8.5 21.578125 
L 8.5 54.6875 
L 17.484375 54.6875 
L 17.484375 21.921875 
Q 17.484375 14.15625 20.5 10.265625 
Q 23.53125 6.390625 29.59375 6.390625 
Q 36.859375 6.390625 41.078125 11.03125 
Q 45.3125 15.671875 45.3125 23.6875 
L 45.3125 54.6875 
L 54.296875 54.6875 
L 54.296875 0 
L 45.3125 0 
L 45.3125 8.40625 
Q 42.046875 3.421875 37.71875 1 
Q 33.40625 -1.421875 27.6875 -1.421875 
Q 18.265625 -1.421875 13.375 4.4375 
Q 8.5 10.296875 8.5 21.578125 
z
M 31.109375 56 
z
" id="DejaVuSans-117"/>
     </defs>
     <g transform="translate(61.090625 232.273281)rotate(-90)scale(0.1 -0.1)">
      <use xlink:href="#DejaVuSans-86"/>
      <use x="68.298828" xlink:href="#DejaVuSans-97"/>
      <use x="129.578125" xlink:href="#DejaVuSans-108"/>
      <use x="157.361328" xlink:href="#DejaVuSans-117"/>
      <use x="220.740234" xlink:href="#DejaVuSans-101"/>
     </g>
    </g>
   </g>
   <g id="line2d_17">
    <path clip-path="url(#pc9d8e25a6d)" d="M 138.436364 246.836 
L 139.161471 186.743213 
L 139.524024 180.019915 
L 139.886578 182.205761 
L 140.249131 187.891557 
L 141.336791 251.172712 
L 141.699345 256.381346 
L 142.061898 258.373091 
L 142.424452 247.285631 
L 142.787005 353.376304 
L 143.149559 216.200013 
L 143.512112 213.787296 
L 143.874666 212.402815 
L 144.237219 221.517068 
L 144.599773 234.287739 
L 145.32488 281.061336 
L 145.687433 287.559325 
L 146.049986 290.269664 
L 146.41254 279.550253 
L 147.862754 170.082687 
L 148.225307 155.530632 
L 148.587861 154.782128 
L 148.950414 170.301947 
L 149.675521 211.336435 
L 150.038075 230.395035 
L 150.400628 240.096206 
L 150.763182 239.47252 
L 151.125735 233.877402 
L 152.213395 193.810315 
L 152.575949 195.769629 
L 153.663609 244.037872 
L 154.026163 269.207278 
L 154.388716 283.183585 
L 154.75127 284.608476 
L 155.113823 270.86579 
L 155.83893 216.450171 
L 156.564037 166.181505 
L 156.926591 152.549527 
L 157.289144 151.274467 
L 158.014251 190.235018 
L 158.376804 216.495075 
L 158.739358 226.550554 
L 159.101911 245.098318 
L 159.464465 244.712103 
L 159.827018 235.619058 
L 160.189572 219.012484 
L 160.552125 215.347803 
L 160.914679 203.302801 
L 161.277232 202.83635 
L 162.002339 232.127099 
L 162.727446 285.887449 
L 163.452553 295.79465 
L 164.17766 263.442775 
L 164.902767 203.341885 
L 165.627874 172.338955 
L 165.990427 175.012464 
L 166.352981 184.294924 
L 167.078088 227.265132 
L 167.440641 249.551116 
L 167.803195 262.075448 
L 168.165748 266.909713 
L 168.528301 263.443698 
L 169.253408 230.657167 
L 169.615962 231.441571 
L 169.978515 230.736312 
L 170.341069 241.188226 
L 170.703622 258.632675 
L 171.428729 301.013038 
L 171.791283 320.430301 
L 172.153836 321.642429 
L 172.51639 312.238914 
L 172.878943 288.630397 
L 173.241497 256.022983 
L 174.329157 195.060623 
L 174.69171 199.316434 
L 175.054264 211.030047 
L 175.779371 252.57443 
L 176.141924 272.780847 
L 176.504478 286.15716 
L 176.867031 284.870662 
L 177.229585 279.542564 
L 178.317245 246.80152 
L 178.679799 249.478365 
L 179.042352 259.770703 
L 179.404906 279.89221 
L 179.767459 307.882512 
L 180.130012 325.220384 
L 180.492566 336.933963 
L 180.855119 338.166172 
L 181.580226 302.303175 
L 181.94278 266.432402 
L 183.03044 207.807785 
L 183.755547 225.374808 
L 184.118101 240.340559 
L 184.480654 267.204819 
L 185.205761 296.960904 
L 185.568314 291.530254 
L 185.930868 289.272364 
L 186.655975 257.391417 
L 187.018528 250.230887 
L 187.381082 251.326536 
L 187.743635 263.196964 
L 188.106189 284.14817 
L 188.468742 296.139986 
L 188.831296 322.793107 
L 189.193849 335.414904 
L 189.556403 334.838599 
L 189.918956 323.430289 
L 190.644063 266.212496 
L 191.36917 217.29718 
L 191.731723 203.365541 
L 192.094277 201.389139 
L 192.45683 215.142089 
L 193.544491 269.412307 
L 193.907044 280.916704 
L 194.269598 281.108866 
L 194.632151 273.493988 
L 194.994705 260.038635 
L 195.357258 241.831581 
L 195.719812 233.307966 
L 196.082365 235.216448 
L 196.807472 258.572195 
L 197.532579 305.234686 
L 197.895132 319.004985 
L 198.257686 312.248298 
L 198.620239 297.465612 
L 199.345346 247.331057 
L 200.070453 192.45313 
L 200.433007 180.625104 
L 200.79556 179.841319 
L 201.158114 190.521285 
L 202.608327 257.592975 
L 202.970881 257.519982 
L 203.333434 250.766057 
L 203.695988 238.721122 
L 204.058541 221.489039 
L 204.421095 211.258436 
L 204.783648 208.657308 
L 205.146202 221.130669 
L 206.233862 278.089269 
L 206.596416 286.852691 
L 206.958969 287.849984 
L 207.321523 277.378586 
L 208.046629 226.434268 
L 208.409183 194.005224 
L 209.13429 159.01867 
L 209.496843 157.077832 
L 210.22195 182.190842 
L 210.584504 210.603452 
L 210.947057 229.412178 
L 211.309611 242.341532 
L 211.672164 238.305533 
L 212.034718 228.92505 
L 212.759825 202.40753 
L 213.122378 195.015015 
L 213.484932 198.320186 
L 213.847485 205.765858 
L 214.210038 223.502572 
L 214.572592 251.48702 
L 215.297699 283.731447 
L 215.660252 281.396186 
L 216.022806 268.784656 
L 216.385359 250.573277 
L 216.747913 214.858223 
L 217.47302 166.495377 
L 217.835573 151.537676 
L 218.198127 157.56576 
L 218.923234 188.375258 
L 219.285787 205.535092 
L 219.64834 233.397313 
L 220.010894 243.144602 
L 220.373447 242.814133 
L 220.736001 234.560553 
L 221.461108 208.392929 
L 221.823661 201.378265 
L 222.186215 206.16151 
L 222.548768 214.933518 
L 223.273875 255.151628 
L 223.636429 282.417027 
L 223.998982 296.31459 
L 224.361536 293.481711 
L 224.724089 286.774395 
L 225.449196 232.706303 
L 225.811749 203.523596 
L 226.174303 183.935936 
L 226.536856 171.896038 
L 226.89941 172.855904 
L 227.261963 184.636335 
L 228.712177 266.335648 
L 229.074731 263.350776 
L 229.437284 258.945016 
L 230.162391 234.340021 
L 230.524945 231.41224 
L 230.887498 226.848812 
L 231.975158 284.222889 
L 232.700265 322.172046 
L 233.062819 322.112591 
L 233.425372 310.018202 
L 234.875586 203.408094 
L 235.23814 193.76612 
L 235.600693 196.263748 
L 235.963247 211.359515 
L 237.050907 272.474055 
L 237.41346 284.04159 
L 237.776014 291.62019 
L 238.501121 268.224667 
L 238.863674 253.925647 
L 239.226228 248.503846 
L 239.588781 249.136475 
L 240.313888 278.58763 
L 241.038995 322.624154 
L 241.401549 336.098153 
L 241.764102 335.470029 
L 242.126655 322.371093 
L 242.851762 271.391094 
L 243.576869 221.517203 
L 243.939423 209.046924 
L 244.301976 212.749469 
L 244.66453 221.456725 
L 245.027083 238.627095 
L 245.389637 266.675031 
L 246.114744 293.646407 
L 246.477297 291.54992 
L 246.839851 287.944267 
L 247.202404 271.87251 
L 247.927511 249.081123 
L 248.290064 252.564664 
L 248.652618 264.879325 
L 249.015171 282.833323 
L 249.377725 307.83442 
L 250.102832 333.395115 
L 250.465385 333.38821 
L 250.827939 318.735418 
L 251.553046 270.293852 
L 251.915599 235.667449 
L 252.278153 211.687713 
L 252.640706 207.23149 
L 253.00326 201.207134 
L 253.365813 212.383021 
L 254.453473 273.923692 
L 254.816027 280.486147 
L 255.17858 273.850715 
L 255.541134 270.592707 
L 255.903687 259.594841 
L 256.266241 243.904558 
L 256.628794 237.659521 
L 256.991348 238.264156 
L 257.353901 243.700189 
L 258.079008 286.019703 
L 258.804115 314.940986 
L 259.166668 314.880405 
L 259.529222 302.138091 
L 260.979436 195.701795 
L 261.341989 180.446224 
L 262.067096 187.311874 
L 262.42965 204.498854 
L 263.154757 247.250979 
L 263.51731 255.422593 
L 263.879864 257.085709 
L 264.242417 247.28709 
L 264.60497 240.728053 
L 264.967524 216.680169 
L 265.330077 210.067454 
L 265.692631 210.157713 
L 266.055184 216.855428 
L 267.142845 280.113448 
L 267.505398 293.360247 
L 267.867952 291.568565 
L 268.230505 280.179245 
L 268.593059 255.248255 
L 269.318166 189.85587 
L 270.043273 155.866638 
L 270.405826 159.322345 
L 270.768379 165.210598 
L 271.493486 213.282359 
L 272.218593 237.978523 
L 272.581147 239.53016 
L 272.9437 232.771499 
L 273.668807 206.69651 
L 274.031361 196.908201 
L 274.393914 199.390777 
L 275.119021 221.241557 
L 275.481575 249.469549 
L 275.844128 261.1567 
L 276.206681 281.789822 
L 276.569235 280.505881 
L 276.931788 271.991595 
L 277.656895 217.699461 
L 278.382002 163.56682 
L 278.744556 151.598233 
L 279.107109 156.270852 
L 280.19477 208.916412 
L 280.557323 231.108531 
L 280.919877 239.371561 
L 281.28243 241.88092 
L 281.644983 237.007281 
L 282.37009 207.507526 
L 282.732644 203.850449 
L 283.095197 202.352196 
L 283.820304 237.824966 
L 284.907965 297.280563 
L 285.270518 297.50026 
L 285.633072 282.983588 
L 286.358179 237.052599 
L 286.720732 204.353768 
L 287.083286 182.075715 
L 287.445839 174.36834 
L 287.808392 174.375513 
L 288.170946 186.996954 
L 289.62116 260.303749 
L 289.983713 268.929593 
L 290.346267 260.605763 
L 290.70882 243.940189 
L 291.071374 234.029626 
L 291.796481 225.393821 
L 292.159034 239.945689 
L 293.609248 321.738392 
L 293.971801 320.826549 
L 294.334355 308.853934 
L 294.696908 287.544736 
L 295.784569 205.8923 
L 296.147122 193.1947 
L 296.509676 199.070706 
L 297.234783 229.768508 
L 297.597336 262.047953 
L 297.95989 272.113706 
L 298.322443 289.717408 
L 298.684996 290.118981 
L 299.04755 284.153824 
L 299.772657 257.589958 
L 300.13521 249.088106 
L 300.497764 245.472046 
L 300.860317 259.140718 
L 301.947978 325.038984 
L 302.673085 338.61311 
L 303.035638 326.849044 
L 303.760745 271.283503 
L 304.485852 219.567187 
L 304.848405 211.242741 
L 305.210959 205.518457 
L 305.573512 223.946172 
L 305.936066 248.048862 
L 306.298619 262.385904 
L 307.023726 297.417006 
L 307.38628 295.602165 
L 307.748833 288.164393 
L 308.47394 257.422601 
L 308.836494 369.36 
L 309.199047 248.968497 
L 309.561601 266.602057 
L 309.924154 277.271924 
L 310.649261 325.168066 
L 311.011814 332.371994 
L 311.374368 333.263702 
L 311.736921 320.610099 
L 312.462028 268.527819 
L 312.824582 234.872933 
L 313.187135 212.657696 
L 313.549689 201.854961 
L 313.912242 201.307666 
L 314.274796 212.081724 
L 314.999903 257.609776 
L 315.725009 281.171942 
L 316.087563 279.444529 
L 316.450116 272.794761 
L 316.81267 252.479353 
L 317.175223 245.891974 
L 317.537777 234.062394 
L 317.90033 233.393267 
L 318.625437 257.907479 
L 319.350544 302.013888 
L 319.713098 313.195431 
L 320.075651 316.754854 
L 320.800758 275.008328 
L 321.888418 191.515899 
L 322.250972 177.073759 
L 322.613525 175.541019 
L 324.063739 246.068372 
L 324.426293 256.704384 
L 324.788846 254.608296 
L 325.1514 245.993598 
L 326.23906 214.415801 
L 326.601614 208.503456 
L 326.964167 221.240938 
L 327.32672 238.107585 
L 328.051827 283.656504 
L 328.414381 289.927851 
L 328.776934 288.703444 
L 329.139488 277.516725 
L 329.864595 222.602639 
L 330.227148 71.897933 
L 330.589702 172.959872 
L 330.952255 153.764171 
L 331.314809 159.494654 
L 331.677362 168.261584 
L 332.039916 183.994072 
L 332.402469 212.494614 
L 333.127576 241.874514 
L 333.490129 245.354322 
L 333.852683 234.180884 
L 334.215236 218.280397 
L 334.57779 323.154445 
L 334.940343 197.694455 
L 335.302897 193.761164 
L 336.028004 223.175806 
L 336.753111 270.759249 
L 337.115664 285.2263 
L 337.478218 281.521749 
L 337.840771 267.19785 
L 339.290985 170.41911 
L 339.653538 155.922459 
L 340.016092 156.566808 
L 340.741199 191.861938 
L 341.466306 230.466351 
L 341.828859 245.053068 
L 342.553966 235.300932 
L 343.641627 204.03227 
L 344.00418 207.392189 
L 344.366733 208.752259 
L 345.454394 281.707349 
L 346.179501 296.052088 
L 346.542054 287.063702 
L 346.904608 267.096549 
L 347.992268 184.949111 
L 348.354822 174.043302 
L 348.717375 173.788286 
L 349.079929 184.340888 
L 349.442482 211.659128 
L 349.805035 228.076821 
L 350.167589 254.075224 
L 350.892696 264.66774 
L 351.255249 257.053249 
L 351.980356 235.21885 
L 352.34291 229.017803 
L 352.705463 226.885127 
L 353.793124 286.393455 
L 354.155677 310.950663 
L 354.518231 320.091138 
L 354.880784 322.212415 
L 355.243337 307.590604 
L 355.968444 259.676724 
L 356.693551 209.703508 
L 357.056105 195.694432 
L 357.418658 198.153561 
L 358.143765 227.860906 
L 358.868872 277.55121 
L 359.231426 290.196665 
L 359.593979 286.976835 
L 360.68164 260.011877 
L 361.044193 245.739161 
L 361.406746 250.123566 
L 362.131853 281.129363 
L 363.219514 338.141462 
L 363.582067 339.221184 
L 363.944621 325.419405 
L 364.669728 272.568691 
L 365.032281 239.264554 
L 365.394835 227.03822 
L 365.757388 208.471661 
L 366.119942 209.94654 
L 366.482495 222.824289 
L 367.207602 266.201902 
L 367.932709 295.5862 
L 368.295262 295.58864 
L 368.657816 287.815513 
L 369.020369 275.577574 
L 369.382923 258.813696 
L 369.745476 250.350729 
L 370.470583 262.822319 
L 370.833137 276.259962 
L 371.558244 322.865847 
L 371.920797 337.648993 
L 372.28335 336.145067 
L 372.645904 319.191471 
L 374.458671 199.861371 
L 374.821225 202.233865 
L 375.183778 209.881341 
L 376.271439 270.170792 
L 376.633992 281.86928 
L 376.996546 285.423131 
L 377.359099 269.718973 
L 377.721652 260.097577 
L 378.084206 243.105542 
L 378.446759 231.365537 
L 378.809313 238.605781 
L 379.171866 248.741805 
L 379.53442 262.074447 
L 379.896973 284.990099 
L 380.62208 316.321198 
L 380.984634 314.690592 
L 381.709741 279.577665 
L 382.434848 213.617127 
L 382.797401 190.188131 
L 383.159955 177.219234 
L 383.522508 175.277438 
L 383.885061 186.419205 
L 384.972722 250.081139 
L 385.335275 255.494699 
L 385.697829 256.8742 
L 386.060382 248.816238 
L 387.148043 207.251184 
L 387.510596 206.662546 
L 387.87315 219.395975 
L 388.96081 282.643824 
L 389.323363 289.69705 
L 389.685917 292.561531 
L 390.411024 255.272077 
L 391.136131 194.000077 
L 391.861238 153.657851 
L 392.223791 157.37885 
L 392.586345 170.438574 
L 392.948898 187.597099 
L 393.311452 210.765392 
L 394.036559 240.117125 
L 394.399112 239.607599 
L 394.761665 236.489582 
L 395.486772 209.106702 
L 395.849326 194.06909 
L 396.211879 197.317394 
L 396.936986 225.238659 
L 397.662093 271.268838 
L 398.024647 280.779903 
L 398.3872 283.189784 
L 398.749754 268.692657 
L 399.112307 248.364168 
L 400.199968 165.518047 
L 400.562521 154.563787 
L 400.925074 156.315145 
L 401.287628 167.118068 
L 402.012735 208.71461 
L 402.375288 228.294568 
L 402.737842 241.135564 
L 403.100395 243.613697 
L 403.462949 238.705589 
L 404.188056 213.017926 
L 404.913163 201.387854 
L 405.275716 215.60871 
L 406.72593 293.318193 
L 407.088483 298.789704 
L 407.451037 285.655815 
L 408.176144 235.172461 
L 408.901251 178.90855 
L 409.263804 172.878097 
L 409.626358 173.663835 
L 409.988911 183.114316 
L 410.351465 213.951662 
L 410.714018 229.871515 
L 411.076572 253.228369 
L 411.439125 264.756074 
L 411.801678 265.673583 
L 412.164232 249.649094 
L 412.889339 234.229487 
L 413.251892 222.987705 
L 413.614446 226.98112 
L 414.339553 259.798101 
L 415.06466 303.544771 
L 415.427213 318.067515 
L 415.789767 318.142011 
L 416.514874 287.26471 
L 416.877427 263.100668 
L 417.239981 230.367845 
L 417.602534 207.900699 
L 417.965087 193.1869 
L 418.327641 196.866478 
L 418.690194 209.395734 
L 419.415301 256.703879 
L 420.140408 286.899334 
L 420.502962 290.412687 
L 421.953176 252.477857 
L 422.315729 251.769466 
L 422.678283 258.533409 
L 424.128496 339.801779 
L 424.49105 337.837212 
L 424.853603 325.440792 
L 425.941264 244.369519 
L 426.303817 217.297447 
L 426.666371 207.759103 
L 427.028924 209.790606 
L 427.391478 104.997532 
L 427.754031 243.900851 
L 428.479138 285.836121 
L 428.841691 295.537391 
L 429.204245 297.531264 
L 429.929352 277.882007 
L 430.291905 258.901601 
L 430.654459 250.943707 
L 431.017012 252.201188 
L 431.742119 278.541704 
L 432.467226 327.784913 
L 432.82978 327.000292 
L 433.192333 332.798961 
L 433.554887 319.92692 
L 433.91744 298.648645 
L 434.642547 234.628449 
L 435.0051 216.639397 
L 435.367654 205.961742 
L 435.730207 205.210861 
L 436.092761 211.531449 
L 436.455314 229.893206 
L 436.817868 254.814136 
L 437.180421 269.240472 
L 437.542975 277.60255 
L 437.905528 282.124515 
L 438.630635 260.301569 
L 438.993189 244.015661 
L 439.355742 236.817387 
L 439.718296 236.495738 
L 440.080849 241.945546 
L 441.168509 298.373586 
L 441.531063 313.067216 
L 441.893616 316.80406 
L 442.25617 300.440996 
L 442.618723 278.406472 
L 443.34383 216.568335 
L 443.706384 193.48063 
L 444.068937 177.557959 
L 444.431491 179.511399 
L 445.156598 206.912696 
L 445.881704 246.815818 
L 446.244258 255.464828 
L 446.606811 251.880163 
L 446.969365 246.717607 
L 448.057025 215.427359 
L 448.419579 208.922597 
L 448.782132 219.89167 
L 449.869793 280.680855 
L 450.232346 289.601926 
L 450.5949 294.645141 
L 450.957453 270.618911 
L 451.320006 255.18766 
L 452.407667 170.910354 
L 452.77022 154.459487 
L 453.132774 162.871751 
L 453.495327 165.896295 
L 454.582988 229.990841 
L 454.945541 241.731827 
L 455.670648 231.410703 
L 456.395755 207.362315 
L 456.758309 195.648658 
L 457.120862 194.482878 
L 457.845969 221.422111 
L 458.208522 251.815386 
L 458.933629 283.075616 
L 459.296183 278.967813 
L 459.658736 268.571603 
L 460.383843 219.767494 
L 460.746397 188.153885 
L 461.471504 154.24677 
L 461.834057 149.977365 
L 462.196611 166.714358 
L 462.921717 215.02267 
L 463.284271 231.50233 
L 463.646824 239.206545 
L 464.009378 239.466029 
L 464.371931 234.943673 
L 465.097038 212.016261 
L 465.459592 204.610043 
L 465.822145 203.941063 
L 466.184699 215.008042 
L 467.272359 279.319875 
L 467.634913 291.310833 
L 467.997466 298.751971 
L 468.360019 285.359408 
L 469.085126 233.182784 
L 469.44768 321.633974 
L 469.810233 179.077457 
L 470.172787 172.860416 
L 470.53534 173.1128 
L 470.897894 185.948033 
L 472.348108 258.884515 
L 472.710661 267.813549 
L 473.073215 258.605232 
L 473.798322 229.667932 
L 474.160875 228.915814 
L 474.523428 225.125785 
L 474.885982 239.894866 
L 476.336196 317.794255 
L 476.698749 319.405887 
L 477.061303 313.366127 
L 478.87407 194.170957 
L 479.236624 199.050389 
L 479.599177 211.533727 
L 480.686837 272.025339 
L 481.049391 285.353036 
L 481.411944 290.451326 
L 481.774498 277.633769 
L 482.137051 269.613924 
L 482.499605 250.917981 
L 482.862158 246.610316 
L 483.224712 251.275481 
L 483.949819 277.387691 
L 484.674926 324.429399 
L 485.037479 338.615013 
L 485.400032 335.70144 
L 485.762586 325.06725 
L 486.125139 305.086199 
L 486.850246 241.525189 
L 487.575353 209.013874 
L 487.937907 207.924664 
L 488.30046 218.484687 
L 488.663014 123.539729 
L 489.025567 264.68482 
L 489.750674 291.337191 
L 490.113228 298.247853 
L 491.563441 250.261966 
L 491.925995 246.872974 
L 493.013655 304.946283 
L 493.376209 325.691637 
L 493.738762 336.376895 
L 494.101316 335.500041 
L 494.463869 321.850188 
L 494.826423 301.93754 
L 495.188976 264.470855 
L 495.914083 214.010284 
L 496.276637 200.547586 
L 496.63919 203.717061 
L 497.001743 215.238725 
L 497.72685 249.706442 
L 498.089404 272.588511 
L 498.451957 282.726243 
L 498.814511 281.492492 
L 499.177064 270.022901 
L 499.902171 242.127087 
L 500.264725 233.063304 
L 500.627278 233.116215 
L 500.989832 239.483539 
L 502.077492 302.845697 
L 502.440045 317.257123 
L 502.802599 311.532606 
L 503.165152 300.144274 
L 503.890259 243.837195 
L 504.615366 191.197899 
L 504.97792 179.614384 
L 505.340473 182.235865 
L 506.06558 210.798928 
L 506.428134 232.259066 
L 507.153241 255.002796 
L 507.515794 257.667295 
L 507.878348 246.977271 
L 508.240901 232.609763 
L 508.603454 223.207557 
L 508.966008 210.550805 
L 509.328561 214.413751 
L 509.691115 220.3964 
L 510.778775 278.974526 
L 511.141329 290.924851 
L 511.503882 288.512879 
L 511.866436 279.833398 
L 512.228989 256.412525 
L 512.954096 191.515376 
L 513.31665 168.388264 
L 513.679203 160.469518 
L 514.041756 157.432641 
L 514.766863 186.268269 
L 515.49197 225.566876 
L 515.854524 238.27627 
L 516.217077 243.428576 
L 516.579631 233.536005 
L 516.942184 216.689196 
L 517.304738 206.308368 
L 518.029845 192.329202 
L 518.392398 204.260045 
L 519.117505 252.50182 
L 519.480058 270.535002 
L 519.842612 281.195815 
L 520.205165 279.115698 
L 520.567719 271.230662 
L 520.930272 249.800972 
L 521.655379 188.481987 
L 522.017933 169.017359 
L 522.380486 155.740611 
L 522.74304 159.401801 
L 523.105593 169.671319 
L 523.468147 189.509007 
L 524.193254 235.109601 
L 524.555807 240.558934 
L 524.91836 239.103787 
L 525.280914 240.217011 
L 525.643467 220.944715 
L 526.006021 328.439955 
L 526.368574 202.982929 
L 526.731128 206.870872 
L 527.456235 235.988049 
L 528.181342 277.932763 
L 528.543895 296.456131 
L 528.906449 295.819335 
L 529.269002 282.958532 
L 529.631556 263.958195 
L 529.994109 231.736602 
L 530.356663 210.642801 
L 530.719216 179.792967 
L 531.081769 174.19496 
L 531.444323 173.302943 
L 531.806876 184.886317 
L 532.894537 251.920972 
L 533.25709 260.180498 
L 533.619644 262.532518 
L 533.982197 258.111919 
L 534.707304 233.965861 
L 535.069858 226.677402 
L 535.432411 229.485826 
L 536.157518 261.486067 
L 536.882625 306.59815 
L 537.245178 317.690537 
L 537.607732 318.614097 
L 537.970285 305.441866 
L 538.332839 286.059271 
L 539.420499 210.519394 
L 539.783053 194.099948 
L 540.145606 196.552969 
L 540.870713 229.146847 
L 541.59582 273.701517 
L 541.958373 287.053665 
L 542.320927 285.388891 
L 542.68348 274.06977 
L 543.046034 267.64991 
L 543.408587 255.649638 
L 544.133694 246.018407 
L 544.496248 260.396071 
L 545.946462 339.855349 
L 546.309015 338.284424 
L 546.671569 325.477564 
L 547.396676 270.619985 
L 547.759229 240.321586 
L 548.121782 221.090791 
L 548.484336 211.941565 
L 548.846889 210.664506 
L 549.209443 218.826209 
L 549.93455 266.551135 
L 550.297103 283.197675 
L 550.659657 289.848318 
L 551.02221 290.74768 
L 551.384764 290.529767 
L 552.472424 249.840533 
L 552.834978 252.546352 
L 553.197531 261.066699 
L 554.285191 321.661122 
L 555.010298 337.78366 
L 555.372852 323.753114 
L 555.735405 301.1656 
L 556.460512 239.158432 
L 556.823066 212.890941 
L 557.185619 198.482116 
L 557.548173 199.255462 
L 557.910726 214.67692 
L 558.635833 254.493628 
L 558.998386 270.008726 
L 559.36094 280.211276 
L 559.723493 280.991464 
L 560.086047 272.555421 
L 560.4486 259.47247 
L 560.811154 241.854062 
L 561.173707 238.515285 
L 561.536261 237.254671 
L 561.898814 244.55586 
L 562.261368 260.310293 
L 562.623921 286.871339 
L 562.986475 303.749516 
L 563.349028 310.446882 
L 563.711582 313.383541 
L 564.074135 300.038217 
L 565.524349 193.237517 
L 565.886902 178.695 
L 566.249456 179.384686 
L 566.612009 185.703805 
L 567.337116 225.048163 
L 567.69967 248.189584 
L 568.062223 251.661243 
L 568.424777 138.489519 
L 568.78733 247.251312 
L 569.149884 231.140035 
L 569.874991 209.475635 
L 570.237544 208.784297 
L 570.962651 241.684665 
L 571.687758 278.602299 
L 572.050311 292.001709 
L 572.412865 290.013073 
L 572.775418 277.70556 
L 573.137972 138.528842 
L 573.500525 224.242315 
L 573.863079 190.771925 
L 574.225632 169.16252 
L 574.588186 160.921591 
L 574.950739 157.049624 
L 575.313293 171.232871 
L 576.400953 231.10745 
L 576.763506 238.252007 
L 577.12606 240.844561 
L 577.488613 232.766901 
L 577.851167 219.821987 
L 578.21372 201.300918 
L 578.576274 195.305913 
L 578.938827 199.276481 
L 579.301381 205.760176 
L 580.751595 282.200723 
L 581.114148 282.22352 
L 581.839255 252.290666 
L 582.201808 215.265685 
L 582.926915 163.534934 
L 583.289469 158.901757 
L 583.652022 157.082562 
L 584.014576 169.603558 
L 585.102236 236.112249 
L 585.827343 246.039999 
L 586.189897 229.786399 
L 586.55245 224.4672 
L 587.277557 197.900163 
L 588.002664 216.886372 
L 589.090324 278.625841 
L 589.452878 294.632337 
L 589.815431 300.514769 
L 590.177985 284.399173 
L 590.540538 262.65813 
L 591.628199 182.863466 
L 591.990752 169.232779 
L 592.353306 173.661551 
L 592.715859 185.114975 
L 593.078412 204.489515 
L 593.803519 254.733572 
L 594.528626 267.003431 
L 595.616287 231.317844 
L 595.97884 230.14291 
L 596.341394 227.296855 
L 596.703947 241.167395 
L 597.429054 285.093424 
L 597.791608 303.887161 
L 598.154161 314.829468 
L 598.516714 317.178437 
L 599.241821 282.829123 
L 600.329482 208.401321 
L 601.054589 197.003517 
L 601.417142 209.376281 
L 602.504803 277.266525 
L 602.867356 290.862657 
L 603.22991 288.820013 
L 603.592463 279.057702 
L 603.955017 274.294557 
L 604.31757 256.574426 
L 604.680123 251.10539 
L 605.042677 250.25263 
L 605.40523 262.816171 
L 606.492891 325.270529 
L 606.855444 336.279308 
L 607.217998 343.255367 
L 608.305658 278.493549 
L 609.030765 219.18823 
L 609.393319 210.056241 
L 609.755872 207.028124 
L 610.118425 222.97642 
L 611.206086 284.992685 
L 611.568639 292.134487 
L 611.931193 292.462537 
L 612.6563 277.945937 
L 613.018853 261.649706 
L 613.381407 251.698368 
L 613.74396 252.469772 
L 614.106514 262.582302 
L 615.194174 321.8361 
L 615.556727 333.528697 
L 615.919281 333.338967 
L 616.644388 297.166541 
L 617.369495 238.570092 
L 617.732048 216.263204 
L 618.094602 202.412739 
L 618.457155 199.13964 
L 619.182262 229.627359 
L 619.544816 256.473665 
L 620.269923 283.074097 
L 620.632476 280.08745 
L 620.99503 274.665216 
L 621.357583 253.069736 
L 622.08269 234.732099 
L 622.445243 236.028566 
L 622.807797 244.279892 
L 623.17035 262.030821 
L 623.532904 285.652095 
L 624.258011 311.147228 
L 624.620564 310.688925 
L 624.983118 303.905613 
L 626.433332 193.008945 
L 626.795885 179.064215 
L 627.158438 176.64598 
L 627.520992 191.99474 
L 628.246099 231.521778 
L 628.608652 243.834725 
L 628.971206 260.875059 
L 629.333759 253.911329 
L 630.058866 232.912502 
L 630.42142 218.320653 
L 631.146527 210.055909 
L 631.871634 238.378686 
L 632.234187 263.521934 
L 632.959294 290.260014 
L 633.321847 292.343871 
L 633.684401 279.095639 
L 634.046954 256.895558 
L 634.772061 190.677005 
L 635.134615 169.544627 
L 635.497168 155.592204 
L 635.859722 159.303445 
L 636.947382 208.466515 
L 637.309936 228.159916 
L 637.672489 240.521366 
L 638.035043 239.334446 
L 638.397596 232.148002 
L 639.122703 202.339278 
L 639.485256 199.585645 
L 639.84781 194.757086 
L 640.572917 227.715914 
L 641.298024 268.099745 
L 641.660577 276.421918 
L 642.023131 288.881645 
L 642.385684 271.953616 
L 643.110791 218.712714 
L 643.835898 164.821633 
L 644.198451 154.038701 
L 644.561005 156.209289 
L 644.923558 164.599847 
L 645.648665 211.668593 
L 646.373772 242.120902 
L 646.736326 234.928241 
L 647.098879 233.485482 
L 647.461433 219.603977 
L 647.823986 214.16545 
L 648.18654 201.512538 
L 648.911647 216.940559 
L 650.36186 296.03018 
L 650.724414 293.214169 
L 651.086967 285.075403 
L 652.537181 184.859187 
L 652.899735 172.323632 
L 653.262288 171.010826 
L 654.349949 225.277378 
L 654.712502 132.025382 
L 655.075055 260.59753 
L 655.437609 265.871981 
L 655.800162 259.703594 
L 656.525269 234.993124 
L 656.887823 227.247695 
L 657.61293 244.190212 
L 657.975483 257.595979 
L 659.063144 315.153551 
L 659.425697 323.029987 
L 659.788251 311.07631 
L 661.238464 205.840661 
L 661.601018 196.069317 
L 661.963571 199.784456 
L 662.326125 206.178348 
L 662.688678 234.748835 
L 663.776339 284.006691 
L 664.138892 286.118211 
L 664.501446 279.949986 
L 664.863999 270.83666 
L 665.589106 245.461874 
L 665.95166 249.068153 
L 666.314213 261.851078 
L 666.676766 279.240349 
L 667.401873 325.208819 
L 667.764427 339.092958 
L 668.12698 337.792121 
L 668.489534 324.141432 
L 668.852087 305.617468 
L 669.577194 243.268354 
L 669.939748 220.344306 
L 670.302301 206.367791 
L 670.664855 213.944636 
L 671.027408 225.233179 
L 671.389962 243.318932 
L 671.752515 269.106895 
L 672.115068 286.447398 
L 672.477622 292.505455 
L 672.840175 291.462422 
L 673.202729 284.63777 
L 674.290389 256.256341 
L 674.652943 253.217561 
L 675.37805 281.850019 
L 676.103157 321.732443 
L 676.828264 336.987986 
L 677.190817 320.270785 
L 677.553371 297.660387 
L 678.278477 234.988048 
L 679.003584 199.136416 
L 679.366138 200.601251 
L 679.728691 210.241968 
L 680.453798 253.375423 
L 680.816352 266.018014 
L 681.178905 284.829524 
L 681.541459 283.986645 
L 681.904012 273.696965 
L 682.629119 246.317199 
L 682.991673 235.971173 
L 683.354226 238.31166 
L 683.716779 241.977635 
L 684.441886 279.795038 
L 684.80444 301.616812 
L 685.166993 313.771111 
L 685.529547 310.113192 
L 685.8921 299.995035 
L 686.254654 276.773721 
L 687.342314 191.079287 
L 687.704868 299.935853 
L 688.067421 175.721775 
L 688.792528 208.278328 
L 689.517635 245.57472 
L 689.880188 252.986222 
L 690.242742 254.554638 
L 690.605295 250.94701 
L 691.330402 217.784292 
L 691.692956 209.579918 
L 692.055509 209.490927 
L 692.418063 218.074874 
L 693.868277 289.816517 
L 694.23083 287.607344 
L 694.593384 275.126656 
L 694.955937 253.781699 
L 696.043597 165.347831 
L 696.406151 157.334704 
L 696.768704 157.695724 
L 697.131258 167.765935 
L 698.218918 229.311097 
L 698.581472 240.403687 
L 698.944025 240.664997 
L 699.306579 234.18106 
L 700.031686 206.404352 
L 700.756792 194.452696 
L 701.481899 221.556715 
L 702.207006 275.521934 
L 702.56956 280.957128 
L 702.932113 280.578634 
L 703.294667 274.328135 
L 704.744881 163.206205 
L 705.107434 149.86998 
L 705.469988 155.123697 
L 705.832541 171.460503 
L 706.195094 66.96 
L 706.557648 215.216304 
L 706.920201 227.285796 
L 707.282755 245.17148 
L 707.645308 243.681395 
L 708.007862 232.916379 
L 708.370415 228.076277 
L 708.732969 211.52347 
L 709.095522 201.379294 
L 709.458076 206.008556 
L 709.820629 217.396676 
L 710.545736 262.043975 
L 710.90829 273.539688 
L 711.270843 293.409881 
L 711.633397 294.405463 
L 711.99595 283.127633 
L 712.721057 239.57036 
L 713.446164 180.575697 
L 713.808717 170.573117 
L 714.171271 173.702629 
L 714.533824 183.996837 
L 715.621485 252.2734 
L 716.346592 270.601335 
L 717.071699 247.100826 
L 717.434252 235.688778 
L 718.159359 225.679171 
L 718.521912 240.695937 
L 719.609573 302.121866 
L 719.972126 321.284575 
L 720.33468 319.881259 
L 720.697233 310.17099 
L 721.059787 287.253021 
L 721.784894 230.015672 
L 722.147447 205.662668 
L 722.510001 194.499004 
L 722.872554 190.74721 
L 723.960214 254.137192 
L 724.685321 286.625133 
L 725.047875 288.230121 
L 725.410428 281.556814 
L 725.772982 269.691596 
L 726.135535 253.243513 
L 726.498089 252.859529 
L 727.223196 253.970092 
L 727.948303 300.901102 
L 728.310856 321.845958 
L 728.673409 331.205375 
L 729.035963 331.795404 
L 729.398516 324.414436 
L 729.76107 303.864042 
L 730.84873 221.497326 
L 731.211284 211.826828 
L 731.573837 212.450211 
L 731.936391 224.098958 
L 733.024051 282.737743 
L 733.749158 297.334874 
L 734.474265 274.813237 
L 734.836818 263.049926 
L 735.561925 251.805065 
L 735.924479 261.499928 
L 737.012139 313.438825 
L 737.374693 329.294967 
L 737.737246 335.292464 
L 738.0998 322.115328 
L 738.462353 298.270006 
L 739.18746 237.985313 
L 739.912567 200.665808 
L 740.27512 202.604389 
L 740.637674 209.56953 
L 741.362781 252.749464 
L 742.087888 280.912318 
L 742.450441 282.075086 
L 743.900655 232.794509 
L 744.263209 236.753245 
L 744.625762 244.263759 
L 745.350869 284.196078 
L 746.075976 314.947388 
L 746.438529 313.206921 
L 746.801083 304.033884 
L 747.163636 271.789293 
L 747.163636 271.789293 
" style="fill:none;stroke:#1f77b4;stroke-linecap:square;stroke-width:1.5;"/>
   </g>
   <g id="line2d_18">
    <path clip-path="url(#pc9d8e25a6d)" d="M 745.713422 384.48 
L 745.713422 51.84 
" style="fill:none;stroke:#808080;stroke-linecap:square;"/>
   </g>
   <g id="patch_55">
    <path d="M 108 384.48 
L 108 51.84 
" style="fill:none;stroke:#000000;stroke-linecap:square;stroke-linejoin:miter;stroke-width:0.8;"/>
   </g>
   <g id="patch_56">
    <path d="M 777.6 384.48 
L 777.6 51.84 
" style="fill:none;stroke:#000000;stroke-linecap:square;stroke-linejoin:miter;stroke-width:0.8;"/>
   </g>
   <g id="patch_57">
    <path d="M 108 384.48 
L 777.6 384.48 
" style="fill:none;stroke:#000000;stroke-linecap:square;stroke-linejoin:miter;stroke-width:0.8;"/>
   </g>
   <g id="patch_58">
    <path d="M 108 51.84 
L 777.6 51.84 
" style="fill:none;stroke:#000000;stroke-linecap:square;stroke-linejoin:miter;stroke-width:0.8;"/>
   </g>
   <g id="text_19">
    <!-- A3Benchmark-TS12.csv -->
    <defs>
     <path d="M 34.1875 63.1875 
L 20.796875 26.90625 
L 47.609375 26.90625 
z
M 28.609375 72.90625 
L 39.796875 72.90625 
L 67.578125 0 
L 57.328125 0 
L 50.6875 18.703125 
L 17.828125 18.703125 
L 11.1875 0 
L 0.78125 0 
z
" id="DejaVuSans-65"/>
     <path d="M 40.578125 39.3125 
Q 47.65625 37.796875 51.625 33 
Q 55.609375 28.21875 55.609375 21.1875 
Q 55.609375 10.40625 48.1875 4.484375 
Q 40.765625 -1.421875 27.09375 -1.421875 
Q 22.515625 -1.421875 17.65625 -0.515625 
Q 12.796875 0.390625 7.625 2.203125 
L 7.625 11.71875 
Q 11.71875 9.328125 16.59375 8.109375 
Q 21.484375 6.890625 26.8125 6.890625 
Q 36.078125 6.890625 40.9375 10.546875 
Q 45.796875 14.203125 45.796875 21.1875 
Q 45.796875 27.640625 41.28125 31.265625 
Q 36.765625 34.90625 28.71875 34.90625 
L 20.21875 34.90625 
L 20.21875 43.015625 
L 29.109375 43.015625 
Q 36.375 43.015625 40.234375 45.921875 
Q 44.09375 48.828125 44.09375 54.296875 
Q 44.09375 59.90625 40.109375 62.90625 
Q 36.140625 65.921875 28.71875 65.921875 
Q 24.65625 65.921875 20.015625 65.03125 
Q 15.375 64.15625 9.8125 62.3125 
L 9.8125 71.09375 
Q 15.4375 72.65625 20.34375 73.4375 
Q 25.25 74.21875 29.59375 74.21875 
Q 40.828125 74.21875 47.359375 69.109375 
Q 53.90625 64.015625 53.90625 55.328125 
Q 53.90625 49.265625 50.4375 45.09375 
Q 46.96875 40.921875 40.578125 39.3125 
z
" id="DejaVuSans-51"/>
     <path d="M 19.671875 34.8125 
L 19.671875 8.109375 
L 35.5 8.109375 
Q 43.453125 8.109375 47.28125 11.40625 
Q 51.125 14.703125 51.125 21.484375 
Q 51.125 28.328125 47.28125 31.5625 
Q 43.453125 34.8125 35.5 34.8125 
z
M 19.671875 64.796875 
L 19.671875 42.828125 
L 34.28125 42.828125 
Q 41.5 42.828125 45.03125 45.53125 
Q 48.578125 48.25 48.578125 53.8125 
Q 48.578125 59.328125 45.03125 62.0625 
Q 41.5 64.796875 34.28125 64.796875 
z
M 9.8125 72.90625 
L 35.015625 72.90625 
Q 46.296875 72.90625 52.390625 68.21875 
Q 58.5 63.53125 58.5 54.890625 
Q 58.5 48.1875 55.375 44.234375 
Q 52.25 40.28125 46.1875 39.3125 
Q 53.46875 37.75 57.5 32.78125 
Q 61.53125 27.828125 61.53125 20.40625 
Q 61.53125 10.640625 54.890625 5.3125 
Q 48.25 0 35.984375 0 
L 9.8125 0 
z
" id="DejaVuSans-66"/>
     <path d="M 54.890625 33.015625 
L 54.890625 0 
L 45.90625 0 
L 45.90625 32.71875 
Q 45.90625 40.484375 42.875 44.328125 
Q 39.84375 48.1875 33.796875 48.1875 
Q 26.515625 48.1875 22.3125 43.546875 
Q 18.109375 38.921875 18.109375 30.90625 
L 18.109375 0 
L 9.078125 0 
L 9.078125 54.6875 
L 18.109375 54.6875 
L 18.109375 46.1875 
Q 21.34375 51.125 25.703125 53.5625 
Q 30.078125 56 35.796875 56 
Q 45.21875 56 50.046875 50.171875 
Q 54.890625 44.34375 54.890625 33.015625 
z
" id="DejaVuSans-110"/>
     <path d="M 48.78125 52.59375 
L 48.78125 44.1875 
Q 44.96875 46.296875 41.140625 47.34375 
Q 37.3125 48.390625 33.40625 48.390625 
Q 24.65625 48.390625 19.8125 42.84375 
Q 14.984375 37.3125 14.984375 27.296875 
Q 14.984375 17.28125 19.8125 11.734375 
Q 24.65625 6.203125 33.40625 6.203125 
Q 37.3125 6.203125 41.140625 7.25 
Q 44.96875 8.296875 48.78125 10.40625 
L 48.78125 2.09375 
Q 45.015625 0.34375 40.984375 -0.53125 
Q 36.96875 -1.421875 32.421875 -1.421875 
Q 20.0625 -1.421875 12.78125 6.34375 
Q 5.515625 14.109375 5.515625 27.296875 
Q 5.515625 40.671875 12.859375 48.328125 
Q 20.21875 56 33.015625 56 
Q 37.15625 56 41.109375 55.140625 
Q 45.0625 54.296875 48.78125 52.59375 
z
" id="DejaVuSans-99"/>
     <path d="M 54.890625 33.015625 
L 54.890625 0 
L 45.90625 0 
L 45.90625 32.71875 
Q 45.90625 40.484375 42.875 44.328125 
Q 39.84375 48.1875 33.796875 48.1875 
Q 26.515625 48.1875 22.3125 43.546875 
Q 18.109375 38.921875 18.109375 30.90625 
L 18.109375 0 
L 9.078125 0 
L 9.078125 75.984375 
L 18.109375 75.984375 
L 18.109375 46.1875 
Q 21.34375 51.125 25.703125 53.5625 
Q 30.078125 56 35.796875 56 
Q 45.21875 56 50.046875 50.171875 
Q 54.890625 44.34375 54.890625 33.015625 
z
" id="DejaVuSans-104"/>
     <path d="M 41.109375 46.296875 
Q 39.59375 47.171875 37.8125 47.578125 
Q 36.03125 48 33.890625 48 
Q 26.265625 48 22.1875 43.046875 
Q 18.109375 38.09375 18.109375 28.8125 
L 18.109375 0 
L 9.078125 0 
L 9.078125 54.6875 
L 18.109375 54.6875 
L 18.109375 46.1875 
Q 20.953125 51.171875 25.484375 53.578125 
Q 30.03125 56 36.53125 56 
Q 37.453125 56 38.578125 55.875 
Q 39.703125 55.765625 41.0625 55.515625 
z
" id="DejaVuSans-114"/>
     <path d="M 9.078125 75.984375 
L 18.109375 75.984375 
L 18.109375 31.109375 
L 44.921875 54.6875 
L 56.390625 54.6875 
L 27.390625 29.109375 
L 57.625 0 
L 45.90625 0 
L 18.109375 26.703125 
L 18.109375 0 
L 9.078125 0 
z
" id="DejaVuSans-107"/>
     <path d="M 4.890625 31.390625 
L 31.203125 31.390625 
L 31.203125 23.390625 
L 4.890625 23.390625 
z
" id="DejaVuSans-45"/>
     <path d="M 53.515625 70.515625 
L 53.515625 60.890625 
Q 47.90625 63.578125 42.921875 64.890625 
Q 37.9375 66.21875 33.296875 66.21875 
Q 25.25 66.21875 20.875 63.09375 
Q 16.5 59.96875 16.5 54.203125 
Q 16.5 49.359375 19.40625 46.890625 
Q 22.3125 44.4375 30.421875 42.921875 
L 36.375 41.703125 
Q 47.40625 39.59375 52.65625 34.296875 
Q 57.90625 29 57.90625 20.125 
Q 57.90625 9.515625 50.796875 4.046875 
Q 43.703125 -1.421875 29.984375 -1.421875 
Q 24.8125 -1.421875 18.96875 -0.25 
Q 13.140625 0.921875 6.890625 3.21875 
L 6.890625 13.375 
Q 12.890625 10.015625 18.65625 8.296875 
Q 24.421875 6.59375 29.984375 6.59375 
Q 38.421875 6.59375 43.015625 9.90625 
Q 47.609375 13.234375 47.609375 19.390625 
Q 47.609375 24.75 44.3125 27.78125 
Q 41.015625 30.8125 33.5 32.328125 
L 27.484375 33.5 
Q 16.453125 35.6875 11.515625 40.375 
Q 6.59375 45.0625 6.59375 53.421875 
Q 6.59375 63.09375 13.40625 68.65625 
Q 20.21875 74.21875 32.171875 74.21875 
Q 37.3125 74.21875 42.625 73.28125 
Q 47.953125 72.359375 53.515625 70.515625 
z
" id="DejaVuSans-83"/>
     <path d="M 10.6875 12.40625 
L 21 12.40625 
L 21 0 
L 10.6875 0 
z
" id="DejaVuSans-46"/>
     <path d="M 2.984375 54.6875 
L 12.5 54.6875 
L 29.59375 8.796875 
L 46.6875 54.6875 
L 56.203125 54.6875 
L 35.6875 0 
L 23.484375 0 
z
" id="DejaVuSans-118"/>
    </defs>
    <g transform="translate(371.555625 45.84)scale(0.12 -0.12)">
     <use xlink:href="#DejaVuSans-65"/>
     <use x="68.408203" xlink:href="#DejaVuSans-51"/>
     <use x="132.03125" xlink:href="#DejaVuSans-66"/>
     <use x="200.634766" xlink:href="#DejaVuSans-101"/>
     <use x="262.158203" xlink:href="#DejaVuSans-110"/>
     <use x="325.537109" xlink:href="#DejaVuSans-99"/>
     <use x="380.517578" xlink:href="#DejaVuSans-104"/>
     <use x="443.896484" xlink:href="#DejaVuSans-109"/>
     <use x="541.308594" xlink:href="#DejaVuSans-97"/>
     <use x="602.587891" xlink:href="#DejaVuSans-114"/>
     <use x="643.701172" xlink:href="#DejaVuSans-107"/>
     <use x="701.611328" xlink:href="#DejaVuSans-45"/>
     <use x="737.554688" xlink:href="#DejaVuSans-84"/>
     <use x="798.638672" xlink:href="#DejaVuSans-83"/>
     <use x="862.115234" xlink:href="#DejaVuSans-49"/>
     <use x="925.738281" xlink:href="#DejaVuSans-50"/>
     <use x="989.361328" xlink:href="#DejaVuSans-46"/>
     <use x="1021.148438" xlink:href="#DejaVuSans-99"/>
     <use x="1076.128906" xlink:href="#DejaVuSans-115"/>
     <use x="1128.228516" xlink:href="#DejaVuSans-118"/>
    </g>
   </g>
   <g id="legend_1">
    <g id="patch_59">
     <path d="M 115 74.518125 
L 174.315625 74.518125 
Q 176.315625 74.518125 176.315625 72.518125 
L 176.315625 58.84 
Q 176.315625 56.84 174.315625 56.84 
L 115 56.84 
Q 113 56.84 113 58.84 
L 113 72.518125 
Q 113 74.518125 115 74.518125 
z
" style="fill:#ffffff;opacity:0.8;stroke:#cccccc;stroke-linejoin:miter;"/>
    </g>
    <g id="line2d_19">
     <path d="M 117 64.938438 
L 137 64.938438 
" style="fill:none;stroke:#1f77b4;stroke-linecap:square;stroke-width:1.5;"/>
    </g>
    <g id="line2d_20"/>
    <g id="text_20">
     <!-- value -->
     <g transform="translate(145 68.438438)scale(0.1 -0.1)">
      <use xlink:href="#DejaVuSans-118"/>
      <use x="59.179688" xlink:href="#DejaVuSans-97"/>
      <use x="120.458984" xlink:href="#DejaVuSans-108"/>
      <use x="148.242188" xlink:href="#DejaVuSans-117"/>
      <use x="211.621094" xlink:href="#DejaVuSans-101"/>
     </g>
    </g>
   </g>
  </g>
 </g>
 <defs>
  <clipPath id="pc9d8e25a6d">
   <rect height="332.64" width="669.6" x="108" y="51.84"/>
  </clipPath>
 </defs>
</svg>
