<?xml version="1.0" encoding="utf-8" standalone="no"?>
<!DOCTYPE svg PUBLIC "-//W3C//DTD SVG 1.1//EN"
  "http://www.w3.org/Graphics/SVG/1.1/DTD/svg11.dtd">
<!-- Created with matplotlib (https://matplotlib.org/) -->
<svg height="432pt" version="1.1" viewBox="0 0 864 432" width="864pt" xmlns="http://www.w3.org/2000/svg" xmlns:xlink="http://www.w3.org/1999/xlink">
 <defs>
  <style type="text/css">
*{stroke-linecap:butt;stroke-linejoin:round;}
  </style>
 </defs>
 <g id="figure_1">
  <g id="patch_1">
   <path d="M 0 432 
L 864 432 
L 864 0 
L 0 0 
z
" style="fill:#ffffff;"/>
  </g>
  <g id="axes_1">
   <g id="patch_2">
    <path d="M 108 384.48 
L 777.6 384.48 
L 777.6 51.84 
L 108 51.84 
z
" style="fill:#ffffff;"/>
   </g>
   <g id="patch_3">
    <path clip-path="url(#p49dd451d75)" d="M 138.436364 384.48 
L 138.436364 51.84 
L 377.579221 51.84 
L 377.579221 384.48 
z
" style="fill:#0000ff;opacity:0.05;"/>
   </g>
   <g id="patch_4">
    <path clip-path="url(#p49dd451d75)" d="M 377.579221 384.48 
L 377.579221 51.84 
L 747.163636 51.84 
L 747.163636 384.48 
z
" style="fill:#ff0000;opacity:0.08;"/>
   </g>
   <g id="patch_5">
    <path clip-path="url(#p49dd451d75)" d="M 138.436364 384.48 
L 138.436364 51.84 
L 143.871429 51.84 
L 143.871429 384.48 
z
" style="fill:#008000;opacity:0.04;"/>
   </g>
   <g id="patch_6">
    <path clip-path="url(#p49dd451d75)" d="M 383.014286 384.48 
L 383.014286 371.1744 
L 388.449351 371.1744 
L 388.449351 384.48 
z
" style="fill:#ff6600;"/>
   </g>
   <g id="patch_7">
    <path clip-path="url(#p49dd451d75)" d="M 149.306494 384.48 
L 149.306494 51.84 
L 154.741558 51.84 
L 154.741558 384.48 
z
" style="fill:#008000;opacity:0.04;"/>
   </g>
   <g id="patch_8">
    <path clip-path="url(#p49dd451d75)" d="M 160.176623 384.48 
L 160.176623 51.84 
L 165.611688 51.84 
L 165.611688 384.48 
z
" style="fill:#008000;opacity:0.04;"/>
   </g>
   <g id="patch_9">
    <path clip-path="url(#p49dd451d75)" d="M 171.046753 384.48 
L 171.046753 51.84 
L 176.481818 51.84 
L 176.481818 384.48 
z
" style="fill:#008000;opacity:0.04;"/>
   </g>
   <g id="patch_10">
    <path clip-path="url(#p49dd451d75)" d="M 181.916883 384.48 
L 181.916883 51.84 
L 187.351948 51.84 
L 187.351948 384.48 
z
" style="fill:#008000;opacity:0.04;"/>
   </g>
   <g id="patch_11">
    <path clip-path="url(#p49dd451d75)" d="M 421.05974 384.48 
L 421.05974 371.1744 
L 426.494805 371.1744 
L 426.494805 384.48 
z
" style="fill:#ff6600;"/>
   </g>
   <g id="patch_12">
    <path clip-path="url(#p49dd451d75)" d="M 192.787013 384.48 
L 192.787013 51.84 
L 198.222078 51.84 
L 198.222078 384.48 
z
" style="fill:#008000;opacity:0.04;"/>
   </g>
   <g id="patch_13">
    <path clip-path="url(#p49dd451d75)" d="M 198.222078 371.1744 
L 198.222078 51.84 
L 203.657143 51.84 
L 203.657143 371.1744 
z
" style="fill:#008000;opacity:0.5;"/>
   </g>
   <g id="patch_14">
    <path clip-path="url(#p49dd451d75)" d="M 198.222078 384.48 
L 198.222078 371.1744 
L 203.657143 371.1744 
L 203.657143 384.48 
z
" style="fill:#ffe500;"/>
   </g>
   <g id="patch_15">
    <path clip-path="url(#p49dd451d75)" d="M 203.657143 384.48 
L 203.657143 51.84 
L 209.092208 51.84 
L 209.092208 384.48 
z
" style="fill:#008000;opacity:0.04;"/>
   </g>
   <g id="patch_16">
    <path clip-path="url(#p49dd451d75)" d="M 448.235065 384.48 
L 448.235065 371.1744 
L 453.67013 371.1744 
L 453.67013 384.48 
z
" style="fill:#ff6600;"/>
   </g>
   <g id="patch_17">
    <path clip-path="url(#p49dd451d75)" d="M 214.527273 384.48 
L 214.527273 51.84 
L 219.962338 51.84 
L 219.962338 384.48 
z
" style="fill:#008000;opacity:0.04;"/>
   </g>
   <g id="patch_18">
    <path clip-path="url(#p49dd451d75)" d="M 225.397403 384.48 
L 225.397403 51.84 
L 230.832468 51.84 
L 230.832468 384.48 
z
" style="fill:#008000;opacity:0.04;"/>
   </g>
   <g id="patch_19">
    <path clip-path="url(#p49dd451d75)" d="M 236.267532 384.48 
L 236.267532 51.84 
L 241.702597 51.84 
L 241.702597 384.48 
z
" style="fill:#008000;opacity:0.04;"/>
   </g>
   <g id="patch_20">
    <path clip-path="url(#p49dd451d75)" d="M 247.137662 384.48 
L 247.137662 51.84 
L 252.572727 51.84 
L 252.572727 384.48 
z
" style="fill:#008000;opacity:0.04;"/>
   </g>
   <g id="patch_21">
    <path clip-path="url(#p49dd451d75)" d="M 258.007792 384.48 
L 258.007792 51.84 
L 263.442857 51.84 
L 263.442857 384.48 
z
" style="fill:#008000;opacity:0.04;"/>
   </g>
   <g id="patch_22">
    <path clip-path="url(#p49dd451d75)" d="M 268.877922 384.48 
L 268.877922 51.84 
L 274.312987 51.84 
L 274.312987 384.48 
z
" style="fill:#008000;opacity:0.04;"/>
   </g>
   <g id="patch_23">
    <path clip-path="url(#p49dd451d75)" d="M 268.877922 371.1744 
L 268.877922 51.84 
L 274.312987 51.84 
L 274.312987 371.1744 
z
" style="fill:#008000;opacity:0.5;"/>
   </g>
   <g id="patch_24">
    <path clip-path="url(#p49dd451d75)" d="M 268.877922 384.48 
L 268.877922 371.1744 
L 274.312987 371.1744 
L 274.312987 384.48 
z
" style="fill:#ffe500;"/>
   </g>
   <g id="patch_25">
    <path clip-path="url(#p49dd451d75)" d="M 279.748052 384.48 
L 279.748052 51.84 
L 285.183117 51.84 
L 285.183117 384.48 
z
" style="fill:#008000;opacity:0.04;"/>
   </g>
   <g id="patch_26">
    <path clip-path="url(#p49dd451d75)" d="M 290.618182 384.48 
L 290.618182 51.84 
L 296.053247 51.84 
L 296.053247 384.48 
z
" style="fill:#008000;opacity:0.04;"/>
   </g>
   <g id="patch_27">
    <path clip-path="url(#p49dd451d75)" d="M 301.488312 384.48 
L 301.488312 51.84 
L 306.923377 51.84 
L 306.923377 384.48 
z
" style="fill:#008000;opacity:0.04;"/>
   </g>
   <g id="patch_28">
    <path clip-path="url(#p49dd451d75)" d="M 312.358442 384.48 
L 312.358442 51.84 
L 317.793506 51.84 
L 317.793506 384.48 
z
" style="fill:#008000;opacity:0.04;"/>
   </g>
   <g id="patch_29">
    <path clip-path="url(#p49dd451d75)" d="M 323.228571 384.48 
L 323.228571 51.84 
L 328.663636 51.84 
L 328.663636 384.48 
z
" style="fill:#008000;opacity:0.04;"/>
   </g>
   <g id="patch_30">
    <path clip-path="url(#p49dd451d75)" d="M 334.098701 384.48 
L 334.098701 51.84 
L 339.533766 51.84 
L 339.533766 384.48 
z
" style="fill:#008000;opacity:0.04;"/>
   </g>
   <g id="patch_31">
    <path clip-path="url(#p49dd451d75)" d="M 344.968831 384.48 
L 344.968831 51.84 
L 350.403896 51.84 
L 350.403896 384.48 
z
" style="fill:#008000;opacity:0.04;"/>
   </g>
   <g id="patch_32">
    <path clip-path="url(#p49dd451d75)" d="M 355.838961 384.48 
L 355.838961 51.84 
L 361.274026 51.84 
L 361.274026 384.48 
z
" style="fill:#008000;opacity:0.04;"/>
   </g>
   <g id="patch_33">
    <path clip-path="url(#p49dd451d75)" d="M 355.838961 371.1744 
L 355.838961 51.84 
L 361.274026 51.84 
L 361.274026 371.1744 
z
" style="fill:#008000;opacity:0.5;"/>
   </g>
   <g id="patch_34">
    <path clip-path="url(#p49dd451d75)" d="M 355.838961 384.48 
L 355.838961 371.1744 
L 361.274026 371.1744 
L 361.274026 384.48 
z
" style="fill:#ffe500;"/>
   </g>
   <g id="patch_35">
    <path clip-path="url(#p49dd451d75)" d="M 366.709091 384.48 
L 366.709091 51.84 
L 372.144156 51.84 
L 372.144156 384.48 
z
" style="fill:#008000;opacity:0.04;"/>
   </g>
   <g id="patch_36">
    <path clip-path="url(#p49dd451d75)" d="M 372.144156 371.1744 
L 372.144156 51.84 
L 377.579221 51.84 
L 377.579221 371.1744 
z
" style="fill:#008000;opacity:0.5;"/>
   </g>
   <g id="patch_37">
    <path clip-path="url(#p49dd451d75)" d="M 372.144156 384.48 
L 372.144156 371.1744 
L 377.579221 371.1744 
L 377.579221 384.48 
z
" style="fill:#ffe500;"/>
   </g>
   <g id="patch_38">
    <path clip-path="url(#p49dd451d75)" d="M 377.579221 384.48 
L 377.579221 51.84 
L 383.014286 51.84 
L 383.014286 384.48 
z
" style="fill:#008000;opacity:0.04;"/>
   </g>
   <g id="patch_39">
    <path clip-path="url(#p49dd451d75)" d="M 383.014286 371.1744 
L 383.014286 51.84 
L 388.449351 51.84 
L 388.449351 371.1744 
z
" style="fill:#008000;opacity:0.5;"/>
   </g>
   <g id="patch_40">
    <path clip-path="url(#p49dd451d75)" d="M 388.449351 384.48 
L 388.449351 51.84 
L 393.884416 51.84 
L 393.884416 384.48 
z
" style="fill:#008000;opacity:0.04;"/>
   </g>
   <g id="patch_41">
    <path clip-path="url(#p49dd451d75)" d="M 399.319481 384.48 
L 399.319481 51.84 
L 404.754545 51.84 
L 404.754545 384.48 
z
" style="fill:#008000;opacity:0.04;"/>
   </g>
   <g id="patch_42">
    <path clip-path="url(#p49dd451d75)" d="M 410.18961 384.48 
L 410.18961 51.84 
L 415.624675 51.84 
L 415.624675 384.48 
z
" style="fill:#008000;opacity:0.04;"/>
   </g>
   <g id="patch_43">
    <path clip-path="url(#p49dd451d75)" d="M 421.05974 384.48 
L 421.05974 51.84 
L 426.494805 51.84 
L 426.494805 384.48 
z
" style="fill:#008000;opacity:0.04;"/>
   </g>
   <g id="patch_44">
    <path clip-path="url(#p49dd451d75)" d="M 421.05974 371.1744 
L 421.05974 51.84 
L 426.494805 51.84 
L 426.494805 371.1744 
z
" style="fill:#008000;opacity:0.5;"/>
   </g>
   <g id="patch_45">
    <path clip-path="url(#p49dd451d75)" d="M 665.637662 384.48 
L 665.637662 371.1744 
L 671.072727 371.1744 
L 671.072727 384.48 
z
" style="fill:#ff6600;"/>
   </g>
   <g id="patch_46">
    <path clip-path="url(#p49dd451d75)" d="M 431.92987 384.48 
L 431.92987 51.84 
L 437.364935 51.84 
L 437.364935 384.48 
z
" style="fill:#008000;opacity:0.04;"/>
   </g>
   <g id="patch_47">
    <path clip-path="url(#p49dd451d75)" d="M 442.8 384.48 
L 442.8 51.84 
L 448.235065 51.84 
L 448.235065 384.48 
z
" style="fill:#008000;opacity:0.04;"/>
   </g>
   <g id="patch_48">
    <path clip-path="url(#p49dd451d75)" d="M 448.235065 371.1744 
L 448.235065 51.84 
L 453.67013 51.84 
L 453.67013 371.1744 
z
" style="fill:#008000;opacity:0.5;"/>
   </g>
   <g id="patch_49">
    <path clip-path="url(#p49dd451d75)" d="M 453.67013 384.48 
L 453.67013 51.84 
L 459.105195 51.84 
L 459.105195 384.48 
z
" style="fill:#008000;opacity:0.04;"/>
   </g>
   <g id="patch_50">
    <path clip-path="url(#p49dd451d75)" d="M 464.54026 384.48 
L 464.54026 51.84 
L 469.975325 51.84 
L 469.975325 384.48 
z
" style="fill:#008000;opacity:0.04;"/>
   </g>
   <g id="patch_51">
    <path clip-path="url(#p49dd451d75)" d="M 703.683117 384.48 
L 703.683117 371.1744 
L 709.118182 371.1744 
L 709.118182 384.48 
z
" style="fill:#ff6600;"/>
   </g>
   <g id="patch_52">
    <path clip-path="url(#p49dd451d75)" d="M 475.41039 384.48 
L 475.41039 51.84 
L 480.845455 51.84 
L 480.845455 384.48 
z
" style="fill:#008000;opacity:0.04;"/>
   </g>
   <g id="patch_53">
    <path clip-path="url(#p49dd451d75)" d="M 486.280519 384.48 
L 486.280519 51.84 
L 491.715584 51.84 
L 491.715584 384.48 
z
" style="fill:#008000;opacity:0.04;"/>
   </g>
   <g id="patch_54">
    <path clip-path="url(#p49dd451d75)" d="M 497.150649 384.48 
L 497.150649 51.84 
L 502.585714 51.84 
L 502.585714 384.48 
z
" style="fill:#008000;opacity:0.04;"/>
   </g>
   <g id="patch_55">
    <path clip-path="url(#p49dd451d75)" d="M 502.585714 371.1744 
L 502.585714 51.84 
L 508.020779 51.84 
L 508.020779 371.1744 
z
" style="fill:#008000;opacity:0.5;"/>
   </g>
   <g id="patch_56">
    <path clip-path="url(#p49dd451d75)" d="M 508.020779 384.48 
L 508.020779 51.84 
L 513.455844 51.84 
L 513.455844 384.48 
z
" style="fill:#008000;opacity:0.04;"/>
   </g>
   <g id="patch_57">
    <path clip-path="url(#p49dd451d75)" d="M 513.455844 371.1744 
L 513.455844 51.84 
L 518.890909 51.84 
L 518.890909 371.1744 
z
" style="fill:#008000;opacity:0.5;"/>
   </g>
   <g id="patch_58">
    <path clip-path="url(#p49dd451d75)" d="M 518.890909 384.48 
L 518.890909 51.84 
L 524.325974 51.84 
L 524.325974 384.48 
z
" style="fill:#008000;opacity:0.04;"/>
   </g>
   <g id="patch_59">
    <path clip-path="url(#p49dd451d75)" d="M 529.761039 384.48 
L 529.761039 51.84 
L 535.196104 51.84 
L 535.196104 384.48 
z
" style="fill:#008000;opacity:0.04;"/>
   </g>
   <g id="patch_60">
    <path clip-path="url(#p49dd451d75)" d="M 540.631169 384.48 
L 540.631169 51.84 
L 546.066234 51.84 
L 546.066234 384.48 
z
" style="fill:#008000;opacity:0.04;"/>
   </g>
   <g id="patch_61">
    <path clip-path="url(#p49dd451d75)" d="M 551.501299 384.48 
L 551.501299 51.84 
L 556.936364 51.84 
L 556.936364 384.48 
z
" style="fill:#008000;opacity:0.04;"/>
   </g>
   <g id="patch_62">
    <path clip-path="url(#p49dd451d75)" d="M 562.371429 384.48 
L 562.371429 51.84 
L 567.806494 51.84 
L 567.806494 384.48 
z
" style="fill:#008000;opacity:0.04;"/>
   </g>
   <g id="patch_63">
    <path clip-path="url(#p49dd451d75)" d="M 562.371429 371.1744 
L 562.371429 51.84 
L 567.806494 51.84 
L 567.806494 371.1744 
z
" style="fill:#008000;opacity:0.5;"/>
   </g>
   <g id="patch_64">
    <path clip-path="url(#p49dd451d75)" d="M 573.241558 384.48 
L 573.241558 51.84 
L 578.676623 51.84 
L 578.676623 384.48 
z
" style="fill:#008000;opacity:0.04;"/>
   </g>
   <g id="patch_65">
    <path clip-path="url(#p49dd451d75)" d="M 584.111688 384.48 
L 584.111688 51.84 
L 589.546753 51.84 
L 589.546753 384.48 
z
" style="fill:#008000;opacity:0.04;"/>
   </g>
   <g id="patch_66">
    <path clip-path="url(#p49dd451d75)" d="M 594.981818 384.48 
L 594.981818 51.84 
L 600.416883 51.84 
L 600.416883 384.48 
z
" style="fill:#008000;opacity:0.04;"/>
   </g>
   <g id="patch_67">
    <path clip-path="url(#p49dd451d75)" d="M 600.416883 371.1744 
L 600.416883 51.84 
L 605.851948 51.84 
L 605.851948 371.1744 
z
" style="fill:#008000;opacity:0.5;"/>
   </g>
   <g id="patch_68">
    <path clip-path="url(#p49dd451d75)" d="M 605.851948 384.48 
L 605.851948 51.84 
L 611.287013 51.84 
L 611.287013 384.48 
z
" style="fill:#008000;opacity:0.04;"/>
   </g>
   <g id="patch_69">
    <path clip-path="url(#p49dd451d75)" d="M 616.722078 384.48 
L 616.722078 51.84 
L 622.157143 51.84 
L 622.157143 384.48 
z
" style="fill:#008000;opacity:0.04;"/>
   </g>
   <g id="patch_70">
    <path clip-path="url(#p49dd451d75)" d="M 627.592208 384.48 
L 627.592208 51.84 
L 633.027273 51.84 
L 633.027273 384.48 
z
" style="fill:#008000;opacity:0.04;"/>
   </g>
   <g id="patch_71">
    <path clip-path="url(#p49dd451d75)" d="M 638.462338 384.48 
L 638.462338 51.84 
L 643.897403 51.84 
L 643.897403 384.48 
z
" style="fill:#008000;opacity:0.04;"/>
   </g>
   <g id="patch_72">
    <path clip-path="url(#p49dd451d75)" d="M 649.332468 384.48 
L 649.332468 51.84 
L 654.767532 51.84 
L 654.767532 384.48 
z
" style="fill:#008000;opacity:0.04;"/>
   </g>
   <g id="patch_73">
    <path clip-path="url(#p49dd451d75)" d="M 660.202597 384.48 
L 660.202597 51.84 
L 665.637662 51.84 
L 665.637662 384.48 
z
" style="fill:#008000;opacity:0.04;"/>
   </g>
   <g id="patch_74">
    <path clip-path="url(#p49dd451d75)" d="M 665.637662 371.1744 
L 665.637662 51.84 
L 671.072727 51.84 
L 671.072727 371.1744 
z
" style="fill:#008000;opacity:0.5;"/>
   </g>
   <g id="patch_75">
    <path clip-path="url(#p49dd451d75)" d="M 671.072727 384.48 
L 671.072727 51.84 
L 676.507792 51.84 
L 676.507792 384.48 
z
" style="fill:#008000;opacity:0.04;"/>
   </g>
   <g id="patch_76">
    <path clip-path="url(#p49dd451d75)" d="M 681.942857 384.48 
L 681.942857 51.84 
L 687.377922 51.84 
L 687.377922 384.48 
z
" style="fill:#008000;opacity:0.04;"/>
   </g>
   <g id="patch_77">
    <path clip-path="url(#p49dd451d75)" d="M 692.812987 384.48 
L 692.812987 51.84 
L 698.248052 51.84 
L 698.248052 384.48 
z
" style="fill:#008000;opacity:0.04;"/>
   </g>
   <g id="patch_78">
    <path clip-path="url(#p49dd451d75)" d="M 703.683117 384.48 
L 703.683117 51.84 
L 709.118182 51.84 
L 709.118182 384.48 
z
" style="fill:#008000;opacity:0.04;"/>
   </g>
   <g id="patch_79">
    <path clip-path="url(#p49dd451d75)" d="M 703.683117 371.1744 
L 703.683117 51.84 
L 709.118182 51.84 
L 709.118182 371.1744 
z
" style="fill:#008000;opacity:0.5;"/>
   </g>
   <g id="patch_80">
    <path clip-path="url(#p49dd451d75)" d="M 714.553247 384.48 
L 714.553247 51.84 
L 719.988312 51.84 
L 719.988312 384.48 
z
" style="fill:#008000;opacity:0.04;"/>
   </g>
   <g id="patch_81">
    <path clip-path="url(#p49dd451d75)" d="M 725.423377 384.48 
L 725.423377 51.84 
L 730.858442 51.84 
L 730.858442 384.48 
z
" style="fill:#008000;opacity:0.04;"/>
   </g>
   <g id="patch_82">
    <path clip-path="url(#p49dd451d75)" d="M 736.293506 384.48 
L 736.293506 51.84 
L 741.728571 51.84 
L 741.728571 384.48 
z
" style="fill:#008000;opacity:0.04;"/>
   </g>
   <g id="matplotlib.axis_1">
    <g id="xtick_1">
     <g id="line2d_1">
      <defs>
       <path d="M 0 0 
L 0 3.5 
" id="mf02ea1df27" style="stroke:#000000;stroke-width:0.8;"/>
      </defs>
      <g>
       <use style="stroke:#000000;stroke-width:0.8;" x="138.436364" xlink:href="#mf02ea1df27" y="384.48"/>
      </g>
     </g>
     <g id="text_1">
      <!-- 0 -->
      <defs>
       <path d="M 31.78125 66.40625 
Q 24.171875 66.40625 20.328125 58.90625 
Q 16.5 51.421875 16.5 36.375 
Q 16.5 21.390625 20.328125 13.890625 
Q 24.171875 6.390625 31.78125 6.390625 
Q 39.453125 6.390625 43.28125 13.890625 
Q 47.125 21.390625 47.125 36.375 
Q 47.125 51.421875 43.28125 58.90625 
Q 39.453125 66.40625 31.78125 66.40625 
z
M 31.78125 74.21875 
Q 44.046875 74.21875 50.515625 64.515625 
Q 56.984375 54.828125 56.984375 36.375 
Q 56.984375 17.96875 50.515625 8.265625 
Q 44.046875 -1.421875 31.78125 -1.421875 
Q 19.53125 -1.421875 13.0625 8.265625 
Q 6.59375 17.96875 6.59375 36.375 
Q 6.59375 54.828125 13.0625 64.515625 
Q 19.53125 74.21875 31.78125 74.21875 
z
" id="DejaVuSans-48"/>
      </defs>
      <g transform="translate(135.255114 399.078438)scale(0.1 -0.1)">
       <use xlink:href="#DejaVuSans-48"/>
      </g>
     </g>
    </g>
    <g id="xtick_2">
     <g id="line2d_2">
      <g>
       <use style="stroke:#000000;stroke-width:0.8;" x="229.020779" xlink:href="#mf02ea1df27" y="384.48"/>
      </g>
     </g>
     <g id="text_2">
      <!-- 250 -->
      <defs>
       <path d="M 19.1875 8.296875 
L 53.609375 8.296875 
L 53.609375 0 
L 7.328125 0 
L 7.328125 8.296875 
Q 12.9375 14.109375 22.625 23.890625 
Q 32.328125 33.6875 34.8125 36.53125 
Q 39.546875 41.84375 41.421875 45.53125 
Q 43.3125 49.21875 43.3125 52.78125 
Q 43.3125 58.59375 39.234375 62.25 
Q 35.15625 65.921875 28.609375 65.921875 
Q 23.96875 65.921875 18.8125 64.3125 
Q 13.671875 62.703125 7.8125 59.421875 
L 7.8125 69.390625 
Q 13.765625 71.78125 18.9375 73 
Q 24.125 74.21875 28.421875 74.21875 
Q 39.75 74.21875 46.484375 68.546875 
Q 53.21875 62.890625 53.21875 53.421875 
Q 53.21875 48.921875 51.53125 44.890625 
Q 49.859375 40.875 45.40625 35.40625 
Q 44.1875 33.984375 37.640625 27.21875 
Q 31.109375 20.453125 19.1875 8.296875 
z
" id="DejaVuSans-50"/>
       <path d="M 10.796875 72.90625 
L 49.515625 72.90625 
L 49.515625 64.59375 
L 19.828125 64.59375 
L 19.828125 46.734375 
Q 21.96875 47.46875 24.109375 47.828125 
Q 26.265625 48.1875 28.421875 48.1875 
Q 40.625 48.1875 47.75 41.5 
Q 54.890625 34.8125 54.890625 23.390625 
Q 54.890625 11.625 47.5625 5.09375 
Q 40.234375 -1.421875 26.90625 -1.421875 
Q 22.3125 -1.421875 17.546875 -0.640625 
Q 12.796875 0.140625 7.71875 1.703125 
L 7.71875 11.625 
Q 12.109375 9.234375 16.796875 8.0625 
Q 21.484375 6.890625 26.703125 6.890625 
Q 35.15625 6.890625 40.078125 11.328125 
Q 45.015625 15.765625 45.015625 23.390625 
Q 45.015625 31 40.078125 35.4375 
Q 35.15625 39.890625 26.703125 39.890625 
Q 22.75 39.890625 18.8125 39.015625 
Q 14.890625 38.140625 10.796875 36.28125 
z
" id="DejaVuSans-53"/>
      </defs>
      <g transform="translate(219.477029 399.078438)scale(0.1 -0.1)">
       <use xlink:href="#DejaVuSans-50"/>
       <use x="63.623047" xlink:href="#DejaVuSans-53"/>
       <use x="127.246094" xlink:href="#DejaVuSans-48"/>
      </g>
     </g>
    </g>
    <g id="xtick_3">
     <g id="line2d_3">
      <g>
       <use style="stroke:#000000;stroke-width:0.8;" x="319.605195" xlink:href="#mf02ea1df27" y="384.48"/>
      </g>
     </g>
     <g id="text_3">
      <!-- 500 -->
      <g transform="translate(310.061445 399.078438)scale(0.1 -0.1)">
       <use xlink:href="#DejaVuSans-53"/>
       <use x="63.623047" xlink:href="#DejaVuSans-48"/>
       <use x="127.246094" xlink:href="#DejaVuSans-48"/>
      </g>
     </g>
    </g>
    <g id="xtick_4">
     <g id="line2d_4">
      <g>
       <use style="stroke:#000000;stroke-width:0.8;" x="410.18961" xlink:href="#mf02ea1df27" y="384.48"/>
      </g>
     </g>
     <g id="text_4">
      <!-- 750 -->
      <defs>
       <path d="M 8.203125 72.90625 
L 55.078125 72.90625 
L 55.078125 68.703125 
L 28.609375 0 
L 18.3125 0 
L 43.21875 64.59375 
L 8.203125 64.59375 
z
" id="DejaVuSans-55"/>
      </defs>
      <g transform="translate(400.64586 399.078438)scale(0.1 -0.1)">
       <use xlink:href="#DejaVuSans-55"/>
       <use x="63.623047" xlink:href="#DejaVuSans-53"/>
       <use x="127.246094" xlink:href="#DejaVuSans-48"/>
      </g>
     </g>
    </g>
    <g id="xtick_5">
     <g id="line2d_5">
      <g>
       <use style="stroke:#000000;stroke-width:0.8;" x="500.774026" xlink:href="#mf02ea1df27" y="384.48"/>
      </g>
     </g>
     <g id="text_5">
      <!-- 1000 -->
      <defs>
       <path d="M 12.40625 8.296875 
L 28.515625 8.296875 
L 28.515625 63.921875 
L 10.984375 60.40625 
L 10.984375 69.390625 
L 28.421875 72.90625 
L 38.28125 72.90625 
L 38.28125 8.296875 
L 54.390625 8.296875 
L 54.390625 0 
L 12.40625 0 
z
" id="DejaVuSans-49"/>
      </defs>
      <g transform="translate(488.049026 399.078438)scale(0.1 -0.1)">
       <use xlink:href="#DejaVuSans-49"/>
       <use x="63.623047" xlink:href="#DejaVuSans-48"/>
       <use x="127.246094" xlink:href="#DejaVuSans-48"/>
       <use x="190.869141" xlink:href="#DejaVuSans-48"/>
      </g>
     </g>
    </g>
    <g id="xtick_6">
     <g id="line2d_6">
      <g>
       <use style="stroke:#000000;stroke-width:0.8;" x="591.358442" xlink:href="#mf02ea1df27" y="384.48"/>
      </g>
     </g>
     <g id="text_6">
      <!-- 1250 -->
      <g transform="translate(578.633442 399.078438)scale(0.1 -0.1)">
       <use xlink:href="#DejaVuSans-49"/>
       <use x="63.623047" xlink:href="#DejaVuSans-50"/>
       <use x="127.246094" xlink:href="#DejaVuSans-53"/>
       <use x="190.869141" xlink:href="#DejaVuSans-48"/>
      </g>
     </g>
    </g>
    <g id="xtick_7">
     <g id="line2d_7">
      <g>
       <use style="stroke:#000000;stroke-width:0.8;" x="681.942857" xlink:href="#mf02ea1df27" y="384.48"/>
      </g>
     </g>
     <g id="text_7">
      <!-- 1500 -->
      <g transform="translate(669.217857 399.078438)scale(0.1 -0.1)">
       <use xlink:href="#DejaVuSans-49"/>
       <use x="63.623047" xlink:href="#DejaVuSans-53"/>
       <use x="127.246094" xlink:href="#DejaVuSans-48"/>
       <use x="190.869141" xlink:href="#DejaVuSans-48"/>
      </g>
     </g>
    </g>
    <g id="xtick_8">
     <g id="line2d_8">
      <g>
       <use style="stroke:#000000;stroke-width:0.8;" x="772.527273" xlink:href="#mf02ea1df27" y="384.48"/>
      </g>
     </g>
     <g id="text_8">
      <!-- 1750 -->
      <g transform="translate(759.802273 399.078438)scale(0.1 -0.1)">
       <use xlink:href="#DejaVuSans-49"/>
       <use x="63.623047" xlink:href="#DejaVuSans-55"/>
       <use x="127.246094" xlink:href="#DejaVuSans-53"/>
       <use x="190.869141" xlink:href="#DejaVuSans-48"/>
      </g>
     </g>
    </g>
    <g id="text_9">
     <!-- Timestamp -->
     <defs>
      <path d="M -0.296875 72.90625 
L 61.375 72.90625 
L 61.375 64.59375 
L 35.5 64.59375 
L 35.5 0 
L 25.59375 0 
L 25.59375 64.59375 
L -0.296875 64.59375 
z
" id="DejaVuSans-84"/>
      <path d="M 9.421875 54.6875 
L 18.40625 54.6875 
L 18.40625 0 
L 9.421875 0 
z
M 9.421875 75.984375 
L 18.40625 75.984375 
L 18.40625 64.59375 
L 9.421875 64.59375 
z
" id="DejaVuSans-105"/>
      <path d="M 52 44.1875 
Q 55.375 50.25 60.0625 53.125 
Q 64.75 56 71.09375 56 
Q 79.640625 56 84.28125 50.015625 
Q 88.921875 44.046875 88.921875 33.015625 
L 88.921875 0 
L 79.890625 0 
L 79.890625 32.71875 
Q 79.890625 40.578125 77.09375 44.375 
Q 74.3125 48.1875 68.609375 48.1875 
Q 61.625 48.1875 57.5625 43.546875 
Q 53.515625 38.921875 53.515625 30.90625 
L 53.515625 0 
L 44.484375 0 
L 44.484375 32.71875 
Q 44.484375 40.625 41.703125 44.40625 
Q 38.921875 48.1875 33.109375 48.1875 
Q 26.21875 48.1875 22.15625 43.53125 
Q 18.109375 38.875 18.109375 30.90625 
L 18.109375 0 
L 9.078125 0 
L 9.078125 54.6875 
L 18.109375 54.6875 
L 18.109375 46.1875 
Q 21.1875 51.21875 25.484375 53.609375 
Q 29.78125 56 35.6875 56 
Q 41.65625 56 45.828125 52.96875 
Q 50 49.953125 52 44.1875 
z
" id="DejaVuSans-109"/>
      <path d="M 56.203125 29.59375 
L 56.203125 25.203125 
L 14.890625 25.203125 
Q 15.484375 15.921875 20.484375 11.0625 
Q 25.484375 6.203125 34.421875 6.203125 
Q 39.59375 6.203125 44.453125 7.46875 
Q 49.3125 8.734375 54.109375 11.28125 
L 54.109375 2.78125 
Q 49.265625 0.734375 44.1875 -0.34375 
Q 39.109375 -1.421875 33.890625 -1.421875 
Q 20.796875 -1.421875 13.15625 6.1875 
Q 5.515625 13.8125 5.515625 26.8125 
Q 5.515625 40.234375 12.765625 48.109375 
Q 20.015625 56 32.328125 56 
Q 43.359375 56 49.78125 48.890625 
Q 56.203125 41.796875 56.203125 29.59375 
z
M 47.21875 32.234375 
Q 47.125 39.59375 43.09375 43.984375 
Q 39.0625 48.390625 32.421875 48.390625 
Q 24.90625 48.390625 20.390625 44.140625 
Q 15.875 39.890625 15.1875 32.171875 
z
" id="DejaVuSans-101"/>
      <path d="M 44.28125 53.078125 
L 44.28125 44.578125 
Q 40.484375 46.53125 36.375 47.5 
Q 32.28125 48.484375 27.875 48.484375 
Q 21.1875 48.484375 17.84375 46.4375 
Q 14.5 44.390625 14.5 40.28125 
Q 14.5 37.15625 16.890625 35.375 
Q 19.28125 33.59375 26.515625 31.984375 
L 29.59375 31.296875 
Q 39.15625 29.25 43.1875 25.515625 
Q 47.21875 21.78125 47.21875 15.09375 
Q 47.21875 7.46875 41.1875 3.015625 
Q 35.15625 -1.421875 24.609375 -1.421875 
Q 20.21875 -1.421875 15.453125 -0.5625 
Q 10.6875 0.296875 5.421875 2 
L 5.421875 11.28125 
Q 10.40625 8.6875 15.234375 7.390625 
Q 20.0625 6.109375 24.8125 6.109375 
Q 31.15625 6.109375 34.5625 8.28125 
Q 37.984375 10.453125 37.984375 14.40625 
Q 37.984375 18.0625 35.515625 20.015625 
Q 33.0625 21.96875 24.703125 23.78125 
L 21.578125 24.515625 
Q 13.234375 26.265625 9.515625 29.90625 
Q 5.8125 33.546875 5.8125 39.890625 
Q 5.8125 47.609375 11.28125 51.796875 
Q 16.75 56 26.8125 56 
Q 31.78125 56 36.171875 55.265625 
Q 40.578125 54.546875 44.28125 53.078125 
z
" id="DejaVuSans-115"/>
      <path d="M 18.3125 70.21875 
L 18.3125 54.6875 
L 36.8125 54.6875 
L 36.8125 47.703125 
L 18.3125 47.703125 
L 18.3125 18.015625 
Q 18.3125 11.328125 20.140625 9.421875 
Q 21.96875 7.515625 27.59375 7.515625 
L 36.8125 7.515625 
L 36.8125 0 
L 27.59375 0 
Q 17.1875 0 13.234375 3.875 
Q 9.28125 7.765625 9.28125 18.015625 
L 9.28125 47.703125 
L 2.6875 47.703125 
L 2.6875 54.6875 
L 9.28125 54.6875 
L 9.28125 70.21875 
z
" id="DejaVuSans-116"/>
      <path d="M 34.28125 27.484375 
Q 23.390625 27.484375 19.1875 25 
Q 14.984375 22.515625 14.984375 16.5 
Q 14.984375 11.71875 18.140625 8.90625 
Q 21.296875 6.109375 26.703125 6.109375 
Q 34.1875 6.109375 38.703125 11.40625 
Q 43.21875 16.703125 43.21875 25.484375 
L 43.21875 27.484375 
z
M 52.203125 31.203125 
L 52.203125 0 
L 43.21875 0 
L 43.21875 8.296875 
Q 40.140625 3.328125 35.546875 0.953125 
Q 30.953125 -1.421875 24.3125 -1.421875 
Q 15.921875 -1.421875 10.953125 3.296875 
Q 6 8.015625 6 15.921875 
Q 6 25.140625 12.171875 29.828125 
Q 18.359375 34.515625 30.609375 34.515625 
L 43.21875 34.515625 
L 43.21875 35.40625 
Q 43.21875 41.609375 39.140625 45 
Q 35.0625 48.390625 27.6875 48.390625 
Q 23 48.390625 18.546875 47.265625 
Q 14.109375 46.140625 10.015625 43.890625 
L 10.015625 52.203125 
Q 14.9375 54.109375 19.578125 55.046875 
Q 24.21875 56 28.609375 56 
Q 40.484375 56 46.34375 49.84375 
Q 52.203125 43.703125 52.203125 31.203125 
z
" id="DejaVuSans-97"/>
      <path d="M 18.109375 8.203125 
L 18.109375 -20.796875 
L 9.078125 -20.796875 
L 9.078125 54.6875 
L 18.109375 54.6875 
L 18.109375 46.390625 
Q 20.953125 51.265625 25.265625 53.625 
Q 29.59375 56 35.59375 56 
Q 45.5625 56 51.78125 48.09375 
Q 58.015625 40.1875 58.015625 27.296875 
Q 58.015625 14.40625 51.78125 6.484375 
Q 45.5625 -1.421875 35.59375 -1.421875 
Q 29.59375 -1.421875 25.265625 0.953125 
Q 20.953125 3.328125 18.109375 8.203125 
z
M 48.6875 27.296875 
Q 48.6875 37.203125 44.609375 42.84375 
Q 40.53125 48.484375 33.40625 48.484375 
Q 26.265625 48.484375 22.1875 42.84375 
Q 18.109375 37.203125 18.109375 27.296875 
Q 18.109375 17.390625 22.1875 11.75 
Q 26.265625 6.109375 33.40625 6.109375 
Q 40.53125 6.109375 44.609375 11.75 
Q 48.6875 17.390625 48.6875 27.296875 
z
" id="DejaVuSans-112"/>
     </defs>
     <g transform="translate(414.739062 412.756563)scale(0.1 -0.1)">
      <use xlink:href="#DejaVuSans-84"/>
      <use x="61.037109" xlink:href="#DejaVuSans-105"/>
      <use x="88.820312" xlink:href="#DejaVuSans-109"/>
      <use x="186.232422" xlink:href="#DejaVuSans-101"/>
      <use x="247.755859" xlink:href="#DejaVuSans-115"/>
      <use x="299.855469" xlink:href="#DejaVuSans-116"/>
      <use x="339.064453" xlink:href="#DejaVuSans-97"/>
      <use x="400.34375" xlink:href="#DejaVuSans-109"/>
      <use x="497.755859" xlink:href="#DejaVuSans-112"/>
     </g>
    </g>
   </g>
   <g id="matplotlib.axis_2">
    <g id="ytick_1">
     <g id="line2d_9">
      <defs>
       <path d="M 0 0 
L -3.5 0 
" id="mf90b97479e" style="stroke:#000000;stroke-width:0.8;"/>
      </defs>
      <g>
       <use style="stroke:#000000;stroke-width:0.8;" x="108" xlink:href="#mf90b97479e" y="351.558314"/>
      </g>
     </g>
     <g id="text_10">
      <!-- −5000 -->
      <defs>
       <path d="M 10.59375 35.5 
L 73.1875 35.5 
L 73.1875 27.203125 
L 10.59375 27.203125 
z
" id="DejaVuSans-8722"/>
      </defs>
      <g transform="translate(67.170312 355.357533)scale(0.1 -0.1)">
       <use xlink:href="#DejaVuSans-8722"/>
       <use x="83.789062" xlink:href="#DejaVuSans-53"/>
       <use x="147.412109" xlink:href="#DejaVuSans-48"/>
       <use x="211.035156" xlink:href="#DejaVuSans-48"/>
       <use x="274.658203" xlink:href="#DejaVuSans-48"/>
      </g>
     </g>
    </g>
    <g id="ytick_2">
     <g id="line2d_10">
      <g>
       <use style="stroke:#000000;stroke-width:0.8;" x="108" xlink:href="#mf90b97479e" y="298.010021"/>
      </g>
     </g>
     <g id="text_11">
      <!-- −4000 -->
      <defs>
       <path d="M 37.796875 64.3125 
L 12.890625 25.390625 
L 37.796875 25.390625 
z
M 35.203125 72.90625 
L 47.609375 72.90625 
L 47.609375 25.390625 
L 58.015625 25.390625 
L 58.015625 17.1875 
L 47.609375 17.1875 
L 47.609375 0 
L 37.796875 0 
L 37.796875 17.1875 
L 4.890625 17.1875 
L 4.890625 26.703125 
z
" id="DejaVuSans-52"/>
      </defs>
      <g transform="translate(67.170312 301.80924)scale(0.1 -0.1)">
       <use xlink:href="#DejaVuSans-8722"/>
       <use x="83.789062" xlink:href="#DejaVuSans-52"/>
       <use x="147.412109" xlink:href="#DejaVuSans-48"/>
       <use x="211.035156" xlink:href="#DejaVuSans-48"/>
       <use x="274.658203" xlink:href="#DejaVuSans-48"/>
      </g>
     </g>
    </g>
    <g id="ytick_3">
     <g id="line2d_11">
      <g>
       <use style="stroke:#000000;stroke-width:0.8;" x="108" xlink:href="#mf90b97479e" y="244.461728"/>
      </g>
     </g>
     <g id="text_12">
      <!-- −3000 -->
      <defs>
       <path d="M 40.578125 39.3125 
Q 47.65625 37.796875 51.625 33 
Q 55.609375 28.21875 55.609375 21.1875 
Q 55.609375 10.40625 48.1875 4.484375 
Q 40.765625 -1.421875 27.09375 -1.421875 
Q 22.515625 -1.421875 17.65625 -0.515625 
Q 12.796875 0.390625 7.625 2.203125 
L 7.625 11.71875 
Q 11.71875 9.328125 16.59375 8.109375 
Q 21.484375 6.890625 26.8125 6.890625 
Q 36.078125 6.890625 40.9375 10.546875 
Q 45.796875 14.203125 45.796875 21.1875 
Q 45.796875 27.640625 41.28125 31.265625 
Q 36.765625 34.90625 28.71875 34.90625 
L 20.21875 34.90625 
L 20.21875 43.015625 
L 29.109375 43.015625 
Q 36.375 43.015625 40.234375 45.921875 
Q 44.09375 48.828125 44.09375 54.296875 
Q 44.09375 59.90625 40.109375 62.90625 
Q 36.140625 65.921875 28.71875 65.921875 
Q 24.65625 65.921875 20.015625 65.03125 
Q 15.375 64.15625 9.8125 62.3125 
L 9.8125 71.09375 
Q 15.4375 72.65625 20.34375 73.4375 
Q 25.25 74.21875 29.59375 74.21875 
Q 40.828125 74.21875 47.359375 69.109375 
Q 53.90625 64.015625 53.90625 55.328125 
Q 53.90625 49.265625 50.4375 45.09375 
Q 46.96875 40.921875 40.578125 39.3125 
z
" id="DejaVuSans-51"/>
      </defs>
      <g transform="translate(67.170312 248.260947)scale(0.1 -0.1)">
       <use xlink:href="#DejaVuSans-8722"/>
       <use x="83.789062" xlink:href="#DejaVuSans-51"/>
       <use x="147.412109" xlink:href="#DejaVuSans-48"/>
       <use x="211.035156" xlink:href="#DejaVuSans-48"/>
       <use x="274.658203" xlink:href="#DejaVuSans-48"/>
      </g>
     </g>
    </g>
    <g id="ytick_4">
     <g id="line2d_12">
      <g>
       <use style="stroke:#000000;stroke-width:0.8;" x="108" xlink:href="#mf90b97479e" y="190.913435"/>
      </g>
     </g>
     <g id="text_13">
      <!-- −2000 -->
      <g transform="translate(67.170312 194.712654)scale(0.1 -0.1)">
       <use xlink:href="#DejaVuSans-8722"/>
       <use x="83.789062" xlink:href="#DejaVuSans-50"/>
       <use x="147.412109" xlink:href="#DejaVuSans-48"/>
       <use x="211.035156" xlink:href="#DejaVuSans-48"/>
       <use x="274.658203" xlink:href="#DejaVuSans-48"/>
      </g>
     </g>
    </g>
    <g id="ytick_5">
     <g id="line2d_13">
      <g>
       <use style="stroke:#000000;stroke-width:0.8;" x="108" xlink:href="#mf90b97479e" y="137.365142"/>
      </g>
     </g>
     <g id="text_14">
      <!-- −1000 -->
      <g transform="translate(67.170312 141.164361)scale(0.1 -0.1)">
       <use xlink:href="#DejaVuSans-8722"/>
       <use x="83.789062" xlink:href="#DejaVuSans-49"/>
       <use x="147.412109" xlink:href="#DejaVuSans-48"/>
       <use x="211.035156" xlink:href="#DejaVuSans-48"/>
       <use x="274.658203" xlink:href="#DejaVuSans-48"/>
      </g>
     </g>
    </g>
    <g id="ytick_6">
     <g id="line2d_14">
      <g>
       <use style="stroke:#000000;stroke-width:0.8;" x="108" xlink:href="#mf90b97479e" y="83.816849"/>
      </g>
     </g>
     <g id="text_15">
      <!-- 0 -->
      <g transform="translate(94.6375 87.616068)scale(0.1 -0.1)">
       <use xlink:href="#DejaVuSans-48"/>
      </g>
     </g>
    </g>
    <g id="text_16">
     <!-- Value -->
     <defs>
      <path d="M 28.609375 0 
L 0.78125 72.90625 
L 11.078125 72.90625 
L 34.1875 11.53125 
L 57.328125 72.90625 
L 67.578125 72.90625 
L 39.796875 0 
z
" id="DejaVuSans-86"/>
      <path d="M 9.421875 75.984375 
L 18.40625 75.984375 
L 18.40625 0 
L 9.421875 0 
z
" id="DejaVuSans-108"/>
      <path d="M 8.5 21.578125 
L 8.5 54.6875 
L 17.484375 54.6875 
L 17.484375 21.921875 
Q 17.484375 14.15625 20.5 10.265625 
Q 23.53125 6.390625 29.59375 6.390625 
Q 36.859375 6.390625 41.078125 11.03125 
Q 45.3125 15.671875 45.3125 23.6875 
L 45.3125 54.6875 
L 54.296875 54.6875 
L 54.296875 0 
L 45.3125 0 
L 45.3125 8.40625 
Q 42.046875 3.421875 37.71875 1 
Q 33.40625 -1.421875 27.6875 -1.421875 
Q 18.265625 -1.421875 13.375 4.4375 
Q 8.5 10.296875 8.5 21.578125 
z
M 31.109375 56 
z
" id="DejaVuSans-117"/>
     </defs>
     <g transform="translate(61.090625 232.273281)rotate(-90)scale(0.1 -0.1)">
      <use xlink:href="#DejaVuSans-86"/>
      <use x="68.298828" xlink:href="#DejaVuSans-97"/>
      <use x="129.578125" xlink:href="#DejaVuSans-108"/>
      <use x="157.361328" xlink:href="#DejaVuSans-117"/>
      <use x="220.740234" xlink:href="#DejaVuSans-101"/>
     </g>
    </g>
   </g>
   <g id="line2d_15">
    <path clip-path="url(#p49dd451d75)" d="M 138.436364 85.329797 
L 138.798701 77.104023 
L 139.161039 74.316876 
L 139.523377 66.96 
L 139.885714 72.830764 
L 140.248052 71.252218 
L 140.972727 84.434477 
L 141.335065 84.89034 
L 141.697403 89.243282 
L 142.05974 89.846773 
L 142.422078 85.50137 
L 142.784416 84.72218 
L 143.146753 78.784436 
L 143.509091 78.643596 
L 144.233766 82.149657 
L 144.596104 86.038782 
L 144.958442 92.734123 
L 145.320779 93.343142 
L 145.683117 101.178215 
L 146.045455 97.501238 
L 146.407792 96.25087 
L 146.77013 91.842778 
L 147.132468 81.321288 
L 147.494805 79.869359 
L 147.857143 72.80311 
L 148.219481 71.967423 
L 148.581818 70.273407 
L 149.306494 76.446201 
L 150.031169 88.344247 
L 150.393506 89.74567 
L 150.755844 92.121441 
L 151.118182 89.25286 
L 151.480519 91.957867 
L 151.842857 83.229978 
L 152.205195 79.317054 
L 152.567532 84.144794 
L 153.292208 86.249066 
L 154.016883 97.974414 
L 154.379221 101.156824 
L 154.741558 101.966166 
L 155.103896 100.468587 
L 155.466234 96.686773 
L 156.553247 72.753957 
L 156.915584 71.499266 
L 157.277922 74.049482 
L 157.64026 77.767022 
L 158.002597 83.080525 
L 158.364935 85.386845 
L 159.08961 97.106078 
L 159.814286 93.155389 
L 160.176623 88.472527 
L 160.538961 87.092944 
L 160.901299 89.007165 
L 161.263636 84.862307 
L 161.988312 90.985407 
L 162.712987 105.784726 
L 163.075325 109.549727 
L 163.437662 107.398593 
L 163.8 107.364271 
L 164.162338 102.168842 
L 165.249351 79.695654 
L 165.611688 82.372846 
L 165.974026 81.515366 
L 166.336364 80.060637 
L 166.698701 93.137339 
L 167.423377 98.041724 
L 167.785714 99.95649 
L 168.148052 99.737718 
L 168.51039 102.754563 
L 168.872727 95.662766 
L 169.235065 95.746525 
L 169.597403 95.197386 
L 169.95974 95.731948 
L 170.322078 94.094635 
L 171.409091 111.556727 
L 171.771429 114.420148 
L 172.133766 114.803355 
L 172.496104 111.935691 
L 172.858442 110.388771 
L 173.583117 94.043133 
L 173.945455 89.227144 
L 174.307792 86.574376 
L 174.67013 86.282806 
L 175.032468 90.670971 
L 175.394805 93.449984 
L 175.757143 103.338511 
L 176.119481 106.808144 
L 176.481818 106.867879 
L 176.844156 108.174403 
L 177.206494 106.564674 
L 177.568831 102.218468 
L 177.931169 101.567142 
L 178.293506 99.648003 
L 178.655844 98.570124 
L 179.018182 102.932756 
L 179.380519 105.256085 
L 179.742857 111.782944 
L 180.105195 114.913603 
L 180.467532 120.31869 
L 180.82987 119.32323 
L 181.192208 119.068534 
L 181.916883 104.302799 
L 182.279221 101.921576 
L 183.003896 90.34141 
L 183.366234 95.97734 
L 183.728571 94.719054 
L 184.090909 99.347239 
L 184.453247 106.664001 
L 185.177922 114.609755 
L 185.54026 114.559856 
L 185.902597 111.357901 
L 186.264935 109.636011 
L 186.627273 104.811283 
L 186.98961 105.364098 
L 187.351948 103.181299 
L 187.714286 108.527377 
L 188.076623 111.630988 
L 188.438961 117.683001 
L 188.801299 119.527273 
L 189.163636 122.724553 
L 189.525974 123.575236 
L 189.888312 120.872211 
L 190.250649 114.797494 
L 190.612987 110.747766 
L 190.975325 103.037121 
L 191.337662 98.039253 
L 191.7 96.159178 
L 192.062338 95.325675 
L 192.424675 95.929386 
L 193.149351 107.993548 
L 193.511688 112.721523 
L 193.874026 113.067645 
L 194.236364 117.376129 
L 194.598701 115.079476 
L 194.961039 109.274827 
L 195.323377 108.299559 
L 195.685714 106.304995 
L 196.048052 107.251235 
L 196.41039 105.759613 
L 197.135065 118.406779 
L 197.85974 128.757947 
L 198.584416 121.854641 
L 198.946753 119.230821 
L 199.671429 100.870971 
L 200.033766 99.207238 
L 200.396104 98.878075 
L 200.758442 96.222077 
L 201.845455 109.604248 
L 202.207792 86.156276 
L 202.57013 114.940622 
L 203.294805 116.450777 
L 203.657143 110.470891 
L 204.019481 108.092101 
L 204.381818 109.347368 
L 204.744156 107.051833 
L 205.106494 111.779948 
L 205.468831 113.60277 
L 206.193506 120.740037 
L 206.555844 128.954049 
L 207.280519 124.048452 
L 207.642857 116.94833 
L 208.005195 114.023532 
L 208.72987 98.204869 
L 209.092208 100.878063 
L 209.454545 95.511985 
L 209.816883 101.385216 
L 210.179221 101.741421 
L 210.541558 113.380295 
L 210.903896 115.018333 
L 211.266234 117.708742 
L 211.628571 118.75313 
L 211.990909 113.259405 
L 212.353247 115.258921 
L 212.715584 112.192173 
L 213.077922 107.018781 
L 213.44026 108.404739 
L 213.802597 108.494414 
L 214.527273 121.145454 
L 214.88961 128.723039 
L 215.251948 127.952931 
L 215.614286 131.81314 
L 215.976623 125.523901 
L 216.338961 121.404611 
L 217.425974 102.33886 
L 217.788312 104.489799 
L 218.150649 98.979843 
L 218.875325 113.073788 
L 219.237662 114.698539 
L 219.6 119.962561 
L 219.962338 121.338835 
L 220.324675 123.415158 
L 220.687013 118.479741 
L 221.049351 118.21042 
L 221.411688 113.930241 
L 221.774026 115.740063 
L 222.136364 114.531285 
L 222.861039 120.967165 
L 223.223377 125.671973 
L 223.585714 132.637112 
L 223.948052 133.788098 
L 224.31039 131.346511 
L 224.672727 129.690892 
L 225.035065 125.378566 
L 225.397403 122.818123 
L 225.75974 113.360625 
L 226.122078 109.32393 
L 226.484416 109.154814 
L 226.846753 105.937336 
L 227.209091 112.882786 
L 227.571429 114.673785 
L 227.933766 122.983869 
L 228.296104 123.836725 
L 229.020779 129.979287 
L 229.383117 129.049235 
L 230.107792 121.513036 
L 230.47013 120.54318 
L 230.832468 118.634685 
L 231.194805 124.614602 
L 231.919481 132.119685 
L 232.281818 134.960907 
L 232.644156 141.536182 
L 233.006494 141.479655 
L 233.368831 136.405216 
L 233.731169 135.498578 
L 234.093506 124.726158 
L 234.818182 116.501876 
L 235.180519 115.698318 
L 235.542857 117.307625 
L 236.267532 124.843396 
L 236.62987 126.356448 
L 236.992208 135.353193 
L 237.354545 135.38486 
L 237.716883 136.417832 
L 238.079221 136.873326 
L 238.441558 131.328424 
L 238.803896 128.169709 
L 239.166234 127.033247 
L 239.528571 124.284721 
L 240.615584 137.979924 
L 240.977922 144.174903 
L 241.34026 146.988204 
L 241.702597 147.281664 
L 242.427273 137.825805 
L 242.78961 134.386789 
L 243.151948 126.616242 
L 243.876623 119.300706 
L 244.238961 120.357944 
L 244.601299 126.15474 
L 245.325974 133.299702 
L 245.688312 138.608562 
L 246.050649 135.532133 
L 246.412987 140.464171 
L 247.137662 137.236682 
L 247.5 130.725351 
L 247.862338 132.185481 
L 248.224675 130.261837 
L 248.587013 135.641009 
L 248.949351 138.899619 
L 249.311688 140.404537 
L 249.674026 149.765248 
L 250.036364 151.637594 
L 250.398701 152.045807 
L 251.123377 144.278916 
L 251.848052 128.916907 
L 252.572727 123.58025 
L 252.935065 118.982631 
L 253.297403 121.137193 
L 253.65974 131.830476 
L 254.022078 134.665944 
L 254.384416 138.40779 
L 254.746753 140.367972 
L 255.471429 141.333131 
L 255.833766 136.215649 
L 256.196104 137.0561 
L 256.558442 134.047614 
L 256.920779 134.281617 
L 257.645455 137.039499 
L 258.007792 145.262113 
L 258.37013 149.279088 
L 258.732468 150.338379 
L 259.094805 152.651958 
L 259.457143 147.669718 
L 259.819481 147.413129 
L 260.181818 135.018589 
L 260.544156 132.449214 
L 261.268831 122.909389 
L 261.631169 121.348673 
L 262.355844 131.417227 
L 263.080519 140.878785 
L 263.442857 144.268963 
L 263.805195 143.059368 
L 264.167532 142.852045 
L 264.52987 137.057123 
L 264.892208 133.749779 
L 265.254545 135.017334 
L 265.616883 134.366743 
L 265.979221 136.061453 
L 266.341558 139.726909 
L 267.066234 150.626062 
L 267.428571 152.684045 
L 267.790909 153.037686 
L 268.153247 150.935998 
L 268.877922 140.352189 
L 269.24026 131.875239 
L 269.602597 130.393736 
L 269.964935 123.15873 
L 270.327273 124.630645 
L 271.051948 133.246565 
L 271.776623 139.617384 
L 272.138961 144.83699 
L 272.501299 144.794434 
L 273.225974 139.760641 
L 273.588312 110.099702 
L 273.950649 134.708038 
L 274.675325 139.314871 
L 275.037662 144.715263 
L 275.4 146.744947 
L 275.762338 156.528249 
L 276.124675 159.073553 
L 276.487013 153.325593 
L 276.849351 153.111062 
L 277.211688 145.817265 
L 277.574026 144.766127 
L 277.936364 136.146474 
L 278.661039 128.668332 
L 279.023377 129.073123 
L 279.385714 131.646002 
L 280.11039 143.017262 
L 280.472727 144.240039 
L 280.835065 148.983741 
L 281.197403 152.043665 
L 281.55974 146.460973 
L 281.922078 144.491381 
L 282.646753 138.592041 
L 283.009091 138.693705 
L 283.371429 140.973013 
L 283.733766 148.360551 
L 284.458442 156.465925 
L 284.820779 162.863303 
L 285.545455 159.121318 
L 286.27013 151.518666 
L 286.632468 141.31993 
L 286.994805 136.335364 
L 287.357143 135.339931 
L 287.719481 135.121599 
L 288.081818 137.519597 
L 288.444156 144.026673 
L 288.806494 143.503201 
L 289.168831 151.145482 
L 289.893506 156.828483 
L 290.255844 156.197973 
L 290.618182 153.283006 
L 290.980519 147.97849 
L 291.342857 145.420016 
L 292.067532 152.461869 
L 292.792208 161.832311 
L 293.154545 161.693377 
L 293.516883 168.431716 
L 294.241558 166.980416 
L 294.603896 159.129102 
L 294.966234 156.714182 
L 295.690909 143.579449 
L 296.053247 141.926733 
L 296.415584 140.97341 
L 296.777922 146.167941 
L 297.14026 148.763362 
L 297.502597 152.764938 
L 297.864935 161.542029 
L 298.227273 161.729319 
L 298.58961 162.324533 
L 298.951948 162.23642 
L 299.314286 156.948938 
L 299.676623 154.234821 
L 300.038961 153.732545 
L 300.401299 155.383334 
L 300.763636 154.258368 
L 301.125974 162.604947 
L 301.850649 166.788927 
L 302.212987 175.832801 
L 302.575325 172.235445 
L 302.937662 171.983302 
L 304.024675 152.58874 
L 304.387013 149.024471 
L 304.749351 149.326272 
L 305.111688 148.095652 
L 305.474026 149.130355 
L 305.836364 155.847365 
L 306.198701 159.925915 
L 306.561039 165.891672 
L 306.923377 166.184682 
L 307.285714 168.622806 
L 307.648052 165.850754 
L 308.01039 161.065356 
L 308.735065 156.42445 
L 309.097403 157.460371 
L 309.45974 162.401179 
L 309.822078 164.4813 
L 310.546753 176.429546 
L 310.909091 177.197295 
L 311.633766 174.765161 
L 311.996104 166.424121 
L 312.358442 163.966624 
L 312.720779 154.277095 
L 313.445455 147.15258 
L 313.807792 148.42664 
L 314.17013 154.481467 
L 314.532468 156.806502 
L 314.894805 165.00723 
L 315.257143 166.063697 
L 315.619481 168.980108 
L 315.981818 169.796786 
L 316.344156 165.508339 
L 316.706494 164.663402 
L 317.068831 161.610096 
L 317.431169 160.277879 
L 317.793506 156.609418 
L 318.155844 162.042269 
L 318.518182 165.580003 
L 318.880519 172.012381 
L 319.242857 173.414091 
L 319.605195 178.713211 
L 319.967532 179.87274 
L 320.32987 178.151602 
L 321.054545 164.386051 
L 321.779221 151.440553 
L 322.141558 151.51011 
L 322.503896 148.267758 
L 323.953247 168.475688 
L 324.315584 171.412226 
L 324.677922 170.178276 
L 325.04026 170.092014 
L 325.402597 165.984956 
L 325.764935 164.106737 
L 326.127273 160.144751 
L 326.48961 159.117665 
L 326.851948 162.789914 
L 327.214286 167.964423 
L 327.576623 169.328631 
L 327.938961 181.703456 
L 328.301299 180.549311 
L 328.663636 179.977659 
L 329.025974 177.06354 
L 329.388312 172.906146 
L 330.112987 159.466466 
L 330.475325 156.546801 
L 330.837662 151.596858 
L 331.2 151.817177 
L 331.562338 158.179695 
L 331.924675 160.967233 
L 332.287013 168.316051 
L 332.649351 169.380141 
L 333.011688 174.105761 
L 333.374026 170.298999 
L 333.736364 170.749911 
L 334.098701 170.414707 
L 334.823377 161.585103 
L 335.185714 163.099783 
L 335.548052 165.441963 
L 335.91039 171.02961 
L 336.272727 174.149045 
L 336.635065 180.768834 
L 336.997403 184.904073 
L 337.35974 184.496546 
L 337.722078 183.864573 
L 338.446753 167.12582 
L 339.171429 156.782273 
L 339.533766 156.892775 
L 339.896104 155.98961 
L 340.258442 158.273129 
L 341.345455 173.820616 
L 341.707792 175.994672 
L 342.07013 175.319842 
L 342.794805 170.902553 
L 343.157143 169.721403 
L 343.519481 168.962158 
L 343.881818 168.85417 
L 344.606494 176.329891 
L 344.968831 177.687326 
L 345.331169 185.21329 
L 345.693506 188.033217 
L 346.055844 192.265944 
L 346.418182 184.363094 
L 346.780519 181.003893 
L 347.505195 169.147659 
L 347.867532 162.261889 
L 348.22987 163.344953 
L 348.592208 161.739371 
L 348.954545 165.264348 
L 349.316883 170.0128 
L 349.679221 176.983656 
L 350.041558 176.559334 
L 350.403896 183.095127 
L 350.766234 184.425548 
L 351.128571 180.713963 
L 351.490909 178.480772 
L 351.853247 174.78118 
L 352.215584 172.317277 
L 352.577922 172.017034 
L 352.94026 175.799255 
L 353.664935 185.110425 
L 354.027273 188.105218 
L 354.38961 194.928959 
L 354.751948 195.998014 
L 355.114286 188.669475 
L 355.476623 190.207487 
L 355.838961 181.622451 
L 356.201299 175.910933 
L 356.563636 172.237135 
L 356.925974 171.914519 
L 357.288312 169.765224 
L 357.650649 174.038012 
L 358.012987 174.47596 
L 358.737662 188.209349 
L 359.1 213.607735 
L 359.462338 191.068713 
L 359.824675 189.498043 
L 360.549351 181.546131 
L 360.911688 180.295028 
L 361.274026 179.891862 
L 361.998701 186.447677 
L 363.085714 201.513602 
L 363.448052 201.325936 
L 363.81039 199.852112 
L 364.535065 188.194939 
L 364.897403 177.985875 
L 365.25974 173.651597 
L 365.622078 174.211135 
L 365.984416 174.4857 
L 366.346753 176.350865 
L 366.709091 177.343574 
L 367.071429 187.9902 
L 367.433766 191.184264 
L 368.158442 195.452666 
L 368.520779 193.184413 
L 368.883117 188.943968 
L 369.245455 188.927273 
L 369.607792 186.214054 
L 369.97013 180.521908 
L 370.332468 189.571073 
L 370.694805 193.667925 
L 371.057143 196.36493 
L 371.419481 202.337595 
L 371.781818 202.725188 
L 372.144156 201.814493 
L 372.506494 202.77884 
L 373.955844 178.518793 
L 374.318182 148.914395 
L 374.680519 174.872704 
L 375.405195 182.565713 
L 375.767532 190.449585 
L 376.12987 194.471808 
L 376.492208 194.015251 
L 376.854545 198.556592 
L 377.216883 193.911128 
L 377.579221 194.345272 
L 377.941558 188.429498 
L 378.303896 190.690268 
L 378.666234 183.625828 
L 379.028571 188.197588 
L 379.390909 190.80224 
L 380.115584 202.324979 
L 380.477922 207.753547 
L 380.84026 207.101375 
L 381.202597 204.946004 
L 381.927273 191.116465 
L 382.651948 179.045539 
L 383.014286 178.400764 
L 383.376623 177.4919 
L 383.738961 179.839841 
L 384.101299 183.925115 
L 384.463636 190.591161 
L 384.825974 194.62671 
L 385.188312 194.76423 
L 385.550649 199.92894 
L 385.912987 196.438597 
L 386.275325 191.590102 
L 386.637662 189.048141 
L 387 187.34171 
L 387.362338 183.994344 
L 387.724675 192.189871 
L 388.087013 218.962781 
L 388.449351 202.238478 
L 388.811688 204.732635 
L 389.174026 204.077473 
L 389.536364 205.240806 
L 389.898701 201.606093 
L 390.261039 202.101335 
L 390.623377 192.274741 
L 390.985714 186.07196 
L 391.348052 183.957584 
L 391.71039 181.173045 
L 392.072727 182.534841 
L 392.435065 181.625865 
L 393.15974 193.733357 
L 393.522078 195.760901 
L 393.884416 195.157019 
L 394.246753 200.177077 
L 394.971429 191.980093 
L 395.333766 190.589436 
L 395.696104 191.330006 
L 396.058442 188.425654 
L 396.420779 194.663173 
L 396.783117 194.770582 
L 397.145455 204.487157 
L 397.507792 207.021505 
L 397.87013 210.667514 
L 398.232468 209.77178 
L 398.594805 211.453009 
L 399.319481 194.987395 
L 399.681818 190.967888 
L 400.044156 184.793336 
L 400.406494 183.311826 
L 400.768831 183.533084 
L 401.493506 192.583556 
L 401.855844 194.209152 
L 402.218182 200.719299 
L 402.580519 201.838388 
L 402.942857 206.066716 
L 403.305195 200.11391 
L 403.667532 199.687223 
L 404.02987 194.17251 
L 404.392208 193.835878 
L 404.754545 194.19485 
L 405.116883 197.376385 
L 406.203896 212.885542 
L 406.566234 213.805617 
L 406.928571 214.208953 
L 407.290909 215.696995 
L 407.653247 208.339051 
L 408.015584 203.569618 
L 408.377922 195.314455 
L 409.102597 187.050209 
L 409.464935 189.742541 
L 409.827273 191.060164 
L 410.18961 198.426945 
L 410.914286 204.823958 
L 411.276623 210.95413 
L 411.638961 211.301191 
L 412.001299 206.709773 
L 412.363636 207.221894 
L 412.725974 201.110205 
L 413.088312 201.11625 
L 413.450649 203.071923 
L 413.812987 203.557194 
L 414.175325 209.85264 
L 414.537662 213.369345 
L 414.9 220.177151 
L 415.262338 223.853169 
L 415.624675 222.636296 
L 416.349351 214.148494 
L 416.711688 209.587406 
L 417.436364 197.780872 
L 417.798701 194.812641 
L 418.161039 194.793177 
L 418.523377 197.564517 
L 418.885714 204.763886 
L 419.248052 206.373357 
L 419.61039 213.805912 
L 419.972727 214.385515 
L 420.335065 219.05052 
L 420.697403 213.372273 
L 421.05974 211.34155 
L 421.422078 181.222626 
L 421.784416 208.866436 
L 422.146753 207.9577 
L 422.509091 211.735586 
L 422.871429 217.931331 
L 423.233766 217.666783 
L 423.596104 226.129541 
L 423.958442 227.483061 
L 424.320779 226.256963 
L 424.683117 227.203047 
L 425.045455 193.638978 
L 425.407792 215.26363 
L 426.132468 203.116572 
L 426.494805 201.651237 
L 426.857143 200.93431 
L 427.219481 203.036632 
L 427.581818 210.366363 
L 427.944156 215.379822 
L 428.306494 217.121285 
L 428.668831 219.72103 
L 429.031169 221.23106 
L 429.393506 219.595404 
L 430.118182 212.637233 
L 430.480519 211.271051 
L 430.842857 213.09816 
L 431.205195 218.812912 
L 431.567532 215.315809 
L 432.654545 234.335602 
L 433.016883 233.728603 
L 433.379221 230.195078 
L 433.741558 225.426092 
L 434.466234 209.986157 
L 434.828571 204.886219 
L 435.190909 204.145468 
L 435.553247 208.728807 
L 435.915584 206.952768 
L 436.277922 208.730578 
L 437.364935 224.853423 
L 438.08961 225.153747 
L 438.451948 219.027072 
L 439.176623 210.354334 
L 439.538961 213.16828 
L 439.901299 213.933326 
L 440.263636 218.506723 
L 440.988312 231.519928 
L 441.350649 234.618344 
L 441.712987 233.343984 
L 442.075325 230.955028 
L 442.8 220.639342 
L 443.162338 210.325966 
L 443.887013 203.763302 
L 444.249351 203.295373 
L 444.611688 209.571501 
L 444.974026 212.264498 
L 445.698701 222.619739 
L 446.061039 223.401324 
L 446.423377 222.944137 
L 446.785714 223.607788 
L 447.51039 219.016396 
L 447.872727 215.524874 
L 448.235065 215.924254 
L 448.597403 214.168538 
L 449.684416 231.756458 
L 450.046753 235.333433 
L 450.409091 205.349931 
L 451.133766 253.925762 
L 451.496104 218.359985 
L 452.220779 206.281881 
L 452.583117 206.614977 
L 453.307792 212.107034 
L 453.67013 212.435616 
L 454.032468 216.24033 
L 454.394805 222.560605 
L 454.757143 225.500992 
L 455.119481 226.220752 
L 455.481818 223.66327 
L 455.844156 219.717747 
L 456.206494 219.27917 
L 456.568831 217.652125 
L 456.931169 217.536858 
L 457.293506 219.147618 
L 457.655844 225.259701 
L 458.380519 233.584827 
L 458.742857 234.094802 
L 459.105195 237.884678 
L 459.467532 237.504503 
L 459.82987 232.300556 
L 460.192208 223.104944 
L 460.916883 211.41309 
L 461.279221 212.186333 
L 461.641558 209.47763 
L 462.003896 211.414858 
L 462.366234 219.588501 
L 462.728571 224.026887 
L 463.090909 229.914674 
L 463.453247 229.066555 
L 463.815584 229.838769 
L 464.177922 226.954941 
L 464.54026 225.121758 
L 464.902597 224.683925 
L 465.264935 226.003701 
L 465.627273 221.536116 
L 465.98961 221.917278 
L 466.351948 230.258754 
L 466.714286 233.220388 
L 467.076623 241.725152 
L 467.438961 240.028501 
L 468.163636 241.312659 
L 468.525974 237.211471 
L 469.250649 223.289935 
L 469.975325 213.912817 
L 470.7 220.929063 
L 471.062338 222.086929 
L 471.424675 231.031179 
L 471.787013 232.54125 
L 472.149351 239.42876 
L 472.511688 237.719195 
L 473.236364 232.068228 
L 473.598701 230.488076 
L 473.961039 229.533299 
L 474.323377 229.999816 
L 474.685714 230.244521 
L 475.048052 235.037175 
L 475.41039 242.616969 
L 476.135065 246.685789 
L 476.497403 251.602155 
L 476.85974 247.460235 
L 478.309091 224.278369 
L 478.671429 224.491775 
L 479.033766 224.393718 
L 479.396104 225.816958 
L 480.483117 244.406292 
L 480.845455 244.799423 
L 481.207792 245.879039 
L 481.57013 239.022906 
L 481.932468 238.278455 
L 482.294805 235.597394 
L 482.657143 234.565845 
L 483.019481 231.553065 
L 483.381818 236.916225 
L 483.744156 239.516708 
L 484.468831 253.446318 
L 484.831169 255.185289 
L 485.193506 255.03801 
L 485.918182 249.221422 
L 487.005195 230.368949 
L 487.367532 227.712541 
L 487.72987 228.562518 
L 488.092208 229.827496 
L 488.454545 234.779082 
L 488.816883 236.873067 
L 489.179221 245.923733 
L 489.541558 246.22181 
L 489.903896 249.059588 
L 490.628571 241.514447 
L 490.990909 241.415287 
L 491.353247 237.816617 
L 491.715584 238.255669 
L 492.44026 246.013869 
L 492.802597 251.263456 
L 493.164935 253.524043 
L 493.527273 260.541111 
L 493.88961 259.554724 
L 494.251948 255.675991 
L 494.614286 248.708614 
L 494.976623 246.58114 
L 495.701299 233.248049 
L 496.063636 229.711342 
L 496.425974 231.15364 
L 496.788312 231.433917 
L 497.150649 240.304511 
L 497.512987 240.882978 
L 497.875325 249.524692 
L 498.237662 248.738068 
L 498.6 252.98939 
L 498.962338 245.380975 
L 499.324675 241.957941 
L 499.687013 243.989201 
L 500.049351 242.568027 
L 500.411688 244.421883 
L 500.774026 241.601897 
L 501.136364 247.988411 
L 501.498701 251.004996 
L 501.861039 256.343562 
L 502.223377 257.913431 
L 502.585714 258.987119 
L 502.948052 256.758994 
L 503.672727 246.610417 
L 504.035065 237.266828 
L 504.75974 231.505458 
L 505.122078 232.063802 
L 505.484416 234.926508 
L 506.933766 252.063005 
L 507.296104 223.045563 
L 507.658442 249.458381 
L 508.020779 243.678568 
L 508.383117 245.94538 
L 508.745455 241.722541 
L 509.47013 244.073024 
L 509.832468 247.601527 
L 510.194805 256.685584 
L 510.557143 258.629596 
L 510.919481 261.636012 
L 511.281818 262.797581 
L 512.006494 253.592048 
L 512.368831 247.336888 
L 512.731169 243.036092 
L 513.093506 233.83238 
L 513.455844 208.989483 
L 513.818182 233.604184 
L 514.180519 235.379892 
L 515.267532 252.806753 
L 515.62987 251.655309 
L 515.992208 254.088913 
L 516.354545 250.584903 
L 516.716883 249.422266 
L 517.079221 244.43828 
L 517.441558 242.569006 
L 517.803896 245.130622 
L 518.166234 249.256626 
L 518.890909 254.07253 
L 519.253247 257.980711 
L 519.615584 267.273234 
L 519.977922 265.68154 
L 520.34026 262.33718 
L 521.064935 251.480068 
L 521.427273 242.226957 
L 522.151948 237.707193 
L 522.514286 238.881811 
L 522.876623 243.526866 
L 523.238961 245.5811 
L 523.963636 254.048658 
L 524.325974 257.362693 
L 524.688312 258.807322 
L 525.412987 248.61592 
L 525.775325 246.942218 
L 526.137662 248.753311 
L 526.5 247.939948 
L 526.862338 248.95155 
L 527.224675 255.665782 
L 527.587013 259.613444 
L 527.949351 269.124858 
L 528.311688 269.173007 
L 528.674026 268.531252 
L 529.036364 267.347334 
L 529.761039 256.395573 
L 530.123377 248.950304 
L 530.485714 243.869853 
L 530.848052 242.587054 
L 531.21039 242.680701 
L 531.572727 248.625253 
L 531.935065 250.258752 
L 532.297403 255.268011 
L 532.65974 257.872428 
L 533.022078 267.354465 
L 533.384416 263.461772 
L 533.746753 262.523723 
L 534.109091 257.7144 
L 534.471429 257.877491 
L 534.833766 255.2046 
L 535.558442 256.381353 
L 536.283117 268.004206 
L 536.645455 276.563546 
L 537.007792 274.511357 
L 537.37013 274.607136 
L 537.732468 270.762898 
L 538.094805 270.105229 
L 538.819481 256.331485 
L 539.181818 251.878876 
L 539.544156 249.513072 
L 539.906494 251.17077 
L 540.268831 250.369585 
L 541.355844 267.409043 
L 541.718182 268.006148 
L 542.080519 268.946711 
L 542.442857 272.015191 
L 542.805195 266.107132 
L 543.167532 263.338133 
L 543.52987 256.764021 
L 543.892208 260.713177 
L 544.254545 266.683211 
L 544.616883 269.663039 
L 544.979221 275.092926 
L 545.341558 277.073587 
L 545.703896 283.585497 
L 546.066234 282.298073 
L 546.428571 277.012416 
L 546.790909 275.77203 
L 547.153247 268.199957 
L 547.515584 265.564537 
L 547.877922 258.224677 
L 548.24026 253.975875 
L 548.602597 251.52007 
L 550.051948 274.466021 
L 550.414286 274.167211 
L 550.776623 272.21659 
L 551.138961 272.903111 
L 551.501299 271.167925 
L 551.863636 264.915645 
L 552.225974 268.938315 
L 552.588312 264.648647 
L 552.950649 267.746731 
L 553.675325 277.836142 
L 554.037662 286.521708 
L 554.4 285.164577 
L 554.762338 287.428538 
L 555.124675 281.374212 
L 555.487013 282.149824 
L 556.211688 264.567968 
L 556.936364 258.43925 
L 557.298701 260.029191 
L 558.385714 268.040433 
L 558.748052 275.090494 
L 559.11039 278.849975 
L 559.472727 275.49353 
L 559.835065 275.234758 
L 560.197403 271.857578 
L 560.55974 270.548188 
L 560.922078 270.713959 
L 561.284416 268.465404 
L 561.646753 268.359607 
L 562.009091 273.911593 
L 562.371429 277.186665 
L 562.733766 308.709797 
L 563.096104 285.233688 
L 563.458442 285.376293 
L 563.820779 287.753747 
L 564.183117 276.159273 
L 564.545455 273.894697 
L 565.27013 260.778722 
L 565.632468 258.79614 
L 565.994805 258.633059 
L 566.357143 264.504565 
L 567.081818 271.083749 
L 567.444156 276.586488 
L 567.806494 279.056362 
L 568.168831 278.931599 
L 569.255844 271.163028 
L 569.618182 265.947501 
L 569.980519 267.565634 
L 570.342857 272.538242 
L 570.705195 275.547092 
L 571.067532 280.092888 
L 571.42987 286.049285 
L 572.154545 289.641524 
L 572.516883 281.864522 
L 572.879221 280.56283 
L 573.241558 271.550604 
L 573.603896 267.549256 
L 573.966234 262.0142 
L 574.328571 259.650682 
L 574.690909 259.567613 
L 575.415584 268.651832 
L 576.14026 278.345715 
L 576.502597 279.475899 
L 576.864935 282.106946 
L 577.227273 279.514982 
L 577.58961 273.753268 
L 577.951948 275.06696 
L 578.314286 268.962482 
L 578.676623 271.467987 
L 579.038961 270.086415 
L 579.401299 278.640347 
L 580.125974 285.989499 
L 580.488312 293.772988 
L 580.850649 291.07393 
L 581.212987 291.69987 
L 581.575325 283.002268 
L 581.937662 278.624041 
L 582.3 269.582156 
L 583.024675 263.828175 
L 583.387013 267.280865 
L 583.749351 266.843151 
L 584.111688 272.355598 
L 584.474026 279.817534 
L 584.836364 281.640782 
L 585.198701 282.583665 
L 585.561039 285.441526 
L 585.923377 281.474865 
L 586.285714 275.691878 
L 586.648052 278.371895 
L 587.01039 276.737714 
L 587.372727 275.917 
L 587.735065 277.966343 
L 588.097403 282.67267 
L 588.45974 285.759798 
L 588.822078 291.981336 
L 589.184416 292.961425 
L 589.546753 298.219639 
L 589.909091 294.947289 
L 590.271429 289.949156 
L 590.996104 274.736083 
L 591.358442 270.725222 
L 591.720779 269.761253 
L 592.083117 270.467336 
L 592.445455 273.533538 
L 592.807792 279.225002 
L 593.17013 282.871065 
L 593.532468 284.873651 
L 593.894805 293.874064 
L 594.619481 288.601954 
L 594.981818 288.270378 
L 595.344156 284.752957 
L 595.706494 279.957639 
L 596.068831 280.581461 
L 596.793506 288.773195 
L 597.880519 303.132721 
L 598.242857 303.381721 
L 598.605195 300.346944 
L 599.32987 290.006839 
L 600.054545 277.767261 
L 600.416883 277.831877 
L 600.779221 275.873251 
L 601.141558 250.641874 
L 601.503896 286.148775 
L 601.866234 288.545897 
L 602.228571 294.877506 
L 602.953247 299.014722 
L 603.315584 292.785084 
L 603.677922 293.333617 
L 604.04026 290.836081 
L 604.402597 287.08691 
L 604.764935 287.15837 
L 605.127273 293.576072 
L 605.48961 295.893039 
L 605.851948 302.905564 
L 606.214286 301.90897 
L 606.576623 307.168406 
L 606.938961 308.699117 
L 607.301299 308.064324 
L 607.663636 306.453347 
L 608.025974 294.127808 
L 609.112987 279.540687 
L 609.475325 279.322201 
L 609.837662 285.964049 
L 610.2 289.377104 
L 610.562338 296.123783 
L 610.924675 300.081692 
L 611.649351 299.853285 
L 612.011688 299.803352 
L 612.374026 297.940767 
L 612.736364 293.622906 
L 613.098701 292.00929 
L 613.461039 291.978672 
L 613.823377 295.998288 
L 614.185714 298.165402 
L 614.548052 306.238294 
L 614.91039 311.364958 
L 615.272727 308.776856 
L 615.635065 312.315386 
L 615.997403 310.071861 
L 616.722078 302.050168 
L 617.809091 283.171455 
L 618.171429 287.738739 
L 618.533766 284.554053 
L 618.896104 294.149765 
L 619.258442 300.142148 
L 619.620779 300.96752 
L 619.983117 306.078534 
L 620.345455 301.449628 
L 620.707792 301.985332 
L 621.07013 300.465908 
L 621.432468 295.12793 
L 621.794805 293.923344 
L 622.157143 293.217892 
L 622.881818 303.106024 
L 623.244156 308.966146 
L 623.968831 314.378947 
L 624.331169 314.311552 
L 624.693506 312.179788 
L 625.055844 304.234304 
L 625.418182 299.620888 
L 625.780519 289.894375 
L 626.142857 289.504281 
L 626.505195 285.047501 
L 626.867532 285.873893 
L 627.22987 288.430102 
L 627.592208 292.729038 
L 627.954545 299.683373 
L 628.679221 306.756177 
L 629.041558 305.569984 
L 630.490909 294.679548 
L 630.853247 294.1037 
L 631.215584 299.919308 
L 631.577922 302.514692 
L 632.302597 310.84682 
L 632.664935 312.462012 
L 633.027273 314.86148 
L 633.38961 313.245496 
L 634.114286 302.617344 
L 634.476623 292.988787 
L 635.563636 286.075125 
L 635.925974 291.917062 
L 636.650649 299.037409 
L 637.012987 307.098323 
L 637.375325 305.031796 
L 637.737662 307.255096 
L 638.1 306.451339 
L 638.462338 304.917649 
L 638.824675 298.808487 
L 639.187013 301.020973 
L 639.549351 298.723768 
L 639.911688 299.473691 
L 641.361039 319.069619 
L 642.085714 315.950711 
L 642.448052 312.168035 
L 643.172727 298.024072 
L 643.535065 293.062768 
L 643.897403 290.627838 
L 644.25974 290.370141 
L 644.622078 292.394256 
L 645.346753 300.64195 
L 645.709091 308.755778 
L 646.071429 309.579991 
L 646.433766 309.07528 
L 646.796104 307.032633 
L 647.158442 307.608127 
L 647.520779 302.955435 
L 647.883117 302.620339 
L 648.245455 301.580017 
L 648.607792 303.761375 
L 648.97013 308.66704 
L 649.332468 316.427792 
L 649.694805 321.173728 
L 650.057143 321.380424 
L 650.419481 324.078015 
L 650.781818 321.673433 
L 652.231169 297.389076 
L 652.593506 297.909392 
L 652.955844 299.427343 
L 653.318182 299.936351 
L 653.680519 308.071614 
L 654.767532 317.556115 
L 655.12987 323.313574 
L 655.492208 316.446899 
L 656.216883 309.935986 
L 656.579221 309.80321 
L 656.941558 307.760089 
L 658.753247 328.999269 
L 659.115584 329.351682 
L 659.84026 323.603179 
L 660.564935 313.062635 
L 660.927273 305.145268 
L 661.28961 304.345479 
L 661.651948 305.303358 
L 662.014286 309.611145 
L 662.376623 309.507277 
L 662.738961 316.545925 
L 663.463636 325.849358 
L 663.825974 327.348593 
L 664.912987 316.164029 
L 665.637662 314.608764 
L 666 320.059048 
L 666.724675 327.451001 
L 667.087013 332.880571 
L 667.449351 334.233073 
L 667.811688 336.673075 
L 668.536364 328.364079 
L 669.261039 317.860187 
L 669.985714 305.267993 
L 670.348052 339.128159 
L 670.71039 311.651456 
L 671.072727 317.881432 
L 671.435065 320.973234 
L 672.15974 329.594728 
L 672.884416 327.505944 
L 673.246753 325.495417 
L 673.971429 317.59094 
L 674.333766 320.334695 
L 674.696104 319.060904 
L 675.058442 326.670957 
L 675.420779 331.093679 
L 675.783117 337.899125 
L 676.145455 339.133019 
L 676.507792 337.568281 
L 676.87013 335.489105 
L 677.594805 326.452468 
L 678.319481 312.464696 
L 678.681818 313.278272 
L 679.044156 308.740206 
L 680.493506 328.624817 
L 680.855844 332.710328 
L 681.218182 328.027753 
L 681.580519 325.371197 
L 681.942857 325.08401 
L 682.305195 325.918032 
L 682.667532 323.202816 
L 683.02987 319.003806 
L 683.392208 324.405943 
L 683.754545 326.680305 
L 684.479221 338.637799 
L 684.841558 339.961161 
L 685.203896 340.647366 
L 685.566234 340.539138 
L 685.928571 335.221519 
L 686.290909 324.819613 
L 686.653247 321.716359 
L 687.015584 314.318674 
L 687.377922 314.427012 
L 687.74026 310.611279 
L 688.464935 319.571823 
L 689.18961 328.096554 
L 689.551948 328.079069 
L 689.914286 333.157493 
L 690.276623 331.791579 
L 691.001299 324.871662 
L 691.363636 321.857556 
L 691.725974 320.897475 
L 692.450649 328.056639 
L 693.175325 338.064374 
L 693.9 343.782408 
L 694.262338 337.342902 
L 694.624675 338.874711 
L 694.987013 327.938237 
L 695.349351 322.558186 
L 696.074026 310.392513 
L 696.436364 315.396302 
L 696.798701 314.603077 
L 697.161039 322.105757 
L 697.523377 325.000211 
L 697.885714 332.723407 
L 698.248052 334.914309 
L 698.972727 331.756304 
L 699.335065 330.117869 
L 699.697403 325.898221 
L 700.422078 324.443198 
L 700.784416 325.878364 
L 701.509091 337.056748 
L 702.233766 344.865547 
L 702.596104 346.606293 
L 702.958442 344.668937 
L 703.320779 335.886341 
L 703.683117 333.347274 
L 704.77013 316.735609 
L 705.132468 344.424268 
L 705.494805 317.822679 
L 706.219481 332.507977 
L 706.581818 335.009329 
L 706.944156 341.425332 
L 707.306494 338.980901 
L 707.668831 337.953282 
L 708.393506 331.278039 
L 709.118182 329.002449 
L 709.480519 335.452821 
L 709.842857 337.21201 
L 710.567532 346.038064 
L 710.92987 348.507047 
L 711.292208 348.434945 
L 711.654545 346.959169 
L 712.379221 337.412323 
L 712.741558 328.189988 
L 713.103896 327.550927 
L 713.466234 321.946021 
L 713.828571 328.0049 
L 714.190909 325.091763 
L 714.553247 334.458175 
L 714.915584 338.773055 
L 715.277922 341.020029 
L 715.64026 347.355431 
L 716.002597 340.315886 
L 716.364935 344.786036 
L 716.727273 338.247437 
L 717.08961 337.250372 
L 717.451948 335.811628 
L 717.814286 336.406816 
L 718.176623 340.97573 
L 718.538961 343.031885 
L 718.901299 347.763025 
L 719.263636 354.500394 
L 719.625974 355.560913 
L 719.988312 359.91661 
L 720.350649 353.286205 
L 720.712987 351.2108 
L 721.075325 343.518219 
L 721.437662 340.346343 
L 721.8 333.093935 
L 722.162338 329.295621 
L 722.524675 330.180593 
L 723.249351 338.016752 
L 723.974026 349.161268 
L 724.336364 350.333435 
L 724.698701 350.63083 
L 725.061039 347.059219 
L 725.423377 346.587385 
L 726.148052 341.140354 
L 726.51039 339.702997 
L 727.235065 349.367669 
L 727.597403 352.378438 
L 727.95974 361.410761 
L 728.322078 360.8401 
L 728.684416 361.411072 
L 729.409091 357.14796 
L 729.771429 351.416723 
L 730.133766 341.940959 
L 730.496104 339.107841 
L 730.858442 337.58182 
L 731.220779 334.524076 
L 731.945455 341.748038 
L 732.67013 354.107506 
L 733.032468 356.666002 
L 733.394805 354.91824 
L 733.757143 351.412232 
L 734.119481 352.038877 
L 734.481818 346.135161 
L 734.844156 345.362018 
L 735.931169 354.257768 
L 737.018182 366.656831 
L 737.380519 369.336923 
L 738.82987 346.868093 
L 739.192208 341.704242 
L 739.554545 340.837052 
L 739.916883 337.755136 
L 740.279221 338.582824 
L 740.641558 349.467516 
L 741.003896 351.525295 
L 741.366234 356.738448 
L 741.728571 357.941698 
L 742.090909 358.413761 
L 742.453247 358.371268 
L 742.815584 353.985484 
L 743.177922 348.03309 
L 743.54026 348.096649 
L 743.902597 346.935036 
L 744.264935 350.142165 
L 744.98961 362.691434 
L 745.351948 363.062101 
L 745.714286 368.01478 
L 746.076623 369.36 
L 746.438961 365.785689 
L 746.801299 364.071007 
L 746.801299 364.071007 
" style="fill:none;stroke:#1f77b4;stroke-linecap:square;stroke-width:1.5;"/>
   </g>
   <g id="line2d_16">
    <path clip-path="url(#p49dd451d75)" d="M 747.163636 384.48 
L 747.163636 51.84 
" style="fill:none;stroke:#808080;stroke-linecap:square;"/>
   </g>
   <g id="patch_83">
    <path d="M 108 384.48 
L 108 51.84 
" style="fill:none;stroke:#000000;stroke-linecap:square;stroke-linejoin:miter;stroke-width:0.8;"/>
   </g>
   <g id="patch_84">
    <path d="M 777.6 384.48 
L 777.6 51.84 
" style="fill:none;stroke:#000000;stroke-linecap:square;stroke-linejoin:miter;stroke-width:0.8;"/>
   </g>
   <g id="patch_85">
    <path d="M 108 384.48 
L 777.6 384.48 
" style="fill:none;stroke:#000000;stroke-linecap:square;stroke-linejoin:miter;stroke-width:0.8;"/>
   </g>
   <g id="patch_86">
    <path d="M 108 51.84 
L 777.6 51.84 
" style="fill:none;stroke:#000000;stroke-linecap:square;stroke-linejoin:miter;stroke-width:0.8;"/>
   </g>
   <g id="text_17">
    <!-- A4Benchmark-TS92.csv -->
    <defs>
     <path d="M 34.1875 63.1875 
L 20.796875 26.90625 
L 47.609375 26.90625 
z
M 28.609375 72.90625 
L 39.796875 72.90625 
L 67.578125 0 
L 57.328125 0 
L 50.6875 18.703125 
L 17.828125 18.703125 
L 11.1875 0 
L 0.78125 0 
z
" id="DejaVuSans-65"/>
     <path d="M 19.671875 34.8125 
L 19.671875 8.109375 
L 35.5 8.109375 
Q 43.453125 8.109375 47.28125 11.40625 
Q 51.125 14.703125 51.125 21.484375 
Q 51.125 28.328125 47.28125 31.5625 
Q 43.453125 34.8125 35.5 34.8125 
z
M 19.671875 64.796875 
L 19.671875 42.828125 
L 34.28125 42.828125 
Q 41.5 42.828125 45.03125 45.53125 
Q 48.578125 48.25 48.578125 53.8125 
Q 48.578125 59.328125 45.03125 62.0625 
Q 41.5 64.796875 34.28125 64.796875 
z
M 9.8125 72.90625 
L 35.015625 72.90625 
Q 46.296875 72.90625 52.390625 68.21875 
Q 58.5 63.53125 58.5 54.890625 
Q 58.5 48.1875 55.375 44.234375 
Q 52.25 40.28125 46.1875 39.3125 
Q 53.46875 37.75 57.5 32.78125 
Q 61.53125 27.828125 61.53125 20.40625 
Q 61.53125 10.640625 54.890625 5.3125 
Q 48.25 0 35.984375 0 
L 9.8125 0 
z
" id="DejaVuSans-66"/>
     <path d="M 54.890625 33.015625 
L 54.890625 0 
L 45.90625 0 
L 45.90625 32.71875 
Q 45.90625 40.484375 42.875 44.328125 
Q 39.84375 48.1875 33.796875 48.1875 
Q 26.515625 48.1875 22.3125 43.546875 
Q 18.109375 38.921875 18.109375 30.90625 
L 18.109375 0 
L 9.078125 0 
L 9.078125 54.6875 
L 18.109375 54.6875 
L 18.109375 46.1875 
Q 21.34375 51.125 25.703125 53.5625 
Q 30.078125 56 35.796875 56 
Q 45.21875 56 50.046875 50.171875 
Q 54.890625 44.34375 54.890625 33.015625 
z
" id="DejaVuSans-110"/>
     <path d="M 48.78125 52.59375 
L 48.78125 44.1875 
Q 44.96875 46.296875 41.140625 47.34375 
Q 37.3125 48.390625 33.40625 48.390625 
Q 24.65625 48.390625 19.8125 42.84375 
Q 14.984375 37.3125 14.984375 27.296875 
Q 14.984375 17.28125 19.8125 11.734375 
Q 24.65625 6.203125 33.40625 6.203125 
Q 37.3125 6.203125 41.140625 7.25 
Q 44.96875 8.296875 48.78125 10.40625 
L 48.78125 2.09375 
Q 45.015625 0.34375 40.984375 -0.53125 
Q 36.96875 -1.421875 32.421875 -1.421875 
Q 20.0625 -1.421875 12.78125 6.34375 
Q 5.515625 14.109375 5.515625 27.296875 
Q 5.515625 40.671875 12.859375 48.328125 
Q 20.21875 56 33.015625 56 
Q 37.15625 56 41.109375 55.140625 
Q 45.0625 54.296875 48.78125 52.59375 
z
" id="DejaVuSans-99"/>
     <path d="M 54.890625 33.015625 
L 54.890625 0 
L 45.90625 0 
L 45.90625 32.71875 
Q 45.90625 40.484375 42.875 44.328125 
Q 39.84375 48.1875 33.796875 48.1875 
Q 26.515625 48.1875 22.3125 43.546875 
Q 18.109375 38.921875 18.109375 30.90625 
L 18.109375 0 
L 9.078125 0 
L 9.078125 75.984375 
L 18.109375 75.984375 
L 18.109375 46.1875 
Q 21.34375 51.125 25.703125 53.5625 
Q 30.078125 56 35.796875 56 
Q 45.21875 56 50.046875 50.171875 
Q 54.890625 44.34375 54.890625 33.015625 
z
" id="DejaVuSans-104"/>
     <path d="M 41.109375 46.296875 
Q 39.59375 47.171875 37.8125 47.578125 
Q 36.03125 48 33.890625 48 
Q 26.265625 48 22.1875 43.046875 
Q 18.109375 38.09375 18.109375 28.8125 
L 18.109375 0 
L 9.078125 0 
L 9.078125 54.6875 
L 18.109375 54.6875 
L 18.109375 46.1875 
Q 20.953125 51.171875 25.484375 53.578125 
Q 30.03125 56 36.53125 56 
Q 37.453125 56 38.578125 55.875 
Q 39.703125 55.765625 41.0625 55.515625 
z
" id="DejaVuSans-114"/>
     <path d="M 9.078125 75.984375 
L 18.109375 75.984375 
L 18.109375 31.109375 
L 44.921875 54.6875 
L 56.390625 54.6875 
L 27.390625 29.109375 
L 57.625 0 
L 45.90625 0 
L 18.109375 26.703125 
L 18.109375 0 
L 9.078125 0 
z
" id="DejaVuSans-107"/>
     <path d="M 4.890625 31.390625 
L 31.203125 31.390625 
L 31.203125 23.390625 
L 4.890625 23.390625 
z
" id="DejaVuSans-45"/>
     <path d="M 53.515625 70.515625 
L 53.515625 60.890625 
Q 47.90625 63.578125 42.921875 64.890625 
Q 37.9375 66.21875 33.296875 66.21875 
Q 25.25 66.21875 20.875 63.09375 
Q 16.5 59.96875 16.5 54.203125 
Q 16.5 49.359375 19.40625 46.890625 
Q 22.3125 44.4375 30.421875 42.921875 
L 36.375 41.703125 
Q 47.40625 39.59375 52.65625 34.296875 
Q 57.90625 29 57.90625 20.125 
Q 57.90625 9.515625 50.796875 4.046875 
Q 43.703125 -1.421875 29.984375 -1.421875 
Q 24.8125 -1.421875 18.96875 -0.25 
Q 13.140625 0.921875 6.890625 3.21875 
L 6.890625 13.375 
Q 12.890625 10.015625 18.65625 8.296875 
Q 24.421875 6.59375 29.984375 6.59375 
Q 38.421875 6.59375 43.015625 9.90625 
Q 47.609375 13.234375 47.609375 19.390625 
Q 47.609375 24.75 44.3125 27.78125 
Q 41.015625 30.8125 33.5 32.328125 
L 27.484375 33.5 
Q 16.453125 35.6875 11.515625 40.375 
Q 6.59375 45.0625 6.59375 53.421875 
Q 6.59375 63.09375 13.40625 68.65625 
Q 20.21875 74.21875 32.171875 74.21875 
Q 37.3125 74.21875 42.625 73.28125 
Q 47.953125 72.359375 53.515625 70.515625 
z
" id="DejaVuSans-83"/>
     <path d="M 10.984375 1.515625 
L 10.984375 10.5 
Q 14.703125 8.734375 18.5 7.8125 
Q 22.3125 6.890625 25.984375 6.890625 
Q 35.75 6.890625 40.890625 13.453125 
Q 46.046875 20.015625 46.78125 33.40625 
Q 43.953125 29.203125 39.59375 26.953125 
Q 35.25 24.703125 29.984375 24.703125 
Q 19.046875 24.703125 12.671875 31.3125 
Q 6.296875 37.9375 6.296875 49.421875 
Q 6.296875 60.640625 12.9375 67.421875 
Q 19.578125 74.21875 30.609375 74.21875 
Q 43.265625 74.21875 49.921875 64.515625 
Q 56.59375 54.828125 56.59375 36.375 
Q 56.59375 19.140625 48.40625 8.859375 
Q 40.234375 -1.421875 26.421875 -1.421875 
Q 22.703125 -1.421875 18.890625 -0.6875 
Q 15.09375 0.046875 10.984375 1.515625 
z
M 30.609375 32.421875 
Q 37.25 32.421875 41.125 36.953125 
Q 45.015625 41.5 45.015625 49.421875 
Q 45.015625 57.28125 41.125 61.84375 
Q 37.25 66.40625 30.609375 66.40625 
Q 23.96875 66.40625 20.09375 61.84375 
Q 16.21875 57.28125 16.21875 49.421875 
Q 16.21875 41.5 20.09375 36.953125 
Q 23.96875 32.421875 30.609375 32.421875 
z
" id="DejaVuSans-57"/>
     <path d="M 10.6875 12.40625 
L 21 12.40625 
L 21 0 
L 10.6875 0 
z
" id="DejaVuSans-46"/>
     <path d="M 2.984375 54.6875 
L 12.5 54.6875 
L 29.59375 8.796875 
L 46.6875 54.6875 
L 56.203125 54.6875 
L 35.6875 0 
L 23.484375 0 
z
" id="DejaVuSans-118"/>
    </defs>
    <g transform="translate(371.555625 45.84)scale(0.12 -0.12)">
     <use xlink:href="#DejaVuSans-65"/>
     <use x="68.408203" xlink:href="#DejaVuSans-52"/>
     <use x="132.03125" xlink:href="#DejaVuSans-66"/>
     <use x="200.634766" xlink:href="#DejaVuSans-101"/>
     <use x="262.158203" xlink:href="#DejaVuSans-110"/>
     <use x="325.537109" xlink:href="#DejaVuSans-99"/>
     <use x="380.517578" xlink:href="#DejaVuSans-104"/>
     <use x="443.896484" xlink:href="#DejaVuSans-109"/>
     <use x="541.308594" xlink:href="#DejaVuSans-97"/>
     <use x="602.587891" xlink:href="#DejaVuSans-114"/>
     <use x="643.701172" xlink:href="#DejaVuSans-107"/>
     <use x="701.611328" xlink:href="#DejaVuSans-45"/>
     <use x="737.554688" xlink:href="#DejaVuSans-84"/>
     <use x="798.638672" xlink:href="#DejaVuSans-83"/>
     <use x="862.115234" xlink:href="#DejaVuSans-57"/>
     <use x="925.738281" xlink:href="#DejaVuSans-50"/>
     <use x="989.361328" xlink:href="#DejaVuSans-46"/>
     <use x="1021.148438" xlink:href="#DejaVuSans-99"/>
     <use x="1076.128906" xlink:href="#DejaVuSans-115"/>
     <use x="1128.228516" xlink:href="#DejaVuSans-118"/>
    </g>
   </g>
   <g id="legend_1">
    <g id="patch_87">
     <path d="M 711.284375 74.518125 
L 770.6 74.518125 
Q 772.6 74.518125 772.6 72.518125 
L 772.6 58.84 
Q 772.6 56.84 770.6 56.84 
L 711.284375 56.84 
Q 709.284375 56.84 709.284375 58.84 
L 709.284375 72.518125 
Q 709.284375 74.518125 711.284375 74.518125 
z
" style="fill:#ffffff;opacity:0.8;stroke:#cccccc;stroke-linejoin:miter;"/>
    </g>
    <g id="line2d_17">
     <path d="M 713.284375 64.938438 
L 733.284375 64.938438 
" style="fill:none;stroke:#1f77b4;stroke-linecap:square;stroke-width:1.5;"/>
    </g>
    <g id="line2d_18"/>
    <g id="text_18">
     <!-- value -->
     <g transform="translate(741.284375 68.438438)scale(0.1 -0.1)">
      <use xlink:href="#DejaVuSans-118"/>
      <use x="59.179688" xlink:href="#DejaVuSans-97"/>
      <use x="120.458984" xlink:href="#DejaVuSans-108"/>
      <use x="148.242188" xlink:href="#DejaVuSans-117"/>
      <use x="211.621094" xlink:href="#DejaVuSans-101"/>
     </g>
    </g>
   </g>
  </g>
 </g>
 <defs>
  <clipPath id="p49dd451d75">
   <rect height="332.64" width="669.6" x="108" y="51.84"/>
  </clipPath>
 </defs>
</svg>
