<?xml version="1.0" encoding="utf-8" standalone="no"?>
<!DOCTYPE svg PUBLIC "-//W3C//DTD SVG 1.1//EN"
  "http://www.w3.org/Graphics/SVG/1.1/DTD/svg11.dtd">
<!-- Created with matplotlib (https://matplotlib.org/) -->
<svg height="432pt" version="1.1" viewBox="0 0 864 432" width="864pt" xmlns="http://www.w3.org/2000/svg" xmlns:xlink="http://www.w3.org/1999/xlink">
 <defs>
  <style type="text/css">
*{stroke-linecap:butt;stroke-linejoin:round;}
  </style>
 </defs>
 <g id="figure_1">
  <g id="patch_1">
   <path d="M 0 432 
L 864 432 
L 864 0 
L 0 0 
z
" style="fill:#ffffff;"/>
  </g>
  <g id="axes_1">
   <g id="patch_2">
    <path d="M 108 384.48 
L 777.6 384.48 
L 777.6 51.84 
L 108 51.84 
z
" style="fill:#ffffff;"/>
   </g>
   <g id="patch_3">
    <path clip-path="url(#p0e6205cc0c)" d="M 138.436364 384.48 
L 138.436364 51.84 
L 381.202597 51.84 
L 381.202597 384.48 
z
" style="fill:#0000ff;opacity:0.05;"/>
   </g>
   <g id="patch_4">
    <path clip-path="url(#p0e6205cc0c)" d="M 381.202597 384.48 
L 381.202597 51.84 
L 747.163636 51.84 
L 747.163636 384.48 
z
" style="fill:#ff0000;opacity:0.08;"/>
   </g>
   <g id="patch_5">
    <path clip-path="url(#p0e6205cc0c)" d="M 138.436364 384.48 
L 138.436364 51.84 
L 142.05974 51.84 
L 142.05974 384.48 
z
" style="fill:#008000;opacity:0.04;"/>
   </g>
   <g id="patch_6">
    <path clip-path="url(#p0e6205cc0c)" d="M 381.202597 384.48 
L 381.202597 371.1744 
L 384.825974 371.1744 
L 384.825974 384.48 
z
" style="fill:#ff6600;"/>
   </g>
   <g id="patch_7">
    <path clip-path="url(#p0e6205cc0c)" d="M 145.683117 384.48 
L 145.683117 51.84 
L 149.306494 51.84 
L 149.306494 384.48 
z
" style="fill:#008000;opacity:0.04;"/>
   </g>
   <g id="patch_8">
    <path clip-path="url(#p0e6205cc0c)" d="M 152.92987 384.48 
L 152.92987 51.84 
L 156.553247 51.84 
L 156.553247 384.48 
z
" style="fill:#008000;opacity:0.04;"/>
   </g>
   <g id="patch_9">
    <path clip-path="url(#p0e6205cc0c)" d="M 160.176623 384.48 
L 160.176623 51.84 
L 163.8 51.84 
L 163.8 384.48 
z
" style="fill:#008000;opacity:0.04;"/>
   </g>
   <g id="patch_10">
    <path clip-path="url(#p0e6205cc0c)" d="M 167.423377 384.48 
L 167.423377 51.84 
L 171.046753 51.84 
L 171.046753 384.48 
z
" style="fill:#008000;opacity:0.04;"/>
   </g>
   <g id="patch_11">
    <path clip-path="url(#p0e6205cc0c)" d="M 174.67013 384.48 
L 174.67013 51.84 
L 178.293506 51.84 
L 178.293506 384.48 
z
" style="fill:#008000;opacity:0.04;"/>
   </g>
   <g id="patch_12">
    <path clip-path="url(#p0e6205cc0c)" d="M 181.916883 384.48 
L 181.916883 51.84 
L 185.54026 51.84 
L 185.54026 384.48 
z
" style="fill:#008000;opacity:0.04;"/>
   </g>
   <g id="patch_13">
    <path clip-path="url(#p0e6205cc0c)" d="M 189.163636 384.48 
L 189.163636 51.84 
L 192.787013 51.84 
L 192.787013 384.48 
z
" style="fill:#008000;opacity:0.04;"/>
   </g>
   <g id="patch_14">
    <path clip-path="url(#p0e6205cc0c)" d="M 196.41039 384.48 
L 196.41039 51.84 
L 200.033766 51.84 
L 200.033766 384.48 
z
" style="fill:#008000;opacity:0.04;"/>
   </g>
   <g id="patch_15">
    <path clip-path="url(#p0e6205cc0c)" d="M 203.657143 384.48 
L 203.657143 51.84 
L 207.280519 51.84 
L 207.280519 384.48 
z
" style="fill:#008000;opacity:0.04;"/>
   </g>
   <g id="patch_16">
    <path clip-path="url(#p0e6205cc0c)" d="M 210.903896 384.48 
L 210.903896 51.84 
L 214.527273 51.84 
L 214.527273 384.48 
z
" style="fill:#008000;opacity:0.04;"/>
   </g>
   <g id="patch_17">
    <path clip-path="url(#p0e6205cc0c)" d="M 453.67013 384.48 
L 453.67013 371.1744 
L 457.293506 371.1744 
L 457.293506 384.48 
z
" style="fill:#ff6600;"/>
   </g>
   <g id="patch_18">
    <path clip-path="url(#p0e6205cc0c)" d="M 457.293506 384.48 
L 457.293506 371.1744 
L 460.916883 371.1744 
L 460.916883 384.48 
z
" style="fill:#ff6600;"/>
   </g>
   <g id="patch_19">
    <path clip-path="url(#p0e6205cc0c)" d="M 218.150649 384.48 
L 218.150649 51.84 
L 221.774026 51.84 
L 221.774026 384.48 
z
" style="fill:#008000;opacity:0.04;"/>
   </g>
   <g id="patch_20">
    <path clip-path="url(#p0e6205cc0c)" d="M 225.397403 384.48 
L 225.397403 51.84 
L 229.020779 51.84 
L 229.020779 384.48 
z
" style="fill:#008000;opacity:0.04;"/>
   </g>
   <g id="patch_21">
    <path clip-path="url(#p0e6205cc0c)" d="M 232.644156 384.48 
L 232.644156 51.84 
L 236.267532 51.84 
L 236.267532 384.48 
z
" style="fill:#008000;opacity:0.04;"/>
   </g>
   <g id="patch_22">
    <path clip-path="url(#p0e6205cc0c)" d="M 239.890909 384.48 
L 239.890909 51.84 
L 243.514286 51.84 
L 243.514286 384.48 
z
" style="fill:#008000;opacity:0.04;"/>
   </g>
   <g id="patch_23">
    <path clip-path="url(#p0e6205cc0c)" d="M 247.137662 384.48 
L 247.137662 51.84 
L 250.761039 51.84 
L 250.761039 384.48 
z
" style="fill:#008000;opacity:0.04;"/>
   </g>
   <g id="patch_24">
    <path clip-path="url(#p0e6205cc0c)" d="M 254.384416 384.48 
L 254.384416 51.84 
L 258.007792 51.84 
L 258.007792 384.48 
z
" style="fill:#008000;opacity:0.04;"/>
   </g>
   <g id="patch_25">
    <path clip-path="url(#p0e6205cc0c)" d="M 261.631169 384.48 
L 261.631169 51.84 
L 265.254545 51.84 
L 265.254545 384.48 
z
" style="fill:#008000;opacity:0.04;"/>
   </g>
   <g id="patch_26">
    <path clip-path="url(#p0e6205cc0c)" d="M 268.877922 384.48 
L 268.877922 51.84 
L 272.501299 51.84 
L 272.501299 384.48 
z
" style="fill:#008000;opacity:0.04;"/>
   </g>
   <g id="patch_27">
    <path clip-path="url(#p0e6205cc0c)" d="M 276.124675 384.48 
L 276.124675 51.84 
L 279.748052 51.84 
L 279.748052 384.48 
z
" style="fill:#008000;opacity:0.04;"/>
   </g>
   <g id="patch_28">
    <path clip-path="url(#p0e6205cc0c)" d="M 283.371429 384.48 
L 283.371429 51.84 
L 286.994805 51.84 
L 286.994805 384.48 
z
" style="fill:#008000;opacity:0.04;"/>
   </g>
   <g id="patch_29">
    <path clip-path="url(#p0e6205cc0c)" d="M 290.618182 384.48 
L 290.618182 51.84 
L 294.241558 51.84 
L 294.241558 384.48 
z
" style="fill:#008000;opacity:0.04;"/>
   </g>
   <g id="patch_30">
    <path clip-path="url(#p0e6205cc0c)" d="M 297.864935 384.48 
L 297.864935 51.84 
L 301.488312 51.84 
L 301.488312 384.48 
z
" style="fill:#008000;opacity:0.04;"/>
   </g>
   <g id="patch_31">
    <path clip-path="url(#p0e6205cc0c)" d="M 305.111688 384.48 
L 305.111688 51.84 
L 308.735065 51.84 
L 308.735065 384.48 
z
" style="fill:#008000;opacity:0.04;"/>
   </g>
   <g id="patch_32">
    <path clip-path="url(#p0e6205cc0c)" d="M 312.358442 384.48 
L 312.358442 51.84 
L 315.981818 51.84 
L 315.981818 384.48 
z
" style="fill:#008000;opacity:0.04;"/>
   </g>
   <g id="patch_33">
    <path clip-path="url(#p0e6205cc0c)" d="M 319.605195 384.48 
L 319.605195 51.84 
L 323.228571 51.84 
L 323.228571 384.48 
z
" style="fill:#008000;opacity:0.04;"/>
   </g>
   <g id="patch_34">
    <path clip-path="url(#p0e6205cc0c)" d="M 326.851948 384.48 
L 326.851948 51.84 
L 330.475325 51.84 
L 330.475325 384.48 
z
" style="fill:#008000;opacity:0.04;"/>
   </g>
   <g id="patch_35">
    <path clip-path="url(#p0e6205cc0c)" d="M 573.241558 384.48 
L 573.241558 371.1744 
L 576.864935 371.1744 
L 576.864935 384.48 
z
" style="fill:#ff6600;"/>
   </g>
   <g id="patch_36">
    <path clip-path="url(#p0e6205cc0c)" d="M 334.098701 384.48 
L 334.098701 51.84 
L 337.722078 51.84 
L 337.722078 384.48 
z
" style="fill:#008000;opacity:0.04;"/>
   </g>
   <g id="patch_37">
    <path clip-path="url(#p0e6205cc0c)" d="M 337.722078 371.1744 
L 337.722078 357.8688 
L 341.345455 357.8688 
L 341.345455 371.1744 
z
" style="fill:#ff00ff;"/>
   </g>
   <g id="patch_38">
    <path clip-path="url(#p0e6205cc0c)" d="M 341.345455 384.48 
L 341.345455 51.84 
L 344.968831 51.84 
L 344.968831 384.48 
z
" style="fill:#008000;opacity:0.04;"/>
   </g>
   <g id="patch_39">
    <path clip-path="url(#p0e6205cc0c)" d="M 584.111688 384.48 
L 584.111688 371.1744 
L 587.735065 371.1744 
L 587.735065 384.48 
z
" style="fill:#ff6600;"/>
   </g>
   <g id="patch_40">
    <path clip-path="url(#p0e6205cc0c)" d="M 344.968831 384.48 
L 344.968831 371.1744 
L 348.592208 371.1744 
L 348.592208 384.48 
z
" style="fill:#ffe500;"/>
   </g>
   <g id="patch_41">
    <path clip-path="url(#p0e6205cc0c)" d="M 348.592208 384.48 
L 348.592208 51.84 
L 352.215584 51.84 
L 352.215584 384.48 
z
" style="fill:#008000;opacity:0.04;"/>
   </g>
   <g id="patch_42">
    <path clip-path="url(#p0e6205cc0c)" d="M 355.838961 384.48 
L 355.838961 51.84 
L 359.462338 51.84 
L 359.462338 384.48 
z
" style="fill:#008000;opacity:0.04;"/>
   </g>
   <g id="patch_43">
    <path clip-path="url(#p0e6205cc0c)" d="M 355.838961 371.1744 
L 355.838961 51.84 
L 359.462338 51.84 
L 359.462338 371.1744 
z
" style="fill:#008000;opacity:0.5;"/>
   </g>
   <g id="patch_44">
    <path clip-path="url(#p0e6205cc0c)" d="M 355.838961 384.48 
L 355.838961 371.1744 
L 359.462338 371.1744 
L 359.462338 384.48 
z
" style="fill:#ffe500;"/>
   </g>
   <g id="patch_45">
    <path clip-path="url(#p0e6205cc0c)" d="M 363.085714 384.48 
L 363.085714 51.84 
L 366.709091 51.84 
L 366.709091 384.48 
z
" style="fill:#008000;opacity:0.04;"/>
   </g>
   <g id="patch_46">
    <path clip-path="url(#p0e6205cc0c)" d="M 363.085714 384.48 
L 363.085714 371.1744 
L 366.709091 371.1744 
L 366.709091 384.48 
z
" style="fill:#ffe500;"/>
   </g>
   <g id="patch_47">
    <path clip-path="url(#p0e6205cc0c)" d="M 370.332468 384.48 
L 370.332468 51.84 
L 373.955844 51.84 
L 373.955844 384.48 
z
" style="fill:#008000;opacity:0.04;"/>
   </g>
   <g id="patch_48">
    <path clip-path="url(#p0e6205cc0c)" d="M 616.722078 384.48 
L 616.722078 371.1744 
L 620.345455 371.1744 
L 620.345455 384.48 
z
" style="fill:#ff6600;"/>
   </g>
   <g id="patch_49">
    <path clip-path="url(#p0e6205cc0c)" d="M 377.579221 384.48 
L 377.579221 51.84 
L 381.202597 51.84 
L 381.202597 384.48 
z
" style="fill:#008000;opacity:0.04;"/>
   </g>
   <g id="patch_50">
    <path clip-path="url(#p0e6205cc0c)" d="M 384.825974 384.48 
L 384.825974 51.84 
L 388.449351 51.84 
L 388.449351 384.48 
z
" style="fill:#008000;opacity:0.04;"/>
   </g>
   <g id="patch_51">
    <path clip-path="url(#p0e6205cc0c)" d="M 392.072727 384.48 
L 392.072727 51.84 
L 395.696104 51.84 
L 395.696104 384.48 
z
" style="fill:#008000;opacity:0.04;"/>
   </g>
   <g id="patch_52">
    <path clip-path="url(#p0e6205cc0c)" d="M 399.319481 384.48 
L 399.319481 51.84 
L 402.942857 51.84 
L 402.942857 384.48 
z
" style="fill:#008000;opacity:0.04;"/>
   </g>
   <g id="patch_53">
    <path clip-path="url(#p0e6205cc0c)" d="M 406.566234 384.48 
L 406.566234 51.84 
L 410.18961 51.84 
L 410.18961 384.48 
z
" style="fill:#008000;opacity:0.04;"/>
   </g>
   <g id="patch_54">
    <path clip-path="url(#p0e6205cc0c)" d="M 413.812987 384.48 
L 413.812987 51.84 
L 417.436364 51.84 
L 417.436364 384.48 
z
" style="fill:#008000;opacity:0.04;"/>
   </g>
   <g id="patch_55">
    <path clip-path="url(#p0e6205cc0c)" d="M 421.05974 384.48 
L 421.05974 51.84 
L 424.683117 51.84 
L 424.683117 384.48 
z
" style="fill:#008000;opacity:0.04;"/>
   </g>
   <g id="patch_56">
    <path clip-path="url(#p0e6205cc0c)" d="M 428.306494 384.48 
L 428.306494 51.84 
L 431.92987 51.84 
L 431.92987 384.48 
z
" style="fill:#008000;opacity:0.04;"/>
   </g>
   <g id="patch_57">
    <path clip-path="url(#p0e6205cc0c)" d="M 435.553247 384.48 
L 435.553247 51.84 
L 439.176623 51.84 
L 439.176623 384.48 
z
" style="fill:#008000;opacity:0.04;"/>
   </g>
   <g id="patch_58">
    <path clip-path="url(#p0e6205cc0c)" d="M 442.8 384.48 
L 442.8 51.84 
L 446.423377 51.84 
L 446.423377 384.48 
z
" style="fill:#008000;opacity:0.04;"/>
   </g>
   <g id="patch_59">
    <path clip-path="url(#p0e6205cc0c)" d="M 450.046753 384.48 
L 450.046753 51.84 
L 453.67013 51.84 
L 453.67013 384.48 
z
" style="fill:#008000;opacity:0.04;"/>
   </g>
   <g id="patch_60">
    <path clip-path="url(#p0e6205cc0c)" d="M 453.67013 371.1744 
L 453.67013 51.84 
L 457.293506 51.84 
L 457.293506 371.1744 
z
" style="fill:#008000;opacity:0.5;"/>
   </g>
   <g id="patch_61">
    <path clip-path="url(#p0e6205cc0c)" d="M 457.293506 384.48 
L 457.293506 51.84 
L 460.916883 51.84 
L 460.916883 384.48 
z
" style="fill:#008000;opacity:0.04;"/>
   </g>
   <g id="patch_62">
    <path clip-path="url(#p0e6205cc0c)" d="M 457.293506 371.1744 
L 457.293506 51.84 
L 460.916883 51.84 
L 460.916883 371.1744 
z
" style="fill:#008000;opacity:0.5;"/>
   </g>
   <g id="patch_63">
    <path clip-path="url(#p0e6205cc0c)" d="M 464.54026 384.48 
L 464.54026 51.84 
L 468.163636 51.84 
L 468.163636 384.48 
z
" style="fill:#008000;opacity:0.04;"/>
   </g>
   <g id="patch_64">
    <path clip-path="url(#p0e6205cc0c)" d="M 471.787013 384.48 
L 471.787013 51.84 
L 475.41039 51.84 
L 475.41039 384.48 
z
" style="fill:#008000;opacity:0.04;"/>
   </g>
   <g id="patch_65">
    <path clip-path="url(#p0e6205cc0c)" d="M 479.033766 384.48 
L 479.033766 51.84 
L 482.657143 51.84 
L 482.657143 384.48 
z
" style="fill:#008000;opacity:0.04;"/>
   </g>
   <g id="patch_66">
    <path clip-path="url(#p0e6205cc0c)" d="M 486.280519 384.48 
L 486.280519 51.84 
L 489.903896 51.84 
L 489.903896 384.48 
z
" style="fill:#008000;opacity:0.04;"/>
   </g>
   <g id="patch_67">
    <path clip-path="url(#p0e6205cc0c)" d="M 493.527273 384.48 
L 493.527273 51.84 
L 497.150649 51.84 
L 497.150649 384.48 
z
" style="fill:#008000;opacity:0.04;"/>
   </g>
   <g id="patch_68">
    <path clip-path="url(#p0e6205cc0c)" d="M 500.774026 384.48 
L 500.774026 51.84 
L 504.397403 51.84 
L 504.397403 384.48 
z
" style="fill:#008000;opacity:0.04;"/>
   </g>
   <g id="patch_69">
    <path clip-path="url(#p0e6205cc0c)" d="M 508.020779 384.48 
L 508.020779 51.84 
L 511.644156 51.84 
L 511.644156 384.48 
z
" style="fill:#008000;opacity:0.04;"/>
   </g>
   <g id="patch_70">
    <path clip-path="url(#p0e6205cc0c)" d="M 515.267532 384.48 
L 515.267532 51.84 
L 518.890909 51.84 
L 518.890909 384.48 
z
" style="fill:#008000;opacity:0.04;"/>
   </g>
   <g id="patch_71">
    <path clip-path="url(#p0e6205cc0c)" d="M 522.514286 384.48 
L 522.514286 51.84 
L 526.137662 51.84 
L 526.137662 384.48 
z
" style="fill:#008000;opacity:0.04;"/>
   </g>
   <g id="patch_72">
    <path clip-path="url(#p0e6205cc0c)" d="M 529.761039 384.48 
L 529.761039 51.84 
L 533.384416 51.84 
L 533.384416 384.48 
z
" style="fill:#008000;opacity:0.04;"/>
   </g>
   <g id="patch_73">
    <path clip-path="url(#p0e6205cc0c)" d="M 537.007792 384.48 
L 537.007792 51.84 
L 540.631169 51.84 
L 540.631169 384.48 
z
" style="fill:#008000;opacity:0.04;"/>
   </g>
   <g id="patch_74">
    <path clip-path="url(#p0e6205cc0c)" d="M 544.254545 384.48 
L 544.254545 51.84 
L 547.877922 51.84 
L 547.877922 384.48 
z
" style="fill:#008000;opacity:0.04;"/>
   </g>
   <g id="patch_75">
    <path clip-path="url(#p0e6205cc0c)" d="M 551.501299 384.48 
L 551.501299 51.84 
L 555.124675 51.84 
L 555.124675 384.48 
z
" style="fill:#008000;opacity:0.04;"/>
   </g>
   <g id="patch_76">
    <path clip-path="url(#p0e6205cc0c)" d="M 558.748052 384.48 
L 558.748052 51.84 
L 562.371429 51.84 
L 562.371429 384.48 
z
" style="fill:#008000;opacity:0.04;"/>
   </g>
   <g id="patch_77">
    <path clip-path="url(#p0e6205cc0c)" d="M 565.994805 384.48 
L 565.994805 51.84 
L 569.618182 51.84 
L 569.618182 384.48 
z
" style="fill:#008000;opacity:0.04;"/>
   </g>
   <g id="patch_78">
    <path clip-path="url(#p0e6205cc0c)" d="M 573.241558 384.48 
L 573.241558 51.84 
L 576.864935 51.84 
L 576.864935 384.48 
z
" style="fill:#008000;opacity:0.04;"/>
   </g>
   <g id="patch_79">
    <path clip-path="url(#p0e6205cc0c)" d="M 573.241558 371.1744 
L 573.241558 51.84 
L 576.864935 51.84 
L 576.864935 371.1744 
z
" style="fill:#008000;opacity:0.5;"/>
   </g>
   <g id="patch_80">
    <path clip-path="url(#p0e6205cc0c)" d="M 580.488312 384.48 
L 580.488312 51.84 
L 584.111688 51.84 
L 584.111688 384.48 
z
" style="fill:#008000;opacity:0.04;"/>
   </g>
   <g id="patch_81">
    <path clip-path="url(#p0e6205cc0c)" d="M 584.111688 371.1744 
L 584.111688 51.84 
L 587.735065 51.84 
L 587.735065 371.1744 
z
" style="fill:#008000;opacity:0.5;"/>
   </g>
   <g id="patch_82">
    <path clip-path="url(#p0e6205cc0c)" d="M 587.735065 384.48 
L 587.735065 51.84 
L 591.358442 51.84 
L 591.358442 384.48 
z
" style="fill:#008000;opacity:0.04;"/>
   </g>
   <g id="patch_83">
    <path clip-path="url(#p0e6205cc0c)" d="M 594.981818 384.48 
L 594.981818 51.84 
L 598.605195 51.84 
L 598.605195 384.48 
z
" style="fill:#008000;opacity:0.04;"/>
   </g>
   <g id="patch_84">
    <path clip-path="url(#p0e6205cc0c)" d="M 602.228571 384.48 
L 602.228571 51.84 
L 605.851948 51.84 
L 605.851948 384.48 
z
" style="fill:#008000;opacity:0.04;"/>
   </g>
   <g id="patch_85">
    <path clip-path="url(#p0e6205cc0c)" d="M 609.475325 384.48 
L 609.475325 51.84 
L 613.098701 51.84 
L 613.098701 384.48 
z
" style="fill:#008000;opacity:0.04;"/>
   </g>
   <g id="patch_86">
    <path clip-path="url(#p0e6205cc0c)" d="M 616.722078 384.48 
L 616.722078 51.84 
L 620.345455 51.84 
L 620.345455 384.48 
z
" style="fill:#008000;opacity:0.04;"/>
   </g>
   <g id="patch_87">
    <path clip-path="url(#p0e6205cc0c)" d="M 616.722078 371.1744 
L 616.722078 51.84 
L 620.345455 51.84 
L 620.345455 371.1744 
z
" style="fill:#008000;opacity:0.5;"/>
   </g>
   <g id="patch_88">
    <path clip-path="url(#p0e6205cc0c)" d="M 623.968831 384.48 
L 623.968831 51.84 
L 627.592208 51.84 
L 627.592208 384.48 
z
" style="fill:#008000;opacity:0.04;"/>
   </g>
   <g id="patch_89">
    <path clip-path="url(#p0e6205cc0c)" d="M 631.215584 384.48 
L 631.215584 51.84 
L 634.838961 51.84 
L 634.838961 384.48 
z
" style="fill:#008000;opacity:0.04;"/>
   </g>
   <g id="patch_90">
    <path clip-path="url(#p0e6205cc0c)" d="M 638.462338 384.48 
L 638.462338 51.84 
L 642.085714 51.84 
L 642.085714 384.48 
z
" style="fill:#008000;opacity:0.04;"/>
   </g>
   <g id="patch_91">
    <path clip-path="url(#p0e6205cc0c)" d="M 645.709091 384.48 
L 645.709091 51.84 
L 649.332468 51.84 
L 649.332468 384.48 
z
" style="fill:#008000;opacity:0.04;"/>
   </g>
   <g id="patch_92">
    <path clip-path="url(#p0e6205cc0c)" d="M 652.955844 384.48 
L 652.955844 51.84 
L 656.579221 51.84 
L 656.579221 384.48 
z
" style="fill:#008000;opacity:0.04;"/>
   </g>
   <g id="patch_93">
    <path clip-path="url(#p0e6205cc0c)" d="M 660.202597 384.48 
L 660.202597 51.84 
L 663.825974 51.84 
L 663.825974 384.48 
z
" style="fill:#008000;opacity:0.04;"/>
   </g>
   <g id="patch_94">
    <path clip-path="url(#p0e6205cc0c)" d="M 660.202597 371.1744 
L 660.202597 51.84 
L 663.825974 51.84 
L 663.825974 371.1744 
z
" style="fill:#008000;opacity:0.5;"/>
   </g>
   <g id="patch_95">
    <path clip-path="url(#p0e6205cc0c)" d="M 667.449351 384.48 
L 667.449351 51.84 
L 671.072727 51.84 
L 671.072727 384.48 
z
" style="fill:#008000;opacity:0.04;"/>
   </g>
   <g id="patch_96">
    <path clip-path="url(#p0e6205cc0c)" d="M 674.696104 384.48 
L 674.696104 51.84 
L 678.319481 51.84 
L 678.319481 384.48 
z
" style="fill:#008000;opacity:0.04;"/>
   </g>
   <g id="patch_97">
    <path clip-path="url(#p0e6205cc0c)" d="M 681.942857 384.48 
L 681.942857 51.84 
L 685.566234 51.84 
L 685.566234 384.48 
z
" style="fill:#008000;opacity:0.04;"/>
   </g>
   <g id="patch_98">
    <path clip-path="url(#p0e6205cc0c)" d="M 689.18961 384.48 
L 689.18961 51.84 
L 692.812987 51.84 
L 692.812987 384.48 
z
" style="fill:#008000;opacity:0.04;"/>
   </g>
   <g id="patch_99">
    <path clip-path="url(#p0e6205cc0c)" d="M 696.436364 384.48 
L 696.436364 51.84 
L 700.05974 51.84 
L 700.05974 384.48 
z
" style="fill:#008000;opacity:0.04;"/>
   </g>
   <g id="patch_100">
    <path clip-path="url(#p0e6205cc0c)" d="M 703.683117 384.48 
L 703.683117 51.84 
L 707.306494 51.84 
L 707.306494 384.48 
z
" style="fill:#008000;opacity:0.04;"/>
   </g>
   <g id="patch_101">
    <path clip-path="url(#p0e6205cc0c)" d="M 710.92987 384.48 
L 710.92987 51.84 
L 714.553247 51.84 
L 714.553247 384.48 
z
" style="fill:#008000;opacity:0.04;"/>
   </g>
   <g id="patch_102">
    <path clip-path="url(#p0e6205cc0c)" d="M 718.176623 384.48 
L 718.176623 51.84 
L 721.8 51.84 
L 721.8 384.48 
z
" style="fill:#008000;opacity:0.04;"/>
   </g>
   <g id="patch_103">
    <path clip-path="url(#p0e6205cc0c)" d="M 725.423377 384.48 
L 725.423377 51.84 
L 729.046753 51.84 
L 729.046753 384.48 
z
" style="fill:#008000;opacity:0.04;"/>
   </g>
   <g id="patch_104">
    <path clip-path="url(#p0e6205cc0c)" d="M 732.67013 384.48 
L 732.67013 51.84 
L 736.293506 51.84 
L 736.293506 384.48 
z
" style="fill:#008000;opacity:0.04;"/>
   </g>
   <g id="patch_105">
    <path clip-path="url(#p0e6205cc0c)" d="M 739.916883 384.48 
L 739.916883 51.84 
L 743.54026 51.84 
L 743.54026 384.48 
z
" style="fill:#008000;opacity:0.04;"/>
   </g>
   <g id="matplotlib.axis_1">
    <g id="xtick_1">
     <g id="line2d_1">
      <defs>
       <path d="M 0 0 
L 0 3.5 
" id="mb5aabc47c1" style="stroke:#000000;stroke-width:0.8;"/>
      </defs>
      <g>
       <use style="stroke:#000000;stroke-width:0.8;" x="138.436364" xlink:href="#mb5aabc47c1" y="384.48"/>
      </g>
     </g>
     <g id="text_1">
      <!-- 0 -->
      <defs>
       <path d="M 31.78125 66.40625 
Q 24.171875 66.40625 20.328125 58.90625 
Q 16.5 51.421875 16.5 36.375 
Q 16.5 21.390625 20.328125 13.890625 
Q 24.171875 6.390625 31.78125 6.390625 
Q 39.453125 6.390625 43.28125 13.890625 
Q 47.125 21.390625 47.125 36.375 
Q 47.125 51.421875 43.28125 58.90625 
Q 39.453125 66.40625 31.78125 66.40625 
z
M 31.78125 74.21875 
Q 44.046875 74.21875 50.515625 64.515625 
Q 56.984375 54.828125 56.984375 36.375 
Q 56.984375 17.96875 50.515625 8.265625 
Q 44.046875 -1.421875 31.78125 -1.421875 
Q 19.53125 -1.421875 13.0625 8.265625 
Q 6.59375 17.96875 6.59375 36.375 
Q 6.59375 54.828125 13.0625 64.515625 
Q 19.53125 74.21875 31.78125 74.21875 
z
" id="DejaVuSans-48"/>
      </defs>
      <g transform="translate(135.255114 399.078438)scale(0.1 -0.1)">
       <use xlink:href="#DejaVuSans-48"/>
      </g>
     </g>
    </g>
    <g id="xtick_2">
     <g id="line2d_2">
      <g>
       <use style="stroke:#000000;stroke-width:0.8;" x="229.020779" xlink:href="#mb5aabc47c1" y="384.48"/>
      </g>
     </g>
     <g id="text_2">
      <!-- 250 -->
      <defs>
       <path d="M 19.1875 8.296875 
L 53.609375 8.296875 
L 53.609375 0 
L 7.328125 0 
L 7.328125 8.296875 
Q 12.9375 14.109375 22.625 23.890625 
Q 32.328125 33.6875 34.8125 36.53125 
Q 39.546875 41.84375 41.421875 45.53125 
Q 43.3125 49.21875 43.3125 52.78125 
Q 43.3125 58.59375 39.234375 62.25 
Q 35.15625 65.921875 28.609375 65.921875 
Q 23.96875 65.921875 18.8125 64.3125 
Q 13.671875 62.703125 7.8125 59.421875 
L 7.8125 69.390625 
Q 13.765625 71.78125 18.9375 73 
Q 24.125 74.21875 28.421875 74.21875 
Q 39.75 74.21875 46.484375 68.546875 
Q 53.21875 62.890625 53.21875 53.421875 
Q 53.21875 48.921875 51.53125 44.890625 
Q 49.859375 40.875 45.40625 35.40625 
Q 44.1875 33.984375 37.640625 27.21875 
Q 31.109375 20.453125 19.1875 8.296875 
z
" id="DejaVuSans-50"/>
       <path d="M 10.796875 72.90625 
L 49.515625 72.90625 
L 49.515625 64.59375 
L 19.828125 64.59375 
L 19.828125 46.734375 
Q 21.96875 47.46875 24.109375 47.828125 
Q 26.265625 48.1875 28.421875 48.1875 
Q 40.625 48.1875 47.75 41.5 
Q 54.890625 34.8125 54.890625 23.390625 
Q 54.890625 11.625 47.5625 5.09375 
Q 40.234375 -1.421875 26.90625 -1.421875 
Q 22.3125 -1.421875 17.546875 -0.640625 
Q 12.796875 0.140625 7.71875 1.703125 
L 7.71875 11.625 
Q 12.109375 9.234375 16.796875 8.0625 
Q 21.484375 6.890625 26.703125 6.890625 
Q 35.15625 6.890625 40.078125 11.328125 
Q 45.015625 15.765625 45.015625 23.390625 
Q 45.015625 31 40.078125 35.4375 
Q 35.15625 39.890625 26.703125 39.890625 
Q 22.75 39.890625 18.8125 39.015625 
Q 14.890625 38.140625 10.796875 36.28125 
z
" id="DejaVuSans-53"/>
      </defs>
      <g transform="translate(219.477029 399.078438)scale(0.1 -0.1)">
       <use xlink:href="#DejaVuSans-50"/>
       <use x="63.623047" xlink:href="#DejaVuSans-53"/>
       <use x="127.246094" xlink:href="#DejaVuSans-48"/>
      </g>
     </g>
    </g>
    <g id="xtick_3">
     <g id="line2d_3">
      <g>
       <use style="stroke:#000000;stroke-width:0.8;" x="319.605195" xlink:href="#mb5aabc47c1" y="384.48"/>
      </g>
     </g>
     <g id="text_3">
      <!-- 500 -->
      <g transform="translate(310.061445 399.078438)scale(0.1 -0.1)">
       <use xlink:href="#DejaVuSans-53"/>
       <use x="63.623047" xlink:href="#DejaVuSans-48"/>
       <use x="127.246094" xlink:href="#DejaVuSans-48"/>
      </g>
     </g>
    </g>
    <g id="xtick_4">
     <g id="line2d_4">
      <g>
       <use style="stroke:#000000;stroke-width:0.8;" x="410.18961" xlink:href="#mb5aabc47c1" y="384.48"/>
      </g>
     </g>
     <g id="text_4">
      <!-- 750 -->
      <defs>
       <path d="M 8.203125 72.90625 
L 55.078125 72.90625 
L 55.078125 68.703125 
L 28.609375 0 
L 18.3125 0 
L 43.21875 64.59375 
L 8.203125 64.59375 
z
" id="DejaVuSans-55"/>
      </defs>
      <g transform="translate(400.64586 399.078438)scale(0.1 -0.1)">
       <use xlink:href="#DejaVuSans-55"/>
       <use x="63.623047" xlink:href="#DejaVuSans-53"/>
       <use x="127.246094" xlink:href="#DejaVuSans-48"/>
      </g>
     </g>
    </g>
    <g id="xtick_5">
     <g id="line2d_5">
      <g>
       <use style="stroke:#000000;stroke-width:0.8;" x="500.774026" xlink:href="#mb5aabc47c1" y="384.48"/>
      </g>
     </g>
     <g id="text_5">
      <!-- 1000 -->
      <defs>
       <path d="M 12.40625 8.296875 
L 28.515625 8.296875 
L 28.515625 63.921875 
L 10.984375 60.40625 
L 10.984375 69.390625 
L 28.421875 72.90625 
L 38.28125 72.90625 
L 38.28125 8.296875 
L 54.390625 8.296875 
L 54.390625 0 
L 12.40625 0 
z
" id="DejaVuSans-49"/>
      </defs>
      <g transform="translate(488.049026 399.078438)scale(0.1 -0.1)">
       <use xlink:href="#DejaVuSans-49"/>
       <use x="63.623047" xlink:href="#DejaVuSans-48"/>
       <use x="127.246094" xlink:href="#DejaVuSans-48"/>
       <use x="190.869141" xlink:href="#DejaVuSans-48"/>
      </g>
     </g>
    </g>
    <g id="xtick_6">
     <g id="line2d_6">
      <g>
       <use style="stroke:#000000;stroke-width:0.8;" x="591.358442" xlink:href="#mb5aabc47c1" y="384.48"/>
      </g>
     </g>
     <g id="text_6">
      <!-- 1250 -->
      <g transform="translate(578.633442 399.078438)scale(0.1 -0.1)">
       <use xlink:href="#DejaVuSans-49"/>
       <use x="63.623047" xlink:href="#DejaVuSans-50"/>
       <use x="127.246094" xlink:href="#DejaVuSans-53"/>
       <use x="190.869141" xlink:href="#DejaVuSans-48"/>
      </g>
     </g>
    </g>
    <g id="xtick_7">
     <g id="line2d_7">
      <g>
       <use style="stroke:#000000;stroke-width:0.8;" x="681.942857" xlink:href="#mb5aabc47c1" y="384.48"/>
      </g>
     </g>
     <g id="text_7">
      <!-- 1500 -->
      <g transform="translate(669.217857 399.078438)scale(0.1 -0.1)">
       <use xlink:href="#DejaVuSans-49"/>
       <use x="63.623047" xlink:href="#DejaVuSans-53"/>
       <use x="127.246094" xlink:href="#DejaVuSans-48"/>
       <use x="190.869141" xlink:href="#DejaVuSans-48"/>
      </g>
     </g>
    </g>
    <g id="xtick_8">
     <g id="line2d_8">
      <g>
       <use style="stroke:#000000;stroke-width:0.8;" x="772.527273" xlink:href="#mb5aabc47c1" y="384.48"/>
      </g>
     </g>
     <g id="text_8">
      <!-- 1750 -->
      <g transform="translate(759.802273 399.078438)scale(0.1 -0.1)">
       <use xlink:href="#DejaVuSans-49"/>
       <use x="63.623047" xlink:href="#DejaVuSans-55"/>
       <use x="127.246094" xlink:href="#DejaVuSans-53"/>
       <use x="190.869141" xlink:href="#DejaVuSans-48"/>
      </g>
     </g>
    </g>
    <g id="text_9">
     <!-- Timestamp -->
     <defs>
      <path d="M -0.296875 72.90625 
L 61.375 72.90625 
L 61.375 64.59375 
L 35.5 64.59375 
L 35.5 0 
L 25.59375 0 
L 25.59375 64.59375 
L -0.296875 64.59375 
z
" id="DejaVuSans-84"/>
      <path d="M 9.421875 54.6875 
L 18.40625 54.6875 
L 18.40625 0 
L 9.421875 0 
z
M 9.421875 75.984375 
L 18.40625 75.984375 
L 18.40625 64.59375 
L 9.421875 64.59375 
z
" id="DejaVuSans-105"/>
      <path d="M 52 44.1875 
Q 55.375 50.25 60.0625 53.125 
Q 64.75 56 71.09375 56 
Q 79.640625 56 84.28125 50.015625 
Q 88.921875 44.046875 88.921875 33.015625 
L 88.921875 0 
L 79.890625 0 
L 79.890625 32.71875 
Q 79.890625 40.578125 77.09375 44.375 
Q 74.3125 48.1875 68.609375 48.1875 
Q 61.625 48.1875 57.5625 43.546875 
Q 53.515625 38.921875 53.515625 30.90625 
L 53.515625 0 
L 44.484375 0 
L 44.484375 32.71875 
Q 44.484375 40.625 41.703125 44.40625 
Q 38.921875 48.1875 33.109375 48.1875 
Q 26.21875 48.1875 22.15625 43.53125 
Q 18.109375 38.875 18.109375 30.90625 
L 18.109375 0 
L 9.078125 0 
L 9.078125 54.6875 
L 18.109375 54.6875 
L 18.109375 46.1875 
Q 21.1875 51.21875 25.484375 53.609375 
Q 29.78125 56 35.6875 56 
Q 41.65625 56 45.828125 52.96875 
Q 50 49.953125 52 44.1875 
z
" id="DejaVuSans-109"/>
      <path d="M 56.203125 29.59375 
L 56.203125 25.203125 
L 14.890625 25.203125 
Q 15.484375 15.921875 20.484375 11.0625 
Q 25.484375 6.203125 34.421875 6.203125 
Q 39.59375 6.203125 44.453125 7.46875 
Q 49.3125 8.734375 54.109375 11.28125 
L 54.109375 2.78125 
Q 49.265625 0.734375 44.1875 -0.34375 
Q 39.109375 -1.421875 33.890625 -1.421875 
Q 20.796875 -1.421875 13.15625 6.1875 
Q 5.515625 13.8125 5.515625 26.8125 
Q 5.515625 40.234375 12.765625 48.109375 
Q 20.015625 56 32.328125 56 
Q 43.359375 56 49.78125 48.890625 
Q 56.203125 41.796875 56.203125 29.59375 
z
M 47.21875 32.234375 
Q 47.125 39.59375 43.09375 43.984375 
Q 39.0625 48.390625 32.421875 48.390625 
Q 24.90625 48.390625 20.390625 44.140625 
Q 15.875 39.890625 15.1875 32.171875 
z
" id="DejaVuSans-101"/>
      <path d="M 44.28125 53.078125 
L 44.28125 44.578125 
Q 40.484375 46.53125 36.375 47.5 
Q 32.28125 48.484375 27.875 48.484375 
Q 21.1875 48.484375 17.84375 46.4375 
Q 14.5 44.390625 14.5 40.28125 
Q 14.5 37.15625 16.890625 35.375 
Q 19.28125 33.59375 26.515625 31.984375 
L 29.59375 31.296875 
Q 39.15625 29.25 43.1875 25.515625 
Q 47.21875 21.78125 47.21875 15.09375 
Q 47.21875 7.46875 41.1875 3.015625 
Q 35.15625 -1.421875 24.609375 -1.421875 
Q 20.21875 -1.421875 15.453125 -0.5625 
Q 10.6875 0.296875 5.421875 2 
L 5.421875 11.28125 
Q 10.40625 8.6875 15.234375 7.390625 
Q 20.0625 6.109375 24.8125 6.109375 
Q 31.15625 6.109375 34.5625 8.28125 
Q 37.984375 10.453125 37.984375 14.40625 
Q 37.984375 18.0625 35.515625 20.015625 
Q 33.0625 21.96875 24.703125 23.78125 
L 21.578125 24.515625 
Q 13.234375 26.265625 9.515625 29.90625 
Q 5.8125 33.546875 5.8125 39.890625 
Q 5.8125 47.609375 11.28125 51.796875 
Q 16.75 56 26.8125 56 
Q 31.78125 56 36.171875 55.265625 
Q 40.578125 54.546875 44.28125 53.078125 
z
" id="DejaVuSans-115"/>
      <path d="M 18.3125 70.21875 
L 18.3125 54.6875 
L 36.8125 54.6875 
L 36.8125 47.703125 
L 18.3125 47.703125 
L 18.3125 18.015625 
Q 18.3125 11.328125 20.140625 9.421875 
Q 21.96875 7.515625 27.59375 7.515625 
L 36.8125 7.515625 
L 36.8125 0 
L 27.59375 0 
Q 17.1875 0 13.234375 3.875 
Q 9.28125 7.765625 9.28125 18.015625 
L 9.28125 47.703125 
L 2.6875 47.703125 
L 2.6875 54.6875 
L 9.28125 54.6875 
L 9.28125 70.21875 
z
" id="DejaVuSans-116"/>
      <path d="M 34.28125 27.484375 
Q 23.390625 27.484375 19.1875 25 
Q 14.984375 22.515625 14.984375 16.5 
Q 14.984375 11.71875 18.140625 8.90625 
Q 21.296875 6.109375 26.703125 6.109375 
Q 34.1875 6.109375 38.703125 11.40625 
Q 43.21875 16.703125 43.21875 25.484375 
L 43.21875 27.484375 
z
M 52.203125 31.203125 
L 52.203125 0 
L 43.21875 0 
L 43.21875 8.296875 
Q 40.140625 3.328125 35.546875 0.953125 
Q 30.953125 -1.421875 24.3125 -1.421875 
Q 15.921875 -1.421875 10.953125 3.296875 
Q 6 8.015625 6 15.921875 
Q 6 25.140625 12.171875 29.828125 
Q 18.359375 34.515625 30.609375 34.515625 
L 43.21875 34.515625 
L 43.21875 35.40625 
Q 43.21875 41.609375 39.140625 45 
Q 35.0625 48.390625 27.6875 48.390625 
Q 23 48.390625 18.546875 47.265625 
Q 14.109375 46.140625 10.015625 43.890625 
L 10.015625 52.203125 
Q 14.9375 54.109375 19.578125 55.046875 
Q 24.21875 56 28.609375 56 
Q 40.484375 56 46.34375 49.84375 
Q 52.203125 43.703125 52.203125 31.203125 
z
" id="DejaVuSans-97"/>
      <path d="M 18.109375 8.203125 
L 18.109375 -20.796875 
L 9.078125 -20.796875 
L 9.078125 54.6875 
L 18.109375 54.6875 
L 18.109375 46.390625 
Q 20.953125 51.265625 25.265625 53.625 
Q 29.59375 56 35.59375 56 
Q 45.5625 56 51.78125 48.09375 
Q 58.015625 40.1875 58.015625 27.296875 
Q 58.015625 14.40625 51.78125 6.484375 
Q 45.5625 -1.421875 35.59375 -1.421875 
Q 29.59375 -1.421875 25.265625 0.953125 
Q 20.953125 3.328125 18.109375 8.203125 
z
M 48.6875 27.296875 
Q 48.6875 37.203125 44.609375 42.84375 
Q 40.53125 48.484375 33.40625 48.484375 
Q 26.265625 48.484375 22.1875 42.84375 
Q 18.109375 37.203125 18.109375 27.296875 
Q 18.109375 17.390625 22.1875 11.75 
Q 26.265625 6.109375 33.40625 6.109375 
Q 40.53125 6.109375 44.609375 11.75 
Q 48.6875 17.390625 48.6875 27.296875 
z
" id="DejaVuSans-112"/>
     </defs>
     <g transform="translate(414.739062 412.756563)scale(0.1 -0.1)">
      <use xlink:href="#DejaVuSans-84"/>
      <use x="61.037109" xlink:href="#DejaVuSans-105"/>
      <use x="88.820312" xlink:href="#DejaVuSans-109"/>
      <use x="186.232422" xlink:href="#DejaVuSans-101"/>
      <use x="247.755859" xlink:href="#DejaVuSans-115"/>
      <use x="299.855469" xlink:href="#DejaVuSans-116"/>
      <use x="339.064453" xlink:href="#DejaVuSans-97"/>
      <use x="400.34375" xlink:href="#DejaVuSans-109"/>
      <use x="497.755859" xlink:href="#DejaVuSans-112"/>
     </g>
    </g>
   </g>
   <g id="matplotlib.axis_2">
    <g id="ytick_1">
     <g id="line2d_9">
      <defs>
       <path d="M 0 0 
L -3.5 0 
" id="m618daa7044" style="stroke:#000000;stroke-width:0.8;"/>
      </defs>
      <g>
       <use style="stroke:#000000;stroke-width:0.8;" x="108" xlink:href="#m618daa7044" y="368.607749"/>
      </g>
     </g>
     <g id="text_10">
      <!-- −3000 -->
      <defs>
       <path d="M 10.59375 35.5 
L 73.1875 35.5 
L 73.1875 27.203125 
L 10.59375 27.203125 
z
" id="DejaVuSans-8722"/>
       <path d="M 40.578125 39.3125 
Q 47.65625 37.796875 51.625 33 
Q 55.609375 28.21875 55.609375 21.1875 
Q 55.609375 10.40625 48.1875 4.484375 
Q 40.765625 -1.421875 27.09375 -1.421875 
Q 22.515625 -1.421875 17.65625 -0.515625 
Q 12.796875 0.390625 7.625 2.203125 
L 7.625 11.71875 
Q 11.71875 9.328125 16.59375 8.109375 
Q 21.484375 6.890625 26.8125 6.890625 
Q 36.078125 6.890625 40.9375 10.546875 
Q 45.796875 14.203125 45.796875 21.1875 
Q 45.796875 27.640625 41.28125 31.265625 
Q 36.765625 34.90625 28.71875 34.90625 
L 20.21875 34.90625 
L 20.21875 43.015625 
L 29.109375 43.015625 
Q 36.375 43.015625 40.234375 45.921875 
Q 44.09375 48.828125 44.09375 54.296875 
Q 44.09375 59.90625 40.109375 62.90625 
Q 36.140625 65.921875 28.71875 65.921875 
Q 24.65625 65.921875 20.015625 65.03125 
Q 15.375 64.15625 9.8125 62.3125 
L 9.8125 71.09375 
Q 15.4375 72.65625 20.34375 73.4375 
Q 25.25 74.21875 29.59375 74.21875 
Q 40.828125 74.21875 47.359375 69.109375 
Q 53.90625 64.015625 53.90625 55.328125 
Q 53.90625 49.265625 50.4375 45.09375 
Q 46.96875 40.921875 40.578125 39.3125 
z
" id="DejaVuSans-51"/>
      </defs>
      <g transform="translate(67.170312 372.406968)scale(0.1 -0.1)">
       <use xlink:href="#DejaVuSans-8722"/>
       <use x="83.789062" xlink:href="#DejaVuSans-51"/>
       <use x="147.412109" xlink:href="#DejaVuSans-48"/>
       <use x="211.035156" xlink:href="#DejaVuSans-48"/>
       <use x="274.658203" xlink:href="#DejaVuSans-48"/>
      </g>
     </g>
    </g>
    <g id="ytick_2">
     <g id="line2d_10">
      <g>
       <use style="stroke:#000000;stroke-width:0.8;" x="108" xlink:href="#m618daa7044" y="321.850689"/>
      </g>
     </g>
     <g id="text_11">
      <!-- −2000 -->
      <g transform="translate(67.170312 325.649908)scale(0.1 -0.1)">
       <use xlink:href="#DejaVuSans-8722"/>
       <use x="83.789062" xlink:href="#DejaVuSans-50"/>
       <use x="147.412109" xlink:href="#DejaVuSans-48"/>
       <use x="211.035156" xlink:href="#DejaVuSans-48"/>
       <use x="274.658203" xlink:href="#DejaVuSans-48"/>
      </g>
     </g>
    </g>
    <g id="ytick_3">
     <g id="line2d_11">
      <g>
       <use style="stroke:#000000;stroke-width:0.8;" x="108" xlink:href="#m618daa7044" y="275.093629"/>
      </g>
     </g>
     <g id="text_12">
      <!-- −1000 -->
      <g transform="translate(67.170312 278.892848)scale(0.1 -0.1)">
       <use xlink:href="#DejaVuSans-8722"/>
       <use x="83.789062" xlink:href="#DejaVuSans-49"/>
       <use x="147.412109" xlink:href="#DejaVuSans-48"/>
       <use x="211.035156" xlink:href="#DejaVuSans-48"/>
       <use x="274.658203" xlink:href="#DejaVuSans-48"/>
      </g>
     </g>
    </g>
    <g id="ytick_4">
     <g id="line2d_12">
      <g>
       <use style="stroke:#000000;stroke-width:0.8;" x="108" xlink:href="#m618daa7044" y="228.336569"/>
      </g>
     </g>
     <g id="text_13">
      <!-- 0 -->
      <g transform="translate(94.6375 232.135788)scale(0.1 -0.1)">
       <use xlink:href="#DejaVuSans-48"/>
      </g>
     </g>
    </g>
    <g id="ytick_5">
     <g id="line2d_13">
      <g>
       <use style="stroke:#000000;stroke-width:0.8;" x="108" xlink:href="#m618daa7044" y="181.579509"/>
      </g>
     </g>
     <g id="text_14">
      <!-- 1000 -->
      <g transform="translate(75.55 185.378727)scale(0.1 -0.1)">
       <use xlink:href="#DejaVuSans-49"/>
       <use x="63.623047" xlink:href="#DejaVuSans-48"/>
       <use x="127.246094" xlink:href="#DejaVuSans-48"/>
       <use x="190.869141" xlink:href="#DejaVuSans-48"/>
      </g>
     </g>
    </g>
    <g id="ytick_6">
     <g id="line2d_14">
      <g>
       <use style="stroke:#000000;stroke-width:0.8;" x="108" xlink:href="#m618daa7044" y="134.822449"/>
      </g>
     </g>
     <g id="text_15">
      <!-- 2000 -->
      <g transform="translate(75.55 138.621667)scale(0.1 -0.1)">
       <use xlink:href="#DejaVuSans-50"/>
       <use x="63.623047" xlink:href="#DejaVuSans-48"/>
       <use x="127.246094" xlink:href="#DejaVuSans-48"/>
       <use x="190.869141" xlink:href="#DejaVuSans-48"/>
      </g>
     </g>
    </g>
    <g id="ytick_7">
     <g id="line2d_15">
      <g>
       <use style="stroke:#000000;stroke-width:0.8;" x="108" xlink:href="#m618daa7044" y="88.065389"/>
      </g>
     </g>
     <g id="text_16">
      <!-- 3000 -->
      <g transform="translate(75.55 91.864607)scale(0.1 -0.1)">
       <use xlink:href="#DejaVuSans-51"/>
       <use x="63.623047" xlink:href="#DejaVuSans-48"/>
       <use x="127.246094" xlink:href="#DejaVuSans-48"/>
       <use x="190.869141" xlink:href="#DejaVuSans-48"/>
      </g>
     </g>
    </g>
    <g id="text_17">
     <!-- Value -->
     <defs>
      <path d="M 28.609375 0 
L 0.78125 72.90625 
L 11.078125 72.90625 
L 34.1875 11.53125 
L 57.328125 72.90625 
L 67.578125 72.90625 
L 39.796875 0 
z
" id="DejaVuSans-86"/>
      <path d="M 9.421875 75.984375 
L 18.40625 75.984375 
L 18.40625 0 
L 9.421875 0 
z
" id="DejaVuSans-108"/>
      <path d="M 8.5 21.578125 
L 8.5 54.6875 
L 17.484375 54.6875 
L 17.484375 21.921875 
Q 17.484375 14.15625 20.5 10.265625 
Q 23.53125 6.390625 29.59375 6.390625 
Q 36.859375 6.390625 41.078125 11.03125 
Q 45.3125 15.671875 45.3125 23.6875 
L 45.3125 54.6875 
L 54.296875 54.6875 
L 54.296875 0 
L 45.3125 0 
L 45.3125 8.40625 
Q 42.046875 3.421875 37.71875 1 
Q 33.40625 -1.421875 27.6875 -1.421875 
Q 18.265625 -1.421875 13.375 4.4375 
Q 8.5 10.296875 8.5 21.578125 
z
M 31.109375 56 
z
" id="DejaVuSans-117"/>
     </defs>
     <g transform="translate(61.090625 232.273281)rotate(-90)scale(0.1 -0.1)">
      <use xlink:href="#DejaVuSans-86"/>
      <use x="68.298828" xlink:href="#DejaVuSans-97"/>
      <use x="129.578125" xlink:href="#DejaVuSans-108"/>
      <use x="157.361328" xlink:href="#DejaVuSans-117"/>
      <use x="220.740234" xlink:href="#DejaVuSans-101"/>
     </g>
    </g>
   </g>
   <g id="line2d_16">
    <path clip-path="url(#p0e6205cc0c)" d="M 138.436364 228.508373 
L 139.161039 198.608634 
L 139.523377 192.509246 
L 139.885714 195.018908 
L 140.248052 196.715972 
L 140.972727 217.608447 
L 141.335065 223.984909 
L 141.697403 237.84972 
L 142.422078 229.335346 
L 142.784416 225.43613 
L 143.146753 214.197748 
L 143.871429 210.896829 
L 144.233766 222.586507 
L 144.596104 228.633344 
L 144.958442 237.353647 
L 145.320779 250.935034 
L 145.683117 254.03249 
L 146.045455 255.30154 
L 146.407792 243.890407 
L 146.77013 240.868246 
L 147.132468 218.856644 
L 147.494805 205.948843 
L 147.857143 185.009127 
L 148.219481 183.892615 
L 148.581818 184.014282 
L 149.306494 201.391423 
L 149.668831 215.303811 
L 150.031169 216.49821 
L 150.393506 222.297564 
L 150.755844 226.146025 
L 151.118182 220.412731 
L 151.480519 219.559575 
L 151.842857 207.991271 
L 152.205195 205.157041 
L 152.567532 207.383149 
L 153.292208 222.926873 
L 153.654545 237.464862 
L 154.379221 249.351135 
L 154.741558 255.124787 
L 155.103896 247.002176 
L 155.828571 210.695777 
L 156.190909 201.19215 
L 156.553247 186.571215 
L 156.915584 178.438292 
L 157.277922 177.043169 
L 158.727273 215.722243 
L 159.08961 223.356351 
L 159.451948 225.854071 
L 160.176623 216.798143 
L 160.538961 214.006848 
L 160.901299 205.422429 
L 161.263636 206.869508 
L 161.988312 221.671027 
L 162.350649 234.520402 
L 162.712987 252.478149 
L 163.075325 252.530897 
L 163.437662 256.97876 
L 163.8 248.252918 
L 164.162338 235.061754 
L 164.524675 216.844088 
L 164.887013 205.015837 
L 165.249351 187.62581 
L 165.611688 181.439364 
L 165.974026 182.025623 
L 166.336364 185.685307 
L 167.423377 218.451152 
L 167.785714 232.866459 
L 168.148052 229.018528 
L 168.51039 227.317272 
L 168.872727 223.402035 
L 169.235065 215.090356 
L 169.597403 214.551016 
L 169.95974 212.402485 
L 170.322078 222.66456 
L 170.684416 228.931295 
L 171.409091 252.367375 
L 171.771429 259.706569 
L 172.133766 258.295436 
L 172.496104 254.583589 
L 172.858442 235.99697 
L 173.220779 229.128763 
L 173.583117 202.753382 
L 174.307792 187.788647 
L 174.67013 188.348829 
L 175.032468 194.475879 
L 176.119481 227.441704 
L 176.481818 231.182043 
L 176.844156 232.176244 
L 177.931169 216.337321 
L 178.293506 216.542624 
L 178.655844 218.942978 
L 179.018182 223.613206 
L 179.380519 232.260923 
L 180.105195 256.213573 
L 180.467532 262.654605 
L 180.82987 261.323289 
L 181.554545 244.824078 
L 182.279221 210.458216 
L 182.641558 194.345515 
L 183.003896 190.775492 
L 183.366234 185.298596 
L 184.453247 215.818114 
L 184.815584 229.787595 
L 185.177922 232.259193 
L 185.54026 233.940038 
L 185.902597 225.917515 
L 186.264935 225.23744 
L 186.627273 219.301444 
L 186.98961 216.922263 
L 187.351948 218.398471 
L 187.714286 224.126045 
L 188.076623 227.652653 
L 188.801299 258.380786 
L 189.163636 254.692672 
L 189.525974 260.295037 
L 189.888312 254.257292 
L 191.337662 187.344486 
L 191.7 191.350658 
L 192.062338 185.027265 
L 192.424675 188.960233 
L 193.149351 208.439339 
L 193.511688 226.457317 
L 193.874026 225.601766 
L 194.236364 227.237206 
L 194.598701 224.924521 
L 194.961039 213.189887 
L 195.323377 210.158435 
L 195.685714 209.835019 
L 196.048052 206.072373 
L 196.41039 213.274914 
L 197.135065 234.329769 
L 197.497403 243.997402 
L 197.85974 249.143268 
L 198.222078 249.960786 
L 198.584416 250.486561 
L 198.946753 226.719854 
L 199.309091 214.911194 
L 199.671429 194.872807 
L 200.396104 175.094017 
L 200.758442 171.712828 
L 201.120779 178.061645 
L 202.207792 214.154638 
L 202.57013 217.299437 
L 202.932468 212.056412 
L 203.294805 210.128483 
L 203.657143 209.7048 
L 204.381818 198.386421 
L 204.744156 198.084018 
L 205.106494 204.02013 
L 205.468831 207.537238 
L 205.831169 226.130439 
L 206.555844 239.705255 
L 206.918182 244.99616 
L 207.280519 233.699269 
L 207.642857 216.919523 
L 208.005195 209.426168 
L 208.367532 188.46941 
L 209.092208 168.055337 
L 209.454545 162.654949 
L 209.816883 169.055732 
L 211.266234 211.889214 
L 211.628571 210.148013 
L 211.990909 209.309225 
L 212.715584 194.015722 
L 213.077922 190.393889 
L 213.44026 191.332781 
L 213.802597 195.125534 
L 214.164935 212.018759 
L 214.527273 223.345592 
L 214.88961 228.468247 
L 215.251948 236.591072 
L 215.614286 231.74252 
L 215.976623 228.393975 
L 216.338961 220.065952 
L 217.063636 187.223747 
L 217.425974 169.052958 
L 217.788312 168.849809 
L 218.150649 161.917624 
L 218.512987 168.971507 
L 219.237662 197.978728 
L 219.6 198.444953 
L 219.962338 208.241269 
L 220.324675 209.607 
L 220.687013 205.056262 
L 221.049351 194.567756 
L 221.411688 195.690728 
L 221.774026 189.168174 
L 222.136364 194.658626 
L 222.498701 196.881128 
L 222.861039 213.142625 
L 223.585714 231.388683 
L 223.948052 238.1561 
L 224.31039 237.348358 
L 224.672727 230.921729 
L 225.397403 196.975655 
L 225.75974 186.732732 
L 226.122078 172.138493 
L 226.484416 167.311857 
L 226.846753 166.185596 
L 227.209091 169.327113 
L 227.571429 184.742198 
L 228.658442 214.617718 
L 229.020779 213.157766 
L 229.383117 211.193736 
L 229.745455 205.881298 
L 230.107792 198.894926 
L 230.47013 201.348331 
L 230.832468 194.344508 
L 231.194805 205.766693 
L 231.557143 209.738302 
L 232.281818 235.245419 
L 232.644156 241.273358 
L 233.368831 234.231061 
L 233.731169 219.04503 
L 234.093506 208.539775 
L 234.455844 187.267262 
L 234.818182 173.030987 
L 235.180519 177.360779 
L 235.542857 171.993572 
L 235.905195 178.427024 
L 236.267532 189.713923 
L 236.62987 197.47651 
L 236.992208 210.758759 
L 237.354545 210.604662 
L 237.716883 219.178379 
L 238.079221 219.583058 
L 238.441558 208.78238 
L 239.166234 197.038334 
L 239.528571 198.097373 
L 239.890909 203.17839 
L 240.615584 231.146486 
L 240.977922 240.635002 
L 241.34026 247.151464 
L 241.702597 244.725688 
L 242.064935 240.132658 
L 242.427273 226.19616 
L 242.78961 204.016436 
L 243.876623 169.086652 
L 244.238961 178.254003 
L 244.601299 178.180137 
L 244.963636 193.577565 
L 245.688312 207.359137 
L 246.050649 216.135233 
L 246.412987 214.74576 
L 246.775325 216.811942 
L 247.5 196.381261 
L 247.862338 202.833935 
L 248.224675 197.028046 
L 248.587013 204.955314 
L 249.311688 226.146914 
L 249.674026 232.761711 
L 250.036364 241.550829 
L 250.398701 245.231441 
L 250.761039 237.000613 
L 251.848052 188.03964 
L 252.21039 180.099827 
L 252.572727 168.84738 
L 252.935065 170.556629 
L 253.297403 173.777369 
L 254.384416 207.947544 
L 254.746753 208.490332 
L 255.109091 211.487664 
L 255.471429 205.330473 
L 255.833766 210.438421 
L 256.196104 190.991319 
L 256.558442 191.564244 
L 256.920779 190.530067 
L 257.645455 202.602131 
L 258.37013 229.426846 
L 258.732468 233.535692 
L 259.094805 233.063339 
L 259.457143 225.173798 
L 259.819481 213.185042 
L 260.181818 190.475678 
L 260.906494 167.772436 
L 261.268831 159.837331 
L 261.631169 159.625001 
L 262.355844 173.165106 
L 262.718182 188.417824 
L 263.080519 197.166554 
L 263.442857 198.309034 
L 263.805195 200.532277 
L 264.167532 192.282269 
L 264.52987 190.37177 
L 265.254545 179.688835 
L 265.616883 181.469249 
L 266.341558 194.577163 
L 266.703896 211.72209 
L 267.066234 222.804278 
L 267.428571 226.99786 
L 267.790909 218.452302 
L 268.153247 213.928292 
L 268.515584 203.411583 
L 269.602597 152.954528 
L 269.964935 151.15325 
L 270.327273 150.894382 
L 271.051948 166.200177 
L 271.414286 184.768571 
L 271.776623 187.21775 
L 272.138961 196.096532 
L 272.501299 193.843173 
L 273.225974 183.142491 
L 273.588312 185.714361 
L 273.950649 176.314733 
L 274.312987 174.773647 
L 274.675325 182.924045 
L 275.037662 195.995165 
L 275.4 201.28049 
L 275.762338 212.489172 
L 276.124675 212.517319 
L 276.487013 219.065777 
L 276.849351 209.672521 
L 277.211688 193.700159 
L 277.574026 184.632972 
L 277.936364 164.497458 
L 278.298701 154.733874 
L 278.661039 150.281162 
L 279.023377 150.319004 
L 279.385714 156.553188 
L 280.11039 177.951634 
L 281.197403 195.44528 
L 281.55974 190.048816 
L 281.922078 188.244593 
L 282.284416 179.310998 
L 282.646753 175.687985 
L 283.009091 183.160681 
L 283.371429 180.979954 
L 283.733766 194.449002 
L 284.096104 201.308689 
L 284.458442 214.720213 
L 284.820779 218.195003 
L 285.183117 219.235173 
L 285.545455 213.711842 
L 285.907792 200.541537 
L 286.632468 169.125341 
L 286.994805 157.784728 
L 287.357143 150.690494 
L 287.719481 152.693034 
L 288.081818 155.420507 
L 288.444156 168.619299 
L 288.806494 175.277087 
L 289.168831 186.800604 
L 289.531169 194.741057 
L 289.893506 197.832626 
L 290.255844 193.791357 
L 290.618182 186.602454 
L 290.980519 184.941067 
L 291.342857 180.623454 
L 291.705195 180.288866 
L 292.067532 185.248327 
L 293.154545 220.171824 
L 293.516883 227.516084 
L 293.879221 227.355433 
L 294.241558 222.766466 
L 294.603896 203.912451 
L 294.966234 194.06382 
L 295.328571 173.10298 
L 295.690909 162.695757 
L 296.415584 153.274548 
L 296.777922 160.841699 
L 297.864935 193.645505 
L 298.227273 200.043558 
L 298.58961 201.148618 
L 298.951948 197.265254 
L 299.314286 197.897216 
L 299.676623 190.125924 
L 300.038961 186.65936 
L 300.401299 184.740494 
L 300.763636 190.813244 
L 301.488312 213.8394 
L 301.850649 221.113614 
L 302.212987 230.883114 
L 302.575325 226.324619 
L 302.937662 223.88707 
L 303.3 212.521461 
L 304.024675 180.728531 
L 304.749351 153.013779 
L 305.111688 154.324279 
L 306.561039 196.141021 
L 306.923377 197.952158 
L 307.285714 201.529189 
L 307.648052 200.0772 
L 308.01039 191.712648 
L 308.735065 186.383423 
L 309.45974 184.668298 
L 309.822078 201.43077 
L 310.546753 221.253511 
L 310.909091 227.088457 
L 311.271429 226.88659 
L 311.633766 224.659783 
L 311.996104 211.598414 
L 312.358442 187.129419 
L 313.445455 151.862121 
L 313.807792 152.595725 
L 314.532468 168.000451 
L 314.894805 182.266442 
L 315.257143 188.761948 
L 315.619481 192.757026 
L 315.981818 199.005029 
L 316.344156 193.777806 
L 316.706494 182.784111 
L 317.068831 183.072259 
L 317.431169 172.631286 
L 317.793506 179.462691 
L 318.155844 181.13295 
L 318.880519 205.439705 
L 319.242857 210.836525 
L 319.605195 222.556469 
L 319.967532 214.254122 
L 320.32987 211.793564 
L 320.692208 204.002985 
L 321.054545 179.715743 
L 321.416883 166.872305 
L 321.779221 146.497217 
L 322.141558 147.071147 
L 322.503896 143.446614 
L 322.866234 149.791687 
L 323.590909 173.560022 
L 324.315584 186.891039 
L 324.677922 184.067979 
L 325.04026 183.277908 
L 325.764935 169.338103 
L 326.48961 165.416284 
L 326.851948 168.715938 
L 327.214286 185.791446 
L 327.576623 189.362074 
L 327.938961 202.84937 
L 328.301299 210.102158 
L 329.025974 201.798319 
L 329.388312 190.601123 
L 330.475325 140.478854 
L 330.837662 137.032567 
L 331.2 131.720831 
L 331.562338 143.715018 
L 331.924675 151.878031 
L 332.287013 168.438004 
L 332.649351 168.788793 
L 333.011688 181.413614 
L 333.374026 180.815875 
L 333.736364 171.375766 
L 334.098701 176.143695 
L 334.461039 160.599808 
L 334.823377 162.230697 
L 335.185714 161.63477 
L 335.548052 165.485793 
L 336.635065 198.710208 
L 336.997403 207.135675 
L 337.35974 202.297235 
L 337.722078 195.781538 
L 338.446753 169.480347 
L 338.809091 150.115016 
L 339.533766 131.042727 
L 339.896104 133.088619 
L 340.620779 149.187373 
L 340.983117 160.202472 
L 341.345455 163.744057 
L 341.707792 188.303041 
L 342.432468 169.391569 
L 342.794805 166.069706 
L 343.519481 142.171968 
L 343.881818 141.557731 
L 345.331169 223.780457 
L 345.693506 231.517093 
L 346.055844 236.425361 
L 346.418182 224.226244 
L 346.780519 207.210007 
L 347.142857 164.493114 
L 347.867532 119.488905 
L 348.22987 100.804347 
L 348.592208 109.559069 
L 348.954545 114.183338 
L 350.041558 180.383504 
L 350.403896 190.796779 
L 350.766234 190.882551 
L 351.128571 195.582979 
L 351.853247 158.831479 
L 352.215584 169.166062 
L 352.577922 168.436369 
L 352.94026 182.92468 
L 353.302597 191.152465 
L 354.027273 243.837421 
L 354.38961 253.56681 
L 354.751948 245.317286 
L 355.114286 246.517019 
L 356.201299 153.634823 
L 356.563636 140.084939 
L 356.925974 114.865674 
L 357.288312 120.21397 
L 357.650649 255.363042 
L 358.012987 155.762579 
L 358.737662 184.146125 
L 359.1 206.637071 
L 359.462338 221.207544 
L 360.187013 179.545326 
L 360.549351 179.190382 
L 360.911688 178.56757 
L 361.274026 171.109299 
L 361.636364 189.655445 
L 361.998701 215.695011 
L 362.361039 232.459714 
L 362.723377 256.433574 
L 363.085714 268.890868 
L 363.81039 255.019026 
L 364.172727 233.000163 
L 364.897403 162.953806 
L 365.25974 152.720577 
L 365.622078 126.307536 
L 365.984416 129.594324 
L 366.346753 138.282705 
L 367.071429 187.341137 
L 367.433766 205.654067 
L 367.796104 215.089279 
L 368.158442 216.148322 
L 368.883117 200.176022 
L 369.245455 178.309227 
L 369.607792 176.945499 
L 370.332468 200.697531 
L 371.781818 271.150795 
L 372.144156 272.422123 
L 372.506494 254.543232 
L 372.868831 230.87917 
L 373.955844 128.838862 
L 374.318182 117.678269 
L 375.405195 153.452297 
L 376.492208 207.514379 
L 376.854545 209.395166 
L 377.216883 205.875703 
L 377.579221 179.910029 
L 377.941558 181.939904 
L 378.303896 179.147608 
L 378.666234 174.249603 
L 379.028571 196.053831 
L 379.390909 207.441386 
L 379.753247 224.753282 
L 380.115584 250.036782 
L 380.477922 263.387694 
L 380.84026 261.111719 
L 381.202597 251.911038 
L 381.564935 222.17823 
L 381.927273 178.901807 
L 382.28961 158.970398 
L 382.651948 132.072626 
L 383.014286 119.658026 
L 383.376623 113.734953 
L 384.101299 134.687212 
L 384.463636 168.063902 
L 384.825974 191.110872 
L 385.188312 198.903189 
L 385.550649 187.864654 
L 385.912987 194.711281 
L 386.637662 173.45189 
L 387 156.41288 
L 387.362338 170.253777 
L 387.724675 179.484272 
L 388.449351 216.358602 
L 388.811688 240.683669 
L 389.174026 251.073143 
L 389.536364 239.602877 
L 389.898701 234.33028 
L 390.261039 214.714905 
L 390.985714 140.592558 
L 391.348052 129.989301 
L 391.71039 105.168426 
L 392.072727 105.354345 
L 392.435065 113.605553 
L 392.797403 132.646825 
L 393.15974 160.872585 
L 393.522078 170.388016 
L 393.884416 193.604152 
L 394.246753 190.913788 
L 394.609091 194.933441 
L 394.971429 168.8258 
L 395.333766 163.771529 
L 395.696104 161.896641 
L 396.058442 158.293487 
L 396.420779 175.693109 
L 396.783117 186.618406 
L 397.145455 222.190901 
L 397.507792 217.564144 
L 397.87013 245.118083 
L 398.232468 252.966862 
L 398.594805 237.368789 
L 400.044156 106.180188 
L 400.406494 104.148526 
L 400.768831 92.760699 
L 401.131169 122.501359 
L 401.493506 141.73365 
L 401.855844 174.510577 
L 402.218182 190.631795 
L 402.942857 205.363205 
L 403.667532 183.955858 
L 404.02987 166.081074 
L 404.392208 153.866418 
L 404.754545 169.700346 
L 405.116883 169.818559 
L 406.203896 248.587501 
L 406.566234 257.956127 
L 406.928571 244.637284 
L 407.290909 245.023438 
L 407.653247 211.510639 
L 408.015584 198.293101 
L 408.377922 147.710258 
L 408.74026 126.901485 
L 409.102597 113.540661 
L 409.464935 118.253909 
L 409.827273 133.87065 
L 410.914286 202.460955 
L 411.276623 210.882497 
L 411.638961 206.867189 
L 412.001299 210.661835 
L 412.363636 191.601562 
L 412.725974 185.784657 
L 413.088312 174.268317 
L 413.450649 178.490026 
L 413.812987 185.315086 
L 414.537662 245.670037 
L 414.9 257.841248 
L 415.262338 257.617846 
L 415.624675 274.501335 
L 415.987013 258.265819 
L 416.711688 204.539122 
L 417.074026 170.118504 
L 417.436364 157.523174 
L 417.798701 133.566985 
L 418.161039 133.433433 
L 418.523377 151.516648 
L 418.885714 153.71005 
L 419.248052 198.944624 
L 419.972727 224.880653 
L 420.335065 220.8503 
L 420.697403 231.100543 
L 421.05974 208.938748 
L 421.784416 191.16035 
L 422.146753 203.29773 
L 422.509091 210.986816 
L 423.233766 254.92326 
L 423.596104 275.555497 
L 423.958442 280.59001 
L 424.320779 278.191257 
L 424.683117 265.659261 
L 426.132468 155.677793 
L 426.857143 137.657203 
L 427.219481 145.8179 
L 427.581818 165.983338 
L 427.944156 199.144034 
L 428.306494 217.641992 
L 428.668831 226.442456 
L 429.031169 231.271014 
L 429.393506 224.791203 
L 429.755844 224.761659 
L 430.480519 202.836305 
L 430.842857 198.193785 
L 431.205195 216.484339 
L 431.567532 223.960919 
L 431.92987 258.127746 
L 432.292208 262.144013 
L 432.654545 283.48195 
L 433.016883 284.932905 
L 433.379221 274.210147 
L 434.103896 220.004112 
L 434.828571 149.350653 
L 435.190909 139.963221 
L 435.553247 138.765678 
L 435.915584 155.920785 
L 436.277922 152.878141 
L 436.64026 200.637271 
L 437.002597 211.976082 
L 437.364935 231.068656 
L 437.727273 227.533416 
L 438.08961 226.436967 
L 438.451948 216.735207 
L 438.814286 189.587769 
L 439.176623 186.643737 
L 439.538961 194.262979 
L 440.625974 242.005471 
L 440.988312 262.753781 
L 441.350649 263.120394 
L 441.712987 277.366001 
L 442.437662 239.526498 
L 443.524675 134.490227 
L 443.887013 138.52638 
L 444.249351 128.104084 
L 444.611688 133.916461 
L 445.698701 210.462527 
L 446.061039 209.472201 
L 446.423377 220.524464 
L 447.51039 184.769011 
L 447.872727 180.923547 
L 448.235065 180.047929 
L 448.95974 205.845461 
L 449.684416 260.659824 
L 450.046753 258.37666 
L 450.409091 261.488134 
L 450.771429 247.819547 
L 451.496104 193.024273 
L 451.858442 146.897019 
L 452.220779 128.885186 
L 452.583117 127.809869 
L 452.945455 110.740033 
L 454.757143 201.533293 
L 455.119481 209.127604 
L 455.481818 204.356714 
L 455.844156 306.605429 
L 456.206494 180.331642 
L 456.568831 167.515346 
L 456.931169 167.665886 
L 457.655844 209.031398 
L 458.380519 252.853216 
L 458.742857 258.26878 
L 459.105195 259.657346 
L 459.467532 248.370635 
L 460.192208 187.763994 
L 460.554545 265.318672 
L 460.916883 139.38993 
L 461.641558 121.32551 
L 462.003896 124.287418 
L 462.366234 144.558734 
L 463.090909 198.334334 
L 463.815584 219.230984 
L 464.902597 183.616351 
L 465.264935 181.3044 
L 465.627273 184.18768 
L 465.98961 183.213771 
L 466.351948 214.777632 
L 466.714286 228.821938 
L 467.438961 267.099237 
L 467.801299 271.565111 
L 468.163636 263.672368 
L 469.250649 171.979667 
L 469.612987 148.445827 
L 469.975325 137.214112 
L 470.337662 132.570818 
L 470.7 144.462544 
L 471.062338 160.434745 
L 471.787013 221.767006 
L 472.149351 225.078877 
L 472.511688 231.954705 
L 472.874026 228.268 
L 473.236364 215.874795 
L 473.598701 193.176142 
L 473.961039 194.207338 
L 474.323377 182.748288 
L 474.685714 209.663102 
L 475.41039 246.011841 
L 475.772727 274.550104 
L 476.497403 290.674867 
L 476.85974 274.09629 
L 477.584416 224.046333 
L 477.946753 181.817437 
L 478.309091 171.594696 
L 478.671429 165.109228 
L 479.033766 145.149888 
L 479.396104 157.489818 
L 480.120779 215.198562 
L 480.483117 221.031125 
L 480.845455 243.612689 
L 481.207792 248.44005 
L 481.57013 245.017262 
L 481.932468 220.52741 
L 482.294805 220.056901 
L 482.657143 217.302313 
L 483.381818 224.109323 
L 483.744156 248.067945 
L 484.106494 261.489168 
L 484.468831 287.615423 
L 484.831169 290.812604 
L 485.193506 303.265196 
L 485.918182 264.933156 
L 486.280519 225.839091 
L 487.367532 151.557773 
L 487.72987 159.383043 
L 488.454545 194.437275 
L 488.816883 213.753495 
L 489.179221 240.15182 
L 489.541558 248.513511 
L 489.903896 248.632219 
L 490.266234 242.84025 
L 490.628571 222.596517 
L 490.990909 221.550836 
L 491.353247 203.37653 
L 492.077922 227.249931 
L 492.44026 245.625234 
L 492.802597 272.28612 
L 493.164935 290.376926 
L 493.527273 298.67637 
L 493.88961 302.545369 
L 494.251948 288.312835 
L 494.614286 253.583861 
L 494.976623 234.473676 
L 495.338961 195.08525 
L 496.063636 150.476585 
L 496.425974 155.74861 
L 496.788312 157.628986 
L 497.150649 195.384784 
L 497.512987 215.877676 
L 497.875325 226.898434 
L 498.237662 247.758965 
L 498.962338 239.803802 
L 499.324675 220.625876 
L 499.687013 214.966082 
L 500.049351 205.633688 
L 500.411688 201.947443 
L 501.861039 280.46522 
L 502.223377 280.326326 
L 502.585714 287.793897 
L 502.948052 277.800235 
L 503.672727 217.890859 
L 504.397403 157.251038 
L 505.122078 137.163452 
L 505.484416 152.799275 
L 506.209091 202.255267 
L 506.571429 226.904881 
L 506.933766 223.838618 
L 507.296104 226.79287 
L 507.658442 222.720484 
L 508.020779 214.293234 
L 508.383117 198.348851 
L 508.745455 198.065418 
L 509.107792 188.936425 
L 509.47013 211.437898 
L 509.832468 220.128397 
L 510.194805 239.905278 
L 510.557143 273.705888 
L 510.919481 284.155584 
L 511.281818 282.205763 
L 511.644156 267.4468 
L 512.006494 244.355277 
L 512.731169 174.02573 
L 513.455844 133.95123 
L 513.818182 144.503167 
L 514.180519 147.4885 
L 514.905195 188.368782 
L 515.267532 205.43614 
L 515.62987 231.976334 
L 515.992208 229.470883 
L 516.354545 226.044617 
L 516.716883 197.972539 
L 517.079221 202.628066 
L 517.441558 186.166174 
L 517.803896 190.720042 
L 518.166234 198.096481 
L 518.528571 220.003971 
L 518.890909 249.72425 
L 519.253247 258.952171 
L 519.615584 273.281799 
L 519.977922 277.850514 
L 520.34026 265.509558 
L 521.064935 216.27776 
L 521.427273 172.897864 
L 521.78961 150.560869 
L 522.151948 140.749299 
L 522.514286 135.778802 
L 522.876623 146.218287 
L 523.238961 164.958402 
L 523.963636 214.748684 
L 524.325974 228.964765 
L 524.688312 223.325103 
L 525.050649 231.969519 
L 525.412987 204.680029 
L 525.775325 197.423551 
L 526.137662 198.763672 
L 526.5 207.108081 
L 526.862338 204.631207 
L 527.949351 280.400357 
L 528.311688 276.403394 
L 528.674026 290.225808 
L 529.036364 274.119004 
L 529.761039 216.27361 
L 530.848052 147.655678 
L 531.21039 157.840713 
L 531.572727 161.458796 
L 532.297403 211.029345 
L 533.022078 248.999317 
L 533.384416 245.967185 
L 534.471429 204.141773 
L 534.833766 219.41494 
L 535.196104 218.413092 
L 535.558442 221.65066 
L 535.920779 250.38307 
L 536.645455 286.796295 
L 537.007792 308.057262 
L 537.37013 299.237882 
L 537.732468 287.558653 
L 538.457143 248.775107 
L 538.819481 199.728572 
L 539.181818 173.243957 
L 539.544156 157.851547 
L 540.268831 174.153079 
L 540.631169 201.411063 
L 541.355844 236.477803 
L 541.718182 259.403384 
L 542.080519 255.838095 
L 542.442857 262.40187 
L 543.167532 227.045833 
L 543.892208 226.319132 
L 544.254545 237.387482 
L 544.616883 272.419057 
L 544.979221 293.164417 
L 545.341558 304.753068 
L 545.703896 321.380369 
L 546.066234 312.142013 
L 546.428571 309.497001 
L 546.790909 271.334589 
L 547.153247 252.30041 
L 547.877922 180.772633 
L 548.24026 181.880459 
L 548.602597 166.78704 
L 548.964935 180.261711 
L 549.68961 230.036343 
L 550.051948 234.93678 
L 550.414286 267.861831 
L 550.776623 269.1708 
L 551.138961 257.624223 
L 551.501299 252.619802 
L 551.863636 244.105853 
L 552.225974 230.860735 
L 552.950649 241.283555 
L 553.675325 274.985536 
L 554.037662 311.705351 
L 554.4 300.082575 
L 554.762338 316.026365 
L 555.487013 286.01841 
L 556.211688 219.056014 
L 556.574026 191.591917 
L 556.936364 174.930145 
L 557.298701 168.106417 
L 558.023377 199.712051 
L 558.385714 230.165047 
L 558.748052 242.302462 
L 559.11039 258.898018 
L 559.472727 265.404005 
L 559.835065 257.648983 
L 560.197403 240.768767 
L 560.55974 231.18782 
L 560.922078 215.034482 
L 561.284416 223.085344 
L 561.646753 223.392127 
L 562.371429 278.803832 
L 562.733766 304.935541 
L 563.096104 317.86579 
L 563.458442 316.419094 
L 563.820779 287.347096 
L 564.183117 270.946725 
L 564.545455 225.887115 
L 565.632468 168.851915 
L 565.994805 156.900178 
L 566.719481 181.654018 
L 567.081818 206.015878 
L 567.444156 238.124242 
L 567.806494 237.562234 
L 568.531169 249.161183 
L 569.255844 217.599671 
L 569.618182 206.483073 
L 569.980519 206.444668 
L 570.342857 229.825199 
L 570.705195 243.027265 
L 571.067532 264.299912 
L 571.42987 277.13952 
L 571.792208 280.778385 
L 572.154545 298.597097 
L 572.879221 256.236814 
L 573.966234 150.618382 
L 574.328571 152.766462 
L 574.690909 146.267743 
L 575.053247 166.204436 
L 575.415584 66.96 
L 575.777922 207.310218 
L 576.14026 226.596119 
L 576.502597 232.16847 
L 577.227273 235.441956 
L 577.58961 214.243453 
L 577.951948 204.12038 
L 578.314286 198.89094 
L 578.676623 212.24109 
L 579.038961 208.779503 
L 579.763636 259.814584 
L 580.488312 288.300073 
L 580.850649 293.683771 
L 581.212987 276.584345 
L 581.937662 224.545401 
L 582.3 191.479182 
L 582.662338 172.372537 
L 583.024675 146.385575 
L 583.387013 151.570153 
L 584.111688 180.276798 
L 584.474026 324.994266 
L 584.836364 232.059993 
L 585.198701 250.661944 
L 585.561039 246.647581 
L 585.923377 239.456588 
L 587.01039 204.928477 
L 587.372727 202.984406 
L 587.735065 240.517255 
L 588.097403 246.432784 
L 589.184416 300.251082 
L 589.546753 297.981212 
L 589.909091 291.118892 
L 590.271429 267.00332 
L 590.996104 206.36666 
L 591.720779 164.87282 
L 592.445455 183.889976 
L 592.807792 198.228208 
L 593.17013 224.758164 
L 593.894805 262.553826 
L 594.257143 257.502146 
L 594.619481 250.328527 
L 595.344156 226.668004 
L 596.068831 231.871163 
L 596.431169 232.47739 
L 597.518182 315.825 
L 597.880519 326.855584 
L 598.605195 312.280682 
L 598.967532 293.600692 
L 599.692208 221.960053 
L 600.054545 196.511631 
L 600.416883 181.456829 
L 600.779221 185.914882 
L 601.503896 207.439034 
L 601.866234 251.261287 
L 602.953247 280.007039 
L 603.315584 278.876481 
L 603.677922 254.490838 
L 604.04026 250.27294 
L 604.402597 241.450071 
L 604.764935 241.016427 
L 605.127273 253.09923 
L 605.851948 301.199414 
L 606.576623 329.290661 
L 606.938961 326.889407 
L 607.301299 314.026681 
L 607.663636 291.847732 
L 608.388312 225.290618 
L 608.750649 202.909493 
L 609.475325 187.206706 
L 609.837662 198.608542 
L 610.2 228.051307 
L 610.562338 245.798073 
L 610.924675 275.699132 
L 611.287013 280.998921 
L 611.649351 279.948081 
L 612.374026 259.012811 
L 612.736364 238.37548 
L 613.098701 241.403389 
L 613.461039 252.46753 
L 613.823377 269.378383 
L 614.185714 277.55735 
L 614.548052 310.572846 
L 614.91039 329.012051 
L 615.272727 324.253231 
L 615.635065 328.213418 
L 615.997403 315.558004 
L 616.35974 295.673473 
L 616.722078 259.185895 
L 617.084416 346.38008 
L 617.446753 202.842104 
L 617.809091 190.523306 
L 618.171429 192.807791 
L 618.896104 213.95423 
L 619.620779 261.700012 
L 619.983117 261.419395 
L 620.345455 284.851213 
L 620.707792 266.14214 
L 621.07013 260.049761 
L 621.432468 244.79115 
L 621.794805 234.76731 
L 622.157143 235.9566 
L 622.519481 244.666709 
L 622.881818 273.360211 
L 623.244156 287.628288 
L 623.606494 312.771102 
L 623.968831 325.049394 
L 624.331169 321.761198 
L 624.693506 306.553569 
L 626.142857 190.823094 
L 626.505195 172.975362 
L 626.867532 175.197818 
L 627.592208 199.997342 
L 627.954545 226.503771 
L 628.679221 259.600275 
L 629.041558 259.00999 
L 630.128571 234.315125 
L 630.490909 218.327064 
L 630.853247 236.85465 
L 631.577922 250.514292 
L 631.94026 278.651752 
L 632.302597 292.884296 
L 632.664935 302.183999 
L 633.027273 307.5283 
L 633.38961 296.029922 
L 633.751948 265.056042 
L 634.114286 244.989341 
L 634.476623 200.554936 
L 634.838961 174.874534 
L 635.201299 171.501051 
L 635.563636 162.794567 
L 637.012987 233.493736 
L 637.375325 259.68831 
L 637.737662 259.681634 
L 638.1 251.765011 
L 638.462338 234.34683 
L 638.824675 224.079534 
L 639.187013 218.005794 
L 639.549351 227.861024 
L 639.911688 226.757575 
L 640.274026 250.492463 
L 640.636364 282.23266 
L 640.998701 293.621924 
L 641.361039 314.142139 
L 641.723377 312.973314 
L 642.448052 268.414422 
L 642.81039 245.083341 
L 643.535065 168.188355 
L 643.897403 172.736138 
L 644.25974 169.372103 
L 644.622078 178.954219 
L 644.984416 192.029533 
L 645.709091 250.635748 
L 646.071429 253.626364 
L 646.433766 259.835234 
L 646.796104 242.318752 
L 647.158442 246.828964 
L 647.520779 228.583171 
L 647.883117 223.865531 
L 648.245455 228.797051 
L 648.607792 241.158155 
L 648.97013 269.315806 
L 649.332468 276.908625 
L 649.694805 308.602036 
L 650.057143 313.866647 
L 650.419481 322.972026 
L 650.781818 311.126724 
L 651.868831 209.35344 
L 652.593506 175.381219 
L 652.955844 188.576132 
L 653.318182 190.872015 
L 654.405195 262.841454 
L 654.767532 271.726439 
L 655.12987 275.105285 
L 655.492208 269.417498 
L 655.854545 253.658113 
L 656.216883 242.945473 
L 656.579221 241.289996 
L 656.941558 240.847678 
L 657.303896 253.777517 
L 657.666234 273.407758 
L 658.390909 329.671983 
L 658.753247 333.789826 
L 659.477922 325.78931 
L 659.84026 302.578377 
L 660.202597 259.789677 
L 660.564935 357.456114 
L 660.927273 215.548942 
L 661.28961 193.605751 
L 661.651948 197.917353 
L 662.014286 220.59569 
L 662.376623 232.629301 
L 662.738961 257.332378 
L 663.463636 290.043674 
L 663.825974 291.88655 
L 664.188312 284.729188 
L 664.912987 262.176166 
L 665.275325 259.012263 
L 665.637662 257.418849 
L 666 265.816678 
L 666.724675 316.926551 
L 667.449351 356.247482 
L 667.811688 343.010907 
L 668.174026 334.064119 
L 668.898701 277.138133 
L 669.261039 235.819833 
L 669.623377 215.547727 
L 669.985714 202.321455 
L 670.348052 205.029051 
L 670.71039 220.809559 
L 671.435065 266.4084 
L 672.15974 289.523905 
L 672.522078 292.45186 
L 672.884416 297.05789 
L 673.246753 281.510562 
L 673.971429 262.419725 
L 674.333766 259.901792 
L 674.696104 272.208636 
L 675.420779 323.065101 
L 675.783117 329.776396 
L 676.145455 347.033222 
L 676.507792 343.181966 
L 676.87013 331.322526 
L 677.232468 311.716308 
L 677.594805 284.453335 
L 678.319481 205.945876 
L 678.681818 205.495307 
L 679.044156 199.214747 
L 680.493506 272.215687 
L 681.218182 295.404569 
L 681.942857 264.977047 
L 682.305195 262.794392 
L 682.667532 255.317419 
L 683.02987 256.609773 
L 683.392208 263.462132 
L 684.479221 320.088008 
L 684.841558 336.685414 
L 685.203896 337.510256 
L 685.566234 324.809177 
L 685.928571 290.772352 
L 686.290909 275.822107 
L 686.653247 245.590527 
L 687.015584 201.066418 
L 687.377922 190.998782 
L 687.74026 185.22594 
L 688.102597 198.760077 
L 688.464935 227.553165 
L 689.18961 259.477986 
L 689.551948 270.211626 
L 689.914286 277.534997 
L 690.276623 264.446206 
L 690.638961 245.97515 
L 691.001299 251.62291 
L 691.363636 234.651381 
L 691.725974 250.074171 
L 692.088312 252.927603 
L 692.450649 276.021388 
L 692.812987 287.998841 
L 693.175325 314.013099 
L 693.537662 323.791047 
L 693.9 321.863741 
L 694.262338 311.024576 
L 694.624675 288.751594 
L 695.711688 191.279738 
L 696.436364 194.168125 
L 696.798701 188.876174 
L 697.161039 216.781538 
L 697.523377 233.916295 
L 697.885714 260.727311 
L 698.248052 268.255782 
L 698.972727 263.406461 
L 699.335065 246.745163 
L 699.697403 246.625214 
L 700.05974 228.515732 
L 700.422078 232.9567 
L 701.146753 269.031509 
L 701.871429 316.313191 
L 702.233766 317.871769 
L 702.596104 330.357942 
L 703.320779 289.67357 
L 704.407792 196.679698 
L 704.77013 178.524367 
L 705.132468 188.409843 
L 705.494805 193.729713 
L 705.857143 221.737449 
L 706.219481 237.488275 
L 706.581818 268.935469 
L 706.944156 272.149453 
L 707.306494 286.521814 
L 708.031169 257.551456 
L 708.393506 249.98705 
L 708.755844 239.7577 
L 709.118182 237.490204 
L 710.205195 294.059594 
L 710.92987 334.558805 
L 711.292208 332.160317 
L 711.654545 322.607663 
L 712.741558 228.513654 
L 713.103896 214.41653 
L 713.466234 192.180452 
L 714.190909 206.434393 
L 715.277922 277.697542 
L 715.64026 292.9704 
L 716.002597 289.64464 
L 716.364935 289.34322 
L 716.727273 267.657976 
L 717.08961 258.451071 
L 717.451948 254.198507 
L 717.814286 265.126619 
L 718.176623 270.080563 
L 718.538961 300.663702 
L 718.901299 316.509656 
L 719.263636 342.560618 
L 719.625974 348.855863 
L 719.988312 357.763086 
L 720.350649 339.753687 
L 721.075325 278.408876 
L 721.437662 249.359813 
L 722.162338 205.590492 
L 722.524675 211.882832 
L 723.249351 243.430582 
L 724.336364 313.198117 
L 724.698701 311.482942 
L 725.061039 306.758538 
L 725.785714 269.699824 
L 726.148052 265.593919 
L 726.51039 270.049228 
L 727.235065 305.188552 
L 727.597403 328.797975 
L 727.95974 359.783645 
L 728.322078 369.36 
L 728.684416 350.789057 
L 729.046753 354.108537 
L 729.771429 299.11786 
L 730.133766 252.879724 
L 730.496104 239.068007 
L 730.858442 213.482602 
L 731.945455 250.138551 
L 732.307792 282.224638 
L 733.032468 304.297198 
L 733.394805 307.504323 
L 734.119481 287.677904 
L 734.481818 293.321269 
L 734.844156 269.362745 
L 735.206494 272.227597 
L 735.568831 287.049818 
L 735.931169 309.535327 
L 736.293506 341.367502 
L 736.655844 349.995703 
L 737.018182 364.164515 
L 737.380519 362.314323 
L 737.742857 349.339442 
L 738.105195 326.108986 
L 738.82987 254.369181 
L 739.192208 230.076172 
L 739.554545 222.379248 
L 739.916883 218.137281 
L 740.279221 225.372378 
L 741.728571 312.905023 
L 742.090909 305.137622 
L 742.453247 305.133106 
L 742.815584 279.283641 
L 743.177922 268.745915 
L 743.54026 269.910778 
L 743.902597 268.007678 
L 744.264935 281.517265 
L 745.351948 344.011632 
L 745.714286 353.983569 
L 746.076623 359.425504 
L 746.438961 341.970604 
L 746.801299 315.093362 
L 746.801299 315.093362 
" style="fill:none;stroke:#1f77b4;stroke-linecap:square;stroke-width:1.5;"/>
   </g>
   <g id="line2d_17">
    <path clip-path="url(#p0e6205cc0c)" d="M 747.163636 384.48 
L 747.163636 51.84 
" style="fill:none;stroke:#808080;stroke-linecap:square;"/>
   </g>
   <g id="patch_106">
    <path d="M 108 384.48 
L 108 51.84 
" style="fill:none;stroke:#000000;stroke-linecap:square;stroke-linejoin:miter;stroke-width:0.8;"/>
   </g>
   <g id="patch_107">
    <path d="M 777.6 384.48 
L 777.6 51.84 
" style="fill:none;stroke:#000000;stroke-linecap:square;stroke-linejoin:miter;stroke-width:0.8;"/>
   </g>
   <g id="patch_108">
    <path d="M 108 384.48 
L 777.6 384.48 
" style="fill:none;stroke:#000000;stroke-linecap:square;stroke-linejoin:miter;stroke-width:0.8;"/>
   </g>
   <g id="patch_109">
    <path d="M 108 51.84 
L 777.6 51.84 
" style="fill:none;stroke:#000000;stroke-linecap:square;stroke-linejoin:miter;stroke-width:0.8;"/>
   </g>
   <g id="text_18">
    <!-- A4Benchmark-TS45.csv -->
    <defs>
     <path d="M 34.1875 63.1875 
L 20.796875 26.90625 
L 47.609375 26.90625 
z
M 28.609375 72.90625 
L 39.796875 72.90625 
L 67.578125 0 
L 57.328125 0 
L 50.6875 18.703125 
L 17.828125 18.703125 
L 11.1875 0 
L 0.78125 0 
z
" id="DejaVuSans-65"/>
     <path d="M 37.796875 64.3125 
L 12.890625 25.390625 
L 37.796875 25.390625 
z
M 35.203125 72.90625 
L 47.609375 72.90625 
L 47.609375 25.390625 
L 58.015625 25.390625 
L 58.015625 17.1875 
L 47.609375 17.1875 
L 47.609375 0 
L 37.796875 0 
L 37.796875 17.1875 
L 4.890625 17.1875 
L 4.890625 26.703125 
z
" id="DejaVuSans-52"/>
     <path d="M 19.671875 34.8125 
L 19.671875 8.109375 
L 35.5 8.109375 
Q 43.453125 8.109375 47.28125 11.40625 
Q 51.125 14.703125 51.125 21.484375 
Q 51.125 28.328125 47.28125 31.5625 
Q 43.453125 34.8125 35.5 34.8125 
z
M 19.671875 64.796875 
L 19.671875 42.828125 
L 34.28125 42.828125 
Q 41.5 42.828125 45.03125 45.53125 
Q 48.578125 48.25 48.578125 53.8125 
Q 48.578125 59.328125 45.03125 62.0625 
Q 41.5 64.796875 34.28125 64.796875 
z
M 9.8125 72.90625 
L 35.015625 72.90625 
Q 46.296875 72.90625 52.390625 68.21875 
Q 58.5 63.53125 58.5 54.890625 
Q 58.5 48.1875 55.375 44.234375 
Q 52.25 40.28125 46.1875 39.3125 
Q 53.46875 37.75 57.5 32.78125 
Q 61.53125 27.828125 61.53125 20.40625 
Q 61.53125 10.640625 54.890625 5.3125 
Q 48.25 0 35.984375 0 
L 9.8125 0 
z
" id="DejaVuSans-66"/>
     <path d="M 54.890625 33.015625 
L 54.890625 0 
L 45.90625 0 
L 45.90625 32.71875 
Q 45.90625 40.484375 42.875 44.328125 
Q 39.84375 48.1875 33.796875 48.1875 
Q 26.515625 48.1875 22.3125 43.546875 
Q 18.109375 38.921875 18.109375 30.90625 
L 18.109375 0 
L 9.078125 0 
L 9.078125 54.6875 
L 18.109375 54.6875 
L 18.109375 46.1875 
Q 21.34375 51.125 25.703125 53.5625 
Q 30.078125 56 35.796875 56 
Q 45.21875 56 50.046875 50.171875 
Q 54.890625 44.34375 54.890625 33.015625 
z
" id="DejaVuSans-110"/>
     <path d="M 48.78125 52.59375 
L 48.78125 44.1875 
Q 44.96875 46.296875 41.140625 47.34375 
Q 37.3125 48.390625 33.40625 48.390625 
Q 24.65625 48.390625 19.8125 42.84375 
Q 14.984375 37.3125 14.984375 27.296875 
Q 14.984375 17.28125 19.8125 11.734375 
Q 24.65625 6.203125 33.40625 6.203125 
Q 37.3125 6.203125 41.140625 7.25 
Q 44.96875 8.296875 48.78125 10.40625 
L 48.78125 2.09375 
Q 45.015625 0.34375 40.984375 -0.53125 
Q 36.96875 -1.421875 32.421875 -1.421875 
Q 20.0625 -1.421875 12.78125 6.34375 
Q 5.515625 14.109375 5.515625 27.296875 
Q 5.515625 40.671875 12.859375 48.328125 
Q 20.21875 56 33.015625 56 
Q 37.15625 56 41.109375 55.140625 
Q 45.0625 54.296875 48.78125 52.59375 
z
" id="DejaVuSans-99"/>
     <path d="M 54.890625 33.015625 
L 54.890625 0 
L 45.90625 0 
L 45.90625 32.71875 
Q 45.90625 40.484375 42.875 44.328125 
Q 39.84375 48.1875 33.796875 48.1875 
Q 26.515625 48.1875 22.3125 43.546875 
Q 18.109375 38.921875 18.109375 30.90625 
L 18.109375 0 
L 9.078125 0 
L 9.078125 75.984375 
L 18.109375 75.984375 
L 18.109375 46.1875 
Q 21.34375 51.125 25.703125 53.5625 
Q 30.078125 56 35.796875 56 
Q 45.21875 56 50.046875 50.171875 
Q 54.890625 44.34375 54.890625 33.015625 
z
" id="DejaVuSans-104"/>
     <path d="M 41.109375 46.296875 
Q 39.59375 47.171875 37.8125 47.578125 
Q 36.03125 48 33.890625 48 
Q 26.265625 48 22.1875 43.046875 
Q 18.109375 38.09375 18.109375 28.8125 
L 18.109375 0 
L 9.078125 0 
L 9.078125 54.6875 
L 18.109375 54.6875 
L 18.109375 46.1875 
Q 20.953125 51.171875 25.484375 53.578125 
Q 30.03125 56 36.53125 56 
Q 37.453125 56 38.578125 55.875 
Q 39.703125 55.765625 41.0625 55.515625 
z
" id="DejaVuSans-114"/>
     <path d="M 9.078125 75.984375 
L 18.109375 75.984375 
L 18.109375 31.109375 
L 44.921875 54.6875 
L 56.390625 54.6875 
L 27.390625 29.109375 
L 57.625 0 
L 45.90625 0 
L 18.109375 26.703125 
L 18.109375 0 
L 9.078125 0 
z
" id="DejaVuSans-107"/>
     <path d="M 4.890625 31.390625 
L 31.203125 31.390625 
L 31.203125 23.390625 
L 4.890625 23.390625 
z
" id="DejaVuSans-45"/>
     <path d="M 53.515625 70.515625 
L 53.515625 60.890625 
Q 47.90625 63.578125 42.921875 64.890625 
Q 37.9375 66.21875 33.296875 66.21875 
Q 25.25 66.21875 20.875 63.09375 
Q 16.5 59.96875 16.5 54.203125 
Q 16.5 49.359375 19.40625 46.890625 
Q 22.3125 44.4375 30.421875 42.921875 
L 36.375 41.703125 
Q 47.40625 39.59375 52.65625 34.296875 
Q 57.90625 29 57.90625 20.125 
Q 57.90625 9.515625 50.796875 4.046875 
Q 43.703125 -1.421875 29.984375 -1.421875 
Q 24.8125 -1.421875 18.96875 -0.25 
Q 13.140625 0.921875 6.890625 3.21875 
L 6.890625 13.375 
Q 12.890625 10.015625 18.65625 8.296875 
Q 24.421875 6.59375 29.984375 6.59375 
Q 38.421875 6.59375 43.015625 9.90625 
Q 47.609375 13.234375 47.609375 19.390625 
Q 47.609375 24.75 44.3125 27.78125 
Q 41.015625 30.8125 33.5 32.328125 
L 27.484375 33.5 
Q 16.453125 35.6875 11.515625 40.375 
Q 6.59375 45.0625 6.59375 53.421875 
Q 6.59375 63.09375 13.40625 68.65625 
Q 20.21875 74.21875 32.171875 74.21875 
Q 37.3125 74.21875 42.625 73.28125 
Q 47.953125 72.359375 53.515625 70.515625 
z
" id="DejaVuSans-83"/>
     <path d="M 10.6875 12.40625 
L 21 12.40625 
L 21 0 
L 10.6875 0 
z
" id="DejaVuSans-46"/>
     <path d="M 2.984375 54.6875 
L 12.5 54.6875 
L 29.59375 8.796875 
L 46.6875 54.6875 
L 56.203125 54.6875 
L 35.6875 0 
L 23.484375 0 
z
" id="DejaVuSans-118"/>
    </defs>
    <g transform="translate(371.555625 45.84)scale(0.12 -0.12)">
     <use xlink:href="#DejaVuSans-65"/>
     <use x="68.408203" xlink:href="#DejaVuSans-52"/>
     <use x="132.03125" xlink:href="#DejaVuSans-66"/>
     <use x="200.634766" xlink:href="#DejaVuSans-101"/>
     <use x="262.158203" xlink:href="#DejaVuSans-110"/>
     <use x="325.537109" xlink:href="#DejaVuSans-99"/>
     <use x="380.517578" xlink:href="#DejaVuSans-104"/>
     <use x="443.896484" xlink:href="#DejaVuSans-109"/>
     <use x="541.308594" xlink:href="#DejaVuSans-97"/>
     <use x="602.587891" xlink:href="#DejaVuSans-114"/>
     <use x="643.701172" xlink:href="#DejaVuSans-107"/>
     <use x="701.611328" xlink:href="#DejaVuSans-45"/>
     <use x="737.554688" xlink:href="#DejaVuSans-84"/>
     <use x="798.638672" xlink:href="#DejaVuSans-83"/>
     <use x="862.115234" xlink:href="#DejaVuSans-52"/>
     <use x="925.738281" xlink:href="#DejaVuSans-53"/>
     <use x="989.361328" xlink:href="#DejaVuSans-46"/>
     <use x="1021.148438" xlink:href="#DejaVuSans-99"/>
     <use x="1076.128906" xlink:href="#DejaVuSans-115"/>
     <use x="1128.228516" xlink:href="#DejaVuSans-118"/>
    </g>
   </g>
   <g id="legend_1">
    <g id="patch_110">
     <path d="M 711.284375 74.518125 
L 770.6 74.518125 
Q 772.6 74.518125 772.6 72.518125 
L 772.6 58.84 
Q 772.6 56.84 770.6 56.84 
L 711.284375 56.84 
Q 709.284375 56.84 709.284375 58.84 
L 709.284375 72.518125 
Q 709.284375 74.518125 711.284375 74.518125 
z
" style="fill:#ffffff;opacity:0.8;stroke:#cccccc;stroke-linejoin:miter;"/>
    </g>
    <g id="line2d_18">
     <path d="M 713.284375 64.938438 
L 733.284375 64.938438 
" style="fill:none;stroke:#1f77b4;stroke-linecap:square;stroke-width:1.5;"/>
    </g>
    <g id="line2d_19"/>
    <g id="text_19">
     <!-- value -->
     <g transform="translate(741.284375 68.438438)scale(0.1 -0.1)">
      <use xlink:href="#DejaVuSans-118"/>
      <use x="59.179688" xlink:href="#DejaVuSans-97"/>
      <use x="120.458984" xlink:href="#DejaVuSans-108"/>
      <use x="148.242188" xlink:href="#DejaVuSans-117"/>
      <use x="211.621094" xlink:href="#DejaVuSans-101"/>
     </g>
    </g>
   </g>
  </g>
 </g>
 <defs>
  <clipPath id="p0e6205cc0c">
   <rect height="332.64" width="669.6" x="108" y="51.84"/>
  </clipPath>
 </defs>
</svg>
