<?xml version="1.0" encoding="utf-8" standalone="no"?>
<!DOCTYPE svg PUBLIC "-//W3C//DTD SVG 1.1//EN"
  "http://www.w3.org/Graphics/SVG/1.1/DTD/svg11.dtd">
<!-- Created with matplotlib (https://matplotlib.org/) -->
<svg height="432pt" version="1.1" viewBox="0 0 864 432" width="864pt" xmlns="http://www.w3.org/2000/svg" xmlns:xlink="http://www.w3.org/1999/xlink">
 <metadata>
  <rdf:RDF xmlns:cc="http://creativecommons.org/ns#" xmlns:dc="http://purl.org/dc/elements/1.1/" xmlns:rdf="http://www.w3.org/1999/02/22-rdf-syntax-ns#">
   <cc:Work>
    <dc:type rdf:resource="http://purl.org/dc/dcmitype/StillImage"/>
    <dc:date>2020-12-04T16:23:14.681372</dc:date>
    <dc:format>image/svg+xml</dc:format>
    <dc:creator>
     <cc:Agent>
      <dc:title>Matplotlib v3.3.3, https://matplotlib.org/</dc:title>
     </cc:Agent>
    </dc:creator>
   </cc:Work>
  </rdf:RDF>
 </metadata>
 <defs>
  <style type="text/css">*{stroke-linecap:butt;stroke-linejoin:round;}</style>
 </defs>
 <g id="figure_1">
  <g id="patch_1">
   <path d="M 0 432 
L 864 432 
L 864 0 
L 0 0 
z
" style="fill:#ffffff;"/>
  </g>
  <g id="axes_1">
   <g id="patch_2">
    <path d="M 108 384.48 
L 777.6 384.48 
L 777.6 51.84 
L 108 51.84 
z
" style="fill:#ffffff;"/>
   </g>
   <g id="patch_3">
    <path clip-path="url(#pee44d1b45c)" d="M 138.436364 384.48 
L 138.436364 51.84 
L 381.202597 51.84 
L 381.202597 384.48 
z
" style="fill:#0000ff;opacity:0.05;"/>
   </g>
   <g id="patch_4">
    <path clip-path="url(#pee44d1b45c)" d="M 381.202597 384.48 
L 381.202597 51.84 
L 747.163636 51.84 
L 747.163636 384.48 
z
" style="fill:#ff0000;opacity:0.08;"/>
   </g>
   <g id="patch_5">
    <path clip-path="url(#pee44d1b45c)" d="M 138.436364 384.48 
L 138.436364 51.84 
L 142.05974 51.84 
L 142.05974 384.48 
z
" style="fill:#008000;opacity:0.04;"/>
   </g>
   <g id="patch_6">
    <path clip-path="url(#pee44d1b45c)" d="M 145.683117 384.48 
L 145.683117 51.84 
L 149.306494 51.84 
L 149.306494 384.48 
z
" style="fill:#008000;opacity:0.04;"/>
   </g>
   <g id="patch_7">
    <path clip-path="url(#pee44d1b45c)" d="M 152.92987 384.48 
L 152.92987 51.84 
L 156.553247 51.84 
L 156.553247 384.48 
z
" style="fill:#008000;opacity:0.04;"/>
   </g>
   <g id="patch_8">
    <path clip-path="url(#pee44d1b45c)" d="M 399.319481 384.48 
L 399.319481 371.1744 
L 402.942857 371.1744 
L 402.942857 384.48 
z
" style="fill:#ff6600;"/>
   </g>
   <g id="patch_9">
    <path clip-path="url(#pee44d1b45c)" d="M 160.176623 384.48 
L 160.176623 51.84 
L 163.8 51.84 
L 163.8 384.48 
z
" style="fill:#008000;opacity:0.04;"/>
   </g>
   <g id="patch_10">
    <path clip-path="url(#pee44d1b45c)" d="M 167.423377 384.48 
L 167.423377 51.84 
L 171.046753 51.84 
L 171.046753 384.48 
z
" style="fill:#008000;opacity:0.04;"/>
   </g>
   <g id="patch_11">
    <path clip-path="url(#pee44d1b45c)" d="M 171.046753 371.1744 
L 171.046753 51.84 
L 174.67013 51.84 
L 174.67013 371.1744 
z
" style="fill:#008000;opacity:0.5;"/>
   </g>
   <g id="patch_12">
    <path clip-path="url(#pee44d1b45c)" d="M 171.046753 384.48 
L 171.046753 371.1744 
L 174.67013 371.1744 
L 174.67013 384.48 
z
" style="fill:#ffe500;"/>
   </g>
   <g id="patch_13">
    <path clip-path="url(#pee44d1b45c)" d="M 174.67013 384.48 
L 174.67013 51.84 
L 178.293506 51.84 
L 178.293506 384.48 
z
" style="fill:#008000;opacity:0.04;"/>
   </g>
   <g id="patch_14">
    <path clip-path="url(#pee44d1b45c)" d="M 421.05974 384.48 
L 421.05974 371.1744 
L 424.683117 371.1744 
L 424.683117 384.48 
z
" style="fill:#ff6600;"/>
   </g>
   <g id="patch_15">
    <path clip-path="url(#pee44d1b45c)" d="M 181.916883 384.48 
L 181.916883 51.84 
L 185.54026 51.84 
L 185.54026 384.48 
z
" style="fill:#008000;opacity:0.04;"/>
   </g>
   <g id="patch_16">
    <path clip-path="url(#pee44d1b45c)" d="M 189.163636 384.48 
L 189.163636 51.84 
L 192.787013 51.84 
L 192.787013 384.48 
z
" style="fill:#008000;opacity:0.04;"/>
   </g>
   <g id="patch_17">
    <path clip-path="url(#pee44d1b45c)" d="M 189.163636 384.48 
L 189.163636 371.1744 
L 192.787013 371.1744 
L 192.787013 384.48 
z
" style="fill:#ffe500;"/>
   </g>
   <g id="patch_18">
    <path clip-path="url(#pee44d1b45c)" d="M 196.41039 384.48 
L 196.41039 51.84 
L 200.033766 51.84 
L 200.033766 384.48 
z
" style="fill:#008000;opacity:0.04;"/>
   </g>
   <g id="patch_19">
    <path clip-path="url(#pee44d1b45c)" d="M 439.176623 384.48 
L 439.176623 371.1744 
L 442.8 371.1744 
L 442.8 384.48 
z
" style="fill:#ff6600;"/>
   </g>
   <g id="patch_20">
    <path clip-path="url(#pee44d1b45c)" d="M 203.657143 384.48 
L 203.657143 51.84 
L 207.280519 51.84 
L 207.280519 384.48 
z
" style="fill:#008000;opacity:0.04;"/>
   </g>
   <g id="patch_21">
    <path clip-path="url(#pee44d1b45c)" d="M 210.903896 384.48 
L 210.903896 51.84 
L 214.527273 51.84 
L 214.527273 384.48 
z
" style="fill:#008000;opacity:0.04;"/>
   </g>
   <g id="patch_22">
    <path clip-path="url(#pee44d1b45c)" d="M 210.903896 384.48 
L 210.903896 371.1744 
L 214.527273 371.1744 
L 214.527273 384.48 
z
" style="fill:#ffe500;"/>
   </g>
   <g id="patch_23">
    <path clip-path="url(#pee44d1b45c)" d="M 218.150649 384.48 
L 218.150649 51.84 
L 221.774026 51.84 
L 221.774026 384.48 
z
" style="fill:#008000;opacity:0.04;"/>
   </g>
   <g id="patch_24">
    <path clip-path="url(#pee44d1b45c)" d="M 225.397403 384.48 
L 225.397403 51.84 
L 229.020779 51.84 
L 229.020779 384.48 
z
" style="fill:#008000;opacity:0.04;"/>
   </g>
   <g id="patch_25">
    <path clip-path="url(#pee44d1b45c)" d="M 225.397403 371.1744 
L 225.397403 51.84 
L 229.020779 51.84 
L 229.020779 371.1744 
z
" style="fill:#008000;opacity:0.5;"/>
   </g>
   <g id="patch_26">
    <path clip-path="url(#pee44d1b45c)" d="M 225.397403 384.48 
L 225.397403 371.1744 
L 229.020779 371.1744 
L 229.020779 384.48 
z
" style="fill:#ffe500;"/>
   </g>
   <g id="patch_27">
    <path clip-path="url(#pee44d1b45c)" d="M 232.644156 384.48 
L 232.644156 51.84 
L 236.267532 51.84 
L 236.267532 384.48 
z
" style="fill:#008000;opacity:0.04;"/>
   </g>
   <g id="patch_28">
    <path clip-path="url(#pee44d1b45c)" d="M 239.890909 384.48 
L 239.890909 51.84 
L 243.514286 51.84 
L 243.514286 384.48 
z
" style="fill:#008000;opacity:0.04;"/>
   </g>
   <g id="patch_29">
    <path clip-path="url(#pee44d1b45c)" d="M 247.137662 384.48 
L 247.137662 51.84 
L 250.761039 51.84 
L 250.761039 384.48 
z
" style="fill:#008000;opacity:0.04;"/>
   </g>
   <g id="patch_30">
    <path clip-path="url(#pee44d1b45c)" d="M 247.137662 371.1744 
L 247.137662 51.84 
L 250.761039 51.84 
L 250.761039 371.1744 
z
" style="fill:#008000;opacity:0.5;"/>
   </g>
   <g id="patch_31">
    <path clip-path="url(#pee44d1b45c)" d="M 489.903896 384.48 
L 489.903896 371.1744 
L 493.527273 371.1744 
L 493.527273 384.48 
z
" style="fill:#ff6600;"/>
   </g>
   <g id="patch_32">
    <path clip-path="url(#pee44d1b45c)" d="M 254.384416 384.48 
L 254.384416 51.84 
L 258.007792 51.84 
L 258.007792 384.48 
z
" style="fill:#008000;opacity:0.04;"/>
   </g>
   <g id="patch_33">
    <path clip-path="url(#pee44d1b45c)" d="M 258.007792 371.1744 
L 258.007792 51.84 
L 261.631169 51.84 
L 261.631169 371.1744 
z
" style="fill:#008000;opacity:0.5;"/>
   </g>
   <g id="patch_34">
    <path clip-path="url(#pee44d1b45c)" d="M 258.007792 384.48 
L 258.007792 371.1744 
L 261.631169 371.1744 
L 261.631169 384.48 
z
" style="fill:#ffe500;"/>
   </g>
   <g id="patch_35">
    <path clip-path="url(#pee44d1b45c)" d="M 261.631169 384.48 
L 261.631169 51.84 
L 265.254545 51.84 
L 265.254545 384.48 
z
" style="fill:#008000;opacity:0.04;"/>
   </g>
   <g id="patch_36">
    <path clip-path="url(#pee44d1b45c)" d="M 268.877922 384.48 
L 268.877922 51.84 
L 272.501299 51.84 
L 272.501299 384.48 
z
" style="fill:#008000;opacity:0.04;"/>
   </g>
   <g id="patch_37">
    <path clip-path="url(#pee44d1b45c)" d="M 276.124675 384.48 
L 276.124675 51.84 
L 279.748052 51.84 
L 279.748052 384.48 
z
" style="fill:#008000;opacity:0.04;"/>
   </g>
   <g id="patch_38">
    <path clip-path="url(#pee44d1b45c)" d="M 522.514286 384.48 
L 522.514286 371.1744 
L 526.137662 371.1744 
L 526.137662 384.48 
z
" style="fill:#ff6600;"/>
   </g>
   <g id="patch_39">
    <path clip-path="url(#pee44d1b45c)" d="M 283.371429 384.48 
L 283.371429 51.84 
L 286.994805 51.84 
L 286.994805 384.48 
z
" style="fill:#008000;opacity:0.04;"/>
   </g>
   <g id="patch_40">
    <path clip-path="url(#pee44d1b45c)" d="M 290.618182 384.48 
L 290.618182 51.84 
L 294.241558 51.84 
L 294.241558 384.48 
z
" style="fill:#008000;opacity:0.04;"/>
   </g>
   <g id="patch_41">
    <path clip-path="url(#pee44d1b45c)" d="M 297.864935 384.48 
L 297.864935 51.84 
L 301.488312 51.84 
L 301.488312 384.48 
z
" style="fill:#008000;opacity:0.04;"/>
   </g>
   <g id="patch_42">
    <path clip-path="url(#pee44d1b45c)" d="M 305.111688 384.48 
L 305.111688 51.84 
L 308.735065 51.84 
L 308.735065 384.48 
z
" style="fill:#008000;opacity:0.04;"/>
   </g>
   <g id="patch_43">
    <path clip-path="url(#pee44d1b45c)" d="M 312.358442 384.48 
L 312.358442 51.84 
L 315.981818 51.84 
L 315.981818 384.48 
z
" style="fill:#008000;opacity:0.04;"/>
   </g>
   <g id="patch_44">
    <path clip-path="url(#pee44d1b45c)" d="M 319.605195 384.48 
L 319.605195 51.84 
L 323.228571 51.84 
L 323.228571 384.48 
z
" style="fill:#008000;opacity:0.04;"/>
   </g>
   <g id="patch_45">
    <path clip-path="url(#pee44d1b45c)" d="M 326.851948 384.48 
L 326.851948 51.84 
L 330.475325 51.84 
L 330.475325 384.48 
z
" style="fill:#008000;opacity:0.04;"/>
   </g>
   <g id="patch_46">
    <path clip-path="url(#pee44d1b45c)" d="M 334.098701 384.48 
L 334.098701 51.84 
L 337.722078 51.84 
L 337.722078 384.48 
z
" style="fill:#008000;opacity:0.04;"/>
   </g>
   <g id="patch_47">
    <path clip-path="url(#pee44d1b45c)" d="M 341.345455 384.48 
L 341.345455 51.84 
L 344.968831 51.84 
L 344.968831 384.48 
z
" style="fill:#008000;opacity:0.04;"/>
   </g>
   <g id="patch_48">
    <path clip-path="url(#pee44d1b45c)" d="M 348.592208 384.48 
L 348.592208 51.84 
L 352.215584 51.84 
L 352.215584 384.48 
z
" style="fill:#008000;opacity:0.04;"/>
   </g>
   <g id="patch_49">
    <path clip-path="url(#pee44d1b45c)" d="M 355.838961 384.48 
L 355.838961 51.84 
L 359.462338 51.84 
L 359.462338 384.48 
z
" style="fill:#008000;opacity:0.04;"/>
   </g>
   <g id="patch_50">
    <path clip-path="url(#pee44d1b45c)" d="M 363.085714 384.48 
L 363.085714 51.84 
L 366.709091 51.84 
L 366.709091 384.48 
z
" style="fill:#008000;opacity:0.04;"/>
   </g>
   <g id="patch_51">
    <path clip-path="url(#pee44d1b45c)" d="M 363.085714 384.48 
L 363.085714 371.1744 
L 366.709091 371.1744 
L 366.709091 384.48 
z
" style="fill:#ffe500;"/>
   </g>
   <g id="patch_52">
    <path clip-path="url(#pee44d1b45c)" d="M 370.332468 384.48 
L 370.332468 51.84 
L 373.955844 51.84 
L 373.955844 384.48 
z
" style="fill:#008000;opacity:0.04;"/>
   </g>
   <g id="patch_53">
    <path clip-path="url(#pee44d1b45c)" d="M 377.579221 384.48 
L 377.579221 51.84 
L 381.202597 51.84 
L 381.202597 384.48 
z
" style="fill:#008000;opacity:0.04;"/>
   </g>
   <g id="patch_54">
    <path clip-path="url(#pee44d1b45c)" d="M 384.825974 384.48 
L 384.825974 51.84 
L 388.449351 51.84 
L 388.449351 384.48 
z
" style="fill:#008000;opacity:0.04;"/>
   </g>
   <g id="patch_55">
    <path clip-path="url(#pee44d1b45c)" d="M 392.072727 384.48 
L 392.072727 51.84 
L 395.696104 51.84 
L 395.696104 384.48 
z
" style="fill:#008000;opacity:0.04;"/>
   </g>
   <g id="patch_56">
    <path clip-path="url(#pee44d1b45c)" d="M 399.319481 384.48 
L 399.319481 51.84 
L 402.942857 51.84 
L 402.942857 384.48 
z
" style="fill:#008000;opacity:0.04;"/>
   </g>
   <g id="patch_57">
    <path clip-path="url(#pee44d1b45c)" d="M 399.319481 371.1744 
L 399.319481 51.84 
L 402.942857 51.84 
L 402.942857 371.1744 
z
" style="fill:#008000;opacity:0.5;"/>
   </g>
   <g id="patch_58">
    <path clip-path="url(#pee44d1b45c)" d="M 406.566234 384.48 
L 406.566234 51.84 
L 410.18961 51.84 
L 410.18961 384.48 
z
" style="fill:#008000;opacity:0.04;"/>
   </g>
   <g id="patch_59">
    <path clip-path="url(#pee44d1b45c)" d="M 413.812987 384.48 
L 413.812987 51.84 
L 417.436364 51.84 
L 417.436364 384.48 
z
" style="fill:#008000;opacity:0.04;"/>
   </g>
   <g id="patch_60">
    <path clip-path="url(#pee44d1b45c)" d="M 421.05974 384.48 
L 421.05974 51.84 
L 424.683117 51.84 
L 424.683117 384.48 
z
" style="fill:#008000;opacity:0.04;"/>
   </g>
   <g id="patch_61">
    <path clip-path="url(#pee44d1b45c)" d="M 421.05974 371.1744 
L 421.05974 51.84 
L 424.683117 51.84 
L 424.683117 371.1744 
z
" style="fill:#008000;opacity:0.5;"/>
   </g>
   <g id="patch_62">
    <path clip-path="url(#pee44d1b45c)" d="M 428.306494 384.48 
L 428.306494 51.84 
L 431.92987 51.84 
L 431.92987 384.48 
z
" style="fill:#008000;opacity:0.04;"/>
   </g>
   <g id="patch_63">
    <path clip-path="url(#pee44d1b45c)" d="M 428.306494 371.1744 
L 428.306494 51.84 
L 431.92987 51.84 
L 431.92987 371.1744 
z
" style="fill:#008000;opacity:0.5;"/>
   </g>
   <g id="patch_64">
    <path clip-path="url(#pee44d1b45c)" d="M 435.553247 384.48 
L 435.553247 51.84 
L 439.176623 51.84 
L 439.176623 384.48 
z
" style="fill:#008000;opacity:0.04;"/>
   </g>
   <g id="patch_65">
    <path clip-path="url(#pee44d1b45c)" d="M 439.176623 371.1744 
L 439.176623 51.84 
L 442.8 51.84 
L 442.8 371.1744 
z
" style="fill:#008000;opacity:0.5;"/>
   </g>
   <g id="patch_66">
    <path clip-path="url(#pee44d1b45c)" d="M 442.8 384.48 
L 442.8 51.84 
L 446.423377 51.84 
L 446.423377 384.48 
z
" style="fill:#008000;opacity:0.04;"/>
   </g>
   <g id="patch_67">
    <path clip-path="url(#pee44d1b45c)" d="M 450.046753 384.48 
L 450.046753 51.84 
L 453.67013 51.84 
L 453.67013 384.48 
z
" style="fill:#008000;opacity:0.04;"/>
   </g>
   <g id="patch_68">
    <path clip-path="url(#pee44d1b45c)" d="M 457.293506 384.48 
L 457.293506 51.84 
L 460.916883 51.84 
L 460.916883 384.48 
z
" style="fill:#008000;opacity:0.04;"/>
   </g>
   <g id="patch_69">
    <path clip-path="url(#pee44d1b45c)" d="M 464.54026 384.48 
L 464.54026 51.84 
L 468.163636 51.84 
L 468.163636 384.48 
z
" style="fill:#008000;opacity:0.04;"/>
   </g>
   <g id="patch_70">
    <path clip-path="url(#pee44d1b45c)" d="M 471.787013 384.48 
L 471.787013 51.84 
L 475.41039 51.84 
L 475.41039 384.48 
z
" style="fill:#008000;opacity:0.04;"/>
   </g>
   <g id="patch_71">
    <path clip-path="url(#pee44d1b45c)" d="M 479.033766 384.48 
L 479.033766 51.84 
L 482.657143 51.84 
L 482.657143 384.48 
z
" style="fill:#008000;opacity:0.04;"/>
   </g>
   <g id="patch_72">
    <path clip-path="url(#pee44d1b45c)" d="M 486.280519 384.48 
L 486.280519 51.84 
L 489.903896 51.84 
L 489.903896 384.48 
z
" style="fill:#008000;opacity:0.04;"/>
   </g>
   <g id="patch_73">
    <path clip-path="url(#pee44d1b45c)" d="M 489.903896 371.1744 
L 489.903896 51.84 
L 493.527273 51.84 
L 493.527273 371.1744 
z
" style="fill:#008000;opacity:0.5;"/>
   </g>
   <g id="patch_74">
    <path clip-path="url(#pee44d1b45c)" d="M 493.527273 384.48 
L 493.527273 51.84 
L 497.150649 51.84 
L 497.150649 384.48 
z
" style="fill:#008000;opacity:0.04;"/>
   </g>
   <g id="patch_75">
    <path clip-path="url(#pee44d1b45c)" d="M 500.774026 384.48 
L 500.774026 51.84 
L 504.397403 51.84 
L 504.397403 384.48 
z
" style="fill:#008000;opacity:0.04;"/>
   </g>
   <g id="patch_76">
    <path clip-path="url(#pee44d1b45c)" d="M 508.020779 384.48 
L 508.020779 51.84 
L 511.644156 51.84 
L 511.644156 384.48 
z
" style="fill:#008000;opacity:0.04;"/>
   </g>
   <g id="patch_77">
    <path clip-path="url(#pee44d1b45c)" d="M 515.267532 384.48 
L 515.267532 51.84 
L 518.890909 51.84 
L 518.890909 384.48 
z
" style="fill:#008000;opacity:0.04;"/>
   </g>
   <g id="patch_78">
    <path clip-path="url(#pee44d1b45c)" d="M 522.514286 384.48 
L 522.514286 51.84 
L 526.137662 51.84 
L 526.137662 384.48 
z
" style="fill:#008000;opacity:0.04;"/>
   </g>
   <g id="patch_79">
    <path clip-path="url(#pee44d1b45c)" d="M 522.514286 371.1744 
L 522.514286 51.84 
L 526.137662 51.84 
L 526.137662 371.1744 
z
" style="fill:#008000;opacity:0.5;"/>
   </g>
   <g id="patch_80">
    <path clip-path="url(#pee44d1b45c)" d="M 529.761039 384.48 
L 529.761039 51.84 
L 533.384416 51.84 
L 533.384416 384.48 
z
" style="fill:#008000;opacity:0.04;"/>
   </g>
   <g id="patch_81">
    <path clip-path="url(#pee44d1b45c)" d="M 537.007792 384.48 
L 537.007792 51.84 
L 540.631169 51.84 
L 540.631169 384.48 
z
" style="fill:#008000;opacity:0.04;"/>
   </g>
   <g id="patch_82">
    <path clip-path="url(#pee44d1b45c)" d="M 544.254545 384.48 
L 544.254545 51.84 
L 547.877922 51.84 
L 547.877922 384.48 
z
" style="fill:#008000;opacity:0.04;"/>
   </g>
   <g id="patch_83">
    <path clip-path="url(#pee44d1b45c)" d="M 551.501299 384.48 
L 551.501299 51.84 
L 555.124675 51.84 
L 555.124675 384.48 
z
" style="fill:#008000;opacity:0.04;"/>
   </g>
   <g id="patch_84">
    <path clip-path="url(#pee44d1b45c)" d="M 558.748052 384.48 
L 558.748052 51.84 
L 562.371429 51.84 
L 562.371429 384.48 
z
" style="fill:#008000;opacity:0.04;"/>
   </g>
   <g id="patch_85">
    <path clip-path="url(#pee44d1b45c)" d="M 558.748052 371.1744 
L 558.748052 51.84 
L 562.371429 51.84 
L 562.371429 371.1744 
z
" style="fill:#008000;opacity:0.5;"/>
   </g>
   <g id="patch_86">
    <path clip-path="url(#pee44d1b45c)" d="M 565.994805 384.48 
L 565.994805 51.84 
L 569.618182 51.84 
L 569.618182 384.48 
z
" style="fill:#008000;opacity:0.04;"/>
   </g>
   <g id="patch_87">
    <path clip-path="url(#pee44d1b45c)" d="M 573.241558 384.48 
L 573.241558 51.84 
L 576.864935 51.84 
L 576.864935 384.48 
z
" style="fill:#008000;opacity:0.04;"/>
   </g>
   <g id="patch_88">
    <path clip-path="url(#pee44d1b45c)" d="M 580.488312 384.48 
L 580.488312 51.84 
L 584.111688 51.84 
L 584.111688 384.48 
z
" style="fill:#008000;opacity:0.04;"/>
   </g>
   <g id="patch_89">
    <path clip-path="url(#pee44d1b45c)" d="M 587.735065 384.48 
L 587.735065 51.84 
L 591.358442 51.84 
L 591.358442 384.48 
z
" style="fill:#008000;opacity:0.04;"/>
   </g>
   <g id="patch_90">
    <path clip-path="url(#pee44d1b45c)" d="M 594.981818 384.48 
L 594.981818 51.84 
L 598.605195 51.84 
L 598.605195 384.48 
z
" style="fill:#008000;opacity:0.04;"/>
   </g>
   <g id="patch_91">
    <path clip-path="url(#pee44d1b45c)" d="M 602.228571 384.48 
L 602.228571 51.84 
L 605.851948 51.84 
L 605.851948 384.48 
z
" style="fill:#008000;opacity:0.04;"/>
   </g>
   <g id="patch_92">
    <path clip-path="url(#pee44d1b45c)" d="M 609.475325 384.48 
L 609.475325 51.84 
L 613.098701 51.84 
L 613.098701 384.48 
z
" style="fill:#008000;opacity:0.04;"/>
   </g>
   <g id="patch_93">
    <path clip-path="url(#pee44d1b45c)" d="M 616.722078 384.48 
L 616.722078 51.84 
L 620.345455 51.84 
L 620.345455 384.48 
z
" style="fill:#008000;opacity:0.04;"/>
   </g>
   <g id="patch_94">
    <path clip-path="url(#pee44d1b45c)" d="M 623.968831 384.48 
L 623.968831 51.84 
L 627.592208 51.84 
L 627.592208 384.48 
z
" style="fill:#008000;opacity:0.04;"/>
   </g>
   <g id="patch_95">
    <path clip-path="url(#pee44d1b45c)" d="M 631.215584 384.48 
L 631.215584 51.84 
L 634.838961 51.84 
L 634.838961 384.48 
z
" style="fill:#008000;opacity:0.04;"/>
   </g>
   <g id="patch_96">
    <path clip-path="url(#pee44d1b45c)" d="M 638.462338 384.48 
L 638.462338 51.84 
L 642.085714 51.84 
L 642.085714 384.48 
z
" style="fill:#008000;opacity:0.04;"/>
   </g>
   <g id="patch_97">
    <path clip-path="url(#pee44d1b45c)" d="M 645.709091 384.48 
L 645.709091 51.84 
L 649.332468 51.84 
L 649.332468 384.48 
z
" style="fill:#008000;opacity:0.04;"/>
   </g>
   <g id="patch_98">
    <path clip-path="url(#pee44d1b45c)" d="M 652.955844 384.48 
L 652.955844 51.84 
L 656.579221 51.84 
L 656.579221 384.48 
z
" style="fill:#008000;opacity:0.04;"/>
   </g>
   <g id="patch_99">
    <path clip-path="url(#pee44d1b45c)" d="M 656.579221 371.1744 
L 656.579221 51.84 
L 660.202597 51.84 
L 660.202597 371.1744 
z
" style="fill:#008000;opacity:0.5;"/>
   </g>
   <g id="patch_100">
    <path clip-path="url(#pee44d1b45c)" d="M 660.202597 384.48 
L 660.202597 51.84 
L 663.825974 51.84 
L 663.825974 384.48 
z
" style="fill:#008000;opacity:0.04;"/>
   </g>
   <g id="patch_101">
    <path clip-path="url(#pee44d1b45c)" d="M 667.449351 384.48 
L 667.449351 51.84 
L 671.072727 51.84 
L 671.072727 384.48 
z
" style="fill:#008000;opacity:0.04;"/>
   </g>
   <g id="patch_102">
    <path clip-path="url(#pee44d1b45c)" d="M 671.072727 371.1744 
L 671.072727 51.84 
L 674.696104 51.84 
L 674.696104 371.1744 
z
" style="fill:#008000;opacity:0.5;"/>
   </g>
   <g id="patch_103">
    <path clip-path="url(#pee44d1b45c)" d="M 674.696104 384.48 
L 674.696104 51.84 
L 678.319481 51.84 
L 678.319481 384.48 
z
" style="fill:#008000;opacity:0.04;"/>
   </g>
   <g id="patch_104">
    <path clip-path="url(#pee44d1b45c)" d="M 681.942857 384.48 
L 681.942857 51.84 
L 685.566234 51.84 
L 685.566234 384.48 
z
" style="fill:#008000;opacity:0.04;"/>
   </g>
   <g id="patch_105">
    <path clip-path="url(#pee44d1b45c)" d="M 689.18961 384.48 
L 689.18961 51.84 
L 692.812987 51.84 
L 692.812987 384.48 
z
" style="fill:#008000;opacity:0.04;"/>
   </g>
   <g id="patch_106">
    <path clip-path="url(#pee44d1b45c)" d="M 696.436364 384.48 
L 696.436364 51.84 
L 700.05974 51.84 
L 700.05974 384.48 
z
" style="fill:#008000;opacity:0.04;"/>
   </g>
   <g id="patch_107">
    <path clip-path="url(#pee44d1b45c)" d="M 703.683117 384.48 
L 703.683117 51.84 
L 707.306494 51.84 
L 707.306494 384.48 
z
" style="fill:#008000;opacity:0.04;"/>
   </g>
   <g id="patch_108">
    <path clip-path="url(#pee44d1b45c)" d="M 710.92987 384.48 
L 710.92987 51.84 
L 714.553247 51.84 
L 714.553247 384.48 
z
" style="fill:#008000;opacity:0.04;"/>
   </g>
   <g id="patch_109">
    <path clip-path="url(#pee44d1b45c)" d="M 718.176623 384.48 
L 718.176623 51.84 
L 721.8 51.84 
L 721.8 384.48 
z
" style="fill:#008000;opacity:0.04;"/>
   </g>
   <g id="patch_110">
    <path clip-path="url(#pee44d1b45c)" d="M 725.423377 384.48 
L 725.423377 51.84 
L 729.046753 51.84 
L 729.046753 384.48 
z
" style="fill:#008000;opacity:0.04;"/>
   </g>
   <g id="patch_111">
    <path clip-path="url(#pee44d1b45c)" d="M 732.67013 384.48 
L 732.67013 51.84 
L 736.293506 51.84 
L 736.293506 384.48 
z
" style="fill:#008000;opacity:0.04;"/>
   </g>
   <g id="patch_112">
    <path clip-path="url(#pee44d1b45c)" d="M 739.916883 384.48 
L 739.916883 51.84 
L 743.54026 51.84 
L 743.54026 384.48 
z
" style="fill:#008000;opacity:0.04;"/>
   </g>
   <g id="matplotlib.axis_1">
    <g id="xtick_1">
     <g id="line2d_1">
      <defs>
       <path d="M 0 0 
L 0 3.5 
" id="m6a6eadd187" style="stroke:#000000;stroke-width:0.8;"/>
      </defs>
      <g>
       <use style="stroke:#000000;stroke-width:0.8;" x="138.436364" xlink:href="#m6a6eadd187" y="384.48"/>
      </g>
     </g>
     <g id="text_1">
      <!-- 0 -->
      <g transform="translate(135.255114 399.078438)scale(0.1 -0.1)">
       <defs>
        <path d="M 31.78125 66.40625 
Q 24.171875 66.40625 20.328125 58.90625 
Q 16.5 51.421875 16.5 36.375 
Q 16.5 21.390625 20.328125 13.890625 
Q 24.171875 6.390625 31.78125 6.390625 
Q 39.453125 6.390625 43.28125 13.890625 
Q 47.125 21.390625 47.125 36.375 
Q 47.125 51.421875 43.28125 58.90625 
Q 39.453125 66.40625 31.78125 66.40625 
z
M 31.78125 74.21875 
Q 44.046875 74.21875 50.515625 64.515625 
Q 56.984375 54.828125 56.984375 36.375 
Q 56.984375 17.96875 50.515625 8.265625 
Q 44.046875 -1.421875 31.78125 -1.421875 
Q 19.53125 -1.421875 13.0625 8.265625 
Q 6.59375 17.96875 6.59375 36.375 
Q 6.59375 54.828125 13.0625 64.515625 
Q 19.53125 74.21875 31.78125 74.21875 
z
" id="DejaVuSans-48"/>
       </defs>
       <use xlink:href="#DejaVuSans-48"/>
      </g>
     </g>
    </g>
    <g id="xtick_2">
     <g id="line2d_2">
      <g>
       <use style="stroke:#000000;stroke-width:0.8;" x="229.020779" xlink:href="#m6a6eadd187" y="384.48"/>
      </g>
     </g>
     <g id="text_2">
      <!-- 250 -->
      <g transform="translate(219.477029 399.078438)scale(0.1 -0.1)">
       <defs>
        <path d="M 19.1875 8.296875 
L 53.609375 8.296875 
L 53.609375 0 
L 7.328125 0 
L 7.328125 8.296875 
Q 12.9375 14.109375 22.625 23.890625 
Q 32.328125 33.6875 34.8125 36.53125 
Q 39.546875 41.84375 41.421875 45.53125 
Q 43.3125 49.21875 43.3125 52.78125 
Q 43.3125 58.59375 39.234375 62.25 
Q 35.15625 65.921875 28.609375 65.921875 
Q 23.96875 65.921875 18.8125 64.3125 
Q 13.671875 62.703125 7.8125 59.421875 
L 7.8125 69.390625 
Q 13.765625 71.78125 18.9375 73 
Q 24.125 74.21875 28.421875 74.21875 
Q 39.75 74.21875 46.484375 68.546875 
Q 53.21875 62.890625 53.21875 53.421875 
Q 53.21875 48.921875 51.53125 44.890625 
Q 49.859375 40.875 45.40625 35.40625 
Q 44.1875 33.984375 37.640625 27.21875 
Q 31.109375 20.453125 19.1875 8.296875 
z
" id="DejaVuSans-50"/>
        <path d="M 10.796875 72.90625 
L 49.515625 72.90625 
L 49.515625 64.59375 
L 19.828125 64.59375 
L 19.828125 46.734375 
Q 21.96875 47.46875 24.109375 47.828125 
Q 26.265625 48.1875 28.421875 48.1875 
Q 40.625 48.1875 47.75 41.5 
Q 54.890625 34.8125 54.890625 23.390625 
Q 54.890625 11.625 47.5625 5.09375 
Q 40.234375 -1.421875 26.90625 -1.421875 
Q 22.3125 -1.421875 17.546875 -0.640625 
Q 12.796875 0.140625 7.71875 1.703125 
L 7.71875 11.625 
Q 12.109375 9.234375 16.796875 8.0625 
Q 21.484375 6.890625 26.703125 6.890625 
Q 35.15625 6.890625 40.078125 11.328125 
Q 45.015625 15.765625 45.015625 23.390625 
Q 45.015625 31 40.078125 35.4375 
Q 35.15625 39.890625 26.703125 39.890625 
Q 22.75 39.890625 18.8125 39.015625 
Q 14.890625 38.140625 10.796875 36.28125 
z
" id="DejaVuSans-53"/>
       </defs>
       <use xlink:href="#DejaVuSans-50"/>
       <use x="63.623047" xlink:href="#DejaVuSans-53"/>
       <use x="127.246094" xlink:href="#DejaVuSans-48"/>
      </g>
     </g>
    </g>
    <g id="xtick_3">
     <g id="line2d_3">
      <g>
       <use style="stroke:#000000;stroke-width:0.8;" x="319.605195" xlink:href="#m6a6eadd187" y="384.48"/>
      </g>
     </g>
     <g id="text_3">
      <!-- 500 -->
      <g transform="translate(310.061445 399.078438)scale(0.1 -0.1)">
       <use xlink:href="#DejaVuSans-53"/>
       <use x="63.623047" xlink:href="#DejaVuSans-48"/>
       <use x="127.246094" xlink:href="#DejaVuSans-48"/>
      </g>
     </g>
    </g>
    <g id="xtick_4">
     <g id="line2d_4">
      <g>
       <use style="stroke:#000000;stroke-width:0.8;" x="410.18961" xlink:href="#m6a6eadd187" y="384.48"/>
      </g>
     </g>
     <g id="text_4">
      <!-- 750 -->
      <g transform="translate(400.64586 399.078438)scale(0.1 -0.1)">
       <defs>
        <path d="M 8.203125 72.90625 
L 55.078125 72.90625 
L 55.078125 68.703125 
L 28.609375 0 
L 18.3125 0 
L 43.21875 64.59375 
L 8.203125 64.59375 
z
" id="DejaVuSans-55"/>
       </defs>
       <use xlink:href="#DejaVuSans-55"/>
       <use x="63.623047" xlink:href="#DejaVuSans-53"/>
       <use x="127.246094" xlink:href="#DejaVuSans-48"/>
      </g>
     </g>
    </g>
    <g id="xtick_5">
     <g id="line2d_5">
      <g>
       <use style="stroke:#000000;stroke-width:0.8;" x="500.774026" xlink:href="#m6a6eadd187" y="384.48"/>
      </g>
     </g>
     <g id="text_5">
      <!-- 1000 -->
      <g transform="translate(488.049026 399.078438)scale(0.1 -0.1)">
       <defs>
        <path d="M 12.40625 8.296875 
L 28.515625 8.296875 
L 28.515625 63.921875 
L 10.984375 60.40625 
L 10.984375 69.390625 
L 28.421875 72.90625 
L 38.28125 72.90625 
L 38.28125 8.296875 
L 54.390625 8.296875 
L 54.390625 0 
L 12.40625 0 
z
" id="DejaVuSans-49"/>
       </defs>
       <use xlink:href="#DejaVuSans-49"/>
       <use x="63.623047" xlink:href="#DejaVuSans-48"/>
       <use x="127.246094" xlink:href="#DejaVuSans-48"/>
       <use x="190.869141" xlink:href="#DejaVuSans-48"/>
      </g>
     </g>
    </g>
    <g id="xtick_6">
     <g id="line2d_6">
      <g>
       <use style="stroke:#000000;stroke-width:0.8;" x="591.358442" xlink:href="#m6a6eadd187" y="384.48"/>
      </g>
     </g>
     <g id="text_6">
      <!-- 1250 -->
      <g transform="translate(578.633442 399.078438)scale(0.1 -0.1)">
       <use xlink:href="#DejaVuSans-49"/>
       <use x="63.623047" xlink:href="#DejaVuSans-50"/>
       <use x="127.246094" xlink:href="#DejaVuSans-53"/>
       <use x="190.869141" xlink:href="#DejaVuSans-48"/>
      </g>
     </g>
    </g>
    <g id="xtick_7">
     <g id="line2d_7">
      <g>
       <use style="stroke:#000000;stroke-width:0.8;" x="681.942857" xlink:href="#m6a6eadd187" y="384.48"/>
      </g>
     </g>
     <g id="text_7">
      <!-- 1500 -->
      <g transform="translate(669.217857 399.078438)scale(0.1 -0.1)">
       <use xlink:href="#DejaVuSans-49"/>
       <use x="63.623047" xlink:href="#DejaVuSans-53"/>
       <use x="127.246094" xlink:href="#DejaVuSans-48"/>
       <use x="190.869141" xlink:href="#DejaVuSans-48"/>
      </g>
     </g>
    </g>
    <g id="xtick_8">
     <g id="line2d_8">
      <g>
       <use style="stroke:#000000;stroke-width:0.8;" x="772.527273" xlink:href="#m6a6eadd187" y="384.48"/>
      </g>
     </g>
     <g id="text_8">
      <!-- 1750 -->
      <g transform="translate(759.802273 399.078438)scale(0.1 -0.1)">
       <use xlink:href="#DejaVuSans-49"/>
       <use x="63.623047" xlink:href="#DejaVuSans-55"/>
       <use x="127.246094" xlink:href="#DejaVuSans-53"/>
       <use x="190.869141" xlink:href="#DejaVuSans-48"/>
      </g>
     </g>
    </g>
    <g id="text_9">
     <!-- Timestamp -->
     <g transform="translate(414.892969 412.756563)scale(0.1 -0.1)">
      <defs>
       <path d="M -0.296875 72.90625 
L 61.375 72.90625 
L 61.375 64.59375 
L 35.5 64.59375 
L 35.5 0 
L 25.59375 0 
L 25.59375 64.59375 
L -0.296875 64.59375 
z
" id="DejaVuSans-84"/>
       <path d="M 9.421875 54.6875 
L 18.40625 54.6875 
L 18.40625 0 
L 9.421875 0 
z
M 9.421875 75.984375 
L 18.40625 75.984375 
L 18.40625 64.59375 
L 9.421875 64.59375 
z
" id="DejaVuSans-105"/>
       <path d="M 52 44.1875 
Q 55.375 50.25 60.0625 53.125 
Q 64.75 56 71.09375 56 
Q 79.640625 56 84.28125 50.015625 
Q 88.921875 44.046875 88.921875 33.015625 
L 88.921875 0 
L 79.890625 0 
L 79.890625 32.71875 
Q 79.890625 40.578125 77.09375 44.375 
Q 74.3125 48.1875 68.609375 48.1875 
Q 61.625 48.1875 57.5625 43.546875 
Q 53.515625 38.921875 53.515625 30.90625 
L 53.515625 0 
L 44.484375 0 
L 44.484375 32.71875 
Q 44.484375 40.625 41.703125 44.40625 
Q 38.921875 48.1875 33.109375 48.1875 
Q 26.21875 48.1875 22.15625 43.53125 
Q 18.109375 38.875 18.109375 30.90625 
L 18.109375 0 
L 9.078125 0 
L 9.078125 54.6875 
L 18.109375 54.6875 
L 18.109375 46.1875 
Q 21.1875 51.21875 25.484375 53.609375 
Q 29.78125 56 35.6875 56 
Q 41.65625 56 45.828125 52.96875 
Q 50 49.953125 52 44.1875 
z
" id="DejaVuSans-109"/>
       <path d="M 56.203125 29.59375 
L 56.203125 25.203125 
L 14.890625 25.203125 
Q 15.484375 15.921875 20.484375 11.0625 
Q 25.484375 6.203125 34.421875 6.203125 
Q 39.59375 6.203125 44.453125 7.46875 
Q 49.3125 8.734375 54.109375 11.28125 
L 54.109375 2.78125 
Q 49.265625 0.734375 44.1875 -0.34375 
Q 39.109375 -1.421875 33.890625 -1.421875 
Q 20.796875 -1.421875 13.15625 6.1875 
Q 5.515625 13.8125 5.515625 26.8125 
Q 5.515625 40.234375 12.765625 48.109375 
Q 20.015625 56 32.328125 56 
Q 43.359375 56 49.78125 48.890625 
Q 56.203125 41.796875 56.203125 29.59375 
z
M 47.21875 32.234375 
Q 47.125 39.59375 43.09375 43.984375 
Q 39.0625 48.390625 32.421875 48.390625 
Q 24.90625 48.390625 20.390625 44.140625 
Q 15.875 39.890625 15.1875 32.171875 
z
" id="DejaVuSans-101"/>
       <path d="M 44.28125 53.078125 
L 44.28125 44.578125 
Q 40.484375 46.53125 36.375 47.5 
Q 32.28125 48.484375 27.875 48.484375 
Q 21.1875 48.484375 17.84375 46.4375 
Q 14.5 44.390625 14.5 40.28125 
Q 14.5 37.15625 16.890625 35.375 
Q 19.28125 33.59375 26.515625 31.984375 
L 29.59375 31.296875 
Q 39.15625 29.25 43.1875 25.515625 
Q 47.21875 21.78125 47.21875 15.09375 
Q 47.21875 7.46875 41.1875 3.015625 
Q 35.15625 -1.421875 24.609375 -1.421875 
Q 20.21875 -1.421875 15.453125 -0.5625 
Q 10.6875 0.296875 5.421875 2 
L 5.421875 11.28125 
Q 10.40625 8.6875 15.234375 7.390625 
Q 20.0625 6.109375 24.8125 6.109375 
Q 31.15625 6.109375 34.5625 8.28125 
Q 37.984375 10.453125 37.984375 14.40625 
Q 37.984375 18.0625 35.515625 20.015625 
Q 33.0625 21.96875 24.703125 23.78125 
L 21.578125 24.515625 
Q 13.234375 26.265625 9.515625 29.90625 
Q 5.8125 33.546875 5.8125 39.890625 
Q 5.8125 47.609375 11.28125 51.796875 
Q 16.75 56 26.8125 56 
Q 31.78125 56 36.171875 55.265625 
Q 40.578125 54.546875 44.28125 53.078125 
z
" id="DejaVuSans-115"/>
       <path d="M 18.3125 70.21875 
L 18.3125 54.6875 
L 36.8125 54.6875 
L 36.8125 47.703125 
L 18.3125 47.703125 
L 18.3125 18.015625 
Q 18.3125 11.328125 20.140625 9.421875 
Q 21.96875 7.515625 27.59375 7.515625 
L 36.8125 7.515625 
L 36.8125 0 
L 27.59375 0 
Q 17.1875 0 13.234375 3.875 
Q 9.28125 7.765625 9.28125 18.015625 
L 9.28125 47.703125 
L 2.6875 47.703125 
L 2.6875 54.6875 
L 9.28125 54.6875 
L 9.28125 70.21875 
z
" id="DejaVuSans-116"/>
       <path d="M 34.28125 27.484375 
Q 23.390625 27.484375 19.1875 25 
Q 14.984375 22.515625 14.984375 16.5 
Q 14.984375 11.71875 18.140625 8.90625 
Q 21.296875 6.109375 26.703125 6.109375 
Q 34.1875 6.109375 38.703125 11.40625 
Q 43.21875 16.703125 43.21875 25.484375 
L 43.21875 27.484375 
z
M 52.203125 31.203125 
L 52.203125 0 
L 43.21875 0 
L 43.21875 8.296875 
Q 40.140625 3.328125 35.546875 0.953125 
Q 30.953125 -1.421875 24.3125 -1.421875 
Q 15.921875 -1.421875 10.953125 3.296875 
Q 6 8.015625 6 15.921875 
Q 6 25.140625 12.171875 29.828125 
Q 18.359375 34.515625 30.609375 34.515625 
L 43.21875 34.515625 
L 43.21875 35.40625 
Q 43.21875 41.609375 39.140625 45 
Q 35.0625 48.390625 27.6875 48.390625 
Q 23 48.390625 18.546875 47.265625 
Q 14.109375 46.140625 10.015625 43.890625 
L 10.015625 52.203125 
Q 14.9375 54.109375 19.578125 55.046875 
Q 24.21875 56 28.609375 56 
Q 40.484375 56 46.34375 49.84375 
Q 52.203125 43.703125 52.203125 31.203125 
z
" id="DejaVuSans-97"/>
       <path d="M 18.109375 8.203125 
L 18.109375 -20.796875 
L 9.078125 -20.796875 
L 9.078125 54.6875 
L 18.109375 54.6875 
L 18.109375 46.390625 
Q 20.953125 51.265625 25.265625 53.625 
Q 29.59375 56 35.59375 56 
Q 45.5625 56 51.78125 48.09375 
Q 58.015625 40.1875 58.015625 27.296875 
Q 58.015625 14.40625 51.78125 6.484375 
Q 45.5625 -1.421875 35.59375 -1.421875 
Q 29.59375 -1.421875 25.265625 0.953125 
Q 20.953125 3.328125 18.109375 8.203125 
z
M 48.6875 27.296875 
Q 48.6875 37.203125 44.609375 42.84375 
Q 40.53125 48.484375 33.40625 48.484375 
Q 26.265625 48.484375 22.1875 42.84375 
Q 18.109375 37.203125 18.109375 27.296875 
Q 18.109375 17.390625 22.1875 11.75 
Q 26.265625 6.109375 33.40625 6.109375 
Q 40.53125 6.109375 44.609375 11.75 
Q 48.6875 17.390625 48.6875 27.296875 
z
" id="DejaVuSans-112"/>
      </defs>
      <use xlink:href="#DejaVuSans-84"/>
      <use x="57.958984" xlink:href="#DejaVuSans-105"/>
      <use x="85.742188" xlink:href="#DejaVuSans-109"/>
      <use x="183.154297" xlink:href="#DejaVuSans-101"/>
      <use x="244.677734" xlink:href="#DejaVuSans-115"/>
      <use x="296.777344" xlink:href="#DejaVuSans-116"/>
      <use x="335.986328" xlink:href="#DejaVuSans-97"/>
      <use x="397.265625" xlink:href="#DejaVuSans-109"/>
      <use x="494.677734" xlink:href="#DejaVuSans-112"/>
     </g>
    </g>
   </g>
   <g id="matplotlib.axis_2">
    <g id="ytick_1">
     <g id="line2d_9">
      <defs>
       <path d="M 0 0 
L -3.5 0 
" id="mb028d3d412" style="stroke:#000000;stroke-width:0.8;"/>
      </defs>
      <g>
       <use style="stroke:#000000;stroke-width:0.8;" x="108" xlink:href="#mb028d3d412" y="347.488502"/>
      </g>
     </g>
     <g id="text_10">
      <!-- 0 -->
      <g transform="translate(94.6375 351.28772)scale(0.1 -0.1)">
       <use xlink:href="#DejaVuSans-48"/>
      </g>
     </g>
    </g>
    <g id="ytick_2">
     <g id="line2d_10">
      <g>
       <use style="stroke:#000000;stroke-width:0.8;" x="108" xlink:href="#mb028d3d412" y="308.61212"/>
      </g>
     </g>
     <g id="text_11">
      <!-- 500 -->
      <g transform="translate(81.9125 312.411339)scale(0.1 -0.1)">
       <use xlink:href="#DejaVuSans-53"/>
       <use x="63.623047" xlink:href="#DejaVuSans-48"/>
       <use x="127.246094" xlink:href="#DejaVuSans-48"/>
      </g>
     </g>
    </g>
    <g id="ytick_3">
     <g id="line2d_11">
      <g>
       <use style="stroke:#000000;stroke-width:0.8;" x="108" xlink:href="#mb028d3d412" y="269.735738"/>
      </g>
     </g>
     <g id="text_12">
      <!-- 1000 -->
      <g transform="translate(75.55 273.534957)scale(0.1 -0.1)">
       <use xlink:href="#DejaVuSans-49"/>
       <use x="63.623047" xlink:href="#DejaVuSans-48"/>
       <use x="127.246094" xlink:href="#DejaVuSans-48"/>
       <use x="190.869141" xlink:href="#DejaVuSans-48"/>
      </g>
     </g>
    </g>
    <g id="ytick_4">
     <g id="line2d_12">
      <g>
       <use style="stroke:#000000;stroke-width:0.8;" x="108" xlink:href="#mb028d3d412" y="230.859356"/>
      </g>
     </g>
     <g id="text_13">
      <!-- 1500 -->
      <g transform="translate(75.55 234.658575)scale(0.1 -0.1)">
       <use xlink:href="#DejaVuSans-49"/>
       <use x="63.623047" xlink:href="#DejaVuSans-53"/>
       <use x="127.246094" xlink:href="#DejaVuSans-48"/>
       <use x="190.869141" xlink:href="#DejaVuSans-48"/>
      </g>
     </g>
    </g>
    <g id="ytick_5">
     <g id="line2d_13">
      <g>
       <use style="stroke:#000000;stroke-width:0.8;" x="108" xlink:href="#mb028d3d412" y="191.982974"/>
      </g>
     </g>
     <g id="text_14">
      <!-- 2000 -->
      <g transform="translate(75.55 195.782193)scale(0.1 -0.1)">
       <use xlink:href="#DejaVuSans-50"/>
       <use x="63.623047" xlink:href="#DejaVuSans-48"/>
       <use x="127.246094" xlink:href="#DejaVuSans-48"/>
       <use x="190.869141" xlink:href="#DejaVuSans-48"/>
      </g>
     </g>
    </g>
    <g id="ytick_6">
     <g id="line2d_14">
      <g>
       <use style="stroke:#000000;stroke-width:0.8;" x="108" xlink:href="#mb028d3d412" y="153.106592"/>
      </g>
     </g>
     <g id="text_15">
      <!-- 2500 -->
      <g transform="translate(75.55 156.905811)scale(0.1 -0.1)">
       <use xlink:href="#DejaVuSans-50"/>
       <use x="63.623047" xlink:href="#DejaVuSans-53"/>
       <use x="127.246094" xlink:href="#DejaVuSans-48"/>
       <use x="190.869141" xlink:href="#DejaVuSans-48"/>
      </g>
     </g>
    </g>
    <g id="ytick_7">
     <g id="line2d_15">
      <g>
       <use style="stroke:#000000;stroke-width:0.8;" x="108" xlink:href="#mb028d3d412" y="114.23021"/>
      </g>
     </g>
     <g id="text_16">
      <!-- 3000 -->
      <g transform="translate(75.55 118.029429)scale(0.1 -0.1)">
       <defs>
        <path d="M 40.578125 39.3125 
Q 47.65625 37.796875 51.625 33 
Q 55.609375 28.21875 55.609375 21.1875 
Q 55.609375 10.40625 48.1875 4.484375 
Q 40.765625 -1.421875 27.09375 -1.421875 
Q 22.515625 -1.421875 17.65625 -0.515625 
Q 12.796875 0.390625 7.625 2.203125 
L 7.625 11.71875 
Q 11.71875 9.328125 16.59375 8.109375 
Q 21.484375 6.890625 26.8125 6.890625 
Q 36.078125 6.890625 40.9375 10.546875 
Q 45.796875 14.203125 45.796875 21.1875 
Q 45.796875 27.640625 41.28125 31.265625 
Q 36.765625 34.90625 28.71875 34.90625 
L 20.21875 34.90625 
L 20.21875 43.015625 
L 29.109375 43.015625 
Q 36.375 43.015625 40.234375 45.921875 
Q 44.09375 48.828125 44.09375 54.296875 
Q 44.09375 59.90625 40.109375 62.90625 
Q 36.140625 65.921875 28.71875 65.921875 
Q 24.65625 65.921875 20.015625 65.03125 
Q 15.375 64.15625 9.8125 62.3125 
L 9.8125 71.09375 
Q 15.4375 72.65625 20.34375 73.4375 
Q 25.25 74.21875 29.59375 74.21875 
Q 40.828125 74.21875 47.359375 69.109375 
Q 53.90625 64.015625 53.90625 55.328125 
Q 53.90625 49.265625 50.4375 45.09375 
Q 46.96875 40.921875 40.578125 39.3125 
z
" id="DejaVuSans-51"/>
       </defs>
       <use xlink:href="#DejaVuSans-51"/>
       <use x="63.623047" xlink:href="#DejaVuSans-48"/>
       <use x="127.246094" xlink:href="#DejaVuSans-48"/>
       <use x="190.869141" xlink:href="#DejaVuSans-48"/>
      </g>
     </g>
    </g>
    <g id="ytick_8">
     <g id="line2d_16">
      <g>
       <use style="stroke:#000000;stroke-width:0.8;" x="108" xlink:href="#mb028d3d412" y="75.353828"/>
      </g>
     </g>
     <g id="text_17">
      <!-- 3500 -->
      <g transform="translate(75.55 79.153047)scale(0.1 -0.1)">
       <use xlink:href="#DejaVuSans-51"/>
       <use x="63.623047" xlink:href="#DejaVuSans-53"/>
       <use x="127.246094" xlink:href="#DejaVuSans-48"/>
       <use x="190.869141" xlink:href="#DejaVuSans-48"/>
      </g>
     </g>
    </g>
    <g id="text_18">
     <!-- Value -->
     <g transform="translate(69.470312 231.89125)rotate(-90)scale(0.1 -0.1)">
      <defs>
       <path d="M 28.609375 0 
L 0.78125 72.90625 
L 11.078125 72.90625 
L 34.1875 11.53125 
L 57.328125 72.90625 
L 67.578125 72.90625 
L 39.796875 0 
z
" id="DejaVuSans-86"/>
       <path d="M 9.421875 75.984375 
L 18.40625 75.984375 
L 18.40625 0 
L 9.421875 0 
z
" id="DejaVuSans-108"/>
       <path d="M 8.5 21.578125 
L 8.5 54.6875 
L 17.484375 54.6875 
L 17.484375 21.921875 
Q 17.484375 14.15625 20.5 10.265625 
Q 23.53125 6.390625 29.59375 6.390625 
Q 36.859375 6.390625 41.078125 11.03125 
Q 45.3125 15.671875 45.3125 23.6875 
L 45.3125 54.6875 
L 54.296875 54.6875 
L 54.296875 0 
L 45.3125 0 
L 45.3125 8.40625 
Q 42.046875 3.421875 37.71875 1 
Q 33.40625 -1.421875 27.6875 -1.421875 
Q 18.265625 -1.421875 13.375 4.4375 
Q 8.5 10.296875 8.5 21.578125 
z
M 31.109375 56 
z
" id="DejaVuSans-117"/>
      </defs>
      <use xlink:href="#DejaVuSans-86"/>
      <use x="60.658203" xlink:href="#DejaVuSans-97"/>
      <use x="121.9375" xlink:href="#DejaVuSans-108"/>
      <use x="149.720703" xlink:href="#DejaVuSans-117"/>
      <use x="213.099609" xlink:href="#DejaVuSans-101"/>
     </g>
    </g>
   </g>
   <g id="line2d_17">
    <path clip-path="url(#pee44d1b45c)" d="M 138.436364 347.259332 
L 139.523377 319.945772 
L 139.885714 319.823447 
L 140.61039 330.958557 
L 141.335065 346.514153 
L 142.05974 350.922355 
L 142.422078 348.080193 
L 142.784416 342.816097 
L 143.146753 335.729542 
L 143.509091 337.484739 
L 143.871429 338.259892 
L 144.233766 336.879583 
L 144.596104 348.187997 
L 145.320779 361.206562 
L 145.683117 363.140961 
L 146.045455 369.36 
L 146.407792 364.989041 
L 146.77013 351.230252 
L 147.132468 342.122135 
L 147.494805 326.148355 
L 147.857143 323.215868 
L 148.219481 314.801697 
L 148.581818 314.005468 
L 148.944156 320.712472 
L 149.306494 324.683186 
L 150.031169 341.256959 
L 150.393506 346.078543 
L 150.755844 342.295081 
L 151.118182 340.092097 
L 151.480519 335.945298 
L 151.842857 334.247657 
L 152.205195 328.360745 
L 152.567532 329.410529 
L 152.92987 332.953194 
L 154.016883 357.377921 
L 154.379221 361.288213 
L 154.741558 359.772164 
L 155.103896 357.708747 
L 155.828571 337.396399 
L 156.190909 327.169776 
L 156.553247 313.647538 
L 156.915584 310.407786 
L 157.277922 310.769029 
L 157.64026 313.335044 
L 158.002597 320.038996 
L 158.364935 333.336433 
L 158.727273 336.858753 
L 159.08961 343.189882 
L 159.451948 340.214423 
L 159.814286 340.087073 
L 160.176623 335.73353 
L 160.901299 323.920449 
L 161.263636 326.105335 
L 161.988312 337.49815 
L 162.350649 349.927661 
L 162.712987 357.058862 
L 163.075325 357.364929 
L 163.437662 360.126223 
L 163.8 358.313735 
L 164.887013 322.628761 
L 165.611688 303.467874 
L 165.974026 313.318919 
L 166.336364 315.072198 
L 166.698701 324.270227 
L 167.061039 328.124635 
L 167.423377 338.853511 
L 167.785714 341.709124 
L 168.148052 343.177719 
L 168.51039 336.785568 
L 168.872727 336.678004 
L 169.235065 329.042357 
L 169.597403 324.367185 
L 170.322078 332.020233 
L 171.771429 360.673998 
L 172.496104 355.875656 
L 173.220779 335.930426 
L 173.583117 358.697464 
L 173.945455 314.850313 
L 174.307792 308.970614 
L 174.67013 312.246982 
L 175.032468 312.860817 
L 176.119481 336.458345 
L 176.481818 343.607061 
L 176.844156 340.414521 
L 177.206494 340.020558 
L 177.568831 335.488719 
L 177.931169 327.773587 
L 178.293506 328.994852 
L 178.655844 321.577621 
L 179.018182 327.448301 
L 179.742857 348.653402 
L 180.105195 352.555466 
L 180.467532 361.191206 
L 180.82987 360.380089 
L 181.192208 352.339973 
L 181.554545 348.015863 
L 182.279221 322.883762 
L 182.641558 312.490335 
L 183.003896 308.469546 
L 183.366234 310.209654 
L 183.728571 313.146772 
L 184.815584 334.173466 
L 185.177922 339.247324 
L 185.54026 338.700948 
L 186.264935 331.192149 
L 186.627273 330.564032 
L 186.98961 326.002771 
L 187.351948 324.7097 
L 187.714286 326.608101 
L 188.438961 341.087534 
L 188.801299 347.571347 
L 189.163636 357.278849 
L 189.525974 354.181949 
L 189.888312 353.178004 
L 190.612987 323.88767 
L 191.7 304.748757 
L 192.062338 301.119981 
L 192.787013 314.754482 
L 193.149351 323.685801 
L 193.511688 326.58651 
L 193.874026 328.416608 
L 194.236364 333.048673 
L 194.598701 330.002357 
L 195.323377 318.583461 
L 195.685714 319.791401 
L 196.048052 317.52153 
L 196.41039 317.976618 
L 196.772727 330.945252 
L 197.135065 336.424713 
L 197.497403 339.603864 
L 197.85974 351.35202 
L 198.584416 341.882804 
L 198.946753 331.138556 
L 199.309091 325.226123 
L 200.033766 298.250741 
L 200.396104 296.149359 
L 200.758442 296.290055 
L 201.120779 294.337788 
L 201.483117 306.705732 
L 201.845455 315.25386 
L 202.57013 320.095218 
L 202.932468 319.988212 
L 203.294805 323.445687 
L 203.657143 320.065664 
L 204.381818 309.306485 
L 204.744156 314.292795 
L 205.106494 314.383125 
L 205.468831 323.690767 
L 205.831169 328.15367 
L 206.193506 337.007046 
L 206.555844 337.901787 
L 206.918182 340.073426 
L 207.280519 336.290675 
L 207.642857 327.203785 
L 208.367532 300.397314 
L 209.092208 285.615509 
L 209.454545 290.896523 
L 209.816883 291.253287 
L 210.179221 297.836822 
L 210.541558 310.077011 
L 211.266234 316.513115 
L 211.628571 317.611863 
L 211.990909 311.974212 
L 212.353247 311.575795 
L 212.715584 306.504467 
L 213.077922 303.754731 
L 213.44026 306.52143 
L 213.802597 306.807622 
L 214.164935 314.761836 
L 214.527273 319.616807 
L 214.88961 330.429137 
L 215.251948 336.083013 
L 215.614286 333.823586 
L 215.976623 333.419027 
L 217.425974 284.890032 
L 217.788312 282.064926 
L 218.512987 288.62322 
L 218.875325 298.446666 
L 219.237662 304.618932 
L 219.6 313.968229 
L 219.962338 318.790485 
L 220.324675 315.278557 
L 221.049351 305.64703 
L 221.411688 304.670691 
L 221.774026 304.651835 
L 222.136364 301.944587 
L 222.498701 306.247685 
L 222.861039 315.697357 
L 223.948052 333.026672 
L 224.672727 327.758527 
L 225.397403 303.927632 
L 225.75974 258.70434 
L 226.122078 286.123555 
L 226.484416 279.947771 
L 226.846753 282.872434 
L 227.209091 286.729655 
L 227.571429 293.184748 
L 227.933766 305.967473 
L 228.658442 316.189464 
L 229.020779 317.44691 
L 229.383117 309.775813 
L 229.745455 307.506035 
L 230.107792 303.425152 
L 230.47013 297.017939 
L 230.832468 310.895253 
L 231.194805 304.391608 
L 232.281818 328.956466 
L 232.644156 333.403125 
L 233.006494 330.231499 
L 233.368831 332.096577 
L 233.731169 320.163118 
L 234.093506 312.000218 
L 234.455844 295.569413 
L 234.818182 290.179781 
L 235.180519 282.936094 
L 235.542857 284.83186 
L 236.62987 300.465542 
L 236.992208 309.302246 
L 237.354545 312.939835 
L 237.716883 320.584089 
L 238.079221 308.34709 
L 238.441558 310.789901 
L 238.803896 306.441082 
L 239.166234 299.341346 
L 239.890909 306.362906 
L 240.253247 315.675002 
L 240.615584 321.016189 
L 240.977922 322.786879 
L 241.34026 332.967477 
L 241.702597 331.680007 
L 242.78961 309.435618 
L 243.514286 286.672001 
L 243.876623 278.251378 
L 244.238961 283.444665 
L 244.601299 290.364748 
L 244.963636 293.342562 
L 245.325974 304.413848 
L 245.688312 311.584064 
L 246.050649 310.691587 
L 246.412987 311.396424 
L 246.775325 308.663651 
L 247.5 299.288062 
L 247.862338 297.021147 
L 248.224675 298.694792 
L 248.587013 298.726865 
L 248.949351 313.306492 
L 249.311688 317.538878 
L 249.674026 324.999691 
L 250.036364 328.463795 
L 250.398701 289.287806 
L 250.761039 322.089744 
L 251.485714 305.014881 
L 252.21039 278.386563 
L 252.572727 273.545557 
L 252.935065 281.932644 
L 253.297403 280.440458 
L 253.65974 286.044984 
L 254.384416 300.623903 
L 254.746753 306.939244 
L 255.109091 310.209511 
L 255.471429 303.630762 
L 255.833766 300.152104 
L 256.196104 298.214471 
L 256.558442 290.19395 
L 256.920779 292.478592 
L 257.283117 293.973202 
L 257.645455 304.424855 
L 258.007792 309.28944 
L 258.37013 317.215414 
L 258.732468 321.614172 
L 259.094805 322.425298 
L 259.819481 308.499282 
L 260.181818 253.60084 
L 260.544156 288.541443 
L 261.268831 265.983035 
L 261.631169 267.315371 
L 261.993506 276.158447 
L 262.355844 279.973356 
L 262.718182 291.707317 
L 263.080519 297.680196 
L 263.442857 298.057386 
L 263.805195 297.741476 
L 264.167532 294.615002 
L 264.52987 289.615492 
L 264.892208 286.474996 
L 265.254545 286.856059 
L 265.616883 282.804722 
L 265.979221 289.079028 
L 266.341558 290.996989 
L 266.703896 298.495576 
L 267.066234 309.042938 
L 267.428571 314.63561 
L 267.790909 310.308533 
L 268.153247 311.072004 
L 268.515584 301.411208 
L 269.24026 271.990607 
L 269.602597 266.617541 
L 269.964935 264.463666 
L 270.327273 260.90188 
L 271.776623 289.229439 
L 272.138961 289.979894 
L 272.501299 294.045271 
L 272.863636 289.661445 
L 273.225974 281.965839 
L 273.588312 279.182492 
L 273.950649 271.528313 
L 274.675325 279.362049 
L 275.037662 292.040239 
L 275.4 297.278402 
L 275.762338 309.09483 
L 276.124675 307.532123 
L 276.487013 311.665327 
L 277.211688 293.536187 
L 277.936364 269.067419 
L 278.661039 258.242353 
L 279.023377 260.079973 
L 279.385714 263.928372 
L 279.748052 270.837235 
L 280.11039 279.90404 
L 280.472727 282.189677 
L 280.835065 288.63269 
L 281.197403 289.674534 
L 281.922078 282.204715 
L 282.284416 276.665413 
L 282.646753 274.218325 
L 283.009091 275.392696 
L 283.371429 277.160898 
L 283.733766 285.602431 
L 284.096104 291.134374 
L 284.458442 302.170562 
L 284.820779 304.234261 
L 285.183117 302.315296 
L 285.545455 302.424574 
L 285.907792 293.355346 
L 286.632468 268.42704 
L 286.994805 263.899972 
L 287.357143 255.650697 
L 287.719481 253.225745 
L 288.081818 264.275478 
L 288.444156 270.133554 
L 288.806494 283.792568 
L 289.168831 282.765642 
L 289.531169 290.474314 
L 290.255844 288.951697 
L 290.980519 277.130776 
L 291.342857 277.318719 
L 291.705195 274.979043 
L 292.067532 278.612206 
L 292.42987 291.565139 
L 292.792208 293.820401 
L 293.516883 307.253493 
L 293.879221 305.960907 
L 294.241558 301.689897 
L 295.328571 268.35642 
L 295.690909 266.446754 
L 296.053247 260.129265 
L 296.415584 263.447504 
L 296.777922 258.974319 
L 297.864935 282.658681 
L 298.227273 286.14811 
L 298.58961 287.736684 
L 298.951948 286.768571 
L 299.314286 277.8521 
L 299.676623 278.5766 
L 300.038961 272.987365 
L 300.401299 272.939733 
L 301.125974 282.648373 
L 301.850649 304.040432 
L 302.212987 306.369345 
L 302.575325 306.029926 
L 303.3 294.624781 
L 304.024675 268.673086 
L 304.749351 255.615884 
L 305.111688 259.326288 
L 305.474026 256.74802 
L 305.836364 268.338677 
L 306.561039 279.258054 
L 306.923377 289.3954 
L 308.01039 277.380105 
L 308.735065 270.985612 
L 309.097403 273.18638 
L 309.45974 278.68997 
L 309.822078 280.804653 
L 310.546753 296.407471 
L 310.909091 302.09877 
L 311.271429 302.350073 
L 311.633766 298.143273 
L 311.996104 288.88979 
L 313.083117 253.601185 
L 313.445455 251.878278 
L 313.807792 251.072819 
L 314.17013 259.355472 
L 314.532468 261.454069 
L 315.257143 279.649738 
L 315.619481 280.014701 
L 315.981818 278.289292 
L 316.344156 281.596274 
L 316.706494 276.042971 
L 317.068831 267.962301 
L 317.431169 262.915922 
L 317.793506 264.739676 
L 318.155844 271.798624 
L 318.518182 275.820522 
L 319.242857 291.08439 
L 319.605195 295.914036 
L 319.967532 294.696336 
L 320.32987 291.658189 
L 320.692208 283.357833 
L 321.054545 267.665432 
L 321.779221 247.023349 
L 322.141558 242.194833 
L 322.503896 242.206609 
L 322.866234 249.665852 
L 323.228571 253.772459 
L 323.953247 269.184512 
L 324.315584 269.867119 
L 324.677922 275.76476 
L 325.04026 267.909829 
L 325.402597 265.716974 
L 325.764935 259.990168 
L 326.127273 257.11882 
L 326.48961 256.764493 
L 326.851948 259.706192 
L 327.214286 265.101009 
L 327.938961 286.042129 
L 328.301299 284.789557 
L 328.663636 288.491844 
L 329.388312 270.961765 
L 330.112987 251.98459 
L 330.475325 242.847671 
L 331.2 234.027893 
L 331.924675 249.567883 
L 332.287013 252.081716 
L 333.011688 266.34539 
L 333.374026 268.62464 
L 333.736364 259.422223 
L 334.098701 258.234619 
L 334.461039 256.30443 
L 334.823377 252.09924 
L 335.185714 251.863421 
L 335.548052 252.898102 
L 336.272727 272.800044 
L 336.635065 276.468651 
L 336.997403 278.732407 
L 337.35974 283.695529 
L 338.446753 258.146985 
L 338.809091 246.120971 
L 339.533766 231.775541 
L 339.896104 231.198894 
L 341.345455 255.891021 
L 341.707792 259.205856 
L 342.07013 264.570565 
L 342.432468 256.026713 
L 342.794805 253.544746 
L 343.157143 252.929408 
L 343.519481 251.400691 
L 343.881818 251.145717 
L 344.244156 251.299019 
L 344.968831 267.944324 
L 345.693506 280.647052 
L 346.055844 283.81496 
L 347.505195 246.330487 
L 347.867532 234.353911 
L 348.22987 231.841855 
L 348.592208 227.854573 
L 350.041558 259.932292 
L 350.403896 262.656107 
L 351.128571 258.981101 
L 351.490909 257.952484 
L 351.853247 252.041633 
L 352.215584 248.53964 
L 352.577922 252.839558 
L 352.94026 250.023215 
L 353.302597 258.530249 
L 353.664935 270.646719 
L 354.38961 282.286257 
L 355.114286 275.487726 
L 355.476623 268.256704 
L 355.838961 252.941388 
L 356.201299 245.570405 
L 356.563636 233.714896 
L 356.925974 232.303915 
L 357.288312 235.151493 
L 357.650649 235.976789 
L 358.012987 245.465668 
L 359.1 261.901483 
L 359.462338 261.432447 
L 359.824675 260.054248 
L 360.187013 256.846221 
L 360.549351 245.069039 
L 360.911688 247.693818 
L 361.274026 245.607624 
L 361.636364 251.601005 
L 361.998701 262.636157 
L 362.723377 274.055196 
L 363.085714 284.642665 
L 363.448052 281.88671 
L 363.81039 277.407576 
L 364.172727 268.184946 
L 364.535065 253.174529 
L 364.897403 250.384938 
L 365.25974 234.440348 
L 365.622078 227.831553 
L 365.984416 229.658039 
L 366.346753 228.757298 
L 366.709091 244.263578 
L 367.071429 252.357896 
L 367.796104 260.612865 
L 368.158442 256.610033 
L 368.520779 258.631313 
L 368.883117 251.824213 
L 369.245455 248.906749 
L 369.607792 244.787794 
L 370.332468 249.86081 
L 371.419481 271.098869 
L 371.781818 274.483433 
L 372.144156 275.479429 
L 372.506494 275.055753 
L 373.955844 225.546757 
L 374.318182 228.234619 
L 374.680519 226.358865 
L 375.042857 225.674241 
L 375.767532 245.130449 
L 376.12987 250.697964 
L 376.492208 254.252996 
L 376.854545 254.643876 
L 377.216883 251.335481 
L 377.579221 244.27942 
L 377.941558 241.415482 
L 378.303896 241.775641 
L 378.666234 239.679615 
L 379.028571 244.746213 
L 379.390909 252.369826 
L 379.753247 257.624026 
L 380.477922 270.075332 
L 380.84026 269.38318 
L 381.202597 265.905872 
L 381.564935 256.664425 
L 381.927273 240.568456 
L 383.014286 215.810875 
L 383.376623 216.107189 
L 383.738961 222.360122 
L 384.101299 226.409435 
L 384.463636 232.201913 
L 384.825974 242.538179 
L 385.188312 248.812823 
L 385.550649 249.369967 
L 385.912987 243.202858 
L 386.275325 242.852238 
L 386.637662 237.472332 
L 387 225.87293 
L 387.362338 227.26583 
L 388.811688 256.67528 
L 389.174026 261.415218 
L 389.536364 262.84444 
L 390.261039 246.744922 
L 390.623377 230.903241 
L 390.985714 224.008938 
L 391.348052 212.044033 
L 391.71039 210.788521 
L 392.072727 208.857581 
L 392.435065 209.017572 
L 392.797403 224.214795 
L 393.15974 230.125822 
L 393.884416 237.682962 
L 394.246753 234.784064 
L 394.609091 238.11374 
L 394.971429 228.186911 
L 395.333766 226.225823 
L 395.696104 225.42817 
L 396.058442 226.547519 
L 397.145455 242.20404 
L 397.507792 253.593274 
L 397.87013 255.882133 
L 398.232468 252.216514 
L 398.594805 252.017461 
L 398.957143 242.955377 
L 399.681818 218.35855 
L 400.044156 212.476387 
L 400.406494 247.80949 
L 400.768831 202.827174 
L 401.131169 213.623815 
L 401.493506 218.041602 
L 401.855844 226.297369 
L 402.580519 234.985661 
L 402.942857 239.56532 
L 403.305195 231.836868 
L 403.667532 229.403682 
L 404.02987 225.925897 
L 404.392208 217.594 
L 404.754545 219.872595 
L 405.479221 232.201314 
L 406.203896 255.040246 
L 406.566234 255.129154 
L 406.928571 253.926684 
L 407.290909 250.028308 
L 407.653247 237.471053 
L 408.015584 230.853282 
L 408.74026 210.898014 
L 409.102597 205.583817 
L 409.827273 209.726768 
L 410.18961 213.352221 
L 410.551948 225.491478 
L 410.914286 226.787705 
L 411.276623 232.452634 
L 411.638961 231.251802 
L 412.001299 231.586896 
L 412.363636 224.90806 
L 412.725974 220.985283 
L 413.088312 220.224347 
L 413.450649 222.702982 
L 413.812987 227.140765 
L 414.537662 243.808055 
L 415.262338 250.881338 
L 415.624675 258.126388 
L 415.987013 251.881266 
L 416.711688 229.768364 
L 417.436364 207.977232 
L 417.798701 206.029653 
L 418.161039 206.289896 
L 418.523377 213.46636 
L 418.885714 214.689125 
L 419.972727 236.663179 
L 420.335065 237.449702 
L 420.697403 233.056942 
L 421.05974 230.542664 
L 421.422078 224.775679 
L 421.784416 225.485139 
L 422.146753 224.126727 
L 422.509091 227.509021 
L 423.233766 240.204186 
L 423.596104 251.131021 
L 423.958442 214.387766 
L 424.320779 251.437551 
L 424.683117 250.752253 
L 425.407792 226.372007 
L 425.77013 221.646807 
L 426.494805 203.735777 
L 426.857143 203.288995 
L 427.219481 208.66466 
L 427.944156 223.47247 
L 428.306494 192.979515 
L 428.668831 232.811959 
L 429.031169 235.853977 
L 429.393506 232.771433 
L 430.118182 225.082054 
L 430.480519 216.769845 
L 430.842857 219.432847 
L 431.205195 227.078643 
L 431.567532 232.242777 
L 432.292208 248.626995 
L 433.016883 253.869554 
L 434.103896 226.362752 
L 434.466234 207.158935 
L 434.828571 204.24384 
L 435.190909 198.549464 
L 435.553247 199.378015 
L 435.915584 203.582818 
L 436.64026 214.082048 
L 437.002597 226.439835 
L 437.364935 230.39801 
L 437.727273 227.283765 
L 438.08961 226.819422 
L 438.451948 222.540339 
L 438.814286 214.861048 
L 439.176623 213.102131 
L 439.538961 212.278855 
L 439.901299 213.173777 
L 440.263636 224.950643 
L 440.988312 240.359286 
L 441.350649 243.029156 
L 441.712987 243.057664 
L 442.075325 194.387759 
L 442.437662 231.114306 
L 443.162338 205.649777 
L 443.887013 192.005487 
L 444.249351 191.295134 
L 444.611688 191.341994 
L 445.336364 206.091277 
L 445.698701 218.038365 
L 446.061039 222.091343 
L 446.423377 218.739961 
L 446.785714 219.139083 
L 447.148052 211.595403 
L 447.51039 208.23106 
L 447.872727 206.051567 
L 448.235065 205.057743 
L 448.597403 203.341715 
L 448.95974 216.341791 
L 449.322078 222.133338 
L 449.684416 230.320235 
L 450.046753 232.944508 
L 450.409091 232.804222 
L 450.771429 229.535928 
L 451.858442 199.118327 
L 452.583117 178.242423 
L 452.945455 184.762551 
L 453.307792 185.618669 
L 454.032468 202.966401 
L 454.394805 209.32686 
L 454.757143 212.558548 
L 455.119481 214.561033 
L 455.481818 211.11712 
L 456.206494 199.556367 
L 456.568831 198.530225 
L 457.293506 204.92226 
L 458.018182 221.124549 
L 459.105195 228.405935 
L 459.467532 226.306671 
L 459.82987 212.911331 
L 460.192208 206.249057 
L 460.554545 192.808363 
L 460.916883 184.878985 
L 461.279221 183.690598 
L 461.641558 177.005979 
L 462.366234 195.269205 
L 462.728571 198.856076 
L 463.453247 212.975021 
L 464.177922 202.352946 
L 464.54026 203.918086 
L 465.627273 197.807081 
L 466.351948 207.00363 
L 467.076623 224.298162 
L 467.438961 227.049735 
L 467.801299 231.312526 
L 468.525974 218.977359 
L 468.888312 201.587111 
L 469.612987 183.78085 
L 469.975325 180.769842 
L 470.337662 174.956048 
L 470.7 185.86494 
L 471.062338 185.480785 
L 471.424675 199.972409 
L 471.787013 201.498446 
L 472.149351 211.118733 
L 472.511688 212.040423 
L 472.874026 211.961155 
L 473.236364 200.985847 
L 473.598701 199.083069 
L 473.961039 192.634351 
L 474.323377 195.776045 
L 474.685714 200.631784 
L 475.048052 211.143307 
L 475.41039 213.116356 
L 476.135065 231.202789 
L 476.497403 232.602111 
L 476.85974 222.721459 
L 477.222078 215.876985 
L 477.584416 200.369285 
L 477.946753 195.267974 
L 478.309091 184.825527 
L 478.671429 178.989068 
L 479.033766 177.948359 
L 479.396104 187.621068 
L 479.758442 194.172391 
L 480.120779 197.132478 
L 480.483117 206.013208 
L 480.845455 206.127369 
L 481.207792 208.782409 
L 481.57013 204.16141 
L 481.932468 204.745007 
L 482.294805 199.144703 
L 482.657143 196.458298 
L 483.381818 200.557271 
L 484.106494 215.517847 
L 484.468831 223.794397 
L 484.831169 226.596604 
L 485.193506 225.094166 
L 485.555844 226.748235 
L 485.918182 213.461937 
L 486.280519 205.005778 
L 486.642857 187.508269 
L 487.367532 176.457124 
L 487.72987 180.695879 
L 488.092208 179.477081 
L 488.454545 191.140439 
L 488.816883 192.36007 
L 489.179221 202.874468 
L 489.541558 207.237731 
L 489.903896 208.12302 
L 490.266234 200.611662 
L 490.628571 200.125901 
L 490.990909 196.397715 
L 491.353247 195.601937 
L 491.715584 232.584407 
L 492.077922 195.16979 
L 492.802597 213.863686 
L 493.164935 220.81422 
L 493.527273 223.858669 
L 493.88961 221.916511 
L 494.251948 222.930563 
L 495.338961 182.777629 
L 496.063636 171.33991 
L 496.425974 172.648923 
L 496.788312 176.109272 
L 497.150649 181.589107 
L 497.512987 192.112537 
L 497.875325 196.878901 
L 498.237662 199.845272 
L 498.6 201.635695 
L 498.962338 198.780145 
L 499.324675 193.672855 
L 499.687013 193.578538 
L 500.049351 184.04702 
L 500.411688 191.122981 
L 500.774026 190.334098 
L 501.498701 205.255392 
L 501.861039 210.53306 
L 502.223377 220.016794 
L 502.585714 218.978032 
L 503.31039 204.014363 
L 503.672727 191.366122 
L 504.035065 174.805668 
L 504.397403 170.317873 
L 504.75974 163.038816 
L 505.484416 166.957627 
L 505.846753 178.048306 
L 506.571429 188.01245 
L 506.933766 197.330465 
L 507.296104 199.349826 
L 507.658442 189.116123 
L 508.020779 191.051778 
L 508.745455 175.467287 
L 509.107792 175.679814 
L 509.832468 187.038966 
L 510.194805 196.716327 
L 510.557143 201.520787 
L 510.919481 209.597181 
L 511.281818 206.150021 
L 511.644156 205.307773 
L 512.731169 171.505603 
L 513.093506 162.610034 
L 513.455844 159.115213 
L 513.818182 157.89271 
L 514.180519 160.56581 
L 514.542857 167.063311 
L 515.267532 184.715304 
L 515.62987 187.875643 
L 515.992208 184.900946 
L 516.354545 185.957411 
L 517.079221 176.352998 
L 517.441558 174.671382 
L 517.803896 175.142641 
L 518.166234 177.413151 
L 519.615584 204.57156 
L 519.977922 206.484246 
L 520.702597 193.170912 
L 521.427273 163.216583 
L 521.78961 162.067046 
L 522.151948 154.989491 
L 522.514286 151.99634 
L 522.876623 158.502663 
L 523.238961 162.754061 
L 523.963636 184.632029 
L 524.325974 185.102857 
L 524.688312 181.980929 
L 525.050649 143.52076 
L 525.412987 175.806801 
L 525.775325 174.670938 
L 526.137662 172.225827 
L 526.5 173.216356 
L 526.862338 175.033117 
L 527.224675 183.532849 
L 527.587013 188.599228 
L 527.949351 199.116219 
L 528.311688 204.913032 
L 528.674026 202.847337 
L 529.398701 191.100856 
L 529.761039 174.173252 
L 530.123377 169.700055 
L 530.485714 159.601595 
L 530.848052 154.1529 
L 531.21039 154.119165 
L 531.572727 159.07848 
L 532.297403 173.57641 
L 532.65974 182.344307 
L 533.022078 182.065429 
L 533.384416 187.95408 
L 533.746753 177.660327 
L 534.109091 173.246534 
L 534.471429 176.712798 
L 534.833766 170.502817 
L 535.196104 171.619455 
L 535.558442 173.267286 
L 536.283117 189.619035 
L 536.645455 199.69399 
L 537.007792 200.838984 
L 537.37013 204.402137 
L 538.094805 190.606137 
L 538.457143 175.762583 
L 538.819481 168.915442 
L 539.181818 157.60146 
L 539.544156 153.564958 
L 539.906494 150.988982 
L 540.268831 155.620215 
L 540.631169 165.064759 
L 540.993506 170.1589 
L 541.355844 179.578877 
L 541.718182 182.525961 
L 542.080519 184.088541 
L 542.442857 186.273561 
L 542.805195 178.533982 
L 543.52987 168.828963 
L 543.892208 171.74235 
L 544.254545 173.412565 
L 544.979221 189.926841 
L 545.341558 196.209287 
L 545.703896 198.989984 
L 546.066234 196.892689 
L 546.428571 199.66048 
L 547.515584 168.344833 
L 547.877922 160.41553 
L 548.24026 149.572412 
L 548.602597 154.707958 
L 548.964935 156.64924 
L 549.327273 161.009152 
L 549.68961 168.089436 
L 550.051948 172.836929 
L 550.414286 180.436245 
L 550.776623 185.003627 
L 551.138961 177.987782 
L 551.501299 173.927477 
L 552.225974 169.170314 
L 552.588312 166.761498 
L 553.675325 187.192777 
L 554.037662 195.018269 
L 554.4 199.563129 
L 554.762338 198.713777 
L 555.487013 186.059642 
L 555.849351 170.80472 
L 556.936364 148.10907 
L 557.298701 147.974455 
L 557.661039 148.512677 
L 558.023377 160.111044 
L 558.385714 167.90807 
L 558.748052 172.227139 
L 559.11039 172.880512 
L 559.472727 175.174516 
L 559.835065 174.876482 
L 560.922078 160.500485 
L 561.284416 163.415665 
L 561.646753 167.258163 
L 562.009091 213.31145 
L 562.371429 181.262983 
L 562.733766 188.278823 
L 563.096104 192.553447 
L 563.458442 188.149242 
L 563.820779 182.124156 
L 564.183117 179.092633 
L 565.27013 145.103839 
L 565.632468 137.631288 
L 565.994805 140.6735 
L 566.357143 141.015536 
L 566.719481 149.028671 
L 567.081818 154.133999 
L 567.444156 163.270687 
L 568.168831 169.491289 
L 568.531169 166.886061 
L 568.893506 160.379892 
L 569.255844 158.71925 
L 569.618182 149.925937 
L 569.980519 153.952977 
L 570.342857 154.149782 
L 570.705195 165.137263 
L 571.42987 175.487314 
L 571.792208 185.702053 
L 572.154545 181.997914 
L 572.879221 167.577398 
L 573.603896 143.413175 
L 573.966234 138.04589 
L 574.328571 130.949448 
L 574.690909 129.96544 
L 575.053247 135.437722 
L 575.777922 152.266232 
L 576.502597 160.28283 
L 576.864935 163.215845 
L 577.951948 148.810615 
L 578.314286 147.495395 
L 578.676623 145.63972 
L 579.038961 146.937305 
L 580.125974 174.531199 
L 580.488312 178.102255 
L 580.850649 178.485091 
L 581.575325 163.468029 
L 582.662338 128.920508 
L 583.024675 126.537746 
L 583.387013 127.845713 
L 583.749351 130.148958 
L 585.198701 158.736499 
L 585.561039 158.037176 
L 585.923377 155.953632 
L 586.648052 142.612765 
L 587.01039 141.102504 
L 587.735065 147.931316 
L 588.097403 157.76586 
L 588.45974 160.91995 
L 588.822078 173.865491 
L 589.184416 180.891143 
L 589.546753 176.383861 
L 589.909091 169.16636 
L 590.271429 157.031136 
L 590.633766 154.297689 
L 591.358442 128.106775 
L 591.720779 124.73379 
L 592.083117 124.502873 
L 592.807792 135.663542 
L 593.532468 153.917893 
L 593.894805 156.497157 
L 594.257143 157.788507 
L 594.619481 152.8004 
L 595.344156 147.832001 
L 595.706494 146.633595 
L 596.068831 147.354431 
L 596.431169 148.690831 
L 597.880519 176.190514 
L 598.242857 177.617276 
L 598.605195 173.11619 
L 599.32987 151.263536 
L 599.692208 139.642214 
L 600.054545 134.42124 
L 600.416883 126.842428 
L 600.779221 122.740834 
L 601.503896 140.742421 
L 601.866234 144.34388 
L 602.228571 154.86899 
L 602.590909 155.795636 
L 602.953247 154.255994 
L 603.315584 155.361884 
L 603.677922 151.156234 
L 604.04026 144.121072 
L 604.402597 141.918216 
L 604.764935 144.138833 
L 605.127273 152.352548 
L 605.48961 154.305407 
L 605.851948 162.501142 
L 606.214286 174.444479 
L 606.576623 173.528513 
L 606.938961 174.347539 
L 607.301299 171.621877 
L 608.750649 127.642656 
L 609.112987 128.124277 
L 609.475325 127.279586 
L 609.837662 127.820619 
L 610.2 139.159742 
L 610.562338 144.627865 
L 610.924675 153.459065 
L 611.287013 159.530653 
L 611.649351 158.63265 
L 612.011688 152.397573 
L 612.374026 142.975789 
L 612.736364 142.942801 
L 613.098701 141.168642 
L 613.461039 140.853977 
L 613.823377 144.923987 
L 614.185714 154.683984 
L 614.548052 158.342893 
L 614.91039 166.013271 
L 615.635065 172.766365 
L 615.997403 165.392578 
L 617.446753 124.757822 
L 617.809091 124.723963 
L 618.171429 122.264795 
L 618.533766 124.510984 
L 618.896104 128.93456 
L 619.258442 138.226272 
L 619.620779 142.673538 
L 619.983117 148.513971 
L 620.345455 146.594362 
L 620.707792 150.344475 
L 621.432468 133.552774 
L 621.794805 131.037709 
L 622.519481 140.278279 
L 622.881818 139.370345 
L 623.244156 155.776578 
L 623.968831 167.728551 
L 624.331169 164.531174 
L 624.693506 158.586216 
L 625.055844 149.992879 
L 625.780519 127.338145 
L 626.867532 109.904715 
L 627.22987 116.069242 
L 627.592208 125.980313 
L 627.954545 129.59752 
L 628.679221 144.136001 
L 629.041558 144.804026 
L 629.766234 131.020827 
L 630.490909 126.601161 
L 631.215584 128.453911 
L 631.94026 145.492423 
L 632.302597 154.0362 
L 632.664935 157.318125 
L 633.027273 155.339219 
L 633.38961 151.722282 
L 633.751948 139.908419 
L 634.114286 132.127336 
L 634.476623 117.956527 
L 634.838961 108.267366 
L 635.201299 107.791565 
L 635.563636 103.473691 
L 636.650649 122.999132 
L 637.012987 133.910933 
L 637.375325 135.96496 
L 637.737662 134.260078 
L 638.462338 129.304897 
L 638.824675 122.826034 
L 639.187013 123.320331 
L 639.549351 121.992937 
L 639.911688 124.939995 
L 640.636364 135.61779 
L 640.998701 148.275166 
L 641.361039 148.81427 
L 641.723377 148.491419 
L 642.085714 146.819156 
L 642.448052 138.075038 
L 643.535065 105.017285 
L 644.25974 98.478262 
L 644.984416 114.150311 
L 645.346753 118.777057 
L 646.071429 136.567634 
L 647.158442 127.723297 
L 647.520779 118.578311 
L 647.883117 116.560874 
L 648.245455 120.752968 
L 648.607792 123.636729 
L 648.97013 127.713248 
L 649.332468 141.058016 
L 649.694805 141.863505 
L 650.057143 151.348473 
L 650.419481 150.295194 
L 651.144156 135.278296 
L 651.506494 126.720784 
L 652.231169 104.896494 
L 652.593506 104.915394 
L 652.955844 98.290667 
L 654.767532 131.634605 
L 655.12987 131.418727 
L 655.492208 132.384667 
L 655.854545 124.722918 
L 656.216883 122.750886 
L 656.579221 159.974706 
L 656.941558 120.933693 
L 657.303896 126.179965 
L 657.666234 133.670074 
L 658.028571 135.576944 
L 658.753247 151.523865 
L 659.115584 151.352159 
L 659.84026 138.542417 
L 660.564935 114.833205 
L 660.927273 105.887041 
L 661.28961 99.933095 
L 661.651948 98.914096 
L 662.014286 102.765116 
L 662.376623 113.321041 
L 662.738961 118.331388 
L 663.101299 128.762046 
L 663.463636 133.308357 
L 663.825974 131.71732 
L 664.188312 132.832709 
L 664.550649 125.03439 
L 664.912987 124.186573 
L 665.275325 118.535857 
L 665.637662 119.577129 
L 666 122.497767 
L 666.362338 129.111287 
L 666.724675 141.873637 
L 667.087013 146.901044 
L 667.449351 148.915173 
L 667.811688 148.085567 
L 668.174026 145.32863 
L 668.898701 127.165969 
L 669.261039 110.743616 
L 669.985714 98.515608 
L 670.348052 97.70428 
L 671.072727 113.612489 
L 671.435065 117.272532 
L 671.797403 89.671242 
L 672.15974 130.572567 
L 672.522078 127.14294 
L 672.884416 126.623148 
L 673.609091 120.550575 
L 673.971429 114.277307 
L 674.333766 115.742938 
L 674.696104 116.731855 
L 675.058442 131.345498 
L 675.783117 144.400435 
L 676.145455 146.096295 
L 676.507792 146.129936 
L 676.87013 145.042306 
L 678.319481 96.442642 
L 678.681818 98.515858 
L 679.044156 93.71755 
L 679.406494 97.111432 
L 680.131169 119.169051 
L 680.493506 118.69509 
L 680.855844 122.763785 
L 681.218182 124.365013 
L 681.580519 117.876017 
L 681.942857 119.625386 
L 682.667532 107.457545 
L 683.02987 107.136922 
L 684.116883 127.007327 
L 684.479221 136.076692 
L 684.841558 136.483628 
L 685.203896 142.089098 
L 686.290909 114.075101 
L 686.653247 100.446084 
L 687.377922 86.471977 
L 687.74026 91.975007 
L 688.102597 92.542144 
L 688.827273 102.375382 
L 689.18961 112.863668 
L 689.551948 117.409398 
L 689.914286 113.432057 
L 690.276623 111.427121 
L 691.001299 101.5455 
L 691.363636 100.455527 
L 692.088312 103.007424 
L 692.450649 112.732864 
L 692.812987 118.487518 
L 693.175325 126.285067 
L 693.537662 129.935713 
L 693.9 129.926589 
L 694.262338 124.343197 
L 694.987013 105.002934 
L 695.349351 90.710658 
L 696.074026 78.63615 
L 696.436364 80.042302 
L 696.798701 83.680598 
L 697.161039 91.629552 
L 697.523377 95.6729 
L 697.885714 104.237516 
L 698.248052 106.496343 
L 698.61039 106.769962 
L 698.972727 107.207052 
L 699.335065 104.440011 
L 699.697403 97.130991 
L 700.05974 96.319847 
L 700.422078 92.925671 
L 700.784416 96.538703 
L 701.146753 107.164381 
L 701.871429 120.648473 
L 702.233766 125.164357 
L 702.596104 124.161094 
L 702.958442 119.881989 
L 703.320779 110.9713 
L 703.683117 96.823094 
L 704.407792 80.825358 
L 704.77013 76.136479 
L 705.494805 82.609334 
L 705.857143 86.79799 
L 706.581818 101.843102 
L 706.944156 105.771787 
L 707.306494 105.466537 
L 707.668831 105.672945 
L 708.031169 98.764334 
L 708.393506 95.833187 
L 708.755844 90.043007 
L 709.118182 88.88649 
L 709.842857 102.320383 
L 710.205195 113.710471 
L 710.567532 119.260804 
L 710.92987 122.702165 
L 711.292208 123.810779 
L 711.654545 118.523845 
L 712.741558 87.46504 
L 713.103896 79.980018 
L 713.466234 75.182299 
L 713.828571 73.444704 
L 714.190909 79.426628 
L 714.915584 97.457239 
L 715.277922 100.07723 
L 715.64026 110.407921 
L 716.002597 105.260343 
L 716.364935 104.372326 
L 716.727273 96.470684 
L 717.08961 94.609179 
L 717.451948 94.411331 
L 717.814286 92.803776 
L 718.538961 102.669851 
L 718.901299 113.405348 
L 719.263636 116.827928 
L 719.625974 127.162304 
L 719.988312 125.77507 
L 720.350649 121.41258 
L 720.712987 111.795936 
L 721.437662 85.528166 
L 721.8 80.338495 
L 722.162338 73.016758 
L 722.524675 70.783065 
L 723.974026 101.09948 
L 724.698701 105.112676 
L 725.061039 105.65753 
L 725.423377 97.064971 
L 725.785714 93.631227 
L 726.148052 93.712468 
L 726.51039 92.989854 
L 727.235065 104.633732 
L 727.95974 118.642952 
L 728.322078 124.857321 
L 729.046753 120.475491 
L 730.133766 89.61464 
L 730.496104 76.755268 
L 730.858442 71.920156 
L 731.220779 72.27246 
L 731.583117 77.174001 
L 731.945455 84.872791 
L 732.307792 95.071896 
L 732.67013 100.534883 
L 733.032468 100.495955 
L 733.394805 106.191229 
L 733.757143 96.438531 
L 734.119481 96.969443 
L 734.481818 93.37625 
L 734.844156 92.808092 
L 735.206494 92.59745 
L 735.568831 92.795185 
L 735.931169 101.823907 
L 736.293506 107.050173 
L 737.018182 121.150817 
L 737.380519 114.792264 
L 737.742857 113.761526 
L 738.105195 103.035754 
L 738.467532 95.896325 
L 738.82987 77.802077 
L 739.192208 70.944791 
L 739.554545 66.96 
L 739.916883 70.95166 
L 740.279221 71.989881 
L 740.641558 79.49004 
L 741.003896 89.739184 
L 741.728571 98.18714 
L 742.090909 96.472801 
L 742.453247 91.219589 
L 742.815584 91.598054 
L 743.177922 84.067951 
L 743.54026 81.832916 
L 743.902597 80.793907 
L 745.351948 106.979029 
L 745.714286 110.555983 
L 746.076623 108.801893 
L 746.438961 109.470798 
L 746.801299 96.491129 
L 746.801299 96.491129 
" style="fill:none;stroke:#1f77b4;stroke-linecap:square;stroke-width:1.5;"/>
   </g>
   <g id="line2d_18">
    <path clip-path="url(#pee44d1b45c)" d="M 747.163636 384.48 
L 747.163636 51.84 
" style="fill:none;stroke:#808080;stroke-linecap:square;"/>
   </g>
   <g id="patch_113">
    <path d="M 108 384.48 
L 108 51.84 
" style="fill:none;stroke:#000000;stroke-linecap:square;stroke-linejoin:miter;stroke-width:0.8;"/>
   </g>
   <g id="patch_114">
    <path d="M 777.6 384.48 
L 777.6 51.84 
" style="fill:none;stroke:#000000;stroke-linecap:square;stroke-linejoin:miter;stroke-width:0.8;"/>
   </g>
   <g id="patch_115">
    <path d="M 108 384.48 
L 777.6 384.48 
" style="fill:none;stroke:#000000;stroke-linecap:square;stroke-linejoin:miter;stroke-width:0.8;"/>
   </g>
   <g id="patch_116">
    <path d="M 108 51.84 
L 777.6 51.84 
" style="fill:none;stroke:#000000;stroke-linecap:square;stroke-linejoin:miter;stroke-width:0.8;"/>
   </g>
   <g id="text_19">
    <!-- A4Benchmark-TS21.csv -->
    <g transform="translate(372.094688 45.84)scale(0.12 -0.12)">
     <defs>
      <path d="M 34.1875 63.1875 
L 20.796875 26.90625 
L 47.609375 26.90625 
z
M 28.609375 72.90625 
L 39.796875 72.90625 
L 67.578125 0 
L 57.328125 0 
L 50.6875 18.703125 
L 17.828125 18.703125 
L 11.1875 0 
L 0.78125 0 
z
" id="DejaVuSans-65"/>
      <path d="M 37.796875 64.3125 
L 12.890625 25.390625 
L 37.796875 25.390625 
z
M 35.203125 72.90625 
L 47.609375 72.90625 
L 47.609375 25.390625 
L 58.015625 25.390625 
L 58.015625 17.1875 
L 47.609375 17.1875 
L 47.609375 0 
L 37.796875 0 
L 37.796875 17.1875 
L 4.890625 17.1875 
L 4.890625 26.703125 
z
" id="DejaVuSans-52"/>
      <path d="M 19.671875 34.8125 
L 19.671875 8.109375 
L 35.5 8.109375 
Q 43.453125 8.109375 47.28125 11.40625 
Q 51.125 14.703125 51.125 21.484375 
Q 51.125 28.328125 47.28125 31.5625 
Q 43.453125 34.8125 35.5 34.8125 
z
M 19.671875 64.796875 
L 19.671875 42.828125 
L 34.28125 42.828125 
Q 41.5 42.828125 45.03125 45.53125 
Q 48.578125 48.25 48.578125 53.8125 
Q 48.578125 59.328125 45.03125 62.0625 
Q 41.5 64.796875 34.28125 64.796875 
z
M 9.8125 72.90625 
L 35.015625 72.90625 
Q 46.296875 72.90625 52.390625 68.21875 
Q 58.5 63.53125 58.5 54.890625 
Q 58.5 48.1875 55.375 44.234375 
Q 52.25 40.28125 46.1875 39.3125 
Q 53.46875 37.75 57.5 32.78125 
Q 61.53125 27.828125 61.53125 20.40625 
Q 61.53125 10.640625 54.890625 5.3125 
Q 48.25 0 35.984375 0 
L 9.8125 0 
z
" id="DejaVuSans-66"/>
      <path d="M 54.890625 33.015625 
L 54.890625 0 
L 45.90625 0 
L 45.90625 32.71875 
Q 45.90625 40.484375 42.875 44.328125 
Q 39.84375 48.1875 33.796875 48.1875 
Q 26.515625 48.1875 22.3125 43.546875 
Q 18.109375 38.921875 18.109375 30.90625 
L 18.109375 0 
L 9.078125 0 
L 9.078125 54.6875 
L 18.109375 54.6875 
L 18.109375 46.1875 
Q 21.34375 51.125 25.703125 53.5625 
Q 30.078125 56 35.796875 56 
Q 45.21875 56 50.046875 50.171875 
Q 54.890625 44.34375 54.890625 33.015625 
z
" id="DejaVuSans-110"/>
      <path d="M 48.78125 52.59375 
L 48.78125 44.1875 
Q 44.96875 46.296875 41.140625 47.34375 
Q 37.3125 48.390625 33.40625 48.390625 
Q 24.65625 48.390625 19.8125 42.84375 
Q 14.984375 37.3125 14.984375 27.296875 
Q 14.984375 17.28125 19.8125 11.734375 
Q 24.65625 6.203125 33.40625 6.203125 
Q 37.3125 6.203125 41.140625 7.25 
Q 44.96875 8.296875 48.78125 10.40625 
L 48.78125 2.09375 
Q 45.015625 0.34375 40.984375 -0.53125 
Q 36.96875 -1.421875 32.421875 -1.421875 
Q 20.0625 -1.421875 12.78125 6.34375 
Q 5.515625 14.109375 5.515625 27.296875 
Q 5.515625 40.671875 12.859375 48.328125 
Q 20.21875 56 33.015625 56 
Q 37.15625 56 41.109375 55.140625 
Q 45.0625 54.296875 48.78125 52.59375 
z
" id="DejaVuSans-99"/>
      <path d="M 54.890625 33.015625 
L 54.890625 0 
L 45.90625 0 
L 45.90625 32.71875 
Q 45.90625 40.484375 42.875 44.328125 
Q 39.84375 48.1875 33.796875 48.1875 
Q 26.515625 48.1875 22.3125 43.546875 
Q 18.109375 38.921875 18.109375 30.90625 
L 18.109375 0 
L 9.078125 0 
L 9.078125 75.984375 
L 18.109375 75.984375 
L 18.109375 46.1875 
Q 21.34375 51.125 25.703125 53.5625 
Q 30.078125 56 35.796875 56 
Q 45.21875 56 50.046875 50.171875 
Q 54.890625 44.34375 54.890625 33.015625 
z
" id="DejaVuSans-104"/>
      <path d="M 41.109375 46.296875 
Q 39.59375 47.171875 37.8125 47.578125 
Q 36.03125 48 33.890625 48 
Q 26.265625 48 22.1875 43.046875 
Q 18.109375 38.09375 18.109375 28.8125 
L 18.109375 0 
L 9.078125 0 
L 9.078125 54.6875 
L 18.109375 54.6875 
L 18.109375 46.1875 
Q 20.953125 51.171875 25.484375 53.578125 
Q 30.03125 56 36.53125 56 
Q 37.453125 56 38.578125 55.875 
Q 39.703125 55.765625 41.0625 55.515625 
z
" id="DejaVuSans-114"/>
      <path d="M 9.078125 75.984375 
L 18.109375 75.984375 
L 18.109375 31.109375 
L 44.921875 54.6875 
L 56.390625 54.6875 
L 27.390625 29.109375 
L 57.625 0 
L 45.90625 0 
L 18.109375 26.703125 
L 18.109375 0 
L 9.078125 0 
z
" id="DejaVuSans-107"/>
      <path d="M 4.890625 31.390625 
L 31.203125 31.390625 
L 31.203125 23.390625 
L 4.890625 23.390625 
z
" id="DejaVuSans-45"/>
      <path d="M 53.515625 70.515625 
L 53.515625 60.890625 
Q 47.90625 63.578125 42.921875 64.890625 
Q 37.9375 66.21875 33.296875 66.21875 
Q 25.25 66.21875 20.875 63.09375 
Q 16.5 59.96875 16.5 54.203125 
Q 16.5 49.359375 19.40625 46.890625 
Q 22.3125 44.4375 30.421875 42.921875 
L 36.375 41.703125 
Q 47.40625 39.59375 52.65625 34.296875 
Q 57.90625 29 57.90625 20.125 
Q 57.90625 9.515625 50.796875 4.046875 
Q 43.703125 -1.421875 29.984375 -1.421875 
Q 24.8125 -1.421875 18.96875 -0.25 
Q 13.140625 0.921875 6.890625 3.21875 
L 6.890625 13.375 
Q 12.890625 10.015625 18.65625 8.296875 
Q 24.421875 6.59375 29.984375 6.59375 
Q 38.421875 6.59375 43.015625 9.90625 
Q 47.609375 13.234375 47.609375 19.390625 
Q 47.609375 24.75 44.3125 27.78125 
Q 41.015625 30.8125 33.5 32.328125 
L 27.484375 33.5 
Q 16.453125 35.6875 11.515625 40.375 
Q 6.59375 45.0625 6.59375 53.421875 
Q 6.59375 63.09375 13.40625 68.65625 
Q 20.21875 74.21875 32.171875 74.21875 
Q 37.3125 74.21875 42.625 73.28125 
Q 47.953125 72.359375 53.515625 70.515625 
z
" id="DejaVuSans-83"/>
      <path d="M 10.6875 12.40625 
L 21 12.40625 
L 21 0 
L 10.6875 0 
z
" id="DejaVuSans-46"/>
      <path d="M 2.984375 54.6875 
L 12.5 54.6875 
L 29.59375 8.796875 
L 46.6875 54.6875 
L 56.203125 54.6875 
L 35.6875 0 
L 23.484375 0 
z
" id="DejaVuSans-118"/>
     </defs>
     <use xlink:href="#DejaVuSans-65"/>
     <use x="68.408203" xlink:href="#DejaVuSans-52"/>
     <use x="132.03125" xlink:href="#DejaVuSans-66"/>
     <use x="200.634766" xlink:href="#DejaVuSans-101"/>
     <use x="262.158203" xlink:href="#DejaVuSans-110"/>
     <use x="325.537109" xlink:href="#DejaVuSans-99"/>
     <use x="380.517578" xlink:href="#DejaVuSans-104"/>
     <use x="443.896484" xlink:href="#DejaVuSans-109"/>
     <use x="541.308594" xlink:href="#DejaVuSans-97"/>
     <use x="602.587891" xlink:href="#DejaVuSans-114"/>
     <use x="643.701172" xlink:href="#DejaVuSans-107"/>
     <use x="701.611328" xlink:href="#DejaVuSans-45"/>
     <use x="728.570312" xlink:href="#DejaVuSans-84"/>
     <use x="789.654297" xlink:href="#DejaVuSans-83"/>
     <use x="853.130859" xlink:href="#DejaVuSans-50"/>
     <use x="916.753906" xlink:href="#DejaVuSans-49"/>
     <use x="980.376953" xlink:href="#DejaVuSans-46"/>
     <use x="1012.164062" xlink:href="#DejaVuSans-99"/>
     <use x="1067.144531" xlink:href="#DejaVuSans-115"/>
     <use x="1119.244141" xlink:href="#DejaVuSans-118"/>
    </g>
   </g>
   <g id="legend_1">
    <g id="patch_117">
     <path d="M 711.284375 379.48 
L 770.6 379.48 
Q 772.6 379.48 772.6 377.48 
L 772.6 363.801875 
Q 772.6 361.801875 770.6 361.801875 
L 711.284375 361.801875 
Q 709.284375 361.801875 709.284375 363.801875 
L 709.284375 377.48 
Q 709.284375 379.48 711.284375 379.48 
z
" style="fill:#ffffff;opacity:0.8;stroke:#cccccc;stroke-linejoin:miter;"/>
    </g>
    <g id="line2d_19">
     <path d="M 713.284375 369.900312 
L 733.284375 369.900312 
" style="fill:none;stroke:#1f77b4;stroke-linecap:square;stroke-width:1.5;"/>
    </g>
    <g id="line2d_20"/>
    <g id="text_20">
     <!-- value -->
     <g transform="translate(741.284375 373.400312)scale(0.1 -0.1)">
      <use xlink:href="#DejaVuSans-118"/>
      <use x="59.179688" xlink:href="#DejaVuSans-97"/>
      <use x="120.458984" xlink:href="#DejaVuSans-108"/>
      <use x="148.242188" xlink:href="#DejaVuSans-117"/>
      <use x="211.621094" xlink:href="#DejaVuSans-101"/>
     </g>
    </g>
   </g>
  </g>
 </g>
 <defs>
  <clipPath id="pee44d1b45c">
   <rect height="332.64" width="669.6" x="108" y="51.84"/>
  </clipPath>
 </defs>
</svg>
