<?xml version="1.0" encoding="utf-8" standalone="no"?>
<!DOCTYPE svg PUBLIC "-//W3C//DTD SVG 1.1//EN"
  "http://www.w3.org/Graphics/SVG/1.1/DTD/svg11.dtd">
<!-- Created with matplotlib (https://matplotlib.org/) -->
<svg height="432pt" version="1.1" viewBox="0 0 864 432" width="864pt" xmlns="http://www.w3.org/2000/svg" xmlns:xlink="http://www.w3.org/1999/xlink">
 <defs>
  <style type="text/css">
*{stroke-linecap:butt;stroke-linejoin:round;}
  </style>
 </defs>
 <g id="figure_1">
  <g id="patch_1">
   <path d="M 0 432 
L 864 432 
L 864 0 
L 0 0 
z
" style="fill:#ffffff;"/>
  </g>
  <g id="axes_1">
   <g id="patch_2">
    <path d="M 108 384.48 
L 777.6 384.48 
L 777.6 51.84 
L 108 51.84 
z
" style="fill:#ffffff;"/>
   </g>
   <g id="patch_3">
    <path clip-path="url(#p97fbb74fe2)" d="M 138.436364 384.48 
L 138.436364 51.84 
L 373.383732 51.84 
L 373.383732 384.48 
z
" style="fill:#0000ff;opacity:0.05;"/>
   </g>
   <g id="patch_4">
    <path clip-path="url(#p97fbb74fe2)" d="M 373.383732 384.48 
L 373.383732 51.84 
L 747.163636 51.84 
L 747.163636 384.48 
z
" style="fill:#ff0000;opacity:0.08;"/>
   </g>
   <g id="patch_5">
    <path clip-path="url(#p97fbb74fe2)" d="M 138.436364 384.48 
L 138.436364 51.84 
L 149.115789 51.84 
L 149.115789 384.48 
z
" style="fill:#008000;opacity:0.04;"/>
   </g>
   <g id="patch_6">
    <path clip-path="url(#p97fbb74fe2)" d="M 373.383732 384.48 
L 373.383732 371.1744 
L 384.063158 371.1744 
L 384.063158 384.48 
z
" style="fill:#ff6600;"/>
   </g>
   <g id="patch_7">
    <path clip-path="url(#p97fbb74fe2)" d="M 384.063158 384.48 
L 384.063158 371.1744 
L 394.742584 371.1744 
L 394.742584 384.48 
z
" style="fill:#ff6600;"/>
   </g>
   <g id="patch_8">
    <path clip-path="url(#p97fbb74fe2)" d="M 159.795215 384.48 
L 159.795215 51.84 
L 170.474641 51.84 
L 170.474641 384.48 
z
" style="fill:#008000;opacity:0.04;"/>
   </g>
   <g id="patch_9">
    <path clip-path="url(#p97fbb74fe2)" d="M 181.154067 384.48 
L 181.154067 51.84 
L 191.833493 51.84 
L 191.833493 384.48 
z
" style="fill:#008000;opacity:0.04;"/>
   </g>
   <g id="patch_10">
    <path clip-path="url(#p97fbb74fe2)" d="M 181.154067 384.48 
L 181.154067 371.1744 
L 191.833493 371.1744 
L 191.833493 384.48 
z
" style="fill:#ffe500;"/>
   </g>
   <g id="patch_11">
    <path clip-path="url(#p97fbb74fe2)" d="M 202.512919 384.48 
L 202.512919 51.84 
L 213.192344 51.84 
L 213.192344 384.48 
z
" style="fill:#008000;opacity:0.04;"/>
   </g>
   <g id="patch_12">
    <path clip-path="url(#p97fbb74fe2)" d="M 223.87177 384.48 
L 223.87177 51.84 
L 234.551196 51.84 
L 234.551196 384.48 
z
" style="fill:#008000;opacity:0.04;"/>
   </g>
   <g id="patch_13">
    <path clip-path="url(#p97fbb74fe2)" d="M 245.230622 384.48 
L 245.230622 51.84 
L 255.910048 51.84 
L 255.910048 384.48 
z
" style="fill:#008000;opacity:0.04;"/>
   </g>
   <g id="patch_14">
    <path clip-path="url(#p97fbb74fe2)" d="M 245.230622 384.48 
L 245.230622 371.1744 
L 255.910048 371.1744 
L 255.910048 384.48 
z
" style="fill:#ffe500;"/>
   </g>
   <g id="patch_15">
    <path clip-path="url(#p97fbb74fe2)" d="M 266.589474 384.48 
L 266.589474 51.84 
L 277.2689 51.84 
L 277.2689 384.48 
z
" style="fill:#008000;opacity:0.04;"/>
   </g>
   <g id="patch_16">
    <path clip-path="url(#p97fbb74fe2)" d="M 287.948325 384.48 
L 287.948325 51.84 
L 298.627751 51.84 
L 298.627751 384.48 
z
" style="fill:#008000;opacity:0.04;"/>
   </g>
   <g id="patch_17">
    <path clip-path="url(#p97fbb74fe2)" d="M 309.307177 384.48 
L 309.307177 51.84 
L 319.986603 51.84 
L 319.986603 384.48 
z
" style="fill:#008000;opacity:0.04;"/>
   </g>
   <g id="patch_18">
    <path clip-path="url(#p97fbb74fe2)" d="M 330.666029 384.48 
L 330.666029 51.84 
L 341.345455 51.84 
L 341.345455 384.48 
z
" style="fill:#008000;opacity:0.04;"/>
   </g>
   <g id="patch_19">
    <path clip-path="url(#p97fbb74fe2)" d="M 352.02488 384.48 
L 352.02488 51.84 
L 362.704306 51.84 
L 362.704306 384.48 
z
" style="fill:#008000;opacity:0.04;"/>
   </g>
   <g id="patch_20">
    <path clip-path="url(#p97fbb74fe2)" d="M 362.704306 371.1744 
L 362.704306 51.84 
L 373.383732 51.84 
L 373.383732 371.1744 
z
" style="fill:#008000;opacity:0.5;"/>
   </g>
   <g id="patch_21">
    <path clip-path="url(#p97fbb74fe2)" d="M 373.383732 384.48 
L 373.383732 51.84 
L 384.063158 51.84 
L 384.063158 384.48 
z
" style="fill:#008000;opacity:0.04;"/>
   </g>
   <g id="patch_22">
    <path clip-path="url(#p97fbb74fe2)" d="M 373.383732 371.1744 
L 373.383732 51.84 
L 384.063158 51.84 
L 384.063158 371.1744 
z
" style="fill:#008000;opacity:0.5;"/>
   </g>
   <g id="patch_23">
    <path clip-path="url(#p97fbb74fe2)" d="M 394.742584 384.48 
L 394.742584 51.84 
L 405.42201 51.84 
L 405.42201 384.48 
z
" style="fill:#008000;opacity:0.04;"/>
   </g>
   <g id="patch_24">
    <path clip-path="url(#p97fbb74fe2)" d="M 629.689952 384.48 
L 629.689952 371.1744 
L 640.369378 371.1744 
L 640.369378 384.48 
z
" style="fill:#ff6600;"/>
   </g>
   <g id="patch_25">
    <path clip-path="url(#p97fbb74fe2)" d="M 416.101435 384.48 
L 416.101435 51.84 
L 426.780861 51.84 
L 426.780861 384.48 
z
" style="fill:#008000;opacity:0.04;"/>
   </g>
   <g id="patch_26">
    <path clip-path="url(#p97fbb74fe2)" d="M 651.048804 384.48 
L 651.048804 371.1744 
L 661.72823 371.1744 
L 661.72823 384.48 
z
" style="fill:#ff6600;"/>
   </g>
   <g id="patch_27">
    <path clip-path="url(#p97fbb74fe2)" d="M 437.460287 384.48 
L 437.460287 51.84 
L 448.139713 51.84 
L 448.139713 384.48 
z
" style="fill:#008000;opacity:0.04;"/>
   </g>
   <g id="patch_28">
    <path clip-path="url(#p97fbb74fe2)" d="M 683.087081 384.48 
L 683.087081 371.1744 
L 693.766507 371.1744 
L 693.766507 384.48 
z
" style="fill:#ff6600;"/>
   </g>
   <g id="patch_29">
    <path clip-path="url(#p97fbb74fe2)" d="M 458.819139 384.48 
L 458.819139 51.84 
L 469.498565 51.84 
L 469.498565 384.48 
z
" style="fill:#008000;opacity:0.04;"/>
   </g>
   <g id="patch_30">
    <path clip-path="url(#p97fbb74fe2)" d="M 480.17799 384.48 
L 480.17799 51.84 
L 490.857416 51.84 
L 490.857416 384.48 
z
" style="fill:#008000;opacity:0.04;"/>
   </g>
   <g id="patch_31">
    <path clip-path="url(#p97fbb74fe2)" d="M 501.536842 384.48 
L 501.536842 51.84 
L 512.216268 51.84 
L 512.216268 384.48 
z
" style="fill:#008000;opacity:0.04;"/>
   </g>
   <g id="patch_32">
    <path clip-path="url(#p97fbb74fe2)" d="M 522.895694 384.48 
L 522.895694 51.84 
L 533.57512 51.84 
L 533.57512 384.48 
z
" style="fill:#008000;opacity:0.04;"/>
   </g>
   <g id="patch_33">
    <path clip-path="url(#p97fbb74fe2)" d="M 544.254545 384.48 
L 544.254545 51.84 
L 554.933971 51.84 
L 554.933971 384.48 
z
" style="fill:#008000;opacity:0.04;"/>
   </g>
   <g id="patch_34">
    <path clip-path="url(#p97fbb74fe2)" d="M 565.613397 384.48 
L 565.613397 51.84 
L 576.292823 51.84 
L 576.292823 384.48 
z
" style="fill:#008000;opacity:0.04;"/>
   </g>
   <g id="patch_35">
    <path clip-path="url(#p97fbb74fe2)" d="M 586.972249 384.48 
L 586.972249 51.84 
L 597.651675 51.84 
L 597.651675 384.48 
z
" style="fill:#008000;opacity:0.04;"/>
   </g>
   <g id="patch_36">
    <path clip-path="url(#p97fbb74fe2)" d="M 608.3311 384.48 
L 608.3311 51.84 
L 619.010526 51.84 
L 619.010526 384.48 
z
" style="fill:#008000;opacity:0.04;"/>
   </g>
   <g id="patch_37">
    <path clip-path="url(#p97fbb74fe2)" d="M 629.689952 384.48 
L 629.689952 51.84 
L 640.369378 51.84 
L 640.369378 384.48 
z
" style="fill:#008000;opacity:0.04;"/>
   </g>
   <g id="patch_38">
    <path clip-path="url(#p97fbb74fe2)" d="M 629.689952 371.1744 
L 629.689952 51.84 
L 640.369378 51.84 
L 640.369378 371.1744 
z
" style="fill:#008000;opacity:0.5;"/>
   </g>
   <g id="patch_39">
    <path clip-path="url(#p97fbb74fe2)" d="M 651.048804 384.48 
L 651.048804 51.84 
L 661.72823 51.84 
L 661.72823 384.48 
z
" style="fill:#008000;opacity:0.04;"/>
   </g>
   <g id="patch_40">
    <path clip-path="url(#p97fbb74fe2)" d="M 672.407656 384.48 
L 672.407656 51.84 
L 683.087081 51.84 
L 683.087081 384.48 
z
" style="fill:#008000;opacity:0.04;"/>
   </g>
   <g id="patch_41">
    <path clip-path="url(#p97fbb74fe2)" d="M 683.087081 371.1744 
L 683.087081 51.84 
L 693.766507 51.84 
L 693.766507 371.1744 
z
" style="fill:#008000;opacity:0.5;"/>
   </g>
   <g id="patch_42">
    <path clip-path="url(#p97fbb74fe2)" d="M 693.766507 384.48 
L 693.766507 51.84 
L 704.445933 51.84 
L 704.445933 384.48 
z
" style="fill:#008000;opacity:0.04;"/>
   </g>
   <g id="patch_43">
    <path clip-path="url(#p97fbb74fe2)" d="M 715.125359 384.48 
L 715.125359 51.84 
L 725.804785 51.84 
L 725.804785 384.48 
z
" style="fill:#008000;opacity:0.04;"/>
   </g>
   <g id="patch_44">
    <path clip-path="url(#p97fbb74fe2)" d="M 736.484211 384.48 
L 736.484211 51.84 
L 747.163636 51.84 
L 747.163636 384.48 
z
" style="fill:#008000;opacity:0.04;"/>
   </g>
   <g id="matplotlib.axis_1">
    <g id="xtick_1">
     <g id="line2d_1">
      <defs>
       <path d="M 0 0 
L 0 3.5 
" id="m2ece82d81a" style="stroke:#000000;stroke-width:0.8;"/>
      </defs>
      <g>
       <use style="stroke:#000000;stroke-width:0.8;" x="138.436364" xlink:href="#m2ece82d81a" y="384.48"/>
      </g>
     </g>
     <g id="text_1">
      <!-- 0 -->
      <defs>
       <path d="M 31.78125 66.40625 
Q 24.171875 66.40625 20.328125 58.90625 
Q 16.5 51.421875 16.5 36.375 
Q 16.5 21.390625 20.328125 13.890625 
Q 24.171875 6.390625 31.78125 6.390625 
Q 39.453125 6.390625 43.28125 13.890625 
Q 47.125 21.390625 47.125 36.375 
Q 47.125 51.421875 43.28125 58.90625 
Q 39.453125 66.40625 31.78125 66.40625 
z
M 31.78125 74.21875 
Q 44.046875 74.21875 50.515625 64.515625 
Q 56.984375 54.828125 56.984375 36.375 
Q 56.984375 17.96875 50.515625 8.265625 
Q 44.046875 -1.421875 31.78125 -1.421875 
Q 19.53125 -1.421875 13.0625 8.265625 
Q 6.59375 17.96875 6.59375 36.375 
Q 6.59375 54.828125 13.0625 64.515625 
Q 19.53125 74.21875 31.78125 74.21875 
z
" id="DejaVuSans-48"/>
      </defs>
      <g transform="translate(135.255114 399.078438)scale(0.1 -0.1)">
       <use xlink:href="#DejaVuSans-48"/>
      </g>
     </g>
    </g>
    <g id="xtick_2">
     <g id="line2d_2">
      <g>
       <use style="stroke:#000000;stroke-width:0.8;" x="223.87177" xlink:href="#m2ece82d81a" y="384.48"/>
      </g>
     </g>
     <g id="text_2">
      <!-- 200 -->
      <defs>
       <path d="M 19.1875 8.296875 
L 53.609375 8.296875 
L 53.609375 0 
L 7.328125 0 
L 7.328125 8.296875 
Q 12.9375 14.109375 22.625 23.890625 
Q 32.328125 33.6875 34.8125 36.53125 
Q 39.546875 41.84375 41.421875 45.53125 
Q 43.3125 49.21875 43.3125 52.78125 
Q 43.3125 58.59375 39.234375 62.25 
Q 35.15625 65.921875 28.609375 65.921875 
Q 23.96875 65.921875 18.8125 64.3125 
Q 13.671875 62.703125 7.8125 59.421875 
L 7.8125 69.390625 
Q 13.765625 71.78125 18.9375 73 
Q 24.125 74.21875 28.421875 74.21875 
Q 39.75 74.21875 46.484375 68.546875 
Q 53.21875 62.890625 53.21875 53.421875 
Q 53.21875 48.921875 51.53125 44.890625 
Q 49.859375 40.875 45.40625 35.40625 
Q 44.1875 33.984375 37.640625 27.21875 
Q 31.109375 20.453125 19.1875 8.296875 
z
" id="DejaVuSans-50"/>
      </defs>
      <g transform="translate(214.32802 399.078438)scale(0.1 -0.1)">
       <use xlink:href="#DejaVuSans-50"/>
       <use x="63.623047" xlink:href="#DejaVuSans-48"/>
       <use x="127.246094" xlink:href="#DejaVuSans-48"/>
      </g>
     </g>
    </g>
    <g id="xtick_3">
     <g id="line2d_3">
      <g>
       <use style="stroke:#000000;stroke-width:0.8;" x="309.307177" xlink:href="#m2ece82d81a" y="384.48"/>
      </g>
     </g>
     <g id="text_3">
      <!-- 400 -->
      <defs>
       <path d="M 37.796875 64.3125 
L 12.890625 25.390625 
L 37.796875 25.390625 
z
M 35.203125 72.90625 
L 47.609375 72.90625 
L 47.609375 25.390625 
L 58.015625 25.390625 
L 58.015625 17.1875 
L 47.609375 17.1875 
L 47.609375 0 
L 37.796875 0 
L 37.796875 17.1875 
L 4.890625 17.1875 
L 4.890625 26.703125 
z
" id="DejaVuSans-52"/>
      </defs>
      <g transform="translate(299.763427 399.078438)scale(0.1 -0.1)">
       <use xlink:href="#DejaVuSans-52"/>
       <use x="63.623047" xlink:href="#DejaVuSans-48"/>
       <use x="127.246094" xlink:href="#DejaVuSans-48"/>
      </g>
     </g>
    </g>
    <g id="xtick_4">
     <g id="line2d_4">
      <g>
       <use style="stroke:#000000;stroke-width:0.8;" x="394.742584" xlink:href="#m2ece82d81a" y="384.48"/>
      </g>
     </g>
     <g id="text_4">
      <!-- 600 -->
      <defs>
       <path d="M 33.015625 40.375 
Q 26.375 40.375 22.484375 35.828125 
Q 18.609375 31.296875 18.609375 23.390625 
Q 18.609375 15.53125 22.484375 10.953125 
Q 26.375 6.390625 33.015625 6.390625 
Q 39.65625 6.390625 43.53125 10.953125 
Q 47.40625 15.53125 47.40625 23.390625 
Q 47.40625 31.296875 43.53125 35.828125 
Q 39.65625 40.375 33.015625 40.375 
z
M 52.59375 71.296875 
L 52.59375 62.3125 
Q 48.875 64.0625 45.09375 64.984375 
Q 41.3125 65.921875 37.59375 65.921875 
Q 27.828125 65.921875 22.671875 59.328125 
Q 17.53125 52.734375 16.796875 39.40625 
Q 19.671875 43.65625 24.015625 45.921875 
Q 28.375 48.1875 33.59375 48.1875 
Q 44.578125 48.1875 50.953125 41.515625 
Q 57.328125 34.859375 57.328125 23.390625 
Q 57.328125 12.15625 50.6875 5.359375 
Q 44.046875 -1.421875 33.015625 -1.421875 
Q 20.359375 -1.421875 13.671875 8.265625 
Q 6.984375 17.96875 6.984375 36.375 
Q 6.984375 53.65625 15.1875 63.9375 
Q 23.390625 74.21875 37.203125 74.21875 
Q 40.921875 74.21875 44.703125 73.484375 
Q 48.484375 72.75 52.59375 71.296875 
z
" id="DejaVuSans-54"/>
      </defs>
      <g transform="translate(385.198834 399.078438)scale(0.1 -0.1)">
       <use xlink:href="#DejaVuSans-54"/>
       <use x="63.623047" xlink:href="#DejaVuSans-48"/>
       <use x="127.246094" xlink:href="#DejaVuSans-48"/>
      </g>
     </g>
    </g>
    <g id="xtick_5">
     <g id="line2d_5">
      <g>
       <use style="stroke:#000000;stroke-width:0.8;" x="480.17799" xlink:href="#m2ece82d81a" y="384.48"/>
      </g>
     </g>
     <g id="text_5">
      <!-- 800 -->
      <defs>
       <path d="M 31.78125 34.625 
Q 24.75 34.625 20.71875 30.859375 
Q 16.703125 27.09375 16.703125 20.515625 
Q 16.703125 13.921875 20.71875 10.15625 
Q 24.75 6.390625 31.78125 6.390625 
Q 38.8125 6.390625 42.859375 10.171875 
Q 46.921875 13.96875 46.921875 20.515625 
Q 46.921875 27.09375 42.890625 30.859375 
Q 38.875 34.625 31.78125 34.625 
z
M 21.921875 38.8125 
Q 15.578125 40.375 12.03125 44.71875 
Q 8.5 49.078125 8.5 55.328125 
Q 8.5 64.0625 14.71875 69.140625 
Q 20.953125 74.21875 31.78125 74.21875 
Q 42.671875 74.21875 48.875 69.140625 
Q 55.078125 64.0625 55.078125 55.328125 
Q 55.078125 49.078125 51.53125 44.71875 
Q 48 40.375 41.703125 38.8125 
Q 48.828125 37.15625 52.796875 32.3125 
Q 56.78125 27.484375 56.78125 20.515625 
Q 56.78125 9.90625 50.3125 4.234375 
Q 43.84375 -1.421875 31.78125 -1.421875 
Q 19.734375 -1.421875 13.25 4.234375 
Q 6.78125 9.90625 6.78125 20.515625 
Q 6.78125 27.484375 10.78125 32.3125 
Q 14.796875 37.15625 21.921875 38.8125 
z
M 18.3125 54.390625 
Q 18.3125 48.734375 21.84375 45.5625 
Q 25.390625 42.390625 31.78125 42.390625 
Q 38.140625 42.390625 41.71875 45.5625 
Q 45.3125 48.734375 45.3125 54.390625 
Q 45.3125 60.0625 41.71875 63.234375 
Q 38.140625 66.40625 31.78125 66.40625 
Q 25.390625 66.40625 21.84375 63.234375 
Q 18.3125 60.0625 18.3125 54.390625 
z
" id="DejaVuSans-56"/>
      </defs>
      <g transform="translate(470.63424 399.078438)scale(0.1 -0.1)">
       <use xlink:href="#DejaVuSans-56"/>
       <use x="63.623047" xlink:href="#DejaVuSans-48"/>
       <use x="127.246094" xlink:href="#DejaVuSans-48"/>
      </g>
     </g>
    </g>
    <g id="xtick_6">
     <g id="line2d_6">
      <g>
       <use style="stroke:#000000;stroke-width:0.8;" x="565.613397" xlink:href="#m2ece82d81a" y="384.48"/>
      </g>
     </g>
     <g id="text_6">
      <!-- 1000 -->
      <defs>
       <path d="M 12.40625 8.296875 
L 28.515625 8.296875 
L 28.515625 63.921875 
L 10.984375 60.40625 
L 10.984375 69.390625 
L 28.421875 72.90625 
L 38.28125 72.90625 
L 38.28125 8.296875 
L 54.390625 8.296875 
L 54.390625 0 
L 12.40625 0 
z
" id="DejaVuSans-49"/>
      </defs>
      <g transform="translate(552.888397 399.078438)scale(0.1 -0.1)">
       <use xlink:href="#DejaVuSans-49"/>
       <use x="63.623047" xlink:href="#DejaVuSans-48"/>
       <use x="127.246094" xlink:href="#DejaVuSans-48"/>
       <use x="190.869141" xlink:href="#DejaVuSans-48"/>
      </g>
     </g>
    </g>
    <g id="xtick_7">
     <g id="line2d_7">
      <g>
       <use style="stroke:#000000;stroke-width:0.8;" x="651.048804" xlink:href="#m2ece82d81a" y="384.48"/>
      </g>
     </g>
     <g id="text_7">
      <!-- 1200 -->
      <g transform="translate(638.323804 399.078438)scale(0.1 -0.1)">
       <use xlink:href="#DejaVuSans-49"/>
       <use x="63.623047" xlink:href="#DejaVuSans-50"/>
       <use x="127.246094" xlink:href="#DejaVuSans-48"/>
       <use x="190.869141" xlink:href="#DejaVuSans-48"/>
      </g>
     </g>
    </g>
    <g id="xtick_8">
     <g id="line2d_8">
      <g>
       <use style="stroke:#000000;stroke-width:0.8;" x="736.484211" xlink:href="#m2ece82d81a" y="384.48"/>
      </g>
     </g>
     <g id="text_8">
      <!-- 1400 -->
      <g transform="translate(723.759211 399.078438)scale(0.1 -0.1)">
       <use xlink:href="#DejaVuSans-49"/>
       <use x="63.623047" xlink:href="#DejaVuSans-52"/>
       <use x="127.246094" xlink:href="#DejaVuSans-48"/>
       <use x="190.869141" xlink:href="#DejaVuSans-48"/>
      </g>
     </g>
    </g>
    <g id="text_9">
     <!-- Timestamp -->
     <defs>
      <path d="M -0.296875 72.90625 
L 61.375 72.90625 
L 61.375 64.59375 
L 35.5 64.59375 
L 35.5 0 
L 25.59375 0 
L 25.59375 64.59375 
L -0.296875 64.59375 
z
" id="DejaVuSans-84"/>
      <path d="M 9.421875 54.6875 
L 18.40625 54.6875 
L 18.40625 0 
L 9.421875 0 
z
M 9.421875 75.984375 
L 18.40625 75.984375 
L 18.40625 64.59375 
L 9.421875 64.59375 
z
" id="DejaVuSans-105"/>
      <path d="M 52 44.1875 
Q 55.375 50.25 60.0625 53.125 
Q 64.75 56 71.09375 56 
Q 79.640625 56 84.28125 50.015625 
Q 88.921875 44.046875 88.921875 33.015625 
L 88.921875 0 
L 79.890625 0 
L 79.890625 32.71875 
Q 79.890625 40.578125 77.09375 44.375 
Q 74.3125 48.1875 68.609375 48.1875 
Q 61.625 48.1875 57.5625 43.546875 
Q 53.515625 38.921875 53.515625 30.90625 
L 53.515625 0 
L 44.484375 0 
L 44.484375 32.71875 
Q 44.484375 40.625 41.703125 44.40625 
Q 38.921875 48.1875 33.109375 48.1875 
Q 26.21875 48.1875 22.15625 43.53125 
Q 18.109375 38.875 18.109375 30.90625 
L 18.109375 0 
L 9.078125 0 
L 9.078125 54.6875 
L 18.109375 54.6875 
L 18.109375 46.1875 
Q 21.1875 51.21875 25.484375 53.609375 
Q 29.78125 56 35.6875 56 
Q 41.65625 56 45.828125 52.96875 
Q 50 49.953125 52 44.1875 
z
" id="DejaVuSans-109"/>
      <path d="M 56.203125 29.59375 
L 56.203125 25.203125 
L 14.890625 25.203125 
Q 15.484375 15.921875 20.484375 11.0625 
Q 25.484375 6.203125 34.421875 6.203125 
Q 39.59375 6.203125 44.453125 7.46875 
Q 49.3125 8.734375 54.109375 11.28125 
L 54.109375 2.78125 
Q 49.265625 0.734375 44.1875 -0.34375 
Q 39.109375 -1.421875 33.890625 -1.421875 
Q 20.796875 -1.421875 13.15625 6.1875 
Q 5.515625 13.8125 5.515625 26.8125 
Q 5.515625 40.234375 12.765625 48.109375 
Q 20.015625 56 32.328125 56 
Q 43.359375 56 49.78125 48.890625 
Q 56.203125 41.796875 56.203125 29.59375 
z
M 47.21875 32.234375 
Q 47.125 39.59375 43.09375 43.984375 
Q 39.0625 48.390625 32.421875 48.390625 
Q 24.90625 48.390625 20.390625 44.140625 
Q 15.875 39.890625 15.1875 32.171875 
z
" id="DejaVuSans-101"/>
      <path d="M 44.28125 53.078125 
L 44.28125 44.578125 
Q 40.484375 46.53125 36.375 47.5 
Q 32.28125 48.484375 27.875 48.484375 
Q 21.1875 48.484375 17.84375 46.4375 
Q 14.5 44.390625 14.5 40.28125 
Q 14.5 37.15625 16.890625 35.375 
Q 19.28125 33.59375 26.515625 31.984375 
L 29.59375 31.296875 
Q 39.15625 29.25 43.1875 25.515625 
Q 47.21875 21.78125 47.21875 15.09375 
Q 47.21875 7.46875 41.1875 3.015625 
Q 35.15625 -1.421875 24.609375 -1.421875 
Q 20.21875 -1.421875 15.453125 -0.5625 
Q 10.6875 0.296875 5.421875 2 
L 5.421875 11.28125 
Q 10.40625 8.6875 15.234375 7.390625 
Q 20.0625 6.109375 24.8125 6.109375 
Q 31.15625 6.109375 34.5625 8.28125 
Q 37.984375 10.453125 37.984375 14.40625 
Q 37.984375 18.0625 35.515625 20.015625 
Q 33.0625 21.96875 24.703125 23.78125 
L 21.578125 24.515625 
Q 13.234375 26.265625 9.515625 29.90625 
Q 5.8125 33.546875 5.8125 39.890625 
Q 5.8125 47.609375 11.28125 51.796875 
Q 16.75 56 26.8125 56 
Q 31.78125 56 36.171875 55.265625 
Q 40.578125 54.546875 44.28125 53.078125 
z
" id="DejaVuSans-115"/>
      <path d="M 18.3125 70.21875 
L 18.3125 54.6875 
L 36.8125 54.6875 
L 36.8125 47.703125 
L 18.3125 47.703125 
L 18.3125 18.015625 
Q 18.3125 11.328125 20.140625 9.421875 
Q 21.96875 7.515625 27.59375 7.515625 
L 36.8125 7.515625 
L 36.8125 0 
L 27.59375 0 
Q 17.1875 0 13.234375 3.875 
Q 9.28125 7.765625 9.28125 18.015625 
L 9.28125 47.703125 
L 2.6875 47.703125 
L 2.6875 54.6875 
L 9.28125 54.6875 
L 9.28125 70.21875 
z
" id="DejaVuSans-116"/>
      <path d="M 34.28125 27.484375 
Q 23.390625 27.484375 19.1875 25 
Q 14.984375 22.515625 14.984375 16.5 
Q 14.984375 11.71875 18.140625 8.90625 
Q 21.296875 6.109375 26.703125 6.109375 
Q 34.1875 6.109375 38.703125 11.40625 
Q 43.21875 16.703125 43.21875 25.484375 
L 43.21875 27.484375 
z
M 52.203125 31.203125 
L 52.203125 0 
L 43.21875 0 
L 43.21875 8.296875 
Q 40.140625 3.328125 35.546875 0.953125 
Q 30.953125 -1.421875 24.3125 -1.421875 
Q 15.921875 -1.421875 10.953125 3.296875 
Q 6 8.015625 6 15.921875 
Q 6 25.140625 12.171875 29.828125 
Q 18.359375 34.515625 30.609375 34.515625 
L 43.21875 34.515625 
L 43.21875 35.40625 
Q 43.21875 41.609375 39.140625 45 
Q 35.0625 48.390625 27.6875 48.390625 
Q 23 48.390625 18.546875 47.265625 
Q 14.109375 46.140625 10.015625 43.890625 
L 10.015625 52.203125 
Q 14.9375 54.109375 19.578125 55.046875 
Q 24.21875 56 28.609375 56 
Q 40.484375 56 46.34375 49.84375 
Q 52.203125 43.703125 52.203125 31.203125 
z
" id="DejaVuSans-97"/>
      <path d="M 18.109375 8.203125 
L 18.109375 -20.796875 
L 9.078125 -20.796875 
L 9.078125 54.6875 
L 18.109375 54.6875 
L 18.109375 46.390625 
Q 20.953125 51.265625 25.265625 53.625 
Q 29.59375 56 35.59375 56 
Q 45.5625 56 51.78125 48.09375 
Q 58.015625 40.1875 58.015625 27.296875 
Q 58.015625 14.40625 51.78125 6.484375 
Q 45.5625 -1.421875 35.59375 -1.421875 
Q 29.59375 -1.421875 25.265625 0.953125 
Q 20.953125 3.328125 18.109375 8.203125 
z
M 48.6875 27.296875 
Q 48.6875 37.203125 44.609375 42.84375 
Q 40.53125 48.484375 33.40625 48.484375 
Q 26.265625 48.484375 22.1875 42.84375 
Q 18.109375 37.203125 18.109375 27.296875 
Q 18.109375 17.390625 22.1875 11.75 
Q 26.265625 6.109375 33.40625 6.109375 
Q 40.53125 6.109375 44.609375 11.75 
Q 48.6875 17.390625 48.6875 27.296875 
z
" id="DejaVuSans-112"/>
     </defs>
     <g transform="translate(414.739062 412.756563)scale(0.1 -0.1)">
      <use xlink:href="#DejaVuSans-84"/>
      <use x="61.037109" xlink:href="#DejaVuSans-105"/>
      <use x="88.820312" xlink:href="#DejaVuSans-109"/>
      <use x="186.232422" xlink:href="#DejaVuSans-101"/>
      <use x="247.755859" xlink:href="#DejaVuSans-115"/>
      <use x="299.855469" xlink:href="#DejaVuSans-116"/>
      <use x="339.064453" xlink:href="#DejaVuSans-97"/>
      <use x="400.34375" xlink:href="#DejaVuSans-109"/>
      <use x="497.755859" xlink:href="#DejaVuSans-112"/>
     </g>
    </g>
   </g>
   <g id="matplotlib.axis_2">
    <g id="ytick_1">
     <g id="line2d_9">
      <defs>
       <path d="M 0 0 
L -3.5 0 
" id="mea6ccea981" style="stroke:#000000;stroke-width:0.8;"/>
      </defs>
      <g>
       <use style="stroke:#000000;stroke-width:0.8;" x="108" xlink:href="#mea6ccea981" y="371.734869"/>
      </g>
     </g>
     <g id="text_10">
      <!-- 0.0 -->
      <defs>
       <path d="M 10.6875 12.40625 
L 21 12.40625 
L 21 0 
L 10.6875 0 
z
" id="DejaVuSans-46"/>
      </defs>
      <g transform="translate(85.096875 375.534088)scale(0.1 -0.1)">
       <use xlink:href="#DejaVuSans-48"/>
       <use x="63.623047" xlink:href="#DejaVuSans-46"/>
       <use x="95.410156" xlink:href="#DejaVuSans-48"/>
      </g>
     </g>
    </g>
    <g id="ytick_2">
     <g id="line2d_10">
      <g>
       <use style="stroke:#000000;stroke-width:0.8;" x="108" xlink:href="#mea6ccea981" y="332.153717"/>
      </g>
     </g>
     <g id="text_11">
      <!-- 0.5 -->
      <defs>
       <path d="M 10.796875 72.90625 
L 49.515625 72.90625 
L 49.515625 64.59375 
L 19.828125 64.59375 
L 19.828125 46.734375 
Q 21.96875 47.46875 24.109375 47.828125 
Q 26.265625 48.1875 28.421875 48.1875 
Q 40.625 48.1875 47.75 41.5 
Q 54.890625 34.8125 54.890625 23.390625 
Q 54.890625 11.625 47.5625 5.09375 
Q 40.234375 -1.421875 26.90625 -1.421875 
Q 22.3125 -1.421875 17.546875 -0.640625 
Q 12.796875 0.140625 7.71875 1.703125 
L 7.71875 11.625 
Q 12.109375 9.234375 16.796875 8.0625 
Q 21.484375 6.890625 26.703125 6.890625 
Q 35.15625 6.890625 40.078125 11.328125 
Q 45.015625 15.765625 45.015625 23.390625 
Q 45.015625 31 40.078125 35.4375 
Q 35.15625 39.890625 26.703125 39.890625 
Q 22.75 39.890625 18.8125 39.015625 
Q 14.890625 38.140625 10.796875 36.28125 
z
" id="DejaVuSans-53"/>
      </defs>
      <g transform="translate(85.096875 335.952936)scale(0.1 -0.1)">
       <use xlink:href="#DejaVuSans-48"/>
       <use x="63.623047" xlink:href="#DejaVuSans-46"/>
       <use x="95.410156" xlink:href="#DejaVuSans-53"/>
      </g>
     </g>
    </g>
    <g id="ytick_3">
     <g id="line2d_11">
      <g>
       <use style="stroke:#000000;stroke-width:0.8;" x="108" xlink:href="#mea6ccea981" y="292.572565"/>
      </g>
     </g>
     <g id="text_12">
      <!-- 1.0 -->
      <g transform="translate(85.096875 296.371784)scale(0.1 -0.1)">
       <use xlink:href="#DejaVuSans-49"/>
       <use x="63.623047" xlink:href="#DejaVuSans-46"/>
       <use x="95.410156" xlink:href="#DejaVuSans-48"/>
      </g>
     </g>
    </g>
    <g id="ytick_4">
     <g id="line2d_12">
      <g>
       <use style="stroke:#000000;stroke-width:0.8;" x="108" xlink:href="#mea6ccea981" y="252.991414"/>
      </g>
     </g>
     <g id="text_13">
      <!-- 1.5 -->
      <g transform="translate(85.096875 256.790632)scale(0.1 -0.1)">
       <use xlink:href="#DejaVuSans-49"/>
       <use x="63.623047" xlink:href="#DejaVuSans-46"/>
       <use x="95.410156" xlink:href="#DejaVuSans-53"/>
      </g>
     </g>
    </g>
    <g id="ytick_5">
     <g id="line2d_13">
      <g>
       <use style="stroke:#000000;stroke-width:0.8;" x="108" xlink:href="#mea6ccea981" y="213.410262"/>
      </g>
     </g>
     <g id="text_14">
      <!-- 2.0 -->
      <g transform="translate(85.096875 217.209481)scale(0.1 -0.1)">
       <use xlink:href="#DejaVuSans-50"/>
       <use x="63.623047" xlink:href="#DejaVuSans-46"/>
       <use x="95.410156" xlink:href="#DejaVuSans-48"/>
      </g>
     </g>
    </g>
    <g id="ytick_6">
     <g id="line2d_14">
      <g>
       <use style="stroke:#000000;stroke-width:0.8;" x="108" xlink:href="#mea6ccea981" y="173.82911"/>
      </g>
     </g>
     <g id="text_15">
      <!-- 2.5 -->
      <g transform="translate(85.096875 177.628329)scale(0.1 -0.1)">
       <use xlink:href="#DejaVuSans-50"/>
       <use x="63.623047" xlink:href="#DejaVuSans-46"/>
       <use x="95.410156" xlink:href="#DejaVuSans-53"/>
      </g>
     </g>
    </g>
    <g id="ytick_7">
     <g id="line2d_15">
      <g>
       <use style="stroke:#000000;stroke-width:0.8;" x="108" xlink:href="#mea6ccea981" y="134.247958"/>
      </g>
     </g>
     <g id="text_16">
      <!-- 3.0 -->
      <defs>
       <path d="M 40.578125 39.3125 
Q 47.65625 37.796875 51.625 33 
Q 55.609375 28.21875 55.609375 21.1875 
Q 55.609375 10.40625 48.1875 4.484375 
Q 40.765625 -1.421875 27.09375 -1.421875 
Q 22.515625 -1.421875 17.65625 -0.515625 
Q 12.796875 0.390625 7.625 2.203125 
L 7.625 11.71875 
Q 11.71875 9.328125 16.59375 8.109375 
Q 21.484375 6.890625 26.8125 6.890625 
Q 36.078125 6.890625 40.9375 10.546875 
Q 45.796875 14.203125 45.796875 21.1875 
Q 45.796875 27.640625 41.28125 31.265625 
Q 36.765625 34.90625 28.71875 34.90625 
L 20.21875 34.90625 
L 20.21875 43.015625 
L 29.109375 43.015625 
Q 36.375 43.015625 40.234375 45.921875 
Q 44.09375 48.828125 44.09375 54.296875 
Q 44.09375 59.90625 40.109375 62.90625 
Q 36.140625 65.921875 28.71875 65.921875 
Q 24.65625 65.921875 20.015625 65.03125 
Q 15.375 64.15625 9.8125 62.3125 
L 9.8125 71.09375 
Q 15.4375 72.65625 20.34375 73.4375 
Q 25.25 74.21875 29.59375 74.21875 
Q 40.828125 74.21875 47.359375 69.109375 
Q 53.90625 64.015625 53.90625 55.328125 
Q 53.90625 49.265625 50.4375 45.09375 
Q 46.96875 40.921875 40.578125 39.3125 
z
" id="DejaVuSans-51"/>
      </defs>
      <g transform="translate(85.096875 138.047177)scale(0.1 -0.1)">
       <use xlink:href="#DejaVuSans-51"/>
       <use x="63.623047" xlink:href="#DejaVuSans-46"/>
       <use x="95.410156" xlink:href="#DejaVuSans-48"/>
      </g>
     </g>
    </g>
    <g id="ytick_8">
     <g id="line2d_16">
      <g>
       <use style="stroke:#000000;stroke-width:0.8;" x="108" xlink:href="#mea6ccea981" y="94.666806"/>
      </g>
     </g>
     <g id="text_17">
      <!-- 3.5 -->
      <g transform="translate(85.096875 98.466025)scale(0.1 -0.1)">
       <use xlink:href="#DejaVuSans-51"/>
       <use x="63.623047" xlink:href="#DejaVuSans-46"/>
       <use x="95.410156" xlink:href="#DejaVuSans-53"/>
      </g>
     </g>
    </g>
    <g id="ytick_9">
     <g id="line2d_17">
      <g>
       <use style="stroke:#000000;stroke-width:0.8;" x="108" xlink:href="#mea6ccea981" y="55.085654"/>
      </g>
     </g>
     <g id="text_18">
      <!-- 4.0 -->
      <g transform="translate(85.096875 58.884873)scale(0.1 -0.1)">
       <use xlink:href="#DejaVuSans-52"/>
       <use x="63.623047" xlink:href="#DejaVuSans-46"/>
       <use x="95.410156" xlink:href="#DejaVuSans-48"/>
      </g>
     </g>
    </g>
    <g id="text_19">
     <!-- Value -->
     <defs>
      <path d="M 28.609375 0 
L 0.78125 72.90625 
L 11.078125 72.90625 
L 34.1875 11.53125 
L 57.328125 72.90625 
L 67.578125 72.90625 
L 39.796875 0 
z
" id="DejaVuSans-86"/>
      <path d="M 9.421875 75.984375 
L 18.40625 75.984375 
L 18.40625 0 
L 9.421875 0 
z
" id="DejaVuSans-108"/>
      <path d="M 8.5 21.578125 
L 8.5 54.6875 
L 17.484375 54.6875 
L 17.484375 21.921875 
Q 17.484375 14.15625 20.5 10.265625 
Q 23.53125 6.390625 29.59375 6.390625 
Q 36.859375 6.390625 41.078125 11.03125 
Q 45.3125 15.671875 45.3125 23.6875 
L 45.3125 54.6875 
L 54.296875 54.6875 
L 54.296875 0 
L 45.3125 0 
L 45.3125 8.40625 
Q 42.046875 3.421875 37.71875 1 
Q 33.40625 -1.421875 27.6875 -1.421875 
Q 18.265625 -1.421875 13.375 4.4375 
Q 8.5 10.296875 8.5 21.578125 
z
M 31.109375 56 
z
" id="DejaVuSans-117"/>
     </defs>
     <g transform="translate(79.017187 232.273281)rotate(-90)scale(0.1 -0.1)">
      <use xlink:href="#DejaVuSans-86"/>
      <use x="68.298828" xlink:href="#DejaVuSans-97"/>
      <use x="129.578125" xlink:href="#DejaVuSans-108"/>
      <use x="157.361328" xlink:href="#DejaVuSans-117"/>
      <use x="220.740234" xlink:href="#DejaVuSans-101"/>
     </g>
    </g>
   </g>
   <g id="line2d_18">
    <path clip-path="url(#p97fbb74fe2)" d="M 138.436364 317.904503 
L 138.863541 315.529634 
L 139.290718 320.279372 
L 139.717895 321.862618 
L 140.145072 313.154764 
L 140.572249 292.572565 
L 140.999426 294.947435 
L 141.426603 296.530681 
L 141.85378 283.073089 
L 142.280957 287.031204 
L 142.708134 283.073089 
L 143.135311 283.073089 
L 143.562488 287.822827 
L 143.989665 287.031204 
L 144.416842 292.572565 
L 144.844019 293.364188 
L 145.271196 298.113927 
L 145.698373 306.82178 
L 146.12555 310.779895 
L 146.552727 312.363141 
L 146.979904 317.11288 
L 147.407081 315.529634 
L 147.834258 311.571518 
L 148.261435 312.363141 
L 148.688612 309.988272 
L 149.115789 311.571518 
L 149.542967 319.487749 
L 149.970144 313.154764 
L 150.397321 302.863665 
L 150.824498 298.113927 
L 151.251675 299.697173 
L 151.678852 297.322304 
L 152.106029 293.364188 
L 152.533206 300.488796 
L 152.960383 288.61445 
L 153.38756 291.780942 
L 153.814737 290.989319 
L 154.241914 294.947435 
L 154.669091 297.322304 
L 155.096268 297.322304 
L 155.523445 296.530681 
L 156.377799 315.529634 
L 156.804976 314.73801 
L 157.232153 317.11288 
L 157.65933 318.696126 
L 158.086507 316.321257 
L 158.513684 310.779895 
L 159.368038 321.862618 
L 159.795215 325.820733 
L 160.222392 321.862618 
L 160.649569 316.321257 
L 161.076746 306.030157 
L 161.503923 305.238534 
L 161.9311 294.947435 
L 162.358278 287.822827 
L 162.785455 283.073089 
L 163.212632 271.990366 
L 163.639809 268.032251 
L 164.066986 282.281466 
L 164.494163 283.864712 
L 164.92134 292.572565 
L 165.348517 295.739058 
L 165.775694 297.322304 
L 166.202871 308.405026 
L 166.630048 308.405026 
L 167.057225 320.279372 
L 167.484402 321.070995 
L 167.911579 319.487749 
L 168.338756 326.612356 
L 168.765933 315.529634 
L 169.19311 315.529634 
L 169.620287 313.946387 
L 170.047464 321.070995 
L 170.474641 317.11288 
L 170.901818 306.030157 
L 171.328995 282.281466 
L 171.756172 288.61445 
L 172.183349 274.365236 
L 172.610526 265.657382 
L 173.037703 263.282513 
L 173.46488 264.865759 
L 173.892057 265.657382 
L 174.319234 257.741152 
L 174.746411 275.156859 
L 175.173589 287.822827 
L 175.600766 280.69822 
L 176.882297 313.946387 
L 177.309474 319.487749 
L 177.736651 314.73801 
L 178.163828 312.363141 
L 178.591005 320.279372 
L 179.018182 313.946387 
L 179.445359 315.529634 
L 179.872536 321.070995 
L 180.299713 320.279372 
L 181.154067 299.697173 
L 181.581244 265.657382 
L 182.008421 267.240628 
L 182.862775 232.409215 
L 183.289952 257.741152 
L 183.717129 272.78199 
L 184.144306 275.948482 
L 184.571483 269.615497 
L 184.99866 275.156859 
L 185.425837 292.572565 
L 185.853014 291.780942 
L 186.280191 298.90555 
L 187.134545 317.904503 
L 187.561722 316.321257 
L 187.9889 321.070995 
L 188.416077 321.862618 
L 188.843254 314.73801 
L 189.270431 320.279372 
L 189.697608 327.403979 
L 190.124785 326.612356 
L 190.551962 331.362094 
L 190.979139 329.778848 
L 191.833493 301.280419 
L 192.26067 298.90555 
L 192.687847 302.072042 
L 193.115024 303.655288 
L 193.969378 283.073089 
L 194.823732 274.365236 
L 195.250909 294.155812 
L 195.678086 302.863665 
L 196.105263 305.238534 
L 196.53244 309.196649 
L 196.959617 315.529634 
L 197.386794 317.904503 
L 197.813971 325.820733 
L 198.241148 327.403979 
L 199.095502 321.070995 
L 199.522679 328.195602 
L 199.949856 328.195602 
L 200.377033 323.445864 
L 200.804211 328.195602 
L 201.231388 327.403979 
L 201.658565 321.862618 
L 202.085742 313.946387 
L 202.512919 299.697173 
L 202.940096 295.739058 
L 203.367273 289.406073 
L 203.79445 295.739058 
L 204.221627 283.864712 
L 204.648804 285.447958 
L 205.075981 288.61445 
L 205.503158 293.364188 
L 205.930335 296.530681 
L 206.784689 305.238534 
L 207.211866 307.613403 
L 207.639043 317.904503 
L 208.06622 320.279372 
L 208.493397 319.487749 
L 208.920574 316.321257 
L 209.347751 314.73801 
L 209.774928 319.487749 
L 210.202105 325.820733 
L 211.056459 328.987225 
L 211.483636 325.820733 
L 211.910813 321.070995 
L 212.33799 299.697173 
L 212.765167 302.863665 
L 213.619522 287.031204 
L 214.046699 291.780942 
L 214.901053 280.69822 
L 215.32823 284.656335 
L 215.755407 295.739058 
L 216.182584 295.739058 
L 216.609761 298.113927 
L 217.464115 313.154764 
L 218.318469 317.904503 
L 218.745646 324.237487 
L 219.172823 321.070995 
L 219.6 319.487749 
L 220.454354 331.362094 
L 221.735885 321.862618 
L 222.163062 305.238534 
L 222.590239 303.655288 
L 223.017416 301.280419 
L 223.444593 292.572565 
L 223.87177 289.406073 
L 224.298947 279.906597 
L 224.726124 275.156859 
L 225.153301 274.365236 
L 226.007656 290.197696 
L 226.434833 294.947435 
L 226.86201 294.947435 
L 227.289187 297.322304 
L 228.143541 309.196649 
L 228.997895 313.946387 
L 229.425072 314.73801 
L 229.852249 309.196649 
L 230.279426 302.072042 
L 230.706603 317.904503 
L 231.13378 323.445864 
L 231.560957 326.612356 
L 231.988134 319.487749 
L 232.415311 317.11288 
L 232.842488 295.739058 
L 233.269665 294.947435 
L 233.696842 284.656335 
L 234.124019 278.323351 
L 234.551196 276.740105 
L 234.978373 256.157906 
L 235.40555 255.366283 
L 235.832727 268.032251 
L 236.259904 264.865759 
L 236.687081 283.864712 
L 237.114258 291.780942 
L 237.968612 298.90555 
L 238.822967 315.529634 
L 239.250144 310.779895 
L 239.677321 312.363141 
L 240.104498 305.238534 
L 240.531675 306.030157 
L 240.958852 319.487749 
L 241.813206 331.362094 
L 242.240383 320.279372 
L 243.094737 279.906597 
L 243.521914 267.240628 
L 243.949091 271.198743 
L 244.376268 247.450052 
L 244.803445 255.366283 
L 245.230622 260.116021 
L 245.657799 232.409215 
L 246.084976 243.491937 
L 246.93933 275.948482 
L 247.366507 272.78199 
L 248.220861 305.238534 
L 248.648038 313.154764 
L 249.075215 313.946387 
L 249.502392 311.571518 
L 249.929569 316.321257 
L 250.356746 311.571518 
L 251.2111 306.82178 
L 251.638278 311.571518 
L 252.065455 307.613403 
L 252.492632 307.613403 
L 253.346986 265.657382 
L 253.774163 268.823874 
L 254.20134 247.450052 
L 254.628517 232.409215 
L 255.055694 234.784084 
L 255.482871 229.242723 
L 255.910048 227.659476 
L 256.337225 231.617592 
L 257.191579 262.49089 
L 258.045933 287.822827 
L 258.47311 294.947435 
L 258.900287 306.030157 
L 259.327464 308.405026 
L 260.181818 322.654241 
L 260.608995 316.321257 
L 261.036172 320.279372 
L 261.463349 317.11288 
L 261.890526 310.779895 
L 262.317703 317.904503 
L 263.172057 302.863665 
L 263.599234 298.90555 
L 264.026411 300.488796 
L 264.453589 295.739058 
L 264.880766 288.61445 
L 265.307943 289.406073 
L 265.73512 277.531728 
L 266.162297 283.073089 
L 266.589474 286.239581 
L 267.016651 293.364188 
L 267.871005 296.530681 
L 268.298182 307.613403 
L 268.725359 313.154764 
L 269.152536 313.946387 
L 269.579713 309.988272 
L 270.00689 318.696126 
L 270.434067 320.279372 
L 270.861244 319.487749 
L 271.288421 319.487749 
L 271.715598 321.862618 
L 272.142775 321.862618 
L 272.569952 320.279372 
L 272.997129 316.321257 
L 273.424306 316.321257 
L 273.851483 309.196649 
L 274.27866 306.82178 
L 275.133014 284.656335 
L 275.560191 290.197696 
L 275.987368 283.073089 
L 276.414545 267.240628 
L 276.841722 277.531728 
L 277.2689 283.073089 
L 277.696077 291.780942 
L 278.123254 294.155812 
L 278.550431 300.488796 
L 278.977608 304.446911 
L 279.404785 306.82178 
L 279.831962 306.82178 
L 280.686316 313.946387 
L 281.113493 315.529634 
L 281.54067 313.946387 
L 281.967847 314.73801 
L 282.395024 314.73801 
L 282.822201 323.445864 
L 283.249378 319.487749 
L 283.676555 306.82178 
L 284.103732 298.90555 
L 284.530909 309.196649 
L 284.958086 300.488796 
L 285.385263 277.531728 
L 285.81244 283.864712 
L 286.239617 281.489843 
L 286.666794 277.531728 
L 287.093971 283.864712 
L 287.521148 287.031204 
L 287.948325 294.947435 
L 288.802679 299.697173 
L 289.229856 306.030157 
L 290.084211 313.946387 
L 290.511388 314.73801 
L 290.938565 313.946387 
L 291.365742 317.904503 
L 292.220096 313.154764 
L 292.647273 319.487749 
L 293.07445 321.862618 
L 293.501627 320.279372 
L 293.928804 306.82178 
L 294.355981 306.82178 
L 294.783158 301.280419 
L 295.637512 295.739058 
L 296.064689 300.488796 
L 296.491866 290.197696 
L 297.34622 309.196649 
L 297.773397 313.946387 
L 298.200574 314.73801 
L 298.627751 313.946387 
L 299.482105 321.070995 
L 299.909282 326.612356 
L 300.336459 328.195602 
L 300.763636 325.02911 
L 301.190813 328.987225 
L 301.61799 325.02911 
L 302.045167 327.403979 
L 302.472344 326.612356 
L 302.899522 323.445864 
L 303.326699 330.570471 
L 303.753876 325.820733 
L 305.035407 308.405026 
L 305.462584 312.363141 
L 305.889761 302.863665 
L 306.316938 303.655288 
L 306.744115 295.739058 
L 307.171292 294.947435 
L 307.598469 305.238534 
L 308.025646 310.779895 
L 308.452823 317.904503 
L 308.88 317.11288 
L 309.307177 314.73801 
L 309.734354 321.070995 
L 310.161531 323.445864 
L 310.588708 328.195602 
L 311.015885 331.362094 
L 311.443062 326.612356 
L 311.870239 325.02911 
L 312.297416 325.820733 
L 312.724593 321.070995 
L 313.15177 332.153717 
L 313.578947 325.02911 
L 314.006124 320.279372 
L 314.860478 293.364188 
L 315.287656 294.947435 
L 315.714833 283.864712 
L 316.14201 287.031204 
L 316.569187 278.323351 
L 316.996364 284.656335 
L 317.423541 270.40712 
L 317.850718 285.447958 
L 318.277895 293.364188 
L 318.705072 306.82178 
L 319.132249 304.446911 
L 319.559426 316.321257 
L 319.986603 324.237487 
L 320.41378 328.987225 
L 320.840957 330.570471 
L 321.268134 325.820733 
L 321.695311 326.612356 
L 322.122488 322.654241 
L 322.549665 322.654241 
L 322.976842 320.279372 
L 323.404019 323.445864 
L 323.831196 328.195602 
L 324.68555 309.196649 
L 325.112727 292.572565 
L 325.539904 289.406073 
L 325.967081 275.156859 
L 326.394258 265.657382 
L 326.821435 271.198743 
L 327.248612 270.40712 
L 327.675789 282.281466 
L 328.102967 283.073089 
L 328.530144 290.989319 
L 328.957321 306.030157 
L 329.384498 308.405026 
L 329.811675 316.321257 
L 330.238852 331.362094 
L 330.666029 328.987225 
L 331.093206 328.987225 
L 331.94756 335.320209 
L 332.374737 332.153717 
L 332.801914 330.570471 
L 333.229091 330.570471 
L 333.656268 328.195602 
L 334.083445 336.111832 
L 334.510622 332.153717 
L 334.937799 324.237487 
L 335.364976 318.696126 
L 335.792153 316.321257 
L 336.21933 315.529634 
L 336.646507 305.238534 
L 337.073684 302.072042 
L 337.500861 306.82178 
L 337.928038 300.488796 
L 338.782392 312.363141 
L 339.209569 319.487749 
L 339.636746 323.445864 
L 340.063923 325.820733 
L 340.4911 329.778848 
L 340.918278 335.320209 
L 341.345455 336.111832 
L 341.772632 339.278325 
L 342.199809 339.278325 
L 342.626986 333.736963 
L 343.054163 332.153717 
L 343.48134 332.153717 
L 343.908517 328.987225 
L 344.335694 332.94534 
L 344.762871 326.612356 
L 345.190048 323.445864 
L 345.617225 306.030157 
L 346.044402 309.988272 
L 346.471579 307.613403 
L 346.898756 295.739058 
L 347.325933 298.90555 
L 347.75311 292.572565 
L 348.180287 295.739058 
L 348.607464 309.196649 
L 349.034641 316.321257 
L 349.461818 321.070995 
L 349.888995 322.654241 
L 350.316172 327.403979 
L 350.743349 330.570471 
L 351.170526 332.153717 
L 351.597703 332.153717 
L 352.02488 333.736963 
L 352.452057 336.111832 
L 352.879234 334.528586 
L 353.306411 330.570471 
L 353.733589 328.987225 
L 354.160766 328.987225 
L 354.587943 333.736963 
L 355.01512 331.362094 
L 355.442297 320.279372 
L 355.869474 314.73801 
L 356.296651 316.321257 
L 357.151005 304.446911 
L 357.578182 303.655288 
L 358.005359 295.739058 
L 358.432536 303.655288 
L 358.859713 308.405026 
L 359.714067 321.862618 
L 360.141244 318.696126 
L 360.568421 324.237487 
L 360.995598 323.445864 
L 361.849952 334.528586 
L 362.277129 336.111832 
L 362.704306 333.736963 
L 363.131483 333.736963 
L 363.55866 330.570471 
L 363.985837 331.362094 
L 364.413014 328.987225 
L 364.840191 335.320209 
L 365.694545 321.070995 
L 366.121722 334.528586 
L 366.5489 327.403979 
L 366.976077 330.570471 
L 367.403254 317.11288 
L 367.830431 324.237487 
L 368.257608 321.070995 
L 368.684785 332.153717 
L 369.111962 333.736963 
L 369.539139 342.444817 
L 370.393493 344.028063 
L 370.82067 345.611309 
L 371.247847 347.986178 
L 371.675024 349.569424 
L 372.102201 352.735916 
L 372.956555 355.902408 
L 373.383732 359.068901 
L 373.810909 360.652147 
L 374.238086 359.860524 
L 375.09244 361.44377 
L 375.519617 361.44377 
L 375.946794 360.652147 
L 376.373971 363.027016 
L 376.801148 363.818639 
L 377.655502 366.985131 
L 378.082679 367.776754 
L 378.509856 366.985131 
L 379.364211 363.818639 
L 380.218565 363.818639 
L 381.500096 361.44377 
L 381.927273 361.44377 
L 382.35445 362.235393 
L 382.781627 361.44377 
L 383.208804 361.44377 
L 384.063158 359.860524 
L 384.917512 359.860524 
L 385.344689 360.652147 
L 386.199043 359.068901 
L 386.62622 361.44377 
L 387.053397 362.235393 
L 387.480574 364.610262 
L 387.907751 365.401885 
L 388.334928 365.401885 
L 388.762105 364.610262 
L 389.189282 365.401885 
L 389.616459 364.610262 
L 390.470813 361.44377 
L 390.89799 362.235393 
L 391.325167 360.652147 
L 391.752344 359.860524 
L 392.179522 358.277277 
L 392.606699 359.860524 
L 393.033876 359.068901 
L 393.461053 359.068901 
L 393.88823 358.277277 
L 394.315407 359.068901 
L 394.742584 358.277277 
L 396.024115 358.277277 
L 396.878469 359.860524 
L 397.305646 361.44377 
L 397.732823 363.818639 
L 399.014354 366.193508 
L 399.441531 366.193508 
L 399.868708 364.610262 
L 400.295885 364.610262 
L 400.723062 363.027016 
L 401.577416 363.027016 
L 402.858947 360.652147 
L 404.140478 360.652147 
L 404.567656 359.860524 
L 404.994833 359.860524 
L 405.42201 360.652147 
L 405.849187 362.235393 
L 406.703541 362.235393 
L 408.412249 368.568377 
L 408.839426 367.776754 
L 409.266603 365.401885 
L 409.69378 363.818639 
L 410.975311 363.818639 
L 411.829665 362.235393 
L 412.256842 362.235393 
L 412.684019 361.44377 
L 413.111196 361.44377 
L 413.538373 362.235393 
L 413.96555 361.44377 
L 414.392727 359.860524 
L 414.819904 359.860524 
L 415.674258 361.44377 
L 416.101435 361.44377 
L 417.382967 363.818639 
L 418.237321 366.985131 
L 418.664498 366.985131 
L 419.091675 365.401885 
L 419.518852 366.193508 
L 419.946029 364.610262 
L 420.373206 363.818639 
L 421.654737 363.818639 
L 422.081914 362.235393 
L 422.509091 362.235393 
L 423.363445 360.652147 
L 423.790622 362.235393 
L 424.217799 362.235393 
L 424.644976 361.44377 
L 425.072153 361.44377 
L 425.49933 360.652147 
L 425.926507 360.652147 
L 427.635215 363.818639 
L 428.062392 366.193508 
L 428.916746 367.776754 
L 429.343923 367.776754 
L 429.7711 366.193508 
L 430.625455 364.610262 
L 431.052632 364.610262 
L 431.479809 363.818639 
L 431.906986 363.818639 
L 432.334163 362.235393 
L 432.76134 362.235393 
L 433.188517 363.027016 
L 433.615694 362.235393 
L 434.470048 362.235393 
L 434.897225 360.652147 
L 435.324402 359.860524 
L 435.751579 359.860524 
L 436.605933 361.44377 
L 437.03311 360.652147 
L 437.460287 361.44377 
L 437.887464 363.027016 
L 438.741818 369.36 
L 439.168995 369.36 
L 439.596172 368.568377 
L 440.023349 366.985131 
L 441.30488 364.610262 
L 441.732057 364.610262 
L 442.159234 363.027016 
L 442.586411 363.027016 
L 443.013589 362.235393 
L 443.867943 362.235393 
L 444.29512 361.44377 
L 444.722297 361.44377 
L 445.576651 359.860524 
L 446.003828 360.652147 
L 446.431005 359.860524 
L 448.139713 363.027016 
L 448.56689 364.610262 
L 448.994067 366.985131 
L 449.421244 367.776754 
L 449.848421 366.193508 
L 450.275598 363.818639 
L 450.702775 363.818639 
L 451.129952 361.44377 
L 451.557129 363.027016 
L 452.411483 363.027016 
L 452.83866 362.235393 
L 453.265837 362.235393 
L 453.693014 361.44377 
L 454.120191 361.44377 
L 454.547368 360.652147 
L 454.974545 361.44377 
L 455.401722 360.652147 
L 455.8289 361.44377 
L 456.256077 361.44377 
L 456.683254 359.068901 
L 457.110431 358.277277 
L 457.537608 359.068901 
L 457.964785 359.068901 
L 458.391962 360.652147 
L 458.819139 363.027016 
L 460.10067 363.027016 
L 460.527847 363.818639 
L 460.955024 363.027016 
L 461.382201 363.027016 
L 461.809378 361.44377 
L 462.236555 360.652147 
L 462.663732 359.068901 
L 463.090909 360.652147 
L 463.945263 359.068901 
L 464.37244 359.068901 
L 464.799617 359.860524 
L 465.226794 359.860524 
L 465.653971 359.068901 
L 467.362679 359.068901 
L 467.789856 358.277277 
L 469.071388 360.652147 
L 469.498565 364.610262 
L 469.925742 364.610262 
L 470.352919 366.985131 
L 470.780096 367.776754 
L 471.207273 366.193508 
L 471.63445 365.401885 
L 472.061627 363.818639 
L 472.488804 363.027016 
L 472.915981 363.027016 
L 473.770335 361.44377 
L 474.197512 361.44377 
L 474.624689 360.652147 
L 475.051866 360.652147 
L 475.479043 359.860524 
L 475.90622 360.652147 
L 476.333397 359.860524 
L 477.614928 362.235393 
L 478.042105 361.44377 
L 478.469282 361.44377 
L 479.323636 366.193508 
L 479.750813 367.776754 
L 480.605167 367.776754 
L 481.032344 366.985131 
L 481.459522 365.401885 
L 481.886699 365.401885 
L 482.313876 363.818639 
L 482.741053 363.818639 
L 483.16823 362.235393 
L 483.595407 362.235393 
L 484.022584 361.44377 
L 484.449761 361.44377 
L 484.876938 362.235393 
L 485.304115 362.235393 
L 485.731292 361.44377 
L 486.158469 361.44377 
L 486.585646 360.652147 
L 487.012823 360.652147 
L 487.44 361.44377 
L 487.867177 361.44377 
L 488.721531 363.027016 
L 489.575885 366.193508 
L 490.003062 368.568377 
L 491.284593 366.193508 
L 491.71177 363.818639 
L 492.138947 364.610262 
L 492.993301 364.610262 
L 493.847656 361.44377 
L 494.274833 362.235393 
L 494.70201 362.235393 
L 495.129187 361.44377 
L 495.983541 361.44377 
L 496.410718 360.652147 
L 496.837895 359.068901 
L 497.265072 359.860524 
L 497.692249 359.860524 
L 498.119426 360.652147 
L 498.546603 360.652147 
L 498.97378 362.235393 
L 499.828134 366.985131 
L 500.682488 368.568377 
L 501.109665 366.985131 
L 501.536842 366.985131 
L 501.964019 364.610262 
L 502.391196 363.818639 
L 502.818373 364.610262 
L 503.24555 363.818639 
L 503.672727 363.818639 
L 504.099904 363.027016 
L 504.527081 361.44377 
L 504.954258 362.235393 
L 505.381435 361.44377 
L 506.662967 361.44377 
L 507.090144 360.652147 
L 507.517321 360.652147 
L 507.944498 361.44377 
L 508.371675 361.44377 
L 509.226029 363.027016 
L 509.653206 364.610262 
L 510.080383 365.401885 
L 510.50756 366.985131 
L 510.934737 366.985131 
L 511.361914 367.776754 
L 511.789091 366.193508 
L 512.643445 364.610262 
L 513.070622 364.610262 
L 513.497799 363.818639 
L 513.924976 363.818639 
L 514.352153 362.235393 
L 514.77933 363.027016 
L 516.060861 360.652147 
L 516.488038 361.44377 
L 517.342392 359.860524 
L 517.769569 359.860524 
L 518.623923 361.44377 
L 519.478278 361.44377 
L 520.759809 366.193508 
L 521.186986 366.985131 
L 521.614163 366.985131 
L 522.04134 365.401885 
L 522.468517 365.401885 
L 522.895694 363.818639 
L 523.750048 363.818639 
L 524.177225 363.027016 
L 524.604402 363.027016 
L 525.458756 361.44377 
L 525.885933 361.44377 
L 526.31311 360.652147 
L 526.740287 360.652147 
L 527.167464 359.860524 
L 527.594641 359.860524 
L 528.448995 358.277277 
L 529.303349 359.860524 
L 529.730526 359.860524 
L 531.012057 364.610262 
L 531.866411 364.610262 
L 532.293589 365.401885 
L 532.720766 364.610262 
L 533.147943 363.027016 
L 533.57512 360.652147 
L 534.429474 360.652147 
L 534.856651 359.068901 
L 535.283828 359.860524 
L 535.711005 359.860524 
L 536.138182 360.652147 
L 536.565359 360.652147 
L 536.992536 359.860524 
L 537.419713 359.860524 
L 538.274067 356.694031 
L 538.701244 356.694031 
L 539.128421 359.068901 
L 539.555598 359.068901 
L 539.982775 358.277277 
L 540.409952 359.860524 
L 540.837129 360.652147 
L 541.264306 362.235393 
L 541.691483 364.610262 
L 542.11866 367.776754 
L 542.545837 366.985131 
L 542.973014 366.985131 
L 543.400191 365.401885 
L 545.1089 362.235393 
L 545.536077 362.235393 
L 545.963254 361.44377 
L 546.390431 361.44377 
L 546.817608 360.652147 
L 547.244785 361.44377 
L 548.099139 359.860524 
L 548.526316 361.44377 
L 549.38067 361.44377 
L 549.807847 362.235393 
L 550.235024 363.818639 
L 550.662201 364.610262 
L 551.089378 366.193508 
L 552.370909 368.568377 
L 553.225263 365.401885 
L 553.65244 364.610262 
L 554.079617 364.610262 
L 554.506794 363.027016 
L 554.933971 363.818639 
L 555.788325 362.235393 
L 556.215502 362.235393 
L 557.069856 360.652147 
L 557.924211 360.652147 
L 558.351388 359.860524 
L 559.205742 361.44377 
L 559.632919 361.44377 
L 560.060096 362.235393 
L 560.487273 362.235393 
L 561.341627 365.401885 
L 561.768804 367.776754 
L 562.195981 367.776754 
L 562.623158 366.193508 
L 563.050335 367.776754 
L 563.904689 364.610262 
L 564.759043 364.610262 
L 565.18622 363.027016 
L 565.613397 363.027016 
L 566.040574 362.235393 
L 566.467751 362.235393 
L 566.894928 361.44377 
L 567.749282 361.44377 
L 568.176459 360.652147 
L 568.603636 361.44377 
L 569.885167 361.44377 
L 570.312344 362.235393 
L 570.739522 363.818639 
L 571.166699 364.610262 
L 571.593876 366.985131 
L 572.021053 367.776754 
L 572.44823 366.193508 
L 572.875407 366.985131 
L 573.302584 366.193508 
L 573.729761 366.193508 
L 574.584115 364.610262 
L 575.438469 364.610262 
L 575.865646 363.027016 
L 576.292823 362.235393 
L 577.147177 362.235393 
L 577.574354 361.44377 
L 578.001531 362.235393 
L 578.428708 360.652147 
L 578.855885 359.860524 
L 579.710239 359.860524 
L 580.137416 360.652147 
L 580.564593 360.652147 
L 581.418947 362.235393 
L 582.273301 365.401885 
L 582.700478 365.401885 
L 583.127656 366.193508 
L 583.554833 364.610262 
L 584.836364 362.235393 
L 585.263541 360.652147 
L 585.690718 360.652147 
L 586.545072 359.068901 
L 586.972249 359.860524 
L 587.399426 359.860524 
L 587.826603 360.652147 
L 588.25378 360.652147 
L 588.680957 359.860524 
L 589.108134 360.652147 
L 589.535311 359.860524 
L 589.962488 360.652147 
L 590.389665 360.652147 
L 591.671196 363.027016 
L 592.098373 366.193508 
L 592.52555 366.985131 
L 592.952727 365.401885 
L 593.379904 366.193508 
L 593.807081 365.401885 
L 594.234258 363.818639 
L 594.661435 363.027016 
L 595.088612 363.027016 
L 595.515789 362.235393 
L 596.370144 362.235393 
L 597.651675 359.860524 
L 598.078852 359.860524 
L 598.506029 360.652147 
L 599.360383 359.068901 
L 599.78756 359.068901 
L 600.214737 359.860524 
L 600.641914 358.277277 
L 601.496268 359.860524 
L 601.923445 361.44377 
L 602.350622 363.818639 
L 602.777799 365.401885 
L 603.204976 364.610262 
L 603.632153 363.027016 
L 604.05933 363.027016 
L 604.486507 363.818639 
L 604.913684 362.235393 
L 605.768038 360.652147 
L 606.195215 360.652147 
L 606.622392 359.860524 
L 607.049569 359.860524 
L 607.476746 359.068901 
L 608.3311 359.068901 
L 609.185455 357.485654 
L 610.894163 357.485654 
L 611.32134 358.277277 
L 611.748517 357.485654 
L 612.602871 360.652147 
L 613.457225 365.401885 
L 613.884402 366.193508 
L 614.738756 366.193508 
L 615.165933 363.818639 
L 615.59311 364.610262 
L 616.020287 363.027016 
L 616.447464 362.235393 
L 616.874641 360.652147 
L 617.301818 361.44377 
L 617.728995 360.652147 
L 618.156172 360.652147 
L 618.583349 361.44377 
L 619.010526 359.860524 
L 619.437703 359.860524 
L 619.86488 359.068901 
L 620.292057 359.860524 
L 620.719234 359.860524 
L 621.573589 361.44377 
L 622.000766 361.44377 
L 622.427943 363.027016 
L 623.282297 364.610262 
L 623.709474 364.610262 
L 624.136651 362.235393 
L 624.563828 361.44377 
L 624.991005 359.860524 
L 625.418182 360.652147 
L 627.554067 356.694031 
L 627.981244 356.694031 
L 628.408421 358.277277 
L 628.835598 359.068901 
L 629.689952 357.485654 
L 630.971483 357.485654 
L 631.39866 358.277277 
L 632.680191 363.027016 
L 633.534545 367.776754 
L 633.961722 368.568377 
L 634.3889 367.776754 
L 634.816077 365.401885 
L 635.243254 366.985131 
L 635.670431 365.401885 
L 636.097608 364.610262 
L 636.524785 364.610262 
L 637.806316 362.235393 
L 638.233493 363.027016 
L 638.66067 355.902408 
L 639.087847 66.96 
L 639.515024 250.616545 
L 639.942201 360.652147 
L 640.369378 360.652147 
L 640.796555 359.860524 
L 641.223732 360.652147 
L 641.650909 360.652147 
L 642.078086 362.235393 
L 642.505263 362.235393 
L 642.93244 363.027016 
L 643.359617 366.193508 
L 643.786794 367.776754 
L 644.641148 369.36 
L 645.068325 366.985131 
L 646.349856 364.610262 
L 646.777033 364.610262 
L 648.485742 361.44377 
L 648.912919 362.235393 
L 649.340096 361.44377 
L 649.767273 361.44377 
L 651.048804 359.068901 
L 651.475981 359.068901 
L 651.903158 354.319162 
L 652.330335 355.902408 
L 652.757512 363.027016 
L 653.184689 361.44377 
L 653.611866 365.401885 
L 654.039043 367.776754 
L 654.46622 368.568377 
L 654.893397 368.568377 
L 655.320574 367.776754 
L 655.747751 366.193508 
L 656.174928 365.401885 
L 656.602105 365.401885 
L 658.310813 362.235393 
L 659.592344 362.235393 
L 660.019522 361.44377 
L 660.446699 359.860524 
L 660.873876 359.860524 
L 661.301053 360.652147 
L 661.72823 360.652147 
L 662.582584 362.235393 
L 663.436938 362.235393 
L 664.291292 367.776754 
L 664.718469 368.568377 
L 665.572823 368.568377 
L 666.427177 365.401885 
L 667.281531 363.818639 
L 667.708708 363.818639 
L 668.990239 361.44377 
L 669.417416 361.44377 
L 669.844593 360.652147 
L 670.27177 360.652147 
L 670.698947 359.860524 
L 671.553301 359.860524 
L 671.980478 359.068901 
L 672.407656 359.860524 
L 672.834833 359.860524 
L 673.26201 360.652147 
L 673.689187 362.235393 
L 674.116364 364.610262 
L 674.543541 365.401885 
L 674.970718 367.776754 
L 675.397895 368.568377 
L 675.825072 368.568377 
L 676.252249 366.193508 
L 676.679426 364.610262 
L 677.53378 363.027016 
L 677.960957 363.027016 
L 679.669665 359.860524 
L 680.524019 359.860524 
L 681.378373 358.277277 
L 681.80555 358.277277 
L 682.232727 357.485654 
L 682.659904 358.277277 
L 683.087081 356.694031 
L 683.514258 351.15267 
L 683.941435 342.444817 
L 684.368612 329.778848 
L 684.795789 325.02911 
L 685.222967 321.862618 
L 685.650144 328.195602 
L 686.077321 322.654241 
L 686.504498 324.237487 
L 687.358852 354.319162 
L 687.786029 360.652147 
L 688.213206 363.027016 
L 688.640383 363.027016 
L 689.494737 361.44377 
L 690.776268 361.44377 
L 691.630622 359.860524 
L 692.057799 360.652147 
L 692.484976 359.860524 
L 692.912153 362.235393 
L 693.33933 361.44377 
L 694.193684 363.027016 
L 695.048038 367.776754 
L 695.902392 369.36 
L 696.329569 369.36 
L 696.756746 367.776754 
L 697.183923 366.985131 
L 697.6111 366.985131 
L 698.038278 365.401885 
L 698.465455 365.401885 
L 699.746986 363.027016 
L 700.174163 363.027016 
L 700.60134 362.235393 
L 701.028517 363.027016 
L 701.455694 362.235393 
L 701.882871 362.235393 
L 702.310048 361.44377 
L 702.737225 362.235393 
L 703.591579 362.235393 
L 704.018756 363.027016 
L 704.445933 364.610262 
L 704.87311 366.985131 
L 705.300287 368.568377 
L 705.727464 369.36 
L 706.154641 369.36 
L 706.581818 368.568377 
L 707.008995 366.985131 
L 708.290526 364.610262 
L 708.717703 364.610262 
L 709.572057 363.027016 
L 709.999234 363.027016 
L 710.426411 362.235393 
L 710.853589 362.235393 
L 711.707943 360.652147 
L 713.416651 360.652147 
L 713.843828 362.235393 
L 714.698182 363.818639 
L 715.125359 366.193508 
L 715.979713 369.36 
L 716.40689 369.36 
L 716.834067 368.568377 
L 717.261244 366.985131 
L 718.115598 365.401885 
L 718.542775 365.401885 
L 719.824306 363.027016 
L 721.105837 363.027016 
L 721.533014 362.235393 
L 721.960191 360.652147 
L 722.814545 360.652147 
L 723.241722 361.44377 
L 723.6689 360.652147 
L 724.096077 362.235393 
L 724.523254 362.235393 
L 724.950431 363.818639 
L 725.377608 366.985131 
L 725.804785 368.568377 
L 726.231962 369.36 
L 726.659139 369.36 
L 727.086316 368.568377 
L 727.513493 366.985131 
L 728.367847 365.401885 
L 728.795024 365.401885 
L 730.076555 363.027016 
L 731.358086 363.027016 
L 732.639617 360.652147 
L 733.066794 361.44377 
L 734.348325 361.44377 
L 735.202679 363.027016 
L 735.629856 366.193508 
L 736.484211 369.36 
L 736.911388 369.36 
L 737.338565 368.568377 
L 737.765742 366.985131 
L 739.047273 364.610262 
L 739.47445 364.610262 
L 739.901627 363.818639 
L 740.328804 363.818639 
L 740.755981 362.235393 
L 741.183158 362.235393 
L 742.891866 359.068901 
L 743.319043 359.068901 
L 743.74622 357.485654 
L 744.173397 357.485654 
L 744.600574 358.277277 
L 745.027751 358.277277 
L 745.454928 359.860524 
L 745.454928 359.860524 
" style="fill:none;stroke:#1f77b4;stroke-linecap:square;stroke-width:1.5;"/>
   </g>
   <g id="line2d_19">
    <path clip-path="url(#p97fbb74fe2)" d="M 747.163636 384.48 
L 747.163636 51.84 
" style="fill:none;stroke:#808080;stroke-linecap:square;"/>
   </g>
   <g id="patch_45">
    <path d="M 108 384.48 
L 108 51.84 
" style="fill:none;stroke:#000000;stroke-linecap:square;stroke-linejoin:miter;stroke-width:0.8;"/>
   </g>
   <g id="patch_46">
    <path d="M 777.6 384.48 
L 777.6 51.84 
" style="fill:none;stroke:#000000;stroke-linecap:square;stroke-linejoin:miter;stroke-width:0.8;"/>
   </g>
   <g id="patch_47">
    <path d="M 108 384.48 
L 777.6 384.48 
" style="fill:none;stroke:#000000;stroke-linecap:square;stroke-linejoin:miter;stroke-width:0.8;"/>
   </g>
   <g id="patch_48">
    <path d="M 108 51.84 
L 777.6 51.84 
" style="fill:none;stroke:#000000;stroke-linecap:square;stroke-linejoin:miter;stroke-width:0.8;"/>
   </g>
   <g id="text_20">
    <!-- real_20.csv -->
    <defs>
     <path d="M 41.109375 46.296875 
Q 39.59375 47.171875 37.8125 47.578125 
Q 36.03125 48 33.890625 48 
Q 26.265625 48 22.1875 43.046875 
Q 18.109375 38.09375 18.109375 28.8125 
L 18.109375 0 
L 9.078125 0 
L 9.078125 54.6875 
L 18.109375 54.6875 
L 18.109375 46.1875 
Q 20.953125 51.171875 25.484375 53.578125 
Q 30.03125 56 36.53125 56 
Q 37.453125 56 38.578125 55.875 
Q 39.703125 55.765625 41.0625 55.515625 
z
" id="DejaVuSans-114"/>
     <path d="M 50.984375 -16.609375 
L 50.984375 -23.578125 
L -0.984375 -23.578125 
L -0.984375 -16.609375 
z
" id="DejaVuSans-95"/>
     <path d="M 48.78125 52.59375 
L 48.78125 44.1875 
Q 44.96875 46.296875 41.140625 47.34375 
Q 37.3125 48.390625 33.40625 48.390625 
Q 24.65625 48.390625 19.8125 42.84375 
Q 14.984375 37.3125 14.984375 27.296875 
Q 14.984375 17.28125 19.8125 11.734375 
Q 24.65625 6.203125 33.40625 6.203125 
Q 37.3125 6.203125 41.140625 7.25 
Q 44.96875 8.296875 48.78125 10.40625 
L 48.78125 2.09375 
Q 45.015625 0.34375 40.984375 -0.53125 
Q 36.96875 -1.421875 32.421875 -1.421875 
Q 20.0625 -1.421875 12.78125 6.34375 
Q 5.515625 14.109375 5.515625 27.296875 
Q 5.515625 40.671875 12.859375 48.328125 
Q 20.21875 56 33.015625 56 
Q 37.15625 56 41.109375 55.140625 
Q 45.0625 54.296875 48.78125 52.59375 
z
" id="DejaVuSans-99"/>
     <path d="M 2.984375 54.6875 
L 12.5 54.6875 
L 29.59375 8.796875 
L 46.6875 54.6875 
L 56.203125 54.6875 
L 35.6875 0 
L 23.484375 0 
z
" id="DejaVuSans-118"/>
    </defs>
    <g transform="translate(408.781875 45.84)scale(0.12 -0.12)">
     <use xlink:href="#DejaVuSans-114"/>
     <use x="41.082031" xlink:href="#DejaVuSans-101"/>
     <use x="102.605469" xlink:href="#DejaVuSans-97"/>
     <use x="163.884766" xlink:href="#DejaVuSans-108"/>
     <use x="191.667969" xlink:href="#DejaVuSans-95"/>
     <use x="241.667969" xlink:href="#DejaVuSans-50"/>
     <use x="305.291016" xlink:href="#DejaVuSans-48"/>
     <use x="368.914062" xlink:href="#DejaVuSans-46"/>
     <use x="400.701172" xlink:href="#DejaVuSans-99"/>
     <use x="455.681641" xlink:href="#DejaVuSans-115"/>
     <use x="507.78125" xlink:href="#DejaVuSans-118"/>
    </g>
   </g>
   <g id="legend_1">
    <g id="patch_49">
     <path d="M 115 74.518125 
L 174.315625 74.518125 
Q 176.315625 74.518125 176.315625 72.518125 
L 176.315625 58.84 
Q 176.315625 56.84 174.315625 56.84 
L 115 56.84 
Q 113 56.84 113 58.84 
L 113 72.518125 
Q 113 74.518125 115 74.518125 
z
" style="fill:#ffffff;opacity:0.8;stroke:#cccccc;stroke-linejoin:miter;"/>
    </g>
    <g id="line2d_20">
     <path d="M 117 64.938438 
L 137 64.938438 
" style="fill:none;stroke:#1f77b4;stroke-linecap:square;stroke-width:1.5;"/>
    </g>
    <g id="line2d_21"/>
    <g id="text_21">
     <!-- value -->
     <g transform="translate(145 68.438438)scale(0.1 -0.1)">
      <use xlink:href="#DejaVuSans-118"/>
      <use x="59.179688" xlink:href="#DejaVuSans-97"/>
      <use x="120.458984" xlink:href="#DejaVuSans-108"/>
      <use x="148.242188" xlink:href="#DejaVuSans-117"/>
      <use x="211.621094" xlink:href="#DejaVuSans-101"/>
     </g>
    </g>
   </g>
  </g>
 </g>
 <defs>
  <clipPath id="p97fbb74fe2">
   <rect height="332.64" width="669.6" x="108" y="51.84"/>
  </clipPath>
 </defs>
</svg>
