<?xml version="1.0" encoding="utf-8" standalone="no"?>
<!DOCTYPE svg PUBLIC "-//W3C//DTD SVG 1.1//EN"
  "http://www.w3.org/Graphics/SVG/1.1/DTD/svg11.dtd">
<!-- Created with matplotlib (https://matplotlib.org/) -->
<svg height="432pt" version="1.1" viewBox="0 0 864 432" width="864pt" xmlns="http://www.w3.org/2000/svg" xmlns:xlink="http://www.w3.org/1999/xlink">
 <defs>
  <style type="text/css">
*{stroke-linecap:butt;stroke-linejoin:round;}
  </style>
 </defs>
 <g id="figure_1">
  <g id="patch_1">
   <path d="M 0 432 
L 864 432 
L 864 0 
L 0 0 
z
" style="fill:#ffffff;"/>
  </g>
  <g id="axes_1">
   <g id="patch_2">
    <path d="M 108 384.48 
L 777.6 384.48 
L 777.6 51.84 
L 108 51.84 
z
" style="fill:#ffffff;"/>
   </g>
   <g id="patch_3">
    <path clip-path="url(#p7cd313e8ef)" d="M 138.436364 384.48 
L 138.436364 51.84 
L 373.218972 51.84 
L 373.218972 384.48 
z
" style="fill:#0000ff;opacity:0.05;"/>
   </g>
   <g id="patch_4">
    <path clip-path="url(#p7cd313e8ef)" d="M 373.218972 384.48 
L 373.218972 51.84 
L 746.736759 51.84 
L 746.736759 384.48 
z
" style="fill:#ff0000;opacity:0.08;"/>
   </g>
   <g id="patch_5">
    <path clip-path="url(#p7cd313e8ef)" d="M 138.436364 384.48 
L 138.436364 51.84 
L 149.1083 51.84 
L 149.1083 384.48 
z
" style="fill:#008000;opacity:0.04;"/>
   </g>
   <g id="patch_6">
    <path clip-path="url(#p7cd313e8ef)" d="M 159.780237 384.48 
L 159.780237 51.84 
L 170.452174 51.84 
L 170.452174 384.48 
z
" style="fill:#008000;opacity:0.04;"/>
   </g>
   <g id="patch_7">
    <path clip-path="url(#p7cd313e8ef)" d="M 159.780237 384.48 
L 159.780237 371.1744 
L 170.452174 371.1744 
L 170.452174 384.48 
z
" style="fill:#ffe500;"/>
   </g>
   <g id="patch_8">
    <path clip-path="url(#p7cd313e8ef)" d="M 181.124111 384.48 
L 181.124111 51.84 
L 191.796047 51.84 
L 191.796047 384.48 
z
" style="fill:#008000;opacity:0.04;"/>
   </g>
   <g id="patch_9">
    <path clip-path="url(#p7cd313e8ef)" d="M 202.467984 384.48 
L 202.467984 51.84 
L 213.139921 51.84 
L 213.139921 384.48 
z
" style="fill:#008000;opacity:0.04;"/>
   </g>
   <g id="patch_10">
    <path clip-path="url(#p7cd313e8ef)" d="M 223.811858 384.48 
L 223.811858 51.84 
L 234.483794 51.84 
L 234.483794 384.48 
z
" style="fill:#008000;opacity:0.04;"/>
   </g>
   <g id="patch_11">
    <path clip-path="url(#p7cd313e8ef)" d="M 245.155731 384.48 
L 245.155731 51.84 
L 255.827668 51.84 
L 255.827668 384.48 
z
" style="fill:#008000;opacity:0.04;"/>
   </g>
   <g id="patch_12">
    <path clip-path="url(#p7cd313e8ef)" d="M 266.499605 384.48 
L 266.499605 51.84 
L 277.171542 51.84 
L 277.171542 384.48 
z
" style="fill:#008000;opacity:0.04;"/>
   </g>
   <g id="patch_13">
    <path clip-path="url(#p7cd313e8ef)" d="M 287.843478 384.48 
L 287.843478 51.84 
L 298.515415 51.84 
L 298.515415 384.48 
z
" style="fill:#008000;opacity:0.04;"/>
   </g>
   <g id="patch_14">
    <path clip-path="url(#p7cd313e8ef)" d="M 298.515415 384.48 
L 298.515415 371.1744 
L 309.187352 371.1744 
L 309.187352 384.48 
z
" style="fill:#ffe500;"/>
   </g>
   <g id="patch_15">
    <path clip-path="url(#p7cd313e8ef)" d="M 309.187352 384.48 
L 309.187352 51.84 
L 319.859289 51.84 
L 319.859289 384.48 
z
" style="fill:#008000;opacity:0.04;"/>
   </g>
   <g id="patch_16">
    <path clip-path="url(#p7cd313e8ef)" d="M 330.531225 384.48 
L 330.531225 51.84 
L 341.203162 51.84 
L 341.203162 384.48 
z
" style="fill:#008000;opacity:0.04;"/>
   </g>
   <g id="patch_17">
    <path clip-path="url(#p7cd313e8ef)" d="M 351.875099 384.48 
L 351.875099 51.84 
L 362.547036 51.84 
L 362.547036 384.48 
z
" style="fill:#008000;opacity:0.04;"/>
   </g>
   <g id="patch_18">
    <path clip-path="url(#p7cd313e8ef)" d="M 373.218972 384.48 
L 373.218972 51.84 
L 383.890909 51.84 
L 383.890909 384.48 
z
" style="fill:#008000;opacity:0.04;"/>
   </g>
   <g id="patch_19">
    <path clip-path="url(#p7cd313e8ef)" d="M 394.562846 384.48 
L 394.562846 51.84 
L 405.234783 51.84 
L 405.234783 384.48 
z
" style="fill:#008000;opacity:0.04;"/>
   </g>
   <g id="patch_20">
    <path clip-path="url(#p7cd313e8ef)" d="M 415.906719 384.48 
L 415.906719 51.84 
L 426.578656 51.84 
L 426.578656 384.48 
z
" style="fill:#008000;opacity:0.04;"/>
   </g>
   <g id="patch_21">
    <path clip-path="url(#p7cd313e8ef)" d="M 437.250593 384.48 
L 437.250593 51.84 
L 447.92253 51.84 
L 447.92253 384.48 
z
" style="fill:#008000;opacity:0.04;"/>
   </g>
   <g id="patch_22">
    <path clip-path="url(#p7cd313e8ef)" d="M 458.594466 384.48 
L 458.594466 51.84 
L 469.266403 51.84 
L 469.266403 384.48 
z
" style="fill:#008000;opacity:0.04;"/>
   </g>
   <g id="patch_23">
    <path clip-path="url(#p7cd313e8ef)" d="M 479.93834 384.48 
L 479.93834 51.84 
L 490.610277 51.84 
L 490.610277 384.48 
z
" style="fill:#008000;opacity:0.04;"/>
   </g>
   <g id="patch_24">
    <path clip-path="url(#p7cd313e8ef)" d="M 501.282213 384.48 
L 501.282213 51.84 
L 511.95415 51.84 
L 511.95415 384.48 
z
" style="fill:#008000;opacity:0.04;"/>
   </g>
   <g id="patch_25">
    <path clip-path="url(#p7cd313e8ef)" d="M 522.626087 384.48 
L 522.626087 51.84 
L 533.298024 51.84 
L 533.298024 384.48 
z
" style="fill:#008000;opacity:0.04;"/>
   </g>
   <g id="patch_26">
    <path clip-path="url(#p7cd313e8ef)" d="M 543.96996 384.48 
L 543.96996 51.84 
L 554.641897 51.84 
L 554.641897 384.48 
z
" style="fill:#008000;opacity:0.04;"/>
   </g>
   <g id="patch_27">
    <path clip-path="url(#p7cd313e8ef)" d="M 565.313834 384.48 
L 565.313834 51.84 
L 575.985771 51.84 
L 575.985771 384.48 
z
" style="fill:#008000;opacity:0.04;"/>
   </g>
   <g id="patch_28">
    <path clip-path="url(#p7cd313e8ef)" d="M 586.657708 384.48 
L 586.657708 51.84 
L 597.329644 51.84 
L 597.329644 384.48 
z
" style="fill:#008000;opacity:0.04;"/>
   </g>
   <g id="patch_29">
    <path clip-path="url(#p7cd313e8ef)" d="M 608.001581 384.48 
L 608.001581 51.84 
L 618.673518 51.84 
L 618.673518 384.48 
z
" style="fill:#008000;opacity:0.04;"/>
   </g>
   <g id="patch_30">
    <path clip-path="url(#p7cd313e8ef)" d="M 629.345455 384.48 
L 629.345455 51.84 
L 640.017391 51.84 
L 640.017391 384.48 
z
" style="fill:#008000;opacity:0.04;"/>
   </g>
   <g id="patch_31">
    <path clip-path="url(#p7cd313e8ef)" d="M 650.689328 384.48 
L 650.689328 51.84 
L 661.361265 51.84 
L 661.361265 384.48 
z
" style="fill:#008000;opacity:0.04;"/>
   </g>
   <g id="patch_32">
    <path clip-path="url(#p7cd313e8ef)" d="M 672.033202 384.48 
L 672.033202 51.84 
L 682.705138 51.84 
L 682.705138 384.48 
z
" style="fill:#008000;opacity:0.04;"/>
   </g>
   <g id="patch_33">
    <path clip-path="url(#p7cd313e8ef)" d="M 693.377075 384.48 
L 693.377075 51.84 
L 704.049012 51.84 
L 704.049012 384.48 
z
" style="fill:#008000;opacity:0.04;"/>
   </g>
   <g id="patch_34">
    <path clip-path="url(#p7cd313e8ef)" d="M 714.720949 384.48 
L 714.720949 51.84 
L 725.392885 51.84 
L 725.392885 384.48 
z
" style="fill:#008000;opacity:0.04;"/>
   </g>
   <g id="patch_35">
    <path clip-path="url(#p7cd313e8ef)" d="M 736.064822 384.48 
L 736.064822 51.84 
L 746.736759 51.84 
L 746.736759 384.48 
z
" style="fill:#008000;opacity:0.04;"/>
   </g>
   <g id="matplotlib.axis_1">
    <g id="xtick_1">
     <g id="line2d_1">
      <defs>
       <path d="M 0 0 
L 0 3.5 
" id="m25a277f979" style="stroke:#000000;stroke-width:0.8;"/>
      </defs>
      <g>
       <use style="stroke:#000000;stroke-width:0.8;" x="138.436364" xlink:href="#m25a277f979" y="384.48"/>
      </g>
     </g>
     <g id="text_1">
      <!-- 0 -->
      <defs>
       <path d="M 31.78125 66.40625 
Q 24.171875 66.40625 20.328125 58.90625 
Q 16.5 51.421875 16.5 36.375 
Q 16.5 21.390625 20.328125 13.890625 
Q 24.171875 6.390625 31.78125 6.390625 
Q 39.453125 6.390625 43.28125 13.890625 
Q 47.125 21.390625 47.125 36.375 
Q 47.125 51.421875 43.28125 58.90625 
Q 39.453125 66.40625 31.78125 66.40625 
z
M 31.78125 74.21875 
Q 44.046875 74.21875 50.515625 64.515625 
Q 56.984375 54.828125 56.984375 36.375 
Q 56.984375 17.96875 50.515625 8.265625 
Q 44.046875 -1.421875 31.78125 -1.421875 
Q 19.53125 -1.421875 13.0625 8.265625 
Q 6.59375 17.96875 6.59375 36.375 
Q 6.59375 54.828125 13.0625 64.515625 
Q 19.53125 74.21875 31.78125 74.21875 
z
" id="DejaVuSans-48"/>
      </defs>
      <g transform="translate(135.255114 399.078438)scale(0.1 -0.1)">
       <use xlink:href="#DejaVuSans-48"/>
      </g>
     </g>
    </g>
    <g id="xtick_2">
     <g id="line2d_2">
      <g>
       <use style="stroke:#000000;stroke-width:0.8;" x="223.811858" xlink:href="#m25a277f979" y="384.48"/>
      </g>
     </g>
     <g id="text_2">
      <!-- 200 -->
      <defs>
       <path d="M 19.1875 8.296875 
L 53.609375 8.296875 
L 53.609375 0 
L 7.328125 0 
L 7.328125 8.296875 
Q 12.9375 14.109375 22.625 23.890625 
Q 32.328125 33.6875 34.8125 36.53125 
Q 39.546875 41.84375 41.421875 45.53125 
Q 43.3125 49.21875 43.3125 52.78125 
Q 43.3125 58.59375 39.234375 62.25 
Q 35.15625 65.921875 28.609375 65.921875 
Q 23.96875 65.921875 18.8125 64.3125 
Q 13.671875 62.703125 7.8125 59.421875 
L 7.8125 69.390625 
Q 13.765625 71.78125 18.9375 73 
Q 24.125 74.21875 28.421875 74.21875 
Q 39.75 74.21875 46.484375 68.546875 
Q 53.21875 62.890625 53.21875 53.421875 
Q 53.21875 48.921875 51.53125 44.890625 
Q 49.859375 40.875 45.40625 35.40625 
Q 44.1875 33.984375 37.640625 27.21875 
Q 31.109375 20.453125 19.1875 8.296875 
z
" id="DejaVuSans-50"/>
      </defs>
      <g transform="translate(214.268108 399.078438)scale(0.1 -0.1)">
       <use xlink:href="#DejaVuSans-50"/>
       <use x="63.623047" xlink:href="#DejaVuSans-48"/>
       <use x="127.246094" xlink:href="#DejaVuSans-48"/>
      </g>
     </g>
    </g>
    <g id="xtick_3">
     <g id="line2d_3">
      <g>
       <use style="stroke:#000000;stroke-width:0.8;" x="309.187352" xlink:href="#m25a277f979" y="384.48"/>
      </g>
     </g>
     <g id="text_3">
      <!-- 400 -->
      <defs>
       <path d="M 37.796875 64.3125 
L 12.890625 25.390625 
L 37.796875 25.390625 
z
M 35.203125 72.90625 
L 47.609375 72.90625 
L 47.609375 25.390625 
L 58.015625 25.390625 
L 58.015625 17.1875 
L 47.609375 17.1875 
L 47.609375 0 
L 37.796875 0 
L 37.796875 17.1875 
L 4.890625 17.1875 
L 4.890625 26.703125 
z
" id="DejaVuSans-52"/>
      </defs>
      <g transform="translate(299.643602 399.078438)scale(0.1 -0.1)">
       <use xlink:href="#DejaVuSans-52"/>
       <use x="63.623047" xlink:href="#DejaVuSans-48"/>
       <use x="127.246094" xlink:href="#DejaVuSans-48"/>
      </g>
     </g>
    </g>
    <g id="xtick_4">
     <g id="line2d_4">
      <g>
       <use style="stroke:#000000;stroke-width:0.8;" x="394.562846" xlink:href="#m25a277f979" y="384.48"/>
      </g>
     </g>
     <g id="text_4">
      <!-- 600 -->
      <defs>
       <path d="M 33.015625 40.375 
Q 26.375 40.375 22.484375 35.828125 
Q 18.609375 31.296875 18.609375 23.390625 
Q 18.609375 15.53125 22.484375 10.953125 
Q 26.375 6.390625 33.015625 6.390625 
Q 39.65625 6.390625 43.53125 10.953125 
Q 47.40625 15.53125 47.40625 23.390625 
Q 47.40625 31.296875 43.53125 35.828125 
Q 39.65625 40.375 33.015625 40.375 
z
M 52.59375 71.296875 
L 52.59375 62.3125 
Q 48.875 64.0625 45.09375 64.984375 
Q 41.3125 65.921875 37.59375 65.921875 
Q 27.828125 65.921875 22.671875 59.328125 
Q 17.53125 52.734375 16.796875 39.40625 
Q 19.671875 43.65625 24.015625 45.921875 
Q 28.375 48.1875 33.59375 48.1875 
Q 44.578125 48.1875 50.953125 41.515625 
Q 57.328125 34.859375 57.328125 23.390625 
Q 57.328125 12.15625 50.6875 5.359375 
Q 44.046875 -1.421875 33.015625 -1.421875 
Q 20.359375 -1.421875 13.671875 8.265625 
Q 6.984375 17.96875 6.984375 36.375 
Q 6.984375 53.65625 15.1875 63.9375 
Q 23.390625 74.21875 37.203125 74.21875 
Q 40.921875 74.21875 44.703125 73.484375 
Q 48.484375 72.75 52.59375 71.296875 
z
" id="DejaVuSans-54"/>
      </defs>
      <g transform="translate(385.019096 399.078438)scale(0.1 -0.1)">
       <use xlink:href="#DejaVuSans-54"/>
       <use x="63.623047" xlink:href="#DejaVuSans-48"/>
       <use x="127.246094" xlink:href="#DejaVuSans-48"/>
      </g>
     </g>
    </g>
    <g id="xtick_5">
     <g id="line2d_5">
      <g>
       <use style="stroke:#000000;stroke-width:0.8;" x="479.93834" xlink:href="#m25a277f979" y="384.48"/>
      </g>
     </g>
     <g id="text_5">
      <!-- 800 -->
      <defs>
       <path d="M 31.78125 34.625 
Q 24.75 34.625 20.71875 30.859375 
Q 16.703125 27.09375 16.703125 20.515625 
Q 16.703125 13.921875 20.71875 10.15625 
Q 24.75 6.390625 31.78125 6.390625 
Q 38.8125 6.390625 42.859375 10.171875 
Q 46.921875 13.96875 46.921875 20.515625 
Q 46.921875 27.09375 42.890625 30.859375 
Q 38.875 34.625 31.78125 34.625 
z
M 21.921875 38.8125 
Q 15.578125 40.375 12.03125 44.71875 
Q 8.5 49.078125 8.5 55.328125 
Q 8.5 64.0625 14.71875 69.140625 
Q 20.953125 74.21875 31.78125 74.21875 
Q 42.671875 74.21875 48.875 69.140625 
Q 55.078125 64.0625 55.078125 55.328125 
Q 55.078125 49.078125 51.53125 44.71875 
Q 48 40.375 41.703125 38.8125 
Q 48.828125 37.15625 52.796875 32.3125 
Q 56.78125 27.484375 56.78125 20.515625 
Q 56.78125 9.90625 50.3125 4.234375 
Q 43.84375 -1.421875 31.78125 -1.421875 
Q 19.734375 -1.421875 13.25 4.234375 
Q 6.78125 9.90625 6.78125 20.515625 
Q 6.78125 27.484375 10.78125 32.3125 
Q 14.796875 37.15625 21.921875 38.8125 
z
M 18.3125 54.390625 
Q 18.3125 48.734375 21.84375 45.5625 
Q 25.390625 42.390625 31.78125 42.390625 
Q 38.140625 42.390625 41.71875 45.5625 
Q 45.3125 48.734375 45.3125 54.390625 
Q 45.3125 60.0625 41.71875 63.234375 
Q 38.140625 66.40625 31.78125 66.40625 
Q 25.390625 66.40625 21.84375 63.234375 
Q 18.3125 60.0625 18.3125 54.390625 
z
" id="DejaVuSans-56"/>
      </defs>
      <g transform="translate(470.39459 399.078438)scale(0.1 -0.1)">
       <use xlink:href="#DejaVuSans-56"/>
       <use x="63.623047" xlink:href="#DejaVuSans-48"/>
       <use x="127.246094" xlink:href="#DejaVuSans-48"/>
      </g>
     </g>
    </g>
    <g id="xtick_6">
     <g id="line2d_6">
      <g>
       <use style="stroke:#000000;stroke-width:0.8;" x="565.313834" xlink:href="#m25a277f979" y="384.48"/>
      </g>
     </g>
     <g id="text_6">
      <!-- 1000 -->
      <defs>
       <path d="M 12.40625 8.296875 
L 28.515625 8.296875 
L 28.515625 63.921875 
L 10.984375 60.40625 
L 10.984375 69.390625 
L 28.421875 72.90625 
L 38.28125 72.90625 
L 38.28125 8.296875 
L 54.390625 8.296875 
L 54.390625 0 
L 12.40625 0 
z
" id="DejaVuSans-49"/>
      </defs>
      <g transform="translate(552.588834 399.078438)scale(0.1 -0.1)">
       <use xlink:href="#DejaVuSans-49"/>
       <use x="63.623047" xlink:href="#DejaVuSans-48"/>
       <use x="127.246094" xlink:href="#DejaVuSans-48"/>
       <use x="190.869141" xlink:href="#DejaVuSans-48"/>
      </g>
     </g>
    </g>
    <g id="xtick_7">
     <g id="line2d_7">
      <g>
       <use style="stroke:#000000;stroke-width:0.8;" x="650.689328" xlink:href="#m25a277f979" y="384.48"/>
      </g>
     </g>
     <g id="text_7">
      <!-- 1200 -->
      <g transform="translate(637.964328 399.078438)scale(0.1 -0.1)">
       <use xlink:href="#DejaVuSans-49"/>
       <use x="63.623047" xlink:href="#DejaVuSans-50"/>
       <use x="127.246094" xlink:href="#DejaVuSans-48"/>
       <use x="190.869141" xlink:href="#DejaVuSans-48"/>
      </g>
     </g>
    </g>
    <g id="xtick_8">
     <g id="line2d_8">
      <g>
       <use style="stroke:#000000;stroke-width:0.8;" x="736.064822" xlink:href="#m25a277f979" y="384.48"/>
      </g>
     </g>
     <g id="text_8">
      <!-- 1400 -->
      <g transform="translate(723.339822 399.078438)scale(0.1 -0.1)">
       <use xlink:href="#DejaVuSans-49"/>
       <use x="63.623047" xlink:href="#DejaVuSans-52"/>
       <use x="127.246094" xlink:href="#DejaVuSans-48"/>
       <use x="190.869141" xlink:href="#DejaVuSans-48"/>
      </g>
     </g>
    </g>
    <g id="text_9">
     <!-- Timestamp -->
     <defs>
      <path d="M -0.296875 72.90625 
L 61.375 72.90625 
L 61.375 64.59375 
L 35.5 64.59375 
L 35.5 0 
L 25.59375 0 
L 25.59375 64.59375 
L -0.296875 64.59375 
z
" id="DejaVuSans-84"/>
      <path d="M 9.421875 54.6875 
L 18.40625 54.6875 
L 18.40625 0 
L 9.421875 0 
z
M 9.421875 75.984375 
L 18.40625 75.984375 
L 18.40625 64.59375 
L 9.421875 64.59375 
z
" id="DejaVuSans-105"/>
      <path d="M 52 44.1875 
Q 55.375 50.25 60.0625 53.125 
Q 64.75 56 71.09375 56 
Q 79.640625 56 84.28125 50.015625 
Q 88.921875 44.046875 88.921875 33.015625 
L 88.921875 0 
L 79.890625 0 
L 79.890625 32.71875 
Q 79.890625 40.578125 77.09375 44.375 
Q 74.3125 48.1875 68.609375 48.1875 
Q 61.625 48.1875 57.5625 43.546875 
Q 53.515625 38.921875 53.515625 30.90625 
L 53.515625 0 
L 44.484375 0 
L 44.484375 32.71875 
Q 44.484375 40.625 41.703125 44.40625 
Q 38.921875 48.1875 33.109375 48.1875 
Q 26.21875 48.1875 22.15625 43.53125 
Q 18.109375 38.875 18.109375 30.90625 
L 18.109375 0 
L 9.078125 0 
L 9.078125 54.6875 
L 18.109375 54.6875 
L 18.109375 46.1875 
Q 21.1875 51.21875 25.484375 53.609375 
Q 29.78125 56 35.6875 56 
Q 41.65625 56 45.828125 52.96875 
Q 50 49.953125 52 44.1875 
z
" id="DejaVuSans-109"/>
      <path d="M 56.203125 29.59375 
L 56.203125 25.203125 
L 14.890625 25.203125 
Q 15.484375 15.921875 20.484375 11.0625 
Q 25.484375 6.203125 34.421875 6.203125 
Q 39.59375 6.203125 44.453125 7.46875 
Q 49.3125 8.734375 54.109375 11.28125 
L 54.109375 2.78125 
Q 49.265625 0.734375 44.1875 -0.34375 
Q 39.109375 -1.421875 33.890625 -1.421875 
Q 20.796875 -1.421875 13.15625 6.1875 
Q 5.515625 13.8125 5.515625 26.8125 
Q 5.515625 40.234375 12.765625 48.109375 
Q 20.015625 56 32.328125 56 
Q 43.359375 56 49.78125 48.890625 
Q 56.203125 41.796875 56.203125 29.59375 
z
M 47.21875 32.234375 
Q 47.125 39.59375 43.09375 43.984375 
Q 39.0625 48.390625 32.421875 48.390625 
Q 24.90625 48.390625 20.390625 44.140625 
Q 15.875 39.890625 15.1875 32.171875 
z
" id="DejaVuSans-101"/>
      <path d="M 44.28125 53.078125 
L 44.28125 44.578125 
Q 40.484375 46.53125 36.375 47.5 
Q 32.28125 48.484375 27.875 48.484375 
Q 21.1875 48.484375 17.84375 46.4375 
Q 14.5 44.390625 14.5 40.28125 
Q 14.5 37.15625 16.890625 35.375 
Q 19.28125 33.59375 26.515625 31.984375 
L 29.59375 31.296875 
Q 39.15625 29.25 43.1875 25.515625 
Q 47.21875 21.78125 47.21875 15.09375 
Q 47.21875 7.46875 41.1875 3.015625 
Q 35.15625 -1.421875 24.609375 -1.421875 
Q 20.21875 -1.421875 15.453125 -0.5625 
Q 10.6875 0.296875 5.421875 2 
L 5.421875 11.28125 
Q 10.40625 8.6875 15.234375 7.390625 
Q 20.0625 6.109375 24.8125 6.109375 
Q 31.15625 6.109375 34.5625 8.28125 
Q 37.984375 10.453125 37.984375 14.40625 
Q 37.984375 18.0625 35.515625 20.015625 
Q 33.0625 21.96875 24.703125 23.78125 
L 21.578125 24.515625 
Q 13.234375 26.265625 9.515625 29.90625 
Q 5.8125 33.546875 5.8125 39.890625 
Q 5.8125 47.609375 11.28125 51.796875 
Q 16.75 56 26.8125 56 
Q 31.78125 56 36.171875 55.265625 
Q 40.578125 54.546875 44.28125 53.078125 
z
" id="DejaVuSans-115"/>
      <path d="M 18.3125 70.21875 
L 18.3125 54.6875 
L 36.8125 54.6875 
L 36.8125 47.703125 
L 18.3125 47.703125 
L 18.3125 18.015625 
Q 18.3125 11.328125 20.140625 9.421875 
Q 21.96875 7.515625 27.59375 7.515625 
L 36.8125 7.515625 
L 36.8125 0 
L 27.59375 0 
Q 17.1875 0 13.234375 3.875 
Q 9.28125 7.765625 9.28125 18.015625 
L 9.28125 47.703125 
L 2.6875 47.703125 
L 2.6875 54.6875 
L 9.28125 54.6875 
L 9.28125 70.21875 
z
" id="DejaVuSans-116"/>
      <path d="M 34.28125 27.484375 
Q 23.390625 27.484375 19.1875 25 
Q 14.984375 22.515625 14.984375 16.5 
Q 14.984375 11.71875 18.140625 8.90625 
Q 21.296875 6.109375 26.703125 6.109375 
Q 34.1875 6.109375 38.703125 11.40625 
Q 43.21875 16.703125 43.21875 25.484375 
L 43.21875 27.484375 
z
M 52.203125 31.203125 
L 52.203125 0 
L 43.21875 0 
L 43.21875 8.296875 
Q 40.140625 3.328125 35.546875 0.953125 
Q 30.953125 -1.421875 24.3125 -1.421875 
Q 15.921875 -1.421875 10.953125 3.296875 
Q 6 8.015625 6 15.921875 
Q 6 25.140625 12.171875 29.828125 
Q 18.359375 34.515625 30.609375 34.515625 
L 43.21875 34.515625 
L 43.21875 35.40625 
Q 43.21875 41.609375 39.140625 45 
Q 35.0625 48.390625 27.6875 48.390625 
Q 23 48.390625 18.546875 47.265625 
Q 14.109375 46.140625 10.015625 43.890625 
L 10.015625 52.203125 
Q 14.9375 54.109375 19.578125 55.046875 
Q 24.21875 56 28.609375 56 
Q 40.484375 56 46.34375 49.84375 
Q 52.203125 43.703125 52.203125 31.203125 
z
" id="DejaVuSans-97"/>
      <path d="M 18.109375 8.203125 
L 18.109375 -20.796875 
L 9.078125 -20.796875 
L 9.078125 54.6875 
L 18.109375 54.6875 
L 18.109375 46.390625 
Q 20.953125 51.265625 25.265625 53.625 
Q 29.59375 56 35.59375 56 
Q 45.5625 56 51.78125 48.09375 
Q 58.015625 40.1875 58.015625 27.296875 
Q 58.015625 14.40625 51.78125 6.484375 
Q 45.5625 -1.421875 35.59375 -1.421875 
Q 29.59375 -1.421875 25.265625 0.953125 
Q 20.953125 3.328125 18.109375 8.203125 
z
M 48.6875 27.296875 
Q 48.6875 37.203125 44.609375 42.84375 
Q 40.53125 48.484375 33.40625 48.484375 
Q 26.265625 48.484375 22.1875 42.84375 
Q 18.109375 37.203125 18.109375 27.296875 
Q 18.109375 17.390625 22.1875 11.75 
Q 26.265625 6.109375 33.40625 6.109375 
Q 40.53125 6.109375 44.609375 11.75 
Q 48.6875 17.390625 48.6875 27.296875 
z
" id="DejaVuSans-112"/>
     </defs>
     <g transform="translate(414.739062 412.756563)scale(0.1 -0.1)">
      <use xlink:href="#DejaVuSans-84"/>
      <use x="61.037109" xlink:href="#DejaVuSans-105"/>
      <use x="88.820312" xlink:href="#DejaVuSans-109"/>
      <use x="186.232422" xlink:href="#DejaVuSans-101"/>
      <use x="247.755859" xlink:href="#DejaVuSans-115"/>
      <use x="299.855469" xlink:href="#DejaVuSans-116"/>
      <use x="339.064453" xlink:href="#DejaVuSans-97"/>
      <use x="400.34375" xlink:href="#DejaVuSans-109"/>
      <use x="497.755859" xlink:href="#DejaVuSans-112"/>
     </g>
    </g>
   </g>
   <g id="matplotlib.axis_2">
    <g id="ytick_1">
     <g id="line2d_9">
      <defs>
       <path d="M 0 0 
L -3.5 0 
" id="mfccdfdb25c" style="stroke:#000000;stroke-width:0.8;"/>
      </defs>
      <g>
       <use style="stroke:#000000;stroke-width:0.8;" x="108" xlink:href="#mfccdfdb25c" y="369.36"/>
      </g>
     </g>
     <g id="text_10">
      <!-- 0 -->
      <g transform="translate(94.6375 373.159219)scale(0.1 -0.1)">
       <use xlink:href="#DejaVuSans-48"/>
      </g>
     </g>
    </g>
    <g id="ytick_2">
     <g id="line2d_10">
      <g>
       <use style="stroke:#000000;stroke-width:0.8;" x="108" xlink:href="#mfccdfdb25c" y="331.56"/>
      </g>
     </g>
     <g id="text_11">
      <!-- 25 -->
      <defs>
       <path d="M 10.796875 72.90625 
L 49.515625 72.90625 
L 49.515625 64.59375 
L 19.828125 64.59375 
L 19.828125 46.734375 
Q 21.96875 47.46875 24.109375 47.828125 
Q 26.265625 48.1875 28.421875 48.1875 
Q 40.625 48.1875 47.75 41.5 
Q 54.890625 34.8125 54.890625 23.390625 
Q 54.890625 11.625 47.5625 5.09375 
Q 40.234375 -1.421875 26.90625 -1.421875 
Q 22.3125 -1.421875 17.546875 -0.640625 
Q 12.796875 0.140625 7.71875 1.703125 
L 7.71875 11.625 
Q 12.109375 9.234375 16.796875 8.0625 
Q 21.484375 6.890625 26.703125 6.890625 
Q 35.15625 6.890625 40.078125 11.328125 
Q 45.015625 15.765625 45.015625 23.390625 
Q 45.015625 31 40.078125 35.4375 
Q 35.15625 39.890625 26.703125 39.890625 
Q 22.75 39.890625 18.8125 39.015625 
Q 14.890625 38.140625 10.796875 36.28125 
z
" id="DejaVuSans-53"/>
      </defs>
      <g transform="translate(88.275 335.359219)scale(0.1 -0.1)">
       <use xlink:href="#DejaVuSans-50"/>
       <use x="63.623047" xlink:href="#DejaVuSans-53"/>
      </g>
     </g>
    </g>
    <g id="ytick_3">
     <g id="line2d_11">
      <g>
       <use style="stroke:#000000;stroke-width:0.8;" x="108" xlink:href="#mfccdfdb25c" y="293.76"/>
      </g>
     </g>
     <g id="text_12">
      <!-- 50 -->
      <g transform="translate(88.275 297.559219)scale(0.1 -0.1)">
       <use xlink:href="#DejaVuSans-53"/>
       <use x="63.623047" xlink:href="#DejaVuSans-48"/>
      </g>
     </g>
    </g>
    <g id="ytick_4">
     <g id="line2d_12">
      <g>
       <use style="stroke:#000000;stroke-width:0.8;" x="108" xlink:href="#mfccdfdb25c" y="255.96"/>
      </g>
     </g>
     <g id="text_13">
      <!-- 75 -->
      <defs>
       <path d="M 8.203125 72.90625 
L 55.078125 72.90625 
L 55.078125 68.703125 
L 28.609375 0 
L 18.3125 0 
L 43.21875 64.59375 
L 8.203125 64.59375 
z
" id="DejaVuSans-55"/>
      </defs>
      <g transform="translate(88.275 259.759219)scale(0.1 -0.1)">
       <use xlink:href="#DejaVuSans-55"/>
       <use x="63.623047" xlink:href="#DejaVuSans-53"/>
      </g>
     </g>
    </g>
    <g id="ytick_5">
     <g id="line2d_13">
      <g>
       <use style="stroke:#000000;stroke-width:0.8;" x="108" xlink:href="#mfccdfdb25c" y="218.16"/>
      </g>
     </g>
     <g id="text_14">
      <!-- 100 -->
      <g transform="translate(81.9125 221.959219)scale(0.1 -0.1)">
       <use xlink:href="#DejaVuSans-49"/>
       <use x="63.623047" xlink:href="#DejaVuSans-48"/>
       <use x="127.246094" xlink:href="#DejaVuSans-48"/>
      </g>
     </g>
    </g>
    <g id="ytick_6">
     <g id="line2d_14">
      <g>
       <use style="stroke:#000000;stroke-width:0.8;" x="108" xlink:href="#mfccdfdb25c" y="180.36"/>
      </g>
     </g>
     <g id="text_15">
      <!-- 125 -->
      <g transform="translate(81.9125 184.159219)scale(0.1 -0.1)">
       <use xlink:href="#DejaVuSans-49"/>
       <use x="63.623047" xlink:href="#DejaVuSans-50"/>
       <use x="127.246094" xlink:href="#DejaVuSans-53"/>
      </g>
     </g>
    </g>
    <g id="ytick_7">
     <g id="line2d_15">
      <g>
       <use style="stroke:#000000;stroke-width:0.8;" x="108" xlink:href="#mfccdfdb25c" y="142.56"/>
      </g>
     </g>
     <g id="text_16">
      <!-- 150 -->
      <g transform="translate(81.9125 146.359219)scale(0.1 -0.1)">
       <use xlink:href="#DejaVuSans-49"/>
       <use x="63.623047" xlink:href="#DejaVuSans-53"/>
       <use x="127.246094" xlink:href="#DejaVuSans-48"/>
      </g>
     </g>
    </g>
    <g id="ytick_8">
     <g id="line2d_16">
      <g>
       <use style="stroke:#000000;stroke-width:0.8;" x="108" xlink:href="#mfccdfdb25c" y="104.76"/>
      </g>
     </g>
     <g id="text_17">
      <!-- 175 -->
      <g transform="translate(81.9125 108.559219)scale(0.1 -0.1)">
       <use xlink:href="#DejaVuSans-49"/>
       <use x="63.623047" xlink:href="#DejaVuSans-55"/>
       <use x="127.246094" xlink:href="#DejaVuSans-53"/>
      </g>
     </g>
    </g>
    <g id="ytick_9">
     <g id="line2d_17">
      <g>
       <use style="stroke:#000000;stroke-width:0.8;" x="108" xlink:href="#mfccdfdb25c" y="66.96"/>
      </g>
     </g>
     <g id="text_18">
      <!-- 200 -->
      <g transform="translate(81.9125 70.759219)scale(0.1 -0.1)">
       <use xlink:href="#DejaVuSans-50"/>
       <use x="63.623047" xlink:href="#DejaVuSans-48"/>
       <use x="127.246094" xlink:href="#DejaVuSans-48"/>
      </g>
     </g>
    </g>
    <g id="text_19">
     <!-- Value -->
     <defs>
      <path d="M 28.609375 0 
L 0.78125 72.90625 
L 11.078125 72.90625 
L 34.1875 11.53125 
L 57.328125 72.90625 
L 67.578125 72.90625 
L 39.796875 0 
z
" id="DejaVuSans-86"/>
      <path d="M 9.421875 75.984375 
L 18.40625 75.984375 
L 18.40625 0 
L 9.421875 0 
z
" id="DejaVuSans-108"/>
      <path d="M 8.5 21.578125 
L 8.5 54.6875 
L 17.484375 54.6875 
L 17.484375 21.921875 
Q 17.484375 14.15625 20.5 10.265625 
Q 23.53125 6.390625 29.59375 6.390625 
Q 36.859375 6.390625 41.078125 11.03125 
Q 45.3125 15.671875 45.3125 23.6875 
L 45.3125 54.6875 
L 54.296875 54.6875 
L 54.296875 0 
L 45.3125 0 
L 45.3125 8.40625 
Q 42.046875 3.421875 37.71875 1 
Q 33.40625 -1.421875 27.6875 -1.421875 
Q 18.265625 -1.421875 13.375 4.4375 
Q 8.5 10.296875 8.5 21.578125 
z
M 31.109375 56 
z
" id="DejaVuSans-117"/>
     </defs>
     <g transform="translate(75.832812 232.273281)rotate(-90)scale(0.1 -0.1)">
      <use xlink:href="#DejaVuSans-86"/>
      <use x="68.298828" xlink:href="#DejaVuSans-97"/>
      <use x="129.578125" xlink:href="#DejaVuSans-108"/>
      <use x="157.361328" xlink:href="#DejaVuSans-117"/>
      <use x="220.740234" xlink:href="#DejaVuSans-101"/>
     </g>
    </g>
   </g>
   <g id="line2d_18">
    <path clip-path="url(#p7cd313e8ef)" d="M 138.436364 369.36 
L 138.863241 360.288 
L 139.290119 275.616 
L 139.716996 262.008 
L 140.143874 301.32 
L 140.570751 275.616 
L 140.997628 317.952 
L 141.424506 314.928 
L 141.851383 304.344 
L 142.278261 308.88 
L 142.705138 328.536 
L 143.132016 292.248 
L 143.558893 293.76 
L 143.985771 311.904 
L 144.412648 304.344 
L 144.839526 307.368 
L 145.266403 274.104 
L 145.693281 292.248 
L 146.120158 340.632 
L 146.547036 348.192 
L 146.973913 349.704 
L 147.400791 339.12 
L 147.827668 336.096 
L 148.254545 328.536 
L 148.681423 328.536 
L 149.1083 322.488 
L 149.535178 302.832 
L 149.962055 308.88 
L 150.388933 330.048 
L 150.81581 249.912 
L 151.242688 200.016 
L 151.669565 166.752 
L 152.096443 216.648 
L 152.52332 310.392 
L 153.377075 333.072 
L 154.23083 308.88 
L 154.657708 342.144 
L 155.084585 355.752 
L 155.511462 299.808 
L 155.93834 320.976 
L 156.365217 319.464 
L 156.792095 339.12 
L 157.218972 352.728 
L 157.64585 349.704 
L 158.072727 352.728 
L 158.499605 354.24 
L 158.926482 337.608 
L 159.35336 351.216 
L 159.780237 327.024 
L 160.207115 339.12 
L 160.633992 337.608 
L 161.06087 337.608 
L 161.487747 284.688 
L 161.914625 316.44 
L 162.768379 319.464 
L 163.195257 322.488 
L 163.622134 322.488 
L 164.049012 283.176 
L 164.475889 317.952 
L 164.902767 304.344 
L 165.329644 296.784 
L 165.756522 272.592 
L 166.183399 296.784 
L 166.610277 287.712 
L 167.037154 310.392 
L 167.464032 317.952 
L 167.890909 320.976 
L 168.317787 343.656 
L 169.171542 330.048 
L 169.598419 292.248 
L 170.025296 331.56 
L 170.452174 195.48 
L 170.879051 278.64 
L 171.305929 147.096 
L 171.732806 203.04 
L 172.159684 160.704 
L 172.586561 231.768 
L 173.013439 271.08 
L 173.440316 210.6 
L 173.867194 299.808 
L 174.294071 278.64 
L 174.720949 245.376 
L 175.147826 118.368 
L 175.574704 172.8 
L 176.001581 260.496 
L 176.428458 249.912 
L 176.855336 301.32 
L 177.282213 330.048 
L 177.709091 325.512 
L 178.135968 325.512 
L 178.562846 339.12 
L 178.989723 330.048 
L 179.416601 328.536 
L 179.843478 277.128 
L 180.270356 265.032 
L 180.697233 281.664 
L 181.124111 246.888 
L 181.550988 307.368 
L 181.977866 298.296 
L 182.404743 302.832 
L 182.831621 298.296 
L 183.258498 274.104 
L 183.685375 289.224 
L 184.112253 246.888 
L 184.53913 263.52 
L 184.966008 249.912 
L 185.392885 254.448 
L 185.819763 293.76 
L 186.24664 240.84 
L 186.673518 292.248 
L 187.100395 280.152 
L 187.527273 346.68 
L 187.95415 345.168 
L 188.381028 340.632 
L 188.807905 345.168 
L 189.234783 345.168 
L 189.66166 327.024 
L 190.088538 316.44 
L 190.942292 281.664 
L 191.36917 255.96 
L 191.796047 272.592 
L 192.222925 296.784 
L 192.649802 296.784 
L 193.07668 283.176 
L 193.503557 299.808 
L 193.930435 257.472 
L 194.357312 284.688 
L 194.78419 257.472 
L 195.211067 295.272 
L 195.637945 301.32 
L 196.064822 193.968 
L 196.4917 213.624 
L 196.918577 251.424 
L 197.345455 316.44 
L 197.772332 302.832 
L 198.199209 320.976 
L 198.626087 333.072 
L 199.052964 337.608 
L 199.479842 330.048 
L 199.906719 336.096 
L 200.333597 283.176 
L 200.760474 260.496 
L 201.187352 278.64 
L 201.614229 278.64 
L 202.041107 274.104 
L 202.467984 260.496 
L 202.894862 201.528 
L 203.321739 284.688 
L 203.748617 268.056 
L 204.175494 292.248 
L 204.602372 258.984 
L 205.029249 144.072 
L 205.456126 193.968 
L 205.883004 157.68 
L 206.309881 225.72 
L 206.736759 215.136 
L 207.163636 255.96 
L 207.590514 263.52 
L 208.017391 301.32 
L 208.444269 295.272 
L 208.871146 307.368 
L 209.298024 243.864 
L 209.724901 255.96 
L 210.151779 340.632 
L 210.578656 204.552 
L 211.005534 195.48 
L 211.432411 139.536 
L 211.859289 187.92 
L 212.286166 304.344 
L 212.713043 281.664 
L 213.139921 290.736 
L 213.566798 245.376 
L 213.993676 215.136 
L 214.420553 225.72 
L 214.847431 298.296 
L 215.274308 308.88 
L 215.701186 272.592 
L 216.128063 295.272 
L 216.554941 277.128 
L 217.408696 310.392 
L 217.835573 271.08 
L 218.262451 181.872 
L 218.689328 334.584 
L 219.116206 333.072 
L 219.543083 251.424 
L 219.96996 268.056 
L 220.396838 327.024 
L 220.823715 333.072 
L 221.250593 322.488 
L 221.67747 290.736 
L 222.104348 290.736 
L 222.531225 246.888 
L 222.958103 257.472 
L 223.38498 233.28 
L 223.811858 287.712 
L 224.238735 314.928 
L 224.665613 248.4 
L 225.09249 249.912 
L 225.519368 263.52 
L 225.946245 289.224 
L 226.373123 275.616 
L 226.8 280.152 
L 227.226877 290.736 
L 227.653755 316.44 
L 228.080632 320.976 
L 228.50751 292.248 
L 228.934387 302.832 
L 229.361265 293.76 
L 229.788142 255.96 
L 230.21502 266.544 
L 230.641897 320.976 
L 231.068775 320.976 
L 231.495652 302.832 
L 231.92253 295.272 
L 232.349407 324 
L 232.776285 311.904 
L 233.203162 246.888 
L 233.63004 200.016 
L 234.056917 192.456 
L 234.483794 175.824 
L 234.910672 255.96 
L 235.337549 224.208 
L 235.764427 172.8 
L 236.191304 187.92 
L 236.618182 183.384 
L 237.045059 246.888 
L 237.471937 207.576 
L 237.898814 302.832 
L 238.325692 295.272 
L 238.752569 295.272 
L 239.179447 337.608 
L 239.606324 310.392 
L 240.033202 327.024 
L 240.460079 311.904 
L 240.886957 222.696 
L 241.313834 249.912 
L 241.740711 216.648 
L 242.167589 290.736 
L 243.021344 311.904 
L 243.448221 287.712 
L 243.875099 172.8 
L 244.728854 278.64 
L 245.155731 233.28 
L 245.582609 281.664 
L 246.009486 230.256 
L 246.436364 234.792 
L 247.290119 295.272 
L 247.716996 222.696 
L 248.143874 210.6 
L 248.570751 308.88 
L 248.997628 352.728 
L 249.851383 331.56 
L 250.278261 327.024 
L 250.705138 336.096 
L 251.132016 351.216 
L 251.558893 322.488 
L 251.985771 278.64 
L 252.412648 254.448 
L 252.839526 245.376 
L 253.266403 240.84 
L 253.693281 271.08 
L 254.120158 280.152 
L 254.547036 265.032 
L 254.973913 257.472 
L 255.400791 189.432 
L 255.827668 266.544 
L 256.254545 239.328 
L 256.681423 190.944 
L 257.1083 231.768 
L 257.535178 228.744 
L 257.962055 209.088 
L 258.388933 287.712 
L 258.81581 289.224 
L 259.242688 343.656 
L 259.669565 349.704 
L 260.52332 325.512 
L 260.950198 319.464 
L 261.377075 307.368 
L 261.803953 313.416 
L 262.23083 311.904 
L 262.657708 271.08 
L 263.084585 213.624 
L 263.511462 225.72 
L 263.93834 184.896 
L 264.365217 200.016 
L 264.792095 266.544 
L 265.218972 271.08 
L 265.64585 248.4 
L 266.499605 299.808 
L 266.926482 233.28 
L 267.35336 198.504 
L 267.780237 192.456 
L 268.633992 314.928 
L 269.06087 281.664 
L 269.487747 316.44 
L 269.914625 340.632 
L 270.768379 328.536 
L 271.195257 298.296 
L 271.622134 287.712 
L 272.475889 328.536 
L 272.902767 320.976 
L 273.329644 263.52 
L 273.756522 165.24 
L 274.183399 195.48 
L 274.610277 189.432 
L 275.037154 248.4 
L 275.464032 265.032 
L 275.890909 248.4 
L 276.317787 196.992 
L 276.744664 200.016 
L 277.171542 278.64 
L 277.598419 280.152 
L 278.025296 283.176 
L 278.452174 301.32 
L 278.879051 301.32 
L 279.305929 290.736 
L 279.732806 330.048 
L 280.159684 346.68 
L 280.586561 331.56 
L 281.013439 324 
L 281.440316 345.168 
L 282.294071 298.296 
L 282.720949 310.392 
L 283.147826 305.856 
L 283.574704 308.88 
L 284.001581 325.512 
L 284.428458 249.912 
L 284.855336 255.96 
L 285.282213 228.744 
L 286.135968 287.712 
L 286.562846 266.544 
L 286.989723 231.768 
L 287.416601 272.592 
L 287.843478 281.664 
L 288.270356 263.52 
L 288.697233 311.904 
L 289.124111 298.296 
L 289.977866 325.512 
L 290.404743 233.28 
L 290.831621 258.984 
L 291.258498 328.536 
L 291.685375 331.56 
L 292.112253 313.416 
L 292.53913 305.856 
L 292.966008 239.328 
L 293.392885 292.248 
L 293.819763 277.128 
L 294.24664 174.312 
L 294.673518 163.728 
L 295.100395 135 
L 295.527273 233.28 
L 295.95415 260.496 
L 296.381028 249.912 
L 296.807905 153.144 
L 297.234783 260.496 
L 297.66166 268.056 
L 298.088538 293.76 
L 298.515415 255.96 
L 298.942292 274.104 
L 299.36917 280.152 
L 299.796047 281.664 
L 300.222925 317.952 
L 300.649802 317.952 
L 301.07668 316.44 
L 301.503557 317.952 
L 301.930435 304.344 
L 302.357312 316.44 
L 303.211067 281.664 
L 303.637945 302.832 
L 304.064822 304.344 
L 304.4917 292.248 
L 304.918577 258.984 
L 305.345455 254.448 
L 305.772332 269.568 
L 306.199209 271.08 
L 306.626087 316.44 
L 307.052964 252.936 
L 307.479842 260.496 
L 307.906719 280.152 
L 308.333597 284.688 
L 308.760474 301.32 
L 309.187352 263.52 
L 309.614229 260.496 
L 310.041107 254.448 
L 310.467984 268.056 
L 310.894862 255.96 
L 311.321739 308.88 
L 311.748617 327.024 
L 312.175494 330.048 
L 312.602372 313.416 
L 313.029249 322.488 
L 313.456126 265.032 
L 313.883004 287.712 
L 314.309881 255.96 
L 314.736759 252.936 
L 315.590514 133.488 
L 316.017391 162.216 
L 316.444269 271.08 
L 316.871146 243.864 
L 317.298024 233.28 
L 317.724901 218.16 
L 318.151779 290.736 
L 318.578656 296.784 
L 319.005534 242.352 
L 319.432411 242.352 
L 319.859289 281.664 
L 320.286166 299.808 
L 320.713043 305.856 
L 321.139921 334.584 
L 321.566798 340.632 
L 321.993676 310.392 
L 322.420553 314.928 
L 322.847431 314.928 
L 323.274308 317.952 
L 323.701186 319.464 
L 324.128063 254.448 
L 324.554941 272.592 
L 324.981818 219.672 
L 325.408696 225.72 
L 325.835573 274.104 
L 326.262451 290.736 
L 326.689328 287.712 
L 327.116206 287.712 
L 327.543083 263.52 
L 327.96996 286.2 
L 328.396838 287.712 
L 328.823715 166.752 
L 329.250593 169.776 
L 329.67747 142.56 
L 330.104348 213.624 
L 330.531225 305.856 
L 330.958103 292.248 
L 331.38498 222.696 
L 331.811858 178.848 
L 332.238735 242.352 
L 332.665613 327.024 
L 333.09249 262.008 
L 333.519368 293.76 
L 333.946245 299.808 
L 334.373123 248.4 
L 334.8 284.688 
L 335.226877 156.168 
L 335.653755 150.12 
L 336.080632 193.968 
L 336.50751 195.48 
L 336.934387 275.616 
L 337.361265 257.472 
L 337.788142 219.672 
L 338.641897 272.592 
L 339.068775 255.96 
L 339.495652 154.656 
L 339.92253 213.624 
L 340.349407 290.736 
L 340.776285 227.232 
L 341.203162 289.224 
L 341.63004 319.464 
L 342.056917 339.12 
L 342.483794 308.88 
L 342.910672 360.288 
L 343.337549 345.168 
L 343.764427 296.784 
L 344.191304 311.904 
L 344.618182 231.768 
L 345.045059 230.256 
L 345.471937 213.624 
L 345.898814 103.248 
L 346.752569 274.104 
L 347.606324 290.736 
L 348.033202 222.696 
L 348.460079 224.208 
L 348.886957 269.568 
L 349.313834 243.864 
L 349.740711 192.456 
L 350.167589 166.752 
L 351.021344 258.984 
L 351.448221 280.152 
L 351.875099 311.904 
L 352.301976 328.536 
L 352.728854 316.44 
L 353.155731 333.072 
L 353.582609 322.488 
L 354.009486 295.272 
L 354.436364 298.296 
L 354.863241 271.08 
L 355.290119 200.016 
L 355.716996 254.448 
L 356.143874 249.912 
L 356.570751 287.712 
L 356.997628 157.68 
L 357.424506 228.744 
L 357.851383 243.864 
L 358.278261 246.888 
L 358.705138 219.672 
L 359.132016 296.784 
L 359.558893 257.472 
L 359.985771 268.056 
L 360.412648 301.32 
L 360.839526 237.816 
L 361.266403 324 
L 361.693281 296.784 
L 362.120158 215.136 
L 362.547036 299.808 
L 362.973913 337.608 
L 363.400791 255.96 
L 363.827668 257.472 
L 364.254545 255.96 
L 364.681423 260.496 
L 365.1083 172.8 
L 365.535178 255.96 
L 365.962055 204.552 
L 366.388933 254.448 
L 366.81581 249.912 
L 367.242688 246.888 
L 367.669565 189.432 
L 368.096443 219.672 
L 368.950198 162.216 
L 369.377075 245.376 
L 369.803953 274.104 
L 370.23083 237.816 
L 370.657708 212.112 
L 371.084585 157.68 
L 371.511462 280.152 
L 371.93834 302.832 
L 372.792095 327.024 
L 373.218972 284.688 
L 373.64585 322.488 
L 374.072727 327.024 
L 374.926482 252.936 
L 375.35336 233.28 
L 375.780237 163.728 
L 376.207115 162.216 
L 376.633992 181.872 
L 377.06087 286.2 
L 377.914625 206.064 
L 378.341502 265.032 
L 378.768379 272.592 
L 379.195257 268.056 
L 379.622134 231.768 
L 380.049012 266.544 
L 380.475889 260.496 
L 380.902767 320.976 
L 381.329644 324 
L 381.756522 342.144 
L 382.183399 327.024 
L 382.610277 275.616 
L 383.037154 272.592 
L 383.464032 325.512 
L 383.890909 343.656 
L 384.744664 322.488 
L 385.171542 298.296 
L 385.598419 308.88 
L 386.025296 286.2 
L 386.452174 243.864 
L 386.879051 299.808 
L 387.305929 327.024 
L 387.732806 324 
L 388.159684 281.664 
L 388.586561 275.616 
L 389.013439 313.416 
L 389.440316 245.376 
L 389.867194 227.232 
L 390.294071 240.84 
L 390.720949 237.816 
L 391.147826 242.352 
L 391.574704 304.344 
L 392.001581 257.472 
L 392.428458 313.416 
L 392.855336 331.56 
L 393.282213 314.928 
L 393.709091 346.68 
L 394.135968 367.848 
L 394.989723 330.048 
L 395.416601 284.688 
L 395.843478 283.176 
L 396.270356 260.496 
L 396.697233 275.616 
L 397.124111 260.496 
L 397.550988 255.96 
L 397.977866 271.08 
L 398.404743 141.048 
L 398.831621 133.488 
L 399.258498 209.088 
L 399.685375 213.624 
L 400.112253 187.92 
L 400.53913 201.528 
L 400.966008 153.144 
L 401.819763 275.616 
L 402.24664 280.152 
L 402.673518 277.128 
L 403.100395 334.584 
L 403.527273 337.608 
L 403.95415 320.976 
L 404.381028 334.584 
L 404.807905 298.296 
L 405.234783 289.224 
L 405.66166 283.176 
L 406.088538 266.544 
L 406.515415 242.352 
L 406.942292 201.528 
L 407.36917 257.472 
L 407.796047 266.544 
L 408.222925 224.208 
L 408.649802 308.88 
L 409.07668 295.272 
L 409.503557 263.52 
L 409.930435 302.832 
L 410.357312 148.608 
L 410.78419 184.896 
L 411.211067 154.656 
L 411.637945 225.72 
L 412.064822 317.952 
L 412.4917 286.2 
L 412.918577 302.832 
L 413.345455 311.904 
L 413.772332 289.224 
L 414.199209 319.464 
L 414.626087 322.488 
L 415.052964 277.128 
L 415.906719 316.44 
L 416.333597 263.52 
L 416.760474 245.376 
L 417.187352 257.472 
L 417.614229 246.888 
L 418.041107 206.064 
L 418.467984 227.232 
L 418.894862 281.664 
L 419.321739 227.232 
L 419.748617 230.256 
L 420.175494 287.712 
L 420.602372 277.128 
L 421.029249 228.744 
L 421.456126 162.216 
L 421.883004 224.208 
L 422.309881 243.864 
L 422.736759 234.792 
L 423.163636 295.272 
L 423.590514 290.736 
L 424.017391 314.928 
L 424.444269 314.928 
L 424.871146 307.368 
L 425.298024 316.44 
L 425.724901 302.832 
L 426.151779 330.048 
L 427.005534 295.272 
L 427.432411 311.904 
L 427.859289 284.688 
L 428.286166 313.416 
L 429.139921 213.624 
L 429.566798 245.376 
L 429.993676 260.496 
L 430.420553 281.664 
L 430.847431 287.712 
L 431.274308 257.472 
L 431.701186 245.376 
L 432.128063 320.976 
L 432.554941 295.272 
L 432.981818 311.904 
L 433.408696 317.952 
L 433.835573 337.608 
L 434.262451 293.76 
L 434.689328 327.024 
L 435.116206 302.832 
L 435.543083 322.488 
L 435.96996 296.784 
L 436.396838 295.272 
L 436.823715 284.688 
L 437.250593 278.64 
L 437.67747 265.032 
L 438.104348 262.008 
L 438.531225 296.784 
L 438.958103 295.272 
L 439.38498 283.176 
L 439.811858 292.248 
L 440.238735 328.536 
L 440.665613 268.056 
L 441.09249 281.664 
L 441.519368 248.4 
L 441.946245 249.912 
L 442.373123 289.224 
L 442.8 160.704 
L 443.226877 287.712 
L 443.653755 320.976 
L 444.080632 333.072 
L 444.50751 336.096 
L 444.934387 342.144 
L 445.361265 324 
L 445.788142 327.024 
L 446.21502 331.56 
L 446.641897 322.488 
L 447.068775 317.952 
L 447.495652 225.72 
L 447.92253 305.856 
L 448.349407 274.104 
L 448.776285 271.08 
L 449.203162 254.448 
L 449.63004 308.88 
L 450.056917 278.64 
L 450.483794 301.32 
L 450.910672 296.784 
L 451.337549 295.272 
L 451.764427 224.208 
L 452.191304 225.72 
L 452.618182 110.808 
L 453.045059 239.328 
L 453.471937 299.808 
L 453.898814 233.28 
L 454.325692 328.536 
L 454.752569 299.808 
L 455.179447 207.576 
L 455.606324 295.272 
L 456.033202 305.856 
L 456.460079 293.76 
L 456.886957 252.936 
L 457.313834 299.808 
L 458.167589 240.84 
L 458.594466 224.208 
L 459.021344 224.208 
L 459.448221 216.648 
L 459.875099 248.4 
L 460.301976 234.792 
L 460.728854 258.984 
L 461.155731 299.808 
L 461.582609 274.104 
L 462.009486 275.616 
L 462.436364 219.672 
L 462.863241 237.816 
L 463.716996 314.928 
L 464.143874 240.84 
L 464.570751 216.648 
L 464.997628 307.368 
L 465.424506 304.344 
L 465.851383 305.856 
L 466.278261 317.952 
L 466.705138 296.784 
L 467.132016 237.816 
L 467.558893 251.424 
L 467.985771 248.4 
L 468.412648 240.84 
L 468.839526 190.944 
L 469.266403 233.28 
L 469.693281 257.472 
L 470.547036 224.208 
L 470.973913 195.48 
L 471.400791 159.192 
L 471.827668 265.032 
L 472.254545 243.864 
L 472.681423 248.4 
L 473.535178 281.664 
L 473.962055 314.928 
L 474.388933 305.856 
L 474.81581 334.584 
L 475.242688 320.976 
L 475.669565 314.928 
L 476.096443 327.024 
L 476.52332 324 
L 476.950198 295.272 
L 477.377075 257.472 
L 477.803953 266.544 
L 478.657708 207.576 
L 479.084585 225.72 
L 479.511462 275.616 
L 479.93834 293.76 
L 480.365217 268.056 
L 480.792095 275.616 
L 481.218972 266.544 
L 481.64585 281.664 
L 482.072727 266.544 
L 482.499605 236.304 
L 482.926482 290.736 
L 483.35336 222.696 
L 483.780237 305.856 
L 484.207115 328.536 
L 485.06087 346.68 
L 485.487747 337.608 
L 485.914625 348.192 
L 486.341502 339.12 
L 486.768379 324 
L 487.195257 299.808 
L 487.622134 313.416 
L 488.049012 254.448 
L 488.475889 281.664 
L 488.902767 245.376 
L 489.756522 239.328 
L 490.183399 269.568 
L 490.610277 280.152 
L 491.037154 307.368 
L 491.464032 258.984 
L 491.890909 268.056 
L 492.744664 178.848 
L 493.171542 104.76 
L 493.598419 268.056 
L 494.025296 225.72 
L 494.452174 216.648 
L 495.305929 302.832 
L 495.732806 307.368 
L 496.159684 304.344 
L 496.586561 317.952 
L 497.013439 310.392 
L 497.440316 324 
L 498.294071 218.16 
L 498.720949 257.472 
L 499.147826 254.448 
L 499.574704 237.816 
L 500.001581 266.544 
L 500.428458 233.28 
L 500.855336 231.768 
L 501.282213 162.216 
L 502.135968 252.936 
L 502.562846 219.672 
L 502.989723 224.208 
L 503.416601 234.792 
L 503.843478 195.48 
L 504.270356 262.008 
L 504.697233 301.32 
L 505.124111 295.272 
L 505.550988 319.464 
L 505.977866 327.024 
L 506.831621 299.808 
L 507.258498 320.976 
L 507.685375 328.536 
L 508.112253 327.024 
L 508.966008 121.392 
L 509.392885 246.888 
L 509.819763 254.448 
L 510.24664 290.736 
L 510.673518 234.792 
L 511.100395 249.912 
L 511.527273 239.328 
L 511.95415 163.728 
L 512.381028 274.104 
L 512.807905 192.456 
L 513.234783 165.24 
L 514.515415 292.248 
L 514.942292 292.248 
L 515.36917 307.368 
L 515.796047 284.688 
L 516.222925 298.296 
L 516.649802 305.856 
L 517.07668 305.856 
L 517.503557 319.464 
L 517.930435 296.784 
L 518.357312 286.2 
L 519.211067 209.088 
L 519.637945 225.72 
L 520.064822 141.048 
L 520.4917 216.648 
L 520.918577 204.552 
L 521.345455 221.184 
L 521.772332 260.496 
L 522.199209 260.496 
L 522.626087 269.568 
L 523.052964 227.232 
L 523.479842 240.84 
L 523.906719 118.368 
L 524.333597 141.048 
L 524.760474 196.992 
L 525.187352 274.104 
L 526.041107 292.248 
L 526.467984 286.2 
L 526.894862 260.496 
L 527.321739 222.696 
L 527.748617 207.576 
L 528.175494 213.624 
L 528.602372 268.056 
L 529.029249 277.128 
L 529.456126 249.912 
L 529.883004 71.496 
L 530.309881 219.672 
L 530.736759 293.76 
L 531.163636 242.352 
L 531.590514 237.816 
L 532.017391 221.184 
L 532.444269 175.824 
L 532.871146 180.36 
L 533.298024 186.408 
L 533.724901 154.656 
L 535.005534 293.76 
L 535.432411 313.416 
L 535.859289 316.44 
L 536.713043 278.64 
L 537.139921 317.952 
L 537.566798 336.096 
L 537.993676 328.536 
L 538.420553 301.32 
L 538.847431 292.248 
L 539.701186 113.832 
L 540.128063 66.96 
L 540.554941 133.488 
L 541.408696 203.04 
L 541.835573 206.064 
L 542.262451 248.4 
L 542.689328 192.456 
L 543.116206 121.392 
L 543.543083 83.592 
L 544.396838 281.664 
L 544.823715 246.888 
L 545.250593 274.104 
L 545.67747 316.44 
L 546.104348 254.448 
L 546.531225 327.024 
L 546.958103 337.608 
L 547.38498 337.608 
L 547.811858 328.536 
L 548.238735 334.584 
L 548.665613 328.536 
L 549.09249 258.984 
L 549.519368 258.984 
L 549.946245 216.648 
L 550.373123 234.792 
L 550.8 135 
L 551.226877 171.288 
L 551.653755 118.368 
L 552.080632 198.504 
L 552.50751 206.064 
L 552.934387 180.36 
L 553.361265 183.384 
L 553.788142 210.6 
L 554.641897 125.928 
L 555.495652 262.008 
L 555.92253 262.008 
L 556.349407 319.464 
L 556.776285 328.536 
L 557.203162 310.392 
L 557.63004 324 
L 558.056917 333.072 
L 558.483794 313.416 
L 558.910672 283.176 
L 559.337549 224.208 
L 559.764427 201.528 
L 560.191304 209.088 
L 560.618182 221.184 
L 561.045059 204.552 
L 561.471937 234.792 
L 561.898814 243.864 
L 562.325692 299.808 
L 562.752569 295.272 
L 563.179447 278.64 
L 563.606324 221.184 
L 564.460079 166.752 
L 564.886957 230.256 
L 565.313834 268.056 
L 565.740711 271.08 
L 566.167589 251.424 
L 566.594466 266.544 
L 567.021344 269.568 
L 567.448221 304.344 
L 567.875099 302.832 
L 568.301976 286.2 
L 568.728854 299.808 
L 569.155731 278.64 
L 569.582609 301.32 
L 570.436364 239.328 
L 570.863241 265.032 
L 571.290119 225.72 
L 571.716996 277.128 
L 572.143874 227.232 
L 572.570751 246.888 
L 572.997628 349.704 
L 573.424506 345.168 
L 573.851383 263.52 
L 574.278261 295.272 
L 574.705138 266.544 
L 575.132016 230.256 
L 575.558893 240.84 
L 575.985771 281.664 
L 576.839526 240.84 
L 577.266403 209.088 
L 577.693281 248.4 
L 578.120158 299.808 
L 578.547036 296.784 
L 578.973913 280.152 
L 579.400791 268.056 
L 579.827668 271.08 
L 580.254545 228.744 
L 580.681423 266.544 
L 581.1083 222.696 
L 581.535178 227.232 
L 581.962055 212.112 
L 582.388933 216.648 
L 582.81581 204.552 
L 583.242688 186.408 
L 583.669565 257.472 
L 584.096443 280.152 
L 584.52332 280.152 
L 584.950198 249.912 
L 585.377075 180.36 
L 585.803953 166.752 
L 586.23083 260.496 
L 586.657708 266.544 
L 587.084585 286.2 
L 587.511462 316.44 
L 587.93834 296.784 
L 588.365217 328.536 
L 588.792095 327.024 
L 589.218972 334.584 
L 589.64585 334.584 
L 590.072727 325.512 
L 590.499605 311.904 
L 590.926482 257.472 
L 591.35336 221.184 
L 591.780237 231.768 
L 592.207115 251.424 
L 592.633992 257.472 
L 593.06087 237.816 
L 593.487747 160.704 
L 593.914625 216.648 
L 594.341502 190.944 
L 594.768379 265.032 
L 595.195257 234.792 
L 595.622134 268.056 
L 596.049012 203.04 
L 596.475889 316.44 
L 596.902767 240.84 
L 597.329644 325.512 
L 597.756522 339.12 
L 598.183399 336.096 
L 598.610277 343.656 
L 599.037154 343.656 
L 599.464032 345.168 
L 600.317787 331.56 
L 600.744664 317.952 
L 601.171542 295.272 
L 601.598419 339.12 
L 602.025296 260.496 
L 602.452174 262.008 
L 602.879051 275.616 
L 603.305929 301.32 
L 604.159684 268.056 
L 604.586561 314.928 
L 605.013439 295.272 
L 605.440316 258.984 
L 605.867194 278.64 
L 606.294071 268.056 
L 606.720949 293.76 
L 607.147826 298.296 
L 607.574704 266.544 
L 608.001581 245.376 
L 608.855336 339.12 
L 609.282213 331.56 
L 609.709091 337.608 
L 610.135968 322.488 
L 610.562846 311.904 
L 610.989723 330.048 
L 611.416601 310.392 
L 611.843478 305.856 
L 612.270356 307.368 
L 612.697233 236.304 
L 613.124111 224.208 
L 613.550988 274.104 
L 613.977866 289.224 
L 614.404743 313.416 
L 614.831621 252.936 
L 615.258498 281.664 
L 615.685375 286.2 
L 616.112253 215.136 
L 616.53913 327.024 
L 616.966008 342.144 
L 617.392885 316.44 
L 617.819763 330.048 
L 618.24664 355.752 
L 618.673518 352.728 
L 619.100395 363.312 
L 619.527273 348.192 
L 619.95415 345.168 
L 620.381028 269.568 
L 620.807905 307.368 
L 621.234783 317.952 
L 621.66166 221.184 
L 622.088538 237.816 
L 622.515415 280.152 
L 622.942292 262.008 
L 623.36917 351.216 
L 623.796047 269.568 
L 624.222925 287.712 
L 624.649802 231.768 
L 625.07668 301.32 
L 625.503557 278.64 
L 625.930435 277.128 
L 626.357312 271.08 
L 627.637945 337.608 
L 628.064822 340.632 
L 628.4917 325.512 
L 628.918577 354.24 
L 629.345455 361.8 
L 629.772332 360.288 
L 630.199209 337.608 
L 630.626087 337.608 
L 631.052964 333.072 
L 631.479842 325.512 
L 631.906719 336.096 
L 632.333597 313.416 
L 632.760474 328.536 
L 633.187352 313.416 
L 634.041107 302.832 
L 634.467984 290.736 
L 634.894862 327.024 
L 635.321739 328.536 
L 635.748617 310.392 
L 636.175494 308.88 
L 636.602372 234.792 
L 637.029249 295.272 
L 637.456126 316.44 
L 637.883004 304.344 
L 638.309881 269.568 
L 638.736759 274.104 
L 639.163636 339.12 
L 639.590514 333.072 
L 640.017391 346.68 
L 640.444269 343.656 
L 640.871146 339.12 
L 641.298024 311.904 
L 641.724901 299.808 
L 642.151779 320.976 
L 642.578656 257.472 
L 643.005534 284.688 
L 643.432411 319.464 
L 643.859289 319.464 
L 644.286166 263.52 
L 644.713043 280.152 
L 645.139921 286.2 
L 645.566798 310.392 
L 645.993676 284.688 
L 646.847431 313.416 
L 647.274308 301.32 
L 647.701186 310.392 
L 648.128063 313.416 
L 648.554941 230.256 
L 649.408696 331.56 
L 650.262451 355.752 
L 651.116206 331.56 
L 651.543083 299.808 
L 651.96996 252.936 
L 652.396838 280.152 
L 653.250593 280.152 
L 653.67747 271.08 
L 654.104348 275.616 
L 654.531225 314.928 
L 654.958103 334.584 
L 655.811858 325.512 
L 656.238735 342.144 
L 656.665613 320.976 
L 657.09249 320.976 
L 657.519368 336.096 
L 657.946245 346.68 
L 658.373123 352.728 
L 658.8 339.12 
L 659.653755 351.216 
L 660.080632 363.312 
L 660.50751 358.776 
L 660.934387 358.776 
L 661.361265 298.296 
L 661.788142 339.12 
L 662.21502 328.536 
L 663.068775 290.736 
L 663.495652 317.952 
L 663.92253 311.904 
L 664.349407 319.464 
L 664.776285 292.248 
L 665.203162 319.464 
L 665.63004 330.048 
L 666.056917 296.784 
L 666.483794 275.616 
L 666.910672 283.176 
L 667.337549 252.936 
L 667.764427 317.952 
L 668.191304 286.2 
L 668.618182 278.64 
L 669.045059 274.104 
L 669.471937 299.808 
L 669.898814 292.248 
L 670.325692 313.416 
L 671.179447 281.664 
L 671.606324 284.688 
L 672.033202 284.688 
L 672.460079 278.64 
L 672.886957 275.616 
L 673.313834 274.104 
L 673.740711 298.296 
L 674.167589 195.48 
L 674.594466 277.128 
L 675.021344 252.936 
L 675.448221 271.08 
L 675.875099 296.784 
L 676.301976 289.224 
L 676.728854 277.128 
L 677.155731 310.392 
L 678.009486 284.688 
L 678.436364 295.272 
L 678.863241 290.736 
L 679.290119 305.856 
L 679.716996 325.512 
L 680.143874 319.464 
L 680.570751 307.368 
L 680.997628 334.584 
L 681.424506 283.176 
L 681.851383 304.344 
L 682.278261 278.64 
L 682.705138 307.368 
L 683.132016 246.888 
L 683.558893 139.536 
L 683.985771 165.24 
L 684.412648 242.352 
L 684.839526 193.968 
L 685.266403 304.344 
L 685.693281 319.464 
L 686.120158 324 
L 686.547036 265.032 
L 687.400791 198.504 
L 687.827668 234.792 
L 688.254545 254.448 
L 688.681423 212.112 
L 689.1083 275.616 
L 689.962055 317.952 
L 690.388933 319.464 
L 690.81581 327.024 
L 691.242688 337.608 
L 691.669565 333.072 
L 692.096443 325.512 
L 692.52332 292.248 
L 693.377075 334.584 
L 693.803953 248.4 
L 694.23083 266.544 
L 694.657708 322.488 
L 695.084585 246.888 
L 695.511462 240.84 
L 695.93834 369.36 
L 696.365217 248.4 
L 696.792095 271.08 
L 697.218972 216.648 
L 697.64585 283.176 
L 698.072727 287.712 
L 698.499605 258.984 
L 698.926482 320.976 
L 699.35336 307.368 
L 699.780237 331.56 
L 700.207115 330.048 
L 700.633992 322.488 
L 701.06087 317.952 
L 701.487747 330.048 
L 701.914625 333.072 
L 702.341502 320.976 
L 702.768379 284.688 
L 703.195257 295.272 
L 703.622134 246.888 
L 704.049012 218.16 
L 704.475889 239.328 
L 704.902767 281.664 
L 705.329644 286.2 
L 705.756522 274.104 
L 706.183399 292.248 
L 706.610277 278.64 
L 707.037154 252.936 
L 707.464032 275.616 
L 707.890909 278.64 
L 708.317787 293.76 
L 708.744664 255.96 
L 709.171542 310.392 
L 709.598419 283.176 
L 710.025296 266.544 
L 710.452174 272.592 
L 710.879051 310.392 
L 711.305929 314.928 
L 711.732806 316.44 
L 712.159684 319.464 
L 712.586561 325.512 
L 713.013439 311.904 
L 713.440316 287.712 
L 713.867194 322.488 
L 714.294071 271.08 
L 714.720949 257.472 
L 715.147826 221.184 
L 715.574704 233.28 
L 716.001581 215.136 
L 716.855336 310.392 
L 717.282213 278.64 
L 717.709091 287.712 
L 718.135968 249.912 
L 718.562846 280.152 
L 718.989723 319.464 
L 719.416601 336.096 
L 719.843478 262.008 
L 720.270356 328.536 
L 720.697233 325.512 
L 721.124111 314.928 
L 721.550988 336.096 
L 721.977866 345.168 
L 722.404743 331.56 
L 723.258498 289.224 
L 723.685375 245.376 
L 724.112253 213.624 
L 724.53913 237.816 
L 724.966008 246.888 
L 725.392885 298.296 
L 725.819763 240.84 
L 726.673518 251.424 
L 727.100395 225.72 
L 727.527273 269.568 
L 727.95415 213.624 
L 728.381028 225.72 
L 728.807905 230.256 
L 729.234783 298.296 
L 729.66166 311.904 
L 730.088538 308.88 
L 730.515415 325.512 
L 730.942292 317.952 
L 731.36917 327.024 
L 731.796047 313.416 
L 732.222925 319.464 
L 732.649802 317.952 
L 733.07668 317.952 
L 733.503557 283.176 
L 733.930435 299.808 
L 734.357312 280.152 
L 734.78419 292.248 
L 735.211067 280.152 
L 735.637945 258.984 
L 736.064822 228.744 
L 736.4917 234.792 
L 736.918577 277.128 
L 737.345455 218.16 
L 737.772332 216.648 
L 738.199209 195.48 
L 738.626087 192.456 
L 739.052964 187.92 
L 739.479842 228.744 
L 739.906719 255.96 
L 740.333597 249.912 
L 740.760474 275.616 
L 741.187352 311.904 
L 741.614229 298.296 
L 742.041107 313.416 
L 742.467984 319.464 
L 743.748617 213.624 
L 744.175494 243.864 
L 744.602372 237.816 
L 745.029249 206.064 
L 745.456126 200.016 
L 745.883004 200.016 
L 746.309881 224.208 
L 746.736759 203.04 
L 747.163636 252.936 
L 747.163636 252.936 
" style="fill:none;stroke:#1f77b4;stroke-linecap:square;stroke-width:1.5;"/>
   </g>
   <g id="line2d_19">
    <path clip-path="url(#p7cd313e8ef)" d="M 746.736759 384.48 
L 746.736759 51.84 
" style="fill:none;stroke:#808080;stroke-linecap:square;"/>
   </g>
   <g id="patch_36">
    <path d="M 108 384.48 
L 108 51.84 
" style="fill:none;stroke:#000000;stroke-linecap:square;stroke-linejoin:miter;stroke-width:0.8;"/>
   </g>
   <g id="patch_37">
    <path d="M 777.6 384.48 
L 777.6 51.84 
" style="fill:none;stroke:#000000;stroke-linecap:square;stroke-linejoin:miter;stroke-width:0.8;"/>
   </g>
   <g id="patch_38">
    <path d="M 108 384.48 
L 777.6 384.48 
" style="fill:none;stroke:#000000;stroke-linecap:square;stroke-linejoin:miter;stroke-width:0.8;"/>
   </g>
   <g id="patch_39">
    <path d="M 108 51.84 
L 777.6 51.84 
" style="fill:none;stroke:#000000;stroke-linecap:square;stroke-linejoin:miter;stroke-width:0.8;"/>
   </g>
   <g id="text_20">
    <!-- real_35.csv -->
    <defs>
     <path d="M 41.109375 46.296875 
Q 39.59375 47.171875 37.8125 47.578125 
Q 36.03125 48 33.890625 48 
Q 26.265625 48 22.1875 43.046875 
Q 18.109375 38.09375 18.109375 28.8125 
L 18.109375 0 
L 9.078125 0 
L 9.078125 54.6875 
L 18.109375 54.6875 
L 18.109375 46.1875 
Q 20.953125 51.171875 25.484375 53.578125 
Q 30.03125 56 36.53125 56 
Q 37.453125 56 38.578125 55.875 
Q 39.703125 55.765625 41.0625 55.515625 
z
" id="DejaVuSans-114"/>
     <path d="M 50.984375 -16.609375 
L 50.984375 -23.578125 
L -0.984375 -23.578125 
L -0.984375 -16.609375 
z
" id="DejaVuSans-95"/>
     <path d="M 40.578125 39.3125 
Q 47.65625 37.796875 51.625 33 
Q 55.609375 28.21875 55.609375 21.1875 
Q 55.609375 10.40625 48.1875 4.484375 
Q 40.765625 -1.421875 27.09375 -1.421875 
Q 22.515625 -1.421875 17.65625 -0.515625 
Q 12.796875 0.390625 7.625 2.203125 
L 7.625 11.71875 
Q 11.71875 9.328125 16.59375 8.109375 
Q 21.484375 6.890625 26.8125 6.890625 
Q 36.078125 6.890625 40.9375 10.546875 
Q 45.796875 14.203125 45.796875 21.1875 
Q 45.796875 27.640625 41.28125 31.265625 
Q 36.765625 34.90625 28.71875 34.90625 
L 20.21875 34.90625 
L 20.21875 43.015625 
L 29.109375 43.015625 
Q 36.375 43.015625 40.234375 45.921875 
Q 44.09375 48.828125 44.09375 54.296875 
Q 44.09375 59.90625 40.109375 62.90625 
Q 36.140625 65.921875 28.71875 65.921875 
Q 24.65625 65.921875 20.015625 65.03125 
Q 15.375 64.15625 9.8125 62.3125 
L 9.8125 71.09375 
Q 15.4375 72.65625 20.34375 73.4375 
Q 25.25 74.21875 29.59375 74.21875 
Q 40.828125 74.21875 47.359375 69.109375 
Q 53.90625 64.015625 53.90625 55.328125 
Q 53.90625 49.265625 50.4375 45.09375 
Q 46.96875 40.921875 40.578125 39.3125 
z
" id="DejaVuSans-51"/>
     <path d="M 10.6875 12.40625 
L 21 12.40625 
L 21 0 
L 10.6875 0 
z
" id="DejaVuSans-46"/>
     <path d="M 48.78125 52.59375 
L 48.78125 44.1875 
Q 44.96875 46.296875 41.140625 47.34375 
Q 37.3125 48.390625 33.40625 48.390625 
Q 24.65625 48.390625 19.8125 42.84375 
Q 14.984375 37.3125 14.984375 27.296875 
Q 14.984375 17.28125 19.8125 11.734375 
Q 24.65625 6.203125 33.40625 6.203125 
Q 37.3125 6.203125 41.140625 7.25 
Q 44.96875 8.296875 48.78125 10.40625 
L 48.78125 2.09375 
Q 45.015625 0.34375 40.984375 -0.53125 
Q 36.96875 -1.421875 32.421875 -1.421875 
Q 20.0625 -1.421875 12.78125 6.34375 
Q 5.515625 14.109375 5.515625 27.296875 
Q 5.515625 40.671875 12.859375 48.328125 
Q 20.21875 56 33.015625 56 
Q 37.15625 56 41.109375 55.140625 
Q 45.0625 54.296875 48.78125 52.59375 
z
" id="DejaVuSans-99"/>
     <path d="M 2.984375 54.6875 
L 12.5 54.6875 
L 29.59375 8.796875 
L 46.6875 54.6875 
L 56.203125 54.6875 
L 35.6875 0 
L 23.484375 0 
z
" id="DejaVuSans-118"/>
    </defs>
    <g transform="translate(408.781875 45.84)scale(0.12 -0.12)">
     <use xlink:href="#DejaVuSans-114"/>
     <use x="41.082031" xlink:href="#DejaVuSans-101"/>
     <use x="102.605469" xlink:href="#DejaVuSans-97"/>
     <use x="163.884766" xlink:href="#DejaVuSans-108"/>
     <use x="191.667969" xlink:href="#DejaVuSans-95"/>
     <use x="241.667969" xlink:href="#DejaVuSans-51"/>
     <use x="305.291016" xlink:href="#DejaVuSans-53"/>
     <use x="368.914062" xlink:href="#DejaVuSans-46"/>
     <use x="400.701172" xlink:href="#DejaVuSans-99"/>
     <use x="455.681641" xlink:href="#DejaVuSans-115"/>
     <use x="507.78125" xlink:href="#DejaVuSans-118"/>
    </g>
   </g>
   <g id="legend_1">
    <g id="patch_40">
     <path d="M 115 74.518125 
L 174.315625 74.518125 
Q 176.315625 74.518125 176.315625 72.518125 
L 176.315625 58.84 
Q 176.315625 56.84 174.315625 56.84 
L 115 56.84 
Q 113 56.84 113 58.84 
L 113 72.518125 
Q 113 74.518125 115 74.518125 
z
" style="fill:#ffffff;opacity:0.8;stroke:#cccccc;stroke-linejoin:miter;"/>
    </g>
    <g id="line2d_20">
     <path d="M 117 64.938438 
L 137 64.938438 
" style="fill:none;stroke:#1f77b4;stroke-linecap:square;stroke-width:1.5;"/>
    </g>
    <g id="line2d_21"/>
    <g id="text_21">
     <!-- value -->
     <g transform="translate(145 68.438438)scale(0.1 -0.1)">
      <use xlink:href="#DejaVuSans-118"/>
      <use x="59.179688" xlink:href="#DejaVuSans-97"/>
      <use x="120.458984" xlink:href="#DejaVuSans-108"/>
      <use x="148.242188" xlink:href="#DejaVuSans-117"/>
      <use x="211.621094" xlink:href="#DejaVuSans-101"/>
     </g>
    </g>
   </g>
  </g>
 </g>
 <defs>
  <clipPath id="p7cd313e8ef">
   <rect height="332.64" width="669.6" x="108" y="51.84"/>
  </clipPath>
 </defs>
</svg>
