<?xml version="1.0" encoding="utf-8" standalone="no"?>
<!DOCTYPE svg PUBLIC "-//W3C//DTD SVG 1.1//EN"
  "http://www.w3.org/Graphics/SVG/1.1/DTD/svg11.dtd">
<!-- Created with matplotlib (https://matplotlib.org/) -->
<svg height="432pt" version="1.1" viewBox="0 0 864 432" width="864pt" xmlns="http://www.w3.org/2000/svg" xmlns:xlink="http://www.w3.org/1999/xlink">
 <defs>
  <style type="text/css">
*{stroke-linecap:butt;stroke-linejoin:round;}
  </style>
 </defs>
 <g id="figure_1">
  <g id="patch_1">
   <path d="M 0 432 
L 864 432 
L 864 0 
L 0 0 
z
" style="fill:#ffffff;"/>
  </g>
  <g id="axes_1">
   <g id="patch_2">
    <path d="M 108 384.48 
L 777.6 384.48 
L 777.6 51.84 
L 108 51.84 
z
" style="fill:#ffffff;"/>
   </g>
   <g id="patch_3">
    <path clip-path="url(#p51c5b33df2)" d="M 138.436364 384.48 
L 138.436364 51.84 
L 379.390909 51.84 
L 379.390909 384.48 
z
" style="fill:#0000ff;opacity:0.05;"/>
   </g>
   <g id="patch_4">
    <path clip-path="url(#p51c5b33df2)" d="M 379.390909 384.48 
L 379.390909 51.84 
L 747.163636 51.84 
L 747.163636 384.48 
z
" style="fill:#ff0000;opacity:0.08;"/>
   </g>
   <g id="patch_5">
    <path clip-path="url(#p51c5b33df2)" d="M 138.436364 384.48 
L 138.436364 51.84 
L 151.118182 51.84 
L 151.118182 384.48 
z
" style="fill:#008000;opacity:0.04;"/>
   </g>
   <g id="patch_6">
    <path clip-path="url(#p51c5b33df2)" d="M 163.8 384.48 
L 163.8 51.84 
L 176.481818 51.84 
L 176.481818 384.48 
z
" style="fill:#008000;opacity:0.04;"/>
   </g>
   <g id="patch_7">
    <path clip-path="url(#p51c5b33df2)" d="M 163.8 384.48 
L 163.8 371.1744 
L 176.481818 371.1744 
L 176.481818 384.48 
z
" style="fill:#ffe500;"/>
   </g>
   <g id="patch_8">
    <path clip-path="url(#p51c5b33df2)" d="M 189.163636 384.48 
L 189.163636 51.84 
L 201.845455 51.84 
L 201.845455 384.48 
z
" style="fill:#008000;opacity:0.04;"/>
   </g>
   <g id="patch_9">
    <path clip-path="url(#p51c5b33df2)" d="M 214.527273 384.48 
L 214.527273 51.84 
L 227.209091 51.84 
L 227.209091 384.48 
z
" style="fill:#008000;opacity:0.04;"/>
   </g>
   <g id="patch_10">
    <path clip-path="url(#p51c5b33df2)" d="M 239.890909 384.48 
L 239.890909 51.84 
L 252.572727 51.84 
L 252.572727 384.48 
z
" style="fill:#008000;opacity:0.04;"/>
   </g>
   <g id="patch_11">
    <path clip-path="url(#p51c5b33df2)" d="M 265.254545 384.48 
L 265.254545 51.84 
L 277.936364 51.84 
L 277.936364 384.48 
z
" style="fill:#008000;opacity:0.04;"/>
   </g>
   <g id="patch_12">
    <path clip-path="url(#p51c5b33df2)" d="M 290.618182 384.48 
L 290.618182 51.84 
L 303.3 51.84 
L 303.3 384.48 
z
" style="fill:#008000;opacity:0.04;"/>
   </g>
   <g id="patch_13">
    <path clip-path="url(#p51c5b33df2)" d="M 531.572727 384.48 
L 531.572727 371.1744 
L 544.254545 371.1744 
L 544.254545 384.48 
z
" style="fill:#ff6600;"/>
   </g>
   <g id="patch_14">
    <path clip-path="url(#p51c5b33df2)" d="M 544.254545 384.48 
L 544.254545 371.1744 
L 556.936364 371.1744 
L 556.936364 384.48 
z
" style="fill:#ff6600;"/>
   </g>
   <g id="patch_15">
    <path clip-path="url(#p51c5b33df2)" d="M 315.981818 384.48 
L 315.981818 51.84 
L 328.663636 51.84 
L 328.663636 384.48 
z
" style="fill:#008000;opacity:0.04;"/>
   </g>
   <g id="patch_16">
    <path clip-path="url(#p51c5b33df2)" d="M 341.345455 384.48 
L 341.345455 51.84 
L 354.027273 51.84 
L 354.027273 384.48 
z
" style="fill:#008000;opacity:0.04;"/>
   </g>
   <g id="patch_17">
    <path clip-path="url(#p51c5b33df2)" d="M 366.709091 384.48 
L 366.709091 51.84 
L 379.390909 51.84 
L 379.390909 384.48 
z
" style="fill:#008000;opacity:0.04;"/>
   </g>
   <g id="patch_18">
    <path clip-path="url(#p51c5b33df2)" d="M 392.072727 384.48 
L 392.072727 51.84 
L 404.754545 51.84 
L 404.754545 384.48 
z
" style="fill:#008000;opacity:0.04;"/>
   </g>
   <g id="patch_19">
    <path clip-path="url(#p51c5b33df2)" d="M 645.709091 384.48 
L 645.709091 371.1744 
L 658.390909 371.1744 
L 658.390909 384.48 
z
" style="fill:#ff6600;"/>
   </g>
   <g id="patch_20">
    <path clip-path="url(#p51c5b33df2)" d="M 417.436364 384.48 
L 417.436364 51.84 
L 430.118182 51.84 
L 430.118182 384.48 
z
" style="fill:#008000;opacity:0.04;"/>
   </g>
   <g id="patch_21">
    <path clip-path="url(#p51c5b33df2)" d="M 658.390909 384.48 
L 658.390909 371.1744 
L 671.072727 371.1744 
L 671.072727 384.48 
z
" style="fill:#ff6600;"/>
   </g>
   <g id="patch_22">
    <path clip-path="url(#p51c5b33df2)" d="M 442.8 384.48 
L 442.8 51.84 
L 455.481818 51.84 
L 455.481818 384.48 
z
" style="fill:#008000;opacity:0.04;"/>
   </g>
   <g id="patch_23">
    <path clip-path="url(#p51c5b33df2)" d="M 683.754545 384.48 
L 683.754545 371.1744 
L 696.436364 371.1744 
L 696.436364 384.48 
z
" style="fill:#ff6600;"/>
   </g>
   <g id="patch_24">
    <path clip-path="url(#p51c5b33df2)" d="M 468.163636 384.48 
L 468.163636 51.84 
L 480.845455 51.84 
L 480.845455 384.48 
z
" style="fill:#008000;opacity:0.04;"/>
   </g>
   <g id="patch_25">
    <path clip-path="url(#p51c5b33df2)" d="M 493.527273 384.48 
L 493.527273 51.84 
L 506.209091 51.84 
L 506.209091 384.48 
z
" style="fill:#008000;opacity:0.04;"/>
   </g>
   <g id="patch_26">
    <path clip-path="url(#p51c5b33df2)" d="M 518.890909 384.48 
L 518.890909 51.84 
L 531.572727 51.84 
L 531.572727 384.48 
z
" style="fill:#008000;opacity:0.04;"/>
   </g>
   <g id="patch_27">
    <path clip-path="url(#p51c5b33df2)" d="M 544.254545 384.48 
L 544.254545 51.84 
L 556.936364 51.84 
L 556.936364 384.48 
z
" style="fill:#008000;opacity:0.04;"/>
   </g>
   <g id="patch_28">
    <path clip-path="url(#p51c5b33df2)" d="M 569.618182 384.48 
L 569.618182 51.84 
L 582.3 51.84 
L 582.3 384.48 
z
" style="fill:#008000;opacity:0.04;"/>
   </g>
   <g id="patch_29">
    <path clip-path="url(#p51c5b33df2)" d="M 594.981818 384.48 
L 594.981818 51.84 
L 607.663636 51.84 
L 607.663636 384.48 
z
" style="fill:#008000;opacity:0.04;"/>
   </g>
   <g id="patch_30">
    <path clip-path="url(#p51c5b33df2)" d="M 620.345455 384.48 
L 620.345455 51.84 
L 633.027273 51.84 
L 633.027273 384.48 
z
" style="fill:#008000;opacity:0.04;"/>
   </g>
   <g id="patch_31">
    <path clip-path="url(#p51c5b33df2)" d="M 645.709091 384.48 
L 645.709091 51.84 
L 658.390909 51.84 
L 658.390909 384.48 
z
" style="fill:#008000;opacity:0.04;"/>
   </g>
   <g id="patch_32">
    <path clip-path="url(#p51c5b33df2)" d="M 645.709091 371.1744 
L 645.709091 51.84 
L 658.390909 51.84 
L 658.390909 371.1744 
z
" style="fill:#008000;opacity:0.5;"/>
   </g>
   <g id="patch_33">
    <path clip-path="url(#p51c5b33df2)" d="M 658.390909 371.1744 
L 658.390909 51.84 
L 671.072727 51.84 
L 671.072727 371.1744 
z
" style="fill:#008000;opacity:0.5;"/>
   </g>
   <g id="patch_34">
    <path clip-path="url(#p51c5b33df2)" d="M 671.072727 384.48 
L 671.072727 51.84 
L 683.754545 51.84 
L 683.754545 384.48 
z
" style="fill:#008000;opacity:0.04;"/>
   </g>
   <g id="patch_35">
    <path clip-path="url(#p51c5b33df2)" d="M 683.754545 371.1744 
L 683.754545 51.84 
L 696.436364 51.84 
L 696.436364 371.1744 
z
" style="fill:#008000;opacity:0.5;"/>
   </g>
   <g id="patch_36">
    <path clip-path="url(#p51c5b33df2)" d="M 696.436364 384.48 
L 696.436364 51.84 
L 709.118182 51.84 
L 709.118182 384.48 
z
" style="fill:#008000;opacity:0.04;"/>
   </g>
   <g id="patch_37">
    <path clip-path="url(#p51c5b33df2)" d="M 721.8 384.48 
L 721.8 51.84 
L 734.481818 51.84 
L 734.481818 384.48 
z
" style="fill:#008000;opacity:0.04;"/>
   </g>
   <g id="matplotlib.axis_1">
    <g id="xtick_1">
     <g id="line2d_1">
      <defs>
       <path d="M 0 0 
L 0 3.5 
" id="m1871533a55" style="stroke:#000000;stroke-width:0.8;"/>
      </defs>
      <g>
       <use style="stroke:#000000;stroke-width:0.8;" x="138.436364" xlink:href="#m1871533a55" y="384.48"/>
      </g>
     </g>
     <g id="text_1">
      <!-- 0 -->
      <defs>
       <path d="M 31.78125 66.40625 
Q 24.171875 66.40625 20.328125 58.90625 
Q 16.5 51.421875 16.5 36.375 
Q 16.5 21.390625 20.328125 13.890625 
Q 24.171875 6.390625 31.78125 6.390625 
Q 39.453125 6.390625 43.28125 13.890625 
Q 47.125 21.390625 47.125 36.375 
Q 47.125 51.421875 43.28125 58.90625 
Q 39.453125 66.40625 31.78125 66.40625 
z
M 31.78125 74.21875 
Q 44.046875 74.21875 50.515625 64.515625 
Q 56.984375 54.828125 56.984375 36.375 
Q 56.984375 17.96875 50.515625 8.265625 
Q 44.046875 -1.421875 31.78125 -1.421875 
Q 19.53125 -1.421875 13.0625 8.265625 
Q 6.59375 17.96875 6.59375 36.375 
Q 6.59375 54.828125 13.0625 64.515625 
Q 19.53125 74.21875 31.78125 74.21875 
z
" id="DejaVuSans-48"/>
      </defs>
      <g transform="translate(135.255114 399.078438)scale(0.1 -0.1)">
       <use xlink:href="#DejaVuSans-48"/>
      </g>
     </g>
    </g>
    <g id="xtick_2">
     <g id="line2d_2">
      <g>
       <use style="stroke:#000000;stroke-width:0.8;" x="222.981818" xlink:href="#m1871533a55" y="384.48"/>
      </g>
     </g>
     <g id="text_2">
      <!-- 200 -->
      <defs>
       <path d="M 19.1875 8.296875 
L 53.609375 8.296875 
L 53.609375 0 
L 7.328125 0 
L 7.328125 8.296875 
Q 12.9375 14.109375 22.625 23.890625 
Q 32.328125 33.6875 34.8125 36.53125 
Q 39.546875 41.84375 41.421875 45.53125 
Q 43.3125 49.21875 43.3125 52.78125 
Q 43.3125 58.59375 39.234375 62.25 
Q 35.15625 65.921875 28.609375 65.921875 
Q 23.96875 65.921875 18.8125 64.3125 
Q 13.671875 62.703125 7.8125 59.421875 
L 7.8125 69.390625 
Q 13.765625 71.78125 18.9375 73 
Q 24.125 74.21875 28.421875 74.21875 
Q 39.75 74.21875 46.484375 68.546875 
Q 53.21875 62.890625 53.21875 53.421875 
Q 53.21875 48.921875 51.53125 44.890625 
Q 49.859375 40.875 45.40625 35.40625 
Q 44.1875 33.984375 37.640625 27.21875 
Q 31.109375 20.453125 19.1875 8.296875 
z
" id="DejaVuSans-50"/>
      </defs>
      <g transform="translate(213.438068 399.078438)scale(0.1 -0.1)">
       <use xlink:href="#DejaVuSans-50"/>
       <use x="63.623047" xlink:href="#DejaVuSans-48"/>
       <use x="127.246094" xlink:href="#DejaVuSans-48"/>
      </g>
     </g>
    </g>
    <g id="xtick_3">
     <g id="line2d_3">
      <g>
       <use style="stroke:#000000;stroke-width:0.8;" x="307.527273" xlink:href="#m1871533a55" y="384.48"/>
      </g>
     </g>
     <g id="text_3">
      <!-- 400 -->
      <defs>
       <path d="M 37.796875 64.3125 
L 12.890625 25.390625 
L 37.796875 25.390625 
z
M 35.203125 72.90625 
L 47.609375 72.90625 
L 47.609375 25.390625 
L 58.015625 25.390625 
L 58.015625 17.1875 
L 47.609375 17.1875 
L 47.609375 0 
L 37.796875 0 
L 37.796875 17.1875 
L 4.890625 17.1875 
L 4.890625 26.703125 
z
" id="DejaVuSans-52"/>
      </defs>
      <g transform="translate(297.983523 399.078438)scale(0.1 -0.1)">
       <use xlink:href="#DejaVuSans-52"/>
       <use x="63.623047" xlink:href="#DejaVuSans-48"/>
       <use x="127.246094" xlink:href="#DejaVuSans-48"/>
      </g>
     </g>
    </g>
    <g id="xtick_4">
     <g id="line2d_4">
      <g>
       <use style="stroke:#000000;stroke-width:0.8;" x="392.072727" xlink:href="#m1871533a55" y="384.48"/>
      </g>
     </g>
     <g id="text_4">
      <!-- 600 -->
      <defs>
       <path d="M 33.015625 40.375 
Q 26.375 40.375 22.484375 35.828125 
Q 18.609375 31.296875 18.609375 23.390625 
Q 18.609375 15.53125 22.484375 10.953125 
Q 26.375 6.390625 33.015625 6.390625 
Q 39.65625 6.390625 43.53125 10.953125 
Q 47.40625 15.53125 47.40625 23.390625 
Q 47.40625 31.296875 43.53125 35.828125 
Q 39.65625 40.375 33.015625 40.375 
z
M 52.59375 71.296875 
L 52.59375 62.3125 
Q 48.875 64.0625 45.09375 64.984375 
Q 41.3125 65.921875 37.59375 65.921875 
Q 27.828125 65.921875 22.671875 59.328125 
Q 17.53125 52.734375 16.796875 39.40625 
Q 19.671875 43.65625 24.015625 45.921875 
Q 28.375 48.1875 33.59375 48.1875 
Q 44.578125 48.1875 50.953125 41.515625 
Q 57.328125 34.859375 57.328125 23.390625 
Q 57.328125 12.15625 50.6875 5.359375 
Q 44.046875 -1.421875 33.015625 -1.421875 
Q 20.359375 -1.421875 13.671875 8.265625 
Q 6.984375 17.96875 6.984375 36.375 
Q 6.984375 53.65625 15.1875 63.9375 
Q 23.390625 74.21875 37.203125 74.21875 
Q 40.921875 74.21875 44.703125 73.484375 
Q 48.484375 72.75 52.59375 71.296875 
z
" id="DejaVuSans-54"/>
      </defs>
      <g transform="translate(382.528977 399.078438)scale(0.1 -0.1)">
       <use xlink:href="#DejaVuSans-54"/>
       <use x="63.623047" xlink:href="#DejaVuSans-48"/>
       <use x="127.246094" xlink:href="#DejaVuSans-48"/>
      </g>
     </g>
    </g>
    <g id="xtick_5">
     <g id="line2d_5">
      <g>
       <use style="stroke:#000000;stroke-width:0.8;" x="476.618182" xlink:href="#m1871533a55" y="384.48"/>
      </g>
     </g>
     <g id="text_5">
      <!-- 800 -->
      <defs>
       <path d="M 31.78125 34.625 
Q 24.75 34.625 20.71875 30.859375 
Q 16.703125 27.09375 16.703125 20.515625 
Q 16.703125 13.921875 20.71875 10.15625 
Q 24.75 6.390625 31.78125 6.390625 
Q 38.8125 6.390625 42.859375 10.171875 
Q 46.921875 13.96875 46.921875 20.515625 
Q 46.921875 27.09375 42.890625 30.859375 
Q 38.875 34.625 31.78125 34.625 
z
M 21.921875 38.8125 
Q 15.578125 40.375 12.03125 44.71875 
Q 8.5 49.078125 8.5 55.328125 
Q 8.5 64.0625 14.71875 69.140625 
Q 20.953125 74.21875 31.78125 74.21875 
Q 42.671875 74.21875 48.875 69.140625 
Q 55.078125 64.0625 55.078125 55.328125 
Q 55.078125 49.078125 51.53125 44.71875 
Q 48 40.375 41.703125 38.8125 
Q 48.828125 37.15625 52.796875 32.3125 
Q 56.78125 27.484375 56.78125 20.515625 
Q 56.78125 9.90625 50.3125 4.234375 
Q 43.84375 -1.421875 31.78125 -1.421875 
Q 19.734375 -1.421875 13.25 4.234375 
Q 6.78125 9.90625 6.78125 20.515625 
Q 6.78125 27.484375 10.78125 32.3125 
Q 14.796875 37.15625 21.921875 38.8125 
z
M 18.3125 54.390625 
Q 18.3125 48.734375 21.84375 45.5625 
Q 25.390625 42.390625 31.78125 42.390625 
Q 38.140625 42.390625 41.71875 45.5625 
Q 45.3125 48.734375 45.3125 54.390625 
Q 45.3125 60.0625 41.71875 63.234375 
Q 38.140625 66.40625 31.78125 66.40625 
Q 25.390625 66.40625 21.84375 63.234375 
Q 18.3125 60.0625 18.3125 54.390625 
z
" id="DejaVuSans-56"/>
      </defs>
      <g transform="translate(467.074432 399.078438)scale(0.1 -0.1)">
       <use xlink:href="#DejaVuSans-56"/>
       <use x="63.623047" xlink:href="#DejaVuSans-48"/>
       <use x="127.246094" xlink:href="#DejaVuSans-48"/>
      </g>
     </g>
    </g>
    <g id="xtick_6">
     <g id="line2d_6">
      <g>
       <use style="stroke:#000000;stroke-width:0.8;" x="561.163636" xlink:href="#m1871533a55" y="384.48"/>
      </g>
     </g>
     <g id="text_6">
      <!-- 1000 -->
      <defs>
       <path d="M 12.40625 8.296875 
L 28.515625 8.296875 
L 28.515625 63.921875 
L 10.984375 60.40625 
L 10.984375 69.390625 
L 28.421875 72.90625 
L 38.28125 72.90625 
L 38.28125 8.296875 
L 54.390625 8.296875 
L 54.390625 0 
L 12.40625 0 
z
" id="DejaVuSans-49"/>
      </defs>
      <g transform="translate(548.438636 399.078438)scale(0.1 -0.1)">
       <use xlink:href="#DejaVuSans-49"/>
       <use x="63.623047" xlink:href="#DejaVuSans-48"/>
       <use x="127.246094" xlink:href="#DejaVuSans-48"/>
       <use x="190.869141" xlink:href="#DejaVuSans-48"/>
      </g>
     </g>
    </g>
    <g id="xtick_7">
     <g id="line2d_7">
      <g>
       <use style="stroke:#000000;stroke-width:0.8;" x="645.709091" xlink:href="#m1871533a55" y="384.48"/>
      </g>
     </g>
     <g id="text_7">
      <!-- 1200 -->
      <g transform="translate(632.984091 399.078438)scale(0.1 -0.1)">
       <use xlink:href="#DejaVuSans-49"/>
       <use x="63.623047" xlink:href="#DejaVuSans-50"/>
       <use x="127.246094" xlink:href="#DejaVuSans-48"/>
       <use x="190.869141" xlink:href="#DejaVuSans-48"/>
      </g>
     </g>
    </g>
    <g id="xtick_8">
     <g id="line2d_8">
      <g>
       <use style="stroke:#000000;stroke-width:0.8;" x="730.254545" xlink:href="#m1871533a55" y="384.48"/>
      </g>
     </g>
     <g id="text_8">
      <!-- 1400 -->
      <g transform="translate(717.529545 399.078438)scale(0.1 -0.1)">
       <use xlink:href="#DejaVuSans-49"/>
       <use x="63.623047" xlink:href="#DejaVuSans-52"/>
       <use x="127.246094" xlink:href="#DejaVuSans-48"/>
       <use x="190.869141" xlink:href="#DejaVuSans-48"/>
      </g>
     </g>
    </g>
    <g id="text_9">
     <!-- Timestamp -->
     <defs>
      <path d="M -0.296875 72.90625 
L 61.375 72.90625 
L 61.375 64.59375 
L 35.5 64.59375 
L 35.5 0 
L 25.59375 0 
L 25.59375 64.59375 
L -0.296875 64.59375 
z
" id="DejaVuSans-84"/>
      <path d="M 9.421875 54.6875 
L 18.40625 54.6875 
L 18.40625 0 
L 9.421875 0 
z
M 9.421875 75.984375 
L 18.40625 75.984375 
L 18.40625 64.59375 
L 9.421875 64.59375 
z
" id="DejaVuSans-105"/>
      <path d="M 52 44.1875 
Q 55.375 50.25 60.0625 53.125 
Q 64.75 56 71.09375 56 
Q 79.640625 56 84.28125 50.015625 
Q 88.921875 44.046875 88.921875 33.015625 
L 88.921875 0 
L 79.890625 0 
L 79.890625 32.71875 
Q 79.890625 40.578125 77.09375 44.375 
Q 74.3125 48.1875 68.609375 48.1875 
Q 61.625 48.1875 57.5625 43.546875 
Q 53.515625 38.921875 53.515625 30.90625 
L 53.515625 0 
L 44.484375 0 
L 44.484375 32.71875 
Q 44.484375 40.625 41.703125 44.40625 
Q 38.921875 48.1875 33.109375 48.1875 
Q 26.21875 48.1875 22.15625 43.53125 
Q 18.109375 38.875 18.109375 30.90625 
L 18.109375 0 
L 9.078125 0 
L 9.078125 54.6875 
L 18.109375 54.6875 
L 18.109375 46.1875 
Q 21.1875 51.21875 25.484375 53.609375 
Q 29.78125 56 35.6875 56 
Q 41.65625 56 45.828125 52.96875 
Q 50 49.953125 52 44.1875 
z
" id="DejaVuSans-109"/>
      <path d="M 56.203125 29.59375 
L 56.203125 25.203125 
L 14.890625 25.203125 
Q 15.484375 15.921875 20.484375 11.0625 
Q 25.484375 6.203125 34.421875 6.203125 
Q 39.59375 6.203125 44.453125 7.46875 
Q 49.3125 8.734375 54.109375 11.28125 
L 54.109375 2.78125 
Q 49.265625 0.734375 44.1875 -0.34375 
Q 39.109375 -1.421875 33.890625 -1.421875 
Q 20.796875 -1.421875 13.15625 6.1875 
Q 5.515625 13.8125 5.515625 26.8125 
Q 5.515625 40.234375 12.765625 48.109375 
Q 20.015625 56 32.328125 56 
Q 43.359375 56 49.78125 48.890625 
Q 56.203125 41.796875 56.203125 29.59375 
z
M 47.21875 32.234375 
Q 47.125 39.59375 43.09375 43.984375 
Q 39.0625 48.390625 32.421875 48.390625 
Q 24.90625 48.390625 20.390625 44.140625 
Q 15.875 39.890625 15.1875 32.171875 
z
" id="DejaVuSans-101"/>
      <path d="M 44.28125 53.078125 
L 44.28125 44.578125 
Q 40.484375 46.53125 36.375 47.5 
Q 32.28125 48.484375 27.875 48.484375 
Q 21.1875 48.484375 17.84375 46.4375 
Q 14.5 44.390625 14.5 40.28125 
Q 14.5 37.15625 16.890625 35.375 
Q 19.28125 33.59375 26.515625 31.984375 
L 29.59375 31.296875 
Q 39.15625 29.25 43.1875 25.515625 
Q 47.21875 21.78125 47.21875 15.09375 
Q 47.21875 7.46875 41.1875 3.015625 
Q 35.15625 -1.421875 24.609375 -1.421875 
Q 20.21875 -1.421875 15.453125 -0.5625 
Q 10.6875 0.296875 5.421875 2 
L 5.421875 11.28125 
Q 10.40625 8.6875 15.234375 7.390625 
Q 20.0625 6.109375 24.8125 6.109375 
Q 31.15625 6.109375 34.5625 8.28125 
Q 37.984375 10.453125 37.984375 14.40625 
Q 37.984375 18.0625 35.515625 20.015625 
Q 33.0625 21.96875 24.703125 23.78125 
L 21.578125 24.515625 
Q 13.234375 26.265625 9.515625 29.90625 
Q 5.8125 33.546875 5.8125 39.890625 
Q 5.8125 47.609375 11.28125 51.796875 
Q 16.75 56 26.8125 56 
Q 31.78125 56 36.171875 55.265625 
Q 40.578125 54.546875 44.28125 53.078125 
z
" id="DejaVuSans-115"/>
      <path d="M 18.3125 70.21875 
L 18.3125 54.6875 
L 36.8125 54.6875 
L 36.8125 47.703125 
L 18.3125 47.703125 
L 18.3125 18.015625 
Q 18.3125 11.328125 20.140625 9.421875 
Q 21.96875 7.515625 27.59375 7.515625 
L 36.8125 7.515625 
L 36.8125 0 
L 27.59375 0 
Q 17.1875 0 13.234375 3.875 
Q 9.28125 7.765625 9.28125 18.015625 
L 9.28125 47.703125 
L 2.6875 47.703125 
L 2.6875 54.6875 
L 9.28125 54.6875 
L 9.28125 70.21875 
z
" id="DejaVuSans-116"/>
      <path d="M 34.28125 27.484375 
Q 23.390625 27.484375 19.1875 25 
Q 14.984375 22.515625 14.984375 16.5 
Q 14.984375 11.71875 18.140625 8.90625 
Q 21.296875 6.109375 26.703125 6.109375 
Q 34.1875 6.109375 38.703125 11.40625 
Q 43.21875 16.703125 43.21875 25.484375 
L 43.21875 27.484375 
z
M 52.203125 31.203125 
L 52.203125 0 
L 43.21875 0 
L 43.21875 8.296875 
Q 40.140625 3.328125 35.546875 0.953125 
Q 30.953125 -1.421875 24.3125 -1.421875 
Q 15.921875 -1.421875 10.953125 3.296875 
Q 6 8.015625 6 15.921875 
Q 6 25.140625 12.171875 29.828125 
Q 18.359375 34.515625 30.609375 34.515625 
L 43.21875 34.515625 
L 43.21875 35.40625 
Q 43.21875 41.609375 39.140625 45 
Q 35.0625 48.390625 27.6875 48.390625 
Q 23 48.390625 18.546875 47.265625 
Q 14.109375 46.140625 10.015625 43.890625 
L 10.015625 52.203125 
Q 14.9375 54.109375 19.578125 55.046875 
Q 24.21875 56 28.609375 56 
Q 40.484375 56 46.34375 49.84375 
Q 52.203125 43.703125 52.203125 31.203125 
z
" id="DejaVuSans-97"/>
      <path d="M 18.109375 8.203125 
L 18.109375 -20.796875 
L 9.078125 -20.796875 
L 9.078125 54.6875 
L 18.109375 54.6875 
L 18.109375 46.390625 
Q 20.953125 51.265625 25.265625 53.625 
Q 29.59375 56 35.59375 56 
Q 45.5625 56 51.78125 48.09375 
Q 58.015625 40.1875 58.015625 27.296875 
Q 58.015625 14.40625 51.78125 6.484375 
Q 45.5625 -1.421875 35.59375 -1.421875 
Q 29.59375 -1.421875 25.265625 0.953125 
Q 20.953125 3.328125 18.109375 8.203125 
z
M 48.6875 27.296875 
Q 48.6875 37.203125 44.609375 42.84375 
Q 40.53125 48.484375 33.40625 48.484375 
Q 26.265625 48.484375 22.1875 42.84375 
Q 18.109375 37.203125 18.109375 27.296875 
Q 18.109375 17.390625 22.1875 11.75 
Q 26.265625 6.109375 33.40625 6.109375 
Q 40.53125 6.109375 44.609375 11.75 
Q 48.6875 17.390625 48.6875 27.296875 
z
" id="DejaVuSans-112"/>
     </defs>
     <g transform="translate(414.739062 412.756563)scale(0.1 -0.1)">
      <use xlink:href="#DejaVuSans-84"/>
      <use x="61.037109" xlink:href="#DejaVuSans-105"/>
      <use x="88.820312" xlink:href="#DejaVuSans-109"/>
      <use x="186.232422" xlink:href="#DejaVuSans-101"/>
      <use x="247.755859" xlink:href="#DejaVuSans-115"/>
      <use x="299.855469" xlink:href="#DejaVuSans-116"/>
      <use x="339.064453" xlink:href="#DejaVuSans-97"/>
      <use x="400.34375" xlink:href="#DejaVuSans-109"/>
      <use x="497.755859" xlink:href="#DejaVuSans-112"/>
     </g>
    </g>
   </g>
   <g id="matplotlib.axis_2">
    <g id="ytick_1">
     <g id="line2d_9">
      <defs>
       <path d="M 0 0 
L -3.5 0 
" id="m0a4640f828" style="stroke:#000000;stroke-width:0.8;"/>
      </defs>
      <g>
       <use style="stroke:#000000;stroke-width:0.8;" x="108" xlink:href="#m0a4640f828" y="369.36"/>
      </g>
     </g>
     <g id="text_10">
      <!-- 0.0 -->
      <defs>
       <path d="M 10.6875 12.40625 
L 21 12.40625 
L 21 0 
L 10.6875 0 
z
" id="DejaVuSans-46"/>
      </defs>
      <g transform="translate(85.096875 373.159219)scale(0.1 -0.1)">
       <use xlink:href="#DejaVuSans-48"/>
       <use x="63.623047" xlink:href="#DejaVuSans-46"/>
       <use x="95.410156" xlink:href="#DejaVuSans-48"/>
      </g>
     </g>
    </g>
    <g id="ytick_2">
     <g id="line2d_10">
      <g>
       <use style="stroke:#000000;stroke-width:0.8;" x="108" xlink:href="#m0a4640f828" y="308.88"/>
      </g>
     </g>
     <g id="text_11">
      <!-- 0.2 -->
      <g transform="translate(85.096875 312.679219)scale(0.1 -0.1)">
       <use xlink:href="#DejaVuSans-48"/>
       <use x="63.623047" xlink:href="#DejaVuSans-46"/>
       <use x="95.410156" xlink:href="#DejaVuSans-50"/>
      </g>
     </g>
    </g>
    <g id="ytick_3">
     <g id="line2d_11">
      <g>
       <use style="stroke:#000000;stroke-width:0.8;" x="108" xlink:href="#m0a4640f828" y="248.4"/>
      </g>
     </g>
     <g id="text_12">
      <!-- 0.4 -->
      <g transform="translate(85.096875 252.199219)scale(0.1 -0.1)">
       <use xlink:href="#DejaVuSans-48"/>
       <use x="63.623047" xlink:href="#DejaVuSans-46"/>
       <use x="95.410156" xlink:href="#DejaVuSans-52"/>
      </g>
     </g>
    </g>
    <g id="ytick_4">
     <g id="line2d_12">
      <g>
       <use style="stroke:#000000;stroke-width:0.8;" x="108" xlink:href="#m0a4640f828" y="187.92"/>
      </g>
     </g>
     <g id="text_13">
      <!-- 0.6 -->
      <g transform="translate(85.096875 191.719219)scale(0.1 -0.1)">
       <use xlink:href="#DejaVuSans-48"/>
       <use x="63.623047" xlink:href="#DejaVuSans-46"/>
       <use x="95.410156" xlink:href="#DejaVuSans-54"/>
      </g>
     </g>
    </g>
    <g id="ytick_5">
     <g id="line2d_13">
      <g>
       <use style="stroke:#000000;stroke-width:0.8;" x="108" xlink:href="#m0a4640f828" y="127.44"/>
      </g>
     </g>
     <g id="text_14">
      <!-- 0.8 -->
      <g transform="translate(85.096875 131.239219)scale(0.1 -0.1)">
       <use xlink:href="#DejaVuSans-48"/>
       <use x="63.623047" xlink:href="#DejaVuSans-46"/>
       <use x="95.410156" xlink:href="#DejaVuSans-56"/>
      </g>
     </g>
    </g>
    <g id="ytick_6">
     <g id="line2d_14">
      <g>
       <use style="stroke:#000000;stroke-width:0.8;" x="108" xlink:href="#m0a4640f828" y="66.96"/>
      </g>
     </g>
     <g id="text_15">
      <!-- 1.0 -->
      <g transform="translate(85.096875 70.759219)scale(0.1 -0.1)">
       <use xlink:href="#DejaVuSans-49"/>
       <use x="63.623047" xlink:href="#DejaVuSans-46"/>
       <use x="95.410156" xlink:href="#DejaVuSans-48"/>
      </g>
     </g>
    </g>
    <g id="text_16">
     <!-- Value -->
     <defs>
      <path d="M 28.609375 0 
L 0.78125 72.90625 
L 11.078125 72.90625 
L 34.1875 11.53125 
L 57.328125 72.90625 
L 67.578125 72.90625 
L 39.796875 0 
z
" id="DejaVuSans-86"/>
      <path d="M 9.421875 75.984375 
L 18.40625 75.984375 
L 18.40625 0 
L 9.421875 0 
z
" id="DejaVuSans-108"/>
      <path d="M 8.5 21.578125 
L 8.5 54.6875 
L 17.484375 54.6875 
L 17.484375 21.921875 
Q 17.484375 14.15625 20.5 10.265625 
Q 23.53125 6.390625 29.59375 6.390625 
Q 36.859375 6.390625 41.078125 11.03125 
Q 45.3125 15.671875 45.3125 23.6875 
L 45.3125 54.6875 
L 54.296875 54.6875 
L 54.296875 0 
L 45.3125 0 
L 45.3125 8.40625 
Q 42.046875 3.421875 37.71875 1 
Q 33.40625 -1.421875 27.6875 -1.421875 
Q 18.265625 -1.421875 13.375 4.4375 
Q 8.5 10.296875 8.5 21.578125 
z
M 31.109375 56 
z
" id="DejaVuSans-117"/>
     </defs>
     <g transform="translate(79.017187 232.273281)rotate(-90)scale(0.1 -0.1)">
      <use xlink:href="#DejaVuSans-86"/>
      <use x="68.298828" xlink:href="#DejaVuSans-97"/>
      <use x="129.578125" xlink:href="#DejaVuSans-108"/>
      <use x="157.361328" xlink:href="#DejaVuSans-117"/>
      <use x="220.740234" xlink:href="#DejaVuSans-101"/>
     </g>
    </g>
   </g>
   <g id="line2d_15">
    <path clip-path="url(#p51c5b33df2)" d="M 138.436364 369.36 
L 138.859091 350.46 
L 139.281818 344.188932 
L 139.704545 334.392558 
L 140.127273 345.524797 
L 140.55 339.550769 
L 141.395455 336.840603 
L 141.818182 336.618018 
L 142.240909 333.52983 
L 142.663636 337.778641 
L 143.086364 340.250147 
L 143.509091 332.534547 
L 143.931818 342.743988 
L 144.354545 337.885359 
L 144.777273 337.447671 
L 145.2 335.16636 
L 145.622727 335.098723 
L 146.045455 331.372871 
L 146.468182 338.390253 
L 146.890909 331.668309 
L 147.313636 337.886079 
L 147.736364 332.592787 
L 148.159091 341.469558 
L 148.581818 334.460193 
L 149.004545 344.389705 
L 149.427273 340.422201 
L 149.85 342.522599 
L 150.272727 335.029565 
L 150.695455 336.626854 
L 151.118182 331.251912 
L 151.963636 340.040496 
L 152.386364 336.712473 
L 152.809091 344.031297 
L 153.231818 337.449385 
L 153.654545 339.72252 
L 154.077273 335.830625 
L 154.5 327.272548 
L 154.922727 337.432398 
L 155.345455 343.007768 
L 155.768182 341.300313 
L 156.190909 344.435109 
L 156.613636 336.485996 
L 157.036364 337.082361 
L 157.459091 337.297255 
L 157.881818 342.833684 
L 158.304545 328.721265 
L 158.727273 338.814545 
L 159.15 328.806035 
L 159.572727 341.046648 
L 159.995455 336.466057 
L 160.418182 344.449051 
L 160.840909 340.247479 
L 161.263636 345.657541 
L 161.686364 341.59031 
L 162.109091 345.52869 
L 162.531818 334.940488 
L 162.954545 342.716187 
L 163.377273 336.522399 
L 163.8 337.317616 
L 164.222727 337.370579 
L 164.645455 341.178831 
L 165.068182 341.678893 
L 165.490909 337.348282 
L 165.913636 343.767127 
L 166.336364 333.8634 
L 166.759091 329.3646 
L 167.181818 321.525062 
L 167.604545 331.348301 
L 168.027273 324.096306 
L 168.45 337.790769 
L 168.872727 327.486535 
L 169.295455 332.132149 
L 169.718182 332.633474 
L 170.140909 336.085739 
L 170.563636 332.077808 
L 170.986364 334.989799 
L 171.409091 329.195077 
L 171.831818 327.660977 
L 172.254545 333.75746 
L 172.677273 331.478004 
L 173.1 339.012165 
L 173.522727 328.517212 
L 173.945455 345.416305 
L 174.790909 340.744524 
L 175.213636 353.936734 
L 175.636364 356.460648 
L 176.059091 356.163688 
L 176.481818 360.069969 
L 176.904545 361.145022 
L 177.327273 359.048518 
L 177.75 362.507368 
L 178.172727 363.998298 
L 178.595455 358.610704 
L 179.018182 360.11279 
L 179.440909 358.206639 
L 179.863636 358.264186 
L 180.286364 356.320898 
L 180.709091 355.738378 
L 181.131818 353.727605 
L 181.554545 356.177647 
L 181.977273 362.005744 
L 182.4 360.182222 
L 182.822727 361.505455 
L 183.668182 360.679415 
L 184.090909 359.453233 
L 184.936364 358.963143 
L 185.359091 356.526527 
L 185.781818 357.6 
L 186.204545 356.65257 
L 186.627273 358.865606 
L 187.05 356.453894 
L 187.472727 358.305283 
L 187.895455 357.07564 
L 188.318182 358.920211 
L 189.163636 354.322705 
L 189.586364 351.40552 
L 190.009091 352.24016 
L 190.431818 348.032477 
L 190.854545 353.246601 
L 191.277273 347.220613 
L 191.7 350.780029 
L 192.122727 351.696831 
L 192.545455 354.421496 
L 192.968182 349.714914 
L 193.813636 357.703165 
L 194.236364 358.122162 
L 194.659091 357.155516 
L 195.081818 357.143342 
L 195.504545 353.453617 
L 195.927273 354.103494 
L 196.35 355.974464 
L 196.772727 354.293808 
L 197.195455 356.233846 
L 197.618182 359.221509 
L 198.463636 362.218173 
L 198.886364 361.4112 
L 199.309091 358.710922 
L 199.731818 358.624883 
L 200.154545 360.157901 
L 200.577273 354.910853 
L 201 355.408069 
L 201.422727 358.599416 
L 201.845455 355.256746 
L 202.268182 357.432 
L 202.690909 356.378602 
L 203.113636 359.128971 
L 203.536364 357.073976 
L 203.959091 359.571672 
L 204.381818 355.832013 
L 204.804545 357.951549 
L 205.227273 355.549324 
L 206.072727 358.673825 
L 206.918182 355.338947 
L 207.340909 359.742385 
L 207.763636 358.793962 
L 208.186364 362.146789 
L 208.609091 360.142879 
L 209.031818 358.677391 
L 209.454545 357.820812 
L 209.877273 358.012008 
L 210.3 355.638534 
L 210.722727 360.564654 
L 211.145455 353.762913 
L 211.568182 356.973179 
L 211.990909 355.655618 
L 212.413636 355.955462 
L 212.836364 358.809083 
L 213.259091 358.692515 
L 213.681818 360.582311 
L 214.104545 361.926704 
L 214.527273 360.568338 
L 214.95 360.946772 
L 215.372727 358.8768 
L 215.795455 358.205902 
L 216.218182 358.409582 
L 216.640909 356.057398 
L 217.063636 358.02616 
L 217.486364 355.547958 
L 217.909091 357.934771 
L 218.331818 357.117955 
L 218.754545 358.701217 
L 219.177273 354.00375 
L 219.6 358.857855 
L 220.022727 357.619567 
L 220.445455 359.51858 
L 220.868182 353.193427 
L 221.290909 357.735037 
L 221.713636 355.282759 
L 222.136364 357.670843 
L 222.559091 356.580103 
L 222.981818 358.72875 
L 223.404545 358.403478 
L 223.827273 356.6592 
L 224.25 356.090716 
L 224.672727 357.137461 
L 225.095455 358.688827 
L 225.518182 357.542441 
L 225.940909 356.981053 
L 226.786364 357.219271 
L 227.209091 354.371152 
L 227.631818 358.230845 
L 228.054545 356.018824 
L 228.9 356.954889 
L 229.322727 357.761556 
L 229.745455 354.24 
L 230.168182 352.401509 
L 230.590909 349.435223 
L 231.013636 354.099856 
L 231.436364 356.69494 
L 231.859091 358.25676 
L 232.281818 356.073533 
L 232.704545 356.304 
L 233.127273 356.212174 
L 233.55 358.377313 
L 233.972727 356.442972 
L 234.395455 357.995294 
L 234.818182 356.908235 
L 235.240909 359.203554 
L 235.663636 356.896016 
L 236.086364 355.822326 
L 236.509091 357.802304 
L 236.931818 352.923187 
L 237.354545 355.682677 
L 237.777273 359.91 
L 238.2 359.717666 
L 239.045455 362.267883 
L 239.468182 360.985846 
L 239.890909 358.060356 
L 240.313636 359.660056 
L 240.736364 357.929072 
L 241.159091 354.546739 
L 241.581818 354.50702 
L 242.004545 359.116701 
L 242.427273 354.653115 
L 243.272727 354.96 
L 243.695455 361.471304 
L 244.118182 357.044315 
L 244.963636 357.554167 
L 245.386364 353.276588 
L 245.809091 355.757727 
L 246.231818 356.014037 
L 246.654545 356.499116 
L 247.077273 354.83852 
L 247.5 354.66 
L 247.922727 355.458867 
L 248.345455 358.01127 
L 248.768182 357.608705 
L 249.190909 357.578182 
L 249.613636 356.963478 
L 250.036364 353.734468 
L 250.459091 348.8644 
L 250.881818 352.46165 
L 251.304545 352.501463 
L 251.727273 347.780971 
L 252.15 348.328089 
L 252.995455 345.201322 
L 253.418182 350.487862 
L 253.840909 342.637081 
L 254.263636 350.034847 
L 254.686364 346.971679 
L 255.109091 350.753175 
L 255.531818 342.335736 
L 255.954545 342.701407 
L 256.377273 338.008445 
L 256.8 331.663789 
L 257.222727 341.560534 
L 257.645455 340.691582 
L 258.068182 339.175554 
L 258.490909 338.377914 
L 258.913636 338.090155 
L 259.336364 341.438049 
L 259.759091 339.615738 
L 260.181818 340.799128 
L 260.604545 337.164764 
L 261.027273 338.296455 
L 261.45 337.300401 
L 261.872727 345.784588 
L 262.295455 349.656109 
L 262.718182 347.690547 
L 263.140909 345.036181 
L 263.563636 357.349787 
L 263.986364 352.416564 
L 264.409091 354.835504 
L 264.831818 356.380133 
L 265.254545 351.054915 
L 265.677273 356.657561 
L 266.1 354.19159 
L 266.522727 357.086719 
L 266.945455 356.665263 
L 267.368182 356.661232 
L 267.790909 354.747383 
L 268.213636 358.895084 
L 268.636364 357.264 
L 269.059091 359.166742 
L 269.481818 357.088025 
L 269.904545 357.414545 
L 270.327273 355.450323 
L 270.75 359.989412 
L 271.172727 353.479777 
L 271.595455 359.081379 
L 272.440909 350.076522 
L 272.863636 353.765381 
L 273.286364 329.239887 
L 273.709091 345.827474 
L 274.131818 351.01322 
L 274.554545 348.652002 
L 274.977273 355.583545 
L 275.4 348.624865 
L 275.822727 353.831713 
L 276.668182 358.100426 
L 277.090909 358.828657 
L 277.936364 359.473846 
L 278.359091 360.792325 
L 279.204545 359.522376 
L 279.627273 360.190807 
L 280.05 358.320862 
L 280.472727 358.942979 
L 280.895455 355.749383 
L 281.318182 359.183807 
L 281.740909 354.14268 
L 282.163636 356.0544 
L 282.586364 356.036185 
L 283.009091 357.537093 
L 283.431818 354.740557 
L 283.854545 350.944615 
L 284.277273 357.729231 
L 284.7 359.34886 
L 285.122727 358.579495 
L 285.968182 354.96745 
L 286.390909 357.369887 
L 287.236364 358.720308 
L 287.659091 360.75 
L 288.081818 362.115774 
L 288.504545 359.019735 
L 288.927273 361.63995 
L 289.35 359.025379 
L 289.772727 360.325202 
L 290.195455 360.667156 
L 291.040909 349.686192 
L 291.463636 356.772341 
L 291.886364 348.421975 
L 292.309091 359.605161 
L 292.731818 356.62031 
L 293.154545 356.2888 
L 293.577273 355.05616 
L 294 358.506162 
L 294.422727 354.175385 
L 294.845455 355.728497 
L 295.268182 351.511024 
L 295.690909 350.344049 
L 296.113636 352.453671 
L 296.536364 357.718037 
L 296.959091 356.773277 
L 297.381818 357.346379 
L 297.804545 357.494334 
L 298.227273 358.862558 
L 298.65 358.822103 
L 299.072727 359.015223 
L 299.495455 358.472849 
L 299.918182 359.419516 
L 301.186364 351.533283 
L 301.609091 357.137246 
L 302.031818 356.660787 
L 302.454545 358.31813 
L 302.877273 355.14671 
L 303.3 354.024106 
L 303.722727 356.787938 
L 304.145455 355.935378 
L 304.568182 359.132438 
L 304.990909 356.348491 
L 305.413636 360.066383 
L 305.836364 359.93539 
L 306.259091 361.235336 
L 306.681818 356.485545 
L 307.104545 352.999149 
L 307.527273 352.33428 
L 307.95 356.473135 
L 308.372727 357.379672 
L 308.795455 362.568511 
L 309.218182 358.910795 
L 309.640909 361.25095 
L 310.063636 359.345455 
L 310.486364 361.33878 
L 310.909091 357.891737 
L 311.331818 358.733939 
L 311.754545 357.56241 
L 312.177273 357.898776 
L 312.6 357.787288 
L 313.022727 357.901935 
L 313.445455 358.273706 
L 313.868182 360.882861 
L 314.290909 358.047437 
L 314.713636 357.20147 
L 315.136364 360.125293 
L 315.559091 353.777391 
L 315.981818 353.112113 
L 316.404545 347.590986 
L 316.827273 351.643025 
L 317.672727 348.164592 
L 318.095455 348.695692 
L 318.518182 356.236284 
L 318.940909 359.49913 
L 319.363636 359.816436 
L 319.786364 359.258956 
L 320.209091 357.134554 
L 320.631818 357.156443 
L 321.054545 355.794393 
L 321.477273 354.951315 
L 321.9 356.828702 
L 322.322727 352.52951 
L 322.745455 355.576804 
L 323.168182 356.738388 
L 323.590909 359.729427 
L 324.013636 355.558245 
L 324.436364 353.189768 
L 324.859091 355.947097 
L 325.281818 357.594146 
L 326.127273 357.37508 
L 326.55 358.060056 
L 326.972727 355.824142 
L 327.395455 361.044848 
L 328.240909 360.88886 
L 328.663636 360.347445 
L 329.086364 360.59788 
L 329.509091 362.097931 
L 329.931818 361.397116 
L 330.354545 359.023271 
L 330.777273 360.076656 
L 331.2 358.378537 
L 331.622727 359.17083 
L 332.045455 358.830968 
L 332.468182 360.113957 
L 332.890909 360.268861 
L 333.313636 357.235886 
L 333.736364 355.76 
L 334.159091 350.395932 
L 334.581818 358.382775 
L 335.004545 358.247305 
L 335.427273 358.262752 
L 335.85 361.888112 
L 336.272727 359.89496 
L 336.695455 360.42647 
L 337.118182 350.388448 
L 337.540909 357.526261 
L 337.963636 355.967445 
L 338.386364 358.823415 
L 338.809091 353.567763 
L 339.231818 358.420465 
L 339.654545 352.585886 
L 340.077273 358.237724 
L 340.5 360.866612 
L 340.922727 356.816286 
L 341.345455 358.619016 
L 342.190909 356.279522 
L 342.613636 358.465507 
L 343.036364 358.967095 
L 343.459091 359.891792 
L 343.881818 358.649651 
L 344.304545 360.92093 
L 344.727273 356.075376 
L 345.15 354.768319 
L 345.572727 356.104594 
L 345.995455 360.009242 
L 346.418182 359.141783 
L 346.840909 355.349797 
L 347.263636 353.281171 
L 347.686364 355.080502 
L 348.109091 358.45377 
L 348.531818 360.232441 
L 348.954545 360.652621 
L 349.377273 356.926829 
L 349.8 360.401354 
L 350.222727 357.832158 
L 350.645455 359.080113 
L 351.490909 359.274578 
L 351.913636 359.937265 
L 352.336364 359.664733 
L 352.759091 357.771679 
L 353.181818 356.886421 
L 353.604545 356.2875 
L 354.027273 353.471778 
L 354.45 352.821233 
L 354.872727 347.682581 
L 355.295455 354.285224 
L 356.140909 360.218525 
L 356.563636 355.546461 
L 356.986364 359.037108 
L 357.409091 357.712218 
L 358.254545 357.293702 
L 358.677273 357.365492 
L 359.1 360.770342 
L 359.522727 358.56 
L 359.945455 359.053252 
L 360.368182 357.701778 
L 360.790909 360.341726 
L 361.213636 357.187119 
L 361.636364 357.596156 
L 362.059091 357.70644 
L 362.481818 356.67871 
L 362.904545 356.05516 
L 363.327273 356.021511 
L 364.172727 359.314054 
L 364.595455 355.190826 
L 365.018182 359.936294 
L 365.440909 357.681592 
L 366.286364 355.139027 
L 366.709091 355.064116 
L 367.131818 353.48772 
L 367.554545 353.595071 
L 367.977273 357.958923 
L 368.4 357.017143 
L 368.822727 357.691197 
L 369.245455 357.903817 
L 369.668182 357.196893 
L 370.090909 357.451139 
L 370.513636 358.450633 
L 370.936364 357.358439 
L 371.359091 360.055385 
L 371.781818 355.268312 
L 372.204545 357.450092 
L 372.627273 355.697349 
L 373.05 355.382097 
L 373.472727 357.750836 
L 373.895455 356.793999 
L 374.318182 355.251713 
L 374.740909 356.786866 
L 376.009091 345.215946 
L 376.431818 360.809266 
L 376.854545 358.395789 
L 377.277273 346.548685 
L 377.7 342.74631 
L 378.122727 346.810096 
L 378.545455 356.842786 
L 378.968182 358.745512 
L 379.390909 360.111636 
L 379.813636 358.460613 
L 380.236364 358.92507 
L 380.659091 358.320344 
L 381.081818 358.911628 
L 381.504545 355.387723 
L 381.927273 359.226667 
L 382.35 355.869386 
L 382.772727 359.920925 
L 383.195455 354.117685 
L 383.618182 359.546538 
L 384.040909 361.337855 
L 384.463636 362.209284 
L 384.886364 358.965 
L 385.309091 358.024571 
L 385.731818 359.956399 
L 386.154545 360.005568 
L 386.577273 360.333134 
L 387.422727 357.138291 
L 387.845455 355.716596 
L 388.268182 360.181725 
L 388.690909 361.413112 
L 389.113636 362.073253 
L 389.536364 354.139275 
L 389.959091 360.092903 
L 390.381818 362.015101 
L 390.804545 350.057872 
L 391.227273 361.331681 
L 391.65 369.36 
L 392.072727 359.891885 
L 392.495455 359.408995 
L 392.918182 359.392725 
L 393.340909 358.504615 
L 393.763636 355.033096 
L 394.186364 357.293253 
L 394.609091 355.961458 
L 395.454545 360.844138 
L 395.877273 356.80684 
L 396.3 358.75893 
L 396.722727 361.482202 
L 397.145455 359.209778 
L 397.568182 358.200653 
L 397.990909 358.622864 
L 398.413636 359.204003 
L 398.836364 360.196364 
L 399.259091 363.65035 
L 399.681818 361.267226 
L 400.104545 362.198503 
L 400.95 362.149902 
L 401.372727 362.512374 
L 401.795455 362.623366 
L 402.218182 360.152963 
L 402.640909 358.96442 
L 403.063636 360.161521 
L 403.486364 358.252891 
L 403.909091 355.667143 
L 404.331818 356.822376 
L 404.754545 356.466977 
L 405.177273 358.774236 
L 405.6 356.854737 
L 406.022727 360.945977 
L 406.445455 356.556015 
L 406.868182 359.934046 
L 407.290909 359.994425 
L 407.713636 360.228917 
L 408.136364 359.20667 
L 408.559091 361.228886 
L 408.981818 362.553569 
L 409.404545 362.925957 
L 409.827273 360.761942 
L 410.25 360.445182 
L 410.672727 361.638261 
L 411.095455 362.467692 
L 411.518182 360.154819 
L 411.940909 359.335691 
L 412.363636 360.543673 
L 412.786364 359.554325 
L 413.209091 359.090503 
L 413.631818 359.76 
L 414.054545 357.543304 
L 414.477273 360.903449 
L 414.9 356.94806 
L 415.322727 359.851634 
L 415.745455 360.775742 
L 416.168182 361.085373 
L 416.590909 361.698366 
L 417.013636 361.255176 
L 417.436364 358.107076 
L 417.859091 357.963822 
L 418.281818 356.236284 
L 418.704545 359.821682 
L 419.127273 358.245758 
L 419.55 362.045556 
L 419.972727 358.42988 
L 420.395455 361.572876 
L 420.818182 357.325453 
L 421.240909 358.552717 
L 421.663636 361.588037 
L 422.086364 362.011276 
L 422.509091 358.545695 
L 422.931818 362.155712 
L 423.354545 361.170427 
L 423.777273 360.90383 
L 424.2 358.137734 
L 424.622727 359.211195 
L 425.045455 354.901818 
L 425.890909 356.849593 
L 426.313636 357.225478 
L 426.736364 359.378182 
L 427.159091 357.729231 
L 427.581818 356.648496 
L 428.004545 358.56 
L 428.427273 359.835591 
L 428.85 359.92922 
L 429.695455 359.249362 
L 430.118182 361.232088 
L 430.540909 359.902222 
L 430.963636 361.974096 
L 431.386364 357.037262 
L 431.809091 361.511118 
L 432.231818 358.239208 
L 432.654545 360.222987 
L 433.077273 357.673043 
L 433.5 360.323143 
L 433.922727 360.153911 
L 434.345455 361.795602 
L 434.768182 361.52129 
L 435.190909 360.227114 
L 435.613636 361.821416 
L 436.036364 361.135332 
L 436.459091 362.668912 
L 436.881818 360.416562 
L 437.304545 359.766091 
L 437.727273 359.626448 
L 438.15 357.143717 
L 438.572727 358.76147 
L 438.995455 361.127695 
L 439.418182 358.076418 
L 439.840909 359.990519 
L 440.263636 359.632448 
L 440.686364 357.616311 
L 441.109091 358.56 
L 441.531818 360.532301 
L 441.954545 359.944214 
L 442.377273 362.42336 
L 442.8 361.125827 
L 443.222727 361.831369 
L 443.645455 359.138571 
L 444.068182 348.587234 
L 444.490909 355.972978 
L 444.913636 356.699905 
L 445.336364 356.80684 
L 445.759091 354.804965 
L 446.181818 358.172369 
L 446.604545 357.36 
L 447.027273 359.821096 
L 447.45 358.89304 
L 447.872727 357.578182 
L 448.295455 356.871504 
L 448.718182 354.20908 
L 449.140909 357.553007 
L 449.563636 357.845772 
L 449.986364 359.637165 
L 450.409091 359.504 
L 450.831818 361.033043 
L 451.254545 359.309778 
L 451.677273 363.56177 
L 452.1 363.646047 
L 452.522727 359.361619 
L 452.945455 360.796123 
L 453.368182 359.118621 
L 453.790909 350.852841 
L 454.213636 356.585 
L 454.636364 357.935615 
L 455.059091 356.187975 
L 455.481818 355.13738 
L 455.904545 355.200154 
L 456.327273 353.892414 
L 456.75 360.181463 
L 457.172727 357.451647 
L 457.595455 356.701395 
L 458.018182 359.161012 
L 458.440909 358.6996 
L 458.863636 360.70486 
L 459.286364 355.624456 
L 459.709091 361.385538 
L 460.131818 358.88315 
L 460.554545 362.120602 
L 460.977273 361.913762 
L 462.245455 361.738537 
L 462.668182 362.136759 
L 463.090909 359.882449 
L 463.513636 360.600072 
L 463.936364 358.771765 
L 464.359091 358.56 
L 464.781818 355.799462 
L 465.204545 357.567242 
L 465.627273 356.4753 
L 466.05 358.106411 
L 466.472727 356.697 
L 466.895455 356.865528 
L 467.318182 357.250355 
L 467.740909 358.96043 
L 468.163636 357.769153 
L 468.586364 358.71101 
L 469.009091 353.682798 
L 469.431818 361.151733 
L 469.854545 361.451077 
L 470.277273 361.492355 
L 471.122727 359.469395 
L 471.968182 361.263614 
L 472.390909 357.43239 
L 472.813636 360.575822 
L 473.236364 360.844765 
L 473.659091 358.349831 
L 474.081818 356.680253 
L 474.927273 361.725778 
L 475.35 362.197435 
L 475.772727 357.097868 
L 476.195455 359.359103 
L 476.618182 364.033973 
L 477.463636 357.729231 
L 477.886364 355.314098 
L 478.309091 357.181561 
L 478.731818 357.553451 
L 479.154545 359.211195 
L 479.577273 359.708936 
L 480 362.882892 
L 480.422727 361.124426 
L 480.845455 361.416522 
L 481.268182 363.201141 
L 481.690909 362.183731 
L 482.113636 363.178868 
L 482.536364 362.930233 
L 482.959091 359.570072 
L 483.381818 359.139021 
L 483.804545 360.778378 
L 484.227273 357.65689 
L 484.65 358.529054 
L 485.072727 360.685301 
L 485.495455 359.021538 
L 485.918182 362.238576 
L 486.340909 360.17267 
L 486.763636 356.587397 
L 487.186364 360.831951 
L 487.609091 360.286255 
L 488.031818 358.042337 
L 488.454545 361.170832 
L 488.877273 360.695244 
L 489.3 358.281574 
L 489.722727 357.825353 
L 490.145455 356.201172 
L 490.568182 363.050935 
L 490.990909 363.24285 
L 491.413636 362.803902 
L 491.836364 363.322976 
L 492.259091 364.036056 
L 493.104545 355.481739 
L 493.527273 356.700284 
L 493.95 357.059625 
L 494.372727 358.051683 
L 494.795455 347.179608 
L 495.218182 356.472605 
L 495.640909 356.314584 
L 496.063636 354.530149 
L 496.486364 354.588765 
L 496.909091 357.797647 
L 497.331818 354.981736 
L 497.754545 359.627194 
L 498.177273 354.436364 
L 498.6 358.328616 
L 499.022727 358.432273 
L 499.445455 358.852703 
L 499.868182 348.44042 
L 500.290909 347.94096 
L 500.713636 360.28589 
L 501.136364 360.432 
L 501.559091 361.74229 
L 501.981818 357.750494 
L 502.404545 360.898144 
L 502.827273 357.525862 
L 503.25 361.370568 
L 503.672727 346.266752 
L 504.095455 342.574417 
L 504.518182 348.849391 
L 504.940909 345.585103 
L 505.363636 345.002867 
L 505.786364 353.711876 
L 506.209091 353.455372 
L 506.631818 355.063152 
L 507.054545 357.496947 
L 507.477273 356.4 
L 507.9 354.622785 
L 508.322727 358.635237 
L 508.745455 355.181693 
L 509.168182 354.880056 
L 510.013636 355.890489 
L 510.436364 354.377341 
L 510.859091 357.08459 
L 511.281818 352.618131 
L 512.127273 357.909398 
L 512.55 356.153583 
L 512.972727 356.124392 
L 513.395455 353.761997 
L 513.818182 355.575385 
L 514.663636 351.959067 
L 515.086364 354.591065 
L 515.509091 352.647827 
L 515.931818 352.810746 
L 516.354545 353.852308 
L 516.777273 353.455677 
L 517.2 356.775199 
L 517.622727 353.614494 
L 518.045455 354.442582 
L 518.468182 351.76433 
L 519.313636 350.421402 
L 519.736364 350.101463 
L 520.159091 345.339933 
L 520.581818 350.32 
L 521.004545 345.86457 
L 521.427273 352.720235 
L 521.85 353.154833 
L 522.272727 355.706114 
L 522.695455 353.604241 
L 523.118182 356.256682 
L 523.540909 355.059054 
L 523.963636 357.84 
L 524.386364 355.979469 
L 524.809091 352.878483 
L 525.231818 353.15207 
L 525.654545 355.144615 
L 526.5 343.952048 
L 526.922727 350.73931 
L 527.345455 347.278053 
L 527.768182 349.044815 
L 528.190909 360.01513 
L 528.613636 357.451647 
L 529.036364 351.076304 
L 529.459091 355.956105 
L 529.881818 358.680446 
L 530.304545 356.688 
L 530.727273 358.803943 
L 531.15 353.047967 
L 531.572727 357.6096 
L 531.995455 354.297931 
L 532.418182 357.63907 
L 532.840909 355.140564 
L 533.263636 363.188571 
L 533.686364 346.537358 
L 534.109091 354.144906 
L 534.531818 357.067317 
L 534.954545 362.444407 
L 535.377273 356.000964 
L 535.8 363.927665 
L 536.222727 354.96 
L 536.645455 361.828966 
L 537.068182 355.671111 
L 537.490909 361.402105 
L 537.913636 361.419519 
L 538.336364 358.795808 
L 538.759091 352.631489 
L 539.181818 361.846957 
L 539.604545 353.785751 
L 540.027273 362.693868 
L 540.45 350.057872 
L 540.872727 362.980253 
L 541.295455 353.367692 
L 541.718182 360.140488 
L 542.140909 352.161896 
L 542.563636 362.29758 
L 542.986364 353.212427 
L 543.409091 361.639149 
L 543.831818 353.014054 
L 544.254545 360.238886 
L 544.677273 358.932414 
L 545.1 354.742477 
L 545.522727 355.44589 
L 545.945455 352.402991 
L 546.368182 362.371765 
L 546.790909 356.083902 
L 547.213636 362.828683 
L 547.636364 356.582535 
L 548.059091 364.190769 
L 548.481818 356.212174 
L 548.904545 342.440119 
L 549.327273 354.312809 
L 549.75 339.940995 
L 550.172727 354.487869 
L 550.595455 358.992 
L 551.018182 351.829565 
L 551.440909 361.075068 
L 552.286364 351.216 
L 552.709091 361.505455 
L 553.131818 344.799594 
L 553.554545 358.194462 
L 553.977273 353.444211 
L 554.4 362.800347 
L 554.822727 352.56 
L 555.245455 353.212427 
L 555.668182 352.161896 
L 556.090909 360.079182 
L 556.513636 350.368696 
L 556.936364 360.887586 
L 557.359091 355.819701 
L 557.781818 360.64337 
L 558.204545 352.388571 
L 558.627273 358.462703 
L 559.05 357.924706 
L 559.472727 364.361653 
L 559.895455 350.995628 
L 560.318182 360.442038 
L 560.740909 349.975385 
L 561.163636 361.381108 
L 561.586364 355.614545 
L 562.009091 358.841739 
L 562.431818 356.818065 
L 562.854545 360.99871 
L 563.277273 349.465263 
L 563.7 359.952 
L 564.122727 358.702731 
L 564.545455 358.462703 
L 564.968182 362.232727 
L 565.390909 354.308416 
L 565.813636 354.897391 
L 566.236364 358.841739 
L 566.659091 364.511904 
L 567.081818 362.513208 
L 567.504545 362.12555 
L 567.927273 365.432727 
L 568.35 361.296 
L 568.772727 360.72 
L 569.195455 365.328 
L 569.618182 364.10087 
L 570.040909 357.778723 
L 570.463636 362.090769 
L 570.886364 354.00375 
L 571.309091 359.547611 
L 571.731818 363.097278 
L 572.154545 363.312 
L 572.577273 366.701538 
L 573 367.063291 
L 573.422727 363.371881 
L 573.845455 366.65396 
L 574.268182 355.36 
L 574.690909 362.473043 
L 575.113636 362.36 
L 575.536364 366.775385 
L 575.959091 364.998462 
L 576.381818 365.198532 
L 576.804545 366.891429 
L 577.227273 361.736471 
L 577.65 364.902015 
L 578.072727 363.785806 
L 578.495455 365.31902 
L 578.918182 352.637419 
L 579.340909 363.836712 
L 579.763636 351.190043 
L 580.609091 355.416484 
L 581.031818 351.243871 
L 581.454545 352.790137 
L 581.877273 361.296 
L 582.3 362.261408 
L 582.722727 352.402991 
L 583.145455 360.760948 
L 583.568182 354.902629 
L 583.990909 353.374097 
L 584.413636 361.939141 
L 584.836364 358.780408 
L 585.259091 359.657326 
L 585.681818 350.301176 
L 586.104545 352.98 
L 586.527273 347.95115 
L 586.95 361.736471 
L 587.372727 351.421017 
L 587.795455 363.188571 
L 588.218182 353.785751 
L 588.640909 354.641416 
L 589.063636 353.650909 
L 589.486364 362.087856 
L 589.909091 352.219919 
L 590.331818 355.838049 
L 590.754545 357.447273 
L 591.177273 353.852308 
L 591.6 363.557015 
L 592.022727 359.738182 
L 592.445455 364.422857 
L 592.868182 358.841739 
L 593.290909 363.281608 
L 593.713636 358.655575 
L 594.136364 362.856774 
L 594.559091 354.770526 
L 594.981818 353.918298 
L 595.404545 353.513712 
L 595.827273 354.51 
L 596.25 358.184348 
L 596.672727 359.988099 
L 597.095455 351.997321 
L 597.518182 356.569668 
L 597.940909 357.423158 
L 598.363636 362.543607 
L 598.786364 355.92 
L 599.209091 354.426667 
L 599.631818 362.501443 
L 600.054545 350.627257 
L 600.477273 345.264382 
L 600.9 364.513846 
L 601.322727 360.230943 
L 601.745455 364.786843 
L 602.168182 359.872941 
L 602.590909 363.29988 
L 603.013636 356.212174 
L 603.436364 360.769091 
L 603.859091 358.16 
L 604.281818 358.669091 
L 604.704545 353.52 
L 605.127273 352.810746 
L 605.55 345.070843 
L 605.972727 352.388571 
L 606.395455 362.925957 
L 606.818182 361.525803 
L 607.240909 365.328 
L 607.663636 357.894597 
L 608.086364 360.377822 
L 608.509091 356.989091 
L 608.931818 362.754175 
L 609.354545 361.150045 
L 610.2 358.655575 
L 610.622727 364.288302 
L 611.045455 354.170959 
L 611.468182 356.33799 
L 611.890909 355.614545 
L 612.313636 357.894597 
L 612.736364 350.089412 
L 613.159091 354.8911 
L 613.581818 356.353548 
L 614.004545 356.373497 
L 614.427273 355.456552 
L 615.272727 346.504186 
L 615.695455 348.69913 
L 616.118182 350.132254 
L 616.540909 348.262326 
L 616.963636 352.466145 
L 617.386364 345.978557 
L 617.809091 352.455652 
L 618.231818 351.083077 
L 618.654545 352.466145 
L 619.077273 349.302857 
L 619.5 350.057872 
L 619.922727 349.530492 
L 620.345455 353.772371 
L 620.768182 350.939695 
L 621.190909 354.641416 
L 621.613636 356.491915 
L 622.036364 350.750769 
L 622.459091 349.421538 
L 622.881818 345.389268 
L 623.304545 354.873772 
L 623.727273 356.373497 
L 624.15 355.456552 
L 624.572727 346.225574 
L 624.995455 346.96 
L 625.418182 355.035789 
L 625.840909 359.860524 
L 626.263636 352.371236 
L 626.686364 357.383762 
L 627.109091 356.353548 
L 627.531818 359.958964 
L 627.954545 358.16 
L 628.377273 358.828657 
L 628.8 357.017143 
L 629.222727 358.614822 
L 629.645455 361.566186 
L 630.068182 359.445246 
L 630.913636 357.264 
L 631.336364 362.856774 
L 631.759091 355.614545 
L 632.181818 356.684551 
L 632.604545 356.212174 
L 633.027273 362.286316 
L 633.872727 362.993684 
L 634.295455 362.368092 
L 635.140909 362.64 
L 635.563636 358.776 
L 635.986364 364.456216 
L 636.409091 360.333134 
L 636.831818 361.317447 
L 637.254545 360.377822 
L 637.677273 360.636923 
L 638.1 357.317522 
L 638.522727 356.932603 
L 638.945455 357.84 
L 639.368182 358.055327 
L 639.790909 356.582535 
L 640.213636 354.680388 
L 640.636364 362.227925 
L 641.059091 359.375094 
L 641.481818 354.101284 
L 641.904545 350.939695 
L 642.327273 357.141818 
L 643.172727 356.953846 
L 643.595455 357.017143 
L 644.018182 356.889897 
L 644.440909 356.56 
L 644.863636 358.335 
L 645.286364 355.86 
L 645.709091 333.52 
L 646.554545 353.508387 
L 646.977273 356.318491 
L 647.4 361.481844 
L 647.822727 361.317447 
L 648.245455 362.344615 
L 648.668182 362.211799 
L 649.090909 358.846093 
L 649.513636 361.065101 
L 649.936364 361.147072 
L 650.359091 355.901307 
L 650.781818 359.258276 
L 651.204545 359.477647 
L 651.627273 359.49913 
L 652.05 360.238426 
L 652.472727 364.46 
L 652.895455 362.896489 
L 653.318182 362.881361 
L 653.740909 360.904737 
L 654.163636 360.535097 
L 654.586364 174.828293 
L 655.009091 66.96 
L 683.331818 66.96 
L 683.754545 69.949831 
L 684.177273 119.194857 
L 684.6 120.597372 
L 685.022727 118.952359 
L 685.445455 106.630841 
L 685.868182 107.376229 
L 686.290909 106.679205 
L 686.713636 100.717009 
L 687.136364 100.542482 
L 687.559091 108.06838 
L 687.981818 101.833416 
L 688.404545 99.574869 
L 689.25 103.163875 
L 689.672727 103.061124 
L 690.095455 98.5721 
L 690.518182 196.56 
L 690.940909 101.511841 
L 691.363636 103.119557 
L 691.786364 105.216236 
L 692.209091 104.574887 
L 692.631818 113.348927 
L 693.054545 113.583096 
L 693.477273 115.073744 
L 693.9 123.408 
L 695.168182 108.603243 
L 695.590909 107.149014 
L 696.013636 108.482566 
L 696.436364 109.162728 
L 696.859091 103.860931 
L 697.281818 107.92512 
L 697.704545 106.00911 
L 698.127273 111.52569 
L 698.55 113.033035 
L 698.972727 103.282593 
L 699.395455 104.855503 
L 699.818182 118.971628 
L 700.240909 106.410075 
L 700.663636 112.32 
L 701.086364 103.738378 
L 701.931818 106.16 
L 702.354545 105.185174 
L 702.777273 109.126628 
L 703.2 111.5136 
L 703.622727 111.78383 
L 704.045455 113.690461 
L 704.468182 114.625689 
L 704.890909 109.792861 
L 705.313636 108.707639 
L 705.736364 104.561401 
L 706.159091 105.951404 
L 706.581818 104.53439 
L 707.004545 101.1375 
L 707.427273 99.805535 
L 707.85 106.302401 
L 708.272727 102.252956 
L 708.695455 102.813219 
L 709.118182 106.487311 
L 709.540909 107.580896 
L 709.963636 100.523793 
L 710.386364 105.942524 
L 710.809091 106.097715 
L 711.231818 102.138523 
L 711.654545 105.685424 
L 712.077273 102.970762 
L 712.5 108.771429 
L 712.922727 116.852617 
L 713.345455 113.621128 
L 713.768182 116.940269 
L 714.190909 118.822282 
L 715.036364 111.937778 
L 715.459091 107.645958 
L 715.881818 109.721915 
L 716.304545 106.088435 
L 716.727273 106.070191 
L 717.15 105.786667 
L 717.572727 109.743773 
L 717.995455 110.622032 
L 718.418182 110.808 
L 718.840909 109.79499 
L 719.263636 117.444706 
L 719.686364 110.293608 
L 720.109091 112.669736 
L 720.531818 109.598691 
L 720.954545 109.827852 
L 721.377273 113.610824 
L 721.8 109.195439 
L 722.222727 114.10382 
L 722.645455 116.52866 
L 723.068182 116.470915 
L 723.490909 124.268907 
L 723.913636 122.82 
L 724.336364 120.098028 
L 724.759091 119.242158 
L 725.181818 125.948832 
L 725.604545 119.719974 
L 726.027273 118.836151 
L 726.45 111.514232 
L 726.872727 111.29089 
L 727.295455 110.136724 
L 727.718182 113.754277 
L 728.563636 105.875158 
L 728.986364 111.01411 
L 729.409091 102.23783 
L 729.831818 111.642985 
L 730.254545 108.286475 
L 730.677273 99.458143 
L 731.522727 108.457436 
L 731.945455 109.199146 
L 732.368182 114.597402 
L 732.790909 115.57638 
L 733.213636 121.86596 
L 733.636364 125.410218 
L 734.481818 123.567933 
L 734.904545 125.282853 
L 735.327273 122.821097 
L 735.75 116.872351 
L 736.172727 114.066651 
L 736.595455 115.425914 
L 737.018182 117.901935 
L 737.440909 110.358393 
L 737.863636 115.934049 
L 738.286364 105.535288 
L 738.709091 105.37418 
L 739.131818 108.020949 
L 739.554545 104.099348 
L 740.4 107.795601 
L 740.822727 108.091034 
L 741.245455 101.485984 
L 741.245455 101.485984 
" style="fill:none;stroke:#1f77b4;stroke-linecap:square;stroke-width:1.5;"/>
   </g>
   <g id="line2d_16">
    <path clip-path="url(#p51c5b33df2)" d="M 747.163636 384.48 
L 747.163636 51.84 
" style="fill:none;stroke:#808080;stroke-linecap:square;"/>
   </g>
   <g id="patch_38">
    <path d="M 108 384.48 
L 108 51.84 
" style="fill:none;stroke:#000000;stroke-linecap:square;stroke-linejoin:miter;stroke-width:0.8;"/>
   </g>
   <g id="patch_39">
    <path d="M 777.6 384.48 
L 777.6 51.84 
" style="fill:none;stroke:#000000;stroke-linecap:square;stroke-linejoin:miter;stroke-width:0.8;"/>
   </g>
   <g id="patch_40">
    <path d="M 108 384.48 
L 777.6 384.48 
" style="fill:none;stroke:#000000;stroke-linecap:square;stroke-linejoin:miter;stroke-width:0.8;"/>
   </g>
   <g id="patch_41">
    <path d="M 108 51.84 
L 777.6 51.84 
" style="fill:none;stroke:#000000;stroke-linecap:square;stroke-linejoin:miter;stroke-width:0.8;"/>
   </g>
   <g id="text_17">
    <!-- real_32.csv -->
    <defs>
     <path d="M 41.109375 46.296875 
Q 39.59375 47.171875 37.8125 47.578125 
Q 36.03125 48 33.890625 48 
Q 26.265625 48 22.1875 43.046875 
Q 18.109375 38.09375 18.109375 28.8125 
L 18.109375 0 
L 9.078125 0 
L 9.078125 54.6875 
L 18.109375 54.6875 
L 18.109375 46.1875 
Q 20.953125 51.171875 25.484375 53.578125 
Q 30.03125 56 36.53125 56 
Q 37.453125 56 38.578125 55.875 
Q 39.703125 55.765625 41.0625 55.515625 
z
" id="DejaVuSans-114"/>
     <path d="M 50.984375 -16.609375 
L 50.984375 -23.578125 
L -0.984375 -23.578125 
L -0.984375 -16.609375 
z
" id="DejaVuSans-95"/>
     <path d="M 40.578125 39.3125 
Q 47.65625 37.796875 51.625 33 
Q 55.609375 28.21875 55.609375 21.1875 
Q 55.609375 10.40625 48.1875 4.484375 
Q 40.765625 -1.421875 27.09375 -1.421875 
Q 22.515625 -1.421875 17.65625 -0.515625 
Q 12.796875 0.390625 7.625 2.203125 
L 7.625 11.71875 
Q 11.71875 9.328125 16.59375 8.109375 
Q 21.484375 6.890625 26.8125 6.890625 
Q 36.078125 6.890625 40.9375 10.546875 
Q 45.796875 14.203125 45.796875 21.1875 
Q 45.796875 27.640625 41.28125 31.265625 
Q 36.765625 34.90625 28.71875 34.90625 
L 20.21875 34.90625 
L 20.21875 43.015625 
L 29.109375 43.015625 
Q 36.375 43.015625 40.234375 45.921875 
Q 44.09375 48.828125 44.09375 54.296875 
Q 44.09375 59.90625 40.109375 62.90625 
Q 36.140625 65.921875 28.71875 65.921875 
Q 24.65625 65.921875 20.015625 65.03125 
Q 15.375 64.15625 9.8125 62.3125 
L 9.8125 71.09375 
Q 15.4375 72.65625 20.34375 73.4375 
Q 25.25 74.21875 29.59375 74.21875 
Q 40.828125 74.21875 47.359375 69.109375 
Q 53.90625 64.015625 53.90625 55.328125 
Q 53.90625 49.265625 50.4375 45.09375 
Q 46.96875 40.921875 40.578125 39.3125 
z
" id="DejaVuSans-51"/>
     <path d="M 48.78125 52.59375 
L 48.78125 44.1875 
Q 44.96875 46.296875 41.140625 47.34375 
Q 37.3125 48.390625 33.40625 48.390625 
Q 24.65625 48.390625 19.8125 42.84375 
Q 14.984375 37.3125 14.984375 27.296875 
Q 14.984375 17.28125 19.8125 11.734375 
Q 24.65625 6.203125 33.40625 6.203125 
Q 37.3125 6.203125 41.140625 7.25 
Q 44.96875 8.296875 48.78125 10.40625 
L 48.78125 2.09375 
Q 45.015625 0.34375 40.984375 -0.53125 
Q 36.96875 -1.421875 32.421875 -1.421875 
Q 20.0625 -1.421875 12.78125 6.34375 
Q 5.515625 14.109375 5.515625 27.296875 
Q 5.515625 40.671875 12.859375 48.328125 
Q 20.21875 56 33.015625 56 
Q 37.15625 56 41.109375 55.140625 
Q 45.0625 54.296875 48.78125 52.59375 
z
" id="DejaVuSans-99"/>
     <path d="M 2.984375 54.6875 
L 12.5 54.6875 
L 29.59375 8.796875 
L 46.6875 54.6875 
L 56.203125 54.6875 
L 35.6875 0 
L 23.484375 0 
z
" id="DejaVuSans-118"/>
    </defs>
    <g transform="translate(408.781875 45.84)scale(0.12 -0.12)">
     <use xlink:href="#DejaVuSans-114"/>
     <use x="41.082031" xlink:href="#DejaVuSans-101"/>
     <use x="102.605469" xlink:href="#DejaVuSans-97"/>
     <use x="163.884766" xlink:href="#DejaVuSans-108"/>
     <use x="191.667969" xlink:href="#DejaVuSans-95"/>
     <use x="241.667969" xlink:href="#DejaVuSans-51"/>
     <use x="305.291016" xlink:href="#DejaVuSans-50"/>
     <use x="368.914062" xlink:href="#DejaVuSans-46"/>
     <use x="400.701172" xlink:href="#DejaVuSans-99"/>
     <use x="455.681641" xlink:href="#DejaVuSans-115"/>
     <use x="507.78125" xlink:href="#DejaVuSans-118"/>
    </g>
   </g>
   <g id="legend_1">
    <g id="patch_42">
     <path d="M 711.284375 74.518125 
L 770.6 74.518125 
Q 772.6 74.518125 772.6 72.518125 
L 772.6 58.84 
Q 772.6 56.84 770.6 56.84 
L 711.284375 56.84 
Q 709.284375 56.84 709.284375 58.84 
L 709.284375 72.518125 
Q 709.284375 74.518125 711.284375 74.518125 
z
" style="fill:#ffffff;opacity:0.8;stroke:#cccccc;stroke-linejoin:miter;"/>
    </g>
    <g id="line2d_17">
     <path d="M 713.284375 64.938438 
L 733.284375 64.938438 
" style="fill:none;stroke:#1f77b4;stroke-linecap:square;stroke-width:1.5;"/>
    </g>
    <g id="line2d_18"/>
    <g id="text_18">
     <!-- value -->
     <g transform="translate(741.284375 68.438438)scale(0.1 -0.1)">
      <use xlink:href="#DejaVuSans-118"/>
      <use x="59.179688" xlink:href="#DejaVuSans-97"/>
      <use x="120.458984" xlink:href="#DejaVuSans-108"/>
      <use x="148.242188" xlink:href="#DejaVuSans-117"/>
      <use x="211.621094" xlink:href="#DejaVuSans-101"/>
     </g>
    </g>
   </g>
  </g>
 </g>
 <defs>
  <clipPath id="p51c5b33df2">
   <rect height="332.64" width="669.6" x="108" y="51.84"/>
  </clipPath>
 </defs>
</svg>
