<?xml version="1.0" encoding="utf-8" standalone="no"?>
<!DOCTYPE svg PUBLIC "-//W3C//DTD SVG 1.1//EN"
  "http://www.w3.org/Graphics/SVG/1.1/DTD/svg11.dtd">
<!-- Created with matplotlib (https://matplotlib.org/) -->
<svg height="432pt" version="1.1" viewBox="0 0 864 432" width="864pt" xmlns="http://www.w3.org/2000/svg" xmlns:xlink="http://www.w3.org/1999/xlink">
 <defs>
  <style type="text/css">
*{stroke-linecap:butt;stroke-linejoin:round;}
  </style>
 </defs>
 <g id="figure_1">
  <g id="patch_1">
   <path d="M 0 432 
L 864 432 
L 864 0 
L 0 0 
z
" style="fill:#ffffff;"/>
  </g>
  <g id="axes_1">
   <g id="patch_2">
    <path d="M 108 384.48 
L 777.6 384.48 
L 777.6 51.84 
L 108 51.84 
z
" style="fill:#ffffff;"/>
   </g>
   <g id="patch_3">
    <path clip-path="url(#p58b5953982)" d="M 138.436364 384.48 
L 138.436364 51.84 
L 370.087334 51.84 
L 370.087334 384.48 
z
" style="fill:#0000ff;opacity:0.05;"/>
   </g>
   <g id="patch_4">
    <path clip-path="url(#p58b5953982)" d="M 370.087334 384.48 
L 370.087334 51.84 
L 743.302787 51.84 
L 743.302787 384.48 
z
" style="fill:#ff0000;opacity:0.08;"/>
   </g>
   <g id="patch_5">
    <path clip-path="url(#p58b5953982)" d="M 138.436364 384.48 
L 138.436364 51.84 
L 151.305862 51.84 
L 151.305862 384.48 
z
" style="fill:#008000;opacity:0.04;"/>
   </g>
   <g id="patch_6">
    <path clip-path="url(#p58b5953982)" d="M 138.436364 384.48 
L 138.436364 371.1744 
L 151.305862 371.1744 
L 151.305862 384.48 
z
" style="fill:#ffe500;"/>
   </g>
   <g id="patch_7">
    <path clip-path="url(#p58b5953982)" d="M 164.17536 384.48 
L 164.17536 51.84 
L 177.044859 51.84 
L 177.044859 384.48 
z
" style="fill:#008000;opacity:0.04;"/>
   </g>
   <g id="patch_8">
    <path clip-path="url(#p58b5953982)" d="M 189.914357 384.48 
L 189.914357 51.84 
L 202.783855 51.84 
L 202.783855 384.48 
z
" style="fill:#008000;opacity:0.04;"/>
   </g>
   <g id="patch_9">
    <path clip-path="url(#p58b5953982)" d="M 434.434826 384.48 
L 434.434826 371.1744 
L 447.304324 371.1744 
L 447.304324 384.48 
z
" style="fill:#ff6600;"/>
   </g>
   <g id="patch_10">
    <path clip-path="url(#p58b5953982)" d="M 215.653354 384.48 
L 215.653354 51.84 
L 228.522852 51.84 
L 228.522852 384.48 
z
" style="fill:#008000;opacity:0.04;"/>
   </g>
   <g id="patch_11">
    <path clip-path="url(#p58b5953982)" d="M 241.392351 384.48 
L 241.392351 51.84 
L 254.261849 51.84 
L 254.261849 384.48 
z
" style="fill:#008000;opacity:0.04;"/>
   </g>
   <g id="patch_12">
    <path clip-path="url(#p58b5953982)" d="M 267.131347 384.48 
L 267.131347 51.84 
L 280.000846 51.84 
L 280.000846 384.48 
z
" style="fill:#008000;opacity:0.04;"/>
   </g>
   <g id="patch_13">
    <path clip-path="url(#p58b5953982)" d="M 292.870344 384.48 
L 292.870344 51.84 
L 305.739842 51.84 
L 305.739842 384.48 
z
" style="fill:#008000;opacity:0.04;"/>
   </g>
   <g id="patch_14">
    <path clip-path="url(#p58b5953982)" d="M 318.609341 384.48 
L 318.609341 51.84 
L 331.478839 51.84 
L 331.478839 384.48 
z
" style="fill:#008000;opacity:0.04;"/>
   </g>
   <g id="patch_15">
    <path clip-path="url(#p58b5953982)" d="M 344.348337 384.48 
L 344.348337 51.84 
L 357.217836 51.84 
L 357.217836 384.48 
z
" style="fill:#008000;opacity:0.04;"/>
   </g>
   <g id="patch_16">
    <path clip-path="url(#p58b5953982)" d="M 370.087334 384.48 
L 370.087334 51.84 
L 382.956833 51.84 
L 382.956833 384.48 
z
" style="fill:#008000;opacity:0.04;"/>
   </g>
   <g id="patch_17">
    <path clip-path="url(#p58b5953982)" d="M 395.826331 384.48 
L 395.826331 51.84 
L 408.695829 51.84 
L 408.695829 384.48 
z
" style="fill:#008000;opacity:0.04;"/>
   </g>
   <g id="patch_18">
    <path clip-path="url(#p58b5953982)" d="M 640.3468 384.48 
L 640.3468 371.1744 
L 653.216298 371.1744 
L 653.216298 384.48 
z
" style="fill:#ff6600;"/>
   </g>
   <g id="patch_19">
    <path clip-path="url(#p58b5953982)" d="M 421.565328 384.48 
L 421.565328 51.84 
L 434.434826 51.84 
L 434.434826 384.48 
z
" style="fill:#008000;opacity:0.04;"/>
   </g>
   <g id="patch_20">
    <path clip-path="url(#p58b5953982)" d="M 653.216298 384.48 
L 653.216298 371.1744 
L 666.085797 371.1744 
L 666.085797 384.48 
z
" style="fill:#ff6600;"/>
   </g>
   <g id="patch_21">
    <path clip-path="url(#p58b5953982)" d="M 666.085797 384.48 
L 666.085797 371.1744 
L 678.955295 371.1744 
L 678.955295 384.48 
z
" style="fill:#ff6600;"/>
   </g>
   <g id="patch_22">
    <path clip-path="url(#p58b5953982)" d="M 447.304324 384.48 
L 447.304324 51.84 
L 460.173823 51.84 
L 460.173823 384.48 
z
" style="fill:#008000;opacity:0.04;"/>
   </g>
   <g id="patch_23">
    <path clip-path="url(#p58b5953982)" d="M 473.043321 384.48 
L 473.043321 51.84 
L 485.91282 51.84 
L 485.91282 384.48 
z
" style="fill:#008000;opacity:0.04;"/>
   </g>
   <g id="patch_24">
    <path clip-path="url(#p58b5953982)" d="M 498.782318 384.48 
L 498.782318 51.84 
L 511.651816 51.84 
L 511.651816 384.48 
z
" style="fill:#008000;opacity:0.04;"/>
   </g>
   <g id="patch_25">
    <path clip-path="url(#p58b5953982)" d="M 524.521315 384.48 
L 524.521315 51.84 
L 537.390813 51.84 
L 537.390813 384.48 
z
" style="fill:#008000;opacity:0.04;"/>
   </g>
   <g id="patch_26">
    <path clip-path="url(#p58b5953982)" d="M 550.260311 384.48 
L 550.260311 51.84 
L 563.12981 51.84 
L 563.12981 384.48 
z
" style="fill:#008000;opacity:0.04;"/>
   </g>
   <g id="patch_27">
    <path clip-path="url(#p58b5953982)" d="M 575.999308 384.48 
L 575.999308 51.84 
L 588.868806 51.84 
L 588.868806 384.48 
z
" style="fill:#008000;opacity:0.04;"/>
   </g>
   <g id="patch_28">
    <path clip-path="url(#p58b5953982)" d="M 601.738305 384.48 
L 601.738305 51.84 
L 614.607803 51.84 
L 614.607803 384.48 
z
" style="fill:#008000;opacity:0.04;"/>
   </g>
   <g id="patch_29">
    <path clip-path="url(#p58b5953982)" d="M 627.477302 384.48 
L 627.477302 51.84 
L 640.3468 51.84 
L 640.3468 384.48 
z
" style="fill:#008000;opacity:0.04;"/>
   </g>
   <g id="patch_30">
    <path clip-path="url(#p58b5953982)" d="M 653.216298 384.48 
L 653.216298 51.84 
L 666.085797 51.84 
L 666.085797 384.48 
z
" style="fill:#008000;opacity:0.04;"/>
   </g>
   <g id="patch_31">
    <path clip-path="url(#p58b5953982)" d="M 653.216298 371.1744 
L 653.216298 51.84 
L 666.085797 51.84 
L 666.085797 371.1744 
z
" style="fill:#008000;opacity:0.5;"/>
   </g>
   <g id="patch_32">
    <path clip-path="url(#p58b5953982)" d="M 678.955295 384.48 
L 678.955295 51.84 
L 691.824793 51.84 
L 691.824793 384.48 
z
" style="fill:#008000;opacity:0.04;"/>
   </g>
   <g id="patch_33">
    <path clip-path="url(#p58b5953982)" d="M 704.694292 384.48 
L 704.694292 51.84 
L 717.56379 51.84 
L 717.56379 384.48 
z
" style="fill:#008000;opacity:0.04;"/>
   </g>
   <g id="patch_34">
    <path clip-path="url(#p58b5953982)" d="M 730.433288 384.48 
L 730.433288 51.84 
L 743.302787 51.84 
L 743.302787 384.48 
z
" style="fill:#008000;opacity:0.04;"/>
   </g>
   <g id="matplotlib.axis_1">
    <g id="xtick_1">
     <g id="line2d_1">
      <defs>
       <path d="M 0 0 
L 0 3.5 
" id="mc73e17aed8" style="stroke:#000000;stroke-width:0.8;"/>
      </defs>
      <g>
       <use style="stroke:#000000;stroke-width:0.8;" x="138.436364" xlink:href="#mc73e17aed8" y="384.48"/>
      </g>
     </g>
     <g id="text_1">
      <!-- 0 -->
      <defs>
       <path d="M 31.78125 66.40625 
Q 24.171875 66.40625 20.328125 58.90625 
Q 16.5 51.421875 16.5 36.375 
Q 16.5 21.390625 20.328125 13.890625 
Q 24.171875 6.390625 31.78125 6.390625 
Q 39.453125 6.390625 43.28125 13.890625 
Q 47.125 21.390625 47.125 36.375 
Q 47.125 51.421875 43.28125 58.90625 
Q 39.453125 66.40625 31.78125 66.40625 
z
M 31.78125 74.21875 
Q 44.046875 74.21875 50.515625 64.515625 
Q 56.984375 54.828125 56.984375 36.375 
Q 56.984375 17.96875 50.515625 8.265625 
Q 44.046875 -1.421875 31.78125 -1.421875 
Q 19.53125 -1.421875 13.0625 8.265625 
Q 6.59375 17.96875 6.59375 36.375 
Q 6.59375 54.828125 13.0625 64.515625 
Q 19.53125 74.21875 31.78125 74.21875 
z
" id="DejaVuSans-48"/>
      </defs>
      <g transform="translate(135.255114 399.078438)scale(0.1 -0.1)">
       <use xlink:href="#DejaVuSans-48"/>
      </g>
     </g>
    </g>
    <g id="xtick_2">
     <g id="line2d_2">
      <g>
       <use style="stroke:#000000;stroke-width:0.8;" x="224.233019" xlink:href="#mc73e17aed8" y="384.48"/>
      </g>
     </g>
     <g id="text_2">
      <!-- 200 -->
      <defs>
       <path d="M 19.1875 8.296875 
L 53.609375 8.296875 
L 53.609375 0 
L 7.328125 0 
L 7.328125 8.296875 
Q 12.9375 14.109375 22.625 23.890625 
Q 32.328125 33.6875 34.8125 36.53125 
Q 39.546875 41.84375 41.421875 45.53125 
Q 43.3125 49.21875 43.3125 52.78125 
Q 43.3125 58.59375 39.234375 62.25 
Q 35.15625 65.921875 28.609375 65.921875 
Q 23.96875 65.921875 18.8125 64.3125 
Q 13.671875 62.703125 7.8125 59.421875 
L 7.8125 69.390625 
Q 13.765625 71.78125 18.9375 73 
Q 24.125 74.21875 28.421875 74.21875 
Q 39.75 74.21875 46.484375 68.546875 
Q 53.21875 62.890625 53.21875 53.421875 
Q 53.21875 48.921875 51.53125 44.890625 
Q 49.859375 40.875 45.40625 35.40625 
Q 44.1875 33.984375 37.640625 27.21875 
Q 31.109375 20.453125 19.1875 8.296875 
z
" id="DejaVuSans-50"/>
      </defs>
      <g transform="translate(214.689269 399.078438)scale(0.1 -0.1)">
       <use xlink:href="#DejaVuSans-50"/>
       <use x="63.623047" xlink:href="#DejaVuSans-48"/>
       <use x="127.246094" xlink:href="#DejaVuSans-48"/>
      </g>
     </g>
    </g>
    <g id="xtick_3">
     <g id="line2d_3">
      <g>
       <use style="stroke:#000000;stroke-width:0.8;" x="310.029675" xlink:href="#mc73e17aed8" y="384.48"/>
      </g>
     </g>
     <g id="text_3">
      <!-- 400 -->
      <defs>
       <path d="M 37.796875 64.3125 
L 12.890625 25.390625 
L 37.796875 25.390625 
z
M 35.203125 72.90625 
L 47.609375 72.90625 
L 47.609375 25.390625 
L 58.015625 25.390625 
L 58.015625 17.1875 
L 47.609375 17.1875 
L 47.609375 0 
L 37.796875 0 
L 37.796875 17.1875 
L 4.890625 17.1875 
L 4.890625 26.703125 
z
" id="DejaVuSans-52"/>
      </defs>
      <g transform="translate(300.485925 399.078438)scale(0.1 -0.1)">
       <use xlink:href="#DejaVuSans-52"/>
       <use x="63.623047" xlink:href="#DejaVuSans-48"/>
       <use x="127.246094" xlink:href="#DejaVuSans-48"/>
      </g>
     </g>
    </g>
    <g id="xtick_4">
     <g id="line2d_4">
      <g>
       <use style="stroke:#000000;stroke-width:0.8;" x="395.826331" xlink:href="#mc73e17aed8" y="384.48"/>
      </g>
     </g>
     <g id="text_4">
      <!-- 600 -->
      <defs>
       <path d="M 33.015625 40.375 
Q 26.375 40.375 22.484375 35.828125 
Q 18.609375 31.296875 18.609375 23.390625 
Q 18.609375 15.53125 22.484375 10.953125 
Q 26.375 6.390625 33.015625 6.390625 
Q 39.65625 6.390625 43.53125 10.953125 
Q 47.40625 15.53125 47.40625 23.390625 
Q 47.40625 31.296875 43.53125 35.828125 
Q 39.65625 40.375 33.015625 40.375 
z
M 52.59375 71.296875 
L 52.59375 62.3125 
Q 48.875 64.0625 45.09375 64.984375 
Q 41.3125 65.921875 37.59375 65.921875 
Q 27.828125 65.921875 22.671875 59.328125 
Q 17.53125 52.734375 16.796875 39.40625 
Q 19.671875 43.65625 24.015625 45.921875 
Q 28.375 48.1875 33.59375 48.1875 
Q 44.578125 48.1875 50.953125 41.515625 
Q 57.328125 34.859375 57.328125 23.390625 
Q 57.328125 12.15625 50.6875 5.359375 
Q 44.046875 -1.421875 33.015625 -1.421875 
Q 20.359375 -1.421875 13.671875 8.265625 
Q 6.984375 17.96875 6.984375 36.375 
Q 6.984375 53.65625 15.1875 63.9375 
Q 23.390625 74.21875 37.203125 74.21875 
Q 40.921875 74.21875 44.703125 73.484375 
Q 48.484375 72.75 52.59375 71.296875 
z
" id="DejaVuSans-54"/>
      </defs>
      <g transform="translate(386.282581 399.078438)scale(0.1 -0.1)">
       <use xlink:href="#DejaVuSans-54"/>
       <use x="63.623047" xlink:href="#DejaVuSans-48"/>
       <use x="127.246094" xlink:href="#DejaVuSans-48"/>
      </g>
     </g>
    </g>
    <g id="xtick_5">
     <g id="line2d_5">
      <g>
       <use style="stroke:#000000;stroke-width:0.8;" x="481.622987" xlink:href="#mc73e17aed8" y="384.48"/>
      </g>
     </g>
     <g id="text_5">
      <!-- 800 -->
      <defs>
       <path d="M 31.78125 34.625 
Q 24.75 34.625 20.71875 30.859375 
Q 16.703125 27.09375 16.703125 20.515625 
Q 16.703125 13.921875 20.71875 10.15625 
Q 24.75 6.390625 31.78125 6.390625 
Q 38.8125 6.390625 42.859375 10.171875 
Q 46.921875 13.96875 46.921875 20.515625 
Q 46.921875 27.09375 42.890625 30.859375 
Q 38.875 34.625 31.78125 34.625 
z
M 21.921875 38.8125 
Q 15.578125 40.375 12.03125 44.71875 
Q 8.5 49.078125 8.5 55.328125 
Q 8.5 64.0625 14.71875 69.140625 
Q 20.953125 74.21875 31.78125 74.21875 
Q 42.671875 74.21875 48.875 69.140625 
Q 55.078125 64.0625 55.078125 55.328125 
Q 55.078125 49.078125 51.53125 44.71875 
Q 48 40.375 41.703125 38.8125 
Q 48.828125 37.15625 52.796875 32.3125 
Q 56.78125 27.484375 56.78125 20.515625 
Q 56.78125 9.90625 50.3125 4.234375 
Q 43.84375 -1.421875 31.78125 -1.421875 
Q 19.734375 -1.421875 13.25 4.234375 
Q 6.78125 9.90625 6.78125 20.515625 
Q 6.78125 27.484375 10.78125 32.3125 
Q 14.796875 37.15625 21.921875 38.8125 
z
M 18.3125 54.390625 
Q 18.3125 48.734375 21.84375 45.5625 
Q 25.390625 42.390625 31.78125 42.390625 
Q 38.140625 42.390625 41.71875 45.5625 
Q 45.3125 48.734375 45.3125 54.390625 
Q 45.3125 60.0625 41.71875 63.234375 
Q 38.140625 66.40625 31.78125 66.40625 
Q 25.390625 66.40625 21.84375 63.234375 
Q 18.3125 60.0625 18.3125 54.390625 
z
" id="DejaVuSans-56"/>
      </defs>
      <g transform="translate(472.079237 399.078438)scale(0.1 -0.1)">
       <use xlink:href="#DejaVuSans-56"/>
       <use x="63.623047" xlink:href="#DejaVuSans-48"/>
       <use x="127.246094" xlink:href="#DejaVuSans-48"/>
      </g>
     </g>
    </g>
    <g id="xtick_6">
     <g id="line2d_6">
      <g>
       <use style="stroke:#000000;stroke-width:0.8;" x="567.419643" xlink:href="#mc73e17aed8" y="384.48"/>
      </g>
     </g>
     <g id="text_6">
      <!-- 1000 -->
      <defs>
       <path d="M 12.40625 8.296875 
L 28.515625 8.296875 
L 28.515625 63.921875 
L 10.984375 60.40625 
L 10.984375 69.390625 
L 28.421875 72.90625 
L 38.28125 72.90625 
L 38.28125 8.296875 
L 54.390625 8.296875 
L 54.390625 0 
L 12.40625 0 
z
" id="DejaVuSans-49"/>
      </defs>
      <g transform="translate(554.694643 399.078438)scale(0.1 -0.1)">
       <use xlink:href="#DejaVuSans-49"/>
       <use x="63.623047" xlink:href="#DejaVuSans-48"/>
       <use x="127.246094" xlink:href="#DejaVuSans-48"/>
       <use x="190.869141" xlink:href="#DejaVuSans-48"/>
      </g>
     </g>
    </g>
    <g id="xtick_7">
     <g id="line2d_7">
      <g>
       <use style="stroke:#000000;stroke-width:0.8;" x="653.216298" xlink:href="#mc73e17aed8" y="384.48"/>
      </g>
     </g>
     <g id="text_7">
      <!-- 1200 -->
      <g transform="translate(640.491298 399.078438)scale(0.1 -0.1)">
       <use xlink:href="#DejaVuSans-49"/>
       <use x="63.623047" xlink:href="#DejaVuSans-50"/>
       <use x="127.246094" xlink:href="#DejaVuSans-48"/>
       <use x="190.869141" xlink:href="#DejaVuSans-48"/>
      </g>
     </g>
    </g>
    <g id="xtick_8">
     <g id="line2d_8">
      <g>
       <use style="stroke:#000000;stroke-width:0.8;" x="739.012954" xlink:href="#mc73e17aed8" y="384.48"/>
      </g>
     </g>
     <g id="text_8">
      <!-- 1400 -->
      <g transform="translate(726.287954 399.078438)scale(0.1 -0.1)">
       <use xlink:href="#DejaVuSans-49"/>
       <use x="63.623047" xlink:href="#DejaVuSans-52"/>
       <use x="127.246094" xlink:href="#DejaVuSans-48"/>
       <use x="190.869141" xlink:href="#DejaVuSans-48"/>
      </g>
     </g>
    </g>
    <g id="text_9">
     <!-- Timestamp -->
     <defs>
      <path d="M -0.296875 72.90625 
L 61.375 72.90625 
L 61.375 64.59375 
L 35.5 64.59375 
L 35.5 0 
L 25.59375 0 
L 25.59375 64.59375 
L -0.296875 64.59375 
z
" id="DejaVuSans-84"/>
      <path d="M 9.421875 54.6875 
L 18.40625 54.6875 
L 18.40625 0 
L 9.421875 0 
z
M 9.421875 75.984375 
L 18.40625 75.984375 
L 18.40625 64.59375 
L 9.421875 64.59375 
z
" id="DejaVuSans-105"/>
      <path d="M 52 44.1875 
Q 55.375 50.25 60.0625 53.125 
Q 64.75 56 71.09375 56 
Q 79.640625 56 84.28125 50.015625 
Q 88.921875 44.046875 88.921875 33.015625 
L 88.921875 0 
L 79.890625 0 
L 79.890625 32.71875 
Q 79.890625 40.578125 77.09375 44.375 
Q 74.3125 48.1875 68.609375 48.1875 
Q 61.625 48.1875 57.5625 43.546875 
Q 53.515625 38.921875 53.515625 30.90625 
L 53.515625 0 
L 44.484375 0 
L 44.484375 32.71875 
Q 44.484375 40.625 41.703125 44.40625 
Q 38.921875 48.1875 33.109375 48.1875 
Q 26.21875 48.1875 22.15625 43.53125 
Q 18.109375 38.875 18.109375 30.90625 
L 18.109375 0 
L 9.078125 0 
L 9.078125 54.6875 
L 18.109375 54.6875 
L 18.109375 46.1875 
Q 21.1875 51.21875 25.484375 53.609375 
Q 29.78125 56 35.6875 56 
Q 41.65625 56 45.828125 52.96875 
Q 50 49.953125 52 44.1875 
z
" id="DejaVuSans-109"/>
      <path d="M 56.203125 29.59375 
L 56.203125 25.203125 
L 14.890625 25.203125 
Q 15.484375 15.921875 20.484375 11.0625 
Q 25.484375 6.203125 34.421875 6.203125 
Q 39.59375 6.203125 44.453125 7.46875 
Q 49.3125 8.734375 54.109375 11.28125 
L 54.109375 2.78125 
Q 49.265625 0.734375 44.1875 -0.34375 
Q 39.109375 -1.421875 33.890625 -1.421875 
Q 20.796875 -1.421875 13.15625 6.1875 
Q 5.515625 13.8125 5.515625 26.8125 
Q 5.515625 40.234375 12.765625 48.109375 
Q 20.015625 56 32.328125 56 
Q 43.359375 56 49.78125 48.890625 
Q 56.203125 41.796875 56.203125 29.59375 
z
M 47.21875 32.234375 
Q 47.125 39.59375 43.09375 43.984375 
Q 39.0625 48.390625 32.421875 48.390625 
Q 24.90625 48.390625 20.390625 44.140625 
Q 15.875 39.890625 15.1875 32.171875 
z
" id="DejaVuSans-101"/>
      <path d="M 44.28125 53.078125 
L 44.28125 44.578125 
Q 40.484375 46.53125 36.375 47.5 
Q 32.28125 48.484375 27.875 48.484375 
Q 21.1875 48.484375 17.84375 46.4375 
Q 14.5 44.390625 14.5 40.28125 
Q 14.5 37.15625 16.890625 35.375 
Q 19.28125 33.59375 26.515625 31.984375 
L 29.59375 31.296875 
Q 39.15625 29.25 43.1875 25.515625 
Q 47.21875 21.78125 47.21875 15.09375 
Q 47.21875 7.46875 41.1875 3.015625 
Q 35.15625 -1.421875 24.609375 -1.421875 
Q 20.21875 -1.421875 15.453125 -0.5625 
Q 10.6875 0.296875 5.421875 2 
L 5.421875 11.28125 
Q 10.40625 8.6875 15.234375 7.390625 
Q 20.0625 6.109375 24.8125 6.109375 
Q 31.15625 6.109375 34.5625 8.28125 
Q 37.984375 10.453125 37.984375 14.40625 
Q 37.984375 18.0625 35.515625 20.015625 
Q 33.0625 21.96875 24.703125 23.78125 
L 21.578125 24.515625 
Q 13.234375 26.265625 9.515625 29.90625 
Q 5.8125 33.546875 5.8125 39.890625 
Q 5.8125 47.609375 11.28125 51.796875 
Q 16.75 56 26.8125 56 
Q 31.78125 56 36.171875 55.265625 
Q 40.578125 54.546875 44.28125 53.078125 
z
" id="DejaVuSans-115"/>
      <path d="M 18.3125 70.21875 
L 18.3125 54.6875 
L 36.8125 54.6875 
L 36.8125 47.703125 
L 18.3125 47.703125 
L 18.3125 18.015625 
Q 18.3125 11.328125 20.140625 9.421875 
Q 21.96875 7.515625 27.59375 7.515625 
L 36.8125 7.515625 
L 36.8125 0 
L 27.59375 0 
Q 17.1875 0 13.234375 3.875 
Q 9.28125 7.765625 9.28125 18.015625 
L 9.28125 47.703125 
L 2.6875 47.703125 
L 2.6875 54.6875 
L 9.28125 54.6875 
L 9.28125 70.21875 
z
" id="DejaVuSans-116"/>
      <path d="M 34.28125 27.484375 
Q 23.390625 27.484375 19.1875 25 
Q 14.984375 22.515625 14.984375 16.5 
Q 14.984375 11.71875 18.140625 8.90625 
Q 21.296875 6.109375 26.703125 6.109375 
Q 34.1875 6.109375 38.703125 11.40625 
Q 43.21875 16.703125 43.21875 25.484375 
L 43.21875 27.484375 
z
M 52.203125 31.203125 
L 52.203125 0 
L 43.21875 0 
L 43.21875 8.296875 
Q 40.140625 3.328125 35.546875 0.953125 
Q 30.953125 -1.421875 24.3125 -1.421875 
Q 15.921875 -1.421875 10.953125 3.296875 
Q 6 8.015625 6 15.921875 
Q 6 25.140625 12.171875 29.828125 
Q 18.359375 34.515625 30.609375 34.515625 
L 43.21875 34.515625 
L 43.21875 35.40625 
Q 43.21875 41.609375 39.140625 45 
Q 35.0625 48.390625 27.6875 48.390625 
Q 23 48.390625 18.546875 47.265625 
Q 14.109375 46.140625 10.015625 43.890625 
L 10.015625 52.203125 
Q 14.9375 54.109375 19.578125 55.046875 
Q 24.21875 56 28.609375 56 
Q 40.484375 56 46.34375 49.84375 
Q 52.203125 43.703125 52.203125 31.203125 
z
" id="DejaVuSans-97"/>
      <path d="M 18.109375 8.203125 
L 18.109375 -20.796875 
L 9.078125 -20.796875 
L 9.078125 54.6875 
L 18.109375 54.6875 
L 18.109375 46.390625 
Q 20.953125 51.265625 25.265625 53.625 
Q 29.59375 56 35.59375 56 
Q 45.5625 56 51.78125 48.09375 
Q 58.015625 40.1875 58.015625 27.296875 
Q 58.015625 14.40625 51.78125 6.484375 
Q 45.5625 -1.421875 35.59375 -1.421875 
Q 29.59375 -1.421875 25.265625 0.953125 
Q 20.953125 3.328125 18.109375 8.203125 
z
M 48.6875 27.296875 
Q 48.6875 37.203125 44.609375 42.84375 
Q 40.53125 48.484375 33.40625 48.484375 
Q 26.265625 48.484375 22.1875 42.84375 
Q 18.109375 37.203125 18.109375 27.296875 
Q 18.109375 17.390625 22.1875 11.75 
Q 26.265625 6.109375 33.40625 6.109375 
Q 40.53125 6.109375 44.609375 11.75 
Q 48.6875 17.390625 48.6875 27.296875 
z
" id="DejaVuSans-112"/>
     </defs>
     <g transform="translate(414.739062 412.756563)scale(0.1 -0.1)">
      <use xlink:href="#DejaVuSans-84"/>
      <use x="61.037109" xlink:href="#DejaVuSans-105"/>
      <use x="88.820312" xlink:href="#DejaVuSans-109"/>
      <use x="186.232422" xlink:href="#DejaVuSans-101"/>
      <use x="247.755859" xlink:href="#DejaVuSans-115"/>
      <use x="299.855469" xlink:href="#DejaVuSans-116"/>
      <use x="339.064453" xlink:href="#DejaVuSans-97"/>
      <use x="400.34375" xlink:href="#DejaVuSans-109"/>
      <use x="497.755859" xlink:href="#DejaVuSans-112"/>
     </g>
    </g>
   </g>
   <g id="matplotlib.axis_2">
    <g id="ytick_1">
     <g id="line2d_9">
      <defs>
       <path d="M 0 0 
L -3.5 0 
" id="m3545169051" style="stroke:#000000;stroke-width:0.8;"/>
      </defs>
      <g>
       <use style="stroke:#000000;stroke-width:0.8;" x="108" xlink:href="#m3545169051" y="369.36"/>
      </g>
     </g>
     <g id="text_10">
      <!-- 0.0 -->
      <defs>
       <path d="M 10.6875 12.40625 
L 21 12.40625 
L 21 0 
L 10.6875 0 
z
" id="DejaVuSans-46"/>
      </defs>
      <g transform="translate(85.096875 373.159219)scale(0.1 -0.1)">
       <use xlink:href="#DejaVuSans-48"/>
       <use x="63.623047" xlink:href="#DejaVuSans-46"/>
       <use x="95.410156" xlink:href="#DejaVuSans-48"/>
      </g>
     </g>
    </g>
    <g id="ytick_2">
     <g id="line2d_10">
      <g>
       <use style="stroke:#000000;stroke-width:0.8;" x="108" xlink:href="#m3545169051" y="330.941783"/>
      </g>
     </g>
     <g id="text_11">
      <!-- 0.1 -->
      <g transform="translate(85.096875 334.741002)scale(0.1 -0.1)">
       <use xlink:href="#DejaVuSans-48"/>
       <use x="63.623047" xlink:href="#DejaVuSans-46"/>
       <use x="95.410156" xlink:href="#DejaVuSans-49"/>
      </g>
     </g>
    </g>
    <g id="ytick_3">
     <g id="line2d_11">
      <g>
       <use style="stroke:#000000;stroke-width:0.8;" x="108" xlink:href="#m3545169051" y="292.523566"/>
      </g>
     </g>
     <g id="text_12">
      <!-- 0.2 -->
      <g transform="translate(85.096875 296.322785)scale(0.1 -0.1)">
       <use xlink:href="#DejaVuSans-48"/>
       <use x="63.623047" xlink:href="#DejaVuSans-46"/>
       <use x="95.410156" xlink:href="#DejaVuSans-50"/>
      </g>
     </g>
    </g>
    <g id="ytick_4">
     <g id="line2d_12">
      <g>
       <use style="stroke:#000000;stroke-width:0.8;" x="108" xlink:href="#m3545169051" y="254.105349"/>
      </g>
     </g>
     <g id="text_13">
      <!-- 0.3 -->
      <defs>
       <path d="M 40.578125 39.3125 
Q 47.65625 37.796875 51.625 33 
Q 55.609375 28.21875 55.609375 21.1875 
Q 55.609375 10.40625 48.1875 4.484375 
Q 40.765625 -1.421875 27.09375 -1.421875 
Q 22.515625 -1.421875 17.65625 -0.515625 
Q 12.796875 0.390625 7.625 2.203125 
L 7.625 11.71875 
Q 11.71875 9.328125 16.59375 8.109375 
Q 21.484375 6.890625 26.8125 6.890625 
Q 36.078125 6.890625 40.9375 10.546875 
Q 45.796875 14.203125 45.796875 21.1875 
Q 45.796875 27.640625 41.28125 31.265625 
Q 36.765625 34.90625 28.71875 34.90625 
L 20.21875 34.90625 
L 20.21875 43.015625 
L 29.109375 43.015625 
Q 36.375 43.015625 40.234375 45.921875 
Q 44.09375 48.828125 44.09375 54.296875 
Q 44.09375 59.90625 40.109375 62.90625 
Q 36.140625 65.921875 28.71875 65.921875 
Q 24.65625 65.921875 20.015625 65.03125 
Q 15.375 64.15625 9.8125 62.3125 
L 9.8125 71.09375 
Q 15.4375 72.65625 20.34375 73.4375 
Q 25.25 74.21875 29.59375 74.21875 
Q 40.828125 74.21875 47.359375 69.109375 
Q 53.90625 64.015625 53.90625 55.328125 
Q 53.90625 49.265625 50.4375 45.09375 
Q 46.96875 40.921875 40.578125 39.3125 
z
" id="DejaVuSans-51"/>
      </defs>
      <g transform="translate(85.096875 257.904568)scale(0.1 -0.1)">
       <use xlink:href="#DejaVuSans-48"/>
       <use x="63.623047" xlink:href="#DejaVuSans-46"/>
       <use x="95.410156" xlink:href="#DejaVuSans-51"/>
      </g>
     </g>
    </g>
    <g id="ytick_5">
     <g id="line2d_13">
      <g>
       <use style="stroke:#000000;stroke-width:0.8;" x="108" xlink:href="#m3545169051" y="215.687132"/>
      </g>
     </g>
     <g id="text_14">
      <!-- 0.4 -->
      <g transform="translate(85.096875 219.486351)scale(0.1 -0.1)">
       <use xlink:href="#DejaVuSans-48"/>
       <use x="63.623047" xlink:href="#DejaVuSans-46"/>
       <use x="95.410156" xlink:href="#DejaVuSans-52"/>
      </g>
     </g>
    </g>
    <g id="ytick_6">
     <g id="line2d_14">
      <g>
       <use style="stroke:#000000;stroke-width:0.8;" x="108" xlink:href="#m3545169051" y="177.268915"/>
      </g>
     </g>
     <g id="text_15">
      <!-- 0.5 -->
      <defs>
       <path d="M 10.796875 72.90625 
L 49.515625 72.90625 
L 49.515625 64.59375 
L 19.828125 64.59375 
L 19.828125 46.734375 
Q 21.96875 47.46875 24.109375 47.828125 
Q 26.265625 48.1875 28.421875 48.1875 
Q 40.625 48.1875 47.75 41.5 
Q 54.890625 34.8125 54.890625 23.390625 
Q 54.890625 11.625 47.5625 5.09375 
Q 40.234375 -1.421875 26.90625 -1.421875 
Q 22.3125 -1.421875 17.546875 -0.640625 
Q 12.796875 0.140625 7.71875 1.703125 
L 7.71875 11.625 
Q 12.109375 9.234375 16.796875 8.0625 
Q 21.484375 6.890625 26.703125 6.890625 
Q 35.15625 6.890625 40.078125 11.328125 
Q 45.015625 15.765625 45.015625 23.390625 
Q 45.015625 31 40.078125 35.4375 
Q 35.15625 39.890625 26.703125 39.890625 
Q 22.75 39.890625 18.8125 39.015625 
Q 14.890625 38.140625 10.796875 36.28125 
z
" id="DejaVuSans-53"/>
      </defs>
      <g transform="translate(85.096875 181.068134)scale(0.1 -0.1)">
       <use xlink:href="#DejaVuSans-48"/>
       <use x="63.623047" xlink:href="#DejaVuSans-46"/>
       <use x="95.410156" xlink:href="#DejaVuSans-53"/>
      </g>
     </g>
    </g>
    <g id="ytick_7">
     <g id="line2d_15">
      <g>
       <use style="stroke:#000000;stroke-width:0.8;" x="108" xlink:href="#m3545169051" y="138.850698"/>
      </g>
     </g>
     <g id="text_16">
      <!-- 0.6 -->
      <g transform="translate(85.096875 142.649917)scale(0.1 -0.1)">
       <use xlink:href="#DejaVuSans-48"/>
       <use x="63.623047" xlink:href="#DejaVuSans-46"/>
       <use x="95.410156" xlink:href="#DejaVuSans-54"/>
      </g>
     </g>
    </g>
    <g id="ytick_8">
     <g id="line2d_16">
      <g>
       <use style="stroke:#000000;stroke-width:0.8;" x="108" xlink:href="#m3545169051" y="100.432481"/>
      </g>
     </g>
     <g id="text_17">
      <!-- 0.7 -->
      <defs>
       <path d="M 8.203125 72.90625 
L 55.078125 72.90625 
L 55.078125 68.703125 
L 28.609375 0 
L 18.3125 0 
L 43.21875 64.59375 
L 8.203125 64.59375 
z
" id="DejaVuSans-55"/>
      </defs>
      <g transform="translate(85.096875 104.2317)scale(0.1 -0.1)">
       <use xlink:href="#DejaVuSans-48"/>
       <use x="63.623047" xlink:href="#DejaVuSans-46"/>
       <use x="95.410156" xlink:href="#DejaVuSans-55"/>
      </g>
     </g>
    </g>
    <g id="ytick_9">
     <g id="line2d_17">
      <g>
       <use style="stroke:#000000;stroke-width:0.8;" x="108" xlink:href="#m3545169051" y="62.014264"/>
      </g>
     </g>
     <g id="text_18">
      <!-- 0.8 -->
      <g transform="translate(85.096875 65.813483)scale(0.1 -0.1)">
       <use xlink:href="#DejaVuSans-48"/>
       <use x="63.623047" xlink:href="#DejaVuSans-46"/>
       <use x="95.410156" xlink:href="#DejaVuSans-56"/>
      </g>
     </g>
    </g>
    <g id="text_19">
     <!-- Value -->
     <defs>
      <path d="M 28.609375 0 
L 0.78125 72.90625 
L 11.078125 72.90625 
L 34.1875 11.53125 
L 57.328125 72.90625 
L 67.578125 72.90625 
L 39.796875 0 
z
" id="DejaVuSans-86"/>
      <path d="M 9.421875 75.984375 
L 18.40625 75.984375 
L 18.40625 0 
L 9.421875 0 
z
" id="DejaVuSans-108"/>
      <path d="M 8.5 21.578125 
L 8.5 54.6875 
L 17.484375 54.6875 
L 17.484375 21.921875 
Q 17.484375 14.15625 20.5 10.265625 
Q 23.53125 6.390625 29.59375 6.390625 
Q 36.859375 6.390625 41.078125 11.03125 
Q 45.3125 15.671875 45.3125 23.6875 
L 45.3125 54.6875 
L 54.296875 54.6875 
L 54.296875 0 
L 45.3125 0 
L 45.3125 8.40625 
Q 42.046875 3.421875 37.71875 1 
Q 33.40625 -1.421875 27.6875 -1.421875 
Q 18.265625 -1.421875 13.375 4.4375 
Q 8.5 10.296875 8.5 21.578125 
z
M 31.109375 56 
z
" id="DejaVuSans-117"/>
     </defs>
     <g transform="translate(79.017187 232.273281)rotate(-90)scale(0.1 -0.1)">
      <use xlink:href="#DejaVuSans-86"/>
      <use x="68.298828" xlink:href="#DejaVuSans-97"/>
      <use x="129.578125" xlink:href="#DejaVuSans-108"/>
      <use x="157.361328" xlink:href="#DejaVuSans-117"/>
      <use x="220.740234" xlink:href="#DejaVuSans-101"/>
     </g>
    </g>
   </g>
   <g id="line2d_18">
    <path clip-path="url(#p58b5953982)" d="M 138.436364 369.36 
L 139.29433 303.16666 
L 139.723313 282.450558 
L 140.152297 301.606407 
L 140.58128 334.594877 
L 141.010263 336.854369 
L 141.439247 343.07157 
L 141.86823 318.147481 
L 142.297213 336.694302 
L 142.726196 332.066258 
L 143.15518 369.36 
L 143.584163 357.425854 
L 144.013146 362.547393 
L 144.44213 345.020329 
L 145.300096 324.999193 
L 146.158063 353.841889 
L 146.587046 335.124238 
L 147.016029 331.698601 
L 147.445012 351.249406 
L 147.873996 329.092795 
L 148.302979 290.683768 
L 148.731962 352.129043 
L 149.160946 328.881716 
L 149.589929 336.946982 
L 150.018912 331.717572 
L 150.447895 330.305092 
L 150.876879 347.552086 
L 151.734845 334.305508 
L 152.163829 333.043516 
L 152.592812 362.967973 
L 153.450778 344.58109 
L 153.879762 357.670719 
L 154.308745 332.700104 
L 154.737728 342.586827 
L 155.166712 356.034171 
L 155.595695 334.950931 
L 156.024678 341.170187 
L 156.453661 345.564027 
L 156.882645 325.489895 
L 157.311628 329.11336 
L 157.740611 338.756832 
L 158.169594 313.747532 
L 158.598578 314.740385 
L 159.027561 339.789637 
L 159.456544 344.798183 
L 159.885528 311.835324 
L 160.314511 353.424569 
L 160.743494 335.045627 
L 161.172477 335.236844 
L 161.601461 348.278774 
L 162.030444 338.957539 
L 162.459427 306.669166 
L 162.888411 336.044004 
L 163.317394 341.161047 
L 163.746377 369.36 
L 164.17536 356.775635 
L 164.604344 348.270746 
L 165.033327 343.038099 
L 165.46231 349.077432 
L 165.891293 360.196096 
L 166.320277 340.83015 
L 166.74926 360.051808 
L 167.607227 308.157263 
L 168.465193 330.355745 
L 168.894176 353.93568 
L 169.32316 335.856098 
L 170.181126 346.676142 
L 170.61011 345.355646 
L 171.039093 335.257963 
L 171.468076 349.630543 
L 171.897059 340.626975 
L 172.326043 334.085414 
L 172.755026 312.643976 
L 173.184009 342.079207 
L 174.041976 337.040384 
L 174.470959 345.045412 
L 174.899942 347.310286 
L 175.328926 353.293733 
L 175.757909 341.034369 
L 176.186892 310.329312 
L 176.615875 346.172355 
L 177.044859 328.465397 
L 177.473842 346.572509 
L 177.902825 332.365637 
L 178.331809 336.66555 
L 178.760792 326.527252 
L 179.189775 340.059586 
L 179.618758 331.728542 
L 180.047742 303.088491 
L 180.476725 325.604792 
L 180.905708 334.783751 
L 181.334692 350.669779 
L 181.763675 316.105572 
L 182.192658 327.530415 
L 182.621641 348.523818 
L 183.050625 354.375339 
L 183.479608 340.749451 
L 184.337574 369.36 
L 184.766558 358.619914 
L 185.195541 351.184354 
L 185.624524 362.981514 
L 186.053508 353.05816 
L 186.482491 349.693045 
L 186.911474 369.36 
L 187.340457 347.567331 
L 187.769441 347.933754 
L 188.198424 338.235569 
L 188.627407 337.651026 
L 189.056391 325.18211 
L 189.485374 339.898937 
L 189.914357 342.445174 
L 190.34334 342.346318 
L 190.772324 334.035814 
L 191.201307 313.420815 
L 191.63029 332.949392 
L 192.059273 330.104307 
L 192.488257 350.710864 
L 192.91724 342.943423 
L 193.346223 340.377034 
L 193.775207 324.136613 
L 194.20419 342.68339 
L 194.633173 369.36 
L 195.49114 369.36 
L 196.77809 339.244978 
L 197.207073 323.828375 
L 197.636056 343.083729 
L 198.065039 351.224307 
L 198.494023 338.968699 
L 198.923006 343.408263 
L 199.351989 338.369342 
L 199.780973 352.081839 
L 200.209956 344.105946 
L 200.638939 342.94377 
L 201.067922 358.880193 
L 201.496906 343.352571 
L 201.925889 341.52727 
L 202.354872 358.263693 
L 202.783855 361.073906 
L 203.212839 344.674519 
L 203.641822 340.980789 
L 204.070805 359.123833 
L 204.499789 349.655351 
L 204.928772 331.242468 
L 205.357755 362.976504 
L 205.786738 339.244978 
L 206.215722 369.36 
L 206.644705 350.387454 
L 207.073688 352.822982 
L 207.502672 353.164782 
L 207.931655 353.133475 
L 208.360638 330.881686 
L 208.789621 302.596314 
L 209.218605 323.236935 
L 209.647588 313.687632 
L 210.076571 341.172781 
L 210.505554 321.738214 
L 210.934538 311.435201 
L 211.363521 296.518788 
L 211.792504 346.111796 
L 212.650471 337.718342 
L 213.079454 321.937417 
L 213.508437 328.182672 
L 213.937421 329.561053 
L 214.366404 361.22977 
L 215.224371 320.618549 
L 215.653354 353.319388 
L 216.082337 369.36 
L 216.940304 337.600051 
L 217.369287 345.612307 
L 217.79827 369.36 
L 218.227254 340.109141 
L 218.656237 322.844608 
L 219.08522 369.36 
L 219.514203 293.136952 
L 219.943187 292.091768 
L 220.37217 332.158307 
L 220.801153 329.641515 
L 221.230136 330.39427 
L 221.65912 331.789771 
L 222.088103 312.715596 
L 222.517086 337.32061 
L 222.94607 332.617778 
L 223.375053 312.620734 
L 224.233019 341.034369 
L 225.090986 347.83813 
L 225.519969 340.618509 
L 225.948953 359.796214 
L 226.377936 360.256483 
L 227.235902 330.908054 
L 227.664886 343.786233 
L 228.093869 342.274716 
L 228.522852 331.410862 
L 228.951835 324.012467 
L 229.380819 330.646936 
L 229.809802 348.917394 
L 230.238785 331.192815 
L 230.667769 351.197693 
L 231.096752 334.298686 
L 231.525735 354.533173 
L 231.954718 342.362018 
L 232.383702 358.052793 
L 232.812685 332.150124 
L 233.241668 324.577985 
L 233.670652 322.839169 
L 234.099635 291.057701 
L 234.528618 351.567844 
L 234.957601 299.203317 
L 235.386585 360.910777 
L 235.815568 335.524208 
L 236.244551 354.80084 
L 236.673534 331.391878 
L 237.102518 340.055472 
L 237.531501 360.571457 
L 237.960484 330.85664 
L 238.389468 338.175163 
L 238.818451 331.899673 
L 239.247434 347.535676 
L 240.105401 303.45412 
L 240.534384 340.540347 
L 240.963367 325.607759 
L 241.392351 328.94777 
L 241.821334 325.158574 
L 242.250317 327.520522 
L 242.6793 331.191263 
L 243.108284 319.83971 
L 243.537267 322.991601 
L 243.96625 319.212567 
L 244.395234 339.018154 
L 244.824217 338.285747 
L 245.2532 353.958306 
L 245.682183 349.90607 
L 246.54015 358.367875 
L 246.969133 353.764753 
L 247.398116 354.450883 
L 247.8271 339.267793 
L 248.256083 343.880656 
L 248.685066 337.405424 
L 249.543033 349.507359 
L 250.400999 354.881751 
L 250.829983 333.471791 
L 251.258966 342.516873 
L 251.687949 360.910777 
L 252.116933 325.92603 
L 252.545916 357.494865 
L 252.974899 329.476599 
L 253.403882 350.552835 
L 253.832866 353.124925 
L 254.261849 350.76993 
L 254.690832 356.221803 
L 255.119815 335.413844 
L 255.548799 335.978212 
L 255.977782 357.416713 
L 256.406765 341.972628 
L 256.835749 314.142968 
L 257.264732 320.770493 
L 257.693715 352.896053 
L 258.122698 354.019456 
L 258.551682 340.091218 
L 258.980665 354.826381 
L 259.409648 357.494865 
L 259.838632 350.797643 
L 260.267615 327.151497 
L 260.696598 359.569116 
L 261.125581 321.522567 
L 261.554565 319.893891 
L 261.983548 308.964108 
L 262.412531 338.974257 
L 262.841515 312.84104 
L 263.270498 348.944138 
L 263.699481 330.418349 
L 264.128464 348.952506 
L 264.557448 325.89612 
L 264.986431 339.870104 
L 265.844397 330.574692 
L 266.273381 309.099384 
L 267.131347 348.307551 
L 267.560331 336.85313 
L 267.989314 308.696001 
L 268.418297 361.032809 
L 268.84728 315.144021 
L 269.276264 346.45809 
L 269.705247 343.29866 
L 270.13423 351.14421 
L 270.563214 350.016939 
L 270.992197 341.327319 
L 271.42118 328.200539 
L 271.850163 341.075549 
L 272.279147 324.962078 
L 272.70813 356.236149 
L 273.137113 361.840811 
L 273.566096 308.962736 
L 273.99508 325.121264 
L 274.424063 336.160623 
L 274.853046 333.782308 
L 275.28203 351.511442 
L 275.711013 327.185128 
L 276.139996 326.754162 
L 276.568979 339.911363 
L 276.997963 327.591622 
L 277.426946 325.288047 
L 277.855929 326.830939 
L 278.284913 359.053267 
L 278.713896 358.054813 
L 279.142879 358.367875 
L 279.571862 348.957552 
L 280.000846 348.023229 
L 280.429829 327.062733 
L 280.858812 327.176882 
L 281.287796 355.462508 
L 281.716779 350.780443 
L 282.145762 327.260834 
L 282.574745 351.18613 
L 283.003729 351.950067 
L 283.432712 318.436444 
L 283.861695 338.742376 
L 284.290678 329.876234 
L 284.719662 311.497844 
L 285.148645 313.618357 
L 285.577628 348.443106 
L 286.006612 337.834472 
L 286.435595 353.166218 
L 286.864578 347.306137 
L 287.293561 353.650054 
L 287.722545 351.985501 
L 288.151528 369.36 
L 288.580511 369.36 
L 289.009495 329.653018 
L 289.438478 356.356885 
L 289.867461 359.307055 
L 290.296444 336.428797 
L 290.725428 321.49108 
L 291.154411 348.325773 
L 291.583394 289.45354 
L 292.012377 329.734563 
L 292.441361 322.441164 
L 292.870344 295.754314 
L 293.299327 327.936784 
L 293.728311 344.738266 
L 294.157294 332.655171 
L 294.586277 354.238476 
L 295.01526 336.085414 
L 295.444244 346.902603 
L 295.873227 349.578153 
L 296.731194 329.564009 
L 297.160177 345.230889 
L 297.58916 334.897557 
L 298.018143 333.048132 
L 298.447127 356.942459 
L 299.305093 345.540239 
L 299.734076 358.947619 
L 300.16306 356.027682 
L 300.592043 343.913303 
L 301.021026 356.977672 
L 301.45001 324.949831 
L 301.878993 360.92624 
L 302.307976 318.080473 
L 302.736959 328.715799 
L 303.165943 328.33305 
L 303.594926 342.992184 
L 304.023909 351.30529 
L 304.452893 314.961187 
L 304.881876 339.201685 
L 305.310859 350.44583 
L 305.739842 339.095054 
L 306.168826 334.808832 
L 306.597809 337.907327 
L 307.026792 313.438194 
L 307.455776 369.36 
L 307.884759 369.36 
L 308.313742 357.568086 
L 308.742725 369.36 
L 309.171709 351.30365 
L 309.600692 358.289568 
L 310.029675 369.36 
L 310.458658 354.238476 
L 310.887642 354.157592 
L 311.316625 334.530334 
L 311.745608 328.864975 
L 312.174592 345.309577 
L 312.603575 349.591578 
L 313.032558 348.371452 
L 313.461541 334.715132 
L 313.890525 351.96134 
L 314.319508 356.549561 
L 314.748491 338.587625 
L 315.177475 359.693093 
L 315.606458 339.293599 
L 316.035441 341.607203 
L 316.464424 352.871718 
L 316.893408 351.224307 
L 317.322391 350.814371 
L 317.751374 355.149879 
L 318.180357 345.189318 
L 318.609341 356.559317 
L 319.038324 358.17443 
L 319.467307 343.152483 
L 319.896291 363.440295 
L 320.325274 361.998999 
L 321.18324 331.042097 
L 321.612224 327.289664 
L 322.041207 345.775362 
L 322.47019 349.64852 
L 322.899174 337.675893 
L 323.328157 346.262027 
L 323.75714 340.662195 
L 324.186123 347.780247 
L 324.615107 349.125527 
L 325.04409 342.90065 
L 325.473073 353.902024 
L 325.902057 348.921504 
L 326.33104 347.5672 
L 326.760023 355.825515 
L 327.189006 369.36 
L 327.61799 361.603084 
L 328.046973 333.499299 
L 328.475956 369.36 
L 328.904939 363.321744 
L 329.333923 362.755674 
L 329.762906 369.36 
L 330.191889 352.735107 
L 331.049856 362.681523 
L 331.478839 351.537258 
L 331.907822 353.164463 
L 332.765789 344.93602 
L 333.194772 339.619082 
L 333.623756 342.61897 
L 334.052739 340.185987 
L 334.481722 351.167437 
L 334.910705 352.455969 
L 335.339689 332.812377 
L 335.768672 342.745785 
L 336.197655 345.87918 
L 336.626638 347.69453 
L 337.055622 345.828509 
L 337.484605 351.016499 
L 337.913588 351.25102 
L 338.342572 369.36 
L 338.771555 369.36 
L 339.200538 350.216771 
L 339.629521 369.36 
L 340.058505 369.36 
L 340.487488 352.618561 
L 340.916471 355.846818 
L 341.345455 352.40408 
L 341.774438 362.845933 
L 342.203421 318.248539 
L 342.632404 363.035549 
L 343.061388 347.96245 
L 343.490371 355.371246 
L 343.919354 350.93204 
L 344.348337 347.807527 
L 344.777321 332.097987 
L 345.206304 326.535067 
L 345.635287 352.149435 
L 346.064271 359.984603 
L 346.493254 336.578593 
L 346.922237 352.60383 
L 347.35122 347.579942 
L 347.780204 356.409775 
L 348.209187 353.93568 
L 348.63817 331.114078 
L 349.067154 369.36 
L 349.496137 355.468792 
L 349.92512 349.098699 
L 350.354103 361.047799 
L 350.783087 355.099073 
L 351.21207 356.118267 
L 351.641053 369.36 
L 352.070037 332.168469 
L 352.49902 346.462176 
L 352.928003 343.06983 
L 353.356986 332.435923 
L 353.78597 344.703964 
L 354.214953 324.926462 
L 354.643936 341.121945 
L 355.072919 341.412245 
L 355.501903 340.323942 
L 355.930886 355.215608 
L 356.359869 333.258695 
L 356.788853 355.971907 
L 357.646819 318.997419 
L 358.075802 345.874039 
L 358.504786 361.876861 
L 358.933769 369.36 
L 359.362752 369.36 
L 359.791736 362.458089 
L 360.220719 361.982833 
L 360.649702 369.36 
L 361.078685 349.264842 
L 361.507669 336.563999 
L 361.936652 349.205281 
L 362.365635 355.79722 
L 362.794618 358.340605 
L 363.223602 360.061077 
L 363.652585 356.159462 
L 364.081568 362.069259 
L 364.510552 356.179153 
L 364.939535 340.699671 
L 365.797501 354.257156 
L 366.226485 351.449455 
L 366.655468 350.831838 
L 367.084451 361.53503 
L 367.513435 345.129643 
L 367.942418 348.433264 
L 368.371401 369.36 
L 368.800384 346.592648 
L 369.229368 344.705493 
L 369.658351 369.36 
L 370.087334 360.941642 
L 370.516318 347.093469 
L 370.945301 355.775843 
L 371.374284 358.145244 
L 371.803267 348.23716 
L 372.232251 344.751796 
L 372.661234 369.36 
L 373.090217 348.058776 
L 373.948184 358.729606 
L 374.377167 348.391399 
L 375.235134 356.75 
L 375.664117 362.561507 
L 376.0931 333.174996 
L 376.522083 345.610808 
L 376.951067 348.614101 
L 377.38005 345.672863 
L 377.809033 347.878132 
L 378.238017 345.237843 
L 378.667 352.114812 
L 379.095983 332.763004 
L 379.524966 360.92624 
L 379.95395 369.36 
L 380.811916 369.36 
L 381.240899 345.710868 
L 381.669883 314.859629 
L 382.098866 369.36 
L 382.956833 306.265849 
L 383.385816 350.394437 
L 383.814799 330.69444 
L 384.243782 323.607133 
L 385.101749 347.890879 
L 385.530732 298.789811 
L 385.959716 336.41919 
L 386.388699 321.107869 
L 387.246665 353.319388 
L 387.675649 333.094558 
L 388.104632 351.947343 
L 388.533615 316.310546 
L 388.962599 338.512669 
L 389.391582 344.360085 
L 389.820565 336.889683 
L 390.249548 357.639603 
L 390.678532 346.722054 
L 391.107515 369.36 
L 391.536498 356.652827 
L 391.965481 305.456272 
L 392.394465 330.063788 
L 392.823448 304.24356 
L 393.252431 337.625025 
L 393.681415 359.994267 
L 394.110398 309.093826 
L 394.539381 344.799441 
L 394.968364 320.94529 
L 395.397348 355.860917 
L 395.826331 311.864341 
L 396.255314 330.764406 
L 396.684298 318.789696 
L 397.113281 352.494552 
L 397.542264 294.186718 
L 397.971247 295.846697 
L 398.829214 357.045577 
L 399.258197 332.306259 
L 399.68718 338.87516 
L 400.116164 359.916352 
L 400.545147 359.526458 
L 400.97413 358.632837 
L 401.403114 359.396062 
L 401.832097 356.648584 
L 402.26108 351.203524 
L 402.690063 354.573931 
L 403.119047 307.582855 
L 403.54803 320.817545 
L 403.977013 351.340131 
L 404.405997 346.48784 
L 404.83498 322.496106 
L 405.263963 349.33197 
L 406.12193 317.546255 
L 406.550913 345.45381 
L 406.979896 334.321804 
L 407.408879 332.425549 
L 407.837863 329.216386 
L 408.266846 332.045167 
L 408.695829 344.616755 
L 409.124813 330.218822 
L 409.553796 292.702348 
L 409.982779 340.629341 
L 410.411762 369.36 
L 411.269729 369.36 
L 411.698712 353.440808 
L 412.556679 355.602193 
L 412.985662 315.193034 
L 413.414645 369.36 
L 413.843629 349.03097 
L 414.272612 323.388674 
L 414.701595 319.516702 
L 415.130579 360.201622 
L 415.559562 321.880154 
L 415.988545 335.13116 
L 416.417528 361.767588 
L 416.846512 361.294098 
L 417.275495 329.480759 
L 417.704478 338.922007 
L 418.133461 354.371986 
L 418.562445 328.411123 
L 418.991428 313.93681 
L 419.420411 335.912305 
L 419.849395 306.638626 
L 420.278378 369.36 
L 420.707361 369.36 
L 421.136344 339.66422 
L 421.565328 347.038729 
L 421.994311 345.851308 
L 422.423294 336.349624 
L 422.852278 356.502499 
L 423.281261 357.732424 
L 423.710244 323.449036 
L 424.139227 334.133767 
L 424.568211 298.519286 
L 424.997194 328.091443 
L 425.426177 308.419251 
L 425.85516 311.894749 
L 426.284144 276.928042 
L 426.713127 309.769061 
L 427.14211 294.12767 
L 427.571094 315.645339 
L 428.000077 315.869164 
L 428.42906 319.109852 
L 428.858043 348.739836 
L 429.287027 327.209938 
L 429.71601 316.246028 
L 430.144993 315.909584 
L 430.573977 330.112704 
L 431.00296 332.241283 
L 431.431943 369.36 
L 433.147876 369.36 
L 433.57686 342.890802 
L 434.005843 348.542821 
L 434.434826 344.360085 
L 434.863809 328.837686 
L 435.292793 347.67758 
L 436.150759 314.299435 
L 436.579742 347.444522 
L 437.008726 369.36 
L 437.866692 343.183512 
L 438.295676 356.100221 
L 438.724659 358.485083 
L 439.153642 318.955599 
L 439.582625 333.396795 
L 440.011609 326.412204 
L 440.440592 344.2834 
L 440.869575 308.267789 
L 441.298559 369.36 
L 441.727542 267.407629 
L 442.156525 369.36 
L 442.585508 347.611318 
L 443.014492 359.123833 
L 443.443475 353.677817 
L 443.872458 317.504237 
L 444.301441 304.612113 
L 444.730425 336.10689 
L 445.159408 347.303611 
L 445.588391 355.051365 
L 446.017375 325.842032 
L 446.446358 309.078135 
L 446.875341 332.462278 
L 447.304324 343.441359 
L 448.162291 350.915951 
L 448.591274 320.898427 
L 449.020258 339.706468 
L 449.449241 352.886506 
L 449.878224 357.444873 
L 450.307207 315.739037 
L 450.736191 358.945442 
L 451.165174 369.36 
L 452.02314 369.36 
L 452.452124 359.653257 
L 452.881107 369.36 
L 453.739074 337.430837 
L 454.168057 327.635091 
L 454.59704 331.587317 
L 455.026023 360.903023 
L 455.455007 344.41516 
L 455.88399 355.160421 
L 456.312973 343.029362 
L 456.741957 364.596801 
L 457.17094 355.796329 
L 457.599923 360.080566 
L 458.028906 357.161917 
L 458.45789 333.779857 
L 458.886873 320.667445 
L 459.315856 343.007135 
L 459.74484 316.087223 
L 460.173823 351.375271 
L 460.602806 341.318526 
L 461.031789 303.446789 
L 461.460773 349.429897 
L 461.889756 357.082038 
L 462.318739 341.186487 
L 462.747722 369.36 
L 463.176706 360.451771 
L 463.605689 357.191981 
L 464.034672 334.359523 
L 464.463656 369.36 
L 464.892639 331.579579 
L 465.321622 338.579542 
L 465.750605 352.591817 
L 466.179589 334.228261 
L 467.037555 350.2398 
L 467.466539 343.444616 
L 467.895522 315.179267 
L 468.324505 351.98754 
L 468.753488 356.919071 
L 469.182472 340.507817 
L 469.611455 354.380796 
L 470.040438 333.478688 
L 470.469421 343.244757 
L 470.898405 337.371889 
L 471.327388 363.553997 
L 471.756371 357.239146 
L 472.185355 369.36 
L 472.614338 369.36 
L 473.043321 362.746501 
L 473.472304 363.389044 
L 473.901288 369.36 
L 474.759254 348.712205 
L 475.188238 347.555698 
L 475.617221 342.131496 
L 476.046204 296.277214 
L 476.475187 301.78412 
L 476.904171 360.571457 
L 477.333154 369.36 
L 477.762137 316.798488 
L 478.191121 346.882467 
L 478.620104 330.069399 
L 479.049087 343.519538 
L 479.47807 310.70614 
L 479.907054 342.537084 
L 480.336037 357.717063 
L 480.76502 333.97029 
L 481.194003 322.112595 
L 481.622987 335.914166 
L 482.480953 345.472725 
L 482.909937 361.335956 
L 483.33892 338.056067 
L 483.767903 358.981651 
L 484.196886 337.580679 
L 484.62587 354.554702 
L 485.054853 334.574666 
L 485.483836 359.396062 
L 485.91282 334.517432 
L 486.341803 334.189543 
L 486.770786 332.62206 
L 487.199769 369.36 
L 487.628753 369.36 
L 488.057736 358.884489 
L 488.486719 360.10013 
L 489.344686 321.918789 
L 489.773669 339.603712 
L 490.202652 347.605462 
L 490.631636 309.777075 
L 491.060619 338.780995 
L 491.489602 348.911668 
L 491.918585 347.303611 
L 492.347569 339.712144 
L 492.776552 369.36 
L 493.205535 340.497768 
L 493.634519 369.36 
L 494.063502 369.36 
L 494.492485 359.193374 
L 494.921468 360.051808 
L 495.350452 348.159753 
L 495.779435 332.448968 
L 496.637401 362.163537 
L 497.495368 350.165039 
L 497.924351 341.201224 
L 498.353335 362.554006 
L 498.782318 363.72918 
L 499.211301 309.760778 
L 499.640284 344.218496 
L 500.069268 322.196078 
L 500.498251 348.59633 
L 500.927234 343.128925 
L 501.356218 330.281549 
L 501.785201 333.45653 
L 502.214184 352.769338 
L 502.643167 330.746974 
L 503.072151 361.840811 
L 503.501134 369.36 
L 503.930117 369.36 
L 504.359101 358.933313 
L 504.788084 333.772195 
L 505.217067 331.450195 
L 505.64605 369.36 
L 506.075034 326.591435 
L 506.504017 332.96635 
L 506.933 345.897722 
L 507.361983 298.371464 
L 507.790967 347.850912 
L 508.21995 306.874768 
L 508.648933 359.288417 
L 509.077917 369.36 
L 509.5069 348.362287 
L 509.935883 342.172609 
L 510.364866 343.536344 
L 510.79385 351.664251 
L 511.222833 337.358412 
L 511.651816 337.783988 
L 512.0808 351.383135 
L 512.509783 343.405748 
L 512.938766 331.306417 
L 513.367749 369.36 
L 513.796733 327.773673 
L 514.225716 369.36 
L 514.654699 369.36 
L 515.083682 354.857052 
L 515.512666 357.701659 
L 515.941649 347.206048 
L 516.370632 304.917007 
L 517.228599 349.392471 
L 517.657582 342.298766 
L 518.086565 325.419037 
L 518.515549 358.313189 
L 518.944532 342.950296 
L 519.373515 353.396364 
L 519.802499 356.462487 
L 520.231482 363.702964 
L 520.660465 351.6509 
L 521.089448 357.120043 
L 521.518432 333.200184 
L 521.947415 325.287102 
L 522.376398 333.340885 
L 522.805382 327.488182 
L 523.234365 357.400444 
L 523.663348 369.36 
L 524.092331 361.616475 
L 524.521315 362.907568 
L 524.950298 369.36 
L 525.379281 369.36 
L 525.808264 362.643778 
L 526.237248 363.351854 
L 526.666231 354.807584 
L 527.095214 312.228925 
L 527.524198 341.230063 
L 527.953181 329.003379 
L 528.382164 327.979551 
L 528.811147 340.607365 
L 529.240131 329.491393 
L 529.669114 349.253174 
L 530.098097 354.019456 
L 530.527081 349.129341 
L 530.956064 341.854956 
L 531.385047 341.657479 
L 531.81403 314.010024 
L 532.243014 339.058116 
L 532.671997 334.574666 
L 533.10098 369.36 
L 533.529963 299.324887 
L 534.38793 369.36 
L 535.245897 369.36 
L 535.67488 344.518378 
L 536.103863 328.597454 
L 536.532846 331.577512 
L 536.96183 348.066291 
L 537.390813 359.357157 
L 537.819796 347.009587 
L 538.24878 324.625692 
L 538.677763 343.431646 
L 539.106746 334.339669 
L 539.535729 349.299 
L 539.964713 358.448825 
L 540.393696 346.190007 
L 540.822679 347.199133 
L 541.251663 350.303702 
L 541.680646 348.317721 
L 542.109629 363.806301 
L 542.538612 347.985749 
L 542.967596 339.590127 
L 543.396579 343.327717 
L 543.825562 356.328751 
L 544.254545 357.470241 
L 544.683529 369.36 
L 546.399462 369.36 
L 546.828445 330.365381 
L 547.257428 316.917996 
L 547.686412 350.788122 
L 548.115395 347.876673 
L 548.544378 349.064895 
L 548.973362 338.882888 
L 549.402345 356.562554 
L 549.831328 350.8014 
L 550.260311 356.296815 
L 550.689295 350.995462 
L 551.118278 317.963821 
L 551.976244 369.36 
L 552.405228 340.980789 
L 552.834211 352.616224 
L 553.263194 369.36 
L 554.121161 315.547751 
L 554.550144 326.337108 
L 554.979127 369.36 
L 555.408111 346.913213 
L 555.837094 342.12612 
L 556.695061 369.36 
L 557.124044 347.968591 
L 557.553027 357.481318 
L 557.98201 353.907367 
L 558.410994 336.847711 
L 558.839977 308.695186 
L 559.697943 349.750183 
L 560.126927 360.256483 
L 560.55591 318.021042 
L 560.984893 314.130026 
L 561.413877 315.995084 
L 561.84286 332.341159 
L 562.271843 331.60352 
L 562.700826 326.13246 
L 563.558793 354.757752 
L 563.987776 363.077018 
L 564.41676 323.648657 
L 564.845743 369.36 
L 566.132693 369.36 
L 566.990659 352.822982 
L 567.419643 321.285064 
L 567.848626 331.10262 
L 568.277609 336.357581 
L 568.706592 343.735502 
L 569.135576 356.21009 
L 569.564559 358.418542 
L 569.993542 306.237418 
L 570.422525 361.564666 
L 570.851509 303.074123 
L 571.280492 325.168771 
L 571.709475 315.115607 
L 572.138459 338.663615 
L 572.567442 325.335176 
L 572.996425 325.947987 
L 573.425408 339.321857 
L 573.854392 310.877176 
L 574.283375 346.986369 
L 574.712358 354.65698 
L 575.570325 349.723964 
L 575.999308 369.36 
L 576.428291 369.36 
L 576.857275 347.366148 
L 577.286258 369.36 
L 577.715241 336.778045 
L 578.144224 346.986369 
L 578.573208 320.797073 
L 579.002191 336.309989 
L 579.431174 316.679666 
L 579.860158 322.551211 
L 580.289141 350.02887 
L 580.718124 341.824203 
L 581.147107 349.655351 
L 581.576091 333.238806 
L 582.005074 361.458795 
L 582.434057 322.200739 
L 582.863041 328.859871 
L 583.292024 296.172074 
L 583.721007 329.127164 
L 584.14999 320.780186 
L 584.578974 335.323556 
L 585.007957 369.36 
L 585.43694 332.737523 
L 585.865924 308.78687 
L 586.294907 344.660242 
L 586.72389 343.083729 
L 587.152873 359.373969 
L 587.581857 369.36 
L 588.01084 361.237556 
L 588.868806 320.367988 
L 589.29779 352.515147 
L 589.726773 329.991124 
L 590.155756 340.223045 
L 590.58474 361.48555 
L 591.013723 317.881533 
L 591.442706 334.352874 
L 591.871689 323.989217 
L 592.300673 356.676591 
L 592.729656 306.478607 
L 593.587623 332.861913 
L 594.016606 329.863603 
L 594.445589 358.271791 
L 594.874572 347.050602 
L 595.303556 349.810279 
L 595.732539 349.836516 
L 596.161522 369.36 
L 596.590505 337.264312 
L 597.019489 369.36 
L 597.448472 338.078386 
L 597.877455 350.953233 
L 598.306439 322.48388 
L 598.735422 335.267898 
L 599.164405 337.564259 
L 599.593388 343.704453 
L 600.022372 325.689696 
L 600.451355 361.062732 
L 600.880338 304.529668 
L 601.309322 353.235286 
L 601.738305 352.846336 
L 602.167288 313.650767 
L 602.596271 351.408285 
L 603.025255 356.85348 
L 603.454238 353.977634 
L 603.883221 348.170909 
L 604.312204 347.264988 
L 604.741188 353.530584 
L 605.599154 324.683551 
L 606.028138 335.727526 
L 606.457121 369.36 
L 606.886104 357.392324 
L 607.315087 369.36 
L 608.602037 336.89458 
L 609.031021 350.207708 
L 609.460004 333.214436 
L 609.888987 352.111709 
L 610.31797 341.207114 
L 610.746954 319.014982 
L 611.175937 329.427657 
L 611.60492 356.445138 
L 612.033904 359.094072 
L 612.462887 337.834472 
L 612.89187 347.337976 
L 613.320853 343.617539 
L 613.749837 317.767242 
L 614.17882 363.560949 
L 614.607803 344.791792 
L 615.036786 333.101343 
L 615.46577 361.141034 
L 615.894753 369.36 
L 618.039669 369.36 
L 618.468653 330.828698 
L 618.897636 369.36 
L 619.326619 329.538222 
L 619.755603 321.651386 
L 620.184586 369.36 
L 620.613569 349.70289 
L 621.042552 353.907367 
L 621.471536 303.829254 
L 621.900519 319.948071 
L 622.329502 369.36 
L 622.758485 369.36 
L 623.187469 313.387098 
L 623.616452 299.443403 
L 624.045435 354.732699 
L 624.474419 325.21258 
L 624.903402 344.449037 
L 625.332385 350.647135 
L 625.761368 324.680459 
L 626.190352 339.931968 
L 626.619335 369.36 
L 627.048318 352.546796 
L 627.477302 369.36 
L 627.906285 353.440808 
L 628.335268 369.36 
L 628.764251 337.889843 
L 629.193235 326.77575 
L 629.622218 321.297681 
L 630.051201 330.121667 
L 630.909168 356.425895 
L 631.338151 347.285269 
L 631.767134 360.520586 
L 632.196118 354.90616 
L 632.625101 359.076905 
L 633.054084 316.761461 
L 633.483067 359.916352 
L 633.912051 349.87289 
L 634.341034 354.450883 
L 634.770017 328.131338 
L 635.199001 316.92247 
L 635.627984 326.366208 
L 636.056967 300.671597 
L 636.914934 369.36 
L 637.343917 342.083471 
L 637.7729 331.473092 
L 638.201884 369.36 
L 638.630867 328.945107 
L 639.05985 327.374377 
L 639.488833 311.851388 
L 639.917817 346.262027 
L 640.3468 343.137976 
L 640.775783 347.466353 
L 641.63375 318.312337 
L 642.062733 356.871385 
L 642.491716 312.578868 
L 642.9207 327.618991 
L 643.349683 320.941637 
L 643.778666 341.492508 
L 644.207649 248.798654 
L 644.636633 280.534623 
L 645.065616 301.408081 
L 645.494599 360.87967 
L 645.923583 324.794537 
L 646.352566 329.332799 
L 646.781549 353.907367 
L 647.210532 343.187733 
L 647.639516 348.103783 
L 648.497482 369.36 
L 648.926466 369.36 
L 649.355449 355.860917 
L 649.784432 355.860917 
L 650.213415 326.105852 
L 650.642399 307.486441 
L 651.071382 310.92396 
L 651.500365 339.87986 
L 651.929348 303.996339 
L 652.358332 307.529253 
L 652.787315 323.224936 
L 653.216298 351.689416 
L 653.645282 277.915276 
L 654.932231 338.530681 
L 655.361215 243.900651 
L 655.790198 259.331396 
L 656.219181 337.126738 
L 656.648165 319.979764 
L 657.077148 356.907031 
L 657.506131 337.713833 
L 657.935114 369.36 
L 658.793081 369.36 
L 659.222064 193.141088 
L 659.651047 294.095151 
L 660.080031 66.96 
L 660.509014 299.177742 
L 660.937997 266.484636 
L 661.366981 252.550654 
L 661.795964 260.917644 
L 662.224947 246.064352 
L 662.65393 274.107472 
L 663.082914 264.182767 
L 663.511897 246.156036 
L 663.94088 305.090729 
L 664.369864 303.111443 
L 664.798847 287.313287 
L 665.22783 335.421372 
L 665.656813 291.979847 
L 666.085797 322.216348 
L 666.51478 311.304951 
L 666.943763 227.657442 
L 667.372746 309.150685 
L 667.80173 331.143003 
L 668.230713 298.690876 
L 668.659696 340.060498 
L 669.08868 347.038729 
L 669.517663 300.145864 
L 669.946646 346.527344 
L 670.375629 312.228925 
L 670.804613 332.610306 
L 671.233596 307.803913 
L 671.662579 210.29874 
L 672.091563 244.701621 
L 672.520546 310.217378 
L 672.949529 346.282035 
L 673.378512 314.664074 
L 673.807496 320.40808 
L 674.236479 333.387456 
L 674.665462 316.688825 
L 675.094446 345.163758 
L 675.952412 288.06264 
L 676.381395 343.299278 
L 676.810379 289.152133 
L 677.668345 369.36 
L 678.097328 339.999149 
L 678.526312 335.515618 
L 678.955295 356.190087 
L 679.384278 354.238476 
L 679.813262 369.36 
L 680.242245 354.398384 
L 680.671228 299.531004 
L 681.100211 298.205439 
L 681.529195 319.109852 
L 681.958178 318.22513 
L 682.387161 348.325773 
L 682.816145 357.608308 
L 683.245128 319.423525 
L 683.674111 334.399203 
L 684.103094 294.580696 
L 684.532078 284.153575 
L 684.961061 281.06119 
L 685.390044 254.785571 
L 685.819027 319.710688 
L 686.248011 294.02412 
L 686.676994 353.793502 
L 687.105977 342.083471 
L 687.963944 337.933514 
L 688.392927 369.36 
L 688.82191 369.36 
L 689.250894 334.245127 
L 689.679877 369.36 
L 690.537844 369.36 
L 690.966827 348.755093 
L 691.39581 266.329445 
L 691.824793 285.27108 
L 692.253777 244.99525 
L 692.68276 321.084418 
L 693.111743 333.908727 
L 693.540727 339.77149 
L 693.96971 226.656271 
L 694.398693 295.088473 
L 694.827676 344.980523 
L 695.25666 282.261232 
L 695.685643 348.970576 
L 696.114626 318.12414 
L 696.543609 321.227541 
L 696.972593 332.397083 
L 697.401576 332.277021 
L 697.830559 335.072624 
L 698.259543 323.682253 
L 698.688526 357.285215 
L 699.117509 369.36 
L 699.546492 355.332582 
L 699.975476 369.36 
L 700.833442 369.36 
L 701.262426 330.531875 
L 701.691409 312.289934 
L 702.120392 336.273609 
L 702.549375 305.992223 
L 702.978359 259.339012 
L 703.407342 318.622845 
L 704.265308 221.901893 
L 704.694292 336.987877 
L 705.123275 242.948178 
L 705.552258 282.408553 
L 705.981242 300.536876 
L 706.410225 253.925493 
L 706.839208 282.339221 
L 707.268191 369.36 
L 707.697175 322.370937 
L 708.126158 304.199854 
L 708.555141 369.36 
L 708.984125 358.528509 
L 709.413108 369.36 
L 709.842091 369.36 
L 710.271074 331.977065 
L 710.700058 323.619621 
L 711.129041 324.562922 
L 711.558024 346.126853 
L 711.987007 282.65607 
L 712.415991 315.275846 
L 712.844974 295.421264 
L 713.273957 296.662755 
L 713.702941 353.380346 
L 714.131924 273.233965 
L 714.560907 297.656344 
L 714.98989 341.115487 
L 715.418874 337.876613 
L 715.847857 291.953012 
L 716.27684 325.121032 
L 716.705824 339.404254 
L 717.134807 341.526529 
L 717.56379 341.272711 
L 717.992773 343.670366 
L 718.421757 347.121567 
L 718.85074 331.989009 
L 719.279723 356.578137 
L 719.708707 369.36 
L 720.13769 354.65698 
L 720.566673 335.828354 
L 721.42464 321.952254 
L 721.853623 353.006934 
L 722.282606 280.43173 
L 722.711589 334.847359 
L 723.140573 340.681737 
L 723.569556 331.232184 
L 723.998539 325.043926 
L 724.427523 285.704787 
L 724.856506 319.221675 
L 725.285489 330.731047 
L 725.714472 359.876871 
L 726.143456 330.872602 
L 726.572439 321.250327 
L 727.001422 324.09609 
L 727.430406 317.813293 
L 727.859389 340.643587 
L 728.288372 317.22278 
L 728.717355 339.996224 
L 729.146339 369.36 
L 729.575322 294.965887 
L 730.004305 349.064895 
L 730.433288 369.36 
L 730.862272 348.434904 
L 731.291255 347.285269 
L 731.720238 258.905467 
L 732.149222 340.339434 
L 732.578205 338.192804 
L 733.007188 286.515713 
L 733.436171 332.584161 
L 733.865155 302.066433 
L 734.294138 242.953171 
L 734.723121 330.111699 
L 735.152105 293.51502 
L 735.581088 330.368937 
L 736.010071 302.207815 
L 736.439054 356.149885 
L 736.868038 284.883062 
L 737.297021 330.368937 
L 737.726004 329.904563 
L 738.154988 326.105852 
L 738.583971 319.330446 
L 739.012954 315.869164 
L 739.441937 349.364822 
L 739.870921 350.209971 
L 740.299904 274.909137 
L 740.728887 369.36 
L 741.15787 369.36 
L 741.586854 287.892018 
L 742.015837 352.489079 
L 742.44482 348.96275 
L 742.873804 290.614685 
L 743.302787 355.602193 
L 743.73177 356.689821 
L 744.160753 338.320718 
L 744.589737 296.368939 
L 745.447703 308.015779 
L 745.876687 316.486495 
L 746.30567 293.506508 
L 746.734653 307.135483 
L 747.163636 326.466694 
L 747.163636 326.466694 
" style="fill:none;stroke:#1f77b4;stroke-linecap:square;stroke-width:1.5;"/>
   </g>
   <g id="line2d_19">
    <path clip-path="url(#p58b5953982)" d="M 743.302787 384.48 
L 743.302787 51.84 
" style="fill:none;stroke:#808080;stroke-linecap:square;"/>
   </g>
   <g id="patch_35">
    <path d="M 108 384.48 
L 108 51.84 
" style="fill:none;stroke:#000000;stroke-linecap:square;stroke-linejoin:miter;stroke-width:0.8;"/>
   </g>
   <g id="patch_36">
    <path d="M 777.6 384.48 
L 777.6 51.84 
" style="fill:none;stroke:#000000;stroke-linecap:square;stroke-linejoin:miter;stroke-width:0.8;"/>
   </g>
   <g id="patch_37">
    <path d="M 108 384.48 
L 777.6 384.48 
" style="fill:none;stroke:#000000;stroke-linecap:square;stroke-linejoin:miter;stroke-width:0.8;"/>
   </g>
   <g id="patch_38">
    <path d="M 108 51.84 
L 777.6 51.84 
" style="fill:none;stroke:#000000;stroke-linecap:square;stroke-linejoin:miter;stroke-width:0.8;"/>
   </g>
   <g id="text_20">
    <!-- real_1.csv -->
    <defs>
     <path d="M 41.109375 46.296875 
Q 39.59375 47.171875 37.8125 47.578125 
Q 36.03125 48 33.890625 48 
Q 26.265625 48 22.1875 43.046875 
Q 18.109375 38.09375 18.109375 28.8125 
L 18.109375 0 
L 9.078125 0 
L 9.078125 54.6875 
L 18.109375 54.6875 
L 18.109375 46.1875 
Q 20.953125 51.171875 25.484375 53.578125 
Q 30.03125 56 36.53125 56 
Q 37.453125 56 38.578125 55.875 
Q 39.703125 55.765625 41.0625 55.515625 
z
" id="DejaVuSans-114"/>
     <path d="M 50.984375 -16.609375 
L 50.984375 -23.578125 
L -0.984375 -23.578125 
L -0.984375 -16.609375 
z
" id="DejaVuSans-95"/>
     <path d="M 48.78125 52.59375 
L 48.78125 44.1875 
Q 44.96875 46.296875 41.140625 47.34375 
Q 37.3125 48.390625 33.40625 48.390625 
Q 24.65625 48.390625 19.8125 42.84375 
Q 14.984375 37.3125 14.984375 27.296875 
Q 14.984375 17.28125 19.8125 11.734375 
Q 24.65625 6.203125 33.40625 6.203125 
Q 37.3125 6.203125 41.140625 7.25 
Q 44.96875 8.296875 48.78125 10.40625 
L 48.78125 2.09375 
Q 45.015625 0.34375 40.984375 -0.53125 
Q 36.96875 -1.421875 32.421875 -1.421875 
Q 20.0625 -1.421875 12.78125 6.34375 
Q 5.515625 14.109375 5.515625 27.296875 
Q 5.515625 40.671875 12.859375 48.328125 
Q 20.21875 56 33.015625 56 
Q 37.15625 56 41.109375 55.140625 
Q 45.0625 54.296875 48.78125 52.59375 
z
" id="DejaVuSans-99"/>
     <path d="M 2.984375 54.6875 
L 12.5 54.6875 
L 29.59375 8.796875 
L 46.6875 54.6875 
L 56.203125 54.6875 
L 35.6875 0 
L 23.484375 0 
z
" id="DejaVuSans-118"/>
    </defs>
    <g transform="translate(412.599375 45.84)scale(0.12 -0.12)">
     <use xlink:href="#DejaVuSans-114"/>
     <use x="41.082031" xlink:href="#DejaVuSans-101"/>
     <use x="102.605469" xlink:href="#DejaVuSans-97"/>
     <use x="163.884766" xlink:href="#DejaVuSans-108"/>
     <use x="191.667969" xlink:href="#DejaVuSans-95"/>
     <use x="241.667969" xlink:href="#DejaVuSans-49"/>
     <use x="305.291016" xlink:href="#DejaVuSans-46"/>
     <use x="337.078125" xlink:href="#DejaVuSans-99"/>
     <use x="392.058594" xlink:href="#DejaVuSans-115"/>
     <use x="444.158203" xlink:href="#DejaVuSans-118"/>
    </g>
   </g>
   <g id="legend_1">
    <g id="patch_39">
     <path d="M 115 74.518125 
L 174.315625 74.518125 
Q 176.315625 74.518125 176.315625 72.518125 
L 176.315625 58.84 
Q 176.315625 56.84 174.315625 56.84 
L 115 56.84 
Q 113 56.84 113 58.84 
L 113 72.518125 
Q 113 74.518125 115 74.518125 
z
" style="fill:#ffffff;opacity:0.8;stroke:#cccccc;stroke-linejoin:miter;"/>
    </g>
    <g id="line2d_20">
     <path d="M 117 64.938438 
L 137 64.938438 
" style="fill:none;stroke:#1f77b4;stroke-linecap:square;stroke-width:1.5;"/>
    </g>
    <g id="line2d_21"/>
    <g id="text_21">
     <!-- value -->
     <g transform="translate(145 68.438438)scale(0.1 -0.1)">
      <use xlink:href="#DejaVuSans-118"/>
      <use x="59.179688" xlink:href="#DejaVuSans-97"/>
      <use x="120.458984" xlink:href="#DejaVuSans-108"/>
      <use x="148.242188" xlink:href="#DejaVuSans-117"/>
      <use x="211.621094" xlink:href="#DejaVuSans-101"/>
     </g>
    </g>
   </g>
  </g>
 </g>
 <defs>
  <clipPath id="p58b5953982">
   <rect height="332.64" width="669.6" x="108" y="51.84"/>
  </clipPath>
 </defs>
</svg>
