<?xml version="1.0" encoding="utf-8" standalone="no"?>
<!DOCTYPE svg PUBLIC "-//W3C//DTD SVG 1.1//EN"
  "http://www.w3.org/Graphics/SVG/1.1/DTD/svg11.dtd">
<!-- Created with matplotlib (https://matplotlib.org/) -->
<svg height="432pt" version="1.1" viewBox="0 0 864 432" width="864pt" xmlns="http://www.w3.org/2000/svg" xmlns:xlink="http://www.w3.org/1999/xlink">
 <defs>
  <style type="text/css">
*{stroke-linecap:butt;stroke-linejoin:round;}
  </style>
 </defs>
 <g id="figure_1">
  <g id="patch_1">
   <path d="M 0 432 
L 864 432 
L 864 0 
L 0 0 
z
" style="fill:#ffffff;"/>
  </g>
  <g id="axes_1">
   <g id="patch_2">
    <path d="M 108 384.48 
L 777.6 384.48 
L 777.6 51.84 
L 108 51.84 
z
" style="fill:#ffffff;"/>
   </g>
   <g id="patch_3">
    <path clip-path="url(#pc641011f54)" d="M 138.436364 384.48 
L 138.436364 51.84 
L 374.473469 51.84 
L 374.473469 384.48 
z
" style="fill:#0000ff;opacity:0.05;"/>
   </g>
   <g id="patch_4">
    <path clip-path="url(#pc641011f54)" d="M 374.473469 384.48 
L 374.473469 51.84 
L 747.163636 51.84 
L 747.163636 384.48 
z
" style="fill:#ff0000;opacity:0.08;"/>
   </g>
   <g id="patch_5">
    <path clip-path="url(#pc641011f54)" d="M 138.436364 384.48 
L 138.436364 51.84 
L 150.859369 51.84 
L 150.859369 384.48 
z
" style="fill:#008000;opacity:0.04;"/>
   </g>
   <g id="patch_6">
    <path clip-path="url(#pc641011f54)" d="M 163.282375 384.48 
L 163.282375 51.84 
L 175.70538 51.84 
L 175.70538 384.48 
z
" style="fill:#008000;opacity:0.04;"/>
   </g>
   <g id="patch_7">
    <path clip-path="url(#pc641011f54)" d="M 188.128386 384.48 
L 188.128386 51.84 
L 200.551391 51.84 
L 200.551391 384.48 
z
" style="fill:#008000;opacity:0.04;"/>
   </g>
   <g id="patch_8">
    <path clip-path="url(#pc641011f54)" d="M 212.974397 384.48 
L 212.974397 51.84 
L 225.397403 51.84 
L 225.397403 384.48 
z
" style="fill:#008000;opacity:0.04;"/>
   </g>
   <g id="patch_9">
    <path clip-path="url(#pc641011f54)" d="M 237.820408 384.48 
L 237.820408 51.84 
L 250.243414 51.84 
L 250.243414 384.48 
z
" style="fill:#008000;opacity:0.04;"/>
   </g>
   <g id="patch_10">
    <path clip-path="url(#pc641011f54)" d="M 486.280519 384.48 
L 486.280519 371.1744 
L 498.703525 371.1744 
L 498.703525 384.48 
z
" style="fill:#ff6600;"/>
   </g>
   <g id="patch_11">
    <path clip-path="url(#pc641011f54)" d="M 262.666419 384.48 
L 262.666419 51.84 
L 275.089425 51.84 
L 275.089425 384.48 
z
" style="fill:#008000;opacity:0.04;"/>
   </g>
   <g id="patch_12">
    <path clip-path="url(#pc641011f54)" d="M 287.51243 384.48 
L 287.51243 51.84 
L 299.935436 51.84 
L 299.935436 384.48 
z
" style="fill:#008000;opacity:0.04;"/>
   </g>
   <g id="patch_13">
    <path clip-path="url(#pc641011f54)" d="M 312.358442 384.48 
L 312.358442 51.84 
L 324.781447 51.84 
L 324.781447 384.48 
z
" style="fill:#008000;opacity:0.04;"/>
   </g>
   <g id="patch_14">
    <path clip-path="url(#pc641011f54)" d="M 312.358442 371.1744 
L 312.358442 51.84 
L 324.781447 51.84 
L 324.781447 371.1744 
z
" style="fill:#008000;opacity:0.5;"/>
   </g>
   <g id="patch_15">
    <path clip-path="url(#pc641011f54)" d="M 312.358442 384.48 
L 312.358442 371.1744 
L 324.781447 371.1744 
L 324.781447 384.48 
z
" style="fill:#ffe500;"/>
   </g>
   <g id="patch_16">
    <path clip-path="url(#pc641011f54)" d="M 324.781447 371.1744 
L 324.781447 51.84 
L 337.204453 51.84 
L 337.204453 371.1744 
z
" style="fill:#008000;opacity:0.5;"/>
   </g>
   <g id="patch_17">
    <path clip-path="url(#pc641011f54)" d="M 337.204453 384.48 
L 337.204453 51.84 
L 349.627458 51.84 
L 349.627458 384.48 
z
" style="fill:#008000;opacity:0.04;"/>
   </g>
   <g id="patch_18">
    <path clip-path="url(#pc641011f54)" d="M 362.050464 384.48 
L 362.050464 51.84 
L 374.473469 51.84 
L 374.473469 384.48 
z
" style="fill:#008000;opacity:0.04;"/>
   </g>
   <g id="patch_19">
    <path clip-path="url(#pc641011f54)" d="M 386.896475 384.48 
L 386.896475 51.84 
L 399.319481 51.84 
L 399.319481 384.48 
z
" style="fill:#008000;opacity:0.04;"/>
   </g>
   <g id="patch_20">
    <path clip-path="url(#pc641011f54)" d="M 622.933581 384.48 
L 622.933581 371.1744 
L 635.356586 371.1744 
L 635.356586 384.48 
z
" style="fill:#ff6600;"/>
   </g>
   <g id="patch_21">
    <path clip-path="url(#pc641011f54)" d="M 635.356586 384.48 
L 635.356586 371.1744 
L 647.779592 371.1744 
L 647.779592 384.48 
z
" style="fill:#ff6600;"/>
   </g>
   <g id="patch_22">
    <path clip-path="url(#pc641011f54)" d="M 411.742486 384.48 
L 411.742486 51.84 
L 424.165492 51.84 
L 424.165492 384.48 
z
" style="fill:#008000;opacity:0.04;"/>
   </g>
   <g id="patch_23">
    <path clip-path="url(#pc641011f54)" d="M 436.588497 384.48 
L 436.588497 51.84 
L 449.011503 51.84 
L 449.011503 384.48 
z
" style="fill:#008000;opacity:0.04;"/>
   </g>
   <g id="patch_24">
    <path clip-path="url(#pc641011f54)" d="M 461.434508 384.48 
L 461.434508 51.84 
L 473.857514 51.84 
L 473.857514 384.48 
z
" style="fill:#008000;opacity:0.04;"/>
   </g>
   <g id="patch_25">
    <path clip-path="url(#pc641011f54)" d="M 486.280519 384.48 
L 486.280519 51.84 
L 498.703525 51.84 
L 498.703525 384.48 
z
" style="fill:#008000;opacity:0.04;"/>
   </g>
   <g id="patch_26">
    <path clip-path="url(#pc641011f54)" d="M 486.280519 371.1744 
L 486.280519 51.84 
L 498.703525 51.84 
L 498.703525 371.1744 
z
" style="fill:#008000;opacity:0.5;"/>
   </g>
   <g id="patch_27">
    <path clip-path="url(#pc641011f54)" d="M 511.126531 384.48 
L 511.126531 51.84 
L 523.549536 51.84 
L 523.549536 384.48 
z
" style="fill:#008000;opacity:0.04;"/>
   </g>
   <g id="patch_28">
    <path clip-path="url(#pc641011f54)" d="M 535.972542 384.48 
L 535.972542 51.84 
L 548.395547 51.84 
L 548.395547 384.48 
z
" style="fill:#008000;opacity:0.04;"/>
   </g>
   <g id="patch_29">
    <path clip-path="url(#pc641011f54)" d="M 560.818553 384.48 
L 560.818553 51.84 
L 573.241558 51.84 
L 573.241558 384.48 
z
" style="fill:#008000;opacity:0.04;"/>
   </g>
   <g id="patch_30">
    <path clip-path="url(#pc641011f54)" d="M 585.664564 384.48 
L 585.664564 51.84 
L 598.08757 51.84 
L 598.08757 384.48 
z
" style="fill:#008000;opacity:0.04;"/>
   </g>
   <g id="patch_31">
    <path clip-path="url(#pc641011f54)" d="M 610.510575 384.48 
L 610.510575 51.84 
L 622.933581 51.84 
L 622.933581 384.48 
z
" style="fill:#008000;opacity:0.04;"/>
   </g>
   <g id="patch_32">
    <path clip-path="url(#pc641011f54)" d="M 635.356586 384.48 
L 635.356586 51.84 
L 647.779592 51.84 
L 647.779592 384.48 
z
" style="fill:#008000;opacity:0.04;"/>
   </g>
   <g id="patch_33">
    <path clip-path="url(#pc641011f54)" d="M 635.356586 371.1744 
L 635.356586 51.84 
L 647.779592 51.84 
L 647.779592 371.1744 
z
" style="fill:#008000;opacity:0.5;"/>
   </g>
   <g id="patch_34">
    <path clip-path="url(#pc641011f54)" d="M 660.202597 384.48 
L 660.202597 51.84 
L 672.625603 51.84 
L 672.625603 384.48 
z
" style="fill:#008000;opacity:0.04;"/>
   </g>
   <g id="patch_35">
    <path clip-path="url(#pc641011f54)" d="M 685.048609 384.48 
L 685.048609 51.84 
L 697.471614 51.84 
L 697.471614 384.48 
z
" style="fill:#008000;opacity:0.04;"/>
   </g>
   <g id="patch_36">
    <path clip-path="url(#pc641011f54)" d="M 709.89462 384.48 
L 709.89462 51.84 
L 722.317625 51.84 
L 722.317625 384.48 
z
" style="fill:#008000;opacity:0.04;"/>
   </g>
   <g id="patch_37">
    <path clip-path="url(#pc641011f54)" d="M 734.740631 384.48 
L 734.740631 51.84 
L 747.163636 51.84 
L 747.163636 384.48 
z
" style="fill:#008000;opacity:0.04;"/>
   </g>
   <g id="patch_38">
    <path clip-path="url(#pc641011f54)" d="M 734.740631 371.1744 
L 734.740631 51.84 
L 747.163636 51.84 
L 747.163636 371.1744 
z
" style="fill:#008000;opacity:0.5;"/>
   </g>
   <g id="matplotlib.axis_1">
    <g id="xtick_1">
     <g id="line2d_1">
      <defs>
       <path d="M 0 0 
L 0 3.5 
" id="m68102a452c" style="stroke:#000000;stroke-width:0.8;"/>
      </defs>
      <g>
       <use style="stroke:#000000;stroke-width:0.8;" x="138.436364" xlink:href="#m68102a452c" y="384.48"/>
      </g>
     </g>
     <g id="text_1">
      <!-- 0 -->
      <defs>
       <path d="M 31.78125 66.40625 
Q 24.171875 66.40625 20.328125 58.90625 
Q 16.5 51.421875 16.5 36.375 
Q 16.5 21.390625 20.328125 13.890625 
Q 24.171875 6.390625 31.78125 6.390625 
Q 39.453125 6.390625 43.28125 13.890625 
Q 47.125 21.390625 47.125 36.375 
Q 47.125 51.421875 43.28125 58.90625 
Q 39.453125 66.40625 31.78125 66.40625 
z
M 31.78125 74.21875 
Q 44.046875 74.21875 50.515625 64.515625 
Q 56.984375 54.828125 56.984375 36.375 
Q 56.984375 17.96875 50.515625 8.265625 
Q 44.046875 -1.421875 31.78125 -1.421875 
Q 19.53125 -1.421875 13.0625 8.265625 
Q 6.59375 17.96875 6.59375 36.375 
Q 6.59375 54.828125 13.0625 64.515625 
Q 19.53125 74.21875 31.78125 74.21875 
z
" id="DejaVuSans-48"/>
      </defs>
      <g transform="translate(135.255114 399.078438)scale(0.1 -0.1)">
       <use xlink:href="#DejaVuSans-48"/>
      </g>
     </g>
    </g>
    <g id="xtick_2">
     <g id="line2d_2">
      <g>
       <use style="stroke:#000000;stroke-width:0.8;" x="221.256401" xlink:href="#m68102a452c" y="384.48"/>
      </g>
     </g>
     <g id="text_2">
      <!-- 200 -->
      <defs>
       <path d="M 19.1875 8.296875 
L 53.609375 8.296875 
L 53.609375 0 
L 7.328125 0 
L 7.328125 8.296875 
Q 12.9375 14.109375 22.625 23.890625 
Q 32.328125 33.6875 34.8125 36.53125 
Q 39.546875 41.84375 41.421875 45.53125 
Q 43.3125 49.21875 43.3125 52.78125 
Q 43.3125 58.59375 39.234375 62.25 
Q 35.15625 65.921875 28.609375 65.921875 
Q 23.96875 65.921875 18.8125 64.3125 
Q 13.671875 62.703125 7.8125 59.421875 
L 7.8125 69.390625 
Q 13.765625 71.78125 18.9375 73 
Q 24.125 74.21875 28.421875 74.21875 
Q 39.75 74.21875 46.484375 68.546875 
Q 53.21875 62.890625 53.21875 53.421875 
Q 53.21875 48.921875 51.53125 44.890625 
Q 49.859375 40.875 45.40625 35.40625 
Q 44.1875 33.984375 37.640625 27.21875 
Q 31.109375 20.453125 19.1875 8.296875 
z
" id="DejaVuSans-50"/>
      </defs>
      <g transform="translate(211.712651 399.078438)scale(0.1 -0.1)">
       <use xlink:href="#DejaVuSans-50"/>
       <use x="63.623047" xlink:href="#DejaVuSans-48"/>
       <use x="127.246094" xlink:href="#DejaVuSans-48"/>
      </g>
     </g>
    </g>
    <g id="xtick_3">
     <g id="line2d_3">
      <g>
       <use style="stroke:#000000;stroke-width:0.8;" x="304.076438" xlink:href="#m68102a452c" y="384.48"/>
      </g>
     </g>
     <g id="text_3">
      <!-- 400 -->
      <defs>
       <path d="M 37.796875 64.3125 
L 12.890625 25.390625 
L 37.796875 25.390625 
z
M 35.203125 72.90625 
L 47.609375 72.90625 
L 47.609375 25.390625 
L 58.015625 25.390625 
L 58.015625 17.1875 
L 47.609375 17.1875 
L 47.609375 0 
L 37.796875 0 
L 37.796875 17.1875 
L 4.890625 17.1875 
L 4.890625 26.703125 
z
" id="DejaVuSans-52"/>
      </defs>
      <g transform="translate(294.532688 399.078438)scale(0.1 -0.1)">
       <use xlink:href="#DejaVuSans-52"/>
       <use x="63.623047" xlink:href="#DejaVuSans-48"/>
       <use x="127.246094" xlink:href="#DejaVuSans-48"/>
      </g>
     </g>
    </g>
    <g id="xtick_4">
     <g id="line2d_4">
      <g>
       <use style="stroke:#000000;stroke-width:0.8;" x="386.896475" xlink:href="#m68102a452c" y="384.48"/>
      </g>
     </g>
     <g id="text_4">
      <!-- 600 -->
      <defs>
       <path d="M 33.015625 40.375 
Q 26.375 40.375 22.484375 35.828125 
Q 18.609375 31.296875 18.609375 23.390625 
Q 18.609375 15.53125 22.484375 10.953125 
Q 26.375 6.390625 33.015625 6.390625 
Q 39.65625 6.390625 43.53125 10.953125 
Q 47.40625 15.53125 47.40625 23.390625 
Q 47.40625 31.296875 43.53125 35.828125 
Q 39.65625 40.375 33.015625 40.375 
z
M 52.59375 71.296875 
L 52.59375 62.3125 
Q 48.875 64.0625 45.09375 64.984375 
Q 41.3125 65.921875 37.59375 65.921875 
Q 27.828125 65.921875 22.671875 59.328125 
Q 17.53125 52.734375 16.796875 39.40625 
Q 19.671875 43.65625 24.015625 45.921875 
Q 28.375 48.1875 33.59375 48.1875 
Q 44.578125 48.1875 50.953125 41.515625 
Q 57.328125 34.859375 57.328125 23.390625 
Q 57.328125 12.15625 50.6875 5.359375 
Q 44.046875 -1.421875 33.015625 -1.421875 
Q 20.359375 -1.421875 13.671875 8.265625 
Q 6.984375 17.96875 6.984375 36.375 
Q 6.984375 53.65625 15.1875 63.9375 
Q 23.390625 74.21875 37.203125 74.21875 
Q 40.921875 74.21875 44.703125 73.484375 
Q 48.484375 72.75 52.59375 71.296875 
z
" id="DejaVuSans-54"/>
      </defs>
      <g transform="translate(377.352725 399.078438)scale(0.1 -0.1)">
       <use xlink:href="#DejaVuSans-54"/>
       <use x="63.623047" xlink:href="#DejaVuSans-48"/>
       <use x="127.246094" xlink:href="#DejaVuSans-48"/>
      </g>
     </g>
    </g>
    <g id="xtick_5">
     <g id="line2d_5">
      <g>
       <use style="stroke:#000000;stroke-width:0.8;" x="469.716512" xlink:href="#m68102a452c" y="384.48"/>
      </g>
     </g>
     <g id="text_5">
      <!-- 800 -->
      <defs>
       <path d="M 31.78125 34.625 
Q 24.75 34.625 20.71875 30.859375 
Q 16.703125 27.09375 16.703125 20.515625 
Q 16.703125 13.921875 20.71875 10.15625 
Q 24.75 6.390625 31.78125 6.390625 
Q 38.8125 6.390625 42.859375 10.171875 
Q 46.921875 13.96875 46.921875 20.515625 
Q 46.921875 27.09375 42.890625 30.859375 
Q 38.875 34.625 31.78125 34.625 
z
M 21.921875 38.8125 
Q 15.578125 40.375 12.03125 44.71875 
Q 8.5 49.078125 8.5 55.328125 
Q 8.5 64.0625 14.71875 69.140625 
Q 20.953125 74.21875 31.78125 74.21875 
Q 42.671875 74.21875 48.875 69.140625 
Q 55.078125 64.0625 55.078125 55.328125 
Q 55.078125 49.078125 51.53125 44.71875 
Q 48 40.375 41.703125 38.8125 
Q 48.828125 37.15625 52.796875 32.3125 
Q 56.78125 27.484375 56.78125 20.515625 
Q 56.78125 9.90625 50.3125 4.234375 
Q 43.84375 -1.421875 31.78125 -1.421875 
Q 19.734375 -1.421875 13.25 4.234375 
Q 6.78125 9.90625 6.78125 20.515625 
Q 6.78125 27.484375 10.78125 32.3125 
Q 14.796875 37.15625 21.921875 38.8125 
z
M 18.3125 54.390625 
Q 18.3125 48.734375 21.84375 45.5625 
Q 25.390625 42.390625 31.78125 42.390625 
Q 38.140625 42.390625 41.71875 45.5625 
Q 45.3125 48.734375 45.3125 54.390625 
Q 45.3125 60.0625 41.71875 63.234375 
Q 38.140625 66.40625 31.78125 66.40625 
Q 25.390625 66.40625 21.84375 63.234375 
Q 18.3125 60.0625 18.3125 54.390625 
z
" id="DejaVuSans-56"/>
      </defs>
      <g transform="translate(460.172762 399.078438)scale(0.1 -0.1)">
       <use xlink:href="#DejaVuSans-56"/>
       <use x="63.623047" xlink:href="#DejaVuSans-48"/>
       <use x="127.246094" xlink:href="#DejaVuSans-48"/>
      </g>
     </g>
    </g>
    <g id="xtick_6">
     <g id="line2d_6">
      <g>
       <use style="stroke:#000000;stroke-width:0.8;" x="552.536549" xlink:href="#m68102a452c" y="384.48"/>
      </g>
     </g>
     <g id="text_6">
      <!-- 1000 -->
      <defs>
       <path d="M 12.40625 8.296875 
L 28.515625 8.296875 
L 28.515625 63.921875 
L 10.984375 60.40625 
L 10.984375 69.390625 
L 28.421875 72.90625 
L 38.28125 72.90625 
L 38.28125 8.296875 
L 54.390625 8.296875 
L 54.390625 0 
L 12.40625 0 
z
" id="DejaVuSans-49"/>
      </defs>
      <g transform="translate(539.811549 399.078438)scale(0.1 -0.1)">
       <use xlink:href="#DejaVuSans-49"/>
       <use x="63.623047" xlink:href="#DejaVuSans-48"/>
       <use x="127.246094" xlink:href="#DejaVuSans-48"/>
       <use x="190.869141" xlink:href="#DejaVuSans-48"/>
      </g>
     </g>
    </g>
    <g id="xtick_7">
     <g id="line2d_7">
      <g>
       <use style="stroke:#000000;stroke-width:0.8;" x="635.356586" xlink:href="#m68102a452c" y="384.48"/>
      </g>
     </g>
     <g id="text_7">
      <!-- 1200 -->
      <g transform="translate(622.631586 399.078438)scale(0.1 -0.1)">
       <use xlink:href="#DejaVuSans-49"/>
       <use x="63.623047" xlink:href="#DejaVuSans-50"/>
       <use x="127.246094" xlink:href="#DejaVuSans-48"/>
       <use x="190.869141" xlink:href="#DejaVuSans-48"/>
      </g>
     </g>
    </g>
    <g id="xtick_8">
     <g id="line2d_8">
      <g>
       <use style="stroke:#000000;stroke-width:0.8;" x="718.176623" xlink:href="#m68102a452c" y="384.48"/>
      </g>
     </g>
     <g id="text_8">
      <!-- 1400 -->
      <g transform="translate(705.451623 399.078438)scale(0.1 -0.1)">
       <use xlink:href="#DejaVuSans-49"/>
       <use x="63.623047" xlink:href="#DejaVuSans-52"/>
       <use x="127.246094" xlink:href="#DejaVuSans-48"/>
       <use x="190.869141" xlink:href="#DejaVuSans-48"/>
      </g>
     </g>
    </g>
    <g id="text_9">
     <!-- Timestamp -->
     <defs>
      <path d="M -0.296875 72.90625 
L 61.375 72.90625 
L 61.375 64.59375 
L 35.5 64.59375 
L 35.5 0 
L 25.59375 0 
L 25.59375 64.59375 
L -0.296875 64.59375 
z
" id="DejaVuSans-84"/>
      <path d="M 9.421875 54.6875 
L 18.40625 54.6875 
L 18.40625 0 
L 9.421875 0 
z
M 9.421875 75.984375 
L 18.40625 75.984375 
L 18.40625 64.59375 
L 9.421875 64.59375 
z
" id="DejaVuSans-105"/>
      <path d="M 52 44.1875 
Q 55.375 50.25 60.0625 53.125 
Q 64.75 56 71.09375 56 
Q 79.640625 56 84.28125 50.015625 
Q 88.921875 44.046875 88.921875 33.015625 
L 88.921875 0 
L 79.890625 0 
L 79.890625 32.71875 
Q 79.890625 40.578125 77.09375 44.375 
Q 74.3125 48.1875 68.609375 48.1875 
Q 61.625 48.1875 57.5625 43.546875 
Q 53.515625 38.921875 53.515625 30.90625 
L 53.515625 0 
L 44.484375 0 
L 44.484375 32.71875 
Q 44.484375 40.625 41.703125 44.40625 
Q 38.921875 48.1875 33.109375 48.1875 
Q 26.21875 48.1875 22.15625 43.53125 
Q 18.109375 38.875 18.109375 30.90625 
L 18.109375 0 
L 9.078125 0 
L 9.078125 54.6875 
L 18.109375 54.6875 
L 18.109375 46.1875 
Q 21.1875 51.21875 25.484375 53.609375 
Q 29.78125 56 35.6875 56 
Q 41.65625 56 45.828125 52.96875 
Q 50 49.953125 52 44.1875 
z
" id="DejaVuSans-109"/>
      <path d="M 56.203125 29.59375 
L 56.203125 25.203125 
L 14.890625 25.203125 
Q 15.484375 15.921875 20.484375 11.0625 
Q 25.484375 6.203125 34.421875 6.203125 
Q 39.59375 6.203125 44.453125 7.46875 
Q 49.3125 8.734375 54.109375 11.28125 
L 54.109375 2.78125 
Q 49.265625 0.734375 44.1875 -0.34375 
Q 39.109375 -1.421875 33.890625 -1.421875 
Q 20.796875 -1.421875 13.15625 6.1875 
Q 5.515625 13.8125 5.515625 26.8125 
Q 5.515625 40.234375 12.765625 48.109375 
Q 20.015625 56 32.328125 56 
Q 43.359375 56 49.78125 48.890625 
Q 56.203125 41.796875 56.203125 29.59375 
z
M 47.21875 32.234375 
Q 47.125 39.59375 43.09375 43.984375 
Q 39.0625 48.390625 32.421875 48.390625 
Q 24.90625 48.390625 20.390625 44.140625 
Q 15.875 39.890625 15.1875 32.171875 
z
" id="DejaVuSans-101"/>
      <path d="M 44.28125 53.078125 
L 44.28125 44.578125 
Q 40.484375 46.53125 36.375 47.5 
Q 32.28125 48.484375 27.875 48.484375 
Q 21.1875 48.484375 17.84375 46.4375 
Q 14.5 44.390625 14.5 40.28125 
Q 14.5 37.15625 16.890625 35.375 
Q 19.28125 33.59375 26.515625 31.984375 
L 29.59375 31.296875 
Q 39.15625 29.25 43.1875 25.515625 
Q 47.21875 21.78125 47.21875 15.09375 
Q 47.21875 7.46875 41.1875 3.015625 
Q 35.15625 -1.421875 24.609375 -1.421875 
Q 20.21875 -1.421875 15.453125 -0.5625 
Q 10.6875 0.296875 5.421875 2 
L 5.421875 11.28125 
Q 10.40625 8.6875 15.234375 7.390625 
Q 20.0625 6.109375 24.8125 6.109375 
Q 31.15625 6.109375 34.5625 8.28125 
Q 37.984375 10.453125 37.984375 14.40625 
Q 37.984375 18.0625 35.515625 20.015625 
Q 33.0625 21.96875 24.703125 23.78125 
L 21.578125 24.515625 
Q 13.234375 26.265625 9.515625 29.90625 
Q 5.8125 33.546875 5.8125 39.890625 
Q 5.8125 47.609375 11.28125 51.796875 
Q 16.75 56 26.8125 56 
Q 31.78125 56 36.171875 55.265625 
Q 40.578125 54.546875 44.28125 53.078125 
z
" id="DejaVuSans-115"/>
      <path d="M 18.3125 70.21875 
L 18.3125 54.6875 
L 36.8125 54.6875 
L 36.8125 47.703125 
L 18.3125 47.703125 
L 18.3125 18.015625 
Q 18.3125 11.328125 20.140625 9.421875 
Q 21.96875 7.515625 27.59375 7.515625 
L 36.8125 7.515625 
L 36.8125 0 
L 27.59375 0 
Q 17.1875 0 13.234375 3.875 
Q 9.28125 7.765625 9.28125 18.015625 
L 9.28125 47.703125 
L 2.6875 47.703125 
L 2.6875 54.6875 
L 9.28125 54.6875 
L 9.28125 70.21875 
z
" id="DejaVuSans-116"/>
      <path d="M 34.28125 27.484375 
Q 23.390625 27.484375 19.1875 25 
Q 14.984375 22.515625 14.984375 16.5 
Q 14.984375 11.71875 18.140625 8.90625 
Q 21.296875 6.109375 26.703125 6.109375 
Q 34.1875 6.109375 38.703125 11.40625 
Q 43.21875 16.703125 43.21875 25.484375 
L 43.21875 27.484375 
z
M 52.203125 31.203125 
L 52.203125 0 
L 43.21875 0 
L 43.21875 8.296875 
Q 40.140625 3.328125 35.546875 0.953125 
Q 30.953125 -1.421875 24.3125 -1.421875 
Q 15.921875 -1.421875 10.953125 3.296875 
Q 6 8.015625 6 15.921875 
Q 6 25.140625 12.171875 29.828125 
Q 18.359375 34.515625 30.609375 34.515625 
L 43.21875 34.515625 
L 43.21875 35.40625 
Q 43.21875 41.609375 39.140625 45 
Q 35.0625 48.390625 27.6875 48.390625 
Q 23 48.390625 18.546875 47.265625 
Q 14.109375 46.140625 10.015625 43.890625 
L 10.015625 52.203125 
Q 14.9375 54.109375 19.578125 55.046875 
Q 24.21875 56 28.609375 56 
Q 40.484375 56 46.34375 49.84375 
Q 52.203125 43.703125 52.203125 31.203125 
z
" id="DejaVuSans-97"/>
      <path d="M 18.109375 8.203125 
L 18.109375 -20.796875 
L 9.078125 -20.796875 
L 9.078125 54.6875 
L 18.109375 54.6875 
L 18.109375 46.390625 
Q 20.953125 51.265625 25.265625 53.625 
Q 29.59375 56 35.59375 56 
Q 45.5625 56 51.78125 48.09375 
Q 58.015625 40.1875 58.015625 27.296875 
Q 58.015625 14.40625 51.78125 6.484375 
Q 45.5625 -1.421875 35.59375 -1.421875 
Q 29.59375 -1.421875 25.265625 0.953125 
Q 20.953125 3.328125 18.109375 8.203125 
z
M 48.6875 27.296875 
Q 48.6875 37.203125 44.609375 42.84375 
Q 40.53125 48.484375 33.40625 48.484375 
Q 26.265625 48.484375 22.1875 42.84375 
Q 18.109375 37.203125 18.109375 27.296875 
Q 18.109375 17.390625 22.1875 11.75 
Q 26.265625 6.109375 33.40625 6.109375 
Q 40.53125 6.109375 44.609375 11.75 
Q 48.6875 17.390625 48.6875 27.296875 
z
" id="DejaVuSans-112"/>
     </defs>
     <g transform="translate(414.739062 412.756563)scale(0.1 -0.1)">
      <use xlink:href="#DejaVuSans-84"/>
      <use x="61.037109" xlink:href="#DejaVuSans-105"/>
      <use x="88.820312" xlink:href="#DejaVuSans-109"/>
      <use x="186.232422" xlink:href="#DejaVuSans-101"/>
      <use x="247.755859" xlink:href="#DejaVuSans-115"/>
      <use x="299.855469" xlink:href="#DejaVuSans-116"/>
      <use x="339.064453" xlink:href="#DejaVuSans-97"/>
      <use x="400.34375" xlink:href="#DejaVuSans-109"/>
      <use x="497.755859" xlink:href="#DejaVuSans-112"/>
     </g>
    </g>
   </g>
   <g id="matplotlib.axis_2">
    <g id="ytick_1">
     <g id="line2d_9">
      <defs>
       <path d="M 0 0 
L -3.5 0 
" id="ma41d912b7e" style="stroke:#000000;stroke-width:0.8;"/>
      </defs>
      <g>
       <use style="stroke:#000000;stroke-width:0.8;" x="108" xlink:href="#ma41d912b7e" y="326.669641"/>
      </g>
     </g>
     <g id="text_10">
      <!-- 2 -->
      <g transform="translate(94.6375 330.46886)scale(0.1 -0.1)">
       <use xlink:href="#DejaVuSans-50"/>
      </g>
     </g>
    </g>
    <g id="ytick_2">
     <g id="line2d_10">
      <g>
       <use style="stroke:#000000;stroke-width:0.8;" x="108" xlink:href="#ma41d912b7e" y="265.220104"/>
      </g>
     </g>
     <g id="text_11">
      <!-- 4 -->
      <g transform="translate(94.6375 269.019323)scale(0.1 -0.1)">
       <use xlink:href="#DejaVuSans-52"/>
      </g>
     </g>
    </g>
    <g id="ytick_3">
     <g id="line2d_11">
      <g>
       <use style="stroke:#000000;stroke-width:0.8;" x="108" xlink:href="#ma41d912b7e" y="203.770567"/>
      </g>
     </g>
     <g id="text_12">
      <!-- 6 -->
      <g transform="translate(94.6375 207.569785)scale(0.1 -0.1)">
       <use xlink:href="#DejaVuSans-54"/>
      </g>
     </g>
    </g>
    <g id="ytick_4">
     <g id="line2d_12">
      <g>
       <use style="stroke:#000000;stroke-width:0.8;" x="108" xlink:href="#ma41d912b7e" y="142.32103"/>
      </g>
     </g>
     <g id="text_13">
      <!-- 8 -->
      <g transform="translate(94.6375 146.120248)scale(0.1 -0.1)">
       <use xlink:href="#DejaVuSans-56"/>
      </g>
     </g>
    </g>
    <g id="ytick_5">
     <g id="line2d_13">
      <g>
       <use style="stroke:#000000;stroke-width:0.8;" x="108" xlink:href="#ma41d912b7e" y="80.871492"/>
      </g>
     </g>
     <g id="text_14">
      <!-- 10 -->
      <g transform="translate(88.275 84.670711)scale(0.1 -0.1)">
       <use xlink:href="#DejaVuSans-49"/>
       <use x="63.623047" xlink:href="#DejaVuSans-48"/>
      </g>
     </g>
    </g>
    <g id="text_15">
     <!-- Value -->
     <defs>
      <path d="M 28.609375 0 
L 0.78125 72.90625 
L 11.078125 72.90625 
L 34.1875 11.53125 
L 57.328125 72.90625 
L 67.578125 72.90625 
L 39.796875 0 
z
" id="DejaVuSans-86"/>
      <path d="M 9.421875 75.984375 
L 18.40625 75.984375 
L 18.40625 0 
L 9.421875 0 
z
" id="DejaVuSans-108"/>
      <path d="M 8.5 21.578125 
L 8.5 54.6875 
L 17.484375 54.6875 
L 17.484375 21.921875 
Q 17.484375 14.15625 20.5 10.265625 
Q 23.53125 6.390625 29.59375 6.390625 
Q 36.859375 6.390625 41.078125 11.03125 
Q 45.3125 15.671875 45.3125 23.6875 
L 45.3125 54.6875 
L 54.296875 54.6875 
L 54.296875 0 
L 45.3125 0 
L 45.3125 8.40625 
Q 42.046875 3.421875 37.71875 1 
Q 33.40625 -1.421875 27.6875 -1.421875 
Q 18.265625 -1.421875 13.375 4.4375 
Q 8.5 10.296875 8.5 21.578125 
z
M 31.109375 56 
z
" id="DejaVuSans-117"/>
     </defs>
     <g transform="translate(82.195312 232.273281)rotate(-90)scale(0.1 -0.1)">
      <use xlink:href="#DejaVuSans-86"/>
      <use x="68.298828" xlink:href="#DejaVuSans-97"/>
      <use x="129.578125" xlink:href="#DejaVuSans-108"/>
      <use x="157.361328" xlink:href="#DejaVuSans-117"/>
      <use x="220.740234" xlink:href="#DejaVuSans-101"/>
     </g>
    </g>
   </g>
   <g id="line2d_14">
    <path clip-path="url(#pc641011f54)" d="M 138.436364 349.243811 
L 138.850464 354.296329 
L 139.264564 352.853972 
L 139.678664 355.738686 
L 140.092764 355.798429 
L 140.506865 354.936428 
L 140.920965 357.121301 
L 141.335065 358.51245 
L 141.749165 358.657539 
L 142.163265 357.548033 
L 142.577365 360.023084 
L 142.991466 360.850946 
L 143.405566 360.850946 
L 143.819666 362.779779 
L 144.233766 361.858036 
L 144.647866 362.216491 
L 145.061967 364.597661 
L 146.304267 352.546724 
L 146.718367 351.317733 
L 147.132468 352.230942 
L 147.546568 350.814188 
L 147.960668 351.044624 
L 148.374768 355.926448 
L 148.788868 357.957697 
L 149.202968 357.616311 
L 149.617069 358.520984 
L 150.031169 360.833877 
L 150.445269 360.202312 
L 150.859369 361.286214 
L 151.273469 361.380095 
L 151.68757 361.24354 
L 152.10167 360.262055 
L 152.51577 360.373005 
L 152.92987 361.328887 
L 153.34397 364.068512 
L 153.758071 362.455462 
L 154.172171 363.25772 
L 154.586271 363.778334 
L 155.000371 363.087026 
L 155.828571 359.13548 
L 156.656772 349.798564 
L 157.070872 348.501296 
L 157.484972 348.714662 
L 157.899072 353.092942 
L 158.313173 352.922249 
L 158.727273 355.824033 
L 159.141373 354.808408 
L 159.555473 357.573637 
L 159.969573 354.944963 
L 160.383673 360.082827 
L 160.797774 356.438528 
L 161.211874 359.724371 
L 161.625974 358.418569 
L 162.040074 358.853836 
L 162.454174 357.855281 
L 162.868275 358.777024 
L 163.282375 359.39152 
L 163.696475 360.552233 
L 164.110575 363.897819 
L 164.524675 364.426968 
L 164.938776 362.37865 
L 165.352876 361.678808 
L 165.766976 357.863816 
L 166.181076 351.949298 
L 166.595176 349.047514 
L 167.009276 349.499851 
L 167.423377 349.747356 
L 167.837477 351.573773 
L 168.251577 351.189713 
L 168.665677 353.050269 
L 169.079777 351.89809 
L 169.907978 357.616311 
L 170.322078 356.225161 
L 170.736178 358.230806 
L 171.150278 359.545143 
L 171.564378 356.848191 
L 171.978479 357.804073 
L 172.392579 359.604886 
L 172.806679 358.811163 
L 173.220779 363.385739 
L 173.634879 364.256275 
L 174.04898 361.977521 
L 174.46308 364.469641 
L 174.87718 363.24065 
L 175.70538 355.832567 
L 176.533581 347.699038 
L 176.947681 349.832703 
L 177.361781 352.819833 
L 177.775881 352.563793 
L 178.189981 352.836902 
L 178.604082 355.072983 
L 179.018182 352.990526 
L 179.432282 356.063003 
L 179.846382 356.779914 
L 180.674583 360.355936 
L 181.502783 357.582172 
L 181.916883 358.802628 
L 182.330983 359.229361 
L 182.745083 362.549343 
L 183.159184 362.455462 
L 183.573284 363.189442 
L 183.987384 363.035818 
L 184.401484 363.266254 
L 184.815584 361.072847 
L 185.229685 361.166728 
L 185.643785 357.223716 
L 186.057885 354.356071 
L 186.471985 349.013375 
L 187.714286 352.88811 
L 188.128386 355.559458 
L 188.542486 354.595042 
L 188.956586 355.841102 
L 189.370686 353.784249 
L 190.198887 358.759955 
L 190.612987 357.462687 
L 191.027087 358.563658 
L 191.441187 355.87524 
L 191.855288 356.933538 
L 192.269388 354.919359 
L 192.683488 360.048688 
L 193.511688 362.523739 
L 193.925788 364.597661 
L 194.339889 363.710056 
L 194.753989 362.25063 
L 195.168089 359.698767 
L 195.582189 357.863816 
L 196.41039 348.817078 
L 196.82449 350.489871 
L 197.23859 350.174089 
L 197.65269 354.432883 
L 198.06679 353.51114 
L 198.480891 357.26639 
L 198.894991 355.431438 
L 199.309091 352.768625 
L 199.723191 356.839657 
L 200.551391 361.823897 
L 200.965492 357.821142 
L 201.379592 359.536609 
L 201.793692 358.068648 
L 202.207792 360.893619 
L 203.035993 364.077047 
L 203.450093 365.664493 
L 203.864193 365.929068 
L 204.278293 367.294613 
L 204.692393 363.052888 
L 205.106494 361.542253 
L 205.520594 358.171063 
L 205.934694 352.282149 
L 206.348794 352.119991 
L 206.762894 350.276505 
L 207.176994 353.331912 
L 207.591095 353.997616 
L 208.005195 355.687478 
L 208.833395 357.326132 
L 209.247495 355.457042 
L 209.661596 358.461242 
L 210.075696 360.347401 
L 210.489796 359.11841 
L 210.903896 363.889284 
L 211.317996 362.882195 
L 211.732096 359.604886 
L 212.146197 359.647559 
L 212.560297 361.926313 
L 212.974397 360.270589 
L 213.388497 362.139679 
L 213.802597 361.798293 
L 214.630798 363.769799 
L 215.044898 359.775579 
L 215.458998 359.707302 
L 215.873098 354.492626 
L 216.287199 351.454288 
L 217.115399 352.700348 
L 217.529499 354.330467 
L 217.943599 352.88811 
L 218.357699 357.804073 
L 218.7718 354.364606 
L 219.1859 355.986191 
L 219.6 358.102786 
L 220.0141 362.549343 
L 220.4282 361.294748 
L 220.842301 364.068512 
L 221.256401 362.549343 
L 221.670501 362.720036 
L 222.084601 360.475421 
L 222.498701 362.583482 
L 222.912801 360.176708 
L 223.326902 360.355936 
L 223.741002 362.165283 
L 224.155102 364.887839 
L 224.569202 363.24065 
L 224.983302 362.993145 
L 225.397403 359.237896 
L 225.811503 354.287794 
L 226.225603 351.710327 
L 226.639703 350.327713 
L 227.053803 355.218072 
L 227.467904 357.112766 
L 227.882004 355.38023 
L 228.296104 355.055913 
L 228.710204 357.539499 
L 229.124304 354.603576 
L 230.366605 362.566412 
L 230.780705 360.424213 
L 231.194805 359.092807 
L 231.608905 360.236451 
L 232.023006 360.483956 
L 232.437106 361.678808 
L 232.851206 362.165283 
L 233.265306 362.907799 
L 233.679406 365.527939 
L 234.093506 364.418433 
L 235.335807 356.566548 
L 235.749907 350.506941 
L 236.164007 348.108702 
L 236.578108 349.260881 
L 236.992208 352.188268 
L 237.406308 352.811298 
L 237.820408 352.452843 
L 238.648609 354.842547 
L 239.062709 354.612111 
L 239.476809 355.286349 
L 239.890909 359.058668 
L 240.719109 362.071402 
L 241.13321 359.400054 
L 241.54731 357.488291 
L 241.96141 358.273479 
L 242.37551 362.242095 
L 242.78961 357.590707 
L 243.203711 362.062867 
L 243.617811 365.024394 
L 244.031911 365.476731 
L 244.446011 363.052888 
L 244.860111 362.335977 
L 245.688312 352.990526 
L 246.102412 351.590842 
L 246.516512 350.626426 
L 246.930612 350.745911 
L 247.344712 353.664764 
L 247.758813 353.374586 
L 248.172913 354.347537 
L 248.587013 357.129835 
L 249.001113 353.656229 
L 249.415213 358.614866 
L 249.829314 358.913579 
L 250.243414 361.431303 
L 250.657514 360.885085 
L 251.071614 362.796848 
L 251.485714 359.11841 
L 251.899814 359.382985 
L 252.313915 363.803938 
L 252.728015 364.111185 
L 253.142115 363.675918 
L 253.556215 365.357245 
L 253.970315 364.708611 
L 254.384416 365.416988 
L 254.798516 359.920668 
L 256.040816 351.249456 
L 256.454917 353.289239 
L 256.869017 354.014685 
L 257.283117 355.388765 
L 257.697217 355.610666 
L 258.525417 356.865261 
L 258.939518 354.705992 
L 259.353618 355.789894 
L 259.767718 358.674608 
L 260.181818 359.493935 
L 260.595918 360.680253 
L 261.010019 361.00457 
L 261.424119 358.469776 
L 262.252319 363.104096 
L 262.666419 361.695877 
L 263.080519 365.297503 
L 263.49462 363.573502 
L 263.90872 364.546453 
L 264.32282 364.648869 
L 264.73692 362.404254 
L 265.565121 353.058803 
L 265.979221 353.425794 
L 266.393321 351.38601 
L 266.807421 355.055913 
L 267.221521 355.994726 
L 267.635622 355.235141 
L 268.049722 355.772825 
L 268.463822 356.959142 
L 268.877922 355.559458 
L 269.706122 359.86946 
L 270.120223 360.535164 
L 270.534323 362.114075 
L 271.362523 357.974766 
L 271.776623 362.079937 
L 272.190724 362.677363 
L 272.604824 362.259165 
L 273.018924 362.694432 
L 273.433024 361.926313 
L 273.847124 364.273344 
L 274.261224 363.155304 
L 274.675325 361.11552 
L 275.089425 357.223716 
L 275.503525 355.175399 
L 275.917625 351.573773 
L 276.331725 351.334802 
L 276.745826 352.444308 
L 277.159926 353.186823 
L 277.574026 358.00037 
L 277.988126 359.50247 
L 278.402226 357.070093 
L 278.816327 358.188133 
L 279.230427 357.530964 
L 279.644527 358.657539 
L 280.058627 362.293303 
L 280.886827 362.839521 
L 281.300928 359.809718 
L 281.715028 357.778469 
L 282.129128 363.274789 
L 282.543228 362.344511 
L 282.957328 361.960452 
L 283.371429 363.180908 
L 283.785529 361.030174 
L 284.199629 363.095561 
L 284.613729 363.607641 
L 285.027829 360.432748 
L 285.441929 354.373141 
L 285.85603 352.802764 
L 286.27013 352.461377 
L 286.68423 353.929338 
L 287.09833 354.680388 
L 287.51243 356.293439 
L 288.340631 358.034509 
L 288.754731 361.286214 
L 289.168831 362.327442 
L 289.582931 360.142569 
L 289.997032 362.190887 
L 290.411132 362.626155 
L 290.825232 361.345956 
L 291.239332 359.528074 
L 291.653432 362.916333 
L 292.067532 362.037263 
L 292.481633 362.856591 
L 292.895733 363.11263 
L 293.309833 362.63469 
L 293.723933 364.316017 
L 294.138033 362.054333 
L 294.552134 363.1297 
L 294.966234 357.607776 
L 295.380334 356.464132 
L 295.794434 352.674744 
L 296.208534 350.711772 
L 296.622635 354.825478 
L 297.036735 353.434328 
L 297.450835 355.917914 
L 297.864935 355.047379 
L 298.279035 356.045934 
L 298.693135 358.444172 
L 299.107236 358.896509 
L 299.521336 363.658848 
L 299.935436 364.170928 
L 300.349536 364.947582 
L 300.763636 361.704412 
L 301.177737 361.26061 
L 301.591837 360.219381 
L 302.005937 362.498135 
L 302.420037 361.593461 
L 302.834137 364.811027 
L 303.248237 364.74275 
L 303.662338 364.128255 
L 304.076438 363.821007 
L 304.490538 362.225026 
L 304.904638 358.094252 
L 305.318738 352.119991 
L 305.732839 350.549614 
L 306.146939 350.037534 
L 306.561039 350.967812 
L 306.975139 352.358961 
L 307.389239 354.603576 
L 308.21744 352.64914 
L 308.63154 356.191023 
L 309.04564 355.474112 
L 309.45974 357.070093 
L 309.87384 361.516649 
L 310.287941 360.031619 
L 310.702041 360.850946 
L 311.116141 357.932093 
L 311.530241 361.644669 
L 311.944341 362.498135 
L 312.358442 367.550653 
L 312.772542 368.745505 
L 313.186642 368.190752 
L 313.600742 369.36 
L 314.014842 367.200732 
L 314.428942 364.239205 
L 314.843043 358.486846 
L 315.671243 349.508386 
L 316.085343 348.28793 
L 316.499443 352.879576 
L 316.913544 354.057358 
L 317.327644 354.168309 
L 317.741744 358.136925 
L 318.155844 354.228051 
L 318.984045 358.230806 
L 319.812245 360.825342 
L 320.226345 360.1255 
L 320.640445 358.947717 
L 321.054545 358.836767 
L 321.882746 363.206512 
L 322.296846 362.088471 
L 322.710946 361.431303 
L 323.125046 363.223581 
L 323.539147 267.123333 
L 323.953247 214.635186 
L 324.367347 363.633245 
L 324.781447 358.811163 
L 325.195547 355.858171 
L 325.609647 353.784249 
L 326.023748 351.087297 
L 326.437848 342.228322 
L 326.851948 354.091497 
L 327.266048 324.245798 
L 327.680148 310.240424 
L 328.094249 305.111095 
L 328.508349 355.388765 
L 328.922449 357.326132 
L 329.336549 360.970431 
L 329.750649 360.842411 
L 330.16475 361.158194 
L 330.57885 347.989217 
L 330.99295 358.350291 
L 331.40705 360.091361 
L 331.82115 362.754175 
L 332.23525 363.283324 
L 333.477551 365.527939 
L 333.891651 362.865125 
L 334.305751 362.301838 
L 335.133952 356.139815 
L 335.548052 351.129971 
L 335.962152 352.469912 
L 336.376252 351.087297 
L 336.790353 354.834012 
L 337.204453 357.368806 
L 337.618553 356.523874 
L 338.032653 357.343202 
L 338.446753 358.589262 
L 338.860853 358.555123 
L 339.274954 360.833877 
L 339.689054 360.347401 
L 340.103154 361.576392 
L 340.517254 360.168173 
L 340.931354 359.570747 
L 341.345455 364.785423 
L 341.759555 362.327442 
L 342.173655 364.426968 
L 342.587755 365.186552 
L 343.001855 365.425523 
L 343.415955 362.566412 
L 343.830056 361.593461 
L 344.244156 357.232251 
L 345.072356 350.65203 
L 345.486456 349.448643 
L 345.900557 347.195493 
L 346.728757 354.210982 
L 347.142857 356.319043 
L 347.556957 356.506805 
L 347.971058 358.205202 
L 348.385158 356.907934 
L 348.799258 357.402944 
L 349.627458 362.583482 
L 350.041558 363.530829 
L 350.455659 361.798293 
L 350.869759 359.340312 
L 351.283859 363.436947 
L 351.697959 361.00457 
L 352.112059 363.701522 
L 352.52616 364.230671 
L 352.94026 363.027284 
L 353.35436 363.334531 
L 353.76846 363.974631 
L 354.18256 362.882195 
L 354.59666 358.410034 
L 355.010761 356.737241 
L 355.424861 352.77716 
L 356.253061 354.723062 
L 356.667161 354.834012 
L 357.081262 359.562213 
L 357.495362 358.077182 
L 357.909462 358.316153 
L 358.323562 357.616311 
L 358.737662 360.868015 
L 359.151763 359.698767 
L 359.565863 364.341621 
L 359.979963 363.983166 
L 360.394063 363.36867 
L 360.808163 360.040154 
L 361.222263 362.651759 
L 361.636364 361.431303 
L 362.050464 362.225026 
L 362.464564 361.789758 
L 362.878664 364.230671 
L 363.292764 363.727126 
L 363.706865 363.931958 
L 364.120965 362.728571 
L 364.535065 358.529519 
L 364.949165 356.634825 
L 365.363265 352.785694 
L 365.777365 351.582308 
L 366.191466 352.529655 
L 366.605566 354.193913 
L 367.019666 354.816943 
L 367.433766 358.580727 
L 367.847866 354.398745 
L 368.261967 358.102786 
L 368.676067 359.732906 
L 369.090167 361.823897 
L 369.504267 362.148214 
L 369.918367 363.650314 
L 370.332468 360.176708 
L 370.746568 359.092807 
L 371.160668 362.728571 
L 371.574768 360.731461 
L 372.402968 362.984611 
L 373.231169 367.047108 
L 373.645269 365.220691 
L 374.059369 361.439837 
L 374.473469 358.717282 
L 374.88757 353.997616 
L 375.30167 341.91254 
L 375.71577 351.360406 
L 376.12987 354.057358 
L 376.54397 351.607911 
L 376.958071 351.633515 
L 377.786271 357.274924 
L 378.200371 354.902289 
L 378.614471 357.39441 
L 379.028571 360.63758 
L 379.442672 360.722926 
L 379.856772 361.124055 
L 380.270872 359.340312 
L 380.684972 361.354491 
L 381.099072 362.754175 
L 381.927273 361.695877 
L 382.341373 365.570612 
L 382.755473 364.947582 
L 383.169573 364.862235 
L 383.997774 361.960452 
L 384.825974 353.348982 
L 385.240074 352.051714 
L 385.654174 348.834148 
L 386.068275 354.398745 
L 386.482375 353.562348 
L 386.896475 353.980546 
L 387.310575 355.619201 
L 387.724675 354.902289 
L 388.138776 357.018885 
L 388.552876 356.472667 
L 388.966976 366.424078 
L 389.381076 361.405699 
L 389.795176 362.105541 
L 390.209276 360.01455 
L 390.623377 361.158194 
L 391.037477 361.75562 
L 391.865677 363.650314 
L 392.279777 363.889284 
L 393.107978 366.663048 
L 393.936178 360.62051 
L 394.350278 358.418569 
L 394.764378 352.478447 
L 395.178479 351.915159 
L 395.592579 352.819833 
L 396.006679 354.458487 
L 396.420779 357.215182 
L 396.834879 354.15124 
L 397.24898 357.087162 
L 397.66308 355.738686 
L 398.07718 356.455597 
L 398.49128 360.961897 
L 398.90538 358.87944 
L 399.319481 361.789758 
L 399.733581 363.471086 
L 400.147681 363.718591 
L 400.561781 359.647559 
L 400.975881 361.6276 
L 401.389981 361.99459 
L 401.804082 361.047243 
L 402.218182 362.259165 
L 402.632282 366.048553 
L 403.046382 366.671583 
L 403.460482 364.102651 
L 403.874583 363.36867 
L 404.288683 360.373005 
L 404.702783 355.218072 
L 405.116883 353.826923 
L 405.530983 352.836902 
L 405.945083 354.893755 
L 406.359184 355.260745 
L 406.773284 356.310508 
L 407.187384 356.856726 
L 407.601484 358.461242 
L 408.015584 357.26639 
L 408.429685 360.1255 
L 408.843785 362.01166 
L 409.257885 362.438392 
L 409.671985 358.836767 
L 410.086085 360.927758 
L 410.500186 358.546588 
L 411.328386 363.889284 
L 411.742486 365.23776 
L 412.156586 365.587681 
L 412.570686 366.11683 
L 412.984787 365.946137 
L 413.398887 364.98172 
L 414.641187 356.122746 
L 415.055288 353.980546 
L 415.469388 349.755891 
L 415.883488 348.117236 
L 416.297588 356.216627 
L 416.711688 355.934983 
L 417.125788 359.033064 
L 417.539889 356.907934 
L 417.953989 358.973321 
L 418.368089 357.991836 
L 418.782189 361.106986 
L 419.196289 362.984611 
L 419.61039 363.283324 
L 420.02449 362.498135 
L 420.43859 360.850946 
L 420.85269 362.626155 
L 421.26679 363.454017 
L 422.094991 363.49669 
L 422.509091 365.510869 
L 422.923191 364.136789 
L 423.337291 365.98881 
L 423.751391 363.343066 
L 424.165492 361.75562 
L 424.579592 353.818388 
L 424.993692 353.357516 
L 425.407792 351.471357 
L 426.235993 356.080072 
L 426.650093 356.660429 
L 427.064193 357.565103 
L 427.478293 359.570747 
L 427.892393 360.159639 
L 428.306494 361.303283 
L 428.720594 360.603441 
L 429.134694 363.215046 
L 429.962894 362.660294 
L 430.376994 361.86657 
L 430.791095 361.567857 
L 431.619295 363.86368 
L 432.033395 364.025839 
L 432.447495 364.725681 
L 432.861596 364.580592 
L 433.275696 361.363026 
L 433.689796 362.720036 
L 434.103896 360.501025 
L 434.517996 354.910824 
L 434.932096 351.633515 
L 435.346197 350.831258 
L 435.760297 350.387455 
L 436.174397 354.962032 
L 436.588497 356.011795 
L 437.002597 357.616311 
L 438.244898 355.960587 
L 438.658998 358.49538 
L 439.073098 359.852391 
L 439.487199 360.646114 
L 439.901299 358.025974 
L 440.729499 360.518094 
L 441.143599 358.75142 
L 441.557699 359.792648 
L 441.9718 362.694432 
L 442.3859 361.081382 
L 442.8 365.143879 
L 443.2141 362.37865 
L 443.6282 361.141124 
L 444.456401 351.77007 
L 445.284601 346.051849 
L 445.698701 346.026245 
L 446.112801 347.050404 
L 446.526902 349.030445 
L 446.941002 354.842547 
L 447.355102 351.701793 
L 448.183302 356.51534 
L 448.597403 358.12839 
L 449.425603 358.981856 
L 449.839703 357.812608 
L 450.253803 359.382985 
L 450.667904 360.168173 
L 451.082004 362.685897 
L 451.496104 361.815362 
L 451.910204 363.906354 
L 452.738404 365.007324 
L 453.152505 363.317462 
L 453.566605 362.540808 
L 453.980705 360.151104 
L 454.394805 355.166864 
L 455.223006 350.942208 
L 455.637106 352.640605 
L 456.051206 352.367496 
L 456.465306 353.698903 
L 456.879406 356.472667 
L 457.293506 355.277814 
L 457.707607 356.105676 
L 458.121707 358.520984 
L 458.535807 362.216491 
L 459.364007 361.149659 
L 459.778108 361.200867 
L 460.192208 357.01035 
L 461.020408 362.967541 
L 461.434508 363.573502 
L 462.262709 365.715701 
L 462.676809 364.947582 
L 463.090909 365.911998 
L 463.505009 363.522294 
L 463.919109 360.287659 
L 464.33321 355.824033 
L 464.74731 353.280704 
L 465.16141 353.8952 
L 465.57551 353.408724 
L 465.98961 353.195358 
L 466.403711 355.619201 
L 466.817811 356.037399 
L 467.231911 357.172508 
L 467.646011 358.939183 
L 468.060111 359.084272 
L 468.474212 362.796848 
L 468.888312 364.042908 
L 469.302412 362.472531 
L 470.130612 360.373005 
L 470.544712 361.525184 
L 470.958813 364.077047 
L 471.372913 365.340176 
L 471.787013 365.673028 
L 472.201113 365.476731 
L 472.615213 365.067067 
L 473.029314 363.727126 
L 473.443414 361.88364 
L 474.685714 352.606466 
L 475.099814 353.596487 
L 475.513915 353.912269 
L 475.928015 351.368941 
L 476.342115 357.624845 
L 476.756215 359.88653 
L 477.170315 354.671854 
L 477.584416 357.846746 
L 477.998516 359.963342 
L 478.412616 360.407144 
L 478.826716 361.286214 
L 479.240816 360.193777 
L 479.654917 360.774134 
L 480.069017 360.791203 
L 480.483117 359.587817 
L 480.897217 363.761264 
L 481.311317 363.86368 
L 481.725417 364.35869 
L 482.139518 363.49669 
L 482.553618 365.451127 
L 482.967718 364.811027 
L 483.381818 362.335977 
L 483.795918 356.532409 
L 484.210019 355.567993 
L 485.038219 350.464267 
L 485.452319 351.727397 
L 485.866419 355.363161 
L 486.280519 356.64336 
L 486.69462 356.933538 
L 487.10872 352.708882 
L 487.52282 265.766322 
L 487.93692 356.899399 
L 488.35102 359.050133 
L 488.765121 359.767044 
L 489.593321 358.043044 
L 490.007421 360.38154 
L 490.421521 360.210847 
L 490.835622 362.071402 
L 491.249722 362.660294 
L 492.077922 364.811027 
L 492.492022 366.022949 
L 493.320223 364.495245 
L 493.734323 357.787004 
L 494.148423 354.339002 
L 494.562523 353.297774 
L 494.976623 351.010485 
L 495.804824 353.826923 
L 496.218924 354.313398 
L 496.633024 352.871041 
L 497.047124 355.01324 
L 497.461224 358.102786 
L 498.289425 362.353046 
L 498.703525 362.131145 
L 499.117625 362.865125 
L 499.531725 361.909244 
L 499.945826 359.707302 
L 500.359926 360.63758 
L 501.188126 365.12681 
L 501.602226 363.334531 
L 502.016327 362.207957 
L 502.430427 364.529384 
L 503.258627 362.335977 
L 503.672727 358.452707 
L 504.086827 353.408724 
L 504.915028 352.367496 
L 505.329128 351.761535 
L 505.743228 354.740131 
L 506.157328 354.330467 
L 506.571429 357.283459 
L 506.985529 357.624845 
L 507.399629 359.741441 
L 507.813729 359.400054 
L 508.641929 362.668828 
L 509.05603 360.364471 
L 509.47013 360.49249 
L 509.88423 361.294748 
L 510.29833 363.599106 
L 510.71243 361.653204 
L 511.540631 365.664493 
L 511.954731 366.645979 
L 512.368831 365.826652 
L 513.197032 362.557878 
L 513.611132 354.663319 
L 514.025232 357.189578 
L 514.439332 350.916604 
L 514.853432 351.804209 
L 515.267532 351.624981 
L 515.681633 354.279259 
L 516.095733 354.014685 
L 516.509833 356.344647 
L 516.923933 353.622091 
L 517.338033 357.061558 
L 517.752134 359.092807 
L 518.994434 361.166728 
L 519.408534 358.427103 
L 519.822635 361.405699 
L 520.236735 360.927758 
L 520.650835 360.757065 
L 521.064935 363.428413 
L 521.479035 364.785423 
L 521.893135 363.88075 
L 522.307236 364.597661 
L 522.721336 366.475286 
L 523.549536 359.903599 
L 523.963636 354.407279 
L 524.377737 352.299219 
L 524.791837 351.650585 
L 525.205937 352.085852 
L 526.034137 356.481201 
L 526.448237 353.041734 
L 526.862338 354.432883 
L 527.276438 357.616311 
L 527.690538 359.161084 
L 528.518738 361.13259 
L 528.932839 359.767044 
L 529.346939 359.920668 
L 529.761039 356.199557 
L 530.175139 358.503915 
L 530.589239 361.960452 
L 531.41744 360.808273 
L 531.83154 362.984611 
L 532.24564 363.283324 
L 532.65974 363.914888 
L 533.07384 361.772689 
L 533.487941 355.63627 
L 533.902041 353.459932 
L 534.316141 353.630625 
L 534.730241 349.986326 
L 535.144341 351.701793 
L 535.558442 351.838347 
L 535.972542 355.781359 
L 536.800742 356.916469 
L 537.214842 355.055913 
L 537.628942 355.713082 
L 538.043043 360.330332 
L 538.871243 362.592016 
L 539.699443 359.485401 
L 540.113544 357.821142 
L 540.527644 360.791203 
L 540.941744 362.182353 
L 541.355844 364.222136 
L 541.769944 363.914888 
L 542.184045 364.529384 
L 542.598145 363.692987 
L 543.012245 362.429858 
L 543.840445 354.125636 
L 544.254545 351.266525 
L 544.668646 353.826923 
L 545.082746 354.791339 
L 545.496846 358.145459 
L 545.910946 358.316153 
L 546.739147 355.917914 
L 547.153247 358.239341 
L 547.567347 359.664629 
L 547.981447 360.483956 
L 548.395547 361.88364 
L 548.809647 362.890729 
L 549.223748 358.862371 
L 549.637848 361.354491 
L 550.051948 359.493935 
L 550.466048 361.747085 
L 550.880148 361.934848 
L 551.294249 362.557878 
L 551.708349 363.573502 
L 552.122449 364.887839 
L 552.536549 364.435502 
L 552.950649 359.39152 
L 553.36475 358.410034 
L 553.77885 354.168309 
L 554.19295 354.859616 
L 554.60705 353.118546 
L 555.02115 352.853972 
L 555.43525 353.092942 
L 556.263451 359.24643 
L 556.677551 359.058668 
L 557.091651 356.779914 
L 557.505751 359.809718 
L 557.919852 360.970431 
L 558.333952 354.13417 
L 558.748052 359.220826 
L 559.162152 339.616717 
L 559.576252 355.832567 
L 559.990353 349.977792 
L 560.404453 351.778605 
L 560.818553 358.49538 
L 561.232653 362.609086 
L 561.646753 362.199422 
L 562.060853 363.974631 
L 562.474954 363.795403 
L 562.889054 362.233561 
L 563.303154 359.809718 
L 563.717254 354.228051 
L 564.131354 351.51403 
L 564.545455 352.495516 
L 564.959555 352.017575 
L 565.373655 341.869867 
L 565.787755 341.315114 
L 566.201855 326.985423 
L 566.615955 355.072983 
L 567.030056 357.641915 
L 567.444156 359.323242 
L 567.858256 350.711772 
L 568.272356 348.296464 
L 568.686456 363.411343 
L 569.100557 360.227916 
L 569.514657 360.501025 
L 569.928757 360.227916 
L 570.342857 362.267699 
L 570.756957 359.895064 
L 571.171058 361.055778 
L 571.999258 364.128255 
L 572.413358 361.99459 
L 572.827458 362.566412 
L 573.241558 333.207189 
L 573.655659 329.938415 
L 574.069759 352.367496 
L 574.483859 350.745911 
L 574.897959 351.846882 
L 575.312059 351.522565 
L 575.72616 357.402944 
L 576.14026 357.479756 
L 576.55436 356.233696 
L 576.96846 358.247875 
L 577.38256 358.077182 
L 577.79666 357.445618 
L 578.210761 363.547898 
L 579.038961 360.057223 
L 579.453061 359.195222 
L 579.867161 358.657539 
L 580.281262 360.603441 
L 581.109462 362.088471 
L 581.523562 363.377205 
L 581.937662 363.983166 
L 582.351763 360.799738 
L 583.179963 349.457178 
L 583.594063 346.794364 
L 584.008163 350.609357 
L 584.422263 350.916604 
L 584.836364 352.119991 
L 585.250464 352.725952 
L 585.664564 357.744331 
L 586.078664 355.824033 
L 586.492764 357.189578 
L 586.906865 352.529655 
L 587.320965 356.011795 
L 587.735065 360.791203 
L 588.149165 361.388629 
L 588.563265 339.847153 
L 588.977365 330.723604 
L 589.391466 342.800145 
L 589.805566 358.580727 
L 590.219666 362.796848 
L 590.633766 364.401364 
L 591.047866 360.782669 
L 591.461967 364.828097 
L 591.876067 363.650314 
L 592.290167 360.449817 
L 592.704267 360.432748 
L 593.118367 355.158329 
L 594.360668 347.801454 
L 594.774768 351.787139 
L 595.188868 352.043179 
L 596.017069 357.983301 
L 596.845269 355.89231 
L 597.259369 357.26639 
L 597.673469 324.800551 
L 598.08757 352.683278 
L 598.50167 362.882195 
L 598.91577 359.954807 
L 599.32987 358.597796 
L 599.74397 362.301838 
L 600.158071 362.028729 
L 600.572171 363.223581 
L 600.986271 366.065622 
L 601.400371 363.069957 
L 601.814471 363.189442 
L 602.228571 365.041463 
L 602.642672 362.566412 
L 603.056772 359.00746 
L 603.470872 350.498406 
L 603.884972 348.689058 
L 604.299072 353.340447 
L 605.127273 352.896645 
L 605.541373 357.744331 
L 605.955473 358.264945 
L 606.369573 358.051578 
L 606.783673 356.694568 
L 607.197774 356.583617 
L 608.025974 361.687343 
L 608.440074 360.688788 
L 608.854174 358.614866 
L 609.268275 355.806963 
L 609.682375 358.486846 
L 610.096475 357.727261 
L 610.510575 358.853836 
L 610.924675 360.535164 
L 611.338776 359.954807 
L 611.752876 365.963206 
L 612.166976 359.528074 
L 612.995176 351.257991 
L 613.409276 352.358961 
L 614.237477 350.421594 
L 614.651577 355.559458 
L 615.065677 353.280704 
L 615.479777 358.392965 
L 615.893878 353.989081 
L 616.307978 355.994726 
L 616.722078 354.919359 
L 617.136178 354.415814 
L 617.550278 352.563793 
L 618.378479 358.546588 
L 618.792579 355.986191 
L 619.206679 359.254965 
L 619.620779 361.089916 
L 620.034879 361.798293 
L 620.44898 362.907799 
L 620.86308 363.385739 
L 621.27718 361.99459 
L 621.69128 364.811027 
L 622.10538 363.360135 
L 622.519481 358.922113 
L 622.933581 358.922113 
L 623.347681 356.609221 
L 623.761781 343.457313 
L 624.175881 348.313534 
L 624.589981 335.366457 
L 625.004082 318.740944 
L 625.418182 322.794906 
L 625.832282 325.355304 
L 626.246382 317.08522 
L 626.660482 315.386823 
L 627.488683 354.02322 
L 627.902783 361.6276 
L 628.316883 359.604886 
L 628.730983 362.950472 
L 629.559184 358.828232 
L 629.973284 361.934848 
L 630.387384 360.501025 
L 630.801484 362.532274 
L 631.215584 363.616175 
L 631.629685 362.984611 
L 632.043785 365.74984 
L 632.457885 362.694432 
L 632.871985 356.677498 
L 633.286085 357.667519 
L 633.700186 346.316424 
L 634.114286 343.892581 
L 635.356586 358.708747 
L 635.770686 356.225161 
L 636.598887 361.081382 
L 637.012987 359.673163 
L 637.427087 361.482511 
L 637.841187 362.276234 
L 638.669388 66.96 
L 639.083488 257.914437 
L 639.497588 290.038889 
L 639.911688 313.022723 
L 640.325788 327.062235 
L 640.739889 334.692219 
L 641.153989 338.17436 
L 641.568089 347.093077 
L 641.982189 349.209673 
L 642.396289 359.613421 
L 642.81039 359.340312 
L 643.22449 354.313398 
L 643.63859 353.809853 
L 644.05269 350.472802 
L 644.46679 350.378921 
L 644.880891 352.222407 
L 645.294991 352.930783 
L 645.709091 354.603576 
L 646.123191 355.226606 
L 646.537291 357.590707 
L 646.951391 358.725816 
L 647.365492 361.235006 
L 647.779592 352.350427 
L 648.193692 361.508115 
L 648.607792 358.947717 
L 649.021892 359.724371 
L 649.435993 361.209402 
L 649.850093 361.26061 
L 650.264193 363.607641 
L 650.678293 364.648869 
L 651.092393 364.674473 
L 651.506494 365.553543 
L 652.748794 355.25221 
L 653.576994 346.188404 
L 653.991095 350.90807 
L 654.405195 349.627871 
L 654.819295 352.171199 
L 655.233395 357.232251 
L 655.647495 356.865261 
L 656.061596 354.637715 
L 656.475696 356.839657 
L 656.889796 357.983301 
L 657.303896 362.412788 
L 657.717996 362.481066 
L 658.132096 357.454152 
L 658.546197 354.927893 
L 658.960297 355.405834 
L 659.788497 362.549343 
L 660.202597 362.455462 
L 660.616698 363.9917 
L 661.030798 362.813917 
L 661.444898 363.11263 
L 661.858998 361.636135 
L 662.273098 357.582172 
L 662.687199 356.225161 
L 663.101299 353.76718 
L 663.515399 350.617891 
L 663.929499 351.283594 
L 664.343599 353.76718 
L 664.757699 353.110011 
L 665.1718 356.566548 
L 665.5859 354.193913 
L 666.4141 354.381675 
L 666.8282 356.054468 
L 667.242301 358.64047 
L 667.656401 359.988946 
L 668.070501 360.01455 
L 668.484601 360.816807 
L 668.898701 359.903599 
L 669.312801 362.404254 
L 669.726902 363.75273 
L 670.555102 362.924868 
L 670.969202 366.415543 
L 671.383302 367.089781 
L 672.211503 365.835186 
L 672.625603 362.899264 
L 673.039703 357.368806 
L 673.453803 358.299083 
L 673.867904 361.055778 
L 674.282004 360.518094 
L 674.696104 362.737105 
L 675.110204 362.899264 
L 675.524304 361.593461 
L 675.938404 353.161219 
L 676.352505 351.522565 
L 677.180705 360.646114 
L 677.594805 360.552233 
L 678.008905 359.621955 
L 678.423006 358.401499 
L 678.837106 360.151104 
L 679.251206 354.620646 
L 679.665306 361.089916 
L 680.079406 362.839521 
L 680.493506 363.138234 
L 680.907607 362.455462 
L 681.321707 363.795403 
L 681.735807 361.781224 
L 682.149907 358.418569 
L 682.564007 356.455597 
L 683.392208 353.937873 
L 683.806308 353.024665 
L 684.220408 356.310508 
L 684.634508 358.350291 
L 685.048609 354.407279 
L 685.462709 358.188133 
L 685.876809 356.370251 
L 686.290909 357.027419 
L 686.705009 358.742886 
L 687.119109 359.963342 
L 687.53321 363.88075 
L 687.94731 361.414233 
L 688.36141 360.705857 
L 688.77551 362.293303 
L 689.18961 362.293303 
L 690.017811 365.084136 
L 690.431911 362.429858 
L 690.846011 365.707166 
L 691.260111 364.956117 
L 691.674212 364.964651 
L 692.088312 361.072847 
L 692.502412 358.478311 
L 693.330612 351.300664 
L 693.744712 352.427239 
L 694.158813 357.385875 
L 694.572913 357.530964 
L 694.987013 341.152956 
L 695.815213 358.435638 
L 696.229314 357.641915 
L 697.057514 361.030174 
L 697.471614 359.903599 
L 697.885714 362.088471 
L 698.299814 362.61762 
L 698.713915 363.744195 
L 699.128015 364.085581 
L 699.542115 363.829542 
L 699.956215 365.186552 
L 700.370315 364.469641 
L 700.784416 365.852256 
L 701.198516 366.031483 
L 701.612616 365.041463 
L 702.440816 359.195222 
L 702.854917 356.191023 
L 703.269017 356.225161 
L 703.683117 355.789894 
L 704.097217 355.832567 
L 704.511317 358.051578 
L 704.925417 357.513895 
L 705.339518 361.909244 
L 705.753618 361.892174 
L 706.167718 359.562213 
L 706.581818 362.429858 
L 706.995918 363.786868 
L 707.410019 363.522294 
L 707.824119 366.509424 
L 708.238219 364.11972 
L 708.652319 363.846611 
L 709.066419 363.428413 
L 709.89462 365.809582 
L 710.30872 365.510869 
L 710.72282 366.398474 
L 711.13692 364.674473 
L 711.55102 365.314572 
L 711.965121 362.481066 
L 712.379221 357.616311 
L 712.793321 355.149795 
L 713.207421 351.462822 
L 713.621521 353.178289 
L 714.035622 355.866706 
L 714.449722 356.779914 
L 714.863822 359.587817 
L 715.277922 358.205202 
L 715.692022 357.565103 
L 716.106122 360.202312 
L 716.520223 360.714392 
L 716.934323 362.574947 
L 717.348423 364.964651 
L 717.762523 363.155304 
L 718.176623 362.924868 
L 718.590724 363.974631 
L 719.004824 364.000235 
L 719.418924 363.795403 
L 719.833024 365.673028 
L 720.247124 366.014414 
L 720.661224 367.525049 
L 721.075325 366.535028 
L 721.489425 362.74564 
L 721.903525 361.337422 
L 722.731725 353.408724 
L 723.145826 352.623536 
L 723.559926 354.26219 
L 723.974026 351.505496 
L 724.388126 354.125636 
L 724.802226 357.701657 
L 725.216327 358.401499 
L 725.630427 358.051578 
L 726.044527 358.708747 
L 726.458627 355.89231 
L 726.872727 360.663184 
L 727.286827 359.220826 
L 727.700928 359.877995 
L 728.115028 359.988946 
L 728.529128 361.328887 
L 728.943228 364.298948 
L 729.357328 364.887839 
L 729.771429 364.606196 
L 730.185529 364.879305 
L 730.599629 366.048553 
L 731.013729 366.637444 
L 731.841929 362.737105 
L 732.67013 353.622091 
L 733.08423 353.050269 
L 733.49833 348.595177 
L 733.91243 353.51114 
L 734.326531 356.677498 
L 735.154731 357.769935 
L 735.568831 356.310508 
L 736.397032 355.021775 
L 736.811132 340.350698 
L 737.639332 342.774541 
L 738.053432 343.337828 
L 738.467532 342.313669 
L 738.881633 345.360542 
L 740.123933 331.346634 
L 741.780334 293.981901 
L 742.194434 312.450901 
L 742.608534 338.447469 
L 743.022635 346.495651 
L 743.022635 346.495651 
" style="fill:none;stroke:#1f77b4;stroke-linecap:square;stroke-width:1.5;"/>
   </g>
   <g id="line2d_15">
    <path clip-path="url(#pc641011f54)" d="M 747.163636 384.48 
L 747.163636 51.84 
" style="fill:none;stroke:#808080;stroke-linecap:square;"/>
   </g>
   <g id="patch_39">
    <path d="M 108 384.48 
L 108 51.84 
" style="fill:none;stroke:#000000;stroke-linecap:square;stroke-linejoin:miter;stroke-width:0.8;"/>
   </g>
   <g id="patch_40">
    <path d="M 777.6 384.48 
L 777.6 51.84 
" style="fill:none;stroke:#000000;stroke-linecap:square;stroke-linejoin:miter;stroke-width:0.8;"/>
   </g>
   <g id="patch_41">
    <path d="M 108 384.48 
L 777.6 384.48 
" style="fill:none;stroke:#000000;stroke-linecap:square;stroke-linejoin:miter;stroke-width:0.8;"/>
   </g>
   <g id="patch_42">
    <path d="M 108 51.84 
L 777.6 51.84 
" style="fill:none;stroke:#000000;stroke-linecap:square;stroke-linejoin:miter;stroke-width:0.8;"/>
   </g>
   <g id="text_16">
    <!-- real_60.csv -->
    <defs>
     <path d="M 41.109375 46.296875 
Q 39.59375 47.171875 37.8125 47.578125 
Q 36.03125 48 33.890625 48 
Q 26.265625 48 22.1875 43.046875 
Q 18.109375 38.09375 18.109375 28.8125 
L 18.109375 0 
L 9.078125 0 
L 9.078125 54.6875 
L 18.109375 54.6875 
L 18.109375 46.1875 
Q 20.953125 51.171875 25.484375 53.578125 
Q 30.03125 56 36.53125 56 
Q 37.453125 56 38.578125 55.875 
Q 39.703125 55.765625 41.0625 55.515625 
z
" id="DejaVuSans-114"/>
     <path d="M 50.984375 -16.609375 
L 50.984375 -23.578125 
L -0.984375 -23.578125 
L -0.984375 -16.609375 
z
" id="DejaVuSans-95"/>
     <path d="M 10.6875 12.40625 
L 21 12.40625 
L 21 0 
L 10.6875 0 
z
" id="DejaVuSans-46"/>
     <path d="M 48.78125 52.59375 
L 48.78125 44.1875 
Q 44.96875 46.296875 41.140625 47.34375 
Q 37.3125 48.390625 33.40625 48.390625 
Q 24.65625 48.390625 19.8125 42.84375 
Q 14.984375 37.3125 14.984375 27.296875 
Q 14.984375 17.28125 19.8125 11.734375 
Q 24.65625 6.203125 33.40625 6.203125 
Q 37.3125 6.203125 41.140625 7.25 
Q 44.96875 8.296875 48.78125 10.40625 
L 48.78125 2.09375 
Q 45.015625 0.34375 40.984375 -0.53125 
Q 36.96875 -1.421875 32.421875 -1.421875 
Q 20.0625 -1.421875 12.78125 6.34375 
Q 5.515625 14.109375 5.515625 27.296875 
Q 5.515625 40.671875 12.859375 48.328125 
Q 20.21875 56 33.015625 56 
Q 37.15625 56 41.109375 55.140625 
Q 45.0625 54.296875 48.78125 52.59375 
z
" id="DejaVuSans-99"/>
     <path d="M 2.984375 54.6875 
L 12.5 54.6875 
L 29.59375 8.796875 
L 46.6875 54.6875 
L 56.203125 54.6875 
L 35.6875 0 
L 23.484375 0 
z
" id="DejaVuSans-118"/>
    </defs>
    <g transform="translate(408.781875 45.84)scale(0.12 -0.12)">
     <use xlink:href="#DejaVuSans-114"/>
     <use x="41.082031" xlink:href="#DejaVuSans-101"/>
     <use x="102.605469" xlink:href="#DejaVuSans-97"/>
     <use x="163.884766" xlink:href="#DejaVuSans-108"/>
     <use x="191.667969" xlink:href="#DejaVuSans-95"/>
     <use x="241.667969" xlink:href="#DejaVuSans-54"/>
     <use x="305.291016" xlink:href="#DejaVuSans-48"/>
     <use x="368.914062" xlink:href="#DejaVuSans-46"/>
     <use x="400.701172" xlink:href="#DejaVuSans-99"/>
     <use x="455.681641" xlink:href="#DejaVuSans-115"/>
     <use x="507.78125" xlink:href="#DejaVuSans-118"/>
    </g>
   </g>
   <g id="legend_1">
    <g id="patch_43">
     <path d="M 115 74.518125 
L 174.315625 74.518125 
Q 176.315625 74.518125 176.315625 72.518125 
L 176.315625 58.84 
Q 176.315625 56.84 174.315625 56.84 
L 115 56.84 
Q 113 56.84 113 58.84 
L 113 72.518125 
Q 113 74.518125 115 74.518125 
z
" style="fill:#ffffff;opacity:0.8;stroke:#cccccc;stroke-linejoin:miter;"/>
    </g>
    <g id="line2d_16">
     <path d="M 117 64.938438 
L 137 64.938438 
" style="fill:none;stroke:#1f77b4;stroke-linecap:square;stroke-width:1.5;"/>
    </g>
    <g id="line2d_17"/>
    <g id="text_17">
     <!-- value -->
     <g transform="translate(145 68.438438)scale(0.1 -0.1)">
      <use xlink:href="#DejaVuSans-118"/>
      <use x="59.179688" xlink:href="#DejaVuSans-97"/>
      <use x="120.458984" xlink:href="#DejaVuSans-108"/>
      <use x="148.242188" xlink:href="#DejaVuSans-117"/>
      <use x="211.621094" xlink:href="#DejaVuSans-101"/>
     </g>
    </g>
   </g>
  </g>
 </g>
 <defs>
  <clipPath id="pc641011f54">
   <rect height="332.64" width="669.6" x="108" y="51.84"/>
  </clipPath>
 </defs>
</svg>
