<?xml version="1.0" encoding="utf-8" standalone="no"?>
<!DOCTYPE svg PUBLIC "-//W3C//DTD SVG 1.1//EN"
  "http://www.w3.org/Graphics/SVG/1.1/DTD/svg11.dtd">
<!-- Created with matplotlib (https://matplotlib.org/) -->
<svg height="432pt" version="1.1" viewBox="0 0 864 432" width="864pt" xmlns="http://www.w3.org/2000/svg" xmlns:xlink="http://www.w3.org/1999/xlink">
 <defs>
  <style type="text/css">
*{stroke-linecap:butt;stroke-linejoin:round;}
  </style>
 </defs>
 <g id="figure_1">
  <g id="patch_1">
   <path d="M 0 432 
L 864 432 
L 864 0 
L 0 0 
z
" style="fill:#ffffff;"/>
  </g>
  <g id="axes_1">
   <g id="patch_2">
    <path d="M 108 384.48 
L 777.6 384.48 
L 777.6 51.84 
L 108 51.84 
z
" style="fill:#ffffff;"/>
   </g>
   <g id="patch_3">
    <path clip-path="url(#p2d41e778c0)" d="M 138.436364 384.48 
L 138.436364 51.84 
L 378.497823 51.84 
L 378.497823 384.48 
z
" style="fill:#0000ff;opacity:0.05;"/>
   </g>
   <g id="patch_4">
    <path clip-path="url(#p2d41e778c0)" d="M 378.497823 384.48 
L 378.497823 51.84 
L 747.163636 51.84 
L 747.163636 384.48 
z
" style="fill:#ff0000;opacity:0.08;"/>
   </g>
   <g id="patch_5">
    <path clip-path="url(#p2d41e778c0)" d="M 138.436364 384.48 
L 138.436364 51.84 
L 142.723175 51.84 
L 142.723175 384.48 
z
" style="fill:#008000;opacity:0.04;"/>
   </g>
   <g id="patch_6">
    <path clip-path="url(#p2d41e778c0)" d="M 147.009987 384.48 
L 147.009987 51.84 
L 151.296799 51.84 
L 151.296799 384.48 
z
" style="fill:#008000;opacity:0.04;"/>
   </g>
   <g id="patch_7">
    <path clip-path="url(#p2d41e778c0)" d="M 155.583611 384.48 
L 155.583611 51.84 
L 159.870423 51.84 
L 159.870423 384.48 
z
" style="fill:#008000;opacity:0.04;"/>
   </g>
   <g id="patch_8">
    <path clip-path="url(#p2d41e778c0)" d="M 164.157234 384.48 
L 164.157234 51.84 
L 168.444046 51.84 
L 168.444046 384.48 
z
" style="fill:#008000;opacity:0.04;"/>
   </g>
   <g id="patch_9">
    <path clip-path="url(#p2d41e778c0)" d="M 404.218694 384.48 
L 404.218694 371.1744 
L 408.505506 371.1744 
L 408.505506 384.48 
z
" style="fill:#ff6600;"/>
   </g>
   <g id="patch_10">
    <path clip-path="url(#p2d41e778c0)" d="M 172.730858 384.48 
L 172.730858 51.84 
L 177.01767 51.84 
L 177.01767 384.48 
z
" style="fill:#008000;opacity:0.04;"/>
   </g>
   <g id="patch_11">
    <path clip-path="url(#p2d41e778c0)" d="M 181.304481 384.48 
L 181.304481 51.84 
L 185.591293 51.84 
L 185.591293 384.48 
z
" style="fill:#008000;opacity:0.04;"/>
   </g>
   <g id="patch_12">
    <path clip-path="url(#p2d41e778c0)" d="M 189.878105 384.48 
L 189.878105 51.84 
L 194.164917 51.84 
L 194.164917 384.48 
z
" style="fill:#008000;opacity:0.04;"/>
   </g>
   <g id="patch_13">
    <path clip-path="url(#p2d41e778c0)" d="M 198.451729 384.48 
L 198.451729 51.84 
L 202.73854 51.84 
L 202.73854 384.48 
z
" style="fill:#008000;opacity:0.04;"/>
   </g>
   <g id="patch_14">
    <path clip-path="url(#p2d41e778c0)" d="M 207.025352 384.48 
L 207.025352 51.84 
L 211.312164 51.84 
L 211.312164 384.48 
z
" style="fill:#008000;opacity:0.04;"/>
   </g>
   <g id="patch_15">
    <path clip-path="url(#p2d41e778c0)" d="M 215.598976 384.48 
L 215.598976 51.84 
L 219.885787 51.84 
L 219.885787 384.48 
z
" style="fill:#008000;opacity:0.04;"/>
   </g>
   <g id="patch_16">
    <path clip-path="url(#p2d41e778c0)" d="M 224.172599 384.48 
L 224.172599 51.84 
L 228.459411 51.84 
L 228.459411 384.48 
z
" style="fill:#008000;opacity:0.04;"/>
   </g>
   <g id="patch_17">
    <path clip-path="url(#p2d41e778c0)" d="M 232.746223 384.48 
L 232.746223 51.84 
L 237.033035 51.84 
L 237.033035 384.48 
z
" style="fill:#008000;opacity:0.04;"/>
   </g>
   <g id="patch_18">
    <path clip-path="url(#p2d41e778c0)" d="M 241.319846 384.48 
L 241.319846 51.84 
L 245.606658 51.84 
L 245.606658 384.48 
z
" style="fill:#008000;opacity:0.04;"/>
   </g>
   <g id="patch_19">
    <path clip-path="url(#p2d41e778c0)" d="M 249.89347 384.48 
L 249.89347 51.84 
L 254.180282 51.84 
L 254.180282 384.48 
z
" style="fill:#008000;opacity:0.04;"/>
   </g>
   <g id="patch_20">
    <path clip-path="url(#p2d41e778c0)" d="M 258.467093 384.48 
L 258.467093 51.84 
L 262.753905 51.84 
L 262.753905 384.48 
z
" style="fill:#008000;opacity:0.04;"/>
   </g>
   <g id="patch_21">
    <path clip-path="url(#p2d41e778c0)" d="M 267.040717 384.48 
L 267.040717 51.84 
L 271.327529 51.84 
L 271.327529 384.48 
z
" style="fill:#008000;opacity:0.04;"/>
   </g>
   <g id="patch_22">
    <path clip-path="url(#p2d41e778c0)" d="M 275.614341 384.48 
L 275.614341 51.84 
L 279.901152 51.84 
L 279.901152 384.48 
z
" style="fill:#008000;opacity:0.04;"/>
   </g>
   <g id="patch_23">
    <path clip-path="url(#p2d41e778c0)" d="M 284.187964 384.48 
L 284.187964 51.84 
L 288.474776 51.84 
L 288.474776 384.48 
z
" style="fill:#008000;opacity:0.04;"/>
   </g>
   <g id="patch_24">
    <path clip-path="url(#p2d41e778c0)" d="M 292.761588 384.48 
L 292.761588 51.84 
L 297.048399 51.84 
L 297.048399 384.48 
z
" style="fill:#008000;opacity:0.04;"/>
   </g>
   <g id="patch_25">
    <path clip-path="url(#p2d41e778c0)" d="M 301.335211 384.48 
L 301.335211 51.84 
L 305.622023 51.84 
L 305.622023 384.48 
z
" style="fill:#008000;opacity:0.04;"/>
   </g>
   <g id="patch_26">
    <path clip-path="url(#p2d41e778c0)" d="M 309.908835 384.48 
L 309.908835 51.84 
L 314.195647 51.84 
L 314.195647 384.48 
z
" style="fill:#008000;opacity:0.04;"/>
   </g>
   <g id="patch_27">
    <path clip-path="url(#p2d41e778c0)" d="M 318.482458 384.48 
L 318.482458 51.84 
L 322.76927 51.84 
L 322.76927 384.48 
z
" style="fill:#008000;opacity:0.04;"/>
   </g>
   <g id="patch_28">
    <path clip-path="url(#p2d41e778c0)" d="M 327.056082 384.48 
L 327.056082 51.84 
L 331.342894 51.84 
L 331.342894 384.48 
z
" style="fill:#008000;opacity:0.04;"/>
   </g>
   <g id="patch_29">
    <path clip-path="url(#p2d41e778c0)" d="M 335.629706 384.48 
L 335.629706 51.84 
L 339.916517 51.84 
L 339.916517 384.48 
z
" style="fill:#008000;opacity:0.04;"/>
   </g>
   <g id="patch_30">
    <path clip-path="url(#p2d41e778c0)" d="M 344.203329 384.48 
L 344.203329 51.84 
L 348.490141 51.84 
L 348.490141 384.48 
z
" style="fill:#008000;opacity:0.04;"/>
   </g>
   <g id="patch_31">
    <path clip-path="url(#p2d41e778c0)" d="M 352.776953 384.48 
L 352.776953 51.84 
L 357.063764 51.84 
L 357.063764 384.48 
z
" style="fill:#008000;opacity:0.04;"/>
   </g>
   <g id="patch_32">
    <path clip-path="url(#p2d41e778c0)" d="M 361.350576 384.48 
L 361.350576 51.84 
L 365.637388 51.84 
L 365.637388 384.48 
z
" style="fill:#008000;opacity:0.04;"/>
   </g>
   <g id="patch_33">
    <path clip-path="url(#p2d41e778c0)" d="M 369.9242 384.48 
L 369.9242 51.84 
L 374.211012 51.84 
L 374.211012 384.48 
z
" style="fill:#008000;opacity:0.04;"/>
   </g>
   <g id="patch_34">
    <path clip-path="url(#p2d41e778c0)" d="M 378.497823 384.48 
L 378.497823 51.84 
L 382.784635 51.84 
L 382.784635 384.48 
z
" style="fill:#008000;opacity:0.04;"/>
   </g>
   <g id="patch_35">
    <path clip-path="url(#p2d41e778c0)" d="M 387.071447 384.48 
L 387.071447 51.84 
L 391.358259 51.84 
L 391.358259 384.48 
z
" style="fill:#008000;opacity:0.04;"/>
   </g>
   <g id="patch_36">
    <path clip-path="url(#p2d41e778c0)" d="M 395.64507 384.48 
L 395.64507 51.84 
L 399.931882 51.84 
L 399.931882 384.48 
z
" style="fill:#008000;opacity:0.04;"/>
   </g>
   <g id="patch_37">
    <path clip-path="url(#p2d41e778c0)" d="M 404.218694 384.48 
L 404.218694 51.84 
L 408.505506 51.84 
L 408.505506 384.48 
z
" style="fill:#008000;opacity:0.04;"/>
   </g>
   <g id="patch_38">
    <path clip-path="url(#p2d41e778c0)" d="M 404.218694 371.1744 
L 404.218694 51.84 
L 408.505506 51.84 
L 408.505506 371.1744 
z
" style="fill:#008000;opacity:0.5;"/>
   </g>
   <g id="patch_39">
    <path clip-path="url(#p2d41e778c0)" d="M 412.792318 384.48 
L 412.792318 51.84 
L 417.079129 51.84 
L 417.079129 384.48 
z
" style="fill:#008000;opacity:0.04;"/>
   </g>
   <g id="patch_40">
    <path clip-path="url(#p2d41e778c0)" d="M 417.079129 371.1744 
L 417.079129 51.84 
L 421.365941 51.84 
L 421.365941 371.1744 
z
" style="fill:#008000;opacity:0.5;"/>
   </g>
   <g id="patch_41">
    <path clip-path="url(#p2d41e778c0)" d="M 421.365941 384.48 
L 421.365941 51.84 
L 425.652753 51.84 
L 425.652753 384.48 
z
" style="fill:#008000;opacity:0.04;"/>
   </g>
   <g id="patch_42">
    <path clip-path="url(#p2d41e778c0)" d="M 421.365941 371.1744 
L 421.365941 51.84 
L 425.652753 51.84 
L 425.652753 371.1744 
z
" style="fill:#008000;opacity:0.5;"/>
   </g>
   <g id="patch_43">
    <path clip-path="url(#p2d41e778c0)" d="M 429.939565 384.48 
L 429.939565 51.84 
L 434.226376 51.84 
L 434.226376 384.48 
z
" style="fill:#008000;opacity:0.04;"/>
   </g>
   <g id="patch_44">
    <path clip-path="url(#p2d41e778c0)" d="M 438.513188 384.48 
L 438.513188 51.84 
L 442.8 51.84 
L 442.8 384.48 
z
" style="fill:#008000;opacity:0.04;"/>
   </g>
   <g id="patch_45">
    <path clip-path="url(#p2d41e778c0)" d="M 447.086812 384.48 
L 447.086812 51.84 
L 451.373624 51.84 
L 451.373624 384.48 
z
" style="fill:#008000;opacity:0.04;"/>
   </g>
   <g id="patch_46">
    <path clip-path="url(#p2d41e778c0)" d="M 455.660435 384.48 
L 455.660435 51.84 
L 459.947247 51.84 
L 459.947247 384.48 
z
" style="fill:#008000;opacity:0.04;"/>
   </g>
   <g id="patch_47">
    <path clip-path="url(#p2d41e778c0)" d="M 464.234059 384.48 
L 464.234059 51.84 
L 468.520871 51.84 
L 468.520871 384.48 
z
" style="fill:#008000;opacity:0.04;"/>
   </g>
   <g id="patch_48">
    <path clip-path="url(#p2d41e778c0)" d="M 472.807682 384.48 
L 472.807682 51.84 
L 477.094494 51.84 
L 477.094494 384.48 
z
" style="fill:#008000;opacity:0.04;"/>
   </g>
   <g id="patch_49">
    <path clip-path="url(#p2d41e778c0)" d="M 481.381306 384.48 
L 481.381306 51.84 
L 485.668118 51.84 
L 485.668118 384.48 
z
" style="fill:#008000;opacity:0.04;"/>
   </g>
   <g id="patch_50">
    <path clip-path="url(#p2d41e778c0)" d="M 489.95493 384.48 
L 489.95493 51.84 
L 494.241741 51.84 
L 494.241741 384.48 
z
" style="fill:#008000;opacity:0.04;"/>
   </g>
   <g id="patch_51">
    <path clip-path="url(#p2d41e778c0)" d="M 498.528553 384.48 
L 498.528553 51.84 
L 502.815365 51.84 
L 502.815365 384.48 
z
" style="fill:#008000;opacity:0.04;"/>
   </g>
   <g id="patch_52">
    <path clip-path="url(#p2d41e778c0)" d="M 507.102177 384.48 
L 507.102177 51.84 
L 511.388988 51.84 
L 511.388988 384.48 
z
" style="fill:#008000;opacity:0.04;"/>
   </g>
   <g id="patch_53">
    <path clip-path="url(#p2d41e778c0)" d="M 515.6758 384.48 
L 515.6758 51.84 
L 519.962612 51.84 
L 519.962612 384.48 
z
" style="fill:#008000;opacity:0.04;"/>
   </g>
   <g id="patch_54">
    <path clip-path="url(#p2d41e778c0)" d="M 519.962612 371.1744 
L 519.962612 51.84 
L 524.249424 51.84 
L 524.249424 371.1744 
z
" style="fill:#008000;opacity:0.5;"/>
   </g>
   <g id="patch_55">
    <path clip-path="url(#p2d41e778c0)" d="M 524.249424 384.48 
L 524.249424 51.84 
L 528.536236 51.84 
L 528.536236 384.48 
z
" style="fill:#008000;opacity:0.04;"/>
   </g>
   <g id="patch_56">
    <path clip-path="url(#p2d41e778c0)" d="M 532.823047 384.48 
L 532.823047 51.84 
L 537.109859 51.84 
L 537.109859 384.48 
z
" style="fill:#008000;opacity:0.04;"/>
   </g>
   <g id="patch_57">
    <path clip-path="url(#p2d41e778c0)" d="M 541.396671 384.48 
L 541.396671 51.84 
L 545.683483 51.84 
L 545.683483 384.48 
z
" style="fill:#008000;opacity:0.04;"/>
   </g>
   <g id="patch_58">
    <path clip-path="url(#p2d41e778c0)" d="M 549.970294 384.48 
L 549.970294 51.84 
L 554.257106 51.84 
L 554.257106 384.48 
z
" style="fill:#008000;opacity:0.04;"/>
   </g>
   <g id="patch_59">
    <path clip-path="url(#p2d41e778c0)" d="M 558.543918 384.48 
L 558.543918 51.84 
L 562.83073 51.84 
L 562.83073 384.48 
z
" style="fill:#008000;opacity:0.04;"/>
   </g>
   <g id="patch_60">
    <path clip-path="url(#p2d41e778c0)" d="M 567.117542 384.48 
L 567.117542 51.84 
L 571.404353 51.84 
L 571.404353 384.48 
z
" style="fill:#008000;opacity:0.04;"/>
   </g>
   <g id="patch_61">
    <path clip-path="url(#p2d41e778c0)" d="M 575.691165 384.48 
L 575.691165 51.84 
L 579.977977 51.84 
L 579.977977 384.48 
z
" style="fill:#008000;opacity:0.04;"/>
   </g>
   <g id="patch_62">
    <path clip-path="url(#p2d41e778c0)" d="M 584.264789 384.48 
L 584.264789 51.84 
L 588.551601 51.84 
L 588.551601 384.48 
z
" style="fill:#008000;opacity:0.04;"/>
   </g>
   <g id="patch_63">
    <path clip-path="url(#p2d41e778c0)" d="M 592.838412 384.48 
L 592.838412 51.84 
L 597.125224 51.84 
L 597.125224 384.48 
z
" style="fill:#008000;opacity:0.04;"/>
   </g>
   <g id="patch_64">
    <path clip-path="url(#p2d41e778c0)" d="M 601.412036 384.48 
L 601.412036 51.84 
L 605.698848 51.84 
L 605.698848 384.48 
z
" style="fill:#008000;opacity:0.04;"/>
   </g>
   <g id="patch_65">
    <path clip-path="url(#p2d41e778c0)" d="M 609.985659 384.48 
L 609.985659 51.84 
L 614.272471 51.84 
L 614.272471 384.48 
z
" style="fill:#008000;opacity:0.04;"/>
   </g>
   <g id="patch_66">
    <path clip-path="url(#p2d41e778c0)" d="M 618.559283 384.48 
L 618.559283 51.84 
L 622.846095 51.84 
L 622.846095 384.48 
z
" style="fill:#008000;opacity:0.04;"/>
   </g>
   <g id="patch_67">
    <path clip-path="url(#p2d41e778c0)" d="M 627.132907 384.48 
L 627.132907 51.84 
L 631.419718 51.84 
L 631.419718 384.48 
z
" style="fill:#008000;opacity:0.04;"/>
   </g>
   <g id="patch_68">
    <path clip-path="url(#p2d41e778c0)" d="M 635.70653 384.48 
L 635.70653 51.84 
L 639.993342 51.84 
L 639.993342 384.48 
z
" style="fill:#008000;opacity:0.04;"/>
   </g>
   <g id="patch_69">
    <path clip-path="url(#p2d41e778c0)" d="M 644.280154 384.48 
L 644.280154 51.84 
L 648.566965 51.84 
L 648.566965 384.48 
z
" style="fill:#008000;opacity:0.04;"/>
   </g>
   <g id="patch_70">
    <path clip-path="url(#p2d41e778c0)" d="M 652.853777 384.48 
L 652.853777 51.84 
L 657.140589 51.84 
L 657.140589 384.48 
z
" style="fill:#008000;opacity:0.04;"/>
   </g>
   <g id="patch_71">
    <path clip-path="url(#p2d41e778c0)" d="M 661.427401 384.48 
L 661.427401 51.84 
L 665.714213 51.84 
L 665.714213 384.48 
z
" style="fill:#008000;opacity:0.04;"/>
   </g>
   <g id="patch_72">
    <path clip-path="url(#p2d41e778c0)" d="M 670.001024 384.48 
L 670.001024 51.84 
L 674.287836 51.84 
L 674.287836 384.48 
z
" style="fill:#008000;opacity:0.04;"/>
   </g>
   <g id="patch_73">
    <path clip-path="url(#p2d41e778c0)" d="M 678.574648 384.48 
L 678.574648 51.84 
L 682.86146 51.84 
L 682.86146 384.48 
z
" style="fill:#008000;opacity:0.04;"/>
   </g>
   <g id="patch_74">
    <path clip-path="url(#p2d41e778c0)" d="M 687.148271 384.48 
L 687.148271 51.84 
L 691.435083 51.84 
L 691.435083 384.48 
z
" style="fill:#008000;opacity:0.04;"/>
   </g>
   <g id="patch_75">
    <path clip-path="url(#p2d41e778c0)" d="M 695.721895 384.48 
L 695.721895 51.84 
L 700.008707 51.84 
L 700.008707 384.48 
z
" style="fill:#008000;opacity:0.04;"/>
   </g>
   <g id="patch_76">
    <path clip-path="url(#p2d41e778c0)" d="M 704.295519 384.48 
L 704.295519 51.84 
L 708.58233 51.84 
L 708.58233 384.48 
z
" style="fill:#008000;opacity:0.04;"/>
   </g>
   <g id="patch_77">
    <path clip-path="url(#p2d41e778c0)" d="M 712.869142 384.48 
L 712.869142 51.84 
L 717.155954 51.84 
L 717.155954 384.48 
z
" style="fill:#008000;opacity:0.04;"/>
   </g>
   <g id="patch_78">
    <path clip-path="url(#p2d41e778c0)" d="M 721.442766 384.48 
L 721.442766 51.84 
L 725.729577 51.84 
L 725.729577 384.48 
z
" style="fill:#008000;opacity:0.04;"/>
   </g>
   <g id="patch_79">
    <path clip-path="url(#p2d41e778c0)" d="M 730.016389 384.48 
L 730.016389 51.84 
L 734.303201 51.84 
L 734.303201 384.48 
z
" style="fill:#008000;opacity:0.04;"/>
   </g>
   <g id="patch_80">
    <path clip-path="url(#p2d41e778c0)" d="M 738.590013 384.48 
L 738.590013 51.84 
L 742.876825 51.84 
L 742.876825 384.48 
z
" style="fill:#008000;opacity:0.04;"/>
   </g>
   <g id="matplotlib.axis_1">
    <g id="xtick_1">
     <g id="line2d_1">
      <defs>
       <path d="M 0 0 
L 0 3.5 
" id="m0ceaa6d3f1" style="stroke:#000000;stroke-width:0.8;"/>
      </defs>
      <g>
       <use style="stroke:#000000;stroke-width:0.8;" x="138.436364" xlink:href="#m0ceaa6d3f1" y="384.48"/>
      </g>
     </g>
     <g id="text_1">
      <!-- 0 -->
      <defs>
       <path d="M 31.78125 66.40625 
Q 24.171875 66.40625 20.328125 58.90625 
Q 16.5 51.421875 16.5 36.375 
Q 16.5 21.390625 20.328125 13.890625 
Q 24.171875 6.390625 31.78125 6.390625 
Q 39.453125 6.390625 43.28125 13.890625 
Q 47.125 21.390625 47.125 36.375 
Q 47.125 51.421875 43.28125 58.90625 
Q 39.453125 66.40625 31.78125 66.40625 
z
M 31.78125 74.21875 
Q 44.046875 74.21875 50.515625 64.515625 
Q 56.984375 54.828125 56.984375 36.375 
Q 56.984375 17.96875 50.515625 8.265625 
Q 44.046875 -1.421875 31.78125 -1.421875 
Q 19.53125 -1.421875 13.0625 8.265625 
Q 6.59375 17.96875 6.59375 36.375 
Q 6.59375 54.828125 13.0625 64.515625 
Q 19.53125 74.21875 31.78125 74.21875 
z
" id="DejaVuSans-48"/>
      </defs>
      <g transform="translate(135.255114 399.078438)scale(0.1 -0.1)">
       <use xlink:href="#DejaVuSans-48"/>
      </g>
     </g>
    </g>
    <g id="xtick_2">
     <g id="line2d_2">
      <g>
       <use style="stroke:#000000;stroke-width:0.8;" x="224.172599" xlink:href="#m0ceaa6d3f1" y="384.48"/>
      </g>
     </g>
     <g id="text_2">
      <!-- 200 -->
      <defs>
       <path d="M 19.1875 8.296875 
L 53.609375 8.296875 
L 53.609375 0 
L 7.328125 0 
L 7.328125 8.296875 
Q 12.9375 14.109375 22.625 23.890625 
Q 32.328125 33.6875 34.8125 36.53125 
Q 39.546875 41.84375 41.421875 45.53125 
Q 43.3125 49.21875 43.3125 52.78125 
Q 43.3125 58.59375 39.234375 62.25 
Q 35.15625 65.921875 28.609375 65.921875 
Q 23.96875 65.921875 18.8125 64.3125 
Q 13.671875 62.703125 7.8125 59.421875 
L 7.8125 69.390625 
Q 13.765625 71.78125 18.9375 73 
Q 24.125 74.21875 28.421875 74.21875 
Q 39.75 74.21875 46.484375 68.546875 
Q 53.21875 62.890625 53.21875 53.421875 
Q 53.21875 48.921875 51.53125 44.890625 
Q 49.859375 40.875 45.40625 35.40625 
Q 44.1875 33.984375 37.640625 27.21875 
Q 31.109375 20.453125 19.1875 8.296875 
z
" id="DejaVuSans-50"/>
      </defs>
      <g transform="translate(214.628849 399.078438)scale(0.1 -0.1)">
       <use xlink:href="#DejaVuSans-50"/>
       <use x="63.623047" xlink:href="#DejaVuSans-48"/>
       <use x="127.246094" xlink:href="#DejaVuSans-48"/>
      </g>
     </g>
    </g>
    <g id="xtick_3">
     <g id="line2d_3">
      <g>
       <use style="stroke:#000000;stroke-width:0.8;" x="309.908835" xlink:href="#m0ceaa6d3f1" y="384.48"/>
      </g>
     </g>
     <g id="text_3">
      <!-- 400 -->
      <defs>
       <path d="M 37.796875 64.3125 
L 12.890625 25.390625 
L 37.796875 25.390625 
z
M 35.203125 72.90625 
L 47.609375 72.90625 
L 47.609375 25.390625 
L 58.015625 25.390625 
L 58.015625 17.1875 
L 47.609375 17.1875 
L 47.609375 0 
L 37.796875 0 
L 37.796875 17.1875 
L 4.890625 17.1875 
L 4.890625 26.703125 
z
" id="DejaVuSans-52"/>
      </defs>
      <g transform="translate(300.365085 399.078438)scale(0.1 -0.1)">
       <use xlink:href="#DejaVuSans-52"/>
       <use x="63.623047" xlink:href="#DejaVuSans-48"/>
       <use x="127.246094" xlink:href="#DejaVuSans-48"/>
      </g>
     </g>
    </g>
    <g id="xtick_4">
     <g id="line2d_4">
      <g>
       <use style="stroke:#000000;stroke-width:0.8;" x="395.64507" xlink:href="#m0ceaa6d3f1" y="384.48"/>
      </g>
     </g>
     <g id="text_4">
      <!-- 600 -->
      <defs>
       <path d="M 33.015625 40.375 
Q 26.375 40.375 22.484375 35.828125 
Q 18.609375 31.296875 18.609375 23.390625 
Q 18.609375 15.53125 22.484375 10.953125 
Q 26.375 6.390625 33.015625 6.390625 
Q 39.65625 6.390625 43.53125 10.953125 
Q 47.40625 15.53125 47.40625 23.390625 
Q 47.40625 31.296875 43.53125 35.828125 
Q 39.65625 40.375 33.015625 40.375 
z
M 52.59375 71.296875 
L 52.59375 62.3125 
Q 48.875 64.0625 45.09375 64.984375 
Q 41.3125 65.921875 37.59375 65.921875 
Q 27.828125 65.921875 22.671875 59.328125 
Q 17.53125 52.734375 16.796875 39.40625 
Q 19.671875 43.65625 24.015625 45.921875 
Q 28.375 48.1875 33.59375 48.1875 
Q 44.578125 48.1875 50.953125 41.515625 
Q 57.328125 34.859375 57.328125 23.390625 
Q 57.328125 12.15625 50.6875 5.359375 
Q 44.046875 -1.421875 33.015625 -1.421875 
Q 20.359375 -1.421875 13.671875 8.265625 
Q 6.984375 17.96875 6.984375 36.375 
Q 6.984375 53.65625 15.1875 63.9375 
Q 23.390625 74.21875 37.203125 74.21875 
Q 40.921875 74.21875 44.703125 73.484375 
Q 48.484375 72.75 52.59375 71.296875 
z
" id="DejaVuSans-54"/>
      </defs>
      <g transform="translate(386.10132 399.078438)scale(0.1 -0.1)">
       <use xlink:href="#DejaVuSans-54"/>
       <use x="63.623047" xlink:href="#DejaVuSans-48"/>
       <use x="127.246094" xlink:href="#DejaVuSans-48"/>
      </g>
     </g>
    </g>
    <g id="xtick_5">
     <g id="line2d_5">
      <g>
       <use style="stroke:#000000;stroke-width:0.8;" x="481.381306" xlink:href="#m0ceaa6d3f1" y="384.48"/>
      </g>
     </g>
     <g id="text_5">
      <!-- 800 -->
      <defs>
       <path d="M 31.78125 34.625 
Q 24.75 34.625 20.71875 30.859375 
Q 16.703125 27.09375 16.703125 20.515625 
Q 16.703125 13.921875 20.71875 10.15625 
Q 24.75 6.390625 31.78125 6.390625 
Q 38.8125 6.390625 42.859375 10.171875 
Q 46.921875 13.96875 46.921875 20.515625 
Q 46.921875 27.09375 42.890625 30.859375 
Q 38.875 34.625 31.78125 34.625 
z
M 21.921875 38.8125 
Q 15.578125 40.375 12.03125 44.71875 
Q 8.5 49.078125 8.5 55.328125 
Q 8.5 64.0625 14.71875 69.140625 
Q 20.953125 74.21875 31.78125 74.21875 
Q 42.671875 74.21875 48.875 69.140625 
Q 55.078125 64.0625 55.078125 55.328125 
Q 55.078125 49.078125 51.53125 44.71875 
Q 48 40.375 41.703125 38.8125 
Q 48.828125 37.15625 52.796875 32.3125 
Q 56.78125 27.484375 56.78125 20.515625 
Q 56.78125 9.90625 50.3125 4.234375 
Q 43.84375 -1.421875 31.78125 -1.421875 
Q 19.734375 -1.421875 13.25 4.234375 
Q 6.78125 9.90625 6.78125 20.515625 
Q 6.78125 27.484375 10.78125 32.3125 
Q 14.796875 37.15625 21.921875 38.8125 
z
M 18.3125 54.390625 
Q 18.3125 48.734375 21.84375 45.5625 
Q 25.390625 42.390625 31.78125 42.390625 
Q 38.140625 42.390625 41.71875 45.5625 
Q 45.3125 48.734375 45.3125 54.390625 
Q 45.3125 60.0625 41.71875 63.234375 
Q 38.140625 66.40625 31.78125 66.40625 
Q 25.390625 66.40625 21.84375 63.234375 
Q 18.3125 60.0625 18.3125 54.390625 
z
" id="DejaVuSans-56"/>
      </defs>
      <g transform="translate(471.837556 399.078438)scale(0.1 -0.1)">
       <use xlink:href="#DejaVuSans-56"/>
       <use x="63.623047" xlink:href="#DejaVuSans-48"/>
       <use x="127.246094" xlink:href="#DejaVuSans-48"/>
      </g>
     </g>
    </g>
    <g id="xtick_6">
     <g id="line2d_6">
      <g>
       <use style="stroke:#000000;stroke-width:0.8;" x="567.117542" xlink:href="#m0ceaa6d3f1" y="384.48"/>
      </g>
     </g>
     <g id="text_6">
      <!-- 1000 -->
      <defs>
       <path d="M 12.40625 8.296875 
L 28.515625 8.296875 
L 28.515625 63.921875 
L 10.984375 60.40625 
L 10.984375 69.390625 
L 28.421875 72.90625 
L 38.28125 72.90625 
L 38.28125 8.296875 
L 54.390625 8.296875 
L 54.390625 0 
L 12.40625 0 
z
" id="DejaVuSans-49"/>
      </defs>
      <g transform="translate(554.392542 399.078438)scale(0.1 -0.1)">
       <use xlink:href="#DejaVuSans-49"/>
       <use x="63.623047" xlink:href="#DejaVuSans-48"/>
       <use x="127.246094" xlink:href="#DejaVuSans-48"/>
       <use x="190.869141" xlink:href="#DejaVuSans-48"/>
      </g>
     </g>
    </g>
    <g id="xtick_7">
     <g id="line2d_7">
      <g>
       <use style="stroke:#000000;stroke-width:0.8;" x="652.853777" xlink:href="#m0ceaa6d3f1" y="384.48"/>
      </g>
     </g>
     <g id="text_7">
      <!-- 1200 -->
      <g transform="translate(640.128777 399.078438)scale(0.1 -0.1)">
       <use xlink:href="#DejaVuSans-49"/>
       <use x="63.623047" xlink:href="#DejaVuSans-50"/>
       <use x="127.246094" xlink:href="#DejaVuSans-48"/>
       <use x="190.869141" xlink:href="#DejaVuSans-48"/>
      </g>
     </g>
    </g>
    <g id="xtick_8">
     <g id="line2d_8">
      <g>
       <use style="stroke:#000000;stroke-width:0.8;" x="738.590013" xlink:href="#m0ceaa6d3f1" y="384.48"/>
      </g>
     </g>
     <g id="text_8">
      <!-- 1400 -->
      <g transform="translate(725.865013 399.078438)scale(0.1 -0.1)">
       <use xlink:href="#DejaVuSans-49"/>
       <use x="63.623047" xlink:href="#DejaVuSans-52"/>
       <use x="127.246094" xlink:href="#DejaVuSans-48"/>
       <use x="190.869141" xlink:href="#DejaVuSans-48"/>
      </g>
     </g>
    </g>
    <g id="text_9">
     <!-- Timestamp -->
     <defs>
      <path d="M -0.296875 72.90625 
L 61.375 72.90625 
L 61.375 64.59375 
L 35.5 64.59375 
L 35.5 0 
L 25.59375 0 
L 25.59375 64.59375 
L -0.296875 64.59375 
z
" id="DejaVuSans-84"/>
      <path d="M 9.421875 54.6875 
L 18.40625 54.6875 
L 18.40625 0 
L 9.421875 0 
z
M 9.421875 75.984375 
L 18.40625 75.984375 
L 18.40625 64.59375 
L 9.421875 64.59375 
z
" id="DejaVuSans-105"/>
      <path d="M 52 44.1875 
Q 55.375 50.25 60.0625 53.125 
Q 64.75 56 71.09375 56 
Q 79.640625 56 84.28125 50.015625 
Q 88.921875 44.046875 88.921875 33.015625 
L 88.921875 0 
L 79.890625 0 
L 79.890625 32.71875 
Q 79.890625 40.578125 77.09375 44.375 
Q 74.3125 48.1875 68.609375 48.1875 
Q 61.625 48.1875 57.5625 43.546875 
Q 53.515625 38.921875 53.515625 30.90625 
L 53.515625 0 
L 44.484375 0 
L 44.484375 32.71875 
Q 44.484375 40.625 41.703125 44.40625 
Q 38.921875 48.1875 33.109375 48.1875 
Q 26.21875 48.1875 22.15625 43.53125 
Q 18.109375 38.875 18.109375 30.90625 
L 18.109375 0 
L 9.078125 0 
L 9.078125 54.6875 
L 18.109375 54.6875 
L 18.109375 46.1875 
Q 21.1875 51.21875 25.484375 53.609375 
Q 29.78125 56 35.6875 56 
Q 41.65625 56 45.828125 52.96875 
Q 50 49.953125 52 44.1875 
z
" id="DejaVuSans-109"/>
      <path d="M 56.203125 29.59375 
L 56.203125 25.203125 
L 14.890625 25.203125 
Q 15.484375 15.921875 20.484375 11.0625 
Q 25.484375 6.203125 34.421875 6.203125 
Q 39.59375 6.203125 44.453125 7.46875 
Q 49.3125 8.734375 54.109375 11.28125 
L 54.109375 2.78125 
Q 49.265625 0.734375 44.1875 -0.34375 
Q 39.109375 -1.421875 33.890625 -1.421875 
Q 20.796875 -1.421875 13.15625 6.1875 
Q 5.515625 13.8125 5.515625 26.8125 
Q 5.515625 40.234375 12.765625 48.109375 
Q 20.015625 56 32.328125 56 
Q 43.359375 56 49.78125 48.890625 
Q 56.203125 41.796875 56.203125 29.59375 
z
M 47.21875 32.234375 
Q 47.125 39.59375 43.09375 43.984375 
Q 39.0625 48.390625 32.421875 48.390625 
Q 24.90625 48.390625 20.390625 44.140625 
Q 15.875 39.890625 15.1875 32.171875 
z
" id="DejaVuSans-101"/>
      <path d="M 44.28125 53.078125 
L 44.28125 44.578125 
Q 40.484375 46.53125 36.375 47.5 
Q 32.28125 48.484375 27.875 48.484375 
Q 21.1875 48.484375 17.84375 46.4375 
Q 14.5 44.390625 14.5 40.28125 
Q 14.5 37.15625 16.890625 35.375 
Q 19.28125 33.59375 26.515625 31.984375 
L 29.59375 31.296875 
Q 39.15625 29.25 43.1875 25.515625 
Q 47.21875 21.78125 47.21875 15.09375 
Q 47.21875 7.46875 41.1875 3.015625 
Q 35.15625 -1.421875 24.609375 -1.421875 
Q 20.21875 -1.421875 15.453125 -0.5625 
Q 10.6875 0.296875 5.421875 2 
L 5.421875 11.28125 
Q 10.40625 8.6875 15.234375 7.390625 
Q 20.0625 6.109375 24.8125 6.109375 
Q 31.15625 6.109375 34.5625 8.28125 
Q 37.984375 10.453125 37.984375 14.40625 
Q 37.984375 18.0625 35.515625 20.015625 
Q 33.0625 21.96875 24.703125 23.78125 
L 21.578125 24.515625 
Q 13.234375 26.265625 9.515625 29.90625 
Q 5.8125 33.546875 5.8125 39.890625 
Q 5.8125 47.609375 11.28125 51.796875 
Q 16.75 56 26.8125 56 
Q 31.78125 56 36.171875 55.265625 
Q 40.578125 54.546875 44.28125 53.078125 
z
" id="DejaVuSans-115"/>
      <path d="M 18.3125 70.21875 
L 18.3125 54.6875 
L 36.8125 54.6875 
L 36.8125 47.703125 
L 18.3125 47.703125 
L 18.3125 18.015625 
Q 18.3125 11.328125 20.140625 9.421875 
Q 21.96875 7.515625 27.59375 7.515625 
L 36.8125 7.515625 
L 36.8125 0 
L 27.59375 0 
Q 17.1875 0 13.234375 3.875 
Q 9.28125 7.765625 9.28125 18.015625 
L 9.28125 47.703125 
L 2.6875 47.703125 
L 2.6875 54.6875 
L 9.28125 54.6875 
L 9.28125 70.21875 
z
" id="DejaVuSans-116"/>
      <path d="M 34.28125 27.484375 
Q 23.390625 27.484375 19.1875 25 
Q 14.984375 22.515625 14.984375 16.5 
Q 14.984375 11.71875 18.140625 8.90625 
Q 21.296875 6.109375 26.703125 6.109375 
Q 34.1875 6.109375 38.703125 11.40625 
Q 43.21875 16.703125 43.21875 25.484375 
L 43.21875 27.484375 
z
M 52.203125 31.203125 
L 52.203125 0 
L 43.21875 0 
L 43.21875 8.296875 
Q 40.140625 3.328125 35.546875 0.953125 
Q 30.953125 -1.421875 24.3125 -1.421875 
Q 15.921875 -1.421875 10.953125 3.296875 
Q 6 8.015625 6 15.921875 
Q 6 25.140625 12.171875 29.828125 
Q 18.359375 34.515625 30.609375 34.515625 
L 43.21875 34.515625 
L 43.21875 35.40625 
Q 43.21875 41.609375 39.140625 45 
Q 35.0625 48.390625 27.6875 48.390625 
Q 23 48.390625 18.546875 47.265625 
Q 14.109375 46.140625 10.015625 43.890625 
L 10.015625 52.203125 
Q 14.9375 54.109375 19.578125 55.046875 
Q 24.21875 56 28.609375 56 
Q 40.484375 56 46.34375 49.84375 
Q 52.203125 43.703125 52.203125 31.203125 
z
" id="DejaVuSans-97"/>
      <path d="M 18.109375 8.203125 
L 18.109375 -20.796875 
L 9.078125 -20.796875 
L 9.078125 54.6875 
L 18.109375 54.6875 
L 18.109375 46.390625 
Q 20.953125 51.265625 25.265625 53.625 
Q 29.59375 56 35.59375 56 
Q 45.5625 56 51.78125 48.09375 
Q 58.015625 40.1875 58.015625 27.296875 
Q 58.015625 14.40625 51.78125 6.484375 
Q 45.5625 -1.421875 35.59375 -1.421875 
Q 29.59375 -1.421875 25.265625 0.953125 
Q 20.953125 3.328125 18.109375 8.203125 
z
M 48.6875 27.296875 
Q 48.6875 37.203125 44.609375 42.84375 
Q 40.53125 48.484375 33.40625 48.484375 
Q 26.265625 48.484375 22.1875 42.84375 
Q 18.109375 37.203125 18.109375 27.296875 
Q 18.109375 17.390625 22.1875 11.75 
Q 26.265625 6.109375 33.40625 6.109375 
Q 40.53125 6.109375 44.609375 11.75 
Q 48.6875 17.390625 48.6875 27.296875 
z
" id="DejaVuSans-112"/>
     </defs>
     <g transform="translate(414.739062 412.756563)scale(0.1 -0.1)">
      <use xlink:href="#DejaVuSans-84"/>
      <use x="61.037109" xlink:href="#DejaVuSans-105"/>
      <use x="88.820312" xlink:href="#DejaVuSans-109"/>
      <use x="186.232422" xlink:href="#DejaVuSans-101"/>
      <use x="247.755859" xlink:href="#DejaVuSans-115"/>
      <use x="299.855469" xlink:href="#DejaVuSans-116"/>
      <use x="339.064453" xlink:href="#DejaVuSans-97"/>
      <use x="400.34375" xlink:href="#DejaVuSans-109"/>
      <use x="497.755859" xlink:href="#DejaVuSans-112"/>
     </g>
    </g>
   </g>
   <g id="matplotlib.axis_2">
    <g id="ytick_1">
     <g id="line2d_9">
      <defs>
       <path d="M 0 0 
L -3.5 0 
" id="mf1b9b813f3" style="stroke:#000000;stroke-width:0.8;"/>
      </defs>
      <g>
       <use style="stroke:#000000;stroke-width:0.8;" x="108" xlink:href="#mf1b9b813f3" y="369.478593"/>
      </g>
     </g>
     <g id="text_10">
      <!-- 0 -->
      <g transform="translate(94.6375 373.277812)scale(0.1 -0.1)">
       <use xlink:href="#DejaVuSans-48"/>
      </g>
     </g>
    </g>
    <g id="ytick_2">
     <g id="line2d_10">
      <g>
       <use style="stroke:#000000;stroke-width:0.8;" x="108" xlink:href="#mf1b9b813f3" y="316.312734"/>
      </g>
     </g>
     <g id="text_11">
      <!-- 20000 -->
      <g transform="translate(69.1875 320.111953)scale(0.1 -0.1)">
       <use xlink:href="#DejaVuSans-50"/>
       <use x="63.623047" xlink:href="#DejaVuSans-48"/>
       <use x="127.246094" xlink:href="#DejaVuSans-48"/>
       <use x="190.869141" xlink:href="#DejaVuSans-48"/>
       <use x="254.492188" xlink:href="#DejaVuSans-48"/>
      </g>
     </g>
    </g>
    <g id="ytick_3">
     <g id="line2d_11">
      <g>
       <use style="stroke:#000000;stroke-width:0.8;" x="108" xlink:href="#mf1b9b813f3" y="263.146875"/>
      </g>
     </g>
     <g id="text_12">
      <!-- 40000 -->
      <g transform="translate(69.1875 266.946094)scale(0.1 -0.1)">
       <use xlink:href="#DejaVuSans-52"/>
       <use x="63.623047" xlink:href="#DejaVuSans-48"/>
       <use x="127.246094" xlink:href="#DejaVuSans-48"/>
       <use x="190.869141" xlink:href="#DejaVuSans-48"/>
       <use x="254.492188" xlink:href="#DejaVuSans-48"/>
      </g>
     </g>
    </g>
    <g id="ytick_4">
     <g id="line2d_12">
      <g>
       <use style="stroke:#000000;stroke-width:0.8;" x="108" xlink:href="#mf1b9b813f3" y="209.981016"/>
      </g>
     </g>
     <g id="text_13">
      <!-- 60000 -->
      <g transform="translate(69.1875 213.780235)scale(0.1 -0.1)">
       <use xlink:href="#DejaVuSans-54"/>
       <use x="63.623047" xlink:href="#DejaVuSans-48"/>
       <use x="127.246094" xlink:href="#DejaVuSans-48"/>
       <use x="190.869141" xlink:href="#DejaVuSans-48"/>
       <use x="254.492188" xlink:href="#DejaVuSans-48"/>
      </g>
     </g>
    </g>
    <g id="ytick_5">
     <g id="line2d_13">
      <g>
       <use style="stroke:#000000;stroke-width:0.8;" x="108" xlink:href="#mf1b9b813f3" y="156.815157"/>
      </g>
     </g>
     <g id="text_14">
      <!-- 80000 -->
      <g transform="translate(69.1875 160.614376)scale(0.1 -0.1)">
       <use xlink:href="#DejaVuSans-56"/>
       <use x="63.623047" xlink:href="#DejaVuSans-48"/>
       <use x="127.246094" xlink:href="#DejaVuSans-48"/>
       <use x="190.869141" xlink:href="#DejaVuSans-48"/>
       <use x="254.492188" xlink:href="#DejaVuSans-48"/>
      </g>
     </g>
    </g>
    <g id="ytick_6">
     <g id="line2d_14">
      <g>
       <use style="stroke:#000000;stroke-width:0.8;" x="108" xlink:href="#mf1b9b813f3" y="103.649298"/>
      </g>
     </g>
     <g id="text_15">
      <!-- 100000 -->
      <g transform="translate(62.825 107.448516)scale(0.1 -0.1)">
       <use xlink:href="#DejaVuSans-49"/>
       <use x="63.623047" xlink:href="#DejaVuSans-48"/>
       <use x="127.246094" xlink:href="#DejaVuSans-48"/>
       <use x="190.869141" xlink:href="#DejaVuSans-48"/>
       <use x="254.492188" xlink:href="#DejaVuSans-48"/>
       <use x="318.115234" xlink:href="#DejaVuSans-48"/>
      </g>
     </g>
    </g>
    <g id="text_16">
     <!-- Value -->
     <defs>
      <path d="M 28.609375 0 
L 0.78125 72.90625 
L 11.078125 72.90625 
L 34.1875 11.53125 
L 57.328125 72.90625 
L 67.578125 72.90625 
L 39.796875 0 
z
" id="DejaVuSans-86"/>
      <path d="M 9.421875 75.984375 
L 18.40625 75.984375 
L 18.40625 0 
L 9.421875 0 
z
" id="DejaVuSans-108"/>
      <path d="M 8.5 21.578125 
L 8.5 54.6875 
L 17.484375 54.6875 
L 17.484375 21.921875 
Q 17.484375 14.15625 20.5 10.265625 
Q 23.53125 6.390625 29.59375 6.390625 
Q 36.859375 6.390625 41.078125 11.03125 
Q 45.3125 15.671875 45.3125 23.6875 
L 45.3125 54.6875 
L 54.296875 54.6875 
L 54.296875 0 
L 45.3125 0 
L 45.3125 8.40625 
Q 42.046875 3.421875 37.71875 1 
Q 33.40625 -1.421875 27.6875 -1.421875 
Q 18.265625 -1.421875 13.375 4.4375 
Q 8.5 10.296875 8.5 21.578125 
z
M 31.109375 56 
z
" id="DejaVuSans-117"/>
     </defs>
     <g transform="translate(56.745312 232.273281)rotate(-90)scale(0.1 -0.1)">
      <use xlink:href="#DejaVuSans-86"/>
      <use x="68.298828" xlink:href="#DejaVuSans-97"/>
      <use x="129.578125" xlink:href="#DejaVuSans-108"/>
      <use x="157.361328" xlink:href="#DejaVuSans-117"/>
      <use x="220.740234" xlink:href="#DejaVuSans-101"/>
     </g>
    </g>
   </g>
   <g id="line2d_15">
    <path clip-path="url(#p2d41e778c0)" d="M 138.436364 368.808099 
L 138.865045 369.36 
L 139.293726 368.436757 
L 139.722407 368.29243 
L 140.151088 368.512036 
L 140.57977 369.230331 
L 141.865813 368.023339 
L 142.294494 366.7582 
L 143.151857 367.876425 
L 143.580538 367.866346 
L 144.009219 367.308025 
L 144.866581 367.028239 
L 145.295262 366.559531 
L 145.723944 366.913089 
L 146.152625 366.143559 
L 146.581306 366.738626 
L 147.438668 365.675138 
L 147.86735 365.62227 
L 148.296031 365.154138 
L 148.724712 365.383124 
L 149.582074 364.540608 
L 150.010755 365.187831 
L 150.439437 365.298021 
L 150.868118 364.53396 
L 151.72548 364.486657 
L 152.154161 364.280453 
L 152.582843 364.223198 
L 153.011524 363.442998 
L 153.440205 363.096043 
L 153.868886 363.015919 
L 154.297567 363.510393 
L 154.726248 362.601474 
L 155.15493 363.141581 
L 155.583611 362.066777 
L 156.440973 362.7774 
L 157.298335 362.811959 
L 157.727017 362.622794 
L 158.155698 362.707146 
L 158.584379 361.329636 
L 159.01306 361.337387 
L 159.441741 361.680399 
L 159.870423 361.31876 
L 160.299104 361.474887 
L 160.727785 360.059051 
L 161.156466 361.396789 
L 161.585147 360.927918 
L 162.44251 360.361285 
L 162.871191 360.592442 
L 163.299872 361.397878 
L 163.728553 360.835704 
L 164.157234 359.97394 
L 164.585915 360.019103 
L 165.014597 360.320128 
L 165.443278 359.82504 
L 165.871959 360.024101 
L 166.30064 359.42618 
L 166.729321 360.068193 
L 167.158003 359.139554 
L 168.444046 358.962353 
L 168.872727 358.745367 
L 169.301408 359.050106 
L 170.587452 357.941631 
L 171.016133 358.275351 
L 171.444814 358.294314 
L 172.302177 358.698854 
L 172.730858 358.312211 
L 173.159539 357.285795 
L 173.58822 357.412326 
L 174.016901 357.77203 
L 174.874264 357.684966 
L 175.302945 356.954643 
L 175.731626 357.447993 
L 176.160307 356.667936 
L 176.588988 356.862623 
L 177.01767 356.4851 
L 177.446351 357.393267 
L 177.875032 356.914522 
L 178.303713 357.242186 
L 178.732394 356.49559 
L 179.589757 356.748837 
L 180.018438 355.887784 
L 180.447119 356.375966 
L 180.8758 355.958884 
L 181.304481 355.989642 
L 181.733163 356.632665 
L 182.161844 356.495428 
L 182.590525 356.131418 
L 183.019206 356.604911 
L 183.447887 355.768692 
L 183.876569 356.554095 
L 184.30525 355.175353 
L 184.733931 356.085403 
L 185.162612 355.03971 
L 185.591293 355.936154 
L 186.019974 356.137833 
L 186.448656 355.632735 
L 186.877337 355.581361 
L 187.306018 356.308333 
L 187.734699 355.017429 
L 188.16338 355.958329 
L 188.592061 355.250889 
L 189.020743 355.133658 
L 189.878105 355.325957 
L 190.306786 355.140311 
L 190.735467 355.675165 
L 191.164149 355.514651 
L 191.59283 355.616925 
L 192.021511 354.354409 
L 192.450192 354.354729 
L 193.307554 355.524465 
L 194.164917 354.208604 
L 194.593598 355.079041 
L 195.022279 354.467889 
L 195.45096 355.241864 
L 195.879641 354.454962 
L 196.308323 355.172711 
L 196.737004 355.268646 
L 197.594366 355.04703 
L 198.023047 355.037935 
L 198.451729 354.259861 
L 199.737772 355.012227 
L 200.595134 354.817214 
L 201.023816 354.952694 
L 201.881178 354.181274 
L 202.309859 354.90877 
L 202.73854 353.680526 
L 203.167222 354.921918 
L 203.595903 354.346793 
L 204.024584 353.203015 
L 204.881946 354.349835 
L 205.310627 354.606379 
L 205.739309 353.925688 
L 206.596671 354.316314 
L 207.025352 353.979079 
L 207.454033 354.323373 
L 207.882714 352.870139 
L 208.740077 353.678911 
L 209.168758 353.686112 
L 209.597439 354.233938 
L 210.02612 353.561106 
L 210.454802 354.098535 
L 210.883483 354.374328 
L 211.312164 353.035761 
L 211.740845 354.289418 
L 212.169526 353.975827 
L 213.026889 354.221255 
L 213.45557 353.492107 
L 213.884251 354.430109 
L 214.312932 353.803866 
L 214.741613 353.943261 
L 215.170294 354.285617 
L 215.598976 353.656584 
L 216.456338 353.833625 
L 216.885019 353.087342 
L 217.742382 353.510105 
L 218.171063 353.364552 
L 218.599744 353.73676 
L 219.028425 353.458229 
L 219.457106 352.82996 
L 219.885787 353.301997 
L 220.314469 353.183366 
L 220.74315 352.298138 
L 221.171831 353.499098 
L 221.600512 352.702214 
L 222.029193 352.283826 
L 222.457875 353.539227 
L 222.886556 353.004225 
L 223.315237 353.145194 
L 223.743918 353.145724 
L 224.172599 353.35153 
L 224.60128 353.236043 
L 225.029962 352.202986 
L 225.458643 352.460285 
L 225.887324 352.326708 
L 226.316005 351.919243 
L 226.744686 352.739969 
L 227.173367 352.148174 
L 227.602049 352.491178 
L 228.03073 352.634546 
L 228.459411 351.927439 
L 229.316773 352.71275 
L 229.745455 352.274386 
L 230.174136 351.422898 
L 230.602817 351.505013 
L 231.031498 352.634385 
L 231.460179 351.861115 
L 231.88886 351.450206 
L 232.317542 352.503741 
L 232.746223 351.053512 
L 233.174904 351.867115 
L 233.603585 351.41982 
L 234.032266 351.558897 
L 234.460948 350.677062 
L 234.889629 351.985652 
L 235.31831 351.300595 
L 235.746991 351.642029 
L 236.604353 349.972669 
L 237.033035 351.588605 
L 237.461716 350.840894 
L 237.890397 350.791003 
L 238.319078 349.933045 
L 238.747759 350.988398 
L 239.605122 349.582826 
L 240.033803 350.376578 
L 240.462484 350.481323 
L 241.319846 349.732873 
L 241.748528 350.319434 
L 242.177209 349.021181 
L 242.60589 349.647648 
L 243.034571 350.864241 
L 243.463252 349.939142 
L 243.891933 348.623024 
L 244.320615 349.659723 
L 244.749296 349.149572 
L 245.177977 348.97035 
L 245.606658 349.600429 
L 246.035339 348.534885 
L 246.46402 348.448451 
L 246.892702 347.66891 
L 247.750064 348.24061 
L 248.178745 348.191775 
L 248.607426 347.753856 
L 249.036108 348.306491 
L 249.464789 347.727572 
L 250.322151 347.26611 
L 250.750832 347.90037 
L 251.179513 346.587148 
L 251.608195 346.798597 
L 252.036876 345.842712 
L 252.465557 347.704871 
L 252.894238 346.975965 
L 253.322919 347.348129 
L 253.751601 346.619861 
L 254.180282 346.146046 
L 254.608963 345.370468 
L 255.037644 346.202182 
L 255.466325 346.400585 
L 256.323688 345.280345 
L 256.752369 345.331817 
L 257.18105 344.666004 
L 258.038412 345.713089 
L 258.467093 344.379133 
L 258.895775 345.164477 
L 259.324456 344.223931 
L 260.181818 344.025514 
L 260.610499 343.253056 
L 261.039181 343.972771 
L 261.467862 344.318018 
L 261.896543 343.532542 
L 262.325224 343.506843 
L 263.182586 342.336125 
L 263.611268 343.739033 
L 264.039949 342.851426 
L 264.897311 342.176776 
L 265.325992 342.578742 
L 265.754673 341.919223 
L 266.183355 341.757625 
L 266.612036 341.770362 
L 267.040717 341.65456 
L 267.469398 340.764068 
L 267.898079 340.956843 
L 268.326761 340.205854 
L 268.755442 341.049108 
L 269.184123 341.323835 
L 270.041485 340.375516 
L 270.898848 340.267681 
L 271.327529 340.627471 
L 271.75621 340.102813 
L 272.184891 340.068456 
L 272.613572 339.259634 
L 273.042254 339.072614 
L 273.470935 338.358991 
L 273.899616 339.038156 
L 274.328297 338.286778 
L 274.756978 338.765299 
L 275.185659 339.065694 
L 275.614341 338.00928 
L 276.043022 338.272833 
L 276.471703 338.246054 
L 276.900384 338.040848 
L 277.329065 337.032075 
L 277.757746 336.643226 
L 278.186428 336.731039 
L 279.04379 337.447138 
L 279.472471 336.582576 
L 279.901152 336.009961 
L 280.329834 335.968199 
L 280.758515 336.039088 
L 281.187196 335.914725 
L 281.615877 336.233402 
L 282.044558 335.482895 
L 282.473239 335.494541 
L 282.901921 335.324861 
L 283.330602 335.284029 
L 283.759283 335.555723 
L 284.187964 335.136536 
L 284.616645 334.357321 
L 285.045327 334.527028 
L 285.902689 334.310012 
L 286.33137 333.430128 
L 286.760051 333.900678 
L 287.188732 333.638934 
L 287.617414 333.528374 
L 288.046095 333.878942 
L 288.474776 333.317095 
L 288.903457 332.548616 
L 289.332138 332.773046 
L 289.760819 333.490006 
L 290.189501 332.644468 
L 290.618182 332.275803 
L 291.046863 332.416113 
L 291.475544 331.879051 
L 292.332907 332.421587 
L 292.761588 331.468223 
L 293.190269 331.537656 
L 294.047631 330.901817 
L 294.476312 331.146051 
L 294.904994 331.83858 
L 295.333675 330.906027 
L 295.762356 331.569837 
L 296.619718 330.124738 
L 297.048399 331.208697 
L 297.477081 330.247813 
L 297.905762 330.443741 
L 298.334443 330.176221 
L 298.763124 329.469146 
L 299.191805 329.580554 
L 299.620487 329.075755 
L 300.049168 330.056957 
L 301.335211 329.242194 
L 301.763892 329.521946 
L 302.192574 329.323962 
L 302.621255 329.280423 
L 303.049936 328.450307 
L 303.478617 328.364573 
L 303.907298 328.08793 
L 304.33598 327.18658 
L 304.764661 328.371773 
L 305.193342 327.873302 
L 305.622023 326.596202 
L 306.050704 327.723969 
L 306.479385 327.909436 
L 306.908067 328.220841 
L 307.336748 327.929472 
L 307.765429 328.352323 
L 308.19411 328.20461 
L 308.622791 327.580591 
L 309.051472 327.15947 
L 309.908835 327.302526 
L 310.337516 327.864719 
L 310.766197 326.652097 
L 311.194878 326.65825 
L 311.62356 326.049206 
L 312.052241 327.54618 
L 312.909603 325.747782 
L 313.338284 326.413157 
L 313.766965 325.760911 
L 314.195647 326.054613 
L 314.624328 326.180484 
L 315.053009 325.755244 
L 315.48169 326.919091 
L 315.910371 326.186043 
L 316.767734 325.288094 
L 317.625096 325.681219 
L 318.053777 325.188572 
L 318.91114 326.088881 
L 319.339821 325.539503 
L 319.768502 325.545346 
L 320.197183 325.246852 
L 320.625864 325.533531 
L 321.483227 324.317717 
L 321.911908 326.020366 
L 322.340589 324.888255 
L 322.76927 325.433528 
L 323.197951 325.343336 
L 323.626633 325.836379 
L 324.055314 325.083188 
L 324.483995 324.768805 
L 324.912676 325.5263 
L 325.341357 323.953972 
L 325.770038 325.139124 
L 326.19872 325.789356 
L 327.056082 323.606522 
L 327.484763 323.912391 
L 328.770807 324.320759 
L 330.05685 325.440827 
L 330.485531 324.934251 
L 330.914213 325.17768 
L 331.342894 324.785889 
L 331.771575 323.975843 
L 332.200256 324.679954 
L 332.628937 324.948553 
L 333.057618 324.663173 
L 333.4863 324.974796 
L 333.914981 323.801507 
L 334.343662 324.823117 
L 334.772343 324.180646 
L 336.058387 323.178306 
L 336.487068 324.81502 
L 336.915749 323.570596 
L 337.34443 324.220143 
L 337.773111 324.025807 
L 338.201793 323.262566 
L 338.630474 324.173531 
L 339.059155 323.565939 
L 339.487836 323.894647 
L 339.916517 324.052387 
L 340.345198 323.165957 
L 340.77388 323.886939 
L 341.202561 323.859145 
L 341.631242 323.423705 
L 342.059923 323.301931 
L 342.488604 324.115317 
L 342.917286 323.151808 
L 343.345967 323.939635 
L 343.774648 324.030855 
L 344.203329 324.665624 
L 344.63201 323.648143 
L 345.060691 323.414655 
L 345.489373 323.856805 
L 345.918054 322.946761 
L 346.775416 323.417417 
L 347.204097 322.61628 
L 347.632778 324.095739 
L 348.06146 323.257292 
L 348.490141 322.976604 
L 348.918822 323.786906 
L 349.347503 323.424124 
L 349.776184 323.305132 
L 350.204866 323.453839 
L 350.633547 323.191094 
L 351.062228 323.263689 
L 351.490909 323.541208 
L 351.91959 322.78646 
L 352.348271 323.363291 
L 352.776953 323.35383 
L 353.634315 322.231969 
L 354.062996 323.768739 
L 354.491677 322.842867 
L 354.920359 322.716145 
L 355.34904 322.846502 
L 355.777721 321.658095 
L 356.206402 322.211673 
L 356.635083 322.986378 
L 357.063764 322.98691 
L 357.492446 322.24562 
L 357.921127 322.160504 
L 358.349808 322.247669 
L 358.778489 322.804763 
L 359.20717 322.239018 
L 359.635851 322.472067 
L 360.064533 321.548206 
L 360.493214 322.728586 
L 360.921895 322.274842 
L 361.350576 322.704179 
L 361.779257 322.632078 
L 362.207939 322.129874 
L 363.065301 322.247172 
L 363.493982 321.258406 
L 363.922663 321.864281 
L 364.351344 321.244534 
L 364.780026 322.228633 
L 365.208707 321.831572 
L 365.637388 322.294102 
L 366.066069 320.935599 
L 366.49475 321.969998 
L 366.923431 320.785721 
L 367.352113 321.837026 
L 367.780794 321.358629 
L 368.209475 322.550445 
L 368.638156 321.282141 
L 369.066837 321.088238 
L 369.495519 321.890897 
L 369.9242 321.071548 
L 370.352881 321.019031 
L 370.781562 321.616984 
L 371.210243 320.290156 
L 371.638924 321.166361 
L 372.496287 320.186985 
L 372.924968 320.594359 
L 373.353649 319.927706 
L 373.78233 320.116536 
L 374.211012 319.406264 
L 374.639693 320.290166 
L 375.068374 320.421199 
L 375.497055 319.633709 
L 375.925736 319.787087 
L 376.354417 319.732987 
L 376.783099 319.271777 
L 377.21178 319.174408 
L 377.640461 319.282127 
L 378.069142 318.896484 
L 379.783867 318.159765 
L 380.212548 318.697098 
L 380.641229 318.720768 
L 381.06991 318.96282 
L 381.498592 318.395787 
L 381.927273 318.590486 
L 382.355954 317.862237 
L 383.213316 318.05841 
L 383.641997 318.12505 
L 384.070679 317.527749 
L 384.928041 317.872578 
L 385.356722 317.811738 
L 385.785403 316.53932 
L 386.214085 317.215653 
L 386.642766 317.120838 
L 387.071447 316.772305 
L 387.500128 316.765199 
L 388.35749 316.370221 
L 389.214853 316.444977 
L 389.643534 315.480846 
L 390.072215 315.712056 
L 390.500896 316.174627 
L 390.929577 315.006498 
L 391.358259 316.017325 
L 391.78694 315.261317 
L 392.215621 315.060996 
L 392.644302 315.207185 
L 393.072983 314.499181 
L 393.501665 315.162588 
L 393.930346 313.635021 
L 394.359027 314.005047 
L 394.787708 313.244844 
L 395.216389 313.5693 
L 395.64507 314.473055 
L 396.073752 313.254282 
L 396.502433 313.186688 
L 396.931114 312.765378 
L 397.359795 312.583674 
L 397.788476 312.703656 
L 398.217157 312.463821 
L 398.645839 312.853006 
L 399.07452 311.706564 
L 399.503201 313.065429 
L 399.931882 312.954703 
L 400.360563 312.522663 
L 400.789245 311.357063 
L 401.217926 312.108654 
L 402.075288 311.235027 
L 402.503969 311.325647 
L 402.93265 311.885964 
L 403.361332 310.239767 
L 403.790013 310.637265 
L 404.218694 310.192704 
L 405.076056 310.33685 
L 405.504738 86.042857 
L 406.3621 86.042857 
L 406.790781 309.942892 
L 407.219462 308.655045 
L 407.648143 309.48806 
L 408.076825 308.898914 
L 408.505506 309.384655 
L 408.934187 308.252305 
L 409.362868 308.124441 
L 409.791549 308.346952 
L 410.22023 307.347229 
L 410.648912 308.115501 
L 411.077593 307.845782 
L 411.506274 307.04237 
L 411.934955 307.164656 
L 412.792318 306.367501 
L 413.220999 306.753931 
L 413.64968 306.40066 
L 414.078361 306.818698 
L 414.507042 306.147884 
L 414.935723 306.331686 
L 415.364405 305.443619 
L 415.793086 305.878255 
L 416.650448 305.525554 
L 417.079129 306.283194 
L 417.50781 305.644603 
L 417.936492 304.136118 
L 418.365173 304.543782 
L 418.793854 304.683658 
L 419.651216 304.450915 
L 420.079898 304.016455 
L 420.508579 86.856497 
L 421.365941 86.856497 
L 421.794622 304.149594 
L 422.651985 303.033441 
L 423.080666 303.76681 
L 423.509347 302.490947 
L 423.938028 302.264862 
L 424.366709 302.652406 
L 424.795391 302.373753 
L 425.224072 301.734925 
L 425.652753 302.460374 
L 426.510115 302.42217 
L 427.367478 301.929464 
L 427.796159 301.292498 
L 428.22484 301.74706 
L 429.082202 300.964642 
L 429.510883 301.480755 
L 429.939565 300.111214 
L 430.368246 300.024334 
L 430.796927 301.30309 
L 431.225608 300.567675 
L 431.654289 300.383576 
L 432.082971 300.004641 
L 432.511652 300.483576 
L 433.797695 299.114351 
L 434.226376 299.334871 
L 434.655058 299.161525 
L 435.083739 299.485779 
L 435.51242 299.271339 
L 435.941101 298.421471 
L 436.369782 298.801093 
L 436.798464 299.023397 
L 437.227145 297.854174 
L 437.655826 298.748299 
L 438.084507 297.855597 
L 438.513188 297.993259 
L 438.941869 297.974711 
L 439.370551 298.179502 
L 439.799232 297.527904 
L 440.227913 298.571209 
L 441.513956 297.444856 
L 441.942638 297.369322 
L 442.371319 297.447773 
L 442.8 297.353248 
L 443.228681 296.910904 
L 443.657362 297.331323 
L 444.086044 297.933096 
L 444.514725 296.844435 
L 444.943406 296.364157 
L 445.372087 296.222549 
L 445.800768 296.713904 
L 446.229449 296.52366 
L 446.658131 295.724765 
L 447.086812 296.622114 
L 447.944174 295.948398 
L 448.372855 296.384097 
L 448.801536 296.225002 
L 449.230218 295.680952 
L 449.658899 296.193757 
L 450.08758 295.585203 
L 450.516261 296.265883 
L 450.944942 296.569028 
L 451.373624 295.30158 
L 451.802305 295.576698 
L 452.659667 295.623549 
L 453.088348 294.872341 
L 453.517029 295.755139 
L 453.945711 294.765065 
L 454.374392 295.614591 
L 454.803073 295.147131 
L 455.231754 295.125507 
L 455.660435 294.711784 
L 456.089117 295.725987 
L 456.517798 294.982111 
L 456.946479 294.876825 
L 457.803841 294.203708 
L 458.232522 295.112074 
L 458.661204 294.469862 
L 459.089885 294.36883 
L 459.518566 293.989323 
L 459.947247 294.523749 
L 460.375928 293.91917 
L 460.804609 294.359199 
L 461.233291 294.491853 
L 461.661972 294.084921 
L 462.090653 294.150029 
L 462.519334 294.065938 
L 462.948015 293.74681 
L 463.376697 294.297252 
L 464.234059 294.189771 
L 465.091421 293.14379 
L 465.520102 293.559625 
L 465.948784 293.494447 
L 466.377465 293.131538 
L 466.806146 294.16528 
L 467.234827 294.544234 
L 467.663508 294.351715 
L 468.09219 293.703017 
L 468.520871 293.780302 
L 468.949552 294.998281 
L 469.378233 293.198222 
L 469.806914 293.810706 
L 470.235595 293.710829 
L 470.664277 293.474942 
L 471.092958 294.230067 
L 471.521639 293.931544 
L 471.95032 293.11614 
L 472.379001 292.665487 
L 472.807682 293.226129 
L 473.236364 293.17975 
L 473.665045 294.268762 
L 474.093726 292.990857 
L 474.522407 292.936036 
L 474.951088 293.585235 
L 475.808451 292.959279 
L 476.237132 292.378338 
L 476.665813 293.839043 
L 477.094494 292.84431 
L 477.523175 292.66395 
L 478.809219 293.291451 
L 479.2379 293.124766 
L 479.666581 292.781958 
L 480.095262 293.643683 
L 480.523944 293.685895 
L 480.952625 293.430016 
L 481.381306 293.729994 
L 481.809987 293.81724 
L 482.238668 292.406835 
L 482.66735 293.426848 
L 483.096031 293.212711 
L 483.524712 293.473354 
L 483.953393 292.698141 
L 484.382074 292.664421 
L 484.810755 292.336965 
L 485.239437 293.059259 
L 485.668118 292.256635 
L 486.52548 293.352836 
L 486.954161 292.208332 
L 487.382843 292.012746 
L 487.811524 292.304363 
L 488.668886 293.21458 
L 489.097567 292.552305 
L 489.526248 293.146242 
L 489.95493 293.323471 
L 490.383611 292.142358 
L 490.812292 292.560939 
L 491.669654 292.639963 
L 492.098335 291.709345 
L 492.527017 292.986726 
L 493.384379 291.923626 
L 493.81306 292.004851 
L 494.241741 292.371401 
L 494.670423 292.073475 
L 495.099104 292.08544 
L 495.527785 291.184257 
L 495.956466 291.853083 
L 496.385147 292.146568 
L 496.813828 291.257539 
L 497.24251 292.322126 
L 497.671191 291.444781 
L 498.099872 291.074261 
L 498.528553 292.106817 
L 498.957234 291.371451 
L 499.385915 291.027225 
L 500.243278 290.644105 
L 500.671959 290.401703 
L 501.10064 291.118 
L 501.529321 291.528168 
L 501.958003 291.419828 
L 502.386684 290.691163 
L 502.815365 291.652116 
L 503.244046 290.638325 
L 503.672727 291.317908 
L 504.101408 291.139287 
L 504.53009 290.48769 
L 504.958771 290.834103 
L 505.387452 290.864199 
L 505.816133 290.709433 
L 506.244814 289.682518 
L 506.673496 290.867044 
L 507.102177 290.109881 
L 507.530858 290.285874 
L 507.959539 288.6402 
L 508.38822 289.969635 
L 508.816901 288.980748 
L 509.245583 289.323609 
L 509.674264 290.335258 
L 510.102945 289.294383 
L 510.531626 289.116228 
L 510.960307 289.323691 
L 511.388988 290.123529 
L 511.81767 288.115233 
L 512.246351 289.119358 
L 512.675032 289.56763 
L 513.103713 288.258382 
L 513.532394 288.831876 
L 513.961076 288.500194 
L 514.818438 289.206047 
L 515.247119 288.356022 
L 515.6758 287.824965 
L 516.104481 288.059109 
L 516.961844 287.716191 
L 517.390525 287.516751 
L 517.819206 287.696219 
L 518.247887 287.593151 
L 519.533931 287.736434 
L 519.962612 287.311065 
L 520.391293 287.162353 
L 520.819974 286.872462 
L 521.248656 66.96 
L 522.106018 66.96 
L 522.534699 285.99234 
L 523.392061 285.898287 
L 523.820743 286.165332 
L 525.106786 285.284235 
L 525.535467 285.196346 
L 525.964149 284.214671 
L 526.39283 285.044574 
L 526.821511 285.083403 
L 527.250192 285.340013 
L 527.678873 284.90094 
L 528.107554 283.115768 
L 528.536236 284.006783 
L 528.964917 283.579422 
L 529.393598 283.744967 
L 529.822279 283.604529 
L 530.25096 283.605883 
L 531.108323 282.561493 
L 531.537004 282.650787 
L 531.965685 283.003097 
L 532.394366 282.694751 
L 532.823047 283.241874 
L 533.251729 281.904891 
L 533.68041 281.436547 
L 534.109091 282.785842 
L 534.537772 281.944441 
L 534.966453 282.17293 
L 535.395134 282.153147 
L 535.823816 280.958385 
L 536.252497 280.748682 
L 536.681178 280.190588 
L 537.109859 280.719769 
L 537.53854 281.609005 
L 537.967222 280.390941 
L 538.395903 280.76115 
L 539.253265 279.999447 
L 539.681946 279.908779 
L 540.110627 279.410782 
L 540.539309 279.900424 
L 540.96799 279.740944 
L 541.825352 278.694329 
L 542.254033 279.101498 
L 543.111396 279.041785 
L 543.968758 278.3706 
L 544.397439 278.601146 
L 544.82612 277.586514 
L 545.254802 278.665112 
L 545.683483 277.629979 
L 546.112164 278.046418 
L 546.540845 276.666638 
L 546.969526 277.281826 
L 547.398207 276.366654 
L 547.826889 276.900811 
L 548.25557 276.637405 
L 548.684251 276.83558 
L 549.112932 277.603984 
L 549.541613 275.286107 
L 549.970294 276.507793 
L 550.398976 274.532567 
L 550.827657 275.383304 
L 551.256338 275.621539 
L 551.685019 274.880393 
L 552.1137 274.631871 
L 552.542382 274.970399 
L 552.971063 274.640118 
L 553.399744 273.699909 
L 553.828425 275.013106 
L 554.257106 274.233602 
L 554.685787 273.687984 
L 555.114469 274.530131 
L 555.54315 274.540097 
L 555.971831 272.950618 
L 556.400512 273.746789 
L 556.829193 273.719855 
L 557.257875 273.106902 
L 557.686556 273.185484 
L 558.115237 273.031434 
L 558.543918 273.267603 
L 558.972599 272.880595 
L 559.40128 271.929182 
L 559.829962 271.935027 
L 560.258643 272.300557 
L 560.687324 270.762164 
L 561.116005 271.037575 
L 561.544686 271.898281 
L 561.973367 271.45948 
L 562.402049 272.739954 
L 562.83073 270.688605 
L 563.259411 270.725381 
L 563.688092 271.062995 
L 564.545455 270.515243 
L 564.974136 269.95261 
L 565.402817 270.717889 
L 565.831498 269.655351 
L 566.260179 269.66098 
L 566.68886 270.189674 
L 567.117542 269.867254 
L 567.546223 268.768102 
L 567.974904 269.545724 
L 568.403585 269.976993 
L 568.832266 269.886957 
L 569.260948 269.122372 
L 569.689629 268.856813 
L 570.11831 268.72789 
L 570.546991 268.839456 
L 570.975672 269.496132 
L 571.833035 267.939075 
L 572.261716 269.297937 
L 572.690397 267.848836 
L 573.119078 268.68354 
L 573.547759 268.000895 
L 573.97644 268.428137 
L 574.405122 267.307473 
L 574.833803 267.841709 
L 575.262484 267.27369 
L 575.691165 267.723918 
L 576.548528 267.840177 
L 576.977209 267.578534 
L 577.40589 267.114958 
L 577.834571 266.225918 
L 578.263252 266.500273 
L 578.691933 266.95446 
L 579.120615 266.461686 
L 579.549296 266.93356 
L 579.977977 266.667749 
L 580.406658 266.227248 
L 580.835339 264.991214 
L 581.26402 266.020812 
L 581.692702 265.994826 
L 582.121383 267.00378 
L 582.550064 265.340789 
L 582.978745 265.22747 
L 583.407426 266.453877 
L 583.836108 265.639702 
L 584.264789 265.943004 
L 584.69347 265.433715 
L 585.122151 265.642221 
L 585.550832 264.876524 
L 585.979513 265.173126 
L 586.408195 265.164132 
L 586.836876 264.959031 
L 587.265557 265.895167 
L 587.694238 265.537794 
L 588.122919 264.318958 
L 588.551601 264.791149 
L 588.980282 264.631625 
L 589.408963 265.395836 
L 589.837644 263.710953 
L 590.266325 264.886386 
L 590.695006 264.363789 
L 591.123688 264.649212 
L 591.552369 264.057047 
L 591.98105 264.838451 
L 592.409731 263.925965 
L 592.838412 263.86718 
L 593.267093 264.633701 
L 593.695775 264.980163 
L 594.124456 263.997525 
L 594.553137 265.201547 
L 594.981818 263.757645 
L 595.839181 263.645305 
L 596.267862 264.117798 
L 596.696543 263.092768 
L 597.125224 263.949652 
L 597.553905 264.28537 
L 597.982586 263.982945 
L 598.411268 264.343687 
L 598.839949 264.314408 
L 599.26863 263.605362 
L 599.697311 263.642838 
L 600.125992 263.875442 
L 600.983355 263.636459 
L 601.412036 263.673834 
L 601.840717 262.6998 
L 602.269398 263.743747 
L 602.698079 263.13152 
L 603.555442 263.870737 
L 603.984123 263.787623 
L 604.412804 263.262404 
L 604.841485 263.567181 
L 605.270166 263.209351 
L 606.127529 262.896308 
L 606.55621 263.671694 
L 606.984891 262.56172 
L 607.413572 264.027995 
L 607.842254 264.008186 
L 608.270935 262.593947 
L 608.699616 262.522768 
L 609.128297 263.590152 
L 609.556978 262.815427 
L 609.985659 263.623966 
L 610.414341 262.272043 
L 610.843022 262.945416 
L 611.700384 263.085176 
L 612.129065 263.473555 
L 612.557746 262.500968 
L 612.986428 262.862934 
L 613.415109 262.615941 
L 613.84379 263.187033 
L 614.272471 262.990016 
L 614.701152 262.663969 
L 615.129834 263.54589 
L 615.558515 263.158335 
L 615.987196 262.987592 
L 616.415877 262.42214 
L 616.844558 263.087208 
L 617.273239 263.127012 
L 617.701921 262.417615 
L 618.130602 262.927783 
L 618.559283 262.096276 
L 618.987964 263.30012 
L 619.416645 262.675892 
L 619.845327 262.84194 
L 620.274008 262.685332 
L 620.702689 262.093645 
L 621.13137 262.070779 
L 621.988732 263.183889 
L 622.417414 262.65023 
L 622.846095 261.662271 
L 623.274776 262.24583 
L 623.703457 262.604735 
L 624.989501 261.26076 
L 625.846863 262.478035 
L 626.275544 260.954976 
L 626.704225 261.911333 
L 627.132907 261.265794 
L 627.561588 261.279412 
L 627.990269 262.755974 
L 628.41895 261.04115 
L 628.847631 261.793409 
L 629.276312 262.079711 
L 629.704994 261.619153 
L 630.991037 261.576617 
L 631.419718 260.776075 
L 632.277081 261.202032 
L 632.705762 261.565978 
L 633.134443 260.680821 
L 633.563124 260.876656 
L 633.991805 261.322799 
L 634.420487 261.297201 
L 635.70653 260.713384 
L 636.135211 260.422343 
L 636.563892 260.659487 
L 636.992574 261.458627 
L 637.421255 260.463667 
L 637.849936 260.053801 
L 638.278617 261.081266 
L 638.707298 261.273717 
L 639.13598 259.981271 
L 639.564661 260.442082 
L 639.993342 259.956954 
L 640.422023 260.221238 
L 640.850704 259.242599 
L 641.708067 259.573535 
L 642.99411 259.100765 
L 643.422791 259.950078 
L 643.851472 258.715574 
L 644.280154 259.99289 
L 644.708835 260.233645 
L 645.137516 259.24741 
L 645.566197 258.779988 
L 645.994878 258.78863 
L 646.42356 258.605688 
L 647.280922 258.944419 
L 647.709603 258.502528 
L 648.138284 257.642767 
L 648.566965 258.483955 
L 648.995647 258.026357 
L 649.424328 257.919393 
L 649.853009 257.477061 
L 650.28169 258.419449 
L 651.139052 257.564726 
L 651.567734 257.771797 
L 651.996415 257.38075 
L 652.425096 257.460339 
L 653.282458 257.84178 
L 653.71114 256.608728 
L 654.139821 256.809206 
L 654.568502 256.387341 
L 654.997183 257.654906 
L 655.425864 255.994825 
L 656.283227 256.425126 
L 656.711908 255.841958 
L 657.140589 255.826031 
L 657.56927 255.531537 
L 657.997951 255.442048 
L 658.426633 255.470385 
L 658.855314 255.342392 
L 659.283995 255.543491 
L 659.712676 254.919785 
L 660.141357 255.228211 
L 660.570038 254.24576 
L 660.99872 254.649728 
L 661.427401 253.896302 
L 661.856082 254.565696 
L 662.284763 254.351501 
L 662.713444 253.727383 
L 663.142125 253.445578 
L 663.570807 254.326178 
L 663.999488 253.2773 
L 664.428169 253.007229 
L 664.85685 253.553361 
L 665.285531 252.878263 
L 665.714213 253.339177 
L 666.571575 252.810555 
L 667.000256 252.889375 
L 667.428937 251.742906 
L 667.857618 252.274094 
L 668.2863 252.287078 
L 668.714981 252.677754 
L 669.143662 251.741384 
L 669.572343 251.962639 
L 670.429706 251.444775 
L 670.858387 251.881913 
L 671.287068 250.744824 
L 671.715749 250.695202 
L 672.14443 250.438816 
L 673.001793 251.139427 
L 673.430474 249.239855 
L 673.859155 249.315076 
L 674.287836 249.996695 
L 674.716517 250.276211 
L 675.145198 249.535861 
L 675.57388 249.30261 
L 676.002561 250.057207 
L 676.431242 249.073251 
L 676.859923 248.737425 
L 677.288604 247.835833 
L 677.717286 248.937212 
L 678.145967 247.166899 
L 679.003329 247.950094 
L 679.43201 247.921003 
L 680.289373 246.831628 
L 680.718054 246.585967 
L 681.575416 247.254932 
L 682.004097 246.227546 
L 682.432778 246.082938 
L 682.86146 246.658516 
L 683.290141 246.699979 
L 683.718822 246.109039 
L 684.147503 245.72124 
L 685.004866 246.018724 
L 685.433547 245.761617 
L 685.862228 244.835546 
L 686.71959 244.721616 
L 687.148271 245.00715 
L 687.576953 244.614654 
L 688.005634 244.889346 
L 688.434315 243.804859 
L 688.862996 244.862898 
L 689.291677 243.99684 
L 689.720359 243.832274 
L 690.14904 243.851104 
L 690.577721 242.278664 
L 691.006402 242.231467 
L 691.435083 243.312552 
L 691.863764 242.716678 
L 692.721127 242.399689 
L 693.149808 242.223467 
L 693.578489 242.596078 
L 694.00717 243.120676 
L 694.435851 242.185704 
L 694.864533 241.5242 
L 695.293214 241.941175 
L 695.721895 241.378374 
L 696.150576 241.732801 
L 696.579257 241.127568 
L 697.007939 240.862027 
L 697.43662 240.900057 
L 697.865301 241.259289 
L 698.293982 240.111241 
L 699.151344 240.939728 
L 700.008707 240.032964 
L 700.866069 240.633806 
L 701.723431 239.578447 
L 702.152113 239.362733 
L 702.580794 238.59291 
L 703.009475 239.442912 
L 703.438156 239.410321 
L 703.866837 239.192463 
L 704.295519 238.304518 
L 704.7242 239.019485 
L 705.152881 238.56002 
L 705.581562 237.429247 
L 706.010243 238.836611 
L 706.867606 238.221876 
L 707.296287 238.628692 
L 707.724968 237.691028 
L 708.153649 238.61126 
L 708.58233 237.731915 
L 709.011012 237.83894 
L 709.439693 237.656298 
L 709.868374 236.708186 
L 710.297055 236.796323 
L 710.725736 236.204115 
L 712.01178 236.984216 
L 712.440461 236.493739 
L 712.869142 236.366643 
L 713.297823 236.53011 
L 713.726504 236.978518 
L 714.155186 235.876383 
L 714.583867 236.487615 
L 715.012548 236.597147 
L 715.441229 235.914914 
L 715.86991 236.03176 
L 716.298592 235.32336 
L 716.727273 235.861385 
L 717.155954 235.077262 
L 717.584635 235.37096 
L 718.013316 235.33023 
L 718.441997 235.444461 
L 718.870679 234.720945 
L 719.29936 235.393795 
L 719.728041 235.411975 
L 720.156722 234.941727 
L 720.585403 234.872828 
L 721.014085 233.984462 
L 721.442766 234.849147 
L 721.871447 234.389445 
L 722.300128 234.707633 
L 722.728809 233.924249 
L 723.15749 234.299697 
L 723.586172 234.199178 
L 724.014853 234.302451 
L 724.443534 234.787675 
L 724.872215 234.589631 
L 725.300896 234.001241 
L 725.729577 234.668245 
L 726.158259 233.583523 
L 726.58694 234.675737 
L 727.444302 234.503581 
L 728.301665 233.385857 
L 728.730346 234.545056 
L 729.159027 233.971963 
L 729.587708 233.707955 
L 730.016389 234.416969 
L 730.44507 233.76961 
L 730.873752 233.69906 
L 731.302433 233.094995 
L 731.731114 233.222809 
L 732.159795 234.081403 
L 733.017157 233.749122 
L 733.445839 234.33252 
L 733.87452 233.866903 
L 734.303201 232.934342 
L 734.731882 233.450406 
L 735.160563 232.8885 
L 735.589245 232.835725 
L 736.017926 233.51053 
L 736.446607 233.343466 
L 736.875288 232.237234 
L 737.303969 233.231121 
L 737.73265 232.943564 
L 738.161332 232.493597 
L 738.590013 233.041835 
L 739.018694 232.890865 
L 739.447375 233.494705 
L 739.876056 231.992789 
L 740.304738 233.228514 
L 740.733419 233.387688 
L 741.1621 233.0854 
L 741.590781 232.003801 
L 742.019462 233.583936 
L 742.448143 232.848035 
L 742.876825 233.289732 
L 743.305506 233.173583 
L 743.734187 232.669586 
L 744.162868 232.442295 
L 744.591549 231.876747 
L 745.02023 232.79275 
L 745.448912 232.392101 
L 745.877593 233.826159 
L 746.306274 232.480549 
L 746.734955 231.774123 
L 747.163636 232.270467 
L 747.163636 232.270467 
" style="fill:none;stroke:#1f77b4;stroke-linecap:square;stroke-width:1.5;"/>
   </g>
   <g id="line2d_16">
    <path clip-path="url(#p2d41e778c0)" d="M 747.163636 384.48 
L 747.163636 51.84 
" style="fill:none;stroke:#808080;stroke-linecap:square;"/>
   </g>
   <g id="patch_81">
    <path d="M 108 384.48 
L 108 51.84 
" style="fill:none;stroke:#000000;stroke-linecap:square;stroke-linejoin:miter;stroke-width:0.8;"/>
   </g>
   <g id="patch_82">
    <path d="M 777.6 384.48 
L 777.6 51.84 
" style="fill:none;stroke:#000000;stroke-linecap:square;stroke-linejoin:miter;stroke-width:0.8;"/>
   </g>
   <g id="patch_83">
    <path d="M 108 384.48 
L 777.6 384.48 
" style="fill:none;stroke:#000000;stroke-linecap:square;stroke-linejoin:miter;stroke-width:0.8;"/>
   </g>
   <g id="patch_84">
    <path d="M 108 51.84 
L 777.6 51.84 
" style="fill:none;stroke:#000000;stroke-linecap:square;stroke-linejoin:miter;stroke-width:0.8;"/>
   </g>
   <g id="text_17">
    <!-- synthetic_77.csv -->
    <defs>
     <path d="M 32.171875 -5.078125 
Q 28.375 -14.84375 24.75 -17.8125 
Q 21.140625 -20.796875 15.09375 -20.796875 
L 7.90625 -20.796875 
L 7.90625 -13.28125 
L 13.1875 -13.28125 
Q 16.890625 -13.28125 18.9375 -11.515625 
Q 21 -9.765625 23.484375 -3.21875 
L 25.09375 0.875 
L 2.984375 54.6875 
L 12.5 54.6875 
L 29.59375 11.921875 
L 46.6875 54.6875 
L 56.203125 54.6875 
z
" id="DejaVuSans-121"/>
     <path d="M 54.890625 33.015625 
L 54.890625 0 
L 45.90625 0 
L 45.90625 32.71875 
Q 45.90625 40.484375 42.875 44.328125 
Q 39.84375 48.1875 33.796875 48.1875 
Q 26.515625 48.1875 22.3125 43.546875 
Q 18.109375 38.921875 18.109375 30.90625 
L 18.109375 0 
L 9.078125 0 
L 9.078125 54.6875 
L 18.109375 54.6875 
L 18.109375 46.1875 
Q 21.34375 51.125 25.703125 53.5625 
Q 30.078125 56 35.796875 56 
Q 45.21875 56 50.046875 50.171875 
Q 54.890625 44.34375 54.890625 33.015625 
z
" id="DejaVuSans-110"/>
     <path d="M 54.890625 33.015625 
L 54.890625 0 
L 45.90625 0 
L 45.90625 32.71875 
Q 45.90625 40.484375 42.875 44.328125 
Q 39.84375 48.1875 33.796875 48.1875 
Q 26.515625 48.1875 22.3125 43.546875 
Q 18.109375 38.921875 18.109375 30.90625 
L 18.109375 0 
L 9.078125 0 
L 9.078125 75.984375 
L 18.109375 75.984375 
L 18.109375 46.1875 
Q 21.34375 51.125 25.703125 53.5625 
Q 30.078125 56 35.796875 56 
Q 45.21875 56 50.046875 50.171875 
Q 54.890625 44.34375 54.890625 33.015625 
z
" id="DejaVuSans-104"/>
     <path d="M 48.78125 52.59375 
L 48.78125 44.1875 
Q 44.96875 46.296875 41.140625 47.34375 
Q 37.3125 48.390625 33.40625 48.390625 
Q 24.65625 48.390625 19.8125 42.84375 
Q 14.984375 37.3125 14.984375 27.296875 
Q 14.984375 17.28125 19.8125 11.734375 
Q 24.65625 6.203125 33.40625 6.203125 
Q 37.3125 6.203125 41.140625 7.25 
Q 44.96875 8.296875 48.78125 10.40625 
L 48.78125 2.09375 
Q 45.015625 0.34375 40.984375 -0.53125 
Q 36.96875 -1.421875 32.421875 -1.421875 
Q 20.0625 -1.421875 12.78125 6.34375 
Q 5.515625 14.109375 5.515625 27.296875 
Q 5.515625 40.671875 12.859375 48.328125 
Q 20.21875 56 33.015625 56 
Q 37.15625 56 41.109375 55.140625 
Q 45.0625 54.296875 48.78125 52.59375 
z
" id="DejaVuSans-99"/>
     <path d="M 50.984375 -16.609375 
L 50.984375 -23.578125 
L -0.984375 -23.578125 
L -0.984375 -16.609375 
z
" id="DejaVuSans-95"/>
     <path d="M 8.203125 72.90625 
L 55.078125 72.90625 
L 55.078125 68.703125 
L 28.609375 0 
L 18.3125 0 
L 43.21875 64.59375 
L 8.203125 64.59375 
z
" id="DejaVuSans-55"/>
     <path d="M 10.6875 12.40625 
L 21 12.40625 
L 21 0 
L 10.6875 0 
z
" id="DejaVuSans-46"/>
     <path d="M 2.984375 54.6875 
L 12.5 54.6875 
L 29.59375 8.796875 
L 46.6875 54.6875 
L 56.203125 54.6875 
L 35.6875 0 
L 23.484375 0 
z
" id="DejaVuSans-118"/>
    </defs>
    <g transform="translate(392.638125 45.84)scale(0.12 -0.12)">
     <use xlink:href="#DejaVuSans-115"/>
     <use x="52.099609" xlink:href="#DejaVuSans-121"/>
     <use x="111.279297" xlink:href="#DejaVuSans-110"/>
     <use x="174.658203" xlink:href="#DejaVuSans-116"/>
     <use x="213.867188" xlink:href="#DejaVuSans-104"/>
     <use x="277.246094" xlink:href="#DejaVuSans-101"/>
     <use x="338.769531" xlink:href="#DejaVuSans-116"/>
     <use x="377.978516" xlink:href="#DejaVuSans-105"/>
     <use x="405.761719" xlink:href="#DejaVuSans-99"/>
     <use x="460.742188" xlink:href="#DejaVuSans-95"/>
     <use x="510.742188" xlink:href="#DejaVuSans-55"/>
     <use x="574.365234" xlink:href="#DejaVuSans-55"/>
     <use x="637.988281" xlink:href="#DejaVuSans-46"/>
     <use x="669.775391" xlink:href="#DejaVuSans-99"/>
     <use x="724.755859" xlink:href="#DejaVuSans-115"/>
     <use x="776.855469" xlink:href="#DejaVuSans-118"/>
    </g>
   </g>
   <g id="legend_1">
    <g id="patch_85">
     <path d="M 711.284375 74.518125 
L 770.6 74.518125 
Q 772.6 74.518125 772.6 72.518125 
L 772.6 58.84 
Q 772.6 56.84 770.6 56.84 
L 711.284375 56.84 
Q 709.284375 56.84 709.284375 58.84 
L 709.284375 72.518125 
Q 709.284375 74.518125 711.284375 74.518125 
z
" style="fill:#ffffff;opacity:0.8;stroke:#cccccc;stroke-linejoin:miter;"/>
    </g>
    <g id="line2d_17">
     <path d="M 713.284375 64.938438 
L 733.284375 64.938438 
" style="fill:none;stroke:#1f77b4;stroke-linecap:square;stroke-width:1.5;"/>
    </g>
    <g id="line2d_18"/>
    <g id="text_18">
     <!-- value -->
     <g transform="translate(741.284375 68.438438)scale(0.1 -0.1)">
      <use xlink:href="#DejaVuSans-118"/>
      <use x="59.179688" xlink:href="#DejaVuSans-97"/>
      <use x="120.458984" xlink:href="#DejaVuSans-108"/>
      <use x="148.242188" xlink:href="#DejaVuSans-117"/>
      <use x="211.621094" xlink:href="#DejaVuSans-101"/>
     </g>
    </g>
   </g>
  </g>
 </g>
 <defs>
  <clipPath id="p2d41e778c0">
   <rect height="332.64" width="669.6" x="108" y="51.84"/>
  </clipPath>
 </defs>
</svg>
