<?xml version="1.0" encoding="utf-8" standalone="no"?>
<!DOCTYPE svg PUBLIC "-//W3C//DTD SVG 1.1//EN"
  "http://www.w3.org/Graphics/SVG/1.1/DTD/svg11.dtd">
<!-- Created with matplotlib (https://matplotlib.org/) -->
<svg height="432pt" version="1.1" viewBox="0 0 864 432" width="864pt" xmlns="http://www.w3.org/2000/svg" xmlns:xlink="http://www.w3.org/1999/xlink">
 <defs>
  <style type="text/css">
*{stroke-linecap:butt;stroke-linejoin:round;}
  </style>
 </defs>
 <g id="figure_1">
  <g id="patch_1">
   <path d="M 0 432 
L 864 432 
L 864 0 
L 0 0 
z
" style="fill:#ffffff;"/>
  </g>
  <g id="axes_1">
   <g id="patch_2">
    <path d="M 108 384.48 
L 777.6 384.48 
L 777.6 51.84 
L 108 51.84 
z
" style="fill:#ffffff;"/>
   </g>
   <g id="patch_3">
    <path clip-path="url(#pc9f03d45ac)" d="M 138.436364 384.48 
L 138.436364 51.84 
L 378.497823 51.84 
L 378.497823 384.48 
z
" style="fill:#0000ff;opacity:0.05;"/>
   </g>
   <g id="patch_4">
    <path clip-path="url(#pc9f03d45ac)" d="M 378.497823 384.48 
L 378.497823 51.84 
L 747.163636 51.84 
L 747.163636 384.48 
z
" style="fill:#ff0000;opacity:0.08;"/>
   </g>
   <g id="patch_5">
    <path clip-path="url(#pc9f03d45ac)" d="M 138.436364 384.48 
L 138.436364 51.84 
L 142.723175 51.84 
L 142.723175 384.48 
z
" style="fill:#008000;opacity:0.04;"/>
   </g>
   <g id="patch_6">
    <path clip-path="url(#pc9f03d45ac)" d="M 147.009987 384.48 
L 147.009987 51.84 
L 151.296799 51.84 
L 151.296799 384.48 
z
" style="fill:#008000;opacity:0.04;"/>
   </g>
   <g id="patch_7">
    <path clip-path="url(#pc9f03d45ac)" d="M 155.583611 384.48 
L 155.583611 51.84 
L 159.870423 51.84 
L 159.870423 384.48 
z
" style="fill:#008000;opacity:0.04;"/>
   </g>
   <g id="patch_8">
    <path clip-path="url(#pc9f03d45ac)" d="M 164.157234 384.48 
L 164.157234 51.84 
L 168.444046 51.84 
L 168.444046 384.48 
z
" style="fill:#008000;opacity:0.04;"/>
   </g>
   <g id="patch_9">
    <path clip-path="url(#pc9f03d45ac)" d="M 404.218694 384.48 
L 404.218694 371.1744 
L 408.505506 371.1744 
L 408.505506 384.48 
z
" style="fill:#ff6600;"/>
   </g>
   <g id="patch_10">
    <path clip-path="url(#pc9f03d45ac)" d="M 172.730858 384.48 
L 172.730858 51.84 
L 177.01767 51.84 
L 177.01767 384.48 
z
" style="fill:#008000;opacity:0.04;"/>
   </g>
   <g id="patch_11">
    <path clip-path="url(#pc9f03d45ac)" d="M 417.079129 384.48 
L 417.079129 371.1744 
L 421.365941 371.1744 
L 421.365941 384.48 
z
" style="fill:#ff6600;"/>
   </g>
   <g id="patch_12">
    <path clip-path="url(#pc9f03d45ac)" d="M 181.304481 384.48 
L 181.304481 51.84 
L 185.591293 51.84 
L 185.591293 384.48 
z
" style="fill:#008000;opacity:0.04;"/>
   </g>
   <g id="patch_13">
    <path clip-path="url(#pc9f03d45ac)" d="M 421.365941 384.48 
L 421.365941 371.1744 
L 425.652753 371.1744 
L 425.652753 384.48 
z
" style="fill:#ff6600;"/>
   </g>
   <g id="patch_14">
    <path clip-path="url(#pc9f03d45ac)" d="M 189.878105 384.48 
L 189.878105 51.84 
L 194.164917 51.84 
L 194.164917 384.48 
z
" style="fill:#008000;opacity:0.04;"/>
   </g>
   <g id="patch_15">
    <path clip-path="url(#pc9f03d45ac)" d="M 198.451729 384.48 
L 198.451729 51.84 
L 202.73854 51.84 
L 202.73854 384.48 
z
" style="fill:#008000;opacity:0.04;"/>
   </g>
   <g id="patch_16">
    <path clip-path="url(#pc9f03d45ac)" d="M 207.025352 384.48 
L 207.025352 51.84 
L 211.312164 51.84 
L 211.312164 384.48 
z
" style="fill:#008000;opacity:0.04;"/>
   </g>
   <g id="patch_17">
    <path clip-path="url(#pc9f03d45ac)" d="M 215.598976 384.48 
L 215.598976 51.84 
L 219.885787 51.84 
L 219.885787 384.48 
z
" style="fill:#008000;opacity:0.04;"/>
   </g>
   <g id="patch_18">
    <path clip-path="url(#pc9f03d45ac)" d="M 224.172599 384.48 
L 224.172599 51.84 
L 228.459411 51.84 
L 228.459411 384.48 
z
" style="fill:#008000;opacity:0.04;"/>
   </g>
   <g id="patch_19">
    <path clip-path="url(#pc9f03d45ac)" d="M 232.746223 384.48 
L 232.746223 51.84 
L 237.033035 51.84 
L 237.033035 384.48 
z
" style="fill:#008000;opacity:0.04;"/>
   </g>
   <g id="patch_20">
    <path clip-path="url(#pc9f03d45ac)" d="M 241.319846 384.48 
L 241.319846 51.84 
L 245.606658 51.84 
L 245.606658 384.48 
z
" style="fill:#008000;opacity:0.04;"/>
   </g>
   <g id="patch_21">
    <path clip-path="url(#pc9f03d45ac)" d="M 249.89347 384.48 
L 249.89347 51.84 
L 254.180282 51.84 
L 254.180282 384.48 
z
" style="fill:#008000;opacity:0.04;"/>
   </g>
   <g id="patch_22">
    <path clip-path="url(#pc9f03d45ac)" d="M 249.89347 384.48 
L 249.89347 371.1744 
L 254.180282 371.1744 
L 254.180282 384.48 
z
" style="fill:#ffe500;"/>
   </g>
   <g id="patch_23">
    <path clip-path="url(#pc9f03d45ac)" d="M 258.467093 384.48 
L 258.467093 51.84 
L 262.753905 51.84 
L 262.753905 384.48 
z
" style="fill:#008000;opacity:0.04;"/>
   </g>
   <g id="patch_24">
    <path clip-path="url(#pc9f03d45ac)" d="M 267.040717 384.48 
L 267.040717 51.84 
L 271.327529 51.84 
L 271.327529 384.48 
z
" style="fill:#008000;opacity:0.04;"/>
   </g>
   <g id="patch_25">
    <path clip-path="url(#pc9f03d45ac)" d="M 275.614341 384.48 
L 275.614341 51.84 
L 279.901152 51.84 
L 279.901152 384.48 
z
" style="fill:#008000;opacity:0.04;"/>
   </g>
   <g id="patch_26">
    <path clip-path="url(#pc9f03d45ac)" d="M 279.901152 384.48 
L 279.901152 371.1744 
L 284.187964 371.1744 
L 284.187964 384.48 
z
" style="fill:#ffe500;"/>
   </g>
   <g id="patch_27">
    <path clip-path="url(#pc9f03d45ac)" d="M 519.962612 384.48 
L 519.962612 371.1744 
L 524.249424 371.1744 
L 524.249424 384.48 
z
" style="fill:#ff6600;"/>
   </g>
   <g id="patch_28">
    <path clip-path="url(#pc9f03d45ac)" d="M 284.187964 384.48 
L 284.187964 51.84 
L 288.474776 51.84 
L 288.474776 384.48 
z
" style="fill:#008000;opacity:0.04;"/>
   </g>
   <g id="patch_29">
    <path clip-path="url(#pc9f03d45ac)" d="M 292.761588 384.48 
L 292.761588 51.84 
L 297.048399 51.84 
L 297.048399 384.48 
z
" style="fill:#008000;opacity:0.04;"/>
   </g>
   <g id="patch_30">
    <path clip-path="url(#pc9f03d45ac)" d="M 301.335211 384.48 
L 301.335211 51.84 
L 305.622023 51.84 
L 305.622023 384.48 
z
" style="fill:#008000;opacity:0.04;"/>
   </g>
   <g id="patch_31">
    <path clip-path="url(#pc9f03d45ac)" d="M 309.908835 384.48 
L 309.908835 51.84 
L 314.195647 51.84 
L 314.195647 384.48 
z
" style="fill:#008000;opacity:0.04;"/>
   </g>
   <g id="patch_32">
    <path clip-path="url(#pc9f03d45ac)" d="M 318.482458 384.48 
L 318.482458 51.84 
L 322.76927 51.84 
L 322.76927 384.48 
z
" style="fill:#008000;opacity:0.04;"/>
   </g>
   <g id="patch_33">
    <path clip-path="url(#pc9f03d45ac)" d="M 327.056082 384.48 
L 327.056082 51.84 
L 331.342894 51.84 
L 331.342894 384.48 
z
" style="fill:#008000;opacity:0.04;"/>
   </g>
   <g id="patch_34">
    <path clip-path="url(#pc9f03d45ac)" d="M 335.629706 384.48 
L 335.629706 51.84 
L 339.916517 51.84 
L 339.916517 384.48 
z
" style="fill:#008000;opacity:0.04;"/>
   </g>
   <g id="patch_35">
    <path clip-path="url(#pc9f03d45ac)" d="M 344.203329 384.48 
L 344.203329 51.84 
L 348.490141 51.84 
L 348.490141 384.48 
z
" style="fill:#008000;opacity:0.04;"/>
   </g>
   <g id="patch_36">
    <path clip-path="url(#pc9f03d45ac)" d="M 352.776953 384.48 
L 352.776953 51.84 
L 357.063764 51.84 
L 357.063764 384.48 
z
" style="fill:#008000;opacity:0.04;"/>
   </g>
   <g id="patch_37">
    <path clip-path="url(#pc9f03d45ac)" d="M 361.350576 384.48 
L 361.350576 51.84 
L 365.637388 51.84 
L 365.637388 384.48 
z
" style="fill:#008000;opacity:0.04;"/>
   </g>
   <g id="patch_38">
    <path clip-path="url(#pc9f03d45ac)" d="M 369.9242 384.48 
L 369.9242 51.84 
L 374.211012 51.84 
L 374.211012 384.48 
z
" style="fill:#008000;opacity:0.04;"/>
   </g>
   <g id="patch_39">
    <path clip-path="url(#pc9f03d45ac)" d="M 378.497823 384.48 
L 378.497823 51.84 
L 382.784635 51.84 
L 382.784635 384.48 
z
" style="fill:#008000;opacity:0.04;"/>
   </g>
   <g id="patch_40">
    <path clip-path="url(#pc9f03d45ac)" d="M 387.071447 384.48 
L 387.071447 51.84 
L 391.358259 51.84 
L 391.358259 384.48 
z
" style="fill:#008000;opacity:0.04;"/>
   </g>
   <g id="patch_41">
    <path clip-path="url(#pc9f03d45ac)" d="M 395.64507 384.48 
L 395.64507 51.84 
L 399.931882 51.84 
L 399.931882 384.48 
z
" style="fill:#008000;opacity:0.04;"/>
   </g>
   <g id="patch_42">
    <path clip-path="url(#pc9f03d45ac)" d="M 404.218694 384.48 
L 404.218694 51.84 
L 408.505506 51.84 
L 408.505506 384.48 
z
" style="fill:#008000;opacity:0.04;"/>
   </g>
   <g id="patch_43">
    <path clip-path="url(#pc9f03d45ac)" d="M 404.218694 371.1744 
L 404.218694 51.84 
L 408.505506 51.84 
L 408.505506 371.1744 
z
" style="fill:#008000;opacity:0.5;"/>
   </g>
   <g id="patch_44">
    <path clip-path="url(#pc9f03d45ac)" d="M 412.792318 384.48 
L 412.792318 51.84 
L 417.079129 51.84 
L 417.079129 384.48 
z
" style="fill:#008000;opacity:0.04;"/>
   </g>
   <g id="patch_45">
    <path clip-path="url(#pc9f03d45ac)" d="M 417.079129 371.1744 
L 417.079129 51.84 
L 421.365941 51.84 
L 421.365941 371.1744 
z
" style="fill:#008000;opacity:0.5;"/>
   </g>
   <g id="patch_46">
    <path clip-path="url(#pc9f03d45ac)" d="M 421.365941 384.48 
L 421.365941 51.84 
L 425.652753 51.84 
L 425.652753 384.48 
z
" style="fill:#008000;opacity:0.04;"/>
   </g>
   <g id="patch_47">
    <path clip-path="url(#pc9f03d45ac)" d="M 421.365941 371.1744 
L 421.365941 51.84 
L 425.652753 51.84 
L 425.652753 371.1744 
z
" style="fill:#008000;opacity:0.5;"/>
   </g>
   <g id="patch_48">
    <path clip-path="url(#pc9f03d45ac)" d="M 429.939565 384.48 
L 429.939565 51.84 
L 434.226376 51.84 
L 434.226376 384.48 
z
" style="fill:#008000;opacity:0.04;"/>
   </g>
   <g id="patch_49">
    <path clip-path="url(#pc9f03d45ac)" d="M 438.513188 384.48 
L 438.513188 51.84 
L 442.8 51.84 
L 442.8 384.48 
z
" style="fill:#008000;opacity:0.04;"/>
   </g>
   <g id="patch_50">
    <path clip-path="url(#pc9f03d45ac)" d="M 447.086812 384.48 
L 447.086812 51.84 
L 451.373624 51.84 
L 451.373624 384.48 
z
" style="fill:#008000;opacity:0.04;"/>
   </g>
   <g id="patch_51">
    <path clip-path="url(#pc9f03d45ac)" d="M 455.660435 384.48 
L 455.660435 51.84 
L 459.947247 51.84 
L 459.947247 384.48 
z
" style="fill:#008000;opacity:0.04;"/>
   </g>
   <g id="patch_52">
    <path clip-path="url(#pc9f03d45ac)" d="M 464.234059 384.48 
L 464.234059 51.84 
L 468.520871 51.84 
L 468.520871 384.48 
z
" style="fill:#008000;opacity:0.04;"/>
   </g>
   <g id="patch_53">
    <path clip-path="url(#pc9f03d45ac)" d="M 472.807682 384.48 
L 472.807682 51.84 
L 477.094494 51.84 
L 477.094494 384.48 
z
" style="fill:#008000;opacity:0.04;"/>
   </g>
   <g id="patch_54">
    <path clip-path="url(#pc9f03d45ac)" d="M 481.381306 384.48 
L 481.381306 51.84 
L 485.668118 51.84 
L 485.668118 384.48 
z
" style="fill:#008000;opacity:0.04;"/>
   </g>
   <g id="patch_55">
    <path clip-path="url(#pc9f03d45ac)" d="M 489.95493 384.48 
L 489.95493 51.84 
L 494.241741 51.84 
L 494.241741 384.48 
z
" style="fill:#008000;opacity:0.04;"/>
   </g>
   <g id="patch_56">
    <path clip-path="url(#pc9f03d45ac)" d="M 498.528553 384.48 
L 498.528553 51.84 
L 502.815365 51.84 
L 502.815365 384.48 
z
" style="fill:#008000;opacity:0.04;"/>
   </g>
   <g id="patch_57">
    <path clip-path="url(#pc9f03d45ac)" d="M 507.102177 384.48 
L 507.102177 51.84 
L 511.388988 51.84 
L 511.388988 384.48 
z
" style="fill:#008000;opacity:0.04;"/>
   </g>
   <g id="patch_58">
    <path clip-path="url(#pc9f03d45ac)" d="M 515.6758 384.48 
L 515.6758 51.84 
L 519.962612 51.84 
L 519.962612 384.48 
z
" style="fill:#008000;opacity:0.04;"/>
   </g>
   <g id="patch_59">
    <path clip-path="url(#pc9f03d45ac)" d="M 519.962612 371.1744 
L 519.962612 51.84 
L 524.249424 51.84 
L 524.249424 371.1744 
z
" style="fill:#008000;opacity:0.5;"/>
   </g>
   <g id="patch_60">
    <path clip-path="url(#pc9f03d45ac)" d="M 524.249424 384.48 
L 524.249424 51.84 
L 528.536236 51.84 
L 528.536236 384.48 
z
" style="fill:#008000;opacity:0.04;"/>
   </g>
   <g id="patch_61">
    <path clip-path="url(#pc9f03d45ac)" d="M 532.823047 384.48 
L 532.823047 51.84 
L 537.109859 51.84 
L 537.109859 384.48 
z
" style="fill:#008000;opacity:0.04;"/>
   </g>
   <g id="patch_62">
    <path clip-path="url(#pc9f03d45ac)" d="M 541.396671 384.48 
L 541.396671 51.84 
L 545.683483 51.84 
L 545.683483 384.48 
z
" style="fill:#008000;opacity:0.04;"/>
   </g>
   <g id="patch_63">
    <path clip-path="url(#pc9f03d45ac)" d="M 549.970294 384.48 
L 549.970294 51.84 
L 554.257106 51.84 
L 554.257106 384.48 
z
" style="fill:#008000;opacity:0.04;"/>
   </g>
   <g id="patch_64">
    <path clip-path="url(#pc9f03d45ac)" d="M 558.543918 384.48 
L 558.543918 51.84 
L 562.83073 51.84 
L 562.83073 384.48 
z
" style="fill:#008000;opacity:0.04;"/>
   </g>
   <g id="patch_65">
    <path clip-path="url(#pc9f03d45ac)" d="M 567.117542 384.48 
L 567.117542 51.84 
L 571.404353 51.84 
L 571.404353 384.48 
z
" style="fill:#008000;opacity:0.04;"/>
   </g>
   <g id="patch_66">
    <path clip-path="url(#pc9f03d45ac)" d="M 575.691165 384.48 
L 575.691165 51.84 
L 579.977977 51.84 
L 579.977977 384.48 
z
" style="fill:#008000;opacity:0.04;"/>
   </g>
   <g id="patch_67">
    <path clip-path="url(#pc9f03d45ac)" d="M 584.264789 384.48 
L 584.264789 51.84 
L 588.551601 51.84 
L 588.551601 384.48 
z
" style="fill:#008000;opacity:0.04;"/>
   </g>
   <g id="patch_68">
    <path clip-path="url(#pc9f03d45ac)" d="M 592.838412 384.48 
L 592.838412 51.84 
L 597.125224 51.84 
L 597.125224 384.48 
z
" style="fill:#008000;opacity:0.04;"/>
   </g>
   <g id="patch_69">
    <path clip-path="url(#pc9f03d45ac)" d="M 601.412036 384.48 
L 601.412036 51.84 
L 605.698848 51.84 
L 605.698848 384.48 
z
" style="fill:#008000;opacity:0.04;"/>
   </g>
   <g id="patch_70">
    <path clip-path="url(#pc9f03d45ac)" d="M 609.985659 384.48 
L 609.985659 51.84 
L 614.272471 51.84 
L 614.272471 384.48 
z
" style="fill:#008000;opacity:0.04;"/>
   </g>
   <g id="patch_71">
    <path clip-path="url(#pc9f03d45ac)" d="M 618.559283 384.48 
L 618.559283 51.84 
L 622.846095 51.84 
L 622.846095 384.48 
z
" style="fill:#008000;opacity:0.04;"/>
   </g>
   <g id="patch_72">
    <path clip-path="url(#pc9f03d45ac)" d="M 627.132907 384.48 
L 627.132907 51.84 
L 631.419718 51.84 
L 631.419718 384.48 
z
" style="fill:#008000;opacity:0.04;"/>
   </g>
   <g id="patch_73">
    <path clip-path="url(#pc9f03d45ac)" d="M 635.70653 384.48 
L 635.70653 51.84 
L 639.993342 51.84 
L 639.993342 384.48 
z
" style="fill:#008000;opacity:0.04;"/>
   </g>
   <g id="patch_74">
    <path clip-path="url(#pc9f03d45ac)" d="M 644.280154 384.48 
L 644.280154 51.84 
L 648.566965 51.84 
L 648.566965 384.48 
z
" style="fill:#008000;opacity:0.04;"/>
   </g>
   <g id="patch_75">
    <path clip-path="url(#pc9f03d45ac)" d="M 652.853777 384.48 
L 652.853777 51.84 
L 657.140589 51.84 
L 657.140589 384.48 
z
" style="fill:#008000;opacity:0.04;"/>
   </g>
   <g id="patch_76">
    <path clip-path="url(#pc9f03d45ac)" d="M 661.427401 384.48 
L 661.427401 51.84 
L 665.714213 51.84 
L 665.714213 384.48 
z
" style="fill:#008000;opacity:0.04;"/>
   </g>
   <g id="patch_77">
    <path clip-path="url(#pc9f03d45ac)" d="M 670.001024 384.48 
L 670.001024 51.84 
L 674.287836 51.84 
L 674.287836 384.48 
z
" style="fill:#008000;opacity:0.04;"/>
   </g>
   <g id="patch_78">
    <path clip-path="url(#pc9f03d45ac)" d="M 678.574648 384.48 
L 678.574648 51.84 
L 682.86146 51.84 
L 682.86146 384.48 
z
" style="fill:#008000;opacity:0.04;"/>
   </g>
   <g id="patch_79">
    <path clip-path="url(#pc9f03d45ac)" d="M 687.148271 384.48 
L 687.148271 51.84 
L 691.435083 51.84 
L 691.435083 384.48 
z
" style="fill:#008000;opacity:0.04;"/>
   </g>
   <g id="patch_80">
    <path clip-path="url(#pc9f03d45ac)" d="M 695.721895 384.48 
L 695.721895 51.84 
L 700.008707 51.84 
L 700.008707 384.48 
z
" style="fill:#008000;opacity:0.04;"/>
   </g>
   <g id="patch_81">
    <path clip-path="url(#pc9f03d45ac)" d="M 704.295519 384.48 
L 704.295519 51.84 
L 708.58233 51.84 
L 708.58233 384.48 
z
" style="fill:#008000;opacity:0.04;"/>
   </g>
   <g id="patch_82">
    <path clip-path="url(#pc9f03d45ac)" d="M 712.869142 384.48 
L 712.869142 51.84 
L 717.155954 51.84 
L 717.155954 384.48 
z
" style="fill:#008000;opacity:0.04;"/>
   </g>
   <g id="patch_83">
    <path clip-path="url(#pc9f03d45ac)" d="M 721.442766 384.48 
L 721.442766 51.84 
L 725.729577 51.84 
L 725.729577 384.48 
z
" style="fill:#008000;opacity:0.04;"/>
   </g>
   <g id="patch_84">
    <path clip-path="url(#pc9f03d45ac)" d="M 730.016389 384.48 
L 730.016389 51.84 
L 734.303201 51.84 
L 734.303201 384.48 
z
" style="fill:#008000;opacity:0.04;"/>
   </g>
   <g id="patch_85">
    <path clip-path="url(#pc9f03d45ac)" d="M 738.590013 384.48 
L 738.590013 51.84 
L 742.876825 51.84 
L 742.876825 384.48 
z
" style="fill:#008000;opacity:0.04;"/>
   </g>
   <g id="matplotlib.axis_1">
    <g id="xtick_1">
     <g id="line2d_1">
      <defs>
       <path d="M 0 0 
L 0 3.5 
" id="m5c1e4c02dc" style="stroke:#000000;stroke-width:0.8;"/>
      </defs>
      <g>
       <use style="stroke:#000000;stroke-width:0.8;" x="138.436364" xlink:href="#m5c1e4c02dc" y="384.48"/>
      </g>
     </g>
     <g id="text_1">
      <!-- 0 -->
      <defs>
       <path d="M 31.78125 66.40625 
Q 24.171875 66.40625 20.328125 58.90625 
Q 16.5 51.421875 16.5 36.375 
Q 16.5 21.390625 20.328125 13.890625 
Q 24.171875 6.390625 31.78125 6.390625 
Q 39.453125 6.390625 43.28125 13.890625 
Q 47.125 21.390625 47.125 36.375 
Q 47.125 51.421875 43.28125 58.90625 
Q 39.453125 66.40625 31.78125 66.40625 
z
M 31.78125 74.21875 
Q 44.046875 74.21875 50.515625 64.515625 
Q 56.984375 54.828125 56.984375 36.375 
Q 56.984375 17.96875 50.515625 8.265625 
Q 44.046875 -1.421875 31.78125 -1.421875 
Q 19.53125 -1.421875 13.0625 8.265625 
Q 6.59375 17.96875 6.59375 36.375 
Q 6.59375 54.828125 13.0625 64.515625 
Q 19.53125 74.21875 31.78125 74.21875 
z
" id="DejaVuSans-48"/>
      </defs>
      <g transform="translate(135.255114 399.078438)scale(0.1 -0.1)">
       <use xlink:href="#DejaVuSans-48"/>
      </g>
     </g>
    </g>
    <g id="xtick_2">
     <g id="line2d_2">
      <g>
       <use style="stroke:#000000;stroke-width:0.8;" x="224.172599" xlink:href="#m5c1e4c02dc" y="384.48"/>
      </g>
     </g>
     <g id="text_2">
      <!-- 200 -->
      <defs>
       <path d="M 19.1875 8.296875 
L 53.609375 8.296875 
L 53.609375 0 
L 7.328125 0 
L 7.328125 8.296875 
Q 12.9375 14.109375 22.625 23.890625 
Q 32.328125 33.6875 34.8125 36.53125 
Q 39.546875 41.84375 41.421875 45.53125 
Q 43.3125 49.21875 43.3125 52.78125 
Q 43.3125 58.59375 39.234375 62.25 
Q 35.15625 65.921875 28.609375 65.921875 
Q 23.96875 65.921875 18.8125 64.3125 
Q 13.671875 62.703125 7.8125 59.421875 
L 7.8125 69.390625 
Q 13.765625 71.78125 18.9375 73 
Q 24.125 74.21875 28.421875 74.21875 
Q 39.75 74.21875 46.484375 68.546875 
Q 53.21875 62.890625 53.21875 53.421875 
Q 53.21875 48.921875 51.53125 44.890625 
Q 49.859375 40.875 45.40625 35.40625 
Q 44.1875 33.984375 37.640625 27.21875 
Q 31.109375 20.453125 19.1875 8.296875 
z
" id="DejaVuSans-50"/>
      </defs>
      <g transform="translate(214.628849 399.078438)scale(0.1 -0.1)">
       <use xlink:href="#DejaVuSans-50"/>
       <use x="63.623047" xlink:href="#DejaVuSans-48"/>
       <use x="127.246094" xlink:href="#DejaVuSans-48"/>
      </g>
     </g>
    </g>
    <g id="xtick_3">
     <g id="line2d_3">
      <g>
       <use style="stroke:#000000;stroke-width:0.8;" x="309.908835" xlink:href="#m5c1e4c02dc" y="384.48"/>
      </g>
     </g>
     <g id="text_3">
      <!-- 400 -->
      <defs>
       <path d="M 37.796875 64.3125 
L 12.890625 25.390625 
L 37.796875 25.390625 
z
M 35.203125 72.90625 
L 47.609375 72.90625 
L 47.609375 25.390625 
L 58.015625 25.390625 
L 58.015625 17.1875 
L 47.609375 17.1875 
L 47.609375 0 
L 37.796875 0 
L 37.796875 17.1875 
L 4.890625 17.1875 
L 4.890625 26.703125 
z
" id="DejaVuSans-52"/>
      </defs>
      <g transform="translate(300.365085 399.078438)scale(0.1 -0.1)">
       <use xlink:href="#DejaVuSans-52"/>
       <use x="63.623047" xlink:href="#DejaVuSans-48"/>
       <use x="127.246094" xlink:href="#DejaVuSans-48"/>
      </g>
     </g>
    </g>
    <g id="xtick_4">
     <g id="line2d_4">
      <g>
       <use style="stroke:#000000;stroke-width:0.8;" x="395.64507" xlink:href="#m5c1e4c02dc" y="384.48"/>
      </g>
     </g>
     <g id="text_4">
      <!-- 600 -->
      <defs>
       <path d="M 33.015625 40.375 
Q 26.375 40.375 22.484375 35.828125 
Q 18.609375 31.296875 18.609375 23.390625 
Q 18.609375 15.53125 22.484375 10.953125 
Q 26.375 6.390625 33.015625 6.390625 
Q 39.65625 6.390625 43.53125 10.953125 
Q 47.40625 15.53125 47.40625 23.390625 
Q 47.40625 31.296875 43.53125 35.828125 
Q 39.65625 40.375 33.015625 40.375 
z
M 52.59375 71.296875 
L 52.59375 62.3125 
Q 48.875 64.0625 45.09375 64.984375 
Q 41.3125 65.921875 37.59375 65.921875 
Q 27.828125 65.921875 22.671875 59.328125 
Q 17.53125 52.734375 16.796875 39.40625 
Q 19.671875 43.65625 24.015625 45.921875 
Q 28.375 48.1875 33.59375 48.1875 
Q 44.578125 48.1875 50.953125 41.515625 
Q 57.328125 34.859375 57.328125 23.390625 
Q 57.328125 12.15625 50.6875 5.359375 
Q 44.046875 -1.421875 33.015625 -1.421875 
Q 20.359375 -1.421875 13.671875 8.265625 
Q 6.984375 17.96875 6.984375 36.375 
Q 6.984375 53.65625 15.1875 63.9375 
Q 23.390625 74.21875 37.203125 74.21875 
Q 40.921875 74.21875 44.703125 73.484375 
Q 48.484375 72.75 52.59375 71.296875 
z
" id="DejaVuSans-54"/>
      </defs>
      <g transform="translate(386.10132 399.078438)scale(0.1 -0.1)">
       <use xlink:href="#DejaVuSans-54"/>
       <use x="63.623047" xlink:href="#DejaVuSans-48"/>
       <use x="127.246094" xlink:href="#DejaVuSans-48"/>
      </g>
     </g>
    </g>
    <g id="xtick_5">
     <g id="line2d_5">
      <g>
       <use style="stroke:#000000;stroke-width:0.8;" x="481.381306" xlink:href="#m5c1e4c02dc" y="384.48"/>
      </g>
     </g>
     <g id="text_5">
      <!-- 800 -->
      <defs>
       <path d="M 31.78125 34.625 
Q 24.75 34.625 20.71875 30.859375 
Q 16.703125 27.09375 16.703125 20.515625 
Q 16.703125 13.921875 20.71875 10.15625 
Q 24.75 6.390625 31.78125 6.390625 
Q 38.8125 6.390625 42.859375 10.171875 
Q 46.921875 13.96875 46.921875 20.515625 
Q 46.921875 27.09375 42.890625 30.859375 
Q 38.875 34.625 31.78125 34.625 
z
M 21.921875 38.8125 
Q 15.578125 40.375 12.03125 44.71875 
Q 8.5 49.078125 8.5 55.328125 
Q 8.5 64.0625 14.71875 69.140625 
Q 20.953125 74.21875 31.78125 74.21875 
Q 42.671875 74.21875 48.875 69.140625 
Q 55.078125 64.0625 55.078125 55.328125 
Q 55.078125 49.078125 51.53125 44.71875 
Q 48 40.375 41.703125 38.8125 
Q 48.828125 37.15625 52.796875 32.3125 
Q 56.78125 27.484375 56.78125 20.515625 
Q 56.78125 9.90625 50.3125 4.234375 
Q 43.84375 -1.421875 31.78125 -1.421875 
Q 19.734375 -1.421875 13.25 4.234375 
Q 6.78125 9.90625 6.78125 20.515625 
Q 6.78125 27.484375 10.78125 32.3125 
Q 14.796875 37.15625 21.921875 38.8125 
z
M 18.3125 54.390625 
Q 18.3125 48.734375 21.84375 45.5625 
Q 25.390625 42.390625 31.78125 42.390625 
Q 38.140625 42.390625 41.71875 45.5625 
Q 45.3125 48.734375 45.3125 54.390625 
Q 45.3125 60.0625 41.71875 63.234375 
Q 38.140625 66.40625 31.78125 66.40625 
Q 25.390625 66.40625 21.84375 63.234375 
Q 18.3125 60.0625 18.3125 54.390625 
z
" id="DejaVuSans-56"/>
      </defs>
      <g transform="translate(471.837556 399.078438)scale(0.1 -0.1)">
       <use xlink:href="#DejaVuSans-56"/>
       <use x="63.623047" xlink:href="#DejaVuSans-48"/>
       <use x="127.246094" xlink:href="#DejaVuSans-48"/>
      </g>
     </g>
    </g>
    <g id="xtick_6">
     <g id="line2d_6">
      <g>
       <use style="stroke:#000000;stroke-width:0.8;" x="567.117542" xlink:href="#m5c1e4c02dc" y="384.48"/>
      </g>
     </g>
     <g id="text_6">
      <!-- 1000 -->
      <defs>
       <path d="M 12.40625 8.296875 
L 28.515625 8.296875 
L 28.515625 63.921875 
L 10.984375 60.40625 
L 10.984375 69.390625 
L 28.421875 72.90625 
L 38.28125 72.90625 
L 38.28125 8.296875 
L 54.390625 8.296875 
L 54.390625 0 
L 12.40625 0 
z
" id="DejaVuSans-49"/>
      </defs>
      <g transform="translate(554.392542 399.078438)scale(0.1 -0.1)">
       <use xlink:href="#DejaVuSans-49"/>
       <use x="63.623047" xlink:href="#DejaVuSans-48"/>
       <use x="127.246094" xlink:href="#DejaVuSans-48"/>
       <use x="190.869141" xlink:href="#DejaVuSans-48"/>
      </g>
     </g>
    </g>
    <g id="xtick_7">
     <g id="line2d_7">
      <g>
       <use style="stroke:#000000;stroke-width:0.8;" x="652.853777" xlink:href="#m5c1e4c02dc" y="384.48"/>
      </g>
     </g>
     <g id="text_7">
      <!-- 1200 -->
      <g transform="translate(640.128777 399.078438)scale(0.1 -0.1)">
       <use xlink:href="#DejaVuSans-49"/>
       <use x="63.623047" xlink:href="#DejaVuSans-50"/>
       <use x="127.246094" xlink:href="#DejaVuSans-48"/>
       <use x="190.869141" xlink:href="#DejaVuSans-48"/>
      </g>
     </g>
    </g>
    <g id="xtick_8">
     <g id="line2d_8">
      <g>
       <use style="stroke:#000000;stroke-width:0.8;" x="738.590013" xlink:href="#m5c1e4c02dc" y="384.48"/>
      </g>
     </g>
     <g id="text_8">
      <!-- 1400 -->
      <g transform="translate(725.865013 399.078438)scale(0.1 -0.1)">
       <use xlink:href="#DejaVuSans-49"/>
       <use x="63.623047" xlink:href="#DejaVuSans-52"/>
       <use x="127.246094" xlink:href="#DejaVuSans-48"/>
       <use x="190.869141" xlink:href="#DejaVuSans-48"/>
      </g>
     </g>
    </g>
    <g id="text_9">
     <!-- Timestamp -->
     <defs>
      <path d="M -0.296875 72.90625 
L 61.375 72.90625 
L 61.375 64.59375 
L 35.5 64.59375 
L 35.5 0 
L 25.59375 0 
L 25.59375 64.59375 
L -0.296875 64.59375 
z
" id="DejaVuSans-84"/>
      <path d="M 9.421875 54.6875 
L 18.40625 54.6875 
L 18.40625 0 
L 9.421875 0 
z
M 9.421875 75.984375 
L 18.40625 75.984375 
L 18.40625 64.59375 
L 9.421875 64.59375 
z
" id="DejaVuSans-105"/>
      <path d="M 52 44.1875 
Q 55.375 50.25 60.0625 53.125 
Q 64.75 56 71.09375 56 
Q 79.640625 56 84.28125 50.015625 
Q 88.921875 44.046875 88.921875 33.015625 
L 88.921875 0 
L 79.890625 0 
L 79.890625 32.71875 
Q 79.890625 40.578125 77.09375 44.375 
Q 74.3125 48.1875 68.609375 48.1875 
Q 61.625 48.1875 57.5625 43.546875 
Q 53.515625 38.921875 53.515625 30.90625 
L 53.515625 0 
L 44.484375 0 
L 44.484375 32.71875 
Q 44.484375 40.625 41.703125 44.40625 
Q 38.921875 48.1875 33.109375 48.1875 
Q 26.21875 48.1875 22.15625 43.53125 
Q 18.109375 38.875 18.109375 30.90625 
L 18.109375 0 
L 9.078125 0 
L 9.078125 54.6875 
L 18.109375 54.6875 
L 18.109375 46.1875 
Q 21.1875 51.21875 25.484375 53.609375 
Q 29.78125 56 35.6875 56 
Q 41.65625 56 45.828125 52.96875 
Q 50 49.953125 52 44.1875 
z
" id="DejaVuSans-109"/>
      <path d="M 56.203125 29.59375 
L 56.203125 25.203125 
L 14.890625 25.203125 
Q 15.484375 15.921875 20.484375 11.0625 
Q 25.484375 6.203125 34.421875 6.203125 
Q 39.59375 6.203125 44.453125 7.46875 
Q 49.3125 8.734375 54.109375 11.28125 
L 54.109375 2.78125 
Q 49.265625 0.734375 44.1875 -0.34375 
Q 39.109375 -1.421875 33.890625 -1.421875 
Q 20.796875 -1.421875 13.15625 6.1875 
Q 5.515625 13.8125 5.515625 26.8125 
Q 5.515625 40.234375 12.765625 48.109375 
Q 20.015625 56 32.328125 56 
Q 43.359375 56 49.78125 48.890625 
Q 56.203125 41.796875 56.203125 29.59375 
z
M 47.21875 32.234375 
Q 47.125 39.59375 43.09375 43.984375 
Q 39.0625 48.390625 32.421875 48.390625 
Q 24.90625 48.390625 20.390625 44.140625 
Q 15.875 39.890625 15.1875 32.171875 
z
" id="DejaVuSans-101"/>
      <path d="M 44.28125 53.078125 
L 44.28125 44.578125 
Q 40.484375 46.53125 36.375 47.5 
Q 32.28125 48.484375 27.875 48.484375 
Q 21.1875 48.484375 17.84375 46.4375 
Q 14.5 44.390625 14.5 40.28125 
Q 14.5 37.15625 16.890625 35.375 
Q 19.28125 33.59375 26.515625 31.984375 
L 29.59375 31.296875 
Q 39.15625 29.25 43.1875 25.515625 
Q 47.21875 21.78125 47.21875 15.09375 
Q 47.21875 7.46875 41.1875 3.015625 
Q 35.15625 -1.421875 24.609375 -1.421875 
Q 20.21875 -1.421875 15.453125 -0.5625 
Q 10.6875 0.296875 5.421875 2 
L 5.421875 11.28125 
Q 10.40625 8.6875 15.234375 7.390625 
Q 20.0625 6.109375 24.8125 6.109375 
Q 31.15625 6.109375 34.5625 8.28125 
Q 37.984375 10.453125 37.984375 14.40625 
Q 37.984375 18.0625 35.515625 20.015625 
Q 33.0625 21.96875 24.703125 23.78125 
L 21.578125 24.515625 
Q 13.234375 26.265625 9.515625 29.90625 
Q 5.8125 33.546875 5.8125 39.890625 
Q 5.8125 47.609375 11.28125 51.796875 
Q 16.75 56 26.8125 56 
Q 31.78125 56 36.171875 55.265625 
Q 40.578125 54.546875 44.28125 53.078125 
z
" id="DejaVuSans-115"/>
      <path d="M 18.3125 70.21875 
L 18.3125 54.6875 
L 36.8125 54.6875 
L 36.8125 47.703125 
L 18.3125 47.703125 
L 18.3125 18.015625 
Q 18.3125 11.328125 20.140625 9.421875 
Q 21.96875 7.515625 27.59375 7.515625 
L 36.8125 7.515625 
L 36.8125 0 
L 27.59375 0 
Q 17.1875 0 13.234375 3.875 
Q 9.28125 7.765625 9.28125 18.015625 
L 9.28125 47.703125 
L 2.6875 47.703125 
L 2.6875 54.6875 
L 9.28125 54.6875 
L 9.28125 70.21875 
z
" id="DejaVuSans-116"/>
      <path d="M 34.28125 27.484375 
Q 23.390625 27.484375 19.1875 25 
Q 14.984375 22.515625 14.984375 16.5 
Q 14.984375 11.71875 18.140625 8.90625 
Q 21.296875 6.109375 26.703125 6.109375 
Q 34.1875 6.109375 38.703125 11.40625 
Q 43.21875 16.703125 43.21875 25.484375 
L 43.21875 27.484375 
z
M 52.203125 31.203125 
L 52.203125 0 
L 43.21875 0 
L 43.21875 8.296875 
Q 40.140625 3.328125 35.546875 0.953125 
Q 30.953125 -1.421875 24.3125 -1.421875 
Q 15.921875 -1.421875 10.953125 3.296875 
Q 6 8.015625 6 15.921875 
Q 6 25.140625 12.171875 29.828125 
Q 18.359375 34.515625 30.609375 34.515625 
L 43.21875 34.515625 
L 43.21875 35.40625 
Q 43.21875 41.609375 39.140625 45 
Q 35.0625 48.390625 27.6875 48.390625 
Q 23 48.390625 18.546875 47.265625 
Q 14.109375 46.140625 10.015625 43.890625 
L 10.015625 52.203125 
Q 14.9375 54.109375 19.578125 55.046875 
Q 24.21875 56 28.609375 56 
Q 40.484375 56 46.34375 49.84375 
Q 52.203125 43.703125 52.203125 31.203125 
z
" id="DejaVuSans-97"/>
      <path d="M 18.109375 8.203125 
L 18.109375 -20.796875 
L 9.078125 -20.796875 
L 9.078125 54.6875 
L 18.109375 54.6875 
L 18.109375 46.390625 
Q 20.953125 51.265625 25.265625 53.625 
Q 29.59375 56 35.59375 56 
Q 45.5625 56 51.78125 48.09375 
Q 58.015625 40.1875 58.015625 27.296875 
Q 58.015625 14.40625 51.78125 6.484375 
Q 45.5625 -1.421875 35.59375 -1.421875 
Q 29.59375 -1.421875 25.265625 0.953125 
Q 20.953125 3.328125 18.109375 8.203125 
z
M 48.6875 27.296875 
Q 48.6875 37.203125 44.609375 42.84375 
Q 40.53125 48.484375 33.40625 48.484375 
Q 26.265625 48.484375 22.1875 42.84375 
Q 18.109375 37.203125 18.109375 27.296875 
Q 18.109375 17.390625 22.1875 11.75 
Q 26.265625 6.109375 33.40625 6.109375 
Q 40.53125 6.109375 44.609375 11.75 
Q 48.6875 17.390625 48.6875 27.296875 
z
" id="DejaVuSans-112"/>
     </defs>
     <g transform="translate(414.739062 412.756563)scale(0.1 -0.1)">
      <use xlink:href="#DejaVuSans-84"/>
      <use x="61.037109" xlink:href="#DejaVuSans-105"/>
      <use x="88.820312" xlink:href="#DejaVuSans-109"/>
      <use x="186.232422" xlink:href="#DejaVuSans-101"/>
      <use x="247.755859" xlink:href="#DejaVuSans-115"/>
      <use x="299.855469" xlink:href="#DejaVuSans-116"/>
      <use x="339.064453" xlink:href="#DejaVuSans-97"/>
      <use x="400.34375" xlink:href="#DejaVuSans-109"/>
      <use x="497.755859" xlink:href="#DejaVuSans-112"/>
     </g>
    </g>
   </g>
   <g id="matplotlib.axis_2">
    <g id="ytick_1">
     <g id="line2d_9">
      <defs>
       <path d="M 0 0 
L -3.5 0 
" id="m3619923f24" style="stroke:#000000;stroke-width:0.8;"/>
      </defs>
      <g>
       <use style="stroke:#000000;stroke-width:0.8;" x="108" xlink:href="#m3619923f24" y="362.185726"/>
      </g>
     </g>
     <g id="text_10">
      <!-- 0 -->
      <g transform="translate(94.6375 365.984945)scale(0.1 -0.1)">
       <use xlink:href="#DejaVuSans-48"/>
      </g>
     </g>
    </g>
    <g id="ytick_2">
     <g id="line2d_10">
      <g>
       <use style="stroke:#000000;stroke-width:0.8;" x="108" xlink:href="#m3619923f24" y="320.040137"/>
      </g>
     </g>
     <g id="text_11">
      <!-- 5000 -->
      <defs>
       <path d="M 10.796875 72.90625 
L 49.515625 72.90625 
L 49.515625 64.59375 
L 19.828125 64.59375 
L 19.828125 46.734375 
Q 21.96875 47.46875 24.109375 47.828125 
Q 26.265625 48.1875 28.421875 48.1875 
Q 40.625 48.1875 47.75 41.5 
Q 54.890625 34.8125 54.890625 23.390625 
Q 54.890625 11.625 47.5625 5.09375 
Q 40.234375 -1.421875 26.90625 -1.421875 
Q 22.3125 -1.421875 17.546875 -0.640625 
Q 12.796875 0.140625 7.71875 1.703125 
L 7.71875 11.625 
Q 12.109375 9.234375 16.796875 8.0625 
Q 21.484375 6.890625 26.703125 6.890625 
Q 35.15625 6.890625 40.078125 11.328125 
Q 45.015625 15.765625 45.015625 23.390625 
Q 45.015625 31 40.078125 35.4375 
Q 35.15625 39.890625 26.703125 39.890625 
Q 22.75 39.890625 18.8125 39.015625 
Q 14.890625 38.140625 10.796875 36.28125 
z
" id="DejaVuSans-53"/>
      </defs>
      <g transform="translate(75.55 323.839355)scale(0.1 -0.1)">
       <use xlink:href="#DejaVuSans-53"/>
       <use x="63.623047" xlink:href="#DejaVuSans-48"/>
       <use x="127.246094" xlink:href="#DejaVuSans-48"/>
       <use x="190.869141" xlink:href="#DejaVuSans-48"/>
      </g>
     </g>
    </g>
    <g id="ytick_3">
     <g id="line2d_11">
      <g>
       <use style="stroke:#000000;stroke-width:0.8;" x="108" xlink:href="#m3619923f24" y="277.894547"/>
      </g>
     </g>
     <g id="text_12">
      <!-- 10000 -->
      <g transform="translate(69.1875 281.693766)scale(0.1 -0.1)">
       <use xlink:href="#DejaVuSans-49"/>
       <use x="63.623047" xlink:href="#DejaVuSans-48"/>
       <use x="127.246094" xlink:href="#DejaVuSans-48"/>
       <use x="190.869141" xlink:href="#DejaVuSans-48"/>
       <use x="254.492188" xlink:href="#DejaVuSans-48"/>
      </g>
     </g>
    </g>
    <g id="ytick_4">
     <g id="line2d_12">
      <g>
       <use style="stroke:#000000;stroke-width:0.8;" x="108" xlink:href="#m3619923f24" y="235.748958"/>
      </g>
     </g>
     <g id="text_13">
      <!-- 15000 -->
      <g transform="translate(69.1875 239.548177)scale(0.1 -0.1)">
       <use xlink:href="#DejaVuSans-49"/>
       <use x="63.623047" xlink:href="#DejaVuSans-53"/>
       <use x="127.246094" xlink:href="#DejaVuSans-48"/>
       <use x="190.869141" xlink:href="#DejaVuSans-48"/>
       <use x="254.492188" xlink:href="#DejaVuSans-48"/>
      </g>
     </g>
    </g>
    <g id="ytick_5">
     <g id="line2d_13">
      <g>
       <use style="stroke:#000000;stroke-width:0.8;" x="108" xlink:href="#m3619923f24" y="193.603369"/>
      </g>
     </g>
     <g id="text_14">
      <!-- 20000 -->
      <g transform="translate(69.1875 197.402587)scale(0.1 -0.1)">
       <use xlink:href="#DejaVuSans-50"/>
       <use x="63.623047" xlink:href="#DejaVuSans-48"/>
       <use x="127.246094" xlink:href="#DejaVuSans-48"/>
       <use x="190.869141" xlink:href="#DejaVuSans-48"/>
       <use x="254.492188" xlink:href="#DejaVuSans-48"/>
      </g>
     </g>
    </g>
    <g id="ytick_6">
     <g id="line2d_14">
      <g>
       <use style="stroke:#000000;stroke-width:0.8;" x="108" xlink:href="#m3619923f24" y="151.457779"/>
      </g>
     </g>
     <g id="text_15">
      <!-- 25000 -->
      <g transform="translate(69.1875 155.256998)scale(0.1 -0.1)">
       <use xlink:href="#DejaVuSans-50"/>
       <use x="63.623047" xlink:href="#DejaVuSans-53"/>
       <use x="127.246094" xlink:href="#DejaVuSans-48"/>
       <use x="190.869141" xlink:href="#DejaVuSans-48"/>
       <use x="254.492188" xlink:href="#DejaVuSans-48"/>
      </g>
     </g>
    </g>
    <g id="ytick_7">
     <g id="line2d_15">
      <g>
       <use style="stroke:#000000;stroke-width:0.8;" x="108" xlink:href="#m3619923f24" y="109.31219"/>
      </g>
     </g>
     <g id="text_16">
      <!-- 30000 -->
      <defs>
       <path d="M 40.578125 39.3125 
Q 47.65625 37.796875 51.625 33 
Q 55.609375 28.21875 55.609375 21.1875 
Q 55.609375 10.40625 48.1875 4.484375 
Q 40.765625 -1.421875 27.09375 -1.421875 
Q 22.515625 -1.421875 17.65625 -0.515625 
Q 12.796875 0.390625 7.625 2.203125 
L 7.625 11.71875 
Q 11.71875 9.328125 16.59375 8.109375 
Q 21.484375 6.890625 26.8125 6.890625 
Q 36.078125 6.890625 40.9375 10.546875 
Q 45.796875 14.203125 45.796875 21.1875 
Q 45.796875 27.640625 41.28125 31.265625 
Q 36.765625 34.90625 28.71875 34.90625 
L 20.21875 34.90625 
L 20.21875 43.015625 
L 29.109375 43.015625 
Q 36.375 43.015625 40.234375 45.921875 
Q 44.09375 48.828125 44.09375 54.296875 
Q 44.09375 59.90625 40.109375 62.90625 
Q 36.140625 65.921875 28.71875 65.921875 
Q 24.65625 65.921875 20.015625 65.03125 
Q 15.375 64.15625 9.8125 62.3125 
L 9.8125 71.09375 
Q 15.4375 72.65625 20.34375 73.4375 
Q 25.25 74.21875 29.59375 74.21875 
Q 40.828125 74.21875 47.359375 69.109375 
Q 53.90625 64.015625 53.90625 55.328125 
Q 53.90625 49.265625 50.4375 45.09375 
Q 46.96875 40.921875 40.578125 39.3125 
z
" id="DejaVuSans-51"/>
      </defs>
      <g transform="translate(69.1875 113.111409)scale(0.1 -0.1)">
       <use xlink:href="#DejaVuSans-51"/>
       <use x="63.623047" xlink:href="#DejaVuSans-48"/>
       <use x="127.246094" xlink:href="#DejaVuSans-48"/>
       <use x="190.869141" xlink:href="#DejaVuSans-48"/>
       <use x="254.492188" xlink:href="#DejaVuSans-48"/>
      </g>
     </g>
    </g>
    <g id="ytick_8">
     <g id="line2d_16">
      <g>
       <use style="stroke:#000000;stroke-width:0.8;" x="108" xlink:href="#m3619923f24" y="67.166601"/>
      </g>
     </g>
     <g id="text_17">
      <!-- 35000 -->
      <g transform="translate(69.1875 70.965819)scale(0.1 -0.1)">
       <use xlink:href="#DejaVuSans-51"/>
       <use x="63.623047" xlink:href="#DejaVuSans-53"/>
       <use x="127.246094" xlink:href="#DejaVuSans-48"/>
       <use x="190.869141" xlink:href="#DejaVuSans-48"/>
       <use x="254.492188" xlink:href="#DejaVuSans-48"/>
      </g>
     </g>
    </g>
    <g id="text_18">
     <!-- Value -->
     <defs>
      <path d="M 28.609375 0 
L 0.78125 72.90625 
L 11.078125 72.90625 
L 34.1875 11.53125 
L 57.328125 72.90625 
L 67.578125 72.90625 
L 39.796875 0 
z
" id="DejaVuSans-86"/>
      <path d="M 9.421875 75.984375 
L 18.40625 75.984375 
L 18.40625 0 
L 9.421875 0 
z
" id="DejaVuSans-108"/>
      <path d="M 8.5 21.578125 
L 8.5 54.6875 
L 17.484375 54.6875 
L 17.484375 21.921875 
Q 17.484375 14.15625 20.5 10.265625 
Q 23.53125 6.390625 29.59375 6.390625 
Q 36.859375 6.390625 41.078125 11.03125 
Q 45.3125 15.671875 45.3125 23.6875 
L 45.3125 54.6875 
L 54.296875 54.6875 
L 54.296875 0 
L 45.3125 0 
L 45.3125 8.40625 
Q 42.046875 3.421875 37.71875 1 
Q 33.40625 -1.421875 27.6875 -1.421875 
Q 18.265625 -1.421875 13.375 4.4375 
Q 8.5 10.296875 8.5 21.578125 
z
M 31.109375 56 
z
" id="DejaVuSans-117"/>
     </defs>
     <g transform="translate(63.107813 232.273281)rotate(-90)scale(0.1 -0.1)">
      <use xlink:href="#DejaVuSans-86"/>
      <use x="68.298828" xlink:href="#DejaVuSans-97"/>
      <use x="129.578125" xlink:href="#DejaVuSans-108"/>
      <use x="157.361328" xlink:href="#DejaVuSans-117"/>
      <use x="220.740234" xlink:href="#DejaVuSans-101"/>
     </g>
    </g>
   </g>
   <g id="line2d_17">
    <path clip-path="url(#pc9f03d45ac)" d="M 138.436364 359.633777 
L 138.865045 361.930815 
L 139.293726 357.911512 
L 139.722407 357.233438 
L 140.151088 358.121381 
L 140.57977 361.154903 
L 141.437132 357.225193 
L 141.865813 355.934495 
L 142.294494 350.532392 
L 143.151857 355.419697 
L 143.580538 355.460794 
L 144.009219 353.17967 
L 144.4379 352.618053 
L 144.866581 352.28734 
L 145.295262 350.478469 
L 145.723944 352.224147 
L 146.152625 349.192787 
L 146.581306 352.041445 
L 147.009987 349.697324 
L 147.438668 348.193807 
L 147.86735 348.377024 
L 148.296031 346.819508 
L 148.724712 348.286562 
L 149.582074 345.766609 
L 150.010755 349.141872 
L 150.439437 350.255591 
L 150.868118 347.663026 
L 151.72548 348.934631 
L 152.154161 348.844024 
L 152.582843 349.427347 
L 153.011524 346.948863 
L 153.440205 346.359932 
L 153.868886 346.946432 
L 154.297567 350.025273 
L 154.726248 347.122265 
L 155.15493 350.453985 
L 155.583611 346.894411 
L 156.440973 352.097714 
L 157.298335 354.485846 
L 157.727017 354.820457 
L 158.155698 356.340174 
L 158.584379 351.609197 
L 159.01306 352.820649 
L 159.441741 355.474422 
L 159.870423 355.11358 
L 160.299104 356.971762 
L 160.727785 352.095119 
L 161.156466 359.00937 
L 161.585147 358.178553 
L 162.013828 358.192064 
L 162.44251 358.076711 
L 162.871191 360.209507 
L 163.299872 364.785526 
L 163.728553 363.484291 
L 164.157234 360.878225 
L 164.585915 362.133039 
L 165.014597 364.457648 
L 165.443278 363.343736 
L 165.871959 365.172664 
L 166.30064 363.555192 
L 166.729321 367.214428 
L 167.158003 364.109498 
L 168.444046 365.734361 
L 168.872727 365.516361 
L 169.301408 367.489398 
L 169.73009 366.627412 
L 170.158771 365.232383 
L 170.587452 364.471665 
L 171.016133 366.384336 
L 171.444814 366.900976 
L 171.873496 368.413196 
L 172.302177 369.36 
L 172.730858 367.994332 
L 173.159539 363.839897 
L 173.58822 364.575993 
L 174.016901 366.263202 
L 174.445583 366.378431 
L 174.874264 366.042424 
L 175.302945 362.921382 
L 175.731626 364.997286 
L 176.160307 361.575105 
L 176.588988 362.285982 
L 177.01767 360.504973 
L 177.446351 364.19185 
L 177.875032 361.900249 
L 178.303713 363.026935 
L 178.732394 359.517987 
L 179.161076 359.787007 
L 179.589757 359.886614 
L 180.018438 355.797311 
L 180.447119 357.461721 
L 180.8758 355.225084 
L 181.304481 354.88573 
L 181.733163 357.150388 
L 182.161844 356.056698 
L 182.590525 353.978012 
L 183.019206 355.475656 
L 183.447887 351.354673 
L 183.876569 354.173897 
L 184.30525 347.719712 
L 184.733931 351.068684 
L 185.162612 346.042055 
L 185.591293 349.338796 
L 186.019974 349.666329 
L 186.448656 346.975666 
L 186.877337 346.240185 
L 187.306018 348.852748 
L 187.734699 342.838126 
L 188.16338 346.401895 
L 188.592061 342.925729 
L 189.020743 342.000416 
L 189.449424 342.108834 
L 189.878105 342.053664 
L 190.306786 340.914744 
L 190.735467 342.891948 
L 191.164149 341.921957 
L 191.59283 342.110378 
L 192.021511 336.486798 
L 192.450192 336.307672 
L 193.307554 341.066398 
L 194.164917 335.328642 
L 194.593598 339.064188 
L 195.022279 336.492261 
L 195.45096 339.892448 
L 195.879641 336.645606 
L 196.308323 339.88262 
L 196.737004 340.494517 
L 197.165685 340.074736 
L 197.594366 340.060271 
L 198.023047 340.333995 
L 198.451729 337.349438 
L 198.88041 338.92817 
L 199.309091 339.9962 
L 199.737772 341.819677 
L 200.166453 342.053079 
L 200.595134 341.971605 
L 201.023816 343.08764 
L 201.452497 342.238071 
L 201.881178 340.930171 
L 202.309859 344.653761 
L 202.73854 340.01999 
L 203.167222 345.982698 
L 203.595903 344.180155 
L 204.024584 339.955318 
L 204.881946 346.248124 
L 205.310627 348.048319 
L 205.739309 345.838138 
L 206.596671 348.925625 
L 207.025352 348.185036 
L 207.454033 350.358458 
L 207.882714 344.82459 
L 208.740077 349.638736 
L 209.168758 350.323843 
L 209.597439 353.307998 
L 210.02612 351.044688 
L 210.454802 353.944605 
L 210.883483 355.700958 
L 211.312164 350.517504 
L 211.740845 356.411196 
L 212.169526 355.563387 
L 213.026889 357.514538 
L 213.45557 354.79283 
L 213.884251 359.178367 
L 214.312932 356.828466 
L 214.741613 357.722117 
L 215.170294 359.448266 
L 215.598976 356.975919 
L 216.027657 357.7343 
L 216.456338 358.063589 
L 216.885019 354.97345 
L 217.3137 355.778486 
L 217.742382 356.880536 
L 218.171063 356.246922 
L 218.599744 357.792672 
L 219.028425 356.513021 
L 219.457106 353.697916 
L 219.885787 355.559326 
L 220.314469 354.854929 
L 220.74315 350.832179 
L 221.171831 355.712056 
L 221.600512 352.002067 
L 222.029193 349.882618 
L 222.457875 354.903605 
L 222.886556 352.227967 
L 223.315237 352.422116 
L 223.743918 351.990884 
L 224.172599 352.417129 
L 224.60128 351.447393 
L 225.029962 346.529722 
L 225.458643 347.123936 
L 225.887324 346.030862 
L 226.316005 343.753989 
L 226.744686 346.729861 
L 227.173367 343.649566 
L 227.602049 344.570277 
L 228.03073 344.635229 
L 228.459411 341.059148 
L 228.888092 341.992783 
L 229.316773 343.34471 
L 229.745455 340.941058 
L 230.174136 336.780019 
L 230.602817 336.632778 
L 231.031498 340.988662 
L 231.460179 337.21433 
L 231.88886 335.014239 
L 232.317542 339.111452 
L 232.746223 332.51057 
L 233.174904 335.635609 
L 233.603585 333.390618 
L 234.032266 333.69033 
L 234.460948 329.651918 
L 234.889629 335.032841 
L 235.31831 331.912481 
L 235.746991 333.229072 
L 236.604353 325.91232 
L 237.033035 332.816479 
L 237.461716 329.641104 
L 237.890397 329.500802 
L 238.319078 325.945937 
L 238.747759 330.634066 
L 239.605122 325.092418 
L 240.033803 328.804442 
L 240.462484 329.613541 
L 241.319846 327.272987 
L 241.748528 330.289778 
L 242.177209 325.280019 
L 242.60589 328.560994 
L 243.034571 334.415137 
L 243.463252 331.139795 
L 243.891933 326.232756 
L 244.320615 331.445857 
L 244.749296 330.073592 
L 245.177977 330.157825 
L 245.606658 333.74598 
L 246.035339 330.106525 
L 246.46402 330.694703 
L 246.892702 328.345647 
L 247.750064 332.861266 
L 248.178745 333.724353 
L 248.607426 332.943684 
L 249.036108 336.4265 
L 249.464789 335.080404 
L 250.322151 335.415329 
L 250.750832 339.305001 
L 251.179513 334.860654 
L 251.608195 336.952555 
L 252.036876 334.047025 
L 252.465557 343.212721 
L 252.894238 341.277357 
L 253.322919 344.053534 
L 253.751601 342.108706 
L 254.180282 341.244021 
L 254.608963 339.074543 
L 255.037644 343.775304 
L 255.466325 345.746477 
L 256.323688 343.131452 
L 256.752369 344.40995 
L 257.18105 342.59089 
L 258.038412 349.059437 
L 258.467093 344.292634 
L 258.895775 348.572074 
L 259.324456 345.425658 
L 260.181818 346.236574 
L 260.610499 343.704184 
L 261.039181 347.526339 
L 261.467862 349.706679 
L 261.896543 347.005297 
L 262.325224 347.519716 
L 263.182586 343.637208 
L 263.611268 350.154235 
L 264.039949 346.821249 
L 264.46863 345.99832 
L 264.897311 344.755108 
L 265.325992 346.832744 
L 265.754673 344.327213 
L 266.183355 343.919117 
L 266.612036 344.223457 
L 267.040717 343.944081 
L 267.469398 340.314554 
L 267.898079 341.294807 
L 268.326761 338.203684 
L 268.755442 341.914313 
L 269.184123 343.164317 
L 269.612804 340.837245 
L 270.041485 339.180118 
L 270.470166 339.116341 
L 270.898848 338.718103 
L 271.327529 340.235249 
L 271.75621 337.950873 
L 272.184891 337.755943 
L 272.613572 334.235198 
L 273.042254 333.371835 
L 273.470935 330.249081 
L 273.899616 333.090954 
L 274.328297 329.80621 
L 274.756978 331.793139 
L 275.185659 333.022891 
L 275.614341 328.448966 
L 276.043022 329.539561 
L 276.471703 329.399293 
L 276.900384 328.50974 
L 277.329065 324.19531 
L 277.757746 322.55559 
L 278.186428 322.978962 
L 279.04379 326.212536 
L 279.472471 322.631826 
L 279.901152 320.330279 
L 280.329834 320.332809 
L 280.758515 320.849521 
L 281.187196 320.562856 
L 281.615877 322.208133 
L 282.044558 319.308875 
L 282.473239 319.710508 
L 282.901921 319.372482 
L 283.330602 319.624098 
L 283.759283 321.252661 
L 284.187964 319.960496 
L 284.616645 317.165054 
L 285.045327 318.473252 
L 285.474008 318.454995 
L 285.902689 318.822757 
L 286.33137 315.751056 
L 286.760051 318.501751 
L 287.188732 318.1529 
L 287.617414 318.488056 
L 288.046095 320.833923 
L 288.474776 319.305901 
L 288.903457 316.925984 
L 289.332138 318.831023 
L 289.760819 322.876194 
L 290.189501 320.257279 
L 290.618182 319.708139 
L 291.046863 321.364474 
L 291.475544 320.142686 
L 292.332907 324.686001 
L 292.761588 321.738684 
L 293.190269 323.187283 
L 293.61895 323.197295 
L 294.047631 322.801045 
L 294.476312 325.028548 
L 294.904994 329.181434 
L 295.333675 326.37595 
L 295.762356 330.408475 
L 296.191037 328.865678 
L 296.619718 326.58657 
L 297.048399 332.403523 
L 297.477081 329.451227 
L 297.905762 331.441311 
L 298.334443 331.430935 
L 298.763124 329.519957 
L 299.191805 331.094704 
L 299.620487 330.007345 
L 300.049168 335.260292 
L 300.477849 335.251601 
L 300.90653 335.510155 
L 301.335211 334.748613 
L 301.763892 336.875521 
L 302.192574 336.920731 
L 302.621255 337.590386 
L 303.049936 334.851973 
L 303.478617 335.261746 
L 303.907298 334.811988 
L 304.33598 331.643233 
L 304.764661 337.367862 
L 305.193342 335.835294 
L 305.622023 330.92132 
L 306.050704 336.261599 
L 306.479385 337.518053 
L 306.908067 339.266 
L 307.336748 338.383727 
L 307.765429 340.512395 
L 308.19411 340.148678 
L 308.622791 337.696489 
L 309.051472 336.065489 
L 309.480154 336.346566 
L 309.908835 336.882239 
L 310.337516 339.322855 
L 310.766197 334.115942 
L 311.194878 334.085479 
L 311.62356 331.376899 
L 312.052241 337.647744 
L 312.480922 334.06682 
L 312.909603 329.542613 
L 313.338284 332.13561 
L 313.766965 329.049506 
L 314.195647 329.98212 
L 314.624328 330.164621 
L 315.053009 327.957343 
L 315.48169 332.529931 
L 315.910371 328.952564 
L 316.767734 324.166837 
L 317.625096 324.841386 
L 318.053777 322.206446 
L 318.91114 324.9862 
L 319.339821 322.086124 
L 319.768502 321.562084 
L 320.197183 319.734765 
L 320.625864 320.416902 
L 321.483227 314.136034 
L 321.911908 320.90707 
L 322.340589 315.548238 
L 322.76927 317.389473 
L 323.197951 316.526029 
L 323.626633 318.180345 
L 324.055314 314.518054 
L 324.483995 312.75898 
L 324.912676 315.616756 
L 325.341357 308.52213 
L 325.770038 313.268061 
L 326.19872 315.753254 
L 327.056082 305.900441 
L 327.484763 307.01047 
L 327.913444 307.309653 
L 328.342125 307.979272 
L 328.770807 308.376341 
L 330.05685 313.131145 
L 330.485531 311.024484 
L 330.914213 312.169416 
L 331.342894 310.632263 
L 331.771575 307.342141 
L 332.200256 310.576056 
L 332.628937 311.982122 
L 333.057618 311.052204 
L 333.4863 312.715663 
L 333.914981 308.053719 
L 334.343662 312.827612 
L 334.772343 310.506312 
L 335.629706 308.621183 
L 336.058387 307.687862 
L 336.487068 315.246051 
L 336.915749 310.487952 
L 337.34443 313.865677 
L 337.773111 313.64977 
L 338.201793 311.01603 
L 338.630474 315.570626 
L 339.059155 313.635294 
L 339.487836 315.723085 
L 339.916517 317.08877 
L 340.345198 313.989699 
L 340.77388 317.781473 
L 341.202561 318.369072 
L 341.631242 317.211336 
L 342.059923 317.395576 
L 342.488604 321.581575 
L 342.917286 318.14996 
L 343.345967 322.211449 
L 343.774648 323.278046 
L 344.203329 326.659651 
L 344.63201 322.948415 
L 345.060691 322.577733 
L 345.489373 325.081379 
L 345.918054 321.771177 
L 346.775416 324.890111 
L 347.204097 321.969814 
L 347.632778 328.789394 
L 348.06146 325.649788 
L 348.490141 324.867369 
L 348.918822 328.724906 
L 349.347503 327.523132 
L 349.776184 327.330121 
L 350.204866 328.247365 
L 350.633547 327.364961 
L 351.062228 327.881119 
L 351.490909 329.236707 
L 351.91959 326.131911 
L 352.348271 328.691971 
L 352.776953 328.701697 
L 353.634315 323.880329 
L 354.062996 330.397493 
L 354.491677 326.328289 
L 354.920359 325.64517 
L 355.34904 326.027019 
L 355.777721 320.724732 
L 356.206402 322.850022 
L 356.635083 325.88958 
L 357.063764 325.581453 
L 357.492446 322.065692 
L 357.921127 321.332188 
L 358.349808 321.309926 
L 358.778489 323.275706 
L 359.20717 320.408912 
L 359.635851 320.942816 
L 360.064533 316.502366 
L 360.493214 321.058786 
L 360.921895 318.60121 
L 361.350576 319.914343 
L 361.779257 319.070057 
L 362.207939 316.376371 
L 363.065301 315.7826 
L 363.493982 310.998644 
L 363.922663 313.048366 
L 364.351344 309.853845 
L 364.780026 313.537578 
L 365.208707 311.315958 
L 365.637388 312.789713 
L 366.066069 306.478995 
L 366.49475 310.436512 
L 366.923431 304.911164 
L 367.352113 308.98498 
L 367.780794 306.531804 
L 368.209475 311.260598 
L 368.638156 305.481373 
L 369.066837 304.336202 
L 369.495519 307.493632 
L 369.9242 303.738983 
L 370.352881 303.306534 
L 370.781562 305.699497 
L 371.210243 299.888408 
L 371.638924 303.556011 
L 372.496287 299.320914 
L 372.924968 301.113636 
L 373.353649 298.352155 
L 373.78233 299.302162 
L 374.211012 296.448525 
L 374.639693 300.471511 
L 375.068374 301.317913 
L 375.497055 298.278269 
L 375.925736 299.317165 
L 376.354417 299.51551 
L 376.783099 298.017839 
L 377.21178 298.126003 
L 377.640461 299.159336 
L 378.069142 298.12526 
L 378.497823 298.096274 
L 379.355186 298.204572 
L 379.783867 297.878899 
L 380.212548 301.011013 
L 380.641229 301.981121 
L 381.06991 303.923194 
L 381.498592 302.434284 
L 381.927273 304.241012 
L 382.355954 302.125077 
L 382.784635 303.825185 
L 383.641997 306.424245 
L 384.070679 304.970268 
L 384.928041 308.712199 
L 385.356722 309.606972 
L 385.785403 305.323927 
L 386.214085 309.397668 
L 386.642766 310.17503 
L 387.071447 309.869833 
L 387.500128 311.028786 
L 388.35749 311.710429 
L 388.786172 312.856957 
L 389.214853 314.380338 
L 389.643534 311.41027 
L 390.072215 313.547156 
L 390.500896 316.659508 
L 390.929577 312.769005 
L 391.358259 318.192019 
L 391.78694 316.024813 
L 392.215621 316.213845 
L 392.644302 317.861225 
L 393.072983 315.822005 
L 393.501665 319.627825 
L 393.930346 314.01778 
L 394.359027 316.503682 
L 394.787708 314.114667 
L 395.216389 316.336966 
L 395.64507 321.004864 
L 396.073752 316.544291 
L 396.502433 316.977311 
L 396.931114 315.85716 
L 397.359795 315.724862 
L 397.788476 316.84603 
L 398.217157 316.386981 
L 398.645839 318.583355 
L 399.07452 314.163108 
L 399.503201 320.435729 
L 399.931882 320.375315 
L 400.360563 318.90105 
L 400.789245 314.247815 
L 401.217926 317.770869 
L 402.075288 314.532335 
L 402.503969 315.122861 
L 402.93265 317.694142 
L 403.361332 310.784228 
L 403.790013 312.600336 
L 404.218694 310.783162 
L 405.076056 311.503042 
L 405.504738 92.132566 
L 406.3621 92.132566 
L 406.790781 309.789559 
L 407.219462 304.231034 
L 407.648143 307.747431 
L 408.076825 305.16466 
L 408.505506 307.181106 
L 408.934187 302.263861 
L 409.362868 301.649033 
L 409.791549 302.537145 
L 410.22023 298.194363 
L 410.648912 301.431592 
L 411.077593 300.231824 
L 411.506274 296.757507 
L 411.934955 297.262149 
L 412.363636 295.766374 
L 412.792318 293.859299 
L 413.220999 295.549688 
L 413.64968 294.093805 
L 414.078361 295.965929 
L 414.507042 293.199955 
L 414.935723 294.122395 
L 415.364405 290.482849 
L 415.793086 292.539901 
L 416.221767 291.902578 
L 416.650448 291.517775 
L 417.079129 295.058885 
L 417.50781 292.655014 
L 417.936492 286.561591 
L 418.365173 288.713291 
L 418.793854 289.755904 
L 419.222535 289.927203 
L 419.651216 289.761535 
L 420.079898 288.460156 
L 420.508579 77.285713 
L 421.365941 77.285713 
L 421.794622 291.656603 
L 422.651985 288.415948 
L 423.080666 292.38194 
L 423.509347 287.77648 
L 423.938028 287.701597 
L 424.366709 290.287799 
L 424.795391 290.051596 
L 425.224072 288.302307 
L 425.652753 292.424925 
L 426.510115 294.368731 
L 426.938796 294.484097 
L 427.367478 294.455577 
L 427.796159 292.854335 
L 428.22484 295.944681 
L 428.653521 295.189505 
L 429.082202 294.918655 
L 429.510883 298.306809 
L 429.939565 293.624354 
L 430.368246 294.440143 
L 430.796927 301.107058 
L 431.225608 299.145256 
L 431.654289 299.541341 
L 432.082971 299.096612 
L 432.511652 302.317728 
L 432.940333 301.368465 
L 433.369014 299.70506 
L 433.797695 299.883233 
L 434.226376 301.936888 
L 434.655058 302.282145 
L 435.083739 304.73521 
L 435.51242 304.85486 
L 435.941101 302.224524 
L 436.369782 304.830371 
L 436.798464 306.730019 
L 437.227145 302.63482 
L 437.655826 307.341757 
L 438.084507 304.357012 
L 438.513188 305.746295 
L 438.941869 306.425457 
L 439.370551 308.018905 
L 439.799232 305.900426 
L 440.227913 310.997274 
L 441.513956 307.778922 
L 441.942638 307.896122 
L 442.371319 308.624797 
L 442.8 308.564198 
L 443.228681 306.965314 
L 443.657362 309.013704 
L 444.086044 311.790812 
L 444.514725 307.279274 
L 444.943406 305.32652 
L 445.372087 304.777929 
L 445.800768 306.89492 
L 446.229449 306.047576 
L 446.658131 302.549477 
L 447.086812 306.274807 
L 447.944174 303.030596 
L 448.372855 304.660088 
L 448.801536 303.705662 
L 449.230218 301.068005 
L 449.658899 302.925011 
L 450.08758 299.948424 
L 450.516261 302.466071 
L 450.944942 303.340627 
L 451.373624 297.463957 
L 451.802305 298.173528 
L 452.230986 297.992865 
L 452.659667 297.382282 
L 453.088348 293.646434 
L 453.517029 296.898427 
L 453.945711 292.11923 
L 454.374392 295.213656 
L 454.803073 292.663163 
L 455.231754 292.021304 
L 455.660435 289.701378 
L 456.089117 293.50193 
L 456.517798 289.778338 
L 456.946479 288.799103 
L 457.803841 284.895927 
L 458.232522 288.299876 
L 458.661204 285.080277 
L 459.089885 284.199238 
L 459.518566 282.147852 
L 459.947247 284.035725 
L 460.375928 281.071029 
L 460.804609 282.608944 
L 461.233291 282.859938 
L 461.661972 280.830867 
L 462.090653 280.856386 
L 462.519334 280.276706 
L 462.948015 278.725281 
L 463.376697 280.934643 
L 464.234059 280.288721 
L 464.66274 277.623213 
L 465.091421 275.77523 
L 465.520102 277.598038 
L 465.948784 277.399414 
L 466.377465 275.964412 
L 466.806146 280.550681 
L 467.234827 282.370633 
L 467.663508 281.780675 
L 468.09219 279.274058 
L 468.520871 279.913771 
L 468.949552 285.475329 
L 469.378233 278.143922 
L 469.806914 281.180093 
L 470.235595 281.197142 
L 470.664277 280.662446 
L 471.092958 284.402043 
L 471.521639 283.656075 
L 471.95032 280.722025 
L 472.379001 279.374503 
L 472.807682 282.38104 
L 473.236364 282.807622 
L 473.665045 288.115738 
L 474.093726 283.301221 
L 474.522407 283.739504 
L 474.951088 287.204936 
L 475.37977 286.745574 
L 475.808451 285.91817 
L 476.237132 284.134912 
L 476.665813 291.099095 
L 477.094494 287.545231 
L 477.523175 287.477049 
L 478.809219 292.238512 
L 479.2379 292.194763 
L 479.666581 291.382339 
L 480.095262 295.713032 
L 480.523944 296.514785 
L 480.952625 296.019014 
L 481.381306 297.881595 
L 481.809987 298.808401 
L 482.238668 293.293716 
L 482.66735 298.161571 
L 483.096031 297.713313 
L 483.524712 299.267587 
L 483.953393 296.35226 
L 484.382074 296.57929 
L 484.810755 295.513177 
L 485.239437 298.907705 
L 485.668118 295.733505 
L 486.096799 297.985096 
L 486.52548 300.843552 
L 486.954161 296.090788 
L 487.382843 295.363865 
L 487.811524 296.684896 
L 488.240205 298.978999 
L 488.668886 300.610876 
L 489.097567 297.729705 
L 489.526248 300.191434 
L 489.95493 300.830767 
L 490.383611 295.614991 
L 490.812292 297.215642 
L 491.240973 297.01903 
L 491.669654 297.066293 
L 492.098335 292.786965 
L 492.527017 297.934622 
L 493.384379 292.646546 
L 493.81306 292.587546 
L 494.241741 293.726704 
L 494.670423 291.997552 
L 495.099104 291.575838 
L 495.527785 287.224888 
L 495.956466 289.583451 
L 496.385147 290.321003 
L 496.813828 285.982431 
L 497.24251 290.003656 
L 497.671191 285.700726 
L 498.099872 283.565307 
L 498.528553 287.439013 
L 498.957234 283.741543 
L 499.385915 281.723736 
L 499.814597 280.603089 
L 500.671959 277.465483 
L 501.10064 280.032978 
L 501.529321 281.306143 
L 501.958003 280.377707 
L 502.386684 276.813948 
L 502.815365 280.511765 
L 503.244046 275.777275 
L 503.672727 278.324929 
L 504.101408 277.227247 
L 504.53009 274.136371 
L 504.958771 275.355146 
L 505.387452 275.255521 
L 505.816133 274.402294 
L 506.244814 269.853087 
L 506.673496 274.817831 
L 507.102177 271.508083 
L 507.530858 272.239349 
L 507.959539 265.21253 
L 508.38822 270.975371 
L 508.816901 266.854447 
L 509.245583 268.485345 
L 509.674264 273.028804 
L 510.102945 268.828522 
L 510.531626 268.372041 
L 510.960307 269.61575 
L 511.388988 273.445179 
L 511.81767 265.294101 
L 512.246351 270.094252 
L 512.675032 272.560485 
L 513.103713 267.544792 
L 513.532394 270.639249 
L 513.961076 269.900912 
L 514.818438 274.418017 
L 515.247119 271.585491 
L 515.6758 270.1584 
L 516.104481 272.046517 
L 516.533163 272.382022 
L 517.390525 272.585688 
L 517.819206 274.370921 
L 518.247887 274.973589 
L 518.676569 276.352698 
L 519.10525 278.173327 
L 519.533931 278.86311 
L 519.962612 278.172853 
L 520.391293 278.683503 
L 520.819974 278.60276 
L 521.248656 66.96 
L 522.106018 66.96 
L 522.534699 279.559106 
L 522.96338 280.379321 
L 523.392061 281.5328 
L 523.820743 283.859369 
L 524.249424 283.800279 
L 524.678105 283.930878 
L 525.106786 283.581087 
L 525.535467 284.344488 
L 525.964149 281.262822 
L 526.39283 285.92221 
L 526.821511 287.172156 
L 527.250192 289.332024 
L 527.678873 288.487076 
L 528.107554 281.849445 
L 528.536236 286.646724 
L 528.964917 285.766722 
L 529.393598 287.394863 
L 529.822279 287.679422 
L 530.25096 288.537186 
L 530.679641 287.278969 
L 531.108323 285.66077 
L 531.537004 286.786698 
L 531.965685 289.001522 
L 532.394366 288.348188 
L 532.823047 291.320581 
L 533.251729 286.183587 
L 533.68041 284.728405 
L 534.109091 291.020097 
L 534.537772 287.889319 
L 534.966453 289.303016 
L 535.395134 289.6154 
L 535.823816 284.857597 
L 536.252497 284.282829 
L 536.681178 282.180236 
L 537.109859 284.700506 
L 537.53854 288.729793 
L 537.967222 283.700583 
L 538.395903 285.444165 
L 539.253265 282.411781 
L 539.681946 282.099354 
L 540.110627 280.018437 
L 540.539309 282.146267 
L 540.96799 281.473861 
L 541.825352 276.961375 
L 542.254033 278.669783 
L 543.111396 278.311956 
L 543.540077 277.01533 
L 543.968758 275.309567 
L 544.397439 276.229828 
L 544.82612 271.817208 
L 545.254802 276.374045 
L 545.683483 271.882349 
L 546.112164 273.616315 
L 546.540845 267.666471 
L 546.969526 270.274516 
L 547.398207 266.342074 
L 547.826889 268.634715 
L 548.25557 267.530083 
L 548.684251 268.423715 
L 549.112932 271.782982 
L 549.541613 261.947225 
L 549.970294 267.29981 
L 550.398976 258.986969 
L 550.827657 262.809058 
L 551.256338 264.039005 
L 551.685019 261.106647 
L 552.1137 260.318491 
L 552.542382 262.080108 
L 552.971063 261.013038 
L 553.399744 257.370329 
L 553.828425 263.417656 
L 554.257106 260.539176 
L 554.685787 258.701148 
L 555.114469 262.846418 
L 555.54315 263.466044 
L 555.971831 257.273435 
L 556.400512 261.338417 
L 556.829193 261.916059 
L 557.257875 260.021431 
L 557.686556 261.126258 
L 558.115237 261.271124 
L 558.543918 263.123072 
L 558.972599 262.340202 
L 559.40128 259.173068 
L 559.829962 260.138334 
L 560.258643 262.674868 
L 560.687324 257.085009 
L 561.116005 259.291824 
L 561.544686 264.031229 
L 561.973367 263.227842 
L 562.402049 269.810501 
L 562.83073 262.140906 
L 563.259411 263.43303 
L 563.688092 266.02884 
L 564.545455 266.017658 
L 564.974136 264.788247 
L 565.402817 269.252311 
L 565.831498 265.889874 
L 566.260179 267.103227 
L 566.68886 270.554886 
L 567.117542 270.356019 
L 567.546223 266.822671 
L 567.974904 271.318465 
L 568.403585 274.318172 
L 568.832266 275.069868 
L 569.260948 272.914646 
L 569.689629 272.877032 
L 570.11831 273.402352 
L 570.546991 274.933126 
L 570.975672 278.771926 
L 571.833035 274.064794 
L 572.261716 280.817841 
L 572.690397 275.507952 
L 573.119078 279.94374 
L 573.547759 277.841401 
L 573.97644 280.453046 
L 574.405122 276.392662 
L 574.833803 279.378037 
L 575.262484 277.597812 
L 575.691165 280.134042 
L 576.548528 281.708413 
L 576.977209 281.054994 
L 577.40589 279.488682 
L 577.834571 276.051679 
L 578.263252 277.549649 
L 578.691933 279.769521 
L 579.120615 277.884864 
L 579.549296 280.084283 
L 579.977977 279.076338 
L 580.406658 277.273205 
L 580.835339 272.01626 
L 581.26402 276.418788 
L 581.692702 276.255506 
L 582.121383 280.482269 
L 582.550064 273.22207 
L 582.978745 272.559488 
L 583.407426 277.596785 
L 583.836108 273.856201 
L 584.264789 274.866963 
L 584.69347 272.363583 
L 585.122151 272.903414 
L 585.550832 269.240932 
L 585.979513 270.101589 
L 586.408195 269.628311 
L 586.836876 268.29241 
L 587.265557 271.824737 
L 587.694238 269.798583 
L 588.122919 264.067085 
L 588.551601 265.566258 
L 588.980282 264.34927 
L 589.408963 267.0814 
L 589.837644 259.317829 
L 590.266325 263.803808 
L 590.695006 261.016392 
L 591.123688 261.692704 
L 591.552369 258.615028 
L 591.98105 261.428607 
L 592.409731 256.996534 
L 592.838412 256.233724 
L 593.267093 259.020885 
L 593.695775 260.025798 
L 594.124456 255.356816 
L 594.553137 260.075677 
L 594.981818 253.47563 
L 595.839181 252.24184 
L 596.267862 253.931823 
L 596.696543 249.237617 
L 597.125224 252.636393 
L 597.553905 253.835976 
L 597.982586 252.336503 
L 598.411268 253.713172 
L 598.839949 253.455612 
L 599.26863 250.323504 
L 599.697311 250.426954 
L 600.125992 251.404583 
L 600.554673 250.661238 
L 600.983355 250.459809 
L 601.412036 250.717784 
L 601.840717 246.682308 
L 602.269398 251.329425 
L 602.698079 248.920632 
L 603.555442 252.626854 
L 603.984123 252.595501 
L 604.412804 250.705685 
L 604.841485 252.405322 
L 605.270166 251.299688 
L 605.698848 251.293671 
L 606.127529 250.906489 
L 606.55621 254.74539 
L 606.984891 250.535355 
L 607.413572 257.385753 
L 607.842254 257.893854 
L 608.270935 252.450284 
L 608.699616 252.778955 
L 609.128297 258.001796 
L 609.556978 255.349024 
L 609.985659 259.490875 
L 610.414341 254.388949 
L 610.843022 257.970475 
L 611.700384 259.978523 
L 612.129065 262.349613 
L 612.557746 258.889726 
L 612.986428 261.142637 
L 613.415109 260.781017 
L 613.84379 263.915206 
L 614.272471 263.748486 
L 614.701152 263.016055 
L 615.129834 267.442671 
L 615.558515 266.414116 
L 615.987196 266.29475 
L 616.415877 264.463112 
L 616.844558 267.878862 
L 617.273239 268.590958 
L 617.701921 266.066747 
L 618.130602 268.737701 
L 618.559283 265.631283 
L 618.987964 271.211424 
L 619.416645 268.927959 
L 619.845327 269.995294 
L 620.274008 269.645148 
L 620.702689 267.395029 
L 621.13137 267.544304 
L 621.988732 272.692833 
L 622.417414 270.539379 
L 622.846095 266.401045 
L 623.274776 268.955278 
L 623.703457 270.508313 
L 624.989501 264.568027 
L 625.846863 269.473396 
L 626.275544 262.741508 
L 626.704225 266.595822 
L 627.132907 263.55541 
L 627.561588 263.306766 
L 627.990269 269.294361 
L 628.41895 261.583138 
L 628.847631 264.412662 
L 629.276312 265.221186 
L 629.704994 262.807404 
L 630.562356 261.5539 
L 630.991037 261.183956 
L 631.419718 257.242356 
L 631.848399 257.414398 
L 632.277081 258.007716 
L 632.705762 259.024815 
L 633.134443 254.686574 
L 633.563124 254.9764 
L 633.991805 256.338643 
L 634.420487 255.683003 
L 635.70653 251.586817 
L 636.135211 249.831072 
L 636.563892 250.353363 
L 636.992574 253.301002 
L 637.421255 248.584162 
L 637.849936 246.396418 
L 638.278617 250.390614 
L 638.707298 250.835478 
L 639.13598 244.949427 
L 639.564661 246.605054 
L 639.993342 244.242439 
L 640.422023 245.125434 
L 640.850704 240.721721 
L 641.708067 241.834239 
L 642.565429 240.386455 
L 642.99411 239.66897 
L 643.422791 243.349624 
L 643.851472 238.150581 
L 644.280154 243.757822 
L 644.708835 244.972562 
L 645.137516 240.97953 
L 645.566197 239.257096 
L 645.994878 239.622271 
L 646.42356 239.215184 
L 646.852241 240.148228 
L 647.280922 241.563486 
L 647.709603 240.190669 
L 648.138284 237.074688 
L 648.566965 241.290642 
L 648.995647 239.988361 
L 649.424328 240.232015 
L 649.853009 239.08193 
L 650.28169 243.904725 
L 651.139052 241.934218 
L 651.567734 243.722477 
L 651.996415 242.983638 
L 652.425096 244.293749 
L 653.282458 247.956871 
L 653.71114 243.730877 
L 654.139821 245.66977 
L 654.568502 244.964965 
L 654.997183 251.516452 
L 655.425864 245.544704 
L 656.283227 249.707888 
L 656.711908 248.385688 
L 657.140589 249.500334 
L 657.56927 249.426271 
L 657.997951 250.232279 
L 658.426633 251.542371 
L 658.855314 252.179656 
L 659.283995 254.220913 
L 659.712676 252.720975 
L 660.141357 255.203189 
L 660.570038 252.14299 
L 660.99872 255.006156 
L 661.427401 252.89411 
L 661.856082 256.856927 
L 662.284763 257.013106 
L 662.713444 255.389583 
L 663.142125 255.206635 
L 663.570807 259.975308 
L 663.999488 256.449955 
L 664.428169 256.229854 
L 664.85685 259.473761 
L 665.285531 257.453083 
L 665.714213 260.263815 
L 666.142894 260.1608 
L 666.571575 259.564314 
L 667.000256 260.628688 
L 667.428937 256.406597 
L 667.857618 259.332241 
L 668.2863 259.999406 
L 668.714981 262.24546 
L 669.143662 258.768193 
L 669.572343 260.210728 
L 670.001024 259.262892 
L 670.429706 258.866791 
L 670.858387 261.119751 
L 671.287068 256.592692 
L 671.715749 256.687725 
L 672.14443 255.862044 
L 673.001793 259.307593 
L 673.430474 251.345421 
L 673.859155 251.81236 
L 674.287836 254.84853 
L 674.716517 256.13575 
L 675.145198 253.029663 
L 675.57388 252.072857 
L 676.002561 255.326583 
L 676.431242 251.114454 
L 676.859923 249.661871 
L 677.288604 245.771341 
L 677.717286 250.448205 
L 678.145967 242.8143 
L 679.003329 246.046845 
L 679.43201 245.855551 
L 680.289373 241.056676 
L 680.718054 239.943272 
L 681.146735 241.602967 
L 681.575416 242.708669 
L 682.004097 238.273576 
L 682.432778 237.633349 
L 682.86146 240.093739 
L 683.290141 240.284156 
L 683.718822 237.785674 
L 684.147503 236.179324 
L 684.576184 236.667613 
L 685.004866 237.636748 
L 685.433547 236.66741 
L 685.862228 232.861738 
L 686.290909 232.601358 
L 686.71959 232.789443 
L 687.148271 234.269827 
L 687.576953 232.880463 
L 688.005634 234.38459 
L 688.434315 230.10324 
L 688.862996 235.036615 
L 689.291677 231.766099 
L 689.720359 231.538804 
L 690.14904 232.135816 
L 690.577721 225.955607 
L 691.006402 226.347694 
L 691.435083 231.611599 
L 691.863764 229.730926 
L 692.292446 229.987452 
L 692.721127 229.830643 
L 693.149808 229.860356 
L 693.578489 232.277095 
L 694.00717 235.380006 
L 694.435851 232.264927 
L 694.864533 230.354009 
L 695.293214 233.09411 
L 695.721895 231.667262 
L 696.150576 234.197581 
L 696.579257 232.643752 
L 697.007939 232.56965 
L 697.43662 233.818597 
L 697.865301 236.464076 
L 698.293982 232.671708 
L 699.151344 238.517672 
L 699.580026 237.919074 
L 700.008707 236.977381 
L 700.866069 241.922004 
L 701.723431 239.779352 
L 702.152113 240.040545 
L 702.580794 237.922283 
L 703.009475 242.73396 
L 703.438156 243.753998 
L 703.866837 243.966824 
L 704.295519 241.293225 
L 704.7242 245.467045 
L 705.152881 244.589202 
L 705.581562 240.812452 
L 706.010243 247.882034 
L 706.867606 247.245338 
L 707.296287 249.939025 
L 707.724968 246.839601 
L 708.153649 251.662474 
L 708.58233 248.739232 
L 709.011012 250.001749 
L 709.439693 249.982642 
L 709.868374 246.642448 
L 710.297055 247.697498 
L 710.725736 245.793706 
L 712.01178 250.757183 
L 712.440461 249.102311 
L 712.869142 248.955894 
L 713.297823 250.00577 
L 713.726504 252.227773 
L 714.155186 247.75972 
L 714.583867 250.582671 
L 715.012548 251.208828 
L 715.441229 248.396223 
L 715.86991 248.959843 
L 716.298592 245.942756 
L 716.727273 248.219846 
L 717.155954 244.789811 
L 717.584635 245.934065 
L 718.013316 245.604647 
L 718.441997 245.899325 
L 718.870679 242.567487 
L 719.29936 245.180592 
L 719.728041 244.954942 
L 720.156722 242.604572 
L 720.585403 241.94284 
L 721.014085 237.742554 
L 721.442766 241.025213 
L 721.871447 238.611008 
L 722.300128 239.507315 
L 722.728809 235.665931 
L 723.15749 236.771679 
L 723.586172 235.82446 
L 724.014853 235.738521 
L 724.443534 237.279561 
L 724.872215 235.887325 
L 725.300896 232.819109 
L 725.729577 235.126958 
L 726.158259 229.932543 
L 726.58694 234.066682 
L 727.444302 232.26182 
L 728.301665 226.451154 
L 728.730346 230.927645 
L 729.159027 228.00197 
L 729.587708 226.420455 
L 730.016389 229.029116 
L 730.44507 225.852043 
L 730.873752 225.171829 
L 731.302433 222.234201 
L 731.731114 222.461087 
L 732.159795 225.849307 
L 732.588476 225.09453 
L 733.017157 223.945633 
L 733.445839 226.256202 
L 733.87452 224.109268 
L 734.303201 219.998979 
L 734.731882 222.131343 
L 735.160563 219.684354 
L 735.589245 219.456742 
L 736.017926 222.384519 
L 736.446607 221.745138 
L 736.875288 217.121815 
L 737.303969 221.533071 
L 737.73265 220.493795 
L 738.161332 218.796877 
L 738.590013 221.413175 
L 739.018694 221.071144 
L 739.447375 223.998135 
L 739.876056 217.940014 
L 740.304738 223.642151 
L 740.733419 224.765318 
L 741.1621 223.942843 
L 741.590781 219.811719 
L 742.019462 227.10992 
L 742.448143 224.513624 
L 742.876825 226.985864 
L 743.305506 227.091017 
L 743.734187 225.555268 
L 744.162868 225.223138 
L 744.591549 223.458308 
L 745.02023 228.053663 
L 745.448912 227.020945 
L 745.877593 233.85659 
L 746.306274 228.792751 
L 746.734955 226.471598 
L 747.163636 229.304856 
L 747.163636 229.304856 
" style="fill:none;stroke:#1f77b4;stroke-linecap:square;stroke-width:1.5;"/>
   </g>
   <g id="line2d_18">
    <path clip-path="url(#pc9f03d45ac)" d="M 747.163636 384.48 
L 747.163636 51.84 
" style="fill:none;stroke:#808080;stroke-linecap:square;"/>
   </g>
   <g id="patch_86">
    <path d="M 108 384.48 
L 108 51.84 
" style="fill:none;stroke:#000000;stroke-linecap:square;stroke-linejoin:miter;stroke-width:0.8;"/>
   </g>
   <g id="patch_87">
    <path d="M 777.6 384.48 
L 777.6 51.84 
" style="fill:none;stroke:#000000;stroke-linecap:square;stroke-linejoin:miter;stroke-width:0.8;"/>
   </g>
   <g id="patch_88">
    <path d="M 108 384.48 
L 777.6 384.48 
" style="fill:none;stroke:#000000;stroke-linecap:square;stroke-linejoin:miter;stroke-width:0.8;"/>
   </g>
   <g id="patch_89">
    <path d="M 108 51.84 
L 777.6 51.84 
" style="fill:none;stroke:#000000;stroke-linecap:square;stroke-linejoin:miter;stroke-width:0.8;"/>
   </g>
   <g id="text_19">
    <!-- synthetic_83.csv -->
    <defs>
     <path d="M 32.171875 -5.078125 
Q 28.375 -14.84375 24.75 -17.8125 
Q 21.140625 -20.796875 15.09375 -20.796875 
L 7.90625 -20.796875 
L 7.90625 -13.28125 
L 13.1875 -13.28125 
Q 16.890625 -13.28125 18.9375 -11.515625 
Q 21 -9.765625 23.484375 -3.21875 
L 25.09375 0.875 
L 2.984375 54.6875 
L 12.5 54.6875 
L 29.59375 11.921875 
L 46.6875 54.6875 
L 56.203125 54.6875 
z
" id="DejaVuSans-121"/>
     <path d="M 54.890625 33.015625 
L 54.890625 0 
L 45.90625 0 
L 45.90625 32.71875 
Q 45.90625 40.484375 42.875 44.328125 
Q 39.84375 48.1875 33.796875 48.1875 
Q 26.515625 48.1875 22.3125 43.546875 
Q 18.109375 38.921875 18.109375 30.90625 
L 18.109375 0 
L 9.078125 0 
L 9.078125 54.6875 
L 18.109375 54.6875 
L 18.109375 46.1875 
Q 21.34375 51.125 25.703125 53.5625 
Q 30.078125 56 35.796875 56 
Q 45.21875 56 50.046875 50.171875 
Q 54.890625 44.34375 54.890625 33.015625 
z
" id="DejaVuSans-110"/>
     <path d="M 54.890625 33.015625 
L 54.890625 0 
L 45.90625 0 
L 45.90625 32.71875 
Q 45.90625 40.484375 42.875 44.328125 
Q 39.84375 48.1875 33.796875 48.1875 
Q 26.515625 48.1875 22.3125 43.546875 
Q 18.109375 38.921875 18.109375 30.90625 
L 18.109375 0 
L 9.078125 0 
L 9.078125 75.984375 
L 18.109375 75.984375 
L 18.109375 46.1875 
Q 21.34375 51.125 25.703125 53.5625 
Q 30.078125 56 35.796875 56 
Q 45.21875 56 50.046875 50.171875 
Q 54.890625 44.34375 54.890625 33.015625 
z
" id="DejaVuSans-104"/>
     <path d="M 48.78125 52.59375 
L 48.78125 44.1875 
Q 44.96875 46.296875 41.140625 47.34375 
Q 37.3125 48.390625 33.40625 48.390625 
Q 24.65625 48.390625 19.8125 42.84375 
Q 14.984375 37.3125 14.984375 27.296875 
Q 14.984375 17.28125 19.8125 11.734375 
Q 24.65625 6.203125 33.40625 6.203125 
Q 37.3125 6.203125 41.140625 7.25 
Q 44.96875 8.296875 48.78125 10.40625 
L 48.78125 2.09375 
Q 45.015625 0.34375 40.984375 -0.53125 
Q 36.96875 -1.421875 32.421875 -1.421875 
Q 20.0625 -1.421875 12.78125 6.34375 
Q 5.515625 14.109375 5.515625 27.296875 
Q 5.515625 40.671875 12.859375 48.328125 
Q 20.21875 56 33.015625 56 
Q 37.15625 56 41.109375 55.140625 
Q 45.0625 54.296875 48.78125 52.59375 
z
" id="DejaVuSans-99"/>
     <path d="M 50.984375 -16.609375 
L 50.984375 -23.578125 
L -0.984375 -23.578125 
L -0.984375 -16.609375 
z
" id="DejaVuSans-95"/>
     <path d="M 10.6875 12.40625 
L 21 12.40625 
L 21 0 
L 10.6875 0 
z
" id="DejaVuSans-46"/>
     <path d="M 2.984375 54.6875 
L 12.5 54.6875 
L 29.59375 8.796875 
L 46.6875 54.6875 
L 56.203125 54.6875 
L 35.6875 0 
L 23.484375 0 
z
" id="DejaVuSans-118"/>
    </defs>
    <g transform="translate(392.638125 45.84)scale(0.12 -0.12)">
     <use xlink:href="#DejaVuSans-115"/>
     <use x="52.099609" xlink:href="#DejaVuSans-121"/>
     <use x="111.279297" xlink:href="#DejaVuSans-110"/>
     <use x="174.658203" xlink:href="#DejaVuSans-116"/>
     <use x="213.867188" xlink:href="#DejaVuSans-104"/>
     <use x="277.246094" xlink:href="#DejaVuSans-101"/>
     <use x="338.769531" xlink:href="#DejaVuSans-116"/>
     <use x="377.978516" xlink:href="#DejaVuSans-105"/>
     <use x="405.761719" xlink:href="#DejaVuSans-99"/>
     <use x="460.742188" xlink:href="#DejaVuSans-95"/>
     <use x="510.742188" xlink:href="#DejaVuSans-56"/>
     <use x="574.365234" xlink:href="#DejaVuSans-51"/>
     <use x="637.988281" xlink:href="#DejaVuSans-46"/>
     <use x="669.775391" xlink:href="#DejaVuSans-99"/>
     <use x="724.755859" xlink:href="#DejaVuSans-115"/>
     <use x="776.855469" xlink:href="#DejaVuSans-118"/>
    </g>
   </g>
   <g id="legend_1">
    <g id="patch_90">
     <path d="M 711.284375 74.518125 
L 770.6 74.518125 
Q 772.6 74.518125 772.6 72.518125 
L 772.6 58.84 
Q 772.6 56.84 770.6 56.84 
L 711.284375 56.84 
Q 709.284375 56.84 709.284375 58.84 
L 709.284375 72.518125 
Q 709.284375 74.518125 711.284375 74.518125 
z
" style="fill:#ffffff;opacity:0.8;stroke:#cccccc;stroke-linejoin:miter;"/>
    </g>
    <g id="line2d_19">
     <path d="M 713.284375 64.938438 
L 733.284375 64.938438 
" style="fill:none;stroke:#1f77b4;stroke-linecap:square;stroke-width:1.5;"/>
    </g>
    <g id="line2d_20"/>
    <g id="text_20">
     <!-- value -->
     <g transform="translate(741.284375 68.438438)scale(0.1 -0.1)">
      <use xlink:href="#DejaVuSans-118"/>
      <use x="59.179688" xlink:href="#DejaVuSans-97"/>
      <use x="120.458984" xlink:href="#DejaVuSans-108"/>
      <use x="148.242188" xlink:href="#DejaVuSans-117"/>
      <use x="211.621094" xlink:href="#DejaVuSans-101"/>
     </g>
    </g>
   </g>
  </g>
 </g>
 <defs>
  <clipPath id="pc9f03d45ac">
   <rect height="332.64" width="669.6" x="108" y="51.84"/>
  </clipPath>
 </defs>
</svg>
