<?xml version="1.0" encoding="utf-8" standalone="no"?>
<!DOCTYPE svg PUBLIC "-//W3C//DTD SVG 1.1//EN"
  "http://www.w3.org/Graphics/SVG/1.1/DTD/svg11.dtd">
<!-- Created with matplotlib (https://matplotlib.org/) -->
<svg height="432pt" version="1.1" viewBox="0 0 864 432" width="864pt" xmlns="http://www.w3.org/2000/svg" xmlns:xlink="http://www.w3.org/1999/xlink">
 <defs>
  <style type="text/css">
*{stroke-linecap:butt;stroke-linejoin:round;}
  </style>
 </defs>
 <g id="figure_1">
  <g id="patch_1">
   <path d="M 0 432 
L 864 432 
L 864 0 
L 0 0 
z
" style="fill:#ffffff;"/>
  </g>
  <g id="axes_1">
   <g id="patch_2">
    <path d="M 108 384.48 
L 777.6 384.48 
L 777.6 51.84 
L 108 51.84 
z
" style="fill:#ffffff;"/>
   </g>
   <g id="patch_3">
    <path clip-path="url(#p3d80e70f89)" d="M 138.436364 384.48 
L 138.436364 51.84 
L 378.497823 51.84 
L 378.497823 384.48 
z
" style="fill:#0000ff;opacity:0.05;"/>
   </g>
   <g id="patch_4">
    <path clip-path="url(#p3d80e70f89)" d="M 378.497823 384.48 
L 378.497823 51.84 
L 747.163636 51.84 
L 747.163636 384.48 
z
" style="fill:#ff0000;opacity:0.08;"/>
   </g>
   <g id="patch_5">
    <path clip-path="url(#p3d80e70f89)" d="M 138.436364 384.48 
L 138.436364 51.84 
L 142.723175 51.84 
L 142.723175 384.48 
z
" style="fill:#008000;opacity:0.04;"/>
   </g>
   <g id="patch_6">
    <path clip-path="url(#p3d80e70f89)" d="M 147.009987 384.48 
L 147.009987 51.84 
L 151.296799 51.84 
L 151.296799 384.48 
z
" style="fill:#008000;opacity:0.04;"/>
   </g>
   <g id="patch_7">
    <path clip-path="url(#p3d80e70f89)" d="M 155.583611 384.48 
L 155.583611 51.84 
L 159.870423 51.84 
L 159.870423 384.48 
z
" style="fill:#008000;opacity:0.04;"/>
   </g>
   <g id="patch_8">
    <path clip-path="url(#p3d80e70f89)" d="M 164.157234 384.48 
L 164.157234 51.84 
L 168.444046 51.84 
L 168.444046 384.48 
z
" style="fill:#008000;opacity:0.04;"/>
   </g>
   <g id="patch_9">
    <path clip-path="url(#p3d80e70f89)" d="M 404.218694 384.48 
L 404.218694 371.1744 
L 408.505506 371.1744 
L 408.505506 384.48 
z
" style="fill:#ff6600;"/>
   </g>
   <g id="patch_10">
    <path clip-path="url(#p3d80e70f89)" d="M 172.730858 384.48 
L 172.730858 51.84 
L 177.01767 51.84 
L 177.01767 384.48 
z
" style="fill:#008000;opacity:0.04;"/>
   </g>
   <g id="patch_11">
    <path clip-path="url(#p3d80e70f89)" d="M 417.079129 384.48 
L 417.079129 371.1744 
L 421.365941 371.1744 
L 421.365941 384.48 
z
" style="fill:#ff6600;"/>
   </g>
   <g id="patch_12">
    <path clip-path="url(#p3d80e70f89)" d="M 181.304481 384.48 
L 181.304481 51.84 
L 185.591293 51.84 
L 185.591293 384.48 
z
" style="fill:#008000;opacity:0.04;"/>
   </g>
   <g id="patch_13">
    <path clip-path="url(#p3d80e70f89)" d="M 421.365941 384.48 
L 421.365941 371.1744 
L 425.652753 371.1744 
L 425.652753 384.48 
z
" style="fill:#ff6600;"/>
   </g>
   <g id="patch_14">
    <path clip-path="url(#p3d80e70f89)" d="M 189.878105 384.48 
L 189.878105 51.84 
L 194.164917 51.84 
L 194.164917 384.48 
z
" style="fill:#008000;opacity:0.04;"/>
   </g>
   <g id="patch_15">
    <path clip-path="url(#p3d80e70f89)" d="M 198.451729 384.48 
L 198.451729 51.84 
L 202.73854 51.84 
L 202.73854 384.48 
z
" style="fill:#008000;opacity:0.04;"/>
   </g>
   <g id="patch_16">
    <path clip-path="url(#p3d80e70f89)" d="M 207.025352 384.48 
L 207.025352 51.84 
L 211.312164 51.84 
L 211.312164 384.48 
z
" style="fill:#008000;opacity:0.04;"/>
   </g>
   <g id="patch_17">
    <path clip-path="url(#p3d80e70f89)" d="M 215.598976 384.48 
L 215.598976 51.84 
L 219.885787 51.84 
L 219.885787 384.48 
z
" style="fill:#008000;opacity:0.04;"/>
   </g>
   <g id="patch_18">
    <path clip-path="url(#p3d80e70f89)" d="M 224.172599 384.48 
L 224.172599 51.84 
L 228.459411 51.84 
L 228.459411 384.48 
z
" style="fill:#008000;opacity:0.04;"/>
   </g>
   <g id="patch_19">
    <path clip-path="url(#p3d80e70f89)" d="M 232.746223 384.48 
L 232.746223 51.84 
L 237.033035 51.84 
L 237.033035 384.48 
z
" style="fill:#008000;opacity:0.04;"/>
   </g>
   <g id="patch_20">
    <path clip-path="url(#p3d80e70f89)" d="M 241.319846 384.48 
L 241.319846 51.84 
L 245.606658 51.84 
L 245.606658 384.48 
z
" style="fill:#008000;opacity:0.04;"/>
   </g>
   <g id="patch_21">
    <path clip-path="url(#p3d80e70f89)" d="M 249.89347 384.48 
L 249.89347 51.84 
L 254.180282 51.84 
L 254.180282 384.48 
z
" style="fill:#008000;opacity:0.04;"/>
   </g>
   <g id="patch_22">
    <path clip-path="url(#p3d80e70f89)" d="M 258.467093 384.48 
L 258.467093 51.84 
L 262.753905 51.84 
L 262.753905 384.48 
z
" style="fill:#008000;opacity:0.04;"/>
   </g>
   <g id="patch_23">
    <path clip-path="url(#p3d80e70f89)" d="M 267.040717 384.48 
L 267.040717 51.84 
L 271.327529 51.84 
L 271.327529 384.48 
z
" style="fill:#008000;opacity:0.04;"/>
   </g>
   <g id="patch_24">
    <path clip-path="url(#p3d80e70f89)" d="M 275.614341 384.48 
L 275.614341 51.84 
L 279.901152 51.84 
L 279.901152 384.48 
z
" style="fill:#008000;opacity:0.04;"/>
   </g>
   <g id="patch_25">
    <path clip-path="url(#p3d80e70f89)" d="M 279.901152 384.48 
L 279.901152 371.1744 
L 284.187964 371.1744 
L 284.187964 384.48 
z
" style="fill:#ffe500;"/>
   </g>
   <g id="patch_26">
    <path clip-path="url(#p3d80e70f89)" d="M 519.962612 384.48 
L 519.962612 371.1744 
L 524.249424 371.1744 
L 524.249424 384.48 
z
" style="fill:#ff6600;"/>
   </g>
   <g id="patch_27">
    <path clip-path="url(#p3d80e70f89)" d="M 284.187964 384.48 
L 284.187964 51.84 
L 288.474776 51.84 
L 288.474776 384.48 
z
" style="fill:#008000;opacity:0.04;"/>
   </g>
   <g id="patch_28">
    <path clip-path="url(#p3d80e70f89)" d="M 292.761588 384.48 
L 292.761588 51.84 
L 297.048399 51.84 
L 297.048399 384.48 
z
" style="fill:#008000;opacity:0.04;"/>
   </g>
   <g id="patch_29">
    <path clip-path="url(#p3d80e70f89)" d="M 301.335211 384.48 
L 301.335211 51.84 
L 305.622023 51.84 
L 305.622023 384.48 
z
" style="fill:#008000;opacity:0.04;"/>
   </g>
   <g id="patch_30">
    <path clip-path="url(#p3d80e70f89)" d="M 309.908835 384.48 
L 309.908835 51.84 
L 314.195647 51.84 
L 314.195647 384.48 
z
" style="fill:#008000;opacity:0.04;"/>
   </g>
   <g id="patch_31">
    <path clip-path="url(#p3d80e70f89)" d="M 318.482458 384.48 
L 318.482458 51.84 
L 322.76927 51.84 
L 322.76927 384.48 
z
" style="fill:#008000;opacity:0.04;"/>
   </g>
   <g id="patch_32">
    <path clip-path="url(#p3d80e70f89)" d="M 327.056082 384.48 
L 327.056082 51.84 
L 331.342894 51.84 
L 331.342894 384.48 
z
" style="fill:#008000;opacity:0.04;"/>
   </g>
   <g id="patch_33">
    <path clip-path="url(#p3d80e70f89)" d="M 335.629706 384.48 
L 335.629706 51.84 
L 339.916517 51.84 
L 339.916517 384.48 
z
" style="fill:#008000;opacity:0.04;"/>
   </g>
   <g id="patch_34">
    <path clip-path="url(#p3d80e70f89)" d="M 344.203329 384.48 
L 344.203329 51.84 
L 348.490141 51.84 
L 348.490141 384.48 
z
" style="fill:#008000;opacity:0.04;"/>
   </g>
   <g id="patch_35">
    <path clip-path="url(#p3d80e70f89)" d="M 352.776953 384.48 
L 352.776953 51.84 
L 357.063764 51.84 
L 357.063764 384.48 
z
" style="fill:#008000;opacity:0.04;"/>
   </g>
   <g id="patch_36">
    <path clip-path="url(#p3d80e70f89)" d="M 361.350576 384.48 
L 361.350576 51.84 
L 365.637388 51.84 
L 365.637388 384.48 
z
" style="fill:#008000;opacity:0.04;"/>
   </g>
   <g id="patch_37">
    <path clip-path="url(#p3d80e70f89)" d="M 365.637388 384.48 
L 365.637388 371.1744 
L 369.9242 371.1744 
L 369.9242 384.48 
z
" style="fill:#ffe500;"/>
   </g>
   <g id="patch_38">
    <path clip-path="url(#p3d80e70f89)" d="M 369.9242 384.48 
L 369.9242 51.84 
L 374.211012 51.84 
L 374.211012 384.48 
z
" style="fill:#008000;opacity:0.04;"/>
   </g>
   <g id="patch_39">
    <path clip-path="url(#p3d80e70f89)" d="M 378.497823 384.48 
L 378.497823 51.84 
L 382.784635 51.84 
L 382.784635 384.48 
z
" style="fill:#008000;opacity:0.04;"/>
   </g>
   <g id="patch_40">
    <path clip-path="url(#p3d80e70f89)" d="M 387.071447 384.48 
L 387.071447 51.84 
L 391.358259 51.84 
L 391.358259 384.48 
z
" style="fill:#008000;opacity:0.04;"/>
   </g>
   <g id="patch_41">
    <path clip-path="url(#p3d80e70f89)" d="M 395.64507 384.48 
L 395.64507 51.84 
L 399.931882 51.84 
L 399.931882 384.48 
z
" style="fill:#008000;opacity:0.04;"/>
   </g>
   <g id="patch_42">
    <path clip-path="url(#p3d80e70f89)" d="M 404.218694 384.48 
L 404.218694 51.84 
L 408.505506 51.84 
L 408.505506 384.48 
z
" style="fill:#008000;opacity:0.04;"/>
   </g>
   <g id="patch_43">
    <path clip-path="url(#p3d80e70f89)" d="M 404.218694 371.1744 
L 404.218694 51.84 
L 408.505506 51.84 
L 408.505506 371.1744 
z
" style="fill:#008000;opacity:0.5;"/>
   </g>
   <g id="patch_44">
    <path clip-path="url(#p3d80e70f89)" d="M 412.792318 384.48 
L 412.792318 51.84 
L 417.079129 51.84 
L 417.079129 384.48 
z
" style="fill:#008000;opacity:0.04;"/>
   </g>
   <g id="patch_45">
    <path clip-path="url(#p3d80e70f89)" d="M 417.079129 371.1744 
L 417.079129 51.84 
L 421.365941 51.84 
L 421.365941 371.1744 
z
" style="fill:#008000;opacity:0.5;"/>
   </g>
   <g id="patch_46">
    <path clip-path="url(#p3d80e70f89)" d="M 421.365941 384.48 
L 421.365941 51.84 
L 425.652753 51.84 
L 425.652753 384.48 
z
" style="fill:#008000;opacity:0.04;"/>
   </g>
   <g id="patch_47">
    <path clip-path="url(#p3d80e70f89)" d="M 421.365941 371.1744 
L 421.365941 51.84 
L 425.652753 51.84 
L 425.652753 371.1744 
z
" style="fill:#008000;opacity:0.5;"/>
   </g>
   <g id="patch_48">
    <path clip-path="url(#p3d80e70f89)" d="M 429.939565 384.48 
L 429.939565 51.84 
L 434.226376 51.84 
L 434.226376 384.48 
z
" style="fill:#008000;opacity:0.04;"/>
   </g>
   <g id="patch_49">
    <path clip-path="url(#p3d80e70f89)" d="M 438.513188 384.48 
L 438.513188 51.84 
L 442.8 51.84 
L 442.8 384.48 
z
" style="fill:#008000;opacity:0.04;"/>
   </g>
   <g id="patch_50">
    <path clip-path="url(#p3d80e70f89)" d="M 447.086812 384.48 
L 447.086812 51.84 
L 451.373624 51.84 
L 451.373624 384.48 
z
" style="fill:#008000;opacity:0.04;"/>
   </g>
   <g id="patch_51">
    <path clip-path="url(#p3d80e70f89)" d="M 455.660435 384.48 
L 455.660435 51.84 
L 459.947247 51.84 
L 459.947247 384.48 
z
" style="fill:#008000;opacity:0.04;"/>
   </g>
   <g id="patch_52">
    <path clip-path="url(#p3d80e70f89)" d="M 464.234059 384.48 
L 464.234059 51.84 
L 468.520871 51.84 
L 468.520871 384.48 
z
" style="fill:#008000;opacity:0.04;"/>
   </g>
   <g id="patch_53">
    <path clip-path="url(#p3d80e70f89)" d="M 472.807682 384.48 
L 472.807682 51.84 
L 477.094494 51.84 
L 477.094494 384.48 
z
" style="fill:#008000;opacity:0.04;"/>
   </g>
   <g id="patch_54">
    <path clip-path="url(#p3d80e70f89)" d="M 481.381306 384.48 
L 481.381306 51.84 
L 485.668118 51.84 
L 485.668118 384.48 
z
" style="fill:#008000;opacity:0.04;"/>
   </g>
   <g id="patch_55">
    <path clip-path="url(#p3d80e70f89)" d="M 489.95493 384.48 
L 489.95493 51.84 
L 494.241741 51.84 
L 494.241741 384.48 
z
" style="fill:#008000;opacity:0.04;"/>
   </g>
   <g id="patch_56">
    <path clip-path="url(#p3d80e70f89)" d="M 498.528553 384.48 
L 498.528553 51.84 
L 502.815365 51.84 
L 502.815365 384.48 
z
" style="fill:#008000;opacity:0.04;"/>
   </g>
   <g id="patch_57">
    <path clip-path="url(#p3d80e70f89)" d="M 507.102177 384.48 
L 507.102177 51.84 
L 511.388988 51.84 
L 511.388988 384.48 
z
" style="fill:#008000;opacity:0.04;"/>
   </g>
   <g id="patch_58">
    <path clip-path="url(#p3d80e70f89)" d="M 515.6758 384.48 
L 515.6758 51.84 
L 519.962612 51.84 
L 519.962612 384.48 
z
" style="fill:#008000;opacity:0.04;"/>
   </g>
   <g id="patch_59">
    <path clip-path="url(#p3d80e70f89)" d="M 519.962612 371.1744 
L 519.962612 51.84 
L 524.249424 51.84 
L 524.249424 371.1744 
z
" style="fill:#008000;opacity:0.5;"/>
   </g>
   <g id="patch_60">
    <path clip-path="url(#p3d80e70f89)" d="M 524.249424 384.48 
L 524.249424 51.84 
L 528.536236 51.84 
L 528.536236 384.48 
z
" style="fill:#008000;opacity:0.04;"/>
   </g>
   <g id="patch_61">
    <path clip-path="url(#p3d80e70f89)" d="M 532.823047 384.48 
L 532.823047 51.84 
L 537.109859 51.84 
L 537.109859 384.48 
z
" style="fill:#008000;opacity:0.04;"/>
   </g>
   <g id="patch_62">
    <path clip-path="url(#p3d80e70f89)" d="M 541.396671 384.48 
L 541.396671 51.84 
L 545.683483 51.84 
L 545.683483 384.48 
z
" style="fill:#008000;opacity:0.04;"/>
   </g>
   <g id="patch_63">
    <path clip-path="url(#p3d80e70f89)" d="M 549.970294 384.48 
L 549.970294 51.84 
L 554.257106 51.84 
L 554.257106 384.48 
z
" style="fill:#008000;opacity:0.04;"/>
   </g>
   <g id="patch_64">
    <path clip-path="url(#p3d80e70f89)" d="M 558.543918 384.48 
L 558.543918 51.84 
L 562.83073 51.84 
L 562.83073 384.48 
z
" style="fill:#008000;opacity:0.04;"/>
   </g>
   <g id="patch_65">
    <path clip-path="url(#p3d80e70f89)" d="M 567.117542 384.48 
L 567.117542 51.84 
L 571.404353 51.84 
L 571.404353 384.48 
z
" style="fill:#008000;opacity:0.04;"/>
   </g>
   <g id="patch_66">
    <path clip-path="url(#p3d80e70f89)" d="M 575.691165 384.48 
L 575.691165 51.84 
L 579.977977 51.84 
L 579.977977 384.48 
z
" style="fill:#008000;opacity:0.04;"/>
   </g>
   <g id="patch_67">
    <path clip-path="url(#p3d80e70f89)" d="M 584.264789 384.48 
L 584.264789 51.84 
L 588.551601 51.84 
L 588.551601 384.48 
z
" style="fill:#008000;opacity:0.04;"/>
   </g>
   <g id="patch_68">
    <path clip-path="url(#p3d80e70f89)" d="M 592.838412 384.48 
L 592.838412 51.84 
L 597.125224 51.84 
L 597.125224 384.48 
z
" style="fill:#008000;opacity:0.04;"/>
   </g>
   <g id="patch_69">
    <path clip-path="url(#p3d80e70f89)" d="M 601.412036 384.48 
L 601.412036 51.84 
L 605.698848 51.84 
L 605.698848 384.48 
z
" style="fill:#008000;opacity:0.04;"/>
   </g>
   <g id="patch_70">
    <path clip-path="url(#p3d80e70f89)" d="M 609.985659 384.48 
L 609.985659 51.84 
L 614.272471 51.84 
L 614.272471 384.48 
z
" style="fill:#008000;opacity:0.04;"/>
   </g>
   <g id="patch_71">
    <path clip-path="url(#p3d80e70f89)" d="M 618.559283 384.48 
L 618.559283 51.84 
L 622.846095 51.84 
L 622.846095 384.48 
z
" style="fill:#008000;opacity:0.04;"/>
   </g>
   <g id="patch_72">
    <path clip-path="url(#p3d80e70f89)" d="M 627.132907 384.48 
L 627.132907 51.84 
L 631.419718 51.84 
L 631.419718 384.48 
z
" style="fill:#008000;opacity:0.04;"/>
   </g>
   <g id="patch_73">
    <path clip-path="url(#p3d80e70f89)" d="M 635.70653 384.48 
L 635.70653 51.84 
L 639.993342 51.84 
L 639.993342 384.48 
z
" style="fill:#008000;opacity:0.04;"/>
   </g>
   <g id="patch_74">
    <path clip-path="url(#p3d80e70f89)" d="M 644.280154 384.48 
L 644.280154 51.84 
L 648.566965 51.84 
L 648.566965 384.48 
z
" style="fill:#008000;opacity:0.04;"/>
   </g>
   <g id="patch_75">
    <path clip-path="url(#p3d80e70f89)" d="M 652.853777 384.48 
L 652.853777 51.84 
L 657.140589 51.84 
L 657.140589 384.48 
z
" style="fill:#008000;opacity:0.04;"/>
   </g>
   <g id="patch_76">
    <path clip-path="url(#p3d80e70f89)" d="M 661.427401 384.48 
L 661.427401 51.84 
L 665.714213 51.84 
L 665.714213 384.48 
z
" style="fill:#008000;opacity:0.04;"/>
   </g>
   <g id="patch_77">
    <path clip-path="url(#p3d80e70f89)" d="M 670.001024 384.48 
L 670.001024 51.84 
L 674.287836 51.84 
L 674.287836 384.48 
z
" style="fill:#008000;opacity:0.04;"/>
   </g>
   <g id="patch_78">
    <path clip-path="url(#p3d80e70f89)" d="M 678.574648 384.48 
L 678.574648 51.84 
L 682.86146 51.84 
L 682.86146 384.48 
z
" style="fill:#008000;opacity:0.04;"/>
   </g>
   <g id="patch_79">
    <path clip-path="url(#p3d80e70f89)" d="M 687.148271 384.48 
L 687.148271 51.84 
L 691.435083 51.84 
L 691.435083 384.48 
z
" style="fill:#008000;opacity:0.04;"/>
   </g>
   <g id="patch_80">
    <path clip-path="url(#p3d80e70f89)" d="M 695.721895 384.48 
L 695.721895 51.84 
L 700.008707 51.84 
L 700.008707 384.48 
z
" style="fill:#008000;opacity:0.04;"/>
   </g>
   <g id="patch_81">
    <path clip-path="url(#p3d80e70f89)" d="M 704.295519 384.48 
L 704.295519 51.84 
L 708.58233 51.84 
L 708.58233 384.48 
z
" style="fill:#008000;opacity:0.04;"/>
   </g>
   <g id="patch_82">
    <path clip-path="url(#p3d80e70f89)" d="M 712.869142 384.48 
L 712.869142 51.84 
L 717.155954 51.84 
L 717.155954 384.48 
z
" style="fill:#008000;opacity:0.04;"/>
   </g>
   <g id="patch_83">
    <path clip-path="url(#p3d80e70f89)" d="M 721.442766 384.48 
L 721.442766 51.84 
L 725.729577 51.84 
L 725.729577 384.48 
z
" style="fill:#008000;opacity:0.04;"/>
   </g>
   <g id="patch_84">
    <path clip-path="url(#p3d80e70f89)" d="M 730.016389 384.48 
L 730.016389 51.84 
L 734.303201 51.84 
L 734.303201 384.48 
z
" style="fill:#008000;opacity:0.04;"/>
   </g>
   <g id="patch_85">
    <path clip-path="url(#p3d80e70f89)" d="M 738.590013 384.48 
L 738.590013 51.84 
L 742.876825 51.84 
L 742.876825 384.48 
z
" style="fill:#008000;opacity:0.04;"/>
   </g>
   <g id="matplotlib.axis_1">
    <g id="xtick_1">
     <g id="line2d_1">
      <defs>
       <path d="M 0 0 
L 0 3.5 
" id="m7c78870e22" style="stroke:#000000;stroke-width:0.8;"/>
      </defs>
      <g>
       <use style="stroke:#000000;stroke-width:0.8;" x="138.436364" xlink:href="#m7c78870e22" y="384.48"/>
      </g>
     </g>
     <g id="text_1">
      <!-- 0 -->
      <defs>
       <path d="M 31.78125 66.40625 
Q 24.171875 66.40625 20.328125 58.90625 
Q 16.5 51.421875 16.5 36.375 
Q 16.5 21.390625 20.328125 13.890625 
Q 24.171875 6.390625 31.78125 6.390625 
Q 39.453125 6.390625 43.28125 13.890625 
Q 47.125 21.390625 47.125 36.375 
Q 47.125 51.421875 43.28125 58.90625 
Q 39.453125 66.40625 31.78125 66.40625 
z
M 31.78125 74.21875 
Q 44.046875 74.21875 50.515625 64.515625 
Q 56.984375 54.828125 56.984375 36.375 
Q 56.984375 17.96875 50.515625 8.265625 
Q 44.046875 -1.421875 31.78125 -1.421875 
Q 19.53125 -1.421875 13.0625 8.265625 
Q 6.59375 17.96875 6.59375 36.375 
Q 6.59375 54.828125 13.0625 64.515625 
Q 19.53125 74.21875 31.78125 74.21875 
z
" id="DejaVuSans-48"/>
      </defs>
      <g transform="translate(135.255114 399.078438)scale(0.1 -0.1)">
       <use xlink:href="#DejaVuSans-48"/>
      </g>
     </g>
    </g>
    <g id="xtick_2">
     <g id="line2d_2">
      <g>
       <use style="stroke:#000000;stroke-width:0.8;" x="224.172599" xlink:href="#m7c78870e22" y="384.48"/>
      </g>
     </g>
     <g id="text_2">
      <!-- 200 -->
      <defs>
       <path d="M 19.1875 8.296875 
L 53.609375 8.296875 
L 53.609375 0 
L 7.328125 0 
L 7.328125 8.296875 
Q 12.9375 14.109375 22.625 23.890625 
Q 32.328125 33.6875 34.8125 36.53125 
Q 39.546875 41.84375 41.421875 45.53125 
Q 43.3125 49.21875 43.3125 52.78125 
Q 43.3125 58.59375 39.234375 62.25 
Q 35.15625 65.921875 28.609375 65.921875 
Q 23.96875 65.921875 18.8125 64.3125 
Q 13.671875 62.703125 7.8125 59.421875 
L 7.8125 69.390625 
Q 13.765625 71.78125 18.9375 73 
Q 24.125 74.21875 28.421875 74.21875 
Q 39.75 74.21875 46.484375 68.546875 
Q 53.21875 62.890625 53.21875 53.421875 
Q 53.21875 48.921875 51.53125 44.890625 
Q 49.859375 40.875 45.40625 35.40625 
Q 44.1875 33.984375 37.640625 27.21875 
Q 31.109375 20.453125 19.1875 8.296875 
z
" id="DejaVuSans-50"/>
      </defs>
      <g transform="translate(214.628849 399.078438)scale(0.1 -0.1)">
       <use xlink:href="#DejaVuSans-50"/>
       <use x="63.623047" xlink:href="#DejaVuSans-48"/>
       <use x="127.246094" xlink:href="#DejaVuSans-48"/>
      </g>
     </g>
    </g>
    <g id="xtick_3">
     <g id="line2d_3">
      <g>
       <use style="stroke:#000000;stroke-width:0.8;" x="309.908835" xlink:href="#m7c78870e22" y="384.48"/>
      </g>
     </g>
     <g id="text_3">
      <!-- 400 -->
      <defs>
       <path d="M 37.796875 64.3125 
L 12.890625 25.390625 
L 37.796875 25.390625 
z
M 35.203125 72.90625 
L 47.609375 72.90625 
L 47.609375 25.390625 
L 58.015625 25.390625 
L 58.015625 17.1875 
L 47.609375 17.1875 
L 47.609375 0 
L 37.796875 0 
L 37.796875 17.1875 
L 4.890625 17.1875 
L 4.890625 26.703125 
z
" id="DejaVuSans-52"/>
      </defs>
      <g transform="translate(300.365085 399.078438)scale(0.1 -0.1)">
       <use xlink:href="#DejaVuSans-52"/>
       <use x="63.623047" xlink:href="#DejaVuSans-48"/>
       <use x="127.246094" xlink:href="#DejaVuSans-48"/>
      </g>
     </g>
    </g>
    <g id="xtick_4">
     <g id="line2d_4">
      <g>
       <use style="stroke:#000000;stroke-width:0.8;" x="395.64507" xlink:href="#m7c78870e22" y="384.48"/>
      </g>
     </g>
     <g id="text_4">
      <!-- 600 -->
      <defs>
       <path d="M 33.015625 40.375 
Q 26.375 40.375 22.484375 35.828125 
Q 18.609375 31.296875 18.609375 23.390625 
Q 18.609375 15.53125 22.484375 10.953125 
Q 26.375 6.390625 33.015625 6.390625 
Q 39.65625 6.390625 43.53125 10.953125 
Q 47.40625 15.53125 47.40625 23.390625 
Q 47.40625 31.296875 43.53125 35.828125 
Q 39.65625 40.375 33.015625 40.375 
z
M 52.59375 71.296875 
L 52.59375 62.3125 
Q 48.875 64.0625 45.09375 64.984375 
Q 41.3125 65.921875 37.59375 65.921875 
Q 27.828125 65.921875 22.671875 59.328125 
Q 17.53125 52.734375 16.796875 39.40625 
Q 19.671875 43.65625 24.015625 45.921875 
Q 28.375 48.1875 33.59375 48.1875 
Q 44.578125 48.1875 50.953125 41.515625 
Q 57.328125 34.859375 57.328125 23.390625 
Q 57.328125 12.15625 50.6875 5.359375 
Q 44.046875 -1.421875 33.015625 -1.421875 
Q 20.359375 -1.421875 13.671875 8.265625 
Q 6.984375 17.96875 6.984375 36.375 
Q 6.984375 53.65625 15.1875 63.9375 
Q 23.390625 74.21875 37.203125 74.21875 
Q 40.921875 74.21875 44.703125 73.484375 
Q 48.484375 72.75 52.59375 71.296875 
z
" id="DejaVuSans-54"/>
      </defs>
      <g transform="translate(386.10132 399.078438)scale(0.1 -0.1)">
       <use xlink:href="#DejaVuSans-54"/>
       <use x="63.623047" xlink:href="#DejaVuSans-48"/>
       <use x="127.246094" xlink:href="#DejaVuSans-48"/>
      </g>
     </g>
    </g>
    <g id="xtick_5">
     <g id="line2d_5">
      <g>
       <use style="stroke:#000000;stroke-width:0.8;" x="481.381306" xlink:href="#m7c78870e22" y="384.48"/>
      </g>
     </g>
     <g id="text_5">
      <!-- 800 -->
      <defs>
       <path d="M 31.78125 34.625 
Q 24.75 34.625 20.71875 30.859375 
Q 16.703125 27.09375 16.703125 20.515625 
Q 16.703125 13.921875 20.71875 10.15625 
Q 24.75 6.390625 31.78125 6.390625 
Q 38.8125 6.390625 42.859375 10.171875 
Q 46.921875 13.96875 46.921875 20.515625 
Q 46.921875 27.09375 42.890625 30.859375 
Q 38.875 34.625 31.78125 34.625 
z
M 21.921875 38.8125 
Q 15.578125 40.375 12.03125 44.71875 
Q 8.5 49.078125 8.5 55.328125 
Q 8.5 64.0625 14.71875 69.140625 
Q 20.953125 74.21875 31.78125 74.21875 
Q 42.671875 74.21875 48.875 69.140625 
Q 55.078125 64.0625 55.078125 55.328125 
Q 55.078125 49.078125 51.53125 44.71875 
Q 48 40.375 41.703125 38.8125 
Q 48.828125 37.15625 52.796875 32.3125 
Q 56.78125 27.484375 56.78125 20.515625 
Q 56.78125 9.90625 50.3125 4.234375 
Q 43.84375 -1.421875 31.78125 -1.421875 
Q 19.734375 -1.421875 13.25 4.234375 
Q 6.78125 9.90625 6.78125 20.515625 
Q 6.78125 27.484375 10.78125 32.3125 
Q 14.796875 37.15625 21.921875 38.8125 
z
M 18.3125 54.390625 
Q 18.3125 48.734375 21.84375 45.5625 
Q 25.390625 42.390625 31.78125 42.390625 
Q 38.140625 42.390625 41.71875 45.5625 
Q 45.3125 48.734375 45.3125 54.390625 
Q 45.3125 60.0625 41.71875 63.234375 
Q 38.140625 66.40625 31.78125 66.40625 
Q 25.390625 66.40625 21.84375 63.234375 
Q 18.3125 60.0625 18.3125 54.390625 
z
" id="DejaVuSans-56"/>
      </defs>
      <g transform="translate(471.837556 399.078438)scale(0.1 -0.1)">
       <use xlink:href="#DejaVuSans-56"/>
       <use x="63.623047" xlink:href="#DejaVuSans-48"/>
       <use x="127.246094" xlink:href="#DejaVuSans-48"/>
      </g>
     </g>
    </g>
    <g id="xtick_6">
     <g id="line2d_6">
      <g>
       <use style="stroke:#000000;stroke-width:0.8;" x="567.117542" xlink:href="#m7c78870e22" y="384.48"/>
      </g>
     </g>
     <g id="text_6">
      <!-- 1000 -->
      <defs>
       <path d="M 12.40625 8.296875 
L 28.515625 8.296875 
L 28.515625 63.921875 
L 10.984375 60.40625 
L 10.984375 69.390625 
L 28.421875 72.90625 
L 38.28125 72.90625 
L 38.28125 8.296875 
L 54.390625 8.296875 
L 54.390625 0 
L 12.40625 0 
z
" id="DejaVuSans-49"/>
      </defs>
      <g transform="translate(554.392542 399.078438)scale(0.1 -0.1)">
       <use xlink:href="#DejaVuSans-49"/>
       <use x="63.623047" xlink:href="#DejaVuSans-48"/>
       <use x="127.246094" xlink:href="#DejaVuSans-48"/>
       <use x="190.869141" xlink:href="#DejaVuSans-48"/>
      </g>
     </g>
    </g>
    <g id="xtick_7">
     <g id="line2d_7">
      <g>
       <use style="stroke:#000000;stroke-width:0.8;" x="652.853777" xlink:href="#m7c78870e22" y="384.48"/>
      </g>
     </g>
     <g id="text_7">
      <!-- 1200 -->
      <g transform="translate(640.128777 399.078438)scale(0.1 -0.1)">
       <use xlink:href="#DejaVuSans-49"/>
       <use x="63.623047" xlink:href="#DejaVuSans-50"/>
       <use x="127.246094" xlink:href="#DejaVuSans-48"/>
       <use x="190.869141" xlink:href="#DejaVuSans-48"/>
      </g>
     </g>
    </g>
    <g id="xtick_8">
     <g id="line2d_8">
      <g>
       <use style="stroke:#000000;stroke-width:0.8;" x="738.590013" xlink:href="#m7c78870e22" y="384.48"/>
      </g>
     </g>
     <g id="text_8">
      <!-- 1400 -->
      <g transform="translate(725.865013 399.078438)scale(0.1 -0.1)">
       <use xlink:href="#DejaVuSans-49"/>
       <use x="63.623047" xlink:href="#DejaVuSans-52"/>
       <use x="127.246094" xlink:href="#DejaVuSans-48"/>
       <use x="190.869141" xlink:href="#DejaVuSans-48"/>
      </g>
     </g>
    </g>
    <g id="text_9">
     <!-- Timestamp -->
     <defs>
      <path d="M -0.296875 72.90625 
L 61.375 72.90625 
L 61.375 64.59375 
L 35.5 64.59375 
L 35.5 0 
L 25.59375 0 
L 25.59375 64.59375 
L -0.296875 64.59375 
z
" id="DejaVuSans-84"/>
      <path d="M 9.421875 54.6875 
L 18.40625 54.6875 
L 18.40625 0 
L 9.421875 0 
z
M 9.421875 75.984375 
L 18.40625 75.984375 
L 18.40625 64.59375 
L 9.421875 64.59375 
z
" id="DejaVuSans-105"/>
      <path d="M 52 44.1875 
Q 55.375 50.25 60.0625 53.125 
Q 64.75 56 71.09375 56 
Q 79.640625 56 84.28125 50.015625 
Q 88.921875 44.046875 88.921875 33.015625 
L 88.921875 0 
L 79.890625 0 
L 79.890625 32.71875 
Q 79.890625 40.578125 77.09375 44.375 
Q 74.3125 48.1875 68.609375 48.1875 
Q 61.625 48.1875 57.5625 43.546875 
Q 53.515625 38.921875 53.515625 30.90625 
L 53.515625 0 
L 44.484375 0 
L 44.484375 32.71875 
Q 44.484375 40.625 41.703125 44.40625 
Q 38.921875 48.1875 33.109375 48.1875 
Q 26.21875 48.1875 22.15625 43.53125 
Q 18.109375 38.875 18.109375 30.90625 
L 18.109375 0 
L 9.078125 0 
L 9.078125 54.6875 
L 18.109375 54.6875 
L 18.109375 46.1875 
Q 21.1875 51.21875 25.484375 53.609375 
Q 29.78125 56 35.6875 56 
Q 41.65625 56 45.828125 52.96875 
Q 50 49.953125 52 44.1875 
z
" id="DejaVuSans-109"/>
      <path d="M 56.203125 29.59375 
L 56.203125 25.203125 
L 14.890625 25.203125 
Q 15.484375 15.921875 20.484375 11.0625 
Q 25.484375 6.203125 34.421875 6.203125 
Q 39.59375 6.203125 44.453125 7.46875 
Q 49.3125 8.734375 54.109375 11.28125 
L 54.109375 2.78125 
Q 49.265625 0.734375 44.1875 -0.34375 
Q 39.109375 -1.421875 33.890625 -1.421875 
Q 20.796875 -1.421875 13.15625 6.1875 
Q 5.515625 13.8125 5.515625 26.8125 
Q 5.515625 40.234375 12.765625 48.109375 
Q 20.015625 56 32.328125 56 
Q 43.359375 56 49.78125 48.890625 
Q 56.203125 41.796875 56.203125 29.59375 
z
M 47.21875 32.234375 
Q 47.125 39.59375 43.09375 43.984375 
Q 39.0625 48.390625 32.421875 48.390625 
Q 24.90625 48.390625 20.390625 44.140625 
Q 15.875 39.890625 15.1875 32.171875 
z
" id="DejaVuSans-101"/>
      <path d="M 44.28125 53.078125 
L 44.28125 44.578125 
Q 40.484375 46.53125 36.375 47.5 
Q 32.28125 48.484375 27.875 48.484375 
Q 21.1875 48.484375 17.84375 46.4375 
Q 14.5 44.390625 14.5 40.28125 
Q 14.5 37.15625 16.890625 35.375 
Q 19.28125 33.59375 26.515625 31.984375 
L 29.59375 31.296875 
Q 39.15625 29.25 43.1875 25.515625 
Q 47.21875 21.78125 47.21875 15.09375 
Q 47.21875 7.46875 41.1875 3.015625 
Q 35.15625 -1.421875 24.609375 -1.421875 
Q 20.21875 -1.421875 15.453125 -0.5625 
Q 10.6875 0.296875 5.421875 2 
L 5.421875 11.28125 
Q 10.40625 8.6875 15.234375 7.390625 
Q 20.0625 6.109375 24.8125 6.109375 
Q 31.15625 6.109375 34.5625 8.28125 
Q 37.984375 10.453125 37.984375 14.40625 
Q 37.984375 18.0625 35.515625 20.015625 
Q 33.0625 21.96875 24.703125 23.78125 
L 21.578125 24.515625 
Q 13.234375 26.265625 9.515625 29.90625 
Q 5.8125 33.546875 5.8125 39.890625 
Q 5.8125 47.609375 11.28125 51.796875 
Q 16.75 56 26.8125 56 
Q 31.78125 56 36.171875 55.265625 
Q 40.578125 54.546875 44.28125 53.078125 
z
" id="DejaVuSans-115"/>
      <path d="M 18.3125 70.21875 
L 18.3125 54.6875 
L 36.8125 54.6875 
L 36.8125 47.703125 
L 18.3125 47.703125 
L 18.3125 18.015625 
Q 18.3125 11.328125 20.140625 9.421875 
Q 21.96875 7.515625 27.59375 7.515625 
L 36.8125 7.515625 
L 36.8125 0 
L 27.59375 0 
Q 17.1875 0 13.234375 3.875 
Q 9.28125 7.765625 9.28125 18.015625 
L 9.28125 47.703125 
L 2.6875 47.703125 
L 2.6875 54.6875 
L 9.28125 54.6875 
L 9.28125 70.21875 
z
" id="DejaVuSans-116"/>
      <path d="M 34.28125 27.484375 
Q 23.390625 27.484375 19.1875 25 
Q 14.984375 22.515625 14.984375 16.5 
Q 14.984375 11.71875 18.140625 8.90625 
Q 21.296875 6.109375 26.703125 6.109375 
Q 34.1875 6.109375 38.703125 11.40625 
Q 43.21875 16.703125 43.21875 25.484375 
L 43.21875 27.484375 
z
M 52.203125 31.203125 
L 52.203125 0 
L 43.21875 0 
L 43.21875 8.296875 
Q 40.140625 3.328125 35.546875 0.953125 
Q 30.953125 -1.421875 24.3125 -1.421875 
Q 15.921875 -1.421875 10.953125 3.296875 
Q 6 8.015625 6 15.921875 
Q 6 25.140625 12.171875 29.828125 
Q 18.359375 34.515625 30.609375 34.515625 
L 43.21875 34.515625 
L 43.21875 35.40625 
Q 43.21875 41.609375 39.140625 45 
Q 35.0625 48.390625 27.6875 48.390625 
Q 23 48.390625 18.546875 47.265625 
Q 14.109375 46.140625 10.015625 43.890625 
L 10.015625 52.203125 
Q 14.9375 54.109375 19.578125 55.046875 
Q 24.21875 56 28.609375 56 
Q 40.484375 56 46.34375 49.84375 
Q 52.203125 43.703125 52.203125 31.203125 
z
" id="DejaVuSans-97"/>
      <path d="M 18.109375 8.203125 
L 18.109375 -20.796875 
L 9.078125 -20.796875 
L 9.078125 54.6875 
L 18.109375 54.6875 
L 18.109375 46.390625 
Q 20.953125 51.265625 25.265625 53.625 
Q 29.59375 56 35.59375 56 
Q 45.5625 56 51.78125 48.09375 
Q 58.015625 40.1875 58.015625 27.296875 
Q 58.015625 14.40625 51.78125 6.484375 
Q 45.5625 -1.421875 35.59375 -1.421875 
Q 29.59375 -1.421875 25.265625 0.953125 
Q 20.953125 3.328125 18.109375 8.203125 
z
M 48.6875 27.296875 
Q 48.6875 37.203125 44.609375 42.84375 
Q 40.53125 48.484375 33.40625 48.484375 
Q 26.265625 48.484375 22.1875 42.84375 
Q 18.109375 37.203125 18.109375 27.296875 
Q 18.109375 17.390625 22.1875 11.75 
Q 26.265625 6.109375 33.40625 6.109375 
Q 40.53125 6.109375 44.609375 11.75 
Q 48.6875 17.390625 48.6875 27.296875 
z
" id="DejaVuSans-112"/>
     </defs>
     <g transform="translate(414.739062 412.756563)scale(0.1 -0.1)">
      <use xlink:href="#DejaVuSans-84"/>
      <use x="61.037109" xlink:href="#DejaVuSans-105"/>
      <use x="88.820312" xlink:href="#DejaVuSans-109"/>
      <use x="186.232422" xlink:href="#DejaVuSans-101"/>
      <use x="247.755859" xlink:href="#DejaVuSans-115"/>
      <use x="299.855469" xlink:href="#DejaVuSans-116"/>
      <use x="339.064453" xlink:href="#DejaVuSans-97"/>
      <use x="400.34375" xlink:href="#DejaVuSans-109"/>
      <use x="497.755859" xlink:href="#DejaVuSans-112"/>
     </g>
    </g>
   </g>
   <g id="matplotlib.axis_2">
    <g id="ytick_1">
     <g id="line2d_9">
      <defs>
       <path d="M 0 0 
L -3.5 0 
" id="m51509aefb7" style="stroke:#000000;stroke-width:0.8;"/>
      </defs>
      <g>
       <use style="stroke:#000000;stroke-width:0.8;" x="108" xlink:href="#m51509aefb7" y="383.615322"/>
      </g>
     </g>
     <g id="text_10">
      <!-- −2000 -->
      <defs>
       <path d="M 10.59375 35.5 
L 73.1875 35.5 
L 73.1875 27.203125 
L 10.59375 27.203125 
z
" id="DejaVuSans-8722"/>
      </defs>
      <g transform="translate(67.170312 387.41454)scale(0.1 -0.1)">
       <use xlink:href="#DejaVuSans-8722"/>
       <use x="83.789062" xlink:href="#DejaVuSans-50"/>
       <use x="147.412109" xlink:href="#DejaVuSans-48"/>
       <use x="211.035156" xlink:href="#DejaVuSans-48"/>
       <use x="274.658203" xlink:href="#DejaVuSans-48"/>
      </g>
     </g>
    </g>
    <g id="ytick_2">
     <g id="line2d_10">
      <g>
       <use style="stroke:#000000;stroke-width:0.8;" x="108" xlink:href="#m51509aefb7" y="340.025715"/>
      </g>
     </g>
     <g id="text_11">
      <!-- 0 -->
      <g transform="translate(94.6375 343.824933)scale(0.1 -0.1)">
       <use xlink:href="#DejaVuSans-48"/>
      </g>
     </g>
    </g>
    <g id="ytick_3">
     <g id="line2d_11">
      <g>
       <use style="stroke:#000000;stroke-width:0.8;" x="108" xlink:href="#m51509aefb7" y="296.436108"/>
      </g>
     </g>
     <g id="text_12">
      <!-- 2000 -->
      <g transform="translate(75.55 300.235326)scale(0.1 -0.1)">
       <use xlink:href="#DejaVuSans-50"/>
       <use x="63.623047" xlink:href="#DejaVuSans-48"/>
       <use x="127.246094" xlink:href="#DejaVuSans-48"/>
       <use x="190.869141" xlink:href="#DejaVuSans-48"/>
      </g>
     </g>
    </g>
    <g id="ytick_4">
     <g id="line2d_12">
      <g>
       <use style="stroke:#000000;stroke-width:0.8;" x="108" xlink:href="#m51509aefb7" y="252.8465"/>
      </g>
     </g>
     <g id="text_13">
      <!-- 4000 -->
      <g transform="translate(75.55 256.645719)scale(0.1 -0.1)">
       <use xlink:href="#DejaVuSans-52"/>
       <use x="63.623047" xlink:href="#DejaVuSans-48"/>
       <use x="127.246094" xlink:href="#DejaVuSans-48"/>
       <use x="190.869141" xlink:href="#DejaVuSans-48"/>
      </g>
     </g>
    </g>
    <g id="ytick_5">
     <g id="line2d_13">
      <g>
       <use style="stroke:#000000;stroke-width:0.8;" x="108" xlink:href="#m51509aefb7" y="209.256893"/>
      </g>
     </g>
     <g id="text_14">
      <!-- 6000 -->
      <g transform="translate(75.55 213.056112)scale(0.1 -0.1)">
       <use xlink:href="#DejaVuSans-54"/>
       <use x="63.623047" xlink:href="#DejaVuSans-48"/>
       <use x="127.246094" xlink:href="#DejaVuSans-48"/>
       <use x="190.869141" xlink:href="#DejaVuSans-48"/>
      </g>
     </g>
    </g>
    <g id="ytick_6">
     <g id="line2d_14">
      <g>
       <use style="stroke:#000000;stroke-width:0.8;" x="108" xlink:href="#m51509aefb7" y="165.667286"/>
      </g>
     </g>
     <g id="text_15">
      <!-- 8000 -->
      <g transform="translate(75.55 169.466505)scale(0.1 -0.1)">
       <use xlink:href="#DejaVuSans-56"/>
       <use x="63.623047" xlink:href="#DejaVuSans-48"/>
       <use x="127.246094" xlink:href="#DejaVuSans-48"/>
       <use x="190.869141" xlink:href="#DejaVuSans-48"/>
      </g>
     </g>
    </g>
    <g id="ytick_7">
     <g id="line2d_15">
      <g>
       <use style="stroke:#000000;stroke-width:0.8;" x="108" xlink:href="#m51509aefb7" y="122.077679"/>
      </g>
     </g>
     <g id="text_16">
      <!-- 10000 -->
      <g transform="translate(69.1875 125.876898)scale(0.1 -0.1)">
       <use xlink:href="#DejaVuSans-49"/>
       <use x="63.623047" xlink:href="#DejaVuSans-48"/>
       <use x="127.246094" xlink:href="#DejaVuSans-48"/>
       <use x="190.869141" xlink:href="#DejaVuSans-48"/>
       <use x="254.492188" xlink:href="#DejaVuSans-48"/>
      </g>
     </g>
    </g>
    <g id="ytick_8">
     <g id="line2d_16">
      <g>
       <use style="stroke:#000000;stroke-width:0.8;" x="108" xlink:href="#m51509aefb7" y="78.488072"/>
      </g>
     </g>
     <g id="text_17">
      <!-- 12000 -->
      <g transform="translate(69.1875 82.287291)scale(0.1 -0.1)">
       <use xlink:href="#DejaVuSans-49"/>
       <use x="63.623047" xlink:href="#DejaVuSans-50"/>
       <use x="127.246094" xlink:href="#DejaVuSans-48"/>
       <use x="190.869141" xlink:href="#DejaVuSans-48"/>
       <use x="254.492188" xlink:href="#DejaVuSans-48"/>
      </g>
     </g>
    </g>
    <g id="text_18">
     <!-- Value -->
     <defs>
      <path d="M 28.609375 0 
L 0.78125 72.90625 
L 11.078125 72.90625 
L 34.1875 11.53125 
L 57.328125 72.90625 
L 67.578125 72.90625 
L 39.796875 0 
z
" id="DejaVuSans-86"/>
      <path d="M 9.421875 75.984375 
L 18.40625 75.984375 
L 18.40625 0 
L 9.421875 0 
z
" id="DejaVuSans-108"/>
      <path d="M 8.5 21.578125 
L 8.5 54.6875 
L 17.484375 54.6875 
L 17.484375 21.921875 
Q 17.484375 14.15625 20.5 10.265625 
Q 23.53125 6.390625 29.59375 6.390625 
Q 36.859375 6.390625 41.078125 11.03125 
Q 45.3125 15.671875 45.3125 23.6875 
L 45.3125 54.6875 
L 54.296875 54.6875 
L 54.296875 0 
L 45.3125 0 
L 45.3125 8.40625 
Q 42.046875 3.421875 37.71875 1 
Q 33.40625 -1.421875 27.6875 -1.421875 
Q 18.265625 -1.421875 13.375 4.4375 
Q 8.5 10.296875 8.5 21.578125 
z
M 31.109375 56 
z
" id="DejaVuSans-117"/>
     </defs>
     <g transform="translate(61.090625 232.273281)rotate(-90)scale(0.1 -0.1)">
      <use xlink:href="#DejaVuSans-86"/>
      <use x="68.298828" xlink:href="#DejaVuSans-97"/>
      <use x="129.578125" xlink:href="#DejaVuSans-108"/>
      <use x="157.361328" xlink:href="#DejaVuSans-117"/>
      <use x="220.740234" xlink:href="#DejaVuSans-101"/>
     </g>
    </g>
   </g>
   <g id="line2d_17">
    <path clip-path="url(#p3d80e70f89)" d="M 138.436364 331.936974 
L 138.865045 340.317956 
L 139.293726 328.121381 
L 139.722407 326.800814 
L 140.151088 330.570371 
L 140.57977 341.314301 
L 141.437132 330.183464 
L 141.865813 326.778928 
L 142.294494 309.95488 
L 143.151857 327.323153 
L 143.580538 328.12844 
L 144.009219 321.330746 
L 144.4379 320.092598 
L 144.866581 319.563007 
L 145.295262 314.173094 
L 145.723944 320.313858 
L 146.152625 310.84559 
L 146.581306 320.47967 
L 147.009987 313.148022 
L 147.438668 308.502013 
L 147.86735 309.297048 
L 148.296031 304.368572 
L 148.724712 309.238233 
L 149.582074 301.051904 
L 150.010755 311.977643 
L 150.439437 315.48516 
L 150.868118 306.869658 
L 151.72548 310.523369 
L 152.154161 309.914252 
L 152.582843 311.456365 
L 153.011524 302.983716 
L 153.440205 300.626623 
L 153.868886 302.061685 
L 154.297567 311.581282 
L 154.726248 301.585861 
L 155.15493 311.871152 
L 155.583611 299.685721 
L 156.440973 315.394363 
L 157.298335 321.880962 
L 157.727017 322.314855 
L 158.155698 326.60763 
L 158.584379 310.543032 
L 159.01306 313.841265 
L 159.441741 321.848415 
L 159.870423 320.0512 
L 160.299104 325.500993 
L 160.727785 309.036852 
L 161.156466 331.005754 
L 161.585147 327.77799 
L 162.013828 327.335229 
L 162.44251 326.51125 
L 162.871191 333.052176 
L 163.299872 347.596859 
L 163.728553 343.046668 
L 164.157234 334.29828 
L 164.585915 338.180671 
L 165.014597 345.605302 
L 165.443278 341.889958 
L 165.871959 347.822669 
L 166.30064 342.594109 
L 166.729321 354.619494 
L 167.158003 344.680177 
L 168.444046 350.914606 
L 168.872727 350.660652 
L 169.301408 357.615086 
L 169.73009 355.406618 
L 170.158771 351.53297 
L 170.587452 349.795793 
L 171.016133 356.835878 
L 171.444814 359.396769 
L 171.873496 365.266964 
L 172.302177 369.36 
L 172.730858 365.983101 
L 173.159539 353.582401 
L 173.58822 357.168611 
L 174.016901 363.907051 
L 174.445583 365.576123 
L 174.874264 365.822896 
L 175.302945 357.041869 
L 175.731626 365.228464 
L 176.160307 355.542088 
L 176.588988 359.349508 
L 177.01767 355.067076 
L 177.446351 368.617137 
L 177.875032 362.711144 
L 178.303713 367.951826 
L 178.732394 358.100463 
L 179.589757 362.459104 
L 180.018438 350.708494 
L 180.447119 357.685716 
L 180.8758 351.937449 
L 181.304481 352.345055 
L 181.733163 361.205275 
L 182.161844 359.091977 
L 182.590525 353.730641 
L 183.019206 359.973634 
L 183.447887 347.865705 
L 183.876569 358.309394 
L 184.30525 338.488166 
L 184.733931 350.534804 
L 185.162612 335.232163 
L 185.591293 346.968993 
L 186.019974 348.958637 
L 186.448656 341.03792 
L 186.877337 339.40306 
L 187.306018 348.587899 
L 187.734699 329.583271 
L 188.16338 341.686905 
L 188.592061 330.766499 
L 189.020743 328.059854 
L 189.449424 328.62381 
L 189.878105 328.557225 
L 190.306786 324.862075 
L 190.735467 331.217973 
L 191.164149 327.875035 
L 191.59283 328.206548 
L 192.021511 309.508725 
L 192.450192 308.447728 
L 192.878873 314.732809 
L 193.307554 322.707448 
L 194.164917 302.410088 
L 194.593598 313.64233 
L 195.022279 304.246046 
L 195.45096 314.222489 
L 195.879641 302.471717 
L 196.308323 311.76853 
L 196.737004 312.447128 
L 197.165685 309.702491 
L 197.594366 308.220298 
L 198.023047 307.624315 
L 198.451729 296.368305 
L 198.88041 299.934868 
L 199.309091 301.802673 
L 199.737772 306.102028 
L 200.166453 305.199278 
L 200.595134 303.254514 
L 201.023816 305.200533 
L 201.452497 300.740936 
L 201.881178 294.792041 
L 202.309859 305.242387 
L 202.73854 288.487892 
L 203.167222 306.272882 
L 203.595903 298.795308 
L 204.024584 283.46531 
L 204.881946 300.964786 
L 205.310627 305.412369 
L 205.739309 296.860801 
L 206.16799 301.345671 
L 206.596671 304.42809 
L 207.025352 300.890515 
L 207.454033 306.93167 
L 207.882714 287.96051 
L 208.740077 302.046042 
L 209.168758 303.637201 
L 209.597439 312.827263 
L 210.02612 305.038974 
L 210.454802 314.185913 
L 210.883483 319.728154 
L 211.312164 302.788364 
L 211.740845 322.054472 
L 212.169526 319.488266 
L 213.026889 326.618326 
L 213.45557 318.333551 
L 213.884251 333.327736 
L 214.312932 326.511192 
L 214.741613 330.387063 
L 215.170294 337.1005 
L 215.598976 330.262382 
L 216.027657 334.069261 
L 216.456338 336.597396 
L 216.885019 328.10329 
L 217.742382 337.789847 
L 218.171063 337.620909 
L 218.599744 344.649416 
L 219.028425 342.568327 
L 219.457106 335.573727 
L 219.885787 343.893643 
L 220.314469 343.931699 
L 220.74315 333.230075 
L 221.171831 351.588745 
L 221.600512 342.023052 
L 222.029193 337.685789 
L 222.457875 356.646787 
L 222.886556 350.570136 
L 223.315237 353.865382 
L 223.743918 355.139755 
L 224.172599 359.215073 
L 224.60128 358.742945 
L 225.029962 345.402624 
L 225.458643 349.998768 
L 225.887324 349.073427 
L 226.316005 344.258221 
L 226.744686 356.510306 
L 227.173367 348.985433 
L 227.602049 354.434275 
L 228.03073 357.029137 
L 228.459411 347.689874 
L 229.316773 359.499234 
L 229.745455 353.711205 
L 230.174136 342.095673 
L 230.602817 343.444338 
L 231.031498 359.344881 
L 231.460179 348.64144 
L 231.88886 342.938455 
L 232.317542 357.615098 
L 232.746223 337.308361 
L 233.174904 348.540281 
L 233.603585 342.135742 
L 234.032266 343.871768 
L 234.460948 331.326435 
L 234.889629 349.308998 
L 235.31831 339.445628 
L 235.746991 343.878188 
L 236.604353 319.86225 
L 237.033035 342.023453 
L 237.461716 331.196836 
L 237.890397 330.101406 
L 238.319078 317.730955 
L 238.747759 332.059564 
L 239.605122 311.686287 
L 240.033803 322.403872 
L 240.462484 323.53032 
L 241.319846 312.502208 
L 241.748528 320.444661 
L 242.177209 302.129658 
L 242.60589 310.71351 
L 243.034571 327.57979 
L 243.463252 314.617483 
L 243.891933 296.256676 
L 244.320615 310.784295 
L 244.749296 303.794741 
L 245.177977 301.491186 
L 245.606658 310.551622 
L 246.035339 296.029939 
L 246.46402 295.248202 
L 246.892702 284.878168 
L 247.750064 294.125502 
L 248.178745 294.213771 
L 248.607426 288.966082 
L 249.036108 297.63368 
L 249.464789 290.61011 
L 250.322151 286.575336 
L 250.750832 296.777368 
L 251.179513 279.909309 
L 251.608195 284.416514 
L 252.036876 272.739689 
L 252.465557 300.484391 
L 252.894238 292.18084 
L 253.322919 299.342664 
L 253.751601 291.253241 
L 254.180282 286.815589 
L 254.608963 278.268152 
L 255.037644 292.245452 
L 255.466325 297.484287 
L 256.323688 287.081564 
L 256.752369 290.552108 
L 257.18105 284.104156 
L 258.038412 304.653977 
L 258.467093 289.135065 
L 258.895775 303.262834 
L 259.324456 293.384404 
L 260.181818 297.312216 
L 260.610499 289.978664 
L 261.039181 303.522978 
L 261.467862 311.896899 
L 261.896543 304.544546 
L 262.325224 307.838356 
L 263.182586 298.926911 
L 263.611268 322.261771 
L 264.039949 313.66529 
L 264.46863 313.391298 
L 264.897311 311.888352 
L 265.325992 321.335192 
L 265.754673 315.978873 
L 266.183355 317.57183 
L 266.612036 321.594343 
L 267.040717 323.815703 
L 267.469398 315.21574 
L 267.898079 321.712464 
L 268.326761 315.019297 
L 268.755442 330.542698 
L 269.184123 338.102382 
L 269.612804 334.051229 
L 270.041485 332.212133 
L 270.470166 335.581994 
L 270.898848 337.870456 
L 271.327529 346.394796 
L 271.75621 342.522517 
L 272.184891 345.430936 
L 272.613572 337.470139 
L 273.042254 338.117986 
L 273.470935 331.348458 
L 273.899616 343.938615 
L 274.328297 336.493698 
L 274.756978 346.130589 
L 275.185659 353.201794 
L 275.614341 341.259863 
L 276.043022 347.650271 
L 276.471703 349.903983 
L 276.900384 349.581002 
L 277.329065 337.958037 
L 277.757746 334.895256 
L 278.186428 338.393195 
L 279.04379 352.659148 
L 279.472471 342.598405 
L 279.901152 336.521114 
L 280.329834 337.761157 
L 280.758515 340.484469 
L 281.187196 340.396121 
L 281.615877 346.403085 
L 282.044558 337.407806 
L 282.473239 338.963472 
L 282.901921 337.908279 
L 283.330602 338.57206 
L 283.759283 343.519897 
L 284.187964 338.75446 
L 284.616645 328.894702 
L 285.045327 332.206407 
L 285.474008 331.005635 
L 285.902689 330.874267 
L 286.33137 319.356278 
L 286.760051 326.625074 
L 287.188732 323.625375 
L 287.617414 322.687535 
L 288.046095 328.139891 
L 288.474776 320.822255 
L 288.903457 310.586022 
L 289.332138 314.171708 
L 289.760819 324.602029 
L 290.189501 313.208781 
L 290.618182 308.450187 
L 291.046863 310.778433 
L 291.475544 303.645467 
L 292.332907 311.921964 
L 292.761588 298.975315 
L 293.190269 300.30572 
L 293.61895 296.920437 
L 294.047631 292.193857 
L 294.476312 296.007453 
L 294.904994 306.098434 
L 295.333675 293.542145 
L 295.762356 303.28888 
L 296.191037 294.917136 
L 296.619718 284.200588 
L 297.048399 299.920158 
L 297.477081 287.152662 
L 297.905762 290.571598 
L 298.334443 287.573307 
L 298.763124 278.493698 
L 299.191805 280.887723 
L 299.620487 274.740266 
L 300.049168 289.38401 
L 300.477849 287.037551 
L 300.90653 285.718494 
L 301.335211 281.241765 
L 301.763892 286.346088 
L 302.192574 284.849465 
L 302.621255 285.572963 
L 303.049936 275.387515 
L 303.478617 275.653761 
L 303.907298 273.322146 
L 304.33598 262.339864 
L 304.764661 280.534681 
L 305.193342 275.302628 
L 305.622023 259.270048 
L 306.050704 276.852972 
L 306.479385 281.349124 
L 306.908067 287.661265 
L 307.336748 285.620277 
L 307.765429 293.599232 
L 308.19411 293.670072 
L 308.622791 287.145432 
L 309.051472 283.499115 
L 309.480154 286.280041 
L 309.908835 290.084336 
L 310.337516 300.281915 
L 310.766197 285.751619 
L 311.194878 288.257505 
L 311.62356 282.207732 
L 312.052241 305.565824 
L 312.480922 296.985166 
L 312.909603 285.473854 
L 313.338284 297.277366 
L 313.766965 290.70482 
L 314.195647 297.334033 
L 314.624328 301.620873 
L 315.053009 298.213338 
L 315.48169 316.967812 
L 315.910371 309.242293 
L 316.339052 304.782548 
L 316.767734 301.658993 
L 317.625096 311.980907 
L 318.053777 307.474311 
L 318.91114 324.645488 
L 319.339821 319.21488 
L 319.768502 321.478576 
L 320.197183 319.439833 
L 320.625864 325.50561 
L 321.054545 320.205764 
L 321.483227 312.479465 
L 321.911908 338.099865 
L 322.340589 324.094935 
L 322.76927 333.416574 
L 323.197951 333.792271 
L 323.626633 342.223054 
L 324.055314 333.18106 
L 324.483995 330.17429 
L 324.912676 342.033448 
L 325.341357 321.295029 
L 325.770038 338.937128 
L 326.19872 349.021684 
L 327.056082 320.303662 
L 327.484763 325.294931 
L 327.913444 327.431684 
L 328.342125 330.55845 
L 328.770807 332.578367 
L 330.05685 348.917009 
L 330.485531 341.894774 
L 330.914213 345.243097 
L 331.342894 339.636326 
L 331.771575 328.103401 
L 332.200256 337.607928 
L 332.628937 340.949672 
L 333.057618 336.478169 
L 333.4863 340.254956 
L 333.914981 323.235282 
L 334.343662 336.764169 
L 334.772343 327.003074 
L 336.058387 310.228995 
L 336.487068 332.015293 
L 336.915749 313.54971 
L 337.34443 321.460368 
L 337.773111 317.5522 
L 338.201793 305.666241 
L 338.630474 317.103718 
L 339.059155 307.322815 
L 339.487836 310.579277 
L 339.916517 311.428941 
L 340.345198 297.693488 
L 340.77388 306.373602 
L 341.202561 304.599909 
L 341.631242 297.136957 
L 342.059923 294.053671 
L 342.488604 304.026361 
L 342.917286 289.220426 
L 343.345967 298.867875 
L 343.774648 298.819018 
L 344.203329 306.381755 
L 344.63201 290.92428 
L 345.060691 286.442515 
L 345.489373 291.429222 
L 345.918054 277.595819 
L 346.775416 282.045911 
L 347.204097 269.895896 
L 347.632778 289.628138 
L 348.06146 277.086513 
L 348.490141 272.396816 
L 348.918822 283.002247 
L 349.347503 277.31686 
L 349.776184 275.112349 
L 350.204866 276.725078 
L 350.633547 272.681877 
L 351.062228 273.40457 
L 351.490909 277.075674 
L 351.91959 266.435389 
L 352.348271 274.466547 
L 352.776953 274.411785 
L 353.634315 259.200799 
L 354.062996 281.008343 
L 354.491677 268.55373 
L 354.920359 267.346793 
L 355.34904 269.824329 
L 355.777721 253.999339 
L 356.206402 262.5759 
L 356.635083 274.333685 
L 357.063764 275.38495 
L 357.492446 266.179765 
L 357.921127 266.22199 
L 358.349808 268.75846 
L 358.778489 277.940119 
L 359.20717 271.542009 
L 359.635851 276.373018 
L 360.064533 265.143973 
L 360.493214 283.352784 
L 360.921895 278.837604 
L 361.350576 286.71621 
L 361.779257 287.668066 
L 362.207939 282.68503 
L 363.065301 288.553084 
L 363.493982 276.957534 
L 363.922663 287.661949 
L 364.351344 281.313015 
L 364.780026 297.384281 
L 365.208707 294.223718 
L 365.637388 303.090786 
L 366.066069 286.580183 
L 366.49475 303.48176 
L 366.923431 289.448841 
L 367.352113 306.624335 
L 367.780794 302.469314 
L 368.209475 321.625685 
L 368.638156 306.461239 
L 369.066837 306.286507 
L 369.495519 320.011145 
L 369.9242 311.095756 
L 370.352881 312.866101 
L 370.781562 323.694583 
L 371.210243 307.646463 
L 371.638924 322.310534 
L 372.496287 313.433269 
L 372.924968 321.45836 
L 373.353649 314.458888 
L 373.78233 319.352844 
L 374.211012 311.656707 
L 374.639693 326.154675 
L 375.068374 330.09741 
L 375.497055 321.17123 
L 375.925736 325.316734 
L 376.354417 326.509804 
L 376.783099 321.963289 
L 377.21178 322.432196 
L 377.640461 325.700152 
L 378.069142 322.02101 
L 379.355186 320.093344 
L 379.783867 317.897763 
L 380.212548 326.769508 
L 380.641229 328.408927 
L 381.06991 333.030232 
L 381.498592 326.29856 
L 381.927273 330.131457 
L 382.355954 321.024848 
L 382.784635 324.193972 
L 383.641997 327.495936 
L 384.070679 319.9836 
L 384.928041 326.2807 
L 385.356722 326.101417 
L 385.785403 308.972537 
L 386.214085 318.991011 
L 386.642766 318.211018 
L 387.071447 313.855214 
L 387.500128 314.230703 
L 388.35749 309.586238 
L 388.786172 309.879511 
L 389.214853 311.410336 
L 389.643534 298.326807 
L 390.072215 301.911701 
L 390.500896 308.719374 
L 390.929577 292.773897 
L 391.358259 307.233131 
L 391.78694 297.048318 
L 392.215621 294.628348 
L 392.644302 297.058978 
L 393.072983 287.591855 
L 393.501665 297.283633 
L 393.930346 276.434892 
L 394.359027 282.094876 
L 394.787708 272.022486 
L 395.216389 277.124612 
L 395.64507 290.354255 
L 396.073752 274.018444 
L 396.502433 273.796784 
L 396.931114 268.696083 
L 397.359795 266.998075 
L 397.788476 269.572255 
L 398.217157 267.192301 
L 398.645839 273.657827 
L 399.07452 258.769814 
L 399.503201 278.911425 
L 399.931882 278.626023 
L 400.360563 273.937045 
L 400.789245 259.094793 
L 401.217926 271.085322 
L 401.646607 265.769157 
L 402.075288 262.161232 
L 402.503969 265.189221 
L 402.93265 274.859353 
L 403.361332 253.833001 
L 403.790013 261.411002 
L 404.218694 257.330635 
L 405.076056 263.857168 
L 405.504738 66.96 
L 406.3621 66.96 
L 406.790781 268.459724 
L 407.219462 253.232752 
L 407.648143 267.680484 
L 408.076825 262.367543 
L 408.505506 272.131498 
L 408.934187 259.396629 
L 409.362868 260.751479 
L 409.791549 267.066883 
L 410.22023 256.398293 
L 410.648912 270.463228 
L 411.077593 270.108249 
L 411.506274 262.365955 
L 411.934955 267.594544 
L 412.363636 266.306597 
L 412.792318 263.667245 
L 413.220999 272.723109 
L 413.64968 271.497285 
L 414.078361 281.067483 
L 414.507042 275.475561 
L 414.935723 281.832833 
L 415.364405 273.255615 
L 415.793086 283.149011 
L 416.221767 284.172064 
L 416.650448 285.914498 
L 417.079129 300.332812 
L 417.50781 295.266696 
L 417.936492 278.054812 
L 418.365173 287.564051 
L 418.793854 293.318452 
L 419.222535 296.086081 
L 419.651216 297.601551 
L 420.079898 295.257788 
L 420.508579 106.812955 
L 421.365941 106.812955 
L 421.794622 311.563269 
L 422.651985 302.89748 
L 423.080666 316.489325 
L 423.509347 301.979792 
L 423.938028 302.045489 
L 424.366709 310.597561 
L 424.795391 309.776036 
L 425.224072 303.847453 
L 425.652753 316.86896 
L 426.081434 319.84568 
L 426.510115 321.870178 
L 426.938796 321.330116 
L 427.367478 320.160146 
L 427.796159 313.711253 
L 428.22484 322.39347 
L 428.653521 318.405296 
L 429.082202 315.856651 
L 429.510883 325.095202 
L 429.939565 307.921933 
L 430.368246 308.541779 
L 430.796927 328.112223 
L 431.225608 319.477102 
L 431.654289 318.431259 
L 432.082971 314.564647 
L 432.511652 322.565763 
L 432.940333 316.919383 
L 433.369014 308.892882 
L 433.797695 306.82055 
L 434.226376 310.822569 
L 434.655058 309.235157 
L 435.083739 314.498521 
L 435.51242 312.156315 
L 435.941101 300.861477 
L 436.369782 306.63675 
L 436.798464 310.135925 
L 437.227145 294.142046 
L 437.655826 306.862022 
L 438.084507 294.580422 
L 438.513188 296.607294 
L 438.941869 296.390939 
L 439.370551 299.230866 
L 439.799232 290.066406 
L 440.227913 304.498178 
L 441.513956 288.141723 
L 441.942638 286.799815 
L 442.371319 287.576661 
L 442.8 285.914941 
L 443.228681 279.379752 
L 443.657362 284.866098 
L 444.086044 292.871322 
L 444.514725 277.284119 
L 444.943406 270.182883 
L 445.372087 267.80897 
L 445.800768 274.272885 
L 446.229449 271.237736 
L 446.658131 259.725599 
L 447.086812 271.899344 
L 447.944174 261.880738 
L 448.372855 267.69525 
L 448.801536 265.245853 
L 449.230218 257.463846 
L 449.658899 264.469248 
L 450.08758 255.874106 
L 450.516261 265.314885 
L 450.944942 269.539147 
L 451.373624 251.903607 
L 451.802305 255.846605 
L 452.230986 257.009772 
L 452.659667 256.886509 
L 453.088348 246.691087 
L 453.517029 259.357852 
L 453.945711 245.959053 
L 454.374392 258.293539 
L 454.803073 252.320515 
L 455.231754 252.636171 
L 455.660435 247.549852 
L 456.089117 262.455389 
L 456.517798 252.900607 
L 456.946479 252.324377 
L 457.803841 244.922556 
L 458.232522 258.691732 
L 458.661204 250.892277 
L 459.089885 250.707717 
L 459.518566 246.700358 
L 459.947247 255.505303 
L 460.375928 248.477252 
L 460.804609 256.080506 
L 461.233291 259.449338 
L 461.661972 255.341293 
L 462.090653 257.868137 
L 462.519334 258.359207 
L 462.948015 255.613785 
L 463.376697 265.040445 
L 464.234059 267.139302 
L 464.66274 260.41833 
L 465.091421 256.259886 
L 465.520102 263.95306 
L 465.948784 264.952501 
L 466.377465 261.811412 
L 466.806146 278.166317 
L 467.234827 285.390726 
L 467.663508 284.642927 
L 468.09219 277.527383 
L 468.520871 280.533803 
L 468.949552 299.444218 
L 469.378233 276.230409 
L 469.806914 286.657532 
L 470.235595 287.121758 
L 470.664277 285.660485 
L 471.092958 297.994312 
L 471.521639 295.591541 
L 471.95032 285.937484 
L 472.379001 281.329251 
L 472.807682 290.78404 
L 473.236364 291.719039 
L 473.665045 308.441639 
L 474.093726 292.083218 
L 474.522407 292.729625 
L 474.951088 303.135801 
L 475.37977 300.662273 
L 475.808451 296.899357 
L 476.237132 289.937735 
L 476.665813 311.389121 
L 477.094494 298.506713 
L 477.523175 296.910265 
L 477.951857 300.372184 
L 478.380538 304.760996 
L 478.809219 307.952644 
L 479.2379 306.228235 
L 479.666581 301.964699 
L 480.095262 314.425026 
L 480.523944 315.368922 
L 480.952625 312.07151 
L 481.381306 316.447727 
L 481.809987 317.77454 
L 482.238668 298.125142 
L 482.66735 312.306345 
L 483.096031 309.19015 
L 483.524712 312.621665 
L 483.953393 301.525742 
L 484.382074 300.702555 
L 484.810755 295.710437 
L 485.239437 305.296605 
L 485.668118 293.541033 
L 486.096799 299.518124 
L 486.52548 307.536336 
L 486.954161 290.83192 
L 487.382843 287.314103 
L 487.811524 290.544452 
L 488.240205 297.025522 
L 488.668886 301.434122 
L 489.097567 291.230194 
L 489.526248 298.519782 
L 489.95493 299.966031 
L 490.383611 282.435351 
L 490.812292 287.203794 
L 491.240973 286.21562 
L 491.669654 286.120221 
L 492.098335 272.030937 
L 492.527017 288.746828 
L 493.384379 271.715515 
L 493.81306 271.766471 
L 494.241741 275.816192 
L 494.670423 270.617537 
L 495.099104 269.770026 
L 495.527785 256.214199 
L 495.956466 264.600596 
L 496.385147 267.791695 
L 496.813828 254.530144 
L 497.24251 268.576737 
L 497.671191 255.583893 
L 498.099872 249.72173 
L 498.528553 263.499218 
L 498.957234 252.677505 
L 499.385915 247.384407 
L 499.814597 245.066419 
L 500.671959 237.649928 
L 501.10064 247.474126 
L 501.529321 253.115154 
L 501.958003 251.612576 
L 502.386684 241.548383 
L 502.815365 255.154011 
L 503.244046 241.305181 
L 503.672727 251.182599 
L 504.101408 249.187425 
L 504.53009 240.695927 
L 504.958771 246.232978 
L 505.387452 247.461561 
L 505.816133 246.216474 
L 506.244814 232.908873 
L 506.673496 250.562258 
L 507.102177 241.23068 
L 507.530858 245.024616 
L 507.959539 223.507311 
L 508.38822 243.604161 
L 508.816901 231.458384 
L 509.245583 237.995684 
L 509.674264 253.9647 
L 510.102945 241.394979 
L 510.531626 240.959002 
L 510.960307 245.997845 
L 511.388988 259.393829 
L 511.81767 233.699233 
L 512.246351 250.121588 
L 512.675032 258.872062 
L 513.103713 243.18136 
L 513.532394 253.836239 
L 513.961076 251.935161 
L 514.818438 267.441761 
L 515.247119 258.505686 
L 515.6758 254.077539 
L 516.104481 260.379057 
L 516.533163 261.555893 
L 516.961844 261.806371 
L 517.390525 262.191881 
L 517.819206 267.899469 
L 518.247887 269.695792 
L 518.676569 273.964426 
L 519.10525 279.617256 
L 519.533931 281.535683 
L 519.962612 278.9112 
L 520.391293 280.153956 
L 520.819974 279.429462 
L 521.248656 95.89985 
L 522.106018 95.89985 
L 522.534699 280.363526 
L 522.96338 282.425583 
L 523.392061 285.555447 
L 523.820743 292.492718 
L 524.249424 291.649741 
L 524.678105 291.419174 
L 525.106786 289.622474 
L 525.535467 291.454378 
L 525.964149 280.768548 
L 526.39283 295.307856 
L 526.821511 298.756106 
L 527.250192 305.18629 
L 527.678873 301.85071 
L 528.107554 279.67204 
L 528.536236 294.768276 
L 528.964917 291.403798 
L 529.393598 296.243619 
L 529.822279 296.744483 
L 530.25096 299.152473 
L 531.108323 289.140858 
L 531.537004 292.556024 
L 531.965685 299.566343 
L 532.394366 297.284176 
L 532.823047 306.863027 
L 533.251729 290.079632 
L 533.68041 285.341707 
L 534.109091 305.890709 
L 534.537772 295.801943 
L 534.966453 300.569332 
L 535.395134 301.802846 
L 535.823816 286.574357 
L 536.252497 285.02323 
L 536.681178 278.54675 
L 537.109859 287.178056 
L 537.53854 300.773105 
L 537.967222 284.909134 
L 538.395903 291.150803 
L 539.253265 282.524528 
L 539.681946 282.190706 
L 540.110627 276.131882 
L 540.539309 283.814637 
L 540.96799 282.405972 
L 541.825352 269.347211 
L 542.254033 275.763434 
L 542.682714 275.859265 
L 543.111396 276.347329 
L 543.540077 273.01479 
L 543.968758 268.355614 
L 544.397439 272.252486 
L 544.82612 258.77759 
L 545.254802 274.513686 
L 545.683483 260.767975 
L 546.112164 267.288857 
L 546.540845 248.766123 
L 546.969526 258.099708 
L 547.398207 246.106987 
L 547.826889 254.365444 
L 548.25557 251.529468 
L 548.684251 255.1707 
L 549.112932 266.808635 
L 549.541613 235.429791 
L 549.970294 253.483522 
L 550.398976 226.983375 
L 550.827657 239.965543 
L 551.256338 244.45823 
L 551.685019 235.345268 
L 552.1137 233.167038 
L 552.542382 239.243289 
L 552.971063 236.053936 
L 553.399744 224.422401 
L 553.828425 244.300541 
L 554.257106 235.051469 
L 554.685787 229.137753 
L 555.114469 242.659678 
L 555.54315 244.644618 
L 555.971831 224.387983 
L 556.400512 237.491482 
L 556.829193 239.185537 
L 557.257875 232.777912 
L 557.686556 236.093069 
L 558.115237 236.236065 
L 558.543918 241.896261 
L 558.972599 238.933307 
L 559.40128 228.165865 
L 559.829962 230.823121 
L 560.258643 238.565734 
L 560.687324 219.809059 
L 561.116005 226.421858 
L 561.544686 241.26109 
L 561.973367 238.026731 
L 562.402049 258.83499 
L 562.83073 233.208189 
L 563.259411 236.76405 
L 563.688092 244.562364 
L 564.545455 243.216292 
L 564.974136 238.567191 
L 565.402817 252.475469 
L 565.831498 240.907202 
L 566.260179 244.263881 
L 566.68886 254.935737 
L 567.117542 253.7453 
L 567.546223 241.725886 
L 567.974904 255.895502 
L 568.403585 265.231712 
L 568.832266 267.28885 
L 569.260948 259.924086 
L 569.689629 259.506818 
L 570.11831 260.97614 
L 570.546991 265.776323 
L 570.975672 278.152847 
L 571.833035 262.750765 
L 572.261716 284.809058 
L 572.690397 267.642186 
L 573.119078 282.287861 
L 573.547759 275.706771 
L 573.97644 284.550857 
L 574.405122 271.733609 
L 574.833803 281.937736 
L 575.262484 276.690697 
L 575.691165 285.57484 
L 576.548528 292.160754 
L 576.977209 290.865266 
L 577.40589 286.663789 
L 577.834571 276.434839 
L 578.263252 282.344214 
L 578.691933 290.666596 
L 579.120615 285.678523 
L 579.549296 294.049566 
L 579.977977 292.026564 
L 580.406658 287.46327 
L 580.835339 271.696303 
L 581.26402 287.435196 
L 581.692702 288.340559 
L 582.121383 303.579695 
L 582.550064 281.432746 
L 582.978745 280.801238 
L 583.407426 298.756296 
L 583.836108 288.135299 
L 584.264789 293.001419 
L 584.69347 286.426772 
L 585.122151 289.765177 
L 585.550832 279.410881 
L 585.979513 283.779651 
L 586.408195 283.788203 
L 586.836876 280.96643 
L 587.265557 293.975901 
L 587.694238 288.848916 
L 588.122919 271.616439 
L 588.551601 277.894764 
L 588.980282 275.27951 
L 589.408963 285.476308 
L 589.837644 261.429952 
L 590.266325 277.222947 
L 590.695006 269.259666 
L 591.123688 272.509446 
L 591.552369 263.458347 
L 591.98105 273.519622 
L 592.409731 259.899492 
L 592.838412 258.147365 
L 593.267093 267.871702 
L 593.695775 271.701417 
L 594.124456 256.958044 
L 594.553137 272.699451 
L 594.981818 251.476725 
L 595.839181 247.716666 
L 596.267862 253.203023 
L 596.696543 237.795402 
L 597.125224 248.649674 
L 597.553905 252.24199 
L 597.982586 246.944924 
L 598.411268 250.919452 
L 598.839949 249.475642 
L 599.26863 238.575319 
L 599.697311 238.122891 
L 600.125992 240.429325 
L 600.554673 237.04448 
L 600.983355 235.342448 
L 601.412036 235.058083 
L 601.840717 220.714055 
L 602.269398 234.580911 
L 602.698079 225.398878 
L 603.126761 230.950362 
L 603.555442 234.620683 
L 603.984123 233.014702 
L 604.412804 225.310151 
L 604.841485 229.258106 
L 605.270166 224.035329 
L 605.698848 222.367241 
L 606.127529 219.436903 
L 606.55621 230.2578 
L 606.984891 214.853656 
L 607.413572 235.475266 
L 607.842254 235.444258 
L 608.270935 216.039802 
L 608.699616 215.456506 
L 609.128297 230.841089 
L 609.556978 220.605889 
L 609.985659 232.542354 
L 610.414341 214.415973 
L 610.843022 224.62686 
L 611.700384 228.442159 
L 612.129065 234.907396 
L 612.557746 222.457386 
L 612.986428 228.698823 
L 613.415109 226.512892 
L 613.84379 235.807701 
L 614.272471 234.449469 
L 614.701152 231.352008 
L 615.129834 245.166558 
L 615.558515 241.323807 
L 615.987196 240.557636 
L 616.415877 234.332444 
L 616.844558 245.320407 
L 617.273239 247.625317 
L 617.701921 239.514155 
L 618.130602 248.451922 
L 618.559283 238.699363 
L 618.987964 257.369866 
L 619.416645 250.555541 
L 619.845327 254.784345 
L 620.274008 254.524092 
L 620.702689 248.202052 
L 621.13137 249.820776 
L 621.988732 269.223253 
L 622.417414 263.703409 
L 622.846095 251.832844 
L 623.274776 261.872448 
L 623.703457 268.757465 
L 624.989501 255.479143 
L 625.846863 275.942831 
L 626.275544 256.371568 
L 626.704225 271.349052 
L 627.132907 263.928468 
L 627.561588 265.653969 
L 627.990269 287.737623 
L 628.41895 265.238175 
L 628.847631 277.102228 
L 629.276312 282.40494 
L 629.704994 277.225202 
L 630.133675 277.712644 
L 630.562356 278.51451 
L 630.991037 279.982513 
L 631.419718 269.796767 
L 631.848399 272.98185 
L 632.277081 277.502431 
L 632.705762 283.358374 
L 633.134443 271.717417 
L 633.563124 275.089997 
L 633.991805 281.88654 
L 634.420487 282.033419 
L 634.849168 280.064333 
L 635.277849 279.01561 
L 636.135211 271.186322 
L 636.563892 274.677847 
L 636.992574 285.951405 
L 637.421255 272.136148 
L 637.849936 266.429822 
L 638.278617 280.725755 
L 638.707298 283.32221 
L 639.13598 265.154803 
L 639.564661 271.406519 
L 639.993342 264.420623 
L 640.422023 267.854706 
L 640.850704 253.91469 
L 641.708067 257.878655 
L 642.99411 250.157968 
L 643.422791 261.611403 
L 643.851472 243.987148 
L 644.280154 261.409563 
L 644.708835 264.374931 
L 645.137516 250.230844 
L 645.566197 243.339906 
L 645.994878 243.11024 
L 646.42356 240.231154 
L 646.852241 241.588383 
L 647.280922 244.393065 
L 647.709603 237.999076 
L 648.138284 225.816426 
L 648.566965 237.411918 
L 648.995647 230.936535 
L 649.424328 229.407724 
L 649.853009 223.258201 
L 650.28169 236.491216 
L 651.139052 224.937324 
L 651.567734 228.120688 
L 651.996415 223.035822 
L 652.425096 224.597544 
L 653.282458 231.074433 
L 653.71114 214.579622 
L 654.139821 218.177027 
L 654.568502 213.184699 
L 654.997183 231.859266 
L 655.425864 209.783537 
L 656.283227 218.257549 
L 656.711908 211.507471 
L 657.140589 212.773819 
L 657.56927 210.256248 
L 657.997951 210.702066 
L 658.426633 212.895065 
L 658.855314 213.009986 
L 659.283995 217.819254 
L 659.712676 211.222659 
L 660.141357 217.732732 
L 660.570038 206.332177 
L 660.99872 214.374161 
L 661.427401 206.36497 
L 661.856082 218.302764 
L 662.284763 218.005701 
L 662.713444 212.080234 
L 663.142125 211.01929 
L 663.570807 226.262349 
L 663.999488 214.66748 
L 664.428169 214.018448 
L 664.85685 224.833716 
L 665.285531 218.682779 
L 665.714213 228.451036 
L 666.142894 228.910066 
L 666.571575 227.942272 
L 667.000256 232.563187 
L 667.428937 220.141328 
L 667.857618 231.175189 
L 668.2863 235.022864 
L 668.714981 244.179592 
L 669.143662 234.855597 
L 669.572343 241.71307 
L 670.001024 240.935199 
L 670.429706 242.098923 
L 670.858387 252.029023 
L 671.287068 240.005342 
L 671.715749 243.159765 
L 672.14443 243.429819 
L 673.001793 260.881157 
L 673.430474 238.196887 
L 673.859155 243.046598 
L 674.287836 256.333235 
L 674.716517 263.98119 
L 675.145198 257.366692 
L 675.57388 257.790004 
L 676.002561 271.954364 
L 676.431242 261.815878 
L 676.859923 260.670295 
L 677.288604 251.576986 
L 677.717286 270.372083 
L 678.145967 249.039023 
L 679.003329 266.502834 
L 679.43201 269.260121 
L 680.289373 260.16286 
L 680.718054 259.66915 
L 681.575416 274.625098 
L 682.004097 262.975424 
L 682.432778 263.556221 
L 682.86146 274.097655 
L 683.290141 277.09829 
L 683.718822 271.185986 
L 684.147503 268.017971 
L 684.576184 271.504525 
L 685.004866 276.383057 
L 685.433547 274.767722 
L 685.862228 263.729041 
L 686.290909 264.04927 
L 686.71959 265.637544 
L 687.148271 271.23935 
L 687.576953 267.295396 
L 688.005634 272.576218 
L 688.434315 258.811058 
L 688.862996 274.858925 
L 689.291677 263.983114 
L 689.720359 262.819197 
L 690.14904 264.14112 
L 690.577721 243.19094 
L 691.006402 243.454284 
L 691.435083 259.395746 
L 691.863764 251.87898 
L 692.292446 251.141858 
L 693.149808 247.059274 
L 693.578489 252.847818 
L 694.00717 260.714622 
L 694.435851 248.178704 
L 694.864533 239.424062 
L 695.293214 245.686637 
L 695.721895 238.253147 
L 696.150576 243.595453 
L 696.579257 235.530862 
L 697.007939 232.192637 
L 697.43662 233.081072 
L 697.865301 238.44645 
L 698.293982 222.781398 
L 699.151344 235.062254 
L 700.008707 223.180674 
L 700.866069 232.41388 
L 701.723431 218.649613 
L 702.152113 216.170473 
L 702.580794 205.998281 
L 703.009475 218.467692 
L 703.438156 218.66715 
L 703.866837 216.328825 
L 704.295519 204.691046 
L 704.7242 215.469963 
L 705.152881 209.917419 
L 705.581562 195.05529 
L 706.010243 215.664724 
L 706.867606 209.216968 
L 707.296287 216.051527 
L 707.724968 204.19149 
L 708.153649 218.318299 
L 708.58233 207.40219 
L 709.011012 210.31399 
L 709.439693 209.25007 
L 709.868374 197.571761 
L 710.297055 200.41685 
L 710.725736 193.834257 
L 711.583099 204.707489 
L 712.01178 210.137494 
L 712.440461 205.222459 
L 712.869142 205.435701 
L 713.297823 209.759276 
L 713.726504 218.112612 
L 714.155186 204.884021 
L 714.583867 215.610136 
L 715.012548 219.382851 
L 715.441229 212.152151 
L 715.86991 216.110938 
L 716.298592 208.592808 
L 716.727273 218.49901 
L 717.155954 209.988368 
L 717.584635 216.542378 
L 718.013316 218.453036 
L 718.441997 222.544528 
L 718.870679 214.962244 
L 719.29936 226.873131 
L 719.728041 229.656254 
L 720.156722 225.626816 
L 720.585403 227.194946 
L 721.014085 217.323052 
L 721.442766 231.899381 
L 721.871447 227.982084 
L 722.300128 234.898415 
L 722.728809 226.421077 
L 723.15749 234.083621 
L 723.586172 235.072451 
L 724.014853 238.867468 
L 724.443534 247.950184 
L 724.872215 247.454145 
L 725.300896 241.462217 
L 725.729577 252.932347 
L 726.158259 239.904305 
L 726.58694 257.188345 
L 727.015621 257.745893 
L 727.444302 258.67849 
L 728.301665 246.689213 
L 728.730346 264.550302 
L 729.159027 258.161215 
L 729.587708 256.001335 
L 730.016389 267.331711 
L 730.44507 259.649606 
L 730.873752 259.925437 
L 731.302433 252.665787 
L 731.731114 255.524317 
L 732.159795 268.484337 
L 732.588476 267.748091 
L 733.017157 265.521591 
L 733.445839 274.352599 
L 733.87452 268.449847 
L 734.303201 255.934444 
L 734.731882 263.533203 
L 735.160563 255.994546 
L 735.589245 255.462859 
L 736.017926 264.986891 
L 736.446607 262.670232 
L 736.875288 247.156679 
L 737.303969 260.852979 
L 737.73265 256.580234 
L 738.161332 249.953632 
L 738.590013 257.16874 
L 739.018694 254.545175 
L 739.447375 262.372574 
L 739.876056 240.742302 
L 740.304738 257.234178 
L 740.733419 258.634596 
L 741.1621 253.529013 
L 741.590781 237.486352 
L 742.019462 258.521063 
L 742.448143 247.185624 
L 742.876825 252.228521 
L 743.305506 249.440544 
L 743.734187 241.197962 
L 744.162868 236.777371 
L 744.591549 227.6032 
L 745.02023 239.070736 
L 745.448912 232.143293 
L 745.877593 250.794534 
L 746.306274 230.648036 
L 746.734955 219.409705 
L 747.163636 224.947863 
L 747.163636 224.947863 
" style="fill:none;stroke:#1f77b4;stroke-linecap:square;stroke-width:1.5;"/>
   </g>
   <g id="line2d_18">
    <path clip-path="url(#p3d80e70f89)" d="M 747.163636 384.48 
L 747.163636 51.84 
" style="fill:none;stroke:#808080;stroke-linecap:square;"/>
   </g>
   <g id="patch_86">
    <path d="M 108 384.48 
L 108 51.84 
" style="fill:none;stroke:#000000;stroke-linecap:square;stroke-linejoin:miter;stroke-width:0.8;"/>
   </g>
   <g id="patch_87">
    <path d="M 777.6 384.48 
L 777.6 51.84 
" style="fill:none;stroke:#000000;stroke-linecap:square;stroke-linejoin:miter;stroke-width:0.8;"/>
   </g>
   <g id="patch_88">
    <path d="M 108 384.48 
L 777.6 384.48 
" style="fill:none;stroke:#000000;stroke-linecap:square;stroke-linejoin:miter;stroke-width:0.8;"/>
   </g>
   <g id="patch_89">
    <path d="M 108 51.84 
L 777.6 51.84 
" style="fill:none;stroke:#000000;stroke-linecap:square;stroke-linejoin:miter;stroke-width:0.8;"/>
   </g>
   <g id="text_19">
    <!-- synthetic_89.csv -->
    <defs>
     <path d="M 32.171875 -5.078125 
Q 28.375 -14.84375 24.75 -17.8125 
Q 21.140625 -20.796875 15.09375 -20.796875 
L 7.90625 -20.796875 
L 7.90625 -13.28125 
L 13.1875 -13.28125 
Q 16.890625 -13.28125 18.9375 -11.515625 
Q 21 -9.765625 23.484375 -3.21875 
L 25.09375 0.875 
L 2.984375 54.6875 
L 12.5 54.6875 
L 29.59375 11.921875 
L 46.6875 54.6875 
L 56.203125 54.6875 
z
" id="DejaVuSans-121"/>
     <path d="M 54.890625 33.015625 
L 54.890625 0 
L 45.90625 0 
L 45.90625 32.71875 
Q 45.90625 40.484375 42.875 44.328125 
Q 39.84375 48.1875 33.796875 48.1875 
Q 26.515625 48.1875 22.3125 43.546875 
Q 18.109375 38.921875 18.109375 30.90625 
L 18.109375 0 
L 9.078125 0 
L 9.078125 54.6875 
L 18.109375 54.6875 
L 18.109375 46.1875 
Q 21.34375 51.125 25.703125 53.5625 
Q 30.078125 56 35.796875 56 
Q 45.21875 56 50.046875 50.171875 
Q 54.890625 44.34375 54.890625 33.015625 
z
" id="DejaVuSans-110"/>
     <path d="M 54.890625 33.015625 
L 54.890625 0 
L 45.90625 0 
L 45.90625 32.71875 
Q 45.90625 40.484375 42.875 44.328125 
Q 39.84375 48.1875 33.796875 48.1875 
Q 26.515625 48.1875 22.3125 43.546875 
Q 18.109375 38.921875 18.109375 30.90625 
L 18.109375 0 
L 9.078125 0 
L 9.078125 75.984375 
L 18.109375 75.984375 
L 18.109375 46.1875 
Q 21.34375 51.125 25.703125 53.5625 
Q 30.078125 56 35.796875 56 
Q 45.21875 56 50.046875 50.171875 
Q 54.890625 44.34375 54.890625 33.015625 
z
" id="DejaVuSans-104"/>
     <path d="M 48.78125 52.59375 
L 48.78125 44.1875 
Q 44.96875 46.296875 41.140625 47.34375 
Q 37.3125 48.390625 33.40625 48.390625 
Q 24.65625 48.390625 19.8125 42.84375 
Q 14.984375 37.3125 14.984375 27.296875 
Q 14.984375 17.28125 19.8125 11.734375 
Q 24.65625 6.203125 33.40625 6.203125 
Q 37.3125 6.203125 41.140625 7.25 
Q 44.96875 8.296875 48.78125 10.40625 
L 48.78125 2.09375 
Q 45.015625 0.34375 40.984375 -0.53125 
Q 36.96875 -1.421875 32.421875 -1.421875 
Q 20.0625 -1.421875 12.78125 6.34375 
Q 5.515625 14.109375 5.515625 27.296875 
Q 5.515625 40.671875 12.859375 48.328125 
Q 20.21875 56 33.015625 56 
Q 37.15625 56 41.109375 55.140625 
Q 45.0625 54.296875 48.78125 52.59375 
z
" id="DejaVuSans-99"/>
     <path d="M 50.984375 -16.609375 
L 50.984375 -23.578125 
L -0.984375 -23.578125 
L -0.984375 -16.609375 
z
" id="DejaVuSans-95"/>
     <path d="M 10.984375 1.515625 
L 10.984375 10.5 
Q 14.703125 8.734375 18.5 7.8125 
Q 22.3125 6.890625 25.984375 6.890625 
Q 35.75 6.890625 40.890625 13.453125 
Q 46.046875 20.015625 46.78125 33.40625 
Q 43.953125 29.203125 39.59375 26.953125 
Q 35.25 24.703125 29.984375 24.703125 
Q 19.046875 24.703125 12.671875 31.3125 
Q 6.296875 37.9375 6.296875 49.421875 
Q 6.296875 60.640625 12.9375 67.421875 
Q 19.578125 74.21875 30.609375 74.21875 
Q 43.265625 74.21875 49.921875 64.515625 
Q 56.59375 54.828125 56.59375 36.375 
Q 56.59375 19.140625 48.40625 8.859375 
Q 40.234375 -1.421875 26.421875 -1.421875 
Q 22.703125 -1.421875 18.890625 -0.6875 
Q 15.09375 0.046875 10.984375 1.515625 
z
M 30.609375 32.421875 
Q 37.25 32.421875 41.125 36.953125 
Q 45.015625 41.5 45.015625 49.421875 
Q 45.015625 57.28125 41.125 61.84375 
Q 37.25 66.40625 30.609375 66.40625 
Q 23.96875 66.40625 20.09375 61.84375 
Q 16.21875 57.28125 16.21875 49.421875 
Q 16.21875 41.5 20.09375 36.953125 
Q 23.96875 32.421875 30.609375 32.421875 
z
" id="DejaVuSans-57"/>
     <path d="M 10.6875 12.40625 
L 21 12.40625 
L 21 0 
L 10.6875 0 
z
" id="DejaVuSans-46"/>
     <path d="M 2.984375 54.6875 
L 12.5 54.6875 
L 29.59375 8.796875 
L 46.6875 54.6875 
L 56.203125 54.6875 
L 35.6875 0 
L 23.484375 0 
z
" id="DejaVuSans-118"/>
    </defs>
    <g transform="translate(392.638125 45.84)scale(0.12 -0.12)">
     <use xlink:href="#DejaVuSans-115"/>
     <use x="52.099609" xlink:href="#DejaVuSans-121"/>
     <use x="111.279297" xlink:href="#DejaVuSans-110"/>
     <use x="174.658203" xlink:href="#DejaVuSans-116"/>
     <use x="213.867188" xlink:href="#DejaVuSans-104"/>
     <use x="277.246094" xlink:href="#DejaVuSans-101"/>
     <use x="338.769531" xlink:href="#DejaVuSans-116"/>
     <use x="377.978516" xlink:href="#DejaVuSans-105"/>
     <use x="405.761719" xlink:href="#DejaVuSans-99"/>
     <use x="460.742188" xlink:href="#DejaVuSans-95"/>
     <use x="510.742188" xlink:href="#DejaVuSans-56"/>
     <use x="574.365234" xlink:href="#DejaVuSans-57"/>
     <use x="637.988281" xlink:href="#DejaVuSans-46"/>
     <use x="669.775391" xlink:href="#DejaVuSans-99"/>
     <use x="724.755859" xlink:href="#DejaVuSans-115"/>
     <use x="776.855469" xlink:href="#DejaVuSans-118"/>
    </g>
   </g>
   <g id="legend_1">
    <g id="patch_90">
     <path d="M 711.284375 74.518125 
L 770.6 74.518125 
Q 772.6 74.518125 772.6 72.518125 
L 772.6 58.84 
Q 772.6 56.84 770.6 56.84 
L 711.284375 56.84 
Q 709.284375 56.84 709.284375 58.84 
L 709.284375 72.518125 
Q 709.284375 74.518125 711.284375 74.518125 
z
" style="fill:#ffffff;opacity:0.8;stroke:#cccccc;stroke-linejoin:miter;"/>
    </g>
    <g id="line2d_19">
     <path d="M 713.284375 64.938438 
L 733.284375 64.938438 
" style="fill:none;stroke:#1f77b4;stroke-linecap:square;stroke-width:1.5;"/>
    </g>
    <g id="line2d_20"/>
    <g id="text_20">
     <!-- value -->
     <g transform="translate(741.284375 68.438438)scale(0.1 -0.1)">
      <use xlink:href="#DejaVuSans-118"/>
      <use x="59.179688" xlink:href="#DejaVuSans-97"/>
      <use x="120.458984" xlink:href="#DejaVuSans-108"/>
      <use x="148.242188" xlink:href="#DejaVuSans-117"/>
      <use x="211.621094" xlink:href="#DejaVuSans-101"/>
     </g>
    </g>
   </g>
  </g>
 </g>
 <defs>
  <clipPath id="p3d80e70f89">
   <rect height="332.64" width="669.6" x="108" y="51.84"/>
  </clipPath>
 </defs>
</svg>
