<?xml version="1.0" encoding="utf-8" standalone="no"?>
<!DOCTYPE svg PUBLIC "-//W3C//DTD SVG 1.1//EN"
  "http://www.w3.org/Graphics/SVG/1.1/DTD/svg11.dtd">
<!-- Created with matplotlib (https://matplotlib.org/) -->
<svg height="432pt" version="1.1" viewBox="0 0 864 432" width="864pt" xmlns="http://www.w3.org/2000/svg" xmlns:xlink="http://www.w3.org/1999/xlink">
 <defs>
  <style type="text/css">
*{stroke-linecap:butt;stroke-linejoin:round;}
  </style>
 </defs>
 <g id="figure_1">
  <g id="patch_1">
   <path d="M 0 432 
L 864 432 
L 864 0 
L 0 0 
z
" style="fill:#ffffff;"/>
  </g>
  <g id="axes_1">
   <g id="patch_2">
    <path d="M 108 384.48 
L 777.6 384.48 
L 777.6 51.84 
L 108 51.84 
z
" style="fill:#ffffff;"/>
   </g>
   <g id="patch_3">
    <path clip-path="url(#pe9a359c5d9)" d="M 138.436364 384.48 
L 138.436364 51.84 
L 381.202597 51.84 
L 381.202597 384.48 
z
" style="fill:#0000ff;opacity:0.05;"/>
   </g>
   <g id="patch_4">
    <path clip-path="url(#pe9a359c5d9)" d="M 381.202597 384.48 
L 381.202597 51.84 
L 747.163636 51.84 
L 747.163636 384.48 
z
" style="fill:#ff0000;opacity:0.08;"/>
   </g>
   <g id="patch_5">
    <path clip-path="url(#pe9a359c5d9)" d="M 138.436364 384.48 
L 138.436364 51.84 
L 142.05974 51.84 
L 142.05974 384.48 
z
" style="fill:#008000;opacity:0.04;"/>
   </g>
   <g id="patch_6">
    <path clip-path="url(#pe9a359c5d9)" d="M 145.683117 384.48 
L 145.683117 51.84 
L 149.306494 51.84 
L 149.306494 384.48 
z
" style="fill:#008000;opacity:0.04;"/>
   </g>
   <g id="patch_7">
    <path clip-path="url(#pe9a359c5d9)" d="M 145.683117 371.1744 
L 145.683117 51.84 
L 149.306494 51.84 
L 149.306494 371.1744 
z
" style="fill:#008000;opacity:0.5;"/>
   </g>
   <g id="patch_8">
    <path clip-path="url(#pe9a359c5d9)" d="M 152.92987 384.48 
L 152.92987 51.84 
L 156.553247 51.84 
L 156.553247 384.48 
z
" style="fill:#008000;opacity:0.04;"/>
   </g>
   <g id="patch_9">
    <path clip-path="url(#pe9a359c5d9)" d="M 160.176623 384.48 
L 160.176623 51.84 
L 163.8 51.84 
L 163.8 384.48 
z
" style="fill:#008000;opacity:0.04;"/>
   </g>
   <g id="patch_10">
    <path clip-path="url(#pe9a359c5d9)" d="M 167.423377 384.48 
L 167.423377 51.84 
L 171.046753 51.84 
L 171.046753 384.48 
z
" style="fill:#008000;opacity:0.04;"/>
   </g>
   <g id="patch_11">
    <path clip-path="url(#pe9a359c5d9)" d="M 174.67013 384.48 
L 174.67013 51.84 
L 178.293506 51.84 
L 178.293506 384.48 
z
" style="fill:#008000;opacity:0.04;"/>
   </g>
   <g id="patch_12">
    <path clip-path="url(#pe9a359c5d9)" d="M 181.916883 384.48 
L 181.916883 51.84 
L 185.54026 51.84 
L 185.54026 384.48 
z
" style="fill:#008000;opacity:0.04;"/>
   </g>
   <g id="patch_13">
    <path clip-path="url(#pe9a359c5d9)" d="M 189.163636 384.48 
L 189.163636 51.84 
L 192.787013 51.84 
L 192.787013 384.48 
z
" style="fill:#008000;opacity:0.04;"/>
   </g>
   <g id="patch_14">
    <path clip-path="url(#pe9a359c5d9)" d="M 196.41039 384.48 
L 196.41039 51.84 
L 200.033766 51.84 
L 200.033766 384.48 
z
" style="fill:#008000;opacity:0.04;"/>
   </g>
   <g id="patch_15">
    <path clip-path="url(#pe9a359c5d9)" d="M 200.033766 371.1744 
L 200.033766 51.84 
L 203.657143 51.84 
L 203.657143 371.1744 
z
" style="fill:#008000;opacity:0.5;"/>
   </g>
   <g id="patch_16">
    <path clip-path="url(#pe9a359c5d9)" d="M 203.657143 384.48 
L 203.657143 51.84 
L 207.280519 51.84 
L 207.280519 384.48 
z
" style="fill:#008000;opacity:0.04;"/>
   </g>
   <g id="patch_17">
    <path clip-path="url(#pe9a359c5d9)" d="M 210.903896 384.48 
L 210.903896 51.84 
L 214.527273 51.84 
L 214.527273 384.48 
z
" style="fill:#008000;opacity:0.04;"/>
   </g>
   <g id="patch_18">
    <path clip-path="url(#pe9a359c5d9)" d="M 218.150649 384.48 
L 218.150649 51.84 
L 221.774026 51.84 
L 221.774026 384.48 
z
" style="fill:#008000;opacity:0.04;"/>
   </g>
   <g id="patch_19">
    <path clip-path="url(#pe9a359c5d9)" d="M 225.397403 384.48 
L 225.397403 51.84 
L 229.020779 51.84 
L 229.020779 384.48 
z
" style="fill:#008000;opacity:0.04;"/>
   </g>
   <g id="patch_20">
    <path clip-path="url(#pe9a359c5d9)" d="M 232.644156 384.48 
L 232.644156 51.84 
L 236.267532 51.84 
L 236.267532 384.48 
z
" style="fill:#008000;opacity:0.04;"/>
   </g>
   <g id="patch_21">
    <path clip-path="url(#pe9a359c5d9)" d="M 239.890909 384.48 
L 239.890909 51.84 
L 243.514286 51.84 
L 243.514286 384.48 
z
" style="fill:#008000;opacity:0.04;"/>
   </g>
   <g id="patch_22">
    <path clip-path="url(#pe9a359c5d9)" d="M 247.137662 384.48 
L 247.137662 51.84 
L 250.761039 51.84 
L 250.761039 384.48 
z
" style="fill:#008000;opacity:0.04;"/>
   </g>
   <g id="patch_23">
    <path clip-path="url(#pe9a359c5d9)" d="M 254.384416 384.48 
L 254.384416 51.84 
L 258.007792 51.84 
L 258.007792 384.48 
z
" style="fill:#008000;opacity:0.04;"/>
   </g>
   <g id="patch_24">
    <path clip-path="url(#pe9a359c5d9)" d="M 261.631169 384.48 
L 261.631169 51.84 
L 265.254545 51.84 
L 265.254545 384.48 
z
" style="fill:#008000;opacity:0.04;"/>
   </g>
   <g id="patch_25">
    <path clip-path="url(#pe9a359c5d9)" d="M 268.877922 384.48 
L 268.877922 51.84 
L 272.501299 51.84 
L 272.501299 384.48 
z
" style="fill:#008000;opacity:0.04;"/>
   </g>
   <g id="patch_26">
    <path clip-path="url(#pe9a359c5d9)" d="M 276.124675 384.48 
L 276.124675 51.84 
L 279.748052 51.84 
L 279.748052 384.48 
z
" style="fill:#008000;opacity:0.04;"/>
   </g>
   <g id="patch_27">
    <path clip-path="url(#pe9a359c5d9)" d="M 283.371429 384.48 
L 283.371429 51.84 
L 286.994805 51.84 
L 286.994805 384.48 
z
" style="fill:#008000;opacity:0.04;"/>
   </g>
   <g id="patch_28">
    <path clip-path="url(#pe9a359c5d9)" d="M 286.994805 371.1744 
L 286.994805 357.8688 
L 290.618182 357.8688 
L 290.618182 371.1744 
z
" style="fill:#ff00ff;"/>
   </g>
   <g id="patch_29">
    <path clip-path="url(#pe9a359c5d9)" d="M 290.618182 384.48 
L 290.618182 51.84 
L 294.241558 51.84 
L 294.241558 384.48 
z
" style="fill:#008000;opacity:0.04;"/>
   </g>
   <g id="patch_30">
    <path clip-path="url(#pe9a359c5d9)" d="M 297.864935 384.48 
L 297.864935 51.84 
L 301.488312 51.84 
L 301.488312 384.48 
z
" style="fill:#008000;opacity:0.04;"/>
   </g>
   <g id="patch_31">
    <path clip-path="url(#pe9a359c5d9)" d="M 301.488312 384.48 
L 301.488312 371.1744 
L 305.111688 371.1744 
L 305.111688 384.48 
z
" style="fill:#ffe500;"/>
   </g>
   <g id="patch_32">
    <path clip-path="url(#pe9a359c5d9)" d="M 305.111688 384.48 
L 305.111688 51.84 
L 308.735065 51.84 
L 308.735065 384.48 
z
" style="fill:#008000;opacity:0.04;"/>
   </g>
   <g id="patch_33">
    <path clip-path="url(#pe9a359c5d9)" d="M 312.358442 384.48 
L 312.358442 51.84 
L 315.981818 51.84 
L 315.981818 384.48 
z
" style="fill:#008000;opacity:0.04;"/>
   </g>
   <g id="patch_34">
    <path clip-path="url(#pe9a359c5d9)" d="M 319.605195 384.48 
L 319.605195 51.84 
L 323.228571 51.84 
L 323.228571 384.48 
z
" style="fill:#008000;opacity:0.04;"/>
   </g>
   <g id="patch_35">
    <path clip-path="url(#pe9a359c5d9)" d="M 319.605195 384.48 
L 319.605195 371.1744 
L 323.228571 371.1744 
L 323.228571 384.48 
z
" style="fill:#ffe500;"/>
   </g>
   <g id="patch_36">
    <path clip-path="url(#pe9a359c5d9)" d="M 326.851948 384.48 
L 326.851948 51.84 
L 330.475325 51.84 
L 330.475325 384.48 
z
" style="fill:#008000;opacity:0.04;"/>
   </g>
   <g id="patch_37">
    <path clip-path="url(#pe9a359c5d9)" d="M 334.098701 384.48 
L 334.098701 51.84 
L 337.722078 51.84 
L 337.722078 384.48 
z
" style="fill:#008000;opacity:0.04;"/>
   </g>
   <g id="patch_38">
    <path clip-path="url(#pe9a359c5d9)" d="M 341.345455 384.48 
L 341.345455 51.84 
L 344.968831 51.84 
L 344.968831 384.48 
z
" style="fill:#008000;opacity:0.04;"/>
   </g>
   <g id="patch_39">
    <path clip-path="url(#pe9a359c5d9)" d="M 344.968831 384.48 
L 344.968831 371.1744 
L 348.592208 371.1744 
L 348.592208 384.48 
z
" style="fill:#ffe500;"/>
   </g>
   <g id="patch_40">
    <path clip-path="url(#pe9a359c5d9)" d="M 348.592208 384.48 
L 348.592208 51.84 
L 352.215584 51.84 
L 352.215584 384.48 
z
" style="fill:#008000;opacity:0.04;"/>
   </g>
   <g id="patch_41">
    <path clip-path="url(#pe9a359c5d9)" d="M 355.838961 384.48 
L 355.838961 51.84 
L 359.462338 51.84 
L 359.462338 384.48 
z
" style="fill:#008000;opacity:0.04;"/>
   </g>
   <g id="patch_42">
    <path clip-path="url(#pe9a359c5d9)" d="M 363.085714 384.48 
L 363.085714 51.84 
L 366.709091 51.84 
L 366.709091 384.48 
z
" style="fill:#008000;opacity:0.04;"/>
   </g>
   <g id="patch_43">
    <path clip-path="url(#pe9a359c5d9)" d="M 363.085714 371.1744 
L 363.085714 51.84 
L 366.709091 51.84 
L 366.709091 371.1744 
z
" style="fill:#008000;opacity:0.5;"/>
   </g>
   <g id="patch_44">
    <path clip-path="url(#pe9a359c5d9)" d="M 363.085714 384.48 
L 363.085714 371.1744 
L 366.709091 371.1744 
L 366.709091 384.48 
z
" style="fill:#ffe500;"/>
   </g>
   <g id="patch_45">
    <path clip-path="url(#pe9a359c5d9)" d="M 370.332468 384.48 
L 370.332468 51.84 
L 373.955844 51.84 
L 373.955844 384.48 
z
" style="fill:#008000;opacity:0.04;"/>
   </g>
   <g id="patch_46">
    <path clip-path="url(#pe9a359c5d9)" d="M 370.332468 371.1744 
L 370.332468 51.84 
L 373.955844 51.84 
L 373.955844 371.1744 
z
" style="fill:#008000;opacity:0.5;"/>
   </g>
   <g id="patch_47">
    <path clip-path="url(#pe9a359c5d9)" d="M 370.332468 384.48 
L 370.332468 371.1744 
L 373.955844 371.1744 
L 373.955844 384.48 
z
" style="fill:#ffe500;"/>
   </g>
   <g id="patch_48">
    <path clip-path="url(#pe9a359c5d9)" d="M 373.955844 371.1744 
L 373.955844 51.84 
L 377.579221 51.84 
L 377.579221 371.1744 
z
" style="fill:#008000;opacity:0.5;"/>
   </g>
   <g id="patch_49">
    <path clip-path="url(#pe9a359c5d9)" d="M 373.955844 384.48 
L 373.955844 371.1744 
L 377.579221 371.1744 
L 377.579221 384.48 
z
" style="fill:#ffe500;"/>
   </g>
   <g id="patch_50">
    <path clip-path="url(#pe9a359c5d9)" d="M 377.579221 384.48 
L 377.579221 51.84 
L 381.202597 51.84 
L 381.202597 384.48 
z
" style="fill:#008000;opacity:0.04;"/>
   </g>
   <g id="patch_51">
    <path clip-path="url(#pe9a359c5d9)" d="M 377.579221 371.1744 
L 377.579221 51.84 
L 381.202597 51.84 
L 381.202597 371.1744 
z
" style="fill:#008000;opacity:0.5;"/>
   </g>
   <g id="patch_52">
    <path clip-path="url(#pe9a359c5d9)" d="M 384.825974 384.48 
L 384.825974 51.84 
L 388.449351 51.84 
L 388.449351 384.48 
z
" style="fill:#008000;opacity:0.04;"/>
   </g>
   <g id="patch_53">
    <path clip-path="url(#pe9a359c5d9)" d="M 392.072727 384.48 
L 392.072727 51.84 
L 395.696104 51.84 
L 395.696104 384.48 
z
" style="fill:#008000;opacity:0.04;"/>
   </g>
   <g id="patch_54">
    <path clip-path="url(#pe9a359c5d9)" d="M 399.319481 384.48 
L 399.319481 51.84 
L 402.942857 51.84 
L 402.942857 384.48 
z
" style="fill:#008000;opacity:0.04;"/>
   </g>
   <g id="patch_55">
    <path clip-path="url(#pe9a359c5d9)" d="M 406.566234 384.48 
L 406.566234 51.84 
L 410.18961 51.84 
L 410.18961 384.48 
z
" style="fill:#008000;opacity:0.04;"/>
   </g>
   <g id="patch_56">
    <path clip-path="url(#pe9a359c5d9)" d="M 413.812987 384.48 
L 413.812987 51.84 
L 417.436364 51.84 
L 417.436364 384.48 
z
" style="fill:#008000;opacity:0.04;"/>
   </g>
   <g id="patch_57">
    <path clip-path="url(#pe9a359c5d9)" d="M 421.05974 384.48 
L 421.05974 51.84 
L 424.683117 51.84 
L 424.683117 384.48 
z
" style="fill:#008000;opacity:0.04;"/>
   </g>
   <g id="patch_58">
    <path clip-path="url(#pe9a359c5d9)" d="M 428.306494 384.48 
L 428.306494 51.84 
L 431.92987 51.84 
L 431.92987 384.48 
z
" style="fill:#008000;opacity:0.04;"/>
   </g>
   <g id="patch_59">
    <path clip-path="url(#pe9a359c5d9)" d="M 435.553247 384.48 
L 435.553247 51.84 
L 439.176623 51.84 
L 439.176623 384.48 
z
" style="fill:#008000;opacity:0.04;"/>
   </g>
   <g id="patch_60">
    <path clip-path="url(#pe9a359c5d9)" d="M 439.176623 371.1744 
L 439.176623 357.8688 
L 442.8 357.8688 
L 442.8 371.1744 
z
" style="fill:#ff00ff;"/>
   </g>
   <g id="patch_61">
    <path clip-path="url(#pe9a359c5d9)" d="M 442.8 384.48 
L 442.8 51.84 
L 446.423377 51.84 
L 446.423377 384.48 
z
" style="fill:#008000;opacity:0.04;"/>
   </g>
   <g id="patch_62">
    <path clip-path="url(#pe9a359c5d9)" d="M 450.046753 384.48 
L 450.046753 51.84 
L 453.67013 51.84 
L 453.67013 384.48 
z
" style="fill:#008000;opacity:0.04;"/>
   </g>
   <g id="patch_63">
    <path clip-path="url(#pe9a359c5d9)" d="M 453.67013 371.1744 
L 453.67013 51.84 
L 457.293506 51.84 
L 457.293506 371.1744 
z
" style="fill:#008000;opacity:0.5;"/>
   </g>
   <g id="patch_64">
    <path clip-path="url(#pe9a359c5d9)" d="M 696.436364 384.48 
L 696.436364 371.1744 
L 700.05974 371.1744 
L 700.05974 384.48 
z
" style="fill:#ff6600;"/>
   </g>
   <g id="patch_65">
    <path clip-path="url(#pe9a359c5d9)" d="M 457.293506 384.48 
L 457.293506 51.84 
L 460.916883 51.84 
L 460.916883 384.48 
z
" style="fill:#008000;opacity:0.04;"/>
   </g>
   <g id="patch_66">
    <path clip-path="url(#pe9a359c5d9)" d="M 457.293506 371.1744 
L 457.293506 51.84 
L 460.916883 51.84 
L 460.916883 371.1744 
z
" style="fill:#008000;opacity:0.5;"/>
   </g>
   <g id="patch_67">
    <path clip-path="url(#pe9a359c5d9)" d="M 464.54026 384.48 
L 464.54026 51.84 
L 468.163636 51.84 
L 468.163636 384.48 
z
" style="fill:#008000;opacity:0.04;"/>
   </g>
   <g id="patch_68">
    <path clip-path="url(#pe9a359c5d9)" d="M 471.787013 384.48 
L 471.787013 51.84 
L 475.41039 51.84 
L 475.41039 384.48 
z
" style="fill:#008000;opacity:0.04;"/>
   </g>
   <g id="patch_69">
    <path clip-path="url(#pe9a359c5d9)" d="M 479.033766 384.48 
L 479.033766 51.84 
L 482.657143 51.84 
L 482.657143 384.48 
z
" style="fill:#008000;opacity:0.04;"/>
   </g>
   <g id="patch_70">
    <path clip-path="url(#pe9a359c5d9)" d="M 486.280519 384.48 
L 486.280519 51.84 
L 489.903896 51.84 
L 489.903896 384.48 
z
" style="fill:#008000;opacity:0.04;"/>
   </g>
   <g id="patch_71">
    <path clip-path="url(#pe9a359c5d9)" d="M 489.903896 371.1744 
L 489.903896 51.84 
L 493.527273 51.84 
L 493.527273 371.1744 
z
" style="fill:#008000;opacity:0.5;"/>
   </g>
   <g id="patch_72">
    <path clip-path="url(#pe9a359c5d9)" d="M 493.527273 384.48 
L 493.527273 51.84 
L 497.150649 51.84 
L 497.150649 384.48 
z
" style="fill:#008000;opacity:0.04;"/>
   </g>
   <g id="patch_73">
    <path clip-path="url(#pe9a359c5d9)" d="M 493.527273 371.1744 
L 493.527273 51.84 
L 497.150649 51.84 
L 497.150649 371.1744 
z
" style="fill:#008000;opacity:0.5;"/>
   </g>
   <g id="patch_74">
    <path clip-path="url(#pe9a359c5d9)" d="M 500.774026 384.48 
L 500.774026 51.84 
L 504.397403 51.84 
L 504.397403 384.48 
z
" style="fill:#008000;opacity:0.04;"/>
   </g>
   <g id="patch_75">
    <path clip-path="url(#pe9a359c5d9)" d="M 508.020779 384.48 
L 508.020779 51.84 
L 511.644156 51.84 
L 511.644156 384.48 
z
" style="fill:#008000;opacity:0.04;"/>
   </g>
   <g id="patch_76">
    <path clip-path="url(#pe9a359c5d9)" d="M 508.020779 371.1744 
L 508.020779 51.84 
L 511.644156 51.84 
L 511.644156 371.1744 
z
" style="fill:#008000;opacity:0.5;"/>
   </g>
   <g id="patch_77">
    <path clip-path="url(#pe9a359c5d9)" d="M 511.644156 371.1744 
L 511.644156 51.84 
L 515.267532 51.84 
L 515.267532 371.1744 
z
" style="fill:#008000;opacity:0.5;"/>
   </g>
   <g id="patch_78">
    <path clip-path="url(#pe9a359c5d9)" d="M 515.267532 384.48 
L 515.267532 51.84 
L 518.890909 51.84 
L 518.890909 384.48 
z
" style="fill:#008000;opacity:0.04;"/>
   </g>
   <g id="patch_79">
    <path clip-path="url(#pe9a359c5d9)" d="M 522.514286 384.48 
L 522.514286 51.84 
L 526.137662 51.84 
L 526.137662 384.48 
z
" style="fill:#008000;opacity:0.04;"/>
   </g>
   <g id="patch_80">
    <path clip-path="url(#pe9a359c5d9)" d="M 529.761039 384.48 
L 529.761039 51.84 
L 533.384416 51.84 
L 533.384416 384.48 
z
" style="fill:#008000;opacity:0.04;"/>
   </g>
   <g id="patch_81">
    <path clip-path="url(#pe9a359c5d9)" d="M 537.007792 384.48 
L 537.007792 51.84 
L 540.631169 51.84 
L 540.631169 384.48 
z
" style="fill:#008000;opacity:0.04;"/>
   </g>
   <g id="patch_82">
    <path clip-path="url(#pe9a359c5d9)" d="M 540.631169 371.1744 
L 540.631169 357.8688 
L 544.254545 357.8688 
L 544.254545 371.1744 
z
" style="fill:#ff00ff;"/>
   </g>
   <g id="patch_83">
    <path clip-path="url(#pe9a359c5d9)" d="M 544.254545 384.48 
L 544.254545 51.84 
L 547.877922 51.84 
L 547.877922 384.48 
z
" style="fill:#008000;opacity:0.04;"/>
   </g>
   <g id="patch_84">
    <path clip-path="url(#pe9a359c5d9)" d="M 551.501299 384.48 
L 551.501299 51.84 
L 555.124675 51.84 
L 555.124675 384.48 
z
" style="fill:#008000;opacity:0.04;"/>
   </g>
   <g id="patch_85">
    <path clip-path="url(#pe9a359c5d9)" d="M 558.748052 384.48 
L 558.748052 51.84 
L 562.371429 51.84 
L 562.371429 384.48 
z
" style="fill:#008000;opacity:0.04;"/>
   </g>
   <g id="patch_86">
    <path clip-path="url(#pe9a359c5d9)" d="M 565.994805 384.48 
L 565.994805 51.84 
L 569.618182 51.84 
L 569.618182 384.48 
z
" style="fill:#008000;opacity:0.04;"/>
   </g>
   <g id="patch_87">
    <path clip-path="url(#pe9a359c5d9)" d="M 573.241558 384.48 
L 573.241558 51.84 
L 576.864935 51.84 
L 576.864935 384.48 
z
" style="fill:#008000;opacity:0.04;"/>
   </g>
   <g id="patch_88">
    <path clip-path="url(#pe9a359c5d9)" d="M 580.488312 384.48 
L 580.488312 51.84 
L 584.111688 51.84 
L 584.111688 384.48 
z
" style="fill:#008000;opacity:0.04;"/>
   </g>
   <g id="patch_89">
    <path clip-path="url(#pe9a359c5d9)" d="M 587.735065 384.48 
L 587.735065 51.84 
L 591.358442 51.84 
L 591.358442 384.48 
z
" style="fill:#008000;opacity:0.04;"/>
   </g>
   <g id="patch_90">
    <path clip-path="url(#pe9a359c5d9)" d="M 591.358442 371.1744 
L 591.358442 357.8688 
L 594.981818 357.8688 
L 594.981818 371.1744 
z
" style="fill:#ff00ff;"/>
   </g>
   <g id="patch_91">
    <path clip-path="url(#pe9a359c5d9)" d="M 594.981818 384.48 
L 594.981818 51.84 
L 598.605195 51.84 
L 598.605195 384.48 
z
" style="fill:#008000;opacity:0.04;"/>
   </g>
   <g id="patch_92">
    <path clip-path="url(#pe9a359c5d9)" d="M 602.228571 384.48 
L 602.228571 51.84 
L 605.851948 51.84 
L 605.851948 384.48 
z
" style="fill:#008000;opacity:0.04;"/>
   </g>
   <g id="patch_93">
    <path clip-path="url(#pe9a359c5d9)" d="M 609.475325 384.48 
L 609.475325 51.84 
L 613.098701 51.84 
L 613.098701 384.48 
z
" style="fill:#008000;opacity:0.04;"/>
   </g>
   <g id="patch_94">
    <path clip-path="url(#pe9a359c5d9)" d="M 616.722078 384.48 
L 616.722078 51.84 
L 620.345455 51.84 
L 620.345455 384.48 
z
" style="fill:#008000;opacity:0.04;"/>
   </g>
   <g id="patch_95">
    <path clip-path="url(#pe9a359c5d9)" d="M 623.968831 384.48 
L 623.968831 51.84 
L 627.592208 51.84 
L 627.592208 384.48 
z
" style="fill:#008000;opacity:0.04;"/>
   </g>
   <g id="patch_96">
    <path clip-path="url(#pe9a359c5d9)" d="M 631.215584 384.48 
L 631.215584 51.84 
L 634.838961 51.84 
L 634.838961 384.48 
z
" style="fill:#008000;opacity:0.04;"/>
   </g>
   <g id="patch_97">
    <path clip-path="url(#pe9a359c5d9)" d="M 638.462338 384.48 
L 638.462338 51.84 
L 642.085714 51.84 
L 642.085714 384.48 
z
" style="fill:#008000;opacity:0.04;"/>
   </g>
   <g id="patch_98">
    <path clip-path="url(#pe9a359c5d9)" d="M 645.709091 384.48 
L 645.709091 51.84 
L 649.332468 51.84 
L 649.332468 384.48 
z
" style="fill:#008000;opacity:0.04;"/>
   </g>
   <g id="patch_99">
    <path clip-path="url(#pe9a359c5d9)" d="M 652.955844 384.48 
L 652.955844 51.84 
L 656.579221 51.84 
L 656.579221 384.48 
z
" style="fill:#008000;opacity:0.04;"/>
   </g>
   <g id="patch_100">
    <path clip-path="url(#pe9a359c5d9)" d="M 652.955844 371.1744 
L 652.955844 51.84 
L 656.579221 51.84 
L 656.579221 371.1744 
z
" style="fill:#008000;opacity:0.5;"/>
   </g>
   <g id="patch_101">
    <path clip-path="url(#pe9a359c5d9)" d="M 660.202597 384.48 
L 660.202597 51.84 
L 663.825974 51.84 
L 663.825974 384.48 
z
" style="fill:#008000;opacity:0.04;"/>
   </g>
   <g id="patch_102">
    <path clip-path="url(#pe9a359c5d9)" d="M 667.449351 384.48 
L 667.449351 51.84 
L 671.072727 51.84 
L 671.072727 384.48 
z
" style="fill:#008000;opacity:0.04;"/>
   </g>
   <g id="patch_103">
    <path clip-path="url(#pe9a359c5d9)" d="M 674.696104 384.48 
L 674.696104 51.84 
L 678.319481 51.84 
L 678.319481 384.48 
z
" style="fill:#008000;opacity:0.04;"/>
   </g>
   <g id="patch_104">
    <path clip-path="url(#pe9a359c5d9)" d="M 681.942857 384.48 
L 681.942857 51.84 
L 685.566234 51.84 
L 685.566234 384.48 
z
" style="fill:#008000;opacity:0.04;"/>
   </g>
   <g id="patch_105">
    <path clip-path="url(#pe9a359c5d9)" d="M 689.18961 384.48 
L 689.18961 51.84 
L 692.812987 51.84 
L 692.812987 384.48 
z
" style="fill:#008000;opacity:0.04;"/>
   </g>
   <g id="patch_106">
    <path clip-path="url(#pe9a359c5d9)" d="M 696.436364 384.48 
L 696.436364 51.84 
L 700.05974 51.84 
L 700.05974 384.48 
z
" style="fill:#008000;opacity:0.04;"/>
   </g>
   <g id="patch_107">
    <path clip-path="url(#pe9a359c5d9)" d="M 696.436364 371.1744 
L 696.436364 51.84 
L 700.05974 51.84 
L 700.05974 371.1744 
z
" style="fill:#008000;opacity:0.5;"/>
   </g>
   <g id="patch_108">
    <path clip-path="url(#pe9a359c5d9)" d="M 703.683117 384.48 
L 703.683117 51.84 
L 707.306494 51.84 
L 707.306494 384.48 
z
" style="fill:#008000;opacity:0.04;"/>
   </g>
   <g id="patch_109">
    <path clip-path="url(#pe9a359c5d9)" d="M 710.92987 384.48 
L 710.92987 51.84 
L 714.553247 51.84 
L 714.553247 384.48 
z
" style="fill:#008000;opacity:0.04;"/>
   </g>
   <g id="patch_110">
    <path clip-path="url(#pe9a359c5d9)" d="M 718.176623 384.48 
L 718.176623 51.84 
L 721.8 51.84 
L 721.8 384.48 
z
" style="fill:#008000;opacity:0.04;"/>
   </g>
   <g id="patch_111">
    <path clip-path="url(#pe9a359c5d9)" d="M 725.423377 384.48 
L 725.423377 51.84 
L 729.046753 51.84 
L 729.046753 384.48 
z
" style="fill:#008000;opacity:0.04;"/>
   </g>
   <g id="patch_112">
    <path clip-path="url(#pe9a359c5d9)" d="M 729.046753 371.1744 
L 729.046753 51.84 
L 732.67013 51.84 
L 732.67013 371.1744 
z
" style="fill:#008000;opacity:0.5;"/>
   </g>
   <g id="patch_113">
    <path clip-path="url(#pe9a359c5d9)" d="M 732.67013 384.48 
L 732.67013 51.84 
L 736.293506 51.84 
L 736.293506 384.48 
z
" style="fill:#008000;opacity:0.04;"/>
   </g>
   <g id="patch_114">
    <path clip-path="url(#pe9a359c5d9)" d="M 739.916883 384.48 
L 739.916883 51.84 
L 743.54026 51.84 
L 743.54026 384.48 
z
" style="fill:#008000;opacity:0.04;"/>
   </g>
   <g id="matplotlib.axis_1">
    <g id="xtick_1">
     <g id="line2d_1">
      <defs>
       <path d="M 0 0 
L 0 3.5 
" id="m2b3da5e568" style="stroke:#000000;stroke-width:0.8;"/>
      </defs>
      <g>
       <use style="stroke:#000000;stroke-width:0.8;" x="138.436364" xlink:href="#m2b3da5e568" y="384.48"/>
      </g>
     </g>
     <g id="text_1">
      <!-- 0 -->
      <defs>
       <path d="M 31.78125 66.40625 
Q 24.171875 66.40625 20.328125 58.90625 
Q 16.5 51.421875 16.5 36.375 
Q 16.5 21.390625 20.328125 13.890625 
Q 24.171875 6.390625 31.78125 6.390625 
Q 39.453125 6.390625 43.28125 13.890625 
Q 47.125 21.390625 47.125 36.375 
Q 47.125 51.421875 43.28125 58.90625 
Q 39.453125 66.40625 31.78125 66.40625 
z
M 31.78125 74.21875 
Q 44.046875 74.21875 50.515625 64.515625 
Q 56.984375 54.828125 56.984375 36.375 
Q 56.984375 17.96875 50.515625 8.265625 
Q 44.046875 -1.421875 31.78125 -1.421875 
Q 19.53125 -1.421875 13.0625 8.265625 
Q 6.59375 17.96875 6.59375 36.375 
Q 6.59375 54.828125 13.0625 64.515625 
Q 19.53125 74.21875 31.78125 74.21875 
z
" id="DejaVuSans-48"/>
      </defs>
      <g transform="translate(135.255114 399.078438)scale(0.1 -0.1)">
       <use xlink:href="#DejaVuSans-48"/>
      </g>
     </g>
    </g>
    <g id="xtick_2">
     <g id="line2d_2">
      <g>
       <use style="stroke:#000000;stroke-width:0.8;" x="229.020779" xlink:href="#m2b3da5e568" y="384.48"/>
      </g>
     </g>
     <g id="text_2">
      <!-- 250 -->
      <defs>
       <path d="M 19.1875 8.296875 
L 53.609375 8.296875 
L 53.609375 0 
L 7.328125 0 
L 7.328125 8.296875 
Q 12.9375 14.109375 22.625 23.890625 
Q 32.328125 33.6875 34.8125 36.53125 
Q 39.546875 41.84375 41.421875 45.53125 
Q 43.3125 49.21875 43.3125 52.78125 
Q 43.3125 58.59375 39.234375 62.25 
Q 35.15625 65.921875 28.609375 65.921875 
Q 23.96875 65.921875 18.8125 64.3125 
Q 13.671875 62.703125 7.8125 59.421875 
L 7.8125 69.390625 
Q 13.765625 71.78125 18.9375 73 
Q 24.125 74.21875 28.421875 74.21875 
Q 39.75 74.21875 46.484375 68.546875 
Q 53.21875 62.890625 53.21875 53.421875 
Q 53.21875 48.921875 51.53125 44.890625 
Q 49.859375 40.875 45.40625 35.40625 
Q 44.1875 33.984375 37.640625 27.21875 
Q 31.109375 20.453125 19.1875 8.296875 
z
" id="DejaVuSans-50"/>
       <path d="M 10.796875 72.90625 
L 49.515625 72.90625 
L 49.515625 64.59375 
L 19.828125 64.59375 
L 19.828125 46.734375 
Q 21.96875 47.46875 24.109375 47.828125 
Q 26.265625 48.1875 28.421875 48.1875 
Q 40.625 48.1875 47.75 41.5 
Q 54.890625 34.8125 54.890625 23.390625 
Q 54.890625 11.625 47.5625 5.09375 
Q 40.234375 -1.421875 26.90625 -1.421875 
Q 22.3125 -1.421875 17.546875 -0.640625 
Q 12.796875 0.140625 7.71875 1.703125 
L 7.71875 11.625 
Q 12.109375 9.234375 16.796875 8.0625 
Q 21.484375 6.890625 26.703125 6.890625 
Q 35.15625 6.890625 40.078125 11.328125 
Q 45.015625 15.765625 45.015625 23.390625 
Q 45.015625 31 40.078125 35.4375 
Q 35.15625 39.890625 26.703125 39.890625 
Q 22.75 39.890625 18.8125 39.015625 
Q 14.890625 38.140625 10.796875 36.28125 
z
" id="DejaVuSans-53"/>
      </defs>
      <g transform="translate(219.477029 399.078438)scale(0.1 -0.1)">
       <use xlink:href="#DejaVuSans-50"/>
       <use x="63.623047" xlink:href="#DejaVuSans-53"/>
       <use x="127.246094" xlink:href="#DejaVuSans-48"/>
      </g>
     </g>
    </g>
    <g id="xtick_3">
     <g id="line2d_3">
      <g>
       <use style="stroke:#000000;stroke-width:0.8;" x="319.605195" xlink:href="#m2b3da5e568" y="384.48"/>
      </g>
     </g>
     <g id="text_3">
      <!-- 500 -->
      <g transform="translate(310.061445 399.078438)scale(0.1 -0.1)">
       <use xlink:href="#DejaVuSans-53"/>
       <use x="63.623047" xlink:href="#DejaVuSans-48"/>
       <use x="127.246094" xlink:href="#DejaVuSans-48"/>
      </g>
     </g>
    </g>
    <g id="xtick_4">
     <g id="line2d_4">
      <g>
       <use style="stroke:#000000;stroke-width:0.8;" x="410.18961" xlink:href="#m2b3da5e568" y="384.48"/>
      </g>
     </g>
     <g id="text_4">
      <!-- 750 -->
      <defs>
       <path d="M 8.203125 72.90625 
L 55.078125 72.90625 
L 55.078125 68.703125 
L 28.609375 0 
L 18.3125 0 
L 43.21875 64.59375 
L 8.203125 64.59375 
z
" id="DejaVuSans-55"/>
      </defs>
      <g transform="translate(400.64586 399.078438)scale(0.1 -0.1)">
       <use xlink:href="#DejaVuSans-55"/>
       <use x="63.623047" xlink:href="#DejaVuSans-53"/>
       <use x="127.246094" xlink:href="#DejaVuSans-48"/>
      </g>
     </g>
    </g>
    <g id="xtick_5">
     <g id="line2d_5">
      <g>
       <use style="stroke:#000000;stroke-width:0.8;" x="500.774026" xlink:href="#m2b3da5e568" y="384.48"/>
      </g>
     </g>
     <g id="text_5">
      <!-- 1000 -->
      <defs>
       <path d="M 12.40625 8.296875 
L 28.515625 8.296875 
L 28.515625 63.921875 
L 10.984375 60.40625 
L 10.984375 69.390625 
L 28.421875 72.90625 
L 38.28125 72.90625 
L 38.28125 8.296875 
L 54.390625 8.296875 
L 54.390625 0 
L 12.40625 0 
z
" id="DejaVuSans-49"/>
      </defs>
      <g transform="translate(488.049026 399.078438)scale(0.1 -0.1)">
       <use xlink:href="#DejaVuSans-49"/>
       <use x="63.623047" xlink:href="#DejaVuSans-48"/>
       <use x="127.246094" xlink:href="#DejaVuSans-48"/>
       <use x="190.869141" xlink:href="#DejaVuSans-48"/>
      </g>
     </g>
    </g>
    <g id="xtick_6">
     <g id="line2d_6">
      <g>
       <use style="stroke:#000000;stroke-width:0.8;" x="591.358442" xlink:href="#m2b3da5e568" y="384.48"/>
      </g>
     </g>
     <g id="text_6">
      <!-- 1250 -->
      <g transform="translate(578.633442 399.078438)scale(0.1 -0.1)">
       <use xlink:href="#DejaVuSans-49"/>
       <use x="63.623047" xlink:href="#DejaVuSans-50"/>
       <use x="127.246094" xlink:href="#DejaVuSans-53"/>
       <use x="190.869141" xlink:href="#DejaVuSans-48"/>
      </g>
     </g>
    </g>
    <g id="xtick_7">
     <g id="line2d_7">
      <g>
       <use style="stroke:#000000;stroke-width:0.8;" x="681.942857" xlink:href="#m2b3da5e568" y="384.48"/>
      </g>
     </g>
     <g id="text_7">
      <!-- 1500 -->
      <g transform="translate(669.217857 399.078438)scale(0.1 -0.1)">
       <use xlink:href="#DejaVuSans-49"/>
       <use x="63.623047" xlink:href="#DejaVuSans-53"/>
       <use x="127.246094" xlink:href="#DejaVuSans-48"/>
       <use x="190.869141" xlink:href="#DejaVuSans-48"/>
      </g>
     </g>
    </g>
    <g id="xtick_8">
     <g id="line2d_8">
      <g>
       <use style="stroke:#000000;stroke-width:0.8;" x="772.527273" xlink:href="#m2b3da5e568" y="384.48"/>
      </g>
     </g>
     <g id="text_8">
      <!-- 1750 -->
      <g transform="translate(759.802273 399.078438)scale(0.1 -0.1)">
       <use xlink:href="#DejaVuSans-49"/>
       <use x="63.623047" xlink:href="#DejaVuSans-55"/>
       <use x="127.246094" xlink:href="#DejaVuSans-53"/>
       <use x="190.869141" xlink:href="#DejaVuSans-48"/>
      </g>
     </g>
    </g>
    <g id="text_9">
     <!-- Timestamp -->
     <defs>
      <path d="M -0.296875 72.90625 
L 61.375 72.90625 
L 61.375 64.59375 
L 35.5 64.59375 
L 35.5 0 
L 25.59375 0 
L 25.59375 64.59375 
L -0.296875 64.59375 
z
" id="DejaVuSans-84"/>
      <path d="M 9.421875 54.6875 
L 18.40625 54.6875 
L 18.40625 0 
L 9.421875 0 
z
M 9.421875 75.984375 
L 18.40625 75.984375 
L 18.40625 64.59375 
L 9.421875 64.59375 
z
" id="DejaVuSans-105"/>
      <path d="M 52 44.1875 
Q 55.375 50.25 60.0625 53.125 
Q 64.75 56 71.09375 56 
Q 79.640625 56 84.28125 50.015625 
Q 88.921875 44.046875 88.921875 33.015625 
L 88.921875 0 
L 79.890625 0 
L 79.890625 32.71875 
Q 79.890625 40.578125 77.09375 44.375 
Q 74.3125 48.1875 68.609375 48.1875 
Q 61.625 48.1875 57.5625 43.546875 
Q 53.515625 38.921875 53.515625 30.90625 
L 53.515625 0 
L 44.484375 0 
L 44.484375 32.71875 
Q 44.484375 40.625 41.703125 44.40625 
Q 38.921875 48.1875 33.109375 48.1875 
Q 26.21875 48.1875 22.15625 43.53125 
Q 18.109375 38.875 18.109375 30.90625 
L 18.109375 0 
L 9.078125 0 
L 9.078125 54.6875 
L 18.109375 54.6875 
L 18.109375 46.1875 
Q 21.1875 51.21875 25.484375 53.609375 
Q 29.78125 56 35.6875 56 
Q 41.65625 56 45.828125 52.96875 
Q 50 49.953125 52 44.1875 
z
" id="DejaVuSans-109"/>
      <path d="M 56.203125 29.59375 
L 56.203125 25.203125 
L 14.890625 25.203125 
Q 15.484375 15.921875 20.484375 11.0625 
Q 25.484375 6.203125 34.421875 6.203125 
Q 39.59375 6.203125 44.453125 7.46875 
Q 49.3125 8.734375 54.109375 11.28125 
L 54.109375 2.78125 
Q 49.265625 0.734375 44.1875 -0.34375 
Q 39.109375 -1.421875 33.890625 -1.421875 
Q 20.796875 -1.421875 13.15625 6.1875 
Q 5.515625 13.8125 5.515625 26.8125 
Q 5.515625 40.234375 12.765625 48.109375 
Q 20.015625 56 32.328125 56 
Q 43.359375 56 49.78125 48.890625 
Q 56.203125 41.796875 56.203125 29.59375 
z
M 47.21875 32.234375 
Q 47.125 39.59375 43.09375 43.984375 
Q 39.0625 48.390625 32.421875 48.390625 
Q 24.90625 48.390625 20.390625 44.140625 
Q 15.875 39.890625 15.1875 32.171875 
z
" id="DejaVuSans-101"/>
      <path d="M 44.28125 53.078125 
L 44.28125 44.578125 
Q 40.484375 46.53125 36.375 47.5 
Q 32.28125 48.484375 27.875 48.484375 
Q 21.1875 48.484375 17.84375 46.4375 
Q 14.5 44.390625 14.5 40.28125 
Q 14.5 37.15625 16.890625 35.375 
Q 19.28125 33.59375 26.515625 31.984375 
L 29.59375 31.296875 
Q 39.15625 29.25 43.1875 25.515625 
Q 47.21875 21.78125 47.21875 15.09375 
Q 47.21875 7.46875 41.1875 3.015625 
Q 35.15625 -1.421875 24.609375 -1.421875 
Q 20.21875 -1.421875 15.453125 -0.5625 
Q 10.6875 0.296875 5.421875 2 
L 5.421875 11.28125 
Q 10.40625 8.6875 15.234375 7.390625 
Q 20.0625 6.109375 24.8125 6.109375 
Q 31.15625 6.109375 34.5625 8.28125 
Q 37.984375 10.453125 37.984375 14.40625 
Q 37.984375 18.0625 35.515625 20.015625 
Q 33.0625 21.96875 24.703125 23.78125 
L 21.578125 24.515625 
Q 13.234375 26.265625 9.515625 29.90625 
Q 5.8125 33.546875 5.8125 39.890625 
Q 5.8125 47.609375 11.28125 51.796875 
Q 16.75 56 26.8125 56 
Q 31.78125 56 36.171875 55.265625 
Q 40.578125 54.546875 44.28125 53.078125 
z
" id="DejaVuSans-115"/>
      <path d="M 18.3125 70.21875 
L 18.3125 54.6875 
L 36.8125 54.6875 
L 36.8125 47.703125 
L 18.3125 47.703125 
L 18.3125 18.015625 
Q 18.3125 11.328125 20.140625 9.421875 
Q 21.96875 7.515625 27.59375 7.515625 
L 36.8125 7.515625 
L 36.8125 0 
L 27.59375 0 
Q 17.1875 0 13.234375 3.875 
Q 9.28125 7.765625 9.28125 18.015625 
L 9.28125 47.703125 
L 2.6875 47.703125 
L 2.6875 54.6875 
L 9.28125 54.6875 
L 9.28125 70.21875 
z
" id="DejaVuSans-116"/>
      <path d="M 34.28125 27.484375 
Q 23.390625 27.484375 19.1875 25 
Q 14.984375 22.515625 14.984375 16.5 
Q 14.984375 11.71875 18.140625 8.90625 
Q 21.296875 6.109375 26.703125 6.109375 
Q 34.1875 6.109375 38.703125 11.40625 
Q 43.21875 16.703125 43.21875 25.484375 
L 43.21875 27.484375 
z
M 52.203125 31.203125 
L 52.203125 0 
L 43.21875 0 
L 43.21875 8.296875 
Q 40.140625 3.328125 35.546875 0.953125 
Q 30.953125 -1.421875 24.3125 -1.421875 
Q 15.921875 -1.421875 10.953125 3.296875 
Q 6 8.015625 6 15.921875 
Q 6 25.140625 12.171875 29.828125 
Q 18.359375 34.515625 30.609375 34.515625 
L 43.21875 34.515625 
L 43.21875 35.40625 
Q 43.21875 41.609375 39.140625 45 
Q 35.0625 48.390625 27.6875 48.390625 
Q 23 48.390625 18.546875 47.265625 
Q 14.109375 46.140625 10.015625 43.890625 
L 10.015625 52.203125 
Q 14.9375 54.109375 19.578125 55.046875 
Q 24.21875 56 28.609375 56 
Q 40.484375 56 46.34375 49.84375 
Q 52.203125 43.703125 52.203125 31.203125 
z
" id="DejaVuSans-97"/>
      <path d="M 18.109375 8.203125 
L 18.109375 -20.796875 
L 9.078125 -20.796875 
L 9.078125 54.6875 
L 18.109375 54.6875 
L 18.109375 46.390625 
Q 20.953125 51.265625 25.265625 53.625 
Q 29.59375 56 35.59375 56 
Q 45.5625 56 51.78125 48.09375 
Q 58.015625 40.1875 58.015625 27.296875 
Q 58.015625 14.40625 51.78125 6.484375 
Q 45.5625 -1.421875 35.59375 -1.421875 
Q 29.59375 -1.421875 25.265625 0.953125 
Q 20.953125 3.328125 18.109375 8.203125 
z
M 48.6875 27.296875 
Q 48.6875 37.203125 44.609375 42.84375 
Q 40.53125 48.484375 33.40625 48.484375 
Q 26.265625 48.484375 22.1875 42.84375 
Q 18.109375 37.203125 18.109375 27.296875 
Q 18.109375 17.390625 22.1875 11.75 
Q 26.265625 6.109375 33.40625 6.109375 
Q 40.53125 6.109375 44.609375 11.75 
Q 48.6875 17.390625 48.6875 27.296875 
z
" id="DejaVuSans-112"/>
     </defs>
     <g transform="translate(414.739062 412.756563)scale(0.1 -0.1)">
      <use xlink:href="#DejaVuSans-84"/>
      <use x="61.037109" xlink:href="#DejaVuSans-105"/>
      <use x="88.820312" xlink:href="#DejaVuSans-109"/>
      <use x="186.232422" xlink:href="#DejaVuSans-101"/>
      <use x="247.755859" xlink:href="#DejaVuSans-115"/>
      <use x="299.855469" xlink:href="#DejaVuSans-116"/>
      <use x="339.064453" xlink:href="#DejaVuSans-97"/>
      <use x="400.34375" xlink:href="#DejaVuSans-109"/>
      <use x="497.755859" xlink:href="#DejaVuSans-112"/>
     </g>
    </g>
   </g>
   <g id="matplotlib.axis_2">
    <g id="ytick_1">
     <g id="line2d_9">
      <defs>
       <path d="M 0 0 
L -3.5 0 
" id="med8e8e08cf" style="stroke:#000000;stroke-width:0.8;"/>
      </defs>
      <g>
       <use style="stroke:#000000;stroke-width:0.8;" x="108" xlink:href="#med8e8e08cf" y="355.879939"/>
      </g>
     </g>
     <g id="text_10">
      <!-- −3000 -->
      <defs>
       <path d="M 10.59375 35.5 
L 73.1875 35.5 
L 73.1875 27.203125 
L 10.59375 27.203125 
z
" id="DejaVuSans-8722"/>
       <path d="M 40.578125 39.3125 
Q 47.65625 37.796875 51.625 33 
Q 55.609375 28.21875 55.609375 21.1875 
Q 55.609375 10.40625 48.1875 4.484375 
Q 40.765625 -1.421875 27.09375 -1.421875 
Q 22.515625 -1.421875 17.65625 -0.515625 
Q 12.796875 0.390625 7.625 2.203125 
L 7.625 11.71875 
Q 11.71875 9.328125 16.59375 8.109375 
Q 21.484375 6.890625 26.8125 6.890625 
Q 36.078125 6.890625 40.9375 10.546875 
Q 45.796875 14.203125 45.796875 21.1875 
Q 45.796875 27.640625 41.28125 31.265625 
Q 36.765625 34.90625 28.71875 34.90625 
L 20.21875 34.90625 
L 20.21875 43.015625 
L 29.109375 43.015625 
Q 36.375 43.015625 40.234375 45.921875 
Q 44.09375 48.828125 44.09375 54.296875 
Q 44.09375 59.90625 40.109375 62.90625 
Q 36.140625 65.921875 28.71875 65.921875 
Q 24.65625 65.921875 20.015625 65.03125 
Q 15.375 64.15625 9.8125 62.3125 
L 9.8125 71.09375 
Q 15.4375 72.65625 20.34375 73.4375 
Q 25.25 74.21875 29.59375 74.21875 
Q 40.828125 74.21875 47.359375 69.109375 
Q 53.90625 64.015625 53.90625 55.328125 
Q 53.90625 49.265625 50.4375 45.09375 
Q 46.96875 40.921875 40.578125 39.3125 
z
" id="DejaVuSans-51"/>
      </defs>
      <g transform="translate(67.170312 359.679158)scale(0.1 -0.1)">
       <use xlink:href="#DejaVuSans-8722"/>
       <use x="83.789062" xlink:href="#DejaVuSans-51"/>
       <use x="147.412109" xlink:href="#DejaVuSans-48"/>
       <use x="211.035156" xlink:href="#DejaVuSans-48"/>
       <use x="274.658203" xlink:href="#DejaVuSans-48"/>
      </g>
     </g>
    </g>
    <g id="ytick_2">
     <g id="line2d_10">
      <g>
       <use style="stroke:#000000;stroke-width:0.8;" x="108" xlink:href="#med8e8e08cf" y="298.802244"/>
      </g>
     </g>
     <g id="text_11">
      <!-- −2000 -->
      <g transform="translate(67.170312 302.601462)scale(0.1 -0.1)">
       <use xlink:href="#DejaVuSans-8722"/>
       <use x="83.789062" xlink:href="#DejaVuSans-50"/>
       <use x="147.412109" xlink:href="#DejaVuSans-48"/>
       <use x="211.035156" xlink:href="#DejaVuSans-48"/>
       <use x="274.658203" xlink:href="#DejaVuSans-48"/>
      </g>
     </g>
    </g>
    <g id="ytick_3">
     <g id="line2d_11">
      <g>
       <use style="stroke:#000000;stroke-width:0.8;" x="108" xlink:href="#med8e8e08cf" y="241.724548"/>
      </g>
     </g>
     <g id="text_12">
      <!-- −1000 -->
      <g transform="translate(67.170312 245.523767)scale(0.1 -0.1)">
       <use xlink:href="#DejaVuSans-8722"/>
       <use x="83.789062" xlink:href="#DejaVuSans-49"/>
       <use x="147.412109" xlink:href="#DejaVuSans-48"/>
       <use x="211.035156" xlink:href="#DejaVuSans-48"/>
       <use x="274.658203" xlink:href="#DejaVuSans-48"/>
      </g>
     </g>
    </g>
    <g id="ytick_4">
     <g id="line2d_12">
      <g>
       <use style="stroke:#000000;stroke-width:0.8;" x="108" xlink:href="#med8e8e08cf" y="184.646852"/>
      </g>
     </g>
     <g id="text_13">
      <!-- 0 -->
      <g transform="translate(94.6375 188.446071)scale(0.1 -0.1)">
       <use xlink:href="#DejaVuSans-48"/>
      </g>
     </g>
    </g>
    <g id="ytick_5">
     <g id="line2d_13">
      <g>
       <use style="stroke:#000000;stroke-width:0.8;" x="108" xlink:href="#med8e8e08cf" y="127.569157"/>
      </g>
     </g>
     <g id="text_14">
      <!-- 1000 -->
      <g transform="translate(75.55 131.368375)scale(0.1 -0.1)">
       <use xlink:href="#DejaVuSans-49"/>
       <use x="63.623047" xlink:href="#DejaVuSans-48"/>
       <use x="127.246094" xlink:href="#DejaVuSans-48"/>
       <use x="190.869141" xlink:href="#DejaVuSans-48"/>
      </g>
     </g>
    </g>
    <g id="ytick_6">
     <g id="line2d_14">
      <g>
       <use style="stroke:#000000;stroke-width:0.8;" x="108" xlink:href="#med8e8e08cf" y="70.491461"/>
      </g>
     </g>
     <g id="text_15">
      <!-- 2000 -->
      <g transform="translate(75.55 74.29068)scale(0.1 -0.1)">
       <use xlink:href="#DejaVuSans-50"/>
       <use x="63.623047" xlink:href="#DejaVuSans-48"/>
       <use x="127.246094" xlink:href="#DejaVuSans-48"/>
       <use x="190.869141" xlink:href="#DejaVuSans-48"/>
      </g>
     </g>
    </g>
    <g id="text_16">
     <!-- Value -->
     <defs>
      <path d="M 28.609375 0 
L 0.78125 72.90625 
L 11.078125 72.90625 
L 34.1875 11.53125 
L 57.328125 72.90625 
L 67.578125 72.90625 
L 39.796875 0 
z
" id="DejaVuSans-86"/>
      <path d="M 9.421875 75.984375 
L 18.40625 75.984375 
L 18.40625 0 
L 9.421875 0 
z
" id="DejaVuSans-108"/>
      <path d="M 8.5 21.578125 
L 8.5 54.6875 
L 17.484375 54.6875 
L 17.484375 21.921875 
Q 17.484375 14.15625 20.5 10.265625 
Q 23.53125 6.390625 29.59375 6.390625 
Q 36.859375 6.390625 41.078125 11.03125 
Q 45.3125 15.671875 45.3125 23.6875 
L 45.3125 54.6875 
L 54.296875 54.6875 
L 54.296875 0 
L 45.3125 0 
L 45.3125 8.40625 
Q 42.046875 3.421875 37.71875 1 
Q 33.40625 -1.421875 27.6875 -1.421875 
Q 18.265625 -1.421875 13.375 4.4375 
Q 8.5 10.296875 8.5 21.578125 
z
M 31.109375 56 
z
" id="DejaVuSans-117"/>
     </defs>
     <g transform="translate(61.090625 232.273281)rotate(-90)scale(0.1 -0.1)">
      <use xlink:href="#DejaVuSans-86"/>
      <use x="68.298828" xlink:href="#DejaVuSans-97"/>
      <use x="129.578125" xlink:href="#DejaVuSans-108"/>
      <use x="157.361328" xlink:href="#DejaVuSans-117"/>
      <use x="220.740234" xlink:href="#DejaVuSans-101"/>
     </g>
    </g>
   </g>
   <g id="line2d_15">
    <path clip-path="url(#pe9a359c5d9)" d="M 138.436364 192.135326 
L 138.798701 168.588637 
L 139.161039 162.362625 
L 139.523377 153.277062 
L 139.885714 160.609458 
L 140.248052 163.155975 
L 140.972727 173.453764 
L 141.335065 184.515549 
L 141.697403 191.604142 
L 142.05974 188.624541 
L 142.422078 189.55562 
L 142.784416 174.222632 
L 143.146753 173.055763 
L 143.509091 176.994025 
L 143.871429 173.309102 
L 144.233766 183.338161 
L 144.596104 197.368893 
L 144.958442 203.913939 
L 145.320779 200.463466 
L 145.683117 202.997425 
L 146.045455 211.600322 
L 146.77013 192.916566 
L 147.132468 169.269959 
L 147.494805 172.365759 
L 147.857143 156.008318 
L 148.219481 150.01225 
L 148.581818 110.888853 
L 148.944156 155.4878 
L 149.306494 159.098532 
L 149.668831 180.001021 
L 150.031169 184.985134 
L 150.393506 176.900476 
L 150.755844 186.19689 
L 151.118182 174.483516 
L 151.480519 178.928724 
L 151.842857 175.185928 
L 152.205195 174.956493 
L 152.567532 178.238695 
L 152.92987 178.511839 
L 153.292208 191.290566 
L 153.654545 198.73643 
L 154.016883 193.103966 
L 154.379221 205.429779 
L 154.741558 207.014353 
L 155.103896 201.93175 
L 155.466234 191.101336 
L 155.828571 187.731894 
L 156.190909 170.058033 
L 156.915584 147.667554 
L 157.64026 159.651073 
L 158.002597 159.001825 
L 158.364935 176.266172 
L 159.08961 191.907377 
L 159.451948 185.973892 
L 159.814286 193.273233 
L 160.176623 179.850629 
L 160.538961 182.850911 
L 161.263636 181.195739 
L 161.625974 183.704763 
L 162.350649 207.6163 
L 162.712987 209.444392 
L 163.075325 214.65127 
L 163.437662 230.639244 
L 163.8 213.150563 
L 164.887013 180.061817 
L 165.249351 164.090834 
L 165.611688 165.021742 
L 165.974026 169.410318 
L 166.336364 164.813454 
L 166.698701 173.695624 
L 167.061039 193.177213 
L 167.423377 202.891284 
L 167.785714 200.75635 
L 168.148052 206.565141 
L 169.235065 193.818796 
L 169.597403 196.800653 
L 169.95974 189.723952 
L 170.684416 218.175812 
L 171.046753 214.121158 
L 171.771429 239.106537 
L 172.133766 239.967096 
L 172.496104 227.692897 
L 172.858442 221.393355 
L 173.945455 178.340475 
L 174.307792 180.979264 
L 174.67013 179.081198 
L 175.032468 192.552339 
L 175.394805 185.736614 
L 175.757143 205.087232 
L 176.119481 213.522997 
L 176.481818 218.229288 
L 176.844156 218.385145 
L 177.206494 215.482993 
L 177.568831 216.137251 
L 177.931169 207.069151 
L 178.293506 212.257203 
L 178.655844 211.456852 
L 180.105195 241.482577 
L 180.467532 242.0059 
L 180.82987 249.57126 
L 181.554545 221.953562 
L 181.916883 225.805764 
L 182.279221 200.302452 
L 182.641558 195.504354 
L 183.003896 183.475468 
L 183.366234 184.260304 
L 183.728571 184.251665 
L 184.090909 207.481284 
L 184.453247 212.223588 
L 184.815584 219.658509 
L 185.177922 219.063205 
L 185.54026 229.509659 
L 185.902597 225.522445 
L 186.264935 207.728358 
L 186.627273 217.336395 
L 186.98961 216.531756 
L 187.351948 223.398299 
L 187.714286 220.367353 
L 188.076623 233.902859 
L 188.438961 235.807522 
L 188.801299 243.720881 
L 189.163636 247.566083 
L 189.525974 246.337869 
L 189.888312 240.267486 
L 190.612987 222.631603 
L 190.975325 214.109861 
L 191.337662 202.329184 
L 191.7 186.305507 
L 192.062338 193.78087 
L 192.424675 193.436163 
L 192.787013 205.511926 
L 193.149351 206.433838 
L 193.874026 223.171685 
L 194.236364 219.968742 
L 194.598701 224.481865 
L 194.961039 213.442481 
L 195.685714 219.059686 
L 196.048052 222.026943 
L 196.41039 207.196198 
L 197.135065 235.209538 
L 197.497403 237.552839 
L 197.85974 250.215093 
L 198.222078 255.15242 
L 198.584416 241.168253 
L 199.309091 206.382866 
L 199.671429 199.401855 
L 200.033766 217.478211 
L 200.396104 170.372088 
L 201.120779 190.590615 
L 201.483117 190.489402 
L 201.845455 205.931524 
L 202.207792 212.004935 
L 202.57013 224.769913 
L 203.294805 210.718895 
L 203.657143 204.841232 
L 204.019481 201.91542 
L 204.381818 209.169469 
L 204.744156 203.265694 
L 205.106494 207.548719 
L 205.831169 226.770461 
L 206.193506 242.934909 
L 206.555844 242.174384 
L 206.918182 228.881252 
L 207.280519 229.348691 
L 208.367532 195.507922 
L 208.72987 177.955264 
L 209.092208 186.586718 
L 209.454545 173.637796 
L 209.816883 187.14688 
L 210.179221 187.185744 
L 210.903896 211.263036 
L 211.266234 212.512875 
L 211.628571 218.156541 
L 211.990909 208.308249 
L 212.353247 201.911377 
L 212.715584 198.177715 
L 213.077922 195.930083 
L 213.44026 200.224869 
L 213.802597 215.287364 
L 214.164935 214.388767 
L 214.527273 229.091984 
L 214.88961 230.990887 
L 215.251948 241.233476 
L 215.614286 242.09861 
L 215.976623 225.32869 
L 216.338961 225.233374 
L 216.701299 203.580951 
L 217.063636 192.595173 
L 217.425974 190.769686 
L 217.788312 185.565407 
L 218.150649 183.204291 
L 218.512987 180.06582 
L 218.875325 203.901087 
L 219.237662 203.994866 
L 219.6 218.977427 
L 219.962338 214.956226 
L 220.324675 215.208685 
L 220.687013 220.877461 
L 221.049351 217.216723 
L 221.411688 203.772589 
L 221.774026 214.018983 
L 222.136364 207.757724 
L 222.861039 225.510943 
L 223.223377 238.478264 
L 223.948052 245.63522 
L 224.31039 246.240619 
L 224.672727 240.795829 
L 225.035065 229.525204 
L 225.397403 227.3159 
L 225.75974 205.215092 
L 226.122078 208.841018 
L 226.484416 195.673047 
L 226.846753 189.030532 
L 227.209091 194.061615 
L 227.571429 214.319198 
L 227.933766 209.794595 
L 228.658442 232.099071 
L 229.020779 229.537328 
L 229.383117 232.804711 
L 230.107792 224.691321 
L 230.832468 220.452607 
L 231.557143 234.916322 
L 232.281818 264.842975 
L 232.644156 263.821235 
L 233.006494 263.236977 
L 233.368831 245.763963 
L 233.731169 242.280145 
L 234.093506 232.576911 
L 234.455844 212.811273 
L 234.818182 215.473321 
L 235.180519 208.029194 
L 235.542857 203.317337 
L 235.905195 217.536557 
L 236.267532 215.100244 
L 237.354545 253.344212 
L 238.079221 242.063506 
L 238.441558 247.949594 
L 238.803896 241.308588 
L 239.166234 243.447967 
L 239.528571 239.688134 
L 239.890909 245.338786 
L 240.615584 266.461229 
L 241.34026 278.718921 
L 242.427273 261.311284 
L 242.78961 246.887536 
L 243.151948 238.988466 
L 243.514286 221.979947 
L 243.876623 211.731637 
L 244.238961 218.585394 
L 244.601299 216.682472 
L 245.688312 250.677495 
L 246.050649 260.982917 
L 246.412987 258.04971 
L 246.775325 253.099165 
L 247.137662 252.191445 
L 247.5 249.180356 
L 247.862338 250.614389 
L 248.224675 242.694578 
L 248.587013 254.194219 
L 248.949351 251.382215 
L 249.311688 261.58218 
L 249.674026 265.259562 
L 250.036364 287.083164 
L 250.761039 266.808848 
L 251.123377 261.796958 
L 251.485714 246.773275 
L 251.848052 242.351754 
L 252.21039 228.798241 
L 252.935065 217.047815 
L 253.297403 219.975715 
L 253.65974 233.703324 
L 254.022078 238.939158 
L 254.384416 251.917574 
L 254.746753 247.729125 
L 255.109091 258.314721 
L 255.471429 248.623298 
L 255.833766 248.005748 
L 256.196104 242.698061 
L 256.558442 239.686306 
L 256.920779 243.692345 
L 257.283117 240.904536 
L 257.645455 252.717287 
L 258.37013 267.210647 
L 258.732468 279.772887 
L 259.094805 279.878048 
L 259.457143 277.09354 
L 260.544156 230.472957 
L 260.906494 224.350226 
L 261.268831 210.79058 
L 261.631169 216.554116 
L 261.993506 216.833628 
L 262.355844 227.414818 
L 262.718182 228.432215 
L 263.080519 247.734927 
L 263.442857 239.827978 
L 263.805195 243.063577 
L 264.167532 236.251001 
L 264.52987 238.961589 
L 264.892208 230.926883 
L 265.254545 225.450425 
L 265.616883 225.891235 
L 265.979221 239.903436 
L 266.341558 245.631448 
L 266.703896 257.253669 
L 267.066234 263.261364 
L 267.428571 266.619465 
L 267.790909 268.908463 
L 268.153247 268.665553 
L 268.515584 247.69366 
L 268.877922 241.960376 
L 269.24026 220.469257 
L 269.602597 210.419349 
L 269.964935 206.929556 
L 270.327273 210.814361 
L 270.68961 207.059193 
L 271.051948 214.168085 
L 271.414286 232.349501 
L 271.776623 235.766962 
L 272.138961 252.784282 
L 272.501299 239.220512 
L 272.863636 239.334752 
L 273.225974 235.087735 
L 273.588312 237.039747 
L 273.950649 240.296934 
L 274.312987 214.483183 
L 275.4 257.176384 
L 275.762338 261.358717 
L 276.124675 278.331496 
L 276.849351 254.871991 
L 277.211688 251.177928 
L 278.298701 209.915932 
L 278.661039 219.352612 
L 279.023377 214.988591 
L 279.385714 212.854942 
L 279.748052 224.512245 
L 281.197403 253.34241 
L 281.55974 239.949344 
L 281.922078 242.764032 
L 282.284416 239.703819 
L 282.646753 241.297628 
L 283.009091 247.16849 
L 283.371429 246.4508 
L 283.733766 253.806225 
L 284.096104 271.890593 
L 284.458442 264.299288 
L 284.820779 278.216966 
L 285.183117 285.296708 
L 285.545455 265.050683 
L 286.27013 234.065571 
L 286.632468 228.695534 
L 286.994805 229.28495 
L 287.357143 224.590537 
L 287.719481 224.971824 
L 288.081818 228.185308 
L 288.444156 241.251125 
L 288.806494 239.864787 
L 289.168831 257.790824 
L 289.531169 257.544821 
L 289.893506 265.08451 
L 290.255844 256.143402 
L 290.618182 261.087738 
L 290.980519 237.225789 
L 291.342857 239.5092 
L 291.705195 245.538441 
L 292.067532 277.903548 
L 292.42987 274.920964 
L 292.792208 286.090978 
L 293.516883 320.518692 
L 293.879221 296.07892 
L 294.241558 303.394795 
L 294.603896 292.588644 
L 295.328571 246.060664 
L 295.690909 215.219243 
L 296.053247 205.364262 
L 296.415584 204.925613 
L 296.777922 207.16944 
L 297.14026 248.250578 
L 297.502597 239.274421 
L 297.864935 260.460814 
L 298.227273 259.699805 
L 298.58961 285.893103 
L 298.951948 268.390028 
L 299.314286 257.519283 
L 299.676623 290.261746 
L 300.038961 253.441945 
L 300.401299 295.904049 
L 300.763636 267.892738 
L 301.125974 310.06921 
L 301.488312 318.402703 
L 301.850649 337.134333 
L 302.212987 345.841521 
L 302.575325 334.680879 
L 302.937662 327.715446 
L 303.3 291.695621 
L 303.662338 292.088503 
L 304.024675 251.603899 
L 304.387013 227.139779 
L 304.749351 233.616245 
L 305.111688 205.924986 
L 305.474026 234.955498 
L 305.836364 243.384973 
L 306.198701 260.933609 
L 306.561039 286.22085 
L 306.923377 270.776425 
L 307.285714 287.844222 
L 307.648052 271.820137 
L 308.01039 286.928087 
L 308.372727 254.556322 
L 308.735065 271.756623 
L 309.097403 254.303813 
L 309.45974 278.400027 
L 309.822078 279.008463 
L 310.546753 328.579706 
L 310.909091 312.35468 
L 311.271429 318.612555 
L 311.633766 314.043367 
L 311.996104 296.788738 
L 313.083117 214.994261 
L 313.445455 200.093727 
L 313.807792 212.131253 
L 314.17013 203.762422 
L 314.532468 227.747567 
L 314.894805 234.114415 
L 315.619481 272.51981 
L 315.981818 254.814688 
L 316.344156 275.285302 
L 316.706494 230.99172 
L 317.068831 244.20871 
L 317.431169 235.887484 
L 317.793506 230.715616 
L 318.155844 252.188871 
L 318.518182 256.548513 
L 318.880519 289.007769 
L 319.242857 306.113435 
L 319.605195 311.064715 
L 319.967532 301.071808 
L 320.32987 299.510845 
L 320.692208 262.406366 
L 321.054545 246.358371 
L 321.416883 214.957022 
L 321.779221 195.810152 
L 322.141558 187.658263 
L 322.503896 189.235981 
L 322.866234 186.183142 
L 323.590909 232.013761 
L 323.953247 244.878916 
L 324.315584 240.152157 
L 324.677922 249.807311 
L 325.04026 251.325101 
L 325.402597 246.965026 
L 326.127273 213.61759 
L 326.48961 218.380154 
L 326.851948 234.869182 
L 327.214286 234.573714 
L 327.576623 254.238355 
L 327.938961 289.460027 
L 328.301299 292.43705 
L 328.663636 275.291512 
L 329.025974 275.604568 
L 330.112987 185.608209 
L 331.2 155.41372 
L 331.562338 179.292941 
L 331.924675 177.098963 
L 332.287013 212.489683 
L 332.649351 209.145186 
L 333.011688 192.484719 
L 333.374026 229.673069 
L 333.736364 215.778995 
L 334.098701 186.105444 
L 334.461039 201.774738 
L 334.823377 185.254504 
L 335.185714 220.407627 
L 335.548052 207.663303 
L 335.91039 214.264585 
L 336.635065 260.345687 
L 336.997403 262.963838 
L 337.35974 260.398064 
L 337.722078 250.629442 
L 338.446753 218.171873 
L 338.809091 187.199936 
L 339.533766 153.161346 
L 339.896104 146.414514 
L 340.258442 155.394893 
L 340.620779 186.040521 
L 340.983117 187.787526 
L 341.345455 202.288293 
L 341.707792 227.69702 
L 342.07013 228.266531 
L 343.157143 190.50063 
L 343.519481 193.803029 
L 343.881818 198.986472 
L 344.244156 197.512904 
L 344.968831 250.587532 
L 345.331169 248.131318 
L 345.693506 280.846052 
L 346.418182 255.155312 
L 346.780519 244.3723 
L 347.142857 217.872967 
L 347.505195 199.710781 
L 347.867532 165.112967 
L 348.22987 164.093566 
L 348.592208 164.108271 
L 348.954545 178.067746 
L 349.316883 196.660962 
L 349.679221 206.377409 
L 350.403896 254.348065 
L 350.766234 232.278098 
L 351.128571 242.046136 
L 351.490909 217.174777 
L 351.853247 213.836606 
L 352.215584 220.652876 
L 352.577922 219.009185 
L 352.94026 230.18555 
L 353.664935 263.714052 
L 354.027273 289.073613 
L 354.38961 298.171016 
L 354.751948 287.35221 
L 355.114286 280.990842 
L 355.476623 276.866755 
L 355.838961 214.177419 
L 356.201299 202.591035 
L 356.563636 205.761535 
L 356.925974 182.798898 
L 357.288312 184.516739 
L 357.650649 210.912255 
L 358.012987 206.97212 
L 358.375325 218.354472 
L 358.737662 246.438632 
L 359.1 244.236169 
L 359.462338 256.203202 
L 359.824675 229.76866 
L 360.187013 232.996183 
L 360.549351 232.657604 
L 360.911688 239.380342 
L 361.274026 230.585279 
L 361.998701 275.694174 
L 362.723377 309.27786 
L 363.085714 308.20926 
L 363.448052 368.114313 
L 363.81039 314.480613 
L 364.897403 211.67291 
L 365.622078 192.003684 
L 366.346753 199.818236 
L 366.709091 208.522272 
L 367.071429 221.543191 
L 367.796104 272.700997 
L 368.158442 255.854305 
L 368.520779 260.316997 
L 368.883117 242.074702 
L 369.245455 236.991325 
L 369.607792 236.039329 
L 369.97013 233.785204 
L 370.332468 233.800504 
L 370.694805 250.04239 
L 371.057143 279.106727 
L 371.419481 287.583365 
L 371.781818 293.201037 
L 372.144156 369.36 
L 372.506494 280.470853 
L 372.868831 269.792402 
L 373.231169 229.64215 
L 373.593506 233.884007 
L 373.955844 189.453226 
L 374.318182 245.503532 
L 374.680519 185.250998 
L 375.042857 181.42633 
L 375.767532 227.555769 
L 376.12987 233.402299 
L 376.492208 241.742562 
L 376.854545 237.228384 
L 377.216883 221.80124 
L 377.579221 235.738267 
L 377.941558 271.026247 
L 378.303896 239.362976 
L 378.666234 221.204645 
L 379.028571 227.182017 
L 379.390909 248.605136 
L 379.753247 244.817635 
L 380.115584 255.444593 
L 380.477922 284.757943 
L 380.84026 279.683786 
L 381.564935 226.395964 
L 381.927273 231.468359 
L 382.28961 169.900171 
L 382.651948 150.802309 
L 383.014286 151.046156 
L 383.376623 148.216055 
L 383.738961 162.040976 
L 384.101299 165.195123 
L 384.463636 210.07774 
L 384.825974 194.690895 
L 385.188312 214.793284 
L 385.550649 228.2189 
L 385.912987 206.635258 
L 386.275325 194.466262 
L 386.637662 187.968273 
L 387 178.959645 
L 387.362338 180.02166 
L 387.724675 190.602335 
L 388.087013 217.493636 
L 388.449351 216.33466 
L 388.811688 250.233109 
L 389.536364 258.259604 
L 391.71039 122.546693 
L 392.072727 123.249348 
L 392.435065 129.898756 
L 392.797403 139.31177 
L 393.15974 180.137148 
L 393.522078 180.354598 
L 393.884416 201.654962 
L 394.246753 189.118242 
L 394.609091 187.721122 
L 394.971429 169.075315 
L 395.333766 161.107897 
L 396.058442 151.732229 
L 396.420779 195.127569 
L 396.783117 198.629642 
L 397.145455 195.930822 
L 397.507792 230.453085 
L 397.87013 235.171123 
L 398.232468 226.816144 
L 398.594805 222.307177 
L 398.957143 207.572392 
L 399.681818 151.649308 
L 400.768831 112.5796 
L 401.131169 131.217855 
L 401.493506 139.345151 
L 401.855844 152.637332 
L 402.218182 180.191599 
L 402.942857 202.116427 
L 403.305195 176.9053 
L 403.667532 196.935791 
L 404.02987 170.270638 
L 404.392208 168.561086 
L 405.116883 178.038573 
L 405.479221 206.620495 
L 405.841558 218.421084 
L 406.203896 246.29311 
L 406.566234 258.927109 
L 406.928571 242.754109 
L 407.290909 247.291202 
L 407.653247 227.284877 
L 408.015584 188.161398 
L 408.377922 172.289285 
L 408.74026 135.119198 
L 409.102597 145.324082 
L 409.464935 142.615823 
L 409.827273 148.392063 
L 410.18961 144.849942 
L 410.551948 177.781473 
L 411.276623 214.578114 
L 411.638961 185.81516 
L 412.363636 195.155737 
L 412.725974 179.473956 
L 413.088312 173.098195 
L 413.450649 177.811058 
L 413.812987 209.243812 
L 414.9 252.026766 
L 415.262338 250.260256 
L 415.624675 266.943305 
L 415.987013 255.675086 
L 416.349351 221.922267 
L 416.711688 237.779618 
L 417.074026 192.045482 
L 417.798701 150.39201 
L 418.161039 149.875136 
L 418.523377 168.549189 
L 418.885714 174.189294 
L 419.972727 226.333044 
L 420.335065 238.99138 
L 420.697403 221.515972 
L 421.422078 197.346253 
L 421.784416 191.678703 
L 422.146753 210.584099 
L 422.509091 206.719061 
L 422.871429 236.579174 
L 423.233766 250.058618 
L 423.596104 288.714033 
L 423.958442 274.210658 
L 424.320779 270.555127 
L 424.683117 268.58643 
L 425.77013 183.40639 
L 426.132468 170.271396 
L 426.494805 149.991194 
L 426.857143 176.83366 
L 427.219481 170.338999 
L 427.944156 209.191604 
L 428.668831 227.684267 
L 429.031169 226.842953 
L 429.393506 224.168824 
L 429.755844 215.2992 
L 430.118182 217.999642 
L 430.480519 216.682567 
L 430.842857 211.748392 
L 431.205195 214.988778 
L 431.92987 247.498145 
L 432.292208 254.009114 
L 432.654545 271.155568 
L 433.016883 275.62338 
L 433.741558 232.188931 
L 434.103896 198.877449 
L 434.466234 186.50122 
L 434.828571 154.486172 
L 435.190909 147.742981 
L 435.553247 148.963841 
L 435.915584 179.792309 
L 436.64026 188.055931 
L 437.364935 221.040351 
L 437.727273 220.877282 
L 438.08961 195.714692 
L 438.451948 199.025814 
L 439.176623 178.347377 
L 439.538961 193.853469 
L 439.901299 199.354002 
L 440.263636 199.028926 
L 440.625974 228.620213 
L 440.988312 233.181321 
L 441.350649 242.212942 
L 441.712987 226.992241 
L 442.075325 217.147788 
L 442.437662 221.258487 
L 442.8 181.157741 
L 443.524675 149.074563 
L 443.887013 130.618417 
L 444.249351 147.713051 
L 444.611688 155.003368 
L 444.974026 156.931286 
L 445.698701 166.871866 
L 446.061039 183.472798 
L 446.423377 186.325141 
L 446.785714 171.500067 
L 447.148052 179.018952 
L 447.51039 170.814063 
L 447.872727 168.248979 
L 448.235065 160.169454 
L 448.597403 164.155908 
L 448.95974 186.040129 
L 450.046753 221.541493 
L 450.409091 202.608399 
L 451.133766 184.245054 
L 451.496104 162.062025 
L 452.220779 134.388319 
L 452.583117 139.927545 
L 452.945455 125.911513 
L 453.307792 136.057227 
L 453.67013 138.719939 
L 454.032468 162.496289 
L 454.394805 167.934435 
L 454.757143 163.266526 
L 455.119481 178.333117 
L 455.481818 177.968888 
L 455.844156 155.165876 
L 456.206494 159.430944 
L 456.568831 196.850699 
L 456.931169 150.15124 
L 457.293506 167.82937 
L 457.655844 167.551753 
L 458.380519 199.343962 
L 458.742857 197.500198 
L 459.105195 238.738174 
L 459.467532 194.574994 
L 459.82987 168.450156 
L 460.192208 161.854984 
L 460.916883 138.375583 
L 461.279221 117.084926 
L 461.641558 122.590474 
L 462.003896 135.579048 
L 462.366234 139.849408 
L 462.728571 164.793705 
L 463.090909 164.328272 
L 463.453247 162.605031 
L 463.815584 172.858834 
L 464.177922 170.772117 
L 465.264935 159.977713 
L 465.627273 151.596701 
L 465.98961 166.175487 
L 466.714286 184.196947 
L 467.076623 188.425248 
L 467.438961 212.289444 
L 467.801299 208.69032 
L 468.525974 181.973816 
L 468.888312 178.922489 
L 469.250649 152.029506 
L 469.975325 135.660096 
L 470.337662 129.507212 
L 470.7 144.172373 
L 471.062338 147.169648 
L 471.424675 164.383165 
L 471.787013 165.230307 
L 472.149351 164.877361 
L 472.511688 185.467736 
L 472.874026 193.241059 
L 473.236364 179.532876 
L 473.598701 160.727939 
L 473.961039 169.917974 
L 474.323377 172.589968 
L 474.685714 172.959885 
L 475.048052 201.291606 
L 475.41039 200.817398 
L 475.772727 206.639599 
L 476.135065 219.360846 
L 476.497403 218.131313 
L 476.85974 210.548953 
L 477.222078 197.513214 
L 477.584416 176.689368 
L 477.946753 172.261045 
L 478.309091 151.43396 
L 478.671429 140.753061 
L 479.396104 154.671592 
L 479.758442 167.006779 
L 480.120779 171.799105 
L 480.483117 188.388087 
L 480.845455 182.76137 
L 481.207792 196.575891 
L 481.57013 185.057152 
L 481.932468 183.846575 
L 482.294805 189.975318 
L 482.657143 176.775367 
L 483.019481 183.600044 
L 483.381818 182.964934 
L 484.106494 204.772955 
L 484.468831 226.697262 
L 484.831169 226.929986 
L 485.193506 217.219926 
L 485.555844 220.254897 
L 485.918182 201.612561 
L 486.642857 180.221066 
L 487.005195 153.070922 
L 487.367532 144.042378 
L 487.72987 143.442835 
L 488.092208 162.859209 
L 488.454545 165.082862 
L 488.816883 187.311429 
L 489.179221 181.026833 
L 489.541558 197.176013 
L 489.903896 202.703499 
L 490.266234 197.893043 
L 490.628571 189.987883 
L 490.990909 184.510164 
L 491.353247 175.76995 
L 491.715584 178.820532 
L 492.077922 186.119407 
L 492.44026 196.849288 
L 492.802597 192.600052 
L 493.164935 248.421403 
L 493.527273 212.0884 
L 493.88961 213.495521 
L 494.251948 203.298783 
L 494.614286 189.647346 
L 494.976623 231.86537 
L 495.338961 156.841667 
L 495.701299 150.433982 
L 496.063636 134.8792 
L 496.425974 144.50788 
L 496.788312 148.73067 
L 497.150649 157.284836 
L 497.512987 171.844058 
L 497.875325 174.567649 
L 498.237662 173.630021 
L 498.6 192.447715 
L 498.962338 187.257874 
L 499.324675 175.031481 
L 499.687013 167.274498 
L 500.411688 163.876628 
L 500.774026 179.513995 
L 501.136364 179.531025 
L 501.498701 189.956687 
L 501.861039 196.591706 
L 502.223377 197.613398 
L 502.585714 201.1108 
L 502.948052 188.36888 
L 503.31039 170.437507 
L 503.672727 168.766153 
L 504.035065 145.48609 
L 504.397403 139.222485 
L 504.75974 124.23738 
L 505.122078 124.19551 
L 505.484416 134.248434 
L 505.846753 135.243636 
L 506.209091 154.056656 
L 506.571429 149.818931 
L 506.933766 164.154928 
L 507.296104 160.958063 
L 507.658442 169.584362 
L 508.020779 154.152996 
L 508.383117 156.415667 
L 508.745455 144.149146 
L 509.107792 151.567642 
L 509.47013 152.750898 
L 509.832468 169.29778 
L 510.194805 169.253187 
L 510.557143 177.70508 
L 510.919481 194.282115 
L 511.281818 235.669394 
L 511.644156 169.353363 
L 512.006494 165.674181 
L 512.368831 112.049133 
L 512.731169 136.736531 
L 513.093506 113.903296 
L 513.455844 105.790725 
L 513.818182 105.552394 
L 514.542857 122.703486 
L 514.905195 143.121598 
L 515.267532 155.787487 
L 515.62987 161.840875 
L 515.992208 148.872368 
L 516.354545 147.353931 
L 516.716883 149.09261 
L 517.079221 139.598579 
L 517.441558 138.675159 
L 517.803896 129.220326 
L 518.166234 148.429687 
L 518.528571 160.5685 
L 518.890909 163.681851 
L 519.253247 164.170054 
L 519.615584 178.259571 
L 519.977922 176.596265 
L 520.34026 165.231667 
L 520.702597 166.53252 
L 521.064935 155.638809 
L 521.427273 132.874582 
L 521.78961 120.088136 
L 522.151948 101.865542 
L 522.514286 102.658827 
L 522.876623 108.202001 
L 523.238961 127.626909 
L 523.601299 127.793897 
L 523.963636 140.55191 
L 524.325974 165.519191 
L 524.688312 151.038245 
L 525.050649 156.994481 
L 525.412987 141.931469 
L 525.775325 141.65714 
L 526.137662 130.004847 
L 526.5 133.67643 
L 526.862338 142.366279 
L 527.224675 160.93795 
L 527.587013 165.19783 
L 527.949351 182.035963 
L 528.311688 188.590323 
L 528.674026 176.229832 
L 529.036364 178.590298 
L 529.398701 156.428919 
L 530.123377 139.642771 
L 530.485714 123.189127 
L 530.848052 120.016587 
L 531.21039 115.324753 
L 531.572727 121.491202 
L 531.935065 138.095363 
L 532.297403 144.834453 
L 532.65974 156.86 
L 533.022078 161.327144 
L 533.384416 161.655582 
L 533.746753 159.093287 
L 534.109091 159.082994 
L 534.833766 145.83927 
L 535.920779 175.805332 
L 536.283117 177.647343 
L 536.645455 181.620993 
L 537.007792 200.650344 
L 537.37013 203.483172 
L 537.732468 178.636188 
L 538.094805 179.613862 
L 538.819481 143.531769 
L 539.181818 135.876563 
L 539.544156 115.3402 
L 539.906494 126.574042 
L 540.268831 128.097942 
L 540.631169 140.851899 
L 540.993506 142.470749 
L 541.355844 163.830814 
L 541.718182 168.282099 
L 542.080519 174.723321 
L 542.442857 174.625446 
L 542.805195 162.660224 
L 543.167532 159.413814 
L 543.52987 149.61996 
L 543.892208 157.779771 
L 544.254545 157.468711 
L 544.979221 169.113369 
L 545.341558 170.65919 
L 545.703896 177.219166 
L 546.066234 174.593055 
L 547.153247 156.355875 
L 547.515584 152.854103 
L 547.877922 152.984485 
L 548.24026 141.942963 
L 548.602597 146.832206 
L 548.964935 146.294452 
L 549.327273 151.555745 
L 549.68961 152.244858 
L 550.051948 160.13162 
L 550.414286 162.348411 
L 550.776623 162.271342 
L 551.138961 161.243635 
L 551.501299 162.083475 
L 551.863636 155.661996 
L 552.225974 153.585705 
L 552.588312 155.241037 
L 552.950649 162.47812 
L 553.312987 163.982064 
L 553.675325 163.47345 
L 554.037662 168.29875 
L 554.4 170.709864 
L 554.762338 172.190917 
L 555.124675 165.63431 
L 555.487013 161.37367 
L 556.574026 143.410079 
L 556.936364 140.834227 
L 557.298701 136.59419 
L 558.748052 155.57023 
L 559.11039 157.704713 
L 559.472727 156.007669 
L 559.835065 150.985955 
L 560.197403 149.498203 
L 560.55974 152.582545 
L 560.922078 153.798544 
L 561.284416 143.746372 
L 561.646753 156.292225 
L 562.009091 153.515151 
L 562.371429 159.293811 
L 563.096104 162.838813 
L 563.458442 164.038582 
L 563.820779 162.488124 
L 564.183117 152.608558 
L 564.545455 149.112801 
L 565.27013 135.43341 
L 565.994805 134.477001 
L 566.357143 137.078725 
L 566.719481 138.686981 
L 567.081818 143.992709 
L 567.444156 143.894038 
L 567.806494 149.674951 
L 568.168831 149.930141 
L 568.531169 152.220133 
L 568.893506 145.447816 
L 569.255844 143.735938 
L 569.618182 145.447153 
L 569.980519 141.718097 
L 570.342857 145.947733 
L 570.705195 148.834821 
L 571.067532 150.470818 
L 571.42987 157.631163 
L 571.792208 158.67527 
L 572.154545 161.332872 
L 572.516883 153.085176 
L 572.879221 150.822708 
L 573.966234 129.837418 
L 574.328571 131.257563 
L 574.690909 124.906523 
L 575.053247 129.273958 
L 575.415584 135.875268 
L 576.14026 139.646147 
L 576.502597 143.644044 
L 576.864935 141.321972 
L 577.227273 145.27674 
L 577.58961 137.063712 
L 578.314286 134.829972 
L 578.676623 137.785221 
L 579.038961 138.24278 
L 580.488312 155.381243 
L 580.850649 156.687024 
L 581.212987 155.252572 
L 581.575325 143.570976 
L 581.937662 139.620756 
L 582.3 134.274244 
L 582.662338 133.045801 
L 583.024675 123.816493 
L 583.749351 130.937587 
L 584.111688 128.208521 
L 585.198701 144.744446 
L 585.561039 141.610727 
L 585.923377 140.859986 
L 586.285714 140.751891 
L 586.648052 143.072857 
L 587.01039 135.642518 
L 587.372727 135.973144 
L 588.097403 142.551888 
L 588.45974 150.326817 
L 589.184416 158.205513 
L 589.546753 158.698326 
L 589.909091 151.184783 
L 590.271429 146.51154 
L 590.633766 144.758313 
L 590.996104 136.761566 
L 591.358442 132.40846 
L 591.720779 124.408104 
L 592.083117 128.340377 
L 592.445455 129.537669 
L 592.807792 137.298611 
L 593.17013 135.477272 
L 593.532468 145.678091 
L 593.894805 150.24097 
L 594.257143 148.51262 
L 594.619481 143.781279 
L 594.981818 134.472203 
L 595.344156 141.547519 
L 595.706494 144.432751 
L 596.068831 135.158036 
L 596.431169 144.81592 
L 596.793506 167.370061 
L 597.155844 169.947568 
L 597.518182 187.171802 
L 597.880519 179.379256 
L 598.242857 184.549243 
L 598.967532 166.779115 
L 599.32987 143.081125 
L 599.692208 135.875262 
L 600.416883 114.094569 
L 600.779221 111.039527 
L 601.141558 135.071819 
L 601.503896 124.51794 
L 601.866234 153.890161 
L 602.228571 153.539139 
L 602.590909 168.099996 
L 602.953247 163.530029 
L 603.677922 157.352713 
L 604.04026 152.908729 
L 604.402597 155.280177 
L 604.764935 152.012702 
L 605.48961 173.690791 
L 605.851948 188.788333 
L 606.214286 188.870046 
L 606.576623 189.323059 
L 606.938961 192.169561 
L 607.301299 187.684456 
L 607.663636 175.952586 
L 608.025974 158.366431 
L 608.388312 150.472522 
L 608.750649 112.717542 
L 609.112987 124.244288 
L 609.475325 129.46986 
L 609.837662 126.092416 
L 610.2 146.385668 
L 610.562338 154.701984 
L 610.924675 150.883237 
L 611.649351 180.130943 
L 612.011688 165.561483 
L 612.374026 161.604825 
L 612.736364 146.105724 
L 613.098701 158.000581 
L 613.461039 151.345926 
L 613.823377 155.287601 
L 614.548052 177.19895 
L 615.272727 197.397673 
L 615.997403 186.875913 
L 616.35974 166.482945 
L 616.722078 160.246622 
L 617.084416 136.372888 
L 617.446753 122.351526 
L 618.171429 105.921501 
L 618.896104 129.590999 
L 619.258442 131.501796 
L 619.620779 145.416552 
L 619.983117 151.670031 
L 620.345455 154.692483 
L 620.707792 156.781427 
L 621.07013 140.552613 
L 621.432468 147.018216 
L 621.794805 139.148383 
L 622.157143 138.141529 
L 622.519481 148.203281 
L 622.881818 151.916998 
L 623.244156 169.978197 
L 623.968831 180.587288 
L 624.331169 171.598244 
L 624.693506 166.807773 
L 625.055844 160.157621 
L 626.142857 99.179704 
L 626.505195 107.366995 
L 626.867532 110.814126 
L 627.22987 110.514084 
L 627.592208 105.717059 
L 627.954545 124.607828 
L 628.316883 130.118838 
L 628.679221 144.792402 
L 629.041558 143.112191 
L 629.403896 138.071632 
L 629.766234 138.880347 
L 630.128571 131.664969 
L 630.490909 121.2161 
L 630.853247 138.329911 
L 631.215584 129.25752 
L 631.577922 140.525151 
L 631.94026 140.099043 
L 632.302597 158.33204 
L 632.664935 157.335153 
L 633.027273 152.516757 
L 633.38961 154.790653 
L 633.751948 144.062027 
L 635.201299 87.244101 
L 635.563636 88.147056 
L 636.650649 112.872204 
L 637.012987 115.708061 
L 637.375325 129.577207 
L 637.737662 133.400379 
L 638.1 134.44675 
L 638.462338 122.129507 
L 638.824675 119.669741 
L 639.187013 118.381223 
L 639.549351 109.655949 
L 640.274026 136.360543 
L 640.636364 137.07764 
L 641.361039 161.999744 
L 641.723377 161.262764 
L 642.085714 148.610197 
L 642.448052 128.47069 
L 642.81039 120.781378 
L 643.535065 88.905227 
L 643.897403 83.055253 
L 644.25974 88.01712 
L 644.622078 81.489565 
L 644.984416 96.567784 
L 645.346753 119.948238 
L 645.709091 118.18228 
L 646.433766 134.383617 
L 646.796104 127.967298 
L 647.158442 129.650363 
L 647.520779 126.196928 
L 647.883117 119.945614 
L 648.245455 119.170782 
L 648.607792 121.983669 
L 648.97013 139.80438 
L 649.332468 147.065373 
L 649.694805 164.256701 
L 650.057143 166.95525 
L 650.781818 149.197229 
L 651.144156 155.449406 
L 651.868831 107.54883 
L 652.231169 106.861858 
L 652.593506 100.927443 
L 652.955844 91.331197 
L 653.318182 93.448014 
L 654.767532 156.147334 
L 655.12987 134.516492 
L 655.492208 147.914949 
L 655.854545 178.325779 
L 656.216883 124.259348 
L 656.579221 134.445308 
L 656.941558 125.073803 
L 657.303896 131.439422 
L 657.666234 148.895693 
L 658.028571 151.921528 
L 658.390909 180.98414 
L 658.753247 175.062912 
L 659.115584 173.19194 
L 659.477922 167.492221 
L 659.84026 163.914117 
L 660.202597 142.001461 
L 660.927273 113.575007 
L 661.28961 111.903665 
L 661.651948 108.501522 
L 662.014286 113.216836 
L 662.376623 124.764102 
L 662.738961 132.582243 
L 663.101299 136.312259 
L 663.463636 147.459792 
L 663.825974 146.532493 
L 664.188312 151.593275 
L 664.550649 146.525155 
L 664.912987 158.084946 
L 665.275325 131.63462 
L 665.637662 133.261814 
L 666 138.766565 
L 666.724675 175.809387 
L 667.087013 185.434031 
L 667.449351 182.476292 
L 667.811688 191.645807 
L 668.174026 179.27309 
L 668.898701 149.039197 
L 669.261039 121.947086 
L 669.623377 106.075643 
L 669.985714 111.930194 
L 670.348052 115.930908 
L 670.71039 121.216529 
L 671.072727 116.656332 
L 671.435065 143.736729 
L 671.797403 141.909635 
L 672.15974 157.044906 
L 672.522078 160.363007 
L 672.884416 146.225083 
L 673.246753 154.256227 
L 673.609091 145.747251 
L 673.971429 143.065007 
L 674.333766 150.872999 
L 674.696104 150.068425 
L 675.058442 153.882398 
L 675.420779 173.035389 
L 676.145455 186.243898 
L 676.507792 174.676567 
L 676.87013 172.414674 
L 677.232468 167.315153 
L 678.319481 108.909574 
L 678.681818 108.914455 
L 679.044156 109.539077 
L 679.406494 105.41412 
L 680.131169 136.542851 
L 680.493506 137.602015 
L 680.855844 148.378448 
L 681.218182 149.612726 
L 681.580519 142.616349 
L 681.942857 131.598844 
L 682.305195 136.350422 
L 682.667532 124.702996 
L 683.392208 131.61422 
L 683.754545 147.81222 
L 684.116883 153.820201 
L 684.841558 180.955892 
L 685.566234 150.287768 
L 685.928571 153.587458 
L 687.015584 100.741611 
L 687.377922 90.134506 
L 687.74026 97.207523 
L 688.102597 87.774036 
L 688.464935 107.643955 
L 688.827273 108.057264 
L 689.18961 119.301613 
L 689.551948 135.667132 
L 689.914286 114.772481 
L 690.276623 128.454924 
L 690.638961 128.454282 
L 691.001299 108.772966 
L 691.363636 109.589842 
L 691.725974 117.150832 
L 692.088312 111.319571 
L 692.812987 135.120748 
L 693.175325 129.930287 
L 693.9 160.508281 
L 694.262338 143.613812 
L 694.624675 121.319619 
L 694.987013 106.461534 
L 695.349351 104.533404 
L 695.711688 94.537556 
L 696.074026 77.790902 
L 696.436364 73.468825 
L 696.798701 127.467334 
L 697.161039 85.203273 
L 697.523377 106.548449 
L 697.885714 112.902066 
L 698.248052 75.577707 
L 698.61039 127.801483 
L 698.972727 113.262189 
L 699.335065 113.863507 
L 699.697403 99.43323 
L 700.05974 101.023197 
L 700.422078 115.306301 
L 700.784416 103.718658 
L 701.146753 123.213711 
L 701.509091 130.349559 
L 701.871429 134.139138 
L 702.233766 147.826407 
L 702.596104 145.162731 
L 702.958442 141.269494 
L 703.320779 127.603059 
L 704.045455 92.502836 
L 704.407792 88.867205 
L 704.77013 67.859467 
L 705.132468 66.96 
L 705.494805 84.980014 
L 705.857143 92.546694 
L 706.219481 94.286659 
L 706.581818 105.845889 
L 706.944156 122.933221 
L 707.306494 115.028745 
L 707.668831 110.87927 
L 708.031169 113.262829 
L 708.393506 101.383412 
L 708.755844 106.918561 
L 709.118182 104.564916 
L 709.480519 103.549731 
L 709.842857 115.229827 
L 710.205195 149.397494 
L 710.567532 140.410289 
L 710.92987 147.371257 
L 711.292208 149.576331 
L 712.016883 131.600122 
L 712.379221 123.298744 
L 712.741558 108.811459 
L 713.466234 90.59096 
L 713.828571 83.25244 
L 714.190909 90.70977 
L 714.915584 111.830783 
L 715.64026 135.246871 
L 716.002597 136.768184 
L 716.364935 124.688492 
L 716.727273 125.086203 
L 717.08961 121.08316 
L 717.451948 118.951943 
L 717.814286 119.870286 
L 718.176623 132.56607 
L 718.538961 126.030354 
L 718.901299 152.812061 
L 719.263636 160.959591 
L 719.625974 155.425791 
L 719.988312 160.875113 
L 720.350649 176.841702 
L 721.075325 129.389637 
L 721.437662 119.369407 
L 721.8 98.523887 
L 722.162338 86.411518 
L 722.524675 106.519796 
L 722.887013 98.838979 
L 723.249351 122.088101 
L 723.611688 123.928408 
L 723.974026 138.656601 
L 724.336364 135.670947 
L 724.698701 145.874158 
L 725.061039 137.708117 
L 725.423377 135.5587 
L 725.785714 139.871641 
L 726.148052 126.963589 
L 726.872727 142.367586 
L 727.235065 157.950023 
L 727.597403 164.025996 
L 727.95974 172.291907 
L 728.322078 175.853275 
L 728.684416 174.777306 
L 729.046753 161.750642 
L 729.409091 106.732203 
L 729.771429 134.036544 
L 730.133766 113.924463 
L 730.496104 103.126386 
L 730.858442 108.877163 
L 731.220779 98.805488 
L 731.583117 106.67304 
L 732.307792 133.690903 
L 732.67013 140.803191 
L 733.032468 142.126558 
L 733.394805 150.167988 
L 733.757143 144.283441 
L 734.119481 143.53315 
L 734.844156 126.544838 
L 735.206494 129.571667 
L 735.568831 136.488327 
L 735.931169 153.5129 
L 736.293506 154.075394 
L 736.655844 172.229245 
L 737.018182 177.185021 
L 737.380519 167.951993 
L 737.742857 165.348617 
L 738.105195 142.196715 
L 738.467532 136.239122 
L 738.82987 132.528657 
L 739.192208 102.281675 
L 739.554545 94.778594 
L 739.916883 94.521675 
L 740.279221 104.863405 
L 740.641558 98.5671 
L 741.003896 132.448927 
L 741.366234 133.18769 
L 741.728571 128.805159 
L 742.090909 131.322917 
L 742.453247 128.706872 
L 742.815584 128.712889 
L 743.177922 129.484644 
L 743.54026 129.691331 
L 743.902597 104.595108 
L 744.627273 145.869587 
L 744.98961 154.779818 
L 745.351948 153.652813 
L 745.714286 155.135189 
L 746.076623 169.323393 
L 746.438961 148.302385 
L 746.801299 147.556671 
L 746.801299 147.556671 
" style="fill:none;stroke:#1f77b4;stroke-linecap:square;stroke-width:1.5;"/>
   </g>
   <g id="line2d_16">
    <path clip-path="url(#pe9a359c5d9)" d="M 747.163636 384.48 
L 747.163636 51.84 
" style="fill:none;stroke:#808080;stroke-linecap:square;"/>
   </g>
   <g id="patch_115">
    <path d="M 108 384.48 
L 108 51.84 
" style="fill:none;stroke:#000000;stroke-linecap:square;stroke-linejoin:miter;stroke-width:0.8;"/>
   </g>
   <g id="patch_116">
    <path d="M 777.6 384.48 
L 777.6 51.84 
" style="fill:none;stroke:#000000;stroke-linecap:square;stroke-linejoin:miter;stroke-width:0.8;"/>
   </g>
   <g id="patch_117">
    <path d="M 108 384.48 
L 777.6 384.48 
" style="fill:none;stroke:#000000;stroke-linecap:square;stroke-linejoin:miter;stroke-width:0.8;"/>
   </g>
   <g id="patch_118">
    <path d="M 108 51.84 
L 777.6 51.84 
" style="fill:none;stroke:#000000;stroke-linecap:square;stroke-linejoin:miter;stroke-width:0.8;"/>
   </g>
   <g id="text_17">
    <!-- A4Benchmark-TS56.csv -->
    <defs>
     <path d="M 34.1875 63.1875 
L 20.796875 26.90625 
L 47.609375 26.90625 
z
M 28.609375 72.90625 
L 39.796875 72.90625 
L 67.578125 0 
L 57.328125 0 
L 50.6875 18.703125 
L 17.828125 18.703125 
L 11.1875 0 
L 0.78125 0 
z
" id="DejaVuSans-65"/>
     <path d="M 37.796875 64.3125 
L 12.890625 25.390625 
L 37.796875 25.390625 
z
M 35.203125 72.90625 
L 47.609375 72.90625 
L 47.609375 25.390625 
L 58.015625 25.390625 
L 58.015625 17.1875 
L 47.609375 17.1875 
L 47.609375 0 
L 37.796875 0 
L 37.796875 17.1875 
L 4.890625 17.1875 
L 4.890625 26.703125 
z
" id="DejaVuSans-52"/>
     <path d="M 19.671875 34.8125 
L 19.671875 8.109375 
L 35.5 8.109375 
Q 43.453125 8.109375 47.28125 11.40625 
Q 51.125 14.703125 51.125 21.484375 
Q 51.125 28.328125 47.28125 31.5625 
Q 43.453125 34.8125 35.5 34.8125 
z
M 19.671875 64.796875 
L 19.671875 42.828125 
L 34.28125 42.828125 
Q 41.5 42.828125 45.03125 45.53125 
Q 48.578125 48.25 48.578125 53.8125 
Q 48.578125 59.328125 45.03125 62.0625 
Q 41.5 64.796875 34.28125 64.796875 
z
M 9.8125 72.90625 
L 35.015625 72.90625 
Q 46.296875 72.90625 52.390625 68.21875 
Q 58.5 63.53125 58.5 54.890625 
Q 58.5 48.1875 55.375 44.234375 
Q 52.25 40.28125 46.1875 39.3125 
Q 53.46875 37.75 57.5 32.78125 
Q 61.53125 27.828125 61.53125 20.40625 
Q 61.53125 10.640625 54.890625 5.3125 
Q 48.25 0 35.984375 0 
L 9.8125 0 
z
" id="DejaVuSans-66"/>
     <path d="M 54.890625 33.015625 
L 54.890625 0 
L 45.90625 0 
L 45.90625 32.71875 
Q 45.90625 40.484375 42.875 44.328125 
Q 39.84375 48.1875 33.796875 48.1875 
Q 26.515625 48.1875 22.3125 43.546875 
Q 18.109375 38.921875 18.109375 30.90625 
L 18.109375 0 
L 9.078125 0 
L 9.078125 54.6875 
L 18.109375 54.6875 
L 18.109375 46.1875 
Q 21.34375 51.125 25.703125 53.5625 
Q 30.078125 56 35.796875 56 
Q 45.21875 56 50.046875 50.171875 
Q 54.890625 44.34375 54.890625 33.015625 
z
" id="DejaVuSans-110"/>
     <path d="M 48.78125 52.59375 
L 48.78125 44.1875 
Q 44.96875 46.296875 41.140625 47.34375 
Q 37.3125 48.390625 33.40625 48.390625 
Q 24.65625 48.390625 19.8125 42.84375 
Q 14.984375 37.3125 14.984375 27.296875 
Q 14.984375 17.28125 19.8125 11.734375 
Q 24.65625 6.203125 33.40625 6.203125 
Q 37.3125 6.203125 41.140625 7.25 
Q 44.96875 8.296875 48.78125 10.40625 
L 48.78125 2.09375 
Q 45.015625 0.34375 40.984375 -0.53125 
Q 36.96875 -1.421875 32.421875 -1.421875 
Q 20.0625 -1.421875 12.78125 6.34375 
Q 5.515625 14.109375 5.515625 27.296875 
Q 5.515625 40.671875 12.859375 48.328125 
Q 20.21875 56 33.015625 56 
Q 37.15625 56 41.109375 55.140625 
Q 45.0625 54.296875 48.78125 52.59375 
z
" id="DejaVuSans-99"/>
     <path d="M 54.890625 33.015625 
L 54.890625 0 
L 45.90625 0 
L 45.90625 32.71875 
Q 45.90625 40.484375 42.875 44.328125 
Q 39.84375 48.1875 33.796875 48.1875 
Q 26.515625 48.1875 22.3125 43.546875 
Q 18.109375 38.921875 18.109375 30.90625 
L 18.109375 0 
L 9.078125 0 
L 9.078125 75.984375 
L 18.109375 75.984375 
L 18.109375 46.1875 
Q 21.34375 51.125 25.703125 53.5625 
Q 30.078125 56 35.796875 56 
Q 45.21875 56 50.046875 50.171875 
Q 54.890625 44.34375 54.890625 33.015625 
z
" id="DejaVuSans-104"/>
     <path d="M 41.109375 46.296875 
Q 39.59375 47.171875 37.8125 47.578125 
Q 36.03125 48 33.890625 48 
Q 26.265625 48 22.1875 43.046875 
Q 18.109375 38.09375 18.109375 28.8125 
L 18.109375 0 
L 9.078125 0 
L 9.078125 54.6875 
L 18.109375 54.6875 
L 18.109375 46.1875 
Q 20.953125 51.171875 25.484375 53.578125 
Q 30.03125 56 36.53125 56 
Q 37.453125 56 38.578125 55.875 
Q 39.703125 55.765625 41.0625 55.515625 
z
" id="DejaVuSans-114"/>
     <path d="M 9.078125 75.984375 
L 18.109375 75.984375 
L 18.109375 31.109375 
L 44.921875 54.6875 
L 56.390625 54.6875 
L 27.390625 29.109375 
L 57.625 0 
L 45.90625 0 
L 18.109375 26.703125 
L 18.109375 0 
L 9.078125 0 
z
" id="DejaVuSans-107"/>
     <path d="M 4.890625 31.390625 
L 31.203125 31.390625 
L 31.203125 23.390625 
L 4.890625 23.390625 
z
" id="DejaVuSans-45"/>
     <path d="M 53.515625 70.515625 
L 53.515625 60.890625 
Q 47.90625 63.578125 42.921875 64.890625 
Q 37.9375 66.21875 33.296875 66.21875 
Q 25.25 66.21875 20.875 63.09375 
Q 16.5 59.96875 16.5 54.203125 
Q 16.5 49.359375 19.40625 46.890625 
Q 22.3125 44.4375 30.421875 42.921875 
L 36.375 41.703125 
Q 47.40625 39.59375 52.65625 34.296875 
Q 57.90625 29 57.90625 20.125 
Q 57.90625 9.515625 50.796875 4.046875 
Q 43.703125 -1.421875 29.984375 -1.421875 
Q 24.8125 -1.421875 18.96875 -0.25 
Q 13.140625 0.921875 6.890625 3.21875 
L 6.890625 13.375 
Q 12.890625 10.015625 18.65625 8.296875 
Q 24.421875 6.59375 29.984375 6.59375 
Q 38.421875 6.59375 43.015625 9.90625 
Q 47.609375 13.234375 47.609375 19.390625 
Q 47.609375 24.75 44.3125 27.78125 
Q 41.015625 30.8125 33.5 32.328125 
L 27.484375 33.5 
Q 16.453125 35.6875 11.515625 40.375 
Q 6.59375 45.0625 6.59375 53.421875 
Q 6.59375 63.09375 13.40625 68.65625 
Q 20.21875 74.21875 32.171875 74.21875 
Q 37.3125 74.21875 42.625 73.28125 
Q 47.953125 72.359375 53.515625 70.515625 
z
" id="DejaVuSans-83"/>
     <path d="M 33.015625 40.375 
Q 26.375 40.375 22.484375 35.828125 
Q 18.609375 31.296875 18.609375 23.390625 
Q 18.609375 15.53125 22.484375 10.953125 
Q 26.375 6.390625 33.015625 6.390625 
Q 39.65625 6.390625 43.53125 10.953125 
Q 47.40625 15.53125 47.40625 23.390625 
Q 47.40625 31.296875 43.53125 35.828125 
Q 39.65625 40.375 33.015625 40.375 
z
M 52.59375 71.296875 
L 52.59375 62.3125 
Q 48.875 64.0625 45.09375 64.984375 
Q 41.3125 65.921875 37.59375 65.921875 
Q 27.828125 65.921875 22.671875 59.328125 
Q 17.53125 52.734375 16.796875 39.40625 
Q 19.671875 43.65625 24.015625 45.921875 
Q 28.375 48.1875 33.59375 48.1875 
Q 44.578125 48.1875 50.953125 41.515625 
Q 57.328125 34.859375 57.328125 23.390625 
Q 57.328125 12.15625 50.6875 5.359375 
Q 44.046875 -1.421875 33.015625 -1.421875 
Q 20.359375 -1.421875 13.671875 8.265625 
Q 6.984375 17.96875 6.984375 36.375 
Q 6.984375 53.65625 15.1875 63.9375 
Q 23.390625 74.21875 37.203125 74.21875 
Q 40.921875 74.21875 44.703125 73.484375 
Q 48.484375 72.75 52.59375 71.296875 
z
" id="DejaVuSans-54"/>
     <path d="M 10.6875 12.40625 
L 21 12.40625 
L 21 0 
L 10.6875 0 
z
" id="DejaVuSans-46"/>
     <path d="M 2.984375 54.6875 
L 12.5 54.6875 
L 29.59375 8.796875 
L 46.6875 54.6875 
L 56.203125 54.6875 
L 35.6875 0 
L 23.484375 0 
z
" id="DejaVuSans-118"/>
    </defs>
    <g transform="translate(371.555625 45.84)scale(0.12 -0.12)">
     <use xlink:href="#DejaVuSans-65"/>
     <use x="68.408203" xlink:href="#DejaVuSans-52"/>
     <use x="132.03125" xlink:href="#DejaVuSans-66"/>
     <use x="200.634766" xlink:href="#DejaVuSans-101"/>
     <use x="262.158203" xlink:href="#DejaVuSans-110"/>
     <use x="325.537109" xlink:href="#DejaVuSans-99"/>
     <use x="380.517578" xlink:href="#DejaVuSans-104"/>
     <use x="443.896484" xlink:href="#DejaVuSans-109"/>
     <use x="541.308594" xlink:href="#DejaVuSans-97"/>
     <use x="602.587891" xlink:href="#DejaVuSans-114"/>
     <use x="643.701172" xlink:href="#DejaVuSans-107"/>
     <use x="701.611328" xlink:href="#DejaVuSans-45"/>
     <use x="737.554688" xlink:href="#DejaVuSans-84"/>
     <use x="798.638672" xlink:href="#DejaVuSans-83"/>
     <use x="862.115234" xlink:href="#DejaVuSans-53"/>
     <use x="925.738281" xlink:href="#DejaVuSans-54"/>
     <use x="989.361328" xlink:href="#DejaVuSans-46"/>
     <use x="1021.148438" xlink:href="#DejaVuSans-99"/>
     <use x="1076.128906" xlink:href="#DejaVuSans-115"/>
     <use x="1128.228516" xlink:href="#DejaVuSans-118"/>
    </g>
   </g>
   <g id="legend_1">
    <g id="patch_119">
     <path d="M 711.284375 74.518125 
L 770.6 74.518125 
Q 772.6 74.518125 772.6 72.518125 
L 772.6 58.84 
Q 772.6 56.84 770.6 56.84 
L 711.284375 56.84 
Q 709.284375 56.84 709.284375 58.84 
L 709.284375 72.518125 
Q 709.284375 74.518125 711.284375 74.518125 
z
" style="fill:#ffffff;opacity:0.8;stroke:#cccccc;stroke-linejoin:miter;"/>
    </g>
    <g id="line2d_17">
     <path d="M 713.284375 64.938438 
L 733.284375 64.938438 
" style="fill:none;stroke:#1f77b4;stroke-linecap:square;stroke-width:1.5;"/>
    </g>
    <g id="line2d_18"/>
    <g id="text_18">
     <!-- value -->
     <g transform="translate(741.284375 68.438438)scale(0.1 -0.1)">
      <use xlink:href="#DejaVuSans-118"/>
      <use x="59.179688" xlink:href="#DejaVuSans-97"/>
      <use x="120.458984" xlink:href="#DejaVuSans-108"/>
      <use x="148.242188" xlink:href="#DejaVuSans-117"/>
      <use x="211.621094" xlink:href="#DejaVuSans-101"/>
     </g>
    </g>
   </g>
  </g>
 </g>
 <defs>
  <clipPath id="pe9a359c5d9">
   <rect height="332.64" width="669.6" x="108" y="51.84"/>
  </clipPath>
 </defs>
</svg>
