<?xml version="1.0" encoding="utf-8" standalone="no"?>
<!DOCTYPE svg PUBLIC "-//W3C//DTD SVG 1.1//EN"
  "http://www.w3.org/Graphics/SVG/1.1/DTD/svg11.dtd">
<!-- Created with matplotlib (https://matplotlib.org/) -->
<svg height="432pt" version="1.1" viewBox="0 0 864 432" width="864pt" xmlns="http://www.w3.org/2000/svg" xmlns:xlink="http://www.w3.org/1999/xlink">
 <defs>
  <style type="text/css">
*{stroke-linecap:butt;stroke-linejoin:round;}
  </style>
 </defs>
 <g id="figure_1">
  <g id="patch_1">
   <path d="M 0 432 
L 864 432 
L 864 0 
L 0 0 
z
" style="fill:#ffffff;"/>
  </g>
  <g id="axes_1">
   <g id="patch_2">
    <path d="M 108 384.48 
L 777.6 384.48 
L 777.6 51.84 
L 108 51.84 
z
" style="fill:#ffffff;"/>
   </g>
   <g id="patch_3">
    <path clip-path="url(#p5cf8f15f3c)" d="M 138.436364 384.48 
L 138.436364 51.84 
L 317.724901 51.84 
L 317.724901 384.48 
z
" style="fill:#0000ff;opacity:0.05;"/>
   </g>
   <g id="patch_4">
    <path clip-path="url(#p5cf8f15f3c)" d="M 317.724901 384.48 
L 317.724901 51.84 
L 744.602372 51.84 
L 744.602372 384.48 
z
" style="fill:#ff0000;opacity:0.08;"/>
   </g>
   <g id="patch_5">
    <path clip-path="url(#p5cf8f15f3c)" d="M 138.436364 384.48 
L 138.436364 51.84 
L 142.705138 51.84 
L 142.705138 384.48 
z
" style="fill:#008000;opacity:0.04;"/>
   </g>
   <g id="patch_6">
    <path clip-path="url(#p5cf8f15f3c)" d="M 138.436364 384.48 
L 138.436364 371.1744 
L 142.705138 371.1744 
L 142.705138 384.48 
z
" style="fill:#ffe500;"/>
   </g>
   <g id="patch_7">
    <path clip-path="url(#p5cf8f15f3c)" d="M 146.973913 384.48 
L 146.973913 51.84 
L 151.242688 51.84 
L 151.242688 384.48 
z
" style="fill:#008000;opacity:0.04;"/>
   </g>
   <g id="patch_8">
    <path clip-path="url(#p5cf8f15f3c)" d="M 155.511462 384.48 
L 155.511462 51.84 
L 159.780237 51.84 
L 159.780237 384.48 
z
" style="fill:#008000;opacity:0.04;"/>
   </g>
   <g id="patch_9">
    <path clip-path="url(#p5cf8f15f3c)" d="M 164.049012 384.48 
L 164.049012 51.84 
L 168.317787 51.84 
L 168.317787 384.48 
z
" style="fill:#008000;opacity:0.04;"/>
   </g>
   <g id="patch_10">
    <path clip-path="url(#p5cf8f15f3c)" d="M 172.586561 384.48 
L 172.586561 51.84 
L 176.855336 51.84 
L 176.855336 384.48 
z
" style="fill:#008000;opacity:0.04;"/>
   </g>
   <g id="patch_11">
    <path clip-path="url(#p5cf8f15f3c)" d="M 181.124111 384.48 
L 181.124111 51.84 
L 185.392885 51.84 
L 185.392885 384.48 
z
" style="fill:#008000;opacity:0.04;"/>
   </g>
   <g id="patch_12">
    <path clip-path="url(#p5cf8f15f3c)" d="M 181.124111 384.48 
L 181.124111 371.1744 
L 185.392885 371.1744 
L 185.392885 384.48 
z
" style="fill:#ffe500;"/>
   </g>
   <g id="patch_13">
    <path clip-path="url(#p5cf8f15f3c)" d="M 189.66166 384.48 
L 189.66166 51.84 
L 193.930435 51.84 
L 193.930435 384.48 
z
" style="fill:#008000;opacity:0.04;"/>
   </g>
   <g id="patch_14">
    <path clip-path="url(#p5cf8f15f3c)" d="M 198.199209 384.48 
L 198.199209 51.84 
L 202.467984 51.84 
L 202.467984 384.48 
z
" style="fill:#008000;opacity:0.04;"/>
   </g>
   <g id="patch_15">
    <path clip-path="url(#p5cf8f15f3c)" d="M 206.736759 384.48 
L 206.736759 51.84 
L 211.005534 51.84 
L 211.005534 384.48 
z
" style="fill:#008000;opacity:0.04;"/>
   </g>
   <g id="patch_16">
    <path clip-path="url(#p5cf8f15f3c)" d="M 215.274308 384.48 
L 215.274308 51.84 
L 219.543083 51.84 
L 219.543083 384.48 
z
" style="fill:#008000;opacity:0.04;"/>
   </g>
   <g id="patch_17">
    <path clip-path="url(#p5cf8f15f3c)" d="M 219.543083 384.48 
L 219.543083 371.1744 
L 223.811858 371.1744 
L 223.811858 384.48 
z
" style="fill:#ffe500;"/>
   </g>
   <g id="patch_18">
    <path clip-path="url(#p5cf8f15f3c)" d="M 223.811858 384.48 
L 223.811858 51.84 
L 228.080632 51.84 
L 228.080632 384.48 
z
" style="fill:#008000;opacity:0.04;"/>
   </g>
   <g id="patch_19">
    <path clip-path="url(#p5cf8f15f3c)" d="M 232.349407 384.48 
L 232.349407 51.84 
L 236.618182 51.84 
L 236.618182 384.48 
z
" style="fill:#008000;opacity:0.04;"/>
   </g>
   <g id="patch_20">
    <path clip-path="url(#p5cf8f15f3c)" d="M 240.886957 384.48 
L 240.886957 51.84 
L 245.155731 51.84 
L 245.155731 384.48 
z
" style="fill:#008000;opacity:0.04;"/>
   </g>
   <g id="patch_21">
    <path clip-path="url(#p5cf8f15f3c)" d="M 249.424506 384.48 
L 249.424506 51.84 
L 253.693281 51.84 
L 253.693281 384.48 
z
" style="fill:#008000;opacity:0.04;"/>
   </g>
   <g id="patch_22">
    <path clip-path="url(#p5cf8f15f3c)" d="M 257.962055 384.48 
L 257.962055 51.84 
L 262.23083 51.84 
L 262.23083 384.48 
z
" style="fill:#008000;opacity:0.04;"/>
   </g>
   <g id="patch_23">
    <path clip-path="url(#p5cf8f15f3c)" d="M 266.499605 384.48 
L 266.499605 51.84 
L 270.768379 51.84 
L 270.768379 384.48 
z
" style="fill:#008000;opacity:0.04;"/>
   </g>
   <g id="patch_24">
    <path clip-path="url(#p5cf8f15f3c)" d="M 275.037154 384.48 
L 275.037154 51.84 
L 279.305929 51.84 
L 279.305929 384.48 
z
" style="fill:#008000;opacity:0.04;"/>
   </g>
   <g id="patch_25">
    <path clip-path="url(#p5cf8f15f3c)" d="M 283.574704 384.48 
L 283.574704 51.84 
L 287.843478 51.84 
L 287.843478 384.48 
z
" style="fill:#008000;opacity:0.04;"/>
   </g>
   <g id="patch_26">
    <path clip-path="url(#p5cf8f15f3c)" d="M 292.112253 384.48 
L 292.112253 51.84 
L 296.381028 51.84 
L 296.381028 384.48 
z
" style="fill:#008000;opacity:0.04;"/>
   </g>
   <g id="patch_27">
    <path clip-path="url(#p5cf8f15f3c)" d="M 292.112253 384.48 
L 292.112253 371.1744 
L 296.381028 371.1744 
L 296.381028 384.48 
z
" style="fill:#ffe500;"/>
   </g>
   <g id="patch_28">
    <path clip-path="url(#p5cf8f15f3c)" d="M 300.649802 384.48 
L 300.649802 51.84 
L 304.918577 51.84 
L 304.918577 384.48 
z
" style="fill:#008000;opacity:0.04;"/>
   </g>
   <g id="patch_29">
    <path clip-path="url(#p5cf8f15f3c)" d="M 309.187352 384.48 
L 309.187352 51.84 
L 313.456126 51.84 
L 313.456126 384.48 
z
" style="fill:#008000;opacity:0.04;"/>
   </g>
   <g id="patch_30">
    <path clip-path="url(#p5cf8f15f3c)" d="M 317.724901 384.48 
L 317.724901 51.84 
L 321.993676 51.84 
L 321.993676 384.48 
z
" style="fill:#008000;opacity:0.04;"/>
   </g>
   <g id="patch_31">
    <path clip-path="url(#p5cf8f15f3c)" d="M 326.262451 384.48 
L 326.262451 51.84 
L 330.531225 51.84 
L 330.531225 384.48 
z
" style="fill:#008000;opacity:0.04;"/>
   </g>
   <g id="patch_32">
    <path clip-path="url(#p5cf8f15f3c)" d="M 334.8 384.48 
L 334.8 51.84 
L 339.068775 51.84 
L 339.068775 384.48 
z
" style="fill:#008000;opacity:0.04;"/>
   </g>
   <g id="patch_33">
    <path clip-path="url(#p5cf8f15f3c)" d="M 343.337549 384.48 
L 343.337549 51.84 
L 347.606324 51.84 
L 347.606324 384.48 
z
" style="fill:#008000;opacity:0.04;"/>
   </g>
   <g id="patch_34">
    <path clip-path="url(#p5cf8f15f3c)" d="M 526.894862 384.48 
L 526.894862 371.1744 
L 531.163636 371.1744 
L 531.163636 384.48 
z
" style="fill:#ff6600;"/>
   </g>
   <g id="patch_35">
    <path clip-path="url(#p5cf8f15f3c)" d="M 351.875099 384.48 
L 351.875099 51.84 
L 356.143874 51.84 
L 356.143874 384.48 
z
" style="fill:#008000;opacity:0.04;"/>
   </g>
   <g id="patch_36">
    <path clip-path="url(#p5cf8f15f3c)" d="M 360.412648 384.48 
L 360.412648 51.84 
L 364.681423 51.84 
L 364.681423 384.48 
z
" style="fill:#008000;opacity:0.04;"/>
   </g>
   <g id="patch_37">
    <path clip-path="url(#p5cf8f15f3c)" d="M 368.950198 384.48 
L 368.950198 51.84 
L 373.218972 51.84 
L 373.218972 384.48 
z
" style="fill:#008000;opacity:0.04;"/>
   </g>
   <g id="patch_38">
    <path clip-path="url(#p5cf8f15f3c)" d="M 377.487747 384.48 
L 377.487747 51.84 
L 381.756522 51.84 
L 381.756522 384.48 
z
" style="fill:#008000;opacity:0.04;"/>
   </g>
   <g id="patch_39">
    <path clip-path="url(#p5cf8f15f3c)" d="M 386.025296 384.48 
L 386.025296 51.84 
L 390.294071 51.84 
L 390.294071 384.48 
z
" style="fill:#008000;opacity:0.04;"/>
   </g>
   <g id="patch_40">
    <path clip-path="url(#p5cf8f15f3c)" d="M 565.313834 384.48 
L 565.313834 371.1744 
L 569.582609 371.1744 
L 569.582609 384.48 
z
" style="fill:#ff6600;"/>
   </g>
   <g id="patch_41">
    <path clip-path="url(#p5cf8f15f3c)" d="M 394.562846 384.48 
L 394.562846 51.84 
L 398.831621 51.84 
L 398.831621 384.48 
z
" style="fill:#008000;opacity:0.04;"/>
   </g>
   <g id="patch_42">
    <path clip-path="url(#p5cf8f15f3c)" d="M 403.100395 384.48 
L 403.100395 51.84 
L 407.36917 51.84 
L 407.36917 384.48 
z
" style="fill:#008000;opacity:0.04;"/>
   </g>
   <g id="patch_43">
    <path clip-path="url(#p5cf8f15f3c)" d="M 411.637945 384.48 
L 411.637945 51.84 
L 415.906719 51.84 
L 415.906719 384.48 
z
" style="fill:#008000;opacity:0.04;"/>
   </g>
   <g id="patch_44">
    <path clip-path="url(#p5cf8f15f3c)" d="M 420.175494 384.48 
L 420.175494 51.84 
L 424.444269 51.84 
L 424.444269 384.48 
z
" style="fill:#008000;opacity:0.04;"/>
   </g>
   <g id="patch_45">
    <path clip-path="url(#p5cf8f15f3c)" d="M 428.713043 384.48 
L 428.713043 51.84 
L 432.981818 51.84 
L 432.981818 384.48 
z
" style="fill:#008000;opacity:0.04;"/>
   </g>
   <g id="patch_46">
    <path clip-path="url(#p5cf8f15f3c)" d="M 437.250593 384.48 
L 437.250593 51.84 
L 441.519368 51.84 
L 441.519368 384.48 
z
" style="fill:#008000;opacity:0.04;"/>
   </g>
   <g id="patch_47">
    <path clip-path="url(#p5cf8f15f3c)" d="M 445.788142 384.48 
L 445.788142 51.84 
L 450.056917 51.84 
L 450.056917 384.48 
z
" style="fill:#008000;opacity:0.04;"/>
   </g>
   <g id="patch_48">
    <path clip-path="url(#p5cf8f15f3c)" d="M 454.325692 384.48 
L 454.325692 51.84 
L 458.594466 51.84 
L 458.594466 384.48 
z
" style="fill:#008000;opacity:0.04;"/>
   </g>
   <g id="patch_49">
    <path clip-path="url(#p5cf8f15f3c)" d="M 462.863241 384.48 
L 462.863241 51.84 
L 467.132016 51.84 
L 467.132016 384.48 
z
" style="fill:#008000;opacity:0.04;"/>
   </g>
   <g id="patch_50">
    <path clip-path="url(#p5cf8f15f3c)" d="M 471.400791 384.48 
L 471.400791 51.84 
L 475.669565 51.84 
L 475.669565 384.48 
z
" style="fill:#008000;opacity:0.04;"/>
   </g>
   <g id="patch_51">
    <path clip-path="url(#p5cf8f15f3c)" d="M 479.93834 384.48 
L 479.93834 51.84 
L 484.207115 51.84 
L 484.207115 384.48 
z
" style="fill:#008000;opacity:0.04;"/>
   </g>
   <g id="patch_52">
    <path clip-path="url(#p5cf8f15f3c)" d="M 488.475889 384.48 
L 488.475889 51.84 
L 492.744664 51.84 
L 492.744664 384.48 
z
" style="fill:#008000;opacity:0.04;"/>
   </g>
   <g id="patch_53">
    <path clip-path="url(#p5cf8f15f3c)" d="M 497.013439 384.48 
L 497.013439 51.84 
L 501.282213 51.84 
L 501.282213 384.48 
z
" style="fill:#008000;opacity:0.04;"/>
   </g>
   <g id="patch_54">
    <path clip-path="url(#p5cf8f15f3c)" d="M 505.550988 384.48 
L 505.550988 51.84 
L 509.819763 51.84 
L 509.819763 384.48 
z
" style="fill:#008000;opacity:0.04;"/>
   </g>
   <g id="patch_55">
    <path clip-path="url(#p5cf8f15f3c)" d="M 514.088538 384.48 
L 514.088538 51.84 
L 518.357312 51.84 
L 518.357312 384.48 
z
" style="fill:#008000;opacity:0.04;"/>
   </g>
   <g id="patch_56">
    <path clip-path="url(#p5cf8f15f3c)" d="M 693.377075 384.48 
L 693.377075 371.1744 
L 697.64585 371.1744 
L 697.64585 384.48 
z
" style="fill:#ff6600;"/>
   </g>
   <g id="patch_57">
    <path clip-path="url(#p5cf8f15f3c)" d="M 522.626087 384.48 
L 522.626087 51.84 
L 526.894862 51.84 
L 526.894862 384.48 
z
" style="fill:#008000;opacity:0.04;"/>
   </g>
   <g id="patch_58">
    <path clip-path="url(#p5cf8f15f3c)" d="M 531.163636 384.48 
L 531.163636 51.84 
L 535.432411 51.84 
L 535.432411 384.48 
z
" style="fill:#008000;opacity:0.04;"/>
   </g>
   <g id="patch_59">
    <path clip-path="url(#p5cf8f15f3c)" d="M 539.701186 384.48 
L 539.701186 51.84 
L 543.96996 51.84 
L 543.96996 384.48 
z
" style="fill:#008000;opacity:0.04;"/>
   </g>
   <g id="patch_60">
    <path clip-path="url(#p5cf8f15f3c)" d="M 548.238735 384.48 
L 548.238735 51.84 
L 552.50751 51.84 
L 552.50751 384.48 
z
" style="fill:#008000;opacity:0.04;"/>
   </g>
   <g id="patch_61">
    <path clip-path="url(#p5cf8f15f3c)" d="M 556.776285 384.48 
L 556.776285 51.84 
L 561.045059 51.84 
L 561.045059 384.48 
z
" style="fill:#008000;opacity:0.04;"/>
   </g>
   <g id="patch_62">
    <path clip-path="url(#p5cf8f15f3c)" d="M 565.313834 384.48 
L 565.313834 51.84 
L 569.582609 51.84 
L 569.582609 384.48 
z
" style="fill:#008000;opacity:0.04;"/>
   </g>
   <g id="patch_63">
    <path clip-path="url(#p5cf8f15f3c)" d="M 565.313834 371.1744 
L 565.313834 51.84 
L 569.582609 51.84 
L 569.582609 371.1744 
z
" style="fill:#008000;opacity:0.5;"/>
   </g>
   <g id="patch_64">
    <path clip-path="url(#p5cf8f15f3c)" d="M 573.851383 384.48 
L 573.851383 51.84 
L 578.120158 51.84 
L 578.120158 384.48 
z
" style="fill:#008000;opacity:0.04;"/>
   </g>
   <g id="patch_65">
    <path clip-path="url(#p5cf8f15f3c)" d="M 582.388933 384.48 
L 582.388933 51.84 
L 586.657708 51.84 
L 586.657708 384.48 
z
" style="fill:#008000;opacity:0.04;"/>
   </g>
   <g id="patch_66">
    <path clip-path="url(#p5cf8f15f3c)" d="M 590.926482 384.48 
L 590.926482 51.84 
L 595.195257 51.84 
L 595.195257 384.48 
z
" style="fill:#008000;opacity:0.04;"/>
   </g>
   <g id="patch_67">
    <path clip-path="url(#p5cf8f15f3c)" d="M 599.464032 384.48 
L 599.464032 51.84 
L 603.732806 51.84 
L 603.732806 384.48 
z
" style="fill:#008000;opacity:0.04;"/>
   </g>
   <g id="patch_68">
    <path clip-path="url(#p5cf8f15f3c)" d="M 608.001581 384.48 
L 608.001581 51.84 
L 612.270356 51.84 
L 612.270356 384.48 
z
" style="fill:#008000;opacity:0.04;"/>
   </g>
   <g id="patch_69">
    <path clip-path="url(#p5cf8f15f3c)" d="M 616.53913 384.48 
L 616.53913 51.84 
L 620.807905 51.84 
L 620.807905 384.48 
z
" style="fill:#008000;opacity:0.04;"/>
   </g>
   <g id="patch_70">
    <path clip-path="url(#p5cf8f15f3c)" d="M 625.07668 384.48 
L 625.07668 51.84 
L 629.345455 51.84 
L 629.345455 384.48 
z
" style="fill:#008000;opacity:0.04;"/>
   </g>
   <g id="patch_71">
    <path clip-path="url(#p5cf8f15f3c)" d="M 633.614229 384.48 
L 633.614229 51.84 
L 637.883004 51.84 
L 637.883004 384.48 
z
" style="fill:#008000;opacity:0.04;"/>
   </g>
   <g id="patch_72">
    <path clip-path="url(#p5cf8f15f3c)" d="M 642.151779 384.48 
L 642.151779 51.84 
L 646.420553 51.84 
L 646.420553 384.48 
z
" style="fill:#008000;opacity:0.04;"/>
   </g>
   <g id="patch_73">
    <path clip-path="url(#p5cf8f15f3c)" d="M 650.689328 384.48 
L 650.689328 51.84 
L 654.958103 51.84 
L 654.958103 384.48 
z
" style="fill:#008000;opacity:0.04;"/>
   </g>
   <g id="patch_74">
    <path clip-path="url(#p5cf8f15f3c)" d="M 659.226877 384.48 
L 659.226877 51.84 
L 663.495652 51.84 
L 663.495652 384.48 
z
" style="fill:#008000;opacity:0.04;"/>
   </g>
   <g id="patch_75">
    <path clip-path="url(#p5cf8f15f3c)" d="M 667.764427 384.48 
L 667.764427 51.84 
L 672.033202 51.84 
L 672.033202 384.48 
z
" style="fill:#008000;opacity:0.04;"/>
   </g>
   <g id="patch_76">
    <path clip-path="url(#p5cf8f15f3c)" d="M 676.301976 384.48 
L 676.301976 51.84 
L 680.570751 51.84 
L 680.570751 384.48 
z
" style="fill:#008000;opacity:0.04;"/>
   </g>
   <g id="patch_77">
    <path clip-path="url(#p5cf8f15f3c)" d="M 684.839526 384.48 
L 684.839526 51.84 
L 689.1083 51.84 
L 689.1083 384.48 
z
" style="fill:#008000;opacity:0.04;"/>
   </g>
   <g id="patch_78">
    <path clip-path="url(#p5cf8f15f3c)" d="M 693.377075 384.48 
L 693.377075 51.84 
L 697.64585 51.84 
L 697.64585 384.48 
z
" style="fill:#008000;opacity:0.04;"/>
   </g>
   <g id="patch_79">
    <path clip-path="url(#p5cf8f15f3c)" d="M 693.377075 371.1744 
L 693.377075 51.84 
L 697.64585 51.84 
L 697.64585 371.1744 
z
" style="fill:#008000;opacity:0.5;"/>
   </g>
   <g id="patch_80">
    <path clip-path="url(#p5cf8f15f3c)" d="M 701.914625 384.48 
L 701.914625 51.84 
L 706.183399 51.84 
L 706.183399 384.48 
z
" style="fill:#008000;opacity:0.04;"/>
   </g>
   <g id="patch_81">
    <path clip-path="url(#p5cf8f15f3c)" d="M 710.452174 384.48 
L 710.452174 51.84 
L 714.720949 51.84 
L 714.720949 384.48 
z
" style="fill:#008000;opacity:0.04;"/>
   </g>
   <g id="patch_82">
    <path clip-path="url(#p5cf8f15f3c)" d="M 718.989723 384.48 
L 718.989723 51.84 
L 723.258498 51.84 
L 723.258498 384.48 
z
" style="fill:#008000;opacity:0.04;"/>
   </g>
   <g id="patch_83">
    <path clip-path="url(#p5cf8f15f3c)" d="M 727.527273 384.48 
L 727.527273 51.84 
L 731.796047 51.84 
L 731.796047 384.48 
z
" style="fill:#008000;opacity:0.04;"/>
   </g>
   <g id="patch_84">
    <path clip-path="url(#p5cf8f15f3c)" d="M 736.064822 384.48 
L 736.064822 51.84 
L 740.333597 51.84 
L 740.333597 384.48 
z
" style="fill:#008000;opacity:0.04;"/>
   </g>
   <g id="matplotlib.axis_1">
    <g id="xtick_1">
     <g id="line2d_1">
      <defs>
       <path d="M 0 0 
L 0 3.5 
" id="ma19714035b" style="stroke:#000000;stroke-width:0.8;"/>
      </defs>
      <g>
       <use style="stroke:#000000;stroke-width:0.8;" x="138.436364" xlink:href="#ma19714035b" y="384.48"/>
      </g>
     </g>
     <g id="text_1">
      <!-- 0 -->
      <defs>
       <path d="M 31.78125 66.40625 
Q 24.171875 66.40625 20.328125 58.90625 
Q 16.5 51.421875 16.5 36.375 
Q 16.5 21.390625 20.328125 13.890625 
Q 24.171875 6.390625 31.78125 6.390625 
Q 39.453125 6.390625 43.28125 13.890625 
Q 47.125 21.390625 47.125 36.375 
Q 47.125 51.421875 43.28125 58.90625 
Q 39.453125 66.40625 31.78125 66.40625 
z
M 31.78125 74.21875 
Q 44.046875 74.21875 50.515625 64.515625 
Q 56.984375 54.828125 56.984375 36.375 
Q 56.984375 17.96875 50.515625 8.265625 
Q 44.046875 -1.421875 31.78125 -1.421875 
Q 19.53125 -1.421875 13.0625 8.265625 
Q 6.59375 17.96875 6.59375 36.375 
Q 6.59375 54.828125 13.0625 64.515625 
Q 19.53125 74.21875 31.78125 74.21875 
z
" id="DejaVuSans-48"/>
      </defs>
      <g transform="translate(135.255114 399.078438)scale(0.1 -0.1)">
       <use xlink:href="#DejaVuSans-48"/>
      </g>
     </g>
    </g>
    <g id="xtick_2">
     <g id="line2d_2">
      <g>
       <use style="stroke:#000000;stroke-width:0.8;" x="223.811858" xlink:href="#ma19714035b" y="384.48"/>
      </g>
     </g>
     <g id="text_2">
      <!-- 200 -->
      <defs>
       <path d="M 19.1875 8.296875 
L 53.609375 8.296875 
L 53.609375 0 
L 7.328125 0 
L 7.328125 8.296875 
Q 12.9375 14.109375 22.625 23.890625 
Q 32.328125 33.6875 34.8125 36.53125 
Q 39.546875 41.84375 41.421875 45.53125 
Q 43.3125 49.21875 43.3125 52.78125 
Q 43.3125 58.59375 39.234375 62.25 
Q 35.15625 65.921875 28.609375 65.921875 
Q 23.96875 65.921875 18.8125 64.3125 
Q 13.671875 62.703125 7.8125 59.421875 
L 7.8125 69.390625 
Q 13.765625 71.78125 18.9375 73 
Q 24.125 74.21875 28.421875 74.21875 
Q 39.75 74.21875 46.484375 68.546875 
Q 53.21875 62.890625 53.21875 53.421875 
Q 53.21875 48.921875 51.53125 44.890625 
Q 49.859375 40.875 45.40625 35.40625 
Q 44.1875 33.984375 37.640625 27.21875 
Q 31.109375 20.453125 19.1875 8.296875 
z
" id="DejaVuSans-50"/>
      </defs>
      <g transform="translate(214.268108 399.078438)scale(0.1 -0.1)">
       <use xlink:href="#DejaVuSans-50"/>
       <use x="63.623047" xlink:href="#DejaVuSans-48"/>
       <use x="127.246094" xlink:href="#DejaVuSans-48"/>
      </g>
     </g>
    </g>
    <g id="xtick_3">
     <g id="line2d_3">
      <g>
       <use style="stroke:#000000;stroke-width:0.8;" x="309.187352" xlink:href="#ma19714035b" y="384.48"/>
      </g>
     </g>
     <g id="text_3">
      <!-- 400 -->
      <defs>
       <path d="M 37.796875 64.3125 
L 12.890625 25.390625 
L 37.796875 25.390625 
z
M 35.203125 72.90625 
L 47.609375 72.90625 
L 47.609375 25.390625 
L 58.015625 25.390625 
L 58.015625 17.1875 
L 47.609375 17.1875 
L 47.609375 0 
L 37.796875 0 
L 37.796875 17.1875 
L 4.890625 17.1875 
L 4.890625 26.703125 
z
" id="DejaVuSans-52"/>
      </defs>
      <g transform="translate(299.643602 399.078438)scale(0.1 -0.1)">
       <use xlink:href="#DejaVuSans-52"/>
       <use x="63.623047" xlink:href="#DejaVuSans-48"/>
       <use x="127.246094" xlink:href="#DejaVuSans-48"/>
      </g>
     </g>
    </g>
    <g id="xtick_4">
     <g id="line2d_4">
      <g>
       <use style="stroke:#000000;stroke-width:0.8;" x="394.562846" xlink:href="#ma19714035b" y="384.48"/>
      </g>
     </g>
     <g id="text_4">
      <!-- 600 -->
      <defs>
       <path d="M 33.015625 40.375 
Q 26.375 40.375 22.484375 35.828125 
Q 18.609375 31.296875 18.609375 23.390625 
Q 18.609375 15.53125 22.484375 10.953125 
Q 26.375 6.390625 33.015625 6.390625 
Q 39.65625 6.390625 43.53125 10.953125 
Q 47.40625 15.53125 47.40625 23.390625 
Q 47.40625 31.296875 43.53125 35.828125 
Q 39.65625 40.375 33.015625 40.375 
z
M 52.59375 71.296875 
L 52.59375 62.3125 
Q 48.875 64.0625 45.09375 64.984375 
Q 41.3125 65.921875 37.59375 65.921875 
Q 27.828125 65.921875 22.671875 59.328125 
Q 17.53125 52.734375 16.796875 39.40625 
Q 19.671875 43.65625 24.015625 45.921875 
Q 28.375 48.1875 33.59375 48.1875 
Q 44.578125 48.1875 50.953125 41.515625 
Q 57.328125 34.859375 57.328125 23.390625 
Q 57.328125 12.15625 50.6875 5.359375 
Q 44.046875 -1.421875 33.015625 -1.421875 
Q 20.359375 -1.421875 13.671875 8.265625 
Q 6.984375 17.96875 6.984375 36.375 
Q 6.984375 53.65625 15.1875 63.9375 
Q 23.390625 74.21875 37.203125 74.21875 
Q 40.921875 74.21875 44.703125 73.484375 
Q 48.484375 72.75 52.59375 71.296875 
z
" id="DejaVuSans-54"/>
      </defs>
      <g transform="translate(385.019096 399.078438)scale(0.1 -0.1)">
       <use xlink:href="#DejaVuSans-54"/>
       <use x="63.623047" xlink:href="#DejaVuSans-48"/>
       <use x="127.246094" xlink:href="#DejaVuSans-48"/>
      </g>
     </g>
    </g>
    <g id="xtick_5">
     <g id="line2d_5">
      <g>
       <use style="stroke:#000000;stroke-width:0.8;" x="479.93834" xlink:href="#ma19714035b" y="384.48"/>
      </g>
     </g>
     <g id="text_5">
      <!-- 800 -->
      <defs>
       <path d="M 31.78125 34.625 
Q 24.75 34.625 20.71875 30.859375 
Q 16.703125 27.09375 16.703125 20.515625 
Q 16.703125 13.921875 20.71875 10.15625 
Q 24.75 6.390625 31.78125 6.390625 
Q 38.8125 6.390625 42.859375 10.171875 
Q 46.921875 13.96875 46.921875 20.515625 
Q 46.921875 27.09375 42.890625 30.859375 
Q 38.875 34.625 31.78125 34.625 
z
M 21.921875 38.8125 
Q 15.578125 40.375 12.03125 44.71875 
Q 8.5 49.078125 8.5 55.328125 
Q 8.5 64.0625 14.71875 69.140625 
Q 20.953125 74.21875 31.78125 74.21875 
Q 42.671875 74.21875 48.875 69.140625 
Q 55.078125 64.0625 55.078125 55.328125 
Q 55.078125 49.078125 51.53125 44.71875 
Q 48 40.375 41.703125 38.8125 
Q 48.828125 37.15625 52.796875 32.3125 
Q 56.78125 27.484375 56.78125 20.515625 
Q 56.78125 9.90625 50.3125 4.234375 
Q 43.84375 -1.421875 31.78125 -1.421875 
Q 19.734375 -1.421875 13.25 4.234375 
Q 6.78125 9.90625 6.78125 20.515625 
Q 6.78125 27.484375 10.78125 32.3125 
Q 14.796875 37.15625 21.921875 38.8125 
z
M 18.3125 54.390625 
Q 18.3125 48.734375 21.84375 45.5625 
Q 25.390625 42.390625 31.78125 42.390625 
Q 38.140625 42.390625 41.71875 45.5625 
Q 45.3125 48.734375 45.3125 54.390625 
Q 45.3125 60.0625 41.71875 63.234375 
Q 38.140625 66.40625 31.78125 66.40625 
Q 25.390625 66.40625 21.84375 63.234375 
Q 18.3125 60.0625 18.3125 54.390625 
z
" id="DejaVuSans-56"/>
      </defs>
      <g transform="translate(470.39459 399.078438)scale(0.1 -0.1)">
       <use xlink:href="#DejaVuSans-56"/>
       <use x="63.623047" xlink:href="#DejaVuSans-48"/>
       <use x="127.246094" xlink:href="#DejaVuSans-48"/>
      </g>
     </g>
    </g>
    <g id="xtick_6">
     <g id="line2d_6">
      <g>
       <use style="stroke:#000000;stroke-width:0.8;" x="565.313834" xlink:href="#ma19714035b" y="384.48"/>
      </g>
     </g>
     <g id="text_6">
      <!-- 1000 -->
      <defs>
       <path d="M 12.40625 8.296875 
L 28.515625 8.296875 
L 28.515625 63.921875 
L 10.984375 60.40625 
L 10.984375 69.390625 
L 28.421875 72.90625 
L 38.28125 72.90625 
L 38.28125 8.296875 
L 54.390625 8.296875 
L 54.390625 0 
L 12.40625 0 
z
" id="DejaVuSans-49"/>
      </defs>
      <g transform="translate(552.588834 399.078438)scale(0.1 -0.1)">
       <use xlink:href="#DejaVuSans-49"/>
       <use x="63.623047" xlink:href="#DejaVuSans-48"/>
       <use x="127.246094" xlink:href="#DejaVuSans-48"/>
       <use x="190.869141" xlink:href="#DejaVuSans-48"/>
      </g>
     </g>
    </g>
    <g id="xtick_7">
     <g id="line2d_7">
      <g>
       <use style="stroke:#000000;stroke-width:0.8;" x="650.689328" xlink:href="#ma19714035b" y="384.48"/>
      </g>
     </g>
     <g id="text_7">
      <!-- 1200 -->
      <g transform="translate(637.964328 399.078438)scale(0.1 -0.1)">
       <use xlink:href="#DejaVuSans-49"/>
       <use x="63.623047" xlink:href="#DejaVuSans-50"/>
       <use x="127.246094" xlink:href="#DejaVuSans-48"/>
       <use x="190.869141" xlink:href="#DejaVuSans-48"/>
      </g>
     </g>
    </g>
    <g id="xtick_8">
     <g id="line2d_8">
      <g>
       <use style="stroke:#000000;stroke-width:0.8;" x="736.064822" xlink:href="#ma19714035b" y="384.48"/>
      </g>
     </g>
     <g id="text_8">
      <!-- 1400 -->
      <g transform="translate(723.339822 399.078438)scale(0.1 -0.1)">
       <use xlink:href="#DejaVuSans-49"/>
       <use x="63.623047" xlink:href="#DejaVuSans-52"/>
       <use x="127.246094" xlink:href="#DejaVuSans-48"/>
       <use x="190.869141" xlink:href="#DejaVuSans-48"/>
      </g>
     </g>
    </g>
    <g id="text_9">
     <!-- Timestamp -->
     <defs>
      <path d="M -0.296875 72.90625 
L 61.375 72.90625 
L 61.375 64.59375 
L 35.5 64.59375 
L 35.5 0 
L 25.59375 0 
L 25.59375 64.59375 
L -0.296875 64.59375 
z
" id="DejaVuSans-84"/>
      <path d="M 9.421875 54.6875 
L 18.40625 54.6875 
L 18.40625 0 
L 9.421875 0 
z
M 9.421875 75.984375 
L 18.40625 75.984375 
L 18.40625 64.59375 
L 9.421875 64.59375 
z
" id="DejaVuSans-105"/>
      <path d="M 52 44.1875 
Q 55.375 50.25 60.0625 53.125 
Q 64.75 56 71.09375 56 
Q 79.640625 56 84.28125 50.015625 
Q 88.921875 44.046875 88.921875 33.015625 
L 88.921875 0 
L 79.890625 0 
L 79.890625 32.71875 
Q 79.890625 40.578125 77.09375 44.375 
Q 74.3125 48.1875 68.609375 48.1875 
Q 61.625 48.1875 57.5625 43.546875 
Q 53.515625 38.921875 53.515625 30.90625 
L 53.515625 0 
L 44.484375 0 
L 44.484375 32.71875 
Q 44.484375 40.625 41.703125 44.40625 
Q 38.921875 48.1875 33.109375 48.1875 
Q 26.21875 48.1875 22.15625 43.53125 
Q 18.109375 38.875 18.109375 30.90625 
L 18.109375 0 
L 9.078125 0 
L 9.078125 54.6875 
L 18.109375 54.6875 
L 18.109375 46.1875 
Q 21.1875 51.21875 25.484375 53.609375 
Q 29.78125 56 35.6875 56 
Q 41.65625 56 45.828125 52.96875 
Q 50 49.953125 52 44.1875 
z
" id="DejaVuSans-109"/>
      <path d="M 56.203125 29.59375 
L 56.203125 25.203125 
L 14.890625 25.203125 
Q 15.484375 15.921875 20.484375 11.0625 
Q 25.484375 6.203125 34.421875 6.203125 
Q 39.59375 6.203125 44.453125 7.46875 
Q 49.3125 8.734375 54.109375 11.28125 
L 54.109375 2.78125 
Q 49.265625 0.734375 44.1875 -0.34375 
Q 39.109375 -1.421875 33.890625 -1.421875 
Q 20.796875 -1.421875 13.15625 6.1875 
Q 5.515625 13.8125 5.515625 26.8125 
Q 5.515625 40.234375 12.765625 48.109375 
Q 20.015625 56 32.328125 56 
Q 43.359375 56 49.78125 48.890625 
Q 56.203125 41.796875 56.203125 29.59375 
z
M 47.21875 32.234375 
Q 47.125 39.59375 43.09375 43.984375 
Q 39.0625 48.390625 32.421875 48.390625 
Q 24.90625 48.390625 20.390625 44.140625 
Q 15.875 39.890625 15.1875 32.171875 
z
" id="DejaVuSans-101"/>
      <path d="M 44.28125 53.078125 
L 44.28125 44.578125 
Q 40.484375 46.53125 36.375 47.5 
Q 32.28125 48.484375 27.875 48.484375 
Q 21.1875 48.484375 17.84375 46.4375 
Q 14.5 44.390625 14.5 40.28125 
Q 14.5 37.15625 16.890625 35.375 
Q 19.28125 33.59375 26.515625 31.984375 
L 29.59375 31.296875 
Q 39.15625 29.25 43.1875 25.515625 
Q 47.21875 21.78125 47.21875 15.09375 
Q 47.21875 7.46875 41.1875 3.015625 
Q 35.15625 -1.421875 24.609375 -1.421875 
Q 20.21875 -1.421875 15.453125 -0.5625 
Q 10.6875 0.296875 5.421875 2 
L 5.421875 11.28125 
Q 10.40625 8.6875 15.234375 7.390625 
Q 20.0625 6.109375 24.8125 6.109375 
Q 31.15625 6.109375 34.5625 8.28125 
Q 37.984375 10.453125 37.984375 14.40625 
Q 37.984375 18.0625 35.515625 20.015625 
Q 33.0625 21.96875 24.703125 23.78125 
L 21.578125 24.515625 
Q 13.234375 26.265625 9.515625 29.90625 
Q 5.8125 33.546875 5.8125 39.890625 
Q 5.8125 47.609375 11.28125 51.796875 
Q 16.75 56 26.8125 56 
Q 31.78125 56 36.171875 55.265625 
Q 40.578125 54.546875 44.28125 53.078125 
z
" id="DejaVuSans-115"/>
      <path d="M 18.3125 70.21875 
L 18.3125 54.6875 
L 36.8125 54.6875 
L 36.8125 47.703125 
L 18.3125 47.703125 
L 18.3125 18.015625 
Q 18.3125 11.328125 20.140625 9.421875 
Q 21.96875 7.515625 27.59375 7.515625 
L 36.8125 7.515625 
L 36.8125 0 
L 27.59375 0 
Q 17.1875 0 13.234375 3.875 
Q 9.28125 7.765625 9.28125 18.015625 
L 9.28125 47.703125 
L 2.6875 47.703125 
L 2.6875 54.6875 
L 9.28125 54.6875 
L 9.28125 70.21875 
z
" id="DejaVuSans-116"/>
      <path d="M 34.28125 27.484375 
Q 23.390625 27.484375 19.1875 25 
Q 14.984375 22.515625 14.984375 16.5 
Q 14.984375 11.71875 18.140625 8.90625 
Q 21.296875 6.109375 26.703125 6.109375 
Q 34.1875 6.109375 38.703125 11.40625 
Q 43.21875 16.703125 43.21875 25.484375 
L 43.21875 27.484375 
z
M 52.203125 31.203125 
L 52.203125 0 
L 43.21875 0 
L 43.21875 8.296875 
Q 40.140625 3.328125 35.546875 0.953125 
Q 30.953125 -1.421875 24.3125 -1.421875 
Q 15.921875 -1.421875 10.953125 3.296875 
Q 6 8.015625 6 15.921875 
Q 6 25.140625 12.171875 29.828125 
Q 18.359375 34.515625 30.609375 34.515625 
L 43.21875 34.515625 
L 43.21875 35.40625 
Q 43.21875 41.609375 39.140625 45 
Q 35.0625 48.390625 27.6875 48.390625 
Q 23 48.390625 18.546875 47.265625 
Q 14.109375 46.140625 10.015625 43.890625 
L 10.015625 52.203125 
Q 14.9375 54.109375 19.578125 55.046875 
Q 24.21875 56 28.609375 56 
Q 40.484375 56 46.34375 49.84375 
Q 52.203125 43.703125 52.203125 31.203125 
z
" id="DejaVuSans-97"/>
      <path d="M 18.109375 8.203125 
L 18.109375 -20.796875 
L 9.078125 -20.796875 
L 9.078125 54.6875 
L 18.109375 54.6875 
L 18.109375 46.390625 
Q 20.953125 51.265625 25.265625 53.625 
Q 29.59375 56 35.59375 56 
Q 45.5625 56 51.78125 48.09375 
Q 58.015625 40.1875 58.015625 27.296875 
Q 58.015625 14.40625 51.78125 6.484375 
Q 45.5625 -1.421875 35.59375 -1.421875 
Q 29.59375 -1.421875 25.265625 0.953125 
Q 20.953125 3.328125 18.109375 8.203125 
z
M 48.6875 27.296875 
Q 48.6875 37.203125 44.609375 42.84375 
Q 40.53125 48.484375 33.40625 48.484375 
Q 26.265625 48.484375 22.1875 42.84375 
Q 18.109375 37.203125 18.109375 27.296875 
Q 18.109375 17.390625 22.1875 11.75 
Q 26.265625 6.109375 33.40625 6.109375 
Q 40.53125 6.109375 44.609375 11.75 
Q 48.6875 17.390625 48.6875 27.296875 
z
" id="DejaVuSans-112"/>
     </defs>
     <g transform="translate(414.739062 412.756563)scale(0.1 -0.1)">
      <use xlink:href="#DejaVuSans-84"/>
      <use x="61.037109" xlink:href="#DejaVuSans-105"/>
      <use x="88.820312" xlink:href="#DejaVuSans-109"/>
      <use x="186.232422" xlink:href="#DejaVuSans-101"/>
      <use x="247.755859" xlink:href="#DejaVuSans-115"/>
      <use x="299.855469" xlink:href="#DejaVuSans-116"/>
      <use x="339.064453" xlink:href="#DejaVuSans-97"/>
      <use x="400.34375" xlink:href="#DejaVuSans-109"/>
      <use x="497.755859" xlink:href="#DejaVuSans-112"/>
     </g>
    </g>
   </g>
   <g id="matplotlib.axis_2">
    <g id="ytick_1">
     <g id="line2d_9">
      <defs>
       <path d="M 0 0 
L -3.5 0 
" id="m6b2a5979cc" style="stroke:#000000;stroke-width:0.8;"/>
      </defs>
      <g>
       <use style="stroke:#000000;stroke-width:0.8;" x="108" xlink:href="#m6b2a5979cc" y="369.36"/>
      </g>
     </g>
     <g id="text_10">
      <!-- 0 -->
      <g transform="translate(94.6375 373.159219)scale(0.1 -0.1)">
       <use xlink:href="#DejaVuSans-48"/>
      </g>
     </g>
    </g>
    <g id="ytick_2">
     <g id="line2d_10">
      <g>
       <use style="stroke:#000000;stroke-width:0.8;" x="108" xlink:href="#m6b2a5979cc" y="302.956838"/>
      </g>
     </g>
     <g id="text_11">
      <!-- 500 -->
      <defs>
       <path d="M 10.796875 72.90625 
L 49.515625 72.90625 
L 49.515625 64.59375 
L 19.828125 64.59375 
L 19.828125 46.734375 
Q 21.96875 47.46875 24.109375 47.828125 
Q 26.265625 48.1875 28.421875 48.1875 
Q 40.625 48.1875 47.75 41.5 
Q 54.890625 34.8125 54.890625 23.390625 
Q 54.890625 11.625 47.5625 5.09375 
Q 40.234375 -1.421875 26.90625 -1.421875 
Q 22.3125 -1.421875 17.546875 -0.640625 
Q 12.796875 0.140625 7.71875 1.703125 
L 7.71875 11.625 
Q 12.109375 9.234375 16.796875 8.0625 
Q 21.484375 6.890625 26.703125 6.890625 
Q 35.15625 6.890625 40.078125 11.328125 
Q 45.015625 15.765625 45.015625 23.390625 
Q 45.015625 31 40.078125 35.4375 
Q 35.15625 39.890625 26.703125 39.890625 
Q 22.75 39.890625 18.8125 39.015625 
Q 14.890625 38.140625 10.796875 36.28125 
z
" id="DejaVuSans-53"/>
      </defs>
      <g transform="translate(81.9125 306.756057)scale(0.1 -0.1)">
       <use xlink:href="#DejaVuSans-53"/>
       <use x="63.623047" xlink:href="#DejaVuSans-48"/>
       <use x="127.246094" xlink:href="#DejaVuSans-48"/>
      </g>
     </g>
    </g>
    <g id="ytick_3">
     <g id="line2d_11">
      <g>
       <use style="stroke:#000000;stroke-width:0.8;" x="108" xlink:href="#m6b2a5979cc" y="236.553676"/>
      </g>
     </g>
     <g id="text_12">
      <!-- 1000 -->
      <g transform="translate(75.55 240.352895)scale(0.1 -0.1)">
       <use xlink:href="#DejaVuSans-49"/>
       <use x="63.623047" xlink:href="#DejaVuSans-48"/>
       <use x="127.246094" xlink:href="#DejaVuSans-48"/>
       <use x="190.869141" xlink:href="#DejaVuSans-48"/>
      </g>
     </g>
    </g>
    <g id="ytick_4">
     <g id="line2d_12">
      <g>
       <use style="stroke:#000000;stroke-width:0.8;" x="108" xlink:href="#m6b2a5979cc" y="170.150514"/>
      </g>
     </g>
     <g id="text_13">
      <!-- 1500 -->
      <g transform="translate(75.55 173.949733)scale(0.1 -0.1)">
       <use xlink:href="#DejaVuSans-49"/>
       <use x="63.623047" xlink:href="#DejaVuSans-53"/>
       <use x="127.246094" xlink:href="#DejaVuSans-48"/>
       <use x="190.869141" xlink:href="#DejaVuSans-48"/>
      </g>
     </g>
    </g>
    <g id="ytick_5">
     <g id="line2d_13">
      <g>
       <use style="stroke:#000000;stroke-width:0.8;" x="108" xlink:href="#m6b2a5979cc" y="103.747352"/>
      </g>
     </g>
     <g id="text_14">
      <!-- 2000 -->
      <g transform="translate(75.55 107.546571)scale(0.1 -0.1)">
       <use xlink:href="#DejaVuSans-50"/>
       <use x="63.623047" xlink:href="#DejaVuSans-48"/>
       <use x="127.246094" xlink:href="#DejaVuSans-48"/>
       <use x="190.869141" xlink:href="#DejaVuSans-48"/>
      </g>
     </g>
    </g>
    <g id="text_15">
     <!-- Value -->
     <defs>
      <path d="M 28.609375 0 
L 0.78125 72.90625 
L 11.078125 72.90625 
L 34.1875 11.53125 
L 57.328125 72.90625 
L 67.578125 72.90625 
L 39.796875 0 
z
" id="DejaVuSans-86"/>
      <path d="M 9.421875 75.984375 
L 18.40625 75.984375 
L 18.40625 0 
L 9.421875 0 
z
" id="DejaVuSans-108"/>
      <path d="M 8.5 21.578125 
L 8.5 54.6875 
L 17.484375 54.6875 
L 17.484375 21.921875 
Q 17.484375 14.15625 20.5 10.265625 
Q 23.53125 6.390625 29.59375 6.390625 
Q 36.859375 6.390625 41.078125 11.03125 
Q 45.3125 15.671875 45.3125 23.6875 
L 45.3125 54.6875 
L 54.296875 54.6875 
L 54.296875 0 
L 45.3125 0 
L 45.3125 8.40625 
Q 42.046875 3.421875 37.71875 1 
Q 33.40625 -1.421875 27.6875 -1.421875 
Q 18.265625 -1.421875 13.375 4.4375 
Q 8.5 10.296875 8.5 21.578125 
z
M 31.109375 56 
z
" id="DejaVuSans-117"/>
     </defs>
     <g transform="translate(69.470312 232.273281)rotate(-90)scale(0.1 -0.1)">
      <use xlink:href="#DejaVuSans-86"/>
      <use x="68.298828" xlink:href="#DejaVuSans-97"/>
      <use x="129.578125" xlink:href="#DejaVuSans-108"/>
      <use x="157.361328" xlink:href="#DejaVuSans-117"/>
      <use x="220.740234" xlink:href="#DejaVuSans-101"/>
     </g>
    </g>
   </g>
   <g id="line2d_14">
    <path clip-path="url(#p5cf8f15f3c)" d="M 138.436364 369.36 
L 138.863241 362.188458 
L 139.290119 239.076996 
L 139.716996 241.733123 
L 140.143874 241.600316 
L 140.570751 224.999526 
L 141.851383 253.287273 
L 143.132016 321.018498 
L 143.558893 328.322846 
L 143.985771 341.337866 
L 144.412648 345.454862 
L 144.839526 339.212964 
L 145.693281 310.261186 
L 146.120158 289.012174 
L 146.547036 287.684111 
L 146.973913 284.231146 
L 147.400791 282.63747 
L 147.827668 278.520474 
L 148.254545 272.012964 
L 148.681423 292.730751 
L 149.1083 276.12996 
L 149.535178 269.755257 
L 149.962055 270.419289 
L 150.388933 265.239842 
L 150.81581 255.677787 
L 151.242688 259.130751 
L 151.669565 263.778972 
L 152.096443 263.778972 
L 152.52332 283.434308 
L 152.950198 309.597154 
L 153.377075 323.276206 
L 153.803953 341.205059 
L 154.23083 347.845375 
L 154.657708 349.571858 
L 155.084585 342.400316 
L 155.511462 342.798735 
L 156.365217 297.910198 
L 157.218972 278.653281 
L 157.64585 285.692016 
L 158.072727 282.106245 
L 158.499605 279.848538 
L 158.926482 281.840632 
L 159.35336 277.059605 
L 159.780237 258.0683 
L 160.207115 267.497549 
L 160.633992 263.646166 
L 161.06087 255.810593 
L 161.487747 252.224822 
L 161.914625 245.053281 
L 163.195257 308.66751 
L 163.622134 320.354466 
L 164.049012 342.798735 
L 164.475889 350.501502 
L 164.902767 343.32996 
L 165.329644 333.767905 
L 165.756522 327.127589 
L 166.183399 303.488063 
L 166.610277 293.394783 
L 167.037154 277.59083 
L 167.464032 266.302292 
L 167.890909 267.630356 
L 168.317787 255.943399 
L 168.744664 251.959209 
L 169.171542 255.943399 
L 169.598419 256.740237 
L 170.025296 260.591621 
L 170.452174 241.334704 
L 170.879051 227.921265 
L 171.305929 229.382134 
L 171.732806 199.367905 
L 172.586561 251.959209 
L 173.013439 288.746561 
L 173.440316 305.612964 
L 173.867194 328.721265 
L 174.294071 340.142609 
L 174.720949 342.001897 
L 175.147826 344.525217 
L 175.574704 335.494387 
L 176.855336 279.715731 
L 177.282213 277.856443 
L 177.709091 278.387668 
L 178.135968 269.356838 
L 178.562846 267.364743 
L 178.989723 263.247747 
L 179.416601 260.99004 
L 179.843478 255.54498 
L 180.270356 254.084111 
L 181.124111 219.687273 
L 181.550988 218.359209 
L 181.977866 224.601107 
L 182.404743 217.960791 
L 182.831621 241.865929 
L 183.685375 316.104664 
L 184.53913 333.103874 
L 184.966008 340.80664 
L 185.392885 345.454862 
L 186.24664 312.6517 
L 186.673518 281.043794 
L 187.100395 285.293597 
L 187.527273 285.293597 
L 187.95415 283.832727 
L 188.381028 270.684901 
L 188.807905 261.122846 
L 189.234783 262.982134 
L 189.66166 261.654071 
L 190.088538 261.122846 
L 190.515415 246.115731 
L 190.942292 246.912569 
L 191.796047 227.788458 
L 192.222925 223.40585 
L 192.649802 223.140237 
L 193.07668 251.693597 
L 193.503557 290.871462 
L 193.930435 311.722055 
L 194.357312 321.284111 
L 194.78419 339.478577 
L 195.211067 339.478577 
L 195.637945 348.642213 
L 196.918577 297.511779 
L 197.345455 294.59004 
L 197.772332 280.11415 
L 198.199209 271.747352 
L 199.052964 270.552095 
L 199.906719 258.333913 
L 200.333597 262.583715 
L 200.760474 235.889644 
L 201.187352 248.639051 
L 201.614229 236.686482 
L 202.041107 249.303083 
L 202.467984 241.069091 
L 202.894862 269.224032 
L 203.321739 253.02166 
L 204.175494 305.081739 
L 204.602372 331.111779 
L 205.029249 343.993992 
L 205.456126 343.32996 
L 205.883004 343.728379 
L 206.309881 335.095968 
L 206.736759 321.284111 
L 207.163636 301.363162 
L 208.017391 283.567115 
L 208.444269 272.012964 
L 208.871146 272.012964 
L 209.298024 275.333123 
L 209.724901 275.333123 
L 210.151779 267.09913 
L 210.578656 266.435099 
L 211.432411 244.522055 
L 211.859289 253.818498 
L 212.286166 268.825613 
L 212.713043 249.435889 
L 213.139921 244.522055 
L 213.566798 263.646166 
L 213.993676 292.863557 
L 214.420553 301.495968 
L 214.847431 327.393202 
L 215.274308 340.673834 
L 215.701186 347.31415 
L 216.128063 342.931542 
L 216.554941 342.134704 
L 216.981818 339.478577 
L 217.835573 287.418498 
L 218.262451 288.480949 
L 218.689328 280.11415 
L 219.543083 292.730751 
L 219.96996 290.340237 
L 220.396838 283.301502 
L 220.823715 272.942609 
L 221.250593 279.981344 
L 221.67747 280.645375 
L 222.958103 268.692806 
L 223.38498 268.161581 
L 224.665613 310.925217 
L 225.09249 331.111779 
L 225.519368 336.556838 
L 225.946245 347.579763 
L 226.373123 344.658024 
L 226.8 345.853281 
L 227.226877 339.876996 
L 227.653755 316.901502 
L 228.080632 305.480158 
L 228.50751 297.11336 
L 228.934387 275.333123 
L 229.788142 296.316522 
L 230.21502 279.317312 
L 230.641897 291.269881 
L 231.068775 285.824822 
L 231.495652 270.419289 
L 231.92253 274.669091 
L 232.349407 263.247747 
L 232.776285 264.044585 
L 233.63004 257.00585 
L 234.056917 271.481739 
L 234.483794 302.425613 
L 235.337549 332.174229 
L 235.764427 347.978182 
L 236.191304 344.923636 
L 236.618182 349.704664 
L 237.045059 341.603478 
L 237.471937 327.924427 
L 237.898814 305.612964 
L 238.752569 282.504664 
L 239.179447 274.005059 
L 239.606324 275.200316 
L 240.033202 251.959209 
L 240.460079 261.521265 
L 240.886957 260.060395 
L 241.313834 257.935494 
L 241.740711 248.639051 
L 242.167589 243.592411 
L 242.594466 241.600316 
L 243.448221 233.366324 
L 243.875099 224.999526 
L 244.301976 247.842213 
L 244.728854 285.559209 
L 245.155731 312.6517 
L 245.582609 330.846166 
L 246.009486 335.627194 
L 246.436364 345.587668 
L 246.863241 346.2517 
L 247.290119 337.884901 
L 247.716996 315.17502 
L 248.143874 299.902292 
L 248.570751 291.004269 
L 248.997628 276.528379 
L 249.424506 279.450119 
L 249.851383 264.310198 
L 250.278261 259.794783 
L 250.705138 265.372648 
L 251.132016 265.372648 
L 252.839526 242.795573 
L 253.266403 244.123636 
L 253.693281 233.366324 
L 254.120158 238.412964 
L 254.547036 254.349723 
L 254.973913 278.786087 
L 255.827668 334.033518 
L 256.254545 334.830356 
L 256.681423 342.931542 
L 257.1083 348.110988 
L 258.81581 283.965534 
L 259.242688 281.973439 
L 259.669565 270.552095 
L 260.096443 275.598735 
L 260.950198 266.567905 
L 261.377075 257.00585 
L 261.803953 260.591621 
L 262.23083 253.02166 
L 262.657708 248.107826 
L 263.084585 244.787668 
L 263.511462 233.764743 
L 263.93834 231.639842 
L 264.365217 224.999526 
L 264.792095 251.029565 
L 265.218972 289.410593 
L 266.072727 326.861976 
L 266.499605 337.22087 
L 266.926482 339.74419 
L 267.35336 343.197154 
L 267.780237 339.478577 
L 268.207115 323.276206 
L 268.633992 299.63668 
L 269.06087 298.574229 
L 269.487747 277.059605 
L 269.914625 274.536285 
L 270.341502 269.356838 
L 270.768379 277.989249 
L 272.049012 253.287273 
L 272.475889 255.54498 
L 273.329644 243.061186 
L 273.756522 230.178972 
L 274.183399 231.108617 
L 274.610277 240.272253 
L 275.037154 241.998735 
L 275.464032 288.348142 
L 275.890909 307.073834 
L 276.317787 335.892806 
L 276.744664 337.752095 
L 277.171542 342.665929 
L 277.598419 344.79083 
L 278.025296 338.150514 
L 278.879051 299.902292 
L 279.305929 291.004269 
L 279.732806 290.473043 
L 280.159684 285.160791 
L 280.586561 273.341028 
L 281.013439 273.473834 
L 281.440316 284.629565 
L 281.867194 260.193202 
L 282.294071 259.52917 
L 282.720949 257.669881 
L 283.147826 240.537866 
L 283.574704 250.232727 
L 284.001581 255.279368 
L 284.428458 235.889644 
L 284.855336 255.810593 
L 285.282213 264.57581 
L 286.562846 329.25249 
L 286.989723 331.244585 
L 287.416601 345.454862 
L 287.843478 350.235889 
L 288.270356 346.782925 
L 288.697233 330.447747 
L 289.124111 308.003478 
L 289.977866 290.340237 
L 290.404743 297.910198 
L 290.831621 286.62166 
L 291.258498 287.020079 
L 291.685375 296.582134 
L 292.112253 278.653281 
L 292.53913 279.184506 
L 292.966008 277.856443 
L 293.392885 278.918893 
L 293.819763 263.911779 
L 294.24664 277.059605 
L 294.673518 266.169486 
L 295.100395 269.888063 
L 295.527273 277.723636 
L 296.381028 306.409802 
L 297.234783 337.353676 
L 297.66166 345.587668 
L 298.515415 350.103083 
L 298.942292 339.345771 
L 299.36917 316.503083 
L 299.796047 286.488854 
L 300.222925 300.300711 
L 300.649802 289.543399 
L 301.07668 292.996364 
L 301.503557 297.644585 
L 301.930435 290.473043 
L 302.357312 278.918893 
L 302.78419 284.629565 
L 303.211067 282.239051 
L 303.637945 267.364743 
L 304.064822 263.247747 
L 304.4917 248.506245 
L 304.918577 243.592411 
L 305.345455 252.224822 
L 305.772332 258.599526 
L 306.199209 294.191621 
L 306.626087 316.901502 
L 307.479842 342.798735 
L 307.906719 345.189249 
L 308.333597 346.650119 
L 308.760474 340.142609 
L 310.041107 288.348142 
L 310.894862 262.849328 
L 311.321739 260.193202 
L 311.748617 253.420079 
L 312.175494 264.708617 
L 312.602372 266.03668 
L 313.456126 244.123636 
L 313.883004 237.350514 
L 314.309881 241.46751 
L 314.736759 228.983715 
L 315.163636 223.538656 
L 315.590514 240.00664 
L 316.017391 249.701502 
L 317.298024 332.307036 
L 317.724901 336.689644 
L 318.151779 344.525217 
L 318.578656 345.056443 
L 319.432411 321.68253 
L 319.859289 294.324427 
L 320.286166 282.63747 
L 320.713043 276.528379 
L 321.139921 276.12996 
L 321.566798 273.075415 
L 321.993676 262.716522 
L 322.420553 265.372648 
L 322.847431 286.488854 
L 323.274308 248.771858 
L 323.701186 240.537866 
L 324.128063 239.475415 
L 324.981818 236.155257 
L 325.408696 229.116522 
L 325.835573 231.507036 
L 326.262451 241.733123 
L 326.689328 283.567115 
L 327.543083 328.588458 
L 327.96996 340.142609 
L 328.396838 343.728379 
L 328.823715 344.126798 
L 329.250593 342.400316 
L 330.104348 296.449328 
L 330.531225 283.035889 
L 330.958103 279.582925 
L 331.811858 266.567905 
L 332.238735 268.028775 
L 332.665613 265.771067 
L 333.09249 256.607431 
L 333.519368 267.497549 
L 333.946245 253.951304 
L 334.373123 233.897549 
L 334.8 229.91336 
L 335.226877 230.577391 
L 335.653755 216.765534 
L 336.080632 228.983715 
L 336.50751 245.850119 
L 337.361265 305.214545 
L 337.788142 323.674625 
L 338.21502 332.838261 
L 338.641897 346.650119 
L 339.068775 348.243794 
L 339.495652 337.088063 
L 339.92253 313.581344 
L 340.349407 296.449328 
L 340.776285 291.801107 
L 341.203162 278.653281 
L 341.63004 273.075415 
L 342.056917 265.239842 
L 342.483794 267.364743 
L 342.910672 273.208221 
L 343.337549 261.122846 
L 343.764427 261.786877 
L 345.045059 226.327589 
L 345.471937 230.710198 
L 345.898814 226.593202 
L 346.325692 223.671462 
L 347.606324 302.027194 
L 348.033202 324.20585 
L 348.460079 340.541028 
L 348.886957 344.126798 
L 349.313834 343.861186 
L 349.740711 337.486482 
L 350.594466 294.988458 
L 351.021344 287.020079 
L 351.448221 281.442213 
L 351.875099 280.11415 
L 352.301976 276.793992 
L 352.728854 281.707826 
L 353.155731 270.684901 
L 353.582609 276.12996 
L 354.009486 260.458814 
L 354.436364 262.318103 
L 354.863241 245.053281 
L 355.290119 243.99083 
L 355.716996 251.959209 
L 356.143874 257.669881 
L 356.570751 249.701502 
L 356.997628 257.138656 
L 357.424506 290.871462 
L 357.851383 302.691225 
L 358.278261 328.986877 
L 358.705138 341.470672 
L 359.132016 341.072253 
L 359.558893 345.587668 
L 359.985771 345.587668 
L 360.412648 333.767905 
L 360.839526 306.14419 
L 361.266403 288.879368 
L 361.693281 290.871462 
L 362.120158 287.684111 
L 362.547036 285.426403 
L 362.973913 286.62166 
L 363.400791 285.027984 
L 363.827668 286.090435 
L 364.254545 284.231146 
L 364.681423 276.395573 
L 365.535178 269.091225 
L 365.962055 268.294387 
L 366.388933 266.567905 
L 366.81581 262.716522 
L 367.242688 282.239051 
L 367.669565 288.215336 
L 368.52332 330.978972 
L 368.950198 343.32996 
L 369.377075 343.32996 
L 369.803953 350.501502 
L 370.23083 341.470672 
L 370.657708 338.814545 
L 371.93834 289.809012 
L 372.365217 281.57502 
L 372.792095 280.910988 
L 373.218972 278.520474 
L 373.64585 272.942609 
L 374.072727 290.340237 
L 374.499605 277.856443 
L 374.926482 280.379763 
L 375.35336 259.130751 
L 375.780237 267.09913 
L 376.207115 246.912569 
L 376.633992 254.349723 
L 377.06087 246.51415 
L 377.487747 266.833518 
L 378.341502 314.378182 
L 378.768379 333.369486 
L 379.195257 340.275415 
L 380.049012 350.368696 
L 380.475889 342.001897 
L 380.902767 325.932332 
L 381.329644 295.785296 
L 381.756522 287.551304 
L 382.183399 276.793992 
L 382.610277 272.942609 
L 383.037154 257.537075 
L 383.464032 254.48253 
L 383.890909 262.716522 
L 384.317787 259.927589 
L 384.744664 267.497549 
L 385.171542 237.217708 
L 385.598419 246.646957 
L 386.025296 240.272253 
L 386.879051 210.523636 
L 387.305929 233.897549 
L 387.732806 250.49834 
L 388.159684 284.231146 
L 389.013439 329.650909 
L 389.440316 340.673834 
L 389.867194 343.595573 
L 390.294071 339.74419 
L 390.720949 336.955257 
L 391.574704 300.300711 
L 392.428458 279.981344 
L 393.282213 270.950514 
L 393.709091 279.582925 
L 394.135968 325.666719 
L 394.562846 261.388458 
L 394.989723 261.786877 
L 395.416601 249.701502 
L 395.843478 245.850119 
L 396.270356 222.609012 
L 396.697233 227.655652 
L 397.124111 215.835889 
L 397.550988 228.850909 
L 397.977866 247.842213 
L 398.831621 311.19083 
L 399.258498 320.620079 
L 399.685375 336.158419 
L 400.112253 344.259605 
L 400.53913 344.392411 
L 400.966008 337.752095 
L 401.819763 298.574229 
L 402.24664 290.340237 
L 402.673518 273.872253 
L 403.100395 281.309407 
L 403.527273 278.387668 
L 403.95415 262.849328 
L 404.381028 262.716522 
L 404.807905 262.450909 
L 405.234783 256.076206 
L 405.66166 253.552885 
L 406.088538 231.507036 
L 406.515415 238.147352 
L 406.942292 238.678577 
L 407.36917 231.772648 
L 407.796047 241.334704 
L 408.222925 255.412174 
L 408.649802 291.933913 
L 409.07668 304.816126 
L 409.503557 325.799526 
L 409.930435 337.353676 
L 410.357312 338.017708 
L 410.78419 345.587668 
L 411.211067 337.752095 
L 411.637945 317.831146 
L 412.064822 306.542609 
L 412.4917 281.043794 
L 412.918577 279.981344 
L 413.345455 266.700711 
L 413.772332 263.247747 
L 414.199209 265.107036 
L 414.626087 263.911779 
L 415.052964 256.607431 
L 415.479842 274.137866 
L 416.333597 245.318893 
L 416.760474 241.069091 
L 417.187352 245.053281 
L 418.041107 229.382134 
L 419.321739 311.854862 
L 420.602372 344.923636 
L 421.029249 342.798735 
L 421.456126 340.009802 
L 421.883004 320.354466 
L 422.309881 306.808221 
L 422.736759 285.027984 
L 423.163636 296.449328 
L 423.590514 277.989249 
L 424.017391 280.778182 
L 424.444269 280.910988 
L 424.871146 282.239051 
L 425.298024 280.910988 
L 425.724901 276.661186 
L 426.151779 264.708617 
L 426.578656 266.169486 
L 427.005534 255.54498 
L 427.432411 272.54419 
L 427.859289 263.51336 
L 428.286166 249.967115 
L 428.713043 271.08332 
L 429.139921 279.582925 
L 429.566798 312.120474 
L 430.420553 338.947352 
L 430.847431 342.798735 
L 431.274308 345.322055 
L 431.701186 340.009802 
L 432.128063 327.393202 
L 432.981818 296.050909 
L 433.408696 286.488854 
L 433.835573 285.957628 
L 434.262451 279.450119 
L 434.689328 296.980553 
L 435.116206 283.965534 
L 435.543083 285.160791 
L 436.396838 276.528379 
L 436.823715 273.341028 
L 437.250593 273.872253 
L 437.67747 269.356838 
L 438.104348 255.677787 
L 438.531225 276.395573 
L 438.958103 278.122055 
L 440.238735 322.877787 
L 440.665613 341.337866 
L 441.09249 340.80664 
L 441.519368 352.360791 
L 441.946245 349.970277 
L 442.373123 340.939447 
L 442.8 312.253281 
L 443.226877 305.081739 
L 443.653755 291.402688 
L 444.080632 281.840632 
L 444.50751 286.887273 
L 444.934387 286.62166 
L 445.788142 278.122055 
L 446.21502 278.254862 
L 446.641897 267.497549 
L 447.068775 274.005059 
L 447.495652 258.333913 
L 447.92253 257.537075 
L 448.349407 260.326008 
L 448.776285 246.912569 
L 449.203162 263.247747 
L 449.63004 291.137075 
L 450.483794 328.588458 
L 450.910672 338.416126 
L 451.337549 345.587668 
L 451.764427 346.517312 
L 452.191304 341.603478 
L 452.618182 325.401107 
L 453.045059 303.089644 
L 453.471937 287.816917 
L 453.898814 280.512569 
L 454.752569 254.216917 
L 455.606324 260.193202 
L 456.033202 256.076206 
L 456.886957 250.896759 
L 457.313834 233.897549 
L 457.740711 232.43668 
L 458.167589 221.280949 
L 458.594466 235.092806 
L 459.021344 241.201897 
L 459.448221 244.389249 
L 460.301976 311.19083 
L 460.728854 323.143399 
L 461.155731 343.197154 
L 461.582609 347.31415 
L 462.009486 346.384506 
L 462.863241 321.68253 
L 463.290119 301.230356 
L 463.716996 291.004269 
L 464.143874 277.723636 
L 464.570751 275.06751 
L 464.997628 268.958419 
L 465.424506 268.294387 
L 465.851383 260.99004 
L 466.278261 264.841423 
L 466.705138 266.302292 
L 467.132016 238.678577 
L 467.558893 245.318893 
L 467.985771 236.288063 
L 468.412648 230.97581 
L 468.839526 234.561581 
L 469.266403 228.319684 
L 469.693281 244.920474 
L 470.120158 293.527589 
L 470.973913 326.994783 
L 471.400791 334.697549 
L 471.827668 349.439051 
L 472.681423 341.470672 
L 473.535178 297.378972 
L 473.962055 292.066719 
L 474.388933 274.403478 
L 474.81581 274.801897 
L 475.242688 279.184506 
L 475.669565 265.638261 
L 476.096443 275.598735 
L 476.52332 261.521265 
L 476.950198 268.56 
L 477.377075 243.326798 
L 477.803953 247.443794 
L 478.23083 243.725217 
L 479.084585 226.858814 
L 479.511462 224.335494 
L 480.365217 287.152885 
L 480.792095 302.956838 
L 481.218972 323.674625 
L 481.64585 336.291225 
L 482.499605 348.642213 
L 482.926482 336.158419 
L 484.207115 288.348142 
L 484.633992 290.074625 
L 485.06087 276.12996 
L 485.487747 279.317312 
L 485.914625 263.911779 
L 486.341502 269.489644 
L 486.768379 272.676996 
L 487.195257 263.114941 
L 487.622134 265.372648 
L 488.049012 246.51415 
L 488.475889 246.646957 
L 488.902767 251.427984 
L 489.329644 247.045375 
L 489.756522 237.881739 
L 490.183399 245.584506 
L 490.610277 301.495968 
L 491.464032 331.908617 
L 491.890909 342.400316 
L 492.317787 343.993992 
L 492.744664 349.704664 
L 493.598419 322.877787 
L 494.452174 282.903083 
L 494.879051 277.192411 
L 495.305929 275.465929 
L 495.732806 270.684901 
L 496.159684 273.60664 
L 496.586561 281.309407 
L 497.013439 266.03668 
L 497.440316 263.778972 
L 497.867194 251.826403 
L 498.294071 258.0683 
L 498.720949 256.873043 
L 499.147826 245.186087 
L 499.574704 257.00585 
L 500.001581 258.865138 
L 500.428458 267.763162 
L 501.709091 326.197945 
L 502.135968 338.548933 
L 502.562846 344.923636 
L 502.989723 349.173439 
L 503.416601 345.853281 
L 503.843478 336.822451 
L 504.270356 309.065929 
L 505.124111 284.895178 
L 505.550988 282.770277 
L 505.977866 293.394783 
L 506.404743 290.60585 
L 507.685375 270.419289 
L 508.112253 280.379763 
L 508.53913 277.723636 
L 508.966008 273.208221 
L 509.392885 272.809802 
L 509.819763 267.231937 
L 510.24664 291.004269 
L 510.673518 277.325217 
L 511.100395 302.691225 
L 511.527273 308.003478 
L 512.381028 342.533123 
L 512.807905 348.509407 
L 513.234783 352.493597 
L 513.66166 349.173439 
L 514.088538 336.556838 
L 514.515415 313.71415 
L 515.36917 287.684111 
L 515.796047 285.426403 
L 516.222925 288.215336 
L 516.649802 283.434308 
L 517.07668 292.996364 
L 517.503557 278.653281 
L 517.930435 282.903083 
L 518.357312 280.778182 
L 518.78419 269.755257 
L 519.211067 274.669091 
L 519.637945 264.57581 
L 520.064822 230.178972 
L 520.4917 250.896759 
L 520.918577 279.450119 
L 521.345455 289.012174 
L 521.772332 315.971858 
L 522.199209 327.658814 
L 522.626087 343.861186 
L 523.052964 346.650119 
L 523.479842 350.235889 
L 523.906719 343.064348 
L 524.760474 302.691225 
L 525.187352 287.816917 
L 525.614229 285.559209 
L 526.041107 274.934704 
L 526.467984 277.059605 
L 527.321739 258.0683 
L 527.748617 261.388458 
L 528.175494 267.497549 
L 528.602372 249.834308 
L 529.029249 245.717312 
L 529.456126 281.043794 
L 529.883004 226.593202 
L 530.309881 196.446166 
L 530.736759 228.585296 
L 531.163636 245.982925 
L 531.590514 284.629565 
L 532.017391 302.691225 
L 532.444269 328.19004 
L 533.298024 343.728379 
L 533.724901 348.243794 
L 535.005534 296.980553 
L 535.432411 290.60585 
L 535.859289 285.957628 
L 536.286166 277.325217 
L 536.713043 279.848538 
L 537.139921 268.161581 
L 537.566798 275.06751 
L 537.993676 277.59083 
L 538.420553 279.184506 
L 538.847431 257.404269 
L 539.274308 254.216917 
L 539.701186 249.435889 
L 540.128063 233.100711 
L 540.554941 229.91336 
L 540.981818 232.038261 
L 541.835573 300.566324 
L 542.262451 314.510988 
L 542.689328 340.142609 
L 543.116206 342.134704 
L 543.543083 350.899921 
L 543.96996 344.79083 
L 544.396838 336.955257 
L 545.250593 282.770277 
L 545.67747 289.277787 
L 546.104348 289.012174 
L 546.958103 277.856443 
L 547.38498 269.224032 
L 547.811858 269.622451 
L 548.238735 272.54419 
L 548.665613 285.824822 
L 549.09249 258.466719 
L 549.519368 251.029565 
L 549.946245 253.685692 
L 550.373123 231.108617 
L 551.226877 236.819289 
L 551.653755 257.669881 
L 552.080632 300.433518 
L 552.50751 324.338656 
L 552.934387 340.142609 
L 553.788142 354.087273 
L 554.641897 337.884901 
L 555.068775 322.213755 
L 555.495652 284.496759 
L 555.92253 294.59004 
L 556.349407 287.949723 
L 556.776285 288.08253 
L 557.63004 250.49834 
L 558.483794 265.638261 
L 558.910672 264.310198 
L 559.337549 248.639051 
L 560.191304 258.732332 
L 560.618182 235.225613 
L 561.045059 229.382134 
L 561.471937 242.662767 
L 561.898814 261.919684 
L 562.752569 329.916522 
L 563.179447 334.29913 
L 563.606324 347.048538 
L 564.460079 348.77502 
L 564.886957 337.884901 
L 565.313834 318.760791 
L 565.740711 293.926008 
L 566.167589 293.527589 
L 566.594466 66.96 
L 567.021344 227.257233 
L 567.448221 247.576601 
L 567.875099 240.139447 
L 568.301976 243.326798 
L 568.728854 252.756047 
L 569.155731 252.490435 
L 569.582609 267.630356 
L 570.009486 241.069091 
L 570.436364 249.568696 
L 570.863241 232.303874 
L 571.290119 249.435889 
L 571.716996 240.670672 
L 572.143874 275.997154 
L 572.570751 282.63747 
L 572.997628 353.556047 
L 573.424506 364.844585 
L 573.851383 347.31415 
L 574.278261 342.26751 
L 574.705138 348.243794 
L 575.132016 340.80664 
L 575.558893 324.869881 
L 575.985771 297.511779 
L 576.412648 291.269881 
L 576.839526 280.910988 
L 577.266403 281.57502 
L 577.693281 293.12917 
L 578.120158 290.074625 
L 578.547036 285.957628 
L 578.973913 290.871462 
L 579.400791 290.340237 
L 579.827668 283.699921 
L 580.254545 282.63747 
L 580.681423 272.278577 
L 581.1083 272.278577 
L 581.535178 270.684901 
L 582.388933 288.480949 
L 582.81581 294.324427 
L 583.242688 319.690435 
L 584.096443 348.243794 
L 584.52332 351.165534 
L 584.950198 350.235889 
L 585.377075 351.962372 
L 585.803953 336.291225 
L 586.23083 308.401897 
L 586.657708 307.870672 
L 587.084585 288.613755 
L 587.511462 293.12917 
L 587.93834 301.761581 
L 588.365217 303.089644 
L 588.792095 302.027194 
L 589.64585 288.08253 
L 590.072727 280.645375 
L 590.499605 280.910988 
L 591.35336 255.54498 
L 591.780237 258.732332 
L 592.207115 265.239842 
L 592.633992 285.426403 
L 593.06087 312.518893 
L 593.487747 330.182134 
L 594.341502 352.892016 
L 594.768379 353.024822 
L 595.622134 346.118893 
L 596.475889 289.410593 
L 596.902767 298.043004 
L 597.329644 279.848538 
L 597.756522 277.458024 
L 598.183399 287.152885 
L 598.610277 261.521265 
L 599.037154 272.145771 
L 599.464032 273.739447 
L 599.890909 273.872253 
L 600.317787 249.568696 
L 600.744664 257.802688 
L 601.171542 253.287273 
L 601.598419 234.030356 
L 602.025296 236.952095 
L 602.452174 228.718103 
L 603.732806 319.557628 
L 604.586561 348.509407 
L 605.013439 351.962372 
L 605.440316 353.82166 
L 606.720949 296.050909 
L 607.147826 285.957628 
L 607.574704 286.090435 
L 608.001581 278.122055 
L 608.428458 266.03668 
L 608.855336 268.692806 
L 609.282213 273.075415 
L 609.709091 283.832727 
L 610.135968 272.942609 
L 610.562846 253.02166 
L 610.989723 256.740237 
L 611.416601 240.272253 
L 611.843478 248.771858 
L 612.270356 232.569486 
L 612.697233 237.748933 
L 613.550988 299.105455 
L 613.977866 323.807431 
L 614.404743 336.025613 
L 615.258498 350.103083 
L 615.685375 349.704664 
L 616.112253 338.681739 
L 616.53913 322.346561 
L 616.966008 295.918103 
L 617.392885 298.574229 
L 617.819763 291.535494 
L 618.24664 291.137075 
L 618.673518 291.6683 
L 619.100395 287.551304 
L 619.527273 279.317312 
L 619.95415 283.035889 
L 620.381028 273.739447 
L 620.807905 267.497549 
L 621.234783 247.310988 
L 621.66166 256.076206 
L 622.088538 253.420079 
L 622.515415 237.48332 
L 622.942292 240.803478 
L 623.36917 269.622451 
L 623.796047 306.808221 
L 624.222925 333.369486 
L 624.649802 346.915731 
L 625.07668 353.157628 
L 625.503557 353.688854 
L 625.930435 352.227984 
L 626.357312 338.150514 
L 626.78419 319.690435 
L 627.637945 294.722846 
L 628.064822 284.09834 
L 628.4917 289.941818 
L 628.918577 288.215336 
L 629.345455 287.684111 
L 629.772332 277.723636 
L 630.199209 281.57502 
L 630.626087 274.934704 
L 631.052964 275.333123 
L 631.479842 258.466719 
L 631.906719 256.341818 
L 632.333597 254.880949 
L 632.760474 252.357628 
L 633.187352 243.858024 
L 634.467984 335.76 
L 635.321739 352.759209 
L 635.748617 354.751304 
L 636.175494 354.884111 
L 636.602372 341.869091 
L 637.456126 294.988458 
L 637.883004 303.62087 
L 638.736759 286.356047 
L 639.163636 281.57502 
L 639.590514 282.371858 
L 640.017391 290.074625 
L 640.444269 287.816917 
L 640.871146 281.309407 
L 641.298024 276.793992 
L 641.724901 276.926798 
L 642.151779 270.817708 
L 642.578656 260.857233 
L 643.005534 265.638261 
L 643.432411 273.739447 
L 643.859289 274.536285 
L 644.713043 318.495178 
L 645.139921 337.619289 
L 645.566798 347.845375 
L 645.993676 352.892016 
L 646.420553 351.696759 
L 646.847431 345.986087 
L 647.274308 329.25249 
L 647.701186 306.409802 
L 648.128063 295.519684 
L 648.554941 287.949723 
L 648.981818 302.027194 
L 649.408696 293.793202 
L 649.835573 292.996364 
L 650.262451 299.105455 
L 650.689328 303.089644 
L 651.116206 290.207431 
L 651.543083 287.418498 
L 651.96996 287.816917 
L 652.396838 276.926798 
L 652.823715 282.239051 
L 653.250593 271.481739 
L 653.67747 271.747352 
L 654.104348 278.653281 
L 655.38498 325.932332 
L 656.238735 344.658024 
L 656.665613 342.001897 
L 657.09249 346.118893 
L 657.519368 334.963162 
L 657.946245 307.737866 
L 658.373123 298.043004 
L 658.8 293.12917 
L 659.226877 291.137075 
L 659.653755 263.778972 
L 660.080632 288.08253 
L 660.50751 285.692016 
L 660.934387 282.504664 
L 661.361265 270.153676 
L 661.788142 278.786087 
L 662.21502 262.185296 
L 662.641897 265.107036 
L 663.068775 244.920474 
L 663.495652 252.224822 
L 663.92253 247.842213 
L 664.349407 264.310198 
L 664.776285 290.473043 
L 665.63004 328.721265 
L 666.056917 338.150514 
L 666.483794 334.963162 
L 666.910672 340.142609 
L 667.337549 334.431937 
L 668.191304 290.60585 
L 668.618182 284.895178 
L 669.045059 264.310198 
L 669.471937 275.997154 
L 669.898814 255.146561 
L 670.325692 251.560791 
L 670.752569 249.834308 
L 671.179447 244.787668 
L 671.606324 252.623241 
L 672.033202 251.427984 
L 672.460079 230.444585 
L 672.886957 227.921265 
L 673.313834 207.601897 
L 673.740711 205.211383 
L 674.167589 212.515731 
L 675.021344 280.379763 
L 675.875099 330.182134 
L 676.728854 343.728379 
L 677.155731 339.74419 
L 677.582609 333.23668 
L 678.009486 305.214545 
L 678.436364 287.816917 
L 678.863241 292.066719 
L 679.290119 268.427194 
L 679.716996 266.169486 
L 680.143874 261.388458 
L 680.570751 260.591621 
L 680.997628 250.49834 
L 681.424506 253.951304 
L 681.851383 256.076206 
L 682.278261 237.48332 
L 682.705138 241.46751 
L 683.132016 236.155257 
L 683.558893 235.624032 
L 683.985771 220.484111 
L 684.412648 227.39004 
L 684.839526 250.631146 
L 685.266403 286.754466 
L 686.120158 329.25249 
L 686.547036 332.174229 
L 687.400791 342.665929 
L 687.827668 334.830356 
L 688.681423 288.08253 
L 689.1083 278.254862 
L 689.535178 276.528379 
L 689.962055 263.646166 
L 690.388933 266.302292 
L 690.81581 255.677787 
L 691.242688 260.857233 
L 691.669565 255.810593 
L 692.096443 256.607431 
L 692.52332 243.326798 
L 692.950198 235.756838 
L 693.377075 231.905455 
L 693.803953 231.507036 
L 694.23083 212.648538 
L 694.657708 225.92917 
L 695.084585 245.584506 
L 695.511462 281.442213 
L 695.93834 368.297549 
L 696.365217 324.869881 
L 697.218972 342.533123 
L 697.64585 343.728379 
L 698.499605 315.440632 
L 698.926482 290.473043 
L 699.35336 288.08253 
L 700.207115 278.918893 
L 700.633992 266.700711 
L 701.06087 264.177391 
L 701.487747 251.162372 
L 701.914625 262.318103 
L 702.341502 255.810593 
L 702.768379 233.631937 
L 703.195257 237.217708 
L 703.622134 231.108617 
L 704.049012 247.97502 
L 704.475889 230.046166 
L 704.902767 233.233518 
L 705.329644 247.443794 
L 705.756522 270.552095 
L 706.183399 311.589249 
L 707.037154 338.681739 
L 707.464032 346.384506 
L 707.890909 342.798735 
L 708.744664 306.941028 
L 709.171542 289.012174 
L 709.598419 278.387668 
L 710.025296 274.005059 
L 710.452174 266.169486 
L 710.879051 274.536285 
L 711.305929 257.537075 
L 711.732806 257.404269 
L 712.159684 265.239842 
L 712.586561 260.591621 
L 713.013439 240.139447 
L 713.440316 249.03747 
L 713.867194 244.256443 
L 714.294071 243.061186 
L 714.720949 241.201897 
L 715.147826 242.662767 
L 715.574704 250.365534 
L 716.855336 325.2683 
L 717.282213 334.431937 
L 717.709091 347.978182 
L 718.135968 346.384506 
L 718.562846 337.884901 
L 719.416601 301.761581 
L 719.843478 283.035889 
L 720.697233 274.536285 
L 721.124111 279.582925 
L 721.550988 279.0517 
L 721.977866 278.786087 
L 722.831621 274.270672 
L 723.258498 275.731542 
L 723.685375 280.512569 
L 724.112253 270.153676 
L 724.53913 265.903874 
L 724.966008 268.294387 
L 725.392885 269.755257 
L 725.819763 267.630356 
L 727.100395 321.815336 
L 727.95415 341.869091 
L 728.381028 347.31415 
L 729.234783 330.182134 
L 729.66166 302.558419 
L 730.088538 294.59004 
L 730.515415 281.57502 
L 730.942292 276.395573 
L 731.36917 290.340237 
L 731.796047 296.582134 
L 732.222925 275.333123 
L 732.649802 280.379763 
L 733.07668 267.231937 
L 733.503557 259.927589 
L 733.930435 249.967115 
L 734.357312 248.771858 
L 734.78419 246.646957 
L 735.211067 240.936285 
L 735.637945 237.881739 
L 736.064822 256.076206 
L 737.345455 332.572648 
L 738.199209 344.126798 
L 738.626087 344.259605 
L 739.052964 334.697549 
L 739.479842 305.612964 
L 739.906719 286.887273 
L 740.760474 260.458814 
L 741.187352 265.771067 
L 741.614229 248.771858 
L 742.041107 242.928379 
L 742.467984 243.061186 
L 742.894862 244.123636 
L 743.321739 243.858024 
L 743.748617 219.288854 
L 744.175494 234.96 
L 744.602372 213.046957 
L 745.029249 202.82087 
L 745.456126 189.80585 
L 745.883004 210.258024 
L 746.309881 243.592411 
L 746.736759 287.152885 
L 747.163636 303.62087 
L 747.163636 303.62087 
" style="fill:none;stroke:#1f77b4;stroke-linecap:square;stroke-width:1.5;"/>
   </g>
   <g id="line2d_15">
    <path clip-path="url(#p5cf8f15f3c)" d="M 744.602372 384.48 
L 744.602372 51.84 
" style="fill:none;stroke:#808080;stroke-linecap:square;"/>
   </g>
   <g id="patch_85">
    <path d="M 108 384.48 
L 108 51.84 
" style="fill:none;stroke:#000000;stroke-linecap:square;stroke-linejoin:miter;stroke-width:0.8;"/>
   </g>
   <g id="patch_86">
    <path d="M 777.6 384.48 
L 777.6 51.84 
" style="fill:none;stroke:#000000;stroke-linecap:square;stroke-linejoin:miter;stroke-width:0.8;"/>
   </g>
   <g id="patch_87">
    <path d="M 108 384.48 
L 777.6 384.48 
" style="fill:none;stroke:#000000;stroke-linecap:square;stroke-linejoin:miter;stroke-width:0.8;"/>
   </g>
   <g id="patch_88">
    <path d="M 108 51.84 
L 777.6 51.84 
" style="fill:none;stroke:#000000;stroke-linecap:square;stroke-linejoin:miter;stroke-width:0.8;"/>
   </g>
   <g id="text_16">
    <!-- real_27.csv -->
    <defs>
     <path d="M 41.109375 46.296875 
Q 39.59375 47.171875 37.8125 47.578125 
Q 36.03125 48 33.890625 48 
Q 26.265625 48 22.1875 43.046875 
Q 18.109375 38.09375 18.109375 28.8125 
L 18.109375 0 
L 9.078125 0 
L 9.078125 54.6875 
L 18.109375 54.6875 
L 18.109375 46.1875 
Q 20.953125 51.171875 25.484375 53.578125 
Q 30.03125 56 36.53125 56 
Q 37.453125 56 38.578125 55.875 
Q 39.703125 55.765625 41.0625 55.515625 
z
" id="DejaVuSans-114"/>
     <path d="M 50.984375 -16.609375 
L 50.984375 -23.578125 
L -0.984375 -23.578125 
L -0.984375 -16.609375 
z
" id="DejaVuSans-95"/>
     <path d="M 8.203125 72.90625 
L 55.078125 72.90625 
L 55.078125 68.703125 
L 28.609375 0 
L 18.3125 0 
L 43.21875 64.59375 
L 8.203125 64.59375 
z
" id="DejaVuSans-55"/>
     <path d="M 10.6875 12.40625 
L 21 12.40625 
L 21 0 
L 10.6875 0 
z
" id="DejaVuSans-46"/>
     <path d="M 48.78125 52.59375 
L 48.78125 44.1875 
Q 44.96875 46.296875 41.140625 47.34375 
Q 37.3125 48.390625 33.40625 48.390625 
Q 24.65625 48.390625 19.8125 42.84375 
Q 14.984375 37.3125 14.984375 27.296875 
Q 14.984375 17.28125 19.8125 11.734375 
Q 24.65625 6.203125 33.40625 6.203125 
Q 37.3125 6.203125 41.140625 7.25 
Q 44.96875 8.296875 48.78125 10.40625 
L 48.78125 2.09375 
Q 45.015625 0.34375 40.984375 -0.53125 
Q 36.96875 -1.421875 32.421875 -1.421875 
Q 20.0625 -1.421875 12.78125 6.34375 
Q 5.515625 14.109375 5.515625 27.296875 
Q 5.515625 40.671875 12.859375 48.328125 
Q 20.21875 56 33.015625 56 
Q 37.15625 56 41.109375 55.140625 
Q 45.0625 54.296875 48.78125 52.59375 
z
" id="DejaVuSans-99"/>
     <path d="M 2.984375 54.6875 
L 12.5 54.6875 
L 29.59375 8.796875 
L 46.6875 54.6875 
L 56.203125 54.6875 
L 35.6875 0 
L 23.484375 0 
z
" id="DejaVuSans-118"/>
    </defs>
    <g transform="translate(408.781875 45.84)scale(0.12 -0.12)">
     <use xlink:href="#DejaVuSans-114"/>
     <use x="41.082031" xlink:href="#DejaVuSans-101"/>
     <use x="102.605469" xlink:href="#DejaVuSans-97"/>
     <use x="163.884766" xlink:href="#DejaVuSans-108"/>
     <use x="191.667969" xlink:href="#DejaVuSans-95"/>
     <use x="241.667969" xlink:href="#DejaVuSans-50"/>
     <use x="305.291016" xlink:href="#DejaVuSans-55"/>
     <use x="368.914062" xlink:href="#DejaVuSans-46"/>
     <use x="400.701172" xlink:href="#DejaVuSans-99"/>
     <use x="455.681641" xlink:href="#DejaVuSans-115"/>
     <use x="507.78125" xlink:href="#DejaVuSans-118"/>
    </g>
   </g>
   <g id="legend_1">
    <g id="patch_89">
     <path d="M 711.284375 74.518125 
L 770.6 74.518125 
Q 772.6 74.518125 772.6 72.518125 
L 772.6 58.84 
Q 772.6 56.84 770.6 56.84 
L 711.284375 56.84 
Q 709.284375 56.84 709.284375 58.84 
L 709.284375 72.518125 
Q 709.284375 74.518125 711.284375 74.518125 
z
" style="fill:#ffffff;opacity:0.8;stroke:#cccccc;stroke-linejoin:miter;"/>
    </g>
    <g id="line2d_16">
     <path d="M 713.284375 64.938438 
L 733.284375 64.938438 
" style="fill:none;stroke:#1f77b4;stroke-linecap:square;stroke-width:1.5;"/>
    </g>
    <g id="line2d_17"/>
    <g id="text_17">
     <!-- value -->
     <g transform="translate(741.284375 68.438438)scale(0.1 -0.1)">
      <use xlink:href="#DejaVuSans-118"/>
      <use x="59.179688" xlink:href="#DejaVuSans-97"/>
      <use x="120.458984" xlink:href="#DejaVuSans-108"/>
      <use x="148.242188" xlink:href="#DejaVuSans-117"/>
      <use x="211.621094" xlink:href="#DejaVuSans-101"/>
     </g>
    </g>
   </g>
  </g>
 </g>
 <defs>
  <clipPath id="p5cf8f15f3c">
   <rect height="332.64" width="669.6" x="108" y="51.84"/>
  </clipPath>
 </defs>
</svg>
