<?xml version="1.0" encoding="utf-8" standalone="no"?>
<!DOCTYPE svg PUBLIC "-//W3C//DTD SVG 1.1//EN"
  "http://www.w3.org/Graphics/SVG/1.1/DTD/svg11.dtd">
<!-- Created with matplotlib (https://matplotlib.org/) -->
<svg height="432pt" version="1.1" viewBox="0 0 864 432" width="864pt" xmlns="http://www.w3.org/2000/svg" xmlns:xlink="http://www.w3.org/1999/xlink">
 <defs>
  <style type="text/css">
*{stroke-linecap:butt;stroke-linejoin:round;}
  </style>
 </defs>
 <g id="figure_1">
  <g id="patch_1">
   <path d="M 0 432 
L 864 432 
L 864 0 
L 0 0 
z
" style="fill:#ffffff;"/>
  </g>
  <g id="axes_1">
   <g id="patch_2">
    <path d="M 108 384.48 
L 777.6 384.48 
L 777.6 51.84 
L 108 51.84 
z
" style="fill:#ffffff;"/>
   </g>
   <g id="patch_3">
    <path clip-path="url(#p3aa54a5f38)" d="M 138.436364 384.48 
L 138.436364 51.84 
L 317.098456 51.84 
L 317.098456 384.48 
z
" style="fill:#0000ff;opacity:0.05;"/>
   </g>
   <g id="patch_4">
    <path clip-path="url(#p3aa54a5f38)" d="M 317.098456 384.48 
L 317.098456 51.84 
L 746.73825 51.84 
L 746.73825 384.48 
z
" style="fill:#ff0000;opacity:0.08;"/>
   </g>
   <g id="patch_5">
    <path clip-path="url(#p3aa54a5f38)" d="M 138.436364 384.48 
L 138.436364 51.84 
L 142.690223 51.84 
L 142.690223 384.48 
z
" style="fill:#008000;opacity:0.04;"/>
   </g>
   <g id="patch_6">
    <path clip-path="url(#p3aa54a5f38)" d="M 138.436364 384.48 
L 138.436364 371.1744 
L 142.690223 371.1744 
L 142.690223 384.48 
z
" style="fill:#ffe500;"/>
   </g>
   <g id="patch_7">
    <path clip-path="url(#p3aa54a5f38)" d="M 146.944082 384.48 
L 146.944082 51.84 
L 151.197942 51.84 
L 151.197942 384.48 
z
" style="fill:#008000;opacity:0.04;"/>
   </g>
   <g id="patch_8">
    <path clip-path="url(#p3aa54a5f38)" d="M 151.197942 384.48 
L 151.197942 371.1744 
L 155.451801 371.1744 
L 155.451801 384.48 
z
" style="fill:#ffe500;"/>
   </g>
   <g id="patch_9">
    <path clip-path="url(#p3aa54a5f38)" d="M 155.451801 384.48 
L 155.451801 51.84 
L 159.70566 51.84 
L 159.70566 384.48 
z
" style="fill:#008000;opacity:0.04;"/>
   </g>
   <g id="patch_10">
    <path clip-path="url(#p3aa54a5f38)" d="M 163.95952 384.48 
L 163.95952 51.84 
L 168.213379 51.84 
L 168.213379 384.48 
z
" style="fill:#008000;opacity:0.04;"/>
   </g>
   <g id="patch_11">
    <path clip-path="url(#p3aa54a5f38)" d="M 172.467238 384.48 
L 172.467238 51.84 
L 176.721098 51.84 
L 176.721098 384.48 
z
" style="fill:#008000;opacity:0.04;"/>
   </g>
   <g id="patch_12">
    <path clip-path="url(#p3aa54a5f38)" d="M 172.467238 384.48 
L 172.467238 371.1744 
L 176.721098 371.1744 
L 176.721098 384.48 
z
" style="fill:#ffe500;"/>
   </g>
   <g id="patch_13">
    <path clip-path="url(#p3aa54a5f38)" d="M 180.974957 384.48 
L 180.974957 51.84 
L 185.228816 51.84 
L 185.228816 384.48 
z
" style="fill:#008000;opacity:0.04;"/>
   </g>
   <g id="patch_14">
    <path clip-path="url(#p3aa54a5f38)" d="M 189.482676 384.48 
L 189.482676 51.84 
L 193.736535 51.84 
L 193.736535 384.48 
z
" style="fill:#008000;opacity:0.04;"/>
   </g>
   <g id="patch_15">
    <path clip-path="url(#p3aa54a5f38)" d="M 197.990395 384.48 
L 197.990395 51.84 
L 202.244254 51.84 
L 202.244254 384.48 
z
" style="fill:#008000;opacity:0.04;"/>
   </g>
   <g id="patch_16">
    <path clip-path="url(#p3aa54a5f38)" d="M 206.498113 384.48 
L 206.498113 51.84 
L 210.751973 51.84 
L 210.751973 384.48 
z
" style="fill:#008000;opacity:0.04;"/>
   </g>
   <g id="patch_17">
    <path clip-path="url(#p3aa54a5f38)" d="M 215.005832 384.48 
L 215.005832 51.84 
L 219.259691 51.84 
L 219.259691 384.48 
z
" style="fill:#008000;opacity:0.04;"/>
   </g>
   <g id="patch_18">
    <path clip-path="url(#p3aa54a5f38)" d="M 223.513551 384.48 
L 223.513551 51.84 
L 227.76741 51.84 
L 227.76741 384.48 
z
" style="fill:#008000;opacity:0.04;"/>
   </g>
   <g id="patch_19">
    <path clip-path="url(#p3aa54a5f38)" d="M 232.021269 384.48 
L 232.021269 51.84 
L 236.275129 51.84 
L 236.275129 384.48 
z
" style="fill:#008000;opacity:0.04;"/>
   </g>
   <g id="patch_20">
    <path clip-path="url(#p3aa54a5f38)" d="M 240.528988 384.48 
L 240.528988 51.84 
L 244.782847 51.84 
L 244.782847 384.48 
z
" style="fill:#008000;opacity:0.04;"/>
   </g>
   <g id="patch_21">
    <path clip-path="url(#p3aa54a5f38)" d="M 249.036707 384.48 
L 249.036707 51.84 
L 253.290566 51.84 
L 253.290566 384.48 
z
" style="fill:#008000;opacity:0.04;"/>
   </g>
   <g id="patch_22">
    <path clip-path="url(#p3aa54a5f38)" d="M 257.544425 384.48 
L 257.544425 51.84 
L 261.798285 51.84 
L 261.798285 384.48 
z
" style="fill:#008000;opacity:0.04;"/>
   </g>
   <g id="patch_23">
    <path clip-path="url(#p3aa54a5f38)" d="M 266.052144 384.48 
L 266.052144 51.84 
L 270.306003 51.84 
L 270.306003 384.48 
z
" style="fill:#008000;opacity:0.04;"/>
   </g>
   <g id="patch_24">
    <path clip-path="url(#p3aa54a5f38)" d="M 274.559863 384.48 
L 274.559863 51.84 
L 278.813722 51.84 
L 278.813722 384.48 
z
" style="fill:#008000;opacity:0.04;"/>
   </g>
   <g id="patch_25">
    <path clip-path="url(#p3aa54a5f38)" d="M 283.067581 384.48 
L 283.067581 51.84 
L 287.321441 51.84 
L 287.321441 384.48 
z
" style="fill:#008000;opacity:0.04;"/>
   </g>
   <g id="patch_26">
    <path clip-path="url(#p3aa54a5f38)" d="M 287.321441 371.1744 
L 287.321441 51.84 
L 291.5753 51.84 
L 291.5753 371.1744 
z
" style="fill:#008000;opacity:0.5;"/>
   </g>
   <g id="patch_27">
    <path clip-path="url(#p3aa54a5f38)" d="M 287.321441 384.48 
L 287.321441 371.1744 
L 291.5753 371.1744 
L 291.5753 384.48 
z
" style="fill:#ffe500;"/>
   </g>
   <g id="patch_28">
    <path clip-path="url(#p3aa54a5f38)" d="M 465.983533 384.48 
L 465.983533 371.1744 
L 470.237393 371.1744 
L 470.237393 384.48 
z
" style="fill:#ff6600;"/>
   </g>
   <g id="patch_29">
    <path clip-path="url(#p3aa54a5f38)" d="M 291.5753 384.48 
L 291.5753 51.84 
L 295.82916 51.84 
L 295.82916 384.48 
z
" style="fill:#008000;opacity:0.04;"/>
   </g>
   <g id="patch_30">
    <path clip-path="url(#p3aa54a5f38)" d="M 300.083019 384.48 
L 300.083019 51.84 
L 304.336878 51.84 
L 304.336878 384.48 
z
" style="fill:#008000;opacity:0.04;"/>
   </g>
   <g id="patch_31">
    <path clip-path="url(#p3aa54a5f38)" d="M 308.590738 384.48 
L 308.590738 51.84 
L 312.844597 51.84 
L 312.844597 384.48 
z
" style="fill:#008000;opacity:0.04;"/>
   </g>
   <g id="patch_32">
    <path clip-path="url(#p3aa54a5f38)" d="M 317.098456 384.48 
L 317.098456 51.84 
L 321.352316 51.84 
L 321.352316 384.48 
z
" style="fill:#008000;opacity:0.04;"/>
   </g>
   <g id="patch_33">
    <path clip-path="url(#p3aa54a5f38)" d="M 325.606175 384.48 
L 325.606175 51.84 
L 329.860034 51.84 
L 329.860034 384.48 
z
" style="fill:#008000;opacity:0.04;"/>
   </g>
   <g id="patch_34">
    <path clip-path="url(#p3aa54a5f38)" d="M 334.113894 384.48 
L 334.113894 51.84 
L 338.367753 51.84 
L 338.367753 384.48 
z
" style="fill:#008000;opacity:0.04;"/>
   </g>
   <g id="patch_35">
    <path clip-path="url(#p3aa54a5f38)" d="M 342.621612 384.48 
L 342.621612 51.84 
L 346.875472 51.84 
L 346.875472 384.48 
z
" style="fill:#008000;opacity:0.04;"/>
   </g>
   <g id="patch_36">
    <path clip-path="url(#p3aa54a5f38)" d="M 351.129331 384.48 
L 351.129331 51.84 
L 355.38319 51.84 
L 355.38319 384.48 
z
" style="fill:#008000;opacity:0.04;"/>
   </g>
   <g id="patch_37">
    <path clip-path="url(#p3aa54a5f38)" d="M 359.63705 384.48 
L 359.63705 51.84 
L 363.890909 51.84 
L 363.890909 384.48 
z
" style="fill:#008000;opacity:0.04;"/>
   </g>
   <g id="patch_38">
    <path clip-path="url(#p3aa54a5f38)" d="M 368.144768 384.48 
L 368.144768 51.84 
L 372.398628 51.84 
L 372.398628 384.48 
z
" style="fill:#008000;opacity:0.04;"/>
   </g>
   <g id="patch_39">
    <path clip-path="url(#p3aa54a5f38)" d="M 376.652487 384.48 
L 376.652487 51.84 
L 380.906346 51.84 
L 380.906346 384.48 
z
" style="fill:#008000;opacity:0.04;"/>
   </g>
   <g id="patch_40">
    <path clip-path="url(#p3aa54a5f38)" d="M 385.160206 384.48 
L 385.160206 51.84 
L 389.414065 51.84 
L 389.414065 384.48 
z
" style="fill:#008000;opacity:0.04;"/>
   </g>
   <g id="patch_41">
    <path clip-path="url(#p3aa54a5f38)" d="M 393.667925 384.48 
L 393.667925 51.84 
L 397.921784 51.84 
L 397.921784 384.48 
z
" style="fill:#008000;opacity:0.04;"/>
   </g>
   <g id="patch_42">
    <path clip-path="url(#p3aa54a5f38)" d="M 402.175643 384.48 
L 402.175643 51.84 
L 406.429503 51.84 
L 406.429503 384.48 
z
" style="fill:#008000;opacity:0.04;"/>
   </g>
   <g id="patch_43">
    <path clip-path="url(#p3aa54a5f38)" d="M 410.683362 384.48 
L 410.683362 51.84 
L 414.937221 51.84 
L 414.937221 384.48 
z
" style="fill:#008000;opacity:0.04;"/>
   </g>
   <g id="patch_44">
    <path clip-path="url(#p3aa54a5f38)" d="M 589.345455 384.48 
L 589.345455 371.1744 
L 593.599314 371.1744 
L 593.599314 384.48 
z
" style="fill:#ff6600;"/>
   </g>
   <g id="patch_45">
    <path clip-path="url(#p3aa54a5f38)" d="M 419.191081 384.48 
L 419.191081 51.84 
L 423.44494 51.84 
L 423.44494 384.48 
z
" style="fill:#008000;opacity:0.04;"/>
   </g>
   <g id="patch_46">
    <path clip-path="url(#p3aa54a5f38)" d="M 427.698799 384.48 
L 427.698799 51.84 
L 431.952659 51.84 
L 431.952659 384.48 
z
" style="fill:#008000;opacity:0.04;"/>
   </g>
   <g id="patch_47">
    <path clip-path="url(#p3aa54a5f38)" d="M 436.206518 384.48 
L 436.206518 51.84 
L 440.460377 51.84 
L 440.460377 384.48 
z
" style="fill:#008000;opacity:0.04;"/>
   </g>
   <g id="patch_48">
    <path clip-path="url(#p3aa54a5f38)" d="M 444.714237 384.48 
L 444.714237 51.84 
L 448.968096 51.84 
L 448.968096 384.48 
z
" style="fill:#008000;opacity:0.04;"/>
   </g>
   <g id="patch_49">
    <path clip-path="url(#p3aa54a5f38)" d="M 453.221955 384.48 
L 453.221955 51.84 
L 457.475815 51.84 
L 457.475815 384.48 
z
" style="fill:#008000;opacity:0.04;"/>
   </g>
   <g id="patch_50">
    <path clip-path="url(#p3aa54a5f38)" d="M 461.729674 384.48 
L 461.729674 51.84 
L 465.983533 51.84 
L 465.983533 384.48 
z
" style="fill:#008000;opacity:0.04;"/>
   </g>
   <g id="patch_51">
    <path clip-path="url(#p3aa54a5f38)" d="M 465.983533 371.1744 
L 465.983533 51.84 
L 470.237393 51.84 
L 470.237393 371.1744 
z
" style="fill:#008000;opacity:0.5;"/>
   </g>
   <g id="patch_52">
    <path clip-path="url(#p3aa54a5f38)" d="M 470.237393 384.48 
L 470.237393 51.84 
L 474.491252 51.84 
L 474.491252 384.48 
z
" style="fill:#008000;opacity:0.04;"/>
   </g>
   <g id="patch_53">
    <path clip-path="url(#p3aa54a5f38)" d="M 478.745111 384.48 
L 478.745111 51.84 
L 482.998971 51.84 
L 482.998971 384.48 
z
" style="fill:#008000;opacity:0.04;"/>
   </g>
   <g id="patch_54">
    <path clip-path="url(#p3aa54a5f38)" d="M 487.25283 384.48 
L 487.25283 51.84 
L 491.50669 51.84 
L 491.50669 384.48 
z
" style="fill:#008000;opacity:0.04;"/>
   </g>
   <g id="patch_55">
    <path clip-path="url(#p3aa54a5f38)" d="M 665.914923 384.48 
L 665.914923 371.1744 
L 670.168782 371.1744 
L 670.168782 384.48 
z
" style="fill:#ff6600;"/>
   </g>
   <g id="patch_56">
    <path clip-path="url(#p3aa54a5f38)" d="M 495.760549 384.48 
L 495.760549 51.84 
L 500.014408 51.84 
L 500.014408 384.48 
z
" style="fill:#008000;opacity:0.04;"/>
   </g>
   <g id="patch_57">
    <path clip-path="url(#p3aa54a5f38)" d="M 504.268268 384.48 
L 504.268268 51.84 
L 508.522127 51.84 
L 508.522127 384.48 
z
" style="fill:#008000;opacity:0.04;"/>
   </g>
   <g id="patch_58">
    <path clip-path="url(#p3aa54a5f38)" d="M 512.775986 384.48 
L 512.775986 51.84 
L 517.029846 51.84 
L 517.029846 384.48 
z
" style="fill:#008000;opacity:0.04;"/>
   </g>
   <g id="patch_59">
    <path clip-path="url(#p3aa54a5f38)" d="M 521.283705 384.48 
L 521.283705 51.84 
L 525.537564 51.84 
L 525.537564 384.48 
z
" style="fill:#008000;opacity:0.04;"/>
   </g>
   <g id="patch_60">
    <path clip-path="url(#p3aa54a5f38)" d="M 529.791424 384.48 
L 529.791424 51.84 
L 534.045283 51.84 
L 534.045283 384.48 
z
" style="fill:#008000;opacity:0.04;"/>
   </g>
   <g id="patch_61">
    <path clip-path="url(#p3aa54a5f38)" d="M 538.299142 384.48 
L 538.299142 51.84 
L 542.553002 51.84 
L 542.553002 384.48 
z
" style="fill:#008000;opacity:0.04;"/>
   </g>
   <g id="patch_62">
    <path clip-path="url(#p3aa54a5f38)" d="M 546.806861 384.48 
L 546.806861 51.84 
L 551.06072 51.84 
L 551.06072 384.48 
z
" style="fill:#008000;opacity:0.04;"/>
   </g>
   <g id="patch_63">
    <path clip-path="url(#p3aa54a5f38)" d="M 555.31458 384.48 
L 555.31458 51.84 
L 559.568439 51.84 
L 559.568439 384.48 
z
" style="fill:#008000;opacity:0.04;"/>
   </g>
   <g id="patch_64">
    <path clip-path="url(#p3aa54a5f38)" d="M 563.822298 384.48 
L 563.822298 51.84 
L 568.076158 51.84 
L 568.076158 384.48 
z
" style="fill:#008000;opacity:0.04;"/>
   </g>
   <g id="patch_65">
    <path clip-path="url(#p3aa54a5f38)" d="M 572.330017 384.48 
L 572.330017 51.84 
L 576.583877 51.84 
L 576.583877 384.48 
z
" style="fill:#008000;opacity:0.04;"/>
   </g>
   <g id="patch_66">
    <path clip-path="url(#p3aa54a5f38)" d="M 580.837736 384.48 
L 580.837736 51.84 
L 585.091595 51.84 
L 585.091595 384.48 
z
" style="fill:#008000;opacity:0.04;"/>
   </g>
   <g id="patch_67">
    <path clip-path="url(#p3aa54a5f38)" d="M 589.345455 384.48 
L 589.345455 51.84 
L 593.599314 51.84 
L 593.599314 384.48 
z
" style="fill:#008000;opacity:0.04;"/>
   </g>
   <g id="patch_68">
    <path clip-path="url(#p3aa54a5f38)" d="M 589.345455 371.1744 
L 589.345455 51.84 
L 593.599314 51.84 
L 593.599314 371.1744 
z
" style="fill:#008000;opacity:0.5;"/>
   </g>
   <g id="patch_69">
    <path clip-path="url(#p3aa54a5f38)" d="M 597.853173 384.48 
L 597.853173 51.84 
L 602.107033 51.84 
L 602.107033 384.48 
z
" style="fill:#008000;opacity:0.04;"/>
   </g>
   <g id="patch_70">
    <path clip-path="url(#p3aa54a5f38)" d="M 606.360892 384.48 
L 606.360892 51.84 
L 610.614751 51.84 
L 610.614751 384.48 
z
" style="fill:#008000;opacity:0.04;"/>
   </g>
   <g id="patch_71">
    <path clip-path="url(#p3aa54a5f38)" d="M 614.868611 384.48 
L 614.868611 51.84 
L 619.12247 51.84 
L 619.12247 384.48 
z
" style="fill:#008000;opacity:0.04;"/>
   </g>
   <g id="patch_72">
    <path clip-path="url(#p3aa54a5f38)" d="M 623.376329 384.48 
L 623.376329 51.84 
L 627.630189 51.84 
L 627.630189 384.48 
z
" style="fill:#008000;opacity:0.04;"/>
   </g>
   <g id="patch_73">
    <path clip-path="url(#p3aa54a5f38)" d="M 631.884048 384.48 
L 631.884048 51.84 
L 636.137907 51.84 
L 636.137907 384.48 
z
" style="fill:#008000;opacity:0.04;"/>
   </g>
   <g id="patch_74">
    <path clip-path="url(#p3aa54a5f38)" d="M 640.391767 384.48 
L 640.391767 51.84 
L 644.645626 51.84 
L 644.645626 384.48 
z
" style="fill:#008000;opacity:0.04;"/>
   </g>
   <g id="patch_75">
    <path clip-path="url(#p3aa54a5f38)" d="M 648.899485 384.48 
L 648.899485 51.84 
L 653.153345 51.84 
L 653.153345 384.48 
z
" style="fill:#008000;opacity:0.04;"/>
   </g>
   <g id="patch_76">
    <path clip-path="url(#p3aa54a5f38)" d="M 657.407204 384.48 
L 657.407204 51.84 
L 661.661063 51.84 
L 661.661063 384.48 
z
" style="fill:#008000;opacity:0.04;"/>
   </g>
   <g id="patch_77">
    <path clip-path="url(#p3aa54a5f38)" d="M 665.914923 384.48 
L 665.914923 51.84 
L 670.168782 51.84 
L 670.168782 384.48 
z
" style="fill:#008000;opacity:0.04;"/>
   </g>
   <g id="patch_78">
    <path clip-path="url(#p3aa54a5f38)" d="M 665.914923 371.1744 
L 665.914923 51.84 
L 670.168782 51.84 
L 670.168782 371.1744 
z
" style="fill:#008000;opacity:0.5;"/>
   </g>
   <g id="patch_79">
    <path clip-path="url(#p3aa54a5f38)" d="M 674.422642 384.48 
L 674.422642 51.84 
L 678.676501 51.84 
L 678.676501 384.48 
z
" style="fill:#008000;opacity:0.04;"/>
   </g>
   <g id="patch_80">
    <path clip-path="url(#p3aa54a5f38)" d="M 682.93036 384.48 
L 682.93036 51.84 
L 687.18422 51.84 
L 687.18422 384.48 
z
" style="fill:#008000;opacity:0.04;"/>
   </g>
   <g id="patch_81">
    <path clip-path="url(#p3aa54a5f38)" d="M 691.438079 384.48 
L 691.438079 51.84 
L 695.691938 51.84 
L 695.691938 384.48 
z
" style="fill:#008000;opacity:0.04;"/>
   </g>
   <g id="patch_82">
    <path clip-path="url(#p3aa54a5f38)" d="M 699.945798 384.48 
L 699.945798 51.84 
L 704.199657 51.84 
L 704.199657 384.48 
z
" style="fill:#008000;opacity:0.04;"/>
   </g>
   <g id="patch_83">
    <path clip-path="url(#p3aa54a5f38)" d="M 708.453516 384.48 
L 708.453516 51.84 
L 712.707376 51.84 
L 712.707376 384.48 
z
" style="fill:#008000;opacity:0.04;"/>
   </g>
   <g id="patch_84">
    <path clip-path="url(#p3aa54a5f38)" d="M 716.961235 384.48 
L 716.961235 51.84 
L 721.215094 51.84 
L 721.215094 384.48 
z
" style="fill:#008000;opacity:0.04;"/>
   </g>
   <g id="patch_85">
    <path clip-path="url(#p3aa54a5f38)" d="M 725.468954 384.48 
L 725.468954 51.84 
L 729.722813 51.84 
L 729.722813 384.48 
z
" style="fill:#008000;opacity:0.04;"/>
   </g>
   <g id="patch_86">
    <path clip-path="url(#p3aa54a5f38)" d="M 733.976672 384.48 
L 733.976672 51.84 
L 738.230532 51.84 
L 738.230532 384.48 
z
" style="fill:#008000;opacity:0.04;"/>
   </g>
   <g id="patch_87">
    <path clip-path="url(#p3aa54a5f38)" d="M 742.484391 384.48 
L 742.484391 51.84 
L 746.73825 51.84 
L 746.73825 384.48 
z
" style="fill:#008000;opacity:0.04;"/>
   </g>
   <g id="matplotlib.axis_1">
    <g id="xtick_1">
     <g id="line2d_1">
      <defs>
       <path d="M 0 0 
L 0 3.5 
" id="m258611d448" style="stroke:#000000;stroke-width:0.8;"/>
      </defs>
      <g>
       <use style="stroke:#000000;stroke-width:0.8;" x="138.436364" xlink:href="#m258611d448" y="384.48"/>
      </g>
     </g>
     <g id="text_1">
      <!-- 0 -->
      <defs>
       <path d="M 31.78125 66.40625 
Q 24.171875 66.40625 20.328125 58.90625 
Q 16.5 51.421875 16.5 36.375 
Q 16.5 21.390625 20.328125 13.890625 
Q 24.171875 6.390625 31.78125 6.390625 
Q 39.453125 6.390625 43.28125 13.890625 
Q 47.125 21.390625 47.125 36.375 
Q 47.125 51.421875 43.28125 58.90625 
Q 39.453125 66.40625 31.78125 66.40625 
z
M 31.78125 74.21875 
Q 44.046875 74.21875 50.515625 64.515625 
Q 56.984375 54.828125 56.984375 36.375 
Q 56.984375 17.96875 50.515625 8.265625 
Q 44.046875 -1.421875 31.78125 -1.421875 
Q 19.53125 -1.421875 13.0625 8.265625 
Q 6.59375 17.96875 6.59375 36.375 
Q 6.59375 54.828125 13.0625 64.515625 
Q 19.53125 74.21875 31.78125 74.21875 
z
" id="DejaVuSans-48"/>
      </defs>
      <g transform="translate(135.255114 399.078438)scale(0.1 -0.1)">
       <use xlink:href="#DejaVuSans-48"/>
      </g>
     </g>
    </g>
    <g id="xtick_2">
     <g id="line2d_2">
      <g>
       <use style="stroke:#000000;stroke-width:0.8;" x="223.513551" xlink:href="#m258611d448" y="384.48"/>
      </g>
     </g>
     <g id="text_2">
      <!-- 200 -->
      <defs>
       <path d="M 19.1875 8.296875 
L 53.609375 8.296875 
L 53.609375 0 
L 7.328125 0 
L 7.328125 8.296875 
Q 12.9375 14.109375 22.625 23.890625 
Q 32.328125 33.6875 34.8125 36.53125 
Q 39.546875 41.84375 41.421875 45.53125 
Q 43.3125 49.21875 43.3125 52.78125 
Q 43.3125 58.59375 39.234375 62.25 
Q 35.15625 65.921875 28.609375 65.921875 
Q 23.96875 65.921875 18.8125 64.3125 
Q 13.671875 62.703125 7.8125 59.421875 
L 7.8125 69.390625 
Q 13.765625 71.78125 18.9375 73 
Q 24.125 74.21875 28.421875 74.21875 
Q 39.75 74.21875 46.484375 68.546875 
Q 53.21875 62.890625 53.21875 53.421875 
Q 53.21875 48.921875 51.53125 44.890625 
Q 49.859375 40.875 45.40625 35.40625 
Q 44.1875 33.984375 37.640625 27.21875 
Q 31.109375 20.453125 19.1875 8.296875 
z
" id="DejaVuSans-50"/>
      </defs>
      <g transform="translate(213.969801 399.078438)scale(0.1 -0.1)">
       <use xlink:href="#DejaVuSans-50"/>
       <use x="63.623047" xlink:href="#DejaVuSans-48"/>
       <use x="127.246094" xlink:href="#DejaVuSans-48"/>
      </g>
     </g>
    </g>
    <g id="xtick_3">
     <g id="line2d_3">
      <g>
       <use style="stroke:#000000;stroke-width:0.8;" x="308.590738" xlink:href="#m258611d448" y="384.48"/>
      </g>
     </g>
     <g id="text_3">
      <!-- 400 -->
      <defs>
       <path d="M 37.796875 64.3125 
L 12.890625 25.390625 
L 37.796875 25.390625 
z
M 35.203125 72.90625 
L 47.609375 72.90625 
L 47.609375 25.390625 
L 58.015625 25.390625 
L 58.015625 17.1875 
L 47.609375 17.1875 
L 47.609375 0 
L 37.796875 0 
L 37.796875 17.1875 
L 4.890625 17.1875 
L 4.890625 26.703125 
z
" id="DejaVuSans-52"/>
      </defs>
      <g transform="translate(299.046988 399.078438)scale(0.1 -0.1)">
       <use xlink:href="#DejaVuSans-52"/>
       <use x="63.623047" xlink:href="#DejaVuSans-48"/>
       <use x="127.246094" xlink:href="#DejaVuSans-48"/>
      </g>
     </g>
    </g>
    <g id="xtick_4">
     <g id="line2d_4">
      <g>
       <use style="stroke:#000000;stroke-width:0.8;" x="393.667925" xlink:href="#m258611d448" y="384.48"/>
      </g>
     </g>
     <g id="text_4">
      <!-- 600 -->
      <defs>
       <path d="M 33.015625 40.375 
Q 26.375 40.375 22.484375 35.828125 
Q 18.609375 31.296875 18.609375 23.390625 
Q 18.609375 15.53125 22.484375 10.953125 
Q 26.375 6.390625 33.015625 6.390625 
Q 39.65625 6.390625 43.53125 10.953125 
Q 47.40625 15.53125 47.40625 23.390625 
Q 47.40625 31.296875 43.53125 35.828125 
Q 39.65625 40.375 33.015625 40.375 
z
M 52.59375 71.296875 
L 52.59375 62.3125 
Q 48.875 64.0625 45.09375 64.984375 
Q 41.3125 65.921875 37.59375 65.921875 
Q 27.828125 65.921875 22.671875 59.328125 
Q 17.53125 52.734375 16.796875 39.40625 
Q 19.671875 43.65625 24.015625 45.921875 
Q 28.375 48.1875 33.59375 48.1875 
Q 44.578125 48.1875 50.953125 41.515625 
Q 57.328125 34.859375 57.328125 23.390625 
Q 57.328125 12.15625 50.6875 5.359375 
Q 44.046875 -1.421875 33.015625 -1.421875 
Q 20.359375 -1.421875 13.671875 8.265625 
Q 6.984375 17.96875 6.984375 36.375 
Q 6.984375 53.65625 15.1875 63.9375 
Q 23.390625 74.21875 37.203125 74.21875 
Q 40.921875 74.21875 44.703125 73.484375 
Q 48.484375 72.75 52.59375 71.296875 
z
" id="DejaVuSans-54"/>
      </defs>
      <g transform="translate(384.124175 399.078438)scale(0.1 -0.1)">
       <use xlink:href="#DejaVuSans-54"/>
       <use x="63.623047" xlink:href="#DejaVuSans-48"/>
       <use x="127.246094" xlink:href="#DejaVuSans-48"/>
      </g>
     </g>
    </g>
    <g id="xtick_5">
     <g id="line2d_5">
      <g>
       <use style="stroke:#000000;stroke-width:0.8;" x="478.745111" xlink:href="#m258611d448" y="384.48"/>
      </g>
     </g>
     <g id="text_5">
      <!-- 800 -->
      <defs>
       <path d="M 31.78125 34.625 
Q 24.75 34.625 20.71875 30.859375 
Q 16.703125 27.09375 16.703125 20.515625 
Q 16.703125 13.921875 20.71875 10.15625 
Q 24.75 6.390625 31.78125 6.390625 
Q 38.8125 6.390625 42.859375 10.171875 
Q 46.921875 13.96875 46.921875 20.515625 
Q 46.921875 27.09375 42.890625 30.859375 
Q 38.875 34.625 31.78125 34.625 
z
M 21.921875 38.8125 
Q 15.578125 40.375 12.03125 44.71875 
Q 8.5 49.078125 8.5 55.328125 
Q 8.5 64.0625 14.71875 69.140625 
Q 20.953125 74.21875 31.78125 74.21875 
Q 42.671875 74.21875 48.875 69.140625 
Q 55.078125 64.0625 55.078125 55.328125 
Q 55.078125 49.078125 51.53125 44.71875 
Q 48 40.375 41.703125 38.8125 
Q 48.828125 37.15625 52.796875 32.3125 
Q 56.78125 27.484375 56.78125 20.515625 
Q 56.78125 9.90625 50.3125 4.234375 
Q 43.84375 -1.421875 31.78125 -1.421875 
Q 19.734375 -1.421875 13.25 4.234375 
Q 6.78125 9.90625 6.78125 20.515625 
Q 6.78125 27.484375 10.78125 32.3125 
Q 14.796875 37.15625 21.921875 38.8125 
z
M 18.3125 54.390625 
Q 18.3125 48.734375 21.84375 45.5625 
Q 25.390625 42.390625 31.78125 42.390625 
Q 38.140625 42.390625 41.71875 45.5625 
Q 45.3125 48.734375 45.3125 54.390625 
Q 45.3125 60.0625 41.71875 63.234375 
Q 38.140625 66.40625 31.78125 66.40625 
Q 25.390625 66.40625 21.84375 63.234375 
Q 18.3125 60.0625 18.3125 54.390625 
z
" id="DejaVuSans-56"/>
      </defs>
      <g transform="translate(469.201361 399.078438)scale(0.1 -0.1)">
       <use xlink:href="#DejaVuSans-56"/>
       <use x="63.623047" xlink:href="#DejaVuSans-48"/>
       <use x="127.246094" xlink:href="#DejaVuSans-48"/>
      </g>
     </g>
    </g>
    <g id="xtick_6">
     <g id="line2d_6">
      <g>
       <use style="stroke:#000000;stroke-width:0.8;" x="563.822298" xlink:href="#m258611d448" y="384.48"/>
      </g>
     </g>
     <g id="text_6">
      <!-- 1000 -->
      <defs>
       <path d="M 12.40625 8.296875 
L 28.515625 8.296875 
L 28.515625 63.921875 
L 10.984375 60.40625 
L 10.984375 69.390625 
L 28.421875 72.90625 
L 38.28125 72.90625 
L 38.28125 8.296875 
L 54.390625 8.296875 
L 54.390625 0 
L 12.40625 0 
z
" id="DejaVuSans-49"/>
      </defs>
      <g transform="translate(551.097298 399.078438)scale(0.1 -0.1)">
       <use xlink:href="#DejaVuSans-49"/>
       <use x="63.623047" xlink:href="#DejaVuSans-48"/>
       <use x="127.246094" xlink:href="#DejaVuSans-48"/>
       <use x="190.869141" xlink:href="#DejaVuSans-48"/>
      </g>
     </g>
    </g>
    <g id="xtick_7">
     <g id="line2d_7">
      <g>
       <use style="stroke:#000000;stroke-width:0.8;" x="648.899485" xlink:href="#m258611d448" y="384.48"/>
      </g>
     </g>
     <g id="text_7">
      <!-- 1200 -->
      <g transform="translate(636.174485 399.078438)scale(0.1 -0.1)">
       <use xlink:href="#DejaVuSans-49"/>
       <use x="63.623047" xlink:href="#DejaVuSans-50"/>
       <use x="127.246094" xlink:href="#DejaVuSans-48"/>
       <use x="190.869141" xlink:href="#DejaVuSans-48"/>
      </g>
     </g>
    </g>
    <g id="xtick_8">
     <g id="line2d_8">
      <g>
       <use style="stroke:#000000;stroke-width:0.8;" x="733.976672" xlink:href="#m258611d448" y="384.48"/>
      </g>
     </g>
     <g id="text_8">
      <!-- 1400 -->
      <g transform="translate(721.251672 399.078438)scale(0.1 -0.1)">
       <use xlink:href="#DejaVuSans-49"/>
       <use x="63.623047" xlink:href="#DejaVuSans-52"/>
       <use x="127.246094" xlink:href="#DejaVuSans-48"/>
       <use x="190.869141" xlink:href="#DejaVuSans-48"/>
      </g>
     </g>
    </g>
    <g id="text_9">
     <!-- Timestamp -->
     <defs>
      <path d="M -0.296875 72.90625 
L 61.375 72.90625 
L 61.375 64.59375 
L 35.5 64.59375 
L 35.5 0 
L 25.59375 0 
L 25.59375 64.59375 
L -0.296875 64.59375 
z
" id="DejaVuSans-84"/>
      <path d="M 9.421875 54.6875 
L 18.40625 54.6875 
L 18.40625 0 
L 9.421875 0 
z
M 9.421875 75.984375 
L 18.40625 75.984375 
L 18.40625 64.59375 
L 9.421875 64.59375 
z
" id="DejaVuSans-105"/>
      <path d="M 52 44.1875 
Q 55.375 50.25 60.0625 53.125 
Q 64.75 56 71.09375 56 
Q 79.640625 56 84.28125 50.015625 
Q 88.921875 44.046875 88.921875 33.015625 
L 88.921875 0 
L 79.890625 0 
L 79.890625 32.71875 
Q 79.890625 40.578125 77.09375 44.375 
Q 74.3125 48.1875 68.609375 48.1875 
Q 61.625 48.1875 57.5625 43.546875 
Q 53.515625 38.921875 53.515625 30.90625 
L 53.515625 0 
L 44.484375 0 
L 44.484375 32.71875 
Q 44.484375 40.625 41.703125 44.40625 
Q 38.921875 48.1875 33.109375 48.1875 
Q 26.21875 48.1875 22.15625 43.53125 
Q 18.109375 38.875 18.109375 30.90625 
L 18.109375 0 
L 9.078125 0 
L 9.078125 54.6875 
L 18.109375 54.6875 
L 18.109375 46.1875 
Q 21.1875 51.21875 25.484375 53.609375 
Q 29.78125 56 35.6875 56 
Q 41.65625 56 45.828125 52.96875 
Q 50 49.953125 52 44.1875 
z
" id="DejaVuSans-109"/>
      <path d="M 56.203125 29.59375 
L 56.203125 25.203125 
L 14.890625 25.203125 
Q 15.484375 15.921875 20.484375 11.0625 
Q 25.484375 6.203125 34.421875 6.203125 
Q 39.59375 6.203125 44.453125 7.46875 
Q 49.3125 8.734375 54.109375 11.28125 
L 54.109375 2.78125 
Q 49.265625 0.734375 44.1875 -0.34375 
Q 39.109375 -1.421875 33.890625 -1.421875 
Q 20.796875 -1.421875 13.15625 6.1875 
Q 5.515625 13.8125 5.515625 26.8125 
Q 5.515625 40.234375 12.765625 48.109375 
Q 20.015625 56 32.328125 56 
Q 43.359375 56 49.78125 48.890625 
Q 56.203125 41.796875 56.203125 29.59375 
z
M 47.21875 32.234375 
Q 47.125 39.59375 43.09375 43.984375 
Q 39.0625 48.390625 32.421875 48.390625 
Q 24.90625 48.390625 20.390625 44.140625 
Q 15.875 39.890625 15.1875 32.171875 
z
" id="DejaVuSans-101"/>
      <path d="M 44.28125 53.078125 
L 44.28125 44.578125 
Q 40.484375 46.53125 36.375 47.5 
Q 32.28125 48.484375 27.875 48.484375 
Q 21.1875 48.484375 17.84375 46.4375 
Q 14.5 44.390625 14.5 40.28125 
Q 14.5 37.15625 16.890625 35.375 
Q 19.28125 33.59375 26.515625 31.984375 
L 29.59375 31.296875 
Q 39.15625 29.25 43.1875 25.515625 
Q 47.21875 21.78125 47.21875 15.09375 
Q 47.21875 7.46875 41.1875 3.015625 
Q 35.15625 -1.421875 24.609375 -1.421875 
Q 20.21875 -1.421875 15.453125 -0.5625 
Q 10.6875 0.296875 5.421875 2 
L 5.421875 11.28125 
Q 10.40625 8.6875 15.234375 7.390625 
Q 20.0625 6.109375 24.8125 6.109375 
Q 31.15625 6.109375 34.5625 8.28125 
Q 37.984375 10.453125 37.984375 14.40625 
Q 37.984375 18.0625 35.515625 20.015625 
Q 33.0625 21.96875 24.703125 23.78125 
L 21.578125 24.515625 
Q 13.234375 26.265625 9.515625 29.90625 
Q 5.8125 33.546875 5.8125 39.890625 
Q 5.8125 47.609375 11.28125 51.796875 
Q 16.75 56 26.8125 56 
Q 31.78125 56 36.171875 55.265625 
Q 40.578125 54.546875 44.28125 53.078125 
z
" id="DejaVuSans-115"/>
      <path d="M 18.3125 70.21875 
L 18.3125 54.6875 
L 36.8125 54.6875 
L 36.8125 47.703125 
L 18.3125 47.703125 
L 18.3125 18.015625 
Q 18.3125 11.328125 20.140625 9.421875 
Q 21.96875 7.515625 27.59375 7.515625 
L 36.8125 7.515625 
L 36.8125 0 
L 27.59375 0 
Q 17.1875 0 13.234375 3.875 
Q 9.28125 7.765625 9.28125 18.015625 
L 9.28125 47.703125 
L 2.6875 47.703125 
L 2.6875 54.6875 
L 9.28125 54.6875 
L 9.28125 70.21875 
z
" id="DejaVuSans-116"/>
      <path d="M 34.28125 27.484375 
Q 23.390625 27.484375 19.1875 25 
Q 14.984375 22.515625 14.984375 16.5 
Q 14.984375 11.71875 18.140625 8.90625 
Q 21.296875 6.109375 26.703125 6.109375 
Q 34.1875 6.109375 38.703125 11.40625 
Q 43.21875 16.703125 43.21875 25.484375 
L 43.21875 27.484375 
z
M 52.203125 31.203125 
L 52.203125 0 
L 43.21875 0 
L 43.21875 8.296875 
Q 40.140625 3.328125 35.546875 0.953125 
Q 30.953125 -1.421875 24.3125 -1.421875 
Q 15.921875 -1.421875 10.953125 3.296875 
Q 6 8.015625 6 15.921875 
Q 6 25.140625 12.171875 29.828125 
Q 18.359375 34.515625 30.609375 34.515625 
L 43.21875 34.515625 
L 43.21875 35.40625 
Q 43.21875 41.609375 39.140625 45 
Q 35.0625 48.390625 27.6875 48.390625 
Q 23 48.390625 18.546875 47.265625 
Q 14.109375 46.140625 10.015625 43.890625 
L 10.015625 52.203125 
Q 14.9375 54.109375 19.578125 55.046875 
Q 24.21875 56 28.609375 56 
Q 40.484375 56 46.34375 49.84375 
Q 52.203125 43.703125 52.203125 31.203125 
z
" id="DejaVuSans-97"/>
      <path d="M 18.109375 8.203125 
L 18.109375 -20.796875 
L 9.078125 -20.796875 
L 9.078125 54.6875 
L 18.109375 54.6875 
L 18.109375 46.390625 
Q 20.953125 51.265625 25.265625 53.625 
Q 29.59375 56 35.59375 56 
Q 45.5625 56 51.78125 48.09375 
Q 58.015625 40.1875 58.015625 27.296875 
Q 58.015625 14.40625 51.78125 6.484375 
Q 45.5625 -1.421875 35.59375 -1.421875 
Q 29.59375 -1.421875 25.265625 0.953125 
Q 20.953125 3.328125 18.109375 8.203125 
z
M 48.6875 27.296875 
Q 48.6875 37.203125 44.609375 42.84375 
Q 40.53125 48.484375 33.40625 48.484375 
Q 26.265625 48.484375 22.1875 42.84375 
Q 18.109375 37.203125 18.109375 27.296875 
Q 18.109375 17.390625 22.1875 11.75 
Q 26.265625 6.109375 33.40625 6.109375 
Q 40.53125 6.109375 44.609375 11.75 
Q 48.6875 17.390625 48.6875 27.296875 
z
" id="DejaVuSans-112"/>
     </defs>
     <g transform="translate(414.739062 412.756563)scale(0.1 -0.1)">
      <use xlink:href="#DejaVuSans-84"/>
      <use x="61.037109" xlink:href="#DejaVuSans-105"/>
      <use x="88.820312" xlink:href="#DejaVuSans-109"/>
      <use x="186.232422" xlink:href="#DejaVuSans-101"/>
      <use x="247.755859" xlink:href="#DejaVuSans-115"/>
      <use x="299.855469" xlink:href="#DejaVuSans-116"/>
      <use x="339.064453" xlink:href="#DejaVuSans-97"/>
      <use x="400.34375" xlink:href="#DejaVuSans-109"/>
      <use x="497.755859" xlink:href="#DejaVuSans-112"/>
     </g>
    </g>
   </g>
   <g id="matplotlib.axis_2">
    <g id="ytick_1">
     <g id="line2d_9">
      <defs>
       <path d="M 0 0 
L -3.5 0 
" id="m900ee35824" style="stroke:#000000;stroke-width:0.8;"/>
      </defs>
      <g>
       <use style="stroke:#000000;stroke-width:0.8;" x="108" xlink:href="#m900ee35824" y="369.376729"/>
      </g>
     </g>
     <g id="text_10">
      <!-- 0 -->
      <g transform="translate(94.6375 373.175947)scale(0.1 -0.1)">
       <use xlink:href="#DejaVuSans-48"/>
      </g>
     </g>
    </g>
    <g id="ytick_2">
     <g id="line2d_10">
      <g>
       <use style="stroke:#000000;stroke-width:0.8;" x="108" xlink:href="#m900ee35824" y="330.831485"/>
      </g>
     </g>
     <g id="text_11">
      <!-- 1000000 -->
      <g transform="translate(56.4625 334.630704)scale(0.1 -0.1)">
       <use xlink:href="#DejaVuSans-49"/>
       <use x="63.623047" xlink:href="#DejaVuSans-48"/>
       <use x="127.246094" xlink:href="#DejaVuSans-48"/>
       <use x="190.869141" xlink:href="#DejaVuSans-48"/>
       <use x="254.492188" xlink:href="#DejaVuSans-48"/>
       <use x="318.115234" xlink:href="#DejaVuSans-48"/>
       <use x="381.738281" xlink:href="#DejaVuSans-48"/>
      </g>
     </g>
    </g>
    <g id="ytick_3">
     <g id="line2d_11">
      <g>
       <use style="stroke:#000000;stroke-width:0.8;" x="108" xlink:href="#m900ee35824" y="292.286242"/>
      </g>
     </g>
     <g id="text_12">
      <!-- 2000000 -->
      <g transform="translate(56.4625 296.085461)scale(0.1 -0.1)">
       <use xlink:href="#DejaVuSans-50"/>
       <use x="63.623047" xlink:href="#DejaVuSans-48"/>
       <use x="127.246094" xlink:href="#DejaVuSans-48"/>
       <use x="190.869141" xlink:href="#DejaVuSans-48"/>
       <use x="254.492188" xlink:href="#DejaVuSans-48"/>
       <use x="318.115234" xlink:href="#DejaVuSans-48"/>
       <use x="381.738281" xlink:href="#DejaVuSans-48"/>
      </g>
     </g>
    </g>
    <g id="ytick_4">
     <g id="line2d_12">
      <g>
       <use style="stroke:#000000;stroke-width:0.8;" x="108" xlink:href="#m900ee35824" y="253.740999"/>
      </g>
     </g>
     <g id="text_13">
      <!-- 3000000 -->
      <defs>
       <path d="M 40.578125 39.3125 
Q 47.65625 37.796875 51.625 33 
Q 55.609375 28.21875 55.609375 21.1875 
Q 55.609375 10.40625 48.1875 4.484375 
Q 40.765625 -1.421875 27.09375 -1.421875 
Q 22.515625 -1.421875 17.65625 -0.515625 
Q 12.796875 0.390625 7.625 2.203125 
L 7.625 11.71875 
Q 11.71875 9.328125 16.59375 8.109375 
Q 21.484375 6.890625 26.8125 6.890625 
Q 36.078125 6.890625 40.9375 10.546875 
Q 45.796875 14.203125 45.796875 21.1875 
Q 45.796875 27.640625 41.28125 31.265625 
Q 36.765625 34.90625 28.71875 34.90625 
L 20.21875 34.90625 
L 20.21875 43.015625 
L 29.109375 43.015625 
Q 36.375 43.015625 40.234375 45.921875 
Q 44.09375 48.828125 44.09375 54.296875 
Q 44.09375 59.90625 40.109375 62.90625 
Q 36.140625 65.921875 28.71875 65.921875 
Q 24.65625 65.921875 20.015625 65.03125 
Q 15.375 64.15625 9.8125 62.3125 
L 9.8125 71.09375 
Q 15.4375 72.65625 20.34375 73.4375 
Q 25.25 74.21875 29.59375 74.21875 
Q 40.828125 74.21875 47.359375 69.109375 
Q 53.90625 64.015625 53.90625 55.328125 
Q 53.90625 49.265625 50.4375 45.09375 
Q 46.96875 40.921875 40.578125 39.3125 
z
" id="DejaVuSans-51"/>
      </defs>
      <g transform="translate(56.4625 257.540217)scale(0.1 -0.1)">
       <use xlink:href="#DejaVuSans-51"/>
       <use x="63.623047" xlink:href="#DejaVuSans-48"/>
       <use x="127.246094" xlink:href="#DejaVuSans-48"/>
       <use x="190.869141" xlink:href="#DejaVuSans-48"/>
       <use x="254.492188" xlink:href="#DejaVuSans-48"/>
       <use x="318.115234" xlink:href="#DejaVuSans-48"/>
       <use x="381.738281" xlink:href="#DejaVuSans-48"/>
      </g>
     </g>
    </g>
    <g id="ytick_5">
     <g id="line2d_13">
      <g>
       <use style="stroke:#000000;stroke-width:0.8;" x="108" xlink:href="#m900ee35824" y="215.195755"/>
      </g>
     </g>
     <g id="text_14">
      <!-- 4000000 -->
      <g transform="translate(56.4625 218.994974)scale(0.1 -0.1)">
       <use xlink:href="#DejaVuSans-52"/>
       <use x="63.623047" xlink:href="#DejaVuSans-48"/>
       <use x="127.246094" xlink:href="#DejaVuSans-48"/>
       <use x="190.869141" xlink:href="#DejaVuSans-48"/>
       <use x="254.492188" xlink:href="#DejaVuSans-48"/>
       <use x="318.115234" xlink:href="#DejaVuSans-48"/>
       <use x="381.738281" xlink:href="#DejaVuSans-48"/>
      </g>
     </g>
    </g>
    <g id="ytick_6">
     <g id="line2d_14">
      <g>
       <use style="stroke:#000000;stroke-width:0.8;" x="108" xlink:href="#m900ee35824" y="176.650512"/>
      </g>
     </g>
     <g id="text_15">
      <!-- 5000000 -->
      <defs>
       <path d="M 10.796875 72.90625 
L 49.515625 72.90625 
L 49.515625 64.59375 
L 19.828125 64.59375 
L 19.828125 46.734375 
Q 21.96875 47.46875 24.109375 47.828125 
Q 26.265625 48.1875 28.421875 48.1875 
Q 40.625 48.1875 47.75 41.5 
Q 54.890625 34.8125 54.890625 23.390625 
Q 54.890625 11.625 47.5625 5.09375 
Q 40.234375 -1.421875 26.90625 -1.421875 
Q 22.3125 -1.421875 17.546875 -0.640625 
Q 12.796875 0.140625 7.71875 1.703125 
L 7.71875 11.625 
Q 12.109375 9.234375 16.796875 8.0625 
Q 21.484375 6.890625 26.703125 6.890625 
Q 35.15625 6.890625 40.078125 11.328125 
Q 45.015625 15.765625 45.015625 23.390625 
Q 45.015625 31 40.078125 35.4375 
Q 35.15625 39.890625 26.703125 39.890625 
Q 22.75 39.890625 18.8125 39.015625 
Q 14.890625 38.140625 10.796875 36.28125 
z
" id="DejaVuSans-53"/>
      </defs>
      <g transform="translate(56.4625 180.449731)scale(0.1 -0.1)">
       <use xlink:href="#DejaVuSans-53"/>
       <use x="63.623047" xlink:href="#DejaVuSans-48"/>
       <use x="127.246094" xlink:href="#DejaVuSans-48"/>
       <use x="190.869141" xlink:href="#DejaVuSans-48"/>
       <use x="254.492188" xlink:href="#DejaVuSans-48"/>
       <use x="318.115234" xlink:href="#DejaVuSans-48"/>
       <use x="381.738281" xlink:href="#DejaVuSans-48"/>
      </g>
     </g>
    </g>
    <g id="ytick_7">
     <g id="line2d_15">
      <g>
       <use style="stroke:#000000;stroke-width:0.8;" x="108" xlink:href="#m900ee35824" y="138.105268"/>
      </g>
     </g>
     <g id="text_16">
      <!-- 6000000 -->
      <g transform="translate(56.4625 141.904487)scale(0.1 -0.1)">
       <use xlink:href="#DejaVuSans-54"/>
       <use x="63.623047" xlink:href="#DejaVuSans-48"/>
       <use x="127.246094" xlink:href="#DejaVuSans-48"/>
       <use x="190.869141" xlink:href="#DejaVuSans-48"/>
       <use x="254.492188" xlink:href="#DejaVuSans-48"/>
       <use x="318.115234" xlink:href="#DejaVuSans-48"/>
       <use x="381.738281" xlink:href="#DejaVuSans-48"/>
      </g>
     </g>
    </g>
    <g id="ytick_8">
     <g id="line2d_16">
      <g>
       <use style="stroke:#000000;stroke-width:0.8;" x="108" xlink:href="#m900ee35824" y="99.560025"/>
      </g>
     </g>
     <g id="text_17">
      <!-- 7000000 -->
      <defs>
       <path d="M 8.203125 72.90625 
L 55.078125 72.90625 
L 55.078125 68.703125 
L 28.609375 0 
L 18.3125 0 
L 43.21875 64.59375 
L 8.203125 64.59375 
z
" id="DejaVuSans-55"/>
      </defs>
      <g transform="translate(56.4625 103.359244)scale(0.1 -0.1)">
       <use xlink:href="#DejaVuSans-55"/>
       <use x="63.623047" xlink:href="#DejaVuSans-48"/>
       <use x="127.246094" xlink:href="#DejaVuSans-48"/>
       <use x="190.869141" xlink:href="#DejaVuSans-48"/>
       <use x="254.492188" xlink:href="#DejaVuSans-48"/>
       <use x="318.115234" xlink:href="#DejaVuSans-48"/>
       <use x="381.738281" xlink:href="#DejaVuSans-48"/>
      </g>
     </g>
    </g>
    <g id="ytick_9">
     <g id="line2d_17">
      <g>
       <use style="stroke:#000000;stroke-width:0.8;" x="108" xlink:href="#m900ee35824" y="61.014782"/>
      </g>
     </g>
     <g id="text_18">
      <!-- 8000000 -->
      <g transform="translate(56.4625 64.814)scale(0.1 -0.1)">
       <use xlink:href="#DejaVuSans-56"/>
       <use x="63.623047" xlink:href="#DejaVuSans-48"/>
       <use x="127.246094" xlink:href="#DejaVuSans-48"/>
       <use x="190.869141" xlink:href="#DejaVuSans-48"/>
       <use x="254.492188" xlink:href="#DejaVuSans-48"/>
       <use x="318.115234" xlink:href="#DejaVuSans-48"/>
       <use x="381.738281" xlink:href="#DejaVuSans-48"/>
      </g>
     </g>
    </g>
    <g id="text_19">
     <!-- Value -->
     <defs>
      <path d="M 28.609375 0 
L 0.78125 72.90625 
L 11.078125 72.90625 
L 34.1875 11.53125 
L 57.328125 72.90625 
L 67.578125 72.90625 
L 39.796875 0 
z
" id="DejaVuSans-86"/>
      <path d="M 9.421875 75.984375 
L 18.40625 75.984375 
L 18.40625 0 
L 9.421875 0 
z
" id="DejaVuSans-108"/>
      <path d="M 8.5 21.578125 
L 8.5 54.6875 
L 17.484375 54.6875 
L 17.484375 21.921875 
Q 17.484375 14.15625 20.5 10.265625 
Q 23.53125 6.390625 29.59375 6.390625 
Q 36.859375 6.390625 41.078125 11.03125 
Q 45.3125 15.671875 45.3125 23.6875 
L 45.3125 54.6875 
L 54.296875 54.6875 
L 54.296875 0 
L 45.3125 0 
L 45.3125 8.40625 
Q 42.046875 3.421875 37.71875 1 
Q 33.40625 -1.421875 27.6875 -1.421875 
Q 18.265625 -1.421875 13.375 4.4375 
Q 8.5 10.296875 8.5 21.578125 
z
M 31.109375 56 
z
" id="DejaVuSans-117"/>
     </defs>
     <g transform="translate(50.382812 232.273281)rotate(-90)scale(0.1 -0.1)">
      <use xlink:href="#DejaVuSans-86"/>
      <use x="68.298828" xlink:href="#DejaVuSans-97"/>
      <use x="129.578125" xlink:href="#DejaVuSans-108"/>
      <use x="157.361328" xlink:href="#DejaVuSans-117"/>
      <use x="220.740234" xlink:href="#DejaVuSans-101"/>
     </g>
    </g>
   </g>
   <g id="line2d_18">
    <path clip-path="url(#p3aa54a5f38)" d="M 138.436364 369.36 
L 138.86175 354.499267 
L 139.287136 150.727409 
L 139.712521 132.80152 
L 140.563293 121.441851 
L 140.988679 118.507633 
L 141.414065 116.91903 
L 141.839451 121.718837 
L 142.264837 122.893388 
L 142.690223 115.594885 
L 143.966381 102.113108 
L 144.391767 99.615029 
L 144.817153 101.320271 
L 145.242539 104.986579 
L 145.667925 122.182961 
L 146.09331 155.235623 
L 146.518696 178.509934 
L 146.944082 190.875981 
L 147.369468 198.385057 
L 147.794854 202.649818 
L 148.22024 201.63072 
L 148.645626 194.243216 
L 149.921784 127.375313 
L 150.34717 121.622821 
L 150.772556 118.866297 
L 151.197942 117.768335 
L 151.623328 119.301241 
L 152.048714 123.374317 
L 152.474099 125.147128 
L 153.750257 107.357766 
L 154.175643 104.920396 
L 154.601029 103.560135 
L 155.026415 104.847816 
L 155.451801 107.5609 
L 155.877187 120.322343 
L 156.302573 153.253087 
L 156.727959 176.485692 
L 157.153345 192.369532 
L 158.004117 201.192577 
L 158.429503 201.262999 
L 158.854889 192.551658 
L 159.280274 171.09329 
L 159.70566 143.78121 
L 160.131046 128.819025 
L 160.556432 124.457477 
L 160.981818 113.7175 
L 161.407204 119.031193 
L 162.257976 124.294392 
L 162.683362 125.065644 
L 163.108748 116.69778 
L 163.534134 102.753113 
L 163.95952 100.109603 
L 164.384906 101.185594 
L 164.810292 100.782063 
L 165.235678 121.731634 
L 165.661063 120.646046 
L 166.086449 122.839386 
L 166.937221 176.743252 
L 167.362607 190.51805 
L 167.787993 197.978481 
L 168.213379 219.267752 
L 168.638765 202.350746 
L 169.064151 192.520514 
L 170.340309 126.401506 
L 170.765695 123.658627 
L 171.191081 123.810881 
L 171.616467 120.906496 
L 172.041852 116.519508 
L 172.467238 122.898438 
L 172.892624 123.498972 
L 173.31801 121.236097 
L 173.743396 117.35621 
L 174.168782 110.222796 
L 174.594168 110.381718 
L 175.019554 111.200457 
L 175.44494 110.190456 
L 175.870326 112.112091 
L 176.295712 123.763624 
L 176.721098 155.351528 
L 177.146484 178.623334 
L 177.57187 193.635203 
L 177.997256 199.402959 
L 178.422642 213.814139 
L 178.848027 203.091624 
L 179.273413 195.857028 
L 179.698799 172.388102 
L 180.124185 140.567924 
L 180.549571 121.152916 
L 180.974957 122.534956 
L 181.400343 115.962992 
L 181.825729 112.623316 
L 182.251115 118.699165 
L 182.676501 118.145115 
L 183.101887 119.248743 
L 183.952659 104.249247 
L 184.378045 99.572784 
L 184.803431 101.718713 
L 185.228816 140.051996 
L 185.654202 117.595691 
L 186.079588 125.622044 
L 186.504974 138.631912 
L 187.355746 180.942332 
L 187.781132 193.983961 
L 188.206518 202.721358 
L 188.631904 207.920263 
L 189.05729 208.123474 
L 189.482676 202.763835 
L 189.908062 187.083399 
L 190.333448 159.872268 
L 190.758834 141.573993 
L 191.18422 128.566014 
L 191.609605 125.886079 
L 192.034991 130.233944 
L 192.460377 137.21603 
L 192.885763 138.695358 
L 193.311149 142.13818 
L 193.736535 138.514002 
L 194.587307 134.812926 
L 195.438079 139.141056 
L 195.863465 139.647117 
L 196.288851 141.936666 
L 196.714237 148.526592 
L 197.565009 182.615581 
L 198.41578 205.142886 
L 198.841166 209.095508 
L 199.266552 208.36839 
L 199.691938 204.629964 
L 200.54271 172.942305 
L 200.968096 148.343964 
L 201.393482 137.19641 
L 201.818868 121.764783 
L 202.244254 133.832181 
L 203.095026 142.50567 
L 203.520412 141.608915 
L 203.945798 139.395956 
L 204.796569 127.64089 
L 205.221955 126.532522 
L 205.647341 112.881415 
L 206.498113 122.387713 
L 206.923499 137.160139 
L 207.348885 162.531351 
L 207.774271 181.158571 
L 208.199657 194.707879 
L 208.625043 201.540332 
L 209.050429 203.376589 
L 209.475815 203.88766 
L 209.901201 209.789014 
L 210.326587 175.683566 
L 210.751973 151.907241 
L 211.177358 135.617443 
L 211.602744 128.521456 
L 212.453516 119.930145 
L 212.878902 123.368535 
L 213.304288 125.776765 
L 213.729674 126.943221 
L 214.15506 120.696194 
L 214.580446 110.729165 
L 215.005832 104.637436 
L 215.431218 105.629243 
L 215.856604 103.684674 
L 216.28199 102.821145 
L 216.707376 105.860592 
L 217.132762 119.942056 
L 217.558148 157.176144 
L 217.983533 179.119643 
L 218.408919 192.286197 
L 218.834305 199.030728 
L 219.259691 202.70197 
L 219.685077 202.549215 
L 220.110463 211.61363 
L 220.535849 174.067595 
L 220.961235 147.800014 
L 221.386621 132.557297 
L 221.812007 121.630877 
L 222.237393 118.666054 
L 222.662779 119.387737 
L 223.088165 122.617635 
L 223.513551 124.677802 
L 223.938937 125.786401 
L 224.364322 120.26653 
L 225.215094 104.596925 
L 225.64048 103.93888 
L 226.065866 102.736693 
L 226.491252 103.352607 
L 226.916638 109.18007 
L 227.342024 124.569644 
L 228.192796 180.122012 
L 228.618182 193.798905 
L 229.468954 203.692583 
L 229.89434 202.826163 
L 230.319726 195.665035 
L 230.745111 176.193712 
L 231.595883 130.762361 
L 232.021269 124.659685 
L 232.446655 121.462743 
L 232.872041 119.277883 
L 233.722813 125.530769 
L 234.148199 125.420607 
L 234.573585 117.140511 
L 234.998971 113.346271 
L 235.424357 104.761397 
L 235.849743 104.541381 
L 236.275129 100.442056 
L 236.700515 107.919756 
L 237.125901 108.108281 
L 237.551286 120.814258 
L 238.402058 176.660456 
L 239.25283 199.223107 
L 239.678216 202.803421 
L 240.103602 201.339049 
L 240.528988 194.66228 
L 241.805146 127.178309 
L 242.230532 122.626424 
L 242.655918 122.405328 
L 243.081304 120.051756 
L 243.50669 120.855116 
L 243.932075 126.612696 
L 244.357461 126.432343 
L 245.208233 114.660702 
L 245.633619 106.79435 
L 246.059005 107.665666 
L 246.484391 105.646627 
L 246.909777 110.646022 
L 247.335163 113.194788 
L 247.760549 128.313004 
L 248.611321 178.538728 
L 249.036707 192.194074 
L 249.462093 199.555637 
L 249.887479 202.891535 
L 250.312864 201.609906 
L 250.73825 195.947995 
L 251.163636 175.589708 
L 252.014408 122.672254 
L 252.439794 120.838002 
L 252.86518 115.249365 
L 254.141338 123.655312 
L 254.566724 122.185004 
L 255.417496 106.338322 
L 255.842882 107.73655 
L 256.693654 113.555533 
L 257.119039 123.899612 
L 257.544425 125.383681 
L 257.969811 137.69453 
L 258.395197 185.533225 
L 258.820583 181.481965 
L 259.245969 194.384947 
L 260.096741 206.421547 
L 260.522127 205.701021 
L 260.947513 201.062525 
L 261.372899 184.252173 
L 262.223671 140.02964 
L 262.649057 127.409002 
L 263.074443 126.247402 
L 263.499828 134.985224 
L 264.3506 143.9431 
L 264.775986 147.031614 
L 265.201372 142.585421 
L 265.626758 142.109772 
L 266.052144 139.167961 
L 266.47753 138.011796 
L 266.902916 136.225263 
L 267.328302 138.153296 
L 267.753688 142.456024 
L 268.179074 151.481239 
L 269.029846 183.195995 
L 269.455232 195.933772 
L 269.880617 204.753425 
L 270.306003 208.461863 
L 270.731389 207.95958 
L 271.156775 204.451423 
L 271.582161 206.112376 
L 272.432933 149.699446 
L 273.283705 119.514474 
L 273.709091 117.286096 
L 274.134477 130.518755 
L 274.559863 131.392267 
L 274.985249 132.657939 
L 275.410635 128.544121 
L 275.836021 125.864378 
L 276.261407 121.746551 
L 276.686792 121.930836 
L 277.112178 109.345275 
L 277.96295 123.322281 
L 278.388336 138.165977 
L 278.813722 165.390868 
L 279.239108 183.646666 
L 279.664494 195.5218 
L 280.08988 203.604314 
L 280.515266 206.717189 
L 280.940652 205.690344 
L 281.366038 197.846811 
L 282.642196 138.895793 
L 283.067581 130.686889 
L 283.492967 124.827935 
L 283.918353 122.08706 
L 284.343739 120.879322 
L 284.769125 122.299714 
L 285.194511 122.544978 
L 286.896055 101.271665 
L 287.321441 99.316458 
L 287.746827 145.211007 
L 288.172213 110.601271 
L 288.597599 127.964015 
L 289.022985 160.1915 
L 289.44837 180.205655 
L 289.873756 192.450207 
L 290.299142 200.434816 
L 290.724528 225.448674 
L 291.149914 358.584908 
L 291.5753 195.710094 
L 292.851458 130.792195 
L 293.276844 129.276673 
L 293.70223 120.707102 
L 294.127616 118.550573 
L 294.553002 125.39906 
L 294.978388 127.091813 
L 295.403774 125.575752 
L 295.82916 116.013486 
L 296.254545 112.348103 
L 297.105317 101.723531 
L 297.530703 105.297485 
L 297.956089 104.858377 
L 298.381475 112.534971 
L 298.806861 128.452537 
L 299.232247 160.541414 
L 299.657633 181.543214 
L 300.083019 194.474603 
L 300.933791 203.921387 
L 301.359177 201.919232 
L 301.784563 194.948209 
L 302.209949 175.674199 
L 302.635334 149.797737 
L 303.06072 135.294125 
L 303.486106 126.538727 
L 303.911492 120.352987 
L 304.336878 118.128348 
L 304.762264 122.77066 
L 305.18765 122.561783 
L 305.613036 125.453756 
L 306.889194 103.118869 
L 307.31458 99.1802 
L 307.739966 99.074972 
L 308.165352 106.288097 
L 308.590738 136.666066 
L 309.016123 134.344024 
L 309.866895 180.674096 
L 310.292281 194.198427 
L 310.717667 201.102997 
L 311.143053 204.405592 
L 311.568439 203.247308 
L 311.993825 196.339306 
L 312.419211 174.644463 
L 312.844597 145.237719 
L 313.269983 126.525661 
L 314.120755 121.895105 
L 314.546141 117.609799 
L 314.971527 121.336816 
L 315.396913 118.550765 
L 315.822298 122.682931 
L 316.247684 116.67207 
L 316.67307 112.357547 
L 317.098456 103.722218 
L 317.523842 105.247568 
L 317.949228 101.588546 
L 318.374614 109.425256 
L 318.8 115.089094 
L 319.225386 128.470307 
L 320.076158 180.713759 
L 320.501544 193.752535 
L 320.92693 201.156884 
L 321.352316 205.334417 
L 321.777702 203.69239 
L 322.203087 197.024487 
L 322.628473 176.510554 
L 323.053859 149.024365 
L 323.479245 133.37754 
L 323.904631 126.535181 
L 324.755403 117.021059 
L 325.606175 126.309152 
L 326.031561 124.406405 
L 326.882333 112.598108 
L 327.307719 101.95276 
L 328.158491 115.083351 
L 329.009262 126.223928 
L 329.434648 139.582746 
L 330.28542 182.449181 
L 330.710806 195.96191 
L 331.136192 202.847671 
L 331.561578 221.112065 
L 331.986964 207.670567 
L 332.41235 203.305164 
L 333.263122 164.465782 
L 334.113894 122.359614 
L 334.964666 129.025551 
L 335.390051 139.288183 
L 336.240823 146.208789 
L 336.666209 141.780827 
L 337.091595 139.181413 
L 337.516981 137.331318 
L 337.942367 137.938483 
L 338.367753 137.312855 
L 339.643911 153.879794 
L 340.494683 185.961385 
L 340.920069 197.755651 
L 341.345455 206.094221 
L 341.77084 210.09541 
L 342.196226 209.659039 
L 342.621612 204.92896 
L 343.046998 192.516274 
L 344.323156 137.931314 
L 344.748542 127.802433 
L 345.599314 132.07633 
L 346.0247 137.040456 
L 346.450086 137.401741 
L 346.875472 132.648148 
L 347.300858 129.190139 
L 347.726244 121.291833 
L 348.15163 122.704478 
L 348.577015 108.474807 
L 349.427787 124.115311 
L 349.853173 139.491587 
L 350.278559 166.798232 
L 350.703945 185.007198 
L 351.129331 195.917506 
L 351.554717 203.870392 
L 351.980103 206.524193 
L 352.405489 204.862084 
L 352.830875 199.410399 
L 353.256261 182.213901 
L 354.107033 140.763348 
L 354.532419 135.18192 
L 354.957804 131.445344 
L 355.38319 123.45241 
L 355.808576 140.459573 
L 356.233962 126.336673 
L 356.659348 129.340196 
L 357.51012 109.327891 
L 357.935506 109.479875 
L 358.360892 110.73167 
L 358.786278 107.436244 
L 359.211664 110.312529 
L 359.63705 116.887846 
L 360.062436 134.213586 
L 360.487822 166.045328 
L 360.913208 187.028202 
L 361.338593 200.113079 
L 361.763979 207.105687 
L 362.189365 209.596249 
L 362.614751 208.490425 
L 363.040137 200.946812 
L 363.465523 183.481461 
L 363.890909 153.401139 
L 364.316295 136.310486 
L 364.741681 133.593548 
L 365.167067 130.045766 
L 365.592453 128.274034 
L 366.017839 128.823304 
L 366.868611 135.788314 
L 367.293997 131.038383 
L 368.144768 115.279662 
L 368.570154 114.749742 
L 368.99554 112.172877 
L 369.420926 113.945418 
L 369.846312 117.389783 
L 370.271698 131.914787 
L 370.697084 167.346384 
L 371.12247 188.503906 
L 371.547856 201.460774 
L 372.398628 209.693884 
L 372.824014 208.191044 
L 373.2494 202.302371 
L 373.674786 187.429265 
L 374.100172 178.217916 
L 374.525557 141.220996 
L 374.950943 130.201374 
L 375.376329 126.109796 
L 375.801715 130.745247 
L 376.227101 128.124016 
L 377.077873 135.90472 
L 377.503259 131.133513 
L 378.354031 114.395974 
L 378.779417 112.640585 
L 379.204803 112.630447 
L 380.055575 122.506047 
L 380.480961 138.165399 
L 380.906346 169.565588 
L 381.331732 190.249543 
L 381.757118 202.650589 
L 382.182504 210.405352 
L 382.60789 211.397353 
L 383.033276 209.555276 
L 383.458662 203.015959 
L 383.884048 182.889715 
L 384.309434 156.322483 
L 384.73482 139.708866 
L 385.160206 131.848605 
L 385.585592 128.52373 
L 386.010978 128.385391 
L 386.436364 129.342894 
L 386.86175 133.320146 
L 387.287136 148.618214 
L 387.712521 123.401068 
L 388.137907 116.155448 
L 388.563293 112.893904 
L 388.988679 113.259159 
L 389.414065 114.411893 
L 390.264837 126.351128 
L 390.690223 142.897406 
L 391.115609 170.844904 
L 391.966381 203.266002 
L 392.391767 208.11403 
L 392.817153 214.365722 
L 393.242539 212.531739 
L 393.667925 204.580087 
L 394.518696 161.296053 
L 394.944082 138.760576 
L 395.794854 127.906351 
L 396.22024 131.718746 
L 396.645626 130.871328 
L 397.071012 134.546772 
L 397.496398 149.299231 
L 397.921784 131.718476 
L 398.34717 121.675551 
L 398.772556 118.56919 
L 399.197942 120.673105 
L 399.623328 124.084359 
L 400.048714 133.616405 
L 400.474099 139.13196 
L 400.899485 152.137934 
L 401.750257 192.2379 
L 402.175643 204.537224 
L 402.601029 213.382086 
L 403.026415 217.057182 
L 403.451801 215.307922 
L 403.877187 210.995017 
L 404.302573 196.851341 
L 404.727959 176.793977 
L 405.153345 151.07077 
L 405.578731 139.794282 
L 406.004117 140.08156 
L 406.429503 141.20658 
L 406.854889 152.725865 
L 407.70566 157.134477 
L 408.131046 153.590434 
L 408.556432 151.377051 
L 408.981818 146.193911 
L 409.407204 148.814062 
L 409.83259 152.430685 
L 410.257976 153.17696 
L 410.683362 155.800542 
L 411.108748 164.45499 
L 411.95952 195.740776 
L 412.384906 208.454539 
L 412.810292 216.181396 
L 413.235678 218.491373 
L 413.661063 218.075624 
L 414.086449 214.246347 
L 414.511835 201.975816 
L 415.787993 152.636594 
L 416.213379 161.352598 
L 416.638765 146.211526 
L 417.064151 146.617716 
L 417.489537 156.071476 
L 417.914923 156.430371 
L 418.340309 154.546395 
L 418.765695 150.569644 
L 419.191081 159.414544 
L 420.041852 129.709266 
L 420.892624 144.56576 
L 421.31801 157.521433 
L 421.743396 179.368607 
L 422.594168 206.318362 
L 423.019554 213.823853 
L 423.44494 217.216412 
L 423.870326 216.374546 
L 424.295712 213.143953 
L 424.721098 198.624731 
L 425.57187 155.980664 
L 425.997256 150.44495 
L 426.422642 122.521581 
L 426.848027 124.595662 
L 427.273413 127.89155 
L 427.698799 133.975685 
L 428.124185 135.117164 
L 428.549571 127.492375 
L 429.400343 121.173654 
L 429.825729 120.174137 
L 430.251115 117.18769 
L 430.676501 120.423062 
L 431.101887 129.285115 
L 431.527273 146.174677 
L 431.952659 175.113751 
L 432.378045 193.209201 
L 433.228816 214.945134 
L 433.654202 217.533987 
L 434.079588 216.677588 
L 434.504974 210.319666 
L 434.93036 190.993698 
L 435.355746 163.004571 
L 435.781132 148.949549 
L 436.206518 140.459496 
L 436.631904 135.743987 
L 437.05729 135.155247 
L 437.482676 132.237603 
L 437.908062 135.558661 
L 438.333448 137.320449 
L 439.18422 123.377362 
L 439.609605 114.206909 
L 440.034991 114.159923 
L 440.460377 112.357624 
L 440.885763 115.739584 
L 441.311149 121.085578 
L 441.736535 135.848406 
L 442.161921 169.631192 
L 443.012693 210.688621 
L 443.438079 211.776985 
L 443.863465 217.853373 
L 444.288851 217.443868 
L 444.714237 210.449101 
L 445.139623 209.84448 
L 445.565009 167.365348 
L 445.990395 146.69153 
L 446.41578 146.05669 
L 446.841166 141.468264 
L 447.266552 140.941312 
L 447.691938 138.320081 
L 448.117324 141.07225 
L 448.54271 141.982226 
L 448.968096 136.704496 
L 449.393482 125.77318 
L 449.818868 122.57061 
L 450.244254 112.953264 
L 450.66964 117.628725 
L 451.095026 119.477008 
L 451.520412 122.237772 
L 451.945798 141.96014 
L 452.371184 172.300488 
L 452.796569 193.547706 
L 453.221955 207.278447 
L 453.647341 214.727161 
L 454.072727 218.182896 
L 454.498113 217.456819 
L 454.923499 210.621475 
L 455.348885 192.951989 
L 455.774271 162.802979 
L 456.199657 147.693321 
L 457.050429 137.169968 
L 457.475815 135.6366 
L 457.901201 134.742658 
L 458.751973 142.562448 
L 459.177358 136.663946 
L 460.02813 116.207716 
L 460.453516 117.042182 
L 460.878902 119.905476 
L 461.304288 124.691986 
L 461.729674 182.987543 
L 462.15506 148.323959 
L 462.580446 171.700108 
L 463.005832 185.27077 
L 463.431218 206.442092 
L 463.856604 215.13416 
L 464.28199 218.384179 
L 464.707376 217.08478 
L 465.132762 210.140585 
L 465.983533 169.030734 
L 466.408919 139.637018 
L 466.834305 134.532895 
L 467.259691 126.303717 
L 467.685077 127.339158 
L 468.110463 141.707283 
L 468.961235 133.709338 
L 469.386621 331.093362 
L 469.812007 288.314193 
L 470.237393 115.114303 
L 470.662779 118.51515 
L 471.088165 125.301348 
L 471.513551 130.225002 
L 471.938937 137.272691 
L 472.364322 146.401901 
L 473.215094 191.014011 
L 473.64048 205.430009 
L 474.065866 213.792284 
L 474.491252 218.398287 
L 474.916638 217.090447 
L 475.342024 213.027701 
L 475.76741 198.334986 
L 476.618182 150.15455 
L 477.043568 138.618036 
L 477.468954 134.581616 
L 477.89434 135.968474 
L 478.319726 147.50865 
L 479.170497 153.364328 
L 479.595883 148.383782 
L 480.021269 146.002611 
L 480.446655 135.168005 
L 480.872041 141.769379 
L 481.722813 147.76197 
L 482.148199 151.193768 
L 482.573585 160.737455 
L 482.998971 205.747121 
L 483.424357 193.09106 
L 483.849743 208.901895 
L 484.275129 215.342959 
L 484.700515 219.961682 
L 485.125901 218.896677 
L 485.551286 215.211751 
L 486.402058 181.90658 
L 486.827444 157.868879 
L 487.678216 134.041906 
L 488.103602 139.955903 
L 488.528988 143.008763 
L 488.954374 148.620372 
L 489.37976 149.51732 
L 489.805146 146.966743 
L 490.655918 133.567337 
L 491.081304 132.76178 
L 491.50669 119.703615 
L 492.357461 129.901376 
L 492.782847 147.01265 
L 493.208233 174.7325 
L 493.633619 193.163024 
L 494.059005 204.847282 
L 494.484391 212.779508 
L 494.909777 216.211075 
L 495.335163 213.87242 
L 495.760549 206.7116 
L 496.185935 188.609289 
L 496.611321 162.521136 
L 497.036707 146.493754 
L 497.462093 138.475033 
L 497.887479 133.798763 
L 498.73825 127.623699 
L 499.163636 130.810234 
L 499.589022 131.018147 
L 500.014408 125.685798 
L 500.439794 115.037868 
L 500.86518 109.379965 
L 501.290566 105.909352 
L 501.715952 106.728322 
L 502.141338 106.596189 
L 502.566724 116.217699 
L 502.99211 134.177161 
L 503.417496 169.710364 
L 503.842882 193.203844 
L 504.268268 206.377683 
L 504.693654 213.952979 
L 505.119039 217.571414 
L 505.544425 216.137223 
L 505.969811 208.459126 
L 507.245969 144.145077 
L 507.671355 140.144543 
L 508.096741 132.836558 
L 508.522127 138.135449 
L 508.947513 137.599285 
L 509.372899 137.955983 
L 509.798285 142.868073 
L 510.649057 127.751052 
L 511.074443 118.392691 
L 511.499828 115.305911 
L 511.925214 120.230066 
L 512.3506 118.958034 
L 512.775986 123.557908 
L 513.201372 141.784836 
L 513.626758 176.031861 
L 514.052144 198.141258 
L 514.47753 211.80227 
L 514.902916 215.907647 
L 515.328302 222.718784 
L 515.753688 221.458933 
L 516.179074 212.406159 
L 517.455232 153.584576 
L 517.880617 151.89772 
L 518.306003 147.095137 
L 518.731389 147.959052 
L 519.156775 149.629255 
L 519.582161 149.594989 
L 520.007547 149.950916 
L 520.432933 141.870753 
L 521.283705 122.487468 
L 521.709091 122.614976 
L 522.134477 119.822566 
L 522.559863 125.788714 
L 522.985249 122.497451 
L 523.410635 144.67411 
L 524.261407 202.784765 
L 524.686792 214.927827 
L 525.112178 221.32071 
L 525.96295 224.093578 
L 526.388336 217.332742 
L 526.813722 193.403855 
L 527.239108 161.198148 
L 527.664494 152.769999 
L 528.08988 149.05285 
L 528.515266 147.855403 
L 528.940652 149.526571 
L 529.366038 146.912163 
L 529.791424 150.114463 
L 530.21681 150.908418 
L 530.642196 143.18796 
L 531.067581 128.884629 
L 531.492967 123.618694 
L 531.918353 124.207434 
L 532.343739 124.398734 
L 532.769125 126.03868 
L 533.194511 129.802623 
L 533.619897 148.200846 
L 534.045283 180.484491 
L 534.470669 201.835781 
L 534.896055 212.038244 
L 535.321441 215.057802 
L 535.746827 219.230941 
L 536.172213 216.942703 
L 536.597599 209.030983 
L 537.44837 156.730446 
L 537.873756 146.550223 
L 538.299142 146.163421 
L 539.149914 128.409752 
L 539.5753 132.587208 
L 540.000686 137.86174 
L 540.426072 137.412341 
L 540.851458 131.292204 
L 541.276844 123.058285 
L 541.70223 118.34663 
L 542.127616 116.577056 
L 542.553002 120.51692 
L 543.403774 137.597011 
L 543.82916 152.619557 
L 544.679931 196.301956 
L 545.105317 209.3612 
L 545.530703 217.70189 
L 545.956089 222.328051 
L 546.381475 221.10979 
L 546.806861 216.669725 
L 547.232247 203.003316 
L 548.083019 147.984723 
L 548.508405 132.004713 
L 548.933791 130.041411 
L 549.359177 126.455393 
L 549.784563 124.596587 
L 550.635334 128.943719 
L 551.06072 125.322162 
L 551.486106 123.299038 
L 551.911492 117.915116 
L 552.336878 117.641059 
L 552.762264 122.511983 
L 553.18765 124.630468 
L 553.613036 128.807192 
L 554.038422 137.998305 
L 554.889194 172.444262 
L 555.739966 199.338589 
L 556.165352 195.260425 
L 556.590738 196.66486 
L 557.016123 193.072559 
L 557.441509 179.384988 
L 558.292281 128.795012 
L 559.143053 109.805698 
L 559.568439 116.056079 
L 559.993825 118.299489 
L 560.419211 124.744022 
L 560.844597 125.099448 
L 561.269983 122.086405 
L 562.546141 105.045707 
L 562.971527 91.619628 
L 563.396913 96.84139 
L 563.822298 103.922653 
L 564.247684 123.838325 
L 564.67307 155.502086 
L 565.098456 174.456825 
L 565.523842 185.637297 
L 565.949228 193.511859 
L 566.374614 194.268964 
L 566.8 192.64833 
L 567.225386 185.099475 
L 568.076158 137.628656 
L 568.501544 124.639025 
L 569.352316 115.735305 
L 569.777702 116.484509 
L 570.203087 107.731424 
L 570.628473 109.294241 
L 571.053859 112.08376 
L 571.479245 105.455944 
L 572.330017 86.353422 
L 572.755403 83.2084 
L 573.180789 83.327929 
L 573.606175 81.442758 
L 574.031561 91.100539 
L 574.456947 112.086343 
L 574.882333 150.682735 
L 575.307719 172.466618 
L 575.733105 184.611801 
L 576.158491 191.497253 
L 576.583877 193.771307 
L 577.009262 191.335132 
L 577.434648 184.140084 
L 577.860034 160.376247 
L 578.28542 128.04708 
L 578.710806 116.163157 
L 579.136192 118.558089 
L 579.561578 111.814213 
L 579.986964 111.843469 
L 580.41235 112.282191 
L 580.837736 111.035098 
L 581.263122 115.008111 
L 581.688508 108.800977 
L 582.113894 93.224536 
L 582.53928 83.572152 
L 582.964666 82.408047 
L 583.390051 84.147131 
L 583.815437 83.393263 
L 584.240823 89.800562 
L 584.666209 125.874285 
L 585.516981 171.911914 
L 585.942367 182.589524 
L 586.367753 189.343345 
L 586.793139 192.782159 
L 587.218525 190.991347 
L 587.643911 183.289313 
L 588.494683 127.137643 
L 589.77084 110.517127 
L 590.196226 110.731786 
L 590.621612 106.947722 
L 591.046998 112.246614 
L 591.472384 111.45686 
L 591.89777 367.324773 
L 592.323156 95.049037 
L 592.748542 86.832733 
L 593.173928 86.177078 
L 593.599314 81.732002 
L 594.0247 82.861146 
L 594.450086 91.2457 
L 594.875472 113.336982 
L 595.300858 148.83823 
L 595.726244 171.826536 
L 596.15163 184.33917 
L 597.002401 193.994561 
L 597.427787 192.609091 
L 597.853173 184.460703 
L 598.703945 123.252668 
L 599.129331 109.627696 
L 599.554717 115.39576 
L 599.980103 133.731154 
L 600.405489 108.491074 
L 600.830875 108.484829 
L 601.256261 116.780575 
L 601.681647 116.015992 
L 602.107033 110.926323 
L 602.532419 93.673819 
L 602.957804 83.153589 
L 603.38319 82.581154 
L 603.808576 86.567888 
L 604.233962 87.680728 
L 604.659348 95.872826 
L 605.084734 114.485977 
L 605.51012 149.276451 
L 605.935506 170.729269 
L 606.360892 183.876666 
L 606.786278 206.697608 
L 607.211664 193.443711 
L 607.63705 191.041147 
L 608.062436 182.884627 
L 608.913208 126.173627 
L 609.338593 114.264997 
L 609.763979 110.454376 
L 610.189365 99.051536 
L 610.614751 102.468456 
L 611.040137 103.284228 
L 611.465523 116.711232 
L 611.890909 107.092382 
L 612.316295 101.209993 
L 613.167067 86.644709 
L 613.592453 108.109476 
L 614.017839 96.723982 
L 614.443225 101.65812 
L 614.868611 110.175462 
L 615.293997 124.732382 
L 616.144768 170.006507 
L 616.570154 183.061549 
L 616.99554 191.611231 
L 617.420926 195.204419 
L 617.846312 193.784489 
L 618.271698 188.880609 
L 618.697084 173.259957 
L 619.547856 122.652172 
L 619.973242 108.634385 
L 620.398628 106.989621 
L 620.824014 116.119331 
L 621.2494 121.8963 
L 622.100172 127.542792 
L 622.525557 121.608829 
L 622.950943 112.440535 
L 623.376329 114.386607 
L 623.801715 113.64199 
L 624.227101 116.430083 
L 624.652487 118.45498 
L 625.077873 125.372271 
L 625.503259 136.205566 
L 626.354031 171.362297 
L 626.779417 183.294632 
L 627.204803 191.474858 
L 627.630189 196.823666 
L 628.055575 196.177416 
L 628.480961 192.253973 
L 628.906346 178.073448 
L 630.182504 115.832593 
L 630.60789 109.57724 
L 631.033276 110.613722 
L 631.458662 113.398307 
L 631.884048 117.616621 
L 632.309434 117.347344 
L 634.010978 97.36815 
L 634.436364 84.985876 
L 635.287136 101.12342 
L 635.712521 121.671581 
L 636.137907 152.832596 
L 636.563293 171.93373 
L 636.988679 182.439391 
L 637.414065 190.01912 
L 637.839451 192.602384 
L 638.264837 190.132713 
L 638.690223 182.843961 
L 639.115609 161.455206 
L 639.540995 124.852643 
L 640.391767 115.486958 
L 640.817153 108.655662 
L 641.242539 105.984476 
L 641.667925 101.901649 
L 642.09331 104.815785 
L 642.518696 105.848335 
L 643.794854 79.260288 
L 644.22024 103.45745 
L 644.645626 79.965589 
L 645.071012 101.476417 
L 645.496398 87.302715 
L 645.921784 109.029859 
L 646.772556 176.733692 
L 647.197942 179.369146 
L 647.623328 209.85111 
L 648.048714 190.037468 
L 648.474099 215.485808 
L 648.899485 180.770613 
L 649.324871 181.138758 
L 649.750257 129.534464 
L 650.175643 118.250536 
L 650.601029 110.996861 
L 651.026415 107.950862 
L 651.451801 116.780614 
L 651.877187 106.486181 
L 652.302573 109.021263 
L 652.727959 104.84824 
L 653.153345 101.969912 
L 653.578731 102.553487 
L 654.004117 74.037986 
L 654.429503 79.247376 
L 654.854889 79.662623 
L 655.280274 77.302652 
L 655.70566 88.537165 
L 656.131046 112.073199 
L 656.556432 146.153438 
L 656.981818 168.127734 
L 657.407204 182.500716 
L 657.83259 192.385875 
L 658.257976 188.898494 
L 658.683362 188.00278 
L 659.108748 180.196867 
L 659.534134 155.474719 
L 659.95952 122.441407 
L 660.810292 111.169968 
L 661.235678 110.307865 
L 661.661063 121.206802 
L 662.086449 104.617508 
L 662.511835 103.905577 
L 662.937221 105.734048 
L 663.362607 100.860657 
L 664.213379 79.143689 
L 664.638765 77.332525 
L 665.064151 76.092062 
L 665.489537 76.333085 
L 665.914923 82.890094 
L 666.340309 105.525287 
L 666.765695 142.661779 
L 667.191081 166.223368 
L 667.616467 208.071207 
L 668.041852 183.14419 
L 668.467238 187.736548 
L 668.892624 314.434917 
L 669.31801 186.786639 
L 669.743396 211.422947 
L 670.168782 148.554229 
L 670.594168 114.084412 
L 671.019554 115.067509 
L 671.44494 103.967057 
L 671.870326 103.190794 
L 672.295712 97.267894 
L 672.721098 119.529892 
L 673.146484 105.49607 
L 673.57187 96.810284 
L 673.997256 82.458194 
L 674.848027 66.96 
L 675.273413 71.640742 
L 675.698799 75.030372 
L 676.124185 81.965972 
L 676.549571 101.356426 
L 676.974957 139.628885 
L 677.400343 162.905085 
L 677.825729 175.367842 
L 678.676501 186.087852 
L 679.101887 185.107878 
L 679.527273 177.307091 
L 679.952659 151.81346 
L 680.378045 116.949133 
L 681.228816 97.780391 
L 681.654202 92.427459 
L 682.079588 94.307272 
L 682.504974 94.794754 
L 682.93036 94.035451 
L 683.355746 99.97774 
L 683.781132 92.355071 
L 684.206518 78.006913 
L 685.05729 71.951108 
L 685.482676 87.178137 
L 685.908062 90.67153 
L 686.333448 95.617309 
L 686.758834 110.70808 
L 687.18422 141.998261 
L 687.609605 163.146032 
L 688.034991 177.743 
L 688.460377 187.504582 
L 688.885763 191.675101 
L 689.311149 190.065143 
L 689.736535 184.252173 
L 690.161921 169.044148 
L 691.012693 114.109081 
L 691.438079 101.447509 
L 691.863465 97.131521 
L 692.288851 101.11864 
L 692.714237 111.15694 
L 693.139623 114.750975 
L 693.565009 115.416536 
L 693.990395 110.438996 
L 694.41578 106.791845 
L 694.841166 104.262776 
L 695.266552 106.158123 
L 695.691938 109.473553 
L 696.117324 110.58805 
L 696.54271 115.925873 
L 696.968096 126.746178 
L 697.818868 164.131287 
L 698.244254 177.704917 
L 698.66964 187.366012 
L 699.095026 191.920981 
L 699.520412 191.054368 
L 699.945798 187.861781 
L 700.371184 173.522064 
L 700.796569 151.439302 
L 701.221955 120.62978 
L 701.647341 104.310534 
L 702.072727 100.910034 
L 702.498113 106.148486 
L 702.923499 106.377484 
L 703.348885 111.160756 
L 703.774271 110.909286 
L 704.199657 105.548221 
L 704.625043 97.872784 
L 705.050429 92.465349 
L 705.475815 88.798 
L 705.901201 76.914039 
L 706.326587 83.512098 
L 706.751973 96.129074 
L 707.177358 115.655709 
L 707.602744 147.029957 
L 708.02813 166.30439 
L 708.453516 178.612041 
L 708.878902 186.739151 
L 709.304288 189.145376 
L 709.729674 196.078201 
L 710.15506 180.274189 
L 710.580446 155.482235 
L 711.005832 124.191168 
L 711.856604 108.442352 
L 712.707376 105.811408 
L 713.132762 100.072947 
L 713.558148 103.082636 
L 713.983533 104.759354 
L 714.408919 97.246617 
L 715.259691 72.32226 
L 715.685077 69.023173 
L 716.110463 67.645527 
L 716.535849 68.935212 
L 716.961235 81.843513 
L 717.386621 105.913245 
L 717.812007 150.132618 
L 718.237393 173.276647 
L 718.662779 186.705964 
L 719.513551 192.609515 
L 719.938937 190.659318 
L 720.364322 183.607234 
L 720.789708 158.057404 
L 721.215094 125.187794 
L 722.065866 108.208884 
L 722.491252 141.704084 
L 722.916638 105.548491 
L 723.342024 104.224616 
L 723.76741 104.314272 
L 724.192796 104.723006 
L 724.618182 98.957447 
L 725.468954 76.260004 
L 725.89434 74.186655 
L 726.319726 89.64854 
L 726.745111 72.243127 
L 727.170497 85.513213 
L 727.595883 106.857333 
L 728.021269 143.186418 
L 728.446655 169.126056 
L 728.872041 181.37982 
L 729.297427 183.963624 
L 729.722813 188.039783 
L 730.148199 188.229079 
L 730.573585 180.314044 
L 730.998971 159.717856 
L 731.424357 119.117303 
L 731.849743 112.322663 
L 732.275129 108.182519 
L 732.700515 102.751648 
L 733.125901 102.305371 
L 733.551286 98.569798 
L 733.976672 103.641157 
L 734.402058 103.500043 
L 734.827444 95.65809 
L 735.25283 78.58459 
L 735.678216 76.680918 
L 736.103602 73.986104 
L 736.528988 70.085441 
L 736.954374 73.382832 
L 737.37976 83.417585 
L 737.805146 104.993478 
L 739.081304 182.663608 
L 739.50669 185.406565 
L 739.932075 190.859406 
L 740.357461 189.881745 
L 740.782847 181.165624 
L 741.208233 153.549654 
L 741.633619 118.031175 
L 742.059005 106.093405 
L 742.484391 107.123219 
L 742.909777 103.555895 
L 743.335163 97.166712 
L 743.760549 102.94291 
L 744.185935 101.407421 
L 744.611321 102.136505 
L 745.036707 94.296788 
L 745.462093 78.909488 
L 745.887479 69.708006 
L 746.73825 73.043904 
L 747.163636 76.882509 
L 747.163636 76.882509 
" style="fill:none;stroke:#1f77b4;stroke-linecap:square;stroke-width:1.5;"/>
   </g>
   <g id="line2d_19">
    <path clip-path="url(#p3aa54a5f38)" d="M 746.73825 384.48 
L 746.73825 51.84 
" style="fill:none;stroke:#808080;stroke-linecap:square;"/>
   </g>
   <g id="patch_88">
    <path d="M 108 384.48 
L 108 51.84 
" style="fill:none;stroke:#000000;stroke-linecap:square;stroke-linejoin:miter;stroke-width:0.8;"/>
   </g>
   <g id="patch_89">
    <path d="M 777.6 384.48 
L 777.6 51.84 
" style="fill:none;stroke:#000000;stroke-linecap:square;stroke-linejoin:miter;stroke-width:0.8;"/>
   </g>
   <g id="patch_90">
    <path d="M 108 384.48 
L 777.6 384.48 
" style="fill:none;stroke:#000000;stroke-linecap:square;stroke-linejoin:miter;stroke-width:0.8;"/>
   </g>
   <g id="patch_91">
    <path d="M 108 51.84 
L 777.6 51.84 
" style="fill:none;stroke:#000000;stroke-linecap:square;stroke-linejoin:miter;stroke-width:0.8;"/>
   </g>
   <g id="text_20">
    <!-- real_52.csv -->
    <defs>
     <path d="M 41.109375 46.296875 
Q 39.59375 47.171875 37.8125 47.578125 
Q 36.03125 48 33.890625 48 
Q 26.265625 48 22.1875 43.046875 
Q 18.109375 38.09375 18.109375 28.8125 
L 18.109375 0 
L 9.078125 0 
L 9.078125 54.6875 
L 18.109375 54.6875 
L 18.109375 46.1875 
Q 20.953125 51.171875 25.484375 53.578125 
Q 30.03125 56 36.53125 56 
Q 37.453125 56 38.578125 55.875 
Q 39.703125 55.765625 41.0625 55.515625 
z
" id="DejaVuSans-114"/>
     <path d="M 50.984375 -16.609375 
L 50.984375 -23.578125 
L -0.984375 -23.578125 
L -0.984375 -16.609375 
z
" id="DejaVuSans-95"/>
     <path d="M 10.6875 12.40625 
L 21 12.40625 
L 21 0 
L 10.6875 0 
z
" id="DejaVuSans-46"/>
     <path d="M 48.78125 52.59375 
L 48.78125 44.1875 
Q 44.96875 46.296875 41.140625 47.34375 
Q 37.3125 48.390625 33.40625 48.390625 
Q 24.65625 48.390625 19.8125 42.84375 
Q 14.984375 37.3125 14.984375 27.296875 
Q 14.984375 17.28125 19.8125 11.734375 
Q 24.65625 6.203125 33.40625 6.203125 
Q 37.3125 6.203125 41.140625 7.25 
Q 44.96875 8.296875 48.78125 10.40625 
L 48.78125 2.09375 
Q 45.015625 0.34375 40.984375 -0.53125 
Q 36.96875 -1.421875 32.421875 -1.421875 
Q 20.0625 -1.421875 12.78125 6.34375 
Q 5.515625 14.109375 5.515625 27.296875 
Q 5.515625 40.671875 12.859375 48.328125 
Q 20.21875 56 33.015625 56 
Q 37.15625 56 41.109375 55.140625 
Q 45.0625 54.296875 48.78125 52.59375 
z
" id="DejaVuSans-99"/>
     <path d="M 2.984375 54.6875 
L 12.5 54.6875 
L 29.59375 8.796875 
L 46.6875 54.6875 
L 56.203125 54.6875 
L 35.6875 0 
L 23.484375 0 
z
" id="DejaVuSans-118"/>
    </defs>
    <g transform="translate(408.781875 45.84)scale(0.12 -0.12)">
     <use xlink:href="#DejaVuSans-114"/>
     <use x="41.082031" xlink:href="#DejaVuSans-101"/>
     <use x="102.605469" xlink:href="#DejaVuSans-97"/>
     <use x="163.884766" xlink:href="#DejaVuSans-108"/>
     <use x="191.667969" xlink:href="#DejaVuSans-95"/>
     <use x="241.667969" xlink:href="#DejaVuSans-53"/>
     <use x="305.291016" xlink:href="#DejaVuSans-50"/>
     <use x="368.914062" xlink:href="#DejaVuSans-46"/>
     <use x="400.701172" xlink:href="#DejaVuSans-99"/>
     <use x="455.681641" xlink:href="#DejaVuSans-115"/>
     <use x="507.78125" xlink:href="#DejaVuSans-118"/>
    </g>
   </g>
   <g id="legend_1">
    <g id="patch_92">
     <path d="M 115 74.518125 
L 174.315625 74.518125 
Q 176.315625 74.518125 176.315625 72.518125 
L 176.315625 58.84 
Q 176.315625 56.84 174.315625 56.84 
L 115 56.84 
Q 113 56.84 113 58.84 
L 113 72.518125 
Q 113 74.518125 115 74.518125 
z
" style="fill:#ffffff;opacity:0.8;stroke:#cccccc;stroke-linejoin:miter;"/>
    </g>
    <g id="line2d_20">
     <path d="M 117 64.938438 
L 137 64.938438 
" style="fill:none;stroke:#1f77b4;stroke-linecap:square;stroke-width:1.5;"/>
    </g>
    <g id="line2d_21"/>
    <g id="text_21">
     <!-- value -->
     <g transform="translate(145 68.438438)scale(0.1 -0.1)">
      <use xlink:href="#DejaVuSans-118"/>
      <use x="59.179688" xlink:href="#DejaVuSans-97"/>
      <use x="120.458984" xlink:href="#DejaVuSans-108"/>
      <use x="148.242188" xlink:href="#DejaVuSans-117"/>
      <use x="211.621094" xlink:href="#DejaVuSans-101"/>
     </g>
    </g>
   </g>
  </g>
 </g>
 <defs>
  <clipPath id="p3aa54a5f38">
   <rect height="332.64" width="669.6" x="108" y="51.84"/>
  </clipPath>
 </defs>
</svg>
