<?xml version="1.0" encoding="utf-8" standalone="no"?>
<!DOCTYPE svg PUBLIC "-//W3C//DTD SVG 1.1//EN"
  "http://www.w3.org/Graphics/SVG/1.1/DTD/svg11.dtd">
<!-- Created with matplotlib (https://matplotlib.org/) -->
<svg height="432pt" version="1.1" viewBox="0 0 864 432" width="864pt" xmlns="http://www.w3.org/2000/svg" xmlns:xlink="http://www.w3.org/1999/xlink">
 <defs>
  <style type="text/css">
*{stroke-linecap:butt;stroke-linejoin:round;}
  </style>
 </defs>
 <g id="figure_1">
  <g id="patch_1">
   <path d="M 0 432 
L 864 432 
L 864 0 
L 0 0 
z
" style="fill:#ffffff;"/>
  </g>
  <g id="axes_1">
   <g id="patch_2">
    <path d="M 108 384.48 
L 777.6 384.48 
L 777.6 51.84 
L 108 51.84 
z
" style="fill:#ffffff;"/>
   </g>
   <g id="patch_3">
    <path clip-path="url(#p9962697ebc)" d="M 138.436364 384.48 
L 138.436364 51.84 
L 379.390909 51.84 
L 379.390909 384.48 
z
" style="fill:#0000ff;opacity:0.05;"/>
   </g>
   <g id="patch_4">
    <path clip-path="url(#p9962697ebc)" d="M 379.390909 384.48 
L 379.390909 51.84 
L 747.163636 51.84 
L 747.163636 384.48 
z
" style="fill:#ff0000;opacity:0.08;"/>
   </g>
   <g id="patch_5">
    <path clip-path="url(#p9962697ebc)" d="M 138.436364 384.48 
L 138.436364 51.84 
L 142.663636 51.84 
L 142.663636 384.48 
z
" style="fill:#008000;opacity:0.04;"/>
   </g>
   <g id="patch_6">
    <path clip-path="url(#p9962697ebc)" d="M 146.890909 384.48 
L 146.890909 51.84 
L 151.118182 51.84 
L 151.118182 384.48 
z
" style="fill:#008000;opacity:0.04;"/>
   </g>
   <g id="patch_7">
    <path clip-path="url(#p9962697ebc)" d="M 146.890909 384.48 
L 146.890909 371.1744 
L 151.118182 371.1744 
L 151.118182 384.48 
z
" style="fill:#ffe500;"/>
   </g>
   <g id="patch_8">
    <path clip-path="url(#p9962697ebc)" d="M 151.118182 384.48 
L 151.118182 371.1744 
L 155.345455 371.1744 
L 155.345455 384.48 
z
" style="fill:#ffe500;"/>
   </g>
   <g id="patch_9">
    <path clip-path="url(#p9962697ebc)" d="M 155.345455 384.48 
L 155.345455 51.84 
L 159.572727 51.84 
L 159.572727 384.48 
z
" style="fill:#008000;opacity:0.04;"/>
   </g>
   <g id="patch_10">
    <path clip-path="url(#p9962697ebc)" d="M 163.8 384.48 
L 163.8 51.84 
L 168.027273 51.84 
L 168.027273 384.48 
z
" style="fill:#008000;opacity:0.04;"/>
   </g>
   <g id="patch_11">
    <path clip-path="url(#p9962697ebc)" d="M 172.254545 384.48 
L 172.254545 51.84 
L 176.481818 51.84 
L 176.481818 384.48 
z
" style="fill:#008000;opacity:0.04;"/>
   </g>
   <g id="patch_12">
    <path clip-path="url(#p9962697ebc)" d="M 180.709091 384.48 
L 180.709091 51.84 
L 184.936364 51.84 
L 184.936364 384.48 
z
" style="fill:#008000;opacity:0.04;"/>
   </g>
   <g id="patch_13">
    <path clip-path="url(#p9962697ebc)" d="M 189.163636 384.48 
L 189.163636 51.84 
L 193.390909 51.84 
L 193.390909 384.48 
z
" style="fill:#008000;opacity:0.04;"/>
   </g>
   <g id="patch_14">
    <path clip-path="url(#p9962697ebc)" d="M 197.618182 384.48 
L 197.618182 51.84 
L 201.845455 51.84 
L 201.845455 384.48 
z
" style="fill:#008000;opacity:0.04;"/>
   </g>
   <g id="patch_15">
    <path clip-path="url(#p9962697ebc)" d="M 206.072727 384.48 
L 206.072727 51.84 
L 210.3 51.84 
L 210.3 384.48 
z
" style="fill:#008000;opacity:0.04;"/>
   </g>
   <g id="patch_16">
    <path clip-path="url(#p9962697ebc)" d="M 214.527273 384.48 
L 214.527273 51.84 
L 218.754545 51.84 
L 218.754545 384.48 
z
" style="fill:#008000;opacity:0.04;"/>
   </g>
   <g id="patch_17">
    <path clip-path="url(#p9962697ebc)" d="M 214.527273 384.48 
L 214.527273 371.1744 
L 218.754545 371.1744 
L 218.754545 384.48 
z
" style="fill:#ffe500;"/>
   </g>
   <g id="patch_18">
    <path clip-path="url(#p9962697ebc)" d="M 222.981818 384.48 
L 222.981818 51.84 
L 227.209091 51.84 
L 227.209091 384.48 
z
" style="fill:#008000;opacity:0.04;"/>
   </g>
   <g id="patch_19">
    <path clip-path="url(#p9962697ebc)" d="M 231.436364 384.48 
L 231.436364 51.84 
L 235.663636 51.84 
L 235.663636 384.48 
z
" style="fill:#008000;opacity:0.04;"/>
   </g>
   <g id="patch_20">
    <path clip-path="url(#p9962697ebc)" d="M 235.663636 384.48 
L 235.663636 371.1744 
L 239.890909 371.1744 
L 239.890909 384.48 
z
" style="fill:#ffe500;"/>
   </g>
   <g id="patch_21">
    <path clip-path="url(#p9962697ebc)" d="M 239.890909 384.48 
L 239.890909 51.84 
L 244.118182 51.84 
L 244.118182 384.48 
z
" style="fill:#008000;opacity:0.04;"/>
   </g>
   <g id="patch_22">
    <path clip-path="url(#p9962697ebc)" d="M 248.345455 384.48 
L 248.345455 51.84 
L 252.572727 51.84 
L 252.572727 384.48 
z
" style="fill:#008000;opacity:0.04;"/>
   </g>
   <g id="patch_23">
    <path clip-path="url(#p9962697ebc)" d="M 256.8 384.48 
L 256.8 51.84 
L 261.027273 51.84 
L 261.027273 384.48 
z
" style="fill:#008000;opacity:0.04;"/>
   </g>
   <g id="patch_24">
    <path clip-path="url(#p9962697ebc)" d="M 265.254545 384.48 
L 265.254545 51.84 
L 269.481818 51.84 
L 269.481818 384.48 
z
" style="fill:#008000;opacity:0.04;"/>
   </g>
   <g id="patch_25">
    <path clip-path="url(#p9962697ebc)" d="M 510.436364 384.48 
L 510.436364 371.1744 
L 514.663636 371.1744 
L 514.663636 384.48 
z
" style="fill:#ff6600;"/>
   </g>
   <g id="patch_26">
    <path clip-path="url(#p9962697ebc)" d="M 273.709091 384.48 
L 273.709091 51.84 
L 277.936364 51.84 
L 277.936364 384.48 
z
" style="fill:#008000;opacity:0.04;"/>
   </g>
   <g id="patch_27">
    <path clip-path="url(#p9962697ebc)" d="M 282.163636 384.48 
L 282.163636 51.84 
L 286.390909 51.84 
L 286.390909 384.48 
z
" style="fill:#008000;opacity:0.04;"/>
   </g>
   <g id="patch_28">
    <path clip-path="url(#p9962697ebc)" d="M 290.618182 384.48 
L 290.618182 51.84 
L 294.845455 51.84 
L 294.845455 384.48 
z
" style="fill:#008000;opacity:0.04;"/>
   </g>
   <g id="patch_29">
    <path clip-path="url(#p9962697ebc)" d="M 299.072727 384.48 
L 299.072727 51.84 
L 303.3 51.84 
L 303.3 384.48 
z
" style="fill:#008000;opacity:0.04;"/>
   </g>
   <g id="patch_30">
    <path clip-path="url(#p9962697ebc)" d="M 307.527273 384.48 
L 307.527273 51.84 
L 311.754545 51.84 
L 311.754545 384.48 
z
" style="fill:#008000;opacity:0.04;"/>
   </g>
   <g id="patch_31">
    <path clip-path="url(#p9962697ebc)" d="M 315.981818 384.48 
L 315.981818 51.84 
L 320.209091 51.84 
L 320.209091 384.48 
z
" style="fill:#008000;opacity:0.04;"/>
   </g>
   <g id="patch_32">
    <path clip-path="url(#p9962697ebc)" d="M 315.981818 384.48 
L 315.981818 371.1744 
L 320.209091 371.1744 
L 320.209091 384.48 
z
" style="fill:#ffe500;"/>
   </g>
   <g id="patch_33">
    <path clip-path="url(#p9962697ebc)" d="M 324.436364 384.48 
L 324.436364 51.84 
L 328.663636 51.84 
L 328.663636 384.48 
z
" style="fill:#008000;opacity:0.04;"/>
   </g>
   <g id="patch_34">
    <path clip-path="url(#p9962697ebc)" d="M 332.890909 384.48 
L 332.890909 51.84 
L 337.118182 51.84 
L 337.118182 384.48 
z
" style="fill:#008000;opacity:0.04;"/>
   </g>
   <g id="patch_35">
    <path clip-path="url(#p9962697ebc)" d="M 341.345455 384.48 
L 341.345455 51.84 
L 345.572727 51.84 
L 345.572727 384.48 
z
" style="fill:#008000;opacity:0.04;"/>
   </g>
   <g id="patch_36">
    <path clip-path="url(#p9962697ebc)" d="M 349.8 384.48 
L 349.8 51.84 
L 354.027273 51.84 
L 354.027273 384.48 
z
" style="fill:#008000;opacity:0.04;"/>
   </g>
   <g id="patch_37">
    <path clip-path="url(#p9962697ebc)" d="M 358.254545 384.48 
L 358.254545 51.84 
L 362.481818 51.84 
L 362.481818 384.48 
z
" style="fill:#008000;opacity:0.04;"/>
   </g>
   <g id="patch_38">
    <path clip-path="url(#p9962697ebc)" d="M 366.709091 384.48 
L 366.709091 51.84 
L 370.936364 51.84 
L 370.936364 384.48 
z
" style="fill:#008000;opacity:0.04;"/>
   </g>
   <g id="patch_39">
    <path clip-path="url(#p9962697ebc)" d="M 375.163636 384.48 
L 375.163636 51.84 
L 379.390909 51.84 
L 379.390909 384.48 
z
" style="fill:#008000;opacity:0.04;"/>
   </g>
   <g id="patch_40">
    <path clip-path="url(#p9962697ebc)" d="M 383.618182 384.48 
L 383.618182 51.84 
L 387.845455 51.84 
L 387.845455 384.48 
z
" style="fill:#008000;opacity:0.04;"/>
   </g>
   <g id="patch_41">
    <path clip-path="url(#p9962697ebc)" d="M 392.072727 384.48 
L 392.072727 51.84 
L 396.3 51.84 
L 396.3 384.48 
z
" style="fill:#008000;opacity:0.04;"/>
   </g>
   <g id="patch_42">
    <path clip-path="url(#p9962697ebc)" d="M 633.027273 384.48 
L 633.027273 371.1744 
L 637.254545 371.1744 
L 637.254545 384.48 
z
" style="fill:#ff6600;"/>
   </g>
   <g id="patch_43">
    <path clip-path="url(#p9962697ebc)" d="M 400.527273 384.48 
L 400.527273 51.84 
L 404.754545 51.84 
L 404.754545 384.48 
z
" style="fill:#008000;opacity:0.04;"/>
   </g>
   <g id="patch_44">
    <path clip-path="url(#p9962697ebc)" d="M 408.981818 384.48 
L 408.981818 51.84 
L 413.209091 51.84 
L 413.209091 384.48 
z
" style="fill:#008000;opacity:0.04;"/>
   </g>
   <g id="patch_45">
    <path clip-path="url(#p9962697ebc)" d="M 417.436364 384.48 
L 417.436364 51.84 
L 421.663636 51.84 
L 421.663636 384.48 
z
" style="fill:#008000;opacity:0.04;"/>
   </g>
   <g id="patch_46">
    <path clip-path="url(#p9962697ebc)" d="M 425.890909 384.48 
L 425.890909 51.84 
L 430.118182 51.84 
L 430.118182 384.48 
z
" style="fill:#008000;opacity:0.04;"/>
   </g>
   <g id="patch_47">
    <path clip-path="url(#p9962697ebc)" d="M 434.345455 384.48 
L 434.345455 51.84 
L 438.572727 51.84 
L 438.572727 384.48 
z
" style="fill:#008000;opacity:0.04;"/>
   </g>
   <g id="patch_48">
    <path clip-path="url(#p9962697ebc)" d="M 442.8 384.48 
L 442.8 51.84 
L 447.027273 51.84 
L 447.027273 384.48 
z
" style="fill:#008000;opacity:0.04;"/>
   </g>
   <g id="patch_49">
    <path clip-path="url(#p9962697ebc)" d="M 451.254545 384.48 
L 451.254545 51.84 
L 455.481818 51.84 
L 455.481818 384.48 
z
" style="fill:#008000;opacity:0.04;"/>
   </g>
   <g id="patch_50">
    <path clip-path="url(#p9962697ebc)" d="M 459.709091 384.48 
L 459.709091 51.84 
L 463.936364 51.84 
L 463.936364 384.48 
z
" style="fill:#008000;opacity:0.04;"/>
   </g>
   <g id="patch_51">
    <path clip-path="url(#p9962697ebc)" d="M 468.163636 384.48 
L 468.163636 51.84 
L 472.390909 51.84 
L 472.390909 384.48 
z
" style="fill:#008000;opacity:0.04;"/>
   </g>
   <g id="patch_52">
    <path clip-path="url(#p9962697ebc)" d="M 476.618182 384.48 
L 476.618182 51.84 
L 480.845455 51.84 
L 480.845455 384.48 
z
" style="fill:#008000;opacity:0.04;"/>
   </g>
   <g id="patch_53">
    <path clip-path="url(#p9962697ebc)" d="M 485.072727 384.48 
L 485.072727 51.84 
L 489.3 51.84 
L 489.3 384.48 
z
" style="fill:#008000;opacity:0.04;"/>
   </g>
   <g id="patch_54">
    <path clip-path="url(#p9962697ebc)" d="M 493.527273 384.48 
L 493.527273 51.84 
L 497.754545 51.84 
L 497.754545 384.48 
z
" style="fill:#008000;opacity:0.04;"/>
   </g>
   <g id="patch_55">
    <path clip-path="url(#p9962697ebc)" d="M 501.981818 384.48 
L 501.981818 51.84 
L 506.209091 51.84 
L 506.209091 384.48 
z
" style="fill:#008000;opacity:0.04;"/>
   </g>
   <g id="patch_56">
    <path clip-path="url(#p9962697ebc)" d="M 510.436364 384.48 
L 510.436364 51.84 
L 514.663636 51.84 
L 514.663636 384.48 
z
" style="fill:#008000;opacity:0.04;"/>
   </g>
   <g id="patch_57">
    <path clip-path="url(#p9962697ebc)" d="M 518.890909 384.48 
L 518.890909 51.84 
L 523.118182 51.84 
L 523.118182 384.48 
z
" style="fill:#008000;opacity:0.04;"/>
   </g>
   <g id="patch_58">
    <path clip-path="url(#p9962697ebc)" d="M 527.345455 384.48 
L 527.345455 51.84 
L 531.572727 51.84 
L 531.572727 384.48 
z
" style="fill:#008000;opacity:0.04;"/>
   </g>
   <g id="patch_59">
    <path clip-path="url(#p9962697ebc)" d="M 535.8 384.48 
L 535.8 51.84 
L 540.027273 51.84 
L 540.027273 384.48 
z
" style="fill:#008000;opacity:0.04;"/>
   </g>
   <g id="patch_60">
    <path clip-path="url(#p9962697ebc)" d="M 544.254545 384.48 
L 544.254545 51.84 
L 548.481818 51.84 
L 548.481818 384.48 
z
" style="fill:#008000;opacity:0.04;"/>
   </g>
   <g id="patch_61">
    <path clip-path="url(#p9962697ebc)" d="M 552.709091 384.48 
L 552.709091 51.84 
L 556.936364 51.84 
L 556.936364 384.48 
z
" style="fill:#008000;opacity:0.04;"/>
   </g>
   <g id="patch_62">
    <path clip-path="url(#p9962697ebc)" d="M 561.163636 384.48 
L 561.163636 51.84 
L 565.390909 51.84 
L 565.390909 384.48 
z
" style="fill:#008000;opacity:0.04;"/>
   </g>
   <g id="patch_63">
    <path clip-path="url(#p9962697ebc)" d="M 569.618182 384.48 
L 569.618182 51.84 
L 573.845455 51.84 
L 573.845455 384.48 
z
" style="fill:#008000;opacity:0.04;"/>
   </g>
   <g id="patch_64">
    <path clip-path="url(#p9962697ebc)" d="M 578.072727 384.48 
L 578.072727 51.84 
L 582.3 51.84 
L 582.3 384.48 
z
" style="fill:#008000;opacity:0.04;"/>
   </g>
   <g id="patch_65">
    <path clip-path="url(#p9962697ebc)" d="M 586.527273 384.48 
L 586.527273 51.84 
L 590.754545 51.84 
L 590.754545 384.48 
z
" style="fill:#008000;opacity:0.04;"/>
   </g>
   <g id="patch_66">
    <path clip-path="url(#p9962697ebc)" d="M 594.981818 384.48 
L 594.981818 51.84 
L 599.209091 51.84 
L 599.209091 384.48 
z
" style="fill:#008000;opacity:0.04;"/>
   </g>
   <g id="patch_67">
    <path clip-path="url(#p9962697ebc)" d="M 603.436364 384.48 
L 603.436364 51.84 
L 607.663636 51.84 
L 607.663636 384.48 
z
" style="fill:#008000;opacity:0.04;"/>
   </g>
   <g id="patch_68">
    <path clip-path="url(#p9962697ebc)" d="M 611.890909 384.48 
L 611.890909 51.84 
L 616.118182 51.84 
L 616.118182 384.48 
z
" style="fill:#008000;opacity:0.04;"/>
   </g>
   <g id="patch_69">
    <path clip-path="url(#p9962697ebc)" d="M 620.345455 384.48 
L 620.345455 51.84 
L 624.572727 51.84 
L 624.572727 384.48 
z
" style="fill:#008000;opacity:0.04;"/>
   </g>
   <g id="patch_70">
    <path clip-path="url(#p9962697ebc)" d="M 628.8 384.48 
L 628.8 51.84 
L 633.027273 51.84 
L 633.027273 384.48 
z
" style="fill:#008000;opacity:0.04;"/>
   </g>
   <g id="patch_71">
    <path clip-path="url(#p9962697ebc)" d="M 637.254545 384.48 
L 637.254545 51.84 
L 641.481818 51.84 
L 641.481818 384.48 
z
" style="fill:#008000;opacity:0.04;"/>
   </g>
   <g id="patch_72">
    <path clip-path="url(#p9962697ebc)" d="M 645.709091 384.48 
L 645.709091 51.84 
L 649.936364 51.84 
L 649.936364 384.48 
z
" style="fill:#008000;opacity:0.04;"/>
   </g>
   <g id="patch_73">
    <path clip-path="url(#p9962697ebc)" d="M 654.163636 384.48 
L 654.163636 51.84 
L 658.390909 51.84 
L 658.390909 384.48 
z
" style="fill:#008000;opacity:0.04;"/>
   </g>
   <g id="patch_74">
    <path clip-path="url(#p9962697ebc)" d="M 662.618182 384.48 
L 662.618182 51.84 
L 666.845455 51.84 
L 666.845455 384.48 
z
" style="fill:#008000;opacity:0.04;"/>
   </g>
   <g id="patch_75">
    <path clip-path="url(#p9962697ebc)" d="M 671.072727 384.48 
L 671.072727 51.84 
L 675.3 51.84 
L 675.3 384.48 
z
" style="fill:#008000;opacity:0.04;"/>
   </g>
   <g id="patch_76">
    <path clip-path="url(#p9962697ebc)" d="M 679.527273 384.48 
L 679.527273 51.84 
L 683.754545 51.84 
L 683.754545 384.48 
z
" style="fill:#008000;opacity:0.04;"/>
   </g>
   <g id="patch_77">
    <path clip-path="url(#p9962697ebc)" d="M 687.981818 384.48 
L 687.981818 51.84 
L 692.209091 51.84 
L 692.209091 384.48 
z
" style="fill:#008000;opacity:0.04;"/>
   </g>
   <g id="patch_78">
    <path clip-path="url(#p9962697ebc)" d="M 696.436364 384.48 
L 696.436364 51.84 
L 700.663636 51.84 
L 700.663636 384.48 
z
" style="fill:#008000;opacity:0.04;"/>
   </g>
   <g id="patch_79">
    <path clip-path="url(#p9962697ebc)" d="M 704.890909 384.48 
L 704.890909 51.84 
L 709.118182 51.84 
L 709.118182 384.48 
z
" style="fill:#008000;opacity:0.04;"/>
   </g>
   <g id="patch_80">
    <path clip-path="url(#p9962697ebc)" d="M 713.345455 384.48 
L 713.345455 51.84 
L 717.572727 51.84 
L 717.572727 384.48 
z
" style="fill:#008000;opacity:0.04;"/>
   </g>
   <g id="patch_81">
    <path clip-path="url(#p9962697ebc)" d="M 721.8 384.48 
L 721.8 51.84 
L 726.027273 51.84 
L 726.027273 384.48 
z
" style="fill:#008000;opacity:0.04;"/>
   </g>
   <g id="patch_82">
    <path clip-path="url(#p9962697ebc)" d="M 730.254545 384.48 
L 730.254545 51.84 
L 734.481818 51.84 
L 734.481818 384.48 
z
" style="fill:#008000;opacity:0.04;"/>
   </g>
   <g id="patch_83">
    <path clip-path="url(#p9962697ebc)" d="M 738.709091 384.48 
L 738.709091 51.84 
L 742.936364 51.84 
L 742.936364 384.48 
z
" style="fill:#008000;opacity:0.04;"/>
   </g>
   <g id="patch_84">
    <path clip-path="url(#p9962697ebc)" d="M 742.936364 371.1744 
L 742.936364 51.84 
L 747.163636 51.84 
L 747.163636 371.1744 
z
" style="fill:#008000;opacity:0.5;"/>
   </g>
   <g id="matplotlib.axis_1">
    <g id="xtick_1">
     <g id="line2d_1">
      <defs>
       <path d="M 0 0 
L 0 3.5 
" id="mbd9175f06d" style="stroke:#000000;stroke-width:0.8;"/>
      </defs>
      <g>
       <use style="stroke:#000000;stroke-width:0.8;" x="138.436364" xlink:href="#mbd9175f06d" y="384.48"/>
      </g>
     </g>
     <g id="text_1">
      <!-- 0 -->
      <defs>
       <path d="M 31.78125 66.40625 
Q 24.171875 66.40625 20.328125 58.90625 
Q 16.5 51.421875 16.5 36.375 
Q 16.5 21.390625 20.328125 13.890625 
Q 24.171875 6.390625 31.78125 6.390625 
Q 39.453125 6.390625 43.28125 13.890625 
Q 47.125 21.390625 47.125 36.375 
Q 47.125 51.421875 43.28125 58.90625 
Q 39.453125 66.40625 31.78125 66.40625 
z
M 31.78125 74.21875 
Q 44.046875 74.21875 50.515625 64.515625 
Q 56.984375 54.828125 56.984375 36.375 
Q 56.984375 17.96875 50.515625 8.265625 
Q 44.046875 -1.421875 31.78125 -1.421875 
Q 19.53125 -1.421875 13.0625 8.265625 
Q 6.59375 17.96875 6.59375 36.375 
Q 6.59375 54.828125 13.0625 64.515625 
Q 19.53125 74.21875 31.78125 74.21875 
z
" id="DejaVuSans-48"/>
      </defs>
      <g transform="translate(135.255114 399.078438)scale(0.1 -0.1)">
       <use xlink:href="#DejaVuSans-48"/>
      </g>
     </g>
    </g>
    <g id="xtick_2">
     <g id="line2d_2">
      <g>
       <use style="stroke:#000000;stroke-width:0.8;" x="222.981818" xlink:href="#mbd9175f06d" y="384.48"/>
      </g>
     </g>
     <g id="text_2">
      <!-- 200 -->
      <defs>
       <path d="M 19.1875 8.296875 
L 53.609375 8.296875 
L 53.609375 0 
L 7.328125 0 
L 7.328125 8.296875 
Q 12.9375 14.109375 22.625 23.890625 
Q 32.328125 33.6875 34.8125 36.53125 
Q 39.546875 41.84375 41.421875 45.53125 
Q 43.3125 49.21875 43.3125 52.78125 
Q 43.3125 58.59375 39.234375 62.25 
Q 35.15625 65.921875 28.609375 65.921875 
Q 23.96875 65.921875 18.8125 64.3125 
Q 13.671875 62.703125 7.8125 59.421875 
L 7.8125 69.390625 
Q 13.765625 71.78125 18.9375 73 
Q 24.125 74.21875 28.421875 74.21875 
Q 39.75 74.21875 46.484375 68.546875 
Q 53.21875 62.890625 53.21875 53.421875 
Q 53.21875 48.921875 51.53125 44.890625 
Q 49.859375 40.875 45.40625 35.40625 
Q 44.1875 33.984375 37.640625 27.21875 
Q 31.109375 20.453125 19.1875 8.296875 
z
" id="DejaVuSans-50"/>
      </defs>
      <g transform="translate(213.438068 399.078438)scale(0.1 -0.1)">
       <use xlink:href="#DejaVuSans-50"/>
       <use x="63.623047" xlink:href="#DejaVuSans-48"/>
       <use x="127.246094" xlink:href="#DejaVuSans-48"/>
      </g>
     </g>
    </g>
    <g id="xtick_3">
     <g id="line2d_3">
      <g>
       <use style="stroke:#000000;stroke-width:0.8;" x="307.527273" xlink:href="#mbd9175f06d" y="384.48"/>
      </g>
     </g>
     <g id="text_3">
      <!-- 400 -->
      <defs>
       <path d="M 37.796875 64.3125 
L 12.890625 25.390625 
L 37.796875 25.390625 
z
M 35.203125 72.90625 
L 47.609375 72.90625 
L 47.609375 25.390625 
L 58.015625 25.390625 
L 58.015625 17.1875 
L 47.609375 17.1875 
L 47.609375 0 
L 37.796875 0 
L 37.796875 17.1875 
L 4.890625 17.1875 
L 4.890625 26.703125 
z
" id="DejaVuSans-52"/>
      </defs>
      <g transform="translate(297.983523 399.078438)scale(0.1 -0.1)">
       <use xlink:href="#DejaVuSans-52"/>
       <use x="63.623047" xlink:href="#DejaVuSans-48"/>
       <use x="127.246094" xlink:href="#DejaVuSans-48"/>
      </g>
     </g>
    </g>
    <g id="xtick_4">
     <g id="line2d_4">
      <g>
       <use style="stroke:#000000;stroke-width:0.8;" x="392.072727" xlink:href="#mbd9175f06d" y="384.48"/>
      </g>
     </g>
     <g id="text_4">
      <!-- 600 -->
      <defs>
       <path d="M 33.015625 40.375 
Q 26.375 40.375 22.484375 35.828125 
Q 18.609375 31.296875 18.609375 23.390625 
Q 18.609375 15.53125 22.484375 10.953125 
Q 26.375 6.390625 33.015625 6.390625 
Q 39.65625 6.390625 43.53125 10.953125 
Q 47.40625 15.53125 47.40625 23.390625 
Q 47.40625 31.296875 43.53125 35.828125 
Q 39.65625 40.375 33.015625 40.375 
z
M 52.59375 71.296875 
L 52.59375 62.3125 
Q 48.875 64.0625 45.09375 64.984375 
Q 41.3125 65.921875 37.59375 65.921875 
Q 27.828125 65.921875 22.671875 59.328125 
Q 17.53125 52.734375 16.796875 39.40625 
Q 19.671875 43.65625 24.015625 45.921875 
Q 28.375 48.1875 33.59375 48.1875 
Q 44.578125 48.1875 50.953125 41.515625 
Q 57.328125 34.859375 57.328125 23.390625 
Q 57.328125 12.15625 50.6875 5.359375 
Q 44.046875 -1.421875 33.015625 -1.421875 
Q 20.359375 -1.421875 13.671875 8.265625 
Q 6.984375 17.96875 6.984375 36.375 
Q 6.984375 53.65625 15.1875 63.9375 
Q 23.390625 74.21875 37.203125 74.21875 
Q 40.921875 74.21875 44.703125 73.484375 
Q 48.484375 72.75 52.59375 71.296875 
z
" id="DejaVuSans-54"/>
      </defs>
      <g transform="translate(382.528977 399.078438)scale(0.1 -0.1)">
       <use xlink:href="#DejaVuSans-54"/>
       <use x="63.623047" xlink:href="#DejaVuSans-48"/>
       <use x="127.246094" xlink:href="#DejaVuSans-48"/>
      </g>
     </g>
    </g>
    <g id="xtick_5">
     <g id="line2d_5">
      <g>
       <use style="stroke:#000000;stroke-width:0.8;" x="476.618182" xlink:href="#mbd9175f06d" y="384.48"/>
      </g>
     </g>
     <g id="text_5">
      <!-- 800 -->
      <defs>
       <path d="M 31.78125 34.625 
Q 24.75 34.625 20.71875 30.859375 
Q 16.703125 27.09375 16.703125 20.515625 
Q 16.703125 13.921875 20.71875 10.15625 
Q 24.75 6.390625 31.78125 6.390625 
Q 38.8125 6.390625 42.859375 10.171875 
Q 46.921875 13.96875 46.921875 20.515625 
Q 46.921875 27.09375 42.890625 30.859375 
Q 38.875 34.625 31.78125 34.625 
z
M 21.921875 38.8125 
Q 15.578125 40.375 12.03125 44.71875 
Q 8.5 49.078125 8.5 55.328125 
Q 8.5 64.0625 14.71875 69.140625 
Q 20.953125 74.21875 31.78125 74.21875 
Q 42.671875 74.21875 48.875 69.140625 
Q 55.078125 64.0625 55.078125 55.328125 
Q 55.078125 49.078125 51.53125 44.71875 
Q 48 40.375 41.703125 38.8125 
Q 48.828125 37.15625 52.796875 32.3125 
Q 56.78125 27.484375 56.78125 20.515625 
Q 56.78125 9.90625 50.3125 4.234375 
Q 43.84375 -1.421875 31.78125 -1.421875 
Q 19.734375 -1.421875 13.25 4.234375 
Q 6.78125 9.90625 6.78125 20.515625 
Q 6.78125 27.484375 10.78125 32.3125 
Q 14.796875 37.15625 21.921875 38.8125 
z
M 18.3125 54.390625 
Q 18.3125 48.734375 21.84375 45.5625 
Q 25.390625 42.390625 31.78125 42.390625 
Q 38.140625 42.390625 41.71875 45.5625 
Q 45.3125 48.734375 45.3125 54.390625 
Q 45.3125 60.0625 41.71875 63.234375 
Q 38.140625 66.40625 31.78125 66.40625 
Q 25.390625 66.40625 21.84375 63.234375 
Q 18.3125 60.0625 18.3125 54.390625 
z
" id="DejaVuSans-56"/>
      </defs>
      <g transform="translate(467.074432 399.078438)scale(0.1 -0.1)">
       <use xlink:href="#DejaVuSans-56"/>
       <use x="63.623047" xlink:href="#DejaVuSans-48"/>
       <use x="127.246094" xlink:href="#DejaVuSans-48"/>
      </g>
     </g>
    </g>
    <g id="xtick_6">
     <g id="line2d_6">
      <g>
       <use style="stroke:#000000;stroke-width:0.8;" x="561.163636" xlink:href="#mbd9175f06d" y="384.48"/>
      </g>
     </g>
     <g id="text_6">
      <!-- 1000 -->
      <defs>
       <path d="M 12.40625 8.296875 
L 28.515625 8.296875 
L 28.515625 63.921875 
L 10.984375 60.40625 
L 10.984375 69.390625 
L 28.421875 72.90625 
L 38.28125 72.90625 
L 38.28125 8.296875 
L 54.390625 8.296875 
L 54.390625 0 
L 12.40625 0 
z
" id="DejaVuSans-49"/>
      </defs>
      <g transform="translate(548.438636 399.078438)scale(0.1 -0.1)">
       <use xlink:href="#DejaVuSans-49"/>
       <use x="63.623047" xlink:href="#DejaVuSans-48"/>
       <use x="127.246094" xlink:href="#DejaVuSans-48"/>
       <use x="190.869141" xlink:href="#DejaVuSans-48"/>
      </g>
     </g>
    </g>
    <g id="xtick_7">
     <g id="line2d_7">
      <g>
       <use style="stroke:#000000;stroke-width:0.8;" x="645.709091" xlink:href="#mbd9175f06d" y="384.48"/>
      </g>
     </g>
     <g id="text_7">
      <!-- 1200 -->
      <g transform="translate(632.984091 399.078438)scale(0.1 -0.1)">
       <use xlink:href="#DejaVuSans-49"/>
       <use x="63.623047" xlink:href="#DejaVuSans-50"/>
       <use x="127.246094" xlink:href="#DejaVuSans-48"/>
       <use x="190.869141" xlink:href="#DejaVuSans-48"/>
      </g>
     </g>
    </g>
    <g id="xtick_8">
     <g id="line2d_8">
      <g>
       <use style="stroke:#000000;stroke-width:0.8;" x="730.254545" xlink:href="#mbd9175f06d" y="384.48"/>
      </g>
     </g>
     <g id="text_8">
      <!-- 1400 -->
      <g transform="translate(717.529545 399.078438)scale(0.1 -0.1)">
       <use xlink:href="#DejaVuSans-49"/>
       <use x="63.623047" xlink:href="#DejaVuSans-52"/>
       <use x="127.246094" xlink:href="#DejaVuSans-48"/>
       <use x="190.869141" xlink:href="#DejaVuSans-48"/>
      </g>
     </g>
    </g>
    <g id="text_9">
     <!-- Timestamp -->
     <defs>
      <path d="M -0.296875 72.90625 
L 61.375 72.90625 
L 61.375 64.59375 
L 35.5 64.59375 
L 35.5 0 
L 25.59375 0 
L 25.59375 64.59375 
L -0.296875 64.59375 
z
" id="DejaVuSans-84"/>
      <path d="M 9.421875 54.6875 
L 18.40625 54.6875 
L 18.40625 0 
L 9.421875 0 
z
M 9.421875 75.984375 
L 18.40625 75.984375 
L 18.40625 64.59375 
L 9.421875 64.59375 
z
" id="DejaVuSans-105"/>
      <path d="M 52 44.1875 
Q 55.375 50.25 60.0625 53.125 
Q 64.75 56 71.09375 56 
Q 79.640625 56 84.28125 50.015625 
Q 88.921875 44.046875 88.921875 33.015625 
L 88.921875 0 
L 79.890625 0 
L 79.890625 32.71875 
Q 79.890625 40.578125 77.09375 44.375 
Q 74.3125 48.1875 68.609375 48.1875 
Q 61.625 48.1875 57.5625 43.546875 
Q 53.515625 38.921875 53.515625 30.90625 
L 53.515625 0 
L 44.484375 0 
L 44.484375 32.71875 
Q 44.484375 40.625 41.703125 44.40625 
Q 38.921875 48.1875 33.109375 48.1875 
Q 26.21875 48.1875 22.15625 43.53125 
Q 18.109375 38.875 18.109375 30.90625 
L 18.109375 0 
L 9.078125 0 
L 9.078125 54.6875 
L 18.109375 54.6875 
L 18.109375 46.1875 
Q 21.1875 51.21875 25.484375 53.609375 
Q 29.78125 56 35.6875 56 
Q 41.65625 56 45.828125 52.96875 
Q 50 49.953125 52 44.1875 
z
" id="DejaVuSans-109"/>
      <path d="M 56.203125 29.59375 
L 56.203125 25.203125 
L 14.890625 25.203125 
Q 15.484375 15.921875 20.484375 11.0625 
Q 25.484375 6.203125 34.421875 6.203125 
Q 39.59375 6.203125 44.453125 7.46875 
Q 49.3125 8.734375 54.109375 11.28125 
L 54.109375 2.78125 
Q 49.265625 0.734375 44.1875 -0.34375 
Q 39.109375 -1.421875 33.890625 -1.421875 
Q 20.796875 -1.421875 13.15625 6.1875 
Q 5.515625 13.8125 5.515625 26.8125 
Q 5.515625 40.234375 12.765625 48.109375 
Q 20.015625 56 32.328125 56 
Q 43.359375 56 49.78125 48.890625 
Q 56.203125 41.796875 56.203125 29.59375 
z
M 47.21875 32.234375 
Q 47.125 39.59375 43.09375 43.984375 
Q 39.0625 48.390625 32.421875 48.390625 
Q 24.90625 48.390625 20.390625 44.140625 
Q 15.875 39.890625 15.1875 32.171875 
z
" id="DejaVuSans-101"/>
      <path d="M 44.28125 53.078125 
L 44.28125 44.578125 
Q 40.484375 46.53125 36.375 47.5 
Q 32.28125 48.484375 27.875 48.484375 
Q 21.1875 48.484375 17.84375 46.4375 
Q 14.5 44.390625 14.5 40.28125 
Q 14.5 37.15625 16.890625 35.375 
Q 19.28125 33.59375 26.515625 31.984375 
L 29.59375 31.296875 
Q 39.15625 29.25 43.1875 25.515625 
Q 47.21875 21.78125 47.21875 15.09375 
Q 47.21875 7.46875 41.1875 3.015625 
Q 35.15625 -1.421875 24.609375 -1.421875 
Q 20.21875 -1.421875 15.453125 -0.5625 
Q 10.6875 0.296875 5.421875 2 
L 5.421875 11.28125 
Q 10.40625 8.6875 15.234375 7.390625 
Q 20.0625 6.109375 24.8125 6.109375 
Q 31.15625 6.109375 34.5625 8.28125 
Q 37.984375 10.453125 37.984375 14.40625 
Q 37.984375 18.0625 35.515625 20.015625 
Q 33.0625 21.96875 24.703125 23.78125 
L 21.578125 24.515625 
Q 13.234375 26.265625 9.515625 29.90625 
Q 5.8125 33.546875 5.8125 39.890625 
Q 5.8125 47.609375 11.28125 51.796875 
Q 16.75 56 26.8125 56 
Q 31.78125 56 36.171875 55.265625 
Q 40.578125 54.546875 44.28125 53.078125 
z
" id="DejaVuSans-115"/>
      <path d="M 18.3125 70.21875 
L 18.3125 54.6875 
L 36.8125 54.6875 
L 36.8125 47.703125 
L 18.3125 47.703125 
L 18.3125 18.015625 
Q 18.3125 11.328125 20.140625 9.421875 
Q 21.96875 7.515625 27.59375 7.515625 
L 36.8125 7.515625 
L 36.8125 0 
L 27.59375 0 
Q 17.1875 0 13.234375 3.875 
Q 9.28125 7.765625 9.28125 18.015625 
L 9.28125 47.703125 
L 2.6875 47.703125 
L 2.6875 54.6875 
L 9.28125 54.6875 
L 9.28125 70.21875 
z
" id="DejaVuSans-116"/>
      <path d="M 34.28125 27.484375 
Q 23.390625 27.484375 19.1875 25 
Q 14.984375 22.515625 14.984375 16.5 
Q 14.984375 11.71875 18.140625 8.90625 
Q 21.296875 6.109375 26.703125 6.109375 
Q 34.1875 6.109375 38.703125 11.40625 
Q 43.21875 16.703125 43.21875 25.484375 
L 43.21875 27.484375 
z
M 52.203125 31.203125 
L 52.203125 0 
L 43.21875 0 
L 43.21875 8.296875 
Q 40.140625 3.328125 35.546875 0.953125 
Q 30.953125 -1.421875 24.3125 -1.421875 
Q 15.921875 -1.421875 10.953125 3.296875 
Q 6 8.015625 6 15.921875 
Q 6 25.140625 12.171875 29.828125 
Q 18.359375 34.515625 30.609375 34.515625 
L 43.21875 34.515625 
L 43.21875 35.40625 
Q 43.21875 41.609375 39.140625 45 
Q 35.0625 48.390625 27.6875 48.390625 
Q 23 48.390625 18.546875 47.265625 
Q 14.109375 46.140625 10.015625 43.890625 
L 10.015625 52.203125 
Q 14.9375 54.109375 19.578125 55.046875 
Q 24.21875 56 28.609375 56 
Q 40.484375 56 46.34375 49.84375 
Q 52.203125 43.703125 52.203125 31.203125 
z
" id="DejaVuSans-97"/>
      <path d="M 18.109375 8.203125 
L 18.109375 -20.796875 
L 9.078125 -20.796875 
L 9.078125 54.6875 
L 18.109375 54.6875 
L 18.109375 46.390625 
Q 20.953125 51.265625 25.265625 53.625 
Q 29.59375 56 35.59375 56 
Q 45.5625 56 51.78125 48.09375 
Q 58.015625 40.1875 58.015625 27.296875 
Q 58.015625 14.40625 51.78125 6.484375 
Q 45.5625 -1.421875 35.59375 -1.421875 
Q 29.59375 -1.421875 25.265625 0.953125 
Q 20.953125 3.328125 18.109375 8.203125 
z
M 48.6875 27.296875 
Q 48.6875 37.203125 44.609375 42.84375 
Q 40.53125 48.484375 33.40625 48.484375 
Q 26.265625 48.484375 22.1875 42.84375 
Q 18.109375 37.203125 18.109375 27.296875 
Q 18.109375 17.390625 22.1875 11.75 
Q 26.265625 6.109375 33.40625 6.109375 
Q 40.53125 6.109375 44.609375 11.75 
Q 48.6875 17.390625 48.6875 27.296875 
z
" id="DejaVuSans-112"/>
     </defs>
     <g transform="translate(414.739062 412.756563)scale(0.1 -0.1)">
      <use xlink:href="#DejaVuSans-84"/>
      <use x="61.037109" xlink:href="#DejaVuSans-105"/>
      <use x="88.820312" xlink:href="#DejaVuSans-109"/>
      <use x="186.232422" xlink:href="#DejaVuSans-101"/>
      <use x="247.755859" xlink:href="#DejaVuSans-115"/>
      <use x="299.855469" xlink:href="#DejaVuSans-116"/>
      <use x="339.064453" xlink:href="#DejaVuSans-97"/>
      <use x="400.34375" xlink:href="#DejaVuSans-109"/>
      <use x="497.755859" xlink:href="#DejaVuSans-112"/>
     </g>
    </g>
   </g>
   <g id="matplotlib.axis_2">
    <g id="ytick_1">
     <g id="line2d_9">
      <defs>
       <path d="M 0 0 
L -3.5 0 
" id="m520dbbd7e9" style="stroke:#000000;stroke-width:0.8;"/>
      </defs>
      <g>
       <use style="stroke:#000000;stroke-width:0.8;" x="108" xlink:href="#m520dbbd7e9" y="343.95063"/>
      </g>
     </g>
     <g id="text_10">
      <!-- 10 -->
      <g transform="translate(88.275 347.749849)scale(0.1 -0.1)">
       <use xlink:href="#DejaVuSans-49"/>
       <use x="63.623047" xlink:href="#DejaVuSans-48"/>
      </g>
     </g>
    </g>
    <g id="ytick_2">
     <g id="line2d_10">
      <g>
       <use style="stroke:#000000;stroke-width:0.8;" x="108" xlink:href="#m520dbbd7e9" y="302.995572"/>
      </g>
     </g>
     <g id="text_11">
      <!-- 12 -->
      <g transform="translate(88.275 306.794791)scale(0.1 -0.1)">
       <use xlink:href="#DejaVuSans-49"/>
       <use x="63.623047" xlink:href="#DejaVuSans-50"/>
      </g>
     </g>
    </g>
    <g id="ytick_3">
     <g id="line2d_11">
      <g>
       <use style="stroke:#000000;stroke-width:0.8;" x="108" xlink:href="#m520dbbd7e9" y="262.040514"/>
      </g>
     </g>
     <g id="text_12">
      <!-- 14 -->
      <g transform="translate(88.275 265.839733)scale(0.1 -0.1)">
       <use xlink:href="#DejaVuSans-49"/>
       <use x="63.623047" xlink:href="#DejaVuSans-52"/>
      </g>
     </g>
    </g>
    <g id="ytick_4">
     <g id="line2d_12">
      <g>
       <use style="stroke:#000000;stroke-width:0.8;" x="108" xlink:href="#m520dbbd7e9" y="221.085456"/>
      </g>
     </g>
     <g id="text_13">
      <!-- 16 -->
      <g transform="translate(88.275 224.884675)scale(0.1 -0.1)">
       <use xlink:href="#DejaVuSans-49"/>
       <use x="63.623047" xlink:href="#DejaVuSans-54"/>
      </g>
     </g>
    </g>
    <g id="ytick_5">
     <g id="line2d_13">
      <g>
       <use style="stroke:#000000;stroke-width:0.8;" x="108" xlink:href="#m520dbbd7e9" y="180.130398"/>
      </g>
     </g>
     <g id="text_14">
      <!-- 18 -->
      <g transform="translate(88.275 183.929617)scale(0.1 -0.1)">
       <use xlink:href="#DejaVuSans-49"/>
       <use x="63.623047" xlink:href="#DejaVuSans-56"/>
      </g>
     </g>
    </g>
    <g id="ytick_6">
     <g id="line2d_14">
      <g>
       <use style="stroke:#000000;stroke-width:0.8;" x="108" xlink:href="#m520dbbd7e9" y="139.17534"/>
      </g>
     </g>
     <g id="text_15">
      <!-- 20 -->
      <g transform="translate(88.275 142.974559)scale(0.1 -0.1)">
       <use xlink:href="#DejaVuSans-50"/>
       <use x="63.623047" xlink:href="#DejaVuSans-48"/>
      </g>
     </g>
    </g>
    <g id="ytick_7">
     <g id="line2d_15">
      <g>
       <use style="stroke:#000000;stroke-width:0.8;" x="108" xlink:href="#m520dbbd7e9" y="98.220282"/>
      </g>
     </g>
     <g id="text_16">
      <!-- 22 -->
      <g transform="translate(88.275 102.019501)scale(0.1 -0.1)">
       <use xlink:href="#DejaVuSans-50"/>
       <use x="63.623047" xlink:href="#DejaVuSans-50"/>
      </g>
     </g>
    </g>
    <g id="ytick_8">
     <g id="line2d_16">
      <g>
       <use style="stroke:#000000;stroke-width:0.8;" x="108" xlink:href="#m520dbbd7e9" y="57.265224"/>
      </g>
     </g>
     <g id="text_17">
      <!-- 24 -->
      <g transform="translate(88.275 61.064443)scale(0.1 -0.1)">
       <use xlink:href="#DejaVuSans-50"/>
       <use x="63.623047" xlink:href="#DejaVuSans-52"/>
      </g>
     </g>
    </g>
    <g id="text_18">
     <!-- Value -->
     <defs>
      <path d="M 28.609375 0 
L 0.78125 72.90625 
L 11.078125 72.90625 
L 34.1875 11.53125 
L 57.328125 72.90625 
L 67.578125 72.90625 
L 39.796875 0 
z
" id="DejaVuSans-86"/>
      <path d="M 9.421875 75.984375 
L 18.40625 75.984375 
L 18.40625 0 
L 9.421875 0 
z
" id="DejaVuSans-108"/>
      <path d="M 8.5 21.578125 
L 8.5 54.6875 
L 17.484375 54.6875 
L 17.484375 21.921875 
Q 17.484375 14.15625 20.5 10.265625 
Q 23.53125 6.390625 29.59375 6.390625 
Q 36.859375 6.390625 41.078125 11.03125 
Q 45.3125 15.671875 45.3125 23.6875 
L 45.3125 54.6875 
L 54.296875 54.6875 
L 54.296875 0 
L 45.3125 0 
L 45.3125 8.40625 
Q 42.046875 3.421875 37.71875 1 
Q 33.40625 -1.421875 27.6875 -1.421875 
Q 18.265625 -1.421875 13.375 4.4375 
Q 8.5 10.296875 8.5 21.578125 
z
M 31.109375 56 
z
" id="DejaVuSans-117"/>
     </defs>
     <g transform="translate(82.195312 232.273281)rotate(-90)scale(0.1 -0.1)">
      <use xlink:href="#DejaVuSans-86"/>
      <use x="68.298828" xlink:href="#DejaVuSans-97"/>
      <use x="129.578125" xlink:href="#DejaVuSans-108"/>
      <use x="157.361328" xlink:href="#DejaVuSans-117"/>
      <use x="220.740234" xlink:href="#DejaVuSans-101"/>
     </g>
    </g>
   </g>
   <g id="line2d_17">
    <path clip-path="url(#p9962697ebc)" d="M 138.436364 268.634258 
L 138.859091 325.574945 
L 139.281818 292.226139 
L 139.704545 296.128423 
L 140.127273 235.144068 
L 140.55 274.486018 
L 140.972727 301.910284 
L 141.395455 239.292627 
L 141.818182 269.201568 
L 142.663636 228.339778 
L 143.086364 315.935638 
L 143.509091 263.815651 
L 143.931818 283.264391 
L 144.354545 244.923847 
L 144.777273 319.810442 
L 145.2 252.606969 
L 145.622727 239.488933 
L 146.045455 296.240624 
L 146.468182 223.103694 
L 146.890909 319.797088 
L 147.313636 258.736112 
L 147.736364 231.054659 
L 148.159091 335.391304 
L 148.581818 198.146464 
L 149.004545 328.260144 
L 149.427273 235.141932 
L 149.85 221.921434 
L 150.272727 297.929978 
L 150.695455 217.282727 
L 151.118182 284.659352 
L 151.540909 304.003107 
L 151.963636 252.375037 
L 152.386364 323.339558 
L 152.809091 165.435841 
L 153.231818 274.912415 
L 153.654545 287.019252 
L 154.077273 214.911953 
L 154.5 276.23383 
L 154.922727 188.731989 
L 155.345455 289.166352 
L 155.768182 326.434302 
L 156.190909 309.786491 
L 156.613636 316.990352 
L 157.036364 223.429951 
L 157.459091 287.591363 
L 157.881818 285.312127 
L 158.304545 275.409647 
L 158.727273 278.315525 
L 159.15 229.541947 
L 159.572727 266.453393 
L 159.995455 273.09346 
L 160.418182 271.472253 
L 160.840909 263.239003 
L 161.263636 249.416253 
L 161.686364 304.504216 
L 162.109091 257.520589 
L 162.531818 243.794568 
L 162.954545 288.130745 
L 163.377273 239.800682 
L 163.8 246.358737 
L 164.222727 259.563319 
L 164.645455 249.352414 
L 165.068182 249.905918 
L 165.490909 292.769601 
L 166.336364 328.051106 
L 166.759091 243.18641 
L 167.181818 297.753201 
L 167.604545 299.64137 
L 168.027273 283.809984 
L 168.45 316.760156 
L 168.872727 277.405536 
L 169.295455 275.44443 
L 169.718182 323.13923 
L 170.140909 290.360589 
L 170.563636 308.858293 
L 170.986364 275.217902 
L 171.409091 306.471233 
L 171.831818 267.695178 
L 172.254545 325.730693 
L 172.677273 270.365927 
L 173.1 248.067612 
L 173.522727 293.190771 
L 173.945455 238.409211 
L 174.368182 280.14403 
L 174.790909 272.292089 
L 175.213636 273.019372 
L 175.636364 261.946031 
L 176.059091 255.628525 
L 176.481818 283.828385 
L 176.904545 275.160612 
L 177.327273 200.321229 
L 177.75 286.086063 
L 178.595455 195.816011 
L 179.018182 214.495086 
L 179.440909 269.91944 
L 179.863636 299.773357 
L 180.286364 186.173643 
L 180.709091 271.621809 
L 181.131818 216.813008 
L 181.554545 235.200744 
L 182.4 218.42077 
L 182.822727 247.912794 
L 183.245455 253.039195 
L 183.668182 212.862284 
L 184.090909 196.333191 
L 184.936364 216.496434 
L 185.359091 159.515504 
L 186.204545 235.7437 
L 186.627273 238.580322 
L 187.05 244.61263 
L 187.472727 179.385618 
L 187.895455 211.681024 
L 188.318182 199.571425 
L 188.740909 268.150313 
L 189.163636 246.833983 
L 189.586364 235.412312 
L 190.009091 241.257307 
L 190.431818 228.340683 
L 190.854545 220.652943 
L 191.277273 256.97541 
L 191.7 211.121711 
L 192.122727 292.425805 
L 192.545455 169.021177 
L 192.968182 240.465703 
L 193.390909 219.388255 
L 193.813636 261.310336 
L 194.236364 183.003963 
L 194.659091 202.630986 
L 195.081818 169.903952 
L 195.504545 182.679903 
L 195.927273 191.631447 
L 196.35 212.371575 
L 196.772727 262.374491 
L 197.195455 150.268555 
L 197.618182 235.100741 
L 198.463636 207.877988 
L 198.886364 208.652164 
L 199.309091 243.663332 
L 199.731818 217.968621 
L 200.154545 228.683728 
L 200.577273 232.250975 
L 201 239.326686 
L 201.422727 259.604057 
L 201.845455 274.299371 
L 202.268182 293.814161 
L 202.690909 275.841062 
L 203.113636 274.616522 
L 203.536364 239.860227 
L 203.959091 242.349513 
L 204.381818 228.862976 
L 204.804545 209.313041 
L 205.227273 267.71413 
L 205.65 260.489445 
L 206.072727 248.091676 
L 206.495455 217.82244 
L 206.918182 273.218615 
L 207.340909 256.952165 
L 207.763636 271.989918 
L 208.186364 202.998535 
L 208.609091 289.917262 
L 209.031818 338.190816 
L 209.454545 334.287469 
L 209.877273 302.336751 
L 210.3 259.82963 
L 211.145455 327.278853 
L 211.568182 264.352215 
L 211.990909 304.820111 
L 212.413636 302.634693 
L 212.836364 290.542744 
L 213.259091 304.405556 
L 213.681818 199.557253 
L 214.527273 266.08527 
L 214.95 262.562864 
L 215.372727 301.167946 
L 215.795455 280.691288 
L 216.218182 285.485009 
L 217.486364 305.750127 
L 217.909091 300.052918 
L 218.331818 309.813121 
L 218.754545 277.190462 
L 219.177273 300.963346 
L 219.6 293.08072 
L 220.022727 213.928149 
L 220.445455 284.044525 
L 220.868182 290.575021 
L 221.290909 250.917528 
L 221.713636 291.208291 
L 222.136364 284.626624 
L 222.559091 265.077282 
L 222.981818 280.29286 
L 223.404545 225.968736 
L 223.827273 231.039729 
L 224.25 223.955631 
L 224.672727 209.954127 
L 225.095455 202.79954 
L 225.518182 274.529096 
L 226.363636 253.393886 
L 226.786364 311.032463 
L 227.631818 258.568202 
L 228.054545 294.925652 
L 228.477273 313.390671 
L 228.9 307.335186 
L 229.322727 314.070469 
L 229.745455 259.210944 
L 230.168182 255.491847 
L 230.590909 267.565793 
L 231.013636 302.203003 
L 231.436364 274.83854 
L 231.859091 300.33285 
L 232.281818 240.26164 
L 232.704545 261.976715 
L 233.127273 304.39706 
L 233.55 303.307312 
L 233.972727 279.80539 
L 234.395455 191.156157 
L 234.818182 249.387134 
L 235.240909 266.499341 
L 235.663636 273.504787 
L 236.086364 276.27539 
L 236.509091 270.651607 
L 236.931818 321.262835 
L 237.354545 309.187768 
L 237.777273 207.293431 
L 238.2 323.899309 
L 238.622727 320.699073 
L 239.045455 213.96666 
L 239.468182 334.965708 
L 239.890909 225.168032 
L 240.313636 309.709725 
L 240.736364 282.356472 
L 241.159091 233.268814 
L 241.581818 303.300022 
L 242.004545 271.24524 
L 242.427273 276.781352 
L 242.85 318.26949 
L 243.272727 302.96979 
L 243.695455 356.96304 
L 244.118182 259.889548 
L 244.540909 244.049127 
L 244.963636 295.486227 
L 245.386364 219.585135 
L 245.809091 186.070659 
L 246.231818 239.252979 
L 246.654545 230.325683 
L 247.077273 287.915278 
L 247.5 258.566395 
L 247.922727 262.454376 
L 248.345455 274.808483 
L 248.768182 292.648294 
L 249.190909 347.494598 
L 250.036364 316.717445 
L 250.459091 309.232516 
L 250.881818 263.796686 
L 251.304545 246.564705 
L 252.15 311.69489 
L 252.572727 296.649191 
L 252.995455 312.973789 
L 253.418182 266.127804 
L 253.840909 307.415366 
L 254.263636 305.403519 
L 254.686364 273.131814 
L 255.109091 271.916704 
L 255.531818 286.445785 
L 255.954545 247.776943 
L 256.377273 293.48345 
L 256.8 283.22153 
L 257.222727 308.832799 
L 257.645455 312.384543 
L 258.068182 284.635911 
L 258.490909 294.308526 
L 259.336364 258.76252 
L 259.759091 291.796584 
L 260.181818 295.153941 
L 260.604545 260.771454 
L 261.027273 304.174248 
L 261.45 302.110435 
L 261.872727 312.601984 
L 262.295455 261.518257 
L 262.718182 329.426269 
L 263.140909 323.88787 
L 263.563636 323.223127 
L 263.986364 279.147449 
L 264.409091 280.086848 
L 264.831818 267.992604 
L 265.254545 278.397336 
L 265.677273 271.933513 
L 266.1 283.663698 
L 266.522727 256.225649 
L 266.945455 250.701316 
L 267.368182 271.242865 
L 267.790909 297.727462 
L 268.213636 272.893692 
L 268.636364 280.223441 
L 269.059091 226.570885 
L 269.481818 237.756305 
L 269.904545 321.622721 
L 270.327273 240.043208 
L 270.75 251.437951 
L 271.172727 318.464869 
L 271.595455 304.39869 
L 272.018182 322.012949 
L 272.440909 319.410683 
L 272.863636 276.472895 
L 273.286364 264.899197 
L 273.709091 275.539496 
L 274.554545 311.989947 
L 274.977273 290.021341 
L 275.4 309.440499 
L 275.822727 275.745633 
L 276.245455 310.591563 
L 276.668182 319.183012 
L 277.090909 292.920033 
L 277.513636 282.059641 
L 277.936364 286.796009 
L 278.781818 275.301205 
L 279.204545 305.411136 
L 280.05 229.310305 
L 280.472727 241.982459 
L 280.895455 223.556253 
L 281.318182 184.77552 
L 281.740909 214.254566 
L 282.163636 230.431851 
L 282.586364 305.232995 
L 283.009091 267.44042 
L 283.431818 251.814155 
L 283.854545 291.422339 
L 284.277273 220.604037 
L 284.7 303.03332 
L 285.122727 216.768724 
L 285.968182 293.268266 
L 286.390909 224.847449 
L 286.813636 230.721741 
L 287.236364 219.149809 
L 287.659091 292.900694 
L 288.081818 281.233565 
L 288.504545 202.475771 
L 288.927273 258.325606 
L 289.35 255.603404 
L 289.772727 237.763264 
L 290.195455 260.689862 
L 291.040909 230.770921 
L 291.463636 252.633017 
L 291.886364 191.365713 
L 292.731818 268.005373 
L 293.154545 227.996338 
L 293.577273 247.626776 
L 294.422727 262.437079 
L 294.845455 211.475867 
L 295.268182 245.126798 
L 295.690909 197.713541 
L 296.113636 225.860932 
L 296.536364 292.922887 
L 296.959091 289.269248 
L 297.381818 260.006317 
L 297.804545 248.678246 
L 298.227273 278.683803 
L 298.65 251.189141 
L 299.072727 271.49388 
L 299.495455 310.006028 
L 299.918182 240.485544 
L 300.340909 236.645738 
L 300.763636 287.618413 
L 301.186364 253.368034 
L 301.609091 278.156748 
L 302.031818 197.07029 
L 302.454545 285.317421 
L 302.877273 311.028241 
L 303.3 287.623342 
L 303.722727 287.956896 
L 304.145455 264.217296 
L 304.568182 292.210695 
L 304.990909 284.825614 
L 305.413636 202.877974 
L 305.836364 237.949929 
L 306.259091 210.059936 
L 306.681818 214.736251 
L 307.104545 218.119699 
L 307.527273 258.94048 
L 307.95 311.739317 
L 308.372727 301.397986 
L 308.795455 275.479306 
L 309.218182 256.82216 
L 309.640909 304.272204 
L 310.063636 318.229615 
L 310.486364 295.940556 
L 310.909091 295.383325 
L 311.331818 298.094749 
L 311.754545 319.605915 
L 312.177273 242.570533 
L 312.6 303.931674 
L 313.022727 285.159994 
L 313.445455 290.311419 
L 313.868182 279.670384 
L 314.290909 302.79459 
L 314.713636 278.384853 
L 315.136364 262.941435 
L 315.559091 315.122737 
L 315.981818 282.487922 
L 316.404545 295.968942 
L 316.827273 152.127286 
L 317.25 298.871747 
L 317.672727 220.823805 
L 318.095455 305.614341 
L 318.940909 194.255991 
L 319.363636 258.005397 
L 319.786364 215.124037 
L 320.209091 280.7552 
L 320.631818 308.361944 
L 321.054545 231.920565 
L 321.477273 318.526856 
L 321.9 237.89465 
L 322.322727 264.512649 
L 322.745455 283.208409 
L 323.168182 241.402882 
L 323.590909 306.468597 
L 324.013636 248.647424 
L 324.436364 294.097568 
L 324.859091 275.062469 
L 325.281818 224.140246 
L 325.704545 310.083606 
L 326.127273 208.116911 
L 326.55 274.196233 
L 327.395455 233.443708 
L 327.818182 305.443438 
L 328.240909 251.827742 
L 328.663636 277.714574 
L 329.086364 214.982333 
L 329.931818 249.596148 
L 330.354545 244.483089 
L 330.777273 295.206073 
L 331.2 240.668265 
L 331.622727 265.539515 
L 332.045455 268.603919 
L 332.468182 243.593632 
L 332.890909 284.554031 
L 333.313636 213.01323 
L 333.736364 289.294099 
L 334.159091 284.415735 
L 334.581818 293.87007 
L 335.004545 244.114113 
L 335.427273 233.580446 
L 335.85 305.52529 
L 336.272727 302.907312 
L 336.695455 240.606903 
L 337.118182 292.385692 
L 337.540909 260.126693 
L 337.963636 283.024909 
L 338.386364 340.200326 
L 338.809091 279.740405 
L 339.231818 309.561886 
L 339.654545 227.444013 
L 340.077273 242.317622 
L 340.5 279.1277 
L 340.922727 256.229163 
L 341.345455 224.326372 
L 341.768182 267.057396 
L 342.190909 190.533458 
L 343.036364 298.397033 
L 343.459091 236.295548 
L 343.881818 306.925793 
L 344.304545 267.699525 
L 344.727273 242.462141 
L 345.15 262.081454 
L 345.572727 227.543059 
L 345.995455 278.012063 
L 346.418182 193.000982 
L 346.840909 242.964578 
L 347.263636 260.77497 
L 347.686364 228.231424 
L 348.109091 242.60251 
L 348.531818 238.606229 
L 348.954545 240.000321 
L 349.377273 274.881404 
L 349.8 258.323752 
L 350.222727 222.979451 
L 350.645455 263.123149 
L 351.068182 244.344098 
L 351.490909 257.297238 
L 351.913636 192.671328 
L 352.336364 232.636323 
L 352.759091 242.599523 
L 353.181818 207.896918 
L 353.604545 209.961375 
L 354.027273 252.042326 
L 354.45 252.25298 
L 354.872727 246.450037 
L 355.295455 213.984491 
L 355.718182 255.368589 
L 356.140909 246.569614 
L 356.563636 206.321033 
L 356.986364 210.868368 
L 357.409091 275.059624 
L 357.831818 278.079266 
L 358.254545 268.996376 
L 358.677273 322.712732 
L 359.1 252.095423 
L 359.522727 266.889875 
L 359.945455 227.688845 
L 360.368182 251.273733 
L 360.790909 252.570112 
L 361.213636 199.538862 
L 361.636364 210.00428 
L 362.059091 217.43895 
L 362.481818 242.345633 
L 362.904545 248.059229 
L 363.327273 262.200062 
L 363.75 214.775758 
L 364.172727 234.536851 
L 364.595455 240.155812 
L 365.018182 254.991574 
L 365.440909 209.567466 
L 365.863636 192.652905 
L 366.286364 252.232797 
L 366.709091 206.914391 
L 367.131818 202.949561 
L 367.554545 259.403331 
L 367.977273 225.548112 
L 368.4 311.399972 
L 368.822727 267.042373 
L 369.245455 296.543628 
L 369.668182 269.44717 
L 370.090909 256.057911 
L 370.513636 259.638126 
L 370.936364 225.242604 
L 371.359091 265.162527 
L 371.781818 248.941304 
L 372.204545 256.982442 
L 372.627273 276.77159 
L 373.05 287.926694 
L 373.472727 284.514726 
L 373.895455 300.446022 
L 374.318182 280.367926 
L 374.740909 281.33637 
L 375.163636 279.770355 
L 375.586364 313.346122 
L 376.009091 279.68814 
L 376.431818 174.165785 
L 376.854545 201.825507 
L 377.277273 265.30215 
L 377.7 223.597438 
L 378.122727 260.927278 
L 378.545455 270.509074 
L 378.968182 237.253132 
L 379.390909 268.419979 
L 379.813636 254.854113 
L 380.236364 232.150017 
L 380.659091 288.720983 
L 381.081818 210.929747 
L 381.504545 267.474059 
L 381.927273 271.537664 
L 382.35 254.465342 
L 382.772727 229.186711 
L 383.195455 236.511134 
L 383.618182 234.956751 
L 384.040909 220.930831 
L 384.463636 281.846321 
L 384.886364 259.435758 
L 385.309091 300.174864 
L 386.154545 215.857325 
L 386.577273 228.492573 
L 387 277.907288 
L 387.422727 148.338374 
L 387.845455 273.624565 
L 388.268182 234.763162 
L 388.690909 213.634884 
L 389.113636 320.800254 
L 389.536364 284.092821 
L 389.959091 217.944409 
L 390.381818 301.286682 
L 390.804545 234.070176 
L 391.227273 191.399047 
L 391.65 233.375038 
L 392.072727 226.254821 
L 392.495455 255.192935 
L 392.918182 230.383875 
L 393.340909 272.034167 
L 393.763636 228.958146 
L 394.186364 219.01648 
L 394.609091 231.14178 
L 395.031818 301.541512 
L 395.454545 283.189558 
L 395.877273 292.200101 
L 396.3 254.334189 
L 396.722727 244.563449 
L 397.145455 245.062422 
L 397.568182 241.187783 
L 397.990909 246.808429 
L 398.413636 248.009857 
L 398.836364 233.793966 
L 399.259091 296.528056 
L 399.681818 287.829495 
L 400.104545 227.013069 
L 400.527273 237.570828 
L 400.95 155.416196 
L 401.372727 226.824172 
L 401.795455 269.163848 
L 402.218182 277.449433 
L 402.640909 270.643017 
L 403.063636 261.797453 
L 403.486364 285.007466 
L 403.909091 246.22093 
L 404.331818 243.655937 
L 404.754545 236.439512 
L 405.6 279.059715 
L 406.022727 280.093688 
L 406.445455 272.015578 
L 406.868182 237.734606 
L 407.290909 263.065477 
L 408.136364 231.564208 
L 408.559091 236.648741 
L 408.981818 272.885888 
L 409.404545 197.433187 
L 409.827273 259.564471 
L 410.25 258.990388 
L 410.672727 248.08712 
L 411.095455 277.449284 
L 411.518182 247.122694 
L 411.940909 251.063552 
L 412.363636 221.778048 
L 412.786364 270.11121 
L 413.209091 270.631109 
L 413.631818 271.832591 
L 414.054545 268.498433 
L 414.477273 277.458555 
L 414.9 317.155713 
L 415.322727 289.656355 
L 415.745455 247.106674 
L 416.168182 278.046256 
L 416.590909 280.830947 
L 417.013636 239.233539 
L 417.436364 258.547267 
L 417.859091 234.90532 
L 418.281818 180.954199 
L 418.704545 230.226246 
L 419.127273 253.447625 
L 419.55 284.788012 
L 420.395455 262.624183 
L 420.818182 272.25239 
L 421.240909 264.752673 
L 421.663636 278.911139 
L 422.509091 239.460501 
L 422.931818 261.776911 
L 423.354545 254.373412 
L 423.777273 263.914078 
L 424.2 261.17926 
L 424.622727 261.485283 
L 425.045455 317.003595 
L 425.890909 247.9295 
L 426.313636 293.998558 
L 426.736364 274.201995 
L 427.159091 226.670497 
L 428.004545 251.260677 
L 428.427273 248.025751 
L 428.85 240.842059 
L 429.272727 240.884235 
L 429.695455 247.919955 
L 430.118182 260.442588 
L 430.540909 160.161608 
L 430.963636 284.266563 
L 431.809091 214.636041 
L 432.231818 297.83599 
L 432.654545 218.805806 
L 433.077273 288.261812 
L 433.5 265.466071 
L 433.922727 274.140239 
L 434.345455 232.949202 
L 434.768182 261.775586 
L 435.190909 272.461308 
L 435.613636 287.868402 
L 436.036364 235.867502 
L 436.459091 268.157875 
L 436.881818 189.198716 
L 437.304545 202.010443 
L 437.727273 244.624435 
L 438.15 224.1107 
L 438.572727 229.145113 
L 438.995455 207.129851 
L 439.418182 268.827926 
L 439.840909 303.551755 
L 440.263636 299.214647 
L 440.686364 256.265935 
L 441.109091 310.422653 
L 441.531818 291.556739 
L 441.954545 319.194381 
L 442.377273 331.995647 
L 442.8 280.584885 
L 443.222727 317.630477 
L 443.645455 293.149098 
L 444.068182 187.553549 
L 444.490909 308.032929 
L 444.913636 309.064532 
L 445.336364 279.45989 
L 445.759091 274.114598 
L 446.181818 287.205312 
L 446.604545 308.53264 
L 447.027273 227.484367 
L 447.45 263.098017 
L 447.872727 247.103888 
L 448.295455 287.493298 
L 448.718182 275.965017 
L 449.140909 274.989091 
L 449.563636 205.934397 
L 449.986364 324.582321 
L 450.409091 315.736049 
L 450.831818 268.338756 
L 451.254545 279.938233 
L 451.677273 282.48316 
L 452.1 295.923275 
L 452.522727 262.248278 
L 452.945455 238.681346 
L 453.368182 266.900891 
L 453.790909 267.406976 
L 454.213636 244.156058 
L 454.636364 270.535485 
L 455.059091 269.18279 
L 455.481818 292.013487 
L 455.904545 306.591464 
L 456.327273 305.50058 
L 456.75 259.536206 
L 457.172727 232.425181 
L 457.595455 278.365493 
L 458.018182 259.991754 
L 458.440909 217.596906 
L 458.863636 296.193485 
L 459.286364 250.111927 
L 459.709091 259.714554 
L 460.131818 281.675901 
L 460.554545 295.175902 
L 460.977273 281.875625 
L 461.4 276.614638 
L 461.822727 258.327133 
L 462.245455 229.04756 
L 462.668182 290.423505 
L 463.090909 255.923616 
L 463.513636 235.896063 
L 463.936364 276.459266 
L 464.359091 210.328782 
L 464.781818 304.183498 
L 465.204545 314.786681 
L 465.627273 219.758265 
L 466.05 344.792291 
L 466.472727 253.575606 
L 466.895455 282.353846 
L 467.318182 328.824128 
L 467.740909 273.956321 
L 468.163636 310.06837 
L 468.586364 297.461709 
L 469.009091 306.004986 
L 469.431818 339.911021 
L 469.854545 286.597992 
L 470.277273 250.802928 
L 470.7 312.23648 
L 471.122727 247.386878 
L 471.545455 322.589739 
L 471.968182 328.848985 
L 472.390909 346.145542 
L 472.813636 319.244384 
L 473.236364 256.463907 
L 473.659091 303.993287 
L 474.081818 210.732077 
L 474.504545 272.786216 
L 474.927273 286.439688 
L 475.35 291.462323 
L 475.772727 325.04946 
L 476.195455 296.634259 
L 476.618182 299.959728 
L 477.040909 266.285941 
L 477.463636 248.557544 
L 477.886364 299.624432 
L 478.731818 199.979156 
L 479.154545 243.122269 
L 479.577273 235.038456 
L 480 272.831168 
L 480.422727 203.17511 
L 480.845455 294.471197 
L 481.268182 271.068713 
L 481.690909 237.409882 
L 482.113636 308.427579 
L 482.536364 307.952471 
L 482.959091 218.503534 
L 483.804545 263.322312 
L 484.227273 234.990009 
L 484.65 246.961425 
L 485.072727 231.206036 
L 485.495455 246.061904 
L 485.918182 268.592848 
L 486.340909 276.811044 
L 486.763636 278.092352 
L 487.186364 225.711584 
L 487.609091 250.8466 
L 488.031818 215.564075 
L 488.877273 269.507528 
L 489.3 197.192022 
L 489.722727 314.058501 
L 490.145455 249.606828 
L 490.568182 301.166576 
L 490.990909 289.204848 
L 491.413636 222.474227 
L 491.836364 289.665998 
L 492.259091 248.464467 
L 492.681818 186.137429 
L 493.104545 239.551248 
L 493.527273 255.695195 
L 493.95 258.991889 
L 494.372727 196.584832 
L 494.795455 300.866671 
L 495.218182 250.402458 
L 495.640909 230.010223 
L 496.063636 307.144477 
L 496.486364 287.358762 
L 496.909091 236.693941 
L 497.331818 216.117132 
L 497.754545 239.249646 
L 498.177273 281.351056 
L 498.6 262.408045 
L 499.022727 202.293465 
L 499.445455 243.277916 
L 499.868182 239.446788 
L 500.290909 250.406748 
L 500.713636 250.799202 
L 501.136364 280.486112 
L 501.559091 325.360971 
L 501.981818 206.618415 
L 502.404545 310.132206 
L 502.827273 277.667098 
L 503.25 255.607155 
L 503.672727 260.871144 
L 504.095455 263.674582 
L 504.518182 277.423436 
L 504.940909 256.902517 
L 505.363636 247.939124 
L 505.786364 228.186811 
L 506.209091 295.333985 
L 506.631818 301.243774 
L 507.054545 321.170203 
L 507.9 282.91443 
L 508.322727 243.791941 
L 508.745455 266.299715 
L 509.168182 225.593395 
L 509.590909 285.167674 
L 510.013636 310.552199 
L 510.436364 225.395305 
L 510.859091 328.526644 
L 511.281818 239.204495 
L 511.704545 245.073841 
L 512.127273 232.460718 
L 512.55 108.325061 
L 512.972727 253.998895 
L 513.395455 201.398558 
L 513.818182 264.92981 
L 514.240909 272.80513 
L 514.663636 204.798463 
L 515.086364 257.280972 
L 515.509091 202.873656 
L 515.931818 248.906698 
L 516.777273 287.403731 
L 517.2 244.475354 
L 517.622727 250.155299 
L 518.045455 236.969901 
L 518.468182 294.50097 
L 518.890909 243.410176 
L 519.313636 283.337526 
L 519.736364 272.778548 
L 520.159091 222.206469 
L 520.581818 306.729833 
L 521.004545 198.273927 
L 521.427273 252.447245 
L 521.85 227.231325 
L 522.272727 239.219444 
L 522.695455 226.614433 
L 523.118182 277.962679 
L 523.540909 307.03704 
L 523.963636 180.104743 
L 524.386364 226.036236 
L 524.809091 222.486406 
L 525.231818 222.042713 
L 525.654545 237.136102 
L 526.077273 263.674514 
L 526.5 193.794572 
L 526.922727 286.170772 
L 527.345455 214.062073 
L 527.768182 284.768783 
L 528.613636 233.129286 
L 529.459091 141.1406 
L 529.881818 185.66967 
L 530.304545 209.626262 
L 530.727273 221.781208 
L 531.15 281.605271 
L 531.572727 294.486742 
L 531.995455 203.649286 
L 532.418182 279.629607 
L 532.840909 315.254504 
L 533.263636 315.133482 
L 533.686364 340.611551 
L 534.531818 297.191841 
L 534.954545 301.256456 
L 535.377273 326.048667 
L 535.8 284.364466 
L 536.222727 324.3511 
L 536.645455 334.14877 
L 537.068182 305.849967 
L 537.490909 237.32792 
L 537.913636 324.154271 
L 538.336364 312.948101 
L 538.759091 263.388318 
L 539.181818 280.665378 
L 539.604545 285.365797 
L 540.027273 285.511343 
L 540.45 324.336896 
L 540.872727 347.888009 
L 541.295455 344.510069 
L 541.718182 363.078483 
L 542.140909 299.459104 
L 542.563636 295.350946 
L 542.986364 351.779222 
L 543.409091 321.081525 
L 543.831818 227.396426 
L 544.254545 181.694403 
L 544.677273 248.652878 
L 545.1 243.817106 
L 545.522727 251.131552 
L 545.945455 303.124796 
L 546.368182 326.874448 
L 546.790909 314.740616 
L 547.213636 330.529525 
L 547.636364 330.615058 
L 548.059091 301.086395 
L 548.481818 210.274188 
L 548.904545 275.507545 
L 549.327273 273.889745 
L 549.75 274.015464 
L 550.172727 286.962653 
L 550.595455 305.638875 
L 551.018182 299.523407 
L 551.440909 251.381811 
L 552.286364 325.296652 
L 552.709091 285.898185 
L 553.131818 268.963141 
L 553.554545 268.17699 
L 553.977273 309.699213 
L 554.4 286.678432 
L 554.822727 295.607529 
L 555.245455 369.36 
L 555.668182 279.830217 
L 556.090909 324.654767 
L 556.513636 297.866752 
L 556.936364 314.167343 
L 557.781818 252.78146 
L 558.204545 320.513078 
L 559.05 291.801593 
L 559.472727 310.384215 
L 559.895455 314.173941 
L 560.318182 304.800731 
L 560.740909 336.669894 
L 561.163636 204.611116 
L 561.586364 279.199122 
L 562.009091 317.454975 
L 562.431818 341.474659 
L 562.854545 327.161404 
L 563.277273 356.09445 
L 563.7 319.212359 
L 564.545455 266.034463 
L 564.968182 292.566737 
L 565.390909 298.405245 
L 565.813636 295.133193 
L 566.236364 294.885011 
L 566.659091 293.852974 
L 567.081818 278.782018 
L 567.504545 330.006725 
L 567.927273 234.528781 
L 568.35 272.966341 
L 568.772727 322.535985 
L 569.618182 308.085045 
L 570.040909 252.259358 
L 570.463636 306.005655 
L 570.886364 332.534759 
L 571.309091 264.428267 
L 571.731818 293.124417 
L 572.154545 296.036792 
L 572.577273 323.432174 
L 573 287.859458 
L 573.422727 320.999244 
L 573.845455 331.520357 
L 574.690909 299.898605 
L 575.113636 270.382229 
L 575.536364 312.701532 
L 575.959091 259.141382 
L 576.381818 299.733039 
L 576.804545 275.594803 
L 577.227273 317.4149 
L 577.65 278.333759 
L 578.072727 301.538391 
L 578.495455 280.41043 
L 578.918182 247.055325 
L 579.340909 252.085543 
L 579.763636 300.990552 
L 580.186364 221.474958 
L 580.609091 285.615209 
L 581.031818 295.235797 
L 581.454545 333.094421 
L 581.877273 343.878573 
L 582.3 324.63736 
L 582.722727 363.015256 
L 583.145455 332.056818 
L 583.568182 328.507481 
L 583.990909 227.536687 
L 584.836364 295.5105 
L 585.259091 283.264139 
L 585.681818 281.558134 
L 586.104545 307.639513 
L 586.527273 295.122179 
L 586.95 298.814094 
L 587.372727 288.825332 
L 587.795455 232.103697 
L 588.218182 270.348494 
L 588.640909 296.642071 
L 589.063636 282.154799 
L 589.486364 293.923114 
L 589.909091 294.622955 
L 590.331818 223.456008 
L 590.754545 267.301321 
L 591.177273 296.938138 
L 591.6 269.188389 
L 592.022727 277.615937 
L 592.445455 295.999961 
L 592.868182 361.92645 
L 593.290909 339.688363 
L 594.136364 283.087583 
L 594.559091 228.545372 
L 594.981818 262.446673 
L 595.404545 264.830906 
L 595.827273 240.458724 
L 596.25 254.778202 
L 596.672727 248.886694 
L 597.095455 265.059599 
L 597.518182 305.259934 
L 597.940909 241.177797 
L 598.363636 200.047233 
L 598.786364 232.823207 
L 599.209091 286.142156 
L 599.631818 309.048761 
L 600.054545 261.462548 
L 600.477273 237.52152 
L 600.9 297.308827 
L 601.322727 245.471721 
L 601.745455 232.348639 
L 602.168182 252.255876 
L 602.590909 259.265756 
L 603.013636 257.436849 
L 603.436364 207.382576 
L 603.859091 236.972314 
L 604.281818 258.088174 
L 604.704545 234.81563 
L 605.127273 201.508699 
L 605.972727 280.069267 
L 606.395455 270.110656 
L 606.818182 311.804743 
L 607.240909 305.89412 
L 607.663636 314.97346 
L 608.086364 242.500882 
L 608.509091 241.078073 
L 608.931818 230.299011 
L 609.354545 259.568569 
L 609.777273 255.84711 
L 610.2 259.372578 
L 610.622727 237.248766 
L 611.045455 260.07703 
L 611.468182 257.685811 
L 611.890909 282.822483 
L 612.313636 287.758499 
L 612.736364 286.778605 
L 613.159091 224.432846 
L 613.581818 252.828038 
L 614.004545 220.461242 
L 614.427273 196.935996 
L 614.85 267.519468 
L 615.272727 272.06849 
L 615.695455 301.677431 
L 616.118182 261.571123 
L 616.540909 245.394762 
L 616.963636 267.071586 
L 617.386364 224.102602 
L 617.809091 277.19144 
L 618.231818 228.239092 
L 618.654545 284.258283 
L 619.077273 214.289867 
L 619.5 222.487779 
L 620.345455 243.68849 
L 620.768182 231.742089 
L 621.190909 213.887899 
L 621.613636 213.743861 
L 622.459091 290.119806 
L 622.881818 287.840313 
L 623.304545 275.71288 
L 623.727273 230.785815 
L 624.15 208.33857 
L 624.572727 149.790252 
L 624.995455 249.704042 
L 625.418182 202.946337 
L 625.840909 225.806993 
L 626.263636 240.966668 
L 626.686364 199.641156 
L 627.109091 253.926254 
L 627.531818 255.038414 
L 627.954545 253.1389 
L 628.377273 258.373747 
L 628.8 237.905231 
L 629.645455 297.246386 
L 630.068182 299.797473 
L 630.490909 322.115241 
L 630.913636 306.741362 
L 631.336364 231.094071 
L 631.759091 276.2342 
L 633.027273 368.172938 
L 633.45 291.106978 
L 633.872727 234.979227 
L 634.295455 254.649484 
L 634.718182 235.237099 
L 635.563636 327.677914 
L 635.986364 161.332107 
L 636.409091 250.112322 
L 637.254545 313.693493 
L 637.677273 274.087988 
L 638.1 342.878705 
L 638.522727 298.774551 
L 638.945455 317.169023 
L 639.368182 268.725911 
L 639.790909 236.706223 
L 640.213636 277.545948 
L 640.636364 229.510263 
L 641.059091 209.659436 
L 641.481818 209.99869 
L 641.904545 280.890654 
L 642.327273 268.838927 
L 642.75 323.479134 
L 643.172727 273.056661 
L 643.595455 344.471529 
L 644.018182 313.595748 
L 644.440909 310.815892 
L 644.863636 232.993775 
L 645.286364 258.188592 
L 645.709091 307.22098 
L 646.131818 270.620137 
L 646.554545 301.761352 
L 646.977273 287.224535 
L 647.4 219.678036 
L 647.822727 312.784572 
L 648.668182 246.673207 
L 649.090909 310.986846 
L 649.513636 309.81474 
L 649.936364 281.711877 
L 650.359091 266.963414 
L 650.781818 317.050808 
L 651.204545 240.194704 
L 651.627273 205.094082 
L 652.05 208.762565 
L 652.472727 198.131725 
L 652.895455 206.015231 
L 653.318182 260.532693 
L 653.740909 270.62132 
L 654.163636 218.552889 
L 654.586364 208.462218 
L 655.009091 219.145391 
L 655.431818 162.249269 
L 655.854545 217.497071 
L 656.7 191.896123 
L 657.122727 227.987759 
L 657.545455 250.25707 
L 657.968182 217.617948 
L 658.813636 264.851914 
L 659.236364 261.31907 
L 659.659091 229.969863 
L 660.081818 237.667922 
L 660.504545 206.951893 
L 660.927273 196.589519 
L 661.35 235.733593 
L 661.772727 232.665321 
L 662.195455 216.308961 
L 662.618182 250.039144 
L 663.040909 341.447312 
L 663.463636 323.794134 
L 663.886364 239.868699 
L 664.309091 221.321008 
L 664.731818 268.436592 
L 665.154545 256.345046 
L 665.577273 279.18961 
L 666 227.028717 
L 666.422727 250.532228 
L 666.845455 317.634076 
L 667.268182 258.823613 
L 667.690909 274.042861 
L 668.113636 337.886456 
L 668.536364 284.998424 
L 668.959091 342.045104 
L 669.381818 257.242121 
L 669.804545 268.999673 
L 670.227273 233.957886 
L 670.65 167.096829 
L 671.072727 222.848225 
L 671.495455 199.804746 
L 671.918182 220.955095 
L 672.340909 217.67679 
L 672.763636 205.801609 
L 673.186364 212.546833 
L 673.609091 233.874382 
L 674.031818 290.07864 
L 674.454545 253.206904 
L 674.877273 247.088611 
L 675.3 247.442077 
L 675.722727 269.109153 
L 676.145455 237.657757 
L 676.568182 241.306848 
L 676.990909 236.120698 
L 677.413636 224.736191 
L 677.836364 306.975422 
L 678.259091 252.984094 
L 678.681818 273.769086 
L 679.104545 270.559493 
L 679.527273 276.902474 
L 679.95 221.743608 
L 680.372727 240.802631 
L 680.795455 218.458746 
L 681.218182 232.668345 
L 681.640909 228.342406 
L 682.063636 236.143775 
L 682.486364 237.95929 
L 682.909091 281.997872 
L 683.331818 311.252601 
L 683.754545 297.648901 
L 684.177273 288.191127 
L 684.6 211.884317 
L 685.022727 287.961501 
L 685.868182 253.343976 
L 686.290909 263.371024 
L 686.713636 228.304453 
L 687.136364 250.796938 
L 687.559091 215.217362 
L 687.981818 302.369569 
L 688.404545 256.245877 
L 688.827273 258.48489 
L 689.25 302.809517 
L 689.672727 240.472194 
L 690.095455 220.713642 
L 690.518182 188.18922 
L 690.940909 267.913669 
L 691.363636 285.828107 
L 691.786364 220.262937 
L 692.209091 275.961285 
L 692.631818 311.417987 
L 693.054545 308.954524 
L 693.477273 354.607738 
L 693.9 261.606948 
L 694.322727 317.705443 
L 694.745455 243.427132 
L 695.168182 258.666694 
L 695.590909 253.376307 
L 696.013636 327.313353 
L 696.436364 323.517966 
L 696.859091 324.832425 
L 697.281818 294.517791 
L 697.704545 315.344974 
L 698.127273 292.736973 
L 698.55 304.953211 
L 698.972727 306.230725 
L 699.395455 308.6259 
L 699.818182 262.260658 
L 700.240909 275.703309 
L 700.663636 277.361586 
L 701.086364 261.027774 
L 701.509091 192.859906 
L 701.931818 171.082025 
L 702.354545 212.716778 
L 702.777273 240.725182 
L 703.2 251.270479 
L 703.622727 236.34472 
L 704.045455 263.721184 
L 704.468182 243.654193 
L 704.890909 248.350797 
L 705.313636 230.147827 
L 705.736364 236.811445 
L 706.159091 222.031831 
L 706.581818 131.895822 
L 707.004545 160.567703 
L 707.427273 166.861927 
L 707.85 171.183177 
L 708.695455 220.657307 
L 709.118182 198.892808 
L 709.540909 251.288469 
L 709.963636 228.115551 
L 710.386364 229.621403 
L 710.809091 205.56502 
L 711.231818 194.703328 
L 711.654545 206.036757 
L 712.077273 181.23878 
L 712.5 242.976544 
L 712.922727 169.850346 
L 713.345455 242.862242 
L 713.768182 229.253345 
L 714.190909 201.008811 
L 714.613636 243.951683 
L 715.036364 236.538227 
L 715.459091 264.48507 
L 715.881818 258.445523 
L 716.304545 260.400563 
L 716.727273 172.445376 
L 717.15 222.878058 
L 717.572727 170.956858 
L 717.995455 217.89305 
L 718.418182 211.698225 
L 718.840909 268.605952 
L 719.263636 221.7392 
L 719.686364 249.362906 
L 720.109091 218.499466 
L 720.531818 166.144411 
L 720.954545 197.761219 
L 721.377273 195.881434 
L 721.8 241.45068 
L 722.222727 242.850365 
L 722.645455 225.576141 
L 723.068182 249.451849 
L 723.490909 234.399536 
L 723.913636 232.921315 
L 724.336364 292.897711 
L 724.759091 256.703776 
L 725.181818 242.79912 
L 725.604545 190.034734 
L 726.027273 204.097028 
L 726.45 259.839993 
L 726.872727 219.915154 
L 727.718182 252.241946 
L 728.140909 241.702607 
L 728.563636 244.670626 
L 728.986364 246.384014 
L 729.409091 225.364398 
L 729.831818 278.214306 
L 730.254545 246.604301 
L 730.677273 242.331735 
L 731.1 192.515045 
L 731.522727 270.785405 
L 731.945455 187.385961 
L 732.368182 209.489701 
L 732.790909 254.112289 
L 733.213636 246.421215 
L 733.636364 219.362277 
L 734.059091 209.252749 
L 734.481818 259.120497 
L 734.904545 212.587919 
L 735.327273 269.252522 
L 735.75 247.348399 
L 736.172727 264.557288 
L 736.595455 262.371604 
L 737.018182 295.252761 
L 737.440909 232.240614 
L 737.863636 270.106384 
L 738.286364 271.484063 
L 738.709091 281.848492 
L 739.131818 280.226523 
L 739.554545 225.390272 
L 739.977273 275.312495 
L 740.4 240.233815 
L 740.822727 228.892252 
L 741.245455 253.241268 
L 741.668182 208.638272 
L 742.090909 223.069191 
L 742.513636 206.593702 
L 742.936364 228.414577 
L 743.359091 100.163605 
L 743.781818 169.168742 
L 744.204545 104.783824 
L 744.627273 66.96 
L 745.05 125.92002 
L 745.472727 94.118095 
L 745.895455 104.264202 
L 746.318182 86.432177 
L 746.318182 86.432177 
" style="fill:none;stroke:#1f77b4;stroke-linecap:square;stroke-width:1.5;"/>
   </g>
   <g id="line2d_18">
    <path clip-path="url(#p9962697ebc)" d="M 747.163636 384.48 
L 747.163636 51.84 
" style="fill:none;stroke:#808080;stroke-linecap:square;"/>
   </g>
   <g id="patch_85">
    <path d="M 108 384.48 
L 108 51.84 
" style="fill:none;stroke:#000000;stroke-linecap:square;stroke-linejoin:miter;stroke-width:0.8;"/>
   </g>
   <g id="patch_86">
    <path d="M 777.6 384.48 
L 777.6 51.84 
" style="fill:none;stroke:#000000;stroke-linecap:square;stroke-linejoin:miter;stroke-width:0.8;"/>
   </g>
   <g id="patch_87">
    <path d="M 108 384.48 
L 777.6 384.48 
" style="fill:none;stroke:#000000;stroke-linecap:square;stroke-linejoin:miter;stroke-width:0.8;"/>
   </g>
   <g id="patch_88">
    <path d="M 108 51.84 
L 777.6 51.84 
" style="fill:none;stroke:#000000;stroke-linecap:square;stroke-linejoin:miter;stroke-width:0.8;"/>
   </g>
   <g id="text_19">
    <!-- real_63.csv -->
    <defs>
     <path d="M 41.109375 46.296875 
Q 39.59375 47.171875 37.8125 47.578125 
Q 36.03125 48 33.890625 48 
Q 26.265625 48 22.1875 43.046875 
Q 18.109375 38.09375 18.109375 28.8125 
L 18.109375 0 
L 9.078125 0 
L 9.078125 54.6875 
L 18.109375 54.6875 
L 18.109375 46.1875 
Q 20.953125 51.171875 25.484375 53.578125 
Q 30.03125 56 36.53125 56 
Q 37.453125 56 38.578125 55.875 
Q 39.703125 55.765625 41.0625 55.515625 
z
" id="DejaVuSans-114"/>
     <path d="M 50.984375 -16.609375 
L 50.984375 -23.578125 
L -0.984375 -23.578125 
L -0.984375 -16.609375 
z
" id="DejaVuSans-95"/>
     <path d="M 40.578125 39.3125 
Q 47.65625 37.796875 51.625 33 
Q 55.609375 28.21875 55.609375 21.1875 
Q 55.609375 10.40625 48.1875 4.484375 
Q 40.765625 -1.421875 27.09375 -1.421875 
Q 22.515625 -1.421875 17.65625 -0.515625 
Q 12.796875 0.390625 7.625 2.203125 
L 7.625 11.71875 
Q 11.71875 9.328125 16.59375 8.109375 
Q 21.484375 6.890625 26.8125 6.890625 
Q 36.078125 6.890625 40.9375 10.546875 
Q 45.796875 14.203125 45.796875 21.1875 
Q 45.796875 27.640625 41.28125 31.265625 
Q 36.765625 34.90625 28.71875 34.90625 
L 20.21875 34.90625 
L 20.21875 43.015625 
L 29.109375 43.015625 
Q 36.375 43.015625 40.234375 45.921875 
Q 44.09375 48.828125 44.09375 54.296875 
Q 44.09375 59.90625 40.109375 62.90625 
Q 36.140625 65.921875 28.71875 65.921875 
Q 24.65625 65.921875 20.015625 65.03125 
Q 15.375 64.15625 9.8125 62.3125 
L 9.8125 71.09375 
Q 15.4375 72.65625 20.34375 73.4375 
Q 25.25 74.21875 29.59375 74.21875 
Q 40.828125 74.21875 47.359375 69.109375 
Q 53.90625 64.015625 53.90625 55.328125 
Q 53.90625 49.265625 50.4375 45.09375 
Q 46.96875 40.921875 40.578125 39.3125 
z
" id="DejaVuSans-51"/>
     <path d="M 10.6875 12.40625 
L 21 12.40625 
L 21 0 
L 10.6875 0 
z
" id="DejaVuSans-46"/>
     <path d="M 48.78125 52.59375 
L 48.78125 44.1875 
Q 44.96875 46.296875 41.140625 47.34375 
Q 37.3125 48.390625 33.40625 48.390625 
Q 24.65625 48.390625 19.8125 42.84375 
Q 14.984375 37.3125 14.984375 27.296875 
Q 14.984375 17.28125 19.8125 11.734375 
Q 24.65625 6.203125 33.40625 6.203125 
Q 37.3125 6.203125 41.140625 7.25 
Q 44.96875 8.296875 48.78125 10.40625 
L 48.78125 2.09375 
Q 45.015625 0.34375 40.984375 -0.53125 
Q 36.96875 -1.421875 32.421875 -1.421875 
Q 20.0625 -1.421875 12.78125 6.34375 
Q 5.515625 14.109375 5.515625 27.296875 
Q 5.515625 40.671875 12.859375 48.328125 
Q 20.21875 56 33.015625 56 
Q 37.15625 56 41.109375 55.140625 
Q 45.0625 54.296875 48.78125 52.59375 
z
" id="DejaVuSans-99"/>
     <path d="M 2.984375 54.6875 
L 12.5 54.6875 
L 29.59375 8.796875 
L 46.6875 54.6875 
L 56.203125 54.6875 
L 35.6875 0 
L 23.484375 0 
z
" id="DejaVuSans-118"/>
    </defs>
    <g transform="translate(408.781875 45.84)scale(0.12 -0.12)">
     <use xlink:href="#DejaVuSans-114"/>
     <use x="41.082031" xlink:href="#DejaVuSans-101"/>
     <use x="102.605469" xlink:href="#DejaVuSans-97"/>
     <use x="163.884766" xlink:href="#DejaVuSans-108"/>
     <use x="191.667969" xlink:href="#DejaVuSans-95"/>
     <use x="241.667969" xlink:href="#DejaVuSans-54"/>
     <use x="305.291016" xlink:href="#DejaVuSans-51"/>
     <use x="368.914062" xlink:href="#DejaVuSans-46"/>
     <use x="400.701172" xlink:href="#DejaVuSans-99"/>
     <use x="455.681641" xlink:href="#DejaVuSans-115"/>
     <use x="507.78125" xlink:href="#DejaVuSans-118"/>
    </g>
   </g>
   <g id="legend_1">
    <g id="patch_89">
     <path d="M 115 74.518125 
L 174.315625 74.518125 
Q 176.315625 74.518125 176.315625 72.518125 
L 176.315625 58.84 
Q 176.315625 56.84 174.315625 56.84 
L 115 56.84 
Q 113 56.84 113 58.84 
L 113 72.518125 
Q 113 74.518125 115 74.518125 
z
" style="fill:#ffffff;opacity:0.8;stroke:#cccccc;stroke-linejoin:miter;"/>
    </g>
    <g id="line2d_19">
     <path d="M 117 64.938438 
L 137 64.938438 
" style="fill:none;stroke:#1f77b4;stroke-linecap:square;stroke-width:1.5;"/>
    </g>
    <g id="line2d_20"/>
    <g id="text_20">
     <!-- value -->
     <g transform="translate(145 68.438438)scale(0.1 -0.1)">
      <use xlink:href="#DejaVuSans-118"/>
      <use x="59.179688" xlink:href="#DejaVuSans-97"/>
      <use x="120.458984" xlink:href="#DejaVuSans-108"/>
      <use x="148.242188" xlink:href="#DejaVuSans-117"/>
      <use x="211.621094" xlink:href="#DejaVuSans-101"/>
     </g>
    </g>
   </g>
  </g>
 </g>
 <defs>
  <clipPath id="p9962697ebc">
   <rect height="332.64" width="669.6" x="108" y="51.84"/>
  </clipPath>
 </defs>
</svg>
