<?xml version="1.0" encoding="utf-8" standalone="no"?>
<!DOCTYPE svg PUBLIC "-//W3C//DTD SVG 1.1//EN"
  "http://www.w3.org/Graphics/SVG/1.1/DTD/svg11.dtd">
<!-- Created with matplotlib (https://matplotlib.org/) -->
<svg height="432pt" version="1.1" viewBox="0 0 864 432" width="864pt" xmlns="http://www.w3.org/2000/svg" xmlns:xlink="http://www.w3.org/1999/xlink">
 <defs>
  <style type="text/css">
*{stroke-linecap:butt;stroke-linejoin:round;}
  </style>
 </defs>
 <g id="figure_1">
  <g id="patch_1">
   <path d="M 0 432 
L 864 432 
L 864 0 
L 0 0 
z
" style="fill:#ffffff;"/>
  </g>
  <g id="axes_1">
   <g id="patch_2">
    <path d="M 108 384.48 
L 777.6 384.48 
L 777.6 51.84 
L 108 51.84 
z
" style="fill:#ffffff;"/>
   </g>
   <g id="patch_3">
    <path clip-path="url(#pef3678018c)" d="M 138.436364 384.48 
L 138.436364 51.84 
L 369.9242 51.84 
L 369.9242 384.48 
z
" style="fill:#0000ff;opacity:0.05;"/>
   </g>
   <g id="patch_4">
    <path clip-path="url(#pef3678018c)" d="M 369.9242 384.48 
L 369.9242 51.84 
L 742.876825 51.84 
L 742.876825 384.48 
z
" style="fill:#ff0000;opacity:0.08;"/>
   </g>
   <g id="patch_5">
    <path clip-path="url(#pef3678018c)" d="M 138.436364 384.48 
L 138.436364 51.84 
L 151.296799 51.84 
L 151.296799 384.48 
z
" style="fill:#008000;opacity:0.04;"/>
   </g>
   <g id="patch_6">
    <path clip-path="url(#pef3678018c)" d="M 164.157234 384.48 
L 164.157234 51.84 
L 177.01767 51.84 
L 177.01767 384.48 
z
" style="fill:#008000;opacity:0.04;"/>
   </g>
   <g id="patch_7">
    <path clip-path="url(#pef3678018c)" d="M 189.878105 384.48 
L 189.878105 51.84 
L 202.73854 51.84 
L 202.73854 384.48 
z
" style="fill:#008000;opacity:0.04;"/>
   </g>
   <g id="patch_8">
    <path clip-path="url(#pef3678018c)" d="M 215.598976 384.48 
L 215.598976 51.84 
L 228.459411 51.84 
L 228.459411 384.48 
z
" style="fill:#008000;opacity:0.04;"/>
   </g>
   <g id="patch_9">
    <path clip-path="url(#pef3678018c)" d="M 241.319846 384.48 
L 241.319846 51.84 
L 254.180282 51.84 
L 254.180282 384.48 
z
" style="fill:#008000;opacity:0.04;"/>
   </g>
   <g id="patch_10">
    <path clip-path="url(#pef3678018c)" d="M 267.040717 384.48 
L 267.040717 51.84 
L 279.901152 51.84 
L 279.901152 384.48 
z
" style="fill:#008000;opacity:0.04;"/>
   </g>
   <g id="patch_11">
    <path clip-path="url(#pef3678018c)" d="M 292.761588 384.48 
L 292.761588 51.84 
L 305.622023 51.84 
L 305.622023 384.48 
z
" style="fill:#008000;opacity:0.04;"/>
   </g>
   <g id="patch_12">
    <path clip-path="url(#pef3678018c)" d="M 318.482458 384.48 
L 318.482458 51.84 
L 331.342894 51.84 
L 331.342894 384.48 
z
" style="fill:#008000;opacity:0.04;"/>
   </g>
   <g id="patch_13">
    <path clip-path="url(#pef3678018c)" d="M 344.203329 384.48 
L 344.203329 51.84 
L 357.063764 51.84 
L 357.063764 384.48 
z
" style="fill:#008000;opacity:0.04;"/>
   </g>
   <g id="patch_14">
    <path clip-path="url(#pef3678018c)" d="M 344.203329 384.48 
L 344.203329 371.1744 
L 357.063764 371.1744 
L 357.063764 384.48 
z
" style="fill:#ffe500;"/>
   </g>
   <g id="patch_15">
    <path clip-path="url(#pef3678018c)" d="M 369.9242 384.48 
L 369.9242 51.84 
L 382.784635 51.84 
L 382.784635 384.48 
z
" style="fill:#008000;opacity:0.04;"/>
   </g>
   <g id="patch_16">
    <path clip-path="url(#pef3678018c)" d="M 395.64507 384.48 
L 395.64507 51.84 
L 408.505506 51.84 
L 408.505506 384.48 
z
" style="fill:#008000;opacity:0.04;"/>
   </g>
   <g id="patch_17">
    <path clip-path="url(#pef3678018c)" d="M 421.365941 384.48 
L 421.365941 51.84 
L 434.226376 51.84 
L 434.226376 384.48 
z
" style="fill:#008000;opacity:0.04;"/>
   </g>
   <g id="patch_18">
    <path clip-path="url(#pef3678018c)" d="M 447.086812 384.48 
L 447.086812 51.84 
L 459.947247 51.84 
L 459.947247 384.48 
z
" style="fill:#008000;opacity:0.04;"/>
   </g>
   <g id="patch_19">
    <path clip-path="url(#pef3678018c)" d="M 472.807682 384.48 
L 472.807682 51.84 
L 485.668118 51.84 
L 485.668118 384.48 
z
" style="fill:#008000;opacity:0.04;"/>
   </g>
   <g id="patch_20">
    <path clip-path="url(#pef3678018c)" d="M 498.528553 384.48 
L 498.528553 51.84 
L 511.388988 51.84 
L 511.388988 384.48 
z
" style="fill:#008000;opacity:0.04;"/>
   </g>
   <g id="patch_21">
    <path clip-path="url(#pef3678018c)" d="M 511.388988 371.1744 
L 511.388988 51.84 
L 524.249424 51.84 
L 524.249424 371.1744 
z
" style="fill:#008000;opacity:0.5;"/>
   </g>
   <g id="patch_22">
    <path clip-path="url(#pef3678018c)" d="M 524.249424 384.48 
L 524.249424 51.84 
L 537.109859 51.84 
L 537.109859 384.48 
z
" style="fill:#008000;opacity:0.04;"/>
   </g>
   <g id="patch_23">
    <path clip-path="url(#pef3678018c)" d="M 549.970294 384.48 
L 549.970294 51.84 
L 562.83073 51.84 
L 562.83073 384.48 
z
" style="fill:#008000;opacity:0.04;"/>
   </g>
   <g id="patch_24">
    <path clip-path="url(#pef3678018c)" d="M 575.691165 384.48 
L 575.691165 51.84 
L 588.551601 51.84 
L 588.551601 384.48 
z
" style="fill:#008000;opacity:0.04;"/>
   </g>
   <g id="patch_25">
    <path clip-path="url(#pef3678018c)" d="M 601.412036 384.48 
L 601.412036 51.84 
L 614.272471 51.84 
L 614.272471 384.48 
z
" style="fill:#008000;opacity:0.04;"/>
   </g>
   <g id="patch_26">
    <path clip-path="url(#pef3678018c)" d="M 627.132907 384.48 
L 627.132907 51.84 
L 639.993342 51.84 
L 639.993342 384.48 
z
" style="fill:#008000;opacity:0.04;"/>
   </g>
   <g id="patch_27">
    <path clip-path="url(#pef3678018c)" d="M 652.853777 384.48 
L 652.853777 51.84 
L 665.714213 51.84 
L 665.714213 384.48 
z
" style="fill:#008000;opacity:0.04;"/>
   </g>
   <g id="patch_28">
    <path clip-path="url(#pef3678018c)" d="M 678.574648 384.48 
L 678.574648 51.84 
L 691.435083 51.84 
L 691.435083 384.48 
z
" style="fill:#008000;opacity:0.04;"/>
   </g>
   <g id="patch_29">
    <path clip-path="url(#pef3678018c)" d="M 704.295519 384.48 
L 704.295519 51.84 
L 717.155954 51.84 
L 717.155954 384.48 
z
" style="fill:#008000;opacity:0.04;"/>
   </g>
   <g id="patch_30">
    <path clip-path="url(#pef3678018c)" d="M 730.016389 384.48 
L 730.016389 51.84 
L 742.876825 51.84 
L 742.876825 384.48 
z
" style="fill:#008000;opacity:0.04;"/>
   </g>
   <g id="matplotlib.axis_1">
    <g id="xtick_1">
     <g id="line2d_1">
      <defs>
       <path d="M 0 0 
L 0 3.5 
" id="m984f27e4a1" style="stroke:#000000;stroke-width:0.8;"/>
      </defs>
      <g>
       <use style="stroke:#000000;stroke-width:0.8;" x="138.436364" xlink:href="#m984f27e4a1" y="384.48"/>
      </g>
     </g>
     <g id="text_1">
      <!-- 0 -->
      <defs>
       <path d="M 31.78125 66.40625 
Q 24.171875 66.40625 20.328125 58.90625 
Q 16.5 51.421875 16.5 36.375 
Q 16.5 21.390625 20.328125 13.890625 
Q 24.171875 6.390625 31.78125 6.390625 
Q 39.453125 6.390625 43.28125 13.890625 
Q 47.125 21.390625 47.125 36.375 
Q 47.125 51.421875 43.28125 58.90625 
Q 39.453125 66.40625 31.78125 66.40625 
z
M 31.78125 74.21875 
Q 44.046875 74.21875 50.515625 64.515625 
Q 56.984375 54.828125 56.984375 36.375 
Q 56.984375 17.96875 50.515625 8.265625 
Q 44.046875 -1.421875 31.78125 -1.421875 
Q 19.53125 -1.421875 13.0625 8.265625 
Q 6.59375 17.96875 6.59375 36.375 
Q 6.59375 54.828125 13.0625 64.515625 
Q 19.53125 74.21875 31.78125 74.21875 
z
" id="DejaVuSans-48"/>
      </defs>
      <g transform="translate(135.255114 399.078438)scale(0.1 -0.1)">
       <use xlink:href="#DejaVuSans-48"/>
      </g>
     </g>
    </g>
    <g id="xtick_2">
     <g id="line2d_2">
      <g>
       <use style="stroke:#000000;stroke-width:0.8;" x="224.172599" xlink:href="#m984f27e4a1" y="384.48"/>
      </g>
     </g>
     <g id="text_2">
      <!-- 200 -->
      <defs>
       <path d="M 19.1875 8.296875 
L 53.609375 8.296875 
L 53.609375 0 
L 7.328125 0 
L 7.328125 8.296875 
Q 12.9375 14.109375 22.625 23.890625 
Q 32.328125 33.6875 34.8125 36.53125 
Q 39.546875 41.84375 41.421875 45.53125 
Q 43.3125 49.21875 43.3125 52.78125 
Q 43.3125 58.59375 39.234375 62.25 
Q 35.15625 65.921875 28.609375 65.921875 
Q 23.96875 65.921875 18.8125 64.3125 
Q 13.671875 62.703125 7.8125 59.421875 
L 7.8125 69.390625 
Q 13.765625 71.78125 18.9375 73 
Q 24.125 74.21875 28.421875 74.21875 
Q 39.75 74.21875 46.484375 68.546875 
Q 53.21875 62.890625 53.21875 53.421875 
Q 53.21875 48.921875 51.53125 44.890625 
Q 49.859375 40.875 45.40625 35.40625 
Q 44.1875 33.984375 37.640625 27.21875 
Q 31.109375 20.453125 19.1875 8.296875 
z
" id="DejaVuSans-50"/>
      </defs>
      <g transform="translate(214.628849 399.078438)scale(0.1 -0.1)">
       <use xlink:href="#DejaVuSans-50"/>
       <use x="63.623047" xlink:href="#DejaVuSans-48"/>
       <use x="127.246094" xlink:href="#DejaVuSans-48"/>
      </g>
     </g>
    </g>
    <g id="xtick_3">
     <g id="line2d_3">
      <g>
       <use style="stroke:#000000;stroke-width:0.8;" x="309.908835" xlink:href="#m984f27e4a1" y="384.48"/>
      </g>
     </g>
     <g id="text_3">
      <!-- 400 -->
      <defs>
       <path d="M 37.796875 64.3125 
L 12.890625 25.390625 
L 37.796875 25.390625 
z
M 35.203125 72.90625 
L 47.609375 72.90625 
L 47.609375 25.390625 
L 58.015625 25.390625 
L 58.015625 17.1875 
L 47.609375 17.1875 
L 47.609375 0 
L 37.796875 0 
L 37.796875 17.1875 
L 4.890625 17.1875 
L 4.890625 26.703125 
z
" id="DejaVuSans-52"/>
      </defs>
      <g transform="translate(300.365085 399.078438)scale(0.1 -0.1)">
       <use xlink:href="#DejaVuSans-52"/>
       <use x="63.623047" xlink:href="#DejaVuSans-48"/>
       <use x="127.246094" xlink:href="#DejaVuSans-48"/>
      </g>
     </g>
    </g>
    <g id="xtick_4">
     <g id="line2d_4">
      <g>
       <use style="stroke:#000000;stroke-width:0.8;" x="395.64507" xlink:href="#m984f27e4a1" y="384.48"/>
      </g>
     </g>
     <g id="text_4">
      <!-- 600 -->
      <defs>
       <path d="M 33.015625 40.375 
Q 26.375 40.375 22.484375 35.828125 
Q 18.609375 31.296875 18.609375 23.390625 
Q 18.609375 15.53125 22.484375 10.953125 
Q 26.375 6.390625 33.015625 6.390625 
Q 39.65625 6.390625 43.53125 10.953125 
Q 47.40625 15.53125 47.40625 23.390625 
Q 47.40625 31.296875 43.53125 35.828125 
Q 39.65625 40.375 33.015625 40.375 
z
M 52.59375 71.296875 
L 52.59375 62.3125 
Q 48.875 64.0625 45.09375 64.984375 
Q 41.3125 65.921875 37.59375 65.921875 
Q 27.828125 65.921875 22.671875 59.328125 
Q 17.53125 52.734375 16.796875 39.40625 
Q 19.671875 43.65625 24.015625 45.921875 
Q 28.375 48.1875 33.59375 48.1875 
Q 44.578125 48.1875 50.953125 41.515625 
Q 57.328125 34.859375 57.328125 23.390625 
Q 57.328125 12.15625 50.6875 5.359375 
Q 44.046875 -1.421875 33.015625 -1.421875 
Q 20.359375 -1.421875 13.671875 8.265625 
Q 6.984375 17.96875 6.984375 36.375 
Q 6.984375 53.65625 15.1875 63.9375 
Q 23.390625 74.21875 37.203125 74.21875 
Q 40.921875 74.21875 44.703125 73.484375 
Q 48.484375 72.75 52.59375 71.296875 
z
" id="DejaVuSans-54"/>
      </defs>
      <g transform="translate(386.10132 399.078438)scale(0.1 -0.1)">
       <use xlink:href="#DejaVuSans-54"/>
       <use x="63.623047" xlink:href="#DejaVuSans-48"/>
       <use x="127.246094" xlink:href="#DejaVuSans-48"/>
      </g>
     </g>
    </g>
    <g id="xtick_5">
     <g id="line2d_5">
      <g>
       <use style="stroke:#000000;stroke-width:0.8;" x="481.381306" xlink:href="#m984f27e4a1" y="384.48"/>
      </g>
     </g>
     <g id="text_5">
      <!-- 800 -->
      <defs>
       <path d="M 31.78125 34.625 
Q 24.75 34.625 20.71875 30.859375 
Q 16.703125 27.09375 16.703125 20.515625 
Q 16.703125 13.921875 20.71875 10.15625 
Q 24.75 6.390625 31.78125 6.390625 
Q 38.8125 6.390625 42.859375 10.171875 
Q 46.921875 13.96875 46.921875 20.515625 
Q 46.921875 27.09375 42.890625 30.859375 
Q 38.875 34.625 31.78125 34.625 
z
M 21.921875 38.8125 
Q 15.578125 40.375 12.03125 44.71875 
Q 8.5 49.078125 8.5 55.328125 
Q 8.5 64.0625 14.71875 69.140625 
Q 20.953125 74.21875 31.78125 74.21875 
Q 42.671875 74.21875 48.875 69.140625 
Q 55.078125 64.0625 55.078125 55.328125 
Q 55.078125 49.078125 51.53125 44.71875 
Q 48 40.375 41.703125 38.8125 
Q 48.828125 37.15625 52.796875 32.3125 
Q 56.78125 27.484375 56.78125 20.515625 
Q 56.78125 9.90625 50.3125 4.234375 
Q 43.84375 -1.421875 31.78125 -1.421875 
Q 19.734375 -1.421875 13.25 4.234375 
Q 6.78125 9.90625 6.78125 20.515625 
Q 6.78125 27.484375 10.78125 32.3125 
Q 14.796875 37.15625 21.921875 38.8125 
z
M 18.3125 54.390625 
Q 18.3125 48.734375 21.84375 45.5625 
Q 25.390625 42.390625 31.78125 42.390625 
Q 38.140625 42.390625 41.71875 45.5625 
Q 45.3125 48.734375 45.3125 54.390625 
Q 45.3125 60.0625 41.71875 63.234375 
Q 38.140625 66.40625 31.78125 66.40625 
Q 25.390625 66.40625 21.84375 63.234375 
Q 18.3125 60.0625 18.3125 54.390625 
z
" id="DejaVuSans-56"/>
      </defs>
      <g transform="translate(471.837556 399.078438)scale(0.1 -0.1)">
       <use xlink:href="#DejaVuSans-56"/>
       <use x="63.623047" xlink:href="#DejaVuSans-48"/>
       <use x="127.246094" xlink:href="#DejaVuSans-48"/>
      </g>
     </g>
    </g>
    <g id="xtick_6">
     <g id="line2d_6">
      <g>
       <use style="stroke:#000000;stroke-width:0.8;" x="567.117542" xlink:href="#m984f27e4a1" y="384.48"/>
      </g>
     </g>
     <g id="text_6">
      <!-- 1000 -->
      <defs>
       <path d="M 12.40625 8.296875 
L 28.515625 8.296875 
L 28.515625 63.921875 
L 10.984375 60.40625 
L 10.984375 69.390625 
L 28.421875 72.90625 
L 38.28125 72.90625 
L 38.28125 8.296875 
L 54.390625 8.296875 
L 54.390625 0 
L 12.40625 0 
z
" id="DejaVuSans-49"/>
      </defs>
      <g transform="translate(554.392542 399.078438)scale(0.1 -0.1)">
       <use xlink:href="#DejaVuSans-49"/>
       <use x="63.623047" xlink:href="#DejaVuSans-48"/>
       <use x="127.246094" xlink:href="#DejaVuSans-48"/>
       <use x="190.869141" xlink:href="#DejaVuSans-48"/>
      </g>
     </g>
    </g>
    <g id="xtick_7">
     <g id="line2d_7">
      <g>
       <use style="stroke:#000000;stroke-width:0.8;" x="652.853777" xlink:href="#m984f27e4a1" y="384.48"/>
      </g>
     </g>
     <g id="text_7">
      <!-- 1200 -->
      <g transform="translate(640.128777 399.078438)scale(0.1 -0.1)">
       <use xlink:href="#DejaVuSans-49"/>
       <use x="63.623047" xlink:href="#DejaVuSans-50"/>
       <use x="127.246094" xlink:href="#DejaVuSans-48"/>
       <use x="190.869141" xlink:href="#DejaVuSans-48"/>
      </g>
     </g>
    </g>
    <g id="xtick_8">
     <g id="line2d_8">
      <g>
       <use style="stroke:#000000;stroke-width:0.8;" x="738.590013" xlink:href="#m984f27e4a1" y="384.48"/>
      </g>
     </g>
     <g id="text_8">
      <!-- 1400 -->
      <g transform="translate(725.865013 399.078438)scale(0.1 -0.1)">
       <use xlink:href="#DejaVuSans-49"/>
       <use x="63.623047" xlink:href="#DejaVuSans-52"/>
       <use x="127.246094" xlink:href="#DejaVuSans-48"/>
       <use x="190.869141" xlink:href="#DejaVuSans-48"/>
      </g>
     </g>
    </g>
    <g id="text_9">
     <!-- Timestamp -->
     <defs>
      <path d="M -0.296875 72.90625 
L 61.375 72.90625 
L 61.375 64.59375 
L 35.5 64.59375 
L 35.5 0 
L 25.59375 0 
L 25.59375 64.59375 
L -0.296875 64.59375 
z
" id="DejaVuSans-84"/>
      <path d="M 9.421875 54.6875 
L 18.40625 54.6875 
L 18.40625 0 
L 9.421875 0 
z
M 9.421875 75.984375 
L 18.40625 75.984375 
L 18.40625 64.59375 
L 9.421875 64.59375 
z
" id="DejaVuSans-105"/>
      <path d="M 52 44.1875 
Q 55.375 50.25 60.0625 53.125 
Q 64.75 56 71.09375 56 
Q 79.640625 56 84.28125 50.015625 
Q 88.921875 44.046875 88.921875 33.015625 
L 88.921875 0 
L 79.890625 0 
L 79.890625 32.71875 
Q 79.890625 40.578125 77.09375 44.375 
Q 74.3125 48.1875 68.609375 48.1875 
Q 61.625 48.1875 57.5625 43.546875 
Q 53.515625 38.921875 53.515625 30.90625 
L 53.515625 0 
L 44.484375 0 
L 44.484375 32.71875 
Q 44.484375 40.625 41.703125 44.40625 
Q 38.921875 48.1875 33.109375 48.1875 
Q 26.21875 48.1875 22.15625 43.53125 
Q 18.109375 38.875 18.109375 30.90625 
L 18.109375 0 
L 9.078125 0 
L 9.078125 54.6875 
L 18.109375 54.6875 
L 18.109375 46.1875 
Q 21.1875 51.21875 25.484375 53.609375 
Q 29.78125 56 35.6875 56 
Q 41.65625 56 45.828125 52.96875 
Q 50 49.953125 52 44.1875 
z
" id="DejaVuSans-109"/>
      <path d="M 56.203125 29.59375 
L 56.203125 25.203125 
L 14.890625 25.203125 
Q 15.484375 15.921875 20.484375 11.0625 
Q 25.484375 6.203125 34.421875 6.203125 
Q 39.59375 6.203125 44.453125 7.46875 
Q 49.3125 8.734375 54.109375 11.28125 
L 54.109375 2.78125 
Q 49.265625 0.734375 44.1875 -0.34375 
Q 39.109375 -1.421875 33.890625 -1.421875 
Q 20.796875 -1.421875 13.15625 6.1875 
Q 5.515625 13.8125 5.515625 26.8125 
Q 5.515625 40.234375 12.765625 48.109375 
Q 20.015625 56 32.328125 56 
Q 43.359375 56 49.78125 48.890625 
Q 56.203125 41.796875 56.203125 29.59375 
z
M 47.21875 32.234375 
Q 47.125 39.59375 43.09375 43.984375 
Q 39.0625 48.390625 32.421875 48.390625 
Q 24.90625 48.390625 20.390625 44.140625 
Q 15.875 39.890625 15.1875 32.171875 
z
" id="DejaVuSans-101"/>
      <path d="M 44.28125 53.078125 
L 44.28125 44.578125 
Q 40.484375 46.53125 36.375 47.5 
Q 32.28125 48.484375 27.875 48.484375 
Q 21.1875 48.484375 17.84375 46.4375 
Q 14.5 44.390625 14.5 40.28125 
Q 14.5 37.15625 16.890625 35.375 
Q 19.28125 33.59375 26.515625 31.984375 
L 29.59375 31.296875 
Q 39.15625 29.25 43.1875 25.515625 
Q 47.21875 21.78125 47.21875 15.09375 
Q 47.21875 7.46875 41.1875 3.015625 
Q 35.15625 -1.421875 24.609375 -1.421875 
Q 20.21875 -1.421875 15.453125 -0.5625 
Q 10.6875 0.296875 5.421875 2 
L 5.421875 11.28125 
Q 10.40625 8.6875 15.234375 7.390625 
Q 20.0625 6.109375 24.8125 6.109375 
Q 31.15625 6.109375 34.5625 8.28125 
Q 37.984375 10.453125 37.984375 14.40625 
Q 37.984375 18.0625 35.515625 20.015625 
Q 33.0625 21.96875 24.703125 23.78125 
L 21.578125 24.515625 
Q 13.234375 26.265625 9.515625 29.90625 
Q 5.8125 33.546875 5.8125 39.890625 
Q 5.8125 47.609375 11.28125 51.796875 
Q 16.75 56 26.8125 56 
Q 31.78125 56 36.171875 55.265625 
Q 40.578125 54.546875 44.28125 53.078125 
z
" id="DejaVuSans-115"/>
      <path d="M 18.3125 70.21875 
L 18.3125 54.6875 
L 36.8125 54.6875 
L 36.8125 47.703125 
L 18.3125 47.703125 
L 18.3125 18.015625 
Q 18.3125 11.328125 20.140625 9.421875 
Q 21.96875 7.515625 27.59375 7.515625 
L 36.8125 7.515625 
L 36.8125 0 
L 27.59375 0 
Q 17.1875 0 13.234375 3.875 
Q 9.28125 7.765625 9.28125 18.015625 
L 9.28125 47.703125 
L 2.6875 47.703125 
L 2.6875 54.6875 
L 9.28125 54.6875 
L 9.28125 70.21875 
z
" id="DejaVuSans-116"/>
      <path d="M 34.28125 27.484375 
Q 23.390625 27.484375 19.1875 25 
Q 14.984375 22.515625 14.984375 16.5 
Q 14.984375 11.71875 18.140625 8.90625 
Q 21.296875 6.109375 26.703125 6.109375 
Q 34.1875 6.109375 38.703125 11.40625 
Q 43.21875 16.703125 43.21875 25.484375 
L 43.21875 27.484375 
z
M 52.203125 31.203125 
L 52.203125 0 
L 43.21875 0 
L 43.21875 8.296875 
Q 40.140625 3.328125 35.546875 0.953125 
Q 30.953125 -1.421875 24.3125 -1.421875 
Q 15.921875 -1.421875 10.953125 3.296875 
Q 6 8.015625 6 15.921875 
Q 6 25.140625 12.171875 29.828125 
Q 18.359375 34.515625 30.609375 34.515625 
L 43.21875 34.515625 
L 43.21875 35.40625 
Q 43.21875 41.609375 39.140625 45 
Q 35.0625 48.390625 27.6875 48.390625 
Q 23 48.390625 18.546875 47.265625 
Q 14.109375 46.140625 10.015625 43.890625 
L 10.015625 52.203125 
Q 14.9375 54.109375 19.578125 55.046875 
Q 24.21875 56 28.609375 56 
Q 40.484375 56 46.34375 49.84375 
Q 52.203125 43.703125 52.203125 31.203125 
z
" id="DejaVuSans-97"/>
      <path d="M 18.109375 8.203125 
L 18.109375 -20.796875 
L 9.078125 -20.796875 
L 9.078125 54.6875 
L 18.109375 54.6875 
L 18.109375 46.390625 
Q 20.953125 51.265625 25.265625 53.625 
Q 29.59375 56 35.59375 56 
Q 45.5625 56 51.78125 48.09375 
Q 58.015625 40.1875 58.015625 27.296875 
Q 58.015625 14.40625 51.78125 6.484375 
Q 45.5625 -1.421875 35.59375 -1.421875 
Q 29.59375 -1.421875 25.265625 0.953125 
Q 20.953125 3.328125 18.109375 8.203125 
z
M 48.6875 27.296875 
Q 48.6875 37.203125 44.609375 42.84375 
Q 40.53125 48.484375 33.40625 48.484375 
Q 26.265625 48.484375 22.1875 42.84375 
Q 18.109375 37.203125 18.109375 27.296875 
Q 18.109375 17.390625 22.1875 11.75 
Q 26.265625 6.109375 33.40625 6.109375 
Q 40.53125 6.109375 44.609375 11.75 
Q 48.6875 17.390625 48.6875 27.296875 
z
" id="DejaVuSans-112"/>
     </defs>
     <g transform="translate(414.739062 412.756563)scale(0.1 -0.1)">
      <use xlink:href="#DejaVuSans-84"/>
      <use x="61.037109" xlink:href="#DejaVuSans-105"/>
      <use x="88.820312" xlink:href="#DejaVuSans-109"/>
      <use x="186.232422" xlink:href="#DejaVuSans-101"/>
      <use x="247.755859" xlink:href="#DejaVuSans-115"/>
      <use x="299.855469" xlink:href="#DejaVuSans-116"/>
      <use x="339.064453" xlink:href="#DejaVuSans-97"/>
      <use x="400.34375" xlink:href="#DejaVuSans-109"/>
      <use x="497.755859" xlink:href="#DejaVuSans-112"/>
     </g>
    </g>
   </g>
   <g id="matplotlib.axis_2">
    <g id="ytick_1">
     <g id="line2d_9">
      <defs>
       <path d="M 0 0 
L -3.5 0 
" id="mb1af7454db" style="stroke:#000000;stroke-width:0.8;"/>
      </defs>
      <g>
       <use style="stroke:#000000;stroke-width:0.8;" x="108" xlink:href="#mb1af7454db" y="377.208191"/>
      </g>
     </g>
     <g id="text_10">
      <!-- −2000 -->
      <defs>
       <path d="M 10.59375 35.5 
L 73.1875 35.5 
L 73.1875 27.203125 
L 10.59375 27.203125 
z
" id="DejaVuSans-8722"/>
      </defs>
      <g transform="translate(67.170312 381.00741)scale(0.1 -0.1)">
       <use xlink:href="#DejaVuSans-8722"/>
       <use x="83.789062" xlink:href="#DejaVuSans-50"/>
       <use x="147.412109" xlink:href="#DejaVuSans-48"/>
       <use x="211.035156" xlink:href="#DejaVuSans-48"/>
       <use x="274.658203" xlink:href="#DejaVuSans-48"/>
      </g>
     </g>
    </g>
    <g id="ytick_2">
     <g id="line2d_10">
      <g>
       <use style="stroke:#000000;stroke-width:0.8;" x="108" xlink:href="#mb1af7454db" y="319.503529"/>
      </g>
     </g>
     <g id="text_11">
      <!-- −1000 -->
      <g transform="translate(67.170312 323.302747)scale(0.1 -0.1)">
       <use xlink:href="#DejaVuSans-8722"/>
       <use x="83.789062" xlink:href="#DejaVuSans-49"/>
       <use x="147.412109" xlink:href="#DejaVuSans-48"/>
       <use x="211.035156" xlink:href="#DejaVuSans-48"/>
       <use x="274.658203" xlink:href="#DejaVuSans-48"/>
      </g>
     </g>
    </g>
    <g id="ytick_3">
     <g id="line2d_11">
      <g>
       <use style="stroke:#000000;stroke-width:0.8;" x="108" xlink:href="#mb1af7454db" y="261.798866"/>
      </g>
     </g>
     <g id="text_12">
      <!-- 0 -->
      <g transform="translate(94.6375 265.598085)scale(0.1 -0.1)">
       <use xlink:href="#DejaVuSans-48"/>
      </g>
     </g>
    </g>
    <g id="ytick_4">
     <g id="line2d_12">
      <g>
       <use style="stroke:#000000;stroke-width:0.8;" x="108" xlink:href="#mb1af7454db" y="204.094203"/>
      </g>
     </g>
     <g id="text_13">
      <!-- 1000 -->
      <g transform="translate(75.55 207.893422)scale(0.1 -0.1)">
       <use xlink:href="#DejaVuSans-49"/>
       <use x="63.623047" xlink:href="#DejaVuSans-48"/>
       <use x="127.246094" xlink:href="#DejaVuSans-48"/>
       <use x="190.869141" xlink:href="#DejaVuSans-48"/>
      </g>
     </g>
    </g>
    <g id="ytick_5">
     <g id="line2d_13">
      <g>
       <use style="stroke:#000000;stroke-width:0.8;" x="108" xlink:href="#mb1af7454db" y="146.389541"/>
      </g>
     </g>
     <g id="text_14">
      <!-- 2000 -->
      <g transform="translate(75.55 150.18876)scale(0.1 -0.1)">
       <use xlink:href="#DejaVuSans-50"/>
       <use x="63.623047" xlink:href="#DejaVuSans-48"/>
       <use x="127.246094" xlink:href="#DejaVuSans-48"/>
       <use x="190.869141" xlink:href="#DejaVuSans-48"/>
      </g>
     </g>
    </g>
    <g id="ytick_6">
     <g id="line2d_14">
      <g>
       <use style="stroke:#000000;stroke-width:0.8;" x="108" xlink:href="#mb1af7454db" y="88.684878"/>
      </g>
     </g>
     <g id="text_15">
      <!-- 3000 -->
      <defs>
       <path d="M 40.578125 39.3125 
Q 47.65625 37.796875 51.625 33 
Q 55.609375 28.21875 55.609375 21.1875 
Q 55.609375 10.40625 48.1875 4.484375 
Q 40.765625 -1.421875 27.09375 -1.421875 
Q 22.515625 -1.421875 17.65625 -0.515625 
Q 12.796875 0.390625 7.625 2.203125 
L 7.625 11.71875 
Q 11.71875 9.328125 16.59375 8.109375 
Q 21.484375 6.890625 26.8125 6.890625 
Q 36.078125 6.890625 40.9375 10.546875 
Q 45.796875 14.203125 45.796875 21.1875 
Q 45.796875 27.640625 41.28125 31.265625 
Q 36.765625 34.90625 28.71875 34.90625 
L 20.21875 34.90625 
L 20.21875 43.015625 
L 29.109375 43.015625 
Q 36.375 43.015625 40.234375 45.921875 
Q 44.09375 48.828125 44.09375 54.296875 
Q 44.09375 59.90625 40.109375 62.90625 
Q 36.140625 65.921875 28.71875 65.921875 
Q 24.65625 65.921875 20.015625 65.03125 
Q 15.375 64.15625 9.8125 62.3125 
L 9.8125 71.09375 
Q 15.4375 72.65625 20.34375 73.4375 
Q 25.25 74.21875 29.59375 74.21875 
Q 40.828125 74.21875 47.359375 69.109375 
Q 53.90625 64.015625 53.90625 55.328125 
Q 53.90625 49.265625 50.4375 45.09375 
Q 46.96875 40.921875 40.578125 39.3125 
z
" id="DejaVuSans-51"/>
      </defs>
      <g transform="translate(75.55 92.484097)scale(0.1 -0.1)">
       <use xlink:href="#DejaVuSans-51"/>
       <use x="63.623047" xlink:href="#DejaVuSans-48"/>
       <use x="127.246094" xlink:href="#DejaVuSans-48"/>
       <use x="190.869141" xlink:href="#DejaVuSans-48"/>
      </g>
     </g>
    </g>
    <g id="text_16">
     <!-- Value -->
     <defs>
      <path d="M 28.609375 0 
L 0.78125 72.90625 
L 11.078125 72.90625 
L 34.1875 11.53125 
L 57.328125 72.90625 
L 67.578125 72.90625 
L 39.796875 0 
z
" id="DejaVuSans-86"/>
      <path d="M 9.421875 75.984375 
L 18.40625 75.984375 
L 18.40625 0 
L 9.421875 0 
z
" id="DejaVuSans-108"/>
      <path d="M 8.5 21.578125 
L 8.5 54.6875 
L 17.484375 54.6875 
L 17.484375 21.921875 
Q 17.484375 14.15625 20.5 10.265625 
Q 23.53125 6.390625 29.59375 6.390625 
Q 36.859375 6.390625 41.078125 11.03125 
Q 45.3125 15.671875 45.3125 23.6875 
L 45.3125 54.6875 
L 54.296875 54.6875 
L 54.296875 0 
L 45.3125 0 
L 45.3125 8.40625 
Q 42.046875 3.421875 37.71875 1 
Q 33.40625 -1.421875 27.6875 -1.421875 
Q 18.265625 -1.421875 13.375 4.4375 
Q 8.5 10.296875 8.5 21.578125 
z
M 31.109375 56 
z
" id="DejaVuSans-117"/>
     </defs>
     <g transform="translate(61.090625 232.273281)rotate(-90)scale(0.1 -0.1)">
      <use xlink:href="#DejaVuSans-86"/>
      <use x="68.298828" xlink:href="#DejaVuSans-97"/>
      <use x="129.578125" xlink:href="#DejaVuSans-108"/>
      <use x="157.361328" xlink:href="#DejaVuSans-117"/>
      <use x="220.740234" xlink:href="#DejaVuSans-101"/>
     </g>
    </g>
   </g>
   <g id="line2d_15">
    <path clip-path="url(#pef3678018c)" d="M 138.436364 274.79698 
L 138.865045 255.725228 
L 139.293726 274.763275 
L 139.722407 221.932295 
L 140.57977 267.887237 
L 141.008451 238.468251 
L 141.437132 231.077104 
L 141.865813 232.308985 
L 142.294494 248.52285 
L 142.723175 208.54005 
L 143.580538 248.762826 
L 144.009219 279.877309 
L 144.4379 208.247964 
L 144.866581 230.578324 
L 145.295262 227.962104 
L 145.723944 205.969432 
L 146.152625 206.554515 
L 146.581306 209.346929 
L 147.009987 200.659691 
L 147.438668 201.623657 
L 147.86735 214.506848 
L 148.296031 255.675986 
L 148.724712 199.530756 
L 149.153393 211.853242 
L 149.582074 212.205934 
L 150.010755 237.911054 
L 151.296799 174.137243 
L 151.72548 203.050654 
L 152.154161 191.344481 
L 152.582843 199.094583 
L 153.011524 225.25708 
L 153.440205 203.857905 
L 153.868886 202.114184 
L 154.297567 193.870247 
L 154.726248 168.501065 
L 155.15493 174.347737 
L 155.583611 192.551597 
L 156.012292 193.330541 
L 156.440973 172.512721 
L 156.869654 174.46526 
L 157.298335 199.490724 
L 157.727017 199.015142 
L 158.155698 175.869299 
L 158.584379 166.694943 
L 159.01306 184.339368 
L 159.441741 162.993296 
L 159.870423 172.458717 
L 160.299104 192.960253 
L 160.727785 172.61959 
L 161.156466 202.822379 
L 161.585147 149.071092 
L 162.013828 137.351666 
L 162.44251 185.995634 
L 162.871191 199.893174 
L 163.299872 166.127705 
L 163.728553 180.719384 
L 164.157234 127.844184 
L 164.585915 178.714746 
L 165.014597 163.610085 
L 165.871959 193.793891 
L 166.30064 174.628554 
L 166.729321 216.468277 
L 167.158003 148.702094 
L 167.586684 176.457997 
L 168.015365 134.866195 
L 168.444046 170.748415 
L 168.872727 196.026936 
L 169.301408 169.153479 
L 169.73009 202.025948 
L 170.158771 209.42711 
L 170.587452 178.038333 
L 171.016133 194.193294 
L 171.444814 185.83658 
L 171.873496 185.262344 
L 172.302177 200.09285 
L 172.730858 200.709032 
L 173.159539 192.777844 
L 173.58822 166.567353 
L 174.016901 224.039979 
L 174.445583 181.168611 
L 174.874264 187.889875 
L 175.302945 174.008275 
L 175.731626 203.862201 
L 176.160307 191.231228 
L 176.588988 194.82985 
L 177.01767 213.189979 
L 177.446351 178.260531 
L 177.875032 180.820634 
L 178.303713 192.014986 
L 178.732394 175.18892 
L 179.161076 198.288539 
L 179.589757 238.226552 
L 180.018438 225.317884 
L 180.447119 240.6595 
L 180.8758 226.813134 
L 181.304481 231.705016 
L 181.733163 219.761597 
L 182.161844 241.496981 
L 182.590525 221.135483 
L 183.019206 239.992105 
L 183.447887 191.491072 
L 183.876569 215.345747 
L 184.30525 213.303524 
L 184.733931 226.265431 
L 185.162612 201.246745 
L 185.591293 251.56629 
L 186.019974 249.986433 
L 186.448656 212.591045 
L 186.877337 258.049629 
L 187.306018 250.890045 
L 187.734699 256.834579 
L 188.16338 257.404603 
L 188.592061 258.643412 
L 189.020743 244.626871 
L 189.449424 260.708442 
L 189.878105 269.646094 
L 190.306786 233.218324 
L 190.735467 267.751018 
L 191.164149 269.10126 
L 191.59283 269.520743 
L 192.021511 254.652055 
L 192.450192 273.084551 
L 192.878873 274.378789 
L 193.307554 289.824476 
L 194.164917 278.385963 
L 194.593598 293.888687 
L 195.022279 272.512623 
L 195.45096 317.157689 
L 195.879641 281.062816 
L 196.308323 321.353611 
L 196.737004 297.491002 
L 197.165685 304.074333 
L 197.594366 308.474772 
L 198.023047 297.868782 
L 198.451729 338.325409 
L 198.88041 275.668933 
L 199.309091 336.562373 
L 199.737772 313.201111 
L 200.166453 328.423049 
L 200.595134 322.413382 
L 201.023816 264.853086 
L 201.452497 309.489984 
L 201.881178 338.129216 
L 202.309859 346.950967 
L 202.73854 304.79655 
L 203.167222 315.918458 
L 203.595903 323.471478 
L 204.453265 350.325141 
L 204.881946 342.914967 
L 205.310627 300.816103 
L 205.739309 335.67288 
L 206.16799 352.604801 
L 206.596671 285.810128 
L 207.025352 316.829163 
L 207.454033 331.539594 
L 207.882714 305.350671 
L 208.311396 309.714834 
L 208.740077 341.80707 
L 209.168758 283.625032 
L 209.597439 335.513749 
L 210.02612 360.441059 
L 210.454802 334.28585 
L 210.883483 327.410302 
L 211.312164 284.055542 
L 211.740845 330.274414 
L 212.169526 323.246913 
L 212.598207 334.606109 
L 213.026889 340.13215 
L 213.45557 334.016693 
L 213.884251 316.947719 
L 214.312932 290.130265 
L 214.741613 311.906698 
L 215.170294 308.037583 
L 215.598976 358.684545 
L 216.027657 312.316047 
L 216.456338 327.9515 
L 216.885019 362.76204 
L 217.3137 320.95159 
L 217.742382 334.664222 
L 218.171063 300.343883 
L 218.599744 346.252433 
L 219.028425 338.641279 
L 219.457106 348.302263 
L 220.314469 319.134715 
L 220.74315 341.921796 
L 221.171831 308.49717 
L 221.600512 350.025365 
L 222.029193 345.703071 
L 222.457875 292.812671 
L 222.886556 342.907155 
L 223.315237 312.025834 
L 223.743918 327.359658 
L 224.172599 309.658479 
L 224.60128 281.723809 
L 225.029962 282.526823 
L 225.887324 360.391826 
L 226.316005 259.296632 
L 226.744686 295.92721 
L 227.173367 297.001866 
L 227.602049 306.972585 
L 228.03073 294.442913 
L 228.459411 306.830914 
L 228.888092 292.943622 
L 229.745455 326.745262 
L 230.174136 275.820425 
L 230.602817 262.904365 
L 231.031498 299.127567 
L 231.460179 316.907454 
L 231.88886 275.496146 
L 232.317542 287.854424 
L 232.746223 321.050821 
L 233.174904 282.899108 
L 233.603585 294.048574 
L 234.032266 285.974807 
L 234.460948 300.898168 
L 234.889629 237.157643 
L 235.31831 279.514584 
L 235.746991 303.942864 
L 236.175672 264.256687 
L 236.604353 260.735902 
L 237.033035 284.596554 
L 237.461716 322.072815 
L 237.890397 273.058369 
L 238.319078 245.648398 
L 238.747759 256.588057 
L 239.17644 255.196188 
L 239.605122 239.272849 
L 240.033803 273.474618 
L 240.462484 223.715689 
L 240.891165 244.480438 
L 241.319846 227.444422 
L 241.748528 218.451387 
L 242.177209 233.159011 
L 242.60589 253.948283 
L 243.034571 209.256127 
L 243.463252 272.998204 
L 243.891933 240.542955 
L 244.320615 232.396358 
L 244.749296 228.422513 
L 245.177977 201.612779 
L 245.606658 217.959548 
L 246.035339 210.261895 
L 246.46402 218.162434 
L 246.892702 219.86083 
L 247.321383 198.226489 
L 247.750064 186.877673 
L 248.178745 258.881066 
L 248.607426 194.984302 
L 249.036108 197.232508 
L 249.464789 212.051278 
L 249.89347 181.567094 
L 250.322151 207.705056 
L 250.750832 203.772687 
L 251.608195 158.641012 
L 252.036876 187.200488 
L 252.894238 214.440533 
L 253.322919 195.048361 
L 253.751601 206.255346 
L 254.608963 175.642012 
L 255.037644 200.259911 
L 255.466325 126.031728 
L 255.895006 176.717381 
L 256.323688 155.220958 
L 256.752369 225.296224 
L 257.18105 161.069618 
L 257.609731 202.869964 
L 258.038412 155.285708 
L 258.467093 165.199968 
L 258.895775 181.082014 
L 259.324456 144.158131 
L 259.753137 185.556676 
L 260.181818 182.302495 
L 260.610499 190.37381 
L 261.039181 182.806372 
L 261.467862 148.61998 
L 261.896543 158.752457 
L 262.325224 146.381509 
L 262.753905 175.036373 
L 263.182586 158.7149 
L 263.611268 161.170943 
L 264.039949 195.726814 
L 264.46863 128.7842 
L 264.897311 162.902923 
L 265.325992 149.684403 
L 265.754673 145.722243 
L 266.183355 166.715497 
L 266.612036 172.132628 
L 267.040717 147.302272 
L 267.469398 187.948653 
L 267.898079 125.335954 
L 268.326761 174.719057 
L 268.755442 132.651076 
L 269.184123 136.045074 
L 269.612804 166.31087 
L 270.041485 156.770646 
L 270.470166 190.53134 
L 270.898848 163.115834 
L 271.327529 148.814038 
L 271.75621 169.252367 
L 272.184891 181.591373 
L 272.613572 186.658453 
L 273.042254 174.663588 
L 273.470935 152.611268 
L 273.899616 185.983077 
L 274.328297 179.488818 
L 274.756978 205.041718 
L 275.185659 168.948113 
L 275.614341 153.20878 
L 276.043022 150.523202 
L 276.471703 166.036407 
L 276.900384 223.300975 
L 277.329065 175.695003 
L 277.757746 177.661812 
L 278.186428 195.993671 
L 278.615109 186.588061 
L 279.04379 209.68493 
L 279.472471 179.120229 
L 280.329834 229.230643 
L 280.758515 205.887882 
L 281.187196 171.531838 
L 281.615877 208.671376 
L 282.044558 188.226688 
L 282.473239 185.58408 
L 282.901921 207.050539 
L 283.330602 216.347119 
L 283.759283 221.932469 
L 284.187964 197.405399 
L 284.616645 236.90132 
L 285.045327 211.575764 
L 285.474008 224.711256 
L 285.902689 267.855104 
L 286.33137 252.032764 
L 286.760051 205.627585 
L 287.188732 230.732688 
L 288.046095 191.541003 
L 288.474776 202.226826 
L 288.903457 220.89901 
L 289.332138 229.175975 
L 289.760819 243.195586 
L 290.189501 208.400885 
L 290.618182 230.94291 
L 291.046863 269.90326 
L 291.475544 250.789505 
L 291.904225 289.609006 
L 292.332907 255.786646 
L 292.761588 307.798544 
L 293.190269 228.494394 
L 293.61895 271.167188 
L 294.047631 268.935554 
L 294.476312 265.544184 
L 294.904994 251.288771 
L 295.333675 251.921493 
L 295.762356 256.214774 
L 296.191037 281.948761 
L 296.619718 300.377794 
L 297.048399 282.01214 
L 297.477081 270.039068 
L 297.905762 294.864744 
L 298.334443 281.018464 
L 298.763124 305.747836 
L 299.191805 283.408787 
L 299.620487 282.334515 
L 300.049168 289.810469 
L 300.477849 291.907701 
L 300.90653 253.444865 
L 301.335211 275.951372 
L 301.763892 270.304391 
L 302.192574 314.272395 
L 303.049936 274.038123 
L 303.478617 300.740255 
L 303.907298 345.347766 
L 304.33598 295.192281 
L 304.764661 343.401648 
L 305.193342 321.915742 
L 305.622023 278.691565 
L 306.050704 294.656683 
L 306.479385 285.902617 
L 306.908067 303.37157 
L 307.336748 313.120133 
L 307.765429 331.097917 
L 308.19411 279.628713 
L 308.622791 312.79134 
L 309.051472 329.492624 
L 309.480154 297.38648 
L 309.908835 293.790563 
L 310.337516 277.392966 
L 310.766197 330.099273 
L 311.194878 326.282258 
L 311.62356 327.357903 
L 312.052241 327.005491 
L 312.480922 327.254803 
L 312.909603 326.158484 
L 313.338284 290.289831 
L 313.766965 335.125287 
L 314.195647 328.893918 
L 314.624328 307.371277 
L 315.053009 297.633874 
L 315.48169 337.191658 
L 315.910371 331.677833 
L 316.339052 310.115188 
L 316.767734 299.694013 
L 317.625096 350.258089 
L 318.053777 284.568014 
L 318.482458 289.922437 
L 318.91114 334.204231 
L 319.339821 320.294958 
L 319.768502 355.06926 
L 320.197183 305.971179 
L 320.625864 283.619077 
L 321.054545 350.625908 
L 321.483227 332.017023 
L 321.911908 328.338915 
L 322.340589 328.322862 
L 322.76927 355.589165 
L 323.197951 301.844329 
L 323.626633 343.185301 
L 324.055314 310.741621 
L 324.483995 296.763286 
L 324.912676 312.09053 
L 325.341357 288.177495 
L 325.770038 306.044725 
L 326.19872 317.703696 
L 326.627401 289.404546 
L 327.056082 310.518512 
L 327.484763 263.123239 
L 327.913444 298.954472 
L 328.342125 279.291609 
L 328.770807 291.224871 
L 329.199488 356.562291 
L 329.628169 320.721357 
L 330.05685 299.423084 
L 330.485531 283.94395 
L 330.914213 335.932039 
L 331.342894 265.315106 
L 331.771575 296.125244 
L 332.200256 297.371523 
L 332.628937 312.216865 
L 333.057618 308.191952 
L 333.4863 274.797918 
L 333.914981 263.39994 
L 334.343662 315.726748 
L 334.772343 290.937405 
L 335.201024 256.821958 
L 335.629706 275.366734 
L 336.058387 218.748508 
L 336.487068 235.813975 
L 337.34443 257.430623 
L 337.773111 249.57511 
L 338.201793 267.949297 
L 338.630474 238.000529 
L 339.059155 218.077262 
L 339.487836 224.163958 
L 339.916517 261.488904 
L 340.345198 276.080913 
L 340.77388 242.447792 
L 341.202561 228.783204 
L 341.631242 207.62799 
L 342.059923 261.044054 
L 342.488604 223.792009 
L 342.917286 224.329598 
L 343.345967 202.138594 
L 343.774648 225.415385 
L 344.203329 230.109192 
L 344.63201 244.398093 
L 345.060691 229.140668 
L 345.489373 223.772324 
L 345.918054 165.14464 
L 346.346735 161.042368 
L 346.775416 213.394077 
L 347.632778 246.907001 
L 348.06146 193.061744 
L 348.490141 224.499255 
L 348.918822 152.210898 
L 349.347503 216.300301 
L 349.776184 193.612387 
L 350.204866 114.657176 
L 350.633547 215.263957 
L 351.062228 183.921083 
L 351.490909 211.582789 
L 351.91959 179.512533 
L 352.348271 203.210618 
L 352.776953 181.709514 
L 353.205634 187.841591 
L 353.634315 204.681701 
L 354.491677 156.247041 
L 354.920359 142.195659 
L 355.34904 202.534849 
L 356.206402 146.996512 
L 356.635083 193.032 
L 357.063764 221.211865 
L 357.492446 186.801411 
L 357.921127 186.267681 
L 358.349808 163.991683 
L 358.778489 172.302999 
L 359.20717 158.032093 
L 359.635851 170.665855 
L 360.064533 153.138188 
L 360.493214 167.67252 
L 360.921895 134.425947 
L 361.350576 173.799571 
L 361.779257 151.661474 
L 362.207939 175.47985 
L 362.63662 152.099635 
L 363.065301 156.867607 
L 363.493982 190.460334 
L 364.351344 129.943908 
L 365.208707 150.930584 
L 365.637388 178.529809 
L 366.066069 129.169947 
L 366.49475 151.767998 
L 366.923431 162.777166 
L 367.352113 119.165523 
L 367.780794 169.464954 
L 368.638156 127.027314 
L 369.066837 141.414619 
L 369.495519 160.643858 
L 369.9242 163.308887 
L 370.352881 147.595006 
L 370.781562 144.752254 
L 371.210243 155.5721 
L 371.638924 129.060284 
L 372.067606 158.516757 
L 372.496287 172.407339 
L 372.924968 147.353093 
L 373.353649 205.192418 
L 373.78233 151.992983 
L 374.211012 150.689607 
L 375.068374 186.232946 
L 375.497055 172.223831 
L 375.925736 132.793388 
L 376.354417 181.697794 
L 376.783099 215.960086 
L 377.21178 151.691252 
L 377.640461 180.323904 
L 378.069142 181.837226 
L 378.497823 197.869727 
L 378.926504 174.421626 
L 379.355186 160.785002 
L 379.783867 189.112287 
L 380.212548 191.033913 
L 380.641229 157.109267 
L 381.06991 186.705662 
L 381.498592 186.512426 
L 381.927273 197.883715 
L 382.355954 167.790493 
L 382.784635 208.990357 
L 383.213316 172.35198 
L 383.641997 175.051954 
L 384.070679 203.397825 
L 384.49936 177.831562 
L 384.928041 176.823566 
L 385.356722 187.286776 
L 385.785403 159.018883 
L 386.214085 244.02069 
L 386.642766 229.372297 
L 387.071447 235.762194 
L 387.928809 178.092022 
L 388.35749 178.179019 
L 388.786172 205.002585 
L 389.214853 198.924724 
L 389.643534 222.310896 
L 390.072215 211.596403 
L 390.500896 215.608046 
L 390.929577 241.384425 
L 391.358259 233.730022 
L 391.78694 232.52111 
L 392.215621 202.76935 
L 392.644302 255.499396 
L 393.072983 280.0324 
L 393.501665 222.070438 
L 393.930346 257.15832 
L 394.359027 251.31657 
L 394.787708 225.452861 
L 395.216389 262.252991 
L 395.64507 255.50846 
L 396.073752 219.140203 
L 396.502433 241.45266 
L 396.931114 243.168275 
L 397.359795 259.297923 
L 397.788476 282.100212 
L 398.217157 291.547195 
L 398.645839 266.952574 
L 399.07452 222.50678 
L 399.503201 261.469258 
L 399.931882 264.520548 
L 400.360563 262.84603 
L 400.789245 279.601873 
L 401.217926 302.488592 
L 401.646607 219.353831 
L 402.075288 285.629966 
L 402.503969 284.70201 
L 402.93265 317.462136 
L 403.361332 286.899512 
L 404.218694 290.160681 
L 404.647375 323.557088 
L 405.076056 250.610357 
L 405.504738 252.463011 
L 405.933419 276.207141 
L 406.3621 314.830842 
L 406.790781 278.301034 
L 407.219462 299.558925 
L 407.648143 302.279636 
L 408.076825 268.378931 
L 408.505506 323.4422 
L 408.934187 309.563673 
L 409.362868 315.14741 
L 409.791549 300.455515 
L 410.22023 334.532603 
L 410.648912 317.268427 
L 411.077593 288.500535 
L 411.506274 294.468111 
L 411.934955 325.138562 
L 412.363636 293.839535 
L 412.792318 356.747898 
L 413.220999 313.694653 
L 413.64968 292.22264 
L 414.078361 321.223615 
L 414.507042 308.616408 
L 414.935723 341.355582 
L 415.364405 290.755404 
L 415.793086 347.156668 
L 416.221767 315.490363 
L 416.650448 314.146432 
L 417.079129 307.584306 
L 417.50781 325.975043 
L 417.936492 270.615013 
L 418.365173 338.37131 
L 418.793854 303.086652 
L 419.222535 369.36 
L 419.651216 307.7533 
L 420.079898 296.813361 
L 420.508579 329.597216 
L 420.93726 291.833041 
L 421.365941 299.080075 
L 421.794622 285.040343 
L 422.223303 322.295478 
L 422.651985 324.240558 
L 423.080666 340.165986 
L 423.509347 309.167048 
L 423.938028 329.472665 
L 424.366709 286.330017 
L 424.795391 298.210276 
L 425.224072 253.058346 
L 425.652753 321.71889 
L 426.081434 271.864642 
L 426.510115 306.296281 
L 426.938796 324.435493 
L 427.367478 280.890302 
L 427.796159 321.372829 
L 428.653521 304.024568 
L 429.082202 282.912876 
L 429.510883 306.62604 
L 429.939565 261.833053 
L 430.368246 307.690784 
L 430.796927 276.59033 
L 431.225608 276.472635 
L 431.654289 299.967134 
L 432.082971 284.971399 
L 432.511652 287.953125 
L 432.940333 252.506034 
L 433.369014 238.251714 
L 433.797695 290.491174 
L 434.226376 247.538212 
L 434.655058 266.579511 
L 435.083739 304.044295 
L 435.941101 249.49537 
L 436.369782 254.061516 
L 436.798464 305.921475 
L 437.227145 240.895695 
L 437.655826 237.259419 
L 438.084507 255.151085 
L 438.513188 261.433665 
L 438.941869 203.494824 
L 439.370551 244.298073 
L 439.799232 240.561153 
L 440.227913 261.507673 
L 440.656594 263.930927 
L 441.085275 265.479069 
L 441.513956 240.352564 
L 441.942638 201.020669 
L 442.371319 190.641838 
L 442.8 192.308296 
L 443.228681 195.769982 
L 443.657362 225.537856 
L 444.086044 243.897363 
L 444.514725 223.038169 
L 444.943406 264.282844 
L 445.800768 175.112282 
L 446.229449 204.807795 
L 446.658131 182.564732 
L 447.086812 193.071316 
L 447.515493 217.377039 
L 447.944174 162.733194 
L 448.372855 198.607384 
L 448.801536 215.236388 
L 449.230218 191.402775 
L 449.658899 222.491788 
L 450.08758 170.869556 
L 450.516261 176.445747 
L 450.944942 192.341723 
L 451.373624 193.210332 
L 451.802305 161.644762 
L 452.230986 201.423998 
L 452.659667 197.96181 
L 453.088348 166.837336 
L 453.517029 183.317908 
L 453.945711 152.922124 
L 454.374392 174.643215 
L 454.803073 143.965426 
L 455.231754 156.921634 
L 455.660435 212.442472 
L 456.089117 191.959498 
L 456.517798 135.930657 
L 456.946479 146.815937 
L 457.37516 179.948699 
L 457.803841 186.48016 
L 458.232522 135.600321 
L 458.661204 172.777515 
L 459.089885 117.116102 
L 459.518566 116.574496 
L 459.947247 182.659998 
L 460.375928 168.901237 
L 460.804609 176.313075 
L 461.233291 135.393213 
L 461.661972 175.263929 
L 462.090653 189.901399 
L 462.519334 104.589014 
L 462.948015 124.981149 
L 463.376697 128.209648 
L 463.805378 158.412205 
L 464.66274 130.534584 
L 465.091421 169.647982 
L 465.520102 145.11714 
L 465.948784 138.494438 
L 466.377465 106.575738 
L 466.806146 128.201812 
L 467.234827 114.66414 
L 468.09219 164.313401 
L 468.520871 148.181567 
L 468.949552 175.809094 
L 469.378233 121.861465 
L 469.806914 111.834034 
L 470.235595 142.849464 
L 470.664277 162.227333 
L 471.092958 119.45407 
L 471.521639 139.561676 
L 471.95032 150.929479 
L 472.379001 119.951285 
L 472.807682 159.714994 
L 473.236364 120.535784 
L 473.665045 162.658121 
L 474.093726 137.646143 
L 474.522407 127.975993 
L 474.951088 175.157269 
L 475.37977 139.89787 
L 475.808451 151.416535 
L 476.237132 135.966717 
L 476.665813 167.472321 
L 477.094494 153.907344 
L 477.523175 124.399421 
L 477.951857 150.831074 
L 478.380538 138.386191 
L 479.2379 179.501765 
L 479.666581 159.614134 
L 480.523944 216.252244 
L 480.952625 139.271868 
L 481.381306 187.762772 
L 481.809987 204.694345 
L 482.238668 147.492751 
L 482.66735 170.080924 
L 483.096031 183.968366 
L 483.524712 176.861908 
L 483.953393 183.739572 
L 484.382074 155.846613 
L 484.810755 163.223368 
L 485.239437 216.152069 
L 485.668118 174.652563 
L 486.096799 168.730816 
L 486.52548 171.832844 
L 486.954161 238.161745 
L 487.811524 150.300032 
L 488.240205 176.909844 
L 488.668886 231.102721 
L 489.097567 232.157485 
L 489.526248 189.29073 
L 489.95493 205.181258 
L 490.383611 183.577144 
L 490.812292 199.539071 
L 491.240973 206.039817 
L 491.669654 205.976509 
L 492.098335 208.420946 
L 492.527017 240.418635 
L 492.955698 167.118322 
L 493.384379 247.567945 
L 493.81306 220.600156 
L 494.241741 233.677647 
L 494.670423 186.929272 
L 495.099104 205.443756 
L 495.527785 240.336267 
L 495.956466 226.386854 
L 496.813828 188.198826 
L 497.24251 230.530639 
L 497.671191 260.573822 
L 498.099872 261.36079 
L 498.528553 201.089718 
L 498.957234 287.98649 
L 499.385915 183.161506 
L 499.814597 254.204156 
L 500.243278 260.146902 
L 500.671959 249.297454 
L 501.10064 235.009896 
L 501.529321 249.993622 
L 501.958003 298.872472 
L 502.386684 252.551306 
L 502.815365 252.296111 
L 503.244046 249.671856 
L 504.101408 316.169239 
L 504.53009 275.170685 
L 504.958771 289.676255 
L 505.387452 287.518622 
L 505.816133 292.953322 
L 506.244814 282.857202 
L 506.673496 282.490388 
L 507.102177 260.82328 
L 507.530858 258.215586 
L 507.959539 296.629289 
L 508.38822 287.780663 
L 508.816901 275.042313 
L 509.245583 254.610893 
L 510.102945 321.353342 
L 510.531626 282.167887 
L 510.960307 290.463282 
L 511.388988 251.993536 
L 511.81767 282.646708 
L 512.246351 303.611747 
L 512.675032 300.568523 
L 513.103713 302.665833 
L 513.532394 288.93825 
L 513.961076 289.758578 
L 514.389757 274.920902 
L 515.6758 314.96058 
L 516.104481 282.489105 
L 516.533163 297.300974 
L 516.961844 292.422562 
L 517.390525 273.416503 
L 517.819206 260.028398 
L 518.247887 316.45708 
L 518.676569 262.344441 
L 519.10525 314.596384 
L 519.533931 290.883923 
L 519.962612 291.634512 
L 520.391293 301.812762 
L 520.819974 266.721041 
L 521.248656 209.372904 
L 521.677337 281.277856 
L 522.106018 294.865701 
L 522.534699 313.489707 
L 522.96338 268.222652 
L 523.392061 336.414813 
L 523.820743 303.203026 
L 524.249424 323.628534 
L 524.678105 286.693622 
L 525.106786 284.402604 
L 525.535467 312.332214 
L 525.964149 274.531501 
L 526.39283 308.621268 
L 526.821511 272.334323 
L 527.250192 280.023753 
L 527.678873 268.940072 
L 528.107554 302.203638 
L 528.536236 279.432951 
L 528.964917 289.778966 
L 529.393598 309.408924 
L 530.25096 239.069702 
L 530.679641 288.059013 
L 531.108323 277.218017 
L 531.537004 257.152984 
L 531.965685 269.172915 
L 532.394366 227.815049 
L 532.823047 251.281978 
L 533.251729 216.583098 
L 533.68041 255.936101 
L 534.109091 285.055411 
L 534.537772 250.853888 
L 534.966453 277.054963 
L 535.395134 276.906997 
L 535.823816 257.979129 
L 536.252497 232.652566 
L 536.681178 242.991372 
L 537.109859 231.220737 
L 537.53854 227.10812 
L 537.967222 247.730885 
L 538.395903 292.146179 
L 538.824584 223.457747 
L 539.253265 192.766321 
L 539.681946 234.632858 
L 540.110627 261.954962 
L 540.539309 239.253512 
L 540.96799 248.91793 
L 541.825352 211.040675 
L 542.254033 204.899608 
L 542.682714 215.866262 
L 543.111396 238.03225 
L 543.540077 199.442243 
L 543.968758 186.100601 
L 544.397439 165.081633 
L 544.82612 220.078956 
L 545.683483 180.544855 
L 546.112164 205.650382 
L 546.540845 190.113309 
L 547.398207 199.515478 
L 547.826889 191.054145 
L 548.25557 172.329914 
L 548.684251 181.787375 
L 549.112932 197.910957 
L 549.541613 232.760653 
L 549.970294 200.591926 
L 550.398976 182.391874 
L 550.827657 232.322803 
L 551.256338 131.876872 
L 551.685019 206.961172 
L 552.1137 198.167684 
L 552.542382 141.686967 
L 552.971063 215.765826 
L 553.399744 152.875259 
L 553.828425 173.590963 
L 554.257106 155.113885 
L 554.685787 144.536878 
L 555.114469 181.048237 
L 555.54315 174.074282 
L 555.971831 220.126249 
L 556.400512 176.078576 
L 556.829193 146.54046 
L 557.257875 142.380824 
L 557.686556 109.158528 
L 558.115237 148.563553 
L 558.543918 138.819178 
L 558.972599 145.532162 
L 559.40128 155.888444 
L 559.829962 128.849112 
L 560.687324 139.301153 
L 561.116005 157.8302 
L 561.973367 122.405182 
L 562.402049 123.587466 
L 562.83073 146.780311 
L 563.259411 149.763611 
L 563.688092 124.294331 
L 564.116773 112.331228 
L 564.545455 130.918109 
L 564.974136 139.278838 
L 565.402817 150.465298 
L 565.831498 140.276238 
L 566.260179 161.907263 
L 566.68886 145.07889 
L 567.117542 106.499191 
L 567.546223 106.624557 
L 567.974904 147.62916 
L 568.403585 124.858492 
L 568.832266 127.618157 
L 569.260948 163.571351 
L 569.689629 111.974392 
L 570.11831 168.688291 
L 570.546991 154.866164 
L 570.975672 108.201553 
L 571.404353 140.418281 
L 571.833035 133.871812 
L 572.261716 163.421257 
L 572.690397 160.185477 
L 573.119078 123.031697 
L 574.405122 159.608697 
L 574.833803 155.279245 
L 575.262484 90.662073 
L 575.691165 140.58758 
L 576.119846 118.425131 
L 576.548528 119.010726 
L 576.977209 120.330561 
L 577.40589 131.006421 
L 577.834571 164.204108 
L 578.263252 160.162991 
L 578.691933 124.547914 
L 579.120615 168.570227 
L 579.549296 131.488364 
L 579.977977 154.800966 
L 580.406658 153.239782 
L 580.835339 162.688037 
L 581.26402 152.377268 
L 581.692702 130.695793 
L 582.121383 140.944279 
L 582.550064 156.706825 
L 582.978745 135.248596 
L 583.407426 120.421439 
L 583.836108 156.634641 
L 584.264789 148.320955 
L 584.69347 153.981233 
L 585.122151 181.836867 
L 585.550832 182.489398 
L 585.979513 124.94878 
L 586.408195 148.365071 
L 586.836876 153.076601 
L 587.265557 167.300434 
L 587.694238 162.128864 
L 588.122919 170.96723 
L 588.551601 175.169595 
L 588.980282 173.326257 
L 589.408963 200.986483 
L 589.837644 131.892228 
L 590.266325 167.200774 
L 590.695006 191.149891 
L 591.123688 162.675793 
L 591.552369 203.047159 
L 591.98105 156.385258 
L 592.838412 244.522097 
L 593.267093 169.823381 
L 593.695775 176.737646 
L 594.124456 218.541829 
L 594.553137 233.883037 
L 594.981818 244.81146 
L 595.410499 214.292375 
L 595.839181 248.982946 
L 596.696543 211.544122 
L 597.125224 199.207546 
L 597.553905 236.180264 
L 597.982586 223.735187 
L 598.411268 217.899997 
L 598.839949 189.441858 
L 599.26863 247.242332 
L 599.697311 262.704681 
L 600.125992 269.725018 
L 600.554673 221.677555 
L 600.983355 236.463339 
L 601.412036 221.063314 
L 601.840717 241.994705 
L 602.269398 232.762557 
L 603.126761 244.165824 
L 603.555442 259.445294 
L 603.984123 221.961772 
L 604.412804 258.456934 
L 604.841485 237.836019 
L 605.270166 249.984853 
L 605.698848 217.957906 
L 606.55621 265.307713 
L 606.984891 260.009997 
L 607.413572 263.937515 
L 607.842254 306.350474 
L 608.270935 228.863598 
L 608.699616 243.446201 
L 609.128297 282.920898 
L 609.556978 260.292622 
L 609.985659 264.465801 
L 610.414341 294.310618 
L 610.843022 240.839181 
L 611.271703 278.162326 
L 611.700384 270.233493 
L 612.129065 266.641602 
L 612.557746 296.752719 
L 612.986428 299.572389 
L 613.415109 278.83914 
L 613.84379 266.642036 
L 614.272471 277.867084 
L 614.701152 265.408676 
L 615.129834 273.792328 
L 615.558515 270.01118 
L 615.987196 311.144314 
L 616.415877 268.30848 
L 616.844558 299.30243 
L 617.701921 285.74158 
L 618.130602 318.154039 
L 618.559283 286.113766 
L 619.416645 299.264449 
L 619.845327 295.892979 
L 620.274008 258.380854 
L 620.702689 310.480424 
L 621.13137 288.614419 
L 621.560051 335.437486 
L 621.988732 297.745648 
L 622.417414 293.846505 
L 622.846095 250.920564 
L 623.274776 302.678806 
L 623.703457 300.340639 
L 624.132138 310.764073 
L 624.560819 277.326128 
L 624.989501 256.39758 
L 625.418182 304.718622 
L 625.846863 287.878382 
L 626.275544 249.752637 
L 626.704225 291.621236 
L 627.132907 262.185267 
L 627.561588 267.398617 
L 627.990269 301.701451 
L 628.41895 248.103847 
L 628.847631 255.783825 
L 629.276312 281.3642 
L 629.704994 288.823119 
L 630.133675 276.874422 
L 630.562356 250.486388 
L 631.419718 303.755887 
L 631.848399 266.258506 
L 632.277081 245.72669 
L 632.705762 284.435376 
L 633.134443 263.687229 
L 633.563124 282.592877 
L 633.991805 253.062542 
L 634.420487 256.58102 
L 634.849168 252.81102 
L 635.277849 263.326218 
L 635.70653 263.358021 
L 636.135211 228.613229 
L 636.563892 242.730299 
L 636.992574 246.937866 
L 637.421255 308.072918 
L 638.278617 221.350837 
L 638.707298 243.731888 
L 639.13598 258.418508 
L 639.564661 240.366944 
L 639.993342 236.985633 
L 640.422023 237.53429 
L 641.279385 191.206568 
L 641.708067 200.181475 
L 642.136748 192.668547 
L 642.565429 223.348311 
L 642.99411 196.726549 
L 643.422791 232.581753 
L 643.851472 212.865898 
L 644.280154 162.254629 
L 644.708835 205.857116 
L 645.566197 213.369935 
L 646.42356 152.933179 
L 646.852241 186.029265 
L 647.280922 197.868653 
L 647.709603 147.042974 
L 648.138284 204.290514 
L 648.566965 162.327197 
L 648.995647 192.517992 
L 649.424328 202.878917 
L 649.853009 154.08222 
L 650.28169 214.833864 
L 650.710371 181.660694 
L 651.139052 172.830635 
L 651.567734 180.301135 
L 651.996415 203.162426 
L 652.425096 180.376761 
L 652.853777 197.448729 
L 653.282458 122.973775 
L 653.71114 199.764413 
L 654.139821 203.03267 
L 654.568502 142.729948 
L 654.997183 136.492927 
L 655.425864 157.643248 
L 655.854545 156.065425 
L 656.711908 119.114481 
L 657.140589 179.685731 
L 657.56927 117.71535 
L 657.997951 139.182355 
L 658.426633 148.749535 
L 658.855314 113.781181 
L 659.283995 119.055841 
L 659.712676 110.550278 
L 660.141357 141.819651 
L 660.570038 118.212604 
L 660.99872 126.893255 
L 661.427401 142.546102 
L 661.856082 93.932094 
L 662.284763 125.982174 
L 662.713444 129.352509 
L 663.142125 116.105815 
L 663.570807 117.96819 
L 663.999488 139.80187 
L 664.428169 125.271794 
L 664.85685 68.984692 
L 665.285531 123.962043 
L 665.714213 127.844194 
L 666.142894 105.651767 
L 666.571575 111.916232 
L 667.000256 130.878675 
L 667.428937 141.660357 
L 667.857618 100.940984 
L 668.2863 115.678085 
L 668.714981 107.715936 
L 669.143662 123.494865 
L 669.572343 151.562794 
L 670.001024 115.485294 
L 670.429706 66.96 
L 670.858387 147.101027 
L 671.287068 137.113393 
L 671.715749 144.435511 
L 672.14443 124.271899 
L 672.573111 88.006952 
L 673.001793 120.153909 
L 673.430474 122.516085 
L 673.859155 144.324466 
L 674.287836 116.465491 
L 674.716517 96.658111 
L 675.145198 71.597777 
L 675.57388 91.805198 
L 676.002561 137.881611 
L 676.431242 130.858702 
L 676.859923 108.397485 
L 677.288604 121.987938 
L 677.717286 116.823157 
L 678.145967 150.727759 
L 678.574648 133.15962 
L 679.003329 144.50725 
L 679.43201 145.536876 
L 679.860691 142.203663 
L 680.289373 136.95158 
L 680.718054 129.55985 
L 681.146735 117.424102 
L 681.575416 142.450809 
L 682.004097 150.966006 
L 682.432778 100.760168 
L 682.86146 115.080823 
L 683.290141 122.667857 
L 683.718822 103.212468 
L 684.147503 160.474363 
L 684.576184 98.947649 
L 685.433547 138.386401 
L 685.862228 133.408154 
L 686.290909 146.802483 
L 686.71959 152.088869 
L 687.148271 184.347476 
L 687.576953 137.806288 
L 688.005634 110.44071 
L 688.434315 113.356612 
L 688.862996 155.200702 
L 689.291677 162.859012 
L 689.720359 158.718967 
L 690.14904 140.560296 
L 690.577721 135.600403 
L 691.006402 159.839763 
L 691.435083 147.107849 
L 691.863764 172.883211 
L 692.292446 163.966218 
L 692.721127 151.665667 
L 693.149808 102.589549 
L 693.578489 181.586074 
L 694.00717 196.443806 
L 694.435851 175.311359 
L 694.864533 195.131874 
L 695.293214 175.529498 
L 695.721895 183.744028 
L 696.150576 165.52702 
L 696.579257 215.030979 
L 697.007939 222.243709 
L 697.43662 166.565581 
L 698.293982 222.604077 
L 698.722663 227.832446 
L 699.151344 219.037927 
L 699.580026 197.289143 
L 700.008707 222.619861 
L 700.437388 185.717694 
L 700.866069 210.610841 
L 701.29475 213.614825 
L 702.152113 227.851842 
L 702.580794 227.095792 
L 703.009475 201.440516 
L 703.438156 255.326088 
L 703.866837 206.68118 
L 704.295519 238.482321 
L 704.7242 217.70216 
L 705.152881 236.026734 
L 705.581562 264.618177 
L 706.010243 231.099118 
L 706.438924 253.335273 
L 706.867606 218.291501 
L 707.296287 260.600424 
L 707.724968 282.207512 
L 708.153649 264.327126 
L 708.58233 259.986493 
L 709.011012 266.770396 
L 709.439693 255.968979 
L 709.868374 264.83485 
L 710.297055 262.361218 
L 710.725736 248.300798 
L 711.154417 280.658042 
L 711.583099 241.821477 
L 712.01178 258.903712 
L 712.440461 260.793455 
L 712.869142 303.513771 
L 713.297823 268.42171 
L 713.726504 274.722906 
L 714.155186 246.449063 
L 714.583867 236.027379 
L 715.012548 240.200882 
L 715.441229 289.839172 
L 715.86991 283.974506 
L 716.298592 269.948074 
L 716.727273 290.795354 
L 717.155954 302.725111 
L 717.584635 253.349374 
L 718.013316 268.888735 
L 718.441997 257.928658 
L 718.870679 296.152078 
L 719.29936 278.489791 
L 719.728041 296.047252 
L 720.156722 289.120787 
L 720.585403 267.205891 
L 721.014085 289.039113 
L 721.442766 292.780645 
L 721.871447 299.262291 
L 722.300128 301.840075 
L 722.728809 289.790915 
L 723.15749 236.120608 
L 723.586172 285.010603 
L 724.014853 294.224889 
L 724.443534 299.941444 
L 724.872215 273.371536 
L 725.300896 277.955817 
L 725.729577 263.95624 
L 726.158259 274.500182 
L 726.58694 249.885248 
L 727.015621 252.253964 
L 727.444302 244.495569 
L 727.872983 260.609481 
L 728.301665 241.6023 
L 728.730346 265.492379 
L 729.159027 243.493453 
L 729.587708 265.197316 
L 730.44507 285.129654 
L 730.873752 273.310529 
L 731.302433 272.92037 
L 731.731114 244.057935 
L 732.588476 266.518776 
L 733.017157 270.698838 
L 733.445839 219.027449 
L 733.87452 253.981376 
L 734.303201 273.53289 
L 734.731882 254.9046 
L 735.160563 242.392045 
L 735.589245 225.33236 
L 736.017926 242.767768 
L 736.446607 236.944949 
L 736.875288 259.169309 
L 737.303969 219.133377 
L 737.73265 231.817739 
L 738.590013 197.932066 
L 739.018694 224.513118 
L 739.876056 240.312054 
L 740.304738 234.341465 
L 740.733419 239.374423 
L 741.1621 210.571416 
L 741.590781 246.790853 
L 742.019462 250.495784 
L 742.448143 225.942653 
L 742.876825 187.33943 
L 743.305506 205.239064 
L 743.734187 215.951596 
L 744.162868 189.553128 
L 744.591549 208.658724 
L 745.448912 195.46163 
L 745.877593 172.114123 
L 746.306274 165.677035 
L 746.734955 163.691748 
L 747.163636 167.816831 
L 747.163636 167.816831 
" style="fill:none;stroke:#1f77b4;stroke-linecap:square;stroke-width:1.5;"/>
   </g>
   <g id="line2d_16">
    <path clip-path="url(#pef3678018c)" d="M 742.876825 384.48 
L 742.876825 51.84 
" style="fill:none;stroke:#808080;stroke-linecap:square;"/>
   </g>
   <g id="patch_31">
    <path d="M 108 384.48 
L 108 51.84 
" style="fill:none;stroke:#000000;stroke-linecap:square;stroke-linejoin:miter;stroke-width:0.8;"/>
   </g>
   <g id="patch_32">
    <path d="M 777.6 384.48 
L 777.6 51.84 
" style="fill:none;stroke:#000000;stroke-linecap:square;stroke-linejoin:miter;stroke-width:0.8;"/>
   </g>
   <g id="patch_33">
    <path d="M 108 384.48 
L 777.6 384.48 
" style="fill:none;stroke:#000000;stroke-linecap:square;stroke-linejoin:miter;stroke-width:0.8;"/>
   </g>
   <g id="patch_34">
    <path d="M 108 51.84 
L 777.6 51.84 
" style="fill:none;stroke:#000000;stroke-linecap:square;stroke-linejoin:miter;stroke-width:0.8;"/>
   </g>
   <g id="text_17">
    <!-- synthetic_36.csv -->
    <defs>
     <path d="M 32.171875 -5.078125 
Q 28.375 -14.84375 24.75 -17.8125 
Q 21.140625 -20.796875 15.09375 -20.796875 
L 7.90625 -20.796875 
L 7.90625 -13.28125 
L 13.1875 -13.28125 
Q 16.890625 -13.28125 18.9375 -11.515625 
Q 21 -9.765625 23.484375 -3.21875 
L 25.09375 0.875 
L 2.984375 54.6875 
L 12.5 54.6875 
L 29.59375 11.921875 
L 46.6875 54.6875 
L 56.203125 54.6875 
z
" id="DejaVuSans-121"/>
     <path d="M 54.890625 33.015625 
L 54.890625 0 
L 45.90625 0 
L 45.90625 32.71875 
Q 45.90625 40.484375 42.875 44.328125 
Q 39.84375 48.1875 33.796875 48.1875 
Q 26.515625 48.1875 22.3125 43.546875 
Q 18.109375 38.921875 18.109375 30.90625 
L 18.109375 0 
L 9.078125 0 
L 9.078125 54.6875 
L 18.109375 54.6875 
L 18.109375 46.1875 
Q 21.34375 51.125 25.703125 53.5625 
Q 30.078125 56 35.796875 56 
Q 45.21875 56 50.046875 50.171875 
Q 54.890625 44.34375 54.890625 33.015625 
z
" id="DejaVuSans-110"/>
     <path d="M 54.890625 33.015625 
L 54.890625 0 
L 45.90625 0 
L 45.90625 32.71875 
Q 45.90625 40.484375 42.875 44.328125 
Q 39.84375 48.1875 33.796875 48.1875 
Q 26.515625 48.1875 22.3125 43.546875 
Q 18.109375 38.921875 18.109375 30.90625 
L 18.109375 0 
L 9.078125 0 
L 9.078125 75.984375 
L 18.109375 75.984375 
L 18.109375 46.1875 
Q 21.34375 51.125 25.703125 53.5625 
Q 30.078125 56 35.796875 56 
Q 45.21875 56 50.046875 50.171875 
Q 54.890625 44.34375 54.890625 33.015625 
z
" id="DejaVuSans-104"/>
     <path d="M 48.78125 52.59375 
L 48.78125 44.1875 
Q 44.96875 46.296875 41.140625 47.34375 
Q 37.3125 48.390625 33.40625 48.390625 
Q 24.65625 48.390625 19.8125 42.84375 
Q 14.984375 37.3125 14.984375 27.296875 
Q 14.984375 17.28125 19.8125 11.734375 
Q 24.65625 6.203125 33.40625 6.203125 
Q 37.3125 6.203125 41.140625 7.25 
Q 44.96875 8.296875 48.78125 10.40625 
L 48.78125 2.09375 
Q 45.015625 0.34375 40.984375 -0.53125 
Q 36.96875 -1.421875 32.421875 -1.421875 
Q 20.0625 -1.421875 12.78125 6.34375 
Q 5.515625 14.109375 5.515625 27.296875 
Q 5.515625 40.671875 12.859375 48.328125 
Q 20.21875 56 33.015625 56 
Q 37.15625 56 41.109375 55.140625 
Q 45.0625 54.296875 48.78125 52.59375 
z
" id="DejaVuSans-99"/>
     <path d="M 50.984375 -16.609375 
L 50.984375 -23.578125 
L -0.984375 -23.578125 
L -0.984375 -16.609375 
z
" id="DejaVuSans-95"/>
     <path d="M 10.6875 12.40625 
L 21 12.40625 
L 21 0 
L 10.6875 0 
z
" id="DejaVuSans-46"/>
     <path d="M 2.984375 54.6875 
L 12.5 54.6875 
L 29.59375 8.796875 
L 46.6875 54.6875 
L 56.203125 54.6875 
L 35.6875 0 
L 23.484375 0 
z
" id="DejaVuSans-118"/>
    </defs>
    <g transform="translate(392.638125 45.84)scale(0.12 -0.12)">
     <use xlink:href="#DejaVuSans-115"/>
     <use x="52.099609" xlink:href="#DejaVuSans-121"/>
     <use x="111.279297" xlink:href="#DejaVuSans-110"/>
     <use x="174.658203" xlink:href="#DejaVuSans-116"/>
     <use x="213.867188" xlink:href="#DejaVuSans-104"/>
     <use x="277.246094" xlink:href="#DejaVuSans-101"/>
     <use x="338.769531" xlink:href="#DejaVuSans-116"/>
     <use x="377.978516" xlink:href="#DejaVuSans-105"/>
     <use x="405.761719" xlink:href="#DejaVuSans-99"/>
     <use x="460.742188" xlink:href="#DejaVuSans-95"/>
     <use x="510.742188" xlink:href="#DejaVuSans-51"/>
     <use x="574.365234" xlink:href="#DejaVuSans-54"/>
     <use x="637.988281" xlink:href="#DejaVuSans-46"/>
     <use x="669.775391" xlink:href="#DejaVuSans-99"/>
     <use x="724.755859" xlink:href="#DejaVuSans-115"/>
     <use x="776.855469" xlink:href="#DejaVuSans-118"/>
    </g>
   </g>
   <g id="legend_1">
    <g id="patch_35">
     <path d="M 115 74.518125 
L 174.315625 74.518125 
Q 176.315625 74.518125 176.315625 72.518125 
L 176.315625 58.84 
Q 176.315625 56.84 174.315625 56.84 
L 115 56.84 
Q 113 56.84 113 58.84 
L 113 72.518125 
Q 113 74.518125 115 74.518125 
z
" style="fill:#ffffff;opacity:0.8;stroke:#cccccc;stroke-linejoin:miter;"/>
    </g>
    <g id="line2d_17">
     <path d="M 117 64.938438 
L 137 64.938438 
" style="fill:none;stroke:#1f77b4;stroke-linecap:square;stroke-width:1.5;"/>
    </g>
    <g id="line2d_18"/>
    <g id="text_18">
     <!-- value -->
     <g transform="translate(145 68.438438)scale(0.1 -0.1)">
      <use xlink:href="#DejaVuSans-118"/>
      <use x="59.179688" xlink:href="#DejaVuSans-97"/>
      <use x="120.458984" xlink:href="#DejaVuSans-108"/>
      <use x="148.242188" xlink:href="#DejaVuSans-117"/>
      <use x="211.621094" xlink:href="#DejaVuSans-101"/>
     </g>
    </g>
   </g>
  </g>
 </g>
 <defs>
  <clipPath id="pef3678018c">
   <rect height="332.64" width="669.6" x="108" y="51.84"/>
  </clipPath>
 </defs>
</svg>
