<?xml version="1.0" encoding="utf-8" standalone="no"?>
<!DOCTYPE svg PUBLIC "-//W3C//DTD SVG 1.1//EN"
  "http://www.w3.org/Graphics/SVG/1.1/DTD/svg11.dtd">
<!-- Created with matplotlib (https://matplotlib.org/) -->
<svg height="432pt" version="1.1" viewBox="0 0 864 432" width="864pt" xmlns="http://www.w3.org/2000/svg" xmlns:xlink="http://www.w3.org/1999/xlink">
 <defs>
  <style type="text/css">
*{stroke-linecap:butt;stroke-linejoin:round;}
  </style>
 </defs>
 <g id="figure_1">
  <g id="patch_1">
   <path d="M 0 432 
L 864 432 
L 864 0 
L 0 0 
z
" style="fill:#ffffff;"/>
  </g>
  <g id="axes_1">
   <g id="patch_2">
    <path d="M 108 384.48 
L 777.6 384.48 
L 777.6 51.84 
L 108 51.84 
z
" style="fill:#ffffff;"/>
   </g>
   <g id="patch_3">
    <path clip-path="url(#p9425445f20)" d="M 138.436364 384.48 
L 138.436364 51.84 
L 379.390909 51.84 
L 379.390909 384.48 
z
" style="fill:#0000ff;opacity:0.05;"/>
   </g>
   <g id="patch_4">
    <path clip-path="url(#p9425445f20)" d="M 379.390909 384.48 
L 379.390909 51.84 
L 747.163636 51.84 
L 747.163636 384.48 
z
" style="fill:#ff0000;opacity:0.08;"/>
   </g>
   <g id="patch_5">
    <path clip-path="url(#p9425445f20)" d="M 138.436364 384.48 
L 138.436364 51.84 
L 142.663636 51.84 
L 142.663636 384.48 
z
" style="fill:#008000;opacity:0.04;"/>
   </g>
   <g id="patch_6">
    <path clip-path="url(#p9425445f20)" d="M 146.890909 384.48 
L 146.890909 51.84 
L 151.118182 51.84 
L 151.118182 384.48 
z
" style="fill:#008000;opacity:0.04;"/>
   </g>
   <g id="patch_7">
    <path clip-path="url(#p9425445f20)" d="M 151.118182 384.48 
L 151.118182 371.1744 
L 155.345455 371.1744 
L 155.345455 384.48 
z
" style="fill:#ffe500;"/>
   </g>
   <g id="patch_8">
    <path clip-path="url(#p9425445f20)" d="M 155.345455 384.48 
L 155.345455 51.84 
L 159.572727 51.84 
L 159.572727 384.48 
z
" style="fill:#008000;opacity:0.04;"/>
   </g>
   <g id="patch_9">
    <path clip-path="url(#p9425445f20)" d="M 155.345455 384.48 
L 155.345455 371.1744 
L 159.572727 371.1744 
L 159.572727 384.48 
z
" style="fill:#ffe500;"/>
   </g>
   <g id="patch_10">
    <path clip-path="url(#p9425445f20)" d="M 396.3 384.48 
L 396.3 371.1744 
L 400.527273 371.1744 
L 400.527273 384.48 
z
" style="fill:#ff6600;"/>
   </g>
   <g id="patch_11">
    <path clip-path="url(#p9425445f20)" d="M 159.572727 384.48 
L 159.572727 371.1744 
L 163.8 371.1744 
L 163.8 384.48 
z
" style="fill:#ffe500;"/>
   </g>
   <g id="patch_12">
    <path clip-path="url(#p9425445f20)" d="M 400.527273 384.48 
L 400.527273 371.1744 
L 404.754545 371.1744 
L 404.754545 384.48 
z
" style="fill:#ff6600;"/>
   </g>
   <g id="patch_13">
    <path clip-path="url(#p9425445f20)" d="M 163.8 384.48 
L 163.8 51.84 
L 168.027273 51.84 
L 168.027273 384.48 
z
" style="fill:#008000;opacity:0.04;"/>
   </g>
   <g id="patch_14">
    <path clip-path="url(#p9425445f20)" d="M 408.981818 384.48 
L 408.981818 371.1744 
L 413.209091 371.1744 
L 413.209091 384.48 
z
" style="fill:#ff6600;"/>
   </g>
   <g id="patch_15">
    <path clip-path="url(#p9425445f20)" d="M 172.254545 384.48 
L 172.254545 51.84 
L 176.481818 51.84 
L 176.481818 384.48 
z
" style="fill:#008000;opacity:0.04;"/>
   </g>
   <g id="patch_16">
    <path clip-path="url(#p9425445f20)" d="M 180.709091 384.48 
L 180.709091 51.84 
L 184.936364 51.84 
L 184.936364 384.48 
z
" style="fill:#008000;opacity:0.04;"/>
   </g>
   <g id="patch_17">
    <path clip-path="url(#p9425445f20)" d="M 421.663636 384.48 
L 421.663636 371.1744 
L 425.890909 371.1744 
L 425.890909 384.48 
z
" style="fill:#ff6600;"/>
   </g>
   <g id="patch_18">
    <path clip-path="url(#p9425445f20)" d="M 184.936364 371.1744 
L 184.936364 51.84 
L 189.163636 51.84 
L 189.163636 371.1744 
z
" style="fill:#008000;opacity:0.5;"/>
   </g>
   <g id="patch_19">
    <path clip-path="url(#p9425445f20)" d="M 184.936364 384.48 
L 184.936364 371.1744 
L 189.163636 371.1744 
L 189.163636 384.48 
z
" style="fill:#ffe500;"/>
   </g>
   <g id="patch_20">
    <path clip-path="url(#p9425445f20)" d="M 425.890909 384.48 
L 425.890909 371.1744 
L 430.118182 371.1744 
L 430.118182 384.48 
z
" style="fill:#ff6600;"/>
   </g>
   <g id="patch_21">
    <path clip-path="url(#p9425445f20)" d="M 189.163636 384.48 
L 189.163636 51.84 
L 193.390909 51.84 
L 193.390909 384.48 
z
" style="fill:#008000;opacity:0.04;"/>
   </g>
   <g id="patch_22">
    <path clip-path="url(#p9425445f20)" d="M 189.163636 384.48 
L 189.163636 371.1744 
L 193.390909 371.1744 
L 193.390909 384.48 
z
" style="fill:#ffe500;"/>
   </g>
   <g id="patch_23">
    <path clip-path="url(#p9425445f20)" d="M 197.618182 384.48 
L 197.618182 51.84 
L 201.845455 51.84 
L 201.845455 384.48 
z
" style="fill:#008000;opacity:0.04;"/>
   </g>
   <g id="patch_24">
    <path clip-path="url(#p9425445f20)" d="M 206.072727 384.48 
L 206.072727 51.84 
L 210.3 51.84 
L 210.3 384.48 
z
" style="fill:#008000;opacity:0.04;"/>
   </g>
   <g id="patch_25">
    <path clip-path="url(#p9425445f20)" d="M 210.3 384.48 
L 210.3 371.1744 
L 214.527273 371.1744 
L 214.527273 384.48 
z
" style="fill:#ffe500;"/>
   </g>
   <g id="patch_26">
    <path clip-path="url(#p9425445f20)" d="M 214.527273 384.48 
L 214.527273 51.84 
L 218.754545 51.84 
L 218.754545 384.48 
z
" style="fill:#008000;opacity:0.04;"/>
   </g>
   <g id="patch_27">
    <path clip-path="url(#p9425445f20)" d="M 222.981818 384.48 
L 222.981818 51.84 
L 227.209091 51.84 
L 227.209091 384.48 
z
" style="fill:#008000;opacity:0.04;"/>
   </g>
   <g id="patch_28">
    <path clip-path="url(#p9425445f20)" d="M 222.981818 384.48 
L 222.981818 371.1744 
L 227.209091 371.1744 
L 227.209091 384.48 
z
" style="fill:#ffe500;"/>
   </g>
   <g id="patch_29">
    <path clip-path="url(#p9425445f20)" d="M 231.436364 384.48 
L 231.436364 51.84 
L 235.663636 51.84 
L 235.663636 384.48 
z
" style="fill:#008000;opacity:0.04;"/>
   </g>
   <g id="patch_30">
    <path clip-path="url(#p9425445f20)" d="M 239.890909 384.48 
L 239.890909 51.84 
L 244.118182 51.84 
L 244.118182 384.48 
z
" style="fill:#008000;opacity:0.04;"/>
   </g>
   <g id="patch_31">
    <path clip-path="url(#p9425445f20)" d="M 248.345455 384.48 
L 248.345455 51.84 
L 252.572727 51.84 
L 252.572727 384.48 
z
" style="fill:#008000;opacity:0.04;"/>
   </g>
   <g id="patch_32">
    <path clip-path="url(#p9425445f20)" d="M 252.572727 384.48 
L 252.572727 371.1744 
L 256.8 371.1744 
L 256.8 384.48 
z
" style="fill:#ffe500;"/>
   </g>
   <g id="patch_33">
    <path clip-path="url(#p9425445f20)" d="M 256.8 384.48 
L 256.8 51.84 
L 261.027273 51.84 
L 261.027273 384.48 
z
" style="fill:#008000;opacity:0.04;"/>
   </g>
   <g id="patch_34">
    <path clip-path="url(#p9425445f20)" d="M 261.027273 384.48 
L 261.027273 371.1744 
L 265.254545 371.1744 
L 265.254545 384.48 
z
" style="fill:#ffe500;"/>
   </g>
   <g id="patch_35">
    <path clip-path="url(#p9425445f20)" d="M 265.254545 384.48 
L 265.254545 51.84 
L 269.481818 51.84 
L 269.481818 384.48 
z
" style="fill:#008000;opacity:0.04;"/>
   </g>
   <g id="patch_36">
    <path clip-path="url(#p9425445f20)" d="M 273.709091 384.48 
L 273.709091 51.84 
L 277.936364 51.84 
L 277.936364 384.48 
z
" style="fill:#008000;opacity:0.04;"/>
   </g>
   <g id="patch_37">
    <path clip-path="url(#p9425445f20)" d="M 282.163636 384.48 
L 282.163636 51.84 
L 286.390909 51.84 
L 286.390909 384.48 
z
" style="fill:#008000;opacity:0.04;"/>
   </g>
   <g id="patch_38">
    <path clip-path="url(#p9425445f20)" d="M 282.163636 384.48 
L 282.163636 371.1744 
L 286.390909 371.1744 
L 286.390909 384.48 
z
" style="fill:#ffe500;"/>
   </g>
   <g id="patch_39">
    <path clip-path="url(#p9425445f20)" d="M 523.118182 384.48 
L 523.118182 371.1744 
L 527.345455 371.1744 
L 527.345455 384.48 
z
" style="fill:#ff6600;"/>
   </g>
   <g id="patch_40">
    <path clip-path="url(#p9425445f20)" d="M 286.390909 384.48 
L 286.390909 371.1744 
L 290.618182 371.1744 
L 290.618182 384.48 
z
" style="fill:#ffe500;"/>
   </g>
   <g id="patch_41">
    <path clip-path="url(#p9425445f20)" d="M 290.618182 384.48 
L 290.618182 51.84 
L 294.845455 51.84 
L 294.845455 384.48 
z
" style="fill:#008000;opacity:0.04;"/>
   </g>
   <g id="patch_42">
    <path clip-path="url(#p9425445f20)" d="M 290.618182 384.48 
L 290.618182 371.1744 
L 294.845455 371.1744 
L 294.845455 384.48 
z
" style="fill:#ffe500;"/>
   </g>
   <g id="patch_43">
    <path clip-path="url(#p9425445f20)" d="M 535.8 384.48 
L 535.8 371.1744 
L 540.027273 371.1744 
L 540.027273 384.48 
z
" style="fill:#ff6600;"/>
   </g>
   <g id="patch_44">
    <path clip-path="url(#p9425445f20)" d="M 299.072727 384.48 
L 299.072727 51.84 
L 303.3 51.84 
L 303.3 384.48 
z
" style="fill:#008000;opacity:0.04;"/>
   </g>
   <g id="patch_45">
    <path clip-path="url(#p9425445f20)" d="M 307.527273 384.48 
L 307.527273 51.84 
L 311.754545 51.84 
L 311.754545 384.48 
z
" style="fill:#008000;opacity:0.04;"/>
   </g>
   <g id="patch_46">
    <path clip-path="url(#p9425445f20)" d="M 307.527273 384.48 
L 307.527273 371.1744 
L 311.754545 371.1744 
L 311.754545 384.48 
z
" style="fill:#ffe500;"/>
   </g>
   <g id="patch_47">
    <path clip-path="url(#p9425445f20)" d="M 315.981818 384.48 
L 315.981818 51.84 
L 320.209091 51.84 
L 320.209091 384.48 
z
" style="fill:#008000;opacity:0.04;"/>
   </g>
   <g id="patch_48">
    <path clip-path="url(#p9425445f20)" d="M 324.436364 384.48 
L 324.436364 51.84 
L 328.663636 51.84 
L 328.663636 384.48 
z
" style="fill:#008000;opacity:0.04;"/>
   </g>
   <g id="patch_49">
    <path clip-path="url(#p9425445f20)" d="M 332.890909 384.48 
L 332.890909 51.84 
L 337.118182 51.84 
L 337.118182 384.48 
z
" style="fill:#008000;opacity:0.04;"/>
   </g>
   <g id="patch_50">
    <path clip-path="url(#p9425445f20)" d="M 341.345455 384.48 
L 341.345455 51.84 
L 345.572727 51.84 
L 345.572727 384.48 
z
" style="fill:#008000;opacity:0.04;"/>
   </g>
   <g id="patch_51">
    <path clip-path="url(#p9425445f20)" d="M 349.8 384.48 
L 349.8 51.84 
L 354.027273 51.84 
L 354.027273 384.48 
z
" style="fill:#008000;opacity:0.04;"/>
   </g>
   <g id="patch_52">
    <path clip-path="url(#p9425445f20)" d="M 358.254545 384.48 
L 358.254545 51.84 
L 362.481818 51.84 
L 362.481818 384.48 
z
" style="fill:#008000;opacity:0.04;"/>
   </g>
   <g id="patch_53">
    <path clip-path="url(#p9425445f20)" d="M 362.481818 384.48 
L 362.481818 371.1744 
L 366.709091 371.1744 
L 366.709091 384.48 
z
" style="fill:#ffe500;"/>
   </g>
   <g id="patch_54">
    <path clip-path="url(#p9425445f20)" d="M 366.709091 384.48 
L 366.709091 51.84 
L 370.936364 51.84 
L 370.936364 384.48 
z
" style="fill:#008000;opacity:0.04;"/>
   </g>
   <g id="patch_55">
    <path clip-path="url(#p9425445f20)" d="M 375.163636 384.48 
L 375.163636 51.84 
L 379.390909 51.84 
L 379.390909 384.48 
z
" style="fill:#008000;opacity:0.04;"/>
   </g>
   <g id="patch_56">
    <path clip-path="url(#p9425445f20)" d="M 383.618182 384.48 
L 383.618182 51.84 
L 387.845455 51.84 
L 387.845455 384.48 
z
" style="fill:#008000;opacity:0.04;"/>
   </g>
   <g id="patch_57">
    <path clip-path="url(#p9425445f20)" d="M 392.072727 384.48 
L 392.072727 51.84 
L 396.3 51.84 
L 396.3 384.48 
z
" style="fill:#008000;opacity:0.04;"/>
   </g>
   <g id="patch_58">
    <path clip-path="url(#p9425445f20)" d="M 400.527273 384.48 
L 400.527273 51.84 
L 404.754545 51.84 
L 404.754545 384.48 
z
" style="fill:#008000;opacity:0.04;"/>
   </g>
   <g id="patch_59">
    <path clip-path="url(#p9425445f20)" d="M 408.981818 384.48 
L 408.981818 51.84 
L 413.209091 51.84 
L 413.209091 384.48 
z
" style="fill:#008000;opacity:0.04;"/>
   </g>
   <g id="patch_60">
    <path clip-path="url(#p9425445f20)" d="M 417.436364 384.48 
L 417.436364 51.84 
L 421.663636 51.84 
L 421.663636 384.48 
z
" style="fill:#008000;opacity:0.04;"/>
   </g>
   <g id="patch_61">
    <path clip-path="url(#p9425445f20)" d="M 658.390909 384.48 
L 658.390909 371.1744 
L 662.618182 371.1744 
L 662.618182 384.48 
z
" style="fill:#ff6600;"/>
   </g>
   <g id="patch_62">
    <path clip-path="url(#p9425445f20)" d="M 425.890909 384.48 
L 425.890909 51.84 
L 430.118182 51.84 
L 430.118182 384.48 
z
" style="fill:#008000;opacity:0.04;"/>
   </g>
   <g id="patch_63">
    <path clip-path="url(#p9425445f20)" d="M 434.345455 384.48 
L 434.345455 51.84 
L 438.572727 51.84 
L 438.572727 384.48 
z
" style="fill:#008000;opacity:0.04;"/>
   </g>
   <g id="patch_64">
    <path clip-path="url(#p9425445f20)" d="M 675.3 384.48 
L 675.3 371.1744 
L 679.527273 371.1744 
L 679.527273 384.48 
z
" style="fill:#ff6600;"/>
   </g>
   <g id="patch_65">
    <path clip-path="url(#p9425445f20)" d="M 442.8 384.48 
L 442.8 51.84 
L 447.027273 51.84 
L 447.027273 384.48 
z
" style="fill:#008000;opacity:0.04;"/>
   </g>
   <g id="patch_66">
    <path clip-path="url(#p9425445f20)" d="M 451.254545 384.48 
L 451.254545 51.84 
L 455.481818 51.84 
L 455.481818 384.48 
z
" style="fill:#008000;opacity:0.04;"/>
   </g>
   <g id="patch_67">
    <path clip-path="url(#p9425445f20)" d="M 459.709091 384.48 
L 459.709091 51.84 
L 463.936364 51.84 
L 463.936364 384.48 
z
" style="fill:#008000;opacity:0.04;"/>
   </g>
   <g id="patch_68">
    <path clip-path="url(#p9425445f20)" d="M 468.163636 384.48 
L 468.163636 51.84 
L 472.390909 51.84 
L 472.390909 384.48 
z
" style="fill:#008000;opacity:0.04;"/>
   </g>
   <g id="patch_69">
    <path clip-path="url(#p9425445f20)" d="M 476.618182 384.48 
L 476.618182 51.84 
L 480.845455 51.84 
L 480.845455 384.48 
z
" style="fill:#008000;opacity:0.04;"/>
   </g>
   <g id="patch_70">
    <path clip-path="url(#p9425445f20)" d="M 485.072727 384.48 
L 485.072727 51.84 
L 489.3 51.84 
L 489.3 384.48 
z
" style="fill:#008000;opacity:0.04;"/>
   </g>
   <g id="patch_71">
    <path clip-path="url(#p9425445f20)" d="M 493.527273 384.48 
L 493.527273 51.84 
L 497.754545 51.84 
L 497.754545 384.48 
z
" style="fill:#008000;opacity:0.04;"/>
   </g>
   <g id="patch_72">
    <path clip-path="url(#p9425445f20)" d="M 501.981818 384.48 
L 501.981818 51.84 
L 506.209091 51.84 
L 506.209091 384.48 
z
" style="fill:#008000;opacity:0.04;"/>
   </g>
   <g id="patch_73">
    <path clip-path="url(#p9425445f20)" d="M 510.436364 384.48 
L 510.436364 51.84 
L 514.663636 51.84 
L 514.663636 384.48 
z
" style="fill:#008000;opacity:0.04;"/>
   </g>
   <g id="patch_74">
    <path clip-path="url(#p9425445f20)" d="M 518.890909 384.48 
L 518.890909 51.84 
L 523.118182 51.84 
L 523.118182 384.48 
z
" style="fill:#008000;opacity:0.04;"/>
   </g>
   <g id="patch_75">
    <path clip-path="url(#p9425445f20)" d="M 527.345455 384.48 
L 527.345455 51.84 
L 531.572727 51.84 
L 531.572727 384.48 
z
" style="fill:#008000;opacity:0.04;"/>
   </g>
   <g id="patch_76">
    <path clip-path="url(#p9425445f20)" d="M 535.8 384.48 
L 535.8 51.84 
L 540.027273 51.84 
L 540.027273 384.48 
z
" style="fill:#008000;opacity:0.04;"/>
   </g>
   <g id="patch_77">
    <path clip-path="url(#p9425445f20)" d="M 535.8 371.1744 
L 535.8 51.84 
L 540.027273 51.84 
L 540.027273 371.1744 
z
" style="fill:#008000;opacity:0.5;"/>
   </g>
   <g id="patch_78">
    <path clip-path="url(#p9425445f20)" d="M 544.254545 384.48 
L 544.254545 51.84 
L 548.481818 51.84 
L 548.481818 384.48 
z
" style="fill:#008000;opacity:0.04;"/>
   </g>
   <g id="patch_79">
    <path clip-path="url(#p9425445f20)" d="M 552.709091 384.48 
L 552.709091 51.84 
L 556.936364 51.84 
L 556.936364 384.48 
z
" style="fill:#008000;opacity:0.04;"/>
   </g>
   <g id="patch_80">
    <path clip-path="url(#p9425445f20)" d="M 561.163636 384.48 
L 561.163636 51.84 
L 565.390909 51.84 
L 565.390909 384.48 
z
" style="fill:#008000;opacity:0.04;"/>
   </g>
   <g id="patch_81">
    <path clip-path="url(#p9425445f20)" d="M 569.618182 384.48 
L 569.618182 51.84 
L 573.845455 51.84 
L 573.845455 384.48 
z
" style="fill:#008000;opacity:0.04;"/>
   </g>
   <g id="patch_82">
    <path clip-path="url(#p9425445f20)" d="M 578.072727 384.48 
L 578.072727 51.84 
L 582.3 51.84 
L 582.3 384.48 
z
" style="fill:#008000;opacity:0.04;"/>
   </g>
   <g id="patch_83">
    <path clip-path="url(#p9425445f20)" d="M 586.527273 384.48 
L 586.527273 51.84 
L 590.754545 51.84 
L 590.754545 384.48 
z
" style="fill:#008000;opacity:0.04;"/>
   </g>
   <g id="patch_84">
    <path clip-path="url(#p9425445f20)" d="M 594.981818 384.48 
L 594.981818 51.84 
L 599.209091 51.84 
L 599.209091 384.48 
z
" style="fill:#008000;opacity:0.04;"/>
   </g>
   <g id="patch_85">
    <path clip-path="url(#p9425445f20)" d="M 603.436364 384.48 
L 603.436364 51.84 
L 607.663636 51.84 
L 607.663636 384.48 
z
" style="fill:#008000;opacity:0.04;"/>
   </g>
   <g id="patch_86">
    <path clip-path="url(#p9425445f20)" d="M 611.890909 384.48 
L 611.890909 51.84 
L 616.118182 51.84 
L 616.118182 384.48 
z
" style="fill:#008000;opacity:0.04;"/>
   </g>
   <g id="patch_87">
    <path clip-path="url(#p9425445f20)" d="M 620.345455 384.48 
L 620.345455 51.84 
L 624.572727 51.84 
L 624.572727 384.48 
z
" style="fill:#008000;opacity:0.04;"/>
   </g>
   <g id="patch_88">
    <path clip-path="url(#p9425445f20)" d="M 628.8 384.48 
L 628.8 51.84 
L 633.027273 51.84 
L 633.027273 384.48 
z
" style="fill:#008000;opacity:0.04;"/>
   </g>
   <g id="patch_89">
    <path clip-path="url(#p9425445f20)" d="M 637.254545 384.48 
L 637.254545 51.84 
L 641.481818 51.84 
L 641.481818 384.48 
z
" style="fill:#008000;opacity:0.04;"/>
   </g>
   <g id="patch_90">
    <path clip-path="url(#p9425445f20)" d="M 645.709091 384.48 
L 645.709091 51.84 
L 649.936364 51.84 
L 649.936364 384.48 
z
" style="fill:#008000;opacity:0.04;"/>
   </g>
   <g id="patch_91">
    <path clip-path="url(#p9425445f20)" d="M 654.163636 384.48 
L 654.163636 51.84 
L 658.390909 51.84 
L 658.390909 384.48 
z
" style="fill:#008000;opacity:0.04;"/>
   </g>
   <g id="patch_92">
    <path clip-path="url(#p9425445f20)" d="M 658.390909 371.1744 
L 658.390909 51.84 
L 662.618182 51.84 
L 662.618182 371.1744 
z
" style="fill:#008000;opacity:0.5;"/>
   </g>
   <g id="patch_93">
    <path clip-path="url(#p9425445f20)" d="M 662.618182 384.48 
L 662.618182 51.84 
L 666.845455 51.84 
L 666.845455 384.48 
z
" style="fill:#008000;opacity:0.04;"/>
   </g>
   <g id="patch_94">
    <path clip-path="url(#p9425445f20)" d="M 662.618182 371.1744 
L 662.618182 51.84 
L 666.845455 51.84 
L 666.845455 371.1744 
z
" style="fill:#008000;opacity:0.5;"/>
   </g>
   <g id="patch_95">
    <path clip-path="url(#p9425445f20)" d="M 666.845455 371.1744 
L 666.845455 51.84 
L 671.072727 51.84 
L 671.072727 371.1744 
z
" style="fill:#008000;opacity:0.5;"/>
   </g>
   <g id="patch_96">
    <path clip-path="url(#p9425445f20)" d="M 671.072727 384.48 
L 671.072727 51.84 
L 675.3 51.84 
L 675.3 384.48 
z
" style="fill:#008000;opacity:0.04;"/>
   </g>
   <g id="patch_97">
    <path clip-path="url(#p9425445f20)" d="M 671.072727 371.1744 
L 671.072727 51.84 
L 675.3 51.84 
L 675.3 371.1744 
z
" style="fill:#008000;opacity:0.5;"/>
   </g>
   <g id="patch_98">
    <path clip-path="url(#p9425445f20)" d="M 679.527273 384.48 
L 679.527273 51.84 
L 683.754545 51.84 
L 683.754545 384.48 
z
" style="fill:#008000;opacity:0.04;"/>
   </g>
   <g id="patch_99">
    <path clip-path="url(#p9425445f20)" d="M 687.981818 384.48 
L 687.981818 51.84 
L 692.209091 51.84 
L 692.209091 384.48 
z
" style="fill:#008000;opacity:0.04;"/>
   </g>
   <g id="patch_100">
    <path clip-path="url(#p9425445f20)" d="M 696.436364 384.48 
L 696.436364 51.84 
L 700.663636 51.84 
L 700.663636 384.48 
z
" style="fill:#008000;opacity:0.04;"/>
   </g>
   <g id="patch_101">
    <path clip-path="url(#p9425445f20)" d="M 704.890909 384.48 
L 704.890909 51.84 
L 709.118182 51.84 
L 709.118182 384.48 
z
" style="fill:#008000;opacity:0.04;"/>
   </g>
   <g id="patch_102">
    <path clip-path="url(#p9425445f20)" d="M 713.345455 384.48 
L 713.345455 51.84 
L 717.572727 51.84 
L 717.572727 384.48 
z
" style="fill:#008000;opacity:0.04;"/>
   </g>
   <g id="patch_103">
    <path clip-path="url(#p9425445f20)" d="M 721.8 384.48 
L 721.8 51.84 
L 726.027273 51.84 
L 726.027273 384.48 
z
" style="fill:#008000;opacity:0.04;"/>
   </g>
   <g id="patch_104">
    <path clip-path="url(#p9425445f20)" d="M 730.254545 384.48 
L 730.254545 51.84 
L 734.481818 51.84 
L 734.481818 384.48 
z
" style="fill:#008000;opacity:0.04;"/>
   </g>
   <g id="patch_105">
    <path clip-path="url(#p9425445f20)" d="M 738.709091 384.48 
L 738.709091 51.84 
L 742.936364 51.84 
L 742.936364 384.48 
z
" style="fill:#008000;opacity:0.04;"/>
   </g>
   <g id="matplotlib.axis_1">
    <g id="xtick_1">
     <g id="line2d_1">
      <defs>
       <path d="M 0 0 
L 0 3.5 
" id="m994b8ac67f" style="stroke:#000000;stroke-width:0.8;"/>
      </defs>
      <g>
       <use style="stroke:#000000;stroke-width:0.8;" x="138.436364" xlink:href="#m994b8ac67f" y="384.48"/>
      </g>
     </g>
     <g id="text_1">
      <!-- 0 -->
      <defs>
       <path d="M 31.78125 66.40625 
Q 24.171875 66.40625 20.328125 58.90625 
Q 16.5 51.421875 16.5 36.375 
Q 16.5 21.390625 20.328125 13.890625 
Q 24.171875 6.390625 31.78125 6.390625 
Q 39.453125 6.390625 43.28125 13.890625 
Q 47.125 21.390625 47.125 36.375 
Q 47.125 51.421875 43.28125 58.90625 
Q 39.453125 66.40625 31.78125 66.40625 
z
M 31.78125 74.21875 
Q 44.046875 74.21875 50.515625 64.515625 
Q 56.984375 54.828125 56.984375 36.375 
Q 56.984375 17.96875 50.515625 8.265625 
Q 44.046875 -1.421875 31.78125 -1.421875 
Q 19.53125 -1.421875 13.0625 8.265625 
Q 6.59375 17.96875 6.59375 36.375 
Q 6.59375 54.828125 13.0625 64.515625 
Q 19.53125 74.21875 31.78125 74.21875 
z
" id="DejaVuSans-48"/>
      </defs>
      <g transform="translate(135.255114 399.078438)scale(0.1 -0.1)">
       <use xlink:href="#DejaVuSans-48"/>
      </g>
     </g>
    </g>
    <g id="xtick_2">
     <g id="line2d_2">
      <g>
       <use style="stroke:#000000;stroke-width:0.8;" x="222.981818" xlink:href="#m994b8ac67f" y="384.48"/>
      </g>
     </g>
     <g id="text_2">
      <!-- 200 -->
      <defs>
       <path d="M 19.1875 8.296875 
L 53.609375 8.296875 
L 53.609375 0 
L 7.328125 0 
L 7.328125 8.296875 
Q 12.9375 14.109375 22.625 23.890625 
Q 32.328125 33.6875 34.8125 36.53125 
Q 39.546875 41.84375 41.421875 45.53125 
Q 43.3125 49.21875 43.3125 52.78125 
Q 43.3125 58.59375 39.234375 62.25 
Q 35.15625 65.921875 28.609375 65.921875 
Q 23.96875 65.921875 18.8125 64.3125 
Q 13.671875 62.703125 7.8125 59.421875 
L 7.8125 69.390625 
Q 13.765625 71.78125 18.9375 73 
Q 24.125 74.21875 28.421875 74.21875 
Q 39.75 74.21875 46.484375 68.546875 
Q 53.21875 62.890625 53.21875 53.421875 
Q 53.21875 48.921875 51.53125 44.890625 
Q 49.859375 40.875 45.40625 35.40625 
Q 44.1875 33.984375 37.640625 27.21875 
Q 31.109375 20.453125 19.1875 8.296875 
z
" id="DejaVuSans-50"/>
      </defs>
      <g transform="translate(213.438068 399.078438)scale(0.1 -0.1)">
       <use xlink:href="#DejaVuSans-50"/>
       <use x="63.623047" xlink:href="#DejaVuSans-48"/>
       <use x="127.246094" xlink:href="#DejaVuSans-48"/>
      </g>
     </g>
    </g>
    <g id="xtick_3">
     <g id="line2d_3">
      <g>
       <use style="stroke:#000000;stroke-width:0.8;" x="307.527273" xlink:href="#m994b8ac67f" y="384.48"/>
      </g>
     </g>
     <g id="text_3">
      <!-- 400 -->
      <defs>
       <path d="M 37.796875 64.3125 
L 12.890625 25.390625 
L 37.796875 25.390625 
z
M 35.203125 72.90625 
L 47.609375 72.90625 
L 47.609375 25.390625 
L 58.015625 25.390625 
L 58.015625 17.1875 
L 47.609375 17.1875 
L 47.609375 0 
L 37.796875 0 
L 37.796875 17.1875 
L 4.890625 17.1875 
L 4.890625 26.703125 
z
" id="DejaVuSans-52"/>
      </defs>
      <g transform="translate(297.983523 399.078438)scale(0.1 -0.1)">
       <use xlink:href="#DejaVuSans-52"/>
       <use x="63.623047" xlink:href="#DejaVuSans-48"/>
       <use x="127.246094" xlink:href="#DejaVuSans-48"/>
      </g>
     </g>
    </g>
    <g id="xtick_4">
     <g id="line2d_4">
      <g>
       <use style="stroke:#000000;stroke-width:0.8;" x="392.072727" xlink:href="#m994b8ac67f" y="384.48"/>
      </g>
     </g>
     <g id="text_4">
      <!-- 600 -->
      <defs>
       <path d="M 33.015625 40.375 
Q 26.375 40.375 22.484375 35.828125 
Q 18.609375 31.296875 18.609375 23.390625 
Q 18.609375 15.53125 22.484375 10.953125 
Q 26.375 6.390625 33.015625 6.390625 
Q 39.65625 6.390625 43.53125 10.953125 
Q 47.40625 15.53125 47.40625 23.390625 
Q 47.40625 31.296875 43.53125 35.828125 
Q 39.65625 40.375 33.015625 40.375 
z
M 52.59375 71.296875 
L 52.59375 62.3125 
Q 48.875 64.0625 45.09375 64.984375 
Q 41.3125 65.921875 37.59375 65.921875 
Q 27.828125 65.921875 22.671875 59.328125 
Q 17.53125 52.734375 16.796875 39.40625 
Q 19.671875 43.65625 24.015625 45.921875 
Q 28.375 48.1875 33.59375 48.1875 
Q 44.578125 48.1875 50.953125 41.515625 
Q 57.328125 34.859375 57.328125 23.390625 
Q 57.328125 12.15625 50.6875 5.359375 
Q 44.046875 -1.421875 33.015625 -1.421875 
Q 20.359375 -1.421875 13.671875 8.265625 
Q 6.984375 17.96875 6.984375 36.375 
Q 6.984375 53.65625 15.1875 63.9375 
Q 23.390625 74.21875 37.203125 74.21875 
Q 40.921875 74.21875 44.703125 73.484375 
Q 48.484375 72.75 52.59375 71.296875 
z
" id="DejaVuSans-54"/>
      </defs>
      <g transform="translate(382.528977 399.078438)scale(0.1 -0.1)">
       <use xlink:href="#DejaVuSans-54"/>
       <use x="63.623047" xlink:href="#DejaVuSans-48"/>
       <use x="127.246094" xlink:href="#DejaVuSans-48"/>
      </g>
     </g>
    </g>
    <g id="xtick_5">
     <g id="line2d_5">
      <g>
       <use style="stroke:#000000;stroke-width:0.8;" x="476.618182" xlink:href="#m994b8ac67f" y="384.48"/>
      </g>
     </g>
     <g id="text_5">
      <!-- 800 -->
      <defs>
       <path d="M 31.78125 34.625 
Q 24.75 34.625 20.71875 30.859375 
Q 16.703125 27.09375 16.703125 20.515625 
Q 16.703125 13.921875 20.71875 10.15625 
Q 24.75 6.390625 31.78125 6.390625 
Q 38.8125 6.390625 42.859375 10.171875 
Q 46.921875 13.96875 46.921875 20.515625 
Q 46.921875 27.09375 42.890625 30.859375 
Q 38.875 34.625 31.78125 34.625 
z
M 21.921875 38.8125 
Q 15.578125 40.375 12.03125 44.71875 
Q 8.5 49.078125 8.5 55.328125 
Q 8.5 64.0625 14.71875 69.140625 
Q 20.953125 74.21875 31.78125 74.21875 
Q 42.671875 74.21875 48.875 69.140625 
Q 55.078125 64.0625 55.078125 55.328125 
Q 55.078125 49.078125 51.53125 44.71875 
Q 48 40.375 41.703125 38.8125 
Q 48.828125 37.15625 52.796875 32.3125 
Q 56.78125 27.484375 56.78125 20.515625 
Q 56.78125 9.90625 50.3125 4.234375 
Q 43.84375 -1.421875 31.78125 -1.421875 
Q 19.734375 -1.421875 13.25 4.234375 
Q 6.78125 9.90625 6.78125 20.515625 
Q 6.78125 27.484375 10.78125 32.3125 
Q 14.796875 37.15625 21.921875 38.8125 
z
M 18.3125 54.390625 
Q 18.3125 48.734375 21.84375 45.5625 
Q 25.390625 42.390625 31.78125 42.390625 
Q 38.140625 42.390625 41.71875 45.5625 
Q 45.3125 48.734375 45.3125 54.390625 
Q 45.3125 60.0625 41.71875 63.234375 
Q 38.140625 66.40625 31.78125 66.40625 
Q 25.390625 66.40625 21.84375 63.234375 
Q 18.3125 60.0625 18.3125 54.390625 
z
" id="DejaVuSans-56"/>
      </defs>
      <g transform="translate(467.074432 399.078438)scale(0.1 -0.1)">
       <use xlink:href="#DejaVuSans-56"/>
       <use x="63.623047" xlink:href="#DejaVuSans-48"/>
       <use x="127.246094" xlink:href="#DejaVuSans-48"/>
      </g>
     </g>
    </g>
    <g id="xtick_6">
     <g id="line2d_6">
      <g>
       <use style="stroke:#000000;stroke-width:0.8;" x="561.163636" xlink:href="#m994b8ac67f" y="384.48"/>
      </g>
     </g>
     <g id="text_6">
      <!-- 1000 -->
      <defs>
       <path d="M 12.40625 8.296875 
L 28.515625 8.296875 
L 28.515625 63.921875 
L 10.984375 60.40625 
L 10.984375 69.390625 
L 28.421875 72.90625 
L 38.28125 72.90625 
L 38.28125 8.296875 
L 54.390625 8.296875 
L 54.390625 0 
L 12.40625 0 
z
" id="DejaVuSans-49"/>
      </defs>
      <g transform="translate(548.438636 399.078438)scale(0.1 -0.1)">
       <use xlink:href="#DejaVuSans-49"/>
       <use x="63.623047" xlink:href="#DejaVuSans-48"/>
       <use x="127.246094" xlink:href="#DejaVuSans-48"/>
       <use x="190.869141" xlink:href="#DejaVuSans-48"/>
      </g>
     </g>
    </g>
    <g id="xtick_7">
     <g id="line2d_7">
      <g>
       <use style="stroke:#000000;stroke-width:0.8;" x="645.709091" xlink:href="#m994b8ac67f" y="384.48"/>
      </g>
     </g>
     <g id="text_7">
      <!-- 1200 -->
      <g transform="translate(632.984091 399.078438)scale(0.1 -0.1)">
       <use xlink:href="#DejaVuSans-49"/>
       <use x="63.623047" xlink:href="#DejaVuSans-50"/>
       <use x="127.246094" xlink:href="#DejaVuSans-48"/>
       <use x="190.869141" xlink:href="#DejaVuSans-48"/>
      </g>
     </g>
    </g>
    <g id="xtick_8">
     <g id="line2d_8">
      <g>
       <use style="stroke:#000000;stroke-width:0.8;" x="730.254545" xlink:href="#m994b8ac67f" y="384.48"/>
      </g>
     </g>
     <g id="text_8">
      <!-- 1400 -->
      <g transform="translate(717.529545 399.078438)scale(0.1 -0.1)">
       <use xlink:href="#DejaVuSans-49"/>
       <use x="63.623047" xlink:href="#DejaVuSans-52"/>
       <use x="127.246094" xlink:href="#DejaVuSans-48"/>
       <use x="190.869141" xlink:href="#DejaVuSans-48"/>
      </g>
     </g>
    </g>
    <g id="text_9">
     <!-- Timestamp -->
     <defs>
      <path d="M -0.296875 72.90625 
L 61.375 72.90625 
L 61.375 64.59375 
L 35.5 64.59375 
L 35.5 0 
L 25.59375 0 
L 25.59375 64.59375 
L -0.296875 64.59375 
z
" id="DejaVuSans-84"/>
      <path d="M 9.421875 54.6875 
L 18.40625 54.6875 
L 18.40625 0 
L 9.421875 0 
z
M 9.421875 75.984375 
L 18.40625 75.984375 
L 18.40625 64.59375 
L 9.421875 64.59375 
z
" id="DejaVuSans-105"/>
      <path d="M 52 44.1875 
Q 55.375 50.25 60.0625 53.125 
Q 64.75 56 71.09375 56 
Q 79.640625 56 84.28125 50.015625 
Q 88.921875 44.046875 88.921875 33.015625 
L 88.921875 0 
L 79.890625 0 
L 79.890625 32.71875 
Q 79.890625 40.578125 77.09375 44.375 
Q 74.3125 48.1875 68.609375 48.1875 
Q 61.625 48.1875 57.5625 43.546875 
Q 53.515625 38.921875 53.515625 30.90625 
L 53.515625 0 
L 44.484375 0 
L 44.484375 32.71875 
Q 44.484375 40.625 41.703125 44.40625 
Q 38.921875 48.1875 33.109375 48.1875 
Q 26.21875 48.1875 22.15625 43.53125 
Q 18.109375 38.875 18.109375 30.90625 
L 18.109375 0 
L 9.078125 0 
L 9.078125 54.6875 
L 18.109375 54.6875 
L 18.109375 46.1875 
Q 21.1875 51.21875 25.484375 53.609375 
Q 29.78125 56 35.6875 56 
Q 41.65625 56 45.828125 52.96875 
Q 50 49.953125 52 44.1875 
z
" id="DejaVuSans-109"/>
      <path d="M 56.203125 29.59375 
L 56.203125 25.203125 
L 14.890625 25.203125 
Q 15.484375 15.921875 20.484375 11.0625 
Q 25.484375 6.203125 34.421875 6.203125 
Q 39.59375 6.203125 44.453125 7.46875 
Q 49.3125 8.734375 54.109375 11.28125 
L 54.109375 2.78125 
Q 49.265625 0.734375 44.1875 -0.34375 
Q 39.109375 -1.421875 33.890625 -1.421875 
Q 20.796875 -1.421875 13.15625 6.1875 
Q 5.515625 13.8125 5.515625 26.8125 
Q 5.515625 40.234375 12.765625 48.109375 
Q 20.015625 56 32.328125 56 
Q 43.359375 56 49.78125 48.890625 
Q 56.203125 41.796875 56.203125 29.59375 
z
M 47.21875 32.234375 
Q 47.125 39.59375 43.09375 43.984375 
Q 39.0625 48.390625 32.421875 48.390625 
Q 24.90625 48.390625 20.390625 44.140625 
Q 15.875 39.890625 15.1875 32.171875 
z
" id="DejaVuSans-101"/>
      <path d="M 44.28125 53.078125 
L 44.28125 44.578125 
Q 40.484375 46.53125 36.375 47.5 
Q 32.28125 48.484375 27.875 48.484375 
Q 21.1875 48.484375 17.84375 46.4375 
Q 14.5 44.390625 14.5 40.28125 
Q 14.5 37.15625 16.890625 35.375 
Q 19.28125 33.59375 26.515625 31.984375 
L 29.59375 31.296875 
Q 39.15625 29.25 43.1875 25.515625 
Q 47.21875 21.78125 47.21875 15.09375 
Q 47.21875 7.46875 41.1875 3.015625 
Q 35.15625 -1.421875 24.609375 -1.421875 
Q 20.21875 -1.421875 15.453125 -0.5625 
Q 10.6875 0.296875 5.421875 2 
L 5.421875 11.28125 
Q 10.40625 8.6875 15.234375 7.390625 
Q 20.0625 6.109375 24.8125 6.109375 
Q 31.15625 6.109375 34.5625 8.28125 
Q 37.984375 10.453125 37.984375 14.40625 
Q 37.984375 18.0625 35.515625 20.015625 
Q 33.0625 21.96875 24.703125 23.78125 
L 21.578125 24.515625 
Q 13.234375 26.265625 9.515625 29.90625 
Q 5.8125 33.546875 5.8125 39.890625 
Q 5.8125 47.609375 11.28125 51.796875 
Q 16.75 56 26.8125 56 
Q 31.78125 56 36.171875 55.265625 
Q 40.578125 54.546875 44.28125 53.078125 
z
" id="DejaVuSans-115"/>
      <path d="M 18.3125 70.21875 
L 18.3125 54.6875 
L 36.8125 54.6875 
L 36.8125 47.703125 
L 18.3125 47.703125 
L 18.3125 18.015625 
Q 18.3125 11.328125 20.140625 9.421875 
Q 21.96875 7.515625 27.59375 7.515625 
L 36.8125 7.515625 
L 36.8125 0 
L 27.59375 0 
Q 17.1875 0 13.234375 3.875 
Q 9.28125 7.765625 9.28125 18.015625 
L 9.28125 47.703125 
L 2.6875 47.703125 
L 2.6875 54.6875 
L 9.28125 54.6875 
L 9.28125 70.21875 
z
" id="DejaVuSans-116"/>
      <path d="M 34.28125 27.484375 
Q 23.390625 27.484375 19.1875 25 
Q 14.984375 22.515625 14.984375 16.5 
Q 14.984375 11.71875 18.140625 8.90625 
Q 21.296875 6.109375 26.703125 6.109375 
Q 34.1875 6.109375 38.703125 11.40625 
Q 43.21875 16.703125 43.21875 25.484375 
L 43.21875 27.484375 
z
M 52.203125 31.203125 
L 52.203125 0 
L 43.21875 0 
L 43.21875 8.296875 
Q 40.140625 3.328125 35.546875 0.953125 
Q 30.953125 -1.421875 24.3125 -1.421875 
Q 15.921875 -1.421875 10.953125 3.296875 
Q 6 8.015625 6 15.921875 
Q 6 25.140625 12.171875 29.828125 
Q 18.359375 34.515625 30.609375 34.515625 
L 43.21875 34.515625 
L 43.21875 35.40625 
Q 43.21875 41.609375 39.140625 45 
Q 35.0625 48.390625 27.6875 48.390625 
Q 23 48.390625 18.546875 47.265625 
Q 14.109375 46.140625 10.015625 43.890625 
L 10.015625 52.203125 
Q 14.9375 54.109375 19.578125 55.046875 
Q 24.21875 56 28.609375 56 
Q 40.484375 56 46.34375 49.84375 
Q 52.203125 43.703125 52.203125 31.203125 
z
" id="DejaVuSans-97"/>
      <path d="M 18.109375 8.203125 
L 18.109375 -20.796875 
L 9.078125 -20.796875 
L 9.078125 54.6875 
L 18.109375 54.6875 
L 18.109375 46.390625 
Q 20.953125 51.265625 25.265625 53.625 
Q 29.59375 56 35.59375 56 
Q 45.5625 56 51.78125 48.09375 
Q 58.015625 40.1875 58.015625 27.296875 
Q 58.015625 14.40625 51.78125 6.484375 
Q 45.5625 -1.421875 35.59375 -1.421875 
Q 29.59375 -1.421875 25.265625 0.953125 
Q 20.953125 3.328125 18.109375 8.203125 
z
M 48.6875 27.296875 
Q 48.6875 37.203125 44.609375 42.84375 
Q 40.53125 48.484375 33.40625 48.484375 
Q 26.265625 48.484375 22.1875 42.84375 
Q 18.109375 37.203125 18.109375 27.296875 
Q 18.109375 17.390625 22.1875 11.75 
Q 26.265625 6.109375 33.40625 6.109375 
Q 40.53125 6.109375 44.609375 11.75 
Q 48.6875 17.390625 48.6875 27.296875 
z
" id="DejaVuSans-112"/>
     </defs>
     <g transform="translate(414.739062 412.756563)scale(0.1 -0.1)">
      <use xlink:href="#DejaVuSans-84"/>
      <use x="61.037109" xlink:href="#DejaVuSans-105"/>
      <use x="88.820312" xlink:href="#DejaVuSans-109"/>
      <use x="186.232422" xlink:href="#DejaVuSans-101"/>
      <use x="247.755859" xlink:href="#DejaVuSans-115"/>
      <use x="299.855469" xlink:href="#DejaVuSans-116"/>
      <use x="339.064453" xlink:href="#DejaVuSans-97"/>
      <use x="400.34375" xlink:href="#DejaVuSans-109"/>
      <use x="497.755859" xlink:href="#DejaVuSans-112"/>
     </g>
    </g>
   </g>
   <g id="matplotlib.axis_2">
    <g id="ytick_1">
     <g id="line2d_9">
      <defs>
       <path d="M 0 0 
L -3.5 0 
" id="m041c299bb6" style="stroke:#000000;stroke-width:0.8;"/>
      </defs>
      <g>
       <use style="stroke:#000000;stroke-width:0.8;" x="108" xlink:href="#m041c299bb6" y="382.798232"/>
      </g>
     </g>
     <g id="text_10">
      <!-- 1.25 -->
      <defs>
       <path d="M 10.6875 12.40625 
L 21 12.40625 
L 21 0 
L 10.6875 0 
z
" id="DejaVuSans-46"/>
       <path d="M 10.796875 72.90625 
L 49.515625 72.90625 
L 49.515625 64.59375 
L 19.828125 64.59375 
L 19.828125 46.734375 
Q 21.96875 47.46875 24.109375 47.828125 
Q 26.265625 48.1875 28.421875 48.1875 
Q 40.625 48.1875 47.75 41.5 
Q 54.890625 34.8125 54.890625 23.390625 
Q 54.890625 11.625 47.5625 5.09375 
Q 40.234375 -1.421875 26.90625 -1.421875 
Q 22.3125 -1.421875 17.546875 -0.640625 
Q 12.796875 0.140625 7.71875 1.703125 
L 7.71875 11.625 
Q 12.109375 9.234375 16.796875 8.0625 
Q 21.484375 6.890625 26.703125 6.890625 
Q 35.15625 6.890625 40.078125 11.328125 
Q 45.015625 15.765625 45.015625 23.390625 
Q 45.015625 31 40.078125 35.4375 
Q 35.15625 39.890625 26.703125 39.890625 
Q 22.75 39.890625 18.8125 39.015625 
Q 14.890625 38.140625 10.796875 36.28125 
z
" id="DejaVuSans-53"/>
      </defs>
      <g transform="translate(78.734375 386.597451)scale(0.1 -0.1)">
       <use xlink:href="#DejaVuSans-49"/>
       <use x="63.623047" xlink:href="#DejaVuSans-46"/>
       <use x="95.410156" xlink:href="#DejaVuSans-50"/>
       <use x="159.033203" xlink:href="#DejaVuSans-53"/>
      </g>
     </g>
    </g>
    <g id="ytick_2">
     <g id="line2d_10">
      <g>
       <use style="stroke:#000000;stroke-width:0.8;" x="108" xlink:href="#m041c299bb6" y="339.095526"/>
      </g>
     </g>
     <g id="text_11">
      <!-- 1.50 -->
      <g transform="translate(78.734375 342.894745)scale(0.1 -0.1)">
       <use xlink:href="#DejaVuSans-49"/>
       <use x="63.623047" xlink:href="#DejaVuSans-46"/>
       <use x="95.410156" xlink:href="#DejaVuSans-53"/>
       <use x="159.033203" xlink:href="#DejaVuSans-48"/>
      </g>
     </g>
    </g>
    <g id="ytick_3">
     <g id="line2d_11">
      <g>
       <use style="stroke:#000000;stroke-width:0.8;" x="108" xlink:href="#m041c299bb6" y="295.392821"/>
      </g>
     </g>
     <g id="text_12">
      <!-- 1.75 -->
      <defs>
       <path d="M 8.203125 72.90625 
L 55.078125 72.90625 
L 55.078125 68.703125 
L 28.609375 0 
L 18.3125 0 
L 43.21875 64.59375 
L 8.203125 64.59375 
z
" id="DejaVuSans-55"/>
      </defs>
      <g transform="translate(78.734375 299.192039)scale(0.1 -0.1)">
       <use xlink:href="#DejaVuSans-49"/>
       <use x="63.623047" xlink:href="#DejaVuSans-46"/>
       <use x="95.410156" xlink:href="#DejaVuSans-55"/>
       <use x="159.033203" xlink:href="#DejaVuSans-53"/>
      </g>
     </g>
    </g>
    <g id="ytick_4">
     <g id="line2d_12">
      <g>
       <use style="stroke:#000000;stroke-width:0.8;" x="108" xlink:href="#m041c299bb6" y="251.690115"/>
      </g>
     </g>
     <g id="text_13">
      <!-- 2.00 -->
      <g transform="translate(78.734375 255.489333)scale(0.1 -0.1)">
       <use xlink:href="#DejaVuSans-50"/>
       <use x="63.623047" xlink:href="#DejaVuSans-46"/>
       <use x="95.410156" xlink:href="#DejaVuSans-48"/>
       <use x="159.033203" xlink:href="#DejaVuSans-48"/>
      </g>
     </g>
    </g>
    <g id="ytick_5">
     <g id="line2d_13">
      <g>
       <use style="stroke:#000000;stroke-width:0.8;" x="108" xlink:href="#m041c299bb6" y="207.987409"/>
      </g>
     </g>
     <g id="text_14">
      <!-- 2.25 -->
      <g transform="translate(78.734375 211.786627)scale(0.1 -0.1)">
       <use xlink:href="#DejaVuSans-50"/>
       <use x="63.623047" xlink:href="#DejaVuSans-46"/>
       <use x="95.410156" xlink:href="#DejaVuSans-50"/>
       <use x="159.033203" xlink:href="#DejaVuSans-53"/>
      </g>
     </g>
    </g>
    <g id="ytick_6">
     <g id="line2d_14">
      <g>
       <use style="stroke:#000000;stroke-width:0.8;" x="108" xlink:href="#m041c299bb6" y="164.284703"/>
      </g>
     </g>
     <g id="text_15">
      <!-- 2.50 -->
      <g transform="translate(78.734375 168.083921)scale(0.1 -0.1)">
       <use xlink:href="#DejaVuSans-50"/>
       <use x="63.623047" xlink:href="#DejaVuSans-46"/>
       <use x="95.410156" xlink:href="#DejaVuSans-53"/>
       <use x="159.033203" xlink:href="#DejaVuSans-48"/>
      </g>
     </g>
    </g>
    <g id="ytick_7">
     <g id="line2d_15">
      <g>
       <use style="stroke:#000000;stroke-width:0.8;" x="108" xlink:href="#m041c299bb6" y="120.581997"/>
      </g>
     </g>
     <g id="text_16">
      <!-- 2.75 -->
      <g transform="translate(78.734375 124.381215)scale(0.1 -0.1)">
       <use xlink:href="#DejaVuSans-50"/>
       <use x="63.623047" xlink:href="#DejaVuSans-46"/>
       <use x="95.410156" xlink:href="#DejaVuSans-55"/>
       <use x="159.033203" xlink:href="#DejaVuSans-53"/>
      </g>
     </g>
    </g>
    <g id="ytick_8">
     <g id="line2d_16">
      <g>
       <use style="stroke:#000000;stroke-width:0.8;" x="108" xlink:href="#m041c299bb6" y="76.879291"/>
      </g>
     </g>
     <g id="text_17">
      <!-- 3.00 -->
      <defs>
       <path d="M 40.578125 39.3125 
Q 47.65625 37.796875 51.625 33 
Q 55.609375 28.21875 55.609375 21.1875 
Q 55.609375 10.40625 48.1875 4.484375 
Q 40.765625 -1.421875 27.09375 -1.421875 
Q 22.515625 -1.421875 17.65625 -0.515625 
Q 12.796875 0.390625 7.625 2.203125 
L 7.625 11.71875 
Q 11.71875 9.328125 16.59375 8.109375 
Q 21.484375 6.890625 26.8125 6.890625 
Q 36.078125 6.890625 40.9375 10.546875 
Q 45.796875 14.203125 45.796875 21.1875 
Q 45.796875 27.640625 41.28125 31.265625 
Q 36.765625 34.90625 28.71875 34.90625 
L 20.21875 34.90625 
L 20.21875 43.015625 
L 29.109375 43.015625 
Q 36.375 43.015625 40.234375 45.921875 
Q 44.09375 48.828125 44.09375 54.296875 
Q 44.09375 59.90625 40.109375 62.90625 
Q 36.140625 65.921875 28.71875 65.921875 
Q 24.65625 65.921875 20.015625 65.03125 
Q 15.375 64.15625 9.8125 62.3125 
L 9.8125 71.09375 
Q 15.4375 72.65625 20.34375 73.4375 
Q 25.25 74.21875 29.59375 74.21875 
Q 40.828125 74.21875 47.359375 69.109375 
Q 53.90625 64.015625 53.90625 55.328125 
Q 53.90625 49.265625 50.4375 45.09375 
Q 46.96875 40.921875 40.578125 39.3125 
z
" id="DejaVuSans-51"/>
      </defs>
      <g transform="translate(78.734375 80.678509)scale(0.1 -0.1)">
       <use xlink:href="#DejaVuSans-51"/>
       <use x="63.623047" xlink:href="#DejaVuSans-46"/>
       <use x="95.410156" xlink:href="#DejaVuSans-48"/>
       <use x="159.033203" xlink:href="#DejaVuSans-48"/>
      </g>
     </g>
    </g>
    <g id="text_18">
     <!-- Value -->
     <defs>
      <path d="M 28.609375 0 
L 0.78125 72.90625 
L 11.078125 72.90625 
L 34.1875 11.53125 
L 57.328125 72.90625 
L 67.578125 72.90625 
L 39.796875 0 
z
" id="DejaVuSans-86"/>
      <path d="M 9.421875 75.984375 
L 18.40625 75.984375 
L 18.40625 0 
L 9.421875 0 
z
" id="DejaVuSans-108"/>
      <path d="M 8.5 21.578125 
L 8.5 54.6875 
L 17.484375 54.6875 
L 17.484375 21.921875 
Q 17.484375 14.15625 20.5 10.265625 
Q 23.53125 6.390625 29.59375 6.390625 
Q 36.859375 6.390625 41.078125 11.03125 
Q 45.3125 15.671875 45.3125 23.6875 
L 45.3125 54.6875 
L 54.296875 54.6875 
L 54.296875 0 
L 45.3125 0 
L 45.3125 8.40625 
Q 42.046875 3.421875 37.71875 1 
Q 33.40625 -1.421875 27.6875 -1.421875 
Q 18.265625 -1.421875 13.375 4.4375 
Q 8.5 10.296875 8.5 21.578125 
z
M 31.109375 56 
z
" id="DejaVuSans-117"/>
     </defs>
     <g transform="translate(72.654687 232.273281)rotate(-90)scale(0.1 -0.1)">
      <use xlink:href="#DejaVuSans-86"/>
      <use x="68.298828" xlink:href="#DejaVuSans-97"/>
      <use x="129.578125" xlink:href="#DejaVuSans-108"/>
      <use x="157.361328" xlink:href="#DejaVuSans-117"/>
      <use x="220.740234" xlink:href="#DejaVuSans-101"/>
     </g>
    </g>
   </g>
   <g id="line2d_17">
    <path clip-path="url(#p9425445f20)" d="M 138.436364 351.679284 
L 139.281818 358.161793 
L 139.704545 359.909902 
L 140.127273 358.858415 
L 140.55 359.376903 
L 140.972727 356.995805 
L 141.395455 357.888564 
L 141.818182 360.245713 
L 142.240909 360.082615 
L 142.663636 360.651624 
L 143.509091 364.328944 
L 143.931818 364.556898 
L 144.354545 363.303155 
L 144.777273 361.35314 
L 145.2 362.003436 
L 145.622727 360.634842 
L 146.045455 359.908328 
L 146.468182 356.440256 
L 147.313636 352.334475 
L 147.736364 351.347143 
L 148.159091 348.991392 
L 148.581818 351.426682 
L 149.004545 357.38913 
L 149.427273 359.63912 
L 149.85 360.139778 
L 150.272727 359.708869 
L 150.695455 357.28669 
L 151.118182 358.138369 
L 151.540909 357.652569 
L 151.963636 357.750464 
L 152.809091 359.410642 
L 153.231818 359.267297 
L 153.654545 361.360482 
L 154.077273 360.198165 
L 154.5 359.812707 
L 154.922727 362.15255 
L 155.345455 363.05335 
L 155.768182 363.510305 
L 156.190909 330.459697 
L 156.613636 358.378734 
L 157.036364 356.389386 
L 157.459091 353.649052 
L 158.304545 344.998014 
L 158.727273 351.595025 
L 159.572727 359.267297 
L 159.995455 361.828101 
L 160.418182 361.095643 
L 160.840909 360.998973 
L 161.263636 362.229466 
L 161.686364 361.979487 
L 162.109091 363.02975 
L 162.531818 362.137341 
L 162.954545 362.473677 
L 163.377273 363.962017 
L 163.8 364.605146 
L 164.222727 361.477955 
L 164.645455 361.18707 
L 165.068182 362.049237 
L 165.490909 360.645506 
L 166.336364 353.328274 
L 166.759091 351.156424 
L 167.181818 347.082458 
L 167.604545 345.979402 
L 168.027273 351.443114 
L 168.45 353.115355 
L 168.872727 352.700354 
L 169.295455 357.307318 
L 169.718182 360.217394 
L 170.140909 361.077114 
L 170.986364 359.348934 
L 171.409091 360.704242 
L 171.831818 359.959723 
L 172.254545 358.984803 
L 172.677273 360.672426 
L 173.1 362.849171 
L 173.522727 366.526666 
L 174.368182 364.307967 
L 174.790909 365.764141 
L 175.636364 365.95923 
L 176.059091 365.448258 
L 177.327273 356.244993 
L 177.75 355.387895 
L 178.172727 352.440585 
L 178.595455 351.730503 
L 179.018182 352.850691 
L 179.863636 360.577504 
L 180.286364 360.764202 
L 180.709091 357.843638 
L 181.131818 347.808797 
L 181.554545 356.416482 
L 181.977273 360.611068 
L 182.4 359.085144 
L 183.245455 366.182464 
L 183.668182 368.825603 
L 184.513636 366.722629 
L 184.936364 364.34188 
L 185.359091 365.114719 
L 185.781818 364.543612 
L 186.204545 361.384081 
L 186.627273 253.158351 
L 187.05 198.336802 
L 187.472727 216.206664 
L 187.895455 258.244297 
L 188.318182 312.555223 
L 188.740909 345.550067 
L 189.163636 351.20677 
L 190.431818 362.610729 
L 190.854545 362.099582 
L 191.277273 359.866898 
L 191.7 362.090317 
L 192.122727 359.220273 
L 192.545455 339.044482 
L 192.968182 355.751502 
L 193.390909 364.781879 
L 193.813636 364.320379 
L 194.236364 366.195749 
L 194.659091 364.624899 
L 195.081818 358.541483 
L 195.504545 362.644467 
L 195.927273 364.848832 
L 196.35 364.151512 
L 196.772727 359.761662 
L 197.195455 358.246751 
L 197.618182 355.691891 
L 198.040909 354.811544 
L 198.463636 351.640825 
L 198.886364 350.402465 
L 200.154545 360.867166 
L 201 360.195193 
L 201.422727 360.177362 
L 201.845455 359.763935 
L 202.268182 360.103242 
L 202.690909 362.219852 
L 203.113636 362.363022 
L 203.959091 369.037124 
L 204.381818 368.78225 
L 204.804545 367.972526 
L 205.227273 366.411815 
L 206.072727 365.398437 
L 206.495455 364.091726 
L 206.918182 361.359258 
L 207.340909 360.132086 
L 207.763636 355.375833 
L 208.186364 354.34847 
L 208.609091 352.58865 
L 209.031818 353.380892 
L 209.454545 351.295399 
L 209.877273 357.428462 
L 210.3 360.265817 
L 210.722727 360.320008 
L 211.145455 358.420164 
L 211.568182 358.800902 
L 212.413636 356.174369 
L 212.836364 357.142122 
L 213.259091 358.909809 
L 214.104545 361.771987 
L 214.527273 364.088929 
L 214.95 363.973379 
L 215.372727 363.351927 
L 215.795455 367.348801 
L 216.218182 368.21429 
L 216.640909 366.651481 
L 217.063636 363.962716 
L 217.486364 360.421049 
L 217.909091 357.955167 
L 218.331818 357.390178 
L 218.754545 355.904286 
L 219.6 350.079415 
L 220.022727 354.982509 
L 220.868182 358.734823 
L 221.290909 359.40365 
L 221.713636 356.557205 
L 222.136364 357.762351 
L 222.559091 357.407834 
L 222.981818 356.009872 
L 223.404545 357.388081 
L 224.25 361.09407 
L 224.672727 361.547355 
L 225.518182 363.322733 
L 225.940909 363.731791 
L 226.786364 363.096353 
L 227.209091 359.686144 
L 227.631818 353.906199 
L 228.054545 351.175479 
L 228.477273 351.175479 
L 228.9 352.374331 
L 229.322727 346.267141 
L 229.745455 347.296776 
L 230.168182 353.072351 
L 230.590909 357.004196 
L 231.013636 357.362384 
L 231.436364 356.753343 
L 231.859091 357.530552 
L 232.281818 357.512896 
L 232.704545 355.181968 
L 233.127273 357.836296 
L 233.55 358.226299 
L 233.972727 360.790773 
L 234.395455 365.036754 
L 234.818182 364.278774 
L 235.240909 365.290579 
L 235.663636 365.867629 
L 236.086364 366.811957 
L 236.509091 366.851814 
L 236.931818 366.578935 
L 237.354545 367.446346 
L 237.777273 362.013051 
L 238.2 364.749015 
L 238.622727 362.12458 
L 239.045455 361.472885 
L 239.468182 360.271236 
L 239.890909 360.630472 
L 240.736364 362.490284 
L 241.159091 364.223184 
L 241.581818 362.640272 
L 242.427273 356.569791 
L 242.85 349.067086 
L 243.272727 343.734481 
L 244.118182 357.417449 
L 244.540909 364.905121 
L 244.963636 365.274671 
L 246.231818 367.481658 
L 246.654545 367.642134 
L 247.077273 369.36 
L 247.5 367.309469 
L 247.922727 366.554461 
L 248.768182 361.184447 
L 249.190909 360.433635 
L 249.613636 357.484576 
L 250.036364 357.463249 
L 250.459091 359.573915 
L 250.881818 357.73945 
L 251.304545 358.03593 
L 251.727273 358.765765 
L 252.15 358.576794 
L 252.572727 360.41056 
L 253.418182 359.697332 
L 253.840909 359.680375 
L 254.263636 362.368966 
L 255.109091 364.252203 
L 255.531818 362.402005 
L 256.377273 363.957297 
L 256.8 361.397192 
L 257.222727 361.09442 
L 257.645455 359.111366 
L 258.068182 359.261703 
L 258.490909 358.37751 
L 258.913636 356.747749 
L 259.336364 358.124908 
L 259.759091 357.849931 
L 260.181818 356.824141 
L 260.604545 360.837098 
L 261.027273 362.425779 
L 261.45 362.848472 
L 261.872727 361.869007 
L 262.295455 341.037325 
L 262.718182 360.811751 
L 263.140909 359.475147 
L 263.563636 361.419393 
L 263.986364 361.339505 
L 264.409091 353.043333 
L 265.254545 366.024085 
L 265.677273 364.200633 
L 266.1 364.424042 
L 266.522727 364.974521 
L 266.945455 365.898746 
L 267.368182 368.579819 
L 267.790909 365.223976 
L 268.213636 363.390735 
L 268.636364 360.121772 
L 269.059091 359.91637 
L 269.481818 360.754588 
L 269.904545 359.704324 
L 270.327273 358.187316 
L 270.75 360.282074 
L 271.172727 363.191101 
L 271.595455 362.935178 
L 272.018182 362.318795 
L 272.440909 360.386261 
L 272.863636 361.389326 
L 273.286364 360.877305 
L 273.709091 361.325345 
L 274.131818 357.543313 
L 274.554545 360.895135 
L 274.977273 363.2383 
L 275.4 361.418169 
L 275.822727 355.909706 
L 276.245455 361.777231 
L 276.668182 362.127027 
L 277.090909 362.287154 
L 277.513636 363.235153 
L 277.936364 363.419229 
L 278.359091 364.275452 
L 278.781818 362.217754 
L 279.204545 360.906149 
L 279.627273 358.131901 
L 280.05 360.381017 
L 280.895455 358.603191 
L 281.740909 361.901172 
L 282.163636 361.795411 
L 283.009091 358.410025 
L 283.854545 358.18347 
L 284.277273 359.534233 
L 284.7 357.35644 
L 285.122727 360.119849 
L 285.545455 360.338538 
L 285.968182 360.802136 
L 286.390909 363.369233 
L 286.813636 363.552959 
L 287.236364 364.173363 
L 287.659091 365.297571 
L 288.081818 362.396935 
L 288.504545 361.68091 
L 288.927273 362.503045 
L 289.35 363.68634 
L 289.772727 362.9149 
L 290.195455 362.384349 
L 290.618182 360.154112 
L 291.040909 359.565699 
L 291.463636 360.509503 
L 291.886364 361.125536 
L 292.309091 360.609844 
L 292.731818 357.995024 
L 293.154545 357.609741 
L 293.577273 356.120702 
L 294 355.240355 
L 294.422727 356.1922 
L 294.845455 358.127181 
L 295.268182 359.330404 
L 295.690909 360.873284 
L 296.113636 359.73614 
L 296.536364 361.956762 
L 296.959091 363.005277 
L 297.381818 365.940525 
L 297.804545 367.35894 
L 298.65 361.423239 
L 299.072727 361.093546 
L 299.495455 358.24308 
L 299.918182 362.858261 
L 300.340909 364.288738 
L 300.763636 360.616837 
L 301.186364 360.039961 
L 301.609091 360.606348 
L 302.031818 357.513595 
L 302.454545 357.755358 
L 302.877273 357.617258 
L 303.3 356.741106 
L 303.722727 357.14894 
L 304.145455 356.207933 
L 304.568182 357.068701 
L 304.990909 359.448051 
L 305.413636 361.085679 
L 305.836364 361.248428 
L 306.259091 360.395002 
L 306.681818 360.75214 
L 307.104545 363.359269 
L 307.527273 363.557679 
L 307.95 364.456207 
L 308.372727 362.492906 
L 308.795455 361.465194 
L 309.218182 358.911207 
L 309.640909 325.769697 
L 310.063636 357.603622 
L 310.486364 357.022027 
L 310.909091 355.000165 
L 311.331818 356.865921 
L 311.754545 358.140292 
L 312.177273 353.222164 
L 312.6 355.875617 
L 313.022727 349.488729 
L 313.868182 343.075794 
L 314.290909 342.352777 
L 314.713636 341.077532 
L 315.136364 346.026601 
L 315.559091 347.127035 
L 315.981818 345.532585 
L 316.404545 344.736322 
L 316.827273 346.672527 
L 317.25 345.560905 
L 317.672727 345.831687 
L 318.095455 344.848551 
L 318.518182 334.174427 
L 318.940909 330.219682 
L 319.363636 328.37805 
L 319.786364 320.743362 
L 320.209091 353.105216 
L 320.631818 358.00324 
L 321.054545 355.875443 
L 321.477273 359.015395 
L 321.9 358.120538 
L 322.322727 358.078758 
L 322.745455 355.074285 
L 323.168182 355.870548 
L 323.590909 355.193331 
L 324.013636 355.163438 
L 324.859091 343.690953 
L 325.281818 348.253341 
L 325.704545 351.256941 
L 326.127273 351.64607 
L 326.55 350.729012 
L 326.972727 349.300633 
L 327.395455 351.130028 
L 327.818182 347.684157 
L 328.240909 339.584997 
L 328.663636 335.703322 
L 329.086364 333.733379 
L 329.509091 332.664411 
L 329.931818 333.69999 
L 330.354545 337.209493 
L 330.777273 338.88925 
L 331.2 342.41431 
L 331.622727 337.657008 
L 332.045455 343.317383 
L 332.468182 346.413282 
L 332.890909 344.99242 
L 333.313636 347.117595 
L 333.736364 347.480677 
L 334.159091 346.132536 
L 334.581818 345.365466 
L 335.004545 346.423072 
L 335.427273 351.505522 
L 335.85 359.173773 
L 336.695455 361.739647 
L 337.118182 363.061391 
L 337.540909 362.625063 
L 337.963636 364.1849 
L 338.386364 364.993925 
L 338.809091 365.523427 
L 339.231818 362.141711 
L 339.654545 360.715255 
L 340.077273 359.960072 
L 340.5 361.563437 
L 340.922727 360.268089 
L 341.345455 358.124384 
L 341.768182 361.845232 
L 342.190909 362.03665 
L 342.613636 359.815504 
L 343.036364 359.256634 
L 343.459091 357.933141 
L 343.881818 355.557287 
L 344.304545 355.592074 
L 344.727273 354.405983 
L 345.15 357.526006 
L 345.572727 353.957768 
L 345.995455 354.126286 
L 346.418182 352.535507 
L 346.840909 347.663005 
L 347.263636 352.108794 
L 347.686364 350.769568 
L 348.109091 353.162553 
L 348.531818 353.313765 
L 348.954545 354.697742 
L 349.377273 355.026561 
L 349.8 355.138091 
L 350.222727 354.320151 
L 350.645455 356.130142 
L 351.068182 354.90734 
L 351.490909 351.537687 
L 351.913636 352.379401 
L 352.336364 351.847277 
L 352.759091 349.764056 
L 353.181818 350.162975 
L 354.027273 344.695416 
L 354.45 344.222378 
L 354.872727 346.73004 
L 355.295455 347.944625 
L 355.718182 348.606634 
L 356.140909 350.322227 
L 356.563636 351.336305 
L 356.986364 351.415144 
L 357.409091 354.812593 
L 357.831818 350.965531 
L 358.677273 355.307133 
L 359.1 352.164908 
L 359.522727 356.424349 
L 359.945455 355.713917 
L 360.368182 352.898414 
L 360.790909 351.565657 
L 361.213636 354.815739 
L 361.636364 351.418816 
L 362.481818 350.199685 
L 362.904545 350.012637 
L 363.327273 347.978539 
L 363.75 347.653041 
L 364.172727 347.042252 
L 364.595455 346.902403 
L 365.018182 346.333743 
L 365.440909 346.84961 
L 365.863636 348.5222 
L 366.286364 349.662666 
L 366.709091 351.570551 
L 367.131818 352.257208 
L 367.554545 356.055148 
L 367.977273 356.950879 
L 368.4 357.459229 
L 368.822727 356.540423 
L 369.245455 354.396543 
L 369.668182 356.759985 
L 370.090909 353.793795 
L 370.513636 352.293044 
L 370.936364 353.688734 
L 371.359091 345.178419 
L 371.781818 329.592635 
L 372.204545 332.784681 
L 372.627273 338.14508 
L 373.05 338.00226 
L 373.895455 333.324322 
L 374.318182 335.203538 
L 375.163636 344.776179 
L 375.586364 346.009994 
L 376.009091 348.054406 
L 376.431818 351.466189 
L 377.277273 350.539167 
L 377.7 353.279327 
L 378.122727 351.019548 
L 378.545455 353.185279 
L 378.968182 354.096743 
L 379.390909 352.443906 
L 380.236364 345.520349 
L 380.659091 344.716918 
L 381.081818 348.685124 
L 381.504545 347.552 
L 381.927273 346.969356 
L 382.35 349.337518 
L 383.195455 334.88276 
L 383.618182 334.822276 
L 384.040909 331.846821 
L 384.463636 332.246788 
L 384.886364 333.45071 
L 385.309091 339.9521 
L 385.731818 343.430136 
L 386.154545 345.875215 
L 387 349.196271 
L 387.845455 352.479393 
L 388.268182 352.42695 
L 389.113636 349.89464 
L 389.536364 347.622274 
L 389.959091 346.895061 
L 390.381818 344.108227 
L 390.804545 344.232867 
L 391.227273 345.825044 
L 391.65 339.98444 
L 392.072727 325.37952 
L 392.495455 329.852229 
L 392.918182 332.659691 
L 393.763636 333.35404 
L 394.609091 329.634415 
L 395.454545 329.566938 
L 396.3 335.118405 
L 396.722727 338.711292 
L 397.145455 334.469682 
L 397.990909 331.887552 
L 398.413636 310.941369 
L 398.836364 315.826807 
L 399.259091 316.453854 
L 399.681818 308.29351 
L 400.104545 310.414664 
L 400.527273 307.242372 
L 400.95 307.197271 
L 401.372727 282.228167 
L 401.795455 300.897089 
L 402.218182 329.02415 
L 403.063636 331.742284 
L 403.486364 322.876578 
L 403.909091 320.136244 
L 404.331818 321.265172 
L 404.754545 320.161242 
L 405.177273 319.553949 
L 405.6 321.237202 
L 406.445455 327.028685 
L 406.868182 327.917773 
L 407.290909 325.65205 
L 407.713636 319.122166 
L 408.559091 328.728895 
L 408.981818 329.026248 
L 409.404545 334.680854 
L 409.827273 331.70435 
L 410.25 327.605386 
L 411.518182 320.707351 
L 411.940909 321.718107 
L 412.363636 300.526665 
L 413.209091 310.18741 
L 413.631818 310.86253 
L 414.054545 305.083983 
L 414.477273 306.430026 
L 414.9 318.271012 
L 415.745455 323.486318 
L 416.168182 323.55432 
L 416.590909 325.318511 
L 417.013636 328.030701 
L 417.436364 335.744228 
L 417.859091 331.581458 
L 418.281818 335.724824 
L 418.704545 336.599578 
L 419.127273 339.348128 
L 419.55 334.551494 
L 419.972727 336.183877 
L 420.395455 333.85295 
L 420.818182 313.353933 
L 421.240909 314.869893 
L 421.663636 303.252665 
L 422.086364 286.742482 
L 422.509091 292.179972 
L 422.931818 323.545404 
L 423.354545 321.717408 
L 423.777273 321.353801 
L 424.2 318.050925 
L 425.045455 314.321511 
L 425.468182 314.646834 
L 425.890909 310.613599 
L 426.313636 303.793704 
L 426.736364 299.810465 
L 427.581818 327.965147 
L 428.004545 328.261276 
L 428.427273 334.061324 
L 428.85 334.371788 
L 429.272727 338.674932 
L 429.695455 341.293073 
L 430.118182 340.955688 
L 430.540909 343.15376 
L 431.386364 335.713112 
L 431.809091 340.831048 
L 432.231818 341.62399 
L 432.654545 337.465241 
L 433.077273 338.826667 
L 434.345455 331.18219 
L 435.613636 326.681161 
L 436.036364 326.402513 
L 436.459091 326.846357 
L 437.304545 330.013755 
L 437.727273 334.191034 
L 438.15 332.874709 
L 438.572727 337.344097 
L 438.995455 338.763386 
L 439.418182 339.536225 
L 439.840909 342.223417 
L 440.263636 334.467934 
L 440.686364 331.803118 
L 441.109091 333.273802 
L 441.531818 338.241051 
L 441.954545 341.657904 
L 442.377273 336.798512 
L 442.8 320.409648 
L 443.222727 323.272874 
L 443.645455 328.786408 
L 444.068182 330.522454 
L 444.490909 328.57681 
L 444.913636 325.579853 
L 445.336364 328.611947 
L 445.759091 327.981404 
L 446.181818 326.46055 
L 446.604545 328.318439 
L 447.872727 332.099947 
L 448.295455 332.705841 
L 448.718182 336.260095 
L 449.140909 336.299777 
L 449.563636 337.709277 
L 449.986364 340.088802 
L 450.409091 340.070621 
L 450.831818 339.674325 
L 451.254545 337.23484 
L 451.677273 337.170685 
L 452.1 337.701235 
L 452.522727 339.947554 
L 452.945455 337.070693 
L 453.368182 336.579474 
L 454.213636 334.050661 
L 455.059091 326.269307 
L 455.481818 326.858244 
L 455.904545 324.952107 
L 456.327273 325.660441 
L 456.75 323.887334 
L 457.595455 332.061489 
L 458.018182 332.311992 
L 458.440909 330.052038 
L 458.863636 334.381053 
L 459.709091 336.826307 
L 460.131818 339.502311 
L 460.554545 341.234512 
L 460.977273 341.901765 
L 461.4 336.58367 
L 461.822727 337.404931 
L 462.245455 339.882874 
L 462.668182 338.342616 
L 463.090909 337.405281 
L 463.513636 339.616113 
L 463.936364 338.513581 
L 464.359091 336.17234 
L 464.781818 332.969106 
L 465.204545 323.787692 
L 465.627273 321.089487 
L 466.05 321.284751 
L 466.472727 325.327601 
L 467.318182 330.720864 
L 467.740909 324.174723 
L 468.163636 322.662085 
L 468.586364 313.58346 
L 469.009091 311.519469 
L 469.431818 302.400462 
L 471.122727 315.273881 
L 471.545455 315.338561 
L 471.968182 312.678814 
L 472.390909 311.658618 
L 473.236364 314.046884 
L 473.659091 314.381996 
L 474.081818 313.718589 
L 474.504545 309.589732 
L 474.927273 307.097279 
L 475.35 302.366549 
L 475.772727 303.005307 
L 476.618182 300.126698 
L 477.040909 300.334373 
L 477.463636 307.180664 
L 477.886364 311.966285 
L 478.309091 310.53878 
L 478.731818 309.75283 
L 479.154545 311.844966 
L 479.577273 311.874859 
L 480 313.934655 
L 480.422727 314.282703 
L 480.845455 314.926881 
L 481.268182 318.608572 
L 482.113636 315.872608 
L 482.536364 313.583635 
L 482.959091 314.27676 
L 483.381818 314.551388 
L 484.227273 313.902665 
L 485.495455 303.799473 
L 485.918182 303.3128 
L 486.340909 302.217959 
L 486.763636 300.100476 
L 487.609091 306.294198 
L 488.031818 307.28625 
L 488.454545 307.515602 
L 488.877273 307.369809 
L 489.3 308.874056 
L 489.722727 309.137322 
L 490.568182 314.586 
L 490.990909 315.204131 
L 491.413636 312.706259 
L 491.836364 309.3422 
L 492.259091 309.257941 
L 493.104545 313.77278 
L 493.527273 314.597013 
L 494.372727 311.49989 
L 494.795455 306.805695 
L 495.218182 305.161599 
L 495.640909 298.687655 
L 496.063636 301.125567 
L 496.909091 299.745785 
L 497.331818 296.46511 
L 498.177273 305.305293 
L 498.6 305.32662 
L 499.022727 303.889151 
L 499.445455 309.565958 
L 499.868182 312.980712 
L 500.290909 313.093465 
L 500.713636 313.743587 
L 501.136364 316.124335 
L 501.559091 316.195483 
L 502.827273 313.50532 
L 503.25 313.085948 
L 503.672727 309.12963 
L 504.518182 310.73282 
L 504.940909 308.765149 
L 505.363636 308.857449 
L 505.786364 304.083016 
L 506.209091 300.844296 
L 507.054545 299.036053 
L 507.477273 296.692364 
L 507.9 296.310927 
L 508.322727 301.0712 
L 508.745455 302.955486 
L 509.168182 303.508937 
L 509.590909 310.724953 
L 510.013636 312.63616 
L 510.859091 319.370048 
L 511.281818 320.932682 
L 511.704545 320.019645 
L 512.127273 317.151699 
L 512.55 319.188944 
L 512.972727 319.359035 
L 513.395455 317.975232 
L 513.818182 314.910624 
L 514.240909 315.231751 
L 514.663636 313.529094 
L 515.931818 303.599315 
L 516.354545 302.406231 
L 516.777273 300.362517 
L 517.2 299.419937 
L 517.622727 294.022304 
L 518.045455 302.574049 
L 518.468182 304.806908 
L 518.890909 305.088353 
L 519.313636 296.265127 
L 519.736364 281.520008 
L 520.159091 279.989365 
L 521.004545 289.685772 
L 521.427273 292.208467 
L 521.85 295.789117 
L 522.272727 296.028957 
L 522.695455 295.586161 
L 523.118182 297.381643 
L 523.963636 289.313774 
L 524.386364 289.438764 
L 524.809091 287.971751 
L 525.654545 276.517622 
L 526.922727 266.985712 
L 527.345455 270.081262 
L 527.768182 268.685572 
L 528.190909 273.056717 
L 528.613636 272.96127 
L 529.036364 274.276547 
L 529.459091 271.582887 
L 529.881818 278.686674 
L 530.304545 278.042322 
L 530.727273 280.696649 
L 531.15 285.289629 
L 531.572727 286.862926 
L 531.995455 285.738368 
L 532.418182 288.045522 
L 532.840909 288.784447 
L 533.263636 288.322247 
L 533.686364 286.906804 
L 534.109091 279.629954 
L 534.531818 281.553397 
L 534.954545 281.862113 
L 535.377273 273.808578 
L 535.8 271.651238 
L 536.222727 265.672183 
L 536.645455 264.283311 
L 537.068182 262.389935 
L 537.490909 262.951428 
L 537.913636 117.064278 
L 538.336364 72.646246 
L 538.759091 66.96 
L 539.181818 266.284895 
L 539.604545 272.064141 
L 540.027273 271.368569 
L 540.45 268.780495 
L 541.295455 271.031359 
L 541.718182 276.251735 
L 542.140909 279.936922 
L 542.563636 278.87984 
L 542.986364 280.24284 
L 543.831818 284.767819 
L 544.254545 282.163837 
L 544.677273 282.279037 
L 545.1 278.61675 
L 545.522727 277.306893 
L 545.945455 270.809349 
L 546.368182 266.466524 
L 546.790909 264.070567 
L 547.213636 260.557743 
L 547.636364 260.388002 
L 548.059091 260.475932 
L 548.481818 263.079739 
L 548.904545 266.571061 
L 549.327273 263.789121 
L 549.75 265.340218 
L 550.172727 271.841782 
L 550.595455 273.3032 
L 551.018182 276.615341 
L 551.440909 278.850472 
L 552.286364 284.919904 
L 552.709091 285.701658 
L 553.131818 285.070766 
L 553.554545 289.07306 
L 554.4 285.100658 
L 554.822727 284.197586 
L 555.245455 282.651734 
L 555.668182 273.241317 
L 556.513636 264.07249 
L 556.936364 264.654085 
L 557.359091 263.963233 
L 557.781818 264.08158 
L 558.204545 265.378851 
L 558.627273 268.102404 
L 559.05 269.178364 
L 559.472727 267.912209 
L 559.895455 265.326582 
L 560.318182 270.553601 
L 560.740909 271.34462 
L 561.163636 274.898524 
L 561.586364 279.723652 
L 562.431818 283.902155 
L 562.854545 287.412532 
L 563.277273 288.979711 
L 563.7 285.031958 
L 564.122727 283.804087 
L 564.545455 282.977057 
L 564.968182 280.323428 
L 566.659091 260.987953 
L 567.081818 261.203844 
L 567.504545 261.248945 
L 568.35 261.855189 
L 568.772727 265.8879 
L 569.618182 270.342779 
L 570.040909 263.955192 
L 570.463636 270.760927 
L 571.731818 282.18394 
L 572.154545 279.745504 
L 573 289.470579 
L 573.422727 285.271798 
L 573.845455 286.553162 
L 574.268182 288.640927 
L 574.690909 287.091754 
L 575.113636 286.045161 
L 575.959091 273.062311 
L 576.381818 270.048747 
L 576.804545 261.452949 
L 577.227273 258.709294 
L 577.65 259.350325 
L 578.072727 257.911807 
L 578.495455 258.74041 
L 579.340909 266.237696 
L 579.763636 270.863016 
L 580.186364 273.139228 
L 580.609091 280.708711 
L 581.031818 282.617121 
L 581.454545 283.194172 
L 581.877273 283.57928 
L 582.3 287.402567 
L 582.722727 287.59888 
L 583.145455 286.369435 
L 583.990909 296.161639 
L 584.836364 285.120762 
L 585.259091 281.915955 
L 585.681818 275.331705 
L 586.95 251.566174 
L 587.372727 248.971631 
L 587.795455 251.252388 
L 588.218182 256.489895 
L 588.640909 265.44895 
L 589.063636 266.626476 
L 589.486364 266.466524 
L 589.909091 268.205542 
L 590.331818 275.731847 
L 590.754545 277.750038 
L 591.177273 277.004994 
L 591.6 284.611887 
L 592.022727 286.353178 
L 592.445455 290.838299 
L 592.868182 288.670295 
L 593.290909 291.653967 
L 593.713636 297.42657 
L 594.136364 296.059724 
L 594.559091 290.076299 
L 594.981818 287.961263 
L 595.404545 283.775767 
L 596.25 269.468026 
L 596.672727 263.278324 
L 597.095455 260.030164 
L 597.518182 260.85195 
L 597.940909 263.142671 
L 598.363636 264.082454 
L 598.786364 259.114155 
L 599.209091 271.252145 
L 599.631818 269.647207 
L 600.054545 268.972087 
L 600.9 278.430052 
L 601.322727 280.212074 
L 601.745455 284.103363 
L 602.168182 285.706378 
L 602.590909 288.72169 
L 603.013636 293.254884 
L 603.436364 294.041708 
L 603.859091 295.288284 
L 604.704545 288.816612 
L 605.127273 287.690131 
L 605.972727 281.063577 
L 606.818182 270.158004 
L 607.240909 268.646764 
L 608.086364 266.521414 
L 608.509091 267.715023 
L 608.931818 275.198674 
L 609.354545 276.33949 
L 610.2 274.972119 
L 610.622727 279.331377 
L 611.045455 279.349382 
L 611.468182 281.046446 
L 611.890909 286.312447 
L 612.313636 288.132752 
L 612.736364 289.351883 
L 613.159091 287.513747 
L 613.581818 287.537172 
L 614.004545 290.197093 
L 614.85 285.975412 
L 615.272727 283.264096 
L 615.695455 281.59203 
L 616.118182 275.91435 
L 616.963636 262.149221 
L 617.386364 258.856309 
L 617.809091 258.170701 
L 618.654545 261.256462 
L 619.5 267.862563 
L 619.922727 269.229059 
L 620.345455 274.67599 
L 620.768182 278.175702 
L 621.190909 277.680289 
L 621.613636 280.243365 
L 622.036364 281.502178 
L 622.459091 281.603568 
L 622.881818 286.776919 
L 623.304545 287.099795 
L 624.15 288.16247 
L 624.572727 285.16359 
L 624.995455 280.388458 
L 625.418182 280.429189 
L 625.840909 279.565099 
L 627.109091 263.313111 
L 627.531818 264.313029 
L 627.954545 263.608192 
L 628.377273 264.572449 
L 628.8 264.22912 
L 629.222727 267.060881 
L 629.645455 268.426328 
L 630.068182 267.838614 
L 630.490909 269.253533 
L 630.913636 272.357124 
L 631.336364 271.894575 
L 631.759091 280.277103 
L 632.181818 284.173462 
L 632.604545 281.730306 
L 633.027273 287.231777 
L 633.45 285.366546 
L 633.872727 279.062343 
L 634.295455 282.712393 
L 635.140909 280.395101 
L 635.563636 275.384498 
L 635.986364 267.162096 
L 636.409091 263.922852 
L 636.831818 258.465782 
L 637.254545 241.243245 
L 637.677273 242.466047 
L 639.368182 260.728184 
L 639.790909 264.385226 
L 640.213636 269.088861 
L 640.636364 265.719557 
L 641.481818 276.184957 
L 641.904545 277.322975 
L 642.327273 282.773052 
L 642.75 284.883718 
L 643.172727 287.738029 
L 643.595455 287.902177 
L 644.018182 288.316478 
L 644.440909 289.537008 
L 644.863636 283.653749 
L 645.286364 288.848777 
L 645.709091 284.574653 
L 646.131818 282.106848 
L 646.554545 278.33006 
L 646.977273 270.48962 
L 647.4 264.910358 
L 647.822727 262.487655 
L 648.245455 258.437288 
L 648.668182 260.032262 
L 649.090909 263.812371 
L 649.513636 266.450966 
L 649.936364 265.520098 
L 650.359091 265.903633 
L 650.781818 274.32427 
L 651.204545 279.966115 
L 651.627273 281.645522 
L 652.05 284.347573 
L 652.472727 285.578941 
L 652.895455 291.753958 
L 653.318182 292.561235 
L 653.740909 289.192106 
L 654.163636 289.979104 
L 654.586364 288.594078 
L 656.277273 279.428397 
L 657.122727 268.946041 
L 657.545455 266.057991 
L 657.968182 259.616562 
L 658.390909 261.416414 
L 658.813636 260.810869 
L 659.236364 264.485742 
L 659.659091 269.998402 
L 660.081818 267.473959 
L 660.504545 267.370471 
L 660.927273 276.6066 
L 661.35 268.767734 
L 661.772727 329.906421 
L 662.195455 342.894865 
L 662.618182 347.42736 
L 663.040909 349.0073 
L 663.463636 344.292128 
L 663.886364 343.974322 
L 664.309091 346.217669 
L 664.731818 347.854073 
L 665.154545 348.35648 
L 665.577273 347.542735 
L 666.422727 346.573409 
L 666.845455 348.247048 
L 667.268182 346.145997 
L 667.690909 347.815964 
L 668.113636 344.580041 
L 668.536364 349.152918 
L 668.959091 348.539506 
L 669.804545 355.590501 
L 670.227273 354.816788 
L 670.65 355.171654 
L 671.072727 357.659912 
L 671.495455 357.787873 
L 671.918182 361.321499 
L 672.340909 358.850198 
L 672.763636 358.434848 
L 673.186364 359.836656 
L 673.609091 355.571796 
L 674.031818 354.905942 
L 674.454545 357.694524 
L 674.877273 361.987528 
L 675.3 361.013832 
L 675.722727 359.2881 
L 676.145455 359.917943 
L 676.568182 359.372184 
L 676.990909 360.603376 
L 677.413636 357.743122 
L 677.836364 361.186545 
L 678.259091 358.927814 
L 678.681818 357.879649 
L 679.104545 357.950622 
L 679.527273 357.455907 
L 679.95 360.837448 
L 680.372727 359.087417 
L 680.795455 358.013903 
L 681.218182 358.626615 
L 681.640909 342.075701 
L 682.486364 348.760467 
L 682.909091 346.938414 
L 683.331818 347.715099 
L 683.754545 342.913745 
L 684.177273 341.724506 
L 684.6 344.660105 
L 685.022727 350.713978 
L 685.445455 350.050571 
L 685.868182 352.372933 
L 686.290909 350.569759 
L 686.713636 347.520709 
L 687.559091 351.721937 
L 687.981818 352.583405 
L 688.404545 352.47712 
L 688.827273 349.647982 
L 689.25 349.940091 
L 689.672727 353.742751 
L 690.095455 356.358095 
L 690.518182 354.38588 
L 690.940909 353.827883 
L 691.363636 354.301271 
L 691.786364 355.795554 
L 692.209091 354.671521 
L 692.631818 354.877797 
L 693.054545 356.359319 
L 693.477273 357.078316 
L 693.9 355.642944 
L 694.322727 352.807163 
L 694.745455 356.978149 
L 695.168182 359.494202 
L 696.013636 355.729476 
L 696.436364 359.532485 
L 696.859091 358.666297 
L 697.281818 355.73035 
L 697.704545 354.926045 
L 698.127273 356.717681 
L 698.972727 353.670204 
L 699.395455 351.112722 
L 699.818182 352.904533 
L 700.240909 352.208786 
L 700.663636 350.886167 
L 701.931818 354.305641 
L 702.354545 354.844583 
L 702.777273 357.475137 
L 703.2 359.095458 
L 704.045455 348.990518 
L 704.468182 350.008092 
L 704.890909 349.597636 
L 705.313636 351.53926 
L 705.736364 348.671489 
L 706.159091 349.634696 
L 706.581818 353.717578 
L 707.004545 355.86443 
L 707.427273 355.759893 
L 707.85 357.318331 
L 708.272727 353.227408 
L 708.695455 352.402651 
L 709.118182 350.4626 
L 709.540909 346.969356 
L 709.963636 348.948564 
L 710.386364 349.859153 
L 710.809091 350.293034 
L 711.654545 353.506581 
L 712.077273 354.755954 
L 712.5 357.02832 
L 712.922727 355.960401 
L 713.345455 353.288242 
L 713.768182 354.534993 
L 714.190909 354.029091 
L 714.613636 352.032576 
L 715.036364 353.238072 
L 715.459091 353.576331 
L 715.881818 355.07376 
L 716.304545 355.563056 
L 716.727273 357.194216 
L 717.15 356.657896 
L 717.572727 357.270783 
L 717.995455 357.126039 
L 718.418182 357.759204 
L 718.840909 356.791801 
L 719.263636 355.47163 
L 719.686364 350.781455 
L 720.109091 350.89753 
L 720.531818 350.24129 
L 720.954545 349.268468 
L 721.8 355.572496 
L 722.222727 357.839442 
L 722.645455 358.177701 
L 723.068182 360.963312 
L 723.490909 360.224561 
L 723.913636 357.309765 
L 724.336364 355.611828 
L 724.759091 355.364645 
L 725.181818 354.839689 
L 725.604545 358.301642 
L 726.027273 359.753796 
L 726.45 359.73579 
L 726.872727 352.42625 
L 727.295455 356.144127 
L 727.718182 357.700642 
L 728.140909 355.276716 
L 728.563636 356.87169 
L 728.986364 354.189217 
L 729.409091 352.987568 
L 729.831818 352.714164 
L 730.254545 354.939506 
L 730.677273 358.208643 
L 731.1 357.023775 
L 731.522727 356.975178 
L 731.945455 357.485276 
L 732.368182 358.289231 
L 732.790909 358.705805 
L 733.213636 359.997832 
L 733.636364 347.879421 
L 734.059091 348.508565 
L 734.481818 345.224569 
L 734.904545 343.240291 
L 735.327273 343.875029 
L 735.75 349.043486 
L 736.595455 352.820449 
L 737.863636 357.447516 
L 738.286364 355.735419 
L 738.709091 358.149731 
L 739.131818 349.703222 
L 739.554545 350.149165 
L 739.977273 352.852264 
L 740.4 358.23906 
L 740.822727 361.867084 
L 741.245455 354.343401 
L 741.668182 354.698966 
L 742.513636 359.997832 
L 742.936364 362.258485 
L 743.359091 362.856513 
L 743.781818 358.912956 
L 744.627273 348.026611 
L 745.05 348.223274 
L 745.895455 357.682987 
L 746.318182 356.15951 
L 746.740909 357.699768 
L 746.740909 357.699768 
" style="fill:none;stroke:#1f77b4;stroke-linecap:square;stroke-width:1.5;"/>
   </g>
   <g id="line2d_18">
    <path clip-path="url(#p9425445f20)" d="M 747.163636 384.48 
L 747.163636 51.84 
" style="fill:none;stroke:#808080;stroke-linecap:square;"/>
   </g>
   <g id="patch_106">
    <path d="M 108 384.48 
L 108 51.84 
" style="fill:none;stroke:#000000;stroke-linecap:square;stroke-linejoin:miter;stroke-width:0.8;"/>
   </g>
   <g id="patch_107">
    <path d="M 777.6 384.48 
L 777.6 51.84 
" style="fill:none;stroke:#000000;stroke-linecap:square;stroke-linejoin:miter;stroke-width:0.8;"/>
   </g>
   <g id="patch_108">
    <path d="M 108 384.48 
L 777.6 384.48 
" style="fill:none;stroke:#000000;stroke-linecap:square;stroke-linejoin:miter;stroke-width:0.8;"/>
   </g>
   <g id="patch_109">
    <path d="M 108 51.84 
L 777.6 51.84 
" style="fill:none;stroke:#000000;stroke-linecap:square;stroke-linejoin:miter;stroke-width:0.8;"/>
   </g>
   <g id="text_19">
    <!-- real_43.csv -->
    <defs>
     <path d="M 41.109375 46.296875 
Q 39.59375 47.171875 37.8125 47.578125 
Q 36.03125 48 33.890625 48 
Q 26.265625 48 22.1875 43.046875 
Q 18.109375 38.09375 18.109375 28.8125 
L 18.109375 0 
L 9.078125 0 
L 9.078125 54.6875 
L 18.109375 54.6875 
L 18.109375 46.1875 
Q 20.953125 51.171875 25.484375 53.578125 
Q 30.03125 56 36.53125 56 
Q 37.453125 56 38.578125 55.875 
Q 39.703125 55.765625 41.0625 55.515625 
z
" id="DejaVuSans-114"/>
     <path d="M 50.984375 -16.609375 
L 50.984375 -23.578125 
L -0.984375 -23.578125 
L -0.984375 -16.609375 
z
" id="DejaVuSans-95"/>
     <path d="M 48.78125 52.59375 
L 48.78125 44.1875 
Q 44.96875 46.296875 41.140625 47.34375 
Q 37.3125 48.390625 33.40625 48.390625 
Q 24.65625 48.390625 19.8125 42.84375 
Q 14.984375 37.3125 14.984375 27.296875 
Q 14.984375 17.28125 19.8125 11.734375 
Q 24.65625 6.203125 33.40625 6.203125 
Q 37.3125 6.203125 41.140625 7.25 
Q 44.96875 8.296875 48.78125 10.40625 
L 48.78125 2.09375 
Q 45.015625 0.34375 40.984375 -0.53125 
Q 36.96875 -1.421875 32.421875 -1.421875 
Q 20.0625 -1.421875 12.78125 6.34375 
Q 5.515625 14.109375 5.515625 27.296875 
Q 5.515625 40.671875 12.859375 48.328125 
Q 20.21875 56 33.015625 56 
Q 37.15625 56 41.109375 55.140625 
Q 45.0625 54.296875 48.78125 52.59375 
z
" id="DejaVuSans-99"/>
     <path d="M 2.984375 54.6875 
L 12.5 54.6875 
L 29.59375 8.796875 
L 46.6875 54.6875 
L 56.203125 54.6875 
L 35.6875 0 
L 23.484375 0 
z
" id="DejaVuSans-118"/>
    </defs>
    <g transform="translate(408.781875 45.84)scale(0.12 -0.12)">
     <use xlink:href="#DejaVuSans-114"/>
     <use x="41.082031" xlink:href="#DejaVuSans-101"/>
     <use x="102.605469" xlink:href="#DejaVuSans-97"/>
     <use x="163.884766" xlink:href="#DejaVuSans-108"/>
     <use x="191.667969" xlink:href="#DejaVuSans-95"/>
     <use x="241.667969" xlink:href="#DejaVuSans-52"/>
     <use x="305.291016" xlink:href="#DejaVuSans-51"/>
     <use x="368.914062" xlink:href="#DejaVuSans-46"/>
     <use x="400.701172" xlink:href="#DejaVuSans-99"/>
     <use x="455.681641" xlink:href="#DejaVuSans-115"/>
     <use x="507.78125" xlink:href="#DejaVuSans-118"/>
    </g>
   </g>
   <g id="legend_1">
    <g id="patch_110">
     <path d="M 711.284375 74.518125 
L 770.6 74.518125 
Q 772.6 74.518125 772.6 72.518125 
L 772.6 58.84 
Q 772.6 56.84 770.6 56.84 
L 711.284375 56.84 
Q 709.284375 56.84 709.284375 58.84 
L 709.284375 72.518125 
Q 709.284375 74.518125 711.284375 74.518125 
z
" style="fill:#ffffff;opacity:0.8;stroke:#cccccc;stroke-linejoin:miter;"/>
    </g>
    <g id="line2d_19">
     <path d="M 713.284375 64.938438 
L 733.284375 64.938438 
" style="fill:none;stroke:#1f77b4;stroke-linecap:square;stroke-width:1.5;"/>
    </g>
    <g id="line2d_20"/>
    <g id="text_20">
     <!-- value -->
     <g transform="translate(741.284375 68.438438)scale(0.1 -0.1)">
      <use xlink:href="#DejaVuSans-118"/>
      <use x="59.179688" xlink:href="#DejaVuSans-97"/>
      <use x="120.458984" xlink:href="#DejaVuSans-108"/>
      <use x="148.242188" xlink:href="#DejaVuSans-117"/>
      <use x="211.621094" xlink:href="#DejaVuSans-101"/>
     </g>
    </g>
   </g>
  </g>
 </g>
 <defs>
  <clipPath id="p9425445f20">
   <rect height="332.64" width="669.6" x="108" y="51.84"/>
  </clipPath>
 </defs>
</svg>
