<?xml version="1.0" encoding="utf-8" standalone="no"?>
<!DOCTYPE svg PUBLIC "-//W3C//DTD SVG 1.1//EN"
  "http://www.w3.org/Graphics/SVG/1.1/DTD/svg11.dtd">
<!-- Created with matplotlib (https://matplotlib.org/) -->
<svg height="432pt" version="1.1" viewBox="0 0 864 432" width="864pt" xmlns="http://www.w3.org/2000/svg" xmlns:xlink="http://www.w3.org/1999/xlink">
 <defs>
  <style type="text/css">
*{stroke-linecap:butt;stroke-linejoin:round;}
  </style>
 </defs>
 <g id="figure_1">
  <g id="patch_1">
   <path d="M 0 432 
L 864 432 
L 864 0 
L 0 0 
z
" style="fill:#ffffff;"/>
  </g>
  <g id="axes_1">
   <g id="patch_2">
    <path d="M 108 384.48 
L 777.6 384.48 
L 777.6 51.84 
L 108 51.84 
z
" style="fill:#ffffff;"/>
   </g>
   <g id="patch_3">
    <path clip-path="url(#pf6708680d0)" d="M 138.436364 384.48 
L 138.436364 51.84 
L 378.497823 51.84 
L 378.497823 384.48 
z
" style="fill:#0000ff;opacity:0.05;"/>
   </g>
   <g id="patch_4">
    <path clip-path="url(#pf6708680d0)" d="M 378.497823 384.48 
L 378.497823 51.84 
L 747.163636 51.84 
L 747.163636 384.48 
z
" style="fill:#ff0000;opacity:0.08;"/>
   </g>
   <g id="patch_5">
    <path clip-path="url(#pf6708680d0)" d="M 138.436364 384.48 
L 138.436364 51.84 
L 142.723175 51.84 
L 142.723175 384.48 
z
" style="fill:#008000;opacity:0.04;"/>
   </g>
   <g id="patch_6">
    <path clip-path="url(#pf6708680d0)" d="M 138.436364 384.48 
L 138.436364 371.1744 
L 142.723175 371.1744 
L 142.723175 384.48 
z
" style="fill:#ffe500;"/>
   </g>
   <g id="patch_7">
    <path clip-path="url(#pf6708680d0)" d="M 147.009987 384.48 
L 147.009987 51.84 
L 151.296799 51.84 
L 151.296799 384.48 
z
" style="fill:#008000;opacity:0.04;"/>
   </g>
   <g id="patch_8">
    <path clip-path="url(#pf6708680d0)" d="M 147.009987 384.48 
L 147.009987 371.1744 
L 151.296799 371.1744 
L 151.296799 384.48 
z
" style="fill:#ffe500;"/>
   </g>
   <g id="patch_9">
    <path clip-path="url(#pf6708680d0)" d="M 391.358259 384.48 
L 391.358259 371.1744 
L 395.64507 371.1744 
L 395.64507 384.48 
z
" style="fill:#ff6600;"/>
   </g>
   <g id="patch_10">
    <path clip-path="url(#pf6708680d0)" d="M 155.583611 384.48 
L 155.583611 51.84 
L 159.870423 51.84 
L 159.870423 384.48 
z
" style="fill:#008000;opacity:0.04;"/>
   </g>
   <g id="patch_11">
    <path clip-path="url(#pf6708680d0)" d="M 159.870423 384.48 
L 159.870423 371.1744 
L 164.157234 371.1744 
L 164.157234 384.48 
z
" style="fill:#ffe500;"/>
   </g>
   <g id="patch_12">
    <path clip-path="url(#pf6708680d0)" d="M 164.157234 384.48 
L 164.157234 51.84 
L 168.444046 51.84 
L 168.444046 384.48 
z
" style="fill:#008000;opacity:0.04;"/>
   </g>
   <g id="patch_13">
    <path clip-path="url(#pf6708680d0)" d="M 168.444046 384.48 
L 168.444046 371.1744 
L 172.730858 371.1744 
L 172.730858 384.48 
z
" style="fill:#ffe500;"/>
   </g>
   <g id="patch_14">
    <path clip-path="url(#pf6708680d0)" d="M 172.730858 384.48 
L 172.730858 51.84 
L 177.01767 51.84 
L 177.01767 384.48 
z
" style="fill:#008000;opacity:0.04;"/>
   </g>
   <g id="patch_15">
    <path clip-path="url(#pf6708680d0)" d="M 181.304481 384.48 
L 181.304481 51.84 
L 185.591293 51.84 
L 185.591293 384.48 
z
" style="fill:#008000;opacity:0.04;"/>
   </g>
   <g id="patch_16">
    <path clip-path="url(#pf6708680d0)" d="M 189.878105 384.48 
L 189.878105 51.84 
L 194.164917 51.84 
L 194.164917 384.48 
z
" style="fill:#008000;opacity:0.04;"/>
   </g>
   <g id="patch_17">
    <path clip-path="url(#pf6708680d0)" d="M 198.451729 384.48 
L 198.451729 51.84 
L 202.73854 51.84 
L 202.73854 384.48 
z
" style="fill:#008000;opacity:0.04;"/>
   </g>
   <g id="patch_18">
    <path clip-path="url(#pf6708680d0)" d="M 198.451729 384.48 
L 198.451729 371.1744 
L 202.73854 371.1744 
L 202.73854 384.48 
z
" style="fill:#ffe500;"/>
   </g>
   <g id="patch_19">
    <path clip-path="url(#pf6708680d0)" d="M 438.513188 384.48 
L 438.513188 371.1744 
L 442.8 371.1744 
L 442.8 384.48 
z
" style="fill:#ff6600;"/>
   </g>
   <g id="patch_20">
    <path clip-path="url(#pf6708680d0)" d="M 207.025352 384.48 
L 207.025352 51.84 
L 211.312164 51.84 
L 211.312164 384.48 
z
" style="fill:#008000;opacity:0.04;"/>
   </g>
   <g id="patch_21">
    <path clip-path="url(#pf6708680d0)" d="M 215.598976 384.48 
L 215.598976 51.84 
L 219.885787 51.84 
L 219.885787 384.48 
z
" style="fill:#008000;opacity:0.04;"/>
   </g>
   <g id="patch_22">
    <path clip-path="url(#pf6708680d0)" d="M 215.598976 384.48 
L 215.598976 371.1744 
L 219.885787 371.1744 
L 219.885787 384.48 
z
" style="fill:#ffe500;"/>
   </g>
   <g id="patch_23">
    <path clip-path="url(#pf6708680d0)" d="M 224.172599 384.48 
L 224.172599 51.84 
L 228.459411 51.84 
L 228.459411 384.48 
z
" style="fill:#008000;opacity:0.04;"/>
   </g>
   <g id="patch_24">
    <path clip-path="url(#pf6708680d0)" d="M 232.746223 384.48 
L 232.746223 51.84 
L 237.033035 51.84 
L 237.033035 384.48 
z
" style="fill:#008000;opacity:0.04;"/>
   </g>
   <g id="patch_25">
    <path clip-path="url(#pf6708680d0)" d="M 232.746223 384.48 
L 232.746223 371.1744 
L 237.033035 371.1744 
L 237.033035 384.48 
z
" style="fill:#ffe500;"/>
   </g>
   <g id="patch_26">
    <path clip-path="url(#pf6708680d0)" d="M 241.319846 384.48 
L 241.319846 51.84 
L 245.606658 51.84 
L 245.606658 384.48 
z
" style="fill:#008000;opacity:0.04;"/>
   </g>
   <g id="patch_27">
    <path clip-path="url(#pf6708680d0)" d="M 245.606658 384.48 
L 245.606658 371.1744 
L 249.89347 371.1744 
L 249.89347 384.48 
z
" style="fill:#ffe500;"/>
   </g>
   <g id="patch_28">
    <path clip-path="url(#pf6708680d0)" d="M 249.89347 384.48 
L 249.89347 51.84 
L 254.180282 51.84 
L 254.180282 384.48 
z
" style="fill:#008000;opacity:0.04;"/>
   </g>
   <g id="patch_29">
    <path clip-path="url(#pf6708680d0)" d="M 258.467093 384.48 
L 258.467093 51.84 
L 262.753905 51.84 
L 262.753905 384.48 
z
" style="fill:#008000;opacity:0.04;"/>
   </g>
   <g id="patch_30">
    <path clip-path="url(#pf6708680d0)" d="M 267.040717 384.48 
L 267.040717 51.84 
L 271.327529 51.84 
L 271.327529 384.48 
z
" style="fill:#008000;opacity:0.04;"/>
   </g>
   <g id="patch_31">
    <path clip-path="url(#pf6708680d0)" d="M 267.040717 384.48 
L 267.040717 371.1744 
L 271.327529 371.1744 
L 271.327529 384.48 
z
" style="fill:#ffe500;"/>
   </g>
   <g id="patch_32">
    <path clip-path="url(#pf6708680d0)" d="M 275.614341 384.48 
L 275.614341 51.84 
L 279.901152 51.84 
L 279.901152 384.48 
z
" style="fill:#008000;opacity:0.04;"/>
   </g>
   <g id="patch_33">
    <path clip-path="url(#pf6708680d0)" d="M 284.187964 384.48 
L 284.187964 51.84 
L 288.474776 51.84 
L 288.474776 384.48 
z
" style="fill:#008000;opacity:0.04;"/>
   </g>
   <g id="patch_34">
    <path clip-path="url(#pf6708680d0)" d="M 288.474776 384.48 
L 288.474776 371.1744 
L 292.761588 371.1744 
L 292.761588 384.48 
z
" style="fill:#ffe500;"/>
   </g>
   <g id="patch_35">
    <path clip-path="url(#pf6708680d0)" d="M 292.761588 384.48 
L 292.761588 51.84 
L 297.048399 51.84 
L 297.048399 384.48 
z
" style="fill:#008000;opacity:0.04;"/>
   </g>
   <g id="patch_36">
    <path clip-path="url(#pf6708680d0)" d="M 301.335211 384.48 
L 301.335211 51.84 
L 305.622023 51.84 
L 305.622023 384.48 
z
" style="fill:#008000;opacity:0.04;"/>
   </g>
   <g id="patch_37">
    <path clip-path="url(#pf6708680d0)" d="M 309.908835 384.48 
L 309.908835 51.84 
L 314.195647 51.84 
L 314.195647 384.48 
z
" style="fill:#008000;opacity:0.04;"/>
   </g>
   <g id="patch_38">
    <path clip-path="url(#pf6708680d0)" d="M 314.195647 384.48 
L 314.195647 371.1744 
L 318.482458 371.1744 
L 318.482458 384.48 
z
" style="fill:#ffe500;"/>
   </g>
   <g id="patch_39">
    <path clip-path="url(#pf6708680d0)" d="M 318.482458 384.48 
L 318.482458 51.84 
L 322.76927 51.84 
L 322.76927 384.48 
z
" style="fill:#008000;opacity:0.04;"/>
   </g>
   <g id="patch_40">
    <path clip-path="url(#pf6708680d0)" d="M 322.76927 384.48 
L 322.76927 371.1744 
L 327.056082 371.1744 
L 327.056082 384.48 
z
" style="fill:#ffe500;"/>
   </g>
   <g id="patch_41">
    <path clip-path="url(#pf6708680d0)" d="M 327.056082 384.48 
L 327.056082 51.84 
L 331.342894 51.84 
L 331.342894 384.48 
z
" style="fill:#008000;opacity:0.04;"/>
   </g>
   <g id="patch_42">
    <path clip-path="url(#pf6708680d0)" d="M 331.342894 384.48 
L 331.342894 371.1744 
L 335.629706 371.1744 
L 335.629706 384.48 
z
" style="fill:#ffe500;"/>
   </g>
   <g id="patch_43">
    <path clip-path="url(#pf6708680d0)" d="M 335.629706 384.48 
L 335.629706 51.84 
L 339.916517 51.84 
L 339.916517 384.48 
z
" style="fill:#008000;opacity:0.04;"/>
   </g>
   <g id="patch_44">
    <path clip-path="url(#pf6708680d0)" d="M 344.203329 384.48 
L 344.203329 51.84 
L 348.490141 51.84 
L 348.490141 384.48 
z
" style="fill:#008000;opacity:0.04;"/>
   </g>
   <g id="patch_45">
    <path clip-path="url(#pf6708680d0)" d="M 352.776953 384.48 
L 352.776953 51.84 
L 357.063764 51.84 
L 357.063764 384.48 
z
" style="fill:#008000;opacity:0.04;"/>
   </g>
   <g id="patch_46">
    <path clip-path="url(#pf6708680d0)" d="M 361.350576 384.48 
L 361.350576 51.84 
L 365.637388 51.84 
L 365.637388 384.48 
z
" style="fill:#008000;opacity:0.04;"/>
   </g>
   <g id="patch_47">
    <path clip-path="url(#pf6708680d0)" d="M 361.350576 384.48 
L 361.350576 371.1744 
L 365.637388 371.1744 
L 365.637388 384.48 
z
" style="fill:#ffe500;"/>
   </g>
   <g id="patch_48">
    <path clip-path="url(#pf6708680d0)" d="M 369.9242 384.48 
L 369.9242 51.84 
L 374.211012 51.84 
L 374.211012 384.48 
z
" style="fill:#008000;opacity:0.04;"/>
   </g>
   <g id="patch_49">
    <path clip-path="url(#pf6708680d0)" d="M 378.497823 384.48 
L 378.497823 51.84 
L 382.784635 51.84 
L 382.784635 384.48 
z
" style="fill:#008000;opacity:0.04;"/>
   </g>
   <g id="patch_50">
    <path clip-path="url(#pf6708680d0)" d="M 387.071447 384.48 
L 387.071447 51.84 
L 391.358259 51.84 
L 391.358259 384.48 
z
" style="fill:#008000;opacity:0.04;"/>
   </g>
   <g id="patch_51">
    <path clip-path="url(#pf6708680d0)" d="M 395.64507 384.48 
L 395.64507 51.84 
L 399.931882 51.84 
L 399.931882 384.48 
z
" style="fill:#008000;opacity:0.04;"/>
   </g>
   <g id="patch_52">
    <path clip-path="url(#pf6708680d0)" d="M 639.993342 384.48 
L 639.993342 371.1744 
L 644.280154 371.1744 
L 644.280154 384.48 
z
" style="fill:#ff6600;"/>
   </g>
   <g id="patch_53">
    <path clip-path="url(#pf6708680d0)" d="M 404.218694 384.48 
L 404.218694 51.84 
L 408.505506 51.84 
L 408.505506 384.48 
z
" style="fill:#008000;opacity:0.04;"/>
   </g>
   <g id="patch_54">
    <path clip-path="url(#pf6708680d0)" d="M 644.280154 384.48 
L 644.280154 371.1744 
L 648.566965 371.1744 
L 648.566965 384.48 
z
" style="fill:#ff6600;"/>
   </g>
   <g id="patch_55">
    <path clip-path="url(#pf6708680d0)" d="M 412.792318 384.48 
L 412.792318 51.84 
L 417.079129 51.84 
L 417.079129 384.48 
z
" style="fill:#008000;opacity:0.04;"/>
   </g>
   <g id="patch_56">
    <path clip-path="url(#pf6708680d0)" d="M 652.853777 384.48 
L 652.853777 371.1744 
L 657.140589 371.1744 
L 657.140589 384.48 
z
" style="fill:#ff6600;"/>
   </g>
   <g id="patch_57">
    <path clip-path="url(#pf6708680d0)" d="M 657.140589 384.48 
L 657.140589 371.1744 
L 661.427401 371.1744 
L 661.427401 384.48 
z
" style="fill:#ff6600;"/>
   </g>
   <g id="patch_58">
    <path clip-path="url(#pf6708680d0)" d="M 421.365941 384.48 
L 421.365941 51.84 
L 425.652753 51.84 
L 425.652753 384.48 
z
" style="fill:#008000;opacity:0.04;"/>
   </g>
   <g id="patch_59">
    <path clip-path="url(#pf6708680d0)" d="M 665.714213 384.48 
L 665.714213 371.1744 
L 670.001024 371.1744 
L 670.001024 384.48 
z
" style="fill:#ff6600;"/>
   </g>
   <g id="patch_60">
    <path clip-path="url(#pf6708680d0)" d="M 429.939565 384.48 
L 429.939565 51.84 
L 434.226376 51.84 
L 434.226376 384.48 
z
" style="fill:#008000;opacity:0.04;"/>
   </g>
   <g id="patch_61">
    <path clip-path="url(#pf6708680d0)" d="M 670.001024 384.48 
L 670.001024 371.1744 
L 674.287836 371.1744 
L 674.287836 384.48 
z
" style="fill:#ff6600;"/>
   </g>
   <g id="patch_62">
    <path clip-path="url(#pf6708680d0)" d="M 438.513188 384.48 
L 438.513188 51.84 
L 442.8 51.84 
L 442.8 384.48 
z
" style="fill:#008000;opacity:0.04;"/>
   </g>
   <g id="patch_63">
    <path clip-path="url(#pf6708680d0)" d="M 447.086812 384.48 
L 447.086812 51.84 
L 451.373624 51.84 
L 451.373624 384.48 
z
" style="fill:#008000;opacity:0.04;"/>
   </g>
   <g id="patch_64">
    <path clip-path="url(#pf6708680d0)" d="M 691.435083 384.48 
L 691.435083 371.1744 
L 695.721895 371.1744 
L 695.721895 384.48 
z
" style="fill:#ff6600;"/>
   </g>
   <g id="patch_65">
    <path clip-path="url(#pf6708680d0)" d="M 455.660435 384.48 
L 455.660435 51.84 
L 459.947247 51.84 
L 459.947247 384.48 
z
" style="fill:#008000;opacity:0.04;"/>
   </g>
   <g id="patch_66">
    <path clip-path="url(#pf6708680d0)" d="M 700.008707 384.48 
L 700.008707 371.1744 
L 704.295519 371.1744 
L 704.295519 384.48 
z
" style="fill:#ff6600;"/>
   </g>
   <g id="patch_67">
    <path clip-path="url(#pf6708680d0)" d="M 464.234059 384.48 
L 464.234059 51.84 
L 468.520871 51.84 
L 468.520871 384.48 
z
" style="fill:#008000;opacity:0.04;"/>
   </g>
   <g id="patch_68">
    <path clip-path="url(#pf6708680d0)" d="M 704.295519 384.48 
L 704.295519 371.1744 
L 708.58233 371.1744 
L 708.58233 384.48 
z
" style="fill:#ff6600;"/>
   </g>
   <g id="patch_69">
    <path clip-path="url(#pf6708680d0)" d="M 472.807682 384.48 
L 472.807682 51.84 
L 477.094494 51.84 
L 477.094494 384.48 
z
" style="fill:#008000;opacity:0.04;"/>
   </g>
   <g id="patch_70">
    <path clip-path="url(#pf6708680d0)" d="M 481.381306 384.48 
L 481.381306 51.84 
L 485.668118 51.84 
L 485.668118 384.48 
z
" style="fill:#008000;opacity:0.04;"/>
   </g>
   <g id="patch_71">
    <path clip-path="url(#pf6708680d0)" d="M 489.95493 384.48 
L 489.95493 51.84 
L 494.241741 51.84 
L 494.241741 384.48 
z
" style="fill:#008000;opacity:0.04;"/>
   </g>
   <g id="patch_72">
    <path clip-path="url(#pf6708680d0)" d="M 730.016389 384.48 
L 730.016389 371.1744 
L 734.303201 371.1744 
L 734.303201 384.48 
z
" style="fill:#ff6600;"/>
   </g>
   <g id="patch_73">
    <path clip-path="url(#pf6708680d0)" d="M 498.528553 384.48 
L 498.528553 51.84 
L 502.815365 51.84 
L 502.815365 384.48 
z
" style="fill:#008000;opacity:0.04;"/>
   </g>
   <g id="patch_74">
    <path clip-path="url(#pf6708680d0)" d="M 738.590013 384.48 
L 738.590013 371.1744 
L 742.876825 371.1744 
L 742.876825 384.48 
z
" style="fill:#ff6600;"/>
   </g>
   <g id="patch_75">
    <path clip-path="url(#pf6708680d0)" d="M 507.102177 384.48 
L 507.102177 51.84 
L 511.388988 51.84 
L 511.388988 384.48 
z
" style="fill:#008000;opacity:0.04;"/>
   </g>
   <g id="patch_76">
    <path clip-path="url(#pf6708680d0)" d="M 515.6758 384.48 
L 515.6758 51.84 
L 519.962612 51.84 
L 519.962612 384.48 
z
" style="fill:#008000;opacity:0.04;"/>
   </g>
   <g id="patch_77">
    <path clip-path="url(#pf6708680d0)" d="M 524.249424 384.48 
L 524.249424 51.84 
L 528.536236 51.84 
L 528.536236 384.48 
z
" style="fill:#008000;opacity:0.04;"/>
   </g>
   <g id="patch_78">
    <path clip-path="url(#pf6708680d0)" d="M 532.823047 384.48 
L 532.823047 51.84 
L 537.109859 51.84 
L 537.109859 384.48 
z
" style="fill:#008000;opacity:0.04;"/>
   </g>
   <g id="patch_79">
    <path clip-path="url(#pf6708680d0)" d="M 541.396671 384.48 
L 541.396671 51.84 
L 545.683483 51.84 
L 545.683483 384.48 
z
" style="fill:#008000;opacity:0.04;"/>
   </g>
   <g id="patch_80">
    <path clip-path="url(#pf6708680d0)" d="M 549.970294 384.48 
L 549.970294 51.84 
L 554.257106 51.84 
L 554.257106 384.48 
z
" style="fill:#008000;opacity:0.04;"/>
   </g>
   <g id="patch_81">
    <path clip-path="url(#pf6708680d0)" d="M 558.543918 384.48 
L 558.543918 51.84 
L 562.83073 51.84 
L 562.83073 384.48 
z
" style="fill:#008000;opacity:0.04;"/>
   </g>
   <g id="patch_82">
    <path clip-path="url(#pf6708680d0)" d="M 567.117542 384.48 
L 567.117542 51.84 
L 571.404353 51.84 
L 571.404353 384.48 
z
" style="fill:#008000;opacity:0.04;"/>
   </g>
   <g id="patch_83">
    <path clip-path="url(#pf6708680d0)" d="M 575.691165 384.48 
L 575.691165 51.84 
L 579.977977 51.84 
L 579.977977 384.48 
z
" style="fill:#008000;opacity:0.04;"/>
   </g>
   <g id="patch_84">
    <path clip-path="url(#pf6708680d0)" d="M 584.264789 384.48 
L 584.264789 51.84 
L 588.551601 51.84 
L 588.551601 384.48 
z
" style="fill:#008000;opacity:0.04;"/>
   </g>
   <g id="patch_85">
    <path clip-path="url(#pf6708680d0)" d="M 592.838412 384.48 
L 592.838412 51.84 
L 597.125224 51.84 
L 597.125224 384.48 
z
" style="fill:#008000;opacity:0.04;"/>
   </g>
   <g id="patch_86">
    <path clip-path="url(#pf6708680d0)" d="M 601.412036 384.48 
L 601.412036 51.84 
L 605.698848 51.84 
L 605.698848 384.48 
z
" style="fill:#008000;opacity:0.04;"/>
   </g>
   <g id="patch_87">
    <path clip-path="url(#pf6708680d0)" d="M 609.985659 384.48 
L 609.985659 51.84 
L 614.272471 51.84 
L 614.272471 384.48 
z
" style="fill:#008000;opacity:0.04;"/>
   </g>
   <g id="patch_88">
    <path clip-path="url(#pf6708680d0)" d="M 618.559283 384.48 
L 618.559283 51.84 
L 622.846095 51.84 
L 622.846095 384.48 
z
" style="fill:#008000;opacity:0.04;"/>
   </g>
   <g id="patch_89">
    <path clip-path="url(#pf6708680d0)" d="M 627.132907 384.48 
L 627.132907 51.84 
L 631.419718 51.84 
L 631.419718 384.48 
z
" style="fill:#008000;opacity:0.04;"/>
   </g>
   <g id="patch_90">
    <path clip-path="url(#pf6708680d0)" d="M 635.70653 384.48 
L 635.70653 51.84 
L 639.993342 51.84 
L 639.993342 384.48 
z
" style="fill:#008000;opacity:0.04;"/>
   </g>
   <g id="patch_91">
    <path clip-path="url(#pf6708680d0)" d="M 644.280154 384.48 
L 644.280154 51.84 
L 648.566965 51.84 
L 648.566965 384.48 
z
" style="fill:#008000;opacity:0.04;"/>
   </g>
   <g id="patch_92">
    <path clip-path="url(#pf6708680d0)" d="M 652.853777 384.48 
L 652.853777 51.84 
L 657.140589 51.84 
L 657.140589 384.48 
z
" style="fill:#008000;opacity:0.04;"/>
   </g>
   <g id="patch_93">
    <path clip-path="url(#pf6708680d0)" d="M 657.140589 371.1744 
L 657.140589 51.84 
L 661.427401 51.84 
L 661.427401 371.1744 
z
" style="fill:#008000;opacity:0.5;"/>
   </g>
   <g id="patch_94">
    <path clip-path="url(#pf6708680d0)" d="M 661.427401 384.48 
L 661.427401 51.84 
L 665.714213 51.84 
L 665.714213 384.48 
z
" style="fill:#008000;opacity:0.04;"/>
   </g>
   <g id="patch_95">
    <path clip-path="url(#pf6708680d0)" d="M 670.001024 384.48 
L 670.001024 51.84 
L 674.287836 51.84 
L 674.287836 384.48 
z
" style="fill:#008000;opacity:0.04;"/>
   </g>
   <g id="patch_96">
    <path clip-path="url(#pf6708680d0)" d="M 678.574648 384.48 
L 678.574648 51.84 
L 682.86146 51.84 
L 682.86146 384.48 
z
" style="fill:#008000;opacity:0.04;"/>
   </g>
   <g id="patch_97">
    <path clip-path="url(#pf6708680d0)" d="M 687.148271 384.48 
L 687.148271 51.84 
L 691.435083 51.84 
L 691.435083 384.48 
z
" style="fill:#008000;opacity:0.04;"/>
   </g>
   <g id="patch_98">
    <path clip-path="url(#pf6708680d0)" d="M 695.721895 384.48 
L 695.721895 51.84 
L 700.008707 51.84 
L 700.008707 384.48 
z
" style="fill:#008000;opacity:0.04;"/>
   </g>
   <g id="patch_99">
    <path clip-path="url(#pf6708680d0)" d="M 704.295519 384.48 
L 704.295519 51.84 
L 708.58233 51.84 
L 708.58233 384.48 
z
" style="fill:#008000;opacity:0.04;"/>
   </g>
   <g id="patch_100">
    <path clip-path="url(#pf6708680d0)" d="M 712.869142 384.48 
L 712.869142 51.84 
L 717.155954 51.84 
L 717.155954 384.48 
z
" style="fill:#008000;opacity:0.04;"/>
   </g>
   <g id="patch_101">
    <path clip-path="url(#pf6708680d0)" d="M 721.442766 384.48 
L 721.442766 51.84 
L 725.729577 51.84 
L 725.729577 384.48 
z
" style="fill:#008000;opacity:0.04;"/>
   </g>
   <g id="patch_102">
    <path clip-path="url(#pf6708680d0)" d="M 730.016389 384.48 
L 730.016389 51.84 
L 734.303201 51.84 
L 734.303201 384.48 
z
" style="fill:#008000;opacity:0.04;"/>
   </g>
   <g id="patch_103">
    <path clip-path="url(#pf6708680d0)" d="M 738.590013 384.48 
L 738.590013 51.84 
L 742.876825 51.84 
L 742.876825 384.48 
z
" style="fill:#008000;opacity:0.04;"/>
   </g>
   <g id="matplotlib.axis_1">
    <g id="xtick_1">
     <g id="line2d_1">
      <defs>
       <path d="M 0 0 
L 0 3.5 
" id="ma54bcaf2fa" style="stroke:#000000;stroke-width:0.8;"/>
      </defs>
      <g>
       <use style="stroke:#000000;stroke-width:0.8;" x="138.436364" xlink:href="#ma54bcaf2fa" y="384.48"/>
      </g>
     </g>
     <g id="text_1">
      <!-- 0 -->
      <defs>
       <path d="M 31.78125 66.40625 
Q 24.171875 66.40625 20.328125 58.90625 
Q 16.5 51.421875 16.5 36.375 
Q 16.5 21.390625 20.328125 13.890625 
Q 24.171875 6.390625 31.78125 6.390625 
Q 39.453125 6.390625 43.28125 13.890625 
Q 47.125 21.390625 47.125 36.375 
Q 47.125 51.421875 43.28125 58.90625 
Q 39.453125 66.40625 31.78125 66.40625 
z
M 31.78125 74.21875 
Q 44.046875 74.21875 50.515625 64.515625 
Q 56.984375 54.828125 56.984375 36.375 
Q 56.984375 17.96875 50.515625 8.265625 
Q 44.046875 -1.421875 31.78125 -1.421875 
Q 19.53125 -1.421875 13.0625 8.265625 
Q 6.59375 17.96875 6.59375 36.375 
Q 6.59375 54.828125 13.0625 64.515625 
Q 19.53125 74.21875 31.78125 74.21875 
z
" id="DejaVuSans-48"/>
      </defs>
      <g transform="translate(135.255114 399.078438)scale(0.1 -0.1)">
       <use xlink:href="#DejaVuSans-48"/>
      </g>
     </g>
    </g>
    <g id="xtick_2">
     <g id="line2d_2">
      <g>
       <use style="stroke:#000000;stroke-width:0.8;" x="224.172599" xlink:href="#ma54bcaf2fa" y="384.48"/>
      </g>
     </g>
     <g id="text_2">
      <!-- 200 -->
      <defs>
       <path d="M 19.1875 8.296875 
L 53.609375 8.296875 
L 53.609375 0 
L 7.328125 0 
L 7.328125 8.296875 
Q 12.9375 14.109375 22.625 23.890625 
Q 32.328125 33.6875 34.8125 36.53125 
Q 39.546875 41.84375 41.421875 45.53125 
Q 43.3125 49.21875 43.3125 52.78125 
Q 43.3125 58.59375 39.234375 62.25 
Q 35.15625 65.921875 28.609375 65.921875 
Q 23.96875 65.921875 18.8125 64.3125 
Q 13.671875 62.703125 7.8125 59.421875 
L 7.8125 69.390625 
Q 13.765625 71.78125 18.9375 73 
Q 24.125 74.21875 28.421875 74.21875 
Q 39.75 74.21875 46.484375 68.546875 
Q 53.21875 62.890625 53.21875 53.421875 
Q 53.21875 48.921875 51.53125 44.890625 
Q 49.859375 40.875 45.40625 35.40625 
Q 44.1875 33.984375 37.640625 27.21875 
Q 31.109375 20.453125 19.1875 8.296875 
z
" id="DejaVuSans-50"/>
      </defs>
      <g transform="translate(214.628849 399.078438)scale(0.1 -0.1)">
       <use xlink:href="#DejaVuSans-50"/>
       <use x="63.623047" xlink:href="#DejaVuSans-48"/>
       <use x="127.246094" xlink:href="#DejaVuSans-48"/>
      </g>
     </g>
    </g>
    <g id="xtick_3">
     <g id="line2d_3">
      <g>
       <use style="stroke:#000000;stroke-width:0.8;" x="309.908835" xlink:href="#ma54bcaf2fa" y="384.48"/>
      </g>
     </g>
     <g id="text_3">
      <!-- 400 -->
      <defs>
       <path d="M 37.796875 64.3125 
L 12.890625 25.390625 
L 37.796875 25.390625 
z
M 35.203125 72.90625 
L 47.609375 72.90625 
L 47.609375 25.390625 
L 58.015625 25.390625 
L 58.015625 17.1875 
L 47.609375 17.1875 
L 47.609375 0 
L 37.796875 0 
L 37.796875 17.1875 
L 4.890625 17.1875 
L 4.890625 26.703125 
z
" id="DejaVuSans-52"/>
      </defs>
      <g transform="translate(300.365085 399.078438)scale(0.1 -0.1)">
       <use xlink:href="#DejaVuSans-52"/>
       <use x="63.623047" xlink:href="#DejaVuSans-48"/>
       <use x="127.246094" xlink:href="#DejaVuSans-48"/>
      </g>
     </g>
    </g>
    <g id="xtick_4">
     <g id="line2d_4">
      <g>
       <use style="stroke:#000000;stroke-width:0.8;" x="395.64507" xlink:href="#ma54bcaf2fa" y="384.48"/>
      </g>
     </g>
     <g id="text_4">
      <!-- 600 -->
      <defs>
       <path d="M 33.015625 40.375 
Q 26.375 40.375 22.484375 35.828125 
Q 18.609375 31.296875 18.609375 23.390625 
Q 18.609375 15.53125 22.484375 10.953125 
Q 26.375 6.390625 33.015625 6.390625 
Q 39.65625 6.390625 43.53125 10.953125 
Q 47.40625 15.53125 47.40625 23.390625 
Q 47.40625 31.296875 43.53125 35.828125 
Q 39.65625 40.375 33.015625 40.375 
z
M 52.59375 71.296875 
L 52.59375 62.3125 
Q 48.875 64.0625 45.09375 64.984375 
Q 41.3125 65.921875 37.59375 65.921875 
Q 27.828125 65.921875 22.671875 59.328125 
Q 17.53125 52.734375 16.796875 39.40625 
Q 19.671875 43.65625 24.015625 45.921875 
Q 28.375 48.1875 33.59375 48.1875 
Q 44.578125 48.1875 50.953125 41.515625 
Q 57.328125 34.859375 57.328125 23.390625 
Q 57.328125 12.15625 50.6875 5.359375 
Q 44.046875 -1.421875 33.015625 -1.421875 
Q 20.359375 -1.421875 13.671875 8.265625 
Q 6.984375 17.96875 6.984375 36.375 
Q 6.984375 53.65625 15.1875 63.9375 
Q 23.390625 74.21875 37.203125 74.21875 
Q 40.921875 74.21875 44.703125 73.484375 
Q 48.484375 72.75 52.59375 71.296875 
z
" id="DejaVuSans-54"/>
      </defs>
      <g transform="translate(386.10132 399.078438)scale(0.1 -0.1)">
       <use xlink:href="#DejaVuSans-54"/>
       <use x="63.623047" xlink:href="#DejaVuSans-48"/>
       <use x="127.246094" xlink:href="#DejaVuSans-48"/>
      </g>
     </g>
    </g>
    <g id="xtick_5">
     <g id="line2d_5">
      <g>
       <use style="stroke:#000000;stroke-width:0.8;" x="481.381306" xlink:href="#ma54bcaf2fa" y="384.48"/>
      </g>
     </g>
     <g id="text_5">
      <!-- 800 -->
      <defs>
       <path d="M 31.78125 34.625 
Q 24.75 34.625 20.71875 30.859375 
Q 16.703125 27.09375 16.703125 20.515625 
Q 16.703125 13.921875 20.71875 10.15625 
Q 24.75 6.390625 31.78125 6.390625 
Q 38.8125 6.390625 42.859375 10.171875 
Q 46.921875 13.96875 46.921875 20.515625 
Q 46.921875 27.09375 42.890625 30.859375 
Q 38.875 34.625 31.78125 34.625 
z
M 21.921875 38.8125 
Q 15.578125 40.375 12.03125 44.71875 
Q 8.5 49.078125 8.5 55.328125 
Q 8.5 64.0625 14.71875 69.140625 
Q 20.953125 74.21875 31.78125 74.21875 
Q 42.671875 74.21875 48.875 69.140625 
Q 55.078125 64.0625 55.078125 55.328125 
Q 55.078125 49.078125 51.53125 44.71875 
Q 48 40.375 41.703125 38.8125 
Q 48.828125 37.15625 52.796875 32.3125 
Q 56.78125 27.484375 56.78125 20.515625 
Q 56.78125 9.90625 50.3125 4.234375 
Q 43.84375 -1.421875 31.78125 -1.421875 
Q 19.734375 -1.421875 13.25 4.234375 
Q 6.78125 9.90625 6.78125 20.515625 
Q 6.78125 27.484375 10.78125 32.3125 
Q 14.796875 37.15625 21.921875 38.8125 
z
M 18.3125 54.390625 
Q 18.3125 48.734375 21.84375 45.5625 
Q 25.390625 42.390625 31.78125 42.390625 
Q 38.140625 42.390625 41.71875 45.5625 
Q 45.3125 48.734375 45.3125 54.390625 
Q 45.3125 60.0625 41.71875 63.234375 
Q 38.140625 66.40625 31.78125 66.40625 
Q 25.390625 66.40625 21.84375 63.234375 
Q 18.3125 60.0625 18.3125 54.390625 
z
" id="DejaVuSans-56"/>
      </defs>
      <g transform="translate(471.837556 399.078438)scale(0.1 -0.1)">
       <use xlink:href="#DejaVuSans-56"/>
       <use x="63.623047" xlink:href="#DejaVuSans-48"/>
       <use x="127.246094" xlink:href="#DejaVuSans-48"/>
      </g>
     </g>
    </g>
    <g id="xtick_6">
     <g id="line2d_6">
      <g>
       <use style="stroke:#000000;stroke-width:0.8;" x="567.117542" xlink:href="#ma54bcaf2fa" y="384.48"/>
      </g>
     </g>
     <g id="text_6">
      <!-- 1000 -->
      <defs>
       <path d="M 12.40625 8.296875 
L 28.515625 8.296875 
L 28.515625 63.921875 
L 10.984375 60.40625 
L 10.984375 69.390625 
L 28.421875 72.90625 
L 38.28125 72.90625 
L 38.28125 8.296875 
L 54.390625 8.296875 
L 54.390625 0 
L 12.40625 0 
z
" id="DejaVuSans-49"/>
      </defs>
      <g transform="translate(554.392542 399.078438)scale(0.1 -0.1)">
       <use xlink:href="#DejaVuSans-49"/>
       <use x="63.623047" xlink:href="#DejaVuSans-48"/>
       <use x="127.246094" xlink:href="#DejaVuSans-48"/>
       <use x="190.869141" xlink:href="#DejaVuSans-48"/>
      </g>
     </g>
    </g>
    <g id="xtick_7">
     <g id="line2d_7">
      <g>
       <use style="stroke:#000000;stroke-width:0.8;" x="652.853777" xlink:href="#ma54bcaf2fa" y="384.48"/>
      </g>
     </g>
     <g id="text_7">
      <!-- 1200 -->
      <g transform="translate(640.128777 399.078438)scale(0.1 -0.1)">
       <use xlink:href="#DejaVuSans-49"/>
       <use x="63.623047" xlink:href="#DejaVuSans-50"/>
       <use x="127.246094" xlink:href="#DejaVuSans-48"/>
       <use x="190.869141" xlink:href="#DejaVuSans-48"/>
      </g>
     </g>
    </g>
    <g id="xtick_8">
     <g id="line2d_8">
      <g>
       <use style="stroke:#000000;stroke-width:0.8;" x="738.590013" xlink:href="#ma54bcaf2fa" y="384.48"/>
      </g>
     </g>
     <g id="text_8">
      <!-- 1400 -->
      <g transform="translate(725.865013 399.078438)scale(0.1 -0.1)">
       <use xlink:href="#DejaVuSans-49"/>
       <use x="63.623047" xlink:href="#DejaVuSans-52"/>
       <use x="127.246094" xlink:href="#DejaVuSans-48"/>
       <use x="190.869141" xlink:href="#DejaVuSans-48"/>
      </g>
     </g>
    </g>
    <g id="text_9">
     <!-- Timestamp -->
     <defs>
      <path d="M -0.296875 72.90625 
L 61.375 72.90625 
L 61.375 64.59375 
L 35.5 64.59375 
L 35.5 0 
L 25.59375 0 
L 25.59375 64.59375 
L -0.296875 64.59375 
z
" id="DejaVuSans-84"/>
      <path d="M 9.421875 54.6875 
L 18.40625 54.6875 
L 18.40625 0 
L 9.421875 0 
z
M 9.421875 75.984375 
L 18.40625 75.984375 
L 18.40625 64.59375 
L 9.421875 64.59375 
z
" id="DejaVuSans-105"/>
      <path d="M 52 44.1875 
Q 55.375 50.25 60.0625 53.125 
Q 64.75 56 71.09375 56 
Q 79.640625 56 84.28125 50.015625 
Q 88.921875 44.046875 88.921875 33.015625 
L 88.921875 0 
L 79.890625 0 
L 79.890625 32.71875 
Q 79.890625 40.578125 77.09375 44.375 
Q 74.3125 48.1875 68.609375 48.1875 
Q 61.625 48.1875 57.5625 43.546875 
Q 53.515625 38.921875 53.515625 30.90625 
L 53.515625 0 
L 44.484375 0 
L 44.484375 32.71875 
Q 44.484375 40.625 41.703125 44.40625 
Q 38.921875 48.1875 33.109375 48.1875 
Q 26.21875 48.1875 22.15625 43.53125 
Q 18.109375 38.875 18.109375 30.90625 
L 18.109375 0 
L 9.078125 0 
L 9.078125 54.6875 
L 18.109375 54.6875 
L 18.109375 46.1875 
Q 21.1875 51.21875 25.484375 53.609375 
Q 29.78125 56 35.6875 56 
Q 41.65625 56 45.828125 52.96875 
Q 50 49.953125 52 44.1875 
z
" id="DejaVuSans-109"/>
      <path d="M 56.203125 29.59375 
L 56.203125 25.203125 
L 14.890625 25.203125 
Q 15.484375 15.921875 20.484375 11.0625 
Q 25.484375 6.203125 34.421875 6.203125 
Q 39.59375 6.203125 44.453125 7.46875 
Q 49.3125 8.734375 54.109375 11.28125 
L 54.109375 2.78125 
Q 49.265625 0.734375 44.1875 -0.34375 
Q 39.109375 -1.421875 33.890625 -1.421875 
Q 20.796875 -1.421875 13.15625 6.1875 
Q 5.515625 13.8125 5.515625 26.8125 
Q 5.515625 40.234375 12.765625 48.109375 
Q 20.015625 56 32.328125 56 
Q 43.359375 56 49.78125 48.890625 
Q 56.203125 41.796875 56.203125 29.59375 
z
M 47.21875 32.234375 
Q 47.125 39.59375 43.09375 43.984375 
Q 39.0625 48.390625 32.421875 48.390625 
Q 24.90625 48.390625 20.390625 44.140625 
Q 15.875 39.890625 15.1875 32.171875 
z
" id="DejaVuSans-101"/>
      <path d="M 44.28125 53.078125 
L 44.28125 44.578125 
Q 40.484375 46.53125 36.375 47.5 
Q 32.28125 48.484375 27.875 48.484375 
Q 21.1875 48.484375 17.84375 46.4375 
Q 14.5 44.390625 14.5 40.28125 
Q 14.5 37.15625 16.890625 35.375 
Q 19.28125 33.59375 26.515625 31.984375 
L 29.59375 31.296875 
Q 39.15625 29.25 43.1875 25.515625 
Q 47.21875 21.78125 47.21875 15.09375 
Q 47.21875 7.46875 41.1875 3.015625 
Q 35.15625 -1.421875 24.609375 -1.421875 
Q 20.21875 -1.421875 15.453125 -0.5625 
Q 10.6875 0.296875 5.421875 2 
L 5.421875 11.28125 
Q 10.40625 8.6875 15.234375 7.390625 
Q 20.0625 6.109375 24.8125 6.109375 
Q 31.15625 6.109375 34.5625 8.28125 
Q 37.984375 10.453125 37.984375 14.40625 
Q 37.984375 18.0625 35.515625 20.015625 
Q 33.0625 21.96875 24.703125 23.78125 
L 21.578125 24.515625 
Q 13.234375 26.265625 9.515625 29.90625 
Q 5.8125 33.546875 5.8125 39.890625 
Q 5.8125 47.609375 11.28125 51.796875 
Q 16.75 56 26.8125 56 
Q 31.78125 56 36.171875 55.265625 
Q 40.578125 54.546875 44.28125 53.078125 
z
" id="DejaVuSans-115"/>
      <path d="M 18.3125 70.21875 
L 18.3125 54.6875 
L 36.8125 54.6875 
L 36.8125 47.703125 
L 18.3125 47.703125 
L 18.3125 18.015625 
Q 18.3125 11.328125 20.140625 9.421875 
Q 21.96875 7.515625 27.59375 7.515625 
L 36.8125 7.515625 
L 36.8125 0 
L 27.59375 0 
Q 17.1875 0 13.234375 3.875 
Q 9.28125 7.765625 9.28125 18.015625 
L 9.28125 47.703125 
L 2.6875 47.703125 
L 2.6875 54.6875 
L 9.28125 54.6875 
L 9.28125 70.21875 
z
" id="DejaVuSans-116"/>
      <path d="M 34.28125 27.484375 
Q 23.390625 27.484375 19.1875 25 
Q 14.984375 22.515625 14.984375 16.5 
Q 14.984375 11.71875 18.140625 8.90625 
Q 21.296875 6.109375 26.703125 6.109375 
Q 34.1875 6.109375 38.703125 11.40625 
Q 43.21875 16.703125 43.21875 25.484375 
L 43.21875 27.484375 
z
M 52.203125 31.203125 
L 52.203125 0 
L 43.21875 0 
L 43.21875 8.296875 
Q 40.140625 3.328125 35.546875 0.953125 
Q 30.953125 -1.421875 24.3125 -1.421875 
Q 15.921875 -1.421875 10.953125 3.296875 
Q 6 8.015625 6 15.921875 
Q 6 25.140625 12.171875 29.828125 
Q 18.359375 34.515625 30.609375 34.515625 
L 43.21875 34.515625 
L 43.21875 35.40625 
Q 43.21875 41.609375 39.140625 45 
Q 35.0625 48.390625 27.6875 48.390625 
Q 23 48.390625 18.546875 47.265625 
Q 14.109375 46.140625 10.015625 43.890625 
L 10.015625 52.203125 
Q 14.9375 54.109375 19.578125 55.046875 
Q 24.21875 56 28.609375 56 
Q 40.484375 56 46.34375 49.84375 
Q 52.203125 43.703125 52.203125 31.203125 
z
" id="DejaVuSans-97"/>
      <path d="M 18.109375 8.203125 
L 18.109375 -20.796875 
L 9.078125 -20.796875 
L 9.078125 54.6875 
L 18.109375 54.6875 
L 18.109375 46.390625 
Q 20.953125 51.265625 25.265625 53.625 
Q 29.59375 56 35.59375 56 
Q 45.5625 56 51.78125 48.09375 
Q 58.015625 40.1875 58.015625 27.296875 
Q 58.015625 14.40625 51.78125 6.484375 
Q 45.5625 -1.421875 35.59375 -1.421875 
Q 29.59375 -1.421875 25.265625 0.953125 
Q 20.953125 3.328125 18.109375 8.203125 
z
M 48.6875 27.296875 
Q 48.6875 37.203125 44.609375 42.84375 
Q 40.53125 48.484375 33.40625 48.484375 
Q 26.265625 48.484375 22.1875 42.84375 
Q 18.109375 37.203125 18.109375 27.296875 
Q 18.109375 17.390625 22.1875 11.75 
Q 26.265625 6.109375 33.40625 6.109375 
Q 40.53125 6.109375 44.609375 11.75 
Q 48.6875 17.390625 48.6875 27.296875 
z
" id="DejaVuSans-112"/>
     </defs>
     <g transform="translate(414.739062 412.756563)scale(0.1 -0.1)">
      <use xlink:href="#DejaVuSans-84"/>
      <use x="61.037109" xlink:href="#DejaVuSans-105"/>
      <use x="88.820312" xlink:href="#DejaVuSans-109"/>
      <use x="186.232422" xlink:href="#DejaVuSans-101"/>
      <use x="247.755859" xlink:href="#DejaVuSans-115"/>
      <use x="299.855469" xlink:href="#DejaVuSans-116"/>
      <use x="339.064453" xlink:href="#DejaVuSans-97"/>
      <use x="400.34375" xlink:href="#DejaVuSans-109"/>
      <use x="497.755859" xlink:href="#DejaVuSans-112"/>
     </g>
    </g>
   </g>
   <g id="matplotlib.axis_2">
    <g id="ytick_1">
     <g id="line2d_9">
      <defs>
       <path d="M 0 0 
L -3.5 0 
" id="m6235d9ae8a" style="stroke:#000000;stroke-width:0.8;"/>
      </defs>
      <g>
       <use style="stroke:#000000;stroke-width:0.8;" x="108" xlink:href="#m6235d9ae8a" y="369.36"/>
      </g>
     </g>
     <g id="text_10">
      <!-- 0.0 -->
      <defs>
       <path d="M 10.6875 12.40625 
L 21 12.40625 
L 21 0 
L 10.6875 0 
z
" id="DejaVuSans-46"/>
      </defs>
      <g transform="translate(85.096875 373.159219)scale(0.1 -0.1)">
       <use xlink:href="#DejaVuSans-48"/>
       <use x="63.623047" xlink:href="#DejaVuSans-46"/>
       <use x="95.410156" xlink:href="#DejaVuSans-48"/>
      </g>
     </g>
    </g>
    <g id="ytick_2">
     <g id="line2d_10">
      <g>
       <use style="stroke:#000000;stroke-width:0.8;" x="108" xlink:href="#m6235d9ae8a" y="330.941783"/>
      </g>
     </g>
     <g id="text_11">
      <!-- 0.1 -->
      <g transform="translate(85.096875 334.741002)scale(0.1 -0.1)">
       <use xlink:href="#DejaVuSans-48"/>
       <use x="63.623047" xlink:href="#DejaVuSans-46"/>
       <use x="95.410156" xlink:href="#DejaVuSans-49"/>
      </g>
     </g>
    </g>
    <g id="ytick_3">
     <g id="line2d_11">
      <g>
       <use style="stroke:#000000;stroke-width:0.8;" x="108" xlink:href="#m6235d9ae8a" y="292.523566"/>
      </g>
     </g>
     <g id="text_12">
      <!-- 0.2 -->
      <g transform="translate(85.096875 296.322785)scale(0.1 -0.1)">
       <use xlink:href="#DejaVuSans-48"/>
       <use x="63.623047" xlink:href="#DejaVuSans-46"/>
       <use x="95.410156" xlink:href="#DejaVuSans-50"/>
      </g>
     </g>
    </g>
    <g id="ytick_4">
     <g id="line2d_12">
      <g>
       <use style="stroke:#000000;stroke-width:0.8;" x="108" xlink:href="#m6235d9ae8a" y="254.105349"/>
      </g>
     </g>
     <g id="text_13">
      <!-- 0.3 -->
      <defs>
       <path d="M 40.578125 39.3125 
Q 47.65625 37.796875 51.625 33 
Q 55.609375 28.21875 55.609375 21.1875 
Q 55.609375 10.40625 48.1875 4.484375 
Q 40.765625 -1.421875 27.09375 -1.421875 
Q 22.515625 -1.421875 17.65625 -0.515625 
Q 12.796875 0.390625 7.625 2.203125 
L 7.625 11.71875 
Q 11.71875 9.328125 16.59375 8.109375 
Q 21.484375 6.890625 26.8125 6.890625 
Q 36.078125 6.890625 40.9375 10.546875 
Q 45.796875 14.203125 45.796875 21.1875 
Q 45.796875 27.640625 41.28125 31.265625 
Q 36.765625 34.90625 28.71875 34.90625 
L 20.21875 34.90625 
L 20.21875 43.015625 
L 29.109375 43.015625 
Q 36.375 43.015625 40.234375 45.921875 
Q 44.09375 48.828125 44.09375 54.296875 
Q 44.09375 59.90625 40.109375 62.90625 
Q 36.140625 65.921875 28.71875 65.921875 
Q 24.65625 65.921875 20.015625 65.03125 
Q 15.375 64.15625 9.8125 62.3125 
L 9.8125 71.09375 
Q 15.4375 72.65625 20.34375 73.4375 
Q 25.25 74.21875 29.59375 74.21875 
Q 40.828125 74.21875 47.359375 69.109375 
Q 53.90625 64.015625 53.90625 55.328125 
Q 53.90625 49.265625 50.4375 45.09375 
Q 46.96875 40.921875 40.578125 39.3125 
z
" id="DejaVuSans-51"/>
      </defs>
      <g transform="translate(85.096875 257.904568)scale(0.1 -0.1)">
       <use xlink:href="#DejaVuSans-48"/>
       <use x="63.623047" xlink:href="#DejaVuSans-46"/>
       <use x="95.410156" xlink:href="#DejaVuSans-51"/>
      </g>
     </g>
    </g>
    <g id="ytick_5">
     <g id="line2d_13">
      <g>
       <use style="stroke:#000000;stroke-width:0.8;" x="108" xlink:href="#m6235d9ae8a" y="215.687132"/>
      </g>
     </g>
     <g id="text_14">
      <!-- 0.4 -->
      <g transform="translate(85.096875 219.486351)scale(0.1 -0.1)">
       <use xlink:href="#DejaVuSans-48"/>
       <use x="63.623047" xlink:href="#DejaVuSans-46"/>
       <use x="95.410156" xlink:href="#DejaVuSans-52"/>
      </g>
     </g>
    </g>
    <g id="ytick_6">
     <g id="line2d_14">
      <g>
       <use style="stroke:#000000;stroke-width:0.8;" x="108" xlink:href="#m6235d9ae8a" y="177.268915"/>
      </g>
     </g>
     <g id="text_15">
      <!-- 0.5 -->
      <defs>
       <path d="M 10.796875 72.90625 
L 49.515625 72.90625 
L 49.515625 64.59375 
L 19.828125 64.59375 
L 19.828125 46.734375 
Q 21.96875 47.46875 24.109375 47.828125 
Q 26.265625 48.1875 28.421875 48.1875 
Q 40.625 48.1875 47.75 41.5 
Q 54.890625 34.8125 54.890625 23.390625 
Q 54.890625 11.625 47.5625 5.09375 
Q 40.234375 -1.421875 26.90625 -1.421875 
Q 22.3125 -1.421875 17.546875 -0.640625 
Q 12.796875 0.140625 7.71875 1.703125 
L 7.71875 11.625 
Q 12.109375 9.234375 16.796875 8.0625 
Q 21.484375 6.890625 26.703125 6.890625 
Q 35.15625 6.890625 40.078125 11.328125 
Q 45.015625 15.765625 45.015625 23.390625 
Q 45.015625 31 40.078125 35.4375 
Q 35.15625 39.890625 26.703125 39.890625 
Q 22.75 39.890625 18.8125 39.015625 
Q 14.890625 38.140625 10.796875 36.28125 
z
" id="DejaVuSans-53"/>
      </defs>
      <g transform="translate(85.096875 181.068134)scale(0.1 -0.1)">
       <use xlink:href="#DejaVuSans-48"/>
       <use x="63.623047" xlink:href="#DejaVuSans-46"/>
       <use x="95.410156" xlink:href="#DejaVuSans-53"/>
      </g>
     </g>
    </g>
    <g id="ytick_7">
     <g id="line2d_15">
      <g>
       <use style="stroke:#000000;stroke-width:0.8;" x="108" xlink:href="#m6235d9ae8a" y="138.850698"/>
      </g>
     </g>
     <g id="text_16">
      <!-- 0.6 -->
      <g transform="translate(85.096875 142.649917)scale(0.1 -0.1)">
       <use xlink:href="#DejaVuSans-48"/>
       <use x="63.623047" xlink:href="#DejaVuSans-46"/>
       <use x="95.410156" xlink:href="#DejaVuSans-54"/>
      </g>
     </g>
    </g>
    <g id="ytick_8">
     <g id="line2d_16">
      <g>
       <use style="stroke:#000000;stroke-width:0.8;" x="108" xlink:href="#m6235d9ae8a" y="100.432481"/>
      </g>
     </g>
     <g id="text_17">
      <!-- 0.7 -->
      <defs>
       <path d="M 8.203125 72.90625 
L 55.078125 72.90625 
L 55.078125 68.703125 
L 28.609375 0 
L 18.3125 0 
L 43.21875 64.59375 
L 8.203125 64.59375 
z
" id="DejaVuSans-55"/>
      </defs>
      <g transform="translate(85.096875 104.2317)scale(0.1 -0.1)">
       <use xlink:href="#DejaVuSans-48"/>
       <use x="63.623047" xlink:href="#DejaVuSans-46"/>
       <use x="95.410156" xlink:href="#DejaVuSans-55"/>
      </g>
     </g>
    </g>
    <g id="ytick_9">
     <g id="line2d_17">
      <g>
       <use style="stroke:#000000;stroke-width:0.8;" x="108" xlink:href="#m6235d9ae8a" y="62.014264"/>
      </g>
     </g>
     <g id="text_18">
      <!-- 0.8 -->
      <g transform="translate(85.096875 65.813483)scale(0.1 -0.1)">
       <use xlink:href="#DejaVuSans-48"/>
       <use x="63.623047" xlink:href="#DejaVuSans-46"/>
       <use x="95.410156" xlink:href="#DejaVuSans-56"/>
      </g>
     </g>
    </g>
    <g id="text_19">
     <!-- Value -->
     <defs>
      <path d="M 28.609375 0 
L 0.78125 72.90625 
L 11.078125 72.90625 
L 34.1875 11.53125 
L 57.328125 72.90625 
L 67.578125 72.90625 
L 39.796875 0 
z
" id="DejaVuSans-86"/>
      <path d="M 9.421875 75.984375 
L 18.40625 75.984375 
L 18.40625 0 
L 9.421875 0 
z
" id="DejaVuSans-108"/>
      <path d="M 8.5 21.578125 
L 8.5 54.6875 
L 17.484375 54.6875 
L 17.484375 21.921875 
Q 17.484375 14.15625 20.5 10.265625 
Q 23.53125 6.390625 29.59375 6.390625 
Q 36.859375 6.390625 41.078125 11.03125 
Q 45.3125 15.671875 45.3125 23.6875 
L 45.3125 54.6875 
L 54.296875 54.6875 
L 54.296875 0 
L 45.3125 0 
L 45.3125 8.40625 
Q 42.046875 3.421875 37.71875 1 
Q 33.40625 -1.421875 27.6875 -1.421875 
Q 18.265625 -1.421875 13.375 4.4375 
Q 8.5 10.296875 8.5 21.578125 
z
M 31.109375 56 
z
" id="DejaVuSans-117"/>
     </defs>
     <g transform="translate(79.017187 232.273281)rotate(-90)scale(0.1 -0.1)">
      <use xlink:href="#DejaVuSans-86"/>
      <use x="68.298828" xlink:href="#DejaVuSans-97"/>
      <use x="129.578125" xlink:href="#DejaVuSans-108"/>
      <use x="157.361328" xlink:href="#DejaVuSans-117"/>
      <use x="220.740234" xlink:href="#DejaVuSans-101"/>
     </g>
    </g>
   </g>
   <g id="line2d_18">
    <path clip-path="url(#pf6708680d0)" d="M 138.436364 369.36 
L 139.293726 303.16666 
L 139.722407 282.450558 
L 140.151088 301.606407 
L 140.57977 334.594877 
L 141.008451 336.854369 
L 141.437132 343.07157 
L 141.865813 318.147481 
L 142.294494 336.694302 
L 142.723175 332.066258 
L 143.151857 369.36 
L 143.580538 357.425854 
L 144.009219 362.547393 
L 144.4379 345.020329 
L 145.295262 324.999193 
L 146.152625 353.841889 
L 146.581306 335.124238 
L 147.009987 331.698601 
L 147.438668 351.249406 
L 147.86735 329.092795 
L 148.296031 290.683768 
L 148.724712 352.129043 
L 149.153393 328.881716 
L 149.582074 336.946982 
L 150.010755 331.717572 
L 150.439437 330.305092 
L 150.868118 347.552086 
L 151.72548 334.305508 
L 152.154161 333.043516 
L 152.582843 362.967973 
L 153.440205 344.58109 
L 153.868886 357.670719 
L 154.297567 332.700104 
L 154.726248 342.586827 
L 155.15493 356.034171 
L 155.583611 334.950931 
L 156.012292 341.170187 
L 156.440973 345.564027 
L 156.869654 325.489895 
L 157.298335 329.11336 
L 157.727017 338.756832 
L 158.155698 313.747532 
L 158.584379 314.740385 
L 159.01306 339.789637 
L 159.441741 344.798183 
L 159.870423 311.835324 
L 160.299104 353.424569 
L 160.727785 335.045627 
L 161.156466 335.236844 
L 161.585147 348.278774 
L 162.013828 338.957539 
L 162.44251 306.669166 
L 162.871191 336.044004 
L 163.299872 341.161047 
L 163.728553 369.36 
L 164.157234 356.775635 
L 164.585915 348.270746 
L 165.014597 343.038099 
L 165.443278 349.077432 
L 165.871959 360.196096 
L 166.30064 340.83015 
L 166.729321 360.051808 
L 167.586684 308.157263 
L 168.444046 330.355745 
L 168.872727 353.93568 
L 169.301408 335.856098 
L 170.158771 346.676142 
L 170.587452 345.355646 
L 171.016133 335.257963 
L 171.444814 349.630543 
L 171.873496 340.626975 
L 172.302177 334.085414 
L 172.730858 312.643976 
L 173.159539 342.079207 
L 174.016901 337.040384 
L 174.445583 345.045412 
L 174.874264 347.310286 
L 175.302945 353.293733 
L 175.731626 341.034369 
L 176.160307 310.329312 
L 176.588988 346.172355 
L 177.01767 328.465397 
L 177.446351 346.572509 
L 177.875032 332.365637 
L 178.303713 336.66555 
L 178.732394 326.527252 
L 179.161076 340.059586 
L 179.589757 331.728542 
L 180.018438 303.088491 
L 180.447119 325.604792 
L 180.8758 334.783751 
L 181.304481 350.669779 
L 181.733163 316.105572 
L 182.161844 327.530415 
L 182.590525 348.523818 
L 183.019206 354.375339 
L 183.447887 340.749451 
L 184.30525 369.36 
L 184.733931 358.619914 
L 185.162612 351.184354 
L 185.591293 362.981514 
L 186.019974 353.05816 
L 186.448656 349.693045 
L 186.877337 369.36 
L 187.306018 347.567331 
L 187.734699 347.933754 
L 188.16338 338.235569 
L 188.592061 337.651026 
L 189.020743 325.18211 
L 189.449424 339.898937 
L 189.878105 342.445174 
L 190.306786 342.346318 
L 190.735467 334.035814 
L 191.164149 313.420815 
L 191.59283 332.949392 
L 192.021511 330.104307 
L 192.450192 350.710864 
L 192.878873 342.943423 
L 193.307554 340.377034 
L 193.736236 324.136613 
L 194.164917 342.68339 
L 194.593598 369.36 
L 195.45096 369.36 
L 196.737004 339.244978 
L 197.165685 323.828375 
L 197.594366 343.083729 
L 198.023047 351.224307 
L 198.451729 338.968699 
L 198.88041 343.408263 
L 199.309091 338.369342 
L 199.737772 352.081839 
L 200.166453 344.105946 
L 200.595134 342.94377 
L 201.023816 358.880193 
L 201.452497 343.352571 
L 201.881178 341.52727 
L 202.309859 358.263693 
L 202.73854 361.073906 
L 203.167222 344.674519 
L 203.595903 340.980789 
L 204.024584 359.123833 
L 204.453265 349.655351 
L 204.881946 331.242468 
L 205.310627 362.976504 
L 205.739309 339.244978 
L 206.16799 369.36 
L 206.596671 350.387454 
L 207.025352 352.822982 
L 207.454033 353.164782 
L 207.882714 353.133475 
L 208.311396 330.881686 
L 208.740077 302.596314 
L 209.168758 323.236935 
L 209.597439 313.687632 
L 210.02612 341.172781 
L 210.454802 321.738214 
L 210.883483 311.435201 
L 211.312164 296.518788 
L 211.740845 346.111796 
L 212.598207 337.718342 
L 213.026889 321.937417 
L 213.45557 328.182672 
L 213.884251 329.561053 
L 214.312932 361.22977 
L 215.170294 320.618549 
L 215.598976 353.319388 
L 216.027657 369.36 
L 216.885019 337.600051 
L 217.3137 345.612307 
L 217.742382 369.36 
L 218.171063 340.109141 
L 218.599744 322.844608 
L 219.028425 369.36 
L 219.457106 293.136952 
L 219.885787 292.091768 
L 220.314469 332.158307 
L 220.74315 329.641515 
L 221.171831 330.39427 
L 221.600512 331.789771 
L 222.029193 312.715596 
L 222.457875 337.32061 
L 222.886556 332.617778 
L 223.315237 312.620734 
L 224.172599 341.034369 
L 225.029962 347.83813 
L 225.458643 340.618509 
L 225.887324 359.796214 
L 226.316005 360.256483 
L 227.173367 330.908054 
L 227.602049 343.786233 
L 228.03073 342.274716 
L 228.459411 331.410862 
L 228.888092 324.012467 
L 229.316773 330.646936 
L 229.745455 348.917394 
L 230.174136 331.192815 
L 230.602817 351.197693 
L 231.031498 334.298686 
L 231.460179 354.533173 
L 231.88886 342.362018 
L 232.317542 358.052793 
L 232.746223 332.150124 
L 233.174904 324.577985 
L 233.603585 322.839169 
L 234.032266 291.057701 
L 234.460948 351.567844 
L 234.889629 299.203317 
L 235.31831 360.910777 
L 235.746991 335.524208 
L 236.175672 354.80084 
L 236.604353 331.391878 
L 237.033035 340.055472 
L 237.461716 360.571457 
L 237.890397 330.85664 
L 238.319078 338.175163 
L 238.747759 331.899673 
L 239.17644 347.535676 
L 240.033803 303.45412 
L 240.462484 340.540347 
L 240.891165 325.607759 
L 241.319846 328.94777 
L 241.748528 325.158574 
L 242.177209 327.520522 
L 242.60589 331.191263 
L 243.034571 319.83971 
L 243.463252 322.991601 
L 243.891933 319.212567 
L 244.320615 339.018154 
L 244.749296 338.285747 
L 245.177977 353.958306 
L 245.606658 349.90607 
L 246.46402 358.367875 
L 246.892702 353.764753 
L 247.321383 354.450883 
L 247.750064 339.267793 
L 248.178745 343.880656 
L 248.607426 337.405424 
L 249.464789 349.507359 
L 250.322151 354.881751 
L 250.750832 333.471791 
L 251.179513 342.516873 
L 251.608195 360.910777 
L 252.036876 325.92603 
L 252.465557 357.494865 
L 252.894238 329.476599 
L 253.322919 350.552835 
L 253.751601 353.124925 
L 254.180282 350.76993 
L 254.608963 356.221803 
L 255.037644 335.413844 
L 255.466325 335.978212 
L 255.895006 357.416713 
L 256.323688 341.972628 
L 256.752369 314.142968 
L 257.18105 320.770493 
L 257.609731 352.896053 
L 258.038412 354.019456 
L 258.467093 340.091218 
L 258.895775 354.826381 
L 259.324456 357.494865 
L 259.753137 350.797643 
L 260.181818 327.151497 
L 260.610499 359.569116 
L 261.039181 321.522567 
L 261.467862 319.893891 
L 261.896543 308.964108 
L 262.325224 338.974257 
L 262.753905 312.84104 
L 263.182586 348.944138 
L 263.611268 330.418349 
L 264.039949 348.952506 
L 264.46863 325.89612 
L 264.897311 339.870104 
L 265.754673 330.574692 
L 266.183355 309.099384 
L 267.040717 348.307551 
L 267.469398 336.85313 
L 267.898079 308.696001 
L 268.326761 361.032809 
L 268.755442 315.144021 
L 269.184123 346.45809 
L 269.612804 343.29866 
L 270.041485 351.14421 
L 270.470166 350.016939 
L 270.898848 341.327319 
L 271.327529 328.200539 
L 271.75621 341.075549 
L 272.184891 324.962078 
L 272.613572 356.236149 
L 273.042254 361.840811 
L 273.470935 308.962736 
L 273.899616 325.121264 
L 274.328297 336.160623 
L 274.756978 333.782308 
L 275.185659 351.511442 
L 275.614341 327.185128 
L 276.043022 326.754162 
L 276.471703 339.911363 
L 276.900384 327.591622 
L 277.329065 325.288047 
L 277.757746 326.830939 
L 278.186428 359.053267 
L 278.615109 358.054813 
L 279.04379 358.367875 
L 279.472471 348.957552 
L 279.901152 348.023229 
L 280.329834 327.062733 
L 280.758515 327.176882 
L 281.187196 355.462508 
L 281.615877 350.780443 
L 282.044558 327.260834 
L 282.473239 351.18613 
L 282.901921 351.950067 
L 283.330602 318.436444 
L 283.759283 338.742376 
L 284.187964 329.876234 
L 284.616645 311.497844 
L 285.045327 313.618357 
L 285.474008 348.443106 
L 285.902689 337.834472 
L 286.33137 353.166218 
L 286.760051 347.306137 
L 287.188732 353.650054 
L 287.617414 351.985501 
L 288.046095 369.36 
L 288.474776 369.36 
L 288.903457 329.653018 
L 289.332138 356.356885 
L 289.760819 359.307055 
L 290.189501 336.428797 
L 290.618182 321.49108 
L 291.046863 348.325773 
L 291.475544 289.45354 
L 291.904225 329.734563 
L 292.332907 322.441164 
L 292.761588 295.754314 
L 293.190269 327.936784 
L 293.61895 344.738266 
L 294.047631 332.655171 
L 294.476312 354.238476 
L 294.904994 336.085414 
L 295.333675 346.902603 
L 295.762356 349.578153 
L 296.619718 329.564009 
L 297.048399 345.230889 
L 297.477081 334.897557 
L 297.905762 333.048132 
L 298.334443 356.942459 
L 299.191805 345.540239 
L 299.620487 358.947619 
L 300.049168 356.027682 
L 300.477849 343.913303 
L 300.90653 356.977672 
L 301.335211 324.949831 
L 301.763892 360.92624 
L 302.192574 318.080473 
L 302.621255 328.715799 
L 303.049936 328.33305 
L 303.478617 342.992184 
L 303.907298 351.30529 
L 304.33598 314.961187 
L 304.764661 339.201685 
L 305.193342 350.44583 
L 305.622023 339.095054 
L 306.050704 334.808832 
L 306.479385 337.907327 
L 306.908067 313.438194 
L 307.336748 369.36 
L 307.765429 369.36 
L 308.19411 357.568086 
L 308.622791 369.36 
L 309.051472 351.30365 
L 309.480154 358.289568 
L 309.908835 369.36 
L 310.337516 354.238476 
L 310.766197 354.157592 
L 311.194878 334.530334 
L 311.62356 328.864975 
L 312.052241 345.309577 
L 312.480922 349.591578 
L 312.909603 348.371452 
L 313.338284 334.715132 
L 313.766965 351.96134 
L 314.195647 356.549561 
L 314.624328 338.587625 
L 315.053009 359.693093 
L 315.48169 339.293599 
L 315.910371 341.607203 
L 316.339052 352.871718 
L 316.767734 351.224307 
L 317.196415 350.814371 
L 317.625096 355.149879 
L 318.053777 345.189318 
L 318.482458 356.559317 
L 318.91114 358.17443 
L 319.339821 343.152483 
L 319.768502 363.440295 
L 320.197183 361.998999 
L 321.054545 331.042097 
L 321.483227 327.289664 
L 321.911908 345.775362 
L 322.340589 349.64852 
L 322.76927 337.675893 
L 323.197951 346.262027 
L 323.626633 340.662195 
L 324.055314 347.780247 
L 324.483995 349.125527 
L 324.912676 342.90065 
L 325.341357 353.902024 
L 325.770038 348.921504 
L 326.19872 347.5672 
L 326.627401 355.825515 
L 327.056082 369.36 
L 327.484763 361.603084 
L 327.913444 333.499299 
L 328.342125 369.36 
L 328.770807 363.321744 
L 329.199488 362.755674 
L 329.628169 369.36 
L 330.05685 352.735107 
L 330.914213 362.681523 
L 331.342894 351.537258 
L 331.771575 353.164463 
L 332.628937 344.93602 
L 333.057618 339.619082 
L 333.4863 342.61897 
L 333.914981 340.185987 
L 334.343662 351.167437 
L 334.772343 352.455969 
L 335.201024 332.812377 
L 335.629706 342.745785 
L 336.058387 345.87918 
L 336.487068 347.69453 
L 336.915749 345.828509 
L 337.34443 351.016499 
L 337.773111 351.25102 
L 338.201793 369.36 
L 338.630474 369.36 
L 339.059155 350.216771 
L 339.487836 369.36 
L 339.916517 369.36 
L 340.345198 352.618561 
L 340.77388 355.846818 
L 341.202561 352.40408 
L 341.631242 362.845933 
L 342.059923 318.248539 
L 342.488604 363.035549 
L 342.917286 347.96245 
L 343.345967 355.371246 
L 343.774648 350.93204 
L 344.203329 347.807527 
L 344.63201 332.097987 
L 345.060691 326.535067 
L 345.489373 352.149435 
L 345.918054 359.984603 
L 346.346735 336.578593 
L 346.775416 352.60383 
L 347.204097 347.579942 
L 347.632778 356.409775 
L 348.06146 353.93568 
L 348.490141 331.114078 
L 348.918822 369.36 
L 349.347503 355.468792 
L 349.776184 349.098699 
L 350.204866 361.047799 
L 350.633547 355.099073 
L 351.062228 356.118267 
L 351.490909 369.36 
L 351.91959 332.168469 
L 352.348271 346.462176 
L 352.776953 343.06983 
L 353.205634 332.435923 
L 353.634315 344.703964 
L 354.062996 324.926462 
L 354.491677 341.121945 
L 354.920359 341.412245 
L 355.34904 340.323942 
L 355.777721 355.215608 
L 356.206402 333.258695 
L 356.635083 355.971907 
L 357.492446 318.997419 
L 357.921127 345.874039 
L 358.349808 361.876861 
L 358.778489 369.36 
L 359.20717 369.36 
L 359.635851 362.458089 
L 360.064533 361.982833 
L 360.493214 369.36 
L 360.921895 349.264842 
L 361.350576 336.563999 
L 361.779257 349.205281 
L 362.207939 355.79722 
L 362.63662 358.340605 
L 363.065301 360.061077 
L 363.493982 356.159462 
L 363.922663 362.069259 
L 364.351344 356.179153 
L 364.780026 340.699671 
L 365.637388 354.257156 
L 366.066069 351.449455 
L 366.49475 350.831838 
L 366.923431 361.53503 
L 367.352113 345.129643 
L 367.780794 348.433264 
L 368.209475 369.36 
L 368.638156 346.592648 
L 369.066837 344.705493 
L 369.495519 369.36 
L 369.9242 360.941642 
L 370.352881 347.093469 
L 370.781562 355.775843 
L 371.210243 358.145244 
L 371.638924 348.23716 
L 372.067606 344.751796 
L 372.496287 369.36 
L 372.924968 348.058776 
L 373.78233 358.729606 
L 374.211012 348.391399 
L 375.068374 356.75 
L 375.497055 362.561507 
L 375.925736 333.174996 
L 376.354417 345.610808 
L 376.783099 348.614101 
L 377.21178 345.672863 
L 377.640461 347.878132 
L 378.069142 345.237843 
L 378.497823 352.114812 
L 378.926504 332.763004 
L 379.355186 360.92624 
L 379.783867 369.36 
L 380.641229 369.36 
L 381.06991 345.710868 
L 381.498592 314.859629 
L 381.927273 369.36 
L 382.784635 306.265849 
L 383.213316 350.394437 
L 383.641997 330.69444 
L 384.070679 323.607133 
L 384.928041 347.890879 
L 385.356722 298.789811 
L 385.785403 336.41919 
L 386.214085 321.107869 
L 387.071447 353.319388 
L 387.500128 333.094558 
L 387.928809 351.947343 
L 388.35749 316.310546 
L 388.786172 338.512669 
L 389.214853 344.360085 
L 389.643534 336.889683 
L 390.072215 357.639603 
L 390.500896 346.722054 
L 390.929577 369.36 
L 391.358259 356.652827 
L 391.78694 305.456272 
L 392.215621 330.063788 
L 392.644302 304.24356 
L 393.072983 337.625025 
L 393.501665 359.994267 
L 393.930346 309.093826 
L 394.359027 344.799441 
L 394.787708 320.94529 
L 395.216389 355.860917 
L 395.64507 311.864341 
L 396.073752 330.764406 
L 396.502433 318.789696 
L 396.931114 352.494552 
L 397.359795 294.186718 
L 397.788476 295.846697 
L 398.645839 357.045577 
L 399.07452 332.306259 
L 399.503201 338.87516 
L 399.931882 359.916352 
L 400.360563 359.526458 
L 400.789245 358.632837 
L 401.217926 359.396062 
L 401.646607 356.648584 
L 402.075288 351.203524 
L 402.503969 354.573931 
L 402.93265 307.582855 
L 403.361332 320.817545 
L 403.790013 351.340131 
L 404.218694 346.48784 
L 404.647375 322.496106 
L 405.076056 349.33197 
L 405.933419 317.546255 
L 406.3621 345.45381 
L 406.790781 334.321804 
L 407.219462 332.425549 
L 407.648143 329.216386 
L 408.076825 332.045167 
L 408.505506 344.616755 
L 408.934187 330.218822 
L 409.362868 292.702348 
L 409.791549 340.629341 
L 410.22023 369.36 
L 411.077593 369.36 
L 411.506274 353.440808 
L 412.363636 355.602193 
L 412.792318 315.193034 
L 413.220999 369.36 
L 413.64968 349.03097 
L 414.078361 323.388674 
L 414.507042 319.516702 
L 414.935723 360.201622 
L 415.364405 321.880154 
L 415.793086 335.13116 
L 416.221767 361.767588 
L 416.650448 361.294098 
L 417.079129 329.480759 
L 417.50781 338.922007 
L 417.936492 354.371986 
L 418.365173 328.411123 
L 418.793854 313.93681 
L 419.222535 335.912305 
L 419.651216 306.638626 
L 420.079898 369.36 
L 420.508579 369.36 
L 420.93726 339.66422 
L 421.365941 347.038729 
L 421.794622 345.851308 
L 422.223303 336.349624 
L 422.651985 356.502499 
L 423.080666 357.732424 
L 423.509347 323.449036 
L 423.938028 334.133767 
L 424.366709 298.519286 
L 424.795391 328.091443 
L 425.224072 308.419251 
L 425.652753 311.894749 
L 426.081434 276.928042 
L 426.510115 309.769061 
L 426.938796 294.12767 
L 427.367478 315.645339 
L 427.796159 315.869164 
L 428.22484 319.109852 
L 428.653521 348.739836 
L 429.082202 327.209938 
L 429.510883 316.246028 
L 429.939565 315.909584 
L 430.368246 330.112704 
L 430.796927 332.241283 
L 431.225608 369.36 
L 432.940333 369.36 
L 433.369014 342.890802 
L 433.797695 348.542821 
L 434.226376 344.360085 
L 434.655058 328.837686 
L 435.083739 347.67758 
L 435.941101 314.299435 
L 436.369782 347.444522 
L 436.798464 369.36 
L 437.655826 343.183512 
L 438.084507 356.100221 
L 438.513188 358.485083 
L 438.941869 318.955599 
L 439.370551 333.396795 
L 439.799232 326.412204 
L 440.227913 344.2834 
L 440.656594 308.267789 
L 441.085275 369.36 
L 441.513956 267.407629 
L 441.942638 369.36 
L 442.371319 347.611318 
L 442.8 359.123833 
L 443.228681 353.677817 
L 443.657362 317.504237 
L 444.086044 304.612113 
L 444.514725 336.10689 
L 444.943406 347.303611 
L 445.372087 355.051365 
L 445.800768 325.842032 
L 446.229449 309.078135 
L 446.658131 332.462278 
L 447.086812 343.441359 
L 447.944174 350.915951 
L 448.372855 320.898427 
L 448.801536 339.706468 
L 449.230218 352.886506 
L 449.658899 357.444873 
L 450.08758 315.739037 
L 450.516261 358.945442 
L 450.944942 369.36 
L 451.802305 369.36 
L 452.230986 359.653257 
L 452.659667 369.36 
L 453.517029 337.430837 
L 453.945711 327.635091 
L 454.374392 331.587317 
L 454.803073 360.903023 
L 455.231754 344.41516 
L 455.660435 355.160421 
L 456.089117 343.029362 
L 456.517798 364.596801 
L 456.946479 355.796329 
L 457.37516 360.080566 
L 457.803841 357.161917 
L 458.232522 333.779857 
L 458.661204 320.667445 
L 459.089885 343.007135 
L 459.518566 316.087223 
L 459.947247 351.375271 
L 460.375928 341.318526 
L 460.804609 303.446789 
L 461.233291 349.429897 
L 461.661972 357.082038 
L 462.090653 341.186487 
L 462.519334 369.36 
L 462.948015 360.451771 
L 463.376697 357.191981 
L 463.805378 334.359523 
L 464.234059 369.36 
L 464.66274 331.579579 
L 465.091421 338.579542 
L 465.520102 352.591817 
L 465.948784 334.228261 
L 466.806146 350.2398 
L 467.234827 343.444616 
L 467.663508 315.179267 
L 468.09219 351.98754 
L 468.520871 356.919071 
L 468.949552 340.507817 
L 469.378233 354.380796 
L 469.806914 333.478688 
L 470.235595 343.244757 
L 470.664277 337.371889 
L 471.092958 363.553997 
L 471.521639 357.239146 
L 471.95032 369.36 
L 472.379001 369.36 
L 472.807682 362.746501 
L 473.236364 363.389044 
L 473.665045 369.36 
L 474.522407 348.712205 
L 474.951088 347.555698 
L 475.37977 342.131496 
L 475.808451 296.277214 
L 476.237132 301.78412 
L 476.665813 360.571457 
L 477.094494 369.36 
L 477.523175 316.798488 
L 477.951857 346.882467 
L 478.380538 330.069399 
L 478.809219 343.519538 
L 479.2379 310.70614 
L 479.666581 342.537084 
L 480.095262 357.717063 
L 480.523944 333.97029 
L 480.952625 322.112595 
L 481.381306 335.914166 
L 482.238668 345.472725 
L 482.66735 361.335956 
L 483.096031 338.056067 
L 483.524712 358.981651 
L 483.953393 337.580679 
L 484.382074 354.554702 
L 484.810755 334.574666 
L 485.239437 359.396062 
L 485.668118 334.517432 
L 486.096799 334.189543 
L 486.52548 332.62206 
L 486.954161 369.36 
L 487.382843 369.36 
L 487.811524 358.884489 
L 488.240205 360.10013 
L 489.097567 321.918789 
L 489.526248 339.603712 
L 489.95493 347.605462 
L 490.383611 309.777075 
L 490.812292 338.780995 
L 491.240973 348.911668 
L 491.669654 347.303611 
L 492.098335 339.712144 
L 492.527017 369.36 
L 492.955698 340.497768 
L 493.384379 369.36 
L 493.81306 369.36 
L 494.241741 359.193374 
L 494.670423 360.051808 
L 495.099104 348.159753 
L 495.527785 332.448968 
L 496.385147 362.163537 
L 497.24251 350.165039 
L 497.671191 341.201224 
L 498.099872 362.554006 
L 498.528553 363.72918 
L 498.957234 309.760778 
L 499.385915 344.218496 
L 499.814597 322.196078 
L 500.243278 348.59633 
L 500.671959 343.128925 
L 501.10064 330.281549 
L 501.529321 333.45653 
L 501.958003 352.769338 
L 502.386684 330.746974 
L 502.815365 361.840811 
L 503.244046 369.36 
L 503.672727 369.36 
L 504.101408 358.933313 
L 504.53009 333.772195 
L 504.958771 331.450195 
L 505.387452 369.36 
L 505.816133 326.591435 
L 506.244814 332.96635 
L 506.673496 345.897722 
L 507.102177 298.371464 
L 507.530858 347.850912 
L 507.959539 306.874768 
L 508.38822 359.288417 
L 508.816901 369.36 
L 509.245583 348.362287 
L 509.674264 342.172609 
L 510.102945 343.536344 
L 510.531626 351.664251 
L 510.960307 337.358412 
L 511.388988 337.783988 
L 511.81767 351.383135 
L 512.246351 343.405748 
L 512.675032 331.306417 
L 513.103713 369.36 
L 513.532394 327.773673 
L 513.961076 369.36 
L 514.389757 369.36 
L 514.818438 354.857052 
L 515.247119 357.701659 
L 515.6758 347.206048 
L 516.104481 304.917007 
L 516.961844 349.392471 
L 517.390525 342.298766 
L 517.819206 325.419037 
L 518.247887 358.313189 
L 518.676569 342.950296 
L 519.10525 353.396364 
L 519.533931 356.462487 
L 519.962612 363.702964 
L 520.391293 351.6509 
L 520.819974 357.120043 
L 521.248656 333.200184 
L 521.677337 325.287102 
L 522.106018 333.340885 
L 522.534699 327.488182 
L 522.96338 357.400444 
L 523.392061 369.36 
L 523.820743 361.616475 
L 524.249424 362.907568 
L 524.678105 369.36 
L 525.106786 369.36 
L 525.535467 362.643778 
L 525.964149 363.351854 
L 526.39283 354.807584 
L 526.821511 312.228925 
L 527.250192 341.230063 
L 527.678873 329.003379 
L 528.107554 327.979551 
L 528.536236 340.607365 
L 528.964917 329.491393 
L 529.393598 349.253174 
L 529.822279 354.019456 
L 530.25096 349.129341 
L 530.679641 341.854956 
L 531.108323 341.657479 
L 531.537004 314.010024 
L 531.965685 339.058116 
L 532.394366 334.574666 
L 532.823047 369.36 
L 533.251729 299.324887 
L 534.109091 369.36 
L 534.966453 369.36 
L 535.395134 344.518378 
L 535.823816 328.597454 
L 536.252497 331.577512 
L 536.681178 348.066291 
L 537.109859 359.357157 
L 537.53854 347.009587 
L 537.967222 324.625692 
L 538.395903 343.431646 
L 538.824584 334.339669 
L 539.253265 349.299 
L 539.681946 358.448825 
L 540.110627 346.190007 
L 540.539309 347.199133 
L 540.96799 350.303702 
L 541.396671 348.317721 
L 541.825352 363.806301 
L 542.254033 347.985749 
L 542.682714 339.590127 
L 543.111396 343.327717 
L 543.540077 356.328751 
L 543.968758 357.470241 
L 544.397439 369.36 
L 546.112164 369.36 
L 546.540845 330.365381 
L 546.969526 316.917996 
L 547.398207 350.788122 
L 547.826889 347.876673 
L 548.25557 349.064895 
L 548.684251 338.882888 
L 549.112932 356.562554 
L 549.541613 350.8014 
L 549.970294 356.296815 
L 550.398976 350.995462 
L 550.827657 317.963821 
L 551.685019 369.36 
L 552.1137 340.980789 
L 552.542382 352.616224 
L 552.971063 369.36 
L 553.828425 315.547751 
L 554.257106 326.337108 
L 554.685787 369.36 
L 555.114469 346.913213 
L 555.54315 342.12612 
L 556.400512 369.36 
L 556.829193 347.968591 
L 557.257875 357.481318 
L 557.686556 353.907367 
L 558.115237 336.847711 
L 558.543918 308.695186 
L 559.40128 349.750183 
L 559.829962 360.256483 
L 560.258643 318.021042 
L 560.687324 314.130026 
L 561.116005 315.995084 
L 561.544686 332.341159 
L 561.973367 331.60352 
L 562.402049 326.13246 
L 563.259411 354.757752 
L 563.688092 363.077018 
L 564.116773 323.648657 
L 564.545455 369.36 
L 565.831498 369.36 
L 566.68886 352.822982 
L 567.117542 321.285064 
L 567.546223 331.10262 
L 567.974904 336.357581 
L 568.403585 343.735502 
L 568.832266 356.21009 
L 569.260948 358.418542 
L 569.689629 306.237418 
L 570.11831 361.564666 
L 570.546991 303.074123 
L 570.975672 325.168771 
L 571.404353 315.115607 
L 571.833035 338.663615 
L 572.261716 325.335176 
L 572.690397 325.947987 
L 573.119078 339.321857 
L 573.547759 310.877176 
L 573.97644 346.986369 
L 574.405122 354.65698 
L 575.262484 349.723964 
L 575.691165 369.36 
L 576.119846 369.36 
L 576.548528 347.366148 
L 576.977209 369.36 
L 577.40589 336.778045 
L 577.834571 346.986369 
L 578.263252 320.797073 
L 578.691933 336.309989 
L 579.120615 316.679666 
L 579.549296 322.551211 
L 579.977977 350.02887 
L 580.406658 341.824203 
L 580.835339 349.655351 
L 581.26402 333.238806 
L 581.692702 361.458795 
L 582.121383 322.200739 
L 582.550064 328.859871 
L 582.978745 296.172074 
L 583.407426 329.127164 
L 583.836108 320.780186 
L 584.264789 335.323556 
L 584.69347 369.36 
L 585.122151 332.737523 
L 585.550832 308.78687 
L 585.979513 344.660242 
L 586.408195 343.083729 
L 586.836876 359.373969 
L 587.265557 369.36 
L 587.694238 361.237556 
L 588.551601 320.367988 
L 588.980282 352.515147 
L 589.408963 329.991124 
L 589.837644 340.223045 
L 590.266325 361.48555 
L 590.695006 317.881533 
L 591.123688 334.352874 
L 591.552369 323.989217 
L 591.98105 356.676591 
L 592.409731 306.478607 
L 593.267093 332.861913 
L 593.695775 329.863603 
L 594.124456 358.271791 
L 594.553137 347.050602 
L 594.981818 349.810279 
L 595.410499 349.836516 
L 595.839181 369.36 
L 596.267862 337.264312 
L 596.696543 369.36 
L 597.125224 338.078386 
L 597.553905 350.953233 
L 597.982586 322.48388 
L 598.411268 335.267898 
L 598.839949 337.564259 
L 599.26863 343.704453 
L 599.697311 325.689696 
L 600.125992 361.062732 
L 600.554673 304.529668 
L 600.983355 353.235286 
L 601.412036 352.846336 
L 601.840717 313.650767 
L 602.269398 351.408285 
L 602.698079 356.85348 
L 603.126761 353.977634 
L 603.555442 348.170909 
L 603.984123 347.264988 
L 604.412804 353.530584 
L 605.270166 324.683551 
L 605.698848 335.727526 
L 606.127529 369.36 
L 606.55621 357.392324 
L 606.984891 369.36 
L 608.270935 336.89458 
L 608.699616 350.207708 
L 609.128297 333.214436 
L 609.556978 352.111709 
L 609.985659 341.207114 
L 610.414341 319.014982 
L 610.843022 329.427657 
L 611.271703 356.445138 
L 611.700384 359.094072 
L 612.129065 337.834472 
L 612.557746 347.337976 
L 612.986428 343.617539 
L 613.415109 317.767242 
L 613.84379 363.560949 
L 614.272471 344.791792 
L 614.701152 333.101343 
L 615.129834 361.141034 
L 615.558515 369.36 
L 617.701921 369.36 
L 618.130602 330.828698 
L 618.559283 369.36 
L 618.987964 329.538222 
L 619.416645 321.651386 
L 619.845327 369.36 
L 620.274008 349.70289 
L 620.702689 353.907367 
L 621.13137 303.829254 
L 621.560051 319.948071 
L 621.988732 369.36 
L 622.417414 369.36 
L 622.846095 313.387098 
L 623.274776 299.443403 
L 623.703457 354.732699 
L 624.132138 325.21258 
L 624.560819 344.449037 
L 624.989501 350.647135 
L 625.418182 324.680459 
L 625.846863 339.931968 
L 626.275544 369.36 
L 626.704225 352.546796 
L 627.132907 369.36 
L 627.561588 353.440808 
L 627.990269 369.36 
L 628.41895 337.889843 
L 628.847631 326.77575 
L 629.276312 321.297681 
L 629.704994 330.121667 
L 630.562356 356.425895 
L 630.991037 347.285269 
L 631.419718 360.520586 
L 631.848399 354.90616 
L 632.277081 359.076905 
L 632.705762 316.761461 
L 633.134443 359.916352 
L 633.563124 349.87289 
L 633.991805 354.450883 
L 634.420487 328.131338 
L 634.849168 316.92247 
L 635.277849 326.366208 
L 635.70653 300.671597 
L 636.563892 369.36 
L 636.992574 342.083471 
L 637.421255 331.473092 
L 637.849936 369.36 
L 638.278617 328.945107 
L 638.707298 327.374377 
L 639.13598 311.851388 
L 639.564661 346.262027 
L 639.993342 343.137976 
L 640.422023 347.466353 
L 641.279385 318.312337 
L 641.708067 356.871385 
L 642.136748 312.578868 
L 642.565429 327.618991 
L 642.99411 320.941637 
L 643.422791 341.492508 
L 643.851472 248.798654 
L 644.280154 280.534623 
L 644.708835 301.408081 
L 645.137516 360.87967 
L 645.566197 324.794537 
L 645.994878 329.332799 
L 646.42356 353.907367 
L 646.852241 343.187733 
L 647.280922 348.103783 
L 648.138284 369.36 
L 648.566965 369.36 
L 648.995647 355.860917 
L 649.424328 355.860917 
L 649.853009 326.105852 
L 650.28169 307.486441 
L 650.710371 310.92396 
L 651.139052 339.87986 
L 651.567734 303.996339 
L 651.996415 307.529253 
L 652.425096 323.224936 
L 652.853777 351.689416 
L 653.282458 277.915276 
L 654.568502 338.530681 
L 654.997183 243.900651 
L 655.425864 259.331396 
L 655.854545 337.126738 
L 656.283227 319.979764 
L 656.711908 356.907031 
L 657.140589 337.713833 
L 657.56927 369.36 
L 658.426633 369.36 
L 658.855314 193.141088 
L 659.283995 294.095151 
L 659.712676 66.96 
L 660.141357 299.177742 
L 660.570038 266.484636 
L 660.99872 252.550654 
L 661.427401 260.917644 
L 661.856082 246.064352 
L 662.284763 274.107472 
L 662.713444 264.182767 
L 663.142125 246.156036 
L 663.570807 305.090729 
L 663.999488 303.111443 
L 664.428169 287.313287 
L 664.85685 335.421372 
L 665.285531 291.979847 
L 665.714213 322.216348 
L 666.142894 311.304951 
L 666.571575 227.657442 
L 667.000256 309.150685 
L 667.428937 331.143003 
L 667.857618 298.690876 
L 668.2863 340.060498 
L 668.714981 347.038729 
L 669.143662 300.145864 
L 669.572343 346.527344 
L 670.001024 312.228925 
L 670.429706 332.610306 
L 670.858387 307.803913 
L 671.287068 210.29874 
L 671.715749 244.701621 
L 672.14443 310.217378 
L 672.573111 346.282035 
L 673.001793 314.664074 
L 673.430474 320.40808 
L 673.859155 333.387456 
L 674.287836 316.688825 
L 674.716517 345.163758 
L 675.57388 288.06264 
L 676.002561 343.299278 
L 676.431242 289.152133 
L 677.288604 369.36 
L 677.717286 339.999149 
L 678.145967 335.515618 
L 678.574648 356.190087 
L 679.003329 354.238476 
L 679.43201 369.36 
L 679.860691 354.398384 
L 680.289373 299.531004 
L 680.718054 298.205439 
L 681.146735 319.109852 
L 681.575416 318.22513 
L 682.004097 348.325773 
L 682.432778 357.608308 
L 682.86146 319.423525 
L 683.290141 334.399203 
L 683.718822 294.580696 
L 684.147503 284.153575 
L 684.576184 281.06119 
L 685.004866 254.785571 
L 685.433547 319.710688 
L 685.862228 294.02412 
L 686.290909 353.793502 
L 686.71959 342.083471 
L 687.576953 337.933514 
L 688.005634 369.36 
L 688.434315 369.36 
L 688.862996 334.245127 
L 689.291677 369.36 
L 690.14904 369.36 
L 690.577721 348.755093 
L 691.006402 266.329445 
L 691.435083 285.27108 
L 691.863764 244.99525 
L 692.292446 321.084418 
L 692.721127 333.908727 
L 693.149808 339.77149 
L 693.578489 226.656271 
L 694.00717 295.088473 
L 694.435851 344.980523 
L 694.864533 282.261232 
L 695.293214 348.970576 
L 695.721895 318.12414 
L 696.150576 321.227541 
L 696.579257 332.397083 
L 697.007939 332.277021 
L 697.43662 335.072624 
L 697.865301 323.682253 
L 698.293982 357.285215 
L 698.722663 369.36 
L 699.151344 355.332582 
L 699.580026 369.36 
L 700.437388 369.36 
L 700.866069 330.531875 
L 701.29475 312.289934 
L 701.723431 336.273609 
L 702.152113 305.992223 
L 702.580794 259.339012 
L 703.009475 318.622845 
L 703.866837 221.901893 
L 704.295519 336.987877 
L 704.7242 242.948178 
L 705.152881 282.408553 
L 705.581562 300.536876 
L 706.010243 253.925493 
L 706.438924 282.339221 
L 706.867606 369.36 
L 707.296287 322.370937 
L 707.724968 304.199854 
L 708.153649 369.36 
L 708.58233 358.528509 
L 709.011012 369.36 
L 709.439693 369.36 
L 709.868374 331.977065 
L 710.297055 323.619621 
L 710.725736 324.562922 
L 711.154417 346.126853 
L 711.583099 282.65607 
L 712.01178 315.275846 
L 712.440461 295.421264 
L 712.869142 296.662755 
L 713.297823 353.380346 
L 713.726504 273.233965 
L 714.155186 297.656344 
L 714.583867 341.115487 
L 715.012548 337.876613 
L 715.441229 291.953012 
L 715.86991 325.121032 
L 716.298592 339.404254 
L 716.727273 341.526529 
L 717.155954 341.272711 
L 717.584635 343.670366 
L 718.013316 347.121567 
L 718.441997 331.989009 
L 718.870679 356.578137 
L 719.29936 369.36 
L 719.728041 354.65698 
L 720.156722 335.828354 
L 721.014085 321.952254 
L 721.442766 353.006934 
L 721.871447 280.43173 
L 722.300128 334.847359 
L 722.728809 340.681737 
L 723.15749 331.232184 
L 723.586172 325.043926 
L 724.014853 285.704787 
L 724.443534 319.221675 
L 724.872215 330.731047 
L 725.300896 359.876871 
L 725.729577 330.872602 
L 726.158259 321.250327 
L 726.58694 324.09609 
L 727.015621 317.813293 
L 727.444302 340.643587 
L 727.872983 317.22278 
L 728.301665 339.996224 
L 728.730346 369.36 
L 729.159027 294.965887 
L 729.587708 349.064895 
L 730.016389 369.36 
L 730.44507 348.434904 
L 730.873752 347.285269 
L 731.302433 258.905467 
L 731.731114 340.339434 
L 732.159795 338.192804 
L 732.588476 286.515713 
L 733.017157 332.584161 
L 733.445839 302.066433 
L 733.87452 242.953171 
L 734.303201 330.111699 
L 734.731882 293.51502 
L 735.160563 330.368937 
L 735.589245 302.207815 
L 736.017926 356.149885 
L 736.446607 284.883062 
L 736.875288 330.368937 
L 737.303969 329.904563 
L 737.73265 326.105852 
L 738.161332 319.330446 
L 738.590013 315.869164 
L 739.018694 349.364822 
L 739.447375 350.209971 
L 739.876056 274.909137 
L 740.304738 369.36 
L 740.733419 369.36 
L 741.1621 287.892018 
L 741.590781 352.489079 
L 742.019462 348.96275 
L 742.448143 290.614685 
L 742.876825 355.602193 
L 743.305506 356.689821 
L 743.734187 338.320718 
L 744.162868 296.368939 
L 745.02023 308.015779 
L 745.448912 316.486495 
L 745.877593 293.506508 
L 746.306274 307.135483 
L 746.734955 326.466694 
L 746.734955 326.466694 
" style="fill:none;stroke:#1f77b4;stroke-linecap:square;stroke-width:1.5;"/>
   </g>
   <g id="line2d_19">
    <path clip-path="url(#pf6708680d0)" d="M 747.163636 384.48 
L 747.163636 51.84 
" style="fill:none;stroke:#808080;stroke-linecap:square;"/>
   </g>
   <g id="patch_104">
    <path d="M 108 384.48 
L 108 51.84 
" style="fill:none;stroke:#000000;stroke-linecap:square;stroke-linejoin:miter;stroke-width:0.8;"/>
   </g>
   <g id="patch_105">
    <path d="M 777.6 384.48 
L 777.6 51.84 
" style="fill:none;stroke:#000000;stroke-linecap:square;stroke-linejoin:miter;stroke-width:0.8;"/>
   </g>
   <g id="patch_106">
    <path d="M 108 384.48 
L 777.6 384.48 
" style="fill:none;stroke:#000000;stroke-linecap:square;stroke-linejoin:miter;stroke-width:0.8;"/>
   </g>
   <g id="patch_107">
    <path d="M 108 51.84 
L 777.6 51.84 
" style="fill:none;stroke:#000000;stroke-linecap:square;stroke-linejoin:miter;stroke-width:0.8;"/>
   </g>
   <g id="text_20">
    <!-- real_1.csv -->
    <defs>
     <path d="M 41.109375 46.296875 
Q 39.59375 47.171875 37.8125 47.578125 
Q 36.03125 48 33.890625 48 
Q 26.265625 48 22.1875 43.046875 
Q 18.109375 38.09375 18.109375 28.8125 
L 18.109375 0 
L 9.078125 0 
L 9.078125 54.6875 
L 18.109375 54.6875 
L 18.109375 46.1875 
Q 20.953125 51.171875 25.484375 53.578125 
Q 30.03125 56 36.53125 56 
Q 37.453125 56 38.578125 55.875 
Q 39.703125 55.765625 41.0625 55.515625 
z
" id="DejaVuSans-114"/>
     <path d="M 50.984375 -16.609375 
L 50.984375 -23.578125 
L -0.984375 -23.578125 
L -0.984375 -16.609375 
z
" id="DejaVuSans-95"/>
     <path d="M 48.78125 52.59375 
L 48.78125 44.1875 
Q 44.96875 46.296875 41.140625 47.34375 
Q 37.3125 48.390625 33.40625 48.390625 
Q 24.65625 48.390625 19.8125 42.84375 
Q 14.984375 37.3125 14.984375 27.296875 
Q 14.984375 17.28125 19.8125 11.734375 
Q 24.65625 6.203125 33.40625 6.203125 
Q 37.3125 6.203125 41.140625 7.25 
Q 44.96875 8.296875 48.78125 10.40625 
L 48.78125 2.09375 
Q 45.015625 0.34375 40.984375 -0.53125 
Q 36.96875 -1.421875 32.421875 -1.421875 
Q 20.0625 -1.421875 12.78125 6.34375 
Q 5.515625 14.109375 5.515625 27.296875 
Q 5.515625 40.671875 12.859375 48.328125 
Q 20.21875 56 33.015625 56 
Q 37.15625 56 41.109375 55.140625 
Q 45.0625 54.296875 48.78125 52.59375 
z
" id="DejaVuSans-99"/>
     <path d="M 2.984375 54.6875 
L 12.5 54.6875 
L 29.59375 8.796875 
L 46.6875 54.6875 
L 56.203125 54.6875 
L 35.6875 0 
L 23.484375 0 
z
" id="DejaVuSans-118"/>
    </defs>
    <g transform="translate(412.599375 45.84)scale(0.12 -0.12)">
     <use xlink:href="#DejaVuSans-114"/>
     <use x="41.082031" xlink:href="#DejaVuSans-101"/>
     <use x="102.605469" xlink:href="#DejaVuSans-97"/>
     <use x="163.884766" xlink:href="#DejaVuSans-108"/>
     <use x="191.667969" xlink:href="#DejaVuSans-95"/>
     <use x="241.667969" xlink:href="#DejaVuSans-49"/>
     <use x="305.291016" xlink:href="#DejaVuSans-46"/>
     <use x="337.078125" xlink:href="#DejaVuSans-99"/>
     <use x="392.058594" xlink:href="#DejaVuSans-115"/>
     <use x="444.158203" xlink:href="#DejaVuSans-118"/>
    </g>
   </g>
   <g id="legend_1">
    <g id="patch_108">
     <path d="M 711.284375 74.518125 
L 770.6 74.518125 
Q 772.6 74.518125 772.6 72.518125 
L 772.6 58.84 
Q 772.6 56.84 770.6 56.84 
L 711.284375 56.84 
Q 709.284375 56.84 709.284375 58.84 
L 709.284375 72.518125 
Q 709.284375 74.518125 711.284375 74.518125 
z
" style="fill:#ffffff;opacity:0.8;stroke:#cccccc;stroke-linejoin:miter;"/>
    </g>
    <g id="line2d_20">
     <path d="M 713.284375 64.938438 
L 733.284375 64.938438 
" style="fill:none;stroke:#1f77b4;stroke-linecap:square;stroke-width:1.5;"/>
    </g>
    <g id="line2d_21"/>
    <g id="text_21">
     <!-- value -->
     <g transform="translate(741.284375 68.438438)scale(0.1 -0.1)">
      <use xlink:href="#DejaVuSans-118"/>
      <use x="59.179688" xlink:href="#DejaVuSans-97"/>
      <use x="120.458984" xlink:href="#DejaVuSans-108"/>
      <use x="148.242188" xlink:href="#DejaVuSans-117"/>
      <use x="211.621094" xlink:href="#DejaVuSans-101"/>
     </g>
    </g>
   </g>
  </g>
 </g>
 <defs>
  <clipPath id="pf6708680d0">
   <rect height="332.64" width="669.6" x="108" y="51.84"/>
  </clipPath>
 </defs>
</svg>
